<?xml version="1.0" encoding="UTF-8" standalone="no"?>
<!DOCTYPE svg PUBLIC "-//W3C//DTD SVG 1.1//EN"
 "http://www.w3.org/Graphics/SVG/1.1/DTD/svg11.dtd">
<!-- Generated by graphviz version 2.43.0 (0)
 -->
<!-- Title: OMSimEffectiveAreaAnalyisis.cc Pages: 1 -->
<svg width="1229pt" height="319pt"
 viewBox="0.00 0.00 1228.50 319.00" xmlns="http://www.w3.org/2000/svg" xmlns:xlink="http://www.w3.org/1999/xlink">
<g id="graph0" class="graph" transform="scale(1 1) rotate(0) translate(4 315)">
<title>OMSimEffectiveAreaAnalyisis.cc</title>
<polygon fill="white" stroke="transparent" points="-4,4 -4,-315 1224.5,-315 1224.5,4 -4,4"/>
<!-- Node1 -->
<g id="node1" class="node">
<title>Node1</title>
<g id="a_node1"><a xlink:title=" ">
<polygon fill="#bfbfbf" stroke="black" points="630,-291.5 630,-310.5 805,-310.5 805,-291.5 630,-291.5"/>
<text text-anchor="middle" x="717.5" y="-298.5" font-family="Helvetica,sans-Serif" font-size="10.00">OMSimEffectiveAreaAnalyisis.cc</text>
</a>
</g>
</g>
<!-- Node2 -->
<g id="node2" class="node">
<title>Node2</title>
<g id="a_node2"><a xlink:href="_o_m_sim_effective_area_analyisis_8hh.html" target="_top" xlink:title=" ">
<polygon fill="white" stroke="black" points="629.5,-235.5 629.5,-254.5 805.5,-254.5 805.5,-235.5 629.5,-235.5"/>
<text text-anchor="middle" x="717.5" y="-242.5" font-family="Helvetica,sans-Serif" font-size="10.00">OMSimEffectiveAreaAnalyisis.hh</text>
</a>
</g>
</g>
<!-- Node1&#45;&gt;Node2 -->
<g id="edge1" class="edge">
<title>Node1&#45;&gt;Node2</title>
<path fill="none" stroke="midnightblue" d="M717.5,-291.08C717.5,-284.01 717.5,-273.86 717.5,-264.99"/>
<polygon fill="midnightblue" stroke="midnightblue" points="721,-264.75 717.5,-254.75 714,-264.75 721,-264.75"/>
</g>
<!-- Node9 -->
<g id="node9" class="node">
<title>Node9</title>
<g id="a_node9"><a xlink:href="_o_m_sim_hit_manager_8hh.html" target="_top" xlink:title="Defines structures and classes related to optical module photon hit management.">
<polygon fill="white" stroke="black" points="546,-179.5 546,-198.5 669,-198.5 669,-179.5 546,-179.5"/>
<text text-anchor="middle" x="607.5" y="-186.5" font-family="Helvetica,sans-Serif" font-size="10.00">OMSimHitManager.hh</text>
</a>
</g>
</g>
<!-- Node1&#45;&gt;Node9 -->
<g id="edge29" class="edge">
<title>Node1&#45;&gt;Node9</title>
<path fill="none" stroke="midnightblue" d="M679.54,-291.35C659.07,-284.74 635.08,-273.52 620.5,-255 610.16,-241.87 607.37,-222.73 606.89,-208.61"/>
<polygon fill="midnightblue" stroke="midnightblue" points="610.39,-208.59 606.9,-198.58 603.39,-208.58 610.39,-208.59"/>
</g>
<!-- Node16 -->
<g id="node16" class="node">
<title>Node16</title>
<g id="a_node16"><a xlink:href="_o_m_sim_command_args_table_8hh.html" target="_top" xlink:title="Definition of the OMSimCommandArgsTable singleton class, which controls user args.">
<polygon fill="white" stroke="black" points="863.5,-235.5 863.5,-254.5 1027.5,-254.5 1027.5,-235.5 863.5,-235.5"/>
<text text-anchor="middle" x="945.5" y="-242.5" font-family="Helvetica,sans-Serif" font-size="10.00">OMSimCommandArgsTable.hh</text>
</a>
</g>
</g>
<!-- Node1&#45;&gt;Node16 -->
<g id="edge20" class="edge">
<title>Node1&#45;&gt;Node16</title>
<path fill="none" stroke="midnightblue" d="M753.63,-291.44C793.15,-282.08 856.6,-267.06 899.61,-256.87"/>
<polygon fill="midnightblue" stroke="midnightblue" points="900.62,-260.23 909.54,-254.52 899,-253.42 900.62,-260.23"/>
</g>
<!-- Node3 -->
<g id="node3" class="node">
<title>Node3</title>
<g id="a_node3"><a xlink:href="_o_m_sim_p_m_t_response_8hh.html" target="_top" xlink:title="Provides simulation for PMT response. This class is responsible for transforming hits on photocathode...">
<polygon fill="white" stroke="black" points="180,-56.5 180,-75.5 315,-75.5 315,-56.5 180,-56.5"/>
<text text-anchor="middle" x="247.5" y="-63.5" font-family="Helvetica,sans-Serif" font-size="10.00">OMSimPMTResponse.hh</text>
</a>
</g>
</g>
<!-- Node2&#45;&gt;Node3 -->
<g id="edge2" class="edge">
<title>Node2&#45;&gt;Node3</title>
<path fill="none" stroke="midnightblue" d="M676.08,-235.47C611.3,-221.27 482.9,-189.66 381.5,-143 340.6,-124.18 295.55,-97.25 269.49,-81.01"/>
<polygon fill="midnightblue" stroke="midnightblue" points="271.13,-77.9 260.8,-75.55 267.4,-83.83 271.13,-77.9"/>
</g>
<!-- Node2&#45;&gt;Node9 -->
<g id="edge8" class="edge">
<title>Node2&#45;&gt;Node9</title>
<path fill="none" stroke="midnightblue" d="M699.83,-235.32C682.11,-226.62 654.6,-213.12 634.21,-203.11"/>
<polygon fill="midnightblue" stroke="midnightblue" points="635.65,-199.92 625.13,-198.65 632.56,-206.2 635.65,-199.92"/>
</g>
<!-- Node12 -->
<g id="node12" class="node">
<title>Node12</title>
<g id="a_node12"><a xlink:title=" ">
<polygon fill="white" stroke="#bfbfbf" points="716,-56.5 716,-75.5 819,-75.5 819,-56.5 716,-56.5"/>
<text text-anchor="middle" x="767.5" y="-63.5" font-family="Helvetica,sans-Serif" font-size="10.00">G4ThreeVector.hh</text>
</a>
</g>
</g>
<!-- Node2&#45;&gt;Node12 -->
<g id="edge18" class="edge">
<title>Node2&#45;&gt;Node12</title>
<path fill="none" stroke="midnightblue" d="M715.83,-235.19C712.12,-213.26 704.85,-154.92 723.5,-112 728.57,-100.34 738.12,-89.98 747.03,-82.15"/>
<polygon fill="midnightblue" stroke="midnightblue" points="749.38,-84.75 754.89,-75.7 744.94,-79.34 749.38,-84.75"/>
</g>
<!-- Node15 -->
<g id="node15" class="node">
<title>Node15</title>
<g id="a_node15"><a xlink:title=" ">
<polygon fill="white" stroke="#bfbfbf" points="733,-118 733,-137 788,-137 788,-118 733,-118"/>
<text text-anchor="middle" x="760.5" y="-125" font-family="Helvetica,sans-Serif" font-size="10.00">fstream</text>
</a>
</g>
</g>
<!-- Node2&#45;&gt;Node15 -->
<g id="edge19" class="edge">
<title>Node2&#45;&gt;Node15</title>
<path fill="none" stroke="midnightblue" d="M720.73,-235.32C727.7,-216.59 744.29,-172.05 753.69,-146.79"/>
<polygon fill="midnightblue" stroke="midnightblue" points="757.02,-147.87 757.23,-137.28 750.46,-145.43 757.02,-147.87"/>
</g>
<!-- Node4 -->
<g id="node4" class="node">
<title>Node4</title>
<g id="a_node4"><a xlink:title=" ">
<polygon fill="white" stroke="#bfbfbf" points="0,-0.5 0,-19.5 119,-19.5 119,-0.5 0,-0.5"/>
<text text-anchor="middle" x="59.5" y="-7.5" font-family="Helvetica,sans-Serif" font-size="10.00">G4SystemOfUnits.hh</text>
</a>
</g>
</g>
<!-- Node3&#45;&gt;Node4 -->
<g id="edge3" class="edge">
<title>Node3&#45;&gt;Node4</title>
<path fill="none" stroke="midnightblue" d="M217.71,-56.44C185.67,-47.24 134.57,-32.56 99.15,-22.39"/>
<polygon fill="midnightblue" stroke="midnightblue" points="99.73,-18.91 89.15,-19.52 97.79,-25.64 99.73,-18.91"/>
</g>
<!-- Node5 -->
<g id="node5" class="node">
<title>Node5</title>
<g id="a_node5"><a xlink:title=" ">
<polygon fill="white" stroke="#bfbfbf" points="137,-0.5 137,-19.5 210,-19.5 210,-0.5 137,-0.5"/>
<text text-anchor="middle" x="173.5" y="-7.5" font-family="Helvetica,sans-Serif" font-size="10.00">G4Types.hh</text>
</a>
</g>
</g>
<!-- Node3&#45;&gt;Node5 -->
<g id="edge4" class="edge">
<title>Node3&#45;&gt;Node5</title>
<path fill="none" stroke="midnightblue" d="M235.61,-56.32C224.35,-48.11 207.21,-35.6 193.79,-25.81"/>
<polygon fill="midnightblue" stroke="midnightblue" points="195.75,-22.9 185.61,-19.83 191.62,-28.56 195.75,-22.9"/>
</g>
<!-- Node6 -->
<g id="node6" class="node">
<title>Node6</title>
<g id="a_node6"><a xlink:title=" ">
<polygon fill="white" stroke="#bfbfbf" points="228.5,-0.5 228.5,-19.5 266.5,-19.5 266.5,-0.5 228.5,-0.5"/>
<text text-anchor="middle" x="247.5" y="-7.5" font-family="Helvetica,sans-Serif" font-size="10.00">map</text>
</a>
</g>
</g>
<!-- Node3&#45;&gt;Node6 -->
<g id="edge5" class="edge">
<title>Node3&#45;&gt;Node6</title>
<path fill="none" stroke="midnightblue" d="M247.5,-56.08C247.5,-49.01 247.5,-38.86 247.5,-29.99"/>
<polygon fill="midnightblue" stroke="midnightblue" points="251,-29.75 247.5,-19.75 244,-29.75 251,-29.75"/>
</g>
<!-- Node7 -->
<g id="node7" class="node">
<title>Node7</title>
<g id="a_node7"><a xlink:title=" ">
<polygon fill="white" stroke="#bfbfbf" points="285,-0.5 285,-19.5 346,-19.5 346,-0.5 285,-0.5"/>
<text text-anchor="middle" x="315.5" y="-7.5" font-family="Helvetica,sans-Serif" font-size="10.00">TGraph.h</text>
</a>
</g>
</g>
<!-- Node3&#45;&gt;Node7 -->
<g id="edge6" class="edge">
<title>Node3&#45;&gt;Node7</title>
<path fill="none" stroke="midnightblue" d="M258.43,-56.32C268.67,-48.18 284.22,-35.84 296.5,-26.09"/>
<polygon fill="midnightblue" stroke="midnightblue" points="298.72,-28.79 304.38,-19.83 294.37,-23.31 298.72,-28.79"/>
</g>
<!-- Node8 -->
<g id="node8" class="node">
<title>Node8</title>
<g id="a_node8"><a xlink:title=" ">
<polygon fill="white" stroke="#bfbfbf" points="364,-0.5 364,-19.5 417,-19.5 417,-0.5 364,-0.5"/>
<text text-anchor="middle" x="390.5" y="-7.5" font-family="Helvetica,sans-Serif" font-size="10.00">TH2D.h</text>
</a>
</g>
</g>
<!-- Node3&#45;&gt;Node8 -->
<g id="edge7" class="edge">
<title>Node3&#45;&gt;Node8</title>
<path fill="none" stroke="midnightblue" d="M270.16,-56.44C293.9,-47.48 331.41,-33.31 358.24,-23.18"/>
<polygon fill="midnightblue" stroke="midnightblue" points="359.83,-26.32 367.95,-19.52 357.36,-19.77 359.83,-26.32"/>
</g>
<!-- Node9&#45;&gt;Node3 -->
<g id="edge9" class="edge">
<title>Node9&#45;&gt;Node3</title>
<path fill="none" stroke="midnightblue" d="M582.19,-179.49C519.21,-158.32 355.35,-103.25 282.87,-78.89"/>
<polygon fill="midnightblue" stroke="midnightblue" points="283.86,-75.53 273.27,-75.66 281.63,-82.16 283.86,-75.53"/>
</g>
<!-- Node10 -->
<g id="node10" class="node">
<title>Node10</title>
<g id="a_node10"><a xlink:href="_o_m_sim_sensitive_detector_8hh.html" target="_top" xlink:title=" ">
<polygon fill="white" stroke="black" points="485,-118 485,-137 638,-137 638,-118 485,-118"/>
<text text-anchor="middle" x="561.5" y="-125" font-family="Helvetica,sans-Serif" font-size="10.00">OMSimSensitiveDetector.hh</text>
</a>
</g>
</g>
<!-- Node9&#45;&gt;Node10 -->
<g id="edge10" class="edge">
<title>Node9&#45;&gt;Node10</title>
<path fill="none" stroke="midnightblue" d="M600.91,-179.48C594.01,-170.55 583,-156.31 574.37,-145.14"/>
<polygon fill="midnightblue" stroke="midnightblue" points="576.96,-142.78 568.08,-137.01 571.43,-147.06 576.96,-142.78"/>
</g>
<!-- Node9&#45;&gt;Node12 -->
<g id="edge16" class="edge">
<title>Node9&#45;&gt;Node12</title>
<path fill="none" stroke="midnightblue" d="M615.7,-179.37C630.03,-164.56 660.93,-133.79 690.5,-112 706.71,-100.06 726.31,-88.64 741.68,-80.29"/>
<polygon fill="midnightblue" stroke="midnightblue" points="743.46,-83.31 750.64,-75.51 740.17,-77.13 743.46,-83.31"/>
</g>
<!-- Node9&#45;&gt;Node15 -->
<g id="edge17" class="edge">
<title>Node9&#45;&gt;Node15</title>
<path fill="none" stroke="midnightblue" d="M629.42,-179.48C655.55,-169.31 699.41,-152.26 729.13,-140.7"/>
<polygon fill="midnightblue" stroke="midnightblue" points="730.57,-143.9 738.62,-137.01 728.03,-137.37 730.57,-143.9"/>
</g>
<!-- Node10&#45;&gt;Node3 -->
<g id="edge13" class="edge">
<title>Node10&#45;&gt;Node3</title>
<path fill="none" stroke="midnightblue" d="M516.51,-117.98C460.08,-107.28 363.38,-88.96 302.58,-77.44"/>
<polygon fill="midnightblue" stroke="midnightblue" points="302.88,-73.93 292.41,-75.51 301.58,-80.81 302.88,-73.93"/>
</g>
<!-- Node11 -->
<g id="node11" class="node">
<title>Node11</title>
<g id="a_node11"><a xlink:title=" ">
<polygon fill="white" stroke="#bfbfbf" points="333.5,-56.5 333.5,-75.5 471.5,-75.5 471.5,-56.5 333.5,-56.5"/>
<text text-anchor="middle" x="402.5" y="-63.5" font-family="Helvetica,sans-Serif" font-size="10.00">G4VSensitiveDetector.hh</text>
</a>
</g>
</g>
<!-- Node10&#45;&gt;Node11 -->
<g id="edge11" class="edge">
<title>Node10&#45;&gt;Node11</title>
<path fill="none" stroke="midnightblue" d="M538.72,-117.98C511.45,-107.77 465.59,-90.61 434.7,-79.05"/>
<polygon fill="midnightblue" stroke="midnightblue" points="435.83,-75.74 425.24,-75.51 433.38,-82.29 435.83,-75.74"/>
</g>
<!-- Node10&#45;&gt;Node12 -->
<g id="edge12" class="edge">
<title>Node10&#45;&gt;Node12</title>
<path fill="none" stroke="midnightblue" d="M591.01,-117.98C627.12,-107.55 688.35,-89.86 728.35,-78.31"/>
<polygon fill="midnightblue" stroke="midnightblue" points="729.4,-81.65 738.04,-75.51 727.46,-74.92 729.4,-81.65"/>
</g>
<!-- Node13 -->
<g id="node13" class="node">
<title>Node13</title>
<g id="a_node13"><a xlink:title=" ">
<polygon fill="white" stroke="#bfbfbf" points="490,-56.5 490,-75.5 633,-75.5 633,-56.5 490,-56.5"/>
<text text-anchor="middle" x="561.5" y="-63.5" font-family="Helvetica,sans-Serif" font-size="10.00">G4OpBoundaryProcess.hh</text>
</a>
</g>
</g>
<!-- Node10&#45;&gt;Node13 -->
<g id="edge14" class="edge">
<title>Node10&#45;&gt;Node13</title>
<path fill="none" stroke="midnightblue" d="M561.5,-117.98C561.5,-109.58 561.5,-96.48 561.5,-85.66"/>
<polygon fill="midnightblue" stroke="midnightblue" points="565,-85.51 561.5,-75.51 558,-85.51 565,-85.51"/>
</g>
<!-- Node14 -->
<g id="node14" class="node">
<title>Node14</title>
<g id="a_node14"><a xlink:title=" ">
<polygon fill="white" stroke="#bfbfbf" points="651,-56.5 651,-75.5 698,-75.5 698,-56.5 651,-56.5"/>
<text text-anchor="middle" x="674.5" y="-63.5" font-family="Helvetica,sans-Serif" font-size="10.00">vector</text>
</a>
</g>
</g>
<!-- Node10&#45;&gt;Node14 -->
<g id="edge15" class="edge">
<title>Node10&#45;&gt;Node14</title>
<path fill="none" stroke="midnightblue" d="M577.69,-117.98C596.4,-108.12 627.42,-91.79 649.3,-80.27"/>
<polygon fill="midnightblue" stroke="midnightblue" points="651.12,-83.27 658.34,-75.51 647.86,-77.07 651.12,-83.27"/>
</g>
<!-- Node16&#45;&gt;Node15 -->
<g id="edge26" class="edge">
<title>Node16&#45;&gt;Node15</title>
<path fill="none" stroke="midnightblue" d="M931.59,-235.32C899.85,-215.5 821.83,-166.79 783.08,-142.6"/>
<polygon fill="midnightblue" stroke="midnightblue" points="784.9,-139.61 774.57,-137.28 781.2,-145.55 784.9,-139.61"/>
</g>
<!-- Node17 -->
<g id="node17" class="node">
<title>Node17</title>
<g id="a_node17"><a xlink:href="_o_m_sim_logger_8hh.html" target="_top" xlink:title=" ">
<polygon fill="white" stroke="black" points="896,-179.5 896,-198.5 995,-198.5 995,-179.5 896,-179.5"/>
<text text-anchor="middle" x="945.5" y="-186.5" font-family="Helvetica,sans-Serif" font-size="10.00">OMSimLogger.hh</text>
</a>
</g>
</g>
<!-- Node16&#45;&gt;Node17 -->
<g id="edge21" class="edge">
<title>Node16&#45;&gt;Node17</title>
<path fill="none" stroke="midnightblue" d="M945.5,-235.08C945.5,-228.01 945.5,-217.86 945.5,-208.99"/>
<polygon fill="midnightblue" stroke="midnightblue" points="949,-208.75 945.5,-198.75 942,-208.75 949,-208.75"/>
</g>
<!-- Node22 -->
<g id="node22" class="node">
<title>Node22</title>
<g id="a_node22"><a xlink:title=" ">
<polygon fill="white" stroke="#bfbfbf" points="1013.5,-179.5 1013.5,-198.5 1097.5,-198.5 1097.5,-179.5 1013.5,-179.5"/>
<text text-anchor="middle" x="1055.5" y="-186.5" font-family="Helvetica,sans-Serif" font-size="10.00">boost/any.hpp</text>
</a>
</g>
</g>
<!-- Node16&#45;&gt;Node22 -->
<g id="edge27" class="edge">
<title>Node16&#45;&gt;Node22</title>
<path fill="none" stroke="midnightblue" d="M963.17,-235.32C980.89,-226.62 1008.4,-213.12 1028.79,-203.11"/>
<polygon fill="midnightblue" stroke="midnightblue" points="1030.44,-206.2 1037.87,-198.65 1027.35,-199.92 1030.44,-206.2"/>
</g>
<!-- Node23 -->
<g id="node23" class="node">
<title>Node23</title>
<g id="a_node23"><a xlink:title=" ">
<polygon fill="white" stroke="#bfbfbf" points="1115.5,-179.5 1115.5,-198.5 1183.5,-198.5 1183.5,-179.5 1115.5,-179.5"/>
<text text-anchor="middle" x="1149.5" y="-186.5" font-family="Helvetica,sans-Serif" font-size="10.00">sys/time.h</text>
</a>
</g>
</g>
<!-- Node16&#45;&gt;Node23 -->
<g id="edge28" class="edge">
<title>Node16&#45;&gt;Node23</title>
<path fill="none" stroke="midnightblue" d="M977.82,-235.44C1012.89,-226.16 1069,-211.31 1107.46,-201.13"/>
<polygon fill="midnightblue" stroke="midnightblue" points="1108.56,-204.46 1117.33,-198.52 1106.76,-197.69 1108.56,-204.46"/>
</g>
<!-- Node18 -->
<g id="node18" class="node">
<title>Node18</title>
<g id="a_node18"><a xlink:title=" ">
<polygon fill="white" stroke="#bfbfbf" points="806,-118 806,-137 899,-137 899,-118 806,-118"/>
<text text-anchor="middle" x="852.5" y="-125" font-family="Helvetica,sans-Serif" font-size="10.00">spdlog/spdlog.h</text>
</a>
</g>
</g>
<!-- Node17&#45;&gt;Node18 -->
<g id="edge22" class="edge">
<title>Node17&#45;&gt;Node18</title>
<path fill="none" stroke="midnightblue" d="M932.18,-179.48C917.12,-169.84 892.38,-154.02 874.46,-142.55"/>
<polygon fill="midnightblue" stroke="midnightblue" points="876.11,-139.45 865.8,-137.01 872.34,-145.35 876.11,-139.45"/>
</g>
<!-- Node19 -->
<g id="node19" class="node">
<title>Node19</title>
<g id="a_node19"><a xlink:title=" ">
<polygon fill="white" stroke="#bfbfbf" points="917,-112.5 917,-142.5 1028,-142.5 1028,-112.5 917,-112.5"/>
<text text-anchor="start" x="925" y="-130.5" font-family="Helvetica,sans-Serif" font-size="10.00">spdlog/sinks/stdout</text>
<text text-anchor="middle" x="972.5" y="-119.5" font-family="Helvetica,sans-Serif" font-size="10.00">_color_sinks.h</text>
</a>
</g>
</g>
<!-- Node17&#45;&gt;Node19 -->
<g id="edge23" class="edge">
<title>Node17&#45;&gt;Node19</title>
<path fill="none" stroke="midnightblue" d="M949.37,-179.48C952.65,-172.25 957.51,-161.53 961.94,-151.78"/>
<polygon fill="midnightblue" stroke="midnightblue" points="965.19,-153.08 966.14,-142.52 958.82,-150.18 965.19,-153.08"/>
</g>
<!-- Node20 -->
<g id="node20" class="node">
<title>Node20</title>
<g id="a_node20"><a xlink:title=" ">
<polygon fill="white" stroke="#bfbfbf" points="1046.5,-118 1046.5,-137 1104.5,-137 1104.5,-118 1046.5,-118"/>
<text text-anchor="middle" x="1075.5" y="-125" font-family="Helvetica,sans-Serif" font-size="10.00">memory</text>
</a>
</g>
</g>
<!-- Node17&#45;&gt;Node20 -->
<g id="edge24" class="edge">
<title>Node17&#45;&gt;Node20</title>
<path fill="none" stroke="midnightblue" d="M964.13,-179.48C985.94,-169.49 1022.3,-152.85 1047.52,-141.31"/>
<polygon fill="midnightblue" stroke="midnightblue" points="1049.27,-144.35 1056.91,-137.01 1046.36,-137.99 1049.27,-144.35"/>
</g>
<!-- Node21 -->
<g id="node21" class="node">
<title>Node21</title>
<g id="a_node21"><a xlink:title=" ">
<polygon fill="white" stroke="#bfbfbf" points="1122.5,-118 1122.5,-137 1220.5,-137 1220.5,-118 1122.5,-118"/>
<text text-anchor="middle" x="1171.5" y="-125" font-family="Helvetica,sans-Serif" font-size="10.00">spdlog/fmt/fmt.h</text>
</a>
</g>
</g>
<!-- Node17&#45;&gt;Node21 -->
<g id="edge25" class="edge">
<title>Node17&#45;&gt;Node21</title>
<path fill="none" stroke="midnightblue" d="M977.88,-179.48C1017.74,-168.98 1085.52,-151.14 1129.39,-139.59"/>
<polygon fill="midnightblue" stroke="midnightblue" points="1130.4,-142.94 1139.18,-137.01 1128.62,-136.17 1130.4,-142.94"/>
</g>
</g>
</svg>
