<?xml version="1.0" encoding="UTF-8" standalone="no"?>
<!DOCTYPE svg PUBLIC "-//W3C//DTD SVG 1.1//EN"
 "http://www.w3.org/Graphics/SVG/1.1/DTD/svg11.dtd">
<!-- Generated by graphviz version 2.43.0 (0)
 -->
<!-- Title: OMSimHitManager.cc Pages: 1 -->
<svg width="1306pt" height="263pt"
 viewBox="0.00 0.00 1305.50 263.00" xmlns="http://www.w3.org/2000/svg" xmlns:xlink="http://www.w3.org/1999/xlink">
<g id="graph0" class="graph" transform="scale(1 1) rotate(0) translate(4 259)">
<title>OMSimHitManager.cc</title>
<polygon fill="white" stroke="transparent" points="-4,4 -4,-259 1301.5,-259 1301.5,4 -4,4"/>
<!-- Node1 -->
<g id="node1" class="node">
<title>Node1</title>
<g id="a_node1"><a xlink:title=" ">
<polygon fill="#bfbfbf" stroke="black" points="936.5,-235.5 936.5,-254.5 1058.5,-254.5 1058.5,-235.5 936.5,-235.5"/>
<text text-anchor="middle" x="997.5" y="-242.5" font-family="Helvetica,sans-Serif" font-size="10.00">OMSimHitManager.cc</text>
</a>
</g>
</g>
<!-- Node2 -->
<g id="node2" class="node">
<title>Node2</title>
<g id="a_node2"><a xlink:href="_o_m_sim_hit_manager_8hh.html" target="_top" xlink:title="Defines structures and classes related to optical module photon hit management.">
<polygon fill="white" stroke="black" points="706,-179.5 706,-198.5 829,-198.5 829,-179.5 706,-179.5"/>
<text text-anchor="middle" x="767.5" y="-186.5" font-family="Helvetica,sans-Serif" font-size="10.00">OMSimHitManager.hh</text>
</a>
</g>
</g>
<!-- Node1&#45;&gt;Node2 -->
<g id="edge1" class="edge">
<title>Node1&#45;&gt;Node2</title>
<path fill="none" stroke="midnightblue" d="M961.06,-235.44C921.1,-226.06 856.91,-210.99 813.52,-200.8"/>
<polygon fill="midnightblue" stroke="midnightblue" points="814.31,-197.39 803.77,-198.52 812.71,-204.21 814.31,-197.39"/>
</g>
<!-- Node15 -->
<g id="node15" class="node">
<title>Node15</title>
<g id="a_node15"><a xlink:href="_o_m_sim_command_args_table_8hh.html" target="_top" xlink:title="Definition of the OMSimCommandArgsTable singleton class, which controls user args.">
<polygon fill="white" stroke="black" points="915.5,-179.5 915.5,-198.5 1079.5,-198.5 1079.5,-179.5 915.5,-179.5"/>
<text text-anchor="middle" x="997.5" y="-186.5" font-family="Helvetica,sans-Serif" font-size="10.00">OMSimCommandArgsTable.hh</text>
</a>
</g>
</g>
<!-- Node1&#45;&gt;Node15 -->
<g id="edge16" class="edge">
<title>Node1&#45;&gt;Node15</title>
<path fill="none" stroke="midnightblue" d="M997.5,-235.08C997.5,-228.01 997.5,-217.86 997.5,-208.99"/>
<polygon fill="midnightblue" stroke="midnightblue" points="1001,-208.75 997.5,-198.75 994,-208.75 1001,-208.75"/>
</g>
<!-- Node16 -->
<g id="node16" class="node">
<title>Node16</title>
<g id="a_node16"><a xlink:href="_o_m_sim_logger_8hh.html" target="_top" xlink:title=" ">
<polygon fill="white" stroke="black" points="928,-123.5 928,-142.5 1027,-142.5 1027,-123.5 928,-123.5"/>
<text text-anchor="middle" x="977.5" y="-130.5" font-family="Helvetica,sans-Serif" font-size="10.00">OMSimLogger.hh</text>
</a>
</g>
</g>
<!-- Node1&#45;&gt;Node16 -->
<g id="edge26" class="edge">
<title>Node1&#45;&gt;Node16</title>
<path fill="none" stroke="midnightblue" d="M959.53,-235.41C940.09,-228.88 918.12,-217.72 906.5,-199 893.05,-177.35 920.83,-158.42 945.48,-146.66"/>
<polygon fill="midnightblue" stroke="midnightblue" points="947.01,-149.81 954.69,-142.52 944.13,-143.43 947.01,-149.81"/>
</g>
<!-- Node23 -->
<g id="node23" class="node">
<title>Node23</title>
<g id="a_node23"><a xlink:title=" ">
<polygon fill="white" stroke="#bfbfbf" points="1098,-179.5 1098,-198.5 1223,-198.5 1223,-179.5 1098,-179.5"/>
<text text-anchor="middle" x="1160.5" y="-186.5" font-family="Helvetica,sans-Serif" font-size="10.00">OMSimEventAction.hh</text>
</a>
</g>
</g>
<!-- Node1&#45;&gt;Node23 -->
<g id="edge25" class="edge">
<title>Node1&#45;&gt;Node23</title>
<path fill="none" stroke="midnightblue" d="M1023.33,-235.44C1050.75,-226.36 1094.28,-211.94 1124.93,-201.78"/>
<polygon fill="midnightblue" stroke="midnightblue" points="1126.4,-204.98 1134.79,-198.52 1124.2,-198.34 1126.4,-204.98"/>
</g>
<!-- Node24 -->
<g id="node24" class="node">
<title>Node24</title>
<g id="a_node24"><a xlink:title=" ">
<polygon fill="white" stroke="#bfbfbf" points="1241.5,-179.5 1241.5,-198.5 1297.5,-198.5 1297.5,-179.5 1241.5,-179.5"/>
<text text-anchor="middle" x="1269.5" y="-186.5" font-family="Helvetica,sans-Serif" font-size="10.00">numeric</text>
</a>
</g>
</g>
<!-- Node1&#45;&gt;Node24 -->
<g id="edge27" class="edge">
<title>Node1&#45;&gt;Node24</title>
<path fill="none" stroke="midnightblue" d="M1045.8,-235.47C1091.27,-227.28 1161.5,-214.22 1231.39,-199.16"/>
<polygon fill="midnightblue" stroke="midnightblue" points="1232.22,-202.56 1241.25,-197.02 1230.74,-195.72 1232.22,-202.56"/>
</g>
<!-- Node3 -->
<g id="node3" class="node">
<title>Node3</title>
<g id="a_node3"><a xlink:href="_o_m_sim_p_m_t_response_8hh.html" target="_top" xlink:title="Provides simulation for PMT response. This class is responsible for transforming hits on photocathode...">
<polygon fill="white" stroke="black" points="180,-62 180,-81 315,-81 315,-62 180,-62"/>
<text text-anchor="middle" x="247.5" y="-69" font-family="Helvetica,sans-Serif" font-size="10.00">OMSimPMTResponse.hh</text>
</a>
</g>
</g>
<!-- Node2&#45;&gt;Node3 -->
<g id="edge2" class="edge">
<title>Node2&#45;&gt;Node3</title>
<path fill="none" stroke="midnightblue" d="M716.32,-179.47C667.2,-171.05 591.03,-157.39 525.5,-143 440.75,-124.39 342.56,-98.45 288.5,-83.78"/>
<polygon fill="midnightblue" stroke="midnightblue" points="289.18,-80.34 278.61,-81.09 287.34,-87.09 289.18,-80.34"/>
</g>
<!-- Node9 -->
<g id="node9" class="node">
<title>Node9</title>
<g id="a_node9"><a xlink:href="_o_m_sim_sensitive_detector_8hh.html" target="_top" xlink:title=" ">
<polygon fill="white" stroke="black" points="535,-123.5 535,-142.5 688,-142.5 688,-123.5 535,-123.5"/>
<text text-anchor="middle" x="611.5" y="-130.5" font-family="Helvetica,sans-Serif" font-size="10.00">OMSimSensitiveDetector.hh</text>
</a>
</g>
</g>
<!-- Node2&#45;&gt;Node9 -->
<g id="edge8" class="edge">
<title>Node2&#45;&gt;Node9</title>
<path fill="none" stroke="midnightblue" d="M742.78,-179.44C716.65,-170.4 675.24,-156.06 645.92,-145.92"/>
<polygon fill="midnightblue" stroke="midnightblue" points="646.7,-142.48 636.1,-142.52 644.41,-149.1 646.7,-142.48"/>
</g>
<!-- Node11 -->
<g id="node11" class="node">
<title>Node11</title>
<g id="a_node11"><a xlink:title=" ">
<polygon fill="white" stroke="#bfbfbf" points="716,-62 716,-81 819,-81 819,-62 716,-62"/>
<text text-anchor="middle" x="767.5" y="-69" font-family="Helvetica,sans-Serif" font-size="10.00">G4ThreeVector.hh</text>
</a>
</g>
</g>
<!-- Node2&#45;&gt;Node11 -->
<g id="edge14" class="edge">
<title>Node2&#45;&gt;Node11</title>
<path fill="none" stroke="midnightblue" d="M767.5,-179.32C767.5,-160.76 767.5,-116.84 767.5,-91.47"/>
<polygon fill="midnightblue" stroke="midnightblue" points="771,-91.28 767.5,-81.28 764,-91.28 771,-91.28"/>
</g>
<!-- Node14 -->
<g id="node14" class="node">
<title>Node14</title>
<g id="a_node14"><a xlink:title=" ">
<polygon fill="white" stroke="#bfbfbf" points="835,-123.5 835,-142.5 890,-142.5 890,-123.5 835,-123.5"/>
<text text-anchor="middle" x="862.5" y="-130.5" font-family="Helvetica,sans-Serif" font-size="10.00">fstream</text>
</a>
</g>
</g>
<!-- Node2&#45;&gt;Node14 -->
<g id="edge15" class="edge">
<title>Node2&#45;&gt;Node14</title>
<path fill="none" stroke="midnightblue" d="M782.76,-179.32C797.72,-170.82 820.75,-157.73 838.23,-147.8"/>
<polygon fill="midnightblue" stroke="midnightblue" points="840.31,-150.64 847.27,-142.65 836.85,-144.55 840.31,-150.64"/>
</g>
<!-- Node4 -->
<g id="node4" class="node">
<title>Node4</title>
<g id="a_node4"><a xlink:title=" ">
<polygon fill="white" stroke="#bfbfbf" points="0,-0.5 0,-19.5 119,-19.5 119,-0.5 0,-0.5"/>
<text text-anchor="middle" x="59.5" y="-7.5" font-family="Helvetica,sans-Serif" font-size="10.00">G4SystemOfUnits.hh</text>
</a>
</g>
</g>
<!-- Node3&#45;&gt;Node4 -->
<g id="edge3" class="edge">
<title>Node3&#45;&gt;Node4</title>
<path fill="none" stroke="midnightblue" d="M220.56,-61.98C187.9,-51.64 132.68,-34.16 96.16,-22.6"/>
<polygon fill="midnightblue" stroke="midnightblue" points="96.98,-19.19 86.39,-19.51 94.86,-25.86 96.98,-19.19"/>
</g>
<!-- Node5 -->
<g id="node5" class="node">
<title>Node5</title>
<g id="a_node5"><a xlink:title=" ">
<polygon fill="white" stroke="#bfbfbf" points="137,-0.5 137,-19.5 210,-19.5 210,-0.5 137,-0.5"/>
<text text-anchor="middle" x="173.5" y="-7.5" font-family="Helvetica,sans-Serif" font-size="10.00">G4Types.hh</text>
</a>
</g>
</g>
<!-- Node3&#45;&gt;Node5 -->
<g id="edge4" class="edge">
<title>Node3&#45;&gt;Node5</title>
<path fill="none" stroke="midnightblue" d="M236.9,-61.98C225.25,-52.61 206.31,-37.38 192.17,-26.01"/>
<polygon fill="midnightblue" stroke="midnightblue" points="194.07,-23.05 184.08,-19.51 189.68,-28.5 194.07,-23.05"/>
</g>
<!-- Node6 -->
<g id="node6" class="node">
<title>Node6</title>
<g id="a_node6"><a xlink:title=" ">
<polygon fill="white" stroke="#bfbfbf" points="228.5,-0.5 228.5,-19.5 266.5,-19.5 266.5,-0.5 228.5,-0.5"/>
<text text-anchor="middle" x="247.5" y="-7.5" font-family="Helvetica,sans-Serif" font-size="10.00">map</text>
</a>
</g>
</g>
<!-- Node3&#45;&gt;Node6 -->
<g id="edge5" class="edge">
<title>Node3&#45;&gt;Node6</title>
<path fill="none" stroke="midnightblue" d="M247.5,-61.98C247.5,-53.58 247.5,-40.48 247.5,-29.66"/>
<polygon fill="midnightblue" stroke="midnightblue" points="251,-29.51 247.5,-19.51 244,-29.51 251,-29.51"/>
</g>
<!-- Node7 -->
<g id="node7" class="node">
<title>Node7</title>
<g id="a_node7"><a xlink:title=" ">
<polygon fill="white" stroke="#bfbfbf" points="285,-0.5 285,-19.5 346,-19.5 346,-0.5 285,-0.5"/>
<text text-anchor="middle" x="315.5" y="-7.5" font-family="Helvetica,sans-Serif" font-size="10.00">TGraph.h</text>
</a>
</g>
</g>
<!-- Node3&#45;&gt;Node7 -->
<g id="edge6" class="edge">
<title>Node3&#45;&gt;Node7</title>
<path fill="none" stroke="midnightblue" d="M257.24,-61.98C267.85,-52.7 285.02,-37.67 297.98,-26.33"/>
<polygon fill="midnightblue" stroke="midnightblue" points="300.55,-28.73 305.78,-19.51 295.94,-23.46 300.55,-28.73"/>
</g>
<!-- Node8 -->
<g id="node8" class="node">
<title>Node8</title>
<g id="a_node8"><a xlink:title=" ">
<polygon fill="white" stroke="#bfbfbf" points="364,-0.5 364,-19.5 417,-19.5 417,-0.5 364,-0.5"/>
<text text-anchor="middle" x="390.5" y="-7.5" font-family="Helvetica,sans-Serif" font-size="10.00">TH2D.h</text>
</a>
</g>
</g>
<!-- Node3&#45;&gt;Node8 -->
<g id="edge7" class="edge">
<title>Node3&#45;&gt;Node8</title>
<path fill="none" stroke="midnightblue" d="M267.99,-61.98C292.31,-51.86 333.05,-34.9 360.82,-23.35"/>
<polygon fill="midnightblue" stroke="midnightblue" points="362.16,-26.58 370.05,-19.51 359.47,-20.12 362.16,-26.58"/>
</g>
<!-- Node9&#45;&gt;Node3 -->
<g id="edge11" class="edge">
<title>Node9&#45;&gt;Node3</title>
<path fill="none" stroke="midnightblue" d="M553.69,-123.47C495.67,-114.78 403.77,-100.68 324.5,-87 317.04,-85.71 309.19,-84.3 301.47,-82.88"/>
<polygon fill="midnightblue" stroke="midnightblue" points="301.91,-79.4 291.43,-81.01 300.63,-86.28 301.91,-79.4"/>
</g>
<!-- Node10 -->
<g id="node10" class="node">
<title>Node10</title>
<g id="a_node10"><a xlink:title=" ">
<polygon fill="white" stroke="#bfbfbf" points="333.5,-62 333.5,-81 471.5,-81 471.5,-62 333.5,-62"/>
<text text-anchor="middle" x="402.5" y="-69" font-family="Helvetica,sans-Serif" font-size="10.00">G4VSensitiveDetector.hh</text>
</a>
</g>
</g>
<!-- Node9&#45;&gt;Node10 -->
<g id="edge9" class="edge">
<title>Node9&#45;&gt;Node10</title>
<path fill="none" stroke="midnightblue" d="M581.56,-123.48C544.93,-113.05 482.8,-95.36 442.22,-83.81"/>
<polygon fill="midnightblue" stroke="midnightblue" points="442.97,-80.38 432.39,-81.01 441.05,-87.11 442.97,-80.38"/>
</g>
<!-- Node9&#45;&gt;Node11 -->
<g id="edge10" class="edge">
<title>Node9&#45;&gt;Node11</title>
<path fill="none" stroke="midnightblue" d="M633.85,-123.48C660.49,-113.31 705.21,-96.26 735.51,-84.7"/>
<polygon fill="midnightblue" stroke="midnightblue" points="737.09,-87.84 745.19,-81.01 734.6,-81.3 737.09,-87.84"/>
</g>
<!-- Node12 -->
<g id="node12" class="node">
<title>Node12</title>
<g id="a_node12"><a xlink:title=" ">
<polygon fill="white" stroke="#bfbfbf" points="490,-62 490,-81 633,-81 633,-62 490,-62"/>
<text text-anchor="middle" x="561.5" y="-69" font-family="Helvetica,sans-Serif" font-size="10.00">G4OpBoundaryProcess.hh</text>
</a>
</g>
</g>
<!-- Node9&#45;&gt;Node12 -->
<g id="edge12" class="edge">
<title>Node9&#45;&gt;Node12</title>
<path fill="none" stroke="midnightblue" d="M604.34,-123.48C596.76,-114.46 584.63,-100.02 575.21,-88.81"/>
<polygon fill="midnightblue" stroke="midnightblue" points="577.76,-86.41 568.65,-81.01 572.4,-90.92 577.76,-86.41"/>
</g>
<!-- Node13 -->
<g id="node13" class="node">
<title>Node13</title>
<g id="a_node13"><a xlink:title=" ">
<polygon fill="white" stroke="#bfbfbf" points="651,-62 651,-81 698,-81 698,-62 651,-62"/>
<text text-anchor="middle" x="674.5" y="-69" font-family="Helvetica,sans-Serif" font-size="10.00">vector</text>
</a>
</g>
</g>
<!-- Node9&#45;&gt;Node13 -->
<g id="edge13" class="edge">
<title>Node9&#45;&gt;Node13</title>
<path fill="none" stroke="midnightblue" d="M620.53,-123.48C630.26,-114.28 645.96,-99.46 657.92,-88.16"/>
<polygon fill="midnightblue" stroke="midnightblue" points="660.62,-90.42 665.49,-81.01 655.82,-85.33 660.62,-90.42"/>
</g>
<!-- Node15&#45;&gt;Node14 -->
<g id="edge22" class="edge">
<title>Node15&#45;&gt;Node14</title>
<path fill="none" stroke="midnightblue" d="M976.11,-179.44C953.79,-170.52 918.6,-156.44 893.29,-146.32"/>
<polygon fill="midnightblue" stroke="midnightblue" points="894.38,-142.98 883.79,-142.52 891.78,-149.48 894.38,-142.98"/>
</g>
<!-- Node15&#45;&gt;Node16 -->
<g id="edge17" class="edge">
<title>Node15&#45;&gt;Node16</title>
<path fill="none" stroke="midnightblue" d="M994.2,-179.08C991.52,-171.85 987.65,-161.41 984.31,-152.4"/>
<polygon fill="midnightblue" stroke="midnightblue" points="987.5,-150.91 980.74,-142.75 980.93,-153.34 987.5,-150.91"/>
</g>
<!-- Node21 -->
<g id="node21" class="node">
<title>Node21</title>
<g id="a_node21"><a xlink:title=" ">
<polygon fill="white" stroke="#bfbfbf" points="1045.5,-123.5 1045.5,-142.5 1129.5,-142.5 1129.5,-123.5 1045.5,-123.5"/>
<text text-anchor="middle" x="1087.5" y="-130.5" font-family="Helvetica,sans-Serif" font-size="10.00">boost/any.hpp</text>
</a>
</g>
</g>
<!-- Node15&#45;&gt;Node21 -->
<g id="edge23" class="edge">
<title>Node15&#45;&gt;Node21</title>
<path fill="none" stroke="midnightblue" d="M1011.96,-179.32C1026,-170.9 1047.55,-157.97 1064.04,-148.07"/>
<polygon fill="midnightblue" stroke="midnightblue" points="1066.3,-150.8 1073.08,-142.65 1062.7,-144.8 1066.3,-150.8"/>
</g>
<!-- Node22 -->
<g id="node22" class="node">
<title>Node22</title>
<g id="a_node22"><a xlink:title=" ">
<polygon fill="white" stroke="#bfbfbf" points="1147.5,-123.5 1147.5,-142.5 1215.5,-142.5 1215.5,-123.5 1147.5,-123.5"/>
<text text-anchor="middle" x="1181.5" y="-130.5" font-family="Helvetica,sans-Serif" font-size="10.00">sys/time.h</text>
</a>
</g>
</g>
<!-- Node15&#45;&gt;Node22 -->
<g id="edge24" class="edge">
<title>Node15&#45;&gt;Node22</title>
<path fill="none" stroke="midnightblue" d="M1026.66,-179.44C1058.01,-170.24 1108.03,-155.56 1142.7,-145.39"/>
<polygon fill="midnightblue" stroke="midnightblue" points="1143.87,-148.69 1152.48,-142.52 1141.9,-141.97 1143.87,-148.69"/>
</g>
<!-- Node17 -->
<g id="node17" class="node">
<title>Node17</title>
<g id="a_node17"><a xlink:title=" ">
<polygon fill="white" stroke="#bfbfbf" points="837,-62 837,-81 930,-81 930,-62 837,-62"/>
<text text-anchor="middle" x="883.5" y="-69" font-family="Helvetica,sans-Serif" font-size="10.00">spdlog/spdlog.h</text>
</a>
</g>
</g>
<!-- Node16&#45;&gt;Node17 -->
<g id="edge18" class="edge">
<title>Node16&#45;&gt;Node17</title>
<path fill="none" stroke="midnightblue" d="M964.03,-123.48C948.82,-113.84 923.81,-98.02 905.7,-86.55"/>
<polygon fill="midnightblue" stroke="midnightblue" points="907.26,-83.4 896.94,-81.01 903.52,-89.31 907.26,-83.4"/>
</g>
<!-- Node18 -->
<g id="node18" class="node">
<title>Node18</title>
<g id="a_node18"><a xlink:title=" ">
<polygon fill="white" stroke="#bfbfbf" points="948,-56.5 948,-86.5 1059,-86.5 1059,-56.5 948,-56.5"/>
<text text-anchor="start" x="956" y="-74.5" font-family="Helvetica,sans-Serif" font-size="10.00">spdlog/sinks/stdout</text>
<text text-anchor="middle" x="1003.5" y="-63.5" font-family="Helvetica,sans-Serif" font-size="10.00">_color_sinks.h</text>
</a>
</g>
</g>
<!-- Node16&#45;&gt;Node18 -->
<g id="edge19" class="edge">
<title>Node16&#45;&gt;Node18</title>
<path fill="none" stroke="midnightblue" d="M981.23,-123.48C984.38,-116.25 989.07,-105.53 993.33,-95.78"/>
<polygon fill="midnightblue" stroke="midnightblue" points="996.58,-97.09 997.37,-86.52 990.16,-94.28 996.58,-97.09"/>
</g>
<!-- Node19 -->
<g id="node19" class="node">
<title>Node19</title>
<g id="a_node19"><a xlink:title=" ">
<polygon fill="white" stroke="#bfbfbf" points="1077.5,-62 1077.5,-81 1135.5,-81 1135.5,-62 1077.5,-62"/>
<text text-anchor="middle" x="1106.5" y="-69" font-family="Helvetica,sans-Serif" font-size="10.00">memory</text>
</a>
</g>
</g>
<!-- Node16&#45;&gt;Node19 -->
<g id="edge20" class="edge">
<title>Node16&#45;&gt;Node19</title>
<path fill="none" stroke="midnightblue" d="M995.98,-123.48C1017.63,-113.49 1053.71,-96.85 1078.73,-85.31"/>
<polygon fill="midnightblue" stroke="midnightblue" points="1080.44,-88.38 1088.05,-81.01 1077.51,-82.02 1080.44,-88.38"/>
</g>
<!-- Node20 -->
<g id="node20" class="node">
<title>Node20</title>
<g id="a_node20"><a xlink:title=" ">
<polygon fill="white" stroke="#bfbfbf" points="1153.5,-62 1153.5,-81 1251.5,-81 1251.5,-62 1153.5,-62"/>
<text text-anchor="middle" x="1202.5" y="-69" font-family="Helvetica,sans-Serif" font-size="10.00">spdlog/fmt/fmt.h</text>
</a>
</g>
</g>
<!-- Node16&#45;&gt;Node20 -->
<g id="edge21" class="edge">
<title>Node16&#45;&gt;Node20</title>
<path fill="none" stroke="midnightblue" d="M1009.74,-123.48C1049.42,-112.98 1116.9,-95.14 1160.57,-83.59"/>
<polygon fill="midnightblue" stroke="midnightblue" points="1161.55,-86.95 1170.32,-81.01 1159.76,-80.18 1161.55,-86.95"/>
</g>
</g>
</svg>
