<?xml version="1.0" encoding="UTF-8" standalone="no"?>
<!DOCTYPE svg PUBLIC "-//W3C//DTD SVG 1.1//EN"
 "http://www.w3.org/Graphics/SVG/1.1/DTD/svg11.dtd">
<!-- Generated by graphviz version 2.43.0 (0)
 -->
<!-- Title: OMSimDEGG.hh Pages: 1 -->
<svg width="1248pt" height="386pt"
 viewBox="0.00 0.00 1247.50 386.00" xmlns="http://www.w3.org/2000/svg" xmlns:xlink="http://www.w3.org/1999/xlink">
<g id="graph0" class="graph" transform="scale(1 1) rotate(0) translate(4 382)">
<title>OMSimDEGG.hh</title>
<polygon fill="white" stroke="transparent" points="-4,4 -4,-382 1243.5,-382 1243.5,4 -4,4"/>
<!-- Node1 -->
<g id="node1" class="node">
<title>Node1</title>
<g id="a_node1"><a xlink:title="Construction of the DEGG class.">
<polygon fill="#bfbfbf" stroke="black" points="524,-358.5 524,-377.5 619,-377.5 619,-358.5 524,-358.5"/>
<text text-anchor="middle" x="571.5" y="-365.5" font-family="Helvetica,sans-Serif" font-size="10.00">OMSimDEGG.hh</text>
</a>
</g>
</g>
<!-- Node2 -->
<g id="node2" class="node">
<title>Node2</title>
<g id="a_node2"><a xlink:href="_o_m_sim_p_m_t_construction_8hh.html" target="_top" xlink:title="Construction of the PMTs.">
<polygon fill="white" stroke="black" points="498,-246.5 498,-265.5 647,-265.5 647,-246.5 498,-246.5"/>
<text text-anchor="middle" x="572.5" y="-253.5" font-family="Helvetica,sans-Serif" font-size="10.00">OMSimPMTConstruction.hh</text>
</a>
</g>
</g>
<!-- Node1&#45;&gt;Node2 -->
<g id="edge1" class="edge">
<title>Node1&#45;&gt;Node2</title>
<path fill="none" stroke="midnightblue" d="M579.71,-358.18C587.04,-349.66 597.26,-336.02 601.5,-322 606.68,-304.9 596.75,-286.37 587.13,-273.49"/>
<polygon fill="midnightblue" stroke="midnightblue" points="589.72,-271.13 580.71,-265.56 584.28,-275.54 589.72,-271.13"/>
</g>
<!-- Node24 -->
<g id="node24" class="node">
<title>Node24</title>
<g id="a_node24"><a xlink:href="_o_m_sim_optical_module_8hh.html" target="_top" xlink:title=" ">
<polygon fill="white" stroke="black" points="455,-302.5 455,-321.5 592,-321.5 592,-302.5 455,-302.5"/>
<text text-anchor="middle" x="523.5" y="-309.5" font-family="Helvetica,sans-Serif" font-size="10.00">OMSimOpticalModule.hh</text>
</a>
</g>
</g>
<!-- Node1&#45;&gt;Node24 -->
<g id="edge25" class="edge">
<title>Node1&#45;&gt;Node24</title>
<path fill="none" stroke="midnightblue" d="M563.57,-358.08C556.65,-350.3 546.43,-338.8 538.05,-329.37"/>
<polygon fill="midnightblue" stroke="midnightblue" points="540.54,-326.9 531.28,-321.75 535.31,-331.55 540.54,-326.9"/>
</g>
<!-- Node2&#45;&gt;Node2 -->
<g id="edge16" class="edge">
<title>Node2&#45;&gt;Node2</title>
<path fill="none" stroke="midnightblue" d="M611.95,-265.53C638.76,-268.31 665,-265.13 665,-256 665,-248.01 644.91,-244.58 621.93,-245.71"/>
<polygon fill="midnightblue" stroke="midnightblue" points="621.65,-242.22 611.95,-246.47 622.19,-249.2 621.65,-242.22"/>
</g>
<!-- Node3 -->
<g id="node3" class="node">
<title>Node3</title>
<g id="a_node3"><a xlink:href="abc_detector_component_8hh.html" target="_top" xlink:title="Provides helper base class abcDetectorComponent for constructing and managing detector components in ...">
<polygon fill="white" stroke="black" points="714,-190.5 714,-209.5 861,-209.5 861,-190.5 714,-190.5"/>
<text text-anchor="middle" x="787.5" y="-197.5" font-family="Helvetica,sans-Serif" font-size="10.00">abcDetectorComponent.hh</text>
</a>
</g>
</g>
<!-- Node2&#45;&gt;Node3 -->
<g id="edge2" class="edge">
<title>Node2&#45;&gt;Node3</title>
<path fill="none" stroke="midnightblue" d="M606.57,-246.44C643.68,-237.12 703.16,-222.18 743.71,-212"/>
<polygon fill="midnightblue" stroke="midnightblue" points="744.75,-215.35 753.59,-209.52 743.04,-208.56 744.75,-215.35"/>
</g>
<!-- Node17 -->
<g id="node17" class="node">
<title>Node17</title>
<g id="a_node17"><a xlink:href="_o_m_sim_p_m_t_response_8hh.html" target="_top" xlink:title="Provides simulation for PMT response. This class is responsible for transforming hits on photocathode...">
<polygon fill="white" stroke="black" points="343,-134.5 343,-153.5 478,-153.5 478,-134.5 343,-134.5"/>
<text text-anchor="middle" x="410.5" y="-141.5" font-family="Helvetica,sans-Serif" font-size="10.00">OMSimPMTResponse.hh</text>
</a>
</g>
</g>
<!-- Node2&#45;&gt;Node17 -->
<g id="edge17" class="edge">
<title>Node2&#45;&gt;Node17</title>
<path fill="none" stroke="midnightblue" d="M557.51,-246.42C542.39,-237.64 518.47,-223.41 498.5,-210 474.19,-193.68 447.26,-173.45 429.67,-159.93"/>
<polygon fill="midnightblue" stroke="midnightblue" points="431.44,-156.88 421.38,-153.53 427.16,-162.42 431.44,-156.88"/>
</g>
<!-- Node22 -->
<g id="node22" class="node">
<title>Node22</title>
<g id="a_node22"><a xlink:title=" ">
<polygon fill="white" stroke="#bfbfbf" points="592.5,-190.5 592.5,-209.5 690.5,-209.5 690.5,-190.5 592.5,-190.5"/>
<text text-anchor="middle" x="641.5" y="-197.5" font-family="Helvetica,sans-Serif" font-size="10.00">G4UnionSolid.hh</text>
</a>
</g>
</g>
<!-- Node2&#45;&gt;Node22 -->
<g id="edge23" class="edge">
<title>Node2&#45;&gt;Node22</title>
<path fill="none" stroke="midnightblue" d="M583.59,-246.32C593.99,-238.18 609.76,-225.84 622.22,-216.09"/>
<polygon fill="midnightblue" stroke="midnightblue" points="624.49,-218.75 630.21,-209.83 620.18,-213.24 624.49,-218.75"/>
</g>
<!-- Node23 -->
<g id="node23" class="node">
<title>Node23</title>
<g id="a_node23"><a xlink:title=" ">
<polygon fill="white" stroke="#bfbfbf" points="507,-190.5 507,-209.5 574,-209.5 574,-190.5 507,-190.5"/>
<text text-anchor="middle" x="540.5" y="-197.5" font-family="Helvetica,sans-Serif" font-size="10.00">G4Tubs.hh</text>
</a>
</g>
</g>
<!-- Node2&#45;&gt;Node23 -->
<g id="edge24" class="edge">
<title>Node2&#45;&gt;Node23</title>
<path fill="none" stroke="midnightblue" d="M567.22,-246.08C562.79,-238.61 556.34,-227.72 550.88,-218.52"/>
<polygon fill="midnightblue" stroke="midnightblue" points="553.79,-216.57 545.69,-209.75 547.77,-220.14 553.79,-216.57"/>
</g>
<!-- Node4 -->
<g id="node4" class="node">
<title>Node4</title>
<g id="a_node4"><a xlink:href="_o_m_sim_input_data_8hh.html" target="_top" xlink:title="Definition of ParameterTable and InputDataManager.">
<polygon fill="white" stroke="black" points="601,-134.5 601,-153.5 716,-153.5 716,-134.5 601,-134.5"/>
<text text-anchor="middle" x="658.5" y="-141.5" font-family="Helvetica,sans-Serif" font-size="10.00">OMSimInputData.hh</text>
</a>
</g>
</g>
<!-- Node3&#45;&gt;Node4 -->
<g id="edge3" class="edge">
<title>Node3&#45;&gt;Node4</title>
<path fill="none" stroke="midnightblue" d="M767.06,-190.44C745.83,-181.56 712.4,-167.56 688.25,-157.45"/>
<polygon fill="midnightblue" stroke="midnightblue" points="689.42,-154.15 678.84,-153.52 686.72,-160.61 689.42,-154.15"/>
</g>
<!-- Node13 -->
<g id="node13" class="node">
<title>Node13</title>
<g id="a_node13"><a xlink:title=" ">
<polygon fill="white" stroke="#bfbfbf" points="734,-134.5 734,-153.5 841,-153.5 841,-134.5 734,-134.5"/>
<text text-anchor="middle" x="787.5" y="-141.5" font-family="Helvetica,sans-Serif" font-size="10.00">G4Transform3D.hh</text>
</a>
</g>
</g>
<!-- Node3&#45;&gt;Node13 -->
<g id="edge12" class="edge">
<title>Node3&#45;&gt;Node13</title>
<path fill="none" stroke="midnightblue" d="M787.5,-190.08C787.5,-183.01 787.5,-172.86 787.5,-163.99"/>
<polygon fill="midnightblue" stroke="midnightblue" points="791,-163.75 787.5,-153.75 784,-163.75 791,-163.75"/>
</g>
<!-- Node14 -->
<g id="node14" class="node">
<title>Node14</title>
<g id="a_node14"><a xlink:title=" ">
<polygon fill="white" stroke="#bfbfbf" points="859.5,-134.5 859.5,-153.5 967.5,-153.5 967.5,-134.5 859.5,-134.5"/>
<text text-anchor="middle" x="913.5" y="-141.5" font-family="Helvetica,sans-Serif" font-size="10.00">G4VisAttributes.hh</text>
</a>
</g>
</g>
<!-- Node3&#45;&gt;Node14 -->
<g id="edge13" class="edge">
<title>Node3&#45;&gt;Node14</title>
<path fill="none" stroke="midnightblue" d="M807.47,-190.44C828.11,-181.6 860.56,-167.69 884.13,-157.59"/>
<polygon fill="midnightblue" stroke="midnightblue" points="885.82,-160.67 893.63,-153.52 883.06,-154.24 885.82,-160.67"/>
</g>
<!-- Node15 -->
<g id="node15" class="node">
<title>Node15</title>
<g id="a_node15"><a xlink:title=" ">
<polygon fill="white" stroke="#bfbfbf" points="986,-134.5 986,-153.5 1111,-153.5 1111,-134.5 986,-134.5"/>
<text text-anchor="middle" x="1048.5" y="-141.5" font-family="Helvetica,sans-Serif" font-size="10.00">G4SubtractionSolid.hh</text>
</a>
</g>
</g>
<!-- Node3&#45;&gt;Node15 -->
<g id="edge14" class="edge">
<title>Node3&#45;&gt;Node15</title>
<path fill="none" stroke="midnightblue" d="M828.86,-190.44C874.58,-180.98 948.26,-165.74 997.52,-155.55"/>
<polygon fill="midnightblue" stroke="midnightblue" points="998.25,-158.97 1007.34,-153.52 996.84,-152.12 998.25,-158.97"/>
</g>
<!-- Node16 -->
<g id="node16" class="node">
<title>Node16</title>
<g id="a_node16"><a xlink:title=" ">
<polygon fill="white" stroke="#bfbfbf" points="1129.5,-134.5 1129.5,-153.5 1239.5,-153.5 1239.5,-134.5 1129.5,-134.5"/>
<text text-anchor="middle" x="1184.5" y="-141.5" font-family="Helvetica,sans-Serif" font-size="10.00">G4PVPlacement.hh</text>
</a>
</g>
</g>
<!-- Node3&#45;&gt;Node16 -->
<g id="edge15" class="edge">
<title>Node3&#45;&gt;Node16</title>
<path fill="none" stroke="midnightblue" d="M851.35,-190.48C916.24,-181.79 1019.93,-167.84 1119.42,-154.14"/>
<polygon fill="midnightblue" stroke="midnightblue" points="1119.92,-157.61 1129.34,-152.78 1118.96,-150.67 1119.92,-157.61"/>
</g>
<!-- Node5 -->
<g id="node5" class="node">
<title>Node5</title>
<g id="a_node5"><a xlink:href="_o_m_sim_logger_8hh.html" target="_top" xlink:title=" ">
<polygon fill="white" stroke="black" points="882,-73 882,-92 981,-92 981,-73 882,-73"/>
<text text-anchor="middle" x="931.5" y="-80" font-family="Helvetica,sans-Serif" font-size="10.00">OMSimLogger.hh</text>
</a>
</g>
</g>
<!-- Node4&#45;&gt;Node5 -->
<g id="edge4" class="edge">
<title>Node4&#45;&gt;Node5</title>
<path fill="none" stroke="midnightblue" d="M701.85,-134.44C745.35,-125.73 814.22,-111.61 873.5,-98 878.43,-96.87 883.59,-95.64 888.71,-94.4"/>
<polygon fill="midnightblue" stroke="midnightblue" points="889.55,-97.79 898.43,-92 887.88,-91 889.55,-97.79"/>
</g>
<!-- Node10 -->
<g id="node10" class="node">
<title>Node10</title>
<g id="a_node10"><a xlink:title=" ">
<polygon fill="white" stroke="#bfbfbf" points="590,-73 590,-92 733,-92 733,-73 590,-73"/>
<text text-anchor="middle" x="661.5" y="-80" font-family="Helvetica,sans-Serif" font-size="10.00">G4OpBoundaryProcess.hh</text>
</a>
</g>
</g>
<!-- Node4&#45;&gt;Node10 -->
<g id="edge9" class="edge">
<title>Node4&#45;&gt;Node10</title>
<path fill="none" stroke="midnightblue" d="M658.93,-134.48C659.35,-126.08 660.01,-112.98 660.56,-102.16"/>
<polygon fill="midnightblue" stroke="midnightblue" points="664.06,-102.17 661.07,-92.01 657.07,-101.82 664.06,-102.17"/>
</g>
<!-- Node11 -->
<g id="node11" class="node">
<title>Node11</title>
<g id="a_node11"><a xlink:title=" ">
<polygon fill="white" stroke="#bfbfbf" points="453,-73 453,-92 572,-92 572,-73 453,-73"/>
<text text-anchor="middle" x="512.5" y="-80" font-family="Helvetica,sans-Serif" font-size="10.00">G4SystemOfUnits.hh</text>
</a>
</g>
</g>
<!-- Node4&#45;&gt;Node11 -->
<g id="edge10" class="edge">
<title>Node4&#45;&gt;Node11</title>
<path fill="none" stroke="midnightblue" d="M637.58,-134.48C612.75,-124.36 571.16,-107.4 542.81,-95.85"/>
<polygon fill="midnightblue" stroke="midnightblue" points="543.96,-92.54 533.38,-92.01 541.32,-99.02 543.96,-92.54"/>
</g>
<!-- Node12 -->
<g id="node12" class="node">
<title>Node12</title>
<g id="a_node12"><a xlink:title=" ">
<polygon fill="white" stroke="#bfbfbf" points="751,-67.5 751,-97.5 864,-97.5 864,-67.5 751,-67.5"/>
<text text-anchor="start" x="759" y="-85.5" font-family="Helvetica,sans-Serif" font-size="10.00">boost/property_tree</text>
<text text-anchor="middle" x="807.5" y="-74.5" font-family="Helvetica,sans-Serif" font-size="10.00">/json_parser.hpp</text>
</a>
</g>
</g>
<!-- Node4&#45;&gt;Node12 -->
<g id="edge11" class="edge">
<title>Node4&#45;&gt;Node12</title>
<path fill="none" stroke="midnightblue" d="M679.85,-134.48C701.44,-125.85 735.47,-112.26 762.96,-101.29"/>
<polygon fill="midnightblue" stroke="midnightblue" points="764.39,-104.48 772.38,-97.52 761.8,-97.98 764.39,-104.48"/>
</g>
<!-- Node6 -->
<g id="node6" class="node">
<title>Node6</title>
<g id="a_node6"><a xlink:title=" ">
<polygon fill="white" stroke="#bfbfbf" points="713,-6 713,-25 806,-25 806,-6 713,-6"/>
<text text-anchor="middle" x="759.5" y="-13" font-family="Helvetica,sans-Serif" font-size="10.00">spdlog/spdlog.h</text>
</a>
</g>
</g>
<!-- Node5&#45;&gt;Node6 -->
<g id="edge5" class="edge">
<title>Node5&#45;&gt;Node6</title>
<path fill="none" stroke="midnightblue" d="M908.66,-72.87C878.63,-61.52 825.72,-41.52 791.66,-28.65"/>
<polygon fill="midnightblue" stroke="midnightblue" points="792.75,-25.32 782.16,-25.06 790.28,-31.87 792.75,-25.32"/>
</g>
<!-- Node7 -->
<g id="node7" class="node">
<title>Node7</title>
<g id="a_node7"><a xlink:title=" ">
<polygon fill="white" stroke="#bfbfbf" points="824,-0.5 824,-30.5 935,-30.5 935,-0.5 824,-0.5"/>
<text text-anchor="start" x="832" y="-18.5" font-family="Helvetica,sans-Serif" font-size="10.00">spdlog/sinks/stdout</text>
<text text-anchor="middle" x="879.5" y="-7.5" font-family="Helvetica,sans-Serif" font-size="10.00">_color_sinks.h</text>
</a>
</g>
</g>
<!-- Node5&#45;&gt;Node7 -->
<g id="edge6" class="edge">
<title>Node5&#45;&gt;Node7</title>
<path fill="none" stroke="midnightblue" d="M924.49,-72.73C917.53,-64.03 906.58,-50.34 897.22,-38.65"/>
<polygon fill="midnightblue" stroke="midnightblue" points="899.75,-36.21 890.77,-30.59 894.29,-40.58 899.75,-36.21"/>
</g>
<!-- Node8 -->
<g id="node8" class="node">
<title>Node8</title>
<g id="a_node8"><a xlink:title=" ">
<polygon fill="white" stroke="#bfbfbf" points="953.5,-6 953.5,-25 1011.5,-25 1011.5,-6 953.5,-6"/>
<text text-anchor="middle" x="982.5" y="-13" font-family="Helvetica,sans-Serif" font-size="10.00">memory</text>
</a>
</g>
</g>
<!-- Node5&#45;&gt;Node8 -->
<g id="edge7" class="edge">
<title>Node5&#45;&gt;Node8</title>
<path fill="none" stroke="midnightblue" d="M938.38,-72.73C946.33,-62.6 959.6,-45.69 969.51,-33.06"/>
<polygon fill="midnightblue" stroke="midnightblue" points="972.31,-35.16 975.73,-25.13 966.8,-30.83 972.31,-35.16"/>
</g>
<!-- Node9 -->
<g id="node9" class="node">
<title>Node9</title>
<g id="a_node9"><a xlink:title=" ">
<polygon fill="white" stroke="#bfbfbf" points="1029.5,-6 1029.5,-25 1127.5,-25 1127.5,-6 1029.5,-6"/>
<text text-anchor="middle" x="1078.5" y="-13" font-family="Helvetica,sans-Serif" font-size="10.00">spdlog/fmt/fmt.h</text>
</a>
</g>
</g>
<!-- Node5&#45;&gt;Node9 -->
<g id="edge8" class="edge">
<title>Node5&#45;&gt;Node9</title>
<path fill="none" stroke="midnightblue" d="M951.02,-72.87C976.28,-61.7 1020.5,-42.15 1049.64,-29.26"/>
<polygon fill="midnightblue" stroke="midnightblue" points="1051.17,-32.41 1058.9,-25.17 1048.34,-26.01 1051.17,-32.41"/>
</g>
<!-- Node17&#45;&gt;Node11 -->
<g id="edge18" class="edge">
<title>Node17&#45;&gt;Node11</title>
<path fill="none" stroke="midnightblue" d="M425.11,-134.48C441.85,-124.71 469.5,-108.58 489.22,-97.08"/>
<polygon fill="midnightblue" stroke="midnightblue" points="491.04,-100.07 497.91,-92.01 487.51,-94.02 491.04,-100.07"/>
</g>
<!-- Node18 -->
<g id="node18" class="node">
<title>Node18</title>
<g id="a_node18"><a xlink:title=" ">
<polygon fill="white" stroke="#bfbfbf" points="155,-73 155,-92 228,-92 228,-73 155,-73"/>
<text text-anchor="middle" x="191.5" y="-80" font-family="Helvetica,sans-Serif" font-size="10.00">G4Types.hh</text>
</a>
</g>
</g>
<!-- Node17&#45;&gt;Node18 -->
<g id="edge19" class="edge">
<title>Node17&#45;&gt;Node18</title>
<path fill="none" stroke="midnightblue" d="M375.57,-134.47C340.52,-125.78 285.07,-111.68 237.5,-98 234.18,-97.05 230.74,-96.02 227.29,-94.98"/>
<polygon fill="midnightblue" stroke="midnightblue" points="228.29,-91.62 217.7,-92.01 226.22,-98.31 228.29,-91.62"/>
</g>
<!-- Node19 -->
<g id="node19" class="node">
<title>Node19</title>
<g id="a_node19"><a xlink:title=" ">
<polygon fill="white" stroke="#bfbfbf" points="246.5,-73 246.5,-92 284.5,-92 284.5,-73 246.5,-73"/>
<text text-anchor="middle" x="265.5" y="-80" font-family="Helvetica,sans-Serif" font-size="10.00">map</text>
</a>
</g>
</g>
<!-- Node17&#45;&gt;Node19 -->
<g id="edge20" class="edge">
<title>Node17&#45;&gt;Node19</title>
<path fill="none" stroke="midnightblue" d="M385.98,-134.46C362.08,-125.94 324.86,-112.1 293.5,-98 292.5,-97.55 291.49,-97.08 290.47,-96.6"/>
<polygon fill="midnightblue" stroke="midnightblue" points="291.86,-93.39 281.34,-92.09 288.75,-99.66 291.86,-93.39"/>
</g>
<!-- Node20 -->
<g id="node20" class="node">
<title>Node20</title>
<g id="a_node20"><a xlink:title=" ">
<polygon fill="white" stroke="#bfbfbf" points="303,-73 303,-92 364,-92 364,-73 303,-73"/>
<text text-anchor="middle" x="333.5" y="-80" font-family="Helvetica,sans-Serif" font-size="10.00">TGraph.h</text>
</a>
</g>
</g>
<!-- Node17&#45;&gt;Node20 -->
<g id="edge21" class="edge">
<title>Node17&#45;&gt;Node20</title>
<path fill="none" stroke="midnightblue" d="M399.47,-134.48C387.23,-125.02 367.27,-109.6 352.51,-98.19"/>
<polygon fill="midnightblue" stroke="midnightblue" points="354.56,-95.35 344.51,-92.01 350.28,-100.89 354.56,-95.35"/>
</g>
<!-- Node21 -->
<g id="node21" class="node">
<title>Node21</title>
<g id="a_node21"><a xlink:title=" ">
<polygon fill="white" stroke="#bfbfbf" points="382,-73 382,-92 435,-92 435,-73 382,-73"/>
<text text-anchor="middle" x="408.5" y="-80" font-family="Helvetica,sans-Serif" font-size="10.00">TH2D.h</text>
</a>
</g>
</g>
<!-- Node17&#45;&gt;Node21 -->
<g id="edge22" class="edge">
<title>Node17&#45;&gt;Node21</title>
<path fill="none" stroke="midnightblue" d="M410.21,-134.48C409.93,-126.08 409.49,-112.98 409.13,-102.16"/>
<polygon fill="midnightblue" stroke="midnightblue" points="412.62,-101.89 408.79,-92.01 405.62,-102.12 412.62,-101.89"/>
</g>
<!-- Node24&#45;&gt;Node2 -->
<g id="edge37" class="edge">
<title>Node24&#45;&gt;Node2</title>
<path fill="none" stroke="midnightblue" d="M531.59,-302.08C538.66,-294.3 549.09,-282.8 557.65,-273.37"/>
<polygon fill="midnightblue" stroke="midnightblue" points="560.43,-275.51 564.56,-265.75 555.25,-270.8 560.43,-275.51"/>
</g>
<!-- Node24&#45;&gt;Node3 -->
<g id="edge26" class="edge">
<title>Node24&#45;&gt;Node3</title>
<path fill="none" stroke="midnightblue" d="M560.65,-302.5C591.74,-294.78 636.93,-282.14 674.5,-266 707.98,-251.62 744.04,-229.62 766.2,-215.27"/>
<polygon fill="midnightblue" stroke="midnightblue" points="768.35,-218.04 774.79,-209.63 764.51,-212.19 768.35,-218.04"/>
</g>
<!-- Node25 -->
<g id="node25" class="node">
<title>Node25</title>
<g id="a_node25"><a xlink:href="_o_m_sim_hit_manager_8hh.html" target="_top" xlink:title="Defines structures and classes related to optical module photon hit management.">
<polygon fill="white" stroke="black" points="241,-246.5 241,-265.5 364,-265.5 364,-246.5 241,-246.5"/>
<text text-anchor="middle" x="302.5" y="-253.5" font-family="Helvetica,sans-Serif" font-size="10.00">OMSimHitManager.hh</text>
</a>
</g>
</g>
<!-- Node24&#45;&gt;Node25 -->
<g id="edge27" class="edge">
<title>Node24&#45;&gt;Node25</title>
<path fill="none" stroke="midnightblue" d="M488.48,-302.44C450.25,-293.1 388.93,-278.12 347.24,-267.93"/>
<polygon fill="midnightblue" stroke="midnightblue" points="347.9,-264.49 337.35,-265.52 346.24,-271.29 347.9,-264.49"/>
</g>
<!-- Node25&#45;&gt;Node17 -->
<g id="edge28" class="edge">
<title>Node25&#45;&gt;Node17</title>
<path fill="none" stroke="midnightblue" d="M330.03,-246.4C348.58,-239.33 372.34,-227.57 387.5,-210 398.85,-196.84 404.73,-177.7 407.68,-163.6"/>
<polygon fill="midnightblue" stroke="midnightblue" points="411.16,-164.04 409.48,-153.58 404.27,-162.8 411.16,-164.04"/>
</g>
<!-- Node26 -->
<g id="node26" class="node">
<title>Node26</title>
<g id="a_node26"><a xlink:href="_o_m_sim_sensitive_detector_8hh.html" target="_top" xlink:title=" ">
<polygon fill="white" stroke="black" points="226,-190.5 226,-209.5 379,-209.5 379,-190.5 226,-190.5"/>
<text text-anchor="middle" x="302.5" y="-197.5" font-family="Helvetica,sans-Serif" font-size="10.00">OMSimSensitiveDetector.hh</text>
</a>
</g>
</g>
<!-- Node25&#45;&gt;Node26 -->
<g id="edge29" class="edge">
<title>Node25&#45;&gt;Node26</title>
<path fill="none" stroke="midnightblue" d="M302.5,-246.08C302.5,-239.01 302.5,-228.86 302.5,-219.99"/>
<polygon fill="midnightblue" stroke="midnightblue" points="306,-219.75 302.5,-209.75 299,-219.75 306,-219.75"/>
</g>
<!-- Node28 -->
<g id="node28" class="node">
<title>Node28</title>
<g id="a_node28"><a xlink:title=" ">
<polygon fill="white" stroke="#bfbfbf" points="0,-134.5 0,-153.5 103,-153.5 103,-134.5 0,-134.5"/>
<text text-anchor="middle" x="51.5" y="-141.5" font-family="Helvetica,sans-Serif" font-size="10.00">G4ThreeVector.hh</text>
</a>
</g>
</g>
<!-- Node25&#45;&gt;Node28 -->
<g id="edge35" class="edge">
<title>Node25&#45;&gt;Node28</title>
<path fill="none" stroke="midnightblue" d="M257.17,-246.47C224.53,-239.31 180,-227.43 143.5,-210 115.44,-196.6 86.75,-174.78 69.04,-160.16"/>
<polygon fill="midnightblue" stroke="midnightblue" points="71.18,-157.39 61.27,-153.63 66.67,-162.74 71.18,-157.39"/>
</g>
<!-- Node30 -->
<g id="node30" class="node">
<title>Node30</title>
<g id="a_node30"><a xlink:title=" ">
<polygon fill="white" stroke="#bfbfbf" points="153,-190.5 153,-209.5 208,-209.5 208,-190.5 153,-190.5"/>
<text text-anchor="middle" x="180.5" y="-197.5" font-family="Helvetica,sans-Serif" font-size="10.00">fstream</text>
</a>
</g>
</g>
<!-- Node25&#45;&gt;Node30 -->
<g id="edge36" class="edge">
<title>Node25&#45;&gt;Node30</title>
<path fill="none" stroke="midnightblue" d="M283.17,-246.44C263.18,-237.6 231.76,-223.69 208.94,-213.59"/>
<polygon fill="midnightblue" stroke="midnightblue" points="210.3,-210.36 199.74,-209.52 207.47,-216.76 210.3,-210.36"/>
</g>
<!-- Node26&#45;&gt;Node10 -->
<g id="edge33" class="edge">
<title>Node26&#45;&gt;Node10</title>
<path fill="none" stroke="midnightblue" d="M345.24,-190.46C383.06,-182.47 439.52,-169.46 487.5,-154 540.3,-136.98 599.8,-111.43 633.76,-96.21"/>
<polygon fill="midnightblue" stroke="midnightblue" points="635.36,-99.33 643.04,-92.03 632.48,-92.95 635.36,-99.33"/>
</g>
<!-- Node26&#45;&gt;Node17 -->
<g id="edge32" class="edge">
<title>Node26&#45;&gt;Node17</title>
<path fill="none" stroke="midnightblue" d="M319.85,-190.32C337.17,-181.66 364.02,-168.24 384,-158.25"/>
<polygon fill="midnightblue" stroke="midnightblue" points="385.81,-161.26 393.19,-153.65 382.68,-155 385.81,-161.26"/>
</g>
<!-- Node27 -->
<g id="node27" class="node">
<title>Node27</title>
<g id="a_node27"><a xlink:title=" ">
<polygon fill="white" stroke="#bfbfbf" points="121.5,-134.5 121.5,-153.5 259.5,-153.5 259.5,-134.5 121.5,-134.5"/>
<text text-anchor="middle" x="190.5" y="-141.5" font-family="Helvetica,sans-Serif" font-size="10.00">G4VSensitiveDetector.hh</text>
</a>
</g>
</g>
<!-- Node26&#45;&gt;Node27 -->
<g id="edge30" class="edge">
<title>Node26&#45;&gt;Node27</title>
<path fill="none" stroke="midnightblue" d="M284.51,-190.32C266.46,-181.62 238.45,-168.12 217.7,-158.11"/>
<polygon fill="midnightblue" stroke="midnightblue" points="218.98,-154.84 208.45,-153.65 215.94,-161.15 218.98,-154.84"/>
</g>
<!-- Node26&#45;&gt;Node28 -->
<g id="edge31" class="edge">
<title>Node26&#45;&gt;Node28</title>
<path fill="none" stroke="midnightblue" d="M262.73,-190.44C218.94,-181.02 148.49,-165.87 101.12,-155.68"/>
<polygon fill="midnightblue" stroke="midnightblue" points="101.6,-152.2 91.09,-153.52 100.13,-159.04 101.6,-152.2"/>
</g>
<!-- Node29 -->
<g id="node29" class="node">
<title>Node29</title>
<g id="a_node29"><a xlink:title=" ">
<polygon fill="white" stroke="#bfbfbf" points="278,-134.5 278,-153.5 325,-153.5 325,-134.5 278,-134.5"/>
<text text-anchor="middle" x="301.5" y="-141.5" font-family="Helvetica,sans-Serif" font-size="10.00">vector</text>
</a>
</g>
</g>
<!-- Node26&#45;&gt;Node29 -->
<g id="edge34" class="edge">
<title>Node26&#45;&gt;Node29</title>
<path fill="none" stroke="midnightblue" d="M302.33,-190.08C302.2,-183.01 302.02,-172.86 301.85,-163.99"/>
<polygon fill="midnightblue" stroke="midnightblue" points="305.35,-163.68 301.66,-153.75 298.35,-163.81 305.35,-163.68"/>
</g>
</g>
</svg>
