<?xml version="1.0" encoding="UTF-8" standalone="no"?>
<!DOCTYPE svg PUBLIC "-//W3C//DTD SVG 1.1//EN"
 "http://www.w3.org/Graphics/SVG/1.1/DTD/svg11.dtd">
<!-- Generated by graphviz version 2.43.0 (0)
 -->
<!-- Title: OMSimRadDecaysDetector.hh Pages: 1 -->
<svg width="1360pt" height="442pt"
 viewBox="0.00 0.00 1360.00 442.00" xmlns="http://www.w3.org/2000/svg" xmlns:xlink="http://www.w3.org/1999/xlink">
<g id="graph0" class="graph" transform="scale(1 1) rotate(0) translate(4 438)">
<title>OMSimRadDecaysDetector.hh</title>
<!-- Node1 -->
<g id="node1" class="node">
<title>Node1</title>
<g id="a_node1"><a xlink:title="Defines the OMSimRadDecaysDetector class for the radioactive decays simulation.">
<polygon fill="#bfbfbf" stroke="black" points="777.5,-414.5 777.5,-433.5 940.5,-433.5 940.5,-414.5 777.5,-414.5"/>
<text text-anchor="middle" x="859" y="-421.5" font-family="Helvetica,sans-Serif" font-size="10.00">OMSimRadDecaysDetector.hh</text>
</a>
</g>
</g>
<!-- Node2 -->
<g id="node2" class="node">
<title>Node2</title>
<g id="a_node2"><a xlink:href="_o_m_sim_optical_module_8hh_source.html" target="_top" xlink:title=" ">
<polygon fill="none" stroke="black" points="720.5,-302.5 720.5,-321.5 857.5,-321.5 857.5,-302.5 720.5,-302.5"/>
<text text-anchor="middle" x="789" y="-309.5" font-family="Helvetica,sans-Serif" font-size="10.00">OMSimOpticalModule.hh</text>
</a>
</g>
</g>
<!-- Node1&#45;&gt;Node2 -->
<g id="edge1" class="edge">
<title>Node1&#45;&gt;Node2</title>
<path fill="none" stroke="midnightblue" d="M853.51,-414.37C842.01,-396.3 815.2,-354.18 800.01,-330.31"/>
<polygon fill="midnightblue" stroke="midnightblue" points="802.79,-328.15 794.47,-321.59 796.88,-331.91 802.79,-328.15"/>
</g>
<!-- Node3 -->
<g id="node3" class="node">
<title>Node3</title>
<g id="a_node3"><a xlink:href="_o_m_sim_detector_component_8hh.html" target="_top" xlink:title="Provides helper base class OMSimDetectorComponent for constructing and managing detector components i...">
<polygon fill="none" stroke="black" points="581.5,-190.5 581.5,-209.5 746.5,-209.5 746.5,-190.5 581.5,-190.5"/>
<text text-anchor="middle" x="664" y="-197.5" font-family="Helvetica,sans-Serif" font-size="10.00">OMSimDetectorComponent.hh</text>
</a>
</g>
</g>
<!-- Node1&#45;&gt;Node3 -->
<g id="edge40" class="edge">
<title>Node1&#45;&gt;Node3</title>
<path fill="none" stroke="midnightblue" d="M839.42,-414.4C808.14,-399.74 746.79,-367.06 711,-322 686.21,-290.79 673.25,-244.97 667.59,-219.61"/>
<polygon fill="midnightblue" stroke="midnightblue" points="671.02,-218.88 665.55,-209.81 664.17,-220.31 671.02,-218.88"/>
</g>
<!-- Node35 -->
<g id="node35" class="node">
<title>Node35</title>
<g id="a_node35"><a xlink:href="_o_m_sim_detector_construction_8hh_source.html" target="_top" xlink:title=" ">
<polygon fill="none" stroke="black" points="862,-358.5 862,-377.5 1032,-377.5 1032,-358.5 862,-358.5"/>
<text text-anchor="middle" x="947" y="-365.5" font-family="Helvetica,sans-Serif" font-size="10.00">OMSimDetectorConstruction.hh</text>
</a>
</g>
</g>
<!-- Node1&#45;&gt;Node35 -->
<g id="edge41" class="edge">
<title>Node1&#45;&gt;Node35</title>
<path fill="none" stroke="midnightblue" d="M873.14,-414.32C886.87,-405.9 907.94,-392.97 924.06,-383.07"/>
<polygon fill="midnightblue" stroke="midnightblue" points="926.2,-385.87 932.9,-377.65 922.54,-379.9 926.2,-385.87"/>
</g>
<!-- Node36 -->
<g id="node36" class="node">
<title>Node36</title>
<g id="a_node36"><a xlink:title=" ">
<polygon fill="none" stroke="#bfbfbf" points="1072,-302.5 1072,-321.5 1134,-321.5 1134,-302.5 1072,-302.5"/>
<text text-anchor="middle" x="1103" y="-309.5" font-family="Helvetica,sans-Serif" font-size="10.00">G4Orb.hh</text>
</a>
</g>
</g>
<!-- Node1&#45;&gt;Node36 -->
<g id="edge45" class="edge">
<title>Node1&#45;&gt;Node36</title>
<path fill="none" stroke="midnightblue" d="M933.01,-414.43C967.56,-408.06 1008.2,-397.03 1041,-378 1061.78,-365.95 1080,-344.87 1091.22,-329.98"/>
<polygon fill="midnightblue" stroke="midnightblue" points="1094.22,-331.81 1097.26,-321.66 1088.55,-327.7 1094.22,-331.81"/>
</g>
<!-- Node2&#45;&gt;Node3 -->
<g id="edge2" class="edge">
<title>Node2&#45;&gt;Node3</title>
<path fill="none" stroke="midnightblue" d="M776.9,-302.46C764.72,-293.71 745.57,-279.51 730,-266 711.89,-250.29 692.5,-230.84 679.45,-217.33"/>
<polygon fill="midnightblue" stroke="midnightblue" points="681.66,-214.57 672.22,-209.77 676.6,-219.41 681.66,-214.57"/>
</g>
<!-- Node24 -->
<g id="node24" class="node">
<title>Node24</title>
<g id="a_node24"><a xlink:href="_o_m_sim_hit_manager_8hh.html" target="_top" xlink:title="Defines structures and classes related to optical module photon hit management.">
<polygon fill="none" stroke="black" points="1100.5,-190.5 1100.5,-209.5 1223.5,-209.5 1223.5,-190.5 1100.5,-190.5"/>
<text text-anchor="middle" x="1162" y="-197.5" font-family="Helvetica,sans-Serif" font-size="10.00">OMSimHitManager.hh</text>
</a>
</g>
</g>
<!-- Node2&#45;&gt;Node24 -->
<g id="edge23" class="edge">
<title>Node2&#45;&gt;Node24</title>
<path fill="none" stroke="midnightblue" d="M817.96,-302.46C884.41,-282.86 1047.9,-234.65 1123.06,-212.48"/>
<polygon fill="midnightblue" stroke="midnightblue" points="1124.46,-215.72 1133.06,-209.53 1122.48,-209.01 1124.46,-215.72"/>
</g>
<!-- Node32 -->
<g id="node32" class="node">
<title>Node32</title>
<g id="a_node32"><a xlink:href="_o_m_sim_p_m_t_construction_8hh.html" target="_top" xlink:title="Construction of the PMTs.">
<polygon fill="none" stroke="black" points="739.5,-246.5 739.5,-265.5 888.5,-265.5 888.5,-246.5 739.5,-246.5"/>
<text text-anchor="middle" x="814" y="-253.5" font-family="Helvetica,sans-Serif" font-size="10.00">OMSimPMTConstruction.hh</text>
</a>
</g>
</g>
<!-- Node2&#45;&gt;Node32 -->
<g id="edge34" class="edge">
<title>Node2&#45;&gt;Node32</title>
<path fill="none" stroke="midnightblue" d="M793.13,-302.08C796.51,-294.77 801.42,-284.18 805.62,-275.1"/>
<polygon fill="midnightblue" stroke="midnightblue" points="808.92,-276.3 809.95,-265.75 802.57,-273.36 808.92,-276.3"/>
</g>
<!-- Node4 -->
<g id="node4" class="node">
<title>Node4</title>
<g id="a_node4"><a xlink:href="_o_m_sim_input_data_8hh.html" target="_top" xlink:title="Definition of ParameterTable and OMSimInputData.">
<polygon fill="none" stroke="black" points="252.5,-134.5 252.5,-153.5 367.5,-153.5 367.5,-134.5 252.5,-134.5"/>
<text text-anchor="middle" x="310" y="-141.5" font-family="Helvetica,sans-Serif" font-size="10.00">OMSimInputData.hh</text>
</a>
</g>
</g>
<!-- Node3&#45;&gt;Node4 -->
<g id="edge3" class="edge">
<title>Node3&#45;&gt;Node4</title>
<path fill="none" stroke="midnightblue" d="M607.91,-190.44C544.86,-180.83 442.6,-165.23 375.82,-155.04"/>
<polygon fill="midnightblue" stroke="midnightblue" points="376.24,-151.56 365.83,-153.52 375.19,-158.48 376.24,-151.56"/>
</g>
<!-- Node20 -->
<g id="node20" class="node">
<title>Node20</title>
<g id="a_node20"><a xlink:title=" ">
<polygon fill="none" stroke="#bfbfbf" points="385.5,-134.5 385.5,-153.5 492.5,-153.5 492.5,-134.5 385.5,-134.5"/>
<text text-anchor="middle" x="439" y="-141.5" font-family="Helvetica,sans-Serif" font-size="10.00">G4Transform3D.hh</text>
</a>
</g>
</g>
<!-- Node3&#45;&gt;Node20 -->
<g id="edge19" class="edge">
<title>Node3&#45;&gt;Node20</title>
<path fill="none" stroke="midnightblue" d="M628.35,-190.44C589.34,-181.08 526.73,-166.06 484.28,-155.87"/>
<polygon fill="midnightblue" stroke="midnightblue" points="485.03,-152.45 474.49,-153.52 483.39,-159.25 485.03,-152.45"/>
</g>
<!-- Node21 -->
<g id="node21" class="node">
<title>Node21</title>
<g id="a_node21"><a xlink:title=" ">
<polygon fill="none" stroke="#bfbfbf" points="511,-134.5 511,-153.5 619,-153.5 619,-134.5 511,-134.5"/>
<text text-anchor="middle" x="565" y="-141.5" font-family="Helvetica,sans-Serif" font-size="10.00">G4VisAttributes.hh</text>
</a>
</g>
</g>
<!-- Node3&#45;&gt;Node21 -->
<g id="edge20" class="edge">
<title>Node3&#45;&gt;Node21</title>
<path fill="none" stroke="midnightblue" d="M648.09,-190.32C632.36,-181.74 608.06,-168.49 589.79,-158.52"/>
<polygon fill="midnightblue" stroke="midnightblue" points="591.32,-155.37 580.87,-153.65 587.97,-161.52 591.32,-155.37"/>
</g>
<!-- Node22 -->
<g id="node22" class="node">
<title>Node22</title>
<g id="a_node22"><a xlink:title=" ">
<polygon fill="none" stroke="#bfbfbf" points="637.5,-134.5 637.5,-153.5 762.5,-153.5 762.5,-134.5 637.5,-134.5"/>
<text text-anchor="middle" x="700" y="-141.5" font-family="Helvetica,sans-Serif" font-size="10.00">G4SubtractionSolid.hh</text>
</a>
</g>
</g>
<!-- Node3&#45;&gt;Node22 -->
<g id="edge21" class="edge">
<title>Node3&#45;&gt;Node22</title>
<path fill="none" stroke="midnightblue" d="M669.94,-190.08C674.98,-182.53 682.34,-171.49 688.51,-162.23"/>
<polygon fill="midnightblue" stroke="midnightblue" points="691.53,-164.01 694.17,-153.75 685.71,-160.13 691.53,-164.01"/>
</g>
<!-- Node23 -->
<g id="node23" class="node">
<title>Node23</title>
<g id="a_node23"><a xlink:title=" ">
<polygon fill="none" stroke="#bfbfbf" points="781,-134.5 781,-153.5 891,-153.5 891,-134.5 781,-134.5"/>
<text text-anchor="middle" x="836" y="-141.5" font-family="Helvetica,sans-Serif" font-size="10.00">G4PVPlacement.hh</text>
</a>
</g>
</g>
<!-- Node3&#45;&gt;Node23 -->
<g id="edge22" class="edge">
<title>Node3&#45;&gt;Node23</title>
<path fill="none" stroke="midnightblue" d="M691.25,-190.44C720.44,-181.28 766.92,-166.69 799.31,-156.52"/>
<polygon fill="midnightblue" stroke="midnightblue" points="800.38,-159.85 808.87,-153.52 798.28,-153.17 800.38,-159.85"/>
</g>
<!-- Node5 -->
<g id="node5" class="node">
<title>Node5</title>
<g id="a_node5"><a xlink:href="_o_m_sim_logger_8hh_source.html" target="_top" xlink:title=" ">
<polygon fill="none" stroke="black" points="246.5,-73 246.5,-92 345.5,-92 345.5,-73 246.5,-73"/>
<text text-anchor="middle" x="296" y="-80" font-family="Helvetica,sans-Serif" font-size="10.00">OMSimLogger.hh</text>
</a>
</g>
</g>
<!-- Node4&#45;&gt;Node5 -->
<g id="edge4" class="edge">
<title>Node4&#45;&gt;Node5</title>
<path fill="none" stroke="midnightblue" d="M307.99,-134.48C306,-125.99 302.87,-112.7 300.31,-101.82"/>
<polygon fill="midnightblue" stroke="midnightblue" points="303.7,-100.94 298,-92.01 296.89,-102.54 303.7,-100.94"/>
</g>
<!-- Node10 -->
<g id="node10" class="node">
<title>Node10</title>
<g id="a_node10"><a xlink:href="_o_m_sim_op_boundary_process_8hh_source.html" target="_top" xlink:title=" ">
<polygon fill="none" stroke="black" points="584,-73 584,-92 748,-92 748,-73 584,-73"/>
<text text-anchor="middle" x="666" y="-80" font-family="Helvetica,sans-Serif" font-size="10.00">OMSimOpBoundaryProcess.hh</text>
</a>
</g>
</g>
<!-- Node4&#45;&gt;Node10 -->
<g id="edge9" class="edge">
<title>Node4&#45;&gt;Node10</title>
<path fill="none" stroke="midnightblue" d="M361.01,-134.48C425.38,-123.72 535.98,-105.23 604.83,-93.72"/>
<polygon fill="midnightblue" stroke="midnightblue" points="605.8,-97.11 615.09,-92.01 604.65,-90.21 605.8,-97.11"/>
</g>
<!-- Node18 -->
<g id="node18" class="node">
<title>Node18</title>
<g id="a_node18"><a xlink:title=" ">
<polygon fill="none" stroke="#bfbfbf" points="766.5,-73 766.5,-92 885.5,-92 885.5,-73 766.5,-73"/>
<text text-anchor="middle" x="826" y="-80" font-family="Helvetica,sans-Serif" font-size="10.00">G4SystemOfUnits.hh</text>
</a>
</g>
</g>
<!-- Node4&#45;&gt;Node18 -->
<g id="edge17" class="edge">
<title>Node4&#45;&gt;Node18</title>
<path fill="none" stroke="midnightblue" d="M367.58,-135.01C370.42,-134.66 373.24,-134.32 376,-134 544.97,-114.51 588.84,-123.53 757,-98 764.24,-96.9 771.86,-95.52 779.29,-94.06"/>
<polygon fill="midnightblue" stroke="midnightblue" points="780.16,-97.45 789.26,-92.02 778.76,-90.6 780.16,-97.45"/>
</g>
<!-- Node19 -->
<g id="node19" class="node">
<title>Node19</title>
<g id="a_node19"><a xlink:title=" ">
<polygon fill="none" stroke="#bfbfbf" points="115.5,-67.5 115.5,-97.5 228.5,-97.5 228.5,-67.5 115.5,-67.5"/>
<text text-anchor="start" x="123.5" y="-85.5" font-family="Helvetica,sans-Serif" font-size="10.00">boost/property_tree</text>
<text text-anchor="middle" x="172" y="-74.5" font-family="Helvetica,sans-Serif" font-size="10.00">/json_parser.hpp</text>
</a>
</g>
</g>
<!-- Node4&#45;&gt;Node19 -->
<g id="edge18" class="edge">
<title>Node4&#45;&gt;Node19</title>
<path fill="none" stroke="midnightblue" d="M290.23,-134.48C270.4,-125.93 239.26,-112.5 213.92,-101.57"/>
<polygon fill="midnightblue" stroke="midnightblue" points="215.09,-98.27 204.52,-97.52 212.32,-104.7 215.09,-98.27"/>
</g>
<!-- Node6 -->
<g id="node6" class="node">
<title>Node6</title>
<g id="a_node6"><a xlink:title=" ">
<polygon fill="none" stroke="#bfbfbf" points="116.5,-6 116.5,-25 209.5,-25 209.5,-6 116.5,-6"/>
<text text-anchor="middle" x="163" y="-13" font-family="Helvetica,sans-Serif" font-size="10.00">spdlog/spdlog.h</text>
</a>
</g>
</g>
<!-- Node5&#45;&gt;Node6 -->
<g id="edge5" class="edge">
<title>Node5&#45;&gt;Node6</title>
<path fill="none" stroke="midnightblue" d="M278.34,-72.87C255.68,-61.8 216.17,-42.49 189.8,-29.6"/>
<polygon fill="midnightblue" stroke="midnightblue" points="191.26,-26.41 180.73,-25.17 188.18,-32.7 191.26,-26.41"/>
</g>
<!-- Node7 -->
<g id="node7" class="node">
<title>Node7</title>
<g id="a_node7"><a xlink:title=" ">
<polygon fill="none" stroke="#bfbfbf" points="227.5,-0.5 227.5,-30.5 338.5,-30.5 338.5,-0.5 227.5,-0.5"/>
<text text-anchor="start" x="235.5" y="-18.5" font-family="Helvetica,sans-Serif" font-size="10.00">spdlog/sinks/stdout</text>
<text text-anchor="middle" x="283" y="-7.5" font-family="Helvetica,sans-Serif" font-size="10.00">_color_sinks.h</text>
</a>
</g>
</g>
<!-- Node5&#45;&gt;Node7 -->
<g id="edge6" class="edge">
<title>Node5&#45;&gt;Node7</title>
<path fill="none" stroke="midnightblue" d="M294.25,-72.73C292.61,-64.54 290.08,-51.92 287.84,-40.71"/>
<polygon fill="midnightblue" stroke="midnightblue" points="291.21,-39.71 285.82,-30.59 284.35,-41.08 291.21,-39.71"/>
</g>
<!-- Node8 -->
<g id="node8" class="node">
<title>Node8</title>
<g id="a_node8"><a xlink:title=" ">
<polygon fill="none" stroke="#bfbfbf" points="357,-6 357,-25 415,-25 415,-6 357,-6"/>
<text text-anchor="middle" x="386" y="-13" font-family="Helvetica,sans-Serif" font-size="10.00">memory</text>
</a>
</g>
</g>
<!-- Node5&#45;&gt;Node8 -->
<g id="edge7" class="edge">
<title>Node5&#45;&gt;Node8</title>
<path fill="none" stroke="midnightblue" d="M308.14,-72.73C322.85,-62.11 347.86,-44.05 365.56,-31.26"/>
<polygon fill="midnightblue" stroke="midnightblue" points="368,-33.82 374.05,-25.13 363.9,-28.14 368,-33.82"/>
</g>
<!-- Node9 -->
<g id="node9" class="node">
<title>Node9</title>
<g id="a_node9"><a xlink:title=" ">
<polygon fill="none" stroke="#bfbfbf" points="0,-6 0,-25 98,-25 98,-6 0,-6"/>
<text text-anchor="middle" x="49" y="-13" font-family="Helvetica,sans-Serif" font-size="10.00">spdlog/fmt/fmt.h</text>
</a>
</g>
</g>
<!-- Node5&#45;&gt;Node9 -->
<g id="edge8" class="edge">
<title>Node5&#45;&gt;Node9</title>
<path fill="none" stroke="midnightblue" d="M263.46,-72.94C219.31,-61.32 140.36,-40.54 91.55,-27.7"/>
<polygon fill="midnightblue" stroke="midnightblue" points="92.18,-24.24 81.62,-25.08 90.4,-31.01 92.18,-24.24"/>
</g>
<!-- Node11 -->
<g id="node11" class="node">
<title>Node11</title>
<g id="a_node11"><a xlink:title=" ">
<polygon fill="none" stroke="#bfbfbf" points="1018.5,-6 1018.5,-25 1131.5,-25 1131.5,-6 1018.5,-6"/>
<text text-anchor="middle" x="1075" y="-13" font-family="Helvetica,sans-Serif" font-size="10.00">G4OpticalPhoton.hh</text>
</a>
</g>
</g>
<!-- Node10&#45;&gt;Node11 -->
<g id="edge10" class="edge">
<title>Node10&#45;&gt;Node11</title>
<path fill="none" stroke="midnightblue" d="M718.43,-72.99C731.05,-70.99 744.5,-68.88 757,-67 869.31,-50.06 898.27,-51.38 1010,-31 1016.2,-29.87 1022.7,-28.56 1029.09,-27.21"/>
<polygon fill="midnightblue" stroke="midnightblue" points="1029.97,-30.6 1039,-25.06 1028.49,-23.76 1029.97,-30.6"/>
</g>
<!-- Node12 -->
<g id="node12" class="node">
<title>Node12</title>
<g id="a_node12"><a xlink:title=" ">
<polygon fill="none" stroke="#bfbfbf" points="433,-6 433,-25 549,-25 549,-6 433,-6"/>
<text text-anchor="middle" x="491" y="-13" font-family="Helvetica,sans-Serif" font-size="10.00">G4OpticalSurface.hh</text>
</a>
</g>
</g>
<!-- Node10&#45;&gt;Node12 -->
<g id="edge11" class="edge">
<title>Node10&#45;&gt;Node12</title>
<path fill="none" stroke="midnightblue" d="M642.76,-72.87C612.21,-61.52 558.37,-41.52 523.72,-28.65"/>
<polygon fill="midnightblue" stroke="midnightblue" points="524.65,-25.26 514.06,-25.06 522.21,-31.83 524.65,-25.26"/>
</g>
<!-- Node13 -->
<g id="node13" class="node">
<title>Node13</title>
<g id="a_node13"><a xlink:title=" ">
<polygon fill="none" stroke="#bfbfbf" points="567,-6 567,-25 677,-25 677,-6 567,-6"/>
<text text-anchor="middle" x="622" y="-13" font-family="Helvetica,sans-Serif" font-size="10.00">G4RandomTools.hh</text>
</a>
</g>
</g>
<!-- Node10&#45;&gt;Node13 -->
<g id="edge12" class="edge">
<title>Node10&#45;&gt;Node13</title>
<path fill="none" stroke="midnightblue" d="M660.07,-72.73C653.27,-62.7 641.98,-46.01 633.45,-33.42"/>
<polygon fill="midnightblue" stroke="midnightblue" points="636.34,-31.45 627.84,-25.13 630.55,-35.37 636.34,-31.45"/>
</g>
<!-- Node14 -->
<g id="node14" class="node">
<title>Node14</title>
<g id="a_node14"><a xlink:title=" ">
<polygon fill="none" stroke="#bfbfbf" points="695,-6 695,-25 825,-25 825,-6 695,-6"/>
<text text-anchor="middle" x="760" y="-13" font-family="Helvetica,sans-Serif" font-size="10.00">G4VDiscreteProcess.hh</text>
</a>
</g>
</g>
<!-- Node10&#45;&gt;Node14 -->
<g id="edge13" class="edge">
<title>Node10&#45;&gt;Node14</title>
<path fill="none" stroke="midnightblue" d="M678.68,-72.73C694.18,-62.01 720.64,-43.72 739.16,-30.91"/>
<polygon fill="midnightblue" stroke="midnightblue" points="741.29,-33.69 747.52,-25.13 737.31,-27.94 741.29,-33.69"/>
</g>
<!-- Node15 -->
<g id="node15" class="node">
<title>Node15</title>
<g id="a_node15"><a xlink:title=" ">
<polygon fill="none" stroke="#bfbfbf" points="843.5,-6 843.5,-25 1000.5,-25 1000.5,-6 843.5,-6"/>
<text text-anchor="middle" x="922" y="-13" font-family="Helvetica,sans-Serif" font-size="10.00">G4VUserTrackInformation.hh</text>
</a>
</g>
</g>
<!-- Node10&#45;&gt;Node15 -->
<g id="edge14" class="edge">
<title>Node10&#45;&gt;Node15</title>
<path fill="none" stroke="midnightblue" d="M699.73,-72.94C745.59,-61.29 827.66,-40.45 878.22,-27.62"/>
<polygon fill="midnightblue" stroke="midnightblue" points="879.36,-30.94 888.19,-25.08 877.64,-24.15 879.36,-30.94"/>
</g>
<!-- Node16 -->
<g id="node16" class="node">
<title>Node16</title>
<g id="a_node16"><a xlink:title=" ">
<polygon fill="none" stroke="#bfbfbf" points="1150,-6 1150,-25 1240,-25 1240,-6 1150,-6"/>
<text text-anchor="middle" x="1195" y="-13" font-family="Helvetica,sans-Serif" font-size="10.00">G4AutoLock.hh</text>
</a>
</g>
</g>
<!-- Node10&#45;&gt;Node16 -->
<g id="edge15" class="edge">
<title>Node10&#45;&gt;Node16</title>
<path fill="none" stroke="midnightblue" d="M715.98,-72.94C729.29,-70.83 743.67,-68.69 757,-67 927.06,-45.5 972.29,-61.33 1141,-31 1146.18,-30.07 1151.59,-28.88 1156.9,-27.59"/>
<polygon fill="midnightblue" stroke="midnightblue" points="1158.09,-30.9 1166.9,-25.01 1156.34,-24.12 1158.09,-30.9"/>
</g>
<!-- Node17 -->
<g id="node17" class="node">
<title>Node17</title>
<g id="a_node17"><a xlink:title=" ">
<polygon fill="none" stroke="#bfbfbf" points="1258,-6 1258,-25 1352,-25 1352,-6 1258,-6"/>
<text text-anchor="middle" x="1305" y="-13" font-family="Helvetica,sans-Serif" font-size="10.00">G4Threading.hh</text>
</a>
</g>
</g>
<!-- Node10&#45;&gt;Node17 -->
<g id="edge16" class="edge">
<title>Node10&#45;&gt;Node17</title>
<path fill="none" stroke="midnightblue" d="M714.54,-72.98C728.24,-70.79 743.17,-68.6 757,-67 974.79,-41.73 1032.66,-66.62 1249,-31 1254.57,-30.08 1260.4,-28.87 1266.1,-27.53"/>
<polygon fill="midnightblue" stroke="midnightblue" points="1267.29,-30.84 1276.15,-25.03 1265.6,-24.05 1267.29,-30.84"/>
</g>
<!-- Node24&#45;&gt;Node16 -->
<g id="edge32" class="edge">
<title>Node24&#45;&gt;Node16</title>
<path fill="none" stroke="midnightblue" d="M1196.18,-190.49C1214.99,-183.88 1236.74,-172.6 1248,-154 1272.63,-113.32 1233.55,-59.22 1210.29,-32.64"/>
<polygon fill="midnightblue" stroke="midnightblue" points="1212.71,-30.09 1203.4,-25.03 1207.52,-34.79 1212.71,-30.09"/>
</g>
<!-- Node24&#45;&gt;Node17 -->
<g id="edge33" class="edge">
<title>Node24&#45;&gt;Node17</title>
<path fill="none" stroke="midnightblue" d="M1201.39,-190.49C1222.96,-183.92 1248.58,-172.69 1265,-154 1295,-119.86 1302.55,-64.36 1304.42,-35.42"/>
<polygon fill="midnightblue" stroke="midnightblue" points="1307.93,-35.25 1304.91,-25.09 1300.94,-34.91 1307.93,-35.25"/>
</g>
<!-- Node25 -->
<g id="node25" class="node">
<title>Node25</title>
<g id="a_node25"><a xlink:href="_o_m_sim_p_m_t_response_8hh.html" target="_top" xlink:title="Simulation of PMT response.">
<polygon fill="none" stroke="black" points="909.5,-134.5 909.5,-153.5 1044.5,-153.5 1044.5,-134.5 909.5,-134.5"/>
<text text-anchor="middle" x="977" y="-141.5" font-family="Helvetica,sans-Serif" font-size="10.00">OMSimPMTResponse.hh</text>
</a>
</g>
</g>
<!-- Node24&#45;&gt;Node25 -->
<g id="edge24" class="edge">
<title>Node24&#45;&gt;Node25</title>
<path fill="none" stroke="midnightblue" d="M1132.69,-190.44C1101.16,-181.24 1050.87,-166.56 1016.01,-156.39"/>
<polygon fill="midnightblue" stroke="midnightblue" points="1016.76,-152.96 1006.18,-153.52 1014.8,-159.68 1016.76,-152.96"/>
</g>
<!-- Node30 -->
<g id="node30" class="node">
<title>Node30</title>
<g id="a_node30"><a xlink:title=" ">
<polygon fill="none" stroke="#bfbfbf" points="1062.5,-134.5 1062.5,-153.5 1165.5,-153.5 1165.5,-134.5 1062.5,-134.5"/>
<text text-anchor="middle" x="1114" y="-141.5" font-family="Helvetica,sans-Serif" font-size="10.00">G4ThreeVector.hh</text>
</a>
</g>
</g>
<!-- Node24&#45;&gt;Node30 -->
<g id="edge30" class="edge">
<title>Node24&#45;&gt;Node30</title>
<path fill="none" stroke="midnightblue" d="M1154.07,-190.08C1147.15,-182.3 1136.93,-170.8 1128.55,-161.37"/>
<polygon fill="midnightblue" stroke="midnightblue" points="1131.04,-158.9 1121.78,-153.75 1125.81,-163.55 1131.04,-158.9"/>
</g>
<!-- Node31 -->
<g id="node31" class="node">
<title>Node31</title>
<g id="a_node31"><a xlink:title=" ">
<polygon fill="none" stroke="#bfbfbf" points="1183.5,-134.5 1183.5,-153.5 1238.5,-153.5 1238.5,-134.5 1183.5,-134.5"/>
<text text-anchor="middle" x="1211" y="-141.5" font-family="Helvetica,sans-Serif" font-size="10.00">fstream</text>
</a>
</g>
</g>
<!-- Node24&#45;&gt;Node31 -->
<g id="edge31" class="edge">
<title>Node24&#45;&gt;Node31</title>
<path fill="none" stroke="midnightblue" d="M1170.09,-190.08C1177.16,-182.3 1187.59,-170.8 1196.15,-161.37"/>
<polygon fill="midnightblue" stroke="midnightblue" points="1198.93,-163.51 1203.06,-153.75 1193.75,-158.8 1198.93,-163.51"/>
</g>
<!-- Node25&#45;&gt;Node18 -->
<g id="edge25" class="edge">
<title>Node25&#45;&gt;Node18</title>
<path fill="none" stroke="midnightblue" d="M955.37,-134.48C929.58,-124.31 886.29,-107.26 856.96,-95.7"/>
<polygon fill="midnightblue" stroke="midnightblue" points="858.18,-92.42 847.59,-92.01 855.62,-98.93 858.18,-92.42"/>
</g>
<!-- Node26 -->
<g id="node26" class="node">
<title>Node26</title>
<g id="a_node26"><a xlink:title=" ">
<polygon fill="none" stroke="#bfbfbf" points="903.5,-73 903.5,-92 976.5,-92 976.5,-73 903.5,-73"/>
<text text-anchor="middle" x="940" y="-80" font-family="Helvetica,sans-Serif" font-size="10.00">G4Types.hh</text>
</a>
</g>
</g>
<!-- Node25&#45;&gt;Node26 -->
<g id="edge26" class="edge">
<title>Node25&#45;&gt;Node26</title>
<path fill="none" stroke="midnightblue" d="M971.7,-134.48C966.26,-125.73 957.64,-111.87 950.76,-100.81"/>
<polygon fill="midnightblue" stroke="midnightblue" points="953.54,-98.65 945.29,-92.01 947.6,-102.35 953.54,-98.65"/>
</g>
<!-- Node27 -->
<g id="node27" class="node">
<title>Node27</title>
<g id="a_node27"><a xlink:title=" ">
<polygon fill="none" stroke="#bfbfbf" points="995,-73 995,-92 1033,-92 1033,-73 995,-73"/>
<text text-anchor="middle" x="1014" y="-80" font-family="Helvetica,sans-Serif" font-size="10.00">map</text>
</a>
</g>
</g>
<!-- Node25&#45;&gt;Node27 -->
<g id="edge27" class="edge">
<title>Node25&#45;&gt;Node27</title>
<path fill="none" stroke="midnightblue" d="M982.3,-134.48C987.74,-125.73 996.36,-111.87 1003.24,-100.81"/>
<polygon fill="midnightblue" stroke="midnightblue" points="1006.4,-102.35 1008.71,-92.01 1000.46,-98.65 1006.4,-102.35"/>
</g>
<!-- Node28 -->
<g id="node28" class="node">
<title>Node28</title>
<g id="a_node28"><a xlink:title=" ">
<polygon fill="none" stroke="#bfbfbf" points="1051.5,-73 1051.5,-92 1112.5,-92 1112.5,-73 1051.5,-73"/>
<text text-anchor="middle" x="1082" y="-80" font-family="Helvetica,sans-Serif" font-size="10.00">TGraph.h</text>
</a>
</g>
</g>
<!-- Node25&#45;&gt;Node28 -->
<g id="edge28" class="edge">
<title>Node25&#45;&gt;Node28</title>
<path fill="none" stroke="midnightblue" d="M992.04,-134.48C1009.28,-124.71 1037.74,-108.58 1058.03,-97.08"/>
<polygon fill="midnightblue" stroke="midnightblue" points="1060.01,-99.98 1066.98,-92.01 1056.56,-93.89 1060.01,-99.98"/>
</g>
<!-- Node29 -->
<g id="node29" class="node">
<title>Node29</title>
<g id="a_node29"><a xlink:title=" ">
<polygon fill="none" stroke="#bfbfbf" points="1130.5,-73 1130.5,-92 1183.5,-92 1183.5,-73 1130.5,-73"/>
<text text-anchor="middle" x="1157" y="-80" font-family="Helvetica,sans-Serif" font-size="10.00">TH2D.h</text>
</a>
</g>
</g>
<!-- Node25&#45;&gt;Node29 -->
<g id="edge29" class="edge">
<title>Node25&#45;&gt;Node29</title>
<path fill="none" stroke="midnightblue" d="M1007.26,-134.49C1036.78,-125.98 1082.83,-112.16 1122,-98 1123.86,-97.33 1125.76,-96.62 1127.67,-95.88"/>
<polygon fill="midnightblue" stroke="midnightblue" points="1129.15,-99.06 1137.13,-92.1 1126.55,-92.56 1129.15,-99.06"/>
</g>
<!-- Node32&#45;&gt;Node3 -->
<g id="edge35" class="edge">
<title>Node32&#45;&gt;Node3</title>
<path fill="none" stroke="midnightblue" d="M790.23,-246.44C765.11,-237.4 725.29,-223.06 697.1,-212.92"/>
<polygon fill="midnightblue" stroke="midnightblue" points="698.25,-209.61 687.66,-209.52 695.88,-216.2 698.25,-209.61"/>
</g>
<!-- Node32&#45;&gt;Node25 -->
<g id="edge37" class="edge">
<title>Node32&#45;&gt;Node25</title>
<path fill="none" stroke="midnightblue" d="M885.56,-246.46C911,-240.12 938.01,-229.11 957,-210 969.08,-197.84 973.89,-178.57 975.79,-164.16"/>
<polygon fill="midnightblue" stroke="midnightblue" points="979.31,-164.16 976.78,-153.88 972.34,-163.5 979.31,-164.16"/>
</g>
<!-- Node32&#45;&gt;Node32 -->
<g id="edge36" class="edge">
<title>Node32&#45;&gt;Node32</title>
<path fill="none" stroke="midnightblue" d="M853.45,-265.53C880.26,-268.31 906.5,-265.13 906.5,-256 906.5,-248.01 886.41,-244.58 863.43,-245.71"/>
<polygon fill="midnightblue" stroke="midnightblue" points="863.15,-242.22 853.45,-246.47 863.69,-249.2 863.15,-242.22"/>
</g>
<!-- Node33 -->
<g id="node33" class="node">
<title>Node33</title>
<g id="a_node33"><a xlink:title=" ">
<polygon fill="none" stroke="#bfbfbf" points="765,-190.5 765,-209.5 863,-209.5 863,-190.5 765,-190.5"/>
<text text-anchor="middle" x="814" y="-197.5" font-family="Helvetica,sans-Serif" font-size="10.00">G4UnionSolid.hh</text>
</a>
</g>
</g>
<!-- Node32&#45;&gt;Node33 -->
<g id="edge38" class="edge">
<title>Node32&#45;&gt;Node33</title>
<path fill="none" stroke="midnightblue" d="M814,-246.08C814,-239.01 814,-228.86 814,-219.99"/>
<polygon fill="midnightblue" stroke="midnightblue" points="817.5,-219.75 814,-209.75 810.5,-219.75 817.5,-219.75"/>
</g>
<!-- Node34 -->
<g id="node34" class="node">
<title>Node34</title>
<g id="a_node34"><a xlink:title=" ">
<polygon fill="none" stroke="#bfbfbf" points="881.5,-190.5 881.5,-209.5 948.5,-209.5 948.5,-190.5 881.5,-190.5"/>
<text text-anchor="middle" x="915" y="-197.5" font-family="Helvetica,sans-Serif" font-size="10.00">G4Tubs.hh</text>
</a>
</g>
</g>
<!-- Node32&#45;&gt;Node34 -->
<g id="edge39" class="edge">
<title>Node32&#45;&gt;Node34</title>
<path fill="none" stroke="midnightblue" d="M830.23,-246.32C846.35,-237.7 871.3,-224.36 889.96,-214.39"/>
<polygon fill="midnightblue" stroke="midnightblue" points="891.64,-217.46 898.81,-209.65 888.34,-211.28 891.64,-217.46"/>
</g>
<!-- Node35&#45;&gt;Node2 -->
<g id="edge42" class="edge">
<title>Node35&#45;&gt;Node2</title>
<path fill="none" stroke="midnightblue" d="M921.96,-358.44C895.38,-349.36 853.19,-334.94 823.48,-324.78"/>
<polygon fill="midnightblue" stroke="midnightblue" points="824.51,-321.44 813.92,-321.52 822.25,-328.06 824.51,-321.44"/>
</g>
<!-- Node35&#45;&gt;Node36 -->
<g id="edge43" class="edge">
<title>Node35&#45;&gt;Node36</title>
<path fill="none" stroke="midnightblue" d="M971.72,-358.44C997.85,-349.4 1039.26,-335.06 1068.58,-324.92"/>
<polygon fill="midnightblue" stroke="midnightblue" points="1070.09,-328.1 1078.4,-321.52 1067.8,-321.48 1070.09,-328.1"/>
</g>
<!-- Node37 -->
<g id="node37" class="node">
<title>Node37</title>
<g id="a_node37"><a xlink:title=" ">
<polygon fill="none" stroke="#bfbfbf" points="876,-302.5 876,-321.5 1054,-321.5 1054,-302.5 876,-302.5"/>
<text text-anchor="middle" x="965" y="-309.5" font-family="Helvetica,sans-Serif" font-size="10.00">G4VUserDetectorConstruction.hh</text>
</a>
</g>
</g>
<!-- Node35&#45;&gt;Node37 -->
<g id="edge44" class="edge">
<title>Node35&#45;&gt;Node37</title>
<path fill="none" stroke="midnightblue" d="M949.97,-358.08C952.38,-350.85 955.86,-340.41 958.87,-331.4"/>
<polygon fill="midnightblue" stroke="midnightblue" points="962.24,-332.34 962.08,-321.75 955.6,-330.13 962.24,-332.34"/>
</g>
</g>
</svg>
