<?xml version="1.0" encoding="UTF-8" standalone="no"?>
<!DOCTYPE svg PUBLIC "-//W3C//DTD SVG 1.1//EN"
 "http://www.w3.org/Graphics/SVG/1.1/DTD/svg11.dtd">
<!-- Generated by graphviz version 2.43.0 (0)
 -->
<!-- Title: OMSimSNAnalysis.cc Pages: 1 -->
<svg width="1232pt" height="319pt"
 viewBox="0.00 0.00 1231.94 319.00" xmlns="http://www.w3.org/2000/svg" xmlns:xlink="http://www.w3.org/1999/xlink">
<g id="graph0" class="graph" transform="scale(1 1) rotate(0) translate(4 315)">
<title>OMSimSNAnalysis.cc</title>
<polygon fill="white" stroke="transparent" points="-4,4 -4,-315 1227.94,-315 1227.94,4 -4,4"/>
<!-- Node1 -->
<g id="node1" class="node">
<title>Node1</title>
<g id="a_node1"><a xlink:title="Analyze data and write output files.">
<polygon fill="#bfbfbf" stroke="black" points="619.94,-291.5 619.94,-310.5 739.94,-310.5 739.94,-291.5 619.94,-291.5"/>
<text text-anchor="middle" x="679.94" y="-298.5" font-family="Helvetica,sans-Serif" font-size="10.00">OMSimSNAnalysis.cc</text>
</a>
</g>
</g>
<!-- Node2 -->
<g id="node2" class="node">
<title>Node2</title>
<g id="a_node2"><a xlink:href="_o_m_sim_s_n_analysis_8hh.html" target="_top" xlink:title=" ">
<polygon fill="white" stroke="black" points="618.94,-235.5 618.94,-254.5 740.94,-254.5 740.94,-235.5 618.94,-235.5"/>
<text text-anchor="middle" x="679.94" y="-242.5" font-family="Helvetica,sans-Serif" font-size="10.00">OMSimSNAnalysis.hh</text>
</a>
</g>
</g>
<!-- Node1&#45;&gt;Node2 -->
<g id="edge1" class="edge">
<title>Node1&#45;&gt;Node2</title>
<path fill="none" stroke="midnightblue" d="M679.94,-291.08C679.94,-284.01 679.94,-273.86 679.94,-264.99"/>
<polygon fill="midnightblue" stroke="midnightblue" points="683.44,-264.75 679.94,-254.75 676.44,-264.75 683.44,-264.75"/>
</g>
<!-- Node6 -->
<g id="node6" class="node">
<title>Node6</title>
<g id="a_node6"><a xlink:href="_o_m_sim_hit_manager_8hh.html" target="_top" xlink:title="Defines structures and classes related to optical module photon hit management.">
<polygon fill="white" stroke="black" points="481.44,-179.5 481.44,-198.5 604.44,-198.5 604.44,-179.5 481.44,-179.5"/>
<text text-anchor="middle" x="542.94" y="-186.5" font-family="Helvetica,sans-Serif" font-size="10.00">OMSimHitManager.hh</text>
</a>
</g>
</g>
<!-- Node1&#45;&gt;Node6 -->
<g id="edge34" class="edge">
<title>Node1&#45;&gt;Node6</title>
<path fill="none" stroke="midnightblue" d="M664.6,-291.34C650.01,-282.83 627.71,-269.1 609.94,-255 590.81,-239.82 570.98,-219.98 557.91,-206.23"/>
<polygon fill="midnightblue" stroke="midnightblue" points="560.1,-203.46 550.71,-198.56 555,-208.25 560.1,-203.46"/>
</g>
<!-- Node8 -->
<g id="node8" class="node">
<title>Node8</title>
<g id="a_node8"><a xlink:title=" ">
<polygon fill="white" stroke="#bfbfbf" points="117.44,-0.5 117.44,-19.5 236.44,-19.5 236.44,-0.5 117.44,-0.5"/>
<text text-anchor="middle" x="176.94" y="-7.5" font-family="Helvetica,sans-Serif" font-size="10.00">G4SystemOfUnits.hh</text>
</a>
</g>
</g>
<!-- Node1&#45;&gt;Node8 -->
<g id="edge23" class="edge">
<title>Node1&#45;&gt;Node8</title>
<path fill="none" stroke="midnightblue" d="M619.68,-296.55C453.51,-286.23 0.94,-252.4 0.94,-190 0.94,-190 0.94,-190 0.94,-126.5 0.94,-94.05 -2.82,-79.13 19.94,-56 42.72,-32.85 76.55,-21.41 106.98,-15.83"/>
<polygon fill="midnightblue" stroke="midnightblue" points="107.85,-19.24 117.15,-14.16 106.71,-12.33 107.85,-19.24"/>
</g>
<!-- Node18 -->
<g id="node18" class="node">
<title>Node18</title>
<g id="a_node18"><a xlink:title=" ">
<polygon fill="white" stroke="#bfbfbf" points="1047.44,-235.5 1047.44,-254.5 1106.44,-254.5 1106.44,-235.5 1047.44,-235.5"/>
<text text-anchor="middle" x="1076.94" y="-242.5" font-family="Helvetica,sans-Serif" font-size="10.00">G4ios.hh</text>
</a>
</g>
</g>
<!-- Node1&#45;&gt;Node18 -->
<g id="edge24" class="edge">
<title>Node1&#45;&gt;Node18</title>
<path fill="none" stroke="midnightblue" d="M740.08,-294.33C809.35,-287.37 926.73,-274.3 1037.21,-254.96"/>
<polygon fill="midnightblue" stroke="midnightblue" points="1037.96,-258.38 1047.19,-253.19 1036.74,-251.49 1037.96,-258.38"/>
</g>
<!-- Node19 -->
<g id="node19" class="node">
<title>Node19</title>
<g id="a_node19"><a xlink:href="_o_m_sim_command_args_table_8hh.html" target="_top" xlink:title="Definition of the OMSimCommandArgsTable singleton class, which controls user args.">
<polygon fill="white" stroke="black" points="864.94,-235.5 864.94,-254.5 1028.94,-254.5 1028.94,-235.5 864.94,-235.5"/>
<text text-anchor="middle" x="946.94" y="-242.5" font-family="Helvetica,sans-Serif" font-size="10.00">OMSimCommandArgsTable.hh</text>
</a>
</g>
</g>
<!-- Node1&#45;&gt;Node19 -->
<g id="edge25" class="edge">
<title>Node1&#45;&gt;Node19</title>
<path fill="none" stroke="midnightblue" d="M722.25,-291.44C769.02,-281.98 844.4,-266.74 894.79,-256.55"/>
<polygon fill="midnightblue" stroke="midnightblue" points="895.72,-259.93 904.83,-254.52 894.34,-253.07 895.72,-259.93"/>
</g>
<!-- Node3 -->
<g id="node3" class="node">
<title>Node3</title>
<g id="a_node3"><a xlink:title=" ">
<polygon fill="white" stroke="#bfbfbf" points="648.44,-0.5 648.44,-19.5 721.44,-19.5 721.44,-0.5 648.44,-0.5"/>
<text text-anchor="middle" x="684.94" y="-7.5" font-family="Helvetica,sans-Serif" font-size="10.00">G4Types.hh</text>
</a>
</g>
</g>
<!-- Node2&#45;&gt;Node3 -->
<g id="edge2" class="edge">
<title>Node2&#45;&gt;Node3</title>
<path fill="none" stroke="midnightblue" d="M680.12,-235.43C680.85,-201.75 683.5,-77.99 684.53,-30.1"/>
<polygon fill="midnightblue" stroke="midnightblue" points="688.03,-29.97 684.75,-19.9 681.04,-29.82 688.03,-29.97"/>
</g>
<!-- Node4 -->
<g id="node4" class="node">
<title>Node4</title>
<g id="a_node4"><a xlink:title=" ">
<polygon fill="white" stroke="#bfbfbf" points="745.94,-179.5 745.94,-198.5 819.94,-198.5 819.94,-179.5 745.94,-179.5"/>
<text text-anchor="middle" x="782.94" y="-186.5" font-family="Helvetica,sans-Serif" font-size="10.00">G4String.hh</text>
</a>
</g>
</g>
<!-- Node2&#45;&gt;Node4 -->
<g id="edge3" class="edge">
<title>Node2&#45;&gt;Node4</title>
<path fill="none" stroke="midnightblue" d="M696.49,-235.32C712.93,-226.7 738.38,-213.36 757.41,-203.39"/>
<polygon fill="midnightblue" stroke="midnightblue" points="759.2,-206.4 766.43,-198.65 755.95,-200.2 759.2,-206.4"/>
</g>
<!-- Node5 -->
<g id="node5" class="node">
<title>Node5</title>
<g id="a_node5"><a xlink:title=" ">
<polygon fill="white" stroke="#bfbfbf" points="29.44,-56.5 29.44,-75.5 132.44,-75.5 132.44,-56.5 29.44,-56.5"/>
<text text-anchor="middle" x="80.94" y="-63.5" font-family="Helvetica,sans-Serif" font-size="10.00">G4ThreeVector.hh</text>
</a>
</g>
</g>
<!-- Node2&#45;&gt;Node5 -->
<g id="edge4" class="edge">
<title>Node2&#45;&gt;Node5</title>
<path fill="none" stroke="midnightblue" d="M618.72,-237C527.62,-225.22 352.06,-197.21 211.94,-143 170.23,-126.86 126.11,-98.61 101.2,-81.47"/>
<polygon fill="midnightblue" stroke="midnightblue" points="103.13,-78.56 92.93,-75.71 99.13,-84.3 103.13,-78.56"/>
</g>
<!-- Node2&#45;&gt;Node6 -->
<g id="edge5" class="edge">
<title>Node2&#45;&gt;Node6</title>
<path fill="none" stroke="midnightblue" d="M658.23,-235.44C635.59,-226.52 599.87,-212.44 574.19,-202.32"/>
<polygon fill="midnightblue" stroke="midnightblue" points="575.13,-198.93 564.55,-198.52 572.57,-205.44 575.13,-198.93"/>
</g>
<!-- Node15 -->
<g id="node15" class="node">
<title>Node15</title>
<g id="a_node15"><a xlink:title=" ">
<polygon fill="white" stroke="#bfbfbf" points="621.44,-56.5 621.44,-75.5 668.44,-75.5 668.44,-56.5 621.44,-56.5"/>
<text text-anchor="middle" x="644.94" y="-63.5" font-family="Helvetica,sans-Serif" font-size="10.00">vector</text>
</a>
</g>
</g>
<!-- Node2&#45;&gt;Node15 -->
<g id="edge20" class="edge">
<title>Node2&#45;&gt;Node15</title>
<path fill="none" stroke="midnightblue" d="M676.88,-235.47C673.76,-226.5 668.96,-211.91 665.94,-199 656.64,-159.22 650.2,-111.73 647.09,-85.95"/>
<polygon fill="midnightblue" stroke="midnightblue" points="650.53,-85.26 645.89,-75.73 643.58,-86.07 650.53,-85.26"/>
</g>
<!-- Node16 -->
<g id="node16" class="node">
<title>Node16</title>
<g id="a_node16"><a xlink:title=" ">
<polygon fill="white" stroke="#bfbfbf" points="708.44,-118 708.44,-137 763.44,-137 763.44,-118 708.44,-118"/>
<text text-anchor="middle" x="735.94" y="-125" font-family="Helvetica,sans-Serif" font-size="10.00">fstream</text>
</a>
</g>
</g>
<!-- Node2&#45;&gt;Node16 -->
<g id="edge21" class="edge">
<title>Node2&#45;&gt;Node16</title>
<path fill="none" stroke="midnightblue" d="M684.15,-235.32C693.27,-216.51 715.02,-171.65 727.24,-146.46"/>
<polygon fill="midnightblue" stroke="midnightblue" points="730.47,-147.81 731.68,-137.28 724.17,-144.75 730.47,-147.81"/>
</g>
<!-- Node17 -->
<g id="node17" class="node">
<title>Node17</title>
<g id="a_node17"><a xlink:title=" ">
<polygon fill="white" stroke="#bfbfbf" points="838.44,-179.5 838.44,-198.5 879.44,-198.5 879.44,-179.5 838.44,-179.5"/>
<text text-anchor="middle" x="858.94" y="-186.5" font-family="Helvetica,sans-Serif" font-size="10.00">tuple</text>
</a>
</g>
</g>
<!-- Node2&#45;&gt;Node17 -->
<g id="edge22" class="edge">
<title>Node2&#45;&gt;Node17</title>
<path fill="none" stroke="midnightblue" d="M708.3,-235.44C741.09,-225.55 794.85,-209.34 828.49,-199.19"/>
<polygon fill="midnightblue" stroke="midnightblue" points="829.68,-202.48 838.24,-196.24 827.66,-195.78 829.68,-202.48"/>
</g>
<!-- Node6&#45;&gt;Node5 -->
<g id="edge18" class="edge">
<title>Node6&#45;&gt;Node5</title>
<path fill="none" stroke="midnightblue" d="M493.45,-179.45C448.43,-171.32 380.32,-158.1 321.94,-143 246.96,-123.6 160.78,-94.81 114.51,-78.81"/>
<polygon fill="midnightblue" stroke="midnightblue" points="115.58,-75.48 104.99,-75.51 113.28,-82.09 115.58,-75.48"/>
</g>
<!-- Node7 -->
<g id="node7" class="node">
<title>Node7</title>
<g id="a_node7"><a xlink:href="_o_m_sim_p_m_t_response_8hh.html" target="_top" xlink:title="Provides simulation for PMT response. This class is responsible for transforming hits on photocathode...">
<polygon fill="white" stroke="black" points="468.44,-56.5 468.44,-75.5 603.44,-75.5 603.44,-56.5 468.44,-56.5"/>
<text text-anchor="middle" x="535.94" y="-63.5" font-family="Helvetica,sans-Serif" font-size="10.00">OMSimPMTResponse.hh</text>
</a>
</g>
</g>
<!-- Node6&#45;&gt;Node7 -->
<g id="edge6" class="edge">
<title>Node6&#45;&gt;Node7</title>
<path fill="none" stroke="midnightblue" d="M542.44,-179.3C541.31,-159.85 538.57,-112.49 537.03,-85.9"/>
<polygon fill="midnightblue" stroke="midnightblue" points="540.51,-85.4 536.44,-75.62 533.52,-85.81 540.51,-85.4"/>
</g>
<!-- Node12 -->
<g id="node12" class="node">
<title>Node12</title>
<g id="a_node12"><a xlink:href="_o_m_sim_sensitive_detector_8hh.html" target="_top" xlink:title=" ">
<polygon fill="white" stroke="black" points="331.44,-118 331.44,-137 484.44,-137 484.44,-118 331.44,-118"/>
<text text-anchor="middle" x="407.94" y="-125" font-family="Helvetica,sans-Serif" font-size="10.00">OMSimSensitiveDetector.hh</text>
</a>
</g>
</g>
<!-- Node6&#45;&gt;Node12 -->
<g id="edge12" class="edge">
<title>Node6&#45;&gt;Node12</title>
<path fill="none" stroke="midnightblue" d="M523.6,-179.48C500.84,-169.45 462.85,-152.7 436.65,-141.15"/>
<polygon fill="midnightblue" stroke="midnightblue" points="437.81,-137.84 427.25,-137.01 434.99,-144.24 437.81,-137.84"/>
</g>
<!-- Node6&#45;&gt;Node16 -->
<g id="edge19" class="edge">
<title>Node6&#45;&gt;Node16</title>
<path fill="none" stroke="midnightblue" d="M570.59,-179.48C604.13,-169.14 660.81,-151.66 698.31,-140.1"/>
<polygon fill="midnightblue" stroke="midnightblue" points="699.81,-143.3 708.34,-137.01 697.75,-136.61 699.81,-143.3"/>
</g>
<!-- Node7&#45;&gt;Node3 -->
<g id="edge8" class="edge">
<title>Node7&#45;&gt;Node3</title>
<path fill="none" stroke="midnightblue" d="M559.55,-56.44C584.4,-47.44 623.72,-33.19 651.69,-23.05"/>
<polygon fill="midnightblue" stroke="midnightblue" points="653.23,-26.21 661.44,-19.52 650.85,-19.63 653.23,-26.21"/>
</g>
<!-- Node7&#45;&gt;Node8 -->
<g id="edge7" class="edge">
<title>Node7&#45;&gt;Node8</title>
<path fill="none" stroke="midnightblue" d="M479.06,-56.44C415.12,-46.83 311.42,-31.23 243.69,-21.04"/>
<polygon fill="midnightblue" stroke="midnightblue" points="243.97,-17.54 233.56,-19.52 242.93,-24.47 243.97,-17.54"/>
</g>
<!-- Node9 -->
<g id="node9" class="node">
<title>Node9</title>
<g id="a_node9"><a xlink:title=" ">
<polygon fill="white" stroke="#bfbfbf" points="580.94,-0.5 580.94,-19.5 618.94,-19.5 618.94,-0.5 580.94,-0.5"/>
<text text-anchor="middle" x="599.94" y="-7.5" font-family="Helvetica,sans-Serif" font-size="10.00">map</text>
</a>
</g>
</g>
<!-- Node7&#45;&gt;Node9 -->
<g id="edge9" class="edge">
<title>Node7&#45;&gt;Node9</title>
<path fill="none" stroke="midnightblue" d="M546.22,-56.32C555.78,-48.26 570.22,-36.08 581.73,-26.37"/>
<polygon fill="midnightblue" stroke="midnightblue" points="584.09,-28.96 589.47,-19.83 579.57,-23.61 584.09,-28.96"/>
</g>
<!-- Node10 -->
<g id="node10" class="node">
<title>Node10</title>
<g id="a_node10"><a xlink:title=" ">
<polygon fill="white" stroke="#bfbfbf" points="430.44,-0.5 430.44,-19.5 491.44,-19.5 491.44,-0.5 430.44,-0.5"/>
<text text-anchor="middle" x="460.94" y="-7.5" font-family="Helvetica,sans-Serif" font-size="10.00">TGraph.h</text>
</a>
</g>
</g>
<!-- Node7&#45;&gt;Node10 -->
<g id="edge10" class="edge">
<title>Node7&#45;&gt;Node10</title>
<path fill="none" stroke="midnightblue" d="M523.89,-56.32C512.48,-48.11 495.11,-35.6 481.51,-25.81"/>
<polygon fill="midnightblue" stroke="midnightblue" points="483.37,-22.84 473.21,-19.83 479.28,-28.52 483.37,-22.84"/>
</g>
<!-- Node11 -->
<g id="node11" class="node">
<title>Node11</title>
<g id="a_node11"><a xlink:title=" ">
<polygon fill="white" stroke="#bfbfbf" points="509.44,-0.5 509.44,-19.5 562.44,-19.5 562.44,-0.5 509.44,-0.5"/>
<text text-anchor="middle" x="535.94" y="-7.5" font-family="Helvetica,sans-Serif" font-size="10.00">TH2D.h</text>
</a>
</g>
</g>
<!-- Node7&#45;&gt;Node11 -->
<g id="edge11" class="edge">
<title>Node7&#45;&gt;Node11</title>
<path fill="none" stroke="midnightblue" d="M535.94,-56.08C535.94,-49.01 535.94,-38.86 535.94,-29.99"/>
<polygon fill="midnightblue" stroke="midnightblue" points="539.44,-29.75 535.94,-19.75 532.44,-29.75 539.44,-29.75"/>
</g>
<!-- Node12&#45;&gt;Node5 -->
<g id="edge14" class="edge">
<title>Node12&#45;&gt;Node5</title>
<path fill="none" stroke="midnightblue" d="M361.09,-117.98C302.21,-107.26 201.2,-88.88 137.91,-77.37"/>
<polygon fill="midnightblue" stroke="midnightblue" points="138.17,-73.86 127.71,-75.51 136.92,-80.74 138.17,-73.86"/>
</g>
<!-- Node12&#45;&gt;Node7 -->
<g id="edge15" class="edge">
<title>Node12&#45;&gt;Node7</title>
<path fill="none" stroke="midnightblue" d="M426.28,-117.98C447.76,-107.99 483.56,-91.35 508.39,-79.81"/>
<polygon fill="midnightblue" stroke="midnightblue" points="510.04,-82.9 517.64,-75.51 507.09,-76.55 510.04,-82.9"/>
</g>
<!-- Node13 -->
<g id="node13" class="node">
<title>Node13</title>
<g id="a_node13"><a xlink:title=" ">
<polygon fill="white" stroke="#bfbfbf" points="311.94,-56.5 311.94,-75.5 449.94,-75.5 449.94,-56.5 311.94,-56.5"/>
<text text-anchor="middle" x="380.94" y="-63.5" font-family="Helvetica,sans-Serif" font-size="10.00">G4VSensitiveDetector.hh</text>
</a>
</g>
</g>
<!-- Node12&#45;&gt;Node13 -->
<g id="edge13" class="edge">
<title>Node12&#45;&gt;Node13</title>
<path fill="none" stroke="midnightblue" d="M404.07,-117.98C400.14,-109.32 393.94,-95.65 388.95,-84.65"/>
<polygon fill="midnightblue" stroke="midnightblue" points="392.12,-83.17 384.8,-75.51 385.75,-86.06 392.12,-83.17"/>
</g>
<!-- Node14 -->
<g id="node14" class="node">
<title>Node14</title>
<g id="a_node14"><a xlink:title=" ">
<polygon fill="white" stroke="#bfbfbf" points="150.44,-56.5 150.44,-75.5 293.44,-75.5 293.44,-56.5 150.44,-56.5"/>
<text text-anchor="middle" x="221.94" y="-63.5" font-family="Helvetica,sans-Serif" font-size="10.00">G4OpBoundaryProcess.hh</text>
</a>
</g>
</g>
<!-- Node12&#45;&gt;Node14 -->
<g id="edge16" class="edge">
<title>Node12&#45;&gt;Node14</title>
<path fill="none" stroke="midnightblue" d="M381.29,-117.98C348.97,-107.64 294.34,-90.16 258.21,-78.6"/>
<polygon fill="midnightblue" stroke="midnightblue" points="259.13,-75.22 248.54,-75.51 257,-81.89 259.13,-75.22"/>
</g>
<!-- Node12&#45;&gt;Node15 -->
<g id="edge17" class="edge">
<title>Node12&#45;&gt;Node15</title>
<path fill="none" stroke="midnightblue" d="M443.38,-117.99C482.14,-108.64 546.32,-92.96 611.18,-76.15"/>
<polygon fill="midnightblue" stroke="midnightblue" points="612.37,-79.46 621.17,-73.56 610.61,-72.68 612.37,-79.46"/>
</g>
<!-- Node19&#45;&gt;Node16 -->
<g id="edge31" class="edge">
<title>Node19&#45;&gt;Node16</title>
<path fill="none" stroke="midnightblue" d="M941.14,-235.1C931.64,-221.19 911.44,-194.3 887.94,-179 868.85,-166.57 811.93,-149.36 773.42,-138.59"/>
<polygon fill="midnightblue" stroke="midnightblue" points="774.15,-135.16 763.58,-135.86 772.28,-141.9 774.15,-135.16"/>
</g>
<!-- Node20 -->
<g id="node20" class="node">
<title>Node20</title>
<g id="a_node20"><a xlink:href="_o_m_sim_logger_8hh.html" target="_top" xlink:title=" ">
<polygon fill="white" stroke="black" points="936.44,-179.5 936.44,-198.5 1035.44,-198.5 1035.44,-179.5 936.44,-179.5"/>
<text text-anchor="middle" x="985.94" y="-186.5" font-family="Helvetica,sans-Serif" font-size="10.00">OMSimLogger.hh</text>
</a>
</g>
</g>
<!-- Node19&#45;&gt;Node20 -->
<g id="edge26" class="edge">
<title>Node19&#45;&gt;Node20</title>
<path fill="none" stroke="midnightblue" d="M953.38,-235.08C958.89,-227.46 966.97,-216.26 973.71,-206.94"/>
<polygon fill="midnightblue" stroke="midnightblue" points="976.6,-208.91 979.62,-198.75 970.93,-204.81 976.6,-208.91"/>
</g>
<!-- Node25 -->
<g id="node25" class="node">
<title>Node25</title>
<g id="a_node25"><a xlink:title=" ">
<polygon fill="white" stroke="#bfbfbf" points="1053.94,-179.5 1053.94,-198.5 1137.94,-198.5 1137.94,-179.5 1053.94,-179.5"/>
<text text-anchor="middle" x="1095.94" y="-186.5" font-family="Helvetica,sans-Serif" font-size="10.00">boost/any.hpp</text>
</a>
</g>
</g>
<!-- Node19&#45;&gt;Node25 -->
<g id="edge32" class="edge">
<title>Node19&#45;&gt;Node25</title>
<path fill="none" stroke="midnightblue" d="M970.55,-235.44C995.4,-226.44 1034.72,-212.19 1062.69,-202.05"/>
<polygon fill="midnightblue" stroke="midnightblue" points="1064.23,-205.21 1072.44,-198.52 1061.85,-198.63 1064.23,-205.21"/>
</g>
<!-- Node26 -->
<g id="node26" class="node">
<title>Node26</title>
<g id="a_node26"><a xlink:title=" ">
<polygon fill="white" stroke="#bfbfbf" points="1155.94,-179.5 1155.94,-198.5 1223.94,-198.5 1223.94,-179.5 1155.94,-179.5"/>
<text text-anchor="middle" x="1189.94" y="-186.5" font-family="Helvetica,sans-Serif" font-size="10.00">sys/time.h</text>
</a>
</g>
</g>
<!-- Node19&#45;&gt;Node26 -->
<g id="edge33" class="edge">
<title>Node19&#45;&gt;Node26</title>
<path fill="none" stroke="midnightblue" d="M985.44,-235.44C1029.12,-225.74 1100.19,-209.95 1145.99,-199.77"/>
<polygon fill="midnightblue" stroke="midnightblue" points="1146.93,-203.14 1155.93,-197.56 1145.41,-196.31 1146.93,-203.14"/>
</g>
<!-- Node21 -->
<g id="node21" class="node">
<title>Node21</title>
<g id="a_node21"><a xlink:title=" ">
<polygon fill="white" stroke="#bfbfbf" points="800.44,-118 800.44,-137 893.44,-137 893.44,-118 800.44,-118"/>
<text text-anchor="middle" x="846.94" y="-125" font-family="Helvetica,sans-Serif" font-size="10.00">spdlog/spdlog.h</text>
</a>
</g>
</g>
<!-- Node20&#45;&gt;Node21 -->
<g id="edge27" class="edge">
<title>Node20&#45;&gt;Node21</title>
<path fill="none" stroke="midnightblue" d="M966.03,-179.48C942.49,-169.4 903.13,-152.55 876.15,-141"/>
<polygon fill="midnightblue" stroke="midnightblue" points="877.39,-137.73 866.82,-137.01 874.64,-144.16 877.39,-137.73"/>
</g>
<!-- Node22 -->
<g id="node22" class="node">
<title>Node22</title>
<g id="a_node22"><a xlink:title=" ">
<polygon fill="white" stroke="#bfbfbf" points="911.44,-112.5 911.44,-142.5 1022.44,-142.5 1022.44,-112.5 911.44,-112.5"/>
<text text-anchor="start" x="919.44" y="-130.5" font-family="Helvetica,sans-Serif" font-size="10.00">spdlog/sinks/stdout</text>
<text text-anchor="middle" x="966.94" y="-119.5" font-family="Helvetica,sans-Serif" font-size="10.00">_color_sinks.h</text>
</a>
</g>
</g>
<!-- Node20&#45;&gt;Node22 -->
<g id="edge28" class="edge">
<title>Node20&#45;&gt;Node22</title>
<path fill="none" stroke="midnightblue" d="M983.22,-179.48C980.93,-172.32 977.56,-161.75 974.47,-152.08"/>
<polygon fill="midnightblue" stroke="midnightblue" points="977.79,-150.98 971.42,-142.52 971.13,-153.11 977.79,-150.98"/>
</g>
<!-- Node23 -->
<g id="node23" class="node">
<title>Node23</title>
<g id="a_node23"><a xlink:title=" ">
<polygon fill="white" stroke="#bfbfbf" points="1040.94,-118 1040.94,-137 1098.94,-137 1098.94,-118 1040.94,-118"/>
<text text-anchor="middle" x="1069.94" y="-125" font-family="Helvetica,sans-Serif" font-size="10.00">memory</text>
</a>
</g>
</g>
<!-- Node20&#45;&gt;Node23 -->
<g id="edge29" class="edge">
<title>Node20&#45;&gt;Node23</title>
<path fill="none" stroke="midnightblue" d="M997.98,-179.48C1011.45,-169.93 1033.51,-154.31 1049.66,-142.87"/>
<polygon fill="midnightblue" stroke="midnightblue" points="1051.79,-145.65 1057.93,-137.01 1047.74,-139.93 1051.79,-145.65"/>
</g>
<!-- Node24 -->
<g id="node24" class="node">
<title>Node24</title>
<g id="a_node24"><a xlink:title=" ">
<polygon fill="white" stroke="#bfbfbf" points="1116.94,-118 1116.94,-137 1214.94,-137 1214.94,-118 1116.94,-118"/>
<text text-anchor="middle" x="1165.94" y="-125" font-family="Helvetica,sans-Serif" font-size="10.00">spdlog/fmt/fmt.h</text>
</a>
</g>
</g>
<!-- Node20&#45;&gt;Node24 -->
<g id="edge30" class="edge">
<title>Node20&#45;&gt;Node24</title>
<path fill="none" stroke="midnightblue" d="M1011.73,-179.48C1042.87,-169.18 1095.42,-151.81 1130.39,-140.25"/>
<polygon fill="midnightblue" stroke="midnightblue" points="1131.8,-143.47 1140.2,-137.01 1129.61,-136.82 1131.8,-143.47"/>
</g>
</g>
</svg>
