<?xml version="1.0" encoding="UTF-8" standalone="no"?>
<!DOCTYPE svg PUBLIC "-//W3C//DTD SVG 1.1//EN"
 "http://www.w3.org/Graphics/SVG/1.1/DTD/svg11.dtd">
<!-- Generated by graphviz version 2.43.0 (0)
 -->
<!-- Title: OMSimDetectorConstruction.hh Pages: 1 -->
<svg width="1249pt" height="386pt"
 viewBox="0.00 0.00 1248.50 386.00" xmlns="http://www.w3.org/2000/svg" xmlns:xlink="http://www.w3.org/1999/xlink">
<g id="graph0" class="graph" transform="scale(1 1) rotate(0) translate(4 382)">
<title>OMSimDetectorConstruction.hh</title>
<polygon fill="white" stroke="transparent" points="-4,4 -4,-382 1244.5,-382 1244.5,4 -4,4"/>
<!-- Node1 -->
<g id="node1" class="node">
<title>Node1</title>
<g id="a_node1"><a xlink:title=" ">
<polygon fill="#bfbfbf" stroke="black" points="770.5,-358.5 770.5,-377.5 940.5,-377.5 940.5,-358.5 770.5,-358.5"/>
<text text-anchor="middle" x="855.5" y="-365.5" font-family="Helvetica,sans-Serif" font-size="10.00">OMSimDetectorConstruction.hh</text>
</a>
</g>
</g>
<!-- Node2 -->
<g id="node2" class="node">
<title>Node2</title>
<g id="a_node2"><a xlink:href="_o_m_sim_optical_module_8hh.html" target="_top" xlink:title=" ">
<polygon fill="white" stroke="black" points="669,-302.5 669,-321.5 806,-321.5 806,-302.5 669,-302.5"/>
<text text-anchor="middle" x="737.5" y="-309.5" font-family="Helvetica,sans-Serif" font-size="10.00">OMSimOpticalModule.hh</text>
</a>
</g>
</g>
<!-- Node1&#45;&gt;Node2 -->
<g id="edge1" class="edge">
<title>Node1&#45;&gt;Node2</title>
<path fill="none" stroke="midnightblue" d="M836.8,-358.44C817.56,-349.64 787.35,-335.81 765.3,-325.72"/>
<polygon fill="midnightblue" stroke="midnightblue" points="766.66,-322.5 756.11,-321.52 763.75,-328.86 766.66,-322.5"/>
</g>
<!-- Node30 -->
<g id="node30" class="node">
<title>Node30</title>
<g id="a_node30"><a xlink:title=" ">
<polygon fill="white" stroke="#bfbfbf" points="824.5,-302.5 824.5,-321.5 886.5,-321.5 886.5,-302.5 824.5,-302.5"/>
<text text-anchor="middle" x="855.5" y="-309.5" font-family="Helvetica,sans-Serif" font-size="10.00">G4Orb.hh</text>
</a>
</g>
</g>
<!-- Node1&#45;&gt;Node30 -->
<g id="edge33" class="edge">
<title>Node1&#45;&gt;Node30</title>
<path fill="none" stroke="midnightblue" d="M855.5,-358.08C855.5,-351.01 855.5,-340.86 855.5,-331.99"/>
<polygon fill="midnightblue" stroke="midnightblue" points="859,-331.75 855.5,-321.75 852,-331.75 859,-331.75"/>
</g>
<!-- Node31 -->
<g id="node31" class="node">
<title>Node31</title>
<g id="a_node31"><a xlink:title=" ">
<polygon fill="white" stroke="#bfbfbf" points="904.5,-302.5 904.5,-321.5 1082.5,-321.5 1082.5,-302.5 904.5,-302.5"/>
<text text-anchor="middle" x="993.5" y="-309.5" font-family="Helvetica,sans-Serif" font-size="10.00">G4VUserDetectorConstruction.hh</text>
</a>
</g>
</g>
<!-- Node1&#45;&gt;Node31 -->
<g id="edge34" class="edge">
<title>Node1&#45;&gt;Node31</title>
<path fill="none" stroke="midnightblue" d="M877.37,-358.44C900.28,-349.48 936.48,-335.31 962.37,-325.18"/>
<polygon fill="midnightblue" stroke="midnightblue" points="963.7,-328.42 971.74,-321.52 961.15,-321.9 963.7,-328.42"/>
</g>
<!-- Node3 -->
<g id="node3" class="node">
<title>Node3</title>
<g id="a_node3"><a xlink:href="abc_detector_component_8hh.html" target="_top" xlink:title="Provides helper base class abcDetectorComponent for constructing and managing detector components in ...">
<polygon fill="white" stroke="black" points="715,-190.5 715,-209.5 862,-209.5 862,-190.5 715,-190.5"/>
<text text-anchor="middle" x="788.5" y="-197.5" font-family="Helvetica,sans-Serif" font-size="10.00">abcDetectorComponent.hh</text>
</a>
</g>
</g>
<!-- Node2&#45;&gt;Node3 -->
<g id="edge2" class="edge">
<title>Node2&#45;&gt;Node3</title>
<path fill="none" stroke="midnightblue" d="M739.09,-302.25C741.63,-289.44 747.27,-265.04 756.5,-246 761.35,-235.99 768.38,-225.81 774.61,-217.67"/>
<polygon fill="midnightblue" stroke="midnightblue" points="777.43,-219.75 780.93,-209.74 771.96,-215.38 777.43,-219.75"/>
</g>
<!-- Node17 -->
<g id="node17" class="node">
<title>Node17</title>
<g id="a_node17"><a xlink:href="_o_m_sim_hit_manager_8hh.html" target="_top" xlink:title="Defines structures and classes related to optical module photon hit management.">
<polygon fill="white" stroke="black" points="226,-246.5 226,-265.5 349,-265.5 349,-246.5 226,-246.5"/>
<text text-anchor="middle" x="287.5" y="-253.5" font-family="Helvetica,sans-Serif" font-size="10.00">OMSimHitManager.hh</text>
</a>
</g>
</g>
<!-- Node2&#45;&gt;Node17 -->
<g id="edge16" class="edge">
<title>Node2&#45;&gt;Node17</title>
<path fill="none" stroke="midnightblue" d="M668.66,-302.74C584.91,-292.69 444.19,-275.8 359.18,-265.6"/>
<polygon fill="midnightblue" stroke="midnightblue" points="359.44,-262.11 349.09,-264.39 358.6,-269.06 359.44,-262.11"/>
</g>
<!-- Node27 -->
<g id="node27" class="node">
<title>Node27</title>
<g id="a_node27"><a xlink:href="_o_m_sim_p_m_t_construction_8hh.html" target="_top" xlink:title="Construction of the PMTs.">
<polygon fill="white" stroke="black" points="765,-246.5 765,-265.5 914,-265.5 914,-246.5 765,-246.5"/>
<text text-anchor="middle" x="839.5" y="-253.5" font-family="Helvetica,sans-Serif" font-size="10.00">OMSimPMTConstruction.hh</text>
</a>
</g>
</g>
<!-- Node2&#45;&gt;Node27 -->
<g id="edge27" class="edge">
<title>Node2&#45;&gt;Node27</title>
<path fill="none" stroke="midnightblue" d="M753.89,-302.32C770.17,-293.7 795.37,-280.36 814.22,-270.39"/>
<polygon fill="midnightblue" stroke="midnightblue" points="815.95,-273.43 823.15,-265.65 812.68,-267.24 815.95,-273.43"/>
</g>
<!-- Node4 -->
<g id="node4" class="node">
<title>Node4</title>
<g id="a_node4"><a xlink:href="_o_m_sim_input_data_8hh.html" target="_top" xlink:title="Definition of ParameterTable and InputDataManager.">
<polygon fill="white" stroke="black" points="602,-134.5 602,-153.5 717,-153.5 717,-134.5 602,-134.5"/>
<text text-anchor="middle" x="659.5" y="-141.5" font-family="Helvetica,sans-Serif" font-size="10.00">OMSimInputData.hh</text>
</a>
</g>
</g>
<!-- Node3&#45;&gt;Node4 -->
<g id="edge3" class="edge">
<title>Node3&#45;&gt;Node4</title>
<path fill="none" stroke="midnightblue" d="M768.06,-190.44C746.83,-181.56 713.4,-167.56 689.25,-157.45"/>
<polygon fill="midnightblue" stroke="midnightblue" points="690.42,-154.15 679.84,-153.52 687.72,-160.61 690.42,-154.15"/>
</g>
<!-- Node13 -->
<g id="node13" class="node">
<title>Node13</title>
<g id="a_node13"><a xlink:title=" ">
<polygon fill="white" stroke="#bfbfbf" points="735,-134.5 735,-153.5 842,-153.5 842,-134.5 735,-134.5"/>
<text text-anchor="middle" x="788.5" y="-141.5" font-family="Helvetica,sans-Serif" font-size="10.00">G4Transform3D.hh</text>
</a>
</g>
</g>
<!-- Node3&#45;&gt;Node13 -->
<g id="edge12" class="edge">
<title>Node3&#45;&gt;Node13</title>
<path fill="none" stroke="midnightblue" d="M788.5,-190.08C788.5,-183.01 788.5,-172.86 788.5,-163.99"/>
<polygon fill="midnightblue" stroke="midnightblue" points="792,-163.75 788.5,-153.75 785,-163.75 792,-163.75"/>
</g>
<!-- Node14 -->
<g id="node14" class="node">
<title>Node14</title>
<g id="a_node14"><a xlink:title=" ">
<polygon fill="white" stroke="#bfbfbf" points="860.5,-134.5 860.5,-153.5 968.5,-153.5 968.5,-134.5 860.5,-134.5"/>
<text text-anchor="middle" x="914.5" y="-141.5" font-family="Helvetica,sans-Serif" font-size="10.00">G4VisAttributes.hh</text>
</a>
</g>
</g>
<!-- Node3&#45;&gt;Node14 -->
<g id="edge13" class="edge">
<title>Node3&#45;&gt;Node14</title>
<path fill="none" stroke="midnightblue" d="M808.47,-190.44C829.11,-181.6 861.56,-167.69 885.13,-157.59"/>
<polygon fill="midnightblue" stroke="midnightblue" points="886.82,-160.67 894.63,-153.52 884.06,-154.24 886.82,-160.67"/>
</g>
<!-- Node15 -->
<g id="node15" class="node">
<title>Node15</title>
<g id="a_node15"><a xlink:title=" ">
<polygon fill="white" stroke="#bfbfbf" points="987,-134.5 987,-153.5 1112,-153.5 1112,-134.5 987,-134.5"/>
<text text-anchor="middle" x="1049.5" y="-141.5" font-family="Helvetica,sans-Serif" font-size="10.00">G4SubtractionSolid.hh</text>
</a>
</g>
</g>
<!-- Node3&#45;&gt;Node15 -->
<g id="edge14" class="edge">
<title>Node3&#45;&gt;Node15</title>
<path fill="none" stroke="midnightblue" d="M829.86,-190.44C875.58,-180.98 949.26,-165.74 998.52,-155.55"/>
<polygon fill="midnightblue" stroke="midnightblue" points="999.25,-158.97 1008.34,-153.52 997.84,-152.12 999.25,-158.97"/>
</g>
<!-- Node16 -->
<g id="node16" class="node">
<title>Node16</title>
<g id="a_node16"><a xlink:title=" ">
<polygon fill="white" stroke="#bfbfbf" points="1130.5,-134.5 1130.5,-153.5 1240.5,-153.5 1240.5,-134.5 1130.5,-134.5"/>
<text text-anchor="middle" x="1185.5" y="-141.5" font-family="Helvetica,sans-Serif" font-size="10.00">G4PVPlacement.hh</text>
</a>
</g>
</g>
<!-- Node3&#45;&gt;Node16 -->
<g id="edge15" class="edge">
<title>Node3&#45;&gt;Node16</title>
<path fill="none" stroke="midnightblue" d="M852.35,-190.48C917.24,-181.79 1020.93,-167.84 1120.42,-154.14"/>
<polygon fill="midnightblue" stroke="midnightblue" points="1120.92,-157.61 1130.34,-152.78 1119.96,-150.67 1120.92,-157.61"/>
</g>
<!-- Node5 -->
<g id="node5" class="node">
<title>Node5</title>
<g id="a_node5"><a xlink:href="_o_m_sim_logger_8hh.html" target="_top" xlink:title=" ">
<polygon fill="white" stroke="black" points="471,-73 471,-92 570,-92 570,-73 471,-73"/>
<text text-anchor="middle" x="520.5" y="-80" font-family="Helvetica,sans-Serif" font-size="10.00">OMSimLogger.hh</text>
</a>
</g>
</g>
<!-- Node4&#45;&gt;Node5 -->
<g id="edge4" class="edge">
<title>Node4&#45;&gt;Node5</title>
<path fill="none" stroke="midnightblue" d="M639.58,-134.48C616.05,-124.4 576.69,-107.55 549.71,-96"/>
<polygon fill="midnightblue" stroke="midnightblue" points="550.95,-92.73 540.38,-92.01 548.19,-99.16 550.95,-92.73"/>
</g>
<!-- Node10 -->
<g id="node10" class="node">
<title>Node10</title>
<g id="a_node10"><a xlink:title=" ">
<polygon fill="white" stroke="#bfbfbf" points="588,-73 588,-92 731,-92 731,-73 588,-73"/>
<text text-anchor="middle" x="659.5" y="-80" font-family="Helvetica,sans-Serif" font-size="10.00">G4OpBoundaryProcess.hh</text>
</a>
</g>
</g>
<!-- Node4&#45;&gt;Node10 -->
<g id="edge9" class="edge">
<title>Node4&#45;&gt;Node10</title>
<path fill="none" stroke="midnightblue" d="M659.5,-134.48C659.5,-126.08 659.5,-112.98 659.5,-102.16"/>
<polygon fill="midnightblue" stroke="midnightblue" points="663,-102.01 659.5,-92.01 656,-102.01 663,-102.01"/>
</g>
<!-- Node11 -->
<g id="node11" class="node">
<title>Node11</title>
<g id="a_node11"><a xlink:title=" ">
<polygon fill="white" stroke="#bfbfbf" points="275,-73 275,-92 394,-92 394,-73 275,-73"/>
<text text-anchor="middle" x="334.5" y="-80" font-family="Helvetica,sans-Serif" font-size="10.00">G4SystemOfUnits.hh</text>
</a>
</g>
</g>
<!-- Node4&#45;&gt;Node11 -->
<g id="edge10" class="edge">
<title>Node4&#45;&gt;Node11</title>
<path fill="none" stroke="midnightblue" d="M612.94,-134.48C554.41,-123.76 454.02,-105.38 391.12,-93.87"/>
<polygon fill="midnightblue" stroke="midnightblue" points="391.45,-90.37 380.98,-92.01 390.18,-97.25 391.45,-90.37"/>
</g>
<!-- Node12 -->
<g id="node12" class="node">
<title>Node12</title>
<g id="a_node12"><a xlink:title=" ">
<polygon fill="white" stroke="#bfbfbf" points="749,-67.5 749,-97.5 862,-97.5 862,-67.5 749,-67.5"/>
<text text-anchor="start" x="757" y="-85.5" font-family="Helvetica,sans-Serif" font-size="10.00">boost/property_tree</text>
<text text-anchor="middle" x="805.5" y="-74.5" font-family="Helvetica,sans-Serif" font-size="10.00">/json_parser.hpp</text>
</a>
</g>
</g>
<!-- Node4&#45;&gt;Node12 -->
<g id="edge11" class="edge">
<title>Node4&#45;&gt;Node12</title>
<path fill="none" stroke="midnightblue" d="M680.42,-134.48C701.49,-125.89 734.63,-112.38 761.51,-101.43"/>
<polygon fill="midnightblue" stroke="midnightblue" points="763.15,-104.54 771.09,-97.52 760.51,-98.06 763.15,-104.54"/>
</g>
<!-- Node6 -->
<g id="node6" class="node">
<title>Node6</title>
<g id="a_node6"><a xlink:title=" ">
<polygon fill="white" stroke="#bfbfbf" points="302,-6 302,-25 395,-25 395,-6 302,-6"/>
<text text-anchor="middle" x="348.5" y="-13" font-family="Helvetica,sans-Serif" font-size="10.00">spdlog/spdlog.h</text>
</a>
</g>
</g>
<!-- Node5&#45;&gt;Node6 -->
<g id="edge5" class="edge">
<title>Node5&#45;&gt;Node6</title>
<path fill="none" stroke="midnightblue" d="M497.66,-72.87C467.63,-61.52 414.72,-41.52 380.66,-28.65"/>
<polygon fill="midnightblue" stroke="midnightblue" points="381.75,-25.32 371.16,-25.06 379.28,-31.87 381.75,-25.32"/>
</g>
<!-- Node7 -->
<g id="node7" class="node">
<title>Node7</title>
<g id="a_node7"><a xlink:title=" ">
<polygon fill="white" stroke="#bfbfbf" points="413,-0.5 413,-30.5 524,-30.5 524,-0.5 413,-0.5"/>
<text text-anchor="start" x="421" y="-18.5" font-family="Helvetica,sans-Serif" font-size="10.00">spdlog/sinks/stdout</text>
<text text-anchor="middle" x="468.5" y="-7.5" font-family="Helvetica,sans-Serif" font-size="10.00">_color_sinks.h</text>
</a>
</g>
</g>
<!-- Node5&#45;&gt;Node7 -->
<g id="edge6" class="edge">
<title>Node5&#45;&gt;Node7</title>
<path fill="none" stroke="midnightblue" d="M513.49,-72.73C506.53,-64.03 495.58,-50.34 486.22,-38.65"/>
<polygon fill="midnightblue" stroke="midnightblue" points="488.75,-36.21 479.77,-30.59 483.29,-40.58 488.75,-36.21"/>
</g>
<!-- Node8 -->
<g id="node8" class="node">
<title>Node8</title>
<g id="a_node8"><a xlink:title=" ">
<polygon fill="white" stroke="#bfbfbf" points="542.5,-6 542.5,-25 600.5,-25 600.5,-6 542.5,-6"/>
<text text-anchor="middle" x="571.5" y="-13" font-family="Helvetica,sans-Serif" font-size="10.00">memory</text>
</a>
</g>
</g>
<!-- Node5&#45;&gt;Node8 -->
<g id="edge7" class="edge">
<title>Node5&#45;&gt;Node8</title>
<path fill="none" stroke="midnightblue" d="M527.38,-72.73C535.33,-62.6 548.6,-45.69 558.51,-33.06"/>
<polygon fill="midnightblue" stroke="midnightblue" points="561.31,-35.16 564.73,-25.13 555.8,-30.83 561.31,-35.16"/>
</g>
<!-- Node9 -->
<g id="node9" class="node">
<title>Node9</title>
<g id="a_node9"><a xlink:title=" ">
<polygon fill="white" stroke="#bfbfbf" points="618.5,-6 618.5,-25 716.5,-25 716.5,-6 618.5,-6"/>
<text text-anchor="middle" x="667.5" y="-13" font-family="Helvetica,sans-Serif" font-size="10.00">spdlog/fmt/fmt.h</text>
</a>
</g>
</g>
<!-- Node5&#45;&gt;Node9 -->
<g id="edge8" class="edge">
<title>Node5&#45;&gt;Node9</title>
<path fill="none" stroke="midnightblue" d="M540.02,-72.87C565.28,-61.7 609.5,-42.15 638.64,-29.26"/>
<polygon fill="midnightblue" stroke="midnightblue" points="640.17,-32.41 647.9,-25.17 637.34,-26.01 640.17,-32.41"/>
</g>
<!-- Node18 -->
<g id="node18" class="node">
<title>Node18</title>
<g id="a_node18"><a xlink:href="_o_m_sim_p_m_t_response_8hh.html" target="_top" xlink:title="Simulation of PMT response.">
<polygon fill="white" stroke="black" points="415,-190.5 415,-209.5 550,-209.5 550,-190.5 415,-190.5"/>
<text text-anchor="middle" x="482.5" y="-197.5" font-family="Helvetica,sans-Serif" font-size="10.00">OMSimPMTResponse.hh</text>
</a>
</g>
</g>
<!-- Node17&#45;&gt;Node18 -->
<g id="edge17" class="edge">
<title>Node17&#45;&gt;Node18</title>
<path fill="none" stroke="midnightblue" d="M318.4,-246.44C351.77,-237.2 405.09,-222.44 441.85,-212.26"/>
<polygon fill="midnightblue" stroke="midnightblue" points="443.04,-215.56 451.75,-209.52 441.17,-208.81 443.04,-215.56"/>
</g>
<!-- Node23 -->
<g id="node23" class="node">
<title>Node23</title>
<g id="a_node23"><a xlink:title=" ">
<polygon fill="white" stroke="#bfbfbf" points="294,-190.5 294,-209.5 397,-209.5 397,-190.5 294,-190.5"/>
<text text-anchor="middle" x="345.5" y="-197.5" font-family="Helvetica,sans-Serif" font-size="10.00">G4ThreeVector.hh</text>
</a>
</g>
</g>
<!-- Node17&#45;&gt;Node23 -->
<g id="edge23" class="edge">
<title>Node17&#45;&gt;Node23</title>
<path fill="none" stroke="midnightblue" d="M296.82,-246.32C305.39,-238.34 318.31,-226.31 328.69,-216.65"/>
<polygon fill="midnightblue" stroke="midnightblue" points="331.08,-219.21 336.01,-209.83 326.31,-214.09 331.08,-219.21"/>
</g>
<!-- Node24 -->
<g id="node24" class="node">
<title>Node24</title>
<g id="a_node24"><a xlink:title=" ">
<polygon fill="white" stroke="#bfbfbf" points="0,-190.5 0,-209.5 55,-209.5 55,-190.5 0,-190.5"/>
<text text-anchor="middle" x="27.5" y="-197.5" font-family="Helvetica,sans-Serif" font-size="10.00">fstream</text>
</a>
</g>
</g>
<!-- Node17&#45;&gt;Node24 -->
<g id="edge24" class="edge">
<title>Node17&#45;&gt;Node24</title>
<path fill="none" stroke="midnightblue" d="M242.54,-246.47C199.54,-238.19 132.63,-224.99 65.29,-210.11"/>
<polygon fill="midnightblue" stroke="midnightblue" points="65.87,-206.65 55.35,-207.9 64.36,-213.49 65.87,-206.65"/>
</g>
<!-- Node25 -->
<g id="node25" class="node">
<title>Node25</title>
<g id="a_node25"><a xlink:title=" ">
<polygon fill="white" stroke="#bfbfbf" points="73.5,-190.5 73.5,-209.5 163.5,-209.5 163.5,-190.5 73.5,-190.5"/>
<text text-anchor="middle" x="118.5" y="-197.5" font-family="Helvetica,sans-Serif" font-size="10.00">G4AutoLock.hh</text>
</a>
</g>
</g>
<!-- Node17&#45;&gt;Node25 -->
<g id="edge25" class="edge">
<title>Node17&#45;&gt;Node25</title>
<path fill="none" stroke="midnightblue" d="M260.72,-246.44C232.17,-237.32 186.77,-222.81 154.96,-212.65"/>
<polygon fill="midnightblue" stroke="midnightblue" points="155.74,-209.23 145.15,-209.52 153.61,-215.89 155.74,-209.23"/>
</g>
<!-- Node26 -->
<g id="node26" class="node">
<title>Node26</title>
<g id="a_node26"><a xlink:title=" ">
<polygon fill="white" stroke="#bfbfbf" points="181.5,-190.5 181.5,-209.5 275.5,-209.5 275.5,-190.5 181.5,-190.5"/>
<text text-anchor="middle" x="228.5" y="-197.5" font-family="Helvetica,sans-Serif" font-size="10.00">G4Threading.hh</text>
</a>
</g>
</g>
<!-- Node17&#45;&gt;Node26 -->
<g id="edge26" class="edge">
<title>Node17&#45;&gt;Node26</title>
<path fill="none" stroke="midnightblue" d="M278.02,-246.32C269.3,-238.34 256.16,-226.31 245.6,-216.65"/>
<polygon fill="midnightblue" stroke="midnightblue" points="247.89,-214 238.15,-209.83 243.17,-219.17 247.89,-214"/>
</g>
<!-- Node18&#45;&gt;Node11 -->
<g id="edge18" class="edge">
<title>Node18&#45;&gt;Node11</title>
<path fill="none" stroke="midnightblue" d="M433.28,-190.45C380.54,-180.8 303.18,-165 294.5,-154 280.64,-136.43 299.42,-113.5 315.65,-98.63"/>
<polygon fill="midnightblue" stroke="midnightblue" points="317.99,-101.24 323.26,-92.04 313.41,-95.95 317.99,-101.24"/>
</g>
<!-- Node19 -->
<g id="node19" class="node">
<title>Node19</title>
<g id="a_node19"><a xlink:title=" ">
<polygon fill="white" stroke="#bfbfbf" points="304,-134.5 304,-153.5 377,-153.5 377,-134.5 304,-134.5"/>
<text text-anchor="middle" x="340.5" y="-141.5" font-family="Helvetica,sans-Serif" font-size="10.00">G4Types.hh</text>
</a>
</g>
</g>
<!-- Node18&#45;&gt;Node19 -->
<g id="edge19" class="edge">
<title>Node18&#45;&gt;Node19</title>
<path fill="none" stroke="midnightblue" d="M460,-190.44C436.42,-181.48 399.18,-167.31 372.54,-157.18"/>
<polygon fill="midnightblue" stroke="midnightblue" points="373.49,-153.8 362.9,-153.52 371,-160.34 373.49,-153.8"/>
</g>
<!-- Node20 -->
<g id="node20" class="node">
<title>Node20</title>
<g id="a_node20"><a xlink:title=" ">
<polygon fill="white" stroke="#bfbfbf" points="395.5,-134.5 395.5,-153.5 433.5,-153.5 433.5,-134.5 395.5,-134.5"/>
<text text-anchor="middle" x="414.5" y="-141.5" font-family="Helvetica,sans-Serif" font-size="10.00">map</text>
</a>
</g>
</g>
<!-- Node18&#45;&gt;Node20 -->
<g id="edge20" class="edge">
<title>Node18&#45;&gt;Node20</title>
<path fill="none" stroke="midnightblue" d="M471.57,-190.32C461.33,-182.18 445.78,-169.84 433.5,-160.09"/>
<polygon fill="midnightblue" stroke="midnightblue" points="435.63,-157.31 425.62,-153.83 431.28,-162.79 435.63,-157.31"/>
</g>
<!-- Node21 -->
<g id="node21" class="node">
<title>Node21</title>
<g id="a_node21"><a xlink:title=" ">
<polygon fill="white" stroke="#bfbfbf" points="452,-134.5 452,-153.5 513,-153.5 513,-134.5 452,-134.5"/>
<text text-anchor="middle" x="482.5" y="-141.5" font-family="Helvetica,sans-Serif" font-size="10.00">TGraph.h</text>
</a>
</g>
</g>
<!-- Node18&#45;&gt;Node21 -->
<g id="edge21" class="edge">
<title>Node18&#45;&gt;Node21</title>
<path fill="none" stroke="midnightblue" d="M482.5,-190.08C482.5,-183.01 482.5,-172.86 482.5,-163.99"/>
<polygon fill="midnightblue" stroke="midnightblue" points="486,-163.75 482.5,-153.75 479,-163.75 486,-163.75"/>
</g>
<!-- Node22 -->
<g id="node22" class="node">
<title>Node22</title>
<g id="a_node22"><a xlink:title=" ">
<polygon fill="white" stroke="#bfbfbf" points="531,-134.5 531,-153.5 584,-153.5 584,-134.5 531,-134.5"/>
<text text-anchor="middle" x="557.5" y="-141.5" font-family="Helvetica,sans-Serif" font-size="10.00">TH2D.h</text>
</a>
</g>
</g>
<!-- Node18&#45;&gt;Node22 -->
<g id="edge22" class="edge">
<title>Node18&#45;&gt;Node22</title>
<path fill="none" stroke="midnightblue" d="M494.55,-190.32C505.96,-182.11 523.33,-169.6 536.93,-159.81"/>
<polygon fill="midnightblue" stroke="midnightblue" points="539.16,-162.52 545.23,-153.83 535.07,-156.84 539.16,-162.52"/>
</g>
<!-- Node27&#45;&gt;Node3 -->
<g id="edge28" class="edge">
<title>Node27&#45;&gt;Node3</title>
<path fill="none" stroke="midnightblue" d="M831.08,-246.08C823.65,-238.22 812.65,-226.57 803.69,-217.08"/>
<polygon fill="midnightblue" stroke="midnightblue" points="806.18,-214.62 796.76,-209.75 801.09,-219.42 806.18,-214.62"/>
</g>
<!-- Node27&#45;&gt;Node18 -->
<g id="edge30" class="edge">
<title>Node27&#45;&gt;Node18</title>
<path fill="none" stroke="midnightblue" d="M782.93,-246.44C719.35,-236.83 616.23,-221.23 548.88,-211.04"/>
<polygon fill="midnightblue" stroke="midnightblue" points="549.21,-207.55 538.8,-209.52 548.17,-214.47 549.21,-207.55"/>
</g>
<!-- Node27&#45;&gt;Node27 -->
<g id="edge29" class="edge">
<title>Node27&#45;&gt;Node27</title>
<path fill="none" stroke="midnightblue" d="M878.95,-265.53C905.76,-268.31 932,-265.13 932,-256 932,-248.01 911.91,-244.58 888.93,-245.71"/>
<polygon fill="midnightblue" stroke="midnightblue" points="888.65,-242.22 878.95,-246.47 889.19,-249.2 888.65,-242.22"/>
</g>
<!-- Node28 -->
<g id="node28" class="node">
<title>Node28</title>
<g id="a_node28"><a xlink:title=" ">
<polygon fill="white" stroke="#bfbfbf" points="880.5,-190.5 880.5,-209.5 978.5,-209.5 978.5,-190.5 880.5,-190.5"/>
<text text-anchor="middle" x="929.5" y="-197.5" font-family="Helvetica,sans-Serif" font-size="10.00">G4UnionSolid.hh</text>
</a>
</g>
</g>
<!-- Node27&#45;&gt;Node28 -->
<g id="edge31" class="edge">
<title>Node27&#45;&gt;Node28</title>
<path fill="none" stroke="midnightblue" d="M853.96,-246.32C868,-237.9 889.55,-224.97 906.04,-215.07"/>
<polygon fill="midnightblue" stroke="midnightblue" points="908.3,-217.8 915.08,-209.65 904.7,-211.8 908.3,-217.8"/>
</g>
<!-- Node29 -->
<g id="node29" class="node">
<title>Node29</title>
<g id="a_node29"><a xlink:title=" ">
<polygon fill="white" stroke="#bfbfbf" points="997,-190.5 997,-209.5 1064,-209.5 1064,-190.5 997,-190.5"/>
<text text-anchor="middle" x="1030.5" y="-197.5" font-family="Helvetica,sans-Serif" font-size="10.00">G4Tubs.hh</text>
</a>
</g>
</g>
<!-- Node27&#45;&gt;Node29 -->
<g id="edge32" class="edge">
<title>Node27&#45;&gt;Node29</title>
<path fill="none" stroke="midnightblue" d="M869.76,-246.44C902.46,-237.2 954.68,-222.44 990.68,-212.26"/>
<polygon fill="midnightblue" stroke="midnightblue" points="991.71,-215.61 1000.38,-209.52 989.8,-208.87 991.71,-215.61"/>
</g>
</g>
</svg>
