<?xml version="1.0" encoding="UTF-8" standalone="no"?>
<!DOCTYPE svg PUBLIC "-//W3C//DTD SVG 1.1//EN"
 "http://www.w3.org/Graphics/SVG/1.1/DTD/svg11.dtd">
<!-- Generated by graphviz version 2.43.0 (0)
 -->
<!-- Title: OMSimMDOMFlasher.cc Pages: 1 -->
<svg width="1353pt" height="442pt"
 viewBox="0.00 0.00 1352.50 442.00" xmlns="http://www.w3.org/2000/svg" xmlns:xlink="http://www.w3.org/1999/xlink">
<g id="graph0" class="graph" transform="scale(1 1) rotate(0) translate(4 438)">
<title>OMSimMDOMFlasher.cc</title>
<polygon fill="white" stroke="transparent" points="-4,4 -4,-438 1348.5,-438 1348.5,4 -4,4"/>
<!-- Node1 -->
<g id="node1" class="node">
<title>Node1</title>
<g id="a_node1"><a xlink:title=" ">
<polygon fill="#bfbfbf" stroke="black" points="1025.5,-414.5 1025.5,-433.5 1159.5,-433.5 1159.5,-414.5 1025.5,-414.5"/>
<text text-anchor="middle" x="1092.5" y="-421.5" font-family="Helvetica,sans-Serif" font-size="10.00">OMSimMDOMFlasher.cc</text>
</a>
</g>
</g>
<!-- Node2 -->
<g id="node2" class="node">
<title>Node2</title>
<g id="a_node2"><a xlink:href="_o_m_sim_m_d_o_m_8hh.html" target="_top" xlink:title="Construction of mDOM.">
<polygon fill="white" stroke="black" points="567.5,-358.5 567.5,-377.5 667.5,-377.5 667.5,-358.5 567.5,-358.5"/>
<text text-anchor="middle" x="617.5" y="-365.5" font-family="Helvetica,sans-Serif" font-size="10.00">OMSimMDOM.hh</text>
</a>
</g>
</g>
<!-- Node1&#45;&gt;Node2 -->
<g id="edge1" class="edge">
<title>Node1&#45;&gt;Node2</title>
<path fill="none" stroke="midnightblue" d="M1025.45,-415.38C932.71,-404.83 766.69,-385.96 677.72,-375.85"/>
<polygon fill="midnightblue" stroke="midnightblue" points="677.85,-372.34 667.52,-374.69 677.06,-379.29 677.85,-372.34"/>
</g>
<!-- Node34 -->
<g id="node34" class="node">
<title>Node34</title>
<g id="a_node34"><a xlink:href="_o_m_sim_u_iinterface_8hh.html" target="_top" xlink:title="The OMSimUIinterface class provides a singleton interface to Geant4&#39;s UI manager.">
<polygon fill="white" stroke="black" points="1032,-358.5 1032,-377.5 1153,-377.5 1153,-358.5 1032,-358.5"/>
<text text-anchor="middle" x="1092.5" y="-365.5" font-family="Helvetica,sans-Serif" font-size="10.00">OMSimUIinterface.hh</text>
</a>
</g>
</g>
<!-- Node1&#45;&gt;Node34 -->
<g id="edge43" class="edge">
<title>Node1&#45;&gt;Node34</title>
<path fill="none" stroke="midnightblue" d="M1092.5,-414.08C1092.5,-407.01 1092.5,-396.86 1092.5,-387.99"/>
<polygon fill="midnightblue" stroke="midnightblue" points="1096,-387.75 1092.5,-377.75 1089,-387.75 1096,-387.75"/>
</g>
<!-- Node35 -->
<g id="node35" class="node">
<title>Node35</title>
<g id="a_node35"><a xlink:href="_o_m_sim_command_args_table_8hh.html" target="_top" xlink:title="Definition of the OMSimCommandArgsTable singleton class, which controls user args.">
<polygon fill="white" stroke="black" points="966.5,-302.5 966.5,-321.5 1130.5,-321.5 1130.5,-302.5 966.5,-302.5"/>
<text text-anchor="middle" x="1048.5" y="-309.5" font-family="Helvetica,sans-Serif" font-size="10.00">OMSimCommandArgsTable.hh</text>
</a>
</g>
</g>
<!-- Node1&#45;&gt;Node35 -->
<g id="edge50" class="edge">
<title>Node1&#45;&gt;Node35</title>
<path fill="none" stroke="midnightblue" d="M1068.03,-414.44C1051.93,-407.38 1032.12,-395.63 1022.5,-378 1013.9,-362.25 1023.87,-343.04 1033.85,-329.61"/>
<polygon fill="midnightblue" stroke="midnightblue" points="1036.67,-331.69 1040.21,-321.71 1031.22,-327.3 1036.67,-331.69"/>
</g>
<!-- Node39 -->
<g id="node39" class="node">
<title>Node39</title>
<g id="a_node39"><a xlink:title=" ">
<polygon fill="white" stroke="#bfbfbf" points="1171,-358.5 1171,-377.5 1240,-377.5 1240,-358.5 1171,-358.5"/>
<text text-anchor="middle" x="1205.5" y="-365.5" font-family="Helvetica,sans-Serif" font-size="10.00">G4Cons.hh</text>
</a>
</g>
</g>
<!-- Node1&#45;&gt;Node39 -->
<g id="edge51" class="edge">
<title>Node1&#45;&gt;Node39</title>
<path fill="none" stroke="midnightblue" d="M1110.41,-414.44C1128.75,-405.68 1157.51,-391.94 1178.59,-381.86"/>
<polygon fill="midnightblue" stroke="midnightblue" points="1180.17,-384.99 1187.68,-377.52 1177.15,-378.67 1180.17,-384.99"/>
</g>
<!-- Node40 -->
<g id="node40" class="node">
<title>Node40</title>
<g id="a_node40"><a xlink:title=" ">
<polygon fill="white" stroke="#bfbfbf" points="1258.5,-358.5 1258.5,-377.5 1344.5,-377.5 1344.5,-358.5 1258.5,-358.5"/>
<text text-anchor="middle" x="1301.5" y="-365.5" font-family="Helvetica,sans-Serif" font-size="10.00">G4Ellipsoid.hh</text>
</a>
</g>
</g>
<!-- Node1&#45;&gt;Node40 -->
<g id="edge52" class="edge">
<title>Node1&#45;&gt;Node40</title>
<path fill="none" stroke="midnightblue" d="M1125.62,-414.44C1161.62,-405.14 1219.27,-390.25 1258.69,-380.06"/>
<polygon fill="midnightblue" stroke="midnightblue" points="1259.73,-383.41 1268.54,-377.52 1257.98,-376.63 1259.73,-383.41"/>
</g>
<!-- Node3 -->
<g id="node3" class="node">
<title>Node3</title>
<g id="a_node3"><a xlink:href="_o_m_sim_m_d_o_m_flasher_8hh.html" target="_top" xlink:title="Defines the mDOMFlasher class for simulating the 10 flashers in an mDOM optical module.">
<polygon fill="white" stroke="black" points="322,-246.5 322,-265.5 457,-265.5 457,-246.5 322,-246.5"/>
<text text-anchor="middle" x="389.5" y="-253.5" font-family="Helvetica,sans-Serif" font-size="10.00">OMSimMDOMFlasher.hh</text>
</a>
</g>
</g>
<!-- Node2&#45;&gt;Node3 -->
<g id="edge2" class="edge">
<title>Node2&#45;&gt;Node3</title>
<path fill="none" stroke="midnightblue" d="M599.61,-358.37C559.82,-339.17 463.79,-292.84 416.6,-270.07"/>
<polygon fill="midnightblue" stroke="midnightblue" points="417.84,-266.78 407.31,-265.59 414.79,-273.09 417.84,-266.78"/>
</g>
<!-- Node20 -->
<g id="node20" class="node">
<title>Node20</title>
<g id="a_node20"><a xlink:href="_o_m_sim_p_m_t_construction_8hh.html" target="_top" xlink:title="Construction of the PMTs.">
<polygon fill="white" stroke="black" points="542,-246.5 542,-265.5 691,-265.5 691,-246.5 542,-246.5"/>
<text text-anchor="middle" x="616.5" y="-253.5" font-family="Helvetica,sans-Serif" font-size="10.00">OMSimPMTConstruction.hh</text>
</a>
</g>
</g>
<!-- Node2&#45;&gt;Node20 -->
<g id="edge19" class="edge">
<title>Node2&#45;&gt;Node20</title>
<path fill="none" stroke="midnightblue" d="M609.29,-358.18C601.96,-349.66 591.74,-336.02 587.5,-322 582.32,-304.9 592.25,-286.37 601.87,-273.49"/>
<polygon fill="midnightblue" stroke="midnightblue" points="604.72,-275.54 608.29,-265.56 599.28,-271.13 604.72,-275.54"/>
</g>
<!-- Node27 -->
<g id="node27" class="node">
<title>Node27</title>
<g id="a_node27"><a xlink:href="_o_m_sim_optical_module_8hh.html" target="_top" xlink:title=" ">
<polygon fill="white" stroke="black" points="597,-302.5 597,-321.5 734,-321.5 734,-302.5 597,-302.5"/>
<text text-anchor="middle" x="665.5" y="-309.5" font-family="Helvetica,sans-Serif" font-size="10.00">OMSimOpticalModule.hh</text>
</a>
</g>
</g>
<!-- Node2&#45;&gt;Node27 -->
<g id="edge30" class="edge">
<title>Node2&#45;&gt;Node27</title>
<path fill="none" stroke="midnightblue" d="M625.43,-358.08C632.35,-350.3 642.57,-338.8 650.95,-329.37"/>
<polygon fill="midnightblue" stroke="midnightblue" points="653.69,-331.55 657.72,-321.75 648.46,-326.9 653.69,-331.55"/>
</g>
<!-- Node4 -->
<g id="node4" class="node">
<title>Node4</title>
<g id="a_node4"><a xlink:href="abc_detector_component_8hh.html" target="_top" xlink:title="Provides helper base class abcDetectorComponent for constructing and managing detector components in ...">
<polygon fill="white" stroke="black" points="311,-190.5 311,-209.5 458,-209.5 458,-190.5 311,-190.5"/>
<text text-anchor="middle" x="384.5" y="-197.5" font-family="Helvetica,sans-Serif" font-size="10.00">abcDetectorComponent.hh</text>
</a>
</g>
</g>
<!-- Node3&#45;&gt;Node4 -->
<g id="edge3" class="edge">
<title>Node3&#45;&gt;Node4</title>
<path fill="none" stroke="midnightblue" d="M388.67,-246.08C388.02,-239.01 387.08,-228.86 386.26,-219.99"/>
<polygon fill="midnightblue" stroke="midnightblue" points="389.72,-219.39 385.31,-209.75 382.75,-220.03 389.72,-219.39"/>
</g>
<!-- Node18 -->
<g id="node18" class="node">
<title>Node18</title>
<g id="a_node18"><a xlink:title=" ">
<polygon fill="white" stroke="#bfbfbf" points="476.5,-190.5 476.5,-209.5 574.5,-209.5 574.5,-190.5 476.5,-190.5"/>
<text text-anchor="middle" x="525.5" y="-197.5" font-family="Helvetica,sans-Serif" font-size="10.00">G4UnionSolid.hh</text>
</a>
</g>
</g>
<!-- Node3&#45;&gt;Node18 -->
<g id="edge17" class="edge">
<title>Node3&#45;&gt;Node18</title>
<path fill="none" stroke="midnightblue" d="M411.05,-246.44C433.53,-237.52 468.99,-223.44 494.48,-213.32"/>
<polygon fill="midnightblue" stroke="midnightblue" points="496.05,-216.46 504.05,-209.52 493.47,-209.95 496.05,-216.46"/>
</g>
<!-- Node19 -->
<g id="node19" class="node">
<title>Node19</title>
<g id="a_node19"><a xlink:title=" ">
<polygon fill="white" stroke="#bfbfbf" points="200.5,-190.5 200.5,-209.5 292.5,-209.5 292.5,-190.5 200.5,-190.5"/>
<text text-anchor="middle" x="246.5" y="-197.5" font-family="Helvetica,sans-Serif" font-size="10.00">G4Navigator.hh</text>
</a>
</g>
</g>
<!-- Node3&#45;&gt;Node19 -->
<g id="edge18" class="edge">
<title>Node3&#45;&gt;Node19</title>
<path fill="none" stroke="midnightblue" d="M366.84,-246.44C343.1,-237.48 305.59,-223.31 278.76,-213.18"/>
<polygon fill="midnightblue" stroke="midnightblue" points="279.64,-209.77 269.05,-209.52 277.17,-216.32 279.64,-209.77"/>
</g>
<!-- Node5 -->
<g id="node5" class="node">
<title>Node5</title>
<g id="a_node5"><a xlink:href="_o_m_sim_input_data_8hh.html" target="_top" xlink:title="Definition of ParameterTable and InputDataManager.">
<polygon fill="white" stroke="black" points="524,-134.5 524,-153.5 639,-153.5 639,-134.5 524,-134.5"/>
<text text-anchor="middle" x="581.5" y="-141.5" font-family="Helvetica,sans-Serif" font-size="10.00">OMSimInputData.hh</text>
</a>
</g>
</g>
<!-- Node4&#45;&gt;Node5 -->
<g id="edge4" class="edge">
<title>Node4&#45;&gt;Node5</title>
<path fill="none" stroke="midnightblue" d="M415.72,-190.44C449.43,-181.2 503.3,-166.44 540.43,-156.26"/>
<polygon fill="midnightblue" stroke="midnightblue" points="541.71,-159.54 550.43,-153.52 539.86,-152.78 541.71,-159.54"/>
</g>
<!-- Node14 -->
<g id="node14" class="node">
<title>Node14</title>
<g id="a_node14"><a xlink:title=" ">
<polygon fill="white" stroke="#bfbfbf" points="0,-134.5 0,-153.5 107,-153.5 107,-134.5 0,-134.5"/>
<text text-anchor="middle" x="53.5" y="-141.5" font-family="Helvetica,sans-Serif" font-size="10.00">G4Transform3D.hh</text>
</a>
</g>
</g>
<!-- Node4&#45;&gt;Node14 -->
<g id="edge13" class="edge">
<title>Node4&#45;&gt;Node14</title>
<path fill="none" stroke="midnightblue" d="M332.05,-190.44C273.34,-180.87 178.27,-165.36 115.82,-155.17"/>
<polygon fill="midnightblue" stroke="midnightblue" points="116.14,-151.67 105.7,-153.52 115.01,-158.58 116.14,-151.67"/>
</g>
<!-- Node15 -->
<g id="node15" class="node">
<title>Node15</title>
<g id="a_node15"><a xlink:title=" ">
<polygon fill="white" stroke="#bfbfbf" points="125.5,-134.5 125.5,-153.5 233.5,-153.5 233.5,-134.5 125.5,-134.5"/>
<text text-anchor="middle" x="179.5" y="-141.5" font-family="Helvetica,sans-Serif" font-size="10.00">G4VisAttributes.hh</text>
</a>
</g>
</g>
<!-- Node4&#45;&gt;Node15 -->
<g id="edge14" class="edge">
<title>Node4&#45;&gt;Node15</title>
<path fill="none" stroke="midnightblue" d="M352.02,-190.44C316.78,-181.16 260.4,-166.31 221.74,-156.13"/>
<polygon fill="midnightblue" stroke="midnightblue" points="222.39,-152.68 211.83,-153.52 220.61,-159.45 222.39,-152.68"/>
</g>
<!-- Node16 -->
<g id="node16" class="node">
<title>Node16</title>
<g id="a_node16"><a xlink:title=" ">
<polygon fill="white" stroke="#bfbfbf" points="252,-134.5 252,-153.5 377,-153.5 377,-134.5 252,-134.5"/>
<text text-anchor="middle" x="314.5" y="-141.5" font-family="Helvetica,sans-Serif" font-size="10.00">G4SubtractionSolid.hh</text>
</a>
</g>
</g>
<!-- Node4&#45;&gt;Node16 -->
<g id="edge15" class="edge">
<title>Node4&#45;&gt;Node16</title>
<path fill="none" stroke="midnightblue" d="M373.25,-190.32C362.7,-182.18 346.7,-169.84 334.06,-160.09"/>
<polygon fill="midnightblue" stroke="midnightblue" points="336.01,-157.17 325.95,-153.83 331.73,-162.71 336.01,-157.17"/>
</g>
<!-- Node17 -->
<g id="node17" class="node">
<title>Node17</title>
<g id="a_node17"><a xlink:title=" ">
<polygon fill="white" stroke="#bfbfbf" points="395.5,-134.5 395.5,-153.5 505.5,-153.5 505.5,-134.5 395.5,-134.5"/>
<text text-anchor="middle" x="450.5" y="-141.5" font-family="Helvetica,sans-Serif" font-size="10.00">G4PVPlacement.hh</text>
</a>
</g>
</g>
<!-- Node4&#45;&gt;Node17 -->
<g id="edge16" class="edge">
<title>Node4&#45;&gt;Node17</title>
<path fill="none" stroke="midnightblue" d="M395.1,-190.32C404.96,-182.26 419.85,-170.08 431.72,-160.37"/>
<polygon fill="midnightblue" stroke="midnightblue" points="434.18,-162.88 439.7,-153.83 429.75,-157.46 434.18,-162.88"/>
</g>
<!-- Node6 -->
<g id="node6" class="node">
<title>Node6</title>
<g id="a_node6"><a xlink:href="_o_m_sim_logger_8hh.html" target="_top" xlink:title=" ">
<polygon fill="white" stroke="black" points="780,-73 780,-92 879,-92 879,-73 780,-73"/>
<text text-anchor="middle" x="829.5" y="-80" font-family="Helvetica,sans-Serif" font-size="10.00">OMSimLogger.hh</text>
</a>
</g>
</g>
<!-- Node5&#45;&gt;Node6 -->
<g id="edge5" class="edge">
<title>Node5&#45;&gt;Node6</title>
<path fill="none" stroke="midnightblue" d="M617.75,-134.45C655.81,-125.46 717.39,-110.85 770.5,-98 775.19,-96.87 780.08,-95.67 784.96,-94.48"/>
<polygon fill="midnightblue" stroke="midnightblue" points="786,-97.83 794.88,-92.05 784.33,-91.03 786,-97.83"/>
</g>
<!-- Node11 -->
<g id="node11" class="node">
<title>Node11</title>
<g id="a_node11"><a xlink:title=" ">
<polygon fill="white" stroke="#bfbfbf" points="619,-73 619,-92 762,-92 762,-73 619,-73"/>
<text text-anchor="middle" x="690.5" y="-80" font-family="Helvetica,sans-Serif" font-size="10.00">G4OpBoundaryProcess.hh</text>
</a>
</g>
</g>
<!-- Node5&#45;&gt;Node11 -->
<g id="edge10" class="edge">
<title>Node5&#45;&gt;Node11</title>
<path fill="none" stroke="midnightblue" d="M597.12,-134.48C615.09,-124.67 644.82,-108.43 665.91,-96.92"/>
<polygon fill="midnightblue" stroke="midnightblue" points="667.81,-99.87 674.91,-92.01 664.46,-93.73 667.81,-99.87"/>
</g>
<!-- Node12 -->
<g id="node12" class="node">
<title>Node12</title>
<g id="a_node12"><a xlink:title=" ">
<polygon fill="white" stroke="#bfbfbf" points="897,-73 897,-92 1016,-92 1016,-73 897,-73"/>
<text text-anchor="middle" x="956.5" y="-80" font-family="Helvetica,sans-Serif" font-size="10.00">G4SystemOfUnits.hh</text>
</a>
</g>
</g>
<!-- Node5&#45;&gt;Node12 -->
<g id="edge11" class="edge">
<title>Node5&#45;&gt;Node12</title>
<path fill="none" stroke="midnightblue" d="M639.16,-134.95C714.15,-124.41 841.05,-106.29 887.5,-98 894.14,-96.82 901.12,-95.47 907.98,-94.09"/>
<polygon fill="midnightblue" stroke="midnightblue" points="908.81,-97.49 917.9,-92.05 907.4,-90.63 908.81,-97.49"/>
</g>
<!-- Node13 -->
<g id="node13" class="node">
<title>Node13</title>
<g id="a_node13"><a xlink:title=" ">
<polygon fill="white" stroke="#bfbfbf" points="488,-67.5 488,-97.5 601,-97.5 601,-67.5 488,-67.5"/>
<text text-anchor="start" x="496" y="-85.5" font-family="Helvetica,sans-Serif" font-size="10.00">boost/property_tree</text>
<text text-anchor="middle" x="544.5" y="-74.5" font-family="Helvetica,sans-Serif" font-size="10.00">/json_parser.hpp</text>
</a>
</g>
</g>
<!-- Node5&#45;&gt;Node13 -->
<g id="edge12" class="edge">
<title>Node5&#45;&gt;Node13</title>
<path fill="none" stroke="midnightblue" d="M576.2,-134.48C571.61,-127.09 564.76,-116.08 558.6,-106.17"/>
<polygon fill="midnightblue" stroke="midnightblue" points="561.47,-104.17 553.22,-97.52 555.53,-107.86 561.47,-104.17"/>
</g>
<!-- Node7 -->
<g id="node7" class="node">
<title>Node7</title>
<g id="a_node7"><a xlink:title=" ">
<polygon fill="white" stroke="#bfbfbf" points="611,-6 611,-25 704,-25 704,-6 611,-6"/>
<text text-anchor="middle" x="657.5" y="-13" font-family="Helvetica,sans-Serif" font-size="10.00">spdlog/spdlog.h</text>
</a>
</g>
</g>
<!-- Node6&#45;&gt;Node7 -->
<g id="edge6" class="edge">
<title>Node6&#45;&gt;Node7</title>
<path fill="none" stroke="midnightblue" d="M806.66,-72.87C776.63,-61.52 723.72,-41.52 689.66,-28.65"/>
<polygon fill="midnightblue" stroke="midnightblue" points="690.75,-25.32 680.16,-25.06 688.28,-31.87 690.75,-25.32"/>
</g>
<!-- Node8 -->
<g id="node8" class="node">
<title>Node8</title>
<g id="a_node8"><a xlink:title=" ">
<polygon fill="white" stroke="#bfbfbf" points="722,-0.5 722,-30.5 833,-30.5 833,-0.5 722,-0.5"/>
<text text-anchor="start" x="730" y="-18.5" font-family="Helvetica,sans-Serif" font-size="10.00">spdlog/sinks/stdout</text>
<text text-anchor="middle" x="777.5" y="-7.5" font-family="Helvetica,sans-Serif" font-size="10.00">_color_sinks.h</text>
</a>
</g>
</g>
<!-- Node6&#45;&gt;Node8 -->
<g id="edge7" class="edge">
<title>Node6&#45;&gt;Node8</title>
<path fill="none" stroke="midnightblue" d="M822.49,-72.73C815.53,-64.03 804.58,-50.34 795.22,-38.65"/>
<polygon fill="midnightblue" stroke="midnightblue" points="797.75,-36.21 788.77,-30.59 792.29,-40.58 797.75,-36.21"/>
</g>
<!-- Node9 -->
<g id="node9" class="node">
<title>Node9</title>
<g id="a_node9"><a xlink:title=" ">
<polygon fill="white" stroke="#bfbfbf" points="851.5,-6 851.5,-25 909.5,-25 909.5,-6 851.5,-6"/>
<text text-anchor="middle" x="880.5" y="-13" font-family="Helvetica,sans-Serif" font-size="10.00">memory</text>
</a>
</g>
</g>
<!-- Node6&#45;&gt;Node9 -->
<g id="edge8" class="edge">
<title>Node6&#45;&gt;Node9</title>
<path fill="none" stroke="midnightblue" d="M836.38,-72.73C844.33,-62.6 857.6,-45.69 867.51,-33.06"/>
<polygon fill="midnightblue" stroke="midnightblue" points="870.31,-35.16 873.73,-25.13 864.8,-30.83 870.31,-35.16"/>
</g>
<!-- Node10 -->
<g id="node10" class="node">
<title>Node10</title>
<g id="a_node10"><a xlink:title=" ">
<polygon fill="white" stroke="#bfbfbf" points="927.5,-6 927.5,-25 1025.5,-25 1025.5,-6 927.5,-6"/>
<text text-anchor="middle" x="976.5" y="-13" font-family="Helvetica,sans-Serif" font-size="10.00">spdlog/fmt/fmt.h</text>
</a>
</g>
</g>
<!-- Node6&#45;&gt;Node10 -->
<g id="edge9" class="edge">
<title>Node6&#45;&gt;Node10</title>
<path fill="none" stroke="midnightblue" d="M849.02,-72.87C874.28,-61.7 918.5,-42.15 947.64,-29.26"/>
<polygon fill="midnightblue" stroke="midnightblue" points="949.17,-32.41 956.9,-25.17 946.34,-26.01 949.17,-32.41"/>
</g>
<!-- Node20&#45;&gt;Node4 -->
<g id="edge20" class="edge">
<title>Node20&#45;&gt;Node4</title>
<path fill="none" stroke="midnightblue" d="M579.74,-246.44C539.44,-237.06 474.69,-221.99 430.92,-211.8"/>
<polygon fill="midnightblue" stroke="midnightblue" points="431.62,-208.37 421.09,-209.52 430.04,-215.19 431.62,-208.37"/>
</g>
<!-- Node20&#45;&gt;Node18 -->
<g id="edge28" class="edge">
<title>Node20&#45;&gt;Node18</title>
<path fill="none" stroke="midnightblue" d="M601.88,-246.32C587.55,-237.82 565.49,-224.73 548.75,-214.8"/>
<polygon fill="midnightblue" stroke="midnightblue" points="550.47,-211.75 540.08,-209.65 546.9,-217.77 550.47,-211.75"/>
</g>
<!-- Node20&#45;&gt;Node20 -->
<g id="edge21" class="edge">
<title>Node20&#45;&gt;Node20</title>
<path fill="none" stroke="midnightblue" d="M655.95,-265.53C682.76,-268.31 709,-265.13 709,-256 709,-248.01 688.91,-244.58 665.93,-245.71"/>
<polygon fill="midnightblue" stroke="midnightblue" points="665.65,-242.22 655.95,-246.47 666.19,-249.2 665.65,-242.22"/>
</g>
<!-- Node21 -->
<g id="node21" class="node">
<title>Node21</title>
<g id="a_node21"><a xlink:href="_o_m_sim_p_m_t_response_8hh.html" target="_top" xlink:title="Provides simulation for PMT response. This class is responsible for transforming hits on photocathode...">
<polygon fill="white" stroke="black" points="1077,-134.5 1077,-153.5 1212,-153.5 1212,-134.5 1077,-134.5"/>
<text text-anchor="middle" x="1144.5" y="-141.5" font-family="Helvetica,sans-Serif" font-size="10.00">OMSimPMTResponse.hh</text>
</a>
</g>
</g>
<!-- Node20&#45;&gt;Node21 -->
<g id="edge22" class="edge">
<title>Node20&#45;&gt;Node21</title>
<path fill="none" stroke="midnightblue" d="M691.19,-249.4C744.64,-243.67 817.61,-232.29 878.5,-210 894.96,-203.97 896.1,-196.2 912.5,-190 962.09,-171.24 1020.73,-159.95 1066.65,-153.38"/>
<polygon fill="midnightblue" stroke="midnightblue" points="1067.42,-156.8 1076.84,-151.96 1066.46,-149.87 1067.42,-156.8"/>
</g>
<!-- Node26 -->
<g id="node26" class="node">
<title>Node26</title>
<g id="a_node26"><a xlink:title=" ">
<polygon fill="white" stroke="#bfbfbf" points="593,-190.5 593,-209.5 660,-209.5 660,-190.5 593,-190.5"/>
<text text-anchor="middle" x="626.5" y="-197.5" font-family="Helvetica,sans-Serif" font-size="10.00">G4Tubs.hh</text>
</a>
</g>
</g>
<!-- Node20&#45;&gt;Node26 -->
<g id="edge29" class="edge">
<title>Node20&#45;&gt;Node26</title>
<path fill="none" stroke="midnightblue" d="M618.15,-246.08C619.48,-238.93 621.38,-228.64 623.04,-219.69"/>
<polygon fill="midnightblue" stroke="midnightblue" points="626.5,-220.22 624.88,-209.75 619.62,-218.95 626.5,-220.22"/>
</g>
<!-- Node21&#45;&gt;Node12 -->
<g id="edge23" class="edge">
<title>Node21&#45;&gt;Node12</title>
<path fill="none" stroke="midnightblue" d="M1117.56,-134.48C1084.9,-124.14 1029.68,-106.66 993.16,-95.1"/>
<polygon fill="midnightblue" stroke="midnightblue" points="993.98,-91.69 983.39,-92.01 991.86,-98.36 993.98,-91.69"/>
</g>
<!-- Node22 -->
<g id="node22" class="node">
<title>Node22</title>
<g id="a_node22"><a xlink:title=" ">
<polygon fill="white" stroke="#bfbfbf" points="1034,-73 1034,-92 1107,-92 1107,-73 1034,-73"/>
<text text-anchor="middle" x="1070.5" y="-80" font-family="Helvetica,sans-Serif" font-size="10.00">G4Types.hh</text>
</a>
</g>
</g>
<!-- Node21&#45;&gt;Node22 -->
<g id="edge24" class="edge">
<title>Node21&#45;&gt;Node22</title>
<path fill="none" stroke="midnightblue" d="M1133.9,-134.48C1122.25,-125.11 1103.31,-109.88 1089.17,-98.51"/>
<polygon fill="midnightblue" stroke="midnightblue" points="1091.07,-95.55 1081.08,-92.01 1086.68,-101 1091.07,-95.55"/>
</g>
<!-- Node23 -->
<g id="node23" class="node">
<title>Node23</title>
<g id="a_node23"><a xlink:title=" ">
<polygon fill="white" stroke="#bfbfbf" points="1125.5,-73 1125.5,-92 1163.5,-92 1163.5,-73 1125.5,-73"/>
<text text-anchor="middle" x="1144.5" y="-80" font-family="Helvetica,sans-Serif" font-size="10.00">map</text>
</a>
</g>
</g>
<!-- Node21&#45;&gt;Node23 -->
<g id="edge25" class="edge">
<title>Node21&#45;&gt;Node23</title>
<path fill="none" stroke="midnightblue" d="M1144.5,-134.48C1144.5,-126.08 1144.5,-112.98 1144.5,-102.16"/>
<polygon fill="midnightblue" stroke="midnightblue" points="1148,-102.01 1144.5,-92.01 1141,-102.01 1148,-102.01"/>
</g>
<!-- Node24 -->
<g id="node24" class="node">
<title>Node24</title>
<g id="a_node24"><a xlink:title=" ">
<polygon fill="white" stroke="#bfbfbf" points="1182,-73 1182,-92 1243,-92 1243,-73 1182,-73"/>
<text text-anchor="middle" x="1212.5" y="-80" font-family="Helvetica,sans-Serif" font-size="10.00">TGraph.h</text>
</a>
</g>
</g>
<!-- Node21&#45;&gt;Node24 -->
<g id="edge26" class="edge">
<title>Node21&#45;&gt;Node24</title>
<path fill="none" stroke="midnightblue" d="M1154.24,-134.48C1164.85,-125.2 1182.02,-110.17 1194.98,-98.83"/>
<polygon fill="midnightblue" stroke="midnightblue" points="1197.55,-101.23 1202.78,-92.01 1192.94,-95.96 1197.55,-101.23"/>
</g>
<!-- Node25 -->
<g id="node25" class="node">
<title>Node25</title>
<g id="a_node25"><a xlink:title=" ">
<polygon fill="white" stroke="#bfbfbf" points="1261,-73 1261,-92 1314,-92 1314,-73 1261,-73"/>
<text text-anchor="middle" x="1287.5" y="-80" font-family="Helvetica,sans-Serif" font-size="10.00">TH2D.h</text>
</a>
</g>
</g>
<!-- Node21&#45;&gt;Node25 -->
<g id="edge27" class="edge">
<title>Node21&#45;&gt;Node25</title>
<path fill="none" stroke="midnightblue" d="M1164.99,-134.48C1189.31,-124.36 1230.05,-107.4 1257.82,-95.85"/>
<polygon fill="midnightblue" stroke="midnightblue" points="1259.16,-99.08 1267.05,-92.01 1256.47,-92.62 1259.16,-99.08"/>
</g>
<!-- Node27&#45;&gt;Node4 -->
<g id="edge31" class="edge">
<title>Node27&#45;&gt;Node4</title>
<path fill="none" stroke="midnightblue" d="M637.99,-302.47C610.92,-293.89 568.52,-279.97 532.5,-266 489.72,-249.4 441.21,-227.49 411.74,-213.82"/>
<polygon fill="midnightblue" stroke="midnightblue" points="413.06,-210.57 402.51,-209.52 410.1,-216.92 413.06,-210.57"/>
</g>
<!-- Node27&#45;&gt;Node20 -->
<g id="edge42" class="edge">
<title>Node27&#45;&gt;Node20</title>
<path fill="none" stroke="midnightblue" d="M657.41,-302.08C650.34,-294.3 639.91,-282.8 631.35,-273.37"/>
<polygon fill="midnightblue" stroke="midnightblue" points="633.75,-270.8 624.44,-265.75 628.57,-275.51 633.75,-270.8"/>
</g>
<!-- Node28 -->
<g id="node28" class="node">
<title>Node28</title>
<g id="a_node28"><a xlink:href="_o_m_sim_hit_manager_8hh.html" target="_top" xlink:title="Defines structures and classes related to optical module photon hit management.">
<polygon fill="white" stroke="black" points="732,-246.5 732,-265.5 855,-265.5 855,-246.5 732,-246.5"/>
<text text-anchor="middle" x="793.5" y="-253.5" font-family="Helvetica,sans-Serif" font-size="10.00">OMSimHitManager.hh</text>
</a>
</g>
</g>
<!-- Node27&#45;&gt;Node28 -->
<g id="edge32" class="edge">
<title>Node27&#45;&gt;Node28</title>
<path fill="none" stroke="midnightblue" d="M685.78,-302.44C706.85,-293.56 740.02,-279.56 763.99,-269.45"/>
<polygon fill="midnightblue" stroke="midnightblue" points="765.46,-272.63 773.31,-265.52 762.74,-266.18 765.46,-272.63"/>
</g>
<!-- Node28&#45;&gt;Node21 -->
<g id="edge33" class="edge">
<title>Node28&#45;&gt;Node21</title>
<path fill="none" stroke="midnightblue" d="M817.87,-246.38C842.07,-237.68 880.13,-223.63 912.5,-210 931.93,-201.82 935.59,-196.92 955.5,-190 998.78,-174.95 1049.36,-163.2 1087.29,-155.49"/>
<polygon fill="midnightblue" stroke="midnightblue" points="1088.03,-158.91 1097.14,-153.52 1086.65,-152.05 1088.03,-158.91"/>
</g>
<!-- Node29 -->
<g id="node29" class="node">
<title>Node29</title>
<g id="a_node29"><a xlink:href="_o_m_sim_sensitive_detector_8hh.html" target="_top" xlink:title=" ">
<polygon fill="white" stroke="black" points="717,-190.5 717,-209.5 870,-209.5 870,-190.5 717,-190.5"/>
<text text-anchor="middle" x="793.5" y="-197.5" font-family="Helvetica,sans-Serif" font-size="10.00">OMSimSensitiveDetector.hh</text>
</a>
</g>
</g>
<!-- Node28&#45;&gt;Node29 -->
<g id="edge34" class="edge">
<title>Node28&#45;&gt;Node29</title>
<path fill="none" stroke="midnightblue" d="M793.5,-246.08C793.5,-239.01 793.5,-228.86 793.5,-219.99"/>
<polygon fill="midnightblue" stroke="midnightblue" points="797,-219.75 793.5,-209.75 790,-219.75 797,-219.75"/>
</g>
<!-- Node31 -->
<g id="node31" class="node">
<title>Node31</title>
<g id="a_node31"><a xlink:title=" ">
<polygon fill="white" stroke="#bfbfbf" points="657,-134.5 657,-153.5 760,-153.5 760,-134.5 657,-134.5"/>
<text text-anchor="middle" x="708.5" y="-141.5" font-family="Helvetica,sans-Serif" font-size="10.00">G4ThreeVector.hh</text>
</a>
</g>
</g>
<!-- Node28&#45;&gt;Node31 -->
<g id="edge40" class="edge">
<title>Node28&#45;&gt;Node31</title>
<path fill="none" stroke="midnightblue" d="M759.32,-246.49C740.51,-239.88 718.76,-228.6 707.5,-210 699.11,-196.13 700.44,-177.37 703.24,-163.57"/>
<polygon fill="midnightblue" stroke="midnightblue" points="706.66,-164.29 705.63,-153.75 699.86,-162.64 706.66,-164.29"/>
</g>
<!-- Node33 -->
<g id="node33" class="node">
<title>Node33</title>
<g id="a_node33"><a xlink:title=" ">
<polygon fill="white" stroke="#bfbfbf" points="965,-190.5 965,-209.5 1020,-209.5 1020,-190.5 965,-190.5"/>
<text text-anchor="middle" x="992.5" y="-197.5" font-family="Helvetica,sans-Serif" font-size="10.00">fstream</text>
</a>
</g>
</g>
<!-- Node28&#45;&gt;Node33 -->
<g id="edge41" class="edge">
<title>Node28&#45;&gt;Node33</title>
<path fill="none" stroke="midnightblue" d="M825.03,-246.44C860.29,-236.87 917.37,-221.39 954.92,-211.2"/>
<polygon fill="midnightblue" stroke="midnightblue" points="956.23,-214.47 964.96,-208.47 954.39,-207.71 956.23,-214.47"/>
</g>
<!-- Node29&#45;&gt;Node11 -->
<g id="edge38" class="edge">
<title>Node29&#45;&gt;Node11</title>
<path fill="none" stroke="midnightblue" d="M791.92,-190.13C789.15,-176.73 782.37,-151.09 768.5,-134 755.5,-117.98 736.02,-105.36 719.78,-96.74"/>
<polygon fill="midnightblue" stroke="midnightblue" points="721.17,-93.53 710.67,-92.14 718.01,-99.77 721.17,-93.53"/>
</g>
<!-- Node29&#45;&gt;Node21 -->
<g id="edge37" class="edge">
<title>Node29&#45;&gt;Node21</title>
<path fill="none" stroke="midnightblue" d="M849.12,-190.44C911.63,-180.83 1013.02,-165.23 1079.23,-155.04"/>
<polygon fill="midnightblue" stroke="midnightblue" points="1079.79,-158.5 1089.14,-153.52 1078.73,-151.58 1079.79,-158.5"/>
</g>
<!-- Node30 -->
<g id="node30" class="node">
<title>Node30</title>
<g id="a_node30"><a xlink:title=" ">
<polygon fill="white" stroke="#bfbfbf" points="816.5,-134.5 816.5,-153.5 954.5,-153.5 954.5,-134.5 816.5,-134.5"/>
<text text-anchor="middle" x="885.5" y="-141.5" font-family="Helvetica,sans-Serif" font-size="10.00">G4VSensitiveDetector.hh</text>
</a>
</g>
</g>
<!-- Node29&#45;&gt;Node30 -->
<g id="edge35" class="edge">
<title>Node29&#45;&gt;Node30</title>
<path fill="none" stroke="midnightblue" d="M808.28,-190.32C822.77,-181.82 845.07,-168.73 861.99,-158.8"/>
<polygon fill="midnightblue" stroke="midnightblue" points="863.9,-161.74 870.76,-153.65 860.36,-155.7 863.9,-161.74"/>
</g>
<!-- Node29&#45;&gt;Node31 -->
<g id="edge36" class="edge">
<title>Node29&#45;&gt;Node31</title>
<path fill="none" stroke="midnightblue" d="M779.84,-190.32C766.58,-181.9 746.23,-168.97 730.65,-159.07"/>
<polygon fill="midnightblue" stroke="midnightblue" points="732.44,-156.06 722.12,-153.65 728.69,-161.97 732.44,-156.06"/>
</g>
<!-- Node32 -->
<g id="node32" class="node">
<title>Node32</title>
<g id="a_node32"><a xlink:title=" ">
<polygon fill="white" stroke="#bfbfbf" points="973,-134.5 973,-153.5 1020,-153.5 1020,-134.5 973,-134.5"/>
<text text-anchor="middle" x="996.5" y="-141.5" font-family="Helvetica,sans-Serif" font-size="10.00">vector</text>
</a>
</g>
</g>
<!-- Node29&#45;&gt;Node32 -->
<g id="edge39" class="edge">
<title>Node29&#45;&gt;Node32</title>
<path fill="none" stroke="midnightblue" d="M826.11,-190.45C858.41,-181.96 909.53,-168.47 963.05,-154.11"/>
<polygon fill="midnightblue" stroke="midnightblue" points="963.96,-157.49 972.71,-151.51 962.15,-150.72 963.96,-157.49"/>
</g>
<!-- Node34&#45;&gt;Node35 -->
<g id="edge44" class="edge">
<title>Node34&#45;&gt;Node35</title>
<path fill="none" stroke="midnightblue" d="M1085.23,-358.08C1078.96,-350.38 1069.71,-339.03 1062.07,-329.65"/>
<polygon fill="midnightblue" stroke="midnightblue" points="1064.66,-327.29 1055.63,-321.75 1059.23,-331.71 1064.66,-327.29"/>
</g>
<!-- Node38 -->
<g id="node38" class="node">
<title>Node38</title>
<g id="a_node38"><a xlink:title=" ">
<polygon fill="white" stroke="#bfbfbf" points="1148.5,-302.5 1148.5,-321.5 1246.5,-321.5 1246.5,-302.5 1148.5,-302.5"/>
<text text-anchor="middle" x="1197.5" y="-309.5" font-family="Helvetica,sans-Serif" font-size="10.00">G4UImanager.hh</text>
</a>
</g>
</g>
<!-- Node34&#45;&gt;Node38 -->
<g id="edge49" class="edge">
<title>Node34&#45;&gt;Node38</title>
<path fill="none" stroke="midnightblue" d="M1109.37,-358.32C1126.21,-349.66 1152.31,-336.24 1171.74,-326.25"/>
<polygon fill="midnightblue" stroke="midnightblue" points="1173.38,-329.34 1180.67,-321.65 1170.18,-323.12 1173.38,-329.34"/>
</g>
<!-- Node35&#45;&gt;Node6 -->
<g id="edge45" class="edge">
<title>Node35&#45;&gt;Node6</title>
<path fill="none" stroke="midnightblue" d="M1050.57,-302.3C1056.75,-274.05 1072.01,-183.87 1028.5,-134 1027.85,-133.25 931.69,-109.08 873.29,-94.45"/>
<polygon fill="midnightblue" stroke="midnightblue" points="874.12,-91.05 863.57,-92.02 872.42,-97.84 874.12,-91.05"/>
</g>
<!-- Node35&#45;&gt;Node33 -->
<g id="edge46" class="edge">
<title>Node35&#45;&gt;Node33</title>
<path fill="none" stroke="midnightblue" d="M1044.11,-302.37C1034.95,-284.38 1013.65,-242.55 1001.47,-218.63"/>
<polygon fill="midnightblue" stroke="midnightblue" points="1004.53,-216.92 996.87,-209.59 998.29,-220.09 1004.53,-216.92"/>
</g>
<!-- Node36 -->
<g id="node36" class="node">
<title>Node36</title>
<g id="a_node36"><a xlink:title=" ">
<polygon fill="white" stroke="#bfbfbf" points="1076.5,-246.5 1076.5,-265.5 1160.5,-265.5 1160.5,-246.5 1076.5,-246.5"/>
<text text-anchor="middle" x="1118.5" y="-253.5" font-family="Helvetica,sans-Serif" font-size="10.00">boost/any.hpp</text>
</a>
</g>
</g>
<!-- Node35&#45;&gt;Node36 -->
<g id="edge47" class="edge">
<title>Node35&#45;&gt;Node36</title>
<path fill="none" stroke="midnightblue" d="M1059.75,-302.32C1070.3,-294.18 1086.3,-281.84 1098.94,-272.09"/>
<polygon fill="midnightblue" stroke="midnightblue" points="1101.27,-274.71 1107.05,-265.83 1096.99,-269.17 1101.27,-274.71"/>
</g>
<!-- Node37 -->
<g id="node37" class="node">
<title>Node37</title>
<g id="a_node37"><a xlink:title=" ">
<polygon fill="white" stroke="#bfbfbf" points="1178.5,-246.5 1178.5,-265.5 1246.5,-265.5 1246.5,-246.5 1178.5,-246.5"/>
<text text-anchor="middle" x="1212.5" y="-253.5" font-family="Helvetica,sans-Serif" font-size="10.00">sys/time.h</text>
</a>
</g>
</g>
<!-- Node35&#45;&gt;Node37 -->
<g id="edge48" class="edge">
<title>Node35&#45;&gt;Node37</title>
<path fill="none" stroke="midnightblue" d="M1074.49,-302.44C1102.2,-293.32 1146.25,-278.81 1177.12,-268.65"/>
<polygon fill="midnightblue" stroke="midnightblue" points="1178.23,-271.97 1186.64,-265.52 1176.04,-265.32 1178.23,-271.97"/>
</g>
</g>
</svg>
