<?xml version="1.0" encoding="UTF-8" standalone="no"?>
<!DOCTYPE svg PUBLIC "-//W3C//DTD SVG 1.1//EN"
 "http://www.w3.org/Graphics/SVG/1.1/DTD/svg11.dtd">
<!-- Generated by graphviz version 2.43.0 (0)
 -->
<!-- Title: OMSim_radioactive_decays.cc Pages: 1 -->
<svg width="2535pt" height="420pt"
 viewBox="0.00 0.00 2535.00 420.00" xmlns="http://www.w3.org/2000/svg" xmlns:xlink="http://www.w3.org/1999/xlink">
<g id="graph0" class="graph" transform="scale(1 1) rotate(0) translate(4 416)">
<title>OMSim_radioactive_decays.cc</title>
<polygon fill="white" stroke="transparent" points="-4,4 -4,-416 2531,-416 2531,4 -4,4"/>
<!-- Node1 -->
<g id="node1" class="node">
<title>Node1</title>
<g id="a_node1"><a xlink:title="Main of the radioactive decay study.">
<polygon fill="#bfbfbf" stroke="black" points="799.5,-392.5 799.5,-411.5 964.5,-411.5 964.5,-392.5 799.5,-392.5"/>
<text text-anchor="middle" x="882" y="-399.5" font-family="Helvetica,sans-Serif" font-size="10.00">OMSim_radioactive_decays.cc</text>
</a>
</g>
</g>
<!-- Node2 -->
<g id="node2" class="node">
<title>Node2</title>
<g id="a_node2"><a xlink:href="_o_m_sim_8hh.html" target="_top" xlink:title="Main simulation class for the Optical Module (OM) simulation. This file defines the OMSim class,...">
<polygon fill="white" stroke="black" points="1469.5,-336.5 1469.5,-355.5 1536.5,-355.5 1536.5,-336.5 1469.5,-336.5"/>
<text text-anchor="middle" x="1503" y="-343.5" font-family="Helvetica,sans-Serif" font-size="10.00">OMSim.hh</text>
</a>
</g>
</g>
<!-- Node1&#45;&gt;Node2 -->
<g id="edge1" class="edge">
<title>Node1&#45;&gt;Node2</title>
<path fill="none" stroke="midnightblue" d="M964.78,-393.8C1098.23,-382.2 1356.32,-359.75 1459.16,-350.81"/>
<polygon fill="midnightblue" stroke="midnightblue" points="1459.54,-354.29 1469.19,-349.94 1458.93,-347.32 1459.54,-354.29"/>
</g>
<!-- Node19 -->
<g id="node14" class="node">
<title>Node19</title>
<g id="a_node14"><a xlink:href="_o_m_sim_hit_manager_8hh.html" target="_top" xlink:title="Defines structures and classes related to optical module photon hit management.">
<polygon fill="white" stroke="black" points="814.5,-168.5 814.5,-187.5 937.5,-187.5 937.5,-168.5 814.5,-168.5"/>
<text text-anchor="middle" x="876" y="-175.5" font-family="Helvetica,sans-Serif" font-size="10.00">OMSimHitManager.hh</text>
</a>
</g>
</g>
<!-- Node1&#45;&gt;Node19 -->
<g id="edge58" class="edge">
<title>Node1&#45;&gt;Node19</title>
<path fill="none" stroke="midnightblue" d="M881.76,-392.3C880.88,-359.63 877.75,-243.87 876.51,-197.96"/>
<polygon fill="midnightblue" stroke="midnightblue" points="880.01,-197.79 876.24,-187.88 873.01,-197.97 880.01,-197.79"/>
</g>
<!-- Node54 -->
<g id="node47" class="node">
<title>Node54</title>
<g id="a_node47"><a xlink:href="_o_m_sim_decays_g_p_s_8hh.html" target="_top" xlink:title="Defines the OMSimDecaysGPS class for the radioactive decays simulation.">
<polygon fill="white" stroke="black" points="313,-336.5 313,-355.5 435,-355.5 435,-336.5 313,-336.5"/>
<text text-anchor="middle" x="374" y="-343.5" font-family="Helvetica,sans-Serif" font-size="10.00">OMSimDecaysGPS.hh</text>
</a>
</g>
</g>
<!-- Node1&#45;&gt;Node54 -->
<g id="edge55" class="edge">
<title>Node1&#45;&gt;Node54</title>
<path fill="none" stroke="midnightblue" d="M801.79,-392.47C703.59,-382.04 538.83,-364.52 445.02,-354.55"/>
<polygon fill="midnightblue" stroke="midnightblue" points="445.37,-351.07 435.06,-353.49 444.63,-358.03 445.37,-351.07"/>
</g>
<!-- Node56 -->
<g id="node49" class="node">
<title>Node56</title>
<g id="a_node49"><a xlink:href="_o_m_sim_decays_analysis_8hh.html" target="_top" xlink:title="Defines the OMSimDecaysAnalysis class and DecayStats struct for the radioactive decays simulation.">
<polygon fill="white" stroke="black" points="961,-168.5 961,-187.5 1105,-187.5 1105,-168.5 961,-168.5"/>
<text text-anchor="middle" x="1033" y="-175.5" font-family="Helvetica,sans-Serif" font-size="10.00">OMSimDecaysAnalysis.hh</text>
</a>
</g>
</g>
<!-- Node1&#45;&gt;Node56 -->
<g id="edge59" class="edge">
<title>Node1&#45;&gt;Node56</title>
<path fill="none" stroke="midnightblue" d="M885.03,-392.31C892.42,-371.73 912.71,-318.85 939,-280 961.65,-246.52 995.29,-213.29 1015.58,-194.53"/>
<polygon fill="midnightblue" stroke="midnightblue" points="1018.11,-196.96 1023.15,-187.64 1013.4,-191.79 1018.11,-196.96"/>
</g>
<!-- Node57 -->
<g id="node50" class="node">
<title>Node57</title>
<g id="a_node50"><a xlink:href="_o_m_sim_rad_decays_detector_8hh.html" target="_top" xlink:title="Defines the OMSimRadDecaysDetector class for the radioactive decays simulation.">
<polygon fill="white" stroke="black" points="525.5,-336.5 525.5,-355.5 688.5,-355.5 688.5,-336.5 525.5,-336.5"/>
<text text-anchor="middle" x="607" y="-343.5" font-family="Helvetica,sans-Serif" font-size="10.00">OMSimRadDecaysDetector.hh</text>
</a>
</g>
</g>
<!-- Node1&#45;&gt;Node57 -->
<g id="edge62" class="edge">
<title>Node1&#45;&gt;Node57</title>
<path fill="none" stroke="midnightblue" d="M838.43,-392.44C790.15,-382.96 712.29,-367.67 660.39,-357.48"/>
<polygon fill="midnightblue" stroke="midnightblue" points="660.86,-354.01 650.37,-355.52 659.51,-360.88 660.86,-354.01"/>
</g>
<!-- Node3 -->
<g id="node3" class="node">
<title>Node3</title>
<g id="a_node3"><a xlink:href="_o_m_sim_detector_construction_8hh.html" target="_top" xlink:title=" ">
<polygon fill="white" stroke="black" points="635,-280.5 635,-299.5 805,-299.5 805,-280.5 635,-280.5"/>
<text text-anchor="middle" x="720" y="-287.5" font-family="Helvetica,sans-Serif" font-size="10.00">OMSimDetectorConstruction.hh</text>
</a>
</g>
</g>
<!-- Node2&#45;&gt;Node3 -->
<g id="edge2" class="edge">
<title>Node2&#45;&gt;Node3</title>
<path fill="none" stroke="midnightblue" d="M1469.36,-342.68C1356.8,-334.92 990.62,-309.66 815.28,-297.57"/>
<polygon fill="midnightblue" stroke="midnightblue" points="815.5,-294.08 805.29,-296.88 815.02,-301.06 815.5,-294.08"/>
</g>
<!-- Node35 -->
<g id="node28" class="node">
<title>Node35</title>
<g id="a_node28"><a xlink:title=" ">
<polygon fill="white" stroke="#bfbfbf" points="1487.5,-280.5 1487.5,-299.5 1608.5,-299.5 1608.5,-280.5 1487.5,-280.5"/>
<text text-anchor="middle" x="1548" y="-287.5" font-family="Helvetica,sans-Serif" font-size="10.00">OMSimPhysicsList.hh</text>
</a>
</g>
</g>
<!-- Node2&#45;&gt;Node35 -->
<g id="edge34" class="edge">
<title>Node2&#45;&gt;Node35</title>
<path fill="none" stroke="midnightblue" d="M1510.43,-336.08C1516.85,-328.38 1526.31,-317.03 1534.12,-307.65"/>
<polygon fill="midnightblue" stroke="midnightblue" points="1536.99,-309.67 1540.71,-299.75 1531.62,-305.19 1536.99,-309.67"/>
</g>
<!-- Node36 -->
<g id="node29" class="node">
<title>Node36</title>
<g id="a_node29"><a xlink:title=" ">
<polygon fill="white" stroke="#bfbfbf" points="1626.5,-280.5 1626.5,-299.5 1811.5,-299.5 1811.5,-280.5 1626.5,-280.5"/>
<text text-anchor="middle" x="1719" y="-287.5" font-family="Helvetica,sans-Serif" font-size="10.00">OMSimPrimaryGeneratorAction.hh</text>
</a>
</g>
</g>
<!-- Node2&#45;&gt;Node36 -->
<g id="edge35" class="edge">
<title>Node2&#45;&gt;Node36</title>
<path fill="none" stroke="midnightblue" d="M1536.75,-336.56C1574.02,-327.25 1634.15,-312.21 1675.07,-301.98"/>
<polygon fill="midnightblue" stroke="midnightblue" points="1675.92,-305.38 1684.77,-299.56 1674.22,-298.59 1675.92,-305.38"/>
</g>
<!-- Node37 -->
<g id="node30" class="node">
<title>Node37</title>
<g id="a_node30"><a xlink:href="_o_m_sim_run_action_8hh.html" target="_top" xlink:title=" ">
<polygon fill="white" stroke="black" points="1829,-280.5 1829,-299.5 1945,-299.5 1945,-280.5 1829,-280.5"/>
<text text-anchor="middle" x="1887" y="-287.5" font-family="Helvetica,sans-Serif" font-size="10.00">OMSimRunAction.hh</text>
</a>
</g>
</g>
<!-- Node2&#45;&gt;Node37 -->
<g id="edge36" class="edge">
<title>Node2&#45;&gt;Node37</title>
<path fill="none" stroke="midnightblue" d="M1536.74,-340.26C1599.64,-331.41 1735.9,-312.25 1818.71,-300.6"/>
<polygon fill="midnightblue" stroke="midnightblue" points="1819.37,-304.05 1828.78,-299.19 1818.39,-297.11 1819.37,-304.05"/>
</g>
<!-- Node39 -->
<g id="node32" class="node">
<title>Node39</title>
<g id="a_node32"><a xlink:title=" ">
<polygon fill="white" stroke="#bfbfbf" points="1963.5,-280.5 1963.5,-299.5 2088.5,-299.5 2088.5,-280.5 1963.5,-280.5"/>
<text text-anchor="middle" x="2026" y="-287.5" font-family="Helvetica,sans-Serif" font-size="10.00">OMSimEventAction.hh</text>
</a>
</g>
</g>
<!-- Node2&#45;&gt;Node39 -->
<g id="edge38" class="edge">
<title>Node2&#45;&gt;Node39</title>
<path fill="none" stroke="midnightblue" d="M1536.69,-341.93C1610.18,-335.16 1790.59,-318.22 1953.01,-300.09"/>
<polygon fill="midnightblue" stroke="midnightblue" points="1953.63,-303.54 1963.18,-298.95 1952.85,-296.58 1953.63,-303.54"/>
</g>
<!-- Node40 -->
<g id="node33" class="node">
<title>Node40</title>
<g id="a_node33"><a xlink:href="_o_m_sim_tracking_action_8hh.html" target="_top" xlink:title=" ">
<polygon fill="white" stroke="black" points="2107,-280.5 2107,-299.5 2245,-299.5 2245,-280.5 2107,-280.5"/>
<text text-anchor="middle" x="2176" y="-287.5" font-family="Helvetica,sans-Serif" font-size="10.00">OMSimTrackingAction.hh</text>
</a>
</g>
</g>
<!-- Node2&#45;&gt;Node40 -->
<g id="edge39" class="edge">
<title>Node2&#45;&gt;Node40</title>
<path fill="none" stroke="midnightblue" d="M1536.53,-342.91C1625.67,-337.24 1876.14,-320.72 2096.51,-300.01"/>
<polygon fill="midnightblue" stroke="midnightblue" points="2097.03,-303.48 2106.65,-299.05 2096.37,-296.51 2097.03,-303.48"/>
</g>
<!-- Node42 -->
<g id="node35" class="node">
<title>Node42</title>
<g id="a_node35"><a xlink:href="_o_m_sim_stepping_action_8hh.html" target="_top" xlink:title="Defines OMSimSteppingAction.Currently it only checks for trapped photons.">
<polygon fill="white" stroke="black" points="2263,-280.5 2263,-299.5 2403,-299.5 2403,-280.5 2263,-280.5"/>
<text text-anchor="middle" x="2333" y="-287.5" font-family="Helvetica,sans-Serif" font-size="10.00">OMSimSteppingAction.hh</text>
</a>
</g>
</g>
<!-- Node2&#45;&gt;Node42 -->
<g id="edge41" class="edge">
<title>Node2&#45;&gt;Node42</title>
<path fill="none" stroke="midnightblue" d="M1536.73,-343.62C1641.33,-339.22 1969.66,-324.37 2252.76,-300.06"/>
<polygon fill="midnightblue" stroke="midnightblue" points="2253.15,-303.54 2262.81,-299.19 2252.54,-296.57 2253.15,-303.54"/>
</g>
<!-- Node44 -->
<g id="node37" class="node">
<title>Node44</title>
<g id="a_node37"><a xlink:href="_o_m_sim_u_iinterface_8hh.html" target="_top" xlink:title="The OMSimUIinterface class provides a singleton interface to Geant4&#39;s UI manager.">
<polygon fill="white" stroke="black" points="1367.5,-224.5 1367.5,-243.5 1488.5,-243.5 1488.5,-224.5 1367.5,-224.5"/>
<text text-anchor="middle" x="1428" y="-231.5" font-family="Helvetica,sans-Serif" font-size="10.00">OMSimUIinterface.hh</text>
</a>
</g>
</g>
<!-- Node2&#45;&gt;Node44 -->
<g id="edge43" class="edge">
<title>Node2&#45;&gt;Node44</title>
<path fill="none" stroke="midnightblue" d="M1497.11,-336.37C1484.74,-318.22 1455.82,-275.8 1439.58,-251.99"/>
<polygon fill="midnightblue" stroke="midnightblue" points="1442.38,-249.88 1433.86,-243.59 1436.6,-253.83 1442.38,-249.88"/>
</g>
<!-- Node49 -->
<g id="node42" class="node">
<title>Node49</title>
<g id="a_node42"><a xlink:title=" ">
<polygon fill="white" stroke="#bfbfbf" points="2421,-280.5 2421,-299.5 2527,-299.5 2527,-280.5 2421,-280.5"/>
<text text-anchor="middle" x="2474" y="-287.5" font-family="Helvetica,sans-Serif" font-size="10.00">G4RunManager.hh</text>
</a>
</g>
</g>
<!-- Node2&#45;&gt;Node49 -->
<g id="edge50" class="edge">
<title>Node2&#45;&gt;Node49</title>
<path fill="none" stroke="midnightblue" d="M1536.51,-344.49C1654.71,-342.43 2063.24,-333.28 2410.93,-300.01"/>
<polygon fill="midnightblue" stroke="midnightblue" points="2411.32,-303.48 2420.94,-299.04 2410.65,-296.52 2411.32,-303.48"/>
</g>
<!-- Node50 -->
<g id="node43" class="node">
<title>Node50</title>
<g id="a_node43"><a xlink:title=" ">
<polygon fill="white" stroke="#bfbfbf" points="948.5,-280.5 948.5,-299.5 1055.5,-299.5 1055.5,-280.5 948.5,-280.5"/>
<text text-anchor="middle" x="1002" y="-287.5" font-family="Helvetica,sans-Serif" font-size="10.00">G4VisExecutive.hh</text>
</a>
</g>
</g>
<!-- Node2&#45;&gt;Node50 -->
<g id="edge51" class="edge">
<title>Node2&#45;&gt;Node50</title>
<path fill="none" stroke="midnightblue" d="M1469.35,-342.04C1397.32,-335.59 1222.65,-319.4 1066.04,-300.21"/>
<polygon fill="midnightblue" stroke="midnightblue" points="1066.1,-296.69 1055.75,-298.94 1065.25,-303.64 1066.1,-296.69"/>
</g>
<!-- Node51 -->
<g id="node44" class="node">
<title>Node51</title>
<g id="a_node44"><a xlink:title=" ">
<polygon fill="white" stroke="#bfbfbf" points="1073.5,-280.5 1073.5,-299.5 1176.5,-299.5 1176.5,-280.5 1073.5,-280.5"/>
<text text-anchor="middle" x="1125" y="-287.5" font-family="Helvetica,sans-Serif" font-size="10.00">G4UIExecutive.hh</text>
</a>
</g>
</g>
<!-- Node2&#45;&gt;Node51 -->
<g id="edge52" class="edge">
<title>Node2&#45;&gt;Node51</title>
<path fill="none" stroke="midnightblue" d="M1469.21,-340.27C1412.95,-332.37 1296.25,-315.93 1186.5,-300.07"/>
<polygon fill="midnightblue" stroke="midnightblue" points="1186.98,-296.6 1176.58,-298.63 1185.98,-303.53 1186.98,-296.6"/>
</g>
<!-- Node52 -->
<g id="node45" class="node">
<title>Node52</title>
<g id="a_node45"><a xlink:title=" ">
<polygon fill="white" stroke="#bfbfbf" points="1195,-280.5 1195,-299.5 1263,-299.5 1263,-280.5 1195,-280.5"/>
<text text-anchor="middle" x="1229" y="-287.5" font-family="Helvetica,sans-Serif" font-size="10.00">filesystem</text>
</a>
</g>
</g>
<!-- Node2&#45;&gt;Node52 -->
<g id="edge53" class="edge">
<title>Node2&#45;&gt;Node52</title>
<path fill="none" stroke="midnightblue" d="M1469.31,-338.59C1426.23,-330.36 1349.08,-315.51 1273.44,-300.27"/>
<polygon fill="midnightblue" stroke="midnightblue" points="1273.75,-296.76 1263.26,-298.22 1272.37,-303.62 1273.75,-296.76"/>
</g>
<!-- Node53 -->
<g id="node46" class="node">
<title>Node53</title>
<g id="a_node46"><a xlink:title=" ">
<polygon fill="white" stroke="#bfbfbf" points="1281,-280.5 1281,-299.5 1431,-299.5 1431,-280.5 1281,-280.5"/>
<text text-anchor="middle" x="1356" y="-287.5" font-family="Helvetica,sans-Serif" font-size="10.00">boost/program_options.hpp</text>
</a>
</g>
</g>
<!-- Node2&#45;&gt;Node53 -->
<g id="edge54" class="edge">
<title>Node2&#45;&gt;Node53</title>
<path fill="none" stroke="midnightblue" d="M1479.71,-336.44C1455.19,-327.44 1416.4,-313.19 1388.8,-303.05"/>
<polygon fill="midnightblue" stroke="midnightblue" points="1389.78,-299.68 1379.18,-299.52 1387.36,-306.25 1389.78,-299.68"/>
</g>
<!-- Node4 -->
<g id="node4" class="node">
<title>Node4</title>
<g id="a_node4"><a xlink:href="_o_m_sim_optical_module_8hh.html" target="_top" xlink:title=" ">
<polygon fill="white" stroke="black" points="440.5,-224.5 440.5,-243.5 577.5,-243.5 577.5,-224.5 440.5,-224.5"/>
<text text-anchor="middle" x="509" y="-231.5" font-family="Helvetica,sans-Serif" font-size="10.00">OMSimOpticalModule.hh</text>
</a>
</g>
</g>
<!-- Node3&#45;&gt;Node4 -->
<g id="edge3" class="edge">
<title>Node3&#45;&gt;Node4</title>
<path fill="none" stroke="midnightblue" d="M686.57,-280.44C650.14,-271.12 591.77,-256.18 551.97,-246"/>
<polygon fill="midnightblue" stroke="midnightblue" points="552.83,-242.61 542.28,-243.52 551.1,-249.39 552.83,-242.61"/>
</g>
<!-- Node33 -->
<g id="node26" class="node">
<title>Node33</title>
<g id="a_node26"><a xlink:title=" ">
<polygon fill="white" stroke="#bfbfbf" points="596,-224.5 596,-243.5 658,-243.5 658,-224.5 596,-224.5"/>
<text text-anchor="middle" x="627" y="-231.5" font-family="Helvetica,sans-Serif" font-size="10.00">G4Orb.hh</text>
</a>
</g>
</g>
<!-- Node3&#45;&gt;Node33 -->
<g id="edge32" class="edge">
<title>Node3&#45;&gt;Node33</title>
<path fill="none" stroke="midnightblue" d="M705.06,-280.32C690.41,-271.82 667.87,-258.73 650.76,-248.8"/>
<polygon fill="midnightblue" stroke="midnightblue" points="652.31,-245.65 641.9,-243.65 648.8,-251.7 652.31,-245.65"/>
</g>
<!-- Node34 -->
<g id="node27" class="node">
<title>Node34</title>
<g id="a_node27"><a xlink:title=" ">
<polygon fill="white" stroke="#bfbfbf" points="676,-224.5 676,-243.5 854,-243.5 854,-224.5 676,-224.5"/>
<text text-anchor="middle" x="765" y="-231.5" font-family="Helvetica,sans-Serif" font-size="10.00">G4VUserDetectorConstruction.hh</text>
</a>
</g>
</g>
<!-- Node3&#45;&gt;Node34 -->
<g id="edge33" class="edge">
<title>Node3&#45;&gt;Node34</title>
<path fill="none" stroke="midnightblue" d="M727.43,-280.08C733.85,-272.38 743.31,-261.03 751.12,-251.65"/>
<polygon fill="midnightblue" stroke="midnightblue" points="753.99,-253.67 757.71,-243.75 748.62,-249.19 753.99,-253.67"/>
</g>
<!-- Node5 -->
<g id="node5" class="node">
<title>Node5</title>
<g id="a_node5"><a xlink:href="abc_detector_component_8hh.html" target="_top" xlink:title="Provides helper base class abcDetectorComponent for constructing and managing detector components in ...">
<polygon fill="white" stroke="black" points="356.5,-112.5 356.5,-131.5 503.5,-131.5 503.5,-112.5 356.5,-112.5"/>
<text text-anchor="middle" x="430" y="-119.5" font-family="Helvetica,sans-Serif" font-size="10.00">abcDetectorComponent.hh</text>
</a>
</g>
</g>
<!-- Node4&#45;&gt;Node5 -->
<g id="edge4" class="edge">
<title>Node4&#45;&gt;Node5</title>
<path fill="none" stroke="midnightblue" d="M499.92,-224.18C491.19,-215.44 477.89,-201.45 468,-188 456.89,-172.89 446.3,-154.31 439.14,-140.89"/>
<polygon fill="midnightblue" stroke="midnightblue" points="442.11,-139.01 434.37,-131.77 435.9,-142.26 442.11,-139.01"/>
</g>
<!-- Node4&#45;&gt;Node19 -->
<g id="edge13" class="edge">
<title>Node4&#45;&gt;Node19</title>
<path fill="none" stroke="midnightblue" d="M567.15,-224.44C632.65,-214.81 738.96,-199.16 808.19,-188.98"/>
<polygon fill="midnightblue" stroke="midnightblue" points="808.74,-192.43 818.12,-187.52 807.72,-185.51 808.74,-192.43"/>
</g>
<!-- Node30 -->
<g id="node25" class="node">
<title>Node30</title>
<g id="a_node25"><a xlink:href="_o_m_sim_p_m_t_construction_8hh.html" target="_top" xlink:title="Construction of the PMTs.">
<polygon fill="white" stroke="red" points="477.5,-168.5 477.5,-187.5 626.5,-187.5 626.5,-168.5 477.5,-168.5"/>
<text text-anchor="middle" x="552" y="-175.5" font-family="Helvetica,sans-Serif" font-size="10.00">OMSimPMTConstruction.hh</text>
</a>
</g>
</g>
<!-- Node4&#45;&gt;Node30 -->
<g id="edge28" class="edge">
<title>Node4&#45;&gt;Node30</title>
<path fill="none" stroke="midnightblue" d="M516.1,-224.08C522.24,-216.38 531.27,-205.03 538.74,-195.65"/>
<polygon fill="midnightblue" stroke="midnightblue" points="541.54,-197.75 545.03,-187.75 536.06,-193.39 541.54,-197.75"/>
</g>
<!-- Node6 -->
<g id="node6" class="node">
<title>Node6</title>
<g id="a_node6"><a xlink:href="_o_m_sim_input_data_8hh.html" target="_top" xlink:title="Definition of ParameterTable and InputDataManager.">
<polygon fill="white" stroke="red" points="676.5,-56.5 676.5,-75.5 791.5,-75.5 791.5,-56.5 676.5,-56.5"/>
<text text-anchor="middle" x="734" y="-63.5" font-family="Helvetica,sans-Serif" font-size="10.00">OMSimInputData.hh</text>
</a>
</g>
</g>
<!-- Node5&#45;&gt;Node6 -->
<g id="edge5" class="edge">
<title>Node5&#45;&gt;Node6</title>
<path fill="none" stroke="midnightblue" d="M478.17,-112.44C531.87,-102.9 618.69,-87.48 676.05,-77.29"/>
<polygon fill="midnightblue" stroke="midnightblue" points="676.82,-80.71 686.06,-75.52 675.6,-73.82 676.82,-80.71"/>
</g>
<!-- Node15 -->
<g id="node10" class="node">
<title>Node15</title>
<g id="a_node10"><a xlink:title=" ">
<polygon fill="white" stroke="#bfbfbf" points="128.5,-56.5 128.5,-75.5 235.5,-75.5 235.5,-56.5 128.5,-56.5"/>
<text text-anchor="middle" x="182" y="-63.5" font-family="Helvetica,sans-Serif" font-size="10.00">G4Transform3D.hh</text>
</a>
</g>
</g>
<!-- Node5&#45;&gt;Node15 -->
<g id="edge9" class="edge">
<title>Node5&#45;&gt;Node15</title>
<path fill="none" stroke="midnightblue" d="M390.7,-112.44C347.44,-103.02 277.83,-87.87 231.03,-77.68"/>
<polygon fill="midnightblue" stroke="midnightblue" points="231.63,-74.22 221.11,-75.52 230.14,-81.06 231.63,-74.22"/>
</g>
<!-- Node16 -->
<g id="node11" class="node">
<title>Node16</title>
<g id="a_node11"><a xlink:title=" ">
<polygon fill="white" stroke="#bfbfbf" points="254,-56.5 254,-75.5 362,-75.5 362,-56.5 254,-56.5"/>
<text text-anchor="middle" x="308" y="-63.5" font-family="Helvetica,sans-Serif" font-size="10.00">G4VisAttributes.hh</text>
</a>
</g>
</g>
<!-- Node5&#45;&gt;Node16 -->
<g id="edge10" class="edge">
<title>Node5&#45;&gt;Node16</title>
<path fill="none" stroke="midnightblue" d="M410.67,-112.44C390.68,-103.6 359.26,-89.69 336.44,-79.59"/>
<polygon fill="midnightblue" stroke="midnightblue" points="337.8,-76.36 327.24,-75.52 334.97,-82.76 337.8,-76.36"/>
</g>
<!-- Node17 -->
<g id="node12" class="node">
<title>Node17</title>
<g id="a_node12"><a xlink:title=" ">
<polygon fill="white" stroke="#bfbfbf" points="380.5,-56.5 380.5,-75.5 505.5,-75.5 505.5,-56.5 380.5,-56.5"/>
<text text-anchor="middle" x="443" y="-63.5" font-family="Helvetica,sans-Serif" font-size="10.00">G4SubtractionSolid.hh</text>
</a>
</g>
</g>
<!-- Node5&#45;&gt;Node17 -->
<g id="edge11" class="edge">
<title>Node5&#45;&gt;Node17</title>
<path fill="none" stroke="midnightblue" d="M432.15,-112.08C433.87,-104.93 436.35,-94.64 438.5,-85.69"/>
<polygon fill="midnightblue" stroke="midnightblue" points="441.96,-86.29 440.89,-75.75 435.15,-84.65 441.96,-86.29"/>
</g>
<!-- Node18 -->
<g id="node13" class="node">
<title>Node18</title>
<g id="a_node13"><a xlink:title=" ">
<polygon fill="white" stroke="#bfbfbf" points="0,-56.5 0,-75.5 110,-75.5 110,-56.5 0,-56.5"/>
<text text-anchor="middle" x="55" y="-63.5" font-family="Helvetica,sans-Serif" font-size="10.00">G4PVPlacement.hh</text>
</a>
</g>
</g>
<!-- Node5&#45;&gt;Node18 -->
<g id="edge12" class="edge">
<title>Node5&#45;&gt;Node18</title>
<path fill="none" stroke="midnightblue" d="M370.58,-112.44C302.37,-102.62 190.86,-86.56 120.28,-76.4"/>
<polygon fill="midnightblue" stroke="midnightblue" points="120.57,-72.91 110.17,-74.94 119.57,-79.83 120.57,-72.91"/>
</g>
<!-- Node7 -->
<g id="node7" class="node">
<title>Node7</title>
<g id="a_node7"><a xlink:href="_o_m_sim_logger_8hh.html" target="_top" xlink:title=" ">
<polygon fill="white" stroke="red" points="1118.5,-0.5 1118.5,-19.5 1217.5,-19.5 1217.5,-0.5 1118.5,-0.5"/>
<text text-anchor="middle" x="1168" y="-7.5" font-family="Helvetica,sans-Serif" font-size="10.00">OMSimLogger.hh</text>
</a>
</g>
</g>
<!-- Node6&#45;&gt;Node7 -->
<g id="edge6" class="edge">
<title>Node6&#45;&gt;Node7</title>
<path fill="none" stroke="midnightblue" d="M791.63,-57.83C873.97,-47.58 1024.54,-28.85 1108.11,-18.45"/>
<polygon fill="midnightblue" stroke="midnightblue" points="1108.72,-21.9 1118.21,-17.2 1107.85,-14.96 1108.72,-21.9"/>
</g>
<!-- Node12 -->
<g id="node8" class="node">
<title>Node12</title>
<g id="a_node8"><a xlink:title=" ">
<polygon fill="white" stroke="#bfbfbf" points="793.5,-0.5 793.5,-19.5 936.5,-19.5 936.5,-0.5 793.5,-0.5"/>
<text text-anchor="middle" x="865" y="-7.5" font-family="Helvetica,sans-Serif" font-size="10.00">G4OpBoundaryProcess.hh</text>
</a>
</g>
</g>
<!-- Node6&#45;&gt;Node12 -->
<g id="edge7" class="edge">
<title>Node6&#45;&gt;Node12</title>
<path fill="none" stroke="midnightblue" d="M754.76,-56.44C776.32,-47.56 810.26,-33.56 834.79,-23.45"/>
<polygon fill="midnightblue" stroke="midnightblue" points="836.43,-26.56 844.34,-19.52 833.76,-20.09 836.43,-26.56"/>
</g>
<!-- Node13 -->
<g id="node9" class="node">
<title>Node13</title>
<g id="a_node9"><a xlink:title=" ">
<polygon fill="white" stroke="#bfbfbf" points="656.5,-0.5 656.5,-19.5 775.5,-19.5 775.5,-0.5 656.5,-0.5"/>
<text text-anchor="middle" x="716" y="-7.5" font-family="Helvetica,sans-Serif" font-size="10.00">G4SystemOfUnits.hh</text>
</a>
</g>
</g>
<!-- Node6&#45;&gt;Node13 -->
<g id="edge8" class="edge">
<title>Node6&#45;&gt;Node13</title>
<path fill="none" stroke="midnightblue" d="M731.03,-56.08C728.62,-48.85 725.14,-38.41 722.13,-29.4"/>
<polygon fill="midnightblue" stroke="midnightblue" points="725.4,-28.13 718.92,-19.75 718.76,-30.34 725.4,-28.13"/>
</g>
<!-- Node20 -->
<g id="node15" class="node">
<title>Node20</title>
<g id="a_node15"><a xlink:href="_o_m_sim_p_m_t_response_8hh.html" target="_top" xlink:title="Provides simulation for PMT response. This class is responsible for transforming hits on photocathode...">
<polygon fill="white" stroke="black" points="523.5,-56.5 523.5,-75.5 658.5,-75.5 658.5,-56.5 523.5,-56.5"/>
<text text-anchor="middle" x="591" y="-63.5" font-family="Helvetica,sans-Serif" font-size="10.00">OMSimPMTResponse.hh</text>
</a>
</g>
</g>
<!-- Node19&#45;&gt;Node20 -->
<g id="edge14" class="edge">
<title>Node19&#45;&gt;Node20</title>
<path fill="none" stroke="midnightblue" d="M853.64,-168.37C803.27,-148.93 680.84,-101.67 622.68,-79.23"/>
<polygon fill="midnightblue" stroke="midnightblue" points="623.85,-75.93 613.26,-75.59 621.33,-82.46 623.85,-75.93"/>
</g>
<!-- Node25 -->
<g id="node20" class="node">
<title>Node25</title>
<g id="a_node20"><a xlink:href="_o_m_sim_sensitive_detector_8hh.html" target="_top" xlink:title=" ">
<polygon fill="white" stroke="black" points="795.5,-112.5 795.5,-131.5 948.5,-131.5 948.5,-112.5 795.5,-112.5"/>
<text text-anchor="middle" x="872" y="-119.5" font-family="Helvetica,sans-Serif" font-size="10.00">OMSimSensitiveDetector.hh</text>
</a>
</g>
</g>
<!-- Node19&#45;&gt;Node25 -->
<g id="edge20" class="edge">
<title>Node19&#45;&gt;Node25</title>
<path fill="none" stroke="midnightblue" d="M875.34,-168.08C874.82,-161.01 874.06,-150.86 873.41,-141.99"/>
<polygon fill="midnightblue" stroke="midnightblue" points="876.88,-141.47 872.65,-131.75 869.9,-141.98 876.88,-141.47"/>
</g>
<!-- Node27 -->
<g id="node22" class="node">
<title>Node27</title>
<g id="a_node22"><a xlink:title=" ">
<polygon fill="white" stroke="#bfbfbf" points="1070.5,-56.5 1070.5,-75.5 1173.5,-75.5 1173.5,-56.5 1070.5,-56.5"/>
<text text-anchor="middle" x="1122" y="-63.5" font-family="Helvetica,sans-Serif" font-size="10.00">G4ThreeVector.hh</text>
</a>
</g>
</g>
<!-- Node19&#45;&gt;Node27 -->
<g id="edge26" class="edge">
<title>Node19&#45;&gt;Node27</title>
<path fill="none" stroke="midnightblue" d="M891.4,-168.49C921.35,-151.96 985.45,-116.71 996,-112 1025.12,-99.01 1059.24,-87.01 1084.63,-78.67"/>
<polygon fill="midnightblue" stroke="midnightblue" points="1085.81,-81.97 1094.24,-75.56 1083.65,-75.31 1085.81,-81.97"/>
</g>
<!-- Node29 -->
<g id="node24" class="node">
<title>Node29</title>
<g id="a_node24"><a xlink:title=" ">
<polygon fill="white" stroke="#bfbfbf" points="1005.5,-112.5 1005.5,-131.5 1060.5,-131.5 1060.5,-112.5 1005.5,-112.5"/>
<text text-anchor="middle" x="1033" y="-119.5" font-family="Helvetica,sans-Serif" font-size="10.00">fstream</text>
</a>
</g>
</g>
<!-- Node19&#45;&gt;Node29 -->
<g id="edge27" class="edge">
<title>Node19&#45;&gt;Node29</title>
<path fill="none" stroke="midnightblue" d="M900.88,-168.44C927.29,-159.36 969.22,-144.94 998.74,-134.78"/>
<polygon fill="midnightblue" stroke="midnightblue" points="999.92,-138.08 1008.24,-131.52 997.64,-131.46 999.92,-138.08"/>
</g>
<!-- Node20&#45;&gt;Node13 -->
<g id="edge15" class="edge">
<title>Node20&#45;&gt;Node13</title>
<path fill="none" stroke="midnightblue" d="M610.81,-56.44C631.29,-47.6 663.48,-33.69 686.86,-23.59"/>
<polygon fill="midnightblue" stroke="midnightblue" points="688.49,-26.7 696.29,-19.52 685.72,-20.27 688.49,-26.7"/>
</g>
<!-- Node21 -->
<g id="node16" class="node">
<title>Node21</title>
<g id="a_node16"><a xlink:title=" ">
<polygon fill="white" stroke="#bfbfbf" points="486.5,-0.5 486.5,-19.5 559.5,-19.5 559.5,-0.5 486.5,-0.5"/>
<text text-anchor="middle" x="523" y="-7.5" font-family="Helvetica,sans-Serif" font-size="10.00">G4Types.hh</text>
</a>
</g>
</g>
<!-- Node20&#45;&gt;Node21 -->
<g id="edge16" class="edge">
<title>Node20&#45;&gt;Node21</title>
<path fill="none" stroke="midnightblue" d="M580.07,-56.32C569.83,-48.18 554.28,-35.84 542,-26.09"/>
<polygon fill="midnightblue" stroke="midnightblue" points="544.13,-23.31 534.12,-19.83 539.78,-28.79 544.13,-23.31"/>
</g>
<!-- Node22 -->
<g id="node17" class="node">
<title>Node22</title>
<g id="a_node17"><a xlink:title=" ">
<polygon fill="white" stroke="#bfbfbf" points="359,-0.5 359,-19.5 397,-19.5 397,-0.5 359,-0.5"/>
<text text-anchor="middle" x="378" y="-7.5" font-family="Helvetica,sans-Serif" font-size="10.00">map</text>
</a>
</g>
</g>
<!-- Node20&#45;&gt;Node22 -->
<g id="edge17" class="edge">
<title>Node20&#45;&gt;Node22</title>
<path fill="none" stroke="midnightblue" d="M552.52,-56.5C517.01,-48.46 462.62,-35.67 406.9,-20.11"/>
<polygon fill="midnightblue" stroke="midnightblue" points="407.8,-16.72 397.22,-17.38 405.9,-23.46 407.8,-16.72"/>
</g>
<!-- Node23 -->
<g id="node18" class="node">
<title>Node23</title>
<g id="a_node18"><a xlink:title=" ">
<polygon fill="white" stroke="#bfbfbf" points="577.5,-0.5 577.5,-19.5 638.5,-19.5 638.5,-0.5 577.5,-0.5"/>
<text text-anchor="middle" x="608" y="-7.5" font-family="Helvetica,sans-Serif" font-size="10.00">TGraph.h</text>
</a>
</g>
</g>
<!-- Node20&#45;&gt;Node23 -->
<g id="edge18" class="edge">
<title>Node20&#45;&gt;Node23</title>
<path fill="none" stroke="midnightblue" d="M593.81,-56.08C596.08,-48.85 599.37,-38.41 602.21,-29.4"/>
<polygon fill="midnightblue" stroke="midnightblue" points="605.58,-30.34 605.25,-19.75 598.9,-28.24 605.58,-30.34"/>
</g>
<!-- Node24 -->
<g id="node19" class="node">
<title>Node24</title>
<g id="a_node19"><a xlink:title=" ">
<polygon fill="white" stroke="#bfbfbf" points="415.5,-0.5 415.5,-19.5 468.5,-19.5 468.5,-0.5 415.5,-0.5"/>
<text text-anchor="middle" x="442" y="-7.5" font-family="Helvetica,sans-Serif" font-size="10.00">TH2D.h</text>
</a>
</g>
</g>
<!-- Node20&#45;&gt;Node24 -->
<g id="edge19" class="edge">
<title>Node20&#45;&gt;Node24</title>
<path fill="none" stroke="midnightblue" d="M567.39,-56.44C542.54,-47.44 503.23,-33.19 475.25,-23.05"/>
<polygon fill="midnightblue" stroke="midnightblue" points="476.09,-19.63 465.5,-19.52 473.71,-26.21 476.09,-19.63"/>
</g>
<!-- Node25&#45;&gt;Node12 -->
<g id="edge24" class="edge">
<title>Node25&#45;&gt;Node12</title>
<path fill="none" stroke="midnightblue" d="M862.98,-112.34C854.93,-103.93 843.7,-90.36 839,-76 833.58,-59.46 842.37,-41.08 851.16,-28.09"/>
<polygon fill="midnightblue" stroke="midnightblue" points="854.23,-29.82 857.36,-19.7 848.6,-25.67 854.23,-29.82"/>
</g>
<!-- Node25&#45;&gt;Node20 -->
<g id="edge23" class="edge">
<title>Node25&#45;&gt;Node20</title>
<path fill="none" stroke="midnightblue" d="M827.47,-112.44C778.04,-102.94 698.25,-87.61 645.22,-77.42"/>
<polygon fill="midnightblue" stroke="midnightblue" points="645.8,-73.97 635.32,-75.52 644.48,-80.84 645.8,-73.97"/>
</g>
<!-- Node26 -->
<g id="node21" class="node">
<title>Node26</title>
<g id="a_node21"><a xlink:title=" ">
<polygon fill="white" stroke="#bfbfbf" points="914,-56.5 914,-75.5 1052,-75.5 1052,-56.5 914,-56.5"/>
<text text-anchor="middle" x="983" y="-63.5" font-family="Helvetica,sans-Serif" font-size="10.00">G4VSensitiveDetector.hh</text>
</a>
</g>
</g>
<!-- Node25&#45;&gt;Node26 -->
<g id="edge21" class="edge">
<title>Node25&#45;&gt;Node26</title>
<path fill="none" stroke="midnightblue" d="M889.83,-112.32C907.72,-103.62 935.48,-90.12 956.05,-80.11"/>
<polygon fill="midnightblue" stroke="midnightblue" points="957.75,-83.18 965.21,-75.65 954.69,-76.88 957.75,-83.18"/>
</g>
<!-- Node25&#45;&gt;Node27 -->
<g id="edge22" class="edge">
<title>Node25&#45;&gt;Node27</title>
<path fill="none" stroke="midnightblue" d="M911.61,-112.44C955.23,-103.02 1025.4,-87.87 1072.58,-77.68"/>
<polygon fill="midnightblue" stroke="midnightblue" points="1073.54,-81.05 1082.57,-75.52 1072.06,-74.21 1073.54,-81.05"/>
</g>
<!-- Node28 -->
<g id="node23" class="node">
<title>Node28</title>
<g id="a_node23"><a xlink:title=" ">
<polygon fill="white" stroke="#bfbfbf" points="848.5,-56.5 848.5,-75.5 895.5,-75.5 895.5,-56.5 848.5,-56.5"/>
<text text-anchor="middle" x="872" y="-63.5" font-family="Helvetica,sans-Serif" font-size="10.00">vector</text>
</a>
</g>
</g>
<!-- Node25&#45;&gt;Node28 -->
<g id="edge25" class="edge">
<title>Node25&#45;&gt;Node28</title>
<path fill="none" stroke="midnightblue" d="M872,-112.08C872,-105.01 872,-94.86 872,-85.99"/>
<polygon fill="midnightblue" stroke="midnightblue" points="875.5,-85.75 872,-75.75 868.5,-85.75 875.5,-85.75"/>
</g>
<!-- Node30&#45;&gt;Node5 -->
<g id="edge29" class="edge">
<title>Node30&#45;&gt;Node5</title>
<path fill="none" stroke="midnightblue" d="M532.67,-168.44C512.68,-159.6 481.26,-145.69 458.44,-135.59"/>
<polygon fill="midnightblue" stroke="midnightblue" points="459.8,-132.36 449.24,-131.52 456.97,-138.76 459.8,-132.36"/>
</g>
<!-- Node30&#45;&gt;Node20 -->
<g id="edge31" class="edge">
<title>Node30&#45;&gt;Node20</title>
<path fill="none" stroke="midnightblue" d="M555.06,-168.37C561.38,-150.54 576,-109.3 584.52,-85.27"/>
<polygon fill="midnightblue" stroke="midnightblue" points="587.91,-86.19 587.95,-75.59 581.31,-83.85 587.91,-86.19"/>
</g>
<!-- Node30&#45;&gt;Node30 -->
<g id="edge30" class="edge">
<title>Node30&#45;&gt;Node30</title>
<path fill="none" stroke="midnightblue" d="M591.45,-187.53C618.26,-190.31 644.5,-187.13 644.5,-178 644.5,-170.01 624.41,-166.58 601.43,-167.71"/>
<polygon fill="midnightblue" stroke="midnightblue" points="601.15,-164.22 591.45,-168.47 601.69,-171.2 601.15,-164.22"/>
</g>
<!-- Node38 -->
<g id="node31" class="node">
<title>Node38</title>
<g id="a_node31"><a xlink:title=" ">
<polygon fill="white" stroke="#bfbfbf" points="1828.5,-224.5 1828.5,-243.5 1945.5,-243.5 1945.5,-224.5 1828.5,-224.5"/>
<text text-anchor="middle" x="1887" y="-231.5" font-family="Helvetica,sans-Serif" font-size="10.00">G4UserRunAction.hh</text>
</a>
</g>
</g>
<!-- Node37&#45;&gt;Node38 -->
<g id="edge37" class="edge">
<title>Node37&#45;&gt;Node38</title>
<path fill="none" stroke="midnightblue" d="M1887,-280.08C1887,-273.01 1887,-262.86 1887,-253.99"/>
<polygon fill="midnightblue" stroke="midnightblue" points="1890.5,-253.75 1887,-243.75 1883.5,-253.75 1890.5,-253.75"/>
</g>
<!-- Node41 -->
<g id="node34" class="node">
<title>Node41</title>
<g id="a_node34"><a xlink:title=" ">
<polygon fill="white" stroke="#bfbfbf" points="2105.5,-224.5 2105.5,-243.5 2244.5,-243.5 2244.5,-224.5 2105.5,-224.5"/>
<text text-anchor="middle" x="2175" y="-231.5" font-family="Helvetica,sans-Serif" font-size="10.00">G4UserTrackingAction.hh</text>
</a>
</g>
</g>
<!-- Node40&#45;&gt;Node41 -->
<g id="edge40" class="edge">
<title>Node40&#45;&gt;Node41</title>
<path fill="none" stroke="midnightblue" d="M2175.83,-280.08C2175.7,-273.01 2175.52,-262.86 2175.35,-253.99"/>
<polygon fill="midnightblue" stroke="midnightblue" points="2178.85,-253.68 2175.16,-243.75 2171.85,-253.81 2178.85,-253.68"/>
</g>
<!-- Node43 -->
<g id="node36" class="node">
<title>Node43</title>
<g id="a_node36"><a xlink:title=" ">
<polygon fill="white" stroke="#bfbfbf" points="2262.5,-224.5 2262.5,-243.5 2403.5,-243.5 2403.5,-224.5 2262.5,-224.5"/>
<text text-anchor="middle" x="2333" y="-231.5" font-family="Helvetica,sans-Serif" font-size="10.00">G4UserSteppingAction.hh</text>
</a>
</g>
</g>
<!-- Node42&#45;&gt;Node43 -->
<g id="edge42" class="edge">
<title>Node42&#45;&gt;Node43</title>
<path fill="none" stroke="midnightblue" d="M2333,-280.08C2333,-273.01 2333,-262.86 2333,-253.99"/>
<polygon fill="midnightblue" stroke="midnightblue" points="2336.5,-253.75 2333,-243.75 2329.5,-253.75 2336.5,-253.75"/>
</g>
<!-- Node45 -->
<g id="node38" class="node">
<title>Node45</title>
<g id="a_node38"><a xlink:href="_o_m_sim_command_args_table_8hh.html" target="_top" xlink:title="Definition of the OMSimCommandArgsTable singleton class, which controls user args.">
<polygon fill="white" stroke="black" points="1171,-168.5 1171,-187.5 1335,-187.5 1335,-168.5 1171,-168.5"/>
<text text-anchor="middle" x="1253" y="-175.5" font-family="Helvetica,sans-Serif" font-size="10.00">OMSimCommandArgsTable.hh</text>
</a>
</g>
</g>
<!-- Node44&#45;&gt;Node45 -->
<g id="edge44" class="edge">
<title>Node44&#45;&gt;Node45</title>
<path fill="none" stroke="midnightblue" d="M1400.27,-224.44C1370.57,-215.28 1323.28,-200.69 1290.33,-190.52"/>
<polygon fill="midnightblue" stroke="midnightblue" points="1291.19,-187.12 1280.6,-187.52 1289.12,-193.81 1291.19,-187.12"/>
</g>
<!-- Node48 -->
<g id="node41" class="node">
<title>Node48</title>
<g id="a_node41"><a xlink:title=" ">
<polygon fill="white" stroke="#bfbfbf" points="1379,-168.5 1379,-187.5 1477,-187.5 1477,-168.5 1379,-168.5"/>
<text text-anchor="middle" x="1428" y="-175.5" font-family="Helvetica,sans-Serif" font-size="10.00">G4UImanager.hh</text>
</a>
</g>
</g>
<!-- Node44&#45;&gt;Node48 -->
<g id="edge49" class="edge">
<title>Node44&#45;&gt;Node48</title>
<path fill="none" stroke="midnightblue" d="M1428,-224.08C1428,-217.01 1428,-206.86 1428,-197.99"/>
<polygon fill="midnightblue" stroke="midnightblue" points="1431.5,-197.75 1428,-187.75 1424.5,-197.75 1431.5,-197.75"/>
</g>
<!-- Node45&#45;&gt;Node7 -->
<g id="edge45" class="edge">
<title>Node45&#45;&gt;Node7</title>
<path fill="none" stroke="midnightblue" d="M1265.74,-168.41C1281.89,-156.37 1306.45,-133.55 1296,-112 1275.52,-69.76 1227.86,-39.86 1196.82,-24.04"/>
<polygon fill="midnightblue" stroke="midnightblue" points="1198.29,-20.86 1187.78,-19.58 1195.2,-27.14 1198.29,-20.86"/>
</g>
<!-- Node45&#45;&gt;Node29 -->
<g id="edge46" class="edge">
<title>Node45&#45;&gt;Node29</title>
<path fill="none" stroke="midnightblue" d="M1218.14,-168.44C1177.93,-158.57 1112.06,-142.41 1070.69,-132.25"/>
<polygon fill="midnightblue" stroke="midnightblue" points="1071.28,-128.79 1060.73,-129.81 1069.61,-135.59 1071.28,-128.79"/>
</g>
<!-- Node46 -->
<g id="node39" class="node">
<title>Node46</title>
<g id="a_node39"><a xlink:title=" ">
<polygon fill="white" stroke="#bfbfbf" points="1117,-112.5 1117,-131.5 1201,-131.5 1201,-112.5 1117,-112.5"/>
<text text-anchor="middle" x="1159" y="-119.5" font-family="Helvetica,sans-Serif" font-size="10.00">boost/any.hpp</text>
</a>
</g>
</g>
<!-- Node45&#45;&gt;Node46 -->
<g id="edge47" class="edge">
<title>Node45&#45;&gt;Node46</title>
<path fill="none" stroke="midnightblue" d="M1237.9,-168.32C1223.1,-159.82 1200.31,-146.73 1183.02,-136.8"/>
<polygon fill="midnightblue" stroke="midnightblue" points="1184.48,-133.6 1174.07,-131.65 1180.99,-139.67 1184.48,-133.6"/>
</g>
<!-- Node47 -->
<g id="node40" class="node">
<title>Node47</title>
<g id="a_node40"><a xlink:title=" ">
<polygon fill="white" stroke="#bfbfbf" points="1219,-112.5 1219,-131.5 1287,-131.5 1287,-112.5 1219,-112.5"/>
<text text-anchor="middle" x="1253" y="-119.5" font-family="Helvetica,sans-Serif" font-size="10.00">sys/time.h</text>
</a>
</g>
</g>
<!-- Node45&#45;&gt;Node47 -->
<g id="edge48" class="edge">
<title>Node45&#45;&gt;Node47</title>
<path fill="none" stroke="midnightblue" d="M1253,-168.08C1253,-161.01 1253,-150.86 1253,-141.99"/>
<polygon fill="midnightblue" stroke="midnightblue" points="1256.5,-141.75 1253,-131.75 1249.5,-141.75 1256.5,-141.75"/>
</g>
<!-- Node54&#45;&gt;Node4 -->
<g id="edge56" class="edge">
<title>Node54&#45;&gt;Node4</title>
<path fill="none" stroke="midnightblue" d="M384.59,-336.37C407.46,-317.73 461.71,-273.53 490.43,-250.13"/>
<polygon fill="midnightblue" stroke="midnightblue" points="492.91,-252.62 498.46,-243.59 488.49,-247.19 492.91,-252.62"/>
</g>
<!-- Node55 -->
<g id="node48" class="node">
<title>Node55</title>
<g id="a_node48"><a xlink:title=" ">
<polygon fill="white" stroke="#bfbfbf" points="278.5,-280.5 278.5,-299.5 345.5,-299.5 345.5,-280.5 278.5,-280.5"/>
<text text-anchor="middle" x="312" y="-287.5" font-family="Helvetica,sans-Serif" font-size="10.00">globals.hh</text>
</a>
</g>
</g>
<!-- Node54&#45;&gt;Node55 -->
<g id="edge57" class="edge">
<title>Node54&#45;&gt;Node55</title>
<path fill="none" stroke="midnightblue" d="M364.04,-336.32C354.87,-328.34 341.06,-316.31 329.97,-306.65"/>
<polygon fill="midnightblue" stroke="midnightblue" points="331.98,-303.76 322.14,-299.83 327.38,-309.04 331.98,-303.76"/>
</g>
<!-- Node56&#45;&gt;Node27 -->
<g id="edge60" class="edge">
<title>Node56&#45;&gt;Node27</title>
<path fill="none" stroke="midnightblue" d="M1039.98,-168.37C1054.74,-150.14 1089.29,-107.43 1108.51,-83.68"/>
<polygon fill="midnightblue" stroke="midnightblue" points="1111.48,-85.57 1115.05,-75.59 1106.04,-81.16 1111.48,-85.57"/>
</g>
<!-- Node56&#45;&gt;Node29 -->
<g id="edge61" class="edge">
<title>Node56&#45;&gt;Node29</title>
<path fill="none" stroke="midnightblue" d="M1033,-168.08C1033,-161.01 1033,-150.86 1033,-141.99"/>
<polygon fill="midnightblue" stroke="midnightblue" points="1036.5,-141.75 1033,-131.75 1029.5,-141.75 1036.5,-141.75"/>
</g>
<!-- Node57&#45;&gt;Node3 -->
<g id="edge65" class="edge">
<title>Node57&#45;&gt;Node3</title>
<path fill="none" stroke="midnightblue" d="M624.91,-336.44C643.25,-327.68 672.01,-313.94 693.09,-303.86"/>
<polygon fill="midnightblue" stroke="midnightblue" points="694.67,-306.99 702.18,-299.52 691.65,-300.67 694.67,-306.99"/>
</g>
<!-- Node57&#45;&gt;Node4 -->
<g id="edge63" class="edge">
<title>Node57&#45;&gt;Node4</title>
<path fill="none" stroke="midnightblue" d="M599.31,-336.37C582.99,-318.05 544.68,-275.05 523.58,-251.36"/>
<polygon fill="midnightblue" stroke="midnightblue" points="525.92,-248.73 516.65,-243.59 520.69,-253.39 525.92,-248.73"/>
</g>
<!-- Node57&#45;&gt;Node5 -->
<g id="edge64" class="edge">
<title>Node57&#45;&gt;Node5</title>
<path fill="none" stroke="midnightblue" d="M572.47,-336.41C530.52,-323.92 461.58,-296.31 431,-244 412.34,-212.07 418.87,-166.84 424.77,-141.7"/>
<polygon fill="midnightblue" stroke="midnightblue" points="428.24,-142.23 427.34,-131.68 421.46,-140.49 428.24,-142.23"/>
</g>
<!-- Node57&#45;&gt;Node33 -->
<g id="edge66" class="edge">
<title>Node57&#45;&gt;Node33</title>
<path fill="none" stroke="midnightblue" d="M608.57,-336.37C611.8,-318.62 619.24,-277.67 623.62,-253.6"/>
<polygon fill="midnightblue" stroke="midnightblue" points="627.09,-254.06 625.44,-243.59 620.21,-252.8 627.09,-254.06"/>
</g>
</g>
</svg>
