<?xml version="1.0" encoding="UTF-8" standalone="no"?>
<!DOCTYPE svg PUBLIC "-//W3C//DTD SVG 1.1//EN"
 "http://www.w3.org/Graphics/SVG/1.1/DTD/svg11.dtd">
<!-- Generated by graphviz version 2.43.0 (0)
 -->
<!-- Title: OMSimPMTConstruction.hh Pages: 1 -->
<svg width="1005pt" height="253pt"
 viewBox="0.00 0.00 1004.50 252.86" xmlns="http://www.w3.org/2000/svg" xmlns:xlink="http://www.w3.org/1999/xlink">
<g id="graph0" class="graph" transform="scale(1 1) rotate(0) translate(4 248.86)">
<title>OMSimPMTConstruction.hh</title>
<!-- Node1 -->
<g id="node1" class="node">
<title>Node1</title>
<g id="a_node1"><a xlink:title="Construction of the PMTs.">
<polygon fill="#bfbfbf" stroke="black" points="258,-224.5 258,-243.5 407,-243.5 407,-224.5 258,-224.5"/>
<text text-anchor="middle" x="332.5" y="-231.5" font-family="Helvetica,sans-Serif" font-size="10.00">OMSimPMTConstruction.hh</text>
</a>
</g>
</g>
<!-- Node1&#45;&gt;Node1 -->
<g id="edge29" class="edge">
<title>Node1&#45;&gt;Node1</title>
<path fill="none" stroke="midnightblue" d="M381.93,-244.29C404.91,-245.42 425,-241.99 425,-234 425,-224.87 398.76,-221.69 371.95,-224.47"/>
<polygon fill="midnightblue" stroke="midnightblue" points="382.19,-240.8 371.95,-243.53 381.65,-247.78 382.19,-240.8"/>
</g>
<!-- Node2 -->
<g id="node2" class="node">
<title>Node2</title>
<g id="a_node2"><a xlink:href="_o_m_sim_d_e_g_g_8hh.html" target="_top" xlink:title="Construction of the DEGG class. From DOUMEKI.">
<polygon fill="none" stroke="black" points="31,-112.5 31,-131.5 126,-131.5 126,-112.5 31,-112.5"/>
<text text-anchor="middle" x="78.5" y="-119.5" font-family="Helvetica,sans-Serif" font-size="10.00">OMSimDEGG.hh</text>
</a>
</g>
</g>
<!-- Node1&#45;&gt;Node2 -->
<g id="edge1" class="edge">
<title>Node1&#45;&gt;Node2</title>
<path fill="none" stroke="midnightblue" d="M303.19,-220.3C250.9,-197.66 142.86,-150.87 98.34,-131.59"/>
<polygon fill="midnightblue" stroke="midnightblue" points="302,-223.61 312.57,-224.37 304.78,-217.18 302,-223.61"/>
</g>
<!-- Node3 -->
<g id="node3" class="node">
<title>Node3</title>
<g id="a_node3"><a xlink:href="_o_m_sim_l_o_m16_8hh.html" target="_top" xlink:title="Construction of LOM16.">
<polygon fill="none" stroke="black" points="144,-112.5 144,-131.5 245,-131.5 245,-112.5 144,-112.5"/>
<text text-anchor="middle" x="194.5" y="-119.5" font-family="Helvetica,sans-Serif" font-size="10.00">OMSimLOM16.hh</text>
</a>
</g>
</g>
<!-- Node1&#45;&gt;Node3 -->
<g id="edge2" class="edge">
<title>Node1&#45;&gt;Node3</title>
<path fill="none" stroke="midnightblue" d="M313.83,-218.12C284.54,-194.77 228.71,-150.27 205.28,-131.59"/>
<polygon fill="midnightblue" stroke="midnightblue" points="311.67,-220.87 321.67,-224.37 316.03,-215.4 311.67,-220.87"/>
</g>
<!-- Node4 -->
<g id="node4" class="node">
<title>Node4</title>
<g id="a_node4"><a xlink:href="_o_m_sim_l_o_m18_8hh.html" target="_top" xlink:title="Construction of LOM18.">
<polygon fill="none" stroke="black" points="263,-112.5 263,-131.5 364,-131.5 364,-112.5 263,-112.5"/>
<text text-anchor="middle" x="313.5" y="-119.5" font-family="Helvetica,sans-Serif" font-size="10.00">OMSimLOM18.hh</text>
</a>
</g>
</g>
<!-- Node1&#45;&gt;Node4 -->
<g id="edge3" class="edge">
<title>Node1&#45;&gt;Node4</title>
<path fill="none" stroke="midnightblue" d="M329.28,-214.35C325.12,-190.25 318.04,-149.31 314.98,-131.59"/>
<polygon fill="midnightblue" stroke="midnightblue" points="325.86,-215.11 331.01,-224.37 332.76,-213.92 325.86,-215.11"/>
</g>
<!-- Node6 -->
<g id="node6" class="node">
<title>Node6</title>
<g id="a_node6"><a xlink:href="_o_m_sim_m_d_o_m_8hh.html" target="_top" xlink:title="Construction of mDOM.">
<polygon fill="none" stroke="black" points="382.5,-112.5 382.5,-131.5 482.5,-131.5 482.5,-112.5 382.5,-112.5"/>
<text text-anchor="middle" x="432.5" y="-119.5" font-family="Helvetica,sans-Serif" font-size="10.00">OMSimMDOM.hh</text>
</a>
</g>
</g>
<!-- Node1&#45;&gt;Node6 -->
<g id="edge5" class="edge">
<title>Node1&#45;&gt;Node6</title>
<path fill="none" stroke="midnightblue" d="M340.56,-214.87C347.27,-201.04 357.77,-182.05 370.5,-168 384.25,-152.82 403.89,-139.62 417.36,-131.51"/>
<polygon fill="midnightblue" stroke="midnightblue" points="337.23,-213.72 336.19,-224.27 343.58,-216.67 337.23,-213.72"/>
</g>
<!-- Node7 -->
<g id="node7" class="node">
<title>Node7</title>
<g id="a_node7"><a xlink:href="_o_m_sim_optical_module_8hh_source.html" target="_top" xlink:title=" ">
<polygon fill="none" stroke="black" points="380,-168.5 380,-187.5 517,-187.5 517,-168.5 380,-168.5"/>
<text text-anchor="middle" x="448.5" y="-175.5" font-family="Helvetica,sans-Serif" font-size="10.00">OMSimOpticalModule.hh</text>
</a>
</g>
</g>
<!-- Node1&#45;&gt;Node7 -->
<g id="edge6" class="edge">
<title>Node1&#45;&gt;Node7</title>
<path fill="none" stroke="midnightblue" d="M360.22,-220.1C381.89,-210.01 411.4,-196.27 430.21,-187.52"/>
<polygon fill="midnightblue" stroke="midnightblue" points="358.47,-217.05 350.88,-224.44 361.42,-223.4 358.47,-217.05"/>
</g>
<!-- Node18 -->
<g id="node18" class="node">
<title>Node18</title>
<g id="a_node18"><a xlink:href="_o_m_sim_p_d_o_m_8hh.html" target="_top" xlink:title="Implementation of the pDOM/Gen1 DOM class.">
<polygon fill="none" stroke="black" points="765,-112.5 765,-131.5 862,-131.5 862,-112.5 765,-112.5"/>
<text text-anchor="middle" x="813.5" y="-119.5" font-family="Helvetica,sans-Serif" font-size="10.00">OMSimPDOM.hh</text>
</a>
</g>
</g>
<!-- Node1&#45;&gt;Node18 -->
<g id="edge28" class="edge">
<title>Node1&#45;&gt;Node18</title>
<path fill="none" stroke="midnightblue" d="M379.8,-222.18C475.35,-200.33 689.63,-151.33 776.18,-131.53"/>
<polygon fill="midnightblue" stroke="midnightblue" points="378.81,-218.82 369.84,-224.46 380.37,-225.64 378.81,-218.82"/>
</g>
<!-- Node5 -->
<g id="node5" class="node">
<title>Node5</title>
<g id="a_node5"><a xlink:href="_o_m_sim_l_o_m18_8cc.html" target="_top" xlink:title=" ">
<polygon fill="none" stroke="black" points="0,-56.5 0,-75.5 99,-75.5 99,-56.5 0,-56.5"/>
<text text-anchor="middle" x="49.5" y="-63.5" font-family="Helvetica,sans-Serif" font-size="10.00">OMSimLOM18.cc</text>
</a>
</g>
</g>
<!-- Node4&#45;&gt;Node5 -->
<g id="edge4" class="edge">
<title>Node4&#45;&gt;Node5</title>
<path fill="none" stroke="midnightblue" d="M261.72,-110.41C211.83,-100.2 137.3,-84.96 91.14,-75.52"/>
<polygon fill="midnightblue" stroke="midnightblue" points="261.17,-113.87 271.67,-112.44 262.57,-107.01 261.17,-113.87"/>
</g>
<!-- Node7&#45;&gt;Node2 -->
<g id="edge7" class="edge">
<title>Node7&#45;&gt;Node2</title>
<path fill="none" stroke="midnightblue" d="M376.85,-167.09C313.17,-158.19 217.58,-144.63 134.5,-132 131.77,-131.59 128.97,-131.15 126.15,-130.71"/>
<polygon fill="midnightblue" stroke="midnightblue" points="376.4,-170.56 386.79,-168.47 377.37,-163.62 376.4,-170.56"/>
</g>
<!-- Node7&#45;&gt;Node3 -->
<g id="edge21" class="edge">
<title>Node7&#45;&gt;Node3</title>
<path fill="none" stroke="midnightblue" d="M398.38,-166.35C350.38,-156.14 278.88,-140.94 234.56,-131.52"/>
<polygon fill="midnightblue" stroke="midnightblue" points="397.74,-169.79 408.25,-168.44 399.2,-162.94 397.74,-169.79"/>
</g>
<!-- Node7&#45;&gt;Node4 -->
<g id="edge22" class="edge">
<title>Node7&#45;&gt;Node4</title>
<path fill="none" stroke="midnightblue" d="M417.59,-164.64C392.26,-154.5 357.07,-140.43 334.79,-131.52"/>
<polygon fill="midnightblue" stroke="midnightblue" points="416.52,-167.98 427.11,-168.44 419.12,-161.48 416.52,-167.98"/>
</g>
<!-- Node7&#45;&gt;Node6 -->
<g id="edge23" class="edge">
<title>Node7&#45;&gt;Node6</title>
<path fill="none" stroke="midnightblue" d="M442.99,-158.4C440.31,-149.36 437.22,-138.94 435.09,-131.75"/>
<polygon fill="midnightblue" stroke="midnightblue" points="439.66,-159.49 445.86,-168.08 446.37,-157.5 439.66,-159.49"/>
</g>
<!-- Node8 -->
<g id="node8" class="node">
<title>Node8</title>
<g id="a_node8"><a xlink:href="_o_m_sim_detector_construction_8hh_source.html" target="_top" xlink:title=" ">
<polygon fill="none" stroke="black" points="500.5,-112.5 500.5,-131.5 670.5,-131.5 670.5,-112.5 500.5,-112.5"/>
<text text-anchor="middle" x="585.5" y="-119.5" font-family="Helvetica,sans-Serif" font-size="10.00">OMSimDetectorConstruction.hh</text>
</a>
</g>
</g>
<!-- Node7&#45;&gt;Node8 -->
<g id="edge8" class="edge">
<title>Node7&#45;&gt;Node8</title>
<path fill="none" stroke="midnightblue" d="M479.52,-164.77C505.26,-154.63 541.19,-140.47 563.89,-131.52"/>
<polygon fill="midnightblue" stroke="midnightblue" points="478.23,-161.52 470.21,-168.44 480.79,-168.03 478.23,-161.52"/>
</g>
<!-- Node16 -->
<g id="node16" class="node">
<title>Node16</title>
<g id="a_node16"><a xlink:href="_o_m_sim_rad_decays_detector_8hh.html" target="_top" xlink:title="Defines the OMSimRadDecaysDetector class for the radioactive decays simulation.">
<polygon fill="none" stroke="black" points="693,-56.5 693,-75.5 856,-75.5 856,-56.5 693,-56.5"/>
<text text-anchor="middle" x="774.5" y="-63.5" font-family="Helvetica,sans-Serif" font-size="10.00">OMSimRadDecaysDetector.hh</text>
</a>
</g>
</g>
<!-- Node7&#45;&gt;Node16 -->
<g id="edge27" class="edge">
<title>Node7&#45;&gt;Node16</title>
<path fill="none" stroke="midnightblue" d="M527.25,-169.71C573.03,-163.53 631.05,-152.27 679.5,-132 713.79,-117.65 748.4,-89.84 764.77,-75.7"/>
<polygon fill="midnightblue" stroke="midnightblue" points="526.55,-166.28 517.08,-171.03 527.45,-173.22 526.55,-166.28"/>
</g>
<!-- Node7&#45;&gt;Node18 -->
<g id="edge24" class="edge">
<title>Node7&#45;&gt;Node18</title>
<path fill="none" stroke="midnightblue" d="M516.25,-166.98C588.5,-156.29 701.11,-139.63 764.98,-130.18"/>
<polygon fill="midnightblue" stroke="midnightblue" points="515.72,-163.52 506.34,-168.44 516.74,-170.44 515.72,-163.52"/>
</g>
<!-- Node19 -->
<g id="node19" class="node">
<title>Node19</title>
<g id="a_node19"><a xlink:href="_o_m_sim_decays_g_p_s_8hh.html" target="_top" xlink:title="Defines the OMSimDecaysGPS class for the radioactive decays simulation.">
<polygon fill="none" stroke="black" points="874.5,-56.5 874.5,-75.5 996.5,-75.5 996.5,-56.5 874.5,-56.5"/>
<text text-anchor="middle" x="935.5" y="-63.5" font-family="Helvetica,sans-Serif" font-size="10.00">OMSimDecaysGPS.hh</text>
</a>
</g>
</g>
<!-- Node7&#45;&gt;Node19 -->
<g id="edge25" class="edge">
<title>Node7&#45;&gt;Node19</title>
<path fill="none" stroke="midnightblue" d="M520.06,-166.99C585.59,-157.43 677.53,-142.9 712.5,-132 732.62,-125.73 735.63,-119.03 755.5,-112 800.9,-95.93 854.66,-83.28 891.53,-75.54"/>
<polygon fill="midnightblue" stroke="midnightblue" points="519.18,-163.58 509.78,-168.48 520.18,-170.51 519.18,-163.58"/>
</g>
<!-- Node9 -->
<g id="node9" class="node">
<title>Node9</title>
<g id="a_node9"><a xlink:href="_o_m_sim_8hh.html" target="_top" xlink:title="Main simulation class for the Optical Module (OM) simulation. This file defines the OMSim class,...">
<polygon fill="none" stroke="black" points="608,-56.5 608,-75.5 675,-75.5 675,-56.5 608,-56.5"/>
<text text-anchor="middle" x="641.5" y="-63.5" font-family="Helvetica,sans-Serif" font-size="10.00">OMSim.hh</text>
</a>
</g>
</g>
<!-- Node8&#45;&gt;Node9 -->
<g id="edge9" class="edge">
<title>Node8&#45;&gt;Node9</title>
<path fill="none" stroke="midnightblue" d="M601.83,-105.25C611.76,-95.67 624.09,-83.79 632.34,-75.83"/>
<polygon fill="midnightblue" stroke="midnightblue" points="599.27,-102.86 594.5,-112.32 604.13,-107.9 599.27,-102.86"/>
</g>
<!-- Node14 -->
<g id="node14" class="node">
<title>Node14</title>
<g id="a_node14"><a xlink:href="_o_m_sim_effective_area_detector_8hh.html" target="_top" xlink:title="Defines the OMSimEffectiveAreaDetector class for effective area simulation detector construction.">
<polygon fill="none" stroke="black" points="117,-56.5 117,-75.5 290,-75.5 290,-56.5 117,-56.5"/>
<text text-anchor="middle" x="203.5" y="-63.5" font-family="Helvetica,sans-Serif" font-size="10.00">OMSimEffectiveAreaDetector.hh</text>
</a>
</g>
</g>
<!-- Node8&#45;&gt;Node14 -->
<g id="edge14" class="edge">
<title>Node8&#45;&gt;Node14</title>
<path fill="none" stroke="midnightblue" d="M515.06,-111.04C442.91,-100.84 331.94,-85.16 263.75,-75.52"/>
<polygon fill="midnightblue" stroke="midnightblue" points="514.58,-114.51 524.97,-112.44 515.56,-107.58 514.58,-114.51"/>
</g>
<!-- Node15 -->
<g id="node15" class="node">
<title>Node15</title>
<g id="a_node15"><a xlink:href="_o_m_sim_effi_cali_detector_8hh_source.html" target="_top" xlink:title=" ">
<polygon fill="none" stroke="black" points="308,-56.5 308,-75.5 451,-75.5 451,-56.5 308,-56.5"/>
<text text-anchor="middle" x="379.5" y="-63.5" font-family="Helvetica,sans-Serif" font-size="10.00">OMSimEffiCaliDetector.hh</text>
</a>
</g>
</g>
<!-- Node8&#45;&gt;Node15 -->
<g id="edge16" class="edge">
<title>Node8&#45;&gt;Node15</title>
<path fill="none" stroke="midnightblue" d="M542.88,-109.83C503.99,-99.63 447.34,-84.78 411.99,-75.52"/>
<polygon fill="midnightblue" stroke="midnightblue" points="542.3,-113.29 552.86,-112.44 544.07,-106.52 542.3,-113.29"/>
</g>
<!-- Node8&#45;&gt;Node16 -->
<g id="edge17" class="edge">
<title>Node8&#45;&gt;Node16</title>
<path fill="none" stroke="midnightblue" d="M625.51,-109.57C661.17,-99.38 712.54,-84.7 744.69,-75.52"/>
<polygon fill="midnightblue" stroke="midnightblue" points="624.1,-106.33 615.45,-112.44 626.02,-113.06 624.1,-106.33"/>
</g>
<!-- Node17 -->
<g id="node17" class="node">
<title>Node17</title>
<g id="a_node17"><a xlink:href="_o_m_sim_s_ndetector_8hh_source.html" target="_top" xlink:title=" ">
<polygon fill="none" stroke="black" points="469.5,-56.5 469.5,-75.5 589.5,-75.5 589.5,-56.5 469.5,-56.5"/>
<text text-anchor="middle" x="529.5" y="-63.5" font-family="Helvetica,sans-Serif" font-size="10.00">OMSimSNdetector.hh</text>
</a>
</g>
</g>
<!-- Node8&#45;&gt;Node17 -->
<g id="edge19" class="edge">
<title>Node8&#45;&gt;Node17</title>
<path fill="none" stroke="midnightblue" d="M569.17,-105.25C559.24,-95.67 546.91,-83.79 538.66,-75.83"/>
<polygon fill="midnightblue" stroke="midnightblue" points="566.87,-107.9 576.5,-112.32 571.73,-102.86 566.87,-107.9"/>
</g>
<!-- Node10 -->
<g id="node10" class="node">
<title>Node10</title>
<g id="a_node10"><a xlink:href="_o_m_sim_8cc.html" target="_top" xlink:title="Implementation of the OMSim class.">
<polygon fill="none" stroke="black" points="609,-0.5 609,-19.5 674,-19.5 674,-0.5 609,-0.5"/>
<text text-anchor="middle" x="641.5" y="-7.5" font-family="Helvetica,sans-Serif" font-size="10.00">OMSim.cc</text>
</a>
</g>
</g>
<!-- Node9&#45;&gt;Node10 -->
<g id="edge10" class="edge">
<title>Node9&#45;&gt;Node10</title>
<path fill="none" stroke="midnightblue" d="M641.5,-45.8C641.5,-36.91 641.5,-26.78 641.5,-19.75"/>
<polygon fill="midnightblue" stroke="midnightblue" points="638,-46.08 641.5,-56.08 645,-46.08 638,-46.08"/>
</g>
<!-- Node11 -->
<g id="node11" class="node">
<title>Node11</title>
<g id="a_node11"><a xlink:href="_o_m_sim__effective__area_8cc.html" target="_top" xlink:title="Main for the calculation of effective areas.">
<polygon fill="none" stroke="black" points="224.5,-0.5 224.5,-19.5 364.5,-19.5 364.5,-0.5 224.5,-0.5"/>
<text text-anchor="middle" x="294.5" y="-7.5" font-family="Helvetica,sans-Serif" font-size="10.00">OMSim_effective_area.cc</text>
</a>
</g>
</g>
<!-- Node9&#45;&gt;Node11 -->
<g id="edge11" class="edge">
<title>Node9&#45;&gt;Node11</title>
<path fill="none" stroke="midnightblue" d="M597.84,-55.97C509.75,-40.4 419.37,-27.56 359.91,-19.54"/>
<polygon fill="midnightblue" stroke="midnightblue" points="597.28,-59.43 607.74,-57.74 598.5,-52.54 597.28,-59.43"/>
</g>
<!-- Node12 -->
<g id="node12" class="node">
<title>Node12</title>
<g id="a_node12"><a xlink:href="_o_m_sim__radioactive__decays_8cc.html" target="_top" xlink:title="Main of the radioactive decay study.">
<polygon fill="none" stroke="black" points="692,-0.5 692,-19.5 857,-19.5 857,-0.5 692,-0.5"/>
<text text-anchor="middle" x="774.5" y="-7.5" font-family="Helvetica,sans-Serif" font-size="10.00">OMSim_radioactive_decays.cc</text>
</a>
</g>
</g>
<!-- Node9&#45;&gt;Node12 -->
<g id="edge12" class="edge">
<title>Node9&#45;&gt;Node12</title>
<path fill="none" stroke="midnightblue" d="M671.95,-52.64C696.91,-42.5 731.58,-28.43 753.52,-19.52"/>
<polygon fill="midnightblue" stroke="midnightblue" points="670.52,-49.44 662.57,-56.44 673.16,-55.92 670.52,-49.44"/>
</g>
<!-- Node13 -->
<g id="node13" class="node">
<title>Node13</title>
<g id="a_node13"><a xlink:href="_o_m_sim_supernova_8cc.html" target="_top" xlink:title="Main of the supernova study.">
<polygon fill="none" stroke="black" points="472,-0.5 472,-19.5 589,-19.5 589,-0.5 472,-0.5"/>
<text text-anchor="middle" x="530.5" y="-7.5" font-family="Helvetica,sans-Serif" font-size="10.00">OMSimSupernova.cc</text>
</a>
</g>
</g>
<!-- Node9&#45;&gt;Node13 -->
<g id="edge13" class="edge">
<title>Node9&#45;&gt;Node13</title>
<path fill="none" stroke="midnightblue" d="M614.49,-51.86C593.91,-41.85 566.16,-28.35 548.29,-19.65"/>
<polygon fill="midnightblue" stroke="midnightblue" points="613.14,-55.1 623.67,-56.32 616.2,-48.8 613.14,-55.1"/>
</g>
<!-- Node14&#45;&gt;Node11 -->
<g id="edge15" class="edge">
<title>Node14&#45;&gt;Node11</title>
<path fill="none" stroke="midnightblue" d="M226.79,-51.18C243.54,-41.24 265.6,-28.15 279.92,-19.65"/>
<polygon fill="midnightblue" stroke="midnightblue" points="224.93,-48.21 218.12,-56.32 228.51,-54.23 224.93,-48.21"/>
</g>
<!-- Node16&#45;&gt;Node12 -->
<g id="edge18" class="edge">
<title>Node16&#45;&gt;Node12</title>
<path fill="none" stroke="midnightblue" d="M774.5,-45.8C774.5,-36.91 774.5,-26.78 774.5,-19.75"/>
<polygon fill="midnightblue" stroke="midnightblue" points="771,-46.08 774.5,-56.08 778,-46.08 771,-46.08"/>
</g>
<!-- Node17&#45;&gt;Node13 -->
<g id="edge20" class="edge">
<title>Node17&#45;&gt;Node13</title>
<path fill="none" stroke="midnightblue" d="M529.86,-45.8C530.02,-36.91 530.21,-26.78 530.34,-19.75"/>
<polygon fill="midnightblue" stroke="midnightblue" points="526.35,-46.02 529.67,-56.08 533.35,-46.15 526.35,-46.02"/>
</g>
<!-- Node19&#45;&gt;Node12 -->
<g id="edge26" class="edge">
<title>Node19&#45;&gt;Node12</title>
<path fill="none" stroke="midnightblue" d="M900.24,-53.17C869.92,-43 826.93,-28.59 799.89,-19.52"/>
<polygon fill="midnightblue" stroke="midnightblue" points="899.4,-56.58 909.99,-56.44 901.62,-49.95 899.4,-56.58"/>
</g>
</g>
</svg>
