<?xml version="1.0" encoding="UTF-8" standalone="no"?>
<!DOCTYPE svg PUBLIC "-//W3C//DTD SVG 1.1//EN"
 "http://www.w3.org/Graphics/SVG/1.1/DTD/svg11.dtd">
<!-- Generated by graphviz version 2.43.0 (0)
 -->
<!-- Title: OMSimPMTConstruction.hh Pages: 1 -->
<svg width="2282pt" height="253pt"
 viewBox="0.00 0.00 2282.00 252.86" xmlns="http://www.w3.org/2000/svg" xmlns:xlink="http://www.w3.org/1999/xlink">
<g id="graph0" class="graph" transform="scale(1 1) rotate(0) translate(4 248.86)">
<title>OMSimPMTConstruction.hh</title>
<polygon fill="white" stroke="transparent" points="-4,4 -4,-248.86 2278,-248.86 2278,4 -4,4"/>
<!-- Node1 -->
<g id="node1" class="node">
<title>Node1</title>
<g id="a_node1"><a xlink:title="Construction of the PMTs.">
<polygon fill="#bfbfbf" stroke="black" points="971,-224.5 971,-243.5 1120,-243.5 1120,-224.5 971,-224.5"/>
<text text-anchor="middle" x="1045.5" y="-231.5" font-family="Helvetica,sans-Serif" font-size="10.00">OMSimPMTConstruction.hh</text>
</a>
</g>
</g>
<!-- Node1&#45;&gt;Node1 -->
<g id="edge67" class="edge">
<title>Node1&#45;&gt;Node1</title>
<path fill="none" stroke="midnightblue" d="M1094.93,-244.29C1117.91,-245.42 1138,-241.99 1138,-234 1138,-224.87 1111.76,-221.69 1084.95,-224.47"/>
<polygon fill="midnightblue" stroke="midnightblue" points="1095.19,-240.8 1084.95,-243.53 1094.65,-247.78 1095.19,-240.8"/>
</g>
<!-- Node2 -->
<g id="node2" class="node">
<title>Node2</title>
<g id="a_node2"><a xlink:href="_o_m_sim_d_e_g_g_8hh.html" target="_top" xlink:title="Construction of the DEGG class. From DOUMEKI.">
<polygon fill="white" stroke="black" points="787,-56.5 787,-75.5 882,-75.5 882,-56.5 787,-56.5"/>
<text text-anchor="middle" x="834.5" y="-63.5" font-family="Helvetica,sans-Serif" font-size="10.00">OMSimDEGG.hh</text>
</a>
</g>
</g>
<!-- Node1&#45;&gt;Node2 -->
<g id="edge1" class="edge">
<title>Node1&#45;&gt;Node2</title>
<path fill="none" stroke="midnightblue" d="M1013.73,-220.39C995.55,-212.44 972.8,-201.19 954.5,-188 905.53,-152.72 858.41,-96.83 841.28,-75.58"/>
<polygon fill="midnightblue" stroke="midnightblue" points="1012.46,-223.65 1023.03,-224.35 1015.2,-217.21 1012.46,-223.65"/>
</g>
<!-- Node9 -->
<g id="node9" class="node">
<title>Node9</title>
<g id="a_node9"><a xlink:href="_o_m_sim_l_o_m16_8hh.html" target="_top" xlink:title="Construction of LOM16.">
<polygon fill="white" stroke="black" points="668,-56.5 668,-75.5 769,-75.5 769,-56.5 668,-56.5"/>
<text text-anchor="middle" x="718.5" y="-63.5" font-family="Helvetica,sans-Serif" font-size="10.00">OMSimLOM16.hh</text>
</a>
</g>
</g>
<!-- Node1&#45;&gt;Node9 -->
<g id="edge8" class="edge">
<title>Node1&#45;&gt;Node9</title>
<path fill="none" stroke="midnightblue" d="M1009.25,-221.05C985.34,-212.74 953.55,-200.87 926.5,-188 849.92,-151.56 764,-96.82 731.71,-75.73"/>
<polygon fill="midnightblue" stroke="midnightblue" points="1008.39,-224.45 1018.98,-224.38 1010.66,-217.83 1008.39,-224.45"/>
</g>
<!-- Node11 -->
<g id="node11" class="node">
<title>Node11</title>
<g id="a_node11"><a xlink:href="_o_m_sim_l_o_m18_8hh.html" target="_top" xlink:title="Construction of LOM18.">
<polygon fill="white" stroke="black" points="549,-56.5 549,-75.5 650,-75.5 650,-56.5 549,-56.5"/>
<text text-anchor="middle" x="599.5" y="-63.5" font-family="Helvetica,sans-Serif" font-size="10.00">OMSimLOM18.hh</text>
</a>
</g>
</g>
<!-- Node1&#45;&gt;Node11 -->
<g id="edge15" class="edge">
<title>Node1&#45;&gt;Node11</title>
<path fill="none" stroke="midnightblue" d="M999.81,-221.91C967.31,-213.61 922.81,-201.42 884.5,-188 781.26,-151.83 662.07,-96.7 617.52,-75.62"/>
<polygon fill="midnightblue" stroke="midnightblue" points="999.36,-225.4 1009.92,-224.46 1001.08,-218.62 999.36,-225.4"/>
</g>
<!-- Node13 -->
<g id="node13" class="node">
<title>Node13</title>
<g id="a_node13"><a xlink:href="_o_m_sim_m_d_o_m_8hh.html" target="_top" xlink:title="Construction of mDOM.">
<polygon fill="white" stroke="black" points="1015.5,-56.5 1015.5,-75.5 1115.5,-75.5 1115.5,-56.5 1015.5,-56.5"/>
<text text-anchor="middle" x="1065.5" y="-63.5" font-family="Helvetica,sans-Serif" font-size="10.00">OMSimMDOM.hh</text>
</a>
</g>
</g>
<!-- Node1&#45;&gt;Node13 -->
<g id="edge22" class="edge">
<title>Node1&#45;&gt;Node13</title>
<path fill="none" stroke="midnightblue" d="M1083.88,-220.5C1099.01,-213.48 1114.82,-203.02 1123.5,-188 1146.92,-147.45 1097.81,-95.98 1075.62,-75.74"/>
<polygon fill="midnightblue" stroke="midnightblue" points="1082.45,-217.31 1074.62,-224.44 1085.19,-223.75 1082.45,-217.31"/>
</g>
<!-- Node17 -->
<g id="node17" class="node">
<title>Node17</title>
<g id="a_node17"><a xlink:href="_o_m_sim_optical_module_8hh.html" target="_top" xlink:title=" ">
<polygon fill="white" stroke="black" points="977,-168.5 977,-187.5 1114,-187.5 1114,-168.5 977,-168.5"/>
<text text-anchor="middle" x="1045.5" y="-175.5" font-family="Helvetica,sans-Serif" font-size="10.00">OMSimOpticalModule.hh</text>
</a>
</g>
</g>
<!-- Node1&#45;&gt;Node17 -->
<g id="edge31" class="edge">
<title>Node1&#45;&gt;Node17</title>
<path fill="none" stroke="midnightblue" d="M1045.5,-213.8C1045.5,-204.91 1045.5,-194.78 1045.5,-187.75"/>
<polygon fill="midnightblue" stroke="midnightblue" points="1042,-214.08 1045.5,-224.08 1049,-214.08 1042,-214.08"/>
</g>
<!-- Node24 -->
<g id="node24" class="node">
<title>Node24</title>
<g id="a_node24"><a xlink:href="_o_m_sim_p_m_t_construction_8cc.html" target="_top" xlink:title=" ">
<polygon fill="white" stroke="black" points="2054,-56.5 2054,-75.5 2201,-75.5 2201,-56.5 2054,-56.5"/>
<text text-anchor="middle" x="2127.5" y="-63.5" font-family="Helvetica,sans-Serif" font-size="10.00">OMSimPMTConstruction.cc</text>
</a>
</g>
</g>
<!-- Node1&#45;&gt;Node24 -->
<g id="edge70" class="edge">
<title>Node1&#45;&gt;Node24</title>
<path fill="none" stroke="midnightblue" d="M1115.96,-223.02C1179.01,-214.04 1273.96,-200.39 1356.5,-188 1626.83,-147.42 1949.92,-95.65 2074.72,-75.53"/>
<polygon fill="midnightblue" stroke="midnightblue" points="1115.14,-219.6 1105.73,-224.48 1116.12,-226.53 1115.14,-219.6"/>
</g>
<!-- Node28 -->
<g id="node28" class="node">
<title>Node28</title>
<g id="a_node28"><a xlink:href="_o_m_sim_p_d_o_m_8hh.html" target="_top" xlink:title="Implementation of the pDOM/Gen1 DOM class.">
<polygon fill="white" stroke="black" points="900,-56.5 900,-75.5 997,-75.5 997,-56.5 900,-56.5"/>
<text text-anchor="middle" x="948.5" y="-63.5" font-family="Helvetica,sans-Serif" font-size="10.00">OMSimPDOM.hh</text>
</a>
</g>
</g>
<!-- Node1&#45;&gt;Node28 -->
<g id="edge66" class="edge">
<title>Node1&#45;&gt;Node28</title>
<path fill="none" stroke="midnightblue" d="M1010.06,-220.3C994.95,-213.11 978.53,-202.58 968.5,-188 943.87,-152.22 945.79,-96.63 947.59,-75.52"/>
<polygon fill="midnightblue" stroke="midnightblue" points="1008.66,-223.51 1019.22,-224.35 1011.49,-217.1 1008.66,-223.51"/>
</g>
<!-- Node30 -->
<g id="node30" class="node">
<title>Node30</title>
<g id="a_node30"><a xlink:href="_o_m_sim_optical_module_8cc.html" target="_top" xlink:title=" ">
<polygon fill="white" stroke="black" points="1571.5,-112.5 1571.5,-131.5 1707.5,-131.5 1707.5,-112.5 1571.5,-112.5"/>
<text text-anchor="middle" x="1639.5" y="-119.5" font-family="Helvetica,sans-Serif" font-size="10.00">OMSimOpticalModule.cc</text>
</a>
</g>
</g>
<!-- Node1&#45;&gt;Node30 -->
<g id="edge69" class="edge">
<title>Node1&#45;&gt;Node30</title>
<path fill="none" stroke="midnightblue" d="M1101.78,-222.58C1218.69,-200.93 1485.88,-151.45 1593.41,-131.53"/>
<polygon fill="midnightblue" stroke="midnightblue" points="1100.81,-219.2 1091.62,-224.46 1102.09,-226.08 1100.81,-219.2"/>
</g>
<!-- Node34 -->
<g id="node34" class="node">
<title>Node34</title>
<g id="a_node34"><a xlink:href="abc_detector_component_8cc.html" target="_top" xlink:title=" ">
<polygon fill="white" stroke="black" points="1763.5,-168.5 1763.5,-187.5 1909.5,-187.5 1909.5,-168.5 1763.5,-168.5"/>
<text text-anchor="middle" x="1836.5" y="-175.5" font-family="Helvetica,sans-Serif" font-size="10.00">abcDetectorComponent.cc</text>
</a>
</g>
</g>
<!-- Node1&#45;&gt;Node34 -->
<g id="edge68" class="edge">
<title>Node1&#45;&gt;Node34</title>
<path fill="none" stroke="midnightblue" d="M1130.14,-228.67C1262.43,-221.65 1526.18,-206.68 1749.5,-188 1754.04,-187.62 1758.71,-187.21 1763.42,-186.77"/>
<polygon fill="midnightblue" stroke="midnightblue" points="1129.87,-225.17 1120.07,-229.2 1130.24,-232.16 1129.87,-225.17"/>
</g>
<!-- Node3 -->
<g id="node3" class="node">
<title>Node3</title>
<g id="a_node3"><a xlink:href="_o_m_sim_d_e_g_g_8cc.html" target="_top" xlink:title=" ">
<polygon fill="white" stroke="black" points="421.5,-0.5 421.5,-19.5 515.5,-19.5 515.5,-0.5 421.5,-0.5"/>
<text text-anchor="middle" x="468.5" y="-7.5" font-family="Helvetica,sans-Serif" font-size="10.00">OMSimDEGG.cc</text>
</a>
</g>
</g>
<!-- Node2&#45;&gt;Node3 -->
<g id="edge2" class="edge">
<title>Node2&#45;&gt;Node3</title>
<path fill="none" stroke="midnightblue" d="M776.8,-55.92C663.51,-39.01 633.62,-36.53 524.5,-20 521.58,-19.56 518.57,-19.1 515.54,-18.62"/>
<polygon fill="midnightblue" stroke="midnightblue" points="776.51,-59.41 786.92,-57.43 777.55,-52.49 776.51,-59.41"/>
</g>
<!-- Node4 -->
<g id="node4" class="node">
<title>Node4</title>
<g id="a_node4"><a xlink:href="_o_m_sim_detector_construction_8cc.html" target="_top" xlink:title=" ">
<polygon fill="white" stroke="black" points="234,-0.5 234,-19.5 403,-19.5 403,-0.5 234,-0.5"/>
<text text-anchor="middle" x="318.5" y="-7.5" font-family="Helvetica,sans-Serif" font-size="10.00">OMSimDetectorConstruction.cc</text>
</a>
</g>
</g>
<!-- Node2&#45;&gt;Node4 -->
<g id="edge3" class="edge">
<title>Node2&#45;&gt;Node4</title>
<path fill="none" stroke="midnightblue" d="M776.92,-56.1C724.17,-50.26 520.76,-30.54 403.18,-19.17"/>
<polygon fill="midnightblue" stroke="midnightblue" points="776.61,-59.59 786.94,-57.28 777.42,-52.64 776.61,-59.59"/>
</g>
<!-- Node5 -->
<g id="node5" class="node">
<title>Node5</title>
<g id="a_node5"><a xlink:href="_o_m_sim_effective_area_detector_8cc.html" target="_top" xlink:title=" ">
<polygon fill="white" stroke="black" points="862.5,-0.5 862.5,-19.5 1034.5,-19.5 1034.5,-0.5 862.5,-0.5"/>
<text text-anchor="middle" x="948.5" y="-7.5" font-family="Helvetica,sans-Serif" font-size="10.00">OMSimEffectiveAreaDetector.cc</text>
</a>
</g>
</g>
<!-- Node2&#45;&gt;Node5 -->
<g id="edge4" class="edge">
<title>Node2&#45;&gt;Node5</title>
<path fill="none" stroke="midnightblue" d="M861.74,-52.1C883.04,-42.01 912.04,-28.27 930.52,-19.52"/>
<polygon fill="midnightblue" stroke="midnightblue" points="860.1,-49 852.56,-56.44 863.1,-55.33 860.1,-49"/>
</g>
<!-- Node6 -->
<g id="node6" class="node">
<title>Node6</title>
<g id="a_node6"><a xlink:href="_o_m_sim_rad_decays_detector_8cc.html" target="_top" xlink:title=" ">
<polygon fill="white" stroke="black" points="683,-0.5 683,-19.5 844,-19.5 844,-0.5 683,-0.5"/>
<text text-anchor="middle" x="763.5" y="-7.5" font-family="Helvetica,sans-Serif" font-size="10.00">OMSimRadDecaysDetector.cc</text>
</a>
</g>
</g>
<!-- Node2&#45;&gt;Node6 -->
<g id="edge5" class="edge">
<title>Node2&#45;&gt;Node6</title>
<path fill="none" stroke="midnightblue" d="M814.91,-50.1C802.13,-40.38 785.89,-28.03 775.11,-19.83"/>
<polygon fill="midnightblue" stroke="midnightblue" points="813.01,-53.06 823.09,-56.32 817.25,-47.48 813.01,-53.06"/>
</g>
<!-- Node7 -->
<g id="node7" class="node">
<title>Node7</title>
<g id="a_node7"><a xlink:href="_o_m_sim_yield_detector_8cc.html" target="_top" xlink:title=" ">
<polygon fill="white" stroke="black" points="534,-0.5 534,-19.5 665,-19.5 665,-0.5 534,-0.5"/>
<text text-anchor="middle" x="599.5" y="-7.5" font-family="Helvetica,sans-Serif" font-size="10.00">OMSimYieldDetector.cc</text>
</a>
</g>
</g>
<!-- Node2&#45;&gt;Node7 -->
<g id="edge6" class="edge">
<title>Node2&#45;&gt;Node7</title>
<path fill="none" stroke="midnightblue" d="M787.29,-54.15C742.89,-43.95 677.31,-28.88 636.56,-19.52"/>
<polygon fill="midnightblue" stroke="midnightblue" points="786.73,-57.62 797.26,-56.44 788.3,-50.79 786.73,-57.62"/>
</g>
<!-- Node8 -->
<g id="node8" class="node">
<title>Node8</title>
<g id="a_node8"><a xlink:href="_o_m_sim_s_ndetector_8cc.html" target="_top" xlink:title=" ">
<polygon fill="white" stroke="black" points="1053,-0.5 1053,-19.5 1172,-19.5 1172,-0.5 1053,-0.5"/>
<text text-anchor="middle" x="1112.5" y="-7.5" font-family="Helvetica,sans-Serif" font-size="10.00">OMSimSNdetector.cc</text>
</a>
</g>
</g>
<!-- Node2&#45;&gt;Node8 -->
<g id="edge7" class="edge">
<title>Node2&#45;&gt;Node8</title>
<path fill="none" stroke="midnightblue" d="M888.69,-54.47C941.23,-44.27 1019.94,-28.98 1068.66,-19.52"/>
<polygon fill="midnightblue" stroke="midnightblue" points="887.7,-51.1 878.55,-56.44 889.03,-57.97 887.7,-51.1"/>
</g>
<!-- Node9&#45;&gt;Node4 -->
<g id="edge9" class="edge">
<title>Node9&#45;&gt;Node4</title>
<path fill="none" stroke="midnightblue" d="M657.71,-55.91C556.85,-41.73 452.04,-28.06 385.64,-19.54"/>
<polygon fill="midnightblue" stroke="midnightblue" points="657.38,-59.4 667.77,-57.33 658.36,-52.47 657.38,-59.4"/>
</g>
<!-- Node9&#45;&gt;Node5 -->
<g id="edge11" class="edge">
<title>Node9&#45;&gt;Node5</title>
<path fill="none" stroke="midnightblue" d="M764.7,-54.15C808.16,-43.95 872.34,-28.88 912.23,-19.52"/>
<polygon fill="midnightblue" stroke="midnightblue" points="763.88,-50.75 754.94,-56.44 765.48,-57.57 763.88,-50.75"/>
</g>
<!-- Node9&#45;&gt;Node6 -->
<g id="edge12" class="edge">
<title>Node9&#45;&gt;Node6</title>
<path fill="none" stroke="midnightblue" d="M732.55,-48.14C740.39,-38.74 749.83,-27.4 756.21,-19.75"/>
<polygon fill="midnightblue" stroke="midnightblue" points="729.64,-46.16 725.93,-56.08 735.02,-50.64 729.64,-46.16"/>
</g>
<!-- Node9&#45;&gt;Node7 -->
<g id="edge13" class="edge">
<title>Node9&#45;&gt;Node7</title>
<path fill="none" stroke="midnightblue" d="M690.36,-52.23C668.1,-42.13 637.64,-28.31 618.27,-19.52"/>
<polygon fill="midnightblue" stroke="midnightblue" points="689.09,-55.5 699.64,-56.44 691.98,-49.12 689.09,-55.5"/>
</g>
<!-- Node9&#45;&gt;Node8 -->
<g id="edge14" class="edge">
<title>Node9&#45;&gt;Node8</title>
<path fill="none" stroke="midnightblue" d="M779.22,-55.78C844.09,-46.6 975.66,-29.1 1052.89,-18.88"/>
<polygon fill="midnightblue" stroke="midnightblue" points="778.43,-52.36 769.02,-57.23 779.42,-59.29 778.43,-52.36"/>
</g>
<!-- Node10 -->
<g id="node10" class="node">
<title>Node10</title>
<g id="a_node10"><a xlink:href="_o_m_sim_l_o_m16_8cc.html" target="_top" xlink:title=" ">
<polygon fill="white" stroke="black" points="117,-0.5 117,-19.5 216,-19.5 216,-0.5 117,-0.5"/>
<text text-anchor="middle" x="166.5" y="-7.5" font-family="Helvetica,sans-Serif" font-size="10.00">OMSimLOM16.cc</text>
</a>
</g>
</g>
<!-- Node9&#45;&gt;Node10 -->
<g id="edge10" class="edge">
<title>Node9&#45;&gt;Node10</title>
<path fill="none" stroke="midnightblue" d="M657.59,-55.98C464.51,-33.94 413.41,-42.46 224.5,-20 221.77,-19.68 218.97,-19.32 216.14,-18.94"/>
<polygon fill="midnightblue" stroke="midnightblue" points="657.46,-59.48 667.79,-57.15 658.26,-52.53 657.46,-59.48"/>
</g>
<!-- Node11&#45;&gt;Node4 -->
<g id="edge16" class="edge">
<title>Node11&#45;&gt;Node4</title>
<path fill="none" stroke="midnightblue" d="M545.05,-54.54C491.95,-44.33 412.16,-29 362.82,-19.52"/>
<polygon fill="midnightblue" stroke="midnightblue" points="544.49,-57.99 554.97,-56.44 545.81,-51.12 544.49,-57.99"/>
</g>
<!-- Node11&#45;&gt;Node5 -->
<g id="edge18" class="edge">
<title>Node11&#45;&gt;Node5</title>
<path fill="none" stroke="midnightblue" d="M660.46,-55.57C726.22,-45.39 829.98,-29.34 893.37,-19.53"/>
<polygon fill="midnightblue" stroke="midnightblue" points="659.59,-52.16 650.25,-57.15 660.67,-59.08 659.59,-52.16"/>
</g>
<!-- Node11&#45;&gt;Node6 -->
<g id="edge19" class="edge">
<title>Node11&#45;&gt;Node6</title>
<path fill="none" stroke="midnightblue" d="M635.02,-53.3C665.92,-43.13 709.97,-28.62 737.64,-19.52"/>
<polygon fill="midnightblue" stroke="midnightblue" points="633.89,-49.99 625.49,-56.44 636.08,-56.64 633.89,-49.99"/>
</g>
<!-- Node11&#45;&gt;Node7 -->
<g id="edge20" class="edge">
<title>Node11&#45;&gt;Node7</title>
<path fill="none" stroke="midnightblue" d="M599.5,-45.8C599.5,-36.91 599.5,-26.78 599.5,-19.75"/>
<polygon fill="midnightblue" stroke="midnightblue" points="596,-46.08 599.5,-56.08 603,-46.08 596,-46.08"/>
</g>
<!-- Node11&#45;&gt;Node8 -->
<g id="edge21" class="edge">
<title>Node11&#45;&gt;Node8</title>
<path fill="none" stroke="midnightblue" d="M660.09,-55.87C830.78,-35.18 875.96,-38.75 1043.5,-20 1046.5,-19.66 1049.57,-19.31 1052.68,-18.94"/>
<polygon fill="midnightblue" stroke="midnightblue" points="659.51,-52.41 650,-57.1 660.35,-59.36 659.51,-52.41"/>
</g>
<!-- Node12 -->
<g id="node12" class="node">
<title>Node12</title>
<g id="a_node12"><a xlink:href="_o_m_sim_l_o_m18_8cc.html" target="_top" xlink:title=" ">
<polygon fill="white" stroke="black" points="0,-0.5 0,-19.5 99,-19.5 99,-0.5 0,-0.5"/>
<text text-anchor="middle" x="49.5" y="-7.5" font-family="Helvetica,sans-Serif" font-size="10.00">OMSimLOM18.cc</text>
</a>
</g>
</g>
<!-- Node11&#45;&gt;Node12 -->
<g id="edge17" class="edge">
<title>Node11&#45;&gt;Node12</title>
<path fill="none" stroke="midnightblue" d="M538.67,-60.67C445.6,-53.77 262.38,-39.08 107.5,-20 104.77,-19.66 101.97,-19.3 99.15,-18.91"/>
<polygon fill="midnightblue" stroke="midnightblue" points="538.52,-64.17 548.75,-61.41 539.03,-57.19 538.52,-64.17"/>
</g>
<!-- Node13&#45;&gt;Node4 -->
<g id="edge23" class="edge">
<title>Node13&#45;&gt;Node4</title>
<path fill="none" stroke="midnightblue" d="M1005.07,-55.95C741.76,-28.34 672.83,-40.35 412.5,-20 409.39,-19.76 406.23,-19.5 403.04,-19.23"/>
<polygon fill="midnightblue" stroke="midnightblue" points="1005.02,-59.46 1015.33,-57.03 1005.75,-52.5 1005.02,-59.46"/>
</g>
<!-- Node13&#45;&gt;Node5 -->
<g id="edge27" class="edge">
<title>Node13&#45;&gt;Node5</title>
<path fill="none" stroke="midnightblue" d="M1037.84,-52.23C1015.95,-42.13 986,-28.31 966.95,-19.52"/>
<polygon fill="midnightblue" stroke="midnightblue" points="1036.41,-55.43 1046.96,-56.44 1039.35,-49.08 1036.41,-55.43"/>
</g>
<!-- Node13&#45;&gt;Node6 -->
<g id="edge28" class="edge">
<title>Node13&#45;&gt;Node6</title>
<path fill="none" stroke="midnightblue" d="M1007.7,-54.66C950.62,-44.46 864.38,-29.04 811.13,-19.52"/>
<polygon fill="midnightblue" stroke="midnightblue" points="1007.19,-58.13 1017.65,-56.44 1008.42,-51.24 1007.19,-58.13"/>
</g>
<!-- Node13&#45;&gt;Node7 -->
<g id="edge29" class="edge">
<title>Node13&#45;&gt;Node7</title>
<path fill="none" stroke="midnightblue" d="M1005.39,-55.9C857.22,-36.77 818.21,-36.62 673.5,-20 670.8,-19.69 668.04,-19.37 665.26,-19.04"/>
<polygon fill="midnightblue" stroke="midnightblue" points="1004.94,-59.37 1015.31,-57.19 1005.84,-52.43 1004.94,-59.37"/>
</g>
<!-- Node13&#45;&gt;Node8 -->
<g id="edge30" class="edge">
<title>Node13&#45;&gt;Node8</title>
<path fill="none" stroke="midnightblue" d="M1079.92,-48.43C1088.16,-38.97 1098.15,-27.48 1104.88,-19.75"/>
<polygon fill="midnightblue" stroke="midnightblue" points="1077.19,-46.24 1073.26,-56.08 1082.47,-50.84 1077.19,-46.24"/>
</g>
<!-- Node14 -->
<g id="node14" class="node">
<title>Node14</title>
<g id="a_node14"><a xlink:href="_o_m_sim_m_d_o_m_8cc.html" target="_top" xlink:title=" ">
<polygon fill="white" stroke="black" points="1611.5,-0.5 1611.5,-19.5 1709.5,-19.5 1709.5,-0.5 1611.5,-0.5"/>
<text text-anchor="middle" x="1660.5" y="-7.5" font-family="Helvetica,sans-Serif" font-size="10.00">OMSimMDOM.cc</text>
</a>
</g>
</g>
<!-- Node13&#45;&gt;Node14 -->
<g id="edge24" class="edge">
<title>Node13&#45;&gt;Node14</title>
<path fill="none" stroke="midnightblue" d="M1125.2,-56.03C1125.3,-56.02 1125.4,-56.01 1125.5,-56 1336.77,-32.22 1391.29,-44.32 1602.5,-20 1605.44,-19.66 1608.45,-19.29 1611.49,-18.88"/>
<polygon fill="midnightblue" stroke="midnightblue" points="1125.06,-52.53 1115.55,-57.21 1125.9,-59.47 1125.06,-52.53"/>
</g>
<!-- Node15 -->
<g id="node15" class="node">
<title>Node15</title>
<g id="a_node15"><a xlink:href="_o_m_sim_m_d_o_m_flasher_8cc.html" target="_top" xlink:title=" ">
<polygon fill="white" stroke="black" points="1303.5,-0.5 1303.5,-19.5 1437.5,-19.5 1437.5,-0.5 1303.5,-0.5"/>
<text text-anchor="middle" x="1370.5" y="-7.5" font-family="Helvetica,sans-Serif" font-size="10.00">OMSimMDOMFlasher.cc</text>
</a>
</g>
</g>
<!-- Node13&#45;&gt;Node15 -->
<g id="edge25" class="edge">
<title>Node13&#45;&gt;Node15</title>
<path fill="none" stroke="midnightblue" d="M1123.88,-54.66C1181.52,-44.46 1268.62,-29.04 1322.4,-19.52"/>
<polygon fill="midnightblue" stroke="midnightblue" points="1123.06,-51.25 1113.83,-56.44 1124.29,-58.15 1123.06,-51.25"/>
</g>
<!-- Node16 -->
<g id="node16" class="node">
<title>Node16</title>
<g id="a_node16"><a xlink:href="_o_m_sim_m_d_o_m_harness_8cc.html" target="_top" xlink:title=" ">
<polygon fill="white" stroke="black" points="1455.5,-0.5 1455.5,-19.5 1593.5,-19.5 1593.5,-0.5 1455.5,-0.5"/>
<text text-anchor="middle" x="1524.5" y="-7.5" font-family="Helvetica,sans-Serif" font-size="10.00">OMSimMDOMHarness.cc</text>
</a>
</g>
</g>
<!-- Node13&#45;&gt;Node16 -->
<g id="edge26" class="edge">
<title>Node13&#45;&gt;Node16</title>
<path fill="none" stroke="midnightblue" d="M1125.2,-56.04C1125.3,-56.03 1125.4,-56.01 1125.5,-56 1267.84,-37.35 1303.86,-36.23 1446.5,-20 1449.34,-19.68 1452.25,-19.35 1455.18,-19.01"/>
<polygon fill="midnightblue" stroke="midnightblue" points="1125.01,-52.53 1115.57,-57.35 1125.95,-59.47 1125.01,-52.53"/>
</g>
<!-- Node17&#45;&gt;Node2 -->
<g id="edge32" class="edge">
<title>Node17&#45;&gt;Node2</title>
<path fill="none" stroke="midnightblue" d="M1020.06,-163.73C976.22,-140.88 887.65,-94.71 850.98,-75.59"/>
<polygon fill="midnightblue" stroke="midnightblue" points="1018.46,-166.85 1028.94,-168.37 1021.69,-160.64 1018.46,-166.85"/>
</g>
<!-- Node17&#45;&gt;Node9 -->
<g id="edge50" class="edge">
<title>Node17&#45;&gt;Node9</title>
<path fill="none" stroke="midnightblue" d="M1010.54,-165.24C944.38,-142.98 802.25,-95.17 744.1,-75.61"/>
<polygon fill="midnightblue" stroke="midnightblue" points="1009.52,-168.59 1020.11,-168.46 1011.75,-161.95 1009.52,-168.59"/>
</g>
<!-- Node17&#45;&gt;Node11 -->
<g id="edge51" class="edge">
<title>Node17&#45;&gt;Node11</title>
<path fill="none" stroke="midnightblue" d="M996.54,-166.26C956.62,-157.39 898.81,-144.31 848.5,-132 769.95,-112.78 678,-88.25 630.87,-75.52"/>
<polygon fill="midnightblue" stroke="midnightblue" points="996.02,-169.73 1006.54,-168.47 997.54,-162.89 996.02,-169.73"/>
</g>
<!-- Node17&#45;&gt;Node13 -->
<g id="edge52" class="edge">
<title>Node17&#45;&gt;Node13</title>
<path fill="none" stroke="midnightblue" d="M1048.89,-158.35C1053.27,-134.25 1060.72,-93.31 1063.94,-75.59"/>
<polygon fill="midnightblue" stroke="midnightblue" points="1045.41,-157.9 1047.07,-168.37 1052.3,-159.16 1045.41,-157.9"/>
</g>
<!-- Node18 -->
<g id="node18" class="node">
<title>Node18</title>
<g id="a_node18"><a xlink:href="_o_m_sim_detector_construction_8hh.html" target="_top" xlink:title=" ">
<polygon fill="white" stroke="black" points="1243.5,-112.5 1243.5,-131.5 1413.5,-131.5 1413.5,-112.5 1243.5,-112.5"/>
<text text-anchor="middle" x="1328.5" y="-119.5" font-family="Helvetica,sans-Serif" font-size="10.00">OMSimDetectorConstruction.hh</text>
</a>
</g>
</g>
<!-- Node17&#45;&gt;Node18 -->
<g id="edge33" class="edge">
<title>Node17&#45;&gt;Node18</title>
<path fill="none" stroke="midnightblue" d="M1100.33,-166.54C1153.82,-156.33 1234.17,-141 1283.87,-131.52"/>
<polygon fill="midnightblue" stroke="midnightblue" points="1099.51,-163.13 1090.34,-168.44 1100.82,-170.01 1099.51,-163.13"/>
</g>
<!-- Node26 -->
<g id="node26" class="node">
<title>Node26</title>
<g id="a_node26"><a xlink:href="_o_m_sim_rad_decays_detector_8hh.html" target="_top" xlink:title="Defines the OMSimRadDecaysDetector class for the radioactive decays simulation.">
<polygon fill="white" stroke="black" points="1134,-56.5 1134,-75.5 1297,-75.5 1297,-56.5 1134,-56.5"/>
<text text-anchor="middle" x="1215.5" y="-63.5" font-family="Helvetica,sans-Serif" font-size="10.00">OMSimRadDecaysDetector.hh</text>
</a>
</g>
</g>
<!-- Node17&#45;&gt;Node26 -->
<g id="edge65" class="edge">
<title>Node17&#45;&gt;Node26</title>
<path fill="none" stroke="midnightblue" d="M1067.58,-162.71C1103.4,-139.53 1173.11,-94.43 1202.22,-75.59"/>
<polygon fill="midnightblue" stroke="midnightblue" points="1065.33,-160 1058.84,-168.37 1069.14,-165.87 1065.33,-160"/>
</g>
<!-- Node17&#45;&gt;Node28 -->
<g id="edge53" class="edge">
<title>Node17&#45;&gt;Node28</title>
<path fill="none" stroke="midnightblue" d="M1031.03,-160.59C1010.11,-136.87 972.19,-93.87 956.08,-75.59"/>
<polygon fill="midnightblue" stroke="midnightblue" points="1028.65,-163.18 1037.89,-168.37 1033.9,-158.55 1028.65,-163.18"/>
</g>
<!-- Node17&#45;&gt;Node30 -->
<g id="edge60" class="edge">
<title>Node17&#45;&gt;Node30</title>
<path fill="none" stroke="midnightblue" d="M1124.3,-170.87C1225.73,-162.81 1407.39,-147.81 1562.5,-132 1565.45,-131.7 1568.45,-131.38 1571.49,-131.06"/>
<polygon fill="midnightblue" stroke="midnightblue" points="1123.83,-167.4 1114.14,-171.67 1124.38,-174.37 1123.83,-167.4"/>
</g>
<!-- Node31 -->
<g id="node31" class="node">
<title>Node31</title>
<g id="a_node31"><a xlink:href="_o_m_sim_decays_g_p_s_8hh.html" target="_top" xlink:title="Defines the OMSimDecaysGPS class for the radioactive decays simulation.">
<polygon fill="white" stroke="black" points="1431.5,-112.5 1431.5,-131.5 1553.5,-131.5 1553.5,-112.5 1431.5,-112.5"/>
<text text-anchor="middle" x="1492.5" y="-119.5" font-family="Helvetica,sans-Serif" font-size="10.00">OMSimDecaysGPS.hh</text>
</a>
</g>
</g>
<!-- Node17&#45;&gt;Node31 -->
<g id="edge61" class="edge">
<title>Node17&#45;&gt;Node31</title>
<path fill="none" stroke="midnightblue" d="M1124.33,-167.8C1200.62,-158.85 1319.52,-144.77 1422.5,-132 1425.42,-131.64 1428.4,-131.27 1431.42,-130.89"/>
<polygon fill="midnightblue" stroke="midnightblue" points="1123.84,-164.33 1114.32,-168.98 1124.66,-171.29 1123.84,-164.33"/>
</g>
<!-- Node18&#45;&gt;Node4 -->
<g id="edge39" class="edge">
<title>Node18&#45;&gt;Node4</title>
<path fill="none" stroke="midnightblue" d="M1233.07,-118.29C1053.14,-112.74 670.13,-98.63 539.5,-76 465.42,-63.17 380.96,-34.13 341.31,-19.61"/>
<polygon fill="midnightblue" stroke="midnightblue" points="1233.21,-121.8 1243.31,-118.61 1233.42,-114.8 1233.21,-121.8"/>
</g>
<!-- Node19 -->
<g id="node19" class="node">
<title>Node19</title>
<g id="a_node19"><a xlink:href="_o_m_sim_8hh.html" target="_top" xlink:title="Main simulation class for the Optical Module (OM) simulation. This file defines the OMSim class,...">
<polygon fill="white" stroke="black" points="1645,-56.5 1645,-75.5 1712,-75.5 1712,-56.5 1645,-56.5"/>
<text text-anchor="middle" x="1678.5" y="-63.5" font-family="Helvetica,sans-Serif" font-size="10.00">OMSim.hh</text>
</a>
</g>
</g>
<!-- Node18&#45;&gt;Node19 -->
<g id="edge34" class="edge">
<title>Node18&#45;&gt;Node19</title>
<path fill="none" stroke="midnightblue" d="M1404.69,-111.14C1466.94,-102.77 1557.13,-89.93 1635.5,-76 1638.5,-75.47 1641.62,-74.88 1644.74,-74.27"/>
<polygon fill="midnightblue" stroke="midnightblue" points="1404.01,-107.7 1394.56,-112.5 1404.94,-114.64 1404.01,-107.7"/>
</g>
<!-- Node18&#45;&gt;Node24 -->
<g id="edge40" class="edge">
<title>Node18&#45;&gt;Node24</title>
<path fill="none" stroke="midnightblue" d="M1423.89,-111.92C1700.33,-90.99 1771.91,-98.65 2044.5,-76 2047.53,-75.75 2050.63,-75.48 2053.75,-75.19"/>
<polygon fill="midnightblue" stroke="midnightblue" points="1423.25,-108.46 1413.54,-112.71 1423.78,-115.44 1423.25,-108.46"/>
</g>
<!-- Node25 -->
<g id="node25" class="node">
<title>Node25</title>
<g id="a_node25"><a xlink:href="_o_m_sim_effective_area_detector_8hh.html" target="_top" xlink:title="Defines the OMSimEffectiveAreaDetector class for effective area simulation detector construction.">
<polygon fill="white" stroke="black" points="1315,-56.5 1315,-75.5 1488,-75.5 1488,-56.5 1315,-56.5"/>
<text text-anchor="middle" x="1401.5" y="-63.5" font-family="Helvetica,sans-Serif" font-size="10.00">OMSimEffectiveAreaDetector.hh</text>
</a>
</g>
</g>
<!-- Node18&#45;&gt;Node25 -->
<g id="edge41" class="edge">
<title>Node18&#45;&gt;Node25</title>
<path fill="none" stroke="midnightblue" d="M1348.64,-106.1C1361.78,-96.38 1378.48,-84.03 1389.56,-75.83"/>
<polygon fill="midnightblue" stroke="midnightblue" points="1346.19,-103.56 1340.23,-112.32 1350.35,-109.19 1346.19,-103.56"/>
</g>
<!-- Node18&#45;&gt;Node26 -->
<g id="edge44" class="edge">
<title>Node18&#45;&gt;Node26</title>
<path fill="none" stroke="midnightblue" d="M1301.5,-108.1C1280.39,-98.01 1251.64,-84.27 1233.32,-75.52"/>
<polygon fill="midnightblue" stroke="midnightblue" points="1300.06,-111.29 1310.59,-112.44 1303.08,-104.97 1300.06,-111.29"/>
</g>
<!-- Node27 -->
<g id="node27" class="node">
<title>Node27</title>
<g id="a_node27"><a xlink:href="_o_m_sim_s_ndetector_8hh.html" target="_top" xlink:title=" ">
<polygon fill="white" stroke="black" points="1506.5,-56.5 1506.5,-75.5 1626.5,-75.5 1626.5,-56.5 1506.5,-56.5"/>
<text text-anchor="middle" x="1566.5" y="-63.5" font-family="Helvetica,sans-Serif" font-size="10.00">OMSimSNdetector.hh</text>
</a>
</g>
</g>
<!-- Node18&#45;&gt;Node27 -->
<g id="edge47" class="edge">
<title>Node18&#45;&gt;Node27</title>
<path fill="none" stroke="midnightblue" d="M1376.02,-110.22C1421,-100.01 1487.6,-84.9 1528.96,-75.52"/>
<polygon fill="midnightblue" stroke="midnightblue" points="1375.19,-106.82 1366.21,-112.44 1376.74,-113.64 1375.19,-106.82"/>
</g>
<!-- Node20 -->
<g id="node20" class="node">
<title>Node20</title>
<g id="a_node20"><a xlink:href="_o_m_sim_8cc.html" target="_top" xlink:title="Implementation of the OMSim class.">
<polygon fill="white" stroke="black" points="2209,-0.5 2209,-19.5 2274,-19.5 2274,-0.5 2209,-0.5"/>
<text text-anchor="middle" x="2241.5" y="-7.5" font-family="Helvetica,sans-Serif" font-size="10.00">OMSim.cc</text>
</a>
</g>
</g>
<!-- Node19&#45;&gt;Node20 -->
<g id="edge35" class="edge">
<title>Node19&#45;&gt;Node20</title>
<path fill="none" stroke="midnightblue" d="M1722.14,-56.11C1934.62,-26.81 1992.47,-50.5 2200.5,-20 2203.24,-19.6 2206.07,-19.12 2208.9,-18.59"/>
<polygon fill="midnightblue" stroke="midnightblue" points="1721.64,-52.65 1712.23,-57.5 1722.62,-59.58 1721.64,-52.65"/>
</g>
<!-- Node21 -->
<g id="node21" class="node">
<title>Node21</title>
<g id="a_node21"><a xlink:href="_o_m_sim__effective__area_8cc.html" target="_top" xlink:title="Main for the calculation of effective areas.">
<polygon fill="white" stroke="black" points="1727.5,-0.5 1727.5,-19.5 1867.5,-19.5 1867.5,-0.5 1727.5,-0.5"/>
<text text-anchor="middle" x="1797.5" y="-7.5" font-family="Helvetica,sans-Serif" font-size="10.00">OMSim_effective_area.cc</text>
</a>
</g>
</g>
<!-- Node19&#45;&gt;Node21 -->
<g id="edge36" class="edge">
<title>Node19&#45;&gt;Node21</title>
<path fill="none" stroke="midnightblue" d="M1706.64,-52.23C1728.9,-42.13 1759.36,-28.31 1778.73,-19.52"/>
<polygon fill="midnightblue" stroke="midnightblue" points="1705.02,-49.12 1697.36,-56.44 1707.91,-55.5 1705.02,-49.12"/>
</g>
<!-- Node22 -->
<g id="node22" class="node">
<title>Node22</title>
<g id="a_node22"><a xlink:href="_o_m_sim__radioactive__decays_8cc.html" target="_top" xlink:title="Main of the radioactive decay study.">
<polygon fill="white" stroke="black" points="2026,-0.5 2026,-19.5 2191,-19.5 2191,-0.5 2026,-0.5"/>
<text text-anchor="middle" x="2108.5" y="-7.5" font-family="Helvetica,sans-Serif" font-size="10.00">OMSim_radioactive_decays.cc</text>
</a>
</g>
</g>
<!-- Node19&#45;&gt;Node22 -->
<g id="edge37" class="edge">
<title>Node19&#45;&gt;Node22</title>
<path fill="none" stroke="midnightblue" d="M1722.14,-56.06C1792.85,-45.15 1936.56,-29.28 2027.72,-19.52"/>
<polygon fill="midnightblue" stroke="midnightblue" points="1721.57,-52.61 1712.25,-57.64 1722.67,-59.52 1721.57,-52.61"/>
</g>
<!-- Node23 -->
<g id="node23" class="node">
<title>Node23</title>
<g id="a_node23"><a xlink:href="_o_m_sim__supernova_8cc.html" target="_top" xlink:title="Main of the supernova study.">
<polygon fill="white" stroke="black" points="1885.5,-0.5 1885.5,-19.5 2007.5,-19.5 2007.5,-0.5 1885.5,-0.5"/>
<text text-anchor="middle" x="1946.5" y="-7.5" font-family="Helvetica,sans-Serif" font-size="10.00">OMSim_supernova.cc</text>
</a>
</g>
</g>
<!-- Node19&#45;&gt;Node23 -->
<g id="edge38" class="edge">
<title>Node19&#45;&gt;Node23</title>
<path fill="none" stroke="midnightblue" d="M1722.48,-55.81C1791.54,-41.71 1860.16,-28.06 1903.34,-19.51"/>
<polygon fill="midnightblue" stroke="midnightblue" points="1721.39,-52.46 1712.3,-57.9 1722.79,-59.32 1721.39,-52.46"/>
</g>
<!-- Node25&#45;&gt;Node5 -->
<g id="edge43" class="edge">
<title>Node25&#45;&gt;Node5</title>
<path fill="none" stroke="midnightblue" d="M1319.53,-55.23C1234.02,-45.04 1101.31,-29.22 1019.94,-19.52"/>
<polygon fill="midnightblue" stroke="midnightblue" points="1319.38,-58.74 1329.72,-56.44 1320.21,-51.78 1319.38,-58.74"/>
</g>
<!-- Node25&#45;&gt;Node21 -->
<g id="edge42" class="edge">
<title>Node25&#45;&gt;Node21</title>
<path fill="none" stroke="midnightblue" d="M1474.52,-55.04C1549.32,-44.84 1664.35,-29.16 1735.05,-19.52"/>
<polygon fill="midnightblue" stroke="midnightblue" points="1473.68,-51.62 1464.25,-56.44 1474.63,-58.56 1473.68,-51.62"/>
</g>
<!-- Node26&#45;&gt;Node6 -->
<g id="edge46" class="edge">
<title>Node26&#45;&gt;Node6</title>
<path fill="none" stroke="midnightblue" d="M1133.71,-55.23C1048.39,-45.04 915.97,-29.22 834.79,-19.52"/>
<polygon fill="midnightblue" stroke="midnightblue" points="1133.53,-58.73 1143.88,-56.44 1134.37,-51.78 1133.53,-58.73"/>
</g>
<!-- Node26&#45;&gt;Node22 -->
<g id="edge45" class="edge">
<title>Node26&#45;&gt;Node22</title>
<path fill="none" stroke="midnightblue" d="M1307.7,-55.95C1623.32,-32.68 1704.79,-43.14 2016.5,-20 2019.54,-19.77 2022.64,-19.53 2025.76,-19.28"/>
<polygon fill="midnightblue" stroke="midnightblue" points="1307.05,-52.49 1297.34,-56.72 1307.57,-59.47 1307.05,-52.49"/>
</g>
<!-- Node27&#45;&gt;Node8 -->
<g id="edge49" class="edge">
<title>Node27&#45;&gt;Node8</title>
<path fill="none" stroke="midnightblue" d="M1496,-55.83C1355.47,-38.77 1318.52,-36.74 1181.5,-20 1178.5,-19.63 1175.43,-19.25 1172.33,-18.86"/>
<polygon fill="midnightblue" stroke="midnightblue" points="1495.95,-59.35 1506.3,-57.09 1496.79,-52.4 1495.95,-59.35"/>
</g>
<!-- Node27&#45;&gt;Node23 -->
<g id="edge48" class="edge">
<title>Node27&#45;&gt;Node23</title>
<path fill="none" stroke="midnightblue" d="M1637.02,-54.98C1708.8,-44.78 1818.87,-29.14 1886.57,-19.52"/>
<polygon fill="midnightblue" stroke="midnightblue" points="1636.12,-51.57 1626.71,-56.44 1637.11,-58.5 1636.12,-51.57"/>
</g>
<!-- Node28&#45;&gt;Node4 -->
<g id="edge54" class="edge">
<title>Node28&#45;&gt;Node4</title>
<path fill="none" stroke="midnightblue" d="M889.51,-55.85C677.71,-31.54 621.89,-37.89 412.5,-20 409.4,-19.73 406.24,-19.46 403.04,-19.18"/>
<polygon fill="midnightblue" stroke="midnightblue" points="889.38,-59.36 899.72,-57.03 890.19,-52.4 889.38,-59.36"/>
</g>
<!-- Node28&#45;&gt;Node5 -->
<g id="edge56" class="edge">
<title>Node28&#45;&gt;Node5</title>
<path fill="none" stroke="midnightblue" d="M948.5,-45.8C948.5,-36.91 948.5,-26.78 948.5,-19.75"/>
<polygon fill="midnightblue" stroke="midnightblue" points="945,-46.08 948.5,-56.08 952,-46.08 945,-46.08"/>
</g>
<!-- Node28&#45;&gt;Node6 -->
<g id="edge57" class="edge">
<title>Node28&#45;&gt;Node6</title>
<path fill="none" stroke="midnightblue" d="M909.33,-53.57C874.43,-43.38 824.15,-28.7 792.68,-19.52"/>
<polygon fill="midnightblue" stroke="midnightblue" points="908.61,-57 919.19,-56.44 910.57,-50.28 908.61,-57"/>
</g>
<!-- Node28&#45;&gt;Node7 -->
<g id="edge58" class="edge">
<title>Node28&#45;&gt;Node7</title>
<path fill="none" stroke="midnightblue" d="M889.88,-55.75C802.25,-42.09 711.8,-28.19 655.22,-19.52"/>
<polygon fill="midnightblue" stroke="midnightblue" points="889.57,-59.25 899.99,-57.33 890.65,-52.33 889.57,-59.25"/>
</g>
<!-- Node28&#45;&gt;Node8 -->
<g id="edge59" class="edge">
<title>Node28&#45;&gt;Node8</title>
<path fill="none" stroke="midnightblue" d="M984.02,-53.3C1014.92,-43.13 1058.97,-28.62 1086.64,-19.52"/>
<polygon fill="midnightblue" stroke="midnightblue" points="982.89,-49.99 974.49,-56.44 985.08,-56.64 982.89,-49.99"/>
</g>
<!-- Node29 -->
<g id="node29" class="node">
<title>Node29</title>
<g id="a_node29"><a xlink:href="_o_m_sim_p_d_o_m_8cc.html" target="_top" xlink:title=" ">
<polygon fill="white" stroke="black" points="1190,-0.5 1190,-19.5 1285,-19.5 1285,-0.5 1190,-0.5"/>
<text text-anchor="middle" x="1237.5" y="-7.5" font-family="Helvetica,sans-Serif" font-size="10.00">OMSimPDOM.cc</text>
</a>
</g>
</g>
<!-- Node28&#45;&gt;Node29 -->
<g id="edge55" class="edge">
<title>Node28&#45;&gt;Node29</title>
<path fill="none" stroke="midnightblue" d="M1004.16,-54.6C1058.77,-44.4 1141.07,-29.02 1191.92,-19.52"/>
<polygon fill="midnightblue" stroke="midnightblue" points="1003.48,-51.17 994.29,-56.44 1004.77,-58.05 1003.48,-51.17"/>
</g>
<!-- Node31&#45;&gt;Node22 -->
<g id="edge62" class="edge">
<title>Node31&#45;&gt;Node22</title>
<path fill="none" stroke="midnightblue" d="M1563.68,-112.2C1670.75,-106.92 2162.69,-126.54 2210.5,-76 2234.82,-50.3 2182.93,-30.27 2144.62,-19.58"/>
<polygon fill="midnightblue" stroke="midnightblue" points="1563.3,-108.72 1553.55,-112.89 1563.77,-115.71 1563.3,-108.72"/>
</g>
<!-- Node32 -->
<g id="node32" class="node">
<title>Node32</title>
<g id="a_node32"><a xlink:href="_o_m_sim_decays_g_p_s_8cc.html" target="_top" xlink:title=" ">
<polygon fill="white" stroke="black" points="1730,-56.5 1730,-75.5 1851,-75.5 1851,-56.5 1730,-56.5"/>
<text text-anchor="middle" x="1790.5" y="-63.5" font-family="Helvetica,sans-Serif" font-size="10.00">OMSimDecaysGPS.cc</text>
</a>
</g>
</g>
<!-- Node31&#45;&gt;Node32 -->
<g id="edge63" class="edge">
<title>Node31&#45;&gt;Node32</title>
<path fill="none" stroke="midnightblue" d="M1549.89,-110.6C1606.21,-100.4 1691.06,-85.02 1743.5,-75.52"/>
<polygon fill="midnightblue" stroke="midnightblue" points="1548.93,-107.22 1539.72,-112.44 1550.18,-114.1 1548.93,-107.22"/>
</g>
<!-- Node33 -->
<g id="node33" class="node">
<title>Node33</title>
<g id="a_node33"><a xlink:href="_o_m_sim_g4_radioactive_decay_8cc.html" target="_top" xlink:title=" ">
<polygon fill="white" stroke="black" points="1869.5,-56.5 1869.5,-75.5 2035.5,-75.5 2035.5,-56.5 1869.5,-56.5"/>
<text text-anchor="middle" x="1952.5" y="-63.5" font-family="Helvetica,sans-Serif" font-size="10.00">OMSimG4RadioactiveDecay.cc</text>
</a>
</g>
</g>
<!-- Node31&#45;&gt;Node33 -->
<g id="edge64" class="edge">
<title>Node31&#45;&gt;Node33</title>
<path fill="none" stroke="midnightblue" d="M1563.61,-111.88C1678.53,-97.9 1799.82,-84.09 1876.24,-75.5"/>
<polygon fill="midnightblue" stroke="midnightblue" points="1563.08,-108.42 1553.58,-113.1 1563.93,-115.36 1563.08,-108.42"/>
</g>
</g>
</svg>
