<?xml version="1.0" encoding="UTF-8" standalone="no"?>
<!DOCTYPE svg PUBLIC "-//W3C//DTD SVG 1.1//EN"
 "http://www.w3.org/Graphics/SVG/1.1/DTD/svg11.dtd">
<!-- Generated by graphviz version 2.43.0 (0)
 -->
<!-- Title: OMSimPMTConstruction.hh Pages: 1 -->
<svg width="2151pt" height="253pt"
 viewBox="0.00 0.00 2150.50 252.86" xmlns="http://www.w3.org/2000/svg" xmlns:xlink="http://www.w3.org/1999/xlink">
<g id="graph0" class="graph" transform="scale(1 1) rotate(0) translate(4 248.86)">
<title>OMSimPMTConstruction.hh</title>
<polygon fill="white" stroke="transparent" points="-4,4 -4,-248.86 2146.5,-248.86 2146.5,4 -4,4"/>
<!-- Node1 -->
<g id="node1" class="node">
<title>Node1</title>
<g id="a_node1"><a xlink:title="Construction of the PMTs.">
<polygon fill="#bfbfbf" stroke="black" points="1220,-224.5 1220,-243.5 1369,-243.5 1369,-224.5 1220,-224.5"/>
<text text-anchor="middle" x="1294.5" y="-231.5" font-family="Helvetica,sans-Serif" font-size="10.00">OMSimPMTConstruction.hh</text>
</a>
</g>
</g>
<!-- Node1&#45;&gt;Node1 -->
<g id="edge61" class="edge">
<title>Node1&#45;&gt;Node1</title>
<path fill="none" stroke="midnightblue" d="M1343.93,-244.29C1366.91,-245.42 1387,-241.99 1387,-234 1387,-224.87 1360.76,-221.69 1333.95,-224.47"/>
<polygon fill="midnightblue" stroke="midnightblue" points="1344.19,-240.8 1333.95,-243.53 1343.65,-247.78 1344.19,-240.8"/>
</g>
<!-- Node2 -->
<g id="node2" class="node">
<title>Node2</title>
<g id="a_node2"><a xlink:href="_o_m_sim_d_e_g_g_8hh.html" target="_top" xlink:title="Construction of the DEGG class.">
<polygon fill="white" stroke="black" points="1053,-56.5 1053,-75.5 1148,-75.5 1148,-56.5 1053,-56.5"/>
<text text-anchor="middle" x="1100.5" y="-63.5" font-family="Helvetica,sans-Serif" font-size="10.00">OMSimDEGG.hh</text>
</a>
</g>
</g>
<!-- Node1&#45;&gt;Node2 -->
<g id="edge1" class="edge">
<title>Node1&#45;&gt;Node2</title>
<path fill="none" stroke="midnightblue" d="M1297.34,-214.2C1300.19,-187.88 1301.03,-140.11 1275.5,-112 1266.56,-102.16 1192.74,-85.62 1143.88,-75.57"/>
<polygon fill="midnightblue" stroke="midnightblue" points="1293.84,-213.98 1296.03,-224.35 1300.79,-214.88 1293.84,-213.98"/>
</g>
<!-- Node8 -->
<g id="node8" class="node">
<title>Node8</title>
<g id="a_node8"><a xlink:href="_o_m_sim_l_o_m16_8hh.html" target="_top" xlink:title="Construction of LOM16.">
<polygon fill="white" stroke="black" points="1166,-56.5 1166,-75.5 1267,-75.5 1267,-56.5 1166,-56.5"/>
<text text-anchor="middle" x="1216.5" y="-63.5" font-family="Helvetica,sans-Serif" font-size="10.00">OMSimLOM16.hh</text>
</a>
</g>
</g>
<!-- Node1&#45;&gt;Node8 -->
<g id="edge7" class="edge">
<title>Node1&#45;&gt;Node8</title>
<path fill="none" stroke="midnightblue" d="M1303.23,-214.88C1313.94,-189.76 1328.39,-143.87 1308.5,-112 1296.83,-93.3 1274.88,-82.15 1255.35,-75.64"/>
<polygon fill="midnightblue" stroke="midnightblue" points="1299.91,-213.72 1298.97,-224.27 1306.29,-216.6 1299.91,-213.72"/>
</g>
<!-- Node10 -->
<g id="node10" class="node">
<title>Node10</title>
<g id="a_node10"><a xlink:href="_o_m_sim_l_o_m18_8hh.html" target="_top" xlink:title="Construction of LOM18.">
<polygon fill="white" stroke="black" points="1285,-56.5 1285,-75.5 1386,-75.5 1386,-56.5 1285,-56.5"/>
<text text-anchor="middle" x="1335.5" y="-63.5" font-family="Helvetica,sans-Serif" font-size="10.00">OMSimLOM18.hh</text>
</a>
</g>
</g>
<!-- Node1&#45;&gt;Node10 -->
<g id="edge13" class="edge">
<title>Node1&#45;&gt;Node10</title>
<path fill="none" stroke="midnightblue" d="M1318.87,-218.73C1329.45,-211.09 1340.72,-200.64 1346.5,-188 1364.21,-149.25 1347.12,-96.31 1339.13,-75.71"/>
<polygon fill="midnightblue" stroke="midnightblue" points="1316.65,-216 1310.28,-224.47 1320.54,-221.82 1316.65,-216"/>
</g>
<!-- Node12 -->
<g id="node12" class="node">
<title>Node12</title>
<g id="a_node12"><a xlink:href="_o_m_sim_m_d_o_m_8hh.html" target="_top" xlink:title="Construction of mDOM.">
<polygon fill="white" stroke="black" points="1442.5,-56.5 1442.5,-75.5 1542.5,-75.5 1542.5,-56.5 1442.5,-56.5"/>
<text text-anchor="middle" x="1492.5" y="-63.5" font-family="Helvetica,sans-Serif" font-size="10.00">OMSimMDOM.hh</text>
</a>
</g>
</g>
<!-- Node1&#45;&gt;Node12 -->
<g id="edge19" class="edge">
<title>Node1&#45;&gt;Node12</title>
<path fill="none" stroke="midnightblue" d="M1318.46,-219.12C1332.34,-210.72 1349.9,-199.43 1364.5,-188 1413.13,-149.92 1464.71,-96.6 1484.31,-75.8"/>
<polygon fill="midnightblue" stroke="midnightblue" points="1316.32,-216.33 1309.52,-224.45 1319.9,-222.34 1316.32,-216.33"/>
</g>
<!-- Node16 -->
<g id="node16" class="node">
<title>Node16</title>
<g id="a_node16"><a xlink:href="_o_m_sim_optical_module_8hh.html" target="_top" xlink:title=" ">
<polygon fill="white" stroke="black" points="949,-168.5 949,-187.5 1086,-187.5 1086,-168.5 949,-168.5"/>
<text text-anchor="middle" x="1017.5" y="-175.5" font-family="Helvetica,sans-Serif" font-size="10.00">OMSimOpticalModule.hh</text>
</a>
</g>
</g>
<!-- Node1&#45;&gt;Node16 -->
<g id="edge27" class="edge">
<title>Node1&#45;&gt;Node16</title>
<path fill="none" stroke="midnightblue" d="M1240.5,-222.47C1188.15,-212.27 1109.73,-196.98 1061.19,-187.52"/>
<polygon fill="midnightblue" stroke="midnightblue" points="1240.12,-225.97 1250.61,-224.44 1241.46,-219.09 1240.12,-225.97"/>
</g>
<!-- Node23 -->
<g id="node23" class="node">
<title>Node23</title>
<g id="a_node23"><a xlink:href="_o_m_sim_p_m_t_construction_8cc.html" target="_top" xlink:title=" ">
<polygon fill="white" stroke="black" points="0,-56.5 0,-75.5 147,-75.5 147,-56.5 0,-56.5"/>
<text text-anchor="middle" x="73.5" y="-63.5" font-family="Helvetica,sans-Serif" font-size="10.00">OMSimPMTConstruction.cc</text>
</a>
</g>
</g>
<!-- Node1&#45;&gt;Node23 -->
<g id="edge64" class="edge">
<title>Node1&#45;&gt;Node23</title>
<path fill="none" stroke="midnightblue" d="M1209.62,-225.58C1051.38,-211.25 700.73,-177.15 407.5,-132 299.92,-115.43 174.18,-89.04 112.15,-75.55"/>
<polygon fill="midnightblue" stroke="midnightblue" points="1209.49,-229.08 1219.77,-226.5 1210.12,-222.11 1209.49,-229.08"/>
</g>
<!-- Node27 -->
<g id="node27" class="node">
<title>Node27</title>
<g id="a_node27"><a xlink:href="_o_m_sim_p_d_o_m_8hh.html" target="_top" xlink:title="Implementation of the pDOM/Gen1 DOM class.">
<polygon fill="white" stroke="black" points="938,-56.5 938,-75.5 1035,-75.5 1035,-56.5 938,-56.5"/>
<text text-anchor="middle" x="986.5" y="-63.5" font-family="Helvetica,sans-Serif" font-size="10.00">OMSimPDOM.hh</text>
</a>
</g>
</g>
<!-- Node1&#45;&gt;Node27 -->
<g id="edge60" class="edge">
<title>Node1&#45;&gt;Node27</title>
<path fill="none" stroke="midnightblue" d="M1209.94,-228.07C1110.64,-221.4 957.12,-208 939.5,-188 909.1,-153.51 957,-97.15 977.71,-75.68"/>
<polygon fill="midnightblue" stroke="midnightblue" points="1209.76,-231.57 1219.97,-228.74 1210.23,-224.58 1209.76,-231.57"/>
</g>
<!-- Node29 -->
<g id="node29" class="node">
<title>Node29</title>
<g id="a_node29"><a xlink:href="_o_m_sim_optical_module_8cc.html" target="_top" xlink:title=" ">
<polygon fill="white" stroke="black" points="1130.5,-112.5 1130.5,-131.5 1266.5,-131.5 1266.5,-112.5 1130.5,-112.5"/>
<text text-anchor="middle" x="1198.5" y="-119.5" font-family="Helvetica,sans-Serif" font-size="10.00">OMSimOpticalModule.cc</text>
</a>
</g>
</g>
<!-- Node1&#45;&gt;Node29 -->
<g id="edge63" class="edge">
<title>Node1&#45;&gt;Node29</title>
<path fill="none" stroke="midnightblue" d="M1280.17,-216.59C1259.48,-192.87 1221.95,-149.87 1206,-131.59"/>
<polygon fill="midnightblue" stroke="midnightblue" points="1277.75,-219.14 1286.97,-224.37 1283.03,-214.53 1277.75,-219.14"/>
</g>
<!-- Node32 -->
<g id="node32" class="node">
<title>Node32</title>
<g id="a_node32"><a xlink:href="abc_detector_component_8cc.html" target="_top" xlink:title=" ">
<polygon fill="white" stroke="black" points="1436.5,-168.5 1436.5,-187.5 1582.5,-187.5 1582.5,-168.5 1436.5,-168.5"/>
<text text-anchor="middle" x="1509.5" y="-175.5" font-family="Helvetica,sans-Serif" font-size="10.00">abcDetectorComponent.cc</text>
</a>
</g>
</g>
<!-- Node1&#45;&gt;Node32 -->
<g id="edge62" class="edge">
<title>Node1&#45;&gt;Node32</title>
<path fill="none" stroke="midnightblue" d="M1338.46,-221.96C1379.07,-211.76 1438.54,-196.82 1475.59,-187.52"/>
<polygon fill="midnightblue" stroke="midnightblue" points="1337.41,-218.61 1328.57,-224.44 1339.12,-225.4 1337.41,-218.61"/>
</g>
<!-- Node3 -->
<g id="node3" class="node">
<title>Node3</title>
<g id="a_node3"><a xlink:href="_o_m_sim_d_e_g_g_8cc.html" target="_top" xlink:title=" ">
<polygon fill="white" stroke="black" points="696.5,-0.5 696.5,-19.5 790.5,-19.5 790.5,-0.5 696.5,-0.5"/>
<text text-anchor="middle" x="743.5" y="-7.5" font-family="Helvetica,sans-Serif" font-size="10.00">OMSimDEGG.cc</text>
</a>
</g>
</g>
<!-- Node2&#45;&gt;Node3 -->
<g id="edge2" class="edge">
<title>Node2&#45;&gt;Node3</title>
<path fill="none" stroke="midnightblue" d="M1042.8,-55.91C933.47,-39.28 904.67,-36.21 799.5,-20 796.58,-19.55 793.58,-19.08 790.55,-18.61"/>
<polygon fill="midnightblue" stroke="midnightblue" points="1042.51,-59.4 1052.92,-57.45 1043.56,-52.48 1042.51,-59.4"/>
</g>
<!-- Node4 -->
<g id="node4" class="node">
<title>Node4</title>
<g id="a_node4"><a xlink:href="_o_m_sim_detector_construction_8cc.html" target="_top" xlink:title=" ">
<polygon fill="white" stroke="black" points="1432,-0.5 1432,-19.5 1601,-19.5 1601,-0.5 1432,-0.5"/>
<text text-anchor="middle" x="1516.5" y="-7.5" font-family="Helvetica,sans-Serif" font-size="10.00">OMSimDetectorConstruction.cc</text>
</a>
</g>
</g>
<!-- Node2&#45;&gt;Node4 -->
<g id="edge3" class="edge">
<title>Node2&#45;&gt;Node4</title>
<path fill="none" stroke="midnightblue" d="M1158.2,-55.8C1262.27,-41.05 1371.7,-27.78 1442.28,-19.51"/>
<polygon fill="midnightblue" stroke="midnightblue" points="1157.55,-52.35 1148.14,-57.23 1158.54,-59.28 1157.55,-52.35"/>
</g>
<!-- Node5 -->
<g id="node5" class="node">
<title>Node5</title>
<g id="a_node5"><a xlink:href="_o_m_sim_effective_area_detector_8cc.html" target="_top" xlink:title=" ">
<polygon fill="white" stroke="black" points="808.5,-0.5 808.5,-19.5 980.5,-19.5 980.5,-0.5 808.5,-0.5"/>
<text text-anchor="middle" x="894.5" y="-7.5" font-family="Helvetica,sans-Serif" font-size="10.00">OMSimEffectiveAreaDetector.cc</text>
</a>
</g>
</g>
<!-- Node2&#45;&gt;Node5 -->
<g id="edge4" class="edge">
<title>Node2&#45;&gt;Node5</title>
<path fill="none" stroke="midnightblue" d="M1057.88,-53.83C1018.99,-43.63 962.34,-28.78 926.99,-19.52"/>
<polygon fill="midnightblue" stroke="midnightblue" points="1057.3,-57.29 1067.86,-56.44 1059.07,-50.52 1057.3,-57.29"/>
</g>
<!-- Node6 -->
<g id="node6" class="node">
<title>Node6</title>
<g id="a_node6"><a xlink:href="_o_m_sim_rad_decays_detector_8cc.html" target="_top" xlink:title=" ">
<polygon fill="white" stroke="black" points="1136,-0.5 1136,-19.5 1297,-19.5 1297,-0.5 1136,-0.5"/>
<text text-anchor="middle" x="1216.5" y="-7.5" font-family="Helvetica,sans-Serif" font-size="10.00">OMSimRadDecaysDetector.cc</text>
</a>
</g>
</g>
<!-- Node2&#45;&gt;Node6 -->
<g id="edge5" class="edge">
<title>Node2&#45;&gt;Node6</title>
<path fill="none" stroke="midnightblue" d="M1128.22,-52.1C1149.89,-42.01 1179.4,-28.27 1198.21,-19.52"/>
<polygon fill="midnightblue" stroke="midnightblue" points="1126.47,-49.05 1118.88,-56.44 1129.42,-55.4 1126.47,-49.05"/>
</g>
<!-- Node7 -->
<g id="node7" class="node">
<title>Node7</title>
<g id="a_node7"><a xlink:href="_o_m_sim_s_ndetector_8cc.html" target="_top" xlink:title=" ">
<polygon fill="white" stroke="black" points="999,-0.5 999,-19.5 1118,-19.5 1118,-0.5 999,-0.5"/>
<text text-anchor="middle" x="1058.5" y="-7.5" font-family="Helvetica,sans-Serif" font-size="10.00">OMSimSNdetector.cc</text>
</a>
</g>
</g>
<!-- Node2&#45;&gt;Node7 -->
<g id="edge6" class="edge">
<title>Node2&#45;&gt;Node7</title>
<path fill="none" stroke="midnightblue" d="M1087.39,-48.14C1080.07,-38.74 1071.26,-27.4 1065.31,-19.75"/>
<polygon fill="midnightblue" stroke="midnightblue" points="1084.66,-50.34 1093.56,-56.08 1090.19,-46.04 1084.66,-50.34"/>
</g>
<!-- Node8&#45;&gt;Node4 -->
<g id="edge8" class="edge">
<title>Node8&#45;&gt;Node4</title>
<path fill="none" stroke="midnightblue" d="M1273.92,-54.66C1330.62,-44.46 1416.29,-29.04 1469.19,-19.52"/>
<polygon fill="midnightblue" stroke="midnightblue" points="1273.26,-51.23 1264.04,-56.44 1274.5,-58.12 1273.26,-51.23"/>
</g>
<!-- Node8&#45;&gt;Node5 -->
<g id="edge10" class="edge">
<title>Node8&#45;&gt;Node5</title>
<path fill="none" stroke="midnightblue" d="M1155.61,-54.79C1094.81,-44.59 1002.42,-29.1 945.4,-19.54"/>
<polygon fill="midnightblue" stroke="midnightblue" points="1155.39,-58.3 1165.83,-56.5 1156.55,-51.4 1155.39,-58.3"/>
</g>
<!-- Node8&#45;&gt;Node6 -->
<g id="edge11" class="edge">
<title>Node8&#45;&gt;Node6</title>
<path fill="none" stroke="midnightblue" d="M1216.5,-45.8C1216.5,-36.91 1216.5,-26.78 1216.5,-19.75"/>
<polygon fill="midnightblue" stroke="midnightblue" points="1213,-46.08 1216.5,-56.08 1220,-46.08 1213,-46.08"/>
</g>
<!-- Node8&#45;&gt;Node7 -->
<g id="edge12" class="edge">
<title>Node8&#45;&gt;Node7</title>
<path fill="none" stroke="midnightblue" d="M1181.89,-53.17C1152.14,-43 1109.95,-28.59 1083.42,-19.52"/>
<polygon fill="midnightblue" stroke="midnightblue" points="1180.87,-56.52 1191.46,-56.44 1183.13,-49.9 1180.87,-56.52"/>
</g>
<!-- Node9 -->
<g id="node9" class="node">
<title>Node9</title>
<g id="a_node9"><a xlink:href="_o_m_sim_l_o_m16_8cc.html" target="_top" xlink:title=" ">
<polygon fill="white" stroke="black" points="1315,-0.5 1315,-19.5 1414,-19.5 1414,-0.5 1315,-0.5"/>
<text text-anchor="middle" x="1364.5" y="-7.5" font-family="Helvetica,sans-Serif" font-size="10.00">OMSimLOM16.cc</text>
</a>
</g>
</g>
<!-- Node8&#45;&gt;Node9 -->
<g id="edge9" class="edge">
<title>Node8&#45;&gt;Node9</title>
<path fill="none" stroke="midnightblue" d="M1249.65,-52.91C1277.47,-42.75 1316.52,-28.51 1341.16,-19.52"/>
<polygon fill="midnightblue" stroke="midnightblue" points="1248.15,-49.73 1239.95,-56.44 1250.54,-56.3 1248.15,-49.73"/>
</g>
<!-- Node10&#45;&gt;Node4 -->
<g id="edge14" class="edge">
<title>Node10&#45;&gt;Node4</title>
<path fill="none" stroke="midnightblue" d="M1373.82,-53.57C1407.96,-43.38 1457.16,-28.7 1487.95,-19.52"/>
<polygon fill="midnightblue" stroke="midnightblue" points="1372.76,-50.23 1364.18,-56.44 1374.76,-56.94 1372.76,-50.23"/>
</g>
<!-- Node10&#45;&gt;Node5 -->
<g id="edge16" class="edge">
<title>Node10&#45;&gt;Node5</title>
<path fill="none" stroke="midnightblue" d="M1274.75,-55.94C1163.81,-41.17 1047.49,-27.82 972.67,-19.51"/>
<polygon fill="midnightblue" stroke="midnightblue" points="1274.4,-59.42 1284.78,-57.28 1275.33,-52.48 1274.4,-59.42"/>
</g>
<!-- Node10&#45;&gt;Node6 -->
<g id="edge17" class="edge">
<title>Node10&#45;&gt;Node6</title>
<path fill="none" stroke="midnightblue" d="M1307.36,-52.23C1285.1,-42.13 1254.64,-28.31 1235.27,-19.52"/>
<polygon fill="midnightblue" stroke="midnightblue" points="1306.09,-55.5 1316.64,-56.44 1308.98,-49.12 1306.09,-55.5"/>
</g>
<!-- Node10&#45;&gt;Node7 -->
<g id="edge18" class="edge">
<title>Node10&#45;&gt;Node7</title>
<path fill="none" stroke="midnightblue" d="M1281.5,-54.47C1229.15,-44.27 1150.73,-28.98 1102.19,-19.52"/>
<polygon fill="midnightblue" stroke="midnightblue" points="1281.12,-57.97 1291.61,-56.44 1282.46,-51.09 1281.12,-57.97"/>
</g>
<!-- Node11 -->
<g id="node11" class="node">
<title>Node11</title>
<g id="a_node11"><a xlink:href="_o_m_sim_l_o_m18_8cc.html" target="_top" xlink:title=" ">
<polygon fill="white" stroke="black" points="1619,-0.5 1619,-19.5 1718,-19.5 1718,-0.5 1619,-0.5"/>
<text text-anchor="middle" x="1668.5" y="-7.5" font-family="Helvetica,sans-Serif" font-size="10.00">OMSimLOM18.cc</text>
</a>
</g>
</g>
<!-- Node10&#45;&gt;Node11 -->
<g id="edge15" class="edge">
<title>Node10&#45;&gt;Node11</title>
<path fill="none" stroke="midnightblue" d="M1396.01,-55.19C1459.88,-44.83 1559.36,-28.7 1618.81,-19.06"/>
<polygon fill="midnightblue" stroke="midnightblue" points="1395.39,-51.74 1386.08,-56.8 1396.51,-58.65 1395.39,-51.74"/>
</g>
<!-- Node12&#45;&gt;Node4 -->
<g id="edge20" class="edge">
<title>Node12&#45;&gt;Node4</title>
<path fill="none" stroke="midnightblue" d="M1500.64,-46.69C1504.68,-37.59 1509.38,-27.01 1512.61,-19.75"/>
<polygon fill="midnightblue" stroke="midnightblue" points="1497.33,-45.52 1496.46,-56.08 1503.72,-48.37 1497.33,-45.52"/>
</g>
<!-- Node12&#45;&gt;Node5 -->
<g id="edge24" class="edge">
<title>Node12&#45;&gt;Node5</title>
<path fill="none" stroke="midnightblue" d="M1432.11,-59.43C1419.68,-58.29 1406.66,-57.1 1394.5,-56 1214.52,-39.74 1169.45,-36.52 989.5,-20 986.61,-19.73 983.68,-19.46 980.71,-19.19"/>
<polygon fill="midnightblue" stroke="midnightblue" points="1432.12,-62.94 1442.4,-60.37 1432.76,-55.97 1432.12,-62.94"/>
</g>
<!-- Node12&#45;&gt;Node6 -->
<g id="edge25" class="edge">
<title>Node12&#45;&gt;Node6</title>
<path fill="none" stroke="midnightblue" d="M1438.7,-54.47C1386.54,-44.27 1308.39,-28.98 1260.03,-19.52"/>
<polygon fill="midnightblue" stroke="midnightblue" points="1438.28,-57.96 1448.77,-56.44 1439.63,-51.09 1438.28,-57.96"/>
</g>
<!-- Node12&#45;&gt;Node7 -->
<g id="edge26" class="edge">
<title>Node12&#45;&gt;Node7</title>
<path fill="none" stroke="midnightblue" d="M1432.14,-57.75C1359.57,-49 1234.09,-33.73 1126.5,-20 1123.78,-19.65 1121.01,-19.3 1118.2,-18.93"/>
<polygon fill="midnightblue" stroke="midnightblue" points="1432.11,-61.27 1442.46,-59 1432.95,-54.32 1432.11,-61.27"/>
</g>
<!-- Node13 -->
<g id="node13" class="node">
<title>Node13</title>
<g id="a_node13"><a xlink:href="_o_m_sim_m_d_o_m_8cc.html" target="_top" xlink:title=" ">
<polygon fill="white" stroke="black" points="1892.5,-0.5 1892.5,-19.5 1990.5,-19.5 1990.5,-0.5 1892.5,-0.5"/>
<text text-anchor="middle" x="1941.5" y="-7.5" font-family="Helvetica,sans-Serif" font-size="10.00">OMSimMDOM.cc</text>
</a>
</g>
</g>
<!-- Node12&#45;&gt;Node13 -->
<g id="edge21" class="edge">
<title>Node12&#45;&gt;Node13</title>
<path fill="none" stroke="midnightblue" d="M1552.55,-58.83C1629.38,-50.77 1766.53,-35.8 1883.5,-20 1886.43,-19.6 1889.44,-19.18 1892.47,-18.75"/>
<polygon fill="midnightblue" stroke="midnightblue" points="1552.15,-55.35 1542.57,-59.87 1552.88,-62.31 1552.15,-55.35"/>
</g>
<!-- Node14 -->
<g id="node14" class="node">
<title>Node14</title>
<g id="a_node14"><a xlink:href="_o_m_sim_m_d_o_m_flasher_8cc.html" target="_top" xlink:title=" ">
<polygon fill="white" stroke="black" points="2008.5,-0.5 2008.5,-19.5 2142.5,-19.5 2142.5,-0.5 2008.5,-0.5"/>
<text text-anchor="middle" x="2075.5" y="-7.5" font-family="Helvetica,sans-Serif" font-size="10.00">OMSimMDOMFlasher.cc</text>
</a>
</g>
</g>
<!-- Node12&#45;&gt;Node14 -->
<g id="edge22" class="edge">
<title>Node12&#45;&gt;Node14</title>
<path fill="none" stroke="midnightblue" d="M1552.55,-60.24C1647.52,-52.59 1838.16,-36.71 1999.5,-20 2002.41,-19.7 2005.38,-19.38 2008.38,-19.06"/>
<polygon fill="midnightblue" stroke="midnightblue" points="1552.25,-56.76 1542.56,-61.05 1552.81,-63.73 1552.25,-56.76"/>
</g>
<!-- Node15 -->
<g id="node15" class="node">
<title>Node15</title>
<g id="a_node15"><a xlink:href="_o_m_sim_m_d_o_m_harness_8cc.html" target="_top" xlink:title=" ">
<polygon fill="white" stroke="black" points="1736.5,-0.5 1736.5,-19.5 1874.5,-19.5 1874.5,-0.5 1736.5,-0.5"/>
<text text-anchor="middle" x="1805.5" y="-7.5" font-family="Helvetica,sans-Serif" font-size="10.00">OMSimMDOMHarness.cc</text>
</a>
</g>
</g>
<!-- Node12&#45;&gt;Node15 -->
<g id="edge23" class="edge">
<title>Node12&#45;&gt;Node15</title>
<path fill="none" stroke="midnightblue" d="M1552.04,-54.73C1611.19,-44.52 1700.83,-29.06 1756.14,-19.52"/>
<polygon fill="midnightblue" stroke="midnightblue" points="1551.36,-51.29 1542.1,-56.44 1552.55,-58.19 1551.36,-51.29"/>
</g>
<!-- Node16&#45;&gt;Node2 -->
<g id="edge28" class="edge">
<title>Node16&#45;&gt;Node2</title>
<path fill="none" stroke="midnightblue" d="M1010.55,-158.43C1006.63,-144.63 1004.02,-125.86 1012.5,-112 1023.87,-93.41 1045.62,-82.19 1064.65,-75.6"/>
<polygon fill="midnightblue" stroke="midnightblue" points="1007.33,-159.85 1013.79,-168.25 1013.98,-157.66 1007.33,-159.85"/>
</g>
<!-- Node16&#45;&gt;Node8 -->
<g id="edge46" class="edge">
<title>Node16&#45;&gt;Node8</title>
<path fill="none" stroke="midnightblue" d="M1022.38,-158.43C1027.18,-143.76 1035.95,-123.84 1050.5,-112 1068.57,-97.3 1126.26,-83.81 1168.57,-75.51"/>
<polygon fill="midnightblue" stroke="midnightblue" points="1018.91,-157.83 1019.46,-168.41 1025.63,-159.8 1018.91,-157.83"/>
</g>
<!-- Node16&#45;&gt;Node10 -->
<g id="edge47" class="edge">
<title>Node16&#45;&gt;Node10</title>
<path fill="none" stroke="midnightblue" d="M1030.98,-160.15C1044.03,-145.05 1065.23,-123.55 1088.5,-112 1105.82,-103.4 1217.87,-85.09 1284.96,-74.67"/>
<polygon fill="midnightblue" stroke="midnightblue" points="1028,-158.26 1024.28,-168.18 1033.37,-162.74 1028,-158.26"/>
</g>
<!-- Node16&#45;&gt;Node12 -->
<g id="edge48" class="edge">
<title>Node16&#45;&gt;Node12</title>
<path fill="none" stroke="midnightblue" d="M1039.69,-162.96C1069.56,-144.09 1119.26,-112.79 1121.5,-112 1251.12,-66.49 1292.25,-93.57 1428.5,-76 1432.95,-75.43 1437.57,-74.81 1442.21,-74.18"/>
<polygon fill="midnightblue" stroke="midnightblue" points="1037.71,-160.07 1031.13,-168.37 1041.45,-165.99 1037.71,-160.07"/>
</g>
<!-- Node17 -->
<g id="node17" class="node">
<title>Node17</title>
<g id="a_node17"><a xlink:href="_o_m_sim_detector_construction_8hh.html" target="_top" xlink:title=" ">
<polygon fill="white" stroke="black" points="416.5,-112.5 416.5,-131.5 586.5,-131.5 586.5,-112.5 416.5,-112.5"/>
<text text-anchor="middle" x="501.5" y="-119.5" font-family="Helvetica,sans-Serif" font-size="10.00">OMSimDetectorConstruction.hh</text>
</a>
</g>
</g>
<!-- Node16&#45;&gt;Node17 -->
<g id="edge29" class="edge">
<title>Node16&#45;&gt;Node17</title>
<path fill="none" stroke="midnightblue" d="M939.02,-168.79C842.84,-158.72 680.65,-141.75 583.08,-131.54"/>
<polygon fill="midnightblue" stroke="midnightblue" points="938.67,-172.27 948.98,-169.83 939.4,-165.31 938.67,-172.27"/>
</g>
<!-- Node25 -->
<g id="node25" class="node">
<title>Node25</title>
<g id="a_node25"><a xlink:href="_o_m_sim_rad_decays_detector_8hh.html" target="_top" xlink:title="Defines the OMSimRadDecaysDetector class for the radioactive decays simulation.">
<polygon fill="white" stroke="black" points="757,-56.5 757,-75.5 920,-75.5 920,-56.5 757,-56.5"/>
<text text-anchor="middle" x="838.5" y="-63.5" font-family="Helvetica,sans-Serif" font-size="10.00">OMSimRadDecaysDetector.hh</text>
</a>
</g>
</g>
<!-- Node16&#45;&gt;Node25 -->
<g id="edge59" class="edge">
<title>Node16&#45;&gt;Node25</title>
<path fill="none" stroke="midnightblue" d="M994.73,-163.01C957.16,-139.92 883.27,-94.51 852.48,-75.59"/>
<polygon fill="midnightblue" stroke="midnightblue" points="993.1,-166.11 1003.45,-168.37 996.77,-160.15 993.1,-166.11"/>
</g>
<!-- Node16&#45;&gt;Node27 -->
<g id="edge49" class="edge">
<title>Node16&#45;&gt;Node27</title>
<path fill="none" stroke="midnightblue" d="M997.26,-161.86C988.49,-154.03 979.18,-143.67 974.5,-132 966.81,-112.83 975.87,-88.48 981.92,-75.72"/>
<polygon fill="midnightblue" stroke="midnightblue" points="995.08,-164.6 1005,-168.3 999.55,-159.22 995.08,-164.6"/>
</g>
<!-- Node16&#45;&gt;Node29 -->
<g id="edge55" class="edge">
<title>Node16&#45;&gt;Node29</title>
<path fill="none" stroke="midnightblue" d="M1055.82,-165.57C1089.96,-155.38 1139.16,-140.7 1169.95,-131.52"/>
<polygon fill="midnightblue" stroke="midnightblue" points="1054.76,-162.23 1046.18,-168.44 1056.76,-168.94 1054.76,-162.23"/>
</g>
<!-- Node30 -->
<g id="node30" class="node">
<title>Node30</title>
<g id="a_node30"><a xlink:href="_o_m_sim_decays_g_p_s_8hh.html" target="_top" xlink:title="Defines the IsotopeDecays class for the radioactive decays simulation.">
<polygon fill="white" stroke="black" points="617.5,-112.5 617.5,-131.5 739.5,-131.5 739.5,-112.5 617.5,-112.5"/>
<text text-anchor="middle" x="678.5" y="-119.5" font-family="Helvetica,sans-Serif" font-size="10.00">OMSimDecaysGPS.hh</text>
</a>
</g>
</g>
<!-- Node16&#45;&gt;Node30 -->
<g id="edge56" class="edge">
<title>Node16&#45;&gt;Node30</title>
<path fill="none" stroke="midnightblue" d="M953.8,-166.85C889.75,-156.65 792.11,-141.1 731.96,-131.52"/>
<polygon fill="midnightblue" stroke="midnightblue" points="953.36,-170.33 963.78,-168.44 954.46,-163.41 953.36,-170.33"/>
</g>
<!-- Node17&#45;&gt;Node4 -->
<g id="edge35" class="edge">
<title>Node17&#45;&gt;Node4</title>
<path fill="none" stroke="midnightblue" d="M597.05,-112.78C600.92,-112.51 604.74,-112.24 608.5,-112 782.98,-100.67 1225.88,-122.24 1394.5,-76 1397.35,-75.22 1468.06,-37.15 1500.5,-19.64"/>
<polygon fill="midnightblue" stroke="midnightblue" points="596.47,-109.31 586.75,-113.53 596.98,-116.29 596.47,-109.31"/>
</g>
<!-- Node18 -->
<g id="node18" class="node">
<title>Node18</title>
<g id="a_node18"><a xlink:href="_o_m_sim_8hh.html" target="_top" xlink:title="Main simulation class for the Optical Module (OM) simulation. This file defines the OMSim class,...">
<polygon fill="white" stroke="black" points="165,-56.5 165,-75.5 232,-75.5 232,-56.5 165,-56.5"/>
<text text-anchor="middle" x="198.5" y="-63.5" font-family="Helvetica,sans-Serif" font-size="10.00">OMSim.hh</text>
</a>
</g>
</g>
<!-- Node17&#45;&gt;Node18 -->
<g id="edge30" class="edge">
<title>Node17&#45;&gt;Node18</title>
<path fill="none" stroke="midnightblue" d="M438.48,-110.87C385.53,-102.18 307.94,-89.03 240.5,-76 237.86,-75.49 235.14,-74.95 232.4,-74.39"/>
<polygon fill="midnightblue" stroke="midnightblue" points="437.96,-114.33 448.4,-112.49 439.09,-107.42 437.96,-114.33"/>
</g>
<!-- Node17&#45;&gt;Node23 -->
<g id="edge36" class="edge">
<title>Node17&#45;&gt;Node23</title>
<path fill="none" stroke="midnightblue" d="M423.56,-111.17C342.76,-100.97 217.72,-85.2 141,-75.52"/>
<polygon fill="midnightblue" stroke="midnightblue" points="423.32,-114.66 433.68,-112.44 424.2,-107.72 423.32,-114.66"/>
</g>
<!-- Node24 -->
<g id="node24" class="node">
<title>Node24</title>
<g id="a_node24"><a xlink:href="_o_m_sim_effective_area_detector_8hh.html" target="_top" xlink:title="Defines the OMSimEffectiveAreaDetector class for effective area simulation detector construction.">
<polygon fill="white" stroke="black" points="250,-56.5 250,-75.5 423,-75.5 423,-56.5 250,-56.5"/>
<text text-anchor="middle" x="336.5" y="-63.5" font-family="Helvetica,sans-Serif" font-size="10.00">OMSimEffectiveAreaDetector.hh</text>
</a>
</g>
</g>
<!-- Node17&#45;&gt;Node24 -->
<g id="edge37" class="edge">
<title>Node17&#45;&gt;Node24</title>
<path fill="none" stroke="midnightblue" d="M465.76,-109.3C434.67,-99.13 390.35,-84.62 362.52,-75.52"/>
<polygon fill="midnightblue" stroke="midnightblue" points="464.76,-112.66 475.36,-112.44 466.94,-106.01 464.76,-112.66"/>
</g>
<!-- Node17&#45;&gt;Node25 -->
<g id="edge40" class="edge">
<title>Node17&#45;&gt;Node25</title>
<path fill="none" stroke="midnightblue" d="M564.82,-110.85C628.49,-100.65 725.56,-85.1 785.35,-75.52"/>
<polygon fill="midnightblue" stroke="midnightblue" points="564.22,-107.41 554.9,-112.44 565.33,-114.32 564.22,-107.41"/>
</g>
<!-- Node26 -->
<g id="node26" class="node">
<title>Node26</title>
<g id="a_node26"><a xlink:href="_o_m_sim_s_ndetector_8hh.html" target="_top" xlink:title=" ">
<polygon fill="white" stroke="black" points="441.5,-56.5 441.5,-75.5 561.5,-75.5 561.5,-56.5 441.5,-56.5"/>
<text text-anchor="middle" x="501.5" y="-63.5" font-family="Helvetica,sans-Serif" font-size="10.00">OMSimSNdetector.hh</text>
</a>
</g>
</g>
<!-- Node17&#45;&gt;Node26 -->
<g id="edge43" class="edge">
<title>Node17&#45;&gt;Node26</title>
<path fill="none" stroke="midnightblue" d="M501.5,-101.8C501.5,-92.91 501.5,-82.78 501.5,-75.75"/>
<polygon fill="midnightblue" stroke="midnightblue" points="498,-102.08 501.5,-112.08 505,-102.08 498,-102.08"/>
</g>
<!-- Node19 -->
<g id="node19" class="node">
<title>Node19</title>
<g id="a_node19"><a xlink:href="_o_m_sim_8cc.html" target="_top" xlink:title="Implementation of the OMSim class.">
<polygon fill="white" stroke="black" points="18,-0.5 18,-19.5 83,-19.5 83,-0.5 18,-0.5"/>
<text text-anchor="middle" x="50.5" y="-7.5" font-family="Helvetica,sans-Serif" font-size="10.00">OMSim.cc</text>
</a>
</g>
</g>
<!-- Node18&#45;&gt;Node19 -->
<g id="edge31" class="edge">
<title>Node18&#45;&gt;Node19</title>
<path fill="none" stroke="midnightblue" d="M165.35,-52.91C137.53,-42.75 98.48,-28.51 73.84,-19.52"/>
<polygon fill="midnightblue" stroke="midnightblue" points="164.46,-56.3 175.05,-56.44 166.85,-49.73 164.46,-56.3"/>
</g>
<!-- Node20 -->
<g id="node20" class="node">
<title>Node20</title>
<g id="a_node20"><a xlink:href="_o_m_sim__effective__area_8cc.html" target="_top" xlink:title="Main for the calculation of effective areas.">
<polygon fill="white" stroke="black" points="101.5,-0.5 101.5,-19.5 241.5,-19.5 241.5,-0.5 101.5,-0.5"/>
<text text-anchor="middle" x="171.5" y="-7.5" font-family="Helvetica,sans-Serif" font-size="10.00">OMSim_effective_area.cc</text>
</a>
</g>
</g>
<!-- Node18&#45;&gt;Node20 -->
<g id="edge32" class="edge">
<title>Node18&#45;&gt;Node20</title>
<path fill="none" stroke="midnightblue" d="M189.49,-46.98C184.91,-37.82 179.55,-27.09 175.88,-19.75"/>
<polygon fill="midnightblue" stroke="midnightblue" points="186.44,-48.7 194.04,-56.08 192.7,-45.57 186.44,-48.7"/>
</g>
<!-- Node21 -->
<g id="node21" class="node">
<title>Node21</title>
<g id="a_node21"><a xlink:href="_o_m_sim__radioactive__decays_8cc.html" target="_top" xlink:title="Main of the radioactive decay study.">
<polygon fill="white" stroke="black" points="400,-0.5 400,-19.5 565,-19.5 565,-0.5 400,-0.5"/>
<text text-anchor="middle" x="482.5" y="-7.5" font-family="Helvetica,sans-Serif" font-size="10.00">OMSim_radioactive_decays.cc</text>
</a>
</g>
</g>
<!-- Node18&#45;&gt;Node21 -->
<g id="edge33" class="edge">
<title>Node18&#45;&gt;Node21</title>
<path fill="none" stroke="midnightblue" d="M242.55,-55.63C314.47,-41.32 387.51,-27.97 434.21,-19.58"/>
<polygon fill="midnightblue" stroke="midnightblue" points="241.53,-52.26 232.41,-57.65 242.9,-59.12 241.53,-52.26"/>
</g>
<!-- Node22 -->
<g id="node22" class="node">
<title>Node22</title>
<g id="a_node22"><a xlink:href="_o_m_sim__supernova_8cc.html" target="_top" xlink:title="Main of the supernova study.">
<polygon fill="white" stroke="black" points="259.5,-0.5 259.5,-19.5 381.5,-19.5 381.5,-0.5 259.5,-0.5"/>
<text text-anchor="middle" x="320.5" y="-7.5" font-family="Helvetica,sans-Serif" font-size="10.00">OMSim_supernova.cc</text>
</a>
</g>
</g>
<!-- Node18&#45;&gt;Node22 -->
<g id="edge34" class="edge">
<title>Node18&#45;&gt;Node22</title>
<path fill="none" stroke="midnightblue" d="M227.04,-52.37C249.89,-42.26 281.31,-28.35 301.26,-19.52"/>
<polygon fill="midnightblue" stroke="midnightblue" points="225.56,-49.2 217.83,-56.44 228.39,-55.6 225.56,-49.2"/>
</g>
<!-- Node24&#45;&gt;Node5 -->
<g id="edge39" class="edge">
<title>Node24&#45;&gt;Node5</title>
<path fill="none" stroke="midnightblue" d="M433.11,-55.65C538.82,-45.42 706.72,-29.17 808.18,-19.35"/>
<polygon fill="midnightblue" stroke="midnightblue" points="432.69,-52.17 423.08,-56.62 433.37,-59.14 432.69,-52.17"/>
</g>
<!-- Node24&#45;&gt;Node20 -->
<g id="edge38" class="edge">
<title>Node24&#45;&gt;Node20</title>
<path fill="none" stroke="midnightblue" d="M300.76,-53.3C269.67,-43.13 225.35,-28.62 197.52,-19.52"/>
<polygon fill="midnightblue" stroke="midnightblue" points="299.76,-56.66 310.36,-56.44 301.94,-50.01 299.76,-56.66"/>
</g>
<!-- Node25&#45;&gt;Node6 -->
<g id="edge42" class="edge">
<title>Node25&#45;&gt;Node6</title>
<path fill="none" stroke="midnightblue" d="M908.64,-54.98C980.05,-44.78 1089.54,-29.14 1156.88,-19.52"/>
<polygon fill="midnightblue" stroke="midnightblue" points="907.8,-51.56 898.4,-56.44 908.79,-58.49 907.8,-51.56"/>
</g>
<!-- Node25&#45;&gt;Node21 -->
<g id="edge41" class="edge">
<title>Node25&#45;&gt;Node21</title>
<path fill="none" stroke="midnightblue" d="M772.02,-54.92C704.77,-44.71 601.94,-29.12 538.65,-19.52"/>
<polygon fill="midnightblue" stroke="midnightblue" points="771.68,-58.4 782.09,-56.44 772.73,-51.48 771.68,-58.4"/>
</g>
<!-- Node26&#45;&gt;Node7 -->
<g id="edge45" class="edge">
<title>Node26&#45;&gt;Node7</title>
<path fill="none" stroke="midnightblue" d="M571.77,-58.85C686.83,-48.72 910.5,-28.79 989.5,-20 992.5,-19.67 995.58,-19.31 998.68,-18.94"/>
<polygon fill="midnightblue" stroke="midnightblue" points="571.31,-55.38 561.66,-59.74 571.93,-62.35 571.31,-55.38"/>
</g>
<!-- Node26&#45;&gt;Node22 -->
<g id="edge44" class="edge">
<title>Node26&#45;&gt;Node22</title>
<path fill="none" stroke="midnightblue" d="M463.18,-53.57C429.04,-43.38 379.84,-28.7 349.05,-19.52"/>
<polygon fill="midnightblue" stroke="midnightblue" points="462.24,-56.94 472.82,-56.44 464.24,-50.23 462.24,-56.94"/>
</g>
<!-- Node27&#45;&gt;Node4 -->
<g id="edge50" class="edge">
<title>Node27&#45;&gt;Node4</title>
<path fill="none" stroke="midnightblue" d="M1045.46,-55.81C1213.08,-34.84 1257.35,-35.75 1422.5,-20 1425.6,-19.7 1428.76,-19.4 1431.95,-19.1"/>
<polygon fill="midnightblue" stroke="midnightblue" points="1044.77,-52.37 1035.29,-57.09 1045.65,-59.32 1044.77,-52.37"/>
</g>
<!-- Node27&#45;&gt;Node5 -->
<g id="edge52" class="edge">
<title>Node27&#45;&gt;Node5</title>
<path fill="none" stroke="midnightblue" d="M962.95,-51.18C946.02,-41.24 923.72,-28.15 909.24,-19.65"/>
<polygon fill="midnightblue" stroke="midnightblue" points="961.32,-54.28 971.72,-56.32 964.87,-48.24 961.32,-54.28"/>
</g>
<!-- Node27&#45;&gt;Node6 -->
<g id="edge53" class="edge">
<title>Node27&#45;&gt;Node6</title>
<path fill="none" stroke="midnightblue" d="M1032.7,-54.15C1076.16,-43.95 1140.34,-28.88 1180.23,-19.52"/>
<polygon fill="midnightblue" stroke="midnightblue" points="1031.88,-50.75 1022.94,-56.44 1033.48,-57.57 1031.88,-50.75"/>
</g>
<!-- Node27&#45;&gt;Node7 -->
<g id="edge54" class="edge">
<title>Node27&#45;&gt;Node7</title>
<path fill="none" stroke="midnightblue" d="M1006.37,-50.1C1019.32,-40.38 1035.8,-28.03 1046.72,-19.83"/>
<polygon fill="midnightblue" stroke="midnightblue" points="1003.97,-47.52 998.07,-56.32 1008.17,-53.12 1003.97,-47.52"/>
</g>
<!-- Node28 -->
<g id="node28" class="node">
<title>Node28</title>
<g id="a_node28"><a xlink:href="_o_m_sim_p_d_o_m_8cc.html" target="_top" xlink:title=" ">
<polygon fill="white" stroke="black" points="583,-0.5 583,-19.5 678,-19.5 678,-0.5 583,-0.5"/>
<text text-anchor="middle" x="630.5" y="-7.5" font-family="Helvetica,sans-Serif" font-size="10.00">OMSimPDOM.cc</text>
</a>
</g>
</g>
<!-- Node27&#45;&gt;Node28 -->
<g id="edge51" class="edge">
<title>Node27&#45;&gt;Node28</title>
<path fill="none" stroke="midnightblue" d="M927.77,-55.9C819.79,-39.49 791.41,-35.96 687.5,-20 684.43,-19.53 681.27,-19.04 678.08,-18.54"/>
<polygon fill="midnightblue" stroke="midnightblue" points="927.36,-59.37 937.77,-57.42 928.41,-52.45 927.36,-59.37"/>
</g>
<!-- Node30&#45;&gt;Node21 -->
<g id="edge57" class="edge">
<title>Node30&#45;&gt;Node21</title>
<path fill="none" stroke="midnightblue" d="M656.29,-107.02C634.64,-93.53 600.66,-72.76 570.5,-56 546.5,-42.66 518.13,-28.42 500.22,-19.61"/>
<polygon fill="midnightblue" stroke="midnightblue" points="654.7,-110.15 665.04,-112.49 658.41,-104.22 654.7,-110.15"/>
</g>
<!-- Node31 -->
<g id="node31" class="node">
<title>Node31</title>
<g id="a_node31"><a xlink:href="_o_m_sim_decays_g_p_s_8cc.html" target="_top" xlink:title=" ">
<polygon fill="white" stroke="black" points="618,-56.5 618,-75.5 739,-75.5 739,-56.5 618,-56.5"/>
<text text-anchor="middle" x="678.5" y="-63.5" font-family="Helvetica,sans-Serif" font-size="10.00">OMSimDecaysGPS.cc</text>
</a>
</g>
</g>
<!-- Node30&#45;&gt;Node31 -->
<g id="edge58" class="edge">
<title>Node30&#45;&gt;Node31</title>
<path fill="none" stroke="midnightblue" d="M678.5,-101.8C678.5,-92.91 678.5,-82.78 678.5,-75.75"/>
<polygon fill="midnightblue" stroke="midnightblue" points="675,-102.08 678.5,-112.08 682,-102.08 675,-102.08"/>
</g>
</g>
</svg>
