<?xml version="1.0" encoding="UTF-8" standalone="no"?>
<!DOCTYPE svg PUBLIC "-//W3C//DTD SVG 1.1//EN"
 "http://www.w3.org/Graphics/SVG/1.1/DTD/svg11.dtd">
<!-- Generated by graphviz version 2.43.0 (0)
 -->
<!-- Title: OMSim_supernova.cc Pages: 1 -->
<svg width="2717pt" height="420pt"
 viewBox="0.00 0.00 2717.00 420.00" xmlns="http://www.w3.org/2000/svg" xmlns:xlink="http://www.w3.org/1999/xlink">
<g id="graph0" class="graph" transform="scale(1 1) rotate(0) translate(4 416)">
<title>OMSim_supernova.cc</title>
<polygon fill="white" stroke="transparent" points="-4,4 -4,-416 2713,-416 2713,4 -4,4"/>
<!-- Node1 -->
<g id="node1" class="node">
<title>Node1</title>
<g id="a_node1"><a xlink:title="Main of the supernova study.">
<polygon fill="#bfbfbf" stroke="black" points="1691.5,-392.5 1691.5,-411.5 1813.5,-411.5 1813.5,-392.5 1691.5,-392.5"/>
<text text-anchor="middle" x="1752.5" y="-399.5" font-family="Helvetica,sans-Serif" font-size="10.00">OMSim_supernova.cc</text>
</a>
</g>
</g>
<!-- Node2 -->
<g id="node2" class="node">
<title>Node2</title>
<g id="a_node2"><a xlink:href="_o_m_sim_8hh.html" target="_top" xlink:title="Main simulation class for the Optical Module (OM) simulation. This file defines the OMSim class,...">
<polygon fill="white" stroke="black" points="937,-336.5 937,-355.5 1004,-355.5 1004,-336.5 937,-336.5"/>
<text text-anchor="middle" x="970.5" y="-343.5" font-family="Helvetica,sans-Serif" font-size="10.00">OMSim.hh</text>
</a>
</g>
</g>
<!-- Node1&#45;&gt;Node2 -->
<g id="edge1" class="edge">
<title>Node1&#45;&gt;Node2</title>
<path fill="none" stroke="midnightblue" d="M1691.46,-396.79C1539.4,-386.28 1146.42,-359.15 1014.46,-350.04"/>
<polygon fill="midnightblue" stroke="midnightblue" points="1014.54,-346.53 1004.32,-349.34 1014.06,-353.52 1014.54,-346.53"/>
</g>
<!-- Node14 -->
<g id="node12" class="node">
<title>Node14</title>
<g id="a_node12"><a xlink:href="_o_m_sim_hit_manager_8hh.html" target="_top" xlink:title="Defines structures and classes related to optical module photon hit management.">
<polygon fill="white" stroke="black" points="1886,-168.5 1886,-187.5 2009,-187.5 2009,-168.5 1886,-168.5"/>
<text text-anchor="middle" x="1947.5" y="-175.5" font-family="Helvetica,sans-Serif" font-size="10.00">OMSimHitManager.hh</text>
</a>
</g>
</g>
<!-- Node1&#45;&gt;Node14 -->
<g id="edge58" class="edge">
<title>Node1&#45;&gt;Node14</title>
<path fill="none" stroke="midnightblue" d="M1813.88,-400.66C1861.46,-397.7 1927.2,-387.49 1975.5,-356 2032.77,-318.66 2092.33,-280.95 2054.5,-224 2043.72,-207.78 2025.84,-197.39 2007.74,-190.75"/>
<polygon fill="midnightblue" stroke="midnightblue" points="2008.6,-187.34 1998.01,-187.51 2006.4,-193.99 2008.6,-187.34"/>
</g>
<!-- Node28 -->
<g id="node26" class="node">
<title>Node28</title>
<g id="a_node26"><a xlink:title=" ">
<polygon fill="white" stroke="#bfbfbf" points="0,-280.5 0,-299.5 185,-299.5 185,-280.5 0,-280.5"/>
<text text-anchor="middle" x="92.5" y="-287.5" font-family="Helvetica,sans-Serif" font-size="10.00">OMSimPrimaryGeneratorAction.hh</text>
</a>
</g>
</g>
<!-- Node1&#45;&gt;Node28 -->
<g id="edge57" class="edge">
<title>Node1&#45;&gt;Node28</title>
<path fill="none" stroke="midnightblue" d="M1691.41,-398.12C1554.57,-391.57 1213.06,-374.68 927.5,-356 604.38,-334.86 521.25,-327.12 195.44,-300.15"/>
<polygon fill="midnightblue" stroke="midnightblue" points="195.49,-296.65 185.23,-299.31 194.91,-303.62 195.49,-296.65"/>
</g>
<!-- Node49 -->
<g id="node45" class="node">
<title>Node49</title>
<g id="a_node45"><a xlink:href="_o_m_sim_s_n_analysis_8hh.html" target="_top" xlink:title=" ">
<polygon fill="white" stroke="black" points="1647.5,-224.5 1647.5,-243.5 1769.5,-243.5 1769.5,-224.5 1647.5,-224.5"/>
<text text-anchor="middle" x="1708.5" y="-231.5" font-family="Helvetica,sans-Serif" font-size="10.00">OMSimSNAnalysis.hh</text>
</a>
</g>
</g>
<!-- Node1&#45;&gt;Node49 -->
<g id="edge49" class="edge">
<title>Node1&#45;&gt;Node49</title>
<path fill="none" stroke="midnightblue" d="M1746.55,-392.47C1740.76,-383.72 1732.15,-369.52 1727.5,-356 1715.55,-321.27 1711.07,-278.32 1709.43,-254.05"/>
<polygon fill="midnightblue" stroke="midnightblue" points="1712.91,-253.54 1708.83,-243.76 1705.92,-253.95 1712.91,-253.54"/>
</g>
<!-- Node53 -->
<g id="node49" class="node">
<title>Node53</title>
<g id="a_node49"><a xlink:title=" ">
<polygon fill="white" stroke="#bfbfbf" points="1874.5,-336.5 1874.5,-355.5 1966.5,-355.5 1966.5,-336.5 1874.5,-336.5"/>
<text text-anchor="middle" x="1920.5" y="-343.5" font-family="Helvetica,sans-Serif" font-size="10.00">G4Navigator.hh</text>
</a>
</g>
</g>
<!-- Node1&#45;&gt;Node53 -->
<g id="edge59" class="edge">
<title>Node1&#45;&gt;Node53</title>
<path fill="none" stroke="midnightblue" d="M1779.12,-392.44C1807.51,-383.32 1852.64,-368.81 1884.25,-358.65"/>
<polygon fill="midnightblue" stroke="midnightblue" points="1885.56,-361.91 1894,-355.52 1883.41,-355.24 1885.56,-361.91"/>
</g>
<!-- Node54 -->
<g id="node50" class="node">
<title>Node54</title>
<g id="a_node50"><a xlink:href="_o_m_sim_s_ndetector_8hh.html" target="_top" xlink:title=" ">
<polygon fill="white" stroke="black" points="1736.5,-336.5 1736.5,-355.5 1856.5,-355.5 1856.5,-336.5 1736.5,-336.5"/>
<text text-anchor="middle" x="1796.5" y="-343.5" font-family="Helvetica,sans-Serif" font-size="10.00">OMSimSNdetector.hh</text>
</a>
</g>
</g>
<!-- Node1&#45;&gt;Node54 -->
<g id="edge60" class="edge">
<title>Node1&#45;&gt;Node54</title>
<path fill="none" stroke="midnightblue" d="M1759.77,-392.08C1766.04,-384.38 1775.29,-373.03 1782.93,-363.65"/>
<polygon fill="midnightblue" stroke="midnightblue" points="1785.77,-365.71 1789.37,-355.75 1780.34,-361.29 1785.77,-365.71"/>
</g>
<!-- Node3 -->
<g id="node3" class="node">
<title>Node3</title>
<g id="a_node3"><a xlink:href="_o_m_sim_detector_construction_8hh.html" target="_top" xlink:title=" ">
<polygon fill="white" stroke="black" points="1736.5,-280.5 1736.5,-299.5 1906.5,-299.5 1906.5,-280.5 1736.5,-280.5"/>
<text text-anchor="middle" x="1821.5" y="-287.5" font-family="Helvetica,sans-Serif" font-size="10.00">OMSimDetectorConstruction.hh</text>
</a>
</g>
</g>
<!-- Node2&#45;&gt;Node3 -->
<g id="edge2" class="edge">
<title>Node2&#45;&gt;Node3</title>
<path fill="none" stroke="midnightblue" d="M1004.2,-342.96C1106.97,-336.72 1425.54,-317.26 1689.5,-300 1701.32,-299.23 1713.73,-298.4 1726.02,-297.57"/>
<polygon fill="midnightblue" stroke="midnightblue" points="1726.55,-301.05 1736.3,-296.88 1726.08,-294.06 1726.55,-301.05"/>
</g>
<!-- Node27 -->
<g id="node25" class="node">
<title>Node27</title>
<g id="a_node25"><a xlink:title=" ">
<polygon fill="white" stroke="#bfbfbf" points="703,-280.5 703,-299.5 824,-299.5 824,-280.5 703,-280.5"/>
<text text-anchor="middle" x="763.5" y="-287.5" font-family="Helvetica,sans-Serif" font-size="10.00">OMSimPhysicsList.hh</text>
</a>
</g>
</g>
<!-- Node2&#45;&gt;Node27 -->
<g id="edge28" class="edge">
<title>Node2&#45;&gt;Node27</title>
<path fill="none" stroke="midnightblue" d="M937.7,-336.44C902.12,-327.16 845.19,-312.31 806.15,-302.13"/>
<polygon fill="midnightblue" stroke="midnightblue" points="806.71,-298.65 796.15,-299.52 804.94,-305.43 806.71,-298.65"/>
</g>
<!-- Node2&#45;&gt;Node28 -->
<g id="edge29" class="edge">
<title>Node2&#45;&gt;Node28</title>
<path fill="none" stroke="midnightblue" d="M936.77,-343.42C829.85,-338.34 488.65,-321.5 195.21,-300.11"/>
<polygon fill="midnightblue" stroke="midnightblue" points="195.46,-296.62 185.23,-299.38 194.95,-303.6 195.46,-296.62"/>
</g>
<!-- Node29 -->
<g id="node27" class="node">
<title>Node29</title>
<g id="a_node27"><a xlink:href="_o_m_sim_run_action_8hh.html" target="_top" xlink:title=" ">
<polygon fill="white" stroke="black" points="842.5,-280.5 842.5,-299.5 958.5,-299.5 958.5,-280.5 842.5,-280.5"/>
<text text-anchor="middle" x="900.5" y="-287.5" font-family="Helvetica,sans-Serif" font-size="10.00">OMSimRunAction.hh</text>
</a>
</g>
</g>
<!-- Node2&#45;&gt;Node29 -->
<g id="edge30" class="edge">
<title>Node2&#45;&gt;Node29</title>
<path fill="none" stroke="midnightblue" d="M959.25,-336.32C948.7,-328.18 932.7,-315.84 920.06,-306.09"/>
<polygon fill="midnightblue" stroke="midnightblue" points="922.01,-303.17 911.95,-299.83 917.73,-308.71 922.01,-303.17"/>
</g>
<!-- Node31 -->
<g id="node29" class="node">
<title>Node31</title>
<g id="a_node29"><a xlink:title=" ">
<polygon fill="white" stroke="#bfbfbf" points="977,-280.5 977,-299.5 1102,-299.5 1102,-280.5 977,-280.5"/>
<text text-anchor="middle" x="1039.5" y="-287.5" font-family="Helvetica,sans-Serif" font-size="10.00">OMSimEventAction.hh</text>
</a>
</g>
</g>
<!-- Node2&#45;&gt;Node31 -->
<g id="edge32" class="edge">
<title>Node2&#45;&gt;Node31</title>
<path fill="none" stroke="midnightblue" d="M981.59,-336.32C991.99,-328.18 1007.76,-315.84 1020.22,-306.09"/>
<polygon fill="midnightblue" stroke="midnightblue" points="1022.49,-308.75 1028.21,-299.83 1018.18,-303.24 1022.49,-308.75"/>
</g>
<!-- Node32 -->
<g id="node30" class="node">
<title>Node32</title>
<g id="a_node30"><a xlink:href="_o_m_sim_tracking_action_8hh.html" target="_top" xlink:title=" ">
<polygon fill="white" stroke="black" points="1120.5,-280.5 1120.5,-299.5 1258.5,-299.5 1258.5,-280.5 1120.5,-280.5"/>
<text text-anchor="middle" x="1189.5" y="-287.5" font-family="Helvetica,sans-Serif" font-size="10.00">OMSimTrackingAction.hh</text>
</a>
</g>
</g>
<!-- Node2&#45;&gt;Node32 -->
<g id="edge33" class="edge">
<title>Node2&#45;&gt;Node32</title>
<path fill="none" stroke="midnightblue" d="M1004.24,-336.68C1042.04,-327.36 1103.46,-312.22 1145.12,-301.94"/>
<polygon fill="midnightblue" stroke="midnightblue" points="1146.13,-305.3 1155,-299.51 1144.45,-298.5 1146.13,-305.3"/>
</g>
<!-- Node34 -->
<g id="node32" class="node">
<title>Node34</title>
<g id="a_node32"><a xlink:href="_o_m_sim_stepping_action_8hh.html" target="_top" xlink:title="Defines OMSimSteppingAction.Currently it only checks for trapped photons.">
<polygon fill="white" stroke="black" points="1276.5,-280.5 1276.5,-299.5 1416.5,-299.5 1416.5,-280.5 1276.5,-280.5"/>
<text text-anchor="middle" x="1346.5" y="-287.5" font-family="Helvetica,sans-Serif" font-size="10.00">OMSimSteppingAction.hh</text>
</a>
</g>
</g>
<!-- Node2&#45;&gt;Node34 -->
<g id="edge35" class="edge">
<title>Node2&#45;&gt;Node34</title>
<path fill="none" stroke="midnightblue" d="M1004.2,-340.16C1065.39,-331.37 1195.92,-312.63 1276.94,-300.99"/>
<polygon fill="midnightblue" stroke="midnightblue" points="1277.66,-304.42 1287.06,-299.54 1276.66,-297.49 1277.66,-304.42"/>
</g>
<!-- Node36 -->
<g id="node34" class="node">
<title>Node36</title>
<g id="a_node34"><a xlink:href="_o_m_sim_u_iinterface_8hh.html" target="_top" xlink:title="The OMSimUIinterface class provides a singleton interface to Geant4&#39;s UI manager.">
<polygon fill="white" stroke="black" points="1435,-280.5 1435,-299.5 1556,-299.5 1556,-280.5 1435,-280.5"/>
<text text-anchor="middle" x="1495.5" y="-287.5" font-family="Helvetica,sans-Serif" font-size="10.00">OMSimUIinterface.hh</text>
</a>
</g>
</g>
<!-- Node2&#45;&gt;Node36 -->
<g id="edge37" class="edge">
<title>Node2&#45;&gt;Node36</title>
<path fill="none" stroke="midnightblue" d="M1004.21,-342.01C1078.17,-335.37 1260.47,-318.6 1424.53,-300.08"/>
<polygon fill="midnightblue" stroke="midnightblue" points="1425.26,-303.52 1434.81,-298.91 1424.48,-296.56 1425.26,-303.52"/>
</g>
<!-- Node44 -->
<g id="node40" class="node">
<title>Node44</title>
<g id="a_node40"><a xlink:title=" ">
<polygon fill="white" stroke="#bfbfbf" points="1574.5,-280.5 1574.5,-299.5 1680.5,-299.5 1680.5,-280.5 1574.5,-280.5"/>
<text text-anchor="middle" x="1627.5" y="-287.5" font-family="Helvetica,sans-Serif" font-size="10.00">G4RunManager.hh</text>
</a>
</g>
</g>
<!-- Node2&#45;&gt;Node44 -->
<g id="edge44" class="edge">
<title>Node2&#45;&gt;Node44</title>
<path fill="none" stroke="midnightblue" d="M1004.12,-343.27C1093.51,-338.49 1344.6,-323.95 1564.32,-300.06"/>
<polygon fill="midnightblue" stroke="midnightblue" points="1564.87,-303.52 1574.43,-298.95 1564.11,-296.56 1564.87,-303.52"/>
</g>
<!-- Node45 -->
<g id="node41" class="node">
<title>Node45</title>
<g id="a_node41"><a xlink:title=" ">
<polygon fill="white" stroke="#bfbfbf" points="203,-280.5 203,-299.5 310,-299.5 310,-280.5 203,-280.5"/>
<text text-anchor="middle" x="256.5" y="-287.5" font-family="Helvetica,sans-Serif" font-size="10.00">G4VisExecutive.hh</text>
</a>
</g>
</g>
<!-- Node2&#45;&gt;Node45 -->
<g id="edge45" class="edge">
<title>Node2&#45;&gt;Node45</title>
<path fill="none" stroke="midnightblue" d="M936.83,-343.57C841.65,-339.34 562.36,-325.63 320.28,-300.12"/>
<polygon fill="midnightblue" stroke="midnightblue" points="320.55,-296.63 310.24,-299.05 319.81,-303.59 320.55,-296.63"/>
</g>
<!-- Node46 -->
<g id="node42" class="node">
<title>Node46</title>
<g id="a_node42"><a xlink:title=" ">
<polygon fill="white" stroke="#bfbfbf" points="328,-280.5 328,-299.5 431,-299.5 431,-280.5 328,-280.5"/>
<text text-anchor="middle" x="379.5" y="-287.5" font-family="Helvetica,sans-Serif" font-size="10.00">G4UIExecutive.hh</text>
</a>
</g>
</g>
<!-- Node2&#45;&gt;Node46 -->
<g id="edge46" class="edge">
<title>Node2&#45;&gt;Node46</title>
<path fill="none" stroke="midnightblue" d="M936.94,-342.87C854.51,-337.5 635.29,-322.26 441.16,-300"/>
<polygon fill="midnightblue" stroke="midnightblue" points="441.39,-296.51 431.06,-298.84 440.59,-303.46 441.39,-296.51"/>
</g>
<!-- Node47 -->
<g id="node43" class="node">
<title>Node47</title>
<g id="a_node43"><a xlink:title=" ">
<polygon fill="white" stroke="#bfbfbf" points="449.5,-280.5 449.5,-299.5 517.5,-299.5 517.5,-280.5 449.5,-280.5"/>
<text text-anchor="middle" x="483.5" y="-287.5" font-family="Helvetica,sans-Serif" font-size="10.00">filesystem</text>
</a>
</g>
</g>
<!-- Node2&#45;&gt;Node47 -->
<g id="edge47" class="edge">
<title>Node2&#45;&gt;Node47</title>
<path fill="none" stroke="midnightblue" d="M936.93,-342.81C864.17,-337.81 686.36,-324.17 527.65,-300.03"/>
<polygon fill="midnightblue" stroke="midnightblue" points="528.12,-296.56 517.71,-298.5 527.06,-303.48 528.12,-296.56"/>
</g>
<!-- Node48 -->
<g id="node44" class="node">
<title>Node48</title>
<g id="a_node44"><a xlink:title=" ">
<polygon fill="white" stroke="#bfbfbf" points="535.5,-280.5 535.5,-299.5 685.5,-299.5 685.5,-280.5 535.5,-280.5"/>
<text text-anchor="middle" x="610.5" y="-287.5" font-family="Helvetica,sans-Serif" font-size="10.00">boost/program_options.hpp</text>
</a>
</g>
</g>
<!-- Node2&#45;&gt;Node48 -->
<g id="edge48" class="edge">
<title>Node2&#45;&gt;Node48</title>
<path fill="none" stroke="midnightblue" d="M936.96,-339.97C877.9,-331.11 754.36,-312.58 677.33,-301.02"/>
<polygon fill="midnightblue" stroke="midnightblue" points="677.65,-297.53 667.25,-299.51 676.62,-304.46 677.65,-297.53"/>
</g>
<!-- Node4 -->
<g id="node4" class="node">
<title>Node4</title>
<g id="a_node4"><a xlink:href="_o_m_sim_optical_module_8hh.html" target="_top" xlink:title=" ">
<polygon fill="white" stroke="black" points="2102,-224.5 2102,-243.5 2239,-243.5 2239,-224.5 2102,-224.5"/>
<text text-anchor="middle" x="2170.5" y="-231.5" font-family="Helvetica,sans-Serif" font-size="10.00">OMSimOpticalModule.hh</text>
</a>
</g>
</g>
<!-- Node3&#45;&gt;Node4 -->
<g id="edge3" class="edge">
<title>Node3&#45;&gt;Node4</title>
<path fill="none" stroke="midnightblue" d="M1876.8,-280.44C1938.83,-270.85 2039.36,-255.29 2105.2,-245.1"/>
<polygon fill="midnightblue" stroke="midnightblue" points="2106.11,-248.5 2115.46,-243.52 2105.04,-241.59 2106.11,-248.5"/>
</g>
<!-- Node25 -->
<g id="node23" class="node">
<title>Node25</title>
<g id="a_node23"><a xlink:title=" ">
<polygon fill="white" stroke="#bfbfbf" points="1787.5,-224.5 1787.5,-243.5 1849.5,-243.5 1849.5,-224.5 1787.5,-224.5"/>
<text text-anchor="middle" x="1818.5" y="-231.5" font-family="Helvetica,sans-Serif" font-size="10.00">G4Orb.hh</text>
</a>
</g>
</g>
<!-- Node3&#45;&gt;Node25 -->
<g id="edge26" class="edge">
<title>Node3&#45;&gt;Node25</title>
<path fill="none" stroke="midnightblue" d="M1821,-280.08C1820.61,-273.01 1820.05,-262.86 1819.55,-253.99"/>
<polygon fill="midnightblue" stroke="midnightblue" points="1823.04,-253.54 1818.99,-243.75 1816.05,-253.93 1823.04,-253.54"/>
</g>
<!-- Node26 -->
<g id="node24" class="node">
<title>Node26</title>
<g id="a_node24"><a xlink:title=" ">
<polygon fill="white" stroke="#bfbfbf" points="1867.5,-224.5 1867.5,-243.5 2045.5,-243.5 2045.5,-224.5 1867.5,-224.5"/>
<text text-anchor="middle" x="1956.5" y="-231.5" font-family="Helvetica,sans-Serif" font-size="10.00">G4VUserDetectorConstruction.hh</text>
</a>
</g>
</g>
<!-- Node3&#45;&gt;Node26 -->
<g id="edge27" class="edge">
<title>Node3&#45;&gt;Node26</title>
<path fill="none" stroke="midnightblue" d="M1842.89,-280.44C1865.21,-271.52 1900.4,-257.44 1925.71,-247.32"/>
<polygon fill="midnightblue" stroke="midnightblue" points="1927.22,-250.48 1935.21,-243.52 1924.62,-243.98 1927.22,-250.48"/>
</g>
<!-- Node5 -->
<g id="node5" class="node">
<title>Node5</title>
<g id="a_node5"><a xlink:href="abc_detector_component_8hh.html" target="_top" xlink:title="Provides helper base class abcDetectorComponent for constructing and managing detector components in ...">
<polygon fill="white" stroke="black" points="2241,-112.5 2241,-131.5 2388,-131.5 2388,-112.5 2241,-112.5"/>
<text text-anchor="middle" x="2314.5" y="-119.5" font-family="Helvetica,sans-Serif" font-size="10.00">abcDetectorComponent.hh</text>
</a>
</g>
</g>
<!-- Node4&#45;&gt;Node5 -->
<g id="edge4" class="edge">
<title>Node4&#45;&gt;Node5</title>
<path fill="none" stroke="midnightblue" d="M2201.65,-224.49C2223.31,-217.4 2251.89,-205.59 2272.5,-188 2287.63,-175.09 2299.31,-155.37 2306.47,-141.04"/>
<polygon fill="midnightblue" stroke="midnightblue" points="2309.76,-142.26 2310.86,-131.73 2303.43,-139.27 2309.76,-142.26"/>
</g>
<!-- Node4&#45;&gt;Node14 -->
<g id="edge11" class="edge">
<title>Node4&#45;&gt;Node14</title>
<path fill="none" stroke="midnightblue" d="M2135.16,-224.44C2096.59,-215.1 2034.72,-200.12 1992.65,-189.93"/>
<polygon fill="midnightblue" stroke="midnightblue" points="1993.21,-186.47 1982.67,-187.52 1991.57,-193.27 1993.21,-186.47"/>
</g>
<!-- Node22 -->
<g id="node20" class="node">
<title>Node22</title>
<g id="a_node20"><a xlink:href="_o_m_sim_p_m_t_construction_8hh.html" target="_top" xlink:title="Construction of the PMTs.">
<polygon fill="white" stroke="black" points="2096,-168.5 2096,-187.5 2245,-187.5 2245,-168.5 2096,-168.5"/>
<text text-anchor="middle" x="2170.5" y="-175.5" font-family="Helvetica,sans-Serif" font-size="10.00">OMSimPMTConstruction.hh</text>
</a>
</g>
</g>
<!-- Node4&#45;&gt;Node22 -->
<g id="edge20" class="edge">
<title>Node4&#45;&gt;Node22</title>
<path fill="none" stroke="midnightblue" d="M2170.5,-224.08C2170.5,-217.01 2170.5,-206.86 2170.5,-197.99"/>
<polygon fill="midnightblue" stroke="midnightblue" points="2174,-197.75 2170.5,-187.75 2167,-197.75 2174,-197.75"/>
</g>
<!-- Node6 -->
<g id="node6" class="node">
<title>Node6</title>
<g id="a_node6"><a xlink:href="_o_m_sim_input_data_8hh.html" target="_top" xlink:title="Definition of ParameterTable and InputDataManager.">
<polygon fill="white" stroke="red" points="2594,-56.5 2594,-75.5 2709,-75.5 2709,-56.5 2594,-56.5"/>
<text text-anchor="middle" x="2651.5" y="-63.5" font-family="Helvetica,sans-Serif" font-size="10.00">OMSimInputData.hh</text>
</a>
</g>
</g>
<!-- Node5&#45;&gt;Node6 -->
<g id="edge5" class="edge">
<title>Node5&#45;&gt;Node6</title>
<path fill="none" stroke="midnightblue" d="M2367.9,-112.44C2427.8,-102.85 2524.87,-87.29 2588.45,-77.1"/>
<polygon fill="midnightblue" stroke="midnightblue" points="2589.03,-80.55 2598.35,-75.52 2587.92,-73.64 2589.03,-80.55"/>
</g>
<!-- Node10 -->
<g id="node8" class="node">
<title>Node10</title>
<g id="a_node8"><a xlink:title=" ">
<polygon fill="white" stroke="#bfbfbf" points="2070,-56.5 2070,-75.5 2177,-75.5 2177,-56.5 2070,-56.5"/>
<text text-anchor="middle" x="2123.5" y="-63.5" font-family="Helvetica,sans-Serif" font-size="10.00">G4Transform3D.hh</text>
</a>
</g>
</g>
<!-- Node5&#45;&gt;Node10 -->
<g id="edge7" class="edge">
<title>Node5&#45;&gt;Node10</title>
<path fill="none" stroke="midnightblue" d="M2284.24,-112.44C2251.54,-103.2 2199.32,-88.44 2163.32,-78.26"/>
<polygon fill="midnightblue" stroke="midnightblue" points="2164.2,-74.87 2153.62,-75.52 2162.29,-81.61 2164.2,-74.87"/>
</g>
<!-- Node11 -->
<g id="node9" class="node">
<title>Node11</title>
<g id="a_node9"><a xlink:title=" ">
<polygon fill="white" stroke="#bfbfbf" points="2195.5,-56.5 2195.5,-75.5 2303.5,-75.5 2303.5,-56.5 2195.5,-56.5"/>
<text text-anchor="middle" x="2249.5" y="-63.5" font-family="Helvetica,sans-Serif" font-size="10.00">G4VisAttributes.hh</text>
</a>
</g>
</g>
<!-- Node5&#45;&gt;Node11 -->
<g id="edge8" class="edge">
<title>Node5&#45;&gt;Node11</title>
<path fill="none" stroke="midnightblue" d="M2304.06,-112.32C2294.35,-104.26 2279.68,-92.08 2268,-82.37"/>
<polygon fill="midnightblue" stroke="midnightblue" points="2270.06,-79.53 2260.13,-75.83 2265.59,-84.92 2270.06,-79.53"/>
</g>
<!-- Node12 -->
<g id="node10" class="node">
<title>Node12</title>
<g id="a_node10"><a xlink:title=" ">
<polygon fill="white" stroke="#bfbfbf" points="2322,-56.5 2322,-75.5 2447,-75.5 2447,-56.5 2322,-56.5"/>
<text text-anchor="middle" x="2384.5" y="-63.5" font-family="Helvetica,sans-Serif" font-size="10.00">G4SubtractionSolid.hh</text>
</a>
</g>
</g>
<!-- Node5&#45;&gt;Node12 -->
<g id="edge9" class="edge">
<title>Node5&#45;&gt;Node12</title>
<path fill="none" stroke="midnightblue" d="M2325.75,-112.32C2336.3,-104.18 2352.3,-91.84 2364.94,-82.09"/>
<polygon fill="midnightblue" stroke="midnightblue" points="2367.27,-84.71 2373.05,-75.83 2362.99,-79.17 2367.27,-84.71"/>
</g>
<!-- Node13 -->
<g id="node11" class="node">
<title>Node13</title>
<g id="a_node11"><a xlink:title=" ">
<polygon fill="white" stroke="#bfbfbf" points="2465.5,-56.5 2465.5,-75.5 2575.5,-75.5 2575.5,-56.5 2465.5,-56.5"/>
<text text-anchor="middle" x="2520.5" y="-63.5" font-family="Helvetica,sans-Serif" font-size="10.00">G4PVPlacement.hh</text>
</a>
</g>
</g>
<!-- Node5&#45;&gt;Node13 -->
<g id="edge10" class="edge">
<title>Node5&#45;&gt;Node13</title>
<path fill="none" stroke="midnightblue" d="M2347.14,-112.44C2382.55,-103.16 2439.21,-88.31 2478.05,-78.13"/>
<polygon fill="midnightblue" stroke="midnightblue" points="2479.23,-81.44 2488.01,-75.52 2477.45,-74.67 2479.23,-81.44"/>
</g>
<!-- Node8 -->
<g id="node7" class="node">
<title>Node8</title>
<g id="a_node7"><a xlink:title=" ">
<polygon fill="white" stroke="#bfbfbf" points="2219,-0.5 2219,-19.5 2338,-19.5 2338,-0.5 2219,-0.5"/>
<text text-anchor="middle" x="2278.5" y="-7.5" font-family="Helvetica,sans-Serif" font-size="10.00">G4SystemOfUnits.hh</text>
</a>
</g>
</g>
<!-- Node6&#45;&gt;Node8 -->
<g id="edge6" class="edge">
<title>Node6&#45;&gt;Node8</title>
<path fill="none" stroke="midnightblue" d="M2593.63,-56.62C2527.22,-47.01 2418.38,-31.25 2347.59,-21"/>
<polygon fill="midnightblue" stroke="midnightblue" points="2347.83,-17.5 2337.43,-19.53 2346.83,-24.43 2347.83,-17.5"/>
</g>
<!-- Node15 -->
<g id="node13" class="node">
<title>Node15</title>
<g id="a_node13"><a xlink:href="_o_m_sim_p_m_t_response_8hh.html" target="_top" xlink:title="Provides simulation for PMT response. This class is responsible for transforming hits on photocathode...">
<polygon fill="white" stroke="black" points="1886,-112.5 1886,-131.5 2021,-131.5 2021,-112.5 1886,-112.5"/>
<text text-anchor="middle" x="1953.5" y="-119.5" font-family="Helvetica,sans-Serif" font-size="10.00">OMSimPMTResponse.hh</text>
</a>
</g>
</g>
<!-- Node14&#45;&gt;Node15 -->
<g id="edge12" class="edge">
<title>Node14&#45;&gt;Node15</title>
<path fill="none" stroke="midnightblue" d="M1948.49,-168.08C1949.29,-160.93 1950.43,-150.64 1951.42,-141.69"/>
<polygon fill="midnightblue" stroke="midnightblue" points="1954.9,-142.08 1952.53,-131.75 1947.94,-141.3 1954.9,-142.08"/>
</g>
<!-- Node20 -->
<g id="node18" class="node">
<title>Node20</title>
<g id="a_node18"><a xlink:title=" ">
<polygon fill="white" stroke="#bfbfbf" points="1765,-112.5 1765,-131.5 1868,-131.5 1868,-112.5 1765,-112.5"/>
<text text-anchor="middle" x="1816.5" y="-119.5" font-family="Helvetica,sans-Serif" font-size="10.00">G4ThreeVector.hh</text>
</a>
</g>
</g>
<!-- Node14&#45;&gt;Node20 -->
<g id="edge18" class="edge">
<title>Node14&#45;&gt;Node20</title>
<path fill="none" stroke="midnightblue" d="M1926.74,-168.44C1905.18,-159.56 1871.24,-145.56 1846.71,-135.45"/>
<polygon fill="midnightblue" stroke="midnightblue" points="1847.74,-132.09 1837.16,-131.52 1845.07,-138.56 1847.74,-132.09"/>
</g>
<!-- Node21 -->
<g id="node19" class="node">
<title>Node21</title>
<g id="a_node19"><a xlink:title=" ">
<polygon fill="white" stroke="#bfbfbf" points="1692,-112.5 1692,-131.5 1747,-131.5 1747,-112.5 1692,-112.5"/>
<text text-anchor="middle" x="1719.5" y="-119.5" font-family="Helvetica,sans-Serif" font-size="10.00">fstream</text>
</a>
</g>
</g>
<!-- Node14&#45;&gt;Node21 -->
<g id="edge19" class="edge">
<title>Node14&#45;&gt;Node21</title>
<path fill="none" stroke="midnightblue" d="M1910.87,-168.45C1874.43,-159.93 1816.67,-146.38 1757.3,-132.18"/>
<polygon fill="midnightblue" stroke="midnightblue" points="1757.92,-128.73 1747.38,-129.8 1756.29,-135.54 1757.92,-128.73"/>
</g>
<!-- Node15&#45;&gt;Node8 -->
<g id="edge13" class="edge">
<title>Node15&#45;&gt;Node8</title>
<path fill="none" stroke="midnightblue" d="M1944.56,-112.49C1931.56,-99.12 1910.56,-72.97 1925.5,-56 1943.89,-35.12 2111.16,-21.35 2208.7,-15.01"/>
<polygon fill="midnightblue" stroke="midnightblue" points="2209.03,-18.5 2218.78,-14.37 2208.58,-11.51 2209.03,-18.5"/>
</g>
<!-- Node16 -->
<g id="node14" class="node">
<title>Node16</title>
<g id="a_node14"><a xlink:title=" ">
<polygon fill="white" stroke="#bfbfbf" points="1628,-56.5 1628,-75.5 1701,-75.5 1701,-56.5 1628,-56.5"/>
<text text-anchor="middle" x="1664.5" y="-63.5" font-family="Helvetica,sans-Serif" font-size="10.00">G4Types.hh</text>
</a>
</g>
</g>
<!-- Node15&#45;&gt;Node16 -->
<g id="edge14" class="edge">
<title>Node15&#45;&gt;Node16</title>
<path fill="none" stroke="midnightblue" d="M1907.71,-112.44C1854.03,-102.41 1765.54,-85.88 1711.39,-75.76"/>
<polygon fill="midnightblue" stroke="midnightblue" points="1711.84,-72.28 1701.37,-73.89 1710.55,-79.17 1711.84,-72.28"/>
</g>
<!-- Node17 -->
<g id="node15" class="node">
<title>Node17</title>
<g id="a_node15"><a xlink:title=" ">
<polygon fill="white" stroke="#bfbfbf" points="1934.5,-56.5 1934.5,-75.5 1972.5,-75.5 1972.5,-56.5 1934.5,-56.5"/>
<text text-anchor="middle" x="1953.5" y="-63.5" font-family="Helvetica,sans-Serif" font-size="10.00">map</text>
</a>
</g>
</g>
<!-- Node15&#45;&gt;Node17 -->
<g id="edge15" class="edge">
<title>Node15&#45;&gt;Node17</title>
<path fill="none" stroke="midnightblue" d="M1953.5,-112.08C1953.5,-105.01 1953.5,-94.86 1953.5,-85.99"/>
<polygon fill="midnightblue" stroke="midnightblue" points="1957,-85.75 1953.5,-75.75 1950,-85.75 1957,-85.75"/>
</g>
<!-- Node18 -->
<g id="node16" class="node">
<title>Node18</title>
<g id="a_node16"><a xlink:title=" ">
<polygon fill="white" stroke="#bfbfbf" points="1991,-56.5 1991,-75.5 2052,-75.5 2052,-56.5 1991,-56.5"/>
<text text-anchor="middle" x="2021.5" y="-63.5" font-family="Helvetica,sans-Serif" font-size="10.00">TGraph.h</text>
</a>
</g>
</g>
<!-- Node15&#45;&gt;Node18 -->
<g id="edge16" class="edge">
<title>Node15&#45;&gt;Node18</title>
<path fill="none" stroke="midnightblue" d="M1964.43,-112.32C1974.67,-104.18 1990.22,-91.84 2002.5,-82.09"/>
<polygon fill="midnightblue" stroke="midnightblue" points="2004.72,-84.79 2010.38,-75.83 2000.37,-79.31 2004.72,-84.79"/>
</g>
<!-- Node19 -->
<g id="node17" class="node">
<title>Node19</title>
<g id="a_node17"><a xlink:title=" ">
<polygon fill="white" stroke="#bfbfbf" points="1825,-56.5 1825,-75.5 1878,-75.5 1878,-56.5 1825,-56.5"/>
<text text-anchor="middle" x="1851.5" y="-63.5" font-family="Helvetica,sans-Serif" font-size="10.00">TH2D.h</text>
</a>
</g>
</g>
<!-- Node15&#45;&gt;Node19 -->
<g id="edge17" class="edge">
<title>Node15&#45;&gt;Node19</title>
<path fill="none" stroke="midnightblue" d="M1937.11,-112.32C1920.83,-103.7 1895.63,-90.36 1876.78,-80.39"/>
<polygon fill="midnightblue" stroke="midnightblue" points="1878.32,-77.24 1867.85,-75.65 1875.05,-83.43 1878.32,-77.24"/>
</g>
<!-- Node22&#45;&gt;Node5 -->
<g id="edge21" class="edge">
<title>Node22&#45;&gt;Node5</title>
<path fill="none" stroke="midnightblue" d="M2193.32,-168.44C2217.33,-159.44 2255.33,-145.19 2282.37,-135.05"/>
<polygon fill="midnightblue" stroke="midnightblue" points="2283.66,-138.3 2291.79,-131.52 2281.2,-131.75 2283.66,-138.3"/>
</g>
<!-- Node22&#45;&gt;Node15 -->
<g id="edge23" class="edge">
<title>Node22&#45;&gt;Node15</title>
<path fill="none" stroke="midnightblue" d="M2136.12,-168.44C2098.58,-159.1 2038.37,-144.12 1997.43,-133.93"/>
<polygon fill="midnightblue" stroke="midnightblue" points="1998.27,-130.53 1987.72,-131.52 1996.58,-137.33 1998.27,-130.53"/>
</g>
<!-- Node22&#45;&gt;Node22 -->
<g id="edge22" class="edge">
<title>Node22&#45;&gt;Node22</title>
<path fill="none" stroke="midnightblue" d="M2209.95,-187.53C2236.76,-190.31 2263,-187.13 2263,-178 2263,-170.01 2242.91,-166.58 2219.93,-167.71"/>
<polygon fill="midnightblue" stroke="midnightblue" points="2219.65,-164.22 2209.95,-168.47 2220.19,-171.2 2219.65,-164.22"/>
</g>
<!-- Node23 -->
<g id="node21" class="node">
<title>Node23</title>
<g id="a_node21"><a xlink:title=" ">
<polygon fill="white" stroke="#bfbfbf" points="2039.5,-112.5 2039.5,-131.5 2137.5,-131.5 2137.5,-112.5 2039.5,-112.5"/>
<text text-anchor="middle" x="2088.5" y="-119.5" font-family="Helvetica,sans-Serif" font-size="10.00">G4UnionSolid.hh</text>
</a>
</g>
</g>
<!-- Node22&#45;&gt;Node23 -->
<g id="edge24" class="edge">
<title>Node22&#45;&gt;Node23</title>
<path fill="none" stroke="midnightblue" d="M2157.33,-168.32C2144.65,-159.98 2125.27,-147.21 2110.29,-137.35"/>
<polygon fill="midnightblue" stroke="midnightblue" points="2111.92,-134.23 2101.64,-131.65 2108.07,-140.08 2111.92,-134.23"/>
</g>
<!-- Node24 -->
<g id="node22" class="node">
<title>Node24</title>
<g id="a_node22"><a xlink:title=" ">
<polygon fill="white" stroke="#bfbfbf" points="2156,-112.5 2156,-131.5 2223,-131.5 2223,-112.5 2156,-112.5"/>
<text text-anchor="middle" x="2189.5" y="-119.5" font-family="Helvetica,sans-Serif" font-size="10.00">G4Tubs.hh</text>
</a>
</g>
</g>
<!-- Node22&#45;&gt;Node24 -->
<g id="edge25" class="edge">
<title>Node22&#45;&gt;Node24</title>
<path fill="none" stroke="midnightblue" d="M2173.64,-168.08C2176.18,-160.85 2179.86,-150.41 2183.03,-141.4"/>
<polygon fill="midnightblue" stroke="midnightblue" points="2186.4,-142.35 2186.42,-131.75 2179.8,-140.02 2186.4,-142.35"/>
</g>
<!-- Node30 -->
<g id="node28" class="node">
<title>Node30</title>
<g id="a_node28"><a xlink:title=" ">
<polygon fill="white" stroke="#bfbfbf" points="842,-224.5 842,-243.5 959,-243.5 959,-224.5 842,-224.5"/>
<text text-anchor="middle" x="900.5" y="-231.5" font-family="Helvetica,sans-Serif" font-size="10.00">G4UserRunAction.hh</text>
</a>
</g>
</g>
<!-- Node29&#45;&gt;Node30 -->
<g id="edge31" class="edge">
<title>Node29&#45;&gt;Node30</title>
<path fill="none" stroke="midnightblue" d="M900.5,-280.08C900.5,-273.01 900.5,-262.86 900.5,-253.99"/>
<polygon fill="midnightblue" stroke="midnightblue" points="904,-253.75 900.5,-243.75 897,-253.75 904,-253.75"/>
</g>
<!-- Node33 -->
<g id="node31" class="node">
<title>Node33</title>
<g id="a_node31"><a xlink:title=" ">
<polygon fill="white" stroke="#bfbfbf" points="1033,-224.5 1033,-243.5 1172,-243.5 1172,-224.5 1033,-224.5"/>
<text text-anchor="middle" x="1102.5" y="-231.5" font-family="Helvetica,sans-Serif" font-size="10.00">G4UserTrackingAction.hh</text>
</a>
</g>
</g>
<!-- Node32&#45;&gt;Node33 -->
<g id="edge34" class="edge">
<title>Node32&#45;&gt;Node33</title>
<path fill="none" stroke="midnightblue" d="M1175.52,-280.32C1161.95,-271.9 1141.12,-258.97 1125.18,-249.07"/>
<polygon fill="midnightblue" stroke="midnightblue" points="1126.79,-245.95 1116.44,-243.65 1123.09,-251.9 1126.79,-245.95"/>
</g>
<!-- Node35 -->
<g id="node33" class="node">
<title>Node35</title>
<g id="a_node33"><a xlink:title=" ">
<polygon fill="white" stroke="#bfbfbf" points="1190,-224.5 1190,-243.5 1331,-243.5 1331,-224.5 1190,-224.5"/>
<text text-anchor="middle" x="1260.5" y="-231.5" font-family="Helvetica,sans-Serif" font-size="10.00">G4UserSteppingAction.hh</text>
</a>
</g>
</g>
<!-- Node34&#45;&gt;Node35 -->
<g id="edge36" class="edge">
<title>Node34&#45;&gt;Node35</title>
<path fill="none" stroke="midnightblue" d="M1332.68,-280.32C1319.27,-271.9 1298.68,-258.97 1282.91,-249.07"/>
<polygon fill="midnightblue" stroke="midnightblue" points="1284.61,-246.01 1274.28,-243.65 1280.89,-251.94 1284.61,-246.01"/>
</g>
<!-- Node37 -->
<g id="node35" class="node">
<title>Node37</title>
<g id="a_node35"><a xlink:href="_o_m_sim_command_args_table_8hh.html" target="_top" xlink:title="Definition of the OMSimCommandArgsTable singleton class, which controls user args.">
<polygon fill="white" stroke="black" points="1349.5,-224.5 1349.5,-243.5 1513.5,-243.5 1513.5,-224.5 1349.5,-224.5"/>
<text text-anchor="middle" x="1431.5" y="-231.5" font-family="Helvetica,sans-Serif" font-size="10.00">OMSimCommandArgsTable.hh</text>
</a>
</g>
</g>
<!-- Node36&#45;&gt;Node37 -->
<g id="edge38" class="edge">
<title>Node36&#45;&gt;Node37</title>
<path fill="none" stroke="midnightblue" d="M1485.22,-280.32C1475.66,-272.26 1461.22,-260.08 1449.72,-250.37"/>
<polygon fill="midnightblue" stroke="midnightblue" points="1451.87,-247.61 1441.97,-243.83 1447.36,-252.96 1451.87,-247.61"/>
</g>
<!-- Node43 -->
<g id="node39" class="node">
<title>Node43</title>
<g id="a_node39"><a xlink:title=" ">
<polygon fill="white" stroke="#bfbfbf" points="1531.5,-224.5 1531.5,-243.5 1629.5,-243.5 1629.5,-224.5 1531.5,-224.5"/>
<text text-anchor="middle" x="1580.5" y="-231.5" font-family="Helvetica,sans-Serif" font-size="10.00">G4UImanager.hh</text>
</a>
</g>
</g>
<!-- Node36&#45;&gt;Node43 -->
<g id="edge43" class="edge">
<title>Node36&#45;&gt;Node43</title>
<path fill="none" stroke="midnightblue" d="M1509.16,-280.32C1522.42,-271.9 1542.77,-258.97 1558.35,-249.07"/>
<polygon fill="midnightblue" stroke="midnightblue" points="1560.31,-251.97 1566.88,-243.65 1556.56,-246.06 1560.31,-251.97"/>
</g>
<!-- Node37&#45;&gt;Node21 -->
<g id="edge40" class="edge">
<title>Node37&#45;&gt;Node21</title>
<path fill="none" stroke="midnightblue" d="M1446.3,-224.46C1470,-211.04 1518.22,-184.81 1561.5,-168 1601.68,-152.39 1649.49,-139.53 1681.92,-131.61"/>
<polygon fill="midnightblue" stroke="midnightblue" points="1682.97,-134.95 1691.87,-129.21 1681.33,-128.15 1682.97,-134.95"/>
</g>
<!-- Node38 -->
<g id="node36" class="node">
<title>Node38</title>
<g id="a_node36"><a xlink:href="_o_m_sim_logger_8hh.html" target="_top" xlink:title=" ">
<polygon fill="white" stroke="red" points="1275,-168.5 1275,-187.5 1374,-187.5 1374,-168.5 1275,-168.5"/>
<text text-anchor="middle" x="1324.5" y="-175.5" font-family="Helvetica,sans-Serif" font-size="10.00">OMSimLogger.hh</text>
</a>
</g>
</g>
<!-- Node37&#45;&gt;Node38 -->
<g id="edge39" class="edge">
<title>Node37&#45;&gt;Node38</title>
<path fill="none" stroke="midnightblue" d="M1414.31,-224.32C1397.15,-215.66 1370.55,-202.24 1350.75,-192.25"/>
<polygon fill="midnightblue" stroke="midnightblue" points="1352.15,-189.04 1341.65,-187.65 1349,-195.28 1352.15,-189.04"/>
</g>
<!-- Node41 -->
<g id="node37" class="node">
<title>Node41</title>
<g id="a_node37"><a xlink:title=" ">
<polygon fill="white" stroke="#bfbfbf" points="1392.5,-168.5 1392.5,-187.5 1476.5,-187.5 1476.5,-168.5 1392.5,-168.5"/>
<text text-anchor="middle" x="1434.5" y="-175.5" font-family="Helvetica,sans-Serif" font-size="10.00">boost/any.hpp</text>
</a>
</g>
</g>
<!-- Node37&#45;&gt;Node41 -->
<g id="edge41" class="edge">
<title>Node37&#45;&gt;Node41</title>
<path fill="none" stroke="midnightblue" d="M1432,-224.08C1432.39,-217.01 1432.95,-206.86 1433.45,-197.99"/>
<polygon fill="midnightblue" stroke="midnightblue" points="1436.95,-197.93 1434.01,-187.75 1429.96,-197.54 1436.95,-197.93"/>
</g>
<!-- Node42 -->
<g id="node38" class="node">
<title>Node42</title>
<g id="a_node38"><a xlink:title=" ">
<polygon fill="white" stroke="#bfbfbf" points="1188.5,-168.5 1188.5,-187.5 1256.5,-187.5 1256.5,-168.5 1188.5,-168.5"/>
<text text-anchor="middle" x="1222.5" y="-175.5" font-family="Helvetica,sans-Serif" font-size="10.00">sys/time.h</text>
</a>
</g>
</g>
<!-- Node37&#45;&gt;Node42 -->
<g id="edge42" class="edge">
<title>Node37&#45;&gt;Node42</title>
<path fill="none" stroke="midnightblue" d="M1398.38,-224.44C1362.38,-215.14 1304.73,-200.25 1265.31,-190.06"/>
<polygon fill="midnightblue" stroke="midnightblue" points="1266.02,-186.63 1255.46,-187.52 1264.27,-193.41 1266.02,-186.63"/>
</g>
<!-- Node49&#45;&gt;Node14 -->
<g id="edge53" class="edge">
<title>Node49&#45;&gt;Node14</title>
<path fill="none" stroke="midnightblue" d="M1746.37,-224.44C1787.98,-215.04 1854.87,-199.93 1899.97,-189.74"/>
<polygon fill="midnightblue" stroke="midnightblue" points="1900.82,-193.13 1909.81,-187.52 1899.28,-186.31 1900.82,-193.13"/>
</g>
<!-- Node49&#45;&gt;Node16 -->
<g id="edge50" class="edge">
<title>Node49&#45;&gt;Node16</title>
<path fill="none" stroke="midnightblue" d="M1659.5,-224.44C1621.5,-216.69 1573.36,-204.04 1561.5,-188 1531.2,-147.04 1598.23,-102.2 1637.93,-80.4"/>
<polygon fill="midnightblue" stroke="midnightblue" points="1639.71,-83.41 1646.88,-75.61 1636.41,-77.24 1639.71,-83.41"/>
</g>
<!-- Node49&#45;&gt;Node20 -->
<g id="edge52" class="edge">
<title>Node49&#45;&gt;Node20</title>
<path fill="none" stroke="midnightblue" d="M1736.03,-224.4C1754.58,-217.33 1778.34,-205.57 1793.5,-188 1804.85,-174.84 1810.73,-155.7 1813.68,-141.6"/>
<polygon fill="midnightblue" stroke="midnightblue" points="1817.16,-142.04 1815.48,-131.58 1810.27,-140.8 1817.16,-142.04"/>
</g>
<!-- Node49&#45;&gt;Node21 -->
<g id="edge55" class="edge">
<title>Node49&#45;&gt;Node21</title>
<path fill="none" stroke="midnightblue" d="M1732.97,-224.44C1749.07,-217.38 1768.88,-205.63 1778.5,-188 1789.57,-167.73 1766.85,-148.67 1746.47,-136.5"/>
<polygon fill="midnightblue" stroke="midnightblue" points="1748.13,-133.42 1737.69,-131.57 1744.7,-139.52 1748.13,-133.42"/>
</g>
<!-- Node50 -->
<g id="node46" class="node">
<title>Node50</title>
<g id="a_node46"><a xlink:title=" ">
<polygon fill="white" stroke="#bfbfbf" points="1570.5,-168.5 1570.5,-187.5 1644.5,-187.5 1644.5,-168.5 1570.5,-168.5"/>
<text text-anchor="middle" x="1607.5" y="-175.5" font-family="Helvetica,sans-Serif" font-size="10.00">G4String.hh</text>
</a>
</g>
</g>
<!-- Node49&#45;&gt;Node50 -->
<g id="edge51" class="edge">
<title>Node49&#45;&gt;Node50</title>
<path fill="none" stroke="midnightblue" d="M1692.27,-224.32C1676.15,-215.7 1651.2,-202.36 1632.54,-192.39"/>
<polygon fill="midnightblue" stroke="midnightblue" points="1634.16,-189.28 1623.69,-187.65 1630.86,-195.46 1634.16,-189.28"/>
</g>
<!-- Node51 -->
<g id="node47" class="node">
<title>Node51</title>
<g id="a_node47"><a xlink:title=" ">
<polygon fill="white" stroke="#bfbfbf" points="1663,-168.5 1663,-187.5 1710,-187.5 1710,-168.5 1663,-168.5"/>
<text text-anchor="middle" x="1686.5" y="-175.5" font-family="Helvetica,sans-Serif" font-size="10.00">vector</text>
</a>
</g>
</g>
<!-- Node49&#45;&gt;Node51 -->
<g id="edge54" class="edge">
<title>Node49&#45;&gt;Node51</title>
<path fill="none" stroke="midnightblue" d="M1704.87,-224.08C1701.89,-216.77 1697.57,-206.18 1693.88,-197.1"/>
<polygon fill="midnightblue" stroke="midnightblue" points="1697.08,-195.69 1690.07,-187.75 1690.6,-198.33 1697.08,-195.69"/>
</g>
<!-- Node52 -->
<g id="node48" class="node">
<title>Node52</title>
<g id="a_node48"><a xlink:title=" ">
<polygon fill="white" stroke="#bfbfbf" points="1728,-168.5 1728,-187.5 1769,-187.5 1769,-168.5 1728,-168.5"/>
<text text-anchor="middle" x="1748.5" y="-175.5" font-family="Helvetica,sans-Serif" font-size="10.00">tuple</text>
</a>
</g>
</g>
<!-- Node49&#45;&gt;Node52 -->
<g id="edge56" class="edge">
<title>Node49&#45;&gt;Node52</title>
<path fill="none" stroke="midnightblue" d="M1715.11,-224.08C1720.76,-216.46 1729.04,-205.26 1735.95,-195.94"/>
<polygon fill="midnightblue" stroke="midnightblue" points="1738.88,-197.87 1742.02,-187.75 1733.25,-193.7 1738.88,-197.87"/>
</g>
<!-- Node54&#45;&gt;Node3 -->
<g id="edge61" class="edge">
<title>Node54&#45;&gt;Node3</title>
<path fill="none" stroke="midnightblue" d="M1800.63,-336.08C1804.01,-328.77 1808.92,-318.18 1813.12,-309.1"/>
<polygon fill="midnightblue" stroke="midnightblue" points="1816.42,-310.3 1817.45,-299.75 1810.07,-307.36 1816.42,-310.3"/>
</g>
</g>
</svg>
