<?xml version="1.0" encoding="UTF-8" standalone="no"?>
<!DOCTYPE svg PUBLIC "-//W3C//DTD SVG 1.1//EN"
 "http://www.w3.org/Graphics/SVG/1.1/DTD/svg11.dtd">
<!-- Generated by graphviz version 2.43.0 (0)
 -->
<!-- Title: OMSim.hh Pages: 1 -->
<svg width="2118pt" height="431pt"
 viewBox="0.00 0.00 2118.00 431.00" xmlns="http://www.w3.org/2000/svg" xmlns:xlink="http://www.w3.org/1999/xlink">
<g id="graph0" class="graph" transform="scale(1 1) rotate(0) translate(4 427)">
<title>OMSim.hh</title>
<!-- Node1 -->
<g id="node1" class="node">
<title>Node1</title>
<g id="a_node1"><a xlink:title="Main simulation class for the Optical Module (OM) simulation. This file defines the OMSim class,...">
<polygon fill="#bfbfbf" stroke="black" points="1209.5,-403.5 1209.5,-422.5 1276.5,-422.5 1276.5,-403.5 1209.5,-403.5"/>
<text text-anchor="middle" x="1243" y="-410.5" font-family="Helvetica,sans-Serif" font-size="10.00">OMSim.hh</text>
</a>
</g>
</g>
<!-- Node2 -->
<g id="node2" class="node">
<title>Node2</title>
<g id="a_node2"><a xlink:href="_o_m_sim_detector_construction_8hh_source.html" target="_top" xlink:title=" ">
<polygon fill="none" stroke="black" points="500,-347.5 500,-366.5 670,-366.5 670,-347.5 500,-347.5"/>
<text text-anchor="middle" x="585" y="-354.5" font-family="Helvetica,sans-Serif" font-size="10.00">OMSimDetectorConstruction.hh</text>
</a>
</g>
</g>
<!-- Node1&#45;&gt;Node2 -->
<g id="edge1" class="edge">
<title>Node1&#45;&gt;Node2</title>
<path fill="none" stroke="midnightblue" d="M1209.29,-409.5C1123.18,-403.06 887.83,-385.23 680.23,-367.1"/>
<polygon fill="midnightblue" stroke="midnightblue" points="680.32,-363.59 670.05,-366.2 679.71,-370.56 680.32,-363.59"/>
</g>
<!-- Node38 -->
<g id="node30" class="node">
<title>Node38</title>
<g id="a_node30"><a xlink:title=" ">
<polygon fill="none" stroke="#bfbfbf" points="688.5,-347.5 688.5,-366.5 809.5,-366.5 809.5,-347.5 688.5,-347.5"/>
<text text-anchor="middle" x="749" y="-354.5" font-family="Helvetica,sans-Serif" font-size="10.00">OMSimPhysicsList.hh</text>
</a>
</g>
</g>
<!-- Node1&#45;&gt;Node38 -->
<g id="edge33" class="edge">
<title>Node1&#45;&gt;Node38</title>
<path fill="none" stroke="midnightblue" d="M1209.36,-408.72C1139.01,-401.79 970.95,-384.94 819.52,-367.16"/>
<polygon fill="midnightblue" stroke="midnightblue" points="819.91,-363.68 809.57,-365.98 819.09,-370.63 819.91,-363.68"/>
</g>
<!-- Node39 -->
<g id="node31" class="node">
<title>Node39</title>
<g id="a_node31"><a xlink:title=" ">
<polygon fill="none" stroke="#bfbfbf" points="827.5,-347.5 827.5,-366.5 1012.5,-366.5 1012.5,-347.5 827.5,-347.5"/>
<text text-anchor="middle" x="920" y="-354.5" font-family="Helvetica,sans-Serif" font-size="10.00">OMSimPrimaryGeneratorAction.hh</text>
</a>
</g>
</g>
<!-- Node1&#45;&gt;Node39 -->
<g id="edge34" class="edge">
<title>Node1&#45;&gt;Node39</title>
<path fill="none" stroke="midnightblue" d="M1209.35,-406.37C1155.4,-397.36 1048.78,-379.53 981.12,-368.22"/>
<polygon fill="midnightblue" stroke="midnightblue" points="981.46,-364.73 971.02,-366.53 980.3,-371.63 981.46,-364.73"/>
</g>
<!-- Node40 -->
<g id="node32" class="node">
<title>Node40</title>
<g id="a_node32"><a xlink:href="_o_m_sim_run_action_8hh_source.html" target="_top" xlink:title=" ">
<polygon fill="none" stroke="black" points="414,-291.5 414,-310.5 530,-310.5 530,-291.5 414,-291.5"/>
<text text-anchor="middle" x="472" y="-298.5" font-family="Helvetica,sans-Serif" font-size="10.00">OMSimRunAction.hh</text>
</a>
</g>
</g>
<!-- Node1&#45;&gt;Node40 -->
<g id="edge35" class="edge">
<title>Node1&#45;&gt;Node40</title>
<path fill="none" stroke="midnightblue" d="M1209.26,-412.23C1070.41,-412.86 547.69,-412.2 491,-367 477.37,-356.14 473.16,-336.06 472.02,-321.09"/>
<polygon fill="midnightblue" stroke="midnightblue" points="475.51,-320.73 471.65,-310.86 468.52,-320.99 475.51,-320.73"/>
</g>
<!-- Node44 -->
<g id="node36" class="node">
<title>Node44</title>
<g id="a_node36"><a xlink:title=" ">
<polygon fill="none" stroke="#bfbfbf" points="1030.5,-347.5 1030.5,-366.5 1155.5,-366.5 1155.5,-347.5 1030.5,-347.5"/>
<text text-anchor="middle" x="1093" y="-354.5" font-family="Helvetica,sans-Serif" font-size="10.00">OMSimEventAction.hh</text>
</a>
</g>
</g>
<!-- Node1&#45;&gt;Node44 -->
<g id="edge41" class="edge">
<title>Node1&#45;&gt;Node44</title>
<path fill="none" stroke="midnightblue" d="M1219.23,-403.44C1194.11,-394.4 1154.29,-380.06 1126.1,-369.92"/>
<polygon fill="midnightblue" stroke="midnightblue" points="1127.25,-366.61 1116.66,-366.52 1124.88,-373.2 1127.25,-366.61"/>
</g>
<!-- Node45 -->
<g id="node37" class="node">
<title>Node45</title>
<g id="a_node37"><a xlink:href="_o_m_sim_tracking_action_8hh_source.html" target="_top" xlink:title=" ">
<polygon fill="none" stroke="black" points="1174,-347.5 1174,-366.5 1312,-366.5 1312,-347.5 1174,-347.5"/>
<text text-anchor="middle" x="1243" y="-354.5" font-family="Helvetica,sans-Serif" font-size="10.00">OMSimTrackingAction.hh</text>
</a>
</g>
</g>
<!-- Node1&#45;&gt;Node45 -->
<g id="edge42" class="edge">
<title>Node1&#45;&gt;Node45</title>
<path fill="none" stroke="midnightblue" d="M1243,-403.08C1243,-396.01 1243,-385.86 1243,-376.99"/>
<polygon fill="midnightblue" stroke="midnightblue" points="1246.5,-376.75 1243,-366.75 1239.5,-376.75 1246.5,-376.75"/>
</g>
<!-- Node47 -->
<g id="node39" class="node">
<title>Node47</title>
<g id="a_node39"><a xlink:href="_o_m_sim_stepping_action_8hh.html" target="_top" xlink:title="Defines OMSimSteppingAction.Currently it only checks for trapped photons.">
<polygon fill="none" stroke="black" points="1330,-347.5 1330,-366.5 1470,-366.5 1470,-347.5 1330,-347.5"/>
<text text-anchor="middle" x="1400" y="-354.5" font-family="Helvetica,sans-Serif" font-size="10.00">OMSimSteppingAction.hh</text>
</a>
</g>
</g>
<!-- Node1&#45;&gt;Node47 -->
<g id="edge44" class="edge">
<title>Node1&#45;&gt;Node47</title>
<path fill="none" stroke="midnightblue" d="M1267.88,-403.44C1294.29,-394.36 1336.22,-379.94 1365.74,-369.78"/>
<polygon fill="midnightblue" stroke="midnightblue" points="1366.92,-373.08 1375.24,-366.52 1364.64,-366.46 1366.92,-373.08"/>
</g>
<!-- Node49 -->
<g id="node41" class="node">
<title>Node49</title>
<g id="a_node41"><a xlink:href="_o_m_sim_u_iinterface_8hh.html" target="_top" xlink:title=" ">
<polygon fill="none" stroke="black" points="137.5,-291.5 137.5,-310.5 258.5,-310.5 258.5,-291.5 137.5,-291.5"/>
<text text-anchor="middle" x="198" y="-298.5" font-family="Helvetica,sans-Serif" font-size="10.00">OMSimUIinterface.hh</text>
</a>
</g>
</g>
<!-- Node1&#45;&gt;Node49 -->
<g id="edge46" class="edge">
<title>Node1&#45;&gt;Node49</title>
<path fill="none" stroke="midnightblue" d="M1209.44,-412.1C1101.86,-411.98 756.2,-408.17 474,-367 388.2,-354.48 289.8,-328.42 236.76,-313.37"/>
<polygon fill="midnightblue" stroke="midnightblue" points="237.67,-309.99 227.09,-310.61 235.74,-316.72 237.67,-309.99"/>
</g>
<!-- Node54 -->
<g id="node46" class="node">
<title>Node54</title>
<g id="a_node46"><a xlink:title=" ">
<polygon fill="none" stroke="#bfbfbf" points="1488.5,-347.5 1488.5,-366.5 1609.5,-366.5 1609.5,-347.5 1488.5,-347.5"/>
<text text-anchor="middle" x="1549" y="-354.5" font-family="Helvetica,sans-Serif" font-size="10.00">G4MTRunManager.hh</text>
</a>
</g>
</g>
<!-- Node1&#45;&gt;Node54 -->
<g id="edge53" class="edge">
<title>Node1&#45;&gt;Node54</title>
<path fill="none" stroke="midnightblue" d="M1276.62,-406.07C1328.2,-396.96 1427.53,-379.44 1490.92,-368.25"/>
<polygon fill="midnightblue" stroke="midnightblue" points="1491.53,-371.7 1500.77,-366.51 1490.31,-364.8 1491.53,-371.7"/>
</g>
<!-- Node55 -->
<g id="node47" class="node">
<title>Node55</title>
<g id="a_node47"><a xlink:title=" ">
<polygon fill="none" stroke="#bfbfbf" points="1627.5,-347.5 1627.5,-366.5 1734.5,-366.5 1734.5,-347.5 1627.5,-347.5"/>
<text text-anchor="middle" x="1681" y="-354.5" font-family="Helvetica,sans-Serif" font-size="10.00">G4VisExecutive.hh</text>
</a>
</g>
</g>
<!-- Node1&#45;&gt;Node55 -->
<g id="edge54" class="edge">
<title>Node1&#45;&gt;Node55</title>
<path fill="none" stroke="midnightblue" d="M1276.74,-408.25C1340.93,-401.05 1485.31,-384.56 1616.98,-367.24"/>
<polygon fill="midnightblue" stroke="midnightblue" points="1617.79,-370.67 1627.24,-365.89 1616.87,-363.73 1617.79,-370.67"/>
</g>
<!-- Node56 -->
<g id="node48" class="node">
<title>Node56</title>
<g id="a_node48"><a xlink:title=" ">
<polygon fill="none" stroke="#bfbfbf" points="1752.5,-347.5 1752.5,-366.5 1855.5,-366.5 1855.5,-347.5 1752.5,-347.5"/>
<text text-anchor="middle" x="1804" y="-354.5" font-family="Helvetica,sans-Serif" font-size="10.00">G4UIExecutive.hh</text>
</a>
</g>
</g>
<!-- Node1&#45;&gt;Node56 -->
<g id="edge55" class="edge">
<title>Node1&#45;&gt;Node56</title>
<path fill="none" stroke="midnightblue" d="M1276.79,-409.66C1356.19,-404.01 1561.05,-388.58 1742.33,-367.14"/>
<polygon fill="midnightblue" stroke="midnightblue" points="1742.8,-370.61 1752.32,-365.95 1741.97,-363.66 1742.8,-370.61"/>
</g>
<!-- Node57 -->
<g id="node49" class="node">
<title>Node57</title>
<g id="a_node49"><a xlink:title=" ">
<polygon fill="none" stroke="#bfbfbf" points="1874,-347.5 1874,-366.5 1942,-366.5 1942,-347.5 1874,-347.5"/>
<text text-anchor="middle" x="1908" y="-354.5" font-family="Helvetica,sans-Serif" font-size="10.00">filesystem</text>
</a>
</g>
</g>
<!-- Node1&#45;&gt;Node57 -->
<g id="edge56" class="edge">
<title>Node1&#45;&gt;Node57</title>
<path fill="none" stroke="midnightblue" d="M1276.54,-411.15C1368.73,-408.49 1633.8,-398.6 1863.58,-367.01"/>
<polygon fill="midnightblue" stroke="midnightblue" points="1864.38,-370.43 1873.81,-365.59 1863.42,-363.5 1864.38,-370.43"/>
</g>
<!-- Node58 -->
<g id="node50" class="node">
<title>Node58</title>
<g id="a_node50"><a xlink:title=" ">
<polygon fill="none" stroke="#bfbfbf" points="1960,-347.5 1960,-366.5 2110,-366.5 2110,-347.5 1960,-347.5"/>
<text text-anchor="middle" x="2035" y="-354.5" font-family="Helvetica,sans-Serif" font-size="10.00">boost/program_options.hpp</text>
</a>
</g>
</g>
<!-- Node1&#45;&gt;Node58 -->
<g id="edge57" class="edge">
<title>Node1&#45;&gt;Node58</title>
<path fill="none" stroke="midnightblue" d="M1276.57,-410.38C1376.96,-405.44 1683.83,-389.53 1949.68,-367.08"/>
<polygon fill="midnightblue" stroke="midnightblue" points="1950.24,-370.54 1959.91,-366.21 1949.65,-363.57 1950.24,-370.54"/>
</g>
<!-- Node3 -->
<g id="node3" class="node">
<title>Node3</title>
<g id="a_node3"><a xlink:href="_o_m_sim_optical_module_8hh_source.html" target="_top" xlink:title=" ">
<polygon fill="none" stroke="black" points="850.5,-291.5 850.5,-310.5 987.5,-310.5 987.5,-291.5 850.5,-291.5"/>
<text text-anchor="middle" x="919" y="-298.5" font-family="Helvetica,sans-Serif" font-size="10.00">OMSimOpticalModule.hh</text>
</a>
</g>
</g>
<!-- Node2&#45;&gt;Node3 -->
<g id="edge2" class="edge">
<title>Node2&#45;&gt;Node3</title>
<path fill="none" stroke="midnightblue" d="M637.92,-347.44C697.17,-337.87 793.1,-322.36 856.12,-312.17"/>
<polygon fill="midnightblue" stroke="midnightblue" points="857.01,-315.57 866.32,-310.52 855.89,-308.66 857.01,-315.57"/>
</g>
<!-- Node36 -->
<g id="node28" class="node">
<title>Node36</title>
<g id="a_node28"><a xlink:title=" ">
<polygon fill="none" stroke="#bfbfbf" points="551,-291.5 551,-310.5 613,-310.5 613,-291.5 551,-291.5"/>
<text text-anchor="middle" x="582" y="-298.5" font-family="Helvetica,sans-Serif" font-size="10.00">G4Orb.hh</text>
</a>
</g>
</g>
<!-- Node2&#45;&gt;Node36 -->
<g id="edge31" class="edge">
<title>Node2&#45;&gt;Node36</title>
<path fill="none" stroke="midnightblue" d="M584.5,-347.08C584.11,-340.01 583.55,-329.86 583.05,-320.99"/>
<polygon fill="midnightblue" stroke="midnightblue" points="586.54,-320.54 582.49,-310.75 579.55,-320.93 586.54,-320.54"/>
</g>
<!-- Node37 -->
<g id="node29" class="node">
<title>Node37</title>
<g id="a_node29"><a xlink:title=" ">
<polygon fill="none" stroke="#bfbfbf" points="631,-291.5 631,-310.5 809,-310.5 809,-291.5 631,-291.5"/>
<text text-anchor="middle" x="720" y="-298.5" font-family="Helvetica,sans-Serif" font-size="10.00">G4VUserDetectorConstruction.hh</text>
</a>
</g>
</g>
<!-- Node2&#45;&gt;Node37 -->
<g id="edge32" class="edge">
<title>Node2&#45;&gt;Node37</title>
<path fill="none" stroke="midnightblue" d="M606.39,-347.44C628.71,-338.52 663.9,-324.44 689.21,-314.32"/>
<polygon fill="midnightblue" stroke="midnightblue" points="690.72,-317.48 698.71,-310.52 688.12,-310.98 690.72,-317.48"/>
</g>
<!-- Node4 -->
<g id="node4" class="node">
<title>Node4</title>
<g id="a_node4"><a xlink:href="abc_detector_component_8hh.html" target="_top" xlink:title="Provides helper base class abcDetectorComponent for constructing and managing detector components in ...">
<polygon fill="none" stroke="black" points="1107.5,-179.5 1107.5,-198.5 1254.5,-198.5 1254.5,-179.5 1107.5,-179.5"/>
<text text-anchor="middle" x="1181" y="-186.5" font-family="Helvetica,sans-Serif" font-size="10.00">abcDetectorComponent.hh</text>
</a>
</g>
</g>
<!-- Node3&#45;&gt;Node4 -->
<g id="edge3" class="edge">
<title>Node3&#45;&gt;Node4</title>
<path fill="none" stroke="midnightblue" d="M943.78,-291.41C968.39,-282.73 1007.09,-268.68 1040,-255 1080.3,-238.25 1126.02,-216.68 1154.19,-203.1"/>
<polygon fill="midnightblue" stroke="midnightblue" points="1155.91,-206.15 1163.38,-198.65 1152.86,-199.85 1155.91,-206.15"/>
</g>
<!-- Node25 -->
<g id="node16" class="node">
<title>Node25</title>
<g id="a_node16"><a xlink:href="_o_m_sim_hit_manager_8hh.html" target="_top" xlink:title="Defines structures and classes related to optical module photon hit management.">
<polygon fill="none" stroke="black" points="657.5,-235.5 657.5,-254.5 780.5,-254.5 780.5,-235.5 657.5,-235.5"/>
<text text-anchor="middle" x="719" y="-242.5" font-family="Helvetica,sans-Serif" font-size="10.00">OMSimHitManager.hh</text>
</a>
</g>
</g>
<!-- Node3&#45;&gt;Node25 -->
<g id="edge15" class="edge">
<title>Node3&#45;&gt;Node25</title>
<path fill="none" stroke="midnightblue" d="M887.31,-291.44C852.93,-282.16 797.92,-267.31 760.21,-257.13"/>
<polygon fill="midnightblue" stroke="midnightblue" points="761.11,-253.74 750.54,-254.52 759.28,-260.5 761.11,-253.74"/>
</g>
<!-- Node33 -->
<g id="node25" class="node">
<title>Node33</title>
<g id="a_node25"><a xlink:href="_o_m_sim_p_m_t_construction_8hh.html" target="_top" xlink:title="Construction of the PMTs.">
<polygon fill="none" stroke="black" points="864.5,-235.5 864.5,-254.5 1013.5,-254.5 1013.5,-235.5 864.5,-235.5"/>
<text text-anchor="middle" x="939" y="-242.5" font-family="Helvetica,sans-Serif" font-size="10.00">OMSimPMTConstruction.hh</text>
</a>
</g>
</g>
<!-- Node3&#45;&gt;Node33 -->
<g id="edge25" class="edge">
<title>Node3&#45;&gt;Node33</title>
<path fill="none" stroke="midnightblue" d="M922.3,-291.08C924.98,-283.85 928.85,-273.41 932.19,-264.4"/>
<polygon fill="midnightblue" stroke="midnightblue" points="935.57,-265.34 935.76,-254.75 929,-262.91 935.57,-265.34"/>
</g>
<!-- Node5 -->
<g id="node5" class="node">
<title>Node5</title>
<g id="a_node5"><a xlink:href="_o_m_sim_input_data_8hh.html" target="_top" xlink:title="Definition of ParameterTable and InputDataManager.">
<polygon fill="none" stroke="red" points="890.5,-123.5 890.5,-142.5 1005.5,-142.5 1005.5,-123.5 890.5,-123.5"/>
<text text-anchor="middle" x="948" y="-130.5" font-family="Helvetica,sans-Serif" font-size="10.00">OMSimInputData.hh</text>
</a>
</g>
</g>
<!-- Node4&#45;&gt;Node5 -->
<g id="edge4" class="edge">
<title>Node4&#45;&gt;Node5</title>
<path fill="none" stroke="midnightblue" d="M1144.08,-179.44C1103.6,-170.06 1038.58,-154.99 994.62,-144.8"/>
<polygon fill="midnightblue" stroke="midnightblue" points="995.28,-141.36 984.75,-142.52 993.7,-148.18 995.28,-141.36"/>
</g>
<!-- Node21 -->
<g id="node12" class="node">
<title>Node21</title>
<g id="a_node12"><a xlink:title=" ">
<polygon fill="none" stroke="#bfbfbf" points="1023.5,-123.5 1023.5,-142.5 1130.5,-142.5 1130.5,-123.5 1023.5,-123.5"/>
<text text-anchor="middle" x="1077" y="-130.5" font-family="Helvetica,sans-Serif" font-size="10.00">G4Transform3D.hh</text>
</a>
</g>
</g>
<!-- Node4&#45;&gt;Node21 -->
<g id="edge11" class="edge">
<title>Node4&#45;&gt;Node21</title>
<path fill="none" stroke="midnightblue" d="M1164.29,-179.32C1147.69,-170.7 1122,-157.36 1102.78,-147.39"/>
<polygon fill="midnightblue" stroke="midnightblue" points="1104.16,-144.16 1093.67,-142.65 1100.93,-150.37 1104.16,-144.16"/>
</g>
<!-- Node22 -->
<g id="node13" class="node">
<title>Node22</title>
<g id="a_node13"><a xlink:title=" ">
<polygon fill="none" stroke="#bfbfbf" points="1149,-123.5 1149,-142.5 1257,-142.5 1257,-123.5 1149,-123.5"/>
<text text-anchor="middle" x="1203" y="-130.5" font-family="Helvetica,sans-Serif" font-size="10.00">G4VisAttributes.hh</text>
</a>
</g>
</g>
<!-- Node4&#45;&gt;Node22 -->
<g id="edge12" class="edge">
<title>Node4&#45;&gt;Node22</title>
<path fill="none" stroke="midnightblue" d="M1184.63,-179.08C1187.61,-171.77 1191.93,-161.18 1195.62,-152.1"/>
<polygon fill="midnightblue" stroke="midnightblue" points="1198.9,-153.33 1199.43,-142.75 1192.42,-150.69 1198.9,-153.33"/>
</g>
<!-- Node23 -->
<g id="node14" class="node">
<title>Node23</title>
<g id="a_node14"><a xlink:title=" ">
<polygon fill="none" stroke="#bfbfbf" points="1275.5,-123.5 1275.5,-142.5 1400.5,-142.5 1400.5,-123.5 1275.5,-123.5"/>
<text text-anchor="middle" x="1338" y="-130.5" font-family="Helvetica,sans-Serif" font-size="10.00">G4SubtractionSolid.hh</text>
</a>
</g>
</g>
<!-- Node4&#45;&gt;Node23 -->
<g id="edge13" class="edge">
<title>Node4&#45;&gt;Node23</title>
<path fill="none" stroke="midnightblue" d="M1205.88,-179.44C1232.29,-170.36 1274.22,-155.94 1303.74,-145.78"/>
<polygon fill="midnightblue" stroke="midnightblue" points="1304.92,-149.08 1313.24,-142.52 1302.64,-142.46 1304.92,-149.08"/>
</g>
<!-- Node24 -->
<g id="node15" class="node">
<title>Node24</title>
<g id="a_node15"><a xlink:title=" ">
<polygon fill="none" stroke="#bfbfbf" points="1419,-123.5 1419,-142.5 1529,-142.5 1529,-123.5 1419,-123.5"/>
<text text-anchor="middle" x="1474" y="-130.5" font-family="Helvetica,sans-Serif" font-size="10.00">G4PVPlacement.hh</text>
</a>
</g>
</g>
<!-- Node4&#45;&gt;Node24 -->
<g id="edge14" class="edge">
<title>Node4&#45;&gt;Node24</title>
<path fill="none" stroke="midnightblue" d="M1227.43,-179.44C1279.08,-169.92 1362.51,-154.55 1417.81,-144.36"/>
<polygon fill="midnightblue" stroke="midnightblue" points="1418.59,-147.77 1427.79,-142.52 1417.32,-140.89 1418.59,-147.77"/>
</g>
<!-- Node6 -->
<g id="node6" class="node">
<title>Node6</title>
<g id="a_node6"><a xlink:href="_o_m_sim_logger_8hh_source.html" target="_top" xlink:title=" ">
<polygon fill="none" stroke="black" points="258.5,-67.5 258.5,-86.5 357.5,-86.5 357.5,-67.5 258.5,-67.5"/>
<text text-anchor="middle" x="308" y="-74.5" font-family="Helvetica,sans-Serif" font-size="10.00">OMSimLogger.hh</text>
</a>
</g>
</g>
<!-- Node5&#45;&gt;Node6 -->
<g id="edge5" class="edge">
<title>Node5&#45;&gt;Node6</title>
<path fill="none" stroke="midnightblue" d="M890.24,-127.09C874.58,-125.76 857.64,-124.32 842,-123 669.86,-108.44 466.51,-91.33 367.78,-83.03"/>
<polygon fill="midnightblue" stroke="midnightblue" points="367.95,-79.53 357.69,-82.18 367.37,-86.5 367.95,-79.53"/>
</g>
<!-- Node19 -->
<g id="node11" class="node">
<title>Node19</title>
<g id="a_node11"><a xlink:title=" ">
<polygon fill="none" stroke="#bfbfbf" points="845.5,-67.5 845.5,-86.5 964.5,-86.5 964.5,-67.5 845.5,-67.5"/>
<text text-anchor="middle" x="905" y="-74.5" font-family="Helvetica,sans-Serif" font-size="10.00">G4SystemOfUnits.hh</text>
</a>
</g>
</g>
<!-- Node5&#45;&gt;Node19 -->
<g id="edge10" class="edge">
<title>Node5&#45;&gt;Node19</title>
<path fill="none" stroke="midnightblue" d="M940.9,-123.08C934.76,-115.38 925.73,-104.03 918.26,-94.65"/>
<polygon fill="midnightblue" stroke="midnightblue" points="920.94,-92.39 911.97,-86.75 915.46,-96.75 920.94,-92.39"/>
</g>
<!-- Node7 -->
<g id="node7" class="node">
<title>Node7</title>
<g id="a_node7"><a xlink:title=" ">
<polygon fill="none" stroke="#bfbfbf" points="90.5,-6 90.5,-25 183.5,-25 183.5,-6 90.5,-6"/>
<text text-anchor="middle" x="137" y="-13" font-family="Helvetica,sans-Serif" font-size="10.00">spdlog/spdlog.h</text>
</a>
</g>
</g>
<!-- Node6&#45;&gt;Node7 -->
<g id="edge6" class="edge">
<title>Node6&#45;&gt;Node7</title>
<path fill="none" stroke="midnightblue" d="M283.5,-67.48C254.04,-57.22 204.42,-39.96 171.2,-28.4"/>
<polygon fill="midnightblue" stroke="midnightblue" points="172.05,-24.99 161.45,-25.01 169.75,-31.6 172.05,-24.99"/>
</g>
<!-- Node8 -->
<g id="node8" class="node">
<title>Node8</title>
<g id="a_node8"><a xlink:title=" ">
<polygon fill="none" stroke="#bfbfbf" points="201.5,-0.5 201.5,-30.5 312.5,-30.5 312.5,-0.5 201.5,-0.5"/>
<text text-anchor="start" x="209.5" y="-18.5" font-family="Helvetica,sans-Serif" font-size="10.00">spdlog/sinks/stdout</text>
<text text-anchor="middle" x="257" y="-7.5" font-family="Helvetica,sans-Serif" font-size="10.00">_color_sinks.h</text>
</a>
</g>
</g>
<!-- Node6&#45;&gt;Node8 -->
<g id="edge7" class="edge">
<title>Node6&#45;&gt;Node8</title>
<path fill="none" stroke="midnightblue" d="M300.69,-67.48C294.17,-59.87 284.34,-48.4 275.66,-38.26"/>
<polygon fill="midnightblue" stroke="midnightblue" points="278.19,-35.84 269.02,-30.52 272.87,-40.39 278.19,-35.84"/>
</g>
<!-- Node9 -->
<g id="node9" class="node">
<title>Node9</title>
<g id="a_node9"><a xlink:title=" ">
<polygon fill="none" stroke="#bfbfbf" points="331,-6 331,-25 389,-25 389,-6 331,-6"/>
<text text-anchor="middle" x="360" y="-13" font-family="Helvetica,sans-Serif" font-size="10.00">memory</text>
</a>
</g>
</g>
<!-- Node6&#45;&gt;Node9 -->
<g id="edge8" class="edge">
<title>Node6&#45;&gt;Node9</title>
<path fill="none" stroke="midnightblue" d="M315.45,-67.48C323.33,-58.46 335.94,-44.02 345.74,-32.81"/>
<polygon fill="midnightblue" stroke="midnightblue" points="348.62,-34.84 352.56,-25.01 343.35,-30.24 348.62,-34.84"/>
</g>
<!-- Node10 -->
<g id="node10" class="node">
<title>Node10</title>
<g id="a_node10"><a xlink:title=" ">
<polygon fill="none" stroke="#bfbfbf" points="407,-6 407,-25 505,-25 505,-6 407,-6"/>
<text text-anchor="middle" x="456" y="-13" font-family="Helvetica,sans-Serif" font-size="10.00">spdlog/fmt/fmt.h</text>
</a>
</g>
</g>
<!-- Node6&#45;&gt;Node10 -->
<g id="edge9" class="edge">
<title>Node6&#45;&gt;Node10</title>
<path fill="none" stroke="midnightblue" d="M329.2,-67.48C354.37,-57.36 396.54,-40.4 425.28,-28.85"/>
<polygon fill="midnightblue" stroke="midnightblue" points="426.86,-31.99 434.83,-25.01 424.25,-25.49 426.86,-31.99"/>
</g>
<!-- Node26 -->
<g id="node17" class="node">
<title>Node26</title>
<g id="a_node17"><a xlink:href="_o_m_sim_p_m_t_response_8hh.html" target="_top" xlink:title="Simulation of PMT response.">
<polygon fill="none" stroke="red" points="752.5,-179.5 752.5,-198.5 887.5,-198.5 887.5,-179.5 752.5,-179.5"/>
<text text-anchor="middle" x="820" y="-186.5" font-family="Helvetica,sans-Serif" font-size="10.00">OMSimPMTResponse.hh</text>
</a>
</g>
</g>
<!-- Node25&#45;&gt;Node26 -->
<g id="edge16" class="edge">
<title>Node25&#45;&gt;Node26</title>
<path fill="none" stroke="midnightblue" d="M735.23,-235.32C751.35,-226.7 776.3,-213.36 794.96,-203.39"/>
<polygon fill="midnightblue" stroke="midnightblue" points="796.64,-206.46 803.81,-198.65 793.34,-200.28 796.64,-206.46"/>
</g>
<!-- Node31 -->
<g id="node21" class="node">
<title>Node31</title>
<g id="a_node21"><a xlink:title=" ">
<polygon fill="none" stroke="#bfbfbf" points="522.5,-179.5 522.5,-198.5 625.5,-198.5 625.5,-179.5 522.5,-179.5"/>
<text text-anchor="middle" x="574" y="-186.5" font-family="Helvetica,sans-Serif" font-size="10.00">G4ThreeVector.hh</text>
</a>
</g>
</g>
<!-- Node25&#45;&gt;Node31 -->
<g id="edge21" class="edge">
<title>Node25&#45;&gt;Node31</title>
<path fill="none" stroke="midnightblue" d="M696.02,-235.44C671.84,-226.44 633.58,-212.19 606.35,-202.05"/>
<polygon fill="midnightblue" stroke="midnightblue" points="607.46,-198.73 596.87,-198.52 605.02,-205.29 607.46,-198.73"/>
</g>
<!-- Node32 -->
<g id="node22" class="node">
<title>Node32</title>
<g id="a_node22"><a xlink:title=" ">
<polygon fill="none" stroke="#bfbfbf" points="336.5,-179.5 336.5,-198.5 391.5,-198.5 391.5,-179.5 336.5,-179.5"/>
<text text-anchor="middle" x="364" y="-186.5" font-family="Helvetica,sans-Serif" font-size="10.00">fstream</text>
</a>
</g>
</g>
<!-- Node25&#45;&gt;Node32 -->
<g id="edge22" class="edge">
<title>Node25&#45;&gt;Node32</title>
<path fill="none" stroke="midnightblue" d="M657.36,-236.01C583.45,-226.31 462.88,-210.07 401.8,-198.95"/>
<polygon fill="midnightblue" stroke="midnightblue" points="402.29,-195.48 391.82,-197.08 401,-202.36 402.29,-195.48"/>
</g>
<!-- Node17 -->
<g id="node23" class="node">
<title>Node17</title>
<g id="a_node23"><a xlink:title=" ">
<polygon fill="none" stroke="#bfbfbf" points="644,-179.5 644,-198.5 734,-198.5 734,-179.5 644,-179.5"/>
<text text-anchor="middle" x="689" y="-186.5" font-family="Helvetica,sans-Serif" font-size="10.00">G4AutoLock.hh</text>
</a>
</g>
</g>
<!-- Node25&#45;&gt;Node17 -->
<g id="edge23" class="edge">
<title>Node25&#45;&gt;Node17</title>
<path fill="none" stroke="midnightblue" d="M714.05,-235.08C709.9,-227.61 703.85,-216.72 698.73,-207.52"/>
<polygon fill="midnightblue" stroke="midnightblue" points="701.78,-205.79 693.86,-198.75 695.66,-209.19 701.78,-205.79"/>
</g>
<!-- Node18 -->
<g id="node24" class="node">
<title>Node18</title>
<g id="a_node24"><a xlink:title=" ">
<polygon fill="none" stroke="#bfbfbf" points="410,-179.5 410,-198.5 504,-198.5 504,-179.5 410,-179.5"/>
<text text-anchor="middle" x="457" y="-186.5" font-family="Helvetica,sans-Serif" font-size="10.00">G4Threading.hh</text>
</a>
</g>
</g>
<!-- Node25&#45;&gt;Node18 -->
<g id="edge24" class="edge">
<title>Node25&#45;&gt;Node18</title>
<path fill="none" stroke="midnightblue" d="M677.49,-235.44C631.59,-225.98 557.62,-210.74 508.17,-200.55"/>
<polygon fill="midnightblue" stroke="midnightblue" points="508.82,-197.11 498.32,-198.52 507.41,-203.96 508.82,-197.11"/>
</g>
<!-- Node26&#45;&gt;Node19 -->
<g id="edge17" class="edge">
<title>Node26&#45;&gt;Node19</title>
<path fill="none" stroke="midnightblue" d="M826.67,-179.37C840.76,-161.14 873.76,-118.43 892.11,-94.68"/>
<polygon fill="midnightblue" stroke="midnightblue" points="895.02,-96.64 898.36,-86.59 889.48,-92.36 895.02,-96.64"/>
</g>
<!-- Node27 -->
<g id="node18" class="node">
<title>Node27</title>
<g id="a_node18"><a xlink:title=" ">
<polygon fill="none" stroke="#bfbfbf" points="760.5,-123.5 760.5,-142.5 833.5,-142.5 833.5,-123.5 760.5,-123.5"/>
<text text-anchor="middle" x="797" y="-130.5" font-family="Helvetica,sans-Serif" font-size="10.00">G4Types.hh</text>
</a>
</g>
</g>
<!-- Node26&#45;&gt;Node27 -->
<g id="edge18" class="edge">
<title>Node26&#45;&gt;Node27</title>
<path fill="none" stroke="midnightblue" d="M816.2,-179.08C813.09,-171.77 808.58,-161.18 804.71,-152.1"/>
<polygon fill="midnightblue" stroke="midnightblue" points="807.87,-150.58 800.73,-142.75 801.43,-153.32 807.87,-150.58"/>
</g>
<!-- Node28 -->
<g id="node19" class="node">
<title>Node28</title>
<g id="a_node19"><a xlink:title=" ">
<polygon fill="none" stroke="#bfbfbf" points="625,-123.5 625,-142.5 663,-142.5 663,-123.5 625,-123.5"/>
<text text-anchor="middle" x="644" y="-130.5" font-family="Helvetica,sans-Serif" font-size="10.00">map</text>
</a>
</g>
</g>
<!-- Node26&#45;&gt;Node28 -->
<g id="edge19" class="edge">
<title>Node26&#45;&gt;Node28</title>
<path fill="none" stroke="midnightblue" d="M791.31,-179.42C763.39,-171.04 719.52,-157.79 672.93,-143.26"/>
<polygon fill="midnightblue" stroke="midnightblue" points="673.86,-139.88 663.27,-140.24 671.77,-146.56 673.86,-139.88"/>
</g>
<!-- Node29 -->
<g id="node20" class="node">
<title>Node29</title>
<g id="a_node20"><a xlink:title=" ">
<polygon fill="none" stroke="#bfbfbf" points="681.5,-123.5 681.5,-142.5 742.5,-142.5 742.5,-123.5 681.5,-123.5"/>
<text text-anchor="middle" x="712" y="-130.5" font-family="Helvetica,sans-Serif" font-size="10.00">TGraph.h</text>
</a>
</g>
</g>
<!-- Node26&#45;&gt;Node29 -->
<g id="edge20" class="edge">
<title>Node26&#45;&gt;Node29</title>
<path fill="none" stroke="midnightblue" d="M802.65,-179.32C785.33,-170.66 758.48,-157.24 738.5,-147.25"/>
<polygon fill="midnightblue" stroke="midnightblue" points="739.82,-144 729.31,-142.65 736.69,-150.26 739.82,-144"/>
</g>
<!-- Node33&#45;&gt;Node4 -->
<g id="edge26" class="edge">
<title>Node33&#45;&gt;Node4</title>
<path fill="none" stroke="midnightblue" d="M977.35,-235.44C1019.47,-226.04 1087.21,-210.93 1132.87,-200.74"/>
<polygon fill="midnightblue" stroke="midnightblue" points="1133.84,-204.11 1142.83,-198.52 1132.31,-197.28 1133.84,-204.11"/>
</g>
<!-- Node33&#45;&gt;Node26 -->
<g id="edge28" class="edge">
<title>Node33&#45;&gt;Node26</title>
<path fill="none" stroke="midnightblue" d="M920.14,-235.44C900.73,-226.64 870.27,-212.81 848.04,-202.72"/>
<polygon fill="midnightblue" stroke="midnightblue" points="849.32,-199.46 838.77,-198.52 846.43,-205.84 849.32,-199.46"/>
</g>
<!-- Node33&#45;&gt;Node33 -->
<g id="edge27" class="edge">
<title>Node33&#45;&gt;Node33</title>
<path fill="none" stroke="midnightblue" d="M978.45,-254.53C1005.26,-257.31 1031.5,-254.13 1031.5,-245 1031.5,-237.01 1011.41,-233.58 988.43,-234.71"/>
<polygon fill="midnightblue" stroke="midnightblue" points="988.15,-231.22 978.45,-235.47 988.69,-238.2 988.15,-231.22"/>
</g>
<!-- Node34 -->
<g id="node26" class="node">
<title>Node34</title>
<g id="a_node26"><a xlink:title=" ">
<polygon fill="none" stroke="#bfbfbf" points="991,-179.5 991,-198.5 1089,-198.5 1089,-179.5 991,-179.5"/>
<text text-anchor="middle" x="1040" y="-186.5" font-family="Helvetica,sans-Serif" font-size="10.00">G4UnionSolid.hh</text>
</a>
</g>
</g>
<!-- Node33&#45;&gt;Node34 -->
<g id="edge29" class="edge">
<title>Node33&#45;&gt;Node34</title>
<path fill="none" stroke="midnightblue" d="M955.23,-235.32C971.35,-226.7 996.3,-213.36 1014.96,-203.39"/>
<polygon fill="midnightblue" stroke="midnightblue" points="1016.64,-206.46 1023.81,-198.65 1013.34,-200.28 1016.64,-206.46"/>
</g>
<!-- Node35 -->
<g id="node27" class="node">
<title>Node35</title>
<g id="a_node27"><a xlink:title=" ">
<polygon fill="none" stroke="#bfbfbf" points="905.5,-179.5 905.5,-198.5 972.5,-198.5 972.5,-179.5 905.5,-179.5"/>
<text text-anchor="middle" x="939" y="-186.5" font-family="Helvetica,sans-Serif" font-size="10.00">G4Tubs.hh</text>
</a>
</g>
</g>
<!-- Node33&#45;&gt;Node35 -->
<g id="edge30" class="edge">
<title>Node33&#45;&gt;Node35</title>
<path fill="none" stroke="midnightblue" d="M939,-235.08C939,-228.01 939,-217.86 939,-208.99"/>
<polygon fill="midnightblue" stroke="midnightblue" points="942.5,-208.75 939,-198.75 935.5,-208.75 942.5,-208.75"/>
</g>
<!-- Node40&#45;&gt;Node6 -->
<g id="edge38" class="edge">
<title>Node40&#45;&gt;Node6</title>
<path fill="none" stroke="midnightblue" d="M413.76,-296.76C383.27,-291.86 348.02,-280.55 327,-255 289.09,-208.91 297.56,-131.64 304.01,-96.46"/>
<polygon fill="midnightblue" stroke="midnightblue" points="307.45,-97.1 305.97,-86.61 300.59,-95.73 307.45,-97.1"/>
</g>
<!-- Node40&#45;&gt;Node25 -->
<g id="edge37" class="edge">
<title>Node40&#45;&gt;Node25</title>
<path fill="none" stroke="midnightblue" d="M511.14,-291.44C554.23,-282.02 623.56,-266.87 670.17,-256.68"/>
<polygon fill="midnightblue" stroke="midnightblue" points="671.02,-260.07 680.05,-254.52 669.53,-253.23 671.02,-260.07"/>
</g>
<!-- Node41 -->
<g id="node33" class="node">
<title>Node41</title>
<g id="a_node33"><a xlink:title=" ">
<polygon fill="none" stroke="#bfbfbf" points="522.5,-235.5 522.5,-254.5 639.5,-254.5 639.5,-235.5 522.5,-235.5"/>
<text text-anchor="middle" x="581" y="-242.5" font-family="Helvetica,sans-Serif" font-size="10.00">G4UserRunAction.hh</text>
</a>
</g>
</g>
<!-- Node40&#45;&gt;Node41 -->
<g id="edge36" class="edge">
<title>Node40&#45;&gt;Node41</title>
<path fill="none" stroke="midnightblue" d="M489.51,-291.32C507.07,-282.62 534.33,-269.12 554.53,-259.11"/>
<polygon fill="midnightblue" stroke="midnightblue" points="556.12,-262.23 563.53,-254.65 553.02,-255.96 556.12,-262.23"/>
</g>
<!-- Node42 -->
<g id="node34" class="node">
<title>Node42</title>
<g id="a_node34"><a xlink:title=" ">
<polygon fill="none" stroke="#bfbfbf" points="336,-235.5 336,-254.5 422,-254.5 422,-235.5 336,-235.5"/>
<text text-anchor="middle" x="379" y="-242.5" font-family="Helvetica,sans-Serif" font-size="10.00">Randomize.hh</text>
</a>
</g>
</g>
<!-- Node40&#45;&gt;Node42 -->
<g id="edge39" class="edge">
<title>Node40&#45;&gt;Node42</title>
<path fill="none" stroke="midnightblue" d="M457.06,-291.32C442.41,-282.82 419.87,-269.73 402.76,-259.8"/>
<polygon fill="midnightblue" stroke="midnightblue" points="404.31,-256.65 393.9,-254.65 400.8,-262.7 404.31,-256.65"/>
</g>
<!-- Node43 -->
<g id="node35" class="node">
<title>Node43</title>
<g id="a_node35"><a xlink:title=" ">
<polygon fill="none" stroke="#bfbfbf" points="440,-235.5 440,-254.5 504,-254.5 504,-235.5 440,-235.5"/>
<text text-anchor="middle" x="472" y="-242.5" font-family="Helvetica,sans-Serif" font-size="10.00">G4Run.hh</text>
</a>
</g>
</g>
<!-- Node40&#45;&gt;Node43 -->
<g id="edge40" class="edge">
<title>Node40&#45;&gt;Node43</title>
<path fill="none" stroke="midnightblue" d="M472,-291.08C472,-284.01 472,-273.86 472,-264.99"/>
<polygon fill="midnightblue" stroke="midnightblue" points="475.5,-264.75 472,-254.75 468.5,-264.75 475.5,-264.75"/>
</g>
<!-- Node46 -->
<g id="node38" class="node">
<title>Node46</title>
<g id="a_node38"><a xlink:title=" ">
<polygon fill="none" stroke="#bfbfbf" points="1172.5,-291.5 1172.5,-310.5 1311.5,-310.5 1311.5,-291.5 1172.5,-291.5"/>
<text text-anchor="middle" x="1242" y="-298.5" font-family="Helvetica,sans-Serif" font-size="10.00">G4UserTrackingAction.hh</text>
</a>
</g>
</g>
<!-- Node45&#45;&gt;Node46 -->
<g id="edge43" class="edge">
<title>Node45&#45;&gt;Node46</title>
<path fill="none" stroke="midnightblue" d="M1242.83,-347.08C1242.7,-340.01 1242.52,-329.86 1242.35,-320.99"/>
<polygon fill="midnightblue" stroke="midnightblue" points="1245.85,-320.68 1242.16,-310.75 1238.85,-320.81 1245.85,-320.68"/>
</g>
<!-- Node48 -->
<g id="node40" class="node">
<title>Node48</title>
<g id="a_node40"><a xlink:title=" ">
<polygon fill="none" stroke="#bfbfbf" points="1329.5,-291.5 1329.5,-310.5 1470.5,-310.5 1470.5,-291.5 1329.5,-291.5"/>
<text text-anchor="middle" x="1400" y="-298.5" font-family="Helvetica,sans-Serif" font-size="10.00">G4UserSteppingAction.hh</text>
</a>
</g>
</g>
<!-- Node47&#45;&gt;Node48 -->
<g id="edge45" class="edge">
<title>Node47&#45;&gt;Node48</title>
<path fill="none" stroke="midnightblue" d="M1400,-347.08C1400,-340.01 1400,-329.86 1400,-320.99"/>
<polygon fill="midnightblue" stroke="midnightblue" points="1403.5,-320.75 1400,-310.75 1396.5,-320.75 1403.5,-320.75"/>
</g>
<!-- Node50 -->
<g id="node42" class="node">
<title>Node50</title>
<g id="a_node42"><a xlink:href="_o_m_sim_command_args_table_8hh.html" target="_top" xlink:title="Definition of the OMSimCommandArgsTable singleton class, which controls user args.">
<polygon fill="none" stroke="black" points="116,-235.5 116,-254.5 280,-254.5 280,-235.5 116,-235.5"/>
<text text-anchor="middle" x="198" y="-242.5" font-family="Helvetica,sans-Serif" font-size="10.00">OMSimCommandArgsTable.hh</text>
</a>
</g>
</g>
<!-- Node49&#45;&gt;Node50 -->
<g id="edge47" class="edge">
<title>Node49&#45;&gt;Node50</title>
<path fill="none" stroke="midnightblue" d="M198,-291.08C198,-284.01 198,-273.86 198,-264.99"/>
<polygon fill="midnightblue" stroke="midnightblue" points="201.5,-264.75 198,-254.75 194.5,-264.75 201.5,-264.75"/>
</g>
<!-- Node53 -->
<g id="node45" class="node">
<title>Node53</title>
<g id="a_node45"><a xlink:title=" ">
<polygon fill="none" stroke="#bfbfbf" points="0,-235.5 0,-254.5 98,-254.5 98,-235.5 0,-235.5"/>
<text text-anchor="middle" x="49" y="-242.5" font-family="Helvetica,sans-Serif" font-size="10.00">G4UImanager.hh</text>
</a>
</g>
</g>
<!-- Node49&#45;&gt;Node53 -->
<g id="edge52" class="edge">
<title>Node49&#45;&gt;Node53</title>
<path fill="none" stroke="midnightblue" d="M174.39,-291.44C149.54,-282.44 110.23,-268.19 82.25,-258.05"/>
<polygon fill="midnightblue" stroke="midnightblue" points="83.09,-254.63 72.5,-254.52 80.71,-261.21 83.09,-254.63"/>
</g>
<!-- Node50&#45;&gt;Node6 -->
<g id="edge48" class="edge">
<title>Node50&#45;&gt;Node6</title>
<path fill="none" stroke="midnightblue" d="M208.16,-235.42C217.89,-226.87 232.59,-213.01 243,-199 268.03,-165.32 289.36,-120.78 300.25,-96.21"/>
<polygon fill="midnightblue" stroke="midnightblue" points="303.6,-97.29 304.38,-86.72 297.18,-94.49 303.6,-97.29"/>
</g>
<!-- Node50&#45;&gt;Node32 -->
<g id="edge49" class="edge">
<title>Node50&#45;&gt;Node32</title>
<path fill="none" stroke="midnightblue" d="M224.3,-235.44C252.35,-226.32 296.94,-211.81 328.18,-201.65"/>
<polygon fill="midnightblue" stroke="midnightblue" points="329.39,-204.94 337.82,-198.52 327.23,-198.28 329.39,-204.94"/>
</g>
<!-- Node51 -->
<g id="node43" class="node">
<title>Node51</title>
<g id="a_node43"><a xlink:title=" ">
<polygon fill="none" stroke="#bfbfbf" points="64,-179.5 64,-198.5 148,-198.5 148,-179.5 64,-179.5"/>
<text text-anchor="middle" x="106" y="-186.5" font-family="Helvetica,sans-Serif" font-size="10.00">boost/any.hpp</text>
</a>
</g>
</g>
<!-- Node50&#45;&gt;Node51 -->
<g id="edge50" class="edge">
<title>Node50&#45;&gt;Node51</title>
<path fill="none" stroke="midnightblue" d="M183.22,-235.32C168.73,-226.82 146.43,-213.73 129.51,-203.8"/>
<polygon fill="midnightblue" stroke="midnightblue" points="131.14,-200.7 120.74,-198.65 127.6,-206.74 131.14,-200.7"/>
</g>
<!-- Node52 -->
<g id="node44" class="node">
<title>Node52</title>
<g id="a_node44"><a xlink:title=" ">
<polygon fill="none" stroke="#bfbfbf" points="166,-179.5 166,-198.5 234,-198.5 234,-179.5 166,-179.5"/>
<text text-anchor="middle" x="200" y="-186.5" font-family="Helvetica,sans-Serif" font-size="10.00">sys/time.h</text>
</a>
</g>
</g>
<!-- Node50&#45;&gt;Node52 -->
<g id="edge51" class="edge">
<title>Node50&#45;&gt;Node52</title>
<path fill="none" stroke="midnightblue" d="M198.33,-235.08C198.59,-228.01 198.97,-217.86 199.3,-208.99"/>
<polygon fill="midnightblue" stroke="midnightblue" points="202.8,-208.87 199.68,-198.75 195.81,-208.61 202.8,-208.87"/>
</g>
</g>
</svg>
