<?xml version="1.0" encoding="UTF-8" standalone="no"?>
<!DOCTYPE svg PUBLIC "-//W3C//DTD SVG 1.1//EN"
 "http://www.w3.org/Graphics/SVG/1.1/DTD/svg11.dtd">
<!-- Generated by graphviz version 2.43.0 (0)
 -->
<!-- Title: OMSimMDOMFlasher.hh Pages: 1 -->
<svg width="1107pt" height="140pt"
 viewBox="0.00 0.00 1107.00 140.00" xmlns="http://www.w3.org/2000/svg" xmlns:xlink="http://www.w3.org/1999/xlink">
<g id="graph0" class="graph" transform="scale(1 1) rotate(0) translate(4 136)">
<title>OMSimMDOMFlasher.hh</title>
<polygon fill="white" stroke="transparent" points="-4,4 -4,-136 1103,-136 1103,4 -4,4"/>
<!-- Node1 -->
<g id="node1" class="node">
<title>Node1</title>
<g id="a_node1"><a xlink:title="Defines the mDOMFlasher class for simulating the 10 flashers in an mDOM optical module.">
<polygon fill="#bfbfbf" stroke="black" points="456,-112.5 456,-131.5 591,-131.5 591,-112.5 456,-112.5"/>
<text text-anchor="middle" x="523.5" y="-119.5" font-family="Helvetica,sans-Serif" font-size="10.00">OMSimMDOMFlasher.hh</text>
</a>
</g>
</g>
<!-- Node2 -->
<g id="node2" class="node">
<title>Node2</title>
<g id="a_node2"><a xlink:href="_o_m_sim_m_d_o_m_8hh.html" target="_top" xlink:title="Construction of mDOM.">
<polygon fill="white" stroke="black" points="473.5,-56.5 473.5,-75.5 573.5,-75.5 573.5,-56.5 473.5,-56.5"/>
<text text-anchor="middle" x="523.5" y="-63.5" font-family="Helvetica,sans-Serif" font-size="10.00">OMSimMDOM.hh</text>
</a>
</g>
</g>
<!-- Node1&#45;&gt;Node2 -->
<g id="edge1" class="edge">
<title>Node1&#45;&gt;Node2</title>
<path fill="none" stroke="midnightblue" d="M523.5,-101.8C523.5,-92.91 523.5,-82.78 523.5,-75.75"/>
<polygon fill="midnightblue" stroke="midnightblue" points="520,-102.08 523.5,-112.08 527,-102.08 520,-102.08"/>
</g>
<!-- Node3 -->
<g id="node3" class="node">
<title>Node3</title>
<g id="a_node3"><a xlink:href="_o_m_sim_detector_construction_8cc.html" target="_top" xlink:title=" ">
<polygon fill="white" stroke="black" points="0,-0.5 0,-19.5 169,-19.5 169,-0.5 0,-0.5"/>
<text text-anchor="middle" x="84.5" y="-7.5" font-family="Helvetica,sans-Serif" font-size="10.00">OMSimDetectorConstruction.cc</text>
</a>
</g>
</g>
<!-- Node2&#45;&gt;Node3 -->
<g id="edge2" class="edge">
<title>Node2&#45;&gt;Node3</title>
<path fill="none" stroke="midnightblue" d="M463.11,-57.57C382.18,-47.62 238.88,-29.99 153.69,-19.51"/>
<polygon fill="midnightblue" stroke="midnightblue" points="462.79,-61.06 473.14,-58.81 463.64,-54.11 462.79,-61.06"/>
</g>
<!-- Node4 -->
<g id="node4" class="node">
<title>Node4</title>
<g id="a_node4"><a xlink:href="_o_m_sim_m_d_o_m_8cc.html" target="_top" xlink:title=" ">
<polygon fill="white" stroke="black" points="186.5,-0.5 186.5,-19.5 284.5,-19.5 284.5,-0.5 186.5,-0.5"/>
<text text-anchor="middle" x="235.5" y="-7.5" font-family="Helvetica,sans-Serif" font-size="10.00">OMSimMDOM.cc</text>
</a>
</g>
</g>
<!-- Node2&#45;&gt;Node4 -->
<g id="edge3" class="edge">
<title>Node2&#45;&gt;Node4</title>
<path fill="none" stroke="midnightblue" d="M467.7,-54.54C413.27,-44.33 331.5,-29 280.92,-19.52"/>
<polygon fill="midnightblue" stroke="midnightblue" points="467.39,-58.04 477.87,-56.44 468.68,-51.16 467.39,-58.04"/>
</g>
<!-- Node5 -->
<g id="node5" class="node">
<title>Node5</title>
<g id="a_node5"><a xlink:href="_o_m_sim_m_d_o_m_flasher_8cc.html" target="_top" xlink:title=" ">
<polygon fill="white" stroke="black" points="302.5,-0.5 302.5,-19.5 436.5,-19.5 436.5,-0.5 302.5,-0.5"/>
<text text-anchor="middle" x="369.5" y="-7.5" font-family="Helvetica,sans-Serif" font-size="10.00">OMSimMDOMFlasher.cc</text>
</a>
</g>
</g>
<!-- Node2&#45;&gt;Node5 -->
<g id="edge4" class="edge">
<title>Node2&#45;&gt;Node5</title>
<path fill="none" stroke="midnightblue" d="M489.39,-53.04C460.41,-42.88 419.54,-28.55 393.79,-19.52"/>
<polygon fill="midnightblue" stroke="midnightblue" points="488.5,-56.44 499.1,-56.44 490.82,-49.83 488.5,-56.44"/>
</g>
<!-- Node6 -->
<g id="node6" class="node">
<title>Node6</title>
<g id="a_node6"><a xlink:href="_o_m_sim_m_d_o_m_harness_8cc.html" target="_top" xlink:title=" ">
<polygon fill="white" stroke="black" points="454.5,-0.5 454.5,-19.5 592.5,-19.5 592.5,-0.5 454.5,-0.5"/>
<text text-anchor="middle" x="523.5" y="-7.5" font-family="Helvetica,sans-Serif" font-size="10.00">OMSimMDOMHarness.cc</text>
</a>
</g>
</g>
<!-- Node2&#45;&gt;Node6 -->
<g id="edge5" class="edge">
<title>Node2&#45;&gt;Node6</title>
<path fill="none" stroke="midnightblue" d="M523.5,-45.8C523.5,-36.91 523.5,-26.78 523.5,-19.75"/>
<polygon fill="midnightblue" stroke="midnightblue" points="520,-46.08 523.5,-56.08 527,-46.08 520,-46.08"/>
</g>
<!-- Node7 -->
<g id="node7" class="node">
<title>Node7</title>
<g id="a_node7"><a xlink:href="_o_m_sim_effective_area_detector_8cc.html" target="_top" xlink:title=" ">
<polygon fill="white" stroke="black" points="610.5,-0.5 610.5,-19.5 782.5,-19.5 782.5,-0.5 610.5,-0.5"/>
<text text-anchor="middle" x="696.5" y="-7.5" font-family="Helvetica,sans-Serif" font-size="10.00">OMSimEffectiveAreaDetector.cc</text>
</a>
</g>
</g>
<!-- Node2&#45;&gt;Node7 -->
<g id="edge6" class="edge">
<title>Node2&#45;&gt;Node7</title>
<path fill="none" stroke="midnightblue" d="M560.55,-53.44C593.16,-43.26 639.91,-28.66 669.22,-19.52"/>
<polygon fill="midnightblue" stroke="midnightblue" points="559.42,-50.12 550.91,-56.44 561.5,-56.8 559.42,-50.12"/>
</g>
<!-- Node8 -->
<g id="node8" class="node">
<title>Node8</title>
<g id="a_node8"><a xlink:href="_o_m_sim_rad_decays_detector_8cc.html" target="_top" xlink:title=" ">
<polygon fill="white" stroke="black" points="801,-0.5 801,-19.5 962,-19.5 962,-0.5 801,-0.5"/>
<text text-anchor="middle" x="881.5" y="-7.5" font-family="Helvetica,sans-Serif" font-size="10.00">OMSimRadDecaysDetector.cc</text>
</a>
</g>
</g>
<!-- Node2&#45;&gt;Node8 -->
<g id="edge7" class="edge">
<title>Node2&#45;&gt;Node8</title>
<path fill="none" stroke="midnightblue" d="M583.68,-55.92C650.97,-45.77 759.1,-29.46 824.9,-19.54"/>
<polygon fill="midnightblue" stroke="midnightblue" points="583.02,-52.48 573.66,-57.43 584.07,-59.4 583.02,-52.48"/>
</g>
<!-- Node9 -->
<g id="node9" class="node">
<title>Node9</title>
<g id="a_node9"><a xlink:href="_o_m_sim_s_ndetector_8cc.html" target="_top" xlink:title=" ">
<polygon fill="white" stroke="black" points="980,-0.5 980,-19.5 1099,-19.5 1099,-0.5 980,-0.5"/>
<text text-anchor="middle" x="1039.5" y="-7.5" font-family="Helvetica,sans-Serif" font-size="10.00">OMSimSNdetector.cc</text>
</a>
</g>
</g>
<!-- Node2&#45;&gt;Node9 -->
<g id="edge8" class="edge">
<title>Node2&#45;&gt;Node9</title>
<path fill="none" stroke="midnightblue" d="M583.72,-59.56C669.79,-51.64 832.91,-36.13 971.5,-20 974.22,-19.68 977,-19.35 979.81,-19.01"/>
<polygon fill="midnightblue" stroke="midnightblue" points="583.25,-56.09 573.61,-60.49 583.89,-63.06 583.25,-56.09"/>
</g>
</g>
</svg>
