<?xml version="1.0" encoding="UTF-8" standalone="no"?>
<!DOCTYPE svg PUBLIC "-//W3C//DTD SVG 1.1//EN"
 "http://www.w3.org/Graphics/SVG/1.1/DTD/svg11.dtd">
<!-- Generated by graphviz version 2.43.0 (0)
 -->
<!-- Title: OMSim.hh Pages: 1 -->
<svg width="2166pt" height="431pt"
 viewBox="0.00 0.00 2165.86 431.00" xmlns="http://www.w3.org/2000/svg" xmlns:xlink="http://www.w3.org/1999/xlink">
<g id="graph0" class="graph" transform="scale(1 1) rotate(0) translate(4 427)">
<title>OMSim.hh</title>
<!-- Node1 -->
<g id="node1" class="node">
<title>Node1</title>
<g id="a_node1"><a xlink:title="Main simulation class for the Optical Module (OM) simulation. This file defines the OMSim class,...">
<polygon fill="#bfbfbf" stroke="black" points="1268.36,-403.5 1268.36,-422.5 1335.36,-422.5 1335.36,-403.5 1268.36,-403.5"/>
<text text-anchor="middle" x="1301.86" y="-410.5" font-family="Helvetica,sans-Serif" font-size="10.00">OMSim.hh</text>
</a>
</g>
</g>
<!-- Node2 -->
<g id="node2" class="node">
<title>Node2</title>
<g id="a_node2"><a xlink:href="_o_m_sim_detector_construction_8hh_source.html" target="_top" xlink:title=" ">
<polygon fill="none" stroke="black" points="633.86,-347.5 633.86,-366.5 803.86,-366.5 803.86,-347.5 633.86,-347.5"/>
<text text-anchor="middle" x="718.86" y="-354.5" font-family="Helvetica,sans-Serif" font-size="10.00">OMSimDetectorConstruction.hh</text>
</a>
</g>
</g>
<!-- Node1&#45;&gt;Node2 -->
<g id="edge1" class="edge">
<title>Node1&#45;&gt;Node2</title>
<path fill="none" stroke="midnightblue" d="M1268.36,-408.96C1190.62,-401.9 991.68,-383.77 813.97,-367.1"/>
<polygon fill="midnightblue" stroke="midnightblue" points="814.2,-363.61 803.92,-366.16 813.55,-370.58 814.2,-363.61"/>
</g>
<!-- Node38 -->
<g id="node31" class="node">
<title>Node38</title>
<g id="a_node31"><a xlink:title=" ">
<polygon fill="none" stroke="#bfbfbf" points="822.36,-347.5 822.36,-366.5 943.36,-366.5 943.36,-347.5 822.36,-347.5"/>
<text text-anchor="middle" x="882.86" y="-354.5" font-family="Helvetica,sans-Serif" font-size="10.00">OMSimPhysicsList.hh</text>
</a>
</g>
</g>
<!-- Node1&#45;&gt;Node38 -->
<g id="edge34" class="edge">
<title>Node1&#45;&gt;Node38</title>
<path fill="none" stroke="midnightblue" d="M1268.07,-407.68C1207.33,-399.9 1075.38,-382.99 953.68,-367.23"/>
<polygon fill="midnightblue" stroke="midnightblue" points="953.81,-363.72 943.45,-365.91 952.91,-370.66 953.81,-363.72"/>
</g>
<!-- Node39 -->
<g id="node32" class="node">
<title>Node39</title>
<g id="a_node32"><a xlink:title=" ">
<polygon fill="none" stroke="#bfbfbf" points="961.36,-347.5 961.36,-366.5 1146.36,-366.5 1146.36,-347.5 961.36,-347.5"/>
<text text-anchor="middle" x="1053.86" y="-354.5" font-family="Helvetica,sans-Serif" font-size="10.00">OMSimPrimaryGeneratorAction.hh</text>
</a>
</g>
</g>
<!-- Node1&#45;&gt;Node39 -->
<g id="edge35" class="edge">
<title>Node1&#45;&gt;Node39</title>
<path fill="none" stroke="midnightblue" d="M1268.16,-404.66C1225.63,-395.4 1152.14,-379.4 1103.26,-368.76"/>
<polygon fill="midnightblue" stroke="midnightblue" points="1103.74,-365.28 1093.22,-366.57 1102.25,-372.12 1103.74,-365.28"/>
</g>
<!-- Node40 -->
<g id="node33" class="node">
<title>Node40</title>
<g id="a_node33"><a xlink:href="_o_m_sim_run_action_8hh_source.html" target="_top" xlink:title=" ">
<polygon fill="none" stroke="black" points="155.86,-291.5 155.86,-310.5 271.86,-310.5 271.86,-291.5 155.86,-291.5"/>
<text text-anchor="middle" x="213.86" y="-298.5" font-family="Helvetica,sans-Serif" font-size="10.00">OMSimRunAction.hh</text>
</a>
</g>
</g>
<!-- Node1&#45;&gt;Node40 -->
<g id="edge36" class="edge">
<title>Node1&#45;&gt;Node40</title>
<path fill="none" stroke="midnightblue" d="M1268.05,-411.23C1164.94,-408.58 845.54,-398.26 582.86,-367 467.89,-353.32 334.41,-327.24 263.74,-312.62"/>
<polygon fill="midnightblue" stroke="midnightblue" points="264.28,-309.15 253.78,-310.54 262.86,-316.01 264.28,-309.15"/>
</g>
<!-- Node44 -->
<g id="node37" class="node">
<title>Node44</title>
<g id="a_node37"><a xlink:title=" ">
<polygon fill="none" stroke="#bfbfbf" points="1164.36,-347.5 1164.36,-366.5 1289.36,-366.5 1289.36,-347.5 1164.36,-347.5"/>
<text text-anchor="middle" x="1226.86" y="-354.5" font-family="Helvetica,sans-Serif" font-size="10.00">OMSimEventAction.hh</text>
</a>
</g>
</g>
<!-- Node1&#45;&gt;Node44 -->
<g id="edge42" class="edge">
<title>Node1&#45;&gt;Node44</title>
<path fill="none" stroke="midnightblue" d="M1289.81,-403.32C1278.4,-395.11 1261.03,-382.6 1247.43,-372.81"/>
<polygon fill="midnightblue" stroke="midnightblue" points="1249.29,-369.84 1239.13,-366.83 1245.2,-375.52 1249.29,-369.84"/>
</g>
<!-- Node45 -->
<g id="node38" class="node">
<title>Node45</title>
<g id="a_node38"><a xlink:href="_o_m_sim_tracking_action_8hh_source.html" target="_top" xlink:title=" ">
<polygon fill="none" stroke="black" points="1307.86,-347.5 1307.86,-366.5 1445.86,-366.5 1445.86,-347.5 1307.86,-347.5"/>
<text text-anchor="middle" x="1376.86" y="-354.5" font-family="Helvetica,sans-Serif" font-size="10.00">OMSimTrackingAction.hh</text>
</a>
</g>
</g>
<!-- Node1&#45;&gt;Node45 -->
<g id="edge43" class="edge">
<title>Node1&#45;&gt;Node45</title>
<path fill="none" stroke="midnightblue" d="M1313.91,-403.32C1325.33,-395.11 1342.69,-382.6 1356.3,-372.81"/>
<polygon fill="midnightblue" stroke="midnightblue" points="1358.52,-375.52 1364.59,-366.83 1354.43,-369.84 1358.52,-375.52"/>
</g>
<!-- Node47 -->
<g id="node40" class="node">
<title>Node47</title>
<g id="a_node40"><a xlink:href="_o_m_sim_stepping_action_8hh.html" target="_top" xlink:title="Defines OMSimSteppingAction.Currently it only checks for trapped photons.">
<polygon fill="none" stroke="black" points="1463.86,-347.5 1463.86,-366.5 1603.86,-366.5 1603.86,-347.5 1463.86,-347.5"/>
<text text-anchor="middle" x="1533.86" y="-354.5" font-family="Helvetica,sans-Serif" font-size="10.00">OMSimSteppingAction.hh</text>
</a>
</g>
</g>
<!-- Node1&#45;&gt;Node47 -->
<g id="edge45" class="edge">
<title>Node1&#45;&gt;Node47</title>
<path fill="none" stroke="midnightblue" d="M1335.6,-404.15C1375.56,-394.85 1442.35,-379.3 1487.23,-368.85"/>
<polygon fill="midnightblue" stroke="midnightblue" points="1488.07,-372.25 1497.02,-366.58 1486.49,-365.43 1488.07,-372.25"/>
</g>
<!-- Node49 -->
<g id="node42" class="node">
<title>Node49</title>
<g id="a_node42"><a xlink:href="_o_m_sim_u_iinterface_8hh.html" target="_top" xlink:title=" ">
<polygon fill="none" stroke="black" points="472.36,-291.5 472.36,-310.5 593.36,-310.5 593.36,-291.5 472.36,-291.5"/>
<text text-anchor="middle" x="532.86" y="-298.5" font-family="Helvetica,sans-Serif" font-size="10.00">OMSimUIinterface.hh</text>
</a>
</g>
</g>
<!-- Node1&#45;&gt;Node49 -->
<g id="edge47" class="edge">
<title>Node1&#45;&gt;Node49</title>
<path fill="none" stroke="midnightblue" d="M1268.31,-412.16C1148.93,-412.35 745.46,-409.76 624.86,-367 595.08,-356.44 566.25,-333.32 549.03,-317.7"/>
<polygon fill="midnightblue" stroke="midnightblue" points="551.25,-314.99 541.55,-310.72 546.48,-320.1 551.25,-314.99"/>
</g>
<!-- Node54 -->
<g id="node47" class="node">
<title>Node54</title>
<g id="a_node47"><a xlink:title=" ">
<polygon fill="none" stroke="#bfbfbf" points="1622.36,-347.5 1622.36,-366.5 1743.36,-366.5 1743.36,-347.5 1622.36,-347.5"/>
<text text-anchor="middle" x="1682.86" y="-354.5" font-family="Helvetica,sans-Serif" font-size="10.00">G4MTRunManager.hh</text>
</a>
</g>
</g>
<!-- Node1&#45;&gt;Node54 -->
<g id="edge55" class="edge">
<title>Node1&#45;&gt;Node54</title>
<path fill="none" stroke="midnightblue" d="M1335.68,-407.21C1397.65,-398.42 1530.62,-379.58 1612.83,-367.93"/>
<polygon fill="midnightblue" stroke="midnightblue" points="1613.43,-371.38 1622.84,-366.51 1612.45,-364.44 1613.43,-371.38"/>
</g>
<!-- Node55 -->
<g id="node48" class="node">
<title>Node55</title>
<g id="a_node48"><a xlink:title=" ">
<polygon fill="none" stroke="#bfbfbf" points="1761.36,-347.5 1761.36,-366.5 1868.36,-366.5 1868.36,-347.5 1761.36,-347.5"/>
<text text-anchor="middle" x="1814.86" y="-354.5" font-family="Helvetica,sans-Serif" font-size="10.00">G4VisExecutive.hh</text>
</a>
</g>
</g>
<!-- Node1&#45;&gt;Node55 -->
<g id="edge56" class="edge">
<title>Node1&#45;&gt;Node55</title>
<path fill="none" stroke="midnightblue" d="M1335.58,-409.15C1409.12,-402.84 1589.64,-386.73 1751.01,-367.18"/>
<polygon fill="midnightblue" stroke="midnightblue" points="1751.61,-370.64 1761.12,-365.95 1750.77,-363.69 1751.61,-370.64"/>
</g>
<!-- Node56 -->
<g id="node49" class="node">
<title>Node56</title>
<g id="a_node49"><a xlink:title=" ">
<polygon fill="none" stroke="#bfbfbf" points="1886.36,-347.5 1886.36,-366.5 1989.36,-366.5 1989.36,-347.5 1886.36,-347.5"/>
<text text-anchor="middle" x="1937.86" y="-354.5" font-family="Helvetica,sans-Serif" font-size="10.00">G4UIExecutive.hh</text>
</a>
</g>
</g>
<!-- Node1&#45;&gt;Node56 -->
<g id="edge57" class="edge">
<title>Node1&#45;&gt;Node56</title>
<path fill="none" stroke="midnightblue" d="M1335.38,-410.22C1422.71,-405.39 1664.6,-390.88 1876.13,-367.13"/>
<polygon fill="midnightblue" stroke="midnightblue" points="1876.64,-370.59 1886.18,-365.99 1875.85,-363.64 1876.64,-370.59"/>
</g>
<!-- Node57 -->
<g id="node50" class="node">
<title>Node57</title>
<g id="a_node50"><a xlink:title=" ">
<polygon fill="none" stroke="#bfbfbf" points="2007.86,-347.5 2007.86,-366.5 2157.86,-366.5 2157.86,-347.5 2007.86,-347.5"/>
<text text-anchor="middle" x="2082.86" y="-354.5" font-family="Helvetica,sans-Serif" font-size="10.00">boost/program_options.hpp</text>
</a>
</g>
</g>
<!-- Node1&#45;&gt;Node57 -->
<g id="edge58" class="edge">
<title>Node1&#45;&gt;Node57</title>
<path fill="none" stroke="midnightblue" d="M1335.63,-410.33C1435.2,-405.29 1736.47,-389.26 1997.72,-367.06"/>
<polygon fill="midnightblue" stroke="midnightblue" points="1998.11,-370.54 2007.77,-366.2 1997.51,-363.57 1998.11,-370.54"/>
</g>
<!-- Node3 -->
<g id="node3" class="node">
<title>Node3</title>
<g id="a_node3"><a xlink:href="_o_m_sim_optical_module_8hh_source.html" target="_top" xlink:title=" ">
<polygon fill="none" stroke="black" points="650.36,-291.5 650.36,-310.5 787.36,-310.5 787.36,-291.5 650.36,-291.5"/>
<text text-anchor="middle" x="718.86" y="-298.5" font-family="Helvetica,sans-Serif" font-size="10.00">OMSimOpticalModule.hh</text>
</a>
</g>
</g>
<!-- Node2&#45;&gt;Node3 -->
<g id="edge2" class="edge">
<title>Node2&#45;&gt;Node3</title>
<path fill="none" stroke="midnightblue" d="M718.86,-347.08C718.86,-340.01 718.86,-329.86 718.86,-320.99"/>
<polygon fill="midnightblue" stroke="midnightblue" points="722.36,-320.75 718.86,-310.75 715.36,-320.75 722.36,-320.75"/>
</g>
<!-- Node36 -->
<g id="node29" class="node">
<title>Node36</title>
<g id="a_node29"><a xlink:title=" ">
<polygon fill="none" stroke="#bfbfbf" points="805.86,-291.5 805.86,-310.5 867.86,-310.5 867.86,-291.5 805.86,-291.5"/>
<text text-anchor="middle" x="836.86" y="-298.5" font-family="Helvetica,sans-Serif" font-size="10.00">G4Orb.hh</text>
</a>
</g>
</g>
<!-- Node2&#45;&gt;Node36 -->
<g id="edge32" class="edge">
<title>Node2&#45;&gt;Node36</title>
<path fill="none" stroke="midnightblue" d="M737.56,-347.44C756.81,-338.64 787.02,-324.81 809.06,-314.72"/>
<polygon fill="midnightblue" stroke="midnightblue" points="810.62,-317.86 818.25,-310.52 807.7,-311.5 810.62,-317.86"/>
</g>
<!-- Node37 -->
<g id="node30" class="node">
<title>Node37</title>
<g id="a_node30"><a xlink:title=" ">
<polygon fill="none" stroke="#bfbfbf" points="885.86,-291.5 885.86,-310.5 1063.86,-310.5 1063.86,-291.5 885.86,-291.5"/>
<text text-anchor="middle" x="974.86" y="-298.5" font-family="Helvetica,sans-Serif" font-size="10.00">G4VUserDetectorConstruction.hh</text>
</a>
</g>
</g>
<!-- Node2&#45;&gt;Node37 -->
<g id="edge33" class="edge">
<title>Node2&#45;&gt;Node37</title>
<path fill="none" stroke="midnightblue" d="M759.43,-347.44C804.18,-338 876.25,-322.8 924.56,-312.61"/>
<polygon fill="midnightblue" stroke="midnightblue" points="925.43,-316.01 934.49,-310.52 923.98,-309.16 925.43,-316.01"/>
</g>
<!-- Node4 -->
<g id="node4" class="node">
<title>Node4</title>
<g id="a_node4"><a xlink:href="abc_detector_component_8hh.html" target="_top" xlink:title="Provides helper base class abcDetectorComponent for constructing and managing detector components in ...">
<polygon fill="none" stroke="black" points="1276.36,-179.5 1276.36,-198.5 1423.36,-198.5 1423.36,-179.5 1276.36,-179.5"/>
<text text-anchor="middle" x="1349.86" y="-186.5" font-family="Helvetica,sans-Serif" font-size="10.00">abcDetectorComponent.hh</text>
</a>
</g>
</g>
<!-- Node3&#45;&gt;Node4 -->
<g id="edge3" class="edge">
<title>Node3&#45;&gt;Node4</title>
<path fill="none" stroke="midnightblue" d="M787.76,-291.95C790.83,-291.62 793.88,-291.3 796.86,-291 979.74,-272.46 1031.21,-302.18 1208.86,-255 1252.68,-243.37 1299.77,-218.97 1326.93,-203.59"/>
<polygon fill="midnightblue" stroke="midnightblue" points="1328.75,-206.59 1335.67,-198.57 1325.26,-200.52 1328.75,-206.59"/>
</g>
<!-- Node25 -->
<g id="node16" class="node">
<title>Node25</title>
<g id="a_node16"><a xlink:href="_o_m_sim_hit_manager_8hh.html" target="_top" xlink:title="Defines structures and classes related to optical module photon hit management.">
<polygon fill="none" stroke="black" points="657.36,-235.5 657.36,-254.5 780.36,-254.5 780.36,-235.5 657.36,-235.5"/>
<text text-anchor="middle" x="718.86" y="-242.5" font-family="Helvetica,sans-Serif" font-size="10.00">OMSimHitManager.hh</text>
</a>
</g>
</g>
<!-- Node3&#45;&gt;Node25 -->
<g id="edge15" class="edge">
<title>Node3&#45;&gt;Node25</title>
<path fill="none" stroke="midnightblue" d="M718.86,-291.08C718.86,-284.01 718.86,-273.86 718.86,-264.99"/>
<polygon fill="midnightblue" stroke="midnightblue" points="722.36,-264.75 718.86,-254.75 715.36,-264.75 722.36,-264.75"/>
</g>
<!-- Node33 -->
<g id="node26" class="node">
<title>Node33</title>
<g id="a_node26"><a xlink:href="_o_m_sim_p_m_t_construction_8hh.html" target="_top" xlink:title="Construction of the PMTs.">
<polygon fill="none" stroke="black" points="1033.36,-235.5 1033.36,-254.5 1182.36,-254.5 1182.36,-235.5 1033.36,-235.5"/>
<text text-anchor="middle" x="1107.86" y="-242.5" font-family="Helvetica,sans-Serif" font-size="10.00">OMSimPMTConstruction.hh</text>
</a>
</g>
</g>
<!-- Node3&#45;&gt;Node33 -->
<g id="edge26" class="edge">
<title>Node3&#45;&gt;Node33</title>
<path fill="none" stroke="midnightblue" d="M780.5,-291.44C850.07,-281.79 963.07,-266.1 1036.43,-255.92"/>
<polygon fill="midnightblue" stroke="midnightblue" points="1037.09,-259.36 1046.51,-254.52 1036.13,-252.42 1037.09,-259.36"/>
</g>
<!-- Node5 -->
<g id="node5" class="node">
<title>Node5</title>
<g id="a_node5"><a xlink:href="_o_m_sim_input_data_8hh.html" target="_top" xlink:title="Definition of ParameterTable and OMSimInputData.">
<polygon fill="none" stroke="red" points="1055.36,-123.5 1055.36,-142.5 1170.36,-142.5 1170.36,-123.5 1055.36,-123.5"/>
<text text-anchor="middle" x="1112.86" y="-130.5" font-family="Helvetica,sans-Serif" font-size="10.00">OMSimInputData.hh</text>
</a>
</g>
</g>
<!-- Node4&#45;&gt;Node5 -->
<g id="edge4" class="edge">
<title>Node4&#45;&gt;Node5</title>
<path fill="none" stroke="midnightblue" d="M1312.31,-179.44C1271.05,-170.04 1204.72,-154.93 1160,-144.74"/>
<polygon fill="midnightblue" stroke="midnightblue" points="1160.77,-141.33 1150.24,-142.52 1159.21,-148.15 1160.77,-141.33"/>
</g>
<!-- Node21 -->
<g id="node12" class="node">
<title>Node21</title>
<g id="a_node12"><a xlink:title=" ">
<polygon fill="none" stroke="#bfbfbf" points="1317.36,-123.5 1317.36,-142.5 1424.36,-142.5 1424.36,-123.5 1317.36,-123.5"/>
<text text-anchor="middle" x="1370.86" y="-130.5" font-family="Helvetica,sans-Serif" font-size="10.00">G4Transform3D.hh</text>
</a>
</g>
</g>
<!-- Node4&#45;&gt;Node21 -->
<g id="edge11" class="edge">
<title>Node4&#45;&gt;Node21</title>
<path fill="none" stroke="midnightblue" d="M1353.33,-179.08C1356.18,-171.77 1360.29,-161.18 1363.82,-152.1"/>
<polygon fill="midnightblue" stroke="midnightblue" points="1367.1,-153.34 1367.46,-142.75 1360.57,-150.8 1367.1,-153.34"/>
</g>
<!-- Node22 -->
<g id="node13" class="node">
<title>Node22</title>
<g id="a_node13"><a xlink:title=" ">
<polygon fill="none" stroke="#bfbfbf" points="1442.86,-123.5 1442.86,-142.5 1550.86,-142.5 1550.86,-123.5 1442.86,-123.5"/>
<text text-anchor="middle" x="1496.86" y="-130.5" font-family="Helvetica,sans-Serif" font-size="10.00">G4VisAttributes.hh</text>
</a>
</g>
</g>
<!-- Node4&#45;&gt;Node22 -->
<g id="edge12" class="edge">
<title>Node4&#45;&gt;Node22</title>
<path fill="none" stroke="midnightblue" d="M1373.16,-179.44C1397.67,-170.44 1436.46,-156.19 1464.06,-146.05"/>
<polygon fill="midnightblue" stroke="midnightblue" points="1465.5,-149.25 1473.68,-142.52 1463.09,-142.68 1465.5,-149.25"/>
</g>
<!-- Node23 -->
<g id="node14" class="node">
<title>Node23</title>
<g id="a_node14"><a xlink:title=" ">
<polygon fill="none" stroke="#bfbfbf" points="1569.36,-123.5 1569.36,-142.5 1694.36,-142.5 1694.36,-123.5 1569.36,-123.5"/>
<text text-anchor="middle" x="1631.86" y="-130.5" font-family="Helvetica,sans-Serif" font-size="10.00">G4SubtractionSolid.hh</text>
</a>
</g>
</g>
<!-- Node4&#45;&gt;Node23 -->
<g id="edge13" class="edge">
<title>Node4&#45;&gt;Node23</title>
<path fill="none" stroke="midnightblue" d="M1394.55,-179.44C1444.15,-169.94 1524.23,-154.61 1577.45,-144.42"/>
<polygon fill="midnightblue" stroke="midnightblue" points="1578.23,-147.83 1587.39,-142.52 1576.91,-140.96 1578.23,-147.83"/>
</g>
<!-- Node24 -->
<g id="node15" class="node">
<title>Node24</title>
<g id="a_node15"><a xlink:title=" ">
<polygon fill="none" stroke="#bfbfbf" points="1188.86,-123.5 1188.86,-142.5 1298.86,-142.5 1298.86,-123.5 1188.86,-123.5"/>
<text text-anchor="middle" x="1243.86" y="-130.5" font-family="Helvetica,sans-Serif" font-size="10.00">G4PVPlacement.hh</text>
</a>
</g>
</g>
<!-- Node4&#45;&gt;Node24 -->
<g id="edge14" class="edge">
<title>Node4&#45;&gt;Node24</title>
<path fill="none" stroke="midnightblue" d="M1332.83,-179.32C1315.83,-170.66 1289.49,-157.24 1269.87,-147.25"/>
<polygon fill="midnightblue" stroke="midnightblue" points="1271.35,-144.08 1260.85,-142.65 1268.17,-150.31 1271.35,-144.08"/>
</g>
<!-- Node6 -->
<g id="node6" class="node">
<title>Node6</title>
<g id="a_node6"><a xlink:href="_o_m_sim_logger_8hh_source.html" target="_top" xlink:title=" ">
<polygon fill="none" stroke="black" points="201.36,-67.5 201.36,-86.5 300.36,-86.5 300.36,-67.5 201.36,-67.5"/>
<text text-anchor="middle" x="250.86" y="-74.5" font-family="Helvetica,sans-Serif" font-size="10.00">OMSimLogger.hh</text>
</a>
</g>
</g>
<!-- Node5&#45;&gt;Node6 -->
<g id="edge5" class="edge">
<title>Node5&#45;&gt;Node6</title>
<path fill="none" stroke="midnightblue" d="M1055.12,-126.83C1039.47,-125.5 1022.52,-124.13 1006.86,-123 747.93,-104.3 438.69,-87.68 310.78,-81.05"/>
<polygon fill="midnightblue" stroke="midnightblue" points="310.59,-77.54 300.43,-80.52 310.23,-84.53 310.59,-77.54"/>
</g>
<!-- Node19 -->
<g id="node11" class="node">
<title>Node19</title>
<g id="a_node11"><a xlink:title=" ">
<polygon fill="none" stroke="#bfbfbf" points="1010.36,-67.5 1010.36,-86.5 1129.36,-86.5 1129.36,-67.5 1010.36,-67.5"/>
<text text-anchor="middle" x="1069.86" y="-74.5" font-family="Helvetica,sans-Serif" font-size="10.00">G4SystemOfUnits.hh</text>
</a>
</g>
</g>
<!-- Node5&#45;&gt;Node19 -->
<g id="edge10" class="edge">
<title>Node5&#45;&gt;Node19</title>
<path fill="none" stroke="midnightblue" d="M1105.76,-123.08C1099.63,-115.38 1090.59,-104.03 1083.12,-94.65"/>
<polygon fill="midnightblue" stroke="midnightblue" points="1085.8,-92.39 1076.83,-86.75 1080.32,-96.75 1085.8,-92.39"/>
</g>
<!-- Node7 -->
<g id="node7" class="node">
<title>Node7</title>
<g id="a_node7"><a xlink:title=" ">
<polygon fill="none" stroke="#bfbfbf" points="33.36,-6 33.36,-25 126.36,-25 126.36,-6 33.36,-6"/>
<text text-anchor="middle" x="79.86" y="-13" font-family="Helvetica,sans-Serif" font-size="10.00">spdlog/spdlog.h</text>
</a>
</g>
</g>
<!-- Node6&#45;&gt;Node7 -->
<g id="edge6" class="edge">
<title>Node6&#45;&gt;Node7</title>
<path fill="none" stroke="midnightblue" d="M226.36,-67.48C196.9,-57.22 147.28,-39.96 114.06,-28.4"/>
<polygon fill="midnightblue" stroke="midnightblue" points="114.91,-24.99 104.32,-25.01 112.61,-31.6 114.91,-24.99"/>
</g>
<!-- Node8 -->
<g id="node8" class="node">
<title>Node8</title>
<g id="a_node8"><a xlink:title=" ">
<polygon fill="none" stroke="#bfbfbf" points="144.36,-0.5 144.36,-30.5 255.36,-30.5 255.36,-0.5 144.36,-0.5"/>
<text text-anchor="start" x="152.36" y="-18.5" font-family="Helvetica,sans-Serif" font-size="10.00">spdlog/sinks/stdout</text>
<text text-anchor="middle" x="199.86" y="-7.5" font-family="Helvetica,sans-Serif" font-size="10.00">_color_sinks.h</text>
</a>
</g>
</g>
<!-- Node6&#45;&gt;Node8 -->
<g id="edge7" class="edge">
<title>Node6&#45;&gt;Node8</title>
<path fill="none" stroke="midnightblue" d="M243.56,-67.48C237.04,-59.87 227.21,-48.4 218.52,-38.26"/>
<polygon fill="midnightblue" stroke="midnightblue" points="221.05,-35.84 211.88,-30.52 215.73,-40.39 221.05,-35.84"/>
</g>
<!-- Node9 -->
<g id="node9" class="node">
<title>Node9</title>
<g id="a_node9"><a xlink:title=" ">
<polygon fill="none" stroke="#bfbfbf" points="273.86,-6 273.86,-25 331.86,-25 331.86,-6 273.86,-6"/>
<text text-anchor="middle" x="302.86" y="-13" font-family="Helvetica,sans-Serif" font-size="10.00">memory</text>
</a>
</g>
</g>
<!-- Node6&#45;&gt;Node9 -->
<g id="edge8" class="edge">
<title>Node6&#45;&gt;Node9</title>
<path fill="none" stroke="midnightblue" d="M258.31,-67.48C266.19,-58.46 278.81,-44.02 288.61,-32.81"/>
<polygon fill="midnightblue" stroke="midnightblue" points="291.48,-34.84 295.43,-25.01 286.21,-30.24 291.48,-34.84"/>
</g>
<!-- Node10 -->
<g id="node10" class="node">
<title>Node10</title>
<g id="a_node10"><a xlink:title=" ">
<polygon fill="none" stroke="#bfbfbf" points="349.86,-6 349.86,-25 447.86,-25 447.86,-6 349.86,-6"/>
<text text-anchor="middle" x="398.86" y="-13" font-family="Helvetica,sans-Serif" font-size="10.00">spdlog/fmt/fmt.h</text>
</a>
</g>
</g>
<!-- Node6&#45;&gt;Node10 -->
<g id="edge9" class="edge">
<title>Node6&#45;&gt;Node10</title>
<path fill="none" stroke="midnightblue" d="M272.07,-67.48C297.24,-57.36 339.4,-40.4 368.14,-28.85"/>
<polygon fill="midnightblue" stroke="midnightblue" points="369.73,-31.99 377.7,-25.01 367.11,-25.49 369.73,-31.99"/>
</g>
<!-- Node26 -->
<g id="node17" class="node">
<title>Node26</title>
<g id="a_node17"><a xlink:href="_o_m_sim_p_m_t_response_8hh.html" target="_top" xlink:title="Simulation of PMT response.">
<polygon fill="none" stroke="black" points="921.36,-179.5 921.36,-198.5 1056.36,-198.5 1056.36,-179.5 921.36,-179.5"/>
<text text-anchor="middle" x="988.86" y="-186.5" font-family="Helvetica,sans-Serif" font-size="10.00">OMSimPMTResponse.hh</text>
</a>
</g>
</g>
<!-- Node25&#45;&gt;Node26 -->
<g id="edge16" class="edge">
<title>Node25&#45;&gt;Node26</title>
<path fill="none" stroke="midnightblue" d="M761.65,-235.44C809.04,-225.96 885.49,-210.67 936.45,-200.48"/>
<polygon fill="midnightblue" stroke="midnightblue" points="937.16,-203.91 946.28,-198.52 935.79,-197.05 937.16,-203.91"/>
</g>
<!-- Node31 -->
<g id="node22" class="node">
<title>Node31</title>
<g id="a_node22"><a xlink:title=" ">
<polygon fill="none" stroke="#bfbfbf" points="691.36,-179.5 691.36,-198.5 794.36,-198.5 794.36,-179.5 691.36,-179.5"/>
<text text-anchor="middle" x="742.86" y="-186.5" font-family="Helvetica,sans-Serif" font-size="10.00">G4ThreeVector.hh</text>
</a>
</g>
</g>
<!-- Node25&#45;&gt;Node31 -->
<g id="edge22" class="edge">
<title>Node25&#45;&gt;Node31</title>
<path fill="none" stroke="midnightblue" d="M722.83,-235.08C726.08,-227.77 730.78,-217.18 734.82,-208.1"/>
<polygon fill="midnightblue" stroke="midnightblue" points="738.11,-209.31 738.97,-198.75 731.71,-206.47 738.11,-209.31"/>
</g>
<!-- Node32 -->
<g id="node23" class="node">
<title>Node32</title>
<g id="a_node23"><a xlink:title=" ">
<polygon fill="none" stroke="#bfbfbf" points="505.36,-179.5 505.36,-198.5 560.36,-198.5 560.36,-179.5 505.36,-179.5"/>
<text text-anchor="middle" x="532.86" y="-186.5" font-family="Helvetica,sans-Serif" font-size="10.00">fstream</text>
</a>
</g>
</g>
<!-- Node25&#45;&gt;Node32 -->
<g id="edge23" class="edge">
<title>Node25&#45;&gt;Node32</title>
<path fill="none" stroke="midnightblue" d="M689.39,-235.44C657.13,-226.08 605.34,-211.04 570.25,-200.85"/>
<polygon fill="midnightblue" stroke="midnightblue" points="570.96,-197.42 560.38,-197.99 569.01,-204.14 570.96,-197.42"/>
</g>
<!-- Node17 -->
<g id="node24" class="node">
<title>Node17</title>
<g id="a_node24"><a xlink:title=" ">
<polygon fill="none" stroke="#bfbfbf" points="812.86,-179.5 812.86,-198.5 902.86,-198.5 902.86,-179.5 812.86,-179.5"/>
<text text-anchor="middle" x="857.86" y="-186.5" font-family="Helvetica,sans-Serif" font-size="10.00">G4AutoLock.hh</text>
</a>
</g>
</g>
<!-- Node25&#45;&gt;Node17 -->
<g id="edge24" class="edge">
<title>Node25&#45;&gt;Node17</title>
<path fill="none" stroke="midnightblue" d="M740.89,-235.44C763.97,-226.48 800.43,-212.31 826.5,-202.18"/>
<polygon fill="midnightblue" stroke="midnightblue" points="827.89,-205.4 835.94,-198.52 825.35,-198.88 827.89,-205.4"/>
</g>
<!-- Node18 -->
<g id="node25" class="node">
<title>Node18</title>
<g id="a_node25"><a xlink:title=" ">
<polygon fill="none" stroke="#bfbfbf" points="578.86,-179.5 578.86,-198.5 672.86,-198.5 672.86,-179.5 578.86,-179.5"/>
<text text-anchor="middle" x="625.86" y="-186.5" font-family="Helvetica,sans-Serif" font-size="10.00">G4Threading.hh</text>
</a>
</g>
</g>
<!-- Node25&#45;&gt;Node18 -->
<g id="edge25" class="edge">
<title>Node25&#45;&gt;Node18</title>
<path fill="none" stroke="midnightblue" d="M703.92,-235.32C689.28,-226.82 666.73,-213.73 649.63,-203.8"/>
<polygon fill="midnightblue" stroke="midnightblue" points="651.17,-200.65 640.77,-198.65 647.66,-206.7 651.17,-200.65"/>
</g>
<!-- Node26&#45;&gt;Node19 -->
<g id="edge17" class="edge">
<title>Node26&#45;&gt;Node19</title>
<path fill="none" stroke="midnightblue" d="M995.22,-179.37C1008.65,-161.14 1040.1,-118.43 1057.58,-94.68"/>
<polygon fill="midnightblue" stroke="midnightblue" points="1060.43,-96.72 1063.54,-86.59 1054.79,-92.57 1060.43,-96.72"/>
</g>
<!-- Node27 -->
<g id="node18" class="node">
<title>Node27</title>
<g id="a_node18"><a xlink:title=" ">
<polygon fill="none" stroke="#bfbfbf" points="846.36,-123.5 846.36,-142.5 919.36,-142.5 919.36,-123.5 846.36,-123.5"/>
<text text-anchor="middle" x="882.86" y="-130.5" font-family="Helvetica,sans-Serif" font-size="10.00">G4Types.hh</text>
</a>
</g>
</g>
<!-- Node26&#45;&gt;Node27 -->
<g id="edge18" class="edge">
<title>Node26&#45;&gt;Node27</title>
<path fill="none" stroke="midnightblue" d="M971.83,-179.32C954.83,-170.66 928.49,-157.24 908.87,-147.25"/>
<polygon fill="midnightblue" stroke="midnightblue" points="910.35,-144.08 899.85,-142.65 907.17,-150.31 910.35,-144.08"/>
</g>
<!-- Node28 -->
<g id="node19" class="node">
<title>Node28</title>
<g id="a_node19"><a xlink:title=" ">
<polygon fill="none" stroke="#bfbfbf" points="587.86,-123.5 587.86,-142.5 625.86,-142.5 625.86,-123.5 587.86,-123.5"/>
<text text-anchor="middle" x="606.86" y="-130.5" font-family="Helvetica,sans-Serif" font-size="10.00">map</text>
</a>
</g>
</g>
<!-- Node26&#45;&gt;Node28 -->
<g id="edge19" class="edge">
<title>Node26&#45;&gt;Node28</title>
<path fill="none" stroke="midnightblue" d="M928.33,-179.44C845.01,-167.66 698.22,-146.91 636.02,-138.12"/>
<polygon fill="midnightblue" stroke="midnightblue" points="636.5,-134.65 626.11,-136.72 635.52,-141.59 636.5,-134.65"/>
</g>
<!-- Node29 -->
<g id="node20" class="node">
<title>Node29</title>
<g id="a_node20"><a xlink:title=" ">
<polygon fill="none" stroke="#bfbfbf" points="937.36,-123.5 937.36,-142.5 998.36,-142.5 998.36,-123.5 937.36,-123.5"/>
<text text-anchor="middle" x="967.86" y="-130.5" font-family="Helvetica,sans-Serif" font-size="10.00">TGraph.h</text>
</a>
</g>
</g>
<!-- Node26&#45;&gt;Node29 -->
<g id="edge20" class="edge">
<title>Node26&#45;&gt;Node29</title>
<path fill="none" stroke="midnightblue" d="M985.4,-179.08C982.55,-171.77 978.43,-161.18 974.9,-152.1"/>
<polygon fill="midnightblue" stroke="midnightblue" points="978.15,-150.8 971.27,-142.75 971.63,-153.34 978.15,-150.8"/>
</g>
<!-- Node30 -->
<g id="node21" class="node">
<title>Node30</title>
<g id="a_node21"><a xlink:title=" ">
<polygon fill="none" stroke="#bfbfbf" points="775.36,-123.5 775.36,-142.5 828.36,-142.5 828.36,-123.5 775.36,-123.5"/>
<text text-anchor="middle" x="801.86" y="-130.5" font-family="Helvetica,sans-Serif" font-size="10.00">TH2D.h</text>
</a>
</g>
</g>
<!-- Node26&#45;&gt;Node30 -->
<g id="edge21" class="edge">
<title>Node26&#45;&gt;Node30</title>
<path fill="none" stroke="midnightblue" d="M959.23,-179.44C926.52,-170 873.83,-154.78 838.54,-144.59"/>
<polygon fill="midnightblue" stroke="midnightblue" points="839.21,-141.14 828.63,-141.73 837.27,-147.87 839.21,-141.14"/>
</g>
<!-- Node33&#45;&gt;Node4 -->
<g id="edge27" class="edge">
<title>Node33&#45;&gt;Node4</title>
<path fill="none" stroke="midnightblue" d="M1146.21,-235.44C1188.34,-226.04 1256.07,-210.93 1301.74,-200.74"/>
<polygon fill="midnightblue" stroke="midnightblue" points="1302.7,-204.11 1311.7,-198.52 1301.18,-197.28 1302.7,-204.11"/>
</g>
<!-- Node33&#45;&gt;Node26 -->
<g id="edge29" class="edge">
<title>Node33&#45;&gt;Node26</title>
<path fill="none" stroke="midnightblue" d="M1089.01,-235.44C1069.6,-226.64 1039.13,-212.81 1016.9,-202.72"/>
<polygon fill="midnightblue" stroke="midnightblue" points="1018.18,-199.46 1007.63,-198.52 1015.29,-205.84 1018.18,-199.46"/>
</g>
<!-- Node33&#45;&gt;Node33 -->
<g id="edge28" class="edge">
<title>Node33&#45;&gt;Node33</title>
<path fill="none" stroke="midnightblue" d="M1147.32,-254.53C1174.12,-257.31 1200.36,-254.13 1200.36,-245 1200.36,-237.01 1180.27,-233.58 1157.29,-234.71"/>
<polygon fill="midnightblue" stroke="midnightblue" points="1157.02,-231.22 1147.32,-235.47 1157.55,-238.2 1157.02,-231.22"/>
</g>
<!-- Node34 -->
<g id="node27" class="node">
<title>Node34</title>
<g id="a_node27"><a xlink:title=" ">
<polygon fill="none" stroke="#bfbfbf" points="1159.86,-179.5 1159.86,-198.5 1257.86,-198.5 1257.86,-179.5 1159.86,-179.5"/>
<text text-anchor="middle" x="1208.86" y="-186.5" font-family="Helvetica,sans-Serif" font-size="10.00">G4UnionSolid.hh</text>
</a>
</g>
</g>
<!-- Node33&#45;&gt;Node34 -->
<g id="edge30" class="edge">
<title>Node33&#45;&gt;Node34</title>
<path fill="none" stroke="midnightblue" d="M1124.09,-235.32C1140.22,-226.7 1165.16,-213.36 1183.83,-203.39"/>
<polygon fill="midnightblue" stroke="midnightblue" points="1185.51,-206.46 1192.68,-198.65 1182.21,-200.28 1185.51,-206.46"/>
</g>
<!-- Node35 -->
<g id="node28" class="node">
<title>Node35</title>
<g id="a_node28"><a xlink:title=" ">
<polygon fill="none" stroke="#bfbfbf" points="1074.36,-179.5 1074.36,-198.5 1141.36,-198.5 1141.36,-179.5 1074.36,-179.5"/>
<text text-anchor="middle" x="1107.86" y="-186.5" font-family="Helvetica,sans-Serif" font-size="10.00">G4Tubs.hh</text>
</a>
</g>
</g>
<!-- Node33&#45;&gt;Node35 -->
<g id="edge31" class="edge">
<title>Node33&#45;&gt;Node35</title>
<path fill="none" stroke="midnightblue" d="M1107.86,-235.08C1107.86,-228.01 1107.86,-217.86 1107.86,-208.99"/>
<polygon fill="midnightblue" stroke="midnightblue" points="1111.36,-208.75 1107.86,-198.75 1104.36,-208.75 1111.36,-208.75"/>
</g>
<!-- Node40&#45;&gt;Node6 -->
<g id="edge39" class="edge">
<title>Node40&#45;&gt;Node6</title>
<path fill="none" stroke="midnightblue" d="M155.85,-295.6C100.44,-290.05 22.68,-278.27 3.86,-255 -1.72,-248.09 -0.42,-242.79 3.86,-235 48.15,-154.38 153.31,-109.27 211.11,-89.77"/>
<polygon fill="midnightblue" stroke="midnightblue" points="212.24,-93.08 220.65,-86.64 210.05,-86.43 212.24,-93.08"/>
</g>
<!-- Node40&#45;&gt;Node25 -->
<g id="edge38" class="edge">
<title>Node40&#45;&gt;Node25</title>
<path fill="none" stroke="midnightblue" d="M272.29,-293.75C365.16,-283.82 546.25,-264.46 646.95,-253.69"/>
<polygon fill="midnightblue" stroke="midnightblue" points="647.46,-257.16 657.03,-252.61 646.72,-250.19 647.46,-257.16"/>
</g>
<!-- Node41 -->
<g id="node34" class="node">
<title>Node41</title>
<g id="a_node34"><a xlink:title=" ">
<polygon fill="none" stroke="#bfbfbf" points="95.36,-235.5 95.36,-254.5 212.36,-254.5 212.36,-235.5 95.36,-235.5"/>
<text text-anchor="middle" x="153.86" y="-242.5" font-family="Helvetica,sans-Serif" font-size="10.00">G4UserRunAction.hh</text>
</a>
</g>
</g>
<!-- Node40&#45;&gt;Node41 -->
<g id="edge37" class="edge">
<title>Node40&#45;&gt;Node41</title>
<path fill="none" stroke="midnightblue" d="M204.22,-291.32C195.35,-283.34 181.99,-271.31 171.26,-261.65"/>
<polygon fill="midnightblue" stroke="midnightblue" points="173.45,-258.92 163.68,-254.83 168.77,-264.13 173.45,-258.92"/>
</g>
<!-- Node42 -->
<g id="node35" class="node">
<title>Node42</title>
<g id="a_node35"><a xlink:title=" ">
<polygon fill="none" stroke="#bfbfbf" points="230.86,-235.5 230.86,-254.5 316.86,-254.5 316.86,-235.5 230.86,-235.5"/>
<text text-anchor="middle" x="273.86" y="-242.5" font-family="Helvetica,sans-Serif" font-size="10.00">Randomize.hh</text>
</a>
</g>
</g>
<!-- Node40&#45;&gt;Node42 -->
<g id="edge40" class="edge">
<title>Node40&#45;&gt;Node42</title>
<path fill="none" stroke="midnightblue" d="M223.5,-291.32C232.37,-283.34 245.74,-271.31 256.47,-261.65"/>
<polygon fill="midnightblue" stroke="midnightblue" points="258.96,-264.13 264.05,-254.83 254.27,-258.92 258.96,-264.13"/>
</g>
<!-- Node43 -->
<g id="node36" class="node">
<title>Node43</title>
<g id="a_node36"><a xlink:title=" ">
<polygon fill="none" stroke="#bfbfbf" points="12.86,-235.5 12.86,-254.5 76.86,-254.5 76.86,-235.5 12.86,-235.5"/>
<text text-anchor="middle" x="44.86" y="-242.5" font-family="Helvetica,sans-Serif" font-size="10.00">G4Run.hh</text>
</a>
</g>
</g>
<!-- Node40&#45;&gt;Node43 -->
<g id="edge41" class="edge">
<title>Node40&#45;&gt;Node43</title>
<path fill="none" stroke="midnightblue" d="M187.09,-291.44C158.53,-282.32 113.13,-267.81 81.33,-257.65"/>
<polygon fill="midnightblue" stroke="midnightblue" points="82.11,-254.23 71.52,-254.52 79.98,-260.89 82.11,-254.23"/>
</g>
<!-- Node46 -->
<g id="node39" class="node">
<title>Node46</title>
<g id="a_node39"><a xlink:title=" ">
<polygon fill="none" stroke="#bfbfbf" points="1306.36,-291.5 1306.36,-310.5 1445.36,-310.5 1445.36,-291.5 1306.36,-291.5"/>
<text text-anchor="middle" x="1375.86" y="-298.5" font-family="Helvetica,sans-Serif" font-size="10.00">G4UserTrackingAction.hh</text>
</a>
</g>
</g>
<!-- Node45&#45;&gt;Node46 -->
<g id="edge44" class="edge">
<title>Node45&#45;&gt;Node46</title>
<path fill="none" stroke="midnightblue" d="M1376.7,-347.08C1376.57,-340.01 1376.38,-329.86 1376.22,-320.99"/>
<polygon fill="midnightblue" stroke="midnightblue" points="1379.71,-320.68 1376.03,-310.75 1372.71,-320.81 1379.71,-320.68"/>
</g>
<!-- Node48 -->
<g id="node41" class="node">
<title>Node48</title>
<g id="a_node41"><a xlink:title=" ">
<polygon fill="none" stroke="#bfbfbf" points="1463.36,-291.5 1463.36,-310.5 1604.36,-310.5 1604.36,-291.5 1463.36,-291.5"/>
<text text-anchor="middle" x="1533.86" y="-298.5" font-family="Helvetica,sans-Serif" font-size="10.00">G4UserSteppingAction.hh</text>
</a>
</g>
</g>
<!-- Node47&#45;&gt;Node48 -->
<g id="edge46" class="edge">
<title>Node47&#45;&gt;Node48</title>
<path fill="none" stroke="midnightblue" d="M1533.86,-347.08C1533.86,-340.01 1533.86,-329.86 1533.86,-320.99"/>
<polygon fill="midnightblue" stroke="midnightblue" points="1537.36,-320.75 1533.86,-310.75 1530.36,-320.75 1537.36,-320.75"/>
</g>
<!-- Node50 -->
<g id="node43" class="node">
<title>Node50</title>
<g id="a_node43"><a xlink:href="_o_m_sim_command_args_table_8hh.html" target="_top" xlink:title="Definition of the OMSimCommandArgsTable singleton class, which controls user args.">
<polygon fill="none" stroke="black" points="450.86,-235.5 450.86,-254.5 614.86,-254.5 614.86,-235.5 450.86,-235.5"/>
<text text-anchor="middle" x="532.86" y="-242.5" font-family="Helvetica,sans-Serif" font-size="10.00">OMSimCommandArgsTable.hh</text>
</a>
</g>
</g>
<!-- Node49&#45;&gt;Node50 -->
<g id="edge48" class="edge">
<title>Node49&#45;&gt;Node50</title>
<path fill="none" stroke="midnightblue" d="M532.86,-291.08C532.86,-284.01 532.86,-273.86 532.86,-264.99"/>
<polygon fill="midnightblue" stroke="midnightblue" points="536.36,-264.75 532.86,-254.75 529.36,-264.75 536.36,-264.75"/>
</g>
<!-- Node53 -->
<g id="node46" class="node">
<title>Node53</title>
<g id="a_node46"><a xlink:title=" ">
<polygon fill="none" stroke="#bfbfbf" points="334.86,-235.5 334.86,-254.5 432.86,-254.5 432.86,-235.5 334.86,-235.5"/>
<text text-anchor="middle" x="383.86" y="-242.5" font-family="Helvetica,sans-Serif" font-size="10.00">G4UImanager.hh</text>
</a>
</g>
</g>
<!-- Node49&#45;&gt;Node53 -->
<g id="edge54" class="edge">
<title>Node49&#45;&gt;Node53</title>
<path fill="none" stroke="midnightblue" d="M509.25,-291.44C484.41,-282.44 445.09,-268.19 417.11,-258.05"/>
<polygon fill="midnightblue" stroke="midnightblue" points="417.96,-254.63 407.36,-254.52 415.57,-261.21 417.96,-254.63"/>
</g>
<!-- Node50&#45;&gt;Node6 -->
<g id="edge49" class="edge">
<title>Node50&#45;&gt;Node6</title>
<path fill="none" stroke="midnightblue" d="M456.5,-235.49C383.6,-226.65 282.96,-212.27 269.86,-199 243.08,-171.84 244.5,-123.34 247.75,-96.73"/>
<polygon fill="midnightblue" stroke="midnightblue" points="251.22,-97.19 249.18,-86.8 244.29,-96.2 251.22,-97.19"/>
</g>
<!-- Node50&#45;&gt;Node28 -->
<g id="edge53" class="edge">
<title>Node50&#45;&gt;Node28</title>
<path fill="none" stroke="midnightblue" d="M521.56,-235.34C506.4,-222.64 482.81,-198.38 495.86,-179 513.94,-152.17 551.03,-141.33 577.36,-136.96"/>
<polygon fill="midnightblue" stroke="midnightblue" points="578.15,-140.38 587.55,-135.49 577.15,-133.45 578.15,-140.38"/>
</g>
<!-- Node50&#45;&gt;Node32 -->
<g id="edge50" class="edge">
<title>Node50&#45;&gt;Node32</title>
<path fill="none" stroke="midnightblue" d="M532.86,-235.08C532.86,-228.01 532.86,-217.86 532.86,-208.99"/>
<polygon fill="midnightblue" stroke="midnightblue" points="536.36,-208.75 532.86,-198.75 529.36,-208.75 536.36,-208.75"/>
</g>
<!-- Node51 -->
<g id="node44" class="node">
<title>Node51</title>
<g id="a_node44"><a xlink:title=" ">
<polygon fill="none" stroke="#bfbfbf" points="278.86,-179.5 278.86,-198.5 362.86,-198.5 362.86,-179.5 278.86,-179.5"/>
<text text-anchor="middle" x="320.86" y="-186.5" font-family="Helvetica,sans-Serif" font-size="10.00">boost/any.hpp</text>
</a>
</g>
</g>
<!-- Node50&#45;&gt;Node51 -->
<g id="edge51" class="edge">
<title>Node50&#45;&gt;Node51</title>
<path fill="none" stroke="midnightblue" d="M499.27,-235.44C462.68,-226.12 404.03,-211.18 364.04,-201"/>
<polygon fill="midnightblue" stroke="midnightblue" points="364.85,-197.59 354.3,-198.52 363.13,-204.38 364.85,-197.59"/>
</g>
<!-- Node52 -->
<g id="node45" class="node">
<title>Node52</title>
<g id="a_node45"><a xlink:title=" ">
<polygon fill="none" stroke="#bfbfbf" points="380.86,-179.5 380.86,-198.5 448.86,-198.5 448.86,-179.5 380.86,-179.5"/>
<text text-anchor="middle" x="414.86" y="-186.5" font-family="Helvetica,sans-Serif" font-size="10.00">sys/time.h</text>
</a>
</g>
</g>
<!-- Node50&#45;&gt;Node52 -->
<g id="edge52" class="edge">
<title>Node50&#45;&gt;Node52</title>
<path fill="none" stroke="midnightblue" d="M514.17,-235.44C494.92,-226.64 464.71,-212.81 442.66,-202.72"/>
<polygon fill="midnightblue" stroke="midnightblue" points="444.02,-199.5 433.47,-198.52 441.11,-205.86 444.02,-199.5"/>
</g>
</g>
</svg>
