<?xml version="1.0" encoding="UTF-8" standalone="no"?>
<!DOCTYPE svg PUBLIC "-//W3C//DTD SVG 1.1//EN"
 "http://www.w3.org/Graphics/SVG/1.1/DTD/svg11.dtd">
<!-- Generated by graphviz version 2.43.0 (0)
 -->
<!-- Title: OMSimOpBoundaryProcess.cc Pages: 1 -->
<svg width="2056pt" height="140pt"
 viewBox="0.00 0.00 2056.00 140.00" xmlns="http://www.w3.org/2000/svg" xmlns:xlink="http://www.w3.org/1999/xlink">
<g id="graph0" class="graph" transform="scale(1 1) rotate(0) translate(4 136)">
<title>OMSimOpBoundaryProcess.cc</title>
<polygon fill="white" stroke="transparent" points="-4,4 -4,-136 2052,-136 2052,4 -4,4"/>
<!-- Node1 -->
<g id="node1" class="node">
<title>Node1</title>
<g id="a_node1"><a xlink:title=" ">
<polygon fill="#bfbfbf" stroke="black" points="1054,-112.5 1054,-131.5 1217,-131.5 1217,-112.5 1054,-112.5"/>
<text text-anchor="middle" x="1135.5" y="-119.5" font-family="Helvetica,sans-Serif" font-size="10.00">OMSimOpBoundaryProcess.cc</text>
</a>
</g>
</g>
<!-- Node2 -->
<g id="node2" class="node">
<title>Node2</title>
<g id="a_node2"><a xlink:href="_o_m_sim_op_boundary_process_8hh.html" target="_top" xlink:title=" ">
<polygon fill="white" stroke="black" points="172.5,-56.5 172.5,-75.5 336.5,-75.5 336.5,-56.5 172.5,-56.5"/>
<text text-anchor="middle" x="254.5" y="-63.5" font-family="Helvetica,sans-Serif" font-size="10.00">OMSimOpBoundaryProcess.hh</text>
</a>
</g>
</g>
<!-- Node1&#45;&gt;Node2 -->
<g id="edge1" class="edge">
<title>Node1&#45;&gt;Node2</title>
<path fill="none" stroke="midnightblue" d="M1053.93,-117.44C912.48,-111.02 612.27,-96.35 346.96,-76"/>
<polygon fill="midnightblue" stroke="midnightblue" points="346.98,-72.49 336.74,-75.21 346.45,-79.47 346.98,-72.49"/>
</g>
<!-- Node7 -->
<g id="node7" class="node">
<title>Node7</title>
<g id="a_node7"><a xlink:title=" ">
<polygon fill="white" stroke="#bfbfbf" points="355,-56.5 355,-75.5 414,-75.5 414,-56.5 355,-56.5"/>
<text text-anchor="middle" x="384.5" y="-63.5" font-family="Helvetica,sans-Serif" font-size="10.00">G4ios.hh</text>
</a>
</g>
</g>
<!-- Node1&#45;&gt;Node7 -->
<g id="edge6" class="edge">
<title>Node1&#45;&gt;Node7</title>
<path fill="none" stroke="midnightblue" d="M1053.9,-120.17C922.98,-117.89 657.88,-109.35 424.26,-75.84"/>
<polygon fill="midnightblue" stroke="midnightblue" points="424.61,-72.36 414.22,-74.39 423.61,-79.29 424.61,-72.36"/>
</g>
<!-- Node8 -->
<g id="node8" class="node">
<title>Node8</title>
<g id="a_node8"><a xlink:title=" ">
<polygon fill="white" stroke="#bfbfbf" points="432.5,-56.5 432.5,-75.5 572.5,-75.5 572.5,-56.5 432.5,-56.5"/>
<text text-anchor="middle" x="502.5" y="-63.5" font-family="Helvetica,sans-Serif" font-size="10.00">G4GeometryTolerance.hh</text>
</a>
</g>
</g>
<!-- Node1&#45;&gt;Node8 -->
<g id="edge7" class="edge">
<title>Node1&#45;&gt;Node8</title>
<path fill="none" stroke="midnightblue" d="M1053.91,-115.15C948.02,-107.38 757.24,-92.78 582.86,-76"/>
<polygon fill="midnightblue" stroke="midnightblue" points="583.02,-72.5 572.73,-75.02 582.34,-79.47 583.02,-72.5"/>
</g>
<!-- Node9 -->
<g id="node9" class="node">
<title>Node9</title>
<g id="a_node9"><a xlink:title=" ">
<polygon fill="white" stroke="#bfbfbf" points="591,-56.5 591,-75.5 740,-75.5 740,-56.5 591,-56.5"/>
<text text-anchor="middle" x="665.5" y="-63.5" font-family="Helvetica,sans-Serif" font-size="10.00">G4LogicalBorderSurface.hh</text>
</a>
</g>
</g>
<!-- Node1&#45;&gt;Node9 -->
<g id="edge8" class="edge">
<title>Node1&#45;&gt;Node9</title>
<path fill="none" stroke="midnightblue" d="M1061.29,-112.47C976.6,-102.74 838.39,-86.86 749.74,-76.68"/>
<polygon fill="midnightblue" stroke="midnightblue" points="750.05,-73.19 739.71,-75.53 749.25,-80.15 750.05,-73.19"/>
</g>
<!-- Node10 -->
<g id="node10" class="node">
<title>Node10</title>
<g id="a_node10"><a xlink:title=" ">
<polygon fill="white" stroke="#bfbfbf" points="758,-56.5 758,-75.5 895,-75.5 895,-56.5 758,-56.5"/>
<text text-anchor="middle" x="826.5" y="-63.5" font-family="Helvetica,sans-Serif" font-size="10.00">G4LogicalSkinSurface.hh</text>
</a>
</g>
</g>
<!-- Node1&#45;&gt;Node10 -->
<g id="edge9" class="edge">
<title>Node1&#45;&gt;Node10</title>
<path fill="none" stroke="midnightblue" d="M1086.54,-112.44C1031.96,-102.9 943.71,-87.48 885.4,-77.29"/>
<polygon fill="midnightblue" stroke="midnightblue" points="885.69,-73.79 875.23,-75.52 884.48,-80.69 885.69,-73.79"/>
</g>
<!-- Node11 -->
<g id="node11" class="node">
<title>Node11</title>
<g id="a_node11"><a xlink:title=" ">
<polygon fill="white" stroke="#bfbfbf" points="913,-56.5 913,-75.5 1050,-75.5 1050,-56.5 913,-56.5"/>
<text text-anchor="middle" x="981.5" y="-63.5" font-family="Helvetica,sans-Serif" font-size="10.00">G4OpProcessSubType.hh</text>
</a>
</g>
</g>
<!-- Node1&#45;&gt;Node11 -->
<g id="edge10" class="edge">
<title>Node1&#45;&gt;Node11</title>
<path fill="none" stroke="midnightblue" d="M1111.1,-112.44C1085.3,-103.4 1044.42,-89.06 1015.48,-78.92"/>
<polygon fill="midnightblue" stroke="midnightblue" points="1016.38,-75.52 1005.79,-75.52 1014.07,-82.13 1016.38,-75.52"/>
</g>
<!-- Node12 -->
<g id="node12" class="node">
<title>Node12</title>
<g id="a_node12"><a xlink:title=" ">
<polygon fill="white" stroke="#bfbfbf" points="1068,-56.5 1068,-75.5 1203,-75.5 1203,-56.5 1068,-56.5"/>
<text text-anchor="middle" x="1135.5" y="-63.5" font-family="Helvetica,sans-Serif" font-size="10.00">G4OpticalParameters.hh</text>
</a>
</g>
</g>
<!-- Node1&#45;&gt;Node12 -->
<g id="edge11" class="edge">
<title>Node1&#45;&gt;Node12</title>
<path fill="none" stroke="midnightblue" d="M1135.5,-112.08C1135.5,-105.01 1135.5,-94.86 1135.5,-85.99"/>
<polygon fill="midnightblue" stroke="midnightblue" points="1139,-85.75 1135.5,-75.75 1132,-85.75 1139,-85.75"/>
</g>
<!-- Node13 -->
<g id="node13" class="node">
<title>Node13</title>
<g id="a_node13"><a xlink:title=" ">
<polygon fill="white" stroke="#bfbfbf" points="1221.5,-56.5 1221.5,-75.5 1367.5,-75.5 1367.5,-56.5 1221.5,-56.5"/>
<text text-anchor="middle" x="1294.5" y="-63.5" font-family="Helvetica,sans-Serif" font-size="10.00">G4ParallelWorldProcess.hh</text>
</a>
</g>
</g>
<!-- Node1&#45;&gt;Node13 -->
<g id="edge12" class="edge">
<title>Node1&#45;&gt;Node13</title>
<path fill="none" stroke="midnightblue" d="M1160.69,-112.44C1187.44,-103.36 1229.9,-88.94 1259.81,-78.78"/>
<polygon fill="midnightblue" stroke="midnightblue" points="1261.08,-82.05 1269.42,-75.52 1258.83,-75.42 1261.08,-82.05"/>
</g>
<!-- Node14 -->
<g id="node14" class="node">
<title>Node14</title>
<g id="a_node14"><a xlink:title=" ">
<polygon fill="white" stroke="#bfbfbf" points="1385.5,-56.5 1385.5,-75.5 1519.5,-75.5 1519.5,-56.5 1385.5,-56.5"/>
<text text-anchor="middle" x="1452.5" y="-63.5" font-family="Helvetica,sans-Serif" font-size="10.00">G4PhysicalConstants.hh</text>
</a>
</g>
</g>
<!-- Node1&#45;&gt;Node14 -->
<g id="edge13" class="edge">
<title>Node1&#45;&gt;Node14</title>
<path fill="none" stroke="midnightblue" d="M1185.73,-112.44C1241.84,-102.89 1332.63,-87.42 1392.45,-77.23"/>
<polygon fill="midnightblue" stroke="midnightblue" points="1393.24,-80.65 1402.51,-75.52 1392.06,-73.75 1393.24,-80.65"/>
</g>
<!-- Node15 -->
<g id="node15" class="node">
<title>Node15</title>
<g id="a_node15"><a xlink:title=" ">
<polygon fill="white" stroke="#bfbfbf" points="1538,-56.5 1538,-75.5 1657,-75.5 1657,-56.5 1538,-56.5"/>
<text text-anchor="middle" x="1597.5" y="-63.5" font-family="Helvetica,sans-Serif" font-size="10.00">G4SystemOfUnits.hh</text>
</a>
</g>
</g>
<!-- Node1&#45;&gt;Node15 -->
<g id="edge14" class="edge">
<title>Node1&#45;&gt;Node15</title>
<path fill="none" stroke="midnightblue" d="M1213.09,-112.48C1290.15,-103.93 1411.96,-90.2 1527.58,-76.1"/>
<polygon fill="midnightblue" stroke="midnightblue" points="1528.17,-79.55 1537.67,-74.86 1527.32,-72.6 1528.17,-79.55"/>
</g>
<!-- Node16 -->
<g id="node16" class="node">
<title>Node16</title>
<g id="a_node16"><a xlink:title=" ">
<polygon fill="white" stroke="#bfbfbf" points="1675,-56.5 1675,-75.5 1832,-75.5 1832,-56.5 1675,-56.5"/>
<text text-anchor="middle" x="1753.5" y="-63.5" font-family="Helvetica,sans-Serif" font-size="10.00">G4TransportationManager.hh</text>
</a>
</g>
</g>
<!-- Node1&#45;&gt;Node16 -->
<g id="edge15" class="edge">
<title>Node1&#45;&gt;Node16</title>
<path fill="none" stroke="midnightblue" d="M1217.41,-114.53C1319.61,-106.36 1500.02,-91.57 1664.48,-76.18"/>
<polygon fill="midnightblue" stroke="midnightblue" points="1665.16,-79.63 1674.79,-75.21 1664.5,-72.66 1665.16,-79.63"/>
</g>
<!-- Node17 -->
<g id="node17" class="node">
<title>Node17</title>
<g id="a_node17"><a xlink:title=" ">
<polygon fill="white" stroke="#bfbfbf" points="1850.5,-56.5 1850.5,-75.5 1988.5,-75.5 1988.5,-56.5 1850.5,-56.5"/>
<text text-anchor="middle" x="1919.5" y="-63.5" font-family="Helvetica,sans-Serif" font-size="10.00">G4VSensitiveDetector.hh</text>
</a>
</g>
</g>
<!-- Node1&#45;&gt;Node17 -->
<g id="edge16" class="edge">
<title>Node1&#45;&gt;Node17</title>
<path fill="none" stroke="midnightblue" d="M1217.14,-117.16C1346.86,-110.75 1608.27,-96.61 1840.22,-76.07"/>
<polygon fill="midnightblue" stroke="midnightblue" points="1840.55,-79.56 1850.2,-75.18 1839.93,-72.58 1840.55,-79.56"/>
</g>
<!-- Node18 -->
<g id="node18" class="node">
<title>Node18</title>
<g id="a_node18"><a xlink:title=" ">
<polygon fill="white" stroke="#bfbfbf" points="2007,-56.5 2007,-75.5 2048,-75.5 2048,-56.5 2007,-56.5"/>
<text text-anchor="middle" x="2027.5" y="-63.5" font-family="Helvetica,sans-Serif" font-size="10.00">tuple</text>
</a>
</g>
</g>
<!-- Node1&#45;&gt;Node18 -->
<g id="edge17" class="edge">
<title>Node1&#45;&gt;Node18</title>
<path fill="none" stroke="midnightblue" d="M1217.22,-119.23C1398.55,-114.9 1830.9,-102.28 1996.93,-75.55"/>
<polygon fill="midnightblue" stroke="midnightblue" points="1997.72,-78.97 2007,-73.86 1996.56,-72.07 1997.72,-78.97"/>
</g>
<!-- Node3 -->
<g id="node3" class="node">
<title>Node3</title>
<g id="a_node3"><a xlink:title=" ">
<polygon fill="white" stroke="#bfbfbf" points="0,-0.5 0,-19.5 113,-19.5 113,-0.5 0,-0.5"/>
<text text-anchor="middle" x="56.5" y="-7.5" font-family="Helvetica,sans-Serif" font-size="10.00">G4OpticalPhoton.hh</text>
</a>
</g>
</g>
<!-- Node2&#45;&gt;Node3 -->
<g id="edge2" class="edge">
<title>Node2&#45;&gt;Node3</title>
<path fill="none" stroke="midnightblue" d="M223.13,-56.44C189.24,-47.2 135.1,-32.44 97.78,-22.26"/>
<polygon fill="midnightblue" stroke="midnightblue" points="98.3,-18.77 87.73,-19.52 96.45,-25.52 98.3,-18.77"/>
</g>
<!-- Node4 -->
<g id="node4" class="node">
<title>Node4</title>
<g id="a_node4"><a xlink:title=" ">
<polygon fill="white" stroke="#bfbfbf" points="131.5,-0.5 131.5,-19.5 247.5,-19.5 247.5,-0.5 131.5,-0.5"/>
<text text-anchor="middle" x="189.5" y="-7.5" font-family="Helvetica,sans-Serif" font-size="10.00">G4OpticalSurface.hh</text>
</a>
</g>
</g>
<!-- Node2&#45;&gt;Node4 -->
<g id="edge3" class="edge">
<title>Node2&#45;&gt;Node4</title>
<path fill="none" stroke="midnightblue" d="M244.06,-56.32C234.35,-48.26 219.68,-36.08 208,-26.37"/>
<polygon fill="midnightblue" stroke="midnightblue" points="210.06,-23.53 200.13,-19.83 205.59,-28.92 210.06,-23.53"/>
</g>
<!-- Node5 -->
<g id="node5" class="node">
<title>Node5</title>
<g id="a_node5"><a xlink:title=" ">
<polygon fill="white" stroke="#bfbfbf" points="265.5,-0.5 265.5,-19.5 375.5,-19.5 375.5,-0.5 265.5,-0.5"/>
<text text-anchor="middle" x="320.5" y="-7.5" font-family="Helvetica,sans-Serif" font-size="10.00">G4RandomTools.hh</text>
</a>
</g>
</g>
<!-- Node2&#45;&gt;Node5 -->
<g id="edge4" class="edge">
<title>Node2&#45;&gt;Node5</title>
<path fill="none" stroke="midnightblue" d="M265.1,-56.32C274.96,-48.26 289.85,-36.08 301.72,-26.37"/>
<polygon fill="midnightblue" stroke="midnightblue" points="304.18,-28.88 309.7,-19.83 299.75,-23.46 304.18,-28.88"/>
</g>
<!-- Node6 -->
<g id="node6" class="node">
<title>Node6</title>
<g id="a_node6"><a xlink:title=" ">
<polygon fill="white" stroke="#bfbfbf" points="393.5,-0.5 393.5,-19.5 523.5,-19.5 523.5,-0.5 393.5,-0.5"/>
<text text-anchor="middle" x="458.5" y="-7.5" font-family="Helvetica,sans-Serif" font-size="10.00">G4VDiscreteProcess.hh</text>
</a>
</g>
</g>
<!-- Node2&#45;&gt;Node6 -->
<g id="edge5" class="edge">
<title>Node2&#45;&gt;Node6</title>
<path fill="none" stroke="midnightblue" d="M286.82,-56.44C321.89,-47.16 378,-32.31 416.46,-22.13"/>
<polygon fill="midnightblue" stroke="midnightblue" points="417.56,-25.46 426.33,-19.52 415.76,-18.69 417.56,-25.46"/>
</g>
</g>
</svg>
