<?xml version="1.0" encoding="UTF-8" standalone="no"?>
<!DOCTYPE svg PUBLIC "-//W3C//DTD SVG 1.1//EN"
 "http://www.w3.org/Graphics/SVG/1.1/DTD/svg11.dtd">
<!-- Generated by graphviz version 2.43.0 (0)
 -->
<!-- Title: OMSimMDOM.hh Pages: 1 -->
<svg width="1028pt" height="319pt"
 viewBox="0.00 0.00 1027.50 319.00" xmlns="http://www.w3.org/2000/svg" xmlns:xlink="http://www.w3.org/1999/xlink">
<g id="graph0" class="graph" transform="scale(1 1) rotate(0) translate(4 315)">
<title>OMSimMDOM.hh</title>
<polygon fill="white" stroke="transparent" points="-4,4 -4,-315 1023.5,-315 1023.5,4 -4,4"/>
<!-- Node1 -->
<g id="node1" class="node">
<title>Node1</title>
<g id="a_node1"><a xlink:title="Construction of mDOM.">
<polygon fill="#bfbfbf" stroke="black" points="494.5,-291.5 494.5,-310.5 594.5,-310.5 594.5,-291.5 494.5,-291.5"/>
<text text-anchor="middle" x="544.5" y="-298.5" font-family="Helvetica,sans-Serif" font-size="10.00">OMSimMDOM.hh</text>
</a>
</g>
</g>
<!-- Node2 -->
<g id="node2" class="node">
<title>Node2</title>
<g id="a_node2"><a xlink:href="_o_m_sim_m_d_o_m_flasher_8hh.html" target="_top" xlink:title="Defines the mDOMFlasher class for simulating the 10 flashers in an mDOM optical module.">
<polygon fill="white" stroke="black" points="618,-179.5 618,-198.5 753,-198.5 753,-179.5 618,-179.5"/>
<text text-anchor="middle" x="685.5" y="-186.5" font-family="Helvetica,sans-Serif" font-size="10.00">OMSimMDOMFlasher.hh</text>
</a>
</g>
</g>
<!-- Node1&#45;&gt;Node2 -->
<g id="edge1" class="edge">
<title>Node1&#45;&gt;Node2</title>
<path fill="none" stroke="midnightblue" d="M562.42,-291.47C578.83,-283.25 603.39,-269.9 622.5,-255 641.18,-240.44 659.7,-220.49 671.78,-206.55"/>
<polygon fill="midnightblue" stroke="midnightblue" points="674.6,-208.63 678.41,-198.75 669.26,-204.1 674.6,-208.63"/>
</g>
<!-- Node14 -->
<g id="node14" class="node">
<title>Node14</title>
<g id="a_node14"><a xlink:href="_o_m_sim_p_m_t_construction_8hh.html" target="_top" xlink:title="Construction of the PMTs.">
<polygon fill="white" stroke="black" points="373,-179.5 373,-198.5 522,-198.5 522,-179.5 373,-179.5"/>
<text text-anchor="middle" x="447.5" y="-186.5" font-family="Helvetica,sans-Serif" font-size="10.00">OMSimPMTConstruction.hh</text>
</a>
</g>
</g>
<!-- Node1&#45;&gt;Node14 -->
<g id="edge13" class="edge">
<title>Node1&#45;&gt;Node14</title>
<path fill="none" stroke="midnightblue" d="M520.42,-291.43C503.35,-284.19 481.16,-272.23 467.5,-255 456.97,-241.71 451.96,-222.88 449.59,-208.9"/>
<polygon fill="midnightblue" stroke="midnightblue" points="453.05,-208.35 448.2,-198.93 446.11,-209.32 453.05,-208.35"/>
</g>
<!-- Node21 -->
<g id="node21" class="node">
<title>Node21</title>
<g id="a_node21"><a xlink:href="_o_m_sim_optical_module_8hh.html" target="_top" xlink:title=" ">
<polygon fill="white" stroke="black" points="476,-235.5 476,-254.5 613,-254.5 613,-235.5 476,-235.5"/>
<text text-anchor="middle" x="544.5" y="-242.5" font-family="Helvetica,sans-Serif" font-size="10.00">OMSimOpticalModule.hh</text>
</a>
</g>
</g>
<!-- Node1&#45;&gt;Node21 -->
<g id="edge24" class="edge">
<title>Node1&#45;&gt;Node21</title>
<path fill="none" stroke="midnightblue" d="M544.5,-291.08C544.5,-284.01 544.5,-273.86 544.5,-264.99"/>
<polygon fill="midnightblue" stroke="midnightblue" points="548,-264.75 544.5,-254.75 541,-264.75 548,-264.75"/>
</g>
<!-- Node3 -->
<g id="node3" class="node">
<title>Node3</title>
<g id="a_node3"><a xlink:href="abc_detector_component_8hh.html" target="_top" xlink:title="Provides helper base class abcDetectorComponent for constructing and managing detector components in ...">
<polygon fill="white" stroke="black" points="494,-123.5 494,-142.5 641,-142.5 641,-123.5 494,-123.5"/>
<text text-anchor="middle" x="567.5" y="-130.5" font-family="Helvetica,sans-Serif" font-size="10.00">abcDetectorComponent.hh</text>
</a>
</g>
</g>
<!-- Node2&#45;&gt;Node3 -->
<g id="edge2" class="edge">
<title>Node2&#45;&gt;Node3</title>
<path fill="none" stroke="midnightblue" d="M666.8,-179.44C647.56,-170.64 617.35,-156.81 595.3,-146.72"/>
<polygon fill="midnightblue" stroke="midnightblue" points="596.66,-143.5 586.11,-142.52 593.75,-149.86 596.66,-143.5"/>
</g>
<!-- Node12 -->
<g id="node12" class="node">
<title>Node12</title>
<g id="a_node12"><a xlink:title=" ">
<polygon fill="white" stroke="#bfbfbf" points="659.5,-123.5 659.5,-142.5 757.5,-142.5 757.5,-123.5 659.5,-123.5"/>
<text text-anchor="middle" x="708.5" y="-130.5" font-family="Helvetica,sans-Serif" font-size="10.00">G4UnionSolid.hh</text>
</a>
</g>
</g>
<!-- Node2&#45;&gt;Node12 -->
<g id="edge11" class="edge">
<title>Node2&#45;&gt;Node12</title>
<path fill="none" stroke="midnightblue" d="M689.3,-179.08C692.41,-171.77 696.92,-161.18 700.79,-152.1"/>
<polygon fill="midnightblue" stroke="midnightblue" points="704.07,-153.32 704.77,-142.75 697.63,-150.58 704.07,-153.32"/>
</g>
<!-- Node13 -->
<g id="node13" class="node">
<title>Node13</title>
<g id="a_node13"><a xlink:title=" ">
<polygon fill="white" stroke="#bfbfbf" points="775.5,-123.5 775.5,-142.5 867.5,-142.5 867.5,-123.5 775.5,-123.5"/>
<text text-anchor="middle" x="821.5" y="-130.5" font-family="Helvetica,sans-Serif" font-size="10.00">G4Navigator.hh</text>
</a>
</g>
</g>
<!-- Node2&#45;&gt;Node13 -->
<g id="edge12" class="edge">
<title>Node2&#45;&gt;Node13</title>
<path fill="none" stroke="midnightblue" d="M707.05,-179.44C729.53,-170.52 764.99,-156.44 790.48,-146.32"/>
<polygon fill="midnightblue" stroke="midnightblue" points="792.05,-149.46 800.05,-142.52 789.47,-142.95 792.05,-149.46"/>
</g>
<!-- Node4 -->
<g id="node4" class="node">
<title>Node4</title>
<g id="a_node4"><a xlink:href="_o_m_sim_input_data_8hh.html" target="_top" xlink:title="Definition of ParameterTable and InputDataManager.">
<polygon fill="white" stroke="black" points="381,-67.5 381,-86.5 496,-86.5 496,-67.5 381,-67.5"/>
<text text-anchor="middle" x="438.5" y="-74.5" font-family="Helvetica,sans-Serif" font-size="10.00">OMSimInputData.hh</text>
</a>
</g>
</g>
<!-- Node3&#45;&gt;Node4 -->
<g id="edge3" class="edge">
<title>Node3&#45;&gt;Node4</title>
<path fill="none" stroke="midnightblue" d="M547.06,-123.44C525.83,-114.56 492.4,-100.56 468.25,-90.45"/>
<polygon fill="midnightblue" stroke="midnightblue" points="469.42,-87.15 458.84,-86.52 466.72,-93.61 469.42,-87.15"/>
</g>
<!-- Node8 -->
<g id="node8" class="node">
<title>Node8</title>
<g id="a_node8"><a xlink:title=" ">
<polygon fill="white" stroke="#bfbfbf" points="514,-67.5 514,-86.5 621,-86.5 621,-67.5 514,-67.5"/>
<text text-anchor="middle" x="567.5" y="-74.5" font-family="Helvetica,sans-Serif" font-size="10.00">G4Transform3D.hh</text>
</a>
</g>
</g>
<!-- Node3&#45;&gt;Node8 -->
<g id="edge7" class="edge">
<title>Node3&#45;&gt;Node8</title>
<path fill="none" stroke="midnightblue" d="M567.5,-123.08C567.5,-116.01 567.5,-105.86 567.5,-96.99"/>
<polygon fill="midnightblue" stroke="midnightblue" points="571,-96.75 567.5,-86.75 564,-96.75 571,-96.75"/>
</g>
<!-- Node9 -->
<g id="node9" class="node">
<title>Node9</title>
<g id="a_node9"><a xlink:title=" ">
<polygon fill="white" stroke="#bfbfbf" points="639.5,-67.5 639.5,-86.5 747.5,-86.5 747.5,-67.5 639.5,-67.5"/>
<text text-anchor="middle" x="693.5" y="-74.5" font-family="Helvetica,sans-Serif" font-size="10.00">G4VisAttributes.hh</text>
</a>
</g>
</g>
<!-- Node3&#45;&gt;Node9 -->
<g id="edge8" class="edge">
<title>Node3&#45;&gt;Node9</title>
<path fill="none" stroke="midnightblue" d="M587.47,-123.44C608.11,-114.6 640.56,-100.69 664.13,-90.59"/>
<polygon fill="midnightblue" stroke="midnightblue" points="665.82,-93.67 673.63,-86.52 663.06,-87.24 665.82,-93.67"/>
</g>
<!-- Node10 -->
<g id="node10" class="node">
<title>Node10</title>
<g id="a_node10"><a xlink:title=" ">
<polygon fill="white" stroke="#bfbfbf" points="766,-67.5 766,-86.5 891,-86.5 891,-67.5 766,-67.5"/>
<text text-anchor="middle" x="828.5" y="-74.5" font-family="Helvetica,sans-Serif" font-size="10.00">G4SubtractionSolid.hh</text>
</a>
</g>
</g>
<!-- Node3&#45;&gt;Node10 -->
<g id="edge9" class="edge">
<title>Node3&#45;&gt;Node10</title>
<path fill="none" stroke="midnightblue" d="M608.86,-123.44C654.58,-113.98 728.26,-98.74 777.52,-88.55"/>
<polygon fill="midnightblue" stroke="midnightblue" points="778.25,-91.97 787.34,-86.52 776.84,-85.12 778.25,-91.97"/>
</g>
<!-- Node11 -->
<g id="node11" class="node">
<title>Node11</title>
<g id="a_node11"><a xlink:title=" ">
<polygon fill="white" stroke="#bfbfbf" points="909.5,-67.5 909.5,-86.5 1019.5,-86.5 1019.5,-67.5 909.5,-67.5"/>
<text text-anchor="middle" x="964.5" y="-74.5" font-family="Helvetica,sans-Serif" font-size="10.00">G4PVPlacement.hh</text>
</a>
</g>
</g>
<!-- Node3&#45;&gt;Node11 -->
<g id="edge10" class="edge">
<title>Node3&#45;&gt;Node11</title>
<path fill="none" stroke="midnightblue" d="M631.35,-123.48C696.24,-114.79 799.93,-100.84 899.42,-87.14"/>
<polygon fill="midnightblue" stroke="midnightblue" points="899.92,-90.61 909.34,-85.78 898.96,-83.67 899.92,-90.61"/>
</g>
<!-- Node5 -->
<g id="node5" class="node">
<title>Node5</title>
<g id="a_node5"><a xlink:title=" ">
<polygon fill="white" stroke="#bfbfbf" points="440,-6 440,-25 583,-25 583,-6 440,-6"/>
<text text-anchor="middle" x="511.5" y="-13" font-family="Helvetica,sans-Serif" font-size="10.00">G4OpBoundaryProcess.hh</text>
</a>
</g>
</g>
<!-- Node4&#45;&gt;Node5 -->
<g id="edge4" class="edge">
<title>Node4&#45;&gt;Node5</title>
<path fill="none" stroke="midnightblue" d="M448.96,-67.48C460.45,-58.11 479.13,-42.88 493.09,-31.51"/>
<polygon fill="midnightblue" stroke="midnightblue" points="495.52,-34.04 501.06,-25.01 491.1,-28.61 495.52,-34.04"/>
</g>
<!-- Node6 -->
<g id="node6" class="node">
<title>Node6</title>
<g id="a_node6"><a xlink:title=" ">
<polygon fill="white" stroke="#bfbfbf" points="120,-6 120,-25 239,-25 239,-6 120,-6"/>
<text text-anchor="middle" x="179.5" y="-13" font-family="Helvetica,sans-Serif" font-size="10.00">G4SystemOfUnits.hh</text>
</a>
</g>
</g>
<!-- Node4&#45;&gt;Node6 -->
<g id="edge5" class="edge">
<title>Node4&#45;&gt;Node6</title>
<path fill="none" stroke="midnightblue" d="M401.39,-67.48C355.33,-56.89 276.73,-38.84 226.5,-27.3"/>
<polygon fill="midnightblue" stroke="midnightblue" points="227.07,-23.84 216.54,-25.01 225.5,-30.66 227.07,-23.84"/>
</g>
<!-- Node7 -->
<g id="node7" class="node">
<title>Node7</title>
<g id="a_node7"><a xlink:title=" ">
<polygon fill="white" stroke="#bfbfbf" points="309,-0.5 309,-30.5 422,-30.5 422,-0.5 309,-0.5"/>
<text text-anchor="start" x="317" y="-18.5" font-family="Helvetica,sans-Serif" font-size="10.00">boost/property_tree</text>
<text text-anchor="middle" x="365.5" y="-7.5" font-family="Helvetica,sans-Serif" font-size="10.00">/json_parser.hpp</text>
</a>
</g>
</g>
<!-- Node4&#45;&gt;Node7 -->
<g id="edge6" class="edge">
<title>Node4&#45;&gt;Node7</title>
<path fill="none" stroke="midnightblue" d="M428.04,-67.48C418.34,-59.57 403.51,-47.48 390.73,-37.07"/>
<polygon fill="midnightblue" stroke="midnightblue" points="392.67,-34.13 382.7,-30.52 388.24,-39.55 392.67,-34.13"/>
</g>
<!-- Node14&#45;&gt;Node3 -->
<g id="edge14" class="edge">
<title>Node14&#45;&gt;Node3</title>
<path fill="none" stroke="midnightblue" d="M466.51,-179.44C486.09,-170.64 516.81,-156.81 539.23,-146.72"/>
<polygon fill="midnightblue" stroke="midnightblue" points="540.89,-149.81 548.57,-142.52 538.02,-143.43 540.89,-149.81"/>
</g>
<!-- Node14&#45;&gt;Node12 -->
<g id="edge22" class="edge">
<title>Node14&#45;&gt;Node12</title>
<path fill="none" stroke="midnightblue" d="M488.86,-179.44C534.58,-169.98 608.26,-154.74 657.52,-144.55"/>
<polygon fill="midnightblue" stroke="midnightblue" points="658.25,-147.97 667.34,-142.52 656.84,-141.12 658.25,-147.97"/>
</g>
<!-- Node14&#45;&gt;Node14 -->
<g id="edge15" class="edge">
<title>Node14&#45;&gt;Node14</title>
<path fill="none" stroke="midnightblue" d="M486.95,-198.53C513.76,-201.31 540,-198.13 540,-189 540,-181.01 519.91,-177.58 496.93,-178.71"/>
<polygon fill="midnightblue" stroke="midnightblue" points="496.65,-175.22 486.95,-179.47 497.19,-182.2 496.65,-175.22"/>
</g>
<!-- Node15 -->
<g id="node15" class="node">
<title>Node15</title>
<g id="a_node15"><a xlink:href="_o_m_sim_p_m_t_response_8hh.html" target="_top" xlink:title="Provides simulation for PMT response. This class is responsible for transforming hits on photocathode...">
<polygon fill="white" stroke="black" points="194,-123.5 194,-142.5 329,-142.5 329,-123.5 194,-123.5"/>
<text text-anchor="middle" x="261.5" y="-130.5" font-family="Helvetica,sans-Serif" font-size="10.00">OMSimPMTResponse.hh</text>
</a>
</g>
</g>
<!-- Node14&#45;&gt;Node15 -->
<g id="edge16" class="edge">
<title>Node14&#45;&gt;Node15</title>
<path fill="none" stroke="midnightblue" d="M418.03,-179.44C386.33,-170.24 335.77,-155.56 300.73,-145.39"/>
<polygon fill="midnightblue" stroke="midnightblue" points="301.41,-141.94 290.83,-142.52 299.46,-148.67 301.41,-141.94"/>
</g>
<!-- Node20 -->
<g id="node20" class="node">
<title>Node20</title>
<g id="a_node20"><a xlink:title=" ">
<polygon fill="white" stroke="#bfbfbf" points="409,-123.5 409,-142.5 476,-142.5 476,-123.5 409,-123.5"/>
<text text-anchor="middle" x="442.5" y="-130.5" font-family="Helvetica,sans-Serif" font-size="10.00">G4Tubs.hh</text>
</a>
</g>
</g>
<!-- Node14&#45;&gt;Node20 -->
<g id="edge23" class="edge">
<title>Node14&#45;&gt;Node20</title>
<path fill="none" stroke="midnightblue" d="M446.67,-179.08C446.02,-172.01 445.08,-161.86 444.26,-152.99"/>
<polygon fill="midnightblue" stroke="midnightblue" points="447.72,-152.39 443.31,-142.75 440.75,-153.03 447.72,-152.39"/>
</g>
<!-- Node15&#45;&gt;Node6 -->
<g id="edge17" class="edge">
<title>Node15&#45;&gt;Node6</title>
<path fill="none" stroke="midnightblue" d="M212.28,-123.45C159.54,-113.8 82.18,-98 73.5,-87 52.14,-59.92 96.21,-39.66 133.88,-27.96"/>
<polygon fill="midnightblue" stroke="midnightblue" points="135.18,-31.23 143.77,-25.04 133.19,-24.52 135.18,-31.23"/>
</g>
<!-- Node16 -->
<g id="node16" class="node">
<title>Node16</title>
<g id="a_node16"><a xlink:title=" ">
<polygon fill="white" stroke="#bfbfbf" points="83,-67.5 83,-86.5 156,-86.5 156,-67.5 83,-67.5"/>
<text text-anchor="middle" x="119.5" y="-74.5" font-family="Helvetica,sans-Serif" font-size="10.00">G4Types.hh</text>
</a>
</g>
</g>
<!-- Node15&#45;&gt;Node16 -->
<g id="edge18" class="edge">
<title>Node15&#45;&gt;Node16</title>
<path fill="none" stroke="midnightblue" d="M239,-123.44C215.42,-114.48 178.18,-100.31 151.54,-90.18"/>
<polygon fill="midnightblue" stroke="midnightblue" points="152.49,-86.8 141.9,-86.52 150,-93.34 152.49,-86.8"/>
</g>
<!-- Node17 -->
<g id="node17" class="node">
<title>Node17</title>
<g id="a_node17"><a xlink:title=" ">
<polygon fill="white" stroke="#bfbfbf" points="174.5,-67.5 174.5,-86.5 212.5,-86.5 212.5,-67.5 174.5,-67.5"/>
<text text-anchor="middle" x="193.5" y="-74.5" font-family="Helvetica,sans-Serif" font-size="10.00">map</text>
</a>
</g>
</g>
<!-- Node15&#45;&gt;Node17 -->
<g id="edge19" class="edge">
<title>Node15&#45;&gt;Node17</title>
<path fill="none" stroke="midnightblue" d="M250.57,-123.32C240.33,-115.18 224.78,-102.84 212.5,-93.09"/>
<polygon fill="midnightblue" stroke="midnightblue" points="214.63,-90.31 204.62,-86.83 210.28,-95.79 214.63,-90.31"/>
</g>
<!-- Node18 -->
<g id="node18" class="node">
<title>Node18</title>
<g id="a_node18"><a xlink:title=" ">
<polygon fill="white" stroke="#bfbfbf" points="231,-67.5 231,-86.5 292,-86.5 292,-67.5 231,-67.5"/>
<text text-anchor="middle" x="261.5" y="-74.5" font-family="Helvetica,sans-Serif" font-size="10.00">TGraph.h</text>
</a>
</g>
</g>
<!-- Node15&#45;&gt;Node18 -->
<g id="edge20" class="edge">
<title>Node15&#45;&gt;Node18</title>
<path fill="none" stroke="midnightblue" d="M261.5,-123.08C261.5,-116.01 261.5,-105.86 261.5,-96.99"/>
<polygon fill="midnightblue" stroke="midnightblue" points="265,-96.75 261.5,-86.75 258,-96.75 265,-96.75"/>
</g>
<!-- Node19 -->
<g id="node19" class="node">
<title>Node19</title>
<g id="a_node19"><a xlink:title=" ">
<polygon fill="white" stroke="#bfbfbf" points="310,-67.5 310,-86.5 363,-86.5 363,-67.5 310,-67.5"/>
<text text-anchor="middle" x="336.5" y="-74.5" font-family="Helvetica,sans-Serif" font-size="10.00">TH2D.h</text>
</a>
</g>
</g>
<!-- Node15&#45;&gt;Node19 -->
<g id="edge21" class="edge">
<title>Node15&#45;&gt;Node19</title>
<path fill="none" stroke="midnightblue" d="M273.55,-123.32C284.96,-115.11 302.33,-102.6 315.93,-92.81"/>
<polygon fill="midnightblue" stroke="midnightblue" points="318.16,-95.52 324.23,-86.83 314.07,-89.84 318.16,-95.52"/>
</g>
<!-- Node21&#45;&gt;Node3 -->
<g id="edge25" class="edge">
<title>Node21&#45;&gt;Node3</title>
<path fill="none" stroke="midnightblue" d="M546.3,-235.37C550.02,-217.62 558.58,-176.67 563.61,-152.6"/>
<polygon fill="midnightblue" stroke="midnightblue" points="567.08,-153.1 565.7,-142.59 560.23,-151.66 567.08,-153.1"/>
</g>
<!-- Node21&#45;&gt;Node14 -->
<g id="edge30" class="edge">
<title>Node21&#45;&gt;Node14</title>
<path fill="none" stroke="midnightblue" d="M528.92,-235.32C513.5,-226.74 489.69,-213.49 471.79,-203.52"/>
<polygon fill="midnightblue" stroke="midnightblue" points="473.49,-200.46 463.05,-198.65 470.08,-206.58 473.49,-200.46"/>
</g>
<!-- Node22 -->
<g id="node22" class="node">
<title>Node22</title>
<g id="a_node22"><a xlink:href="_o_m_sim_hit_manager_8hh.html" target="_top" xlink:title="Defines structures and classes related to optical module photon hit management.">
<polygon fill="white" stroke="black" points="144,-179.5 144,-198.5 267,-198.5 267,-179.5 144,-179.5"/>
<text text-anchor="middle" x="205.5" y="-186.5" font-family="Helvetica,sans-Serif" font-size="10.00">OMSimHitManager.hh</text>
</a>
</g>
</g>
<!-- Node21&#45;&gt;Node22 -->
<g id="edge26" class="edge">
<title>Node21&#45;&gt;Node22</title>
<path fill="none" stroke="midnightblue" d="M490.78,-235.44C430.53,-225.85 332.89,-210.29 268.93,-200.1"/>
<polygon fill="midnightblue" stroke="midnightblue" points="269.39,-196.63 258.96,-198.52 268.29,-203.55 269.39,-196.63"/>
</g>
<!-- Node22&#45;&gt;Node15 -->
<g id="edge27" class="edge">
<title>Node22&#45;&gt;Node15</title>
<path fill="none" stroke="midnightblue" d="M214.5,-179.32C222.69,-171.42 235.01,-159.55 244.97,-149.94"/>
<polygon fill="midnightblue" stroke="midnightblue" points="247.57,-152.29 252.34,-142.83 242.71,-147.26 247.57,-152.29"/>
</g>
<!-- Node23 -->
<g id="node23" class="node">
<title>Node23</title>
<g id="a_node23"><a xlink:title=" ">
<polygon fill="white" stroke="#bfbfbf" points="0,-123.5 0,-142.5 103,-142.5 103,-123.5 0,-123.5"/>
<text text-anchor="middle" x="51.5" y="-130.5" font-family="Helvetica,sans-Serif" font-size="10.00">G4ThreeVector.hh</text>
</a>
</g>
</g>
<!-- Node22&#45;&gt;Node23 -->
<g id="edge28" class="edge">
<title>Node22&#45;&gt;Node23</title>
<path fill="none" stroke="midnightblue" d="M181.1,-179.44C155.3,-170.4 114.42,-156.06 85.48,-145.92"/>
<polygon fill="midnightblue" stroke="midnightblue" points="86.38,-142.52 75.79,-142.52 84.07,-149.13 86.38,-142.52"/>
</g>
<!-- Node24 -->
<g id="node24" class="node">
<title>Node24</title>
<g id="a_node24"><a xlink:title=" ">
<polygon fill="white" stroke="#bfbfbf" points="121,-123.5 121,-142.5 176,-142.5 176,-123.5 121,-123.5"/>
<text text-anchor="middle" x="148.5" y="-130.5" font-family="Helvetica,sans-Serif" font-size="10.00">fstream</text>
</a>
</g>
</g>
<!-- Node22&#45;&gt;Node24 -->
<g id="edge29" class="edge">
<title>Node22&#45;&gt;Node24</title>
<path fill="none" stroke="midnightblue" d="M196.34,-179.32C188,-171.42 175.47,-159.55 165.32,-149.94"/>
<polygon fill="midnightblue" stroke="midnightblue" points="167.49,-147.17 157.82,-142.83 162.68,-152.25 167.49,-147.17"/>
</g>
</g>
</svg>
