<?xml version="1.0" encoding="UTF-8" standalone="no"?>
<!DOCTYPE svg PUBLIC "-//W3C//DTD SVG 1.1//EN"
 "http://www.w3.org/Graphics/SVG/1.1/DTD/svg11.dtd">
<!-- Generated by graphviz version 2.43.0 (0)
 -->
<!-- Title: OMSim.hh Pages: 1 -->
<svg width="2172pt" height="431pt"
 viewBox="0.00 0.00 2171.50 431.00" xmlns="http://www.w3.org/2000/svg" xmlns:xlink="http://www.w3.org/1999/xlink">
<g id="graph0" class="graph" transform="scale(1 1) rotate(0) translate(4 427)">
<title>OMSim.hh</title>
<polygon fill="white" stroke="transparent" points="-4,4 -4,-427 2167.5,-427 2167.5,4 -4,4"/>
<!-- Node1 -->
<g id="node1" class="node">
<title>Node1</title>
<g id="a_node1"><a xlink:title="Main simulation class for the Optical Module (OM) simulation. This file defines the OMSim class,...">
<polygon fill="#bfbfbf" stroke="black" points="1382,-403.5 1382,-422.5 1449,-422.5 1449,-403.5 1382,-403.5"/>
<text text-anchor="middle" x="1415.5" y="-410.5" font-family="Helvetica,sans-Serif" font-size="10.00">OMSim.hh</text>
</a>
</g>
</g>
<!-- Node2 -->
<g id="node2" class="node">
<title>Node2</title>
<g id="a_node2"><a xlink:href="_o_m_sim_detector_construction_8hh.html" target="_top" xlink:title=" ">
<polygon fill="white" stroke="black" points="477.5,-347.5 477.5,-366.5 647.5,-366.5 647.5,-347.5 477.5,-347.5"/>
<text text-anchor="middle" x="562.5" y="-354.5" font-family="Helvetica,sans-Serif" font-size="10.00">OMSimDetectorConstruction.hh</text>
</a>
</g>
</g>
<!-- Node1&#45;&gt;Node2 -->
<g id="edge1" class="edge">
<title>Node1&#45;&gt;Node2</title>
<path fill="none" stroke="midnightblue" d="M1381.8,-410.44C1276.56,-405.47 944.4,-389.09 657.72,-367.07"/>
<polygon fill="midnightblue" stroke="midnightblue" points="657.78,-363.56 647.54,-366.28 657.24,-370.54 657.78,-363.56"/>
</g>
<!-- Node33 -->
<g id="node32" class="node">
<title>Node33</title>
<g id="a_node32"><a xlink:title=" ">
<polygon fill="white" stroke="#bfbfbf" points="666,-347.5 666,-366.5 787,-366.5 787,-347.5 666,-347.5"/>
<text text-anchor="middle" x="726.5" y="-354.5" font-family="Helvetica,sans-Serif" font-size="10.00">OMSimPhysicsList.hh</text>
</a>
</g>
</g>
<!-- Node1&#45;&gt;Node33 -->
<g id="edge35" class="edge">
<title>Node1&#45;&gt;Node33</title>
<path fill="none" stroke="midnightblue" d="M1381.84,-410.24C1289.91,-405.27 1026.7,-390.1 797.27,-367.13"/>
<polygon fill="midnightblue" stroke="midnightblue" points="797.36,-363.62 787.06,-366.1 796.66,-370.58 797.36,-363.62"/>
</g>
<!-- Node34 -->
<g id="node33" class="node">
<title>Node34</title>
<g id="a_node33"><a xlink:title=" ">
<polygon fill="white" stroke="#bfbfbf" points="805,-347.5 805,-366.5 990,-366.5 990,-347.5 805,-347.5"/>
<text text-anchor="middle" x="897.5" y="-354.5" font-family="Helvetica,sans-Serif" font-size="10.00">OMSimPrimaryGeneratorAction.hh</text>
</a>
</g>
</g>
<!-- Node1&#45;&gt;Node34 -->
<g id="edge36" class="edge">
<title>Node1&#45;&gt;Node34</title>
<path fill="none" stroke="midnightblue" d="M1381.91,-408.5C1303.6,-400.33 1106.66,-379.8 989.42,-367.58"/>
<polygon fill="midnightblue" stroke="midnightblue" points="989.68,-364.09 979.37,-366.54 988.96,-371.05 989.68,-364.09"/>
</g>
<!-- Node35 -->
<g id="node34" class="node">
<title>Node35</title>
<g id="a_node34"><a xlink:href="_o_m_sim_run_action_8hh.html" target="_top" xlink:title=" ">
<polygon fill="white" stroke="black" points="981.5,-291.5 981.5,-310.5 1097.5,-310.5 1097.5,-291.5 981.5,-291.5"/>
<text text-anchor="middle" x="1039.5" y="-298.5" font-family="Helvetica,sans-Serif" font-size="10.00">OMSimRunAction.hh</text>
</a>
</g>
</g>
<!-- Node1&#45;&gt;Node35 -->
<g id="edge37" class="edge">
<title>Node1&#45;&gt;Node35</title>
<path fill="none" stroke="midnightblue" d="M1381.98,-410.52C1293.58,-406.27 1059.3,-392.67 1036.5,-367 1025.5,-354.62 1028.08,-335.1 1032.3,-320.68"/>
<polygon fill="midnightblue" stroke="midnightblue" points="1035.74,-321.44 1035.65,-310.84 1029.11,-319.18 1035.74,-321.44"/>
</g>
<!-- Node37 -->
<g id="node36" class="node">
<title>Node37</title>
<g id="a_node36"><a xlink:title=" ">
<polygon fill="white" stroke="#bfbfbf" points="1046,-347.5 1046,-366.5 1171,-366.5 1171,-347.5 1046,-347.5"/>
<text text-anchor="middle" x="1108.5" y="-354.5" font-family="Helvetica,sans-Serif" font-size="10.00">OMSimEventAction.hh</text>
</a>
</g>
</g>
<!-- Node1&#45;&gt;Node37 -->
<g id="edge41" class="edge">
<title>Node1&#45;&gt;Node37</title>
<path fill="none" stroke="midnightblue" d="M1381.77,-406.07C1330.02,-396.96 1230.37,-379.44 1166.77,-368.25"/>
<polygon fill="midnightblue" stroke="midnightblue" points="1167.34,-364.8 1156.89,-366.51 1166.13,-371.69 1167.34,-364.8"/>
</g>
<!-- Node38 -->
<g id="node37" class="node">
<title>Node38</title>
<g id="a_node37"><a xlink:href="_o_m_sim_tracking_action_8hh.html" target="_top" xlink:title=" ">
<polygon fill="white" stroke="black" points="1189.5,-347.5 1189.5,-366.5 1327.5,-366.5 1327.5,-347.5 1189.5,-347.5"/>
<text text-anchor="middle" x="1258.5" y="-354.5" font-family="Helvetica,sans-Serif" font-size="10.00">OMSimTrackingAction.hh</text>
</a>
</g>
</g>
<!-- Node1&#45;&gt;Node38 -->
<g id="edge42" class="edge">
<title>Node1&#45;&gt;Node38</title>
<path fill="none" stroke="midnightblue" d="M1390.62,-403.44C1364.21,-394.36 1322.28,-379.94 1292.76,-369.78"/>
<polygon fill="midnightblue" stroke="midnightblue" points="1293.86,-366.46 1283.26,-366.52 1291.58,-373.08 1293.86,-366.46"/>
</g>
<!-- Node40 -->
<g id="node39" class="node">
<title>Node40</title>
<g id="a_node39"><a xlink:href="_o_m_sim_stepping_action_8hh.html" target="_top" xlink:title="Defines OMSimSteppingAction.Currently it only checks for trapped photons.">
<polygon fill="white" stroke="black" points="1345.5,-347.5 1345.5,-366.5 1485.5,-366.5 1485.5,-347.5 1345.5,-347.5"/>
<text text-anchor="middle" x="1415.5" y="-354.5" font-family="Helvetica,sans-Serif" font-size="10.00">OMSimSteppingAction.hh</text>
</a>
</g>
</g>
<!-- Node1&#45;&gt;Node40 -->
<g id="edge44" class="edge">
<title>Node1&#45;&gt;Node40</title>
<path fill="none" stroke="midnightblue" d="M1415.5,-403.08C1415.5,-396.01 1415.5,-385.86 1415.5,-376.99"/>
<polygon fill="midnightblue" stroke="midnightblue" points="1419,-376.75 1415.5,-366.75 1412,-376.75 1419,-376.75"/>
</g>
<!-- Node42 -->
<g id="node41" class="node">
<title>Node42</title>
<g id="a_node41"><a xlink:href="_o_m_sim_u_iinterface_8hh.html" target="_top" xlink:title=" ">
<polygon fill="white" stroke="black" points="1453,-291.5 1453,-310.5 1574,-310.5 1574,-291.5 1453,-291.5"/>
<text text-anchor="middle" x="1513.5" y="-298.5" font-family="Helvetica,sans-Serif" font-size="10.00">OMSimUIinterface.hh</text>
</a>
</g>
</g>
<!-- Node1&#45;&gt;Node42 -->
<g id="edge46" class="edge">
<title>Node1&#45;&gt;Node42</title>
<path fill="none" stroke="midnightblue" d="M1440.65,-403.49C1458.14,-396.34 1480.7,-384.46 1494.5,-367 1505.08,-353.61 1509.77,-334.5 1511.85,-320.46"/>
<polygon fill="midnightblue" stroke="midnightblue" points="1515.33,-320.84 1513.02,-310.5 1508.38,-320.03 1515.33,-320.84"/>
</g>
<!-- Node47 -->
<g id="node46" class="node">
<title>Node47</title>
<g id="a_node46"><a xlink:title=" ">
<polygon fill="white" stroke="#bfbfbf" points="1542,-347.5 1542,-366.5 1663,-366.5 1663,-347.5 1542,-347.5"/>
<text text-anchor="middle" x="1602.5" y="-354.5" font-family="Helvetica,sans-Serif" font-size="10.00">G4MTRunManager.hh</text>
</a>
</g>
</g>
<!-- Node1&#45;&gt;Node47 -->
<g id="edge53" class="edge">
<title>Node1&#45;&gt;Node47</title>
<path fill="none" stroke="midnightblue" d="M1445.13,-403.44C1477,-394.24 1527.83,-379.56 1563.06,-369.39"/>
<polygon fill="midnightblue" stroke="midnightblue" points="1564.37,-372.65 1573.01,-366.52 1562.43,-365.93 1564.37,-372.65"/>
</g>
<!-- Node48 -->
<g id="node47" class="node">
<title>Node48</title>
<g id="a_node47"><a xlink:title=" ">
<polygon fill="white" stroke="#bfbfbf" points="1681,-347.5 1681,-366.5 1788,-366.5 1788,-347.5 1681,-347.5"/>
<text text-anchor="middle" x="1734.5" y="-354.5" font-family="Helvetica,sans-Serif" font-size="10.00">G4VisExecutive.hh</text>
</a>
</g>
</g>
<!-- Node1&#45;&gt;Node48 -->
<g id="edge54" class="edge">
<title>Node1&#45;&gt;Node48</title>
<path fill="none" stroke="midnightblue" d="M1449.04,-406.32C1502.44,-397.28 1607.58,-379.49 1674.27,-368.2"/>
<polygon fill="midnightblue" stroke="midnightblue" points="1674.95,-371.63 1684.23,-366.51 1673.78,-364.73 1674.95,-371.63"/>
</g>
<!-- Node49 -->
<g id="node48" class="node">
<title>Node49</title>
<g id="a_node48"><a xlink:title=" ">
<polygon fill="white" stroke="#bfbfbf" points="1806,-347.5 1806,-366.5 1909,-366.5 1909,-347.5 1806,-347.5"/>
<text text-anchor="middle" x="1857.5" y="-354.5" font-family="Helvetica,sans-Serif" font-size="10.00">G4UIExecutive.hh</text>
</a>
</g>
</g>
<!-- Node1&#45;&gt;Node49 -->
<g id="edge55" class="edge">
<title>Node1&#45;&gt;Node49</title>
<path fill="none" stroke="midnightblue" d="M1449.01,-408.41C1513.91,-401.39 1661.49,-385.04 1795.75,-367.2"/>
<polygon fill="midnightblue" stroke="midnightblue" points="1796.35,-370.65 1805.8,-365.86 1795.43,-363.71 1796.35,-370.65"/>
</g>
<!-- Node50 -->
<g id="node49" class="node">
<title>Node50</title>
<g id="a_node49"><a xlink:title=" ">
<polygon fill="white" stroke="#bfbfbf" points="1927.5,-347.5 1927.5,-366.5 1995.5,-366.5 1995.5,-347.5 1927.5,-347.5"/>
<text text-anchor="middle" x="1961.5" y="-354.5" font-family="Helvetica,sans-Serif" font-size="10.00">filesystem</text>
</a>
</g>
</g>
<!-- Node1&#45;&gt;Node50 -->
<g id="edge56" class="edge">
<title>Node1&#45;&gt;Node50</title>
<path fill="none" stroke="midnightblue" d="M1449.21,-410.35C1528.91,-406.16 1735.26,-393.61 1917.28,-367.02"/>
<polygon fill="midnightblue" stroke="midnightblue" points="1917.92,-370.46 1927.3,-365.54 1916.89,-363.54 1917.92,-370.46"/>
</g>
<!-- Node51 -->
<g id="node50" class="node">
<title>Node51</title>
<g id="a_node50"><a xlink:title=" ">
<polygon fill="white" stroke="#bfbfbf" points="2013.5,-347.5 2013.5,-366.5 2163.5,-366.5 2163.5,-347.5 2013.5,-347.5"/>
<text text-anchor="middle" x="2088.5" y="-354.5" font-family="Helvetica,sans-Serif" font-size="10.00">boost/program_options.hpp</text>
</a>
</g>
</g>
<!-- Node1&#45;&gt;Node51 -->
<g id="edge57" class="edge">
<title>Node1&#45;&gt;Node51</title>
<path fill="none" stroke="midnightblue" d="M1449.07,-409.8C1537.72,-403.9 1785.69,-386.9 2003.39,-367.08"/>
<polygon fill="midnightblue" stroke="midnightblue" points="2003.77,-370.56 2013.41,-366.16 2003.13,-363.59 2003.77,-370.56"/>
</g>
<!-- Node3 -->
<g id="node3" class="node">
<title>Node3</title>
<g id="a_node3"><a xlink:href="_o_m_sim_optical_module_8hh.html" target="_top" xlink:title=" ">
<polygon fill="white" stroke="black" points="445,-291.5 445,-310.5 582,-310.5 582,-291.5 445,-291.5"/>
<text text-anchor="middle" x="513.5" y="-298.5" font-family="Helvetica,sans-Serif" font-size="10.00">OMSimOpticalModule.hh</text>
</a>
</g>
</g>
<!-- Node2&#45;&gt;Node3 -->
<g id="edge2" class="edge">
<title>Node2&#45;&gt;Node3</title>
<path fill="none" stroke="midnightblue" d="M554.41,-347.08C547.34,-339.3 536.91,-327.8 528.35,-318.37"/>
<polygon fill="midnightblue" stroke="midnightblue" points="530.75,-315.8 521.44,-310.75 525.57,-320.51 530.75,-315.8"/>
</g>
<!-- Node31 -->
<g id="node30" class="node">
<title>Node31</title>
<g id="a_node30"><a xlink:title=" ">
<polygon fill="white" stroke="#bfbfbf" points="600.5,-291.5 600.5,-310.5 662.5,-310.5 662.5,-291.5 600.5,-291.5"/>
<text text-anchor="middle" x="631.5" y="-298.5" font-family="Helvetica,sans-Serif" font-size="10.00">G4Orb.hh</text>
</a>
</g>
</g>
<!-- Node2&#45;&gt;Node31 -->
<g id="edge33" class="edge">
<title>Node2&#45;&gt;Node31</title>
<path fill="none" stroke="midnightblue" d="M573.59,-347.32C583.99,-339.18 599.76,-326.84 612.22,-317.09"/>
<polygon fill="midnightblue" stroke="midnightblue" points="614.49,-319.75 620.21,-310.83 610.18,-314.24 614.49,-319.75"/>
</g>
<!-- Node32 -->
<g id="node31" class="node">
<title>Node32</title>
<g id="a_node31"><a xlink:title=" ">
<polygon fill="white" stroke="#bfbfbf" points="680.5,-291.5 680.5,-310.5 858.5,-310.5 858.5,-291.5 680.5,-291.5"/>
<text text-anchor="middle" x="769.5" y="-298.5" font-family="Helvetica,sans-Serif" font-size="10.00">G4VUserDetectorConstruction.hh</text>
</a>
</g>
</g>
<!-- Node2&#45;&gt;Node32 -->
<g id="edge34" class="edge">
<title>Node2&#45;&gt;Node32</title>
<path fill="none" stroke="midnightblue" d="M595.3,-347.44C630.88,-338.16 687.81,-323.31 726.85,-313.13"/>
<polygon fill="midnightblue" stroke="midnightblue" points="728.06,-316.43 736.85,-310.52 726.29,-309.65 728.06,-316.43"/>
</g>
<!-- Node4 -->
<g id="node4" class="node">
<title>Node4</title>
<g id="a_node4"><a xlink:href="abc_detector_component_8hh.html" target="_top" xlink:title="Provides helper base class abcDetectorComponent for constructing and managing detector components in ...">
<polygon fill="white" stroke="black" points="318,-179.5 318,-198.5 465,-198.5 465,-179.5 318,-179.5"/>
<text text-anchor="middle" x="391.5" y="-186.5" font-family="Helvetica,sans-Serif" font-size="10.00">abcDetectorComponent.hh</text>
</a>
</g>
</g>
<!-- Node3&#45;&gt;Node4 -->
<g id="edge3" class="edge">
<title>Node3&#45;&gt;Node4</title>
<path fill="none" stroke="midnightblue" d="M499.07,-291.45C485.39,-283.02 464.58,-269.34 448.5,-255 431.78,-240.09 415.17,-220.46 404.24,-206.69"/>
<polygon fill="midnightblue" stroke="midnightblue" points="406.83,-204.33 397.92,-198.6 401.31,-208.63 406.83,-204.33"/>
</g>
<!-- Node18 -->
<g id="node17" class="node">
<title>Node18</title>
<g id="a_node17"><a xlink:href="_o_m_sim_hit_manager_8hh.html" target="_top" xlink:title="Defines structures and classes related to optical module photon hit management.">
<polygon fill="white" stroke="black" points="861,-235.5 861,-254.5 984,-254.5 984,-235.5 861,-235.5"/>
<text text-anchor="middle" x="922.5" y="-242.5" font-family="Helvetica,sans-Serif" font-size="10.00">OMSimHitManager.hh</text>
</a>
</g>
</g>
<!-- Node3&#45;&gt;Node18 -->
<g id="edge16" class="edge">
<title>Node3&#45;&gt;Node18</title>
<path fill="none" stroke="midnightblue" d="M578.31,-291.44C652.46,-281.65 773.56,-265.66 850.57,-255.5"/>
<polygon fill="midnightblue" stroke="midnightblue" points="851.22,-258.94 860.67,-254.16 850.3,-252 851.22,-258.94"/>
</g>
<!-- Node28 -->
<g id="node27" class="node">
<title>Node28</title>
<g id="a_node27"><a xlink:href="_o_m_sim_p_m_t_construction_8hh.html" target="_top" xlink:title="Construction of the PMTs.">
<polygon fill="white" stroke="black" points="458,-235.5 458,-254.5 607,-254.5 607,-235.5 458,-235.5"/>
<text text-anchor="middle" x="532.5" y="-242.5" font-family="Helvetica,sans-Serif" font-size="10.00">OMSimPMTConstruction.hh</text>
</a>
</g>
</g>
<!-- Node3&#45;&gt;Node28 -->
<g id="edge27" class="edge">
<title>Node3&#45;&gt;Node28</title>
<path fill="none" stroke="midnightblue" d="M516.64,-291.08C519.18,-283.85 522.86,-273.41 526.03,-264.4"/>
<polygon fill="midnightblue" stroke="midnightblue" points="529.4,-265.35 529.42,-254.75 522.8,-263.02 529.4,-265.35"/>
</g>
<!-- Node5 -->
<g id="node5" class="node">
<title>Node5</title>
<g id="a_node5"><a xlink:href="_o_m_sim_input_data_8hh.html" target="_top" xlink:title="Definition of ParameterTable and InputDataManager.">
<polygon fill="white" stroke="red" points="524,-123.5 524,-142.5 639,-142.5 639,-123.5 524,-123.5"/>
<text text-anchor="middle" x="581.5" y="-130.5" font-family="Helvetica,sans-Serif" font-size="10.00">OMSimInputData.hh</text>
</a>
</g>
</g>
<!-- Node4&#45;&gt;Node5 -->
<g id="edge4" class="edge">
<title>Node4&#45;&gt;Node5</title>
<path fill="none" stroke="midnightblue" d="M421.61,-179.44C454.13,-170.2 506.08,-155.44 541.89,-145.26"/>
<polygon fill="midnightblue" stroke="midnightblue" points="542.87,-148.62 551.53,-142.52 540.96,-141.88 542.87,-148.62"/>
</g>
<!-- Node14 -->
<g id="node13" class="node">
<title>Node14</title>
<g id="a_node13"><a xlink:title=" ">
<polygon fill="white" stroke="#bfbfbf" points="0,-123.5 0,-142.5 107,-142.5 107,-123.5 0,-123.5"/>
<text text-anchor="middle" x="53.5" y="-130.5" font-family="Helvetica,sans-Serif" font-size="10.00">G4Transform3D.hh</text>
</a>
</g>
</g>
<!-- Node4&#45;&gt;Node14 -->
<g id="edge12" class="edge">
<title>Node4&#45;&gt;Node14</title>
<path fill="none" stroke="midnightblue" d="M337.94,-179.44C277.87,-169.85 180.51,-154.29 116.74,-144.1"/>
<polygon fill="midnightblue" stroke="midnightblue" points="117.23,-140.64 106.81,-142.52 116.13,-147.55 117.23,-140.64"/>
</g>
<!-- Node15 -->
<g id="node14" class="node">
<title>Node15</title>
<g id="a_node14"><a xlink:title=" ">
<polygon fill="white" stroke="#bfbfbf" points="125.5,-123.5 125.5,-142.5 233.5,-142.5 233.5,-123.5 125.5,-123.5"/>
<text text-anchor="middle" x="179.5" y="-130.5" font-family="Helvetica,sans-Serif" font-size="10.00">G4VisAttributes.hh</text>
</a>
</g>
</g>
<!-- Node4&#45;&gt;Node15 -->
<g id="edge13" class="edge">
<title>Node4&#45;&gt;Node15</title>
<path fill="none" stroke="midnightblue" d="M357.91,-179.44C321.31,-170.12 262.66,-155.18 222.67,-145"/>
<polygon fill="midnightblue" stroke="midnightblue" points="223.49,-141.59 212.93,-142.52 221.76,-148.38 223.49,-141.59"/>
</g>
<!-- Node16 -->
<g id="node15" class="node">
<title>Node16</title>
<g id="a_node15"><a xlink:title=" ">
<polygon fill="white" stroke="#bfbfbf" points="252,-123.5 252,-142.5 377,-142.5 377,-123.5 252,-123.5"/>
<text text-anchor="middle" x="314.5" y="-130.5" font-family="Helvetica,sans-Serif" font-size="10.00">G4SubtractionSolid.hh</text>
</a>
</g>
</g>
<!-- Node4&#45;&gt;Node16 -->
<g id="edge14" class="edge">
<title>Node4&#45;&gt;Node16</title>
<path fill="none" stroke="midnightblue" d="M379.13,-179.32C367.34,-171.06 349.37,-158.45 335.36,-148.63"/>
<polygon fill="midnightblue" stroke="midnightblue" points="337.04,-145.53 326.84,-142.65 333.02,-151.26 337.04,-145.53"/>
</g>
<!-- Node17 -->
<g id="node16" class="node">
<title>Node17</title>
<g id="a_node16"><a xlink:title=" ">
<polygon fill="white" stroke="#bfbfbf" points="395.5,-123.5 395.5,-142.5 505.5,-142.5 505.5,-123.5 395.5,-123.5"/>
<text text-anchor="middle" x="450.5" y="-130.5" font-family="Helvetica,sans-Serif" font-size="10.00">G4PVPlacement.hh</text>
</a>
</g>
</g>
<!-- Node4&#45;&gt;Node17 -->
<g id="edge15" class="edge">
<title>Node4&#45;&gt;Node17</title>
<path fill="none" stroke="midnightblue" d="M400.98,-179.32C409.7,-171.34 422.84,-159.31 433.4,-149.65"/>
<polygon fill="midnightblue" stroke="midnightblue" points="435.83,-152.17 440.85,-142.83 431.11,-147 435.83,-152.17"/>
</g>
<!-- Node6 -->
<g id="node6" class="node">
<title>Node6</title>
<g id="a_node6"><a xlink:href="_o_m_sim_logger_8hh.html" target="_top" xlink:title=" ">
<polygon fill="white" stroke="black" points="1155,-67.5 1155,-86.5 1254,-86.5 1254,-67.5 1155,-67.5"/>
<text text-anchor="middle" x="1204.5" y="-74.5" font-family="Helvetica,sans-Serif" font-size="10.00">OMSimLogger.hh</text>
</a>
</g>
</g>
<!-- Node5&#45;&gt;Node6 -->
<g id="edge5" class="edge">
<title>Node5&#45;&gt;Node6</title>
<path fill="none" stroke="midnightblue" d="M639.07,-123.96C641.92,-123.62 644.74,-123.3 647.5,-123 828.17,-103.4 1042.66,-88.39 1144.75,-81.75"/>
<polygon fill="midnightblue" stroke="midnightblue" points="1145.11,-85.23 1154.86,-81.09 1144.66,-78.25 1145.11,-85.23"/>
</g>
<!-- Node11 -->
<g id="node11" class="node">
<title>Node11</title>
<g id="a_node11"><a xlink:title=" ">
<polygon fill="white" stroke="#bfbfbf" points="510,-67.5 510,-86.5 653,-86.5 653,-67.5 510,-67.5"/>
<text text-anchor="middle" x="581.5" y="-74.5" font-family="Helvetica,sans-Serif" font-size="10.00">G4OpBoundaryProcess.hh</text>
</a>
</g>
</g>
<!-- Node5&#45;&gt;Node11 -->
<g id="edge10" class="edge">
<title>Node5&#45;&gt;Node11</title>
<path fill="none" stroke="midnightblue" d="M581.5,-123.08C581.5,-116.01 581.5,-105.86 581.5,-96.99"/>
<polygon fill="midnightblue" stroke="midnightblue" points="585,-96.75 581.5,-86.75 578,-96.75 585,-96.75"/>
</g>
<!-- Node12 -->
<g id="node12" class="node">
<title>Node12</title>
<g id="a_node12"><a xlink:title=" ">
<polygon fill="white" stroke="#bfbfbf" points="789,-67.5 789,-86.5 908,-86.5 908,-67.5 789,-67.5"/>
<text text-anchor="middle" x="848.5" y="-74.5" font-family="Helvetica,sans-Serif" font-size="10.00">G4SystemOfUnits.hh</text>
</a>
</g>
</g>
<!-- Node5&#45;&gt;Node12 -->
<g id="edge11" class="edge">
<title>Node5&#45;&gt;Node12</title>
<path fill="none" stroke="midnightblue" d="M623.81,-123.44C670.58,-113.98 745.96,-98.74 796.35,-88.55"/>
<polygon fill="midnightblue" stroke="midnightblue" points="797.28,-91.93 806.39,-86.52 795.9,-85.07 797.28,-91.93"/>
</g>
<!-- Node7 -->
<g id="node7" class="node">
<title>Node7</title>
<g id="a_node7"><a xlink:title=" ">
<polygon fill="white" stroke="#bfbfbf" points="986,-6 986,-25 1079,-25 1079,-6 986,-6"/>
<text text-anchor="middle" x="1032.5" y="-13" font-family="Helvetica,sans-Serif" font-size="10.00">spdlog/spdlog.h</text>
</a>
</g>
</g>
<!-- Node6&#45;&gt;Node7 -->
<g id="edge6" class="edge">
<title>Node6&#45;&gt;Node7</title>
<path fill="none" stroke="midnightblue" d="M1179.86,-67.48C1150.22,-57.22 1100.32,-39.96 1066.9,-28.4"/>
<polygon fill="midnightblue" stroke="midnightblue" points="1067.69,-24.97 1057.1,-25.01 1065.4,-31.59 1067.69,-24.97"/>
</g>
<!-- Node8 -->
<g id="node8" class="node">
<title>Node8</title>
<g id="a_node8"><a xlink:title=" ">
<polygon fill="white" stroke="#bfbfbf" points="1097,-0.5 1097,-30.5 1208,-30.5 1208,-0.5 1097,-0.5"/>
<text text-anchor="start" x="1105" y="-18.5" font-family="Helvetica,sans-Serif" font-size="10.00">spdlog/sinks/stdout</text>
<text text-anchor="middle" x="1152.5" y="-7.5" font-family="Helvetica,sans-Serif" font-size="10.00">_color_sinks.h</text>
</a>
</g>
</g>
<!-- Node6&#45;&gt;Node8 -->
<g id="edge7" class="edge">
<title>Node6&#45;&gt;Node8</title>
<path fill="none" stroke="midnightblue" d="M1197.05,-67.48C1190.4,-59.87 1180.38,-48.4 1171.52,-38.26"/>
<polygon fill="midnightblue" stroke="midnightblue" points="1173.97,-35.75 1164.76,-30.52 1168.7,-40.36 1173.97,-35.75"/>
</g>
<!-- Node9 -->
<g id="node9" class="node">
<title>Node9</title>
<g id="a_node9"><a xlink:title=" ">
<polygon fill="white" stroke="#bfbfbf" points="1226.5,-6 1226.5,-25 1284.5,-25 1284.5,-6 1226.5,-6"/>
<text text-anchor="middle" x="1255.5" y="-13" font-family="Helvetica,sans-Serif" font-size="10.00">memory</text>
</a>
</g>
</g>
<!-- Node6&#45;&gt;Node9 -->
<g id="edge8" class="edge">
<title>Node6&#45;&gt;Node9</title>
<path fill="none" stroke="midnightblue" d="M1211.81,-67.48C1219.53,-58.46 1231.91,-44.02 1241.52,-32.81"/>
<polygon fill="midnightblue" stroke="midnightblue" points="1244.36,-34.88 1248.21,-25.01 1239.04,-30.32 1244.36,-34.88"/>
</g>
<!-- Node10 -->
<g id="node10" class="node">
<title>Node10</title>
<g id="a_node10"><a xlink:title=" ">
<polygon fill="white" stroke="#bfbfbf" points="1302.5,-6 1302.5,-25 1400.5,-25 1400.5,-6 1302.5,-6"/>
<text text-anchor="middle" x="1351.5" y="-13" font-family="Helvetica,sans-Serif" font-size="10.00">spdlog/fmt/fmt.h</text>
</a>
</g>
</g>
<!-- Node6&#45;&gt;Node10 -->
<g id="edge9" class="edge">
<title>Node6&#45;&gt;Node10</title>
<path fill="none" stroke="midnightblue" d="M1225.56,-67.48C1250.56,-57.36 1292.44,-40.4 1320.99,-28.85"/>
<polygon fill="midnightblue" stroke="midnightblue" points="1322.52,-32.01 1330.48,-25.01 1319.89,-25.52 1322.52,-32.01"/>
</g>
<!-- Node19 -->
<g id="node18" class="node">
<title>Node19</title>
<g id="a_node18"><a xlink:href="_o_m_sim_p_m_t_response_8hh.html" target="_top" xlink:title="Simulation of PMT response.">
<polygon fill="white" stroke="black" points="700,-179.5 700,-198.5 835,-198.5 835,-179.5 700,-179.5"/>
<text text-anchor="middle" x="767.5" y="-186.5" font-family="Helvetica,sans-Serif" font-size="10.00">OMSimPMTResponse.hh</text>
</a>
</g>
</g>
<!-- Node18&#45;&gt;Node19 -->
<g id="edge17" class="edge">
<title>Node18&#45;&gt;Node19</title>
<path fill="none" stroke="midnightblue" d="M897.94,-235.44C871.98,-226.4 830.83,-212.06 801.7,-201.92"/>
<polygon fill="midnightblue" stroke="midnightblue" points="802.54,-198.5 791.95,-198.52 800.24,-205.11 802.54,-198.5"/>
</g>
<!-- Node24 -->
<g id="node23" class="node">
<title>Node24</title>
<g id="a_node23"><a xlink:title=" ">
<polygon fill="white" stroke="#bfbfbf" points="853,-179.5 853,-198.5 956,-198.5 956,-179.5 853,-179.5"/>
<text text-anchor="middle" x="904.5" y="-186.5" font-family="Helvetica,sans-Serif" font-size="10.00">G4ThreeVector.hh</text>
</a>
</g>
</g>
<!-- Node18&#45;&gt;Node24 -->
<g id="edge23" class="edge">
<title>Node18&#45;&gt;Node24</title>
<path fill="none" stroke="midnightblue" d="M919.53,-235.08C917.12,-227.85 913.64,-217.41 910.63,-208.4"/>
<polygon fill="midnightblue" stroke="midnightblue" points="913.9,-207.13 907.42,-198.75 907.26,-209.34 913.9,-207.13"/>
</g>
<!-- Node25 -->
<g id="node24" class="node">
<title>Node25</title>
<g id="a_node24"><a xlink:title=" ">
<polygon fill="white" stroke="#bfbfbf" points="1244,-179.5 1244,-198.5 1299,-198.5 1299,-179.5 1244,-179.5"/>
<text text-anchor="middle" x="1271.5" y="-186.5" font-family="Helvetica,sans-Serif" font-size="10.00">fstream</text>
</a>
</g>
</g>
<!-- Node18&#45;&gt;Node25 -->
<g id="edge24" class="edge">
<title>Node18&#45;&gt;Node25</title>
<path fill="none" stroke="midnightblue" d="M977.8,-235.44C1049.39,-224.37 1172.24,-205.36 1233.89,-195.82"/>
<polygon fill="midnightblue" stroke="midnightblue" points="1234.61,-199.25 1243.96,-194.26 1233.54,-192.33 1234.61,-199.25"/>
</g>
<!-- Node26 -->
<g id="node25" class="node">
<title>Node26</title>
<g id="a_node25"><a xlink:title=" ">
<polygon fill="white" stroke="#bfbfbf" points="974.5,-179.5 974.5,-198.5 1064.5,-198.5 1064.5,-179.5 974.5,-179.5"/>
<text text-anchor="middle" x="1019.5" y="-186.5" font-family="Helvetica,sans-Serif" font-size="10.00">G4AutoLock.hh</text>
</a>
</g>
</g>
<!-- Node18&#45;&gt;Node26 -->
<g id="edge25" class="edge">
<title>Node18&#45;&gt;Node26</title>
<path fill="none" stroke="midnightblue" d="M938.08,-235.32C953.5,-226.74 977.31,-213.49 995.21,-203.52"/>
<polygon fill="midnightblue" stroke="midnightblue" points="996.92,-206.58 1003.95,-198.65 993.51,-200.46 996.92,-206.58"/>
</g>
<!-- Node27 -->
<g id="node26" class="node">
<title>Node27</title>
<g id="a_node26"><a xlink:title=" ">
<polygon fill="white" stroke="#bfbfbf" points="1082.5,-179.5 1082.5,-198.5 1176.5,-198.5 1176.5,-179.5 1082.5,-179.5"/>
<text text-anchor="middle" x="1129.5" y="-186.5" font-family="Helvetica,sans-Serif" font-size="10.00">G4Threading.hh</text>
</a>
</g>
</g>
<!-- Node18&#45;&gt;Node27 -->
<g id="edge26" class="edge">
<title>Node18&#45;&gt;Node27</title>
<path fill="none" stroke="midnightblue" d="M955.3,-235.44C990.88,-226.16 1047.81,-211.31 1086.85,-201.13"/>
<polygon fill="midnightblue" stroke="midnightblue" points="1088.06,-204.43 1096.85,-198.52 1086.29,-197.65 1088.06,-204.43"/>
</g>
<!-- Node19&#45;&gt;Node12 -->
<g id="edge18" class="edge">
<title>Node19&#45;&gt;Node12</title>
<path fill="none" stroke="midnightblue" d="M835.1,-179.57C879.47,-172.5 931.74,-160.67 945.5,-143 964.37,-118.76 926.91,-100.44 893.2,-89.53"/>
<polygon fill="midnightblue" stroke="midnightblue" points="893.97,-86.1 883.38,-86.51 891.91,-92.8 893.97,-86.1"/>
</g>
<!-- Node20 -->
<g id="node19" class="node">
<title>Node20</title>
<g id="a_node19"><a xlink:title=" ">
<polygon fill="white" stroke="#bfbfbf" points="657,-123.5 657,-142.5 730,-142.5 730,-123.5 657,-123.5"/>
<text text-anchor="middle" x="693.5" y="-130.5" font-family="Helvetica,sans-Serif" font-size="10.00">G4Types.hh</text>
</a>
</g>
</g>
<!-- Node19&#45;&gt;Node20 -->
<g id="edge19" class="edge">
<title>Node19&#45;&gt;Node20</title>
<path fill="none" stroke="midnightblue" d="M755.61,-179.32C744.35,-171.11 727.21,-158.6 713.79,-148.81"/>
<polygon fill="midnightblue" stroke="midnightblue" points="715.75,-145.9 705.61,-142.83 711.62,-151.56 715.75,-145.9"/>
</g>
<!-- Node21 -->
<g id="node20" class="node">
<title>Node21</title>
<g id="a_node20"><a xlink:title=" ">
<polygon fill="white" stroke="#bfbfbf" points="748.5,-123.5 748.5,-142.5 786.5,-142.5 786.5,-123.5 748.5,-123.5"/>
<text text-anchor="middle" x="767.5" y="-130.5" font-family="Helvetica,sans-Serif" font-size="10.00">map</text>
</a>
</g>
</g>
<!-- Node19&#45;&gt;Node21 -->
<g id="edge20" class="edge">
<title>Node19&#45;&gt;Node21</title>
<path fill="none" stroke="midnightblue" d="M767.5,-179.08C767.5,-172.01 767.5,-161.86 767.5,-152.99"/>
<polygon fill="midnightblue" stroke="midnightblue" points="771,-152.75 767.5,-142.75 764,-152.75 771,-152.75"/>
</g>
<!-- Node22 -->
<g id="node21" class="node">
<title>Node22</title>
<g id="a_node21"><a xlink:title=" ">
<polygon fill="white" stroke="#bfbfbf" points="805,-123.5 805,-142.5 866,-142.5 866,-123.5 805,-123.5"/>
<text text-anchor="middle" x="835.5" y="-130.5" font-family="Helvetica,sans-Serif" font-size="10.00">TGraph.h</text>
</a>
</g>
</g>
<!-- Node19&#45;&gt;Node22 -->
<g id="edge21" class="edge">
<title>Node19&#45;&gt;Node22</title>
<path fill="none" stroke="midnightblue" d="M778.43,-179.32C788.67,-171.18 804.22,-158.84 816.5,-149.09"/>
<polygon fill="midnightblue" stroke="midnightblue" points="818.72,-151.79 824.38,-142.83 814.37,-146.31 818.72,-151.79"/>
</g>
<!-- Node23 -->
<g id="node22" class="node">
<title>Node23</title>
<g id="a_node22"><a xlink:title=" ">
<polygon fill="white" stroke="#bfbfbf" points="884,-123.5 884,-142.5 937,-142.5 937,-123.5 884,-123.5"/>
<text text-anchor="middle" x="910.5" y="-130.5" font-family="Helvetica,sans-Serif" font-size="10.00">TH2D.h</text>
</a>
</g>
</g>
<!-- Node19&#45;&gt;Node23 -->
<g id="edge22" class="edge">
<title>Node19&#45;&gt;Node23</title>
<path fill="none" stroke="midnightblue" d="M790.16,-179.44C813.9,-170.48 851.41,-156.31 878.24,-146.18"/>
<polygon fill="midnightblue" stroke="midnightblue" points="879.83,-149.32 887.95,-142.52 877.36,-142.77 879.83,-149.32"/>
</g>
<!-- Node28&#45;&gt;Node4 -->
<g id="edge28" class="edge">
<title>Node28&#45;&gt;Node4</title>
<path fill="none" stroke="midnightblue" d="M510.16,-235.44C486.75,-226.48 449.76,-212.31 423.31,-202.18"/>
<polygon fill="midnightblue" stroke="midnightblue" points="424.33,-198.82 413.74,-198.52 421.82,-205.36 424.33,-198.82"/>
</g>
<!-- Node28&#45;&gt;Node19 -->
<g id="edge30" class="edge">
<title>Node28&#45;&gt;Node19</title>
<path fill="none" stroke="midnightblue" d="M569.74,-235.44C610.56,-226.06 676.14,-210.99 720.48,-200.8"/>
<polygon fill="midnightblue" stroke="midnightblue" points="721.48,-204.17 730.44,-198.52 719.91,-197.34 721.48,-204.17"/>
</g>
<!-- Node28&#45;&gt;Node28 -->
<g id="edge29" class="edge">
<title>Node28&#45;&gt;Node28</title>
<path fill="none" stroke="midnightblue" d="M571.95,-254.53C598.76,-257.31 625,-254.13 625,-245 625,-237.01 604.91,-233.58 581.93,-234.71"/>
<polygon fill="midnightblue" stroke="midnightblue" points="581.65,-231.22 571.95,-235.47 582.19,-238.2 581.65,-231.22"/>
</g>
<!-- Node29 -->
<g id="node28" class="node">
<title>Node29</title>
<g id="a_node28"><a xlink:title=" ">
<polygon fill="white" stroke="#bfbfbf" points="483.5,-179.5 483.5,-198.5 581.5,-198.5 581.5,-179.5 483.5,-179.5"/>
<text text-anchor="middle" x="532.5" y="-186.5" font-family="Helvetica,sans-Serif" font-size="10.00">G4UnionSolid.hh</text>
</a>
</g>
</g>
<!-- Node28&#45;&gt;Node29 -->
<g id="edge31" class="edge">
<title>Node28&#45;&gt;Node29</title>
<path fill="none" stroke="midnightblue" d="M532.5,-235.08C532.5,-228.01 532.5,-217.86 532.5,-208.99"/>
<polygon fill="midnightblue" stroke="midnightblue" points="536,-208.75 532.5,-198.75 529,-208.75 536,-208.75"/>
</g>
<!-- Node30 -->
<g id="node29" class="node">
<title>Node30</title>
<g id="a_node29"><a xlink:title=" ">
<polygon fill="white" stroke="#bfbfbf" points="600,-179.5 600,-198.5 667,-198.5 667,-179.5 600,-179.5"/>
<text text-anchor="middle" x="633.5" y="-186.5" font-family="Helvetica,sans-Serif" font-size="10.00">G4Tubs.hh</text>
</a>
</g>
</g>
<!-- Node28&#45;&gt;Node30 -->
<g id="edge32" class="edge">
<title>Node28&#45;&gt;Node30</title>
<path fill="none" stroke="midnightblue" d="M548.73,-235.32C564.85,-226.7 589.8,-213.36 608.46,-203.39"/>
<polygon fill="midnightblue" stroke="midnightblue" points="610.14,-206.46 617.31,-198.65 606.84,-200.28 610.14,-206.46"/>
</g>
<!-- Node35&#45;&gt;Node6 -->
<g id="edge40" class="edge">
<title>Node35&#45;&gt;Node6</title>
<path fill="none" stroke="midnightblue" d="M1063.99,-291.48C1098.47,-277.99 1159.98,-248.09 1185.5,-199 1202.6,-166.1 1205.22,-121.88 1205.15,-97.02"/>
<polygon fill="midnightblue" stroke="midnightblue" points="1208.65,-96.73 1204.96,-86.79 1201.65,-96.86 1208.65,-96.73"/>
</g>
<!-- Node35&#45;&gt;Node18 -->
<g id="edge39" class="edge">
<title>Node35&#45;&gt;Node18</title>
<path fill="none" stroke="midnightblue" d="M1020.96,-291.44C1001.88,-282.64 971.93,-268.81 950.06,-258.72"/>
<polygon fill="midnightblue" stroke="midnightblue" points="951.5,-255.53 940.95,-254.52 948.57,-261.88 951.5,-255.53"/>
</g>
<!-- Node36 -->
<g id="node35" class="node">
<title>Node36</title>
<g id="a_node35"><a xlink:title=" ">
<polygon fill="white" stroke="#bfbfbf" points="1002,-235.5 1002,-254.5 1119,-254.5 1119,-235.5 1002,-235.5"/>
<text text-anchor="middle" x="1060.5" y="-242.5" font-family="Helvetica,sans-Serif" font-size="10.00">G4UserRunAction.hh</text>
</a>
</g>
</g>
<!-- Node35&#45;&gt;Node36 -->
<g id="edge38" class="edge">
<title>Node35&#45;&gt;Node36</title>
<path fill="none" stroke="midnightblue" d="M1042.97,-291.08C1045.81,-283.77 1049.93,-273.18 1053.46,-264.1"/>
<polygon fill="midnightblue" stroke="midnightblue" points="1056.73,-265.34 1057.1,-254.75 1050.21,-262.8 1056.73,-265.34"/>
</g>
<!-- Node39 -->
<g id="node38" class="node">
<title>Node39</title>
<g id="a_node38"><a xlink:title=" ">
<polygon fill="white" stroke="#bfbfbf" points="1137,-291.5 1137,-310.5 1276,-310.5 1276,-291.5 1137,-291.5"/>
<text text-anchor="middle" x="1206.5" y="-298.5" font-family="Helvetica,sans-Serif" font-size="10.00">G4UserTrackingAction.hh</text>
</a>
</g>
</g>
<!-- Node38&#45;&gt;Node39 -->
<g id="edge43" class="edge">
<title>Node38&#45;&gt;Node39</title>
<path fill="none" stroke="midnightblue" d="M1249.91,-347.08C1242.34,-339.22 1231.12,-327.57 1221.99,-318.08"/>
<polygon fill="midnightblue" stroke="midnightblue" points="1224.38,-315.53 1214.93,-310.75 1219.34,-320.38 1224.38,-315.53"/>
</g>
<!-- Node41 -->
<g id="node40" class="node">
<title>Node41</title>
<g id="a_node40"><a xlink:title=" ">
<polygon fill="white" stroke="#bfbfbf" points="1294,-291.5 1294,-310.5 1435,-310.5 1435,-291.5 1294,-291.5"/>
<text text-anchor="middle" x="1364.5" y="-298.5" font-family="Helvetica,sans-Serif" font-size="10.00">G4UserSteppingAction.hh</text>
</a>
</g>
</g>
<!-- Node40&#45;&gt;Node41 -->
<g id="edge45" class="edge">
<title>Node40&#45;&gt;Node41</title>
<path fill="none" stroke="midnightblue" d="M1407.08,-347.08C1399.65,-339.22 1388.65,-327.57 1379.69,-318.08"/>
<polygon fill="midnightblue" stroke="midnightblue" points="1382.18,-315.62 1372.76,-310.75 1377.09,-320.42 1382.18,-315.62"/>
</g>
<!-- Node43 -->
<g id="node42" class="node">
<title>Node43</title>
<g id="a_node42"><a xlink:href="_o_m_sim_command_args_table_8hh.html" target="_top" xlink:title="Definition of the OMSimCommandArgsTable singleton class, which controls user args.">
<polygon fill="white" stroke="black" points="1391.5,-235.5 1391.5,-254.5 1555.5,-254.5 1555.5,-235.5 1391.5,-235.5"/>
<text text-anchor="middle" x="1473.5" y="-242.5" font-family="Helvetica,sans-Serif" font-size="10.00">OMSimCommandArgsTable.hh</text>
</a>
</g>
</g>
<!-- Node42&#45;&gt;Node43 -->
<g id="edge47" class="edge">
<title>Node42&#45;&gt;Node43</title>
<path fill="none" stroke="midnightblue" d="M1506.89,-291.08C1501.24,-283.46 1492.96,-272.26 1486.05,-262.94"/>
<polygon fill="midnightblue" stroke="midnightblue" points="1488.75,-260.7 1479.98,-254.75 1483.12,-264.87 1488.75,-260.7"/>
</g>
<!-- Node46 -->
<g id="node45" class="node">
<title>Node46</title>
<g id="a_node45"><a xlink:title=" ">
<polygon fill="white" stroke="#bfbfbf" points="1275.5,-235.5 1275.5,-254.5 1373.5,-254.5 1373.5,-235.5 1275.5,-235.5"/>
<text text-anchor="middle" x="1324.5" y="-242.5" font-family="Helvetica,sans-Serif" font-size="10.00">G4UImanager.hh</text>
</a>
</g>
</g>
<!-- Node42&#45;&gt;Node46 -->
<g id="edge52" class="edge">
<title>Node42&#45;&gt;Node46</title>
<path fill="none" stroke="midnightblue" d="M1483.55,-291.44C1451.34,-282.24 1399.97,-267.56 1364.36,-257.39"/>
<polygon fill="midnightblue" stroke="midnightblue" points="1364.88,-253.9 1354.31,-254.52 1362.96,-260.63 1364.88,-253.9"/>
</g>
<!-- Node43&#45;&gt;Node6 -->
<g id="edge48" class="edge">
<title>Node43&#45;&gt;Node6</title>
<path fill="none" stroke="midnightblue" d="M1459.42,-235.31C1415.56,-208.25 1281.19,-125.32 1227.25,-92.04"/>
<polygon fill="midnightblue" stroke="midnightblue" points="1228.79,-88.88 1218.44,-86.61 1225.12,-94.84 1228.79,-88.88"/>
</g>
<!-- Node43&#45;&gt;Node25 -->
<g id="edge49" class="edge">
<title>Node43&#45;&gt;Node25</title>
<path fill="none" stroke="midnightblue" d="M1441.49,-235.44C1405.44,-225.81 1346.93,-210.17 1308.83,-199.98"/>
<polygon fill="midnightblue" stroke="midnightblue" points="1309.7,-196.59 1299.14,-197.39 1307.89,-203.35 1309.7,-196.59"/>
</g>
<!-- Node44 -->
<g id="node43" class="node">
<title>Node44</title>
<g id="a_node43"><a xlink:title=" ">
<polygon fill="white" stroke="#bfbfbf" points="1420.5,-179.5 1420.5,-198.5 1504.5,-198.5 1504.5,-179.5 1420.5,-179.5"/>
<text text-anchor="middle" x="1462.5" y="-186.5" font-family="Helvetica,sans-Serif" font-size="10.00">boost/any.hpp</text>
</a>
</g>
</g>
<!-- Node43&#45;&gt;Node44 -->
<g id="edge50" class="edge">
<title>Node43&#45;&gt;Node44</title>
<path fill="none" stroke="midnightblue" d="M1471.68,-235.08C1470.23,-227.93 1468.13,-217.64 1466.31,-208.69"/>
<polygon fill="midnightblue" stroke="midnightblue" points="1469.71,-207.85 1464.28,-198.75 1462.85,-209.25 1469.71,-207.85"/>
</g>
<!-- Node45 -->
<g id="node44" class="node">
<title>Node45</title>
<g id="a_node44"><a xlink:title=" ">
<polygon fill="white" stroke="#bfbfbf" points="1522.5,-179.5 1522.5,-198.5 1590.5,-198.5 1590.5,-179.5 1522.5,-179.5"/>
<text text-anchor="middle" x="1556.5" y="-186.5" font-family="Helvetica,sans-Serif" font-size="10.00">sys/time.h</text>
</a>
</g>
</g>
<!-- Node43&#45;&gt;Node45 -->
<g id="edge51" class="edge">
<title>Node43&#45;&gt;Node45</title>
<path fill="none" stroke="midnightblue" d="M1486.84,-235.32C1499.66,-226.98 1519.28,-214.21 1534.44,-204.35"/>
<polygon fill="midnightblue" stroke="midnightblue" points="1536.72,-207.04 1543.2,-198.65 1532.91,-201.17 1536.72,-207.04"/>
</g>
</g>
</svg>
