<?xml version="1.0" encoding="UTF-8" standalone="no"?>
<!DOCTYPE svg PUBLIC "-//W3C//DTD SVG 1.1//EN"
 "http://www.w3.org/Graphics/SVG/1.1/DTD/svg11.dtd">
<!-- Generated by graphviz version 2.43.0 (0)
 -->
<!-- Title: OMSimTools.hh Pages: 1 -->
<svg width="2913pt" height="269pt"
 viewBox="0.00 0.00 2913.00 269.00" xmlns="http://www.w3.org/2000/svg" xmlns:xlink="http://www.w3.org/1999/xlink">
<g id="graph0" class="graph" transform="scale(1 1) rotate(0) translate(4 265)">
<title>OMSimTools.hh</title>
<!-- Node1 -->
<g id="Node000001" class="node">
<title>Node1</title>
<g id="a_Node000001"><a xlink:title="Definition of Tools namespace, a collection of helper methods.">
<polygon fill="#999999" stroke="#666666" points="1398,-261 1306,-261 1306,-242 1398,-242 1398,-261"/>
<text text-anchor="middle" x="1352" y="-249" font-family="Helvetica,sans-Serif" font-size="10.00">OMSimTools.hh</text>
</a>
</g>
</g>
<!-- Node2 -->
<g id="Node000002" class="node">
<title>Node2</title>
<g id="a_Node000002"><a xlink:href="_o_m_sim_logger_8hh_source.html" target="_top" xlink:title=" ">
<polygon fill="white" stroke="#666666" points="873.5,-90.5 774.5,-90.5 774.5,-71.5 873.5,-71.5 873.5,-90.5"/>
<text text-anchor="middle" x="824" y="-78.5" font-family="Helvetica,sans-Serif" font-size="10.00">OMSimLogger.hh</text>
</a>
</g>
</g>
<!-- Node1&#45;&gt;Node2 -->
<g id="edge1_Node000001_Node000002" class="edge">
<title>Node1&#45;&gt;Node2</title>
<g id="a_edge1_Node000001_Node000002"><a xlink:title=" ">
<path fill="none" stroke="#63b8ff" d="M1305.57,-250.05C1183.09,-248.38 858.41,-240.7 826,-206 799.39,-177.51 809.42,-127.3 817.57,-100.33"/>
<polygon fill="#63b8ff" stroke="#63b8ff" points="820.96,-101.23 820.73,-90.63 814.31,-99.06 820.96,-101.23"/>
</a>
</g>
</g>
<!-- Node7 -->
<g id="Node000007" class="node">
<title>Node7</title>
<g id="a_Node000007"><a xlink:href="_o_m_sim_detector_component_8hh.html" target="_top" xlink:title="Provides helper base class OMSimDetectorComponent for constructing and managing detector components i...">
<polygon fill="white" stroke="#666666" points="594.5,-206 429.5,-206 429.5,-187 594.5,-187 594.5,-206"/>
<text text-anchor="middle" x="512" y="-194" font-family="Helvetica,sans-Serif" font-size="10.00">OMSimDetectorComponent.hh</text>
</a>
</g>
</g>
<!-- Node1&#45;&gt;Node7 -->
<g id="edge6_Node000001_Node000007" class="edge">
<title>Node1&#45;&gt;Node7</title>
<g id="a_edge6_Node000001_Node000007"><a xlink:title=" ">
<path fill="none" stroke="#63b8ff" d="M1305.94,-247.59C1172.56,-239.18 784.1,-214.67 604.74,-203.35"/>
<polygon fill="#63b8ff" stroke="#63b8ff" points="604.74,-199.84 594.54,-202.71 604.3,-206.83 604.74,-199.84"/>
</a>
</g>
</g>
<!-- Node23 -->
<g id="Node000023" class="node">
<title>Node23</title>
<g id="a_Node000023"><a xlink:href="_o_m_sim_command_args_table_8hh.html" target="_top" xlink:title="Definition of the OMSimCommandArgsTable singleton class, which controls user args.">
<polygon fill="white" stroke="#666666" points="999,-206 835,-206 835,-187 999,-187 999,-206"/>
<text text-anchor="middle" x="917" y="-194" font-family="Helvetica,sans-Serif" font-size="10.00">OMSimCommandArgsTable.hh</text>
</a>
</g>
</g>
<!-- Node1&#45;&gt;Node23 -->
<g id="edge21_Node000001_Node000023" class="edge">
<title>Node1&#45;&gt;Node23</title>
<g id="a_edge21_Node000001_Node000023"><a xlink:title=" ">
<path fill="none" stroke="#63b8ff" d="M1305.86,-244.88C1232.31,-235.92 1087.55,-218.28 996.9,-207.23"/>
<polygon fill="#63b8ff" stroke="#63b8ff" points="997.29,-203.76 986.94,-206.02 996.44,-210.71 997.29,-203.76"/>
</a>
</g>
</g>
<!-- Node28 -->
<g id="Node000028" class="node">
<title>Node28</title>
<g id="a_Node000028"><a xlink:title=" ">
<polygon fill="#e0e0e0" stroke="#999999" points="1154.5,-206 1017.5,-206 1017.5,-187 1154.5,-187 1154.5,-206"/>
<text text-anchor="middle" x="1086" y="-194" font-family="Helvetica,sans-Serif" font-size="10.00">G4LogicalSkinSurface.hh</text>
</a>
</g>
</g>
<!-- Node1&#45;&gt;Node28 -->
<g id="edge27_Node000001_Node000028" class="edge">
<title>Node1&#45;&gt;Node28</title>
<g id="a_edge27_Node000001_Node000028"><a xlink:title=" ">
<path fill="none" stroke="#63b8ff" d="M1309.26,-241.98C1262.96,-232.76 1189.02,-218.03 1139.04,-208.07"/>
<polygon fill="#63b8ff" stroke="#63b8ff" points="1139.56,-204.6 1129.07,-206.08 1138.2,-211.47 1139.56,-204.6"/>
</a>
</g>
</g>
<!-- Node29 -->
<g id="Node000029" class="node">
<title>Node29</title>
<g id="a_Node000029"><a xlink:title=" ">
<polygon fill="#e0e0e0" stroke="#999999" points="1236.5,-151 1169.5,-151 1169.5,-132 1236.5,-132 1236.5,-151"/>
<text text-anchor="middle" x="1203" y="-139" font-family="Helvetica,sans-Serif" font-size="10.00">globals.hh</text>
</a>
</g>
</g>
<!-- Node1&#45;&gt;Node29 -->
<g id="edge28_Node000001_Node000029" class="edge">
<title>Node1&#45;&gt;Node29</title>
<g id="a_edge28_Node000001_Node000029"><a xlink:title=" ">
<path fill="none" stroke="#63b8ff" d="M1305.8,-250.39C1271.39,-247.57 1226.47,-237.5 1203,-206 1193.54,-193.3 1194.7,-174.87 1197.53,-161.13"/>
<polygon fill="#63b8ff" stroke="#63b8ff" points="1200.95,-161.87 1200,-151.32 1194.16,-160.16 1200.95,-161.87"/>
</a>
</g>
</g>
<!-- Node30 -->
<g id="Node000030" class="node">
<title>Node30</title>
<g id="a_Node000030"><a xlink:title=" ">
<polygon fill="#e0e0e0" stroke="#999999" points="1272.5,-206 1211.5,-206 1211.5,-187 1272.5,-187 1272.5,-206"/>
<text text-anchor="middle" x="1242" y="-194" font-family="Helvetica,sans-Serif" font-size="10.00">TGraph.h</text>
</a>
</g>
</g>
<!-- Node1&#45;&gt;Node30 -->
<g id="edge29_Node000001_Node000030" class="edge">
<title>Node1&#45;&gt;Node30</title>
<g id="a_edge29_Node000001_Node000030"><a xlink:title=" ">
<path fill="none" stroke="#63b8ff" d="M1334.33,-241.98C1316.71,-233.5 1289.42,-220.35 1269.07,-210.54"/>
<polygon fill="#63b8ff" stroke="#63b8ff" points="1270.52,-207.36 1259.99,-206.17 1267.48,-213.66 1270.52,-207.36"/>
</a>
</g>
</g>
<!-- Node31 -->
<g id="Node000031" class="node">
<title>Node31</title>
<g id="a_Node000031"><a xlink:title=" ">
<polygon fill="#e0e0e0" stroke="#999999" points="1343.5,-206 1290.5,-206 1290.5,-187 1343.5,-187 1343.5,-206"/>
<text text-anchor="middle" x="1317" y="-194" font-family="Helvetica,sans-Serif" font-size="10.00">TH2D.h</text>
</a>
</g>
</g>
<!-- Node1&#45;&gt;Node31 -->
<g id="edge30_Node000001_Node000031" class="edge">
<title>Node1&#45;&gt;Node31</title>
<g id="a_edge30_Node000001_Node000031"><a xlink:title=" ">
<path fill="none" stroke="#63b8ff" d="M1346.22,-241.75C1341.38,-234.42 1334.32,-223.73 1328.36,-214.7"/>
<polygon fill="#63b8ff" stroke="#63b8ff" points="1331.1,-212.5 1322.67,-206.09 1325.26,-216.36 1331.1,-212.5"/>
</a>
</g>
</g>
<!-- Node32 -->
<g id="Node000032" class="node">
<title>Node32</title>
<g id="a_Node000032"><a xlink:title=" ">
<polygon fill="#e0e0e0" stroke="#999999" points="1412.5,-206 1361.5,-206 1361.5,-187 1412.5,-187 1412.5,-206"/>
<text text-anchor="middle" x="1387" y="-194" font-family="Helvetica,sans-Serif" font-size="10.00">variant</text>
</a>
</g>
</g>
<!-- Node1&#45;&gt;Node32 -->
<g id="edge31_Node000001_Node000032" class="edge">
<title>Node1&#45;&gt;Node32</title>
<g id="a_edge31_Node000001_Node000032"><a xlink:title=" ">
<path fill="none" stroke="#63b8ff" d="M1357.78,-241.75C1362.62,-234.42 1369.68,-223.73 1375.64,-214.7"/>
<polygon fill="#63b8ff" stroke="#63b8ff" points="1378.74,-216.36 1381.33,-206.09 1372.9,-212.5 1378.74,-216.36"/>
</a>
</g>
</g>
<!-- Node33 -->
<g id="Node000033" class="node">
<title>Node33</title>
<g id="a_Node000033"><a xlink:title=" ">
<polygon fill="#e0e0e0" stroke="#999999" points="1487,-206 1431,-206 1431,-187 1487,-187 1487,-206"/>
<text text-anchor="middle" x="1459" y="-194" font-family="Helvetica,sans-Serif" font-size="10.00">optional</text>
</a>
</g>
</g>
<!-- Node1&#45;&gt;Node33 -->
<g id="edge32_Node000001_Node000033" class="edge">
<title>Node1&#45;&gt;Node33</title>
<g id="a_edge32_Node000001_Node000033"><a xlink:title=" ">
<path fill="none" stroke="#63b8ff" d="M1369.19,-241.98C1386.25,-233.54 1412.63,-220.47 1432.4,-210.68"/>
<polygon fill="#63b8ff" stroke="#63b8ff" points="1434.09,-213.75 1441.5,-206.17 1430.98,-207.47 1434.09,-213.75"/>
</a>
</g>
</g>
<!-- Node34 -->
<g id="Node000034" class="node">
<title>Node34</title>
<g id="a_Node000034"><a xlink:title=" ">
<polygon fill="#e0e0e0" stroke="#999999" points="1357.5,-151 1254.5,-151 1254.5,-132 1357.5,-132 1357.5,-151"/>
<text text-anchor="middle" x="1306" y="-139" font-family="Helvetica,sans-Serif" font-size="10.00">G4ThreeVector.hh</text>
</a>
</g>
</g>
<!-- Node1&#45;&gt;Node34 -->
<g id="edge33_Node000001_Node000034" class="edge">
<title>Node1&#45;&gt;Node34</title>
<g id="a_edge33_Node000001_Node000034"><a xlink:title=" ">
<path fill="none" stroke="#63b8ff" d="M1398.23,-246.31C1450.59,-239.74 1525.11,-223.72 1496,-187 1487.79,-176.65 1419.08,-162.4 1366.62,-152.84"/>
<polygon fill="#63b8ff" stroke="#63b8ff" points="1367.16,-149.38 1356.7,-151.05 1365.92,-156.27 1367.16,-149.38"/>
</a>
</g>
</g>
<!-- Node35 -->
<g id="Node000035" class="node">
<title>Node35</title>
<g id="a_Node000035"><a xlink:title=" ">
<polygon fill="#e0e0e0" stroke="#999999" points="1661,-206 1543,-206 1543,-187 1661,-187 1661,-206"/>
<text text-anchor="middle" x="1602" y="-194" font-family="Helvetica,sans-Serif" font-size="10.00">G4RotationMatrix.hh</text>
</a>
</g>
</g>
<!-- Node1&#45;&gt;Node35 -->
<g id="edge34_Node000001_Node000035" class="edge">
<title>Node1&#45;&gt;Node35</title>
<g id="a_edge34_Node000001_Node000035"><a xlink:title=" ">
<path fill="none" stroke="#63b8ff" d="M1392.17,-241.98C1435.5,-232.8 1504.59,-218.15 1551.56,-208.19"/>
<polygon fill="#63b8ff" stroke="#63b8ff" points="1552.46,-211.58 1561.52,-206.08 1551.01,-204.73 1552.46,-211.58"/>
</a>
</g>
</g>
<!-- Node36 -->
<g id="Node000036" class="node">
<title>Node36</title>
<g id="a_Node000036"><a xlink:title=" ">
<polygon fill="#e0e0e0" stroke="#999999" points="1492,-151 1376,-151 1376,-132 1492,-132 1492,-151"/>
<text text-anchor="middle" x="1434" y="-139" font-family="Helvetica,sans-Serif" font-size="10.00">G4LogicalVolume.hh</text>
</a>
</g>
</g>
<!-- Node1&#45;&gt;Node36 -->
<g id="edge35_Node000001_Node000036" class="edge">
<title>Node1&#45;&gt;Node36</title>
<g id="a_edge35_Node000001_Node000036"><a xlink:title=" ">
<path fill="none" stroke="#63b8ff" d="M1398.21,-251.12C1477.74,-251.09 1635.34,-245.85 1670,-206 1675.54,-199.63 1675.39,-193.5 1670,-187 1664.48,-180.34 1566.91,-163.61 1498.97,-152.67"/>
<polygon fill="#63b8ff" stroke="#63b8ff" points="1499.19,-149.16 1488.76,-151.03 1498.08,-156.07 1499.19,-149.16"/>
</a>
</g>
</g>
<!-- Node37 -->
<g id="Node000037" class="node">
<title>Node37</title>
<g id="a_Node000037"><a xlink:href="_c_a_d_mesh_8hh_source.html" target="_top" xlink:title=" ">
<polygon fill="white" stroke="#666666" points="1855.5,-206 1776.5,-206 1776.5,-187 1855.5,-187 1855.5,-206"/>
<text text-anchor="middle" x="1816" y="-194" font-family="Helvetica,sans-Serif" font-size="10.00">CADMesh.hh</text>
</a>
</g>
</g>
<!-- Node1&#45;&gt;Node37 -->
<g id="edge36_Node000001_Node000037" class="edge">
<title>Node1&#45;&gt;Node37</title>
<g id="a_edge36_Node000001_Node000037"><a xlink:title=" ">
<path fill="none" stroke="#63b8ff" d="M1398.19,-245.22C1485.92,-235.2 1675.97,-213.49 1766.34,-203.17"/>
<polygon fill="#63b8ff" stroke="#63b8ff" points="1766.79,-206.64 1776.33,-202.03 1766,-199.69 1766.79,-206.64"/>
</a>
</g>
</g>
<!-- Node52 -->
<g id="Node000052" class="node">
<title>Node52</title>
<g id="a_Node000052"><a xlink:title=" ">
<polygon fill="#e0e0e0" stroke="#999999" points="1971,-206 1873,-206 1873,-187 1971,-187 1971,-206"/>
<text text-anchor="middle" x="1922" y="-194" font-family="Helvetica,sans-Serif" font-size="10.00">G4MultiUnion.hh</text>
</a>
</g>
</g>
<!-- Node1&#45;&gt;Node52 -->
<g id="edge57_Node000001_Node000052" class="edge">
<title>Node1&#45;&gt;Node52</title>
<g id="a_edge57_Node000001_Node000052"><a xlink:title=" ">
<path fill="none" stroke="#63b8ff" d="M1398.08,-247.46C1486.36,-241.42 1685.63,-226.8 1862.87,-206.19"/>
<polygon fill="#63b8ff" stroke="#63b8ff" points="1863.38,-209.66 1872.9,-205.02 1862.56,-202.71 1863.38,-209.66"/>
</a>
</g>
</g>
<!-- Node3 -->
<g id="Node000003" class="node">
<title>Node3</title>
<g id="a_Node000003"><a xlink:title=" ">
<polygon fill="#e0e0e0" stroke="#999999" points="810.5,-24.5 717.5,-24.5 717.5,-5.5 810.5,-5.5 810.5,-24.5"/>
<text text-anchor="middle" x="764" y="-12.5" font-family="Helvetica,sans-Serif" font-size="10.00">spdlog/spdlog.h</text>
</a>
</g>
</g>
<!-- Node2&#45;&gt;Node3 -->
<g id="edge2_Node000002_Node000003" class="edge">
<title>Node2&#45;&gt;Node3</title>
<g id="a_edge2_Node000002_Node000003"><a xlink:title=" ">
<path fill="none" stroke="#63b8ff" d="M815.91,-71.37C806.57,-61.4 790.99,-44.79 779.34,-32.36"/>
<polygon fill="#63b8ff" stroke="#63b8ff" points="781.74,-29.81 772.35,-24.91 776.63,-34.59 781.74,-29.81"/>
</a>
</g>
</g>
<!-- Node4 -->
<g id="Node000004" class="node">
<title>Node4</title>
<g id="a_Node000004"><a xlink:title=" ">
<polygon fill="#e0e0e0" stroke="#999999" points="939.5,-30 828.5,-30 828.5,0 939.5,0 939.5,-30"/>
<text text-anchor="start" x="836.5" y="-18" font-family="Helvetica,sans-Serif" font-size="10.00">spdlog/sinks/stdout</text>
<text text-anchor="middle" x="884" y="-7" font-family="Helvetica,sans-Serif" font-size="10.00">_color_sinks.h</text>
</a>
</g>
</g>
<!-- Node2&#45;&gt;Node4 -->
<g id="edge3_Node000002_Node000004" class="edge">
<title>Node2&#45;&gt;Node4</title>
<g id="a_edge3_Node000002_Node000004"><a xlink:title=" ">
<path fill="none" stroke="#63b8ff" d="M832.09,-71.37C840.1,-62.83 852.68,-49.41 863.45,-37.92"/>
<polygon fill="#63b8ff" stroke="#63b8ff" points="866.25,-40.05 870.54,-30.36 861.14,-35.26 866.25,-40.05"/>
</a>
</g>
</g>
<!-- Node5 -->
<g id="Node000005" class="node">
<title>Node5</title>
<g id="a_Node000005"><a xlink:title=" ">
<polygon fill="#e0e0e0" stroke="#999999" points="1473,-24.5 1415,-24.5 1415,-5.5 1473,-5.5 1473,-24.5"/>
<text text-anchor="middle" x="1444" y="-12.5" font-family="Helvetica,sans-Serif" font-size="10.00">memory</text>
</a>
</g>
</g>
<!-- Node2&#45;&gt;Node5 -->
<g id="edge4_Node000002_Node000005" class="edge">
<title>Node2&#45;&gt;Node5</title>
<g id="a_edge4_Node000002_Node000005"><a xlink:title=" ">
<path fill="none" stroke="#63b8ff" d="M873.69,-74.87C993.55,-62.5 1296.62,-31.21 1404.84,-20.04"/>
<polygon fill="#63b8ff" stroke="#63b8ff" points="1405.41,-23.5 1414.99,-18.99 1404.69,-16.54 1405.41,-23.5"/>
</a>
</g>
</g>
<!-- Node6 -->
<g id="Node000006" class="node">
<title>Node6</title>
<g id="a_Node000006"><a xlink:title=" ">
<polygon fill="#e0e0e0" stroke="#999999" points="1056,-24.5 958,-24.5 958,-5.5 1056,-5.5 1056,-24.5"/>
<text text-anchor="middle" x="1007" y="-12.5" font-family="Helvetica,sans-Serif" font-size="10.00">spdlog/fmt/fmt.h</text>
</a>
</g>
</g>
<!-- Node2&#45;&gt;Node6 -->
<g id="edge5_Node000002_Node000006" class="edge">
<title>Node2&#45;&gt;Node6</title>
<g id="a_edge5_Node000002_Node000006"><a xlink:title=" ">
<path fill="none" stroke="#63b8ff" d="M848.68,-71.37C880.69,-60.17 936.71,-40.58 972.8,-27.96"/>
<polygon fill="#63b8ff" stroke="#63b8ff" points="974.14,-31.2 982.42,-24.6 971.82,-24.59 974.14,-31.2"/>
</a>
</g>
</g>
<!-- Node8 -->
<g id="Node000008" class="node">
<title>Node8</title>
<g id="a_Node000008"><a xlink:href="_o_m_sim_input_data_8hh.html" target="_top" xlink:title="Definition of ParameterTable and OMSimInputData.">
<polygon fill="white" stroke="#666666" points="503.5,-151 388.5,-151 388.5,-132 503.5,-132 503.5,-151"/>
<text text-anchor="middle" x="446" y="-139" font-family="Helvetica,sans-Serif" font-size="10.00">OMSimInputData.hh</text>
</a>
</g>
</g>
<!-- Node7&#45;&gt;Node8 -->
<g id="edge7_Node000007_Node000008" class="edge">
<title>Node7&#45;&gt;Node8</title>
<g id="a_edge7_Node000007_Node000008"><a xlink:title=" ">
<path fill="none" stroke="#63b8ff" d="M501.4,-186.98C491.54,-179.07 476.65,-167.11 464.78,-157.58"/>
<polygon fill="#63b8ff" stroke="#63b8ff" points="466.79,-154.7 456.8,-151.17 462.4,-160.16 466.79,-154.7"/>
</a>
</g>
</g>
<!-- Node19 -->
<g id="Node000019" class="node">
<title>Node19</title>
<g id="a_Node000019"><a xlink:title=" ">
<polygon fill="#e0e0e0" stroke="#999999" points="757.5,-151 650.5,-151 650.5,-132 757.5,-132 757.5,-151"/>
<text text-anchor="middle" x="704" y="-139" font-family="Helvetica,sans-Serif" font-size="10.00">G4Transform3D.hh</text>
</a>
</g>
</g>
<!-- Node7&#45;&gt;Node19 -->
<g id="edge17_Node000007_Node000019" class="edge">
<title>Node7&#45;&gt;Node19</title>
<g id="a_edge17_Node000007_Node000019"><a xlink:title=" ">
<path fill="none" stroke="#63b8ff" d="M542.85,-186.98C575.5,-177.97 627.2,-163.7 663.2,-153.76"/>
<polygon fill="#63b8ff" stroke="#63b8ff" points="664.2,-157.12 672.91,-151.08 662.34,-150.37 664.2,-157.12"/>
</a>
</g>
</g>
<!-- Node20 -->
<g id="Node000020" class="node">
<title>Node20</title>
<g id="a_Node000020"><a xlink:title=" ">
<polygon fill="#e0e0e0" stroke="#999999" points="227,-151 119,-151 119,-132 227,-132 227,-151"/>
<text text-anchor="middle" x="173" y="-139" font-family="Helvetica,sans-Serif" font-size="10.00">G4VisAttributes.hh</text>
</a>
</g>
</g>
<!-- Node7&#45;&gt;Node20 -->
<g id="edge18_Node000007_Node000020" class="edge">
<title>Node7&#45;&gt;Node20</title>
<g id="a_edge18_Node000007_Node000020"><a xlink:title=" ">
<path fill="none" stroke="#63b8ff" d="M457.53,-186.98C397.4,-177.58 300.68,-162.46 236.98,-152.5"/>
<polygon fill="#63b8ff" stroke="#63b8ff" points="237.47,-149.04 227.05,-150.95 236.39,-155.95 237.47,-149.04"/>
</a>
</g>
</g>
<!-- Node21 -->
<g id="Node000021" class="node">
<title>Node21</title>
<g id="a_Node000021"><a xlink:title=" ">
<polygon fill="#e0e0e0" stroke="#999999" points="370.5,-151 245.5,-151 245.5,-132 370.5,-132 370.5,-151"/>
<text text-anchor="middle" x="308" y="-139" font-family="Helvetica,sans-Serif" font-size="10.00">G4SubtractionSolid.hh</text>
</a>
</g>
</g>
<!-- Node7&#45;&gt;Node21 -->
<g id="edge19_Node000007_Node000021" class="edge">
<title>Node7&#45;&gt;Node21</title>
<g id="a_edge19_Node000007_Node000021"><a xlink:title=" ">
<path fill="none" stroke="#63b8ff" d="M479.22,-186.98C444.38,-177.93 389.13,-163.58 350.86,-153.64"/>
<polygon fill="#63b8ff" stroke="#63b8ff" points="351.59,-150.21 341.03,-151.08 349.83,-156.98 351.59,-150.21"/>
</a>
</g>
</g>
<!-- Node22 -->
<g id="Node000022" class="node">
<title>Node22</title>
<g id="a_Node000022"><a xlink:title=" ">
<polygon fill="#e0e0e0" stroke="#999999" points="632,-151 522,-151 522,-132 632,-132 632,-151"/>
<text text-anchor="middle" x="577" y="-139" font-family="Helvetica,sans-Serif" font-size="10.00">G4PVPlacement.hh</text>
</a>
</g>
</g>
<!-- Node7&#45;&gt;Node22 -->
<g id="edge20_Node000007_Node000022" class="edge">
<title>Node7&#45;&gt;Node22</title>
<g id="a_edge20_Node000007_Node000022"><a xlink:title=" ">
<path fill="none" stroke="#63b8ff" d="M522.44,-186.98C532.15,-179.07 546.82,-167.11 558.5,-157.58"/>
<polygon fill="#63b8ff" stroke="#63b8ff" points="560.83,-160.2 566.37,-151.17 556.4,-154.78 560.83,-160.2"/>
</a>
</g>
</g>
<!-- Node8&#45;&gt;Node2 -->
<g id="edge8_Node000008_Node000002" class="edge">
<title>Node8&#45;&gt;Node2</title>
<g id="a_edge8_Node000008_Node000002"><a xlink:title=" ">
<path fill="none" stroke="#63b8ff" d="M500.96,-131.99C571.03,-121.15 691.72,-102.47 764.08,-91.27"/>
<polygon fill="#63b8ff" stroke="#63b8ff" points="765.05,-94.67 774.39,-89.68 763.98,-87.75 765.05,-94.67"/>
</a>
</g>
</g>
<!-- Node9 -->
<g id="Node000009" class="node">
<title>Node9</title>
<g id="a_Node000009"><a xlink:href="_o_m_sim_op_boundary_process_8hh_source.html" target="_top" xlink:title=" ">
<polygon fill="#fff0f0" stroke="red" points="561,-90.5 397,-90.5 397,-71.5 561,-71.5 561,-90.5"/>
<text text-anchor="middle" x="479" y="-78.5" font-family="Helvetica,sans-Serif" font-size="10.00">OMSimOpBoundaryProcess.hh</text>
</a>
</g>
</g>
<!-- Node8&#45;&gt;Node9 -->
<g id="edge9_Node000008_Node000009" class="edge">
<title>Node8&#45;&gt;Node9</title>
<g id="a_edge9_Node000008_Node000009"><a xlink:title=" ">
<path fill="none" stroke="#63b8ff" d="M450.87,-131.87C455.65,-123.4 463.07,-110.24 469.09,-99.57"/>
<polygon fill="#63b8ff" stroke="#63b8ff" points="472.25,-101.1 474.11,-90.67 466.15,-97.66 472.25,-101.1"/>
</a>
</g>
</g>
<!-- Node17 -->
<g id="Node000017" class="node">
<title>Node17</title>
<g id="a_Node000017"><a xlink:title=" ">
<polygon fill="#e0e0e0" stroke="#999999" points="247.5,-90.5 128.5,-90.5 128.5,-71.5 247.5,-71.5 247.5,-90.5"/>
<text text-anchor="middle" x="188" y="-78.5" font-family="Helvetica,sans-Serif" font-size="10.00">G4SystemOfUnits.hh</text>
</a>
</g>
</g>
<!-- Node8&#45;&gt;Node17 -->
<g id="edge15_Node000008_Node000017" class="edge">
<title>Node8&#45;&gt;Node17</title>
<g id="a_edge15_Node000008_Node000017"><a xlink:title=" ">
<path fill="none" stroke="#63b8ff" d="M408.48,-131.99C362.72,-121.62 285.31,-104.07 235.45,-92.76"/>
<polygon fill="#63b8ff" stroke="#63b8ff" points="236.09,-89.31 225.56,-90.52 234.54,-96.14 236.09,-89.31"/>
</a>
</g>
</g>
<!-- Node18 -->
<g id="Node000018" class="node">
<title>Node18</title>
<g id="a_Node000018"><a xlink:title=" ">
<polygon fill="#e0e0e0" stroke="#999999" points="378.5,-96 265.5,-96 265.5,-66 378.5,-66 378.5,-96"/>
<text text-anchor="start" x="273.5" y="-84" font-family="Helvetica,sans-Serif" font-size="10.00">boost/property_tree</text>
<text text-anchor="middle" x="322" y="-73" font-family="Helvetica,sans-Serif" font-size="10.00">/json_parser.hpp</text>
</a>
</g>
</g>
<!-- Node8&#45;&gt;Node18 -->
<g id="edge16_Node000008_Node000018" class="edge">
<title>Node8&#45;&gt;Node18</title>
<g id="a_edge16_Node000008_Node000018"><a xlink:title=" ">
<path fill="none" stroke="#63b8ff" d="M427.97,-131.99C410.57,-123.79 383.66,-111.09 361.31,-100.55"/>
<polygon fill="#63b8ff" stroke="#63b8ff" points="362.59,-97.28 352.05,-96.18 359.6,-103.61 362.59,-97.28"/>
</a>
</g>
</g>
<!-- Node10 -->
<g id="Node000010" class="node">
<title>Node10</title>
<g id="a_Node000010"><a xlink:title=" ">
<polygon fill="#e0e0e0" stroke="#999999" points="436.5,-24.5 323.5,-24.5 323.5,-5.5 436.5,-5.5 436.5,-24.5"/>
<text text-anchor="middle" x="380" y="-12.5" font-family="Helvetica,sans-Serif" font-size="10.00">G4OpticalPhoton.hh</text>
</a>
</g>
</g>
<!-- Node9&#45;&gt;Node10 -->
<g id="edge10_Node000009_Node000010" class="edge">
<title>Node9&#45;&gt;Node10</title>
<g id="a_edge10_Node000009_Node000010"><a xlink:title=" ">
<path fill="none" stroke="#63b8ff" d="M465.65,-71.37C449.34,-60.82 421.51,-42.84 402.01,-30.23"/>
<polygon fill="#63b8ff" stroke="#63b8ff" points="403.75,-27.19 393.46,-24.7 399.95,-33.07 403.75,-27.19"/>
</a>
</g>
</g>
<!-- Node11 -->
<g id="Node000011" class="node">
<title>Node11</title>
<g id="a_Node000011"><a xlink:title=" ">
<polygon fill="#e0e0e0" stroke="#999999" points="571,-24.5 455,-24.5 455,-5.5 571,-5.5 571,-24.5"/>
<text text-anchor="middle" x="513" y="-12.5" font-family="Helvetica,sans-Serif" font-size="10.00">G4OpticalSurface.hh</text>
</a>
</g>
</g>
<!-- Node9&#45;&gt;Node11 -->
<g id="edge11_Node000009_Node000011" class="edge">
<title>Node9&#45;&gt;Node11</title>
<g id="a_edge11_Node000009_Node000011"><a xlink:title=" ">
<path fill="none" stroke="#63b8ff" d="M483.59,-71.37C488.68,-61.78 497.04,-46.05 503.54,-33.8"/>
<polygon fill="#63b8ff" stroke="#63b8ff" points="506.67,-35.38 508.27,-24.91 500.49,-32.09 506.67,-35.38"/>
</a>
</g>
</g>
<!-- Node12 -->
<g id="Node000012" class="node">
<title>Node12</title>
<g id="a_Node000012"><a xlink:title=" ">
<polygon fill="#e0e0e0" stroke="#999999" points="699,-24.5 589,-24.5 589,-5.5 699,-5.5 699,-24.5"/>
<text text-anchor="middle" x="644" y="-12.5" font-family="Helvetica,sans-Serif" font-size="10.00">G4RandomTools.hh</text>
</a>
</g>
</g>
<!-- Node9&#45;&gt;Node12 -->
<g id="edge12_Node000009_Node000012" class="edge">
<title>Node9&#45;&gt;Node12</title>
<g id="a_edge12_Node000009_Node000012"><a xlink:title=" ">
<path fill="none" stroke="#63b8ff" d="M501.25,-71.37C529.87,-60.27 579.76,-40.92 612.33,-28.28"/>
<polygon fill="#63b8ff" stroke="#63b8ff" points="613.78,-31.48 621.84,-24.6 611.25,-24.95 613.78,-31.48"/>
</a>
</g>
</g>
<!-- Node13 -->
<g id="Node000013" class="node">
<title>Node13</title>
<g id="a_Node000013"><a xlink:title=" ">
<polygon fill="#e0e0e0" stroke="#999999" points="130,-24.5 0,-24.5 0,-5.5 130,-5.5 130,-24.5"/>
<text text-anchor="middle" x="65" y="-12.5" font-family="Helvetica,sans-Serif" font-size="10.00">G4VDiscreteProcess.hh</text>
</a>
</g>
</g>
<!-- Node9&#45;&gt;Node13 -->
<g id="edge13_Node000009_Node000013" class="edge">
<title>Node9&#45;&gt;Node13</title>
<g id="a_edge13_Node000009_Node000013"><a xlink:title=" ">
<path fill="none" stroke="#63b8ff" d="M423.55,-71.5C411.5,-69.67 398.83,-67.76 387,-66 276.83,-49.62 248.85,-48.36 139,-30 132.33,-28.89 125.33,-27.65 118.41,-26.39"/>
<polygon fill="#63b8ff" stroke="#63b8ff" points="118.85,-22.91 108.38,-24.53 117.57,-29.79 118.85,-22.91"/>
</a>
</g>
</g>
<!-- Node14 -->
<g id="Node000014" class="node">
<title>Node14</title>
<g id="a_Node000014"><a xlink:title=" ">
<polygon fill="#e0e0e0" stroke="#999999" points="305.5,-24.5 148.5,-24.5 148.5,-5.5 305.5,-5.5 305.5,-24.5"/>
<text text-anchor="middle" x="227" y="-12.5" font-family="Helvetica,sans-Serif" font-size="10.00">G4VUserTrackInformation.hh</text>
</a>
</g>
</g>
<!-- Node9&#45;&gt;Node14 -->
<g id="edge14_Node000009_Node000014" class="edge">
<title>Node9&#45;&gt;Node14</title>
<g id="a_edge14_Node000009_Node000014"><a xlink:title=" ">
<path fill="none" stroke="#63b8ff" d="M445.28,-71.44C400.11,-59.96 319.91,-39.6 270.32,-27"/>
<polygon fill="#63b8ff" stroke="#63b8ff" points="271.08,-23.58 260.52,-24.51 269.36,-30.37 271.08,-23.58"/>
</a>
</g>
</g>
<!-- Node23&#45;&gt;Node2 -->
<g id="edge22_Node000023_Node000002" class="edge">
<title>Node23&#45;&gt;Node2</title>
<g id="a_edge22_Node000023_Node000002"><a xlink:title=" ">
<path fill="none" stroke="#63b8ff" d="M893.7,-186.97C877.23,-179.8 855.87,-167.96 843,-151 831.87,-136.33 827.26,-115.52 825.35,-100.59"/>
<polygon fill="#63b8ff" stroke="#63b8ff" points="828.82,-100.13 824.35,-90.53 821.85,-100.82 828.82,-100.13"/>
</a>
</g>
</g>
<!-- Node24 -->
<g id="Node000024" class="node">
<title>Node24</title>
<g id="a_Node000024"><a xlink:title=" ">
<polygon fill="#e0e0e0" stroke="#999999" points="1151.5,-151 1096.5,-151 1096.5,-132 1151.5,-132 1151.5,-151"/>
<text text-anchor="middle" x="1124" y="-139" font-family="Helvetica,sans-Serif" font-size="10.00">fstream</text>
</a>
</g>
</g>
<!-- Node23&#45;&gt;Node24 -->
<g id="edge23_Node000023_Node000024" class="edge">
<title>Node23&#45;&gt;Node24</title>
<g id="a_edge23_Node000023_Node000024"><a xlink:title=" ">
<path fill="none" stroke="#63b8ff" d="M950.26,-186.98C987.5,-177.45 1047.72,-162.03 1086.58,-152.08"/>
<polygon fill="#63b8ff" stroke="#63b8ff" points="1087.63,-155.42 1096.45,-149.55 1085.9,-148.64 1087.63,-155.42"/>
</a>
</g>
</g>
<!-- Node25 -->
<g id="Node000025" class="node">
<title>Node25</title>
<g id="a_Node000025"><a xlink:title=" ">
<polygon fill="#e0e0e0" stroke="#999999" points="1022,-151 938,-151 938,-132 1022,-132 1022,-151"/>
<text text-anchor="middle" x="980" y="-139" font-family="Helvetica,sans-Serif" font-size="10.00">boost/any.hpp</text>
</a>
</g>
</g>
<!-- Node23&#45;&gt;Node25 -->
<g id="edge24_Node000023_Node000025" class="edge">
<title>Node23&#45;&gt;Node25</title>
<g id="a_edge24_Node000023_Node000025"><a xlink:title=" ">
<path fill="none" stroke="#63b8ff" d="M927.12,-186.98C936.44,-179.15 950.47,-167.34 961.74,-157.86"/>
<polygon fill="#63b8ff" stroke="#63b8ff" points="964.29,-160.29 969.69,-151.17 959.79,-154.93 964.29,-160.29"/>
</a>
</g>
</g>
<!-- Node26 -->
<g id="Node000026" class="node">
<title>Node26</title>
<g id="a_Node000026"><a xlink:title=" ">
<polygon fill="#e0e0e0" stroke="#999999" points="920,-151 852,-151 852,-132 920,-132 920,-151"/>
<text text-anchor="middle" x="886" y="-139" font-family="Helvetica,sans-Serif" font-size="10.00">sys/time.h</text>
</a>
</g>
</g>
<!-- Node23&#45;&gt;Node26 -->
<g id="edge25_Node000023_Node000026" class="edge">
<title>Node23&#45;&gt;Node26</title>
<g id="a_edge25_Node000023_Node000026"><a xlink:title=" ">
<path fill="none" stroke="#63b8ff" d="M911.88,-186.75C907.64,-179.49 901.47,-168.95 896.22,-159.98"/>
<polygon fill="#63b8ff" stroke="#63b8ff" points="899.09,-157.95 891.02,-151.09 893.05,-161.49 899.09,-157.95"/>
</a>
</g>
</g>
<!-- Node27 -->
<g id="Node000027" class="node">
<title>Node27</title>
<g id="a_Node000027"><a xlink:title=" ">
<polygon fill="#e0e0e0" stroke="#999999" points="1078,-151 1040,-151 1040,-132 1078,-132 1078,-151"/>
<text text-anchor="middle" x="1059" y="-139" font-family="Helvetica,sans-Serif" font-size="10.00">map</text>
</a>
</g>
</g>
<!-- Node23&#45;&gt;Node27 -->
<g id="edge26_Node000023_Node000027" class="edge">
<title>Node23&#45;&gt;Node27</title>
<g id="a_edge26_Node000023_Node000027"><a xlink:title=" ">
<path fill="none" stroke="#63b8ff" d="M939.81,-186.98C964.42,-177.8 1003.66,-163.16 1030.33,-153.2"/>
<polygon fill="#63b8ff" stroke="#63b8ff" points="1031.74,-156.41 1039.88,-149.63 1029.29,-149.85 1031.74,-156.41"/>
</a>
</g>
</g>
<!-- Node37&#45;&gt;Node5 -->
<g id="edge42_Node000037_Node000005" class="edge">
<title>Node37&#45;&gt;Node5</title>
<g id="a_edge42_Node000037_Node000005"><a xlink:title=" ">
<path fill="none" stroke="#63b8ff" d="M1811.19,-186.85C1803.25,-173.31 1786.17,-147.13 1765,-132 1675.49,-68.04 1546.97,-35.84 1483.11,-22.97"/>
<polygon fill="#63b8ff" stroke="#63b8ff" points="1483.55,-19.49 1473.06,-21 1482.2,-26.36 1483.55,-19.49"/>
</a>
</g>
</g>
<!-- Node37&#45;&gt;Node24 -->
<g id="edge53_Node000037_Node000024" class="edge">
<title>Node37&#45;&gt;Node24</title>
<g id="a_edge53_Node000037_Node000024"><a xlink:title=" ">
<path fill="none" stroke="#63b8ff" d="M1776.11,-193.16C1648.7,-185.63 1254.98,-161.97 1161.84,-150.72"/>
<polygon fill="#63b8ff" stroke="#63b8ff" points="1162.17,-147.23 1151.79,-149.38 1161.24,-154.17 1162.17,-147.23"/>
</a>
</g>
</g>
<!-- Node37&#45;&gt;Node27 -->
<g id="edge39_Node000037_Node000027" class="edge">
<title>Node37&#45;&gt;Node27</title>
<g id="a_edge39_Node000037_Node000027"><a xlink:title=" ">
<path fill="none" stroke="#63b8ff" d="M1776.36,-193.2C1626.89,-184.5 1105.09,-153.99 1088,-151 1087.9,-150.98 1087.8,-150.96 1087.7,-150.95"/>
<polygon fill="#63b8ff" stroke="#63b8ff" points="1088.73,-147.59 1078.2,-148.78 1087.17,-154.42 1088.73,-147.59"/>
</a>
</g>
</g>
<!-- Node37&#45;&gt;Node29 -->
<g id="edge52_Node000037_Node000029" class="edge">
<title>Node37&#45;&gt;Node29</title>
<g id="a_edge52_Node000037_Node000029"><a xlink:title=" ">
<path fill="none" stroke="#63b8ff" d="M1776.21,-193C1667.57,-186.1 1366.59,-166.3 1246.75,-150.89"/>
<polygon fill="#63b8ff" stroke="#63b8ff" points="1247.11,-147.41 1236.74,-149.56 1246.19,-154.35 1247.11,-147.41"/>
</a>
</g>
</g>
<!-- Node37&#45;&gt;Node34 -->
<g id="edge40_Node000037_Node000034" class="edge">
<title>Node37&#45;&gt;Node34</title>
<g id="a_edge40_Node000037_Node000034"><a xlink:title=" ">
<path fill="none" stroke="#63b8ff" d="M1776.3,-192.1C1699.63,-185.41 1525.59,-169.68 1367.93,-151.06"/>
<polygon fill="#63b8ff" stroke="#63b8ff" points="1367.91,-147.54 1357.57,-149.83 1367.08,-154.49 1367.91,-147.54"/>
</a>
</g>
</g>
<!-- Node37&#45;&gt;Node36 -->
<g id="edge47_Node000037_Node000036" class="edge">
<title>Node37&#45;&gt;Node36</title>
<g id="a_edge47_Node000037_Node000036"><a xlink:title=" ">
<path fill="none" stroke="#63b8ff" d="M1776.2,-189.98C1711.33,-180.98 1582.04,-163.04 1502.28,-151.97"/>
<polygon fill="#63b8ff" stroke="#63b8ff" points="1502.71,-148.5 1492.32,-150.59 1501.75,-155.43 1502.71,-148.5"/>
</a>
</g>
</g>
<!-- Node38 -->
<g id="Node000038" class="node">
<title>Node38</title>
<g id="a_Node000038"><a xlink:title=" ">
<polygon fill="#e0e0e0" stroke="#999999" points="1886,-151 1812,-151 1812,-132 1886,-132 1886,-151"/>
<text text-anchor="middle" x="1849" y="-139" font-family="Helvetica,sans-Serif" font-size="10.00">G4String.hh</text>
</a>
</g>
</g>
<!-- Node37&#45;&gt;Node38 -->
<g id="edge37_Node000037_Node000038" class="edge">
<title>Node37&#45;&gt;Node38</title>
<g id="a_edge37_Node000037_Node000038"><a xlink:title=" ">
<path fill="none" stroke="#63b8ff" d="M1821.45,-186.75C1826.01,-179.42 1832.67,-168.73 1838.29,-159.7"/>
<polygon fill="#63b8ff" stroke="#63b8ff" points="1841.34,-161.43 1843.65,-151.09 1835.4,-157.73 1841.34,-161.43"/>
</a>
</g>
</g>
<!-- Node39 -->
<g id="Node000039" class="node">
<title>Node39</title>
<g id="a_Node000039"><a xlink:title=" ">
<polygon fill="#e0e0e0" stroke="#999999" points="1968,-151 1904,-151 1904,-132 1968,-132 1968,-151"/>
<text text-anchor="middle" x="1936" y="-139" font-family="Helvetica,sans-Serif" font-size="10.00">algorithm</text>
</a>
</g>
</g>
<!-- Node37&#45;&gt;Node39 -->
<g id="edge38_Node000037_Node000039" class="edge">
<title>Node37&#45;&gt;Node39</title>
<g id="a_edge38_Node000037_Node000039"><a xlink:title=" ">
<path fill="none" stroke="#63b8ff" d="M1835.28,-186.98C1854.67,-178.42 1884.81,-165.11 1907.07,-155.28"/>
<polygon fill="#63b8ff" stroke="#63b8ff" points="1908.64,-158.41 1916.37,-151.17 1905.81,-152.01 1908.64,-158.41"/>
</a>
</g>
</g>
<!-- Node40 -->
<g id="Node000040" class="node">
<title>Node40</title>
<g id="a_Node000040"><a xlink:title=" ">
<polygon fill="#e0e0e0" stroke="#999999" points="2105.5,-151 1986.5,-151 1986.5,-132 2105.5,-132 2105.5,-151"/>
<text text-anchor="middle" x="2046" y="-139" font-family="Helvetica,sans-Serif" font-size="10.00">G4TriangularFacet.hh</text>
</a>
</g>
</g>
<!-- Node37&#45;&gt;Node40 -->
<g id="edge41_Node000037_Node000040" class="edge">
<title>Node37&#45;&gt;Node40</title>
<g id="a_edge41_Node000037_Node000040"><a xlink:title=" ">
<path fill="none" stroke="#63b8ff" d="M1852.95,-186.98C1892.57,-177.86 1955.59,-163.33 1998.77,-153.38"/>
<polygon fill="#63b8ff" stroke="#63b8ff" points="1999.8,-156.74 2008.76,-151.08 1998.23,-149.92 1999.8,-156.74"/>
</a>
</g>
</g>
<!-- Node41 -->
<g id="Node000041" class="node">
<title>Node41</title>
<g id="a_Node000041"><a xlink:title=" ">
<polygon fill="#e0e0e0" stroke="#999999" points="2170.5,-151 2123.5,-151 2123.5,-132 2170.5,-132 2170.5,-151"/>
<text text-anchor="middle" x="2147" y="-139" font-family="Helvetica,sans-Serif" font-size="10.00">vector</text>
</a>
</g>
</g>
<!-- Node37&#45;&gt;Node41 -->
<g id="edge43_Node000037_Node000041" class="edge">
<title>Node37&#45;&gt;Node41</title>
<g id="a_edge43_Node000037_Node000041"><a xlink:title=" ">
<path fill="none" stroke="#63b8ff" d="M1855.54,-188.39C1858.4,-187.91 1861.24,-187.44 1864,-187 1972.13,-169.68 2002.85,-173.28 2113.43,-151.13"/>
<polygon fill="#63b8ff" stroke="#63b8ff" points="2114.2,-154.54 2123.31,-149.12 2112.81,-147.68 2114.2,-154.54"/>
</a>
</g>
</g>
<!-- Node42 -->
<g id="Node000042" class="node">
<title>Node42</title>
<g id="a_Node000042"><a xlink:title=" ">
<polygon fill="#e0e0e0" stroke="#999999" points="2249,-151 2189,-151 2189,-132 2249,-132 2249,-151"/>
<text text-anchor="middle" x="2219" y="-139" font-family="Helvetica,sans-Serif" font-size="10.00">iostream</text>
</a>
</g>
</g>
<!-- Node37&#45;&gt;Node42 -->
<g id="edge44_Node000037_Node000042" class="edge">
<title>Node37&#45;&gt;Node42</title>
<g id="a_edge44_Node000037_Node000042"><a xlink:title=" ">
<path fill="none" stroke="#63b8ff" d="M1855.52,-188.3C1858.39,-187.84 1861.24,-187.4 1864,-187 2000.6,-167.14 2038.77,-173.75 2178.58,-151.08"/>
<polygon fill="#63b8ff" stroke="#63b8ff" points="2179.52,-154.47 2188.82,-149.39 2178.39,-147.56 2179.52,-154.47"/>
</a>
</g>
</g>
<!-- Node43 -->
<g id="Node000043" class="node">
<title>Node43</title>
<g id="a_Node000043"><a xlink:title=" ">
<polygon fill="#e0e0e0" stroke="#999999" points="2311,-151 2267,-151 2267,-132 2311,-132 2311,-151"/>
<text text-anchor="middle" x="2289" y="-139" font-family="Helvetica,sans-Serif" font-size="10.00">string</text>
</a>
</g>
</g>
<!-- Node37&#45;&gt;Node43 -->
<g id="edge45_Node000037_Node000043" class="edge">
<title>Node37&#45;&gt;Node43</title>
<g id="a_edge45_Node000037_Node000043"><a xlink:title=" ">
<path fill="none" stroke="#63b8ff" d="M1855.51,-188.23C1858.38,-187.79 1861.23,-187.37 1864,-187 2035.05,-164.08 2083.2,-181.69 2256.78,-150.9"/>
<polygon fill="#63b8ff" stroke="#63b8ff" points="2257.54,-154.32 2266.76,-149.1 2256.29,-147.43 2257.54,-154.32"/>
</a>
</g>
</g>
<!-- Node44 -->
<g id="Node000044" class="node">
<title>Node44</title>
<g id="a_Node000044"><a xlink:title=" ">
<polygon fill="#e0e0e0" stroke="#999999" points="2459,-151 2329,-151 2329,-132 2459,-132 2459,-151"/>
<text text-anchor="middle" x="2394" y="-139" font-family="Helvetica,sans-Serif" font-size="10.00">G4AssemblyVolume.hh</text>
</a>
</g>
</g>
<!-- Node37&#45;&gt;Node44 -->
<g id="edge46_Node000037_Node000044" class="edge">
<title>Node37&#45;&gt;Node44</title>
<g id="a_edge46_Node000037_Node000044"><a xlink:title=" ">
<path fill="none" stroke="#63b8ff" d="M1855.51,-188.19C1858.38,-187.76 1861.23,-187.35 1864,-187 2062.41,-161.66 2115.94,-170.31 2318.57,-151.1"/>
<polygon fill="#63b8ff" stroke="#63b8ff" points="2319.02,-154.57 2328.64,-150.13 2318.35,-147.61 2319.02,-154.57"/>
</a>
</g>
</g>
<!-- Node45 -->
<g id="Node000045" class="node">
<title>Node45</title>
<g id="a_Node000045"><a xlink:title=" ">
<polygon fill="#e0e0e0" stroke="#999999" points="2563,-151 2477,-151 2477,-132 2563,-132 2563,-151"/>
<text text-anchor="middle" x="2520" y="-139" font-family="Helvetica,sans-Serif" font-size="10.00">G4Material.hh</text>
</a>
</g>
</g>
<!-- Node37&#45;&gt;Node45 -->
<g id="edge48_Node000037_Node000045" class="edge">
<title>Node37&#45;&gt;Node45</title>
<g id="a_edge48_Node000037_Node000045"><a xlink:title=" ">
<path fill="none" stroke="#63b8ff" d="M1855.76,-188.09C1858.54,-187.69 1861.31,-187.32 1864,-187 2127.81,-155.89 2199,-180.12 2466.89,-151"/>
<polygon fill="#63b8ff" stroke="#63b8ff" points="2467.36,-154.47 2476.92,-149.89 2466.59,-147.51 2467.36,-154.47"/>
</a>
</g>
</g>
<!-- Node46 -->
<g id="Node000046" class="node">
<title>Node46</title>
<g id="a_Node000046"><a xlink:title=" ">
<polygon fill="#e0e0e0" stroke="#999999" points="2705,-151 2581,-151 2581,-132 2705,-132 2705,-151"/>
<text text-anchor="middle" x="2643" y="-139" font-family="Helvetica,sans-Serif" font-size="10.00">G4TessellatedSolid.hh</text>
</a>
</g>
</g>
<!-- Node37&#45;&gt;Node46 -->
<g id="edge49_Node000037_Node000046" class="edge">
<title>Node37&#45;&gt;Node46</title>
<g id="a_edge49_Node000037_Node000046"><a xlink:title=" ">
<path fill="none" stroke="#63b8ff" d="M1855.76,-188.07C1858.54,-187.67 1861.31,-187.31 1864,-187 2173.7,-151.84 2256.3,-177.18 2570.37,-151.07"/>
<polygon fill="#63b8ff" stroke="#63b8ff" points="2571.02,-154.53 2580.69,-150.2 2570.43,-147.56 2571.02,-154.53"/>
</a>
</g>
</g>
<!-- Node47 -->
<g id="Node000047" class="node">
<title>Node47</title>
<g id="a_Node000047"><a xlink:title=" ">
<polygon fill="#e0e0e0" stroke="#999999" points="2782.5,-151 2723.5,-151 2723.5,-132 2782.5,-132 2782.5,-151"/>
<text text-anchor="middle" x="2753" y="-139" font-family="Helvetica,sans-Serif" font-size="10.00">G4Tet.hh</text>
</a>
</g>
</g>
<!-- Node37&#45;&gt;Node47 -->
<g id="edge50_Node000037_Node000047" class="edge">
<title>Node37&#45;&gt;Node47</title>
<g id="a_edge50_Node000037_Node000047"><a xlink:title=" ">
<path fill="none" stroke="#63b8ff" d="M1855.75,-188.04C1858.54,-187.65 1861.31,-187.29 1864,-187 2236.58,-146.3 2337.24,-198.51 2713.21,-150.82"/>
<polygon fill="#63b8ff" stroke="#63b8ff" points="2713.81,-154.27 2723.28,-149.53 2712.92,-147.33 2713.81,-154.27"/>
</a>
</g>
</g>
<!-- Node48 -->
<g id="Node000048" class="node">
<title>Node48</title>
<g id="a_Node000048"><a xlink:title=" ">
<polygon fill="#e0e0e0" stroke="#999999" points="2905,-151 2801,-151 2801,-132 2905,-132 2905,-151"/>
<text text-anchor="middle" x="2853" y="-139" font-family="Helvetica,sans-Serif" font-size="10.00">G4UIcommand.hh</text>
</a>
</g>
</g>
<!-- Node37&#45;&gt;Node48 -->
<g id="edge51_Node000037_Node000048" class="edge">
<title>Node37&#45;&gt;Node48</title>
<g id="a_edge51_Node000037_Node000048"><a xlink:title=" ">
<path fill="none" stroke="#63b8ff" d="M1855.75,-188.03C1858.54,-187.64 1861.31,-187.29 1864,-187 2271.09,-143.27 2379.13,-186.81 2790.71,-151.01"/>
<polygon fill="#63b8ff" stroke="#63b8ff" points="2791.14,-154.49 2800.8,-150.12 2790.53,-147.51 2791.14,-154.49"/>
</a>
</g>
</g>
<!-- Node49 -->
<g id="Node000049" class="node">
<title>Node49</title>
<g id="a_Node000049"><a xlink:title=" ">
<polygon fill="#e0e0e0" stroke="#999999" points="1566,-151 1510,-151 1510,-132 1566,-132 1566,-151"/>
<text text-anchor="middle" x="1538" y="-139" font-family="Helvetica,sans-Serif" font-size="10.00">sstream</text>
</a>
</g>
</g>
<!-- Node37&#45;&gt;Node49 -->
<g id="edge54_Node000037_Node000049" class="edge">
<title>Node37&#45;&gt;Node49</title>
<g id="a_edge54_Node000037_Node000049"><a xlink:title=" ">
<path fill="none" stroke="#63b8ff" d="M1776.42,-188.62C1728.77,-180.23 1646.37,-165.39 1576,-151 1575.9,-150.98 1575.8,-150.96 1575.7,-150.94"/>
<polygon fill="#63b8ff" stroke="#63b8ff" points="1576.7,-147.57 1566.2,-148.93 1575.26,-154.42 1576.7,-147.57"/>
</a>
</g>
</g>
<!-- Node50 -->
<g id="Node000050" class="node">
<title>Node50</title>
<g id="a_Node000050"><a xlink:title=" ">
<polygon fill="#e0e0e0" stroke="#999999" points="1651.5,-151 1584.5,-151 1584.5,-132 1651.5,-132 1651.5,-151"/>
<text text-anchor="middle" x="1618" y="-139" font-family="Helvetica,sans-Serif" font-size="10.00">streambuf</text>
</a>
</g>
</g>
<!-- Node37&#45;&gt;Node50 -->
<g id="edge55_Node000037_Node000050" class="edge">
<title>Node37&#45;&gt;Node50</title>
<g id="a_edge55_Node000037_Node000050"><a xlink:title=" ">
<path fill="none" stroke="#63b8ff" d="M1784.19,-186.98C1750.51,-177.97 1697.2,-163.7 1660.08,-153.76"/>
<polygon fill="#63b8ff" stroke="#63b8ff" points="1660.63,-150.29 1650.06,-151.08 1658.82,-157.05 1660.63,-150.29"/>
</a>
</g>
</g>
<!-- Node51 -->
<g id="Node000051" class="node">
<title>Node51</title>
<g id="a_Node000051"><a xlink:title=" ">
<polygon fill="#e0e0e0" stroke="#999999" points="1756,-151 1670,-151 1670,-132 1756,-132 1756,-151"/>
<text text-anchor="middle" x="1713" y="-139" font-family="Helvetica,sans-Serif" font-size="10.00">Randomize.hh</text>
</a>
</g>
</g>
<!-- Node37&#45;&gt;Node51 -->
<g id="edge56_Node000037_Node000051" class="edge">
<title>Node37&#45;&gt;Node51</title>
<g id="a_edge56_Node000037_Node000051"><a xlink:title=" ">
<path fill="none" stroke="#63b8ff" d="M1799.45,-186.98C1783.11,-178.57 1757.87,-165.59 1738.87,-155.81"/>
<polygon fill="#63b8ff" stroke="#63b8ff" points="1740.34,-152.63 1729.85,-151.17 1737.14,-158.86 1740.34,-152.63"/>
</a>
</g>
</g>
</g>
</svg>
