<?xml version="1.0" encoding="UTF-8" standalone="no"?>
<!DOCTYPE svg PUBLIC "-//W3C//DTD SVG 1.1//EN"
 "http://www.w3.org/Graphics/SVG/1.1/DTD/svg11.dtd">
<!-- Generated by graphviz version 2.43.0 (0)
 -->
<!-- Title: OMSimPMTConstruction.hh Pages: 1 -->
<svg width="2134pt" height="253pt"
 viewBox="0.00 0.00 2133.60 252.86" xmlns="http://www.w3.org/2000/svg" xmlns:xlink="http://www.w3.org/1999/xlink">
<g id="graph0" class="graph" transform="scale(1 1) rotate(0) translate(4 248.86)">
<title>OMSimPMTConstruction.hh</title>
<polygon fill="white" stroke="transparent" points="-4,4 -4,-248.86 2129.6,-248.86 2129.6,4 -4,4"/>
<!-- Node1 -->
<g id="node1" class="node">
<title>Node1</title>
<g id="a_node1"><a xlink:title="Construction of the PMTs.">
<polygon fill="#bfbfbf" stroke="black" points="878.5,-224.5 878.5,-243.5 1027.5,-243.5 1027.5,-224.5 878.5,-224.5"/>
<text text-anchor="middle" x="953" y="-231.5" font-family="Helvetica,sans-Serif" font-size="10.00">OMSimPMTConstruction.hh</text>
</a>
</g>
</g>
<!-- Node1&#45;&gt;Node1 -->
<g id="edge62" class="edge">
<title>Node1&#45;&gt;Node1</title>
<path fill="none" stroke="midnightblue" d="M1002.43,-244.29C1025.41,-245.42 1045.5,-241.99 1045.5,-234 1045.5,-224.87 1019.26,-221.69 992.45,-224.47"/>
<polygon fill="midnightblue" stroke="midnightblue" points="1002.69,-240.8 992.45,-243.53 1002.15,-247.78 1002.69,-240.8"/>
</g>
<!-- Node2 -->
<g id="node2" class="node">
<title>Node2</title>
<g id="a_node2"><a xlink:href="_o_m_sim_d_e_g_g_8hh.html" target="_top" xlink:title="Construction of the DEGG class. From DOUMEKI.">
<polygon fill="white" stroke="black" points="417.5,-56.5 417.5,-75.5 512.5,-75.5 512.5,-56.5 417.5,-56.5"/>
<text text-anchor="middle" x="465" y="-63.5" font-family="Helvetica,sans-Serif" font-size="10.00">OMSimDEGG.hh</text>
</a>
</g>
</g>
<!-- Node1&#45;&gt;Node2 -->
<g id="edge1" class="edge">
<title>Node1&#45;&gt;Node2</title>
<path fill="none" stroke="midnightblue" d="M909.2,-221.91C876.44,-213.35 830.64,-200.84 791,-188 674.41,-150.24 537.74,-96.28 486.14,-75.56"/>
<polygon fill="midnightblue" stroke="midnightblue" points="908.37,-225.31 918.93,-224.43 910.13,-218.53 908.37,-225.31"/>
</g>
<!-- Node8 -->
<g id="node8" class="node">
<title>Node8</title>
<g id="a_node8"><a xlink:href="_o_m_sim_l_o_m16_8hh.html" target="_top" xlink:title="Construction of LOM16.">
<polygon fill="white" stroke="black" points="569.5,-56.5 569.5,-75.5 670.5,-75.5 670.5,-56.5 569.5,-56.5"/>
<text text-anchor="middle" x="620" y="-63.5" font-family="Helvetica,sans-Serif" font-size="10.00">OMSimLOM16.hh</text>
</a>
</g>
</g>
<!-- Node1&#45;&gt;Node8 -->
<g id="edge7" class="edge">
<title>Node1&#45;&gt;Node8</title>
<path fill="none" stroke="midnightblue" d="M917.27,-221.1C893.32,-212.73 861.3,-200.79 834,-188 755.54,-151.25 666.95,-96.7 633.63,-75.69"/>
<polygon fill="midnightblue" stroke="midnightblue" points="916.4,-224.5 927,-224.46 918.68,-217.89 916.4,-224.5"/>
</g>
<!-- Node10 -->
<g id="node10" class="node">
<title>Node10</title>
<g id="a_node10"><a xlink:href="_o_m_sim_l_o_m18_8hh.html" target="_top" xlink:title="Construction of LOM18.">
<polygon fill="white" stroke="black" points="688.5,-56.5 688.5,-75.5 789.5,-75.5 789.5,-56.5 688.5,-56.5"/>
<text text-anchor="middle" x="739" y="-63.5" font-family="Helvetica,sans-Serif" font-size="10.00">OMSimLOM18.hh</text>
</a>
</g>
</g>
<!-- Node1&#45;&gt;Node10 -->
<g id="edge13" class="edge">
<title>Node1&#45;&gt;Node10</title>
<path fill="none" stroke="midnightblue" d="M921.65,-220.46C903.43,-212.47 880.51,-201.16 862,-188 812.2,-152.58 763.66,-96.78 746,-75.57"/>
<polygon fill="midnightblue" stroke="midnightblue" points="920.38,-223.73 930.96,-224.44 923.14,-217.29 920.38,-223.73"/>
</g>
<!-- Node12 -->
<g id="node12" class="node">
<title>Node12</title>
<g id="a_node12"><a xlink:href="_o_m_sim_m_d_o_m_8hh.html" target="_top" xlink:title="Construction of mDOM.">
<polygon fill="white" stroke="black" points="923,-56.5 923,-75.5 1023,-75.5 1023,-56.5 923,-56.5"/>
<text text-anchor="middle" x="973" y="-63.5" font-family="Helvetica,sans-Serif" font-size="10.00">OMSimMDOM.hh</text>
</a>
</g>
</g>
<!-- Node1&#45;&gt;Node12 -->
<g id="edge19" class="edge">
<title>Node1&#45;&gt;Node12</title>
<path fill="none" stroke="midnightblue" d="M991.38,-220.5C1006.51,-213.48 1022.32,-203.02 1031,-188 1054.42,-147.45 1005.31,-95.98 983.12,-75.74"/>
<polygon fill="midnightblue" stroke="midnightblue" points="989.95,-217.31 982.12,-224.44 992.69,-223.75 989.95,-217.31"/>
</g>
<!-- Node16 -->
<g id="node16" class="node">
<title>Node16</title>
<g id="a_node16"><a xlink:href="_o_m_sim_optical_module_8hh.html" target="_top" xlink:title=" ">
<polygon fill="white" stroke="black" points="884.5,-168.5 884.5,-187.5 1021.5,-187.5 1021.5,-168.5 884.5,-168.5"/>
<text text-anchor="middle" x="953" y="-175.5" font-family="Helvetica,sans-Serif" font-size="10.00">OMSimOpticalModule.hh</text>
</a>
</g>
</g>
<!-- Node1&#45;&gt;Node16 -->
<g id="edge27" class="edge">
<title>Node1&#45;&gt;Node16</title>
<path fill="none" stroke="midnightblue" d="M953,-213.8C953,-204.91 953,-194.78 953,-187.75"/>
<polygon fill="midnightblue" stroke="midnightblue" points="949.5,-214.08 953,-224.08 956.5,-214.08 949.5,-214.08"/>
</g>
<!-- Node23 -->
<g id="node23" class="node">
<title>Node23</title>
<g id="a_node23"><a xlink:href="_o_m_sim_p_m_t_construction_8cc.html" target="_top" xlink:title=" ">
<polygon fill="white" stroke="black" points="1776.5,-56.5 1776.5,-75.5 1923.5,-75.5 1923.5,-56.5 1776.5,-56.5"/>
<text text-anchor="middle" x="1850" y="-63.5" font-family="Helvetica,sans-Serif" font-size="10.00">OMSimPMTConstruction.cc</text>
</a>
</g>
</g>
<!-- Node1&#45;&gt;Node23 -->
<g id="edge65" class="edge">
<title>Node1&#45;&gt;Node23</title>
<path fill="none" stroke="midnightblue" d="M1037.61,-225.83C1170.31,-213.47 1434.86,-184.29 1654,-132 1718.69,-116.57 1792.54,-89.37 1828.31,-75.56"/>
<polygon fill="midnightblue" stroke="midnightblue" points="1037.15,-222.36 1027.51,-226.76 1037.79,-229.33 1037.15,-222.36"/>
</g>
<!-- Node27 -->
<g id="node27" class="node">
<title>Node27</title>
<g id="a_node27"><a xlink:href="_o_m_sim_p_d_o_m_8hh.html" target="_top" xlink:title="Implementation of the pDOM/Gen1 DOM class.">
<polygon fill="white" stroke="black" points="807.5,-56.5 807.5,-75.5 904.5,-75.5 904.5,-56.5 807.5,-56.5"/>
<text text-anchor="middle" x="856" y="-63.5" font-family="Helvetica,sans-Serif" font-size="10.00">OMSimPDOM.hh</text>
</a>
</g>
</g>
<!-- Node1&#45;&gt;Node27 -->
<g id="edge61" class="edge">
<title>Node1&#45;&gt;Node27</title>
<path fill="none" stroke="midnightblue" d="M917.56,-220.3C902.45,-213.11 886.03,-202.58 876,-188 851.37,-152.22 853.29,-96.63 855.09,-75.52"/>
<polygon fill="midnightblue" stroke="midnightblue" points="916.16,-223.51 926.72,-224.35 918.99,-217.1 916.16,-223.51"/>
</g>
<!-- Node29 -->
<g id="node29" class="node">
<title>Node29</title>
<g id="a_node29"><a xlink:href="_o_m_sim_optical_module_8cc.html" target="_top" xlink:title=" ">
<polygon fill="white" stroke="black" points="1509,-112.5 1509,-131.5 1645,-131.5 1645,-112.5 1509,-112.5"/>
<text text-anchor="middle" x="1577" y="-119.5" font-family="Helvetica,sans-Serif" font-size="10.00">OMSimOpticalModule.cc</text>
</a>
</g>
</g>
<!-- Node1&#45;&gt;Node29 -->
<g id="edge64" class="edge">
<title>Node1&#45;&gt;Node29</title>
<path fill="none" stroke="midnightblue" d="M1011.39,-222.71C1133.81,-201.13 1415.4,-151.49 1528.59,-131.53"/>
<polygon fill="midnightblue" stroke="midnightblue" points="1010.69,-219.28 1001.44,-224.46 1011.9,-226.17 1010.69,-219.28"/>
</g>
<!-- Node33 -->
<g id="node33" class="node">
<title>Node33</title>
<g id="a_node33"><a xlink:href="abc_detector_component_8cc.html" target="_top" xlink:title=" ">
<polygon fill="white" stroke="black" points="1701,-168.5 1701,-187.5 1847,-187.5 1847,-168.5 1701,-168.5"/>
<text text-anchor="middle" x="1774" y="-175.5" font-family="Helvetica,sans-Serif" font-size="10.00">abcDetectorComponent.cc</text>
</a>
</g>
</g>
<!-- Node1&#45;&gt;Node33 -->
<g id="edge63" class="edge">
<title>Node1&#45;&gt;Node33</title>
<path fill="none" stroke="midnightblue" d="M1037.56,-228.97C1174.23,-222.19 1452.08,-207.34 1687,-188 1691.54,-187.63 1696.21,-187.22 1700.92,-186.78"/>
<polygon fill="midnightblue" stroke="midnightblue" points="1037.38,-225.47 1027.57,-229.46 1037.73,-232.46 1037.38,-225.47"/>
</g>
<!-- Node3 -->
<g id="node3" class="node">
<title>Node3</title>
<g id="a_node3"><a xlink:href="_o_m_sim_d_e_g_g_8cc.html" target="_top" xlink:title=" ">
<polygon fill="white" stroke="black" points="0,-0.5 0,-19.5 94,-19.5 94,-0.5 0,-0.5"/>
<text text-anchor="middle" x="47" y="-7.5" font-family="Helvetica,sans-Serif" font-size="10.00">OMSimDEGG.cc</text>
</a>
</g>
</g>
<!-- Node2&#45;&gt;Node3 -->
<g id="edge2" class="edge">
<title>Node2&#45;&gt;Node3</title>
<path fill="none" stroke="midnightblue" d="M407.34,-58.48C335.84,-50.24 210.27,-35.28 103,-20 100.08,-19.58 97.07,-19.14 94.04,-18.68"/>
<polygon fill="midnightblue" stroke="midnightblue" points="407.16,-61.98 417.49,-59.64 407.96,-55.02 407.16,-61.98"/>
</g>
<!-- Node4 -->
<g id="node4" class="node">
<title>Node4</title>
<g id="a_node4"><a xlink:href="_o_m_sim_detector_construction_8cc.html" target="_top" xlink:title=" ">
<polygon fill="white" stroke="black" points="229.5,-0.5 229.5,-19.5 398.5,-19.5 398.5,-0.5 229.5,-0.5"/>
<text text-anchor="middle" x="314" y="-7.5" font-family="Helvetica,sans-Serif" font-size="10.00">OMSimDetectorConstruction.cc</text>
</a>
</g>
</g>
<!-- Node2&#45;&gt;Node4 -->
<g id="edge3" class="edge">
<title>Node2&#45;&gt;Node4</title>
<path fill="none" stroke="midnightblue" d="M431.55,-53.04C403.14,-42.88 363.06,-28.55 337.81,-19.52"/>
<polygon fill="midnightblue" stroke="midnightblue" points="430.48,-56.37 441.07,-56.44 432.84,-49.78 430.48,-56.37"/>
</g>
<!-- Node5 -->
<g id="node5" class="node">
<title>Node5</title>
<g id="a_node5"><a xlink:href="_o_m_sim_effective_area_detector_8cc.html" target="_top" xlink:title=" ">
<polygon fill="white" stroke="black" points="534,-0.5 534,-19.5 706,-19.5 706,-0.5 534,-0.5"/>
<text text-anchor="middle" x="620" y="-7.5" font-family="Helvetica,sans-Serif" font-size="10.00">OMSimEffectiveAreaDetector.cc</text>
</a>
</g>
</g>
<!-- Node2&#45;&gt;Node5 -->
<g id="edge4" class="edge">
<title>Node2&#45;&gt;Node5</title>
<path fill="none" stroke="midnightblue" d="M499.33,-53.04C528.5,-42.88 569.64,-28.55 595.55,-19.52"/>
<polygon fill="midnightblue" stroke="midnightblue" points="497.85,-49.85 489.56,-56.44 500.16,-56.46 497.85,-49.85"/>
</g>
<!-- Node6 -->
<g id="node6" class="node">
<title>Node6</title>
<g id="a_node6"><a xlink:href="_o_m_sim_rad_decays_detector_8cc.html" target="_top" xlink:title=" ">
<polygon fill="white" stroke="black" points="861.5,-0.5 861.5,-19.5 1022.5,-19.5 1022.5,-0.5 861.5,-0.5"/>
<text text-anchor="middle" x="942" y="-7.5" font-family="Helvetica,sans-Serif" font-size="10.00">OMSimRadDecaysDetector.cc</text>
</a>
</g>
</g>
<!-- Node2&#45;&gt;Node6 -->
<g id="edge5" class="edge">
<title>Node2&#45;&gt;Node6</title>
<path fill="none" stroke="midnightblue" d="M523.06,-58.43C609.38,-48.66 771.58,-30.29 866.85,-19.51"/>
<polygon fill="midnightblue" stroke="midnightblue" points="522.46,-54.97 512.92,-59.58 523.25,-61.93 522.46,-54.97"/>
</g>
<!-- Node7 -->
<g id="node7" class="node">
<title>Node7</title>
<g id="a_node7"><a xlink:href="_o_m_sim_s_ndetector_8cc.html" target="_top" xlink:title=" ">
<polygon fill="white" stroke="black" points="724.5,-0.5 724.5,-19.5 843.5,-19.5 843.5,-0.5 724.5,-0.5"/>
<text text-anchor="middle" x="784" y="-7.5" font-family="Helvetica,sans-Serif" font-size="10.00">OMSimSNdetector.cc</text>
</a>
</g>
</g>
<!-- Node2&#45;&gt;Node7 -->
<g id="edge6" class="edge">
<title>Node2&#45;&gt;Node7</title>
<path fill="none" stroke="midnightblue" d="M522.85,-55.21C583.02,-45.02 676.27,-29.24 733.54,-19.54"/>
<polygon fill="midnightblue" stroke="midnightblue" points="522.03,-51.8 512.76,-56.92 523.2,-58.7 522.03,-51.8"/>
</g>
<!-- Node8&#45;&gt;Node4 -->
<g id="edge8" class="edge">
<title>Node8&#45;&gt;Node4</title>
<path fill="none" stroke="midnightblue" d="M561.43,-54.66C503.6,-44.46 416.22,-29.04 362.26,-19.52"/>
<polygon fill="midnightblue" stroke="midnightblue" points="561.06,-58.15 571.51,-56.44 562.27,-51.26 561.06,-58.15"/>
</g>
<!-- Node8&#45;&gt;Node5 -->
<g id="edge10" class="edge">
<title>Node8&#45;&gt;Node5</title>
<path fill="none" stroke="midnightblue" d="M620,-45.8C620,-36.91 620,-26.78 620,-19.75"/>
<polygon fill="midnightblue" stroke="midnightblue" points="616.5,-46.08 620,-56.08 623.5,-46.08 616.5,-46.08"/>
</g>
<!-- Node8&#45;&gt;Node6 -->
<g id="edge11" class="edge">
<title>Node8&#45;&gt;Node6</title>
<path fill="none" stroke="midnightblue" d="M680.89,-54.79C741.69,-44.59 834.08,-29.1 891.1,-19.54"/>
<polygon fill="midnightblue" stroke="midnightblue" points="679.95,-51.4 670.67,-56.5 681.11,-58.3 679.95,-51.4"/>
</g>
<!-- Node8&#45;&gt;Node7 -->
<g id="edge12" class="edge">
<title>Node8&#45;&gt;Node7</title>
<path fill="none" stroke="midnightblue" d="M655.52,-53.3C686.42,-43.13 730.47,-28.62 758.14,-19.52"/>
<polygon fill="midnightblue" stroke="midnightblue" points="654.39,-49.99 645.99,-56.44 656.58,-56.64 654.39,-49.99"/>
</g>
<!-- Node9 -->
<g id="node9" class="node">
<title>Node9</title>
<g id="a_node9"><a xlink:href="_o_m_sim_l_o_m16_8cc.html" target="_top" xlink:title=" ">
<polygon fill="white" stroke="black" points="112.5,-0.5 112.5,-19.5 211.5,-19.5 211.5,-0.5 112.5,-0.5"/>
<text text-anchor="middle" x="162" y="-7.5" font-family="Helvetica,sans-Serif" font-size="10.00">OMSimLOM16.cc</text>
</a>
</g>
</g>
<!-- Node8&#45;&gt;Node9 -->
<g id="edge9" class="edge">
<title>Node8&#45;&gt;Node9</title>
<path fill="none" stroke="midnightblue" d="M559.22,-58.96C480.74,-50.98 339.98,-36.05 220,-20 217.27,-19.64 214.48,-19.25 211.65,-18.85"/>
<polygon fill="midnightblue" stroke="midnightblue" points="559.1,-62.47 569.4,-59.99 559.81,-55.5 559.1,-62.47"/>
</g>
<!-- Node10&#45;&gt;Node4 -->
<g id="edge14" class="edge">
<title>Node10&#45;&gt;Node4</title>
<path fill="none" stroke="midnightblue" d="M678.54,-55.83C572.13,-41.27 460.15,-27.86 388.39,-19.5"/>
<polygon fill="midnightblue" stroke="midnightblue" points="678.1,-59.3 688.48,-57.2 679.05,-52.37 678.1,-59.3"/>
</g>
<!-- Node10&#45;&gt;Node5 -->
<g id="edge16" class="edge">
<title>Node10&#45;&gt;Node5</title>
<path fill="none" stroke="midnightblue" d="M710.86,-52.23C688.6,-42.13 658.14,-28.31 638.77,-19.52"/>
<polygon fill="midnightblue" stroke="midnightblue" points="709.59,-55.5 720.14,-56.44 712.48,-49.12 709.59,-55.5"/>
</g>
<!-- Node10&#45;&gt;Node6 -->
<g id="edge17" class="edge">
<title>Node10&#45;&gt;Node6</title>
<path fill="none" stroke="midnightblue" d="M780.99,-53.83C819.32,-43.63 875.15,-28.78 909.98,-19.52"/>
<polygon fill="midnightblue" stroke="midnightblue" points="779.93,-50.49 771.17,-56.44 781.73,-57.26 779.93,-50.49"/>
</g>
<!-- Node10&#45;&gt;Node7 -->
<g id="edge18" class="edge">
<title>Node10&#45;&gt;Node7</title>
<path fill="none" stroke="midnightblue" d="M753.05,-48.14C760.89,-38.74 770.33,-27.4 776.71,-19.75"/>
<polygon fill="midnightblue" stroke="midnightblue" points="750.14,-46.16 746.43,-56.08 755.52,-50.64 750.14,-46.16"/>
</g>
<!-- Node11 -->
<g id="node11" class="node">
<title>Node11</title>
<g id="a_node11"><a xlink:href="_o_m_sim_l_o_m18_8cc.html" target="_top" xlink:title=" ">
<polygon fill="white" stroke="black" points="416.5,-0.5 416.5,-19.5 515.5,-19.5 515.5,-0.5 416.5,-0.5"/>
<text text-anchor="middle" x="466" y="-7.5" font-family="Helvetica,sans-Serif" font-size="10.00">OMSimLOM18.cc</text>
</a>
</g>
</g>
<!-- Node10&#45;&gt;Node11 -->
<g id="edge15" class="edge">
<title>Node10&#45;&gt;Node11</title>
<path fill="none" stroke="midnightblue" d="M685.78,-54.47C634.19,-44.27 556.9,-28.98 509.06,-19.52"/>
<polygon fill="midnightblue" stroke="midnightblue" points="685.25,-57.94 695.74,-56.44 686.61,-51.07 685.25,-57.94"/>
</g>
<!-- Node12&#45;&gt;Node4 -->
<g id="edge20" class="edge">
<title>Node12&#45;&gt;Node4</title>
<path fill="none" stroke="midnightblue" d="M912.68,-55.94C687.78,-31.17 628.81,-38.6 407,-20 404.25,-19.77 401.46,-19.53 398.64,-19.28"/>
<polygon fill="midnightblue" stroke="midnightblue" points="912.5,-59.44 922.82,-57.07 913.27,-52.48 912.5,-59.44"/>
</g>
<!-- Node12&#45;&gt;Node5 -->
<g id="edge24" class="edge">
<title>Node12&#45;&gt;Node5</title>
<path fill="none" stroke="midnightblue" d="M912.9,-55.81C846.51,-45.65 740.49,-29.43 675.85,-19.54"/>
<polygon fill="midnightblue" stroke="midnightblue" points="912.38,-59.27 922.8,-57.32 913.44,-52.35 912.38,-59.27"/>
</g>
<!-- Node12&#45;&gt;Node6 -->
<g id="edge25" class="edge">
<title>Node12&#45;&gt;Node6</title>
<path fill="none" stroke="midnightblue" d="M962.82,-47.27C957.53,-38.05 951.28,-27.17 947.02,-19.75"/>
<polygon fill="midnightblue" stroke="midnightblue" points="959.87,-49.15 967.88,-56.08 965.94,-45.67 959.87,-49.15"/>
</g>
<!-- Node12&#45;&gt;Node7 -->
<g id="edge26" class="edge">
<title>Node12&#45;&gt;Node7</title>
<path fill="none" stroke="midnightblue" d="M932.99,-53.57C897.33,-43.38 845.96,-28.7 813.81,-19.52"/>
<polygon fill="midnightblue" stroke="midnightblue" points="932.48,-57.06 943.05,-56.44 934.4,-50.33 932.48,-57.06"/>
</g>
<!-- Node13 -->
<g id="node13" class="node">
<title>Node13</title>
<g id="a_node13"><a xlink:href="_o_m_sim_m_d_o_m_8cc.html" target="_top" xlink:title=" ">
<polygon fill="white" stroke="black" points="1310,-0.5 1310,-19.5 1408,-19.5 1408,-0.5 1310,-0.5"/>
<text text-anchor="middle" x="1359" y="-7.5" font-family="Helvetica,sans-Serif" font-size="10.00">OMSimMDOM.cc</text>
</a>
</g>
</g>
<!-- Node12&#45;&gt;Node13 -->
<g id="edge21" class="edge">
<title>Node12&#45;&gt;Node13</title>
<path fill="none" stroke="midnightblue" d="M1032.7,-56.04C1032.8,-56.03 1032.9,-56.01 1033,-56 1151.98,-39.09 1182.06,-37.22 1301,-20 1303.92,-19.58 1306.93,-19.13 1309.96,-18.68"/>
<polygon fill="midnightblue" stroke="midnightblue" points="1032.48,-52.54 1023.08,-57.43 1033.48,-59.47 1032.48,-52.54"/>
</g>
<!-- Node14 -->
<g id="node14" class="node">
<title>Node14</title>
<g id="a_node14"><a xlink:href="_o_m_sim_m_d_o_m_flasher_8cc.html" target="_top" xlink:title=" ">
<polygon fill="white" stroke="black" points="1426,-0.5 1426,-19.5 1560,-19.5 1560,-0.5 1426,-0.5"/>
<text text-anchor="middle" x="1493" y="-7.5" font-family="Helvetica,sans-Serif" font-size="10.00">OMSimMDOMFlasher.cc</text>
</a>
</g>
</g>
<!-- Node12&#45;&gt;Node14 -->
<g id="edge22" class="edge">
<title>Node12&#45;&gt;Node14</title>
<path fill="none" stroke="midnightblue" d="M1032.7,-56.04C1032.8,-56.02 1032.9,-56.01 1033,-56 1203.16,-35.28 1246.54,-38.08 1417,-20 1419.91,-19.69 1422.88,-19.37 1425.87,-19.04"/>
<polygon fill="midnightblue" stroke="midnightblue" points="1032.53,-52.53 1023.06,-57.28 1033.43,-59.47 1032.53,-52.53"/>
</g>
<!-- Node15 -->
<g id="node15" class="node">
<title>Node15</title>
<g id="a_node15"><a xlink:href="_o_m_sim_m_d_o_m_harness_8cc.html" target="_top" xlink:title=" ">
<polygon fill="white" stroke="black" points="1154,-0.5 1154,-19.5 1292,-19.5 1292,-0.5 1154,-0.5"/>
<text text-anchor="middle" x="1223" y="-7.5" font-family="Helvetica,sans-Serif" font-size="10.00">OMSimMDOMHarness.cc</text>
</a>
</g>
</g>
<!-- Node12&#45;&gt;Node15 -->
<g id="edge23" class="edge">
<title>Node12&#45;&gt;Node15</title>
<path fill="none" stroke="midnightblue" d="M1022.62,-54.28C1069.87,-44.08 1140.04,-28.92 1183.57,-19.52"/>
<polygon fill="midnightblue" stroke="midnightblue" points="1021.65,-50.91 1012.61,-56.44 1023.13,-57.75 1021.65,-50.91"/>
</g>
<!-- Node16&#45;&gt;Node2 -->
<g id="edge28" class="edge">
<title>Node16&#45;&gt;Node2</title>
<path fill="none" stroke="midnightblue" d="M904.91,-166.27C864.19,-157.17 804.26,-143.77 752,-132 662.54,-111.85 557.43,-88 502.6,-75.55"/>
<polygon fill="midnightblue" stroke="midnightblue" points="904.31,-169.72 914.83,-168.48 905.84,-162.89 904.31,-169.72"/>
</g>
<!-- Node16&#45;&gt;Node8 -->
<g id="edge46" class="edge">
<title>Node16&#45;&gt;Node8</title>
<path fill="none" stroke="midnightblue" d="M917.4,-165.24C850.02,-142.98 705.28,-95.17 646.07,-75.61"/>
<polygon fill="midnightblue" stroke="midnightblue" points="916.55,-168.65 927.15,-168.46 918.75,-162 916.55,-168.65"/>
</g>
<!-- Node16&#45;&gt;Node10 -->
<g id="edge47" class="edge">
<title>Node16&#45;&gt;Node10</title>
<path fill="none" stroke="midnightblue" d="M927.3,-163.71C901.85,-150.55 861.75,-129.85 827,-112 802.27,-99.3 773.6,-84.65 755.88,-75.61"/>
<polygon fill="midnightblue" stroke="midnightblue" points="925.81,-166.88 936.3,-168.36 929.02,-160.66 925.81,-166.88"/>
</g>
<!-- Node16&#45;&gt;Node12 -->
<g id="edge48" class="edge">
<title>Node16&#45;&gt;Node12</title>
<path fill="none" stroke="midnightblue" d="M956.39,-158.35C960.77,-134.25 968.22,-93.31 971.44,-75.59"/>
<polygon fill="midnightblue" stroke="midnightblue" points="952.91,-157.9 954.57,-168.37 959.8,-159.16 952.91,-157.9"/>
</g>
<!-- Node17 -->
<g id="node17" class="node">
<title>Node17</title>
<g id="a_node17"><a xlink:href="_o_m_sim_detector_construction_8hh.html" target="_top" xlink:title=" ">
<polygon fill="white" stroke="black" points="1143,-112.5 1143,-131.5 1313,-131.5 1313,-112.5 1143,-112.5"/>
<text text-anchor="middle" x="1228" y="-119.5" font-family="Helvetica,sans-Serif" font-size="10.00">OMSimDetectorConstruction.hh</text>
</a>
</g>
</g>
<!-- Node16&#45;&gt;Node17 -->
<g id="edge29" class="edge">
<title>Node16&#45;&gt;Node17</title>
<path fill="none" stroke="midnightblue" d="M1006.61,-166.47C1058.58,-156.27 1136.44,-140.98 1184.63,-131.52"/>
<polygon fill="midnightblue" stroke="midnightblue" points="1005.71,-163.08 996.57,-168.44 1007.06,-169.95 1005.71,-163.08"/>
</g>
<!-- Node25 -->
<g id="node25" class="node">
<title>Node25</title>
<g id="a_node25"><a xlink:href="_o_m_sim_rad_decays_detector_8hh.html" target="_top" xlink:title="Defines the OMSimRadDecaysDetector class for the radioactive decays simulation.">
<polygon fill="white" stroke="black" points="1371.5,-56.5 1371.5,-75.5 1534.5,-75.5 1534.5,-56.5 1371.5,-56.5"/>
<text text-anchor="middle" x="1453" y="-63.5" font-family="Helvetica,sans-Serif" font-size="10.00">OMSimRadDecaysDetector.hh</text>
</a>
</g>
</g>
<!-- Node16&#45;&gt;Node25 -->
<g id="edge60" class="edge">
<title>Node16&#45;&gt;Node25</title>
<path fill="none" stroke="midnightblue" d="M1031.98,-175.6C1107.89,-172.35 1225.07,-162.29 1322,-132 1340.22,-126.31 1342.96,-120.6 1360,-112 1385.78,-98.98 1415.92,-84.54 1434.73,-75.61"/>
<polygon fill="midnightblue" stroke="midnightblue" points="1031.4,-172.12 1021.54,-176.01 1031.68,-179.11 1031.4,-172.12"/>
</g>
<!-- Node16&#45;&gt;Node27 -->
<g id="edge49" class="edge">
<title>Node16&#45;&gt;Node27</title>
<path fill="none" stroke="midnightblue" d="M942.43,-159.25C933.94,-145.66 921.28,-126.79 908,-112 895.4,-97.96 878.54,-84.11 867.49,-75.56"/>
<polygon fill="midnightblue" stroke="midnightblue" points="939.62,-161.37 947.82,-168.08 945.59,-157.72 939.62,-161.37"/>
</g>
<!-- Node16&#45;&gt;Node29 -->
<g id="edge55" class="edge">
<title>Node16&#45;&gt;Node29</title>
<path fill="none" stroke="midnightblue" d="M1031.73,-171.37C1138.08,-163.58 1333.51,-148.57 1500,-132 1502.95,-131.71 1505.96,-131.4 1508.99,-131.08"/>
<polygon fill="midnightblue" stroke="midnightblue" points="1031.44,-167.89 1021.72,-172.11 1031.95,-174.87 1031.44,-167.89"/>
</g>
<!-- Node30 -->
<g id="node30" class="node">
<title>Node30</title>
<g id="a_node30"><a xlink:href="_o_m_sim_decays_g_p_s_8hh.html" target="_top" xlink:title="Defines the OMSimDecaysGPS class for the radioactive decays simulation.">
<polygon fill="white" stroke="black" points="1369,-112.5 1369,-131.5 1491,-131.5 1491,-112.5 1369,-112.5"/>
<text text-anchor="middle" x="1430" y="-119.5" font-family="Helvetica,sans-Serif" font-size="10.00">OMSimDecaysGPS.hh</text>
</a>
</g>
</g>
<!-- Node16&#45;&gt;Node30 -->
<g id="edge56" class="edge">
<title>Node16&#45;&gt;Node30</title>
<path fill="none" stroke="midnightblue" d="M1031.79,-168.37C1112.85,-159.44 1242.78,-145.01 1355,-132 1359.43,-131.49 1364,-130.95 1368.61,-130.41"/>
<polygon fill="midnightblue" stroke="midnightblue" points="1031.22,-164.91 1021.66,-169.48 1031.98,-171.87 1031.22,-164.91"/>
</g>
<!-- Node17&#45;&gt;Node4 -->
<g id="edge35" class="edge">
<title>Node17&#45;&gt;Node4</title>
<path fill="none" stroke="midnightblue" d="M1132.69,-119.31C974.56,-115.73 665.01,-105.13 560,-76 541.23,-70.79 539.34,-62.57 521,-56 472.35,-38.58 414.75,-26.72 372.68,-19.57"/>
<polygon fill="midnightblue" stroke="midnightblue" points="1132.81,-122.82 1142.88,-119.54 1132.96,-115.82 1132.81,-122.82"/>
</g>
<!-- Node18 -->
<g id="node18" class="node">
<title>Node18</title>
<g id="a_node18"><a xlink:href="_o_m_sim_8hh.html" target="_top" xlink:title="Main simulation class for the Optical Module (OM) simulation. This file defines the OMSim class,...">
<polygon fill="white" stroke="black" points="1552.5,-56.5 1552.5,-75.5 1619.5,-75.5 1619.5,-56.5 1552.5,-56.5"/>
<text text-anchor="middle" x="1586" y="-63.5" font-family="Helvetica,sans-Serif" font-size="10.00">OMSim.hh</text>
</a>
</g>
</g>
<!-- Node17&#45;&gt;Node18 -->
<g id="edge30" class="edge">
<title>Node17&#45;&gt;Node18</title>
<path fill="none" stroke="midnightblue" d="M1307.91,-111.18C1371.95,-102.94 1463.99,-90.25 1544,-76 1546.64,-75.53 1549.37,-75.01 1552.11,-74.47"/>
<polygon fill="midnightblue" stroke="midnightblue" points="1307.36,-107.73 1297.88,-112.47 1308.25,-114.67 1307.36,-107.73"/>
</g>
<!-- Node17&#45;&gt;Node23 -->
<g id="edge36" class="edge">
<title>Node17&#45;&gt;Node23</title>
<path fill="none" stroke="midnightblue" d="M1323.39,-113.81C1431.34,-105.5 1612.43,-91.02 1768,-76 1770.71,-75.74 1773.47,-75.47 1776.25,-75.19"/>
<polygon fill="midnightblue" stroke="midnightblue" points="1322.87,-110.34 1313.17,-114.59 1323.41,-117.32 1322.87,-110.34"/>
</g>
<!-- Node24 -->
<g id="node24" class="node">
<title>Node24</title>
<g id="a_node24"><a xlink:href="_o_m_sim_effective_area_detector_8hh.html" target="_top" xlink:title="Defines the OMSimEffectiveAreaDetector class for effective area simulation detector construction.">
<polygon fill="white" stroke="black" points="1041.5,-56.5 1041.5,-75.5 1214.5,-75.5 1214.5,-56.5 1041.5,-56.5"/>
<text text-anchor="middle" x="1128" y="-63.5" font-family="Helvetica,sans-Serif" font-size="10.00">OMSimEffectiveAreaDetector.hh</text>
</a>
</g>
</g>
<!-- Node17&#45;&gt;Node24 -->
<g id="edge37" class="edge">
<title>Node17&#45;&gt;Node24</title>
<path fill="none" stroke="midnightblue" d="M1202.91,-107.45C1184.45,-97.48 1159.9,-84.23 1144.03,-75.65"/>
<polygon fill="midnightblue" stroke="midnightblue" points="1201.47,-110.65 1211.93,-112.32 1204.8,-104.49 1201.47,-110.65"/>
</g>
<!-- Node17&#45;&gt;Node25 -->
<g id="edge40" class="edge">
<title>Node17&#45;&gt;Node25</title>
<path fill="none" stroke="midnightblue" d="M1273.47,-110.09C1315.97,-99.89 1378.58,-84.86 1417.51,-75.52"/>
<polygon fill="midnightblue" stroke="midnightblue" points="1272.56,-106.71 1263.65,-112.44 1274.19,-113.51 1272.56,-106.71"/>
</g>
<!-- Node26 -->
<g id="node26" class="node">
<title>Node26</title>
<g id="a_node26"><a xlink:href="_o_m_sim_s_ndetector_8hh.html" target="_top" xlink:title=" ">
<polygon fill="white" stroke="black" points="1233,-56.5 1233,-75.5 1353,-75.5 1353,-56.5 1233,-56.5"/>
<text text-anchor="middle" x="1293" y="-63.5" font-family="Helvetica,sans-Serif" font-size="10.00">OMSimSNdetector.hh</text>
</a>
</g>
</g>
<!-- Node17&#45;&gt;Node26 -->
<g id="edge43" class="edge">
<title>Node17&#45;&gt;Node26</title>
<path fill="none" stroke="midnightblue" d="M1246.27,-105.82C1257.92,-96.15 1272.6,-83.95 1282.37,-75.83"/>
<polygon fill="midnightblue" stroke="midnightblue" points="1243.9,-103.24 1238.44,-112.32 1248.37,-108.63 1243.9,-103.24"/>
</g>
<!-- Node19 -->
<g id="node19" class="node">
<title>Node19</title>
<g id="a_node19"><a xlink:href="_o_m_sim_8cc.html" target="_top" xlink:title="Implementation of the OMSim class.">
<polygon fill="white" stroke="black" points="2059.5,-0.5 2059.5,-19.5 2124.5,-19.5 2124.5,-0.5 2059.5,-0.5"/>
<text text-anchor="middle" x="2092" y="-7.5" font-family="Helvetica,sans-Serif" font-size="10.00">OMSim.cc</text>
</a>
</g>
</g>
<!-- Node18&#45;&gt;Node19 -->
<g id="edge31" class="edge">
<title>Node18&#45;&gt;Node19</title>
<path fill="none" stroke="midnightblue" d="M1629.63,-56.1C1816.98,-29.32 1868.07,-47.76 2051,-20 2053.74,-19.58 2056.57,-19.09 2059.4,-18.56"/>
<polygon fill="midnightblue" stroke="midnightblue" points="1629.12,-52.63 1619.73,-57.54 1630.13,-59.56 1629.12,-52.63"/>
</g>
<!-- Node20 -->
<g id="node20" class="node">
<title>Node20</title>
<g id="a_node20"><a xlink:href="_o_m_sim__effective__area_8cc.html" target="_top" xlink:title="Main for the calculation of effective areas.">
<polygon fill="white" stroke="black" points="1578,-0.5 1578,-19.5 1718,-19.5 1718,-0.5 1578,-0.5"/>
<text text-anchor="middle" x="1648" y="-7.5" font-family="Helvetica,sans-Serif" font-size="10.00">OMSim_effective_area.cc</text>
</a>
</g>
</g>
<!-- Node18&#45;&gt;Node20 -->
<g id="edge32" class="edge">
<title>Node18&#45;&gt;Node20</title>
<path fill="none" stroke="midnightblue" d="M1603.75,-49.54C1614.81,-39.91 1628.63,-27.87 1637.86,-19.83"/>
<polygon fill="midnightblue" stroke="midnightblue" points="1601.2,-47.12 1595.96,-56.32 1605.8,-52.4 1601.2,-47.12"/>
</g>
<!-- Node21 -->
<g id="node21" class="node">
<title>Node21</title>
<g id="a_node21"><a xlink:href="_o_m_sim__radioactive__decays_8cc.html" target="_top" xlink:title="Main of the radioactive decay study.">
<polygon fill="white" stroke="black" points="1876.5,-0.5 1876.5,-19.5 2041.5,-19.5 2041.5,-0.5 1876.5,-0.5"/>
<text text-anchor="middle" x="1959" y="-7.5" font-family="Helvetica,sans-Serif" font-size="10.00">OMSim_radioactive_decays.cc</text>
</a>
</g>
</g>
<!-- Node18&#45;&gt;Node21 -->
<g id="edge33" class="edge">
<title>Node18&#45;&gt;Node21</title>
<path fill="none" stroke="midnightblue" d="M1629.72,-55.98C1723.65,-39.96 1820.63,-27.37 1885.37,-19.53"/>
<polygon fill="midnightblue" stroke="midnightblue" points="1629.02,-52.55 1619.76,-57.7 1630.21,-59.45 1629.02,-52.55"/>
</g>
<!-- Node22 -->
<g id="node22" class="node">
<title>Node22</title>
<g id="a_node22"><a xlink:href="_o_m_sim__supernova_8cc.html" target="_top" xlink:title="Main of the supernova study.">
<polygon fill="white" stroke="black" points="1736,-0.5 1736,-19.5 1858,-19.5 1858,-0.5 1736,-0.5"/>
<text text-anchor="middle" x="1797" y="-7.5" font-family="Helvetica,sans-Serif" font-size="10.00">OMSim_supernova.cc</text>
</a>
</g>
</g>
<!-- Node18&#45;&gt;Node22 -->
<g id="edge34" class="edge">
<title>Node18&#45;&gt;Node22</title>
<path fill="none" stroke="midnightblue" d="M1629.14,-53.96C1668.99,-43.76 1727.36,-28.82 1763.72,-19.52"/>
<polygon fill="midnightblue" stroke="midnightblue" points="1628.25,-50.57 1619.43,-56.44 1629.99,-57.35 1628.25,-50.57"/>
</g>
<!-- Node24&#45;&gt;Node5 -->
<g id="edge39" class="edge">
<title>Node24&#45;&gt;Node5</title>
<path fill="none" stroke="midnightblue" d="M1037.83,-55.41C942.03,-45.23 792.02,-29.29 700.21,-19.53"/>
<polygon fill="midnightblue" stroke="midnightblue" points="1037.47,-58.9 1047.79,-56.47 1038.21,-51.94 1037.47,-58.9"/>
</g>
<!-- Node24&#45;&gt;Node20 -->
<g id="edge38" class="edge">
<title>Node24&#45;&gt;Node20</title>
<path fill="none" stroke="midnightblue" d="M1224.76,-55.46C1314.13,-46.56 1450.57,-32.79 1569,-20 1571.88,-19.69 1574.82,-19.37 1577.79,-19.04"/>
<polygon fill="midnightblue" stroke="midnightblue" points="1224.24,-51.99 1214.64,-56.46 1224.94,-58.96 1224.24,-51.99"/>
</g>
<!-- Node25&#45;&gt;Node6 -->
<g id="edge42" class="edge">
<title>Node25&#45;&gt;Node6</title>
<path fill="none" stroke="midnightblue" d="M1362.29,-55.41C1265.94,-45.23 1115.04,-29.29 1022.69,-19.53"/>
<polygon fill="midnightblue" stroke="midnightblue" points="1362,-58.9 1372.31,-56.47 1362.74,-51.94 1362,-58.9"/>
</g>
<!-- Node25&#45;&gt;Node21 -->
<g id="edge41" class="edge">
<title>Node25&#45;&gt;Node21</title>
<path fill="none" stroke="midnightblue" d="M1543.11,-55.38C1638.54,-45.2 1787.75,-29.28 1879.1,-19.53"/>
<polygon fill="midnightblue" stroke="midnightblue" points="1542.47,-51.93 1532.9,-56.47 1543.21,-58.89 1542.47,-51.93"/>
</g>
<!-- Node26&#45;&gt;Node7 -->
<g id="edge45" class="edge">
<title>Node26&#45;&gt;Node7</title>
<path fill="none" stroke="midnightblue" d="M1222.79,-55.9C1057.72,-37.33 1014.39,-38.35 853,-20 850,-19.66 846.93,-19.3 843.82,-18.93"/>
<polygon fill="midnightblue" stroke="midnightblue" points="1222.47,-59.38 1232.8,-57.03 1223.26,-52.43 1222.47,-59.38"/>
</g>
<!-- Node26&#45;&gt;Node22 -->
<g id="edge44" class="edge">
<title>Node26&#45;&gt;Node22</title>
<path fill="none" stroke="midnightblue" d="M1363.69,-55.96C1526.26,-37.65 1568.79,-37.99 1727,-20 1729.92,-19.67 1732.91,-19.32 1735.93,-18.96"/>
<polygon fill="midnightblue" stroke="midnightblue" points="1362.86,-52.53 1353.32,-57.13 1363.65,-59.48 1362.86,-52.53"/>
</g>
<!-- Node27&#45;&gt;Node4 -->
<g id="edge50" class="edge">
<title>Node27&#45;&gt;Node4</title>
<path fill="none" stroke="midnightblue" d="M797.23,-55.84C623.7,-34.42 577.95,-36.12 407,-20 404.25,-19.74 401.46,-19.48 398.65,-19.21"/>
<polygon fill="midnightblue" stroke="midnightblue" points="796.86,-59.32 807.21,-57.08 797.72,-52.38 796.86,-59.32"/>
</g>
<!-- Node27&#45;&gt;Node5 -->
<g id="edge52" class="edge">
<title>Node27&#45;&gt;Node5</title>
<path fill="none" stroke="midnightblue" d="M808.59,-54.15C764,-43.95 698.15,-28.88 657.22,-19.52"/>
<polygon fill="midnightblue" stroke="midnightblue" points="808.08,-57.62 818.61,-56.44 809.64,-50.8 808.08,-57.62"/>
</g>
<!-- Node27&#45;&gt;Node6 -->
<g id="edge53" class="edge">
<title>Node27&#45;&gt;Node6</title>
<path fill="none" stroke="midnightblue" d="M878.45,-50.9C894.22,-41 914.81,-28.07 928.22,-19.65"/>
<polygon fill="midnightblue" stroke="midnightblue" points="876.43,-48.04 869.82,-56.32 880.15,-53.97 876.43,-48.04"/>
</g>
<!-- Node27&#45;&gt;Node7 -->
<g id="edge54" class="edge">
<title>Node27&#45;&gt;Node7</title>
<path fill="none" stroke="midnightblue" d="M836.13,-50.1C823.18,-40.38 806.7,-28.03 795.78,-19.83"/>
<polygon fill="midnightblue" stroke="midnightblue" points="834.33,-53.12 844.43,-56.32 838.53,-47.52 834.33,-53.12"/>
</g>
<!-- Node28 -->
<g id="node28" class="node">
<title>Node28</title>
<g id="a_node28"><a xlink:href="_o_m_sim_p_d_o_m_8cc.html" target="_top" xlink:title=" ">
<polygon fill="white" stroke="black" points="1040.5,-0.5 1040.5,-19.5 1135.5,-19.5 1135.5,-0.5 1040.5,-0.5"/>
<text text-anchor="middle" x="1088" y="-7.5" font-family="Helvetica,sans-Serif" font-size="10.00">OMSimPDOM.cc</text>
</a>
</g>
</g>
<!-- Node27&#45;&gt;Node28 -->
<g id="edge51" class="edge">
<title>Node27&#45;&gt;Node28</title>
<path fill="none" stroke="midnightblue" d="M902.6,-54.15C946.44,-43.95 1011.18,-28.88 1051.41,-19.52"/>
<polygon fill="midnightblue" stroke="midnightblue" points="901.71,-50.77 892.76,-56.44 903.29,-57.59 901.71,-50.77"/>
</g>
<!-- Node30&#45;&gt;Node21 -->
<g id="edge57" class="edge">
<title>Node30&#45;&gt;Node21</title>
<path fill="none" stroke="midnightblue" d="M1501.06,-112.21C1604.02,-107 2071.58,-124.15 2117,-76 2146.41,-44.82 2092.28,-28.13 2039.55,-19.51"/>
<polygon fill="midnightblue" stroke="midnightblue" points="1500.79,-108.72 1491.06,-112.9 1501.27,-115.7 1500.79,-108.72"/>
</g>
<!-- Node31 -->
<g id="node31" class="node">
<title>Node31</title>
<g id="a_node31"><a xlink:href="_o_m_sim_decays_g_p_s_8cc.html" target="_top" xlink:title=" ">
<polygon fill="white" stroke="black" points="1637.5,-56.5 1637.5,-75.5 1758.5,-75.5 1758.5,-56.5 1637.5,-56.5"/>
<text text-anchor="middle" x="1698" y="-63.5" font-family="Helvetica,sans-Serif" font-size="10.00">OMSimDecaysGPS.cc</text>
</a>
</g>
</g>
<!-- Node30&#45;&gt;Node31 -->
<g id="edge58" class="edge">
<title>Node30&#45;&gt;Node31</title>
<path fill="none" stroke="midnightblue" d="M1482.56,-110.41C1533.21,-100.2 1608.87,-84.96 1655.73,-75.52"/>
<polygon fill="midnightblue" stroke="midnightblue" points="1481.58,-107.04 1472.47,-112.44 1482.96,-113.9 1481.58,-107.04"/>
</g>
<!-- Node32 -->
<g id="node32" class="node">
<title>Node32</title>
<g id="a_node32"><a xlink:href="_o_m_sim_g4_radioactive_decay_8cc.html" target="_top" xlink:title=" ">
<polygon fill="white" stroke="black" points="1942,-56.5 1942,-75.5 2108,-75.5 2108,-56.5 1942,-56.5"/>
<text text-anchor="middle" x="2025" y="-63.5" font-family="Helvetica,sans-Serif" font-size="10.00">OMSimG4RadioactiveDecay.cc</text>
</a>
</g>
</g>
<!-- Node30&#45;&gt;Node32 -->
<g id="edge59" class="edge">
<title>Node30&#45;&gt;Node32</title>
<path fill="none" stroke="midnightblue" d="M1501.24,-111.91C1693.74,-91.74 1743.96,-93.1 1933,-76 1935.88,-75.74 1938.8,-75.47 1941.76,-75.2"/>
<polygon fill="midnightblue" stroke="midnightblue" points="1500.64,-108.46 1491.06,-112.98 1501.38,-115.42 1500.64,-108.46"/>
</g>
</g>
</svg>
