<?xml version="1.0" encoding="UTF-8" standalone="no"?>
<!DOCTYPE svg PUBLIC "-//W3C//DTD SVG 1.1//EN"
 "http://www.w3.org/Graphics/SVG/1.1/DTD/svg11.dtd">
<!-- Generated by graphviz version 2.43.0 (0)
 -->
<!-- Title: OMSimOpticalModule.cc Pages: 1 -->
<svg width="1070pt" height="319pt"
 viewBox="0.00 0.00 1070.00 319.00" xmlns="http://www.w3.org/2000/svg" xmlns:xlink="http://www.w3.org/1999/xlink">
<g id="graph0" class="graph" transform="scale(1 1) rotate(0) translate(4 315)">
<title>OMSimOpticalModule.cc</title>
<polygon fill="white" stroke="transparent" points="-4,4 -4,-315 1066,-315 1066,4 -4,4"/>
<!-- Node1 -->
<g id="node1" class="node">
<title>Node1</title>
<g id="a_node1"><a xlink:title=" ">
<polygon fill="#bfbfbf" stroke="black" points="586.5,-291.5 586.5,-310.5 722.5,-310.5 722.5,-291.5 586.5,-291.5"/>
<text text-anchor="middle" x="654.5" y="-298.5" font-family="Helvetica,sans-Serif" font-size="10.00">OMSimOpticalModule.cc</text>
</a>
</g>
</g>
<!-- Node2 -->
<g id="node2" class="node">
<title>Node2</title>
<g id="a_node2"><a xlink:href="_o_m_sim_optical_module_8hh.html" target="_top" xlink:title=" ">
<polygon fill="white" stroke="black" points="586,-235.5 586,-254.5 723,-254.5 723,-235.5 586,-235.5"/>
<text text-anchor="middle" x="654.5" y="-242.5" font-family="Helvetica,sans-Serif" font-size="10.00">OMSimOpticalModule.hh</text>
</a>
</g>
</g>
<!-- Node1&#45;&gt;Node2 -->
<g id="edge1" class="edge">
<title>Node1&#45;&gt;Node2</title>
<path fill="none" stroke="midnightblue" d="M654.5,-291.08C654.5,-284.01 654.5,-273.86 654.5,-264.99"/>
<polygon fill="midnightblue" stroke="midnightblue" points="658,-264.75 654.5,-254.75 651,-264.75 658,-264.75"/>
</g>
<!-- Node12 -->
<g id="node12" class="node">
<title>Node12</title>
<g id="a_node12"><a xlink:href="_o_m_sim_hit_manager_8hh.html" target="_top" xlink:title="Defines structures and classes related to optical module photon hit management.">
<polygon fill="white" stroke="black" points="724,-179.5 724,-198.5 847,-198.5 847,-179.5 724,-179.5"/>
<text text-anchor="middle" x="785.5" y="-186.5" font-family="Helvetica,sans-Serif" font-size="10.00">OMSimHitManager.hh</text>
</a>
</g>
</g>
<!-- Node1&#45;&gt;Node12 -->
<g id="edge26" class="edge">
<title>Node1&#45;&gt;Node12</title>
<path fill="none" stroke="midnightblue" d="M673.7,-291.38C690.3,-283.38 714.4,-270.4 732.5,-255 749.06,-240.91 764.33,-221.15 774.18,-207.12"/>
<polygon fill="midnightblue" stroke="midnightblue" points="777.08,-209.08 779.83,-198.85 771.3,-205.13 777.08,-209.08"/>
</g>
<!-- Node20 -->
<g id="node20" class="node">
<title>Node20</title>
<g id="a_node20"><a xlink:href="_o_m_sim_p_m_t_construction_8hh.html" target="_top" xlink:title="Construction of the PMTs.">
<polygon fill="white" stroke="black" points="460,-179.5 460,-198.5 609,-198.5 609,-179.5 460,-179.5"/>
<text text-anchor="middle" x="534.5" y="-186.5" font-family="Helvetica,sans-Serif" font-size="10.00">OMSimPMTConstruction.hh</text>
</a>
</g>
</g>
<!-- Node1&#45;&gt;Node20 -->
<g id="edge27" class="edge">
<title>Node1&#45;&gt;Node20</title>
<path fill="none" stroke="midnightblue" d="M633.86,-291.4C617.03,-283.66 593.38,-271.05 576.5,-255 562.24,-241.44 550.55,-222.12 543.16,-208.07"/>
<polygon fill="midnightblue" stroke="midnightblue" points="546.18,-206.29 538.56,-198.93 539.93,-209.44 546.18,-206.29"/>
</g>
<!-- Node3 -->
<g id="node3" class="node">
<title>Node3</title>
<g id="a_node3"><a xlink:href="abc_detector_component_8hh.html" target="_top" xlink:title="Provides helper base class abcDetectorComponent for constructing and managing detector components in ...">
<polygon fill="white" stroke="black" points="461,-123.5 461,-142.5 608,-142.5 608,-123.5 461,-123.5"/>
<text text-anchor="middle" x="534.5" y="-130.5" font-family="Helvetica,sans-Serif" font-size="10.00">abcDetectorComponent.hh</text>
</a>
</g>
</g>
<!-- Node2&#45;&gt;Node3 -->
<g id="edge2" class="edge">
<title>Node2&#45;&gt;Node3</title>
<path fill="none" stroke="midnightblue" d="M654.21,-235.33C653.32,-221.74 649.73,-195.29 635.5,-179 621.73,-163.24 601.38,-152.74 582.54,-145.89"/>
<polygon fill="midnightblue" stroke="midnightblue" points="583.47,-142.5 572.88,-142.62 581.23,-149.14 583.47,-142.5"/>
</g>
<!-- Node2&#45;&gt;Node12 -->
<g id="edge11" class="edge">
<title>Node2&#45;&gt;Node12</title>
<path fill="none" stroke="midnightblue" d="M675.26,-235.44C696.82,-226.56 730.76,-212.56 755.29,-202.45"/>
<polygon fill="midnightblue" stroke="midnightblue" points="756.93,-205.56 764.84,-198.52 754.26,-199.09 756.93,-205.56"/>
</g>
<!-- Node2&#45;&gt;Node20 -->
<g id="edge20" class="edge">
<title>Node2&#45;&gt;Node20</title>
<path fill="none" stroke="midnightblue" d="M635.49,-235.44C615.91,-226.64 585.19,-212.81 562.77,-202.72"/>
<polygon fill="midnightblue" stroke="midnightblue" points="563.98,-199.43 553.43,-198.52 561.11,-205.81 563.98,-199.43"/>
</g>
<!-- Node4 -->
<g id="node4" class="node">
<title>Node4</title>
<g id="a_node4"><a xlink:href="_o_m_sim_input_data_8hh.html" target="_top" xlink:title="Definition of ParameterTable and InputDataManager.">
<polygon fill="white" stroke="black" points="87,-67.5 87,-86.5 202,-86.5 202,-67.5 87,-67.5"/>
<text text-anchor="middle" x="144.5" y="-74.5" font-family="Helvetica,sans-Serif" font-size="10.00">OMSimInputData.hh</text>
</a>
</g>
</g>
<!-- Node3&#45;&gt;Node4 -->
<g id="edge3" class="edge">
<title>Node3&#45;&gt;Node4</title>
<path fill="none" stroke="midnightblue" d="M472.7,-123.44C401.73,-113.62 285.65,-97.54 212.26,-87.38"/>
<polygon fill="midnightblue" stroke="midnightblue" points="212.58,-83.89 202.19,-85.99 211.62,-90.83 212.58,-83.89"/>
</g>
<!-- Node8 -->
<g id="node8" class="node">
<title>Node8</title>
<g id="a_node8"><a xlink:title=" ">
<polygon fill="white" stroke="#bfbfbf" points="220,-67.5 220,-86.5 327,-86.5 327,-67.5 220,-67.5"/>
<text text-anchor="middle" x="273.5" y="-74.5" font-family="Helvetica,sans-Serif" font-size="10.00">G4Transform3D.hh</text>
</a>
</g>
</g>
<!-- Node3&#45;&gt;Node8 -->
<g id="edge7" class="edge">
<title>Node3&#45;&gt;Node8</title>
<path fill="none" stroke="midnightblue" d="M493.14,-123.44C447.42,-113.98 373.74,-98.74 324.48,-88.55"/>
<polygon fill="midnightblue" stroke="midnightblue" points="325.16,-85.12 314.66,-86.52 323.75,-91.97 325.16,-85.12"/>
</g>
<!-- Node9 -->
<g id="node9" class="node">
<title>Node9</title>
<g id="a_node9"><a xlink:title=" ">
<polygon fill="white" stroke="#bfbfbf" points="345.5,-67.5 345.5,-86.5 453.5,-86.5 453.5,-67.5 345.5,-67.5"/>
<text text-anchor="middle" x="399.5" y="-74.5" font-family="Helvetica,sans-Serif" font-size="10.00">G4VisAttributes.hh</text>
</a>
</g>
</g>
<!-- Node3&#45;&gt;Node9 -->
<g id="edge8" class="edge">
<title>Node3&#45;&gt;Node9</title>
<path fill="none" stroke="midnightblue" d="M513.11,-123.44C490.79,-114.52 455.6,-100.44 430.29,-90.32"/>
<polygon fill="midnightblue" stroke="midnightblue" points="431.38,-86.98 420.79,-86.52 428.78,-93.48 431.38,-86.98"/>
</g>
<!-- Node10 -->
<g id="node10" class="node">
<title>Node10</title>
<g id="a_node10"><a xlink:title=" ">
<polygon fill="white" stroke="#bfbfbf" points="472,-67.5 472,-86.5 597,-86.5 597,-67.5 472,-67.5"/>
<text text-anchor="middle" x="534.5" y="-74.5" font-family="Helvetica,sans-Serif" font-size="10.00">G4SubtractionSolid.hh</text>
</a>
</g>
</g>
<!-- Node3&#45;&gt;Node10 -->
<g id="edge9" class="edge">
<title>Node3&#45;&gt;Node10</title>
<path fill="none" stroke="midnightblue" d="M534.5,-123.08C534.5,-116.01 534.5,-105.86 534.5,-96.99"/>
<polygon fill="midnightblue" stroke="midnightblue" points="538,-96.75 534.5,-86.75 531,-96.75 538,-96.75"/>
</g>
<!-- Node11 -->
<g id="node11" class="node">
<title>Node11</title>
<g id="a_node11"><a xlink:title=" ">
<polygon fill="white" stroke="#bfbfbf" points="615.5,-67.5 615.5,-86.5 725.5,-86.5 725.5,-67.5 615.5,-67.5"/>
<text text-anchor="middle" x="670.5" y="-74.5" font-family="Helvetica,sans-Serif" font-size="10.00">G4PVPlacement.hh</text>
</a>
</g>
</g>
<!-- Node3&#45;&gt;Node11 -->
<g id="edge10" class="edge">
<title>Node3&#45;&gt;Node11</title>
<path fill="none" stroke="midnightblue" d="M556.05,-123.44C578.53,-114.52 613.99,-100.44 639.48,-90.32"/>
<polygon fill="midnightblue" stroke="midnightblue" points="641.05,-93.46 649.05,-86.52 638.47,-86.95 641.05,-93.46"/>
</g>
<!-- Node5 -->
<g id="node5" class="node">
<title>Node5</title>
<g id="a_node5"><a xlink:title=" ">
<polygon fill="white" stroke="#bfbfbf" points="0,-6 0,-25 143,-25 143,-6 0,-6"/>
<text text-anchor="middle" x="71.5" y="-13" font-family="Helvetica,sans-Serif" font-size="10.00">G4OpBoundaryProcess.hh</text>
</a>
</g>
</g>
<!-- Node4&#45;&gt;Node5 -->
<g id="edge4" class="edge">
<title>Node4&#45;&gt;Node5</title>
<path fill="none" stroke="midnightblue" d="M134.04,-67.48C122.55,-58.11 103.87,-42.88 89.91,-31.51"/>
<polygon fill="midnightblue" stroke="midnightblue" points="91.9,-28.61 81.94,-25.01 87.48,-34.04 91.9,-28.61"/>
</g>
<!-- Node6 -->
<g id="node6" class="node">
<title>Node6</title>
<g id="a_node6"><a xlink:title=" ">
<polygon fill="white" stroke="#bfbfbf" points="493,-6 493,-25 612,-25 612,-6 493,-6"/>
<text text-anchor="middle" x="552.5" y="-13" font-family="Helvetica,sans-Serif" font-size="10.00">G4SystemOfUnits.hh</text>
</a>
</g>
</g>
<!-- Node4&#45;&gt;Node6 -->
<g id="edge5" class="edge">
<title>Node4&#45;&gt;Node6</title>
<path fill="none" stroke="midnightblue" d="M202.09,-67.6C276.19,-56.79 404.77,-38.04 483.87,-26.51"/>
<polygon fill="midnightblue" stroke="midnightblue" points="484.82,-29.91 494.21,-25 483.81,-22.98 484.82,-29.91"/>
</g>
<!-- Node7 -->
<g id="node7" class="node">
<title>Node7</title>
<g id="a_node7"><a xlink:title=" ">
<polygon fill="white" stroke="#bfbfbf" points="161,-0.5 161,-30.5 274,-30.5 274,-0.5 161,-0.5"/>
<text text-anchor="start" x="169" y="-18.5" font-family="Helvetica,sans-Serif" font-size="10.00">boost/property_tree</text>
<text text-anchor="middle" x="217.5" y="-7.5" font-family="Helvetica,sans-Serif" font-size="10.00">/json_parser.hpp</text>
</a>
</g>
</g>
<!-- Node4&#45;&gt;Node7 -->
<g id="edge6" class="edge">
<title>Node4&#45;&gt;Node7</title>
<path fill="none" stroke="midnightblue" d="M154.96,-67.48C164.66,-59.57 179.49,-47.48 192.27,-37.07"/>
<polygon fill="midnightblue" stroke="midnightblue" points="194.76,-39.55 200.3,-30.52 190.33,-34.13 194.76,-39.55"/>
</g>
<!-- Node13 -->
<g id="node13" class="node">
<title>Node13</title>
<g id="a_node13"><a xlink:href="_o_m_sim_p_m_t_response_8hh.html" target="_top" xlink:title="Provides simulation for PMT response. This class is responsible for transforming hits on photocathode...">
<polygon fill="white" stroke="black" points="718,-123.5 718,-142.5 853,-142.5 853,-123.5 718,-123.5"/>
<text text-anchor="middle" x="785.5" y="-130.5" font-family="Helvetica,sans-Serif" font-size="10.00">OMSimPMTResponse.hh</text>
</a>
</g>
</g>
<!-- Node12&#45;&gt;Node13 -->
<g id="edge12" class="edge">
<title>Node12&#45;&gt;Node13</title>
<path fill="none" stroke="midnightblue" d="M785.5,-179.08C785.5,-172.01 785.5,-161.86 785.5,-152.99"/>
<polygon fill="midnightblue" stroke="midnightblue" points="789,-152.75 785.5,-142.75 782,-152.75 789,-152.75"/>
</g>
<!-- Node18 -->
<g id="node18" class="node">
<title>Node18</title>
<g id="a_node18"><a xlink:title=" ">
<polygon fill="white" stroke="#bfbfbf" points="871,-123.5 871,-142.5 974,-142.5 974,-123.5 871,-123.5"/>
<text text-anchor="middle" x="922.5" y="-130.5" font-family="Helvetica,sans-Serif" font-size="10.00">G4ThreeVector.hh</text>
</a>
</g>
</g>
<!-- Node12&#45;&gt;Node18 -->
<g id="edge18" class="edge">
<title>Node12&#45;&gt;Node18</title>
<path fill="none" stroke="midnightblue" d="M807.21,-179.44C829.85,-170.52 865.57,-156.44 891.25,-146.32"/>
<polygon fill="midnightblue" stroke="midnightblue" points="892.87,-149.44 900.89,-142.52 890.31,-142.93 892.87,-149.44"/>
</g>
<!-- Node19 -->
<g id="node19" class="node">
<title>Node19</title>
<g id="a_node19"><a xlink:title=" ">
<polygon fill="white" stroke="#bfbfbf" points="992,-123.5 992,-142.5 1047,-142.5 1047,-123.5 992,-123.5"/>
<text text-anchor="middle" x="1019.5" y="-130.5" font-family="Helvetica,sans-Serif" font-size="10.00">fstream</text>
</a>
</g>
</g>
<!-- Node12&#45;&gt;Node19 -->
<g id="edge19" class="edge">
<title>Node12&#45;&gt;Node19</title>
<path fill="none" stroke="midnightblue" d="M824.26,-179.45C862.11,-171.04 921.6,-157.68 981.92,-143.34"/>
<polygon fill="midnightblue" stroke="midnightblue" points="983.08,-146.66 992,-140.94 981.46,-139.85 983.08,-146.66"/>
</g>
<!-- Node13&#45;&gt;Node6 -->
<g id="edge13" class="edge">
<title>Node13&#45;&gt;Node6</title>
<path fill="none" stroke="midnightblue" d="M781.12,-123.4C773.56,-109.41 756.7,-81.8 734.5,-67 701.08,-44.72 657.98,-32.2 622.11,-25.2"/>
<polygon fill="midnightblue" stroke="midnightblue" points="622.67,-21.74 612.2,-23.37 621.4,-28.63 622.67,-21.74"/>
</g>
<!-- Node14 -->
<g id="node14" class="node">
<title>Node14</title>
<g id="a_node14"><a xlink:title=" ">
<polygon fill="white" stroke="#bfbfbf" points="782,-67.5 782,-86.5 855,-86.5 855,-67.5 782,-67.5"/>
<text text-anchor="middle" x="818.5" y="-74.5" font-family="Helvetica,sans-Serif" font-size="10.00">G4Types.hh</text>
</a>
</g>
</g>
<!-- Node13&#45;&gt;Node14 -->
<g id="edge14" class="edge">
<title>Node13&#45;&gt;Node14</title>
<path fill="none" stroke="midnightblue" d="M790.95,-123.08C795.51,-115.61 802.17,-104.72 807.79,-95.52"/>
<polygon fill="midnightblue" stroke="midnightblue" points="810.92,-97.11 813.15,-86.75 804.95,-93.46 810.92,-97.11"/>
</g>
<!-- Node15 -->
<g id="node15" class="node">
<title>Node15</title>
<g id="a_node15"><a xlink:title=" ">
<polygon fill="white" stroke="#bfbfbf" points="873.5,-67.5 873.5,-86.5 911.5,-86.5 911.5,-67.5 873.5,-67.5"/>
<text text-anchor="middle" x="892.5" y="-74.5" font-family="Helvetica,sans-Serif" font-size="10.00">map</text>
</a>
</g>
</g>
<!-- Node13&#45;&gt;Node15 -->
<g id="edge15" class="edge">
<title>Node13&#45;&gt;Node15</title>
<path fill="none" stroke="midnightblue" d="M802.69,-123.32C819.85,-114.66 846.45,-101.24 866.25,-91.25"/>
<polygon fill="midnightblue" stroke="midnightblue" points="868,-94.28 875.35,-86.65 864.85,-88.04 868,-94.28"/>
</g>
<!-- Node16 -->
<g id="node16" class="node">
<title>Node16</title>
<g id="a_node16"><a xlink:title=" ">
<polygon fill="white" stroke="#bfbfbf" points="930,-67.5 930,-86.5 991,-86.5 991,-67.5 930,-67.5"/>
<text text-anchor="middle" x="960.5" y="-74.5" font-family="Helvetica,sans-Serif" font-size="10.00">TGraph.h</text>
</a>
</g>
</g>
<!-- Node13&#45;&gt;Node16 -->
<g id="edge16" class="edge">
<title>Node13&#45;&gt;Node16</title>
<path fill="none" stroke="midnightblue" d="M813.23,-123.44C842.93,-114.28 890.22,-99.69 923.17,-89.52"/>
<polygon fill="midnightblue" stroke="midnightblue" points="924.38,-92.81 932.9,-86.52 922.31,-86.12 924.38,-92.81"/>
</g>
<!-- Node17 -->
<g id="node17" class="node">
<title>Node17</title>
<g id="a_node17"><a xlink:title=" ">
<polygon fill="white" stroke="#bfbfbf" points="1009,-67.5 1009,-86.5 1062,-86.5 1062,-67.5 1009,-67.5"/>
<text text-anchor="middle" x="1035.5" y="-74.5" font-family="Helvetica,sans-Serif" font-size="10.00">TH2D.h</text>
</a>
</g>
</g>
<!-- Node13&#45;&gt;Node17 -->
<g id="edge17" class="edge">
<title>Node13&#45;&gt;Node17</title>
<path fill="none" stroke="midnightblue" d="M829.28,-123.44C870.69,-115.21 934.81,-102.12 998.91,-87.3"/>
<polygon fill="midnightblue" stroke="midnightblue" points="999.83,-90.68 1008.78,-85 998.24,-83.86 999.83,-90.68"/>
</g>
<!-- Node20&#45;&gt;Node3 -->
<g id="edge21" class="edge">
<title>Node20&#45;&gt;Node3</title>
<path fill="none" stroke="midnightblue" d="M534.5,-179.08C534.5,-172.01 534.5,-161.86 534.5,-152.99"/>
<polygon fill="midnightblue" stroke="midnightblue" points="538,-152.75 534.5,-142.75 531,-152.75 538,-152.75"/>
</g>
<!-- Node20&#45;&gt;Node13 -->
<g id="edge23" class="edge">
<title>Node20&#45;&gt;Node13</title>
<path fill="none" stroke="midnightblue" d="M574.27,-179.44C618.06,-170.02 688.51,-154.87 735.88,-144.68"/>
<polygon fill="midnightblue" stroke="midnightblue" points="736.87,-148.04 745.91,-142.52 735.4,-141.2 736.87,-148.04"/>
</g>
<!-- Node20&#45;&gt;Node20 -->
<g id="edge22" class="edge">
<title>Node20&#45;&gt;Node20</title>
<path fill="none" stroke="midnightblue" d="M573.95,-198.53C600.76,-201.31 627,-198.13 627,-189 627,-181.01 606.91,-177.58 583.93,-178.71"/>
<polygon fill="midnightblue" stroke="midnightblue" points="583.65,-175.22 573.95,-179.47 584.19,-182.2 583.65,-175.22"/>
</g>
<!-- Node21 -->
<g id="node21" class="node">
<title>Node21</title>
<g id="a_node21"><a xlink:title=" ">
<polygon fill="white" stroke="#bfbfbf" points="344.5,-123.5 344.5,-142.5 442.5,-142.5 442.5,-123.5 344.5,-123.5"/>
<text text-anchor="middle" x="393.5" y="-130.5" font-family="Helvetica,sans-Serif" font-size="10.00">G4UnionSolid.hh</text>
</a>
</g>
</g>
<!-- Node20&#45;&gt;Node21 -->
<g id="edge24" class="edge">
<title>Node20&#45;&gt;Node21</title>
<path fill="none" stroke="midnightblue" d="M512.16,-179.44C488.75,-170.48 451.76,-156.31 425.31,-146.18"/>
<polygon fill="midnightblue" stroke="midnightblue" points="426.33,-142.82 415.74,-142.52 423.82,-149.36 426.33,-142.82"/>
</g>
<!-- Node22 -->
<g id="node22" class="node">
<title>Node22</title>
<g id="a_node22"><a xlink:title=" ">
<polygon fill="white" stroke="#bfbfbf" points="259,-123.5 259,-142.5 326,-142.5 326,-123.5 259,-123.5"/>
<text text-anchor="middle" x="292.5" y="-130.5" font-family="Helvetica,sans-Serif" font-size="10.00">G4Tubs.hh</text>
</a>
</g>
</g>
<!-- Node20&#45;&gt;Node22 -->
<g id="edge25" class="edge">
<title>Node20&#45;&gt;Node22</title>
<path fill="none" stroke="midnightblue" d="M496.15,-179.44C452.66,-169.74 381.88,-153.95 336.27,-143.77"/>
<polygon fill="midnightblue" stroke="midnightblue" points="336.89,-140.32 326.37,-141.56 335.37,-147.15 336.89,-140.32"/>
</g>
</g>
</svg>
