<?xml version="1.0" encoding="UTF-8" standalone="no"?>
<!DOCTYPE svg PUBLIC "-//W3C//DTD SVG 1.1//EN"
 "http://www.w3.org/Graphics/SVG/1.1/DTD/svg11.dtd">
<!-- Generated by graphviz version 2.43.0 (0)
 -->
<!-- Title: OMSimMDOMFlasher.cc Pages: 1 -->
<svg width="1423pt" height="375pt"
 viewBox="0.00 0.00 1422.50 375.00" xmlns="http://www.w3.org/2000/svg" xmlns:xlink="http://www.w3.org/1999/xlink">
<g id="graph0" class="graph" transform="scale(1 1) rotate(0) translate(4 371)">
<title>OMSimMDOMFlasher.cc</title>
<polygon fill="white" stroke="transparent" points="-4,4 -4,-371 1418.5,-371 1418.5,4 -4,4"/>
<!-- Node1 -->
<g id="node1" class="node">
<title>Node1</title>
<g id="a_node1"><a xlink:title=" ">
<polygon fill="#bfbfbf" stroke="black" points="1095.5,-347.5 1095.5,-366.5 1229.5,-366.5 1229.5,-347.5 1095.5,-347.5"/>
<text text-anchor="middle" x="1162.5" y="-354.5" font-family="Helvetica,sans-Serif" font-size="10.00">OMSimMDOMFlasher.cc</text>
</a>
</g>
</g>
<!-- Node2 -->
<g id="node2" class="node">
<title>Node2</title>
<g id="a_node2"><a xlink:href="_o_m_sim_m_d_o_m_8hh.html" target="_top" xlink:title="Construction of mDOM.">
<polygon fill="white" stroke="black" points="631.5,-291.5 631.5,-310.5 731.5,-310.5 731.5,-291.5 631.5,-291.5"/>
<text text-anchor="middle" x="681.5" y="-298.5" font-family="Helvetica,sans-Serif" font-size="10.00">OMSimMDOM.hh</text>
</a>
</g>
</g>
<!-- Node1&#45;&gt;Node2 -->
<g id="edge1" class="edge">
<title>Node1&#45;&gt;Node2</title>
<path fill="none" stroke="midnightblue" d="M1095.37,-348.46C1001.34,-337.91 831.85,-318.88 741.7,-308.76"/>
<polygon fill="midnightblue" stroke="midnightblue" points="741.97,-305.27 731.64,-307.63 741.19,-312.22 741.97,-305.27"/>
</g>
<!-- Node26 -->
<g id="node26" class="node">
<title>Node26</title>
<g id="a_node26"><a xlink:href="_o_m_sim_u_iinterface_8hh.html" target="_top" xlink:title="The OMSimUIinterface class provides a singleton interface to Geant4&#39;s UI manager.">
<polygon fill="white" stroke="black" points="1102,-291.5 1102,-310.5 1223,-310.5 1223,-291.5 1102,-291.5"/>
<text text-anchor="middle" x="1162.5" y="-298.5" font-family="Helvetica,sans-Serif" font-size="10.00">OMSimUIinterface.hh</text>
</a>
</g>
</g>
<!-- Node1&#45;&gt;Node26 -->
<g id="edge32" class="edge">
<title>Node1&#45;&gt;Node26</title>
<path fill="none" stroke="midnightblue" d="M1162.5,-347.08C1162.5,-340.01 1162.5,-329.86 1162.5,-320.99"/>
<polygon fill="midnightblue" stroke="midnightblue" points="1166,-320.75 1162.5,-310.75 1159,-320.75 1166,-320.75"/>
</g>
<!-- Node27 -->
<g id="node27" class="node">
<title>Node27</title>
<g id="a_node27"><a xlink:href="_o_m_sim_command_args_table_8hh.html" target="_top" xlink:title="Definition of the OMSimCommandArgsTable singleton class, which controls user args.">
<polygon fill="white" stroke="black" points="1036.5,-235.5 1036.5,-254.5 1200.5,-254.5 1200.5,-235.5 1036.5,-235.5"/>
<text text-anchor="middle" x="1118.5" y="-242.5" font-family="Helvetica,sans-Serif" font-size="10.00">OMSimCommandArgsTable.hh</text>
</a>
</g>
</g>
<!-- Node1&#45;&gt;Node27 -->
<g id="edge41" class="edge">
<title>Node1&#45;&gt;Node27</title>
<path fill="none" stroke="midnightblue" d="M1138.03,-347.44C1121.93,-340.38 1102.12,-328.63 1092.5,-311 1083.9,-295.25 1093.87,-276.04 1103.85,-262.61"/>
<polygon fill="midnightblue" stroke="midnightblue" points="1106.67,-264.69 1110.21,-254.71 1101.22,-260.3 1106.67,-264.69"/>
</g>
<!-- Node34 -->
<g id="node34" class="node">
<title>Node34</title>
<g id="a_node34"><a xlink:title=" ">
<polygon fill="white" stroke="#bfbfbf" points="1241,-291.5 1241,-310.5 1310,-310.5 1310,-291.5 1241,-291.5"/>
<text text-anchor="middle" x="1275.5" y="-298.5" font-family="Helvetica,sans-Serif" font-size="10.00">G4Cons.hh</text>
</a>
</g>
</g>
<!-- Node1&#45;&gt;Node34 -->
<g id="edge42" class="edge">
<title>Node1&#45;&gt;Node34</title>
<path fill="none" stroke="midnightblue" d="M1180.41,-347.44C1198.75,-338.68 1227.51,-324.94 1248.59,-314.86"/>
<polygon fill="midnightblue" stroke="midnightblue" points="1250.17,-317.99 1257.68,-310.52 1247.15,-311.67 1250.17,-317.99"/>
</g>
<!-- Node35 -->
<g id="node35" class="node">
<title>Node35</title>
<g id="a_node35"><a xlink:title=" ">
<polygon fill="white" stroke="#bfbfbf" points="1328.5,-291.5 1328.5,-310.5 1414.5,-310.5 1414.5,-291.5 1328.5,-291.5"/>
<text text-anchor="middle" x="1371.5" y="-298.5" font-family="Helvetica,sans-Serif" font-size="10.00">G4Ellipsoid.hh</text>
</a>
</g>
</g>
<!-- Node1&#45;&gt;Node35 -->
<g id="edge43" class="edge">
<title>Node1&#45;&gt;Node35</title>
<path fill="none" stroke="midnightblue" d="M1195.62,-347.44C1231.62,-338.14 1289.27,-323.25 1328.69,-313.06"/>
<polygon fill="midnightblue" stroke="midnightblue" points="1329.73,-316.41 1338.54,-310.52 1327.98,-309.63 1329.73,-316.41"/>
</g>
<!-- Node3 -->
<g id="node3" class="node">
<title>Node3</title>
<g id="a_node3"><a xlink:href="_o_m_sim_m_d_o_m_flasher_8hh.html" target="_top" xlink:title="Defines the mDOMFlasher class for simulating the 10 flashers in an mDOM optical module.">
<polygon fill="white" stroke="black" points="375,-179.5 375,-198.5 510,-198.5 510,-179.5 375,-179.5"/>
<text text-anchor="middle" x="442.5" y="-186.5" font-family="Helvetica,sans-Serif" font-size="10.00">OMSimMDOMFlasher.hh</text>
</a>
</g>
</g>
<!-- Node2&#45;&gt;Node3 -->
<g id="edge2" class="edge">
<title>Node2&#45;&gt;Node3</title>
<path fill="none" stroke="midnightblue" d="M652.65,-291.46C626.51,-283.33 587.2,-270.12 554.5,-255 521.83,-239.89 486.21,-218.25 464.11,-204.16"/>
<polygon fill="midnightblue" stroke="midnightblue" points="465.82,-201.1 455.52,-198.63 462.03,-206.99 465.82,-201.1"/>
</g>
<!-- Node15 -->
<g id="node15" class="node">
<title>Node15</title>
<g id="a_node15"><a xlink:href="_o_m_sim_p_m_t_construction_8hh.html" target="_top" xlink:title="Construction of the PMTs.">
<polygon fill="white" stroke="black" points="594,-179.5 594,-198.5 743,-198.5 743,-179.5 594,-179.5"/>
<text text-anchor="middle" x="668.5" y="-186.5" font-family="Helvetica,sans-Serif" font-size="10.00">OMSimPMTConstruction.hh</text>
</a>
</g>
</g>
<!-- Node2&#45;&gt;Node15 -->
<g id="edge14" class="edge">
<title>Node2&#45;&gt;Node15</title>
<path fill="none" stroke="midnightblue" d="M689.91,-291.25C700.78,-278.85 717.4,-255.4 709.5,-235 705.05,-223.5 696.13,-213.13 687.75,-205.25"/>
<polygon fill="midnightblue" stroke="midnightblue" points="689.87,-202.46 680.04,-198.51 685.26,-207.73 689.87,-202.46"/>
</g>
<!-- Node22 -->
<g id="node22" class="node">
<title>Node22</title>
<g id="a_node22"><a xlink:href="_o_m_sim_optical_module_8hh.html" target="_top" xlink:title=" ">
<polygon fill="white" stroke="black" points="564,-235.5 564,-254.5 701,-254.5 701,-235.5 564,-235.5"/>
<text text-anchor="middle" x="632.5" y="-242.5" font-family="Helvetica,sans-Serif" font-size="10.00">OMSimOpticalModule.hh</text>
</a>
</g>
</g>
<!-- Node2&#45;&gt;Node22 -->
<g id="edge25" class="edge">
<title>Node2&#45;&gt;Node22</title>
<path fill="none" stroke="midnightblue" d="M673.41,-291.08C666.34,-283.3 655.91,-271.8 647.35,-262.37"/>
<polygon fill="midnightblue" stroke="midnightblue" points="649.75,-259.8 640.44,-254.75 644.57,-264.51 649.75,-259.8"/>
</g>
<!-- Node4 -->
<g id="node4" class="node">
<title>Node4</title>
<g id="a_node4"><a xlink:href="abc_detector_component_8hh.html" target="_top" xlink:title="Provides helper base class abcDetectorComponent for constructing and managing detector components in ...">
<polygon fill="white" stroke="black" points="481,-123.5 481,-142.5 628,-142.5 628,-123.5 481,-123.5"/>
<text text-anchor="middle" x="554.5" y="-130.5" font-family="Helvetica,sans-Serif" font-size="10.00">abcDetectorComponent.hh</text>
</a>
</g>
</g>
<!-- Node3&#45;&gt;Node4 -->
<g id="edge3" class="edge">
<title>Node3&#45;&gt;Node4</title>
<path fill="none" stroke="midnightblue" d="M460.49,-179.32C478.54,-170.62 506.55,-157.12 527.3,-147.11"/>
<polygon fill="midnightblue" stroke="midnightblue" points="529.06,-150.15 536.55,-142.65 526.02,-143.84 529.06,-150.15"/>
</g>
<!-- Node13 -->
<g id="node13" class="node">
<title>Node13</title>
<g id="a_node13"><a xlink:title=" ">
<polygon fill="white" stroke="#bfbfbf" points="364.5,-123.5 364.5,-142.5 462.5,-142.5 462.5,-123.5 364.5,-123.5"/>
<text text-anchor="middle" x="413.5" y="-130.5" font-family="Helvetica,sans-Serif" font-size="10.00">G4UnionSolid.hh</text>
</a>
</g>
</g>
<!-- Node3&#45;&gt;Node13 -->
<g id="edge12" class="edge">
<title>Node3&#45;&gt;Node13</title>
<path fill="none" stroke="midnightblue" d="M437.71,-179.08C433.74,-171.69 427.97,-160.95 423.07,-151.81"/>
<polygon fill="midnightblue" stroke="midnightblue" points="426.01,-149.91 418.2,-142.75 419.85,-153.22 426.01,-149.91"/>
</g>
<!-- Node14 -->
<g id="node14" class="node">
<title>Node14</title>
<g id="a_node14"><a xlink:title=" ">
<polygon fill="white" stroke="#bfbfbf" points="254.5,-123.5 254.5,-142.5 346.5,-142.5 346.5,-123.5 254.5,-123.5"/>
<text text-anchor="middle" x="300.5" y="-130.5" font-family="Helvetica,sans-Serif" font-size="10.00">G4Navigator.hh</text>
</a>
</g>
</g>
<!-- Node3&#45;&gt;Node14 -->
<g id="edge13" class="edge">
<title>Node3&#45;&gt;Node14</title>
<path fill="none" stroke="midnightblue" d="M420,-179.44C396.42,-170.48 359.18,-156.31 332.54,-146.18"/>
<polygon fill="midnightblue" stroke="midnightblue" points="333.49,-142.8 322.9,-142.52 331,-149.34 333.49,-142.8"/>
</g>
<!-- Node5 -->
<g id="node5" class="node">
<title>Node5</title>
<g id="a_node5"><a xlink:href="_o_m_sim_input_data_8hh.html" target="_top" xlink:title="Definition of ParameterTable and InputDataManager.">
<polygon fill="white" stroke="black" points="87,-67.5 87,-86.5 202,-86.5 202,-67.5 87,-67.5"/>
<text text-anchor="middle" x="144.5" y="-74.5" font-family="Helvetica,sans-Serif" font-size="10.00">OMSimInputData.hh</text>
</a>
</g>
</g>
<!-- Node4&#45;&gt;Node5 -->
<g id="edge4" class="edge">
<title>Node4&#45;&gt;Node5</title>
<path fill="none" stroke="midnightblue" d="M488.54,-123.48C421.51,-114.8 314.39,-100.85 212.27,-87.23"/>
<polygon fill="midnightblue" stroke="midnightblue" points="212.47,-83.73 202.09,-85.87 211.54,-90.66 212.47,-83.73"/>
</g>
<!-- Node9 -->
<g id="node9" class="node">
<title>Node9</title>
<g id="a_node9"><a xlink:title=" ">
<polygon fill="white" stroke="#bfbfbf" points="220,-67.5 220,-86.5 327,-86.5 327,-67.5 220,-67.5"/>
<text text-anchor="middle" x="273.5" y="-74.5" font-family="Helvetica,sans-Serif" font-size="10.00">G4Transform3D.hh</text>
</a>
</g>
</g>
<!-- Node4&#45;&gt;Node9 -->
<g id="edge8" class="edge">
<title>Node4&#45;&gt;Node9</title>
<path fill="none" stroke="midnightblue" d="M509.97,-123.44C460.54,-113.94 380.75,-98.61 327.72,-88.42"/>
<polygon fill="midnightblue" stroke="midnightblue" points="328.3,-84.97 317.82,-86.52 326.98,-91.84 328.3,-84.97"/>
</g>
<!-- Node10 -->
<g id="node10" class="node">
<title>Node10</title>
<g id="a_node10"><a xlink:title=" ">
<polygon fill="white" stroke="#bfbfbf" points="345.5,-67.5 345.5,-86.5 453.5,-86.5 453.5,-67.5 345.5,-67.5"/>
<text text-anchor="middle" x="399.5" y="-74.5" font-family="Helvetica,sans-Serif" font-size="10.00">G4VisAttributes.hh</text>
</a>
</g>
</g>
<!-- Node4&#45;&gt;Node10 -->
<g id="edge9" class="edge">
<title>Node4&#45;&gt;Node10</title>
<path fill="none" stroke="midnightblue" d="M529.94,-123.44C503.98,-114.4 462.83,-100.06 433.7,-89.92"/>
<polygon fill="midnightblue" stroke="midnightblue" points="434.54,-86.5 423.95,-86.52 432.24,-93.11 434.54,-86.5"/>
</g>
<!-- Node11 -->
<g id="node11" class="node">
<title>Node11</title>
<g id="a_node11"><a xlink:title=" ">
<polygon fill="white" stroke="#bfbfbf" points="472,-67.5 472,-86.5 597,-86.5 597,-67.5 472,-67.5"/>
<text text-anchor="middle" x="534.5" y="-74.5" font-family="Helvetica,sans-Serif" font-size="10.00">G4SubtractionSolid.hh</text>
</a>
</g>
</g>
<!-- Node4&#45;&gt;Node11 -->
<g id="edge10" class="edge">
<title>Node4&#45;&gt;Node11</title>
<path fill="none" stroke="midnightblue" d="M551.2,-123.08C548.52,-115.85 544.65,-105.41 541.31,-96.4"/>
<polygon fill="midnightblue" stroke="midnightblue" points="544.5,-94.91 537.74,-86.75 537.93,-97.34 544.5,-94.91"/>
</g>
<!-- Node12 -->
<g id="node12" class="node">
<title>Node12</title>
<g id="a_node12"><a xlink:title=" ">
<polygon fill="white" stroke="#bfbfbf" points="615.5,-67.5 615.5,-86.5 725.5,-86.5 725.5,-67.5 615.5,-67.5"/>
<text text-anchor="middle" x="670.5" y="-74.5" font-family="Helvetica,sans-Serif" font-size="10.00">G4PVPlacement.hh</text>
</a>
</g>
</g>
<!-- Node4&#45;&gt;Node12 -->
<g id="edge11" class="edge">
<title>Node4&#45;&gt;Node12</title>
<path fill="none" stroke="midnightblue" d="M572.88,-123.44C591.72,-114.68 621.23,-100.94 642.88,-90.86"/>
<polygon fill="midnightblue" stroke="midnightblue" points="644.62,-93.91 652.21,-86.52 641.66,-87.56 644.62,-93.91"/>
</g>
<!-- Node6 -->
<g id="node6" class="node">
<title>Node6</title>
<g id="a_node6"><a xlink:title=" ">
<polygon fill="white" stroke="#bfbfbf" points="0,-6 0,-25 143,-25 143,-6 0,-6"/>
<text text-anchor="middle" x="71.5" y="-13" font-family="Helvetica,sans-Serif" font-size="10.00">G4OpBoundaryProcess.hh</text>
</a>
</g>
</g>
<!-- Node5&#45;&gt;Node6 -->
<g id="edge5" class="edge">
<title>Node5&#45;&gt;Node6</title>
<path fill="none" stroke="midnightblue" d="M134.04,-67.48C122.55,-58.11 103.87,-42.88 89.91,-31.51"/>
<polygon fill="midnightblue" stroke="midnightblue" points="91.9,-28.61 81.94,-25.01 87.48,-34.04 91.9,-28.61"/>
</g>
<!-- Node7 -->
<g id="node7" class="node">
<title>Node7</title>
<g id="a_node7"><a xlink:title=" ">
<polygon fill="white" stroke="#bfbfbf" points="493,-6 493,-25 612,-25 612,-6 493,-6"/>
<text text-anchor="middle" x="552.5" y="-13" font-family="Helvetica,sans-Serif" font-size="10.00">G4SystemOfUnits.hh</text>
</a>
</g>
</g>
<!-- Node5&#45;&gt;Node7 -->
<g id="edge6" class="edge">
<title>Node5&#45;&gt;Node7</title>
<path fill="none" stroke="midnightblue" d="M202.09,-67.6C276.19,-56.79 404.77,-38.04 483.87,-26.51"/>
<polygon fill="midnightblue" stroke="midnightblue" points="484.82,-29.91 494.21,-25 483.81,-22.98 484.82,-29.91"/>
</g>
<!-- Node8 -->
<g id="node8" class="node">
<title>Node8</title>
<g id="a_node8"><a xlink:title=" ">
<polygon fill="white" stroke="#bfbfbf" points="161,-0.5 161,-30.5 274,-30.5 274,-0.5 161,-0.5"/>
<text text-anchor="start" x="169" y="-18.5" font-family="Helvetica,sans-Serif" font-size="10.00">boost/property_tree</text>
<text text-anchor="middle" x="217.5" y="-7.5" font-family="Helvetica,sans-Serif" font-size="10.00">/json_parser.hpp</text>
</a>
</g>
</g>
<!-- Node5&#45;&gt;Node8 -->
<g id="edge7" class="edge">
<title>Node5&#45;&gt;Node8</title>
<path fill="none" stroke="midnightblue" d="M154.96,-67.48C164.66,-59.57 179.49,-47.48 192.27,-37.07"/>
<polygon fill="midnightblue" stroke="midnightblue" points="194.76,-39.55 200.3,-30.52 190.33,-34.13 194.76,-39.55"/>
</g>
<!-- Node15&#45;&gt;Node4 -->
<g id="edge15" class="edge">
<title>Node15&#45;&gt;Node4</title>
<path fill="none" stroke="midnightblue" d="M650.44,-179.44C631.93,-170.68 602.92,-156.94 581.64,-146.86"/>
<polygon fill="midnightblue" stroke="midnightblue" points="583.01,-143.63 572.48,-142.52 580.02,-149.96 583.01,-143.63"/>
</g>
<!-- Node15&#45;&gt;Node13 -->
<g id="edge23" class="edge">
<title>Node15&#45;&gt;Node13</title>
<path fill="none" stroke="midnightblue" d="M628.09,-179.44C583.52,-170 511.73,-154.8 463.61,-144.61"/>
<polygon fill="midnightblue" stroke="midnightblue" points="464.22,-141.16 453.72,-142.52 462.77,-148.01 464.22,-141.16"/>
</g>
<!-- Node15&#45;&gt;Node15 -->
<g id="edge16" class="edge">
<title>Node15&#45;&gt;Node15</title>
<path fill="none" stroke="midnightblue" d="M707.95,-198.53C734.76,-201.31 761,-198.13 761,-189 761,-181.01 740.91,-177.58 717.93,-178.71"/>
<polygon fill="midnightblue" stroke="midnightblue" points="717.65,-175.22 707.95,-179.47 718.19,-182.2 717.65,-175.22"/>
</g>
<!-- Node16 -->
<g id="node16" class="node">
<title>Node16</title>
<g id="a_node16"><a xlink:href="_o_m_sim_p_m_t_response_8hh.html" target="_top" xlink:title="Provides simulation for PMT response. This class is responsible for transforming hits on photocathode...">
<polygon fill="white" stroke="black" points="741,-123.5 741,-142.5 876,-142.5 876,-123.5 741,-123.5"/>
<text text-anchor="middle" x="808.5" y="-130.5" font-family="Helvetica,sans-Serif" font-size="10.00">OMSimPMTResponse.hh</text>
</a>
</g>
</g>
<!-- Node15&#45;&gt;Node16 -->
<g id="edge17" class="edge">
<title>Node15&#45;&gt;Node16</title>
<path fill="none" stroke="midnightblue" d="M690.68,-179.44C713.93,-170.48 750.65,-156.31 776.92,-146.18"/>
<polygon fill="midnightblue" stroke="midnightblue" points="778.35,-149.38 786.42,-142.52 775.83,-142.85 778.35,-149.38"/>
</g>
<!-- Node21 -->
<g id="node21" class="node">
<title>Node21</title>
<g id="a_node21"><a xlink:title=" ">
<polygon fill="white" stroke="#bfbfbf" points="646,-123.5 646,-142.5 713,-142.5 713,-123.5 646,-123.5"/>
<text text-anchor="middle" x="679.5" y="-130.5" font-family="Helvetica,sans-Serif" font-size="10.00">G4Tubs.hh</text>
</a>
</g>
</g>
<!-- Node15&#45;&gt;Node21 -->
<g id="edge24" class="edge">
<title>Node15&#45;&gt;Node21</title>
<path fill="none" stroke="midnightblue" d="M670.32,-179.08C671.77,-171.93 673.87,-161.64 675.69,-152.69"/>
<polygon fill="midnightblue" stroke="midnightblue" points="679.15,-153.25 677.72,-142.75 672.29,-151.85 679.15,-153.25"/>
</g>
<!-- Node16&#45;&gt;Node7 -->
<g id="edge18" class="edge">
<title>Node16&#45;&gt;Node7</title>
<path fill="none" stroke="midnightblue" d="M801.2,-123.47C788.86,-109.59 762.48,-82.13 734.5,-67 698.12,-47.33 653.4,-34.78 617.4,-27.11"/>
<polygon fill="midnightblue" stroke="midnightblue" points="617.99,-23.66 607.49,-25.08 616.58,-30.52 617.99,-23.66"/>
</g>
<!-- Node17 -->
<g id="node17" class="node">
<title>Node17</title>
<g id="a_node17"><a xlink:title=" ">
<polygon fill="white" stroke="#bfbfbf" points="782,-67.5 782,-86.5 855,-86.5 855,-67.5 782,-67.5"/>
<text text-anchor="middle" x="818.5" y="-74.5" font-family="Helvetica,sans-Serif" font-size="10.00">G4Types.hh</text>
</a>
</g>
</g>
<!-- Node16&#45;&gt;Node17 -->
<g id="edge19" class="edge">
<title>Node16&#45;&gt;Node17</title>
<path fill="none" stroke="midnightblue" d="M810.15,-123.08C811.48,-115.93 813.38,-105.64 815.04,-96.69"/>
<polygon fill="midnightblue" stroke="midnightblue" points="818.5,-97.22 816.88,-86.75 811.62,-95.95 818.5,-97.22"/>
</g>
<!-- Node18 -->
<g id="node18" class="node">
<title>Node18</title>
<g id="a_node18"><a xlink:title=" ">
<polygon fill="white" stroke="#bfbfbf" points="873.5,-67.5 873.5,-86.5 911.5,-86.5 911.5,-67.5 873.5,-67.5"/>
<text text-anchor="middle" x="892.5" y="-74.5" font-family="Helvetica,sans-Serif" font-size="10.00">map</text>
</a>
</g>
</g>
<!-- Node16&#45;&gt;Node18 -->
<g id="edge20" class="edge">
<title>Node16&#45;&gt;Node18</title>
<path fill="none" stroke="midnightblue" d="M822,-123.32C835.1,-114.9 855.21,-101.97 870.61,-92.07"/>
<polygon fill="midnightblue" stroke="midnightblue" points="872.52,-95.01 879.04,-86.65 868.73,-89.12 872.52,-95.01"/>
</g>
<!-- Node19 -->
<g id="node19" class="node">
<title>Node19</title>
<g id="a_node19"><a xlink:title=" ">
<polygon fill="white" stroke="#bfbfbf" points="930,-67.5 930,-86.5 991,-86.5 991,-67.5 930,-67.5"/>
<text text-anchor="middle" x="960.5" y="-74.5" font-family="Helvetica,sans-Serif" font-size="10.00">TGraph.h</text>
</a>
</g>
</g>
<!-- Node16&#45;&gt;Node19 -->
<g id="edge21" class="edge">
<title>Node16&#45;&gt;Node19</title>
<path fill="none" stroke="midnightblue" d="M832.58,-123.44C858.04,-114.4 898.39,-100.06 926.96,-89.92"/>
<polygon fill="midnightblue" stroke="midnightblue" points="928.28,-93.16 936.53,-86.52 925.93,-86.57 928.28,-93.16"/>
</g>
<!-- Node20 -->
<g id="node20" class="node">
<title>Node20</title>
<g id="a_node20"><a xlink:title=" ">
<polygon fill="white" stroke="#bfbfbf" points="1009,-67.5 1009,-86.5 1062,-86.5 1062,-67.5 1009,-67.5"/>
<text text-anchor="middle" x="1035.5" y="-74.5" font-family="Helvetica,sans-Serif" font-size="10.00">TH2D.h</text>
</a>
</g>
</g>
<!-- Node16&#45;&gt;Node20 -->
<g id="edge22" class="edge">
<title>Node16&#45;&gt;Node20</title>
<path fill="none" stroke="midnightblue" d="M845.51,-123.44C881.98,-114.96 939.56,-101.5 998.86,-87.13"/>
<polygon fill="midnightblue" stroke="midnightblue" points="999.88,-90.48 1008.77,-84.72 998.23,-83.68 999.88,-90.48"/>
</g>
<!-- Node22&#45;&gt;Node4 -->
<g id="edge26" class="edge">
<title>Node22&#45;&gt;Node4</title>
<path fill="none" stroke="midnightblue" d="M621.02,-235.38C610.47,-227 594.93,-213.45 584.5,-199 574.06,-184.53 565.89,-165.84 560.73,-152.21"/>
<polygon fill="midnightblue" stroke="midnightblue" points="563.93,-150.78 557.25,-142.56 557.35,-153.15 563.93,-150.78"/>
</g>
<!-- Node22&#45;&gt;Node15 -->
<g id="edge31" class="edge">
<title>Node22&#45;&gt;Node15</title>
<path fill="none" stroke="midnightblue" d="M638.44,-235.08C643.48,-227.53 650.84,-216.49 657.01,-207.23"/>
<polygon fill="midnightblue" stroke="midnightblue" points="660.03,-209.01 662.67,-198.75 654.21,-205.13 660.03,-209.01"/>
</g>
<!-- Node23 -->
<g id="node23" class="node">
<title>Node23</title>
<g id="a_node23"><a xlink:href="_o_m_sim_hit_manager_8hh.html" target="_top" xlink:title="Defines structures and classes related to optical module photon hit management.">
<polygon fill="white" stroke="black" points="842,-179.5 842,-198.5 965,-198.5 965,-179.5 842,-179.5"/>
<text text-anchor="middle" x="903.5" y="-186.5" font-family="Helvetica,sans-Serif" font-size="10.00">OMSimHitManager.hh</text>
</a>
</g>
</g>
<!-- Node22&#45;&gt;Node23 -->
<g id="edge27" class="edge">
<title>Node22&#45;&gt;Node23</title>
<path fill="none" stroke="midnightblue" d="M675.44,-235.44C723.01,-225.96 799.74,-210.67 850.89,-200.48"/>
<polygon fill="midnightblue" stroke="midnightblue" points="851.64,-203.9 860.76,-198.52 850.27,-197.04 851.64,-203.9"/>
</g>
<!-- Node23&#45;&gt;Node16 -->
<g id="edge28" class="edge">
<title>Node23&#45;&gt;Node16</title>
<path fill="none" stroke="midnightblue" d="M888.24,-179.32C873.28,-170.82 850.25,-157.73 832.77,-147.8"/>
<polygon fill="midnightblue" stroke="midnightblue" points="834.15,-144.55 823.73,-142.65 830.69,-150.64 834.15,-144.55"/>
</g>
<!-- Node24 -->
<g id="node24" class="node">
<title>Node24</title>
<g id="a_node24"><a xlink:title=" ">
<polygon fill="white" stroke="#bfbfbf" points="894,-123.5 894,-142.5 997,-142.5 997,-123.5 894,-123.5"/>
<text text-anchor="middle" x="945.5" y="-130.5" font-family="Helvetica,sans-Serif" font-size="10.00">G4ThreeVector.hh</text>
</a>
</g>
</g>
<!-- Node23&#45;&gt;Node24 -->
<g id="edge29" class="edge">
<title>Node23&#45;&gt;Node24</title>
<path fill="none" stroke="midnightblue" d="M910.44,-179.08C916.43,-171.38 925.25,-160.03 932.55,-150.65"/>
<polygon fill="midnightblue" stroke="midnightblue" points="935.32,-152.79 938.69,-142.75 929.79,-148.5 935.32,-152.79"/>
</g>
<!-- Node25 -->
<g id="node25" class="node">
<title>Node25</title>
<g id="a_node25"><a xlink:title=" ">
<polygon fill="white" stroke="#bfbfbf" points="1015,-123.5 1015,-142.5 1070,-142.5 1070,-123.5 1015,-123.5"/>
<text text-anchor="middle" x="1042.5" y="-130.5" font-family="Helvetica,sans-Serif" font-size="10.00">fstream</text>
</a>
</g>
</g>
<!-- Node23&#45;&gt;Node25 -->
<g id="edge30" class="edge">
<title>Node23&#45;&gt;Node25</title>
<path fill="none" stroke="midnightblue" d="M925.52,-179.44C948.6,-170.48 985.06,-156.31 1011.14,-146.18"/>
<polygon fill="midnightblue" stroke="midnightblue" points="1012.52,-149.4 1020.58,-142.52 1009.99,-142.88 1012.52,-149.4"/>
</g>
<!-- Node26&#45;&gt;Node27 -->
<g id="edge33" class="edge">
<title>Node26&#45;&gt;Node27</title>
<path fill="none" stroke="midnightblue" d="M1155.23,-291.08C1148.96,-283.38 1139.71,-272.03 1132.07,-262.65"/>
<polygon fill="midnightblue" stroke="midnightblue" points="1134.66,-260.29 1125.63,-254.75 1129.23,-264.71 1134.66,-260.29"/>
</g>
<!-- Node33 -->
<g id="node33" class="node">
<title>Node33</title>
<g id="a_node33"><a xlink:title=" ">
<polygon fill="white" stroke="#bfbfbf" points="1218.5,-235.5 1218.5,-254.5 1316.5,-254.5 1316.5,-235.5 1218.5,-235.5"/>
<text text-anchor="middle" x="1267.5" y="-242.5" font-family="Helvetica,sans-Serif" font-size="10.00">G4UImanager.hh</text>
</a>
</g>
</g>
<!-- Node26&#45;&gt;Node33 -->
<g id="edge40" class="edge">
<title>Node26&#45;&gt;Node33</title>
<path fill="none" stroke="midnightblue" d="M1179.37,-291.32C1196.21,-282.66 1222.31,-269.24 1241.74,-259.25"/>
<polygon fill="midnightblue" stroke="midnightblue" points="1243.38,-262.34 1250.67,-254.65 1240.18,-256.12 1243.38,-262.34"/>
</g>
<!-- Node27&#45;&gt;Node25 -->
<g id="edge37" class="edge">
<title>Node27&#45;&gt;Node25</title>
<path fill="none" stroke="midnightblue" d="M1101.77,-235.36C1088.38,-227.6 1070.14,-214.98 1059.5,-199 1050.31,-185.2 1046.08,-166.67 1044.14,-152.93"/>
<polygon fill="midnightblue" stroke="midnightblue" points="1047.59,-152.27 1042.99,-142.72 1040.63,-153.05 1047.59,-152.27"/>
</g>
<!-- Node28 -->
<g id="node28" class="node">
<title>Node28</title>
<g id="a_node28"><a xlink:href="_o_m_sim_logger_8hh.html" target="_top" xlink:title=" ">
<polygon fill="white" stroke="black" points="1069,-179.5 1069,-198.5 1168,-198.5 1168,-179.5 1069,-179.5"/>
<text text-anchor="middle" x="1118.5" y="-186.5" font-family="Helvetica,sans-Serif" font-size="10.00">OMSimLogger.hh</text>
</a>
</g>
</g>
<!-- Node27&#45;&gt;Node28 -->
<g id="edge34" class="edge">
<title>Node27&#45;&gt;Node28</title>
<path fill="none" stroke="midnightblue" d="M1118.5,-235.08C1118.5,-228.01 1118.5,-217.86 1118.5,-208.99"/>
<polygon fill="midnightblue" stroke="midnightblue" points="1122,-208.75 1118.5,-198.75 1115,-208.75 1122,-208.75"/>
</g>
<!-- Node31 -->
<g id="node31" class="node">
<title>Node31</title>
<g id="a_node31"><a xlink:title=" ">
<polygon fill="white" stroke="#bfbfbf" points="1186.5,-179.5 1186.5,-198.5 1270.5,-198.5 1270.5,-179.5 1186.5,-179.5"/>
<text text-anchor="middle" x="1228.5" y="-186.5" font-family="Helvetica,sans-Serif" font-size="10.00">boost/any.hpp</text>
</a>
</g>
</g>
<!-- Node27&#45;&gt;Node31 -->
<g id="edge38" class="edge">
<title>Node27&#45;&gt;Node31</title>
<path fill="none" stroke="midnightblue" d="M1136.17,-235.32C1153.89,-226.62 1181.4,-213.12 1201.79,-203.11"/>
<polygon fill="midnightblue" stroke="midnightblue" points="1203.44,-206.2 1210.87,-198.65 1200.35,-199.92 1203.44,-206.2"/>
</g>
<!-- Node32 -->
<g id="node32" class="node">
<title>Node32</title>
<g id="a_node32"><a xlink:title=" ">
<polygon fill="white" stroke="#bfbfbf" points="1288.5,-179.5 1288.5,-198.5 1356.5,-198.5 1356.5,-179.5 1288.5,-179.5"/>
<text text-anchor="middle" x="1322.5" y="-186.5" font-family="Helvetica,sans-Serif" font-size="10.00">sys/time.h</text>
</a>
</g>
</g>
<!-- Node27&#45;&gt;Node32 -->
<g id="edge39" class="edge">
<title>Node27&#45;&gt;Node32</title>
<path fill="none" stroke="midnightblue" d="M1150.82,-235.44C1185.89,-226.16 1242,-211.31 1280.46,-201.13"/>
<polygon fill="midnightblue" stroke="midnightblue" points="1281.56,-204.46 1290.33,-198.52 1279.76,-197.69 1281.56,-204.46"/>
</g>
<!-- Node29 -->
<g id="node29" class="node">
<title>Node29</title>
<g id="a_node29"><a xlink:title=" ">
<polygon fill="white" stroke="#bfbfbf" points="1158.5,-123.5 1158.5,-142.5 1208.5,-142.5 1208.5,-123.5 1158.5,-123.5"/>
<text text-anchor="middle" x="1183.5" y="-130.5" font-family="Helvetica,sans-Serif" font-size="10.00">stdio.h</text>
</a>
</g>
</g>
<!-- Node28&#45;&gt;Node29 -->
<g id="edge35" class="edge">
<title>Node28&#45;&gt;Node29</title>
<path fill="none" stroke="midnightblue" d="M1128.94,-179.32C1138.65,-171.26 1153.32,-159.08 1165,-149.37"/>
<polygon fill="midnightblue" stroke="midnightblue" points="1167.41,-151.92 1172.87,-142.83 1162.94,-146.53 1167.41,-151.92"/>
</g>
<!-- Node30 -->
<g id="node30" class="node">
<title>Node30</title>
<g id="a_node30"><a xlink:title=" ">
<polygon fill="white" stroke="#bfbfbf" points="1092.5,-123.5 1092.5,-142.5 1140.5,-142.5 1140.5,-123.5 1092.5,-123.5"/>
<text text-anchor="middle" x="1116.5" y="-130.5" font-family="Helvetica,sans-Serif" font-size="10.00">time.h</text>
</a>
</g>
</g>
<!-- Node28&#45;&gt;Node30 -->
<g id="edge36" class="edge">
<title>Node28&#45;&gt;Node30</title>
<path fill="none" stroke="midnightblue" d="M1118.17,-179.08C1117.91,-172.01 1117.53,-161.86 1117.2,-152.99"/>
<polygon fill="midnightblue" stroke="midnightblue" points="1120.69,-152.61 1116.82,-142.75 1113.7,-152.87 1120.69,-152.61"/>
</g>
</g>
</svg>
