<?xml version="1.0" encoding="UTF-8" standalone="no"?>
<!DOCTYPE svg PUBLIC "-//W3C//DTD SVG 1.1//EN"
 "http://www.w3.org/Graphics/SVG/1.1/DTD/svg11.dtd">
<!-- Generated by graphviz version 2.43.0 (0)
 -->
<!-- Title: OMSimActionInitialization.hh Pages: 1 -->
<svg width="248pt" height="84pt"
 viewBox="0.00 0.00 248.00 84.00" xmlns="http://www.w3.org/2000/svg" xmlns:xlink="http://www.w3.org/1999/xlink">
<g id="graph0" class="graph" transform="scale(1 1) rotate(0) translate(4 80)">
<title>OMSimActionInitialization.hh</title>
<polygon fill="white" stroke="transparent" points="-4,4 -4,-80 244,-80 244,4 -4,4"/>
<!-- Node1 -->
<g id="node1" class="node">
<title>Node1</title>
<g id="a_node1"><a xlink:title=" ">
<polygon fill="#bfbfbf" stroke="black" points="17.5,-56.5 17.5,-75.5 175.5,-75.5 175.5,-56.5 17.5,-56.5"/>
<text text-anchor="middle" x="96.5" y="-63.5" font-family="Helvetica,sans-Serif" font-size="10.00">OMSimActionInitialization.hh</text>
</a>
</g>
</g>
<!-- Node2 -->
<g id="node2" class="node">
<title>Node2</title>
<g id="a_node2"><a xlink:href="_o_m_sim_8cc.html" target="_top" xlink:title="Implementation of the OMSim class.">
<polygon fill="white" stroke="black" points="0,-0.5 0,-19.5 65,-19.5 65,-0.5 0,-0.5"/>
<text text-anchor="middle" x="32.5" y="-7.5" font-family="Helvetica,sans-Serif" font-size="10.00">OMSim.cc</text>
</a>
</g>
</g>
<!-- Node1&#45;&gt;Node2 -->
<g id="edge1" class="edge">
<title>Node1&#45;&gt;Node2</title>
<path fill="none" stroke="midnightblue" d="M78.51,-49.82C67.04,-40.15 52.59,-27.95 42.97,-19.83"/>
<polygon fill="midnightblue" stroke="midnightblue" points="76.32,-52.55 86.22,-56.32 80.83,-47.2 76.32,-52.55"/>
</g>
<!-- Node3 -->
<g id="node3" class="node">
<title>Node3</title>
<g id="a_node3"><a xlink:href="_o_m_sim_action_initialization_8cc.html" target="_top" xlink:title=" ">
<polygon fill="white" stroke="black" points="83,-0.5 83,-19.5 240,-19.5 240,-0.5 83,-0.5"/>
<text text-anchor="middle" x="161.5" y="-7.5" font-family="Helvetica,sans-Serif" font-size="10.00">OMSimActionInitialization.cc</text>
</a>
</g>
</g>
<!-- Node1&#45;&gt;Node3 -->
<g id="edge2" class="edge">
<title>Node1&#45;&gt;Node3</title>
<path fill="none" stroke="midnightblue" d="M114.77,-49.82C126.42,-40.15 141.1,-27.95 150.87,-19.83"/>
<polygon fill="midnightblue" stroke="midnightblue" points="112.4,-47.24 106.94,-56.32 116.87,-52.63 112.4,-47.24"/>
</g>
</g>
</svg>
