<?xml version="1.0" encoding="UTF-8" standalone="no"?>
<!DOCTYPE svg PUBLIC "-//W3C//DTD SVG 1.1//EN"
 "http://www.w3.org/Graphics/SVG/1.1/DTD/svg11.dtd">
<!-- Generated by graphviz version 2.43.0 (0)
 -->
<!-- Title: OMSimSNAnalysis.cc Pages: 1 -->
<svg width="3167pt" height="313pt"
 viewBox="0.00 0.00 3166.52 313.00" xmlns="http://www.w3.org/2000/svg" xmlns:xlink="http://www.w3.org/1999/xlink">
<g id="graph0" class="graph" transform="scale(1 1) rotate(0) translate(4 309)">
<title>OMSimSNAnalysis.cc</title>
<!-- Node1 -->
<g id="Node000001" class="node">
<title>Node1</title>
<g id="a_Node000001"><a xlink:title="Analyze data and write output files.">
<polygon fill="#999999" stroke="#666666" points="535.52,-305 415.52,-305 415.52,-286 535.52,-286 535.52,-305"/>
<text text-anchor="middle" x="475.52" y="-293" font-family="Helvetica,sans-Serif" font-size="10.00">OMSimSNAnalysis.cc</text>
</a>
</g>
</g>
<!-- Node2 -->
<g id="Node000002" class="node">
<title>Node2</title>
<g id="a_Node000002"><a xlink:href="_o_m_sim_s_n_analysis_8hh_source.html" target="_top" xlink:title=" ">
<polygon fill="white" stroke="#666666" points="482.52,-250 360.52,-250 360.52,-231 482.52,-231 482.52,-250"/>
<text text-anchor="middle" x="421.52" y="-238" font-family="Helvetica,sans-Serif" font-size="10.00">OMSimSNAnalysis.hh</text>
</a>
</g>
</g>
<!-- Node1&#45;&gt;Node2 -->
<g id="edge1_Node000001_Node000002" class="edge">
<title>Node1&#45;&gt;Node2</title>
<g id="a_edge1_Node000001_Node000002"><a xlink:title=" ">
<path fill="none" stroke="#63b8ff" d="M466.61,-285.75C458.74,-278.03 447.09,-266.6 437.6,-257.28"/>
<polygon fill="#63b8ff" stroke="#63b8ff" points="439.86,-254.6 430.27,-250.09 434.96,-259.59 439.86,-254.6"/>
</a>
</g>
</g>
<!-- Node6 -->
<g id="Node000006" class="node">
<title>Node6</title>
<g id="a_Node000006"><a xlink:href="_o_m_sim_hit_manager_8hh.html" target="_top" xlink:title="Defines structures and classes related to optical module photon hit management.">
<polygon fill="white" stroke="#666666" points="387.02,-195 264.02,-195 264.02,-176 387.02,-176 387.02,-195"/>
<text text-anchor="middle" x="325.52" y="-183" font-family="Helvetica,sans-Serif" font-size="10.00">OMSimHitManager.hh</text>
</a>
</g>
</g>
<!-- Node1&#45;&gt;Node6 -->
<g id="edge31_Node000001_Node000006" class="edge">
<title>Node1&#45;&gt;Node6</title>
<g id="a_edge31_Node000001_Node000006"><a xlink:title=" ">
<path fill="none" stroke="#63b8ff" d="M423.58,-285.99C399.13,-279.66 371.11,-268.74 351.52,-250 339.03,-238.04 332.34,-219.22 328.9,-205.17"/>
<polygon fill="#63b8ff" stroke="#63b8ff" points="332.27,-204.21 326.78,-195.15 325.42,-205.65 332.27,-204.21"/>
</a>
</g>
</g>
<!-- Node8 -->
<g id="Node000008" class="node">
<title>Node8</title>
<g id="a_Node000008"><a xlink:title=" ">
<polygon fill="#e0e0e0" stroke="#999999" points="361.02,-85 242.02,-85 242.02,-66 361.02,-66 361.02,-85"/>
<text text-anchor="middle" x="301.52" y="-73" font-family="Helvetica,sans-Serif" font-size="10.00">G4SystemOfUnits.hh</text>
</a>
</g>
</g>
<!-- Node1&#45;&gt;Node8 -->
<g id="edge19_Node000001_Node000008" class="edge">
<title>Node1&#45;&gt;Node8</title>
<g id="a_edge19_Node000001_Node000008"><a xlink:title=" ">
<path fill="none" stroke="#63b8ff" d="M427.06,-285.96C317.26,-265.53 55.16,-210.25 4.52,-140 -0.41,-133.15 -0.99,-127.4 4.52,-121 33.22,-87.68 153.04,-78.95 231.44,-76.87"/>
<polygon fill="#63b8ff" stroke="#63b8ff" points="231.83,-80.36 241.74,-76.63 231.66,-73.37 231.83,-80.36"/>
</a>
</g>
</g>
<!-- Node17 -->
<g id="Node000017" class="node">
<title>Node17</title>
<g id="a_Node000017"><a xlink:title=" ">
<polygon fill="#e0e0e0" stroke="#999999" points="560.02,-250 501.02,-250 501.02,-231 560.02,-231 560.02,-250"/>
<text text-anchor="middle" x="530.52" y="-238" font-family="Helvetica,sans-Serif" font-size="10.00">G4ios.hh</text>
</a>
</g>
</g>
<!-- Node1&#45;&gt;Node17 -->
<g id="edge20_Node000001_Node000017" class="edge">
<title>Node1&#45;&gt;Node17</title>
<g id="a_edge20_Node000001_Node000017"><a xlink:title=" ">
<path fill="none" stroke="#63b8ff" d="M484.61,-285.75C492.61,-278.03 504.48,-266.6 514.14,-257.28"/>
<polygon fill="#63b8ff" stroke="#63b8ff" points="516.84,-259.55 521.61,-250.09 511.98,-254.51 516.84,-259.55"/>
</a>
</g>
</g>
<!-- Node18 -->
<g id="Node000018" class="node">
<title>Node18</title>
<g id="a_Node000018"><a xlink:href="_o_m_sim_command_args_table_8hh.html" target="_top" xlink:title="Definition of the OMSimCommandArgsTable singleton class, which controls user args.">
<polygon fill="white" stroke="#666666" points="670.52,-195 506.52,-195 506.52,-176 670.52,-176 670.52,-195"/>
<text text-anchor="middle" x="588.52" y="-183" font-family="Helvetica,sans-Serif" font-size="10.00">OMSimCommandArgsTable.hh</text>
</a>
</g>
</g>
<!-- Node1&#45;&gt;Node18 -->
<g id="edge21_Node000001_Node000018" class="edge">
<title>Node1&#45;&gt;Node18</title>
<g id="a_edge21_Node000001_Node000018"><a xlink:title=" ">
<path fill="none" stroke="#63b8ff" d="M509.85,-285.87C529.86,-279.17 554.11,-267.94 569.52,-250 580.18,-237.59 584.86,-219.38 586.92,-205.63"/>
<polygon fill="#63b8ff" stroke="#63b8ff" points="590.43,-205.7 588.1,-195.37 583.48,-204.9 590.43,-205.7"/>
</a>
</g>
</g>
<!-- Node26 -->
<g id="Node000026" class="node">
<title>Node26</title>
<g id="a_Node000026"><a xlink:href="_o_m_sim_tools_8hh.html" target="_top" xlink:title="Definition of Tools namespace, a collection of helper methods.">
<polygon fill="white" stroke="#666666" points="2422.52,-250 2330.52,-250 2330.52,-231 2422.52,-231 2422.52,-250"/>
<text text-anchor="middle" x="2376.52" y="-238" font-family="Helvetica,sans-Serif" font-size="10.00">OMSimTools.hh</text>
</a>
</g>
</g>
<!-- Node1&#45;&gt;Node26 -->
<g id="edge32_Node000001_Node000026" class="edge">
<title>Node1&#45;&gt;Node26</title>
<g id="a_edge32_Node000001_Node000026"><a xlink:title=" ">
<path fill="none" stroke="#63b8ff" d="M535.56,-292.83C821.41,-284.86 2042.18,-250.82 2320.07,-243.07"/>
<polygon fill="#63b8ff" stroke="#63b8ff" points="2320.42,-246.57 2330.32,-242.79 2320.23,-239.57 2320.42,-246.57"/>
</a>
</g>
</g>
<!-- Node3 -->
<g id="Node000003" class="node">
<title>Node3</title>
<g id="a_Node000003"><a xlink:title=" ">
<polygon fill="#e0e0e0" stroke="#999999" points="104.02,-85 31.02,-85 31.02,-66 104.02,-66 104.02,-85"/>
<text text-anchor="middle" x="67.52" y="-73" font-family="Helvetica,sans-Serif" font-size="10.00">G4Types.hh</text>
</a>
</g>
</g>
<!-- Node2&#45;&gt;Node3 -->
<g id="edge2_Node000002_Node000003" class="edge">
<title>Node2&#45;&gt;Node3</title>
<g id="a_edge2_Node000002_Node000003"><a xlink:title=" ">
<path fill="none" stroke="#63b8ff" d="M360.16,-234.01C255.17,-223.2 48.16,-195.28 4.52,-140 -10.28,-121.25 15.45,-102.11 38.35,-89.82"/>
<polygon fill="#63b8ff" stroke="#63b8ff" points="40.21,-92.79 47.54,-85.14 37.04,-86.56 40.21,-92.79"/>
</a>
</g>
</g>
<!-- Node4 -->
<g id="Node000004" class="node">
<title>Node4</title>
<g id="a_Node000004"><a xlink:title=" ">
<polygon fill="#e0e0e0" stroke="#999999" points="920.52,-140 846.52,-140 846.52,-121 920.52,-121 920.52,-140"/>
<text text-anchor="middle" x="883.52" y="-128" font-family="Helvetica,sans-Serif" font-size="10.00">G4String.hh</text>
</a>
</g>
</g>
<!-- Node2&#45;&gt;Node4 -->
<g id="edge3_Node000002_Node000004" class="edge">
<title>Node2&#45;&gt;Node4</title>
<g id="a_edge3_Node000002_Node000004"><a xlink:title=" ">
<path fill="none" stroke="#63b8ff" d="M482.58,-231.6C554.47,-222.05 669.42,-205.88 711.52,-195 763.41,-181.59 821.45,-158.35 855.1,-144.01"/>
<polygon fill="#63b8ff" stroke="#63b8ff" points="856.52,-147.21 864.33,-140.04 853.76,-140.78 856.52,-147.21"/>
</a>
</g>
</g>
<!-- Node5 -->
<g id="Node000005" class="node">
<title>Node5</title>
<g id="a_Node000005"><a xlink:title=" ">
<polygon fill="#e0e0e0" stroke="#999999" points="828.02,-140 725.02,-140 725.02,-121 828.02,-121 828.02,-140"/>
<text text-anchor="middle" x="776.52" y="-128" font-family="Helvetica,sans-Serif" font-size="10.00">G4ThreeVector.hh</text>
</a>
</g>
</g>
<!-- Node2&#45;&gt;Node5 -->
<g id="edge4_Node000002_Node000005" class="edge">
<title>Node2&#45;&gt;Node5</title>
<g id="a_edge4_Node000002_Node000005"><a xlink:title=" ">
<path fill="none" stroke="#63b8ff" d="M482.63,-231.88C547.25,-223.3 644.58,-208.76 679.52,-195 709.59,-183.16 740.1,-161.19 758.67,-146.46"/>
<polygon fill="#63b8ff" stroke="#63b8ff" points="760.98,-149.09 766.55,-140.07 756.57,-143.65 760.98,-149.09"/>
</a>
</g>
</g>
<!-- Node2&#45;&gt;Node6 -->
<g id="edge5_Node000002_Node000006" class="edge">
<title>Node2&#45;&gt;Node6</title>
<g id="a_edge5_Node000002_Node000006"><a xlink:title=" ">
<path fill="none" stroke="#63b8ff" d="M406.1,-230.98C391.07,-222.69 367.98,-209.94 350.37,-200.22"/>
<polygon fill="#63b8ff" stroke="#63b8ff" points="351.67,-196.94 341.23,-195.17 348.29,-203.07 351.67,-196.94"/>
</a>
</g>
</g>
<!-- Node12 -->
<g id="Node000012" class="node">
<title>Node12</title>
<g id="a_Node000012"><a xlink:title=" ">
<polygon fill="#e0e0e0" stroke="#999999" points="442.02,-140 387.02,-140 387.02,-121 442.02,-121 442.02,-140"/>
<text text-anchor="middle" x="414.52" y="-128" font-family="Helvetica,sans-Serif" font-size="10.00">fstream</text>
</a>
</g>
</g>
<!-- Node2&#45;&gt;Node12 -->
<g id="edge17_Node000002_Node000012" class="edge">
<title>Node2&#45;&gt;Node12</title>
<g id="a_edge17_Node000002_Node000012"><a xlink:title=" ">
<path fill="none" stroke="#63b8ff" d="M420.95,-230.66C419.82,-213.17 417.27,-173.8 415.74,-150.27"/>
<polygon fill="#63b8ff" stroke="#63b8ff" points="419.22,-149.91 415.08,-140.16 412.24,-150.36 419.22,-149.91"/>
</a>
</g>
</g>
<!-- Node15 -->
<g id="Node000015" class="node">
<title>Node15</title>
<g id="a_Node000015"><a xlink:title=" ">
<polygon fill="#e0e0e0" stroke="#999999" points="986.02,-140 939.02,-140 939.02,-121 986.02,-121 986.02,-140"/>
<text text-anchor="middle" x="962.52" y="-128" font-family="Helvetica,sans-Serif" font-size="10.00">vector</text>
</a>
</g>
</g>
<!-- Node2&#45;&gt;Node15 -->
<g id="edge16_Node000002_Node000015" class="edge">
<title>Node2&#45;&gt;Node15</title>
<g id="a_edge16_Node000002_Node000015"><a xlink:title=" ">
<path fill="none" stroke="#63b8ff" d="M482.59,-231.86C571.2,-220.69 727.7,-200.61 753.52,-195 816.86,-181.23 888.78,-157.54 929.59,-143.32"/>
<polygon fill="#63b8ff" stroke="#63b8ff" points="930.76,-146.62 939.03,-140 928.44,-140.02 930.76,-146.62"/>
</a>
</g>
</g>
<!-- Node16 -->
<g id="Node000016" class="node">
<title>Node16</title>
<g id="a_Node000016"><a xlink:title=" ">
<polygon fill="#e0e0e0" stroke="#999999" points="485.02,-195 444.02,-195 444.02,-176 485.02,-176 485.02,-195"/>
<text text-anchor="middle" x="464.52" y="-183" font-family="Helvetica,sans-Serif" font-size="10.00">tuple</text>
</a>
</g>
</g>
<!-- Node2&#45;&gt;Node16 -->
<g id="edge18_Node000002_Node000016" class="edge">
<title>Node2&#45;&gt;Node16</title>
<g id="a_edge18_Node000002_Node000016"><a xlink:title=" ">
<path fill="none" stroke="#63b8ff" d="M428.62,-230.75C434.7,-223.26 443.61,-212.28 451.03,-203.13"/>
<polygon fill="#63b8ff" stroke="#63b8ff" points="453.97,-205.06 457.55,-195.09 448.54,-200.65 453.97,-205.06"/>
</a>
</g>
</g>
<!-- Node6&#45;&gt;Node5 -->
<g id="edge12_Node000006_Node000005" class="edge">
<title>Node6&#45;&gt;Node5</title>
<g id="a_edge12_Node000006_Node000005"><a xlink:title=" ">
<path fill="none" stroke="#63b8ff" d="M387.29,-177.24C473.41,-167.12 628.66,-148.88 714.77,-138.76"/>
<polygon fill="#63b8ff" stroke="#63b8ff" points="715.4,-142.21 724.92,-137.56 714.58,-135.25 715.4,-142.21"/>
</a>
</g>
</g>
<!-- Node7 -->
<g id="Node000007" class="node">
<title>Node7</title>
<g id="a_Node000007"><a xlink:href="_o_m_sim_p_m_t_response_8hh.html" target="_top" xlink:title="Simulation of PMT response.">
<polygon fill="white" stroke="#666666" points="369.02,-140 234.02,-140 234.02,-121 369.02,-121 369.02,-140"/>
<text text-anchor="middle" x="301.52" y="-128" font-family="Helvetica,sans-Serif" font-size="10.00">OMSimPMTResponse.hh</text>
</a>
</g>
</g>
<!-- Node6&#45;&gt;Node7 -->
<g id="edge6_Node000006_Node000007" class="edge">
<title>Node6&#45;&gt;Node7</title>
<g id="a_edge6_Node000006_Node000007"><a xlink:title=" ">
<path fill="none" stroke="#63b8ff" d="M321.56,-175.75C318.31,-168.57 313.6,-158.18 309.57,-149.27"/>
<polygon fill="#63b8ff" stroke="#63b8ff" points="312.73,-147.75 305.41,-140.09 306.35,-150.64 312.73,-147.75"/>
</a>
</g>
</g>
<!-- Node6&#45;&gt;Node12 -->
<g id="edge13_Node000006_Node000012" class="edge">
<title>Node6&#45;&gt;Node12</title>
<g id="a_edge13_Node000006_Node000012"><a xlink:title=" ">
<path fill="none" stroke="#63b8ff" d="M339.82,-175.98C353.62,-167.77 374.76,-155.18 391.04,-145.49"/>
<polygon fill="#63b8ff" stroke="#63b8ff" points="393.16,-148.29 399.96,-140.17 389.58,-142.28 393.16,-148.29"/>
</a>
</g>
</g>
<!-- Node13 -->
<g id="Node000013" class="node">
<title>Node13</title>
<g id="a_Node000013"><a xlink:title=" ">
<polygon fill="#e0e0e0" stroke="#999999" points="103.52,-140 13.52,-140 13.52,-121 103.52,-121 103.52,-140"/>
<text text-anchor="middle" x="58.52" y="-128" font-family="Helvetica,sans-Serif" font-size="10.00">G4AutoLock.hh</text>
</a>
</g>
</g>
<!-- Node6&#45;&gt;Node13 -->
<g id="edge14_Node000006_Node000013" class="edge">
<title>Node6&#45;&gt;Node13</title>
<g id="a_edge14_Node000006_Node000013"><a xlink:title=" ">
<path fill="none" stroke="#63b8ff" d="M282.63,-175.98C236.15,-166.76 161.94,-152.03 111.77,-142.07"/>
<polygon fill="#63b8ff" stroke="#63b8ff" points="112.25,-138.6 101.76,-140.08 110.88,-145.46 112.25,-138.6"/>
</a>
</g>
</g>
<!-- Node14 -->
<g id="Node000014" class="node">
<title>Node14</title>
<g id="a_Node000014"><a xlink:title=" ">
<polygon fill="#e0e0e0" stroke="#999999" points="215.52,-140 121.52,-140 121.52,-121 215.52,-121 215.52,-140"/>
<text text-anchor="middle" x="168.52" y="-128" font-family="Helvetica,sans-Serif" font-size="10.00">G4Threading.hh</text>
</a>
</g>
</g>
<!-- Node6&#45;&gt;Node14 -->
<g id="edge15_Node000006_Node000014" class="edge">
<title>Node6&#45;&gt;Node14</title>
<g id="a_edge15_Node000006_Node000014"><a xlink:title=" ">
<path fill="none" stroke="#63b8ff" d="M300.3,-175.98C274.17,-167.16 233.13,-153.31 203.79,-143.41"/>
<polygon fill="#63b8ff" stroke="#63b8ff" points="204.54,-139.96 193.95,-140.08 202.3,-146.6 204.54,-139.96"/>
</a>
</g>
</g>
<!-- Node7&#45;&gt;Node3 -->
<g id="edge8_Node000007_Node000003" class="edge">
<title>Node7&#45;&gt;Node3</title>
<g id="a_edge8_Node000007_Node000003"><a xlink:title=" ">
<path fill="none" stroke="#63b8ff" d="M263.93,-120.98C223.18,-111.75 158.09,-97.01 114.12,-87.05"/>
<polygon fill="#63b8ff" stroke="#63b8ff" points="114.78,-83.62 104.25,-84.82 113.23,-90.44 114.78,-83.62"/>
</a>
</g>
</g>
<!-- Node7&#45;&gt;Node8 -->
<g id="edge7_Node000007_Node000008" class="edge">
<title>Node7&#45;&gt;Node8</title>
<g id="a_edge7_Node000007_Node000008"><a xlink:title=" ">
<path fill="none" stroke="#63b8ff" d="M301.52,-120.75C301.52,-113.8 301.52,-103.85 301.52,-95.13"/>
<polygon fill="#63b8ff" stroke="#63b8ff" points="305.02,-95.09 301.52,-85.09 298.02,-95.09 305.02,-95.09"/>
</a>
</g>
</g>
<!-- Node9 -->
<g id="Node000009" class="node">
<title>Node9</title>
<g id="a_Node000009"><a xlink:title=" ">
<polygon fill="#e0e0e0" stroke="#999999" points="575.52,-85 537.52,-85 537.52,-66 575.52,-66 575.52,-85"/>
<text text-anchor="middle" x="556.52" y="-73" font-family="Helvetica,sans-Serif" font-size="10.00">map</text>
</a>
</g>
</g>
<!-- Node7&#45;&gt;Node9 -->
<g id="edge9_Node000007_Node000009" class="edge">
<title>Node7&#45;&gt;Node9</title>
<g id="a_edge9_Node000007_Node000009"><a xlink:title=" ">
<path fill="none" stroke="#63b8ff" d="M342.49,-120.98C394.24,-110.23 481.98,-91.99 527.38,-82.56"/>
<polygon fill="#63b8ff" stroke="#63b8ff" points="528.36,-85.93 537.44,-80.47 526.94,-79.07 528.36,-85.93"/>
</a>
</g>
</g>
<!-- Node10 -->
<g id="Node000010" class="node">
<title>Node10</title>
<g id="a_Node000010"><a xlink:title=" ">
<polygon fill="#e0e0e0" stroke="#999999" points="1421.02,-85 1360.02,-85 1360.02,-66 1421.02,-66 1421.02,-85"/>
<text text-anchor="middle" x="1390.52" y="-73" font-family="Helvetica,sans-Serif" font-size="10.00">TGraph.h</text>
</a>
</g>
</g>
<!-- Node7&#45;&gt;Node10 -->
<g id="edge10_Node000007_Node000010" class="edge">
<title>Node7&#45;&gt;Node10</title>
<g id="a_edge10_Node000007_Node000010"><a xlink:title=" ">
<path fill="none" stroke="#63b8ff" d="M369.11,-121.78C372.29,-121.5 375.44,-121.24 378.52,-121 755.34,-91.95 1212.66,-80.31 1349.79,-77.33"/>
<polygon fill="#63b8ff" stroke="#63b8ff" points="1349.92,-80.82 1359.84,-77.11 1349.77,-73.83 1349.92,-80.82"/>
</a>
</g>
</g>
<!-- Node11 -->
<g id="Node000011" class="node">
<title>Node11</title>
<g id="a_Node000011"><a xlink:title=" ">
<polygon fill="#e0e0e0" stroke="#999999" points="2321.02,-85 2268.02,-85 2268.02,-66 2321.02,-66 2321.02,-85"/>
<text text-anchor="middle" x="2294.52" y="-73" font-family="Helvetica,sans-Serif" font-size="10.00">TH2D.h</text>
</a>
</g>
</g>
<!-- Node7&#45;&gt;Node11 -->
<g id="edge11_Node000007_Node000011" class="edge">
<title>Node7&#45;&gt;Node11</title>
<g id="a_edge11_Node000007_Node000011"><a xlink:title=" ">
<path fill="none" stroke="#63b8ff" d="M369.1,-121.7C372.28,-121.44 375.44,-121.21 378.52,-121 763.74,-95.31 2025.04,-79.63 2257.52,-76.92"/>
<polygon fill="#63b8ff" stroke="#63b8ff" points="2257.84,-80.42 2267.8,-76.8 2257.76,-73.42 2257.84,-80.42"/>
</a>
</g>
</g>
<!-- Node18&#45;&gt;Node9 -->
<g id="edge30_Node000018_Node000009" class="edge">
<title>Node18&#45;&gt;Node9</title>
<g id="a_edge30_Node000018_Node000009"><a xlink:title=" ">
<path fill="none" stroke="#63b8ff" d="M585.9,-175.66C580.7,-158.09 568.95,-118.45 561.99,-94.95"/>
<polygon fill="#63b8ff" stroke="#63b8ff" points="565.29,-93.75 559.09,-85.16 558.57,-95.74 565.29,-93.75"/>
</a>
</g>
</g>
<!-- Node18&#45;&gt;Node12 -->
<g id="edge27_Node000018_Node000012" class="edge">
<title>Node18&#45;&gt;Node12</title>
<g id="a_edge27_Node000018_Node000012"><a xlink:title=" ">
<path fill="none" stroke="#63b8ff" d="M560.57,-175.98C531.05,-166.99 484.38,-152.78 451.76,-142.84"/>
<polygon fill="#63b8ff" stroke="#63b8ff" points="452.71,-139.47 442.12,-139.91 450.67,-146.17 452.71,-139.47"/>
</a>
</g>
</g>
<!-- Node19 -->
<g id="Node000019" class="node">
<title>Node19</title>
<g id="a_Node000019"><a xlink:href="_o_m_sim_logger_8hh_source.html" target="_top" xlink:title=" ">
<polygon fill="white" stroke="#666666" points="2464.02,-85 2365.02,-85 2365.02,-66 2464.02,-66 2464.02,-85"/>
<text text-anchor="middle" x="2414.52" y="-73" font-family="Helvetica,sans-Serif" font-size="10.00">OMSimLogger.hh</text>
</a>
</g>
</g>
<!-- Node18&#45;&gt;Node19 -->
<g id="edge22_Node000018_Node000019" class="edge">
<title>Node18&#45;&gt;Node19</title>
<g id="a_edge22_Node000018_Node000019"><a xlink:title=" ">
<path fill="none" stroke="#63b8ff" d="M605.55,-175.99C640.04,-158.77 715.04,-121.37 716.52,-121 890.7,-78.12 2151.49,-96.04 2330.52,-85 2338.34,-84.52 2346.56,-83.87 2354.66,-83.14"/>
<polygon fill="#63b8ff" stroke="#63b8ff" points="2355.2,-86.6 2364.83,-82.18 2354.54,-79.63 2355.2,-86.6"/>
</a>
</g>
</g>
<!-- Node24 -->
<g id="Node000024" class="node">
<title>Node24</title>
<g id="a_Node000024"><a xlink:title=" ">
<polygon fill="#e0e0e0" stroke="#999999" points="668.52,-140 584.52,-140 584.52,-121 668.52,-121 668.52,-140"/>
<text text-anchor="middle" x="626.52" y="-128" font-family="Helvetica,sans-Serif" font-size="10.00">boost/any.hpp</text>
</a>
</g>
</g>
<!-- Node18&#45;&gt;Node24 -->
<g id="edge28_Node000018_Node000024" class="edge">
<title>Node18&#45;&gt;Node24</title>
<g id="a_edge28_Node000018_Node000024"><a xlink:title=" ">
<path fill="none" stroke="#63b8ff" d="M594.8,-175.75C600.11,-168.34 607.88,-157.5 614.4,-148.41"/>
<polygon fill="#63b8ff" stroke="#63b8ff" points="617.38,-150.26 620.37,-140.09 611.69,-146.18 617.38,-150.26"/>
</a>
</g>
</g>
<!-- Node25 -->
<g id="Node000025" class="node">
<title>Node25</title>
<g id="a_Node000025"><a xlink:title=" ">
<polygon fill="#e0e0e0" stroke="#999999" points="528.52,-140 460.52,-140 460.52,-121 528.52,-121 528.52,-140"/>
<text text-anchor="middle" x="494.52" y="-128" font-family="Helvetica,sans-Serif" font-size="10.00">sys/time.h</text>
</a>
</g>
</g>
<!-- Node18&#45;&gt;Node25 -->
<g id="edge29_Node000018_Node000025" class="edge">
<title>Node18&#45;&gt;Node25</title>
<g id="a_edge29_Node000018_Node000025"><a xlink:title=" ">
<path fill="none" stroke="#63b8ff" d="M573.42,-175.98C558.71,-167.69 536.1,-154.94 518.85,-145.22"/>
<polygon fill="#63b8ff" stroke="#63b8ff" points="520.33,-142.03 509.9,-140.17 516.89,-148.13 520.33,-142.03"/>
</a>
</g>
</g>
<!-- Node20 -->
<g id="Node000020" class="node">
<title>Node20</title>
<g id="a_Node000020"><a xlink:title=" ">
<polygon fill="#e0e0e0" stroke="#999999" points="2471.02,-24.5 2378.02,-24.5 2378.02,-5.5 2471.02,-5.5 2471.02,-24.5"/>
<text text-anchor="middle" x="2424.52" y="-12.5" font-family="Helvetica,sans-Serif" font-size="10.00">spdlog/spdlog.h</text>
</a>
</g>
</g>
<!-- Node19&#45;&gt;Node20 -->
<g id="edge23_Node000019_Node000020" class="edge">
<title>Node19&#45;&gt;Node20</title>
<g id="a_edge23_Node000019_Node000020"><a xlink:title=" ">
<path fill="none" stroke="#63b8ff" d="M2416,-65.87C2417.4,-57.66 2419.56,-45.04 2421.35,-34.55"/>
<polygon fill="#63b8ff" stroke="#63b8ff" points="2424.81,-35.11 2423.04,-24.67 2417.91,-33.93 2424.81,-35.11"/>
</a>
</g>
</g>
<!-- Node21 -->
<g id="Node000021" class="node">
<title>Node21</title>
<g id="a_Node000021"><a xlink:title=" ">
<polygon fill="#e0e0e0" stroke="#999999" points="2600.02,-30 2489.02,-30 2489.02,0 2600.02,0 2600.02,-30"/>
<text text-anchor="start" x="2497.02" y="-18" font-family="Helvetica,sans-Serif" font-size="10.00">spdlog/sinks/stdout</text>
<text text-anchor="middle" x="2544.52" y="-7" font-family="Helvetica,sans-Serif" font-size="10.00">_color_sinks.h</text>
</a>
</g>
</g>
<!-- Node19&#45;&gt;Node21 -->
<g id="edge24_Node000019_Node000021" class="edge">
<title>Node19&#45;&gt;Node21</title>
<g id="a_edge24_Node000019_Node000021"><a xlink:title=" ">
<path fill="none" stroke="#63b8ff" d="M2433.43,-65.99C2451.81,-57.72 2480.32,-44.89 2503.86,-34.3"/>
<polygon fill="#63b8ff" stroke="#63b8ff" points="2505.59,-37.36 2513.27,-30.06 2502.71,-30.98 2505.59,-37.36"/>
</a>
</g>
</g>
<!-- Node22 -->
<g id="Node000022" class="node">
<title>Node22</title>
<g id="a_Node000022"><a xlink:title=" ">
<polygon fill="#e0e0e0" stroke="#999999" points="2243.52,-24.5 2185.52,-24.5 2185.52,-5.5 2243.52,-5.5 2243.52,-24.5"/>
<text text-anchor="middle" x="2214.52" y="-12.5" font-family="Helvetica,sans-Serif" font-size="10.00">memory</text>
</a>
</g>
</g>
<!-- Node19&#45;&gt;Node22 -->
<g id="edge25_Node000019_Node000022" class="edge">
<title>Node19&#45;&gt;Node22</title>
<g id="a_edge25_Node000019_Node000022"><a xlink:title=" ">
<path fill="none" stroke="#63b8ff" d="M2380.14,-65.96C2347.18,-57.56 2296.12,-43.99 2252.52,-30 2250.62,-29.39 2248.66,-28.74 2246.69,-28.07"/>
<polygon fill="#63b8ff" stroke="#63b8ff" points="2247.51,-24.64 2236.92,-24.61 2245.18,-31.24 2247.51,-24.64"/>
</a>
</g>
</g>
<!-- Node23 -->
<g id="Node000023" class="node">
<title>Node23</title>
<g id="a_Node000023"><a xlink:title=" ">
<polygon fill="#e0e0e0" stroke="#999999" points="2359.52,-24.5 2261.52,-24.5 2261.52,-5.5 2359.52,-5.5 2359.52,-24.5"/>
<text text-anchor="middle" x="2310.52" y="-12.5" font-family="Helvetica,sans-Serif" font-size="10.00">spdlog/fmt/fmt.h</text>
</a>
</g>
</g>
<!-- Node19&#45;&gt;Node23 -->
<g id="edge26_Node000019_Node000023" class="edge">
<title>Node19&#45;&gt;Node23</title>
<g id="a_edge26_Node000019_Node000023"><a xlink:title=" ">
<path fill="none" stroke="#63b8ff" d="M2399.18,-65.87C2382.2,-56.32 2354.63,-40.81 2334.73,-29.62"/>
<polygon fill="#63b8ff" stroke="#63b8ff" points="2336.36,-26.52 2325.93,-24.67 2332.93,-32.62 2336.36,-26.52"/>
</a>
</g>
</g>
<!-- Node26&#45;&gt;Node5 -->
<g id="edge49_Node000026_Node000005" class="edge">
<title>Node26&#45;&gt;Node5</title>
<g id="a_edge49_Node000026_Node000005"><a xlink:title=" ">
<path fill="none" stroke="#63b8ff" d="M2330.29,-238.6C2184.72,-235.52 1722.84,-223.97 1341.52,-195 1120.13,-178.18 1062.8,-168.07 838.22,-140.06"/>
<polygon fill="#63b8ff" stroke="#63b8ff" points="838.45,-136.56 828.09,-138.8 837.58,-143.51 838.45,-136.56"/>
</a>
</g>
</g>
<!-- Node26&#45;&gt;Node10 -->
<g id="edge45_Node000026_Node000010" class="edge">
<title>Node26&#45;&gt;Node10</title>
<g id="a_edge45_Node000026_Node000010"><a xlink:title=" ">
<path fill="none" stroke="#63b8ff" d="M2375.34,-230.68C2371.75,-207.88 2358.73,-146.98 2319.52,-121 2282.01,-96.15 1605.25,-80.83 1431.11,-77.29"/>
<polygon fill="#63b8ff" stroke="#63b8ff" points="1431.15,-73.79 1421.08,-77.09 1431.01,-80.79 1431.15,-73.79"/>
</a>
</g>
</g>
<!-- Node26&#45;&gt;Node11 -->
<g id="edge46_Node000026_Node000011" class="edge">
<title>Node26&#45;&gt;Node11</title>
<g id="a_edge46_Node000026_Node000011"><a xlink:title=" ">
<path fill="none" stroke="#63b8ff" d="M2376.77,-230.71C2376.94,-209.95 2374.98,-156.97 2352.52,-121 2344.6,-108.3 2331.66,-97.86 2320.02,-90.29"/>
<polygon fill="#63b8ff" stroke="#63b8ff" points="2321.83,-87.29 2311.47,-85.07 2318.18,-93.27 2321.83,-87.29"/>
</a>
</g>
</g>
<!-- Node26&#45;&gt;Node18 -->
<g id="edge42_Node000026_Node000018" class="edge">
<title>Node26&#45;&gt;Node18</title>
<g id="a_edge42_Node000026_Node000018"><a xlink:title=" ">
<path fill="none" stroke="#63b8ff" d="M2330.4,-238.4C2141.04,-233.85 1404.82,-215.73 799.52,-195 760.67,-193.67 717.81,-191.98 680.92,-190.46"/>
<polygon fill="#63b8ff" stroke="#63b8ff" points="680.82,-186.96 670.68,-190.04 680.53,-193.95 680.82,-186.96"/>
</a>
</g>
</g>
<!-- Node26&#45;&gt;Node19 -->
<g id="edge33_Node000026_Node000019" class="edge">
<title>Node26&#45;&gt;Node19</title>
<g id="a_edge33_Node000026_Node000019"><a xlink:title=" ">
<path fill="none" stroke="#63b8ff" d="M2379.59,-230.71C2382.63,-221.79 2387.29,-207.55 2390.52,-195 2399.53,-160.06 2407.26,-118.62 2411.37,-95.16"/>
<polygon fill="#63b8ff" stroke="#63b8ff" points="2414.84,-95.64 2413.08,-85.19 2407.94,-94.46 2414.84,-95.64"/>
</a>
</g>
</g>
<!-- Node27 -->
<g id="Node000027" class="node">
<title>Node27</title>
<g id="a_Node000027"><a xlink:href="_o_m_sim_detector_component_8hh.html" target="_top" xlink:title="Provides helper base class OMSimDetectorComponent for constructing and managing detector components i...">
<polygon fill="white" stroke="#666666" points="2608.02,-195 2443.02,-195 2443.02,-176 2608.02,-176 2608.02,-195"/>
<text text-anchor="middle" x="2525.52" y="-183" font-family="Helvetica,sans-Serif" font-size="10.00">OMSimDetectorComponent.hh</text>
</a>
</g>
</g>
<!-- Node26&#45;&gt;Node27 -->
<g id="edge34_Node000026_Node000027" class="edge">
<title>Node26&#45;&gt;Node27</title>
<g id="a_edge34_Node000026_Node000027"><a xlink:title=" ">
<path fill="none" stroke="#63b8ff" d="M2400.46,-230.98C2425.08,-222.23 2463.64,-208.51 2491.44,-198.62"/>
<polygon fill="#63b8ff" stroke="#63b8ff" points="2492.9,-201.82 2501.15,-195.17 2490.55,-195.22 2492.9,-201.82"/>
</a>
</g>
</g>
<!-- Node40 -->
<g id="Node000040" class="node">
<title>Node40</title>
<g id="a_Node000040"><a xlink:title=" ">
<polygon fill="#e0e0e0" stroke="#999999" points="2763.02,-195 2626.02,-195 2626.02,-176 2763.02,-176 2763.02,-195"/>
<text text-anchor="middle" x="2694.52" y="-183" font-family="Helvetica,sans-Serif" font-size="10.00">G4LogicalSkinSurface.hh</text>
</a>
</g>
</g>
<!-- Node26&#45;&gt;Node40 -->
<g id="edge43_Node000026_Node000040" class="edge">
<title>Node26&#45;&gt;Node40</title>
<g id="a_edge43_Node000026_Node000040"><a xlink:title=" ">
<path fill="none" stroke="#63b8ff" d="M2422.76,-231.79C2478.41,-222.52 2572.01,-206.92 2633.52,-196.67"/>
<polygon fill="#63b8ff" stroke="#63b8ff" points="2634.2,-200.1 2643.49,-195.01 2633.05,-193.2 2634.2,-200.1"/>
</a>
</g>
</g>
<!-- Node41 -->
<g id="Node000041" class="node">
<title>Node41</title>
<g id="a_Node000041"><a xlink:title=" ">
<polygon fill="#e0e0e0" stroke="#999999" points="2310.02,-140 2243.02,-140 2243.02,-121 2310.02,-121 2310.02,-140"/>
<text text-anchor="middle" x="2276.52" y="-128" font-family="Helvetica,sans-Serif" font-size="10.00">globals.hh</text>
</a>
</g>
</g>
<!-- Node26&#45;&gt;Node41 -->
<g id="edge44_Node000026_Node000041" class="edge">
<title>Node26&#45;&gt;Node41</title>
<g id="a_edge44_Node000026_Node000041"><a xlink:title=" ">
<path fill="none" stroke="#63b8ff" d="M2365.15,-230.94C2354.18,-222.42 2337.39,-208.67 2324.52,-195 2310.8,-180.42 2297.24,-162.01 2288.05,-148.77"/>
<polygon fill="#63b8ff" stroke="#63b8ff" points="2290.72,-146.47 2282.2,-140.18 2284.93,-150.41 2290.72,-146.47"/>
</a>
</g>
</g>
<!-- Node42 -->
<g id="Node000042" class="node">
<title>Node42</title>
<g id="a_Node000042"><a xlink:title=" ">
<polygon fill="#e0e0e0" stroke="#999999" points="2832.02,-195 2781.02,-195 2781.02,-176 2832.02,-176 2832.02,-195"/>
<text text-anchor="middle" x="2806.52" y="-183" font-family="Helvetica,sans-Serif" font-size="10.00">variant</text>
</a>
</g>
</g>
<!-- Node26&#45;&gt;Node42 -->
<g id="edge47_Node000026_Node000042" class="edge">
<title>Node26&#45;&gt;Node42</title>
<g id="a_edge47_Node000026_Node000042"><a xlink:title=" ">
<path fill="none" stroke="#63b8ff" d="M2422.54,-236.33C2494.86,-230.91 2639.62,-218.29 2771.13,-195.04"/>
<polygon fill="#63b8ff" stroke="#63b8ff" points="2771.76,-198.48 2780.98,-193.27 2770.52,-191.59 2771.76,-198.48"/>
</a>
</g>
</g>
<!-- Node43 -->
<g id="Node000043" class="node">
<title>Node43</title>
<g id="a_Node000043"><a xlink:title=" ">
<polygon fill="#e0e0e0" stroke="#999999" points="2906.52,-195 2850.52,-195 2850.52,-176 2906.52,-176 2906.52,-195"/>
<text text-anchor="middle" x="2878.52" y="-183" font-family="Helvetica,sans-Serif" font-size="10.00">optional</text>
</a>
</g>
</g>
<!-- Node26&#45;&gt;Node43 -->
<g id="edge48_Node000026_Node000043" class="edge">
<title>Node26&#45;&gt;Node43</title>
<g id="a_edge48_Node000026_Node000043"><a xlink:title=" ">
<path fill="none" stroke="#63b8ff" d="M2422.65,-237.08C2504.75,-232.35 2681.77,-220.19 2840.38,-194.98"/>
<polygon fill="#63b8ff" stroke="#63b8ff" points="2841,-198.42 2850.32,-193.38 2839.89,-191.51 2841,-198.42"/>
</a>
</g>
</g>
<!-- Node44 -->
<g id="Node000044" class="node">
<title>Node44</title>
<g id="a_Node000044"><a xlink:title=" ">
<polygon fill="#e0e0e0" stroke="#999999" points="3042.52,-195 2924.52,-195 2924.52,-176 3042.52,-176 3042.52,-195"/>
<text text-anchor="middle" x="2983.52" y="-183" font-family="Helvetica,sans-Serif" font-size="10.00">G4RotationMatrix.hh</text>
</a>
</g>
</g>
<!-- Node26&#45;&gt;Node44 -->
<g id="edge50_Node000026_Node000044" class="edge">
<title>Node26&#45;&gt;Node44</title>
<g id="a_edge50_Node000026_Node000044"><a xlink:title=" ">
<path fill="none" stroke="#63b8ff" d="M2422.73,-236.34C2514.36,-229.94 2725.8,-214.45 2914.12,-195.11"/>
<polygon fill="#63b8ff" stroke="#63b8ff" points="2914.61,-198.57 2924.2,-194.06 2913.9,-191.61 2914.61,-198.57"/>
</a>
</g>
</g>
<!-- Node45 -->
<g id="Node000045" class="node">
<title>Node45</title>
<g id="a_Node000045"><a xlink:title=" ">
<polygon fill="#e0e0e0" stroke="#999999" points="1120.52,-140 1004.52,-140 1004.52,-121 1120.52,-121 1120.52,-140"/>
<text text-anchor="middle" x="1062.52" y="-128" font-family="Helvetica,sans-Serif" font-size="10.00">G4LogicalVolume.hh</text>
</a>
</g>
</g>
<!-- Node26&#45;&gt;Node45 -->
<g id="edge51_Node000026_Node000045" class="edge">
<title>Node26&#45;&gt;Node45</title>
<g id="a_edge51_Node000026_Node000045"><a xlink:title=" ">
<path fill="none" stroke="#63b8ff" d="M2330.09,-238.63C2199.69,-235.86 1819.1,-225.56 1504.52,-195 1366.61,-181.6 1205.82,-155.96 1121.32,-141.7"/>
<polygon fill="#63b8ff" stroke="#63b8ff" points="1121.85,-138.24 1111.4,-140.02 1120.68,-145.14 1121.85,-138.24"/>
</a>
</g>
</g>
<!-- Node46 -->
<g id="Node000046" class="node">
<title>Node46</title>
<g id="a_Node000046"><a xlink:href="_c_a_d_mesh_8hh_source.html" target="_top" xlink:title=" ">
<polygon fill="#fff0f0" stroke="red" points="1592.02,-195 1513.02,-195 1513.02,-176 1592.02,-176 1592.02,-195"/>
<text text-anchor="middle" x="1552.52" y="-183" font-family="Helvetica,sans-Serif" font-size="10.00">CADMesh.hh</text>
</a>
</g>
</g>
<!-- Node26&#45;&gt;Node46 -->
<g id="edge52_Node000026_Node000046" class="edge">
<title>Node26&#45;&gt;Node46</title>
<g id="a_edge52_Node000026_Node000046"><a xlink:title=" ">
<path fill="none" stroke="#63b8ff" d="M2330.46,-236.54C2187.31,-227.33 1750.94,-199.26 1602.54,-189.72"/>
<polygon fill="#63b8ff" stroke="#63b8ff" points="1602.57,-186.21 1592.36,-189.06 1602.12,-193.2 1602.57,-186.21"/>
</a>
</g>
</g>
<!-- Node59 -->
<g id="Node000059" class="node">
<title>Node59</title>
<g id="a_Node000059"><a xlink:title=" ">
<polygon fill="#e0e0e0" stroke="#999999" points="3158.52,-195 3060.52,-195 3060.52,-176 3158.52,-176 3158.52,-195"/>
<text text-anchor="middle" x="3109.52" y="-183" font-family="Helvetica,sans-Serif" font-size="10.00">G4MultiUnion.hh</text>
</a>
</g>
</g>
<!-- Node26&#45;&gt;Node59 -->
<g id="edge71_Node000026_Node000059" class="edge">
<title>Node26&#45;&gt;Node59</title>
<g id="a_edge71_Node000026_Node000059"><a xlink:title=" ">
<path fill="none" stroke="#63b8ff" d="M2422.87,-237.72C2530.94,-233.29 2808.19,-220.35 3050.46,-195.02"/>
<polygon fill="#63b8ff" stroke="#63b8ff" points="3050.93,-198.49 3060.51,-193.96 3050.2,-191.53 3050.93,-198.49"/>
</a>
</g>
</g>
<!-- Node28 -->
<g id="Node000028" class="node">
<title>Node28</title>
<g id="a_Node000028"><a xlink:href="_o_m_sim_input_data_8hh.html" target="_top" xlink:title="Definition of ParameterTable and OMSimInputData.">
<polygon fill="#fff0f0" stroke="red" points="2558.02,-140 2443.02,-140 2443.02,-121 2558.02,-121 2558.02,-140"/>
<text text-anchor="middle" x="2500.52" y="-128" font-family="Helvetica,sans-Serif" font-size="10.00">OMSimInputData.hh</text>
</a>
</g>
</g>
<!-- Node27&#45;&gt;Node28 -->
<g id="edge35_Node000027_Node000028" class="edge">
<title>Node27&#45;&gt;Node28</title>
<g id="a_edge35_Node000027_Node000028"><a xlink:title=" ">
<path fill="none" stroke="#63b8ff" d="M2521.39,-175.75C2518.01,-168.57 2513.11,-158.18 2508.9,-149.27"/>
<polygon fill="#63b8ff" stroke="#63b8ff" points="2512.01,-147.64 2504.57,-140.09 2505.68,-150.63 2512.01,-147.64"/>
</a>
</g>
</g>
<!-- Node36 -->
<g id="Node000036" class="node">
<title>Node36</title>
<g id="a_Node000036"><a xlink:title=" ">
<polygon fill="#e0e0e0" stroke="#999999" points="2683.02,-140 2576.02,-140 2576.02,-121 2683.02,-121 2683.02,-140"/>
<text text-anchor="middle" x="2629.52" y="-128" font-family="Helvetica,sans-Serif" font-size="10.00">G4Transform3D.hh</text>
</a>
</g>
</g>
<!-- Node27&#45;&gt;Node36 -->
<g id="edge38_Node000027_Node000036" class="edge">
<title>Node27&#45;&gt;Node36</title>
<g id="a_edge38_Node000027_Node000036"><a xlink:title=" ">
<path fill="none" stroke="#63b8ff" d="M2542.23,-175.98C2558.74,-167.57 2584.22,-154.59 2603.4,-144.81"/>
<polygon fill="#63b8ff" stroke="#63b8ff" points="2605.19,-147.83 2612.51,-140.17 2602.01,-141.59 2605.19,-147.83"/>
</a>
</g>
</g>
<!-- Node37 -->
<g id="Node000037" class="node">
<title>Node37</title>
<g id="a_Node000037"><a xlink:title=" ">
<polygon fill="#e0e0e0" stroke="#999999" points="2809.52,-140 2701.52,-140 2701.52,-121 2809.52,-121 2809.52,-140"/>
<text text-anchor="middle" x="2755.52" y="-128" font-family="Helvetica,sans-Serif" font-size="10.00">G4VisAttributes.hh</text>
</a>
</g>
</g>
<!-- Node27&#45;&gt;Node37 -->
<g id="edge39_Node000027_Node000037" class="edge">
<title>Node27&#45;&gt;Node37</title>
<g id="a_edge39_Node000027_Node000037"><a xlink:title=" ">
<path fill="none" stroke="#63b8ff" d="M2562.48,-175.98C2602.09,-166.86 2665.11,-152.33 2708.3,-142.38"/>
<polygon fill="#63b8ff" stroke="#63b8ff" points="2709.32,-145.74 2718.28,-140.08 2707.75,-138.92 2709.32,-145.74"/>
</a>
</g>
</g>
<!-- Node38 -->
<g id="Node000038" class="node">
<title>Node38</title>
<g id="a_Node000038"><a xlink:title=" ">
<polygon fill="#e0e0e0" stroke="#999999" points="2953.02,-140 2828.02,-140 2828.02,-121 2953.02,-121 2953.02,-140"/>
<text text-anchor="middle" x="2890.52" y="-128" font-family="Helvetica,sans-Serif" font-size="10.00">G4SubtractionSolid.hh</text>
</a>
</g>
</g>
<!-- Node27&#45;&gt;Node38 -->
<g id="edge40_Node000027_Node000038" class="edge">
<title>Node27&#45;&gt;Node38</title>
<g id="a_edge40_Node000027_Node000038"><a xlink:title=" ">
<path fill="none" stroke="#63b8ff" d="M2584.17,-175.98C2648.86,-166.59 2752.86,-151.49 2821.45,-141.53"/>
<polygon fill="#63b8ff" stroke="#63b8ff" points="2822.33,-144.94 2831.72,-140.04 2821.32,-138.01 2822.33,-144.94"/>
</a>
</g>
</g>
<!-- Node39 -->
<g id="Node000039" class="node">
<title>Node39</title>
<g id="a_Node000039"><a xlink:title=" ">
<polygon fill="#e0e0e0" stroke="#999999" points="3081.52,-140 2971.52,-140 2971.52,-121 3081.52,-121 3081.52,-140"/>
<text text-anchor="middle" x="3026.52" y="-128" font-family="Helvetica,sans-Serif" font-size="10.00">G4PVPlacement.hh</text>
</a>
</g>
</g>
<!-- Node27&#45;&gt;Node39 -->
<g id="edge41_Node000027_Node000039" class="edge">
<title>Node27&#45;&gt;Node39</title>
<g id="a_edge41_Node000027_Node000039"><a xlink:title=" ">
<path fill="none" stroke="#63b8ff" d="M2608.16,-176.84C2693.87,-168.73 2832.02,-155.17 2961.29,-140.11"/>
<polygon fill="#63b8ff" stroke="#63b8ff" points="2961.85,-143.57 2971.38,-138.93 2961.04,-136.62 2961.85,-143.57"/>
</a>
</g>
</g>
<!-- Node28&#45;&gt;Node8 -->
<g id="edge37_Node000028_Node000008" class="edge">
<title>Node28&#45;&gt;Node8</title>
<g id="a_edge37_Node000028_Node000008"><a xlink:title=" ">
<path fill="none" stroke="#63b8ff" d="M2442.66,-126.39C2407.14,-124.57 2360.71,-122.38 2319.52,-121 1523.81,-94.32 1324.35,-107.9 528.52,-85 475.86,-83.48 416.34,-81.24 371.47,-79.43"/>
<polygon fill="#63b8ff" stroke="#63b8ff" points="371.39,-75.93 361.26,-79.02 371.11,-82.92 371.39,-75.93"/>
</a>
</g>
</g>
<!-- Node28&#45;&gt;Node19 -->
<g id="edge36_Node000028_Node000019" class="edge">
<title>Node28&#45;&gt;Node19</title>
<g id="a_edge36_Node000028_Node000019"><a xlink:title=" ">
<path fill="none" stroke="#63b8ff" d="M2486.71,-120.98C2473.37,-112.77 2452.94,-100.18 2437.22,-90.49"/>
<polygon fill="#63b8ff" stroke="#63b8ff" points="2438.94,-87.44 2428.59,-85.17 2435.27,-93.4 2438.94,-87.44"/>
</a>
</g>
</g>
<!-- Node46&#45;&gt;Node4 -->
<g id="edge53_Node000046_Node000004" class="edge">
<title>Node46&#45;&gt;Node4</title>
<g id="a_edge53_Node000046_Node000004"><a xlink:title=" ">
<path fill="none" stroke="#63b8ff" d="M1512.72,-183.14C1415.32,-179.48 1157.09,-167.88 930.74,-139.86"/>
<polygon fill="#63b8ff" stroke="#63b8ff" points="931.02,-136.37 920.67,-138.6 930.15,-143.31 931.02,-136.37"/>
</a>
</g>
</g>
<!-- Node46&#45;&gt;Node5 -->
<g id="edge56_Node000046_Node000005" class="edge">
<title>Node46&#45;&gt;Node5</title>
<g id="a_edge56_Node000046_Node000005"><a xlink:title=" ">
<path fill="none" stroke="#63b8ff" d="M1512.91,-183.1C1405.94,-179.08 1102.14,-166.18 838.23,-139.98"/>
<polygon fill="#63b8ff" stroke="#63b8ff" points="838.37,-136.48 828.07,-138.97 837.68,-143.44 838.37,-136.48"/>
</a>
</g>
</g>
<!-- Node46&#45;&gt;Node9 -->
<g id="edge55_Node000046_Node000009" class="edge">
<title>Node46&#45;&gt;Node9</title>
<g id="a_edge55_Node000046_Node000009"><a xlink:title=" ">
<path fill="none" stroke="#63b8ff" d="M1512.82,-184.42C1441.97,-183.29 1289.73,-176.38 1167.52,-140 1149.43,-134.61 1147.72,-126.05 1129.52,-121 1025.51,-92.15 688,-80.28 585.99,-77.29"/>
<polygon fill="#63b8ff" stroke="#63b8ff" points="585.9,-73.79 575.8,-77 585.7,-80.79 585.9,-73.79"/>
</a>
</g>
</g>
<!-- Node46&#45;&gt;Node12 -->
<g id="edge69_Node000046_Node000012" class="edge">
<title>Node46&#45;&gt;Node12</title>
<g id="a_edge69_Node000046_Node000012"><a xlink:title=" ">
<path fill="none" stroke="#63b8ff" d="M1512.89,-183.88C1343.98,-181.11 682.71,-168.68 452.29,-139.76"/>
<polygon fill="#63b8ff" stroke="#63b8ff" points="452.67,-136.28 442.3,-138.46 451.77,-143.23 452.67,-136.28"/>
</a>
</g>
</g>
<!-- Node46&#45;&gt;Node15 -->
<g id="edge59_Node000046_Node000015" class="edge">
<title>Node46&#45;&gt;Node15</title>
<g id="a_edge59_Node000046_Node000015"><a xlink:title=" ">
<path fill="none" stroke="#63b8ff" d="M1512.73,-183.67C1422.47,-181.29 1195.3,-172.46 996.27,-139.8"/>
<polygon fill="#63b8ff" stroke="#63b8ff" points="996.65,-136.31 986.21,-138.12 995.5,-143.22 996.65,-136.31"/>
</a>
</g>
</g>
<!-- Node46&#45;&gt;Node22 -->
<g id="edge58_Node000046_Node000022" class="edge">
<title>Node46&#45;&gt;Node22</title>
<g id="a_edge58_Node000046_Node000022"><a xlink:title=" ">
<path fill="none" stroke="#63b8ff" d="M1592.38,-184.58C1725.84,-184.45 2151.16,-180.82 2195.52,-140 2224.55,-113.29 2222.01,-62.3 2218.05,-34.76"/>
<polygon fill="#63b8ff" stroke="#63b8ff" points="2221.44,-33.83 2216.35,-24.53 2214.53,-34.97 2221.44,-33.83"/>
</a>
</g>
</g>
<!-- Node46&#45;&gt;Node41 -->
<g id="edge68_Node000046_Node000041" class="edge">
<title>Node46&#45;&gt;Node41</title>
<g id="a_edge68_Node000046_Node000041"><a xlink:title=" ">
<path fill="none" stroke="#63b8ff" d="M1592.29,-183.4C1696.84,-180.19 1987.99,-169.12 2228.52,-140 2229.82,-139.84 2231.14,-139.67 2232.47,-139.49"/>
<polygon fill="#63b8ff" stroke="#63b8ff" points="2233.39,-142.9 2242.76,-137.96 2232.36,-135.97 2233.39,-142.9"/>
</a>
</g>
</g>
<!-- Node46&#45;&gt;Node45 -->
<g id="edge63_Node000046_Node000045" class="edge">
<title>Node46&#45;&gt;Node45</title>
<g id="a_edge63_Node000046_Node000045"><a xlink:title=" ">
<path fill="none" stroke="#63b8ff" d="M1512.74,-180.42C1438.41,-172.76 1273.41,-155.59 1134.52,-140 1133.26,-139.86 1131.98,-139.71 1130.69,-139.57"/>
<polygon fill="#63b8ff" stroke="#63b8ff" points="1131.01,-136.08 1120.68,-138.42 1130.21,-143.04 1131.01,-136.08"/>
</a>
</g>
</g>
<!-- Node47 -->
<g id="Node000047" class="node">
<title>Node47</title>
<g id="a_Node000047"><a xlink:title=" ">
<polygon fill="#e0e0e0" stroke="#999999" points="1970.52,-140 1906.52,-140 1906.52,-121 1970.52,-121 1970.52,-140"/>
<text text-anchor="middle" x="1938.52" y="-128" font-family="Helvetica,sans-Serif" font-size="10.00">algorithm</text>
</a>
</g>
</g>
<!-- Node46&#45;&gt;Node47 -->
<g id="edge54_Node000046_Node000047" class="edge">
<title>Node46&#45;&gt;Node47</title>
<g id="a_edge54_Node000046_Node000047"><a xlink:title=" ">
<path fill="none" stroke="#63b8ff" d="M1592.25,-180.37C1654.77,-173.66 1780.13,-159.32 1896.21,-140.11"/>
<polygon fill="#63b8ff" stroke="#63b8ff" points="1897.05,-143.51 1906.34,-138.41 1895.9,-136.61 1897.05,-143.51"/>
</a>
</g>
</g>
<!-- Node48 -->
<g id="Node000048" class="node">
<title>Node48</title>
<g id="a_Node000048"><a xlink:title=" ">
<polygon fill="#e0e0e0" stroke="#999999" points="2108.02,-140 1989.02,-140 1989.02,-121 2108.02,-121 2108.02,-140"/>
<text text-anchor="middle" x="2048.52" y="-128" font-family="Helvetica,sans-Serif" font-size="10.00">G4TriangularFacet.hh</text>
</a>
</g>
</g>
<!-- Node46&#45;&gt;Node48 -->
<g id="edge57_Node000046_Node000048" class="edge">
<title>Node46&#45;&gt;Node48</title>
<g id="a_edge57_Node000046_Node000048"><a xlink:title=" ">
<path fill="none" stroke="#63b8ff" d="M1592.29,-180.61C1666.11,-173.33 1829.59,-156.94 1978.46,-140.1"/>
<polygon fill="#63b8ff" stroke="#63b8ff" points="1979.15,-143.55 1988.69,-138.94 1978.36,-136.59 1979.15,-143.55"/>
</a>
</g>
</g>
<!-- Node49 -->
<g id="Node000049" class="node">
<title>Node49</title>
<g id="a_Node000049"><a xlink:title=" ">
<polygon fill="#e0e0e0" stroke="#999999" points="2186.52,-140 2126.52,-140 2126.52,-121 2186.52,-121 2186.52,-140"/>
<text text-anchor="middle" x="2156.52" y="-128" font-family="Helvetica,sans-Serif" font-size="10.00">iostream</text>
</a>
</g>
</g>
<!-- Node46&#45;&gt;Node49 -->
<g id="edge60_Node000046_Node000049" class="edge">
<title>Node46&#45;&gt;Node49</title>
<g id="a_edge60_Node000046_Node000049"><a xlink:title=" ">
<path fill="none" stroke="#63b8ff" d="M1592.12,-183.23C1683.07,-179.93 1914.03,-169.28 2116.44,-139.95"/>
<polygon fill="#63b8ff" stroke="#63b8ff" points="2116.98,-143.41 2126.36,-138.5 2115.96,-136.49 2116.98,-143.41"/>
</a>
</g>
</g>
<!-- Node50 -->
<g id="Node000050" class="node">
<title>Node50</title>
<g id="a_Node000050"><a xlink:title=" ">
<polygon fill="#e0e0e0" stroke="#999999" points="1220.52,-140 1176.52,-140 1176.52,-121 1220.52,-121 1220.52,-140"/>
<text text-anchor="middle" x="1198.52" y="-128" font-family="Helvetica,sans-Serif" font-size="10.00">string</text>
</a>
</g>
</g>
<!-- Node46&#45;&gt;Node50 -->
<g id="edge61_Node000046_Node000050" class="edge">
<title>Node46&#45;&gt;Node50</title>
<g id="a_edge61_Node000046_Node000050"><a xlink:title=" ">
<path fill="none" stroke="#63b8ff" d="M1512.96,-180.73C1453.64,-174.72 1338,-161.58 1230.8,-140.02"/>
<polygon fill="#63b8ff" stroke="#63b8ff" points="1231.29,-136.55 1220.79,-137.98 1229.89,-143.41 1231.29,-136.55"/>
</a>
</g>
</g>
<!-- Node51 -->
<g id="Node000051" class="node">
<title>Node51</title>
<g id="a_Node000051"><a xlink:title=" ">
<polygon fill="#e0e0e0" stroke="#999999" points="1368.52,-140 1238.52,-140 1238.52,-121 1368.52,-121 1368.52,-140"/>
<text text-anchor="middle" x="1303.52" y="-128" font-family="Helvetica,sans-Serif" font-size="10.00">G4AssemblyVolume.hh</text>
</a>
</g>
</g>
<!-- Node46&#45;&gt;Node51 -->
<g id="edge62_Node000046_Node000051" class="edge">
<title>Node46&#45;&gt;Node51</title>
<g id="a_edge62_Node000046_Node000051"><a xlink:title=" ">
<path fill="none" stroke="#63b8ff" d="M1512.79,-176.04C1469.56,-166.84 1400.35,-152.11 1353.46,-142.13"/>
<polygon fill="#63b8ff" stroke="#63b8ff" points="1354.03,-138.67 1343.52,-140.01 1352.58,-145.52 1354.03,-138.67"/>
</a>
</g>
</g>
<!-- Node52 -->
<g id="Node000052" class="node">
<title>Node52</title>
<g id="a_Node000052"><a xlink:title=" ">
<polygon fill="#e0e0e0" stroke="#999999" points="1472.52,-140 1386.52,-140 1386.52,-121 1472.52,-121 1472.52,-140"/>
<text text-anchor="middle" x="1429.52" y="-128" font-family="Helvetica,sans-Serif" font-size="10.00">G4Material.hh</text>
</a>
</g>
</g>
<!-- Node46&#45;&gt;Node52 -->
<g id="edge64_Node000046_Node000052" class="edge">
<title>Node46&#45;&gt;Node52</title>
<g id="a_edge64_Node000046_Node000052"><a xlink:title=" ">
<path fill="none" stroke="#63b8ff" d="M1532.76,-175.98C1512.8,-167.38 1481.72,-153.99 1458.87,-144.15"/>
<polygon fill="#63b8ff" stroke="#63b8ff" points="1460.21,-140.91 1449.64,-140.17 1457.44,-147.34 1460.21,-140.91"/>
</a>
</g>
</g>
<!-- Node53 -->
<g id="Node000053" class="node">
<title>Node53</title>
<g id="a_Node000053"><a xlink:title=" ">
<polygon fill="#e0e0e0" stroke="#999999" points="1614.52,-140 1490.52,-140 1490.52,-121 1614.52,-121 1614.52,-140"/>
<text text-anchor="middle" x="1552.52" y="-128" font-family="Helvetica,sans-Serif" font-size="10.00">G4TessellatedSolid.hh</text>
</a>
</g>
</g>
<!-- Node46&#45;&gt;Node53 -->
<g id="edge65_Node000046_Node000053" class="edge">
<title>Node46&#45;&gt;Node53</title>
<g id="a_edge65_Node000046_Node000053"><a xlink:title=" ">
<path fill="none" stroke="#63b8ff" d="M1552.52,-175.75C1552.52,-168.8 1552.52,-158.85 1552.52,-150.13"/>
<polygon fill="#63b8ff" stroke="#63b8ff" points="1556.02,-150.09 1552.52,-140.09 1549.02,-150.09 1556.02,-150.09"/>
</a>
</g>
</g>
<!-- Node54 -->
<g id="Node000054" class="node">
<title>Node54</title>
<g id="a_Node000054"><a xlink:title=" ">
<polygon fill="#e0e0e0" stroke="#999999" points="1692.02,-140 1633.02,-140 1633.02,-121 1692.02,-121 1692.02,-140"/>
<text text-anchor="middle" x="1662.52" y="-128" font-family="Helvetica,sans-Serif" font-size="10.00">G4Tet.hh</text>
</a>
</g>
</g>
<!-- Node46&#45;&gt;Node54 -->
<g id="edge66_Node000046_Node000054" class="edge">
<title>Node46&#45;&gt;Node54</title>
<g id="a_edge66_Node000046_Node000054"><a xlink:title=" ">
<path fill="none" stroke="#63b8ff" d="M1570.2,-175.98C1587.81,-167.5 1615.1,-154.35 1635.45,-144.54"/>
<polygon fill="#63b8ff" stroke="#63b8ff" points="1637.04,-147.66 1644.53,-140.17 1634,-141.36 1637.04,-147.66"/>
</a>
</g>
</g>
<!-- Node55 -->
<g id="Node000055" class="node">
<title>Node55</title>
<g id="a_Node000055"><a xlink:title=" ">
<polygon fill="#e0e0e0" stroke="#999999" points="1814.52,-140 1710.52,-140 1710.52,-121 1814.52,-121 1814.52,-140"/>
<text text-anchor="middle" x="1762.52" y="-128" font-family="Helvetica,sans-Serif" font-size="10.00">G4UIcommand.hh</text>
</a>
</g>
</g>
<!-- Node46&#45;&gt;Node55 -->
<g id="edge67_Node000046_Node000055" class="edge">
<title>Node46&#45;&gt;Node55</title>
<g id="a_edge67_Node000046_Node000055"><a xlink:title=" ">
<path fill="none" stroke="#63b8ff" d="M1586.26,-175.98C1622.21,-166.91 1679.24,-152.52 1718.65,-142.57"/>
<polygon fill="#63b8ff" stroke="#63b8ff" points="1719.68,-145.92 1728.52,-140.08 1717.97,-139.14 1719.68,-145.92"/>
</a>
</g>
</g>
<!-- Node56 -->
<g id="Node000056" class="node">
<title>Node56</title>
<g id="a_Node000056"><a xlink:title=" ">
<polygon fill="#e0e0e0" stroke="#999999" points="1888.52,-140 1832.52,-140 1832.52,-121 1888.52,-121 1888.52,-140"/>
<text text-anchor="middle" x="1860.52" y="-128" font-family="Helvetica,sans-Serif" font-size="10.00">sstream</text>
</a>
</g>
</g>
<!-- Node46&#45;&gt;Node56 -->
<g id="edge70_Node000046_Node000056" class="edge">
<title>Node46&#45;&gt;Node56</title>
<g id="a_edge70_Node000046_Node000056"><a xlink:title=" ">
<path fill="none" stroke="#63b8ff" d="M1592.16,-178.79C1643.17,-171.27 1734.73,-157.17 1822.44,-140.11"/>
<polygon fill="#63b8ff" stroke="#63b8ff" points="1823.14,-143.54 1832.28,-138.18 1821.79,-136.67 1823.14,-143.54"/>
</a>
</g>
</g>
</g>
</svg>
