<?xml version="1.0" encoding="UTF-8" standalone="no"?>
<!DOCTYPE svg PUBLIC "-//W3C//DTD SVG 1.1//EN"
 "http://www.w3.org/Graphics/SVG/1.1/DTD/svg11.dtd">
<!-- Generated by graphviz version 2.43.0 (0)
 -->
<!-- Title: OMSimWavePIDDetector.hh Pages: 1 -->
<svg width="322pt" height="82pt"
 viewBox="0.00 0.00 321.50 82.00" xmlns="http://www.w3.org/2000/svg" xmlns:xlink="http://www.w3.org/1999/xlink">
<g id="graph0" class="graph" transform="scale(1 1) rotate(0) translate(4 78)">
<title>OMSimWavePIDDetector.hh</title>
<!-- Node1 -->
<g id="Node000001" class="node">
<title>Node1</title>
<g id="a_Node000001"><a xlink:title="Detector construction for WavePID simulation study.">
<polygon fill="#999999" stroke="#666666" points="234,-74 82,-74 82,-55 234,-55 234,-74"/>
<text text-anchor="middle" x="158" y="-62" font-family="Helvetica,sans-Serif" font-size="10.00">OMSimWavePIDDetector.hh</text>
</a>
</g>
</g>
<!-- Node2 -->
<g id="Node000002" class="node">
<title>Node2</title>
<g id="a_Node000002"><a xlink:href="_o_m_sim_wave_p_i_d_detector_8cc.html" target="_top" xlink:title="Implementation of detector construction for WavePID study.">
<polygon fill="white" stroke="#666666" points="150,-19 0,-19 0,0 150,0 150,-19"/>
<text text-anchor="middle" x="75" y="-7" font-family="Helvetica,sans-Serif" font-size="10.00">OMSimWavePIDDetector.cc</text>
</a>
</g>
</g>
<!-- Node1&#45;&gt;Node2 -->
<g id="edge1_Node000001_Node000002" class="edge">
<title>Node1&#45;&gt;Node2</title>
<g id="a_edge1_Node000001_Node000002"><a xlink:title=" ">
<path fill="none" stroke="#63b8ff" d="M135.96,-49.42C120.89,-39.81 101.41,-27.37 88.58,-19.17"/>
<polygon fill="#63b8ff" stroke="#63b8ff" points="134.35,-52.55 144.66,-54.98 138.12,-46.65 134.35,-52.55"/>
</a>
</g>
</g>
<!-- Node3 -->
<g id="Node000003" class="node">
<title>Node3</title>
<g id="a_Node000003"><a xlink:href="_o_m_sim___wave_p_i_d__study_8cc.html" target="_top" xlink:title="Main executable for WavePID photon origin tracking study.">
<polygon fill="white" stroke="#666666" points="313.5,-19 168.5,-19 168.5,0 313.5,0 313.5,-19"/>
<text text-anchor="middle" x="241" y="-7" font-family="Helvetica,sans-Serif" font-size="10.00">OMSim_WavePID_study.cc</text>
</a>
</g>
</g>
<!-- Node1&#45;&gt;Node3 -->
<g id="edge2_Node000001_Node000003" class="edge">
<title>Node1&#45;&gt;Node3</title>
<g id="a_edge2_Node000001_Node000003"><a xlink:title=" ">
<path fill="none" stroke="#63b8ff" d="M180.04,-49.42C195.11,-39.81 214.59,-27.37 227.42,-19.17"/>
<polygon fill="#63b8ff" stroke="#63b8ff" points="177.88,-46.65 171.34,-54.98 181.65,-52.55 177.88,-46.65"/>
</a>
</g>
</g>
</g>
</svg>
