<?xml version="1.0" encoding="UTF-8" standalone="no"?>
<!DOCTYPE svg PUBLIC "-//W3C//DTD SVG 1.1//EN"
 "http://www.w3.org/Graphics/SVG/1.1/DTD/svg11.dtd">
<!-- Generated by graphviz version 2.43.0 (0)
 -->
<!-- Title: OMSimMaterialHandler.hh Pages: 1 -->
<svg width="955pt" height="218pt"
 viewBox="0.00 0.00 954.50 218.00" xmlns="http://www.w3.org/2000/svg" xmlns:xlink="http://www.w3.org/1999/xlink">
<g id="graph0" class="graph" transform="scale(1 1) rotate(0) translate(4 214)">
<title>OMSimMaterialHandler.hh</title>
<!-- Node1 -->
<g id="node1" class="node">
<title>Node1</title>
<g id="a_node1"><a xlink:title="Definition of OMSimMaterialHandler and the namespaces IceProcessor and ScintillationProcessor.">
<polygon fill="#bfbfbf" stroke="black" points="319,-190.5 319,-209.5 464,-209.5 464,-190.5 319,-190.5"/>
<text text-anchor="middle" x="391.5" y="-197.5" font-family="Helvetica,sans-Serif" font-size="10.00">OMSimMaterialHandler.hh</text>
</a>
</g>
</g>
<!-- Node2 -->
<g id="node2" class="node">
<title>Node2</title>
<g id="a_node2"><a xlink:title=" ">
<polygon fill="none" stroke="#bfbfbf" points="0,-129 0,-148 107,-148 107,-129 0,-129"/>
<text text-anchor="middle" x="53.5" y="-136" font-family="Helvetica,sans-Serif" font-size="10.00">G4NistManager.hh</text>
</a>
</g>
</g>
<!-- Node1&#45;&gt;Node2 -->
<g id="edge1" class="edge">
<title>Node1&#45;&gt;Node2</title>
<path fill="none" stroke="midnightblue" d="M331.8,-190.47C275.75,-182.17 189.67,-168.7 115.5,-154 109.8,-152.87 103.83,-151.59 97.94,-150.28"/>
<polygon fill="midnightblue" stroke="midnightblue" points="98.7,-146.86 88.17,-148.05 97.14,-153.69 98.7,-146.86"/>
</g>
<!-- Node3 -->
<g id="node3" class="node">
<title>Node3</title>
<g id="a_node3"><a xlink:title=" ">
<polygon fill="none" stroke="#bfbfbf" points="125,-129 125,-148 244,-148 244,-129 125,-129"/>
<text text-anchor="middle" x="184.5" y="-136" font-family="Helvetica,sans-Serif" font-size="10.00">G4SystemOfUnits.hh</text>
</a>
</g>
</g>
<!-- Node1&#45;&gt;Node3 -->
<g id="edge2" class="edge">
<title>Node1&#45;&gt;Node3</title>
<path fill="none" stroke="midnightblue" d="M361.84,-190.48C325.57,-180.05 264.04,-162.36 223.84,-150.81"/>
<polygon fill="midnightblue" stroke="midnightblue" points="224.68,-147.41 214.1,-148.01 222.75,-154.14 224.68,-147.41"/>
</g>
<!-- Node4 -->
<g id="node4" class="node">
<title>Node4</title>
<g id="a_node4"><a xlink:title=" ">
<polygon fill="none" stroke="#bfbfbf" points="262.5,-129 262.5,-148 378.5,-148 378.5,-129 262.5,-129"/>
<text text-anchor="middle" x="320.5" y="-136" font-family="Helvetica,sans-Serif" font-size="10.00">G4OpticalSurface.hh</text>
</a>
</g>
</g>
<!-- Node1&#45;&gt;Node4 -->
<g id="edge3" class="edge">
<title>Node1&#45;&gt;Node4</title>
<path fill="none" stroke="midnightblue" d="M381.33,-190.48C370.15,-181.11 351.98,-165.88 338.41,-154.51"/>
<polygon fill="midnightblue" stroke="midnightblue" points="340.57,-151.75 330.65,-148.01 336.07,-157.11 340.57,-151.75"/>
</g>
<!-- Node5 -->
<g id="node5" class="node">
<title>Node5</title>
<g id="a_node5"><a xlink:title=" ">
<polygon fill="none" stroke="#bfbfbf" points="396.5,-129 396.5,-148 530.5,-148 530.5,-129 396.5,-129"/>
<text text-anchor="middle" x="463.5" y="-136" font-family="Helvetica,sans-Serif" font-size="10.00">G4PhysicalConstants.hh</text>
</a>
</g>
</g>
<!-- Node1&#45;&gt;Node5 -->
<g id="edge4" class="edge">
<title>Node1&#45;&gt;Node5</title>
<path fill="none" stroke="midnightblue" d="M401.82,-190.48C413.15,-181.11 431.57,-165.88 445.34,-154.51"/>
<polygon fill="midnightblue" stroke="midnightblue" points="447.72,-157.08 453.2,-148.01 443.27,-151.68 447.72,-157.08"/>
</g>
<!-- Node6 -->
<g id="node6" class="node">
<title>Node6</title>
<g id="a_node6"><a xlink:title=" ">
<polygon fill="none" stroke="#bfbfbf" points="549,-123.5 549,-153.5 662,-153.5 662,-123.5 549,-123.5"/>
<text text-anchor="start" x="557" y="-141.5" font-family="Helvetica,sans-Serif" font-size="10.00">boost/property_tree</text>
<text text-anchor="middle" x="605.5" y="-130.5" font-family="Helvetica,sans-Serif" font-size="10.00">/json_parser.hpp</text>
</a>
</g>
</g>
<!-- Node1&#45;&gt;Node6 -->
<g id="edge5" class="edge">
<title>Node1&#45;&gt;Node6</title>
<path fill="none" stroke="midnightblue" d="M422.16,-190.48C454.19,-181.57 505.27,-167.37 545.38,-156.22"/>
<polygon fill="midnightblue" stroke="midnightblue" points="546.37,-159.57 555.06,-153.52 544.49,-152.83 546.37,-159.57"/>
</g>
<!-- Node7 -->
<g id="node7" class="node">
<title>Node7</title>
<g id="a_node7"><a xlink:href="_o_m_sim_command_args_table_8hh.html" target="_top" xlink:title="Definition of the OMSimCommandArgsTable singleton class, which controls user args.">
<polygon fill="none" stroke="black" points="680.5,-129 680.5,-148 844.5,-148 844.5,-129 680.5,-129"/>
<text text-anchor="middle" x="762.5" y="-136" font-family="Helvetica,sans-Serif" font-size="10.00">OMSimCommandArgsTable.hh</text>
</a>
</g>
</g>
<!-- Node1&#45;&gt;Node7 -->
<g id="edge6" class="edge">
<title>Node1&#45;&gt;Node7</title>
<path fill="none" stroke="midnightblue" d="M444.66,-190.48C511.88,-179.69 627.48,-161.15 699.19,-149.65"/>
<polygon fill="midnightblue" stroke="midnightblue" points="700.12,-153.05 709.44,-148.01 699.02,-146.14 700.12,-153.05"/>
</g>
<!-- Node8 -->
<g id="node8" class="node">
<title>Node8</title>
<g id="a_node8"><a xlink:href="_o_m_sim_logger_8hh_source.html" target="_top" xlink:title=" ">
<polygon fill="none" stroke="black" points="530,-67.5 530,-86.5 629,-86.5 629,-67.5 530,-67.5"/>
<text text-anchor="middle" x="579.5" y="-74.5" font-family="Helvetica,sans-Serif" font-size="10.00">OMSimLogger.hh</text>
</a>
</g>
</g>
<!-- Node7&#45;&gt;Node8 -->
<g id="edge7" class="edge">
<title>Node7&#45;&gt;Node8</title>
<path fill="none" stroke="midnightblue" d="M736.28,-128.98C704.48,-118.64 650.73,-101.16 615.18,-89.6"/>
<polygon fill="midnightblue" stroke="midnightblue" points="616.26,-86.27 605.67,-86.51 614.1,-92.93 616.26,-86.27"/>
</g>
<!-- Node13 -->
<g id="node13" class="node">
<title>Node13</title>
<g id="a_node13"><a xlink:title=" ">
<polygon fill="none" stroke="#bfbfbf" points="647,-67.5 647,-86.5 702,-86.5 702,-67.5 647,-67.5"/>
<text text-anchor="middle" x="674.5" y="-74.5" font-family="Helvetica,sans-Serif" font-size="10.00">fstream</text>
</a>
</g>
</g>
<!-- Node7&#45;&gt;Node13 -->
<g id="edge12" class="edge">
<title>Node7&#45;&gt;Node13</title>
<path fill="none" stroke="midnightblue" d="M749.89,-128.98C735.78,-119.43 712.67,-103.81 695.75,-92.37"/>
<polygon fill="midnightblue" stroke="midnightblue" points="697.33,-89.21 687.08,-86.51 693.41,-95.01 697.33,-89.21"/>
</g>
<!-- Node14 -->
<g id="node14" class="node">
<title>Node14</title>
<g id="a_node14"><a xlink:title=" ">
<polygon fill="none" stroke="#bfbfbf" points="720.5,-67.5 720.5,-86.5 804.5,-86.5 804.5,-67.5 720.5,-67.5"/>
<text text-anchor="middle" x="762.5" y="-74.5" font-family="Helvetica,sans-Serif" font-size="10.00">boost/any.hpp</text>
</a>
</g>
</g>
<!-- Node7&#45;&gt;Node14 -->
<g id="edge13" class="edge">
<title>Node7&#45;&gt;Node14</title>
<path fill="none" stroke="midnightblue" d="M762.5,-128.98C762.5,-120.58 762.5,-107.48 762.5,-96.66"/>
<polygon fill="midnightblue" stroke="midnightblue" points="766,-96.51 762.5,-86.51 759,-96.51 766,-96.51"/>
</g>
<!-- Node15 -->
<g id="node15" class="node">
<title>Node15</title>
<g id="a_node15"><a xlink:title=" ">
<polygon fill="none" stroke="#bfbfbf" points="822.5,-67.5 822.5,-86.5 890.5,-86.5 890.5,-67.5 822.5,-67.5"/>
<text text-anchor="middle" x="856.5" y="-74.5" font-family="Helvetica,sans-Serif" font-size="10.00">sys/time.h</text>
</a>
</g>
</g>
<!-- Node7&#45;&gt;Node15 -->
<g id="edge14" class="edge">
<title>Node7&#45;&gt;Node15</title>
<path fill="none" stroke="midnightblue" d="M775.97,-128.98C791.18,-119.34 816.19,-103.52 834.3,-92.05"/>
<polygon fill="midnightblue" stroke="midnightblue" points="836.48,-94.81 843.06,-86.51 832.74,-88.9 836.48,-94.81"/>
</g>
<!-- Node16 -->
<g id="node16" class="node">
<title>Node16</title>
<g id="a_node16"><a xlink:title=" ">
<polygon fill="none" stroke="#bfbfbf" points="908.5,-67.5 908.5,-86.5 946.5,-86.5 946.5,-67.5 908.5,-67.5"/>
<text text-anchor="middle" x="927.5" y="-74.5" font-family="Helvetica,sans-Serif" font-size="10.00">map</text>
</a>
</g>
</g>
<!-- Node7&#45;&gt;Node16 -->
<g id="edge15" class="edge">
<title>Node7&#45;&gt;Node16</title>
<path fill="none" stroke="midnightblue" d="M786.14,-128.98C815.73,-118.3 866.4,-100.03 898.36,-88.51"/>
<polygon fill="midnightblue" stroke="midnightblue" points="899.81,-91.71 908.03,-85.02 897.43,-85.12 899.81,-91.71"/>
</g>
<!-- Node9 -->
<g id="node9" class="node">
<title>Node9</title>
<g id="a_node9"><a xlink:title=" ">
<polygon fill="none" stroke="#bfbfbf" points="362,-6 362,-25 455,-25 455,-6 362,-6"/>
<text text-anchor="middle" x="408.5" y="-13" font-family="Helvetica,sans-Serif" font-size="10.00">spdlog/spdlog.h</text>
</a>
</g>
</g>
<!-- Node8&#45;&gt;Node9 -->
<g id="edge8" class="edge">
<title>Node8&#45;&gt;Node9</title>
<path fill="none" stroke="midnightblue" d="M555,-67.48C525.54,-57.22 475.92,-39.96 442.7,-28.4"/>
<polygon fill="midnightblue" stroke="midnightblue" points="443.55,-24.99 432.95,-25.01 441.25,-31.6 443.55,-24.99"/>
</g>
<!-- Node10 -->
<g id="node10" class="node">
<title>Node10</title>
<g id="a_node10"><a xlink:title=" ">
<polygon fill="none" stroke="#bfbfbf" points="473,-0.5 473,-30.5 584,-30.5 584,-0.5 473,-0.5"/>
<text text-anchor="start" x="481" y="-18.5" font-family="Helvetica,sans-Serif" font-size="10.00">spdlog/sinks/stdout</text>
<text text-anchor="middle" x="528.5" y="-7.5" font-family="Helvetica,sans-Serif" font-size="10.00">_color_sinks.h</text>
</a>
</g>
</g>
<!-- Node8&#45;&gt;Node10 -->
<g id="edge9" class="edge">
<title>Node8&#45;&gt;Node10</title>
<path fill="none" stroke="midnightblue" d="M572.19,-67.48C565.67,-59.87 555.84,-48.4 547.16,-38.26"/>
<polygon fill="midnightblue" stroke="midnightblue" points="549.69,-35.84 540.52,-30.52 544.37,-40.39 549.69,-35.84"/>
</g>
<!-- Node11 -->
<g id="node11" class="node">
<title>Node11</title>
<g id="a_node11"><a xlink:title=" ">
<polygon fill="none" stroke="#bfbfbf" points="602.5,-6 602.5,-25 660.5,-25 660.5,-6 602.5,-6"/>
<text text-anchor="middle" x="631.5" y="-13" font-family="Helvetica,sans-Serif" font-size="10.00">memory</text>
</a>
</g>
</g>
<!-- Node8&#45;&gt;Node11 -->
<g id="edge10" class="edge">
<title>Node8&#45;&gt;Node11</title>
<path fill="none" stroke="midnightblue" d="M586.95,-67.48C594.83,-58.46 607.44,-44.02 617.24,-32.81"/>
<polygon fill="midnightblue" stroke="midnightblue" points="620.12,-34.84 624.06,-25.01 614.85,-30.24 620.12,-34.84"/>
</g>
<!-- Node12 -->
<g id="node12" class="node">
<title>Node12</title>
<g id="a_node12"><a xlink:title=" ">
<polygon fill="none" stroke="#bfbfbf" points="678.5,-6 678.5,-25 776.5,-25 776.5,-6 678.5,-6"/>
<text text-anchor="middle" x="727.5" y="-13" font-family="Helvetica,sans-Serif" font-size="10.00">spdlog/fmt/fmt.h</text>
</a>
</g>
</g>
<!-- Node8&#45;&gt;Node12 -->
<g id="edge11" class="edge">
<title>Node8&#45;&gt;Node12</title>
<path fill="none" stroke="midnightblue" d="M600.7,-67.48C625.87,-57.36 668.04,-40.4 696.78,-28.85"/>
<polygon fill="midnightblue" stroke="midnightblue" points="698.36,-31.99 706.33,-25.01 695.75,-25.49 698.36,-31.99"/>
</g>
</g>
</svg>
