<?xml version="1.0" encoding="UTF-8" standalone="no"?>
<!DOCTYPE svg PUBLIC "-//W3C//DTD SVG 1.1//EN"
 "http://www.w3.org/Graphics/SVG/1.1/DTD/svg11.dtd">
<!-- Generated by graphviz version 2.43.0 (0)
 -->
<!-- Title: OMSimPrimaryGeneratorMessenger.cc Pages: 1 -->
<svg width="702pt" height="140pt"
 viewBox="0.00 0.00 701.50 140.00" xmlns="http://www.w3.org/2000/svg" xmlns:xlink="http://www.w3.org/1999/xlink">
<g id="graph0" class="graph" transform="scale(1 1) rotate(0) translate(4 136)">
<title>OMSimPrimaryGeneratorMessenger.cc</title>
<!-- Node1 -->
<g id="node1" class="node">
<title>Node1</title>
<g id="a_node1"><a xlink:title="Primary generator messenger to choose the corresponding primary generator.">
<polygon fill="#bfbfbf" stroke="black" points="298,-112.5 298,-131.5 503,-131.5 503,-112.5 298,-112.5"/>
<text text-anchor="middle" x="400.5" y="-119.5" font-family="Helvetica,sans-Serif" font-size="10.00">OMSimPrimaryGeneratorMessenger.cc</text>
</a>
</g>
</g>
<!-- Node2 -->
<g id="node2" class="node">
<title>Node2</title>
<g id="a_node2"><a xlink:href="_o_m_sim_primary_generator_messenger_8hh_source.html" target="_top" xlink:title=" ">
<polygon fill="none" stroke="black" points="4.5,-56.5 4.5,-75.5 210.5,-75.5 210.5,-56.5 4.5,-56.5"/>
<text text-anchor="middle" x="107.5" y="-63.5" font-family="Helvetica,sans-Serif" font-size="10.00">OMSimPrimaryGeneratorMessenger.hh</text>
</a>
</g>
</g>
<!-- Node1&#45;&gt;Node2 -->
<g id="edge1" class="edge">
<title>Node1&#45;&gt;Node2</title>
<path fill="none" stroke="midnightblue" d="M354.07,-112.44C302.42,-102.92 218.99,-87.55 163.69,-77.36"/>
<polygon fill="midnightblue" stroke="midnightblue" points="164.18,-73.89 153.71,-75.52 162.91,-80.77 164.18,-73.89"/>
</g>
<!-- Node5 -->
<g id="node5" class="node">
<title>Node5</title>
<g id="a_node5"><a xlink:title=" ">
<polygon fill="none" stroke="#bfbfbf" points="229,-56.5 229,-75.5 414,-75.5 414,-56.5 229,-56.5"/>
<text text-anchor="middle" x="321.5" y="-63.5" font-family="Helvetica,sans-Serif" font-size="10.00">OMSimPrimaryGeneratorAction.hh</text>
</a>
</g>
</g>
<!-- Node1&#45;&gt;Node5 -->
<g id="edge4" class="edge">
<title>Node1&#45;&gt;Node5</title>
<path fill="none" stroke="midnightblue" d="M387.81,-112.32C375.6,-103.98 356.92,-91.21 342.5,-81.35"/>
<polygon fill="midnightblue" stroke="midnightblue" points="344.39,-78.41 334.16,-75.65 340.44,-84.19 344.39,-78.41"/>
</g>
<!-- Node6 -->
<g id="node6" class="node">
<title>Node6</title>
<g id="a_node6"><a xlink:title=" ">
<polygon fill="none" stroke="#bfbfbf" points="431.5,-56.5 431.5,-75.5 529.5,-75.5 529.5,-56.5 431.5,-56.5"/>
<text text-anchor="middle" x="480.5" y="-63.5" font-family="Helvetica,sans-Serif" font-size="10.00">G4UIdirectory.hh</text>
</a>
</g>
</g>
<!-- Node1&#45;&gt;Node6 -->
<g id="edge5" class="edge">
<title>Node1&#45;&gt;Node6</title>
<path fill="none" stroke="midnightblue" d="M413.35,-112.32C425.72,-103.98 444.63,-91.21 459.24,-81.35"/>
<polygon fill="midnightblue" stroke="midnightblue" points="461.35,-84.15 467.68,-75.65 457.43,-78.35 461.35,-84.15"/>
</g>
<!-- Node7 -->
<g id="node7" class="node">
<title>Node7</title>
<g id="a_node7"><a xlink:title=" ">
<polygon fill="none" stroke="#bfbfbf" points="547.5,-56.5 547.5,-75.5 693.5,-75.5 693.5,-56.5 547.5,-56.5"/>
<text text-anchor="middle" x="620.5" y="-63.5" font-family="Helvetica,sans-Serif" font-size="10.00">G4UIcmdWithAnInteger.hh</text>
</a>
</g>
</g>
<!-- Node1&#45;&gt;Node7 -->
<g id="edge6" class="edge">
<title>Node1&#45;&gt;Node7</title>
<path fill="none" stroke="midnightblue" d="M435.36,-112.44C473.42,-103.1 534.46,-88.12 575.96,-77.93"/>
<polygon fill="midnightblue" stroke="midnightblue" points="576.93,-81.3 585.8,-75.52 575.26,-74.5 576.93,-81.3"/>
</g>
<!-- Node3 -->
<g id="node3" class="node">
<title>Node3</title>
<g id="a_node3"><a xlink:title=" ">
<polygon fill="none" stroke="#bfbfbf" points="0,-0.5 0,-19.5 109,-19.5 109,-0.5 0,-0.5"/>
<text text-anchor="middle" x="54.5" y="-7.5" font-family="Helvetica,sans-Serif" font-size="10.00">G4UImessenger.hh</text>
</a>
</g>
</g>
<!-- Node2&#45;&gt;Node3 -->
<g id="edge2" class="edge">
<title>Node2&#45;&gt;Node3</title>
<path fill="none" stroke="midnightblue" d="M98.75,-56.08C91.03,-48.22 79.6,-36.57 70.28,-27.08"/>
<polygon fill="midnightblue" stroke="midnightblue" points="72.59,-24.44 63.09,-19.75 67.6,-29.34 72.59,-24.44"/>
</g>
<!-- Node4 -->
<g id="node4" class="node">
<title>Node4</title>
<g id="a_node4"><a xlink:title=" ">
<polygon fill="none" stroke="#bfbfbf" points="127,-0.5 127,-19.5 194,-19.5 194,-0.5 127,-0.5"/>
<text text-anchor="middle" x="160.5" y="-7.5" font-family="Helvetica,sans-Serif" font-size="10.00">globals.hh</text>
</a>
</g>
</g>
<!-- Node2&#45;&gt;Node4 -->
<g id="edge3" class="edge">
<title>Node2&#45;&gt;Node4</title>
<path fill="none" stroke="midnightblue" d="M116.25,-56.08C123.97,-48.22 135.4,-36.57 144.72,-27.08"/>
<polygon fill="midnightblue" stroke="midnightblue" points="147.4,-29.34 151.91,-19.75 142.41,-24.44 147.4,-29.34"/>
</g>
</g>
</svg>
