<?xml version="1.0" encoding="UTF-8" standalone="no"?>
<!DOCTYPE svg PUBLIC "-//W3C//DTD SVG 1.1//EN"
 "http://www.w3.org/Graphics/SVG/1.1/DTD/svg11.dtd">
<!-- Generated by graphviz version 2.43.0 (0)
 -->
<!-- Title: OMSimUIinterface.hh Pages: 1 -->
<svg width="607pt" height="207pt"
 viewBox="0.00 0.00 606.50 207.00" xmlns="http://www.w3.org/2000/svg" xmlns:xlink="http://www.w3.org/1999/xlink">
<g id="graph0" class="graph" transform="scale(1 1) rotate(0) translate(4 203)">
<title>OMSimUIinterface.hh</title>
<!-- Node1 -->
<g id="node1" class="node">
<title>Node1</title>
<g id="a_node1"><a xlink:title=" ">
<polygon fill="#bfbfbf" stroke="black" points="414,-179.5 414,-198.5 535,-198.5 535,-179.5 414,-179.5"/>
<text text-anchor="middle" x="474.5" y="-186.5" font-family="Helvetica,sans-Serif" font-size="10.00">OMSimUIinterface.hh</text>
</a>
</g>
</g>
<!-- Node2 -->
<g id="node2" class="node">
<title>Node2</title>
<g id="a_node2"><a xlink:href="_o_m_sim_command_args_table_8hh.html" target="_top" xlink:title="Definition of the OMSimCommandArgsTable singleton class, which controls user args.">
<polygon fill="none" stroke="black" points="318.5,-123.5 318.5,-142.5 482.5,-142.5 482.5,-123.5 318.5,-123.5"/>
<text text-anchor="middle" x="400.5" y="-130.5" font-family="Helvetica,sans-Serif" font-size="10.00">OMSimCommandArgsTable.hh</text>
</a>
</g>
</g>
<!-- Node1&#45;&gt;Node2 -->
<g id="edge1" class="edge">
<title>Node1&#45;&gt;Node2</title>
<path fill="none" stroke="midnightblue" d="M462.61,-179.32C451.35,-171.11 434.21,-158.6 420.79,-148.81"/>
<polygon fill="midnightblue" stroke="midnightblue" points="422.75,-145.9 412.61,-142.83 418.62,-151.56 422.75,-145.9"/>
</g>
<!-- Node12 -->
<g id="node12" class="node">
<title>Node12</title>
<g id="a_node12"><a xlink:title=" ">
<polygon fill="none" stroke="#bfbfbf" points="500.5,-123.5 500.5,-142.5 598.5,-142.5 598.5,-123.5 500.5,-123.5"/>
<text text-anchor="middle" x="549.5" y="-130.5" font-family="Helvetica,sans-Serif" font-size="10.00">G4UImanager.hh</text>
</a>
</g>
</g>
<!-- Node1&#45;&gt;Node12 -->
<g id="edge11" class="edge">
<title>Node1&#45;&gt;Node12</title>
<path fill="none" stroke="midnightblue" d="M486.55,-179.32C497.96,-171.11 515.33,-158.6 528.93,-148.81"/>
<polygon fill="midnightblue" stroke="midnightblue" points="531.16,-151.52 537.23,-142.83 527.07,-145.84 531.16,-151.52"/>
</g>
<!-- Node3 -->
<g id="node3" class="node">
<title>Node3</title>
<g id="a_node3"><a xlink:href="_o_m_sim_logger_8hh_source.html" target="_top" xlink:title=" ">
<polygon fill="none" stroke="black" points="168,-67.5 168,-86.5 267,-86.5 267,-67.5 168,-67.5"/>
<text text-anchor="middle" x="217.5" y="-74.5" font-family="Helvetica,sans-Serif" font-size="10.00">OMSimLogger.hh</text>
</a>
</g>
</g>
<!-- Node2&#45;&gt;Node3 -->
<g id="edge2" class="edge">
<title>Node2&#45;&gt;Node3</title>
<path fill="none" stroke="midnightblue" d="M371.5,-123.44C340.32,-114.24 290.57,-99.56 256.09,-89.39"/>
<polygon fill="midnightblue" stroke="midnightblue" points="256.94,-85.99 246.36,-86.52 254.96,-92.7 256.94,-85.99"/>
</g>
<!-- Node8 -->
<g id="node8" class="node">
<title>Node8</title>
<g id="a_node8"><a xlink:title=" ">
<polygon fill="none" stroke="#bfbfbf" points="285,-67.5 285,-86.5 340,-86.5 340,-67.5 285,-67.5"/>
<text text-anchor="middle" x="312.5" y="-74.5" font-family="Helvetica,sans-Serif" font-size="10.00">fstream</text>
</a>
</g>
</g>
<!-- Node2&#45;&gt;Node8 -->
<g id="edge7" class="edge">
<title>Node2&#45;&gt;Node8</title>
<path fill="none" stroke="midnightblue" d="M386.36,-123.32C372.63,-114.9 351.56,-101.97 335.44,-92.07"/>
<polygon fill="midnightblue" stroke="midnightblue" points="336.96,-88.9 326.6,-86.65 333.3,-94.87 336.96,-88.9"/>
</g>
<!-- Node9 -->
<g id="node9" class="node">
<title>Node9</title>
<g id="a_node9"><a xlink:title=" ">
<polygon fill="none" stroke="#bfbfbf" points="358.5,-67.5 358.5,-86.5 442.5,-86.5 442.5,-67.5 358.5,-67.5"/>
<text text-anchor="middle" x="400.5" y="-74.5" font-family="Helvetica,sans-Serif" font-size="10.00">boost/any.hpp</text>
</a>
</g>
</g>
<!-- Node2&#45;&gt;Node9 -->
<g id="edge8" class="edge">
<title>Node2&#45;&gt;Node9</title>
<path fill="none" stroke="midnightblue" d="M400.5,-123.08C400.5,-116.01 400.5,-105.86 400.5,-96.99"/>
<polygon fill="midnightblue" stroke="midnightblue" points="404,-96.75 400.5,-86.75 397,-96.75 404,-96.75"/>
</g>
<!-- Node10 -->
<g id="node10" class="node">
<title>Node10</title>
<g id="a_node10"><a xlink:title=" ">
<polygon fill="none" stroke="#bfbfbf" points="460.5,-67.5 460.5,-86.5 528.5,-86.5 528.5,-67.5 460.5,-67.5"/>
<text text-anchor="middle" x="494.5" y="-74.5" font-family="Helvetica,sans-Serif" font-size="10.00">sys/time.h</text>
</a>
</g>
</g>
<!-- Node2&#45;&gt;Node10 -->
<g id="edge9" class="edge">
<title>Node2&#45;&gt;Node10</title>
<path fill="none" stroke="midnightblue" d="M415.6,-123.32C430.4,-114.82 453.19,-101.73 470.48,-91.8"/>
<polygon fill="midnightblue" stroke="midnightblue" points="472.51,-94.67 479.43,-86.65 469.02,-88.6 472.51,-94.67"/>
</g>
<!-- Node11 -->
<g id="node11" class="node">
<title>Node11</title>
<g id="a_node11"><a xlink:title=" ">
<polygon fill="none" stroke="#bfbfbf" points="546.5,-67.5 546.5,-86.5 584.5,-86.5 584.5,-67.5 546.5,-67.5"/>
<text text-anchor="middle" x="565.5" y="-74.5" font-family="Helvetica,sans-Serif" font-size="10.00">map</text>
</a>
</g>
</g>
<!-- Node2&#45;&gt;Node11 -->
<g id="edge10" class="edge">
<title>Node2&#45;&gt;Node11</title>
<path fill="none" stroke="midnightblue" d="M426.64,-123.44C456.53,-113.66 505.3,-97.7 536.37,-87.53"/>
<polygon fill="midnightblue" stroke="midnightblue" points="537.76,-90.76 546.18,-84.32 535.59,-84.11 537.76,-90.76"/>
</g>
<!-- Node4 -->
<g id="node4" class="node">
<title>Node4</title>
<g id="a_node4"><a xlink:title=" ">
<polygon fill="none" stroke="#bfbfbf" points="0,-6 0,-25 93,-25 93,-6 0,-6"/>
<text text-anchor="middle" x="46.5" y="-13" font-family="Helvetica,sans-Serif" font-size="10.00">spdlog/spdlog.h</text>
</a>
</g>
</g>
<!-- Node3&#45;&gt;Node4 -->
<g id="edge3" class="edge">
<title>Node3&#45;&gt;Node4</title>
<path fill="none" stroke="midnightblue" d="M193,-67.48C163.54,-57.22 113.92,-39.96 80.7,-28.4"/>
<polygon fill="midnightblue" stroke="midnightblue" points="81.55,-24.99 70.95,-25.01 79.25,-31.6 81.55,-24.99"/>
</g>
<!-- Node5 -->
<g id="node5" class="node">
<title>Node5</title>
<g id="a_node5"><a xlink:title=" ">
<polygon fill="none" stroke="#bfbfbf" points="111,-0.5 111,-30.5 222,-30.5 222,-0.5 111,-0.5"/>
<text text-anchor="start" x="119" y="-18.5" font-family="Helvetica,sans-Serif" font-size="10.00">spdlog/sinks/stdout</text>
<text text-anchor="middle" x="166.5" y="-7.5" font-family="Helvetica,sans-Serif" font-size="10.00">_color_sinks.h</text>
</a>
</g>
</g>
<!-- Node3&#45;&gt;Node5 -->
<g id="edge4" class="edge">
<title>Node3&#45;&gt;Node5</title>
<path fill="none" stroke="midnightblue" d="M210.19,-67.48C203.67,-59.87 193.84,-48.4 185.16,-38.26"/>
<polygon fill="midnightblue" stroke="midnightblue" points="187.69,-35.84 178.52,-30.52 182.37,-40.39 187.69,-35.84"/>
</g>
<!-- Node6 -->
<g id="node6" class="node">
<title>Node6</title>
<g id="a_node6"><a xlink:title=" ">
<polygon fill="none" stroke="#bfbfbf" points="240.5,-6 240.5,-25 298.5,-25 298.5,-6 240.5,-6"/>
<text text-anchor="middle" x="269.5" y="-13" font-family="Helvetica,sans-Serif" font-size="10.00">memory</text>
</a>
</g>
</g>
<!-- Node3&#45;&gt;Node6 -->
<g id="edge5" class="edge">
<title>Node3&#45;&gt;Node6</title>
<path fill="none" stroke="midnightblue" d="M224.95,-67.48C232.83,-58.46 245.44,-44.02 255.24,-32.81"/>
<polygon fill="midnightblue" stroke="midnightblue" points="258.12,-34.84 262.06,-25.01 252.85,-30.24 258.12,-34.84"/>
</g>
<!-- Node7 -->
<g id="node7" class="node">
<title>Node7</title>
<g id="a_node7"><a xlink:title=" ">
<polygon fill="none" stroke="#bfbfbf" points="316.5,-6 316.5,-25 414.5,-25 414.5,-6 316.5,-6"/>
<text text-anchor="middle" x="365.5" y="-13" font-family="Helvetica,sans-Serif" font-size="10.00">spdlog/fmt/fmt.h</text>
</a>
</g>
</g>
<!-- Node3&#45;&gt;Node7 -->
<g id="edge6" class="edge">
<title>Node3&#45;&gt;Node7</title>
<path fill="none" stroke="midnightblue" d="M238.7,-67.48C263.87,-57.36 306.04,-40.4 334.78,-28.85"/>
<polygon fill="midnightblue" stroke="midnightblue" points="336.36,-31.99 344.33,-25.01 333.75,-25.49 336.36,-31.99"/>
</g>
</g>
</svg>
