<?xml version="1.0" encoding="UTF-8" standalone="no"?>
<!DOCTYPE svg PUBLIC "-//W3C//DTD SVG 1.1//EN"
 "http://www.w3.org/Graphics/SVG/1.1/DTD/svg11.dtd">
<!-- Generated by graphviz version 2.43.0 (0)
 -->
<!-- Title: OMSimHitManager.hh Pages: 1 -->
<svg width="1440pt" height="252pt"
 viewBox="0.00 0.00 1439.60 252.00" xmlns="http://www.w3.org/2000/svg" xmlns:xlink="http://www.w3.org/1999/xlink">
<g id="graph0" class="graph" transform="scale(1 1) rotate(0) translate(4 248)">
<title>OMSimHitManager.hh</title>
<!-- Node1 -->
<g id="node1" class="node">
<title>Node1</title>
<g id="a_node1"><a xlink:title="Defines structures and classes related to optical module photon hit management.">
<polygon fill="#bfbfbf" stroke="black" points="999.1,-224.5 999.1,-243.5 1122.1,-243.5 1122.1,-224.5 999.1,-224.5"/>
<text text-anchor="middle" x="1060.6" y="-231.5" font-family="Helvetica,sans-Serif" font-size="10.00">OMSimHitManager.hh</text>
</a>
</g>
</g>
<!-- Node2 -->
<g id="node2" class="node">
<title>Node2</title>
<g id="a_node2"><a xlink:href="_o_m_sim_run_action_8hh_source.html" target="_top" xlink:title=" ">
<polygon fill="none" stroke="black" points="408.6,-168.5 408.6,-187.5 524.6,-187.5 524.6,-168.5 408.6,-168.5"/>
<text text-anchor="middle" x="466.6" y="-175.5" font-family="Helvetica,sans-Serif" font-size="10.00">OMSimRunAction.hh</text>
</a>
</g>
</g>
<!-- Node1&#45;&gt;Node2 -->
<g id="edge1" class="edge">
<title>Node1&#45;&gt;Node2</title>
<path fill="none" stroke="midnightblue" d="M988.9,-226.48C870,-215.67 634.29,-194.24 524.9,-184.3"/>
<polygon fill="midnightblue" stroke="midnightblue" points="988.72,-229.98 999,-227.4 989.35,-223.01 988.72,-229.98"/>
</g>
<!-- Node6 -->
<g id="node6" class="node">
<title>Node6</title>
<g id="a_node6"><a xlink:href="_o_m_sim__radioactive__decays_8cc.html" target="_top" xlink:title="Main of the radioactive decay study.">
<polygon fill="none" stroke="black" points="641.1,-0.5 641.1,-19.5 806.1,-19.5 806.1,-0.5 641.1,-0.5"/>
<text text-anchor="middle" x="723.6" y="-7.5" font-family="Helvetica,sans-Serif" font-size="10.00">OMSim_radioactive_decays.cc</text>
</a>
</g>
</g>
<!-- Node1&#45;&gt;Node6 -->
<g id="edge29" class="edge">
<title>Node1&#45;&gt;Node6</title>
<path fill="none" stroke="midnightblue" d="M1059.22,-214.23C1055.79,-173.21 1045.48,-77.5 1022.6,-56 992.15,-27.38 883.88,-16.95 806.39,-13.16"/>
<polygon fill="midnightblue" stroke="midnightblue" points="1055.75,-214.76 1060.02,-224.45 1062.73,-214.21 1055.75,-214.76"/>
</g>
<!-- Node7 -->
<g id="node7" class="node">
<title>Node7</title>
<g id="a_node7"><a xlink:href="_o_m_sim_supernova_8cc.html" target="_top" xlink:title="Main of the supernova study.">
<polygon fill="none" stroke="black" points="958.1,-0.5 958.1,-19.5 1075.1,-19.5 1075.1,-0.5 958.1,-0.5"/>
<text text-anchor="middle" x="1016.6" y="-7.5" font-family="Helvetica,sans-Serif" font-size="10.00">OMSimSupernova.cc</text>
</a>
</g>
</g>
<!-- Node1&#45;&gt;Node7 -->
<g id="edge33" class="edge">
<title>Node1&#45;&gt;Node7</title>
<path fill="none" stroke="midnightblue" d="M1064.03,-214.44C1069.31,-181.3 1076.75,-110.33 1055.6,-56 1049.83,-41.16 1036.89,-27.89 1027.5,-19.67"/>
<polygon fill="midnightblue" stroke="midnightblue" points="1060.55,-214.05 1062.31,-224.49 1067.45,-215.23 1060.55,-214.05"/>
</g>
<!-- Node8 -->
<g id="node8" class="node">
<title>Node8</title>
<g id="a_node8"><a xlink:href="_o_m_sim_optical_module_8hh_source.html" target="_top" xlink:title=" ">
<polygon fill="none" stroke="black" points="647.1,-168.5 647.1,-187.5 784.1,-187.5 784.1,-168.5 647.1,-168.5"/>
<text text-anchor="middle" x="715.6" y="-175.5" font-family="Helvetica,sans-Serif" font-size="10.00">OMSimOpticalModule.hh</text>
</a>
</g>
</g>
<!-- Node1&#45;&gt;Node8 -->
<g id="edge7" class="edge">
<title>Node1&#45;&gt;Node8</title>
<path fill="none" stroke="midnightblue" d="M995.78,-222.85C930.6,-212.65 831.23,-197.1 770.02,-187.52"/>
<polygon fill="midnightblue" stroke="midnightblue" points="995.52,-226.35 1005.94,-224.44 996.6,-219.44 995.52,-226.35"/>
</g>
<!-- Node21 -->
<g id="node21" class="node">
<title>Node21</title>
<g id="a_node21"><a xlink:href="_o_m_sim_effective_area_analyisis_8hh_source.html" target="_top" xlink:title=" ">
<polygon fill="none" stroke="black" points="6.6,-168.5 6.6,-187.5 182.6,-187.5 182.6,-168.5 6.6,-168.5"/>
<text text-anchor="middle" x="94.6" y="-175.5" font-family="Helvetica,sans-Serif" font-size="10.00">OMSimEffectiveAreaAnalyisis.hh</text>
</a>
</g>
</g>
<!-- Node1&#45;&gt;Node21 -->
<g id="edge26" class="edge">
<title>Node1&#45;&gt;Node21</title>
<path fill="none" stroke="midnightblue" d="M989.03,-229C815.4,-219.29 372.25,-194.52 182.73,-183.93"/>
<polygon fill="midnightblue" stroke="midnightblue" points="988.9,-232.5 999.08,-229.56 989.29,-225.51 988.9,-232.5"/>
</g>
<!-- Node22 -->
<g id="node22" class="node">
<title>Node22</title>
<g id="a_node22"><a xlink:href="_o_m_sim_effi_cali_analyisis_8hh_source.html" target="_top" xlink:title=" ">
<polygon fill="none" stroke="black" points="1285.6,-168.5 1285.6,-187.5 1431.6,-187.5 1431.6,-168.5 1285.6,-168.5"/>
<text text-anchor="middle" x="1358.6" y="-175.5" font-family="Helvetica,sans-Serif" font-size="10.00">OMSimEffiCaliAnalyisis.hh</text>
</a>
</g>
</g>
<!-- Node1&#45;&gt;Node22 -->
<g id="edge28" class="edge">
<title>Node1&#45;&gt;Node22</title>
<path fill="none" stroke="midnightblue" d="M1117.99,-222.6C1174.31,-212.4 1259.17,-197.02 1311.61,-187.52"/>
<polygon fill="midnightblue" stroke="midnightblue" points="1117.04,-219.22 1107.82,-224.44 1118.29,-226.1 1117.04,-219.22"/>
</g>
<!-- Node23 -->
<g id="node23" class="node">
<title>Node23</title>
<g id="a_node23"><a xlink:href="_o_m_sim_s_n_analysis_8hh_source.html" target="_top" xlink:title=" ">
<polygon fill="none" stroke="black" points="1107.6,-168.5 1107.6,-187.5 1229.6,-187.5 1229.6,-168.5 1107.6,-168.5"/>
<text text-anchor="middle" x="1168.6" y="-175.5" font-family="Helvetica,sans-Serif" font-size="10.00">OMSimSNAnalysis.hh</text>
</a>
</g>
</g>
<!-- Node1&#45;&gt;Node23 -->
<g id="edge30" class="edge">
<title>Node1&#45;&gt;Node23</title>
<path fill="none" stroke="midnightblue" d="M1087.15,-219.73C1107.15,-209.73 1133.99,-196.31 1151.3,-187.65"/>
<polygon fill="midnightblue" stroke="midnightblue" points="1085.34,-216.72 1077.96,-224.32 1088.47,-222.98 1085.34,-216.72"/>
</g>
<!-- Node24 -->
<g id="node24" class="node">
<title>Node24</title>
<g id="a_node24"><a xlink:href="_o_m_sim_s_n_analysis_8cc.html" target="_top" xlink:title="Analyze data and write output files.">
<polygon fill="none" stroke="black" points="1184.6,-112.5 1184.6,-131.5 1304.6,-131.5 1304.6,-112.5 1184.6,-112.5"/>
<text text-anchor="middle" x="1244.6" y="-119.5" font-family="Helvetica,sans-Serif" font-size="10.00">OMSimSNAnalysis.cc</text>
</a>
</g>
</g>
<!-- Node1&#45;&gt;Node24 -->
<g id="edge34" class="edge">
<title>Node1&#45;&gt;Node24</title>
<path fill="none" stroke="midnightblue" d="M1132.07,-223.45C1175.22,-216.13 1224.52,-204.46 1238.6,-188 1252.16,-172.15 1249.33,-145.51 1246.66,-131.77"/>
<polygon fill="midnightblue" stroke="midnightblue" points="1131.42,-220.01 1122.11,-225.08 1132.55,-226.92 1131.42,-220.01"/>
</g>
<!-- Node3 -->
<g id="node3" class="node">
<title>Node3</title>
<g id="a_node3"><a xlink:href="_o_m_sim_8hh.html" target="_top" xlink:title="Main simulation class for the Optical Module (OM) simulation. This file defines the OMSim class,...">
<polygon fill="none" stroke="black" points="326.1,-56.5 326.1,-75.5 393.1,-75.5 393.1,-56.5 326.1,-56.5"/>
<text text-anchor="middle" x="359.6" y="-63.5" font-family="Helvetica,sans-Serif" font-size="10.00">OMSim.hh</text>
</a>
</g>
</g>
<!-- Node2&#45;&gt;Node3 -->
<g id="edge2" class="edge">
<title>Node2&#45;&gt;Node3</title>
<path fill="none" stroke="midnightblue" d="M398.24,-177.11C316.36,-175.61 186.34,-167.5 155.6,-132 149.79,-125.28 150.04,-118.93 155.6,-112 156.95,-110.33 268.09,-86.47 325.73,-74.19"/>
<polygon fill="midnightblue" stroke="midnightblue" points="398.42,-180.61 408.47,-177.26 398.53,-173.61 398.42,-180.61"/>
</g>
<!-- Node4 -->
<g id="node4" class="node">
<title>Node4</title>
<g id="a_node4"><a xlink:href="_o_m_sim_8cc.html" target="_top" xlink:title="Implementation of the OMSim class.">
<polygon fill="none" stroke="black" points="327.1,-0.5 327.1,-19.5 392.1,-19.5 392.1,-0.5 327.1,-0.5"/>
<text text-anchor="middle" x="359.6" y="-7.5" font-family="Helvetica,sans-Serif" font-size="10.00">OMSim.cc</text>
</a>
</g>
</g>
<!-- Node3&#45;&gt;Node4 -->
<g id="edge3" class="edge">
<title>Node3&#45;&gt;Node4</title>
<path fill="none" stroke="midnightblue" d="M359.6,-45.8C359.6,-36.91 359.6,-26.78 359.6,-19.75"/>
<polygon fill="midnightblue" stroke="midnightblue" points="356.11,-46.08 359.6,-56.08 363.11,-46.08 356.11,-46.08"/>
</g>
<!-- Node5 -->
<g id="node5" class="node">
<title>Node5</title>
<g id="a_node5"><a xlink:href="_o_m_sim__effective__area_8cc.html" target="_top" xlink:title="Main for the calculation of effective areas.">
<polygon fill="none" stroke="black" points="151.6,-0.5 151.6,-19.5 291.6,-19.5 291.6,-0.5 151.6,-0.5"/>
<text text-anchor="middle" x="221.6" y="-7.5" font-family="Helvetica,sans-Serif" font-size="10.00">OMSim_effective_area.cc</text>
</a>
</g>
</g>
<!-- Node3&#45;&gt;Node5 -->
<g id="edge4" class="edge">
<title>Node3&#45;&gt;Node5</title>
<path fill="none" stroke="midnightblue" d="M328.36,-52.77C302.43,-42.63 266.24,-28.47 243.37,-19.52"/>
<polygon fill="midnightblue" stroke="midnightblue" points="327.15,-56.06 337.74,-56.44 329.7,-49.54 327.15,-56.06"/>
</g>
<!-- Node3&#45;&gt;Node6 -->
<g id="edge5" class="edge">
<title>Node3&#45;&gt;Node6</title>
<path fill="none" stroke="midnightblue" d="M403.39,-55.78C494.13,-39.95 588.64,-27.37 651.75,-19.53"/>
<polygon fill="midnightblue" stroke="midnightblue" points="402.73,-52.34 393.49,-57.52 403.95,-59.23 402.73,-52.34"/>
</g>
<!-- Node3&#45;&gt;Node7 -->
<g id="edge6" class="edge">
<title>Node3&#45;&gt;Node7</title>
<path fill="none" stroke="midnightblue" d="M403.67,-55.92C525.83,-39.72 829.45,-21.55 957.9,-14.26"/>
<polygon fill="midnightblue" stroke="midnightblue" points="402.89,-52.49 393.46,-57.33 403.84,-59.42 402.89,-52.49"/>
</g>
<!-- Node9 -->
<g id="node9" class="node">
<title>Node9</title>
<g id="a_node9"><a xlink:href="_o_m_sim_d_e_g_g_8hh.html" target="_top" xlink:title="Construction of the DEGG class. From DOUMEKI.">
<polygon fill="none" stroke="black" points="284.1,-112.5 284.1,-131.5 379.1,-131.5 379.1,-112.5 284.1,-112.5"/>
<text text-anchor="middle" x="331.6" y="-119.5" font-family="Helvetica,sans-Serif" font-size="10.00">OMSimDEGG.hh</text>
</a>
</g>
</g>
<!-- Node8&#45;&gt;Node9 -->
<g id="edge8" class="edge">
<title>Node8&#45;&gt;Node9</title>
<path fill="none" stroke="midnightblue" d="M641.08,-167.17C574.76,-158.33 475.15,-144.79 388.6,-132 385.53,-131.55 382.37,-131.07 379.18,-130.58"/>
<polygon fill="midnightblue" stroke="midnightblue" points="640.65,-170.65 651.02,-168.5 641.57,-163.71 640.65,-170.65"/>
</g>
<!-- Node10 -->
<g id="node10" class="node">
<title>Node10</title>
<g id="a_node10"><a xlink:href="_o_m_sim_detector_construction_8hh_source.html" target="_top" xlink:title=" ">
<polygon fill="none" stroke="black" points="397.6,-112.5 397.6,-131.5 567.6,-131.5 567.6,-112.5 397.6,-112.5"/>
<text text-anchor="middle" x="482.6" y="-119.5" font-family="Helvetica,sans-Serif" font-size="10.00">OMSimDetectorConstruction.hh</text>
</a>
</g>
</g>
<!-- Node8&#45;&gt;Node10 -->
<g id="edge9" class="edge">
<title>Node8&#45;&gt;Node10</title>
<path fill="none" stroke="midnightblue" d="M668.8,-166.15C624.78,-155.95 559.76,-140.88 519.35,-131.52"/>
<polygon fill="midnightblue" stroke="midnightblue" points="668.15,-169.6 678.69,-168.44 669.73,-162.78 668.15,-169.6"/>
</g>
<!-- Node13 -->
<g id="node13" class="node">
<title>Node13</title>
<g id="a_node13"><a xlink:href="_o_m_sim_rad_decays_detector_8hh.html" target="_top" xlink:title="Defines the OMSimRadDecaysDetector class for the radioactive decays simulation.">
<polygon fill="none" stroke="black" points="572.1,-56.5 572.1,-75.5 735.1,-75.5 735.1,-56.5 572.1,-56.5"/>
<text text-anchor="middle" x="653.6" y="-63.5" font-family="Helvetica,sans-Serif" font-size="10.00">OMSimRadDecaysDetector.hh</text>
</a>
</g>
</g>
<!-- Node8&#45;&gt;Node13 -->
<g id="edge25" class="edge">
<title>Node8&#45;&gt;Node13</title>
<path fill="none" stroke="midnightblue" d="M712.63,-158.47C709.9,-144.93 704.96,-126.48 696.6,-112 688.18,-97.4 674.05,-83.88 664.31,-75.55"/>
<polygon fill="midnightblue" stroke="midnightblue" points="709.22,-159.27 714.44,-168.49 716.11,-158.03 709.22,-159.27"/>
</g>
<!-- Node15 -->
<g id="node15" class="node">
<title>Node15</title>
<g id="a_node15"><a xlink:href="_o_m_sim_l_o_m16_8hh.html" target="_top" xlink:title="Construction of LOM16.">
<polygon fill="none" stroke="black" points="586.1,-112.5 586.1,-131.5 687.1,-131.5 687.1,-112.5 586.1,-112.5"/>
<text text-anchor="middle" x="636.6" y="-119.5" font-family="Helvetica,sans-Serif" font-size="10.00">OMSimLOM16.hh</text>
</a>
</g>
</g>
<!-- Node8&#45;&gt;Node15 -->
<g id="edge18" class="edge">
<title>Node8&#45;&gt;Node15</title>
<path fill="none" stroke="midnightblue" d="M694.57,-162.62C680.14,-152.76 661.46,-139.99 649.27,-131.65"/>
<polygon fill="midnightblue" stroke="midnightblue" points="692.68,-165.57 702.91,-168.32 696.63,-159.79 692.68,-165.57"/>
</g>
<!-- Node16 -->
<g id="node16" class="node">
<title>Node16</title>
<g id="a_node16"><a xlink:href="_o_m_sim_l_o_m18_8hh.html" target="_top" xlink:title="Construction of LOM18.">
<polygon fill="none" stroke="black" points="165.1,-112.5 165.1,-131.5 266.1,-131.5 266.1,-112.5 165.1,-112.5"/>
<text text-anchor="middle" x="215.6" y="-119.5" font-family="Helvetica,sans-Serif" font-size="10.00">OMSimLOM18.hh</text>
</a>
</g>
</g>
<!-- Node8&#45;&gt;Node16 -->
<g id="edge19" class="edge">
<title>Node8&#45;&gt;Node16</title>
<path fill="none" stroke="midnightblue" d="M636.52,-170.12C548.16,-162.16 400.92,-148.07 274.6,-132 271.83,-131.65 268.98,-131.27 266.11,-130.87"/>
<polygon fill="midnightblue" stroke="midnightblue" points="636.46,-173.63 646.74,-171.04 637.09,-166.66 636.46,-173.63"/>
</g>
<!-- Node18 -->
<g id="node18" class="node">
<title>Node18</title>
<g id="a_node18"><a xlink:href="_o_m_sim_m_d_o_m_8hh.html" target="_top" xlink:title="Construction of mDOM.">
<polygon fill="none" stroke="black" points="743.6,-112.5 743.6,-131.5 843.6,-131.5 843.6,-112.5 743.6,-112.5"/>
<text text-anchor="middle" x="793.6" y="-119.5" font-family="Helvetica,sans-Serif" font-size="10.00">OMSimMDOM.hh</text>
</a>
</g>
</g>
<!-- Node8&#45;&gt;Node18 -->
<g id="edge21" class="edge">
<title>Node8&#45;&gt;Node18</title>
<path fill="none" stroke="midnightblue" d="M736.37,-162.62C750.62,-152.76 769.06,-139.99 781.1,-131.65"/>
<polygon fill="midnightblue" stroke="midnightblue" points="734.37,-159.75 728.14,-168.32 738.35,-165.51 734.37,-159.75"/>
</g>
<!-- Node19 -->
<g id="node19" class="node">
<title>Node19</title>
<g id="a_node19"><a xlink:href="_o_m_sim_p_d_o_m_8hh.html" target="_top" xlink:title="Implementation of the pDOM/Gen1 DOM class.">
<polygon fill="none" stroke="black" points="862.1,-112.5 862.1,-131.5 959.1,-131.5 959.1,-112.5 862.1,-112.5"/>
<text text-anchor="middle" x="910.6" y="-119.5" font-family="Helvetica,sans-Serif" font-size="10.00">OMSimPDOM.hh</text>
</a>
</g>
</g>
<!-- Node8&#45;&gt;Node19 -->
<g id="edge22" class="edge">
<title>Node8&#45;&gt;Node19</title>
<path fill="none" stroke="midnightblue" d="M756.42,-165.7C793.22,-155.51 846.53,-140.74 879.85,-131.52"/>
<polygon fill="midnightblue" stroke="midnightblue" points="755.21,-162.4 746.5,-168.44 757.07,-169.15 755.21,-162.4"/>
</g>
<!-- Node20 -->
<g id="node20" class="node">
<title>Node20</title>
<g id="a_node20"><a xlink:href="_o_m_sim_decays_g_p_s_8hh.html" target="_top" xlink:title="Defines the OMSimDecaysGPS class for the radioactive decays simulation.">
<polygon fill="none" stroke="black" points="753.6,-56.5 753.6,-75.5 875.6,-75.5 875.6,-56.5 753.6,-56.5"/>
<text text-anchor="middle" x="814.6" y="-63.5" font-family="Helvetica,sans-Serif" font-size="10.00">OMSimDecaysGPS.hh</text>
</a>
</g>
</g>
<!-- Node8&#45;&gt;Node20 -->
<g id="edge23" class="edge">
<title>Node8&#45;&gt;Node20</title>
<path fill="none" stroke="midnightblue" d="M794.49,-173.74C860.26,-169.17 946.64,-158.21 968.6,-132 974.31,-125.19 973.94,-119.11 968.6,-112 956.28,-95.56 907.04,-83.13 867.51,-75.54"/>
<polygon fill="midnightblue" stroke="midnightblue" points="793.87,-170.27 784.12,-174.42 794.33,-177.26 793.87,-170.27"/>
</g>
<!-- Node10&#45;&gt;Node3 -->
<g id="edge10" class="edge">
<title>Node10&#45;&gt;Node3</title>
<path fill="none" stroke="midnightblue" d="M453.83,-108.37C430.8,-98.26 399.12,-84.35 379,-75.52"/>
<polygon fill="midnightblue" stroke="midnightblue" points="452.55,-111.63 463.12,-112.44 455.37,-105.22 452.55,-111.63"/>
</g>
<!-- Node11 -->
<g id="node11" class="node">
<title>Node11</title>
<g id="a_node11"><a xlink:href="_o_m_sim_effective_area_detector_8hh.html" target="_top" xlink:title="Defines the OMSimEffectiveAreaDetector class for effective area simulation detector construction.">
<polygon fill="none" stroke="black" points="135.1,-56.5 135.1,-75.5 308.1,-75.5 308.1,-56.5 135.1,-56.5"/>
<text text-anchor="middle" x="221.6" y="-63.5" font-family="Helvetica,sans-Serif" font-size="10.00">OMSimEffectiveAreaDetector.hh</text>
</a>
</g>
</g>
<!-- Node10&#45;&gt;Node11 -->
<g id="edge11" class="edge">
<title>Node10&#45;&gt;Node11</title>
<path fill="none" stroke="midnightblue" d="M431.42,-110.41C382.09,-100.2 308.41,-84.96 262.77,-75.52"/>
<polygon fill="midnightblue" stroke="midnightblue" points="430.75,-113.84 441.25,-112.44 432.17,-106.99 430.75,-113.84"/>
</g>
<!-- Node12 -->
<g id="node12" class="node">
<title>Node12</title>
<g id="a_node12"><a xlink:href="_o_m_sim_effi_cali_detector_8hh_source.html" target="_top" xlink:title=" ">
<polygon fill="none" stroke="black" points="411.1,-56.5 411.1,-75.5 554.1,-75.5 554.1,-56.5 411.1,-56.5"/>
<text text-anchor="middle" x="482.6" y="-63.5" font-family="Helvetica,sans-Serif" font-size="10.00">OMSimEffiCaliDetector.hh</text>
</a>
</g>
</g>
<!-- Node10&#45;&gt;Node12 -->
<g id="edge13" class="edge">
<title>Node10&#45;&gt;Node12</title>
<path fill="none" stroke="midnightblue" d="M482.6,-101.8C482.6,-92.91 482.6,-82.78 482.6,-75.75"/>
<polygon fill="midnightblue" stroke="midnightblue" points="479.11,-102.08 482.6,-112.08 486.11,-102.08 479.11,-102.08"/>
</g>
<!-- Node10&#45;&gt;Node13 -->
<g id="edge14" class="edge">
<title>Node10&#45;&gt;Node13</title>
<path fill="none" stroke="midnightblue" d="M519.64,-109.3C551.86,-99.13 597.79,-84.62 626.64,-75.52"/>
<polygon fill="midnightblue" stroke="midnightblue" points="518.18,-106.09 509.7,-112.44 520.29,-112.77 518.18,-106.09"/>
</g>
<!-- Node14 -->
<g id="node14" class="node">
<title>Node14</title>
<g id="a_node14"><a xlink:href="_o_m_sim_s_ndetector_8hh_source.html" target="_top" xlink:title=" ">
<polygon fill="none" stroke="black" points="893.6,-56.5 893.6,-75.5 1013.6,-75.5 1013.6,-56.5 893.6,-56.5"/>
<text text-anchor="middle" x="953.6" y="-63.5" font-family="Helvetica,sans-Serif" font-size="10.00">OMSimSNdetector.hh</text>
</a>
</g>
</g>
<!-- Node10&#45;&gt;Node14 -->
<g id="edge16" class="edge">
<title>Node10&#45;&gt;Node14</title>
<path fill="none" stroke="midnightblue" d="M572.97,-111.36C654.48,-102.55 777.63,-88.96 884.6,-76 887.48,-75.65 890.43,-75.29 893.4,-74.92"/>
<polygon fill="midnightblue" stroke="midnightblue" points="572.31,-107.91 562.74,-112.46 573.06,-114.87 572.31,-107.91"/>
</g>
<!-- Node11&#45;&gt;Node5 -->
<g id="edge12" class="edge">
<title>Node11&#45;&gt;Node5</title>
<path fill="none" stroke="midnightblue" d="M221.6,-45.8C221.6,-36.91 221.6,-26.78 221.6,-19.75"/>
<polygon fill="midnightblue" stroke="midnightblue" points="218.11,-46.08 221.6,-56.08 225.11,-46.08 218.11,-46.08"/>
</g>
<!-- Node13&#45;&gt;Node6 -->
<g id="edge15" class="edge">
<title>Node13&#45;&gt;Node6</title>
<path fill="none" stroke="midnightblue" d="M672.92,-50.1C685.52,-40.38 701.53,-28.03 712.15,-19.83"/>
<polygon fill="midnightblue" stroke="midnightblue" points="670.63,-47.44 664.85,-56.32 674.91,-52.99 670.63,-47.44"/>
</g>
<!-- Node14&#45;&gt;Node7 -->
<g id="edge17" class="edge">
<title>Node14&#45;&gt;Node7</title>
<path fill="none" stroke="midnightblue" d="M971.64,-49.54C982.88,-39.91 996.92,-27.87 1006.3,-19.83"/>
<polygon fill="midnightblue" stroke="midnightblue" points="969.04,-47.16 963.73,-56.32 973.6,-52.47 969.04,-47.16"/>
</g>
<!-- Node17 -->
<g id="node17" class="node">
<title>Node17</title>
<g id="a_node17"><a xlink:href="_o_m_sim_l_o_m18_8cc.html" target="_top" xlink:title=" ">
<polygon fill="none" stroke="black" points="18.1,-56.5 18.1,-75.5 117.1,-75.5 117.1,-56.5 18.1,-56.5"/>
<text text-anchor="middle" x="67.6" y="-63.5" font-family="Helvetica,sans-Serif" font-size="10.00">OMSimLOM18.cc</text>
</a>
</g>
</g>
<!-- Node16&#45;&gt;Node17 -->
<g id="edge20" class="edge">
<title>Node16&#45;&gt;Node17</title>
<path fill="none" stroke="midnightblue" d="M182.46,-108.91C154.63,-98.75 115.59,-84.51 90.95,-75.52"/>
<polygon fill="midnightblue" stroke="midnightblue" points="181.56,-112.3 192.15,-112.44 183.96,-105.73 181.56,-112.3"/>
</g>
<!-- Node20&#45;&gt;Node6 -->
<g id="edge24" class="edge">
<title>Node20&#45;&gt;Node6</title>
<path fill="none" stroke="midnightblue" d="M791.31,-51.18C774.57,-41.24 752.5,-28.15 738.19,-19.65"/>
<polygon fill="midnightblue" stroke="midnightblue" points="789.6,-54.23 799.98,-56.32 793.17,-48.21 789.6,-54.23"/>
</g>
<!-- Node21&#45;&gt;Node5 -->
<g id="edge27" class="edge">
<title>Node21&#45;&gt;Node5</title>
<path fill="none" stroke="midnightblue" d="M71.23,-162.6C36.55,-139.49 -21.34,-92.94 8.6,-56 26.46,-33.98 96.52,-22.32 151.47,-16.43"/>
<polygon fill="midnightblue" stroke="midnightblue" points="69.59,-165.71 79.88,-168.22 73.4,-159.84 69.59,-165.71"/>
</g>
<!-- Node23&#45;&gt;Node7 -->
<g id="edge31" class="edge">
<title>Node23&#45;&gt;Node7</title>
<path fill="none" stroke="midnightblue" d="M1160.99,-159.25C1149.41,-133.89 1125.34,-86.92 1093.6,-56 1077.08,-39.9 1053.71,-27.3 1037.06,-19.57"/>
<polygon fill="midnightblue" stroke="midnightblue" points="1157.8,-160.68 1165.05,-168.41 1164.19,-157.85 1157.8,-160.68"/>
</g>
<!-- Node23&#45;&gt;Node24 -->
<g id="edge32" class="edge">
<title>Node23&#45;&gt;Node24</title>
<path fill="none" stroke="midnightblue" d="M1189.18,-162.38C1202.92,-152.62 1220.53,-140.11 1232.17,-131.83"/>
<polygon fill="midnightblue" stroke="midnightblue" points="1186.94,-159.68 1180.82,-168.32 1190.99,-165.38 1186.94,-159.68"/>
</g>
</g>
</svg>
