<?xml version="1.0" encoding="UTF-8" standalone="no"?>
<!DOCTYPE svg PUBLIC "-//W3C//DTD SVG 1.1//EN"
 "http://www.w3.org/Graphics/SVG/1.1/DTD/svg11.dtd">
<!-- Generated by graphviz version 2.43.0 (0)
 -->
<!-- Title: OMSimSNTools.hh Pages: 1 -->
<svg width="243pt" height="137pt"
 viewBox="0.00 0.00 242.50 137.00" xmlns="http://www.w3.org/2000/svg" xmlns:xlink="http://www.w3.org/1999/xlink">
<g id="graph0" class="graph" transform="scale(1 1) rotate(0) translate(4 133)">
<title>OMSimSNTools.hh</title>
<!-- Node1 -->
<g id="Node000001" class="node">
<title>Node1</title>
<g id="a_Node000001"><a xlink:title="Provides the definition for the OMSimSNTools class, centralizing utility methods for Supernova (SN) n...">
<polygon fill="#999999" stroke="#666666" points="145,-129 40,-129 40,-110 145,-110 145,-129"/>
<text text-anchor="middle" x="92.5" y="-117" font-family="Helvetica,sans-Serif" font-size="10.00">OMSimSNTools.hh</text>
</a>
</g>
</g>
<!-- Node2 -->
<g id="Node000002" class="node">
<title>Node2</title>
<g id="a_Node000002"><a xlink:href="supernova_2include_2_o_m_sim_primary_generator_action_8hh_source.html" target="_top" xlink:title=" ">
<polygon fill="white" stroke="#666666" points="185,-19 0,-19 0,0 185,0 185,-19"/>
<text text-anchor="middle" x="92.5" y="-7" font-family="Helvetica,sans-Serif" font-size="10.00">OMSimPrimaryGeneratorAction.hh</text>
</a>
</g>
</g>
<!-- Node1&#45;&gt;Node2 -->
<g id="edge1_Node000001_Node000002" class="edge">
<title>Node1&#45;&gt;Node2</title>
<g id="a_edge1_Node000001_Node000002"><a xlink:title=" ">
<path fill="none" stroke="#63b8ff" d="M74.86,-102.86C67.36,-95.04 59.44,-84.91 55.5,-74 47.87,-52.88 68.22,-30.79 81.68,-19.04"/>
<polygon fill="#63b8ff" stroke="#63b8ff" points="72.45,-105.4 82.06,-109.87 77.34,-100.39 72.45,-105.4"/>
</a>
</g>
</g>
<!-- Node3 -->
<g id="Node000003" class="node">
<title>Node3</title>
<g id="a_Node000003"><a xlink:href="_o_m_sim_s_n_particle_generators_8hh.html" target="_top" xlink:title="This file contains the classes in charge of particle generation.">
<polygon fill="white" stroke="#666666" points="234.5,-74 64.5,-74 64.5,-55 234.5,-55 234.5,-74"/>
<text text-anchor="middle" x="149.5" y="-62" font-family="Helvetica,sans-Serif" font-size="10.00">OMSimSNParticleGenerators.hh</text>
</a>
</g>
</g>
<!-- Node1&#45;&gt;Node3 -->
<g id="edge2_Node000001_Node000003" class="edge">
<title>Node1&#45;&gt;Node3</title>
<g id="a_edge2_Node000001_Node000003"><a xlink:title=" ">
<path fill="none" stroke="#63b8ff" d="M109.12,-103.04C119.23,-93.64 131.78,-81.98 140.18,-74.17"/>
<polygon fill="#63b8ff" stroke="#63b8ff" points="106.6,-100.61 101.66,-109.98 111.36,-105.74 106.6,-100.61"/>
</a>
</g>
</g>
<!-- Node3&#45;&gt;Node2 -->
<g id="edge3_Node000003_Node000002" class="edge">
<title>Node3&#45;&gt;Node2</title>
<g id="a_edge3_Node000003_Node000002"><a xlink:title=" ">
<path fill="none" stroke="#63b8ff" d="M132.88,-48.04C122.77,-38.64 110.22,-26.98 101.82,-19.17"/>
<polygon fill="#63b8ff" stroke="#63b8ff" points="130.64,-50.74 140.34,-54.98 135.4,-45.61 130.64,-50.74"/>
</a>
</g>
</g>
</g>
</svg>
