<?xml version="1.0" encoding="UTF-8" standalone="no"?>
<!DOCTYPE svg PUBLIC "-//W3C//DTD SVG 1.1//EN"
 "http://www.w3.org/Graphics/SVG/1.1/DTD/svg11.dtd">
<!-- Generated by graphviz version 2.43.0 (0)
 -->
<!-- Title: OMSimDetectorConstruction.cc Pages: 1 -->
<svg width="1249pt" height="442pt"
 viewBox="0.00 0.00 1248.50 442.00" xmlns="http://www.w3.org/2000/svg" xmlns:xlink="http://www.w3.org/1999/xlink">
<g id="graph0" class="graph" transform="scale(1 1) rotate(0) translate(4 438)">
<title>OMSimDetectorConstruction.cc</title>
<polygon fill="white" stroke="transparent" points="-4,4 -4,-438 1244.5,-438 1244.5,4 -4,4"/>
<!-- Node1 -->
<g id="node1" class="node">
<title>Node1</title>
<g id="a_node1"><a xlink:title=" ">
<polygon fill="#bfbfbf" stroke="black" points="582,-414.5 582,-433.5 751,-433.5 751,-414.5 582,-414.5"/>
<text text-anchor="middle" x="666.5" y="-421.5" font-family="Helvetica,sans-Serif" font-size="10.00">OMSimDetectorConstruction.cc</text>
</a>
</g>
</g>
<!-- Node2 -->
<g id="node2" class="node">
<title>Node2</title>
<g id="a_node2"><a xlink:href="_o_m_sim_detector_construction_8hh.html" target="_top" xlink:title=" ">
<polygon fill="white" stroke="black" points="98.5,-358.5 98.5,-377.5 268.5,-377.5 268.5,-358.5 98.5,-358.5"/>
<text text-anchor="middle" x="183.5" y="-365.5" font-family="Helvetica,sans-Serif" font-size="10.00">OMSimDetectorConstruction.hh</text>
</a>
</g>
</g>
<!-- Node1&#45;&gt;Node2 -->
<g id="edge1" class="edge">
<title>Node1&#45;&gt;Node2</title>
<path fill="none" stroke="midnightblue" d="M590.23,-414.47C503.12,-404.73 360.89,-388.83 269.79,-378.65"/>
<polygon fill="midnightblue" stroke="midnightblue" points="270.09,-375.16 259.76,-377.53 269.31,-382.12 270.09,-375.16"/>
</g>
<!-- Node6 -->
<g id="node6" class="node">
<title>Node6</title>
<g id="a_node6"><a xlink:href="_o_m_sim_logger_8hh.html" target="_top" xlink:title=" ">
<polygon fill="white" stroke="black" points="953,-73 953,-92 1052,-92 1052,-73 953,-73"/>
<text text-anchor="middle" x="1002.5" y="-80" font-family="Helvetica,sans-Serif" font-size="10.00">OMSimLogger.hh</text>
</a>
</g>
</g>
<!-- Node1&#45;&gt;Node6 -->
<g id="edge61" class="edge">
<title>Node1&#45;&gt;Node6</title>
<path fill="none" stroke="midnightblue" d="M736.53,-414.45C835,-400.45 1002.5,-368.47 1002.5,-313 1002.5,-313 1002.5,-313 1002.5,-199 1002.5,-164.86 1002.5,-125.05 1002.5,-102.21"/>
<polygon fill="midnightblue" stroke="midnightblue" points="1006,-102.19 1002.5,-92.19 999,-102.19 1006,-102.19"/>
</g>
<!-- Node18 -->
<g id="node18" class="node">
<title>Node18</title>
<g id="a_node18"><a xlink:href="_o_m_sim_hit_manager_8hh.html" target="_top" xlink:title="Defines structures and classes related to optical module photon hit management.">
<polygon fill="white" stroke="black" points="237,-246.5 237,-265.5 360,-265.5 360,-246.5 237,-246.5"/>
<text text-anchor="middle" x="298.5" y="-253.5" font-family="Helvetica,sans-Serif" font-size="10.00">OMSimHitManager.hh</text>
</a>
</g>
</g>
<!-- Node1&#45;&gt;Node18 -->
<g id="edge60" class="edge">
<title>Node1&#45;&gt;Node18</title>
<path fill="none" stroke="midnightblue" d="M581.72,-423.35C490.62,-421.83 353.95,-413.46 317.5,-378 290.03,-351.27 291.82,-302.2 295.29,-275.49"/>
<polygon fill="midnightblue" stroke="midnightblue" points="298.76,-275.96 296.8,-265.55 291.84,-274.91 298.76,-275.96"/>
</g>
<!-- Node31 -->
<g id="node31" class="node">
<title>Node31</title>
<g id="a_node31"><a xlink:href="_o_m_sim_p_d_o_m_8hh.html" target="_top" xlink:title="Implementation of the pDOM/Gen1 DOM class.">
<polygon fill="white" stroke="black" points="327,-358.5 327,-377.5 424,-377.5 424,-358.5 327,-358.5"/>
<text text-anchor="middle" x="375.5" y="-365.5" font-family="Helvetica,sans-Serif" font-size="10.00">OMSimPDOM.hh</text>
</a>
</g>
</g>
<!-- Node1&#45;&gt;Node31 -->
<g id="edge34" class="edge">
<title>Node1&#45;&gt;Node31</title>
<path fill="none" stroke="midnightblue" d="M620.39,-414.44C569.09,-404.92 486.23,-389.55 431.31,-379.36"/>
<polygon fill="midnightblue" stroke="midnightblue" points="431.86,-375.9 421.39,-377.52 430.59,-382.78 431.86,-375.9"/>
</g>
<!-- Node32 -->
<g id="node32" class="node">
<title>Node32</title>
<g id="a_node32"><a xlink:href="_o_m_sim_l_o_m16_8hh.html" target="_top" xlink:title="Construction of LOM16.">
<polygon fill="white" stroke="black" points="442,-358.5 442,-377.5 543,-377.5 543,-358.5 442,-358.5"/>
<text text-anchor="middle" x="492.5" y="-365.5" font-family="Helvetica,sans-Serif" font-size="10.00">OMSimLOM16.hh</text>
</a>
</g>
</g>
<!-- Node1&#45;&gt;Node32 -->
<g id="edge37" class="edge">
<title>Node1&#45;&gt;Node32</title>
<path fill="none" stroke="midnightblue" d="M638.93,-414.44C609.4,-405.28 562.38,-390.69 529.62,-380.52"/>
<polygon fill="midnightblue" stroke="midnightblue" points="530.53,-377.14 519.94,-377.52 528.46,-383.82 530.53,-377.14"/>
</g>
<!-- Node33 -->
<g id="node33" class="node">
<title>Node33</title>
<g id="a_node33"><a xlink:href="_o_m_sim_l_o_m18_8hh.html" target="_top" xlink:title="Construction of LOM18.">
<polygon fill="white" stroke="black" points="793,-358.5 793,-377.5 894,-377.5 894,-358.5 793,-358.5"/>
<text text-anchor="middle" x="843.5" y="-365.5" font-family="Helvetica,sans-Serif" font-size="10.00">OMSimLOM18.hh</text>
</a>
</g>
</g>
<!-- Node1&#45;&gt;Node33 -->
<g id="edge40" class="edge">
<title>Node1&#45;&gt;Node33</title>
<path fill="none" stroke="midnightblue" d="M694.55,-414.44C724.58,-405.28 772.41,-390.69 805.74,-380.52"/>
<polygon fill="midnightblue" stroke="midnightblue" points="807.04,-383.78 815.59,-377.52 805,-377.09 807.04,-383.78"/>
</g>
<!-- Node36 -->
<g id="node36" class="node">
<title>Node36</title>
<g id="a_node36"><a xlink:href="_o_m_sim_d_e_g_g_8hh.html" target="_top" xlink:title="Construction of the DEGG class.">
<polygon fill="white" stroke="black" points="561,-358.5 561,-377.5 656,-377.5 656,-358.5 561,-358.5"/>
<text text-anchor="middle" x="608.5" y="-365.5" font-family="Helvetica,sans-Serif" font-size="10.00">OMSimDEGG.hh</text>
</a>
</g>
</g>
<!-- Node1&#45;&gt;Node36 -->
<g id="edge45" class="edge">
<title>Node1&#45;&gt;Node36</title>
<path fill="none" stroke="midnightblue" d="M657.18,-414.32C648.61,-406.34 635.69,-394.31 625.31,-384.65"/>
<polygon fill="midnightblue" stroke="midnightblue" points="627.69,-382.09 617.99,-377.83 622.92,-387.21 627.69,-382.09"/>
</g>
<!-- Node37 -->
<g id="node37" class="node">
<title>Node37</title>
<g id="a_node37"><a xlink:href="_o_m_sim_m_d_o_m_8hh.html" target="_top" xlink:title="Construction of mDOM.">
<polygon fill="white" stroke="black" points="674.5,-358.5 674.5,-377.5 774.5,-377.5 774.5,-358.5 674.5,-358.5"/>
<text text-anchor="middle" x="724.5" y="-365.5" font-family="Helvetica,sans-Serif" font-size="10.00">OMSimMDOM.hh</text>
</a>
</g>
</g>
<!-- Node1&#45;&gt;Node37 -->
<g id="edge48" class="edge">
<title>Node1&#45;&gt;Node37</title>
<path fill="none" stroke="midnightblue" d="M675.82,-414.32C684.39,-406.34 697.31,-394.31 707.69,-384.65"/>
<polygon fill="midnightblue" stroke="midnightblue" points="710.08,-387.21 715.01,-377.83 705.31,-382.09 710.08,-387.21"/>
</g>
<!-- Node40 -->
<g id="node40" class="node">
<title>Node40</title>
<g id="a_node40"><a xlink:href="_o_m_sim_command_args_table_8hh.html" target="_top" xlink:title="Definition of the OMSimCommandArgsTable singleton class, which controls user args.">
<polygon fill="white" stroke="black" points="1030.5,-246.5 1030.5,-265.5 1194.5,-265.5 1194.5,-246.5 1030.5,-246.5"/>
<text text-anchor="middle" x="1112.5" y="-253.5" font-family="Helvetica,sans-Serif" font-size="10.00">OMSimCommandArgsTable.hh</text>
</a>
</g>
</g>
<!-- Node1&#45;&gt;Node40 -->
<g id="edge55" class="edge">
<title>Node1&#45;&gt;Node40</title>
<path fill="none" stroke="midnightblue" d="M751.05,-419.4C839.81,-414.36 972.49,-402.85 1016.5,-378 1059.36,-353.8 1090.11,-302.1 1104.08,-274.77"/>
<polygon fill="midnightblue" stroke="midnightblue" points="1107.32,-276.12 1108.61,-265.6 1101.04,-273.02 1107.32,-276.12"/>
</g>
<!-- Node43 -->
<g id="node43" class="node">
<title>Node43</title>
<g id="a_node43"><a xlink:title=" ">
<polygon fill="white" stroke="#bfbfbf" points="1069,-358.5 1069,-377.5 1170,-377.5 1170,-358.5 1069,-358.5"/>
<text text-anchor="middle" x="1119.5" y="-365.5" font-family="Helvetica,sans-Serif" font-size="10.00">G4SDManager.hh</text>
</a>
</g>
</g>
<!-- Node1&#45;&gt;Node43 -->
<g id="edge62" class="edge">
<title>Node1&#45;&gt;Node43</title>
<path fill="none" stroke="midnightblue" d="M744.23,-414.5C822.6,-405.8 947.04,-391.67 1054.5,-378 1055.8,-377.83 1057.12,-377.67 1058.45,-377.49"/>
<polygon fill="midnightblue" stroke="midnightblue" points="1059.31,-380.91 1068.77,-376.13 1058.4,-373.97 1059.31,-380.91"/>
</g>
<!-- Node3 -->
<g id="node3" class="node">
<title>Node3</title>
<g id="a_node3"><a xlink:href="_o_m_sim_optical_module_8hh.html" target="_top" xlink:title=" ">
<polygon fill="white" stroke="black" points="405,-302.5 405,-321.5 542,-321.5 542,-302.5 405,-302.5"/>
<text text-anchor="middle" x="473.5" y="-309.5" font-family="Helvetica,sans-Serif" font-size="10.00">OMSimOpticalModule.hh</text>
</a>
</g>
</g>
<!-- Node2&#45;&gt;Node3 -->
<g id="edge2" class="edge">
<title>Node2&#45;&gt;Node3</title>
<path fill="none" stroke="midnightblue" d="M229.45,-358.44C280.57,-348.92 363.15,-333.55 417.88,-323.36"/>
<polygon fill="midnightblue" stroke="midnightblue" points="418.57,-326.79 427.76,-321.52 417.29,-319.91 418.57,-326.79"/>
</g>
<!-- Node29 -->
<g id="node29" class="node">
<title>Node29</title>
<g id="a_node29"><a xlink:title=" ">
<polygon fill="white" stroke="#bfbfbf" points="12.5,-302.5 12.5,-321.5 74.5,-321.5 74.5,-302.5 12.5,-302.5"/>
<text text-anchor="middle" x="43.5" y="-309.5" font-family="Helvetica,sans-Serif" font-size="10.00">G4Orb.hh</text>
</a>
</g>
</g>
<!-- Node2&#45;&gt;Node29 -->
<g id="edge32" class="edge">
<title>Node2&#45;&gt;Node29</title>
<path fill="none" stroke="midnightblue" d="M161.32,-358.44C138.07,-349.48 101.35,-335.31 75.08,-325.18"/>
<polygon fill="midnightblue" stroke="midnightblue" points="76.17,-321.85 65.58,-321.52 73.65,-328.38 76.17,-321.85"/>
</g>
<!-- Node30 -->
<g id="node30" class="node">
<title>Node30</title>
<g id="a_node30"><a xlink:title=" ">
<polygon fill="white" stroke="#bfbfbf" points="92.5,-302.5 92.5,-321.5 270.5,-321.5 270.5,-302.5 92.5,-302.5"/>
<text text-anchor="middle" x="181.5" y="-309.5" font-family="Helvetica,sans-Serif" font-size="10.00">G4VUserDetectorConstruction.hh</text>
</a>
</g>
</g>
<!-- Node2&#45;&gt;Node30 -->
<g id="edge33" class="edge">
<title>Node2&#45;&gt;Node30</title>
<path fill="none" stroke="midnightblue" d="M183.17,-358.08C182.91,-351.01 182.53,-340.86 182.2,-331.99"/>
<polygon fill="midnightblue" stroke="midnightblue" points="185.69,-331.61 181.82,-321.75 178.7,-331.87 185.69,-331.61"/>
</g>
<!-- Node4 -->
<g id="node4" class="node">
<title>Node4</title>
<g id="a_node4"><a xlink:href="abc_detector_component_8hh.html" target="_top" xlink:title="Provides helper base class abcDetectorComponent for constructing and managing detector components in ...">
<polygon fill="white" stroke="black" points="505,-190.5 505,-209.5 652,-209.5 652,-190.5 505,-190.5"/>
<text text-anchor="middle" x="578.5" y="-197.5" font-family="Helvetica,sans-Serif" font-size="10.00">abcDetectorComponent.hh</text>
</a>
</g>
</g>
<!-- Node3&#45;&gt;Node4 -->
<g id="edge3" class="edge">
<title>Node3&#45;&gt;Node4</title>
<path fill="none" stroke="midnightblue" d="M473.26,-302.44C473.34,-289 475.32,-262.74 488.5,-246 500.63,-230.6 519.42,-220.05 536.7,-213.06"/>
<polygon fill="midnightblue" stroke="midnightblue" points="537.96,-216.33 546.09,-209.54 535.5,-209.78 537.96,-216.33"/>
</g>
<!-- Node3&#45;&gt;Node18 -->
<g id="edge17" class="edge">
<title>Node3&#45;&gt;Node18</title>
<path fill="none" stroke="midnightblue" d="M445.77,-302.44C416.07,-293.28 368.78,-278.69 335.83,-268.52"/>
<polygon fill="midnightblue" stroke="midnightblue" points="336.69,-265.12 326.1,-265.52 334.62,-271.81 336.69,-265.12"/>
</g>
<!-- Node26 -->
<g id="node26" class="node">
<title>Node26</title>
<g id="a_node26"><a xlink:href="_o_m_sim_p_m_t_construction_8hh.html" target="_top" xlink:title="Construction of the PMTs.">
<polygon fill="white" stroke="black" points="498,-246.5 498,-265.5 647,-265.5 647,-246.5 498,-246.5"/>
<text text-anchor="middle" x="572.5" y="-253.5" font-family="Helvetica,sans-Serif" font-size="10.00">OMSimPMTConstruction.hh</text>
</a>
</g>
</g>
<!-- Node3&#45;&gt;Node26 -->
<g id="edge26" class="edge">
<title>Node3&#45;&gt;Node26</title>
<path fill="none" stroke="midnightblue" d="M489.41,-302.32C505.14,-293.74 529.44,-280.49 547.71,-270.52"/>
<polygon fill="midnightblue" stroke="midnightblue" points="549.53,-273.52 556.63,-265.65 546.18,-267.37 549.53,-273.52"/>
</g>
<!-- Node5 -->
<g id="node5" class="node">
<title>Node5</title>
<g id="a_node5"><a xlink:href="_o_m_sim_input_data_8hh.html" target="_top" xlink:title="Definition of ParameterTable and InputDataManager.">
<polygon fill="white" stroke="black" points="461,-134.5 461,-153.5 576,-153.5 576,-134.5 461,-134.5"/>
<text text-anchor="middle" x="518.5" y="-141.5" font-family="Helvetica,sans-Serif" font-size="10.00">OMSimInputData.hh</text>
</a>
</g>
</g>
<!-- Node4&#45;&gt;Node5 -->
<g id="edge4" class="edge">
<title>Node4&#45;&gt;Node5</title>
<path fill="none" stroke="midnightblue" d="M568.86,-190.32C559.99,-182.34 546.63,-170.31 535.89,-160.65"/>
<polygon fill="midnightblue" stroke="midnightblue" points="538.09,-157.92 528.32,-153.83 533.41,-163.13 538.09,-157.92"/>
</g>
<!-- Node14 -->
<g id="node14" class="node">
<title>Node14</title>
<g id="a_node14"><a xlink:title=" ">
<polygon fill="white" stroke="#bfbfbf" points="336,-134.5 336,-153.5 443,-153.5 443,-134.5 336,-134.5"/>
<text text-anchor="middle" x="389.5" y="-141.5" font-family="Helvetica,sans-Serif" font-size="10.00">G4Transform3D.hh</text>
</a>
</g>
</g>
<!-- Node4&#45;&gt;Node14 -->
<g id="edge13" class="edge">
<title>Node4&#45;&gt;Node14</title>
<path fill="none" stroke="midnightblue" d="M548.55,-190.44C516.34,-181.24 464.97,-166.56 429.36,-156.39"/>
<polygon fill="midnightblue" stroke="midnightblue" points="429.88,-152.9 419.31,-153.52 427.96,-159.63 429.88,-152.9"/>
</g>
<!-- Node15 -->
<g id="node15" class="node">
<title>Node15</title>
<g id="a_node15"><a xlink:title=" ">
<polygon fill="white" stroke="#bfbfbf" points="594.5,-134.5 594.5,-153.5 702.5,-153.5 702.5,-134.5 594.5,-134.5"/>
<text text-anchor="middle" x="648.5" y="-141.5" font-family="Helvetica,sans-Serif" font-size="10.00">G4VisAttributes.hh</text>
</a>
</g>
</g>
<!-- Node4&#45;&gt;Node15 -->
<g id="edge14" class="edge">
<title>Node4&#45;&gt;Node15</title>
<path fill="none" stroke="midnightblue" d="M589.75,-190.32C600.3,-182.18 616.3,-169.84 628.94,-160.09"/>
<polygon fill="midnightblue" stroke="midnightblue" points="631.27,-162.71 637.05,-153.83 626.99,-157.17 631.27,-162.71"/>
</g>
<!-- Node16 -->
<g id="node16" class="node">
<title>Node16</title>
<g id="a_node16"><a xlink:title=" ">
<polygon fill="white" stroke="#bfbfbf" points="721,-134.5 721,-153.5 846,-153.5 846,-134.5 721,-134.5"/>
<text text-anchor="middle" x="783.5" y="-141.5" font-family="Helvetica,sans-Serif" font-size="10.00">G4SubtractionSolid.hh</text>
</a>
</g>
</g>
<!-- Node4&#45;&gt;Node16 -->
<g id="edge15" class="edge">
<title>Node4&#45;&gt;Node16</title>
<path fill="none" stroke="midnightblue" d="M610.98,-190.44C646.22,-181.16 702.6,-166.31 741.26,-156.13"/>
<polygon fill="midnightblue" stroke="midnightblue" points="742.39,-159.45 751.17,-153.52 740.61,-152.68 742.39,-159.45"/>
</g>
<!-- Node17 -->
<g id="node17" class="node">
<title>Node17</title>
<g id="a_node17"><a xlink:title=" ">
<polygon fill="white" stroke="#bfbfbf" points="864.5,-134.5 864.5,-153.5 974.5,-153.5 974.5,-134.5 864.5,-134.5"/>
<text text-anchor="middle" x="919.5" y="-141.5" font-family="Helvetica,sans-Serif" font-size="10.00">G4PVPlacement.hh</text>
</a>
</g>
</g>
<!-- Node4&#45;&gt;Node17 -->
<g id="edge16" class="edge">
<title>Node4&#45;&gt;Node17</title>
<path fill="none" stroke="midnightblue" d="M632.53,-190.44C693.14,-180.85 791.36,-165.29 855.7,-155.1"/>
<polygon fill="midnightblue" stroke="midnightblue" points="856.39,-158.54 865.72,-153.52 855.3,-151.62 856.39,-158.54"/>
</g>
<!-- Node5&#45;&gt;Node6 -->
<g id="edge5" class="edge">
<title>Node5&#45;&gt;Node6</title>
<path fill="none" stroke="midnightblue" d="M576.24,-135.2C579.37,-134.79 582.47,-134.39 585.5,-134 712.62,-117.77 861.72,-100.02 942.72,-90.49"/>
<polygon fill="midnightblue" stroke="midnightblue" points="943.2,-93.96 952.73,-89.32 942.39,-87.01 943.2,-93.96"/>
</g>
<!-- Node11 -->
<g id="node11" class="node">
<title>Node11</title>
<g id="a_node11"><a xlink:title=" ">
<polygon fill="white" stroke="#bfbfbf" points="520,-73 520,-92 663,-92 663,-73 520,-73"/>
<text text-anchor="middle" x="591.5" y="-80" font-family="Helvetica,sans-Serif" font-size="10.00">G4OpBoundaryProcess.hh</text>
</a>
</g>
</g>
<!-- Node5&#45;&gt;Node11 -->
<g id="edge10" class="edge">
<title>Node5&#45;&gt;Node11</title>
<path fill="none" stroke="midnightblue" d="M528.96,-134.48C540.45,-125.11 559.13,-109.88 573.09,-98.51"/>
<polygon fill="midnightblue" stroke="midnightblue" points="575.52,-101.04 581.06,-92.01 571.1,-95.61 575.52,-101.04"/>
</g>
<!-- Node12 -->
<g id="node12" class="node">
<title>Node12</title>
<g id="a_node12"><a xlink:title=" ">
<polygon fill="white" stroke="#bfbfbf" points="184,-73 184,-92 303,-92 303,-73 184,-73"/>
<text text-anchor="middle" x="243.5" y="-80" font-family="Helvetica,sans-Serif" font-size="10.00">G4SystemOfUnits.hh</text>
</a>
</g>
</g>
<!-- Node5&#45;&gt;Node12 -->
<g id="edge11" class="edge">
<title>Node5&#45;&gt;Node12</title>
<path fill="none" stroke="midnightblue" d="M479.1,-134.48C429.99,-123.85 346.03,-105.68 292.73,-94.15"/>
<polygon fill="midnightblue" stroke="midnightblue" points="293.34,-90.7 282.83,-92.01 291.86,-97.54 293.34,-90.7"/>
</g>
<!-- Node13 -->
<g id="node13" class="node">
<title>Node13</title>
<g id="a_node13"><a xlink:title=" ">
<polygon fill="white" stroke="#bfbfbf" points="389,-67.5 389,-97.5 502,-97.5 502,-67.5 389,-67.5"/>
<text text-anchor="start" x="397" y="-85.5" font-family="Helvetica,sans-Serif" font-size="10.00">boost/property_tree</text>
<text text-anchor="middle" x="445.5" y="-74.5" font-family="Helvetica,sans-Serif" font-size="10.00">/json_parser.hpp</text>
</a>
</g>
</g>
<!-- Node5&#45;&gt;Node13 -->
<g id="edge12" class="edge">
<title>Node5&#45;&gt;Node13</title>
<path fill="none" stroke="midnightblue" d="M508.04,-134.48C498.34,-126.57 483.51,-114.48 470.73,-104.07"/>
<polygon fill="midnightblue" stroke="midnightblue" points="472.67,-101.13 462.7,-97.52 468.24,-106.55 472.67,-101.13"/>
</g>
<!-- Node7 -->
<g id="node7" class="node">
<title>Node7</title>
<g id="a_node7"><a xlink:title=" ">
<polygon fill="white" stroke="#bfbfbf" points="784,-6 784,-25 877,-25 877,-6 784,-6"/>
<text text-anchor="middle" x="830.5" y="-13" font-family="Helvetica,sans-Serif" font-size="10.00">spdlog/spdlog.h</text>
</a>
</g>
</g>
<!-- Node6&#45;&gt;Node7 -->
<g id="edge6" class="edge">
<title>Node6&#45;&gt;Node7</title>
<path fill="none" stroke="midnightblue" d="M979.66,-72.87C949.63,-61.52 896.72,-41.52 862.66,-28.65"/>
<polygon fill="midnightblue" stroke="midnightblue" points="863.75,-25.32 853.16,-25.06 861.28,-31.87 863.75,-25.32"/>
</g>
<!-- Node8 -->
<g id="node8" class="node">
<title>Node8</title>
<g id="a_node8"><a xlink:title=" ">
<polygon fill="white" stroke="#bfbfbf" points="895,-0.5 895,-30.5 1006,-30.5 1006,-0.5 895,-0.5"/>
<text text-anchor="start" x="903" y="-18.5" font-family="Helvetica,sans-Serif" font-size="10.00">spdlog/sinks/stdout</text>
<text text-anchor="middle" x="950.5" y="-7.5" font-family="Helvetica,sans-Serif" font-size="10.00">_color_sinks.h</text>
</a>
</g>
</g>
<!-- Node6&#45;&gt;Node8 -->
<g id="edge7" class="edge">
<title>Node6&#45;&gt;Node8</title>
<path fill="none" stroke="midnightblue" d="M995.49,-72.73C988.53,-64.03 977.58,-50.34 968.22,-38.65"/>
<polygon fill="midnightblue" stroke="midnightblue" points="970.75,-36.21 961.77,-30.59 965.29,-40.58 970.75,-36.21"/>
</g>
<!-- Node9 -->
<g id="node9" class="node">
<title>Node9</title>
<g id="a_node9"><a xlink:title=" ">
<polygon fill="white" stroke="#bfbfbf" points="1024.5,-6 1024.5,-25 1082.5,-25 1082.5,-6 1024.5,-6"/>
<text text-anchor="middle" x="1053.5" y="-13" font-family="Helvetica,sans-Serif" font-size="10.00">memory</text>
</a>
</g>
</g>
<!-- Node6&#45;&gt;Node9 -->
<g id="edge8" class="edge">
<title>Node6&#45;&gt;Node9</title>
<path fill="none" stroke="midnightblue" d="M1009.38,-72.73C1017.33,-62.6 1030.6,-45.69 1040.51,-33.06"/>
<polygon fill="midnightblue" stroke="midnightblue" points="1043.31,-35.16 1046.73,-25.13 1037.8,-30.83 1043.31,-35.16"/>
</g>
<!-- Node10 -->
<g id="node10" class="node">
<title>Node10</title>
<g id="a_node10"><a xlink:title=" ">
<polygon fill="white" stroke="#bfbfbf" points="1100.5,-6 1100.5,-25 1198.5,-25 1198.5,-6 1100.5,-6"/>
<text text-anchor="middle" x="1149.5" y="-13" font-family="Helvetica,sans-Serif" font-size="10.00">spdlog/fmt/fmt.h</text>
</a>
</g>
</g>
<!-- Node6&#45;&gt;Node10 -->
<g id="edge9" class="edge">
<title>Node6&#45;&gt;Node10</title>
<path fill="none" stroke="midnightblue" d="M1022.02,-72.87C1047.28,-61.7 1091.5,-42.15 1120.64,-29.26"/>
<polygon fill="midnightblue" stroke="midnightblue" points="1122.17,-32.41 1129.9,-25.17 1119.34,-26.01 1122.17,-32.41"/>
</g>
<!-- Node19 -->
<g id="node19" class="node">
<title>Node19</title>
<g id="a_node19"><a xlink:href="_o_m_sim_p_m_t_response_8hh.html" target="_top" xlink:title="Provides simulation for PMT response. This class is responsible for transforming hits on photocathode...">
<polygon fill="white" stroke="black" points="186,-190.5 186,-209.5 321,-209.5 321,-190.5 186,-190.5"/>
<text text-anchor="middle" x="253.5" y="-197.5" font-family="Helvetica,sans-Serif" font-size="10.00">OMSimPMTResponse.hh</text>
</a>
</g>
</g>
<!-- Node18&#45;&gt;Node19 -->
<g id="edge18" class="edge">
<title>Node18&#45;&gt;Node19</title>
<path fill="none" stroke="midnightblue" d="M291.07,-246.08C284.65,-238.38 275.19,-227.03 267.38,-217.65"/>
<polygon fill="midnightblue" stroke="midnightblue" points="269.88,-215.19 260.79,-209.75 264.51,-219.67 269.88,-215.19"/>
</g>
<!-- Node24 -->
<g id="node24" class="node">
<title>Node24</title>
<g id="a_node24"><a xlink:title=" ">
<polygon fill="white" stroke="#bfbfbf" points="65,-190.5 65,-209.5 168,-209.5 168,-190.5 65,-190.5"/>
<text text-anchor="middle" x="116.5" y="-197.5" font-family="Helvetica,sans-Serif" font-size="10.00">G4ThreeVector.hh</text>
</a>
</g>
</g>
<!-- Node18&#45;&gt;Node24 -->
<g id="edge24" class="edge">
<title>Node18&#45;&gt;Node24</title>
<path fill="none" stroke="midnightblue" d="M269.66,-246.44C238.64,-237.24 189.17,-222.56 154.88,-212.39"/>
<polygon fill="midnightblue" stroke="midnightblue" points="155.79,-209.01 145.2,-209.52 153.79,-215.72 155.79,-209.01"/>
</g>
<!-- Node25 -->
<g id="node25" class="node">
<title>Node25</title>
<g id="a_node25"><a xlink:title=" ">
<polygon fill="white" stroke="#bfbfbf" points="904,-190.5 904,-209.5 959,-209.5 959,-190.5 904,-190.5"/>
<text text-anchor="middle" x="931.5" y="-197.5" font-family="Helvetica,sans-Serif" font-size="10.00">fstream</text>
</a>
</g>
</g>
<!-- Node18&#45;&gt;Node25 -->
<g id="edge25" class="edge">
<title>Node18&#45;&gt;Node25</title>
<path fill="none" stroke="midnightblue" d="M360.02,-251.28C489.6,-243.29 786.95,-224.07 887.5,-210 889.55,-209.71 891.65,-209.39 893.77,-209.04"/>
<polygon fill="midnightblue" stroke="midnightblue" points="894.44,-212.47 903.66,-207.24 893.2,-205.58 894.44,-212.47"/>
</g>
<!-- Node19&#45;&gt;Node12 -->
<g id="edge19" class="edge">
<title>Node19&#45;&gt;Node12</title>
<path fill="none" stroke="midnightblue" d="M185.88,-192.47C161.19,-186.43 135.63,-175.09 120.5,-154 99.05,-124.1 144.61,-105.08 186.22,-94.43"/>
<polygon fill="midnightblue" stroke="midnightblue" points="187.23,-97.78 196.12,-92.02 185.58,-90.98 187.23,-97.78"/>
</g>
<!-- Node20 -->
<g id="node20" class="node">
<title>Node20</title>
<g id="a_node20"><a xlink:title=" ">
<polygon fill="white" stroke="#bfbfbf" points="0,-134.5 0,-153.5 73,-153.5 73,-134.5 0,-134.5"/>
<text text-anchor="middle" x="36.5" y="-141.5" font-family="Helvetica,sans-Serif" font-size="10.00">G4Types.hh</text>
</a>
</g>
</g>
<!-- Node19&#45;&gt;Node20 -->
<g id="edge20" class="edge">
<title>Node19&#45;&gt;Node20</title>
<path fill="none" stroke="midnightblue" d="M219.12,-190.44C181.58,-181.1 121.37,-166.12 80.43,-155.93"/>
<polygon fill="midnightblue" stroke="midnightblue" points="81.27,-152.53 70.72,-153.52 79.58,-159.33 81.27,-152.53"/>
</g>
<!-- Node21 -->
<g id="node21" class="node">
<title>Node21</title>
<g id="a_node21"><a xlink:title=" ">
<polygon fill="white" stroke="#bfbfbf" points="129.5,-134.5 129.5,-153.5 167.5,-153.5 167.5,-134.5 129.5,-134.5"/>
<text text-anchor="middle" x="148.5" y="-141.5" font-family="Helvetica,sans-Serif" font-size="10.00">map</text>
</a>
</g>
</g>
<!-- Node19&#45;&gt;Node21 -->
<g id="edge21" class="edge">
<title>Node19&#45;&gt;Node21</title>
<path fill="none" stroke="midnightblue" d="M236.63,-190.32C219.79,-181.66 193.69,-168.24 174.26,-158.25"/>
<polygon fill="midnightblue" stroke="midnightblue" points="175.82,-155.12 165.33,-153.65 172.62,-161.34 175.82,-155.12"/>
</g>
<!-- Node22 -->
<g id="node22" class="node">
<title>Node22</title>
<g id="a_node22"><a xlink:title=" ">
<polygon fill="white" stroke="#bfbfbf" points="186,-134.5 186,-153.5 247,-153.5 247,-134.5 186,-134.5"/>
<text text-anchor="middle" x="216.5" y="-141.5" font-family="Helvetica,sans-Serif" font-size="10.00">TGraph.h</text>
</a>
</g>
</g>
<!-- Node19&#45;&gt;Node22 -->
<g id="edge22" class="edge">
<title>Node19&#45;&gt;Node22</title>
<path fill="none" stroke="midnightblue" d="M247.39,-190.08C242.22,-182.53 234.65,-171.49 228.31,-162.23"/>
<polygon fill="midnightblue" stroke="midnightblue" points="231.04,-160.02 222.5,-153.75 225.26,-163.98 231.04,-160.02"/>
</g>
<!-- Node23 -->
<g id="node23" class="node">
<title>Node23</title>
<g id="a_node23"><a xlink:title=" ">
<polygon fill="white" stroke="#bfbfbf" points="265,-134.5 265,-153.5 318,-153.5 318,-134.5 265,-134.5"/>
<text text-anchor="middle" x="291.5" y="-141.5" font-family="Helvetica,sans-Serif" font-size="10.00">TH2D.h</text>
</a>
</g>
</g>
<!-- Node19&#45;&gt;Node23 -->
<g id="edge23" class="edge">
<title>Node19&#45;&gt;Node23</title>
<path fill="none" stroke="midnightblue" d="M259.77,-190.08C265.14,-182.46 273.02,-171.26 279.58,-161.94"/>
<polygon fill="midnightblue" stroke="midnightblue" points="282.45,-163.94 285.34,-153.75 276.72,-159.91 282.45,-163.94"/>
</g>
<!-- Node26&#45;&gt;Node4 -->
<g id="edge27" class="edge">
<title>Node26&#45;&gt;Node4</title>
<path fill="none" stroke="midnightblue" d="M573.49,-246.08C574.29,-238.93 575.43,-228.64 576.42,-219.69"/>
<polygon fill="midnightblue" stroke="midnightblue" points="579.9,-220.08 577.53,-209.75 572.94,-219.3 579.9,-220.08"/>
</g>
<!-- Node26&#45;&gt;Node19 -->
<g id="edge29" class="edge">
<title>Node26&#45;&gt;Node19</title>
<path fill="none" stroke="midnightblue" d="M521.95,-246.44C465.49,-236.89 374.13,-221.42 313.93,-211.23"/>
<polygon fill="midnightblue" stroke="midnightblue" points="314.25,-207.73 303.81,-209.52 313.09,-214.64 314.25,-207.73"/>
</g>
<!-- Node26&#45;&gt;Node26 -->
<g id="edge28" class="edge">
<title>Node26&#45;&gt;Node26</title>
<path fill="none" stroke="midnightblue" d="M611.95,-265.53C638.76,-268.31 665,-265.13 665,-256 665,-248.01 644.91,-244.58 621.93,-245.71"/>
<polygon fill="midnightblue" stroke="midnightblue" points="621.65,-242.22 611.95,-246.47 622.19,-249.2 621.65,-242.22"/>
</g>
<!-- Node27 -->
<g id="node27" class="node">
<title>Node27</title>
<g id="a_node27"><a xlink:title=" ">
<polygon fill="white" stroke="#bfbfbf" points="670.5,-190.5 670.5,-209.5 768.5,-209.5 768.5,-190.5 670.5,-190.5"/>
<text text-anchor="middle" x="719.5" y="-197.5" font-family="Helvetica,sans-Serif" font-size="10.00">G4UnionSolid.hh</text>
</a>
</g>
</g>
<!-- Node26&#45;&gt;Node27 -->
<g id="edge30" class="edge">
<title>Node26&#45;&gt;Node27</title>
<path fill="none" stroke="midnightblue" d="M595.79,-246.44C620.31,-237.44 659.1,-223.19 686.7,-213.05"/>
<polygon fill="midnightblue" stroke="midnightblue" points="688.14,-216.25 696.32,-209.52 685.72,-209.68 688.14,-216.25"/>
</g>
<!-- Node28 -->
<g id="node28" class="node">
<title>Node28</title>
<g id="a_node28"><a xlink:title=" ">
<polygon fill="white" stroke="#bfbfbf" points="420,-190.5 420,-209.5 487,-209.5 487,-190.5 420,-190.5"/>
<text text-anchor="middle" x="453.5" y="-197.5" font-family="Helvetica,sans-Serif" font-size="10.00">G4Tubs.hh</text>
</a>
</g>
</g>
<!-- Node26&#45;&gt;Node28 -->
<g id="edge31" class="edge">
<title>Node26&#45;&gt;Node28</title>
<path fill="none" stroke="midnightblue" d="M553.64,-246.44C534.23,-237.64 503.77,-223.81 481.54,-213.72"/>
<polygon fill="midnightblue" stroke="midnightblue" points="482.82,-210.46 472.27,-209.52 479.93,-216.84 482.82,-210.46"/>
</g>
<!-- Node31&#45;&gt;Node3 -->
<g id="edge36" class="edge">
<title>Node31&#45;&gt;Node3</title>
<path fill="none" stroke="midnightblue" d="M391.25,-358.32C406.82,-349.74 430.88,-336.49 448.96,-326.52"/>
<polygon fill="midnightblue" stroke="midnightblue" points="450.72,-329.55 457.79,-321.65 447.35,-323.42 450.72,-329.55"/>
</g>
<!-- Node31&#45;&gt;Node26 -->
<g id="edge35" class="edge">
<title>Node31&#45;&gt;Node26</title>
<path fill="none" stroke="midnightblue" d="M375.6,-358.47C376.24,-344.59 379.59,-317.14 395.5,-302 420.17,-278.53 455.29,-266.83 487.75,-261.16"/>
<polygon fill="midnightblue" stroke="midnightblue" points="488.39,-264.6 497.72,-259.58 487.3,-257.68 488.39,-264.6"/>
</g>
<!-- Node32&#45;&gt;Node3 -->
<g id="edge39" class="edge">
<title>Node32&#45;&gt;Node3</title>
<path fill="none" stroke="midnightblue" d="M489.36,-358.08C486.82,-350.85 483.14,-340.41 479.97,-331.4"/>
<polygon fill="midnightblue" stroke="midnightblue" points="483.2,-330.02 476.58,-321.75 476.6,-332.35 483.2,-330.02"/>
</g>
<!-- Node32&#45;&gt;Node26 -->
<g id="edge38" class="edge">
<title>Node32&#45;&gt;Node26</title>
<path fill="none" stroke="midnightblue" d="M508.14,-358.41C521.17,-350.52 539.34,-337.68 550.5,-322 560.32,-308.2 566.02,-289.68 569.15,-275.94"/>
<polygon fill="midnightblue" stroke="midnightblue" points="572.66,-276.22 571.2,-265.73 565.8,-274.84 572.66,-276.22"/>
</g>
<!-- Node33&#45;&gt;Node3 -->
<g id="edge42" class="edge">
<title>Node33&#45;&gt;Node3</title>
<path fill="none" stroke="midnightblue" d="M792.76,-359.37C789.63,-358.91 786.52,-358.45 783.5,-358 700.81,-345.8 605.67,-332.03 542.84,-322.97"/>
<polygon fill="midnightblue" stroke="midnightblue" points="543.05,-319.46 532.65,-321.5 542.05,-326.39 543.05,-319.46"/>
</g>
<!-- Node33&#45;&gt;Node26 -->
<g id="edge41" class="edge">
<title>Node33&#45;&gt;Node26</title>
<path fill="none" stroke="midnightblue" d="M822.24,-358.37C774.45,-338.97 658.41,-291.87 602.97,-269.37"/>
<polygon fill="midnightblue" stroke="midnightblue" points="604.25,-266.11 593.67,-265.59 601.62,-272.6 604.25,-266.11"/>
</g>
<!-- Node34 -->
<g id="node34" class="node">
<title>Node34</title>
<g id="a_node34"><a xlink:title=" ">
<polygon fill="white" stroke="#bfbfbf" points="858.5,-302.5 858.5,-321.5 974.5,-321.5 974.5,-302.5 858.5,-302.5"/>
<text text-anchor="middle" x="916.5" y="-309.5" font-family="Helvetica,sans-Serif" font-size="10.00">G4LogicalVolume.hh</text>
</a>
</g>
</g>
<!-- Node33&#45;&gt;Node34 -->
<g id="edge43" class="edge">
<title>Node33&#45;&gt;Node34</title>
<path fill="none" stroke="midnightblue" d="M855.23,-358.32C866.34,-350.11 883.24,-337.6 896.48,-327.81"/>
<polygon fill="midnightblue" stroke="midnightblue" points="898.6,-330.59 904.56,-321.83 894.44,-324.97 898.6,-330.59"/>
</g>
<!-- Node35 -->
<g id="node35" class="node">
<title>Node35</title>
<g id="a_node35"><a xlink:title=" ">
<polygon fill="white" stroke="#bfbfbf" points="752,-302.5 752,-321.5 841,-321.5 841,-302.5 752,-302.5"/>
<text text-anchor="middle" x="796.5" y="-309.5" font-family="Helvetica,sans-Serif" font-size="10.00">G4Polycone.hh</text>
</a>
</g>
</g>
<!-- Node33&#45;&gt;Node35 -->
<g id="edge44" class="edge">
<title>Node33&#45;&gt;Node35</title>
<path fill="none" stroke="midnightblue" d="M835.74,-358.08C828.96,-350.3 818.96,-338.8 810.74,-329.37"/>
<polygon fill="midnightblue" stroke="midnightblue" points="813.32,-327 804.12,-321.75 808.04,-331.59 813.32,-327"/>
</g>
<!-- Node36&#45;&gt;Node3 -->
<g id="edge47" class="edge">
<title>Node36&#45;&gt;Node3</title>
<path fill="none" stroke="midnightblue" d="M587.11,-358.44C564.79,-349.52 529.6,-335.44 504.29,-325.32"/>
<polygon fill="midnightblue" stroke="midnightblue" points="505.38,-321.98 494.79,-321.52 502.78,-328.48 505.38,-321.98"/>
</g>
<!-- Node36&#45;&gt;Node26 -->
<g id="edge46" class="edge">
<title>Node36&#45;&gt;Node26</title>
<path fill="none" stroke="midnightblue" d="M605.68,-358.37C599.84,-340.54 586.34,-299.3 578.48,-275.27"/>
<polygon fill="midnightblue" stroke="midnightblue" points="581.75,-274.01 575.31,-265.59 575.1,-276.18 581.75,-274.01"/>
</g>
<!-- Node37&#45;&gt;Node3 -->
<g id="edge54" class="edge">
<title>Node37&#45;&gt;Node3</title>
<path fill="none" stroke="midnightblue" d="M684.73,-358.44C640.94,-349.02 570.49,-333.87 523.12,-323.68"/>
<polygon fill="midnightblue" stroke="midnightblue" points="523.6,-320.2 513.09,-321.52 522.13,-327.04 523.6,-320.2"/>
</g>
<!-- Node37&#45;&gt;Node26 -->
<g id="edge53" class="edge">
<title>Node37&#45;&gt;Node26</title>
<path fill="none" stroke="midnightblue" d="M712.57,-358.37C686.6,-339.57 624.69,-294.77 592.58,-271.53"/>
<polygon fill="midnightblue" stroke="midnightblue" points="594.52,-268.62 584.37,-265.59 590.42,-274.29 594.52,-268.62"/>
</g>
<!-- Node38 -->
<g id="node38" class="node">
<title>Node38</title>
<g id="a_node38"><a xlink:href="_o_m_sim_m_d_o_m_flasher_8hh.html" target="_top" xlink:title="Defines the mDOMFlasher class for simulating the 10 flashers in an mDOM optical module.">
<polygon fill="white" stroke="black" points="683,-246.5 683,-265.5 818,-265.5 818,-246.5 683,-246.5"/>
<text text-anchor="middle" x="750.5" y="-253.5" font-family="Helvetica,sans-Serif" font-size="10.00">OMSimMDOMFlasher.hh</text>
</a>
</g>
</g>
<!-- Node37&#45;&gt;Node38 -->
<g id="edge49" class="edge">
<title>Node37&#45;&gt;Node38</title>
<path fill="none" stroke="midnightblue" d="M726.54,-358.37C730.74,-340.62 740.42,-299.67 746.1,-275.6"/>
<polygon fill="midnightblue" stroke="midnightblue" points="749.58,-276.13 748.47,-265.59 742.76,-274.52 749.58,-276.13"/>
</g>
<!-- Node38&#45;&gt;Node4 -->
<g id="edge50" class="edge">
<title>Node38&#45;&gt;Node4</title>
<path fill="none" stroke="midnightblue" d="M723.25,-246.44C694.06,-237.28 647.58,-222.69 615.19,-212.52"/>
<polygon fill="midnightblue" stroke="midnightblue" points="616.22,-209.17 605.63,-209.52 614.12,-215.85 616.22,-209.17"/>
</g>
<!-- Node38&#45;&gt;Node27 -->
<g id="edge51" class="edge">
<title>Node38&#45;&gt;Node27</title>
<path fill="none" stroke="midnightblue" d="M745.38,-246.08C741.09,-238.61 734.84,-227.72 729.56,-218.52"/>
<polygon fill="midnightblue" stroke="midnightblue" points="732.54,-216.68 724.52,-209.75 726.47,-220.17 732.54,-216.68"/>
</g>
<!-- Node39 -->
<g id="node39" class="node">
<title>Node39</title>
<g id="a_node39"><a xlink:title=" ">
<polygon fill="white" stroke="#bfbfbf" points="786.5,-190.5 786.5,-209.5 878.5,-209.5 878.5,-190.5 786.5,-190.5"/>
<text text-anchor="middle" x="832.5" y="-197.5" font-family="Helvetica,sans-Serif" font-size="10.00">G4Navigator.hh</text>
</a>
</g>
</g>
<!-- Node38&#45;&gt;Node39 -->
<g id="edge52" class="edge">
<title>Node38&#45;&gt;Node39</title>
<path fill="none" stroke="midnightblue" d="M763.67,-246.32C776.35,-237.98 795.73,-225.21 810.71,-215.35"/>
<polygon fill="midnightblue" stroke="midnightblue" points="812.93,-218.08 819.36,-209.65 809.08,-212.23 812.93,-218.08"/>
</g>
<!-- Node40&#45;&gt;Node6 -->
<g id="edge56" class="edge">
<title>Node40&#45;&gt;Node6</title>
<path fill="none" stroke="midnightblue" d="M1099.85,-246.2C1088.63,-237.89 1072.39,-224.56 1061.5,-210 1035.59,-175.36 1017.13,-127.52 1008.33,-101.74"/>
<polygon fill="midnightblue" stroke="midnightblue" points="1011.61,-100.53 1005.15,-92.14 1004.97,-102.73 1011.61,-100.53"/>
</g>
<!-- Node40&#45;&gt;Node25 -->
<g id="edge57" class="edge">
<title>Node40&#45;&gt;Node25</title>
<path fill="none" stroke="midnightblue" d="M1083.82,-246.44C1052.7,-237.16 1002.9,-222.3 968.77,-212.12"/>
<polygon fill="midnightblue" stroke="midnightblue" points="969.74,-208.76 959.16,-209.25 967.74,-215.46 969.74,-208.76"/>
</g>
<!-- Node41 -->
<g id="node41" class="node">
<title>Node41</title>
<g id="a_node41"><a xlink:title=" ">
<polygon fill="white" stroke="#bfbfbf" points="1070.5,-190.5 1070.5,-209.5 1154.5,-209.5 1154.5,-190.5 1070.5,-190.5"/>
<text text-anchor="middle" x="1112.5" y="-197.5" font-family="Helvetica,sans-Serif" font-size="10.00">boost/any.hpp</text>
</a>
</g>
</g>
<!-- Node40&#45;&gt;Node41 -->
<g id="edge58" class="edge">
<title>Node40&#45;&gt;Node41</title>
<path fill="none" stroke="midnightblue" d="M1112.5,-246.08C1112.5,-239.01 1112.5,-228.86 1112.5,-219.99"/>
<polygon fill="midnightblue" stroke="midnightblue" points="1116,-219.75 1112.5,-209.75 1109,-219.75 1116,-219.75"/>
</g>
<!-- Node42 -->
<g id="node42" class="node">
<title>Node42</title>
<g id="a_node42"><a xlink:title=" ">
<polygon fill="white" stroke="#bfbfbf" points="1172.5,-190.5 1172.5,-209.5 1240.5,-209.5 1240.5,-190.5 1172.5,-190.5"/>
<text text-anchor="middle" x="1206.5" y="-197.5" font-family="Helvetica,sans-Serif" font-size="10.00">sys/time.h</text>
</a>
</g>
</g>
<!-- Node40&#45;&gt;Node42 -->
<g id="edge59" class="edge">
<title>Node40&#45;&gt;Node42</title>
<path fill="none" stroke="midnightblue" d="M1127.6,-246.32C1142.4,-237.82 1165.19,-224.73 1182.48,-214.8"/>
<polygon fill="midnightblue" stroke="midnightblue" points="1184.51,-217.67 1191.43,-209.65 1181.02,-211.6 1184.51,-217.67"/>
</g>
</g>
</svg>
