<?xml version="1.0" encoding="UTF-8" standalone="no"?>
<!DOCTYPE svg PUBLIC "-//W3C//DTD SVG 1.1//EN"
 "http://www.w3.org/Graphics/SVG/1.1/DTD/svg11.dtd">
<!-- Generated by graphviz version 2.43.0 (0)
 -->
<!-- Title: OMSimRadDecaysDetector.cc Pages: 1 -->
<svg width="1465pt" height="431pt"
 viewBox="0.00 0.00 1464.50 431.00" xmlns="http://www.w3.org/2000/svg" xmlns:xlink="http://www.w3.org/1999/xlink">
<g id="graph0" class="graph" transform="scale(1 1) rotate(0) translate(4 427)">
<title>OMSimRadDecaysDetector.cc</title>
<polygon fill="white" stroke="transparent" points="-4,4 -4,-427 1460.5,-427 1460.5,4 -4,4"/>
<!-- Node1 -->
<g id="node1" class="node">
<title>Node1</title>
<g id="a_node1"><a xlink:title=" ">
<polygon fill="#bfbfbf" stroke="black" points="741.5,-403.5 741.5,-422.5 902.5,-422.5 902.5,-403.5 741.5,-403.5"/>
<text text-anchor="middle" x="822" y="-410.5" font-family="Helvetica,sans-Serif" font-size="10.00">OMSimRadDecaysDetector.cc</text>
</a>
</g>
</g>
<!-- Node2 -->
<g id="node2" class="node">
<title>Node2</title>
<g id="a_node2"><a xlink:href="_o_m_sim_rad_decays_detector_8hh.html" target="_top" xlink:title="Defines the OMSimRadDecaysDetector class for the radioactive decays simulation.">
<polygon fill="white" stroke="black" points="202.5,-347.5 202.5,-366.5 365.5,-366.5 365.5,-347.5 202.5,-347.5"/>
<text text-anchor="middle" x="284" y="-354.5" font-family="Helvetica,sans-Serif" font-size="10.00">OMSimRadDecaysDetector.hh</text>
</a>
</g>
</g>
<!-- Node1&#45;&gt;Node2 -->
<g id="edge1" class="edge">
<title>Node1&#45;&gt;Node2</title>
<path fill="none" stroke="midnightblue" d="M741.46,-403.92C643.44,-394.08 478.35,-377.51 375.59,-367.19"/>
<polygon fill="midnightblue" stroke="midnightblue" points="375.84,-363.7 365.54,-366.18 375.14,-370.67 375.84,-363.7"/>
</g>
<!-- Node13 -->
<g id="node13" class="node">
<title>Node13</title>
<g id="a_node13"><a xlink:href="_o_m_sim_hit_manager_8hh.html" target="_top" xlink:title="Defines structures and classes related to optical module photon hit management.">
<polygon fill="white" stroke="black" points="917.5,-179.5 917.5,-198.5 1040.5,-198.5 1040.5,-179.5 917.5,-179.5"/>
<text text-anchor="middle" x="979" y="-186.5" font-family="Helvetica,sans-Serif" font-size="10.00">OMSimHitManager.hh</text>
</a>
</g>
</g>
<!-- Node1&#45;&gt;Node13 -->
<g id="edge61" class="edge">
<title>Node1&#45;&gt;Node13</title>
<path fill="none" stroke="midnightblue" d="M833.48,-403.27C860.93,-381.64 930.3,-322.41 960,-255 966.67,-239.87 971.74,-221.75 974.96,-208.49"/>
<polygon fill="midnightblue" stroke="midnightblue" points="978.39,-209.19 977.23,-198.66 971.57,-207.62 978.39,-209.19"/>
</g>
<!-- Node27 -->
<g id="node27" class="node">
<title>Node27</title>
<g id="a_node27"><a xlink:href="_o_m_sim_m_d_o_m_8hh.html" target="_top" xlink:title="Construction of mDOM.">
<polygon fill="white" stroke="black" points="312,-291.5 312,-310.5 412,-310.5 412,-291.5 312,-291.5"/>
<text text-anchor="middle" x="362" y="-298.5" font-family="Helvetica,sans-Serif" font-size="10.00">OMSimMDOM.hh</text>
</a>
</g>
</g>
<!-- Node1&#45;&gt;Node27 -->
<g id="edge33" class="edge">
<title>Node1&#45;&gt;Node27</title>
<path fill="none" stroke="midnightblue" d="M786.29,-403.46C703.58,-383.68 498.99,-334.76 407.49,-312.88"/>
<polygon fill="midnightblue" stroke="midnightblue" points="408.23,-309.46 397.69,-310.53 406.6,-316.26 408.23,-309.46"/>
</g>
<!-- Node30 -->
<g id="node30" class="node">
<title>Node30</title>
<g id="a_node30"><a xlink:href="_o_m_sim_p_d_o_m_8hh.html" target="_top" xlink:title="Implementation of the pDOM/Gen1 DOM class.">
<polygon fill="white" stroke="black" points="468.5,-291.5 468.5,-310.5 565.5,-310.5 565.5,-291.5 468.5,-291.5"/>
<text text-anchor="middle" x="517" y="-298.5" font-family="Helvetica,sans-Serif" font-size="10.00">OMSimPDOM.hh</text>
</a>
</g>
</g>
<!-- Node1&#45;&gt;Node30 -->
<g id="edge40" class="edge">
<title>Node1&#45;&gt;Node30</title>
<path fill="none" stroke="midnightblue" d="M798.32,-403.46C744.49,-384.05 612.8,-336.55 550.59,-314.12"/>
<polygon fill="midnightblue" stroke="midnightblue" points="551.47,-310.71 540.87,-310.61 549.09,-317.3 551.47,-310.71"/>
</g>
<!-- Node31 -->
<g id="node31" class="node">
<title>Node31</title>
<g id="a_node31"><a xlink:href="_o_m_sim_l_o_m16_8hh.html" target="_top" xlink:title="Construction of LOM16.">
<polygon fill="white" stroke="black" points="583.5,-291.5 583.5,-310.5 684.5,-310.5 684.5,-291.5 583.5,-291.5"/>
<text text-anchor="middle" x="634" y="-298.5" font-family="Helvetica,sans-Serif" font-size="10.00">OMSimLOM16.hh</text>
</a>
</g>
</g>
<!-- Node1&#45;&gt;Node31 -->
<g id="edge43" class="edge">
<title>Node1&#45;&gt;Node31</title>
<path fill="none" stroke="midnightblue" d="M807.25,-403.37C774.71,-384.33 696.58,-338.62 657.33,-315.65"/>
<polygon fill="midnightblue" stroke="midnightblue" points="659.08,-312.62 648.68,-310.59 655.55,-318.66 659.08,-312.62"/>
</g>
<!-- Node32 -->
<g id="node32" class="node">
<title>Node32</title>
<g id="a_node32"><a xlink:href="_o_m_sim_l_o_m18_8hh.html" target="_top" xlink:title="Construction of LOM18.">
<polygon fill="white" stroke="black" points="815.5,-291.5 815.5,-310.5 916.5,-310.5 916.5,-291.5 815.5,-291.5"/>
<text text-anchor="middle" x="866" y="-298.5" font-family="Helvetica,sans-Serif" font-size="10.00">OMSimLOM18.hh</text>
</a>
</g>
</g>
<!-- Node1&#45;&gt;Node32 -->
<g id="edge46" class="edge">
<title>Node1&#45;&gt;Node32</title>
<path fill="none" stroke="midnightblue" d="M825.45,-403.37C832.62,-385.46 849.23,-343.92 858.82,-319.95"/>
<polygon fill="midnightblue" stroke="midnightblue" points="862.1,-321.18 862.56,-310.59 855.6,-318.58 862.1,-321.18"/>
</g>
<!-- Node35 -->
<g id="node35" class="node">
<title>Node35</title>
<g id="a_node35"><a xlink:href="_o_m_sim_d_e_g_g_8hh.html" target="_top" xlink:title="Construction of the DEGG class.">
<polygon fill="white" stroke="black" points="702.5,-291.5 702.5,-310.5 797.5,-310.5 797.5,-291.5 702.5,-291.5"/>
<text text-anchor="middle" x="750" y="-298.5" font-family="Helvetica,sans-Serif" font-size="10.00">OMSimDEGG.hh</text>
</a>
</g>
</g>
<!-- Node1&#45;&gt;Node35 -->
<g id="edge51" class="edge">
<title>Node1&#45;&gt;Node35</title>
<path fill="none" stroke="midnightblue" d="M816.35,-403.37C804.47,-385.22 776.71,-342.8 761.12,-318.99"/>
<polygon fill="midnightblue" stroke="midnightblue" points="764.03,-317.04 755.62,-310.59 758.17,-320.88 764.03,-317.04"/>
</g>
<!-- Node36 -->
<g id="node36" class="node">
<title>Node36</title>
<g id="a_node36"><a xlink:href="_o_m_sim_command_args_table_8hh.html" target="_top" xlink:title="Definition of the OMSimCommandArgsTable singleton class, which controls user args.">
<polygon fill="white" stroke="black" points="1003,-347.5 1003,-366.5 1167,-366.5 1167,-347.5 1003,-347.5"/>
<text text-anchor="middle" x="1085" y="-354.5" font-family="Helvetica,sans-Serif" font-size="10.00">OMSimCommandArgsTable.hh</text>
</a>
</g>
</g>
<!-- Node1&#45;&gt;Node36 -->
<g id="edge54" class="edge">
<title>Node1&#45;&gt;Node36</title>
<path fill="none" stroke="midnightblue" d="M863.67,-403.44C909.75,-393.98 984,-378.74 1033.63,-368.55"/>
<polygon fill="midnightblue" stroke="midnightblue" points="1034.43,-371.96 1043.52,-366.52 1033.02,-365.1 1034.43,-371.96"/>
</g>
<!-- Node42 -->
<g id="node42" class="node">
<title>Node42</title>
<g id="a_node42"><a xlink:title=" ">
<polygon fill="white" stroke="#bfbfbf" points="1355.5,-347.5 1355.5,-366.5 1456.5,-366.5 1456.5,-347.5 1355.5,-347.5"/>
<text text-anchor="middle" x="1406" y="-354.5" font-family="Helvetica,sans-Serif" font-size="10.00">G4SDManager.hh</text>
</a>
</g>
</g>
<!-- Node1&#45;&gt;Node42 -->
<g id="edge62" class="edge">
<title>Node1&#45;&gt;Node42</title>
<path fill="none" stroke="midnightblue" d="M902.59,-406.3C1004.74,-398.77 1186.19,-384.42 1341,-367 1342.31,-366.85 1343.63,-366.7 1344.96,-366.55"/>
<polygon fill="midnightblue" stroke="midnightblue" points="1345.79,-369.97 1355.29,-365.28 1344.94,-363.02 1345.79,-369.97"/>
</g>
<!-- Node43 -->
<g id="node43" class="node">
<title>Node43</title>
<g id="a_node43"><a xlink:href="_o_m_sim_sensitive_detector_8hh.html" target="_top" xlink:title=" ">
<polygon fill="white" stroke="black" points="1114.5,-179.5 1114.5,-198.5 1267.5,-198.5 1267.5,-179.5 1114.5,-179.5"/>
<text text-anchor="middle" x="1191" y="-186.5" font-family="Helvetica,sans-Serif" font-size="10.00">OMSimSensitiveDetector.hh</text>
</a>
</g>
</g>
<!-- Node1&#45;&gt;Node43 -->
<g id="edge63" class="edge">
<title>Node1&#45;&gt;Node43</title>
<path fill="none" stroke="midnightblue" d="M902.75,-408.37C1029.15,-400.68 1263.94,-377.56 1308,-311 1319.55,-293.55 1308.86,-251.62 1295,-235 1281.58,-218.91 1261.32,-208.42 1242.24,-201.65"/>
<polygon fill="midnightblue" stroke="midnightblue" points="1243.3,-198.32 1232.71,-198.53 1241.13,-204.97 1243.3,-198.32"/>
</g>
<!-- Node3 -->
<g id="node3" class="node">
<title>Node3</title>
<g id="a_node3"><a xlink:href="_o_m_sim_optical_module_8hh.html" target="_top" xlink:title=" ">
<polygon fill="white" stroke="black" points="457.5,-235.5 457.5,-254.5 594.5,-254.5 594.5,-235.5 457.5,-235.5"/>
<text text-anchor="middle" x="526" y="-242.5" font-family="Helvetica,sans-Serif" font-size="10.00">OMSimOpticalModule.hh</text>
</a>
</g>
</g>
<!-- Node2&#45;&gt;Node3 -->
<g id="edge2" class="edge">
<title>Node2&#45;&gt;Node3</title>
<path fill="none" stroke="midnightblue" d="M317.22,-347.48C345.5,-339.66 386.84,-326.91 421,-311 452.15,-296.49 485.45,-274.67 506,-260.38"/>
<polygon fill="midnightblue" stroke="midnightblue" points="508.08,-263.2 514.24,-254.58 504.05,-257.48 508.08,-263.2"/>
</g>
<!-- Node4 -->
<g id="node4" class="node">
<title>Node4</title>
<g id="a_node4"><a xlink:href="abc_detector_component_8hh.html" target="_top" xlink:title="Provides helper base class abcDetectorComponent for constructing and managing detector components in ...">
<polygon fill="white" stroke="black" points="367.5,-123.5 367.5,-142.5 514.5,-142.5 514.5,-123.5 367.5,-123.5"/>
<text text-anchor="middle" x="441" y="-130.5" font-family="Helvetica,sans-Serif" font-size="10.00">abcDetectorComponent.hh</text>
</a>
</g>
</g>
<!-- Node2&#45;&gt;Node4 -->
<g id="edge27" class="edge">
<title>Node2&#45;&gt;Node4</title>
<path fill="none" stroke="midnightblue" d="M282.32,-347.4C277.37,-319.48 265.78,-230.2 308,-179 321.59,-162.52 341.46,-152.05 361.72,-145.41"/>
<polygon fill="midnightblue" stroke="midnightblue" points="362.77,-148.75 371.35,-142.53 360.76,-142.04 362.77,-148.75"/>
</g>
<!-- Node24 -->
<g id="node24" class="node">
<title>Node24</title>
<g id="a_node24"><a xlink:href="_o_m_sim_detector_construction_8hh.html" target="_top" xlink:title=" ">
<polygon fill="white" stroke="black" points="85,-291.5 85,-310.5 255,-310.5 255,-291.5 85,-291.5"/>
<text text-anchor="middle" x="170" y="-298.5" font-family="Helvetica,sans-Serif" font-size="10.00">OMSimDetectorConstruction.hh</text>
</a>
</g>
</g>
<!-- Node2&#45;&gt;Node24 -->
<g id="edge28" class="edge">
<title>Node2&#45;&gt;Node24</title>
<path fill="none" stroke="midnightblue" d="M265.94,-347.44C247.43,-338.68 218.42,-324.94 197.14,-314.86"/>
<polygon fill="midnightblue" stroke="midnightblue" points="198.51,-311.63 187.98,-310.52 195.52,-317.96 198.51,-311.63"/>
</g>
<!-- Node25 -->
<g id="node25" class="node">
<title>Node25</title>
<g id="a_node25"><a xlink:title=" ">
<polygon fill="white" stroke="#bfbfbf" points="0,-235.5 0,-254.5 62,-254.5 62,-235.5 0,-235.5"/>
<text text-anchor="middle" x="31" y="-242.5" font-family="Helvetica,sans-Serif" font-size="10.00">G4Orb.hh</text>
</a>
</g>
</g>
<!-- Node2&#45;&gt;Node25 -->
<g id="edge32" class="edge">
<title>Node2&#45;&gt;Node25</title>
<path fill="none" stroke="midnightblue" d="M202.49,-352.38C161.67,-347.25 113.17,-335.84 76,-311 58.75,-299.47 46.19,-278.9 38.79,-263.99"/>
<polygon fill="midnightblue" stroke="midnightblue" points="41.88,-262.34 34.49,-254.74 35.53,-265.28 41.88,-262.34"/>
</g>
<!-- Node3&#45;&gt;Node4 -->
<g id="edge3" class="edge">
<title>Node3&#45;&gt;Node4</title>
<path fill="none" stroke="midnightblue" d="M519.33,-235.37C505.24,-217.14 472.24,-174.43 453.89,-150.68"/>
<polygon fill="midnightblue" stroke="midnightblue" points="456.52,-148.36 447.64,-142.59 450.98,-152.64 456.52,-148.36"/>
</g>
<!-- Node3&#45;&gt;Node13 -->
<g id="edge12" class="edge">
<title>Node3&#45;&gt;Node13</title>
<path fill="none" stroke="midnightblue" d="M594.8,-235.8C679.12,-225.75 821.31,-208.8 907.04,-198.58"/>
<polygon fill="midnightblue" stroke="midnightblue" points="907.69,-202.03 917.21,-197.37 906.86,-195.07 907.69,-202.03"/>
</g>
<!-- Node21 -->
<g id="node21" class="node">
<title>Node21</title>
<g id="a_node21"><a xlink:href="_o_m_sim_p_m_t_construction_8hh.html" target="_top" xlink:title="Construction of the PMTs.">
<polygon fill="white" stroke="black" points="508.5,-179.5 508.5,-198.5 657.5,-198.5 657.5,-179.5 508.5,-179.5"/>
<text text-anchor="middle" x="583" y="-186.5" font-family="Helvetica,sans-Serif" font-size="10.00">OMSimPMTConstruction.hh</text>
</a>
</g>
</g>
<!-- Node3&#45;&gt;Node21 -->
<g id="edge21" class="edge">
<title>Node3&#45;&gt;Node21</title>
<path fill="none" stroke="midnightblue" d="M535.16,-235.32C543.5,-227.42 556.03,-215.55 566.18,-205.94"/>
<polygon fill="midnightblue" stroke="midnightblue" points="568.82,-208.25 573.68,-198.83 564.01,-203.17 568.82,-208.25"/>
</g>
<!-- Node5 -->
<g id="node5" class="node">
<title>Node5</title>
<g id="a_node5"><a xlink:href="_o_m_sim_input_data_8hh.html" target="_top" xlink:title="Definition of ParameterTable and InputDataManager.">
<polygon fill="white" stroke="black" points="513.5,-67.5 513.5,-86.5 628.5,-86.5 628.5,-67.5 513.5,-67.5"/>
<text text-anchor="middle" x="571" y="-74.5" font-family="Helvetica,sans-Serif" font-size="10.00">OMSimInputData.hh</text>
</a>
</g>
</g>
<!-- Node4&#45;&gt;Node5 -->
<g id="edge4" class="edge">
<title>Node4&#45;&gt;Node5</title>
<path fill="none" stroke="midnightblue" d="M461.6,-123.44C482.99,-114.56 516.68,-100.56 541.02,-90.45"/>
<polygon fill="midnightblue" stroke="midnightblue" points="542.61,-93.58 550.5,-86.52 539.92,-87.12 542.61,-93.58"/>
</g>
<!-- Node9 -->
<g id="node9" class="node">
<title>Node9</title>
<g id="a_node9"><a xlink:title=" ">
<polygon fill="white" stroke="#bfbfbf" points="261.5,-67.5 261.5,-86.5 368.5,-86.5 368.5,-67.5 261.5,-67.5"/>
<text text-anchor="middle" x="315" y="-74.5" font-family="Helvetica,sans-Serif" font-size="10.00">G4Transform3D.hh</text>
</a>
</g>
</g>
<!-- Node4&#45;&gt;Node9 -->
<g id="edge8" class="edge">
<title>Node4&#45;&gt;Node9</title>
<path fill="none" stroke="midnightblue" d="M421.03,-123.44C400.39,-114.6 367.94,-100.69 344.37,-90.59"/>
<polygon fill="midnightblue" stroke="midnightblue" points="345.44,-87.24 334.87,-86.52 342.68,-93.67 345.44,-87.24"/>
</g>
<!-- Node10 -->
<g id="node10" class="node">
<title>Node10</title>
<g id="a_node10"><a xlink:title=" ">
<polygon fill="white" stroke="#bfbfbf" points="387,-67.5 387,-86.5 495,-86.5 495,-67.5 387,-67.5"/>
<text text-anchor="middle" x="441" y="-74.5" font-family="Helvetica,sans-Serif" font-size="10.00">G4VisAttributes.hh</text>
</a>
</g>
</g>
<!-- Node4&#45;&gt;Node10 -->
<g id="edge9" class="edge">
<title>Node4&#45;&gt;Node10</title>
<path fill="none" stroke="midnightblue" d="M441,-123.08C441,-116.01 441,-105.86 441,-96.99"/>
<polygon fill="midnightblue" stroke="midnightblue" points="444.5,-96.75 441,-86.75 437.5,-96.75 444.5,-96.75"/>
</g>
<!-- Node11 -->
<g id="node11" class="node">
<title>Node11</title>
<g id="a_node11"><a xlink:title=" ">
<polygon fill="white" stroke="#bfbfbf" points="646.5,-67.5 646.5,-86.5 771.5,-86.5 771.5,-67.5 646.5,-67.5"/>
<text text-anchor="middle" x="709" y="-74.5" font-family="Helvetica,sans-Serif" font-size="10.00">G4SubtractionSolid.hh</text>
</a>
</g>
</g>
<!-- Node4&#45;&gt;Node11 -->
<g id="edge10" class="edge">
<title>Node4&#45;&gt;Node11</title>
<path fill="none" stroke="midnightblue" d="M483.47,-123.44C530.41,-113.98 606.08,-98.74 656.65,-88.55"/>
<polygon fill="midnightblue" stroke="midnightblue" points="657.62,-91.92 666.73,-86.52 656.24,-85.06 657.62,-91.92"/>
</g>
<!-- Node12 -->
<g id="node12" class="node">
<title>Node12</title>
<g id="a_node12"><a xlink:title=" ">
<polygon fill="white" stroke="#bfbfbf" points="133,-67.5 133,-86.5 243,-86.5 243,-67.5 133,-67.5"/>
<text text-anchor="middle" x="188" y="-74.5" font-family="Helvetica,sans-Serif" font-size="10.00">G4PVPlacement.hh</text>
</a>
</g>
</g>
<!-- Node4&#45;&gt;Node12 -->
<g id="edge11" class="edge">
<title>Node4&#45;&gt;Node12</title>
<path fill="none" stroke="midnightblue" d="M400.91,-123.44C356.68,-114 285.46,-98.8 237.72,-88.61"/>
<polygon fill="midnightblue" stroke="midnightblue" points="238.41,-85.18 227.9,-86.52 236.95,-92.03 238.41,-85.18"/>
</g>
<!-- Node6 -->
<g id="node6" class="node">
<title>Node6</title>
<g id="a_node6"><a xlink:title=" ">
<polygon fill="white" stroke="#bfbfbf" points="1034.5,-6 1034.5,-25 1177.5,-25 1177.5,-6 1034.5,-6"/>
<text text-anchor="middle" x="1106" y="-13" font-family="Helvetica,sans-Serif" font-size="10.00">G4OpBoundaryProcess.hh</text>
</a>
</g>
</g>
<!-- Node5&#45;&gt;Node6 -->
<g id="edge5" class="edge">
<title>Node5&#45;&gt;Node6</title>
<path fill="none" stroke="midnightblue" d="M628.73,-68.15C631.87,-67.75 634.97,-67.37 638,-67 773.22,-50.62 930.75,-34.17 1024.22,-24.67"/>
<polygon fill="midnightblue" stroke="midnightblue" points="1024.58,-28.15 1034.18,-23.66 1023.87,-21.19 1024.58,-28.15"/>
</g>
<!-- Node7 -->
<g id="node7" class="node">
<title>Node7</title>
<g id="a_node7"><a xlink:title=" ">
<polygon fill="white" stroke="#bfbfbf" points="813.5,-6 813.5,-25 932.5,-25 932.5,-6 813.5,-6"/>
<text text-anchor="middle" x="873" y="-13" font-family="Helvetica,sans-Serif" font-size="10.00">G4SystemOfUnits.hh</text>
</a>
</g>
</g>
<!-- Node5&#45;&gt;Node7 -->
<g id="edge6" class="edge">
<title>Node5&#45;&gt;Node7</title>
<path fill="none" stroke="midnightblue" d="M614.27,-67.48C668.43,-56.8 761.17,-38.53 819.66,-27.01"/>
<polygon fill="midnightblue" stroke="midnightblue" points="820.68,-30.38 829.81,-25.01 819.32,-23.51 820.68,-30.38"/>
</g>
<!-- Node8 -->
<g id="node8" class="node">
<title>Node8</title>
<g id="a_node8"><a xlink:title=" ">
<polygon fill="white" stroke="#bfbfbf" points="514.5,-0.5 514.5,-30.5 627.5,-30.5 627.5,-0.5 514.5,-0.5"/>
<text text-anchor="start" x="522.5" y="-18.5" font-family="Helvetica,sans-Serif" font-size="10.00">boost/property_tree</text>
<text text-anchor="middle" x="571" y="-7.5" font-family="Helvetica,sans-Serif" font-size="10.00">/json_parser.hpp</text>
</a>
</g>
</g>
<!-- Node5&#45;&gt;Node8 -->
<g id="edge7" class="edge">
<title>Node5&#45;&gt;Node8</title>
<path fill="none" stroke="midnightblue" d="M571,-67.48C571,-60.47 571,-50.19 571,-40.7"/>
<polygon fill="midnightblue" stroke="midnightblue" points="574.5,-40.52 571,-30.52 567.5,-40.52 574.5,-40.52"/>
</g>
<!-- Node14 -->
<g id="node14" class="node">
<title>Node14</title>
<g id="a_node14"><a xlink:href="_o_m_sim_p_m_t_response_8hh.html" target="_top" xlink:title="Provides simulation for PMT response. This class is responsible for transforming hits on photocathode...">
<polygon fill="white" stroke="black" points="832.5,-123.5 832.5,-142.5 967.5,-142.5 967.5,-123.5 832.5,-123.5"/>
<text text-anchor="middle" x="900" y="-130.5" font-family="Helvetica,sans-Serif" font-size="10.00">OMSimPMTResponse.hh</text>
</a>
</g>
</g>
<!-- Node13&#45;&gt;Node14 -->
<g id="edge13" class="edge">
<title>Node13&#45;&gt;Node14</title>
<path fill="none" stroke="midnightblue" d="M966.31,-179.32C954.1,-170.98 935.42,-158.21 921,-148.35"/>
<polygon fill="midnightblue" stroke="midnightblue" points="922.89,-145.41 912.66,-142.65 918.94,-151.19 922.89,-145.41"/>
</g>
<!-- Node19 -->
<g id="node19" class="node">
<title>Node19</title>
<g id="a_node19"><a xlink:title=" ">
<polygon fill="white" stroke="#bfbfbf" points="1058.5,-123.5 1058.5,-142.5 1161.5,-142.5 1161.5,-123.5 1058.5,-123.5"/>
<text text-anchor="middle" x="1110" y="-130.5" font-family="Helvetica,sans-Serif" font-size="10.00">G4ThreeVector.hh</text>
</a>
</g>
</g>
<!-- Node13&#45;&gt;Node19 -->
<g id="edge19" class="edge">
<title>Node13&#45;&gt;Node19</title>
<path fill="none" stroke="midnightblue" d="M999.76,-179.44C1021.32,-170.56 1055.26,-156.56 1079.79,-146.45"/>
<polygon fill="midnightblue" stroke="midnightblue" points="1081.43,-149.56 1089.34,-142.52 1078.76,-143.09 1081.43,-149.56"/>
</g>
<!-- Node20 -->
<g id="node20" class="node">
<title>Node20</title>
<g id="a_node20"><a xlink:title=" ">
<polygon fill="white" stroke="#bfbfbf" points="985.5,-123.5 985.5,-142.5 1040.5,-142.5 1040.5,-123.5 985.5,-123.5"/>
<text text-anchor="middle" x="1013" y="-130.5" font-family="Helvetica,sans-Serif" font-size="10.00">fstream</text>
</a>
</g>
</g>
<!-- Node13&#45;&gt;Node20 -->
<g id="edge20" class="edge">
<title>Node13&#45;&gt;Node20</title>
<path fill="none" stroke="midnightblue" d="M984.61,-179.08C989.37,-171.53 996.32,-160.49 1002.15,-151.23"/>
<polygon fill="midnightblue" stroke="midnightblue" points="1005.12,-153.08 1007.49,-142.75 999.2,-149.35 1005.12,-153.08"/>
</g>
<!-- Node14&#45;&gt;Node7 -->
<g id="edge14" class="edge">
<title>Node14&#45;&gt;Node7</title>
<path fill="none" stroke="midnightblue" d="M967.5,-123.7C1012.22,-116.66 1065.11,-104.82 1079,-87 1084.47,-79.99 1084.49,-73.99 1079,-67 1062.13,-45.5 995.57,-31.95 942.61,-24.37"/>
<polygon fill="midnightblue" stroke="midnightblue" points="942.94,-20.88 932.56,-22.97 941.98,-27.81 942.94,-20.88"/>
</g>
<!-- Node15 -->
<g id="node15" class="node">
<title>Node15</title>
<g id="a_node15"><a xlink:title=" ">
<polygon fill="white" stroke="#bfbfbf" points="789.5,-67.5 789.5,-86.5 862.5,-86.5 862.5,-67.5 789.5,-67.5"/>
<text text-anchor="middle" x="826" y="-74.5" font-family="Helvetica,sans-Serif" font-size="10.00">G4Types.hh</text>
</a>
</g>
</g>
<!-- Node14&#45;&gt;Node15 -->
<g id="edge15" class="edge">
<title>Node14&#45;&gt;Node15</title>
<path fill="none" stroke="midnightblue" d="M888.11,-123.32C876.85,-115.11 859.71,-102.6 846.29,-92.81"/>
<polygon fill="midnightblue" stroke="midnightblue" points="848.25,-89.9 838.11,-86.83 844.12,-95.56 848.25,-89.9"/>
</g>
<!-- Node16 -->
<g id="node16" class="node">
<title>Node16</title>
<g id="a_node16"><a xlink:title=" ">
<polygon fill="white" stroke="#bfbfbf" points="881,-67.5 881,-86.5 919,-86.5 919,-67.5 881,-67.5"/>
<text text-anchor="middle" x="900" y="-74.5" font-family="Helvetica,sans-Serif" font-size="10.00">map</text>
</a>
</g>
</g>
<!-- Node14&#45;&gt;Node16 -->
<g id="edge16" class="edge">
<title>Node14&#45;&gt;Node16</title>
<path fill="none" stroke="midnightblue" d="M900,-123.08C900,-116.01 900,-105.86 900,-96.99"/>
<polygon fill="midnightblue" stroke="midnightblue" points="903.5,-96.75 900,-86.75 896.5,-96.75 903.5,-96.75"/>
</g>
<!-- Node17 -->
<g id="node17" class="node">
<title>Node17</title>
<g id="a_node17"><a xlink:title=" ">
<polygon fill="white" stroke="#bfbfbf" points="937.5,-67.5 937.5,-86.5 998.5,-86.5 998.5,-67.5 937.5,-67.5"/>
<text text-anchor="middle" x="968" y="-74.5" font-family="Helvetica,sans-Serif" font-size="10.00">TGraph.h</text>
</a>
</g>
</g>
<!-- Node14&#45;&gt;Node17 -->
<g id="edge17" class="edge">
<title>Node14&#45;&gt;Node17</title>
<path fill="none" stroke="midnightblue" d="M910.93,-123.32C921.17,-115.18 936.72,-102.84 949,-93.09"/>
<polygon fill="midnightblue" stroke="midnightblue" points="951.22,-95.79 956.88,-86.83 946.87,-90.31 951.22,-95.79"/>
</g>
<!-- Node18 -->
<g id="node18" class="node">
<title>Node18</title>
<g id="a_node18"><a xlink:title=" ">
<polygon fill="white" stroke="#bfbfbf" points="1016.5,-67.5 1016.5,-86.5 1069.5,-86.5 1069.5,-67.5 1016.5,-67.5"/>
<text text-anchor="middle" x="1043" y="-74.5" font-family="Helvetica,sans-Serif" font-size="10.00">TH2D.h</text>
</a>
</g>
</g>
<!-- Node14&#45;&gt;Node18 -->
<g id="edge18" class="edge">
<title>Node14&#45;&gt;Node18</title>
<path fill="none" stroke="midnightblue" d="M922.66,-123.44C946.4,-114.48 983.91,-100.31 1010.74,-90.18"/>
<polygon fill="midnightblue" stroke="midnightblue" points="1012.33,-93.32 1020.45,-86.52 1009.86,-86.77 1012.33,-93.32"/>
</g>
<!-- Node21&#45;&gt;Node4 -->
<g id="edge22" class="edge">
<title>Node21&#45;&gt;Node4</title>
<path fill="none" stroke="midnightblue" d="M560.5,-179.44C536.92,-170.48 499.68,-156.31 473.04,-146.18"/>
<polygon fill="midnightblue" stroke="midnightblue" points="473.99,-142.8 463.4,-142.52 471.5,-149.34 473.99,-142.8"/>
</g>
<!-- Node21&#45;&gt;Node14 -->
<g id="edge24" class="edge">
<title>Node21&#45;&gt;Node14</title>
<path fill="none" stroke="midnightblue" d="M633.23,-179.44C689.34,-169.89 780.13,-154.42 839.95,-144.23"/>
<polygon fill="midnightblue" stroke="midnightblue" points="840.74,-147.65 850.01,-142.52 839.56,-140.75 840.74,-147.65"/>
</g>
<!-- Node21&#45;&gt;Node21 -->
<g id="edge23" class="edge">
<title>Node21&#45;&gt;Node21</title>
<path fill="none" stroke="midnightblue" d="M622.45,-198.53C649.26,-201.31 675.5,-198.13 675.5,-189 675.5,-181.01 655.41,-177.58 632.43,-178.71"/>
<polygon fill="midnightblue" stroke="midnightblue" points="632.15,-175.22 622.45,-179.47 632.69,-182.2 632.15,-175.22"/>
</g>
<!-- Node22 -->
<g id="node22" class="node">
<title>Node22</title>
<g id="a_node22"><a xlink:title=" ">
<polygon fill="white" stroke="#bfbfbf" points="533,-123.5 533,-142.5 631,-142.5 631,-123.5 533,-123.5"/>
<text text-anchor="middle" x="582" y="-130.5" font-family="Helvetica,sans-Serif" font-size="10.00">G4UnionSolid.hh</text>
</a>
</g>
</g>
<!-- Node21&#45;&gt;Node22 -->
<g id="edge25" class="edge">
<title>Node21&#45;&gt;Node22</title>
<path fill="none" stroke="midnightblue" d="M582.83,-179.08C582.7,-172.01 582.52,-161.86 582.35,-152.99"/>
<polygon fill="midnightblue" stroke="midnightblue" points="585.85,-152.68 582.16,-142.75 578.85,-152.81 585.85,-152.68"/>
</g>
<!-- Node23 -->
<g id="node23" class="node">
<title>Node23</title>
<g id="a_node23"><a xlink:title=" ">
<polygon fill="white" stroke="#bfbfbf" points="649.5,-123.5 649.5,-142.5 716.5,-142.5 716.5,-123.5 649.5,-123.5"/>
<text text-anchor="middle" x="683" y="-130.5" font-family="Helvetica,sans-Serif" font-size="10.00">G4Tubs.hh</text>
</a>
</g>
</g>
<!-- Node21&#45;&gt;Node23 -->
<g id="edge26" class="edge">
<title>Node21&#45;&gt;Node23</title>
<path fill="none" stroke="midnightblue" d="M599.07,-179.32C614.96,-170.74 639.51,-157.49 657.96,-147.52"/>
<polygon fill="midnightblue" stroke="midnightblue" points="659.84,-150.49 666.97,-142.65 656.51,-144.33 659.84,-150.49"/>
</g>
<!-- Node24&#45;&gt;Node3 -->
<g id="edge29" class="edge">
<title>Node24&#45;&gt;Node3</title>
<path fill="none" stroke="midnightblue" d="M226.41,-291.44C289.81,-281.83 392.65,-266.23 459.8,-256.04"/>
<polygon fill="midnightblue" stroke="midnightblue" points="460.49,-259.48 469.85,-254.52 459.44,-252.56 460.49,-259.48"/>
</g>
<!-- Node24&#45;&gt;Node25 -->
<g id="edge30" class="edge">
<title>Node24&#45;&gt;Node25</title>
<path fill="none" stroke="midnightblue" d="M147.98,-291.44C124.9,-282.48 88.44,-268.31 62.36,-258.18"/>
<polygon fill="midnightblue" stroke="midnightblue" points="63.51,-254.88 52.92,-254.52 60.98,-261.4 63.51,-254.88"/>
</g>
<!-- Node26 -->
<g id="node26" class="node">
<title>Node26</title>
<g id="a_node26"><a xlink:title=" ">
<polygon fill="white" stroke="#bfbfbf" points="80,-235.5 80,-254.5 258,-254.5 258,-235.5 80,-235.5"/>
<text text-anchor="middle" x="169" y="-242.5" font-family="Helvetica,sans-Serif" font-size="10.00">G4VUserDetectorConstruction.hh</text>
</a>
</g>
</g>
<!-- Node24&#45;&gt;Node26 -->
<g id="edge31" class="edge">
<title>Node24&#45;&gt;Node26</title>
<path fill="none" stroke="midnightblue" d="M169.83,-291.08C169.7,-284.01 169.52,-273.86 169.35,-264.99"/>
<polygon fill="midnightblue" stroke="midnightblue" points="172.85,-264.68 169.16,-254.75 165.85,-264.81 172.85,-264.68"/>
</g>
<!-- Node27&#45;&gt;Node3 -->
<g id="edge39" class="edge">
<title>Node27&#45;&gt;Node3</title>
<path fill="none" stroke="midnightblue" d="M387.99,-291.44C415.7,-282.32 459.75,-267.81 490.62,-257.65"/>
<polygon fill="midnightblue" stroke="midnightblue" points="491.73,-260.97 500.14,-254.52 489.54,-254.32 491.73,-260.97"/>
</g>
<!-- Node27&#45;&gt;Node21 -->
<g id="edge38" class="edge">
<title>Node27&#45;&gt;Node21</title>
<path fill="none" stroke="midnightblue" d="M370.28,-291.16C383.69,-277.32 411.53,-250.54 440,-235 468.58,-219.39 503.39,-208.29 531.51,-201.02"/>
<polygon fill="midnightblue" stroke="midnightblue" points="532.69,-204.33 541.54,-198.51 530.99,-197.54 532.69,-204.33"/>
</g>
<!-- Node28 -->
<g id="node28" class="node">
<title>Node28</title>
<g id="a_node28"><a xlink:href="_o_m_sim_m_d_o_m_flasher_8hh.html" target="_top" xlink:title="Defines the mDOMFlasher class for simulating the 10 flashers in an mDOM optical module.">
<polygon fill="white" stroke="black" points="316.5,-179.5 316.5,-198.5 451.5,-198.5 451.5,-179.5 316.5,-179.5"/>
<text text-anchor="middle" x="384" y="-186.5" font-family="Helvetica,sans-Serif" font-size="10.00">OMSimMDOMFlasher.hh</text>
</a>
</g>
</g>
<!-- Node27&#45;&gt;Node28 -->
<g id="edge34" class="edge">
<title>Node27&#45;&gt;Node28</title>
<path fill="none" stroke="midnightblue" d="M363.73,-291.37C367.28,-273.62 375.47,-232.67 380.28,-208.6"/>
<polygon fill="midnightblue" stroke="midnightblue" points="383.75,-209.08 382.28,-198.59 376.89,-207.71 383.75,-209.08"/>
</g>
<!-- Node28&#45;&gt;Node4 -->
<g id="edge35" class="edge">
<title>Node28&#45;&gt;Node4</title>
<path fill="none" stroke="midnightblue" d="M393.16,-179.32C401.5,-171.42 414.03,-159.55 424.18,-149.94"/>
<polygon fill="midnightblue" stroke="midnightblue" points="426.82,-152.25 431.68,-142.83 422.01,-147.17 426.82,-152.25"/>
</g>
<!-- Node28&#45;&gt;Node22 -->
<g id="edge36" class="edge">
<title>Node28&#45;&gt;Node22</title>
<path fill="none" stroke="midnightblue" d="M415.37,-179.44C449.26,-170.2 503.4,-155.44 540.72,-145.26"/>
<polygon fill="midnightblue" stroke="midnightblue" points="542.05,-148.52 550.77,-142.52 540.2,-141.77 542.05,-148.52"/>
</g>
<!-- Node29 -->
<g id="node29" class="node">
<title>Node29</title>
<g id="a_node29"><a xlink:title=" ">
<polygon fill="white" stroke="#bfbfbf" points="257,-123.5 257,-142.5 349,-142.5 349,-123.5 257,-123.5"/>
<text text-anchor="middle" x="303" y="-130.5" font-family="Helvetica,sans-Serif" font-size="10.00">G4Navigator.hh</text>
</a>
</g>
</g>
<!-- Node28&#45;&gt;Node29 -->
<g id="edge37" class="edge">
<title>Node28&#45;&gt;Node29</title>
<path fill="none" stroke="midnightblue" d="M370.99,-179.32C358.47,-170.98 339.32,-158.21 324.53,-148.35"/>
<polygon fill="midnightblue" stroke="midnightblue" points="326.24,-145.29 315.98,-142.65 322.36,-151.11 326.24,-145.29"/>
</g>
<!-- Node30&#45;&gt;Node3 -->
<g id="edge42" class="edge">
<title>Node30&#45;&gt;Node3</title>
<path fill="none" stroke="midnightblue" d="M518.49,-291.08C519.68,-283.93 521.39,-273.64 522.88,-264.69"/>
<polygon fill="midnightblue" stroke="midnightblue" points="526.35,-265.19 524.54,-254.75 519.45,-264.04 526.35,-265.19"/>
</g>
<!-- Node30&#45;&gt;Node21 -->
<g id="edge41" class="edge">
<title>Node30&#45;&gt;Node21</title>
<path fill="none" stroke="midnightblue" d="M495.43,-291.37C469.79,-279.81 432.41,-258.07 449,-235 460.94,-218.39 479.32,-207.83 498.67,-201.13"/>
<polygon fill="midnightblue" stroke="midnightblue" points="499.72,-204.47 508.22,-198.15 497.63,-197.79 499.72,-204.47"/>
</g>
<!-- Node31&#45;&gt;Node3 -->
<g id="edge45" class="edge">
<title>Node31&#45;&gt;Node3</title>
<path fill="none" stroke="midnightblue" d="M616.65,-291.32C599.33,-282.66 572.48,-269.24 552.5,-259.25"/>
<polygon fill="midnightblue" stroke="midnightblue" points="553.82,-256 543.31,-254.65 550.69,-262.26 553.82,-256"/>
</g>
<!-- Node31&#45;&gt;Node21 -->
<g id="edge44" class="edge">
<title>Node31&#45;&gt;Node21</title>
<path fill="none" stroke="midnightblue" d="M629.94,-291.16C624.18,-278.65 613.31,-255.07 604,-235 599.82,-225.99 595.15,-215.98 591.28,-207.69"/>
<polygon fill="midnightblue" stroke="midnightblue" points="594.44,-206.2 587.04,-198.62 588.1,-209.16 594.44,-206.2"/>
</g>
<!-- Node32&#45;&gt;Node3 -->
<g id="edge48" class="edge">
<title>Node32&#45;&gt;Node3</title>
<path fill="none" stroke="midnightblue" d="M815.47,-291.97C755.41,-282.44 655.14,-266.51 589.8,-256.13"/>
<polygon fill="midnightblue" stroke="midnightblue" points="590.05,-252.63 579.62,-254.52 588.95,-259.54 590.05,-252.63"/>
</g>
<!-- Node32&#45;&gt;Node21 -->
<g id="edge47" class="edge">
<title>Node32&#45;&gt;Node21</title>
<path fill="none" stroke="midnightblue" d="M858.3,-291.31C845.28,-277.2 817.45,-249.42 788,-235 750.75,-216.76 706.1,-205.84 667.99,-199.34"/>
<polygon fill="midnightblue" stroke="midnightblue" points="668.37,-195.86 657.94,-197.7 667.24,-202.77 668.37,-195.86"/>
</g>
<!-- Node33 -->
<g id="node33" class="node">
<title>Node33</title>
<g id="a_node33"><a xlink:title=" ">
<polygon fill="white" stroke="#bfbfbf" points="835,-235.5 835,-254.5 951,-254.5 951,-235.5 835,-235.5"/>
<text text-anchor="middle" x="893" y="-242.5" font-family="Helvetica,sans-Serif" font-size="10.00">G4LogicalVolume.hh</text>
</a>
</g>
</g>
<!-- Node32&#45;&gt;Node33 -->
<g id="edge49" class="edge">
<title>Node32&#45;&gt;Node33</title>
<path fill="none" stroke="midnightblue" d="M870.46,-291.08C874.15,-283.69 879.52,-272.95 884.09,-263.81"/>
<polygon fill="midnightblue" stroke="midnightblue" points="887.28,-265.26 888.62,-254.75 881.02,-262.13 887.28,-265.26"/>
</g>
<!-- Node34 -->
<g id="node34" class="node">
<title>Node34</title>
<g id="a_node34"><a xlink:title=" ">
<polygon fill="white" stroke="#bfbfbf" points="689.5,-235.5 689.5,-254.5 778.5,-254.5 778.5,-235.5 689.5,-235.5"/>
<text text-anchor="middle" x="734" y="-242.5" font-family="Helvetica,sans-Serif" font-size="10.00">G4Polycone.hh</text>
</a>
</g>
</g>
<!-- Node32&#45;&gt;Node34 -->
<g id="edge50" class="edge">
<title>Node32&#45;&gt;Node34</title>
<path fill="none" stroke="midnightblue" d="M845.08,-291.44C823.26,-282.52 788.85,-268.44 764.11,-258.32"/>
<polygon fill="midnightblue" stroke="midnightblue" points="765.4,-255.06 754.82,-254.52 762.75,-261.54 765.4,-255.06"/>
</g>
<!-- Node35&#45;&gt;Node3 -->
<g id="edge53" class="edge">
<title>Node35&#45;&gt;Node3</title>
<path fill="none" stroke="midnightblue" d="M714.51,-291.44C675.68,-282.08 613.34,-267.06 571.08,-256.87"/>
<polygon fill="midnightblue" stroke="midnightblue" points="571.87,-253.46 561.33,-254.52 570.23,-260.26 571.87,-253.46"/>
</g>
<!-- Node35&#45;&gt;Node21 -->
<g id="edge52" class="edge">
<title>Node35&#45;&gt;Node21</title>
<path fill="none" stroke="midnightblue" d="M736.75,-291.4C722.85,-282.37 700.36,-267.73 681,-255 654.64,-237.66 624.4,-217.57 604.56,-204.37"/>
<polygon fill="midnightblue" stroke="midnightblue" points="606.24,-201.28 595.98,-198.65 602.36,-207.11 606.24,-201.28"/>
</g>
<!-- Node36&#45;&gt;Node20 -->
<g id="edge58" class="edge">
<title>Node36&#45;&gt;Node20</title>
<path fill="none" stroke="midnightblue" d="M1084.77,-347.43C1083.76,-321.02 1078.39,-239.03 1050,-179 1044.94,-168.3 1036.78,-157.98 1029.4,-149.93"/>
<polygon fill="midnightblue" stroke="midnightblue" points="1031.9,-147.48 1022.44,-142.71 1026.86,-152.33 1031.9,-147.48"/>
</g>
<!-- Node37 -->
<g id="node37" class="node">
<title>Node37</title>
<g id="a_node37"><a xlink:href="_o_m_sim_logger_8hh.html" target="_top" xlink:title=" ">
<polygon fill="white" stroke="black" points="1199.5,-291.5 1199.5,-310.5 1298.5,-310.5 1298.5,-291.5 1199.5,-291.5"/>
<text text-anchor="middle" x="1249" y="-298.5" font-family="Helvetica,sans-Serif" font-size="10.00">OMSimLogger.hh</text>
</a>
</g>
</g>
<!-- Node36&#45;&gt;Node37 -->
<g id="edge55" class="edge">
<title>Node36&#45;&gt;Node37</title>
<path fill="none" stroke="midnightblue" d="M1110.99,-347.44C1138.7,-338.32 1182.75,-323.81 1213.62,-313.65"/>
<polygon fill="midnightblue" stroke="midnightblue" points="1214.73,-316.97 1223.14,-310.52 1212.54,-310.32 1214.73,-316.97"/>
</g>
<!-- Node40 -->
<g id="node40" class="node">
<title>Node40</title>
<g id="a_node40"><a xlink:title=" ">
<polygon fill="white" stroke="#bfbfbf" points="973,-291.5 973,-310.5 1057,-310.5 1057,-291.5 973,-291.5"/>
<text text-anchor="middle" x="1015" y="-298.5" font-family="Helvetica,sans-Serif" font-size="10.00">boost/any.hpp</text>
</a>
</g>
</g>
<!-- Node36&#45;&gt;Node40 -->
<g id="edge59" class="edge">
<title>Node36&#45;&gt;Node40</title>
<path fill="none" stroke="midnightblue" d="M1073.75,-347.32C1063.2,-339.18 1047.2,-326.84 1034.56,-317.09"/>
<polygon fill="midnightblue" stroke="midnightblue" points="1036.51,-314.17 1026.45,-310.83 1032.23,-319.71 1036.51,-314.17"/>
</g>
<!-- Node41 -->
<g id="node41" class="node">
<title>Node41</title>
<g id="a_node41"><a xlink:title=" ">
<polygon fill="white" stroke="#bfbfbf" points="1113,-291.5 1113,-310.5 1181,-310.5 1181,-291.5 1113,-291.5"/>
<text text-anchor="middle" x="1147" y="-298.5" font-family="Helvetica,sans-Serif" font-size="10.00">sys/time.h</text>
</a>
</g>
</g>
<!-- Node36&#45;&gt;Node41 -->
<g id="edge60" class="edge">
<title>Node36&#45;&gt;Node41</title>
<path fill="none" stroke="midnightblue" d="M1094.96,-347.32C1104.13,-339.34 1117.94,-327.31 1129.03,-317.65"/>
<polygon fill="midnightblue" stroke="midnightblue" points="1131.62,-320.04 1136.86,-310.83 1127.02,-314.76 1131.62,-320.04"/>
</g>
<!-- Node38 -->
<g id="node38" class="node">
<title>Node38</title>
<g id="a_node38"><a xlink:title=" ">
<polygon fill="white" stroke="#bfbfbf" points="1170,-235.5 1170,-254.5 1220,-254.5 1220,-235.5 1170,-235.5"/>
<text text-anchor="middle" x="1195" y="-242.5" font-family="Helvetica,sans-Serif" font-size="10.00">stdio.h</text>
</a>
</g>
</g>
<!-- Node37&#45;&gt;Node38 -->
<g id="edge56" class="edge">
<title>Node37&#45;&gt;Node38</title>
<path fill="none" stroke="midnightblue" d="M1240.08,-291.08C1232.22,-283.22 1220.57,-271.57 1211.08,-262.08"/>
<polygon fill="midnightblue" stroke="midnightblue" points="1213.3,-259.35 1203.75,-254.75 1208.35,-264.3 1213.3,-259.35"/>
</g>
<!-- Node39 -->
<g id="node39" class="node">
<title>Node39</title>
<g id="a_node39"><a xlink:title=" ">
<polygon fill="white" stroke="#bfbfbf" points="1238,-235.5 1238,-254.5 1286,-254.5 1286,-235.5 1238,-235.5"/>
<text text-anchor="middle" x="1262" y="-242.5" font-family="Helvetica,sans-Serif" font-size="10.00">time.h</text>
</a>
</g>
</g>
<!-- Node37&#45;&gt;Node39 -->
<g id="edge57" class="edge">
<title>Node37&#45;&gt;Node39</title>
<path fill="none" stroke="midnightblue" d="M1251.15,-291.08C1252.87,-283.93 1255.35,-273.64 1257.5,-264.69"/>
<polygon fill="midnightblue" stroke="midnightblue" points="1260.96,-265.29 1259.89,-254.75 1254.15,-263.65 1260.96,-265.29"/>
</g>
<!-- Node43&#45;&gt;Node6 -->
<g id="edge67" class="edge">
<title>Node43&#45;&gt;Node6</title>
<path fill="none" stroke="midnightblue" d="M1189.07,-179.34C1186.07,-166.64 1179.73,-142.38 1171,-123 1155.96,-89.6 1132.43,-53.86 1118.18,-33.44"/>
<polygon fill="midnightblue" stroke="midnightblue" points="1120.99,-31.34 1112.36,-25.2 1115.27,-35.38 1120.99,-31.34"/>
</g>
<!-- Node43&#45;&gt;Node14 -->
<g id="edge66" class="edge">
<title>Node43&#45;&gt;Node14</title>
<path fill="none" stroke="midnightblue" d="M1144.89,-179.44C1093.59,-169.92 1010.73,-154.55 955.81,-144.36"/>
<polygon fill="midnightblue" stroke="midnightblue" points="956.36,-140.9 945.89,-142.52 955.09,-147.78 956.36,-140.9"/>
</g>
<!-- Node43&#45;&gt;Node19 -->
<g id="edge65" class="edge">
<title>Node43&#45;&gt;Node19</title>
<path fill="none" stroke="midnightblue" d="M1177.99,-179.32C1165.47,-170.98 1146.32,-158.21 1131.53,-148.35"/>
<polygon fill="midnightblue" stroke="midnightblue" points="1133.24,-145.29 1122.98,-142.65 1129.36,-151.11 1133.24,-145.29"/>
</g>
<!-- Node44 -->
<g id="node44" class="node">
<title>Node44</title>
<g id="a_node44"><a xlink:title=" ">
<polygon fill="white" stroke="#bfbfbf" points="1218,-123.5 1218,-142.5 1356,-142.5 1356,-123.5 1218,-123.5"/>
<text text-anchor="middle" x="1287" y="-130.5" font-family="Helvetica,sans-Serif" font-size="10.00">G4VSensitiveDetector.hh</text>
</a>
</g>
</g>
<!-- Node43&#45;&gt;Node44 -->
<g id="edge64" class="edge">
<title>Node43&#45;&gt;Node44</title>
<path fill="none" stroke="midnightblue" d="M1206.42,-179.32C1221.54,-170.82 1244.82,-157.73 1262.47,-147.8"/>
<polygon fill="midnightblue" stroke="midnightblue" points="1264.61,-150.61 1271.61,-142.65 1261.18,-144.51 1264.61,-150.61"/>
</g>
<!-- Node45 -->
<g id="node45" class="node">
<title>Node45</title>
<g id="a_node45"><a xlink:title=" ">
<polygon fill="white" stroke="#bfbfbf" points="1374.5,-123.5 1374.5,-142.5 1421.5,-142.5 1421.5,-123.5 1374.5,-123.5"/>
<text text-anchor="middle" x="1398" y="-130.5" font-family="Helvetica,sans-Serif" font-size="10.00">vector</text>
</a>
</g>
</g>
<!-- Node43&#45;&gt;Node45 -->
<g id="edge68" class="edge">
<title>Node43&#45;&gt;Node45</title>
<path fill="none" stroke="midnightblue" d="M1224.72,-179.42C1257.81,-170.97 1309.97,-157.57 1364.39,-143.14"/>
<polygon fill="midnightblue" stroke="midnightblue" points="1365.45,-146.48 1374.22,-140.53 1363.65,-139.71 1365.45,-146.48"/>
</g>
</g>
</svg>
