<?xml version="1.0" encoding="UTF-8" standalone="no"?>
<!DOCTYPE svg PUBLIC "-//W3C//DTD SVG 1.1//EN"
 "http://www.w3.org/Graphics/SVG/1.1/DTD/svg11.dtd">
<!-- Generated by graphviz version 2.43.0 (0)
 -->
<!-- Title: OMSim.hh Pages: 1 -->
<svg width="2155pt" height="375pt"
 viewBox="0.00 0.00 2155.00 375.00" xmlns="http://www.w3.org/2000/svg" xmlns:xlink="http://www.w3.org/1999/xlink">
<g id="graph0" class="graph" transform="scale(1 1) rotate(0) translate(4 371)">
<title>OMSim.hh</title>
<polygon fill="white" stroke="transparent" points="-4,4 -4,-371 2151,-371 2151,4 -4,4"/>
<!-- Node1 -->
<g id="node1" class="node">
<title>Node1</title>
<g id="a_node1"><a xlink:title="Main simulation class for the Optical Module (OM) simulation. This file defines the OMSim class,...">
<polygon fill="#bfbfbf" stroke="black" points="1261.5,-347.5 1261.5,-366.5 1328.5,-366.5 1328.5,-347.5 1261.5,-347.5"/>
<text text-anchor="middle" x="1295" y="-354.5" font-family="Helvetica,sans-Serif" font-size="10.00">OMSim.hh</text>
</a>
</g>
</g>
<!-- Node2 -->
<g id="node2" class="node">
<title>Node2</title>
<g id="a_node2"><a xlink:href="_o_m_sim_detector_construction_8hh.html" target="_top" xlink:title=" ">
<polygon fill="white" stroke="black" points="418,-291.5 418,-310.5 588,-310.5 588,-291.5 418,-291.5"/>
<text text-anchor="middle" x="503" y="-298.5" font-family="Helvetica,sans-Serif" font-size="10.00">OMSimDetectorConstruction.hh</text>
</a>
</g>
</g>
<!-- Node1&#45;&gt;Node2 -->
<g id="edge1" class="edge">
<title>Node1&#45;&gt;Node2</title>
<path fill="none" stroke="midnightblue" d="M1261.2,-354.19C1161.52,-348.79 859.89,-331.87 598.12,-311.07"/>
<polygon fill="midnightblue" stroke="midnightblue" points="598.29,-307.57 588.04,-310.26 597.73,-314.55 598.29,-307.57"/>
</g>
<!-- Node26 -->
<g id="node26" class="node">
<title>Node26</title>
<g id="a_node26"><a xlink:title=" ">
<polygon fill="white" stroke="#bfbfbf" points="606.5,-291.5 606.5,-310.5 727.5,-310.5 727.5,-291.5 606.5,-291.5"/>
<text text-anchor="middle" x="667" y="-298.5" font-family="Helvetica,sans-Serif" font-size="10.00">OMSimPhysicsList.hh</text>
</a>
</g>
</g>
<!-- Node1&#45;&gt;Node26 -->
<g id="edge29" class="edge">
<title>Node1&#45;&gt;Node26</title>
<path fill="none" stroke="midnightblue" d="M1261.24,-353.87C1175.53,-348.32 942.41,-332.47 737.6,-311.12"/>
<polygon fill="midnightblue" stroke="midnightblue" points="737.87,-307.63 727.56,-310.07 737.14,-314.6 737.87,-307.63"/>
</g>
<!-- Node27 -->
<g id="node27" class="node">
<title>Node27</title>
<g id="a_node27"><a xlink:title=" ">
<polygon fill="white" stroke="#bfbfbf" points="745.5,-291.5 745.5,-310.5 930.5,-310.5 930.5,-291.5 745.5,-291.5"/>
<text text-anchor="middle" x="838" y="-298.5" font-family="Helvetica,sans-Serif" font-size="10.00">OMSimPrimaryGeneratorAction.hh</text>
</a>
</g>
</g>
<!-- Node1&#45;&gt;Node27 -->
<g id="edge30" class="edge">
<title>Node1&#45;&gt;Node27</title>
<path fill="none" stroke="midnightblue" d="M1261.4,-352.03C1190.15,-343.61 1022.15,-323.76 920.49,-311.75"/>
<polygon fill="midnightblue" stroke="midnightblue" points="920.6,-308.24 910.26,-310.54 919.78,-315.19 920.6,-308.24"/>
</g>
<!-- Node28 -->
<g id="node28" class="node">
<title>Node28</title>
<g id="a_node28"><a xlink:href="_o_m_sim_run_action_8hh.html" target="_top" xlink:title=" ">
<polygon fill="white" stroke="black" points="948,-291.5 948,-310.5 1064,-310.5 1064,-291.5 948,-291.5"/>
<text text-anchor="middle" x="1006" y="-298.5" font-family="Helvetica,sans-Serif" font-size="10.00">OMSimRunAction.hh</text>
</a>
</g>
</g>
<!-- Node1&#45;&gt;Node28 -->
<g id="edge31" class="edge">
<title>Node1&#45;&gt;Node28</title>
<path fill="none" stroke="midnightblue" d="M1261.28,-349.7C1212.3,-340.55 1120.87,-323.46 1061.77,-312.42"/>
<polygon fill="midnightblue" stroke="midnightblue" points="1062.32,-308.96 1051.85,-310.57 1061.03,-315.84 1062.32,-308.96"/>
</g>
<!-- Node30 -->
<g id="node30" class="node">
<title>Node30</title>
<g id="a_node30"><a xlink:title=" ">
<polygon fill="white" stroke="#bfbfbf" points="1082.5,-291.5 1082.5,-310.5 1207.5,-310.5 1207.5,-291.5 1082.5,-291.5"/>
<text text-anchor="middle" x="1145" y="-298.5" font-family="Helvetica,sans-Serif" font-size="10.00">OMSimEventAction.hh</text>
</a>
</g>
</g>
<!-- Node1&#45;&gt;Node30 -->
<g id="edge33" class="edge">
<title>Node1&#45;&gt;Node30</title>
<path fill="none" stroke="midnightblue" d="M1271.23,-347.44C1246.11,-338.4 1206.29,-324.06 1178.1,-313.92"/>
<polygon fill="midnightblue" stroke="midnightblue" points="1179.25,-310.61 1168.66,-310.52 1176.88,-317.2 1179.25,-310.61"/>
</g>
<!-- Node31 -->
<g id="node31" class="node">
<title>Node31</title>
<g id="a_node31"><a xlink:href="_o_m_sim_tracking_action_8hh.html" target="_top" xlink:title=" ">
<polygon fill="white" stroke="black" points="1226,-291.5 1226,-310.5 1364,-310.5 1364,-291.5 1226,-291.5"/>
<text text-anchor="middle" x="1295" y="-298.5" font-family="Helvetica,sans-Serif" font-size="10.00">OMSimTrackingAction.hh</text>
</a>
</g>
</g>
<!-- Node1&#45;&gt;Node31 -->
<g id="edge34" class="edge">
<title>Node1&#45;&gt;Node31</title>
<path fill="none" stroke="midnightblue" d="M1295,-347.08C1295,-340.01 1295,-329.86 1295,-320.99"/>
<polygon fill="midnightblue" stroke="midnightblue" points="1298.5,-320.75 1295,-310.75 1291.5,-320.75 1298.5,-320.75"/>
</g>
<!-- Node33 -->
<g id="node33" class="node">
<title>Node33</title>
<g id="a_node33"><a xlink:href="_o_m_sim_stepping_action_8hh.html" target="_top" xlink:title="Defines OMSimSteppingAction.Currently it only checks for trapped photons.">
<polygon fill="white" stroke="black" points="1382,-291.5 1382,-310.5 1522,-310.5 1522,-291.5 1382,-291.5"/>
<text text-anchor="middle" x="1452" y="-298.5" font-family="Helvetica,sans-Serif" font-size="10.00">OMSimSteppingAction.hh</text>
</a>
</g>
</g>
<!-- Node1&#45;&gt;Node33 -->
<g id="edge36" class="edge">
<title>Node1&#45;&gt;Node33</title>
<path fill="none" stroke="midnightblue" d="M1319.88,-347.44C1346.29,-338.36 1388.22,-323.94 1417.74,-313.78"/>
<polygon fill="midnightblue" stroke="midnightblue" points="1418.92,-317.08 1427.24,-310.52 1416.64,-310.46 1418.92,-317.08"/>
</g>
<!-- Node35 -->
<g id="node35" class="node">
<title>Node35</title>
<g id="a_node35"><a xlink:href="_o_m_sim_u_iinterface_8hh.html" target="_top" xlink:title="The OMSimUIinterface class provides a singleton interface to Geant4&#39;s UI manager.">
<polygon fill="white" stroke="black" points="165.5,-291.5 165.5,-310.5 286.5,-310.5 286.5,-291.5 165.5,-291.5"/>
<text text-anchor="middle" x="226" y="-298.5" font-family="Helvetica,sans-Serif" font-size="10.00">OMSimUIinterface.hh</text>
</a>
</g>
</g>
<!-- Node1&#45;&gt;Node35 -->
<g id="edge38" class="edge">
<title>Node1&#45;&gt;Node35</title>
<path fill="none" stroke="midnightblue" d="M1261.24,-354.29C1111.52,-346.73 505.66,-316.13 297.02,-305.59"/>
<polygon fill="midnightblue" stroke="midnightblue" points="296.96,-302.08 286.79,-305.07 296.6,-309.07 296.96,-302.08"/>
</g>
<!-- Node43 -->
<g id="node43" class="node">
<title>Node43</title>
<g id="a_node43"><a xlink:title=" ">
<polygon fill="white" stroke="#bfbfbf" points="1540,-291.5 1540,-310.5 1646,-310.5 1646,-291.5 1540,-291.5"/>
<text text-anchor="middle" x="1593" y="-298.5" font-family="Helvetica,sans-Serif" font-size="10.00">G4RunManager.hh</text>
</a>
</g>
</g>
<!-- Node1&#45;&gt;Node43 -->
<g id="edge47" class="edge">
<title>Node1&#45;&gt;Node43</title>
<path fill="none" stroke="midnightblue" d="M1328.61,-349.91C1379,-340.78 1474.77,-323.42 1536.16,-312.3"/>
<polygon fill="midnightblue" stroke="midnightblue" points="1536.87,-315.73 1546.08,-310.5 1535.62,-308.84 1536.87,-315.73"/>
</g>
<!-- Node44 -->
<g id="node44" class="node">
<title>Node44</title>
<g id="a_node44"><a xlink:title=" ">
<polygon fill="white" stroke="#bfbfbf" points="1664.5,-291.5 1664.5,-310.5 1771.5,-310.5 1771.5,-291.5 1664.5,-291.5"/>
<text text-anchor="middle" x="1718" y="-298.5" font-family="Helvetica,sans-Serif" font-size="10.00">G4VisExecutive.hh</text>
</a>
</g>
</g>
<!-- Node1&#45;&gt;Node44 -->
<g id="edge48" class="edge">
<title>Node1&#45;&gt;Node44</title>
<path fill="none" stroke="midnightblue" d="M1328.78,-351.98C1390.89,-344.54 1527.67,-327.96 1654.14,-311.09"/>
<polygon fill="midnightblue" stroke="midnightblue" points="1654.94,-314.52 1664.39,-309.72 1654.02,-307.58 1654.94,-314.52"/>
</g>
<!-- Node45 -->
<g id="node45" class="node">
<title>Node45</title>
<g id="a_node45"><a xlink:title=" ">
<polygon fill="white" stroke="#bfbfbf" points="1789.5,-291.5 1789.5,-310.5 1892.5,-310.5 1892.5,-291.5 1789.5,-291.5"/>
<text text-anchor="middle" x="1841" y="-298.5" font-family="Helvetica,sans-Serif" font-size="10.00">G4UIExecutive.hh</text>
</a>
</g>
</g>
<!-- Node1&#45;&gt;Node45 -->
<g id="edge49" class="edge">
<title>Node1&#45;&gt;Node45</title>
<path fill="none" stroke="midnightblue" d="M1328.65,-353.54C1406.23,-347.74 1603.78,-332.15 1779.13,-311.17"/>
<polygon fill="midnightblue" stroke="midnightblue" points="1779.81,-314.61 1789.31,-309.94 1778.97,-307.66 1779.81,-314.61"/>
</g>
<!-- Node46 -->
<g id="node46" class="node">
<title>Node46</title>
<g id="a_node46"><a xlink:title=" ">
<polygon fill="white" stroke="#bfbfbf" points="1911,-291.5 1911,-310.5 1979,-310.5 1979,-291.5 1911,-291.5"/>
<text text-anchor="middle" x="1945" y="-298.5" font-family="Helvetica,sans-Serif" font-size="10.00">filesystem</text>
</a>
</g>
</g>
<!-- Node1&#45;&gt;Node46 -->
<g id="edge50" class="edge">
<title>Node1&#45;&gt;Node46</title>
<path fill="none" stroke="midnightblue" d="M1328.73,-355.06C1419.59,-352.21 1677.19,-341.94 1900.85,-310.98"/>
<polygon fill="midnightblue" stroke="midnightblue" points="1901.39,-314.44 1910.8,-309.58 1900.42,-307.5 1901.39,-314.44"/>
</g>
<!-- Node47 -->
<g id="node47" class="node">
<title>Node47</title>
<g id="a_node47"><a xlink:title=" ">
<polygon fill="white" stroke="#bfbfbf" points="1997,-291.5 1997,-310.5 2147,-310.5 2147,-291.5 1997,-291.5"/>
<text text-anchor="middle" x="2072" y="-298.5" font-family="Helvetica,sans-Serif" font-size="10.00">boost/program_options.hpp</text>
</a>
</g>
</g>
<!-- Node1&#45;&gt;Node47 -->
<g id="edge51" class="edge">
<title>Node1&#45;&gt;Node47</title>
<path fill="none" stroke="midnightblue" d="M1328.57,-354.32C1427.57,-349.26 1727.11,-333.19 1986.91,-311.06"/>
<polygon fill="midnightblue" stroke="midnightblue" points="1987.24,-314.54 1996.91,-310.2 1986.65,-307.57 1987.24,-314.54"/>
</g>
<!-- Node3 -->
<g id="node3" class="node">
<title>Node3</title>
<g id="a_node3"><a xlink:href="_o_m_sim_optical_module_8hh.html" target="_top" xlink:title=" ">
<polygon fill="white" stroke="black" points="522.5,-235.5 522.5,-254.5 659.5,-254.5 659.5,-235.5 522.5,-235.5"/>
<text text-anchor="middle" x="591" y="-242.5" font-family="Helvetica,sans-Serif" font-size="10.00">OMSimOpticalModule.hh</text>
</a>
</g>
</g>
<!-- Node2&#45;&gt;Node3 -->
<g id="edge2" class="edge">
<title>Node2&#45;&gt;Node3</title>
<path fill="none" stroke="midnightblue" d="M517.14,-291.32C530.87,-282.9 551.94,-269.97 568.06,-260.07"/>
<polygon fill="midnightblue" stroke="midnightblue" points="570.2,-262.87 576.9,-254.65 566.54,-256.9 570.2,-262.87"/>
</g>
<!-- Node24 -->
<g id="node24" class="node">
<title>Node24</title>
<g id="a_node24"><a xlink:title=" ">
<polygon fill="white" stroke="#bfbfbf" points="678,-235.5 678,-254.5 740,-254.5 740,-235.5 678,-235.5"/>
<text text-anchor="middle" x="709" y="-242.5" font-family="Helvetica,sans-Serif" font-size="10.00">G4Orb.hh</text>
</a>
</g>
</g>
<!-- Node2&#45;&gt;Node24 -->
<g id="edge27" class="edge">
<title>Node2&#45;&gt;Node24</title>
<path fill="none" stroke="midnightblue" d="M535.64,-291.44C571.47,-282.05 629.05,-266.96 667.92,-256.77"/>
<polygon fill="midnightblue" stroke="midnightblue" points="669.07,-260.08 677.86,-254.16 667.3,-253.31 669.07,-260.08"/>
</g>
<!-- Node25 -->
<g id="node25" class="node">
<title>Node25</title>
<g id="a_node25"><a xlink:title=" ">
<polygon fill="white" stroke="#bfbfbf" points="326,-235.5 326,-254.5 504,-254.5 504,-235.5 326,-235.5"/>
<text text-anchor="middle" x="415" y="-242.5" font-family="Helvetica,sans-Serif" font-size="10.00">G4VUserDetectorConstruction.hh</text>
</a>
</g>
</g>
<!-- Node2&#45;&gt;Node25 -->
<g id="edge28" class="edge">
<title>Node2&#45;&gt;Node25</title>
<path fill="none" stroke="midnightblue" d="M488.86,-291.32C475.13,-282.9 454.06,-269.97 437.94,-260.07"/>
<polygon fill="midnightblue" stroke="midnightblue" points="439.46,-256.9 429.1,-254.65 435.8,-262.87 439.46,-256.9"/>
</g>
<!-- Node4 -->
<g id="node4" class="node">
<title>Node4</title>
<g id="a_node4"><a xlink:href="abc_detector_component_8hh.html" target="_top" xlink:title="Provides helper base class abcDetectorComponent for constructing and managing detector components in ...">
<polygon fill="white" stroke="black" points="722.5,-123.5 722.5,-142.5 869.5,-142.5 869.5,-123.5 722.5,-123.5"/>
<text text-anchor="middle" x="796" y="-130.5" font-family="Helvetica,sans-Serif" font-size="10.00">abcDetectorComponent.hh</text>
</a>
</g>
</g>
<!-- Node3&#45;&gt;Node4 -->
<g id="edge3" class="edge">
<title>Node3&#45;&gt;Node4</title>
<path fill="none" stroke="midnightblue" d="M612.69,-235.37C633.43,-226.87 665.39,-213.15 692,-199 721.8,-183.15 754.58,-162 775.21,-148.2"/>
<polygon fill="midnightblue" stroke="midnightblue" points="777.19,-151.08 783.53,-142.59 773.28,-145.28 777.19,-151.08"/>
</g>
<!-- Node13 -->
<g id="node13" class="node">
<title>Node13</title>
<g id="a_node13"><a xlink:href="_o_m_sim_hit_manager_8hh.html" target="_top" xlink:title="Defines structures and classes related to optical module photon hit management.">
<polygon fill="white" stroke="black" points="373.5,-179.5 373.5,-198.5 496.5,-198.5 496.5,-179.5 373.5,-179.5"/>
<text text-anchor="middle" x="435" y="-186.5" font-family="Helvetica,sans-Serif" font-size="10.00">OMSimHitManager.hh</text>
</a>
</g>
</g>
<!-- Node3&#45;&gt;Node13 -->
<g id="edge12" class="edge">
<title>Node3&#45;&gt;Node13</title>
<path fill="none" stroke="midnightblue" d="M566.28,-235.44C540.15,-226.4 498.74,-212.06 469.42,-201.92"/>
<polygon fill="midnightblue" stroke="midnightblue" points="470.2,-198.48 459.6,-198.52 467.91,-205.1 470.2,-198.48"/>
</g>
<!-- Node21 -->
<g id="node21" class="node">
<title>Node21</title>
<g id="a_node21"><a xlink:href="_o_m_sim_p_m_t_construction_8hh.html" target="_top" xlink:title="Construction of the PMTs.">
<polygon fill="white" stroke="black" points="516.5,-179.5 516.5,-198.5 665.5,-198.5 665.5,-179.5 516.5,-179.5"/>
<text text-anchor="middle" x="591" y="-186.5" font-family="Helvetica,sans-Serif" font-size="10.00">OMSimPMTConstruction.hh</text>
</a>
</g>
</g>
<!-- Node3&#45;&gt;Node21 -->
<g id="edge21" class="edge">
<title>Node3&#45;&gt;Node21</title>
<path fill="none" stroke="midnightblue" d="M591,-235.08C591,-228.01 591,-217.86 591,-208.99"/>
<polygon fill="midnightblue" stroke="midnightblue" points="594.5,-208.75 591,-198.75 587.5,-208.75 594.5,-208.75"/>
</g>
<!-- Node5 -->
<g id="node5" class="node">
<title>Node5</title>
<g id="a_node5"><a xlink:href="_o_m_sim_input_data_8hh.html" target="_top" xlink:title="Definition of ParameterTable and InputDataManager.">
<polygon fill="white" stroke="black" points="581.5,-67.5 581.5,-86.5 696.5,-86.5 696.5,-67.5 581.5,-67.5"/>
<text text-anchor="middle" x="639" y="-74.5" font-family="Helvetica,sans-Serif" font-size="10.00">OMSimInputData.hh</text>
</a>
</g>
</g>
<!-- Node4&#45;&gt;Node5 -->
<g id="edge4" class="edge">
<title>Node4&#45;&gt;Node5</title>
<path fill="none" stroke="midnightblue" d="M771.12,-123.44C744.71,-114.36 702.78,-99.94 673.26,-89.78"/>
<polygon fill="midnightblue" stroke="midnightblue" points="674.36,-86.46 663.76,-86.52 672.08,-93.08 674.36,-86.46"/>
</g>
<!-- Node9 -->
<g id="node9" class="node">
<title>Node9</title>
<g id="a_node9"><a xlink:title=" ">
<polygon fill="white" stroke="#bfbfbf" points="714.5,-67.5 714.5,-86.5 821.5,-86.5 821.5,-67.5 714.5,-67.5"/>
<text text-anchor="middle" x="768" y="-74.5" font-family="Helvetica,sans-Serif" font-size="10.00">G4Transform3D.hh</text>
</a>
</g>
</g>
<!-- Node4&#45;&gt;Node9 -->
<g id="edge8" class="edge">
<title>Node4&#45;&gt;Node9</title>
<path fill="none" stroke="midnightblue" d="M791.38,-123.08C787.54,-115.69 781.98,-104.95 777.24,-95.81"/>
<polygon fill="midnightblue" stroke="midnightblue" points="780.25,-94.02 772.54,-86.75 774.03,-97.24 780.25,-94.02"/>
</g>
<!-- Node10 -->
<g id="node10" class="node">
<title>Node10</title>
<g id="a_node10"><a xlink:title=" ">
<polygon fill="white" stroke="#bfbfbf" points="840,-67.5 840,-86.5 948,-86.5 948,-67.5 840,-67.5"/>
<text text-anchor="middle" x="894" y="-74.5" font-family="Helvetica,sans-Serif" font-size="10.00">G4VisAttributes.hh</text>
</a>
</g>
</g>
<!-- Node4&#45;&gt;Node10 -->
<g id="edge9" class="edge">
<title>Node4&#45;&gt;Node10</title>
<path fill="none" stroke="midnightblue" d="M811.75,-123.32C827.32,-114.74 851.38,-101.49 869.46,-91.52"/>
<polygon fill="midnightblue" stroke="midnightblue" points="871.22,-94.55 878.29,-86.65 867.85,-88.42 871.22,-94.55"/>
</g>
<!-- Node11 -->
<g id="node11" class="node">
<title>Node11</title>
<g id="a_node11"><a xlink:title=" ">
<polygon fill="white" stroke="#bfbfbf" points="966.5,-67.5 966.5,-86.5 1091.5,-86.5 1091.5,-67.5 966.5,-67.5"/>
<text text-anchor="middle" x="1029" y="-74.5" font-family="Helvetica,sans-Serif" font-size="10.00">G4SubtractionSolid.hh</text>
</a>
</g>
</g>
<!-- Node4&#45;&gt;Node11 -->
<g id="edge10" class="edge">
<title>Node4&#45;&gt;Node11</title>
<path fill="none" stroke="midnightblue" d="M832.92,-123.44C873.4,-114.06 938.42,-98.99 982.38,-88.8"/>
<polygon fill="midnightblue" stroke="midnightblue" points="983.3,-92.18 992.25,-86.52 981.72,-85.36 983.3,-92.18"/>
</g>
<!-- Node12 -->
<g id="node12" class="node">
<title>Node12</title>
<g id="a_node12"><a xlink:title=" ">
<polygon fill="white" stroke="#bfbfbf" points="1110,-67.5 1110,-86.5 1220,-86.5 1220,-67.5 1110,-67.5"/>
<text text-anchor="middle" x="1165" y="-74.5" font-family="Helvetica,sans-Serif" font-size="10.00">G4PVPlacement.hh</text>
</a>
</g>
</g>
<!-- Node4&#45;&gt;Node12 -->
<g id="edge11" class="edge">
<title>Node4&#45;&gt;Node12</title>
<path fill="none" stroke="midnightblue" d="M854.47,-123.44C921.29,-113.66 1030.37,-97.7 1099.86,-87.53"/>
<polygon fill="midnightblue" stroke="midnightblue" points="1100.43,-90.99 1109.82,-86.08 1099.42,-84.06 1100.43,-90.99"/>
</g>
<!-- Node6 -->
<g id="node6" class="node">
<title>Node6</title>
<g id="a_node6"><a xlink:title=" ">
<polygon fill="white" stroke="#bfbfbf" points="640.5,-6 640.5,-25 783.5,-25 783.5,-6 640.5,-6"/>
<text text-anchor="middle" x="712" y="-13" font-family="Helvetica,sans-Serif" font-size="10.00">G4OpBoundaryProcess.hh</text>
</a>
</g>
</g>
<!-- Node5&#45;&gt;Node6 -->
<g id="edge5" class="edge">
<title>Node5&#45;&gt;Node6</title>
<path fill="none" stroke="midnightblue" d="M649.46,-67.48C660.95,-58.11 679.63,-42.88 693.59,-31.51"/>
<polygon fill="midnightblue" stroke="midnightblue" points="696.02,-34.04 701.56,-25.01 691.6,-28.61 696.02,-34.04"/>
</g>
<!-- Node7 -->
<g id="node7" class="node">
<title>Node7</title>
<g id="a_node7"><a xlink:title=" ">
<polygon fill="white" stroke="#bfbfbf" points="320.5,-6 320.5,-25 439.5,-25 439.5,-6 320.5,-6"/>
<text text-anchor="middle" x="380" y="-13" font-family="Helvetica,sans-Serif" font-size="10.00">G4SystemOfUnits.hh</text>
</a>
</g>
</g>
<!-- Node5&#45;&gt;Node7 -->
<g id="edge6" class="edge">
<title>Node5&#45;&gt;Node7</title>
<path fill="none" stroke="midnightblue" d="M601.89,-67.48C555.83,-56.89 477.23,-38.84 427,-27.3"/>
<polygon fill="midnightblue" stroke="midnightblue" points="427.57,-23.84 417.04,-25.01 426,-30.66 427.57,-23.84"/>
</g>
<!-- Node8 -->
<g id="node8" class="node">
<title>Node8</title>
<g id="a_node8"><a xlink:title=" ">
<polygon fill="white" stroke="#bfbfbf" points="509.5,-0.5 509.5,-30.5 622.5,-30.5 622.5,-0.5 509.5,-0.5"/>
<text text-anchor="start" x="517.5" y="-18.5" font-family="Helvetica,sans-Serif" font-size="10.00">boost/property_tree</text>
<text text-anchor="middle" x="566" y="-7.5" font-family="Helvetica,sans-Serif" font-size="10.00">/json_parser.hpp</text>
</a>
</g>
</g>
<!-- Node5&#45;&gt;Node8 -->
<g id="edge7" class="edge">
<title>Node5&#45;&gt;Node8</title>
<path fill="none" stroke="midnightblue" d="M628.54,-67.48C618.84,-59.57 604.01,-47.48 591.23,-37.07"/>
<polygon fill="midnightblue" stroke="midnightblue" points="593.17,-34.13 583.2,-30.52 588.74,-39.55 593.17,-34.13"/>
</g>
<!-- Node14 -->
<g id="node14" class="node">
<title>Node14</title>
<g id="a_node14"><a xlink:href="_o_m_sim_p_m_t_response_8hh.html" target="_top" xlink:title="Provides simulation for PMT response. This class is responsible for transforming hits on photocathode...">
<polygon fill="white" stroke="black" points="367.5,-123.5 367.5,-142.5 502.5,-142.5 502.5,-123.5 367.5,-123.5"/>
<text text-anchor="middle" x="435" y="-130.5" font-family="Helvetica,sans-Serif" font-size="10.00">OMSimPMTResponse.hh</text>
</a>
</g>
</g>
<!-- Node13&#45;&gt;Node14 -->
<g id="edge13" class="edge">
<title>Node13&#45;&gt;Node14</title>
<path fill="none" stroke="midnightblue" d="M435,-179.08C435,-172.01 435,-161.86 435,-152.99"/>
<polygon fill="midnightblue" stroke="midnightblue" points="438.5,-152.75 435,-142.75 431.5,-152.75 438.5,-152.75"/>
</g>
<!-- Node19 -->
<g id="node19" class="node">
<title>Node19</title>
<g id="a_node19"><a xlink:title=" ">
<polygon fill="white" stroke="#bfbfbf" points="246.5,-123.5 246.5,-142.5 349.5,-142.5 349.5,-123.5 246.5,-123.5"/>
<text text-anchor="middle" x="298" y="-130.5" font-family="Helvetica,sans-Serif" font-size="10.00">G4ThreeVector.hh</text>
</a>
</g>
</g>
<!-- Node13&#45;&gt;Node19 -->
<g id="edge19" class="edge">
<title>Node13&#45;&gt;Node19</title>
<path fill="none" stroke="midnightblue" d="M413.29,-179.44C390.65,-170.52 354.93,-156.44 329.25,-146.32"/>
<polygon fill="midnightblue" stroke="midnightblue" points="330.19,-142.93 319.61,-142.52 327.63,-149.44 330.19,-142.93"/>
</g>
<!-- Node20 -->
<g id="node20" class="node">
<title>Node20</title>
<g id="a_node20"><a xlink:title=" ">
<polygon fill="white" stroke="#bfbfbf" points="160.5,-123.5 160.5,-142.5 215.5,-142.5 215.5,-123.5 160.5,-123.5"/>
<text text-anchor="middle" x="188" y="-130.5" font-family="Helvetica,sans-Serif" font-size="10.00">fstream</text>
</a>
</g>
</g>
<!-- Node13&#45;&gt;Node20 -->
<g id="edge20" class="edge">
<title>Node13&#45;&gt;Node20</title>
<path fill="none" stroke="midnightblue" d="M395.86,-179.44C349.2,-169.24 271.75,-152.31 225.72,-142.25"/>
<polygon fill="midnightblue" stroke="midnightblue" points="226.36,-138.8 215.84,-140.09 224.86,-145.64 226.36,-138.8"/>
</g>
<!-- Node14&#45;&gt;Node7 -->
<g id="edge14" class="edge">
<title>Node14&#45;&gt;Node7</title>
<path fill="none" stroke="midnightblue" d="M378.04,-123.49C337.03,-116.06 286.76,-103.82 274,-87 253.27,-59.69 296.6,-39.59 333.95,-27.99"/>
<polygon fill="midnightblue" stroke="midnightblue" points="335.17,-31.28 343.77,-25.08 333.19,-24.56 335.17,-31.28"/>
</g>
<!-- Node15 -->
<g id="node15" class="node">
<title>Node15</title>
<g id="a_node15"><a xlink:title=" ">
<polygon fill="white" stroke="#bfbfbf" points="283.5,-67.5 283.5,-86.5 356.5,-86.5 356.5,-67.5 283.5,-67.5"/>
<text text-anchor="middle" x="320" y="-74.5" font-family="Helvetica,sans-Serif" font-size="10.00">G4Types.hh</text>
</a>
</g>
</g>
<!-- Node14&#45;&gt;Node15 -->
<g id="edge15" class="edge">
<title>Node14&#45;&gt;Node15</title>
<path fill="none" stroke="midnightblue" d="M416.78,-123.44C398.1,-114.68 368.84,-100.94 347.38,-90.86"/>
<polygon fill="midnightblue" stroke="midnightblue" points="348.68,-87.6 338.14,-86.52 345.7,-93.93 348.68,-87.6"/>
</g>
<!-- Node16 -->
<g id="node16" class="node">
<title>Node16</title>
<g id="a_node16"><a xlink:title=" ">
<polygon fill="white" stroke="#bfbfbf" points="375,-67.5 375,-86.5 413,-86.5 413,-67.5 375,-67.5"/>
<text text-anchor="middle" x="394" y="-74.5" font-family="Helvetica,sans-Serif" font-size="10.00">map</text>
</a>
</g>
</g>
<!-- Node14&#45;&gt;Node16 -->
<g id="edge16" class="edge">
<title>Node14&#45;&gt;Node16</title>
<path fill="none" stroke="midnightblue" d="M428.23,-123.08C422.44,-115.46 413.94,-104.26 406.86,-94.94"/>
<polygon fill="midnightblue" stroke="midnightblue" points="409.48,-92.6 400.64,-86.75 403.9,-96.83 409.48,-92.6"/>
</g>
<!-- Node17 -->
<g id="node17" class="node">
<title>Node17</title>
<g id="a_node17"><a xlink:title=" ">
<polygon fill="white" stroke="#bfbfbf" points="431.5,-67.5 431.5,-86.5 492.5,-86.5 492.5,-67.5 431.5,-67.5"/>
<text text-anchor="middle" x="462" y="-74.5" font-family="Helvetica,sans-Serif" font-size="10.00">TGraph.h</text>
</a>
</g>
</g>
<!-- Node14&#45;&gt;Node17 -->
<g id="edge17" class="edge">
<title>Node14&#45;&gt;Node17</title>
<path fill="none" stroke="midnightblue" d="M439.46,-123.08C443.15,-115.69 448.52,-104.95 453.09,-95.81"/>
<polygon fill="midnightblue" stroke="midnightblue" points="456.28,-97.26 457.62,-86.75 450.02,-94.13 456.28,-97.26"/>
</g>
<!-- Node18 -->
<g id="node18" class="node">
<title>Node18</title>
<g id="a_node18"><a xlink:title=" ">
<polygon fill="white" stroke="#bfbfbf" points="510.5,-67.5 510.5,-86.5 563.5,-86.5 563.5,-67.5 510.5,-67.5"/>
<text text-anchor="middle" x="537" y="-74.5" font-family="Helvetica,sans-Serif" font-size="10.00">TH2D.h</text>
</a>
</g>
</g>
<!-- Node14&#45;&gt;Node18 -->
<g id="edge18" class="edge">
<title>Node14&#45;&gt;Node18</title>
<path fill="none" stroke="midnightblue" d="M451.39,-123.32C467.67,-114.7 492.87,-101.36 511.72,-91.39"/>
<polygon fill="midnightblue" stroke="midnightblue" points="513.45,-94.43 520.65,-86.65 510.18,-88.24 513.45,-94.43"/>
</g>
<!-- Node21&#45;&gt;Node4 -->
<g id="edge22" class="edge">
<title>Node21&#45;&gt;Node4</title>
<path fill="none" stroke="midnightblue" d="M623.48,-179.44C658.72,-170.16 715.1,-155.31 753.76,-145.13"/>
<polygon fill="midnightblue" stroke="midnightblue" points="754.89,-148.45 763.67,-142.52 753.11,-141.68 754.89,-148.45"/>
</g>
<!-- Node21&#45;&gt;Node14 -->
<g id="edge24" class="edge">
<title>Node21&#45;&gt;Node14</title>
<path fill="none" stroke="midnightblue" d="M566.28,-179.44C540.15,-170.4 498.74,-156.06 469.42,-145.92"/>
<polygon fill="midnightblue" stroke="midnightblue" points="470.2,-142.48 459.6,-142.52 467.91,-149.1 470.2,-142.48"/>
</g>
<!-- Node21&#45;&gt;Node21 -->
<g id="edge23" class="edge">
<title>Node21&#45;&gt;Node21</title>
<path fill="none" stroke="midnightblue" d="M630.45,-198.53C657.26,-201.31 683.5,-198.13 683.5,-189 683.5,-181.01 663.41,-177.58 640.43,-178.71"/>
<polygon fill="midnightblue" stroke="midnightblue" points="640.15,-175.22 630.45,-179.47 640.69,-182.2 640.15,-175.22"/>
</g>
<!-- Node22 -->
<g id="node22" class="node">
<title>Node22</title>
<g id="a_node22"><a xlink:title=" ">
<polygon fill="white" stroke="#bfbfbf" points="606,-123.5 606,-142.5 704,-142.5 704,-123.5 606,-123.5"/>
<text text-anchor="middle" x="655" y="-130.5" font-family="Helvetica,sans-Serif" font-size="10.00">G4UnionSolid.hh</text>
</a>
</g>
</g>
<!-- Node21&#45;&gt;Node22 -->
<g id="edge25" class="edge">
<title>Node21&#45;&gt;Node22</title>
<path fill="none" stroke="midnightblue" d="M601.28,-179.32C610.84,-171.26 625.28,-159.08 636.78,-149.37"/>
<polygon fill="midnightblue" stroke="midnightblue" points="639.14,-151.96 644.53,-142.83 634.63,-146.61 639.14,-151.96"/>
</g>
<!-- Node23 -->
<g id="node23" class="node">
<title>Node23</title>
<g id="a_node23"><a xlink:title=" ">
<polygon fill="white" stroke="#bfbfbf" points="520.5,-123.5 520.5,-142.5 587.5,-142.5 587.5,-123.5 520.5,-123.5"/>
<text text-anchor="middle" x="554" y="-130.5" font-family="Helvetica,sans-Serif" font-size="10.00">G4Tubs.hh</text>
</a>
</g>
</g>
<!-- Node21&#45;&gt;Node23 -->
<g id="edge26" class="edge">
<title>Node21&#45;&gt;Node23</title>
<path fill="none" stroke="midnightblue" d="M584.89,-179.08C579.72,-171.53 572.15,-160.49 565.81,-151.23"/>
<polygon fill="midnightblue" stroke="midnightblue" points="568.54,-149.02 560,-142.75 562.76,-152.98 568.54,-149.02"/>
</g>
<!-- Node29 -->
<g id="node29" class="node">
<title>Node29</title>
<g id="a_node29"><a xlink:title=" ">
<polygon fill="white" stroke="#bfbfbf" points="947.5,-235.5 947.5,-254.5 1064.5,-254.5 1064.5,-235.5 947.5,-235.5"/>
<text text-anchor="middle" x="1006" y="-242.5" font-family="Helvetica,sans-Serif" font-size="10.00">G4UserRunAction.hh</text>
</a>
</g>
</g>
<!-- Node28&#45;&gt;Node29 -->
<g id="edge32" class="edge">
<title>Node28&#45;&gt;Node29</title>
<path fill="none" stroke="midnightblue" d="M1006,-291.08C1006,-284.01 1006,-273.86 1006,-264.99"/>
<polygon fill="midnightblue" stroke="midnightblue" points="1009.5,-264.75 1006,-254.75 1002.5,-264.75 1009.5,-264.75"/>
</g>
<!-- Node32 -->
<g id="node32" class="node">
<title>Node32</title>
<g id="a_node32"><a xlink:title=" ">
<polygon fill="white" stroke="#bfbfbf" points="1224.5,-235.5 1224.5,-254.5 1363.5,-254.5 1363.5,-235.5 1224.5,-235.5"/>
<text text-anchor="middle" x="1294" y="-242.5" font-family="Helvetica,sans-Serif" font-size="10.00">G4UserTrackingAction.hh</text>
</a>
</g>
</g>
<!-- Node31&#45;&gt;Node32 -->
<g id="edge35" class="edge">
<title>Node31&#45;&gt;Node32</title>
<path fill="none" stroke="midnightblue" d="M1294.83,-291.08C1294.7,-284.01 1294.52,-273.86 1294.35,-264.99"/>
<polygon fill="midnightblue" stroke="midnightblue" points="1297.85,-264.68 1294.16,-254.75 1290.85,-264.81 1297.85,-264.68"/>
</g>
<!-- Node34 -->
<g id="node34" class="node">
<title>Node34</title>
<g id="a_node34"><a xlink:title=" ">
<polygon fill="white" stroke="#bfbfbf" points="1381.5,-235.5 1381.5,-254.5 1522.5,-254.5 1522.5,-235.5 1381.5,-235.5"/>
<text text-anchor="middle" x="1452" y="-242.5" font-family="Helvetica,sans-Serif" font-size="10.00">G4UserSteppingAction.hh</text>
</a>
</g>
</g>
<!-- Node33&#45;&gt;Node34 -->
<g id="edge37" class="edge">
<title>Node33&#45;&gt;Node34</title>
<path fill="none" stroke="midnightblue" d="M1452,-291.08C1452,-284.01 1452,-273.86 1452,-264.99"/>
<polygon fill="midnightblue" stroke="midnightblue" points="1455.5,-264.75 1452,-254.75 1448.5,-264.75 1455.5,-264.75"/>
</g>
<!-- Node36 -->
<g id="node36" class="node">
<title>Node36</title>
<g id="a_node36"><a xlink:href="_o_m_sim_command_args_table_8hh.html" target="_top" xlink:title="Definition of the OMSimCommandArgsTable singleton class, which controls user args.">
<polygon fill="white" stroke="black" points="144,-235.5 144,-254.5 308,-254.5 308,-235.5 144,-235.5"/>
<text text-anchor="middle" x="226" y="-242.5" font-family="Helvetica,sans-Serif" font-size="10.00">OMSimCommandArgsTable.hh</text>
</a>
</g>
</g>
<!-- Node35&#45;&gt;Node36 -->
<g id="edge39" class="edge">
<title>Node35&#45;&gt;Node36</title>
<path fill="none" stroke="midnightblue" d="M226,-291.08C226,-284.01 226,-273.86 226,-264.99"/>
<polygon fill="midnightblue" stroke="midnightblue" points="229.5,-264.75 226,-254.75 222.5,-264.75 229.5,-264.75"/>
</g>
<!-- Node42 -->
<g id="node42" class="node">
<title>Node42</title>
<g id="a_node42"><a xlink:title=" ">
<polygon fill="white" stroke="#bfbfbf" points="28,-235.5 28,-254.5 126,-254.5 126,-235.5 28,-235.5"/>
<text text-anchor="middle" x="77" y="-242.5" font-family="Helvetica,sans-Serif" font-size="10.00">G4UImanager.hh</text>
</a>
</g>
</g>
<!-- Node35&#45;&gt;Node42 -->
<g id="edge46" class="edge">
<title>Node35&#45;&gt;Node42</title>
<path fill="none" stroke="midnightblue" d="M202.39,-291.44C177.54,-282.44 138.23,-268.19 110.25,-258.05"/>
<polygon fill="midnightblue" stroke="midnightblue" points="111.09,-254.63 100.5,-254.52 108.71,-261.21 111.09,-254.63"/>
</g>
<!-- Node36&#45;&gt;Node20 -->
<g id="edge43" class="edge">
<title>Node36&#45;&gt;Node20</title>
<path fill="none" stroke="midnightblue" d="M211.05,-235.47C199.07,-227.7 183.13,-215 176,-199 169.37,-184.11 173.79,-165.74 179.04,-152.32"/>
<polygon fill="midnightblue" stroke="midnightblue" points="182.41,-153.36 183.23,-142.8 176,-150.54 182.41,-153.36"/>
</g>
<!-- Node37 -->
<g id="node37" class="node">
<title>Node37</title>
<g id="a_node37"><a xlink:href="_o_m_sim_logger_8hh.html" target="_top" xlink:title=" ">
<polygon fill="white" stroke="black" points="29.5,-179.5 29.5,-198.5 128.5,-198.5 128.5,-179.5 29.5,-179.5"/>
<text text-anchor="middle" x="79" y="-186.5" font-family="Helvetica,sans-Serif" font-size="10.00">OMSimLogger.hh</text>
</a>
</g>
</g>
<!-- Node36&#45;&gt;Node37 -->
<g id="edge40" class="edge">
<title>Node36&#45;&gt;Node37</title>
<path fill="none" stroke="midnightblue" d="M202.71,-235.44C178.19,-226.44 139.4,-212.19 111.8,-202.05"/>
<polygon fill="midnightblue" stroke="midnightblue" points="112.78,-198.68 102.18,-198.52 110.36,-205.25 112.78,-198.68"/>
</g>
<!-- Node40 -->
<g id="node40" class="node">
<title>Node40</title>
<g id="a_node40"><a xlink:title=" ">
<polygon fill="white" stroke="#bfbfbf" points="185,-179.5 185,-198.5 269,-198.5 269,-179.5 185,-179.5"/>
<text text-anchor="middle" x="227" y="-186.5" font-family="Helvetica,sans-Serif" font-size="10.00">boost/any.hpp</text>
</a>
</g>
</g>
<!-- Node36&#45;&gt;Node40 -->
<g id="edge44" class="edge">
<title>Node36&#45;&gt;Node40</title>
<path fill="none" stroke="midnightblue" d="M226.17,-235.08C226.3,-228.01 226.48,-217.86 226.65,-208.99"/>
<polygon fill="midnightblue" stroke="midnightblue" points="230.15,-208.81 226.84,-198.75 223.15,-208.68 230.15,-208.81"/>
</g>
<!-- Node41 -->
<g id="node41" class="node">
<title>Node41</title>
<g id="a_node41"><a xlink:title=" ">
<polygon fill="white" stroke="#bfbfbf" points="287,-179.5 287,-198.5 355,-198.5 355,-179.5 287,-179.5"/>
<text text-anchor="middle" x="321" y="-186.5" font-family="Helvetica,sans-Serif" font-size="10.00">sys/time.h</text>
</a>
</g>
</g>
<!-- Node36&#45;&gt;Node41 -->
<g id="edge45" class="edge">
<title>Node36&#45;&gt;Node41</title>
<path fill="none" stroke="midnightblue" d="M241.26,-235.32C256.22,-226.82 279.25,-213.73 296.73,-203.8"/>
<polygon fill="midnightblue" stroke="midnightblue" points="298.81,-206.64 305.77,-198.65 295.35,-200.55 298.81,-206.64"/>
</g>
<!-- Node38 -->
<g id="node38" class="node">
<title>Node38</title>
<g id="a_node38"><a xlink:title=" ">
<polygon fill="white" stroke="#bfbfbf" points="0,-123.5 0,-142.5 50,-142.5 50,-123.5 0,-123.5"/>
<text text-anchor="middle" x="25" y="-130.5" font-family="Helvetica,sans-Serif" font-size="10.00">stdio.h</text>
</a>
</g>
</g>
<!-- Node37&#45;&gt;Node38 -->
<g id="edge41" class="edge">
<title>Node37&#45;&gt;Node38</title>
<path fill="none" stroke="midnightblue" d="M70.08,-179.08C62.22,-171.22 50.57,-159.57 41.08,-150.08"/>
<polygon fill="midnightblue" stroke="midnightblue" points="43.3,-147.35 33.75,-142.75 38.35,-152.3 43.3,-147.35"/>
</g>
<!-- Node39 -->
<g id="node39" class="node">
<title>Node39</title>
<g id="a_node39"><a xlink:title=" ">
<polygon fill="white" stroke="#bfbfbf" points="68,-123.5 68,-142.5 116,-142.5 116,-123.5 68,-123.5"/>
<text text-anchor="middle" x="92" y="-130.5" font-family="Helvetica,sans-Serif" font-size="10.00">time.h</text>
</a>
</g>
</g>
<!-- Node37&#45;&gt;Node39 -->
<g id="edge42" class="edge">
<title>Node37&#45;&gt;Node39</title>
<path fill="none" stroke="midnightblue" d="M81.15,-179.08C82.87,-171.93 85.35,-161.64 87.5,-152.69"/>
<polygon fill="midnightblue" stroke="midnightblue" points="90.96,-153.29 89.89,-142.75 84.15,-151.65 90.96,-153.29"/>
</g>
</g>
</svg>
