<?xml version="1.0" encoding="UTF-8" standalone="no"?>
<!DOCTYPE svg PUBLIC "-//W3C//DTD SVG 1.1//EN"
 "http://www.w3.org/Graphics/SVG/1.1/DTD/svg11.dtd">
<!-- Generated by graphviz version 2.43.0 (0)
 -->
<!-- Title: OMSimPrimaryGeneratorMessenger.cc Pages: 1 -->
<svg width="702pt" height="137pt"
 viewBox="0.00 0.00 701.50 137.00" xmlns="http://www.w3.org/2000/svg" xmlns:xlink="http://www.w3.org/1999/xlink">
<g id="graph0" class="graph" transform="scale(1 1) rotate(0) translate(4 133)">
<title>OMSimPrimaryGeneratorMessenger.cc</title>
<!-- Node1 -->
<g id="Node000001" class="node">
<title>Node1</title>
<g id="a_Node000001"><a xlink:title="Primary generator messenger to choose the corresponding primary generator.">
<polygon fill="#999999" stroke="#666666" points="503,-129 298,-129 298,-110 503,-110 503,-129"/>
<text text-anchor="middle" x="400.5" y="-117" font-family="Helvetica,sans-Serif" font-size="10.00">OMSimPrimaryGeneratorMessenger.cc</text>
</a>
</g>
</g>
<!-- Node2 -->
<g id="Node000002" class="node">
<title>Node2</title>
<g id="a_Node000002"><a xlink:href="_o_m_sim_primary_generator_messenger_8hh_source.html" target="_top" xlink:title=" ">
<polygon fill="white" stroke="#666666" points="210.5,-74 4.5,-74 4.5,-55 210.5,-55 210.5,-74"/>
<text text-anchor="middle" x="107.5" y="-62" font-family="Helvetica,sans-Serif" font-size="10.00">OMSimPrimaryGeneratorMessenger.hh</text>
</a>
</g>
</g>
<!-- Node1&#45;&gt;Node2 -->
<g id="edge1_Node000001_Node000002" class="edge">
<title>Node1&#45;&gt;Node2</title>
<g id="a_edge1_Node000001_Node000002"><a xlink:title=" ">
<path fill="none" stroke="#63b8ff" d="M353.42,-109.98C302.1,-100.7 219.96,-85.84 164.9,-75.88"/>
<polygon fill="#63b8ff" stroke="#63b8ff" points="165.41,-72.42 154.94,-74.08 164.16,-79.31 165.41,-72.42"/>
</a>
</g>
</g>
<!-- Node5 -->
<g id="Node000005" class="node">
<title>Node5</title>
<g id="a_Node000005"><a xlink:title=" ">
<polygon fill="#e0e0e0" stroke="#999999" points="414,-74 229,-74 229,-55 414,-55 414,-74"/>
<text text-anchor="middle" x="321.5" y="-62" font-family="Helvetica,sans-Serif" font-size="10.00">OMSimPrimaryGeneratorAction.hh</text>
</a>
</g>
</g>
<!-- Node1&#45;&gt;Node5 -->
<g id="edge4_Node000001_Node000005" class="edge">
<title>Node1&#45;&gt;Node5</title>
<g id="a_edge4_Node000001_Node000005"><a xlink:title=" ">
<path fill="none" stroke="#63b8ff" d="M387.81,-109.98C375.67,-101.84 357.14,-89.41 342.75,-79.76"/>
<polygon fill="#63b8ff" stroke="#63b8ff" points="344.68,-76.84 334.42,-74.17 340.78,-82.65 344.68,-76.84"/>
</a>
</g>
</g>
<!-- Node6 -->
<g id="Node000006" class="node">
<title>Node6</title>
<g id="a_Node000006"><a xlink:title=" ">
<polygon fill="#e0e0e0" stroke="#999999" points="529.5,-74 431.5,-74 431.5,-55 529.5,-55 529.5,-74"/>
<text text-anchor="middle" x="480.5" y="-62" font-family="Helvetica,sans-Serif" font-size="10.00">G4UIdirectory.hh</text>
</a>
</g>
</g>
<!-- Node1&#45;&gt;Node6 -->
<g id="edge5_Node000001_Node000006" class="edge">
<title>Node1&#45;&gt;Node6</title>
<g id="a_edge5_Node000001_Node000006"><a xlink:title=" ">
<path fill="none" stroke="#63b8ff" d="M413.35,-109.98C425.64,-101.84 444.41,-89.41 458.98,-79.76"/>
<polygon fill="#63b8ff" stroke="#63b8ff" points="461.01,-82.61 467.41,-74.17 457.14,-76.78 461.01,-82.61"/>
</a>
</g>
</g>
<!-- Node7 -->
<g id="Node000007" class="node">
<title>Node7</title>
<g id="a_Node000007"><a xlink:title=" ">
<polygon fill="#e0e0e0" stroke="#999999" points="693.5,-74 547.5,-74 547.5,-55 693.5,-55 693.5,-74"/>
<text text-anchor="middle" x="620.5" y="-62" font-family="Helvetica,sans-Serif" font-size="10.00">G4UIcmdWithAnInteger.hh</text>
</a>
</g>
</g>
<!-- Node1&#45;&gt;Node7 -->
<g id="edge6_Node000001_Node000007" class="edge">
<title>Node1&#45;&gt;Node7</title>
<g id="a_edge6_Node000001_Node000007"><a xlink:title=" ">
<path fill="none" stroke="#63b8ff" d="M435.85,-109.98C473.66,-100.87 533.76,-86.4 575.07,-76.45"/>
<polygon fill="#63b8ff" stroke="#63b8ff" points="575.97,-79.83 584.88,-74.08 574.33,-73.02 575.97,-79.83"/>
</a>
</g>
</g>
<!-- Node3 -->
<g id="Node000003" class="node">
<title>Node3</title>
<g id="a_Node000003"><a xlink:title=" ">
<polygon fill="#e0e0e0" stroke="#999999" points="109,-19 0,-19 0,0 109,0 109,-19"/>
<text text-anchor="middle" x="54.5" y="-7" font-family="Helvetica,sans-Serif" font-size="10.00">G4UImessenger.hh</text>
</a>
</g>
</g>
<!-- Node2&#45;&gt;Node3 -->
<g id="edge2_Node000002_Node000003" class="edge">
<title>Node2&#45;&gt;Node3</title>
<g id="a_edge2_Node000002_Node000003"><a xlink:title=" ">
<path fill="none" stroke="#63b8ff" d="M98.75,-54.75C91.03,-47.03 79.6,-35.6 70.28,-26.28"/>
<polygon fill="#63b8ff" stroke="#63b8ff" points="72.64,-23.69 63.09,-19.09 67.69,-28.64 72.64,-23.69"/>
</a>
</g>
</g>
<!-- Node4 -->
<g id="Node000004" class="node">
<title>Node4</title>
<g id="a_Node000004"><a xlink:title=" ">
<polygon fill="#e0e0e0" stroke="#999999" points="194,-19 127,-19 127,0 194,0 194,-19"/>
<text text-anchor="middle" x="160.5" y="-7" font-family="Helvetica,sans-Serif" font-size="10.00">globals.hh</text>
</a>
</g>
</g>
<!-- Node2&#45;&gt;Node4 -->
<g id="edge3_Node000002_Node000004" class="edge">
<title>Node2&#45;&gt;Node4</title>
<g id="a_edge3_Node000002_Node000004"><a xlink:title=" ">
<path fill="none" stroke="#63b8ff" d="M116.25,-54.75C123.97,-47.03 135.4,-35.6 144.72,-26.28"/>
<polygon fill="#63b8ff" stroke="#63b8ff" points="147.31,-28.64 151.91,-19.09 142.36,-23.69 147.31,-28.64"/>
</a>
</g>
</g>
</g>
</svg>
