<?xml version="1.0" encoding="UTF-8" standalone="no"?>
<!DOCTYPE svg PUBLIC "-//W3C//DTD SVG 1.1//EN"
 "http://www.w3.org/Graphics/SVG/1.1/DTD/svg11.dtd">
<!-- Generated by graphviz version 2.43.0 (0)
 -->
<!-- Title: OMSim.hh Pages: 1 -->
<svg width="2083pt" height="442pt"
 viewBox="0.00 0.00 2083.30 442.00" xmlns="http://www.w3.org/2000/svg" xmlns:xlink="http://www.w3.org/1999/xlink">
<g id="graph0" class="graph" transform="scale(1 1) rotate(0) translate(4 438)">
<title>OMSim.hh</title>
<polygon fill="white" stroke="transparent" points="-4,4 -4,-438 2079.3,-438 2079.3,4 -4,4"/>
<!-- Node1 -->
<g id="node1" class="node">
<title>Node1</title>
<g id="a_node1"><a xlink:title="Main simulation class for the Optical Module (OM) simulation. This file defines the OMSim class,...">
<polygon fill="#bfbfbf" stroke="black" points="1189.8,-414.5 1189.8,-433.5 1256.8,-433.5 1256.8,-414.5 1189.8,-414.5"/>
<text text-anchor="middle" x="1223.3" y="-421.5" font-family="Helvetica,sans-Serif" font-size="10.00">OMSim.hh</text>
</a>
</g>
</g>
<!-- Node2 -->
<g id="node2" class="node">
<title>Node2</title>
<g id="a_node2"><a xlink:href="_o_m_sim_detector_construction_8hh.html" target="_top" xlink:title=" ">
<polygon fill="white" stroke="black" points="346.3,-358.5 346.3,-377.5 516.3,-377.5 516.3,-358.5 346.3,-358.5"/>
<text text-anchor="middle" x="431.3" y="-365.5" font-family="Helvetica,sans-Serif" font-size="10.00">OMSimDetectorConstruction.hh</text>
</a>
</g>
</g>
<!-- Node1&#45;&gt;Node2 -->
<g id="edge1" class="edge">
<title>Node1&#45;&gt;Node2</title>
<path fill="none" stroke="midnightblue" d="M1189.5,-421.19C1089.82,-415.79 788.19,-398.87 526.42,-378.07"/>
<polygon fill="midnightblue" stroke="midnightblue" points="526.59,-374.57 516.35,-377.26 526.04,-381.55 526.59,-374.57"/>
</g>
<!-- Node31 -->
<g id="node31" class="node">
<title>Node31</title>
<g id="a_node31"><a xlink:title=" ">
<polygon fill="white" stroke="#bfbfbf" points="534.8,-358.5 534.8,-377.5 655.8,-377.5 655.8,-358.5 534.8,-358.5"/>
<text text-anchor="middle" x="595.3" y="-365.5" font-family="Helvetica,sans-Serif" font-size="10.00">OMSimPhysicsList.hh</text>
</a>
</g>
</g>
<!-- Node1&#45;&gt;Node31 -->
<g id="edge34" class="edge">
<title>Node1&#45;&gt;Node31</title>
<path fill="none" stroke="midnightblue" d="M1189.54,-420.87C1103.84,-415.32 870.71,-399.47 665.9,-378.12"/>
<polygon fill="midnightblue" stroke="midnightblue" points="666.17,-374.63 655.86,-377.07 665.44,-381.6 666.17,-374.63"/>
</g>
<!-- Node32 -->
<g id="node32" class="node">
<title>Node32</title>
<g id="a_node32"><a xlink:title=" ">
<polygon fill="white" stroke="#bfbfbf" points="673.8,-358.5 673.8,-377.5 858.8,-377.5 858.8,-358.5 673.8,-358.5"/>
<text text-anchor="middle" x="766.3" y="-365.5" font-family="Helvetica,sans-Serif" font-size="10.00">OMSimPrimaryGeneratorAction.hh</text>
</a>
</g>
</g>
<!-- Node1&#45;&gt;Node32 -->
<g id="edge35" class="edge">
<title>Node1&#45;&gt;Node32</title>
<path fill="none" stroke="midnightblue" d="M1189.7,-419.03C1118.45,-410.61 950.45,-390.76 848.8,-378.75"/>
<polygon fill="midnightblue" stroke="midnightblue" points="848.91,-375.24 838.56,-377.54 848.08,-382.19 848.91,-375.24"/>
</g>
<!-- Node33 -->
<g id="node33" class="node">
<title>Node33</title>
<g id="a_node33"><a xlink:href="_o_m_sim_run_action_8hh.html" target="_top" xlink:title=" ">
<polygon fill="white" stroke="black" points="876.3,-358.5 876.3,-377.5 992.3,-377.5 992.3,-358.5 876.3,-358.5"/>
<text text-anchor="middle" x="934.3" y="-365.5" font-family="Helvetica,sans-Serif" font-size="10.00">OMSimRunAction.hh</text>
</a>
</g>
</g>
<!-- Node1&#45;&gt;Node33 -->
<g id="edge36" class="edge">
<title>Node1&#45;&gt;Node33</title>
<path fill="none" stroke="midnightblue" d="M1189.58,-416.7C1140.6,-407.55 1049.18,-390.46 990.07,-379.42"/>
<polygon fill="midnightblue" stroke="midnightblue" points="990.62,-375.96 980.15,-377.57 989.34,-382.84 990.62,-375.96"/>
</g>
<!-- Node35 -->
<g id="node35" class="node">
<title>Node35</title>
<g id="a_node35"><a xlink:title=" ">
<polygon fill="white" stroke="#bfbfbf" points="1010.8,-358.5 1010.8,-377.5 1135.8,-377.5 1135.8,-358.5 1010.8,-358.5"/>
<text text-anchor="middle" x="1073.3" y="-365.5" font-family="Helvetica,sans-Serif" font-size="10.00">OMSimEventAction.hh</text>
</a>
</g>
</g>
<!-- Node1&#45;&gt;Node35 -->
<g id="edge38" class="edge">
<title>Node1&#45;&gt;Node35</title>
<path fill="none" stroke="midnightblue" d="M1199.53,-414.44C1174.41,-405.4 1134.59,-391.06 1106.4,-380.92"/>
<polygon fill="midnightblue" stroke="midnightblue" points="1107.55,-377.61 1096.96,-377.52 1105.18,-384.2 1107.55,-377.61"/>
</g>
<!-- Node36 -->
<g id="node36" class="node">
<title>Node36</title>
<g id="a_node36"><a xlink:href="_o_m_sim_tracking_action_8hh.html" target="_top" xlink:title=" ">
<polygon fill="white" stroke="black" points="1154.3,-358.5 1154.3,-377.5 1292.3,-377.5 1292.3,-358.5 1154.3,-358.5"/>
<text text-anchor="middle" x="1223.3" y="-365.5" font-family="Helvetica,sans-Serif" font-size="10.00">OMSimTrackingAction.hh</text>
</a>
</g>
</g>
<!-- Node1&#45;&gt;Node36 -->
<g id="edge39" class="edge">
<title>Node1&#45;&gt;Node36</title>
<path fill="none" stroke="midnightblue" d="M1223.3,-414.08C1223.3,-407.01 1223.3,-396.86 1223.3,-387.99"/>
<polygon fill="midnightblue" stroke="midnightblue" points="1226.8,-387.75 1223.3,-377.75 1219.8,-387.75 1226.8,-387.75"/>
</g>
<!-- Node38 -->
<g id="node38" class="node">
<title>Node38</title>
<g id="a_node38"><a xlink:href="_o_m_sim_stepping_action_8hh.html" target="_top" xlink:title="Defines OMSimSteppingAction.Currently it only checks for trapped photons.">
<polygon fill="white" stroke="black" points="1310.3,-358.5 1310.3,-377.5 1450.3,-377.5 1450.3,-358.5 1310.3,-358.5"/>
<text text-anchor="middle" x="1380.3" y="-365.5" font-family="Helvetica,sans-Serif" font-size="10.00">OMSimSteppingAction.hh</text>
</a>
</g>
</g>
<!-- Node1&#45;&gt;Node38 -->
<g id="edge41" class="edge">
<title>Node1&#45;&gt;Node38</title>
<path fill="none" stroke="midnightblue" d="M1248.18,-414.44C1274.59,-405.36 1316.52,-390.94 1346.04,-380.78"/>
<polygon fill="midnightblue" stroke="midnightblue" points="1347.22,-384.08 1355.54,-377.52 1344.95,-377.46 1347.22,-384.08"/>
</g>
<!-- Node40 -->
<g id="node40" class="node">
<title>Node40</title>
<g id="a_node40"><a xlink:href="_o_m_sim_u_iinterface_8hh.html" target="_top" xlink:title=" ">
<polygon fill="white" stroke="black" points="156.8,-302.5 156.8,-321.5 277.8,-321.5 277.8,-302.5 156.8,-302.5"/>
<text text-anchor="middle" x="217.3" y="-309.5" font-family="Helvetica,sans-Serif" font-size="10.00">OMSimUIinterface.hh</text>
</a>
</g>
</g>
<!-- Node1&#45;&gt;Node40 -->
<g id="edge43" class="edge">
<title>Node1&#45;&gt;Node40</title>
<path fill="none" stroke="midnightblue" d="M1189.76,-423.27C1048.54,-424.11 502.09,-424.24 337.3,-378 299.41,-367.37 260.17,-343.16 237.28,-327.48"/>
<polygon fill="midnightblue" stroke="midnightblue" points="239,-324.41 228.8,-321.54 234.98,-330.14 239,-324.41"/>
</g>
<!-- Node45 -->
<g id="node45" class="node">
<title>Node45</title>
<g id="a_node45"><a xlink:title=" ">
<polygon fill="white" stroke="#bfbfbf" points="1468.3,-358.5 1468.3,-377.5 1574.3,-377.5 1574.3,-358.5 1468.3,-358.5"/>
<text text-anchor="middle" x="1521.3" y="-365.5" font-family="Helvetica,sans-Serif" font-size="10.00">G4RunManager.hh</text>
</a>
</g>
</g>
<!-- Node1&#45;&gt;Node45 -->
<g id="edge50" class="edge">
<title>Node1&#45;&gt;Node45</title>
<path fill="none" stroke="midnightblue" d="M1256.91,-416.91C1307.3,-407.78 1403.07,-390.42 1464.47,-379.3"/>
<polygon fill="midnightblue" stroke="midnightblue" points="1465.17,-382.73 1474.39,-377.5 1463.92,-375.84 1465.17,-382.73"/>
</g>
<!-- Node46 -->
<g id="node46" class="node">
<title>Node46</title>
<g id="a_node46"><a xlink:title=" ">
<polygon fill="white" stroke="#bfbfbf" points="1592.8,-358.5 1592.8,-377.5 1699.8,-377.5 1699.8,-358.5 1592.8,-358.5"/>
<text text-anchor="middle" x="1646.3" y="-365.5" font-family="Helvetica,sans-Serif" font-size="10.00">G4VisExecutive.hh</text>
</a>
</g>
</g>
<!-- Node1&#45;&gt;Node46 -->
<g id="edge51" class="edge">
<title>Node1&#45;&gt;Node46</title>
<path fill="none" stroke="midnightblue" d="M1257.08,-418.98C1319.19,-411.54 1455.97,-394.96 1582.44,-378.09"/>
<polygon fill="midnightblue" stroke="midnightblue" points="1583.25,-381.52 1592.69,-376.72 1582.32,-374.58 1583.25,-381.52"/>
</g>
<!-- Node47 -->
<g id="node47" class="node">
<title>Node47</title>
<g id="a_node47"><a xlink:title=" ">
<polygon fill="white" stroke="#bfbfbf" points="1717.8,-358.5 1717.8,-377.5 1820.8,-377.5 1820.8,-358.5 1717.8,-358.5"/>
<text text-anchor="middle" x="1769.3" y="-365.5" font-family="Helvetica,sans-Serif" font-size="10.00">G4UIExecutive.hh</text>
</a>
</g>
</g>
<!-- Node1&#45;&gt;Node47 -->
<g id="edge52" class="edge">
<title>Node1&#45;&gt;Node47</title>
<path fill="none" stroke="midnightblue" d="M1256.96,-420.54C1334.53,-414.74 1532.08,-399.15 1707.43,-378.17"/>
<polygon fill="midnightblue" stroke="midnightblue" points="1708.11,-381.61 1717.62,-376.94 1707.27,-374.66 1708.11,-381.61"/>
</g>
<!-- Node48 -->
<g id="node48" class="node">
<title>Node48</title>
<g id="a_node48"><a xlink:title=" ">
<polygon fill="white" stroke="#bfbfbf" points="1839.3,-358.5 1839.3,-377.5 1907.3,-377.5 1907.3,-358.5 1839.3,-358.5"/>
<text text-anchor="middle" x="1873.3" y="-365.5" font-family="Helvetica,sans-Serif" font-size="10.00">filesystem</text>
</a>
</g>
</g>
<!-- Node1&#45;&gt;Node48 -->
<g id="edge53" class="edge">
<title>Node1&#45;&gt;Node48</title>
<path fill="none" stroke="midnightblue" d="M1257.03,-422.06C1347.89,-419.21 1605.49,-408.94 1829.15,-377.98"/>
<polygon fill="midnightblue" stroke="midnightblue" points="1829.69,-381.44 1839.11,-376.58 1828.72,-374.5 1829.69,-381.44"/>
</g>
<!-- Node49 -->
<g id="node49" class="node">
<title>Node49</title>
<g id="a_node49"><a xlink:title=" ">
<polygon fill="white" stroke="#bfbfbf" points="1925.3,-358.5 1925.3,-377.5 2075.3,-377.5 2075.3,-358.5 1925.3,-358.5"/>
<text text-anchor="middle" x="2000.3" y="-365.5" font-family="Helvetica,sans-Serif" font-size="10.00">boost/program_options.hpp</text>
</a>
</g>
</g>
<!-- Node1&#45;&gt;Node49 -->
<g id="edge54" class="edge">
<title>Node1&#45;&gt;Node49</title>
<path fill="none" stroke="midnightblue" d="M1256.87,-421.32C1355.87,-416.26 1655.41,-400.19 1915.21,-378.06"/>
<polygon fill="midnightblue" stroke="midnightblue" points="1915.55,-381.54 1925.21,-377.2 1914.95,-374.57 1915.55,-381.54"/>
</g>
<!-- Node3 -->
<g id="node3" class="node">
<title>Node3</title>
<g id="a_node3"><a xlink:href="_o_m_sim_optical_module_8hh.html" target="_top" xlink:title=" ">
<polygon fill="white" stroke="black" points="572.8,-302.5 572.8,-321.5 709.8,-321.5 709.8,-302.5 572.8,-302.5"/>
<text text-anchor="middle" x="641.3" y="-309.5" font-family="Helvetica,sans-Serif" font-size="10.00">OMSimOpticalModule.hh</text>
</a>
</g>
</g>
<!-- Node2&#45;&gt;Node3 -->
<g id="edge2" class="edge">
<title>Node2&#45;&gt;Node3</title>
<path fill="none" stroke="midnightblue" d="M464.58,-358.44C500.75,-349.14 558.68,-334.25 598.28,-324.06"/>
<polygon fill="midnightblue" stroke="midnightblue" points="599.37,-327.4 608.18,-321.52 597.63,-320.62 599.37,-327.4"/>
</g>
<!-- Node29 -->
<g id="node29" class="node">
<title>Node29</title>
<g id="a_node29"><a xlink:title=" ">
<polygon fill="white" stroke="#bfbfbf" points="296.3,-302.5 296.3,-321.5 358.3,-321.5 358.3,-302.5 296.3,-302.5"/>
<text text-anchor="middle" x="327.3" y="-309.5" font-family="Helvetica,sans-Serif" font-size="10.00">G4Orb.hh</text>
</a>
</g>
</g>
<!-- Node2&#45;&gt;Node29 -->
<g id="edge32" class="edge">
<title>Node2&#45;&gt;Node29</title>
<path fill="none" stroke="midnightblue" d="M414.59,-358.32C397.99,-349.7 372.3,-336.36 353.08,-326.39"/>
<polygon fill="midnightblue" stroke="midnightblue" points="354.46,-323.16 343.97,-321.65 351.23,-329.37 354.46,-323.16"/>
</g>
<!-- Node30 -->
<g id="node30" class="node">
<title>Node30</title>
<g id="a_node30"><a xlink:title=" ">
<polygon fill="white" stroke="#bfbfbf" points="376.3,-302.5 376.3,-321.5 554.3,-321.5 554.3,-302.5 376.3,-302.5"/>
<text text-anchor="middle" x="465.3" y="-309.5" font-family="Helvetica,sans-Serif" font-size="10.00">G4VUserDetectorConstruction.hh</text>
</a>
</g>
</g>
<!-- Node2&#45;&gt;Node30 -->
<g id="edge33" class="edge">
<title>Node2&#45;&gt;Node30</title>
<path fill="none" stroke="midnightblue" d="M436.92,-358.08C441.67,-350.53 448.62,-339.49 454.45,-330.23"/>
<polygon fill="midnightblue" stroke="midnightblue" points="457.43,-332.08 459.79,-321.75 451.5,-328.35 457.43,-332.08"/>
</g>
<!-- Node4 -->
<g id="node4" class="node">
<title>Node4</title>
<g id="a_node4"><a xlink:href="abc_detector_component_8hh.html" target="_top" xlink:title="Provides helper base class abcDetectorComponent for constructing and managing detector components in ...">
<polygon fill="white" stroke="black" points="650.8,-190.5 650.8,-209.5 797.8,-209.5 797.8,-190.5 650.8,-190.5"/>
<text text-anchor="middle" x="724.3" y="-197.5" font-family="Helvetica,sans-Serif" font-size="10.00">abcDetectorComponent.hh</text>
</a>
</g>
</g>
<!-- Node3&#45;&gt;Node4 -->
<g id="edge3" class="edge">
<title>Node3&#45;&gt;Node4</title>
<path fill="none" stroke="midnightblue" d="M641.85,-302.2C643.07,-288.9 646.96,-263.37 659.3,-246 668.71,-232.76 683.3,-222.15 696.27,-214.57"/>
<polygon fill="midnightblue" stroke="midnightblue" points="698.26,-217.47 705.34,-209.58 694.89,-211.33 698.26,-217.47"/>
</g>
<!-- Node18 -->
<g id="node18" class="node">
<title>Node18</title>
<g id="a_node18"><a xlink:href="_o_m_sim_hit_manager_8hh.html" target="_top" xlink:title="Defines structures and classes related to optical module photon hit management.">
<polygon fill="white" stroke="black" points="336.8,-246.5 336.8,-265.5 459.8,-265.5 459.8,-246.5 336.8,-246.5"/>
<text text-anchor="middle" x="398.3" y="-253.5" font-family="Helvetica,sans-Serif" font-size="10.00">OMSimHitManager.hh</text>
</a>
</g>
</g>
<!-- Node3&#45;&gt;Node18 -->
<g id="edge17" class="edge">
<title>Node3&#45;&gt;Node18</title>
<path fill="none" stroke="midnightblue" d="M602.8,-302.44C560.5,-293.04 492.48,-277.93 446.63,-267.74"/>
<polygon fill="midnightblue" stroke="midnightblue" points="447.15,-264.27 436.63,-265.52 445.63,-271.1 447.15,-264.27"/>
</g>
<!-- Node26 -->
<g id="node26" class="node">
<title>Node26</title>
<g id="a_node26"><a xlink:href="_o_m_sim_p_m_t_construction_8hh.html" target="_top" xlink:title="Construction of the PMTs.">
<polygon fill="white" stroke="black" points="668.8,-246.5 668.8,-265.5 817.8,-265.5 817.8,-246.5 668.8,-246.5"/>
<text text-anchor="middle" x="743.3" y="-253.5" font-family="Helvetica,sans-Serif" font-size="10.00">OMSimPMTConstruction.hh</text>
</a>
</g>
</g>
<!-- Node3&#45;&gt;Node26 -->
<g id="edge26" class="edge">
<title>Node3&#45;&gt;Node26</title>
<path fill="none" stroke="midnightblue" d="M657.69,-302.32C673.97,-293.7 699.17,-280.36 718.02,-270.39"/>
<polygon fill="midnightblue" stroke="midnightblue" points="719.75,-273.43 726.95,-265.65 716.48,-267.24 719.75,-273.43"/>
</g>
<!-- Node5 -->
<g id="node5" class="node">
<title>Node5</title>
<g id="a_node5"><a xlink:href="_o_m_sim_input_data_8hh.html" target="_top" xlink:title="Definition of ParameterTable and InputDataManager.">
<polygon fill="white" stroke="black" points="1068.8,-134.5 1068.8,-153.5 1183.8,-153.5 1183.8,-134.5 1068.8,-134.5"/>
<text text-anchor="middle" x="1126.3" y="-141.5" font-family="Helvetica,sans-Serif" font-size="10.00">OMSimInputData.hh</text>
</a>
</g>
</g>
<!-- Node4&#45;&gt;Node5 -->
<g id="edge4" class="edge">
<title>Node4&#45;&gt;Node5</title>
<path fill="none" stroke="midnightblue" d="M788,-190.44C861.8,-180.53 982.89,-164.26 1058.42,-154.12"/>
<polygon fill="midnightblue" stroke="midnightblue" points="1059.32,-157.53 1068.76,-152.73 1058.39,-150.59 1059.32,-157.53"/>
</g>
<!-- Node14 -->
<g id="node14" class="node">
<title>Node14</title>
<g id="a_node14"><a xlink:title=" ">
<polygon fill="white" stroke="#bfbfbf" points="544.8,-134.5 544.8,-153.5 651.8,-153.5 651.8,-134.5 544.8,-134.5"/>
<text text-anchor="middle" x="598.3" y="-141.5" font-family="Helvetica,sans-Serif" font-size="10.00">G4Transform3D.hh</text>
</a>
</g>
</g>
<!-- Node4&#45;&gt;Node14 -->
<g id="edge13" class="edge">
<title>Node4&#45;&gt;Node14</title>
<path fill="none" stroke="midnightblue" d="M704.34,-190.44C683.69,-181.6 651.24,-167.69 627.67,-157.59"/>
<polygon fill="midnightblue" stroke="midnightblue" points="628.74,-154.24 618.17,-153.52 625.99,-160.67 628.74,-154.24"/>
</g>
<!-- Node15 -->
<g id="node15" class="node">
<title>Node15</title>
<g id="a_node15"><a xlink:title=" ">
<polygon fill="white" stroke="#bfbfbf" points="670.3,-134.5 670.3,-153.5 778.3,-153.5 778.3,-134.5 670.3,-134.5"/>
<text text-anchor="middle" x="724.3" y="-141.5" font-family="Helvetica,sans-Serif" font-size="10.00">G4VisAttributes.hh</text>
</a>
</g>
</g>
<!-- Node4&#45;&gt;Node15 -->
<g id="edge14" class="edge">
<title>Node4&#45;&gt;Node15</title>
<path fill="none" stroke="midnightblue" d="M724.3,-190.08C724.3,-183.01 724.3,-172.86 724.3,-163.99"/>
<polygon fill="midnightblue" stroke="midnightblue" points="727.8,-163.75 724.3,-153.75 720.8,-163.75 727.8,-163.75"/>
</g>
<!-- Node16 -->
<g id="node16" class="node">
<title>Node16</title>
<g id="a_node16"><a xlink:title=" ">
<polygon fill="white" stroke="#bfbfbf" points="796.8,-134.5 796.8,-153.5 921.8,-153.5 921.8,-134.5 796.8,-134.5"/>
<text text-anchor="middle" x="859.3" y="-141.5" font-family="Helvetica,sans-Serif" font-size="10.00">G4SubtractionSolid.hh</text>
</a>
</g>
</g>
<!-- Node4&#45;&gt;Node16 -->
<g id="edge15" class="edge">
<title>Node4&#45;&gt;Node16</title>
<path fill="none" stroke="midnightblue" d="M745.69,-190.44C768.01,-181.52 803.21,-167.44 828.51,-157.32"/>
<polygon fill="midnightblue" stroke="midnightblue" points="830.03,-160.48 838.01,-153.52 827.43,-153.98 830.03,-160.48"/>
</g>
<!-- Node17 -->
<g id="node17" class="node">
<title>Node17</title>
<g id="a_node17"><a xlink:title=" ">
<polygon fill="white" stroke="#bfbfbf" points="940.3,-134.5 940.3,-153.5 1050.3,-153.5 1050.3,-134.5 940.3,-134.5"/>
<text text-anchor="middle" x="995.3" y="-141.5" font-family="Helvetica,sans-Serif" font-size="10.00">G4PVPlacement.hh</text>
</a>
</g>
</g>
<!-- Node4&#45;&gt;Node17 -->
<g id="edge16" class="edge">
<title>Node4&#45;&gt;Node17</title>
<path fill="none" stroke="midnightblue" d="M767.24,-190.44C814.82,-180.96 891.55,-165.67 942.69,-155.48"/>
<polygon fill="midnightblue" stroke="midnightblue" points="943.44,-158.9 952.56,-153.52 942.07,-152.04 943.44,-158.9"/>
</g>
<!-- Node6 -->
<g id="node6" class="node">
<title>Node6</title>
<g id="a_node6"><a xlink:href="_o_m_sim_logger_8hh.html" target="_top" xlink:title=" ">
<polygon fill="white" stroke="black" points="216.8,-73 216.8,-92 315.8,-92 315.8,-73 216.8,-73"/>
<text text-anchor="middle" x="266.3" y="-80" font-family="Helvetica,sans-Serif" font-size="10.00">OMSimLogger.hh</text>
</a>
</g>
</g>
<!-- Node5&#45;&gt;Node6 -->
<g id="edge5" class="edge">
<title>Node5&#45;&gt;Node6</title>
<path fill="none" stroke="midnightblue" d="M1068.59,-134.99C1065.45,-134.63 1062.34,-134.3 1059.3,-134 786.3,-107 458.91,-91.48 326.38,-85.89"/>
<polygon fill="midnightblue" stroke="midnightblue" points="326.18,-82.38 316.04,-85.46 325.89,-89.37 326.18,-82.38"/>
</g>
<!-- Node11 -->
<g id="node11" class="node">
<title>Node11</title>
<g id="a_node11"><a xlink:title=" ">
<polygon fill="white" stroke="#bfbfbf" points="981.8,-73 981.8,-92 1124.8,-92 1124.8,-73 981.8,-73"/>
<text text-anchor="middle" x="1053.3" y="-80" font-family="Helvetica,sans-Serif" font-size="10.00">G4OpBoundaryProcess.hh</text>
</a>
</g>
</g>
<!-- Node5&#45;&gt;Node11 -->
<g id="edge10" class="edge">
<title>Node5&#45;&gt;Node11</title>
<path fill="none" stroke="midnightblue" d="M1115.84,-134.48C1104.35,-125.11 1085.67,-109.88 1071.72,-98.51"/>
<polygon fill="midnightblue" stroke="midnightblue" points="1073.7,-95.61 1063.74,-92.01 1069.28,-101.04 1073.7,-95.61"/>
</g>
<!-- Node12 -->
<g id="node12" class="node">
<title>Node12</title>
<g id="a_node12"><a xlink:title=" ">
<polygon fill="white" stroke="#bfbfbf" points="674.8,-73 674.8,-92 793.8,-92 793.8,-73 674.8,-73"/>
<text text-anchor="middle" x="734.3" y="-80" font-family="Helvetica,sans-Serif" font-size="10.00">G4SystemOfUnits.hh</text>
</a>
</g>
</g>
<!-- Node5&#45;&gt;Node12 -->
<g id="edge11" class="edge">
<title>Node5&#45;&gt;Node12</title>
<path fill="none" stroke="midnightblue" d="M1070.14,-134.48C998.82,-123.65 875.96,-105 800.26,-93.51"/>
<polygon fill="midnightblue" stroke="midnightblue" points="800.77,-90.05 790.36,-92.01 799.72,-96.97 800.77,-90.05"/>
</g>
<!-- Node13 -->
<g id="node13" class="node">
<title>Node13</title>
<g id="a_node13"><a xlink:title=" ">
<polygon fill="white" stroke="#bfbfbf" points="1142.8,-67.5 1142.8,-97.5 1255.8,-97.5 1255.8,-67.5 1142.8,-67.5"/>
<text text-anchor="start" x="1150.8" y="-85.5" font-family="Helvetica,sans-Serif" font-size="10.00">boost/property_tree</text>
<text text-anchor="middle" x="1199.3" y="-74.5" font-family="Helvetica,sans-Serif" font-size="10.00">/json_parser.hpp</text>
</a>
</g>
</g>
<!-- Node5&#45;&gt;Node13 -->
<g id="edge12" class="edge">
<title>Node5&#45;&gt;Node13</title>
<path fill="none" stroke="midnightblue" d="M1136.76,-134.48C1146.46,-126.57 1161.29,-114.48 1174.07,-104.07"/>
<polygon fill="midnightblue" stroke="midnightblue" points="1176.56,-106.55 1182.1,-97.52 1172.13,-101.13 1176.56,-106.55"/>
</g>
<!-- Node7 -->
<g id="node7" class="node">
<title>Node7</title>
<g id="a_node7"><a xlink:title=" ">
<polygon fill="white" stroke="#bfbfbf" points="48.8,-6 48.8,-25 141.8,-25 141.8,-6 48.8,-6"/>
<text text-anchor="middle" x="95.3" y="-13" font-family="Helvetica,sans-Serif" font-size="10.00">spdlog/spdlog.h</text>
</a>
</g>
</g>
<!-- Node6&#45;&gt;Node7 -->
<g id="edge6" class="edge">
<title>Node6&#45;&gt;Node7</title>
<path fill="none" stroke="midnightblue" d="M243.59,-72.87C213.74,-61.52 161.14,-41.52 127.27,-28.65"/>
<polygon fill="midnightblue" stroke="midnightblue" points="128.42,-25.35 117.83,-25.06 125.94,-31.89 128.42,-25.35"/>
</g>
<!-- Node8 -->
<g id="node8" class="node">
<title>Node8</title>
<g id="a_node8"><a xlink:title=" ">
<polygon fill="white" stroke="#bfbfbf" points="159.8,-0.5 159.8,-30.5 270.8,-30.5 270.8,-0.5 159.8,-0.5"/>
<text text-anchor="start" x="167.8" y="-18.5" font-family="Helvetica,sans-Serif" font-size="10.00">spdlog/sinks/stdout</text>
<text text-anchor="middle" x="215.3" y="-7.5" font-family="Helvetica,sans-Serif" font-size="10.00">_color_sinks.h</text>
</a>
</g>
</g>
<!-- Node6&#45;&gt;Node8 -->
<g id="edge7" class="edge">
<title>Node6&#45;&gt;Node8</title>
<path fill="none" stroke="midnightblue" d="M259.42,-72.73C252.6,-64.03 241.86,-50.34 232.68,-38.65"/>
<polygon fill="midnightblue" stroke="midnightblue" points="235.28,-36.3 226.36,-30.59 229.78,-40.62 235.28,-36.3"/>
</g>
<!-- Node9 -->
<g id="node9" class="node">
<title>Node9</title>
<g id="a_node9"><a xlink:title=" ">
<polygon fill="white" stroke="#bfbfbf" points="289.3,-6 289.3,-25 347.3,-25 347.3,-6 289.3,-6"/>
<text text-anchor="middle" x="318.3" y="-13" font-family="Helvetica,sans-Serif" font-size="10.00">memory</text>
</a>
</g>
</g>
<!-- Node6&#45;&gt;Node9 -->
<g id="edge8" class="edge">
<title>Node6&#45;&gt;Node9</title>
<path fill="none" stroke="midnightblue" d="M273.32,-72.73C281.42,-62.6 294.95,-45.69 305.06,-33.06"/>
<polygon fill="midnightblue" stroke="midnightblue" points="307.89,-35.12 311.4,-25.13 302.42,-30.75 307.89,-35.12"/>
</g>
<!-- Node10 -->
<g id="node10" class="node">
<title>Node10</title>
<g id="a_node10"><a xlink:title=" ">
<polygon fill="white" stroke="#bfbfbf" points="365.3,-6 365.3,-25 463.3,-25 463.3,-6 365.3,-6"/>
<text text-anchor="middle" x="414.3" y="-13" font-family="Helvetica,sans-Serif" font-size="10.00">spdlog/fmt/fmt.h</text>
</a>
</g>
</g>
<!-- Node6&#45;&gt;Node10 -->
<g id="edge9" class="edge">
<title>Node6&#45;&gt;Node10</title>
<path fill="none" stroke="midnightblue" d="M285.96,-72.87C311.39,-61.7 355.91,-42.15 385.25,-29.26"/>
<polygon fill="midnightblue" stroke="midnightblue" points="386.82,-32.39 394.57,-25.17 384,-25.98 386.82,-32.39"/>
</g>
<!-- Node19 -->
<g id="node19" class="node">
<title>Node19</title>
<g id="a_node19"><a xlink:href="_o_m_sim_p_m_t_response_8hh.html" target="_top" xlink:title="Simulation of PMT response.">
<polygon fill="white" stroke="black" points="395.8,-190.5 395.8,-209.5 530.8,-209.5 530.8,-190.5 395.8,-190.5"/>
<text text-anchor="middle" x="463.3" y="-197.5" font-family="Helvetica,sans-Serif" font-size="10.00">OMSimPMTResponse.hh</text>
</a>
</g>
</g>
<!-- Node18&#45;&gt;Node19 -->
<g id="edge18" class="edge">
<title>Node18&#45;&gt;Node19</title>
<path fill="none" stroke="midnightblue" d="M408.75,-246.32C418.45,-238.26 433.12,-226.08 444.8,-216.37"/>
<polygon fill="midnightblue" stroke="midnightblue" points="447.21,-218.92 452.67,-209.83 442.74,-213.53 447.21,-218.92"/>
</g>
<!-- Node24 -->
<g id="node24" class="node">
<title>Node24</title>
<g id="a_node24"><a xlink:title=" ">
<polygon fill="white" stroke="#bfbfbf" points="274.8,-190.5 274.8,-209.5 377.8,-209.5 377.8,-190.5 274.8,-190.5"/>
<text text-anchor="middle" x="326.3" y="-197.5" font-family="Helvetica,sans-Serif" font-size="10.00">G4ThreeVector.hh</text>
</a>
</g>
</g>
<!-- Node18&#45;&gt;Node24 -->
<g id="edge24" class="edge">
<title>Node18&#45;&gt;Node24</title>
<path fill="none" stroke="midnightblue" d="M386.73,-246.32C375.88,-238.18 359.42,-225.84 346.42,-216.09"/>
<polygon fill="midnightblue" stroke="midnightblue" points="348.18,-213.03 338.08,-209.83 343.98,-218.63 348.18,-213.03"/>
</g>
<!-- Node25 -->
<g id="node25" class="node">
<title>Node25</title>
<g id="a_node25"><a xlink:title=" ">
<polygon fill="white" stroke="#bfbfbf" points="201.8,-190.5 201.8,-209.5 256.8,-209.5 256.8,-190.5 201.8,-190.5"/>
<text text-anchor="middle" x="229.3" y="-197.5" font-family="Helvetica,sans-Serif" font-size="10.00">fstream</text>
</a>
</g>
</g>
<!-- Node18&#45;&gt;Node25 -->
<g id="edge25" class="edge">
<title>Node18&#45;&gt;Node25</title>
<path fill="none" stroke="midnightblue" d="M371.52,-246.44C342.97,-237.32 297.57,-222.81 265.77,-212.65"/>
<polygon fill="midnightblue" stroke="midnightblue" points="266.55,-209.23 255.96,-209.52 264.42,-215.89 266.55,-209.23"/>
</g>
<!-- Node19&#45;&gt;Node12 -->
<g id="edge19" class="edge">
<title>Node19&#45;&gt;Node12</title>
<path fill="none" stroke="midnightblue" d="M399.59,-190.49C336.44,-181.4 247.64,-166.6 237.3,-154 231.66,-147.13 231.34,-140.6 237.3,-134 265.4,-102.91 534.33,-89.98 664.45,-85.51"/>
<polygon fill="midnightblue" stroke="midnightblue" points="664.84,-89 674.71,-85.17 664.6,-82 664.84,-89"/>
</g>
<!-- Node20 -->
<g id="node20" class="node">
<title>Node20</title>
<g id="a_node20"><a xlink:title=" ">
<polygon fill="white" stroke="#bfbfbf" points="246.8,-134.5 246.8,-153.5 319.8,-153.5 319.8,-134.5 246.8,-134.5"/>
<text text-anchor="middle" x="283.3" y="-141.5" font-family="Helvetica,sans-Serif" font-size="10.00">G4Types.hh</text>
</a>
</g>
</g>
<!-- Node19&#45;&gt;Node20 -->
<g id="edge20" class="edge">
<title>Node19&#45;&gt;Node20</title>
<path fill="none" stroke="midnightblue" d="M434.78,-190.44C404.24,-181.28 355.59,-166.69 321.7,-156.52"/>
<polygon fill="midnightblue" stroke="midnightblue" points="322.27,-153.04 311.69,-153.52 320.26,-159.74 322.27,-153.04"/>
</g>
<!-- Node21 -->
<g id="node21" class="node">
<title>Node21</title>
<g id="a_node21"><a xlink:title=" ">
<polygon fill="white" stroke="#bfbfbf" points="338.3,-134.5 338.3,-153.5 376.3,-153.5 376.3,-134.5 338.3,-134.5"/>
<text text-anchor="middle" x="357.3" y="-141.5" font-family="Helvetica,sans-Serif" font-size="10.00">map</text>
</a>
</g>
</g>
<!-- Node19&#45;&gt;Node21 -->
<g id="edge21" class="edge">
<title>Node19&#45;&gt;Node21</title>
<path fill="none" stroke="midnightblue" d="M446.27,-190.32C429.27,-181.66 402.93,-168.24 383.31,-158.25"/>
<polygon fill="midnightblue" stroke="midnightblue" points="384.79,-155.08 374.29,-153.65 381.61,-161.31 384.79,-155.08"/>
</g>
<!-- Node22 -->
<g id="node22" class="node">
<title>Node22</title>
<g id="a_node22"><a xlink:title=" ">
<polygon fill="white" stroke="#bfbfbf" points="394.8,-134.5 394.8,-153.5 455.8,-153.5 455.8,-134.5 394.8,-134.5"/>
<text text-anchor="middle" x="425.3" y="-141.5" font-family="Helvetica,sans-Serif" font-size="10.00">TGraph.h</text>
</a>
</g>
</g>
<!-- Node19&#45;&gt;Node22 -->
<g id="edge22" class="edge">
<title>Node19&#45;&gt;Node22</title>
<path fill="none" stroke="midnightblue" d="M457.03,-190.08C451.66,-182.46 443.78,-171.26 437.22,-161.94"/>
<polygon fill="midnightblue" stroke="midnightblue" points="440.08,-159.91 431.46,-153.75 434.35,-163.94 440.08,-159.91"/>
</g>
<!-- Node23 -->
<g id="node23" class="node">
<title>Node23</title>
<g id="a_node23"><a xlink:title=" ">
<polygon fill="white" stroke="#bfbfbf" points="473.8,-134.5 473.8,-153.5 526.8,-153.5 526.8,-134.5 473.8,-134.5"/>
<text text-anchor="middle" x="500.3" y="-141.5" font-family="Helvetica,sans-Serif" font-size="10.00">TH2D.h</text>
</a>
</g>
</g>
<!-- Node19&#45;&gt;Node23 -->
<g id="edge23" class="edge">
<title>Node19&#45;&gt;Node23</title>
<path fill="none" stroke="midnightblue" d="M469.41,-190.08C474.58,-182.53 482.15,-171.49 488.5,-162.23"/>
<polygon fill="midnightblue" stroke="midnightblue" points="491.54,-163.98 494.31,-153.75 485.77,-160.02 491.54,-163.98"/>
</g>
<!-- Node26&#45;&gt;Node4 -->
<g id="edge27" class="edge">
<title>Node26&#45;&gt;Node4</title>
<path fill="none" stroke="midnightblue" d="M740.16,-246.08C737.62,-238.85 733.95,-228.41 730.78,-219.4"/>
<polygon fill="midnightblue" stroke="midnightblue" points="734,-218.02 727.38,-209.75 727.4,-220.35 734,-218.02"/>
</g>
<!-- Node26&#45;&gt;Node19 -->
<g id="edge29" class="edge">
<title>Node26&#45;&gt;Node19</title>
<path fill="none" stroke="midnightblue" d="M698.94,-246.44C649.68,-236.94 570.17,-221.61 517.33,-211.42"/>
<polygon fill="midnightblue" stroke="midnightblue" points="517.94,-207.97 507.46,-209.52 516.62,-214.85 517.94,-207.97"/>
</g>
<!-- Node26&#45;&gt;Node26 -->
<g id="edge28" class="edge">
<title>Node26&#45;&gt;Node26</title>
<path fill="none" stroke="midnightblue" d="M782.75,-265.53C809.56,-268.31 835.8,-265.13 835.8,-256 835.8,-248.01 815.71,-244.58 792.73,-245.71"/>
<polygon fill="midnightblue" stroke="midnightblue" points="792.46,-242.22 782.75,-246.47 792.99,-249.2 792.46,-242.22"/>
</g>
<!-- Node27 -->
<g id="node27" class="node">
<title>Node27</title>
<g id="a_node27"><a xlink:title=" ">
<polygon fill="white" stroke="#bfbfbf" points="901.3,-190.5 901.3,-209.5 999.3,-209.5 999.3,-190.5 901.3,-190.5"/>
<text text-anchor="middle" x="950.3" y="-197.5" font-family="Helvetica,sans-Serif" font-size="10.00">G4UnionSolid.hh</text>
</a>
</g>
</g>
<!-- Node26&#45;&gt;Node27 -->
<g id="edge30" class="edge">
<title>Node26&#45;&gt;Node27</title>
<path fill="none" stroke="midnightblue" d="M776.1,-246.44C811.68,-237.16 868.62,-222.31 907.65,-212.13"/>
<polygon fill="midnightblue" stroke="midnightblue" points="908.86,-215.43 917.66,-209.52 907.1,-208.65 908.86,-215.43"/>
</g>
<!-- Node28 -->
<g id="node28" class="node">
<title>Node28</title>
<g id="a_node28"><a xlink:title=" ">
<polygon fill="white" stroke="#bfbfbf" points="815.8,-190.5 815.8,-209.5 882.8,-209.5 882.8,-190.5 815.8,-190.5"/>
<text text-anchor="middle" x="849.3" y="-197.5" font-family="Helvetica,sans-Serif" font-size="10.00">G4Tubs.hh</text>
</a>
</g>
</g>
<!-- Node26&#45;&gt;Node28 -->
<g id="edge31" class="edge">
<title>Node26&#45;&gt;Node28</title>
<path fill="none" stroke="midnightblue" d="M760.33,-246.32C777.33,-237.66 803.68,-224.24 823.29,-214.25"/>
<polygon fill="midnightblue" stroke="midnightblue" points="824.99,-217.31 832.31,-209.65 821.81,-211.08 824.99,-217.31"/>
</g>
<!-- Node34 -->
<g id="node34" class="node">
<title>Node34</title>
<g id="a_node34"><a xlink:title=" ">
<polygon fill="white" stroke="#bfbfbf" points="875.8,-302.5 875.8,-321.5 992.8,-321.5 992.8,-302.5 875.8,-302.5"/>
<text text-anchor="middle" x="934.3" y="-309.5" font-family="Helvetica,sans-Serif" font-size="10.00">G4UserRunAction.hh</text>
</a>
</g>
</g>
<!-- Node33&#45;&gt;Node34 -->
<g id="edge37" class="edge">
<title>Node33&#45;&gt;Node34</title>
<path fill="none" stroke="midnightblue" d="M934.3,-358.08C934.3,-351.01 934.3,-340.86 934.3,-331.99"/>
<polygon fill="midnightblue" stroke="midnightblue" points="937.8,-331.75 934.3,-321.75 930.8,-331.75 937.8,-331.75"/>
</g>
<!-- Node37 -->
<g id="node37" class="node">
<title>Node37</title>
<g id="a_node37"><a xlink:title=" ">
<polygon fill="white" stroke="#bfbfbf" points="1152.8,-302.5 1152.8,-321.5 1291.8,-321.5 1291.8,-302.5 1152.8,-302.5"/>
<text text-anchor="middle" x="1222.3" y="-309.5" font-family="Helvetica,sans-Serif" font-size="10.00">G4UserTrackingAction.hh</text>
</a>
</g>
</g>
<!-- Node36&#45;&gt;Node37 -->
<g id="edge40" class="edge">
<title>Node36&#45;&gt;Node37</title>
<path fill="none" stroke="midnightblue" d="M1223.14,-358.08C1223.01,-351.01 1222.82,-340.86 1222.65,-331.99"/>
<polygon fill="midnightblue" stroke="midnightblue" points="1226.15,-331.68 1222.46,-321.75 1219.15,-331.81 1226.15,-331.68"/>
</g>
<!-- Node39 -->
<g id="node39" class="node">
<title>Node39</title>
<g id="a_node39"><a xlink:title=" ">
<polygon fill="white" stroke="#bfbfbf" points="1309.8,-302.5 1309.8,-321.5 1450.8,-321.5 1450.8,-302.5 1309.8,-302.5"/>
<text text-anchor="middle" x="1380.3" y="-309.5" font-family="Helvetica,sans-Serif" font-size="10.00">G4UserSteppingAction.hh</text>
</a>
</g>
</g>
<!-- Node38&#45;&gt;Node39 -->
<g id="edge42" class="edge">
<title>Node38&#45;&gt;Node39</title>
<path fill="none" stroke="midnightblue" d="M1380.3,-358.08C1380.3,-351.01 1380.3,-340.86 1380.3,-331.99"/>
<polygon fill="midnightblue" stroke="midnightblue" points="1383.8,-331.75 1380.3,-321.75 1376.8,-331.75 1383.8,-331.75"/>
</g>
<!-- Node41 -->
<g id="node41" class="node">
<title>Node41</title>
<g id="a_node41"><a xlink:href="_o_m_sim_command_args_table_8hh.html" target="_top" xlink:title="Definition of the OMSimCommandArgsTable singleton class, which controls user args.">
<polygon fill="white" stroke="black" points="5.3,-246.5 5.3,-265.5 169.3,-265.5 169.3,-246.5 5.3,-246.5"/>
<text text-anchor="middle" x="87.3" y="-253.5" font-family="Helvetica,sans-Serif" font-size="10.00">OMSimCommandArgsTable.hh</text>
</a>
</g>
</g>
<!-- Node40&#45;&gt;Node41 -->
<g id="edge44" class="edge">
<title>Node40&#45;&gt;Node41</title>
<path fill="none" stroke="midnightblue" d="M196.7,-302.44C175.31,-293.56 141.62,-279.56 117.28,-269.45"/>
<polygon fill="midnightblue" stroke="midnightblue" points="118.38,-266.12 107.8,-265.52 115.7,-272.58 118.38,-266.12"/>
</g>
<!-- Node44 -->
<g id="node44" class="node">
<title>Node44</title>
<g id="a_node44"><a xlink:title=" ">
<polygon fill="white" stroke="#bfbfbf" points="187.3,-246.5 187.3,-265.5 285.3,-265.5 285.3,-246.5 187.3,-246.5"/>
<text text-anchor="middle" x="236.3" y="-253.5" font-family="Helvetica,sans-Serif" font-size="10.00">G4UImanager.hh</text>
</a>
</g>
</g>
<!-- Node40&#45;&gt;Node44 -->
<g id="edge49" class="edge">
<title>Node40&#45;&gt;Node44</title>
<path fill="none" stroke="midnightblue" d="M220.44,-302.08C222.99,-294.85 226.66,-284.41 229.83,-275.4"/>
<polygon fill="midnightblue" stroke="midnightblue" points="233.21,-276.35 233.22,-265.75 226.6,-274.02 233.21,-276.35"/>
</g>
<!-- Node41&#45;&gt;Node6 -->
<g id="edge45" class="edge">
<title>Node41&#45;&gt;Node6</title>
<path fill="none" stroke="midnightblue" d="M59.08,-246.47C28.74,-235.77 -12.97,-215.66 4.3,-190 49.29,-123.15 144.27,-98.24 206.66,-88.97"/>
<polygon fill="midnightblue" stroke="midnightblue" points="207.34,-92.41 216.76,-87.57 206.37,-85.48 207.34,-92.41"/>
</g>
<!-- Node41&#45;&gt;Node25 -->
<g id="edge46" class="edge">
<title>Node41&#45;&gt;Node25</title>
<path fill="none" stroke="midnightblue" d="M109.8,-246.44C133.38,-237.48 170.62,-223.31 197.27,-213.18"/>
<polygon fill="midnightblue" stroke="midnightblue" points="198.8,-216.34 206.91,-209.52 196.32,-209.8 198.8,-216.34"/>
</g>
<!-- Node42 -->
<g id="node42" class="node">
<title>Node42</title>
<g id="a_node42"><a xlink:title=" ">
<polygon fill="white" stroke="#bfbfbf" points="13.3,-190.5 13.3,-209.5 97.3,-209.5 97.3,-190.5 13.3,-190.5"/>
<text text-anchor="middle" x="55.3" y="-197.5" font-family="Helvetica,sans-Serif" font-size="10.00">boost/any.hpp</text>
</a>
</g>
</g>
<!-- Node41&#45;&gt;Node42 -->
<g id="edge47" class="edge">
<title>Node41&#45;&gt;Node42</title>
<path fill="none" stroke="midnightblue" d="M82.02,-246.08C77.59,-238.61 71.14,-227.72 65.68,-218.52"/>
<polygon fill="midnightblue" stroke="midnightblue" points="68.6,-216.57 60.49,-209.75 62.58,-220.14 68.6,-216.57"/>
</g>
<!-- Node43 -->
<g id="node43" class="node">
<title>Node43</title>
<g id="a_node43"><a xlink:title=" ">
<polygon fill="white" stroke="#bfbfbf" points="115.3,-190.5 115.3,-209.5 183.3,-209.5 183.3,-190.5 115.3,-190.5"/>
<text text-anchor="middle" x="149.3" y="-197.5" font-family="Helvetica,sans-Serif" font-size="10.00">sys/time.h</text>
</a>
</g>
</g>
<!-- Node41&#45;&gt;Node43 -->
<g id="edge48" class="edge">
<title>Node41&#45;&gt;Node43</title>
<path fill="none" stroke="midnightblue" d="M97.26,-246.32C106.43,-238.34 120.24,-226.31 131.33,-216.65"/>
<polygon fill="midnightblue" stroke="midnightblue" points="133.92,-219.04 139.16,-209.83 129.32,-213.76 133.92,-219.04"/>
</g>
</g>
</svg>
