<?xml version="1.0" encoding="UTF-8" standalone="no"?>
<!DOCTYPE svg PUBLIC "-//W3C//DTD SVG 1.1//EN"
 "http://www.w3.org/Graphics/SVG/1.1/DTD/svg11.dtd">
<!-- Generated by graphviz version 2.43.0 (0)
 -->
<!-- Title: OMSimLOM18.cc Pages: 1 -->
<svg width="2740pt" height="375pt"
 viewBox="0.00 0.00 2739.50 375.00" xmlns="http://www.w3.org/2000/svg" xmlns:xlink="http://www.w3.org/1999/xlink">
<g id="graph0" class="graph" transform="scale(1 1) rotate(0) translate(4 371)">
<title>OMSimLOM18.cc</title>
<polygon fill="white" stroke="transparent" points="-4,4 -4,-371 2735.5,-371 2735.5,4 -4,4"/>
<!-- Node1 -->
<g id="node1" class="node">
<title>Node1</title>
<g id="a_node1"><a xlink:title=" ">
<polygon fill="#bfbfbf" stroke="black" points="1146,-347.5 1146,-366.5 1245,-366.5 1245,-347.5 1146,-347.5"/>
<text text-anchor="middle" x="1195.5" y="-354.5" font-family="Helvetica,sans-Serif" font-size="10.00">OMSimLOM18.cc</text>
</a>
</g>
</g>
<!-- Node2 -->
<g id="node2" class="node">
<title>Node2</title>
<g id="a_node2"><a xlink:href="_o_m_sim_l_o_m18_8hh.html" target="_top" xlink:title="Construction of LOM18.">
<polygon fill="white" stroke="black" points="728,-291.5 728,-310.5 829,-310.5 829,-291.5 728,-291.5"/>
<text text-anchor="middle" x="778.5" y="-298.5" font-family="Helvetica,sans-Serif" font-size="10.00">OMSimLOM18.hh</text>
</a>
</g>
</g>
<!-- Node1&#45;&gt;Node2 -->
<g id="edge1" class="edge">
<title>Node1&#45;&gt;Node2</title>
<path fill="none" stroke="midnightblue" d="M1145.61,-349.54C1068.83,-339.6 921.91,-320.57 839.11,-309.85"/>
<polygon fill="midnightblue" stroke="midnightblue" points="839.46,-306.36 829.09,-308.55 838.56,-313.31 839.46,-306.36"/>
</g>
<!-- Node26 -->
<g id="node26" class="node">
<title>Node26</title>
<g id="a_node26"><a xlink:href="_c_a_d_mesh_8hh.html" target="_top" xlink:title=" ">
<polygon fill="white" stroke="black" points="1842,-179.5 1842,-198.5 1921,-198.5 1921,-179.5 1842,-179.5"/>
<text text-anchor="middle" x="1881.5" y="-186.5" font-family="Helvetica,sans-Serif" font-size="10.00">CADMesh.hh</text>
</a>
</g>
</g>
<!-- Node1&#45;&gt;Node26 -->
<g id="edge30" class="edge">
<title>Node1&#45;&gt;Node26</title>
<path fill="none" stroke="midnightblue" d="M1205.17,-347.44C1221.77,-333.26 1257.3,-305.06 1292.5,-291 1481.82,-215.36 1727.53,-196.33 1831.52,-191.57"/>
<polygon fill="midnightblue" stroke="midnightblue" points="1831.89,-195.06 1841.72,-191.13 1831.58,-188.07 1831.89,-195.06"/>
</g>
<!-- Node43 -->
<g id="node43" class="node">
<title>Node43</title>
<g id="a_node43"><a xlink:href="_o_m_sim_logger_8hh.html" target="_top" xlink:title=" ">
<polygon fill="white" stroke="black" points="920,-235.5 920,-254.5 1019,-254.5 1019,-235.5 920,-235.5"/>
<text text-anchor="middle" x="969.5" y="-242.5" font-family="Helvetica,sans-Serif" font-size="10.00">OMSimLogger.hh</text>
</a>
</g>
</g>
<!-- Node1&#45;&gt;Node43 -->
<g id="edge51" class="edge">
<title>Node1&#45;&gt;Node43</title>
<path fill="none" stroke="midnightblue" d="M1145.85,-350.59C1110.45,-344.94 1062.87,-333.58 1026.5,-311 1007.04,-298.92 990.53,-278.15 980.37,-263.34"/>
<polygon fill="midnightblue" stroke="midnightblue" points="983.05,-261.05 974.63,-254.62 977.2,-264.9 983.05,-261.05"/>
</g>
<!-- Node46 -->
<g id="node46" class="node">
<title>Node46</title>
<g id="a_node46"><a xlink:href="_o_m_sim_command_args_table_8hh.html" target="_top" xlink:title="Definition of the OMSimCommandArgsTable singleton class, which controls user args.">
<polygon fill="white" stroke="black" points="1035.5,-291.5 1035.5,-310.5 1199.5,-310.5 1199.5,-291.5 1035.5,-291.5"/>
<text text-anchor="middle" x="1117.5" y="-298.5" font-family="Helvetica,sans-Serif" font-size="10.00">OMSimCommandArgsTable.hh</text>
</a>
</g>
</g>
<!-- Node1&#45;&gt;Node46 -->
<g id="edge54" class="edge">
<title>Node1&#45;&gt;Node46</title>
<path fill="none" stroke="midnightblue" d="M1182.97,-347.32C1170.91,-338.98 1152.47,-326.21 1138.23,-316.35"/>
<polygon fill="midnightblue" stroke="midnightblue" points="1140.22,-313.47 1130,-310.65 1136.23,-319.22 1140.22,-313.47"/>
</g>
<!-- Node49 -->
<g id="node49" class="node">
<title>Node49</title>
<g id="a_node49"><a xlink:title=" ">
<polygon fill="white" stroke="#bfbfbf" points="1302,-291.5 1302,-310.5 1371,-310.5 1371,-291.5 1302,-291.5"/>
<text text-anchor="middle" x="1336.5" y="-298.5" font-family="Helvetica,sans-Serif" font-size="10.00">G4Cons.hh</text>
</a>
</g>
</g>
<!-- Node1&#45;&gt;Node49 -->
<g id="edge59" class="edge">
<title>Node1&#45;&gt;Node49</title>
<path fill="none" stroke="midnightblue" d="M1217.84,-347.44C1241.25,-338.48 1278.24,-324.31 1304.69,-314.18"/>
<polygon fill="midnightblue" stroke="midnightblue" points="1306.18,-317.36 1314.26,-310.52 1303.67,-310.82 1306.18,-317.36"/>
</g>
<!-- Node50 -->
<g id="node50" class="node">
<title>Node50</title>
<g id="a_node50"><a xlink:title=" ">
<polygon fill="white" stroke="#bfbfbf" points="1389,-291.5 1389,-310.5 1516,-310.5 1516,-291.5 1389,-291.5"/>
<text text-anchor="middle" x="1452.5" y="-298.5" font-family="Helvetica,sans-Serif" font-size="10.00">G4IntersectionSolid.hh</text>
</a>
</g>
</g>
<!-- Node1&#45;&gt;Node50 -->
<g id="edge60" class="edge">
<title>Node1&#45;&gt;Node50</title>
<path fill="none" stroke="midnightblue" d="M1236.22,-347.44C1281.15,-338 1353.5,-322.8 1402,-312.61"/>
<polygon fill="midnightblue" stroke="midnightblue" points="1402.9,-316 1411.97,-310.52 1401.46,-309.15 1402.9,-316"/>
</g>
<!-- Node3 -->
<g id="node3" class="node">
<title>Node3</title>
<g id="a_node3"><a xlink:href="_o_m_sim_p_m_t_construction_8hh.html" target="_top" xlink:title="Construction of the PMTs.">
<polygon fill="white" stroke="black" points="500,-179.5 500,-198.5 649,-198.5 649,-179.5 500,-179.5"/>
<text text-anchor="middle" x="574.5" y="-186.5" font-family="Helvetica,sans-Serif" font-size="10.00">OMSimPMTConstruction.hh</text>
</a>
</g>
</g>
<!-- Node2&#45;&gt;Node3 -->
<g id="edge2" class="edge">
<title>Node2&#45;&gt;Node3</title>
<path fill="none" stroke="midnightblue" d="M727.58,-293.4C679.69,-286.2 612.56,-273.21 593.5,-255 581.02,-243.08 576.61,-223.46 575.11,-208.89"/>
<polygon fill="midnightblue" stroke="midnightblue" points="578.58,-208.29 574.44,-198.53 571.59,-208.74 578.58,-208.29"/>
</g>
<!-- Node20 -->
<g id="node20" class="node">
<title>Node20</title>
<g id="a_node20"><a xlink:href="_o_m_sim_optical_module_8hh.html" target="_top" xlink:title=" ">
<polygon fill="white" stroke="black" points="710,-235.5 710,-254.5 847,-254.5 847,-235.5 710,-235.5"/>
<text text-anchor="middle" x="778.5" y="-242.5" font-family="Helvetica,sans-Serif" font-size="10.00">OMSimOpticalModule.hh</text>
</a>
</g>
</g>
<!-- Node2&#45;&gt;Node20 -->
<g id="edge21" class="edge">
<title>Node2&#45;&gt;Node20</title>
<path fill="none" stroke="midnightblue" d="M778.5,-291.08C778.5,-284.01 778.5,-273.86 778.5,-264.99"/>
<polygon fill="midnightblue" stroke="midnightblue" points="782,-264.75 778.5,-254.75 775,-264.75 782,-264.75"/>
</g>
<!-- Node24 -->
<g id="node24" class="node">
<title>Node24</title>
<g id="a_node24"><a xlink:title=" ">
<polygon fill="white" stroke="#bfbfbf" points="1039.5,-123.5 1039.5,-142.5 1155.5,-142.5 1155.5,-123.5 1039.5,-123.5"/>
<text text-anchor="middle" x="1097.5" y="-130.5" font-family="Helvetica,sans-Serif" font-size="10.00">G4LogicalVolume.hh</text>
</a>
</g>
</g>
<!-- Node2&#45;&gt;Node24 -->
<g id="edge28" class="edge">
<title>Node2&#45;&gt;Node24</title>
<path fill="none" stroke="midnightblue" d="M799.98,-291.46C816.79,-283.91 839.85,-271.53 855.5,-255 881.6,-227.43 864.45,-202.2 894.5,-179 905.97,-170.15 982.86,-154.71 1038.62,-144.42"/>
<polygon fill="midnightblue" stroke="midnightblue" points="1039.56,-147.8 1048.77,-142.56 1038.3,-140.92 1039.56,-147.8"/>
</g>
<!-- Node25 -->
<g id="node25" class="node">
<title>Node25</title>
<g id="a_node25"><a xlink:title=" ">
<polygon fill="white" stroke="#bfbfbf" points="603,-235.5 603,-254.5 692,-254.5 692,-235.5 603,-235.5"/>
<text text-anchor="middle" x="647.5" y="-242.5" font-family="Helvetica,sans-Serif" font-size="10.00">G4Polycone.hh</text>
</a>
</g>
</g>
<!-- Node2&#45;&gt;Node25 -->
<g id="edge29" class="edge">
<title>Node2&#45;&gt;Node25</title>
<path fill="none" stroke="midnightblue" d="M757.74,-291.44C736.18,-282.56 702.24,-268.56 677.71,-258.45"/>
<polygon fill="midnightblue" stroke="midnightblue" points="678.74,-255.09 668.16,-254.52 676.07,-261.56 678.74,-255.09"/>
</g>
<!-- Node3&#45;&gt;Node3 -->
<g id="edge12" class="edge">
<title>Node3&#45;&gt;Node3</title>
<path fill="none" stroke="midnightblue" d="M613.95,-198.53C640.76,-201.31 667,-198.13 667,-189 667,-181.01 646.91,-177.58 623.93,-178.71"/>
<polygon fill="midnightblue" stroke="midnightblue" points="623.65,-175.22 613.95,-179.47 624.19,-182.2 623.65,-175.22"/>
</g>
<!-- Node4 -->
<g id="node4" class="node">
<title>Node4</title>
<g id="a_node4"><a xlink:href="abc_detector_component_8hh.html" target="_top" xlink:title="Provides helper base class abcDetectorComponent for constructing and managing detector components in ...">
<polygon fill="white" stroke="black" points="501,-123.5 501,-142.5 648,-142.5 648,-123.5 501,-123.5"/>
<text text-anchor="middle" x="574.5" y="-130.5" font-family="Helvetica,sans-Serif" font-size="10.00">abcDetectorComponent.hh</text>
</a>
</g>
</g>
<!-- Node3&#45;&gt;Node4 -->
<g id="edge3" class="edge">
<title>Node3&#45;&gt;Node4</title>
<path fill="none" stroke="midnightblue" d="M574.5,-179.08C574.5,-172.01 574.5,-161.86 574.5,-152.99"/>
<polygon fill="midnightblue" stroke="midnightblue" points="578,-152.75 574.5,-142.75 571,-152.75 578,-152.75"/>
</g>
<!-- Node13 -->
<g id="node13" class="node">
<title>Node13</title>
<g id="a_node13"><a xlink:href="_o_m_sim_p_m_t_response_8hh.html" target="_top" xlink:title="Provides simulation for PMT response. This class is responsible for transforming hits on photocathode...">
<polygon fill="white" stroke="black" points="692,-123.5 692,-142.5 827,-142.5 827,-123.5 692,-123.5"/>
<text text-anchor="middle" x="759.5" y="-130.5" font-family="Helvetica,sans-Serif" font-size="10.00">OMSimPMTResponse.hh</text>
</a>
</g>
</g>
<!-- Node3&#45;&gt;Node13 -->
<g id="edge13" class="edge">
<title>Node3&#45;&gt;Node13</title>
<path fill="none" stroke="midnightblue" d="M603.81,-179.44C635.34,-170.24 685.63,-155.56 720.49,-145.39"/>
<polygon fill="midnightblue" stroke="midnightblue" points="721.7,-148.68 730.32,-142.52 719.74,-141.96 721.7,-148.68"/>
</g>
<!-- Node18 -->
<g id="node18" class="node">
<title>Node18</title>
<g id="a_node18"><a xlink:title=" ">
<polygon fill="white" stroke="#bfbfbf" points="299.5,-123.5 299.5,-142.5 397.5,-142.5 397.5,-123.5 299.5,-123.5"/>
<text text-anchor="middle" x="348.5" y="-130.5" font-family="Helvetica,sans-Serif" font-size="10.00">G4UnionSolid.hh</text>
</a>
</g>
</g>
<!-- Node3&#45;&gt;Node18 -->
<g id="edge19" class="edge">
<title>Node3&#45;&gt;Node18</title>
<path fill="none" stroke="midnightblue" d="M538.69,-179.44C499.51,-170.08 436.62,-155.06 393.98,-144.87"/>
<polygon fill="midnightblue" stroke="midnightblue" points="394.68,-141.44 384.14,-142.52 393.06,-148.24 394.68,-141.44"/>
</g>
<!-- Node19 -->
<g id="node19" class="node">
<title>Node19</title>
<g id="a_node19"><a xlink:title=" ">
<polygon fill="white" stroke="#bfbfbf" points="416,-123.5 416,-142.5 483,-142.5 483,-123.5 416,-123.5"/>
<text text-anchor="middle" x="449.5" y="-130.5" font-family="Helvetica,sans-Serif" font-size="10.00">G4Tubs.hh</text>
</a>
</g>
</g>
<!-- Node3&#45;&gt;Node19 -->
<g id="edge20" class="edge">
<title>Node3&#45;&gt;Node19</title>
<path fill="none" stroke="midnightblue" d="M554.69,-179.44C534.21,-170.6 502.02,-156.69 478.64,-146.59"/>
<polygon fill="midnightblue" stroke="midnightblue" points="479.78,-143.27 469.21,-142.52 477.01,-149.7 479.78,-143.27"/>
</g>
<!-- Node5 -->
<g id="node5" class="node">
<title>Node5</title>
<g id="a_node5"><a xlink:href="_o_m_sim_input_data_8hh.html" target="_top" xlink:title="Definition of ParameterTable and InputDataManager.">
<polygon fill="white" stroke="black" points="72,-67.5 72,-86.5 187,-86.5 187,-67.5 72,-67.5"/>
<text text-anchor="middle" x="129.5" y="-74.5" font-family="Helvetica,sans-Serif" font-size="10.00">OMSimInputData.hh</text>
</a>
</g>
</g>
<!-- Node4&#45;&gt;Node5 -->
<g id="edge4" class="edge">
<title>Node4&#45;&gt;Node5</title>
<path fill="none" stroke="midnightblue" d="M500.73,-123.63C426.56,-115.12 308.64,-101.35 197.16,-87.2"/>
<polygon fill="midnightblue" stroke="midnightblue" points="197.45,-83.7 187.09,-85.91 196.56,-90.65 197.45,-83.7"/>
</g>
<!-- Node9 -->
<g id="node9" class="node">
<title>Node9</title>
<g id="a_node9"><a xlink:title=" ">
<polygon fill="white" stroke="#bfbfbf" points="205,-67.5 205,-86.5 312,-86.5 312,-67.5 205,-67.5"/>
<text text-anchor="middle" x="258.5" y="-74.5" font-family="Helvetica,sans-Serif" font-size="10.00">G4Transform3D.hh</text>
</a>
</g>
</g>
<!-- Node4&#45;&gt;Node9 -->
<g id="edge8" class="edge">
<title>Node4&#45;&gt;Node9</title>
<path fill="none" stroke="midnightblue" d="M524.43,-123.44C468.49,-113.89 377.99,-98.42 318.36,-88.23"/>
<polygon fill="midnightblue" stroke="midnightblue" points="318.78,-84.75 308.34,-86.52 317.6,-91.65 318.78,-84.75"/>
</g>
<!-- Node10 -->
<g id="node10" class="node">
<title>Node10</title>
<g id="a_node10"><a xlink:title=" ">
<polygon fill="white" stroke="#bfbfbf" points="330.5,-67.5 330.5,-86.5 438.5,-86.5 438.5,-67.5 330.5,-67.5"/>
<text text-anchor="middle" x="384.5" y="-74.5" font-family="Helvetica,sans-Serif" font-size="10.00">G4VisAttributes.hh</text>
</a>
</g>
</g>
<!-- Node4&#45;&gt;Node10 -->
<g id="edge9" class="edge">
<title>Node4&#45;&gt;Node10</title>
<path fill="none" stroke="midnightblue" d="M544.39,-123.44C511.87,-114.2 459.92,-99.44 424.11,-89.26"/>
<polygon fill="midnightblue" stroke="midnightblue" points="425.04,-85.88 414.47,-86.52 423.13,-92.62 425.04,-85.88"/>
</g>
<!-- Node11 -->
<g id="node11" class="node">
<title>Node11</title>
<g id="a_node11"><a xlink:title=" ">
<polygon fill="white" stroke="#bfbfbf" points="457,-67.5 457,-86.5 582,-86.5 582,-67.5 457,-67.5"/>
<text text-anchor="middle" x="519.5" y="-74.5" font-family="Helvetica,sans-Serif" font-size="10.00">G4SubtractionSolid.hh</text>
</a>
</g>
</g>
<!-- Node4&#45;&gt;Node11 -->
<g id="edge10" class="edge">
<title>Node4&#45;&gt;Node11</title>
<path fill="none" stroke="midnightblue" d="M565.42,-123.08C557.33,-115.14 545.3,-103.34 535.59,-93.8"/>
<polygon fill="midnightblue" stroke="midnightblue" points="538,-91.26 528.41,-86.75 533.1,-96.25 538,-91.26"/>
</g>
<!-- Node12 -->
<g id="node12" class="node">
<title>Node12</title>
<g id="a_node12"><a xlink:title=" ">
<polygon fill="white" stroke="#bfbfbf" points="600.5,-67.5 600.5,-86.5 710.5,-86.5 710.5,-67.5 600.5,-67.5"/>
<text text-anchor="middle" x="655.5" y="-74.5" font-family="Helvetica,sans-Serif" font-size="10.00">G4PVPlacement.hh</text>
</a>
</g>
</g>
<!-- Node4&#45;&gt;Node12 -->
<g id="edge11" class="edge">
<title>Node4&#45;&gt;Node12</title>
<path fill="none" stroke="midnightblue" d="M587.51,-123.32C600.03,-114.98 619.18,-102.21 633.97,-92.35"/>
<polygon fill="midnightblue" stroke="midnightblue" points="636.14,-95.11 642.52,-86.65 632.26,-89.29 636.14,-95.11"/>
</g>
<!-- Node6 -->
<g id="node6" class="node">
<title>Node6</title>
<g id="a_node6"><a xlink:title=" ">
<polygon fill="white" stroke="#bfbfbf" points="131,-6 131,-25 274,-25 274,-6 131,-6"/>
<text text-anchor="middle" x="202.5" y="-13" font-family="Helvetica,sans-Serif" font-size="10.00">G4OpBoundaryProcess.hh</text>
</a>
</g>
</g>
<!-- Node5&#45;&gt;Node6 -->
<g id="edge5" class="edge">
<title>Node5&#45;&gt;Node6</title>
<path fill="none" stroke="midnightblue" d="M139.96,-67.48C151.45,-58.11 170.13,-42.88 184.09,-31.51"/>
<polygon fill="midnightblue" stroke="midnightblue" points="186.52,-34.04 192.06,-25.01 182.1,-28.61 186.52,-34.04"/>
</g>
<!-- Node7 -->
<g id="node7" class="node">
<title>Node7</title>
<g id="a_node7"><a xlink:title=" ">
<polygon fill="white" stroke="#bfbfbf" points="561,-6 561,-25 680,-25 680,-6 561,-6"/>
<text text-anchor="middle" x="620.5" y="-13" font-family="Helvetica,sans-Serif" font-size="10.00">G4SystemOfUnits.hh</text>
</a>
</g>
</g>
<!-- Node5&#45;&gt;Node7 -->
<g id="edge6" class="edge">
<title>Node5&#45;&gt;Node7</title>
<path fill="none" stroke="midnightblue" d="M187.09,-68.09C189.93,-67.72 192.75,-67.35 195.5,-67 320.69,-51.03 466.84,-34.02 551.03,-24.38"/>
<polygon fill="midnightblue" stroke="midnightblue" points="551.45,-27.86 560.98,-23.24 550.65,-20.9 551.45,-27.86"/>
</g>
<!-- Node8 -->
<g id="node8" class="node">
<title>Node8</title>
<g id="a_node8"><a xlink:title=" ">
<polygon fill="white" stroke="#bfbfbf" points="0,-0.5 0,-30.5 113,-30.5 113,-0.5 0,-0.5"/>
<text text-anchor="start" x="8" y="-18.5" font-family="Helvetica,sans-Serif" font-size="10.00">boost/property_tree</text>
<text text-anchor="middle" x="56.5" y="-7.5" font-family="Helvetica,sans-Serif" font-size="10.00">/json_parser.hpp</text>
</a>
</g>
</g>
<!-- Node5&#45;&gt;Node8 -->
<g id="edge7" class="edge">
<title>Node5&#45;&gt;Node8</title>
<path fill="none" stroke="midnightblue" d="M119.04,-67.48C109.34,-59.57 94.51,-47.48 81.73,-37.07"/>
<polygon fill="midnightblue" stroke="midnightblue" points="83.67,-34.13 73.7,-30.52 79.24,-39.55 83.67,-34.13"/>
</g>
<!-- Node13&#45;&gt;Node7 -->
<g id="edge14" class="edge">
<title>Node13&#45;&gt;Node7</title>
<path fill="none" stroke="midnightblue" d="M801.93,-123.49C841.84,-113.58 892.32,-94.91 869.5,-67 847.24,-39.77 756.09,-26.87 690.52,-21.01"/>
<polygon fill="midnightblue" stroke="midnightblue" points="690.49,-17.5 680.23,-20.13 689.89,-24.47 690.49,-17.5"/>
</g>
<!-- Node14 -->
<g id="node14" class="node">
<title>Node14</title>
<g id="a_node14"><a xlink:title=" ">
<polygon fill="white" stroke="#bfbfbf" points="918,-67.5 918,-86.5 991,-86.5 991,-67.5 918,-67.5"/>
<text text-anchor="middle" x="954.5" y="-74.5" font-family="Helvetica,sans-Serif" font-size="10.00">G4Types.hh</text>
</a>
</g>
</g>
<!-- Node13&#45;&gt;Node14 -->
<g id="edge15" class="edge">
<title>Node13&#45;&gt;Node14</title>
<path fill="none" stroke="midnightblue" d="M790.4,-123.44C823.77,-114.2 877.09,-99.44 913.85,-89.26"/>
<polygon fill="midnightblue" stroke="midnightblue" points="915.04,-92.56 923.75,-86.52 913.17,-85.81 915.04,-92.56"/>
</g>
<!-- Node15 -->
<g id="node15" class="node">
<title>Node15</title>
<g id="a_node15"><a xlink:title=" ">
<polygon fill="white" stroke="#bfbfbf" points="1558.5,-67.5 1558.5,-86.5 1596.5,-86.5 1596.5,-67.5 1558.5,-67.5"/>
<text text-anchor="middle" x="1577.5" y="-74.5" font-family="Helvetica,sans-Serif" font-size="10.00">map</text>
</a>
</g>
</g>
<!-- Node13&#45;&gt;Node15 -->
<g id="edge16" class="edge">
<title>Node13&#45;&gt;Node15</title>
<path fill="none" stroke="midnightblue" d="M827.02,-123.8C829.89,-123.52 832.72,-123.25 835.5,-123 1112.1,-98.26 1447.96,-83.32 1548.02,-79.18"/>
<polygon fill="midnightblue" stroke="midnightblue" points="1548.42,-82.67 1558.27,-78.76 1548.13,-75.67 1548.42,-82.67"/>
</g>
<!-- Node16 -->
<g id="node16" class="node">
<title>Node16</title>
<g id="a_node16"><a xlink:title=" ">
<polygon fill="white" stroke="#bfbfbf" points="729,-67.5 729,-86.5 790,-86.5 790,-67.5 729,-67.5"/>
<text text-anchor="middle" x="759.5" y="-74.5" font-family="Helvetica,sans-Serif" font-size="10.00">TGraph.h</text>
</a>
</g>
</g>
<!-- Node13&#45;&gt;Node16 -->
<g id="edge17" class="edge">
<title>Node13&#45;&gt;Node16</title>
<path fill="none" stroke="midnightblue" d="M759.5,-123.08C759.5,-116.01 759.5,-105.86 759.5,-96.99"/>
<polygon fill="midnightblue" stroke="midnightblue" points="763,-96.75 759.5,-86.75 756,-96.75 763,-96.75"/>
</g>
<!-- Node17 -->
<g id="node17" class="node">
<title>Node17</title>
<g id="a_node17"><a xlink:title=" ">
<polygon fill="white" stroke="#bfbfbf" points="808,-67.5 808,-86.5 861,-86.5 861,-67.5 808,-67.5"/>
<text text-anchor="middle" x="834.5" y="-74.5" font-family="Helvetica,sans-Serif" font-size="10.00">TH2D.h</text>
</a>
</g>
</g>
<!-- Node13&#45;&gt;Node17 -->
<g id="edge18" class="edge">
<title>Node13&#45;&gt;Node17</title>
<path fill="none" stroke="midnightblue" d="M771.55,-123.32C782.96,-115.11 800.33,-102.6 813.93,-92.81"/>
<polygon fill="midnightblue" stroke="midnightblue" points="816.16,-95.52 822.23,-86.83 812.07,-89.84 816.16,-95.52"/>
</g>
<!-- Node20&#45;&gt;Node3 -->
<g id="edge27" class="edge">
<title>Node20&#45;&gt;Node3</title>
<path fill="none" stroke="midnightblue" d="M746.18,-235.44C711.11,-226.16 655,-211.31 616.54,-201.13"/>
<polygon fill="midnightblue" stroke="midnightblue" points="617.24,-197.69 606.67,-198.52 615.44,-204.46 617.24,-197.69"/>
</g>
<!-- Node20&#45;&gt;Node4 -->
<g id="edge22" class="edge">
<title>Node20&#45;&gt;Node4</title>
<path fill="none" stroke="midnightblue" d="M766.16,-235.4C747.18,-222.34 709.44,-197.15 675.5,-179 652.66,-166.79 625.84,-154.95 605.58,-146.48"/>
<polygon fill="midnightblue" stroke="midnightblue" points="606.79,-143.19 596.21,-142.61 604.11,-149.66 606.79,-143.19"/>
</g>
<!-- Node21 -->
<g id="node21" class="node">
<title>Node21</title>
<g id="a_node21"><a xlink:href="_o_m_sim_hit_manager_8hh.html" target="_top" xlink:title="Defines structures and classes related to optical module photon hit management.">
<polygon fill="white" stroke="black" points="724,-179.5 724,-198.5 847,-198.5 847,-179.5 724,-179.5"/>
<text text-anchor="middle" x="785.5" y="-186.5" font-family="Helvetica,sans-Serif" font-size="10.00">OMSimHitManager.hh</text>
</a>
</g>
</g>
<!-- Node20&#45;&gt;Node21 -->
<g id="edge23" class="edge">
<title>Node20&#45;&gt;Node21</title>
<path fill="none" stroke="midnightblue" d="M779.66,-235.08C780.58,-227.93 781.92,-217.64 783.08,-208.69"/>
<polygon fill="midnightblue" stroke="midnightblue" points="786.55,-209.12 784.37,-198.75 779.61,-208.22 786.55,-209.12"/>
</g>
<!-- Node21&#45;&gt;Node13 -->
<g id="edge24" class="edge">
<title>Node21&#45;&gt;Node13</title>
<path fill="none" stroke="midnightblue" d="M781.21,-179.08C777.65,-171.69 772.48,-160.95 768.08,-151.81"/>
<polygon fill="midnightblue" stroke="midnightblue" points="771.21,-150.24 763.71,-142.75 764.9,-153.28 771.21,-150.24"/>
</g>
<!-- Node22 -->
<g id="node22" class="node">
<title>Node22</title>
<g id="a_node22"><a xlink:title=" ">
<polygon fill="white" stroke="#bfbfbf" points="918,-123.5 918,-142.5 1021,-142.5 1021,-123.5 918,-123.5"/>
<text text-anchor="middle" x="969.5" y="-130.5" font-family="Helvetica,sans-Serif" font-size="10.00">G4ThreeVector.hh</text>
</a>
</g>
</g>
<!-- Node21&#45;&gt;Node22 -->
<g id="edge25" class="edge">
<title>Node21&#45;&gt;Node22</title>
<path fill="none" stroke="midnightblue" d="M814.66,-179.44C846.01,-170.24 896.03,-155.56 930.7,-145.39"/>
<polygon fill="midnightblue" stroke="midnightblue" points="931.87,-148.69 940.48,-142.52 929.9,-141.97 931.87,-148.69"/>
</g>
<!-- Node23 -->
<g id="node23" class="node">
<title>Node23</title>
<g id="a_node23"><a xlink:title=" ">
<polygon fill="white" stroke="#bfbfbf" points="845,-123.5 845,-142.5 900,-142.5 900,-123.5 845,-123.5"/>
<text text-anchor="middle" x="872.5" y="-130.5" font-family="Helvetica,sans-Serif" font-size="10.00">fstream</text>
</a>
</g>
</g>
<!-- Node21&#45;&gt;Node23 -->
<g id="edge26" class="edge">
<title>Node21&#45;&gt;Node23</title>
<path fill="none" stroke="midnightblue" d="M799.48,-179.32C813.05,-170.9 833.88,-157.97 849.82,-148.07"/>
<polygon fill="midnightblue" stroke="midnightblue" points="851.91,-150.9 858.56,-142.65 848.21,-144.95 851.91,-150.9"/>
</g>
<!-- Node26&#45;&gt;Node15 -->
<g id="edge33" class="edge">
<title>Node26&#45;&gt;Node15</title>
<path fill="none" stroke="midnightblue" d="M1921.12,-188.71C1999.68,-188.89 2163.07,-182.39 2108.5,-123 2074.38,-85.87 1713.2,-79.34 1606.82,-78.23"/>
<polygon fill="midnightblue" stroke="midnightblue" points="1606.54,-74.72 1596.51,-78.13 1606.48,-81.72 1606.54,-74.72"/>
</g>
<!-- Node26&#45;&gt;Node22 -->
<g id="edge34" class="edge">
<title>Node26&#45;&gt;Node22</title>
<path fill="none" stroke="midnightblue" d="M1841.95,-187.23C1721.8,-184.59 1350.33,-174.39 1031.41,-142.98"/>
<polygon fill="midnightblue" stroke="midnightblue" points="1031.34,-139.46 1021.04,-141.95 1030.65,-146.42 1031.34,-139.46"/>
</g>
<!-- Node26&#45;&gt;Node23 -->
<g id="edge47" class="edge">
<title>Node26&#45;&gt;Node23</title>
<path fill="none" stroke="midnightblue" d="M1841.74,-187.22C1685.49,-183.97 1112.63,-170.54 910.23,-142.94"/>
<polygon fill="midnightblue" stroke="midnightblue" points="910.69,-139.47 900.3,-141.53 909.71,-146.4 910.69,-139.47"/>
</g>
<!-- Node26&#45;&gt;Node24 -->
<g id="edge41" class="edge">
<title>Node26&#45;&gt;Node24</title>
<path fill="none" stroke="midnightblue" d="M1841.78,-186.5C1734.53,-182.22 1429.92,-168.7 1165.75,-143.05"/>
<polygon fill="midnightblue" stroke="midnightblue" points="1165.87,-139.55 1155.58,-142.06 1165.19,-146.51 1165.87,-139.55"/>
</g>
<!-- Node27 -->
<g id="node27" class="node">
<title>Node27</title>
<g id="a_node27"><a xlink:title=" ">
<polygon fill="white" stroke="#bfbfbf" points="2155.5,-123.5 2155.5,-142.5 2229.5,-142.5 2229.5,-123.5 2155.5,-123.5"/>
<text text-anchor="middle" x="2192.5" y="-130.5" font-family="Helvetica,sans-Serif" font-size="10.00">G4String.hh</text>
</a>
</g>
</g>
<!-- Node26&#45;&gt;Node27 -->
<g id="edge31" class="edge">
<title>Node26&#45;&gt;Node27</title>
<path fill="none" stroke="midnightblue" d="M1921.15,-181.18C1972.14,-172.4 2063.43,-156.64 2141.5,-143 2142.77,-142.78 2144.06,-142.55 2145.36,-142.32"/>
<polygon fill="midnightblue" stroke="midnightblue" points="2146.21,-145.73 2155.46,-140.55 2145,-138.83 2146.21,-145.73"/>
</g>
<!-- Node28 -->
<g id="node28" class="node">
<title>Node28</title>
<g id="a_node28"><a xlink:title=" ">
<polygon fill="white" stroke="#bfbfbf" points="2247.5,-123.5 2247.5,-142.5 2311.5,-142.5 2311.5,-123.5 2247.5,-123.5"/>
<text text-anchor="middle" x="2279.5" y="-130.5" font-family="Helvetica,sans-Serif" font-size="10.00">algorithm</text>
</a>
</g>
</g>
<!-- Node26&#45;&gt;Node28 -->
<g id="edge32" class="edge">
<title>Node26&#45;&gt;Node28</title>
<path fill="none" stroke="midnightblue" d="M1921.03,-184.2C1985.25,-177.77 2116.41,-163.57 2237.17,-143.09"/>
<polygon fill="midnightblue" stroke="midnightblue" points="2238.06,-146.49 2247.33,-141.35 2236.88,-139.59 2238.06,-146.49"/>
</g>
<!-- Node29 -->
<g id="node29" class="node">
<title>Node29</title>
<g id="a_node29"><a xlink:title=" ">
<polygon fill="white" stroke="#bfbfbf" points="2330,-123.5 2330,-142.5 2449,-142.5 2449,-123.5 2330,-123.5"/>
<text text-anchor="middle" x="2389.5" y="-130.5" font-family="Helvetica,sans-Serif" font-size="10.00">G4TriangularFacet.hh</text>
</a>
</g>
</g>
<!-- Node26&#45;&gt;Node29 -->
<g id="edge35" class="edge">
<title>Node26&#45;&gt;Node29</title>
<path fill="none" stroke="midnightblue" d="M1921.19,-184.3C1996.59,-177.19 2165.95,-160.85 2319.58,-143.08"/>
<polygon fill="midnightblue" stroke="midnightblue" points="2320.14,-146.54 2329.67,-141.91 2319.34,-139.58 2320.14,-146.54"/>
</g>
<!-- Node30 -->
<g id="node30" class="node">
<title>Node30</title>
<g id="a_node30"><a xlink:title=" ">
<polygon fill="white" stroke="#bfbfbf" points="2467.5,-123.5 2467.5,-142.5 2525.5,-142.5 2525.5,-123.5 2467.5,-123.5"/>
<text text-anchor="middle" x="2496.5" y="-130.5" font-family="Helvetica,sans-Serif" font-size="10.00">memory</text>
</a>
</g>
</g>
<!-- Node26&#45;&gt;Node30 -->
<g id="edge36" class="edge">
<title>Node26&#45;&gt;Node30</title>
<path fill="none" stroke="midnightblue" d="M1921.27,-187.02C2013.74,-184.27 2250.43,-174.65 2457.01,-143"/>
<polygon fill="midnightblue" stroke="midnightblue" points="2457.79,-146.42 2467.13,-141.43 2456.71,-139.51 2457.79,-146.42"/>
</g>
<!-- Node31 -->
<g id="node31" class="node">
<title>Node31</title>
<g id="a_node31"><a xlink:title=" ">
<polygon fill="white" stroke="#bfbfbf" points="2544,-123.5 2544,-142.5 2591,-142.5 2591,-123.5 2544,-123.5"/>
<text text-anchor="middle" x="2567.5" y="-130.5" font-family="Helvetica,sans-Serif" font-size="10.00">vector</text>
</a>
</g>
</g>
<!-- Node26&#45;&gt;Node31 -->
<g id="edge37" class="edge">
<title>Node26&#45;&gt;Node31</title>
<path fill="none" stroke="midnightblue" d="M1921.2,-187.98C2022.11,-187.36 2296.6,-182.05 2533.64,-142.77"/>
<polygon fill="midnightblue" stroke="midnightblue" points="2534.55,-146.17 2543.83,-141.06 2533.39,-139.26 2534.55,-146.17"/>
</g>
<!-- Node32 -->
<g id="node32" class="node">
<title>Node32</title>
<g id="a_node32"><a xlink:title=" ">
<polygon fill="white" stroke="#bfbfbf" points="2609.5,-123.5 2609.5,-142.5 2669.5,-142.5 2669.5,-123.5 2609.5,-123.5"/>
<text text-anchor="middle" x="2639.5" y="-130.5" font-family="Helvetica,sans-Serif" font-size="10.00">iostream</text>
</a>
</g>
</g>
<!-- Node26&#45;&gt;Node32 -->
<g id="edge38" class="edge">
<title>Node26&#45;&gt;Node32</title>
<path fill="none" stroke="midnightblue" d="M1921.09,-187.8C2028.68,-186.77 2335.46,-180.61 2599.21,-142.94"/>
<polygon fill="midnightblue" stroke="midnightblue" points="2599.96,-146.37 2609.36,-141.47 2598.96,-139.44 2599.96,-146.37"/>
</g>
<!-- Node33 -->
<g id="node33" class="node">
<title>Node33</title>
<g id="a_node33"><a xlink:title=" ">
<polygon fill="white" stroke="#bfbfbf" points="2687.5,-123.5 2687.5,-142.5 2731.5,-142.5 2731.5,-123.5 2687.5,-123.5"/>
<text text-anchor="middle" x="2709.5" y="-130.5" font-family="Helvetica,sans-Serif" font-size="10.00">string</text>
</a>
</g>
</g>
<!-- Node26&#45;&gt;Node33 -->
<g id="edge39" class="edge">
<title>Node26&#45;&gt;Node33</title>
<path fill="none" stroke="midnightblue" d="M1921.04,-186.95C2057.82,-183.14 2511.16,-168.96 2677.24,-142.76"/>
<polygon fill="midnightblue" stroke="midnightblue" points="2677.99,-146.18 2687.29,-141.1 2676.85,-139.28 2677.99,-146.18"/>
</g>
<!-- Node34 -->
<g id="node34" class="node">
<title>Node34</title>
<g id="a_node34"><a xlink:title=" ">
<polygon fill="white" stroke="#bfbfbf" points="1173.5,-123.5 1173.5,-142.5 1303.5,-142.5 1303.5,-123.5 1173.5,-123.5"/>
<text text-anchor="middle" x="1238.5" y="-130.5" font-family="Helvetica,sans-Serif" font-size="10.00">G4AssemblyVolume.hh</text>
</a>
</g>
</g>
<!-- Node26&#45;&gt;Node34 -->
<g id="edge40" class="edge">
<title>Node26&#45;&gt;Node34</title>
<path fill="none" stroke="midnightblue" d="M1841.78,-185.44C1750.51,-179.42 1518.56,-163.43 1313.89,-143.1"/>
<polygon fill="midnightblue" stroke="midnightblue" points="1314.15,-139.61 1303.85,-142.1 1313.46,-146.58 1314.15,-139.61"/>
</g>
<!-- Node35 -->
<g id="node35" class="node">
<title>Node35</title>
<g id="a_node35"><a xlink:title=" ">
<polygon fill="white" stroke="#bfbfbf" points="1321.5,-123.5 1321.5,-142.5 1407.5,-142.5 1407.5,-123.5 1321.5,-123.5"/>
<text text-anchor="middle" x="1364.5" y="-130.5" font-family="Helvetica,sans-Serif" font-size="10.00">G4Material.hh</text>
</a>
</g>
</g>
<!-- Node26&#45;&gt;Node35 -->
<g id="edge42" class="edge">
<title>Node26&#45;&gt;Node35</title>
<path fill="none" stroke="midnightblue" d="M1841.88,-185.17C1763.13,-179.33 1581.11,-164.76 1417.82,-143.08"/>
<polygon fill="midnightblue" stroke="midnightblue" points="1417.97,-139.57 1407.59,-141.71 1417.04,-146.51 1417.97,-139.57"/>
</g>
<!-- Node36 -->
<g id="node36" class="node">
<title>Node36</title>
<g id="a_node36"><a xlink:title=" ">
<polygon fill="white" stroke="#bfbfbf" points="1425.5,-123.5 1425.5,-142.5 1549.5,-142.5 1549.5,-123.5 1425.5,-123.5"/>
<text text-anchor="middle" x="1487.5" y="-130.5" font-family="Helvetica,sans-Serif" font-size="10.00">G4TessellatedSolid.hh</text>
</a>
</g>
</g>
<!-- Node26&#45;&gt;Node36 -->
<g id="edge43" class="edge">
<title>Node26&#45;&gt;Node36</title>
<path fill="none" stroke="midnightblue" d="M1841.92,-182.58C1775.98,-173.54 1642.7,-155.27 1559.69,-143.89"/>
<polygon fill="midnightblue" stroke="midnightblue" points="1559.96,-140.4 1549.58,-142.51 1559.01,-147.33 1559.96,-140.4"/>
</g>
<!-- Node37 -->
<g id="node37" class="node">
<title>Node37</title>
<g id="a_node37"><a xlink:title=" ">
<polygon fill="white" stroke="#bfbfbf" points="1568,-123.5 1568,-142.5 1627,-142.5 1627,-123.5 1568,-123.5"/>
<text text-anchor="middle" x="1597.5" y="-130.5" font-family="Helvetica,sans-Serif" font-size="10.00">G4Tet.hh</text>
</a>
</g>
</g>
<!-- Node26&#45;&gt;Node37 -->
<g id="edge44" class="edge">
<title>Node26&#45;&gt;Node37</title>
<path fill="none" stroke="midnightblue" d="M1841.93,-181.3C1795.4,-173.29 1715.59,-159.17 1637.31,-143.09"/>
<polygon fill="midnightblue" stroke="midnightblue" points="1637.78,-139.61 1627.28,-141.02 1636.36,-146.47 1637.78,-139.61"/>
</g>
<!-- Node38 -->
<g id="node38" class="node">
<title>Node38</title>
<g id="a_node38"><a xlink:title=" ">
<polygon fill="white" stroke="#bfbfbf" points="1645.5,-123.5 1645.5,-142.5 1749.5,-142.5 1749.5,-123.5 1645.5,-123.5"/>
<text text-anchor="middle" x="1697.5" y="-130.5" font-family="Helvetica,sans-Serif" font-size="10.00">G4UIcommand.hh</text>
</a>
</g>
</g>
<!-- Node26&#45;&gt;Node38 -->
<g id="edge45" class="edge">
<title>Node26&#45;&gt;Node38</title>
<path fill="none" stroke="midnightblue" d="M1852.34,-179.44C1820.99,-170.24 1770.97,-155.56 1736.3,-145.39"/>
<polygon fill="midnightblue" stroke="midnightblue" points="1737.1,-141.97 1726.52,-142.52 1735.13,-148.69 1737.1,-141.97"/>
</g>
<!-- Node39 -->
<g id="node39" class="node">
<title>Node39</title>
<g id="a_node39"><a xlink:title=" ">
<polygon fill="white" stroke="#bfbfbf" points="1768,-123.5 1768,-142.5 1835,-142.5 1835,-123.5 1768,-123.5"/>
<text text-anchor="middle" x="1801.5" y="-130.5" font-family="Helvetica,sans-Serif" font-size="10.00">globals.hh</text>
</a>
</g>
</g>
<!-- Node26&#45;&gt;Node39 -->
<g id="edge46" class="edge">
<title>Node26&#45;&gt;Node39</title>
<path fill="none" stroke="midnightblue" d="M1868.65,-179.32C1856.28,-170.98 1837.37,-158.21 1822.76,-148.35"/>
<polygon fill="midnightblue" stroke="midnightblue" points="1824.57,-145.35 1814.32,-142.65 1820.65,-151.15 1824.57,-145.35"/>
</g>
<!-- Node40 -->
<g id="node40" class="node">
<title>Node40</title>
<g id="a_node40"><a xlink:title=" ">
<polygon fill="white" stroke="#bfbfbf" points="1853.5,-123.5 1853.5,-142.5 1909.5,-142.5 1909.5,-123.5 1853.5,-123.5"/>
<text text-anchor="middle" x="1881.5" y="-130.5" font-family="Helvetica,sans-Serif" font-size="10.00">sstream</text>
</a>
</g>
</g>
<!-- Node26&#45;&gt;Node40 -->
<g id="edge48" class="edge">
<title>Node26&#45;&gt;Node40</title>
<path fill="none" stroke="midnightblue" d="M1881.5,-179.08C1881.5,-172.01 1881.5,-161.86 1881.5,-152.99"/>
<polygon fill="midnightblue" stroke="midnightblue" points="1885,-152.75 1881.5,-142.75 1878,-152.75 1885,-152.75"/>
</g>
<!-- Node41 -->
<g id="node41" class="node">
<title>Node41</title>
<g id="a_node41"><a xlink:title=" ">
<polygon fill="white" stroke="#bfbfbf" points="1928,-123.5 1928,-142.5 1995,-142.5 1995,-123.5 1928,-123.5"/>
<text text-anchor="middle" x="1961.5" y="-130.5" font-family="Helvetica,sans-Serif" font-size="10.00">streambuf</text>
</a>
</g>
</g>
<!-- Node26&#45;&gt;Node41 -->
<g id="edge49" class="edge">
<title>Node26&#45;&gt;Node41</title>
<path fill="none" stroke="midnightblue" d="M1894.35,-179.32C1906.72,-170.98 1925.63,-158.21 1940.24,-148.35"/>
<polygon fill="midnightblue" stroke="midnightblue" points="1942.35,-151.15 1948.68,-142.65 1938.43,-145.35 1942.35,-151.15"/>
</g>
<!-- Node42 -->
<g id="node42" class="node">
<title>Node42</title>
<g id="a_node42"><a xlink:title=" ">
<polygon fill="white" stroke="#bfbfbf" points="2013.5,-123.5 2013.5,-142.5 2099.5,-142.5 2099.5,-123.5 2013.5,-123.5"/>
<text text-anchor="middle" x="2056.5" y="-130.5" font-family="Helvetica,sans-Serif" font-size="10.00">Randomize.hh</text>
</a>
</g>
</g>
<!-- Node26&#45;&gt;Node42 -->
<g id="edge50" class="edge">
<title>Node26&#45;&gt;Node42</title>
<path fill="none" stroke="midnightblue" d="M1909.23,-179.44C1938.93,-170.28 1986.22,-155.69 2019.17,-145.52"/>
<polygon fill="midnightblue" stroke="midnightblue" points="2020.38,-148.81 2028.9,-142.52 2018.31,-142.12 2020.38,-148.81"/>
</g>
<!-- Node44 -->
<g id="node44" class="node">
<title>Node44</title>
<g id="a_node44"><a xlink:title=" ">
<polygon fill="white" stroke="#bfbfbf" points="969.5,-179.5 969.5,-198.5 1019.5,-198.5 1019.5,-179.5 969.5,-179.5"/>
<text text-anchor="middle" x="994.5" y="-186.5" font-family="Helvetica,sans-Serif" font-size="10.00">stdio.h</text>
</a>
</g>
</g>
<!-- Node43&#45;&gt;Node44 -->
<g id="edge52" class="edge">
<title>Node43&#45;&gt;Node44</title>
<path fill="none" stroke="midnightblue" d="M973.63,-235.08C977.01,-227.77 981.92,-217.18 986.12,-208.1"/>
<polygon fill="midnightblue" stroke="midnightblue" points="989.42,-209.3 990.45,-198.75 983.07,-206.36 989.42,-209.3"/>
</g>
<!-- Node45 -->
<g id="node45" class="node">
<title>Node45</title>
<g id="a_node45"><a xlink:title=" ">
<polygon fill="white" stroke="#bfbfbf" points="903.5,-179.5 903.5,-198.5 951.5,-198.5 951.5,-179.5 903.5,-179.5"/>
<text text-anchor="middle" x="927.5" y="-186.5" font-family="Helvetica,sans-Serif" font-size="10.00">time.h</text>
</a>
</g>
</g>
<!-- Node43&#45;&gt;Node45 -->
<g id="edge53" class="edge">
<title>Node43&#45;&gt;Node45</title>
<path fill="none" stroke="midnightblue" d="M962.56,-235.08C956.57,-227.38 947.75,-216.03 940.45,-206.65"/>
<polygon fill="midnightblue" stroke="midnightblue" points="943.21,-204.5 934.31,-198.75 937.68,-208.79 943.21,-204.5"/>
</g>
<!-- Node46&#45;&gt;Node23 -->
<g id="edge56" class="edge">
<title>Node46&#45;&gt;Node23</title>
<path fill="none" stroke="midnightblue" d="M1105.38,-291.45C1094.21,-283.12 1077.73,-269.6 1066.5,-255 1043.47,-225.07 1057.53,-203.15 1028.5,-179 1023.83,-175.11 954.66,-156.04 910.01,-144.01"/>
<polygon fill="midnightblue" stroke="midnightblue" points="910.9,-140.62 900.33,-141.41 909.08,-147.38 910.9,-140.62"/>
</g>
<!-- Node46&#45;&gt;Node43 -->
<g id="edge55" class="edge">
<title>Node46&#45;&gt;Node43</title>
<path fill="none" stroke="midnightblue" d="M1094.05,-291.44C1069.37,-282.44 1030.31,-268.19 1002.52,-258.05"/>
<polygon fill="midnightblue" stroke="midnightblue" points="1003.44,-254.66 992.84,-254.52 1001.04,-261.23 1003.44,-254.66"/>
</g>
<!-- Node47 -->
<g id="node47" class="node">
<title>Node47</title>
<g id="a_node47"><a xlink:title=" ">
<polygon fill="white" stroke="#bfbfbf" points="1075.5,-235.5 1075.5,-254.5 1159.5,-254.5 1159.5,-235.5 1075.5,-235.5"/>
<text text-anchor="middle" x="1117.5" y="-242.5" font-family="Helvetica,sans-Serif" font-size="10.00">boost/any.hpp</text>
</a>
</g>
</g>
<!-- Node46&#45;&gt;Node47 -->
<g id="edge57" class="edge">
<title>Node46&#45;&gt;Node47</title>
<path fill="none" stroke="midnightblue" d="M1117.5,-291.08C1117.5,-284.01 1117.5,-273.86 1117.5,-264.99"/>
<polygon fill="midnightblue" stroke="midnightblue" points="1121,-264.75 1117.5,-254.75 1114,-264.75 1121,-264.75"/>
</g>
<!-- Node48 -->
<g id="node48" class="node">
<title>Node48</title>
<g id="a_node48"><a xlink:title=" ">
<polygon fill="white" stroke="#bfbfbf" points="1177.5,-235.5 1177.5,-254.5 1245.5,-254.5 1245.5,-235.5 1177.5,-235.5"/>
<text text-anchor="middle" x="1211.5" y="-242.5" font-family="Helvetica,sans-Serif" font-size="10.00">sys/time.h</text>
</a>
</g>
</g>
<!-- Node46&#45;&gt;Node48 -->
<g id="edge58" class="edge">
<title>Node46&#45;&gt;Node48</title>
<path fill="none" stroke="midnightblue" d="M1132.6,-291.32C1147.4,-282.82 1170.19,-269.73 1187.48,-259.8"/>
<polygon fill="midnightblue" stroke="midnightblue" points="1189.51,-262.67 1196.43,-254.65 1186.02,-256.6 1189.51,-262.67"/>
</g>
</g>
</svg>
