<?xml version="1.0" encoding="UTF-8" standalone="no"?>
<!DOCTYPE svg PUBLIC "-//W3C//DTD SVG 1.1//EN"
 "http://www.w3.org/Graphics/SVG/1.1/DTD/svg11.dtd">
<!-- Generated by graphviz version 2.43.0 (0)
 -->
<!-- Title: OMSimPMTConstruction.hh Pages: 1 -->
<svg width="1345pt" height="275pt"
 viewBox="0.00 0.00 1345.00 274.92" xmlns="http://www.w3.org/2000/svg" xmlns:xlink="http://www.w3.org/1999/xlink">
<g id="graph0" class="graph" transform="scale(1 1) rotate(0) translate(4 270.92)">
<title>OMSimPMTConstruction.hh</title>
<!-- Node1 -->
<g id="node1" class="node">
<title>Node1</title>
<g id="a_node1"><a xlink:title="Construction of the PMTs.">
<polygon fill="#bfbfbf" stroke="black" points="1060,-246.5 1060,-265.5 1209,-265.5 1209,-246.5 1060,-246.5"/>
<text text-anchor="middle" x="1134.5" y="-253.5" font-family="Helvetica,sans-Serif" font-size="10.00">OMSimPMTConstruction.hh</text>
</a>
</g>
</g>
<!-- Node1&#45;&gt;Node1 -->
<g id="edge15" class="edge">
<title>Node1&#45;&gt;Node1</title>
<path fill="none" stroke="midnightblue" d="M1173.95,-265.53C1200.76,-268.31 1227,-265.13 1227,-256 1227,-248.01 1206.91,-244.58 1183.93,-245.71"/>
<polygon fill="midnightblue" stroke="midnightblue" points="1183.65,-242.22 1173.95,-246.47 1184.19,-249.2 1183.65,-242.22"/>
</g>
<!-- Node2 -->
<g id="node2" class="node">
<title>Node2</title>
<g id="a_node2"><a xlink:href="abc_detector_component_8hh.html" target="_top" xlink:title="Provides helper base class abcDetectorComponent for constructing and managing detector components in ...">
<polygon fill="none" stroke="black" points="606,-190.5 606,-209.5 753,-209.5 753,-190.5 606,-190.5"/>
<text text-anchor="middle" x="679.5" y="-197.5" font-family="Helvetica,sans-Serif" font-size="10.00">abcDetectorComponent.hh</text>
</a>
</g>
</g>
<!-- Node1&#45;&gt;Node2 -->
<g id="edge1" class="edge">
<title>Node1&#45;&gt;Node2</title>
<path fill="none" stroke="midnightblue" d="M1062.65,-246.47C980.75,-236.75 847.15,-220.9 761.31,-210.71"/>
<polygon fill="midnightblue" stroke="midnightblue" points="761.69,-207.23 751.34,-209.53 760.86,-214.18 761.69,-207.23"/>
</g>
<!-- Node16 -->
<g id="node16" class="node">
<title>Node16</title>
<g id="a_node16"><a xlink:href="_o_m_sim_p_m_t_response_8hh.html" target="_top" xlink:title="Simulation of PMT response.">
<polygon fill="none" stroke="black" points="1000,-190.5 1000,-209.5 1135,-209.5 1135,-190.5 1000,-190.5"/>
<text text-anchor="middle" x="1067.5" y="-197.5" font-family="Helvetica,sans-Serif" font-size="10.00">OMSimPMTResponse.hh</text>
</a>
</g>
</g>
<!-- Node1&#45;&gt;Node16 -->
<g id="edge16" class="edge">
<title>Node1&#45;&gt;Node16</title>
<path fill="none" stroke="midnightblue" d="M1123.74,-246.32C1113.73,-238.26 1098.61,-226.08 1086.57,-216.37"/>
<polygon fill="midnightblue" stroke="midnightblue" points="1088.44,-213.38 1078.46,-209.83 1084.05,-218.83 1088.44,-213.38"/>
</g>
<!-- Node21 -->
<g id="node21" class="node">
<title>Node21</title>
<g id="a_node21"><a xlink:title=" ">
<polygon fill="none" stroke="#bfbfbf" points="1153.5,-190.5 1153.5,-209.5 1251.5,-209.5 1251.5,-190.5 1153.5,-190.5"/>
<text text-anchor="middle" x="1202.5" y="-197.5" font-family="Helvetica,sans-Serif" font-size="10.00">G4UnionSolid.hh</text>
</a>
</g>
</g>
<!-- Node1&#45;&gt;Node21 -->
<g id="edge22" class="edge">
<title>Node1&#45;&gt;Node21</title>
<path fill="none" stroke="midnightblue" d="M1145.43,-246.32C1155.67,-238.18 1171.22,-225.84 1183.5,-216.09"/>
<polygon fill="midnightblue" stroke="midnightblue" points="1185.72,-218.79 1191.38,-209.83 1181.37,-213.31 1185.72,-218.79"/>
</g>
<!-- Node22 -->
<g id="node22" class="node">
<title>Node22</title>
<g id="a_node22"><a xlink:title=" ">
<polygon fill="none" stroke="#bfbfbf" points="1270,-190.5 1270,-209.5 1337,-209.5 1337,-190.5 1270,-190.5"/>
<text text-anchor="middle" x="1303.5" y="-197.5" font-family="Helvetica,sans-Serif" font-size="10.00">G4Tubs.hh</text>
</a>
</g>
</g>
<!-- Node1&#45;&gt;Node22 -->
<g id="edge23" class="edge">
<title>Node1&#45;&gt;Node22</title>
<path fill="none" stroke="midnightblue" d="M1161.28,-246.44C1189.83,-237.32 1235.23,-222.81 1267.04,-212.65"/>
<polygon fill="midnightblue" stroke="midnightblue" points="1268.39,-215.89 1276.85,-209.52 1266.26,-209.23 1268.39,-215.89"/>
</g>
<!-- Node3 -->
<g id="node3" class="node">
<title>Node3</title>
<g id="a_node3"><a xlink:href="_o_m_sim_input_data_8hh.html" target="_top" xlink:title="Definition of ParameterTable and InputDataManager.">
<polygon fill="none" stroke="black" points="299,-134.5 299,-153.5 414,-153.5 414,-134.5 299,-134.5"/>
<text text-anchor="middle" x="356.5" y="-141.5" font-family="Helvetica,sans-Serif" font-size="10.00">OMSimInputData.hh</text>
</a>
</g>
</g>
<!-- Node2&#45;&gt;Node3 -->
<g id="edge2" class="edge">
<title>Node2&#45;&gt;Node3</title>
<path fill="none" stroke="midnightblue" d="M628.32,-190.44C571.03,-180.87 478.26,-165.36 417.31,-155.17"/>
<polygon fill="midnightblue" stroke="midnightblue" points="417.88,-151.71 407.44,-153.52 416.73,-158.62 417.88,-151.71"/>
</g>
<!-- Node12 -->
<g id="node12" class="node">
<title>Node12</title>
<g id="a_node12"><a xlink:title=" ">
<polygon fill="none" stroke="#bfbfbf" points="432,-134.5 432,-153.5 539,-153.5 539,-134.5 432,-134.5"/>
<text text-anchor="middle" x="485.5" y="-141.5" font-family="Helvetica,sans-Serif" font-size="10.00">G4Transform3D.hh</text>
</a>
</g>
</g>
<!-- Node2&#45;&gt;Node12 -->
<g id="edge11" class="edge">
<title>Node2&#45;&gt;Node12</title>
<path fill="none" stroke="midnightblue" d="M648.76,-190.44C615.56,-181.2 562.51,-166.44 525.94,-156.26"/>
<polygon fill="midnightblue" stroke="midnightblue" points="526.67,-152.83 516.1,-153.52 524.79,-159.57 526.67,-152.83"/>
</g>
<!-- Node13 -->
<g id="node13" class="node">
<title>Node13</title>
<g id="a_node13"><a xlink:title=" ">
<polygon fill="none" stroke="#bfbfbf" points="557.5,-134.5 557.5,-153.5 665.5,-153.5 665.5,-134.5 557.5,-134.5"/>
<text text-anchor="middle" x="611.5" y="-141.5" font-family="Helvetica,sans-Serif" font-size="10.00">G4VisAttributes.hh</text>
</a>
</g>
</g>
<!-- Node2&#45;&gt;Node13 -->
<g id="edge12" class="edge">
<title>Node2&#45;&gt;Node13</title>
<path fill="none" stroke="midnightblue" d="M668.57,-190.32C658.33,-182.18 642.78,-169.84 630.5,-160.09"/>
<polygon fill="midnightblue" stroke="midnightblue" points="632.63,-157.31 622.62,-153.83 628.28,-162.79 632.63,-157.31"/>
</g>
<!-- Node14 -->
<g id="node14" class="node">
<title>Node14</title>
<g id="a_node14"><a xlink:title=" ">
<polygon fill="none" stroke="#bfbfbf" points="684,-134.5 684,-153.5 809,-153.5 809,-134.5 684,-134.5"/>
<text text-anchor="middle" x="746.5" y="-141.5" font-family="Helvetica,sans-Serif" font-size="10.00">G4SubtractionSolid.hh</text>
</a>
</g>
</g>
<!-- Node2&#45;&gt;Node14 -->
<g id="edge13" class="edge">
<title>Node2&#45;&gt;Node14</title>
<path fill="none" stroke="midnightblue" d="M690.26,-190.32C700.27,-182.26 715.39,-170.08 727.43,-160.37"/>
<polygon fill="midnightblue" stroke="midnightblue" points="729.95,-162.83 735.54,-153.83 725.56,-157.38 729.95,-162.83"/>
</g>
<!-- Node15 -->
<g id="node15" class="node">
<title>Node15</title>
<g id="a_node15"><a xlink:title=" ">
<polygon fill="none" stroke="#bfbfbf" points="827.5,-134.5 827.5,-153.5 937.5,-153.5 937.5,-134.5 827.5,-134.5"/>
<text text-anchor="middle" x="882.5" y="-141.5" font-family="Helvetica,sans-Serif" font-size="10.00">G4PVPlacement.hh</text>
</a>
</g>
</g>
<!-- Node2&#45;&gt;Node15 -->
<g id="edge14" class="edge">
<title>Node2&#45;&gt;Node15</title>
<path fill="none" stroke="midnightblue" d="M711.67,-190.44C746.56,-181.16 802.39,-166.31 840.67,-156.13"/>
<polygon fill="midnightblue" stroke="midnightblue" points="841.72,-159.47 850.48,-153.52 839.92,-152.7 841.72,-159.47"/>
</g>
<!-- Node4 -->
<g id="node4" class="node">
<title>Node4</title>
<g id="a_node4"><a xlink:href="_o_m_sim_logger_8hh_source.html" target="_top" xlink:title=" ">
<polygon fill="none" stroke="black" points="168,-73 168,-92 267,-92 267,-73 168,-73"/>
<text text-anchor="middle" x="217.5" y="-80" font-family="Helvetica,sans-Serif" font-size="10.00">OMSimLogger.hh</text>
</a>
</g>
</g>
<!-- Node3&#45;&gt;Node4 -->
<g id="edge3" class="edge">
<title>Node3&#45;&gt;Node4</title>
<path fill="none" stroke="midnightblue" d="M336.58,-134.48C313.05,-124.4 273.69,-107.55 246.71,-96"/>
<polygon fill="midnightblue" stroke="midnightblue" points="247.95,-92.73 237.38,-92.01 245.19,-99.16 247.95,-92.73"/>
</g>
<!-- Node9 -->
<g id="node9" class="node">
<title>Node9</title>
<g id="a_node9"><a xlink:title=" ">
<polygon fill="none" stroke="#bfbfbf" points="285,-73 285,-92 428,-92 428,-73 285,-73"/>
<text text-anchor="middle" x="356.5" y="-80" font-family="Helvetica,sans-Serif" font-size="10.00">G4OpBoundaryProcess.hh</text>
</a>
</g>
</g>
<!-- Node3&#45;&gt;Node9 -->
<g id="edge8" class="edge">
<title>Node3&#45;&gt;Node9</title>
<path fill="none" stroke="midnightblue" d="M356.5,-134.48C356.5,-126.08 356.5,-112.98 356.5,-102.16"/>
<polygon fill="midnightblue" stroke="midnightblue" points="360,-102.01 356.5,-92.01 353,-102.01 360,-102.01"/>
</g>
<!-- Node10 -->
<g id="node10" class="node">
<title>Node10</title>
<g id="a_node10"><a xlink:title=" ">
<polygon fill="none" stroke="#bfbfbf" points="741,-73 741,-92 860,-92 860,-73 741,-73"/>
<text text-anchor="middle" x="800.5" y="-80" font-family="Helvetica,sans-Serif" font-size="10.00">G4SystemOfUnits.hh</text>
</a>
</g>
</g>
<!-- Node3&#45;&gt;Node10 -->
<g id="edge9" class="edge">
<title>Node3&#45;&gt;Node10</title>
<path fill="none" stroke="midnightblue" d="M414.09,-135.14C416.93,-134.75 419.75,-134.37 422.5,-134 529.97,-119.49 654.66,-102.88 730.54,-92.79"/>
<polygon fill="midnightblue" stroke="midnightblue" points="731.46,-96.2 740.92,-91.41 730.54,-89.26 731.46,-96.2"/>
</g>
<!-- Node11 -->
<g id="node11" class="node">
<title>Node11</title>
<g id="a_node11"><a xlink:title=" ">
<polygon fill="none" stroke="#bfbfbf" points="446,-67.5 446,-97.5 559,-97.5 559,-67.5 446,-67.5"/>
<text text-anchor="start" x="454" y="-85.5" font-family="Helvetica,sans-Serif" font-size="10.00">boost/property_tree</text>
<text text-anchor="middle" x="502.5" y="-74.5" font-family="Helvetica,sans-Serif" font-size="10.00">/json_parser.hpp</text>
</a>
</g>
</g>
<!-- Node3&#45;&gt;Node11 -->
<g id="edge10" class="edge">
<title>Node3&#45;&gt;Node11</title>
<path fill="none" stroke="midnightblue" d="M377.42,-134.48C398.49,-125.89 431.63,-112.38 458.51,-101.43"/>
<polygon fill="midnightblue" stroke="midnightblue" points="460.15,-104.54 468.09,-97.52 457.51,-98.06 460.15,-104.54"/>
</g>
<!-- Node5 -->
<g id="node5" class="node">
<title>Node5</title>
<g id="a_node5"><a xlink:title=" ">
<polygon fill="none" stroke="#bfbfbf" points="0,-6 0,-25 93,-25 93,-6 0,-6"/>
<text text-anchor="middle" x="46.5" y="-13" font-family="Helvetica,sans-Serif" font-size="10.00">spdlog/spdlog.h</text>
</a>
</g>
</g>
<!-- Node4&#45;&gt;Node5 -->
<g id="edge4" class="edge">
<title>Node4&#45;&gt;Node5</title>
<path fill="none" stroke="midnightblue" d="M194.79,-72.87C164.94,-61.52 112.33,-41.52 78.47,-28.65"/>
<polygon fill="midnightblue" stroke="midnightblue" points="79.62,-25.35 69.03,-25.06 77.13,-31.89 79.62,-25.35"/>
</g>
<!-- Node6 -->
<g id="node6" class="node">
<title>Node6</title>
<g id="a_node6"><a xlink:title=" ">
<polygon fill="none" stroke="#bfbfbf" points="111,-0.5 111,-30.5 222,-30.5 222,-0.5 111,-0.5"/>
<text text-anchor="start" x="119" y="-18.5" font-family="Helvetica,sans-Serif" font-size="10.00">spdlog/sinks/stdout</text>
<text text-anchor="middle" x="166.5" y="-7.5" font-family="Helvetica,sans-Serif" font-size="10.00">_color_sinks.h</text>
</a>
</g>
</g>
<!-- Node4&#45;&gt;Node6 -->
<g id="edge5" class="edge">
<title>Node4&#45;&gt;Node6</title>
<path fill="none" stroke="midnightblue" d="M210.62,-72.73C203.8,-64.03 193.06,-50.34 183.88,-38.65"/>
<polygon fill="midnightblue" stroke="midnightblue" points="186.48,-36.3 177.55,-30.59 180.97,-40.62 186.48,-36.3"/>
</g>
<!-- Node7 -->
<g id="node7" class="node">
<title>Node7</title>
<g id="a_node7"><a xlink:title=" ">
<polygon fill="none" stroke="#bfbfbf" points="240.5,-6 240.5,-25 298.5,-25 298.5,-6 240.5,-6"/>
<text text-anchor="middle" x="269.5" y="-13" font-family="Helvetica,sans-Serif" font-size="10.00">memory</text>
</a>
</g>
</g>
<!-- Node4&#45;&gt;Node7 -->
<g id="edge6" class="edge">
<title>Node4&#45;&gt;Node7</title>
<path fill="none" stroke="midnightblue" d="M224.51,-72.73C232.62,-62.6 246.15,-45.69 256.26,-33.06"/>
<polygon fill="midnightblue" stroke="midnightblue" points="259.08,-35.12 262.6,-25.13 253.62,-30.75 259.08,-35.12"/>
</g>
<!-- Node8 -->
<g id="node8" class="node">
<title>Node8</title>
<g id="a_node8"><a xlink:title=" ">
<polygon fill="none" stroke="#bfbfbf" points="316.5,-6 316.5,-25 414.5,-25 414.5,-6 316.5,-6"/>
<text text-anchor="middle" x="365.5" y="-13" font-family="Helvetica,sans-Serif" font-size="10.00">spdlog/fmt/fmt.h</text>
</a>
</g>
</g>
<!-- Node4&#45;&gt;Node8 -->
<g id="edge7" class="edge">
<title>Node4&#45;&gt;Node8</title>
<path fill="none" stroke="midnightblue" d="M237.15,-72.87C262.59,-61.7 307.1,-42.15 336.45,-29.26"/>
<polygon fill="midnightblue" stroke="midnightblue" points="338.02,-32.39 345.77,-25.17 335.2,-25.98 338.02,-32.39"/>
</g>
<!-- Node16&#45;&gt;Node10 -->
<g id="edge17" class="edge">
<title>Node16&#45;&gt;Node10</title>
<path fill="none" stroke="midnightblue" d="M1051.56,-190.35C1019.94,-173.2 951.85,-136.34 946.5,-134 910.97,-118.43 868.98,-104.33 839.17,-95.01"/>
<polygon fill="midnightblue" stroke="midnightblue" points="840.14,-91.65 829.56,-92.04 838.08,-98.34 840.14,-91.65"/>
</g>
<!-- Node17 -->
<g id="node17" class="node">
<title>Node17</title>
<g id="a_node17"><a xlink:title=" ">
<polygon fill="none" stroke="#bfbfbf" points="994,-134.5 994,-153.5 1067,-153.5 1067,-134.5 994,-134.5"/>
<text text-anchor="middle" x="1030.5" y="-141.5" font-family="Helvetica,sans-Serif" font-size="10.00">G4Types.hh</text>
</a>
</g>
</g>
<!-- Node16&#45;&gt;Node17 -->
<g id="edge18" class="edge">
<title>Node16&#45;&gt;Node17</title>
<path fill="none" stroke="midnightblue" d="M1061.39,-190.08C1056.22,-182.53 1048.65,-171.49 1042.31,-162.23"/>
<polygon fill="midnightblue" stroke="midnightblue" points="1045.04,-160.02 1036.5,-153.75 1039.26,-163.98 1045.04,-160.02"/>
</g>
<!-- Node18 -->
<g id="node18" class="node">
<title>Node18</title>
<g id="a_node18"><a xlink:title=" ">
<polygon fill="none" stroke="#bfbfbf" points="1085.5,-134.5 1085.5,-153.5 1123.5,-153.5 1123.5,-134.5 1085.5,-134.5"/>
<text text-anchor="middle" x="1104.5" y="-141.5" font-family="Helvetica,sans-Serif" font-size="10.00">map</text>
</a>
</g>
</g>
<!-- Node16&#45;&gt;Node18 -->
<g id="edge19" class="edge">
<title>Node16&#45;&gt;Node18</title>
<path fill="none" stroke="midnightblue" d="M1073.61,-190.08C1078.78,-182.53 1086.35,-171.49 1092.69,-162.23"/>
<polygon fill="midnightblue" stroke="midnightblue" points="1095.74,-163.98 1098.5,-153.75 1089.96,-160.02 1095.74,-163.98"/>
</g>
<!-- Node19 -->
<g id="node19" class="node">
<title>Node19</title>
<g id="a_node19"><a xlink:title=" ">
<polygon fill="none" stroke="#bfbfbf" points="1142,-134.5 1142,-153.5 1203,-153.5 1203,-134.5 1142,-134.5"/>
<text text-anchor="middle" x="1172.5" y="-141.5" font-family="Helvetica,sans-Serif" font-size="10.00">TGraph.h</text>
</a>
</g>
</g>
<!-- Node16&#45;&gt;Node19 -->
<g id="edge20" class="edge">
<title>Node16&#45;&gt;Node19</title>
<path fill="none" stroke="midnightblue" d="M1084.37,-190.32C1101.21,-181.66 1127.31,-168.24 1146.74,-158.25"/>
<polygon fill="midnightblue" stroke="midnightblue" points="1148.38,-161.34 1155.67,-153.65 1145.18,-155.12 1148.38,-161.34"/>
</g>
<!-- Node20 -->
<g id="node20" class="node">
<title>Node20</title>
<g id="a_node20"><a xlink:title=" ">
<polygon fill="none" stroke="#bfbfbf" points="1221,-134.5 1221,-153.5 1274,-153.5 1274,-134.5 1221,-134.5"/>
<text text-anchor="middle" x="1247.5" y="-141.5" font-family="Helvetica,sans-Serif" font-size="10.00">TH2D.h</text>
</a>
</g>
</g>
<!-- Node16&#45;&gt;Node20 -->
<g id="edge21" class="edge">
<title>Node16&#45;&gt;Node20</title>
<path fill="none" stroke="midnightblue" d="M1096.02,-190.44C1127.11,-181.12 1176.93,-166.17 1210.88,-155.99"/>
<polygon fill="midnightblue" stroke="midnightblue" points="1212.3,-159.21 1220.87,-152.99 1210.29,-152.51 1212.3,-159.21"/>
</g>
</g>
</svg>
