<?xml version="1.0" encoding="UTF-8" standalone="no"?>
<!DOCTYPE svg PUBLIC "-//W3C//DTD SVG 1.1//EN"
 "http://www.w3.org/Graphics/SVG/1.1/DTD/svg11.dtd">
<!-- Generated by graphviz version 2.43.0 (0)
 -->
<!-- Title: OMSimLogger.hh Pages: 1 -->
<svg width="3911pt" height="252pt"
 viewBox="0.00 0.00 3910.73 252.00" xmlns="http://www.w3.org/2000/svg" xmlns:xlink="http://www.w3.org/1999/xlink">
<g id="graph0" class="graph" transform="scale(1 1) rotate(0) translate(4 248)">
<title>OMSimLogger.hh</title>
<polygon fill="white" stroke="transparent" points="-4,4 -4,-248 3906.73,-248 3906.73,4 -4,4"/>
<!-- Node1 -->
<g id="node1" class="node">
<title>Node1</title>
<g id="a_node1"><a xlink:title=" ">
<polygon fill="#bfbfbf" stroke="black" points="394.73,-224.5 394.73,-243.5 493.73,-243.5 493.73,-224.5 394.73,-224.5"/>
<text text-anchor="middle" x="444.23" y="-231.5" font-family="Helvetica,sans-Serif" font-size="10.00">OMSimLogger.hh</text>
</a>
</g>
</g>
<!-- Node2 -->
<g id="node2" class="node">
<title>Node2</title>
<g id="a_node2"><a xlink:href="_o_m_sim_command_args_table_8hh.html" target="_top" xlink:title="Definition of the OMSimCommandArgsTable singleton class, which controls user args.">
<polygon fill="white" stroke="black" points="1463.23,-168.5 1463.23,-187.5 1627.23,-187.5 1627.23,-168.5 1463.23,-168.5"/>
<text text-anchor="middle" x="1545.23" y="-175.5" font-family="Helvetica,sans-Serif" font-size="10.00">OMSimCommandArgsTable.hh</text>
</a>
</g>
</g>
<!-- Node1&#45;&gt;Node2 -->
<g id="edge1" class="edge">
<title>Node1&#45;&gt;Node2</title>
<path fill="none" stroke="midnightblue" d="M504.11,-230.06C689.01,-220.99 1251.13,-193.42 1463.14,-183.03"/>
<polygon fill="midnightblue" stroke="midnightblue" points="503.85,-226.57 494.04,-230.56 504.2,-233.56 503.85,-226.57"/>
</g>
<!-- Node4 -->
<g id="node4" class="node">
<title>Node4</title>
<g id="a_node4"><a xlink:href="_o_m_sim_data_file_types_8cc.html" target="_top" xlink:title=" ">
<polygon fill="white" stroke="black" points="199.23,-56.5 199.23,-75.5 333.23,-75.5 333.23,-56.5 199.23,-56.5"/>
<text text-anchor="middle" x="266.23" y="-63.5" font-family="Helvetica,sans-Serif" font-size="10.00">OMSimDataFileTypes.cc</text>
</a>
</g>
</g>
<!-- Node1&#45;&gt;Node4 -->
<g id="edge39" class="edge">
<title>Node1&#45;&gt;Node4</title>
<path fill="none" stroke="midnightblue" d="M384.24,-228.36C274.98,-218.5 50.48,-191.37 4.23,-132 -1.23,-124.99 -1.5,-118.8 4.23,-112 28.69,-82.98 129.9,-72.67 199.12,-69.01"/>
<polygon fill="midnightblue" stroke="midnightblue" points="384.18,-231.86 394.45,-229.26 384.79,-224.89 384.18,-231.86"/>
</g>
<!-- Node16 -->
<g id="node16" class="node">
<title>Node16</title>
<g id="a_node16"><a xlink:href="_o_m_sim_p_m_t_response_8cc.html" target="_top" xlink:title=" ">
<polygon fill="white" stroke="black" points="13.23,-112.5 13.23,-131.5 147.23,-131.5 147.23,-112.5 13.23,-112.5"/>
<text text-anchor="middle" x="80.23" y="-119.5" font-family="Helvetica,sans-Serif" font-size="10.00">OMSimPMTResponse.cc</text>
</a>
</g>
</g>
<!-- Node1&#45;&gt;Node16 -->
<g id="edge40" class="edge">
<title>Node1&#45;&gt;Node16</title>
<path fill="none" stroke="midnightblue" d="M406.21,-221.51C332.85,-199.34 173.3,-151.13 108.47,-131.53"/>
<polygon fill="midnightblue" stroke="midnightblue" points="405.39,-224.92 415.97,-224.46 407.41,-218.22 405.39,-224.92"/>
</g>
<!-- Node18 -->
<g id="node18" class="node">
<title>Node18</title>
<g id="a_node18"><a xlink:href="_o_m_sim_d_e_g_g_8cc.html" target="_top" xlink:title=" ">
<polygon fill="white" stroke="black" points="165.23,-112.5 165.23,-131.5 259.23,-131.5 259.23,-112.5 165.23,-112.5"/>
<text text-anchor="middle" x="212.23" y="-119.5" font-family="Helvetica,sans-Serif" font-size="10.00">OMSimDEGG.cc</text>
</a>
</g>
</g>
<!-- Node1&#45;&gt;Node18 -->
<g id="edge42" class="edge">
<title>Node1&#45;&gt;Node18</title>
<path fill="none" stroke="midnightblue" d="M416.86,-220.02C368.88,-197.27 270.84,-150.79 230.35,-131.59"/>
<polygon fill="midnightblue" stroke="midnightblue" points="415.49,-223.25 426.03,-224.37 418.49,-216.92 415.49,-223.25"/>
</g>
<!-- Node21 -->
<g id="node21" class="node">
<title>Node21</title>
<g id="a_node21"><a xlink:href="_o_m_sim_l_o_m16_8cc.html" target="_top" xlink:title=" ">
<polygon fill="white" stroke="black" points="277.73,-112.5 277.73,-131.5 376.73,-131.5 376.73,-112.5 277.73,-112.5"/>
<text text-anchor="middle" x="327.23" y="-119.5" font-family="Helvetica,sans-Serif" font-size="10.00">OMSimLOM16.cc</text>
</a>
</g>
</g>
<!-- Node1&#45;&gt;Node21 -->
<g id="edge43" class="edge">
<title>Node1&#45;&gt;Node21</title>
<path fill="none" stroke="midnightblue" d="M427.76,-217.51C402.76,-194.01 356.06,-150.11 336.37,-131.59"/>
<polygon fill="midnightblue" stroke="midnightblue" points="425.37,-220.07 435.05,-224.37 430.16,-214.97 425.37,-220.07"/>
</g>
<!-- Node22 -->
<g id="node22" class="node">
<title>Node22</title>
<g id="a_node22"><a xlink:href="_o_m_sim_l_o_m18_8cc.html" target="_top" xlink:title=" ">
<polygon fill="white" stroke="black" points="394.73,-112.5 394.73,-131.5 493.73,-131.5 493.73,-112.5 394.73,-112.5"/>
<text text-anchor="middle" x="444.23" y="-119.5" font-family="Helvetica,sans-Serif" font-size="10.00">OMSimLOM18.cc</text>
</a>
</g>
</g>
<!-- Node1&#45;&gt;Node22 -->
<g id="edge44" class="edge">
<title>Node1&#45;&gt;Node22</title>
<path fill="none" stroke="midnightblue" d="M444.23,-214.35C444.23,-190.25 444.23,-149.31 444.23,-131.59"/>
<polygon fill="midnightblue" stroke="midnightblue" points="440.73,-214.37 444.23,-224.37 447.73,-214.37 440.73,-214.37"/>
</g>
<!-- Node23 -->
<g id="node23" class="node">
<title>Node23</title>
<g id="a_node23"><a xlink:href="_o_m_sim_m_d_o_m_8cc.html" target="_top" xlink:title=" ">
<polygon fill="white" stroke="black" points="512.23,-112.5 512.23,-131.5 610.23,-131.5 610.23,-112.5 512.23,-112.5"/>
<text text-anchor="middle" x="561.23" y="-119.5" font-family="Helvetica,sans-Serif" font-size="10.00">OMSimMDOM.cc</text>
</a>
</g>
</g>
<!-- Node1&#45;&gt;Node23 -->
<g id="edge45" class="edge">
<title>Node1&#45;&gt;Node23</title>
<path fill="none" stroke="midnightblue" d="M460.7,-217.51C485.7,-194.01 532.4,-150.11 552.09,-131.59"/>
<polygon fill="midnightblue" stroke="midnightblue" points="458.3,-214.97 453.41,-224.37 463.09,-220.07 458.3,-214.97"/>
</g>
<!-- Node25 -->
<g id="node25" class="node">
<title>Node25</title>
<g id="a_node25"><a xlink:href="_o_m_sim_p_d_o_m_8cc.html" target="_top" xlink:title=" ">
<polygon fill="white" stroke="black" points="3807.73,-112.5 3807.73,-131.5 3902.73,-131.5 3902.73,-112.5 3807.73,-112.5"/>
<text text-anchor="middle" x="3855.23" y="-119.5" font-family="Helvetica,sans-Serif" font-size="10.00">OMSimPDOM.cc</text>
</a>
</g>
</g>
<!-- Node1&#45;&gt;Node25 -->
<g id="edge46" class="edge">
<title>Node1&#45;&gt;Node25</title>
<path fill="none" stroke="midnightblue" d="M504.08,-232.3C730.38,-229.42 1526.56,-217.3 1636.23,-188 1654.67,-183.07 1655.74,-172.73 1674.23,-168 1902.88,-109.44 3563.08,-152.46 3798.23,-132 3801.32,-131.73 3804.5,-131.39 3807.71,-131.01"/>
<polygon fill="midnightblue" stroke="midnightblue" points="504,-228.8 494.05,-232.42 504.09,-235.8 504,-228.8"/>
</g>
<!-- Node38 -->
<g id="node38" class="node">
<title>Node38</title>
<g id="a_node38"><a xlink:href="abc_detector_component_8cc.html" target="_top" xlink:title=" ">
<polygon fill="white" stroke="black" points="1683.23,-168.5 1683.23,-187.5 1829.23,-187.5 1829.23,-168.5 1683.23,-168.5"/>
<text text-anchor="middle" x="1756.23" y="-175.5" font-family="Helvetica,sans-Serif" font-size="10.00">abcDetectorComponent.cc</text>
</a>
</g>
</g>
<!-- Node1&#45;&gt;Node38 -->
<g id="edge41" class="edge">
<title>Node1&#45;&gt;Node38</title>
<path fill="none" stroke="midnightblue" d="M504.07,-232.21C681.84,-229.55 1222.23,-219.3 1669.23,-188 1673.77,-187.68 1678.45,-187.31 1683.16,-186.91"/>
<polygon fill="midnightblue" stroke="midnightblue" points="503.83,-228.71 493.89,-232.36 503.94,-235.71 503.83,-228.71"/>
</g>
<!-- Node3 -->
<g id="node3" class="node">
<title>Node3</title>
<g id="a_node3"><a xlink:href="_o_m_sim_data_file_types_8hh.html" target="_top" xlink:title="Collection of classes and methods to handle material creation from user data in json files.">
<polygon fill="white" stroke="black" points="628.73,-112.5 628.73,-131.5 763.73,-131.5 763.73,-112.5 628.73,-112.5"/>
<text text-anchor="middle" x="696.23" y="-119.5" font-family="Helvetica,sans-Serif" font-size="10.00">OMSimDataFileTypes.hh</text>
</a>
</g>
</g>
<!-- Node2&#45;&gt;Node3 -->
<g id="edge2" class="edge">
<title>Node2&#45;&gt;Node3</title>
<path fill="none" stroke="midnightblue" d="M1452.99,-173.1C1308.84,-166.67 1021.45,-152.47 778.23,-132 773.52,-131.6 768.66,-131.16 763.77,-130.69"/>
<polygon fill="midnightblue" stroke="midnightblue" points="1452.98,-176.6 1463.12,-173.55 1453.29,-169.61 1452.98,-176.6"/>
</g>
<!-- Node5 -->
<g id="node5" class="node">
<title>Node5</title>
<g id="a_node5"><a xlink:href="_o_m_sim_input_data_8cc.html" target="_top" xlink:title=" ">
<polygon fill="white" stroke="black" points="631.73,-56.5 631.73,-75.5 744.73,-75.5 744.73,-56.5 631.73,-56.5"/>
<text text-anchor="middle" x="688.23" y="-63.5" font-family="Helvetica,sans-Serif" font-size="10.00">OMSimInputData.cc</text>
</a>
</g>
</g>
<!-- Node2&#45;&gt;Node5 -->
<g id="edge15" class="edge">
<title>Node2&#45;&gt;Node5</title>
<path fill="none" stroke="midnightblue" d="M1452.91,-175.29C1287.5,-171.55 947.19,-160.56 832.23,-132 782.19,-119.57 727.98,-90.34 702.72,-75.69"/>
<polygon fill="midnightblue" stroke="midnightblue" points="1452.99,-178.8 1463.07,-175.52 1453.15,-171.8 1452.99,-178.8"/>
</g>
<!-- Node6 -->
<g id="node6" class="node">
<title>Node6</title>
<g id="a_node6"><a xlink:href="_o_m_sim_u_iinterface_8hh.html" target="_top" xlink:title="The OMSimUIinterface class provides a singleton interface to Geant4&#39;s UI manager.">
<polygon fill="white" stroke="black" points="858.73,-112.5 858.73,-131.5 979.73,-131.5 979.73,-112.5 858.73,-112.5"/>
<text text-anchor="middle" x="919.23" y="-119.5" font-family="Helvetica,sans-Serif" font-size="10.00">OMSimUIinterface.hh</text>
</a>
</g>
</g>
<!-- Node2&#45;&gt;Node6 -->
<g id="edge5" class="edge">
<title>Node2&#45;&gt;Node6</title>
<path fill="none" stroke="midnightblue" d="M1453.06,-170.87C1342.66,-163.23 1152.22,-149.06 989.23,-132 986.18,-131.68 983.06,-131.34 979.92,-130.98"/>
<polygon fill="midnightblue" stroke="midnightblue" points="1452.94,-174.38 1463.16,-171.57 1453.42,-167.39 1452.94,-174.38"/>
</g>
<!-- Node12 -->
<g id="node12" class="node">
<title>Node12</title>
<g id="a_node12"><a xlink:href="_o_m_sim_m_d_o_m_flasher_8cc.html" target="_top" xlink:title=" ">
<polygon fill="white" stroke="black" points="763.23,-56.5 763.23,-75.5 897.23,-75.5 897.23,-56.5 763.23,-56.5"/>
<text text-anchor="middle" x="830.23" y="-63.5" font-family="Helvetica,sans-Serif" font-size="10.00">OMSimMDOMFlasher.cc</text>
</a>
</g>
</g>
<!-- Node2&#45;&gt;Node12 -->
<g id="edge24" class="edge">
<title>Node2&#45;&gt;Node12</title>
<path fill="none" stroke="midnightblue" d="M1452.92,-176.84C1274.4,-175.69 895.26,-168.88 849.23,-132 832.16,-118.33 829.87,-90.21 829.89,-75.85"/>
<polygon fill="midnightblue" stroke="midnightblue" points="1453.07,-180.34 1463.09,-176.9 1453.11,-173.34 1453.07,-180.34"/>
</g>
<!-- Node15 -->
<g id="node15" class="node">
<title>Node15</title>
<g id="a_node15"><a xlink:href="_o_m_sim_hit_manager_8cc.html" target="_top" xlink:title=" ">
<polygon fill="white" stroke="black" points="998.23,-112.5 998.23,-131.5 1120.23,-131.5 1120.23,-112.5 998.23,-112.5"/>
<text text-anchor="middle" x="1059.23" y="-119.5" font-family="Helvetica,sans-Serif" font-size="10.00">OMSimHitManager.cc</text>
</a>
</g>
</g>
<!-- Node2&#45;&gt;Node15 -->
<g id="edge14" class="edge">
<title>Node2&#45;&gt;Node15</title>
<path fill="none" stroke="midnightblue" d="M1453.02,-167.56C1368.68,-158.8 1240.49,-145.17 1129.23,-132 1126.31,-131.65 1123.32,-131.29 1120.3,-130.93"/>
<polygon fill="midnightblue" stroke="midnightblue" points="1452.78,-171.06 1463.09,-168.61 1453.5,-164.09 1452.78,-171.06"/>
</g>
<!-- Node2&#45;&gt;Node16 -->
<g id="edge16" class="edge">
<title>Node2&#45;&gt;Node16</title>
<path fill="none" stroke="midnightblue" d="M1452.88,-176.73C1229.75,-175.49 643.75,-168.7 156.23,-132 153.32,-131.78 150.34,-131.53 147.34,-131.26"/>
<polygon fill="midnightblue" stroke="midnightblue" points="1452.89,-180.23 1462.91,-176.79 1452.92,-173.23 1452.89,-180.23"/>
</g>
<!-- Node17 -->
<g id="node17" class="node">
<title>Node17</title>
<g id="a_node17"><a xlink:href="_o_m_sim_sensitive_detector_8cc.html" target="_top" xlink:title=" ">
<polygon fill="white" stroke="black" points="1138.23,-112.5 1138.23,-131.5 1290.23,-131.5 1290.23,-112.5 1138.23,-112.5"/>
<text text-anchor="middle" x="1214.23" y="-119.5" font-family="Helvetica,sans-Serif" font-size="10.00">OMSimSensitiveDetector.cc</text>
</a>
</g>
</g>
<!-- Node2&#45;&gt;Node17 -->
<g id="edge17" class="edge">
<title>Node2&#45;&gt;Node17</title>
<path fill="none" stroke="midnightblue" d="M1482.65,-166.79C1420.11,-156.59 1325.04,-141.08 1266.43,-131.52"/>
<polygon fill="midnightblue" stroke="midnightblue" points="1482.35,-170.29 1492.78,-168.44 1483.48,-163.38 1482.35,-170.29"/>
</g>
<!-- Node2&#45;&gt;Node18 -->
<g id="edge18" class="edge">
<title>Node2&#45;&gt;Node18</title>
<path fill="none" stroke="midnightblue" d="M1453.12,-177.67C1242.67,-178.33 710.57,-175.17 268.23,-132 265.39,-131.72 262.47,-131.39 259.53,-131.03"/>
<polygon fill="midnightblue" stroke="midnightblue" points="1453.21,-181.17 1463.2,-177.63 1453.19,-174.17 1453.21,-181.17"/>
</g>
<!-- Node19 -->
<g id="node19" class="node">
<title>Node19</title>
<g id="a_node19"><a xlink:href="_o_m_sim_d_e_g_g_harness_8cc.html" target="_top" xlink:title=" ">
<polygon fill="white" stroke="black" points="1308.23,-112.5 1308.23,-131.5 1442.23,-131.5 1442.23,-112.5 1308.23,-112.5"/>
<text text-anchor="middle" x="1375.23" y="-119.5" font-family="Helvetica,sans-Serif" font-size="10.00">OMSimDEGGHarness.cc</text>
</a>
</g>
</g>
<!-- Node2&#45;&gt;Node19 -->
<g id="edge19" class="edge">
<title>Node2&#45;&gt;Node19</title>
<path fill="none" stroke="midnightblue" d="M1508.41,-165.3C1476.38,-155.13 1430.71,-140.62 1402.04,-131.52"/>
<polygon fill="midnightblue" stroke="midnightblue" points="1507.7,-168.75 1518.29,-168.44 1509.82,-162.08 1507.7,-168.75"/>
</g>
<!-- Node20 -->
<g id="node20" class="node">
<title>Node20</title>
<g id="a_node20"><a xlink:href="_o_m_sim_detector_construction_8cc.html" target="_top" xlink:title=" ">
<polygon fill="white" stroke="black" points="1460.73,-112.5 1460.73,-131.5 1629.73,-131.5 1629.73,-112.5 1460.73,-112.5"/>
<text text-anchor="middle" x="1545.23" y="-119.5" font-family="Helvetica,sans-Serif" font-size="10.00">OMSimDetectorConstruction.cc</text>
</a>
</g>
</g>
<!-- Node2&#45;&gt;Node20 -->
<g id="edge20" class="edge">
<title>Node2&#45;&gt;Node20</title>
<path fill="none" stroke="midnightblue" d="M1545.23,-157.8C1545.23,-148.91 1545.23,-138.78 1545.23,-131.75"/>
<polygon fill="midnightblue" stroke="midnightblue" points="1541.73,-158.08 1545.23,-168.08 1548.73,-158.08 1541.73,-158.08"/>
</g>
<!-- Node2&#45;&gt;Node21 -->
<g id="edge21" class="edge">
<title>Node2&#45;&gt;Node21</title>
<path fill="none" stroke="midnightblue" d="M1453.09,-177.02C1256.44,-176.28 781.31,-170.28 385.23,-132 382.49,-131.74 379.69,-131.43 376.86,-131.09"/>
<polygon fill="midnightblue" stroke="midnightblue" points="1453.08,-180.52 1463.09,-177.06 1453.1,-173.52 1453.08,-180.52"/>
</g>
<!-- Node2&#45;&gt;Node22 -->
<g id="edge22" class="edge">
<title>Node2&#45;&gt;Node22</title>
<path fill="none" stroke="midnightblue" d="M1452.88,-176.36C1270.8,-174.36 852.77,-166.11 503.23,-132 500.14,-131.7 496.96,-131.34 493.76,-130.95"/>
<polygon fill="midnightblue" stroke="midnightblue" points="1452.92,-179.86 1462.95,-176.47 1452.99,-172.86 1452.92,-179.86"/>
</g>
<!-- Node2&#45;&gt;Node23 -->
<g id="edge23" class="edge">
<title>Node2&#45;&gt;Node23</title>
<path fill="none" stroke="midnightblue" d="M1452.72,-175.73C1285.8,-172.72 923.31,-162.89 619.23,-132 616.29,-131.7 613.27,-131.35 610.23,-130.98"/>
<polygon fill="midnightblue" stroke="midnightblue" points="1452.89,-179.23 1462.95,-175.91 1453.01,-172.23 1452.89,-179.23"/>
</g>
<!-- Node24 -->
<g id="node24" class="node">
<title>Node24</title>
<g id="a_node24"><a xlink:href="_o_m_sim_m_d_o_m_harness_8cc.html" target="_top" xlink:title=" ">
<polygon fill="white" stroke="black" points="1648.23,-112.5 1648.23,-131.5 1786.23,-131.5 1786.23,-112.5 1648.23,-112.5"/>
<text text-anchor="middle" x="1717.23" y="-119.5" font-family="Helvetica,sans-Serif" font-size="10.00">OMSimMDOMHarness.cc</text>
</a>
</g>
</g>
<!-- Node2&#45;&gt;Node24 -->
<g id="edge25" class="edge">
<title>Node2&#45;&gt;Node24</title>
<path fill="none" stroke="midnightblue" d="M1582.06,-165.44C1614.49,-155.26 1660.97,-140.66 1690.1,-131.52"/>
<polygon fill="midnightblue" stroke="midnightblue" points="1580.98,-162.11 1572.48,-168.44 1583.07,-168.79 1580.98,-162.11"/>
</g>
<!-- Node2&#45;&gt;Node25 -->
<g id="edge26" class="edge">
<title>Node2&#45;&gt;Node25</title>
<path fill="none" stroke="midnightblue" d="M1637.82,-168.2C1638.97,-168.13 1640.1,-168.06 1641.23,-168 2598.58,-115.21 2843.03,-214.97 3798.23,-132 3801.32,-131.73 3804.5,-131.4 3807.71,-131.01"/>
<polygon fill="midnightblue" stroke="midnightblue" points="1637.17,-164.73 1627.42,-168.88 1637.63,-171.72 1637.17,-164.73"/>
</g>
<!-- Node26 -->
<g id="node26" class="node">
<title>Node26</title>
<g id="a_node26"><a xlink:href="_o_m_sim_p_m_t_construction_8cc.html" target="_top" xlink:title=" ">
<polygon fill="white" stroke="black" points="1804.73,-112.5 1804.73,-131.5 1951.73,-131.5 1951.73,-112.5 1804.73,-112.5"/>
<text text-anchor="middle" x="1878.23" y="-119.5" font-family="Helvetica,sans-Serif" font-size="10.00">OMSimPMTConstruction.cc</text>
</a>
</g>
</g>
<!-- Node2&#45;&gt;Node26 -->
<g id="edge27" class="edge">
<title>Node2&#45;&gt;Node26</title>
<path fill="none" stroke="midnightblue" d="M1608.19,-166.79C1671.11,-156.59 1766.75,-141.08 1825.71,-131.52"/>
<polygon fill="midnightblue" stroke="midnightblue" points="1607.31,-163.39 1597.99,-168.44 1608.43,-170.3 1607.31,-163.39"/>
</g>
<!-- Node27 -->
<g id="node27" class="node">
<title>Node27</title>
<g id="a_node27"><a xlink:href="_o_m_sim_effective_area_analyisis_8cc.html" target="_top" xlink:title=" ">
<polygon fill="white" stroke="black" points="1969.73,-112.5 1969.73,-131.5 2144.73,-131.5 2144.73,-112.5 1969.73,-112.5"/>
<text text-anchor="middle" x="2057.23" y="-119.5" font-family="Helvetica,sans-Serif" font-size="10.00">OMSimEffectiveAreaAnalyisis.cc</text>
</a>
</g>
</g>
<!-- Node2&#45;&gt;Node27 -->
<g id="edge28" class="edge">
<title>Node2&#45;&gt;Node27</title>
<path fill="none" stroke="midnightblue" d="M1636.12,-167.41C1732.66,-157.23 1883.85,-141.29 1976.39,-131.53"/>
<polygon fill="midnightblue" stroke="midnightblue" points="1635.65,-163.94 1626.08,-168.47 1636.39,-170.91 1635.65,-163.94"/>
</g>
<!-- Node28 -->
<g id="node28" class="node">
<title>Node28</title>
<g id="a_node28"><a xlink:href="_o_m_sim_effective_area_detector_8cc.html" target="_top" xlink:title=" ">
<polygon fill="white" stroke="black" points="2163.23,-112.5 2163.23,-131.5 2335.23,-131.5 2335.23,-112.5 2163.23,-112.5"/>
<text text-anchor="middle" x="2249.23" y="-119.5" font-family="Helvetica,sans-Serif" font-size="10.00">OMSimEffectiveAreaDetector.cc</text>
</a>
</g>
</g>
<!-- Node2&#45;&gt;Node28 -->
<g id="edge29" class="edge">
<title>Node2&#45;&gt;Node28</title>
<path fill="none" stroke="midnightblue" d="M1637.4,-168.32C1638.69,-168.21 1639.96,-168.1 1641.23,-168 1869.03,-149.33 1926.44,-150.78 2154.23,-132 2157.12,-131.76 2160.06,-131.51 2163.02,-131.26"/>
<polygon fill="midnightblue" stroke="midnightblue" points="1637.1,-164.83 1627.44,-169.17 1637.7,-171.8 1637.1,-164.83"/>
</g>
<!-- Node29 -->
<g id="node29" class="node">
<title>Node29</title>
<g id="a_node29"><a xlink:href="_o_m_sim_decays_analysis_8cc.html" target="_top" xlink:title=" ">
<polygon fill="white" stroke="black" points="2353.73,-112.5 2353.73,-131.5 2496.73,-131.5 2496.73,-112.5 2353.73,-112.5"/>
<text text-anchor="middle" x="2425.23" y="-119.5" font-family="Helvetica,sans-Serif" font-size="10.00">OMSimDecaysAnalysis.cc</text>
</a>
</g>
</g>
<!-- Node2&#45;&gt;Node29 -->
<g id="edge30" class="edge">
<title>Node2&#45;&gt;Node29</title>
<path fill="none" stroke="midnightblue" d="M1637.4,-168.28C1638.69,-168.19 1639.96,-168.09 1641.23,-168 1953.27,-145.39 2032.4,-157.29 2344.23,-132 2347.33,-131.75 2350.5,-131.47 2353.7,-131.18"/>
<polygon fill="midnightblue" stroke="midnightblue" points="1637.13,-164.79 1627.43,-169.06 1637.67,-171.77 1637.13,-164.79"/>
</g>
<!-- Node30 -->
<g id="node30" class="node">
<title>Node30</title>
<g id="a_node30"><a xlink:href="radioactive__decays_2src_2_o_m_sim_event_action_8cc.html" target="_top" xlink:title=" ">
<polygon fill="white" stroke="black" points="2515.23,-112.5 2515.23,-131.5 2639.23,-131.5 2639.23,-112.5 2515.23,-112.5"/>
<text text-anchor="middle" x="2577.23" y="-119.5" font-family="Helvetica,sans-Serif" font-size="10.00">OMSimEventAction.cc</text>
</a>
</g>
</g>
<!-- Node2&#45;&gt;Node30 -->
<g id="edge31" class="edge">
<title>Node2&#45;&gt;Node30</title>
<path fill="none" stroke="midnightblue" d="M1637.4,-168.27C1638.68,-168.17 1639.96,-168.09 1641.23,-168 2025.13,-142.03 2122.8,-164.22 2506.23,-132 2509.08,-131.76 2511.99,-131.49 2514.92,-131.2"/>
<polygon fill="midnightblue" stroke="midnightblue" points="1637.14,-164.78 1627.43,-169.01 1637.66,-171.76 1637.14,-164.78"/>
</g>
<!-- Node31 -->
<g id="node31" class="node">
<title>Node31</title>
<g id="a_node31"><a xlink:href="_o_m_sim_g4_radioactive_decay_8cc.html" target="_top" xlink:title=" ">
<polygon fill="white" stroke="black" points="2657.23,-112.5 2657.23,-131.5 2823.23,-131.5 2823.23,-112.5 2657.23,-112.5"/>
<text text-anchor="middle" x="2740.23" y="-119.5" font-family="Helvetica,sans-Serif" font-size="10.00">OMSimG4RadioactiveDecay.cc</text>
</a>
</g>
</g>
<!-- Node2&#45;&gt;Node31 -->
<g id="edge32" class="edge">
<title>Node2&#45;&gt;Node31</title>
<path fill="none" stroke="midnightblue" d="M1637.4,-168.26C1638.68,-168.17 1639.96,-168.08 1641.23,-168 2088.14,-139.09 2201.38,-161.82 2648.23,-132 2651.11,-131.81 2654.04,-131.6 2657,-131.37"/>
<polygon fill="midnightblue" stroke="midnightblue" points="1637.14,-164.76 1627.42,-168.98 1637.65,-171.75 1637.14,-164.76"/>
</g>
<!-- Node32 -->
<g id="node32" class="node">
<title>Node32</title>
<g id="a_node32"><a xlink:href="_o_m_sim_rad_decays_detector_8cc.html" target="_top" xlink:title=" ">
<polygon fill="white" stroke="black" points="2841.73,-112.5 2841.73,-131.5 3002.73,-131.5 3002.73,-112.5 2841.73,-112.5"/>
<text text-anchor="middle" x="2922.23" y="-119.5" font-family="Helvetica,sans-Serif" font-size="10.00">OMSimRadDecaysDetector.cc</text>
</a>
</g>
</g>
<!-- Node2&#45;&gt;Node32 -->
<g id="edge33" class="edge">
<title>Node2&#45;&gt;Node32</title>
<path fill="none" stroke="midnightblue" d="M1637.4,-168.25C1638.68,-168.16 1639.96,-168.08 1641.23,-168 2169.79,-135.27 2303.77,-166.37 2832.23,-132 2835.21,-131.81 2838.24,-131.59 2841.3,-131.36"/>
<polygon fill="midnightblue" stroke="midnightblue" points="1637.15,-164.75 1627.42,-168.95 1637.64,-171.74 1637.15,-164.75"/>
</g>
<!-- Node33 -->
<g id="node33" class="node">
<title>Node33</title>
<g id="a_node33"><a xlink:href="supernova_2src_2_o_m_sim_primary_generator_action_8cc.html" target="_top" xlink:title=" ">
<polygon fill="white" stroke="black" points="3020.73,-112.5 3020.73,-131.5 3203.73,-131.5 3203.73,-112.5 3020.73,-112.5"/>
<text text-anchor="middle" x="3112.23" y="-119.5" font-family="Helvetica,sans-Serif" font-size="10.00">OMSimPrimaryGeneratorAction.cc</text>
</a>
</g>
</g>
<!-- Node2&#45;&gt;Node33 -->
<g id="edge34" class="edge">
<title>Node2&#45;&gt;Node33</title>
<path fill="none" stroke="midnightblue" d="M1637.4,-168.24C1638.68,-168.16 1639.96,-168.08 1641.23,-168 2249.68,-131.53 2403.71,-167.34 3012.23,-132 3015.01,-131.84 3017.84,-131.66 3020.69,-131.47"/>
<polygon fill="midnightblue" stroke="midnightblue" points="1637.16,-164.75 1627.42,-168.93 1637.64,-171.73 1637.16,-164.75"/>
</g>
<!-- Node34 -->
<g id="node34" class="node">
<title>Node34</title>
<g id="a_node34"><a xlink:href="_o_m_sim_s_n_analysis_8cc.html" target="_top" xlink:title="Analyze data and write output files.">
<polygon fill="white" stroke="black" points="3222.23,-112.5 3222.23,-131.5 3342.23,-131.5 3342.23,-112.5 3222.23,-112.5"/>
<text text-anchor="middle" x="3282.23" y="-119.5" font-family="Helvetica,sans-Serif" font-size="10.00">OMSimSNAnalysis.cc</text>
</a>
</g>
</g>
<!-- Node2&#45;&gt;Node34 -->
<g id="edge35" class="edge">
<title>Node2&#45;&gt;Node34</title>
<path fill="none" stroke="midnightblue" d="M1637.83,-168.21C1638.97,-168.13 1640.1,-168.07 1641.23,-168 2338.9,-127.36 2516.41,-185.27 3213.23,-132 3216.12,-131.78 3219.08,-131.52 3222.06,-131.23"/>
<polygon fill="midnightblue" stroke="midnightblue" points="1637.16,-164.74 1627.42,-168.91 1637.63,-171.73 1637.16,-164.74"/>
</g>
<!-- Node35 -->
<g id="node35" class="node">
<title>Node35</title>
<g id="a_node35"><a xlink:href="_o_m_sim_s_ndetector_8cc.html" target="_top" xlink:title=" ">
<polygon fill="white" stroke="black" points="3360.73,-112.5 3360.73,-131.5 3479.73,-131.5 3479.73,-112.5 3360.73,-112.5"/>
<text text-anchor="middle" x="3420.23" y="-119.5" font-family="Helvetica,sans-Serif" font-size="10.00">OMSimSNdetector.cc</text>
</a>
</g>
</g>
<!-- Node2&#45;&gt;Node35 -->
<g id="edge36" class="edge">
<title>Node2&#45;&gt;Node35</title>
<path fill="none" stroke="midnightblue" d="M1637.83,-168.2C1638.97,-168.13 1640.1,-168.06 1641.23,-168 2400.15,-124.49 2593.22,-189.24 3351.23,-132 3354.24,-131.77 3357.32,-131.5 3360.43,-131.2"/>
<polygon fill="midnightblue" stroke="midnightblue" points="1637.16,-164.74 1627.42,-168.9 1637.63,-171.72 1637.16,-164.74"/>
</g>
<!-- Node36 -->
<g id="node36" class="node">
<title>Node36</title>
<g id="a_node36"><a xlink:href="_o_m_sim_s_n_particle_generators_8cc.html" target="_top" xlink:title=" ">
<polygon fill="white" stroke="black" points="3497.73,-112.5 3497.73,-131.5 3666.73,-131.5 3666.73,-112.5 3497.73,-112.5"/>
<text text-anchor="middle" x="3582.23" y="-119.5" font-family="Helvetica,sans-Serif" font-size="10.00">OMSimSNParticleGenerators.cc</text>
</a>
</g>
</g>
<!-- Node2&#45;&gt;Node36 -->
<g id="edge37" class="edge">
<title>Node2&#45;&gt;Node36</title>
<path fill="none" stroke="midnightblue" d="M1637.83,-168.2C1638.97,-168.13 1640.1,-168.06 1641.23,-168 2461.41,-121.63 2669.12,-179.6 3489.23,-132 3491.98,-131.84 3494.78,-131.66 3497.6,-131.47"/>
<polygon fill="midnightblue" stroke="midnightblue" points="1637.16,-164.74 1627.42,-168.89 1637.63,-171.72 1637.16,-164.74"/>
</g>
<!-- Node37 -->
<g id="node37" class="node">
<title>Node37</title>
<g id="a_node37"><a xlink:href="_o_m_sim_s_n_tools_8cc.html" target="_top" xlink:title=" ">
<polygon fill="white" stroke="black" points="3685.23,-112.5 3685.23,-131.5 3789.23,-131.5 3789.23,-112.5 3685.23,-112.5"/>
<text text-anchor="middle" x="3737.23" y="-119.5" font-family="Helvetica,sans-Serif" font-size="10.00">OMSimSNTools.cc</text>
</a>
</g>
</g>
<!-- Node2&#45;&gt;Node37 -->
<g id="edge38" class="edge">
<title>Node2&#45;&gt;Node37</title>
<path fill="none" stroke="midnightblue" d="M1637.82,-168.2C1638.97,-168.13 1640.1,-168.06 1641.23,-168 2544.42,-117.75 2774.69,-206.17 3676.23,-132 3679.11,-131.76 3682.06,-131.48 3685.04,-131.15"/>
<polygon fill="midnightblue" stroke="midnightblue" points="1637.17,-164.73 1627.42,-168.88 1637.63,-171.72 1637.17,-164.73"/>
</g>
<!-- Node3&#45;&gt;Node4 -->
<g id="edge3" class="edge">
<title>Node3&#45;&gt;Node4</title>
<path fill="none" stroke="midnightblue" d="M618.38,-111.22C537.02,-101.01 410.67,-85.14 333.5,-75.45"/>
<polygon fill="midnightblue" stroke="midnightblue" points="618.21,-114.73 628.57,-112.5 619.08,-107.78 618.21,-114.73"/>
</g>
<!-- Node3&#45;&gt;Node5 -->
<g id="edge4" class="edge">
<title>Node3&#45;&gt;Node5</title>
<path fill="none" stroke="midnightblue" d="M693.43,-102.1C692.1,-93.14 690.58,-82.86 689.53,-75.75"/>
<polygon fill="midnightblue" stroke="midnightblue" points="689.98,-102.7 694.91,-112.08 696.91,-101.68 689.98,-102.7"/>
</g>
<!-- Node7 -->
<g id="node7" class="node">
<title>Node7</title>
<g id="a_node7"><a xlink:href="_o_m_sim_8hh.html" target="_top" xlink:title="Main simulation class for the Optical Module (OM) simulation. This file defines the OMSim class,...">
<polygon fill="white" stroke="black" points="915.73,-56.5 915.73,-75.5 982.73,-75.5 982.73,-56.5 915.73,-56.5"/>
<text text-anchor="middle" x="949.23" y="-63.5" font-family="Helvetica,sans-Serif" font-size="10.00">OMSim.hh</text>
</a>
</g>
</g>
<!-- Node6&#45;&gt;Node7 -->
<g id="edge6" class="edge">
<title>Node6&#45;&gt;Node7</title>
<path fill="none" stroke="midnightblue" d="M929.08,-103.27C934.2,-94.05 940.25,-83.17 944.37,-75.75"/>
<polygon fill="midnightblue" stroke="midnightblue" points="925.98,-101.64 924.18,-112.08 932.1,-105.04 925.98,-101.64"/>
</g>
<!-- Node6&#45;&gt;Node12 -->
<g id="edge11" class="edge">
<title>Node6&#45;&gt;Node12</title>
<path fill="none" stroke="midnightblue" d="M895.99,-106.9C879.67,-97 858.36,-84.07 844.49,-75.65"/>
<polygon fill="midnightblue" stroke="midnightblue" points="894.57,-110.13 904.93,-112.32 898.2,-104.14 894.57,-110.13"/>
</g>
<!-- Node13 -->
<g id="node13" class="node">
<title>Node13</title>
<g id="a_node13"><a xlink:href="_o_m_sim_angular_scan_8cc.html" target="_top" xlink:title=" ">
<polygon fill="white" stroke="black" points="1001.23,-56.5 1001.23,-75.5 1127.23,-75.5 1127.23,-56.5 1001.23,-56.5"/>
<text text-anchor="middle" x="1064.23" y="-63.5" font-family="Helvetica,sans-Serif" font-size="10.00">OMSimAngularScan.cc</text>
</a>
</g>
</g>
<!-- Node6&#45;&gt;Node13 -->
<g id="edge12" class="edge">
<title>Node6&#45;&gt;Node13</title>
<path fill="none" stroke="midnightblue" d="M951.71,-108.91C978.97,-98.75 1017.22,-84.51 1041.36,-75.52"/>
<polygon fill="midnightblue" stroke="midnightblue" points="950.36,-105.67 942.21,-112.44 952.8,-112.23 950.36,-105.67"/>
</g>
<!-- Node14 -->
<g id="node14" class="node">
<title>Node14</title>
<g id="a_node14"><a xlink:href="_o_m_sim_decays_g_p_s_8cc.html" target="_top" xlink:title=" ">
<polygon fill="white" stroke="black" points="1145.73,-56.5 1145.73,-75.5 1266.73,-75.5 1266.73,-56.5 1145.73,-56.5"/>
<text text-anchor="middle" x="1206.23" y="-63.5" font-family="Helvetica,sans-Serif" font-size="10.00">OMSimDecaysGPS.cc</text>
</a>
</g>
</g>
<!-- Node6&#45;&gt;Node14 -->
<g id="edge13" class="edge">
<title>Node6&#45;&gt;Node14</title>
<path fill="none" stroke="midnightblue" d="M974.84,-110.54C1029.08,-100.33 1110.57,-85 1160.97,-75.52"/>
<polygon fill="midnightblue" stroke="midnightblue" points="973.89,-107.15 964.71,-112.44 975.18,-114.03 973.89,-107.15"/>
</g>
<!-- Node8 -->
<g id="node8" class="node">
<title>Node8</title>
<g id="a_node8"><a xlink:href="_o_m_sim_8cc.html" target="_top" xlink:title="Implementation of the OMSim class.">
<polygon fill="white" stroke="black" points="709.73,-0.5 709.73,-19.5 774.73,-19.5 774.73,-0.5 709.73,-0.5"/>
<text text-anchor="middle" x="742.23" y="-7.5" font-family="Helvetica,sans-Serif" font-size="10.00">OMSim.cc</text>
</a>
</g>
</g>
<!-- Node7&#45;&gt;Node8 -->
<g id="edge7" class="edge">
<title>Node7&#45;&gt;Node8</title>
<path fill="none" stroke="midnightblue" d="M906.41,-53.83C867.32,-43.63 810.4,-28.78 774.88,-19.52"/>
<polygon fill="midnightblue" stroke="midnightblue" points="905.87,-57.31 916.43,-56.44 907.64,-50.53 905.87,-57.31"/>
</g>
<!-- Node9 -->
<g id="node9" class="node">
<title>Node9</title>
<g id="a_node9"><a xlink:href="_o_m_sim__effective__area_8cc.html" target="_top" xlink:title="Main for the calculation of effective areas.">
<polygon fill="white" stroke="black" points="793.23,-0.5 793.23,-19.5 933.23,-19.5 933.23,-0.5 793.23,-0.5"/>
<text text-anchor="middle" x="863.23" y="-7.5" font-family="Helvetica,sans-Serif" font-size="10.00">OMSim_effective_area.cc</text>
</a>
</g>
</g>
<!-- Node7&#45;&gt;Node9 -->
<g id="edge8" class="edge">
<title>Node7&#45;&gt;Node9</title>
<path fill="none" stroke="midnightblue" d="M926.78,-50.9C911.01,-41 890.42,-28.07 877.01,-19.65"/>
<polygon fill="midnightblue" stroke="midnightblue" points="925.08,-53.97 935.41,-56.32 928.81,-48.04 925.08,-53.97"/>
</g>
<!-- Node10 -->
<g id="node10" class="node">
<title>Node10</title>
<g id="a_node10"><a xlink:href="_o_m_sim__radioactive__decays_8cc.html" target="_top" xlink:title="Main of the radioactive decay study.">
<polygon fill="white" stroke="black" points="951.73,-0.5 951.73,-19.5 1116.73,-19.5 1116.73,-0.5 951.73,-0.5"/>
<text text-anchor="middle" x="1034.23" y="-7.5" font-family="Helvetica,sans-Serif" font-size="10.00">OMSim_radioactive_decays.cc</text>
</a>
</g>
</g>
<!-- Node7&#45;&gt;Node10 -->
<g id="edge9" class="edge">
<title>Node7&#45;&gt;Node10</title>
<path fill="none" stroke="midnightblue" d="M971.42,-50.9C987.01,-41 1007.36,-28.07 1020.61,-19.65"/>
<polygon fill="midnightblue" stroke="midnightblue" points="969.45,-48.01 962.89,-56.32 973.2,-53.92 969.45,-48.01"/>
</g>
<!-- Node11 -->
<g id="node11" class="node">
<title>Node11</title>
<g id="a_node11"><a xlink:href="_o_m_sim__supernova_8cc.html" target="_top" xlink:title="Main of the supernova study.">
<polygon fill="white" stroke="black" points="1135.23,-0.5 1135.23,-19.5 1257.23,-19.5 1257.23,-0.5 1135.23,-0.5"/>
<text text-anchor="middle" x="1196.23" y="-7.5" font-family="Helvetica,sans-Serif" font-size="10.00">OMSim_supernova.cc</text>
</a>
</g>
</g>
<!-- Node7&#45;&gt;Node11 -->
<g id="edge10" class="edge">
<title>Node7&#45;&gt;Node11</title>
<path fill="none" stroke="midnightblue" d="M992.58,-55.52C1039.06,-45.36 1112.21,-29.37 1157.03,-19.57"/>
<polygon fill="midnightblue" stroke="midnightblue" points="991.82,-52.11 982.8,-57.66 993.32,-58.94 991.82,-52.11"/>
</g>
</g>
</svg>
