<?xml version="1.0" encoding="UTF-8" standalone="no"?>
<!DOCTYPE svg PUBLIC "-//W3C//DTD SVG 1.1//EN"
 "http://www.w3.org/Graphics/SVG/1.1/DTD/svg11.dtd">
<!-- Generated by graphviz version 2.43.0 (0)
 -->
<!-- Title: OMSimPMTConstruction.hh Pages: 1 -->
<svg width="1023pt" height="253pt"
 viewBox="0.00 0.00 1022.50 252.86" xmlns="http://www.w3.org/2000/svg" xmlns:xlink="http://www.w3.org/1999/xlink">
<g id="graph0" class="graph" transform="scale(1 1) rotate(0) translate(4 248.86)">
<title>OMSimPMTConstruction.hh</title>
<polygon fill="white" stroke="transparent" points="-4,4 -4,-248.86 1018.5,-248.86 1018.5,4 -4,4"/>
<!-- Node1 -->
<g id="node1" class="node">
<title>Node1</title>
<g id="a_node1"><a xlink:title="Construction of the PMTs.">
<polygon fill="#bfbfbf" stroke="black" points="227,-224.5 227,-243.5 376,-243.5 376,-224.5 227,-224.5"/>
<text text-anchor="middle" x="301.5" y="-231.5" font-family="Helvetica,sans-Serif" font-size="10.00">OMSimPMTConstruction.hh</text>
</a>
</g>
</g>
<!-- Node1&#45;&gt;Node1 -->
<g id="edge28" class="edge">
<title>Node1&#45;&gt;Node1</title>
<path fill="none" stroke="midnightblue" d="M350.93,-244.29C373.91,-245.42 394,-241.99 394,-234 394,-224.87 367.76,-221.69 340.95,-224.47"/>
<polygon fill="midnightblue" stroke="midnightblue" points="351.19,-240.8 340.95,-243.53 350.65,-247.78 351.19,-240.8"/>
</g>
<!-- Node2 -->
<g id="node2" class="node">
<title>Node2</title>
<g id="a_node2"><a xlink:href="_o_m_sim_d_e_g_g_8hh.html" target="_top" xlink:title="Construction of the DEGG class. From DOUMEKI.">
<polygon fill="white" stroke="black" points="0,-112.5 0,-131.5 95,-131.5 95,-112.5 0,-112.5"/>
<text text-anchor="middle" x="47.5" y="-119.5" font-family="Helvetica,sans-Serif" font-size="10.00">OMSimDEGG.hh</text>
</a>
</g>
</g>
<!-- Node1&#45;&gt;Node2 -->
<g id="edge1" class="edge">
<title>Node1&#45;&gt;Node2</title>
<path fill="none" stroke="midnightblue" d="M272.19,-220.3C219.9,-197.66 111.86,-150.87 67.34,-131.59"/>
<polygon fill="midnightblue" stroke="midnightblue" points="271,-223.61 281.57,-224.37 273.78,-217.18 271,-223.61"/>
</g>
<!-- Node3 -->
<g id="node3" class="node">
<title>Node3</title>
<g id="a_node3"><a xlink:href="_o_m_sim_l_o_m16_8hh.html" target="_top" xlink:title="Construction of LOM16.">
<polygon fill="white" stroke="black" points="113,-112.5 113,-131.5 214,-131.5 214,-112.5 113,-112.5"/>
<text text-anchor="middle" x="163.5" y="-119.5" font-family="Helvetica,sans-Serif" font-size="10.00">OMSimLOM16.hh</text>
</a>
</g>
</g>
<!-- Node1&#45;&gt;Node3 -->
<g id="edge2" class="edge">
<title>Node1&#45;&gt;Node3</title>
<path fill="none" stroke="midnightblue" d="M282.83,-218.12C253.54,-194.77 197.71,-150.27 174.28,-131.59"/>
<polygon fill="midnightblue" stroke="midnightblue" points="280.67,-220.87 290.67,-224.37 285.03,-215.4 280.67,-220.87"/>
</g>
<!-- Node4 -->
<g id="node4" class="node">
<title>Node4</title>
<g id="a_node4"><a xlink:href="_o_m_sim_l_o_m18_8hh.html" target="_top" xlink:title="Construction of LOM18.">
<polygon fill="white" stroke="black" points="232,-112.5 232,-131.5 333,-131.5 333,-112.5 232,-112.5"/>
<text text-anchor="middle" x="282.5" y="-119.5" font-family="Helvetica,sans-Serif" font-size="10.00">OMSimLOM18.hh</text>
</a>
</g>
</g>
<!-- Node1&#45;&gt;Node4 -->
<g id="edge3" class="edge">
<title>Node1&#45;&gt;Node4</title>
<path fill="none" stroke="midnightblue" d="M298.28,-214.35C294.12,-190.25 287.04,-149.31 283.98,-131.59"/>
<polygon fill="midnightblue" stroke="midnightblue" points="294.86,-215.11 300.01,-224.37 301.76,-213.92 294.86,-215.11"/>
</g>
<!-- Node6 -->
<g id="node6" class="node">
<title>Node6</title>
<g id="a_node6"><a xlink:href="_o_m_sim_m_d_o_m_8hh.html" target="_top" xlink:title="Construction of mDOM.">
<polygon fill="white" stroke="black" points="351.5,-112.5 351.5,-131.5 451.5,-131.5 451.5,-112.5 351.5,-112.5"/>
<text text-anchor="middle" x="401.5" y="-119.5" font-family="Helvetica,sans-Serif" font-size="10.00">OMSimMDOM.hh</text>
</a>
</g>
</g>
<!-- Node1&#45;&gt;Node6 -->
<g id="edge5" class="edge">
<title>Node1&#45;&gt;Node6</title>
<path fill="none" stroke="midnightblue" d="M309.56,-214.87C316.27,-201.04 326.77,-182.05 339.5,-168 353.25,-152.82 372.89,-139.62 386.36,-131.51"/>
<polygon fill="midnightblue" stroke="midnightblue" points="306.23,-213.72 305.19,-224.27 312.58,-216.67 306.23,-213.72"/>
</g>
<!-- Node7 -->
<g id="node7" class="node">
<title>Node7</title>
<g id="a_node7"><a xlink:href="_o_m_sim_optical_module_8hh_source.html" target="_top" xlink:title=" ">
<polygon fill="white" stroke="black" points="349,-168.5 349,-187.5 486,-187.5 486,-168.5 349,-168.5"/>
<text text-anchor="middle" x="417.5" y="-175.5" font-family="Helvetica,sans-Serif" font-size="10.00">OMSimOpticalModule.hh</text>
</a>
</g>
</g>
<!-- Node1&#45;&gt;Node7 -->
<g id="edge6" class="edge">
<title>Node1&#45;&gt;Node7</title>
<path fill="none" stroke="midnightblue" d="M329.22,-220.1C350.89,-210.01 380.4,-196.27 399.21,-187.52"/>
<polygon fill="midnightblue" stroke="midnightblue" points="327.47,-217.05 319.88,-224.44 330.42,-223.4 327.47,-217.05"/>
</g>
<!-- Node17 -->
<g id="node17" class="node">
<title>Node17</title>
<g id="a_node17"><a xlink:href="_o_m_sim_p_d_o_m_8hh.html" target="_top" xlink:title="Implementation of the pDOM/Gen1 DOM class.">
<polygon fill="white" stroke="black" points="734,-112.5 734,-131.5 831,-131.5 831,-112.5 734,-112.5"/>
<text text-anchor="middle" x="782.5" y="-119.5" font-family="Helvetica,sans-Serif" font-size="10.00">OMSimPDOM.hh</text>
</a>
</g>
</g>
<!-- Node1&#45;&gt;Node17 -->
<g id="edge27" class="edge">
<title>Node1&#45;&gt;Node17</title>
<path fill="none" stroke="midnightblue" d="M348.8,-222.18C444.35,-200.33 658.63,-151.33 745.18,-131.53"/>
<polygon fill="midnightblue" stroke="midnightblue" points="347.81,-218.82 338.84,-224.46 349.37,-225.64 347.81,-218.82"/>
</g>
<!-- Node5 -->
<g id="node5" class="node">
<title>Node5</title>
<g id="a_node5"><a xlink:href="_o_m_sim_l_o_m18_8cc.html" target="_top" xlink:title=" ">
<polygon fill="white" stroke="black" points="178,-56.5 178,-75.5 277,-75.5 277,-56.5 178,-56.5"/>
<text text-anchor="middle" x="227.5" y="-63.5" font-family="Helvetica,sans-Serif" font-size="10.00">OMSimLOM18.cc</text>
</a>
</g>
</g>
<!-- Node4&#45;&gt;Node5 -->
<g id="edge4" class="edge">
<title>Node4&#45;&gt;Node5</title>
<path fill="none" stroke="midnightblue" d="M266.21,-105C256.46,-95.43 244.45,-83.64 236.41,-75.75"/>
<polygon fill="midnightblue" stroke="midnightblue" points="263.83,-107.57 273.42,-112.08 268.73,-102.58 263.83,-107.57"/>
</g>
<!-- Node7&#45;&gt;Node2 -->
<g id="edge7" class="edge">
<title>Node7&#45;&gt;Node2</title>
<path fill="none" stroke="midnightblue" d="M345.85,-167.09C282.17,-158.19 186.58,-144.63 103.5,-132 100.77,-131.59 97.97,-131.15 95.15,-130.71"/>
<polygon fill="midnightblue" stroke="midnightblue" points="345.4,-170.56 355.79,-168.47 346.37,-163.62 345.4,-170.56"/>
</g>
<!-- Node7&#45;&gt;Node3 -->
<g id="edge20" class="edge">
<title>Node7&#45;&gt;Node3</title>
<path fill="none" stroke="midnightblue" d="M367.38,-166.35C319.38,-156.14 247.88,-140.94 203.56,-131.52"/>
<polygon fill="midnightblue" stroke="midnightblue" points="366.74,-169.79 377.25,-168.44 368.2,-162.94 366.74,-169.79"/>
</g>
<!-- Node7&#45;&gt;Node4 -->
<g id="edge21" class="edge">
<title>Node7&#45;&gt;Node4</title>
<path fill="none" stroke="midnightblue" d="M386.59,-164.64C361.26,-154.5 326.07,-140.43 303.79,-131.52"/>
<polygon fill="midnightblue" stroke="midnightblue" points="385.52,-167.98 396.11,-168.44 388.12,-161.48 385.52,-167.98"/>
</g>
<!-- Node7&#45;&gt;Node6 -->
<g id="edge22" class="edge">
<title>Node7&#45;&gt;Node6</title>
<path fill="none" stroke="midnightblue" d="M411.99,-158.4C409.31,-149.36 406.22,-138.94 404.09,-131.75"/>
<polygon fill="midnightblue" stroke="midnightblue" points="408.66,-159.49 414.86,-168.08 415.37,-157.5 408.66,-159.49"/>
</g>
<!-- Node8 -->
<g id="node8" class="node">
<title>Node8</title>
<g id="a_node8"><a xlink:href="_o_m_sim_detector_construction_8hh_source.html" target="_top" xlink:title=" ">
<polygon fill="white" stroke="black" points="545.5,-112.5 545.5,-131.5 715.5,-131.5 715.5,-112.5 545.5,-112.5"/>
<text text-anchor="middle" x="630.5" y="-119.5" font-family="Helvetica,sans-Serif" font-size="10.00">OMSimDetectorConstruction.hh</text>
</a>
</g>
</g>
<!-- Node7&#45;&gt;Node8 -->
<g id="edge8" class="edge">
<title>Node7&#45;&gt;Node8</title>
<path fill="none" stroke="midnightblue" d="M461.05,-165.96C501.28,-155.76 560.2,-140.82 596.91,-131.52"/>
<polygon fill="midnightblue" stroke="midnightblue" points="460.08,-162.59 451.25,-168.44 461.8,-169.38 460.08,-162.59"/>
</g>
<!-- Node15 -->
<g id="node15" class="node">
<title>Node15</title>
<g id="a_node15"><a xlink:href="_o_m_sim_rad_decays_detector_8hh.html" target="_top" xlink:title="Defines the OMSimRadDecaysDetector class for the radioactive decays simulation.">
<polygon fill="white" stroke="black" points="436,-56.5 436,-75.5 599,-75.5 599,-56.5 436,-56.5"/>
<text text-anchor="middle" x="517.5" y="-63.5" font-family="Helvetica,sans-Serif" font-size="10.00">OMSimRadDecaysDetector.hh</text>
</a>
</g>
</g>
<!-- Node7&#45;&gt;Node15 -->
<g id="edge26" class="edge">
<title>Node7&#45;&gt;Node15</title>
<path fill="none" stroke="midnightblue" d="M440.15,-162.59C451.83,-154.49 465.83,-143.66 476.5,-132 492.89,-114.08 506.7,-88.79 513.31,-75.66"/>
<polygon fill="midnightblue" stroke="midnightblue" points="438.1,-159.75 431.76,-168.23 442.01,-165.56 438.1,-159.75"/>
</g>
<!-- Node7&#45;&gt;Node17 -->
<g id="edge23" class="edge">
<title>Node7&#45;&gt;Node17</title>
<path fill="none" stroke="midnightblue" d="M486.75,-167.02C548.99,-158.01 642.89,-144.31 724.5,-132 727.52,-131.54 730.63,-131.07 733.77,-130.59"/>
<polygon fill="midnightblue" stroke="midnightblue" points="486.06,-163.58 476.66,-168.48 487.06,-170.51 486.06,-163.58"/>
</g>
<!-- Node18 -->
<g id="node18" class="node">
<title>Node18</title>
<g id="a_node18"><a xlink:href="_o_m_sim_decays_g_p_s_8hh.html" target="_top" xlink:title="Defines the OMSimDecaysGPS class for the radioactive decays simulation.">
<polygon fill="white" stroke="black" points="295.5,-56.5 295.5,-75.5 417.5,-75.5 417.5,-56.5 295.5,-56.5"/>
<text text-anchor="middle" x="356.5" y="-63.5" font-family="Helvetica,sans-Serif" font-size="10.00">OMSimDecaysGPS.hh</text>
</a>
</g>
</g>
<!-- Node7&#45;&gt;Node18 -->
<g id="edge24" class="edge">
<title>Node7&#45;&gt;Node18</title>
<path fill="none" stroke="midnightblue" d="M438.48,-162.16C454.42,-148.99 471.82,-129.24 460.5,-112 447.97,-92.93 425.44,-81.9 404.55,-75.54"/>
<polygon fill="midnightblue" stroke="midnightblue" points="436.2,-159.5 430.44,-168.39 440.49,-165.03 436.2,-159.5"/>
</g>
<!-- Node9 -->
<g id="node9" class="node">
<title>Node9</title>
<g id="a_node9"><a xlink:href="_o_m_sim_8hh.html" target="_top" xlink:title="Main simulation class for the Optical Module (OM) simulation. This file defines the OMSim class,...">
<polygon fill="white" stroke="black" points="808,-56.5 808,-75.5 875,-75.5 875,-56.5 808,-56.5"/>
<text text-anchor="middle" x="841.5" y="-63.5" font-family="Helvetica,sans-Serif" font-size="10.00">OMSim.hh</text>
</a>
</g>
</g>
<!-- Node8&#45;&gt;Node9 -->
<g id="edge9" class="edge">
<title>Node8&#45;&gt;Node9</title>
<path fill="none" stroke="midnightblue" d="M673.64,-109.96C713.49,-99.76 771.86,-84.82 808.22,-75.52"/>
<polygon fill="midnightblue" stroke="midnightblue" points="672.75,-106.57 663.93,-112.44 674.49,-113.35 672.75,-106.57"/>
</g>
<!-- Node14 -->
<g id="node14" class="node">
<title>Node14</title>
<g id="a_node14"><a xlink:href="_o_m_sim_effective_area_detector_8hh.html" target="_top" xlink:title="Defines the OMSimEffectiveAreaDetector class for effective area simulation detector construction.">
<polygon fill="white" stroke="black" points="617,-56.5 617,-75.5 790,-75.5 790,-56.5 617,-56.5"/>
<text text-anchor="middle" x="703.5" y="-63.5" font-family="Helvetica,sans-Serif" font-size="10.00">OMSimEffectiveAreaDetector.hh</text>
</a>
</g>
</g>
<!-- Node8&#45;&gt;Node14 -->
<g id="edge14" class="edge">
<title>Node8&#45;&gt;Node14</title>
<path fill="none" stroke="midnightblue" d="M650.64,-106.1C663.78,-96.38 680.48,-84.03 691.56,-75.83"/>
<polygon fill="midnightblue" stroke="midnightblue" points="648.19,-103.56 642.23,-112.32 652.35,-109.19 648.19,-103.56"/>
</g>
<!-- Node8&#45;&gt;Node15 -->
<g id="edge16" class="edge">
<title>Node8&#45;&gt;Node15</title>
<path fill="none" stroke="midnightblue" d="M603.5,-108.1C582.39,-98.01 553.64,-84.27 535.32,-75.52"/>
<polygon fill="midnightblue" stroke="midnightblue" points="602.06,-111.29 612.59,-112.44 605.08,-104.97 602.06,-111.29"/>
</g>
<!-- Node16 -->
<g id="node16" class="node">
<title>Node16</title>
<g id="a_node16"><a xlink:href="_o_m_sim_s_ndetector_8hh_source.html" target="_top" xlink:title=" ">
<polygon fill="white" stroke="black" points="893.5,-56.5 893.5,-75.5 1013.5,-75.5 1013.5,-56.5 893.5,-56.5"/>
<text text-anchor="middle" x="953.5" y="-63.5" font-family="Helvetica,sans-Serif" font-size="10.00">OMSimSNdetector.hh</text>
</a>
</g>
</g>
<!-- Node8&#45;&gt;Node16 -->
<g id="edge18" class="edge">
<title>Node8&#45;&gt;Node16</title>
<path fill="none" stroke="midnightblue" d="M691.57,-110.79C752.6,-100.59 845.37,-85.08 902.56,-75.52"/>
<polygon fill="midnightblue" stroke="midnightblue" points="690.97,-107.34 681.68,-112.44 692.12,-114.25 690.97,-107.34"/>
</g>
<!-- Node10 -->
<g id="node10" class="node">
<title>Node10</title>
<g id="a_node10"><a xlink:href="_o_m_sim_8cc.html" target="_top" xlink:title="Implementation of the OMSim class.">
<polygon fill="white" stroke="black" points="809,-0.5 809,-19.5 874,-19.5 874,-0.5 809,-0.5"/>
<text text-anchor="middle" x="841.5" y="-7.5" font-family="Helvetica,sans-Serif" font-size="10.00">OMSim.cc</text>
</a>
</g>
</g>
<!-- Node9&#45;&gt;Node10 -->
<g id="edge10" class="edge">
<title>Node9&#45;&gt;Node10</title>
<path fill="none" stroke="midnightblue" d="M841.5,-45.8C841.5,-36.91 841.5,-26.78 841.5,-19.75"/>
<polygon fill="midnightblue" stroke="midnightblue" points="838,-46.08 841.5,-56.08 845,-46.08 838,-46.08"/>
</g>
<!-- Node11 -->
<g id="node11" class="node">
<title>Node11</title>
<g id="a_node11"><a xlink:href="_o_m_sim__effective__area_8cc.html" target="_top" xlink:title="Main for the calculation of effective areas.">
<polygon fill="white" stroke="black" points="641.5,-0.5 641.5,-19.5 781.5,-19.5 781.5,-0.5 641.5,-0.5"/>
<text text-anchor="middle" x="711.5" y="-7.5" font-family="Helvetica,sans-Serif" font-size="10.00">OMSim_effective_area.cc</text>
</a>
</g>
</g>
<!-- Node9&#45;&gt;Node11 -->
<g id="edge11" class="edge">
<title>Node9&#45;&gt;Node11</title>
<path fill="none" stroke="midnightblue" d="M811.41,-52.5C787.04,-42.38 753.36,-28.39 732,-19.52"/>
<polygon fill="midnightblue" stroke="midnightblue" points="810.32,-55.84 820.9,-56.44 813.01,-49.38 810.32,-55.84"/>
</g>
<!-- Node12 -->
<g id="node12" class="node">
<title>Node12</title>
<g id="a_node12"><a xlink:href="_o_m_sim__radioactive__decays_8cc.html" target="_top" xlink:title="Main of the radioactive decay study.">
<polygon fill="white" stroke="black" points="435,-0.5 435,-19.5 600,-19.5 600,-0.5 435,-0.5"/>
<text text-anchor="middle" x="517.5" y="-7.5" font-family="Helvetica,sans-Serif" font-size="10.00">OMSim_radioactive_decays.cc</text>
</a>
</g>
</g>
<!-- Node9&#45;&gt;Node12 -->
<g id="edge12" class="edge">
<title>Node9&#45;&gt;Node12</title>
<path fill="none" stroke="midnightblue" d="M797.89,-55.96C715,-40.78 630.52,-27.68 575.76,-19.5"/>
<polygon fill="midnightblue" stroke="midnightblue" points="797.26,-59.4 807.73,-57.77 798.53,-52.52 797.26,-59.4"/>
</g>
<!-- Node13 -->
<g id="node13" class="node">
<title>Node13</title>
<g id="a_node13"><a xlink:href="_o_m_sim__supernova_8cc.html" target="_top" xlink:title="Main of the supernova study.">
<polygon fill="white" stroke="black" points="892.5,-0.5 892.5,-19.5 1014.5,-19.5 1014.5,-0.5 892.5,-0.5"/>
<text text-anchor="middle" x="953.5" y="-7.5" font-family="Helvetica,sans-Serif" font-size="10.00">OMSim_supernova.cc</text>
</a>
</g>
</g>
<!-- Node9&#45;&gt;Node13 -->
<g id="edge13" class="edge">
<title>Node9&#45;&gt;Node13</title>
<path fill="none" stroke="midnightblue" d="M868.75,-51.86C889.52,-41.85 917.52,-28.35 935.55,-19.65"/>
<polygon fill="midnightblue" stroke="midnightblue" points="866.98,-48.83 859.49,-56.32 870.02,-55.13 866.98,-48.83"/>
</g>
<!-- Node14&#45;&gt;Node11 -->
<g id="edge15" class="edge">
<title>Node14&#45;&gt;Node11</title>
<path fill="none" stroke="midnightblue" d="M706.3,-46.1C707.63,-37.14 709.15,-26.86 710.2,-19.75"/>
<polygon fill="midnightblue" stroke="midnightblue" points="702.82,-45.68 704.82,-56.08 709.75,-46.7 702.82,-45.68"/>
</g>
<!-- Node15&#45;&gt;Node12 -->
<g id="edge17" class="edge">
<title>Node15&#45;&gt;Node12</title>
<path fill="none" stroke="midnightblue" d="M517.5,-45.8C517.5,-36.91 517.5,-26.78 517.5,-19.75"/>
<polygon fill="midnightblue" stroke="midnightblue" points="514,-46.08 517.5,-56.08 521,-46.08 514,-46.08"/>
</g>
<!-- Node16&#45;&gt;Node13 -->
<g id="edge19" class="edge">
<title>Node16&#45;&gt;Node13</title>
<path fill="none" stroke="midnightblue" d="M953.5,-45.8C953.5,-36.91 953.5,-26.78 953.5,-19.75"/>
<polygon fill="midnightblue" stroke="midnightblue" points="950,-46.08 953.5,-56.08 957,-46.08 950,-46.08"/>
</g>
<!-- Node18&#45;&gt;Node12 -->
<g id="edge25" class="edge">
<title>Node18&#45;&gt;Node12</title>
<path fill="none" stroke="midnightblue" d="M391.76,-53.17C422.08,-43 465.07,-28.59 492.11,-19.52"/>
<polygon fill="midnightblue" stroke="midnightblue" points="390.38,-49.95 382.01,-56.44 392.6,-56.58 390.38,-49.95"/>
</g>
</g>
</svg>
