<?xml version="1.0" encoding="UTF-8" standalone="no"?>
<!DOCTYPE svg PUBLIC "-//W3C//DTD SVG 1.1//EN"
 "http://www.w3.org/Graphics/SVG/1.1/DTD/svg11.dtd">
<!-- Generated by graphviz version 2.43.0 (0)
 -->
<!-- Title: OMSimSensitiveDetector.hh Pages: 1 -->
<svg width="647pt" height="140pt"
 viewBox="0.00 0.00 646.50 140.00" xmlns="http://www.w3.org/2000/svg" xmlns:xlink="http://www.w3.org/1999/xlink">
<g id="graph0" class="graph" transform="scale(1 1) rotate(0) translate(4 136)">
<title>OMSimSensitiveDetector.hh</title>
<polygon fill="white" stroke="transparent" points="-4,4 -4,-136 642.5,-136 642.5,4 -4,4"/>
<!-- Node1 -->
<g id="node1" class="node">
<title>Node1</title>
<g id="a_node1"><a xlink:title=" ">
<polygon fill="#bfbfbf" stroke="black" points="268.5,-112.5 268.5,-131.5 421.5,-131.5 421.5,-112.5 268.5,-112.5"/>
<text text-anchor="middle" x="345" y="-119.5" font-family="Helvetica,sans-Serif" font-size="10.00">OMSimSensitiveDetector.hh</text>
</a>
</g>
</g>
<!-- Node2 -->
<g id="node2" class="node">
<title>Node2</title>
<g id="a_node2"><a xlink:title=" ">
<polygon fill="white" stroke="#bfbfbf" points="0,-56.5 0,-75.5 138,-75.5 138,-56.5 0,-56.5"/>
<text text-anchor="middle" x="69" y="-63.5" font-family="Helvetica,sans-Serif" font-size="10.00">G4VSensitiveDetector.hh</text>
</a>
</g>
</g>
<!-- Node1&#45;&gt;Node2 -->
<g id="edge1" class="edge">
<title>Node1&#45;&gt;Node2</title>
<path fill="none" stroke="midnightblue" d="M301.27,-112.44C252.82,-102.96 174.67,-87.67 122.58,-77.48"/>
<polygon fill="midnightblue" stroke="midnightblue" points="123.01,-74 112.53,-75.52 121.67,-80.87 123.01,-74"/>
</g>
<!-- Node3 -->
<g id="node3" class="node">
<title>Node3</title>
<g id="a_node3"><a xlink:title=" ">
<polygon fill="white" stroke="#bfbfbf" points="156.5,-56.5 156.5,-75.5 259.5,-75.5 259.5,-56.5 156.5,-56.5"/>
<text text-anchor="middle" x="208" y="-63.5" font-family="Helvetica,sans-Serif" font-size="10.00">G4ThreeVector.hh</text>
</a>
</g>
</g>
<!-- Node1&#45;&gt;Node3 -->
<g id="edge2" class="edge">
<title>Node1&#45;&gt;Node3</title>
<path fill="none" stroke="midnightblue" d="M323.29,-112.44C300.65,-103.52 264.93,-89.44 239.25,-79.32"/>
<polygon fill="midnightblue" stroke="midnightblue" points="240.19,-75.93 229.61,-75.52 237.63,-82.44 240.19,-75.93"/>
</g>
<!-- Node4 -->
<g id="node4" class="node">
<title>Node4</title>
<g id="a_node4"><a xlink:href="_o_m_sim_p_m_t_response_8hh.html" target="_top" xlink:title="Provides simulation for PMT response. This class is responsible for transforming hits on photocathode...">
<polygon fill="white" stroke="black" points="277.5,-56.5 277.5,-75.5 412.5,-75.5 412.5,-56.5 277.5,-56.5"/>
<text text-anchor="middle" x="345" y="-63.5" font-family="Helvetica,sans-Serif" font-size="10.00">OMSimPMTResponse.hh</text>
</a>
</g>
</g>
<!-- Node1&#45;&gt;Node4 -->
<g id="edge3" class="edge">
<title>Node1&#45;&gt;Node4</title>
<path fill="none" stroke="midnightblue" d="M345,-112.08C345,-105.01 345,-94.86 345,-85.99"/>
<polygon fill="midnightblue" stroke="midnightblue" points="348.5,-85.75 345,-75.75 341.5,-85.75 348.5,-85.75"/>
</g>
<!-- Node10 -->
<g id="node10" class="node">
<title>Node10</title>
<g id="a_node10"><a xlink:title=" ">
<polygon fill="white" stroke="#bfbfbf" points="430.5,-56.5 430.5,-75.5 573.5,-75.5 573.5,-56.5 430.5,-56.5"/>
<text text-anchor="middle" x="502" y="-63.5" font-family="Helvetica,sans-Serif" font-size="10.00">G4OpBoundaryProcess.hh</text>
</a>
</g>
</g>
<!-- Node1&#45;&gt;Node10 -->
<g id="edge9" class="edge">
<title>Node1&#45;&gt;Node10</title>
<path fill="none" stroke="midnightblue" d="M369.88,-112.44C396.29,-103.36 438.22,-88.94 467.74,-78.78"/>
<polygon fill="midnightblue" stroke="midnightblue" points="468.92,-82.08 477.24,-75.52 466.64,-75.46 468.92,-82.08"/>
</g>
<!-- Node11 -->
<g id="node11" class="node">
<title>Node11</title>
<g id="a_node11"><a xlink:title=" ">
<polygon fill="white" stroke="#bfbfbf" points="591.5,-56.5 591.5,-75.5 638.5,-75.5 638.5,-56.5 591.5,-56.5"/>
<text text-anchor="middle" x="615" y="-63.5" font-family="Helvetica,sans-Serif" font-size="10.00">vector</text>
</a>
</g>
</g>
<!-- Node1&#45;&gt;Node11 -->
<g id="edge10" class="edge">
<title>Node1&#45;&gt;Node11</title>
<path fill="none" stroke="midnightblue" d="M397.27,-112.47C443.41,-104.63 512.68,-92.13 581.19,-76.28"/>
<polygon fill="midnightblue" stroke="midnightblue" points="582.35,-79.6 591.29,-73.92 580.76,-72.79 582.35,-79.6"/>
</g>
<!-- Node5 -->
<g id="node5" class="node">
<title>Node5</title>
<g id="a_node5"><a xlink:title=" ">
<polygon fill="white" stroke="#bfbfbf" points="97.5,-0.5 97.5,-19.5 216.5,-19.5 216.5,-0.5 97.5,-0.5"/>
<text text-anchor="middle" x="157" y="-7.5" font-family="Helvetica,sans-Serif" font-size="10.00">G4SystemOfUnits.hh</text>
</a>
</g>
</g>
<!-- Node4&#45;&gt;Node5 -->
<g id="edge4" class="edge">
<title>Node4&#45;&gt;Node5</title>
<path fill="none" stroke="midnightblue" d="M315.21,-56.44C283.17,-47.24 232.07,-32.56 196.65,-22.39"/>
<polygon fill="midnightblue" stroke="midnightblue" points="197.23,-18.91 186.65,-19.52 195.29,-25.64 197.23,-18.91"/>
</g>
<!-- Node6 -->
<g id="node6" class="node">
<title>Node6</title>
<g id="a_node6"><a xlink:title=" ">
<polygon fill="white" stroke="#bfbfbf" points="234.5,-0.5 234.5,-19.5 307.5,-19.5 307.5,-0.5 234.5,-0.5"/>
<text text-anchor="middle" x="271" y="-7.5" font-family="Helvetica,sans-Serif" font-size="10.00">G4Types.hh</text>
</a>
</g>
</g>
<!-- Node4&#45;&gt;Node6 -->
<g id="edge5" class="edge">
<title>Node4&#45;&gt;Node6</title>
<path fill="none" stroke="midnightblue" d="M333.11,-56.32C321.85,-48.11 304.71,-35.6 291.29,-25.81"/>
<polygon fill="midnightblue" stroke="midnightblue" points="293.25,-22.9 283.11,-19.83 289.12,-28.56 293.25,-22.9"/>
</g>
<!-- Node7 -->
<g id="node7" class="node">
<title>Node7</title>
<g id="a_node7"><a xlink:title=" ">
<polygon fill="white" stroke="#bfbfbf" points="326,-0.5 326,-19.5 364,-19.5 364,-0.5 326,-0.5"/>
<text text-anchor="middle" x="345" y="-7.5" font-family="Helvetica,sans-Serif" font-size="10.00">map</text>
</a>
</g>
</g>
<!-- Node4&#45;&gt;Node7 -->
<g id="edge6" class="edge">
<title>Node4&#45;&gt;Node7</title>
<path fill="none" stroke="midnightblue" d="M345,-56.08C345,-49.01 345,-38.86 345,-29.99"/>
<polygon fill="midnightblue" stroke="midnightblue" points="348.5,-29.75 345,-19.75 341.5,-29.75 348.5,-29.75"/>
</g>
<!-- Node8 -->
<g id="node8" class="node">
<title>Node8</title>
<g id="a_node8"><a xlink:title=" ">
<polygon fill="white" stroke="#bfbfbf" points="382.5,-0.5 382.5,-19.5 443.5,-19.5 443.5,-0.5 382.5,-0.5"/>
<text text-anchor="middle" x="413" y="-7.5" font-family="Helvetica,sans-Serif" font-size="10.00">TGraph.h</text>
</a>
</g>
</g>
<!-- Node4&#45;&gt;Node8 -->
<g id="edge7" class="edge">
<title>Node4&#45;&gt;Node8</title>
<path fill="none" stroke="midnightblue" d="M355.93,-56.32C366.17,-48.18 381.72,-35.84 394,-26.09"/>
<polygon fill="midnightblue" stroke="midnightblue" points="396.22,-28.79 401.88,-19.83 391.87,-23.31 396.22,-28.79"/>
</g>
<!-- Node9 -->
<g id="node9" class="node">
<title>Node9</title>
<g id="a_node9"><a xlink:title=" ">
<polygon fill="white" stroke="#bfbfbf" points="461.5,-0.5 461.5,-19.5 514.5,-19.5 514.5,-0.5 461.5,-0.5"/>
<text text-anchor="middle" x="488" y="-7.5" font-family="Helvetica,sans-Serif" font-size="10.00">TH2D.h</text>
</a>
</g>
</g>
<!-- Node4&#45;&gt;Node9 -->
<g id="edge8" class="edge">
<title>Node4&#45;&gt;Node9</title>
<path fill="none" stroke="midnightblue" d="M367.66,-56.44C391.4,-47.48 428.91,-33.31 455.74,-23.18"/>
<polygon fill="midnightblue" stroke="midnightblue" points="457.33,-26.32 465.45,-19.52 454.86,-19.77 457.33,-26.32"/>
</g>
</g>
</svg>
