<?xml version="1.0" encoding="UTF-8" standalone="no"?>
<!DOCTYPE svg PUBLIC "-//W3C//DTD SVG 1.1//EN"
 "http://www.w3.org/Graphics/SVG/1.1/DTD/svg11.dtd">
<!-- Generated by graphviz version 2.43.0 (0)
 -->
<!-- Title: OMSim.cc Pages: 1 -->
<svg width="2275pt" height="487pt"
 viewBox="0.00 0.00 2275.00 487.00" xmlns="http://www.w3.org/2000/svg" xmlns:xlink="http://www.w3.org/1999/xlink">
<g id="graph0" class="graph" transform="scale(1 1) rotate(0) translate(4 483)">
<title>OMSim.cc</title>
<polygon fill="white" stroke="transparent" points="-4,4 -4,-483 2271,-483 2271,4 -4,4"/>
<!-- Node1 -->
<g id="node1" class="node">
<title>Node1</title>
<g id="a_node1"><a xlink:title="Implementation of the OMSim class.">
<polygon fill="#bfbfbf" stroke="black" points="1292.5,-459.5 1292.5,-478.5 1357.5,-478.5 1357.5,-459.5 1292.5,-459.5"/>
<text text-anchor="middle" x="1325" y="-466.5" font-family="Helvetica,sans-Serif" font-size="10.00">OMSim.cc</text>
</a>
</g>
</g>
<!-- Node2 -->
<g id="node2" class="node">
<title>Node2</title>
<g id="a_node2"><a xlink:href="_o_m_sim_8hh.html" target="_top" xlink:title="Main simulation class for the Optical Module (OM) simulation. This file defines the OMSim class,...">
<polygon fill="white" stroke="black" points="1260.5,-403.5 1260.5,-422.5 1327.5,-422.5 1327.5,-403.5 1260.5,-403.5"/>
<text text-anchor="middle" x="1294" y="-410.5" font-family="Helvetica,sans-Serif" font-size="10.00">OMSim.hh</text>
</a>
</g>
</g>
<!-- Node1&#45;&gt;Node2 -->
<g id="edge1" class="edge">
<title>Node1&#45;&gt;Node2</title>
<path fill="none" stroke="midnightblue" d="M1319.88,-459.08C1315.59,-451.61 1309.34,-440.72 1304.06,-431.52"/>
<polygon fill="midnightblue" stroke="midnightblue" points="1307.04,-429.68 1299.02,-422.75 1300.97,-433.17 1307.04,-429.68"/>
</g>
<!-- Node7 -->
<g id="node7" class="node">
<title>Node7</title>
<g id="a_node7"><a xlink:href="_o_m_sim_logger_8hh.html" target="_top" xlink:title=" ">
<polygon fill="white" stroke="black" points="232.5,-67.5 232.5,-86.5 331.5,-86.5 331.5,-67.5 232.5,-67.5"/>
<text text-anchor="middle" x="282" y="-74.5" font-family="Helvetica,sans-Serif" font-size="10.00">OMSimLogger.hh</text>
</a>
</g>
</g>
<!-- Node1&#45;&gt;Node7 -->
<g id="edge56" class="edge">
<title>Node1&#45;&gt;Node7</title>
<path fill="none" stroke="midnightblue" d="M1292.25,-467.05C1088.21,-460.89 0,-424.94 0,-358 0,-358 0,-358 0,-188 0,-140.39 141.27,-105.07 223.83,-88.49"/>
<polygon fill="midnightblue" stroke="midnightblue" points="224.71,-91.89 233.84,-86.52 223.35,-85.02 224.71,-91.89"/>
</g>
<!-- Node52 -->
<g id="node48" class="node">
<title>Node52</title>
<g id="a_node48"><a xlink:title=" ">
<polygon fill="white" stroke="#bfbfbf" points="1933,-347.5 1933,-366.5 2083,-366.5 2083,-347.5 1933,-347.5"/>
<text text-anchor="middle" x="2008" y="-354.5" font-family="Helvetica,sans-Serif" font-size="10.00">boost/program_options.hpp</text>
</a>
</g>
</g>
<!-- Node1&#45;&gt;Node52 -->
<g id="edge59" class="edge">
<title>Node1&#45;&gt;Node52</title>
<path fill="none" stroke="midnightblue" d="M1357.94,-462.69C1464.79,-445.49 1802.97,-391.02 1944.62,-368.21"/>
<polygon fill="midnightblue" stroke="midnightblue" points="1945.56,-371.6 1954.88,-366.56 1944.45,-364.69 1945.56,-371.6"/>
</g>
<!-- Node53 -->
<g id="node49" class="node">
<title>Node53</title>
<g id="a_node49"><a xlink:href="_o_m_sim_action_initialization_8hh.html" target="_top" xlink:title=" ">
<polygon fill="white" stroke="black" points="1966,-403.5 1966,-422.5 2124,-422.5 2124,-403.5 1966,-403.5"/>
<text text-anchor="middle" x="2045" y="-410.5" font-family="Helvetica,sans-Serif" font-size="10.00">OMSimActionInitialization.hh</text>
</a>
</g>
</g>
<!-- Node1&#45;&gt;Node53 -->
<g id="edge57" class="edge">
<title>Node1&#45;&gt;Node53</title>
<path fill="none" stroke="midnightblue" d="M1357.81,-465.54C1463,-457.65 1794.32,-432.8 1955.36,-420.72"/>
<polygon fill="midnightblue" stroke="midnightblue" points="1956.01,-424.18 1965.72,-419.95 1955.49,-417.2 1956.01,-424.18"/>
</g>
<!-- Node3 -->
<g id="node3" class="node">
<title>Node3</title>
<g id="a_node3"><a xlink:href="_o_m_sim_detector_construction_8hh.html" target="_top" xlink:title=" ">
<polygon fill="white" stroke="black" points="473,-347.5 473,-366.5 643,-366.5 643,-347.5 473,-347.5"/>
<text text-anchor="middle" x="558" y="-354.5" font-family="Helvetica,sans-Serif" font-size="10.00">OMSimDetectorConstruction.hh</text>
</a>
</g>
</g>
<!-- Node2&#45;&gt;Node3 -->
<g id="edge2" class="edge">
<title>Node2&#45;&gt;Node3</title>
<path fill="none" stroke="midnightblue" d="M1260.22,-409.94C1166.04,-404.12 892.34,-386.77 653.32,-367.09"/>
<polygon fill="midnightblue" stroke="midnightblue" points="653.3,-363.58 643.05,-366.24 652.72,-370.55 653.3,-363.58"/>
</g>
<!-- Node34 -->
<g id="node30" class="node">
<title>Node34</title>
<g id="a_node30"><a xlink:title=" ">
<polygon fill="white" stroke="#bfbfbf" points="661.5,-347.5 661.5,-366.5 782.5,-366.5 782.5,-347.5 661.5,-347.5"/>
<text text-anchor="middle" x="722" y="-354.5" font-family="Helvetica,sans-Serif" font-size="10.00">OMSimPhysicsList.hh</text>
</a>
</g>
</g>
<!-- Node2&#45;&gt;Node34 -->
<g id="edge33" class="edge">
<title>Node2&#45;&gt;Node34</title>
<path fill="none" stroke="midnightblue" d="M1260.4,-409.47C1180.95,-403.38 975.1,-387 792.61,-367.14"/>
<polygon fill="midnightblue" stroke="midnightblue" points="792.89,-363.65 782.57,-366.04 792.13,-370.61 792.89,-363.65"/>
</g>
<!-- Node35 -->
<g id="node31" class="node">
<title>Node35</title>
<g id="a_node31"><a xlink:title=" ">
<polygon fill="white" stroke="#bfbfbf" points="800.5,-347.5 800.5,-366.5 985.5,-366.5 985.5,-347.5 800.5,-347.5"/>
<text text-anchor="middle" x="893" y="-354.5" font-family="Helvetica,sans-Serif" font-size="10.00">OMSimPrimaryGeneratorAction.hh</text>
</a>
</g>
</g>
<!-- Node2&#45;&gt;Node35 -->
<g id="edge34" class="edge">
<title>Node2&#45;&gt;Node35</title>
<path fill="none" stroke="midnightblue" d="M1260.16,-407.44C1195.59,-398.75 1053.49,-379.61 966.22,-367.86"/>
<polygon fill="midnightblue" stroke="midnightblue" points="966.5,-364.37 956.13,-366.5 965.57,-371.3 966.5,-364.37"/>
</g>
<!-- Node36 -->
<g id="node32" class="node">
<title>Node36</title>
<g id="a_node32"><a xlink:href="_o_m_sim_run_action_8hh.html" target="_top" xlink:title=" ">
<polygon fill="white" stroke="black" points="363,-291.5 363,-310.5 479,-310.5 479,-291.5 363,-291.5"/>
<text text-anchor="middle" x="421" y="-298.5" font-family="Helvetica,sans-Serif" font-size="10.00">OMSimRunAction.hh</text>
</a>
</g>
</g>
<!-- Node2&#45;&gt;Node36 -->
<g id="edge35" class="edge">
<title>Node2&#45;&gt;Node36</title>
<path fill="none" stroke="midnightblue" d="M1260.16,-411.94C1113.1,-411.47 533.89,-407.04 464,-367 446.07,-356.73 434.23,-335.57 427.59,-320.18"/>
<polygon fill="midnightblue" stroke="midnightblue" points="430.75,-318.66 423.82,-310.65 424.24,-321.23 430.75,-318.66"/>
</g>
<!-- Node38 -->
<g id="node34" class="node">
<title>Node38</title>
<g id="a_node34"><a xlink:title=" ">
<polygon fill="white" stroke="#bfbfbf" points="1003.5,-347.5 1003.5,-366.5 1128.5,-366.5 1128.5,-347.5 1003.5,-347.5"/>
<text text-anchor="middle" x="1066" y="-354.5" font-family="Helvetica,sans-Serif" font-size="10.00">OMSimEventAction.hh</text>
</a>
</g>
</g>
<!-- Node2&#45;&gt;Node38 -->
<g id="edge39" class="edge">
<title>Node2&#45;&gt;Node38</title>
<path fill="none" stroke="midnightblue" d="M1260.36,-404.03C1221.06,-394.72 1155.83,-379.27 1111.9,-368.87"/>
<polygon fill="midnightblue" stroke="midnightblue" points="1112.58,-365.43 1102.04,-366.54 1110.96,-372.25 1112.58,-365.43"/>
</g>
<!-- Node39 -->
<g id="node35" class="node">
<title>Node39</title>
<g id="a_node35"><a xlink:href="_o_m_sim_tracking_action_8hh.html" target="_top" xlink:title=" ">
<polygon fill="white" stroke="black" points="1147,-347.5 1147,-366.5 1285,-366.5 1285,-347.5 1147,-347.5"/>
<text text-anchor="middle" x="1216" y="-354.5" font-family="Helvetica,sans-Serif" font-size="10.00">OMSimTrackingAction.hh</text>
</a>
</g>
</g>
<!-- Node2&#45;&gt;Node39 -->
<g id="edge40" class="edge">
<title>Node2&#45;&gt;Node39</title>
<path fill="none" stroke="midnightblue" d="M1281.47,-403.32C1269.41,-394.98 1250.97,-382.21 1236.73,-372.35"/>
<polygon fill="midnightblue" stroke="midnightblue" points="1238.72,-369.47 1228.5,-366.65 1234.73,-375.22 1238.72,-369.47"/>
</g>
<!-- Node41 -->
<g id="node37" class="node">
<title>Node41</title>
<g id="a_node37"><a xlink:href="_o_m_sim_stepping_action_8hh.html" target="_top" xlink:title="Defines OMSimSteppingAction.Currently it only checks for trapped photons.">
<polygon fill="white" stroke="black" points="1303,-347.5 1303,-366.5 1443,-366.5 1443,-347.5 1303,-347.5"/>
<text text-anchor="middle" x="1373" y="-354.5" font-family="Helvetica,sans-Serif" font-size="10.00">OMSimSteppingAction.hh</text>
</a>
</g>
</g>
<!-- Node2&#45;&gt;Node41 -->
<g id="edge42" class="edge">
<title>Node2&#45;&gt;Node41</title>
<path fill="none" stroke="midnightblue" d="M1306.69,-403.32C1318.9,-394.98 1337.58,-382.21 1352,-372.35"/>
<polygon fill="midnightblue" stroke="midnightblue" points="1354.06,-375.19 1360.34,-366.65 1350.11,-369.41 1354.06,-375.19"/>
</g>
<!-- Node43 -->
<g id="node39" class="node">
<title>Node43</title>
<g id="a_node39"><a xlink:href="_o_m_sim_u_iinterface_8hh.html" target="_top" xlink:title=" ">
<polygon fill="white" stroke="black" points="165.5,-291.5 165.5,-310.5 286.5,-310.5 286.5,-291.5 165.5,-291.5"/>
<text text-anchor="middle" x="226" y="-298.5" font-family="Helvetica,sans-Serif" font-size="10.00">OMSimUIinterface.hh</text>
</a>
</g>
</g>
<!-- Node2&#45;&gt;Node43 -->
<g id="edge44" class="edge">
<title>Node2&#45;&gt;Node43</title>
<path fill="none" stroke="midnightblue" d="M1260.43,-411.32C1122.78,-408.39 601.13,-395.56 439,-367 372.69,-355.32 298.03,-329.45 257.07,-314.1"/>
<polygon fill="midnightblue" stroke="midnightblue" points="258.24,-310.8 247.65,-310.54 255.76,-317.35 258.24,-310.8"/>
</g>
<!-- Node48 -->
<g id="node44" class="node">
<title>Node48</title>
<g id="a_node44"><a xlink:title=" ">
<polygon fill="white" stroke="#bfbfbf" points="1461.5,-347.5 1461.5,-366.5 1582.5,-366.5 1582.5,-347.5 1461.5,-347.5"/>
<text text-anchor="middle" x="1522" y="-354.5" font-family="Helvetica,sans-Serif" font-size="10.00">G4MTRunManager.hh</text>
</a>
</g>
</g>
<!-- Node2&#45;&gt;Node48 -->
<g id="edge51" class="edge">
<title>Node2&#45;&gt;Node48</title>
<path fill="none" stroke="midnightblue" d="M1327.64,-404.03C1366.94,-394.72 1432.17,-379.27 1476.1,-368.87"/>
<polygon fill="midnightblue" stroke="midnightblue" points="1477.04,-372.25 1485.96,-366.54 1475.42,-365.43 1477.04,-372.25"/>
</g>
<!-- Node49 -->
<g id="node45" class="node">
<title>Node49</title>
<g id="a_node45"><a xlink:title=" ">
<polygon fill="white" stroke="#bfbfbf" points="1600.5,-347.5 1600.5,-366.5 1707.5,-366.5 1707.5,-347.5 1600.5,-347.5"/>
<text text-anchor="middle" x="1654" y="-354.5" font-family="Helvetica,sans-Serif" font-size="10.00">G4VisExecutive.hh</text>
</a>
</g>
</g>
<!-- Node2&#45;&gt;Node49 -->
<g id="edge52" class="edge">
<title>Node2&#45;&gt;Node49</title>
<path fill="none" stroke="midnightblue" d="M1327.54,-406.97C1387.43,-397.99 1513.65,-379.05 1590.41,-367.54"/>
<polygon fill="midnightblue" stroke="midnightblue" points="1591.07,-370.98 1600.44,-366.03 1590.03,-364.06 1591.07,-370.98"/>
</g>
<!-- Node50 -->
<g id="node46" class="node">
<title>Node50</title>
<g id="a_node46"><a xlink:title=" ">
<polygon fill="white" stroke="#bfbfbf" points="1725.5,-347.5 1725.5,-366.5 1828.5,-366.5 1828.5,-347.5 1725.5,-347.5"/>
<text text-anchor="middle" x="1777" y="-354.5" font-family="Helvetica,sans-Serif" font-size="10.00">G4UIExecutive.hh</text>
</a>
</g>
</g>
<!-- Node2&#45;&gt;Node50 -->
<g id="edge53" class="edge">
<title>Node2&#45;&gt;Node50</title>
<path fill="none" stroke="midnightblue" d="M1327.7,-408.87C1397.75,-402.27 1564.46,-386.03 1715.51,-367.01"/>
<polygon fill="midnightblue" stroke="midnightblue" points="1715.95,-370.49 1725.44,-365.76 1715.07,-363.54 1715.95,-370.49"/>
</g>
<!-- Node51 -->
<g id="node47" class="node">
<title>Node51</title>
<g id="a_node47"><a xlink:title=" ">
<polygon fill="white" stroke="#bfbfbf" points="1847,-347.5 1847,-366.5 1915,-366.5 1915,-347.5 1847,-347.5"/>
<text text-anchor="middle" x="1881" y="-354.5" font-family="Helvetica,sans-Serif" font-size="10.00">filesystem</text>
</a>
</g>
</g>
<!-- Node2&#45;&gt;Node51 -->
<g id="edge54" class="edge">
<title>Node2&#45;&gt;Node51</title>
<path fill="none" stroke="midnightblue" d="M1327.52,-410.61C1412.88,-406.78 1645.27,-394.45 1837,-367 1837.1,-366.99 1837.2,-366.97 1837.3,-366.96"/>
<polygon fill="midnightblue" stroke="midnightblue" points="1837.65,-370.45 1846.96,-365.38 1836.53,-363.54 1837.65,-370.45"/>
</g>
<!-- Node2&#45;&gt;Node52 -->
<g id="edge55" class="edge">
<title>Node2&#45;&gt;Node52</title>
<path fill="none" stroke="midnightblue" d="M1327.84,-410.01C1420.91,-404.43 1688.82,-387.78 1922.84,-367.07"/>
<polygon fill="midnightblue" stroke="midnightblue" points="1923.26,-370.55 1932.91,-366.18 1922.64,-363.58 1923.26,-370.55"/>
</g>
<!-- Node4 -->
<g id="node4" class="node">
<title>Node4</title>
<g id="a_node4"><a xlink:href="_o_m_sim_optical_module_8hh.html" target="_top" xlink:title=" ">
<polygon fill="white" stroke="black" points="497.5,-291.5 497.5,-310.5 634.5,-310.5 634.5,-291.5 497.5,-291.5"/>
<text text-anchor="middle" x="566" y="-298.5" font-family="Helvetica,sans-Serif" font-size="10.00">OMSimOpticalModule.hh</text>
</a>
</g>
</g>
<!-- Node3&#45;&gt;Node4 -->
<g id="edge3" class="edge">
<title>Node3&#45;&gt;Node4</title>
<path fill="none" stroke="midnightblue" d="M559.32,-347.08C560.38,-339.93 561.91,-329.64 563.23,-320.69"/>
<polygon fill="midnightblue" stroke="midnightblue" points="566.7,-321.16 564.7,-310.75 559.78,-320.13 566.7,-321.16"/>
</g>
<!-- Node32 -->
<g id="node28" class="node">
<title>Node32</title>
<g id="a_node28"><a xlink:title=" ">
<polygon fill="white" stroke="#bfbfbf" points="653,-291.5 653,-310.5 715,-310.5 715,-291.5 653,-291.5"/>
<text text-anchor="middle" x="684" y="-298.5" font-family="Helvetica,sans-Serif" font-size="10.00">G4Orb.hh</text>
</a>
</g>
</g>
<!-- Node3&#45;&gt;Node32 -->
<g id="edge31" class="edge">
<title>Node3&#45;&gt;Node32</title>
<path fill="none" stroke="midnightblue" d="M577.97,-347.44C598.61,-338.6 631.06,-324.69 654.63,-314.59"/>
<polygon fill="midnightblue" stroke="midnightblue" points="656.32,-317.67 664.13,-310.52 653.56,-311.24 656.32,-317.67"/>
</g>
<!-- Node33 -->
<g id="node29" class="node">
<title>Node33</title>
<g id="a_node29"><a xlink:title=" ">
<polygon fill="white" stroke="#bfbfbf" points="733,-291.5 733,-310.5 911,-310.5 911,-291.5 733,-291.5"/>
<text text-anchor="middle" x="822" y="-298.5" font-family="Helvetica,sans-Serif" font-size="10.00">G4VUserDetectorConstruction.hh</text>
</a>
</g>
</g>
<!-- Node3&#45;&gt;Node33 -->
<g id="edge32" class="edge">
<title>Node3&#45;&gt;Node33</title>
<path fill="none" stroke="midnightblue" d="M599.83,-347.44C646.08,-337.98 720.61,-322.74 770.44,-312.55"/>
<polygon fill="midnightblue" stroke="midnightblue" points="771.27,-315.95 780.36,-310.52 769.87,-309.09 771.27,-315.95"/>
</g>
<!-- Node5 -->
<g id="node5" class="node">
<title>Node5</title>
<g id="a_node5"><a xlink:href="abc_detector_component_8hh.html" target="_top" xlink:title="Provides helper base class abcDetectorComponent for constructing and managing detector components in ...">
<polygon fill="white" stroke="black" points="861.5,-179.5 861.5,-198.5 1008.5,-198.5 1008.5,-179.5 861.5,-179.5"/>
<text text-anchor="middle" x="935" y="-186.5" font-family="Helvetica,sans-Serif" font-size="10.00">abcDetectorComponent.hh</text>
</a>
</g>
</g>
<!-- Node4&#45;&gt;Node5 -->
<g id="edge4" class="edge">
<title>Node4&#45;&gt;Node5</title>
<path fill="none" stroke="midnightblue" d="M594.65,-291.46C660.39,-271.86 822.13,-223.65 896.48,-201.48"/>
<polygon fill="midnightblue" stroke="midnightblue" points="897.79,-204.75 906.37,-198.53 895.79,-198.04 897.79,-204.75"/>
</g>
<!-- Node19 -->
<g id="node17" class="node">
<title>Node19</title>
<g id="a_node17"><a xlink:href="_o_m_sim_hit_manager_8hh.html" target="_top" xlink:title="Defines structures and classes related to optical module photon hit management.">
<polygon fill="white" stroke="black" points="501.5,-235.5 501.5,-254.5 624.5,-254.5 624.5,-235.5 501.5,-235.5"/>
<text text-anchor="middle" x="563" y="-242.5" font-family="Helvetica,sans-Serif" font-size="10.00">OMSimHitManager.hh</text>
</a>
</g>
</g>
<!-- Node4&#45;&gt;Node19 -->
<g id="edge16" class="edge">
<title>Node4&#45;&gt;Node19</title>
<path fill="none" stroke="midnightblue" d="M565.5,-291.08C565.11,-284.01 564.55,-273.86 564.05,-264.99"/>
<polygon fill="midnightblue" stroke="midnightblue" points="567.54,-264.54 563.49,-254.75 560.55,-264.93 567.54,-264.54"/>
</g>
<!-- Node29 -->
<g id="node25" class="node">
<title>Node29</title>
<g id="a_node25"><a xlink:href="_o_m_sim_p_m_t_construction_8hh.html" target="_top" xlink:title="Construction of the PMTs.">
<polygon fill="white" stroke="black" points="860.5,-235.5 860.5,-254.5 1009.5,-254.5 1009.5,-235.5 860.5,-235.5"/>
<text text-anchor="middle" x="935" y="-242.5" font-family="Helvetica,sans-Serif" font-size="10.00">OMSimPMTConstruction.hh</text>
</a>
</g>
</g>
<!-- Node4&#45;&gt;Node29 -->
<g id="edge25" class="edge">
<title>Node4&#45;&gt;Node29</title>
<path fill="none" stroke="midnightblue" d="M624.47,-291.44C690.32,-281.81 797.22,-266.16 866.82,-255.98"/>
<polygon fill="midnightblue" stroke="midnightblue" points="867.42,-259.43 876.8,-254.52 866.4,-252.5 867.42,-259.43"/>
</g>
<!-- Node6 -->
<g id="node6" class="node">
<title>Node6</title>
<g id="a_node6"><a xlink:href="_o_m_sim_input_data_8hh.html" target="_top" xlink:title="Definition of ParameterTable and InputDataManager.">
<polygon fill="white" stroke="red" points="632.5,-123.5 632.5,-142.5 747.5,-142.5 747.5,-123.5 632.5,-123.5"/>
<text text-anchor="middle" x="690" y="-130.5" font-family="Helvetica,sans-Serif" font-size="10.00">OMSimInputData.hh</text>
</a>
</g>
</g>
<!-- Node5&#45;&gt;Node6 -->
<g id="edge5" class="edge">
<title>Node5&#45;&gt;Node6</title>
<path fill="none" stroke="midnightblue" d="M896.18,-179.44C853.44,-170.02 784.67,-154.87 738.43,-144.68"/>
<polygon fill="midnightblue" stroke="midnightblue" points="739.16,-141.25 728.64,-142.52 737.65,-148.09 739.16,-141.25"/>
</g>
<!-- Node15 -->
<g id="node13" class="node">
<title>Node15</title>
<g id="a_node13"><a xlink:title=" ">
<polygon fill="white" stroke="#bfbfbf" points="804.5,-123.5 804.5,-142.5 911.5,-142.5 911.5,-123.5 804.5,-123.5"/>
<text text-anchor="middle" x="858" y="-130.5" font-family="Helvetica,sans-Serif" font-size="10.00">G4Transform3D.hh</text>
</a>
</g>
</g>
<!-- Node5&#45;&gt;Node15 -->
<g id="edge12" class="edge">
<title>Node5&#45;&gt;Node15</title>
<path fill="none" stroke="midnightblue" d="M922.63,-179.32C910.84,-171.06 892.87,-158.45 878.86,-148.63"/>
<polygon fill="midnightblue" stroke="midnightblue" points="880.54,-145.53 870.34,-142.65 876.52,-151.26 880.54,-145.53"/>
</g>
<!-- Node16 -->
<g id="node14" class="node">
<title>Node16</title>
<g id="a_node14"><a xlink:title=" ">
<polygon fill="white" stroke="#bfbfbf" points="930,-123.5 930,-142.5 1038,-142.5 1038,-123.5 930,-123.5"/>
<text text-anchor="middle" x="984" y="-130.5" font-family="Helvetica,sans-Serif" font-size="10.00">G4VisAttributes.hh</text>
</a>
</g>
</g>
<!-- Node5&#45;&gt;Node16 -->
<g id="edge13" class="edge">
<title>Node5&#45;&gt;Node16</title>
<path fill="none" stroke="midnightblue" d="M943.09,-179.08C950.16,-171.3 960.59,-159.8 969.15,-150.37"/>
<polygon fill="midnightblue" stroke="midnightblue" points="971.93,-152.51 976.06,-142.75 966.75,-147.8 971.93,-152.51"/>
</g>
<!-- Node17 -->
<g id="node15" class="node">
<title>Node17</title>
<g id="a_node15"><a xlink:title=" ">
<polygon fill="white" stroke="#bfbfbf" points="1056.5,-123.5 1056.5,-142.5 1181.5,-142.5 1181.5,-123.5 1056.5,-123.5"/>
<text text-anchor="middle" x="1119" y="-130.5" font-family="Helvetica,sans-Serif" font-size="10.00">G4SubtractionSolid.hh</text>
</a>
</g>
</g>
<!-- Node5&#45;&gt;Node17 -->
<g id="edge14" class="edge">
<title>Node5&#45;&gt;Node17</title>
<path fill="none" stroke="midnightblue" d="M964.16,-179.44C995.51,-170.24 1045.53,-155.56 1080.2,-145.39"/>
<polygon fill="midnightblue" stroke="midnightblue" points="1081.37,-148.69 1089.98,-142.52 1079.4,-141.97 1081.37,-148.69"/>
</g>
<!-- Node18 -->
<g id="node16" class="node">
<title>Node18</title>
<g id="a_node16"><a xlink:title=" ">
<polygon fill="white" stroke="#bfbfbf" points="1200,-123.5 1200,-142.5 1310,-142.5 1310,-123.5 1200,-123.5"/>
<text text-anchor="middle" x="1255" y="-130.5" font-family="Helvetica,sans-Serif" font-size="10.00">G4PVPlacement.hh</text>
</a>
</g>
</g>
<!-- Node5&#45;&gt;Node18 -->
<g id="edge15" class="edge">
<title>Node5&#45;&gt;Node18</title>
<path fill="none" stroke="midnightblue" d="M985.7,-179.44C1042.35,-169.89 1134,-154.42 1194.38,-144.23"/>
<polygon fill="midnightblue" stroke="midnightblue" points="1195.25,-147.63 1204.53,-142.52 1194.09,-140.73 1195.25,-147.63"/>
</g>
<!-- Node6&#45;&gt;Node7 -->
<g id="edge6" class="edge">
<title>Node6&#45;&gt;Node7</title>
<path fill="none" stroke="midnightblue" d="M632.26,-124.23C629.13,-123.82 626.02,-123.4 623,-123 524.47,-109.88 409.9,-94.8 341.81,-85.85"/>
<polygon fill="midnightblue" stroke="midnightblue" points="342.07,-82.35 331.7,-84.52 341.16,-89.29 342.07,-82.35"/>
</g>
<!-- Node13 -->
<g id="node12" class="node">
<title>Node13</title>
<g id="a_node12"><a xlink:title=" ">
<polygon fill="white" stroke="#bfbfbf" points="673.5,-67.5 673.5,-86.5 792.5,-86.5 792.5,-67.5 673.5,-67.5"/>
<text text-anchor="middle" x="733" y="-74.5" font-family="Helvetica,sans-Serif" font-size="10.00">G4SystemOfUnits.hh</text>
</a>
</g>
</g>
<!-- Node6&#45;&gt;Node13 -->
<g id="edge11" class="edge">
<title>Node6&#45;&gt;Node13</title>
<path fill="none" stroke="midnightblue" d="M697.1,-123.08C703.24,-115.38 712.27,-104.03 719.74,-94.65"/>
<polygon fill="midnightblue" stroke="midnightblue" points="722.54,-96.75 726.03,-86.75 717.06,-92.39 722.54,-96.75"/>
</g>
<!-- Node8 -->
<g id="node8" class="node">
<title>Node8</title>
<g id="a_node8"><a xlink:title=" ">
<polygon fill="white" stroke="#bfbfbf" points="64.5,-6 64.5,-25 157.5,-25 157.5,-6 64.5,-6"/>
<text text-anchor="middle" x="111" y="-13" font-family="Helvetica,sans-Serif" font-size="10.00">spdlog/spdlog.h</text>
</a>
</g>
</g>
<!-- Node7&#45;&gt;Node8 -->
<g id="edge7" class="edge">
<title>Node7&#45;&gt;Node8</title>
<path fill="none" stroke="midnightblue" d="M257.5,-67.48C228.04,-57.22 178.42,-39.96 145.2,-28.4"/>
<polygon fill="midnightblue" stroke="midnightblue" points="146.05,-24.99 135.45,-25.01 143.75,-31.6 146.05,-24.99"/>
</g>
<!-- Node9 -->
<g id="node9" class="node">
<title>Node9</title>
<g id="a_node9"><a xlink:title=" ">
<polygon fill="white" stroke="#bfbfbf" points="175.5,-0.5 175.5,-30.5 286.5,-30.5 286.5,-0.5 175.5,-0.5"/>
<text text-anchor="start" x="183.5" y="-18.5" font-family="Helvetica,sans-Serif" font-size="10.00">spdlog/sinks/stdout</text>
<text text-anchor="middle" x="231" y="-7.5" font-family="Helvetica,sans-Serif" font-size="10.00">_color_sinks.h</text>
</a>
</g>
</g>
<!-- Node7&#45;&gt;Node9 -->
<g id="edge8" class="edge">
<title>Node7&#45;&gt;Node9</title>
<path fill="none" stroke="midnightblue" d="M274.69,-67.48C268.17,-59.87 258.34,-48.4 249.66,-38.26"/>
<polygon fill="midnightblue" stroke="midnightblue" points="252.19,-35.84 243.02,-30.52 246.87,-40.39 252.19,-35.84"/>
</g>
<!-- Node10 -->
<g id="node10" class="node">
<title>Node10</title>
<g id="a_node10"><a xlink:title=" ">
<polygon fill="white" stroke="#bfbfbf" points="305,-6 305,-25 363,-25 363,-6 305,-6"/>
<text text-anchor="middle" x="334" y="-13" font-family="Helvetica,sans-Serif" font-size="10.00">memory</text>
</a>
</g>
</g>
<!-- Node7&#45;&gt;Node10 -->
<g id="edge9" class="edge">
<title>Node7&#45;&gt;Node10</title>
<path fill="none" stroke="midnightblue" d="M289.45,-67.48C297.33,-58.46 309.94,-44.02 319.74,-32.81"/>
<polygon fill="midnightblue" stroke="midnightblue" points="322.62,-34.84 326.56,-25.01 317.35,-30.24 322.62,-34.84"/>
</g>
<!-- Node11 -->
<g id="node11" class="node">
<title>Node11</title>
<g id="a_node11"><a xlink:title=" ">
<polygon fill="white" stroke="#bfbfbf" points="381,-6 381,-25 479,-25 479,-6 381,-6"/>
<text text-anchor="middle" x="430" y="-13" font-family="Helvetica,sans-Serif" font-size="10.00">spdlog/fmt/fmt.h</text>
</a>
</g>
</g>
<!-- Node7&#45;&gt;Node11 -->
<g id="edge10" class="edge">
<title>Node7&#45;&gt;Node11</title>
<path fill="none" stroke="midnightblue" d="M303.2,-67.48C328.37,-57.36 370.54,-40.4 399.28,-28.85"/>
<polygon fill="midnightblue" stroke="midnightblue" points="400.86,-31.99 408.83,-25.01 398.25,-25.49 400.86,-31.99"/>
</g>
<!-- Node20 -->
<g id="node18" class="node">
<title>Node20</title>
<g id="a_node18"><a xlink:href="_o_m_sim_p_m_t_response_8hh.html" target="_top" xlink:title="Simulation of PMT response.">
<polygon fill="white" stroke="red" points="708.5,-179.5 708.5,-198.5 843.5,-198.5 843.5,-179.5 708.5,-179.5"/>
<text text-anchor="middle" x="776" y="-186.5" font-family="Helvetica,sans-Serif" font-size="10.00">OMSimPMTResponse.hh</text>
</a>
</g>
</g>
<!-- Node19&#45;&gt;Node20 -->
<g id="edge17" class="edge">
<title>Node19&#45;&gt;Node20</title>
<path fill="none" stroke="midnightblue" d="M596.75,-235.44C633.52,-226.12 692.45,-211.18 732.62,-201"/>
<polygon fill="midnightblue" stroke="midnightblue" points="733.57,-204.37 742.41,-198.52 731.85,-197.58 733.57,-204.37"/>
</g>
<!-- Node25 -->
<g id="node21" class="node">
<title>Node25</title>
<g id="a_node21"><a xlink:title=" ">
<polygon fill="white" stroke="#bfbfbf" points="366.5,-179.5 366.5,-198.5 469.5,-198.5 469.5,-179.5 366.5,-179.5"/>
<text text-anchor="middle" x="418" y="-186.5" font-family="Helvetica,sans-Serif" font-size="10.00">G4ThreeVector.hh</text>
</a>
</g>
</g>
<!-- Node19&#45;&gt;Node25 -->
<g id="edge21" class="edge">
<title>Node19&#45;&gt;Node25</title>
<path fill="none" stroke="midnightblue" d="M540.02,-235.44C515.84,-226.44 477.58,-212.19 450.35,-202.05"/>
<polygon fill="midnightblue" stroke="midnightblue" points="451.46,-198.73 440.87,-198.52 449.02,-205.29 451.46,-198.73"/>
</g>
<!-- Node26 -->
<g id="node22" class="node">
<title>Node26</title>
<g id="a_node22"><a xlink:title=" ">
<polygon fill="white" stroke="#bfbfbf" points="254.5,-179.5 254.5,-198.5 309.5,-198.5 309.5,-179.5 254.5,-179.5"/>
<text text-anchor="middle" x="282" y="-186.5" font-family="Helvetica,sans-Serif" font-size="10.00">fstream</text>
</a>
</g>
</g>
<!-- Node19&#45;&gt;Node26 -->
<g id="edge22" class="edge">
<title>Node19&#45;&gt;Node26</title>
<path fill="none" stroke="midnightblue" d="M518.47,-235.44C463.6,-224.9 371.32,-207.16 319.76,-197.26"/>
<polygon fill="midnightblue" stroke="midnightblue" points="320.19,-193.77 309.71,-195.32 318.87,-200.65 320.19,-193.77"/>
</g>
<!-- Node27 -->
<g id="node23" class="node">
<title>Node27</title>
<g id="a_node23"><a xlink:title=" ">
<polygon fill="white" stroke="#bfbfbf" points="488,-179.5 488,-198.5 578,-198.5 578,-179.5 488,-179.5"/>
<text text-anchor="middle" x="533" y="-186.5" font-family="Helvetica,sans-Serif" font-size="10.00">G4AutoLock.hh</text>
</a>
</g>
</g>
<!-- Node19&#45;&gt;Node27 -->
<g id="edge23" class="edge">
<title>Node19&#45;&gt;Node27</title>
<path fill="none" stroke="midnightblue" d="M558.05,-235.08C553.9,-227.61 547.85,-216.72 542.73,-207.52"/>
<polygon fill="midnightblue" stroke="midnightblue" points="545.78,-205.79 537.86,-198.75 539.66,-209.19 545.78,-205.79"/>
</g>
<!-- Node28 -->
<g id="node24" class="node">
<title>Node28</title>
<g id="a_node24"><a xlink:title=" ">
<polygon fill="white" stroke="#bfbfbf" points="596,-179.5 596,-198.5 690,-198.5 690,-179.5 596,-179.5"/>
<text text-anchor="middle" x="643" y="-186.5" font-family="Helvetica,sans-Serif" font-size="10.00">G4Threading.hh</text>
</a>
</g>
</g>
<!-- Node19&#45;&gt;Node28 -->
<g id="edge24" class="edge">
<title>Node19&#45;&gt;Node28</title>
<path fill="none" stroke="midnightblue" d="M575.85,-235.32C588.22,-226.98 607.13,-214.21 621.74,-204.35"/>
<polygon fill="midnightblue" stroke="midnightblue" points="623.85,-207.15 630.18,-198.65 619.93,-201.35 623.85,-207.15"/>
</g>
<!-- Node20&#45;&gt;Node13 -->
<g id="edge18" class="edge">
<title>Node20&#45;&gt;Node13</title>
<path fill="none" stroke="midnightblue" d="M773.87,-179.42C770.63,-166.83 763.99,-142.69 756,-123 752.25,-113.75 747.29,-103.84 742.94,-95.68"/>
<polygon fill="midnightblue" stroke="midnightblue" points="745.92,-93.84 738.05,-86.75 739.78,-97.2 745.92,-93.84"/>
</g>
<!-- Node21 -->
<g id="node19" class="node">
<title>Node21</title>
<g id="a_node19"><a xlink:title=" ">
<polygon fill="white" stroke="#bfbfbf" points="484.5,-123.5 484.5,-142.5 557.5,-142.5 557.5,-123.5 484.5,-123.5"/>
<text text-anchor="middle" x="521" y="-130.5" font-family="Helvetica,sans-Serif" font-size="10.00">G4Types.hh</text>
</a>
</g>
</g>
<!-- Node20&#45;&gt;Node21 -->
<g id="edge19" class="edge">
<title>Node20&#45;&gt;Node21</title>
<path fill="none" stroke="midnightblue" d="M735.59,-179.44C689.97,-169.78 615.84,-154.08 567.75,-143.9"/>
<polygon fill="midnightblue" stroke="midnightblue" points="568.41,-140.46 557.9,-141.82 566.96,-147.31 568.41,-140.46"/>
</g>
<!-- Node22 -->
<g id="node20" class="node">
<title>Node22</title>
<g id="a_node20"><a xlink:title=" ">
<polygon fill="white" stroke="#bfbfbf" points="576,-123.5 576,-142.5 614,-142.5 614,-123.5 576,-123.5"/>
<text text-anchor="middle" x="595" y="-130.5" font-family="Helvetica,sans-Serif" font-size="10.00">map</text>
</a>
</g>
</g>
<!-- Node20&#45;&gt;Node22 -->
<g id="edge20" class="edge">
<title>Node20&#45;&gt;Node22</title>
<path fill="none" stroke="midnightblue" d="M746.03,-179.42C717.07,-171.09 671.72,-157.89 623.86,-143.21"/>
<polygon fill="midnightblue" stroke="midnightblue" points="624.85,-139.86 614.26,-140.26 622.79,-146.55 624.85,-139.86"/>
</g>
<!-- Node29&#45;&gt;Node5 -->
<g id="edge26" class="edge">
<title>Node29&#45;&gt;Node5</title>
<path fill="none" stroke="midnightblue" d="M935,-235.08C935,-228.01 935,-217.86 935,-208.99"/>
<polygon fill="midnightblue" stroke="midnightblue" points="938.5,-208.75 935,-198.75 931.5,-208.75 938.5,-208.75"/>
</g>
<!-- Node29&#45;&gt;Node20 -->
<g id="edge28" class="edge">
<title>Node29&#45;&gt;Node20</title>
<path fill="none" stroke="midnightblue" d="M909.81,-235.44C883.06,-226.36 840.6,-211.94 810.69,-201.78"/>
<polygon fill="midnightblue" stroke="midnightblue" points="811.67,-198.42 801.08,-198.52 809.42,-205.05 811.67,-198.42"/>
</g>
<!-- Node29&#45;&gt;Node29 -->
<g id="edge27" class="edge">
<title>Node29&#45;&gt;Node29</title>
<path fill="none" stroke="midnightblue" d="M974.45,-254.53C1001.26,-257.31 1027.5,-254.13 1027.5,-245 1027.5,-237.01 1007.41,-233.58 984.43,-234.71"/>
<polygon fill="midnightblue" stroke="midnightblue" points="984.15,-231.22 974.45,-235.47 984.69,-238.2 984.15,-231.22"/>
</g>
<!-- Node30 -->
<g id="node26" class="node">
<title>Node30</title>
<g id="a_node26"><a xlink:title=" ">
<polygon fill="white" stroke="#bfbfbf" points="1027,-179.5 1027,-198.5 1125,-198.5 1125,-179.5 1027,-179.5"/>
<text text-anchor="middle" x="1076" y="-186.5" font-family="Helvetica,sans-Serif" font-size="10.00">G4UnionSolid.hh</text>
</a>
</g>
</g>
<!-- Node29&#45;&gt;Node30 -->
<g id="edge29" class="edge">
<title>Node29&#45;&gt;Node30</title>
<path fill="none" stroke="midnightblue" d="M957.34,-235.44C980.75,-226.48 1017.74,-212.31 1044.19,-202.18"/>
<polygon fill="midnightblue" stroke="midnightblue" points="1045.68,-205.36 1053.76,-198.52 1043.17,-198.82 1045.68,-205.36"/>
</g>
<!-- Node31 -->
<g id="node27" class="node">
<title>Node31</title>
<g id="a_node27"><a xlink:title=" ">
<polygon fill="white" stroke="#bfbfbf" points="1143.5,-179.5 1143.5,-198.5 1210.5,-198.5 1210.5,-179.5 1143.5,-179.5"/>
<text text-anchor="middle" x="1177" y="-186.5" font-family="Helvetica,sans-Serif" font-size="10.00">G4Tubs.hh</text>
</a>
</g>
</g>
<!-- Node29&#45;&gt;Node31 -->
<g id="edge30" class="edge">
<title>Node29&#45;&gt;Node31</title>
<path fill="none" stroke="midnightblue" d="M973.35,-235.44C1016.84,-225.74 1087.62,-209.95 1133.23,-199.77"/>
<polygon fill="midnightblue" stroke="midnightblue" points="1134.13,-203.15 1143.13,-197.56 1132.61,-196.32 1134.13,-203.15"/>
</g>
<!-- Node36&#45;&gt;Node7 -->
<g id="edge38" class="edge">
<title>Node36&#45;&gt;Node7</title>
<path fill="none" stroke="midnightblue" d="M403.75,-291.4C389.57,-283.58 369.8,-270.85 357,-255 336.06,-229.08 302.15,-135.9 288.25,-96.16"/>
<polygon fill="midnightblue" stroke="midnightblue" points="291.54,-94.97 284.96,-86.67 284.93,-97.27 291.54,-94.97"/>
</g>
<!-- Node36&#45;&gt;Node19 -->
<g id="edge37" class="edge">
<title>Node36&#45;&gt;Node19</title>
<path fill="none" stroke="midnightblue" d="M443.5,-291.44C467.08,-282.48 504.32,-268.31 530.96,-258.18"/>
<polygon fill="midnightblue" stroke="midnightblue" points="532.5,-261.34 540.6,-254.52 530.01,-254.8 532.5,-261.34"/>
</g>
<!-- Node37 -->
<g id="node33" class="node">
<title>Node37</title>
<g id="a_node33"><a xlink:title=" ">
<polygon fill="white" stroke="#bfbfbf" points="366.5,-235.5 366.5,-254.5 483.5,-254.5 483.5,-235.5 366.5,-235.5"/>
<text text-anchor="middle" x="425" y="-242.5" font-family="Helvetica,sans-Serif" font-size="10.00">G4UserRunAction.hh</text>
</a>
</g>
</g>
<!-- Node36&#45;&gt;Node37 -->
<g id="edge36" class="edge">
<title>Node36&#45;&gt;Node37</title>
<path fill="none" stroke="midnightblue" d="M421.66,-291.08C422.18,-284.01 422.94,-273.86 423.59,-264.99"/>
<polygon fill="midnightblue" stroke="midnightblue" points="427.1,-264.98 424.35,-254.75 420.12,-264.47 427.1,-264.98"/>
</g>
<!-- Node40 -->
<g id="node36" class="node">
<title>Node40</title>
<g id="a_node36"><a xlink:title=" ">
<polygon fill="white" stroke="#bfbfbf" points="1145.5,-291.5 1145.5,-310.5 1284.5,-310.5 1284.5,-291.5 1145.5,-291.5"/>
<text text-anchor="middle" x="1215" y="-298.5" font-family="Helvetica,sans-Serif" font-size="10.00">G4UserTrackingAction.hh</text>
</a>
</g>
</g>
<!-- Node39&#45;&gt;Node40 -->
<g id="edge41" class="edge">
<title>Node39&#45;&gt;Node40</title>
<path fill="none" stroke="midnightblue" d="M1215.83,-347.08C1215.7,-340.01 1215.52,-329.86 1215.35,-320.99"/>
<polygon fill="midnightblue" stroke="midnightblue" points="1218.85,-320.68 1215.16,-310.75 1211.85,-320.81 1218.85,-320.68"/>
</g>
<!-- Node42 -->
<g id="node38" class="node">
<title>Node42</title>
<g id="a_node38"><a xlink:title=" ">
<polygon fill="white" stroke="#bfbfbf" points="1302.5,-291.5 1302.5,-310.5 1443.5,-310.5 1443.5,-291.5 1302.5,-291.5"/>
<text text-anchor="middle" x="1373" y="-298.5" font-family="Helvetica,sans-Serif" font-size="10.00">G4UserSteppingAction.hh</text>
</a>
</g>
</g>
<!-- Node41&#45;&gt;Node42 -->
<g id="edge43" class="edge">
<title>Node41&#45;&gt;Node42</title>
<path fill="none" stroke="midnightblue" d="M1373,-347.08C1373,-340.01 1373,-329.86 1373,-320.99"/>
<polygon fill="midnightblue" stroke="midnightblue" points="1376.5,-320.75 1373,-310.75 1369.5,-320.75 1376.5,-320.75"/>
</g>
<!-- Node44 -->
<g id="node40" class="node">
<title>Node44</title>
<g id="a_node40"><a xlink:href="_o_m_sim_command_args_table_8hh.html" target="_top" xlink:title="Definition of the OMSimCommandArgsTable singleton class, which controls user args.">
<polygon fill="white" stroke="black" points="144,-235.5 144,-254.5 308,-254.5 308,-235.5 144,-235.5"/>
<text text-anchor="middle" x="226" y="-242.5" font-family="Helvetica,sans-Serif" font-size="10.00">OMSimCommandArgsTable.hh</text>
</a>
</g>
</g>
<!-- Node43&#45;&gt;Node44 -->
<g id="edge45" class="edge">
<title>Node43&#45;&gt;Node44</title>
<path fill="none" stroke="midnightblue" d="M226,-291.08C226,-284.01 226,-273.86 226,-264.99"/>
<polygon fill="midnightblue" stroke="midnightblue" points="229.5,-264.75 226,-254.75 222.5,-264.75 229.5,-264.75"/>
</g>
<!-- Node47 -->
<g id="node43" class="node">
<title>Node47</title>
<g id="a_node43"><a xlink:title=" ">
<polygon fill="white" stroke="#bfbfbf" points="28,-235.5 28,-254.5 126,-254.5 126,-235.5 28,-235.5"/>
<text text-anchor="middle" x="77" y="-242.5" font-family="Helvetica,sans-Serif" font-size="10.00">G4UImanager.hh</text>
</a>
</g>
</g>
<!-- Node43&#45;&gt;Node47 -->
<g id="edge50" class="edge">
<title>Node43&#45;&gt;Node47</title>
<path fill="none" stroke="midnightblue" d="M202.39,-291.44C177.54,-282.44 138.23,-268.19 110.25,-258.05"/>
<polygon fill="midnightblue" stroke="midnightblue" points="111.09,-254.63 100.5,-254.52 108.71,-261.21 111.09,-254.63"/>
</g>
<!-- Node44&#45;&gt;Node7 -->
<g id="edge46" class="edge">
<title>Node44&#45;&gt;Node7</title>
<path fill="none" stroke="midnightblue" d="M228.4,-235.11C231.83,-222.54 238.46,-198.88 245,-179 254.64,-149.68 267.26,-116.11 274.99,-96.01"/>
<polygon fill="midnightblue" stroke="midnightblue" points="278.29,-97.17 278.64,-86.58 271.77,-94.64 278.29,-97.17"/>
</g>
<!-- Node44&#45;&gt;Node26 -->
<g id="edge47" class="edge">
<title>Node44&#45;&gt;Node26</title>
<path fill="none" stroke="midnightblue" d="M235,-235.32C243.19,-227.42 255.51,-215.55 265.47,-205.94"/>
<polygon fill="midnightblue" stroke="midnightblue" points="268.07,-208.29 272.84,-198.83 263.21,-203.26 268.07,-208.29"/>
</g>
<!-- Node45 -->
<g id="node41" class="node">
<title>Node45</title>
<g id="a_node41"><a xlink:title=" ">
<polygon fill="white" stroke="#bfbfbf" points="114,-179.5 114,-198.5 198,-198.5 198,-179.5 114,-179.5"/>
<text text-anchor="middle" x="156" y="-186.5" font-family="Helvetica,sans-Serif" font-size="10.00">boost/any.hpp</text>
</a>
</g>
</g>
<!-- Node44&#45;&gt;Node45 -->
<g id="edge48" class="edge">
<title>Node44&#45;&gt;Node45</title>
<path fill="none" stroke="midnightblue" d="M214.75,-235.32C204.2,-227.18 188.2,-214.84 175.56,-205.09"/>
<polygon fill="midnightblue" stroke="midnightblue" points="177.51,-202.17 167.45,-198.83 173.23,-207.71 177.51,-202.17"/>
</g>
<!-- Node46 -->
<g id="node42" class="node">
<title>Node46</title>
<g id="a_node42"><a xlink:title=" ">
<polygon fill="white" stroke="#bfbfbf" points="28,-179.5 28,-198.5 96,-198.5 96,-179.5 28,-179.5"/>
<text text-anchor="middle" x="62" y="-186.5" font-family="Helvetica,sans-Serif" font-size="10.00">sys/time.h</text>
</a>
</g>
</g>
<!-- Node44&#45;&gt;Node46 -->
<g id="edge49" class="edge">
<title>Node44&#45;&gt;Node46</title>
<path fill="none" stroke="midnightblue" d="M200.01,-235.44C172.3,-226.32 128.25,-211.81 97.38,-201.65"/>
<polygon fill="midnightblue" stroke="midnightblue" points="98.46,-198.32 87.86,-198.52 96.27,-204.97 98.46,-198.32"/>
</g>
<!-- Node54 -->
<g id="node50" class="node">
<title>Node54</title>
<g id="a_node50"><a xlink:title=" ">
<polygon fill="white" stroke="#bfbfbf" points="2101,-347.5 2101,-366.5 2267,-366.5 2267,-347.5 2101,-347.5"/>
<text text-anchor="middle" x="2184" y="-354.5" font-family="Helvetica,sans-Serif" font-size="10.00">G4VUserActionInitialization.hh</text>
</a>
</g>
</g>
<!-- Node53&#45;&gt;Node54 -->
<g id="edge58" class="edge">
<title>Node53&#45;&gt;Node54</title>
<path fill="none" stroke="midnightblue" d="M2067.02,-403.44C2090.1,-394.48 2126.56,-380.31 2152.64,-370.18"/>
<polygon fill="midnightblue" stroke="midnightblue" points="2154.02,-373.4 2162.08,-366.52 2151.49,-366.88 2154.02,-373.4"/>
</g>
</g>
</svg>
