<?xml version="1.0" encoding="UTF-8" standalone="no"?>
<!DOCTYPE svg PUBLIC "-//W3C//DTD SVG 1.1//EN"
 "http://www.w3.org/Graphics/SVG/1.1/DTD/svg11.dtd">
<!-- Generated by graphviz version 2.43.0 (0)
 -->
<!-- Title: OMSim_radioactive_decays.cc Pages: 1 -->
<svg width="2459pt" height="487pt"
 viewBox="0.00 0.00 2458.50 487.00" xmlns="http://www.w3.org/2000/svg" xmlns:xlink="http://www.w3.org/1999/xlink">
<g id="graph0" class="graph" transform="scale(1 1) rotate(0) translate(4 483)">
<title>OMSim_radioactive_decays.cc</title>
<!-- Node1 -->
<g id="node1" class="node">
<title>Node1</title>
<g id="a_node1"><a xlink:title="Main of the radioactive decay study.">
<polygon fill="#bfbfbf" stroke="black" points="803.5,-459.5 803.5,-478.5 968.5,-478.5 968.5,-459.5 803.5,-459.5"/>
<text text-anchor="middle" x="886" y="-466.5" font-family="Helvetica,sans-Serif" font-size="10.00">OMSim_radioactive_decays.cc</text>
</a>
</g>
</g>
<!-- Node2 -->
<g id="node2" class="node">
<title>Node2</title>
<g id="a_node2"><a xlink:href="_o_m_sim_8hh.html" target="_top" xlink:title="Main simulation class for the Optical Module (OM) simulation. This file defines the OMSim class,...">
<polygon fill="none" stroke="black" points="1448.5,-403.5 1448.5,-422.5 1515.5,-422.5 1515.5,-403.5 1448.5,-403.5"/>
<text text-anchor="middle" x="1482" y="-410.5" font-family="Helvetica,sans-Serif" font-size="10.00">OMSim.hh</text>
</a>
</g>
</g>
<!-- Node1&#45;&gt;Node2 -->
<g id="edge1" class="edge">
<title>Node1&#45;&gt;Node2</title>
<path fill="none" stroke="midnightblue" d="M968.56,-460.52C1096.68,-448.91 1338.95,-426.96 1438.06,-417.98"/>
<polygon fill="midnightblue" stroke="midnightblue" points="1438.67,-421.44 1448.31,-417.05 1438.03,-414.47 1438.67,-421.44"/>
</g>
<!-- Node26 -->
<g id="node15" class="node">
<title>Node26</title>
<g id="a_node15"><a xlink:href="_o_m_sim_hit_manager_8hh.html" target="_top" xlink:title="Defines structures and classes related to optical module photon hit management.">
<polygon fill="none" stroke="black" points="802.5,-235.5 802.5,-254.5 925.5,-254.5 925.5,-235.5 802.5,-235.5"/>
<text text-anchor="middle" x="864" y="-242.5" font-family="Helvetica,sans-Serif" font-size="10.00">OMSimHitManager.hh</text>
</a>
</g>
</g>
<!-- Node1&#45;&gt;Node26 -->
<g id="edge57" class="edge">
<title>Node1&#45;&gt;Node26</title>
<path fill="none" stroke="midnightblue" d="M885.14,-459.3C881.9,-426.63 870.43,-310.87 865.88,-264.96"/>
<polygon fill="midnightblue" stroke="midnightblue" points="869.35,-264.49 864.88,-254.88 862.38,-265.18 869.35,-264.49"/>
</g>
<!-- Node60 -->
<g id="node47" class="node">
<title>Node60</title>
<g id="a_node47"><a xlink:href="_o_m_sim_decays_g_p_s_8hh.html" target="_top" xlink:title="Defines the OMSimDecaysGPS class for the radioactive decays simulation.">
<polygon fill="none" stroke="black" points="317,-403.5 317,-422.5 439,-422.5 439,-403.5 317,-403.5"/>
<text text-anchor="middle" x="378" y="-410.5" font-family="Helvetica,sans-Serif" font-size="10.00">OMSimDecaysGPS.hh</text>
</a>
</g>
</g>
<!-- Node1&#45;&gt;Node60 -->
<g id="edge54" class="edge">
<title>Node1&#45;&gt;Node60</title>
<path fill="none" stroke="midnightblue" d="M805.79,-459.47C707.59,-449.04 542.83,-431.52 449.02,-421.55"/>
<polygon fill="midnightblue" stroke="midnightblue" points="449.37,-418.07 439.06,-420.49 448.63,-425.03 449.37,-418.07"/>
</g>
<!-- Node62 -->
<g id="node49" class="node">
<title>Node62</title>
<g id="a_node49"><a xlink:href="_o_m_sim_decays_analysis_8hh.html" target="_top" xlink:title="Defines the OMSimDecaysAnalysis class and DecayStats struct for the radioactive decays simulation.">
<polygon fill="none" stroke="black" points="944,-235.5 944,-254.5 1088,-254.5 1088,-235.5 944,-235.5"/>
<text text-anchor="middle" x="1016" y="-242.5" font-family="Helvetica,sans-Serif" font-size="10.00">OMSimDecaysAnalysis.hh</text>
</a>
</g>
</g>
<!-- Node1&#45;&gt;Node62 -->
<g id="edge58" class="edge">
<title>Node1&#45;&gt;Node62</title>
<path fill="none" stroke="midnightblue" d="M889.48,-459.21C897.67,-438.87 919.28,-387.2 943,-347 961.5,-315.65 987.21,-281.89 1002.66,-262.42"/>
<polygon fill="midnightblue" stroke="midnightblue" points="1005.46,-264.53 1008.98,-254.54 1000,-260.15 1005.46,-264.53"/>
</g>
<!-- Node63 -->
<g id="node50" class="node">
<title>Node63</title>
<g id="a_node50"><a xlink:href="_o_m_sim_rad_decays_detector_8hh.html" target="_top" xlink:title="Defines the OMSimRadDecaysDetector class for the radioactive decays simulation.">
<polygon fill="none" stroke="black" points="529.5,-403.5 529.5,-422.5 692.5,-422.5 692.5,-403.5 529.5,-403.5"/>
<text text-anchor="middle" x="611" y="-410.5" font-family="Helvetica,sans-Serif" font-size="10.00">OMSimRadDecaysDetector.hh</text>
</a>
</g>
</g>
<!-- Node1&#45;&gt;Node63 -->
<g id="edge62" class="edge">
<title>Node1&#45;&gt;Node63</title>
<path fill="none" stroke="midnightblue" d="M842.43,-459.44C794.15,-449.96 716.29,-434.67 664.39,-424.48"/>
<polygon fill="midnightblue" stroke="midnightblue" points="664.86,-421.01 654.37,-422.52 663.51,-427.88 664.86,-421.01"/>
</g>
<!-- Node3 -->
<g id="node3" class="node">
<title>Node3</title>
<g id="a_node3"><a xlink:href="_o_m_sim_detector_construction_8hh_source.html" target="_top" xlink:title=" ">
<polygon fill="none" stroke="black" points="639,-347.5 639,-366.5 809,-366.5 809,-347.5 639,-347.5"/>
<text text-anchor="middle" x="724" y="-354.5" font-family="Helvetica,sans-Serif" font-size="10.00">OMSimDetectorConstruction.hh</text>
</a>
</g>
</g>
<!-- Node2&#45;&gt;Node3 -->
<g id="edge2" class="edge">
<title>Node2&#45;&gt;Node3</title>
<path fill="none" stroke="midnightblue" d="M1448.45,-409.61C1339.02,-401.81 989.7,-376.93 819.3,-364.79"/>
<polygon fill="midnightblue" stroke="midnightblue" points="819.31,-361.28 809.08,-364.06 818.81,-368.26 819.31,-361.28"/>
</g>
<!-- Node39 -->
<g id="node28" class="node">
<title>Node39</title>
<g id="a_node28"><a xlink:title=" ">
<polygon fill="none" stroke="#bfbfbf" points="1529.5,-347.5 1529.5,-366.5 1650.5,-366.5 1650.5,-347.5 1529.5,-347.5"/>
<text text-anchor="middle" x="1590" y="-354.5" font-family="Helvetica,sans-Serif" font-size="10.00">OMSimPhysicsList.hh</text>
</a>
</g>
</g>
<!-- Node2&#45;&gt;Node39 -->
<g id="edge31" class="edge">
<title>Node2&#45;&gt;Node39</title>
<path fill="none" stroke="midnightblue" d="M1499.35,-403.32C1516.67,-394.66 1543.52,-381.24 1563.5,-371.25"/>
<polygon fill="midnightblue" stroke="midnightblue" points="1565.31,-374.26 1572.69,-366.65 1562.18,-368 1565.31,-374.26"/>
</g>
<!-- Node40 -->
<g id="node29" class="node">
<title>Node40</title>
<g id="a_node29"><a xlink:title=" ">
<polygon fill="none" stroke="#bfbfbf" points="1668.5,-347.5 1668.5,-366.5 1853.5,-366.5 1853.5,-347.5 1668.5,-347.5"/>
<text text-anchor="middle" x="1761" y="-354.5" font-family="Helvetica,sans-Serif" font-size="10.00">OMSimPrimaryGeneratorAction.hh</text>
</a>
</g>
</g>
<!-- Node2&#45;&gt;Node40 -->
<g id="edge32" class="edge">
<title>Node2&#45;&gt;Node40</title>
<path fill="none" stroke="midnightblue" d="M1515.65,-405.49C1563.1,-396.3 1650.16,-379.45 1706.79,-368.49"/>
<polygon fill="midnightblue" stroke="midnightblue" points="1707.5,-371.92 1716.65,-366.58 1706.17,-365.05 1707.5,-371.92"/>
</g>
<!-- Node41 -->
<g id="node30" class="node">
<title>Node41</title>
<g id="a_node30"><a xlink:href="_o_m_sim_run_action_8hh_source.html" target="_top" xlink:title=" ">
<polygon fill="none" stroke="black" points="1443,-291.5 1443,-310.5 1559,-310.5 1559,-291.5 1443,-291.5"/>
<text text-anchor="middle" x="1501" y="-298.5" font-family="Helvetica,sans-Serif" font-size="10.00">OMSimRunAction.hh</text>
</a>
</g>
</g>
<!-- Node2&#45;&gt;Node41 -->
<g id="edge33" class="edge">
<title>Node2&#45;&gt;Node41</title>
<path fill="none" stroke="midnightblue" d="M1483.49,-403.37C1486.56,-385.62 1493.63,-344.67 1497.79,-320.6"/>
<polygon fill="midnightblue" stroke="midnightblue" points="1501.26,-321.04 1499.52,-310.59 1494.36,-319.85 1501.26,-321.04"/>
</g>
<!-- Node45 -->
<g id="node34" class="node">
<title>Node45</title>
<g id="a_node34"><a xlink:title=" ">
<polygon fill="none" stroke="#bfbfbf" points="1871.5,-347.5 1871.5,-366.5 1996.5,-366.5 1996.5,-347.5 1871.5,-347.5"/>
<text text-anchor="middle" x="1934" y="-354.5" font-family="Helvetica,sans-Serif" font-size="10.00">OMSimEventAction.hh</text>
</a>
</g>
</g>
<!-- Node2&#45;&gt;Node45 -->
<g id="edge39" class="edge">
<title>Node2&#45;&gt;Node45</title>
<path fill="none" stroke="midnightblue" d="M1515.56,-408.1C1580.19,-400.57 1726.68,-383.43 1861.11,-367.1"/>
<polygon fill="midnightblue" stroke="midnightblue" points="1861.67,-370.56 1871.17,-365.88 1860.82,-363.61 1861.67,-370.56"/>
</g>
<!-- Node46 -->
<g id="node35" class="node">
<title>Node46</title>
<g id="a_node35"><a xlink:href="_o_m_sim_tracking_action_8hh_source.html" target="_top" xlink:title=" ">
<polygon fill="none" stroke="black" points="2015,-347.5 2015,-366.5 2153,-366.5 2153,-347.5 2015,-347.5"/>
<text text-anchor="middle" x="2084" y="-354.5" font-family="Helvetica,sans-Serif" font-size="10.00">OMSimTrackingAction.hh</text>
</a>
</g>
</g>
<!-- Node2&#45;&gt;Node46 -->
<g id="edge40" class="edge">
<title>Node2&#45;&gt;Node46</title>
<path fill="none" stroke="midnightblue" d="M1515.68,-409.43C1597.41,-403.11 1812.93,-386.04 2004.67,-367.01"/>
<polygon fill="midnightblue" stroke="midnightblue" points="2005.05,-370.49 2014.65,-366.01 2004.35,-363.52 2005.05,-370.49"/>
</g>
<!-- Node48 -->
<g id="node37" class="node">
<title>Node48</title>
<g id="a_node37"><a xlink:href="_o_m_sim_stepping_action_8hh.html" target="_top" xlink:title="Defines OMSimSteppingAction.Currently it only checks for trapped photons.">
<polygon fill="none" stroke="black" points="2171,-347.5 2171,-366.5 2311,-366.5 2311,-347.5 2171,-347.5"/>
<text text-anchor="middle" x="2241" y="-354.5" font-family="Helvetica,sans-Serif" font-size="10.00">OMSimSteppingAction.hh</text>
</a>
</g>
</g>
<!-- Node2&#45;&gt;Node48 -->
<g id="edge42" class="edge">
<title>Node2&#45;&gt;Node48</title>
<path fill="none" stroke="midnightblue" d="M1515.65,-410.34C1613.47,-405.39 1906.39,-389.72 2160.64,-367.08"/>
<polygon fill="midnightblue" stroke="midnightblue" points="2161.16,-370.55 2170.81,-366.17 2160.53,-363.58 2161.16,-370.55"/>
</g>
<!-- Node50 -->
<g id="node39" class="node">
<title>Node50</title>
<g id="a_node39"><a xlink:href="_o_m_sim_u_iinterface_8hh.html" target="_top" xlink:title=" ">
<polygon fill="none" stroke="black" points="1243.5,-291.5 1243.5,-310.5 1364.5,-310.5 1364.5,-291.5 1243.5,-291.5"/>
<text text-anchor="middle" x="1304" y="-298.5" font-family="Helvetica,sans-Serif" font-size="10.00">OMSimUIinterface.hh</text>
</a>
</g>
</g>
<!-- Node2&#45;&gt;Node50 -->
<g id="edge44" class="edge">
<title>Node2&#45;&gt;Node50</title>
<path fill="none" stroke="midnightblue" d="M1479.28,-403.49C1474.43,-389.64 1462.96,-362.22 1444,-347 1423.08,-330.21 1395.76,-319.62 1370.81,-312.97"/>
<polygon fill="midnightblue" stroke="midnightblue" points="1371.56,-309.56 1361.01,-310.53 1369.87,-316.35 1371.56,-309.56"/>
</g>
<!-- Node55 -->
<g id="node42" class="node">
<title>Node55</title>
<g id="a_node42"><a xlink:title=" ">
<polygon fill="none" stroke="#bfbfbf" points="2329.5,-347.5 2329.5,-366.5 2450.5,-366.5 2450.5,-347.5 2329.5,-347.5"/>
<text text-anchor="middle" x="2390" y="-354.5" font-family="Helvetica,sans-Serif" font-size="10.00">G4MTRunManager.hh</text>
</a>
</g>
</g>
<!-- Node2&#45;&gt;Node55 -->
<g id="edge49" class="edge">
<title>Node2&#45;&gt;Node55</title>
<path fill="none" stroke="midnightblue" d="M1515.59,-411.09C1627.79,-407.87 1999.93,-395.66 2318.95,-367.02"/>
<polygon fill="midnightblue" stroke="midnightblue" points="2319.68,-370.47 2329.32,-366.08 2319.05,-363.5 2319.68,-370.47"/>
</g>
<!-- Node56 -->
<g id="node43" class="node">
<title>Node56</title>
<g id="a_node43"><a xlink:title=" ">
<polygon fill="none" stroke="#bfbfbf" points="952.5,-347.5 952.5,-366.5 1059.5,-366.5 1059.5,-347.5 952.5,-347.5"/>
<text text-anchor="middle" x="1006" y="-354.5" font-family="Helvetica,sans-Serif" font-size="10.00">G4VisExecutive.hh</text>
</a>
</g>
</g>
<!-- Node2&#45;&gt;Node56 -->
<g id="edge50" class="edge">
<title>Node2&#45;&gt;Node56</title>
<path fill="none" stroke="midnightblue" d="M1448.41,-408.76C1379.45,-402.02 1216.65,-385.66 1069.84,-367.2"/>
<polygon fill="midnightblue" stroke="midnightblue" points="1070.11,-363.71 1059.75,-365.92 1069.23,-370.65 1070.11,-363.71"/>
</g>
<!-- Node57 -->
<g id="node44" class="node">
<title>Node57</title>
<g id="a_node44"><a xlink:title=" ">
<polygon fill="none" stroke="#bfbfbf" points="1077.5,-347.5 1077.5,-366.5 1180.5,-366.5 1180.5,-347.5 1077.5,-347.5"/>
<text text-anchor="middle" x="1129" y="-354.5" font-family="Helvetica,sans-Serif" font-size="10.00">G4UIExecutive.hh</text>
</a>
</g>
</g>
<!-- Node2&#45;&gt;Node57 -->
<g id="edge51" class="edge">
<title>Node2&#45;&gt;Node57</title>
<path fill="none" stroke="midnightblue" d="M1448.47,-406.87C1389.38,-397.83 1265.87,-378.94 1190.92,-367.47"/>
<polygon fill="midnightblue" stroke="midnightblue" points="1191.09,-363.96 1180.68,-365.91 1190.03,-370.88 1191.09,-363.96"/>
</g>
<!-- Node58 -->
<g id="node45" class="node">
<title>Node58</title>
<g id="a_node45"><a xlink:title=" ">
<polygon fill="none" stroke="#bfbfbf" points="1199,-347.5 1199,-366.5 1267,-366.5 1267,-347.5 1199,-347.5"/>
<text text-anchor="middle" x="1233" y="-354.5" font-family="Helvetica,sans-Serif" font-size="10.00">filesystem</text>
</a>
</g>
</g>
<!-- Node2&#45;&gt;Node58 -->
<g id="edge52" class="edge">
<title>Node2&#45;&gt;Node58</title>
<path fill="none" stroke="midnightblue" d="M1448.42,-404.72C1404.18,-395.12 1326.25,-378.22 1277.24,-367.59"/>
<polygon fill="midnightblue" stroke="midnightblue" points="1277.76,-364.13 1267.24,-365.43 1276.28,-370.97 1277.76,-364.13"/>
</g>
<!-- Node59 -->
<g id="node46" class="node">
<title>Node59</title>
<g id="a_node46"><a xlink:title=" ">
<polygon fill="none" stroke="#bfbfbf" points="1285,-347.5 1285,-366.5 1435,-366.5 1435,-347.5 1285,-347.5"/>
<text text-anchor="middle" x="1360" y="-354.5" font-family="Helvetica,sans-Serif" font-size="10.00">boost/program_options.hpp</text>
</a>
</g>
</g>
<!-- Node2&#45;&gt;Node59 -->
<g id="edge53" class="edge">
<title>Node2&#45;&gt;Node59</title>
<path fill="none" stroke="midnightblue" d="M1462.67,-403.44C1442.68,-394.6 1411.26,-380.69 1388.44,-370.59"/>
<polygon fill="midnightblue" stroke="midnightblue" points="1389.8,-367.36 1379.24,-366.52 1386.97,-373.76 1389.8,-367.36"/>
</g>
<!-- Node4 -->
<g id="node4" class="node">
<title>Node4</title>
<g id="a_node4"><a xlink:href="_o_m_sim_optical_module_8hh_source.html" target="_top" xlink:title=" ">
<polygon fill="none" stroke="black" points="444.5,-291.5 444.5,-310.5 581.5,-310.5 581.5,-291.5 444.5,-291.5"/>
<text text-anchor="middle" x="513" y="-298.5" font-family="Helvetica,sans-Serif" font-size="10.00">OMSimOpticalModule.hh</text>
</a>
</g>
</g>
<!-- Node3&#45;&gt;Node4 -->
<g id="edge3" class="edge">
<title>Node3&#45;&gt;Node4</title>
<path fill="none" stroke="midnightblue" d="M690.57,-347.44C654.14,-338.12 595.77,-323.18 555.97,-313"/>
<polygon fill="midnightblue" stroke="midnightblue" points="556.83,-309.61 546.28,-310.52 555.1,-316.39 556.83,-309.61"/>
</g>
<!-- Node37 -->
<g id="node26" class="node">
<title>Node37</title>
<g id="a_node26"><a xlink:title=" ">
<polygon fill="none" stroke="#bfbfbf" points="600,-291.5 600,-310.5 662,-310.5 662,-291.5 600,-291.5"/>
<text text-anchor="middle" x="631" y="-298.5" font-family="Helvetica,sans-Serif" font-size="10.00">G4Orb.hh</text>
</a>
</g>
</g>
<!-- Node3&#45;&gt;Node37 -->
<g id="edge29" class="edge">
<title>Node3&#45;&gt;Node37</title>
<path fill="none" stroke="midnightblue" d="M709.06,-347.32C694.41,-338.82 671.87,-325.73 654.76,-315.8"/>
<polygon fill="midnightblue" stroke="midnightblue" points="656.31,-312.65 645.9,-310.65 652.8,-318.7 656.31,-312.65"/>
</g>
<!-- Node38 -->
<g id="node27" class="node">
<title>Node38</title>
<g id="a_node27"><a xlink:title=" ">
<polygon fill="none" stroke="#bfbfbf" points="680,-291.5 680,-310.5 858,-310.5 858,-291.5 680,-291.5"/>
<text text-anchor="middle" x="769" y="-298.5" font-family="Helvetica,sans-Serif" font-size="10.00">G4VUserDetectorConstruction.hh</text>
</a>
</g>
</g>
<!-- Node3&#45;&gt;Node38 -->
<g id="edge30" class="edge">
<title>Node3&#45;&gt;Node38</title>
<path fill="none" stroke="midnightblue" d="M731.43,-347.08C737.85,-339.38 747.31,-328.03 755.12,-318.65"/>
<polygon fill="midnightblue" stroke="midnightblue" points="757.99,-320.67 761.71,-310.75 752.62,-316.19 757.99,-320.67"/>
</g>
<!-- Node5 -->
<g id="node5" class="node">
<title>Node5</title>
<g id="a_node5"><a xlink:href="abc_detector_component_8hh.html" target="_top" xlink:title="Provides helper base class abcDetectorComponent for constructing and managing detector components in ...">
<polygon fill="none" stroke="black" points="360.5,-179.5 360.5,-198.5 507.5,-198.5 507.5,-179.5 360.5,-179.5"/>
<text text-anchor="middle" x="434" y="-186.5" font-family="Helvetica,sans-Serif" font-size="10.00">abcDetectorComponent.hh</text>
</a>
</g>
</g>
<!-- Node4&#45;&gt;Node5 -->
<g id="edge4" class="edge">
<title>Node4&#45;&gt;Node5</title>
<path fill="none" stroke="midnightblue" d="M503.92,-291.18C495.19,-282.44 481.89,-268.45 472,-255 460.89,-239.89 450.3,-221.31 443.14,-207.89"/>
<polygon fill="midnightblue" stroke="midnightblue" points="446.11,-206.01 438.37,-198.77 439.9,-209.26 446.11,-206.01"/>
</g>
<!-- Node4&#45;&gt;Node26 -->
<g id="edge14" class="edge">
<title>Node4&#45;&gt;Node26</title>
<path fill="none" stroke="midnightblue" d="M568.62,-291.44C631.13,-281.83 732.52,-266.23 798.73,-256.04"/>
<polygon fill="midnightblue" stroke="midnightblue" points="799.29,-259.5 808.64,-254.52 798.23,-252.58 799.29,-259.5"/>
</g>
<!-- Node34 -->
<g id="node25" class="node">
<title>Node34</title>
<g id="a_node25"><a xlink:href="_o_m_sim_p_m_t_construction_8hh.html" target="_top" xlink:title="Construction of the PMTs.">
<polygon fill="none" stroke="red" points="481.5,-235.5 481.5,-254.5 630.5,-254.5 630.5,-235.5 481.5,-235.5"/>
<text text-anchor="middle" x="556" y="-242.5" font-family="Helvetica,sans-Serif" font-size="10.00">OMSimPMTConstruction.hh</text>
</a>
</g>
</g>
<!-- Node4&#45;&gt;Node34 -->
<g id="edge25" class="edge">
<title>Node4&#45;&gt;Node34</title>
<path fill="none" stroke="midnightblue" d="M520.1,-291.08C526.24,-283.38 535.27,-272.03 542.74,-262.65"/>
<polygon fill="midnightblue" stroke="midnightblue" points="545.54,-264.75 549.03,-254.75 540.06,-260.39 545.54,-264.75"/>
</g>
<!-- Node6 -->
<g id="node6" class="node">
<title>Node6</title>
<g id="a_node6"><a xlink:href="_o_m_sim_input_data_8hh.html" target="_top" xlink:title="Definition of ParameterTable and OMSimInputData.">
<polygon fill="none" stroke="red" points="523.5,-123.5 523.5,-142.5 638.5,-142.5 638.5,-123.5 523.5,-123.5"/>
<text text-anchor="middle" x="581" y="-130.5" font-family="Helvetica,sans-Serif" font-size="10.00">OMSimInputData.hh</text>
</a>
</g>
</g>
<!-- Node5&#45;&gt;Node6 -->
<g id="edge5" class="edge">
<title>Node5&#45;&gt;Node6</title>
<path fill="none" stroke="midnightblue" d="M457.29,-179.44C481.81,-170.44 520.6,-156.19 548.2,-146.05"/>
<polygon fill="midnightblue" stroke="midnightblue" points="549.64,-149.25 557.82,-142.52 547.22,-142.68 549.64,-149.25"/>
</g>
<!-- Node22 -->
<g id="node11" class="node">
<title>Node22</title>
<g id="a_node11"><a xlink:title=" ">
<polygon fill="none" stroke="#bfbfbf" points="128.5,-123.5 128.5,-142.5 235.5,-142.5 235.5,-123.5 128.5,-123.5"/>
<text text-anchor="middle" x="182" y="-130.5" font-family="Helvetica,sans-Serif" font-size="10.00">G4Transform3D.hh</text>
</a>
</g>
</g>
<!-- Node5&#45;&gt;Node22 -->
<g id="edge10" class="edge">
<title>Node5&#45;&gt;Node22</title>
<path fill="none" stroke="midnightblue" d="M394.07,-179.44C350.11,-170.02 279.37,-154.87 231.82,-144.68"/>
<polygon fill="midnightblue" stroke="midnightblue" points="232.25,-141.19 221.74,-142.52 230.79,-148.03 232.25,-141.19"/>
</g>
<!-- Node23 -->
<g id="node12" class="node">
<title>Node23</title>
<g id="a_node12"><a xlink:title=" ">
<polygon fill="none" stroke="#bfbfbf" points="254,-123.5 254,-142.5 362,-142.5 362,-123.5 254,-123.5"/>
<text text-anchor="middle" x="308" y="-130.5" font-family="Helvetica,sans-Serif" font-size="10.00">G4VisAttributes.hh</text>
</a>
</g>
</g>
<!-- Node5&#45;&gt;Node23 -->
<g id="edge11" class="edge">
<title>Node5&#45;&gt;Node23</title>
<path fill="none" stroke="midnightblue" d="M414.03,-179.44C393.39,-170.6 360.94,-156.69 337.37,-146.59"/>
<polygon fill="midnightblue" stroke="midnightblue" points="338.44,-143.24 327.87,-142.52 335.68,-149.67 338.44,-143.24"/>
</g>
<!-- Node24 -->
<g id="node13" class="node">
<title>Node24</title>
<g id="a_node13"><a xlink:title=" ">
<polygon fill="none" stroke="#bfbfbf" points="380.5,-123.5 380.5,-142.5 505.5,-142.5 505.5,-123.5 380.5,-123.5"/>
<text text-anchor="middle" x="443" y="-130.5" font-family="Helvetica,sans-Serif" font-size="10.00">G4SubtractionSolid.hh</text>
</a>
</g>
</g>
<!-- Node5&#45;&gt;Node24 -->
<g id="edge12" class="edge">
<title>Node5&#45;&gt;Node24</title>
<path fill="none" stroke="midnightblue" d="M435.49,-179.08C436.68,-171.93 438.39,-161.64 439.88,-152.69"/>
<polygon fill="midnightblue" stroke="midnightblue" points="443.35,-153.19 441.54,-142.75 436.45,-152.04 443.35,-153.19"/>
</g>
<!-- Node25 -->
<g id="node14" class="node">
<title>Node25</title>
<g id="a_node14"><a xlink:title=" ">
<polygon fill="none" stroke="#bfbfbf" points="0,-123.5 0,-142.5 110,-142.5 110,-123.5 0,-123.5"/>
<text text-anchor="middle" x="55" y="-130.5" font-family="Helvetica,sans-Serif" font-size="10.00">G4PVPlacement.hh</text>
</a>
</g>
</g>
<!-- Node5&#45;&gt;Node25 -->
<g id="edge13" class="edge">
<title>Node5&#45;&gt;Node25</title>
<path fill="none" stroke="midnightblue" d="M373.95,-179.44C304.81,-169.59 191.65,-153.47 120.36,-143.31"/>
<polygon fill="midnightblue" stroke="midnightblue" points="120.55,-139.8 110.15,-141.86 119.56,-146.73 120.55,-139.8"/>
</g>
<!-- Node7 -->
<g id="node7" class="node">
<title>Node7</title>
<g id="a_node7"><a xlink:href="_o_m_sim_logger_8hh_source.html" target="_top" xlink:title=" ">
<polygon fill="none" stroke="red" points="1254.5,-67.5 1254.5,-86.5 1353.5,-86.5 1353.5,-67.5 1254.5,-67.5"/>
<text text-anchor="middle" x="1304" y="-74.5" font-family="Helvetica,sans-Serif" font-size="10.00">OMSimLogger.hh</text>
</a>
</g>
</g>
<!-- Node6&#45;&gt;Node7 -->
<g id="edge6" class="edge">
<title>Node6&#45;&gt;Node7</title>
<path fill="none" stroke="midnightblue" d="M638.76,-126.92C654.11,-125.6 670.68,-124.21 686,-123 890.66,-106.78 1133.63,-89.73 1244.05,-82.11"/>
<polygon fill="midnightblue" stroke="midnightblue" points="1244.58,-85.58 1254.32,-81.4 1244.1,-78.6 1244.58,-85.58"/>
</g>
<!-- Node20 -->
<g id="node10" class="node">
<title>Node20</title>
<g id="a_node10"><a xlink:title=" ">
<polygon fill="none" stroke="#bfbfbf" points="564.5,-67.5 564.5,-86.5 683.5,-86.5 683.5,-67.5 564.5,-67.5"/>
<text text-anchor="middle" x="624" y="-74.5" font-family="Helvetica,sans-Serif" font-size="10.00">G4SystemOfUnits.hh</text>
</a>
</g>
</g>
<!-- Node6&#45;&gt;Node20 -->
<g id="edge9" class="edge">
<title>Node6&#45;&gt;Node20</title>
<path fill="none" stroke="midnightblue" d="M588.1,-123.08C594.24,-115.38 603.27,-104.03 610.74,-94.65"/>
<polygon fill="midnightblue" stroke="midnightblue" points="613.54,-96.75 617.03,-86.75 608.06,-92.39 613.54,-96.75"/>
</g>
<!-- Node8 -->
<g id="node8" class="node">
<title>Node8</title>
<g id="a_node8"><a xlink:title=" ">
<polygon fill="none" stroke="#bfbfbf" points="1197.5,-6 1197.5,-25 1290.5,-25 1290.5,-6 1197.5,-6"/>
<text text-anchor="middle" x="1244" y="-13" font-family="Helvetica,sans-Serif" font-size="10.00">spdlog/spdlog.h</text>
</a>
</g>
</g>
<!-- Node7&#45;&gt;Node8 -->
<g id="edge7" class="edge">
<title>Node7&#45;&gt;Node8</title>
<path fill="none" stroke="midnightblue" d="M1295.4,-67.48C1286.14,-58.28 1271.18,-43.46 1259.79,-32.16"/>
<polygon fill="midnightblue" stroke="midnightblue" points="1262.15,-29.57 1252.58,-25.01 1257.22,-34.54 1262.15,-29.57"/>
</g>
<!-- Node9 -->
<g id="node9" class="node">
<title>Node9</title>
<g id="a_node9"><a xlink:title=" ">
<polygon fill="none" stroke="#bfbfbf" points="1308.5,-0.5 1308.5,-30.5 1419.5,-30.5 1419.5,-0.5 1308.5,-0.5"/>
<text text-anchor="start" x="1316.5" y="-18.5" font-family="Helvetica,sans-Serif" font-size="10.00">spdlog/sinks/stdout</text>
<text text-anchor="middle" x="1364" y="-7.5" font-family="Helvetica,sans-Serif" font-size="10.00">_color_sinks.h</text>
</a>
</g>
</g>
<!-- Node7&#45;&gt;Node9 -->
<g id="edge8" class="edge">
<title>Node7&#45;&gt;Node9</title>
<path fill="none" stroke="midnightblue" d="M1312.6,-67.48C1320.42,-59.72 1332.29,-47.94 1342.66,-37.66"/>
<polygon fill="midnightblue" stroke="midnightblue" points="1345.22,-40.05 1349.86,-30.52 1340.29,-35.08 1345.22,-40.05"/>
</g>
<!-- Node27 -->
<g id="node16" class="node">
<title>Node27</title>
<g id="a_node16"><a xlink:href="_o_m_sim_p_m_t_response_8hh.html" target="_top" xlink:title="Simulation of PMT response.">
<polygon fill="none" stroke="black" points="654.5,-179.5 654.5,-198.5 789.5,-198.5 789.5,-179.5 654.5,-179.5"/>
<text text-anchor="middle" x="722" y="-186.5" font-family="Helvetica,sans-Serif" font-size="10.00">OMSimPMTResponse.hh</text>
</a>
</g>
</g>
<!-- Node26&#45;&gt;Node27 -->
<g id="edge15" class="edge">
<title>Node26&#45;&gt;Node27</title>
<path fill="none" stroke="midnightblue" d="M841.5,-235.44C817.92,-226.48 780.68,-212.31 754.04,-202.18"/>
<polygon fill="midnightblue" stroke="midnightblue" points="754.99,-198.8 744.4,-198.52 752.5,-205.34 754.99,-198.8"/>
</g>
<!-- Node32 -->
<g id="node21" class="node">
<title>Node32</title>
<g id="a_node21"><a xlink:title=" ">
<polygon fill="none" stroke="#bfbfbf" points="920.5,-179.5 920.5,-198.5 1023.5,-198.5 1023.5,-179.5 920.5,-179.5"/>
<text text-anchor="middle" x="972" y="-186.5" font-family="Helvetica,sans-Serif" font-size="10.00">G4ThreeVector.hh</text>
</a>
</g>
</g>
<!-- Node26&#45;&gt;Node32 -->
<g id="edge21" class="edge">
<title>Node26&#45;&gt;Node32</title>
<path fill="none" stroke="midnightblue" d="M881.35,-235.32C898.67,-226.66 925.52,-213.24 945.5,-203.25"/>
<polygon fill="midnightblue" stroke="midnightblue" points="947.31,-206.26 954.69,-198.65 944.18,-200 947.31,-206.26"/>
</g>
<!-- Node33 -->
<g id="node22" class="node">
<title>Node33</title>
<g id="a_node22"><a xlink:title=" ">
<polygon fill="none" stroke="#bfbfbf" points="1150.5,-179.5 1150.5,-198.5 1205.5,-198.5 1205.5,-179.5 1150.5,-179.5"/>
<text text-anchor="middle" x="1178" y="-186.5" font-family="Helvetica,sans-Serif" font-size="10.00">fstream</text>
</a>
</g>
</g>
<!-- Node26&#45;&gt;Node33 -->
<g id="edge22" class="edge">
<title>Node26&#45;&gt;Node33</title>
<path fill="none" stroke="midnightblue" d="M925.04,-235.47C979.02,-227.62 1060.12,-215.05 1139.94,-199.08"/>
<polygon fill="midnightblue" stroke="midnightblue" points="1141.06,-202.43 1150.17,-197.01 1139.68,-195.56 1141.06,-202.43"/>
</g>
<!-- Node18 -->
<g id="node23" class="node">
<title>Node18</title>
<g id="a_node23"><a xlink:title=" ">
<polygon fill="none" stroke="#bfbfbf" points="1042,-179.5 1042,-198.5 1132,-198.5 1132,-179.5 1042,-179.5"/>
<text text-anchor="middle" x="1087" y="-186.5" font-family="Helvetica,sans-Serif" font-size="10.00">G4AutoLock.hh</text>
</a>
</g>
</g>
<!-- Node26&#45;&gt;Node18 -->
<g id="edge23" class="edge">
<title>Node26&#45;&gt;Node18</title>
<path fill="none" stroke="midnightblue" d="M899.34,-235.44C937.91,-226.1 999.78,-211.12 1041.85,-200.93"/>
<polygon fill="midnightblue" stroke="midnightblue" points="1042.93,-204.27 1051.83,-198.52 1041.29,-197.47 1042.93,-204.27"/>
</g>
<!-- Node19 -->
<g id="node24" class="node">
<title>Node19</title>
<g id="a_node24"><a xlink:title=" ">
<polygon fill="none" stroke="#bfbfbf" points="808,-179.5 808,-198.5 902,-198.5 902,-179.5 808,-179.5"/>
<text text-anchor="middle" x="855" y="-186.5" font-family="Helvetica,sans-Serif" font-size="10.00">G4Threading.hh</text>
</a>
</g>
</g>
<!-- Node26&#45;&gt;Node19 -->
<g id="edge24" class="edge">
<title>Node26&#45;&gt;Node19</title>
<path fill="none" stroke="midnightblue" d="M862.51,-235.08C861.32,-227.93 859.61,-217.64 858.12,-208.69"/>
<polygon fill="midnightblue" stroke="midnightblue" points="861.55,-208.04 856.46,-198.75 854.65,-209.19 861.55,-208.04"/>
</g>
<!-- Node27&#45;&gt;Node20 -->
<g id="edge16" class="edge">
<title>Node27&#45;&gt;Node20</title>
<path fill="none" stroke="midnightblue" d="M714.31,-179.37C697.99,-161.05 659.68,-118.05 638.58,-94.36"/>
<polygon fill="midnightblue" stroke="midnightblue" points="640.92,-91.73 631.65,-86.59 635.69,-96.39 640.92,-91.73"/>
</g>
<!-- Node28 -->
<g id="node17" class="node">
<title>Node28</title>
<g id="a_node17"><a xlink:title=" ">
<polygon fill="none" stroke="#bfbfbf" points="766.5,-123.5 766.5,-142.5 839.5,-142.5 839.5,-123.5 766.5,-123.5"/>
<text text-anchor="middle" x="803" y="-130.5" font-family="Helvetica,sans-Serif" font-size="10.00">G4Types.hh</text>
</a>
</g>
</g>
<!-- Node27&#45;&gt;Node28 -->
<g id="edge17" class="edge">
<title>Node27&#45;&gt;Node28</title>
<path fill="none" stroke="midnightblue" d="M735.01,-179.32C747.53,-170.98 766.68,-158.21 781.47,-148.35"/>
<polygon fill="midnightblue" stroke="midnightblue" points="783.64,-151.11 790.02,-142.65 779.76,-145.29 783.64,-151.11"/>
</g>
<!-- Node29 -->
<g id="node18" class="node">
<title>Node29</title>
<g id="a_node18"><a xlink:title=" ">
<polygon fill="none" stroke="#bfbfbf" points="858,-123.5 858,-142.5 896,-142.5 896,-123.5 858,-123.5"/>
<text text-anchor="middle" x="877" y="-130.5" font-family="Helvetica,sans-Serif" font-size="10.00">map</text>
</a>
</g>
</g>
<!-- Node27&#45;&gt;Node29 -->
<g id="edge18" class="edge">
<title>Node27&#45;&gt;Node29</title>
<path fill="none" stroke="midnightblue" d="M746.56,-179.44C774.2,-169.81 819.06,-154.19 848.29,-144"/>
<polygon fill="midnightblue" stroke="midnightblue" points="849.64,-147.24 857.93,-140.64 847.33,-140.63 849.64,-147.24"/>
</g>
<!-- Node30 -->
<g id="node19" class="node">
<title>Node30</title>
<g id="a_node19"><a xlink:title=" ">
<polygon fill="none" stroke="#bfbfbf" points="914.5,-123.5 914.5,-142.5 975.5,-142.5 975.5,-123.5 914.5,-123.5"/>
<text text-anchor="middle" x="945" y="-130.5" font-family="Helvetica,sans-Serif" font-size="10.00">TGraph.h</text>
</a>
</g>
</g>
<!-- Node27&#45;&gt;Node30 -->
<g id="edge19" class="edge">
<title>Node27&#45;&gt;Node30</title>
<path fill="none" stroke="midnightblue" d="M757.34,-179.44C797.39,-169.75 862.55,-153.97 904.59,-143.79"/>
<polygon fill="midnightblue" stroke="midnightblue" points="905.59,-147.14 914.49,-141.39 903.95,-140.34 905.59,-147.14"/>
</g>
<!-- Node31 -->
<g id="node20" class="node">
<title>Node31</title>
<g id="a_node20"><a xlink:title=" ">
<polygon fill="none" stroke="#bfbfbf" points="695.5,-123.5 695.5,-142.5 748.5,-142.5 748.5,-123.5 695.5,-123.5"/>
<text text-anchor="middle" x="722" y="-130.5" font-family="Helvetica,sans-Serif" font-size="10.00">TH2D.h</text>
</a>
</g>
</g>
<!-- Node27&#45;&gt;Node31 -->
<g id="edge20" class="edge">
<title>Node27&#45;&gt;Node31</title>
<path fill="none" stroke="midnightblue" d="M722,-179.08C722,-172.01 722,-161.86 722,-152.99"/>
<polygon fill="midnightblue" stroke="midnightblue" points="725.5,-152.75 722,-142.75 718.5,-152.75 725.5,-152.75"/>
</g>
<!-- Node34&#45;&gt;Node5 -->
<g id="edge26" class="edge">
<title>Node34&#45;&gt;Node5</title>
<path fill="none" stroke="midnightblue" d="M536.67,-235.44C516.68,-226.6 485.26,-212.69 462.44,-202.59"/>
<polygon fill="midnightblue" stroke="midnightblue" points="463.8,-199.36 453.24,-198.52 460.97,-205.76 463.8,-199.36"/>
</g>
<!-- Node34&#45;&gt;Node27 -->
<g id="edge28" class="edge">
<title>Node34&#45;&gt;Node27</title>
<path fill="none" stroke="midnightblue" d="M582.3,-235.44C610.35,-226.32 654.94,-211.81 686.18,-201.65"/>
<polygon fill="midnightblue" stroke="midnightblue" points="687.39,-204.94 695.82,-198.52 685.23,-198.28 687.39,-204.94"/>
</g>
<!-- Node34&#45;&gt;Node34 -->
<g id="edge27" class="edge">
<title>Node34&#45;&gt;Node34</title>
<path fill="none" stroke="midnightblue" d="M595.45,-254.53C622.26,-257.31 648.5,-254.13 648.5,-245 648.5,-237.01 628.41,-233.58 605.43,-234.71"/>
<polygon fill="midnightblue" stroke="midnightblue" points="605.15,-231.22 595.45,-235.47 605.69,-238.2 605.15,-231.22"/>
</g>
<!-- Node41&#45;&gt;Node7 -->
<g id="edge36" class="edge">
<title>Node41&#45;&gt;Node7</title>
<path fill="none" stroke="midnightblue" d="M1484.72,-291.44C1470.17,-283.29 1448.76,-270.06 1433,-255 1379.94,-204.29 1333.55,-129.42 1313.94,-95.65"/>
<polygon fill="midnightblue" stroke="midnightblue" points="1316.75,-93.51 1308.74,-86.57 1310.67,-96.98 1316.75,-93.51"/>
</g>
<!-- Node41&#45;&gt;Node26 -->
<g id="edge35" class="edge">
<title>Node41&#45;&gt;Node26</title>
<path fill="none" stroke="midnightblue" d="M1442.89,-295.73C1322.76,-286.84 1049.53,-266.32 935.74,-255.01"/>
<polygon fill="midnightblue" stroke="midnightblue" points="935.86,-251.51 925.55,-253.98 935.15,-258.47 935.86,-251.51"/>
</g>
<!-- Node42 -->
<g id="node31" class="node">
<title>Node42</title>
<g id="a_node31"><a xlink:title=" ">
<polygon fill="none" stroke="#bfbfbf" points="1442.5,-235.5 1442.5,-254.5 1559.5,-254.5 1559.5,-235.5 1442.5,-235.5"/>
<text text-anchor="middle" x="1501" y="-242.5" font-family="Helvetica,sans-Serif" font-size="10.00">G4UserRunAction.hh</text>
</a>
</g>
</g>
<!-- Node41&#45;&gt;Node42 -->
<g id="edge34" class="edge">
<title>Node41&#45;&gt;Node42</title>
<path fill="none" stroke="midnightblue" d="M1501,-291.08C1501,-284.01 1501,-273.86 1501,-264.99"/>
<polygon fill="midnightblue" stroke="midnightblue" points="1504.5,-264.75 1501,-254.75 1497.5,-264.75 1504.5,-264.75"/>
</g>
<!-- Node43 -->
<g id="node32" class="node">
<title>Node43</title>
<g id="a_node32"><a xlink:title=" ">
<polygon fill="none" stroke="#bfbfbf" points="1578,-235.5 1578,-254.5 1664,-254.5 1664,-235.5 1578,-235.5"/>
<text text-anchor="middle" x="1621" y="-242.5" font-family="Helvetica,sans-Serif" font-size="10.00">Randomize.hh</text>
</a>
</g>
</g>
<!-- Node41&#45;&gt;Node43 -->
<g id="edge37" class="edge">
<title>Node41&#45;&gt;Node43</title>
<path fill="none" stroke="midnightblue" d="M1520.01,-291.44C1539.59,-282.64 1570.31,-268.81 1592.73,-258.72"/>
<polygon fill="midnightblue" stroke="midnightblue" points="1594.39,-261.81 1602.07,-254.52 1591.52,-255.43 1594.39,-261.81"/>
</g>
<!-- Node44 -->
<g id="node33" class="node">
<title>Node44</title>
<g id="a_node33"><a xlink:title=" ">
<polygon fill="none" stroke="#bfbfbf" points="1682,-235.5 1682,-254.5 1746,-254.5 1746,-235.5 1682,-235.5"/>
<text text-anchor="middle" x="1714" y="-242.5" font-family="Helvetica,sans-Serif" font-size="10.00">G4Run.hh</text>
</a>
</g>
</g>
<!-- Node41&#45;&gt;Node44 -->
<g id="edge38" class="edge">
<title>Node41&#45;&gt;Node44</title>
<path fill="none" stroke="midnightblue" d="M1534.75,-291.44C1571.95,-282.01 1631.84,-266.83 1672.03,-256.64"/>
<polygon fill="midnightblue" stroke="midnightblue" points="1672.97,-260.01 1681.8,-254.16 1671.25,-253.23 1672.97,-260.01"/>
</g>
<!-- Node47 -->
<g id="node36" class="node">
<title>Node47</title>
<g id="a_node36"><a xlink:title=" ">
<polygon fill="none" stroke="#bfbfbf" points="2013.5,-291.5 2013.5,-310.5 2152.5,-310.5 2152.5,-291.5 2013.5,-291.5"/>
<text text-anchor="middle" x="2083" y="-298.5" font-family="Helvetica,sans-Serif" font-size="10.00">G4UserTrackingAction.hh</text>
</a>
</g>
</g>
<!-- Node46&#45;&gt;Node47 -->
<g id="edge41" class="edge">
<title>Node46&#45;&gt;Node47</title>
<path fill="none" stroke="midnightblue" d="M2083.83,-347.08C2083.7,-340.01 2083.52,-329.86 2083.35,-320.99"/>
<polygon fill="midnightblue" stroke="midnightblue" points="2086.85,-320.68 2083.16,-310.75 2079.85,-320.81 2086.85,-320.68"/>
</g>
<!-- Node49 -->
<g id="node38" class="node">
<title>Node49</title>
<g id="a_node38"><a xlink:title=" ">
<polygon fill="none" stroke="#bfbfbf" points="2170.5,-291.5 2170.5,-310.5 2311.5,-310.5 2311.5,-291.5 2170.5,-291.5"/>
<text text-anchor="middle" x="2241" y="-298.5" font-family="Helvetica,sans-Serif" font-size="10.00">G4UserSteppingAction.hh</text>
</a>
</g>
</g>
<!-- Node48&#45;&gt;Node49 -->
<g id="edge43" class="edge">
<title>Node48&#45;&gt;Node49</title>
<path fill="none" stroke="midnightblue" d="M2241,-347.08C2241,-340.01 2241,-329.86 2241,-320.99"/>
<polygon fill="midnightblue" stroke="midnightblue" points="2244.5,-320.75 2241,-310.75 2237.5,-320.75 2244.5,-320.75"/>
</g>
<!-- Node51 -->
<g id="node40" class="node">
<title>Node51</title>
<g id="a_node40"><a xlink:href="_o_m_sim_command_args_table_8hh.html" target="_top" xlink:title="Definition of the OMSimCommandArgsTable singleton class, which controls user args.">
<polygon fill="none" stroke="red" points="1222,-235.5 1222,-254.5 1386,-254.5 1386,-235.5 1222,-235.5"/>
<text text-anchor="middle" x="1304" y="-242.5" font-family="Helvetica,sans-Serif" font-size="10.00">OMSimCommandArgsTable.hh</text>
</a>
</g>
</g>
<!-- Node50&#45;&gt;Node51 -->
<g id="edge45" class="edge">
<title>Node50&#45;&gt;Node51</title>
<path fill="none" stroke="midnightblue" d="M1304,-291.08C1304,-284.01 1304,-273.86 1304,-264.99"/>
<polygon fill="midnightblue" stroke="midnightblue" points="1307.5,-264.75 1304,-254.75 1300.5,-264.75 1307.5,-264.75"/>
</g>
<!-- Node54 -->
<g id="node41" class="node">
<title>Node54</title>
<g id="a_node41"><a xlink:title=" ">
<polygon fill="none" stroke="#bfbfbf" points="1106,-235.5 1106,-254.5 1204,-254.5 1204,-235.5 1106,-235.5"/>
<text text-anchor="middle" x="1155" y="-242.5" font-family="Helvetica,sans-Serif" font-size="10.00">G4UImanager.hh</text>
</a>
</g>
</g>
<!-- Node50&#45;&gt;Node54 -->
<g id="edge48" class="edge">
<title>Node50&#45;&gt;Node54</title>
<path fill="none" stroke="midnightblue" d="M1280.39,-291.44C1255.54,-282.44 1216.23,-268.19 1188.25,-258.05"/>
<polygon fill="midnightblue" stroke="midnightblue" points="1189.09,-254.63 1178.5,-254.52 1186.71,-261.21 1189.09,-254.63"/>
</g>
<!-- Node51&#45;&gt;Node7 -->
<g id="edge46" class="edge">
<title>Node51&#45;&gt;Node7</title>
<path fill="none" stroke="midnightblue" d="M1304,-235.08C1304,-208.95 1304,-132.21 1304,-96.58"/>
<polygon fill="midnightblue" stroke="midnightblue" points="1307.5,-96.57 1304,-86.57 1300.5,-96.57 1307.5,-96.57"/>
</g>
<!-- Node51&#45;&gt;Node33 -->
<g id="edge47" class="edge">
<title>Node51&#45;&gt;Node33</title>
<path fill="none" stroke="midnightblue" d="M1284.03,-235.44C1263.39,-226.6 1230.94,-212.69 1207.37,-202.59"/>
<polygon fill="midnightblue" stroke="midnightblue" points="1208.44,-199.24 1197.87,-198.52 1205.68,-205.67 1208.44,-199.24"/>
</g>
<!-- Node60&#45;&gt;Node4 -->
<g id="edge55" class="edge">
<title>Node60&#45;&gt;Node4</title>
<path fill="none" stroke="midnightblue" d="M388.59,-403.37C411.46,-384.73 465.71,-340.53 494.43,-317.13"/>
<polygon fill="midnightblue" stroke="midnightblue" points="496.91,-319.62 502.46,-310.59 492.49,-314.19 496.91,-319.62"/>
</g>
<!-- Node61 -->
<g id="node48" class="node">
<title>Node61</title>
<g id="a_node48"><a xlink:title=" ">
<polygon fill="none" stroke="#bfbfbf" points="282.5,-347.5 282.5,-366.5 349.5,-366.5 349.5,-347.5 282.5,-347.5"/>
<text text-anchor="middle" x="316" y="-354.5" font-family="Helvetica,sans-Serif" font-size="10.00">globals.hh</text>
</a>
</g>
</g>
<!-- Node60&#45;&gt;Node61 -->
<g id="edge56" class="edge">
<title>Node60&#45;&gt;Node61</title>
<path fill="none" stroke="midnightblue" d="M368.04,-403.32C358.87,-395.34 345.06,-383.31 333.97,-373.65"/>
<polygon fill="midnightblue" stroke="midnightblue" points="335.98,-370.76 326.14,-366.83 331.38,-376.04 335.98,-370.76"/>
</g>
<!-- Node62&#45;&gt;Node32 -->
<g id="edge59" class="edge">
<title>Node62&#45;&gt;Node32</title>
<path fill="none" stroke="midnightblue" d="M1008.73,-235.08C1002.46,-227.38 993.21,-216.03 985.57,-206.65"/>
<polygon fill="midnightblue" stroke="midnightblue" points="988.16,-204.29 979.13,-198.75 982.73,-208.71 988.16,-204.29"/>
</g>
<!-- Node62&#45;&gt;Node33 -->
<g id="edge60" class="edge">
<title>Node62&#45;&gt;Node33</title>
<path fill="none" stroke="midnightblue" d="M1041.67,-235.44C1068.92,-226.36 1112.18,-211.94 1142.65,-201.78"/>
<polygon fill="midnightblue" stroke="midnightblue" points="1144.07,-205 1152.45,-198.52 1141.86,-198.36 1144.07,-205"/>
</g>
<!-- Node62&#45;&gt;Node18 -->
<g id="edge61" class="edge">
<title>Node62&#45;&gt;Node18</title>
<path fill="none" stroke="midnightblue" d="M1027.41,-235.32C1038.11,-227.18 1054.34,-214.84 1067.16,-205.09"/>
<polygon fill="midnightblue" stroke="midnightblue" points="1069.54,-207.67 1075.39,-198.83 1065.31,-202.1 1069.54,-207.67"/>
</g>
<!-- Node63&#45;&gt;Node3 -->
<g id="edge65" class="edge">
<title>Node63&#45;&gt;Node3</title>
<path fill="none" stroke="midnightblue" d="M628.91,-403.44C647.25,-394.68 676.01,-380.94 697.09,-370.86"/>
<polygon fill="midnightblue" stroke="midnightblue" points="698.67,-373.99 706.18,-366.52 695.65,-367.67 698.67,-373.99"/>
</g>
<!-- Node63&#45;&gt;Node4 -->
<g id="edge63" class="edge">
<title>Node63&#45;&gt;Node4</title>
<path fill="none" stroke="midnightblue" d="M603.31,-403.37C586.99,-385.05 548.68,-342.05 527.58,-318.36"/>
<polygon fill="midnightblue" stroke="midnightblue" points="529.92,-315.73 520.65,-310.59 524.69,-320.39 529.92,-315.73"/>
</g>
<!-- Node63&#45;&gt;Node5 -->
<g id="edge64" class="edge">
<title>Node63&#45;&gt;Node5</title>
<path fill="none" stroke="midnightblue" d="M576.47,-403.41C534.52,-390.92 465.58,-363.31 435,-311 416.34,-279.07 422.87,-233.84 428.77,-208.7"/>
<polygon fill="midnightblue" stroke="midnightblue" points="432.24,-209.23 431.34,-198.68 425.46,-207.49 432.24,-209.23"/>
</g>
<!-- Node63&#45;&gt;Node37 -->
<g id="edge66" class="edge">
<title>Node63&#45;&gt;Node37</title>
<path fill="none" stroke="midnightblue" d="M612.57,-403.37C615.8,-385.62 623.24,-344.67 627.62,-320.6"/>
<polygon fill="midnightblue" stroke="midnightblue" points="631.09,-321.06 629.44,-310.59 624.21,-319.8 631.09,-321.06"/>
</g>
</g>
</svg>
