<?xml version="1.0" encoding="UTF-8" standalone="no"?>
<!DOCTYPE svg PUBLIC "-//W3C//DTD SVG 1.1//EN"
 "http://www.w3.org/Graphics/SVG/1.1/DTD/svg11.dtd">
<!-- Generated by graphviz version 2.43.0 (0)
 -->
<!-- Title: OMSimEffectiveAreaAnalyisis.hh Pages: 1 -->
<svg width="827pt" height="252pt"
 viewBox="0.00 0.00 827.00 252.00" xmlns="http://www.w3.org/2000/svg" xmlns:xlink="http://www.w3.org/1999/xlink">
<g id="graph0" class="graph" transform="scale(1 1) rotate(0) translate(4 248)">
<title>OMSimEffectiveAreaAnalyisis.hh</title>
<polygon fill="white" stroke="transparent" points="-4,4 -4,-248 823,-248 823,4 -4,4"/>
<!-- Node1 -->
<g id="node1" class="node">
<title>Node1</title>
<g id="a_node1"><a xlink:title=" ">
<polygon fill="#bfbfbf" stroke="black" points="578.5,-224.5 578.5,-243.5 754.5,-243.5 754.5,-224.5 578.5,-224.5"/>
<text text-anchor="middle" x="666.5" y="-231.5" font-family="Helvetica,sans-Serif" font-size="10.00">OMSimEffectiveAreaAnalyisis.hh</text>
</a>
</g>
</g>
<!-- Node2 -->
<g id="node2" class="node">
<title>Node2</title>
<g id="a_node2"><a xlink:href="_o_m_sim_p_m_t_response_8hh.html" target="_top" xlink:title="Provides simulation for PMT response. This class is responsible for transforming hits on photocathode...">
<polygon fill="white" stroke="black" points="180,-56.5 180,-75.5 315,-75.5 315,-56.5 180,-56.5"/>
<text text-anchor="middle" x="247.5" y="-63.5" font-family="Helvetica,sans-Serif" font-size="10.00">OMSimPMTResponse.hh</text>
</a>
</g>
</g>
<!-- Node1&#45;&gt;Node2 -->
<g id="edge1" class="edge">
<title>Node1&#45;&gt;Node2</title>
<path fill="none" stroke="midnightblue" d="M642.03,-224.41C594.29,-207.53 485.53,-168.51 395.5,-132 353.21,-114.85 304.93,-93.26 275.33,-79.79"/>
<polygon fill="midnightblue" stroke="midnightblue" points="276.6,-76.52 266.05,-75.55 273.69,-82.89 276.6,-76.52"/>
</g>
<!-- Node8 -->
<g id="node8" class="node">
<title>Node8</title>
<g id="a_node8"><a xlink:href="_o_m_sim_hit_manager_8hh.html" target="_top" xlink:title="Defines structures and classes related to optical module photon hit management.">
<polygon fill="white" stroke="black" points="560,-168.5 560,-187.5 683,-187.5 683,-168.5 560,-168.5"/>
<text text-anchor="middle" x="621.5" y="-175.5" font-family="Helvetica,sans-Serif" font-size="10.00">OMSimHitManager.hh</text>
</a>
</g>
</g>
<!-- Node1&#45;&gt;Node8 -->
<g id="edge7" class="edge">
<title>Node1&#45;&gt;Node8</title>
<path fill="none" stroke="midnightblue" d="M659.07,-224.08C652.65,-216.38 643.19,-205.03 635.38,-195.65"/>
<polygon fill="midnightblue" stroke="midnightblue" points="637.88,-193.19 628.79,-187.75 632.51,-197.67 637.88,-193.19"/>
</g>
<!-- Node11 -->
<g id="node11" class="node">
<title>Node11</title>
<g id="a_node11"><a xlink:title=" ">
<polygon fill="white" stroke="#bfbfbf" points="716,-56.5 716,-75.5 819,-75.5 819,-56.5 716,-56.5"/>
<text text-anchor="middle" x="767.5" y="-63.5" font-family="Helvetica,sans-Serif" font-size="10.00">G4ThreeVector.hh</text>
</a>
</g>
</g>
<!-- Node1&#45;&gt;Node11 -->
<g id="edge17" class="edge">
<title>Node1&#45;&gt;Node11</title>
<path fill="none" stroke="midnightblue" d="M675.92,-224.26C692.98,-207.88 728.93,-170.71 747.5,-132 754.68,-117.03 760.01,-98.89 763.35,-85.59"/>
<polygon fill="midnightblue" stroke="midnightblue" points="766.79,-86.26 765.69,-75.72 759.98,-84.64 766.79,-86.26"/>
</g>
<!-- Node14 -->
<g id="node14" class="node">
<title>Node14</title>
<g id="a_node14"><a xlink:title=" ">
<polygon fill="white" stroke="#bfbfbf" points="684,-112.5 684,-131.5 739,-131.5 739,-112.5 684,-112.5"/>
<text text-anchor="middle" x="711.5" y="-119.5" font-family="Helvetica,sans-Serif" font-size="10.00">fstream</text>
</a>
</g>
</g>
<!-- Node1&#45;&gt;Node14 -->
<g id="edge18" class="edge">
<title>Node1&#45;&gt;Node14</title>
<path fill="none" stroke="midnightblue" d="M672.05,-224.31C677.53,-215.44 685.89,-201.16 691.5,-188 698.01,-172.73 703.4,-154.62 706.94,-141.4"/>
<polygon fill="midnightblue" stroke="midnightblue" points="710.36,-142.17 709.46,-131.62 703.58,-140.43 710.36,-142.17"/>
</g>
<!-- Node3 -->
<g id="node3" class="node">
<title>Node3</title>
<g id="a_node3"><a xlink:title=" ">
<polygon fill="white" stroke="#bfbfbf" points="0,-0.5 0,-19.5 119,-19.5 119,-0.5 0,-0.5"/>
<text text-anchor="middle" x="59.5" y="-7.5" font-family="Helvetica,sans-Serif" font-size="10.00">G4SystemOfUnits.hh</text>
</a>
</g>
</g>
<!-- Node2&#45;&gt;Node3 -->
<g id="edge2" class="edge">
<title>Node2&#45;&gt;Node3</title>
<path fill="none" stroke="midnightblue" d="M217.71,-56.44C185.67,-47.24 134.57,-32.56 99.15,-22.39"/>
<polygon fill="midnightblue" stroke="midnightblue" points="99.73,-18.91 89.15,-19.52 97.79,-25.64 99.73,-18.91"/>
</g>
<!-- Node4 -->
<g id="node4" class="node">
<title>Node4</title>
<g id="a_node4"><a xlink:title=" ">
<polygon fill="white" stroke="#bfbfbf" points="137,-0.5 137,-19.5 210,-19.5 210,-0.5 137,-0.5"/>
<text text-anchor="middle" x="173.5" y="-7.5" font-family="Helvetica,sans-Serif" font-size="10.00">G4Types.hh</text>
</a>
</g>
</g>
<!-- Node2&#45;&gt;Node4 -->
<g id="edge3" class="edge">
<title>Node2&#45;&gt;Node4</title>
<path fill="none" stroke="midnightblue" d="M235.61,-56.32C224.35,-48.11 207.21,-35.6 193.79,-25.81"/>
<polygon fill="midnightblue" stroke="midnightblue" points="195.75,-22.9 185.61,-19.83 191.62,-28.56 195.75,-22.9"/>
</g>
<!-- Node5 -->
<g id="node5" class="node">
<title>Node5</title>
<g id="a_node5"><a xlink:title=" ">
<polygon fill="white" stroke="#bfbfbf" points="228.5,-0.5 228.5,-19.5 266.5,-19.5 266.5,-0.5 228.5,-0.5"/>
<text text-anchor="middle" x="247.5" y="-7.5" font-family="Helvetica,sans-Serif" font-size="10.00">map</text>
</a>
</g>
</g>
<!-- Node2&#45;&gt;Node5 -->
<g id="edge4" class="edge">
<title>Node2&#45;&gt;Node5</title>
<path fill="none" stroke="midnightblue" d="M247.5,-56.08C247.5,-49.01 247.5,-38.86 247.5,-29.99"/>
<polygon fill="midnightblue" stroke="midnightblue" points="251,-29.75 247.5,-19.75 244,-29.75 251,-29.75"/>
</g>
<!-- Node6 -->
<g id="node6" class="node">
<title>Node6</title>
<g id="a_node6"><a xlink:title=" ">
<polygon fill="white" stroke="#bfbfbf" points="285,-0.5 285,-19.5 346,-19.5 346,-0.5 285,-0.5"/>
<text text-anchor="middle" x="315.5" y="-7.5" font-family="Helvetica,sans-Serif" font-size="10.00">TGraph.h</text>
</a>
</g>
</g>
<!-- Node2&#45;&gt;Node6 -->
<g id="edge5" class="edge">
<title>Node2&#45;&gt;Node6</title>
<path fill="none" stroke="midnightblue" d="M258.43,-56.32C268.67,-48.18 284.22,-35.84 296.5,-26.09"/>
<polygon fill="midnightblue" stroke="midnightblue" points="298.72,-28.79 304.38,-19.83 294.37,-23.31 298.72,-28.79"/>
</g>
<!-- Node7 -->
<g id="node7" class="node">
<title>Node7</title>
<g id="a_node7"><a xlink:title=" ">
<polygon fill="white" stroke="#bfbfbf" points="364,-0.5 364,-19.5 417,-19.5 417,-0.5 364,-0.5"/>
<text text-anchor="middle" x="390.5" y="-7.5" font-family="Helvetica,sans-Serif" font-size="10.00">TH2D.h</text>
</a>
</g>
</g>
<!-- Node2&#45;&gt;Node7 -->
<g id="edge6" class="edge">
<title>Node2&#45;&gt;Node7</title>
<path fill="none" stroke="midnightblue" d="M270.16,-56.44C293.9,-47.48 331.41,-33.31 358.24,-23.18"/>
<polygon fill="midnightblue" stroke="midnightblue" points="359.83,-26.32 367.95,-19.52 357.36,-19.77 359.83,-26.32"/>
</g>
<!-- Node8&#45;&gt;Node2 -->
<g id="edge8" class="edge">
<title>Node8&#45;&gt;Node2</title>
<path fill="none" stroke="midnightblue" d="M591.37,-168.48C559.74,-159.51 508.58,-144.92 464.5,-132 401.61,-113.57 328.65,-91.59 285.37,-78.49"/>
<polygon fill="midnightblue" stroke="midnightblue" points="286.14,-75.07 275.56,-75.52 284.11,-81.77 286.14,-75.07"/>
</g>
<!-- Node9 -->
<g id="node9" class="node">
<title>Node9</title>
<g id="a_node9"><a xlink:href="_o_m_sim_sensitive_detector_8hh.html" target="_top" xlink:title=" ">
<polygon fill="white" stroke="black" points="474,-112.5 474,-131.5 627,-131.5 627,-112.5 474,-112.5"/>
<text text-anchor="middle" x="550.5" y="-119.5" font-family="Helvetica,sans-Serif" font-size="10.00">OMSimSensitiveDetector.hh</text>
</a>
</g>
</g>
<!-- Node8&#45;&gt;Node9 -->
<g id="edge9" class="edge">
<title>Node8&#45;&gt;Node9</title>
<path fill="none" stroke="midnightblue" d="M610.09,-168.32C599.39,-160.18 583.16,-147.84 570.34,-138.09"/>
<polygon fill="midnightblue" stroke="midnightblue" points="572.19,-135.1 562.11,-131.83 567.96,-140.67 572.19,-135.1"/>
</g>
<!-- Node8&#45;&gt;Node11 -->
<g id="edge15" class="edge">
<title>Node8&#45;&gt;Node11</title>
<path fill="none" stroke="midnightblue" d="M626.73,-168.41C635.3,-154.92 653.48,-128.61 674.5,-112 692.04,-98.14 714.53,-87.11 733.01,-79.44"/>
<polygon fill="midnightblue" stroke="midnightblue" points="734.54,-82.6 742.53,-75.64 731.94,-76.1 734.54,-82.6"/>
</g>
<!-- Node8&#45;&gt;Node14 -->
<g id="edge16" class="edge">
<title>Node8&#45;&gt;Node14</title>
<path fill="none" stroke="midnightblue" d="M635.96,-168.32C650,-159.9 671.55,-146.97 688.04,-137.07"/>
<polygon fill="midnightblue" stroke="midnightblue" points="690.3,-139.8 697.08,-131.65 686.7,-133.8 690.3,-139.8"/>
</g>
<!-- Node9&#45;&gt;Node2 -->
<g id="edge12" class="edge">
<title>Node9&#45;&gt;Node2</title>
<path fill="none" stroke="midnightblue" d="M502.49,-112.44C448.97,-102.9 362.43,-87.48 305.26,-77.29"/>
<polygon fill="midnightblue" stroke="midnightblue" points="305.75,-73.83 295.29,-75.52 304.52,-80.72 305.75,-73.83"/>
</g>
<!-- Node10 -->
<g id="node10" class="node">
<title>Node10</title>
<g id="a_node10"><a xlink:title=" ">
<polygon fill="white" stroke="#bfbfbf" points="333.5,-56.5 333.5,-75.5 471.5,-75.5 471.5,-56.5 333.5,-56.5"/>
<text text-anchor="middle" x="402.5" y="-63.5" font-family="Helvetica,sans-Serif" font-size="10.00">G4VSensitiveDetector.hh</text>
</a>
</g>
</g>
<!-- Node9&#45;&gt;Node10 -->
<g id="edge10" class="edge">
<title>Node9&#45;&gt;Node10</title>
<path fill="none" stroke="midnightblue" d="M527.05,-112.44C502.37,-103.44 463.31,-89.19 435.52,-79.05"/>
<polygon fill="midnightblue" stroke="midnightblue" points="436.44,-75.66 425.84,-75.52 434.04,-82.23 436.44,-75.66"/>
</g>
<!-- Node9&#45;&gt;Node11 -->
<g id="edge11" class="edge">
<title>Node9&#45;&gt;Node11</title>
<path fill="none" stroke="midnightblue" d="M584.88,-112.44C622.42,-103.1 682.63,-88.12 723.57,-77.93"/>
<polygon fill="midnightblue" stroke="midnightblue" points="724.42,-81.33 733.28,-75.52 722.73,-74.53 724.42,-81.33"/>
</g>
<!-- Node12 -->
<g id="node12" class="node">
<title>Node12</title>
<g id="a_node12"><a xlink:title=" ">
<polygon fill="white" stroke="#bfbfbf" points="490,-56.5 490,-75.5 633,-75.5 633,-56.5 490,-56.5"/>
<text text-anchor="middle" x="561.5" y="-63.5" font-family="Helvetica,sans-Serif" font-size="10.00">G4OpBoundaryProcess.hh</text>
</a>
</g>
</g>
<!-- Node9&#45;&gt;Node12 -->
<g id="edge13" class="edge">
<title>Node9&#45;&gt;Node12</title>
<path fill="none" stroke="midnightblue" d="M552.32,-112.08C553.77,-104.93 555.87,-94.64 557.69,-85.69"/>
<polygon fill="midnightblue" stroke="midnightblue" points="561.15,-86.25 559.72,-75.75 554.29,-84.85 561.15,-86.25"/>
</g>
<!-- Node13 -->
<g id="node13" class="node">
<title>Node13</title>
<g id="a_node13"><a xlink:title=" ">
<polygon fill="white" stroke="#bfbfbf" points="651,-56.5 651,-75.5 698,-75.5 698,-56.5 651,-56.5"/>
<text text-anchor="middle" x="674.5" y="-63.5" font-family="Helvetica,sans-Serif" font-size="10.00">vector</text>
</a>
</g>
</g>
<!-- Node9&#45;&gt;Node13 -->
<g id="edge14" class="edge">
<title>Node9&#45;&gt;Node13</title>
<path fill="none" stroke="midnightblue" d="M570.15,-112.44C590.46,-103.6 622.4,-89.69 645.6,-79.59"/>
<polygon fill="midnightblue" stroke="midnightblue" points="647.17,-82.72 654.94,-75.52 644.38,-76.3 647.17,-82.72"/>
</g>
</g>
</svg>
