<?xml version="1.0" encoding="UTF-8" standalone="no"?>
<!DOCTYPE svg PUBLIC "-//W3C//DTD SVG 1.1//EN"
 "http://www.w3.org/Graphics/SVG/1.1/DTD/svg11.dtd">
<!-- Generated by graphviz version 2.43.0 (0)
 -->
<!-- Title: OMSimEffectiveAreaAnalyisis.hh Pages: 1 -->
<svg width="517pt" height="196pt"
 viewBox="0.00 0.00 517.00 196.00" xmlns="http://www.w3.org/2000/svg" xmlns:xlink="http://www.w3.org/1999/xlink">
<g id="graph0" class="graph" transform="scale(1 1) rotate(0) translate(4 192)">
<title>OMSimEffectiveAreaAnalyisis.hh</title>
<polygon fill="white" stroke="transparent" points="-4,4 -4,-192 513,-192 513,4 -4,4"/>
<!-- Node1 -->
<g id="node1" class="node">
<title>Node1</title>
<g id="a_node1"><a xlink:title=" ">
<polygon fill="#bfbfbf" stroke="black" points="306.5,-168.5 306.5,-187.5 482.5,-187.5 482.5,-168.5 306.5,-168.5"/>
<text text-anchor="middle" x="394.5" y="-175.5" font-family="Helvetica,sans-Serif" font-size="10.00">OMSimEffectiveAreaAnalyisis.hh</text>
</a>
</g>
</g>
<!-- Node2 -->
<g id="node2" class="node">
<title>Node2</title>
<g id="a_node2"><a xlink:href="_o_m_sim_p_m_t_response_8hh.html" target="_top" xlink:title="Provides simulation for PMT response. This class is responsible for transforming hits on photocathode...">
<polygon fill="white" stroke="black" points="180,-56.5 180,-75.5 315,-75.5 315,-56.5 180,-56.5"/>
<text text-anchor="middle" x="247.5" y="-63.5" font-family="Helvetica,sans-Serif" font-size="10.00">OMSimPMTResponse.hh</text>
</a>
</g>
</g>
<!-- Node1&#45;&gt;Node2 -->
<g id="edge1" class="edge">
<title>Node1&#45;&gt;Node2</title>
<path fill="none" stroke="midnightblue" d="M351.14,-168.45C327.32,-161.88 298.61,-150.66 278.5,-132 265.06,-119.53 256.85,-100.02 252.28,-85.63"/>
<polygon fill="midnightblue" stroke="midnightblue" points="255.59,-84.47 249.48,-75.82 248.86,-86.4 255.59,-84.47"/>
</g>
<!-- Node8 -->
<g id="node8" class="node">
<title>Node8</title>
<g id="a_node8"><a xlink:href="_o_m_sim_hit_manager_8hh.html" target="_top" xlink:title="Defines structures and classes related to optical module photon hit management.">
<polygon fill="white" stroke="black" points="288,-112.5 288,-131.5 411,-131.5 411,-112.5 288,-112.5"/>
<text text-anchor="middle" x="349.5" y="-119.5" font-family="Helvetica,sans-Serif" font-size="10.00">OMSimHitManager.hh</text>
</a>
</g>
</g>
<!-- Node1&#45;&gt;Node8 -->
<g id="edge7" class="edge">
<title>Node1&#45;&gt;Node8</title>
<path fill="none" stroke="midnightblue" d="M387.07,-168.08C380.65,-160.38 371.19,-149.03 363.38,-139.65"/>
<polygon fill="midnightblue" stroke="midnightblue" points="365.88,-137.19 356.79,-131.75 360.51,-141.67 365.88,-137.19"/>
</g>
<!-- Node9 -->
<g id="node9" class="node">
<title>Node9</title>
<g id="a_node9"><a xlink:title=" ">
<polygon fill="white" stroke="#bfbfbf" points="333,-56.5 333,-75.5 436,-75.5 436,-56.5 333,-56.5"/>
<text text-anchor="middle" x="384.5" y="-63.5" font-family="Helvetica,sans-Serif" font-size="10.00">G4ThreeVector.hh</text>
</a>
</g>
</g>
<!-- Node1&#45;&gt;Node9 -->
<g id="edge11" class="edge">
<title>Node1&#45;&gt;Node9</title>
<path fill="none" stroke="midnightblue" d="M402.26,-168.26C412.29,-155.87 427.66,-132.41 420.5,-112 416.71,-101.21 409.13,-91.08 401.9,-83.18"/>
<polygon fill="midnightblue" stroke="midnightblue" points="404.17,-80.49 394.66,-75.81 399.17,-85.4 404.17,-80.49"/>
</g>
<!-- Node10 -->
<g id="node10" class="node">
<title>Node10</title>
<g id="a_node10"><a xlink:title=" ">
<polygon fill="white" stroke="#bfbfbf" points="454,-56.5 454,-75.5 509,-75.5 509,-56.5 454,-56.5"/>
<text text-anchor="middle" x="481.5" y="-63.5" font-family="Helvetica,sans-Serif" font-size="10.00">fstream</text>
</a>
</g>
</g>
<!-- Node1&#45;&gt;Node10 -->
<g id="edge12" class="edge">
<title>Node1&#45;&gt;Node10</title>
<path fill="none" stroke="midnightblue" d="M402.74,-168.26C411.02,-159.36 424.03,-145.04 434.5,-132 447.13,-116.27 460.51,-97.53 469.75,-84.22"/>
<polygon fill="midnightblue" stroke="midnightblue" points="472.89,-85.84 475.68,-75.62 467.13,-81.87 472.89,-85.84"/>
</g>
<!-- Node3 -->
<g id="node3" class="node">
<title>Node3</title>
<g id="a_node3"><a xlink:title=" ">
<polygon fill="white" stroke="#bfbfbf" points="0,-0.5 0,-19.5 119,-19.5 119,-0.5 0,-0.5"/>
<text text-anchor="middle" x="59.5" y="-7.5" font-family="Helvetica,sans-Serif" font-size="10.00">G4SystemOfUnits.hh</text>
</a>
</g>
</g>
<!-- Node2&#45;&gt;Node3 -->
<g id="edge2" class="edge">
<title>Node2&#45;&gt;Node3</title>
<path fill="none" stroke="midnightblue" d="M217.71,-56.44C185.67,-47.24 134.57,-32.56 99.15,-22.39"/>
<polygon fill="midnightblue" stroke="midnightblue" points="99.73,-18.91 89.15,-19.52 97.79,-25.64 99.73,-18.91"/>
</g>
<!-- Node4 -->
<g id="node4" class="node">
<title>Node4</title>
<g id="a_node4"><a xlink:title=" ">
<polygon fill="white" stroke="#bfbfbf" points="137,-0.5 137,-19.5 210,-19.5 210,-0.5 137,-0.5"/>
<text text-anchor="middle" x="173.5" y="-7.5" font-family="Helvetica,sans-Serif" font-size="10.00">G4Types.hh</text>
</a>
</g>
</g>
<!-- Node2&#45;&gt;Node4 -->
<g id="edge3" class="edge">
<title>Node2&#45;&gt;Node4</title>
<path fill="none" stroke="midnightblue" d="M235.61,-56.32C224.35,-48.11 207.21,-35.6 193.79,-25.81"/>
<polygon fill="midnightblue" stroke="midnightblue" points="195.75,-22.9 185.61,-19.83 191.62,-28.56 195.75,-22.9"/>
</g>
<!-- Node5 -->
<g id="node5" class="node">
<title>Node5</title>
<g id="a_node5"><a xlink:title=" ">
<polygon fill="white" stroke="#bfbfbf" points="228.5,-0.5 228.5,-19.5 266.5,-19.5 266.5,-0.5 228.5,-0.5"/>
<text text-anchor="middle" x="247.5" y="-7.5" font-family="Helvetica,sans-Serif" font-size="10.00">map</text>
</a>
</g>
</g>
<!-- Node2&#45;&gt;Node5 -->
<g id="edge4" class="edge">
<title>Node2&#45;&gt;Node5</title>
<path fill="none" stroke="midnightblue" d="M247.5,-56.08C247.5,-49.01 247.5,-38.86 247.5,-29.99"/>
<polygon fill="midnightblue" stroke="midnightblue" points="251,-29.75 247.5,-19.75 244,-29.75 251,-29.75"/>
</g>
<!-- Node6 -->
<g id="node6" class="node">
<title>Node6</title>
<g id="a_node6"><a xlink:title=" ">
<polygon fill="white" stroke="#bfbfbf" points="285,-0.5 285,-19.5 346,-19.5 346,-0.5 285,-0.5"/>
<text text-anchor="middle" x="315.5" y="-7.5" font-family="Helvetica,sans-Serif" font-size="10.00">TGraph.h</text>
</a>
</g>
</g>
<!-- Node2&#45;&gt;Node6 -->
<g id="edge5" class="edge">
<title>Node2&#45;&gt;Node6</title>
<path fill="none" stroke="midnightblue" d="M258.43,-56.32C268.67,-48.18 284.22,-35.84 296.5,-26.09"/>
<polygon fill="midnightblue" stroke="midnightblue" points="298.72,-28.79 304.38,-19.83 294.37,-23.31 298.72,-28.79"/>
</g>
<!-- Node7 -->
<g id="node7" class="node">
<title>Node7</title>
<g id="a_node7"><a xlink:title=" ">
<polygon fill="white" stroke="#bfbfbf" points="364,-0.5 364,-19.5 417,-19.5 417,-0.5 364,-0.5"/>
<text text-anchor="middle" x="390.5" y="-7.5" font-family="Helvetica,sans-Serif" font-size="10.00">TH2D.h</text>
</a>
</g>
</g>
<!-- Node2&#45;&gt;Node7 -->
<g id="edge6" class="edge">
<title>Node2&#45;&gt;Node7</title>
<path fill="none" stroke="midnightblue" d="M270.16,-56.44C293.9,-47.48 331.41,-33.31 358.24,-23.18"/>
<polygon fill="midnightblue" stroke="midnightblue" points="359.83,-26.32 367.95,-19.52 357.36,-19.77 359.83,-26.32"/>
</g>
<!-- Node8&#45;&gt;Node2 -->
<g id="edge8" class="edge">
<title>Node8&#45;&gt;Node2</title>
<path fill="none" stroke="midnightblue" d="M333.11,-112.32C316.83,-103.7 291.63,-90.36 272.78,-80.39"/>
<polygon fill="midnightblue" stroke="midnightblue" points="274.32,-77.24 263.85,-75.65 271.05,-83.43 274.32,-77.24"/>
</g>
<!-- Node8&#45;&gt;Node9 -->
<g id="edge9" class="edge">
<title>Node8&#45;&gt;Node9</title>
<path fill="none" stroke="midnightblue" d="M355.28,-112.08C360.17,-104.53 367.33,-93.49 373.33,-84.23"/>
<polygon fill="midnightblue" stroke="midnightblue" points="376.33,-86.05 378.83,-75.75 370.45,-82.24 376.33,-86.05"/>
</g>
<!-- Node8&#45;&gt;Node10 -->
<g id="edge10" class="edge">
<title>Node8&#45;&gt;Node10</title>
<path fill="none" stroke="midnightblue" d="M370.42,-112.44C392.24,-103.52 426.65,-89.44 451.39,-79.32"/>
<polygon fill="midnightblue" stroke="midnightblue" points="452.75,-82.54 460.68,-75.52 450.1,-76.06 452.75,-82.54"/>
</g>
</g>
</svg>
