<?xml version="1.0" encoding="UTF-8" standalone="no"?>
<!DOCTYPE svg PUBLIC "-//W3C//DTD SVG 1.1//EN"
 "http://www.w3.org/Graphics/SVG/1.1/DTD/svg11.dtd">
<!-- Generated by graphviz version 2.43.0 (0)
 -->
<!-- Title: OMSimDecaysGPS.cc Pages: 1 -->
<svg width="1668pt" height="442pt"
 viewBox="0.00 0.00 1668.00 442.00" xmlns="http://www.w3.org/2000/svg" xmlns:xlink="http://www.w3.org/1999/xlink">
<g id="graph0" class="graph" transform="scale(1 1) rotate(0) translate(4 438)">
<title>OMSimDecaysGPS.cc</title>
<polygon fill="white" stroke="transparent" points="-4,4 -4,-438 1664,-438 1664,4 -4,4"/>
<!-- Node1 -->
<g id="node1" class="node">
<title>Node1</title>
<g id="a_node1"><a xlink:title=" ">
<polygon fill="#bfbfbf" stroke="black" points="1291.5,-414.5 1291.5,-433.5 1412.5,-433.5 1412.5,-414.5 1291.5,-414.5"/>
<text text-anchor="middle" x="1352" y="-421.5" font-family="Helvetica,sans-Serif" font-size="10.00">OMSimDecaysGPS.cc</text>
</a>
</g>
</g>
<!-- Node2 -->
<g id="node2" class="node">
<title>Node2</title>
<g id="a_node2"><a xlink:href="_o_m_sim_decays_g_p_s_8hh.html" target="_top" xlink:title="Defines the OMSimDecaysGPS class for the radioactive decays simulation.">
<polygon fill="white" stroke="black" points="566,-358.5 566,-377.5 688,-377.5 688,-358.5 566,-358.5"/>
<text text-anchor="middle" x="627" y="-365.5" font-family="Helvetica,sans-Serif" font-size="10.00">OMSimDecaysGPS.hh</text>
</a>
</g>
</g>
<!-- Node1&#45;&gt;Node2 -->
<g id="edge1" class="edge">
<title>Node1&#45;&gt;Node2</title>
<path fill="none" stroke="midnightblue" d="M1291.43,-418.49C1158.38,-408.58 841.1,-384.95 698.53,-374.33"/>
<polygon fill="midnightblue" stroke="midnightblue" points="698.39,-370.81 688.16,-373.56 697.87,-377.79 698.39,-370.81"/>
</g>
<!-- Node6 -->
<g id="node6" class="node">
<title>Node6</title>
<g id="a_node6"><a xlink:href="_o_m_sim_logger_8hh.html" target="_top" xlink:title=" ">
<polygon fill="white" stroke="black" points="1320.5,-73 1320.5,-92 1419.5,-92 1419.5,-73 1320.5,-73"/>
<text text-anchor="middle" x="1370" y="-80" font-family="Helvetica,sans-Serif" font-size="10.00">OMSimLogger.hh</text>
</a>
</g>
</g>
<!-- Node1&#45;&gt;Node6 -->
<g id="edge39" class="edge">
<title>Node1&#45;&gt;Node6</title>
<path fill="none" stroke="midnightblue" d="M1352.46,-414.27C1354.84,-369.52 1365.65,-165.57 1369,-102.29"/>
<polygon fill="midnightblue" stroke="midnightblue" points="1372.51,-102.35 1369.54,-92.18 1365.52,-101.98 1372.51,-102.35"/>
</g>
<!-- Node12 -->
<g id="node12" class="node">
<title>Node12</title>
<g id="a_node12"><a xlink:title=" ">
<polygon fill="white" stroke="#bfbfbf" points="647.5,-73 647.5,-92 766.5,-92 766.5,-73 647.5,-73"/>
<text text-anchor="middle" x="707" y="-80" font-family="Helvetica,sans-Serif" font-size="10.00">G4SystemOfUnits.hh</text>
</a>
</g>
</g>
<!-- Node1&#45;&gt;Node12 -->
<g id="edge47" class="edge">
<title>Node1&#45;&gt;Node12</title>
<path fill="none" stroke="midnightblue" d="M1336.48,-414.35C1309.78,-398.2 1258,-360.73 1258,-313 1258,-313 1258,-313 1258,-199 1258,-168.9 1262.37,-152.97 1239,-134 1198.85,-101.41 826.18,-105.41 775,-98 767.77,-96.95 760.16,-95.59 752.76,-94.12"/>
<polygon fill="midnightblue" stroke="midnightblue" points="753.34,-90.67 742.84,-92.07 751.92,-97.52 753.34,-90.67"/>
</g>
<!-- Node33 -->
<g id="node33" class="node">
<title>Node33</title>
<g id="a_node33"><a xlink:href="_o_m_sim_u_iinterface_8hh.html" target="_top" xlink:title="The OMSimUIinterface class provides a singleton interface to Geant4&#39;s UI manager.">
<polygon fill="white" stroke="black" points="1380.5,-302.5 1380.5,-321.5 1501.5,-321.5 1501.5,-302.5 1380.5,-302.5"/>
<text text-anchor="middle" x="1441" y="-309.5" font-family="Helvetica,sans-Serif" font-size="10.00">OMSimUIinterface.hh</text>
</a>
</g>
</g>
<!-- Node1&#45;&gt;Node33 -->
<g id="edge40" class="edge">
<title>Node1&#45;&gt;Node33</title>
<path fill="none" stroke="midnightblue" d="M1358.98,-414.37C1373.74,-396.14 1408.29,-353.43 1427.51,-329.68"/>
<polygon fill="midnightblue" stroke="midnightblue" points="1430.48,-331.57 1434.05,-321.59 1425.04,-327.16 1430.48,-331.57"/>
</g>
<!-- Node38 -->
<g id="node38" class="node">
<title>Node38</title>
<g id="a_node38"><a xlink:title=" ">
<polygon fill="white" stroke="#bfbfbf" points="1418.5,-358.5 1418.5,-377.5 1501.5,-377.5 1501.5,-358.5 1418.5,-358.5"/>
<text text-anchor="middle" x="1460" y="-365.5" font-family="Helvetica,sans-Serif" font-size="10.00">G4Poisson.hh</text>
</a>
</g>
</g>
<!-- Node1&#45;&gt;Node38 -->
<g id="edge48" class="edge">
<title>Node1&#45;&gt;Node38</title>
<path fill="none" stroke="midnightblue" d="M1369.35,-414.32C1386.67,-405.66 1413.52,-392.24 1433.5,-382.25"/>
<polygon fill="midnightblue" stroke="midnightblue" points="1435.31,-385.26 1442.69,-377.65 1432.18,-379 1435.31,-385.26"/>
</g>
<!-- Node3 -->
<g id="node3" class="node">
<title>Node3</title>
<g id="a_node3"><a xlink:href="_o_m_sim_optical_module_8hh.html" target="_top" xlink:title=" ">
<polygon fill="white" stroke="black" points="558.5,-302.5 558.5,-321.5 695.5,-321.5 695.5,-302.5 558.5,-302.5"/>
<text text-anchor="middle" x="627" y="-309.5" font-family="Helvetica,sans-Serif" font-size="10.00">OMSimOpticalModule.hh</text>
</a>
</g>
</g>
<!-- Node2&#45;&gt;Node3 -->
<g id="edge2" class="edge">
<title>Node2&#45;&gt;Node3</title>
<path fill="none" stroke="midnightblue" d="M627,-358.08C627,-351.01 627,-340.86 627,-331.99"/>
<polygon fill="midnightblue" stroke="midnightblue" points="630.5,-331.75 627,-321.75 623.5,-331.75 630.5,-331.75"/>
</g>
<!-- Node32 -->
<g id="node32" class="node">
<title>Node32</title>
<g id="a_node32"><a xlink:title=" ">
<polygon fill="white" stroke="#bfbfbf" points="473.5,-302.5 473.5,-321.5 540.5,-321.5 540.5,-302.5 473.5,-302.5"/>
<text text-anchor="middle" x="507" y="-309.5" font-family="Helvetica,sans-Serif" font-size="10.00">globals.hh</text>
</a>
</g>
</g>
<!-- Node2&#45;&gt;Node32 -->
<g id="edge38" class="edge">
<title>Node2&#45;&gt;Node32</title>
<path fill="none" stroke="midnightblue" d="M607.99,-358.44C588.41,-349.64 557.69,-335.81 535.27,-325.72"/>
<polygon fill="midnightblue" stroke="midnightblue" points="536.48,-322.43 525.93,-321.52 533.61,-328.81 536.48,-322.43"/>
</g>
<!-- Node4 -->
<g id="node4" class="node">
<title>Node4</title>
<g id="a_node4"><a xlink:href="abc_detector_component_8hh.html" target="_top" xlink:title="Provides helper base class abcDetectorComponent for constructing and managing detector components in ...">
<polygon fill="white" stroke="black" points="700.5,-190.5 700.5,-209.5 847.5,-209.5 847.5,-190.5 700.5,-190.5"/>
<text text-anchor="middle" x="774" y="-197.5" font-family="Helvetica,sans-Serif" font-size="10.00">abcDetectorComponent.hh</text>
</a>
</g>
</g>
<!-- Node3&#45;&gt;Node4 -->
<g id="edge3" class="edge">
<title>Node3&#45;&gt;Node4</title>
<path fill="none" stroke="midnightblue" d="M638.53,-302.37C663.55,-283.65 723.02,-239.15 754.18,-215.83"/>
<polygon fill="midnightblue" stroke="midnightblue" points="756.61,-218.39 762.52,-209.59 752.42,-212.78 756.61,-218.39"/>
</g>
<!-- Node18 -->
<g id="node18" class="node">
<title>Node18</title>
<g id="a_node18"><a xlink:href="_o_m_sim_hit_manager_8hh.html" target="_top" xlink:title="Defines structures and classes related to optical module photon hit management.">
<polygon fill="white" stroke="black" points="473.5,-246.5 473.5,-265.5 596.5,-265.5 596.5,-246.5 473.5,-246.5"/>
<text text-anchor="middle" x="535" y="-253.5" font-family="Helvetica,sans-Serif" font-size="10.00">OMSimHitManager.hh</text>
</a>
</g>
</g>
<!-- Node3&#45;&gt;Node18 -->
<g id="edge17" class="edge">
<title>Node3&#45;&gt;Node18</title>
<path fill="none" stroke="midnightblue" d="M612.22,-302.32C597.73,-293.82 575.43,-280.73 558.51,-270.8"/>
<polygon fill="midnightblue" stroke="midnightblue" points="560.14,-267.7 549.74,-265.65 556.6,-273.74 560.14,-267.7"/>
</g>
<!-- Node29 -->
<g id="node29" class="node">
<title>Node29</title>
<g id="a_node29"><a xlink:href="_o_m_sim_p_m_t_construction_8hh.html" target="_top" xlink:title="Construction of the PMTs.">
<polygon fill="white" stroke="black" points="212.5,-246.5 212.5,-265.5 361.5,-265.5 361.5,-246.5 212.5,-246.5"/>
<text text-anchor="middle" x="287" y="-253.5" font-family="Helvetica,sans-Serif" font-size="10.00">OMSimPMTConstruction.hh</text>
</a>
</g>
</g>
<!-- Node3&#45;&gt;Node29 -->
<g id="edge32" class="edge">
<title>Node3&#45;&gt;Node29</title>
<path fill="none" stroke="midnightblue" d="M573.13,-302.44C512.69,-292.85 414.76,-277.29 350.62,-267.1"/>
<polygon fill="midnightblue" stroke="midnightblue" points="351.05,-263.63 340.62,-265.52 349.95,-270.54 351.05,-263.63"/>
</g>
<!-- Node5 -->
<g id="node5" class="node">
<title>Node5</title>
<g id="a_node5"><a xlink:href="_o_m_sim_input_data_8hh.html" target="_top" xlink:title="Definition of ParameterTable and InputDataManager.">
<polygon fill="white" stroke="black" points="716.5,-134.5 716.5,-153.5 831.5,-153.5 831.5,-134.5 716.5,-134.5"/>
<text text-anchor="middle" x="774" y="-141.5" font-family="Helvetica,sans-Serif" font-size="10.00">OMSimInputData.hh</text>
</a>
</g>
</g>
<!-- Node4&#45;&gt;Node5 -->
<g id="edge4" class="edge">
<title>Node4&#45;&gt;Node5</title>
<path fill="none" stroke="midnightblue" d="M774,-190.08C774,-183.01 774,-172.86 774,-163.99"/>
<polygon fill="midnightblue" stroke="midnightblue" points="777.5,-163.75 774,-153.75 770.5,-163.75 777.5,-163.75"/>
</g>
<!-- Node14 -->
<g id="node14" class="node">
<title>Node14</title>
<g id="a_node14"><a xlink:title=" ">
<polygon fill="white" stroke="#bfbfbf" points="591.5,-134.5 591.5,-153.5 698.5,-153.5 698.5,-134.5 591.5,-134.5"/>
<text text-anchor="middle" x="645" y="-141.5" font-family="Helvetica,sans-Serif" font-size="10.00">G4Transform3D.hh</text>
</a>
</g>
</g>
<!-- Node4&#45;&gt;Node14 -->
<g id="edge13" class="edge">
<title>Node4&#45;&gt;Node14</title>
<path fill="none" stroke="midnightblue" d="M753.56,-190.44C732.33,-181.56 698.9,-167.56 674.75,-157.45"/>
<polygon fill="midnightblue" stroke="midnightblue" points="675.92,-154.15 665.34,-153.52 673.22,-160.61 675.92,-154.15"/>
</g>
<!-- Node15 -->
<g id="node15" class="node">
<title>Node15</title>
<g id="a_node15"><a xlink:title=" ">
<polygon fill="white" stroke="#bfbfbf" points="850,-134.5 850,-153.5 958,-153.5 958,-134.5 850,-134.5"/>
<text text-anchor="middle" x="904" y="-141.5" font-family="Helvetica,sans-Serif" font-size="10.00">G4VisAttributes.hh</text>
</a>
</g>
</g>
<!-- Node4&#45;&gt;Node15 -->
<g id="edge14" class="edge">
<title>Node4&#45;&gt;Node15</title>
<path fill="none" stroke="midnightblue" d="M794.6,-190.44C815.99,-181.56 849.68,-167.56 874.02,-157.45"/>
<polygon fill="midnightblue" stroke="midnightblue" points="875.61,-160.58 883.5,-153.52 872.92,-154.12 875.61,-160.58"/>
</g>
<!-- Node16 -->
<g id="node16" class="node">
<title>Node16</title>
<g id="a_node16"><a xlink:title=" ">
<polygon fill="white" stroke="#bfbfbf" points="976.5,-134.5 976.5,-153.5 1101.5,-153.5 1101.5,-134.5 976.5,-134.5"/>
<text text-anchor="middle" x="1039" y="-141.5" font-family="Helvetica,sans-Serif" font-size="10.00">G4SubtractionSolid.hh</text>
</a>
</g>
</g>
<!-- Node4&#45;&gt;Node16 -->
<g id="edge15" class="edge">
<title>Node4&#45;&gt;Node16</title>
<path fill="none" stroke="midnightblue" d="M815.99,-190.44C862.41,-180.98 937.23,-165.74 987.24,-155.55"/>
<polygon fill="midnightblue" stroke="midnightblue" points="988.11,-158.94 997.21,-153.52 986.71,-152.08 988.11,-158.94"/>
</g>
<!-- Node17 -->
<g id="node17" class="node">
<title>Node17</title>
<g id="a_node17"><a xlink:title=" ">
<polygon fill="white" stroke="#bfbfbf" points="1120,-134.5 1120,-153.5 1230,-153.5 1230,-134.5 1120,-134.5"/>
<text text-anchor="middle" x="1175" y="-141.5" font-family="Helvetica,sans-Serif" font-size="10.00">G4PVPlacement.hh</text>
</a>
</g>
</g>
<!-- Node4&#45;&gt;Node17 -->
<g id="edge16" class="edge">
<title>Node4&#45;&gt;Node17</title>
<path fill="none" stroke="midnightblue" d="M838.11,-190.5C903.55,-181.8 1008.36,-167.82 1109.59,-154.05"/>
<polygon fill="midnightblue" stroke="midnightblue" points="1110.25,-157.49 1119.68,-152.68 1109.3,-150.56 1110.25,-157.49"/>
</g>
<!-- Node5&#45;&gt;Node6 -->
<g id="edge5" class="edge">
<title>Node5&#45;&gt;Node6</title>
<path fill="none" stroke="midnightblue" d="M831.73,-135.1C834.86,-134.72 837.97,-134.35 841,-134 1010.96,-114.48 1212.26,-96.74 1310.32,-88.45"/>
<polygon fill="midnightblue" stroke="midnightblue" points="1310.67,-91.93 1320.34,-87.6 1310.08,-84.95 1310.67,-91.93"/>
</g>
<!-- Node11 -->
<g id="node11" class="node">
<title>Node11</title>
<g id="a_node11"><a xlink:title=" ">
<polygon fill="white" stroke="#bfbfbf" points="462.5,-73 462.5,-92 605.5,-92 605.5,-73 462.5,-73"/>
<text text-anchor="middle" x="534" y="-80" font-family="Helvetica,sans-Serif" font-size="10.00">G4OpBoundaryProcess.hh</text>
</a>
</g>
</g>
<!-- Node5&#45;&gt;Node11 -->
<g id="edge10" class="edge">
<title>Node5&#45;&gt;Node11</title>
<path fill="none" stroke="midnightblue" d="M739.61,-134.48C697.11,-123.94 624.7,-105.99 578.13,-94.44"/>
<polygon fill="midnightblue" stroke="midnightblue" points="578.87,-91.02 568.32,-92.01 577.19,-97.81 578.87,-91.02"/>
</g>
<!-- Node5&#45;&gt;Node12 -->
<g id="edge11" class="edge">
<title>Node5&#45;&gt;Node12</title>
<path fill="none" stroke="midnightblue" d="M764.4,-134.48C753.95,-125.2 737.03,-110.17 724.26,-98.83"/>
<polygon fill="midnightblue" stroke="midnightblue" points="726.38,-96.03 716.58,-92.01 721.73,-101.27 726.38,-96.03"/>
</g>
<!-- Node13 -->
<g id="node13" class="node">
<title>Node13</title>
<g id="a_node13"><a xlink:title=" ">
<polygon fill="white" stroke="#bfbfbf" points="784.5,-67.5 784.5,-97.5 897.5,-97.5 897.5,-67.5 784.5,-67.5"/>
<text text-anchor="start" x="792.5" y="-85.5" font-family="Helvetica,sans-Serif" font-size="10.00">boost/property_tree</text>
<text text-anchor="middle" x="841" y="-74.5" font-family="Helvetica,sans-Serif" font-size="10.00">/json_parser.hpp</text>
</a>
</g>
</g>
<!-- Node5&#45;&gt;Node13 -->
<g id="edge12" class="edge">
<title>Node5&#45;&gt;Node13</title>
<path fill="none" stroke="midnightblue" d="M783.6,-134.48C792.42,-126.64 805.85,-114.71 817.5,-104.37"/>
<polygon fill="midnightblue" stroke="midnightblue" points="820.06,-106.78 825.21,-97.52 815.41,-101.55 820.06,-106.78"/>
</g>
<!-- Node7 -->
<g id="node7" class="node">
<title>Node7</title>
<g id="a_node7"><a xlink:title=" ">
<polygon fill="white" stroke="#bfbfbf" points="1151.5,-6 1151.5,-25 1244.5,-25 1244.5,-6 1151.5,-6"/>
<text text-anchor="middle" x="1198" y="-13" font-family="Helvetica,sans-Serif" font-size="10.00">spdlog/spdlog.h</text>
</a>
</g>
</g>
<!-- Node6&#45;&gt;Node7 -->
<g id="edge6" class="edge">
<title>Node6&#45;&gt;Node7</title>
<path fill="none" stroke="midnightblue" d="M1347.16,-72.87C1317.13,-61.52 1264.22,-41.52 1230.16,-28.65"/>
<polygon fill="midnightblue" stroke="midnightblue" points="1231.25,-25.32 1220.66,-25.06 1228.78,-31.87 1231.25,-25.32"/>
</g>
<!-- Node8 -->
<g id="node8" class="node">
<title>Node8</title>
<g id="a_node8"><a xlink:title=" ">
<polygon fill="white" stroke="#bfbfbf" points="1262.5,-0.5 1262.5,-30.5 1373.5,-30.5 1373.5,-0.5 1262.5,-0.5"/>
<text text-anchor="start" x="1270.5" y="-18.5" font-family="Helvetica,sans-Serif" font-size="10.00">spdlog/sinks/stdout</text>
<text text-anchor="middle" x="1318" y="-7.5" font-family="Helvetica,sans-Serif" font-size="10.00">_color_sinks.h</text>
</a>
</g>
</g>
<!-- Node6&#45;&gt;Node8 -->
<g id="edge7" class="edge">
<title>Node6&#45;&gt;Node8</title>
<path fill="none" stroke="midnightblue" d="M1362.99,-72.73C1356.03,-64.03 1345.08,-50.34 1335.72,-38.65"/>
<polygon fill="midnightblue" stroke="midnightblue" points="1338.25,-36.21 1329.27,-30.59 1332.79,-40.58 1338.25,-36.21"/>
</g>
<!-- Node9 -->
<g id="node9" class="node">
<title>Node9</title>
<g id="a_node9"><a xlink:title=" ">
<polygon fill="white" stroke="#bfbfbf" points="1392,-6 1392,-25 1450,-25 1450,-6 1392,-6"/>
<text text-anchor="middle" x="1421" y="-13" font-family="Helvetica,sans-Serif" font-size="10.00">memory</text>
</a>
</g>
</g>
<!-- Node6&#45;&gt;Node9 -->
<g id="edge8" class="edge">
<title>Node6&#45;&gt;Node9</title>
<path fill="none" stroke="midnightblue" d="M1376.88,-72.73C1384.83,-62.6 1398.1,-45.69 1408.01,-33.06"/>
<polygon fill="midnightblue" stroke="midnightblue" points="1410.81,-35.16 1414.23,-25.13 1405.3,-30.83 1410.81,-35.16"/>
</g>
<!-- Node10 -->
<g id="node10" class="node">
<title>Node10</title>
<g id="a_node10"><a xlink:title=" ">
<polygon fill="white" stroke="#bfbfbf" points="1468,-6 1468,-25 1566,-25 1566,-6 1468,-6"/>
<text text-anchor="middle" x="1517" y="-13" font-family="Helvetica,sans-Serif" font-size="10.00">spdlog/fmt/fmt.h</text>
</a>
</g>
</g>
<!-- Node6&#45;&gt;Node10 -->
<g id="edge9" class="edge">
<title>Node6&#45;&gt;Node10</title>
<path fill="none" stroke="midnightblue" d="M1389.52,-72.87C1414.78,-61.7 1459,-42.15 1488.14,-29.26"/>
<polygon fill="midnightblue" stroke="midnightblue" points="1489.67,-32.41 1497.4,-25.17 1486.84,-26.01 1489.67,-32.41"/>
</g>
<!-- Node19 -->
<g id="node19" class="node">
<title>Node19</title>
<g id="a_node19"><a xlink:href="_o_m_sim_p_m_t_response_8hh.html" target="_top" xlink:title="Provides simulation for PMT response. This class is responsible for transforming hits on photocathode...">
<polygon fill="white" stroke="black" points="56.5,-134.5 56.5,-153.5 191.5,-153.5 191.5,-134.5 56.5,-134.5"/>
<text text-anchor="middle" x="124" y="-141.5" font-family="Helvetica,sans-Serif" font-size="10.00">OMSimPMTResponse.hh</text>
</a>
</g>
</g>
<!-- Node18&#45;&gt;Node19 -->
<g id="edge18" class="edge">
<title>Node18&#45;&gt;Node19</title>
<path fill="none" stroke="midnightblue" d="M492.94,-246.43C454.01,-238.19 394.68,-224.82 344,-210 318.23,-202.47 312.62,-198.02 287,-190 246.76,-177.4 200.36,-164.77 167.38,-156.12"/>
<polygon fill="midnightblue" stroke="midnightblue" points="168.16,-152.7 157.6,-153.56 166.39,-159.47 168.16,-152.7"/>
</g>
<!-- Node24 -->
<g id="node24" class="node">
<title>Node24</title>
<g id="a_node24"><a xlink:href="_o_m_sim_sensitive_detector_8hh.html" target="_top" xlink:title=" ">
<polygon fill="white" stroke="black" points="353.5,-190.5 353.5,-209.5 506.5,-209.5 506.5,-190.5 353.5,-190.5"/>
<text text-anchor="middle" x="430" y="-197.5" font-family="Helvetica,sans-Serif" font-size="10.00">OMSimSensitiveDetector.hh</text>
</a>
</g>
</g>
<!-- Node18&#45;&gt;Node24 -->
<g id="edge24" class="edge">
<title>Node18&#45;&gt;Node24</title>
<path fill="none" stroke="midnightblue" d="M518.13,-246.32C501.29,-237.66 475.19,-224.24 455.76,-214.25"/>
<polygon fill="midnightblue" stroke="midnightblue" points="457.32,-211.12 446.83,-209.65 454.12,-217.34 457.32,-211.12"/>
</g>
<!-- Node26 -->
<g id="node26" class="node">
<title>Node26</title>
<g id="a_node26"><a xlink:title=" ">
<polygon fill="white" stroke="#bfbfbf" points="470.5,-134.5 470.5,-153.5 573.5,-153.5 573.5,-134.5 470.5,-134.5"/>
<text text-anchor="middle" x="522" y="-141.5" font-family="Helvetica,sans-Serif" font-size="10.00">G4ThreeVector.hh</text>
</a>
</g>
</g>
<!-- Node18&#45;&gt;Node26 -->
<g id="edge30" class="edge">
<title>Node18&#45;&gt;Node26</title>
<path fill="none" stroke="midnightblue" d="M533.98,-246.37C531.88,-228.62 527.04,-187.67 524.2,-163.6"/>
<polygon fill="midnightblue" stroke="midnightblue" points="527.66,-163.11 523.02,-153.59 520.71,-163.93 527.66,-163.11"/>
</g>
<!-- Node28 -->
<g id="node28" class="node">
<title>Node28</title>
<g id="a_node28"><a xlink:title=" ">
<polygon fill="white" stroke="#bfbfbf" points="1286.5,-190.5 1286.5,-209.5 1341.5,-209.5 1341.5,-190.5 1286.5,-190.5"/>
<text text-anchor="middle" x="1314" y="-197.5" font-family="Helvetica,sans-Serif" font-size="10.00">fstream</text>
</a>
</g>
</g>
<!-- Node18&#45;&gt;Node28 -->
<g id="edge31" class="edge">
<title>Node18&#45;&gt;Node28</title>
<path fill="none" stroke="midnightblue" d="M596.78,-250.72C751.33,-240 1151.26,-212.28 1276.16,-203.62"/>
<polygon fill="midnightblue" stroke="midnightblue" points="1276.63,-207.1 1286.37,-202.92 1276.15,-200.12 1276.63,-207.1"/>
</g>
<!-- Node19&#45;&gt;Node12 -->
<g id="edge19" class="edge">
<title>Node19&#45;&gt;Node12</title>
<path fill="none" stroke="midnightblue" d="M191.59,-134.99C194.77,-134.64 197.92,-134.31 201,-134 384.3,-115.3 431.09,-120.2 614,-98 624.45,-96.73 635.53,-95.18 646.26,-93.58"/>
<polygon fill="midnightblue" stroke="midnightblue" points="647.05,-97 656.41,-92.03 645.99,-90.08 647.05,-97"/>
</g>
<!-- Node20 -->
<g id="node20" class="node">
<title>Node20</title>
<g id="a_node20"><a xlink:title=" ">
<polygon fill="white" stroke="#bfbfbf" points="206.5,-73 206.5,-92 279.5,-92 279.5,-73 206.5,-73"/>
<text text-anchor="middle" x="243" y="-80" font-family="Helvetica,sans-Serif" font-size="10.00">G4Types.hh</text>
</a>
</g>
</g>
<!-- Node19&#45;&gt;Node20 -->
<g id="edge20" class="edge">
<title>Node19&#45;&gt;Node20</title>
<path fill="none" stroke="midnightblue" d="M141.05,-134.48C160.84,-124.58 193.72,-108.14 216.77,-96.62"/>
<polygon fill="midnightblue" stroke="midnightblue" points="218.6,-99.61 225.98,-92.01 215.47,-93.35 218.6,-99.61"/>
</g>
<!-- Node21 -->
<g id="node21" class="node">
<title>Node21</title>
<g id="a_node21"><a xlink:title=" ">
<polygon fill="white" stroke="#bfbfbf" points="0,-73 0,-92 38,-92 38,-73 0,-73"/>
<text text-anchor="middle" x="19" y="-80" font-family="Helvetica,sans-Serif" font-size="10.00">map</text>
</a>
</g>
</g>
<!-- Node19&#45;&gt;Node21 -->
<g id="edge21" class="edge">
<title>Node19&#45;&gt;Node21</title>
<path fill="none" stroke="midnightblue" d="M108.96,-134.48C91.72,-124.71 63.26,-108.58 42.97,-97.08"/>
<polygon fill="midnightblue" stroke="midnightblue" points="44.44,-93.89 34.02,-92.01 40.99,-99.98 44.44,-93.89"/>
</g>
<!-- Node22 -->
<g id="node22" class="node">
<title>Node22</title>
<g id="a_node22"><a xlink:title=" ">
<polygon fill="white" stroke="#bfbfbf" points="56.5,-73 56.5,-92 117.5,-92 117.5,-73 56.5,-73"/>
<text text-anchor="middle" x="87" y="-80" font-family="Helvetica,sans-Serif" font-size="10.00">TGraph.h</text>
</a>
</g>
</g>
<!-- Node19&#45;&gt;Node22 -->
<g id="edge22" class="edge">
<title>Node19&#45;&gt;Node22</title>
<path fill="none" stroke="midnightblue" d="M118.7,-134.48C113.26,-125.73 104.64,-111.87 97.76,-100.81"/>
<polygon fill="midnightblue" stroke="midnightblue" points="100.54,-98.65 92.29,-92.01 94.6,-102.35 100.54,-98.65"/>
</g>
<!-- Node23 -->
<g id="node23" class="node">
<title>Node23</title>
<g id="a_node23"><a xlink:title=" ">
<polygon fill="white" stroke="#bfbfbf" points="135.5,-73 135.5,-92 188.5,-92 188.5,-73 135.5,-73"/>
<text text-anchor="middle" x="162" y="-80" font-family="Helvetica,sans-Serif" font-size="10.00">TH2D.h</text>
</a>
</g>
</g>
<!-- Node19&#45;&gt;Node23 -->
<g id="edge23" class="edge">
<title>Node19&#45;&gt;Node23</title>
<path fill="none" stroke="midnightblue" d="M129.44,-134.48C135.09,-125.64 144.06,-111.59 151.16,-100.48"/>
<polygon fill="midnightblue" stroke="midnightblue" points="154.13,-102.32 156.57,-92.01 148.23,-98.55 154.13,-102.32"/>
</g>
<!-- Node24&#45;&gt;Node11 -->
<g id="edge28" class="edge">
<title>Node24&#45;&gt;Node11</title>
<path fill="none" stroke="midnightblue" d="M432.58,-190.19C436.8,-176.87 446.25,-151.33 461,-134 473.99,-118.74 492.61,-105.96 507.8,-97.07"/>
<polygon fill="midnightblue" stroke="midnightblue" points="509.73,-100 516.73,-92.05 506.3,-93.9 509.73,-100"/>
</g>
<!-- Node24&#45;&gt;Node19 -->
<g id="edge27" class="edge">
<title>Node24&#45;&gt;Node19</title>
<path fill="none" stroke="midnightblue" d="M381.51,-190.44C327.46,-180.9 240.07,-165.48 182.33,-155.29"/>
<polygon fill="midnightblue" stroke="midnightblue" points="182.72,-151.81 172.26,-153.52 181.5,-158.7 182.72,-151.81"/>
</g>
<!-- Node25 -->
<g id="node25" class="node">
<title>Node25</title>
<g id="a_node25"><a xlink:title=" ">
<polygon fill="white" stroke="#bfbfbf" points="210,-134.5 210,-153.5 348,-153.5 348,-134.5 210,-134.5"/>
<text text-anchor="middle" x="279" y="-141.5" font-family="Helvetica,sans-Serif" font-size="10.00">G4VSensitiveDetector.hh</text>
</a>
</g>
</g>
<!-- Node24&#45;&gt;Node25 -->
<g id="edge25" class="edge">
<title>Node24&#45;&gt;Node25</title>
<path fill="none" stroke="midnightblue" d="M406.07,-190.44C380.78,-181.4 340.7,-167.06 312.32,-156.92"/>
<polygon fill="midnightblue" stroke="midnightblue" points="313.41,-153.59 302.81,-153.52 311.05,-160.18 313.41,-153.59"/>
</g>
<!-- Node24&#45;&gt;Node26 -->
<g id="edge26" class="edge">
<title>Node24&#45;&gt;Node26</title>
<path fill="none" stroke="midnightblue" d="M444.78,-190.32C459.27,-181.82 481.57,-168.73 498.49,-158.8"/>
<polygon fill="midnightblue" stroke="midnightblue" points="500.4,-161.74 507.26,-153.65 496.86,-155.7 500.4,-161.74"/>
</g>
<!-- Node27 -->
<g id="node27" class="node">
<title>Node27</title>
<g id="a_node27"><a xlink:title=" ">
<polygon fill="white" stroke="#bfbfbf" points="366.5,-134.5 366.5,-153.5 413.5,-153.5 413.5,-134.5 366.5,-134.5"/>
<text text-anchor="middle" x="390" y="-141.5" font-family="Helvetica,sans-Serif" font-size="10.00">vector</text>
</a>
</g>
</g>
<!-- Node24&#45;&gt;Node27 -->
<g id="edge29" class="edge">
<title>Node24&#45;&gt;Node27</title>
<path fill="none" stroke="midnightblue" d="M423.39,-190.08C417.74,-182.46 409.46,-171.26 402.55,-161.94"/>
<polygon fill="midnightblue" stroke="midnightblue" points="405.25,-159.7 396.48,-153.75 399.62,-163.87 405.25,-159.7"/>
</g>
<!-- Node29&#45;&gt;Node4 -->
<g id="edge33" class="edge">
<title>Node29&#45;&gt;Node4</title>
<path fill="none" stroke="midnightblue" d="M361.76,-246.71C450.42,-236.88 597.81,-220.54 690.24,-210.29"/>
<polygon fill="midnightblue" stroke="midnightblue" points="690.84,-213.74 700.4,-209.16 690.07,-206.78 690.84,-213.74"/>
</g>
<!-- Node29&#45;&gt;Node19 -->
<g id="edge35" class="edge">
<title>Node29&#45;&gt;Node19</title>
<path fill="none" stroke="midnightblue" d="M286.78,-246.12C285.95,-232.25 282.31,-205.41 267,-190 249.43,-172.31 224.98,-161.56 201.26,-155.03"/>
<polygon fill="midnightblue" stroke="midnightblue" points="202.08,-151.63 191.52,-152.57 200.36,-158.41 202.08,-151.63"/>
</g>
<!-- Node29&#45;&gt;Node29 -->
<g id="edge34" class="edge">
<title>Node29&#45;&gt;Node29</title>
<path fill="none" stroke="midnightblue" d="M326.45,-265.53C353.26,-268.31 379.5,-265.13 379.5,-256 379.5,-248.01 359.41,-244.58 336.43,-245.71"/>
<polygon fill="midnightblue" stroke="midnightblue" points="336.15,-242.22 326.45,-246.47 336.69,-249.2 336.15,-242.22"/>
</g>
<!-- Node30 -->
<g id="node30" class="node">
<title>Node30</title>
<g id="a_node30"><a xlink:title=" ">
<polygon fill="white" stroke="#bfbfbf" points="75,-190.5 75,-209.5 173,-209.5 173,-190.5 75,-190.5"/>
<text text-anchor="middle" x="124" y="-197.5" font-family="Helvetica,sans-Serif" font-size="10.00">G4UnionSolid.hh</text>
</a>
</g>
</g>
<!-- Node29&#45;&gt;Node30 -->
<g id="edge36" class="edge">
<title>Node29&#45;&gt;Node30</title>
<path fill="none" stroke="midnightblue" d="M261.17,-246.44C233.75,-237.36 190.22,-222.94 159.57,-212.78"/>
<polygon fill="midnightblue" stroke="midnightblue" points="160.3,-209.34 149.71,-209.52 158.1,-215.98 160.3,-209.34"/>
</g>
<!-- Node31 -->
<g id="node31" class="node">
<title>Node31</title>
<g id="a_node31"><a xlink:title=" ">
<polygon fill="white" stroke="#bfbfbf" points="191.5,-190.5 191.5,-209.5 258.5,-209.5 258.5,-190.5 191.5,-190.5"/>
<text text-anchor="middle" x="225" y="-197.5" font-family="Helvetica,sans-Serif" font-size="10.00">G4Tubs.hh</text>
</a>
</g>
</g>
<!-- Node29&#45;&gt;Node31 -->
<g id="edge37" class="edge">
<title>Node29&#45;&gt;Node31</title>
<path fill="none" stroke="midnightblue" d="M277.04,-246.32C267.87,-238.34 254.06,-226.31 242.97,-216.65"/>
<polygon fill="midnightblue" stroke="midnightblue" points="244.98,-213.76 235.14,-209.83 240.38,-219.04 244.98,-213.76"/>
</g>
<!-- Node34 -->
<g id="node34" class="node">
<title>Node34</title>
<g id="a_node34"><a xlink:href="_o_m_sim_command_args_table_8hh.html" target="_top" xlink:title="Definition of the OMSimCommandArgsTable singleton class, which controls user args.">
<polygon fill="white" stroke="black" points="1496,-246.5 1496,-265.5 1660,-265.5 1660,-246.5 1496,-246.5"/>
<text text-anchor="middle" x="1578" y="-253.5" font-family="Helvetica,sans-Serif" font-size="10.00">OMSimCommandArgsTable.hh</text>
</a>
</g>
</g>
<!-- Node33&#45;&gt;Node34 -->
<g id="edge41" class="edge">
<title>Node33&#45;&gt;Node34</title>
<path fill="none" stroke="midnightblue" d="M1462.71,-302.44C1485.35,-293.52 1521.07,-279.44 1546.75,-269.32"/>
<polygon fill="midnightblue" stroke="midnightblue" points="1548.37,-272.44 1556.39,-265.52 1545.81,-265.93 1548.37,-272.44"/>
</g>
<!-- Node37 -->
<g id="node37" class="node">
<title>Node37</title>
<g id="a_node37"><a xlink:title=" ">
<polygon fill="white" stroke="#bfbfbf" points="1380,-246.5 1380,-265.5 1478,-265.5 1478,-246.5 1380,-246.5"/>
<text text-anchor="middle" x="1429" y="-253.5" font-family="Helvetica,sans-Serif" font-size="10.00">G4UImanager.hh</text>
</a>
</g>
</g>
<!-- Node33&#45;&gt;Node37 -->
<g id="edge46" class="edge">
<title>Node33&#45;&gt;Node37</title>
<path fill="none" stroke="midnightblue" d="M1439.02,-302.08C1437.43,-294.93 1435.14,-284.64 1433.15,-275.69"/>
<polygon fill="midnightblue" stroke="midnightblue" points="1436.53,-274.75 1430.94,-265.75 1429.7,-276.27 1436.53,-274.75"/>
</g>
<!-- Node34&#45;&gt;Node6 -->
<g id="edge42" class="edge">
<title>Node34&#45;&gt;Node6</title>
<path fill="none" stroke="midnightblue" d="M1588.52,-246.29C1602.63,-233.53 1624.53,-209.2 1612,-190 1571.89,-128.53 1487.48,-102.3 1429.75,-91.27"/>
<polygon fill="midnightblue" stroke="midnightblue" points="1430.12,-87.78 1419.65,-89.44 1428.87,-94.67 1430.12,-87.78"/>
</g>
<!-- Node34&#45;&gt;Node28 -->
<g id="edge43" class="edge">
<title>Node34&#45;&gt;Node28</title>
<path fill="none" stroke="midnightblue" d="M1536.17,-246.44C1485.4,-236.06 1400.55,-218.7 1351.72,-208.71"/>
<polygon fill="midnightblue" stroke="midnightblue" points="1352.37,-205.28 1341.87,-206.7 1350.96,-212.13 1352.37,-205.28"/>
</g>
<!-- Node35 -->
<g id="node35" class="node">
<title>Node35</title>
<g id="a_node35"><a xlink:title=" ">
<polygon fill="white" stroke="#bfbfbf" points="1519,-190.5 1519,-209.5 1603,-209.5 1603,-190.5 1519,-190.5"/>
<text text-anchor="middle" x="1561" y="-197.5" font-family="Helvetica,sans-Serif" font-size="10.00">boost/any.hpp</text>
</a>
</g>
</g>
<!-- Node34&#45;&gt;Node35 -->
<g id="edge44" class="edge">
<title>Node34&#45;&gt;Node35</title>
<path fill="none" stroke="midnightblue" d="M1575.19,-246.08C1572.92,-238.85 1569.63,-228.41 1566.79,-219.4"/>
<polygon fill="midnightblue" stroke="midnightblue" points="1570.1,-218.24 1563.75,-209.75 1563.42,-220.34 1570.1,-218.24"/>
</g>
<!-- Node36 -->
<g id="node36" class="node">
<title>Node36</title>
<g id="a_node36"><a xlink:title=" ">
<polygon fill="white" stroke="#bfbfbf" points="1433,-190.5 1433,-209.5 1501,-209.5 1501,-190.5 1433,-190.5"/>
<text text-anchor="middle" x="1467" y="-197.5" font-family="Helvetica,sans-Serif" font-size="10.00">sys/time.h</text>
</a>
</g>
</g>
<!-- Node34&#45;&gt;Node36 -->
<g id="edge45" class="edge">
<title>Node34&#45;&gt;Node36</title>
<path fill="none" stroke="midnightblue" d="M1560.17,-246.32C1542.28,-237.62 1514.52,-224.12 1493.95,-214.11"/>
<polygon fill="midnightblue" stroke="midnightblue" points="1495.31,-210.88 1484.79,-209.65 1492.25,-217.18 1495.31,-210.88"/>
</g>
</g>
</svg>
