<?xml version="1.0" encoding="UTF-8" standalone="no"?>
<!DOCTYPE svg PUBLIC "-//W3C//DTD SVG 1.1//EN"
 "http://www.w3.org/Graphics/SVG/1.1/DTD/svg11.dtd">
<!-- Generated by graphviz version 2.43.0 (0)
 -->
<!-- Title: OMSimSNParticleGenerators.cc Pages: 1 -->
<svg width="1348pt" height="274pt"
 viewBox="0.00 0.00 1348.00 274.00" xmlns="http://www.w3.org/2000/svg" xmlns:xlink="http://www.w3.org/1999/xlink">
<g id="graph0" class="graph" transform="scale(1 1) rotate(0) translate(4 270)">
<title>OMSimSNParticleGenerators.cc</title>
<polygon fill="white" stroke="transparent" points="-4,4 -4,-270 1344,-270 1344,4 -4,4"/>
<!-- Node1 -->
<g id="node1" class="node">
<title>Node1</title>
<g id="a_node1"><a xlink:title=" ">
<polygon fill="#bfbfbf" stroke="black" points="634,-246.5 634,-265.5 803,-265.5 803,-246.5 634,-246.5"/>
<text text-anchor="middle" x="718.5" y="-253.5" font-family="Helvetica,sans-Serif" font-size="10.00">OMSimSNParticleGenerators.cc</text>
</a>
</g>
</g>
<!-- Node2 -->
<g id="node2" class="node">
<title>Node2</title>
<g id="a_node2"><a xlink:title=" ">
<polygon fill="white" stroke="#bfbfbf" points="151,-190.5 151,-209.5 336,-209.5 336,-190.5 151,-190.5"/>
<text text-anchor="middle" x="243.5" y="-197.5" font-family="Helvetica,sans-Serif" font-size="10.00">OMSimPrimaryGeneratorAction.hh</text>
</a>
</g>
</g>
<!-- Node1&#45;&gt;Node2 -->
<g id="edge1" class="edge">
<title>Node1&#45;&gt;Node2</title>
<path fill="none" stroke="midnightblue" d="M643.5,-246.47C557.91,-236.74 418.23,-220.86 328.63,-210.68"/>
<polygon fill="midnightblue" stroke="midnightblue" points="328.83,-207.18 318.5,-209.53 328.04,-214.13 328.83,-207.18"/>
</g>
<!-- Node3 -->
<g id="node3" class="node">
<title>Node3</title>
<g id="a_node3"><a xlink:href="_o_m_sim_s_n_analysis_8hh.html" target="_top" xlink:title=" ">
<polygon fill="white" stroke="black" points="354.5,-190.5 354.5,-209.5 476.5,-209.5 476.5,-190.5 354.5,-190.5"/>
<text text-anchor="middle" x="415.5" y="-197.5" font-family="Helvetica,sans-Serif" font-size="10.00">OMSimSNAnalysis.hh</text>
</a>
</g>
</g>
<!-- Node1&#45;&gt;Node3 -->
<g id="edge2" class="edge">
<title>Node1&#45;&gt;Node3</title>
<path fill="none" stroke="midnightblue" d="M670.49,-246.44C616.97,-236.9 530.43,-221.48 473.26,-211.29"/>
<polygon fill="midnightblue" stroke="midnightblue" points="473.75,-207.83 463.29,-209.52 472.52,-214.72 473.75,-207.83"/>
</g>
<!-- Node18 -->
<g id="node18" class="node">
<title>Node18</title>
<g id="a_node18"><a xlink:href="_o_m_sim_command_args_table_8hh.html" target="_top" xlink:title="Definition of the OMSimCommandArgsTable singleton class, which controls user args.">
<polygon fill="white" stroke="black" points="561.5,-190.5 561.5,-209.5 725.5,-209.5 725.5,-190.5 561.5,-190.5"/>
<text text-anchor="middle" x="643.5" y="-197.5" font-family="Helvetica,sans-Serif" font-size="10.00">OMSimCommandArgsTable.hh</text>
</a>
</g>
</g>
<!-- Node1&#45;&gt;Node18 -->
<g id="edge20" class="edge">
<title>Node1&#45;&gt;Node18</title>
<path fill="none" stroke="midnightblue" d="M706.45,-246.32C695.04,-238.11 677.67,-225.6 664.07,-215.81"/>
<polygon fill="midnightblue" stroke="midnightblue" points="665.93,-212.84 655.77,-209.83 661.84,-218.52 665.93,-212.84"/>
</g>
<!-- Node26 -->
<g id="node26" class="node">
<title>Node26</title>
<g id="a_node26"><a xlink:title=" ">
<polygon fill="white" stroke="#bfbfbf" points="744,-190.5 744,-209.5 845,-209.5 845,-190.5 744,-190.5"/>
<text text-anchor="middle" x="794.5" y="-197.5" font-family="Helvetica,sans-Serif" font-size="10.00">G4ParticleGun.hh</text>
</a>
</g>
</g>
<!-- Node1&#45;&gt;Node26 -->
<g id="edge29" class="edge">
<title>Node1&#45;&gt;Node26</title>
<path fill="none" stroke="midnightblue" d="M730.71,-246.32C742.28,-238.11 759.88,-225.6 773.66,-215.81"/>
<polygon fill="midnightblue" stroke="midnightblue" points="775.94,-218.48 782.07,-209.83 771.89,-212.77 775.94,-218.48"/>
</g>
<!-- Node27 -->
<g id="node27" class="node">
<title>Node27</title>
<g id="a_node27"><a xlink:title=" ">
<polygon fill="white" stroke="#bfbfbf" points="863,-190.5 863,-209.5 970,-209.5 970,-190.5 863,-190.5"/>
<text text-anchor="middle" x="916.5" y="-197.5" font-family="Helvetica,sans-Serif" font-size="10.00">G4ParticleTable.hh</text>
</a>
</g>
</g>
<!-- Node1&#45;&gt;Node27 -->
<g id="edge30" class="edge">
<title>Node1&#45;&gt;Node27</title>
<path fill="none" stroke="midnightblue" d="M749.87,-246.44C783.76,-237.2 837.9,-222.44 875.22,-212.26"/>
<polygon fill="midnightblue" stroke="midnightblue" points="876.55,-215.52 885.27,-209.52 874.7,-208.77 876.55,-215.52"/>
</g>
<!-- Node28 -->
<g id="node28" class="node">
<title>Node28</title>
<g id="a_node28"><a xlink:href="_o_m_sim_input_data_8hh.html" target="_top" xlink:title="Definition of ParameterTable and InputDataManager.">
<polygon fill="white" stroke="black" points="988,-190.5 988,-209.5 1103,-209.5 1103,-190.5 988,-190.5"/>
<text text-anchor="middle" x="1045.5" y="-197.5" font-family="Helvetica,sans-Serif" font-size="10.00">OMSimInputData.hh</text>
</a>
</g>
</g>
<!-- Node1&#45;&gt;Node28 -->
<g id="edge31" class="edge">
<title>Node1&#45;&gt;Node28</title>
<path fill="none" stroke="midnightblue" d="M770.31,-246.44C828.32,-236.87 922.24,-221.36 983.94,-211.17"/>
<polygon fill="midnightblue" stroke="midnightblue" points="984.63,-214.6 993.93,-209.52 983.49,-207.69 984.63,-214.6"/>
</g>
<!-- Node4 -->
<g id="node4" class="node">
<title>Node4</title>
<g id="a_node4"><a xlink:title=" ">
<polygon fill="white" stroke="#bfbfbf" points="0,-0.5 0,-19.5 73,-19.5 73,-0.5 0,-0.5"/>
<text text-anchor="middle" x="36.5" y="-7.5" font-family="Helvetica,sans-Serif" font-size="10.00">G4Types.hh</text>
</a>
</g>
</g>
<!-- Node3&#45;&gt;Node4 -->
<g id="edge3" class="edge">
<title>Node3&#45;&gt;Node4</title>
<path fill="none" stroke="midnightblue" d="M354.18,-190.86C275.22,-180.17 145.58,-161.85 124.5,-154 71.92,-134.42 44.68,-136.09 17.5,-87 7.24,-68.48 16.49,-44.37 25.31,-28.33"/>
<polygon fill="midnightblue" stroke="midnightblue" points="28.46,-29.89 30.57,-19.5 22.44,-26.3 28.46,-29.89"/>
</g>
<!-- Node5 -->
<g id="node5" class="node">
<title>Node5</title>
<g id="a_node5"><a xlink:title=" ">
<polygon fill="white" stroke="#bfbfbf" points="133.5,-129 133.5,-148 207.5,-148 207.5,-129 133.5,-129"/>
<text text-anchor="middle" x="170.5" y="-136" font-family="Helvetica,sans-Serif" font-size="10.00">G4String.hh</text>
</a>
</g>
</g>
<!-- Node3&#45;&gt;Node5 -->
<g id="edge4" class="edge">
<title>Node3&#45;&gt;Node5</title>
<path fill="none" stroke="midnightblue" d="M375.98,-190.43C336.68,-181.77 274.73,-167.73 221.5,-154 217.6,-152.99 213.54,-151.91 209.5,-150.8"/>
<polygon fill="midnightblue" stroke="midnightblue" points="210.13,-147.34 199.56,-148.03 208.25,-154.09 210.13,-147.34"/>
</g>
<!-- Node6 -->
<g id="node6" class="node">
<title>Node6</title>
<g id="a_node6"><a xlink:title=" ">
<polygon fill="white" stroke="#bfbfbf" points="27,-62 27,-81 130,-81 130,-62 27,-62"/>
<text text-anchor="middle" x="78.5" y="-69" font-family="Helvetica,sans-Serif" font-size="10.00">G4ThreeVector.hh</text>
</a>
</g>
</g>
<!-- Node3&#45;&gt;Node6 -->
<g id="edge5" class="edge">
<title>Node3&#45;&gt;Node6</title>
<path fill="none" stroke="midnightblue" d="M366.38,-190.46C333.73,-183.54 290.57,-171.94 255.5,-154 235.79,-143.92 235.81,-133.83 216.5,-123 185.98,-105.88 148.55,-92.61 120.38,-83.98"/>
<polygon fill="midnightblue" stroke="midnightblue" points="121.03,-80.52 110.45,-81.01 119.02,-87.23 121.03,-80.52"/>
</g>
<!-- Node7 -->
<g id="node7" class="node">
<title>Node7</title>
<g id="a_node7"><a xlink:href="_o_m_sim_hit_manager_8hh.html" target="_top" xlink:title="Defines structures and classes related to optical module photon hit management.">
<polygon fill="white" stroke="black" points="264,-129 264,-148 387,-148 387,-129 264,-129"/>
<text text-anchor="middle" x="325.5" y="-136" font-family="Helvetica,sans-Serif" font-size="10.00">OMSimHitManager.hh</text>
</a>
</g>
</g>
<!-- Node3&#45;&gt;Node7 -->
<g id="edge6" class="edge">
<title>Node3&#45;&gt;Node7</title>
<path fill="none" stroke="midnightblue" d="M402.61,-190.48C388.04,-180.84 364.1,-165.02 346.75,-153.55"/>
<polygon fill="midnightblue" stroke="midnightblue" points="348.64,-150.6 338.37,-148.01 344.78,-156.44 348.64,-150.6"/>
</g>
<!-- Node13 -->
<g id="node13" class="node">
<title>Node13</title>
<g id="a_node13"><a xlink:title=" ">
<polygon fill="white" stroke="#bfbfbf" points="522,-62 522,-81 577,-81 577,-62 522,-62"/>
<text text-anchor="middle" x="549.5" y="-69" font-family="Helvetica,sans-Serif" font-size="10.00">fstream</text>
</a>
</g>
</g>
<!-- Node3&#45;&gt;Node13 -->
<g id="edge18" class="edge">
<title>Node3&#45;&gt;Node13</title>
<path fill="none" stroke="midnightblue" d="M415.45,-190.39C415.82,-175.04 418.69,-142.73 435.5,-123 441.26,-116.24 486.44,-97.41 518.16,-84.75"/>
<polygon fill="midnightblue" stroke="midnightblue" points="519.51,-87.98 527.51,-81.04 516.93,-81.48 519.51,-87.98"/>
</g>
<!-- Node16 -->
<g id="node16" class="node">
<title>Node16</title>
<g id="a_node16"><a xlink:title=" ">
<polygon fill="white" stroke="#bfbfbf" points="444,-129 444,-148 491,-148 491,-129 444,-129"/>
<text text-anchor="middle" x="467.5" y="-136" font-family="Helvetica,sans-Serif" font-size="10.00">vector</text>
</a>
</g>
</g>
<!-- Node3&#45;&gt;Node16 -->
<g id="edge17" class="edge">
<title>Node3&#45;&gt;Node16</title>
<path fill="none" stroke="midnightblue" d="M422.95,-190.48C430.83,-181.46 443.44,-167.02 453.24,-155.81"/>
<polygon fill="midnightblue" stroke="midnightblue" points="456.12,-157.84 460.06,-148.01 450.85,-153.24 456.12,-157.84"/>
</g>
<!-- Node17 -->
<g id="node17" class="node">
<title>Node17</title>
<g id="a_node17"><a xlink:title=" ">
<polygon fill="white" stroke="#bfbfbf" points="509,-129 509,-148 550,-148 550,-129 509,-129"/>
<text text-anchor="middle" x="529.5" y="-136" font-family="Helvetica,sans-Serif" font-size="10.00">tuple</text>
</a>
</g>
</g>
<!-- Node3&#45;&gt;Node17 -->
<g id="edge19" class="edge">
<title>Node3&#45;&gt;Node17</title>
<path fill="none" stroke="midnightblue" d="M431.83,-190.48C450.71,-180.62 482.01,-164.29 504.08,-152.77"/>
<polygon fill="midnightblue" stroke="midnightblue" points="505.95,-155.74 513.2,-148.01 502.71,-149.53 505.95,-155.74"/>
</g>
<!-- Node7&#45;&gt;Node6 -->
<g id="edge13" class="edge">
<title>Node7&#45;&gt;Node6</title>
<path fill="none" stroke="midnightblue" d="M292.96,-128.94C248.81,-117.32 169.86,-96.54 121.05,-83.7"/>
<polygon fill="midnightblue" stroke="midnightblue" points="121.68,-80.24 111.12,-81.08 119.9,-87.01 121.68,-80.24"/>
</g>
<!-- Node8 -->
<g id="node8" class="node">
<title>Node8</title>
<g id="a_node8"><a xlink:href="_o_m_sim_p_m_t_response_8hh.html" target="_top" xlink:title="Simulation of PMT response.">
<polygon fill="white" stroke="black" points="148,-62 148,-81 283,-81 283,-62 148,-62"/>
<text text-anchor="middle" x="215.5" y="-69" font-family="Helvetica,sans-Serif" font-size="10.00">OMSimPMTResponse.hh</text>
</a>
</g>
</g>
<!-- Node7&#45;&gt;Node8 -->
<g id="edge7" class="edge">
<title>Node7&#45;&gt;Node8</title>
<path fill="none" stroke="midnightblue" d="M310.66,-128.73C292.19,-117.82 260.43,-99.05 238.72,-86.22"/>
<polygon fill="midnightblue" stroke="midnightblue" points="240.49,-83.2 230.1,-81.13 236.93,-89.23 240.49,-83.2"/>
</g>
<!-- Node7&#45;&gt;Node13 -->
<g id="edge14" class="edge">
<title>Node7&#45;&gt;Node13</title>
<path fill="none" stroke="midnightblue" d="M361.7,-128.98C399.62,-119.76 460.76,-104.07 512.5,-87 514.77,-86.25 517.1,-85.44 519.43,-84.6"/>
<polygon fill="midnightblue" stroke="midnightblue" points="520.78,-87.83 528.9,-81.03 518.31,-81.28 520.78,-87.83"/>
</g>
<!-- Node14 -->
<g id="node14" class="node">
<title>Node14</title>
<g id="a_node14"><a xlink:title=" ">
<polygon fill="white" stroke="#bfbfbf" points="301.5,-62 301.5,-81 391.5,-81 391.5,-62 301.5,-62"/>
<text text-anchor="middle" x="346.5" y="-69" font-family="Helvetica,sans-Serif" font-size="10.00">G4AutoLock.hh</text>
</a>
</g>
</g>
<!-- Node7&#45;&gt;Node14 -->
<g id="edge15" class="edge">
<title>Node7&#45;&gt;Node14</title>
<path fill="none" stroke="midnightblue" d="M328.33,-128.73C331.45,-119.09 336.55,-103.3 340.55,-90.91"/>
<polygon fill="midnightblue" stroke="midnightblue" points="343.97,-91.72 343.71,-81.13 337.31,-89.57 343.97,-91.72"/>
</g>
<!-- Node15 -->
<g id="node15" class="node">
<title>Node15</title>
<g id="a_node15"><a xlink:title=" ">
<polygon fill="white" stroke="#bfbfbf" points="409.5,-62 409.5,-81 503.5,-81 503.5,-62 409.5,-62"/>
<text text-anchor="middle" x="456.5" y="-69" font-family="Helvetica,sans-Serif" font-size="10.00">G4Threading.hh</text>
</a>
</g>
</g>
<!-- Node7&#45;&gt;Node15 -->
<g id="edge16" class="edge">
<title>Node7&#45;&gt;Node15</title>
<path fill="none" stroke="midnightblue" d="M342.9,-128.87C365.11,-117.84 403.79,-98.66 429.76,-85.77"/>
<polygon fill="midnightblue" stroke="midnightblue" points="431.63,-88.75 439.03,-81.17 428.52,-82.48 431.63,-88.75"/>
</g>
<!-- Node8&#45;&gt;Node4 -->
<g id="edge9" class="edge">
<title>Node8&#45;&gt;Node4</title>
<path fill="none" stroke="midnightblue" d="M189.85,-61.98C158.88,-51.68 106.63,-34.31 71.85,-22.75"/>
<polygon fill="midnightblue" stroke="midnightblue" points="72.69,-19.34 62.1,-19.51 70.48,-25.98 72.69,-19.34"/>
</g>
<!-- Node9 -->
<g id="node9" class="node">
<title>Node9</title>
<g id="a_node9"><a xlink:title=" ">
<polygon fill="white" stroke="#bfbfbf" points="656,-0.5 656,-19.5 775,-19.5 775,-0.5 656,-0.5"/>
<text text-anchor="middle" x="715.5" y="-7.5" font-family="Helvetica,sans-Serif" font-size="10.00">G4SystemOfUnits.hh</text>
</a>
</g>
</g>
<!-- Node8&#45;&gt;Node9 -->
<g id="edge8" class="edge">
<title>Node8&#45;&gt;Node9</title>
<path fill="none" stroke="midnightblue" d="M257.36,-61.99C268.73,-59.85 281.06,-57.68 292.5,-56 416.3,-37.79 561.52,-23.97 645.57,-16.71"/>
<polygon fill="midnightblue" stroke="midnightblue" points="646.1,-20.18 655.77,-15.84 645.5,-13.2 646.1,-20.18"/>
</g>
<!-- Node10 -->
<g id="node10" class="node">
<title>Node10</title>
<g id="a_node10"><a xlink:title=" ">
<polygon fill="white" stroke="#bfbfbf" points="128.5,-0.5 128.5,-19.5 166.5,-19.5 166.5,-0.5 128.5,-0.5"/>
<text text-anchor="middle" x="147.5" y="-7.5" font-family="Helvetica,sans-Serif" font-size="10.00">map</text>
</a>
</g>
</g>
<!-- Node8&#45;&gt;Node10 -->
<g id="edge10" class="edge">
<title>Node8&#45;&gt;Node10</title>
<path fill="none" stroke="midnightblue" d="M205.76,-61.98C195.15,-52.7 177.98,-37.67 165.02,-26.33"/>
<polygon fill="midnightblue" stroke="midnightblue" points="167.06,-23.46 157.22,-19.51 162.45,-28.73 167.06,-23.46"/>
</g>
<!-- Node11 -->
<g id="node11" class="node">
<title>Node11</title>
<g id="a_node11"><a xlink:title=" ">
<polygon fill="white" stroke="#bfbfbf" points="185,-0.5 185,-19.5 246,-19.5 246,-0.5 185,-0.5"/>
<text text-anchor="middle" x="215.5" y="-7.5" font-family="Helvetica,sans-Serif" font-size="10.00">TGraph.h</text>
</a>
</g>
</g>
<!-- Node8&#45;&gt;Node11 -->
<g id="edge11" class="edge">
<title>Node8&#45;&gt;Node11</title>
<path fill="none" stroke="midnightblue" d="M215.5,-61.98C215.5,-53.58 215.5,-40.48 215.5,-29.66"/>
<polygon fill="midnightblue" stroke="midnightblue" points="219,-29.51 215.5,-19.51 212,-29.51 219,-29.51"/>
</g>
<!-- Node12 -->
<g id="node12" class="node">
<title>Node12</title>
<g id="a_node12"><a xlink:title=" ">
<polygon fill="white" stroke="#bfbfbf" points="264,-0.5 264,-19.5 317,-19.5 317,-0.5 264,-0.5"/>
<text text-anchor="middle" x="290.5" y="-7.5" font-family="Helvetica,sans-Serif" font-size="10.00">TH2D.h</text>
</a>
</g>
</g>
<!-- Node8&#45;&gt;Node12 -->
<g id="edge12" class="edge">
<title>Node8&#45;&gt;Node12</title>
<path fill="none" stroke="midnightblue" d="M226.25,-61.98C238.05,-52.61 257.24,-37.38 271.58,-26.01"/>
<polygon fill="midnightblue" stroke="midnightblue" points="274.12,-28.47 279.77,-19.51 269.76,-22.98 274.12,-28.47"/>
</g>
<!-- Node18&#45;&gt;Node13 -->
<g id="edge26" class="edge">
<title>Node18&#45;&gt;Node13</title>
<path fill="none" stroke="midnightblue" d="M633.22,-190.38C623.35,-181.78 608.38,-167.9 597.5,-154 581.57,-133.66 567.09,-107.53 558.29,-90.42"/>
<polygon fill="midnightblue" stroke="midnightblue" points="561.21,-88.42 553.59,-81.06 554.95,-91.57 561.21,-88.42"/>
</g>
<!-- Node19 -->
<g id="node19" class="node">
<title>Node19</title>
<g id="a_node19"><a xlink:href="_o_m_sim_logger_8hh.html" target="_top" xlink:title=" ">
<polygon fill="white" stroke="black" points="799,-129 799,-148 898,-148 898,-129 799,-129"/>
<text text-anchor="middle" x="848.5" y="-136" font-family="Helvetica,sans-Serif" font-size="10.00">OMSimLogger.hh</text>
</a>
</g>
</g>
<!-- Node18&#45;&gt;Node19 -->
<g id="edge21" class="edge">
<title>Node18&#45;&gt;Node19</title>
<path fill="none" stroke="midnightblue" d="M672.87,-190.48C708.8,-180.05 769.73,-162.36 809.54,-150.81"/>
<polygon fill="midnightblue" stroke="midnightblue" points="810.55,-154.16 819.18,-148.01 808.6,-147.44 810.55,-154.16"/>
</g>
<!-- Node24 -->
<g id="node24" class="node">
<title>Node24</title>
<g id="a_node24"><a xlink:title=" ">
<polygon fill="white" stroke="#bfbfbf" points="606.5,-129 606.5,-148 690.5,-148 690.5,-129 606.5,-129"/>
<text text-anchor="middle" x="648.5" y="-136" font-family="Helvetica,sans-Serif" font-size="10.00">boost/any.hpp</text>
</a>
</g>
</g>
<!-- Node18&#45;&gt;Node24 -->
<g id="edge27" class="edge">
<title>Node18&#45;&gt;Node24</title>
<path fill="none" stroke="midnightblue" d="M644.22,-190.48C644.92,-182.08 646.02,-168.98 646.93,-158.16"/>
<polygon fill="midnightblue" stroke="midnightblue" points="650.44,-158.27 647.78,-148.01 643.46,-157.68 650.44,-158.27"/>
</g>
<!-- Node25 -->
<g id="node25" class="node">
<title>Node25</title>
<g id="a_node25"><a xlink:title=" ">
<polygon fill="white" stroke="#bfbfbf" points="708.5,-129 708.5,-148 776.5,-148 776.5,-129 708.5,-129"/>
<text text-anchor="middle" x="742.5" y="-136" font-family="Helvetica,sans-Serif" font-size="10.00">sys/time.h</text>
</a>
</g>
</g>
<!-- Node18&#45;&gt;Node25 -->
<g id="edge28" class="edge">
<title>Node18&#45;&gt;Node25</title>
<path fill="none" stroke="midnightblue" d="M657.68,-190.48C673.86,-180.75 700.53,-164.73 719.64,-153.24"/>
<polygon fill="midnightblue" stroke="midnightblue" points="721.57,-156.16 728.34,-148.01 717.97,-150.16 721.57,-156.16"/>
</g>
<!-- Node20 -->
<g id="node20" class="node">
<title>Node20</title>
<g id="a_node20"><a xlink:title=" ">
<polygon fill="white" stroke="#bfbfbf" points="595,-62 595,-81 688,-81 688,-62 595,-62"/>
<text text-anchor="middle" x="641.5" y="-69" font-family="Helvetica,sans-Serif" font-size="10.00">spdlog/spdlog.h</text>
</a>
</g>
</g>
<!-- Node19&#45;&gt;Node20 -->
<g id="edge22" class="edge">
<title>Node19&#45;&gt;Node20</title>
<path fill="none" stroke="midnightblue" d="M821.01,-128.87C784.33,-117.35 719.27,-96.92 678.37,-84.08"/>
<polygon fill="midnightblue" stroke="midnightblue" points="679.36,-80.72 668.77,-81.06 677.26,-87.4 679.36,-80.72"/>
</g>
<!-- Node21 -->
<g id="node21" class="node">
<title>Node21</title>
<g id="a_node21"><a xlink:title=" ">
<polygon fill="white" stroke="#bfbfbf" points="706,-56.5 706,-86.5 817,-86.5 817,-56.5 706,-56.5"/>
<text text-anchor="start" x="714" y="-74.5" font-family="Helvetica,sans-Serif" font-size="10.00">spdlog/sinks/stdout</text>
<text text-anchor="middle" x="761.5" y="-63.5" font-family="Helvetica,sans-Serif" font-size="10.00">_color_sinks.h</text>
</a>
</g>
</g>
<!-- Node19&#45;&gt;Node21 -->
<g id="edge23" class="edge">
<title>Node19&#45;&gt;Node21</title>
<path fill="none" stroke="midnightblue" d="M836.77,-128.73C824.44,-119.53 804.64,-104.73 788.44,-92.63"/>
<polygon fill="midnightblue" stroke="midnightblue" points="790.46,-89.77 780.36,-86.59 786.27,-95.38 790.46,-89.77"/>
</g>
<!-- Node22 -->
<g id="node22" class="node">
<title>Node22</title>
<g id="a_node22"><a xlink:title=" ">
<polygon fill="white" stroke="#bfbfbf" points="835.5,-62 835.5,-81 893.5,-81 893.5,-62 835.5,-62"/>
<text text-anchor="middle" x="864.5" y="-69" font-family="Helvetica,sans-Serif" font-size="10.00">memory</text>
</a>
</g>
</g>
<!-- Node19&#45;&gt;Node22 -->
<g id="edge24" class="edge">
<title>Node19&#45;&gt;Node22</title>
<path fill="none" stroke="midnightblue" d="M850.66,-128.73C853.03,-119.09 856.92,-103.3 859.97,-90.91"/>
<polygon fill="midnightblue" stroke="midnightblue" points="863.38,-91.67 862.38,-81.13 856.59,-90 863.38,-91.67"/>
</g>
<!-- Node23 -->
<g id="node23" class="node">
<title>Node23</title>
<g id="a_node23"><a xlink:title=" ">
<polygon fill="white" stroke="#bfbfbf" points="911.5,-62 911.5,-81 1009.5,-81 1009.5,-62 911.5,-62"/>
<text text-anchor="middle" x="960.5" y="-69" font-family="Helvetica,sans-Serif" font-size="10.00">spdlog/fmt/fmt.h</text>
</a>
</g>
</g>
<!-- Node19&#45;&gt;Node23 -->
<g id="edge25" class="edge">
<title>Node19&#45;&gt;Node23</title>
<path fill="none" stroke="midnightblue" d="M863.6,-128.73C882.41,-117.82 914.75,-99.05 936.86,-86.22"/>
<polygon fill="midnightblue" stroke="midnightblue" points="938.74,-89.17 945.63,-81.13 935.23,-83.12 938.74,-89.17"/>
</g>
<!-- Node28&#45;&gt;Node9 -->
<g id="edge34" class="edge">
<title>Node28&#45;&gt;Node9</title>
<path fill="none" stroke="midnightblue" d="M1046.9,-190.37C1050.41,-165.44 1056.74,-92.77 1018.5,-56 986.12,-24.87 864.55,-15.23 785.59,-12.27"/>
<polygon fill="midnightblue" stroke="midnightblue" points="785.34,-8.76 775.23,-11.91 785.1,-15.76 785.34,-8.76"/>
</g>
<!-- Node28&#45;&gt;Node19 -->
<g id="edge32" class="edge">
<title>Node28&#45;&gt;Node19</title>
<path fill="none" stroke="midnightblue" d="M1017.27,-190.48C982.9,-180.09 924.69,-162.51 886.42,-150.95"/>
<polygon fill="midnightblue" stroke="midnightblue" points="887.26,-147.55 876.67,-148.01 885.23,-154.25 887.26,-147.55"/>
</g>
<!-- Node29 -->
<g id="node29" class="node">
<title>Node29</title>
<g id="a_node29"><a xlink:title=" ">
<polygon fill="white" stroke="#bfbfbf" points="1066,-129 1066,-148 1209,-148 1209,-129 1066,-129"/>
<text text-anchor="middle" x="1137.5" y="-136" font-family="Helvetica,sans-Serif" font-size="10.00">G4OpBoundaryProcess.hh</text>
</a>
</g>
</g>
<!-- Node28&#45;&gt;Node29 -->
<g id="edge33" class="edge">
<title>Node28&#45;&gt;Node29</title>
<path fill="none" stroke="midnightblue" d="M1058.68,-190.48C1073.57,-180.84 1098.04,-165.02 1115.77,-153.55"/>
<polygon fill="midnightblue" stroke="midnightblue" points="1117.85,-156.38 1124.34,-148.01 1114.05,-150.5 1117.85,-156.38"/>
</g>
<!-- Node30 -->
<g id="node30" class="node">
<title>Node30</title>
<g id="a_node30"><a xlink:title=" ">
<polygon fill="white" stroke="#bfbfbf" points="1227,-123.5 1227,-153.5 1340,-153.5 1340,-123.5 1227,-123.5"/>
<text text-anchor="start" x="1235" y="-141.5" font-family="Helvetica,sans-Serif" font-size="10.00">boost/property_tree</text>
<text text-anchor="middle" x="1283.5" y="-130.5" font-family="Helvetica,sans-Serif" font-size="10.00">/json_parser.hpp</text>
</a>
</g>
</g>
<!-- Node28&#45;&gt;Node30 -->
<g id="edge35" class="edge">
<title>Node28&#45;&gt;Node30</title>
<path fill="none" stroke="midnightblue" d="M1079.6,-190.48C1115.45,-181.51 1172.75,-167.19 1217.49,-156"/>
<polygon fill="midnightblue" stroke="midnightblue" points="1218.56,-159.34 1227.41,-153.52 1216.86,-152.55 1218.56,-159.34"/>
</g>
</g>
</svg>
