<?xml version="1.0" encoding="UTF-8" standalone="no"?>
<!DOCTYPE svg PUBLIC "-//W3C//DTD SVG 1.1//EN"
 "http://www.w3.org/Graphics/SVG/1.1/DTD/svg11.dtd">
<!-- Generated by graphviz version 2.43.0 (0)
 -->
<!-- Title: OMSimRadDecaysDetector.cc Pages: 1 -->
<svg width="1495pt" height="498pt"
 viewBox="0.00 0.00 1494.95 498.00" xmlns="http://www.w3.org/2000/svg" xmlns:xlink="http://www.w3.org/1999/xlink">
<g id="graph0" class="graph" transform="scale(1 1) rotate(0) translate(4 494)">
<title>OMSimRadDecaysDetector.cc</title>
<polygon fill="white" stroke="transparent" points="-4,4 -4,-494 1490.95,-494 1490.95,4 -4,4"/>
<!-- Node1 -->
<g id="node1" class="node">
<title>Node1</title>
<g id="a_node1"><a xlink:title=" ">
<polygon fill="#bfbfbf" stroke="black" points="744.5,-470.5 744.5,-489.5 905.5,-489.5 905.5,-470.5 744.5,-470.5"/>
<text text-anchor="middle" x="825" y="-477.5" font-family="Helvetica,sans-Serif" font-size="10.00">OMSimRadDecaysDetector.cc</text>
</a>
</g>
</g>
<!-- Node2 -->
<g id="node2" class="node">
<title>Node2</title>
<g id="a_node2"><a xlink:href="_o_m_sim_rad_decays_detector_8hh.html" target="_top" xlink:title="Defines the OMSimRadDecaysDetector class for the radioactive decays simulation.">
<polygon fill="white" stroke="black" points="204.5,-414.5 204.5,-433.5 367.5,-433.5 367.5,-414.5 204.5,-414.5"/>
<text text-anchor="middle" x="286" y="-421.5" font-family="Helvetica,sans-Serif" font-size="10.00">OMSimRadDecaysDetector.hh</text>
</a>
</g>
</g>
<!-- Node1&#45;&gt;Node2 -->
<g id="edge1" class="edge">
<title>Node1&#45;&gt;Node2</title>
<path fill="none" stroke="midnightblue" d="M744.31,-470.92C646.11,-461.08 480.71,-444.51 377.76,-434.19"/>
<polygon fill="midnightblue" stroke="midnightblue" points="377.99,-430.7 367.69,-433.18 377.29,-437.66 377.99,-430.7"/>
</g>
<!-- Node18 -->
<g id="node18" class="node">
<title>Node18</title>
<g id="a_node18"><a xlink:href="_o_m_sim_hit_manager_8hh.html" target="_top" xlink:title="Defines structures and classes related to optical module photon hit management.">
<polygon fill="white" stroke="black" points="789.5,-246.5 789.5,-265.5 912.5,-265.5 912.5,-246.5 789.5,-246.5"/>
<text text-anchor="middle" x="851" y="-253.5" font-family="Helvetica,sans-Serif" font-size="10.00">OMSimHitManager.hh</text>
</a>
</g>
</g>
<!-- Node1&#45;&gt;Node18 -->
<g id="edge64" class="edge">
<title>Node1&#45;&gt;Node18</title>
<path fill="none" stroke="midnightblue" d="M839.05,-470.2C870.83,-449.28 947.34,-392.98 971,-322 980.51,-293.48 951.11,-277.27 919.05,-268.16"/>
<polygon fill="midnightblue" stroke="midnightblue" points="919.61,-264.69 909.05,-265.56 917.84,-271.47 919.61,-264.69"/>
</g>
<!-- Node32 -->
<g id="node32" class="node">
<title>Node32</title>
<g id="a_node32"><a xlink:href="_o_m_sim_m_d_o_m_8hh.html" target="_top" xlink:title="Construction of mDOM.">
<polygon fill="white" stroke="black" points="314,-358.5 314,-377.5 414,-377.5 414,-358.5 314,-358.5"/>
<text text-anchor="middle" x="364" y="-365.5" font-family="Helvetica,sans-Serif" font-size="10.00">OMSimMDOM.hh</text>
</a>
</g>
</g>
<!-- Node1&#45;&gt;Node32 -->
<g id="edge38" class="edge">
<title>Node1&#45;&gt;Node32</title>
<path fill="none" stroke="midnightblue" d="M783.66,-470.48C741.81,-461.74 675.26,-447.55 618,-434 542.99,-416.26 456.08,-393.55 405.83,-380.2"/>
<polygon fill="midnightblue" stroke="midnightblue" points="406.55,-376.77 395.98,-377.58 404.75,-383.54 406.55,-376.77"/>
</g>
<!-- Node35 -->
<g id="node35" class="node">
<title>Node35</title>
<g id="a_node35"><a xlink:href="_o_m_sim_p_d_o_m_8hh.html" target="_top" xlink:title="Implementation of the pDOM/Gen1 DOM class.">
<polygon fill="white" stroke="black" points="432.5,-358.5 432.5,-377.5 529.5,-377.5 529.5,-358.5 432.5,-358.5"/>
<text text-anchor="middle" x="481" y="-365.5" font-family="Helvetica,sans-Serif" font-size="10.00">OMSimPDOM.hh</text>
</a>
</g>
</g>
<!-- Node1&#45;&gt;Node35 -->
<g id="edge45" class="edge">
<title>Node1&#45;&gt;Node35</title>
<path fill="none" stroke="midnightblue" d="M798.29,-470.46C737.21,-450.93 587.21,-402.96 517.59,-380.7"/>
<polygon fill="midnightblue" stroke="midnightblue" points="518.52,-377.32 507.93,-377.61 516.39,-383.99 518.52,-377.32"/>
</g>
<!-- Node36 -->
<g id="node36" class="node">
<title>Node36</title>
<g id="a_node36"><a xlink:href="_o_m_sim_l_o_m16_8hh.html" target="_top" xlink:title="Construction of LOM16.">
<polygon fill="white" stroke="black" points="586.5,-358.5 586.5,-377.5 687.5,-377.5 687.5,-358.5 586.5,-358.5"/>
<text text-anchor="middle" x="637" y="-365.5" font-family="Helvetica,sans-Serif" font-size="10.00">OMSimLOM16.hh</text>
</a>
</g>
</g>
<!-- Node1&#45;&gt;Node36 -->
<g id="edge48" class="edge">
<title>Node1&#45;&gt;Node36</title>
<path fill="none" stroke="midnightblue" d="M810.25,-470.37C777.71,-451.33 699.58,-405.62 660.33,-382.65"/>
<polygon fill="midnightblue" stroke="midnightblue" points="662.08,-379.62 651.68,-377.59 658.55,-385.66 662.08,-379.62"/>
</g>
<!-- Node37 -->
<g id="node37" class="node">
<title>Node37</title>
<g id="a_node37"><a xlink:href="_o_m_sim_l_o_m18_8hh.html" target="_top" xlink:title="Construction of LOM18.">
<polygon fill="white" stroke="black" points="818.5,-358.5 818.5,-377.5 919.5,-377.5 919.5,-358.5 818.5,-358.5"/>
<text text-anchor="middle" x="869" y="-365.5" font-family="Helvetica,sans-Serif" font-size="10.00">OMSimLOM18.hh</text>
</a>
</g>
</g>
<!-- Node1&#45;&gt;Node37 -->
<g id="edge51" class="edge">
<title>Node1&#45;&gt;Node37</title>
<path fill="none" stroke="midnightblue" d="M828.45,-470.37C835.62,-452.46 852.23,-410.92 861.82,-386.95"/>
<polygon fill="midnightblue" stroke="midnightblue" points="865.1,-388.18 865.56,-377.59 858.6,-385.58 865.1,-388.18"/>
</g>
<!-- Node40 -->
<g id="node40" class="node">
<title>Node40</title>
<g id="a_node40"><a xlink:href="_o_m_sim_d_e_g_g_8hh.html" target="_top" xlink:title="Construction of the DEGG class.">
<polygon fill="white" stroke="black" points="705.5,-358.5 705.5,-377.5 800.5,-377.5 800.5,-358.5 705.5,-358.5"/>
<text text-anchor="middle" x="753" y="-365.5" font-family="Helvetica,sans-Serif" font-size="10.00">OMSimDEGG.hh</text>
</a>
</g>
</g>
<!-- Node1&#45;&gt;Node40 -->
<g id="edge56" class="edge">
<title>Node1&#45;&gt;Node40</title>
<path fill="none" stroke="midnightblue" d="M819.35,-470.37C807.47,-452.22 779.71,-409.8 764.12,-385.99"/>
<polygon fill="midnightblue" stroke="midnightblue" points="767.03,-384.04 758.62,-377.59 761.17,-387.88 767.03,-384.04"/>
</g>
<!-- Node41 -->
<g id="node41" class="node">
<title>Node41</title>
<g id="a_node41"><a xlink:href="_o_m_sim_command_args_table_8hh.html" target="_top" xlink:title="Definition of the OMSimCommandArgsTable singleton class, which controls user args.">
<polygon fill="white" stroke="black" points="931,-246.5 931,-265.5 1095,-265.5 1095,-246.5 931,-246.5"/>
<text text-anchor="middle" x="1013" y="-253.5" font-family="Helvetica,sans-Serif" font-size="10.00">OMSimCommandArgsTable.hh</text>
</a>
</g>
</g>
<!-- Node1&#45;&gt;Node41 -->
<g id="edge59" class="edge">
<title>Node1&#45;&gt;Node41</title>
<path fill="none" stroke="midnightblue" d="M846.7,-470.49C865.15,-462.65 891.79,-449.84 912,-434 938.03,-413.6 943.37,-405.98 961,-378 982.36,-344.12 998.83,-299.95 1007.11,-275.44"/>
<polygon fill="midnightblue" stroke="midnightblue" points="1010.52,-276.26 1010.32,-265.66 1003.87,-274.07 1010.52,-276.26"/>
</g>
<!-- Node44 -->
<g id="node44" class="node">
<title>Node44</title>
<g id="a_node44"><a xlink:title=" ">
<polygon fill="white" stroke="#bfbfbf" points="1094.5,-414.5 1094.5,-433.5 1195.5,-433.5 1195.5,-414.5 1094.5,-414.5"/>
<text text-anchor="middle" x="1145" y="-421.5" font-family="Helvetica,sans-Serif" font-size="10.00">G4SDManager.hh</text>
</a>
</g>
</g>
<!-- Node1&#45;&gt;Node44 -->
<g id="edge65" class="edge">
<title>Node1&#45;&gt;Node44</title>
<path fill="none" stroke="midnightblue" d="M875.7,-470.44C932.35,-460.89 1024,-445.42 1084.38,-435.23"/>
<polygon fill="midnightblue" stroke="midnightblue" points="1085.25,-438.63 1094.53,-433.52 1084.09,-431.73 1085.25,-438.63"/>
</g>
<!-- Node45 -->
<g id="node45" class="node">
<title>Node45</title>
<g id="a_node45"><a xlink:href="_o_m_sim_sensitive_detector_8hh.html" target="_top" xlink:title=" ">
<polygon fill="white" stroke="black" points="1185.5,-246.5 1185.5,-265.5 1338.5,-265.5 1338.5,-246.5 1185.5,-246.5"/>
<text text-anchor="middle" x="1262" y="-253.5" font-family="Helvetica,sans-Serif" font-size="10.00">OMSimSensitiveDetector.hh</text>
</a>
</g>
</g>
<!-- Node1&#45;&gt;Node45 -->
<g id="edge66" class="edge">
<title>Node1&#45;&gt;Node45</title>
<path fill="none" stroke="midnightblue" d="M848.51,-470.47C871.41,-461.95 907.05,-448.11 937,-434 1053.27,-379.21 1186.28,-301.97 1238.87,-270.82"/>
<polygon fill="midnightblue" stroke="midnightblue" points="1240.93,-273.67 1247.74,-265.55 1237.35,-267.65 1240.93,-273.67"/>
</g>
<!-- Node3 -->
<g id="node3" class="node">
<title>Node3</title>
<g id="a_node3"><a xlink:href="_o_m_sim_optical_module_8hh.html" target="_top" xlink:title=" ">
<polygon fill="white" stroke="black" points="468.5,-302.5 468.5,-321.5 605.5,-321.5 605.5,-302.5 468.5,-302.5"/>
<text text-anchor="middle" x="537" y="-309.5" font-family="Helvetica,sans-Serif" font-size="10.00">OMSimOpticalModule.hh</text>
</a>
</g>
</g>
<!-- Node2&#45;&gt;Node3 -->
<g id="edge2" class="edge">
<title>Node2&#45;&gt;Node3</title>
<path fill="none" stroke="midnightblue" d="M367.53,-419.55C432.95,-414.87 517.33,-403.86 539,-378 549.63,-365.31 547.43,-345.83 543.61,-331.51"/>
<polygon fill="midnightblue" stroke="midnightblue" points="546.88,-330.25 540.55,-321.75 540.2,-332.34 546.88,-330.25"/>
</g>
<!-- Node4 -->
<g id="node4" class="node">
<title>Node4</title>
<g id="a_node4"><a xlink:href="abc_detector_component_8hh.html" target="_top" xlink:title="Provides helper base class abcDetectorComponent for constructing and managing detector components in ...">
<polygon fill="white" stroke="black" points="308.5,-190.5 308.5,-209.5 455.5,-209.5 455.5,-190.5 308.5,-190.5"/>
<text text-anchor="middle" x="382" y="-197.5" font-family="Helvetica,sans-Serif" font-size="10.00">abcDetectorComponent.hh</text>
</a>
</g>
</g>
<!-- Node2&#45;&gt;Node4 -->
<g id="edge32" class="edge">
<title>Node2&#45;&gt;Node4</title>
<path fill="none" stroke="midnightblue" d="M284.47,-414.38C280.13,-387.11 270.21,-301.3 306,-246 315.43,-231.43 331.38,-220.94 346.24,-213.78"/>
<polygon fill="midnightblue" stroke="midnightblue" points="348.06,-216.81 355.77,-209.55 345.21,-210.41 348.06,-216.81"/>
</g>
<!-- Node29 -->
<g id="node29" class="node">
<title>Node29</title>
<g id="a_node29"><a xlink:href="_o_m_sim_detector_construction_8hh.html" target="_top" xlink:title=" ">
<polygon fill="white" stroke="black" points="86,-358.5 86,-377.5 256,-377.5 256,-358.5 86,-358.5"/>
<text text-anchor="middle" x="171" y="-365.5" font-family="Helvetica,sans-Serif" font-size="10.00">OMSimDetectorConstruction.hh</text>
</a>
</g>
</g>
<!-- Node2&#45;&gt;Node29 -->
<g id="edge33" class="edge">
<title>Node2&#45;&gt;Node29</title>
<path fill="none" stroke="midnightblue" d="M267.78,-414.44C249.1,-405.68 219.84,-391.94 198.38,-381.86"/>
<polygon fill="midnightblue" stroke="midnightblue" points="199.68,-378.6 189.14,-377.52 196.7,-384.93 199.68,-378.6"/>
</g>
<!-- Node30 -->
<g id="node30" class="node">
<title>Node30</title>
<g id="a_node30"><a xlink:title=" ">
<polygon fill="white" stroke="#bfbfbf" points="0,-302.5 0,-321.5 62,-321.5 62,-302.5 0,-302.5"/>
<text text-anchor="middle" x="31" y="-309.5" font-family="Helvetica,sans-Serif" font-size="10.00">G4Orb.hh</text>
</a>
</g>
</g>
<!-- Node2&#45;&gt;Node30 -->
<g id="edge37" class="edge">
<title>Node2&#45;&gt;Node30</title>
<path fill="none" stroke="midnightblue" d="M204.46,-419.33C163.42,-414.2 114.56,-402.79 77,-378 59.56,-366.49 46.68,-345.92 39.06,-330.99"/>
<polygon fill="midnightblue" stroke="midnightblue" points="42.1,-329.25 34.62,-321.74 35.79,-332.27 42.1,-329.25"/>
</g>
<!-- Node3&#45;&gt;Node4 -->
<g id="edge3" class="edge">
<title>Node3&#45;&gt;Node4</title>
<path fill="none" stroke="midnightblue" d="M527.8,-302.47C513.61,-289.51 485.26,-264.43 459,-246 442.42,-234.36 422.67,-222.87 407.33,-214.41"/>
<polygon fill="midnightblue" stroke="midnightblue" points="408.87,-211.26 398.41,-209.56 405.52,-217.41 408.87,-211.26"/>
</g>
<!-- Node3&#45;&gt;Node18 -->
<g id="edge17" class="edge">
<title>Node3&#45;&gt;Node18</title>
<path fill="none" stroke="midnightblue" d="M586.75,-302.44C642.33,-292.89 732.26,-277.42 791.52,-267.23"/>
<polygon fill="midnightblue" stroke="midnightblue" points="792.22,-270.66 801.48,-265.52 791.03,-263.76 792.22,-270.66"/>
</g>
<!-- Node26 -->
<g id="node26" class="node">
<title>Node26</title>
<g id="a_node26"><a xlink:href="_o_m_sim_p_m_t_construction_8hh.html" target="_top" xlink:title="Construction of the PMTs.">
<polygon fill="white" stroke="black" points="538.5,-246.5 538.5,-265.5 687.5,-265.5 687.5,-246.5 538.5,-246.5"/>
<text text-anchor="middle" x="613" y="-253.5" font-family="Helvetica,sans-Serif" font-size="10.00">OMSimPMTConstruction.hh</text>
</a>
</g>
</g>
<!-- Node3&#45;&gt;Node26 -->
<g id="edge26" class="edge">
<title>Node3&#45;&gt;Node26</title>
<path fill="none" stroke="midnightblue" d="M549.21,-302.32C560.78,-294.11 578.38,-281.6 592.16,-271.81"/>
<polygon fill="midnightblue" stroke="midnightblue" points="594.44,-274.48 600.57,-265.83 590.39,-268.77 594.44,-274.48"/>
</g>
<!-- Node5 -->
<g id="node5" class="node">
<title>Node5</title>
<g id="a_node5"><a xlink:href="_o_m_sim_input_data_8hh.html" target="_top" xlink:title="Definition of ParameterTable and InputDataManager.">
<polygon fill="white" stroke="black" points="569.5,-134.5 569.5,-153.5 684.5,-153.5 684.5,-134.5 569.5,-134.5"/>
<text text-anchor="middle" x="627" y="-141.5" font-family="Helvetica,sans-Serif" font-size="10.00">OMSimInputData.hh</text>
</a>
</g>
</g>
<!-- Node4&#45;&gt;Node5 -->
<g id="edge4" class="edge">
<title>Node4&#45;&gt;Node5</title>
<path fill="none" stroke="midnightblue" d="M420.82,-190.44C463.56,-181.02 532.33,-165.87 578.57,-155.68"/>
<polygon fill="midnightblue" stroke="midnightblue" points="579.35,-159.09 588.36,-153.52 577.84,-152.25 579.35,-159.09"/>
</g>
<!-- Node14 -->
<g id="node14" class="node">
<title>Node14</title>
<g id="a_node14"><a xlink:title=" ">
<polygon fill="white" stroke="#bfbfbf" points="279.5,-134.5 279.5,-153.5 386.5,-153.5 386.5,-134.5 279.5,-134.5"/>
<text text-anchor="middle" x="333" y="-141.5" font-family="Helvetica,sans-Serif" font-size="10.00">G4Transform3D.hh</text>
</a>
</g>
</g>
<!-- Node4&#45;&gt;Node14 -->
<g id="edge13" class="edge">
<title>Node4&#45;&gt;Node14</title>
<path fill="none" stroke="midnightblue" d="M373.91,-190.08C366.84,-182.3 356.41,-170.8 347.85,-161.37"/>
<polygon fill="midnightblue" stroke="midnightblue" points="350.25,-158.8 340.94,-153.75 345.07,-163.51 350.25,-158.8"/>
</g>
<!-- Node15 -->
<g id="node15" class="node">
<title>Node15</title>
<g id="a_node15"><a xlink:title=" ">
<polygon fill="white" stroke="#bfbfbf" points="405,-134.5 405,-153.5 513,-153.5 513,-134.5 405,-134.5"/>
<text text-anchor="middle" x="459" y="-141.5" font-family="Helvetica,sans-Serif" font-size="10.00">G4VisAttributes.hh</text>
</a>
</g>
</g>
<!-- Node4&#45;&gt;Node15 -->
<g id="edge14" class="edge">
<title>Node4&#45;&gt;Node15</title>
<path fill="none" stroke="midnightblue" d="M394.37,-190.32C406.16,-182.06 424.13,-169.45 438.14,-159.63"/>
<polygon fill="midnightblue" stroke="midnightblue" points="440.48,-162.26 446.66,-153.65 436.46,-156.53 440.48,-162.26"/>
</g>
<!-- Node16 -->
<g id="node16" class="node">
<title>Node16</title>
<g id="a_node16"><a xlink:title=" ">
<polygon fill="white" stroke="#bfbfbf" points="7.5,-134.5 7.5,-153.5 132.5,-153.5 132.5,-134.5 7.5,-134.5"/>
<text text-anchor="middle" x="70" y="-141.5" font-family="Helvetica,sans-Serif" font-size="10.00">G4SubtractionSolid.hh</text>
</a>
</g>
</g>
<!-- Node4&#45;&gt;Node16 -->
<g id="edge15" class="edge">
<title>Node4&#45;&gt;Node16</title>
<path fill="none" stroke="midnightblue" d="M332.56,-190.44C277.34,-180.89 187.98,-165.42 129.11,-155.23"/>
<polygon fill="midnightblue" stroke="midnightblue" points="129.66,-151.77 119.21,-153.52 128.46,-158.67 129.66,-151.77"/>
</g>
<!-- Node17 -->
<g id="node17" class="node">
<title>Node17</title>
<g id="a_node17"><a xlink:title=" ">
<polygon fill="white" stroke="#bfbfbf" points="151,-134.5 151,-153.5 261,-153.5 261,-134.5 151,-134.5"/>
<text text-anchor="middle" x="206" y="-141.5" font-family="Helvetica,sans-Serif" font-size="10.00">G4PVPlacement.hh</text>
</a>
</g>
</g>
<!-- Node4&#45;&gt;Node17 -->
<g id="edge16" class="edge">
<title>Node4&#45;&gt;Node17</title>
<path fill="none" stroke="midnightblue" d="M354.11,-190.44C324.25,-181.28 276.69,-166.69 243.54,-156.52"/>
<polygon fill="midnightblue" stroke="midnightblue" points="244.34,-153.1 233.76,-153.52 242.29,-159.8 244.34,-153.1"/>
</g>
<!-- Node6 -->
<g id="node6" class="node">
<title>Node6</title>
<g id="a_node6"><a xlink:href="_o_m_sim_logger_8hh.html" target="_top" xlink:title=" ">
<polygon fill="white" stroke="black" points="855.5,-73 855.5,-92 954.5,-92 954.5,-73 855.5,-73"/>
<text text-anchor="middle" x="905" y="-80" font-family="Helvetica,sans-Serif" font-size="10.00">OMSimLogger.hh</text>
</a>
</g>
</g>
<!-- Node5&#45;&gt;Node6 -->
<g id="edge5" class="edge">
<title>Node5&#45;&gt;Node6</title>
<path fill="none" stroke="midnightblue" d="M666.83,-134.48C716.48,-123.85 801.35,-105.68 855.23,-94.15"/>
<polygon fill="midnightblue" stroke="midnightblue" points="856.2,-97.52 865.24,-92.01 854.73,-90.68 856.2,-97.52"/>
</g>
<!-- Node11 -->
<g id="node11" class="node">
<title>Node11</title>
<g id="a_node11"><a xlink:title=" ">
<polygon fill="white" stroke="#bfbfbf" points="1197.5,-73 1197.5,-92 1340.5,-92 1340.5,-73 1197.5,-73"/>
<text text-anchor="middle" x="1269" y="-80" font-family="Helvetica,sans-Serif" font-size="10.00">G4OpBoundaryProcess.hh</text>
</a>
</g>
</g>
<!-- Node5&#45;&gt;Node11 -->
<g id="edge10" class="edge">
<title>Node5&#45;&gt;Node11</title>
<path fill="none" stroke="midnightblue" d="M684.72,-135.07C687.86,-134.7 690.97,-134.34 694,-134 869.3,-114.54 1075.35,-97.97 1187,-89.51"/>
<polygon fill="midnightblue" stroke="midnightblue" points="1187.47,-92.99 1197.18,-88.74 1186.95,-86 1187.47,-92.99"/>
</g>
<!-- Node12 -->
<g id="node12" class="node">
<title>Node12</title>
<g id="a_node12"><a xlink:title=" ">
<polygon fill="white" stroke="#bfbfbf" points="481.5,-73 481.5,-92 600.5,-92 600.5,-73 481.5,-73"/>
<text text-anchor="middle" x="541" y="-80" font-family="Helvetica,sans-Serif" font-size="10.00">G4SystemOfUnits.hh</text>
</a>
</g>
</g>
<!-- Node5&#45;&gt;Node12 -->
<g id="edge11" class="edge">
<title>Node5&#45;&gt;Node12</title>
<path fill="none" stroke="midnightblue" d="M614.68,-134.48C600.88,-124.93 578.3,-109.31 561.77,-97.87"/>
<polygon fill="midnightblue" stroke="midnightblue" points="563.51,-94.82 553.3,-92.01 559.53,-100.58 563.51,-94.82"/>
</g>
<!-- Node13 -->
<g id="node13" class="node">
<title>Node13</title>
<g id="a_node13"><a xlink:title=" ">
<polygon fill="white" stroke="#bfbfbf" points="618.5,-67.5 618.5,-97.5 731.5,-97.5 731.5,-67.5 618.5,-67.5"/>
<text text-anchor="start" x="626.5" y="-85.5" font-family="Helvetica,sans-Serif" font-size="10.00">boost/property_tree</text>
<text text-anchor="middle" x="675" y="-74.5" font-family="Helvetica,sans-Serif" font-size="10.00">/json_parser.hpp</text>
</a>
</g>
</g>
<!-- Node5&#45;&gt;Node13 -->
<g id="edge12" class="edge">
<title>Node5&#45;&gt;Node13</title>
<path fill="none" stroke="midnightblue" d="M633.88,-134.48C639.95,-126.94 649.08,-115.63 657.2,-105.57"/>
<polygon fill="midnightblue" stroke="midnightblue" points="660.13,-107.5 663.69,-97.52 654.68,-103.11 660.13,-107.5"/>
</g>
<!-- Node7 -->
<g id="node7" class="node">
<title>Node7</title>
<g id="a_node7"><a xlink:title=" ">
<polygon fill="white" stroke="#bfbfbf" points="686.5,-6 686.5,-25 779.5,-25 779.5,-6 686.5,-6"/>
<text text-anchor="middle" x="733" y="-13" font-family="Helvetica,sans-Serif" font-size="10.00">spdlog/spdlog.h</text>
</a>
</g>
</g>
<!-- Node6&#45;&gt;Node7 -->
<g id="edge6" class="edge">
<title>Node6&#45;&gt;Node7</title>
<path fill="none" stroke="midnightblue" d="M882.16,-72.87C852.13,-61.52 799.22,-41.52 765.16,-28.65"/>
<polygon fill="midnightblue" stroke="midnightblue" points="766.25,-25.32 755.66,-25.06 763.78,-31.87 766.25,-25.32"/>
</g>
<!-- Node8 -->
<g id="node8" class="node">
<title>Node8</title>
<g id="a_node8"><a xlink:title=" ">
<polygon fill="white" stroke="#bfbfbf" points="797.5,-0.5 797.5,-30.5 908.5,-30.5 908.5,-0.5 797.5,-0.5"/>
<text text-anchor="start" x="805.5" y="-18.5" font-family="Helvetica,sans-Serif" font-size="10.00">spdlog/sinks/stdout</text>
<text text-anchor="middle" x="853" y="-7.5" font-family="Helvetica,sans-Serif" font-size="10.00">_color_sinks.h</text>
</a>
</g>
</g>
<!-- Node6&#45;&gt;Node8 -->
<g id="edge7" class="edge">
<title>Node6&#45;&gt;Node8</title>
<path fill="none" stroke="midnightblue" d="M897.99,-72.73C891.03,-64.03 880.08,-50.34 870.72,-38.65"/>
<polygon fill="midnightblue" stroke="midnightblue" points="873.25,-36.21 864.27,-30.59 867.79,-40.58 873.25,-36.21"/>
</g>
<!-- Node9 -->
<g id="node9" class="node">
<title>Node9</title>
<g id="a_node9"><a xlink:title=" ">
<polygon fill="white" stroke="#bfbfbf" points="927,-6 927,-25 985,-25 985,-6 927,-6"/>
<text text-anchor="middle" x="956" y="-13" font-family="Helvetica,sans-Serif" font-size="10.00">memory</text>
</a>
</g>
</g>
<!-- Node6&#45;&gt;Node9 -->
<g id="edge8" class="edge">
<title>Node6&#45;&gt;Node9</title>
<path fill="none" stroke="midnightblue" d="M911.88,-72.73C919.83,-62.6 933.1,-45.69 943.01,-33.06"/>
<polygon fill="midnightblue" stroke="midnightblue" points="945.81,-35.16 949.23,-25.13 940.3,-30.83 945.81,-35.16"/>
</g>
<!-- Node10 -->
<g id="node10" class="node">
<title>Node10</title>
<g id="a_node10"><a xlink:title=" ">
<polygon fill="white" stroke="#bfbfbf" points="1003,-6 1003,-25 1101,-25 1101,-6 1003,-6"/>
<text text-anchor="middle" x="1052" y="-13" font-family="Helvetica,sans-Serif" font-size="10.00">spdlog/fmt/fmt.h</text>
</a>
</g>
</g>
<!-- Node6&#45;&gt;Node10 -->
<g id="edge9" class="edge">
<title>Node6&#45;&gt;Node10</title>
<path fill="none" stroke="midnightblue" d="M924.52,-72.87C949.78,-61.7 994,-42.15 1023.14,-29.26"/>
<polygon fill="midnightblue" stroke="midnightblue" points="1024.67,-32.41 1032.4,-25.17 1021.84,-26.01 1024.67,-32.41"/>
</g>
<!-- Node19 -->
<g id="node19" class="node">
<title>Node19</title>
<g id="a_node19"><a xlink:href="_o_m_sim_p_m_t_response_8hh.html" target="_top" xlink:title="Provides simulation for PMT response. This class is responsible for transforming hits on photocathode...">
<polygon fill="white" stroke="black" points="688.5,-190.5 688.5,-209.5 823.5,-209.5 823.5,-190.5 688.5,-190.5"/>
<text text-anchor="middle" x="756" y="-197.5" font-family="Helvetica,sans-Serif" font-size="10.00">OMSimPMTResponse.hh</text>
</a>
</g>
</g>
<!-- Node18&#45;&gt;Node19 -->
<g id="edge18" class="edge">
<title>Node18&#45;&gt;Node19</title>
<path fill="none" stroke="midnightblue" d="M835.74,-246.32C820.78,-237.82 797.75,-224.73 780.27,-214.8"/>
<polygon fill="midnightblue" stroke="midnightblue" points="781.65,-211.55 771.23,-209.65 778.19,-217.64 781.65,-211.55"/>
</g>
<!-- Node24 -->
<g id="node24" class="node">
<title>Node24</title>
<g id="a_node24"><a xlink:title=" ">
<polygon fill="white" stroke="#bfbfbf" points="1141.5,-190.5 1141.5,-209.5 1244.5,-209.5 1244.5,-190.5 1141.5,-190.5"/>
<text text-anchor="middle" x="1193" y="-197.5" font-family="Helvetica,sans-Serif" font-size="10.00">G4ThreeVector.hh</text>
</a>
</g>
</g>
<!-- Node18&#45;&gt;Node24 -->
<g id="edge24" class="edge">
<title>Node18&#45;&gt;Node24</title>
<path fill="none" stroke="midnightblue" d="M905.19,-246.44C966.69,-236.73 1066.81,-220.92 1131.27,-210.75"/>
<polygon fill="midnightblue" stroke="midnightblue" points="1131.97,-214.18 1141.3,-209.16 1130.88,-207.27 1131.97,-214.18"/>
</g>
<!-- Node25 -->
<g id="node25" class="node">
<title>Node25</title>
<g id="a_node25"><a xlink:title=" ">
<polygon fill="white" stroke="#bfbfbf" points="841.5,-190.5 841.5,-209.5 896.5,-209.5 896.5,-190.5 841.5,-190.5"/>
<text text-anchor="middle" x="869" y="-197.5" font-family="Helvetica,sans-Serif" font-size="10.00">fstream</text>
</a>
</g>
</g>
<!-- Node18&#45;&gt;Node25 -->
<g id="edge25" class="edge">
<title>Node18&#45;&gt;Node25</title>
<path fill="none" stroke="midnightblue" d="M853.97,-246.08C856.38,-238.85 859.86,-228.41 862.87,-219.4"/>
<polygon fill="midnightblue" stroke="midnightblue" points="866.24,-220.34 866.08,-209.75 859.6,-218.13 866.24,-220.34"/>
</g>
<!-- Node19&#45;&gt;Node12 -->
<g id="edge19" class="edge">
<title>Node19&#45;&gt;Node12</title>
<path fill="none" stroke="midnightblue" d="M688.35,-190.79C639.59,-183.54 579.28,-171.39 561,-154 547.06,-140.73 542.61,-118.53 541.3,-102.58"/>
<polygon fill="midnightblue" stroke="midnightblue" points="544.78,-102.11 540.82,-92.29 537.79,-102.44 544.78,-102.11"/>
</g>
<!-- Node20 -->
<g id="node20" class="node">
<title>Node20</title>
<g id="a_node20"><a xlink:title=" ">
<polygon fill="white" stroke="#bfbfbf" points="702.5,-134.5 702.5,-153.5 775.5,-153.5 775.5,-134.5 702.5,-134.5"/>
<text text-anchor="middle" x="739" y="-141.5" font-family="Helvetica,sans-Serif" font-size="10.00">G4Types.hh</text>
</a>
</g>
</g>
<!-- Node19&#45;&gt;Node20 -->
<g id="edge20" class="edge">
<title>Node19&#45;&gt;Node20</title>
<path fill="none" stroke="midnightblue" d="M753.19,-190.08C750.92,-182.85 747.63,-172.41 744.79,-163.4"/>
<polygon fill="midnightblue" stroke="midnightblue" points="748.1,-162.24 741.75,-153.75 741.42,-164.34 748.1,-162.24"/>
</g>
<!-- Node21 -->
<g id="node21" class="node">
<title>Node21</title>
<g id="a_node21"><a xlink:title=" ">
<polygon fill="white" stroke="#bfbfbf" points="794,-134.5 794,-153.5 832,-153.5 832,-134.5 794,-134.5"/>
<text text-anchor="middle" x="813" y="-141.5" font-family="Helvetica,sans-Serif" font-size="10.00">map</text>
</a>
</g>
</g>
<!-- Node19&#45;&gt;Node21 -->
<g id="edge21" class="edge">
<title>Node19&#45;&gt;Node21</title>
<path fill="none" stroke="midnightblue" d="M765.16,-190.32C773.5,-182.42 786.03,-170.55 796.18,-160.94"/>
<polygon fill="midnightblue" stroke="midnightblue" points="798.82,-163.25 803.68,-153.83 794.01,-158.17 798.82,-163.25"/>
</g>
<!-- Node22 -->
<g id="node22" class="node">
<title>Node22</title>
<g id="a_node22"><a xlink:title=" ">
<polygon fill="white" stroke="#bfbfbf" points="850.5,-134.5 850.5,-153.5 911.5,-153.5 911.5,-134.5 850.5,-134.5"/>
<text text-anchor="middle" x="881" y="-141.5" font-family="Helvetica,sans-Serif" font-size="10.00">TGraph.h</text>
</a>
</g>
</g>
<!-- Node19&#45;&gt;Node22 -->
<g id="edge22" class="edge">
<title>Node19&#45;&gt;Node22</title>
<path fill="none" stroke="midnightblue" d="M775.81,-190.44C796.29,-181.6 828.48,-167.69 851.86,-157.59"/>
<polygon fill="midnightblue" stroke="midnightblue" points="853.49,-160.7 861.29,-153.52 850.72,-154.27 853.49,-160.7"/>
</g>
<!-- Node23 -->
<g id="node23" class="node">
<title>Node23</title>
<g id="a_node23"><a xlink:title=" ">
<polygon fill="white" stroke="#bfbfbf" points="929.5,-134.5 929.5,-153.5 982.5,-153.5 982.5,-134.5 929.5,-134.5"/>
<text text-anchor="middle" x="956" y="-141.5" font-family="Helvetica,sans-Serif" font-size="10.00">TH2D.h</text>
</a>
</g>
</g>
<!-- Node19&#45;&gt;Node23 -->
<g id="edge23" class="edge">
<title>Node19&#45;&gt;Node23</title>
<path fill="none" stroke="midnightblue" d="M787.69,-190.44C823.43,-180.79 881.47,-165.12 919.19,-154.94"/>
<polygon fill="midnightblue" stroke="midnightblue" points="920.52,-158.21 929.26,-152.22 918.69,-151.45 920.52,-158.21"/>
</g>
<!-- Node26&#45;&gt;Node4 -->
<g id="edge27" class="edge">
<title>Node26&#45;&gt;Node4</title>
<path fill="none" stroke="midnightblue" d="M576.4,-246.44C536.27,-237.06 471.8,-221.99 428.22,-211.8"/>
<polygon fill="midnightblue" stroke="midnightblue" points="428.97,-208.38 418.43,-209.52 427.37,-215.2 428.97,-208.38"/>
</g>
<!-- Node26&#45;&gt;Node19 -->
<g id="edge29" class="edge">
<title>Node26&#45;&gt;Node19</title>
<path fill="none" stroke="midnightblue" d="M635.66,-246.44C659.4,-237.48 696.91,-223.31 723.74,-213.18"/>
<polygon fill="midnightblue" stroke="midnightblue" points="725.33,-216.32 733.45,-209.52 722.86,-209.77 725.33,-216.32"/>
</g>
<!-- Node26&#45;&gt;Node26 -->
<g id="edge28" class="edge">
<title>Node26&#45;&gt;Node26</title>
<path fill="none" stroke="midnightblue" d="M652.45,-265.53C679.26,-268.31 705.5,-265.13 705.5,-256 705.5,-248.01 685.41,-244.58 662.43,-245.71"/>
<polygon fill="midnightblue" stroke="midnightblue" points="662.15,-242.22 652.45,-246.47 662.69,-249.2 662.15,-242.22"/>
</g>
<!-- Node27 -->
<g id="node27" class="node">
<title>Node27</title>
<g id="a_node27"><a xlink:title=" ">
<polygon fill="white" stroke="#bfbfbf" points="474,-190.5 474,-209.5 572,-209.5 572,-190.5 474,-190.5"/>
<text text-anchor="middle" x="523" y="-197.5" font-family="Helvetica,sans-Serif" font-size="10.00">G4UnionSolid.hh</text>
</a>
</g>
</g>
<!-- Node26&#45;&gt;Node27 -->
<g id="edge30" class="edge">
<title>Node26&#45;&gt;Node27</title>
<path fill="none" stroke="midnightblue" d="M598.54,-246.32C584.5,-237.9 562.95,-224.97 546.46,-215.07"/>
<polygon fill="midnightblue" stroke="midnightblue" points="547.8,-211.8 537.42,-209.65 544.2,-217.8 547.8,-211.8"/>
</g>
<!-- Node28 -->
<g id="node28" class="node">
<title>Node28</title>
<g id="a_node28"><a xlink:title=" ">
<polygon fill="white" stroke="#bfbfbf" points="590.5,-190.5 590.5,-209.5 657.5,-209.5 657.5,-190.5 590.5,-190.5"/>
<text text-anchor="middle" x="624" y="-197.5" font-family="Helvetica,sans-Serif" font-size="10.00">G4Tubs.hh</text>
</a>
</g>
</g>
<!-- Node26&#45;&gt;Node28 -->
<g id="edge31" class="edge">
<title>Node26&#45;&gt;Node28</title>
<path fill="none" stroke="midnightblue" d="M614.82,-246.08C616.27,-238.93 618.37,-228.64 620.19,-219.69"/>
<polygon fill="midnightblue" stroke="midnightblue" points="623.65,-220.25 622.22,-209.75 616.79,-218.85 623.65,-220.25"/>
</g>
<!-- Node29&#45;&gt;Node3 -->
<g id="edge34" class="edge">
<title>Node29&#45;&gt;Node3</title>
<path fill="none" stroke="midnightblue" d="M228.99,-358.44C294.31,-348.81 400.34,-333.16 469.37,-322.98"/>
<polygon fill="midnightblue" stroke="midnightblue" points="469.9,-326.44 479.28,-321.52 468.87,-319.51 469.9,-326.44"/>
</g>
<!-- Node29&#45;&gt;Node30 -->
<g id="edge35" class="edge">
<title>Node29&#45;&gt;Node30</title>
<path fill="none" stroke="midnightblue" d="M148.82,-358.44C125.57,-349.48 88.85,-335.31 62.58,-325.18"/>
<polygon fill="midnightblue" stroke="midnightblue" points="63.67,-321.85 53.08,-321.52 61.15,-328.38 63.67,-321.85"/>
</g>
<!-- Node31 -->
<g id="node31" class="node">
<title>Node31</title>
<g id="a_node31"><a xlink:title=" ">
<polygon fill="white" stroke="#bfbfbf" points="80,-302.5 80,-321.5 258,-321.5 258,-302.5 80,-302.5"/>
<text text-anchor="middle" x="169" y="-309.5" font-family="Helvetica,sans-Serif" font-size="10.00">G4VUserDetectorConstruction.hh</text>
</a>
</g>
</g>
<!-- Node29&#45;&gt;Node31 -->
<g id="edge36" class="edge">
<title>Node29&#45;&gt;Node31</title>
<path fill="none" stroke="midnightblue" d="M170.67,-358.08C170.41,-351.01 170.03,-340.86 169.7,-331.99"/>
<polygon fill="midnightblue" stroke="midnightblue" points="173.19,-331.61 169.32,-321.75 166.2,-331.87 173.19,-331.61"/>
</g>
<!-- Node32&#45;&gt;Node3 -->
<g id="edge44" class="edge">
<title>Node32&#45;&gt;Node3</title>
<path fill="none" stroke="midnightblue" d="M391.41,-358.44C420.77,-349.28 467.52,-334.69 500.1,-324.52"/>
<polygon fill="midnightblue" stroke="midnightblue" points="501.21,-327.84 509.72,-321.52 499.13,-321.16 501.21,-327.84"/>
</g>
<!-- Node32&#45;&gt;Node26 -->
<g id="edge43" class="edge">
<title>Node32&#45;&gt;Node26</title>
<path fill="none" stroke="midnightblue" d="M373.38,-358.09C388.54,-344.18 419.86,-317.29 451,-302 483.63,-285.98 522.85,-274.9 554.52,-267.74"/>
<polygon fill="midnightblue" stroke="midnightblue" points="555.5,-271.11 564.52,-265.56 554,-264.27 555.5,-271.11"/>
</g>
<!-- Node33 -->
<g id="node33" class="node">
<title>Node33</title>
<g id="a_node33"><a xlink:href="_o_m_sim_m_d_o_m_flasher_8hh.html" target="_top" xlink:title="Defines the mDOMFlasher class for simulating the 10 flashers in an mDOM optical module.">
<polygon fill="white" stroke="black" points="314.5,-246.5 314.5,-265.5 449.5,-265.5 449.5,-246.5 314.5,-246.5"/>
<text text-anchor="middle" x="382" y="-253.5" font-family="Helvetica,sans-Serif" font-size="10.00">OMSimMDOMFlasher.hh</text>
</a>
</g>
</g>
<!-- Node32&#45;&gt;Node33 -->
<g id="edge39" class="edge">
<title>Node32&#45;&gt;Node33</title>
<path fill="none" stroke="midnightblue" d="M365.41,-358.37C368.32,-340.62 375.02,-299.67 378.96,-275.6"/>
<polygon fill="midnightblue" stroke="midnightblue" points="382.43,-276.03 380.59,-265.59 375.53,-274.89 382.43,-276.03"/>
</g>
<!-- Node33&#45;&gt;Node4 -->
<g id="edge40" class="edge">
<title>Node33&#45;&gt;Node4</title>
<path fill="none" stroke="midnightblue" d="M382,-246.08C382,-239.01 382,-228.86 382,-219.99"/>
<polygon fill="midnightblue" stroke="midnightblue" points="385.5,-219.75 382,-209.75 378.5,-219.75 385.5,-219.75"/>
</g>
<!-- Node33&#45;&gt;Node27 -->
<g id="edge41" class="edge">
<title>Node33&#45;&gt;Node27</title>
<path fill="none" stroke="midnightblue" d="M404.34,-246.44C427.75,-237.48 464.74,-223.31 491.19,-213.18"/>
<polygon fill="midnightblue" stroke="midnightblue" points="492.68,-216.36 500.76,-209.52 490.17,-209.82 492.68,-216.36"/>
</g>
<!-- Node34 -->
<g id="node34" class="node">
<title>Node34</title>
<g id="a_node34"><a xlink:title=" ">
<polygon fill="white" stroke="#bfbfbf" points="198,-190.5 198,-209.5 290,-209.5 290,-190.5 198,-190.5"/>
<text text-anchor="middle" x="244" y="-197.5" font-family="Helvetica,sans-Serif" font-size="10.00">G4Navigator.hh</text>
</a>
</g>
</g>
<!-- Node33&#45;&gt;Node34 -->
<g id="edge42" class="edge">
<title>Node33&#45;&gt;Node34</title>
<path fill="none" stroke="midnightblue" d="M360.13,-246.44C337.22,-237.48 301.02,-223.31 275.13,-213.18"/>
<polygon fill="midnightblue" stroke="midnightblue" points="276.35,-209.9 265.76,-209.52 273.8,-216.42 276.35,-209.9"/>
</g>
<!-- Node35&#45;&gt;Node3 -->
<g id="edge47" class="edge">
<title>Node35&#45;&gt;Node3</title>
<path fill="none" stroke="midnightblue" d="M490,-358.32C498.19,-350.42 510.51,-338.55 520.47,-328.94"/>
<polygon fill="midnightblue" stroke="midnightblue" points="523.07,-331.29 527.84,-321.83 518.21,-326.26 523.07,-331.29"/>
</g>
<!-- Node35&#45;&gt;Node26 -->
<g id="edge46" class="edge">
<title>Node35&#45;&gt;Node26</title>
<path fill="none" stroke="midnightblue" d="M473.51,-358.18C463.14,-344.84 447.07,-319.28 460,-302 471.27,-286.94 513.67,-275.19 550.98,-267.48"/>
<polygon fill="midnightblue" stroke="midnightblue" points="551.72,-270.9 560.84,-265.51 550.35,-264.04 551.72,-270.9"/>
</g>
<!-- Node36&#45;&gt;Node3 -->
<g id="edge50" class="edge">
<title>Node36&#45;&gt;Node3</title>
<path fill="none" stroke="midnightblue" d="M620.93,-358.32C605.04,-349.74 580.49,-336.49 562.04,-326.52"/>
<polygon fill="midnightblue" stroke="midnightblue" points="563.49,-323.33 553.03,-321.65 560.16,-329.49 563.49,-323.33"/>
</g>
<!-- Node36&#45;&gt;Node26 -->
<g id="edge49" class="edge">
<title>Node36&#45;&gt;Node26</title>
<path fill="none" stroke="midnightblue" d="M635.12,-358.37C631.24,-340.62 622.31,-299.67 617.06,-275.6"/>
<polygon fill="midnightblue" stroke="midnightblue" points="620.43,-274.62 614.87,-265.59 613.59,-276.11 620.43,-274.62"/>
</g>
<!-- Node37&#45;&gt;Node3 -->
<g id="edge53" class="edge">
<title>Node37&#45;&gt;Node3</title>
<path fill="none" stroke="midnightblue" d="M818.21,-358.74C759.54,-349.2 662.97,-333.49 599.67,-323.19"/>
<polygon fill="midnightblue" stroke="midnightblue" points="599.86,-319.68 589.42,-321.53 598.73,-326.59 599.86,-319.68"/>
</g>
<!-- Node37&#45;&gt;Node26 -->
<g id="edge52" class="edge">
<title>Node37&#45;&gt;Node26</title>
<path fill="none" stroke="midnightblue" d="M835.08,-358.5C806.2,-350.69 763.96,-337.95 729,-322 713.4,-314.88 710.88,-310.53 696,-302 676.86,-291.02 654.91,-279.15 638.39,-270.36"/>
<polygon fill="midnightblue" stroke="midnightblue" points="639.82,-267.16 629.35,-265.57 636.55,-273.34 639.82,-267.16"/>
</g>
<!-- Node38 -->
<g id="node38" class="node">
<title>Node38</title>
<g id="a_node38"><a xlink:title=" ">
<polygon fill="white" stroke="#bfbfbf" points="738,-302.5 738,-321.5 854,-321.5 854,-302.5 738,-302.5"/>
<text text-anchor="middle" x="796" y="-309.5" font-family="Helvetica,sans-Serif" font-size="10.00">G4LogicalVolume.hh</text>
</a>
</g>
</g>
<!-- Node37&#45;&gt;Node38 -->
<g id="edge54" class="edge">
<title>Node37&#45;&gt;Node38</title>
<path fill="none" stroke="midnightblue" d="M857.27,-358.32C846.16,-350.11 829.26,-337.6 816.02,-327.81"/>
<polygon fill="midnightblue" stroke="midnightblue" points="818.06,-324.97 807.94,-321.83 813.9,-330.59 818.06,-324.97"/>
</g>
<!-- Node39 -->
<g id="node39" class="node">
<title>Node39</title>
<g id="a_node39"><a xlink:title=" ">
<polygon fill="white" stroke="#bfbfbf" points="872.5,-302.5 872.5,-321.5 961.5,-321.5 961.5,-302.5 872.5,-302.5"/>
<text text-anchor="middle" x="917" y="-309.5" font-family="Helvetica,sans-Serif" font-size="10.00">G4Polycone.hh</text>
</a>
</g>
</g>
<!-- Node37&#45;&gt;Node39 -->
<g id="edge55" class="edge">
<title>Node37&#45;&gt;Node39</title>
<path fill="none" stroke="midnightblue" d="M876.93,-358.08C883.85,-350.3 894.07,-338.8 902.45,-329.37"/>
<polygon fill="midnightblue" stroke="midnightblue" points="905.19,-331.55 909.22,-321.75 899.96,-326.9 905.19,-331.55"/>
</g>
<!-- Node40&#45;&gt;Node3 -->
<g id="edge58" class="edge">
<title>Node40&#45;&gt;Node3</title>
<path fill="none" stroke="midnightblue" d="M718.77,-358.44C681.49,-349.12 621.73,-334.18 580.99,-324"/>
<polygon fill="midnightblue" stroke="midnightblue" points="581.62,-320.55 571.07,-321.52 579.92,-327.34 581.62,-320.55"/>
</g>
<!-- Node40&#45;&gt;Node26 -->
<g id="edge57" class="edge">
<title>Node40&#45;&gt;Node26</title>
<path fill="none" stroke="midnightblue" d="M742.01,-358.37C718.19,-339.65 661.56,-295.15 631.88,-271.83"/>
<polygon fill="midnightblue" stroke="midnightblue" points="633.96,-269.02 623.93,-265.59 629.64,-274.52 633.96,-269.02"/>
</g>
<!-- Node41&#45;&gt;Node6 -->
<g id="edge60" class="edge">
<title>Node41&#45;&gt;Node6</title>
<path fill="none" stroke="midnightblue" d="M1013.83,-246.47C1015.43,-225.34 1016.86,-169.69 992,-134 979.79,-116.47 959.38,-104.16 941.4,-96.08"/>
<polygon fill="midnightblue" stroke="midnightblue" points="942.3,-92.67 931.72,-92.03 939.59,-99.12 942.3,-92.67"/>
</g>
<!-- Node41&#45;&gt;Node25 -->
<g id="edge61" class="edge">
<title>Node41&#45;&gt;Node25</title>
<path fill="none" stroke="midnightblue" d="M990.18,-246.44C966.17,-237.44 928.17,-223.19 901.13,-213.05"/>
<polygon fill="midnightblue" stroke="midnightblue" points="902.3,-209.75 891.71,-209.52 899.84,-216.3 902.3,-209.75"/>
</g>
<!-- Node42 -->
<g id="node42" class="node">
<title>Node42</title>
<g id="a_node42"><a xlink:title=" ">
<polygon fill="white" stroke="#bfbfbf" points="1039,-190.5 1039,-209.5 1123,-209.5 1123,-190.5 1039,-190.5"/>
<text text-anchor="middle" x="1081" y="-197.5" font-family="Helvetica,sans-Serif" font-size="10.00">boost/any.hpp</text>
</a>
</g>
</g>
<!-- Node41&#45;&gt;Node42 -->
<g id="edge62" class="edge">
<title>Node41&#45;&gt;Node42</title>
<path fill="none" stroke="midnightblue" d="M1023.93,-246.32C1034.17,-238.18 1049.72,-225.84 1062,-216.09"/>
<polygon fill="midnightblue" stroke="midnightblue" points="1064.22,-218.79 1069.88,-209.83 1059.87,-213.31 1064.22,-218.79"/>
</g>
<!-- Node43 -->
<g id="node43" class="node">
<title>Node43</title>
<g id="a_node43"><a xlink:title=" ">
<polygon fill="white" stroke="#bfbfbf" points="915,-190.5 915,-209.5 983,-209.5 983,-190.5 915,-190.5"/>
<text text-anchor="middle" x="949" y="-197.5" font-family="Helvetica,sans-Serif" font-size="10.00">sys/time.h</text>
</a>
</g>
</g>
<!-- Node41&#45;&gt;Node43 -->
<g id="edge63" class="edge">
<title>Node41&#45;&gt;Node43</title>
<path fill="none" stroke="midnightblue" d="M1002.72,-246.32C993.16,-238.26 978.72,-226.08 967.22,-216.37"/>
<polygon fill="midnightblue" stroke="midnightblue" points="969.37,-213.61 959.47,-209.83 964.86,-218.96 969.37,-213.61"/>
</g>
<!-- Node45&#45;&gt;Node11 -->
<g id="edge70" class="edge">
<title>Node45&#45;&gt;Node11</title>
<path fill="none" stroke="midnightblue" d="M1338.59,-248.95C1392.76,-242.89 1458.71,-231.3 1476,-210 1524.2,-150.61 1399.85,-111.83 1323.51,-94.3"/>
<polygon fill="midnightblue" stroke="midnightblue" points="1324.06,-90.83 1313.53,-92.06 1322.53,-97.66 1324.06,-90.83"/>
</g>
<!-- Node45&#45;&gt;Node19 -->
<g id="edge69" class="edge">
<title>Node45&#45;&gt;Node19</title>
<path fill="none" stroke="midnightblue" d="M1185.25,-247.23C1101.57,-238.69 963.42,-224.41 833.72,-210.07"/>
<polygon fill="midnightblue" stroke="midnightblue" points="833.93,-206.57 823.6,-208.95 833.15,-213.53 833.93,-206.57"/>
</g>
<!-- Node45&#45;&gt;Node24 -->
<g id="edge68" class="edge">
<title>Node45&#45;&gt;Node24</title>
<path fill="none" stroke="midnightblue" d="M1250.91,-246.32C1240.51,-238.18 1224.74,-225.84 1212.28,-216.09"/>
<polygon fill="midnightblue" stroke="midnightblue" points="1214.32,-213.24 1204.29,-209.83 1210.01,-218.75 1214.32,-213.24"/>
</g>
<!-- Node46 -->
<g id="node46" class="node">
<title>Node46</title>
<g id="a_node46"><a xlink:title=" ">
<polygon fill="white" stroke="#bfbfbf" points="1263,-190.5 1263,-209.5 1401,-209.5 1401,-190.5 1263,-190.5"/>
<text text-anchor="middle" x="1332" y="-197.5" font-family="Helvetica,sans-Serif" font-size="10.00">G4VSensitiveDetector.hh</text>
</a>
</g>
</g>
<!-- Node45&#45;&gt;Node46 -->
<g id="edge67" class="edge">
<title>Node45&#45;&gt;Node46</title>
<path fill="none" stroke="midnightblue" d="M1273.25,-246.32C1283.8,-238.18 1299.8,-225.84 1312.44,-216.09"/>
<polygon fill="midnightblue" stroke="midnightblue" points="1314.77,-218.71 1320.55,-209.83 1310.49,-213.17 1314.77,-218.71"/>
</g>
<!-- Node47 -->
<g id="node47" class="node">
<title>Node47</title>
<g id="a_node47"><a xlink:title=" ">
<polygon fill="white" stroke="#bfbfbf" points="1419.5,-190.5 1419.5,-209.5 1466.5,-209.5 1466.5,-190.5 1419.5,-190.5"/>
<text text-anchor="middle" x="1443" y="-197.5" font-family="Helvetica,sans-Serif" font-size="10.00">vector</text>
</a>
</g>
</g>
<!-- Node45&#45;&gt;Node47 -->
<g id="edge71" class="edge">
<title>Node45&#45;&gt;Node47</title>
<path fill="none" stroke="midnightblue" d="M1290.68,-246.44C1322.93,-236.82 1375.24,-221.21 1409.39,-211.03"/>
<polygon fill="midnightblue" stroke="midnightblue" points="1410.78,-214.27 1419.36,-208.05 1408.77,-207.56 1410.78,-214.27"/>
</g>
</g>
</svg>
