<?xml version="1.0" encoding="UTF-8" standalone="no"?>
<!DOCTYPE svg PUBLIC "-//W3C//DTD SVG 1.1//EN"
 "http://www.w3.org/Graphics/SVG/1.1/DTD/svg11.dtd">
<!-- Generated by graphviz version 2.43.0 (0)
 -->
<!-- Title: OMSimEffectiveAreaDetector.hh Pages: 1 -->
<svg width="1739pt" height="434pt"
 viewBox="0.00 0.00 1739.00 434.00" xmlns="http://www.w3.org/2000/svg" xmlns:xlink="http://www.w3.org/1999/xlink">
<g id="graph0" class="graph" transform="scale(1 1) rotate(0) translate(4 430)">
<title>OMSimEffectiveAreaDetector.hh</title>
<!-- Node1 -->
<g id="Node000001" class="node">
<title>Node1</title>
<g id="a_Node000001"><a xlink:title="Defines the OMSimEffectiveAreaDetector class for effective area simulation detector construction.">
<polygon fill="#999999" stroke="#666666" points="1547,-426 1374,-426 1374,-407 1547,-407 1547,-426"/>
<text text-anchor="middle" x="1460.5" y="-414" font-family="Helvetica,sans-Serif" font-size="10.00">OMSimEffectiveAreaDetector.hh</text>
</a>
</g>
</g>
<!-- Node2 -->
<g id="Node000002" class="node">
<title>Node2</title>
<g id="a_Node000002"><a xlink:href="_o_m_sim_detector_construction_8hh_source.html" target="_top" xlink:title=" ">
<polygon fill="white" stroke="#666666" points="1545.5,-371 1375.5,-371 1375.5,-352 1545.5,-352 1545.5,-371"/>
<text text-anchor="middle" x="1460.5" y="-359" font-family="Helvetica,sans-Serif" font-size="10.00">OMSimDetectorConstruction.hh</text>
</a>
</g>
</g>
<!-- Node1&#45;&gt;Node2 -->
<g id="edge1_Node000001_Node000002" class="edge">
<title>Node1&#45;&gt;Node2</title>
<g id="a_edge1_Node000001_Node000002"><a xlink:title=" ">
<path fill="none" stroke="#63b8ff" d="M1460.5,-406.75C1460.5,-399.8 1460.5,-389.85 1460.5,-381.13"/>
<polygon fill="#63b8ff" stroke="#63b8ff" points="1464,-381.09 1460.5,-371.09 1457,-381.09 1464,-381.09"/>
</a>
</g>
</g>
<!-- Node3 -->
<g id="Node000003" class="node">
<title>Node3</title>
<g id="a_Node000003"><a xlink:href="_o_m_sim_optical_module_8hh_source.html" target="_top" xlink:title=" ">
<polygon fill="white" stroke="#666666" points="1411,-316 1274,-316 1274,-297 1411,-297 1411,-316"/>
<text text-anchor="middle" x="1342.5" y="-304" font-family="Helvetica,sans-Serif" font-size="10.00">OMSimOpticalModule.hh</text>
</a>
</g>
</g>
<!-- Node2&#45;&gt;Node3 -->
<g id="edge2_Node000002_Node000003" class="edge">
<title>Node2&#45;&gt;Node3</title>
<g id="a_edge2_Node000002_Node000003"><a xlink:title=" ">
<path fill="none" stroke="#63b8ff" d="M1441.54,-351.98C1422.47,-343.42 1392.84,-330.11 1370.95,-320.28"/>
<polygon fill="#63b8ff" stroke="#63b8ff" points="1372.36,-317.07 1361.8,-316.17 1369.49,-323.46 1372.36,-317.07"/>
</a>
</g>
</g>
<!-- Node36 -->
<g id="Node000036" class="node">
<title>Node36</title>
<g id="a_Node000036"><a xlink:title=" ">
<polygon fill="#e0e0e0" stroke="#999999" points="1491.5,-316 1429.5,-316 1429.5,-297 1491.5,-297 1491.5,-316"/>
<text text-anchor="middle" x="1460.5" y="-304" font-family="Helvetica,sans-Serif" font-size="10.00">G4Orb.hh</text>
</a>
</g>
</g>
<!-- Node2&#45;&gt;Node36 -->
<g id="edge41_Node000002_Node000036" class="edge">
<title>Node2&#45;&gt;Node36</title>
<g id="a_edge41_Node000002_Node000036"><a xlink:title=" ">
<path fill="none" stroke="#63b8ff" d="M1460.5,-351.75C1460.5,-344.8 1460.5,-334.85 1460.5,-326.13"/>
<polygon fill="#63b8ff" stroke="#63b8ff" points="1464,-326.09 1460.5,-316.09 1457,-326.09 1464,-326.09"/>
</a>
</g>
</g>
<!-- Node37 -->
<g id="Node000037" class="node">
<title>Node37</title>
<g id="a_Node000037"><a xlink:title=" ">
<polygon fill="#e0e0e0" stroke="#999999" points="1687.5,-316 1509.5,-316 1509.5,-297 1687.5,-297 1687.5,-316"/>
<text text-anchor="middle" x="1598.5" y="-304" font-family="Helvetica,sans-Serif" font-size="10.00">G4VUserDetectorConstruction.hh</text>
</a>
</g>
</g>
<!-- Node2&#45;&gt;Node37 -->
<g id="edge42_Node000002_Node000037" class="edge">
<title>Node2&#45;&gt;Node37</title>
<g id="a_edge42_Node000002_Node000037"><a xlink:title=" ">
<path fill="none" stroke="#63b8ff" d="M1482.67,-351.98C1505.27,-343.3 1540.56,-329.75 1566.25,-319.88"/>
<polygon fill="#63b8ff" stroke="#63b8ff" points="1567.84,-323.02 1575.92,-316.17 1565.33,-316.49 1567.84,-323.02"/>
</a>
</g>
</g>
<!-- Node4 -->
<g id="Node000004" class="node">
<title>Node4</title>
<g id="a_Node000004"><a xlink:href="_o_m_sim_detector_component_8hh.html" target="_top" xlink:title="Provides helper base class OMSimDetectorComponent for constructing and managing detector components i...">
<polygon fill="white" stroke="#666666" points="1131,-206 966,-206 966,-187 1131,-187 1131,-206"/>
<text text-anchor="middle" x="1048.5" y="-194" font-family="Helvetica,sans-Serif" font-size="10.00">OMSimDetectorComponent.hh</text>
</a>
</g>
</g>
<!-- Node3&#45;&gt;Node4 -->
<g id="edge3_Node000003_Node000004" class="edge">
<title>Node3&#45;&gt;Node4</title>
<g id="a_edge3_Node000003_Node000004"><a xlink:title=" ">
<path fill="none" stroke="#63b8ff" d="M1318.94,-296.84C1266.77,-277.68 1141.41,-231.63 1081.48,-209.62"/>
<polygon fill="#63b8ff" stroke="#63b8ff" points="1082.36,-206.21 1071.77,-206.05 1079.95,-212.78 1082.36,-206.21"/>
</a>
</g>
</g>
<!-- Node25 -->
<g id="Node000025" class="node">
<title>Node25</title>
<g id="a_Node000025"><a xlink:href="_o_m_sim_hit_manager_8hh.html" target="_top" xlink:title="Defines structures and classes related to optical module photon hit management.">
<polygon fill="white" stroke="#666666" points="1407,-206 1284,-206 1284,-187 1407,-187 1407,-206"/>
<text text-anchor="middle" x="1345.5" y="-194" font-family="Helvetica,sans-Serif" font-size="10.00">OMSimHitManager.hh</text>
</a>
</g>
</g>
<!-- Node3&#45;&gt;Node25 -->
<g id="edge24_Node000003_Node000025" class="edge">
<title>Node3&#45;&gt;Node25</title>
<g id="a_edge24_Node000003_Node000025"><a xlink:title=" ">
<path fill="none" stroke="#63b8ff" d="M1342.75,-296.66C1343.23,-279.17 1344.32,-239.8 1344.98,-216.27"/>
<polygon fill="#63b8ff" stroke="#63b8ff" points="1348.48,-216.25 1345.26,-206.16 1341.48,-216.06 1348.48,-216.25"/>
</a>
</g>
</g>
<!-- Node33 -->
<g id="Node000033" class="node">
<title>Node33</title>
<g id="a_Node000033"><a xlink:href="_o_m_sim_p_m_t_construction_8hh.html" target="_top" xlink:title="Construction of the PMTs.">
<polygon fill="white" stroke="#666666" points="1519,-261 1370,-261 1370,-242 1519,-242 1519,-261"/>
<text text-anchor="middle" x="1444.5" y="-249" font-family="Helvetica,sans-Serif" font-size="10.00">OMSimPMTConstruction.hh</text>
</a>
</g>
</g>
<!-- Node3&#45;&gt;Node33 -->
<g id="edge35_Node000003_Node000033" class="edge">
<title>Node3&#45;&gt;Node33</title>
<g id="a_edge35_Node000003_Node000033"><a xlink:title=" ">
<path fill="none" stroke="#63b8ff" d="M1358.89,-296.98C1375.07,-288.57 1400.07,-275.59 1418.88,-265.81"/>
<polygon fill="#63b8ff" stroke="#63b8ff" points="1420.55,-268.89 1427.81,-261.17 1417.33,-262.68 1420.55,-268.89"/>
</a>
</g>
</g>
<!-- Node5 -->
<g id="Node000005" class="node">
<title>Node5</title>
<g id="a_Node000005"><a xlink:href="_o_m_sim_input_data_8hh.html" target="_top" xlink:title="Definition of ParameterTable and OMSimInputData.">
<polygon fill="white" stroke="#666666" points="716,-151 601,-151 601,-132 716,-132 716,-151"/>
<text text-anchor="middle" x="658.5" y="-139" font-family="Helvetica,sans-Serif" font-size="10.00">OMSimInputData.hh</text>
</a>
</g>
</g>
<!-- Node4&#45;&gt;Node5 -->
<g id="edge4_Node000004_Node000005" class="edge">
<title>Node4&#45;&gt;Node5</title>
<g id="a_edge4_Node000004_Node000005"><a xlink:title=" ">
<path fill="none" stroke="#63b8ff" d="M985.84,-186.98C914.79,-177.33 799.35,-161.64 726.26,-151.71"/>
<polygon fill="#63b8ff" stroke="#63b8ff" points="726.61,-148.22 716.23,-150.35 725.67,-155.16 726.61,-148.22"/>
</a>
</g>
</g>
<!-- Node21 -->
<g id="Node000021" class="node">
<title>Node21</title>
<g id="a_Node000021"><a xlink:title=" ">
<polygon fill="#e0e0e0" stroke="#999999" points="841,-151 734,-151 734,-132 841,-132 841,-151"/>
<text text-anchor="middle" x="787.5" y="-139" font-family="Helvetica,sans-Serif" font-size="10.00">G4Transform3D.hh</text>
</a>
</g>
</g>
<!-- Node4&#45;&gt;Node21 -->
<g id="edge20_Node000004_Node000021" class="edge">
<title>Node4&#45;&gt;Node21</title>
<g id="a_edge20_Node000004_Node000021"><a xlink:title=" ">
<path fill="none" stroke="#63b8ff" d="M1006.57,-186.98C961.23,-177.78 888.89,-163.09 839.85,-153.13"/>
<polygon fill="#63b8ff" stroke="#63b8ff" points="840.26,-149.64 829.76,-151.08 838.87,-156.5 840.26,-149.64"/>
</a>
</g>
</g>
<!-- Node22 -->
<g id="Node000022" class="node">
<title>Node22</title>
<g id="a_Node000022"><a xlink:title=" ">
<polygon fill="#e0e0e0" stroke="#999999" points="967.5,-151 859.5,-151 859.5,-132 967.5,-132 967.5,-151"/>
<text text-anchor="middle" x="913.5" y="-139" font-family="Helvetica,sans-Serif" font-size="10.00">G4VisAttributes.hh</text>
</a>
</g>
</g>
<!-- Node4&#45;&gt;Node22 -->
<g id="edge21_Node000004_Node000022" class="edge">
<title>Node4&#45;&gt;Node22</title>
<g id="a_edge21_Node000004_Node000022"><a xlink:title=" ">
<path fill="none" stroke="#63b8ff" d="M1026.81,-186.98C1004.7,-178.3 970.18,-164.75 945.05,-154.88"/>
<polygon fill="#63b8ff" stroke="#63b8ff" points="946.17,-151.57 935.58,-151.17 943.61,-158.08 946.17,-151.57"/>
</a>
</g>
</g>
<!-- Node23 -->
<g id="Node000023" class="node">
<title>Node23</title>
<g id="a_Node000023"><a xlink:title=" ">
<polygon fill="#e0e0e0" stroke="#999999" points="1111,-151 986,-151 986,-132 1111,-132 1111,-151"/>
<text text-anchor="middle" x="1048.5" y="-139" font-family="Helvetica,sans-Serif" font-size="10.00">G4SubtractionSolid.hh</text>
</a>
</g>
</g>
<!-- Node4&#45;&gt;Node23 -->
<g id="edge22_Node000004_Node000023" class="edge">
<title>Node4&#45;&gt;Node23</title>
<g id="a_edge22_Node000004_Node000023"><a xlink:title=" ">
<path fill="none" stroke="#63b8ff" d="M1048.5,-186.75C1048.5,-179.8 1048.5,-169.85 1048.5,-161.13"/>
<polygon fill="#63b8ff" stroke="#63b8ff" points="1052,-161.09 1048.5,-151.09 1045,-161.09 1052,-161.09"/>
</a>
</g>
</g>
<!-- Node24 -->
<g id="Node000024" class="node">
<title>Node24</title>
<g id="a_Node000024"><a xlink:title=" ">
<polygon fill="#e0e0e0" stroke="#999999" points="1239.5,-151 1129.5,-151 1129.5,-132 1239.5,-132 1239.5,-151"/>
<text text-anchor="middle" x="1184.5" y="-139" font-family="Helvetica,sans-Serif" font-size="10.00">G4PVPlacement.hh</text>
</a>
</g>
</g>
<!-- Node4&#45;&gt;Node24 -->
<g id="edge23_Node000004_Node000024" class="edge">
<title>Node4&#45;&gt;Node24</title>
<g id="a_edge23_Node000004_Node000024"><a xlink:title=" ">
<path fill="none" stroke="#63b8ff" d="M1070.35,-186.98C1092.62,-178.3 1127.4,-164.75 1152.72,-154.88"/>
<polygon fill="#63b8ff" stroke="#63b8ff" points="1154.21,-158.06 1162.25,-151.17 1151.66,-151.54 1154.21,-158.06"/>
</a>
</g>
</g>
<!-- Node6 -->
<g id="Node000006" class="node">
<title>Node6</title>
<g id="a_Node000006"><a xlink:href="_o_m_sim_logger_8hh_source.html" target="_top" xlink:title=" ">
<polygon fill="white" stroke="#666666" points="319,-90.5 220,-90.5 220,-71.5 319,-71.5 319,-90.5"/>
<text text-anchor="middle" x="269.5" y="-78.5" font-family="Helvetica,sans-Serif" font-size="10.00">OMSimLogger.hh</text>
</a>
</g>
</g>
<!-- Node5&#45;&gt;Node6 -->
<g id="edge5_Node000005_Node000006" class="edge">
<title>Node5&#45;&gt;Node6</title>
<g id="a_edge5_Node000005_Node000006"><a xlink:title=" ">
<path fill="none" stroke="#63b8ff" d="M601.94,-131.99C529.18,-121.05 403.38,-102.13 329.16,-90.97"/>
<polygon fill="#63b8ff" stroke="#63b8ff" points="329.45,-87.48 319.04,-89.45 328.41,-94.4 329.45,-87.48"/>
</a>
</g>
</g>
<!-- Node11 -->
<g id="Node000011" class="node">
<title>Node11</title>
<g id="a_Node000011"><a xlink:href="_o_m_sim_op_boundary_process_8hh_source.html" target="_top" xlink:title=" ">
<polygon fill="white" stroke="#666666" points="835.5,-90.5 671.5,-90.5 671.5,-71.5 835.5,-71.5 835.5,-90.5"/>
<text text-anchor="middle" x="753.5" y="-78.5" font-family="Helvetica,sans-Serif" font-size="10.00">OMSimOpBoundaryProcess.hh</text>
</a>
</g>
</g>
<!-- Node5&#45;&gt;Node11 -->
<g id="edge10_Node000005_Node000011" class="edge">
<title>Node5&#45;&gt;Node11</title>
<g id="a_edge10_Node000005_Node000011"><a xlink:title=" ">
<path fill="none" stroke="#63b8ff" d="M672.52,-131.87C687.81,-122.45 712.53,-107.23 730.64,-96.08"/>
<polygon fill="#63b8ff" stroke="#63b8ff" points="732.75,-98.89 739.42,-90.67 729.07,-92.93 732.75,-98.89"/>
</a>
</g>
</g>
<!-- Node19 -->
<g id="Node000019" class="node">
<title>Node19</title>
<g id="a_Node000019"><a xlink:title=" ">
<polygon fill="#e0e0e0" stroke="#999999" points="1172,-90.5 1053,-90.5 1053,-71.5 1172,-71.5 1172,-90.5"/>
<text text-anchor="middle" x="1112.5" y="-78.5" font-family="Helvetica,sans-Serif" font-size="10.00">G4SystemOfUnits.hh</text>
</a>
</g>
</g>
<!-- Node5&#45;&gt;Node19 -->
<g id="edge18_Node000005_Node000019" class="edge">
<title>Node5&#45;&gt;Node19</title>
<g id="a_edge18_Node000005_Node000019"><a xlink:title=" ">
<path fill="none" stroke="#63b8ff" d="M716.46,-133.03C799.78,-122.29 953.21,-102.52 1042.67,-91"/>
<polygon fill="#63b8ff" stroke="#63b8ff" points="1043.25,-94.45 1052.72,-89.7 1042.36,-87.51 1043.25,-94.45"/>
</a>
</g>
</g>
<!-- Node20 -->
<g id="Node000020" class="node">
<title>Node20</title>
<g id="a_Node000020"><a xlink:title=" ">
<polygon fill="#e0e0e0" stroke="#999999" points="967,-96 854,-96 854,-66 967,-66 967,-96"/>
<text text-anchor="start" x="862" y="-84" font-family="Helvetica,sans-Serif" font-size="10.00">boost/property_tree</text>
<text text-anchor="middle" x="910.5" y="-73" font-family="Helvetica,sans-Serif" font-size="10.00">/json_parser.hpp</text>
</a>
</g>
</g>
<!-- Node5&#45;&gt;Node20 -->
<g id="edge19_Node000005_Node000020" class="edge">
<title>Node5&#45;&gt;Node20</title>
<g id="a_edge19_Node000005_Node000020"><a xlink:title=" ">
<path fill="none" stroke="#63b8ff" d="M695.14,-131.99C734.01,-122.97 796.26,-108.52 843.85,-97.47"/>
<polygon fill="#63b8ff" stroke="#63b8ff" points="844.83,-100.84 853.78,-95.17 843.24,-94.02 844.83,-100.84"/>
</a>
</g>
</g>
<!-- Node7 -->
<g id="Node000007" class="node">
<title>Node7</title>
<g id="a_Node000007"><a xlink:title=" ">
<polygon fill="#e0e0e0" stroke="#999999" points="93,-24.5 0,-24.5 0,-5.5 93,-5.5 93,-24.5"/>
<text text-anchor="middle" x="46.5" y="-12.5" font-family="Helvetica,sans-Serif" font-size="10.00">spdlog/spdlog.h</text>
</a>
</g>
</g>
<!-- Node6&#45;&gt;Node7 -->
<g id="edge6_Node000006_Node000007" class="edge">
<title>Node6&#45;&gt;Node7</title>
<g id="a_edge6_Node000006_Node000007"><a xlink:title=" ">
<path fill="none" stroke="#63b8ff" d="M239.43,-71.37C199.83,-60 130.11,-40 86.21,-27.4"/>
<polygon fill="#63b8ff" stroke="#63b8ff" points="87.03,-23.99 76.45,-24.6 85.1,-30.72 87.03,-23.99"/>
</a>
</g>
</g>
<!-- Node8 -->
<g id="Node000008" class="node">
<title>Node8</title>
<g id="a_Node000008"><a xlink:title=" ">
<polygon fill="#e0e0e0" stroke="#999999" points="222,-30 111,-30 111,0 222,0 222,-30"/>
<text text-anchor="start" x="119" y="-18" font-family="Helvetica,sans-Serif" font-size="10.00">spdlog/sinks/stdout</text>
<text text-anchor="middle" x="166.5" y="-7" font-family="Helvetica,sans-Serif" font-size="10.00">_color_sinks.h</text>
</a>
</g>
</g>
<!-- Node6&#45;&gt;Node8 -->
<g id="edge7_Node000006_Node000008" class="edge">
<title>Node6&#45;&gt;Node8</title>
<g id="a_edge7_Node000006_Node000008"><a xlink:title=" ">
<path fill="none" stroke="#63b8ff" d="M255.61,-71.37C240.85,-62.2 217.02,-47.39 197.72,-35.4"/>
<polygon fill="#63b8ff" stroke="#63b8ff" points="199.56,-32.42 189.22,-30.12 195.86,-38.37 199.56,-32.42"/>
</a>
</g>
</g>
<!-- Node9 -->
<g id="Node000009" class="node">
<title>Node9</title>
<g id="a_Node000009"><a xlink:title=" ">
<polygon fill="#e0e0e0" stroke="#999999" points="298.5,-24.5 240.5,-24.5 240.5,-5.5 298.5,-5.5 298.5,-24.5"/>
<text text-anchor="middle" x="269.5" y="-12.5" font-family="Helvetica,sans-Serif" font-size="10.00">memory</text>
</a>
</g>
</g>
<!-- Node6&#45;&gt;Node9 -->
<g id="edge8_Node000006_Node000009" class="edge">
<title>Node6&#45;&gt;Node9</title>
<g id="a_edge8_Node000006_Node000009"><a xlink:title=" ">
<path fill="none" stroke="#63b8ff" d="M269.5,-71.37C269.5,-62.16 269.5,-47.29 269.5,-35.27"/>
<polygon fill="#63b8ff" stroke="#63b8ff" points="273,-34.91 269.5,-24.91 266,-34.91 273,-34.91"/>
</a>
</g>
</g>
<!-- Node10 -->
<g id="Node000010" class="node">
<title>Node10</title>
<g id="a_Node000010"><a xlink:title=" ">
<polygon fill="#e0e0e0" stroke="#999999" points="414.5,-24.5 316.5,-24.5 316.5,-5.5 414.5,-5.5 414.5,-24.5"/>
<text text-anchor="middle" x="365.5" y="-12.5" font-family="Helvetica,sans-Serif" font-size="10.00">spdlog/fmt/fmt.h</text>
</a>
</g>
</g>
<!-- Node6&#45;&gt;Node10 -->
<g id="edge9_Node000006_Node000010" class="edge">
<title>Node6&#45;&gt;Node10</title>
<g id="a_edge9_Node000006_Node000010"><a xlink:title=" ">
<path fill="none" stroke="#63b8ff" d="M282.45,-71.37C298.19,-60.87 325,-43 343.9,-30.4"/>
<polygon fill="#63b8ff" stroke="#63b8ff" points="346.07,-33.16 352.45,-24.7 342.19,-27.33 346.07,-33.16"/>
</a>
</g>
</g>
<!-- Node12 -->
<g id="Node000012" class="node">
<title>Node12</title>
<g id="a_Node000012"><a xlink:title=" ">
<polygon fill="#e0e0e0" stroke="#999999" points="546,-24.5 433,-24.5 433,-5.5 546,-5.5 546,-24.5"/>
<text text-anchor="middle" x="489.5" y="-12.5" font-family="Helvetica,sans-Serif" font-size="10.00">G4OpticalPhoton.hh</text>
</a>
</g>
</g>
<!-- Node11&#45;&gt;Node12 -->
<g id="edge11_Node000011_Node000012" class="edge">
<title>Node11&#45;&gt;Node12</title>
<g id="a_edge11_Node000011_Node000012"><a xlink:title=" ">
<path fill="none" stroke="#63b8ff" d="M718.17,-71.44C670.75,-59.94 586.49,-39.51 534.56,-26.92"/>
<polygon fill="#63b8ff" stroke="#63b8ff" points="535.16,-23.47 524.62,-24.51 533.51,-30.27 535.16,-23.47"/>
</a>
</g>
</g>
<!-- Node13 -->
<g id="Node000013" class="node">
<title>Node13</title>
<g id="a_Node000013"><a xlink:title=" ">
<polygon fill="#e0e0e0" stroke="#999999" points="680.5,-24.5 564.5,-24.5 564.5,-5.5 680.5,-5.5 680.5,-24.5"/>
<text text-anchor="middle" x="622.5" y="-12.5" font-family="Helvetica,sans-Serif" font-size="10.00">G4OpticalSurface.hh</text>
</a>
</g>
</g>
<!-- Node11&#45;&gt;Node13 -->
<g id="edge12_Node000011_Node000013" class="edge">
<title>Node11&#45;&gt;Node13</title>
<g id="a_edge12_Node000011_Node000013"><a xlink:title=" ">
<path fill="none" stroke="#63b8ff" d="M735.83,-71.37C713.66,-60.54 675.42,-41.85 649.55,-29.22"/>
<polygon fill="#63b8ff" stroke="#63b8ff" points="650.83,-25.94 640.31,-24.7 647.75,-32.23 650.83,-25.94"/>
</a>
</g>
</g>
<!-- Node14 -->
<g id="Node000014" class="node">
<title>Node14</title>
<g id="a_Node000014"><a xlink:title=" ">
<polygon fill="#e0e0e0" stroke="#999999" points="808.5,-24.5 698.5,-24.5 698.5,-5.5 808.5,-5.5 808.5,-24.5"/>
<text text-anchor="middle" x="753.5" y="-12.5" font-family="Helvetica,sans-Serif" font-size="10.00">G4RandomTools.hh</text>
</a>
</g>
</g>
<!-- Node11&#45;&gt;Node14 -->
<g id="edge13_Node000011_Node000014" class="edge">
<title>Node11&#45;&gt;Node14</title>
<g id="a_edge13_Node000011_Node000014"><a xlink:title=" ">
<path fill="none" stroke="#63b8ff" d="M753.5,-71.37C753.5,-62.16 753.5,-47.29 753.5,-35.27"/>
<polygon fill="#63b8ff" stroke="#63b8ff" points="757,-34.91 753.5,-24.91 750,-34.91 757,-34.91"/>
</a>
</g>
</g>
<!-- Node15 -->
<g id="Node000015" class="node">
<title>Node15</title>
<g id="a_Node000015"><a xlink:title=" ">
<polygon fill="#e0e0e0" stroke="#999999" points="956.5,-24.5 826.5,-24.5 826.5,-5.5 956.5,-5.5 956.5,-24.5"/>
<text text-anchor="middle" x="891.5" y="-12.5" font-family="Helvetica,sans-Serif" font-size="10.00">G4VDiscreteProcess.hh</text>
</a>
</g>
</g>
<!-- Node11&#45;&gt;Node15 -->
<g id="edge14_Node000011_Node000015" class="edge">
<title>Node11&#45;&gt;Node15</title>
<g id="a_edge14_Node000011_Node000015"><a xlink:title=" ">
<path fill="none" stroke="#63b8ff" d="M772.11,-71.37C795.57,-60.49 836.11,-41.69 863.36,-29.05"/>
<polygon fill="#63b8ff" stroke="#63b8ff" points="865.14,-32.08 872.74,-24.7 862.2,-25.73 865.14,-32.08"/>
</a>
</g>
</g>
<!-- Node16 -->
<g id="Node000016" class="node">
<title>Node16</title>
<g id="a_Node000016"><a xlink:title=" ">
<polygon fill="#e0e0e0" stroke="#999999" points="1132,-24.5 975,-24.5 975,-5.5 1132,-5.5 1132,-24.5"/>
<text text-anchor="middle" x="1053.5" y="-12.5" font-family="Helvetica,sans-Serif" font-size="10.00">G4VUserTrackInformation.hh</text>
</a>
</g>
</g>
<!-- Node11&#45;&gt;Node16 -->
<g id="edge15_Node000011_Node000016" class="edge">
<title>Node11&#45;&gt;Node16</title>
<g id="a_edge15_Node000011_Node000016"><a xlink:title=" ">
<path fill="none" stroke="#63b8ff" d="M793.65,-71.44C847.98,-59.84 944.89,-39.17 1003.77,-26.61"/>
<polygon fill="#63b8ff" stroke="#63b8ff" points="1004.54,-30.02 1013.59,-24.51 1003.08,-23.18 1004.54,-30.02"/>
</a>
</g>
</g>
<!-- Node17 -->
<g id="Node000017" class="node">
<title>Node17</title>
<g id="a_Node000017"><a xlink:title=" ">
<polygon fill="#e0e0e0" stroke="#999999" points="1240.5,-24.5 1150.5,-24.5 1150.5,-5.5 1240.5,-5.5 1240.5,-24.5"/>
<text text-anchor="middle" x="1195.5" y="-12.5" font-family="Helvetica,sans-Serif" font-size="10.00">G4AutoLock.hh</text>
</a>
</g>
</g>
<!-- Node11&#45;&gt;Node17 -->
<g id="edge16_Node000011_Node000017" class="edge">
<title>Node11&#45;&gt;Node17</title>
<g id="a_edge16_Node000011_Node000017"><a xlink:title=" ">
<path fill="none" stroke="#63b8ff" d="M807.35,-71.43C819.56,-69.56 832.47,-67.66 844.5,-66 975.79,-47.92 1010.24,-54.4 1140.5,-30 1145.22,-29.12 1150.13,-28.06 1154.99,-26.94"/>
<polygon fill="#63b8ff" stroke="#63b8ff" points="1155.93,-30.31 1164.82,-24.55 1154.28,-23.51 1155.93,-30.31"/>
</a>
</g>
</g>
<!-- Node18 -->
<g id="Node000018" class="node">
<title>Node18</title>
<g id="a_Node000018"><a xlink:title=" ">
<polygon fill="#e0e0e0" stroke="#999999" points="1352.5,-24.5 1258.5,-24.5 1258.5,-5.5 1352.5,-5.5 1352.5,-24.5"/>
<text text-anchor="middle" x="1305.5" y="-12.5" font-family="Helvetica,sans-Serif" font-size="10.00">G4Threading.hh</text>
</a>
</g>
</g>
<!-- Node11&#45;&gt;Node18 -->
<g id="edge17_Node000011_Node000018" class="edge">
<title>Node11&#45;&gt;Node18</title>
<g id="a_edge17_Node000011_Node000018"><a xlink:title=" ">
<path fill="none" stroke="#63b8ff" d="M805.39,-71.43C818.16,-69.48 831.81,-67.54 844.5,-66 1023.9,-44.25 1071.3,-60.01 1249.5,-30 1254.62,-29.14 1259.96,-28.05 1265.22,-26.87"/>
<polygon fill="#63b8ff" stroke="#63b8ff" points="1266.25,-30.22 1275.17,-24.5 1264.63,-23.41 1266.25,-30.22"/>
</a>
</g>
</g>
<!-- Node25&#45;&gt;Node17 -->
<g id="edge33_Node000025_Node000017" class="edge">
<title>Node25&#45;&gt;Node17</title>
<g id="a_edge33_Node000025_Node000017"><a xlink:title=" ">
<path fill="none" stroke="#63b8ff" d="M1338.27,-186.84C1314.75,-158.7 1240.22,-69.52 1209.23,-32.43"/>
<polygon fill="#63b8ff" stroke="#63b8ff" points="1211.76,-30 1202.66,-24.57 1206.39,-34.49 1211.76,-30"/>
</a>
</g>
</g>
<!-- Node25&#45;&gt;Node18 -->
<g id="edge34_Node000025_Node000018" class="edge">
<title>Node25&#45;&gt;Node18</title>
<g id="a_edge34_Node000025_Node000018"><a xlink:title=" ">
<path fill="none" stroke="#63b8ff" d="M1340.51,-186.94C1335.64,-178.2 1328.41,-164.1 1324.5,-151 1312.46,-110.7 1307.98,-61.3 1306.37,-34.85"/>
<polygon fill="#63b8ff" stroke="#63b8ff" points="1309.85,-34.52 1305.82,-24.72 1302.86,-34.89 1309.85,-34.52"/>
</a>
</g>
</g>
<!-- Node26 -->
<g id="Node000026" class="node">
<title>Node26</title>
<g id="a_Node000026"><a xlink:href="_o_m_sim_p_m_t_response_8hh.html" target="_top" xlink:title="Simulation of PMT response.">
<polygon fill="white" stroke="#666666" points="1663,-151 1528,-151 1528,-132 1663,-132 1663,-151"/>
<text text-anchor="middle" x="1595.5" y="-139" font-family="Helvetica,sans-Serif" font-size="10.00">OMSimPMTResponse.hh</text>
</a>
</g>
</g>
<!-- Node25&#45;&gt;Node26 -->
<g id="edge25_Node000025_Node000026" class="edge">
<title>Node25&#45;&gt;Node26</title>
<g id="a_edge25_Node000025_Node000026"><a xlink:title=" ">
<path fill="none" stroke="#63b8ff" d="M1385.67,-186.98C1429,-177.8 1498.09,-163.15 1545.06,-153.19"/>
<polygon fill="#63b8ff" stroke="#63b8ff" points="1545.96,-156.58 1555.02,-151.08 1544.51,-149.73 1545.96,-156.58"/>
</a>
</g>
</g>
<!-- Node31 -->
<g id="Node000031" class="node">
<title>Node31</title>
<g id="a_Node000031"><a xlink:title=" ">
<polygon fill="#e0e0e0" stroke="#999999" points="1437,-151 1334,-151 1334,-132 1437,-132 1437,-151"/>
<text text-anchor="middle" x="1385.5" y="-139" font-family="Helvetica,sans-Serif" font-size="10.00">G4ThreeVector.hh</text>
</a>
</g>
</g>
<!-- Node25&#45;&gt;Node31 -->
<g id="edge31_Node000025_Node000031" class="edge">
<title>Node25&#45;&gt;Node31</title>
<g id="a_edge31_Node000025_Node000031"><a xlink:title=" ">
<path fill="none" stroke="#63b8ff" d="M1352.11,-186.75C1357.76,-179.26 1366.04,-168.28 1372.95,-159.13"/>
<polygon fill="#63b8ff" stroke="#63b8ff" points="1375.79,-161.18 1379.02,-151.09 1370.2,-156.96 1375.79,-161.18"/>
</a>
</g>
</g>
<!-- Node32 -->
<g id="Node000032" class="node">
<title>Node32</title>
<g id="a_Node000032"><a xlink:title=" ">
<polygon fill="#e0e0e0" stroke="#999999" points="1510,-151 1455,-151 1455,-132 1510,-132 1510,-151"/>
<text text-anchor="middle" x="1482.5" y="-139" font-family="Helvetica,sans-Serif" font-size="10.00">fstream</text>
</a>
</g>
</g>
<!-- Node25&#45;&gt;Node32 -->
<g id="edge32_Node000025_Node000032" class="edge">
<title>Node25&#45;&gt;Node32</title>
<g id="a_edge32_Node000025_Node000032"><a xlink:title=" ">
<path fill="none" stroke="#63b8ff" d="M1367.51,-186.98C1389.95,-178.3 1424.98,-164.75 1450.49,-154.88"/>
<polygon fill="#63b8ff" stroke="#63b8ff" points="1452.02,-158.04 1460.09,-151.17 1449.5,-151.51 1452.02,-158.04"/>
</a>
</g>
</g>
<!-- Node26&#45;&gt;Node19 -->
<g id="edge26_Node000026_Node000019" class="edge">
<title>Node26&#45;&gt;Node19</title>
<g id="a_edge26_Node000026_Node000019"><a xlink:title=" ">
<path fill="none" stroke="#63b8ff" d="M1527.83,-132.3C1436.49,-121.24 1274.58,-101.63 1182.2,-90.44"/>
<polygon fill="#63b8ff" stroke="#63b8ff" points="1182.46,-86.95 1172.12,-89.22 1181.62,-93.9 1182.46,-86.95"/>
</a>
</g>
</g>
<!-- Node27 -->
<g id="Node000027" class="node">
<title>Node27</title>
<g id="a_Node000027"><a xlink:title=" ">
<polygon fill="#e0e0e0" stroke="#999999" points="1524,-90.5 1451,-90.5 1451,-71.5 1524,-71.5 1524,-90.5"/>
<text text-anchor="middle" x="1487.5" y="-78.5" font-family="Helvetica,sans-Serif" font-size="10.00">G4Types.hh</text>
</a>
</g>
</g>
<!-- Node26&#45;&gt;Node27 -->
<g id="edge27_Node000026_Node000027" class="edge">
<title>Node26&#45;&gt;Node27</title>
<g id="a_edge27_Node000026_Node000027"><a xlink:title=" ">
<path fill="none" stroke="#63b8ff" d="M1579.56,-131.87C1561.86,-122.28 1533.04,-106.67 1512.36,-95.47"/>
<polygon fill="#63b8ff" stroke="#63b8ff" points="1513.96,-92.35 1503.5,-90.67 1510.63,-98.51 1513.96,-92.35"/>
</a>
</g>
</g>
<!-- Node28 -->
<g id="Node000028" class="node">
<title>Node28</title>
<g id="a_Node000028"><a xlink:title=" ">
<polygon fill="#e0e0e0" stroke="#999999" points="1580.5,-90.5 1542.5,-90.5 1542.5,-71.5 1580.5,-71.5 1580.5,-90.5"/>
<text text-anchor="middle" x="1561.5" y="-78.5" font-family="Helvetica,sans-Serif" font-size="10.00">map</text>
</a>
</g>
</g>
<!-- Node26&#45;&gt;Node28 -->
<g id="edge28_Node000026_Node000028" class="edge">
<title>Node26&#45;&gt;Node28</title>
<g id="a_edge28_Node000026_Node000028"><a xlink:title=" ">
<path fill="none" stroke="#63b8ff" d="M1590.48,-131.87C1585.56,-123.4 1577.91,-110.24 1571.71,-99.57"/>
<polygon fill="#63b8ff" stroke="#63b8ff" points="1574.59,-97.55 1566.54,-90.67 1568.54,-101.07 1574.59,-97.55"/>
</a>
</g>
</g>
<!-- Node29 -->
<g id="Node000029" class="node">
<title>Node29</title>
<g id="a_Node000029"><a xlink:title=" ">
<polygon fill="#e0e0e0" stroke="#999999" points="1660,-90.5 1599,-90.5 1599,-71.5 1660,-71.5 1660,-90.5"/>
<text text-anchor="middle" x="1629.5" y="-78.5" font-family="Helvetica,sans-Serif" font-size="10.00">TGraph.h</text>
</a>
</g>
</g>
<!-- Node26&#45;&gt;Node29 -->
<g id="edge29_Node000026_Node000029" class="edge">
<title>Node26&#45;&gt;Node29</title>
<g id="a_edge29_Node000026_Node000029"><a xlink:title=" ">
<path fill="none" stroke="#63b8ff" d="M1600.52,-131.87C1605.44,-123.4 1613.09,-110.24 1619.29,-99.57"/>
<polygon fill="#63b8ff" stroke="#63b8ff" points="1622.46,-101.07 1624.46,-90.67 1616.41,-97.55 1622.46,-101.07"/>
</a>
</g>
</g>
<!-- Node30 -->
<g id="Node000030" class="node">
<title>Node30</title>
<g id="a_Node000030"><a xlink:title=" ">
<polygon fill="#e0e0e0" stroke="#999999" points="1731,-90.5 1678,-90.5 1678,-71.5 1731,-71.5 1731,-90.5"/>
<text text-anchor="middle" x="1704.5" y="-78.5" font-family="Helvetica,sans-Serif" font-size="10.00">TH2D.h</text>
</a>
</g>
</g>
<!-- Node26&#45;&gt;Node30 -->
<g id="edge30_Node000026_Node000030" class="edge">
<title>Node26&#45;&gt;Node30</title>
<g id="a_edge30_Node000026_Node000030"><a xlink:title=" ">
<path fill="none" stroke="#63b8ff" d="M1611.58,-131.87C1629.45,-122.28 1658.54,-106.67 1679.41,-95.47"/>
<polygon fill="#63b8ff" stroke="#63b8ff" points="1681.19,-98.48 1688.35,-90.67 1677.88,-92.31 1681.19,-98.48"/>
</a>
</g>
</g>
<!-- Node33&#45;&gt;Node4 -->
<g id="edge36_Node000033_Node000004" class="edge">
<title>Node33&#45;&gt;Node4</title>
<g id="a_edge36_Node000033_Node000004"><a xlink:title=" ">
<path fill="none" stroke="#63b8ff" d="M1380.88,-241.98C1310.4,-232.55 1196.93,-217.36 1122.52,-207.41"/>
<polygon fill="#63b8ff" stroke="#63b8ff" points="1122.67,-203.9 1112.29,-206.04 1121.74,-210.83 1122.67,-203.9"/>
</a>
</g>
</g>
<!-- Node33&#45;&gt;Node26 -->
<g id="edge38_Node000033_Node000026" class="edge">
<title>Node33&#45;&gt;Node26</title>
<g id="a_edge38_Node000033_Node000026"><a xlink:title=" ">
<path fill="none" stroke="#63b8ff" d="M1444.2,-241.89C1444.22,-228.42 1446.25,-202.31 1460.5,-187 1475.66,-170.71 1496.9,-160.37 1518.05,-153.82"/>
<polygon fill="#63b8ff" stroke="#63b8ff" points="1519.07,-157.17 1527.73,-151.07 1517.16,-150.43 1519.07,-157.17"/>
</a>
</g>
</g>
<!-- Node33&#45;&gt;Node33 -->
<g id="edge37_Node000033_Node000033" class="edge">
<title>Node33&#45;&gt;Node33</title>
<g id="a_edge37_Node000033_Node000033"><a xlink:title=" ">
<path fill="none" stroke="#63b8ff" d="M1487.8,-261.03C1513.21,-263.06 1537,-259.88 1537,-251.5 1537,-244.23 1519.11,-240.87 1497.79,-241.44"/>
<polygon fill="#63b8ff" stroke="#63b8ff" points="1497.6,-237.94 1487.8,-241.97 1497.97,-244.93 1497.6,-237.94"/>
</a>
</g>
</g>
<!-- Node34 -->
<g id="Node000034" class="node">
<title>Node34</title>
<g id="a_Node000034"><a xlink:title=" ">
<polygon fill="#e0e0e0" stroke="#999999" points="1567.5,-206 1469.5,-206 1469.5,-187 1567.5,-187 1567.5,-206"/>
<text text-anchor="middle" x="1518.5" y="-194" font-family="Helvetica,sans-Serif" font-size="10.00">G4UnionSolid.hh</text>
</a>
</g>
</g>
<!-- Node33&#45;&gt;Node34 -->
<g id="edge39_Node000033_Node000034" class="edge">
<title>Node33&#45;&gt;Node34</title>
<g id="a_edge39_Node000033_Node000034"><a xlink:title=" ">
<path fill="none" stroke="#63b8ff" d="M1456.39,-241.98C1467.65,-233.92 1484.79,-221.65 1498.21,-212.03"/>
<polygon fill="#63b8ff" stroke="#63b8ff" points="1500.3,-214.84 1506.39,-206.17 1496.23,-209.15 1500.3,-214.84"/>
</a>
</g>
</g>
<!-- Node35 -->
<g id="Node000035" class="node">
<title>Node35</title>
<g id="a_Node000035"><a xlink:title=" ">
<polygon fill="#e0e0e0" stroke="#999999" points="1653,-206 1586,-206 1586,-187 1653,-187 1653,-206"/>
<text text-anchor="middle" x="1619.5" y="-194" font-family="Helvetica,sans-Serif" font-size="10.00">G4Tubs.hh</text>
</a>
</g>
</g>
<!-- Node33&#45;&gt;Node35 -->
<g id="edge40_Node000033_Node000035" class="edge">
<title>Node33&#45;&gt;Node35</title>
<g id="a_edge40_Node000033_Node000035"><a xlink:title=" ">
<path fill="none" stroke="#63b8ff" d="M1472.62,-241.98C1502.12,-233.05 1548.69,-218.94 1581.47,-209.02"/>
<polygon fill="#63b8ff" stroke="#63b8ff" points="1582.61,-212.33 1591.16,-206.08 1580.58,-205.63 1582.61,-212.33"/>
</a>
</g>
</g>
</g>
</svg>
