<?xml version="1.0" encoding="UTF-8" standalone="no"?>
<!DOCTYPE svg PUBLIC "-//W3C//DTD SVG 1.1//EN"
 "http://www.w3.org/Graphics/SVG/1.1/DTD/svg11.dtd">
<!-- Generated by graphviz version 2.43.0 (0)
 -->
<!-- Title: OMSim.hh Pages: 1 -->
<svg width="2387pt" height="442pt"
 viewBox="0.00 0.00 2387.00 442.00" xmlns="http://www.w3.org/2000/svg" xmlns:xlink="http://www.w3.org/1999/xlink">
<g id="graph0" class="graph" transform="scale(1 1) rotate(0) translate(4 438)">
<title>OMSim.hh</title>
<polygon fill="white" stroke="transparent" points="-4,4 -4,-438 2383,-438 2383,4 -4,4"/>
<!-- Node1 -->
<g id="node1" class="node">
<title>Node1</title>
<g id="a_node1"><a xlink:title="Main simulation class for the Optical Module (OM) simulation. This file defines the OMSim class,...">
<polygon fill="#bfbfbf" stroke="black" points="1493.5,-414.5 1493.5,-433.5 1560.5,-433.5 1560.5,-414.5 1493.5,-414.5"/>
<text text-anchor="middle" x="1527" y="-421.5" font-family="Helvetica,sans-Serif" font-size="10.00">OMSim.hh</text>
</a>
</g>
</g>
<!-- Node2 -->
<g id="node2" class="node">
<title>Node2</title>
<g id="a_node2"><a xlink:href="_o_m_sim_detector_construction_8hh.html" target="_top" xlink:title=" ">
<polygon fill="white" stroke="black" points="650,-358.5 650,-377.5 820,-377.5 820,-358.5 650,-358.5"/>
<text text-anchor="middle" x="735" y="-365.5" font-family="Helvetica,sans-Serif" font-size="10.00">OMSimDetectorConstruction.hh</text>
</a>
</g>
</g>
<!-- Node1&#45;&gt;Node2 -->
<g id="edge1" class="edge">
<title>Node1&#45;&gt;Node2</title>
<path fill="none" stroke="midnightblue" d="M1493.2,-421.19C1393.52,-415.79 1091.89,-398.87 830.12,-378.07"/>
<polygon fill="midnightblue" stroke="midnightblue" points="830.29,-374.57 820.04,-377.26 829.73,-381.55 830.29,-374.57"/>
</g>
<!-- Node33 -->
<g id="node32" class="node">
<title>Node33</title>
<g id="a_node32"><a xlink:title=" ">
<polygon fill="white" stroke="#bfbfbf" points="838.5,-358.5 838.5,-377.5 959.5,-377.5 959.5,-358.5 838.5,-358.5"/>
<text text-anchor="middle" x="899" y="-365.5" font-family="Helvetica,sans-Serif" font-size="10.00">OMSimPhysicsList.hh</text>
</a>
</g>
</g>
<!-- Node1&#45;&gt;Node33 -->
<g id="edge35" class="edge">
<title>Node1&#45;&gt;Node33</title>
<path fill="none" stroke="midnightblue" d="M1493.24,-420.87C1407.53,-415.32 1174.41,-399.47 969.6,-378.12"/>
<polygon fill="midnightblue" stroke="midnightblue" points="969.87,-374.63 959.56,-377.07 969.14,-381.6 969.87,-374.63"/>
</g>
<!-- Node34 -->
<g id="node33" class="node">
<title>Node34</title>
<g id="a_node33"><a xlink:title=" ">
<polygon fill="white" stroke="#bfbfbf" points="977.5,-358.5 977.5,-377.5 1162.5,-377.5 1162.5,-358.5 977.5,-358.5"/>
<text text-anchor="middle" x="1070" y="-365.5" font-family="Helvetica,sans-Serif" font-size="10.00">OMSimPrimaryGeneratorAction.hh</text>
</a>
</g>
</g>
<!-- Node1&#45;&gt;Node34 -->
<g id="edge36" class="edge">
<title>Node1&#45;&gt;Node34</title>
<path fill="none" stroke="midnightblue" d="M1493.4,-419.03C1422.15,-410.61 1254.15,-390.76 1152.49,-378.75"/>
<polygon fill="midnightblue" stroke="midnightblue" points="1152.6,-375.24 1142.26,-377.54 1151.78,-382.19 1152.6,-375.24"/>
</g>
<!-- Node35 -->
<g id="node34" class="node">
<title>Node35</title>
<g id="a_node34"><a xlink:href="_o_m_sim_run_action_8hh.html" target="_top" xlink:title=" ">
<polygon fill="white" stroke="black" points="1180,-358.5 1180,-377.5 1296,-377.5 1296,-358.5 1180,-358.5"/>
<text text-anchor="middle" x="1238" y="-365.5" font-family="Helvetica,sans-Serif" font-size="10.00">OMSimRunAction.hh</text>
</a>
</g>
</g>
<!-- Node1&#45;&gt;Node35 -->
<g id="edge37" class="edge">
<title>Node1&#45;&gt;Node35</title>
<path fill="none" stroke="midnightblue" d="M1493.28,-416.7C1444.3,-407.55 1352.87,-390.46 1293.77,-379.42"/>
<polygon fill="midnightblue" stroke="midnightblue" points="1294.32,-375.96 1283.85,-377.57 1293.03,-382.84 1294.32,-375.96"/>
</g>
<!-- Node37 -->
<g id="node36" class="node">
<title>Node37</title>
<g id="a_node36"><a xlink:title=" ">
<polygon fill="white" stroke="#bfbfbf" points="1314.5,-358.5 1314.5,-377.5 1439.5,-377.5 1439.5,-358.5 1314.5,-358.5"/>
<text text-anchor="middle" x="1377" y="-365.5" font-family="Helvetica,sans-Serif" font-size="10.00">OMSimEventAction.hh</text>
</a>
</g>
</g>
<!-- Node1&#45;&gt;Node37 -->
<g id="edge39" class="edge">
<title>Node1&#45;&gt;Node37</title>
<path fill="none" stroke="midnightblue" d="M1503.23,-414.44C1478.11,-405.4 1438.29,-391.06 1410.1,-380.92"/>
<polygon fill="midnightblue" stroke="midnightblue" points="1411.25,-377.61 1400.66,-377.52 1408.88,-384.2 1411.25,-377.61"/>
</g>
<!-- Node38 -->
<g id="node37" class="node">
<title>Node38</title>
<g id="a_node37"><a xlink:href="_o_m_sim_tracking_action_8hh.html" target="_top" xlink:title=" ">
<polygon fill="white" stroke="black" points="1458,-358.5 1458,-377.5 1596,-377.5 1596,-358.5 1458,-358.5"/>
<text text-anchor="middle" x="1527" y="-365.5" font-family="Helvetica,sans-Serif" font-size="10.00">OMSimTrackingAction.hh</text>
</a>
</g>
</g>
<!-- Node1&#45;&gt;Node38 -->
<g id="edge40" class="edge">
<title>Node1&#45;&gt;Node38</title>
<path fill="none" stroke="midnightblue" d="M1527,-414.08C1527,-407.01 1527,-396.86 1527,-387.99"/>
<polygon fill="midnightblue" stroke="midnightblue" points="1530.5,-387.75 1527,-377.75 1523.5,-387.75 1530.5,-387.75"/>
</g>
<!-- Node40 -->
<g id="node39" class="node">
<title>Node40</title>
<g id="a_node39"><a xlink:href="_o_m_sim_stepping_action_8hh.html" target="_top" xlink:title="Defines OMSimSteppingAction.Currently it only checks for trapped photons.">
<polygon fill="white" stroke="black" points="1614,-358.5 1614,-377.5 1754,-377.5 1754,-358.5 1614,-358.5"/>
<text text-anchor="middle" x="1684" y="-365.5" font-family="Helvetica,sans-Serif" font-size="10.00">OMSimSteppingAction.hh</text>
</a>
</g>
</g>
<!-- Node1&#45;&gt;Node40 -->
<g id="edge42" class="edge">
<title>Node1&#45;&gt;Node40</title>
<path fill="none" stroke="midnightblue" d="M1551.88,-414.44C1578.29,-405.36 1620.22,-390.94 1649.74,-380.78"/>
<polygon fill="midnightblue" stroke="midnightblue" points="1650.92,-384.08 1659.24,-377.52 1648.64,-377.46 1650.92,-384.08"/>
</g>
<!-- Node42 -->
<g id="node41" class="node">
<title>Node42</title>
<g id="a_node41"><a xlink:href="_o_m_sim_u_iinterface_8hh.html" target="_top" xlink:title=" ">
<polygon fill="white" stroke="black" points="316.5,-302.5 316.5,-321.5 437.5,-321.5 437.5,-302.5 316.5,-302.5"/>
<text text-anchor="middle" x="377" y="-309.5" font-family="Helvetica,sans-Serif" font-size="10.00">OMSimUIinterface.hh</text>
</a>
</g>
</g>
<!-- Node1&#45;&gt;Node42 -->
<g id="edge44" class="edge">
<title>Node1&#45;&gt;Node42</title>
<path fill="none" stroke="midnightblue" d="M1493.22,-422.15C1352.21,-418.45 810.14,-402.88 641,-378 558.86,-365.92 464.97,-339.75 414.25,-324.56"/>
<polygon fill="midnightblue" stroke="midnightblue" points="414.99,-321.13 404.4,-321.59 412.96,-327.83 414.99,-321.13"/>
</g>
<!-- Node47 -->
<g id="node46" class="node">
<title>Node47</title>
<g id="a_node46"><a xlink:title=" ">
<polygon fill="white" stroke="#bfbfbf" points="1772,-358.5 1772,-377.5 1878,-377.5 1878,-358.5 1772,-358.5"/>
<text text-anchor="middle" x="1825" y="-365.5" font-family="Helvetica,sans-Serif" font-size="10.00">G4RunManager.hh</text>
</a>
</g>
</g>
<!-- Node1&#45;&gt;Node47 -->
<g id="edge51" class="edge">
<title>Node1&#45;&gt;Node47</title>
<path fill="none" stroke="midnightblue" d="M1560.61,-416.91C1611,-407.78 1706.77,-390.42 1768.16,-379.3"/>
<polygon fill="midnightblue" stroke="midnightblue" points="1768.87,-382.73 1778.08,-377.5 1767.62,-375.84 1768.87,-382.73"/>
</g>
<!-- Node48 -->
<g id="node47" class="node">
<title>Node48</title>
<g id="a_node47"><a xlink:title=" ">
<polygon fill="white" stroke="#bfbfbf" points="1896.5,-358.5 1896.5,-377.5 2003.5,-377.5 2003.5,-358.5 1896.5,-358.5"/>
<text text-anchor="middle" x="1950" y="-365.5" font-family="Helvetica,sans-Serif" font-size="10.00">G4VisExecutive.hh</text>
</a>
</g>
</g>
<!-- Node1&#45;&gt;Node48 -->
<g id="edge52" class="edge">
<title>Node1&#45;&gt;Node48</title>
<path fill="none" stroke="midnightblue" d="M1560.78,-418.98C1622.89,-411.54 1759.67,-394.96 1886.14,-378.09"/>
<polygon fill="midnightblue" stroke="midnightblue" points="1886.94,-381.52 1896.39,-376.72 1886.02,-374.58 1886.94,-381.52"/>
</g>
<!-- Node49 -->
<g id="node48" class="node">
<title>Node49</title>
<g id="a_node48"><a xlink:title=" ">
<polygon fill="white" stroke="#bfbfbf" points="2021.5,-358.5 2021.5,-377.5 2124.5,-377.5 2124.5,-358.5 2021.5,-358.5"/>
<text text-anchor="middle" x="2073" y="-365.5" font-family="Helvetica,sans-Serif" font-size="10.00">G4UIExecutive.hh</text>
</a>
</g>
</g>
<!-- Node1&#45;&gt;Node49 -->
<g id="edge53" class="edge">
<title>Node1&#45;&gt;Node49</title>
<path fill="none" stroke="midnightblue" d="M1560.65,-420.54C1638.23,-414.74 1835.78,-399.15 2011.13,-378.17"/>
<polygon fill="midnightblue" stroke="midnightblue" points="2011.81,-381.61 2021.31,-376.94 2010.97,-374.66 2011.81,-381.61"/>
</g>
<!-- Node50 -->
<g id="node49" class="node">
<title>Node50</title>
<g id="a_node49"><a xlink:title=" ">
<polygon fill="white" stroke="#bfbfbf" points="2143,-358.5 2143,-377.5 2211,-377.5 2211,-358.5 2143,-358.5"/>
<text text-anchor="middle" x="2177" y="-365.5" font-family="Helvetica,sans-Serif" font-size="10.00">filesystem</text>
</a>
</g>
</g>
<!-- Node1&#45;&gt;Node50 -->
<g id="edge54" class="edge">
<title>Node1&#45;&gt;Node50</title>
<path fill="none" stroke="midnightblue" d="M1560.73,-422.06C1651.59,-419.21 1909.19,-408.94 2132.85,-377.98"/>
<polygon fill="midnightblue" stroke="midnightblue" points="2133.39,-381.44 2142.8,-376.58 2132.42,-374.5 2133.39,-381.44"/>
</g>
<!-- Node51 -->
<g id="node50" class="node">
<title>Node51</title>
<g id="a_node50"><a xlink:title=" ">
<polygon fill="white" stroke="#bfbfbf" points="2229,-358.5 2229,-377.5 2379,-377.5 2379,-358.5 2229,-358.5"/>
<text text-anchor="middle" x="2304" y="-365.5" font-family="Helvetica,sans-Serif" font-size="10.00">boost/program_options.hpp</text>
</a>
</g>
</g>
<!-- Node1&#45;&gt;Node51 -->
<g id="edge55" class="edge">
<title>Node1&#45;&gt;Node51</title>
<path fill="none" stroke="midnightblue" d="M1560.57,-421.32C1659.57,-416.26 1959.11,-400.19 2218.91,-378.06"/>
<polygon fill="midnightblue" stroke="midnightblue" points="2219.24,-381.54 2228.91,-377.2 2218.65,-374.57 2219.24,-381.54"/>
</g>
<!-- Node3 -->
<g id="node3" class="node">
<title>Node3</title>
<g id="a_node3"><a xlink:href="_o_m_sim_optical_module_8hh.html" target="_top" xlink:title=" ">
<polygon fill="white" stroke="black" points="607.5,-302.5 607.5,-321.5 744.5,-321.5 744.5,-302.5 607.5,-302.5"/>
<text text-anchor="middle" x="676" y="-309.5" font-family="Helvetica,sans-Serif" font-size="10.00">OMSimOpticalModule.hh</text>
</a>
</g>
</g>
<!-- Node2&#45;&gt;Node3 -->
<g id="edge2" class="edge">
<title>Node2&#45;&gt;Node3</title>
<path fill="none" stroke="midnightblue" d="M725.52,-358.32C716.8,-350.34 703.66,-338.31 693.1,-328.65"/>
<polygon fill="midnightblue" stroke="midnightblue" points="695.39,-326 685.65,-321.83 690.67,-331.17 695.39,-326"/>
</g>
<!-- Node31 -->
<g id="node30" class="node">
<title>Node31</title>
<g id="a_node30"><a xlink:title=" ">
<polygon fill="white" stroke="#bfbfbf" points="763,-302.5 763,-321.5 825,-321.5 825,-302.5 763,-302.5"/>
<text text-anchor="middle" x="794" y="-309.5" font-family="Helvetica,sans-Serif" font-size="10.00">G4Orb.hh</text>
</a>
</g>
</g>
<!-- Node2&#45;&gt;Node31 -->
<g id="edge33" class="edge">
<title>Node2&#45;&gt;Node31</title>
<path fill="none" stroke="midnightblue" d="M744.48,-358.32C753.2,-350.34 766.34,-338.31 776.9,-328.65"/>
<polygon fill="midnightblue" stroke="midnightblue" points="779.33,-331.17 784.35,-321.83 774.61,-326 779.33,-331.17"/>
</g>
<!-- Node32 -->
<g id="node31" class="node">
<title>Node32</title>
<g id="a_node31"><a xlink:title=" ">
<polygon fill="white" stroke="#bfbfbf" points="843,-302.5 843,-321.5 1021,-321.5 1021,-302.5 843,-302.5"/>
<text text-anchor="middle" x="932" y="-309.5" font-family="Helvetica,sans-Serif" font-size="10.00">G4VUserDetectorConstruction.hh</text>
</a>
</g>
</g>
<!-- Node2&#45;&gt;Node32 -->
<g id="edge34" class="edge">
<title>Node2&#45;&gt;Node32</title>
<path fill="none" stroke="midnightblue" d="M766.22,-358.44C799.93,-349.2 853.8,-334.44 890.93,-324.26"/>
<polygon fill="midnightblue" stroke="midnightblue" points="892.21,-327.54 900.93,-321.52 890.36,-320.78 892.21,-327.54"/>
</g>
<!-- Node4 -->
<g id="node4" class="node">
<title>Node4</title>
<g id="a_node4"><a xlink:href="abc_detector_component_8hh.html" target="_top" xlink:title="Provides helper base class abcDetectorComponent for constructing and managing detector components in ...">
<polygon fill="white" stroke="black" points="997.5,-190.5 997.5,-209.5 1144.5,-209.5 1144.5,-190.5 997.5,-190.5"/>
<text text-anchor="middle" x="1071" y="-197.5" font-family="Helvetica,sans-Serif" font-size="10.00">abcDetectorComponent.hh</text>
</a>
</g>
</g>
<!-- Node3&#45;&gt;Node4 -->
<g id="edge3" class="edge">
<title>Node3&#45;&gt;Node4</title>
<path fill="none" stroke="midnightblue" d="M741.54,-302.48C808.93,-293.29 909.1,-278.33 946,-266 984.1,-253.28 1024.75,-230.13 1049,-215.17"/>
<polygon fill="midnightblue" stroke="midnightblue" points="1051.14,-217.97 1057.75,-209.69 1047.42,-212.03 1051.14,-217.97"/>
</g>
<!-- Node18 -->
<g id="node18" class="node">
<title>Node18</title>
<g id="a_node18"><a xlink:href="_o_m_sim_hit_manager_8hh.html" target="_top" xlink:title="Defines structures and classes related to optical module photon hit management.">
<polygon fill="white" stroke="black" points="481.5,-246.5 481.5,-265.5 604.5,-265.5 604.5,-246.5 481.5,-246.5"/>
<text text-anchor="middle" x="543" y="-253.5" font-family="Helvetica,sans-Serif" font-size="10.00">OMSimHitManager.hh</text>
</a>
</g>
</g>
<!-- Node3&#45;&gt;Node18 -->
<g id="edge17" class="edge">
<title>Node3&#45;&gt;Node18</title>
<path fill="none" stroke="midnightblue" d="M654.93,-302.44C632.94,-293.52 598.27,-279.44 573.34,-269.32"/>
<polygon fill="midnightblue" stroke="midnightblue" points="574.56,-266.04 563.98,-265.52 571.92,-272.52 574.56,-266.04"/>
</g>
<!-- Node28 -->
<g id="node27" class="node">
<title>Node28</title>
<g id="a_node27"><a xlink:href="_o_m_sim_p_m_t_construction_8hh.html" target="_top" xlink:title="Construction of the PMTs.">
<polygon fill="white" stroke="black" points="770.5,-246.5 770.5,-265.5 919.5,-265.5 919.5,-246.5 770.5,-246.5"/>
<text text-anchor="middle" x="845" y="-253.5" font-family="Helvetica,sans-Serif" font-size="10.00">OMSimPMTConstruction.hh</text>
</a>
</g>
</g>
<!-- Node3&#45;&gt;Node28 -->
<g id="edge27" class="edge">
<title>Node3&#45;&gt;Node28</title>
<path fill="none" stroke="midnightblue" d="M702.78,-302.44C731.33,-293.32 776.73,-278.81 808.54,-268.65"/>
<polygon fill="midnightblue" stroke="midnightblue" points="809.89,-271.89 818.35,-265.52 807.76,-265.23 809.89,-271.89"/>
</g>
<!-- Node5 -->
<g id="node5" class="node">
<title>Node5</title>
<g id="a_node5"><a xlink:href="_o_m_sim_input_data_8hh.html" target="_top" xlink:title="Definition of ParameterTable and InputDataManager.">
<polygon fill="white" stroke="black" points="792.5,-134.5 792.5,-153.5 907.5,-153.5 907.5,-134.5 792.5,-134.5"/>
<text text-anchor="middle" x="850" y="-141.5" font-family="Helvetica,sans-Serif" font-size="10.00">OMSimInputData.hh</text>
</a>
</g>
</g>
<!-- Node4&#45;&gt;Node5 -->
<g id="edge4" class="edge">
<title>Node4&#45;&gt;Node5</title>
<path fill="none" stroke="midnightblue" d="M1035.98,-190.44C997.75,-181.1 936.43,-166.12 894.74,-155.93"/>
<polygon fill="midnightblue" stroke="midnightblue" points="895.4,-152.49 884.85,-153.52 893.74,-159.29 895.4,-152.49"/>
</g>
<!-- Node14 -->
<g id="node14" class="node">
<title>Node14</title>
<g id="a_node14"><a xlink:title=" ">
<polygon fill="white" stroke="#bfbfbf" points="925.5,-134.5 925.5,-153.5 1032.5,-153.5 1032.5,-134.5 925.5,-134.5"/>
<text text-anchor="middle" x="979" y="-141.5" font-family="Helvetica,sans-Serif" font-size="10.00">G4Transform3D.hh</text>
</a>
</g>
</g>
<!-- Node4&#45;&gt;Node14 -->
<g id="edge13" class="edge">
<title>Node4&#45;&gt;Node14</title>
<path fill="none" stroke="midnightblue" d="M1056.22,-190.32C1041.73,-181.82 1019.43,-168.73 1002.51,-158.8"/>
<polygon fill="midnightblue" stroke="midnightblue" points="1004.14,-155.7 993.74,-153.65 1000.6,-161.74 1004.14,-155.7"/>
</g>
<!-- Node15 -->
<g id="node15" class="node">
<title>Node15</title>
<g id="a_node15"><a xlink:title=" ">
<polygon fill="white" stroke="#bfbfbf" points="1051,-134.5 1051,-153.5 1159,-153.5 1159,-134.5 1051,-134.5"/>
<text text-anchor="middle" x="1105" y="-141.5" font-family="Helvetica,sans-Serif" font-size="10.00">G4VisAttributes.hh</text>
</a>
</g>
</g>
<!-- Node4&#45;&gt;Node15 -->
<g id="edge14" class="edge">
<title>Node4&#45;&gt;Node15</title>
<path fill="none" stroke="midnightblue" d="M1076.61,-190.08C1081.37,-182.53 1088.32,-171.49 1094.15,-162.23"/>
<polygon fill="midnightblue" stroke="midnightblue" points="1097.12,-164.08 1099.49,-153.75 1091.2,-160.35 1097.12,-164.08"/>
</g>
<!-- Node16 -->
<g id="node16" class="node">
<title>Node16</title>
<g id="a_node16"><a xlink:title=" ">
<polygon fill="white" stroke="#bfbfbf" points="1177.5,-134.5 1177.5,-153.5 1302.5,-153.5 1302.5,-134.5 1177.5,-134.5"/>
<text text-anchor="middle" x="1240" y="-141.5" font-family="Helvetica,sans-Serif" font-size="10.00">G4SubtractionSolid.hh</text>
</a>
</g>
</g>
<!-- Node4&#45;&gt;Node16 -->
<g id="edge15" class="edge">
<title>Node4&#45;&gt;Node16</title>
<path fill="none" stroke="midnightblue" d="M1097.78,-190.44C1126.33,-181.32 1171.73,-166.81 1203.54,-156.65"/>
<polygon fill="midnightblue" stroke="midnightblue" points="1204.89,-159.89 1213.35,-153.52 1202.76,-153.23 1204.89,-159.89"/>
</g>
<!-- Node17 -->
<g id="node17" class="node">
<title>Node17</title>
<g id="a_node17"><a xlink:title=" ">
<polygon fill="white" stroke="#bfbfbf" points="1321,-134.5 1321,-153.5 1431,-153.5 1431,-134.5 1321,-134.5"/>
<text text-anchor="middle" x="1376" y="-141.5" font-family="Helvetica,sans-Serif" font-size="10.00">G4PVPlacement.hh</text>
</a>
</g>
</g>
<!-- Node4&#45;&gt;Node17 -->
<g id="edge16" class="edge">
<title>Node4&#45;&gt;Node17</title>
<path fill="none" stroke="midnightblue" d="M1119.33,-190.44C1173.2,-180.9 1260.31,-165.48 1317.86,-155.29"/>
<polygon fill="midnightblue" stroke="midnightblue" points="1318.66,-158.71 1327.9,-153.52 1317.44,-151.81 1318.66,-158.71"/>
</g>
<!-- Node6 -->
<g id="node6" class="node">
<title>Node6</title>
<g id="a_node6"><a xlink:href="_o_m_sim_logger_8hh.html" target="_top" xlink:title=" ">
<polygon fill="white" stroke="black" points="344.5,-73 344.5,-92 443.5,-92 443.5,-73 344.5,-73"/>
<text text-anchor="middle" x="394" y="-80" font-family="Helvetica,sans-Serif" font-size="10.00">OMSimLogger.hh</text>
</a>
</g>
</g>
<!-- Node5&#45;&gt;Node6 -->
<g id="edge5" class="edge">
<title>Node5&#45;&gt;Node6</title>
<path fill="none" stroke="midnightblue" d="M792.26,-135.23C789.13,-134.81 786.03,-134.4 783,-134 666.61,-118.63 530.57,-101.06 454.13,-91.22"/>
<polygon fill="midnightblue" stroke="midnightblue" points="454.11,-87.69 443.75,-89.89 453.22,-94.63 454.11,-87.69"/>
</g>
<!-- Node11 -->
<g id="node11" class="node">
<title>Node11</title>
<g id="a_node11"><a xlink:title=" ">
<polygon fill="white" stroke="#bfbfbf" points="705.5,-73 705.5,-92 848.5,-92 848.5,-73 705.5,-73"/>
<text text-anchor="middle" x="777" y="-80" font-family="Helvetica,sans-Serif" font-size="10.00">G4OpBoundaryProcess.hh</text>
</a>
</g>
</g>
<!-- Node5&#45;&gt;Node11 -->
<g id="edge10" class="edge">
<title>Node5&#45;&gt;Node11</title>
<path fill="none" stroke="midnightblue" d="M839.54,-134.48C828.05,-125.11 809.37,-109.88 795.41,-98.51"/>
<polygon fill="midnightblue" stroke="midnightblue" points="797.4,-95.61 787.44,-92.01 792.98,-101.04 797.4,-95.61"/>
</g>
<!-- Node12 -->
<g id="node12" class="node">
<title>Node12</title>
<g id="a_node12"><a xlink:title=" ">
<polygon fill="white" stroke="#bfbfbf" points="559.5,-73 559.5,-92 678.5,-92 678.5,-73 559.5,-73"/>
<text text-anchor="middle" x="619" y="-80" font-family="Helvetica,sans-Serif" font-size="10.00">G4SystemOfUnits.hh</text>
</a>
</g>
</g>
<!-- Node5&#45;&gt;Node12 -->
<g id="edge11" class="edge">
<title>Node5&#45;&gt;Node12</title>
<path fill="none" stroke="midnightblue" d="M816.9,-134.48C776.08,-123.96 706.59,-106.06 661.76,-94.51"/>
<polygon fill="midnightblue" stroke="midnightblue" points="662.59,-91.11 652.04,-92.01 660.85,-97.89 662.59,-91.11"/>
</g>
<!-- Node13 -->
<g id="node13" class="node">
<title>Node13</title>
<g id="a_node13"><a xlink:title=" ">
<polygon fill="white" stroke="#bfbfbf" points="866.5,-67.5 866.5,-97.5 979.5,-97.5 979.5,-67.5 866.5,-67.5"/>
<text text-anchor="start" x="874.5" y="-85.5" font-family="Helvetica,sans-Serif" font-size="10.00">boost/property_tree</text>
<text text-anchor="middle" x="923" y="-74.5" font-family="Helvetica,sans-Serif" font-size="10.00">/json_parser.hpp</text>
</a>
</g>
</g>
<!-- Node5&#45;&gt;Node13 -->
<g id="edge12" class="edge">
<title>Node5&#45;&gt;Node13</title>
<path fill="none" stroke="midnightblue" d="M860.46,-134.48C870.16,-126.57 884.99,-114.48 897.77,-104.07"/>
<polygon fill="midnightblue" stroke="midnightblue" points="900.26,-106.55 905.8,-97.52 895.83,-101.13 900.26,-106.55"/>
</g>
<!-- Node7 -->
<g id="node7" class="node">
<title>Node7</title>
<g id="a_node7"><a xlink:title=" ">
<polygon fill="white" stroke="#bfbfbf" points="176.5,-6 176.5,-25 269.5,-25 269.5,-6 176.5,-6"/>
<text text-anchor="middle" x="223" y="-13" font-family="Helvetica,sans-Serif" font-size="10.00">spdlog/spdlog.h</text>
</a>
</g>
</g>
<!-- Node6&#45;&gt;Node7 -->
<g id="edge6" class="edge">
<title>Node6&#45;&gt;Node7</title>
<path fill="none" stroke="midnightblue" d="M371.29,-72.87C341.44,-61.52 288.83,-41.52 254.97,-28.65"/>
<polygon fill="midnightblue" stroke="midnightblue" points="256.12,-25.35 245.53,-25.06 253.63,-31.89 256.12,-25.35"/>
</g>
<!-- Node8 -->
<g id="node8" class="node">
<title>Node8</title>
<g id="a_node8"><a xlink:title=" ">
<polygon fill="white" stroke="#bfbfbf" points="287.5,-0.5 287.5,-30.5 398.5,-30.5 398.5,-0.5 287.5,-0.5"/>
<text text-anchor="start" x="295.5" y="-18.5" font-family="Helvetica,sans-Serif" font-size="10.00">spdlog/sinks/stdout</text>
<text text-anchor="middle" x="343" y="-7.5" font-family="Helvetica,sans-Serif" font-size="10.00">_color_sinks.h</text>
</a>
</g>
</g>
<!-- Node6&#45;&gt;Node8 -->
<g id="edge7" class="edge">
<title>Node6&#45;&gt;Node8</title>
<path fill="none" stroke="midnightblue" d="M387.12,-72.73C380.3,-64.03 369.56,-50.34 360.38,-38.65"/>
<polygon fill="midnightblue" stroke="midnightblue" points="362.98,-36.3 354.05,-30.59 357.47,-40.62 362.98,-36.3"/>
</g>
<!-- Node9 -->
<g id="node9" class="node">
<title>Node9</title>
<g id="a_node9"><a xlink:title=" ">
<polygon fill="white" stroke="#bfbfbf" points="417,-6 417,-25 475,-25 475,-6 417,-6"/>
<text text-anchor="middle" x="446" y="-13" font-family="Helvetica,sans-Serif" font-size="10.00">memory</text>
</a>
</g>
</g>
<!-- Node6&#45;&gt;Node9 -->
<g id="edge8" class="edge">
<title>Node6&#45;&gt;Node9</title>
<path fill="none" stroke="midnightblue" d="M401.01,-72.73C409.12,-62.6 422.65,-45.69 432.76,-33.06"/>
<polygon fill="midnightblue" stroke="midnightblue" points="435.58,-35.12 439.1,-25.13 430.12,-30.75 435.58,-35.12"/>
</g>
<!-- Node10 -->
<g id="node10" class="node">
<title>Node10</title>
<g id="a_node10"><a xlink:title=" ">
<polygon fill="white" stroke="#bfbfbf" points="493,-6 493,-25 591,-25 591,-6 493,-6"/>
<text text-anchor="middle" x="542" y="-13" font-family="Helvetica,sans-Serif" font-size="10.00">spdlog/fmt/fmt.h</text>
</a>
</g>
</g>
<!-- Node6&#45;&gt;Node10 -->
<g id="edge9" class="edge">
<title>Node6&#45;&gt;Node10</title>
<path fill="none" stroke="midnightblue" d="M413.65,-72.87C439.09,-61.7 483.6,-42.15 512.95,-29.26"/>
<polygon fill="midnightblue" stroke="midnightblue" points="514.52,-32.39 522.27,-25.17 511.7,-25.98 514.52,-32.39"/>
</g>
<!-- Node19 -->
<g id="node19" class="node">
<title>Node19</title>
<g id="a_node19"><a xlink:href="_o_m_sim_p_m_t_response_8hh.html" target="_top" xlink:title="Simulation of PMT response.">
<polygon fill="white" stroke="red" points="642.5,-190.5 642.5,-209.5 777.5,-209.5 777.5,-190.5 642.5,-190.5"/>
<text text-anchor="middle" x="710" y="-197.5" font-family="Helvetica,sans-Serif" font-size="10.00">OMSimPMTResponse.hh</text>
</a>
</g>
</g>
<!-- Node18&#45;&gt;Node19 -->
<g id="edge18" class="edge">
<title>Node18&#45;&gt;Node19</title>
<path fill="none" stroke="midnightblue" d="M569.46,-246.44C597.68,-237.32 642.54,-222.81 673.97,-212.65"/>
<polygon fill="midnightblue" stroke="midnightblue" points="675.22,-215.92 683.66,-209.52 673.07,-209.26 675.22,-215.92"/>
</g>
<!-- Node24 -->
<g id="node23" class="node">
<title>Node24</title>
<g id="a_node23"><a xlink:title=" ">
<polygon fill="white" stroke="#bfbfbf" points="412.5,-190.5 412.5,-209.5 515.5,-209.5 515.5,-190.5 412.5,-190.5"/>
<text text-anchor="middle" x="464" y="-197.5" font-family="Helvetica,sans-Serif" font-size="10.00">G4ThreeVector.hh</text>
</a>
</g>
</g>
<!-- Node18&#45;&gt;Node24 -->
<g id="edge23" class="edge">
<title>Node18&#45;&gt;Node24</title>
<path fill="none" stroke="midnightblue" d="M530.31,-246.32C518.1,-237.98 499.42,-225.21 485,-215.35"/>
<polygon fill="midnightblue" stroke="midnightblue" points="486.89,-212.41 476.66,-209.65 482.94,-218.19 486.89,-212.41"/>
</g>
<!-- Node25 -->
<g id="node24" class="node">
<title>Node25</title>
<g id="a_node24"><a xlink:title=" ">
<polygon fill="white" stroke="#bfbfbf" points="226.5,-190.5 226.5,-209.5 281.5,-209.5 281.5,-190.5 226.5,-190.5"/>
<text text-anchor="middle" x="254" y="-197.5" font-family="Helvetica,sans-Serif" font-size="10.00">fstream</text>
</a>
</g>
</g>
<!-- Node18&#45;&gt;Node25 -->
<g id="edge24" class="edge">
<title>Node18&#45;&gt;Node25</title>
<path fill="none" stroke="midnightblue" d="M489.72,-246.47C440.78,-238.41 366.04,-225.55 291.83,-210.07"/>
<polygon fill="midnightblue" stroke="midnightblue" points="292.34,-206.6 281.84,-207.97 290.9,-213.45 292.34,-206.6"/>
</g>
<!-- Node26 -->
<g id="node25" class="node">
<title>Node26</title>
<g id="a_node25"><a xlink:title=" ">
<polygon fill="white" stroke="#bfbfbf" points="534,-190.5 534,-209.5 624,-209.5 624,-190.5 534,-190.5"/>
<text text-anchor="middle" x="579" y="-197.5" font-family="Helvetica,sans-Serif" font-size="10.00">G4AutoLock.hh</text>
</a>
</g>
</g>
<!-- Node18&#45;&gt;Node26 -->
<g id="edge25" class="edge">
<title>Node18&#45;&gt;Node26</title>
<path fill="none" stroke="midnightblue" d="M548.94,-246.08C553.98,-238.53 561.34,-227.49 567.51,-218.23"/>
<polygon fill="midnightblue" stroke="midnightblue" points="570.53,-220.01 573.17,-209.75 564.71,-216.13 570.53,-220.01"/>
</g>
<!-- Node27 -->
<g id="node26" class="node">
<title>Node27</title>
<g id="a_node26"><a xlink:title=" ">
<polygon fill="white" stroke="#bfbfbf" points="300,-190.5 300,-209.5 394,-209.5 394,-190.5 300,-190.5"/>
<text text-anchor="middle" x="347" y="-197.5" font-family="Helvetica,sans-Serif" font-size="10.00">G4Threading.hh</text>
</a>
</g>
</g>
<!-- Node18&#45;&gt;Node27 -->
<g id="edge26" class="edge">
<title>Node18&#45;&gt;Node27</title>
<path fill="none" stroke="midnightblue" d="M511.94,-246.44C478.4,-237.2 424.8,-222.44 387.86,-212.26"/>
<polygon fill="midnightblue" stroke="midnightblue" points="388.48,-208.8 377.91,-209.52 386.62,-215.55 388.48,-208.8"/>
</g>
<!-- Node19&#45;&gt;Node12 -->
<g id="edge19" class="edge">
<title>Node19&#45;&gt;Node12</title>
<path fill="none" stroke="midnightblue" d="M657.1,-190.46C617.57,-182.87 568.32,-170.44 556,-154 540.35,-133.13 568.41,-111 591.94,-97.22"/>
<polygon fill="midnightblue" stroke="midnightblue" points="593.92,-100.12 600.95,-92.2 590.51,-94.01 593.92,-100.12"/>
</g>
<!-- Node20 -->
<g id="node20" class="node">
<title>Node20</title>
<g id="a_node20"><a xlink:title=" ">
<polygon fill="white" stroke="#bfbfbf" points="565.5,-134.5 565.5,-153.5 638.5,-153.5 638.5,-134.5 565.5,-134.5"/>
<text text-anchor="middle" x="602" y="-141.5" font-family="Helvetica,sans-Serif" font-size="10.00">G4Types.hh</text>
</a>
</g>
</g>
<!-- Node19&#45;&gt;Node20 -->
<g id="edge20" class="edge">
<title>Node19&#45;&gt;Node20</title>
<path fill="none" stroke="midnightblue" d="M692.65,-190.32C675.33,-181.66 648.48,-168.24 628.5,-158.25"/>
<polygon fill="midnightblue" stroke="midnightblue" points="629.82,-155 619.31,-153.65 626.69,-161.26 629.82,-155"/>
</g>
<!-- Node21 -->
<g id="node21" class="node">
<title>Node21</title>
<g id="a_node21"><a xlink:title=" ">
<polygon fill="white" stroke="#bfbfbf" points="657,-134.5 657,-153.5 695,-153.5 695,-134.5 657,-134.5"/>
<text text-anchor="middle" x="676" y="-141.5" font-family="Helvetica,sans-Serif" font-size="10.00">map</text>
</a>
</g>
</g>
<!-- Node19&#45;&gt;Node21 -->
<g id="edge21" class="edge">
<title>Node19&#45;&gt;Node21</title>
<path fill="none" stroke="midnightblue" d="M704.39,-190.08C699.63,-182.53 692.68,-171.49 686.85,-162.23"/>
<polygon fill="midnightblue" stroke="midnightblue" points="689.8,-160.35 681.51,-153.75 683.88,-164.08 689.8,-160.35"/>
</g>
<!-- Node22 -->
<g id="node22" class="node">
<title>Node22</title>
<g id="a_node22"><a xlink:title=" ">
<polygon fill="white" stroke="#bfbfbf" points="713.5,-134.5 713.5,-153.5 774.5,-153.5 774.5,-134.5 713.5,-134.5"/>
<text text-anchor="middle" x="744" y="-141.5" font-family="Helvetica,sans-Serif" font-size="10.00">TGraph.h</text>
</a>
</g>
</g>
<!-- Node19&#45;&gt;Node22 -->
<g id="edge22" class="edge">
<title>Node19&#45;&gt;Node22</title>
<path fill="none" stroke="midnightblue" d="M715.61,-190.08C720.37,-182.53 727.32,-171.49 733.15,-162.23"/>
<polygon fill="midnightblue" stroke="midnightblue" points="736.12,-164.08 738.49,-153.75 730.2,-160.35 736.12,-164.08"/>
</g>
<!-- Node28&#45;&gt;Node4 -->
<g id="edge28" class="edge">
<title>Node28&#45;&gt;Node4</title>
<path fill="none" stroke="midnightblue" d="M880.81,-246.44C919.99,-237.08 982.88,-222.06 1025.52,-211.87"/>
<polygon fill="midnightblue" stroke="midnightblue" points="1026.44,-215.24 1035.36,-209.52 1024.82,-208.44 1026.44,-215.24"/>
</g>
<!-- Node28&#45;&gt;Node19 -->
<g id="edge30" class="edge">
<title>Node28&#45;&gt;Node19</title>
<path fill="none" stroke="midnightblue" d="M823.61,-246.44C801.29,-237.52 766.1,-223.44 740.79,-213.32"/>
<polygon fill="midnightblue" stroke="midnightblue" points="741.88,-209.98 731.29,-209.52 739.28,-216.48 741.88,-209.98"/>
</g>
<!-- Node28&#45;&gt;Node28 -->
<g id="edge29" class="edge">
<title>Node28&#45;&gt;Node28</title>
<path fill="none" stroke="midnightblue" d="M884.45,-265.53C911.26,-268.31 937.5,-265.13 937.5,-256 937.5,-248.01 917.41,-244.58 894.43,-245.71"/>
<polygon fill="midnightblue" stroke="midnightblue" points="894.15,-242.22 884.45,-246.47 894.69,-249.2 894.15,-242.22"/>
</g>
<!-- Node29 -->
<g id="node28" class="node">
<title>Node29</title>
<g id="a_node28"><a xlink:title=" ">
<polygon fill="white" stroke="#bfbfbf" points="796,-190.5 796,-209.5 894,-209.5 894,-190.5 796,-190.5"/>
<text text-anchor="middle" x="845" y="-197.5" font-family="Helvetica,sans-Serif" font-size="10.00">G4UnionSolid.hh</text>
</a>
</g>
</g>
<!-- Node28&#45;&gt;Node29 -->
<g id="edge31" class="edge">
<title>Node28&#45;&gt;Node29</title>
<path fill="none" stroke="midnightblue" d="M845,-246.08C845,-239.01 845,-228.86 845,-219.99"/>
<polygon fill="midnightblue" stroke="midnightblue" points="848.5,-219.75 845,-209.75 841.5,-219.75 848.5,-219.75"/>
</g>
<!-- Node30 -->
<g id="node29" class="node">
<title>Node30</title>
<g id="a_node29"><a xlink:title=" ">
<polygon fill="white" stroke="#bfbfbf" points="912.5,-190.5 912.5,-209.5 979.5,-209.5 979.5,-190.5 912.5,-190.5"/>
<text text-anchor="middle" x="946" y="-197.5" font-family="Helvetica,sans-Serif" font-size="10.00">G4Tubs.hh</text>
</a>
</g>
</g>
<!-- Node28&#45;&gt;Node30 -->
<g id="edge32" class="edge">
<title>Node28&#45;&gt;Node30</title>
<path fill="none" stroke="midnightblue" d="M861.23,-246.32C877.35,-237.7 902.3,-224.36 920.96,-214.39"/>
<polygon fill="midnightblue" stroke="midnightblue" points="922.64,-217.46 929.81,-209.65 919.34,-211.28 922.64,-217.46"/>
</g>
<!-- Node36 -->
<g id="node35" class="node">
<title>Node36</title>
<g id="a_node35"><a xlink:title=" ">
<polygon fill="white" stroke="#bfbfbf" points="1179.5,-302.5 1179.5,-321.5 1296.5,-321.5 1296.5,-302.5 1179.5,-302.5"/>
<text text-anchor="middle" x="1238" y="-309.5" font-family="Helvetica,sans-Serif" font-size="10.00">G4UserRunAction.hh</text>
</a>
</g>
</g>
<!-- Node35&#45;&gt;Node36 -->
<g id="edge38" class="edge">
<title>Node35&#45;&gt;Node36</title>
<path fill="none" stroke="midnightblue" d="M1238,-358.08C1238,-351.01 1238,-340.86 1238,-331.99"/>
<polygon fill="midnightblue" stroke="midnightblue" points="1241.5,-331.75 1238,-321.75 1234.5,-331.75 1241.5,-331.75"/>
</g>
<!-- Node39 -->
<g id="node38" class="node">
<title>Node39</title>
<g id="a_node38"><a xlink:title=" ">
<polygon fill="white" stroke="#bfbfbf" points="1456.5,-302.5 1456.5,-321.5 1595.5,-321.5 1595.5,-302.5 1456.5,-302.5"/>
<text text-anchor="middle" x="1526" y="-309.5" font-family="Helvetica,sans-Serif" font-size="10.00">G4UserTrackingAction.hh</text>
</a>
</g>
</g>
<!-- Node38&#45;&gt;Node39 -->
<g id="edge41" class="edge">
<title>Node38&#45;&gt;Node39</title>
<path fill="none" stroke="midnightblue" d="M1526.83,-358.08C1526.7,-351.01 1526.52,-340.86 1526.35,-331.99"/>
<polygon fill="midnightblue" stroke="midnightblue" points="1529.85,-331.68 1526.16,-321.75 1522.85,-331.81 1529.85,-331.68"/>
</g>
<!-- Node41 -->
<g id="node40" class="node">
<title>Node41</title>
<g id="a_node40"><a xlink:title=" ">
<polygon fill="white" stroke="#bfbfbf" points="1613.5,-302.5 1613.5,-321.5 1754.5,-321.5 1754.5,-302.5 1613.5,-302.5"/>
<text text-anchor="middle" x="1684" y="-309.5" font-family="Helvetica,sans-Serif" font-size="10.00">G4UserSteppingAction.hh</text>
</a>
</g>
</g>
<!-- Node40&#45;&gt;Node41 -->
<g id="edge43" class="edge">
<title>Node40&#45;&gt;Node41</title>
<path fill="none" stroke="midnightblue" d="M1684,-358.08C1684,-351.01 1684,-340.86 1684,-331.99"/>
<polygon fill="midnightblue" stroke="midnightblue" points="1687.5,-331.75 1684,-321.75 1680.5,-331.75 1687.5,-331.75"/>
</g>
<!-- Node43 -->
<g id="node42" class="node">
<title>Node43</title>
<g id="a_node42"><a xlink:href="_o_m_sim_command_args_table_8hh.html" target="_top" xlink:title="Definition of the OMSimCommandArgsTable singleton class, which controls user args.">
<polygon fill="white" stroke="black" points="116,-246.5 116,-265.5 280,-265.5 280,-246.5 116,-246.5"/>
<text text-anchor="middle" x="198" y="-253.5" font-family="Helvetica,sans-Serif" font-size="10.00">OMSimCommandArgsTable.hh</text>
</a>
</g>
</g>
<!-- Node42&#45;&gt;Node43 -->
<g id="edge45" class="edge">
<title>Node42&#45;&gt;Node43</title>
<path fill="none" stroke="midnightblue" d="M348.64,-302.44C318.26,-293.28 269.89,-278.69 236.18,-268.52"/>
<polygon fill="midnightblue" stroke="midnightblue" points="236.82,-265.05 226.23,-265.52 234.79,-271.76 236.82,-265.05"/>
</g>
<!-- Node46 -->
<g id="node45" class="node">
<title>Node46</title>
<g id="a_node45"><a xlink:title=" ">
<polygon fill="white" stroke="#bfbfbf" points="328,-246.5 328,-265.5 426,-265.5 426,-246.5 328,-246.5"/>
<text text-anchor="middle" x="377" y="-253.5" font-family="Helvetica,sans-Serif" font-size="10.00">G4UImanager.hh</text>
</a>
</g>
</g>
<!-- Node42&#45;&gt;Node46 -->
<g id="edge50" class="edge">
<title>Node42&#45;&gt;Node46</title>
<path fill="none" stroke="midnightblue" d="M377,-302.08C377,-295.01 377,-284.86 377,-275.99"/>
<polygon fill="midnightblue" stroke="midnightblue" points="380.5,-275.75 377,-265.75 373.5,-275.75 380.5,-275.75"/>
</g>
<!-- Node43&#45;&gt;Node6 -->
<g id="edge46" class="edge">
<title>Node43&#45;&gt;Node6</title>
<path fill="none" stroke="midnightblue" d="M198.57,-246.09C199.84,-232.65 203.94,-206.95 217,-190 253.82,-142.24 318.62,-111.28 358.77,-95.65"/>
<polygon fill="midnightblue" stroke="midnightblue" points="360.06,-98.91 368.17,-92.09 357.58,-92.36 360.06,-98.91"/>
</g>
<!-- Node43&#45;&gt;Node25 -->
<g id="edge47" class="edge">
<title>Node43&#45;&gt;Node25</title>
<path fill="none" stroke="midnightblue" d="M207,-246.32C215.19,-238.42 227.51,-226.55 237.47,-216.94"/>
<polygon fill="midnightblue" stroke="midnightblue" points="240.07,-219.29 244.84,-209.83 235.21,-214.26 240.07,-219.29"/>
</g>
<!-- Node44 -->
<g id="node43" class="node">
<title>Node44</title>
<g id="a_node43"><a xlink:title=" ">
<polygon fill="white" stroke="#bfbfbf" points="0,-190.5 0,-209.5 84,-209.5 84,-190.5 0,-190.5"/>
<text text-anchor="middle" x="42" y="-197.5" font-family="Helvetica,sans-Serif" font-size="10.00">boost/any.hpp</text>
</a>
</g>
</g>
<!-- Node43&#45;&gt;Node44 -->
<g id="edge48" class="edge">
<title>Node43&#45;&gt;Node44</title>
<path fill="none" stroke="midnightblue" d="M173.28,-246.44C147.15,-237.4 105.74,-223.06 76.42,-212.92"/>
<polygon fill="midnightblue" stroke="midnightblue" points="77.2,-209.48 66.6,-209.52 74.91,-216.1 77.2,-209.48"/>
</g>
<!-- Node45 -->
<g id="node44" class="node">
<title>Node45</title>
<g id="a_node44"><a xlink:title=" ">
<polygon fill="white" stroke="#bfbfbf" points="102,-190.5 102,-209.5 170,-209.5 170,-190.5 102,-190.5"/>
<text text-anchor="middle" x="136" y="-197.5" font-family="Helvetica,sans-Serif" font-size="10.00">sys/time.h</text>
</a>
</g>
</g>
<!-- Node43&#45;&gt;Node45 -->
<g id="edge49" class="edge">
<title>Node43&#45;&gt;Node45</title>
<path fill="none" stroke="midnightblue" d="M188.04,-246.32C178.87,-238.34 165.06,-226.31 153.97,-216.65"/>
<polygon fill="midnightblue" stroke="midnightblue" points="155.98,-213.76 146.14,-209.83 151.38,-219.04 155.98,-213.76"/>
</g>
</g>
</svg>
