<?xml version="1.0" encoding="UTF-8" standalone="no"?>
<!DOCTYPE svg PUBLIC "-//W3C//DTD SVG 1.1//EN"
 "http://www.w3.org/Graphics/SVG/1.1/DTD/svg11.dtd">
<!-- Generated by graphviz version 2.43.0 (0)
 -->
<!-- Title: OMSimTools.hh Pages: 1 -->
<svg width="423pt" height="151pt"
 viewBox="0.00 0.00 422.50 151.00" xmlns="http://www.w3.org/2000/svg" xmlns:xlink="http://www.w3.org/1999/xlink">
<g id="graph0" class="graph" transform="scale(1 1) rotate(0) translate(4 147)">
<title>OMSimTools.hh</title>
<!-- Node1 -->
<g id="node1" class="node">
<title>Node1</title>
<g id="a_node1"><a xlink:title=" ">
<polygon fill="#bfbfbf" stroke="black" points="221.5,-123.5 221.5,-142.5 313.5,-142.5 313.5,-123.5 221.5,-123.5"/>
<text text-anchor="middle" x="267.5" y="-130.5" font-family="Helvetica,sans-Serif" font-size="10.00">OMSimTools.hh</text>
</a>
</g>
</g>
<!-- Node2 -->
<g id="node2" class="node">
<title>Node2</title>
<g id="a_node2"><a xlink:href="_o_m_sim_logger_8hh_source.html" target="_top" xlink:title=" ">
<polygon fill="none" stroke="black" points="168,-67.5 168,-86.5 267,-86.5 267,-67.5 168,-67.5"/>
<text text-anchor="middle" x="217.5" y="-74.5" font-family="Helvetica,sans-Serif" font-size="10.00">OMSimLogger.hh</text>
</a>
</g>
</g>
<!-- Node1&#45;&gt;Node2 -->
<g id="edge1" class="edge">
<title>Node1&#45;&gt;Node2</title>
<path fill="none" stroke="midnightblue" d="M259.24,-123.08C252.04,-115.3 241.39,-103.8 232.65,-94.37"/>
<polygon fill="midnightblue" stroke="midnightblue" points="234.97,-91.71 225.6,-86.75 229.83,-96.47 234.97,-91.71"/>
</g>
<!-- Node7 -->
<g id="node7" class="node">
<title>Node7</title>
<g id="a_node7"><a xlink:title=" ">
<polygon fill="none" stroke="#bfbfbf" points="285,-67.5 285,-86.5 352,-86.5 352,-67.5 285,-67.5"/>
<text text-anchor="middle" x="318.5" y="-74.5" font-family="Helvetica,sans-Serif" font-size="10.00">globals.hh</text>
</a>
</g>
</g>
<!-- Node1&#45;&gt;Node7 -->
<g id="edge6" class="edge">
<title>Node1&#45;&gt;Node7</title>
<path fill="none" stroke="midnightblue" d="M275.92,-123.08C283.35,-115.22 294.35,-103.57 303.31,-94.08"/>
<polygon fill="midnightblue" stroke="midnightblue" points="305.91,-96.42 310.24,-86.75 300.82,-91.62 305.91,-96.42"/>
</g>
<!-- Node3 -->
<g id="node3" class="node">
<title>Node3</title>
<g id="a_node3"><a xlink:title=" ">
<polygon fill="none" stroke="#bfbfbf" points="0,-6 0,-25 93,-25 93,-6 0,-6"/>
<text text-anchor="middle" x="46.5" y="-13" font-family="Helvetica,sans-Serif" font-size="10.00">spdlog/spdlog.h</text>
</a>
</g>
</g>
<!-- Node2&#45;&gt;Node3 -->
<g id="edge2" class="edge">
<title>Node2&#45;&gt;Node3</title>
<path fill="none" stroke="midnightblue" d="M193,-67.48C163.54,-57.22 113.92,-39.96 80.7,-28.4"/>
<polygon fill="midnightblue" stroke="midnightblue" points="81.55,-24.99 70.95,-25.01 79.25,-31.6 81.55,-24.99"/>
</g>
<!-- Node4 -->
<g id="node4" class="node">
<title>Node4</title>
<g id="a_node4"><a xlink:title=" ">
<polygon fill="none" stroke="#bfbfbf" points="111,-0.5 111,-30.5 222,-30.5 222,-0.5 111,-0.5"/>
<text text-anchor="start" x="119" y="-18.5" font-family="Helvetica,sans-Serif" font-size="10.00">spdlog/sinks/stdout</text>
<text text-anchor="middle" x="166.5" y="-7.5" font-family="Helvetica,sans-Serif" font-size="10.00">_color_sinks.h</text>
</a>
</g>
</g>
<!-- Node2&#45;&gt;Node4 -->
<g id="edge3" class="edge">
<title>Node2&#45;&gt;Node4</title>
<path fill="none" stroke="midnightblue" d="M210.19,-67.48C203.67,-59.87 193.84,-48.4 185.16,-38.26"/>
<polygon fill="midnightblue" stroke="midnightblue" points="187.69,-35.84 178.52,-30.52 182.37,-40.39 187.69,-35.84"/>
</g>
<!-- Node5 -->
<g id="node5" class="node">
<title>Node5</title>
<g id="a_node5"><a xlink:title=" ">
<polygon fill="none" stroke="#bfbfbf" points="240.5,-6 240.5,-25 298.5,-25 298.5,-6 240.5,-6"/>
<text text-anchor="middle" x="269.5" y="-13" font-family="Helvetica,sans-Serif" font-size="10.00">memory</text>
</a>
</g>
</g>
<!-- Node2&#45;&gt;Node5 -->
<g id="edge4" class="edge">
<title>Node2&#45;&gt;Node5</title>
<path fill="none" stroke="midnightblue" d="M224.95,-67.48C232.83,-58.46 245.44,-44.02 255.24,-32.81"/>
<polygon fill="midnightblue" stroke="midnightblue" points="258.12,-34.84 262.06,-25.01 252.85,-30.24 258.12,-34.84"/>
</g>
<!-- Node6 -->
<g id="node6" class="node">
<title>Node6</title>
<g id="a_node6"><a xlink:title=" ">
<polygon fill="none" stroke="#bfbfbf" points="316.5,-6 316.5,-25 414.5,-25 414.5,-6 316.5,-6"/>
<text text-anchor="middle" x="365.5" y="-13" font-family="Helvetica,sans-Serif" font-size="10.00">spdlog/fmt/fmt.h</text>
</a>
</g>
</g>
<!-- Node2&#45;&gt;Node6 -->
<g id="edge5" class="edge">
<title>Node2&#45;&gt;Node6</title>
<path fill="none" stroke="midnightblue" d="M238.7,-67.48C263.87,-57.36 306.04,-40.4 334.78,-28.85"/>
<polygon fill="midnightblue" stroke="midnightblue" points="336.36,-31.99 344.33,-25.01 333.75,-25.49 336.36,-31.99"/>
</g>
</g>
</svg>
