<?xml version="1.0" encoding="UTF-8" standalone="no"?>
<!DOCTYPE svg PUBLIC "-//W3C//DTD SVG 1.1//EN"
 "http://www.w3.org/Graphics/SVG/1.1/DTD/svg11.dtd">
<!-- Generated by graphviz version 2.43.0 (0)
 -->
<!-- Title: OMSimDecaysGPS.cc Pages: 1 -->
<svg width="1374pt" height="442pt"
 viewBox="0.00 0.00 1373.50 442.00" xmlns="http://www.w3.org/2000/svg" xmlns:xlink="http://www.w3.org/1999/xlink">
<g id="graph0" class="graph" transform="scale(1 1) rotate(0) translate(4 438)">
<title>OMSimDecaysGPS.cc</title>
<polygon fill="white" stroke="transparent" points="-4,4 -4,-438 1369.5,-438 1369.5,4 -4,4"/>
<!-- Node1 -->
<g id="node1" class="node">
<title>Node1</title>
<g id="a_node1"><a xlink:title=" ">
<polygon fill="#bfbfbf" stroke="black" points="923,-414.5 923,-433.5 1044,-433.5 1044,-414.5 923,-414.5"/>
<text text-anchor="middle" x="983.5" y="-421.5" font-family="Helvetica,sans-Serif" font-size="10.00">OMSimDecaysGPS.cc</text>
</a>
</g>
</g>
<!-- Node2 -->
<g id="node2" class="node">
<title>Node2</title>
<g id="a_node2"><a xlink:href="_o_m_sim_decays_g_p_s_8hh.html" target="_top" xlink:title="Defines the OMSimDecaysGPS class for the radioactive decays simulation.">
<polygon fill="white" stroke="black" points="710.5,-358.5 710.5,-377.5 832.5,-377.5 832.5,-358.5 710.5,-358.5"/>
<text text-anchor="middle" x="771.5" y="-365.5" font-family="Helvetica,sans-Serif" font-size="10.00">OMSimDecaysGPS.hh</text>
</a>
</g>
</g>
<!-- Node1&#45;&gt;Node2 -->
<g id="edge1" class="edge">
<title>Node1&#45;&gt;Node2</title>
<path fill="none" stroke="midnightblue" d="M949.91,-414.44C913.31,-405.12 854.66,-390.18 814.67,-380"/>
<polygon fill="midnightblue" stroke="midnightblue" points="815.49,-376.59 804.93,-377.52 813.76,-383.38 815.49,-376.59"/>
</g>
<!-- Node6 -->
<g id="node6" class="node">
<title>Node6</title>
<g id="a_node6"><a xlink:href="_o_m_sim_logger_8hh.html" target="_top" xlink:title=" ">
<polygon fill="white" stroke="black" points="1120,-73 1120,-92 1219,-92 1219,-73 1120,-73"/>
<text text-anchor="middle" x="1169.5" y="-80" font-family="Helvetica,sans-Serif" font-size="10.00">OMSimLogger.hh</text>
</a>
</g>
</g>
<!-- Node1&#45;&gt;Node6 -->
<g id="edge35" class="edge">
<title>Node1&#45;&gt;Node6</title>
<path fill="none" stroke="midnightblue" d="M982.74,-414.47C980.76,-388.15 977.15,-306.42 1002.5,-246 1031.77,-176.24 1107.39,-121.69 1146.03,-97.35"/>
<polygon fill="midnightblue" stroke="midnightblue" points="1147.89,-100.31 1154.56,-92.08 1144.21,-94.35 1147.89,-100.31"/>
</g>
<!-- Node12 -->
<g id="node12" class="node">
<title>Node12</title>
<g id="a_node12"><a xlink:title=" ">
<polygon fill="white" stroke="#bfbfbf" points="691,-73 691,-92 810,-92 810,-73 691,-73"/>
<text text-anchor="middle" x="750.5" y="-80" font-family="Helvetica,sans-Serif" font-size="10.00">G4SystemOfUnits.hh</text>
</a>
</g>
</g>
<!-- Node1&#45;&gt;Node12 -->
<g id="edge43" class="edge">
<title>Node1&#45;&gt;Node12</title>
<path fill="none" stroke="midnightblue" d="M978.22,-414.23C967.77,-396.04 945.5,-352.6 945.5,-313 945.5,-313 945.5,-313 945.5,-255 945.5,-190.78 920.05,-169.46 866.5,-134 841.66,-117.55 810.59,-104.36 786.85,-95.59"/>
<polygon fill="midnightblue" stroke="midnightblue" points="787.76,-92.19 777.17,-92.1 785.39,-98.78 787.76,-92.19"/>
</g>
<!-- Node32 -->
<g id="node32" class="node">
<title>Node32</title>
<g id="a_node32"><a xlink:href="_o_m_sim_u_iinterface_8hh.html" target="_top" xlink:title=" ">
<polygon fill="white" stroke="black" points="1012,-302.5 1012,-321.5 1133,-321.5 1133,-302.5 1012,-302.5"/>
<text text-anchor="middle" x="1072.5" y="-309.5" font-family="Helvetica,sans-Serif" font-size="10.00">OMSimUIinterface.hh</text>
</a>
</g>
</g>
<!-- Node1&#45;&gt;Node32 -->
<g id="edge36" class="edge">
<title>Node1&#45;&gt;Node32</title>
<path fill="none" stroke="midnightblue" d="M990.48,-414.37C1005.24,-396.14 1039.79,-353.43 1059.01,-329.68"/>
<polygon fill="midnightblue" stroke="midnightblue" points="1061.98,-331.57 1065.55,-321.59 1056.54,-327.16 1061.98,-331.57"/>
</g>
<!-- Node37 -->
<g id="node37" class="node">
<title>Node37</title>
<g id="a_node37"><a xlink:title=" ">
<polygon fill="white" stroke="#bfbfbf" points="1050,-358.5 1050,-377.5 1133,-377.5 1133,-358.5 1050,-358.5"/>
<text text-anchor="middle" x="1091.5" y="-365.5" font-family="Helvetica,sans-Serif" font-size="10.00">G4Poisson.hh</text>
</a>
</g>
</g>
<!-- Node1&#45;&gt;Node37 -->
<g id="edge44" class="edge">
<title>Node1&#45;&gt;Node37</title>
<path fill="none" stroke="midnightblue" d="M1000.85,-414.32C1018.17,-405.66 1045.02,-392.24 1065,-382.25"/>
<polygon fill="midnightblue" stroke="midnightblue" points="1066.81,-385.26 1074.19,-377.65 1063.68,-379 1066.81,-385.26"/>
</g>
<!-- Node3 -->
<g id="node3" class="node">
<title>Node3</title>
<g id="a_node3"><a xlink:href="_o_m_sim_optical_module_8hh.html" target="_top" xlink:title=" ">
<polygon fill="white" stroke="black" points="507,-302.5 507,-321.5 644,-321.5 644,-302.5 507,-302.5"/>
<text text-anchor="middle" x="575.5" y="-309.5" font-family="Helvetica,sans-Serif" font-size="10.00">OMSimOpticalModule.hh</text>
</a>
</g>
</g>
<!-- Node2&#45;&gt;Node3 -->
<g id="edge2" class="edge">
<title>Node2&#45;&gt;Node3</title>
<path fill="none" stroke="midnightblue" d="M740.44,-358.44C706.9,-349.2 653.3,-334.44 616.36,-324.26"/>
<polygon fill="midnightblue" stroke="midnightblue" points="616.98,-320.8 606.41,-321.52 615.12,-327.55 616.98,-320.8"/>
</g>
<!-- Node31 -->
<g id="node31" class="node">
<title>Node31</title>
<g id="a_node31"><a xlink:title=" ">
<polygon fill="white" stroke="#bfbfbf" points="738,-302.5 738,-321.5 805,-321.5 805,-302.5 738,-302.5"/>
<text text-anchor="middle" x="771.5" y="-309.5" font-family="Helvetica,sans-Serif" font-size="10.00">globals.hh</text>
</a>
</g>
</g>
<!-- Node2&#45;&gt;Node31 -->
<g id="edge34" class="edge">
<title>Node2&#45;&gt;Node31</title>
<path fill="none" stroke="midnightblue" d="M771.5,-358.08C771.5,-351.01 771.5,-340.86 771.5,-331.99"/>
<polygon fill="midnightblue" stroke="midnightblue" points="775,-331.75 771.5,-321.75 768,-331.75 775,-331.75"/>
</g>
<!-- Node4 -->
<g id="node4" class="node">
<title>Node4</title>
<g id="a_node4"><a xlink:href="abc_detector_component_8hh.html" target="_top" xlink:title="Provides helper base class abcDetectorComponent for constructing and managing detector components in ...">
<polygon fill="white" stroke="black" points="355,-190.5 355,-209.5 502,-209.5 502,-190.5 355,-190.5"/>
<text text-anchor="middle" x="428.5" y="-197.5" font-family="Helvetica,sans-Serif" font-size="10.00">abcDetectorComponent.hh</text>
</a>
</g>
</g>
<!-- Node3&#45;&gt;Node4 -->
<g id="edge3" class="edge">
<title>Node3&#45;&gt;Node4</title>
<path fill="none" stroke="midnightblue" d="M563.97,-302.37C538.95,-283.65 479.48,-239.15 448.32,-215.83"/>
<polygon fill="midnightblue" stroke="midnightblue" points="450.08,-212.78 439.98,-209.59 445.89,-218.39 450.08,-212.78"/>
</g>
<!-- Node18 -->
<g id="node18" class="node">
<title>Node18</title>
<g id="a_node18"><a xlink:href="_o_m_sim_hit_manager_8hh.html" target="_top" xlink:title="Defines structures and classes related to optical module photon hit management.">
<polygon fill="white" stroke="black" points="559,-246.5 559,-265.5 682,-265.5 682,-246.5 559,-246.5"/>
<text text-anchor="middle" x="620.5" y="-253.5" font-family="Helvetica,sans-Serif" font-size="10.00">OMSimHitManager.hh</text>
</a>
</g>
</g>
<!-- Node3&#45;&gt;Node18 -->
<g id="edge17" class="edge">
<title>Node3&#45;&gt;Node18</title>
<path fill="none" stroke="midnightblue" d="M582.93,-302.08C589.35,-294.38 598.81,-283.03 606.62,-273.65"/>
<polygon fill="midnightblue" stroke="midnightblue" points="609.49,-275.67 613.21,-265.75 604.12,-271.19 609.49,-275.67"/>
</g>
<!-- Node28 -->
<g id="node28" class="node">
<title>Node28</title>
<g id="a_node28"><a xlink:href="_o_m_sim_p_m_t_construction_8hh.html" target="_top" xlink:title="Construction of the PMTs.">
<polygon fill="white" stroke="black" points="195,-246.5 195,-265.5 344,-265.5 344,-246.5 195,-246.5"/>
<text text-anchor="middle" x="269.5" y="-253.5" font-family="Helvetica,sans-Serif" font-size="10.00">OMSimPMTConstruction.hh</text>
</a>
</g>
</g>
<!-- Node3&#45;&gt;Node28 -->
<g id="edge28" class="edge">
<title>Node3&#45;&gt;Node28</title>
<path fill="none" stroke="midnightblue" d="M527.01,-302.44C472.96,-292.9 385.57,-277.48 327.83,-267.29"/>
<polygon fill="midnightblue" stroke="midnightblue" points="328.22,-263.81 317.76,-265.52 327,-270.7 328.22,-263.81"/>
</g>
<!-- Node5 -->
<g id="node5" class="node">
<title>Node5</title>
<g id="a_node5"><a xlink:href="_o_m_sim_input_data_8hh.html" target="_top" xlink:title="Definition of ParameterTable and InputDataManager.">
<polygon fill="white" stroke="black" points="915,-134.5 915,-153.5 1030,-153.5 1030,-134.5 915,-134.5"/>
<text text-anchor="middle" x="972.5" y="-141.5" font-family="Helvetica,sans-Serif" font-size="10.00">OMSimInputData.hh</text>
</a>
</g>
</g>
<!-- Node4&#45;&gt;Node5 -->
<g id="edge4" class="edge">
<title>Node4&#45;&gt;Node5</title>
<path fill="none" stroke="midnightblue" d="M502.26,-190.96C505.38,-190.63 508.47,-190.31 511.5,-190 651.3,-175.6 815.07,-159.89 904.93,-151.37"/>
<polygon fill="midnightblue" stroke="midnightblue" points="905.36,-154.84 914.98,-150.41 904.7,-147.87 905.36,-154.84"/>
</g>
<!-- Node14 -->
<g id="node14" class="node">
<title>Node14</title>
<g id="a_node14"><a xlink:title=" ">
<polygon fill="white" stroke="#bfbfbf" points="751,-134.5 751,-153.5 858,-153.5 858,-134.5 751,-134.5"/>
<text text-anchor="middle" x="804.5" y="-141.5" font-family="Helvetica,sans-Serif" font-size="10.00">G4Transform3D.hh</text>
</a>
</g>
</g>
<!-- Node4&#45;&gt;Node14 -->
<g id="edge13" class="edge">
<title>Node4&#45;&gt;Node14</title>
<path fill="none" stroke="midnightblue" d="M488.08,-190.44C557.06,-180.54 670.22,-164.28 740.88,-154.14"/>
<polygon fill="midnightblue" stroke="midnightblue" points="741.58,-157.57 750.98,-152.69 740.59,-150.64 741.58,-157.57"/>
</g>
<!-- Node15 -->
<g id="node15" class="node">
<title>Node15</title>
<g id="a_node15"><a xlink:title=" ">
<polygon fill="white" stroke="#bfbfbf" points="352.5,-134.5 352.5,-153.5 460.5,-153.5 460.5,-134.5 352.5,-134.5"/>
<text text-anchor="middle" x="406.5" y="-141.5" font-family="Helvetica,sans-Serif" font-size="10.00">G4VisAttributes.hh</text>
</a>
</g>
</g>
<!-- Node4&#45;&gt;Node15 -->
<g id="edge14" class="edge">
<title>Node4&#45;&gt;Node15</title>
<path fill="none" stroke="midnightblue" d="M424.87,-190.08C421.89,-182.77 417.57,-172.18 413.88,-163.1"/>
<polygon fill="midnightblue" stroke="midnightblue" points="417.08,-161.69 410.07,-153.75 410.6,-164.33 417.08,-161.69"/>
</g>
<!-- Node16 -->
<g id="node16" class="node">
<title>Node16</title>
<g id="a_node16"><a xlink:title=" ">
<polygon fill="white" stroke="#bfbfbf" points="479,-134.5 479,-153.5 604,-153.5 604,-134.5 479,-134.5"/>
<text text-anchor="middle" x="541.5" y="-141.5" font-family="Helvetica,sans-Serif" font-size="10.00">G4SubtractionSolid.hh</text>
</a>
</g>
</g>
<!-- Node4&#45;&gt;Node16 -->
<g id="edge15" class="edge">
<title>Node4&#45;&gt;Node16</title>
<path fill="none" stroke="midnightblue" d="M446.41,-190.44C464.75,-181.68 493.51,-167.94 514.59,-157.86"/>
<polygon fill="midnightblue" stroke="midnightblue" points="516.17,-160.99 523.68,-153.52 513.15,-154.67 516.17,-160.99"/>
</g>
<!-- Node17 -->
<g id="node17" class="node">
<title>Node17</title>
<g id="a_node17"><a xlink:title=" ">
<polygon fill="white" stroke="#bfbfbf" points="622.5,-134.5 622.5,-153.5 732.5,-153.5 732.5,-134.5 622.5,-134.5"/>
<text text-anchor="middle" x="677.5" y="-141.5" font-family="Helvetica,sans-Serif" font-size="10.00">G4PVPlacement.hh</text>
</a>
</g>
</g>
<!-- Node4&#45;&gt;Node17 -->
<g id="edge16" class="edge">
<title>Node4&#45;&gt;Node17</title>
<path fill="none" stroke="midnightblue" d="M467.95,-190.44C511.39,-181.02 581.29,-165.87 628.28,-155.68"/>
<polygon fill="midnightblue" stroke="midnightblue" points="629.2,-159.06 638.23,-153.52 627.72,-152.22 629.2,-159.06"/>
</g>
<!-- Node5&#45;&gt;Node6 -->
<g id="edge5" class="edge">
<title>Node5&#45;&gt;Node6</title>
<path fill="none" stroke="midnightblue" d="M1000.73,-134.48C1035.1,-124.09 1093.31,-106.51 1131.58,-94.95"/>
<polygon fill="midnightblue" stroke="midnightblue" points="1132.77,-98.25 1141.33,-92.01 1130.74,-91.55 1132.77,-98.25"/>
</g>
<!-- Node11 -->
<g id="node11" class="node">
<title>Node11</title>
<g id="a_node11"><a xlink:title=" ">
<polygon fill="white" stroke="#bfbfbf" points="828,-73 828,-92 971,-92 971,-73 828,-73"/>
<text text-anchor="middle" x="899.5" y="-80" font-family="Helvetica,sans-Serif" font-size="10.00">G4OpBoundaryProcess.hh</text>
</a>
</g>
</g>
<!-- Node5&#45;&gt;Node11 -->
<g id="edge10" class="edge">
<title>Node5&#45;&gt;Node11</title>
<path fill="none" stroke="midnightblue" d="M962.04,-134.48C950.55,-125.11 931.87,-109.88 917.91,-98.51"/>
<polygon fill="midnightblue" stroke="midnightblue" points="919.9,-95.61 909.94,-92.01 915.48,-101.04 919.9,-95.61"/>
</g>
<!-- Node5&#45;&gt;Node12 -->
<g id="edge11" class="edge">
<title>Node5&#45;&gt;Node12</title>
<path fill="none" stroke="midnightblue" d="M940.69,-134.48C901.62,-124 835.24,-106.21 792.14,-94.66"/>
<polygon fill="midnightblue" stroke="midnightblue" points="792.81,-91.22 782.25,-92.01 791,-97.98 792.81,-91.22"/>
</g>
<!-- Node13 -->
<g id="node13" class="node">
<title>Node13</title>
<g id="a_node13"><a xlink:title=" ">
<polygon fill="white" stroke="#bfbfbf" points="989,-67.5 989,-97.5 1102,-97.5 1102,-67.5 989,-67.5"/>
<text text-anchor="start" x="997" y="-85.5" font-family="Helvetica,sans-Serif" font-size="10.00">boost/property_tree</text>
<text text-anchor="middle" x="1045.5" y="-74.5" font-family="Helvetica,sans-Serif" font-size="10.00">/json_parser.hpp</text>
</a>
</g>
</g>
<!-- Node5&#45;&gt;Node13 -->
<g id="edge12" class="edge">
<title>Node5&#45;&gt;Node13</title>
<path fill="none" stroke="midnightblue" d="M982.96,-134.48C992.66,-126.57 1007.49,-114.48 1020.27,-104.07"/>
<polygon fill="midnightblue" stroke="midnightblue" points="1022.76,-106.55 1028.3,-97.52 1018.33,-101.13 1022.76,-106.55"/>
</g>
<!-- Node7 -->
<g id="node7" class="node">
<title>Node7</title>
<g id="a_node7"><a xlink:title=" ">
<polygon fill="white" stroke="#bfbfbf" points="951,-6 951,-25 1044,-25 1044,-6 951,-6"/>
<text text-anchor="middle" x="997.5" y="-13" font-family="Helvetica,sans-Serif" font-size="10.00">spdlog/spdlog.h</text>
</a>
</g>
</g>
<!-- Node6&#45;&gt;Node7 -->
<g id="edge6" class="edge">
<title>Node6&#45;&gt;Node7</title>
<path fill="none" stroke="midnightblue" d="M1146.66,-72.87C1116.63,-61.52 1063.72,-41.52 1029.66,-28.65"/>
<polygon fill="midnightblue" stroke="midnightblue" points="1030.75,-25.32 1020.16,-25.06 1028.28,-31.87 1030.75,-25.32"/>
</g>
<!-- Node8 -->
<g id="node8" class="node">
<title>Node8</title>
<g id="a_node8"><a xlink:title=" ">
<polygon fill="white" stroke="#bfbfbf" points="1062,-0.5 1062,-30.5 1173,-30.5 1173,-0.5 1062,-0.5"/>
<text text-anchor="start" x="1070" y="-18.5" font-family="Helvetica,sans-Serif" font-size="10.00">spdlog/sinks/stdout</text>
<text text-anchor="middle" x="1117.5" y="-7.5" font-family="Helvetica,sans-Serif" font-size="10.00">_color_sinks.h</text>
</a>
</g>
</g>
<!-- Node6&#45;&gt;Node8 -->
<g id="edge7" class="edge">
<title>Node6&#45;&gt;Node8</title>
<path fill="none" stroke="midnightblue" d="M1162.49,-72.73C1155.53,-64.03 1144.58,-50.34 1135.22,-38.65"/>
<polygon fill="midnightblue" stroke="midnightblue" points="1137.75,-36.21 1128.77,-30.59 1132.29,-40.58 1137.75,-36.21"/>
</g>
<!-- Node9 -->
<g id="node9" class="node">
<title>Node9</title>
<g id="a_node9"><a xlink:title=" ">
<polygon fill="white" stroke="#bfbfbf" points="1191.5,-6 1191.5,-25 1249.5,-25 1249.5,-6 1191.5,-6"/>
<text text-anchor="middle" x="1220.5" y="-13" font-family="Helvetica,sans-Serif" font-size="10.00">memory</text>
</a>
</g>
</g>
<!-- Node6&#45;&gt;Node9 -->
<g id="edge8" class="edge">
<title>Node6&#45;&gt;Node9</title>
<path fill="none" stroke="midnightblue" d="M1176.38,-72.73C1184.33,-62.6 1197.6,-45.69 1207.51,-33.06"/>
<polygon fill="midnightblue" stroke="midnightblue" points="1210.31,-35.16 1213.73,-25.13 1204.8,-30.83 1210.31,-35.16"/>
</g>
<!-- Node10 -->
<g id="node10" class="node">
<title>Node10</title>
<g id="a_node10"><a xlink:title=" ">
<polygon fill="white" stroke="#bfbfbf" points="1267.5,-6 1267.5,-25 1365.5,-25 1365.5,-6 1267.5,-6"/>
<text text-anchor="middle" x="1316.5" y="-13" font-family="Helvetica,sans-Serif" font-size="10.00">spdlog/fmt/fmt.h</text>
</a>
</g>
</g>
<!-- Node6&#45;&gt;Node10 -->
<g id="edge9" class="edge">
<title>Node6&#45;&gt;Node10</title>
<path fill="none" stroke="midnightblue" d="M1189.02,-72.87C1214.28,-61.7 1258.5,-42.15 1287.64,-29.26"/>
<polygon fill="midnightblue" stroke="midnightblue" points="1289.17,-32.41 1296.9,-25.17 1286.34,-26.01 1289.17,-32.41"/>
</g>
<!-- Node19 -->
<g id="node19" class="node">
<title>Node19</title>
<g id="a_node19"><a xlink:href="_o_m_sim_p_m_t_response_8hh.html" target="_top" xlink:title="Simulation of PMT response.">
<polygon fill="white" stroke="black" points="202,-190.5 202,-209.5 337,-209.5 337,-190.5 202,-190.5"/>
<text text-anchor="middle" x="269.5" y="-197.5" font-family="Helvetica,sans-Serif" font-size="10.00">OMSimPMTResponse.hh</text>
</a>
</g>
</g>
<!-- Node18&#45;&gt;Node19 -->
<g id="edge18" class="edge">
<title>Node18&#45;&gt;Node19</title>
<path fill="none" stroke="midnightblue" d="M564.88,-246.44C502.37,-236.83 400.98,-221.23 334.77,-211.04"/>
<polygon fill="midnightblue" stroke="midnightblue" points="335.27,-207.58 324.86,-209.52 334.21,-214.5 335.27,-207.58"/>
</g>
<!-- Node24 -->
<g id="node24" class="node">
<title>Node24</title>
<g id="a_node24"><a xlink:title=" ">
<polygon fill="white" stroke="#bfbfbf" points="741,-190.5 741,-209.5 844,-209.5 844,-190.5 741,-190.5"/>
<text text-anchor="middle" x="792.5" y="-197.5" font-family="Helvetica,sans-Serif" font-size="10.00">G4ThreeVector.hh</text>
</a>
</g>
</g>
<!-- Node18&#45;&gt;Node24 -->
<g id="edge24" class="edge">
<title>Node18&#45;&gt;Node24</title>
<path fill="none" stroke="midnightblue" d="M647.75,-246.44C676.94,-237.28 723.42,-222.69 755.81,-212.52"/>
<polygon fill="midnightblue" stroke="midnightblue" points="756.88,-215.85 765.37,-209.52 754.78,-209.17 756.88,-215.85"/>
</g>
<!-- Node25 -->
<g id="node25" class="node">
<title>Node25</title>
<g id="a_node25"><a xlink:title=" ">
<polygon fill="white" stroke="#bfbfbf" points="862,-190.5 862,-209.5 917,-209.5 917,-190.5 862,-190.5"/>
<text text-anchor="middle" x="889.5" y="-197.5" font-family="Helvetica,sans-Serif" font-size="10.00">fstream</text>
</a>
</g>
</g>
<!-- Node18&#45;&gt;Node25 -->
<g id="edge25" class="edge">
<title>Node18&#45;&gt;Node25</title>
<path fill="none" stroke="midnightblue" d="M668.18,-246.43C713.06,-238.21 782.39,-225.12 851.85,-210.06"/>
<polygon fill="midnightblue" stroke="midnightblue" points="852.63,-213.47 861.65,-207.92 851.14,-206.63 852.63,-213.47"/>
</g>
<!-- Node26 -->
<g id="node26" class="node">
<title>Node26</title>
<g id="a_node26"><a xlink:title=" ">
<polygon fill="white" stroke="#bfbfbf" points="520.5,-190.5 520.5,-209.5 610.5,-209.5 610.5,-190.5 520.5,-190.5"/>
<text text-anchor="middle" x="565.5" y="-197.5" font-family="Helvetica,sans-Serif" font-size="10.00">G4AutoLock.hh</text>
</a>
</g>
</g>
<!-- Node18&#45;&gt;Node26 -->
<g id="edge26" class="edge">
<title>Node18&#45;&gt;Node26</title>
<path fill="none" stroke="midnightblue" d="M611.42,-246.08C603.33,-238.14 591.3,-226.34 581.59,-216.8"/>
<polygon fill="midnightblue" stroke="midnightblue" points="584,-214.26 574.41,-209.75 579.1,-219.25 584,-214.26"/>
</g>
<!-- Node27 -->
<g id="node27" class="node">
<title>Node27</title>
<g id="a_node27"><a xlink:title=" ">
<polygon fill="white" stroke="#bfbfbf" points="628.5,-190.5 628.5,-209.5 722.5,-209.5 722.5,-190.5 628.5,-190.5"/>
<text text-anchor="middle" x="675.5" y="-197.5" font-family="Helvetica,sans-Serif" font-size="10.00">G4Threading.hh</text>
</a>
</g>
</g>
<!-- Node18&#45;&gt;Node27 -->
<g id="edge27" class="edge">
<title>Node18&#45;&gt;Node27</title>
<path fill="none" stroke="midnightblue" d="M629.58,-246.08C637.67,-238.14 649.7,-226.34 659.41,-216.8"/>
<polygon fill="midnightblue" stroke="midnightblue" points="661.9,-219.25 666.59,-209.75 657,-214.26 661.9,-219.25"/>
</g>
<!-- Node19&#45;&gt;Node12 -->
<g id="edge19" class="edge">
<title>Node19&#45;&gt;Node12</title>
<path fill="none" stroke="midnightblue" d="M276.18,-190.47C288.01,-176.05 314.17,-147.17 343.5,-134 402.21,-107.63 580.99,-93.32 680.96,-87.19"/>
<polygon fill="midnightblue" stroke="midnightblue" points="681.2,-90.68 690.97,-86.58 680.78,-83.69 681.2,-90.68"/>
</g>
<!-- Node20 -->
<g id="node20" class="node">
<title>Node20</title>
<g id="a_node20"><a xlink:title=" ">
<polygon fill="white" stroke="#bfbfbf" points="16,-134.5 16,-153.5 89,-153.5 89,-134.5 16,-134.5"/>
<text text-anchor="middle" x="52.5" y="-141.5" font-family="Helvetica,sans-Serif" font-size="10.00">G4Types.hh</text>
</a>
</g>
</g>
<!-- Node19&#45;&gt;Node20 -->
<g id="edge20" class="edge">
<title>Node19&#45;&gt;Node20</title>
<path fill="none" stroke="midnightblue" d="M235.12,-190.44C197.58,-181.1 137.37,-166.12 96.43,-155.93"/>
<polygon fill="midnightblue" stroke="midnightblue" points="97.27,-152.53 86.72,-153.52 95.58,-159.33 97.27,-152.53"/>
</g>
<!-- Node21 -->
<g id="node21" class="node">
<title>Node21</title>
<g id="a_node21"><a xlink:title=" ">
<polygon fill="white" stroke="#bfbfbf" points="107.5,-134.5 107.5,-153.5 145.5,-153.5 145.5,-134.5 107.5,-134.5"/>
<text text-anchor="middle" x="126.5" y="-141.5" font-family="Helvetica,sans-Serif" font-size="10.00">map</text>
</a>
</g>
</g>
<!-- Node19&#45;&gt;Node21 -->
<g id="edge21" class="edge">
<title>Node19&#45;&gt;Node21</title>
<path fill="none" stroke="midnightblue" d="M246.84,-190.44C222.12,-181.11 182.48,-166.14 155.5,-155.95"/>
<polygon fill="midnightblue" stroke="midnightblue" points="156.43,-152.56 145.84,-152.3 153.96,-159.11 156.43,-152.56"/>
</g>
<!-- Node22 -->
<g id="node22" class="node">
<title>Node22</title>
<g id="a_node22"><a xlink:title=" ">
<polygon fill="white" stroke="#bfbfbf" points="164,-134.5 164,-153.5 225,-153.5 225,-134.5 164,-134.5"/>
<text text-anchor="middle" x="194.5" y="-141.5" font-family="Helvetica,sans-Serif" font-size="10.00">TGraph.h</text>
</a>
</g>
</g>
<!-- Node19&#45;&gt;Node22 -->
<g id="edge22" class="edge">
<title>Node19&#45;&gt;Node22</title>
<path fill="none" stroke="midnightblue" d="M257.45,-190.32C246.04,-182.11 228.67,-169.6 215.07,-159.81"/>
<polygon fill="midnightblue" stroke="midnightblue" points="216.93,-156.84 206.77,-153.83 212.84,-162.52 216.93,-156.84"/>
</g>
<!-- Node23 -->
<g id="node23" class="node">
<title>Node23</title>
<g id="a_node23"><a xlink:title=" ">
<polygon fill="white" stroke="#bfbfbf" points="243,-134.5 243,-153.5 296,-153.5 296,-134.5 243,-134.5"/>
<text text-anchor="middle" x="269.5" y="-141.5" font-family="Helvetica,sans-Serif" font-size="10.00">TH2D.h</text>
</a>
</g>
</g>
<!-- Node19&#45;&gt;Node23 -->
<g id="edge23" class="edge">
<title>Node19&#45;&gt;Node23</title>
<path fill="none" stroke="midnightblue" d="M269.5,-190.08C269.5,-183.01 269.5,-172.86 269.5,-163.99"/>
<polygon fill="midnightblue" stroke="midnightblue" points="273,-163.75 269.5,-153.75 266,-163.75 273,-163.75"/>
</g>
<!-- Node28&#45;&gt;Node4 -->
<g id="edge29" class="edge">
<title>Node28&#45;&gt;Node4</title>
<path fill="none" stroke="midnightblue" d="M294.69,-246.44C321.44,-237.36 363.9,-222.94 393.81,-212.78"/>
<polygon fill="midnightblue" stroke="midnightblue" points="395.08,-216.05 403.42,-209.52 392.83,-209.42 395.08,-216.05"/>
</g>
<!-- Node28&#45;&gt;Node19 -->
<g id="edge31" class="edge">
<title>Node28&#45;&gt;Node19</title>
<path fill="none" stroke="midnightblue" d="M269.5,-246.08C269.5,-239.01 269.5,-228.86 269.5,-219.99"/>
<polygon fill="midnightblue" stroke="midnightblue" points="273,-219.75 269.5,-209.75 266,-219.75 273,-219.75"/>
</g>
<!-- Node28&#45;&gt;Node28 -->
<g id="edge30" class="edge">
<title>Node28&#45;&gt;Node28</title>
<path fill="none" stroke="midnightblue" d="M308.95,-265.53C335.76,-268.31 362,-265.13 362,-256 362,-248.01 341.91,-244.58 318.93,-245.71"/>
<polygon fill="midnightblue" stroke="midnightblue" points="318.65,-242.22 308.95,-246.47 319.19,-249.2 318.65,-242.22"/>
</g>
<!-- Node29 -->
<g id="node29" class="node">
<title>Node29</title>
<g id="a_node29"><a xlink:title=" ">
<polygon fill="white" stroke="#bfbfbf" points="85.5,-190.5 85.5,-209.5 183.5,-209.5 183.5,-190.5 85.5,-190.5"/>
<text text-anchor="middle" x="134.5" y="-197.5" font-family="Helvetica,sans-Serif" font-size="10.00">G4UnionSolid.hh</text>
</a>
</g>
</g>
<!-- Node28&#45;&gt;Node29 -->
<g id="edge32" class="edge">
<title>Node28&#45;&gt;Node29</title>
<path fill="none" stroke="midnightblue" d="M248.11,-246.44C225.79,-237.52 190.6,-223.44 165.29,-213.32"/>
<polygon fill="midnightblue" stroke="midnightblue" points="166.38,-209.98 155.79,-209.52 163.78,-216.48 166.38,-209.98"/>
</g>
<!-- Node30 -->
<g id="node30" class="node">
<title>Node30</title>
<g id="a_node30"><a xlink:title=" ">
<polygon fill="white" stroke="#bfbfbf" points="0,-190.5 0,-209.5 67,-209.5 67,-190.5 0,-190.5"/>
<text text-anchor="middle" x="33.5" y="-197.5" font-family="Helvetica,sans-Serif" font-size="10.00">G4Tubs.hh</text>
</a>
</g>
</g>
<!-- Node28&#45;&gt;Node30 -->
<g id="edge33" class="edge">
<title>Node28&#45;&gt;Node30</title>
<path fill="none" stroke="midnightblue" d="M232.11,-246.44C190.02,-236.81 121.74,-221.19 77.23,-211"/>
<polygon fill="midnightblue" stroke="midnightblue" points="77.81,-207.55 67.28,-208.73 76.25,-214.37 77.81,-207.55"/>
</g>
<!-- Node33 -->
<g id="node33" class="node">
<title>Node33</title>
<g id="a_node33"><a xlink:href="_o_m_sim_command_args_table_8hh.html" target="_top" xlink:title="Definition of the OMSimCommandArgsTable singleton class, which controls user args.">
<polygon fill="white" stroke="black" points="1127.5,-246.5 1127.5,-265.5 1291.5,-265.5 1291.5,-246.5 1127.5,-246.5"/>
<text text-anchor="middle" x="1209.5" y="-253.5" font-family="Helvetica,sans-Serif" font-size="10.00">OMSimCommandArgsTable.hh</text>
</a>
</g>
</g>
<!-- Node32&#45;&gt;Node33 -->
<g id="edge37" class="edge">
<title>Node32&#45;&gt;Node33</title>
<path fill="none" stroke="midnightblue" d="M1094.21,-302.44C1116.85,-293.52 1152.57,-279.44 1178.25,-269.32"/>
<polygon fill="midnightblue" stroke="midnightblue" points="1179.87,-272.44 1187.89,-265.52 1177.31,-265.93 1179.87,-272.44"/>
</g>
<!-- Node36 -->
<g id="node36" class="node">
<title>Node36</title>
<g id="a_node36"><a xlink:title=" ">
<polygon fill="white" stroke="#bfbfbf" points="1011.5,-246.5 1011.5,-265.5 1109.5,-265.5 1109.5,-246.5 1011.5,-246.5"/>
<text text-anchor="middle" x="1060.5" y="-253.5" font-family="Helvetica,sans-Serif" font-size="10.00">G4UImanager.hh</text>
</a>
</g>
</g>
<!-- Node32&#45;&gt;Node36 -->
<g id="edge42" class="edge">
<title>Node32&#45;&gt;Node36</title>
<path fill="none" stroke="midnightblue" d="M1070.52,-302.08C1068.93,-294.93 1066.64,-284.64 1064.65,-275.69"/>
<polygon fill="midnightblue" stroke="midnightblue" points="1068.03,-274.75 1062.44,-265.75 1061.2,-276.27 1068.03,-274.75"/>
</g>
<!-- Node33&#45;&gt;Node6 -->
<g id="edge38" class="edge">
<title>Node33&#45;&gt;Node6</title>
<path fill="none" stroke="midnightblue" d="M1217.17,-246.39C1227.12,-234.16 1242.53,-210.9 1236.5,-190 1226.27,-154.53 1200.35,-119.48 1183.91,-99.75"/>
<polygon fill="midnightblue" stroke="midnightblue" points="1186.48,-97.37 1177.32,-92.05 1181.16,-101.92 1186.48,-97.37"/>
</g>
<!-- Node33&#45;&gt;Node25 -->
<g id="edge39" class="edge">
<title>Node33&#45;&gt;Node25</title>
<path fill="none" stroke="midnightblue" d="M1158.8,-246.44C1094.42,-235.58 984.84,-217.09 927.32,-207.38"/>
<polygon fill="midnightblue" stroke="midnightblue" points="927.65,-203.89 917.2,-205.67 926.48,-210.79 927.65,-203.89"/>
</g>
<!-- Node34 -->
<g id="node34" class="node">
<title>Node34</title>
<g id="a_node34"><a xlink:title=" ">
<polygon fill="white" stroke="#bfbfbf" points="1057.5,-190.5 1057.5,-209.5 1141.5,-209.5 1141.5,-190.5 1057.5,-190.5"/>
<text text-anchor="middle" x="1099.5" y="-197.5" font-family="Helvetica,sans-Serif" font-size="10.00">boost/any.hpp</text>
</a>
</g>
</g>
<!-- Node33&#45;&gt;Node34 -->
<g id="edge40" class="edge">
<title>Node33&#45;&gt;Node34</title>
<path fill="none" stroke="midnightblue" d="M1191.83,-246.32C1174.11,-237.62 1146.6,-224.12 1126.21,-214.11"/>
<polygon fill="midnightblue" stroke="midnightblue" points="1127.65,-210.92 1117.13,-209.65 1124.56,-217.2 1127.65,-210.92"/>
</g>
<!-- Node35 -->
<g id="node35" class="node">
<title>Node35</title>
<g id="a_node35"><a xlink:title=" ">
<polygon fill="white" stroke="#bfbfbf" points="1159.5,-190.5 1159.5,-209.5 1227.5,-209.5 1227.5,-190.5 1159.5,-190.5"/>
<text text-anchor="middle" x="1193.5" y="-197.5" font-family="Helvetica,sans-Serif" font-size="10.00">sys/time.h</text>
</a>
</g>
</g>
<!-- Node33&#45;&gt;Node35 -->
<g id="edge41" class="edge">
<title>Node33&#45;&gt;Node35</title>
<path fill="none" stroke="midnightblue" d="M1206.86,-246.08C1204.71,-238.85 1201.62,-228.41 1198.95,-219.4"/>
<polygon fill="midnightblue" stroke="midnightblue" points="1202.29,-218.34 1196.09,-209.75 1195.58,-220.33 1202.29,-218.34"/>
</g>
</g>
</svg>
