<?xml version="1.0" encoding="UTF-8" standalone="no"?>
<!DOCTYPE svg PUBLIC "-//W3C//DTD SVG 1.1//EN"
 "http://www.w3.org/Graphics/SVG/1.1/DTD/svg11.dtd">
<!-- Generated by graphviz version 2.43.0 (0)
 -->
<!-- Title: OMSimRadDecaysDetector.hh Pages: 1 -->
<svg width="1443pt" height="442pt"
 viewBox="0.00 0.00 1442.50 442.00" xmlns="http://www.w3.org/2000/svg" xmlns:xlink="http://www.w3.org/1999/xlink">
<g id="graph0" class="graph" transform="scale(1 1) rotate(0) translate(4 438)">
<title>OMSimRadDecaysDetector.hh</title>
<!-- Node1 -->
<g id="node1" class="node">
<title>Node1</title>
<g id="a_node1"><a xlink:title="Defines the OMSimRadDecaysDetector class for the radioactive decays simulation.">
<polygon fill="#bfbfbf" stroke="black" points="698.5,-414.5 698.5,-433.5 861.5,-433.5 861.5,-414.5 698.5,-414.5"/>
<text text-anchor="middle" x="780" y="-421.5" font-family="Helvetica,sans-Serif" font-size="10.00">OMSimRadDecaysDetector.hh</text>
</a>
</g>
</g>
<!-- Node2 -->
<g id="node2" class="node">
<title>Node2</title>
<g id="a_node2"><a xlink:href="_o_m_sim_optical_module_8hh_source.html" target="_top" xlink:title=" ">
<polygon fill="none" stroke="black" points="641.5,-302.5 641.5,-321.5 778.5,-321.5 778.5,-302.5 641.5,-302.5"/>
<text text-anchor="middle" x="710" y="-309.5" font-family="Helvetica,sans-Serif" font-size="10.00">OMSimOpticalModule.hh</text>
</a>
</g>
</g>
<!-- Node1&#45;&gt;Node2 -->
<g id="edge1" class="edge">
<title>Node1&#45;&gt;Node2</title>
<path fill="none" stroke="midnightblue" d="M774.51,-414.37C763.01,-396.3 736.2,-354.18 721.01,-330.31"/>
<polygon fill="midnightblue" stroke="midnightblue" points="723.79,-328.15 715.47,-321.59 717.88,-331.91 723.79,-328.15"/>
</g>
<!-- Node3 -->
<g id="node3" class="node">
<title>Node3</title>
<g id="a_node3"><a xlink:href="abc_detector_component_8hh.html" target="_top" xlink:title="Provides helper base class abcDetectorComponent for constructing and managing detector components in ...">
<polygon fill="none" stroke="black" points="517.5,-190.5 517.5,-209.5 664.5,-209.5 664.5,-190.5 517.5,-190.5"/>
<text text-anchor="middle" x="591" y="-197.5" font-family="Helvetica,sans-Serif" font-size="10.00">abcDetectorComponent.hh</text>
</a>
</g>
</g>
<!-- Node1&#45;&gt;Node3 -->
<g id="edge38" class="edge">
<title>Node1&#45;&gt;Node3</title>
<path fill="none" stroke="midnightblue" d="M759.94,-414.46C728.26,-400 666.7,-367.71 632,-322 608.39,-290.9 597.86,-245.36 593.59,-219.94"/>
<polygon fill="midnightblue" stroke="midnightblue" points="597.01,-219.16 592.04,-209.8 590.09,-220.21 597.01,-219.16"/>
</g>
<!-- Node35 -->
<g id="node35" class="node">
<title>Node35</title>
<g id="a_node35"><a xlink:href="_o_m_sim_detector_construction_8hh_source.html" target="_top" xlink:title=" ">
<polygon fill="none" stroke="black" points="783,-358.5 783,-377.5 953,-377.5 953,-358.5 783,-358.5"/>
<text text-anchor="middle" x="868" y="-365.5" font-family="Helvetica,sans-Serif" font-size="10.00">OMSimDetectorConstruction.hh</text>
</a>
</g>
</g>
<!-- Node1&#45;&gt;Node35 -->
<g id="edge39" class="edge">
<title>Node1&#45;&gt;Node35</title>
<path fill="none" stroke="midnightblue" d="M794.14,-414.32C807.87,-405.9 828.94,-392.97 845.06,-383.07"/>
<polygon fill="midnightblue" stroke="midnightblue" points="847.2,-385.87 853.9,-377.65 843.54,-379.9 847.2,-385.87"/>
</g>
<!-- Node36 -->
<g id="node36" class="node">
<title>Node36</title>
<g id="a_node36"><a xlink:title=" ">
<polygon fill="none" stroke="#bfbfbf" points="993,-302.5 993,-321.5 1055,-321.5 1055,-302.5 993,-302.5"/>
<text text-anchor="middle" x="1024" y="-309.5" font-family="Helvetica,sans-Serif" font-size="10.00">G4Orb.hh</text>
</a>
</g>
</g>
<!-- Node1&#45;&gt;Node36 -->
<g id="edge43" class="edge">
<title>Node1&#45;&gt;Node36</title>
<path fill="none" stroke="midnightblue" d="M854.01,-414.43C888.56,-408.06 929.2,-397.03 962,-378 982.78,-365.95 1001,-344.87 1012.22,-329.98"/>
<polygon fill="midnightblue" stroke="midnightblue" points="1015.22,-331.81 1018.26,-321.66 1009.55,-327.7 1015.22,-331.81"/>
</g>
<!-- Node2&#45;&gt;Node3 -->
<g id="edge2" class="edge">
<title>Node2&#45;&gt;Node3</title>
<path fill="none" stroke="midnightblue" d="M696.53,-302.49C683.51,-293.98 663.53,-280.16 648,-266 631.44,-250.9 614.81,-231.31 603.82,-217.59"/>
<polygon fill="midnightblue" stroke="midnightblue" points="606.41,-215.23 597.48,-209.54 600.92,-219.56 606.41,-215.23"/>
</g>
<!-- Node22 -->
<g id="node22" class="node">
<title>Node22</title>
<g id="a_node22"><a xlink:href="_o_m_sim_hit_manager_8hh.html" target="_top" xlink:title="Defines structures and classes related to optical module photon hit management.">
<polygon fill="none" stroke="black" points="1076.5,-246.5 1076.5,-265.5 1199.5,-265.5 1199.5,-246.5 1076.5,-246.5"/>
<text text-anchor="middle" x="1138" y="-253.5" font-family="Helvetica,sans-Serif" font-size="10.00">OMSimHitManager.hh</text>
</a>
</g>
</g>
<!-- Node2&#45;&gt;Node22 -->
<g id="edge21" class="edge">
<title>Node2&#45;&gt;Node22</title>
<path fill="none" stroke="midnightblue" d="M777.82,-302.44C856.59,-292.5 985.99,-276.18 1066.36,-266.04"/>
<polygon fill="midnightblue" stroke="midnightblue" points="1066.92,-269.5 1076.4,-264.77 1066.04,-262.55 1066.92,-269.5"/>
</g>
<!-- Node32 -->
<g id="node32" class="node">
<title>Node32</title>
<g id="a_node32"><a xlink:href="_o_m_sim_p_m_t_construction_8hh.html" target="_top" xlink:title="Construction of the PMTs.">
<polygon fill="none" stroke="black" points="657.5,-246.5 657.5,-265.5 806.5,-265.5 806.5,-246.5 657.5,-246.5"/>
<text text-anchor="middle" x="732" y="-253.5" font-family="Helvetica,sans-Serif" font-size="10.00">OMSimPMTConstruction.hh</text>
</a>
</g>
</g>
<!-- Node2&#45;&gt;Node32 -->
<g id="edge32" class="edge">
<title>Node2&#45;&gt;Node32</title>
<path fill="none" stroke="midnightblue" d="M713.63,-302.08C716.61,-294.77 720.93,-284.18 724.62,-275.1"/>
<polygon fill="midnightblue" stroke="midnightblue" points="727.9,-276.33 728.43,-265.75 721.42,-273.69 727.9,-276.33"/>
</g>
<!-- Node4 -->
<g id="node4" class="node">
<title>Node4</title>
<g id="a_node4"><a xlink:href="_o_m_sim_input_data_8hh.html" target="_top" xlink:title="Definition of ParameterTable and InputDataManager.">
<polygon fill="none" stroke="black" points="181.5,-134.5 181.5,-153.5 296.5,-153.5 296.5,-134.5 181.5,-134.5"/>
<text text-anchor="middle" x="239" y="-141.5" font-family="Helvetica,sans-Serif" font-size="10.00">OMSimInputData.hh</text>
</a>
</g>
</g>
<!-- Node3&#45;&gt;Node4 -->
<g id="edge3" class="edge">
<title>Node3&#45;&gt;Node4</title>
<path fill="none" stroke="midnightblue" d="M535.22,-190.44C472.53,-180.83 370.85,-165.23 304.45,-155.04"/>
<polygon fill="midnightblue" stroke="midnightblue" points="304.93,-151.57 294.51,-153.52 303.87,-158.49 304.93,-151.57"/>
</g>
<!-- Node18 -->
<g id="node18" class="node">
<title>Node18</title>
<g id="a_node18"><a xlink:title=" ">
<polygon fill="none" stroke="#bfbfbf" points="314.5,-134.5 314.5,-153.5 421.5,-153.5 421.5,-134.5 314.5,-134.5"/>
<text text-anchor="middle" x="368" y="-141.5" font-family="Helvetica,sans-Serif" font-size="10.00">G4Transform3D.hh</text>
</a>
</g>
</g>
<!-- Node3&#45;&gt;Node18 -->
<g id="edge17" class="edge">
<title>Node3&#45;&gt;Node18</title>
<path fill="none" stroke="midnightblue" d="M555.66,-190.44C517.09,-181.1 455.22,-166.12 413.15,-155.93"/>
<polygon fill="midnightblue" stroke="midnightblue" points="413.71,-152.47 403.17,-153.52 412.07,-159.27 413.71,-152.47"/>
</g>
<!-- Node19 -->
<g id="node19" class="node">
<title>Node19</title>
<g id="a_node19"><a xlink:title=" ">
<polygon fill="none" stroke="#bfbfbf" points="440,-134.5 440,-153.5 548,-153.5 548,-134.5 440,-134.5"/>
<text text-anchor="middle" x="494" y="-141.5" font-family="Helvetica,sans-Serif" font-size="10.00">G4VisAttributes.hh</text>
</a>
</g>
</g>
<!-- Node3&#45;&gt;Node19 -->
<g id="edge18" class="edge">
<title>Node3&#45;&gt;Node19</title>
<path fill="none" stroke="midnightblue" d="M575.42,-190.32C560,-181.74 536.19,-168.49 518.29,-158.52"/>
<polygon fill="midnightblue" stroke="midnightblue" points="519.99,-155.46 509.55,-153.65 516.58,-161.58 519.99,-155.46"/>
</g>
<!-- Node20 -->
<g id="node20" class="node">
<title>Node20</title>
<g id="a_node20"><a xlink:title=" ">
<polygon fill="none" stroke="#bfbfbf" points="566.5,-134.5 566.5,-153.5 691.5,-153.5 691.5,-134.5 566.5,-134.5"/>
<text text-anchor="middle" x="629" y="-141.5" font-family="Helvetica,sans-Serif" font-size="10.00">G4SubtractionSolid.hh</text>
</a>
</g>
</g>
<!-- Node3&#45;&gt;Node20 -->
<g id="edge19" class="edge">
<title>Node3&#45;&gt;Node20</title>
<path fill="none" stroke="midnightblue" d="M597.27,-190.08C602.64,-182.46 610.52,-171.26 617.08,-161.94"/>
<polygon fill="midnightblue" stroke="midnightblue" points="619.95,-163.94 622.84,-153.75 614.22,-159.91 619.95,-163.94"/>
</g>
<!-- Node21 -->
<g id="node21" class="node">
<title>Node21</title>
<g id="a_node21"><a xlink:title=" ">
<polygon fill="none" stroke="#bfbfbf" points="710,-134.5 710,-153.5 820,-153.5 820,-134.5 710,-134.5"/>
<text text-anchor="middle" x="765" y="-141.5" font-family="Helvetica,sans-Serif" font-size="10.00">G4PVPlacement.hh</text>
</a>
</g>
</g>
<!-- Node3&#45;&gt;Node21 -->
<g id="edge20" class="edge">
<title>Node3&#45;&gt;Node21</title>
<path fill="none" stroke="midnightblue" d="M618.57,-190.44C648.1,-181.28 695.12,-166.69 727.88,-156.52"/>
<polygon fill="midnightblue" stroke="midnightblue" points="729.04,-159.82 737.56,-153.52 726.97,-153.14 729.04,-159.82"/>
</g>
<!-- Node5 -->
<g id="node5" class="node">
<title>Node5</title>
<g id="a_node5"><a xlink:href="_o_m_sim_logger_8hh_source.html" target="_top" xlink:title=" ">
<polygon fill="none" stroke="black" points="189.5,-73 189.5,-92 288.5,-92 288.5,-73 189.5,-73"/>
<text text-anchor="middle" x="239" y="-80" font-family="Helvetica,sans-Serif" font-size="10.00">OMSimLogger.hh</text>
</a>
</g>
</g>
<!-- Node4&#45;&gt;Node5 -->
<g id="edge4" class="edge">
<title>Node4&#45;&gt;Node5</title>
<path fill="none" stroke="midnightblue" d="M239,-134.48C239,-126.08 239,-112.98 239,-102.16"/>
<polygon fill="midnightblue" stroke="midnightblue" points="242.5,-102.01 239,-92.01 235.5,-102.01 242.5,-102.01"/>
</g>
<!-- Node10 -->
<g id="node10" class="node">
<title>Node10</title>
<g id="a_node10"><a xlink:href="_o_m_sim_op_boundary_process_8hh_source.html" target="_top" xlink:title=" ">
<polygon fill="none" stroke="black" points="603,-73 603,-92 767,-92 767,-73 603,-73"/>
<text text-anchor="middle" x="685" y="-80" font-family="Helvetica,sans-Serif" font-size="10.00">OMSimOpBoundaryProcess.hh</text>
</a>
</g>
</g>
<!-- Node4&#45;&gt;Node10 -->
<g id="edge9" class="edge">
<title>Node4&#45;&gt;Node10</title>
<path fill="none" stroke="midnightblue" d="M296.59,-135.13C299.43,-134.75 302.25,-134.37 305,-134 411.05,-119.72 533.78,-103.46 610.41,-93.34"/>
<polygon fill="midnightblue" stroke="midnightblue" points="610.99,-96.79 620.44,-92.01 610.07,-89.85 610.99,-96.79"/>
</g>
<!-- Node16 -->
<g id="node16" class="node">
<title>Node16</title>
<g id="a_node16"><a xlink:title=" ">
<polygon fill="none" stroke="#bfbfbf" points="810.5,-73 810.5,-92 929.5,-92 929.5,-73 810.5,-73"/>
<text text-anchor="middle" x="870" y="-80" font-family="Helvetica,sans-Serif" font-size="10.00">G4SystemOfUnits.hh</text>
</a>
</g>
</g>
<!-- Node4&#45;&gt;Node16 -->
<g id="edge15" class="edge">
<title>Node4&#45;&gt;Node16</title>
<path fill="none" stroke="midnightblue" d="M296.57,-134.95C299.42,-134.61 302.24,-134.29 305,-134 513.77,-111.81 567.43,-122.02 776,-98 786.8,-96.76 798.26,-95.19 809.33,-93.56"/>
<polygon fill="midnightblue" stroke="midnightblue" points="810,-97 819.36,-92.04 808.95,-90.08 810,-97"/>
</g>
<!-- Node17 -->
<g id="node17" class="node">
<title>Node17</title>
<g id="a_node17"><a xlink:title=" ">
<polygon fill="none" stroke="#bfbfbf" points="58.5,-67.5 58.5,-97.5 171.5,-97.5 171.5,-67.5 58.5,-67.5"/>
<text text-anchor="start" x="66.5" y="-85.5" font-family="Helvetica,sans-Serif" font-size="10.00">boost/property_tree</text>
<text text-anchor="middle" x="115" y="-74.5" font-family="Helvetica,sans-Serif" font-size="10.00">/json_parser.hpp</text>
</a>
</g>
</g>
<!-- Node4&#45;&gt;Node17 -->
<g id="edge16" class="edge">
<title>Node4&#45;&gt;Node17</title>
<path fill="none" stroke="midnightblue" d="M221.23,-134.48C203.58,-126 175.93,-112.74 153.27,-101.86"/>
<polygon fill="midnightblue" stroke="midnightblue" points="154.75,-98.69 144.22,-97.52 151.73,-105 154.75,-98.69"/>
</g>
<!-- Node6 -->
<g id="node6" class="node">
<title>Node6</title>
<g id="a_node6"><a xlink:title=" ">
<polygon fill="none" stroke="#bfbfbf" points="192.5,-6 192.5,-25 285.5,-25 285.5,-6 192.5,-6"/>
<text text-anchor="middle" x="239" y="-13" font-family="Helvetica,sans-Serif" font-size="10.00">spdlog/spdlog.h</text>
</a>
</g>
</g>
<!-- Node5&#45;&gt;Node6 -->
<g id="edge5" class="edge">
<title>Node5&#45;&gt;Node6</title>
<path fill="none" stroke="midnightblue" d="M239,-72.73C239,-63.18 239,-47.62 239,-35.28"/>
<polygon fill="midnightblue" stroke="midnightblue" points="242.5,-35.13 239,-25.13 235.5,-35.13 242.5,-35.13"/>
</g>
<!-- Node7 -->
<g id="node7" class="node">
<title>Node7</title>
<g id="a_node7"><a xlink:title=" ">
<polygon fill="none" stroke="#bfbfbf" points="303.5,-0.5 303.5,-30.5 414.5,-30.5 414.5,-0.5 303.5,-0.5"/>
<text text-anchor="start" x="311.5" y="-18.5" font-family="Helvetica,sans-Serif" font-size="10.00">spdlog/sinks/stdout</text>
<text text-anchor="middle" x="359" y="-7.5" font-family="Helvetica,sans-Serif" font-size="10.00">_color_sinks.h</text>
</a>
</g>
</g>
<!-- Node5&#45;&gt;Node7 -->
<g id="edge6" class="edge">
<title>Node5&#45;&gt;Node7</title>
<path fill="none" stroke="midnightblue" d="M255.18,-72.73C272.73,-63.23 301.26,-47.78 323.97,-35.47"/>
<polygon fill="midnightblue" stroke="midnightblue" points="325.86,-38.43 332.99,-30.59 322.53,-32.27 325.86,-38.43"/>
</g>
<!-- Node8 -->
<g id="node8" class="node">
<title>Node8</title>
<g id="a_node8"><a xlink:title=" ">
<polygon fill="none" stroke="#bfbfbf" points="0,-6 0,-25 58,-25 58,-6 0,-6"/>
<text text-anchor="middle" x="29" y="-13" font-family="Helvetica,sans-Serif" font-size="10.00">memory</text>
</a>
</g>
</g>
<!-- Node5&#45;&gt;Node8 -->
<g id="edge7" class="edge">
<title>Node5&#45;&gt;Node8</title>
<path fill="none" stroke="midnightblue" d="M207.06,-72.94C172.35,-63.44 115.37,-47.3 67,-31 64.74,-30.24 62.42,-29.43 60.09,-28.59"/>
<polygon fill="midnightblue" stroke="midnightblue" points="61.19,-25.27 50.6,-25.08 58.76,-31.83 61.19,-25.27"/>
</g>
<!-- Node9 -->
<g id="node9" class="node">
<title>Node9</title>
<g id="a_node9"><a xlink:title=" ">
<polygon fill="none" stroke="#bfbfbf" points="76,-6 76,-25 174,-25 174,-6 76,-6"/>
<text text-anchor="middle" x="125" y="-13" font-family="Helvetica,sans-Serif" font-size="10.00">spdlog/fmt/fmt.h</text>
</a>
</g>
</g>
<!-- Node5&#45;&gt;Node9 -->
<g id="edge8" class="edge">
<title>Node5&#45;&gt;Node9</title>
<path fill="none" stroke="midnightblue" d="M223.63,-72.73C204.48,-61.82 171.56,-43.05 149.06,-30.22"/>
<polygon fill="midnightblue" stroke="midnightblue" points="150.55,-27.04 140.13,-25.13 147.08,-33.12 150.55,-27.04"/>
</g>
<!-- Node11 -->
<g id="node11" class="node">
<title>Node11</title>
<g id="a_node11"><a xlink:title=" ">
<polygon fill="none" stroke="#bfbfbf" points="756.5,-6 756.5,-25 869.5,-25 869.5,-6 756.5,-6"/>
<text text-anchor="middle" x="813" y="-13" font-family="Helvetica,sans-Serif" font-size="10.00">G4OpticalPhoton.hh</text>
</a>
</g>
</g>
<!-- Node10&#45;&gt;Node11 -->
<g id="edge10" class="edge">
<title>Node10&#45;&gt;Node11</title>
<path fill="none" stroke="midnightblue" d="M702,-72.87C723.71,-61.84 761.49,-42.66 786.87,-29.77"/>
<polygon fill="midnightblue" stroke="midnightblue" points="788.6,-32.82 795.93,-25.17 785.43,-26.57 788.6,-32.82"/>
</g>
<!-- Node12 -->
<g id="node12" class="node">
<title>Node12</title>
<g id="a_node12"><a xlink:title=" ">
<polygon fill="none" stroke="#bfbfbf" points="888,-6 888,-25 1004,-25 1004,-6 888,-6"/>
<text text-anchor="middle" x="946" y="-13" font-family="Helvetica,sans-Serif" font-size="10.00">G4OpticalSurface.hh</text>
</a>
</g>
</g>
<!-- Node10&#45;&gt;Node12 -->
<g id="edge11" class="edge">
<title>Node10&#45;&gt;Node12</title>
<path fill="none" stroke="midnightblue" d="M719.39,-72.94C766.24,-61.27 850.17,-40.37 901.68,-27.54"/>
<polygon fill="midnightblue" stroke="midnightblue" points="902.68,-30.9 911.53,-25.08 900.98,-24.1 902.68,-30.9"/>
</g>
<!-- Node13 -->
<g id="node13" class="node">
<title>Node13</title>
<g id="a_node13"><a xlink:title=" ">
<polygon fill="none" stroke="#bfbfbf" points="1022,-6 1022,-25 1132,-25 1132,-6 1022,-6"/>
<text text-anchor="middle" x="1077" y="-13" font-family="Helvetica,sans-Serif" font-size="10.00">G4RandomTools.hh</text>
</a>
</g>
</g>
<!-- Node10&#45;&gt;Node13 -->
<g id="edge12" class="edge">
<title>Node10&#45;&gt;Node13</title>
<path fill="none" stroke="midnightblue" d="M749.03,-72.99C815.3,-63.87 921.73,-48.34 1013,-31 1018.88,-29.88 1025.04,-28.61 1031.12,-27.3"/>
<polygon fill="midnightblue" stroke="midnightblue" points="1032.2,-30.65 1041.21,-25.07 1030.69,-23.81 1032.2,-30.65"/>
</g>
<!-- Node14 -->
<g id="node14" class="node">
<title>Node14</title>
<g id="a_node14"><a xlink:title=" ">
<polygon fill="none" stroke="#bfbfbf" points="433,-6 433,-25 563,-25 563,-6 433,-6"/>
<text text-anchor="middle" x="498" y="-13" font-family="Helvetica,sans-Serif" font-size="10.00">G4VDiscreteProcess.hh</text>
</a>
</g>
</g>
<!-- Node10&#45;&gt;Node14 -->
<g id="edge13" class="edge">
<title>Node10&#45;&gt;Node14</title>
<path fill="none" stroke="midnightblue" d="M660.17,-72.87C627.38,-61.47 569.5,-41.35 532.49,-28.49"/>
<polygon fill="midnightblue" stroke="midnightblue" points="533.23,-25.04 522.64,-25.06 530.93,-31.65 533.23,-25.04"/>
</g>
<!-- Node15 -->
<g id="node15" class="node">
<title>Node15</title>
<g id="a_node15"><a xlink:title=" ">
<polygon fill="none" stroke="#bfbfbf" points="581.5,-6 581.5,-25 738.5,-25 738.5,-6 581.5,-6"/>
<text text-anchor="middle" x="660" y="-13" font-family="Helvetica,sans-Serif" font-size="10.00">G4VUserTrackInformation.hh</text>
</a>
</g>
</g>
<!-- Node10&#45;&gt;Node15 -->
<g id="edge14" class="edge">
<title>Node10&#45;&gt;Node15</title>
<path fill="none" stroke="midnightblue" d="M681.63,-72.73C677.88,-62.99 671.72,-46.98 666.94,-34.53"/>
<polygon fill="midnightblue" stroke="midnightblue" points="670.17,-33.2 663.32,-25.13 663.64,-35.72 670.17,-33.2"/>
</g>
<!-- Node23 -->
<g id="node23" class="node">
<title>Node23</title>
<g id="a_node23"><a xlink:href="_o_m_sim_p_m_t_response_8hh.html" target="_top" xlink:title="Simulation of PMT response.">
<polygon fill="none" stroke="black" points="884.5,-190.5 884.5,-209.5 1019.5,-209.5 1019.5,-190.5 884.5,-190.5"/>
<text text-anchor="middle" x="952" y="-197.5" font-family="Helvetica,sans-Serif" font-size="10.00">OMSimPMTResponse.hh</text>
</a>
</g>
</g>
<!-- Node22&#45;&gt;Node23 -->
<g id="edge22" class="edge">
<title>Node22&#45;&gt;Node23</title>
<path fill="none" stroke="midnightblue" d="M1108.53,-246.44C1076.83,-237.24 1026.27,-222.56 991.23,-212.39"/>
<polygon fill="midnightblue" stroke="midnightblue" points="991.91,-208.94 981.33,-209.52 989.96,-215.67 991.91,-208.94"/>
</g>
<!-- Node28 -->
<g id="node28" class="node">
<title>Node28</title>
<g id="a_node28"><a xlink:title=" ">
<polygon fill="none" stroke="#bfbfbf" points="1258.5,-190.5 1258.5,-209.5 1361.5,-209.5 1361.5,-190.5 1258.5,-190.5"/>
<text text-anchor="middle" x="1310" y="-197.5" font-family="Helvetica,sans-Serif" font-size="10.00">G4ThreeVector.hh</text>
</a>
</g>
</g>
<!-- Node22&#45;&gt;Node28 -->
<g id="edge28" class="edge">
<title>Node22&#45;&gt;Node28</title>
<path fill="none" stroke="midnightblue" d="M1165.25,-246.44C1194.44,-237.28 1240.92,-222.69 1273.31,-212.52"/>
<polygon fill="midnightblue" stroke="midnightblue" points="1274.38,-215.85 1282.87,-209.52 1272.28,-209.17 1274.38,-215.85"/>
</g>
<!-- Node29 -->
<g id="node29" class="node">
<title>Node29</title>
<g id="a_node29"><a xlink:title=" ">
<polygon fill="none" stroke="#bfbfbf" points="1379.5,-190.5 1379.5,-209.5 1434.5,-209.5 1434.5,-190.5 1379.5,-190.5"/>
<text text-anchor="middle" x="1407" y="-197.5" font-family="Helvetica,sans-Serif" font-size="10.00">fstream</text>
</a>
</g>
</g>
<!-- Node22&#45;&gt;Node29 -->
<g id="edge29" class="edge">
<title>Node22&#45;&gt;Node29</title>
<path fill="none" stroke="midnightblue" d="M1186.35,-246.45C1231.37,-238.31 1300.58,-225.36 1369.04,-210.35"/>
<polygon fill="midnightblue" stroke="midnightblue" points="1370.12,-213.7 1379.13,-208.13 1368.61,-206.86 1370.12,-213.7"/>
</g>
<!-- Node30 -->
<g id="node30" class="node">
<title>Node30</title>
<g id="a_node30"><a xlink:title=" ">
<polygon fill="none" stroke="#bfbfbf" points="1038,-190.5 1038,-209.5 1128,-209.5 1128,-190.5 1038,-190.5"/>
<text text-anchor="middle" x="1083" y="-197.5" font-family="Helvetica,sans-Serif" font-size="10.00">G4AutoLock.hh</text>
</a>
</g>
</g>
<!-- Node22&#45;&gt;Node30 -->
<g id="edge30" class="edge">
<title>Node22&#45;&gt;Node30</title>
<path fill="none" stroke="midnightblue" d="M1128.92,-246.08C1120.83,-238.14 1108.8,-226.34 1099.09,-216.8"/>
<polygon fill="midnightblue" stroke="midnightblue" points="1101.5,-214.26 1091.91,-209.75 1096.6,-219.25 1101.5,-214.26"/>
</g>
<!-- Node31 -->
<g id="node31" class="node">
<title>Node31</title>
<g id="a_node31"><a xlink:title=" ">
<polygon fill="none" stroke="#bfbfbf" points="1146,-190.5 1146,-209.5 1240,-209.5 1240,-190.5 1146,-190.5"/>
<text text-anchor="middle" x="1193" y="-197.5" font-family="Helvetica,sans-Serif" font-size="10.00">G4Threading.hh</text>
</a>
</g>
</g>
<!-- Node22&#45;&gt;Node31 -->
<g id="edge31" class="edge">
<title>Node22&#45;&gt;Node31</title>
<path fill="none" stroke="midnightblue" d="M1147.08,-246.08C1155.17,-238.14 1167.2,-226.34 1176.91,-216.8"/>
<polygon fill="midnightblue" stroke="midnightblue" points="1179.4,-219.25 1184.09,-209.75 1174.5,-214.26 1179.4,-219.25"/>
</g>
<!-- Node23&#45;&gt;Node16 -->
<g id="edge23" class="edge">
<title>Node23&#45;&gt;Node16</title>
<path fill="none" stroke="midnightblue" d="M945.84,-190.32C932.3,-171.26 899.78,-125.45 882.04,-100.46"/>
<polygon fill="midnightblue" stroke="midnightblue" points="884.88,-98.41 876.23,-92.28 879.17,-102.46 884.88,-98.41"/>
</g>
<!-- Node24 -->
<g id="node24" class="node">
<title>Node24</title>
<g id="a_node24"><a xlink:title=" ">
<polygon fill="none" stroke="#bfbfbf" points="948.5,-134.5 948.5,-153.5 1021.5,-153.5 1021.5,-134.5 948.5,-134.5"/>
<text text-anchor="middle" x="985" y="-141.5" font-family="Helvetica,sans-Serif" font-size="10.00">G4Types.hh</text>
</a>
</g>
</g>
<!-- Node23&#45;&gt;Node24 -->
<g id="edge24" class="edge">
<title>Node23&#45;&gt;Node24</title>
<path fill="none" stroke="midnightblue" d="M957.45,-190.08C962.01,-182.61 968.67,-171.72 974.29,-162.52"/>
<polygon fill="midnightblue" stroke="midnightblue" points="977.42,-164.11 979.65,-153.75 971.45,-160.46 977.42,-164.11"/>
</g>
<!-- Node25 -->
<g id="node25" class="node">
<title>Node25</title>
<g id="a_node25"><a xlink:title=" ">
<polygon fill="none" stroke="#bfbfbf" points="1040,-134.5 1040,-153.5 1078,-153.5 1078,-134.5 1040,-134.5"/>
<text text-anchor="middle" x="1059" y="-141.5" font-family="Helvetica,sans-Serif" font-size="10.00">map</text>
</a>
</g>
</g>
<!-- Node23&#45;&gt;Node25 -->
<g id="edge25" class="edge">
<title>Node23&#45;&gt;Node25</title>
<path fill="none" stroke="midnightblue" d="M969.19,-190.32C986.35,-181.66 1012.95,-168.24 1032.75,-158.25"/>
<polygon fill="midnightblue" stroke="midnightblue" points="1034.5,-161.28 1041.85,-153.65 1031.35,-155.04 1034.5,-161.28"/>
</g>
<!-- Node26 -->
<g id="node26" class="node">
<title>Node26</title>
<g id="a_node26"><a xlink:title=" ">
<polygon fill="none" stroke="#bfbfbf" points="1096.5,-134.5 1096.5,-153.5 1157.5,-153.5 1157.5,-134.5 1096.5,-134.5"/>
<text text-anchor="middle" x="1127" y="-141.5" font-family="Helvetica,sans-Serif" font-size="10.00">TGraph.h</text>
</a>
</g>
</g>
<!-- Node23&#45;&gt;Node26 -->
<g id="edge26" class="edge">
<title>Node23&#45;&gt;Node26</title>
<path fill="none" stroke="midnightblue" d="M979.73,-190.44C1009.43,-181.28 1056.72,-166.69 1089.67,-156.52"/>
<polygon fill="midnightblue" stroke="midnightblue" points="1090.88,-159.81 1099.4,-153.52 1088.81,-153.12 1090.88,-159.81"/>
</g>
<!-- Node27 -->
<g id="node27" class="node">
<title>Node27</title>
<g id="a_node27"><a xlink:title=" ">
<polygon fill="none" stroke="#bfbfbf" points="838.5,-134.5 838.5,-153.5 891.5,-153.5 891.5,-134.5 838.5,-134.5"/>
<text text-anchor="middle" x="865" y="-141.5" font-family="Helvetica,sans-Serif" font-size="10.00">TH2D.h</text>
</a>
</g>
</g>
<!-- Node23&#45;&gt;Node27 -->
<g id="edge27" class="edge">
<title>Node23&#45;&gt;Node27</title>
<path fill="none" stroke="midnightblue" d="M938.02,-190.32C924.45,-181.9 903.62,-168.97 887.68,-159.07"/>
<polygon fill="midnightblue" stroke="midnightblue" points="889.29,-155.95 878.94,-153.65 885.59,-161.9 889.29,-155.95"/>
</g>
<!-- Node32&#45;&gt;Node3 -->
<g id="edge33" class="edge">
<title>Node32&#45;&gt;Node3</title>
<path fill="none" stroke="midnightblue" d="M709.66,-246.44C686.25,-237.48 649.26,-223.31 622.81,-213.18"/>
<polygon fill="midnightblue" stroke="midnightblue" points="623.83,-209.82 613.24,-209.52 621.32,-216.36 623.83,-209.82"/>
</g>
<!-- Node32&#45;&gt;Node23 -->
<g id="edge35" class="edge">
<title>Node32&#45;&gt;Node23</title>
<path fill="none" stroke="midnightblue" d="M766.86,-246.44C804.92,-237.1 865.96,-222.12 907.46,-211.93"/>
<polygon fill="midnightblue" stroke="midnightblue" points="908.43,-215.3 917.3,-209.52 906.76,-208.5 908.43,-215.3"/>
</g>
<!-- Node32&#45;&gt;Node32 -->
<g id="edge34" class="edge">
<title>Node32&#45;&gt;Node32</title>
<path fill="none" stroke="midnightblue" d="M771.45,-265.53C798.26,-268.31 824.5,-265.13 824.5,-256 824.5,-248.01 804.41,-244.58 781.43,-245.71"/>
<polygon fill="midnightblue" stroke="midnightblue" points="781.15,-242.22 771.45,-246.47 781.69,-249.2 781.15,-242.22"/>
</g>
<!-- Node33 -->
<g id="node33" class="node">
<title>Node33</title>
<g id="a_node33"><a xlink:title=" ">
<polygon fill="none" stroke="#bfbfbf" points="683,-190.5 683,-209.5 781,-209.5 781,-190.5 683,-190.5"/>
<text text-anchor="middle" x="732" y="-197.5" font-family="Helvetica,sans-Serif" font-size="10.00">G4UnionSolid.hh</text>
</a>
</g>
</g>
<!-- Node32&#45;&gt;Node33 -->
<g id="edge36" class="edge">
<title>Node32&#45;&gt;Node33</title>
<path fill="none" stroke="midnightblue" d="M732,-246.08C732,-239.01 732,-228.86 732,-219.99"/>
<polygon fill="midnightblue" stroke="midnightblue" points="735.5,-219.75 732,-209.75 728.5,-219.75 735.5,-219.75"/>
</g>
<!-- Node34 -->
<g id="node34" class="node">
<title>Node34</title>
<g id="a_node34"><a xlink:title=" ">
<polygon fill="none" stroke="#bfbfbf" points="799.5,-190.5 799.5,-209.5 866.5,-209.5 866.5,-190.5 799.5,-190.5"/>
<text text-anchor="middle" x="833" y="-197.5" font-family="Helvetica,sans-Serif" font-size="10.00">G4Tubs.hh</text>
</a>
</g>
</g>
<!-- Node32&#45;&gt;Node34 -->
<g id="edge37" class="edge">
<title>Node32&#45;&gt;Node34</title>
<path fill="none" stroke="midnightblue" d="M748.23,-246.32C764.35,-237.7 789.3,-224.36 807.96,-214.39"/>
<polygon fill="midnightblue" stroke="midnightblue" points="809.64,-217.46 816.81,-209.65 806.34,-211.28 809.64,-217.46"/>
</g>
<!-- Node35&#45;&gt;Node2 -->
<g id="edge40" class="edge">
<title>Node35&#45;&gt;Node2</title>
<path fill="none" stroke="midnightblue" d="M842.96,-358.44C816.38,-349.36 774.19,-334.94 744.48,-324.78"/>
<polygon fill="midnightblue" stroke="midnightblue" points="745.51,-321.44 734.92,-321.52 743.25,-328.06 745.51,-321.44"/>
</g>
<!-- Node35&#45;&gt;Node36 -->
<g id="edge41" class="edge">
<title>Node35&#45;&gt;Node36</title>
<path fill="none" stroke="midnightblue" d="M892.72,-358.44C918.85,-349.4 960.26,-335.06 989.58,-324.92"/>
<polygon fill="midnightblue" stroke="midnightblue" points="991.09,-328.1 999.4,-321.52 988.8,-321.48 991.09,-328.1"/>
</g>
<!-- Node37 -->
<g id="node37" class="node">
<title>Node37</title>
<g id="a_node37"><a xlink:title=" ">
<polygon fill="none" stroke="#bfbfbf" points="797,-302.5 797,-321.5 975,-321.5 975,-302.5 797,-302.5"/>
<text text-anchor="middle" x="886" y="-309.5" font-family="Helvetica,sans-Serif" font-size="10.00">G4VUserDetectorConstruction.hh</text>
</a>
</g>
</g>
<!-- Node35&#45;&gt;Node37 -->
<g id="edge42" class="edge">
<title>Node35&#45;&gt;Node37</title>
<path fill="none" stroke="midnightblue" d="M870.97,-358.08C873.38,-350.85 876.86,-340.41 879.87,-331.4"/>
<polygon fill="midnightblue" stroke="midnightblue" points="883.24,-332.34 883.08,-321.75 876.6,-330.13 883.24,-332.34"/>
</g>
</g>
</svg>
