<?xml version="1.0" encoding="UTF-8" standalone="no"?>
<!DOCTYPE svg PUBLIC "-//W3C//DTD SVG 1.1//EN"
 "http://www.w3.org/Graphics/SVG/1.1/DTD/svg11.dtd">
<!-- Generated by graphviz version 2.43.0 (0)
 -->
<!-- Title: OMSim_supernova.cc Pages: 1 -->
<svg width="2364pt" height="420pt"
 viewBox="0.00 0.00 2364.00 420.00" xmlns="http://www.w3.org/2000/svg" xmlns:xlink="http://www.w3.org/1999/xlink">
<g id="graph0" class="graph" transform="scale(1 1) rotate(0) translate(4 416)">
<title>OMSim_supernova.cc</title>
<polygon fill="white" stroke="transparent" points="-4,4 -4,-416 2360,-416 2360,4 -4,4"/>
<!-- Node1 -->
<g id="node1" class="node">
<title>Node1</title>
<g id="a_node1"><a xlink:title="Main of the supernova study.">
<polygon fill="#bfbfbf" stroke="black" points="1565.5,-392.5 1565.5,-411.5 1687.5,-411.5 1687.5,-392.5 1565.5,-392.5"/>
<text text-anchor="middle" x="1626.5" y="-399.5" font-family="Helvetica,sans-Serif" font-size="10.00">OMSim_supernova.cc</text>
</a>
</g>
</g>
<!-- Node2 -->
<g id="node2" class="node">
<title>Node2</title>
<g id="a_node2"><a xlink:href="_o_m_sim_8hh.html" target="_top" xlink:title="Main simulation class for the Optical Module (OM) simulation. This file defines the OMSim class,...">
<polygon fill="white" stroke="black" points="952,-336.5 952,-355.5 1019,-355.5 1019,-336.5 952,-336.5"/>
<text text-anchor="middle" x="985.5" y="-343.5" font-family="Helvetica,sans-Serif" font-size="10.00">OMSim.hh</text>
</a>
</g>
</g>
<!-- Node1&#45;&gt;Node2 -->
<g id="edge1" class="edge">
<title>Node1&#45;&gt;Node2</title>
<path fill="none" stroke="midnightblue" d="M1565.33,-395.85C1436.79,-385.02 1141.31,-360.13 1029.48,-350.7"/>
<polygon fill="midnightblue" stroke="midnightblue" points="1029.5,-347.19 1019.24,-349.84 1028.91,-354.17 1029.5,-347.19"/>
</g>
<!-- Node19 -->
<g id="node13" class="node">
<title>Node19</title>
<g id="a_node13"><a xlink:href="_o_m_sim_hit_manager_8hh.html" target="_top" xlink:title="Defines structures and classes related to optical module photon hit management.">
<polygon fill="white" stroke="black" points="1599,-168.5 1599,-187.5 1722,-187.5 1722,-168.5 1599,-168.5"/>
<text text-anchor="middle" x="1660.5" y="-175.5" font-family="Helvetica,sans-Serif" font-size="10.00">OMSimHitManager.hh</text>
</a>
</g>
</g>
<!-- Node1&#45;&gt;Node19 -->
<g id="edge59" class="edge">
<title>Node1&#45;&gt;Node19</title>
<path fill="none" stroke="midnightblue" d="M1627.83,-392.3C1632.84,-359.63 1650.57,-243.87 1657.6,-197.96"/>
<polygon fill="midnightblue" stroke="midnightblue" points="1661.09,-198.3 1659.14,-187.88 1654.17,-197.24 1661.09,-198.3"/>
</g>
<!-- Node33 -->
<g id="node27" class="node">
<title>Node33</title>
<g id="a_node27"><a xlink:title=" ">
<polygon fill="white" stroke="#bfbfbf" points="0,-280.5 0,-299.5 185,-299.5 185,-280.5 0,-280.5"/>
<text text-anchor="middle" x="92.5" y="-287.5" font-family="Helvetica,sans-Serif" font-size="10.00">OMSimPrimaryGeneratorAction.hh</text>
</a>
</g>
</g>
<!-- Node1&#45;&gt;Node33 -->
<g id="edge58" class="edge">
<title>Node1&#45;&gt;Node33</title>
<path fill="none" stroke="midnightblue" d="M1565.36,-397.19C1368.41,-384.8 732.65,-344 195.52,-300.16"/>
<polygon fill="midnightblue" stroke="midnightblue" points="195.49,-296.64 185.23,-299.32 194.91,-303.62 195.49,-296.64"/>
</g>
<!-- Node51 -->
<g id="node45" class="node">
<title>Node51</title>
<g id="a_node45"><a xlink:href="_o_m_sim_s_n_analysis_8hh.html" target="_top" xlink:title=" ">
<polygon fill="white" stroke="black" points="1429.5,-224.5 1429.5,-243.5 1551.5,-243.5 1551.5,-224.5 1429.5,-224.5"/>
<text text-anchor="middle" x="1490.5" y="-231.5" font-family="Helvetica,sans-Serif" font-size="10.00">OMSimSNAnalysis.hh</text>
</a>
</g>
</g>
<!-- Node1&#45;&gt;Node51 -->
<g id="edge50" class="edge">
<title>Node1&#45;&gt;Node51</title>
<path fill="none" stroke="midnightblue" d="M1626.11,-392.22C1624.69,-370.53 1618.2,-313.7 1588.5,-280 1574.69,-264.33 1554.31,-253.77 1535.7,-246.85"/>
<polygon fill="midnightblue" stroke="midnightblue" points="1536.77,-243.51 1526.18,-243.55 1534.48,-250.13 1536.77,-243.51"/>
</g>
<!-- Node55 -->
<g id="node49" class="node">
<title>Node55</title>
<g id="a_node49"><a xlink:title=" ">
<polygon fill="white" stroke="#bfbfbf" points="1673.5,-336.5 1673.5,-355.5 1765.5,-355.5 1765.5,-336.5 1673.5,-336.5"/>
<text text-anchor="middle" x="1719.5" y="-343.5" font-family="Helvetica,sans-Serif" font-size="10.00">G4Navigator.hh</text>
</a>
</g>
</g>
<!-- Node1&#45;&gt;Node55 -->
<g id="edge60" class="edge">
<title>Node1&#45;&gt;Node55</title>
<path fill="none" stroke="midnightblue" d="M1641.44,-392.32C1656.09,-383.82 1678.63,-370.73 1695.74,-360.8"/>
<polygon fill="midnightblue" stroke="midnightblue" points="1697.7,-363.7 1704.6,-355.65 1694.19,-357.65 1697.7,-363.7"/>
</g>
<!-- Node56 -->
<g id="node50" class="node">
<title>Node56</title>
<g id="a_node50"><a xlink:href="_o_m_sim_s_ndetector_8hh.html" target="_top" xlink:title=" ">
<polygon fill="white" stroke="black" points="1783.5,-336.5 1783.5,-355.5 1903.5,-355.5 1903.5,-336.5 1783.5,-336.5"/>
<text text-anchor="middle" x="1843.5" y="-343.5" font-family="Helvetica,sans-Serif" font-size="10.00">OMSimSNdetector.hh</text>
</a>
</g>
</g>
<!-- Node1&#45;&gt;Node56 -->
<g id="edge61" class="edge">
<title>Node1&#45;&gt;Node56</title>
<path fill="none" stroke="midnightblue" d="M1660.88,-392.44C1698.42,-383.1 1758.63,-368.12 1799.57,-357.93"/>
<polygon fill="midnightblue" stroke="midnightblue" points="1800.42,-361.33 1809.28,-355.52 1798.73,-354.53 1800.42,-361.33"/>
</g>
<!-- Node3 -->
<g id="node3" class="node">
<title>Node3</title>
<g id="a_node3"><a xlink:href="_o_m_sim_detector_construction_8hh.html" target="_top" xlink:title=" ">
<polygon fill="white" stroke="black" points="1758.5,-280.5 1758.5,-299.5 1928.5,-299.5 1928.5,-280.5 1758.5,-280.5"/>
<text text-anchor="middle" x="1843.5" y="-287.5" font-family="Helvetica,sans-Serif" font-size="10.00">OMSimDetectorConstruction.hh</text>
</a>
</g>
</g>
<!-- Node2&#45;&gt;Node3 -->
<g id="edge2" class="edge">
<title>Node2&#45;&gt;Node3</title>
<path fill="none" stroke="midnightblue" d="M1019.13,-342.88C1140.45,-335.25 1558.32,-308.95 1748.23,-297"/>
<polygon fill="midnightblue" stroke="midnightblue" points="1748.72,-300.47 1758.48,-296.35 1748.28,-293.49 1748.72,-300.47"/>
</g>
<!-- Node32 -->
<g id="node26" class="node">
<title>Node32</title>
<g id="a_node26"><a xlink:title=" ">
<polygon fill="white" stroke="#bfbfbf" points="203,-280.5 203,-299.5 324,-299.5 324,-280.5 203,-280.5"/>
<text text-anchor="middle" x="263.5" y="-287.5" font-family="Helvetica,sans-Serif" font-size="10.00">OMSimPhysicsList.hh</text>
</a>
</g>
</g>
<!-- Node2&#45;&gt;Node32 -->
<g id="edge29" class="edge">
<title>Node2&#45;&gt;Node32</title>
<path fill="none" stroke="midnightblue" d="M951.85,-343.38C856.72,-338.65 577.55,-323.74 334.28,-300.02"/>
<polygon fill="midnightblue" stroke="midnightblue" points="334.48,-296.52 324.18,-299.02 333.79,-303.49 334.48,-296.52"/>
</g>
<!-- Node2&#45;&gt;Node33 -->
<g id="edge30" class="edge">
<title>Node2&#45;&gt;Node33</title>
<path fill="none" stroke="midnightblue" d="M951.89,-343.48C843.79,-338.5 495.05,-321.8 195.42,-300.12"/>
<polygon fill="midnightblue" stroke="midnightblue" points="195.46,-296.61 185.23,-299.38 194.95,-303.6 195.46,-296.61"/>
</g>
<!-- Node34 -->
<g id="node28" class="node">
<title>Node34</title>
<g id="a_node28"><a xlink:href="_o_m_sim_run_action_8hh.html" target="_top" xlink:title=" ">
<polygon fill="white" stroke="black" points="342.5,-280.5 342.5,-299.5 458.5,-299.5 458.5,-280.5 342.5,-280.5"/>
<text text-anchor="middle" x="400.5" y="-287.5" font-family="Helvetica,sans-Serif" font-size="10.00">OMSimRunAction.hh</text>
</a>
</g>
</g>
<!-- Node2&#45;&gt;Node34 -->
<g id="edge31" class="edge">
<title>Node2&#45;&gt;Node34</title>
<path fill="none" stroke="midnightblue" d="M951.81,-342.62C870.63,-336.78 657.53,-320.74 468.7,-300.08"/>
<polygon fill="midnightblue" stroke="midnightblue" points="468.91,-296.59 458.58,-298.97 468.14,-303.54 468.91,-296.59"/>
</g>
<!-- Node36 -->
<g id="node30" class="node">
<title>Node36</title>
<g id="a_node30"><a xlink:title=" ">
<polygon fill="white" stroke="#bfbfbf" points="477,-280.5 477,-299.5 602,-299.5 602,-280.5 477,-280.5"/>
<text text-anchor="middle" x="539.5" y="-287.5" font-family="Helvetica,sans-Serif" font-size="10.00">OMSimEventAction.hh</text>
</a>
</g>
</g>
<!-- Node2&#45;&gt;Node36 -->
<g id="edge33" class="edge">
<title>Node2&#45;&gt;Node36</title>
<path fill="none" stroke="midnightblue" d="M951.97,-341.02C888.17,-333.43 744.64,-316.31 612.62,-300.13"/>
<polygon fill="midnightblue" stroke="midnightblue" points="612.68,-296.61 602.33,-298.87 611.83,-303.56 612.68,-296.61"/>
</g>
<!-- Node37 -->
<g id="node31" class="node">
<title>Node37</title>
<g id="a_node31"><a xlink:href="_o_m_sim_tracking_action_8hh.html" target="_top" xlink:title=" ">
<polygon fill="white" stroke="black" points="620.5,-280.5 620.5,-299.5 758.5,-299.5 758.5,-280.5 620.5,-280.5"/>
<text text-anchor="middle" x="689.5" y="-287.5" font-family="Helvetica,sans-Serif" font-size="10.00">OMSimTrackingAction.hh</text>
</a>
</g>
</g>
<!-- Node2&#45;&gt;Node37 -->
<g id="edge34" class="edge">
<title>Node2&#45;&gt;Node37</title>
<path fill="none" stroke="midnightblue" d="M951.83,-338.86C901.84,-329.74 807.35,-312.5 746.47,-301.39"/>
<polygon fill="midnightblue" stroke="midnightblue" points="746.72,-297.88 736.26,-299.53 745.47,-304.77 746.72,-297.88"/>
</g>
<!-- Node39 -->
<g id="node33" class="node">
<title>Node39</title>
<g id="a_node33"><a xlink:href="_o_m_sim_stepping_action_8hh.html" target="_top" xlink:title="Defines OMSimSteppingAction.Currently it only checks for trapped photons.">
<polygon fill="white" stroke="black" points="776.5,-280.5 776.5,-299.5 916.5,-299.5 916.5,-280.5 776.5,-280.5"/>
<text text-anchor="middle" x="846.5" y="-287.5" font-family="Helvetica,sans-Serif" font-size="10.00">OMSimSteppingAction.hh</text>
</a>
</g>
</g>
<!-- Node2&#45;&gt;Node39 -->
<g id="edge36" class="edge">
<title>Node2&#45;&gt;Node39</title>
<path fill="none" stroke="midnightblue" d="M963.48,-336.44C940.4,-327.48 903.94,-313.31 877.86,-303.18"/>
<polygon fill="midnightblue" stroke="midnightblue" points="879.01,-299.88 868.42,-299.52 876.48,-306.4 879.01,-299.88"/>
</g>
<!-- Node41 -->
<g id="node35" class="node">
<title>Node41</title>
<g id="a_node35"><a xlink:href="_o_m_sim_u_iinterface_8hh.html" target="_top" xlink:title="The OMSimUIinterface class provides a singleton interface to Geant4&#39;s UI manager.">
<polygon fill="white" stroke="black" points="991,-224.5 991,-243.5 1112,-243.5 1112,-224.5 991,-224.5"/>
<text text-anchor="middle" x="1051.5" y="-231.5" font-family="Helvetica,sans-Serif" font-size="10.00">OMSimUIinterface.hh</text>
</a>
</g>
</g>
<!-- Node2&#45;&gt;Node41 -->
<g id="edge38" class="edge">
<title>Node2&#45;&gt;Node41</title>
<path fill="none" stroke="midnightblue" d="M978.21,-336.48C968.08,-323.55 952.18,-298.5 963.5,-280 973.01,-264.46 989.76,-254.07 1006.12,-247.23"/>
<polygon fill="midnightblue" stroke="midnightblue" points="1007.55,-250.43 1015.65,-243.6 1005.06,-243.89 1007.55,-250.43"/>
</g>
<!-- Node46 -->
<g id="node40" class="node">
<title>Node46</title>
<g id="a_node40"><a xlink:title=" ">
<polygon fill="white" stroke="#bfbfbf" points="972.5,-280.5 972.5,-299.5 1078.5,-299.5 1078.5,-280.5 972.5,-280.5"/>
<text text-anchor="middle" x="1025.5" y="-287.5" font-family="Helvetica,sans-Serif" font-size="10.00">G4RunManager.hh</text>
</a>
</g>
</g>
<!-- Node2&#45;&gt;Node46 -->
<g id="edge45" class="edge">
<title>Node2&#45;&gt;Node46</title>
<path fill="none" stroke="midnightblue" d="M992.11,-336.08C997.76,-328.46 1006.04,-317.26 1012.95,-307.94"/>
<polygon fill="midnightblue" stroke="midnightblue" points="1015.88,-309.87 1019.02,-299.75 1010.25,-305.7 1015.88,-309.87"/>
</g>
<!-- Node47 -->
<g id="node41" class="node">
<title>Node47</title>
<g id="a_node41"><a xlink:title=" ">
<polygon fill="white" stroke="#bfbfbf" points="1097,-280.5 1097,-299.5 1204,-299.5 1204,-280.5 1097,-280.5"/>
<text text-anchor="middle" x="1150.5" y="-287.5" font-family="Helvetica,sans-Serif" font-size="10.00">G4VisExecutive.hh</text>
</a>
</g>
</g>
<!-- Node2&#45;&gt;Node47 -->
<g id="edge46" class="edge">
<title>Node2&#45;&gt;Node47</title>
<path fill="none" stroke="midnightblue" d="M1011.64,-336.44C1039.52,-327.32 1083.85,-312.81 1114.9,-302.65"/>
<polygon fill="midnightblue" stroke="midnightblue" points="1116.06,-305.95 1124.48,-299.52 1113.88,-299.3 1116.06,-305.95"/>
</g>
<!-- Node48 -->
<g id="node42" class="node">
<title>Node48</title>
<g id="a_node42"><a xlink:title=" ">
<polygon fill="white" stroke="#bfbfbf" points="1222,-280.5 1222,-299.5 1325,-299.5 1325,-280.5 1222,-280.5"/>
<text text-anchor="middle" x="1273.5" y="-287.5" font-family="Helvetica,sans-Serif" font-size="10.00">G4UIExecutive.hh</text>
</a>
</g>
</g>
<!-- Node2&#45;&gt;Node48 -->
<g id="edge47" class="edge">
<title>Node2&#45;&gt;Node48</title>
<path fill="none" stroke="midnightblue" d="M1019.1,-338.7C1067.91,-329.55 1159.02,-312.46 1217.93,-301.42"/>
<polygon fill="midnightblue" stroke="midnightblue" points="1218.63,-304.85 1227.81,-299.57 1217.34,-297.97 1218.63,-304.85"/>
</g>
<!-- Node49 -->
<g id="node43" class="node">
<title>Node49</title>
<g id="a_node43"><a xlink:title=" ">
<polygon fill="white" stroke="#bfbfbf" points="1343.5,-280.5 1343.5,-299.5 1411.5,-299.5 1411.5,-280.5 1343.5,-280.5"/>
<text text-anchor="middle" x="1377.5" y="-287.5" font-family="Helvetica,sans-Serif" font-size="10.00">filesystem</text>
</a>
</g>
</g>
<!-- Node2&#45;&gt;Node49 -->
<g id="edge48" class="edge">
<title>Node2&#45;&gt;Node49</title>
<path fill="none" stroke="midnightblue" d="M1019.32,-341.53C1080.09,-335.1 1211.97,-320.27 1333.09,-300.13"/>
<polygon fill="midnightblue" stroke="midnightblue" points="1334,-303.52 1343.28,-298.41 1332.84,-296.62 1334,-303.52"/>
</g>
<!-- Node50 -->
<g id="node44" class="node">
<title>Node50</title>
<g id="a_node44"><a xlink:title=" ">
<polygon fill="white" stroke="#bfbfbf" points="1429.5,-280.5 1429.5,-299.5 1579.5,-299.5 1579.5,-280.5 1429.5,-280.5"/>
<text text-anchor="middle" x="1504.5" y="-287.5" font-family="Helvetica,sans-Serif" font-size="10.00">boost/program_options.hpp</text>
</a>
</g>
</g>
<!-- Node2&#45;&gt;Node50 -->
<g id="edge49" class="edge">
<title>Node2&#45;&gt;Node50</title>
<path fill="none" stroke="midnightblue" d="M1019.07,-341.57C1090.52,-334.26 1263.18,-316.54 1419.15,-300.14"/>
<polygon fill="midnightblue" stroke="midnightblue" points="1419.82,-303.59 1429.4,-299.06 1419.08,-296.63 1419.82,-303.59"/>
</g>
<!-- Node4 -->
<g id="node4" class="node">
<title>Node4</title>
<g id="a_node4"><a xlink:href="_o_m_sim_optical_module_8hh.html" target="_top" xlink:title=" ">
<polygon fill="white" stroke="black" points="1950,-224.5 1950,-243.5 2087,-243.5 2087,-224.5 1950,-224.5"/>
<text text-anchor="middle" x="2018.5" y="-231.5" font-family="Helvetica,sans-Serif" font-size="10.00">OMSimOpticalModule.hh</text>
</a>
</g>
</g>
<!-- Node3&#45;&gt;Node4 -->
<g id="edge3" class="edge">
<title>Node3&#45;&gt;Node4</title>
<path fill="none" stroke="midnightblue" d="M1871.23,-280.44C1900.93,-271.28 1948.22,-256.69 1981.17,-246.52"/>
<polygon fill="midnightblue" stroke="midnightblue" points="1982.38,-249.81 1990.9,-243.52 1980.31,-243.12 1982.38,-249.81"/>
</g>
<!-- Node30 -->
<g id="node24" class="node">
<title>Node30</title>
<g id="a_node24"><a xlink:title=" ">
<polygon fill="white" stroke="#bfbfbf" points="1869.5,-224.5 1869.5,-243.5 1931.5,-243.5 1931.5,-224.5 1869.5,-224.5"/>
<text text-anchor="middle" x="1900.5" y="-231.5" font-family="Helvetica,sans-Serif" font-size="10.00">G4Orb.hh</text>
</a>
</g>
</g>
<!-- Node3&#45;&gt;Node30 -->
<g id="edge27" class="edge">
<title>Node3&#45;&gt;Node30</title>
<path fill="none" stroke="midnightblue" d="M1852.66,-280.32C1861,-272.42 1873.53,-260.55 1883.68,-250.94"/>
<polygon fill="midnightblue" stroke="midnightblue" points="1886.32,-253.25 1891.18,-243.83 1881.51,-248.17 1886.32,-253.25"/>
</g>
<!-- Node31 -->
<g id="node25" class="node">
<title>Node31</title>
<g id="a_node25"><a xlink:title=" ">
<polygon fill="white" stroke="#bfbfbf" points="1673.5,-224.5 1673.5,-243.5 1851.5,-243.5 1851.5,-224.5 1673.5,-224.5"/>
<text text-anchor="middle" x="1762.5" y="-231.5" font-family="Helvetica,sans-Serif" font-size="10.00">G4VUserDetectorConstruction.hh</text>
</a>
</g>
</g>
<!-- Node3&#45;&gt;Node31 -->
<g id="edge28" class="edge">
<title>Node3&#45;&gt;Node31</title>
<path fill="none" stroke="midnightblue" d="M1830.49,-280.32C1817.97,-271.98 1798.82,-259.21 1784.03,-249.35"/>
<polygon fill="midnightblue" stroke="midnightblue" points="1785.74,-246.29 1775.48,-243.65 1781.86,-252.11 1785.74,-246.29"/>
</g>
<!-- Node5 -->
<g id="node5" class="node">
<title>Node5</title>
<g id="a_node5"><a xlink:href="abc_detector_component_8hh.html" target="_top" xlink:title="Provides helper base class abcDetectorComponent for constructing and managing detector components in ...">
<polygon fill="white" stroke="black" points="1963,-112.5 1963,-131.5 2110,-131.5 2110,-112.5 1963,-112.5"/>
<text text-anchor="middle" x="2036.5" y="-119.5" font-family="Helvetica,sans-Serif" font-size="10.00">abcDetectorComponent.hh</text>
</a>
</g>
</g>
<!-- Node4&#45;&gt;Node5 -->
<g id="edge4" class="edge">
<title>Node4&#45;&gt;Node5</title>
<path fill="none" stroke="midnightblue" d="M2019.91,-224.37C2022.82,-206.62 2029.52,-165.67 2033.46,-141.6"/>
<polygon fill="midnightblue" stroke="midnightblue" points="2036.93,-142.03 2035.09,-131.59 2030.03,-140.89 2036.93,-142.03"/>
</g>
<!-- Node4&#45;&gt;Node19 -->
<g id="edge12" class="edge">
<title>Node4&#45;&gt;Node19</title>
<path fill="none" stroke="midnightblue" d="M1961.77,-224.44C1898.01,-214.83 1794.6,-199.23 1727.07,-189.04"/>
<polygon fill="midnightblue" stroke="midnightblue" points="1727.37,-185.55 1716.96,-187.52 1726.33,-192.47 1727.37,-185.55"/>
</g>
<!-- Node27 -->
<g id="node21" class="node">
<title>Node27</title>
<g id="a_node21"><a xlink:href="_o_m_sim_p_m_t_construction_8hh.html" target="_top" xlink:title="Construction of the PMTs.">
<polygon fill="white" stroke="black" points="1821,-168.5 1821,-187.5 1970,-187.5 1970,-168.5 1821,-168.5"/>
<text text-anchor="middle" x="1895.5" y="-175.5" font-family="Helvetica,sans-Serif" font-size="10.00">OMSimPMTConstruction.hh</text>
</a>
</g>
</g>
<!-- Node4&#45;&gt;Node27 -->
<g id="edge21" class="edge">
<title>Node4&#45;&gt;Node27</title>
<path fill="none" stroke="midnightblue" d="M1999.01,-224.44C1978.86,-215.6 1947.18,-201.69 1924.17,-191.59"/>
<polygon fill="midnightblue" stroke="midnightblue" points="1925.46,-188.33 1914.9,-187.52 1922.65,-194.74 1925.46,-188.33"/>
</g>
<!-- Node6 -->
<g id="node6" class="node">
<title>Node6</title>
<g id="a_node6"><a xlink:href="_o_m_sim_input_data_8hh.html" target="_top" xlink:title="Definition of ParameterTable and InputDataManager.">
<polygon fill="white" stroke="red" points="1717,-56.5 1717,-75.5 1832,-75.5 1832,-56.5 1717,-56.5"/>
<text text-anchor="middle" x="1774.5" y="-63.5" font-family="Helvetica,sans-Serif" font-size="10.00">OMSimInputData.hh</text>
</a>
</g>
</g>
<!-- Node5&#45;&gt;Node6 -->
<g id="edge5" class="edge">
<title>Node5&#45;&gt;Node6</title>
<path fill="none" stroke="midnightblue" d="M1994.99,-112.44C1949.09,-102.98 1875.12,-87.74 1825.67,-77.55"/>
<polygon fill="midnightblue" stroke="midnightblue" points="1826.32,-74.11 1815.82,-75.52 1824.91,-80.96 1826.32,-74.11"/>
</g>
<!-- Node15 -->
<g id="node9" class="node">
<title>Node15</title>
<g id="a_node9"><a xlink:title=" ">
<polygon fill="white" stroke="#bfbfbf" points="2249,-56.5 2249,-75.5 2356,-75.5 2356,-56.5 2249,-56.5"/>
<text text-anchor="middle" x="2302.5" y="-63.5" font-family="Helvetica,sans-Serif" font-size="10.00">G4Transform3D.hh</text>
</a>
</g>
</g>
<!-- Node5&#45;&gt;Node15 -->
<g id="edge8" class="edge">
<title>Node5&#45;&gt;Node15</title>
<path fill="none" stroke="midnightblue" d="M2078.65,-112.44C2125.25,-102.98 2200.34,-87.74 2250.55,-77.55"/>
<polygon fill="midnightblue" stroke="midnightblue" points="2251.44,-80.94 2260.55,-75.52 2250.05,-74.08 2251.44,-80.94"/>
</g>
<!-- Node16 -->
<g id="node10" class="node">
<title>Node16</title>
<g id="a_node10"><a xlink:title=" ">
<polygon fill="white" stroke="#bfbfbf" points="1850.5,-56.5 1850.5,-75.5 1958.5,-75.5 1958.5,-56.5 1850.5,-56.5"/>
<text text-anchor="middle" x="1904.5" y="-63.5" font-family="Helvetica,sans-Serif" font-size="10.00">G4VisAttributes.hh</text>
</a>
</g>
</g>
<!-- Node5&#45;&gt;Node16 -->
<g id="edge9" class="edge">
<title>Node5&#45;&gt;Node16</title>
<path fill="none" stroke="midnightblue" d="M2015.58,-112.44C1993.76,-103.52 1959.35,-89.44 1934.61,-79.32"/>
<polygon fill="midnightblue" stroke="midnightblue" points="1935.9,-76.06 1925.32,-75.52 1933.25,-82.54 1935.9,-76.06"/>
</g>
<!-- Node17 -->
<g id="node11" class="node">
<title>Node17</title>
<g id="a_node11"><a xlink:title=" ">
<polygon fill="white" stroke="#bfbfbf" points="1977,-56.5 1977,-75.5 2102,-75.5 2102,-56.5 1977,-56.5"/>
<text text-anchor="middle" x="2039.5" y="-63.5" font-family="Helvetica,sans-Serif" font-size="10.00">G4SubtractionSolid.hh</text>
</a>
</g>
</g>
<!-- Node5&#45;&gt;Node17 -->
<g id="edge10" class="edge">
<title>Node5&#45;&gt;Node17</title>
<path fill="none" stroke="midnightblue" d="M2037,-112.08C2037.39,-105.01 2037.95,-94.86 2038.45,-85.99"/>
<polygon fill="midnightblue" stroke="midnightblue" points="2041.95,-85.93 2039.01,-75.75 2034.96,-85.54 2041.95,-85.93"/>
</g>
<!-- Node18 -->
<g id="node12" class="node">
<title>Node18</title>
<g id="a_node12"><a xlink:title=" ">
<polygon fill="white" stroke="#bfbfbf" points="2120.5,-56.5 2120.5,-75.5 2230.5,-75.5 2230.5,-56.5 2120.5,-56.5"/>
<text text-anchor="middle" x="2175.5" y="-63.5" font-family="Helvetica,sans-Serif" font-size="10.00">G4PVPlacement.hh</text>
</a>
</g>
</g>
<!-- Node5&#45;&gt;Node18 -->
<g id="edge11" class="edge">
<title>Node5&#45;&gt;Node18</title>
<path fill="none" stroke="midnightblue" d="M2058.52,-112.44C2081.6,-103.48 2118.06,-89.31 2144.14,-79.18"/>
<polygon fill="midnightblue" stroke="midnightblue" points="2145.52,-82.4 2153.58,-75.52 2142.99,-75.88 2145.52,-82.4"/>
</g>
<!-- Node7 -->
<g id="node7" class="node">
<title>Node7</title>
<g id="a_node7"><a xlink:href="_o_m_sim_logger_8hh.html" target="_top" xlink:title=" ">
<polygon fill="white" stroke="red" points="1285,-0.5 1285,-19.5 1384,-19.5 1384,-0.5 1285,-0.5"/>
<text text-anchor="middle" x="1334.5" y="-7.5" font-family="Helvetica,sans-Serif" font-size="10.00">OMSimLogger.hh</text>
</a>
</g>
</g>
<!-- Node6&#45;&gt;Node7 -->
<g id="edge6" class="edge">
<title>Node6&#45;&gt;Node7</title>
<path fill="none" stroke="midnightblue" d="M1716.98,-57.94C1633.37,-47.68 1479.03,-28.74 1394.21,-18.33"/>
<polygon fill="midnightblue" stroke="midnightblue" points="1394.57,-14.85 1384.22,-17.1 1393.72,-21.79 1394.57,-14.85"/>
</g>
<!-- Node13 -->
<g id="node8" class="node">
<title>Node13</title>
<g id="a_node8"><a xlink:title=" ">
<polygon fill="white" stroke="#bfbfbf" points="1672,-0.5 1672,-19.5 1791,-19.5 1791,-0.5 1672,-0.5"/>
<text text-anchor="middle" x="1731.5" y="-7.5" font-family="Helvetica,sans-Serif" font-size="10.00">G4SystemOfUnits.hh</text>
</a>
</g>
</g>
<!-- Node6&#45;&gt;Node13 -->
<g id="edge7" class="edge">
<title>Node6&#45;&gt;Node13</title>
<path fill="none" stroke="midnightblue" d="M1767.4,-56.08C1761.26,-48.38 1752.23,-37.03 1744.76,-27.65"/>
<polygon fill="midnightblue" stroke="midnightblue" points="1747.44,-25.39 1738.47,-19.75 1741.96,-29.75 1747.44,-25.39"/>
</g>
<!-- Node20 -->
<g id="node14" class="node">
<title>Node20</title>
<g id="a_node14"><a xlink:href="_o_m_sim_p_m_t_response_8hh.html" target="_top" xlink:title="Provides simulation for PMT response. This class is responsible for transforming hits on photocathode...">
<polygon fill="white" stroke="black" points="1593,-112.5 1593,-131.5 1728,-131.5 1728,-112.5 1593,-112.5"/>
<text text-anchor="middle" x="1660.5" y="-119.5" font-family="Helvetica,sans-Serif" font-size="10.00">OMSimPMTResponse.hh</text>
</a>
</g>
</g>
<!-- Node19&#45;&gt;Node20 -->
<g id="edge13" class="edge">
<title>Node19&#45;&gt;Node20</title>
<path fill="none" stroke="midnightblue" d="M1660.5,-168.08C1660.5,-161.01 1660.5,-150.86 1660.5,-141.99"/>
<polygon fill="midnightblue" stroke="midnightblue" points="1664,-141.75 1660.5,-131.75 1657,-141.75 1664,-141.75"/>
</g>
<!-- Node25 -->
<g id="node19" class="node">
<title>Node25</title>
<g id="a_node19"><a xlink:title=" ">
<polygon fill="white" stroke="#bfbfbf" points="1472,-112.5 1472,-131.5 1575,-131.5 1575,-112.5 1472,-112.5"/>
<text text-anchor="middle" x="1523.5" y="-119.5" font-family="Helvetica,sans-Serif" font-size="10.00">G4ThreeVector.hh</text>
</a>
</g>
</g>
<!-- Node19&#45;&gt;Node25 -->
<g id="edge19" class="edge">
<title>Node19&#45;&gt;Node25</title>
<path fill="none" stroke="midnightblue" d="M1638.79,-168.44C1616.15,-159.52 1580.43,-145.44 1554.75,-135.32"/>
<polygon fill="midnightblue" stroke="midnightblue" points="1555.69,-131.93 1545.11,-131.52 1553.13,-138.44 1555.69,-131.93"/>
</g>
<!-- Node26 -->
<g id="node20" class="node">
<title>Node26</title>
<g id="a_node20"><a xlink:title=" ">
<polygon fill="white" stroke="#bfbfbf" points="1232,-112.5 1232,-131.5 1287,-131.5 1287,-112.5 1232,-112.5"/>
<text text-anchor="middle" x="1259.5" y="-119.5" font-family="Helvetica,sans-Serif" font-size="10.00">fstream</text>
</a>
</g>
</g>
<!-- Node19&#45;&gt;Node26 -->
<g id="edge20" class="edge">
<title>Node19&#45;&gt;Node26</title>
<path fill="none" stroke="midnightblue" d="M1598.72,-168.68C1514.51,-157.34 1366.25,-137.38 1297.05,-128.06"/>
<polygon fill="midnightblue" stroke="midnightblue" points="1297.42,-124.57 1287.04,-126.71 1296.48,-131.51 1297.42,-124.57"/>
</g>
<!-- Node20&#45;&gt;Node13 -->
<g id="edge14" class="edge">
<title>Node20&#45;&gt;Node13</title>
<path fill="none" stroke="midnightblue" d="M1666.07,-112.37C1677.74,-94.3 1704.92,-52.18 1720.33,-28.31"/>
<polygon fill="midnightblue" stroke="midnightblue" points="1723.47,-29.89 1725.95,-19.59 1717.59,-26.1 1723.47,-29.89"/>
</g>
<!-- Node21 -->
<g id="node15" class="node">
<title>Node21</title>
<g id="a_node15"><a xlink:title=" ">
<polygon fill="white" stroke="#bfbfbf" points="1337,-56.5 1337,-75.5 1410,-75.5 1410,-56.5 1337,-56.5"/>
<text text-anchor="middle" x="1373.5" y="-63.5" font-family="Helvetica,sans-Serif" font-size="10.00">G4Types.hh</text>
</a>
</g>
</g>
<!-- Node20&#45;&gt;Node21 -->
<g id="edge15" class="edge">
<title>Node20&#45;&gt;Node21</title>
<path fill="none" stroke="midnightblue" d="M1615.02,-112.44C1561.72,-102.41 1473.84,-85.88 1420.07,-75.76"/>
<polygon fill="midnightblue" stroke="midnightblue" points="1420.59,-72.3 1410.11,-73.89 1419.29,-79.18 1420.59,-72.3"/>
</g>
<!-- Node22 -->
<g id="node16" class="node">
<title>Node22</title>
<g id="a_node16"><a xlink:title=" ">
<polygon fill="white" stroke="#bfbfbf" points="1622.5,-56.5 1622.5,-75.5 1660.5,-75.5 1660.5,-56.5 1622.5,-56.5"/>
<text text-anchor="middle" x="1641.5" y="-63.5" font-family="Helvetica,sans-Serif" font-size="10.00">map</text>
</a>
</g>
</g>
<!-- Node20&#45;&gt;Node22 -->
<g id="edge16" class="edge">
<title>Node20&#45;&gt;Node22</title>
<path fill="none" stroke="midnightblue" d="M1657.36,-112.08C1654.82,-104.85 1651.14,-94.41 1647.97,-85.4"/>
<polygon fill="midnightblue" stroke="midnightblue" points="1651.2,-84.02 1644.58,-75.75 1644.6,-86.35 1651.2,-84.02"/>
</g>
<!-- Node23 -->
<g id="node17" class="node">
<title>Node23</title>
<g id="a_node17"><a xlink:title=" ">
<polygon fill="white" stroke="#bfbfbf" points="1472,-56.5 1472,-75.5 1533,-75.5 1533,-56.5 1472,-56.5"/>
<text text-anchor="middle" x="1502.5" y="-63.5" font-family="Helvetica,sans-Serif" font-size="10.00">TGraph.h</text>
</a>
</g>
</g>
<!-- Node20&#45;&gt;Node23 -->
<g id="edge17" class="edge">
<title>Node20&#45;&gt;Node23</title>
<path fill="none" stroke="midnightblue" d="M1635.46,-112.44C1608.88,-103.36 1566.69,-88.94 1536.98,-78.78"/>
<polygon fill="midnightblue" stroke="midnightblue" points="1538.01,-75.44 1527.42,-75.52 1535.75,-82.06 1538.01,-75.44"/>
</g>
<!-- Node24 -->
<g id="node18" class="node">
<title>Node24</title>
<g id="a_node18"><a xlink:title=" ">
<polygon fill="white" stroke="#bfbfbf" points="1551,-56.5 1551,-75.5 1604,-75.5 1604,-56.5 1551,-56.5"/>
<text text-anchor="middle" x="1577.5" y="-63.5" font-family="Helvetica,sans-Serif" font-size="10.00">TH2D.h</text>
</a>
</g>
</g>
<!-- Node20&#45;&gt;Node24 -->
<g id="edge18" class="edge">
<title>Node20&#45;&gt;Node24</title>
<path fill="none" stroke="midnightblue" d="M1647.16,-112.32C1634.34,-103.98 1614.72,-91.21 1599.56,-81.35"/>
<polygon fill="midnightblue" stroke="midnightblue" points="1601.09,-78.17 1590.8,-75.65 1597.28,-84.04 1601.09,-78.17"/>
</g>
<!-- Node27&#45;&gt;Node5 -->
<g id="edge22" class="edge">
<title>Node27&#45;&gt;Node5</title>
<path fill="none" stroke="midnightblue" d="M1917.84,-168.44C1941.25,-159.48 1978.24,-145.31 2004.69,-135.18"/>
<polygon fill="midnightblue" stroke="midnightblue" points="2006.18,-138.36 2014.26,-131.52 2003.67,-131.82 2006.18,-138.36"/>
</g>
<!-- Node27&#45;&gt;Node20 -->
<g id="edge24" class="edge">
<title>Node27&#45;&gt;Node20</title>
<path fill="none" stroke="midnightblue" d="M1858.26,-168.44C1817.44,-159.06 1751.86,-143.99 1707.52,-133.8"/>
<polygon fill="midnightblue" stroke="midnightblue" points="1708.09,-130.34 1697.56,-131.52 1706.52,-137.17 1708.09,-130.34"/>
</g>
<!-- Node27&#45;&gt;Node27 -->
<g id="edge23" class="edge">
<title>Node27&#45;&gt;Node27</title>
<path fill="none" stroke="midnightblue" d="M1934.95,-187.53C1961.76,-190.31 1988,-187.13 1988,-178 1988,-170.01 1967.91,-166.58 1944.93,-167.71"/>
<polygon fill="midnightblue" stroke="midnightblue" points="1944.65,-164.22 1934.95,-168.47 1945.19,-171.2 1944.65,-164.22"/>
</g>
<!-- Node28 -->
<g id="node22" class="node">
<title>Node28</title>
<g id="a_node22"><a xlink:title=" ">
<polygon fill="white" stroke="#bfbfbf" points="1846.5,-112.5 1846.5,-131.5 1944.5,-131.5 1944.5,-112.5 1846.5,-112.5"/>
<text text-anchor="middle" x="1895.5" y="-119.5" font-family="Helvetica,sans-Serif" font-size="10.00">G4UnionSolid.hh</text>
</a>
</g>
</g>
<!-- Node27&#45;&gt;Node28 -->
<g id="edge25" class="edge">
<title>Node27&#45;&gt;Node28</title>
<path fill="none" stroke="midnightblue" d="M1895.5,-168.08C1895.5,-161.01 1895.5,-150.86 1895.5,-141.99"/>
<polygon fill="midnightblue" stroke="midnightblue" points="1899,-141.75 1895.5,-131.75 1892,-141.75 1899,-141.75"/>
</g>
<!-- Node29 -->
<g id="node23" class="node">
<title>Node29</title>
<g id="a_node23"><a xlink:title=" ">
<polygon fill="white" stroke="#bfbfbf" points="1761,-112.5 1761,-131.5 1828,-131.5 1828,-112.5 1761,-112.5"/>
<text text-anchor="middle" x="1794.5" y="-119.5" font-family="Helvetica,sans-Serif" font-size="10.00">G4Tubs.hh</text>
</a>
</g>
</g>
<!-- Node27&#45;&gt;Node29 -->
<g id="edge26" class="edge">
<title>Node27&#45;&gt;Node29</title>
<path fill="none" stroke="midnightblue" d="M1879.27,-168.32C1863.15,-159.7 1838.2,-146.36 1819.54,-136.39"/>
<polygon fill="midnightblue" stroke="midnightblue" points="1821.16,-133.28 1810.69,-131.65 1817.86,-139.46 1821.16,-133.28"/>
</g>
<!-- Node35 -->
<g id="node29" class="node">
<title>Node35</title>
<g id="a_node29"><a xlink:title=" ">
<polygon fill="white" stroke="#bfbfbf" points="342,-224.5 342,-243.5 459,-243.5 459,-224.5 342,-224.5"/>
<text text-anchor="middle" x="400.5" y="-231.5" font-family="Helvetica,sans-Serif" font-size="10.00">G4UserRunAction.hh</text>
</a>
</g>
</g>
<!-- Node34&#45;&gt;Node35 -->
<g id="edge32" class="edge">
<title>Node34&#45;&gt;Node35</title>
<path fill="none" stroke="midnightblue" d="M400.5,-280.08C400.5,-273.01 400.5,-262.86 400.5,-253.99"/>
<polygon fill="midnightblue" stroke="midnightblue" points="404,-253.75 400.5,-243.75 397,-253.75 404,-253.75"/>
</g>
<!-- Node38 -->
<g id="node32" class="node">
<title>Node38</title>
<g id="a_node32"><a xlink:title=" ">
<polygon fill="white" stroke="#bfbfbf" points="619,-224.5 619,-243.5 758,-243.5 758,-224.5 619,-224.5"/>
<text text-anchor="middle" x="688.5" y="-231.5" font-family="Helvetica,sans-Serif" font-size="10.00">G4UserTrackingAction.hh</text>
</a>
</g>
</g>
<!-- Node37&#45;&gt;Node38 -->
<g id="edge35" class="edge">
<title>Node37&#45;&gt;Node38</title>
<path fill="none" stroke="midnightblue" d="M689.33,-280.08C689.2,-273.01 689.02,-262.86 688.85,-253.99"/>
<polygon fill="midnightblue" stroke="midnightblue" points="692.35,-253.68 688.66,-243.75 685.35,-253.81 692.35,-253.68"/>
</g>
<!-- Node40 -->
<g id="node34" class="node">
<title>Node40</title>
<g id="a_node34"><a xlink:title=" ">
<polygon fill="white" stroke="#bfbfbf" points="776,-224.5 776,-243.5 917,-243.5 917,-224.5 776,-224.5"/>
<text text-anchor="middle" x="846.5" y="-231.5" font-family="Helvetica,sans-Serif" font-size="10.00">G4UserSteppingAction.hh</text>
</a>
</g>
</g>
<!-- Node39&#45;&gt;Node40 -->
<g id="edge37" class="edge">
<title>Node39&#45;&gt;Node40</title>
<path fill="none" stroke="midnightblue" d="M846.5,-280.08C846.5,-273.01 846.5,-262.86 846.5,-253.99"/>
<polygon fill="midnightblue" stroke="midnightblue" points="850,-253.75 846.5,-243.75 843,-253.75 850,-253.75"/>
</g>
<!-- Node42 -->
<g id="node36" class="node">
<title>Node42</title>
<g id="a_node36"><a xlink:href="_o_m_sim_command_args_table_8hh.html" target="_top" xlink:title="Definition of the OMSimCommandArgsTable singleton class, which controls user args.">
<polygon fill="white" stroke="black" points="969.5,-168.5 969.5,-187.5 1133.5,-187.5 1133.5,-168.5 969.5,-168.5"/>
<text text-anchor="middle" x="1051.5" y="-175.5" font-family="Helvetica,sans-Serif" font-size="10.00">OMSimCommandArgsTable.hh</text>
</a>
</g>
</g>
<!-- Node41&#45;&gt;Node42 -->
<g id="edge39" class="edge">
<title>Node41&#45;&gt;Node42</title>
<path fill="none" stroke="midnightblue" d="M1051.5,-224.08C1051.5,-217.01 1051.5,-206.86 1051.5,-197.99"/>
<polygon fill="midnightblue" stroke="midnightblue" points="1055,-197.75 1051.5,-187.75 1048,-197.75 1055,-197.75"/>
</g>
<!-- Node45 -->
<g id="node39" class="node">
<title>Node45</title>
<g id="a_node39"><a xlink:title=" ">
<polygon fill="white" stroke="#bfbfbf" points="1151.5,-168.5 1151.5,-187.5 1249.5,-187.5 1249.5,-168.5 1151.5,-168.5"/>
<text text-anchor="middle" x="1200.5" y="-175.5" font-family="Helvetica,sans-Serif" font-size="10.00">G4UImanager.hh</text>
</a>
</g>
</g>
<!-- Node41&#45;&gt;Node45 -->
<g id="edge44" class="edge">
<title>Node41&#45;&gt;Node45</title>
<path fill="none" stroke="midnightblue" d="M1075.11,-224.44C1099.96,-215.44 1139.27,-201.19 1167.25,-191.05"/>
<polygon fill="midnightblue" stroke="midnightblue" points="1168.79,-194.21 1177,-187.52 1166.41,-187.63 1168.79,-194.21"/>
</g>
<!-- Node42&#45;&gt;Node7 -->
<g id="edge40" class="edge">
<title>Node42&#45;&gt;Node7</title>
<path fill="none" stroke="midnightblue" d="M1040.71,-168.11C1026.28,-155.12 1003.97,-130.51 1017.5,-112 1048.09,-70.14 1191.65,-37.33 1274.71,-21.45"/>
<polygon fill="midnightblue" stroke="midnightblue" points="1275.59,-24.85 1284.77,-19.55 1274.3,-17.97 1275.59,-24.85"/>
</g>
<!-- Node42&#45;&gt;Node26 -->
<g id="edge41" class="edge">
<title>Node42&#45;&gt;Node26</title>
<path fill="none" stroke="midnightblue" d="M1084.46,-168.44C1121.87,-158.73 1182.77,-142.92 1221.97,-132.74"/>
<polygon fill="midnightblue" stroke="midnightblue" points="1222.89,-136.12 1231.69,-130.22 1221.13,-129.35 1222.89,-136.12"/>
</g>
<!-- Node43 -->
<g id="node37" class="node">
<title>Node43</title>
<g id="a_node37"><a xlink:title=" ">
<polygon fill="white" stroke="#bfbfbf" points="1026.5,-112.5 1026.5,-131.5 1110.5,-131.5 1110.5,-112.5 1026.5,-112.5"/>
<text text-anchor="middle" x="1068.5" y="-119.5" font-family="Helvetica,sans-Serif" font-size="10.00">boost/any.hpp</text>
</a>
</g>
</g>
<!-- Node42&#45;&gt;Node43 -->
<g id="edge42" class="edge">
<title>Node42&#45;&gt;Node43</title>
<path fill="none" stroke="midnightblue" d="M1054.31,-168.08C1056.58,-160.85 1059.87,-150.41 1062.71,-141.4"/>
<polygon fill="midnightblue" stroke="midnightblue" points="1066.08,-142.34 1065.75,-131.75 1059.4,-140.24 1066.08,-142.34"/>
</g>
<!-- Node44 -->
<g id="node38" class="node">
<title>Node44</title>
<g id="a_node38"><a xlink:title=" ">
<polygon fill="white" stroke="#bfbfbf" points="1128.5,-112.5 1128.5,-131.5 1196.5,-131.5 1196.5,-112.5 1128.5,-112.5"/>
<text text-anchor="middle" x="1162.5" y="-119.5" font-family="Helvetica,sans-Serif" font-size="10.00">sys/time.h</text>
</a>
</g>
</g>
<!-- Node42&#45;&gt;Node44 -->
<g id="edge43" class="edge">
<title>Node42&#45;&gt;Node44</title>
<path fill="none" stroke="midnightblue" d="M1069.33,-168.32C1087.22,-159.62 1114.98,-146.12 1135.55,-136.11"/>
<polygon fill="midnightblue" stroke="midnightblue" points="1137.25,-139.18 1144.71,-131.65 1134.19,-132.88 1137.25,-139.18"/>
</g>
<!-- Node51&#45;&gt;Node19 -->
<g id="edge54" class="edge">
<title>Node51&#45;&gt;Node19</title>
<path fill="none" stroke="midnightblue" d="M1517.44,-224.44C1546.16,-215.32 1591.83,-200.81 1623.82,-190.65"/>
<polygon fill="midnightblue" stroke="midnightblue" points="1625.22,-193.88 1633.69,-187.52 1623.1,-187.21 1625.22,-193.88"/>
</g>
<!-- Node51&#45;&gt;Node21 -->
<g id="edge51" class="edge">
<title>Node51&#45;&gt;Node21</title>
<path fill="none" stroke="midnightblue" d="M1436.51,-224.48C1396.54,-216.94 1346.96,-204.56 1334.5,-188 1310.41,-155.97 1340.12,-108.5 1359.42,-83.61"/>
<polygon fill="midnightblue" stroke="midnightblue" points="1362.16,-85.79 1365.71,-75.81 1356.71,-81.39 1362.16,-85.79"/>
</g>
<!-- Node51&#45;&gt;Node25 -->
<g id="edge53" class="edge">
<title>Node51&#45;&gt;Node25</title>
<path fill="none" stroke="midnightblue" d="M1510.41,-224.41C1524.72,-217.04 1542.96,-204.92 1551.5,-188 1559.68,-171.8 1549.11,-152.67 1538.69,-139.37"/>
<polygon fill="midnightblue" stroke="midnightblue" points="1541.21,-136.93 1532.07,-131.56 1535.87,-141.45 1541.21,-136.93"/>
</g>
<!-- Node51&#45;&gt;Node26 -->
<g id="edge56" class="edge">
<title>Node51&#45;&gt;Node26</title>
<path fill="none" stroke="midnightblue" d="M1429.1,-230.01C1389.58,-225.45 1338.82,-214.39 1301.5,-188 1285.08,-176.39 1273.5,-156.14 1266.72,-141.32"/>
<polygon fill="midnightblue" stroke="midnightblue" points="1269.76,-139.52 1262.63,-131.69 1263.32,-142.26 1269.76,-139.52"/>
</g>
<!-- Node52 -->
<g id="node46" class="node">
<title>Node52</title>
<g id="a_node46"><a xlink:title=" ">
<polygon fill="white" stroke="#bfbfbf" points="1343.5,-168.5 1343.5,-187.5 1417.5,-187.5 1417.5,-168.5 1343.5,-168.5"/>
<text text-anchor="middle" x="1380.5" y="-175.5" font-family="Helvetica,sans-Serif" font-size="10.00">G4String.hh</text>
</a>
</g>
</g>
<!-- Node51&#45;&gt;Node52 -->
<g id="edge52" class="edge">
<title>Node51&#45;&gt;Node52</title>
<path fill="none" stroke="midnightblue" d="M1472.83,-224.32C1455.11,-215.62 1427.6,-202.12 1407.21,-192.11"/>
<polygon fill="midnightblue" stroke="midnightblue" points="1408.65,-188.92 1398.13,-187.65 1405.56,-195.2 1408.65,-188.92"/>
</g>
<!-- Node53 -->
<g id="node47" class="node">
<title>Node53</title>
<g id="a_node47"><a xlink:title=" ">
<polygon fill="white" stroke="#bfbfbf" points="1436,-168.5 1436,-187.5 1483,-187.5 1483,-168.5 1436,-168.5"/>
<text text-anchor="middle" x="1459.5" y="-175.5" font-family="Helvetica,sans-Serif" font-size="10.00">vector</text>
</a>
</g>
</g>
<!-- Node51&#45;&gt;Node53 -->
<g id="edge55" class="edge">
<title>Node51&#45;&gt;Node53</title>
<path fill="none" stroke="midnightblue" d="M1485.38,-224.08C1481.09,-216.61 1474.84,-205.72 1469.56,-196.52"/>
<polygon fill="midnightblue" stroke="midnightblue" points="1472.54,-194.68 1464.52,-187.75 1466.47,-198.17 1472.54,-194.68"/>
</g>
<!-- Node54 -->
<g id="node48" class="node">
<title>Node54</title>
<g id="a_node48"><a xlink:title=" ">
<polygon fill="white" stroke="#bfbfbf" points="1501,-168.5 1501,-187.5 1542,-187.5 1542,-168.5 1501,-168.5"/>
<text text-anchor="middle" x="1521.5" y="-175.5" font-family="Helvetica,sans-Serif" font-size="10.00">tuple</text>
</a>
</g>
</g>
<!-- Node51&#45;&gt;Node54 -->
<g id="edge57" class="edge">
<title>Node51&#45;&gt;Node54</title>
<path fill="none" stroke="midnightblue" d="M1495.62,-224.08C1499.91,-216.61 1506.16,-205.72 1511.44,-196.52"/>
<polygon fill="midnightblue" stroke="midnightblue" points="1514.53,-198.17 1516.48,-187.75 1508.46,-194.68 1514.53,-198.17"/>
</g>
<!-- Node56&#45;&gt;Node3 -->
<g id="edge62" class="edge">
<title>Node56&#45;&gt;Node3</title>
<path fill="none" stroke="midnightblue" d="M1843.5,-336.08C1843.5,-329.01 1843.5,-318.86 1843.5,-309.99"/>
<polygon fill="midnightblue" stroke="midnightblue" points="1847,-309.75 1843.5,-299.75 1840,-309.75 1847,-309.75"/>
</g>
</g>
</svg>
