<?xml version="1.0" encoding="UTF-8" standalone="no"?>
<!DOCTYPE svg PUBLIC "-//W3C//DTD SVG 1.1//EN"
 "http://www.w3.org/Graphics/SVG/1.1/DTD/svg11.dtd">
<!-- Generated by graphviz version 2.43.0 (0)
 -->
<!-- Title: OMSim.cc Pages: 1 -->
<svg width="1804pt" height="498pt"
 viewBox="0.00 0.00 1804.00 498.00" xmlns="http://www.w3.org/2000/svg" xmlns:xlink="http://www.w3.org/1999/xlink">
<g id="graph0" class="graph" transform="scale(1 1) rotate(0) translate(4 494)">
<title>OMSim.cc</title>
<polygon fill="white" stroke="transparent" points="-4,4 -4,-494 1800,-494 1800,4 -4,4"/>
<!-- Node1 -->
<g id="node1" class="node">
<title>Node1</title>
<g id="a_node1"><a xlink:title="Implementation of the OMSim class.">
<polygon fill="#bfbfbf" stroke="black" points="777.5,-470.5 777.5,-489.5 842.5,-489.5 842.5,-470.5 777.5,-470.5"/>
<text text-anchor="middle" x="810" y="-477.5" font-family="Helvetica,sans-Serif" font-size="10.00">OMSim.cc</text>
</a>
</g>
</g>
<!-- Node2 -->
<g id="node2" class="node">
<title>Node2</title>
<g id="a_node2"><a xlink:href="_o_m_sim_8hh.html" target="_top" xlink:title="Main simulation class for the Optical Module (OM) simulation. This file defines the OMSim class,...">
<polygon fill="white" stroke="black" points="776.5,-414.5 776.5,-433.5 843.5,-433.5 843.5,-414.5 776.5,-414.5"/>
<text text-anchor="middle" x="810" y="-421.5" font-family="Helvetica,sans-Serif" font-size="10.00">OMSim.hh</text>
</a>
</g>
</g>
<!-- Node1&#45;&gt;Node2 -->
<g id="edge1" class="edge">
<title>Node1&#45;&gt;Node2</title>
<path fill="none" stroke="midnightblue" d="M810,-470.08C810,-463.01 810,-452.86 810,-443.99"/>
<polygon fill="midnightblue" stroke="midnightblue" points="813.5,-443.75 810,-433.75 806.5,-443.75 813.5,-443.75"/>
</g>
<!-- Node7 -->
<g id="node7" class="node">
<title>Node7</title>
<g id="a_node7"><a xlink:href="_o_m_sim_logger_8hh.html" target="_top" xlink:title=" ">
<polygon fill="white" stroke="black" points="327.5,-73 327.5,-92 426.5,-92 426.5,-73 327.5,-73"/>
<text text-anchor="middle" x="377" y="-80" font-family="Helvetica,sans-Serif" font-size="10.00">OMSimLogger.hh</text>
</a>
</g>
</g>
<!-- Node1&#45;&gt;Node7 -->
<g id="edge56" class="edge">
<title>Node1&#45;&gt;Node7</title>
<path fill="none" stroke="midnightblue" d="M777.24,-478.06C625.71,-473.31 0,-448.83 0,-369 0,-369 0,-369 0,-199 0,-133.43 211.11,-101.32 317.38,-89.31"/>
<polygon fill="midnightblue" stroke="midnightblue" points="317.77,-92.78 327.33,-88.21 317,-85.83 317.77,-92.78"/>
</g>
<!-- Node52 -->
<g id="node50" class="node">
<title>Node52</title>
<g id="a_node50"><a xlink:title=" ">
<polygon fill="white" stroke="#bfbfbf" points="1646,-358.5 1646,-377.5 1796,-377.5 1796,-358.5 1646,-358.5"/>
<text text-anchor="middle" x="1721" y="-365.5" font-family="Helvetica,sans-Serif" font-size="10.00">boost/program_options.hpp</text>
</a>
</g>
</g>
<!-- Node1&#45;&gt;Node52 -->
<g id="edge57" class="edge">
<title>Node1&#45;&gt;Node52</title>
<path fill="none" stroke="midnightblue" d="M842.69,-475.05C971.86,-459.46 1448.97,-401.85 1640.58,-378.71"/>
<polygon fill="midnightblue" stroke="midnightblue" points="1641.08,-382.18 1650.59,-377.5 1640.24,-375.23 1641.08,-382.18"/>
</g>
<!-- Node3 -->
<g id="node3" class="node">
<title>Node3</title>
<g id="a_node3"><a xlink:href="_o_m_sim_detector_construction_8hh.html" target="_top" xlink:title=" ">
<polygon fill="white" stroke="black" points="838,-358.5 838,-377.5 1008,-377.5 1008,-358.5 838,-358.5"/>
<text text-anchor="middle" x="923" y="-365.5" font-family="Helvetica,sans-Serif" font-size="10.00">OMSimDetectorConstruction.hh</text>
</a>
</g>
</g>
<!-- Node2&#45;&gt;Node3 -->
<g id="edge2" class="edge">
<title>Node2&#45;&gt;Node3</title>
<path fill="none" stroke="midnightblue" d="M827.91,-414.44C846.25,-405.68 875.01,-391.94 896.09,-381.86"/>
<polygon fill="midnightblue" stroke="midnightblue" points="897.67,-384.99 905.18,-377.52 894.65,-378.67 897.67,-384.99"/>
</g>
<!-- Node34 -->
<g id="node32" class="node">
<title>Node34</title>
<g id="a_node32"><a xlink:title=" ">
<polygon fill="white" stroke="#bfbfbf" points="1026.5,-358.5 1026.5,-377.5 1147.5,-377.5 1147.5,-358.5 1026.5,-358.5"/>
<text text-anchor="middle" x="1087" y="-365.5" font-family="Helvetica,sans-Serif" font-size="10.00">OMSimPhysicsList.hh</text>
</a>
</g>
</g>
<!-- Node2&#45;&gt;Node34 -->
<g id="edge35" class="edge">
<title>Node2&#45;&gt;Node34</title>
<path fill="none" stroke="midnightblue" d="M843.69,-416.43C890.79,-407.25 976.83,-390.48 1032.95,-379.54"/>
<polygon fill="midnightblue" stroke="midnightblue" points="1033.92,-382.91 1043.07,-377.56 1032.58,-376.04 1033.92,-382.91"/>
</g>
<!-- Node35 -->
<g id="node33" class="node">
<title>Node35</title>
<g id="a_node33"><a xlink:title=" ">
<polygon fill="white" stroke="#bfbfbf" points="1165.5,-358.5 1165.5,-377.5 1350.5,-377.5 1350.5,-358.5 1165.5,-358.5"/>
<text text-anchor="middle" x="1258" y="-365.5" font-family="Helvetica,sans-Serif" font-size="10.00">OMSimPrimaryGeneratorAction.hh</text>
</a>
</g>
</g>
<!-- Node2&#45;&gt;Node35 -->
<g id="edge36" class="edge">
<title>Node2&#45;&gt;Node35</title>
<path fill="none" stroke="midnightblue" d="M843.67,-418.94C914.01,-410.46 1078.19,-390.67 1177.47,-378.71"/>
<polygon fill="midnightblue" stroke="midnightblue" points="1177.95,-382.17 1187.46,-377.5 1177.11,-375.22 1177.95,-382.17"/>
</g>
<!-- Node36 -->
<g id="node34" class="node">
<title>Node36</title>
<g id="a_node34"><a xlink:href="_o_m_sim_run_action_8hh.html" target="_top" xlink:title=" ">
<polygon fill="white" stroke="black" points="1368,-358.5 1368,-377.5 1484,-377.5 1484,-358.5 1368,-358.5"/>
<text text-anchor="middle" x="1426" y="-365.5" font-family="Helvetica,sans-Serif" font-size="10.00">OMSimRunAction.hh</text>
</a>
</g>
</g>
<!-- Node2&#45;&gt;Node36 -->
<g id="edge37" class="edge">
<title>Node2&#45;&gt;Node36</title>
<path fill="none" stroke="midnightblue" d="M843.79,-420.84C928.44,-415.3 1156.58,-399.57 1357.75,-378.08"/>
<polygon fill="midnightblue" stroke="midnightblue" points="1358.35,-381.54 1367.92,-376.99 1357.6,-374.58 1358.35,-381.54"/>
</g>
<!-- Node38 -->
<g id="node36" class="node">
<title>Node38</title>
<g id="a_node36"><a xlink:title=" ">
<polygon fill="white" stroke="#bfbfbf" points="1502.5,-358.5 1502.5,-377.5 1627.5,-377.5 1627.5,-358.5 1502.5,-358.5"/>
<text text-anchor="middle" x="1565" y="-365.5" font-family="Helvetica,sans-Serif" font-size="10.00">OMSimEventAction.hh</text>
</a>
</g>
</g>
<!-- Node2&#45;&gt;Node38 -->
<g id="edge39" class="edge">
<title>Node2&#45;&gt;Node38</title>
<path fill="none" stroke="midnightblue" d="M843.81,-421.47C942.1,-416.89 1236.38,-402.11 1491.97,-378.04"/>
<polygon fill="midnightblue" stroke="midnightblue" points="1492.57,-381.5 1502.2,-377.07 1491.91,-374.53 1492.57,-381.5"/>
</g>
<!-- Node39 -->
<g id="node37" class="node">
<title>Node39</title>
<g id="a_node37"><a xlink:href="_o_m_sim_tracking_action_8hh.html" target="_top" xlink:title=" ">
<polygon fill="white" stroke="black" points="29,-358.5 29,-377.5 167,-377.5 167,-358.5 29,-358.5"/>
<text text-anchor="middle" x="98" y="-365.5" font-family="Helvetica,sans-Serif" font-size="10.00">OMSimTrackingAction.hh</text>
</a>
</g>
</g>
<!-- Node2&#45;&gt;Node39 -->
<g id="edge40" class="edge">
<title>Node2&#45;&gt;Node39</title>
<path fill="none" stroke="midnightblue" d="M776.28,-421.13C682.91,-415.84 412.87,-399.8 177.43,-378.1"/>
<polygon fill="midnightblue" stroke="midnightblue" points="177.59,-374.6 167.31,-377.16 176.94,-381.57 177.59,-374.6"/>
</g>
<!-- Node41 -->
<g id="node39" class="node">
<title>Node41</title>
<g id="a_node39"><a xlink:href="_o_m_sim_stepping_action_8hh.html" target="_top" xlink:title="Defines OMSimSteppingAction.Currently it only checks for trapped photons.">
<polygon fill="white" stroke="black" points="185,-358.5 185,-377.5 325,-377.5 325,-358.5 185,-358.5"/>
<text text-anchor="middle" x="255" y="-365.5" font-family="Helvetica,sans-Serif" font-size="10.00">OMSimSteppingAction.hh</text>
</a>
</g>
</g>
<!-- Node2&#45;&gt;Node41 -->
<g id="edge42" class="edge">
<title>Node2&#45;&gt;Node41</title>
<path fill="none" stroke="midnightblue" d="M776.22,-420.03C699.74,-413.26 507.26,-395.95 335.2,-378.11"/>
<polygon fill="midnightblue" stroke="midnightblue" points="335.51,-374.62 325.2,-377.07 334.79,-381.58 335.51,-374.62"/>
</g>
<!-- Node43 -->
<g id="node41" class="node">
<title>Node43</title>
<g id="a_node41"><a xlink:href="_o_m_sim_u_iinterface_8hh.html" target="_top" xlink:title=" ">
<polygon fill="white" stroke="black" points="369.5,-302.5 369.5,-321.5 490.5,-321.5 490.5,-302.5 369.5,-302.5"/>
<text text-anchor="middle" x="430" y="-309.5" font-family="Helvetica,sans-Serif" font-size="10.00">OMSimUIinterface.hh</text>
</a>
</g>
</g>
<!-- Node2&#45;&gt;Node43 -->
<g id="edge44" class="edge">
<title>Node2&#45;&gt;Node43</title>
<path fill="none" stroke="midnightblue" d="M810.25,-414.26C810.14,-400.06 807.65,-372.17 791,-358 769.37,-339.59 599.9,-324.83 501.03,-317.69"/>
<polygon fill="midnightblue" stroke="midnightblue" points="501.03,-314.18 490.81,-316.96 500.53,-321.16 501.03,-314.18"/>
</g>
<!-- Node48 -->
<g id="node46" class="node">
<title>Node48</title>
<g id="a_node46"><a xlink:title=" ">
<polygon fill="white" stroke="#bfbfbf" points="343,-358.5 343,-377.5 449,-377.5 449,-358.5 343,-358.5"/>
<text text-anchor="middle" x="396" y="-365.5" font-family="Helvetica,sans-Serif" font-size="10.00">G4RunManager.hh</text>
</a>
</g>
</g>
<!-- Node2&#45;&gt;Node48 -->
<g id="edge51" class="edge">
<title>Node2&#45;&gt;Node48</title>
<path fill="none" stroke="midnightblue" d="M776.49,-418.91C715.53,-411.42 582.17,-394.86 459.07,-378.13"/>
<polygon fill="midnightblue" stroke="midnightblue" points="459.47,-374.65 449.09,-376.77 458.53,-381.59 459.47,-374.65"/>
</g>
<!-- Node49 -->
<g id="node47" class="node">
<title>Node49</title>
<g id="a_node47"><a xlink:title=" ">
<polygon fill="white" stroke="#bfbfbf" points="467.5,-358.5 467.5,-377.5 574.5,-377.5 574.5,-358.5 467.5,-358.5"/>
<text text-anchor="middle" x="521" y="-365.5" font-family="Helvetica,sans-Serif" font-size="10.00">G4VisExecutive.hh</text>
</a>
</g>
</g>
<!-- Node2&#45;&gt;Node49 -->
<g id="edge52" class="edge">
<title>Node2&#45;&gt;Node49</title>
<path fill="none" stroke="midnightblue" d="M776.28,-416.7C727.3,-407.55 635.87,-390.46 576.77,-379.42"/>
<polygon fill="midnightblue" stroke="midnightblue" points="577.32,-375.96 566.85,-377.57 576.03,-382.84 577.32,-375.96"/>
</g>
<!-- Node50 -->
<g id="node48" class="node">
<title>Node50</title>
<g id="a_node48"><a xlink:title=" ">
<polygon fill="white" stroke="#bfbfbf" points="592.5,-358.5 592.5,-377.5 695.5,-377.5 695.5,-358.5 592.5,-358.5"/>
<text text-anchor="middle" x="644" y="-365.5" font-family="Helvetica,sans-Serif" font-size="10.00">G4UIExecutive.hh</text>
</a>
</g>
</g>
<!-- Node2&#45;&gt;Node50 -->
<g id="edge53" class="edge">
<title>Node2&#45;&gt;Node50</title>
<path fill="none" stroke="midnightblue" d="M783.7,-414.44C755.65,-405.32 711.06,-390.81 679.82,-380.65"/>
<polygon fill="midnightblue" stroke="midnightblue" points="680.77,-377.28 670.18,-377.52 678.61,-383.94 680.77,-377.28"/>
</g>
<!-- Node51 -->
<g id="node49" class="node">
<title>Node51</title>
<g id="a_node49"><a xlink:title=" ">
<polygon fill="white" stroke="#bfbfbf" points="714,-358.5 714,-377.5 782,-377.5 782,-358.5 714,-358.5"/>
<text text-anchor="middle" x="748" y="-365.5" font-family="Helvetica,sans-Serif" font-size="10.00">filesystem</text>
</a>
</g>
</g>
<!-- Node2&#45;&gt;Node51 -->
<g id="edge54" class="edge">
<title>Node2&#45;&gt;Node51</title>
<path fill="none" stroke="midnightblue" d="M800.04,-414.32C790.87,-406.34 777.06,-394.31 765.97,-384.65"/>
<polygon fill="midnightblue" stroke="midnightblue" points="767.98,-381.76 758.14,-377.83 763.38,-387.04 767.98,-381.76"/>
</g>
<!-- Node2&#45;&gt;Node52 -->
<g id="edge55" class="edge">
<title>Node2&#45;&gt;Node52</title>
<path fill="none" stroke="midnightblue" d="M843.52,-421.81C954.65,-417.72 1321.22,-403.16 1635.69,-378.06"/>
<polygon fill="midnightblue" stroke="midnightblue" points="1636.22,-381.53 1645.91,-377.24 1635.66,-374.55 1636.22,-381.53"/>
</g>
<!-- Node4 -->
<g id="node4" class="node">
<title>Node4</title>
<g id="a_node4"><a xlink:href="_o_m_sim_optical_module_8hh.html" target="_top" xlink:title=" ">
<polygon fill="white" stroke="black" points="854.5,-302.5 854.5,-321.5 991.5,-321.5 991.5,-302.5 854.5,-302.5"/>
<text text-anchor="middle" x="923" y="-309.5" font-family="Helvetica,sans-Serif" font-size="10.00">OMSimOpticalModule.hh</text>
</a>
</g>
</g>
<!-- Node3&#45;&gt;Node4 -->
<g id="edge3" class="edge">
<title>Node3&#45;&gt;Node4</title>
<path fill="none" stroke="midnightblue" d="M923,-358.08C923,-351.01 923,-340.86 923,-331.99"/>
<polygon fill="midnightblue" stroke="midnightblue" points="926.5,-331.75 923,-321.75 919.5,-331.75 926.5,-331.75"/>
</g>
<!-- Node32 -->
<g id="node30" class="node">
<title>Node32</title>
<g id="a_node30"><a xlink:title=" ">
<polygon fill="white" stroke="#bfbfbf" points="1010,-302.5 1010,-321.5 1072,-321.5 1072,-302.5 1010,-302.5"/>
<text text-anchor="middle" x="1041" y="-309.5" font-family="Helvetica,sans-Serif" font-size="10.00">G4Orb.hh</text>
</a>
</g>
</g>
<!-- Node3&#45;&gt;Node32 -->
<g id="edge33" class="edge">
<title>Node3&#45;&gt;Node32</title>
<path fill="none" stroke="midnightblue" d="M941.7,-358.44C960.94,-349.64 991.15,-335.81 1013.2,-325.72"/>
<polygon fill="midnightblue" stroke="midnightblue" points="1014.75,-328.86 1022.39,-321.52 1011.84,-322.5 1014.75,-328.86"/>
</g>
<!-- Node33 -->
<g id="node31" class="node">
<title>Node33</title>
<g id="a_node31"><a xlink:title=" ">
<polygon fill="white" stroke="#bfbfbf" points="658,-302.5 658,-321.5 836,-321.5 836,-302.5 658,-302.5"/>
<text text-anchor="middle" x="747" y="-309.5" font-family="Helvetica,sans-Serif" font-size="10.00">G4VUserDetectorConstruction.hh</text>
</a>
</g>
</g>
<!-- Node3&#45;&gt;Node33 -->
<g id="edge34" class="edge">
<title>Node3&#45;&gt;Node33</title>
<path fill="none" stroke="midnightblue" d="M895.11,-358.44C865.25,-349.28 817.69,-334.69 784.54,-324.52"/>
<polygon fill="midnightblue" stroke="midnightblue" points="785.34,-321.1 774.76,-321.52 783.29,-327.8 785.34,-321.1"/>
</g>
<!-- Node5 -->
<g id="node5" class="node">
<title>Node5</title>
<g id="a_node5"><a xlink:href="abc_detector_component_8hh.html" target="_top" xlink:title="Provides helper base class abcDetectorComponent for constructing and managing detector components in ...">
<polygon fill="white" stroke="black" points="682.5,-190.5 682.5,-209.5 829.5,-209.5 829.5,-190.5 682.5,-190.5"/>
<text text-anchor="middle" x="756" y="-197.5" font-family="Helvetica,sans-Serif" font-size="10.00">abcDetectorComponent.hh</text>
</a>
</g>
</g>
<!-- Node4&#45;&gt;Node5 -->
<g id="edge4" class="edge">
<title>Node4&#45;&gt;Node5</title>
<path fill="none" stroke="midnightblue" d="M904.79,-302.38C887.42,-293.9 860.75,-280.19 839,-266 815.24,-250.5 789.83,-229.94 773.47,-216.13"/>
<polygon fill="midnightblue" stroke="midnightblue" points="775.68,-213.42 765.8,-209.59 771.14,-218.74 775.68,-213.42"/>
</g>
<!-- Node19 -->
<g id="node19" class="node">
<title>Node19</title>
<g id="a_node19"><a xlink:href="_o_m_sim_hit_manager_8hh.html" target="_top" xlink:title="Defines structures and classes related to optical module photon hit management.">
<polygon fill="white" stroke="black" points="1196.5,-246.5 1196.5,-265.5 1319.5,-265.5 1319.5,-246.5 1196.5,-246.5"/>
<text text-anchor="middle" x="1258" y="-253.5" font-family="Helvetica,sans-Serif" font-size="10.00">OMSimHitManager.hh</text>
</a>
</g>
</g>
<!-- Node4&#45;&gt;Node19 -->
<g id="edge18" class="edge">
<title>Node4&#45;&gt;Node19</title>
<path fill="none" stroke="midnightblue" d="M976.08,-302.44C1035.5,-292.87 1131.72,-277.36 1194.93,-267.17"/>
<polygon fill="midnightblue" stroke="midnightblue" points="1195.85,-270.56 1205.17,-265.52 1194.74,-263.65 1195.85,-270.56"/>
</g>
<!-- Node29 -->
<g id="node27" class="node">
<title>Node29</title>
<g id="a_node27"><a xlink:href="_o_m_sim_p_m_t_construction_8hh.html" target="_top" xlink:title="Construction of the PMTs.">
<polygon fill="white" stroke="black" points="848.5,-246.5 848.5,-265.5 997.5,-265.5 997.5,-246.5 848.5,-246.5"/>
<text text-anchor="middle" x="923" y="-253.5" font-family="Helvetica,sans-Serif" font-size="10.00">OMSimPMTConstruction.hh</text>
</a>
</g>
</g>
<!-- Node4&#45;&gt;Node29 -->
<g id="edge27" class="edge">
<title>Node4&#45;&gt;Node29</title>
<path fill="none" stroke="midnightblue" d="M923,-302.08C923,-295.01 923,-284.86 923,-275.99"/>
<polygon fill="midnightblue" stroke="midnightblue" points="926.5,-275.75 923,-265.75 919.5,-275.75 926.5,-275.75"/>
</g>
<!-- Node6 -->
<g id="node6" class="node">
<title>Node6</title>
<g id="a_node6"><a xlink:href="_o_m_sim_input_data_8hh.html" target="_top" xlink:title="Definition of ParameterTable and InputDataManager.">
<polygon fill="white" stroke="black" points="458.5,-134.5 458.5,-153.5 573.5,-153.5 573.5,-134.5 458.5,-134.5"/>
<text text-anchor="middle" x="516" y="-141.5" font-family="Helvetica,sans-Serif" font-size="10.00">OMSimInputData.hh</text>
</a>
</g>
</g>
<!-- Node5&#45;&gt;Node6 -->
<g id="edge5" class="edge">
<title>Node5&#45;&gt;Node6</title>
<path fill="none" stroke="midnightblue" d="M717.97,-190.44C676.19,-181.04 609.02,-165.93 563.73,-155.74"/>
<polygon fill="midnightblue" stroke="midnightblue" points="564.38,-152.3 553.85,-153.52 562.84,-159.13 564.38,-152.3"/>
</g>
<!-- Node15 -->
<g id="node15" class="node">
<title>Node15</title>
<g id="a_node15"><a xlink:title=" ">
<polygon fill="white" stroke="#bfbfbf" points="591.5,-134.5 591.5,-153.5 698.5,-153.5 698.5,-134.5 591.5,-134.5"/>
<text text-anchor="middle" x="645" y="-141.5" font-family="Helvetica,sans-Serif" font-size="10.00">G4Transform3D.hh</text>
</a>
</g>
</g>
<!-- Node5&#45;&gt;Node15 -->
<g id="edge14" class="edge">
<title>Node5&#45;&gt;Node15</title>
<path fill="none" stroke="midnightblue" d="M738.17,-190.32C720.28,-181.62 692.52,-168.12 671.95,-158.11"/>
<polygon fill="midnightblue" stroke="midnightblue" points="673.31,-154.88 662.79,-153.65 670.25,-161.18 673.31,-154.88"/>
</g>
<!-- Node16 -->
<g id="node16" class="node">
<title>Node16</title>
<g id="a_node16"><a xlink:title=" ">
<polygon fill="white" stroke="#bfbfbf" points="717,-134.5 717,-153.5 825,-153.5 825,-134.5 717,-134.5"/>
<text text-anchor="middle" x="771" y="-141.5" font-family="Helvetica,sans-Serif" font-size="10.00">G4VisAttributes.hh</text>
</a>
</g>
</g>
<!-- Node5&#45;&gt;Node16 -->
<g id="edge15" class="edge">
<title>Node5&#45;&gt;Node16</title>
<path fill="none" stroke="midnightblue" d="M758.48,-190.08C760.49,-182.85 763.39,-172.41 765.89,-163.4"/>
<polygon fill="midnightblue" stroke="midnightblue" points="769.26,-164.32 768.57,-153.75 762.52,-162.45 769.26,-164.32"/>
</g>
<!-- Node17 -->
<g id="node17" class="node">
<title>Node17</title>
<g id="a_node17"><a xlink:title=" ">
<polygon fill="white" stroke="#bfbfbf" points="843.5,-134.5 843.5,-153.5 968.5,-153.5 968.5,-134.5 843.5,-134.5"/>
<text text-anchor="middle" x="906" y="-141.5" font-family="Helvetica,sans-Serif" font-size="10.00">G4SubtractionSolid.hh</text>
</a>
</g>
</g>
<!-- Node5&#45;&gt;Node17 -->
<g id="edge16" class="edge">
<title>Node5&#45;&gt;Node17</title>
<path fill="none" stroke="midnightblue" d="M779.77,-190.44C804.89,-181.4 844.71,-167.06 872.9,-156.92"/>
<polygon fill="midnightblue" stroke="midnightblue" points="874.12,-160.2 882.34,-153.52 871.75,-153.61 874.12,-160.2"/>
</g>
<!-- Node18 -->
<g id="node18" class="node">
<title>Node18</title>
<g id="a_node18"><a xlink:title=" ">
<polygon fill="white" stroke="#bfbfbf" points="987,-134.5 987,-153.5 1097,-153.5 1097,-134.5 987,-134.5"/>
<text text-anchor="middle" x="1042" y="-141.5" font-family="Helvetica,sans-Serif" font-size="10.00">G4PVPlacement.hh</text>
</a>
</g>
</g>
<!-- Node5&#45;&gt;Node18 -->
<g id="edge17" class="edge">
<title>Node5&#45;&gt;Node18</title>
<path fill="none" stroke="midnightblue" d="M801.32,-190.44C851.63,-180.94 932.84,-165.61 986.81,-155.42"/>
<polygon fill="midnightblue" stroke="midnightblue" points="987.72,-158.81 996.89,-153.52 986.42,-151.93 987.72,-158.81"/>
</g>
<!-- Node6&#45;&gt;Node7 -->
<g id="edge6" class="edge">
<title>Node6&#45;&gt;Node7</title>
<path fill="none" stroke="midnightblue" d="M496.08,-134.48C472.55,-124.4 433.19,-107.55 406.21,-96"/>
<polygon fill="midnightblue" stroke="midnightblue" points="407.45,-92.73 396.88,-92.01 404.69,-99.16 407.45,-92.73"/>
</g>
<!-- Node12 -->
<g id="node12" class="node">
<title>Node12</title>
<g id="a_node12"><a xlink:title=" ">
<polygon fill="white" stroke="#bfbfbf" points="444.5,-73 444.5,-92 587.5,-92 587.5,-73 444.5,-73"/>
<text text-anchor="middle" x="516" y="-80" font-family="Helvetica,sans-Serif" font-size="10.00">G4OpBoundaryProcess.hh</text>
</a>
</g>
</g>
<!-- Node6&#45;&gt;Node12 -->
<g id="edge11" class="edge">
<title>Node6&#45;&gt;Node12</title>
<path fill="none" stroke="midnightblue" d="M516,-134.48C516,-126.08 516,-112.98 516,-102.16"/>
<polygon fill="midnightblue" stroke="midnightblue" points="519.5,-102.01 516,-92.01 512.5,-102.01 519.5,-102.01"/>
</g>
<!-- Node13 -->
<g id="node13" class="node">
<title>Node13</title>
<g id="a_node13"><a xlink:title=" ">
<polygon fill="white" stroke="#bfbfbf" points="900.5,-73 900.5,-92 1019.5,-92 1019.5,-73 900.5,-73"/>
<text text-anchor="middle" x="960" y="-80" font-family="Helvetica,sans-Serif" font-size="10.00">G4SystemOfUnits.hh</text>
</a>
</g>
</g>
<!-- Node6&#45;&gt;Node13 -->
<g id="edge12" class="edge">
<title>Node6&#45;&gt;Node13</title>
<path fill="none" stroke="midnightblue" d="M573.59,-135.14C576.43,-134.75 579.25,-134.37 582,-134 689.47,-119.49 814.16,-102.88 890.04,-92.79"/>
<polygon fill="midnightblue" stroke="midnightblue" points="890.96,-96.2 900.42,-91.41 890.04,-89.26 890.96,-96.2"/>
</g>
<!-- Node14 -->
<g id="node14" class="node">
<title>Node14</title>
<g id="a_node14"><a xlink:title=" ">
<polygon fill="white" stroke="#bfbfbf" points="605.5,-67.5 605.5,-97.5 718.5,-97.5 718.5,-67.5 605.5,-67.5"/>
<text text-anchor="start" x="613.5" y="-85.5" font-family="Helvetica,sans-Serif" font-size="10.00">boost/property_tree</text>
<text text-anchor="middle" x="662" y="-74.5" font-family="Helvetica,sans-Serif" font-size="10.00">/json_parser.hpp</text>
</a>
</g>
</g>
<!-- Node6&#45;&gt;Node14 -->
<g id="edge13" class="edge">
<title>Node6&#45;&gt;Node14</title>
<path fill="none" stroke="midnightblue" d="M536.92,-134.48C557.99,-125.89 591.13,-112.38 618.01,-101.43"/>
<polygon fill="midnightblue" stroke="midnightblue" points="619.65,-104.54 627.59,-97.52 617.01,-98.06 619.65,-104.54"/>
</g>
<!-- Node8 -->
<g id="node8" class="node">
<title>Node8</title>
<g id="a_node8"><a xlink:title=" ">
<polygon fill="white" stroke="#bfbfbf" points="159.5,-6 159.5,-25 252.5,-25 252.5,-6 159.5,-6"/>
<text text-anchor="middle" x="206" y="-13" font-family="Helvetica,sans-Serif" font-size="10.00">spdlog/spdlog.h</text>
</a>
</g>
</g>
<!-- Node7&#45;&gt;Node8 -->
<g id="edge7" class="edge">
<title>Node7&#45;&gt;Node8</title>
<path fill="none" stroke="midnightblue" d="M354.29,-72.87C324.44,-61.52 271.83,-41.52 237.97,-28.65"/>
<polygon fill="midnightblue" stroke="midnightblue" points="239.12,-25.35 228.53,-25.06 236.63,-31.89 239.12,-25.35"/>
</g>
<!-- Node9 -->
<g id="node9" class="node">
<title>Node9</title>
<g id="a_node9"><a xlink:title=" ">
<polygon fill="white" stroke="#bfbfbf" points="270.5,-0.5 270.5,-30.5 381.5,-30.5 381.5,-0.5 270.5,-0.5"/>
<text text-anchor="start" x="278.5" y="-18.5" font-family="Helvetica,sans-Serif" font-size="10.00">spdlog/sinks/stdout</text>
<text text-anchor="middle" x="326" y="-7.5" font-family="Helvetica,sans-Serif" font-size="10.00">_color_sinks.h</text>
</a>
</g>
</g>
<!-- Node7&#45;&gt;Node9 -->
<g id="edge8" class="edge">
<title>Node7&#45;&gt;Node9</title>
<path fill="none" stroke="midnightblue" d="M370.12,-72.73C363.3,-64.03 352.56,-50.34 343.38,-38.65"/>
<polygon fill="midnightblue" stroke="midnightblue" points="345.98,-36.3 337.05,-30.59 340.47,-40.62 345.98,-36.3"/>
</g>
<!-- Node10 -->
<g id="node10" class="node">
<title>Node10</title>
<g id="a_node10"><a xlink:title=" ">
<polygon fill="white" stroke="#bfbfbf" points="400,-6 400,-25 458,-25 458,-6 400,-6"/>
<text text-anchor="middle" x="429" y="-13" font-family="Helvetica,sans-Serif" font-size="10.00">memory</text>
</a>
</g>
</g>
<!-- Node7&#45;&gt;Node10 -->
<g id="edge9" class="edge">
<title>Node7&#45;&gt;Node10</title>
<path fill="none" stroke="midnightblue" d="M384.01,-72.73C392.12,-62.6 405.65,-45.69 415.76,-33.06"/>
<polygon fill="midnightblue" stroke="midnightblue" points="418.58,-35.12 422.1,-25.13 413.12,-30.75 418.58,-35.12"/>
</g>
<!-- Node11 -->
<g id="node11" class="node">
<title>Node11</title>
<g id="a_node11"><a xlink:title=" ">
<polygon fill="white" stroke="#bfbfbf" points="476,-6 476,-25 574,-25 574,-6 476,-6"/>
<text text-anchor="middle" x="525" y="-13" font-family="Helvetica,sans-Serif" font-size="10.00">spdlog/fmt/fmt.h</text>
</a>
</g>
</g>
<!-- Node7&#45;&gt;Node11 -->
<g id="edge10" class="edge">
<title>Node7&#45;&gt;Node11</title>
<path fill="none" stroke="midnightblue" d="M396.65,-72.87C422.09,-61.7 466.6,-42.15 495.95,-29.26"/>
<polygon fill="midnightblue" stroke="midnightblue" points="497.52,-32.39 505.27,-25.17 494.7,-25.98 497.52,-32.39"/>
</g>
<!-- Node20 -->
<g id="node20" class="node">
<title>Node20</title>
<g id="a_node20"><a xlink:href="_o_m_sim_p_m_t_response_8hh.html" target="_top" xlink:title="Simulation of PMT response.">
<polygon fill="white" stroke="red" points="1122.5,-190.5 1122.5,-209.5 1257.5,-209.5 1257.5,-190.5 1122.5,-190.5"/>
<text text-anchor="middle" x="1190" y="-197.5" font-family="Helvetica,sans-Serif" font-size="10.00">OMSimPMTResponse.hh</text>
</a>
</g>
</g>
<!-- Node19&#45;&gt;Node20 -->
<g id="edge19" class="edge">
<title>Node19&#45;&gt;Node20</title>
<path fill="none" stroke="midnightblue" d="M1247.07,-246.32C1236.83,-238.18 1221.28,-225.84 1209,-216.09"/>
<polygon fill="midnightblue" stroke="midnightblue" points="1211.13,-213.31 1201.12,-209.83 1206.78,-218.79 1211.13,-213.31"/>
</g>
<!-- Node25 -->
<g id="node23" class="node">
<title>Node25</title>
<g id="a_node23"><a xlink:title=" ">
<polygon fill="white" stroke="#bfbfbf" points="1275.5,-190.5 1275.5,-209.5 1378.5,-209.5 1378.5,-190.5 1275.5,-190.5"/>
<text text-anchor="middle" x="1327" y="-197.5" font-family="Helvetica,sans-Serif" font-size="10.00">G4ThreeVector.hh</text>
</a>
</g>
</g>
<!-- Node19&#45;&gt;Node25 -->
<g id="edge23" class="edge">
<title>Node19&#45;&gt;Node25</title>
<path fill="none" stroke="midnightblue" d="M1269.09,-246.32C1279.49,-238.18 1295.26,-225.84 1307.72,-216.09"/>
<polygon fill="midnightblue" stroke="midnightblue" points="1309.99,-218.75 1315.71,-209.83 1305.68,-213.24 1309.99,-218.75"/>
</g>
<!-- Node26 -->
<g id="node24" class="node">
<title>Node26</title>
<g id="a_node24"><a xlink:title=" ">
<polygon fill="white" stroke="#bfbfbf" points="1049.5,-190.5 1049.5,-209.5 1104.5,-209.5 1104.5,-190.5 1049.5,-190.5"/>
<text text-anchor="middle" x="1077" y="-197.5" font-family="Helvetica,sans-Serif" font-size="10.00">fstream</text>
</a>
</g>
</g>
<!-- Node19&#45;&gt;Node26 -->
<g id="edge24" class="edge">
<title>Node19&#45;&gt;Node26</title>
<path fill="none" stroke="midnightblue" d="M1229.32,-246.44C1198.2,-237.16 1148.4,-222.3 1114.27,-212.12"/>
<polygon fill="midnightblue" stroke="midnightblue" points="1115.24,-208.76 1104.66,-209.25 1113.24,-215.46 1115.24,-208.76"/>
</g>
<!-- Node27 -->
<g id="node25" class="node">
<title>Node27</title>
<g id="a_node25"><a xlink:title=" ">
<polygon fill="white" stroke="#bfbfbf" points="1397,-190.5 1397,-209.5 1487,-209.5 1487,-190.5 1397,-190.5"/>
<text text-anchor="middle" x="1442" y="-197.5" font-family="Helvetica,sans-Serif" font-size="10.00">G4AutoLock.hh</text>
</a>
</g>
</g>
<!-- Node19&#45;&gt;Node27 -->
<g id="edge25" class="edge">
<title>Node19&#45;&gt;Node27</title>
<path fill="none" stroke="midnightblue" d="M1287.16,-246.44C1318.51,-237.24 1368.53,-222.56 1403.2,-212.39"/>
<polygon fill="midnightblue" stroke="midnightblue" points="1404.37,-215.69 1412.98,-209.52 1402.4,-208.97 1404.37,-215.69"/>
</g>
<!-- Node28 -->
<g id="node26" class="node">
<title>Node28</title>
<g id="a_node26"><a xlink:title=" ">
<polygon fill="white" stroke="#bfbfbf" points="1505,-190.5 1505,-209.5 1599,-209.5 1599,-190.5 1505,-190.5"/>
<text text-anchor="middle" x="1552" y="-197.5" font-family="Helvetica,sans-Serif" font-size="10.00">G4Threading.hh</text>
</a>
</g>
</g>
<!-- Node19&#45;&gt;Node28 -->
<g id="edge26" class="edge">
<title>Node19&#45;&gt;Node28</title>
<path fill="none" stroke="midnightblue" d="M1304.59,-246.44C1356.41,-236.92 1440.13,-221.55 1495.62,-211.36"/>
<polygon fill="midnightblue" stroke="midnightblue" points="1496.43,-214.77 1505.63,-209.52 1495.16,-207.88 1496.43,-214.77"/>
</g>
<!-- Node20&#45;&gt;Node13 -->
<g id="edge20" class="edge">
<title>Node20&#45;&gt;Node13</title>
<path fill="none" stroke="midnightblue" d="M1180.89,-190.3C1166.18,-176.66 1135.84,-150.14 1106,-134 1073.68,-116.52 1034.13,-103.28 1004.35,-94.76"/>
<polygon fill="midnightblue" stroke="midnightblue" points="1005.23,-91.37 994.66,-92.05 1003.34,-98.11 1005.23,-91.37"/>
</g>
<!-- Node21 -->
<g id="node21" class="node">
<title>Node21</title>
<g id="a_node21"><a xlink:title=" ">
<polygon fill="white" stroke="#bfbfbf" points="1153.5,-134.5 1153.5,-153.5 1226.5,-153.5 1226.5,-134.5 1153.5,-134.5"/>
<text text-anchor="middle" x="1190" y="-141.5" font-family="Helvetica,sans-Serif" font-size="10.00">G4Types.hh</text>
</a>
</g>
</g>
<!-- Node20&#45;&gt;Node21 -->
<g id="edge21" class="edge">
<title>Node20&#45;&gt;Node21</title>
<path fill="none" stroke="midnightblue" d="M1190,-190.08C1190,-183.01 1190,-172.86 1190,-163.99"/>
<polygon fill="midnightblue" stroke="midnightblue" points="1193.5,-163.75 1190,-153.75 1186.5,-163.75 1193.5,-163.75"/>
</g>
<!-- Node22 -->
<g id="node22" class="node">
<title>Node22</title>
<g id="a_node22"><a xlink:title=" ">
<polygon fill="white" stroke="#bfbfbf" points="1245,-134.5 1245,-153.5 1283,-153.5 1283,-134.5 1245,-134.5"/>
<text text-anchor="middle" x="1264" y="-141.5" font-family="Helvetica,sans-Serif" font-size="10.00">map</text>
</a>
</g>
</g>
<!-- Node20&#45;&gt;Node22 -->
<g id="edge22" class="edge">
<title>Node20&#45;&gt;Node22</title>
<path fill="none" stroke="midnightblue" d="M1201.89,-190.32C1213.15,-182.11 1230.29,-169.6 1243.71,-159.81"/>
<polygon fill="midnightblue" stroke="midnightblue" points="1245.88,-162.56 1251.89,-153.83 1241.75,-156.9 1245.88,-162.56"/>
</g>
<!-- Node29&#45;&gt;Node5 -->
<g id="edge28" class="edge">
<title>Node29&#45;&gt;Node5</title>
<path fill="none" stroke="midnightblue" d="M896.54,-246.44C868.32,-237.32 823.46,-222.81 792.03,-212.65"/>
<polygon fill="midnightblue" stroke="midnightblue" points="792.93,-209.26 782.34,-209.52 790.78,-215.92 792.93,-209.26"/>
</g>
<!-- Node29&#45;&gt;Node20 -->
<g id="edge30" class="edge">
<title>Node29&#45;&gt;Node20</title>
<path fill="none" stroke="midnightblue" d="M965.31,-246.44C1012.08,-236.98 1087.46,-221.74 1137.85,-211.55"/>
<polygon fill="midnightblue" stroke="midnightblue" points="1138.78,-214.93 1147.89,-209.52 1137.4,-208.07 1138.78,-214.93"/>
</g>
<!-- Node29&#45;&gt;Node29 -->
<g id="edge29" class="edge">
<title>Node29&#45;&gt;Node29</title>
<path fill="none" stroke="midnightblue" d="M962.45,-265.53C989.26,-268.31 1015.5,-265.13 1015.5,-256 1015.5,-248.01 995.41,-244.58 972.43,-245.71"/>
<polygon fill="midnightblue" stroke="midnightblue" points="972.15,-242.22 962.45,-246.47 972.69,-249.2 972.15,-242.22"/>
</g>
<!-- Node30 -->
<g id="node28" class="node">
<title>Node30</title>
<g id="a_node28"><a xlink:title=" ">
<polygon fill="white" stroke="#bfbfbf" points="848,-190.5 848,-209.5 946,-209.5 946,-190.5 848,-190.5"/>
<text text-anchor="middle" x="897" y="-197.5" font-family="Helvetica,sans-Serif" font-size="10.00">G4UnionSolid.hh</text>
</a>
</g>
</g>
<!-- Node29&#45;&gt;Node30 -->
<g id="edge31" class="edge">
<title>Node29&#45;&gt;Node30</title>
<path fill="none" stroke="midnightblue" d="M918.71,-246.08C915.15,-238.69 909.98,-227.95 905.58,-218.81"/>
<polygon fill="midnightblue" stroke="midnightblue" points="908.71,-217.24 901.21,-209.75 902.4,-220.28 908.71,-217.24"/>
</g>
<!-- Node31 -->
<g id="node29" class="node">
<title>Node31</title>
<g id="a_node29"><a xlink:title=" ">
<polygon fill="white" stroke="#bfbfbf" points="964.5,-190.5 964.5,-209.5 1031.5,-209.5 1031.5,-190.5 964.5,-190.5"/>
<text text-anchor="middle" x="998" y="-197.5" font-family="Helvetica,sans-Serif" font-size="10.00">G4Tubs.hh</text>
</a>
</g>
</g>
<!-- Node29&#45;&gt;Node31 -->
<g id="edge32" class="edge">
<title>Node29&#45;&gt;Node31</title>
<path fill="none" stroke="midnightblue" d="M935.05,-246.32C946.46,-238.11 963.83,-225.6 977.43,-215.81"/>
<polygon fill="midnightblue" stroke="midnightblue" points="979.66,-218.52 985.73,-209.83 975.57,-212.84 979.66,-218.52"/>
</g>
<!-- Node37 -->
<g id="node35" class="node">
<title>Node37</title>
<g id="a_node35"><a xlink:title=" ">
<polygon fill="white" stroke="#bfbfbf" points="1367.5,-302.5 1367.5,-321.5 1484.5,-321.5 1484.5,-302.5 1367.5,-302.5"/>
<text text-anchor="middle" x="1426" y="-309.5" font-family="Helvetica,sans-Serif" font-size="10.00">G4UserRunAction.hh</text>
</a>
</g>
</g>
<!-- Node36&#45;&gt;Node37 -->
<g id="edge38" class="edge">
<title>Node36&#45;&gt;Node37</title>
<path fill="none" stroke="midnightblue" d="M1426,-358.08C1426,-351.01 1426,-340.86 1426,-331.99"/>
<polygon fill="midnightblue" stroke="midnightblue" points="1429.5,-331.75 1426,-321.75 1422.5,-331.75 1429.5,-331.75"/>
</g>
<!-- Node40 -->
<g id="node38" class="node">
<title>Node40</title>
<g id="a_node38"><a xlink:title=" ">
<polygon fill="white" stroke="#bfbfbf" points="28.5,-302.5 28.5,-321.5 167.5,-321.5 167.5,-302.5 28.5,-302.5"/>
<text text-anchor="middle" x="98" y="-309.5" font-family="Helvetica,sans-Serif" font-size="10.00">G4UserTrackingAction.hh</text>
</a>
</g>
</g>
<!-- Node39&#45;&gt;Node40 -->
<g id="edge41" class="edge">
<title>Node39&#45;&gt;Node40</title>
<path fill="none" stroke="midnightblue" d="M98,-358.08C98,-351.01 98,-340.86 98,-331.99"/>
<polygon fill="midnightblue" stroke="midnightblue" points="101.5,-331.75 98,-321.75 94.5,-331.75 101.5,-331.75"/>
</g>
<!-- Node42 -->
<g id="node40" class="node">
<title>Node42</title>
<g id="a_node40"><a xlink:title=" ">
<polygon fill="white" stroke="#bfbfbf" points="185.5,-302.5 185.5,-321.5 326.5,-321.5 326.5,-302.5 185.5,-302.5"/>
<text text-anchor="middle" x="256" y="-309.5" font-family="Helvetica,sans-Serif" font-size="10.00">G4UserSteppingAction.hh</text>
</a>
</g>
</g>
<!-- Node41&#45;&gt;Node42 -->
<g id="edge43" class="edge">
<title>Node41&#45;&gt;Node42</title>
<path fill="none" stroke="midnightblue" d="M255.17,-358.08C255.3,-351.01 255.48,-340.86 255.65,-331.99"/>
<polygon fill="midnightblue" stroke="midnightblue" points="259.15,-331.81 255.84,-321.75 252.15,-331.68 259.15,-331.81"/>
</g>
<!-- Node44 -->
<g id="node42" class="node">
<title>Node44</title>
<g id="a_node42"><a xlink:href="_o_m_sim_command_args_table_8hh.html" target="_top" xlink:title="Definition of the OMSimCommandArgsTable singleton class, which controls user args.">
<polygon fill="white" stroke="black" points="348,-246.5 348,-265.5 512,-265.5 512,-246.5 348,-246.5"/>
<text text-anchor="middle" x="430" y="-253.5" font-family="Helvetica,sans-Serif" font-size="10.00">OMSimCommandArgsTable.hh</text>
</a>
</g>
</g>
<!-- Node43&#45;&gt;Node44 -->
<g id="edge45" class="edge">
<title>Node43&#45;&gt;Node44</title>
<path fill="none" stroke="midnightblue" d="M430,-302.08C430,-295.01 430,-284.86 430,-275.99"/>
<polygon fill="midnightblue" stroke="midnightblue" points="433.5,-275.75 430,-265.75 426.5,-275.75 433.5,-275.75"/>
</g>
<!-- Node47 -->
<g id="node45" class="node">
<title>Node47</title>
<g id="a_node45"><a xlink:title=" ">
<polygon fill="white" stroke="#bfbfbf" points="232,-246.5 232,-265.5 330,-265.5 330,-246.5 232,-246.5"/>
<text text-anchor="middle" x="281" y="-253.5" font-family="Helvetica,sans-Serif" font-size="10.00">G4UImanager.hh</text>
</a>
</g>
</g>
<!-- Node43&#45;&gt;Node47 -->
<g id="edge50" class="edge">
<title>Node43&#45;&gt;Node47</title>
<path fill="none" stroke="midnightblue" d="M406.39,-302.44C381.54,-293.44 342.23,-279.19 314.25,-269.05"/>
<polygon fill="midnightblue" stroke="midnightblue" points="315.09,-265.63 304.5,-265.52 312.71,-272.21 315.09,-265.63"/>
</g>
<!-- Node44&#45;&gt;Node7 -->
<g id="edge46" class="edge">
<title>Node44&#45;&gt;Node7</title>
<path fill="none" stroke="midnightblue" d="M427.49,-246.15C423.91,-233.62 417.12,-210.01 411,-190 401.48,-158.86 389.84,-122.8 382.94,-101.64"/>
<polygon fill="midnightblue" stroke="midnightblue" points="386.24,-100.46 379.8,-92.04 379.58,-102.63 386.24,-100.46"/>
</g>
<!-- Node44&#45;&gt;Node26 -->
<g id="edge47" class="edge">
<title>Node44&#45;&gt;Node26</title>
<path fill="none" stroke="midnightblue" d="M512.39,-253.23C628.05,-249.78 845.17,-239.82 1039.12,-209.86"/>
<polygon fill="midnightblue" stroke="midnightblue" points="1039.88,-213.28 1049.22,-208.28 1038.8,-206.37 1039.88,-213.28"/>
</g>
<!-- Node45 -->
<g id="node43" class="node">
<title>Node45</title>
<g id="a_node43"><a xlink:title=" ">
<polygon fill="white" stroke="#bfbfbf" points="232,-190.5 232,-209.5 316,-209.5 316,-190.5 232,-190.5"/>
<text text-anchor="middle" x="274" y="-197.5" font-family="Helvetica,sans-Serif" font-size="10.00">boost/any.hpp</text>
</a>
</g>
</g>
<!-- Node44&#45;&gt;Node45 -->
<g id="edge48" class="edge">
<title>Node44&#45;&gt;Node45</title>
<path fill="none" stroke="midnightblue" d="M405.28,-246.44C379.15,-237.4 337.74,-223.06 308.42,-212.92"/>
<polygon fill="midnightblue" stroke="midnightblue" points="309.2,-209.48 298.6,-209.52 306.91,-216.1 309.2,-209.48"/>
</g>
<!-- Node46 -->
<g id="node44" class="node">
<title>Node46</title>
<g id="a_node44"><a xlink:title=" ">
<polygon fill="white" stroke="#bfbfbf" points="334,-190.5 334,-209.5 402,-209.5 402,-190.5 334,-190.5"/>
<text text-anchor="middle" x="368" y="-197.5" font-family="Helvetica,sans-Serif" font-size="10.00">sys/time.h</text>
</a>
</g>
</g>
<!-- Node44&#45;&gt;Node46 -->
<g id="edge49" class="edge">
<title>Node44&#45;&gt;Node46</title>
<path fill="none" stroke="midnightblue" d="M420.04,-246.32C410.87,-238.34 397.06,-226.31 385.97,-216.65"/>
<polygon fill="midnightblue" stroke="midnightblue" points="387.98,-213.76 378.14,-209.83 383.38,-219.04 387.98,-213.76"/>
</g>
</g>
</svg>
