<?xml version="1.0" encoding="UTF-8" standalone="no"?>
<!DOCTYPE svg PUBLIC "-//W3C//DTD SVG 1.1//EN"
 "http://www.w3.org/Graphics/SVG/1.1/DTD/svg11.dtd">
<!-- Generated by graphviz version 2.43.0 (0)
 -->
<!-- Title: OMSimPMTConstruction.hh Pages: 1 -->
<svg width="1525pt" height="248pt"
 viewBox="0.00 0.00 1524.50 247.85" xmlns="http://www.w3.org/2000/svg" xmlns:xlink="http://www.w3.org/1999/xlink">
<g id="graph0" class="graph" transform="scale(1 1) rotate(0) translate(4 243.85)">
<title>OMSimPMTConstruction.hh</title>
<!-- Node1 -->
<g id="Node000001" class="node">
<title>Node1</title>
<g id="a_Node000001"><a xlink:title="Construction of the PMTs.">
<polygon fill="#999999" stroke="#666666" points="376,-239 227,-239 227,-220 376,-220 376,-239"/>
<text text-anchor="middle" x="301.5" y="-227" font-family="Helvetica,sans-Serif" font-size="10.00">OMSimPMTConstruction.hh</text>
</a>
</g>
</g>
<!-- Node1&#45;&gt;Node1 -->
<g id="edge34_Node000001_Node000001" class="edge">
<title>Node1&#45;&gt;Node1</title>
<g id="a_edge34_Node000001_Node000001"><a xlink:title=" ">
<path fill="none" stroke="#63b8ff" d="M354.79,-239.56C376.11,-240.13 394,-236.77 394,-229.5 394,-221.12 370.21,-217.94 344.8,-219.97"/>
<polygon fill="#63b8ff" stroke="#63b8ff" points="354.97,-236.07 344.8,-239.03 354.6,-243.06 354.97,-236.07"/>
</a>
</g>
</g>
<!-- Node2 -->
<g id="Node000002" class="node">
<title>Node2</title>
<g id="a_Node000002"><a xlink:href="_o_m_sim_d_e_g_g_8hh.html" target="_top" xlink:title="Construction of the DEGG class.">
<polygon fill="white" stroke="#666666" points="95,-129 0,-129 0,-110 95,-110 95,-129"/>
<text text-anchor="middle" x="47.5" y="-117" font-family="Helvetica,sans-Serif" font-size="10.00">OMSimDEGG.hh</text>
</a>
</g>
</g>
<!-- Node1&#45;&gt;Node2 -->
<g id="edge1_Node000001_Node000002" class="edge">
<title>Node1&#45;&gt;Node2</title>
<g id="a_edge1_Node000001_Node000002"><a xlink:title=" ">
<path fill="none" stroke="#63b8ff" d="M271.74,-215.84C219.38,-193.58 112.15,-147.99 67.6,-129.05"/>
<polygon fill="#63b8ff" stroke="#63b8ff" points="270.57,-219.15 281.14,-219.84 273.31,-212.71 270.57,-219.15"/>
</a>
</g>
</g>
<!-- Node4 -->
<g id="Node000004" class="node">
<title>Node4</title>
<g id="a_Node000004"><a xlink:href="_o_m_sim_l_o_m16_8hh.html" target="_top" xlink:title="Construction of LOM16.">
<polygon fill="white" stroke="#666666" points="214,-129 113,-129 113,-110 214,-110 214,-129"/>
<text text-anchor="middle" x="163.5" y="-117" font-family="Helvetica,sans-Serif" font-size="10.00">OMSimLOM16.hh</text>
</a>
</g>
</g>
<!-- Node1&#45;&gt;Node4 -->
<g id="edge3_Node000001_Node000004" class="edge">
<title>Node1&#45;&gt;Node4</title>
<g id="a_edge3_Node000001_Node000004"><a xlink:title=" ">
<path fill="none" stroke="#63b8ff" d="M281.96,-213.21C252.56,-190.2 197.93,-147.44 174.56,-129.16"/>
<polygon fill="#63b8ff" stroke="#63b8ff" points="280.17,-216.26 290.21,-219.66 284.49,-210.74 280.17,-216.26"/>
</a>
</g>
</g>
<!-- Node5 -->
<g id="Node000005" class="node">
<title>Node5</title>
<g id="a_Node000005"><a xlink:href="_o_m_sim_l_o_m18_8hh.html" target="_top" xlink:title="Construction of LOM18.">
<polygon fill="white" stroke="#666666" points="333,-129 232,-129 232,-110 333,-110 333,-129"/>
<text text-anchor="middle" x="282.5" y="-117" font-family="Helvetica,sans-Serif" font-size="10.00">OMSimLOM18.hh</text>
</a>
</g>
</g>
<!-- Node1&#45;&gt;Node5 -->
<g id="edge5_Node000001_Node000005" class="edge">
<title>Node1&#45;&gt;Node5</title>
<g id="a_edge5_Node000001_Node000005"><a xlink:title=" ">
<path fill="none" stroke="#63b8ff" d="M298.21,-209.8C294.06,-186.2 287.09,-146.58 284.02,-129.16"/>
<polygon fill="#63b8ff" stroke="#63b8ff" points="294.77,-210.42 299.95,-219.66 301.66,-209.21 294.77,-210.42"/>
</a>
</g>
</g>
<!-- Node7 -->
<g id="Node000007" class="node">
<title>Node7</title>
<g id="a_Node000007"><a xlink:href="_o_m_sim_m_d_o_m_8hh.html" target="_top" xlink:title="Construction of mDOM.">
<polygon fill="white" stroke="#666666" points="451.5,-129 351.5,-129 351.5,-110 451.5,-110 451.5,-129"/>
<text text-anchor="middle" x="401.5" y="-117" font-family="Helvetica,sans-Serif" font-size="10.00">OMSimMDOM.hh</text>
</a>
</g>
</g>
<!-- Node1&#45;&gt;Node7 -->
<g id="edge8_Node000001_Node000007" class="edge">
<title>Node1&#45;&gt;Node7</title>
<g id="a_edge8_Node000001_Node000007"><a xlink:title=" ">
<path fill="none" stroke="#63b8ff" d="M309.96,-210.82C316.95,-197.33 327.77,-178.78 340.5,-165 354.2,-150.17 373.49,-137.08 386.69,-129"/>
<polygon fill="#63b8ff" stroke="#63b8ff" points="306.71,-209.47 305.39,-219.99 312.98,-212.6 306.71,-209.47"/>
</a>
</g>
</g>
<!-- Node8 -->
<g id="Node000008" class="node">
<title>Node8</title>
<g id="a_Node000008"><a xlink:href="_o_m_sim_optical_module_8hh_source.html" target="_top" xlink:title=" ">
<polygon fill="white" stroke="#666666" points="486,-184 349,-184 349,-165 486,-165 486,-184"/>
<text text-anchor="middle" x="417.5" y="-172" font-family="Helvetica,sans-Serif" font-size="10.00">OMSimOpticalModule.hh</text>
</a>
</g>
</g>
<!-- Node1&#45;&gt;Node8 -->
<g id="edge10_Node000001_Node000008" class="edge">
<title>Node1&#45;&gt;Node8</title>
<g id="a_edge10_Node000001_Node000008"><a xlink:title=" ">
<path fill="none" stroke="#63b8ff" d="M329.37,-215.77C350.77,-205.99 379.74,-192.75 398.52,-184.17"/>
<polygon fill="#63b8ff" stroke="#63b8ff" points="327.78,-212.65 320.14,-219.98 330.69,-219.01 327.78,-212.65"/>
</a>
</g>
</g>
<!-- Node22 -->
<g id="Node000022" class="node">
<title>Node22</title>
<g id="a_Node000022"><a xlink:href="_o_m_sim_p_d_o_m_8hh.html" target="_top" xlink:title="Implementation of the pDOM (deepcore) or Gen1 DOM..">
<polygon fill="white" stroke="#666666" points="745,-129 648,-129 648,-110 745,-110 745,-129"/>
<text text-anchor="middle" x="696.5" y="-117" font-family="Helvetica,sans-Serif" font-size="10.00">OMSimPDOM.hh</text>
</a>
</g>
</g>
<!-- Node1&#45;&gt;Node22 -->
<g id="edge33_Node000001_Node000022" class="edge">
<title>Node1&#45;&gt;Node22</title>
<g id="a_edge33_Node000001_Node000022"><a xlink:title=" ">
<path fill="none" stroke="#63b8ff" d="M352.86,-217.9C392.13,-209.51 447.5,-197.07 495.5,-184 559.59,-166.56 633.84,-141.93 671.62,-129.07"/>
<polygon fill="#63b8ff" stroke="#63b8ff" points="352.05,-214.49 342.99,-219.99 353.5,-221.34 352.05,-214.49"/>
</a>
</g>
</g>
<!-- Node3 -->
<g id="Node000003" class="node">
<title>Node3</title>
<g id="a_Node000003"><a xlink:href="_o_m_sim_wave_p_i_d_detector_8cc.html" target="_top" xlink:title="Implementation of detector construction for WavePID study.">
<polygon fill="white" stroke="#666666" points="406.5,-19 256.5,-19 256.5,0 406.5,0 406.5,-19"/>
<text text-anchor="middle" x="331.5" y="-7" font-family="Helvetica,sans-Serif" font-size="10.00">OMSimWavePIDDetector.cc</text>
</a>
</g>
</g>
<!-- Node2&#45;&gt;Node3 -->
<g id="edge2_Node000002_Node000003" class="edge">
<title>Node2&#45;&gt;Node3</title>
<g id="a_edge2_Node000002_Node000003"><a xlink:title=" ">
<path fill="none" stroke="#63b8ff" d="M79.69,-106.26C137.82,-84.15 258.9,-38.11 309.02,-19.05"/>
<polygon fill="#63b8ff" stroke="#63b8ff" points="78.36,-103.02 70.26,-109.84 80.85,-109.56 78.36,-103.02"/>
</a>
</g>
</g>
<!-- Node4&#45;&gt;Node3 -->
<g id="edge4_Node000004_Node000003" class="edge">
<title>Node4&#45;&gt;Node3</title>
<g id="a_edge4_Node000004_Node000003"><a xlink:title=" ">
<path fill="none" stroke="#63b8ff" d="M184.26,-104.01C203.17,-90.93 231.96,-71.29 257.5,-55 277.72,-42.1 301.57,-27.94 316.62,-19.14"/>
<polygon fill="#63b8ff" stroke="#63b8ff" points="182.05,-101.29 175.83,-109.87 186.04,-107.04 182.05,-101.29"/>
</a>
</g>
</g>
<!-- Node5&#45;&gt;Node3 -->
<g id="edge7_Node000005_Node000003" class="edge">
<title>Node5&#45;&gt;Node3</title>
<g id="a_edge7_Node000005_Node000003"><a xlink:title=" ">
<path fill="none" stroke="#63b8ff" d="M270.83,-101.25C263.45,-88.03 256.66,-69.63 264.5,-55 273.74,-37.77 292.91,-26.08 308.39,-19.02"/>
<polygon fill="#63b8ff" stroke="#63b8ff" points="267.89,-103.15 276.11,-109.84 273.85,-99.49 267.89,-103.15"/>
</a>
</g>
</g>
<!-- Node6 -->
<g id="Node000006" class="node">
<title>Node6</title>
<g id="a_Node000006"><a xlink:href="_o_m_sim_l_o_m18_8cc.html" target="_top" xlink:title=" ">
<polygon fill="white" stroke="#666666" points="373,-74 274,-74 274,-55 373,-55 373,-74"/>
<text text-anchor="middle" x="323.5" y="-62" font-family="Helvetica,sans-Serif" font-size="10.00">OMSimLOM18.cc</text>
</a>
</g>
</g>
<!-- Node5&#45;&gt;Node6 -->
<g id="edge6_Node000005_Node000006" class="edge">
<title>Node5&#45;&gt;Node6</title>
<g id="a_edge6_Node000005_Node000006"><a xlink:title=" ">
<path fill="none" stroke="#63b8ff" d="M295.52,-101.67C302.62,-92.5 311.1,-81.52 316.86,-74.09"/>
<polygon fill="#63b8ff" stroke="#63b8ff" points="292.62,-99.7 289.27,-109.75 298.16,-103.98 292.62,-99.7"/>
</a>
</g>
</g>
<!-- Node7&#45;&gt;Node3 -->
<g id="edge9_Node000007_Node000003" class="edge">
<title>Node7&#45;&gt;Node3</title>
<g id="a_edge9_Node000007_Node000003"><a xlink:title=" ">
<path fill="none" stroke="#63b8ff" d="M398.74,-99.72C396.13,-86.42 391.26,-68.61 382.5,-55 372.83,-39.98 356.66,-27.11 345.12,-19.13"/>
<polygon fill="#63b8ff" stroke="#63b8ff" points="395.3,-100.37 400.44,-109.64 402.2,-99.19 395.3,-100.37"/>
</a>
</g>
</g>
<!-- Node8&#45;&gt;Node2 -->
<g id="edge11_Node000008_Node000002" class="edge">
<title>Node8&#45;&gt;Node2</title>
<g id="a_edge11_Node000008_Node000002"><a xlink:title=" ">
<path fill="none" stroke="#63b8ff" d="M346.17,-163.59C282.51,-154.71 186.75,-141.22 103.5,-129 100.78,-128.6 97.98,-128.19 95.15,-127.77"/>
<polygon fill="#63b8ff" stroke="#63b8ff" points="345.72,-167.07 356.1,-164.98 346.68,-160.13 345.72,-167.07"/>
</a>
</g>
</g>
<!-- Node8&#45;&gt;Node4 -->
<g id="edge27_Node000008_Node000004" class="edge">
<title>Node8&#45;&gt;Node4</title>
<g id="a_edge27_Node000008_Node000004"><a xlink:title=" ">
<path fill="none" stroke="#63b8ff" d="M366.89,-162.94C319.28,-153.01 248.88,-138.31 204.63,-129.08"/>
<polygon fill="#63b8ff" stroke="#63b8ff" points="366.19,-166.37 376.69,-164.98 367.62,-159.52 366.19,-166.37"/>
</a>
</g>
</g>
<!-- Node8&#45;&gt;Node5 -->
<g id="edge28_Node000008_Node000005" class="edge">
<title>Node8&#45;&gt;Node5</title>
<g id="a_edge28_Node000008_Node000005"><a xlink:title=" ">
<path fill="none" stroke="#63b8ff" d="M386.4,-161.29C361.38,-151.47 326.84,-137.91 304.58,-129.17"/>
<polygon fill="#63b8ff" stroke="#63b8ff" points="385.22,-164.59 395.81,-164.98 387.78,-158.07 385.22,-164.59"/>
</a>
</g>
</g>
<!-- Node8&#45;&gt;Node7 -->
<g id="edge29_Node000008_Node000007" class="edge">
<title>Node8&#45;&gt;Node7</title>
<g id="a_edge29_Node000008_Node000007"><a xlink:title=" ">
<path fill="none" stroke="#63b8ff" d="M411.9,-154.95C409.24,-146.15 406.2,-136.06 404.09,-129.09"/>
<polygon fill="#63b8ff" stroke="#63b8ff" points="408.62,-156.19 414.86,-164.75 415.32,-154.16 408.62,-156.19"/>
</a>
</g>
</g>
<!-- Node9 -->
<g id="Node000009" class="node">
<title>Node9</title>
<g id="a_Node000009"><a xlink:href="_o_m_sim_decays_g_p_s_8hh.html" target="_top" xlink:title="Defines the OMSimDecaysGPS class for the radioactive decays simulation.">
<polygon fill="white" stroke="#666666" points="591.5,-129 469.5,-129 469.5,-110 591.5,-110 591.5,-129"/>
<text text-anchor="middle" x="530.5" y="-117" font-family="Helvetica,sans-Serif" font-size="10.00">OMSimDecaysGPS.hh</text>
</a>
</g>
</g>
<!-- Node8&#45;&gt;Node9 -->
<g id="edge12_Node000008_Node000009" class="edge">
<title>Node8&#45;&gt;Node9</title>
<g id="a_edge12_Node000008_Node000009"><a xlink:title=" ">
<path fill="none" stroke="#63b8ff" d="M444.93,-160.63C465.75,-150.87 493.8,-137.71 512.01,-129.17"/>
<polygon fill="#63b8ff" stroke="#63b8ff" points="443.22,-157.57 435.66,-164.98 446.2,-163.91 443.22,-157.57"/>
</a>
</g>
</g>
<!-- Node11 -->
<g id="Node000011" class="node">
<title>Node11</title>
<g id="a_Node000011"><a xlink:href="_o_m_sim_detector_construction_8hh_source.html" target="_top" xlink:title=" ">
<polygon fill="white" stroke="#666666" points="981.5,-129 811.5,-129 811.5,-110 981.5,-110 981.5,-129"/>
<text text-anchor="middle" x="896.5" y="-117" font-family="Helvetica,sans-Serif" font-size="10.00">OMSimDetectorConstruction.hh</text>
</a>
</g>
</g>
<!-- Node8&#45;&gt;Node11 -->
<g id="edge14_Node000008_Node000011" class="edge">
<title>Node8&#45;&gt;Node11</title>
<g id="a_edge14_Node000008_Node000011"><a xlink:title=" ">
<path fill="none" stroke="#63b8ff" d="M496.22,-164.79C585.75,-154.88 730.95,-138.82 819.68,-129"/>
<polygon fill="#63b8ff" stroke="#63b8ff" points="495.68,-161.33 486.13,-165.91 496.45,-168.29 495.68,-161.33"/>
</a>
</g>
</g>
<!-- Node17 -->
<g id="Node000017" class="node">
<title>Node17</title>
<g id="a_Node000017"><a xlink:href="_o_m_sim_rad_decays_detector_8hh.html" target="_top" xlink:title="Defines the OMSimRadDecaysDetector class for the radioactive decays simulation.">
<polygon fill="white" stroke="#666666" points="685,-74 522,-74 522,-55 685,-55 685,-74"/>
<text text-anchor="middle" x="603.5" y="-62" font-family="Helvetica,sans-Serif" font-size="10.00">OMSimRadDecaysDetector.hh</text>
</a>
</g>
</g>
<!-- Node8&#45;&gt;Node17 -->
<g id="edge32_Node000008_Node000017" class="edge">
<title>Node8&#45;&gt;Node17</title>
<g id="a_edge32_Node000008_Node000017"><a xlink:title=" ">
<path fill="none" stroke="#63b8ff" d="M496.22,-163.82C539.41,-156.75 586.89,-145.5 600.5,-129 613.42,-113.33 609.32,-87.38 605.99,-74.03"/>
<polygon fill="#63b8ff" stroke="#63b8ff" points="495.56,-160.38 486.23,-165.39 496.65,-167.29 495.56,-160.38"/>
</a>
</g>
</g>
<!-- Node8&#45;&gt;Node22 -->
<g id="edge30_Node000008_Node000022" class="edge">
<title>Node8&#45;&gt;Node22</title>
<g id="a_edge30_Node000008_Node000022"><a xlink:title=" ">
<path fill="none" stroke="#63b8ff" d="M472.43,-163.07C524.74,-153.13 602.52,-138.35 651.32,-129.08"/>
<polygon fill="#63b8ff" stroke="#63b8ff" points="471.5,-159.68 462.33,-164.98 472.8,-166.56 471.5,-159.68"/>
</a>
</g>
</g>
<!-- Node10 -->
<g id="Node000010" class="node">
<title>Node10</title>
<g id="a_Node000010"><a xlink:href="_o_m_sim__radioactive__decays_8cc.html" target="_top" xlink:title="Main of the radioactive decay study.">
<polygon fill="white" stroke="#666666" points="607,-19 442,-19 442,0 607,0 607,-19"/>
<text text-anchor="middle" x="524.5" y="-7" font-family="Helvetica,sans-Serif" font-size="10.00">OMSim_radioactive_decays.cc</text>
</a>
</g>
</g>
<!-- Node9&#45;&gt;Node10 -->
<g id="edge13_Node000009_Node000010" class="edge">
<title>Node9&#45;&gt;Node10</title>
<g id="a_edge13_Node000009_Node000010"><a xlink:title=" ">
<path fill="none" stroke="#63b8ff" d="M521.94,-100.59C518.6,-92.64 515.17,-83.05 513.5,-74 509.89,-54.42 516.62,-31.37 521.05,-19.14"/>
<polygon fill="#63b8ff" stroke="#63b8ff" points="518.84,-102.22 526.13,-109.91 525.23,-99.35 518.84,-102.22"/>
</a>
</g>
</g>
<!-- Node12 -->
<g id="Node000012" class="node">
<title>Node12</title>
<g id="a_Node000012"><a xlink:href="common_2framework_2include_2_o_m_sim_8hh.html" target="_top" xlink:title="Main simulation class for the Optical Module (OM) simulation. This file defines the OMSim class,...">
<polygon fill="white" stroke="#666666" points="770,-74 703,-74 703,-55 770,-55 770,-74"/>
<text text-anchor="middle" x="736.5" y="-62" font-family="Helvetica,sans-Serif" font-size="10.00">OMSim.hh</text>
</a>
</g>
</g>
<!-- Node11&#45;&gt;Node12 -->
<g id="edge15_Node000011_Node000012" class="edge">
<title>Node11&#45;&gt;Node12</title>
<g id="a_edge15_Node000011_Node000012"><a xlink:title=" ">
<path fill="none" stroke="#63b8ff" d="M861.17,-106.8C831.31,-96.91 789.23,-82.97 762.41,-74.08"/>
<polygon fill="#63b8ff" stroke="#63b8ff" points="860.2,-110.16 870.79,-109.98 862.4,-103.52 860.2,-110.16"/>
</a>
</g>
</g>
<!-- Node13 -->
<g id="Node000013" class="node">
<title>Node13</title>
<g id="a_Node000013"><a xlink:href="simulations_2wavepid_2include_2_o_m_sim_8hh.html" target="_top" xlink:title="Main simulation class for the Optical Module (OM) simulation.">
<polygon fill="white" stroke="#666666" points="855,-74 788,-74 788,-55 855,-55 855,-74"/>
<text text-anchor="middle" x="821.5" y="-62" font-family="Helvetica,sans-Serif" font-size="10.00">OMSim.hh</text>
</a>
</g>
</g>
<!-- Node11&#45;&gt;Node13 -->
<g id="edge16_Node000011_Node000013" class="edge">
<title>Node11&#45;&gt;Node13</title>
<g id="a_edge16_Node000011_Node000013"><a xlink:title=" ">
<path fill="none" stroke="#63b8ff" d="M876.19,-104.15C862.64,-94.57 845.26,-82.29 833.77,-74.17"/>
<polygon fill="#63b8ff" stroke="#63b8ff" points="874.26,-107.07 884.45,-109.98 878.3,-101.36 874.26,-107.07"/>
</a>
</g>
</g>
<!-- Node14 -->
<g id="Node000014" class="node">
<title>Node14</title>
<g id="a_Node000014"><a xlink:href="_o_m_sim_effective_area_detector_8hh.html" target="_top" xlink:title="Defines the OMSimEffectiveAreaDetector class for effective area simulation detector construction.">
<polygon fill="white" stroke="#666666" points="1378,-74 1205,-74 1205,-55 1378,-55 1378,-74"/>
<text text-anchor="middle" x="1291.5" y="-62" font-family="Helvetica,sans-Serif" font-size="10.00">OMSimEffectiveAreaDetector.hh</text>
</a>
</g>
</g>
<!-- Node11&#45;&gt;Node14 -->
<g id="edge17_Node000011_Node000014" class="edge">
<title>Node11&#45;&gt;Node14</title>
<g id="a_edge17_Node000011_Node000014"><a xlink:title=" ">
<path fill="none" stroke="#63b8ff" d="M970.16,-108.62C1044.31,-98.67 1157.5,-83.48 1227.87,-74.04"/>
<polygon fill="#63b8ff" stroke="#63b8ff" points="969.41,-105.19 959.96,-109.98 970.34,-112.12 969.41,-105.19"/>
</a>
</g>
</g>
<!-- Node16 -->
<g id="Node000016" class="node">
<title>Node16</title>
<g id="a_Node000016"><a xlink:href="_o_m_sim_effi_cali_detector_8hh_source.html" target="_top" xlink:title=" ">
<polygon fill="white" stroke="#666666" points="1016,-74 873,-74 873,-55 1016,-55 1016,-74"/>
<text text-anchor="middle" x="944.5" y="-62" font-family="Helvetica,sans-Serif" font-size="10.00">OMSimEffiCaliDetector.hh</text>
</a>
</g>
</g>
<!-- Node11&#45;&gt;Node16 -->
<g id="edge19_Node000011_Node000016" class="edge">
<title>Node11&#45;&gt;Node16</title>
<g id="a_edge19_Node000011_Node000016"><a xlink:title=" ">
<path fill="none" stroke="#63b8ff" d="M911.23,-102.24C919.64,-92.95 929.85,-81.68 936.72,-74.09"/>
<polygon fill="#63b8ff" stroke="#63b8ff" points="908.54,-99.99 904.43,-109.75 913.73,-104.69 908.54,-99.99"/>
</a>
</g>
</g>
<!-- Node11&#45;&gt;Node17 -->
<g id="edge20_Node000011_Node000017" class="edge">
<title>Node11&#45;&gt;Node17</title>
<g id="a_edge20_Node000011_Node000017"><a xlink:title=" ">
<path fill="none" stroke="#63b8ff" d="M839.5,-108.19C784.56,-98.25 702.41,-83.39 650.94,-74.08"/>
<polygon fill="#63b8ff" stroke="#63b8ff" points="838.96,-111.65 849.42,-109.98 840.21,-104.76 838.96,-111.65"/>
</a>
</g>
</g>
<!-- Node18 -->
<g id="Node000018" class="node">
<title>Node18</title>
<g id="a_Node000018"><a xlink:href="_o_m_sim_s_ndetector_8hh_source.html" target="_top" xlink:title=" ">
<polygon fill="white" stroke="#666666" points="1516.5,-74 1396.5,-74 1396.5,-55 1516.5,-55 1516.5,-74"/>
<text text-anchor="middle" x="1456.5" y="-62" font-family="Helvetica,sans-Serif" font-size="10.00">OMSimSNdetector.hh</text>
</a>
</g>
</g>
<!-- Node11&#45;&gt;Node18 -->
<g id="edge22_Node000011_Node000018" class="edge">
<title>Node11&#45;&gt;Node18</title>
<g id="a_edge22_Node000011_Node000018"><a xlink:title=" ">
<path fill="none" stroke="#63b8ff" d="M991.72,-110.78C1090.7,-102.55 1250.09,-88.69 1387.5,-74 1390.38,-73.69 1393.33,-73.37 1396.3,-73.03"/>
<polygon fill="#63b8ff" stroke="#63b8ff" points="991.41,-107.3 981.74,-111.61 991.99,-114.27 991.41,-107.3"/>
</a>
</g>
</g>
<!-- Node20 -->
<g id="Node000020" class="node">
<title>Node20</title>
<g id="a_Node000020"><a xlink:href="_o_m_sim_wave_p_i_d_detector_8hh.html" target="_top" xlink:title="Detector construction for WavePID simulation study.">
<polygon fill="white" stroke="#666666" points="1186.5,-74 1034.5,-74 1034.5,-55 1186.5,-55 1186.5,-74"/>
<text text-anchor="middle" x="1110.5" y="-62" font-family="Helvetica,sans-Serif" font-size="10.00">OMSimWavePIDDetector.hh</text>
</a>
</g>
</g>
<!-- Node11&#45;&gt;Node20 -->
<g id="edge24_Node000011_Node000020" class="edge">
<title>Node11&#45;&gt;Node20</title>
<g id="a_edge24_Node000011_Node000020"><a xlink:title=" ">
<path fill="none" stroke="#63b8ff" d="M940.66,-107.56C980.74,-97.64 1039.04,-83.2 1075.85,-74.08"/>
<polygon fill="#63b8ff" stroke="#63b8ff" points="939.75,-104.18 930.88,-109.98 941.43,-110.98 939.75,-104.18"/>
</a>
</g>
</g>
<!-- Node15 -->
<g id="Node000015" class="node">
<title>Node15</title>
<g id="a_Node000015"><a xlink:href="_o_m_sim__effective__area_8cc.html" target="_top" xlink:title="Main for the calculation of effective areas.">
<polygon fill="white" stroke="#666666" points="1361.5,-19 1221.5,-19 1221.5,0 1361.5,0 1361.5,-19"/>
<text text-anchor="middle" x="1291.5" y="-7" font-family="Helvetica,sans-Serif" font-size="10.00">OMSim_effective_area.cc</text>
</a>
</g>
</g>
<!-- Node14&#45;&gt;Node15 -->
<g id="edge18_Node000014_Node000015" class="edge">
<title>Node14&#45;&gt;Node15</title>
<g id="a_edge18_Node000014_Node000015"><a xlink:title=" ">
<path fill="none" stroke="#63b8ff" d="M1291.5,-44.66C1291.5,-35.93 1291.5,-25.99 1291.5,-19.09"/>
<polygon fill="#63b8ff" stroke="#63b8ff" points="1288,-44.75 1291.5,-54.75 1295,-44.75 1288,-44.75"/>
</a>
</g>
</g>
<!-- Node17&#45;&gt;Node10 -->
<g id="edge21_Node000017_Node000010" class="edge">
<title>Node17&#45;&gt;Node10</title>
<g id="a_edge21_Node000017_Node000010"><a xlink:title=" ">
<path fill="none" stroke="#63b8ff" d="M582.11,-49.15C567.83,-39.57 549.53,-27.29 537.42,-19.17"/>
<polygon fill="#63b8ff" stroke="#63b8ff" points="580.55,-52.32 590.81,-54.98 584.45,-46.51 580.55,-52.32"/>
</a>
</g>
</g>
<!-- Node19 -->
<g id="Node000019" class="node">
<title>Node19</title>
<g id="a_Node000019"><a xlink:href="_o_m_sim_supernova_8cc.html" target="_top" xlink:title="Main of the supernova study.">
<polygon fill="white" stroke="#666666" points="1515,-19 1398,-19 1398,0 1515,0 1515,-19"/>
<text text-anchor="middle" x="1456.5" y="-7" font-family="Helvetica,sans-Serif" font-size="10.00">OMSimSupernova.cc</text>
</a>
</g>
</g>
<!-- Node18&#45;&gt;Node19 -->
<g id="edge23_Node000018_Node000019" class="edge">
<title>Node18&#45;&gt;Node19</title>
<g id="a_edge23_Node000018_Node000019"><a xlink:title=" ">
<path fill="none" stroke="#63b8ff" d="M1456.5,-44.66C1456.5,-35.93 1456.5,-25.99 1456.5,-19.09"/>
<polygon fill="#63b8ff" stroke="#63b8ff" points="1453,-44.75 1456.5,-54.75 1460,-44.75 1453,-44.75"/>
</a>
</g>
</g>
<!-- Node20&#45;&gt;Node3 -->
<g id="edge25_Node000020_Node000003" class="edge">
<title>Node20&#45;&gt;Node3</title>
<g id="a_edge25_Node000020_Node000003"><a xlink:title=" ">
<path fill="none" stroke="#63b8ff" d="M1023.82,-54.89C761.03,-33.98 693.08,-37.71 433.5,-19 424.82,-18.37 415.72,-17.68 406.69,-16.96"/>
<polygon fill="#63b8ff" stroke="#63b8ff" points="1023.81,-58.4 1034.06,-55.71 1024.37,-51.43 1023.81,-58.4"/>
</a>
</g>
</g>
<!-- Node21 -->
<g id="Node000021" class="node">
<title>Node21</title>
<g id="a_Node000021"><a xlink:href="_o_m_sim___wave_p_i_d__study_8cc.html" target="_top" xlink:title="Main executable for WavePID photon origin tracking study.">
<polygon fill="white" stroke="#666666" points="1183,-19 1038,-19 1038,0 1183,0 1183,-19"/>
<text text-anchor="middle" x="1110.5" y="-7" font-family="Helvetica,sans-Serif" font-size="10.00">OMSim_WavePID_study.cc</text>
</a>
</g>
</g>
<!-- Node20&#45;&gt;Node21 -->
<g id="edge26_Node000020_Node000021" class="edge">
<title>Node20&#45;&gt;Node21</title>
<g id="a_edge26_Node000020_Node000021"><a xlink:title=" ">
<path fill="none" stroke="#63b8ff" d="M1110.5,-44.66C1110.5,-35.93 1110.5,-25.99 1110.5,-19.09"/>
<polygon fill="#63b8ff" stroke="#63b8ff" points="1107,-44.75 1110.5,-54.75 1114,-44.75 1107,-44.75"/>
</a>
</g>
</g>
<!-- Node22&#45;&gt;Node3 -->
<g id="edge31_Node000022_Node000003" class="edge">
<title>Node22&#45;&gt;Node3</title>
<g id="a_edge31_Node000022_Node000003"><a xlink:title=" ">
<path fill="none" stroke="#63b8ff" d="M646.55,-107.73C609.56,-99.43 558.07,-87.16 513.5,-74 455.09,-56.75 387.74,-31.93 353.69,-19.03"/>
<polygon fill="#63b8ff" stroke="#63b8ff" points="646.06,-111.21 656.58,-109.97 647.58,-104.38 646.06,-111.21"/>
</a>
</g>
</g>
</g>
</svg>
