<?xml version="1.0" encoding="UTF-8" standalone="no"?>
<!DOCTYPE svg PUBLIC "-//W3C//DTD SVG 1.1//EN"
 "http://www.w3.org/Graphics/SVG/1.1/DTD/svg11.dtd">
<!-- Generated by graphviz version 2.43.0 (0)
 -->
<!-- Title: OMSimInputData.hh Pages: 1 -->
<svg width="1987pt" height="364pt"
 viewBox="0.00 0.00 1986.76 364.00" xmlns="http://www.w3.org/2000/svg" xmlns:xlink="http://www.w3.org/1999/xlink">
<g id="graph0" class="graph" transform="scale(1 1) rotate(0) translate(4 360)">
<title>OMSimInputData.hh</title>
<polygon fill="white" stroke="transparent" points="-4,4 -4,-360 1982.76,-360 1982.76,4 -4,4"/>
<!-- Node1 -->
<g id="node1" class="node">
<title>Node1</title>
<g id="a_node1"><a xlink:title="Definition of ParameterTable and InputDataManager.">
<polygon fill="#bfbfbf" stroke="black" points="1135.26,-336.5 1135.26,-355.5 1250.26,-355.5 1250.26,-336.5 1135.26,-336.5"/>
<text text-anchor="middle" x="1192.76" y="-343.5" font-family="Helvetica,sans-Serif" font-size="10.00">OMSimInputData.hh</text>
</a>
</g>
</g>
<!-- Node2 -->
<g id="node2" class="node">
<title>Node2</title>
<g id="a_node2"><a xlink:href="_o_m_sim_data_file_types_8cc.html" target="_top" xlink:title=" ">
<polygon fill="white" stroke="black" points="762.76,-280.5 762.76,-299.5 896.76,-299.5 896.76,-280.5 762.76,-280.5"/>
<text text-anchor="middle" x="829.76" y="-287.5" font-family="Helvetica,sans-Serif" font-size="10.00">OMSimDataFileTypes.cc</text>
</a>
</g>
</g>
<!-- Node1&#45;&gt;Node2 -->
<g id="edge1" class="edge">
<title>Node1&#45;&gt;Node2</title>
<path fill="none" stroke="midnightblue" d="M1124.97,-334.92C1056.4,-324.71 951.55,-309.12 887.01,-299.52"/>
<polygon fill="midnightblue" stroke="midnightblue" points="1124.83,-338.43 1135.24,-336.44 1125.86,-331.51 1124.83,-338.43"/>
</g>
<!-- Node3 -->
<g id="node3" class="node">
<title>Node3</title>
<g id="a_node3"><a xlink:href="_o_m_sim_input_data_8cc.html" target="_top" xlink:title=" ">
<polygon fill="white" stroke="black" points="915.26,-280.5 915.26,-299.5 1028.26,-299.5 1028.26,-280.5 915.26,-280.5"/>
<text text-anchor="middle" x="971.76" y="-287.5" font-family="Helvetica,sans-Serif" font-size="10.00">OMSimInputData.cc</text>
</a>
</g>
</g>
<!-- Node1&#45;&gt;Node3 -->
<g id="edge2" class="edge">
<title>Node1&#45;&gt;Node3</title>
<path fill="none" stroke="midnightblue" d="M1147.84,-334.02C1106.09,-323.82 1044.77,-308.84 1006.61,-299.52"/>
<polygon fill="midnightblue" stroke="midnightblue" points="1147.19,-337.47 1157.74,-336.44 1148.86,-330.67 1147.19,-337.47"/>
</g>
<!-- Node4 -->
<g id="node4" class="node">
<title>Node4</title>
<g id="a_node4"><a xlink:href="_o_m_sim_p_m_t_response_8cc.html" target="_top" xlink:title=" ">
<polygon fill="white" stroke="black" points="1046.76,-280.5 1046.76,-299.5 1180.76,-299.5 1180.76,-280.5 1046.76,-280.5"/>
<text text-anchor="middle" x="1113.76" y="-287.5" font-family="Helvetica,sans-Serif" font-size="10.00">OMSimPMTResponse.cc</text>
</a>
</g>
</g>
<!-- Node1&#45;&gt;Node4 -->
<g id="edge3" class="edge">
<title>Node1&#45;&gt;Node4</title>
<path fill="none" stroke="midnightblue" d="M1171.72,-330.62C1157.29,-320.76 1138.62,-307.99 1126.42,-299.65"/>
<polygon fill="midnightblue" stroke="midnightblue" points="1169.83,-333.57 1180.06,-336.32 1173.78,-327.79 1169.83,-333.57"/>
</g>
<!-- Node5 -->
<g id="node5" class="node">
<title>Node5</title>
<g id="a_node5"><a xlink:href="abc_detector_component_8hh.html" target="_top" xlink:title="Provides helper base class abcDetectorComponent for constructing and managing detector components in ...">
<polygon fill="white" stroke="black" points="1199.26,-280.5 1199.26,-299.5 1346.26,-299.5 1346.26,-280.5 1199.26,-280.5"/>
<text text-anchor="middle" x="1272.76" y="-287.5" font-family="Helvetica,sans-Serif" font-size="10.00">abcDetectorComponent.hh</text>
</a>
</g>
</g>
<!-- Node1&#45;&gt;Node5 -->
<g id="edge4" class="edge">
<title>Node1&#45;&gt;Node5</title>
<path fill="none" stroke="midnightblue" d="M1214.06,-330.62C1228.67,-320.76 1247.58,-307.99 1259.94,-299.65"/>
<polygon fill="midnightblue" stroke="midnightblue" points="1211.94,-327.83 1205.61,-336.32 1215.86,-333.63 1211.94,-327.83"/>
</g>
<!-- Node42 -->
<g id="node42" class="node">
<title>Node42</title>
<g id="a_node42"><a xlink:href="supernova_2src_2_o_m_sim_primary_generator_action_8cc.html" target="_top" xlink:title=" ">
<polygon fill="white" stroke="black" points="1364.26,-280.5 1364.26,-299.5 1547.26,-299.5 1547.26,-280.5 1364.26,-280.5"/>
<text text-anchor="middle" x="1455.76" y="-287.5" font-family="Helvetica,sans-Serif" font-size="10.00">OMSimPrimaryGeneratorAction.cc</text>
</a>
</g>
</g>
<!-- Node1&#45;&gt;Node42 -->
<g id="edge80" class="edge">
<title>Node1&#45;&gt;Node42</title>
<path fill="none" stroke="midnightblue" d="M1244.34,-334.41C1294.04,-324.2 1368.29,-308.96 1414.28,-299.52"/>
<polygon fill="midnightblue" stroke="midnightblue" points="1243.52,-331 1234.43,-336.44 1244.93,-337.86 1243.52,-331"/>
</g>
<!-- Node43 -->
<g id="node43" class="node">
<title>Node43</title>
<g id="a_node43"><a xlink:href="_o_m_sim_s_n_particle_generators_8cc.html" target="_top" xlink:title=" ">
<polygon fill="white" stroke="black" points="1565.26,-280.5 1565.26,-299.5 1734.26,-299.5 1734.26,-280.5 1565.26,-280.5"/>
<text text-anchor="middle" x="1649.76" y="-287.5" font-family="Helvetica,sans-Serif" font-size="10.00">OMSimSNParticleGenerators.cc</text>
</a>
</g>
</g>
<!-- Node1&#45;&gt;Node43 -->
<g id="edge81" class="edge">
<title>Node1&#45;&gt;Node43</title>
<path fill="none" stroke="midnightblue" d="M1260.7,-336.97C1345.75,-326.92 1490.77,-309.79 1577.7,-299.51"/>
<polygon fill="midnightblue" stroke="midnightblue" points="1260.16,-333.51 1250.64,-338.16 1260.98,-340.46 1260.16,-333.51"/>
</g>
<!-- Node6 -->
<g id="node6" class="node">
<title>Node6</title>
<g id="a_node6"><a xlink:href="_o_m_sim_d_e_g_g_harness_8hh.html" target="_top" xlink:title="Construction of the DEGG harness.">
<polygon fill="white" stroke="black" points="354.26,-224.5 354.26,-243.5 489.26,-243.5 489.26,-224.5 354.26,-224.5"/>
<text text-anchor="middle" x="421.76" y="-231.5" font-family="Helvetica,sans-Serif" font-size="10.00">OMSimDEGGHarness.hh</text>
</a>
</g>
</g>
<!-- Node5&#45;&gt;Node6 -->
<g id="edge5" class="edge">
<title>Node5&#45;&gt;Node6</title>
<path fill="none" stroke="midnightblue" d="M1188.99,-279.99C883.74,-255.81 804.8,-268.4 503.76,-244 499.05,-243.62 494.19,-243.19 489.3,-242.72"/>
<polygon fill="midnightblue" stroke="midnightblue" points="1188.76,-283.48 1199.01,-280.79 1189.32,-276.5 1188.76,-283.48"/>
</g>
<!-- Node8 -->
<g id="node8" class="node">
<title>Node8</title>
<g id="a_node8"><a xlink:href="_o_m_sim_m_d_o_m_flasher_8hh.html" target="_top" xlink:title="Defines the mDOMFlasher class for simulating the 10 flashers in an mDOM optical module.">
<polygon fill="white" stroke="black" points="1487.26,-224.5 1487.26,-243.5 1622.26,-243.5 1622.26,-224.5 1487.26,-224.5"/>
<text text-anchor="middle" x="1554.76" y="-231.5" font-family="Helvetica,sans-Serif" font-size="10.00">OMSimMDOMFlasher.hh</text>
</a>
</g>
</g>
<!-- Node5&#45;&gt;Node8 -->
<g id="edge7" class="edge">
<title>Node5&#45;&gt;Node8</title>
<path fill="none" stroke="midnightblue" d="M1327.4,-278.54C1380.69,-268.33 1460.76,-253 1510.28,-243.52"/>
<polygon fill="midnightblue" stroke="midnightblue" points="1326.6,-275.13 1317.44,-280.44 1327.92,-282 1326.6,-275.13"/>
</g>
<!-- Node17 -->
<g id="node17" class="node">
<title>Node17</title>
<g id="a_node17"><a xlink:href="_o_m_sim_m_d_o_m_harness_8hh.html" target="_top" xlink:title="Construction of mDOM harness.">
<polygon fill="white" stroke="black" points="1703.76,-112.5 1703.76,-131.5 1843.76,-131.5 1843.76,-112.5 1703.76,-112.5"/>
<text text-anchor="middle" x="1773.76" y="-119.5" font-family="Helvetica,sans-Serif" font-size="10.00">OMSimMDOMHarness.hh</text>
</a>
</g>
</g>
<!-- Node5&#45;&gt;Node17 -->
<g id="edge16" class="edge">
<title>Node5&#45;&gt;Node17</title>
<path fill="none" stroke="midnightblue" d="M1356.5,-279.69C1458.35,-268.18 1618.32,-249.46 1630.76,-244 1692.4,-216.94 1747.85,-154.53 1766.82,-131.63"/>
<polygon fill="midnightblue" stroke="midnightblue" points="1356.08,-276.21 1346.53,-280.81 1356.86,-283.17 1356.08,-276.21"/>
</g>
<!-- Node18 -->
<g id="node18" class="node">
<title>Node18</title>
<g id="a_node18"><a xlink:href="_o_m_sim_optical_module_8hh.html" target="_top" xlink:title=" ">
<polygon fill="white" stroke="black" points="974.26,-168.5 974.26,-187.5 1111.26,-187.5 1111.26,-168.5 974.26,-168.5"/>
<text text-anchor="middle" x="1042.76" y="-175.5" font-family="Helvetica,sans-Serif" font-size="10.00">OMSimOpticalModule.hh</text>
</a>
</g>
</g>
<!-- Node5&#45;&gt;Node18 -->
<g id="edge19" class="edge">
<title>Node5&#45;&gt;Node18</title>
<path fill="none" stroke="midnightblue" d="M1245.62,-276.02C1198.05,-253.27 1100.87,-206.79 1060.72,-187.59"/>
<polygon fill="midnightblue" stroke="midnightblue" points="1244.18,-279.21 1254.71,-280.37 1247.2,-272.9 1244.18,-279.21"/>
</g>
<!-- Node29 -->
<g id="node29" class="node">
<title>Node29</title>
<g id="a_node29"><a xlink:href="_o_m_sim_rad_decays_detector_8hh.html" target="_top" xlink:title="Defines the OMSimRadDecaysDetector class for the radioactive decays simulation.">
<polygon fill="white" stroke="black" points="153.26,-56.5 153.26,-75.5 316.26,-75.5 316.26,-56.5 153.26,-56.5"/>
<text text-anchor="middle" x="234.76" y="-63.5" font-family="Helvetica,sans-Serif" font-size="10.00">OMSimRadDecaysDetector.hh</text>
</a>
</g>
</g>
<!-- Node5&#45;&gt;Node29 -->
<g id="edge79" class="edge">
<title>Node5&#45;&gt;Node29</title>
<path fill="none" stroke="midnightblue" d="M1221.75,-278.31C1101.51,-253.1 790.95,-187.82 531.76,-132 439.14,-112.05 330.38,-88.12 273.66,-75.6"/>
<polygon fill="midnightblue" stroke="midnightblue" points="1221.26,-281.79 1231.77,-280.42 1222.7,-274.94 1221.26,-281.79"/>
</g>
<!-- Node40 -->
<g id="node40" class="node">
<title>Node40</title>
<g id="a_node40"><a xlink:href="_o_m_sim_p_m_t_construction_8hh.html" target="_top" xlink:title="Construction of the PMTs.">
<polygon fill="white" stroke="black" points="1198.26,-224.5 1198.26,-243.5 1347.26,-243.5 1347.26,-224.5 1198.26,-224.5"/>
<text text-anchor="middle" x="1272.76" y="-231.5" font-family="Helvetica,sans-Serif" font-size="10.00">OMSimPMTConstruction.hh</text>
</a>
</g>
</g>
<!-- Node5&#45;&gt;Node40 -->
<g id="edge67" class="edge">
<title>Node5&#45;&gt;Node40</title>
<path fill="none" stroke="midnightblue" d="M1272.76,-269.8C1272.76,-260.91 1272.76,-250.78 1272.76,-243.75"/>
<polygon fill="midnightblue" stroke="midnightblue" points="1269.26,-270.08 1272.76,-280.08 1276.26,-270.08 1269.26,-270.08"/>
</g>
<!-- Node41 -->
<g id="node41" class="node">
<title>Node41</title>
<g id="a_node41"><a xlink:href="abc_detector_component_8cc.html" target="_top" xlink:title=" ">
<polygon fill="white" stroke="black" points="1414.76,-168.5 1414.76,-187.5 1560.76,-187.5 1560.76,-168.5 1414.76,-168.5"/>
<text text-anchor="middle" x="1487.76" y="-175.5" font-family="Helvetica,sans-Serif" font-size="10.00">abcDetectorComponent.cc</text>
</a>
</g>
</g>
<!-- Node5&#45;&gt;Node41 -->
<g id="edge78" class="edge">
<title>Node5&#45;&gt;Node41</title>
<path fill="none" stroke="midnightblue" d="M1302.89,-276.5C1323.16,-267.87 1350.36,-255.85 1373.76,-244 1410.55,-225.37 1452.3,-200.59 1473.61,-187.67"/>
<polygon fill="midnightblue" stroke="midnightblue" points="1301.39,-273.34 1293.54,-280.45 1304.11,-279.78 1301.39,-273.34"/>
</g>
<!-- Node7 -->
<g id="node7" class="node">
<title>Node7</title>
<g id="a_node7"><a xlink:href="_o_m_sim_d_e_g_g_harness_8cc.html" target="_top" xlink:title=" ">
<polygon fill="white" stroke="black" points="354.76,-168.5 354.76,-187.5 488.76,-187.5 488.76,-168.5 354.76,-168.5"/>
<text text-anchor="middle" x="421.76" y="-175.5" font-family="Helvetica,sans-Serif" font-size="10.00">OMSimDEGGHarness.cc</text>
</a>
</g>
</g>
<!-- Node6&#45;&gt;Node7 -->
<g id="edge6" class="edge">
<title>Node6&#45;&gt;Node7</title>
<path fill="none" stroke="midnightblue" d="M421.76,-213.8C421.76,-204.91 421.76,-194.78 421.76,-187.75"/>
<polygon fill="midnightblue" stroke="midnightblue" points="418.26,-214.08 421.76,-224.08 425.26,-214.08 418.26,-214.08"/>
</g>
<!-- Node9 -->
<g id="node9" class="node">
<title>Node9</title>
<g id="a_node9"><a xlink:href="_o_m_sim_m_d_o_m_8hh.html" target="_top" xlink:title="Construction of mDOM.">
<polygon fill="white" stroke="black" points="1528.76,-112.5 1528.76,-131.5 1628.76,-131.5 1628.76,-112.5 1528.76,-112.5"/>
<text text-anchor="middle" x="1578.76" y="-119.5" font-family="Helvetica,sans-Serif" font-size="10.00">OMSimMDOM.hh</text>
</a>
</g>
</g>
<!-- Node8&#45;&gt;Node9 -->
<g id="edge8" class="edge">
<title>Node8&#45;&gt;Node9</title>
<path fill="none" stroke="midnightblue" d="M1561.72,-214.67C1564.57,-206.59 1567.67,-196.92 1569.76,-188 1574.43,-168.03 1576.98,-144.01 1578.08,-131.51"/>
<polygon fill="midnightblue" stroke="midnightblue" points="1558.39,-213.58 1558.24,-224.17 1564.96,-215.99 1558.39,-213.58"/>
</g>
<!-- Node10 -->
<g id="node10" class="node">
<title>Node10</title>
<g id="a_node10"><a xlink:href="_o_m_sim_detector_construction_8cc.html" target="_top" xlink:title=" ">
<polygon fill="white" stroke="black" points="1536.26,-0.5 1536.26,-19.5 1705.26,-19.5 1705.26,-0.5 1536.26,-0.5"/>
<text text-anchor="middle" x="1620.76" y="-7.5" font-family="Helvetica,sans-Serif" font-size="10.00">OMSimDetectorConstruction.cc</text>
</a>
</g>
</g>
<!-- Node9&#45;&gt;Node10 -->
<g id="edge9" class="edge">
<title>Node9&#45;&gt;Node10</title>
<path fill="none" stroke="midnightblue" d="M1632.42,-109.08C1649.91,-102.38 1667.45,-92.01 1677.76,-76 1692.06,-53.79 1659.75,-31.4 1638.17,-19.57"/>
<polygon fill="midnightblue" stroke="midnightblue" points="1631.06,-105.85 1622.76,-112.44 1633.36,-112.46 1631.06,-105.85"/>
</g>
<!-- Node11 -->
<g id="node11" class="node">
<title>Node11</title>
<g id="a_node11"><a xlink:href="_o_m_sim_m_d_o_m_8cc.html" target="_top" xlink:title=" ">
<polygon fill="white" stroke="black" points="1724.76,-56.5 1724.76,-75.5 1822.76,-75.5 1822.76,-56.5 1724.76,-56.5"/>
<text text-anchor="middle" x="1773.76" y="-63.5" font-family="Helvetica,sans-Serif" font-size="10.00">OMSimMDOM.cc</text>
</a>
</g>
</g>
<!-- Node9&#45;&gt;Node11 -->
<g id="edge10" class="edge">
<title>Node9&#45;&gt;Node11</title>
<path fill="none" stroke="midnightblue" d="M1619.57,-109.7C1656.37,-99.51 1709.69,-84.74 1743,-75.52"/>
<polygon fill="midnightblue" stroke="midnightblue" points="1618.36,-106.4 1609.66,-112.44 1620.23,-113.15 1618.36,-106.4"/>
</g>
<!-- Node12 -->
<g id="node12" class="node">
<title>Node12</title>
<g id="a_node12"><a xlink:href="_o_m_sim_m_d_o_m_flasher_8cc.html" target="_top" xlink:title=" ">
<polygon fill="white" stroke="black" points="1534.76,-56.5 1534.76,-75.5 1668.76,-75.5 1668.76,-56.5 1534.76,-56.5"/>
<text text-anchor="middle" x="1601.76" y="-63.5" font-family="Helvetica,sans-Serif" font-size="10.00">OMSimMDOMFlasher.cc</text>
</a>
</g>
</g>
<!-- Node9&#45;&gt;Node12 -->
<g id="edge11" class="edge">
<title>Node9&#45;&gt;Node12</title>
<path fill="none" stroke="midnightblue" d="M1586.56,-102.69C1590.43,-93.59 1594.94,-83.01 1598.03,-75.75"/>
<polygon fill="midnightblue" stroke="midnightblue" points="1583.25,-101.51 1582.55,-112.08 1589.69,-104.25 1583.25,-101.51"/>
</g>
<!-- Node13 -->
<g id="node13" class="node">
<title>Node13</title>
<g id="a_node13"><a xlink:href="_o_m_sim_m_d_o_m_harness_8cc.html" target="_top" xlink:title=" ">
<polygon fill="white" stroke="black" points="1840.76,-56.5 1840.76,-75.5 1978.76,-75.5 1978.76,-56.5 1840.76,-56.5"/>
<text text-anchor="middle" x="1909.76" y="-63.5" font-family="Helvetica,sans-Serif" font-size="10.00">OMSimMDOMHarness.cc</text>
</a>
</g>
</g>
<!-- Node9&#45;&gt;Node13 -->
<g id="edge12" class="edge">
<title>Node9&#45;&gt;Node13</title>
<path fill="none" stroke="midnightblue" d="M1639.14,-111.15C1701.67,-100.95 1798.35,-85.17 1857.64,-75.5"/>
<polygon fill="midnightblue" stroke="midnightblue" points="1638.33,-107.73 1629.03,-112.8 1639.46,-114.64 1638.33,-107.73"/>
</g>
<!-- Node14 -->
<g id="node14" class="node">
<title>Node14</title>
<g id="a_node14"><a xlink:href="_o_m_sim_effective_area_detector_8cc.html" target="_top" xlink:title=" ">
<polygon fill="white" stroke="black" points="1228.76,-0.5 1228.76,-19.5 1400.76,-19.5 1400.76,-0.5 1228.76,-0.5"/>
<text text-anchor="middle" x="1314.76" y="-7.5" font-family="Helvetica,sans-Serif" font-size="10.00">OMSimEffectiveAreaDetector.cc</text>
</a>
</g>
</g>
<!-- Node9&#45;&gt;Node14 -->
<g id="edge13" class="edge">
<title>Node9&#45;&gt;Node14</title>
<path fill="none" stroke="midnightblue" d="M1560.64,-106C1542.12,-91.34 1512,-69.36 1482.76,-56 1444.3,-38.44 1397.67,-26.63 1363.29,-19.53"/>
<polygon fill="midnightblue" stroke="midnightblue" points="1558.53,-108.8 1568.52,-112.34 1562.92,-103.34 1558.53,-108.8"/>
</g>
<!-- Node15 -->
<g id="node15" class="node">
<title>Node15</title>
<g id="a_node15"><a xlink:href="_o_m_sim_rad_decays_detector_8cc.html" target="_top" xlink:title=" ">
<polygon fill="white" stroke="black" points="795.26,-0.5 795.26,-19.5 956.26,-19.5 956.26,-0.5 795.26,-0.5"/>
<text text-anchor="middle" x="875.76" y="-7.5" font-family="Helvetica,sans-Serif" font-size="10.00">OMSimRadDecaysDetector.cc</text>
</a>
</g>
</g>
<!-- Node9&#45;&gt;Node15 -->
<g id="edge14" class="edge">
<title>Node9&#45;&gt;Node15</title>
<path fill="none" stroke="midnightblue" d="M1518.47,-119.05C1370.08,-113.93 995.45,-98.88 943.76,-76 915.68,-63.57 892.17,-34.34 881.66,-19.69"/>
<polygon fill="midnightblue" stroke="midnightblue" points="1518.64,-122.56 1528.75,-119.4 1518.88,-115.57 1518.64,-122.56"/>
</g>
<!-- Node16 -->
<g id="node16" class="node">
<title>Node16</title>
<g id="a_node16"><a xlink:href="_o_m_sim_s_ndetector_8cc.html" target="_top" xlink:title=" ">
<polygon fill="white" stroke="black" points="1091.26,-0.5 1091.26,-19.5 1210.26,-19.5 1210.26,-0.5 1091.26,-0.5"/>
<text text-anchor="middle" x="1150.76" y="-7.5" font-family="Helvetica,sans-Serif" font-size="10.00">OMSimSNdetector.cc</text>
</a>
</g>
</g>
<!-- Node9&#45;&gt;Node16 -->
<g id="edge15" class="edge">
<title>Node9&#45;&gt;Node16</title>
<path fill="none" stroke="midnightblue" d="M1549.86,-108.3C1530.62,-99.65 1504.91,-87.67 1482.76,-76 1467.25,-67.83 1465.28,-61.86 1448.76,-56 1426.78,-48.21 1290.93,-29.45 1210.44,-18.77"/>
<polygon fill="midnightblue" stroke="midnightblue" points="1548.45,-111.51 1559,-112.39 1551.3,-105.12 1548.45,-111.51"/>
</g>
<!-- Node17&#45;&gt;Node11 -->
<g id="edge17" class="edge">
<title>Node17&#45;&gt;Node11</title>
<path fill="none" stroke="midnightblue" d="M1773.76,-101.8C1773.76,-92.91 1773.76,-82.78 1773.76,-75.75"/>
<polygon fill="midnightblue" stroke="midnightblue" points="1770.26,-102.08 1773.76,-112.08 1777.26,-102.08 1770.26,-102.08"/>
</g>
<!-- Node17&#45;&gt;Node13 -->
<g id="edge18" class="edge">
<title>Node17&#45;&gt;Node13</title>
<path fill="none" stroke="midnightblue" d="M1804.89,-108.64C1830.41,-98.5 1865.87,-84.43 1888.31,-75.52"/>
<polygon fill="midnightblue" stroke="midnightblue" points="1803.31,-105.5 1795.31,-112.44 1805.89,-112.01 1803.31,-105.5"/>
</g>
<!-- Node18&#45;&gt;Node9 -->
<g id="edge55" class="edge">
<title>Node18&#45;&gt;Node9</title>
<path fill="none" stroke="midnightblue" d="M1121.67,-169.05C1233.62,-157.77 1435.28,-137.45 1528.72,-128.04"/>
<polygon fill="midnightblue" stroke="midnightblue" points="1121.06,-165.59 1111.46,-170.08 1121.76,-172.56 1121.06,-165.59"/>
</g>
<!-- Node19 -->
<g id="node19" class="node">
<title>Node19</title>
<g id="a_node19"><a xlink:href="_o_m_sim_d_e_g_g_8hh.html" target="_top" xlink:title="Construction of the DEGG class.">
<polygon fill="white" stroke="black" points="953.26,-56.5 953.26,-75.5 1048.26,-75.5 1048.26,-56.5 953.26,-56.5"/>
<text text-anchor="middle" x="1000.76" y="-63.5" font-family="Helvetica,sans-Serif" font-size="10.00">OMSimDEGG.hh</text>
</a>
</g>
</g>
<!-- Node18&#45;&gt;Node19 -->
<g id="edge20" class="edge">
<title>Node18&#45;&gt;Node19</title>
<path fill="none" stroke="midnightblue" d="M1018.39,-162.73C1007.81,-155.09 996.53,-144.64 990.76,-132 982.21,-113.31 990.63,-88.77 996.38,-75.84"/>
<polygon fill="midnightblue" stroke="midnightblue" points="1016.71,-165.82 1026.97,-168.47 1020.61,-160 1016.71,-165.82"/>
</g>
<!-- Node21 -->
<g id="node21" class="node">
<title>Node21</title>
<g id="a_node21"><a xlink:href="_o_m_sim_detector_construction_8hh.html" target="_top" xlink:title=" ">
<polygon fill="white" stroke="black" points="583.76,-112.5 583.76,-131.5 753.76,-131.5 753.76,-112.5 583.76,-112.5"/>
<text text-anchor="middle" x="668.76" y="-119.5" font-family="Helvetica,sans-Serif" font-size="10.00">OMSimDetectorConstruction.hh</text>
</a>
</g>
</g>
<!-- Node18&#45;&gt;Node21 -->
<g id="edge26" class="edge">
<title>Node18&#45;&gt;Node21</title>
<path fill="none" stroke="midnightblue" d="M973.35,-166.98C902.71,-156.78 794.37,-141.14 727.74,-131.52"/>
<polygon fill="midnightblue" stroke="midnightblue" points="973.1,-170.48 983.5,-168.44 974.1,-163.55 973.1,-170.48"/>
</g>
<!-- Node18&#45;&gt;Node29 -->
<g id="edge66" class="edge">
<title>Node18&#45;&gt;Node29</title>
<path fill="none" stroke="midnightblue" d="M964.01,-177.49C869.82,-176.25 708.13,-168.28 574.76,-132 554.42,-126.47 551.94,-118.08 531.76,-112 490.88,-99.67 380.78,-84.7 306.74,-75.52"/>
<polygon fill="midnightblue" stroke="midnightblue" points="964,-180.99 974.04,-177.6 964.07,-173.99 964,-180.99"/>
</g>
<!-- Node31 -->
<g id="node31" class="node">
<title>Node31</title>
<g id="a_node31"><a xlink:href="_o_m_sim_l_o_m16_8hh.html" target="_top" xlink:title="Construction of LOM16.">
<polygon fill="white" stroke="black" points="1185.26,-56.5 1185.26,-75.5 1286.26,-75.5 1286.26,-56.5 1185.26,-56.5"/>
<text text-anchor="middle" x="1235.76" y="-63.5" font-family="Helvetica,sans-Serif" font-size="10.00">OMSimLOM16.hh</text>
</a>
</g>
</g>
<!-- Node18&#45;&gt;Node31 -->
<g id="edge43" class="edge">
<title>Node18&#45;&gt;Node31</title>
<path fill="none" stroke="midnightblue" d="M1044.93,-158.52C1047.61,-143.9 1053.57,-124 1066.76,-112 1084.04,-96.26 1141.69,-83.17 1184.88,-75.24"/>
<polygon fill="midnightblue" stroke="midnightblue" points="1041.46,-158.05 1043.45,-168.46 1048.38,-159.08 1041.46,-158.05"/>
</g>
<!-- Node33 -->
<g id="node33" class="node">
<title>Node33</title>
<g id="a_node33"><a xlink:href="_o_m_sim_l_o_m18_8hh.html" target="_top" xlink:title="Construction of LOM18.">
<polygon fill="white" stroke="black" points="1066.26,-56.5 1066.26,-75.5 1167.26,-75.5 1167.26,-56.5 1066.26,-56.5"/>
<text text-anchor="middle" x="1116.76" y="-63.5" font-family="Helvetica,sans-Serif" font-size="10.00">OMSimLOM18.hh</text>
</a>
</g>
</g>
<!-- Node18&#45;&gt;Node33 -->
<g id="edge49" class="edge">
<title>Node18&#45;&gt;Node33</title>
<path fill="none" stroke="midnightblue" d="M1032.41,-159.4C1025.79,-145.62 1019.93,-126.42 1028.76,-112 1040.13,-93.41 1061.88,-82.19 1080.9,-75.6"/>
<polygon fill="midnightblue" stroke="midnightblue" points="1029.38,-161.16 1037.18,-168.34 1035.56,-157.87 1029.38,-161.16"/>
</g>
<!-- Node35 -->
<g id="node35" class="node">
<title>Node35</title>
<g id="a_node35"><a xlink:href="_o_m_sim_p_d_o_m_8hh.html" target="_top" xlink:title="Implementation of the pDOM/Gen1 DOM class.">
<polygon fill="white" stroke="black" points="1343.26,-56.5 1343.26,-75.5 1440.26,-75.5 1440.26,-56.5 1343.26,-56.5"/>
<text text-anchor="middle" x="1391.76" y="-63.5" font-family="Helvetica,sans-Serif" font-size="10.00">OMSimPDOM.hh</text>
</a>
</g>
</g>
<!-- Node18&#45;&gt;Node35 -->
<g id="edge56" class="edge">
<title>Node18&#45;&gt;Node35</title>
<path fill="none" stroke="midnightblue" d="M1053.04,-159.57C1062.98,-144.39 1079.49,-123.12 1099.76,-112 1105.06,-109.09 1261.28,-86.01 1342.99,-74.08"/>
<polygon fill="midnightblue" stroke="midnightblue" points="1050.04,-157.75 1047.72,-168.09 1055.98,-161.46 1050.04,-157.75"/>
</g>
<!-- Node37 -->
<g id="node37" class="node">
<title>Node37</title>
<g id="a_node37"><a xlink:href="_o_m_sim_optical_module_8cc.html" target="_top" xlink:title=" ">
<polygon fill="white" stroke="black" points="1108.76,-112.5 1108.76,-131.5 1244.76,-131.5 1244.76,-112.5 1108.76,-112.5"/>
<text text-anchor="middle" x="1176.76" y="-119.5" font-family="Helvetica,sans-Serif" font-size="10.00">OMSimOpticalModule.cc</text>
</a>
</g>
</g>
<!-- Node18&#45;&gt;Node37 -->
<g id="edge62" class="edge">
<title>Node18&#45;&gt;Node37</title>
<path fill="none" stroke="midnightblue" d="M1073.43,-164.64C1098.58,-154.5 1133.51,-140.43 1155.62,-131.52"/>
<polygon fill="midnightblue" stroke="midnightblue" points="1071.96,-161.46 1063.99,-168.44 1074.57,-167.95 1071.96,-161.46"/>
</g>
<!-- Node38 -->
<g id="node38" class="node">
<title>Node38</title>
<g id="a_node38"><a xlink:href="_o_m_sim_decays_g_p_s_8hh.html" target="_top" xlink:title="Defines the IsotopeDecays class for the radioactive decays simulation.">
<polygon fill="white" stroke="black" points="13.76,-112.5 13.76,-131.5 135.76,-131.5 135.76,-112.5 13.76,-112.5"/>
<text text-anchor="middle" x="74.76" y="-119.5" font-family="Helvetica,sans-Serif" font-size="10.00">OMSimDecaysGPS.hh</text>
</a>
</g>
</g>
<!-- Node18&#45;&gt;Node38 -->
<g id="edge63" class="edge">
<title>Node18&#45;&gt;Node38</title>
<path fill="none" stroke="midnightblue" d="M963.83,-172.6C775.82,-162.11 304.63,-135.82 135.99,-126.42"/>
<polygon fill="midnightblue" stroke="midnightblue" points="963.74,-176.1 973.92,-173.16 964.13,-169.11 963.74,-176.1"/>
</g>
<!-- Node19&#45;&gt;Node10 -->
<g id="edge22" class="edge">
<title>Node19&#45;&gt;Node10</title>
<path fill="none" stroke="midnightblue" d="M1058.4,-55.89C1266.5,-31.56 1321.29,-37.7 1526.76,-20 1529.86,-19.73 1533.02,-19.46 1536.21,-19.17"/>
<polygon fill="midnightblue" stroke="midnightblue" points="1057.9,-52.42 1048.38,-57.07 1058.72,-59.38 1057.9,-52.42"/>
</g>
<!-- Node19&#45;&gt;Node14 -->
<g id="edge23" class="edge">
<title>Node19&#45;&gt;Node14</title>
<path fill="none" stroke="midnightblue" d="M1058.41,-55.09C1117.74,-44.88 1209.19,-29.15 1265.32,-19.5"/>
<polygon fill="midnightblue" stroke="midnightblue" points="1057.71,-51.65 1048.45,-56.8 1058.9,-58.55 1057.71,-51.65"/>
</g>
<!-- Node19&#45;&gt;Node15 -->
<g id="edge24" class="edge">
<title>Node19&#45;&gt;Node15</title>
<path fill="none" stroke="midnightblue" d="M971.52,-52.37C948.11,-42.26 915.92,-28.35 895.47,-19.52"/>
<polygon fill="midnightblue" stroke="midnightblue" points="970.38,-55.69 980.95,-56.44 973.16,-49.26 970.38,-55.69"/>
</g>
<!-- Node19&#45;&gt;Node16 -->
<g id="edge25" class="edge">
<title>Node19&#45;&gt;Node16</title>
<path fill="none" stroke="midnightblue" d="M1033.98,-53.04C1062.21,-42.88 1102.02,-28.55 1127.1,-19.52"/>
<polygon fill="midnightblue" stroke="midnightblue" points="1032.75,-49.76 1024.52,-56.44 1035.12,-56.35 1032.75,-49.76"/>
</g>
<!-- Node20 -->
<g id="node20" class="node">
<title>Node20</title>
<g id="a_node20"><a xlink:href="_o_m_sim_d_e_g_g_8cc.html" target="_top" xlink:title=" ">
<polygon fill="white" stroke="black" points="682.76,-0.5 682.76,-19.5 776.76,-19.5 776.76,-0.5 682.76,-0.5"/>
<text text-anchor="middle" x="729.76" y="-7.5" font-family="Helvetica,sans-Serif" font-size="10.00">OMSimDEGG.cc</text>
</a>
</g>
</g>
<!-- Node19&#45;&gt;Node20 -->
<g id="edge21" class="edge">
<title>Node19&#45;&gt;Node20</title>
<path fill="none" stroke="midnightblue" d="M947.93,-54.47C896.71,-44.27 819.99,-28.98 772.5,-19.52"/>
<polygon fill="midnightblue" stroke="midnightblue" points="947.32,-57.92 957.82,-56.44 948.69,-51.06 947.32,-57.92"/>
</g>
<!-- Node21&#45;&gt;Node10 -->
<g id="edge32" class="edge">
<title>Node21&#45;&gt;Node10</title>
<path fill="none" stroke="midnightblue" d="M764.11,-118.8C914,-114.56 1197.7,-103.16 1294.76,-76 1313.52,-70.75 1315.23,-62.03 1333.76,-56 1372.78,-43.3 1478.18,-28.56 1549.79,-19.51"/>
<polygon fill="midnightblue" stroke="midnightblue" points="763.89,-115.31 753.99,-119.08 764.08,-122.3 763.89,-115.31"/>
</g>
<!-- Node22 -->
<g id="node22" class="node">
<title>Node22</title>
<g id="a_node22"><a xlink:href="_o_m_sim_8hh.html" target="_top" xlink:title="Main simulation class for the Optical Module (OM) simulation. This file defines the OMSim class,...">
<polygon fill="white" stroke="black" points="334.26,-56.5 334.26,-75.5 401.26,-75.5 401.26,-56.5 334.26,-56.5"/>
<text text-anchor="middle" x="367.76" y="-63.5" font-family="Helvetica,sans-Serif" font-size="10.00">OMSim.hh</text>
</a>
</g>
</g>
<!-- Node21&#45;&gt;Node22 -->
<g id="edge27" class="edge">
<title>Node21&#45;&gt;Node22</title>
<path fill="none" stroke="midnightblue" d="M606.65,-110.77C554.32,-102.01 477.53,-88.81 410.76,-76 407.76,-75.43 404.65,-74.81 401.54,-74.18"/>
<polygon fill="midnightblue" stroke="midnightblue" points="606.34,-114.27 616.78,-112.46 607.49,-107.36 606.34,-114.27"/>
</g>
<!-- Node27 -->
<g id="node27" class="node">
<title>Node27</title>
<g id="a_node27"><a xlink:href="_o_m_sim_p_m_t_construction_8cc.html" target="_top" xlink:title=" ">
<polygon fill="white" stroke="black" points="749.26,-56.5 749.26,-75.5 896.26,-75.5 896.26,-56.5 749.26,-56.5"/>
<text text-anchor="middle" x="822.76" y="-63.5" font-family="Helvetica,sans-Serif" font-size="10.00">OMSimPMTConstruction.cc</text>
</a>
</g>
</g>
<!-- Node21&#45;&gt;Node27 -->
<g id="edge33" class="edge">
<title>Node21&#45;&gt;Node27</title>
<path fill="none" stroke="midnightblue" d="M702.87,-109.04C731.84,-98.88 772.72,-84.55 798.47,-75.52"/>
<polygon fill="midnightblue" stroke="midnightblue" points="701.44,-105.83 693.16,-112.44 703.75,-112.44 701.44,-105.83"/>
</g>
<!-- Node28 -->
<g id="node28" class="node">
<title>Node28</title>
<g id="a_node28"><a xlink:href="_o_m_sim_effective_area_detector_8hh.html" target="_top" xlink:title="Defines the OMSimEffectiveAreaDetector class for effective area simulation detector construction.">
<polygon fill="white" stroke="black" points="558.26,-56.5 558.26,-75.5 731.26,-75.5 731.26,-56.5 558.26,-56.5"/>
<text text-anchor="middle" x="644.76" y="-63.5" font-family="Helvetica,sans-Serif" font-size="10.00">OMSimEffectiveAreaDetector.hh</text>
</a>
</g>
</g>
<!-- Node21&#45;&gt;Node28 -->
<g id="edge34" class="edge">
<title>Node21&#45;&gt;Node28</title>
<path fill="none" stroke="midnightblue" d="M660.62,-102.69C656.57,-93.59 651.87,-83.01 648.65,-75.75"/>
<polygon fill="midnightblue" stroke="midnightblue" points="657.53,-104.37 664.79,-112.08 663.93,-101.52 657.53,-104.37"/>
</g>
<!-- Node21&#45;&gt;Node29 -->
<g id="edge37" class="edge">
<title>Node21&#45;&gt;Node29</title>
<path fill="none" stroke="midnightblue" d="M589.98,-111.2C508.05,-101 381.08,-85.21 303.2,-75.52"/>
<polygon fill="midnightblue" stroke="midnightblue" points="589.63,-114.68 599.99,-112.44 590.5,-107.74 589.63,-114.68"/>
</g>
<!-- Node30 -->
<g id="node30" class="node">
<title>Node30</title>
<g id="a_node30"><a xlink:href="_o_m_sim_s_ndetector_8hh.html" target="_top" xlink:title=" ">
<polygon fill="white" stroke="black" points="419.76,-56.5 419.76,-75.5 539.76,-75.5 539.76,-56.5 419.76,-56.5"/>
<text text-anchor="middle" x="479.76" y="-63.5" font-family="Helvetica,sans-Serif" font-size="10.00">OMSimSNdetector.hh</text>
</a>
</g>
</g>
<!-- Node21&#45;&gt;Node30 -->
<g id="edge40" class="edge">
<title>Node21&#45;&gt;Node30</title>
<path fill="none" stroke="midnightblue" d="M628.74,-109.57C593.09,-99.38 541.72,-84.7 509.56,-75.52"/>
<polygon fill="midnightblue" stroke="midnightblue" points="628.23,-113.06 638.81,-112.44 630.16,-106.33 628.23,-113.06"/>
</g>
<!-- Node23 -->
<g id="node23" class="node">
<title>Node23</title>
<g id="a_node23"><a xlink:href="_o_m_sim_8cc.html" target="_top" xlink:title="Implementation of the OMSim class.">
<polygon fill="white" stroke="black" points="301.26,-0.5 301.26,-19.5 366.26,-19.5 366.26,-0.5 301.26,-0.5"/>
<text text-anchor="middle" x="333.76" y="-7.5" font-family="Helvetica,sans-Serif" font-size="10.00">OMSim.cc</text>
</a>
</g>
</g>
<!-- Node22&#45;&gt;Node23 -->
<g id="edge28" class="edge">
<title>Node22&#45;&gt;Node23</title>
<path fill="none" stroke="midnightblue" d="M356.78,-47.57C350.93,-38.27 343.99,-27.25 339.27,-19.75"/>
<polygon fill="midnightblue" stroke="midnightblue" points="353.85,-49.49 362.14,-56.08 359.78,-45.76 353.85,-49.49"/>
</g>
<!-- Node24 -->
<g id="node24" class="node">
<title>Node24</title>
<g id="a_node24"><a xlink:href="_o_m_sim__effective__area_8cc.html" target="_top" xlink:title="Main for the calculation of effective areas.">
<polygon fill="white" stroke="black" points="524.76,-0.5 524.76,-19.5 664.76,-19.5 664.76,-0.5 524.76,-0.5"/>
<text text-anchor="middle" x="594.76" y="-7.5" font-family="Helvetica,sans-Serif" font-size="10.00">OMSim_effective_area.cc</text>
</a>
</g>
</g>
<!-- Node22&#45;&gt;Node24 -->
<g id="edge29" class="edge">
<title>Node22&#45;&gt;Node24</title>
<path fill="none" stroke="midnightblue" d="M411.59,-54.57C454.39,-44.39 518.73,-29.09 558.66,-19.59"/>
<polygon fill="midnightblue" stroke="midnightblue" points="410.66,-51.2 401.74,-56.92 412.28,-58.01 410.66,-51.2"/>
</g>
<!-- Node25 -->
<g id="node25" class="node">
<title>Node25</title>
<g id="a_node25"><a xlink:href="_o_m_sim__radioactive__decays_8cc.html" target="_top" xlink:title="Main of the radioactive decay study.">
<polygon fill="white" stroke="black" points="118.26,-0.5 118.26,-19.5 283.26,-19.5 283.26,-0.5 118.26,-0.5"/>
<text text-anchor="middle" x="200.76" y="-7.5" font-family="Helvetica,sans-Serif" font-size="10.00">OMSim_radioactive_decays.cc</text>
</a>
</g>
</g>
<!-- Node22&#45;&gt;Node25 -->
<g id="edge30" class="edge">
<title>Node22&#45;&gt;Node25</title>
<path fill="none" stroke="midnightblue" d="M331.59,-53.3C300.12,-43.13 255.26,-28.62 227.09,-19.52"/>
<polygon fill="midnightblue" stroke="midnightblue" points="330.7,-56.7 341.3,-56.44 332.86,-50.04 330.7,-56.7"/>
</g>
<!-- Node26 -->
<g id="node26" class="node">
<title>Node26</title>
<g id="a_node26"><a xlink:href="_o_m_sim__supernova_8cc.html" target="_top" xlink:title="Main of the supernova study.">
<polygon fill="white" stroke="black" points="384.76,-0.5 384.76,-19.5 506.76,-19.5 506.76,-0.5 384.76,-0.5"/>
<text text-anchor="middle" x="445.76" y="-7.5" font-family="Helvetica,sans-Serif" font-size="10.00">OMSim_supernova.cc</text>
</a>
</g>
</g>
<!-- Node22&#45;&gt;Node26 -->
<g id="edge31" class="edge">
<title>Node22&#45;&gt;Node26</title>
<path fill="none" stroke="midnightblue" d="M388.52,-50.62C402.77,-40.76 421.21,-27.99 433.26,-19.65"/>
<polygon fill="midnightblue" stroke="midnightblue" points="386.52,-47.75 380.29,-56.32 390.5,-53.51 386.52,-47.75"/>
</g>
<!-- Node28&#45;&gt;Node14 -->
<g id="edge36" class="edge">
<title>Node28&#45;&gt;Node14</title>
<path fill="none" stroke="midnightblue" d="M741.71,-55.85C954.19,-37.93 1009.35,-37.68 1218.76,-20 1222.01,-19.73 1225.32,-19.44 1228.67,-19.15"/>
<polygon fill="midnightblue" stroke="midnightblue" points="741.14,-52.38 731.47,-56.71 741.73,-59.36 741.14,-52.38"/>
</g>
<!-- Node28&#45;&gt;Node24 -->
<g id="edge35" class="edge">
<title>Node28&#45;&gt;Node24</title>
<path fill="none" stroke="midnightblue" d="M629.68,-48.72C620.87,-39.2 610.09,-27.56 602.86,-19.75"/>
<polygon fill="midnightblue" stroke="midnightblue" points="627.14,-51.12 636.5,-56.08 632.27,-46.37 627.14,-51.12"/>
</g>
<!-- Node29&#45;&gt;Node15 -->
<g id="edge39" class="edge">
<title>Node29&#45;&gt;Node15</title>
<path fill="none" stroke="midnightblue" d="M326.83,-55.83C531.16,-37.78 584.35,-37.93 785.76,-20 788.73,-19.74 791.76,-19.46 794.81,-19.18"/>
<polygon fill="midnightblue" stroke="midnightblue" points="326.32,-52.36 316.67,-56.73 326.94,-59.34 326.32,-52.36"/>
</g>
<!-- Node29&#45;&gt;Node25 -->
<g id="edge38" class="edge">
<title>Node29&#45;&gt;Node25</title>
<path fill="none" stroke="midnightblue" d="M223.78,-47.57C217.93,-38.27 210.99,-27.25 206.27,-19.75"/>
<polygon fill="midnightblue" stroke="midnightblue" points="220.85,-49.49 229.14,-56.08 226.78,-45.76 220.85,-49.49"/>
</g>
<!-- Node30&#45;&gt;Node16 -->
<g id="edge42" class="edge">
<title>Node30&#45;&gt;Node16</title>
<path fill="none" stroke="midnightblue" d="M550.24,-55.91C786.78,-32.93 848.83,-43.03 1081.76,-20 1084.76,-19.7 1087.84,-19.38 1090.94,-19.03"/>
<polygon fill="midnightblue" stroke="midnightblue" points="549.55,-52.47 539.94,-56.93 550.24,-59.43 549.55,-52.47"/>
</g>
<!-- Node30&#45;&gt;Node26 -->
<g id="edge41" class="edge">
<title>Node30&#45;&gt;Node26</title>
<path fill="none" stroke="midnightblue" d="M468.78,-47.57C462.93,-38.27 455.99,-27.25 451.27,-19.75"/>
<polygon fill="midnightblue" stroke="midnightblue" points="465.85,-49.49 474.14,-56.08 471.78,-45.76 465.85,-49.49"/>
</g>
<!-- Node31&#45;&gt;Node10 -->
<g id="edge44" class="edge">
<title>Node31&#45;&gt;Node10</title>
<path fill="none" stroke="midnightblue" d="M1296.77,-56.44C1368.88,-46.33 1488.12,-29.6 1560.08,-19.51"/>
<polygon fill="midnightblue" stroke="midnightblue" points="1295.9,-53.03 1286.48,-57.88 1296.87,-59.96 1295.9,-53.03"/>
</g>
<!-- Node31&#45;&gt;Node14 -->
<g id="edge46" class="edge">
<title>Node31&#45;&gt;Node14</title>
<path fill="none" stroke="midnightblue" d="M1256.79,-50.62C1271.22,-40.76 1289.9,-27.99 1302.1,-19.65"/>
<polygon fill="midnightblue" stroke="midnightblue" points="1254.73,-47.79 1248.45,-56.32 1258.68,-53.57 1254.73,-47.79"/>
</g>
<!-- Node31&#45;&gt;Node15 -->
<g id="edge47" class="edge">
<title>Node31&#45;&gt;Node15</title>
<path fill="none" stroke="midnightblue" d="M1174.84,-55.86C1107.11,-45.7 998.57,-29.42 932.54,-19.52"/>
<polygon fill="midnightblue" stroke="midnightblue" points="1174.53,-59.36 1184.94,-57.38 1175.57,-52.43 1174.53,-59.36"/>
</g>
<!-- Node31&#45;&gt;Node16 -->
<g id="edge48" class="edge">
<title>Node31&#45;&gt;Node16</title>
<path fill="none" stroke="midnightblue" d="M1213.56,-50.9C1197.98,-41 1177.63,-28.07 1164.38,-19.65"/>
<polygon fill="midnightblue" stroke="midnightblue" points="1211.78,-53.92 1222.1,-56.32 1215.54,-48.01 1211.78,-53.92"/>
</g>
<!-- Node32 -->
<g id="node32" class="node">
<title>Node32</title>
<g id="a_node32"><a xlink:href="_o_m_sim_l_o_m16_8cc.html" target="_top" xlink:title=" ">
<polygon fill="white" stroke="black" points="1419.26,-0.5 1419.26,-19.5 1518.26,-19.5 1518.26,-0.5 1419.26,-0.5"/>
<text text-anchor="middle" x="1468.76" y="-7.5" font-family="Helvetica,sans-Serif" font-size="10.00">OMSimLOM16.cc</text>
</a>
</g>
</g>
<!-- Node31&#45;&gt;Node32 -->
<g id="edge45" class="edge">
<title>Node31&#45;&gt;Node32</title>
<path fill="none" stroke="midnightblue" d="M1282.56,-54.15C1326.58,-43.95 1391.6,-28.88 1432.01,-19.52"/>
<polygon fill="midnightblue" stroke="midnightblue" points="1281.63,-50.78 1272.68,-56.44 1283.21,-57.6 1281.63,-50.78"/>
</g>
<!-- Node33&#45;&gt;Node10 -->
<g id="edge50" class="edge">
<title>Node33&#45;&gt;Node10</title>
<path fill="none" stroke="midnightblue" d="M1177.22,-55.92C1235.93,-49.07 1424.36,-30.35 1536.05,-19.33"/>
<polygon fill="midnightblue" stroke="midnightblue" points="1176.77,-52.45 1167.26,-57.12 1177.61,-59.4 1176.77,-52.45"/>
</g>
<!-- Node33&#45;&gt;Node14 -->
<g id="edge52" class="edge">
<title>Node33&#45;&gt;Node14</title>
<path fill="none" stroke="midnightblue" d="M1158.2,-53.7C1195.56,-43.51 1249.7,-28.74 1283.53,-19.52"/>
<polygon fill="midnightblue" stroke="midnightblue" points="1156.86,-50.44 1148.13,-56.44 1158.7,-57.19 1156.86,-50.44"/>
</g>
<!-- Node33&#45;&gt;Node15 -->
<g id="edge53" class="edge">
<title>Node33&#45;&gt;Node15</title>
<path fill="none" stroke="midnightblue" d="M1068.63,-54.22C1023.09,-44.01 955.65,-28.9 913.77,-19.52"/>
<polygon fill="midnightblue" stroke="midnightblue" points="1068.05,-57.67 1078.57,-56.44 1069.58,-50.84 1068.05,-57.67"/>
</g>
<!-- Node33&#45;&gt;Node16 -->
<g id="edge54" class="edge">
<title>Node33&#45;&gt;Node16</title>
<path fill="none" stroke="midnightblue" d="M1127.73,-47.57C1133.58,-38.27 1140.53,-27.25 1145.25,-19.75"/>
<polygon fill="midnightblue" stroke="midnightblue" points="1124.74,-45.76 1122.37,-56.08 1130.66,-49.49 1124.74,-45.76"/>
</g>
<!-- Node34 -->
<g id="node34" class="node">
<title>Node34</title>
<g id="a_node34"><a xlink:href="_o_m_sim_l_o_m18_8cc.html" target="_top" xlink:title=" ">
<polygon fill="white" stroke="black" points="974.26,-0.5 974.26,-19.5 1073.26,-19.5 1073.26,-0.5 974.26,-0.5"/>
<text text-anchor="middle" x="1023.76" y="-7.5" font-family="Helvetica,sans-Serif" font-size="10.00">OMSimLOM18.cc</text>
</a>
</g>
</g>
<!-- Node33&#45;&gt;Node34 -->
<g id="edge51" class="edge">
<title>Node33&#45;&gt;Node34</title>
<path fill="none" stroke="midnightblue" d="M1092.95,-51.18C1075.84,-41.24 1053.29,-28.15 1038.66,-19.65"/>
<polygon fill="midnightblue" stroke="midnightblue" points="1091.41,-54.33 1101.81,-56.32 1094.92,-48.28 1091.41,-54.33"/>
</g>
<!-- Node35&#45;&gt;Node10 -->
<g id="edge57" class="edge">
<title>Node35&#45;&gt;Node10</title>
<path fill="none" stroke="midnightblue" d="M1438.03,-54.09C1481.29,-43.89 1545.01,-28.86 1584.64,-19.52"/>
<polygon fill="midnightblue" stroke="midnightblue" points="1436.97,-50.74 1428.04,-56.44 1438.58,-57.55 1436.97,-50.74"/>
</g>
<!-- Node35&#45;&gt;Node14 -->
<g id="edge59" class="edge">
<title>Node35&#45;&gt;Node14</title>
<path fill="none" stroke="midnightblue" d="M1370.86,-50.34C1356.85,-40.52 1338.87,-27.91 1327.1,-19.65"/>
<polygon fill="midnightblue" stroke="midnightblue" points="1369.19,-53.45 1379.39,-56.32 1373.21,-47.72 1369.19,-53.45"/>
</g>
<!-- Node35&#45;&gt;Node15 -->
<g id="edge60" class="edge">
<title>Node35&#45;&gt;Node15</title>
<path fill="none" stroke="midnightblue" d="M1333.2,-58.87C1240.81,-49.2 1061.02,-30.39 956.46,-19.45"/>
<polygon fill="midnightblue" stroke="midnightblue" points="1332.9,-62.36 1343.21,-59.92 1333.63,-55.4 1332.9,-62.36"/>
</g>
<!-- Node35&#45;&gt;Node16 -->
<g id="edge61" class="edge">
<title>Node35&#45;&gt;Node16</title>
<path fill="none" stroke="midnightblue" d="M1343.63,-54.22C1298.09,-44.01 1230.65,-28.9 1188.77,-19.52"/>
<polygon fill="midnightblue" stroke="midnightblue" points="1343.05,-57.67 1353.57,-56.44 1344.58,-50.84 1343.05,-57.67"/>
</g>
<!-- Node36 -->
<g id="node36" class="node">
<title>Node36</title>
<g id="a_node36"><a xlink:href="_o_m_sim_p_d_o_m_8cc.html" target="_top" xlink:title=" ">
<polygon fill="white" stroke="black" points="1723.26,-0.5 1723.26,-19.5 1818.26,-19.5 1818.26,-0.5 1723.26,-0.5"/>
<text text-anchor="middle" x="1770.76" y="-7.5" font-family="Helvetica,sans-Serif" font-size="10.00">OMSimPDOM.cc</text>
</a>
</g>
</g>
<!-- Node35&#45;&gt;Node36 -->
<g id="edge58" class="edge">
<title>Node35&#45;&gt;Node36</title>
<path fill="none" stroke="midnightblue" d="M1450.34,-57.13C1514.9,-48.38 1621.81,-33.68 1713.76,-20 1716.83,-19.54 1719.99,-19.06 1723.18,-18.58"/>
<polygon fill="midnightblue" stroke="midnightblue" points="1449.79,-53.67 1440.35,-58.48 1450.73,-60.61 1449.79,-53.67"/>
</g>
<!-- Node38&#45;&gt;Node25 -->
<g id="edge64" class="edge">
<title>Node38&#45;&gt;Node25</title>
<path fill="none" stroke="midnightblue" d="M43.61,-108.22C18.11,-95.91 -11.35,-76.22 4.76,-56 19.28,-37.77 71.95,-26.32 119.04,-19.53"/>
<polygon fill="midnightblue" stroke="midnightblue" points="42.19,-111.42 52.74,-112.41 45.11,-105.06 42.19,-111.42"/>
</g>
<!-- Node39 -->
<g id="node39" class="node">
<title>Node39</title>
<g id="a_node39"><a xlink:href="_o_m_sim_decays_g_p_s_8cc.html" target="_top" xlink:title=" ">
<polygon fill="white" stroke="black" points="14.26,-56.5 14.26,-75.5 135.26,-75.5 135.26,-56.5 14.26,-56.5"/>
<text text-anchor="middle" x="74.76" y="-63.5" font-family="Helvetica,sans-Serif" font-size="10.00">OMSimDecaysGPS.cc</text>
</a>
</g>
</g>
<!-- Node38&#45;&gt;Node39 -->
<g id="edge65" class="edge">
<title>Node38&#45;&gt;Node39</title>
<path fill="none" stroke="midnightblue" d="M74.76,-101.8C74.76,-92.91 74.76,-82.78 74.76,-75.75"/>
<polygon fill="midnightblue" stroke="midnightblue" points="71.26,-102.08 74.76,-112.08 78.26,-102.08 71.26,-102.08"/>
</g>
<!-- Node40&#45;&gt;Node9 -->
<g id="edge71" class="edge">
<title>Node40&#45;&gt;Node9</title>
<path fill="none" stroke="midnightblue" d="M1299.14,-219.75C1334.76,-201.93 1395.02,-171.98 1405.76,-168 1449.27,-151.89 1500.96,-139.25 1536.44,-131.52"/>
<polygon fill="midnightblue" stroke="midnightblue" points="1297.18,-216.82 1289.81,-224.43 1300.32,-223.08 1297.18,-216.82"/>
</g>
<!-- Node40&#45;&gt;Node18 -->
<g id="edge72" class="edge">
<title>Node40&#45;&gt;Node18</title>
<path fill="none" stroke="midnightblue" d="M1226.56,-222.15C1183.1,-211.95 1118.92,-196.88 1079.03,-187.52"/>
<polygon fill="midnightblue" stroke="midnightblue" points="1225.78,-225.57 1236.31,-224.44 1227.38,-218.75 1225.78,-225.57"/>
</g>
<!-- Node40&#45;&gt;Node19 -->
<g id="edge68" class="edge">
<title>Node40&#45;&gt;Node19</title>
<path fill="none" stroke="midnightblue" d="M1187.82,-232.58C1106.83,-230.15 993.1,-220.78 964.76,-188 935.52,-154.18 975.74,-97.42 993.28,-75.76"/>
<polygon fill="midnightblue" stroke="midnightblue" points="1187.94,-236.08 1198.03,-232.85 1188.12,-229.08 1187.94,-236.08"/>
</g>
<!-- Node40&#45;&gt;Node27 -->
<g id="edge77" class="edge">
<title>Node40&#45;&gt;Node27</title>
<path fill="none" stroke="midnightblue" d="M1187.82,-226.92C1107.13,-220.1 992.28,-207.39 951.76,-188 894.42,-160.56 845.47,-98.38 828.82,-75.59"/>
<polygon fill="midnightblue" stroke="midnightblue" points="1187.73,-230.42 1197.98,-227.76 1188.31,-223.45 1187.73,-230.42"/>
</g>
<!-- Node40&#45;&gt;Node31 -->
<g id="edge69" class="edge">
<title>Node40&#45;&gt;Node31</title>
<path fill="none" stroke="midnightblue" d="M1280.5,-214.86C1289.71,-190.37 1302.06,-145.92 1286.76,-112 1279.57,-96.07 1263.65,-83.52 1251.49,-75.76"/>
<polygon fill="midnightblue" stroke="midnightblue" points="1277.18,-213.73 1276.71,-224.32 1283.67,-216.33 1277.18,-213.73"/>
</g>
<!-- Node40&#45;&gt;Node33 -->
<g id="edge70" class="edge">
<title>Node40&#45;&gt;Node33</title>
<path fill="none" stroke="midnightblue" d="M1275.34,-214.43C1277.88,-188.38 1278.35,-140.93 1253.76,-112 1241.15,-97.17 1193.31,-83.75 1157.69,-75.5"/>
<polygon fill="midnightblue" stroke="midnightblue" points="1271.86,-214.12 1274.16,-224.46 1278.81,-214.94 1271.86,-214.12"/>
</g>
<!-- Node40&#45;&gt;Node35 -->
<g id="edge73" class="edge">
<title>Node40&#45;&gt;Node35</title>
<path fill="none" stroke="midnightblue" d="M1285.2,-216.16C1291.41,-207.72 1299.01,-197.34 1305.76,-188 1336.08,-146 1371.8,-95.36 1385.75,-75.54"/>
<polygon fill="midnightblue" stroke="midnightblue" points="1282.24,-214.28 1279.12,-224.4 1287.87,-218.43 1282.24,-214.28"/>
</g>
<!-- Node40&#45;&gt;Node37 -->
<g id="edge76" class="edge">
<title>Node40&#45;&gt;Node37</title>
<path fill="none" stroke="midnightblue" d="M1258.43,-216.59C1237.74,-192.87 1200.21,-149.87 1184.25,-131.59"/>
<polygon fill="midnightblue" stroke="midnightblue" points="1256.01,-219.14 1265.22,-224.37 1261.29,-214.53 1256.01,-219.14"/>
</g>
<!-- Node40&#45;&gt;Node40 -->
<g id="edge74" class="edge">
<title>Node40&#45;&gt;Node40</title>
<path fill="none" stroke="midnightblue" d="M1322.18,-244.29C1345.16,-245.42 1365.26,-241.99 1365.26,-234 1365.26,-224.87 1339.01,-221.69 1312.21,-224.47"/>
<polygon fill="midnightblue" stroke="midnightblue" points="1322.45,-240.8 1312.21,-243.53 1321.91,-247.78 1322.45,-240.8"/>
</g>
<!-- Node40&#45;&gt;Node41 -->
<g id="edge75" class="edge">
<title>Node40&#45;&gt;Node41</title>
<path fill="none" stroke="midnightblue" d="M1316.72,-221.96C1357.32,-211.76 1416.8,-196.82 1453.85,-187.52"/>
<polygon fill="midnightblue" stroke="midnightblue" points="1315.67,-218.61 1306.82,-224.44 1317.38,-225.4 1315.67,-218.61"/>
</g>
</g>
</svg>
