<?xml version="1.0" encoding="UTF-8" standalone="no"?>
<!DOCTYPE svg PUBLIC "-//W3C//DTD SVG 1.1//EN"
 "http://www.w3.org/Graphics/SVG/1.1/DTD/svg11.dtd">
<!-- Generated by graphviz version 2.43.0 (0)
 -->
<!-- Title: OMSimRadDecaysDetector.hh Pages: 1 -->
<svg width="352pt" height="84pt"
 viewBox="0.00 0.00 352.00 84.00" xmlns="http://www.w3.org/2000/svg" xmlns:xlink="http://www.w3.org/1999/xlink">
<g id="graph0" class="graph" transform="scale(1 1) rotate(0) translate(4 80)">
<title>OMSimRadDecaysDetector.hh</title>
<polygon fill="white" stroke="transparent" points="-4,4 -4,-80 348,-80 348,4 -4,4"/>
<!-- Node1 -->
<g id="node1" class="node">
<title>Node1</title>
<g id="a_node1"><a xlink:title="Defines the OMSimRadDecaysDetector class for the radioactive decays simulation.">
<polygon fill="#bfbfbf" stroke="black" points="91,-56.5 91,-75.5 254,-75.5 254,-56.5 91,-56.5"/>
<text text-anchor="middle" x="172.5" y="-63.5" font-family="Helvetica,sans-Serif" font-size="10.00">OMSimRadDecaysDetector.hh</text>
</a>
</g>
</g>
<!-- Node2 -->
<g id="node2" class="node">
<title>Node2</title>
<g id="a_node2"><a xlink:href="_o_m_sim__radioactive__decays_8cc.html" target="_top" xlink:title="Main of the radioactive decay study.">
<polygon fill="white" stroke="black" points="0,-0.5 0,-19.5 165,-19.5 165,-0.5 0,-0.5"/>
<text text-anchor="middle" x="82.5" y="-7.5" font-family="Helvetica,sans-Serif" font-size="10.00">OMSim_radioactive_decays.cc</text>
</a>
</g>
</g>
<!-- Node1&#45;&gt;Node2 -->
<g id="edge1" class="edge">
<title>Node1&#45;&gt;Node2</title>
<path fill="none" stroke="midnightblue" d="M149.46,-51.18C132.9,-41.24 111.08,-28.15 96.92,-19.65"/>
<polygon fill="midnightblue" stroke="midnightblue" points="147.66,-54.18 158.04,-56.32 151.27,-48.18 147.66,-54.18"/>
</g>
<!-- Node3 -->
<g id="node3" class="node">
<title>Node3</title>
<g id="a_node3"><a xlink:href="_o_m_sim_rad_decays_detector_8cc.html" target="_top" xlink:title=" ">
<polygon fill="white" stroke="black" points="183,-0.5 183,-19.5 344,-19.5 344,-0.5 183,-0.5"/>
<text text-anchor="middle" x="263.5" y="-7.5" font-family="Helvetica,sans-Serif" font-size="10.00">OMSimRadDecaysDetector.cc</text>
</a>
</g>
</g>
<!-- Node1&#45;&gt;Node3 -->
<g id="edge2" class="edge">
<title>Node1&#45;&gt;Node3</title>
<path fill="none" stroke="midnightblue" d="M195.79,-51.18C212.54,-41.24 234.6,-28.15 248.92,-19.65"/>
<polygon fill="midnightblue" stroke="midnightblue" points="193.93,-48.21 187.12,-56.32 197.51,-54.23 193.93,-48.21"/>
</g>
</g>
</svg>
