<?xml version="1.0" encoding="UTF-8" standalone="no"?>
<!DOCTYPE svg PUBLIC "-//W3C//DTD SVG 1.1//EN"
 "http://www.w3.org/Graphics/SVG/1.1/DTD/svg11.dtd">
<!-- Generated by graphviz version 2.43.0 (0)
 -->
<!-- Title: OMSimMDOM.hh Pages: 1 -->
<svg width="1403pt" height="386pt"
 viewBox="0.00 0.00 1403.00 386.00" xmlns="http://www.w3.org/2000/svg" xmlns:xlink="http://www.w3.org/1999/xlink">
<g id="graph0" class="graph" transform="scale(1 1) rotate(0) translate(4 382)">
<title>OMSimMDOM.hh</title>
<polygon fill="white" stroke="transparent" points="-4,4 -4,-382 1399,-382 1399,4 -4,4"/>
<!-- Node1 -->
<g id="node1" class="node">
<title>Node1</title>
<g id="a_node1"><a xlink:title="Construction of mDOM.">
<polygon fill="#bfbfbf" stroke="black" points="624.5,-358.5 624.5,-377.5 724.5,-377.5 724.5,-358.5 624.5,-358.5"/>
<text text-anchor="middle" x="674.5" y="-365.5" font-family="Helvetica,sans-Serif" font-size="10.00">OMSimMDOM.hh</text>
</a>
</g>
</g>
<!-- Node2 -->
<g id="node2" class="node">
<title>Node2</title>
<g id="a_node2"><a xlink:href="_o_m_sim_m_d_o_m_flasher_8hh.html" target="_top" xlink:title="Defines the mDOMFlasher class for simulating the 10 flashers in an mDOM optical module.">
<polygon fill="white" stroke="black" points="484,-246.5 484,-265.5 619,-265.5 619,-246.5 484,-246.5"/>
<text text-anchor="middle" x="551.5" y="-253.5" font-family="Helvetica,sans-Serif" font-size="10.00">OMSimMDOMFlasher.hh</text>
</a>
</g>
</g>
<!-- Node1&#45;&gt;Node2 -->
<g id="edge1" class="edge">
<title>Node1&#45;&gt;Node2</title>
<path fill="none" stroke="midnightblue" d="M654.33,-358.41C637.56,-350.61 613.75,-337.89 596.5,-322 581.71,-308.38 569.12,-289.07 561.05,-275.04"/>
<polygon fill="midnightblue" stroke="midnightblue" points="563.9,-272.97 556,-265.91 557.77,-276.36 563.9,-272.97"/>
</g>
<!-- Node19 -->
<g id="node19" class="node">
<title>Node19</title>
<g id="a_node19"><a xlink:href="_o_m_sim_p_m_t_construction_8hh.html" target="_top" xlink:title="Construction of the PMTs.">
<polygon fill="white" stroke="black" points="697,-246.5 697,-265.5 846,-265.5 846,-246.5 697,-246.5"/>
<text text-anchor="middle" x="771.5" y="-253.5" font-family="Helvetica,sans-Serif" font-size="10.00">OMSimPMTConstruction.hh</text>
</a>
</g>
</g>
<!-- Node1&#45;&gt;Node19 -->
<g id="edge18" class="edge">
<title>Node1&#45;&gt;Node19</title>
<path fill="none" stroke="midnightblue" d="M698.58,-358.43C715.65,-351.19 737.84,-339.23 751.5,-322 762.03,-308.71 767.04,-289.88 769.41,-275.9"/>
<polygon fill="midnightblue" stroke="midnightblue" points="772.89,-276.32 770.8,-265.93 765.95,-275.35 772.89,-276.32"/>
</g>
<!-- Node26 -->
<g id="node26" class="node">
<title>Node26</title>
<g id="a_node26"><a xlink:href="_o_m_sim_optical_module_8hh.html" target="_top" xlink:title=" ">
<polygon fill="white" stroke="black" points="606,-302.5 606,-321.5 743,-321.5 743,-302.5 606,-302.5"/>
<text text-anchor="middle" x="674.5" y="-309.5" font-family="Helvetica,sans-Serif" font-size="10.00">OMSimOpticalModule.hh</text>
</a>
</g>
</g>
<!-- Node1&#45;&gt;Node26 -->
<g id="edge29" class="edge">
<title>Node1&#45;&gt;Node26</title>
<path fill="none" stroke="midnightblue" d="M674.5,-358.08C674.5,-351.01 674.5,-340.86 674.5,-331.99"/>
<polygon fill="midnightblue" stroke="midnightblue" points="678,-331.75 674.5,-321.75 671,-331.75 678,-331.75"/>
</g>
<!-- Node3 -->
<g id="node3" class="node">
<title>Node3</title>
<g id="a_node3"><a xlink:href="abc_detector_component_8hh.html" target="_top" xlink:title="Provides helper base class abcDetectorComponent for constructing and managing detector components in ...">
<polygon fill="white" stroke="black" points="596,-190.5 596,-209.5 743,-209.5 743,-190.5 596,-190.5"/>
<text text-anchor="middle" x="669.5" y="-197.5" font-family="Helvetica,sans-Serif" font-size="10.00">abcDetectorComponent.hh</text>
</a>
</g>
</g>
<!-- Node2&#45;&gt;Node3 -->
<g id="edge2" class="edge">
<title>Node2&#45;&gt;Node3</title>
<path fill="none" stroke="midnightblue" d="M570.2,-246.44C589.44,-237.64 619.65,-223.81 641.7,-213.72"/>
<polygon fill="midnightblue" stroke="midnightblue" points="643.25,-216.86 650.89,-209.52 640.34,-210.5 643.25,-216.86"/>
</g>
<!-- Node17 -->
<g id="node17" class="node">
<title>Node17</title>
<g id="a_node17"><a xlink:title=" ">
<polygon fill="white" stroke="#bfbfbf" points="479.5,-190.5 479.5,-209.5 577.5,-209.5 577.5,-190.5 479.5,-190.5"/>
<text text-anchor="middle" x="528.5" y="-197.5" font-family="Helvetica,sans-Serif" font-size="10.00">G4UnionSolid.hh</text>
</a>
</g>
</g>
<!-- Node2&#45;&gt;Node17 -->
<g id="edge16" class="edge">
<title>Node2&#45;&gt;Node17</title>
<path fill="none" stroke="midnightblue" d="M547.7,-246.08C544.59,-238.77 540.08,-228.18 536.21,-219.1"/>
<polygon fill="midnightblue" stroke="midnightblue" points="539.37,-217.58 532.23,-209.75 532.93,-220.32 539.37,-217.58"/>
</g>
<!-- Node18 -->
<g id="node18" class="node">
<title>Node18</title>
<g id="a_node18"><a xlink:title=" ">
<polygon fill="white" stroke="#bfbfbf" points="369.5,-190.5 369.5,-209.5 461.5,-209.5 461.5,-190.5 369.5,-190.5"/>
<text text-anchor="middle" x="415.5" y="-197.5" font-family="Helvetica,sans-Serif" font-size="10.00">G4Navigator.hh</text>
</a>
</g>
</g>
<!-- Node2&#45;&gt;Node18 -->
<g id="edge17" class="edge">
<title>Node2&#45;&gt;Node18</title>
<path fill="none" stroke="midnightblue" d="M529.95,-246.44C507.47,-237.52 472.01,-223.44 446.52,-213.32"/>
<polygon fill="midnightblue" stroke="midnightblue" points="447.53,-209.95 436.95,-209.52 444.95,-216.46 447.53,-209.95"/>
</g>
<!-- Node4 -->
<g id="node4" class="node">
<title>Node4</title>
<g id="a_node4"><a xlink:href="_o_m_sim_input_data_8hh.html" target="_top" xlink:title="Definition of ParameterTable and InputDataManager.">
<polygon fill="white" stroke="black" points="222,-134.5 222,-153.5 337,-153.5 337,-134.5 222,-134.5"/>
<text text-anchor="middle" x="279.5" y="-141.5" font-family="Helvetica,sans-Serif" font-size="10.00">OMSimInputData.hh</text>
</a>
</g>
</g>
<!-- Node3&#45;&gt;Node4 -->
<g id="edge3" class="edge">
<title>Node3&#45;&gt;Node4</title>
<path fill="none" stroke="midnightblue" d="M607.7,-190.44C536.73,-180.62 420.65,-164.54 347.26,-154.38"/>
<polygon fill="midnightblue" stroke="midnightblue" points="347.58,-150.89 337.19,-152.99 346.62,-157.83 347.58,-150.89"/>
</g>
<!-- Node13 -->
<g id="node13" class="node">
<title>Node13</title>
<g id="a_node13"><a xlink:title=" ">
<polygon fill="white" stroke="#bfbfbf" points="355,-134.5 355,-153.5 462,-153.5 462,-134.5 355,-134.5"/>
<text text-anchor="middle" x="408.5" y="-141.5" font-family="Helvetica,sans-Serif" font-size="10.00">G4Transform3D.hh</text>
</a>
</g>
</g>
<!-- Node3&#45;&gt;Node13 -->
<g id="edge12" class="edge">
<title>Node3&#45;&gt;Node13</title>
<path fill="none" stroke="midnightblue" d="M628.14,-190.44C582.42,-180.98 508.74,-165.74 459.48,-155.55"/>
<polygon fill="midnightblue" stroke="midnightblue" points="460.16,-152.12 449.66,-153.52 458.75,-158.97 460.16,-152.12"/>
</g>
<!-- Node14 -->
<g id="node14" class="node">
<title>Node14</title>
<g id="a_node14"><a xlink:title=" ">
<polygon fill="white" stroke="#bfbfbf" points="480.5,-134.5 480.5,-153.5 588.5,-153.5 588.5,-134.5 480.5,-134.5"/>
<text text-anchor="middle" x="534.5" y="-141.5" font-family="Helvetica,sans-Serif" font-size="10.00">G4VisAttributes.hh</text>
</a>
</g>
</g>
<!-- Node3&#45;&gt;Node14 -->
<g id="edge13" class="edge">
<title>Node3&#45;&gt;Node14</title>
<path fill="none" stroke="midnightblue" d="M648.11,-190.44C625.79,-181.52 590.6,-167.44 565.29,-157.32"/>
<polygon fill="midnightblue" stroke="midnightblue" points="566.38,-153.98 555.79,-153.52 563.78,-160.48 566.38,-153.98"/>
</g>
<!-- Node15 -->
<g id="node15" class="node">
<title>Node15</title>
<g id="a_node15"><a xlink:title=" ">
<polygon fill="white" stroke="#bfbfbf" points="607,-134.5 607,-153.5 732,-153.5 732,-134.5 607,-134.5"/>
<text text-anchor="middle" x="669.5" y="-141.5" font-family="Helvetica,sans-Serif" font-size="10.00">G4SubtractionSolid.hh</text>
</a>
</g>
</g>
<!-- Node3&#45;&gt;Node15 -->
<g id="edge14" class="edge">
<title>Node3&#45;&gt;Node15</title>
<path fill="none" stroke="midnightblue" d="M669.5,-190.08C669.5,-183.01 669.5,-172.86 669.5,-163.99"/>
<polygon fill="midnightblue" stroke="midnightblue" points="673,-163.75 669.5,-153.75 666,-163.75 673,-163.75"/>
</g>
<!-- Node16 -->
<g id="node16" class="node">
<title>Node16</title>
<g id="a_node16"><a xlink:title=" ">
<polygon fill="white" stroke="#bfbfbf" points="750.5,-134.5 750.5,-153.5 860.5,-153.5 860.5,-134.5 750.5,-134.5"/>
<text text-anchor="middle" x="805.5" y="-141.5" font-family="Helvetica,sans-Serif" font-size="10.00">G4PVPlacement.hh</text>
</a>
</g>
</g>
<!-- Node3&#45;&gt;Node16 -->
<g id="edge15" class="edge">
<title>Node3&#45;&gt;Node16</title>
<path fill="none" stroke="midnightblue" d="M691.05,-190.44C713.53,-181.52 748.99,-167.44 774.48,-157.32"/>
<polygon fill="midnightblue" stroke="midnightblue" points="776.05,-160.46 784.05,-153.52 773.47,-153.95 776.05,-160.46"/>
</g>
<!-- Node5 -->
<g id="node5" class="node">
<title>Node5</title>
<g id="a_node5"><a xlink:href="_o_m_sim_logger_8hh.html" target="_top" xlink:title=" ">
<polygon fill="white" stroke="black" points="168,-73 168,-92 267,-92 267,-73 168,-73"/>
<text text-anchor="middle" x="217.5" y="-80" font-family="Helvetica,sans-Serif" font-size="10.00">OMSimLogger.hh</text>
</a>
</g>
</g>
<!-- Node4&#45;&gt;Node5 -->
<g id="edge4" class="edge">
<title>Node4&#45;&gt;Node5</title>
<path fill="none" stroke="midnightblue" d="M270.62,-134.48C261.04,-125.28 245.59,-110.46 233.81,-99.16"/>
<polygon fill="midnightblue" stroke="midnightblue" points="236.01,-96.41 226.37,-92.01 231.16,-101.46 236.01,-96.41"/>
</g>
<!-- Node10 -->
<g id="node10" class="node">
<title>Node10</title>
<g id="a_node10"><a xlink:title=" ">
<polygon fill="white" stroke="#bfbfbf" points="529,-73 529,-92 672,-92 672,-73 529,-73"/>
<text text-anchor="middle" x="600.5" y="-80" font-family="Helvetica,sans-Serif" font-size="10.00">G4OpBoundaryProcess.hh</text>
</a>
</g>
</g>
<!-- Node4&#45;&gt;Node10 -->
<g id="edge9" class="edge">
<title>Node4&#45;&gt;Node10</title>
<path fill="none" stroke="midnightblue" d="M325.49,-134.48C383.3,-123.76 482.45,-105.38 544.58,-93.87"/>
<polygon fill="midnightblue" stroke="midnightblue" points="545.4,-97.27 554.59,-92.01 544.12,-90.39 545.4,-97.27"/>
</g>
<!-- Node11 -->
<g id="node11" class="node">
<title>Node11</title>
<g id="a_node11"><a xlink:title=" ">
<polygon fill="white" stroke="#bfbfbf" points="847,-73 847,-92 966,-92 966,-73 847,-73"/>
<text text-anchor="middle" x="906.5" y="-80" font-family="Helvetica,sans-Serif" font-size="10.00">G4SystemOfUnits.hh</text>
</a>
</g>
</g>
<!-- Node4&#45;&gt;Node11 -->
<g id="edge10" class="edge">
<title>Node4&#45;&gt;Node11</title>
<path fill="none" stroke="midnightblue" d="M337.07,-134.99C339.92,-134.64 342.74,-134.31 345.5,-134 521.82,-114.05 730.04,-97.01 836.35,-88.78"/>
<polygon fill="midnightblue" stroke="midnightblue" points="836.93,-92.24 846.63,-87.98 836.39,-85.26 836.93,-92.24"/>
</g>
<!-- Node12 -->
<g id="node12" class="node">
<title>Node12</title>
<g id="a_node12"><a xlink:title=" ">
<polygon fill="white" stroke="#bfbfbf" points="285,-67.5 285,-97.5 398,-97.5 398,-67.5 285,-67.5"/>
<text text-anchor="start" x="293" y="-85.5" font-family="Helvetica,sans-Serif" font-size="10.00">boost/property_tree</text>
<text text-anchor="middle" x="341.5" y="-74.5" font-family="Helvetica,sans-Serif" font-size="10.00">/json_parser.hpp</text>
</a>
</g>
</g>
<!-- Node4&#45;&gt;Node12 -->
<g id="edge11" class="edge">
<title>Node4&#45;&gt;Node12</title>
<path fill="none" stroke="midnightblue" d="M288.38,-134.48C296.47,-126.72 308.74,-114.94 319.45,-104.66"/>
<polygon fill="midnightblue" stroke="midnightblue" points="322.1,-106.97 326.89,-97.52 317.25,-101.92 322.1,-106.97"/>
</g>
<!-- Node6 -->
<g id="node6" class="node">
<title>Node6</title>
<g id="a_node6"><a xlink:title=" ">
<polygon fill="white" stroke="#bfbfbf" points="0,-6 0,-25 93,-25 93,-6 0,-6"/>
<text text-anchor="middle" x="46.5" y="-13" font-family="Helvetica,sans-Serif" font-size="10.00">spdlog/spdlog.h</text>
</a>
</g>
</g>
<!-- Node5&#45;&gt;Node6 -->
<g id="edge5" class="edge">
<title>Node5&#45;&gt;Node6</title>
<path fill="none" stroke="midnightblue" d="M194.79,-72.87C164.94,-61.52 112.33,-41.52 78.47,-28.65"/>
<polygon fill="midnightblue" stroke="midnightblue" points="79.62,-25.35 69.03,-25.06 77.13,-31.89 79.62,-25.35"/>
</g>
<!-- Node7 -->
<g id="node7" class="node">
<title>Node7</title>
<g id="a_node7"><a xlink:title=" ">
<polygon fill="white" stroke="#bfbfbf" points="111,-0.5 111,-30.5 222,-30.5 222,-0.5 111,-0.5"/>
<text text-anchor="start" x="119" y="-18.5" font-family="Helvetica,sans-Serif" font-size="10.00">spdlog/sinks/stdout</text>
<text text-anchor="middle" x="166.5" y="-7.5" font-family="Helvetica,sans-Serif" font-size="10.00">_color_sinks.h</text>
</a>
</g>
</g>
<!-- Node5&#45;&gt;Node7 -->
<g id="edge6" class="edge">
<title>Node5&#45;&gt;Node7</title>
<path fill="none" stroke="midnightblue" d="M210.62,-72.73C203.8,-64.03 193.06,-50.34 183.88,-38.65"/>
<polygon fill="midnightblue" stroke="midnightblue" points="186.48,-36.3 177.55,-30.59 180.97,-40.62 186.48,-36.3"/>
</g>
<!-- Node8 -->
<g id="node8" class="node">
<title>Node8</title>
<g id="a_node8"><a xlink:title=" ">
<polygon fill="white" stroke="#bfbfbf" points="240.5,-6 240.5,-25 298.5,-25 298.5,-6 240.5,-6"/>
<text text-anchor="middle" x="269.5" y="-13" font-family="Helvetica,sans-Serif" font-size="10.00">memory</text>
</a>
</g>
</g>
<!-- Node5&#45;&gt;Node8 -->
<g id="edge7" class="edge">
<title>Node5&#45;&gt;Node8</title>
<path fill="none" stroke="midnightblue" d="M224.51,-72.73C232.62,-62.6 246.15,-45.69 256.26,-33.06"/>
<polygon fill="midnightblue" stroke="midnightblue" points="259.08,-35.12 262.6,-25.13 253.62,-30.75 259.08,-35.12"/>
</g>
<!-- Node9 -->
<g id="node9" class="node">
<title>Node9</title>
<g id="a_node9"><a xlink:title=" ">
<polygon fill="white" stroke="#bfbfbf" points="316.5,-6 316.5,-25 414.5,-25 414.5,-6 316.5,-6"/>
<text text-anchor="middle" x="365.5" y="-13" font-family="Helvetica,sans-Serif" font-size="10.00">spdlog/fmt/fmt.h</text>
</a>
</g>
</g>
<!-- Node5&#45;&gt;Node9 -->
<g id="edge8" class="edge">
<title>Node5&#45;&gt;Node9</title>
<path fill="none" stroke="midnightblue" d="M237.15,-72.87C262.59,-61.7 307.1,-42.15 336.45,-29.26"/>
<polygon fill="midnightblue" stroke="midnightblue" points="338.02,-32.39 345.77,-25.17 335.2,-25.98 338.02,-32.39"/>
</g>
<!-- Node19&#45;&gt;Node3 -->
<g id="edge19" class="edge">
<title>Node19&#45;&gt;Node3</title>
<path fill="none" stroke="midnightblue" d="M755.11,-246.32C738.83,-237.7 713.63,-224.36 694.78,-214.39"/>
<polygon fill="midnightblue" stroke="midnightblue" points="696.32,-211.24 685.85,-209.65 693.05,-217.43 696.32,-211.24"/>
</g>
<!-- Node19&#45;&gt;Node17 -->
<g id="edge27" class="edge">
<title>Node19&#45;&gt;Node17</title>
<path fill="none" stroke="midnightblue" d="M733,-246.44C690.69,-237.04 622.68,-221.93 576.83,-211.74"/>
<polygon fill="midnightblue" stroke="midnightblue" points="577.35,-208.27 566.82,-209.52 575.83,-215.1 577.35,-208.27"/>
</g>
<!-- Node19&#45;&gt;Node19 -->
<g id="edge20" class="edge">
<title>Node19&#45;&gt;Node19</title>
<path fill="none" stroke="midnightblue" d="M810.95,-265.53C837.76,-268.31 864,-265.13 864,-256 864,-248.01 843.91,-244.58 820.93,-245.71"/>
<polygon fill="midnightblue" stroke="midnightblue" points="820.65,-242.22 810.95,-246.47 821.19,-249.2 820.65,-242.22"/>
</g>
<!-- Node20 -->
<g id="node20" class="node">
<title>Node20</title>
<g id="a_node20"><a xlink:href="_o_m_sim_p_m_t_response_8hh.html" target="_top" xlink:title="Provides simulation for PMT response. This class is responsible for transforming hits on photocathode...">
<polygon fill="white" stroke="black" points="1139,-134.5 1139,-153.5 1274,-153.5 1274,-134.5 1139,-134.5"/>
<text text-anchor="middle" x="1206.5" y="-141.5" font-family="Helvetica,sans-Serif" font-size="10.00">OMSimPMTResponse.hh</text>
</a>
</g>
</g>
<!-- Node19&#45;&gt;Node20 -->
<g id="edge21" class="edge">
<title>Node19&#45;&gt;Node20</title>
<path fill="none" stroke="midnightblue" d="M846.06,-252.9C942.19,-249.07 1103.13,-238.5 1154.5,-210 1173.99,-199.19 1188.87,-177.81 1197.62,-162.53"/>
<polygon fill="midnightblue" stroke="midnightblue" points="1200.8,-164 1202.47,-153.53 1194.64,-160.67 1200.8,-164"/>
</g>
<!-- Node25 -->
<g id="node25" class="node">
<title>Node25</title>
<g id="a_node25"><a xlink:title=" ">
<polygon fill="white" stroke="#bfbfbf" points="761,-190.5 761,-209.5 828,-209.5 828,-190.5 761,-190.5"/>
<text text-anchor="middle" x="794.5" y="-197.5" font-family="Helvetica,sans-Serif" font-size="10.00">G4Tubs.hh</text>
</a>
</g>
</g>
<!-- Node19&#45;&gt;Node25 -->
<g id="edge28" class="edge">
<title>Node19&#45;&gt;Node25</title>
<path fill="none" stroke="midnightblue" d="M775.3,-246.08C778.41,-238.77 782.92,-228.18 786.79,-219.1"/>
<polygon fill="midnightblue" stroke="midnightblue" points="790.07,-220.32 790.77,-209.75 783.63,-217.58 790.07,-220.32"/>
</g>
<!-- Node20&#45;&gt;Node11 -->
<g id="edge22" class="edge">
<title>Node20&#45;&gt;Node11</title>
<path fill="none" stroke="midnightblue" d="M1163.52,-134.48C1109.72,-123.8 1017.59,-105.53 959.49,-94.01"/>
<polygon fill="midnightblue" stroke="midnightblue" points="959.89,-90.52 949.4,-92.01 958.53,-97.39 959.89,-90.52"/>
</g>
<!-- Node21 -->
<g id="node21" class="node">
<title>Node21</title>
<g id="a_node21"><a xlink:title=" ">
<polygon fill="white" stroke="#bfbfbf" points="1062,-73 1062,-92 1135,-92 1135,-73 1062,-73"/>
<text text-anchor="middle" x="1098.5" y="-80" font-family="Helvetica,sans-Serif" font-size="10.00">G4Types.hh</text>
</a>
</g>
</g>
<!-- Node20&#45;&gt;Node21 -->
<g id="edge23" class="edge">
<title>Node20&#45;&gt;Node21</title>
<path fill="none" stroke="midnightblue" d="M1191.03,-134.48C1173.22,-124.67 1143.76,-108.43 1122.87,-96.92"/>
<polygon fill="midnightblue" stroke="midnightblue" points="1124.39,-93.77 1113.95,-92.01 1121.01,-99.9 1124.39,-93.77"/>
</g>
<!-- Node22 -->
<g id="node22" class="node">
<title>Node22</title>
<g id="a_node22"><a xlink:title=" ">
<polygon fill="white" stroke="#bfbfbf" points="1153.5,-73 1153.5,-92 1191.5,-92 1191.5,-73 1153.5,-73"/>
<text text-anchor="middle" x="1172.5" y="-80" font-family="Helvetica,sans-Serif" font-size="10.00">map</text>
</a>
</g>
</g>
<!-- Node20&#45;&gt;Node22 -->
<g id="edge24" class="edge">
<title>Node20&#45;&gt;Node22</title>
<path fill="none" stroke="midnightblue" d="M1201.63,-134.48C1196.63,-125.73 1188.71,-111.87 1182.39,-100.81"/>
<polygon fill="midnightblue" stroke="midnightblue" points="1185.36,-98.96 1177.36,-92.01 1179.28,-102.43 1185.36,-98.96"/>
</g>
<!-- Node23 -->
<g id="node23" class="node">
<title>Node23</title>
<g id="a_node23"><a xlink:title=" ">
<polygon fill="white" stroke="#bfbfbf" points="1210,-73 1210,-92 1271,-92 1271,-73 1210,-73"/>
<text text-anchor="middle" x="1240.5" y="-80" font-family="Helvetica,sans-Serif" font-size="10.00">TGraph.h</text>
</a>
</g>
</g>
<!-- Node20&#45;&gt;Node23 -->
<g id="edge25" class="edge">
<title>Node20&#45;&gt;Node23</title>
<path fill="none" stroke="midnightblue" d="M1211.37,-134.48C1216.37,-125.73 1224.29,-111.87 1230.61,-100.81"/>
<polygon fill="midnightblue" stroke="midnightblue" points="1233.72,-102.43 1235.64,-92.01 1227.64,-98.96 1233.72,-102.43"/>
</g>
<!-- Node24 -->
<g id="node24" class="node">
<title>Node24</title>
<g id="a_node24"><a xlink:title=" ">
<polygon fill="white" stroke="#bfbfbf" points="1289,-73 1289,-92 1342,-92 1342,-73 1289,-73"/>
<text text-anchor="middle" x="1315.5" y="-80" font-family="Helvetica,sans-Serif" font-size="10.00">TH2D.h</text>
</a>
</g>
</g>
<!-- Node20&#45;&gt;Node24 -->
<g id="edge26" class="edge">
<title>Node20&#45;&gt;Node24</title>
<path fill="none" stroke="midnightblue" d="M1222.12,-134.48C1240.09,-124.67 1269.82,-108.43 1290.91,-96.92"/>
<polygon fill="midnightblue" stroke="midnightblue" points="1292.81,-99.87 1299.91,-92.01 1289.46,-93.73 1292.81,-99.87"/>
</g>
<!-- Node26&#45;&gt;Node3 -->
<g id="edge30" class="edge">
<title>Node26&#45;&gt;Node3</title>
<path fill="none" stroke="midnightblue" d="M674.11,-302.37C673.3,-284.62 671.44,-243.67 670.35,-219.6"/>
<polygon fill="midnightblue" stroke="midnightblue" points="673.84,-219.42 669.89,-209.59 666.85,-219.74 673.84,-219.42"/>
</g>
<!-- Node26&#45;&gt;Node19 -->
<g id="edge41" class="edge">
<title>Node26&#45;&gt;Node19</title>
<path fill="none" stroke="midnightblue" d="M690.08,-302.32C705.5,-293.74 729.31,-280.49 747.21,-270.52"/>
<polygon fill="midnightblue" stroke="midnightblue" points="748.92,-273.58 755.95,-265.65 745.51,-267.46 748.92,-273.58"/>
</g>
<!-- Node27 -->
<g id="node27" class="node">
<title>Node27</title>
<g id="a_node27"><a xlink:href="_o_m_sim_hit_manager_8hh.html" target="_top" xlink:title="Defines structures and classes related to optical module photon hit management.">
<polygon fill="white" stroke="black" points="1151,-246.5 1151,-265.5 1274,-265.5 1274,-246.5 1151,-246.5"/>
<text text-anchor="middle" x="1212.5" y="-253.5" font-family="Helvetica,sans-Serif" font-size="10.00">OMSimHitManager.hh</text>
</a>
</g>
</g>
<!-- Node26&#45;&gt;Node27 -->
<g id="edge31" class="edge">
<title>Node26&#45;&gt;Node27</title>
<path fill="none" stroke="midnightblue" d="M743.18,-304.11C845.44,-293.84 1036.8,-274.64 1140.78,-264.2"/>
<polygon fill="midnightblue" stroke="midnightblue" points="1141.27,-267.67 1150.87,-263.19 1140.57,-260.7 1141.27,-267.67"/>
</g>
<!-- Node27&#45;&gt;Node20 -->
<g id="edge32" class="edge">
<title>Node27&#45;&gt;Node20</title>
<path fill="none" stroke="midnightblue" d="M1212.03,-246.37C1211.06,-228.62 1208.83,-187.67 1207.51,-163.6"/>
<polygon fill="midnightblue" stroke="midnightblue" points="1211.01,-163.39 1206.97,-153.59 1204.02,-163.77 1211.01,-163.39"/>
</g>
<!-- Node28 -->
<g id="node28" class="node">
<title>Node28</title>
<g id="a_node28"><a xlink:href="_o_m_sim_sensitive_detector_8hh.html" target="_top" xlink:title=" ">
<polygon fill="white" stroke="black" points="993,-190.5 993,-209.5 1146,-209.5 1146,-190.5 993,-190.5"/>
<text text-anchor="middle" x="1069.5" y="-197.5" font-family="Helvetica,sans-Serif" font-size="10.00">OMSimSensitiveDetector.hh</text>
</a>
</g>
</g>
<!-- Node27&#45;&gt;Node28 -->
<g id="edge33" class="edge">
<title>Node27&#45;&gt;Node28</title>
<path fill="none" stroke="midnightblue" d="M1189.84,-246.44C1166.1,-237.48 1128.59,-223.31 1101.76,-213.18"/>
<polygon fill="midnightblue" stroke="midnightblue" points="1102.64,-209.77 1092.05,-209.52 1100.17,-216.32 1102.64,-209.77"/>
</g>
<!-- Node30 -->
<g id="node30" class="node">
<title>Node30</title>
<g id="a_node30"><a xlink:title=" ">
<polygon fill="white" stroke="#bfbfbf" points="1292,-134.5 1292,-153.5 1395,-153.5 1395,-134.5 1292,-134.5"/>
<text text-anchor="middle" x="1343.5" y="-141.5" font-family="Helvetica,sans-Serif" font-size="10.00">G4ThreeVector.hh</text>
</a>
</g>
</g>
<!-- Node27&#45;&gt;Node30 -->
<g id="edge39" class="edge">
<title>Node27&#45;&gt;Node30</title>
<path fill="none" stroke="midnightblue" d="M1240.28,-246.46C1260.23,-239.25 1286.8,-227.29 1305.5,-210 1319.71,-196.86 1330.2,-177.18 1336.51,-162.91"/>
<polygon fill="midnightblue" stroke="midnightblue" points="1339.75,-164.24 1340.36,-153.66 1333.29,-161.54 1339.75,-164.24"/>
</g>
<!-- Node32 -->
<g id="node32" class="node">
<title>Node32</title>
<g id="a_node32"><a xlink:title=" ">
<polygon fill="white" stroke="#bfbfbf" points="1241,-190.5 1241,-209.5 1296,-209.5 1296,-190.5 1241,-190.5"/>
<text text-anchor="middle" x="1268.5" y="-197.5" font-family="Helvetica,sans-Serif" font-size="10.00">fstream</text>
</a>
</g>
</g>
<!-- Node27&#45;&gt;Node32 -->
<g id="edge40" class="edge">
<title>Node27&#45;&gt;Node32</title>
<path fill="none" stroke="midnightblue" d="M1221.5,-246.32C1229.69,-238.42 1242.01,-226.55 1251.97,-216.94"/>
<polygon fill="midnightblue" stroke="midnightblue" points="1254.57,-219.29 1259.34,-209.83 1249.71,-214.26 1254.57,-219.29"/>
</g>
<!-- Node28&#45;&gt;Node10 -->
<g id="edge37" class="edge">
<title>Node28&#45;&gt;Node10</title>
<path fill="none" stroke="midnightblue" d="M1077.02,-190.31C1087.87,-176.69 1105.12,-150.2 1090.5,-134 1077.02,-119.06 818.48,-98.79 682.52,-89.1"/>
<polygon fill="midnightblue" stroke="midnightblue" points="682.37,-85.58 672.15,-88.37 681.88,-92.57 682.37,-85.58"/>
</g>
<!-- Node28&#45;&gt;Node20 -->
<g id="edge36" class="edge">
<title>Node28&#45;&gt;Node20</title>
<path fill="none" stroke="midnightblue" d="M1091.21,-190.44C1113.85,-181.52 1149.57,-167.44 1175.25,-157.32"/>
<polygon fill="midnightblue" stroke="midnightblue" points="1176.87,-160.44 1184.89,-153.52 1174.31,-153.93 1176.87,-160.44"/>
</g>
<!-- Node29 -->
<g id="node29" class="node">
<title>Node29</title>
<g id="a_node29"><a xlink:title=" ">
<polygon fill="white" stroke="#bfbfbf" points="878.5,-134.5 878.5,-153.5 1016.5,-153.5 1016.5,-134.5 878.5,-134.5"/>
<text text-anchor="middle" x="947.5" y="-141.5" font-family="Helvetica,sans-Serif" font-size="10.00">G4VSensitiveDetector.hh</text>
</a>
</g>
</g>
<!-- Node28&#45;&gt;Node29 -->
<g id="edge34" class="edge">
<title>Node28&#45;&gt;Node29</title>
<path fill="none" stroke="midnightblue" d="M1050.17,-190.44C1030.18,-181.6 998.76,-167.69 975.94,-157.59"/>
<polygon fill="midnightblue" stroke="midnightblue" points="977.3,-154.36 966.74,-153.52 974.47,-160.76 977.3,-154.36"/>
</g>
<!-- Node28&#45;&gt;Node30 -->
<g id="edge35" class="edge">
<title>Node28&#45;&gt;Node30</title>
<path fill="none" stroke="midnightblue" d="M1112.92,-190.44C1161.02,-180.96 1238.59,-165.67 1290.31,-155.48"/>
<polygon fill="midnightblue" stroke="midnightblue" points="1291.15,-158.88 1300.29,-153.52 1289.8,-152.02 1291.15,-158.88"/>
</g>
<!-- Node31 -->
<g id="node31" class="node">
<title>Node31</title>
<g id="a_node31"><a xlink:title=" ">
<polygon fill="white" stroke="#bfbfbf" points="1035,-134.5 1035,-153.5 1082,-153.5 1082,-134.5 1035,-134.5"/>
<text text-anchor="middle" x="1058.5" y="-141.5" font-family="Helvetica,sans-Serif" font-size="10.00">vector</text>
</a>
</g>
</g>
<!-- Node28&#45;&gt;Node31 -->
<g id="edge38" class="edge">
<title>Node28&#45;&gt;Node31</title>
<path fill="none" stroke="midnightblue" d="M1067.68,-190.08C1066.23,-182.93 1064.13,-172.64 1062.31,-163.69"/>
<polygon fill="midnightblue" stroke="midnightblue" points="1065.71,-162.85 1060.28,-153.75 1058.85,-164.25 1065.71,-162.85"/>
</g>
</g>
</svg>
