<?xml version="1.0" encoding="UTF-8" standalone="no"?>
<!DOCTYPE svg PUBLIC "-//W3C//DTD SVG 1.1//EN"
 "http://www.w3.org/Graphics/SVG/1.1/DTD/svg11.dtd">
<!-- Generated by graphviz version 2.43.0 (0)
 -->
<!-- Title: OMSim.cc Pages: 1 -->
<svg width="2193pt" height="487pt"
 viewBox="0.00 0.00 2192.50 487.00" xmlns="http://www.w3.org/2000/svg" xmlns:xlink="http://www.w3.org/1999/xlink">
<g id="graph0" class="graph" transform="scale(1 1) rotate(0) translate(4 483)">
<title>OMSim.cc</title>
<!-- Node1 -->
<g id="node1" class="node">
<title>Node1</title>
<g id="a_node1"><a xlink:title="Implementation of the OMSim class.">
<polygon fill="#bfbfbf" stroke="black" points="1855,-459.5 1855,-478.5 1920,-478.5 1920,-459.5 1855,-459.5"/>
<text text-anchor="middle" x="1887.5" y="-466.5" font-family="Helvetica,sans-Serif" font-size="10.00">OMSim.cc</text>
</a>
</g>
</g>
<!-- Node2 -->
<g id="node2" class="node">
<title>Node2</title>
<g id="a_node2"><a xlink:href="_o_m_sim_8hh.html" target="_top" xlink:title="Main simulation class for the Optical Module (OM) simulation. This file defines the OMSim class,...">
<polygon fill="none" stroke="black" points="1148,-403.5 1148,-422.5 1215,-422.5 1215,-403.5 1148,-403.5"/>
<text text-anchor="middle" x="1181.5" y="-410.5" font-family="Helvetica,sans-Serif" font-size="10.00">OMSim.hh</text>
</a>
</g>
</g>
<!-- Node1&#45;&gt;Node2 -->
<g id="edge1" class="edge">
<title>Node1&#45;&gt;Node2</title>
<path fill="none" stroke="midnightblue" d="M1854.86,-465.5C1740.14,-456.73 1355.29,-427.29 1225.03,-417.33"/>
<polygon fill="midnightblue" stroke="midnightblue" points="1225.25,-413.84 1215.01,-416.56 1224.72,-420.82 1225.25,-413.84"/>
</g>
<!-- Node7 -->
<g id="node7" class="node">
<title>Node7</title>
<g id="a_node7"><a xlink:href="_o_m_sim_logger_8hh_source.html" target="_top" xlink:title=" ">
<polygon fill="none" stroke="black" points="750,-67.5 750,-86.5 849,-86.5 849,-67.5 750,-67.5"/>
<text text-anchor="middle" x="799.5" y="-74.5" font-family="Helvetica,sans-Serif" font-size="10.00">OMSimLogger.hh</text>
</a>
</g>
</g>
<!-- Node1&#45;&gt;Node7 -->
<g id="edge59" class="edge">
<title>Node1&#45;&gt;Node7</title>
<path fill="none" stroke="midnightblue" d="M1905.44,-459.25C1934.95,-443.45 1990.5,-407.19 1990.5,-358 1990.5,-358 1990.5,-358 1990.5,-188 1990.5,-130.58 1101.2,-90.26 859.5,-80.36"/>
<polygon fill="midnightblue" stroke="midnightblue" points="859.29,-76.85 849.16,-79.94 859.01,-83.84 859.29,-76.85"/>
</g>
<!-- Node58 -->
<g id="node45" class="node">
<title>Node58</title>
<g id="a_node45"><a xlink:title=" ">
<polygon fill="none" stroke="#bfbfbf" points="1812.5,-347.5 1812.5,-366.5 1962.5,-366.5 1962.5,-347.5 1812.5,-347.5"/>
<text text-anchor="middle" x="1887.5" y="-354.5" font-family="Helvetica,sans-Serif" font-size="10.00">boost/program_options.hpp</text>
</a>
</g>
</g>
<!-- Node1&#45;&gt;Node58 -->
<g id="edge62" class="edge">
<title>Node1&#45;&gt;Node58</title>
<path fill="none" stroke="midnightblue" d="M1887.5,-459.37C1887.5,-441.62 1887.5,-400.67 1887.5,-376.6"/>
<polygon fill="midnightblue" stroke="midnightblue" points="1891,-376.59 1887.5,-366.59 1884,-376.59 1891,-376.59"/>
</g>
<!-- Node59 -->
<g id="node46" class="node">
<title>Node59</title>
<g id="a_node46"><a xlink:href="_o_m_sim_tools_8hh.html" target="_top" xlink:title="Definition of Tools namespace, a collection of helper methods.">
<polygon fill="none" stroke="black" points="73.5,-179.5 73.5,-198.5 165.5,-198.5 165.5,-179.5 73.5,-179.5"/>
<text text-anchor="middle" x="119.5" y="-186.5" font-family="Helvetica,sans-Serif" font-size="10.00">OMSimTools.hh</text>
</a>
</g>
</g>
<!-- Node1&#45;&gt;Node59 -->
<g id="edge53" class="edge">
<title>Node1&#45;&gt;Node59</title>
<path fill="none" stroke="midnightblue" d="M1854.86,-467.83C1606.86,-466.36 29.5,-453.27 29.5,-358 29.5,-358 29.5,-358 29.5,-300 29.5,-269.9 30.4,-259.05 48.5,-235 58.94,-221.13 75,-210.43 89.21,-202.96"/>
<polygon fill="midnightblue" stroke="midnightblue" points="90.8,-206.08 98.21,-198.51 87.69,-199.81 90.8,-206.08"/>
</g>
<!-- Node62 -->
<g id="node49" class="node">
<title>Node62</title>
<g id="a_node49"><a xlink:href="_o_m_sim_action_initialization_8hh_source.html" target="_top" xlink:title=" ">
<polygon fill="none" stroke="black" points="2020.5,-403.5 2020.5,-422.5 2178.5,-422.5 2178.5,-403.5 2020.5,-403.5"/>
<text text-anchor="middle" x="2099.5" y="-410.5" font-family="Helvetica,sans-Serif" font-size="10.00">OMSimActionInitialization.hh</text>
</a>
</g>
</g>
<!-- Node1&#45;&gt;Node62 -->
<g id="edge60" class="edge">
<title>Node1&#45;&gt;Node62</title>
<path fill="none" stroke="midnightblue" d="M1920.16,-459.68C1956.67,-450.38 2015.96,-435.28 2056.28,-425.01"/>
<polygon fill="midnightblue" stroke="midnightblue" points="2057.28,-428.37 2066.1,-422.51 2055.55,-421.58 2057.28,-428.37"/>
</g>
<!-- Node3 -->
<g id="node3" class="node">
<title>Node3</title>
<g id="a_node3"><a xlink:href="_o_m_sim_detector_construction_8hh_source.html" target="_top" xlink:title=" ">
<polygon fill="none" stroke="black" points="400.5,-347.5 400.5,-366.5 570.5,-366.5 570.5,-347.5 400.5,-347.5"/>
<text text-anchor="middle" x="485.5" y="-354.5" font-family="Helvetica,sans-Serif" font-size="10.00">OMSimDetectorConstruction.hh</text>
</a>
</g>
</g>
<!-- Node2&#45;&gt;Node3 -->
<g id="edge2" class="edge">
<title>Node2&#45;&gt;Node3</title>
<path fill="none" stroke="midnightblue" d="M1147.87,-409.73C1057.86,-403.61 803.77,-385.99 580.81,-367.1"/>
<polygon fill="midnightblue" stroke="midnightblue" points="580.81,-363.58 570.55,-366.22 580.21,-370.56 580.81,-363.58"/>
</g>
<!-- Node39 -->
<g id="node26" class="node">
<title>Node39</title>
<g id="a_node26"><a xlink:title=" ">
<polygon fill="none" stroke="#bfbfbf" points="589,-347.5 589,-366.5 710,-366.5 710,-347.5 589,-347.5"/>
<text text-anchor="middle" x="649.5" y="-354.5" font-family="Helvetica,sans-Serif" font-size="10.00">OMSimPhysicsList.hh</text>
</a>
</g>
</g>
<!-- Node2&#45;&gt;Node39 -->
<g id="edge28" class="edge">
<title>Node2&#45;&gt;Node39</title>
<path fill="none" stroke="midnightblue" d="M1147.93,-408.94C1072.3,-402 882.81,-384.29 724.5,-367 723.03,-366.84 721.55,-366.68 720.06,-366.51"/>
<polygon fill="midnightblue" stroke="midnightblue" points="720.4,-363.03 710.07,-365.38 719.61,-369.98 720.4,-363.03"/>
</g>
<!-- Node40 -->
<g id="node27" class="node">
<title>Node40</title>
<g id="a_node27"><a xlink:title=" ">
<polygon fill="none" stroke="#bfbfbf" points="766,-347.5 766,-366.5 951,-366.5 951,-347.5 766,-347.5"/>
<text text-anchor="middle" x="858.5" y="-354.5" font-family="Helvetica,sans-Serif" font-size="10.00">OMSimPrimaryGeneratorAction.hh</text>
</a>
</g>
</g>
<!-- Node2&#45;&gt;Node40 -->
<g id="edge29" class="edge">
<title>Node2&#45;&gt;Node40</title>
<path fill="none" stroke="midnightblue" d="M1147.85,-406.37C1093.9,-397.36 987.28,-379.53 919.62,-368.22"/>
<polygon fill="midnightblue" stroke="midnightblue" points="919.96,-364.73 909.52,-366.53 918.8,-371.63 919.96,-364.73"/>
</g>
<!-- Node41 -->
<g id="node28" class="node">
<title>Node41</title>
<g id="a_node28"><a xlink:href="_o_m_sim_run_action_8hh_source.html" target="_top" xlink:title=" ">
<polygon fill="none" stroke="black" points="251.5,-291.5 251.5,-310.5 367.5,-310.5 367.5,-291.5 251.5,-291.5"/>
<text text-anchor="middle" x="309.5" y="-298.5" font-family="Helvetica,sans-Serif" font-size="10.00">OMSimRunAction.hh</text>
</a>
</g>
</g>
<!-- Node2&#45;&gt;Node41 -->
<g id="edge30" class="edge">
<title>Node2&#45;&gt;Node41</title>
<path fill="none" stroke="midnightblue" d="M1147.65,-411.28C1005.74,-408.07 462.84,-394.14 391.5,-367 364.32,-356.66 339.06,-333.83 323.96,-318.18"/>
<polygon fill="midnightblue" stroke="midnightblue" points="326.41,-315.67 317.03,-310.75 321.29,-320.45 326.41,-315.67"/>
</g>
<!-- Node45 -->
<g id="node32" class="node">
<title>Node45</title>
<g id="a_node32"><a xlink:title=" ">
<polygon fill="none" stroke="#bfbfbf" points="969,-347.5 969,-366.5 1094,-366.5 1094,-347.5 969,-347.5"/>
<text text-anchor="middle" x="1031.5" y="-354.5" font-family="Helvetica,sans-Serif" font-size="10.00">OMSimEventAction.hh</text>
</a>
</g>
</g>
<!-- Node2&#45;&gt;Node45 -->
<g id="edge36" class="edge">
<title>Node2&#45;&gt;Node45</title>
<path fill="none" stroke="midnightblue" d="M1157.73,-403.44C1132.61,-394.4 1092.79,-380.06 1064.6,-369.92"/>
<polygon fill="midnightblue" stroke="midnightblue" points="1065.75,-366.61 1055.16,-366.52 1063.38,-373.2 1065.75,-366.61"/>
</g>
<!-- Node46 -->
<g id="node33" class="node">
<title>Node46</title>
<g id="a_node33"><a xlink:href="_o_m_sim_tracking_action_8hh_source.html" target="_top" xlink:title=" ">
<polygon fill="none" stroke="black" points="1112.5,-347.5 1112.5,-366.5 1250.5,-366.5 1250.5,-347.5 1112.5,-347.5"/>
<text text-anchor="middle" x="1181.5" y="-354.5" font-family="Helvetica,sans-Serif" font-size="10.00">OMSimTrackingAction.hh</text>
</a>
</g>
</g>
<!-- Node2&#45;&gt;Node46 -->
<g id="edge37" class="edge">
<title>Node2&#45;&gt;Node46</title>
<path fill="none" stroke="midnightblue" d="M1181.5,-403.08C1181.5,-396.01 1181.5,-385.86 1181.5,-376.99"/>
<polygon fill="midnightblue" stroke="midnightblue" points="1185,-376.75 1181.5,-366.75 1178,-376.75 1185,-376.75"/>
</g>
<!-- Node48 -->
<g id="node35" class="node">
<title>Node48</title>
<g id="a_node35"><a xlink:href="_o_m_sim_stepping_action_8hh.html" target="_top" xlink:title="Defines OMSimSteppingAction.Currently it only checks for trapped photons.">
<polygon fill="none" stroke="black" points="1268.5,-347.5 1268.5,-366.5 1408.5,-366.5 1408.5,-347.5 1268.5,-347.5"/>
<text text-anchor="middle" x="1338.5" y="-354.5" font-family="Helvetica,sans-Serif" font-size="10.00">OMSimSteppingAction.hh</text>
</a>
</g>
</g>
<!-- Node2&#45;&gt;Node48 -->
<g id="edge39" class="edge">
<title>Node2&#45;&gt;Node48</title>
<path fill="none" stroke="midnightblue" d="M1206.38,-403.44C1232.79,-394.36 1274.72,-379.94 1304.24,-369.78"/>
<polygon fill="midnightblue" stroke="midnightblue" points="1305.42,-373.08 1313.74,-366.52 1303.14,-366.46 1305.42,-373.08"/>
</g>
<!-- Node50 -->
<g id="node37" class="node">
<title>Node50</title>
<g id="a_node37"><a xlink:href="_o_m_sim_u_iinterface_8hh.html" target="_top" xlink:title=" ">
<polygon fill="none" stroke="black" points="859,-291.5 859,-310.5 980,-310.5 980,-291.5 859,-291.5"/>
<text text-anchor="middle" x="919.5" y="-298.5" font-family="Helvetica,sans-Serif" font-size="10.00">OMSimUIinterface.hh</text>
</a>
</g>
</g>
<!-- Node2&#45;&gt;Node50 -->
<g id="edge41" class="edge">
<title>Node2&#45;&gt;Node50</title>
<path fill="none" stroke="midnightblue" d="M1147.79,-410.97C1051.85,-407.69 782.55,-395.96 756.5,-367 750.55,-360.39 751.12,-354.07 756.5,-347 768.34,-331.44 812,-319.89 851.15,-312.39"/>
<polygon fill="midnightblue" stroke="midnightblue" points="851.79,-315.83 860.98,-310.57 850.51,-308.95 851.79,-315.83"/>
</g>
<!-- Node55 -->
<g id="node42" class="node">
<title>Node55</title>
<g id="a_node42"><a xlink:title=" ">
<polygon fill="none" stroke="#bfbfbf" points="1427,-347.5 1427,-366.5 1548,-366.5 1548,-347.5 1427,-347.5"/>
<text text-anchor="middle" x="1487.5" y="-354.5" font-family="Helvetica,sans-Serif" font-size="10.00">G4MTRunManager.hh</text>
</a>
</g>
</g>
<!-- Node2&#45;&gt;Node55 -->
<g id="edge49" class="edge">
<title>Node2&#45;&gt;Node55</title>
<path fill="none" stroke="midnightblue" d="M1215.12,-406.07C1266.7,-396.96 1366.03,-379.44 1429.42,-368.25"/>
<polygon fill="midnightblue" stroke="midnightblue" points="1430.03,-371.7 1439.27,-366.51 1428.81,-364.8 1430.03,-371.7"/>
</g>
<!-- Node56 -->
<g id="node43" class="node">
<title>Node56</title>
<g id="a_node43"><a xlink:title=" ">
<polygon fill="none" stroke="#bfbfbf" points="1566,-347.5 1566,-366.5 1673,-366.5 1673,-347.5 1566,-347.5"/>
<text text-anchor="middle" x="1619.5" y="-354.5" font-family="Helvetica,sans-Serif" font-size="10.00">G4VisExecutive.hh</text>
</a>
</g>
</g>
<!-- Node2&#45;&gt;Node56 -->
<g id="edge50" class="edge">
<title>Node2&#45;&gt;Node56</title>
<path fill="none" stroke="midnightblue" d="M1215.15,-408.22C1279.22,-400.96 1423.43,-384.37 1555.97,-367.04"/>
<polygon fill="midnightblue" stroke="midnightblue" points="1556.44,-370.51 1565.9,-365.74 1555.52,-363.57 1556.44,-370.51"/>
</g>
<!-- Node57 -->
<g id="node44" class="node">
<title>Node57</title>
<g id="a_node44"><a xlink:title=" ">
<polygon fill="none" stroke="#bfbfbf" points="1691,-347.5 1691,-366.5 1794,-366.5 1794,-347.5 1691,-347.5"/>
<text text-anchor="middle" x="1742.5" y="-354.5" font-family="Helvetica,sans-Serif" font-size="10.00">G4UIExecutive.hh</text>
</a>
</g>
</g>
<!-- Node2&#45;&gt;Node57 -->
<g id="edge51" class="edge">
<title>Node2&#45;&gt;Node57</title>
<path fill="none" stroke="midnightblue" d="M1215.22,-409.63C1294.46,-403.92 1498.89,-388.35 1680.92,-367"/>
<polygon fill="midnightblue" stroke="midnightblue" points="1681.42,-370.47 1690.94,-365.82 1680.6,-363.51 1681.42,-370.47"/>
</g>
<!-- Node2&#45;&gt;Node58 -->
<g id="edge52" class="edge">
<title>Node2&#45;&gt;Node58</title>
<path fill="none" stroke="midnightblue" d="M1215.19,-409.95C1307.19,-404.28 1570.68,-387.47 1802.13,-367"/>
<polygon fill="midnightblue" stroke="midnightblue" points="1802.78,-370.46 1812.43,-366.09 1802.16,-363.48 1802.78,-370.46"/>
</g>
<!-- Node4 -->
<g id="node4" class="node">
<title>Node4</title>
<g id="a_node4"><a xlink:href="_o_m_sim_optical_module_8hh_source.html" target="_top" xlink:title=" ">
<polygon fill="none" stroke="black" points="417,-291.5 417,-310.5 554,-310.5 554,-291.5 417,-291.5"/>
<text text-anchor="middle" x="485.5" y="-298.5" font-family="Helvetica,sans-Serif" font-size="10.00">OMSimOpticalModule.hh</text>
</a>
</g>
</g>
<!-- Node3&#45;&gt;Node4 -->
<g id="edge3" class="edge">
<title>Node3&#45;&gt;Node4</title>
<path fill="none" stroke="midnightblue" d="M485.5,-347.08C485.5,-340.01 485.5,-329.86 485.5,-320.99"/>
<polygon fill="midnightblue" stroke="midnightblue" points="489,-320.75 485.5,-310.75 482,-320.75 489,-320.75"/>
</g>
<!-- Node37 -->
<g id="node24" class="node">
<title>Node37</title>
<g id="a_node24"><a xlink:title=" ">
<polygon fill="none" stroke="#bfbfbf" points="572.5,-291.5 572.5,-310.5 634.5,-310.5 634.5,-291.5 572.5,-291.5"/>
<text text-anchor="middle" x="603.5" y="-298.5" font-family="Helvetica,sans-Serif" font-size="10.00">G4Orb.hh</text>
</a>
</g>
</g>
<!-- Node3&#45;&gt;Node37 -->
<g id="edge26" class="edge">
<title>Node3&#45;&gt;Node37</title>
<path fill="none" stroke="midnightblue" d="M504.2,-347.44C523.44,-338.64 553.65,-324.81 575.7,-314.72"/>
<polygon fill="midnightblue" stroke="midnightblue" points="577.25,-317.86 584.89,-310.52 574.34,-311.5 577.25,-317.86"/>
</g>
<!-- Node38 -->
<g id="node25" class="node">
<title>Node38</title>
<g id="a_node25"><a xlink:title=" ">
<polygon fill="none" stroke="#bfbfbf" points="652.5,-291.5 652.5,-310.5 830.5,-310.5 830.5,-291.5 652.5,-291.5"/>
<text text-anchor="middle" x="741.5" y="-298.5" font-family="Helvetica,sans-Serif" font-size="10.00">G4VUserDetectorConstruction.hh</text>
</a>
</g>
</g>
<!-- Node3&#45;&gt;Node38 -->
<g id="edge27" class="edge">
<title>Node3&#45;&gt;Node38</title>
<path fill="none" stroke="midnightblue" d="M526.06,-347.44C570.82,-338 642.88,-322.8 691.2,-312.61"/>
<polygon fill="midnightblue" stroke="midnightblue" points="692.06,-316.01 701.13,-310.52 690.62,-309.16 692.06,-316.01"/>
</g>
<!-- Node5 -->
<g id="node5" class="node">
<title>Node5</title>
<g id="a_node5"><a xlink:href="abc_detector_component_8hh.html" target="_top" xlink:title="Provides helper base class abcDetectorComponent for constructing and managing detector components in ...">
<polygon fill="none" stroke="red" points="726,-179.5 726,-198.5 873,-198.5 873,-179.5 726,-179.5"/>
<text text-anchor="middle" x="799.5" y="-186.5" font-family="Helvetica,sans-Serif" font-size="10.00">abcDetectorComponent.hh</text>
</a>
</g>
</g>
<!-- Node4&#45;&gt;Node5 -->
<g id="edge4" class="edge">
<title>Node4&#45;&gt;Node5</title>
<path fill="none" stroke="midnightblue" d="M546.16,-291.47C616.4,-281.26 724.67,-264.37 741.5,-255 761.85,-243.67 778.71,-222.44 788.91,-207.33"/>
<polygon fill="midnightblue" stroke="midnightblue" points="791.9,-209.15 794.37,-198.85 786.02,-205.36 791.9,-209.15"/>
</g>
<!-- Node26 -->
<g id="node14" class="node">
<title>Node26</title>
<g id="a_node14"><a xlink:href="_o_m_sim_hit_manager_8hh.html" target="_top" xlink:title="Defines structures and classes related to optical module photon hit management.">
<polygon fill="none" stroke="black" points="424,-235.5 424,-254.5 547,-254.5 547,-235.5 424,-235.5"/>
<text text-anchor="middle" x="485.5" y="-242.5" font-family="Helvetica,sans-Serif" font-size="10.00">OMSimHitManager.hh</text>
</a>
</g>
</g>
<!-- Node4&#45;&gt;Node26 -->
<g id="edge13" class="edge">
<title>Node4&#45;&gt;Node26</title>
<path fill="none" stroke="midnightblue" d="M485.5,-291.08C485.5,-284.01 485.5,-273.86 485.5,-264.99"/>
<polygon fill="midnightblue" stroke="midnightblue" points="489,-264.75 485.5,-254.75 482,-264.75 489,-264.75"/>
</g>
<!-- Node34 -->
<g id="node23" class="node">
<title>Node34</title>
<g id="a_node23"><a xlink:href="_o_m_sim_p_m_t_construction_8hh.html" target="_top" xlink:title="Construction of the PMTs.">
<polygon fill="none" stroke="red" points="566,-235.5 566,-254.5 715,-254.5 715,-235.5 566,-235.5"/>
<text text-anchor="middle" x="640.5" y="-242.5" font-family="Helvetica,sans-Serif" font-size="10.00">OMSimPMTConstruction.hh</text>
</a>
</g>
</g>
<!-- Node4&#45;&gt;Node34 -->
<g id="edge22" class="edge">
<title>Node4&#45;&gt;Node34</title>
<path fill="none" stroke="midnightblue" d="M510.06,-291.44C536.02,-282.4 577.17,-268.06 606.3,-257.92"/>
<polygon fill="midnightblue" stroke="midnightblue" points="607.76,-261.11 616.05,-254.52 605.46,-254.5 607.76,-261.11"/>
</g>
<!-- Node6 -->
<g id="node6" class="node">
<title>Node6</title>
<g id="a_node6"><a xlink:href="_o_m_sim_input_data_8hh.html" target="_top" xlink:title="Definition of ParameterTable and OMSimInputData.">
<polygon fill="none" stroke="red" points="742,-123.5 742,-142.5 857,-142.5 857,-123.5 742,-123.5"/>
<text text-anchor="middle" x="799.5" y="-130.5" font-family="Helvetica,sans-Serif" font-size="10.00">OMSimInputData.hh</text>
</a>
</g>
</g>
<!-- Node5&#45;&gt;Node6 -->
<g id="edge5" class="edge">
<title>Node5&#45;&gt;Node6</title>
<path fill="none" stroke="midnightblue" d="M799.5,-179.08C799.5,-172.01 799.5,-161.86 799.5,-152.99"/>
<polygon fill="midnightblue" stroke="midnightblue" points="803,-152.75 799.5,-142.75 796,-152.75 803,-152.75"/>
</g>
<!-- Node22 -->
<g id="node12" class="node">
<title>Node22</title>
<g id="a_node12"><a xlink:title=" ">
<polygon fill="none" stroke="#bfbfbf" points="875,-123.5 875,-142.5 982,-142.5 982,-123.5 875,-123.5"/>
<text text-anchor="middle" x="928.5" y="-130.5" font-family="Helvetica,sans-Serif" font-size="10.00">G4Transform3D.hh</text>
</a>
</g>
</g>
<!-- Node5&#45;&gt;Node22 -->
<g id="edge11" class="edge">
<title>Node5&#45;&gt;Node22</title>
<path fill="none" stroke="midnightblue" d="M819.94,-179.44C841.17,-170.56 874.6,-156.56 898.75,-146.45"/>
<polygon fill="midnightblue" stroke="midnightblue" points="900.28,-149.61 908.16,-142.52 897.58,-143.15 900.28,-149.61"/>
</g>
<!-- Node23 -->
<g id="node13" class="node">
<title>Node23</title>
<g id="a_node13"><a xlink:title=" ">
<polygon fill="none" stroke="#bfbfbf" points="615.5,-123.5 615.5,-142.5 723.5,-142.5 723.5,-123.5 615.5,-123.5"/>
<text text-anchor="middle" x="669.5" y="-130.5" font-family="Helvetica,sans-Serif" font-size="10.00">G4VisAttributes.hh</text>
</a>
</g>
</g>
<!-- Node5&#45;&gt;Node23 -->
<g id="edge12" class="edge">
<title>Node5&#45;&gt;Node23</title>
<path fill="none" stroke="midnightblue" d="M778.9,-179.44C757.51,-170.56 723.82,-156.56 699.48,-146.45"/>
<polygon fill="midnightblue" stroke="midnightblue" points="700.58,-143.12 690,-142.52 697.89,-149.58 700.58,-143.12"/>
</g>
<!-- Node6&#45;&gt;Node7 -->
<g id="edge6" class="edge">
<title>Node6&#45;&gt;Node7</title>
<path fill="none" stroke="midnightblue" d="M799.5,-123.08C799.5,-116.01 799.5,-105.86 799.5,-96.99"/>
<polygon fill="midnightblue" stroke="midnightblue" points="803,-96.75 799.5,-86.75 796,-96.75 803,-96.75"/>
</g>
<!-- Node8 -->
<g id="node8" class="node">
<title>Node8</title>
<g id="a_node8"><a xlink:title=" ">
<polygon fill="none" stroke="#bfbfbf" points="582,-6 582,-25 675,-25 675,-6 582,-6"/>
<text text-anchor="middle" x="628.5" y="-13" font-family="Helvetica,sans-Serif" font-size="10.00">spdlog/spdlog.h</text>
</a>
</g>
</g>
<!-- Node7&#45;&gt;Node8 -->
<g id="edge7" class="edge">
<title>Node7&#45;&gt;Node8</title>
<path fill="none" stroke="midnightblue" d="M775,-67.48C745.54,-57.22 695.92,-39.96 662.7,-28.4"/>
<polygon fill="midnightblue" stroke="midnightblue" points="663.55,-24.99 652.95,-25.01 661.25,-31.6 663.55,-24.99"/>
</g>
<!-- Node9 -->
<g id="node9" class="node">
<title>Node9</title>
<g id="a_node9"><a xlink:title=" ">
<polygon fill="none" stroke="#bfbfbf" points="693,-0.5 693,-30.5 804,-30.5 804,-0.5 693,-0.5"/>
<text text-anchor="start" x="701" y="-18.5" font-family="Helvetica,sans-Serif" font-size="10.00">spdlog/sinks/stdout</text>
<text text-anchor="middle" x="748.5" y="-7.5" font-family="Helvetica,sans-Serif" font-size="10.00">_color_sinks.h</text>
</a>
</g>
</g>
<!-- Node7&#45;&gt;Node9 -->
<g id="edge8" class="edge">
<title>Node7&#45;&gt;Node9</title>
<path fill="none" stroke="midnightblue" d="M792.19,-67.48C785.67,-59.87 775.84,-48.4 767.16,-38.26"/>
<polygon fill="midnightblue" stroke="midnightblue" points="769.69,-35.84 760.52,-30.52 764.37,-40.39 769.69,-35.84"/>
</g>
<!-- Node10 -->
<g id="node10" class="node">
<title>Node10</title>
<g id="a_node10"><a xlink:title=" ">
<polygon fill="none" stroke="#bfbfbf" points="822.5,-6 822.5,-25 880.5,-25 880.5,-6 822.5,-6"/>
<text text-anchor="middle" x="851.5" y="-13" font-family="Helvetica,sans-Serif" font-size="10.00">memory</text>
</a>
</g>
</g>
<!-- Node7&#45;&gt;Node10 -->
<g id="edge9" class="edge">
<title>Node7&#45;&gt;Node10</title>
<path fill="none" stroke="midnightblue" d="M806.95,-67.48C814.83,-58.46 827.44,-44.02 837.24,-32.81"/>
<polygon fill="midnightblue" stroke="midnightblue" points="840.12,-34.84 844.06,-25.01 834.85,-30.24 840.12,-34.84"/>
</g>
<!-- Node11 -->
<g id="node11" class="node">
<title>Node11</title>
<g id="a_node11"><a xlink:title=" ">
<polygon fill="none" stroke="#bfbfbf" points="898.5,-6 898.5,-25 996.5,-25 996.5,-6 898.5,-6"/>
<text text-anchor="middle" x="947.5" y="-13" font-family="Helvetica,sans-Serif" font-size="10.00">spdlog/fmt/fmt.h</text>
</a>
</g>
</g>
<!-- Node7&#45;&gt;Node11 -->
<g id="edge10" class="edge">
<title>Node7&#45;&gt;Node11</title>
<path fill="none" stroke="midnightblue" d="M820.7,-67.48C845.87,-57.36 888.04,-40.4 916.78,-28.85"/>
<polygon fill="midnightblue" stroke="midnightblue" points="918.36,-31.99 926.33,-25.01 915.75,-25.49 918.36,-31.99"/>
</g>
<!-- Node27 -->
<g id="node15" class="node">
<title>Node27</title>
<g id="a_node15"><a xlink:href="_o_m_sim_p_m_t_response_8hh.html" target="_top" xlink:title="Simulation of PMT response.">
<polygon fill="none" stroke="red" points="573,-179.5 573,-198.5 708,-198.5 708,-179.5 573,-179.5"/>
<text text-anchor="middle" x="640.5" y="-186.5" font-family="Helvetica,sans-Serif" font-size="10.00">OMSimPMTResponse.hh</text>
</a>
</g>
</g>
<!-- Node26&#45;&gt;Node27 -->
<g id="edge14" class="edge">
<title>Node26&#45;&gt;Node27</title>
<path fill="none" stroke="midnightblue" d="M510.06,-235.44C536.02,-226.4 577.17,-212.06 606.3,-201.92"/>
<polygon fill="midnightblue" stroke="midnightblue" points="607.76,-205.11 616.05,-198.52 605.46,-198.5 607.76,-205.11"/>
</g>
<!-- Node32 -->
<g id="node19" class="node">
<title>Node32</title>
<g id="a_node19"><a xlink:title=" ">
<polygon fill="none" stroke="#bfbfbf" points="343,-179.5 343,-198.5 446,-198.5 446,-179.5 343,-179.5"/>
<text text-anchor="middle" x="394.5" y="-186.5" font-family="Helvetica,sans-Serif" font-size="10.00">G4ThreeVector.hh</text>
</a>
</g>
</g>
<!-- Node26&#45;&gt;Node32 -->
<g id="edge18" class="edge">
<title>Node26&#45;&gt;Node32</title>
<path fill="none" stroke="midnightblue" d="M470.88,-235.32C456.55,-226.82 434.49,-213.73 417.75,-203.8"/>
<polygon fill="midnightblue" stroke="midnightblue" points="419.47,-200.75 409.08,-198.65 415.9,-206.77 419.47,-200.75"/>
</g>
<!-- Node33 -->
<g id="node20" class="node">
<title>Node33</title>
<g id="a_node20"><a xlink:title=" ">
<polygon fill="none" stroke="#bfbfbf" points="891,-179.5 891,-198.5 946,-198.5 946,-179.5 891,-179.5"/>
<text text-anchor="middle" x="918.5" y="-186.5" font-family="Helvetica,sans-Serif" font-size="10.00">fstream</text>
</a>
</g>
</g>
<!-- Node26&#45;&gt;Node33 -->
<g id="edge19" class="edge">
<title>Node26&#45;&gt;Node33</title>
<path fill="none" stroke="midnightblue" d="M547.07,-236.14C550.26,-235.75 553.42,-235.37 556.5,-235 697.57,-218.25 736.64,-223.95 880.61,-198.94"/>
<polygon fill="midnightblue" stroke="midnightblue" points="881.46,-202.34 890.7,-197.17 880.25,-195.45 881.46,-202.34"/>
</g>
<!-- Node18 -->
<g id="node21" class="node">
<title>Node18</title>
<g id="a_node21"><a xlink:title=" ">
<polygon fill="none" stroke="#bfbfbf" points="464.5,-179.5 464.5,-198.5 554.5,-198.5 554.5,-179.5 464.5,-179.5"/>
<text text-anchor="middle" x="509.5" y="-186.5" font-family="Helvetica,sans-Serif" font-size="10.00">G4AutoLock.hh</text>
</a>
</g>
</g>
<!-- Node26&#45;&gt;Node18 -->
<g id="edge20" class="edge">
<title>Node26&#45;&gt;Node18</title>
<path fill="none" stroke="midnightblue" d="M489.46,-235.08C492.71,-227.77 497.42,-217.18 501.45,-208.1"/>
<polygon fill="midnightblue" stroke="midnightblue" points="504.75,-209.31 505.61,-198.75 498.35,-206.47 504.75,-209.31"/>
</g>
<!-- Node19 -->
<g id="node22" class="node">
<title>Node19</title>
<g id="a_node22"><a xlink:title=" ">
<polygon fill="none" stroke="#bfbfbf" points="230.5,-179.5 230.5,-198.5 324.5,-198.5 324.5,-179.5 230.5,-179.5"/>
<text text-anchor="middle" x="277.5" y="-186.5" font-family="Helvetica,sans-Serif" font-size="10.00">G4Threading.hh</text>
</a>
</g>
</g>
<!-- Node26&#45;&gt;Node19 -->
<g id="edge21" class="edge">
<title>Node26&#45;&gt;Node19</title>
<path fill="none" stroke="midnightblue" d="M452.54,-235.44C416.71,-226.14 359.34,-211.25 320.11,-201.06"/>
<polygon fill="midnightblue" stroke="midnightblue" points="320.86,-197.64 310.3,-198.52 319.1,-204.42 320.86,-197.64"/>
</g>
<!-- Node29 -->
<g id="node16" class="node">
<title>Node29</title>
<g id="a_node16"><a xlink:title=" ">
<polygon fill="none" stroke="#bfbfbf" points="1067.5,-123.5 1067.5,-142.5 1105.5,-142.5 1105.5,-123.5 1067.5,-123.5"/>
<text text-anchor="middle" x="1086.5" y="-130.5" font-family="Helvetica,sans-Serif" font-size="10.00">map</text>
</a>
</g>
</g>
<!-- Node27&#45;&gt;Node29 -->
<g id="edge15" class="edge">
<title>Node27&#45;&gt;Node29</title>
<path fill="none" stroke="midnightblue" d="M708.24,-179.8C807.01,-167.84 986.45,-146.11 1056.94,-137.58"/>
<polygon fill="midnightblue" stroke="midnightblue" points="1057.78,-141 1067.29,-136.33 1056.94,-134.05 1057.78,-141"/>
</g>
<!-- Node30 -->
<g id="node17" class="node">
<title>Node30</title>
<g id="a_node17"><a xlink:title=" ">
<polygon fill="none" stroke="#bfbfbf" points="478,-123.5 478,-142.5 539,-142.5 539,-123.5 478,-123.5"/>
<text text-anchor="middle" x="508.5" y="-130.5" font-family="Helvetica,sans-Serif" font-size="10.00">TGraph.h</text>
</a>
</g>
</g>
<!-- Node27&#45;&gt;Node30 -->
<g id="edge16" class="edge">
<title>Node27&#45;&gt;Node30</title>
<path fill="none" stroke="midnightblue" d="M619.58,-179.44C597.76,-170.52 563.35,-156.44 538.61,-146.32"/>
<polygon fill="midnightblue" stroke="midnightblue" points="539.9,-143.06 529.32,-142.52 537.25,-149.54 539.9,-143.06"/>
</g>
<!-- Node31 -->
<g id="node18" class="node">
<title>Node31</title>
<g id="a_node18"><a xlink:title=" ">
<polygon fill="none" stroke="#bfbfbf" points="290,-123.5 290,-142.5 343,-142.5 343,-123.5 290,-123.5"/>
<text text-anchor="middle" x="316.5" y="-130.5" font-family="Helvetica,sans-Serif" font-size="10.00">TH2D.h</text>
</a>
</g>
</g>
<!-- Node27&#45;&gt;Node31 -->
<g id="edge17" class="edge">
<title>Node27&#45;&gt;Node31</title>
<path fill="none" stroke="midnightblue" d="M589.16,-179.44C523.48,-168.5 411.31,-149.8 353.45,-140.16"/>
<polygon fill="midnightblue" stroke="midnightblue" points="353.74,-136.66 343.3,-138.47 352.59,-143.56 353.74,-136.66"/>
</g>
<!-- Node34&#45;&gt;Node5 -->
<g id="edge23" class="edge">
<title>Node34&#45;&gt;Node5</title>
<path fill="none" stroke="midnightblue" d="M665.69,-235.44C692.44,-226.36 734.9,-211.94 764.81,-201.78"/>
<polygon fill="midnightblue" stroke="midnightblue" points="766.08,-205.05 774.42,-198.52 763.83,-198.42 766.08,-205.05"/>
</g>
<!-- Node34&#45;&gt;Node27 -->
<g id="edge25" class="edge">
<title>Node34&#45;&gt;Node27</title>
<path fill="none" stroke="midnightblue" d="M640.5,-235.08C640.5,-228.01 640.5,-217.86 640.5,-208.99"/>
<polygon fill="midnightblue" stroke="midnightblue" points="644,-208.75 640.5,-198.75 637,-208.75 644,-208.75"/>
</g>
<!-- Node34&#45;&gt;Node34 -->
<g id="edge24" class="edge">
<title>Node34&#45;&gt;Node34</title>
<path fill="none" stroke="midnightblue" d="M679.95,-254.53C706.76,-257.31 733,-254.13 733,-245 733,-237.01 712.91,-233.58 689.93,-234.71"/>
<polygon fill="midnightblue" stroke="midnightblue" points="689.65,-231.22 679.95,-235.47 690.19,-238.2 689.65,-231.22"/>
</g>
<!-- Node41&#45;&gt;Node7 -->
<g id="edge33" class="edge">
<title>Node41&#45;&gt;Node7</title>
<path fill="none" stroke="midnightblue" d="M278.72,-291.43C260.41,-284.65 238.47,-273.22 226.5,-255 191.68,-202.03 222.7,-149.01 280.5,-123 361.06,-86.74 620.89,-79.62 739.48,-78.28"/>
<polygon fill="midnightblue" stroke="midnightblue" points="739.86,-81.77 749.83,-78.17 739.79,-74.77 739.86,-81.77"/>
</g>
<!-- Node41&#45;&gt;Node26 -->
<g id="edge32" class="edge">
<title>Node41&#45;&gt;Node26</title>
<path fill="none" stroke="midnightblue" d="M337.39,-291.44C367.25,-282.28 414.81,-267.69 447.96,-257.52"/>
<polygon fill="midnightblue" stroke="midnightblue" points="449.21,-260.8 457.74,-254.52 447.16,-254.1 449.21,-260.8"/>
</g>
<!-- Node42 -->
<g id="node29" class="node">
<title>Node42</title>
<g id="a_node29"><a xlink:title=" ">
<polygon fill="none" stroke="#bfbfbf" points="58,-235.5 58,-254.5 175,-254.5 175,-235.5 58,-235.5"/>
<text text-anchor="middle" x="116.5" y="-242.5" font-family="Helvetica,sans-Serif" font-size="10.00">G4UserRunAction.hh</text>
</a>
</g>
</g>
<!-- Node41&#45;&gt;Node42 -->
<g id="edge31" class="edge">
<title>Node41&#45;&gt;Node42</title>
<path fill="none" stroke="midnightblue" d="M278.92,-291.44C245.89,-282.2 193.11,-267.44 156.73,-257.26"/>
<polygon fill="midnightblue" stroke="midnightblue" points="157.51,-253.84 146.94,-254.52 155.63,-260.58 157.51,-253.84"/>
</g>
<!-- Node43 -->
<g id="node30" class="node">
<title>Node43</title>
<g id="a_node30"><a xlink:title=" ">
<polygon fill="none" stroke="#bfbfbf" points="235.5,-235.5 235.5,-254.5 321.5,-254.5 321.5,-235.5 235.5,-235.5"/>
<text text-anchor="middle" x="278.5" y="-242.5" font-family="Helvetica,sans-Serif" font-size="10.00">Randomize.hh</text>
</a>
</g>
</g>
<!-- Node41&#45;&gt;Node43 -->
<g id="edge34" class="edge">
<title>Node41&#45;&gt;Node43</title>
<path fill="none" stroke="midnightblue" d="M304.38,-291.08C300.09,-283.61 293.84,-272.72 288.56,-263.52"/>
<polygon fill="midnightblue" stroke="midnightblue" points="291.54,-261.68 283.52,-254.75 285.47,-265.17 291.54,-261.68"/>
</g>
<!-- Node44 -->
<g id="node31" class="node">
<title>Node44</title>
<g id="a_node31"><a xlink:title=" ">
<polygon fill="none" stroke="#bfbfbf" points="339.5,-235.5 339.5,-254.5 403.5,-254.5 403.5,-235.5 339.5,-235.5"/>
<text text-anchor="middle" x="371.5" y="-242.5" font-family="Helvetica,sans-Serif" font-size="10.00">G4Run.hh</text>
</a>
</g>
</g>
<!-- Node41&#45;&gt;Node44 -->
<g id="edge35" class="edge">
<title>Node41&#45;&gt;Node44</title>
<path fill="none" stroke="midnightblue" d="M319.46,-291.32C328.63,-283.34 342.44,-271.31 353.53,-261.65"/>
<polygon fill="midnightblue" stroke="midnightblue" points="356.12,-264.04 361.36,-254.83 351.52,-258.76 356.12,-264.04"/>
</g>
<!-- Node47 -->
<g id="node34" class="node">
<title>Node47</title>
<g id="a_node34"><a xlink:title=" ">
<polygon fill="none" stroke="#bfbfbf" points="1112,-291.5 1112,-310.5 1251,-310.5 1251,-291.5 1112,-291.5"/>
<text text-anchor="middle" x="1181.5" y="-298.5" font-family="Helvetica,sans-Serif" font-size="10.00">G4UserTrackingAction.hh</text>
</a>
</g>
</g>
<!-- Node46&#45;&gt;Node47 -->
<g id="edge38" class="edge">
<title>Node46&#45;&gt;Node47</title>
<path fill="none" stroke="midnightblue" d="M1181.5,-347.08C1181.5,-340.01 1181.5,-329.86 1181.5,-320.99"/>
<polygon fill="midnightblue" stroke="midnightblue" points="1185,-320.75 1181.5,-310.75 1178,-320.75 1185,-320.75"/>
</g>
<!-- Node49 -->
<g id="node36" class="node">
<title>Node49</title>
<g id="a_node36"><a xlink:title=" ">
<polygon fill="none" stroke="#bfbfbf" points="1269,-291.5 1269,-310.5 1410,-310.5 1410,-291.5 1269,-291.5"/>
<text text-anchor="middle" x="1339.5" y="-298.5" font-family="Helvetica,sans-Serif" font-size="10.00">G4UserSteppingAction.hh</text>
</a>
</g>
</g>
<!-- Node48&#45;&gt;Node49 -->
<g id="edge40" class="edge">
<title>Node48&#45;&gt;Node49</title>
<path fill="none" stroke="midnightblue" d="M1338.67,-347.08C1338.8,-340.01 1338.98,-329.86 1339.15,-320.99"/>
<polygon fill="midnightblue" stroke="midnightblue" points="1342.65,-320.81 1339.34,-310.75 1335.65,-320.68 1342.65,-320.81"/>
</g>
<!-- Node51 -->
<g id="node38" class="node">
<title>Node51</title>
<g id="a_node38"><a xlink:href="_o_m_sim_command_args_table_8hh.html" target="_top" xlink:title="Definition of the OMSimCommandArgsTable singleton class, which controls user args.">
<polygon fill="none" stroke="black" points="1007.5,-235.5 1007.5,-254.5 1171.5,-254.5 1171.5,-235.5 1007.5,-235.5"/>
<text text-anchor="middle" x="1089.5" y="-242.5" font-family="Helvetica,sans-Serif" font-size="10.00">OMSimCommandArgsTable.hh</text>
</a>
</g>
</g>
<!-- Node50&#45;&gt;Node51 -->
<g id="edge42" class="edge">
<title>Node50&#45;&gt;Node51</title>
<path fill="none" stroke="midnightblue" d="M946.44,-291.44C975.16,-282.32 1020.83,-267.81 1052.82,-257.65"/>
<polygon fill="midnightblue" stroke="midnightblue" points="1054.22,-260.88 1062.69,-254.52 1052.1,-254.21 1054.22,-260.88"/>
</g>
<!-- Node54 -->
<g id="node41" class="node">
<title>Node54</title>
<g id="a_node41"><a xlink:title=" ">
<polygon fill="none" stroke="#bfbfbf" points="870.5,-235.5 870.5,-254.5 968.5,-254.5 968.5,-235.5 870.5,-235.5"/>
<text text-anchor="middle" x="919.5" y="-242.5" font-family="Helvetica,sans-Serif" font-size="10.00">G4UImanager.hh</text>
</a>
</g>
</g>
<!-- Node50&#45;&gt;Node54 -->
<g id="edge48" class="edge">
<title>Node50&#45;&gt;Node54</title>
<path fill="none" stroke="midnightblue" d="M919.5,-291.08C919.5,-284.01 919.5,-273.86 919.5,-264.99"/>
<polygon fill="midnightblue" stroke="midnightblue" points="923,-264.75 919.5,-254.75 916,-264.75 923,-264.75"/>
</g>
<!-- Node51&#45;&gt;Node7 -->
<g id="edge43" class="edge">
<title>Node51&#45;&gt;Node7</title>
<path fill="none" stroke="midnightblue" d="M1113.97,-235.44C1130.07,-228.38 1149.88,-216.63 1159.5,-199 1178.77,-163.7 1118.16,-125.08 1114.5,-123 1072.12,-98.86 938.35,-86.61 859.42,-81.33"/>
<polygon fill="midnightblue" stroke="midnightblue" points="859.33,-77.82 849.13,-80.67 858.88,-84.81 859.33,-77.82"/>
</g>
<!-- Node51&#45;&gt;Node29 -->
<g id="edge47" class="edge">
<title>Node51&#45;&gt;Node29</title>
<path fill="none" stroke="midnightblue" d="M1106,-235.34C1125.68,-223.74 1154.63,-201.97 1143.5,-179 1137.1,-165.8 1124.75,-155.3 1113.17,-147.78"/>
<polygon fill="midnightblue" stroke="midnightblue" points="1114.95,-144.77 1104.58,-142.61 1111.34,-150.77 1114.95,-144.77"/>
</g>
<!-- Node51&#45;&gt;Node33 -->
<g id="edge44" class="edge">
<title>Node51&#45;&gt;Node33</title>
<path fill="none" stroke="midnightblue" d="M1062.4,-235.44C1033.51,-226.32 987.58,-211.81 955.39,-201.65"/>
<polygon fill="midnightblue" stroke="midnightblue" points="956.06,-198.19 945.47,-198.52 953.95,-204.87 956.06,-198.19"/>
</g>
<!-- Node52 -->
<g id="node39" class="node">
<title>Node52</title>
<g id="a_node39"><a xlink:title=" ">
<polygon fill="none" stroke="#bfbfbf" points="964.5,-179.5 964.5,-198.5 1048.5,-198.5 1048.5,-179.5 964.5,-179.5"/>
<text text-anchor="middle" x="1006.5" y="-186.5" font-family="Helvetica,sans-Serif" font-size="10.00">boost/any.hpp</text>
</a>
</g>
</g>
<!-- Node51&#45;&gt;Node52 -->
<g id="edge45" class="edge">
<title>Node51&#45;&gt;Node52</title>
<path fill="none" stroke="midnightblue" d="M1076.16,-235.32C1063.34,-226.98 1043.72,-214.21 1028.56,-204.35"/>
<polygon fill="midnightblue" stroke="midnightblue" points="1030.09,-201.17 1019.8,-198.65 1026.28,-207.04 1030.09,-201.17"/>
</g>
<!-- Node53 -->
<g id="node40" class="node">
<title>Node53</title>
<g id="a_node40"><a xlink:title=" ">
<polygon fill="none" stroke="#bfbfbf" points="1066.5,-179.5 1066.5,-198.5 1134.5,-198.5 1134.5,-179.5 1066.5,-179.5"/>
<text text-anchor="middle" x="1100.5" y="-186.5" font-family="Helvetica,sans-Serif" font-size="10.00">sys/time.h</text>
</a>
</g>
</g>
<!-- Node51&#45;&gt;Node53 -->
<g id="edge46" class="edge">
<title>Node51&#45;&gt;Node53</title>
<path fill="none" stroke="midnightblue" d="M1091.32,-235.08C1092.77,-227.93 1094.87,-217.64 1096.69,-208.69"/>
<polygon fill="midnightblue" stroke="midnightblue" points="1100.15,-209.25 1098.72,-198.75 1093.29,-207.85 1100.15,-209.25"/>
</g>
<!-- Node59&#45;&gt;Node7 -->
<g id="edge54" class="edge">
<title>Node59&#45;&gt;Node7</title>
<path fill="none" stroke="midnightblue" d="M125.52,-179.32C136.24,-164.68 160.18,-135.46 188.5,-123 286.11,-80.05 605.69,-76.77 739.61,-77.37"/>
<polygon fill="midnightblue" stroke="midnightblue" points="739.68,-80.87 749.69,-77.43 739.71,-73.87 739.68,-80.87"/>
</g>
<!-- Node59&#45;&gt;Node30 -->
<g id="edge56" class="edge">
<title>Node59&#45;&gt;Node30</title>
<path fill="none" stroke="midnightblue" d="M165.65,-181.59C242.28,-170.96 394.56,-149.82 467.58,-139.68"/>
<polygon fill="midnightblue" stroke="midnightblue" points="468.34,-143.11 477.76,-138.27 467.38,-136.18 468.34,-143.11"/>
</g>
<!-- Node59&#45;&gt;Node31 -->
<g id="edge57" class="edge">
<title>Node59&#45;&gt;Node31</title>
<path fill="none" stroke="midnightblue" d="M150.72,-179.44C185.82,-169.82 242.77,-154.21 279.93,-144.02"/>
<polygon fill="midnightblue" stroke="midnightblue" points="281.13,-147.32 289.85,-141.3 279.28,-140.57 281.13,-147.32"/>
</g>
<!-- Node60 -->
<g id="node47" class="node">
<title>Node60</title>
<g id="a_node47"><a xlink:title=" ">
<polygon fill="none" stroke="#bfbfbf" points="0,-123.5 0,-142.5 67,-142.5 67,-123.5 0,-123.5"/>
<text text-anchor="middle" x="33.5" y="-130.5" font-family="Helvetica,sans-Serif" font-size="10.00">globals.hh</text>
</a>
</g>
</g>
<!-- Node59&#45;&gt;Node60 -->
<g id="edge55" class="edge">
<title>Node59&#45;&gt;Node60</title>
<path fill="none" stroke="midnightblue" d="M105.68,-179.32C92.27,-170.9 71.68,-157.97 55.91,-148.07"/>
<polygon fill="midnightblue" stroke="midnightblue" points="57.61,-145.01 47.28,-142.65 53.89,-150.94 57.61,-145.01"/>
</g>
<!-- Node61 -->
<g id="node48" class="node">
<title>Node61</title>
<g id="a_node48"><a xlink:title=" ">
<polygon fill="none" stroke="#bfbfbf" points="85,-123.5 85,-142.5 136,-142.5 136,-123.5 85,-123.5"/>
<text text-anchor="middle" x="110.5" y="-130.5" font-family="Helvetica,sans-Serif" font-size="10.00">variant</text>
</a>
</g>
</g>
<!-- Node59&#45;&gt;Node61 -->
<g id="edge58" class="edge">
<title>Node59&#45;&gt;Node61</title>
<path fill="none" stroke="midnightblue" d="M118.01,-179.08C116.82,-171.93 115.11,-161.64 113.62,-152.69"/>
<polygon fill="midnightblue" stroke="midnightblue" points="117.05,-152.04 111.96,-142.75 110.15,-153.19 117.05,-152.04"/>
</g>
<!-- Node63 -->
<g id="node50" class="node">
<title>Node63</title>
<g id="a_node50"><a xlink:title=" ">
<polygon fill="none" stroke="#bfbfbf" points="2018.5,-347.5 2018.5,-366.5 2184.5,-366.5 2184.5,-347.5 2018.5,-347.5"/>
<text text-anchor="middle" x="2101.5" y="-354.5" font-family="Helvetica,sans-Serif" font-size="10.00">G4VUserActionInitialization.hh</text>
</a>
</g>
</g>
<!-- Node62&#45;&gt;Node63 -->
<g id="edge61" class="edge">
<title>Node62&#45;&gt;Node63</title>
<path fill="none" stroke="midnightblue" d="M2099.83,-403.08C2100.09,-396.01 2100.47,-385.86 2100.8,-376.99"/>
<polygon fill="midnightblue" stroke="midnightblue" points="2104.3,-376.87 2101.18,-366.75 2097.31,-376.61 2104.3,-376.87"/>
</g>
</g>
</svg>
