<?xml version="1.0" encoding="UTF-8" standalone="no"?>
<!DOCTYPE svg PUBLIC "-//W3C//DTD SVG 1.1//EN"
 "http://www.w3.org/Graphics/SVG/1.1/DTD/svg11.dtd">
<!-- Generated by graphviz version 2.43.0 (0)
 -->
<!-- Title: OMSimG4RadioactiveDecay.hh Pages: 1 -->
<svg width="1257pt" height="84pt"
 viewBox="0.00 0.00 1257.00 84.00" xmlns="http://www.w3.org/2000/svg" xmlns:xlink="http://www.w3.org/1999/xlink">
<g id="graph0" class="graph" transform="scale(1 1) rotate(0) translate(4 80)">
<title>OMSimG4RadioactiveDecay.hh</title>
<!-- Node1 -->
<g id="node1" class="node">
<title>Node1</title>
<g id="a_node1"><a xlink:title="Modified version of the original Geant4 RadioactiveDecay class to define custom decay time.">
<polygon fill="#bfbfbf" stroke="black" points="393,-56.5 393,-75.5 560,-75.5 560,-56.5 393,-56.5"/>
<text text-anchor="middle" x="476.5" y="-63.5" font-family="Helvetica,sans-Serif" font-size="10.00">OMSimG4RadioactiveDecay.hh</text>
</a>
</g>
</g>
<!-- Node2 -->
<g id="node2" class="node">
<title>Node2</title>
<g id="a_node2"><a xlink:title=" ">
<polygon fill="none" stroke="#bfbfbf" points="0,-0.5 0,-19.5 47,-19.5 47,-0.5 0,-0.5"/>
<text text-anchor="middle" x="23.5" y="-7.5" font-family="Helvetica,sans-Serif" font-size="10.00">vector</text>
</a>
</g>
</g>
<!-- Node1&#45;&gt;Node2 -->
<g id="edge1" class="edge">
<title>Node1&#45;&gt;Node2</title>
<path fill="none" stroke="midnightblue" d="M392.65,-59.97C309.71,-54.09 179.09,-42.43 57.08,-19.81"/>
<polygon fill="midnightblue" stroke="midnightblue" points="57.66,-16.36 47.19,-17.95 56.37,-23.24 57.66,-16.36"/>
</g>
<!-- Node3 -->
<g id="node3" class="node">
<title>Node3</title>
<g id="a_node3"><a xlink:title=" ">
<polygon fill="none" stroke="#bfbfbf" points="65.5,-0.5 65.5,-19.5 103.5,-19.5 103.5,-0.5 65.5,-0.5"/>
<text text-anchor="middle" x="84.5" y="-7.5" font-family="Helvetica,sans-Serif" font-size="10.00">map</text>
</a>
</g>
</g>
<!-- Node1&#45;&gt;Node3 -->
<g id="edge2" class="edge">
<title>Node1&#45;&gt;Node3</title>
<path fill="none" stroke="midnightblue" d="M392.98,-59.16C321.1,-53.11 214.61,-41.71 113.71,-19.89"/>
<polygon fill="midnightblue" stroke="midnightblue" points="114.17,-16.41 103.65,-17.68 112.66,-23.25 114.17,-16.41"/>
</g>
<!-- Node4 -->
<g id="node4" class="node">
<title>Node4</title>
<g id="a_node4"><a xlink:title=" ">
<polygon fill="none" stroke="#bfbfbf" points="121.5,-0.5 121.5,-19.5 283.5,-19.5 283.5,-0.5 121.5,-0.5"/>
<text text-anchor="middle" x="202.5" y="-7.5" font-family="Helvetica,sans-Serif" font-size="10.00">CLHEP/Units/SystemOfUnits.h</text>
</a>
</g>
</g>
<!-- Node1&#45;&gt;Node4 -->
<g id="edge3" class="edge">
<title>Node1&#45;&gt;Node4</title>
<path fill="none" stroke="midnightblue" d="M433.08,-56.44C384.98,-46.96 307.41,-31.67 255.69,-21.48"/>
<polygon fill="midnightblue" stroke="midnightblue" points="256.2,-18.02 245.71,-19.52 254.85,-24.88 256.2,-18.02"/>
</g>
<!-- Node5 -->
<g id="node5" class="node">
<title>Node5</title>
<g id="a_node5"><a xlink:title=" ">
<polygon fill="none" stroke="#bfbfbf" points="302,-0.5 302,-19.5 361,-19.5 361,-0.5 302,-0.5"/>
<text text-anchor="middle" x="331.5" y="-7.5" font-family="Helvetica,sans-Serif" font-size="10.00">G4ios.hh</text>
</a>
</g>
</g>
<!-- Node1&#45;&gt;Node5 -->
<g id="edge4" class="edge">
<title>Node1&#45;&gt;Node5</title>
<path fill="none" stroke="midnightblue" d="M453.52,-56.44C429.34,-47.44 391.08,-33.19 363.85,-23.05"/>
<polygon fill="midnightblue" stroke="midnightblue" points="364.96,-19.73 354.37,-19.52 362.52,-26.29 364.96,-19.73"/>
</g>
<!-- Node6 -->
<g id="node6" class="node">
<title>Node6</title>
<g id="a_node6"><a xlink:title=" ">
<polygon fill="none" stroke="#bfbfbf" points="379,-0.5 379,-19.5 446,-19.5 446,-0.5 379,-0.5"/>
<text text-anchor="middle" x="412.5" y="-7.5" font-family="Helvetica,sans-Serif" font-size="10.00">globals.hh</text>
</a>
</g>
</g>
<!-- Node1&#45;&gt;Node6 -->
<g id="edge5" class="edge">
<title>Node1&#45;&gt;Node6</title>
<path fill="none" stroke="midnightblue" d="M466.22,-56.32C456.66,-48.26 442.22,-36.08 430.72,-26.37"/>
<polygon fill="midnightblue" stroke="midnightblue" points="432.87,-23.61 422.97,-19.83 428.36,-28.96 432.87,-23.61"/>
</g>
<!-- Node7 -->
<g id="node7" class="node">
<title>Node7</title>
<g id="a_node7"><a xlink:title=" ">
<polygon fill="none" stroke="#bfbfbf" points="464.5,-0.5 464.5,-19.5 616.5,-19.5 616.5,-0.5 464.5,-0.5"/>
<text text-anchor="middle" x="540.5" y="-7.5" font-family="Helvetica,sans-Serif" font-size="10.00">G4VRestDiscreteProcess.hh</text>
</a>
</g>
</g>
<!-- Node1&#45;&gt;Node7 -->
<g id="edge6" class="edge">
<title>Node1&#45;&gt;Node7</title>
<path fill="none" stroke="midnightblue" d="M486.78,-56.32C496.34,-48.26 510.78,-36.08 522.28,-26.37"/>
<polygon fill="midnightblue" stroke="midnightblue" points="524.64,-28.96 530.03,-19.83 520.13,-23.61 524.64,-28.96"/>
</g>
<!-- Node8 -->
<g id="node8" class="node">
<title>Node8</title>
<g id="a_node8"><a xlink:title=" ">
<polygon fill="none" stroke="#bfbfbf" points="635,-0.5 635,-19.5 816,-19.5 816,-0.5 635,-0.5"/>
<text text-anchor="middle" x="725.5" y="-7.5" font-family="Helvetica,sans-Serif" font-size="10.00">G4ParticleChangeForRadDecay.hh</text>
</a>
</g>
</g>
<!-- Node1&#45;&gt;Node8 -->
<g id="edge7" class="edge">
<title>Node1&#45;&gt;Node8</title>
<path fill="none" stroke="midnightblue" d="M515.95,-56.44C559.39,-47.02 629.29,-31.87 676.28,-21.68"/>
<polygon fill="midnightblue" stroke="midnightblue" points="677.2,-25.06 686.23,-19.52 675.72,-18.22 677.2,-25.06"/>
</g>
<!-- Node9 -->
<g id="node9" class="node">
<title>Node9</title>
<g id="a_node9"><a xlink:title=" ">
<polygon fill="none" stroke="#bfbfbf" points="834.5,-0.5 834.5,-19.5 948.5,-19.5 948.5,-0.5 834.5,-0.5"/>
<text text-anchor="middle" x="891.5" y="-7.5" font-family="Helvetica,sans-Serif" font-size="10.00">G4NucleusLimits.hh</text>
</a>
</g>
</g>
<!-- Node1&#45;&gt;Node9 -->
<g id="edge8" class="edge">
<title>Node1&#45;&gt;Node9</title>
<path fill="none" stroke="midnightblue" d="M543.75,-56.48C611.85,-47.81 720.49,-33.9 824.24,-20.16"/>
<polygon fill="midnightblue" stroke="midnightblue" points="824.81,-23.61 834.27,-18.83 823.89,-16.68 824.81,-23.61"/>
</g>
<!-- Node10 -->
<g id="node10" class="node">
<title>Node10</title>
<g id="a_node10"><a xlink:title=" ">
<polygon fill="none" stroke="#bfbfbf" points="967,-0.5 967,-19.5 1070,-19.5 1070,-0.5 967,-0.5"/>
<text text-anchor="middle" x="1018.5" y="-7.5" font-family="Helvetica,sans-Serif" font-size="10.00">G4ThreeVector.hh</text>
</a>
</g>
</g>
<!-- Node1&#45;&gt;Node10 -->
<g id="edge9" class="edge">
<title>Node1&#45;&gt;Node10</title>
<path fill="none" stroke="midnightblue" d="M560.06,-58.54C653.96,-50.97 811.18,-37.38 956.91,-20.01"/>
<polygon fill="midnightblue" stroke="midnightblue" points="957.43,-23.47 966.94,-18.8 956.6,-16.52 957.43,-23.47"/>
</g>
<!-- Node11 -->
<g id="node11" class="node">
<title>Node11</title>
<g id="a_node11"><a xlink:title=" ">
<polygon fill="none" stroke="#bfbfbf" points="1088,-0.5 1088,-19.5 1249,-19.5 1249,-0.5 1088,-0.5"/>
<text text-anchor="middle" x="1168.5" y="-7.5" font-family="Helvetica,sans-Serif" font-size="10.00">G4RadioactiveDecayMode.hh</text>
</a>
</g>
</g>
<!-- Node1&#45;&gt;Node11 -->
<g id="edge10" class="edge">
<title>Node1&#45;&gt;Node11</title>
<path fill="none" stroke="midnightblue" d="M560.45,-59.43C674.95,-51.69 886.79,-36.8 1077.75,-20.13"/>
<polygon fill="midnightblue" stroke="midnightblue" points="1078.32,-23.6 1087.98,-19.24 1077.71,-16.62 1078.32,-23.6"/>
</g>
</g>
</svg>
