<?xml version="1.0" encoding="UTF-8" standalone="no"?>
<!DOCTYPE svg PUBLIC "-//W3C//DTD SVG 1.1//EN"
 "http://www.w3.org/Graphics/SVG/1.1/DTD/svg11.dtd">
<!-- Generated by graphviz version 2.43.0 (0)
 -->
<!-- Title: OMSimMDOM.hh Pages: 1 -->
<svg width="1767pt" height="379pt"
 viewBox="0.00 0.00 1766.50 379.00" xmlns="http://www.w3.org/2000/svg" xmlns:xlink="http://www.w3.org/1999/xlink">
<g id="graph0" class="graph" transform="scale(1 1) rotate(0) translate(4 375)">
<title>OMSimMDOM.hh</title>
<!-- Node1 -->
<g id="Node000001" class="node">
<title>Node1</title>
<g id="a_Node000001"><a xlink:title="Construction of mDOM.">
<polygon fill="#999999" stroke="#666666" points="1263,-371 1163,-371 1163,-352 1263,-352 1263,-371"/>
<text text-anchor="middle" x="1213" y="-359" font-family="Helvetica,sans-Serif" font-size="10.00">OMSimMDOM.hh</text>
</a>
</g>
</g>
<!-- Node2 -->
<g id="Node000002" class="node">
<title>Node2</title>
<g id="a_Node000002"><a xlink:href="_o_m_sim_m_d_o_m_flasher_8hh.html" target="_top" xlink:title="Defines the mDOMFlasher class for simulating the 10 flashers in an mDOM optical module.">
<polygon fill="white" stroke="#666666" points="1094.5,-261 959.5,-261 959.5,-242 1094.5,-242 1094.5,-261"/>
<text text-anchor="middle" x="1027" y="-249" font-family="Helvetica,sans-Serif" font-size="10.00">OMSimMDOMFlasher.hh</text>
</a>
</g>
</g>
<!-- Node1&#45;&gt;Node2 -->
<g id="edge1_Node000001_Node000002" class="edge">
<title>Node1&#45;&gt;Node2</title>
<g id="a_edge1_Node000001_Node000002"><a xlink:title=" ">
<path fill="none" stroke="#63b8ff" d="M1198.23,-351.98C1182.72,-343.04 1157.63,-328.55 1136,-316 1106.5,-298.88 1072.55,-279.09 1050.48,-266.21"/>
<polygon fill="#63b8ff" stroke="#63b8ff" points="1052.2,-263.16 1041.8,-261.14 1048.67,-269.21 1052.2,-263.16"/>
</a>
</g>
</g>
<!-- Node26 -->
<g id="Node000026" class="node">
<title>Node26</title>
<g id="a_Node000026"><a xlink:href="_o_m_sim_p_m_t_construction_8hh.html" target="_top" xlink:title="Construction of the PMTs.">
<polygon fill="white" stroke="#666666" points="1441.5,-261 1292.5,-261 1292.5,-242 1441.5,-242 1441.5,-261"/>
<text text-anchor="middle" x="1367" y="-249" font-family="Helvetica,sans-Serif" font-size="10.00">OMSimPMTConstruction.hh</text>
</a>
</g>
</g>
<!-- Node1&#45;&gt;Node26 -->
<g id="edge25_Node000001_Node000026" class="edge">
<title>Node1&#45;&gt;Node26</title>
<g id="a_edge25_Node000001_Node000026"><a xlink:title=" ">
<path fill="none" stroke="#63b8ff" d="M1229.95,-351.95C1246.12,-343.54 1270.9,-329.97 1291,-316 1312.44,-301.1 1335.19,-281.53 1350.15,-268.07"/>
<polygon fill="#63b8ff" stroke="#63b8ff" points="1352.56,-270.62 1357.6,-261.3 1347.85,-265.44 1352.56,-270.62"/>
</a>
</g>
</g>
<!-- Node33 -->
<g id="Node000033" class="node">
<title>Node33</title>
<g id="a_Node000033"><a xlink:href="_o_m_sim_optical_module_8hh_source.html" target="_top" xlink:title=" ">
<polygon fill="white" stroke="#666666" points="1281.5,-316 1144.5,-316 1144.5,-297 1281.5,-297 1281.5,-316"/>
<text text-anchor="middle" x="1213" y="-304" font-family="Helvetica,sans-Serif" font-size="10.00">OMSimOpticalModule.hh</text>
</a>
</g>
</g>
<!-- Node1&#45;&gt;Node33 -->
<g id="edge36_Node000001_Node000033" class="edge">
<title>Node1&#45;&gt;Node33</title>
<g id="a_edge36_Node000001_Node000033"><a xlink:title=" ">
<path fill="none" stroke="#63b8ff" d="M1213,-351.75C1213,-344.8 1213,-334.85 1213,-326.13"/>
<polygon fill="#63b8ff" stroke="#63b8ff" points="1216.5,-326.09 1213,-316.09 1209.5,-326.09 1216.5,-326.09"/>
</a>
</g>
</g>
<!-- Node3 -->
<g id="Node000003" class="node">
<title>Node3</title>
<g id="a_Node000003"><a xlink:href="_o_m_sim_detector_component_8hh.html" target="_top" xlink:title="Provides helper base class OMSimDetectorComponent for constructing and managing detector components i...">
<polygon fill="white" stroke="#666666" points="1202.5,-206 1037.5,-206 1037.5,-187 1202.5,-187 1202.5,-206"/>
<text text-anchor="middle" x="1120" y="-194" font-family="Helvetica,sans-Serif" font-size="10.00">OMSimDetectorComponent.hh</text>
</a>
</g>
</g>
<!-- Node2&#45;&gt;Node3 -->
<g id="edge2_Node000002_Node000003" class="edge">
<title>Node2&#45;&gt;Node3</title>
<g id="a_edge2_Node000002_Node000003"><a xlink:title=" ">
<path fill="none" stroke="#63b8ff" d="M1041.94,-241.98C1056.5,-233.69 1078.87,-220.94 1095.93,-211.22"/>
<polygon fill="#63b8ff" stroke="#63b8ff" points="1097.83,-214.16 1104.79,-206.17 1094.36,-208.08 1097.83,-214.16"/>
</a>
</g>
</g>
<!-- Node24 -->
<g id="Node000024" class="node">
<title>Node24</title>
<g id="a_Node000024"><a xlink:title=" ">
<polygon fill="#e0e0e0" stroke="#999999" points="1319,-206 1221,-206 1221,-187 1319,-187 1319,-206"/>
<text text-anchor="middle" x="1270" y="-194" font-family="Helvetica,sans-Serif" font-size="10.00">G4UnionSolid.hh</text>
</a>
</g>
</g>
<!-- Node2&#45;&gt;Node24 -->
<g id="edge23_Node000002_Node000024" class="edge">
<title>Node2&#45;&gt;Node24</title>
<g id="a_edge23_Node000002_Node000024"><a xlink:title=" ">
<path fill="none" stroke="#63b8ff" d="M1066.04,-241.98C1108.08,-232.82 1175.04,-218.21 1220.68,-208.26"/>
<polygon fill="#63b8ff" stroke="#63b8ff" points="1221.63,-211.63 1230.65,-206.08 1220.14,-204.79 1221.63,-211.63"/>
</a>
</g>
</g>
<!-- Node25 -->
<g id="Node000025" class="node">
<title>Node25</title>
<g id="a_Node000025"><a xlink:title=" ">
<polygon fill="#e0e0e0" stroke="#999999" points="1019,-206 927,-206 927,-187 1019,-187 1019,-206"/>
<text text-anchor="middle" x="973" y="-194" font-family="Helvetica,sans-Serif" font-size="10.00">G4Navigator.hh</text>
</a>
</g>
</g>
<!-- Node2&#45;&gt;Node25 -->
<g id="edge24_Node000002_Node000025" class="edge">
<title>Node2&#45;&gt;Node25</title>
<g id="a_edge24_Node000002_Node000025"><a xlink:title=" ">
<path fill="none" stroke="#63b8ff" d="M1018.08,-241.75C1010.22,-234.03 998.57,-222.6 989.08,-213.28"/>
<polygon fill="#63b8ff" stroke="#63b8ff" points="991.34,-210.6 981.75,-206.09 986.44,-215.59 991.34,-210.6"/>
</a>
</g>
</g>
<!-- Node4 -->
<g id="Node000004" class="node">
<title>Node4</title>
<g id="a_Node000004"><a xlink:href="_o_m_sim_input_data_8hh.html" target="_top" xlink:title="Definition of ParameterTable and OMSimInputData.">
<polygon fill="white" stroke="#666666" points="898.5,-151 783.5,-151 783.5,-132 898.5,-132 898.5,-151"/>
<text text-anchor="middle" x="841" y="-139" font-family="Helvetica,sans-Serif" font-size="10.00">OMSimInputData.hh</text>
</a>
</g>
</g>
<!-- Node3&#45;&gt;Node4 -->
<g id="edge3_Node000003_Node000004" class="edge">
<title>Node3&#45;&gt;Node4</title>
<g id="a_edge3_Node000003_Node000004"><a xlink:title=" ">
<path fill="none" stroke="#63b8ff" d="M1075.17,-186.98C1026.51,-177.74 948.74,-162.97 896.31,-153.01"/>
<polygon fill="#63b8ff" stroke="#63b8ff" points="896.66,-149.51 886.18,-151.08 895.35,-156.39 896.66,-149.51"/>
</a>
</g>
</g>
<!-- Node20 -->
<g id="Node000020" class="node">
<title>Node20</title>
<g id="a_Node000020"><a xlink:title=" ">
<polygon fill="#e0e0e0" stroke="#999999" points="1023.5,-151 916.5,-151 916.5,-132 1023.5,-132 1023.5,-151"/>
<text text-anchor="middle" x="970" y="-139" font-family="Helvetica,sans-Serif" font-size="10.00">G4Transform3D.hh</text>
</a>
</g>
</g>
<!-- Node3&#45;&gt;Node20 -->
<g id="edge19_Node000003_Node000020" class="edge">
<title>Node3&#45;&gt;Node20</title>
<g id="a_edge19_Node000003_Node000020"><a xlink:title=" ">
<path fill="none" stroke="#63b8ff" d="M1095.9,-186.98C1071.12,-178.23 1032.3,-164.51 1004.31,-154.62"/>
<polygon fill="#63b8ff" stroke="#63b8ff" points="1005.13,-151.2 994.54,-151.17 1002.8,-157.8 1005.13,-151.2"/>
</a>
</g>
</g>
<!-- Node21 -->
<g id="Node000021" class="node">
<title>Node21</title>
<g id="a_Node000021"><a xlink:title=" ">
<polygon fill="#e0e0e0" stroke="#999999" points="1150,-151 1042,-151 1042,-132 1150,-132 1150,-151"/>
<text text-anchor="middle" x="1096" y="-139" font-family="Helvetica,sans-Serif" font-size="10.00">G4VisAttributes.hh</text>
</a>
</g>
</g>
<!-- Node3&#45;&gt;Node21 -->
<g id="edge20_Node000003_Node000021" class="edge">
<title>Node3&#45;&gt;Node21</title>
<g id="a_edge20_Node000003_Node000021"><a xlink:title=" ">
<path fill="none" stroke="#63b8ff" d="M1116.04,-186.75C1112.79,-179.57 1108.08,-169.18 1104.05,-160.27"/>
<polygon fill="#63b8ff" stroke="#63b8ff" points="1107.2,-158.75 1099.89,-151.09 1100.83,-161.64 1107.2,-158.75"/>
</a>
</g>
</g>
<!-- Node22 -->
<g id="Node000022" class="node">
<title>Node22</title>
<g id="a_Node000022"><a xlink:title=" ">
<polygon fill="#e0e0e0" stroke="#999999" points="1293.5,-151 1168.5,-151 1168.5,-132 1293.5,-132 1293.5,-151"/>
<text text-anchor="middle" x="1231" y="-139" font-family="Helvetica,sans-Serif" font-size="10.00">G4SubtractionSolid.hh</text>
</a>
</g>
</g>
<!-- Node3&#45;&gt;Node22 -->
<g id="edge21_Node000003_Node000022" class="edge">
<title>Node3&#45;&gt;Node22</title>
<g id="a_edge21_Node000003_Node000022"><a xlink:title=" ">
<path fill="none" stroke="#63b8ff" d="M1137.83,-186.98C1155.61,-178.5 1183.15,-165.35 1203.68,-155.54"/>
<polygon fill="#63b8ff" stroke="#63b8ff" points="1205.33,-158.64 1212.84,-151.17 1202.31,-152.32 1205.33,-158.64"/>
</a>
</g>
</g>
<!-- Node23 -->
<g id="Node000023" class="node">
<title>Node23</title>
<g id="a_Node000023"><a xlink:title=" ">
<polygon fill="#e0e0e0" stroke="#999999" points="1422,-151 1312,-151 1312,-132 1422,-132 1422,-151"/>
<text text-anchor="middle" x="1367" y="-139" font-family="Helvetica,sans-Serif" font-size="10.00">G4PVPlacement.hh</text>
</a>
</g>
</g>
<!-- Node3&#45;&gt;Node23 -->
<g id="edge22_Node000003_Node000023" class="edge">
<title>Node3&#45;&gt;Node23</title>
<g id="a_edge22_Node000003_Node000023"><a xlink:title=" ">
<path fill="none" stroke="#63b8ff" d="M1159.68,-186.98C1202.5,-177.8 1270.76,-163.15 1317.16,-153.19"/>
<polygon fill="#63b8ff" stroke="#63b8ff" points="1317.96,-156.6 1327,-151.08 1316.49,-149.76 1317.96,-156.6"/>
</a>
</g>
</g>
<!-- Node5 -->
<g id="Node000005" class="node">
<title>Node5</title>
<g id="a_Node000005"><a xlink:href="_o_m_sim_logger_8hh_source.html" target="_top" xlink:title=" ">
<polygon fill="white" stroke="#666666" points="288.5,-90.5 189.5,-90.5 189.5,-71.5 288.5,-71.5 288.5,-90.5"/>
<text text-anchor="middle" x="239" y="-78.5" font-family="Helvetica,sans-Serif" font-size="10.00">OMSimLogger.hh</text>
</a>
</g>
</g>
<!-- Node4&#45;&gt;Node5 -->
<g id="edge4_Node000004_Node000005" class="edge">
<title>Node4&#45;&gt;Node5</title>
<g id="a_edge4_Node000004_Node000005"><a xlink:title=" ">
<path fill="none" stroke="#63b8ff" d="M783.28,-134.89C669.01,-123.79 415.03,-99.11 298.97,-87.83"/>
<polygon fill="#63b8ff" stroke="#63b8ff" points="299.13,-84.33 288.84,-86.84 298.46,-91.29 299.13,-84.33"/>
</a>
</g>
</g>
<!-- Node10 -->
<g id="Node000010" class="node">
<title>Node10</title>
<g id="a_Node000010"><a xlink:href="_o_m_sim_op_boundary_process_8hh_source.html" target="_top" xlink:title=" ">
<polygon fill="white" stroke="#666666" points="923,-90.5 759,-90.5 759,-71.5 923,-71.5 923,-90.5"/>
<text text-anchor="middle" x="841" y="-78.5" font-family="Helvetica,sans-Serif" font-size="10.00">OMSimOpBoundaryProcess.hh</text>
</a>
</g>
</g>
<!-- Node4&#45;&gt;Node10 -->
<g id="edge9_Node000004_Node000010" class="edge">
<title>Node4&#45;&gt;Node10</title>
<g id="a_edge9_Node000004_Node000010"><a xlink:title=" ">
<path fill="none" stroke="#63b8ff" d="M841,-131.87C841,-123.75 841,-111.31 841,-100.89"/>
<polygon fill="#63b8ff" stroke="#63b8ff" points="844.5,-100.67 841,-90.67 837.5,-100.67 844.5,-100.67"/>
</a>
</g>
</g>
<!-- Node18 -->
<g id="Node000018" class="node">
<title>Node18</title>
<g id="a_Node000018"><a xlink:title=" ">
<polygon fill="#e0e0e0" stroke="#999999" points="1350.5,-90.5 1231.5,-90.5 1231.5,-71.5 1350.5,-71.5 1350.5,-90.5"/>
<text text-anchor="middle" x="1291" y="-78.5" font-family="Helvetica,sans-Serif" font-size="10.00">G4SystemOfUnits.hh</text>
</a>
</g>
</g>
<!-- Node4&#45;&gt;Node18 -->
<g id="edge17_Node000004_Node000018" class="edge">
<title>Node4&#45;&gt;Node18</title>
<g id="a_edge17_Node000004_Node000018"><a xlink:title=" ">
<path fill="none" stroke="#63b8ff" d="M898.91,-132.97C981.42,-122.25 1132.62,-102.59 1221.21,-91.07"/>
<polygon fill="#63b8ff" stroke="#63b8ff" points="1221.7,-94.54 1231.17,-89.78 1220.8,-87.6 1221.7,-94.54"/>
</a>
</g>
</g>
<!-- Node19 -->
<g id="Node000019" class="node">
<title>Node19</title>
<g id="a_Node000019"><a xlink:title=" ">
<polygon fill="#e0e0e0" stroke="#999999" points="1054.5,-96 941.5,-96 941.5,-66 1054.5,-66 1054.5,-96"/>
<text text-anchor="start" x="949.5" y="-84" font-family="Helvetica,sans-Serif" font-size="10.00">boost/property_tree</text>
<text text-anchor="middle" x="998" y="-73" font-family="Helvetica,sans-Serif" font-size="10.00">/json_parser.hpp</text>
</a>
</g>
</g>
<!-- Node4&#45;&gt;Node19 -->
<g id="edge18_Node000004_Node000019" class="edge">
<title>Node4&#45;&gt;Node19</title>
<g id="a_edge18_Node000004_Node000019"><a xlink:title=" ">
<path fill="none" stroke="#63b8ff" d="M863.83,-131.99C886.52,-123.54 922,-110.32 950.78,-99.59"/>
<polygon fill="#63b8ff" stroke="#63b8ff" points="952.11,-102.84 960.25,-96.06 949.66,-96.28 952.11,-102.84"/>
</a>
</g>
</g>
<!-- Node6 -->
<g id="Node000006" class="node">
<title>Node6</title>
<g id="a_Node000006"><a xlink:title=" ">
<polygon fill="#e0e0e0" stroke="#999999" points="285.5,-24.5 192.5,-24.5 192.5,-5.5 285.5,-5.5 285.5,-24.5"/>
<text text-anchor="middle" x="239" y="-12.5" font-family="Helvetica,sans-Serif" font-size="10.00">spdlog/spdlog.h</text>
</a>
</g>
</g>
<!-- Node5&#45;&gt;Node6 -->
<g id="edge5_Node000005_Node000006" class="edge">
<title>Node5&#45;&gt;Node6</title>
<g id="a_edge5_Node000005_Node000006"><a xlink:title=" ">
<path fill="none" stroke="#63b8ff" d="M239,-71.37C239,-62.16 239,-47.29 239,-35.27"/>
<polygon fill="#63b8ff" stroke="#63b8ff" points="242.5,-34.91 239,-24.91 235.5,-34.91 242.5,-34.91"/>
</a>
</g>
</g>
<!-- Node7 -->
<g id="Node000007" class="node">
<title>Node7</title>
<g id="a_Node000007"><a xlink:title=" ">
<polygon fill="#e0e0e0" stroke="#999999" points="414.5,-30 303.5,-30 303.5,0 414.5,0 414.5,-30"/>
<text text-anchor="start" x="311.5" y="-18" font-family="Helvetica,sans-Serif" font-size="10.00">spdlog/sinks/stdout</text>
<text text-anchor="middle" x="359" y="-7" font-family="Helvetica,sans-Serif" font-size="10.00">_color_sinks.h</text>
</a>
</g>
</g>
<!-- Node5&#45;&gt;Node7 -->
<g id="edge6_Node000005_Node000007" class="edge">
<title>Node5&#45;&gt;Node7</title>
<g id="a_edge6_Node000005_Node000007"><a xlink:title=" ">
<path fill="none" stroke="#63b8ff" d="M255.18,-71.37C272.61,-62.07 300.89,-46.99 323.54,-34.91"/>
<polygon fill="#63b8ff" stroke="#63b8ff" points="325.36,-37.91 332.53,-30.12 322.06,-31.73 325.36,-37.91"/>
</a>
</g>
</g>
<!-- Node8 -->
<g id="Node000008" class="node">
<title>Node8</title>
<g id="a_Node000008"><a xlink:title=" ">
<polygon fill="#e0e0e0" stroke="#999999" points="58,-24.5 0,-24.5 0,-5.5 58,-5.5 58,-24.5"/>
<text text-anchor="middle" x="29" y="-12.5" font-family="Helvetica,sans-Serif" font-size="10.00">memory</text>
</a>
</g>
</g>
<!-- Node5&#45;&gt;Node8 -->
<g id="edge7_Node000005_Node000008" class="edge">
<title>Node5&#45;&gt;Node8</title>
<g id="a_edge7_Node000005_Node000008"><a xlink:title=" ">
<path fill="none" stroke="#63b8ff" d="M207.09,-71.45C172.41,-61.98 115.44,-45.94 67,-30 65.1,-29.37 63.15,-28.71 61.18,-28.03"/>
<polygon fill="#63b8ff" stroke="#63b8ff" points="62.01,-24.61 51.41,-24.55 59.66,-31.21 62.01,-24.61"/>
</a>
</g>
</g>
<!-- Node9 -->
<g id="Node000009" class="node">
<title>Node9</title>
<g id="a_Node000009"><a xlink:title=" ">
<polygon fill="#e0e0e0" stroke="#999999" points="174,-24.5 76,-24.5 76,-5.5 174,-5.5 174,-24.5"/>
<text text-anchor="middle" x="125" y="-12.5" font-family="Helvetica,sans-Serif" font-size="10.00">spdlog/fmt/fmt.h</text>
</a>
</g>
</g>
<!-- Node5&#45;&gt;Node9 -->
<g id="edge8_Node000005_Node000009" class="edge">
<title>Node5&#45;&gt;Node9</title>
<g id="a_edge8_Node000005_Node000009"><a xlink:title=" ">
<path fill="none" stroke="#63b8ff" d="M223.63,-71.37C204.59,-60.68 171.93,-42.35 149.44,-29.72"/>
<polygon fill="#63b8ff" stroke="#63b8ff" points="150.93,-26.54 140.5,-24.7 147.5,-32.65 150.93,-26.54"/>
</a>
</g>
</g>
<!-- Node11 -->
<g id="Node000011" class="node">
<title>Node11</title>
<g id="a_Node000011"><a xlink:title=" ">
<polygon fill="#e0e0e0" stroke="#999999" points="1352.5,-24.5 1239.5,-24.5 1239.5,-5.5 1352.5,-5.5 1352.5,-24.5"/>
<text text-anchor="middle" x="1296" y="-12.5" font-family="Helvetica,sans-Serif" font-size="10.00">G4OpticalPhoton.hh</text>
</a>
</g>
</g>
<!-- Node10&#45;&gt;Node11 -->
<g id="edge10_Node000010_Node000011" class="edge">
<title>Node10&#45;&gt;Node11</title>
<g id="a_edge10_Node000010_Node000011"><a xlink:title=" ">
<path fill="none" stroke="#63b8ff" d="M894.37,-71.49C906.72,-69.61 919.81,-67.67 932,-66 1064.17,-47.85 1098.4,-51.86 1230,-30 1236.14,-28.98 1242.58,-27.78 1248.92,-26.52"/>
<polygon fill="#63b8ff" stroke="#63b8ff" points="1249.67,-29.94 1258.76,-24.5 1248.26,-23.08 1249.67,-29.94"/>
</a>
</g>
</g>
<!-- Node12 -->
<g id="Node000012" class="node">
<title>Node12</title>
<g id="a_Node000012"><a xlink:title=" ">
<polygon fill="#e0e0e0" stroke="#999999" points="549,-24.5 433,-24.5 433,-5.5 549,-5.5 549,-24.5"/>
<text text-anchor="middle" x="491" y="-12.5" font-family="Helvetica,sans-Serif" font-size="10.00">G4OpticalSurface.hh</text>
</a>
</g>
</g>
<!-- Node10&#45;&gt;Node12 -->
<g id="edge11_Node000010_Node000012" class="edge">
<title>Node10&#45;&gt;Node12</title>
<g id="a_edge11_Node000010_Node000012"><a xlink:title=" ">
<path fill="none" stroke="#63b8ff" d="M790.04,-71.49C733.32,-61.9 638.96,-45.61 558,-30 552.53,-28.95 546.82,-27.81 541.13,-26.65"/>
<polygon fill="#63b8ff" stroke="#63b8ff" points="541.49,-23.15 530.99,-24.57 540.08,-30.01 541.49,-23.15"/>
</a>
</g>
</g>
<!-- Node13 -->
<g id="Node000013" class="node">
<title>Node13</title>
<g id="a_Node000013"><a xlink:title=" ">
<polygon fill="#e0e0e0" stroke="#999999" points="677,-24.5 567,-24.5 567,-5.5 677,-5.5 677,-24.5"/>
<text text-anchor="middle" x="622" y="-12.5" font-family="Helvetica,sans-Serif" font-size="10.00">G4RandomTools.hh</text>
</a>
</g>
</g>
<!-- Node10&#45;&gt;Node13 -->
<g id="edge12_Node000010_Node000013" class="edge">
<title>Node10&#45;&gt;Node13</title>
<g id="a_edge12_Node000010_Node000013"><a xlink:title=" ">
<path fill="none" stroke="#63b8ff" d="M811.46,-71.37C772.66,-60.03 704.4,-40.08 661.28,-27.48"/>
<polygon fill="#63b8ff" stroke="#63b8ff" points="662,-24.04 651.42,-24.6 660.03,-30.76 662,-24.04"/>
</a>
</g>
</g>
<!-- Node14 -->
<g id="Node000014" class="node">
<title>Node14</title>
<g id="a_Node000014"><a xlink:title=" ">
<polygon fill="#e0e0e0" stroke="#999999" points="825,-24.5 695,-24.5 695,-5.5 825,-5.5 825,-24.5"/>
<text text-anchor="middle" x="760" y="-12.5" font-family="Helvetica,sans-Serif" font-size="10.00">G4VDiscreteProcess.hh</text>
</a>
</g>
</g>
<!-- Node10&#45;&gt;Node14 -->
<g id="edge13_Node000010_Node000014" class="edge">
<title>Node10&#45;&gt;Node14</title>
<g id="a_edge13_Node000010_Node000014"><a xlink:title=" ">
<path fill="none" stroke="#63b8ff" d="M830.08,-71.37C817.03,-61.06 794.99,-43.65 779.1,-31.09"/>
<polygon fill="#63b8ff" stroke="#63b8ff" points="781.03,-28.15 771.01,-24.7 776.69,-33.64 781.03,-28.15"/>
</a>
</g>
</g>
<!-- Node15 -->
<g id="Node000015" class="node">
<title>Node15</title>
<g id="a_Node000015"><a xlink:title=" ">
<polygon fill="#e0e0e0" stroke="#999999" points="1000.5,-24.5 843.5,-24.5 843.5,-5.5 1000.5,-5.5 1000.5,-24.5"/>
<text text-anchor="middle" x="922" y="-12.5" font-family="Helvetica,sans-Serif" font-size="10.00">G4VUserTrackInformation.hh</text>
</a>
</g>
</g>
<!-- Node10&#45;&gt;Node15 -->
<g id="edge14_Node000010_Node000015" class="edge">
<title>Node10&#45;&gt;Node15</title>
<g id="a_edge14_Node000010_Node000015"><a xlink:title=" ">
<path fill="none" stroke="#63b8ff" d="M851.92,-71.37C864.97,-61.06 887.01,-43.65 902.9,-31.09"/>
<polygon fill="#63b8ff" stroke="#63b8ff" points="905.31,-33.64 910.99,-24.7 900.97,-28.15 905.31,-33.64"/>
</a>
</g>
</g>
<!-- Node16 -->
<g id="Node000016" class="node">
<title>Node16</title>
<g id="a_Node000016"><a xlink:title=" ">
<polygon fill="#e0e0e0" stroke="#999999" points="1109,-24.5 1019,-24.5 1019,-5.5 1109,-5.5 1109,-24.5"/>
<text text-anchor="middle" x="1064" y="-12.5" font-family="Helvetica,sans-Serif" font-size="10.00">G4AutoLock.hh</text>
</a>
</g>
</g>
<!-- Node10&#45;&gt;Node16 -->
<g id="edge15_Node000010_Node000016" class="edge">
<title>Node10&#45;&gt;Node16</title>
<g id="a_edge15_Node000010_Node000016"><a xlink:title=" ">
<path fill="none" stroke="#63b8ff" d="M871.07,-71.37C910.67,-60 980.39,-40 1024.29,-27.4"/>
<polygon fill="#63b8ff" stroke="#63b8ff" points="1025.4,-30.72 1034.05,-24.6 1023.47,-23.99 1025.4,-30.72"/>
</a>
</g>
</g>
<!-- Node17 -->
<g id="Node000017" class="node">
<title>Node17</title>
<g id="a_Node000017"><a xlink:title=" ">
<polygon fill="#e0e0e0" stroke="#999999" points="1221,-24.5 1127,-24.5 1127,-5.5 1221,-5.5 1221,-24.5"/>
<text text-anchor="middle" x="1174" y="-12.5" font-family="Helvetica,sans-Serif" font-size="10.00">G4Threading.hh</text>
</a>
</g>
</g>
<!-- Node10&#45;&gt;Node17 -->
<g id="edge16_Node000010_Node000017" class="edge">
<title>Node10&#45;&gt;Node17</title>
<g id="a_edge16_Node000010_Node000017"><a xlink:title=" ">
<path fill="none" stroke="#63b8ff" d="M894.31,-71.46C950.24,-62.24 1040.6,-46.64 1118,-30 1122.42,-29.05 1127.02,-28 1131.6,-26.92"/>
<polygon fill="#63b8ff" stroke="#63b8ff" points="1132.62,-30.27 1141.51,-24.51 1130.97,-23.47 1132.62,-30.27"/>
</a>
</g>
</g>
<!-- Node26&#45;&gt;Node3 -->
<g id="edge26_Node000026_Node000003" class="edge">
<title>Node26&#45;&gt;Node3</title>
<g id="a_edge26_Node000026_Node000003"><a xlink:title=" ">
<path fill="none" stroke="#63b8ff" d="M1327.32,-241.98C1284.5,-232.8 1216.24,-218.15 1169.84,-208.19"/>
<polygon fill="#63b8ff" stroke="#63b8ff" points="1170.51,-204.76 1160,-206.08 1169.04,-211.6 1170.51,-204.76"/>
</a>
</g>
</g>
<!-- Node26&#45;&gt;Node24 -->
<g id="edge34_Node000026_Node000024" class="edge">
<title>Node26&#45;&gt;Node24</title>
<g id="a_edge34_Node000026_Node000024"><a xlink:title=" ">
<path fill="none" stroke="#63b8ff" d="M1351.42,-241.98C1336.23,-233.69 1312.9,-220.94 1295.1,-211.22"/>
<polygon fill="#63b8ff" stroke="#63b8ff" points="1296.32,-207.89 1285.87,-206.17 1292.97,-214.04 1296.32,-207.89"/>
</a>
</g>
</g>
<!-- Node26&#45;&gt;Node26 -->
<g id="edge27_Node000026_Node000026" class="edge">
<title>Node26&#45;&gt;Node26</title>
<g id="a_edge27_Node000026_Node000026"><a xlink:title=" ">
<path fill="none" stroke="#63b8ff" d="M1410.3,-261.03C1435.71,-263.06 1459.5,-259.88 1459.5,-251.5 1459.5,-244.23 1441.61,-240.87 1420.29,-241.44"/>
<polygon fill="#63b8ff" stroke="#63b8ff" points="1420.1,-237.94 1410.3,-241.97 1420.47,-244.93 1420.1,-237.94"/>
</a>
</g>
</g>
<!-- Node27 -->
<g id="Node000027" class="node">
<title>Node27</title>
<g id="a_Node000027"><a xlink:href="_o_m_sim_p_m_t_response_8hh.html" target="_top" xlink:title="Simulation of PMT response.">
<polygon fill="white" stroke="#666666" points="1619.5,-206 1484.5,-206 1484.5,-187 1619.5,-187 1619.5,-206"/>
<text text-anchor="middle" x="1552" y="-194" font-family="Helvetica,sans-Serif" font-size="10.00">OMSimPMTResponse.hh</text>
</a>
</g>
</g>
<!-- Node26&#45;&gt;Node27 -->
<g id="edge28_Node000026_Node000027" class="edge">
<title>Node26&#45;&gt;Node27</title>
<g id="a_edge28_Node000026_Node000027"><a xlink:title=" ">
<path fill="none" stroke="#63b8ff" d="M1396.72,-241.98C1428.05,-233.01 1477.57,-218.82 1512.24,-208.89"/>
<polygon fill="#63b8ff" stroke="#63b8ff" points="1513.39,-212.2 1522.04,-206.08 1511.47,-205.47 1513.39,-212.2"/>
</a>
</g>
</g>
<!-- Node32 -->
<g id="Node000032" class="node">
<title>Node32</title>
<g id="a_Node000032"><a xlink:title=" ">
<polygon fill="#e0e0e0" stroke="#999999" points="1404.5,-206 1337.5,-206 1337.5,-187 1404.5,-187 1404.5,-206"/>
<text text-anchor="middle" x="1371" y="-194" font-family="Helvetica,sans-Serif" font-size="10.00">G4Tubs.hh</text>
</a>
</g>
</g>
<!-- Node26&#45;&gt;Node32 -->
<g id="edge35_Node000026_Node000032" class="edge">
<title>Node26&#45;&gt;Node32</title>
<g id="a_edge35_Node000026_Node000032"><a xlink:title=" ">
<path fill="none" stroke="#63b8ff" d="M1367.66,-241.75C1368.18,-234.8 1368.94,-224.85 1369.59,-216.13"/>
<polygon fill="#63b8ff" stroke="#63b8ff" points="1373.09,-216.32 1370.35,-206.09 1366.11,-215.8 1373.09,-216.32"/>
</a>
</g>
</g>
<!-- Node27&#45;&gt;Node18 -->
<g id="edge29_Node000027_Node000018" class="edge">
<title>Node27&#45;&gt;Node18</title>
<g id="a_edge29_Node000027_Node000018"><a xlink:title=" ">
<path fill="none" stroke="#63b8ff" d="M1536.14,-186.82C1508.3,-171.64 1451.64,-141.05 1431,-132 1396.85,-117.03 1356.66,-103.03 1328.12,-93.68"/>
<polygon fill="#63b8ff" stroke="#63b8ff" points="1329.13,-90.33 1318.54,-90.57 1326.97,-96.98 1329.13,-90.33"/>
</a>
</g>
</g>
<!-- Node28 -->
<g id="Node000028" class="node">
<title>Node28</title>
<g id="a_Node000028"><a xlink:title=" ">
<polygon fill="#e0e0e0" stroke="#999999" points="1551.5,-151 1478.5,-151 1478.5,-132 1551.5,-132 1551.5,-151"/>
<text text-anchor="middle" x="1515" y="-139" font-family="Helvetica,sans-Serif" font-size="10.00">G4Types.hh</text>
</a>
</g>
</g>
<!-- Node27&#45;&gt;Node28 -->
<g id="edge30_Node000027_Node000028" class="edge">
<title>Node27&#45;&gt;Node28</title>
<g id="a_edge30_Node000027_Node000028"><a xlink:title=" ">
<path fill="none" stroke="#63b8ff" d="M1545.89,-186.75C1540.72,-179.34 1533.15,-168.5 1526.81,-159.41"/>
<polygon fill="#63b8ff" stroke="#63b8ff" points="1529.59,-157.29 1521,-151.09 1523.85,-161.29 1529.59,-157.29"/>
</a>
</g>
</g>
<!-- Node29 -->
<g id="Node000029" class="node">
<title>Node29</title>
<g id="a_Node000029"><a xlink:title=" ">
<polygon fill="#e0e0e0" stroke="#999999" points="1608,-151 1570,-151 1570,-132 1608,-132 1608,-151"/>
<text text-anchor="middle" x="1589" y="-139" font-family="Helvetica,sans-Serif" font-size="10.00">map</text>
</a>
</g>
</g>
<!-- Node27&#45;&gt;Node29 -->
<g id="edge31_Node000027_Node000029" class="edge">
<title>Node27&#45;&gt;Node29</title>
<g id="a_edge31_Node000027_Node000029"><a xlink:title=" ">
<path fill="none" stroke="#63b8ff" d="M1558.11,-186.75C1563.28,-179.34 1570.85,-168.5 1577.19,-159.41"/>
<polygon fill="#63b8ff" stroke="#63b8ff" points="1580.15,-161.29 1583,-151.09 1574.41,-157.29 1580.15,-161.29"/>
</a>
</g>
</g>
<!-- Node30 -->
<g id="Node000030" class="node">
<title>Node30</title>
<g id="a_Node000030"><a xlink:title=" ">
<polygon fill="#e0e0e0" stroke="#999999" points="1687.5,-151 1626.5,-151 1626.5,-132 1687.5,-132 1687.5,-151"/>
<text text-anchor="middle" x="1657" y="-139" font-family="Helvetica,sans-Serif" font-size="10.00">TGraph.h</text>
</a>
</g>
</g>
<!-- Node27&#45;&gt;Node30 -->
<g id="edge32_Node000027_Node000030" class="edge">
<title>Node27&#45;&gt;Node30</title>
<g id="a_edge32_Node000027_Node000030"><a xlink:title=" ">
<path fill="none" stroke="#63b8ff" d="M1568.87,-186.98C1585.61,-178.54 1611.5,-165.47 1630.89,-155.68"/>
<polygon fill="#63b8ff" stroke="#63b8ff" points="1632.47,-158.8 1639.82,-151.17 1629.32,-152.55 1632.47,-158.8"/>
</a>
</g>
</g>
<!-- Node31 -->
<g id="Node000031" class="node">
<title>Node31</title>
<g id="a_Node000031"><a xlink:title=" ">
<polygon fill="#e0e0e0" stroke="#999999" points="1758.5,-151 1705.5,-151 1705.5,-132 1758.5,-132 1758.5,-151"/>
<text text-anchor="middle" x="1732" y="-139" font-family="Helvetica,sans-Serif" font-size="10.00">TH2D.h</text>
</a>
</g>
</g>
<!-- Node27&#45;&gt;Node31 -->
<g id="edge33_Node000027_Node000031" class="edge">
<title>Node27&#45;&gt;Node31</title>
<g id="a_edge33_Node000027_Node000031"><a xlink:title=" ">
<path fill="none" stroke="#63b8ff" d="M1580.92,-186.98C1612.08,-177.81 1661.74,-163.19 1695.55,-153.23"/>
<polygon fill="#63b8ff" stroke="#63b8ff" points="1696.89,-156.49 1705.5,-150.3 1694.92,-149.77 1696.89,-156.49"/>
</a>
</g>
</g>
<!-- Node33&#45;&gt;Node3 -->
<g id="edge37_Node000033_Node000003" class="edge">
<title>Node33&#45;&gt;Node3</title>
<g id="a_edge37_Node000033_Node000003"><a xlink:title=" ">
<path fill="none" stroke="#63b8ff" d="M1192.62,-297C1177.07,-289.57 1156.16,-277.4 1143,-261 1132.57,-247.99 1126.63,-229.85 1123.41,-216.28"/>
<polygon fill="#63b8ff" stroke="#63b8ff" points="1126.77,-215.25 1121.31,-206.18 1119.92,-216.68 1126.77,-215.25"/>
</a>
</g>
</g>
<!-- Node33&#45;&gt;Node26 -->
<g id="edge39_Node000033_Node000026" class="edge">
<title>Node33&#45;&gt;Node26</title>
<g id="a_edge39_Node000033_Node000026"><a xlink:title=" ">
<path fill="none" stroke="#63b8ff" d="M1237.74,-296.98C1263.37,-288.16 1303.63,-274.31 1332.41,-264.41"/>
<polygon fill="#63b8ff" stroke="#63b8ff" points="1333.75,-267.65 1342.06,-261.08 1331.47,-261.03 1333.75,-267.65"/>
</a>
</g>
</g>
<!-- Node34 -->
<g id="Node000034" class="node">
<title>Node34</title>
<g id="a_Node000034"><a xlink:title=" ">
<polygon fill="#e0e0e0" stroke="#999999" points="1274.5,-261 1151.5,-261 1151.5,-242 1274.5,-242 1274.5,-261"/>
<text text-anchor="middle" x="1213" y="-249" font-family="Helvetica,sans-Serif" font-size="10.00">OMSimHitManager.hh</text>
</a>
</g>
</g>
<!-- Node33&#45;&gt;Node34 -->
<g id="edge38_Node000033_Node000034" class="edge">
<title>Node33&#45;&gt;Node34</title>
<g id="a_edge38_Node000033_Node000034"><a xlink:title=" ">
<path fill="none" stroke="#63b8ff" d="M1213,-296.75C1213,-289.8 1213,-279.85 1213,-271.13"/>
<polygon fill="#63b8ff" stroke="#63b8ff" points="1216.5,-271.09 1213,-261.09 1209.5,-271.09 1216.5,-271.09"/>
</a>
</g>
</g>
</g>
</svg>
