<?xml version="1.0" encoding="UTF-8" standalone="no"?>
<!DOCTYPE svg PUBLIC "-//W3C//DTD SVG 1.1//EN"
 "http://www.w3.org/Graphics/SVG/1.1/DTD/svg11.dtd">
<!-- Generated by graphviz version 2.43.0 (0)
 -->
<!-- Title: OMSimPMTResponse.cc Pages: 1 -->
<svg width="1097pt" height="218pt"
 viewBox="0.00 0.00 1096.50 218.00" xmlns="http://www.w3.org/2000/svg" xmlns:xlink="http://www.w3.org/1999/xlink">
<g id="graph0" class="graph" transform="scale(1 1) rotate(0) translate(4 214)">
<title>OMSimPMTResponse.cc</title>
<polygon fill="white" stroke="transparent" points="-4,4 -4,-214 1092.5,-214 1092.5,4 -4,4"/>
<!-- Node1 -->
<g id="node1" class="node">
<title>Node1</title>
<g id="a_node1"><a xlink:title=" ">
<polygon fill="#bfbfbf" stroke="black" points="592,-190.5 592,-209.5 726,-209.5 726,-190.5 592,-190.5"/>
<text text-anchor="middle" x="659" y="-197.5" font-family="Helvetica,sans-Serif" font-size="10.00">OMSimPMTResponse.cc</text>
</a>
</g>
</g>
<!-- Node2 -->
<g id="node2" class="node">
<title>Node2</title>
<g id="a_node2"><a xlink:href="_o_m_sim_p_m_t_response_8hh.html" target="_top" xlink:title="Simulation of PMT response.">
<polygon fill="white" stroke="black" points="135.5,-134.5 135.5,-153.5 270.5,-153.5 270.5,-134.5 135.5,-134.5"/>
<text text-anchor="middle" x="203" y="-141.5" font-family="Helvetica,sans-Serif" font-size="10.00">OMSimPMTResponse.hh</text>
</a>
</g>
</g>
<!-- Node1&#45;&gt;Node2 -->
<g id="edge1" class="edge">
<title>Node1&#45;&gt;Node2</title>
<path fill="none" stroke="midnightblue" d="M591.72,-191.03C508.78,-181.21 368.14,-164.56 280.69,-154.2"/>
<polygon fill="midnightblue" stroke="midnightblue" points="280.9,-150.7 270.56,-153 280.08,-157.65 280.9,-150.7"/>
</g>
<!-- Node8 -->
<g id="node8" class="node">
<title>Node8</title>
<g id="a_node8"><a xlink:href="_o_m_sim_command_args_table_8hh.html" target="_top" xlink:title="Definition of the OMSimCommandArgsTable singleton class, which controls user args.">
<polygon fill="white" stroke="black" points="522,-134.5 522,-153.5 686,-153.5 686,-134.5 522,-134.5"/>
<text text-anchor="middle" x="604" y="-141.5" font-family="Helvetica,sans-Serif" font-size="10.00">OMSimCommandArgsTable.hh</text>
</a>
</g>
</g>
<!-- Node1&#45;&gt;Node8 -->
<g id="edge7" class="edge">
<title>Node1&#45;&gt;Node8</title>
<path fill="none" stroke="midnightblue" d="M649.92,-190.08C641.83,-182.14 629.8,-170.34 620.09,-160.8"/>
<polygon fill="midnightblue" stroke="midnightblue" points="622.5,-158.26 612.91,-153.75 617.6,-163.25 622.5,-158.26"/>
</g>
<!-- Node9 -->
<g id="node9" class="node">
<title>Node9</title>
<g id="a_node9"><a xlink:href="_o_m_sim_logger_8hh.html" target="_top" xlink:title=" ">
<polygon fill="white" stroke="black" points="697.5,-73 697.5,-92 796.5,-92 796.5,-73 697.5,-73"/>
<text text-anchor="middle" x="747" y="-80" font-family="Helvetica,sans-Serif" font-size="10.00">OMSimLogger.hh</text>
</a>
</g>
</g>
<!-- Node1&#45;&gt;Node9 -->
<g id="edge16" class="edge">
<title>Node1&#45;&gt;Node9</title>
<path fill="none" stroke="midnightblue" d="M666,-190.45C673.33,-181.46 685.13,-166.85 695,-154 708.83,-135.99 724.22,-115.01 734.64,-100.65"/>
<polygon fill="midnightblue" stroke="midnightblue" points="737.68,-102.42 740.7,-92.26 732.01,-98.32 737.68,-102.42"/>
</g>
<!-- Node17 -->
<g id="node17" class="node">
<title>Node17</title>
<g id="a_node17"><a xlink:href="_o_m_sim_input_data_8hh.html" target="_top" xlink:title="Definition of ParameterTable and InputDataManager.">
<polygon fill="white" stroke="black" points="742.5,-134.5 742.5,-153.5 857.5,-153.5 857.5,-134.5 742.5,-134.5"/>
<text text-anchor="middle" x="800" y="-141.5" font-family="Helvetica,sans-Serif" font-size="10.00">OMSimInputData.hh</text>
</a>
</g>
</g>
<!-- Node1&#45;&gt;Node17 -->
<g id="edge17" class="edge">
<title>Node1&#45;&gt;Node17</title>
<path fill="none" stroke="midnightblue" d="M681.34,-190.44C704.75,-181.48 741.74,-167.31 768.19,-157.18"/>
<polygon fill="midnightblue" stroke="midnightblue" points="769.68,-160.36 777.76,-153.52 767.17,-153.82 769.68,-160.36"/>
</g>
<!-- Node3 -->
<g id="node3" class="node">
<title>Node3</title>
<g id="a_node3"><a xlink:title=" ">
<polygon fill="white" stroke="#bfbfbf" points="400.5,-73 400.5,-92 519.5,-92 519.5,-73 400.5,-73"/>
<text text-anchor="middle" x="460" y="-80" font-family="Helvetica,sans-Serif" font-size="10.00">G4SystemOfUnits.hh</text>
</a>
</g>
</g>
<!-- Node2&#45;&gt;Node3 -->
<g id="edge2" class="edge">
<title>Node2&#45;&gt;Node3</title>
<path fill="none" stroke="midnightblue" d="M239.82,-134.48C285.53,-123.89 363.53,-105.84 413.37,-94.3"/>
<polygon fill="midnightblue" stroke="midnightblue" points="414.29,-97.67 423.25,-92.01 412.71,-90.85 414.29,-97.67"/>
</g>
<!-- Node4 -->
<g id="node4" class="node">
<title>Node4</title>
<g id="a_node4"><a xlink:title=" ">
<polygon fill="white" stroke="#bfbfbf" points="206.5,-73 206.5,-92 279.5,-92 279.5,-73 206.5,-73"/>
<text text-anchor="middle" x="243" y="-80" font-family="Helvetica,sans-Serif" font-size="10.00">G4Types.hh</text>
</a>
</g>
</g>
<!-- Node2&#45;&gt;Node4 -->
<g id="edge3" class="edge">
<title>Node2&#45;&gt;Node4</title>
<path fill="none" stroke="midnightblue" d="M208.73,-134.48C214.67,-125.64 224.12,-111.59 231.59,-100.48"/>
<polygon fill="midnightblue" stroke="midnightblue" points="234.61,-102.26 237.28,-92.01 228.8,-98.36 234.61,-102.26"/>
</g>
<!-- Node5 -->
<g id="node5" class="node">
<title>Node5</title>
<g id="a_node5"><a xlink:title=" ">
<polygon fill="white" stroke="#bfbfbf" points="0,-73 0,-92 38,-92 38,-73 0,-73"/>
<text text-anchor="middle" x="19" y="-80" font-family="Helvetica,sans-Serif" font-size="10.00">map</text>
</a>
</g>
</g>
<!-- Node2&#45;&gt;Node5 -->
<g id="edge4" class="edge">
<title>Node2&#45;&gt;Node5</title>
<path fill="none" stroke="midnightblue" d="M165.75,-134.45C133.71,-126.59 86.54,-113.76 47,-98 45.8,-97.52 44.58,-97.01 43.36,-96.47"/>
<polygon fill="midnightblue" stroke="midnightblue" points="44.68,-93.22 34.15,-92.04 41.64,-99.53 44.68,-93.22"/>
</g>
<!-- Node6 -->
<g id="node6" class="node">
<title>Node6</title>
<g id="a_node6"><a xlink:title=" ">
<polygon fill="white" stroke="#bfbfbf" points="56.5,-73 56.5,-92 117.5,-92 117.5,-73 56.5,-73"/>
<text text-anchor="middle" x="87" y="-80" font-family="Helvetica,sans-Serif" font-size="10.00">TGraph.h</text>
</a>
</g>
</g>
<!-- Node2&#45;&gt;Node6 -->
<g id="edge5" class="edge">
<title>Node2&#45;&gt;Node6</title>
<path fill="none" stroke="midnightblue" d="M186.38,-134.48C167.08,-124.58 135.04,-108.14 112.57,-96.62"/>
<polygon fill="midnightblue" stroke="midnightblue" points="114.08,-93.46 103.59,-92.01 110.89,-99.69 114.08,-93.46"/>
</g>
<!-- Node7 -->
<g id="node7" class="node">
<title>Node7</title>
<g id="a_node7"><a xlink:title=" ">
<polygon fill="white" stroke="#bfbfbf" points="135.5,-73 135.5,-92 188.5,-92 188.5,-73 135.5,-73"/>
<text text-anchor="middle" x="162" y="-80" font-family="Helvetica,sans-Serif" font-size="10.00">TH2D.h</text>
</a>
</g>
</g>
<!-- Node2&#45;&gt;Node7 -->
<g id="edge6" class="edge">
<title>Node2&#45;&gt;Node7</title>
<path fill="none" stroke="midnightblue" d="M197.13,-134.48C191.04,-125.64 181.36,-111.59 173.7,-100.48"/>
<polygon fill="midnightblue" stroke="midnightblue" points="176.42,-98.26 167.86,-92.01 170.66,-102.23 176.42,-98.26"/>
</g>
<!-- Node8&#45;&gt;Node9 -->
<g id="edge8" class="edge">
<title>Node8&#45;&gt;Node9</title>
<path fill="none" stroke="midnightblue" d="M624.49,-134.48C648.81,-124.36 689.55,-107.4 717.32,-95.85"/>
<polygon fill="midnightblue" stroke="midnightblue" points="718.66,-99.08 726.55,-92.01 715.97,-92.62 718.66,-99.08"/>
</g>
<!-- Node14 -->
<g id="node14" class="node">
<title>Node14</title>
<g id="a_node14"><a xlink:title=" ">
<polygon fill="white" stroke="#bfbfbf" points="624.5,-73 624.5,-92 679.5,-92 679.5,-73 624.5,-73"/>
<text text-anchor="middle" x="652" y="-80" font-family="Helvetica,sans-Serif" font-size="10.00">fstream</text>
</a>
</g>
</g>
<!-- Node8&#45;&gt;Node14 -->
<g id="edge13" class="edge">
<title>Node8&#45;&gt;Node14</title>
<path fill="none" stroke="midnightblue" d="M610.88,-134.48C618.15,-125.46 629.8,-111.02 638.84,-99.81"/>
<polygon fill="midnightblue" stroke="midnightblue" points="641.58,-101.99 645.14,-92.01 636.13,-97.59 641.58,-101.99"/>
</g>
<!-- Node15 -->
<g id="node15" class="node">
<title>Node15</title>
<g id="a_node15"><a xlink:title=" ">
<polygon fill="white" stroke="#bfbfbf" points="298,-73 298,-92 382,-92 382,-73 298,-73"/>
<text text-anchor="middle" x="340" y="-80" font-family="Helvetica,sans-Serif" font-size="10.00">boost/any.hpp</text>
</a>
</g>
</g>
<!-- Node8&#45;&gt;Node15 -->
<g id="edge14" class="edge">
<title>Node8&#45;&gt;Node15</title>
<path fill="none" stroke="midnightblue" d="M559.33,-134.49C516.09,-126.04 448.78,-112.3 391,-98 386.93,-96.99 382.69,-95.88 378.48,-94.74"/>
<polygon fill="midnightblue" stroke="midnightblue" points="379.34,-91.35 368.77,-92.05 377.47,-98.1 379.34,-91.35"/>
</g>
<!-- Node16 -->
<g id="node16" class="node">
<title>Node16</title>
<g id="a_node16"><a xlink:title=" ">
<polygon fill="white" stroke="#bfbfbf" points="538,-73 538,-92 606,-92 606,-73 538,-73"/>
<text text-anchor="middle" x="572" y="-80" font-family="Helvetica,sans-Serif" font-size="10.00">sys/time.h</text>
</a>
</g>
</g>
<!-- Node8&#45;&gt;Node16 -->
<g id="edge15" class="edge">
<title>Node8&#45;&gt;Node16</title>
<path fill="none" stroke="midnightblue" d="M599.42,-134.48C594.76,-125.82 587.41,-112.15 581.49,-101.15"/>
<polygon fill="midnightblue" stroke="midnightblue" points="584.4,-99.16 576.58,-92.01 578.23,-102.47 584.4,-99.16"/>
</g>
<!-- Node10 -->
<g id="node10" class="node">
<title>Node10</title>
<g id="a_node10"><a xlink:title=" ">
<polygon fill="white" stroke="#bfbfbf" points="528.5,-6 528.5,-25 621.5,-25 621.5,-6 528.5,-6"/>
<text text-anchor="middle" x="575" y="-13" font-family="Helvetica,sans-Serif" font-size="10.00">spdlog/spdlog.h</text>
</a>
</g>
</g>
<!-- Node9&#45;&gt;Node10 -->
<g id="edge9" class="edge">
<title>Node9&#45;&gt;Node10</title>
<path fill="none" stroke="midnightblue" d="M724.16,-72.87C694.13,-61.52 641.22,-41.52 607.16,-28.65"/>
<polygon fill="midnightblue" stroke="midnightblue" points="608.25,-25.32 597.66,-25.06 605.78,-31.87 608.25,-25.32"/>
</g>
<!-- Node11 -->
<g id="node11" class="node">
<title>Node11</title>
<g id="a_node11"><a xlink:title=" ">
<polygon fill="white" stroke="#bfbfbf" points="639.5,-0.5 639.5,-30.5 750.5,-30.5 750.5,-0.5 639.5,-0.5"/>
<text text-anchor="start" x="647.5" y="-18.5" font-family="Helvetica,sans-Serif" font-size="10.00">spdlog/sinks/stdout</text>
<text text-anchor="middle" x="695" y="-7.5" font-family="Helvetica,sans-Serif" font-size="10.00">_color_sinks.h</text>
</a>
</g>
</g>
<!-- Node9&#45;&gt;Node11 -->
<g id="edge10" class="edge">
<title>Node9&#45;&gt;Node11</title>
<path fill="none" stroke="midnightblue" d="M739.99,-72.73C733.03,-64.03 722.08,-50.34 712.72,-38.65"/>
<polygon fill="midnightblue" stroke="midnightblue" points="715.25,-36.21 706.27,-30.59 709.79,-40.58 715.25,-36.21"/>
</g>
<!-- Node12 -->
<g id="node12" class="node">
<title>Node12</title>
<g id="a_node12"><a xlink:title=" ">
<polygon fill="white" stroke="#bfbfbf" points="769,-6 769,-25 827,-25 827,-6 769,-6"/>
<text text-anchor="middle" x="798" y="-13" font-family="Helvetica,sans-Serif" font-size="10.00">memory</text>
</a>
</g>
</g>
<!-- Node9&#45;&gt;Node12 -->
<g id="edge11" class="edge">
<title>Node9&#45;&gt;Node12</title>
<path fill="none" stroke="midnightblue" d="M753.88,-72.73C761.83,-62.6 775.1,-45.69 785.01,-33.06"/>
<polygon fill="midnightblue" stroke="midnightblue" points="787.81,-35.16 791.23,-25.13 782.3,-30.83 787.81,-35.16"/>
</g>
<!-- Node13 -->
<g id="node13" class="node">
<title>Node13</title>
<g id="a_node13"><a xlink:title=" ">
<polygon fill="white" stroke="#bfbfbf" points="845,-6 845,-25 943,-25 943,-6 845,-6"/>
<text text-anchor="middle" x="894" y="-13" font-family="Helvetica,sans-Serif" font-size="10.00">spdlog/fmt/fmt.h</text>
</a>
</g>
</g>
<!-- Node9&#45;&gt;Node13 -->
<g id="edge12" class="edge">
<title>Node9&#45;&gt;Node13</title>
<path fill="none" stroke="midnightblue" d="M766.52,-72.87C791.78,-61.7 836,-42.15 865.14,-29.26"/>
<polygon fill="midnightblue" stroke="midnightblue" points="866.67,-32.41 874.4,-25.17 863.84,-26.01 866.67,-32.41"/>
</g>
<!-- Node17&#45;&gt;Node3 -->
<g id="edge20" class="edge">
<title>Node17&#45;&gt;Node3</title>
<path fill="none" stroke="midnightblue" d="M744.34,-134.47C689.47,-125.89 603.29,-111.97 529,-98 522.68,-96.81 516.06,-95.5 509.51,-94.17"/>
<polygon fill="midnightblue" stroke="midnightblue" points="509.85,-90.67 499.35,-92.07 508.44,-97.52 509.85,-90.67"/>
</g>
<!-- Node17&#45;&gt;Node9 -->
<g id="edge18" class="edge">
<title>Node17&#45;&gt;Node9</title>
<path fill="none" stroke="midnightblue" d="M792.41,-134.48C784.3,-125.37 771.27,-110.74 761.24,-99.48"/>
<polygon fill="midnightblue" stroke="midnightblue" points="763.84,-97.15 754.58,-92.01 758.62,-101.8 763.84,-97.15"/>
</g>
<!-- Node18 -->
<g id="node18" class="node">
<title>Node18</title>
<g id="a_node18"><a xlink:title=" ">
<polygon fill="white" stroke="#bfbfbf" points="945.5,-73 945.5,-92 1088.5,-92 1088.5,-73 945.5,-73"/>
<text text-anchor="middle" x="1017" y="-80" font-family="Helvetica,sans-Serif" font-size="10.00">G4OpBoundaryProcess.hh</text>
</a>
</g>
</g>
<!-- Node17&#45;&gt;Node18 -->
<g id="edge19" class="edge">
<title>Node17&#45;&gt;Node18</title>
<path fill="none" stroke="midnightblue" d="M831.09,-134.48C869.28,-124 934.17,-106.21 976.3,-94.66"/>
<polygon fill="midnightblue" stroke="midnightblue" points="977.25,-98.03 985.97,-92.01 975.4,-91.28 977.25,-98.03"/>
</g>
<!-- Node19 -->
<g id="node19" class="node">
<title>Node19</title>
<g id="a_node19"><a xlink:title=" ">
<polygon fill="white" stroke="#bfbfbf" points="814.5,-67.5 814.5,-97.5 927.5,-97.5 927.5,-67.5 814.5,-67.5"/>
<text text-anchor="start" x="822.5" y="-85.5" font-family="Helvetica,sans-Serif" font-size="10.00">boost/property_tree</text>
<text text-anchor="middle" x="871" y="-74.5" font-family="Helvetica,sans-Serif" font-size="10.00">/json_parser.hpp</text>
</a>
</g>
</g>
<!-- Node17&#45;&gt;Node19 -->
<g id="edge21" class="edge">
<title>Node17&#45;&gt;Node19</title>
<path fill="none" stroke="midnightblue" d="M810.17,-134.48C819.61,-126.57 834.03,-114.48 846.46,-104.07"/>
<polygon fill="midnightblue" stroke="midnightblue" points="848.85,-106.63 854.27,-97.52 844.35,-101.26 848.85,-106.63"/>
</g>
</g>
</svg>
