<?xml version="1.0" encoding="UTF-8" standalone="no"?>
<!DOCTYPE svg PUBLIC "-//W3C//DTD SVG 1.1//EN"
 "http://www.w3.org/Graphics/SVG/1.1/DTD/svg11.dtd">
<!-- Generated by graphviz version 2.43.0 (0)
 -->
<!-- Title: OMSimSNParticleGenerators.hh Pages: 1 -->
<svg width="914pt" height="140pt"
 viewBox="0.00 0.00 913.50 140.00" xmlns="http://www.w3.org/2000/svg" xmlns:xlink="http://www.w3.org/1999/xlink">
<g id="graph0" class="graph" transform="scale(1 1) rotate(0) translate(4 136)">
<title>OMSimSNParticleGenerators.hh</title>
<!-- Node1 -->
<g id="node1" class="node">
<title>Node1</title>
<g id="a_node1"><a xlink:title="This file contains the classes in charge of particle generation.">
<polygon fill="#bfbfbf" stroke="black" points="397,-112.5 397,-131.5 567,-131.5 567,-112.5 397,-112.5"/>
<text text-anchor="middle" x="482" y="-119.5" font-family="Helvetica,sans-Serif" font-size="10.00">OMSimSNParticleGenerators.hh</text>
</a>
</g>
</g>
<!-- Node2 -->
<g id="node2" class="node">
<title>Node2</title>
<g id="a_node2"><a xlink:title=" ">
<polygon fill="none" stroke="#bfbfbf" points="0,-56.5 0,-75.5 192,-75.5 192,-56.5 0,-56.5"/>
<text text-anchor="middle" x="96" y="-63.5" font-family="Helvetica,sans-Serif" font-size="10.00">G4VUserPrimaryGeneratorAction.hh</text>
</a>
</g>
</g>
<!-- Node1&#45;&gt;Node2 -->
<g id="edge1" class="edge">
<title>Node1&#45;&gt;Node2</title>
<path fill="none" stroke="midnightblue" d="M420.84,-112.44C351.81,-102.79 239.67,-87.1 166.88,-76.92"/>
<polygon fill="midnightblue" stroke="midnightblue" points="167.27,-73.44 156.88,-75.52 166.3,-80.37 167.27,-73.44"/>
</g>
<!-- Node3 -->
<g id="node3" class="node">
<title>Node3</title>
<g id="a_node3"><a xlink:href="_o_m_sim_primary_generator_messenger_8hh_source.html" target="_top" xlink:title=" ">
<polygon fill="none" stroke="black" points="210,-56.5 210,-75.5 416,-75.5 416,-56.5 210,-56.5"/>
<text text-anchor="middle" x="313" y="-63.5" font-family="Helvetica,sans-Serif" font-size="10.00">OMSimPrimaryGeneratorMessenger.hh</text>
</a>
</g>
</g>
<!-- Node1&#45;&gt;Node3 -->
<g id="edge2" class="edge">
<title>Node1&#45;&gt;Node3</title>
<path fill="none" stroke="midnightblue" d="M455.22,-112.44C426.67,-103.32 381.27,-88.81 349.46,-78.65"/>
<polygon fill="midnightblue" stroke="midnightblue" points="350.24,-75.23 339.65,-75.52 348.11,-81.89 350.24,-75.23"/>
</g>
<!-- Node5 -->
<g id="node5" class="node">
<title>Node5</title>
<g id="a_node5"><a xlink:title=" ">
<polygon fill="none" stroke="#bfbfbf" points="383.5,-0.5 383.5,-19.5 450.5,-19.5 450.5,-0.5 383.5,-0.5"/>
<text text-anchor="middle" x="417" y="-7.5" font-family="Helvetica,sans-Serif" font-size="10.00">globals.hh</text>
</a>
</g>
</g>
<!-- Node1&#45;&gt;Node5 -->
<g id="edge10" class="edge">
<title>Node1&#45;&gt;Node5</title>
<path fill="none" stroke="midnightblue" d="M476.9,-112.37C466.22,-94.3 441.33,-52.18 427.23,-28.31"/>
<polygon fill="midnightblue" stroke="midnightblue" points="430.18,-26.42 422.08,-19.59 424.15,-29.98 430.18,-26.42"/>
</g>
<!-- Node6 -->
<g id="node6" class="node">
<title>Node6</title>
<g id="a_node6"><a xlink:href="_o_m_sim_s_n_tools_8hh.html" target="_top" xlink:title="Provides the definition for the OMSimSNTools class, centralizing utility methods for Supernova (SN) n...">
<polygon fill="none" stroke="black" points="510.5,-56.5 510.5,-75.5 615.5,-75.5 615.5,-56.5 510.5,-56.5"/>
<text text-anchor="middle" x="563" y="-63.5" font-family="Helvetica,sans-Serif" font-size="10.00">OMSimSNTools.hh</text>
</a>
</g>
</g>
<!-- Node1&#45;&gt;Node6 -->
<g id="edge5" class="edge">
<title>Node1&#45;&gt;Node6</title>
<path fill="none" stroke="midnightblue" d="M495.01,-112.32C507.53,-103.98 526.68,-91.21 541.47,-81.35"/>
<polygon fill="midnightblue" stroke="midnightblue" points="543.64,-84.11 550.02,-75.65 539.76,-78.29 543.64,-84.11"/>
</g>
<!-- Node7 -->
<g id="node7" class="node">
<title>Node7</title>
<g id="a_node7"><a xlink:title=" ">
<polygon fill="none" stroke="#bfbfbf" points="468.5,-0.5 468.5,-19.5 515.5,-19.5 515.5,-0.5 468.5,-0.5"/>
<text text-anchor="middle" x="492" y="-7.5" font-family="Helvetica,sans-Serif" font-size="10.00">vector</text>
</a>
</g>
</g>
<!-- Node1&#45;&gt;Node7 -->
<g id="edge11" class="edge">
<title>Node1&#45;&gt;Node7</title>
<path fill="none" stroke="midnightblue" d="M482.78,-112.37C484.4,-94.62 488.12,-53.67 490.31,-29.6"/>
<polygon fill="midnightblue" stroke="midnightblue" points="493.8,-29.87 491.22,-19.59 486.83,-29.23 493.8,-29.87"/>
</g>
<!-- Node10 -->
<g id="node10" class="node">
<title>Node10</title>
<g id="a_node10"><a xlink:title=" ">
<polygon fill="none" stroke="#bfbfbf" points="634,-56.5 634,-75.5 768,-75.5 768,-56.5 634,-56.5"/>
<text text-anchor="middle" x="701" y="-63.5" font-family="Helvetica,sans-Serif" font-size="10.00">G4PhysicalConstants.hh</text>
</a>
</g>
</g>
<!-- Node1&#45;&gt;Node10 -->
<g id="edge12" class="edge">
<title>Node1&#45;&gt;Node10</title>
<path fill="none" stroke="midnightblue" d="M516.7,-112.44C554.58,-103.1 615.35,-88.12 656.66,-77.93"/>
<polygon fill="midnightblue" stroke="midnightblue" points="657.59,-81.31 666.46,-75.52 655.91,-74.51 657.59,-81.31"/>
</g>
<!-- Node11 -->
<g id="node11" class="node">
<title>Node11</title>
<g id="a_node11"><a xlink:title=" ">
<polygon fill="none" stroke="#bfbfbf" points="786.5,-56.5 786.5,-75.5 905.5,-75.5 905.5,-56.5 786.5,-56.5"/>
<text text-anchor="middle" x="846" y="-63.5" font-family="Helvetica,sans-Serif" font-size="10.00">G4SystemOfUnits.hh</text>
</a>
</g>
</g>
<!-- Node1&#45;&gt;Node11 -->
<g id="edge13" class="edge">
<title>Node1&#45;&gt;Node11</title>
<path fill="none" stroke="midnightblue" d="M539.68,-112.44C604.51,-102.83 709.65,-87.23 778.32,-77.04"/>
<polygon fill="midnightblue" stroke="midnightblue" points="779.21,-80.45 788.59,-75.52 778.19,-73.52 779.21,-80.45"/>
</g>
<!-- Node4 -->
<g id="node4" class="node">
<title>Node4</title>
<g id="a_node4"><a xlink:title=" ">
<polygon fill="none" stroke="#bfbfbf" points="256.5,-0.5 256.5,-19.5 365.5,-19.5 365.5,-0.5 256.5,-0.5"/>
<text text-anchor="middle" x="311" y="-7.5" font-family="Helvetica,sans-Serif" font-size="10.00">G4UImessenger.hh</text>
</a>
</g>
</g>
<!-- Node3&#45;&gt;Node4 -->
<g id="edge3" class="edge">
<title>Node3&#45;&gt;Node4</title>
<path fill="none" stroke="midnightblue" d="M312.67,-56.08C312.41,-49.01 312.03,-38.86 311.7,-29.99"/>
<polygon fill="midnightblue" stroke="midnightblue" points="315.19,-29.61 311.32,-19.75 308.2,-29.87 315.19,-29.61"/>
</g>
<!-- Node3&#45;&gt;Node5 -->
<g id="edge4" class="edge">
<title>Node3&#45;&gt;Node5</title>
<path fill="none" stroke="midnightblue" d="M329.71,-56.32C346.31,-47.7 372,-34.36 391.22,-24.39"/>
<polygon fill="midnightblue" stroke="midnightblue" points="393.07,-27.37 400.33,-19.65 389.84,-21.16 393.07,-27.37"/>
</g>
<!-- Node6&#45;&gt;Node5 -->
<g id="edge6" class="edge">
<title>Node6&#45;&gt;Node5</title>
<path fill="none" stroke="midnightblue" d="M539.87,-56.44C515.52,-47.44 476.99,-33.19 449.58,-23.05"/>
<polygon fill="midnightblue" stroke="midnightblue" points="450.62,-19.7 440.03,-19.52 448.19,-26.27 450.62,-19.7"/>
</g>
<!-- Node6&#45;&gt;Node7 -->
<g id="edge7" class="edge">
<title>Node6&#45;&gt;Node7</title>
<path fill="none" stroke="midnightblue" d="M551.59,-56.32C540.89,-48.18 524.66,-35.84 511.84,-26.09"/>
<polygon fill="midnightblue" stroke="midnightblue" points="513.69,-23.1 503.61,-19.83 509.46,-28.67 513.69,-23.1"/>
</g>
<!-- Node8 -->
<g id="node8" class="node">
<title>Node8</title>
<g id="a_node8"><a xlink:title=" ">
<polygon fill="none" stroke="#bfbfbf" points="612.5,-0.5 612.5,-19.5 715.5,-19.5 715.5,-0.5 612.5,-0.5"/>
<text text-anchor="middle" x="664" y="-7.5" font-family="Helvetica,sans-Serif" font-size="10.00">G4ThreeVector.hh</text>
</a>
</g>
</g>
<!-- Node6&#45;&gt;Node8 -->
<g id="edge8" class="edge">
<title>Node6&#45;&gt;Node8</title>
<path fill="none" stroke="midnightblue" d="M579.23,-56.32C595.35,-47.7 620.3,-34.36 638.96,-24.39"/>
<polygon fill="midnightblue" stroke="midnightblue" points="640.64,-27.46 647.81,-19.65 637.34,-21.28 640.64,-27.46"/>
</g>
<!-- Node9 -->
<g id="node9" class="node">
<title>Node9</title>
<g id="a_node9"><a xlink:title=" ">
<polygon fill="none" stroke="#bfbfbf" points="533.5,-0.5 533.5,-19.5 594.5,-19.5 594.5,-0.5 533.5,-0.5"/>
<text text-anchor="middle" x="564" y="-7.5" font-family="Helvetica,sans-Serif" font-size="10.00">TGraph.h</text>
</a>
</g>
</g>
<!-- Node6&#45;&gt;Node9 -->
<g id="edge9" class="edge">
<title>Node6&#45;&gt;Node9</title>
<path fill="none" stroke="midnightblue" d="M563.17,-56.08C563.3,-49.01 563.48,-38.86 563.65,-29.99"/>
<polygon fill="midnightblue" stroke="midnightblue" points="567.15,-29.81 563.84,-19.75 560.15,-29.68 567.15,-29.81"/>
</g>
</g>
</svg>
