<?xml version="1.0" encoding="UTF-8" standalone="no"?>
<!DOCTYPE svg PUBLIC "-//W3C//DTD SVG 1.1//EN"
 "http://www.w3.org/Graphics/SVG/1.1/DTD/svg11.dtd">
<!-- Generated by graphviz version 2.43.0 (0)
 -->
<!-- Title: OMSimEffectiveAreaAnalyisis.cc Pages: 1 -->
<svg width="1172pt" height="263pt"
 viewBox="0.00 0.00 1171.50 263.00" xmlns="http://www.w3.org/2000/svg" xmlns:xlink="http://www.w3.org/1999/xlink">
<g id="graph0" class="graph" transform="scale(1 1) rotate(0) translate(4 259)">
<title>OMSimEffectiveAreaAnalyisis.cc</title>
<polygon fill="white" stroke="transparent" points="-4,4 -4,-259 1167.5,-259 1167.5,4 -4,4"/>
<!-- Node1 -->
<g id="node1" class="node">
<title>Node1</title>
<g id="a_node1"><a xlink:title=" ">
<polygon fill="#bfbfbf" stroke="black" points="477,-235.5 477,-254.5 652,-254.5 652,-235.5 477,-235.5"/>
<text text-anchor="middle" x="564.5" y="-242.5" font-family="Helvetica,sans-Serif" font-size="10.00">OMSimEffectiveAreaAnalyisis.cc</text>
</a>
</g>
</g>
<!-- Node2 -->
<g id="node2" class="node">
<title>Node2</title>
<g id="a_node2"><a xlink:href="_o_m_sim_effective_area_analyisis_8hh.html" target="_top" xlink:title=" ">
<polygon fill="white" stroke="black" points="360.5,-179.5 360.5,-198.5 536.5,-198.5 536.5,-179.5 360.5,-179.5"/>
<text text-anchor="middle" x="448.5" y="-186.5" font-family="Helvetica,sans-Serif" font-size="10.00">OMSimEffectiveAreaAnalyisis.hh</text>
</a>
</g>
</g>
<!-- Node1&#45;&gt;Node2 -->
<g id="edge1" class="edge">
<title>Node1&#45;&gt;Node2</title>
<path fill="none" stroke="midnightblue" d="M546.12,-235.44C527.28,-226.68 497.77,-212.94 476.12,-202.86"/>
<polygon fill="midnightblue" stroke="midnightblue" points="477.34,-199.56 466.79,-198.52 474.38,-205.91 477.34,-199.56"/>
</g>
<!-- Node9 -->
<g id="node9" class="node">
<title>Node9</title>
<g id="a_node9"><a xlink:href="_o_m_sim_hit_manager_8hh.html" target="_top" xlink:title="Defines structures and classes related to optical module photon hit management.">
<polygon fill="white" stroke="black" points="438,-123.5 438,-142.5 561,-142.5 561,-123.5 438,-123.5"/>
<text text-anchor="middle" x="499.5" y="-130.5" font-family="Helvetica,sans-Serif" font-size="10.00">OMSimHitManager.hh</text>
</a>
</g>
</g>
<!-- Node1&#45;&gt;Node9 -->
<g id="edge25" class="edge">
<title>Node1&#45;&gt;Node9</title>
<path fill="none" stroke="midnightblue" d="M563.41,-235.45C561.47,-222.46 556.51,-197.35 545.5,-179 538.72,-167.7 528.43,-157.27 519.3,-149.3"/>
<polygon fill="midnightblue" stroke="midnightblue" points="521.3,-146.41 511.37,-142.71 516.83,-151.79 521.3,-146.41"/>
</g>
<!-- Node14 -->
<g id="node14" class="node">
<title>Node14</title>
<g id="a_node14"><a xlink:href="_o_m_sim_command_args_table_8hh.html" target="_top" xlink:title="Definition of the OMSimCommandArgsTable singleton class, which controls user args.">
<polygon fill="white" stroke="black" points="752.5,-179.5 752.5,-198.5 916.5,-198.5 916.5,-179.5 752.5,-179.5"/>
<text text-anchor="middle" x="834.5" y="-186.5" font-family="Helvetica,sans-Serif" font-size="10.00">OMSimCommandArgsTable.hh</text>
</a>
</g>
</g>
<!-- Node1&#45;&gt;Node14 -->
<g id="edge16" class="edge">
<title>Node1&#45;&gt;Node14</title>
<path fill="none" stroke="midnightblue" d="M607.28,-235.44C654.68,-225.96 731.13,-210.67 782.08,-200.48"/>
<polygon fill="midnightblue" stroke="midnightblue" points="782.8,-203.91 791.92,-198.52 781.43,-197.05 782.8,-203.91"/>
</g>
<!-- Node3 -->
<g id="node3" class="node">
<title>Node3</title>
<g id="a_node3"><a xlink:href="_o_m_sim_p_m_t_response_8hh.html" target="_top" xlink:title="Simulation of PMT response.">
<polygon fill="white" stroke="black" points="180,-62 180,-81 315,-81 315,-62 180,-62"/>
<text text-anchor="middle" x="247.5" y="-69" font-family="Helvetica,sans-Serif" font-size="10.00">OMSimPMTResponse.hh</text>
</a>
</g>
</g>
<!-- Node2&#45;&gt;Node3 -->
<g id="edge2" class="edge">
<title>Node2&#45;&gt;Node3</title>
<path fill="none" stroke="midnightblue" d="M433.39,-179.32C398.68,-159.37 313,-110.14 271.2,-86.12"/>
<polygon fill="midnightblue" stroke="midnightblue" points="272.92,-83.07 262.51,-81.12 269.44,-89.14 272.92,-83.07"/>
</g>
<!-- Node2&#45;&gt;Node9 -->
<g id="edge8" class="edge">
<title>Node2&#45;&gt;Node9</title>
<path fill="none" stroke="midnightblue" d="M456.92,-179.08C464.35,-171.22 475.35,-159.57 484.31,-150.08"/>
<polygon fill="midnightblue" stroke="midnightblue" points="486.91,-152.42 491.24,-142.75 481.82,-147.62 486.91,-152.42"/>
</g>
<!-- Node10 -->
<g id="node10" class="node">
<title>Node10</title>
<g id="a_node10"><a xlink:title=" ">
<polygon fill="white" stroke="#bfbfbf" points="333,-62 333,-81 436,-81 436,-62 333,-62"/>
<text text-anchor="middle" x="384.5" y="-69" font-family="Helvetica,sans-Serif" font-size="10.00">G4ThreeVector.hh</text>
</a>
</g>
</g>
<!-- Node2&#45;&gt;Node10 -->
<g id="edge14" class="edge">
<title>Node2&#45;&gt;Node10</title>
<path fill="none" stroke="midnightblue" d="M443.69,-179.32C433.22,-160.42 408.19,-115.25 394.26,-90.12"/>
<polygon fill="midnightblue" stroke="midnightblue" points="397.27,-88.33 389.37,-81.28 391.15,-91.73 397.27,-88.33"/>
</g>
<!-- Node11 -->
<g id="node11" class="node">
<title>Node11</title>
<g id="a_node11"><a xlink:title=" ">
<polygon fill="white" stroke="#bfbfbf" points="675,-62 675,-81 730,-81 730,-62 675,-62"/>
<text text-anchor="middle" x="702.5" y="-69" font-family="Helvetica,sans-Serif" font-size="10.00">fstream</text>
</a>
</g>
</g>
<!-- Node2&#45;&gt;Node11 -->
<g id="edge15" class="edge">
<title>Node2&#45;&gt;Node11</title>
<path fill="none" stroke="midnightblue" d="M474.39,-179.48C499.16,-171.07 537.4,-157.4 569.5,-143 608.79,-125.37 652.6,-101.23 678.83,-86.26"/>
<polygon fill="midnightblue" stroke="midnightblue" points="680.73,-89.21 687.66,-81.19 677.25,-83.14 680.73,-89.21"/>
</g>
<!-- Node4 -->
<g id="node4" class="node">
<title>Node4</title>
<g id="a_node4"><a xlink:title=" ">
<polygon fill="white" stroke="#bfbfbf" points="0,-0.5 0,-19.5 119,-19.5 119,-0.5 0,-0.5"/>
<text text-anchor="middle" x="59.5" y="-7.5" font-family="Helvetica,sans-Serif" font-size="10.00">G4SystemOfUnits.hh</text>
</a>
</g>
</g>
<!-- Node3&#45;&gt;Node4 -->
<g id="edge3" class="edge">
<title>Node3&#45;&gt;Node4</title>
<path fill="none" stroke="midnightblue" d="M220.56,-61.98C187.9,-51.64 132.68,-34.16 96.16,-22.6"/>
<polygon fill="midnightblue" stroke="midnightblue" points="96.98,-19.19 86.39,-19.51 94.86,-25.86 96.98,-19.19"/>
</g>
<!-- Node5 -->
<g id="node5" class="node">
<title>Node5</title>
<g id="a_node5"><a xlink:title=" ">
<polygon fill="white" stroke="#bfbfbf" points="137,-0.5 137,-19.5 210,-19.5 210,-0.5 137,-0.5"/>
<text text-anchor="middle" x="173.5" y="-7.5" font-family="Helvetica,sans-Serif" font-size="10.00">G4Types.hh</text>
</a>
</g>
</g>
<!-- Node3&#45;&gt;Node5 -->
<g id="edge4" class="edge">
<title>Node3&#45;&gt;Node5</title>
<path fill="none" stroke="midnightblue" d="M236.9,-61.98C225.25,-52.61 206.31,-37.38 192.17,-26.01"/>
<polygon fill="midnightblue" stroke="midnightblue" points="194.07,-23.05 184.08,-19.51 189.68,-28.5 194.07,-23.05"/>
</g>
<!-- Node6 -->
<g id="node6" class="node">
<title>Node6</title>
<g id="a_node6"><a xlink:title=" ">
<polygon fill="white" stroke="#bfbfbf" points="228.5,-0.5 228.5,-19.5 266.5,-19.5 266.5,-0.5 228.5,-0.5"/>
<text text-anchor="middle" x="247.5" y="-7.5" font-family="Helvetica,sans-Serif" font-size="10.00">map</text>
</a>
</g>
</g>
<!-- Node3&#45;&gt;Node6 -->
<g id="edge5" class="edge">
<title>Node3&#45;&gt;Node6</title>
<path fill="none" stroke="midnightblue" d="M247.5,-61.98C247.5,-53.58 247.5,-40.48 247.5,-29.66"/>
<polygon fill="midnightblue" stroke="midnightblue" points="251,-29.51 247.5,-19.51 244,-29.51 251,-29.51"/>
</g>
<!-- Node7 -->
<g id="node7" class="node">
<title>Node7</title>
<g id="a_node7"><a xlink:title=" ">
<polygon fill="white" stroke="#bfbfbf" points="285,-0.5 285,-19.5 346,-19.5 346,-0.5 285,-0.5"/>
<text text-anchor="middle" x="315.5" y="-7.5" font-family="Helvetica,sans-Serif" font-size="10.00">TGraph.h</text>
</a>
</g>
</g>
<!-- Node3&#45;&gt;Node7 -->
<g id="edge6" class="edge">
<title>Node3&#45;&gt;Node7</title>
<path fill="none" stroke="midnightblue" d="M257.24,-61.98C267.85,-52.7 285.02,-37.67 297.98,-26.33"/>
<polygon fill="midnightblue" stroke="midnightblue" points="300.55,-28.73 305.78,-19.51 295.94,-23.46 300.55,-28.73"/>
</g>
<!-- Node8 -->
<g id="node8" class="node">
<title>Node8</title>
<g id="a_node8"><a xlink:title=" ">
<polygon fill="white" stroke="#bfbfbf" points="364,-0.5 364,-19.5 417,-19.5 417,-0.5 364,-0.5"/>
<text text-anchor="middle" x="390.5" y="-7.5" font-family="Helvetica,sans-Serif" font-size="10.00">TH2D.h</text>
</a>
</g>
</g>
<!-- Node3&#45;&gt;Node8 -->
<g id="edge7" class="edge">
<title>Node3&#45;&gt;Node8</title>
<path fill="none" stroke="midnightblue" d="M267.99,-61.98C292.31,-51.86 333.05,-34.9 360.82,-23.35"/>
<polygon fill="midnightblue" stroke="midnightblue" points="362.16,-26.58 370.05,-19.51 359.47,-20.12 362.16,-26.58"/>
</g>
<!-- Node9&#45;&gt;Node3 -->
<g id="edge9" class="edge">
<title>Node9&#45;&gt;Node3</title>
<path fill="none" stroke="midnightblue" d="M463.39,-123.48C418.67,-112.92 342.42,-94.91 293.53,-83.37"/>
<polygon fill="midnightblue" stroke="midnightblue" points="294.08,-79.9 283.54,-81.01 292.47,-86.71 294.08,-79.9"/>
</g>
<!-- Node9&#45;&gt;Node10 -->
<g id="edge10" class="edge">
<title>Node9&#45;&gt;Node10</title>
<path fill="none" stroke="midnightblue" d="M483.02,-123.48C463.89,-113.58 432.13,-97.14 409.85,-85.62"/>
<polygon fill="midnightblue" stroke="midnightblue" points="411.44,-82.5 400.95,-81.01 408.22,-88.71 411.44,-82.5"/>
</g>
<!-- Node9&#45;&gt;Node11 -->
<g id="edge11" class="edge">
<title>Node9&#45;&gt;Node11</title>
<path fill="none" stroke="midnightblue" d="M535.45,-123.45C569.3,-115.13 621.27,-101.61 665.5,-87 667.77,-86.25 670.1,-85.44 672.43,-84.6"/>
<polygon fill="midnightblue" stroke="midnightblue" points="673.78,-87.83 681.9,-81.03 671.31,-81.28 673.78,-87.83"/>
</g>
<!-- Node12 -->
<g id="node12" class="node">
<title>Node12</title>
<g id="a_node12"><a xlink:title=" ">
<polygon fill="white" stroke="#bfbfbf" points="454.5,-62 454.5,-81 544.5,-81 544.5,-62 454.5,-62"/>
<text text-anchor="middle" x="499.5" y="-69" font-family="Helvetica,sans-Serif" font-size="10.00">G4AutoLock.hh</text>
</a>
</g>
</g>
<!-- Node9&#45;&gt;Node12 -->
<g id="edge12" class="edge">
<title>Node9&#45;&gt;Node12</title>
<path fill="none" stroke="midnightblue" d="M499.5,-123.48C499.5,-115.08 499.5,-101.98 499.5,-91.16"/>
<polygon fill="midnightblue" stroke="midnightblue" points="503,-91.01 499.5,-81.01 496,-91.01 503,-91.01"/>
</g>
<!-- Node13 -->
<g id="node13" class="node">
<title>Node13</title>
<g id="a_node13"><a xlink:title=" ">
<polygon fill="white" stroke="#bfbfbf" points="562.5,-62 562.5,-81 656.5,-81 656.5,-62 562.5,-62"/>
<text text-anchor="middle" x="609.5" y="-69" font-family="Helvetica,sans-Serif" font-size="10.00">G4Threading.hh</text>
</a>
</g>
</g>
<!-- Node9&#45;&gt;Node13 -->
<g id="edge13" class="edge">
<title>Node9&#45;&gt;Node13</title>
<path fill="none" stroke="midnightblue" d="M515.26,-123.48C533.48,-113.62 563.67,-97.29 584.97,-85.77"/>
<polygon fill="midnightblue" stroke="midnightblue" points="586.64,-88.85 593.77,-81.01 583.31,-82.69 586.64,-88.85"/>
</g>
<!-- Node14&#45;&gt;Node11 -->
<g id="edge22" class="edge">
<title>Node14&#45;&gt;Node11</title>
<path fill="none" stroke="midnightblue" d="M822.67,-179.37C810.75,-170.55 791.96,-156.3 776.5,-143 755.62,-125.03 732.85,-102.93 718.16,-88.31"/>
<polygon fill="midnightblue" stroke="midnightblue" points="720.44,-85.64 710.89,-81.04 715.48,-90.59 720.44,-85.64"/>
</g>
<!-- Node15 -->
<g id="node15" class="node">
<title>Node15</title>
<g id="a_node15"><a xlink:href="_o_m_sim_logger_8hh.html" target="_top" xlink:title=" ">
<polygon fill="white" stroke="black" points="785,-123.5 785,-142.5 884,-142.5 884,-123.5 785,-123.5"/>
<text text-anchor="middle" x="834.5" y="-130.5" font-family="Helvetica,sans-Serif" font-size="10.00">OMSimLogger.hh</text>
</a>
</g>
</g>
<!-- Node14&#45;&gt;Node15 -->
<g id="edge17" class="edge">
<title>Node14&#45;&gt;Node15</title>
<path fill="none" stroke="midnightblue" d="M834.5,-179.08C834.5,-172.01 834.5,-161.86 834.5,-152.99"/>
<polygon fill="midnightblue" stroke="midnightblue" points="838,-152.75 834.5,-142.75 831,-152.75 838,-152.75"/>
</g>
<!-- Node20 -->
<g id="node20" class="node">
<title>Node20</title>
<g id="a_node20"><a xlink:title=" ">
<polygon fill="white" stroke="#bfbfbf" points="902.5,-123.5 902.5,-142.5 986.5,-142.5 986.5,-123.5 902.5,-123.5"/>
<text text-anchor="middle" x="944.5" y="-130.5" font-family="Helvetica,sans-Serif" font-size="10.00">boost/any.hpp</text>
</a>
</g>
</g>
<!-- Node14&#45;&gt;Node20 -->
<g id="edge23" class="edge">
<title>Node14&#45;&gt;Node20</title>
<path fill="none" stroke="midnightblue" d="M852.17,-179.32C869.89,-170.62 897.4,-157.12 917.79,-147.11"/>
<polygon fill="midnightblue" stroke="midnightblue" points="919.44,-150.2 926.87,-142.65 916.35,-143.92 919.44,-150.2"/>
</g>
<!-- Node21 -->
<g id="node21" class="node">
<title>Node21</title>
<g id="a_node21"><a xlink:title=" ">
<polygon fill="white" stroke="#bfbfbf" points="1004.5,-123.5 1004.5,-142.5 1072.5,-142.5 1072.5,-123.5 1004.5,-123.5"/>
<text text-anchor="middle" x="1038.5" y="-130.5" font-family="Helvetica,sans-Serif" font-size="10.00">sys/time.h</text>
</a>
</g>
</g>
<!-- Node14&#45;&gt;Node21 -->
<g id="edge24" class="edge">
<title>Node14&#45;&gt;Node21</title>
<path fill="none" stroke="midnightblue" d="M866.82,-179.44C901.89,-170.16 958,-155.31 996.46,-145.13"/>
<polygon fill="midnightblue" stroke="midnightblue" points="997.56,-148.46 1006.33,-142.52 995.76,-141.69 997.56,-148.46"/>
</g>
<!-- Node16 -->
<g id="node16" class="node">
<title>Node16</title>
<g id="a_node16"><a xlink:title=" ">
<polygon fill="white" stroke="#bfbfbf" points="865,-62 865,-81 958,-81 958,-62 865,-62"/>
<text text-anchor="middle" x="911.5" y="-69" font-family="Helvetica,sans-Serif" font-size="10.00">spdlog/spdlog.h</text>
</a>
</g>
</g>
<!-- Node15&#45;&gt;Node16 -->
<g id="edge18" class="edge">
<title>Node15&#45;&gt;Node16</title>
<path fill="none" stroke="midnightblue" d="M845.53,-123.48C857.77,-114.02 877.73,-98.6 892.49,-87.19"/>
<polygon fill="midnightblue" stroke="midnightblue" points="894.72,-89.89 900.49,-81.01 890.44,-84.35 894.72,-89.89"/>
</g>
<!-- Node17 -->
<g id="node17" class="node">
<title>Node17</title>
<g id="a_node17"><a xlink:title=" ">
<polygon fill="white" stroke="#bfbfbf" points="976,-56.5 976,-86.5 1087,-86.5 1087,-56.5 976,-56.5"/>
<text text-anchor="start" x="984" y="-74.5" font-family="Helvetica,sans-Serif" font-size="10.00">spdlog/sinks/stdout</text>
<text text-anchor="middle" x="1031.5" y="-63.5" font-family="Helvetica,sans-Serif" font-size="10.00">_color_sinks.h</text>
</a>
</g>
</g>
<!-- Node15&#45;&gt;Node17 -->
<g id="edge19" class="edge">
<title>Node15&#45;&gt;Node17</title>
<path fill="none" stroke="midnightblue" d="M862.73,-123.48C892.02,-114.63 938.63,-100.55 975.45,-89.43"/>
<polygon fill="midnightblue" stroke="midnightblue" points="976.51,-92.76 985.07,-86.52 974.49,-86.06 976.51,-92.76"/>
</g>
<!-- Node18 -->
<g id="node18" class="node">
<title>Node18</title>
<g id="a_node18"><a xlink:title=" ">
<polygon fill="white" stroke="#bfbfbf" points="1105.5,-62 1105.5,-81 1163.5,-81 1163.5,-62 1105.5,-62"/>
<text text-anchor="middle" x="1134.5" y="-69" font-family="Helvetica,sans-Serif" font-size="10.00">memory</text>
</a>
</g>
</g>
<!-- Node15&#45;&gt;Node18 -->
<g id="edge20" class="edge">
<title>Node15&#45;&gt;Node18</title>
<path fill="none" stroke="midnightblue" d="M884.18,-124C954.4,-112.62 1076.41,-92.5 1096.5,-87 1099.15,-86.27 1101.88,-85.43 1104.6,-84.53"/>
<polygon fill="midnightblue" stroke="midnightblue" points="1106,-87.74 1114.23,-81.07 1103.64,-81.15 1106,-87.74"/>
</g>
<!-- Node19 -->
<g id="node19" class="node">
<title>Node19</title>
<g id="a_node19"><a xlink:title=" ">
<polygon fill="white" stroke="#bfbfbf" points="748.5,-62 748.5,-81 846.5,-81 846.5,-62 748.5,-62"/>
<text text-anchor="middle" x="797.5" y="-69" font-family="Helvetica,sans-Serif" font-size="10.00">spdlog/fmt/fmt.h</text>
</a>
</g>
</g>
<!-- Node15&#45;&gt;Node19 -->
<g id="edge21" class="edge">
<title>Node15&#45;&gt;Node19</title>
<path fill="none" stroke="midnightblue" d="M829.2,-123.48C823.76,-114.73 815.14,-100.87 808.26,-89.81"/>
<polygon fill="midnightblue" stroke="midnightblue" points="811.04,-87.65 802.79,-81.01 805.1,-91.35 811.04,-87.65"/>
</g>
</g>
</svg>
