<?xml version="1.0" encoding="UTF-8" standalone="no"?>
<!DOCTYPE svg PUBLIC "-//W3C//DTD SVG 1.1//EN"
 "http://www.w3.org/Graphics/SVG/1.1/DTD/svg11.dtd">
<!-- Generated by graphviz version 2.43.0 (0)
 -->
<!-- Title: OMSimDetectorConstruction.hh Pages: 1 -->
<svg width="1289pt" height="386pt"
 viewBox="0.00 0.00 1288.50 386.00" xmlns="http://www.w3.org/2000/svg" xmlns:xlink="http://www.w3.org/1999/xlink">
<g id="graph0" class="graph" transform="scale(1 1) rotate(0) translate(4 382)">
<title>OMSimDetectorConstruction.hh</title>
<polygon fill="white" stroke="transparent" points="-4,4 -4,-382 1284.5,-382 1284.5,4 -4,4"/>
<!-- Node1 -->
<g id="node1" class="node">
<title>Node1</title>
<g id="a_node1"><a xlink:title=" ">
<polygon fill="#bfbfbf" stroke="black" points="670.5,-358.5 670.5,-377.5 840.5,-377.5 840.5,-358.5 670.5,-358.5"/>
<text text-anchor="middle" x="755.5" y="-365.5" font-family="Helvetica,sans-Serif" font-size="10.00">OMSimDetectorConstruction.hh</text>
</a>
</g>
</g>
<!-- Node2 -->
<g id="node2" class="node">
<title>Node2</title>
<g id="a_node2"><a xlink:href="_o_m_sim_optical_module_8hh.html" target="_top" xlink:title=" ">
<polygon fill="white" stroke="black" points="569,-302.5 569,-321.5 706,-321.5 706,-302.5 569,-302.5"/>
<text text-anchor="middle" x="637.5" y="-309.5" font-family="Helvetica,sans-Serif" font-size="10.00">OMSimOpticalModule.hh</text>
</a>
</g>
</g>
<!-- Node1&#45;&gt;Node2 -->
<g id="edge1" class="edge">
<title>Node1&#45;&gt;Node2</title>
<path fill="none" stroke="midnightblue" d="M736.8,-358.44C717.56,-349.64 687.35,-335.81 665.3,-325.72"/>
<polygon fill="midnightblue" stroke="midnightblue" points="666.66,-322.5 656.11,-321.52 663.75,-328.86 666.66,-322.5"/>
</g>
<!-- Node31 -->
<g id="node31" class="node">
<title>Node31</title>
<g id="a_node31"><a xlink:title=" ">
<polygon fill="white" stroke="#bfbfbf" points="724.5,-302.5 724.5,-321.5 786.5,-321.5 786.5,-302.5 724.5,-302.5"/>
<text text-anchor="middle" x="755.5" y="-309.5" font-family="Helvetica,sans-Serif" font-size="10.00">G4Orb.hh</text>
</a>
</g>
</g>
<!-- Node1&#45;&gt;Node31 -->
<g id="edge37" class="edge">
<title>Node1&#45;&gt;Node31</title>
<path fill="none" stroke="midnightblue" d="M755.5,-358.08C755.5,-351.01 755.5,-340.86 755.5,-331.99"/>
<polygon fill="midnightblue" stroke="midnightblue" points="759,-331.75 755.5,-321.75 752,-331.75 759,-331.75"/>
</g>
<!-- Node32 -->
<g id="node32" class="node">
<title>Node32</title>
<g id="a_node32"><a xlink:title=" ">
<polygon fill="white" stroke="#bfbfbf" points="804.5,-302.5 804.5,-321.5 982.5,-321.5 982.5,-302.5 804.5,-302.5"/>
<text text-anchor="middle" x="893.5" y="-309.5" font-family="Helvetica,sans-Serif" font-size="10.00">G4VUserDetectorConstruction.hh</text>
</a>
</g>
</g>
<!-- Node1&#45;&gt;Node32 -->
<g id="edge38" class="edge">
<title>Node1&#45;&gt;Node32</title>
<path fill="none" stroke="midnightblue" d="M777.37,-358.44C800.28,-349.48 836.48,-335.31 862.37,-325.18"/>
<polygon fill="midnightblue" stroke="midnightblue" points="863.7,-328.42 871.74,-321.52 861.15,-321.9 863.7,-328.42"/>
</g>
<!-- Node3 -->
<g id="node3" class="node">
<title>Node3</title>
<g id="a_node3"><a xlink:href="abc_detector_component_8hh.html" target="_top" xlink:title="Provides helper base class abcDetectorComponent for constructing and managing detector components in ...">
<polygon fill="white" stroke="black" points="776,-190.5 776,-209.5 923,-209.5 923,-190.5 776,-190.5"/>
<text text-anchor="middle" x="849.5" y="-197.5" font-family="Helvetica,sans-Serif" font-size="10.00">abcDetectorComponent.hh</text>
</a>
</g>
</g>
<!-- Node2&#45;&gt;Node3 -->
<g id="edge2" class="edge">
<title>Node2&#45;&gt;Node3</title>
<path fill="none" stroke="midnightblue" d="M658.94,-302.41C679.82,-293.84 712.3,-279.98 739.5,-266 770.92,-249.86 805.82,-228.65 827.71,-214.92"/>
<polygon fill="midnightblue" stroke="midnightblue" points="829.65,-217.83 836.24,-209.53 825.92,-211.91 829.65,-217.83"/>
</g>
<!-- Node17 -->
<g id="node17" class="node">
<title>Node17</title>
<g id="a_node17"><a xlink:href="_o_m_sim_hit_manager_8hh.html" target="_top" xlink:title="Defines structures and classes related to optical module photon hit management.">
<polygon fill="white" stroke="black" points="379,-246.5 379,-265.5 502,-265.5 502,-246.5 379,-246.5"/>
<text text-anchor="middle" x="440.5" y="-253.5" font-family="Helvetica,sans-Serif" font-size="10.00">OMSimHitManager.hh</text>
</a>
</g>
</g>
<!-- Node2&#45;&gt;Node17 -->
<g id="edge16" class="edge">
<title>Node2&#45;&gt;Node17</title>
<path fill="none" stroke="midnightblue" d="M606.28,-302.44C572.57,-293.2 518.7,-278.44 481.57,-268.26"/>
<polygon fill="midnightblue" stroke="midnightblue" points="482.14,-264.78 471.57,-265.52 480.29,-271.54 482.14,-264.78"/>
</g>
<!-- Node28 -->
<g id="node28" class="node">
<title>Node28</title>
<g id="a_node28"><a xlink:href="_o_m_sim_p_m_t_construction_8hh.html" target="_top" xlink:title="Construction of the PMTs.">
<polygon fill="white" stroke="black" points="563,-246.5 563,-265.5 712,-265.5 712,-246.5 563,-246.5"/>
<text text-anchor="middle" x="637.5" y="-253.5" font-family="Helvetica,sans-Serif" font-size="10.00">OMSimPMTConstruction.hh</text>
</a>
</g>
</g>
<!-- Node2&#45;&gt;Node28 -->
<g id="edge31" class="edge">
<title>Node2&#45;&gt;Node28</title>
<path fill="none" stroke="midnightblue" d="M637.5,-302.08C637.5,-295.01 637.5,-284.86 637.5,-275.99"/>
<polygon fill="midnightblue" stroke="midnightblue" points="641,-275.75 637.5,-265.75 634,-275.75 641,-275.75"/>
</g>
<!-- Node4 -->
<g id="node4" class="node">
<title>Node4</title>
<g id="a_node4"><a xlink:href="_o_m_sim_input_data_8hh.html" target="_top" xlink:title="Definition of ParameterTable and InputDataManager.">
<polygon fill="white" stroke="black" points="642,-134.5 642,-153.5 757,-153.5 757,-134.5 642,-134.5"/>
<text text-anchor="middle" x="699.5" y="-141.5" font-family="Helvetica,sans-Serif" font-size="10.00">OMSimInputData.hh</text>
</a>
</g>
</g>
<!-- Node3&#45;&gt;Node4 -->
<g id="edge3" class="edge">
<title>Node3&#45;&gt;Node4</title>
<path fill="none" stroke="midnightblue" d="M825.73,-190.44C800.61,-181.4 760.79,-167.06 732.6,-156.92"/>
<polygon fill="midnightblue" stroke="midnightblue" points="733.75,-153.61 723.16,-153.52 731.38,-160.2 733.75,-153.61"/>
</g>
<!-- Node13 -->
<g id="node13" class="node">
<title>Node13</title>
<g id="a_node13"><a xlink:title=" ">
<polygon fill="white" stroke="#bfbfbf" points="775,-134.5 775,-153.5 882,-153.5 882,-134.5 775,-134.5"/>
<text text-anchor="middle" x="828.5" y="-141.5" font-family="Helvetica,sans-Serif" font-size="10.00">G4Transform3D.hh</text>
</a>
</g>
</g>
<!-- Node3&#45;&gt;Node13 -->
<g id="edge12" class="edge">
<title>Node3&#45;&gt;Node13</title>
<path fill="none" stroke="midnightblue" d="M846.03,-190.08C843.19,-182.77 839.07,-172.18 835.54,-163.1"/>
<polygon fill="midnightblue" stroke="midnightblue" points="838.79,-161.8 831.9,-153.75 832.27,-164.34 838.79,-161.8"/>
</g>
<!-- Node14 -->
<g id="node14" class="node">
<title>Node14</title>
<g id="a_node14"><a xlink:title=" ">
<polygon fill="white" stroke="#bfbfbf" points="900.5,-134.5 900.5,-153.5 1008.5,-153.5 1008.5,-134.5 900.5,-134.5"/>
<text text-anchor="middle" x="954.5" y="-141.5" font-family="Helvetica,sans-Serif" font-size="10.00">G4VisAttributes.hh</text>
</a>
</g>
</g>
<!-- Node3&#45;&gt;Node14 -->
<g id="edge13" class="edge">
<title>Node3&#45;&gt;Node14</title>
<path fill="none" stroke="midnightblue" d="M866.37,-190.32C883.21,-181.66 909.31,-168.24 928.74,-158.25"/>
<polygon fill="midnightblue" stroke="midnightblue" points="930.38,-161.34 937.67,-153.65 927.18,-155.12 930.38,-161.34"/>
</g>
<!-- Node15 -->
<g id="node15" class="node">
<title>Node15</title>
<g id="a_node15"><a xlink:title=" ">
<polygon fill="white" stroke="#bfbfbf" points="1027,-134.5 1027,-153.5 1152,-153.5 1152,-134.5 1027,-134.5"/>
<text text-anchor="middle" x="1089.5" y="-141.5" font-family="Helvetica,sans-Serif" font-size="10.00">G4SubtractionSolid.hh</text>
</a>
</g>
</g>
<!-- Node3&#45;&gt;Node15 -->
<g id="edge14" class="edge">
<title>Node3&#45;&gt;Node15</title>
<path fill="none" stroke="midnightblue" d="M887.53,-190.44C929.31,-181.04 996.48,-165.93 1041.77,-155.74"/>
<polygon fill="midnightblue" stroke="midnightblue" points="1042.66,-159.13 1051.65,-153.52 1041.12,-152.3 1042.66,-159.13"/>
</g>
<!-- Node16 -->
<g id="node16" class="node">
<title>Node16</title>
<g id="a_node16"><a xlink:title=" ">
<polygon fill="white" stroke="#bfbfbf" points="1170.5,-134.5 1170.5,-153.5 1280.5,-153.5 1280.5,-134.5 1170.5,-134.5"/>
<text text-anchor="middle" x="1225.5" y="-141.5" font-family="Helvetica,sans-Serif" font-size="10.00">G4PVPlacement.hh</text>
</a>
</g>
</g>
<!-- Node3&#45;&gt;Node16 -->
<g id="edge15" class="edge">
<title>Node3&#45;&gt;Node16</title>
<path fill="none" stroke="midnightblue" d="M909.08,-190.44C977.56,-180.61 1089.61,-164.52 1160.35,-154.36"/>
<polygon fill="midnightblue" stroke="midnightblue" points="1161.08,-157.79 1170.48,-152.9 1160.09,-150.86 1161.08,-157.79"/>
</g>
<!-- Node5 -->
<g id="node5" class="node">
<title>Node5</title>
<g id="a_node5"><a xlink:href="_o_m_sim_logger_8hh.html" target="_top" xlink:title=" ">
<polygon fill="white" stroke="black" points="646,-73 646,-92 745,-92 745,-73 646,-73"/>
<text text-anchor="middle" x="695.5" y="-80" font-family="Helvetica,sans-Serif" font-size="10.00">OMSimLogger.hh</text>
</a>
</g>
</g>
<!-- Node4&#45;&gt;Node5 -->
<g id="edge4" class="edge">
<title>Node4&#45;&gt;Node5</title>
<path fill="none" stroke="midnightblue" d="M698.93,-134.48C698.36,-126.08 697.48,-112.98 696.75,-102.16"/>
<polygon fill="midnightblue" stroke="midnightblue" points="700.24,-101.75 696.07,-92.01 693.25,-102.22 700.24,-101.75"/>
</g>
<!-- Node10 -->
<g id="node10" class="node">
<title>Node10</title>
<g id="a_node10"><a xlink:title=" ">
<polygon fill="white" stroke="#bfbfbf" points="478,-73 478,-92 621,-92 621,-73 478,-73"/>
<text text-anchor="middle" x="549.5" y="-80" font-family="Helvetica,sans-Serif" font-size="10.00">G4OpBoundaryProcess.hh</text>
</a>
</g>
</g>
<!-- Node4&#45;&gt;Node10 -->
<g id="edge9" class="edge">
<title>Node4&#45;&gt;Node10</title>
<path fill="none" stroke="midnightblue" d="M678.01,-134.48C652.39,-124.31 609.39,-107.26 580.26,-95.7"/>
<polygon fill="midnightblue" stroke="midnightblue" points="581.54,-92.44 570.95,-92.01 578.96,-98.95 581.54,-92.44"/>
</g>
<!-- Node11 -->
<g id="node11" class="node">
<title>Node11</title>
<g id="a_node11"><a xlink:title=" ">
<polygon fill="white" stroke="#bfbfbf" points="327,-73 327,-92 446,-92 446,-73 327,-73"/>
<text text-anchor="middle" x="386.5" y="-80" font-family="Helvetica,sans-Serif" font-size="10.00">G4SystemOfUnits.hh</text>
</a>
</g>
</g>
<!-- Node4&#45;&gt;Node11 -->
<g id="edge10" class="edge">
<title>Node4&#45;&gt;Node11</title>
<path fill="none" stroke="midnightblue" d="M654.65,-134.48C598.41,-123.78 502.01,-105.46 441.41,-93.94"/>
<polygon fill="midnightblue" stroke="midnightblue" points="441.74,-90.44 431.26,-92.01 440.43,-97.32 441.74,-90.44"/>
</g>
<!-- Node12 -->
<g id="node12" class="node">
<title>Node12</title>
<g id="a_node12"><a xlink:title=" ">
<polygon fill="white" stroke="#bfbfbf" points="763,-67.5 763,-97.5 876,-97.5 876,-67.5 763,-67.5"/>
<text text-anchor="start" x="771" y="-85.5" font-family="Helvetica,sans-Serif" font-size="10.00">boost/property_tree</text>
<text text-anchor="middle" x="819.5" y="-74.5" font-family="Helvetica,sans-Serif" font-size="10.00">/json_parser.hpp</text>
</a>
</g>
</g>
<!-- Node4&#45;&gt;Node12 -->
<g id="edge11" class="edge">
<title>Node4&#45;&gt;Node12</title>
<path fill="none" stroke="midnightblue" d="M716.69,-134.48C733.7,-126.04 760.3,-112.86 782.17,-102.01"/>
<polygon fill="midnightblue" stroke="midnightblue" points="783.81,-105.1 791.22,-97.52 780.7,-98.83 783.81,-105.1"/>
</g>
<!-- Node6 -->
<g id="node6" class="node">
<title>Node6</title>
<g id="a_node6"><a xlink:title=" ">
<polygon fill="white" stroke="#bfbfbf" points="477,-6 477,-25 570,-25 570,-6 477,-6"/>
<text text-anchor="middle" x="523.5" y="-13" font-family="Helvetica,sans-Serif" font-size="10.00">spdlog/spdlog.h</text>
</a>
</g>
</g>
<!-- Node5&#45;&gt;Node6 -->
<g id="edge5" class="edge">
<title>Node5&#45;&gt;Node6</title>
<path fill="none" stroke="midnightblue" d="M672.66,-72.87C642.63,-61.52 589.72,-41.52 555.66,-28.65"/>
<polygon fill="midnightblue" stroke="midnightblue" points="556.75,-25.32 546.16,-25.06 554.28,-31.87 556.75,-25.32"/>
</g>
<!-- Node7 -->
<g id="node7" class="node">
<title>Node7</title>
<g id="a_node7"><a xlink:title=" ">
<polygon fill="white" stroke="#bfbfbf" points="588,-0.5 588,-30.5 699,-30.5 699,-0.5 588,-0.5"/>
<text text-anchor="start" x="596" y="-18.5" font-family="Helvetica,sans-Serif" font-size="10.00">spdlog/sinks/stdout</text>
<text text-anchor="middle" x="643.5" y="-7.5" font-family="Helvetica,sans-Serif" font-size="10.00">_color_sinks.h</text>
</a>
</g>
</g>
<!-- Node5&#45;&gt;Node7 -->
<g id="edge6" class="edge">
<title>Node5&#45;&gt;Node7</title>
<path fill="none" stroke="midnightblue" d="M688.49,-72.73C681.53,-64.03 670.58,-50.34 661.22,-38.65"/>
<polygon fill="midnightblue" stroke="midnightblue" points="663.75,-36.21 654.77,-30.59 658.29,-40.58 663.75,-36.21"/>
</g>
<!-- Node8 -->
<g id="node8" class="node">
<title>Node8</title>
<g id="a_node8"><a xlink:title=" ">
<polygon fill="white" stroke="#bfbfbf" points="717.5,-6 717.5,-25 775.5,-25 775.5,-6 717.5,-6"/>
<text text-anchor="middle" x="746.5" y="-13" font-family="Helvetica,sans-Serif" font-size="10.00">memory</text>
</a>
</g>
</g>
<!-- Node5&#45;&gt;Node8 -->
<g id="edge7" class="edge">
<title>Node5&#45;&gt;Node8</title>
<path fill="none" stroke="midnightblue" d="M702.38,-72.73C710.33,-62.6 723.6,-45.69 733.51,-33.06"/>
<polygon fill="midnightblue" stroke="midnightblue" points="736.31,-35.16 739.73,-25.13 730.8,-30.83 736.31,-35.16"/>
</g>
<!-- Node9 -->
<g id="node9" class="node">
<title>Node9</title>
<g id="a_node9"><a xlink:title=" ">
<polygon fill="white" stroke="#bfbfbf" points="793.5,-6 793.5,-25 891.5,-25 891.5,-6 793.5,-6"/>
<text text-anchor="middle" x="842.5" y="-13" font-family="Helvetica,sans-Serif" font-size="10.00">spdlog/fmt/fmt.h</text>
</a>
</g>
</g>
<!-- Node5&#45;&gt;Node9 -->
<g id="edge8" class="edge">
<title>Node5&#45;&gt;Node9</title>
<path fill="none" stroke="midnightblue" d="M715.02,-72.87C740.28,-61.7 784.5,-42.15 813.64,-29.26"/>
<polygon fill="midnightblue" stroke="midnightblue" points="815.17,-32.41 822.9,-25.17 812.34,-26.01 815.17,-32.41"/>
</g>
<!-- Node18 -->
<g id="node18" class="node">
<title>Node18</title>
<g id="a_node18"><a xlink:href="_o_m_sim_p_m_t_response_8hh.html" target="_top" xlink:title="Provides simulation for PMT response. This class is responsible for transforming hits on photocathode...">
<polygon fill="white" stroke="black" points="107,-134.5 107,-153.5 242,-153.5 242,-134.5 107,-134.5"/>
<text text-anchor="middle" x="174.5" y="-141.5" font-family="Helvetica,sans-Serif" font-size="10.00">OMSimPMTResponse.hh</text>
</a>
</g>
</g>
<!-- Node17&#45;&gt;Node18 -->
<g id="edge17" class="edge">
<title>Node17&#45;&gt;Node18</title>
<path fill="none" stroke="midnightblue" d="M416.61,-246.49C392.46,-237.75 354.13,-223.57 321.5,-210 301.67,-201.75 297.12,-198.74 277.5,-190 252.57,-178.89 224.14,-166.49 203.47,-157.52"/>
<polygon fill="midnightblue" stroke="midnightblue" points="204.85,-154.31 194.28,-153.54 202.07,-160.73 204.85,-154.31"/>
</g>
<!-- Node23 -->
<g id="node23" class="node">
<title>Node23</title>
<g id="a_node23"><a xlink:href="_o_m_sim_sensitive_detector_8hh.html" target="_top" xlink:title=" ">
<polygon fill="white" stroke="black" points="364,-190.5 364,-209.5 517,-209.5 517,-190.5 364,-190.5"/>
<text text-anchor="middle" x="440.5" y="-197.5" font-family="Helvetica,sans-Serif" font-size="10.00">OMSimSensitiveDetector.hh</text>
</a>
</g>
</g>
<!-- Node17&#45;&gt;Node23 -->
<g id="edge23" class="edge">
<title>Node17&#45;&gt;Node23</title>
<path fill="none" stroke="midnightblue" d="M440.5,-246.08C440.5,-239.01 440.5,-228.86 440.5,-219.99"/>
<polygon fill="midnightblue" stroke="midnightblue" points="444,-219.75 440.5,-209.75 437,-219.75 444,-219.75"/>
</g>
<!-- Node25 -->
<g id="node25" class="node">
<title>Node25</title>
<g id="a_node25"><a xlink:title=" ">
<polygon fill="white" stroke="#bfbfbf" points="521,-134.5 521,-153.5 624,-153.5 624,-134.5 521,-134.5"/>
<text text-anchor="middle" x="572.5" y="-141.5" font-family="Helvetica,sans-Serif" font-size="10.00">G4ThreeVector.hh</text>
</a>
</g>
</g>
<!-- Node17&#45;&gt;Node25 -->
<g id="edge29" class="edge">
<title>Node17&#45;&gt;Node25</title>
<path fill="none" stroke="midnightblue" d="M463.16,-246.39C481.36,-238.72 506.85,-226.22 525.5,-210 541.21,-196.34 554.6,-176.47 563.02,-162.3"/>
<polygon fill="midnightblue" stroke="midnightblue" points="566.1,-163.96 568.03,-153.54 560.02,-160.49 566.1,-163.96"/>
</g>
<!-- Node27 -->
<g id="node27" class="node">
<title>Node27</title>
<g id="a_node27"><a xlink:title=" ">
<polygon fill="white" stroke="#bfbfbf" points="214,-190.5 214,-209.5 269,-209.5 269,-190.5 214,-190.5"/>
<text text-anchor="middle" x="241.5" y="-197.5" font-family="Helvetica,sans-Serif" font-size="10.00">fstream</text>
</a>
</g>
</g>
<!-- Node17&#45;&gt;Node27 -->
<g id="edge30" class="edge">
<title>Node17&#45;&gt;Node27</title>
<path fill="none" stroke="midnightblue" d="M408.97,-246.44C373.71,-236.87 316.63,-221.39 279.08,-211.2"/>
<polygon fill="midnightblue" stroke="midnightblue" points="279.61,-207.71 269.04,-208.47 277.77,-214.47 279.61,-207.71"/>
</g>
<!-- Node18&#45;&gt;Node11 -->
<g id="edge18" class="edge">
<title>Node18&#45;&gt;Node11</title>
<path fill="none" stroke="midnightblue" d="M204.87,-134.48C242.11,-124.03 305.31,-106.29 346.48,-94.73"/>
<polygon fill="midnightblue" stroke="midnightblue" points="347.5,-98.08 356.18,-92.01 345.61,-91.34 347.5,-98.08"/>
</g>
<!-- Node19 -->
<g id="node19" class="node">
<title>Node19</title>
<g id="a_node19"><a xlink:title=" ">
<polygon fill="white" stroke="#bfbfbf" points="0,-73 0,-92 73,-92 73,-73 0,-73"/>
<text text-anchor="middle" x="36.5" y="-80" font-family="Helvetica,sans-Serif" font-size="10.00">G4Types.hh</text>
</a>
</g>
</g>
<!-- Node18&#45;&gt;Node19 -->
<g id="edge19" class="edge">
<title>Node18&#45;&gt;Node19</title>
<path fill="none" stroke="midnightblue" d="M154.73,-134.48C131.36,-124.4 92.29,-107.55 65.5,-96"/>
<polygon fill="midnightblue" stroke="midnightblue" points="66.8,-92.75 56.24,-92.01 64.03,-99.18 66.8,-92.75"/>
</g>
<!-- Node20 -->
<g id="node20" class="node">
<title>Node20</title>
<g id="a_node20"><a xlink:title=" ">
<polygon fill="white" stroke="#bfbfbf" points="91.5,-73 91.5,-92 129.5,-92 129.5,-73 91.5,-73"/>
<text text-anchor="middle" x="110.5" y="-80" font-family="Helvetica,sans-Serif" font-size="10.00">map</text>
</a>
</g>
</g>
<!-- Node18&#45;&gt;Node20 -->
<g id="edge20" class="edge">
<title>Node18&#45;&gt;Node20</title>
<path fill="none" stroke="midnightblue" d="M165.33,-134.48C155.35,-125.2 139.19,-110.17 126.99,-98.83"/>
<polygon fill="midnightblue" stroke="midnightblue" points="129.36,-96.25 119.65,-92.01 124.59,-101.38 129.36,-96.25"/>
</g>
<!-- Node21 -->
<g id="node21" class="node">
<title>Node21</title>
<g id="a_node21"><a xlink:title=" ">
<polygon fill="white" stroke="#bfbfbf" points="148,-73 148,-92 209,-92 209,-73 148,-73"/>
<text text-anchor="middle" x="178.5" y="-80" font-family="Helvetica,sans-Serif" font-size="10.00">TGraph.h</text>
</a>
</g>
</g>
<!-- Node18&#45;&gt;Node21 -->
<g id="edge21" class="edge">
<title>Node18&#45;&gt;Node21</title>
<path fill="none" stroke="midnightblue" d="M175.07,-134.48C175.64,-126.08 176.52,-112.98 177.25,-102.16"/>
<polygon fill="midnightblue" stroke="midnightblue" points="180.75,-102.22 177.93,-92.01 173.76,-101.75 180.75,-102.22"/>
</g>
<!-- Node22 -->
<g id="node22" class="node">
<title>Node22</title>
<g id="a_node22"><a xlink:title=" ">
<polygon fill="white" stroke="#bfbfbf" points="227,-73 227,-92 280,-92 280,-73 227,-73"/>
<text text-anchor="middle" x="253.5" y="-80" font-family="Helvetica,sans-Serif" font-size="10.00">TH2D.h</text>
</a>
</g>
</g>
<!-- Node18&#45;&gt;Node22 -->
<g id="edge22" class="edge">
<title>Node18&#45;&gt;Node22</title>
<path fill="none" stroke="midnightblue" d="M185.82,-134.48C198.37,-125.02 218.85,-109.6 234,-98.19"/>
<polygon fill="midnightblue" stroke="midnightblue" points="236.32,-100.82 242.2,-92.01 232.11,-95.23 236.32,-100.82"/>
</g>
<!-- Node23&#45;&gt;Node10 -->
<g id="edge27" class="edge">
<title>Node23&#45;&gt;Node10</title>
<path fill="none" stroke="midnightblue" d="M448.69,-190.32C466.84,-171.09 510.67,-124.64 534.11,-99.81"/>
<polygon fill="midnightblue" stroke="midnightblue" points="536.89,-101.96 541.21,-92.28 531.8,-97.15 536.89,-101.96"/>
</g>
<!-- Node23&#45;&gt;Node18 -->
<g id="edge26" class="edge">
<title>Node23&#45;&gt;Node18</title>
<path fill="none" stroke="midnightblue" d="M398.35,-190.44C351.75,-180.98 276.66,-165.74 226.45,-155.55"/>
<polygon fill="midnightblue" stroke="midnightblue" points="226.95,-152.08 216.45,-153.52 225.56,-158.94 226.95,-152.08"/>
</g>
<!-- Node24 -->
<g id="node24" class="node">
<title>Node24</title>
<g id="a_node24"><a xlink:title=" ">
<polygon fill="white" stroke="#bfbfbf" points="260.5,-134.5 260.5,-153.5 398.5,-153.5 398.5,-134.5 260.5,-134.5"/>
<text text-anchor="middle" x="329.5" y="-141.5" font-family="Helvetica,sans-Serif" font-size="10.00">G4VSensitiveDetector.hh</text>
</a>
</g>
</g>
<!-- Node23&#45;&gt;Node24 -->
<g id="edge24" class="edge">
<title>Node23&#45;&gt;Node24</title>
<path fill="none" stroke="midnightblue" d="M422.67,-190.32C404.78,-181.62 377.02,-168.12 356.45,-158.11"/>
<polygon fill="midnightblue" stroke="midnightblue" points="357.81,-154.88 347.29,-153.65 354.75,-161.18 357.81,-154.88"/>
</g>
<!-- Node23&#45;&gt;Node25 -->
<g id="edge25" class="edge">
<title>Node23&#45;&gt;Node25</title>
<path fill="none" stroke="midnightblue" d="M461.42,-190.44C483.24,-181.52 517.65,-167.44 542.39,-157.32"/>
<polygon fill="midnightblue" stroke="midnightblue" points="543.75,-160.54 551.68,-153.52 541.1,-154.06 543.75,-160.54"/>
</g>
<!-- Node26 -->
<g id="node26" class="node">
<title>Node26</title>
<g id="a_node26"><a xlink:title=" ">
<polygon fill="white" stroke="#bfbfbf" points="417,-134.5 417,-153.5 464,-153.5 464,-134.5 417,-134.5"/>
<text text-anchor="middle" x="440.5" y="-141.5" font-family="Helvetica,sans-Serif" font-size="10.00">vector</text>
</a>
</g>
</g>
<!-- Node23&#45;&gt;Node26 -->
<g id="edge28" class="edge">
<title>Node23&#45;&gt;Node26</title>
<path fill="none" stroke="midnightblue" d="M440.5,-190.08C440.5,-183.01 440.5,-172.86 440.5,-163.99"/>
<polygon fill="midnightblue" stroke="midnightblue" points="444,-163.75 440.5,-153.75 437,-163.75 444,-163.75"/>
</g>
<!-- Node28&#45;&gt;Node3 -->
<g id="edge32" class="edge">
<title>Node28&#45;&gt;Node3</title>
<path fill="none" stroke="midnightblue" d="M671.09,-246.44C707.69,-237.12 766.34,-222.18 806.33,-212"/>
<polygon fill="midnightblue" stroke="midnightblue" points="807.24,-215.38 816.07,-209.52 805.51,-208.59 807.24,-215.38"/>
</g>
<!-- Node28&#45;&gt;Node18 -->
<g id="edge34" class="edge">
<title>Node28&#45;&gt;Node18</title>
<path fill="none" stroke="midnightblue" d="M562.82,-249.2C504.95,-243.27 423.29,-231.71 354.5,-210 335.17,-203.9 332.3,-197.59 313.5,-190 280.92,-176.86 242.91,-164.76 214.88,-156.43"/>
<polygon fill="midnightblue" stroke="midnightblue" points="215.62,-153 205.04,-153.54 213.64,-159.72 215.62,-153"/>
</g>
<!-- Node28&#45;&gt;Node28 -->
<g id="edge33" class="edge">
<title>Node28&#45;&gt;Node28</title>
<path fill="none" stroke="midnightblue" d="M676.95,-265.53C703.76,-268.31 730,-265.13 730,-256 730,-248.01 709.91,-244.58 686.93,-245.71"/>
<polygon fill="midnightblue" stroke="midnightblue" points="686.65,-242.22 676.95,-246.47 687.19,-249.2 686.65,-242.22"/>
</g>
<!-- Node29 -->
<g id="node29" class="node">
<title>Node29</title>
<g id="a_node29"><a xlink:title=" ">
<polygon fill="white" stroke="#bfbfbf" points="659.5,-190.5 659.5,-209.5 757.5,-209.5 757.5,-190.5 659.5,-190.5"/>
<text text-anchor="middle" x="708.5" y="-197.5" font-family="Helvetica,sans-Serif" font-size="10.00">G4UnionSolid.hh</text>
</a>
</g>
</g>
<!-- Node28&#45;&gt;Node29 -->
<g id="edge35" class="edge">
<title>Node28&#45;&gt;Node29</title>
<path fill="none" stroke="midnightblue" d="M648.91,-246.32C659.61,-238.18 675.84,-225.84 688.66,-216.09"/>
<polygon fill="midnightblue" stroke="midnightblue" points="691.04,-218.67 696.89,-209.83 686.81,-213.1 691.04,-218.67"/>
</g>
<!-- Node30 -->
<g id="node30" class="node">
<title>Node30</title>
<g id="a_node30"><a xlink:title=" ">
<polygon fill="white" stroke="#bfbfbf" points="574,-190.5 574,-209.5 641,-209.5 641,-190.5 574,-190.5"/>
<text text-anchor="middle" x="607.5" y="-197.5" font-family="Helvetica,sans-Serif" font-size="10.00">G4Tubs.hh</text>
</a>
</g>
</g>
<!-- Node28&#45;&gt;Node30 -->
<g id="edge36" class="edge">
<title>Node28&#45;&gt;Node30</title>
<path fill="none" stroke="midnightblue" d="M632.55,-246.08C628.4,-238.61 622.35,-227.72 617.23,-218.52"/>
<polygon fill="midnightblue" stroke="midnightblue" points="620.28,-216.79 612.36,-209.75 614.16,-220.19 620.28,-216.79"/>
</g>
</g>
</svg>
