<?xml version="1.0" encoding="UTF-8" standalone="no"?>
<!DOCTYPE svg PUBLIC "-//W3C//DTD SVG 1.1//EN"
 "http://www.w3.org/Graphics/SVG/1.1/DTD/svg11.dtd">
<!-- Generated by graphviz version 2.43.0 (0)
 -->
<!-- Title: OMSimEffectiveAreaDetector.cc Pages: 1 -->
<svg width="1659pt" height="498pt"
 viewBox="0.00 0.00 1658.50 498.00" xmlns="http://www.w3.org/2000/svg" xmlns:xlink="http://www.w3.org/1999/xlink">
<g id="graph0" class="graph" transform="scale(1 1) rotate(0) translate(4 494)">
<title>OMSimEffectiveAreaDetector.cc</title>
<polygon fill="white" stroke="transparent" points="-4,4 -4,-494 1654.5,-494 1654.5,4 -4,4"/>
<!-- Node1 -->
<g id="node1" class="node">
<title>Node1</title>
<g id="a_node1"><a xlink:title=" ">
<polygon fill="#bfbfbf" stroke="black" points="761,-470.5 761,-489.5 933,-489.5 933,-470.5 761,-470.5"/>
<text text-anchor="middle" x="847" y="-477.5" font-family="Helvetica,sans-Serif" font-size="10.00">OMSimEffectiveAreaDetector.cc</text>
</a>
</g>
</g>
<!-- Node2 -->
<g id="node2" class="node">
<title>Node2</title>
<g id="a_node2"><a xlink:href="_o_m_sim_effective_area_detector_8hh.html" target="_top" xlink:title="Defines the OMSimEffectiveAreaDetector class for effective area simulation detector construction.">
<polygon fill="white" stroke="black" points="92.5,-414.5 92.5,-433.5 265.5,-433.5 265.5,-414.5 92.5,-414.5"/>
<text text-anchor="middle" x="179" y="-421.5" font-family="Helvetica,sans-Serif" font-size="10.00">OMSimEffectiveAreaDetector.hh</text>
</a>
</g>
</g>
<!-- Node1&#45;&gt;Node2 -->
<g id="edge1" class="edge">
<title>Node1&#45;&gt;Node2</title>
<path fill="none" stroke="midnightblue" d="M760.7,-472.02C635.92,-461.94 405.84,-443.34 275.57,-432.81"/>
<polygon fill="midnightblue" stroke="midnightblue" points="275.84,-429.32 265.59,-432 275.28,-436.29 275.84,-429.32"/>
</g>
<!-- Node19 -->
<g id="node19" class="node">
<title>Node19</title>
<g id="a_node19"><a xlink:href="_o_m_sim_hit_manager_8hh.html" target="_top" xlink:title="Defines structures and classes related to optical module photon hit management.">
<polygon fill="white" stroke="black" points="885.5,-246.5 885.5,-265.5 1008.5,-265.5 1008.5,-246.5 885.5,-246.5"/>
<text text-anchor="middle" x="947" y="-253.5" font-family="Helvetica,sans-Serif" font-size="10.00">OMSimHitManager.hh</text>
</a>
</g>
</g>
<!-- Node1&#45;&gt;Node19 -->
<g id="edge61" class="edge">
<title>Node1&#45;&gt;Node19</title>
<path fill="none" stroke="midnightblue" d="M881.05,-470.5C922.8,-458.04 991.74,-430.4 1022,-378 1044.5,-339.04 997.08,-294.31 967.8,-271.71"/>
<polygon fill="midnightblue" stroke="midnightblue" points="969.85,-268.87 959.74,-265.69 965.66,-274.48 969.85,-268.87"/>
</g>
<!-- Node30 -->
<g id="node30" class="node">
<title>Node30</title>
<g id="a_node30"><a xlink:title=" ">
<polygon fill="white" stroke="#bfbfbf" points="0,-302.5 0,-321.5 62,-321.5 62,-302.5 0,-302.5"/>
<text text-anchor="middle" x="31" y="-309.5" font-family="Helvetica,sans-Serif" font-size="10.00">G4Orb.hh</text>
</a>
</g>
</g>
<!-- Node1&#45;&gt;Node30 -->
<g id="edge63" class="edge">
<title>Node1&#45;&gt;Node30</title>
<path fill="none" stroke="midnightblue" d="M760.75,-478.45C573.02,-476.6 139.62,-468.6 83,-434 47.33,-412.2 36.09,-359.83 32.57,-331.67"/>
<polygon fill="midnightblue" stroke="midnightblue" points="36.04,-331.13 31.52,-321.55 29.08,-331.86 36.04,-331.13"/>
</g>
<!-- Node32 -->
<g id="node32" class="node">
<title>Node32</title>
<g id="a_node32"><a xlink:href="_o_m_sim_p_d_o_m_8hh.html" target="_top" xlink:title="Implementation of the pDOM/Gen1 DOM class.">
<polygon fill="white" stroke="black" points="366.5,-358.5 366.5,-377.5 463.5,-377.5 463.5,-358.5 366.5,-358.5"/>
<text text-anchor="middle" x="415" y="-365.5" font-family="Helvetica,sans-Serif" font-size="10.00">OMSimPDOM.hh</text>
</a>
</g>
</g>
<!-- Node1&#45;&gt;Node32 -->
<g id="edge35" class="edge">
<title>Node1&#45;&gt;Node32</title>
<path fill="none" stroke="midnightblue" d="M768.63,-470.49C714.2,-463.48 640.37,-451.77 577,-434 528.03,-420.27 473.64,-396.6 441.98,-381.93"/>
<polygon fill="midnightblue" stroke="midnightblue" points="443.08,-378.58 432.54,-377.51 440.11,-384.92 443.08,-378.58"/>
</g>
<!-- Node33 -->
<g id="node33" class="node">
<title>Node33</title>
<g id="a_node33"><a xlink:href="_o_m_sim_l_o_m16_8hh.html" target="_top" xlink:title="Construction of LOM16.">
<polygon fill="white" stroke="black" points="247.5,-358.5 247.5,-377.5 348.5,-377.5 348.5,-358.5 247.5,-358.5"/>
<text text-anchor="middle" x="298" y="-365.5" font-family="Helvetica,sans-Serif" font-size="10.00">OMSimLOM16.hh</text>
</a>
</g>
</g>
<!-- Node1&#45;&gt;Node33 -->
<g id="edge38" class="edge">
<title>Node1&#45;&gt;Node33</title>
<path fill="none" stroke="midnightblue" d="M760.8,-471.13C693.19,-464.05 596.96,-451.97 514,-434 448.27,-419.76 373.53,-395.38 331.44,-380.86"/>
<polygon fill="midnightblue" stroke="midnightblue" points="332.56,-377.55 321.97,-377.57 330.27,-384.16 332.56,-377.55"/>
</g>
<!-- Node34 -->
<g id="node34" class="node">
<title>Node34</title>
<g id="a_node34"><a xlink:href="_o_m_sim_l_o_m18_8hh.html" target="_top" xlink:title="Construction of LOM18.">
<polygon fill="white" stroke="black" points="586.5,-414.5 586.5,-433.5 687.5,-433.5 687.5,-414.5 586.5,-414.5"/>
<text text-anchor="middle" x="637" y="-421.5" font-family="Helvetica,sans-Serif" font-size="10.00">OMSimLOM18.hh</text>
</a>
</g>
</g>
<!-- Node1&#45;&gt;Node34 -->
<g id="edge41" class="edge">
<title>Node1&#45;&gt;Node34</title>
<path fill="none" stroke="midnightblue" d="M813.72,-470.44C777.55,-461.14 719.62,-446.25 680.02,-436.06"/>
<polygon fill="midnightblue" stroke="midnightblue" points="680.68,-432.62 670.12,-433.52 678.93,-439.4 680.68,-432.62"/>
</g>
<!-- Node35 -->
<g id="node35" class="node">
<title>Node35</title>
<g id="a_node35"><a xlink:title=" ">
<polygon fill="white" stroke="#bfbfbf" points="665,-358.5 665,-377.5 781,-377.5 781,-358.5 665,-358.5"/>
<text text-anchor="middle" x="723" y="-365.5" font-family="Helvetica,sans-Serif" font-size="10.00">G4LogicalVolume.hh</text>
</a>
</g>
</g>
<!-- Node1&#45;&gt;Node35 -->
<g id="edge69" class="edge">
<title>Node1&#45;&gt;Node35</title>
<path fill="none" stroke="midnightblue" d="M837.27,-470.37C816.35,-451.81 766.87,-407.91 740.4,-384.44"/>
<polygon fill="midnightblue" stroke="midnightblue" points="742.49,-381.61 732.68,-377.59 737.84,-386.85 742.49,-381.61"/>
</g>
<!-- Node37 -->
<g id="node37" class="node">
<title>Node37</title>
<g id="a_node37"><a xlink:href="_o_m_sim_d_e_g_g_8hh.html" target="_top" xlink:title="Construction of the DEGG class.">
<polygon fill="white" stroke="black" points="799.5,-358.5 799.5,-377.5 894.5,-377.5 894.5,-358.5 799.5,-358.5"/>
<text text-anchor="middle" x="847" y="-365.5" font-family="Helvetica,sans-Serif" font-size="10.00">OMSimDEGG.hh</text>
</a>
</g>
</g>
<!-- Node1&#45;&gt;Node37 -->
<g id="edge46" class="edge">
<title>Node1&#45;&gt;Node37</title>
<path fill="none" stroke="midnightblue" d="M847,-470.37C847,-452.62 847,-411.67 847,-387.6"/>
<polygon fill="midnightblue" stroke="midnightblue" points="850.5,-387.59 847,-377.59 843.5,-387.59 850.5,-387.59"/>
</g>
<!-- Node38 -->
<g id="node38" class="node">
<title>Node38</title>
<g id="a_node38"><a xlink:href="_o_m_sim_m_d_o_m_8hh.html" target="_top" xlink:title="Construction of mDOM.">
<polygon fill="white" stroke="black" points="913,-358.5 913,-377.5 1013,-377.5 1013,-358.5 913,-358.5"/>
<text text-anchor="middle" x="963" y="-365.5" font-family="Helvetica,sans-Serif" font-size="10.00">OMSimMDOM.hh</text>
</a>
</g>
</g>
<!-- Node1&#45;&gt;Node38 -->
<g id="edge49" class="edge">
<title>Node1&#45;&gt;Node38</title>
<path fill="none" stroke="midnightblue" d="M856.1,-470.37C875.58,-451.89 921.56,-408.29 946.4,-384.74"/>
<polygon fill="midnightblue" stroke="midnightblue" points="949.09,-387.01 953.94,-377.59 944.28,-381.93 949.09,-387.01"/>
</g>
<!-- Node41 -->
<g id="node41" class="node">
<title>Node41</title>
<g id="a_node41"><a xlink:href="_o_m_sim_command_args_table_8hh.html" target="_top" xlink:title="Definition of the OMSimCommandArgsTable singleton class, which controls user args.">
<polygon fill="white" stroke="black" points="1027,-246.5 1027,-265.5 1191,-265.5 1191,-246.5 1027,-246.5"/>
<text text-anchor="middle" x="1109" y="-253.5" font-family="Helvetica,sans-Serif" font-size="10.00">OMSimCommandArgsTable.hh</text>
</a>
</g>
</g>
<!-- Node1&#45;&gt;Node41 -->
<g id="edge56" class="edge">
<title>Node1&#45;&gt;Node41</title>
<path fill="none" stroke="midnightblue" d="M900.32,-470.49C929.55,-463.97 965.35,-452.77 993,-434 1052.23,-393.79 1088.49,-312.25 1102.44,-275.59"/>
<polygon fill="midnightblue" stroke="midnightblue" points="1105.9,-276.35 1106.06,-265.75 1099.32,-273.93 1105.9,-276.35"/>
</g>
<!-- Node44 -->
<g id="node44" class="node">
<title>Node44</title>
<g id="a_node44"><a xlink:title=" ">
<polygon fill="white" stroke="#bfbfbf" points="1107.5,-414.5 1107.5,-433.5 1208.5,-433.5 1208.5,-414.5 1107.5,-414.5"/>
<text text-anchor="middle" x="1158" y="-421.5" font-family="Helvetica,sans-Serif" font-size="10.00">G4SDManager.hh</text>
</a>
</g>
</g>
<!-- Node1&#45;&gt;Node44 -->
<g id="edge62" class="edge">
<title>Node1&#45;&gt;Node44</title>
<path fill="none" stroke="midnightblue" d="M896.28,-470.44C951.33,-460.89 1040.4,-445.42 1099.08,-435.23"/>
<polygon fill="midnightblue" stroke="midnightblue" points="1099.7,-438.68 1108.95,-433.52 1098.5,-431.78 1099.7,-438.68"/>
</g>
<!-- Node45 -->
<g id="node45" class="node">
<title>Node45</title>
<g id="a_node45"><a xlink:href="_o_m_sim_sensitive_detector_8hh.html" target="_top" xlink:title=" ">
<polygon fill="white" stroke="black" points="1209.5,-246.5 1209.5,-265.5 1362.5,-265.5 1362.5,-246.5 1209.5,-246.5"/>
<text text-anchor="middle" x="1286" y="-253.5" font-family="Helvetica,sans-Serif" font-size="10.00">OMSimSensitiveDetector.hh</text>
</a>
</g>
</g>
<!-- Node1&#45;&gt;Node45 -->
<g id="edge64" class="edge">
<title>Node1&#45;&gt;Node45</title>
<path fill="none" stroke="midnightblue" d="M933.14,-478.58C1028.68,-476.42 1175.02,-467.52 1218,-434 1268.36,-394.73 1281.44,-313.33 1284.83,-276.2"/>
<polygon fill="midnightblue" stroke="midnightblue" points="1288.35,-276.05 1285.62,-265.82 1281.37,-275.52 1288.35,-276.05"/>
</g>
<!-- Node48 -->
<g id="node48" class="node">
<title>Node48</title>
<g id="a_node48"><a xlink:title=" ">
<polygon fill="white" stroke="#bfbfbf" points="1265,-414.5 1265,-433.5 1329,-433.5 1329,-414.5 1265,-414.5"/>
<text text-anchor="middle" x="1297" y="-421.5" font-family="Helvetica,sans-Serif" font-size="10.00">G4Box.hh</text>
</a>
</g>
</g>
<!-- Node1&#45;&gt;Node48 -->
<g id="edge70" class="edge">
<title>Node1&#45;&gt;Node48</title>
<path fill="none" stroke="midnightblue" d="M933.17,-471.47C1015.15,-463.82 1141.83,-450.73 1251,-434 1252.27,-433.81 1253.55,-433.6 1254.85,-433.39"/>
<polygon fill="midnightblue" stroke="midnightblue" points="1255.64,-436.8 1264.89,-431.63 1254.43,-429.91 1255.64,-436.8"/>
</g>
<!-- Node3 -->
<g id="node3" class="node">
<title>Node3</title>
<g id="a_node3"><a xlink:href="_o_m_sim_detector_construction_8hh.html" target="_top" xlink:title=" ">
<polygon fill="white" stroke="black" points="59,-358.5 59,-377.5 229,-377.5 229,-358.5 59,-358.5"/>
<text text-anchor="middle" x="144" y="-365.5" font-family="Helvetica,sans-Serif" font-size="10.00">OMSimDetectorConstruction.hh</text>
</a>
</g>
</g>
<!-- Node2&#45;&gt;Node3 -->
<g id="edge2" class="edge">
<title>Node2&#45;&gt;Node3</title>
<path fill="none" stroke="midnightblue" d="M173.22,-414.08C168.33,-406.53 161.17,-395.49 155.17,-386.23"/>
<polygon fill="midnightblue" stroke="midnightblue" points="158.05,-384.24 149.67,-377.75 152.17,-388.05 158.05,-384.24"/>
</g>
<!-- Node4 -->
<g id="node4" class="node">
<title>Node4</title>
<g id="a_node4"><a xlink:href="_o_m_sim_optical_module_8hh.html" target="_top" xlink:title=" ">
<polygon fill="white" stroke="black" points="471.5,-302.5 471.5,-321.5 608.5,-321.5 608.5,-302.5 471.5,-302.5"/>
<text text-anchor="middle" x="540" y="-309.5" font-family="Helvetica,sans-Serif" font-size="10.00">OMSimOpticalModule.hh</text>
</a>
</g>
</g>
<!-- Node3&#45;&gt;Node4 -->
<g id="edge3" class="edge">
<title>Node3&#45;&gt;Node4</title>
<path fill="none" stroke="midnightblue" d="M206.75,-358.44C277.57,-348.79 392.6,-333.1 467.29,-322.92"/>
<polygon fill="midnightblue" stroke="midnightblue" points="468.11,-326.34 477.55,-321.52 467.16,-319.4 468.11,-326.34"/>
</g>
<!-- Node3&#45;&gt;Node30 -->
<g id="edge33" class="edge">
<title>Node3&#45;&gt;Node30</title>
<path fill="none" stroke="midnightblue" d="M126.09,-358.44C107.75,-349.68 78.99,-335.94 57.91,-325.86"/>
<polygon fill="midnightblue" stroke="midnightblue" points="59.35,-322.67 48.82,-321.52 56.33,-328.99 59.35,-322.67"/>
</g>
<!-- Node31 -->
<g id="node31" class="node">
<title>Node31</title>
<g id="a_node31"><a xlink:title=" ">
<polygon fill="white" stroke="#bfbfbf" points="80,-302.5 80,-321.5 258,-321.5 258,-302.5 80,-302.5"/>
<text text-anchor="middle" x="169" y="-309.5" font-family="Helvetica,sans-Serif" font-size="10.00">G4VUserDetectorConstruction.hh</text>
</a>
</g>
</g>
<!-- Node3&#45;&gt;Node31 -->
<g id="edge34" class="edge">
<title>Node3&#45;&gt;Node31</title>
<path fill="none" stroke="midnightblue" d="M148.13,-358.08C151.51,-350.77 156.42,-340.18 160.62,-331.1"/>
<polygon fill="midnightblue" stroke="midnightblue" points="163.92,-332.3 164.95,-321.75 157.57,-329.36 163.92,-332.3"/>
</g>
<!-- Node5 -->
<g id="node5" class="node">
<title>Node5</title>
<g id="a_node5"><a xlink:href="abc_detector_component_8hh.html" target="_top" xlink:title="Provides helper base class abcDetectorComponent for constructing and managing detector components in ...">
<polygon fill="white" stroke="black" points="395.5,-190.5 395.5,-209.5 542.5,-209.5 542.5,-190.5 395.5,-190.5"/>
<text text-anchor="middle" x="469" y="-197.5" font-family="Helvetica,sans-Serif" font-size="10.00">abcDetectorComponent.hh</text>
</a>
</g>
</g>
<!-- Node4&#45;&gt;Node5 -->
<g id="edge4" class="edge">
<title>Node4&#45;&gt;Node5</title>
<path fill="none" stroke="midnightblue" d="M534.43,-302.37C522.76,-284.3 495.58,-242.18 480.17,-218.31"/>
<polygon fill="midnightblue" stroke="midnightblue" points="482.91,-216.1 474.55,-209.59 477.03,-219.89 482.91,-216.1"/>
</g>
<!-- Node4&#45;&gt;Node19 -->
<g id="edge18" class="edge">
<title>Node4&#45;&gt;Node19</title>
<path fill="none" stroke="midnightblue" d="M604.49,-302.44C678.28,-292.65 798.79,-276.66 875.43,-266.5"/>
<polygon fill="midnightblue" stroke="midnightblue" points="876.02,-269.95 885.48,-265.16 875.1,-263.01 876.02,-269.95"/>
</g>
<!-- Node27 -->
<g id="node27" class="node">
<title>Node27</title>
<g id="a_node27"><a xlink:href="_o_m_sim_p_m_t_construction_8hh.html" target="_top" xlink:title="Construction of the PMTs.">
<polygon fill="white" stroke="black" points="526.5,-246.5 526.5,-265.5 675.5,-265.5 675.5,-246.5 526.5,-246.5"/>
<text text-anchor="middle" x="601" y="-253.5" font-family="Helvetica,sans-Serif" font-size="10.00">OMSimPMTConstruction.hh</text>
</a>
</g>
</g>
<!-- Node4&#45;&gt;Node27 -->
<g id="edge27" class="edge">
<title>Node4&#45;&gt;Node27</title>
<path fill="none" stroke="midnightblue" d="M549.8,-302.32C558.82,-294.34 572.41,-282.31 583.32,-272.65"/>
<polygon fill="midnightblue" stroke="midnightblue" points="585.85,-275.08 591.02,-265.83 581.21,-269.84 585.85,-275.08"/>
</g>
<!-- Node6 -->
<g id="node6" class="node">
<title>Node6</title>
<g id="a_node6"><a xlink:href="_o_m_sim_input_data_8hh.html" target="_top" xlink:title="Definition of ParameterTable and InputDataManager.">
<polygon fill="white" stroke="black" points="233.5,-134.5 233.5,-153.5 348.5,-153.5 348.5,-134.5 233.5,-134.5"/>
<text text-anchor="middle" x="291" y="-141.5" font-family="Helvetica,sans-Serif" font-size="10.00">OMSimInputData.hh</text>
</a>
</g>
</g>
<!-- Node5&#45;&gt;Node6 -->
<g id="edge5" class="edge">
<title>Node5&#45;&gt;Node6</title>
<path fill="none" stroke="midnightblue" d="M440.8,-190.44C410.59,-181.28 362.49,-166.69 328.97,-156.52"/>
<polygon fill="midnightblue" stroke="midnightblue" points="329.66,-153.07 319.07,-153.52 327.63,-159.77 329.66,-153.07"/>
</g>
<!-- Node15 -->
<g id="node15" class="node">
<title>Node15</title>
<g id="a_node15"><a xlink:title=" ">
<polygon fill="white" stroke="#bfbfbf" points="366.5,-134.5 366.5,-153.5 473.5,-153.5 473.5,-134.5 366.5,-134.5"/>
<text text-anchor="middle" x="420" y="-141.5" font-family="Helvetica,sans-Serif" font-size="10.00">G4Transform3D.hh</text>
</a>
</g>
</g>
<!-- Node5&#45;&gt;Node15 -->
<g id="edge14" class="edge">
<title>Node5&#45;&gt;Node15</title>
<path fill="none" stroke="midnightblue" d="M460.91,-190.08C453.84,-182.3 443.41,-170.8 434.85,-161.37"/>
<polygon fill="midnightblue" stroke="midnightblue" points="437.25,-158.8 427.94,-153.75 432.07,-163.51 437.25,-158.8"/>
</g>
<!-- Node16 -->
<g id="node16" class="node">
<title>Node16</title>
<g id="a_node16"><a xlink:title=" ">
<polygon fill="white" stroke="#bfbfbf" points="492,-134.5 492,-153.5 600,-153.5 600,-134.5 492,-134.5"/>
<text text-anchor="middle" x="546" y="-141.5" font-family="Helvetica,sans-Serif" font-size="10.00">G4VisAttributes.hh</text>
</a>
</g>
</g>
<!-- Node5&#45;&gt;Node16 -->
<g id="edge15" class="edge">
<title>Node5&#45;&gt;Node16</title>
<path fill="none" stroke="midnightblue" d="M481.37,-190.32C493.16,-182.06 511.13,-169.45 525.14,-159.63"/>
<polygon fill="midnightblue" stroke="midnightblue" points="527.48,-162.26 533.66,-153.65 523.46,-156.53 527.48,-162.26"/>
</g>
<!-- Node17 -->
<g id="node17" class="node">
<title>Node17</title>
<g id="a_node17"><a xlink:title=" ">
<polygon fill="white" stroke="#bfbfbf" points="618.5,-134.5 618.5,-153.5 743.5,-153.5 743.5,-134.5 618.5,-134.5"/>
<text text-anchor="middle" x="681" y="-141.5" font-family="Helvetica,sans-Serif" font-size="10.00">G4SubtractionSolid.hh</text>
</a>
</g>
</g>
<!-- Node5&#45;&gt;Node17 -->
<g id="edge16" class="edge">
<title>Node5&#45;&gt;Node17</title>
<path fill="none" stroke="midnightblue" d="M502.59,-190.44C539.19,-181.12 597.84,-166.18 637.83,-156"/>
<polygon fill="midnightblue" stroke="midnightblue" points="638.74,-159.38 647.57,-153.52 637.01,-152.59 638.74,-159.38"/>
</g>
<!-- Node18 -->
<g id="node18" class="node">
<title>Node18</title>
<g id="a_node18"><a xlink:title=" ">
<polygon fill="white" stroke="#bfbfbf" points="105,-134.5 105,-153.5 215,-153.5 215,-134.5 105,-134.5"/>
<text text-anchor="middle" x="160" y="-141.5" font-family="Helvetica,sans-Serif" font-size="10.00">G4PVPlacement.hh</text>
</a>
</g>
</g>
<!-- Node5&#45;&gt;Node18 -->
<g id="edge17" class="edge">
<title>Node5&#45;&gt;Node18</title>
<path fill="none" stroke="midnightblue" d="M420.04,-190.44C365.46,-180.9 277.21,-165.48 218.9,-155.29"/>
<polygon fill="midnightblue" stroke="midnightblue" points="219.19,-151.79 208.73,-153.52 217.98,-158.69 219.19,-151.79"/>
</g>
<!-- Node7 -->
<g id="node7" class="node">
<title>Node7</title>
<g id="a_node7"><a xlink:href="_o_m_sim_logger_8hh.html" target="_top" xlink:title=" ">
<polygon fill="white" stroke="black" points="848.5,-73 848.5,-92 947.5,-92 947.5,-73 848.5,-73"/>
<text text-anchor="middle" x="898" y="-80" font-family="Helvetica,sans-Serif" font-size="10.00">OMSimLogger.hh</text>
</a>
</g>
</g>
<!-- Node6&#45;&gt;Node7 -->
<g id="edge6" class="edge">
<title>Node6&#45;&gt;Node7</title>
<path fill="none" stroke="midnightblue" d="M348.57,-135C351.42,-134.65 354.24,-134.32 357,-134 531.46,-113.97 738.28,-96.37 838.13,-88.25"/>
<polygon fill="midnightblue" stroke="midnightblue" points="838.64,-91.72 848.33,-87.43 838.08,-84.75 838.64,-91.72"/>
</g>
<!-- Node12 -->
<g id="node12" class="node">
<title>Node12</title>
<g id="a_node12"><a xlink:title=" ">
<polygon fill="white" stroke="#bfbfbf" points="146.5,-73 146.5,-92 289.5,-92 289.5,-73 146.5,-73"/>
<text text-anchor="middle" x="218" y="-80" font-family="Helvetica,sans-Serif" font-size="10.00">G4OpBoundaryProcess.hh</text>
</a>
</g>
</g>
<!-- Node6&#45;&gt;Node12 -->
<g id="edge11" class="edge">
<title>Node6&#45;&gt;Node12</title>
<path fill="none" stroke="midnightblue" d="M280.54,-134.48C269.05,-125.11 250.37,-109.88 236.41,-98.51"/>
<polygon fill="midnightblue" stroke="midnightblue" points="238.4,-95.61 228.44,-92.01 233.98,-101.04 238.4,-95.61"/>
</g>
<!-- Node13 -->
<g id="node13" class="node">
<title>Node13</title>
<g id="a_node13"><a xlink:title=" ">
<polygon fill="white" stroke="#bfbfbf" points="574.5,-73 574.5,-92 693.5,-92 693.5,-73 574.5,-73"/>
<text text-anchor="middle" x="634" y="-80" font-family="Helvetica,sans-Serif" font-size="10.00">G4SystemOfUnits.hh</text>
</a>
</g>
</g>
<!-- Node6&#45;&gt;Node13 -->
<g id="edge12" class="edge">
<title>Node6&#45;&gt;Node13</title>
<path fill="none" stroke="midnightblue" d="M340.14,-134.48C402.16,-123.72 508.73,-105.23 575.06,-93.72"/>
<polygon fill="midnightblue" stroke="midnightblue" points="575.69,-97.17 584.95,-92.01 574.5,-90.27 575.69,-97.17"/>
</g>
<!-- Node14 -->
<g id="node14" class="node">
<title>Node14</title>
<g id="a_node14"><a xlink:title=" ">
<polygon fill="white" stroke="#bfbfbf" points="307.5,-67.5 307.5,-97.5 420.5,-97.5 420.5,-67.5 307.5,-67.5"/>
<text text-anchor="start" x="315.5" y="-85.5" font-family="Helvetica,sans-Serif" font-size="10.00">boost/property_tree</text>
<text text-anchor="middle" x="364" y="-74.5" font-family="Helvetica,sans-Serif" font-size="10.00">/json_parser.hpp</text>
</a>
</g>
</g>
<!-- Node6&#45;&gt;Node14 -->
<g id="edge13" class="edge">
<title>Node6&#45;&gt;Node14</title>
<path fill="none" stroke="midnightblue" d="M301.46,-134.48C311.16,-126.57 325.99,-114.48 338.77,-104.07"/>
<polygon fill="midnightblue" stroke="midnightblue" points="341.26,-106.55 346.8,-97.52 336.83,-101.13 341.26,-106.55"/>
</g>
<!-- Node8 -->
<g id="node8" class="node">
<title>Node8</title>
<g id="a_node8"><a xlink:title=" ">
<polygon fill="white" stroke="#bfbfbf" points="679.5,-6 679.5,-25 772.5,-25 772.5,-6 679.5,-6"/>
<text text-anchor="middle" x="726" y="-13" font-family="Helvetica,sans-Serif" font-size="10.00">spdlog/spdlog.h</text>
</a>
</g>
</g>
<!-- Node7&#45;&gt;Node8 -->
<g id="edge7" class="edge">
<title>Node7&#45;&gt;Node8</title>
<path fill="none" stroke="midnightblue" d="M875.16,-72.87C845.13,-61.52 792.22,-41.52 758.16,-28.65"/>
<polygon fill="midnightblue" stroke="midnightblue" points="759.25,-25.32 748.66,-25.06 756.78,-31.87 759.25,-25.32"/>
</g>
<!-- Node9 -->
<g id="node9" class="node">
<title>Node9</title>
<g id="a_node9"><a xlink:title=" ">
<polygon fill="white" stroke="#bfbfbf" points="790.5,-0.5 790.5,-30.5 901.5,-30.5 901.5,-0.5 790.5,-0.5"/>
<text text-anchor="start" x="798.5" y="-18.5" font-family="Helvetica,sans-Serif" font-size="10.00">spdlog/sinks/stdout</text>
<text text-anchor="middle" x="846" y="-7.5" font-family="Helvetica,sans-Serif" font-size="10.00">_color_sinks.h</text>
</a>
</g>
</g>
<!-- Node7&#45;&gt;Node9 -->
<g id="edge8" class="edge">
<title>Node7&#45;&gt;Node9</title>
<path fill="none" stroke="midnightblue" d="M890.99,-72.73C884.03,-64.03 873.08,-50.34 863.72,-38.65"/>
<polygon fill="midnightblue" stroke="midnightblue" points="866.25,-36.21 857.27,-30.59 860.79,-40.58 866.25,-36.21"/>
</g>
<!-- Node10 -->
<g id="node10" class="node">
<title>Node10</title>
<g id="a_node10"><a xlink:title=" ">
<polygon fill="white" stroke="#bfbfbf" points="920,-6 920,-25 978,-25 978,-6 920,-6"/>
<text text-anchor="middle" x="949" y="-13" font-family="Helvetica,sans-Serif" font-size="10.00">memory</text>
</a>
</g>
</g>
<!-- Node7&#45;&gt;Node10 -->
<g id="edge9" class="edge">
<title>Node7&#45;&gt;Node10</title>
<path fill="none" stroke="midnightblue" d="M904.88,-72.73C912.83,-62.6 926.1,-45.69 936.01,-33.06"/>
<polygon fill="midnightblue" stroke="midnightblue" points="938.81,-35.16 942.23,-25.13 933.3,-30.83 938.81,-35.16"/>
</g>
<!-- Node11 -->
<g id="node11" class="node">
<title>Node11</title>
<g id="a_node11"><a xlink:title=" ">
<polygon fill="white" stroke="#bfbfbf" points="996,-6 996,-25 1094,-25 1094,-6 996,-6"/>
<text text-anchor="middle" x="1045" y="-13" font-family="Helvetica,sans-Serif" font-size="10.00">spdlog/fmt/fmt.h</text>
</a>
</g>
</g>
<!-- Node7&#45;&gt;Node11 -->
<g id="edge10" class="edge">
<title>Node7&#45;&gt;Node11</title>
<path fill="none" stroke="midnightblue" d="M917.52,-72.87C942.78,-61.7 987,-42.15 1016.14,-29.26"/>
<polygon fill="midnightblue" stroke="midnightblue" points="1017.67,-32.41 1025.4,-25.17 1014.84,-26.01 1017.67,-32.41"/>
</g>
<!-- Node20 -->
<g id="node20" class="node">
<title>Node20</title>
<g id="a_node20"><a xlink:href="_o_m_sim_p_m_t_response_8hh.html" target="_top" xlink:title="Provides simulation for PMT response. This class is responsible for transforming hits on photocathode...">
<polygon fill="white" stroke="black" points="872.5,-190.5 872.5,-209.5 1007.5,-209.5 1007.5,-190.5 872.5,-190.5"/>
<text text-anchor="middle" x="940" y="-197.5" font-family="Helvetica,sans-Serif" font-size="10.00">OMSimPMTResponse.hh</text>
</a>
</g>
</g>
<!-- Node19&#45;&gt;Node20 -->
<g id="edge19" class="edge">
<title>Node19&#45;&gt;Node20</title>
<path fill="none" stroke="midnightblue" d="M945.84,-246.08C944.92,-238.93 943.58,-228.64 942.42,-219.69"/>
<polygon fill="midnightblue" stroke="midnightblue" points="945.89,-219.22 941.13,-209.75 938.95,-220.12 945.89,-219.22"/>
</g>
<!-- Node25 -->
<g id="node25" class="node">
<title>Node25</title>
<g id="a_node25"><a xlink:title=" ">
<polygon fill="white" stroke="#bfbfbf" points="1137.5,-190.5 1137.5,-209.5 1240.5,-209.5 1240.5,-190.5 1137.5,-190.5"/>
<text text-anchor="middle" x="1189" y="-197.5" font-family="Helvetica,sans-Serif" font-size="10.00">G4ThreeVector.hh</text>
</a>
</g>
</g>
<!-- Node19&#45;&gt;Node25 -->
<g id="edge25" class="edge">
<title>Node19&#45;&gt;Node25</title>
<path fill="none" stroke="midnightblue" d="M985.35,-246.44C1027.47,-237.04 1095.21,-221.93 1140.87,-211.74"/>
<polygon fill="midnightblue" stroke="midnightblue" points="1141.84,-215.11 1150.83,-209.52 1140.31,-208.28 1141.84,-215.11"/>
</g>
<!-- Node26 -->
<g id="node26" class="node">
<title>Node26</title>
<g id="a_node26"><a xlink:title=" ">
<polygon fill="white" stroke="#bfbfbf" points="1025.5,-190.5 1025.5,-209.5 1080.5,-209.5 1080.5,-190.5 1025.5,-190.5"/>
<text text-anchor="middle" x="1053" y="-197.5" font-family="Helvetica,sans-Serif" font-size="10.00">fstream</text>
</a>
</g>
</g>
<!-- Node19&#45;&gt;Node26 -->
<g id="edge26" class="edge">
<title>Node19&#45;&gt;Node26</title>
<path fill="none" stroke="midnightblue" d="M964.03,-246.32C981.03,-237.66 1007.38,-224.24 1026.99,-214.25"/>
<polygon fill="midnightblue" stroke="midnightblue" points="1028.69,-217.31 1036.01,-209.65 1025.51,-211.08 1028.69,-217.31"/>
</g>
<!-- Node20&#45;&gt;Node13 -->
<g id="edge20" class="edge">
<title>Node20&#45;&gt;Node13</title>
<path fill="none" stroke="midnightblue" d="M925.16,-190.41C896.28,-173.73 834.43,-138.23 824,-134 779.87,-116.1 727.4,-102.71 688.79,-94.23"/>
<polygon fill="midnightblue" stroke="midnightblue" points="689.3,-90.76 678.79,-92.08 687.83,-97.61 689.3,-90.76"/>
</g>
<!-- Node21 -->
<g id="node21" class="node">
<title>Node21</title>
<g id="a_node21"><a xlink:title=" ">
<polygon fill="white" stroke="#bfbfbf" points="871.5,-134.5 871.5,-153.5 944.5,-153.5 944.5,-134.5 871.5,-134.5"/>
<text text-anchor="middle" x="908" y="-141.5" font-family="Helvetica,sans-Serif" font-size="10.00">G4Types.hh</text>
</a>
</g>
</g>
<!-- Node20&#45;&gt;Node21 -->
<g id="edge21" class="edge">
<title>Node20&#45;&gt;Node21</title>
<path fill="none" stroke="midnightblue" d="M934.72,-190.08C930.29,-182.61 923.84,-171.72 918.38,-162.52"/>
<polygon fill="midnightblue" stroke="midnightblue" points="921.29,-160.57 913.19,-153.75 915.27,-164.14 921.29,-160.57"/>
</g>
<!-- Node22 -->
<g id="node22" class="node">
<title>Node22</title>
<g id="a_node22"><a xlink:title=" ">
<polygon fill="white" stroke="#bfbfbf" points="963,-134.5 963,-153.5 1001,-153.5 1001,-134.5 963,-134.5"/>
<text text-anchor="middle" x="982" y="-141.5" font-family="Helvetica,sans-Serif" font-size="10.00">map</text>
</a>
</g>
</g>
<!-- Node20&#45;&gt;Node22 -->
<g id="edge22" class="edge">
<title>Node20&#45;&gt;Node22</title>
<path fill="none" stroke="midnightblue" d="M946.94,-190.08C952.93,-182.38 961.75,-171.03 969.05,-161.65"/>
<polygon fill="midnightblue" stroke="midnightblue" points="971.82,-163.79 975.19,-153.75 966.29,-159.5 971.82,-163.79"/>
</g>
<!-- Node23 -->
<g id="node23" class="node">
<title>Node23</title>
<g id="a_node23"><a xlink:title=" ">
<polygon fill="white" stroke="#bfbfbf" points="1019.5,-134.5 1019.5,-153.5 1080.5,-153.5 1080.5,-134.5 1019.5,-134.5"/>
<text text-anchor="middle" x="1050" y="-141.5" font-family="Helvetica,sans-Serif" font-size="10.00">TGraph.h</text>
</a>
</g>
</g>
<!-- Node20&#45;&gt;Node23 -->
<g id="edge23" class="edge">
<title>Node20&#45;&gt;Node23</title>
<path fill="none" stroke="midnightblue" d="M957.67,-190.32C975.39,-181.62 1002.9,-168.12 1023.29,-158.11"/>
<polygon fill="midnightblue" stroke="midnightblue" points="1024.94,-161.2 1032.37,-153.65 1021.85,-154.92 1024.94,-161.2"/>
</g>
<!-- Node24 -->
<g id="node24" class="node">
<title>Node24</title>
<g id="a_node24"><a xlink:title=" ">
<polygon fill="white" stroke="#bfbfbf" points="761.5,-134.5 761.5,-153.5 814.5,-153.5 814.5,-134.5 761.5,-134.5"/>
<text text-anchor="middle" x="788" y="-141.5" font-family="Helvetica,sans-Serif" font-size="10.00">TH2D.h</text>
</a>
</g>
</g>
<!-- Node20&#45;&gt;Node24 -->
<g id="edge24" class="edge">
<title>Node20&#45;&gt;Node24</title>
<path fill="none" stroke="midnightblue" d="M915.92,-190.44C890.46,-181.4 850.11,-167.06 821.54,-156.92"/>
<polygon fill="midnightblue" stroke="midnightblue" points="822.57,-153.57 811.97,-153.52 820.22,-160.16 822.57,-153.57"/>
</g>
<!-- Node27&#45;&gt;Node5 -->
<g id="edge28" class="edge">
<title>Node27&#45;&gt;Node5</title>
<path fill="none" stroke="midnightblue" d="M580.08,-246.44C558.26,-237.52 523.85,-223.44 499.11,-213.32"/>
<polygon fill="midnightblue" stroke="midnightblue" points="500.4,-210.06 489.82,-209.52 497.75,-216.54 500.4,-210.06"/>
</g>
<!-- Node27&#45;&gt;Node20 -->
<g id="edge30" class="edge">
<title>Node27&#45;&gt;Node20</title>
<path fill="none" stroke="midnightblue" d="M654.72,-246.44C714.97,-236.85 812.61,-221.29 876.57,-211.1"/>
<polygon fill="midnightblue" stroke="midnightblue" points="877.21,-214.55 886.54,-209.52 876.11,-207.63 877.21,-214.55"/>
</g>
<!-- Node27&#45;&gt;Node27 -->
<g id="edge29" class="edge">
<title>Node27&#45;&gt;Node27</title>
<path fill="none" stroke="midnightblue" d="M640.45,-265.53C667.26,-268.31 693.5,-265.13 693.5,-256 693.5,-248.01 673.41,-244.58 650.43,-245.71"/>
<polygon fill="midnightblue" stroke="midnightblue" points="650.15,-242.22 640.45,-246.47 650.69,-249.2 650.15,-242.22"/>
</g>
<!-- Node28 -->
<g id="node28" class="node">
<title>Node28</title>
<g id="a_node28"><a xlink:title=" ">
<polygon fill="white" stroke="#bfbfbf" points="646,-190.5 646,-209.5 744,-209.5 744,-190.5 646,-190.5"/>
<text text-anchor="middle" x="695" y="-197.5" font-family="Helvetica,sans-Serif" font-size="10.00">G4UnionSolid.hh</text>
</a>
</g>
</g>
<!-- Node27&#45;&gt;Node28 -->
<g id="edge31" class="edge">
<title>Node27&#45;&gt;Node28</title>
<path fill="none" stroke="midnightblue" d="M616.1,-246.32C630.9,-237.82 653.69,-224.73 670.98,-214.8"/>
<polygon fill="midnightblue" stroke="midnightblue" points="673.01,-217.67 679.93,-209.65 669.52,-211.6 673.01,-217.67"/>
</g>
<!-- Node29 -->
<g id="node29" class="node">
<title>Node29</title>
<g id="a_node29"><a xlink:title=" ">
<polygon fill="white" stroke="#bfbfbf" points="560.5,-190.5 560.5,-209.5 627.5,-209.5 627.5,-190.5 560.5,-190.5"/>
<text text-anchor="middle" x="594" y="-197.5" font-family="Helvetica,sans-Serif" font-size="10.00">G4Tubs.hh</text>
</a>
</g>
</g>
<!-- Node27&#45;&gt;Node29 -->
<g id="edge32" class="edge">
<title>Node27&#45;&gt;Node29</title>
<path fill="none" stroke="midnightblue" d="M599.84,-246.08C598.92,-238.93 597.58,-228.64 596.42,-219.69"/>
<polygon fill="midnightblue" stroke="midnightblue" points="599.89,-219.22 595.13,-209.75 592.95,-220.12 599.89,-219.22"/>
</g>
<!-- Node32&#45;&gt;Node4 -->
<g id="edge37" class="edge">
<title>Node32&#45;&gt;Node4</title>
<path fill="none" stroke="midnightblue" d="M434.81,-358.44C455.29,-349.6 487.48,-335.69 510.86,-325.59"/>
<polygon fill="midnightblue" stroke="midnightblue" points="512.49,-328.7 520.29,-321.52 509.72,-322.27 512.49,-328.7"/>
</g>
<!-- Node32&#45;&gt;Node27 -->
<g id="edge36" class="edge">
<title>Node32&#45;&gt;Node27</title>
<path fill="none" stroke="midnightblue" d="M418.92,-358.5C425.73,-344.65 441.05,-317.24 462,-302 484.73,-285.47 513.82,-274.82 539.5,-268.05"/>
<polygon fill="midnightblue" stroke="midnightblue" points="540.67,-271.37 549.53,-265.56 538.98,-264.58 540.67,-271.37"/>
</g>
<!-- Node33&#45;&gt;Node4 -->
<g id="edge40" class="edge">
<title>Node33&#45;&gt;Node4</title>
<path fill="none" stroke="midnightblue" d="M336.35,-358.44C378.47,-349.04 446.21,-333.93 491.87,-323.74"/>
<polygon fill="midnightblue" stroke="midnightblue" points="492.84,-327.11 501.83,-321.52 491.31,-320.28 492.84,-327.11"/>
</g>
<!-- Node33&#45;&gt;Node27 -->
<g id="edge39" class="edge">
<title>Node33&#45;&gt;Node27</title>
<path fill="none" stroke="midnightblue" d="M314.43,-358.28C340.21,-344.86 391.97,-318.91 438,-302 476.08,-288.01 520.55,-276.01 553.42,-267.93"/>
<polygon fill="midnightblue" stroke="midnightblue" points="554.33,-271.31 563.22,-265.55 552.68,-264.51 554.33,-271.31"/>
</g>
<!-- Node34&#45;&gt;Node4 -->
<g id="edge43" class="edge">
<title>Node34&#45;&gt;Node4</title>
<path fill="none" stroke="midnightblue" d="M629.39,-414.37C613.24,-396.05 575.32,-353.05 554.43,-329.36"/>
<polygon fill="midnightblue" stroke="midnightblue" points="556.82,-326.78 547.58,-321.59 551.56,-331.41 556.82,-326.78"/>
</g>
<!-- Node34&#45;&gt;Node27 -->
<g id="edge42" class="edge">
<title>Node34&#45;&gt;Node27</title>
<path fill="none" stroke="midnightblue" d="M636.26,-414.37C634.41,-394.35 628.93,-343.32 618,-302 615.63,-293.02 612.1,-283.34 608.88,-275.28"/>
<polygon fill="midnightblue" stroke="midnightblue" points="612.01,-273.68 604.94,-265.79 605.54,-276.37 612.01,-273.68"/>
</g>
<!-- Node34&#45;&gt;Node35 -->
<g id="edge44" class="edge">
<title>Node34&#45;&gt;Node35</title>
<path fill="none" stroke="midnightblue" d="M650.82,-414.32C664.23,-405.9 684.82,-392.97 700.59,-383.07"/>
<polygon fill="midnightblue" stroke="midnightblue" points="702.61,-385.94 709.22,-377.65 698.89,-380.01 702.61,-385.94"/>
</g>
<!-- Node36 -->
<g id="node36" class="node">
<title>Node36</title>
<g id="a_node36"><a xlink:title=" ">
<polygon fill="white" stroke="#bfbfbf" points="481.5,-358.5 481.5,-377.5 570.5,-377.5 570.5,-358.5 481.5,-358.5"/>
<text text-anchor="middle" x="526" y="-365.5" font-family="Helvetica,sans-Serif" font-size="10.00">G4Polycone.hh</text>
</a>
</g>
</g>
<!-- Node34&#45;&gt;Node36 -->
<g id="edge45" class="edge">
<title>Node34&#45;&gt;Node36</title>
<path fill="none" stroke="midnightblue" d="M619.17,-414.32C601.28,-405.62 573.52,-392.12 552.95,-382.11"/>
<polygon fill="midnightblue" stroke="midnightblue" points="554.31,-378.88 543.79,-377.65 551.25,-385.18 554.31,-378.88"/>
</g>
<!-- Node37&#45;&gt;Node4 -->
<g id="edge48" class="edge">
<title>Node37&#45;&gt;Node4</title>
<path fill="none" stroke="midnightblue" d="M799.37,-358.62C745.27,-349.11 656.96,-333.57 598.67,-323.32"/>
<polygon fill="midnightblue" stroke="midnightblue" points="598.96,-319.82 588.5,-321.53 597.75,-326.71 598.96,-319.82"/>
</g>
<!-- Node37&#45;&gt;Node27 -->
<g id="edge47" class="edge">
<title>Node37&#45;&gt;Node27</title>
<path fill="none" stroke="midnightblue" d="M827.7,-358.37C784.58,-339.09 680.29,-292.45 629.6,-269.79"/>
<polygon fill="midnightblue" stroke="midnightblue" points="630.77,-266.48 620.21,-265.59 627.91,-272.87 630.77,-266.48"/>
</g>
<!-- Node38&#45;&gt;Node4 -->
<g id="edge55" class="edge">
<title>Node38&#45;&gt;Node4</title>
<path fill="none" stroke="midnightblue" d="M912.8,-359.24C909.83,-358.81 906.87,-358.4 904,-358 805.8,-344.44 692.43,-330.73 618.65,-322.07"/>
<polygon fill="midnightblue" stroke="midnightblue" points="618.84,-318.57 608.51,-320.88 618.03,-325.52 618.84,-318.57"/>
</g>
<!-- Node38&#45;&gt;Node27 -->
<g id="edge54" class="edge">
<title>Node38&#45;&gt;Node27</title>
<path fill="none" stroke="midnightblue" d="M934.9,-358.46C870.48,-338.89 712.12,-290.77 639.06,-268.57"/>
<polygon fill="midnightblue" stroke="midnightblue" points="639.92,-265.17 629.34,-265.61 637.89,-271.87 639.92,-265.17"/>
</g>
<!-- Node39 -->
<g id="node39" class="node">
<title>Node39</title>
<g id="a_node39"><a xlink:href="_o_m_sim_m_d_o_m_flasher_8hh.html" target="_top" xlink:title="Defines the mDOMFlasher class for simulating the 10 flashers in an mDOM optical module.">
<polygon fill="white" stroke="black" points="718.5,-246.5 718.5,-265.5 853.5,-265.5 853.5,-246.5 718.5,-246.5"/>
<text text-anchor="middle" x="786" y="-253.5" font-family="Helvetica,sans-Serif" font-size="10.00">OMSimMDOMFlasher.hh</text>
</a>
</g>
</g>
<!-- Node38&#45;&gt;Node39 -->
<g id="edge50" class="edge">
<title>Node38&#45;&gt;Node39</title>
<path fill="none" stroke="midnightblue" d="M952.72,-358.36C936.86,-345.27 905.21,-320.01 876,-302 856.3,-289.85 832.89,-278.23 814.89,-269.84"/>
<polygon fill="midnightblue" stroke="midnightblue" points="816.04,-266.52 805.5,-265.52 813.12,-272.88 816.04,-266.52"/>
</g>
<!-- Node39&#45;&gt;Node5 -->
<g id="edge51" class="edge">
<title>Node39&#45;&gt;Node5</title>
<path fill="none" stroke="midnightblue" d="M735.77,-246.44C679.66,-236.89 588.87,-221.42 529.05,-211.23"/>
<polygon fill="midnightblue" stroke="midnightblue" points="529.44,-207.75 518.99,-209.52 528.26,-214.65 529.44,-207.75"/>
</g>
<!-- Node39&#45;&gt;Node28 -->
<g id="edge52" class="edge">
<title>Node39&#45;&gt;Node28</title>
<path fill="none" stroke="midnightblue" d="M771.38,-246.32C757.05,-237.82 734.99,-224.73 718.25,-214.8"/>
<polygon fill="midnightblue" stroke="midnightblue" points="719.97,-211.75 709.58,-209.65 716.4,-217.77 719.97,-211.75"/>
</g>
<!-- Node40 -->
<g id="node40" class="node">
<title>Node40</title>
<g id="a_node40"><a xlink:title=" ">
<polygon fill="white" stroke="#bfbfbf" points="762,-190.5 762,-209.5 854,-209.5 854,-190.5 762,-190.5"/>
<text text-anchor="middle" x="808" y="-197.5" font-family="Helvetica,sans-Serif" font-size="10.00">G4Navigator.hh</text>
</a>
</g>
</g>
<!-- Node39&#45;&gt;Node40 -->
<g id="edge53" class="edge">
<title>Node39&#45;&gt;Node40</title>
<path fill="none" stroke="midnightblue" d="M789.63,-246.08C792.61,-238.77 796.93,-228.18 800.62,-219.1"/>
<polygon fill="midnightblue" stroke="midnightblue" points="803.9,-220.33 804.43,-209.75 797.42,-217.69 803.9,-220.33"/>
</g>
<!-- Node41&#45;&gt;Node7 -->
<g id="edge57" class="edge">
<title>Node41&#45;&gt;Node7</title>
<path fill="none" stroke="midnightblue" d="M1110.52,-246.36C1113.83,-224.48 1119.22,-166.35 1090,-134 1072.33,-114.44 1007.23,-100.22 957.69,-91.95"/>
<polygon fill="midnightblue" stroke="midnightblue" points="958.12,-88.48 947.69,-90.33 957,-95.38 958.12,-88.48"/>
</g>
<!-- Node41&#45;&gt;Node26 -->
<g id="edge58" class="edge">
<title>Node41&#45;&gt;Node26</title>
<path fill="none" stroke="midnightblue" d="M1100,-246.32C1091.81,-238.42 1079.49,-226.55 1069.53,-216.94"/>
<polygon fill="midnightblue" stroke="midnightblue" points="1071.79,-214.26 1062.16,-209.83 1066.93,-219.29 1071.79,-214.26"/>
</g>
<!-- Node42 -->
<g id="node42" class="node">
<title>Node42</title>
<g id="a_node42"><a xlink:title=" ">
<polygon fill="white" stroke="#bfbfbf" points="1259,-190.5 1259,-209.5 1343,-209.5 1343,-190.5 1259,-190.5"/>
<text text-anchor="middle" x="1301" y="-197.5" font-family="Helvetica,sans-Serif" font-size="10.00">boost/any.hpp</text>
</a>
</g>
</g>
<!-- Node41&#45;&gt;Node42 -->
<g id="edge59" class="edge">
<title>Node41&#45;&gt;Node42</title>
<path fill="none" stroke="midnightblue" d="M1139.42,-246.44C1172.28,-237.2 1224.78,-222.44 1260.97,-212.26"/>
<polygon fill="midnightblue" stroke="midnightblue" points="1262.04,-215.59 1270.72,-209.52 1260.15,-208.85 1262.04,-215.59"/>
</g>
<!-- Node43 -->
<g id="node43" class="node">
<title>Node43</title>
<g id="a_node43"><a xlink:title=" ">
<polygon fill="white" stroke="#bfbfbf" points="1361,-190.5 1361,-209.5 1429,-209.5 1429,-190.5 1361,-190.5"/>
<text text-anchor="middle" x="1395" y="-197.5" font-family="Helvetica,sans-Serif" font-size="10.00">sys/time.h</text>
</a>
</g>
</g>
<!-- Node41&#45;&gt;Node43 -->
<g id="edge60" class="edge">
<title>Node41&#45;&gt;Node43</title>
<path fill="none" stroke="midnightblue" d="M1157.01,-246.45C1203.97,-238.01 1277.76,-224.54 1350.9,-210.18"/>
<polygon fill="midnightblue" stroke="midnightblue" points="1351.61,-213.61 1360.75,-208.24 1350.26,-206.74 1351.61,-213.61"/>
</g>
<!-- Node45&#45;&gt;Node20 -->
<g id="edge67" class="edge">
<title>Node45&#45;&gt;Node20</title>
<path fill="none" stroke="midnightblue" d="M1231.18,-246.44C1169.68,-236.85 1070.02,-221.29 1004.74,-211.1"/>
<polygon fill="midnightblue" stroke="midnightblue" points="1004.99,-207.6 994.57,-209.52 1003.91,-214.52 1004.99,-207.6"/>
</g>
<!-- Node45&#45;&gt;Node25 -->
<g id="edge66" class="edge">
<title>Node45&#45;&gt;Node25</title>
<path fill="none" stroke="midnightblue" d="M1270.42,-246.32C1255,-237.74 1231.19,-224.49 1213.29,-214.52"/>
<polygon fill="midnightblue" stroke="midnightblue" points="1214.99,-211.46 1204.55,-209.65 1211.58,-217.58 1214.99,-211.46"/>
</g>
<!-- Node46 -->
<g id="node46" class="node">
<title>Node46</title>
<g id="a_node46"><a xlink:title=" ">
<polygon fill="white" stroke="#bfbfbf" points="1447,-190.5 1447,-209.5 1585,-209.5 1585,-190.5 1447,-190.5"/>
<text text-anchor="middle" x="1516" y="-197.5" font-family="Helvetica,sans-Serif" font-size="10.00">G4VSensitiveDetector.hh</text>
</a>
</g>
</g>
<!-- Node45&#45;&gt;Node46 -->
<g id="edge65" class="edge">
<title>Node45&#45;&gt;Node46</title>
<path fill="none" stroke="midnightblue" d="M1322.44,-246.44C1362.4,-237.06 1426.59,-221.99 1469.98,-211.8"/>
<polygon fill="midnightblue" stroke="midnightblue" points="1470.79,-215.21 1479.73,-209.52 1469.19,-208.39 1470.79,-215.21"/>
</g>
<!-- Node47 -->
<g id="node47" class="node">
<title>Node47</title>
<g id="a_node47"><a xlink:title=" ">
<polygon fill="white" stroke="#bfbfbf" points="1603.5,-190.5 1603.5,-209.5 1650.5,-209.5 1650.5,-190.5 1603.5,-190.5"/>
<text text-anchor="middle" x="1627" y="-197.5" font-family="Helvetica,sans-Serif" font-size="10.00">vector</text>
</a>
</g>
</g>
<!-- Node45&#45;&gt;Node47 -->
<g id="edge68" class="edge">
<title>Node45&#45;&gt;Node47</title>
<path fill="none" stroke="midnightblue" d="M1362.08,-246.49C1422.31,-239.15 1508.69,-227.31 1593.26,-209.93"/>
<polygon fill="midnightblue" stroke="midnightblue" points="1594.21,-213.3 1603.29,-207.84 1592.79,-206.45 1594.21,-213.3"/>
</g>
</g>
</svg>
