<?xml version="1.0" encoding="UTF-8" standalone="no"?>
<!DOCTYPE svg PUBLIC "-//W3C//DTD SVG 1.1//EN"
 "http://www.w3.org/Graphics/SVG/1.1/DTD/svg11.dtd">
<!-- Generated by graphviz version 2.43.0 (0)
 -->
<!-- Title: OMSimMDOM.hh Pages: 1 -->
<svg width="1615pt" height="386pt"
 viewBox="0.00 0.00 1615.00 386.00" xmlns="http://www.w3.org/2000/svg" xmlns:xlink="http://www.w3.org/1999/xlink">
<g id="graph0" class="graph" transform="scale(1 1) rotate(0) translate(4 382)">
<title>OMSimMDOM.hh</title>
<!-- Node1 -->
<g id="node1" class="node">
<title>Node1</title>
<g id="a_node1"><a xlink:title="Construction of mDOM.">
<polygon fill="#bfbfbf" stroke="black" points="1050.5,-358.5 1050.5,-377.5 1150.5,-377.5 1150.5,-358.5 1050.5,-358.5"/>
<text text-anchor="middle" x="1100.5" y="-365.5" font-family="Helvetica,sans-Serif" font-size="10.00">OMSimMDOM.hh</text>
</a>
</g>
</g>
<!-- Node2 -->
<g id="node2" class="node">
<title>Node2</title>
<g id="a_node2"><a xlink:href="_o_m_sim_m_d_o_m_flasher_8hh.html" target="_top" xlink:title="Defines the mDOMFlasher class for simulating the 10 flashers in an mDOM optical module.">
<polygon fill="none" stroke="black" points="970,-246.5 970,-265.5 1105,-265.5 1105,-246.5 970,-246.5"/>
<text text-anchor="middle" x="1037.5" y="-253.5" font-family="Helvetica,sans-Serif" font-size="10.00">OMSimMDOMFlasher.hh</text>
</a>
</g>
</g>
<!-- Node1&#45;&gt;Node2 -->
<g id="edge1" class="edge">
<title>Node1&#45;&gt;Node2</title>
<path fill="none" stroke="midnightblue" d="M1095.56,-358.37C1085.21,-340.3 1061.08,-298.18 1047.41,-274.31"/>
<polygon fill="midnightblue" stroke="midnightblue" points="1050.43,-272.53 1042.42,-265.59 1044.35,-276.01 1050.43,-272.53"/>
</g>
<!-- Node26 -->
<g id="node26" class="node">
<title>Node26</title>
<g id="a_node26"><a xlink:href="_o_m_sim_p_m_t_construction_8hh.html" target="_top" xlink:title="Construction of the PMTs.">
<polygon fill="none" stroke="black" points="1123,-246.5 1123,-265.5 1272,-265.5 1272,-246.5 1123,-246.5"/>
<text text-anchor="middle" x="1197.5" y="-253.5" font-family="Helvetica,sans-Serif" font-size="10.00">OMSimPMTConstruction.hh</text>
</a>
</g>
</g>
<!-- Node1&#45;&gt;Node26 -->
<g id="edge25" class="edge">
<title>Node1&#45;&gt;Node26</title>
<path fill="none" stroke="midnightblue" d="M1101.2,-358.07C1102.67,-344.59 1107.15,-318.84 1120.5,-302 1131.81,-287.73 1148.98,-277.08 1164.23,-269.73"/>
<polygon fill="midnightblue" stroke="midnightblue" points="1165.75,-272.88 1173.42,-265.57 1162.86,-266.5 1165.75,-272.88"/>
</g>
<!-- Node33 -->
<g id="node33" class="node">
<title>Node33</title>
<g id="a_node33"><a xlink:href="_o_m_sim_optical_module_8hh_source.html" target="_top" xlink:title=" ">
<polygon fill="none" stroke="black" points="1129,-302.5 1129,-321.5 1266,-321.5 1266,-302.5 1129,-302.5"/>
<text text-anchor="middle" x="1197.5" y="-309.5" font-family="Helvetica,sans-Serif" font-size="10.00">OMSimOpticalModule.hh</text>
</a>
</g>
</g>
<!-- Node1&#45;&gt;Node33 -->
<g id="edge36" class="edge">
<title>Node1&#45;&gt;Node33</title>
<path fill="none" stroke="midnightblue" d="M1116.08,-358.32C1131.5,-349.74 1155.31,-336.49 1173.21,-326.52"/>
<polygon fill="midnightblue" stroke="midnightblue" points="1174.92,-329.58 1181.95,-321.65 1171.51,-323.46 1174.92,-329.58"/>
</g>
<!-- Node3 -->
<g id="node3" class="node">
<title>Node3</title>
<g id="a_node3"><a xlink:href="abc_detector_component_8hh.html" target="_top" xlink:title="Provides helper base class abcDetectorComponent for constructing and managing detector components in ...">
<polygon fill="none" stroke="black" points="826,-190.5 826,-209.5 973,-209.5 973,-190.5 826,-190.5"/>
<text text-anchor="middle" x="899.5" y="-197.5" font-family="Helvetica,sans-Serif" font-size="10.00">abcDetectorComponent.hh</text>
</a>
</g>
</g>
<!-- Node2&#45;&gt;Node3 -->
<g id="edge2" class="edge">
<title>Node2&#45;&gt;Node3</title>
<path fill="none" stroke="midnightblue" d="M1015.63,-246.44C992.72,-237.48 956.52,-223.31 930.63,-213.18"/>
<polygon fill="midnightblue" stroke="midnightblue" points="931.85,-209.9 921.26,-209.52 929.3,-216.42 931.85,-209.9"/>
</g>
<!-- Node24 -->
<g id="node24" class="node">
<title>Node24</title>
<g id="a_node24"><a xlink:title=" ">
<polygon fill="none" stroke="#bfbfbf" points="1101.5,-190.5 1101.5,-209.5 1199.5,-209.5 1199.5,-190.5 1101.5,-190.5"/>
<text text-anchor="middle" x="1150.5" y="-197.5" font-family="Helvetica,sans-Serif" font-size="10.00">G4UnionSolid.hh</text>
</a>
</g>
</g>
<!-- Node2&#45;&gt;Node24 -->
<g id="edge23" class="edge">
<title>Node2&#45;&gt;Node24</title>
<path fill="none" stroke="midnightblue" d="M1055.41,-246.44C1073.75,-237.68 1102.51,-223.94 1123.59,-213.86"/>
<polygon fill="midnightblue" stroke="midnightblue" points="1125.17,-216.99 1132.68,-209.52 1122.15,-210.67 1125.17,-216.99"/>
</g>
<!-- Node25 -->
<g id="node25" class="node">
<title>Node25</title>
<g id="a_node25"><a xlink:title=" ">
<polygon fill="none" stroke="#bfbfbf" points="991.5,-190.5 991.5,-209.5 1083.5,-209.5 1083.5,-190.5 991.5,-190.5"/>
<text text-anchor="middle" x="1037.5" y="-197.5" font-family="Helvetica,sans-Serif" font-size="10.00">G4Navigator.hh</text>
</a>
</g>
</g>
<!-- Node2&#45;&gt;Node25 -->
<g id="edge24" class="edge">
<title>Node2&#45;&gt;Node25</title>
<path fill="none" stroke="midnightblue" d="M1037.5,-246.08C1037.5,-239.01 1037.5,-228.86 1037.5,-219.99"/>
<polygon fill="midnightblue" stroke="midnightblue" points="1041,-219.75 1037.5,-209.75 1034,-219.75 1041,-219.75"/>
</g>
<!-- Node4 -->
<g id="node4" class="node">
<title>Node4</title>
<g id="a_node4"><a xlink:href="_o_m_sim_input_data_8hh.html" target="_top" xlink:title="Definition of ParameterTable and OMSimInputData.">
<polygon fill="none" stroke="black" points="527,-134.5 527,-153.5 642,-153.5 642,-134.5 527,-134.5"/>
<text text-anchor="middle" x="584.5" y="-141.5" font-family="Helvetica,sans-Serif" font-size="10.00">OMSimInputData.hh</text>
</a>
</g>
</g>
<!-- Node3&#45;&gt;Node4 -->
<g id="edge3" class="edge">
<title>Node3&#45;&gt;Node4</title>
<path fill="none" stroke="midnightblue" d="M849.59,-190.44C793.83,-180.89 703.61,-165.42 644.17,-155.23"/>
<polygon fill="midnightblue" stroke="midnightblue" points="644.63,-151.76 634.18,-153.52 643.44,-158.66 644.63,-151.76"/>
</g>
<!-- Node20 -->
<g id="node20" class="node">
<title>Node20</title>
<g id="a_node20"><a xlink:title=" ">
<polygon fill="none" stroke="#bfbfbf" points="660,-134.5 660,-153.5 767,-153.5 767,-134.5 660,-134.5"/>
<text text-anchor="middle" x="713.5" y="-141.5" font-family="Helvetica,sans-Serif" font-size="10.00">G4Transform3D.hh</text>
</a>
</g>
</g>
<!-- Node3&#45;&gt;Node20 -->
<g id="edge19" class="edge">
<title>Node3&#45;&gt;Node20</title>
<path fill="none" stroke="midnightblue" d="M870.03,-190.44C838.33,-181.24 787.77,-166.56 752.73,-156.39"/>
<polygon fill="midnightblue" stroke="midnightblue" points="753.41,-152.94 742.83,-153.52 751.46,-159.67 753.41,-152.94"/>
</g>
<!-- Node21 -->
<g id="node21" class="node">
<title>Node21</title>
<g id="a_node21"><a xlink:title=" ">
<polygon fill="none" stroke="#bfbfbf" points="785.5,-134.5 785.5,-153.5 893.5,-153.5 893.5,-134.5 785.5,-134.5"/>
<text text-anchor="middle" x="839.5" y="-141.5" font-family="Helvetica,sans-Serif" font-size="10.00">G4VisAttributes.hh</text>
</a>
</g>
</g>
<!-- Node3&#45;&gt;Node21 -->
<g id="edge20" class="edge">
<title>Node3&#45;&gt;Node21</title>
<path fill="none" stroke="midnightblue" d="M889.86,-190.32C880.99,-182.34 867.63,-170.31 856.89,-160.65"/>
<polygon fill="midnightblue" stroke="midnightblue" points="859.09,-157.92 849.32,-153.83 854.41,-163.13 859.09,-157.92"/>
</g>
<!-- Node22 -->
<g id="node22" class="node">
<title>Node22</title>
<g id="a_node22"><a xlink:title=" ">
<polygon fill="none" stroke="#bfbfbf" points="912,-134.5 912,-153.5 1037,-153.5 1037,-134.5 912,-134.5"/>
<text text-anchor="middle" x="974.5" y="-141.5" font-family="Helvetica,sans-Serif" font-size="10.00">G4SubtractionSolid.hh</text>
</a>
</g>
</g>
<!-- Node3&#45;&gt;Node22 -->
<g id="edge21" class="edge">
<title>Node3&#45;&gt;Node22</title>
<path fill="none" stroke="midnightblue" d="M911.55,-190.32C922.96,-182.11 940.33,-169.6 953.93,-159.81"/>
<polygon fill="midnightblue" stroke="midnightblue" points="956.16,-162.52 962.23,-153.83 952.07,-156.84 956.16,-162.52"/>
</g>
<!-- Node23 -->
<g id="node23" class="node">
<title>Node23</title>
<g id="a_node23"><a xlink:title=" ">
<polygon fill="none" stroke="#bfbfbf" points="1055.5,-134.5 1055.5,-153.5 1165.5,-153.5 1165.5,-134.5 1055.5,-134.5"/>
<text text-anchor="middle" x="1110.5" y="-141.5" font-family="Helvetica,sans-Serif" font-size="10.00">G4PVPlacement.hh</text>
</a>
</g>
</g>
<!-- Node3&#45;&gt;Node23 -->
<g id="edge22" class="edge">
<title>Node3&#45;&gt;Node23</title>
<path fill="none" stroke="midnightblue" d="M932.93,-190.44C969.36,-181.12 1027.73,-166.18 1067.53,-156"/>
<polygon fill="midnightblue" stroke="midnightblue" points="1068.4,-159.39 1077.22,-153.52 1066.67,-152.61 1068.4,-159.39"/>
</g>
<!-- Node5 -->
<g id="node5" class="node">
<title>Node5</title>
<g id="a_node5"><a xlink:href="_o_m_sim_logger_8hh_source.html" target="_top" xlink:title=" ">
<polygon fill="none" stroke="black" points="220,-73 220,-92 319,-92 319,-73 220,-73"/>
<text text-anchor="middle" x="269.5" y="-80" font-family="Helvetica,sans-Serif" font-size="10.00">OMSimLogger.hh</text>
</a>
</g>
</g>
<!-- Node4&#45;&gt;Node5 -->
<g id="edge4" class="edge">
<title>Node4&#45;&gt;Node5</title>
<path fill="none" stroke="midnightblue" d="M539.37,-134.48C482.64,-123.76 385.35,-105.38 324.38,-93.87"/>
<polygon fill="midnightblue" stroke="midnightblue" points="325.02,-90.43 314.55,-92.01 323.72,-97.3 325.02,-90.43"/>
</g>
<!-- Node10 -->
<g id="node10" class="node">
<title>Node10</title>
<g id="a_node10"><a xlink:href="_o_m_sim_op_boundary_process_8hh_source.html" target="_top" xlink:title=" ">
<polygon fill="none" stroke="black" points="605.5,-73 605.5,-92 769.5,-92 769.5,-73 605.5,-73"/>
<text text-anchor="middle" x="687.5" y="-80" font-family="Helvetica,sans-Serif" font-size="10.00">OMSimOpBoundaryProcess.hh</text>
</a>
</g>
</g>
<!-- Node4&#45;&gt;Node10 -->
<g id="edge9" class="edge">
<title>Node4&#45;&gt;Node10</title>
<path fill="none" stroke="midnightblue" d="M599.26,-134.48C616.16,-124.71 644.08,-108.58 663.99,-97.08"/>
<polygon fill="midnightblue" stroke="midnightblue" points="665.86,-100.04 672.77,-92.01 662.36,-93.98 665.86,-100.04"/>
</g>
<!-- Node18 -->
<g id="node18" class="node">
<title>Node18</title>
<g id="a_node18"><a xlink:title=" ">
<polygon fill="none" stroke="#bfbfbf" points="919,-73 919,-92 1038,-92 1038,-73 919,-73"/>
<text text-anchor="middle" x="978.5" y="-80" font-family="Helvetica,sans-Serif" font-size="10.00">G4SystemOfUnits.hh</text>
</a>
</g>
</g>
<!-- Node4&#45;&gt;Node18 -->
<g id="edge17" class="edge">
<title>Node4&#45;&gt;Node18</title>
<path fill="none" stroke="midnightblue" d="M642.27,-135.11C732.13,-122.81 896.51,-100.26 909.5,-98 916.23,-96.83 923.29,-95.48 930.24,-94.09"/>
<polygon fill="midnightblue" stroke="midnightblue" points="931.18,-97.47 940.27,-92.03 929.77,-90.61 931.18,-97.47"/>
</g>
<!-- Node19 -->
<g id="node19" class="node">
<title>Node19</title>
<g id="a_node19"><a xlink:title=" ">
<polygon fill="none" stroke="#bfbfbf" points="788,-67.5 788,-97.5 901,-97.5 901,-67.5 788,-67.5"/>
<text text-anchor="start" x="796" y="-85.5" font-family="Helvetica,sans-Serif" font-size="10.00">boost/property_tree</text>
<text text-anchor="middle" x="844.5" y="-74.5" font-family="Helvetica,sans-Serif" font-size="10.00">/json_parser.hpp</text>
</a>
</g>
</g>
<!-- Node4&#45;&gt;Node19 -->
<g id="edge18" class="edge">
<title>Node4&#45;&gt;Node19</title>
<path fill="none" stroke="midnightblue" d="M621.75,-134.48C662.34,-125.19 728.11,-110.14 777.68,-98.79"/>
<polygon fill="midnightblue" stroke="midnightblue" points="778.71,-102.15 787.68,-96.5 777.15,-95.32 778.71,-102.15"/>
</g>
<!-- Node6 -->
<g id="node6" class="node">
<title>Node6</title>
<g id="a_node6"><a xlink:title=" ">
<polygon fill="none" stroke="#bfbfbf" points="0,-6 0,-25 93,-25 93,-6 0,-6"/>
<text text-anchor="middle" x="46.5" y="-13" font-family="Helvetica,sans-Serif" font-size="10.00">spdlog/spdlog.h</text>
</a>
</g>
</g>
<!-- Node5&#45;&gt;Node6 -->
<g id="edge5" class="edge">
<title>Node5&#45;&gt;Node6</title>
<path fill="none" stroke="midnightblue" d="M239.89,-72.87C200.21,-61.3 129.69,-40.75 85.66,-27.91"/>
<polygon fill="midnightblue" stroke="midnightblue" points="86.46,-24.5 75.88,-25.06 84.5,-31.22 86.46,-24.5"/>
</g>
<!-- Node7 -->
<g id="node7" class="node">
<title>Node7</title>
<g id="a_node7"><a xlink:title=" ">
<polygon fill="none" stroke="#bfbfbf" points="111,-0.5 111,-30.5 222,-30.5 222,-0.5 111,-0.5"/>
<text text-anchor="start" x="119" y="-18.5" font-family="Helvetica,sans-Serif" font-size="10.00">spdlog/sinks/stdout</text>
<text text-anchor="middle" x="166.5" y="-7.5" font-family="Helvetica,sans-Serif" font-size="10.00">_color_sinks.h</text>
</a>
</g>
</g>
<!-- Node5&#45;&gt;Node7 -->
<g id="edge6" class="edge">
<title>Node5&#45;&gt;Node7</title>
<path fill="none" stroke="midnightblue" d="M255.61,-72.73C240.75,-63.36 216.71,-48.19 197.35,-35.97"/>
<polygon fill="midnightblue" stroke="midnightblue" points="199.15,-32.97 188.83,-30.59 195.41,-38.89 199.15,-32.97"/>
</g>
<!-- Node8 -->
<g id="node8" class="node">
<title>Node8</title>
<g id="a_node8"><a xlink:title=" ">
<polygon fill="none" stroke="#bfbfbf" points="240.5,-6 240.5,-25 298.5,-25 298.5,-6 240.5,-6"/>
<text text-anchor="middle" x="269.5" y="-13" font-family="Helvetica,sans-Serif" font-size="10.00">memory</text>
</a>
</g>
</g>
<!-- Node5&#45;&gt;Node8 -->
<g id="edge7" class="edge">
<title>Node5&#45;&gt;Node8</title>
<path fill="none" stroke="midnightblue" d="M269.5,-72.73C269.5,-63.18 269.5,-47.62 269.5,-35.28"/>
<polygon fill="midnightblue" stroke="midnightblue" points="273,-35.13 269.5,-25.13 266,-35.13 273,-35.13"/>
</g>
<!-- Node9 -->
<g id="node9" class="node">
<title>Node9</title>
<g id="a_node9"><a xlink:title=" ">
<polygon fill="none" stroke="#bfbfbf" points="316.5,-6 316.5,-25 414.5,-25 414.5,-6 316.5,-6"/>
<text text-anchor="middle" x="365.5" y="-13" font-family="Helvetica,sans-Serif" font-size="10.00">spdlog/fmt/fmt.h</text>
</a>
</g>
</g>
<!-- Node5&#45;&gt;Node9 -->
<g id="edge8" class="edge">
<title>Node5&#45;&gt;Node9</title>
<path fill="none" stroke="midnightblue" d="M282.45,-72.73C298.35,-61.96 325.55,-43.55 344.47,-30.74"/>
<polygon fill="midnightblue" stroke="midnightblue" points="346.44,-33.63 352.76,-25.13 342.52,-27.84 346.44,-33.63"/>
</g>
<!-- Node11 -->
<g id="node11" class="node">
<title>Node11</title>
<g id="a_node11"><a xlink:title=" ">
<polygon fill="none" stroke="#bfbfbf" points="433,-6 433,-25 546,-25 546,-6 433,-6"/>
<text text-anchor="middle" x="489.5" y="-13" font-family="Helvetica,sans-Serif" font-size="10.00">G4OpticalPhoton.hh</text>
</a>
</g>
</g>
<!-- Node10&#45;&gt;Node11 -->
<g id="edge10" class="edge">
<title>Node10&#45;&gt;Node11</title>
<path fill="none" stroke="midnightblue" d="M661.21,-72.87C626.27,-61.4 564.42,-41.09 525.26,-28.24"/>
<polygon fill="midnightblue" stroke="midnightblue" points="526.18,-24.86 515.59,-25.06 524,-31.51 526.18,-24.86"/>
</g>
<!-- Node12 -->
<g id="node12" class="node">
<title>Node12</title>
<g id="a_node12"><a xlink:title=" ">
<polygon fill="none" stroke="#bfbfbf" points="564.5,-6 564.5,-25 680.5,-25 680.5,-6 564.5,-6"/>
<text text-anchor="middle" x="622.5" y="-13" font-family="Helvetica,sans-Serif" font-size="10.00">G4OpticalSurface.hh</text>
</a>
</g>
</g>
<!-- Node10&#45;&gt;Node12 -->
<g id="edge11" class="edge">
<title>Node10&#45;&gt;Node12</title>
<path fill="none" stroke="midnightblue" d="M678.73,-72.73C668.4,-62.4 651.04,-45.04 638.33,-32.33"/>
<polygon fill="midnightblue" stroke="midnightblue" points="640.67,-29.72 631.13,-25.13 635.72,-34.67 640.67,-29.72"/>
</g>
<!-- Node13 -->
<g id="node13" class="node">
<title>Node13</title>
<g id="a_node13"><a xlink:title=" ">
<polygon fill="none" stroke="#bfbfbf" points="698.5,-6 698.5,-25 808.5,-25 808.5,-6 698.5,-6"/>
<text text-anchor="middle" x="753.5" y="-13" font-family="Helvetica,sans-Serif" font-size="10.00">G4RandomTools.hh</text>
</a>
</g>
</g>
<!-- Node10&#45;&gt;Node13 -->
<g id="edge12" class="edge">
<title>Node10&#45;&gt;Node13</title>
<path fill="none" stroke="midnightblue" d="M696.4,-72.73C706.89,-62.4 724.52,-45.04 737.42,-32.33"/>
<polygon fill="midnightblue" stroke="midnightblue" points="740.07,-34.64 744.74,-25.13 735.16,-29.65 740.07,-34.64"/>
</g>
<!-- Node14 -->
<g id="node14" class="node">
<title>Node14</title>
<g id="a_node14"><a xlink:title=" ">
<polygon fill="none" stroke="#bfbfbf" points="826.5,-6 826.5,-25 956.5,-25 956.5,-6 826.5,-6"/>
<text text-anchor="middle" x="891.5" y="-13" font-family="Helvetica,sans-Serif" font-size="10.00">G4VDiscreteProcess.hh</text>
</a>
</g>
</g>
<!-- Node10&#45;&gt;Node14 -->
<g id="edge13" class="edge">
<title>Node10&#45;&gt;Node14</title>
<path fill="none" stroke="midnightblue" d="M714.59,-72.87C750.66,-61.38 814.58,-41.01 854.91,-28.16"/>
<polygon fill="midnightblue" stroke="midnightblue" points="856.16,-31.43 864.62,-25.06 854.03,-24.76 856.16,-31.43"/>
</g>
<!-- Node15 -->
<g id="node15" class="node">
<title>Node15</title>
<g id="a_node15"><a xlink:title=" ">
<polygon fill="none" stroke="#bfbfbf" points="975,-6 975,-25 1132,-25 1132,-6 975,-6"/>
<text text-anchor="middle" x="1053.5" y="-13" font-family="Helvetica,sans-Serif" font-size="10.00">G4VUserTrackInformation.hh</text>
</a>
</g>
</g>
<!-- Node10&#45;&gt;Node15 -->
<g id="edge14" class="edge">
<title>Node10&#45;&gt;Node15</title>
<path fill="none" stroke="midnightblue" d="M735.72,-72.94C802.61,-61.06 923.38,-39.61 995.23,-26.85"/>
<polygon fill="midnightblue" stroke="midnightblue" points="996.23,-30.23 1005.46,-25.03 995,-23.33 996.23,-30.23"/>
</g>
<!-- Node16 -->
<g id="node16" class="node">
<title>Node16</title>
<g id="a_node16"><a xlink:title=" ">
<polygon fill="none" stroke="#bfbfbf" points="1191.5,-6 1191.5,-25 1281.5,-25 1281.5,-6 1191.5,-6"/>
<text text-anchor="middle" x="1236.5" y="-13" font-family="Helvetica,sans-Serif" font-size="10.00">G4AutoLock.hh</text>
</a>
</g>
</g>
<!-- Node10&#45;&gt;Node16 -->
<g id="edge15" class="edge">
<title>Node10&#45;&gt;Node16</title>
<path fill="none" stroke="midnightblue" d="M737.49,-72.99C750.79,-70.87 765.17,-68.72 778.5,-67 939.29,-46.24 980.64,-51.24 1141.5,-31 1154.3,-29.39 1168.04,-27.43 1180.97,-25.48"/>
<polygon fill="midnightblue" stroke="midnightblue" points="1181.79,-28.89 1191.14,-23.92 1180.73,-21.97 1181.79,-28.89"/>
</g>
<!-- Node17 -->
<g id="node17" class="node">
<title>Node17</title>
<g id="a_node17"><a xlink:title=" ">
<polygon fill="none" stroke="#bfbfbf" points="1315.5,-6 1315.5,-25 1409.5,-25 1409.5,-6 1315.5,-6"/>
<text text-anchor="middle" x="1362.5" y="-13" font-family="Helvetica,sans-Serif" font-size="10.00">G4Threading.hh</text>
</a>
</g>
</g>
<!-- Node10&#45;&gt;Node17 -->
<g id="edge16" class="edge">
<title>Node10&#45;&gt;Node17</title>
<path fill="none" stroke="midnightblue" d="M736.04,-72.96C749.73,-70.77 764.67,-68.58 778.5,-67 1005.13,-41.03 1064.44,-61.58 1290.5,-31 1298.41,-29.93 1306.75,-28.52 1314.85,-26.99"/>
<polygon fill="midnightblue" stroke="midnightblue" points="1315.77,-30.38 1324.91,-25.02 1314.43,-23.51 1315.77,-30.38"/>
</g>
<!-- Node26&#45;&gt;Node3 -->
<g id="edge26" class="edge">
<title>Node26&#45;&gt;Node3</title>
<path fill="none" stroke="midnightblue" d="M1150.28,-246.44C1097.75,-236.92 1012.89,-221.55 956.65,-211.36"/>
<polygon fill="midnightblue" stroke="midnightblue" points="956.96,-207.86 946.5,-209.52 955.71,-214.74 956.96,-207.86"/>
</g>
<!-- Node26&#45;&gt;Node24 -->
<g id="edge34" class="edge">
<title>Node26&#45;&gt;Node24</title>
<path fill="none" stroke="midnightblue" d="M1189.74,-246.08C1182.96,-238.3 1172.96,-226.8 1164.74,-217.37"/>
<polygon fill="midnightblue" stroke="midnightblue" points="1167.32,-215 1158.12,-209.75 1162.04,-219.59 1167.32,-215"/>
</g>
<!-- Node26&#45;&gt;Node26 -->
<g id="edge27" class="edge">
<title>Node26&#45;&gt;Node26</title>
<path fill="none" stroke="midnightblue" d="M1236.95,-265.53C1263.76,-268.31 1290,-265.13 1290,-256 1290,-248.01 1269.91,-244.58 1246.93,-245.71"/>
<polygon fill="midnightblue" stroke="midnightblue" points="1246.65,-242.22 1236.95,-246.47 1247.19,-249.2 1246.65,-242.22"/>
</g>
<!-- Node27 -->
<g id="node27" class="node">
<title>Node27</title>
<g id="a_node27"><a xlink:href="_o_m_sim_p_m_t_response_8hh.html" target="_top" xlink:title="Simulation of PMT response.">
<polygon fill="none" stroke="black" points="1184,-134.5 1184,-153.5 1319,-153.5 1319,-134.5 1184,-134.5"/>
<text text-anchor="middle" x="1251.5" y="-141.5" font-family="Helvetica,sans-Serif" font-size="10.00">OMSimPMTResponse.hh</text>
</a>
</g>
</g>
<!-- Node26&#45;&gt;Node27 -->
<g id="edge28" class="edge">
<title>Node26&#45;&gt;Node27</title>
<path fill="none" stroke="midnightblue" d="M1201.74,-246.37C1210.57,-228.38 1231.1,-186.55 1242.85,-162.63"/>
<polygon fill="midnightblue" stroke="midnightblue" points="1246.02,-164.11 1247.28,-153.59 1239.73,-161.03 1246.02,-164.11"/>
</g>
<!-- Node32 -->
<g id="node32" class="node">
<title>Node32</title>
<g id="a_node32"><a xlink:title=" ">
<polygon fill="none" stroke="#bfbfbf" points="1256,-190.5 1256,-209.5 1323,-209.5 1323,-190.5 1256,-190.5"/>
<text text-anchor="middle" x="1289.5" y="-197.5" font-family="Helvetica,sans-Serif" font-size="10.00">G4Tubs.hh</text>
</a>
</g>
</g>
<!-- Node26&#45;&gt;Node32 -->
<g id="edge35" class="edge">
<title>Node26&#45;&gt;Node32</title>
<path fill="none" stroke="midnightblue" d="M1212.28,-246.32C1226.77,-237.82 1249.07,-224.73 1265.99,-214.8"/>
<polygon fill="midnightblue" stroke="midnightblue" points="1267.9,-217.74 1274.76,-209.65 1264.36,-211.7 1267.9,-217.74"/>
</g>
<!-- Node27&#45;&gt;Node18 -->
<g id="edge29" class="edge">
<title>Node27&#45;&gt;Node18</title>
<path fill="none" stroke="midnightblue" d="M1212.39,-134.48C1163.63,-123.85 1080.29,-105.68 1027.38,-94.15"/>
<polygon fill="midnightblue" stroke="midnightblue" points="1028.06,-90.72 1017.54,-92.01 1026.57,-97.56 1028.06,-90.72"/>
</g>
<!-- Node28 -->
<g id="node28" class="node">
<title>Node28</title>
<g id="a_node28"><a xlink:title=" ">
<polygon fill="none" stroke="#bfbfbf" points="1056,-73 1056,-92 1129,-92 1129,-73 1056,-73"/>
<text text-anchor="middle" x="1092.5" y="-80" font-family="Helvetica,sans-Serif" font-size="10.00">G4Types.hh</text>
</a>
</g>
</g>
<!-- Node27&#45;&gt;Node28 -->
<g id="edge30" class="edge">
<title>Node27&#45;&gt;Node28</title>
<path fill="none" stroke="midnightblue" d="M1228.72,-134.48C1201.45,-124.27 1155.59,-107.11 1124.7,-95.55"/>
<polygon fill="midnightblue" stroke="midnightblue" points="1125.83,-92.24 1115.24,-92.01 1123.38,-98.79 1125.83,-92.24"/>
</g>
<!-- Node29 -->
<g id="node29" class="node">
<title>Node29</title>
<g id="a_node29"><a xlink:title=" ">
<polygon fill="none" stroke="#bfbfbf" points="1147.5,-73 1147.5,-92 1185.5,-92 1185.5,-73 1147.5,-73"/>
<text text-anchor="middle" x="1166.5" y="-80" font-family="Helvetica,sans-Serif" font-size="10.00">map</text>
</a>
</g>
</g>
<!-- Node27&#45;&gt;Node29 -->
<g id="edge31" class="edge">
<title>Node27&#45;&gt;Node29</title>
<path fill="none" stroke="midnightblue" d="M1239.32,-134.48C1225.69,-124.93 1203.37,-109.31 1187.03,-97.87"/>
<polygon fill="midnightblue" stroke="midnightblue" points="1188.86,-94.88 1178.66,-92.01 1184.84,-100.61 1188.86,-94.88"/>
</g>
<!-- Node30 -->
<g id="node30" class="node">
<title>Node30</title>
<g id="a_node30"><a xlink:title=" ">
<polygon fill="none" stroke="#bfbfbf" points="1204,-73 1204,-92 1265,-92 1265,-73 1204,-73"/>
<text text-anchor="middle" x="1234.5" y="-80" font-family="Helvetica,sans-Serif" font-size="10.00">TGraph.h</text>
</a>
</g>
</g>
<!-- Node27&#45;&gt;Node30 -->
<g id="edge32" class="edge">
<title>Node27&#45;&gt;Node30</title>
<path fill="none" stroke="midnightblue" d="M1249.06,-134.48C1246.64,-125.99 1242.84,-112.7 1239.73,-101.82"/>
<polygon fill="midnightblue" stroke="midnightblue" points="1243.04,-100.66 1236.93,-92.01 1236.31,-102.59 1243.04,-100.66"/>
</g>
<!-- Node31 -->
<g id="node31" class="node">
<title>Node31</title>
<g id="a_node31"><a xlink:title=" ">
<polygon fill="none" stroke="#bfbfbf" points="1283,-73 1283,-92 1336,-92 1336,-73 1283,-73"/>
<text text-anchor="middle" x="1309.5" y="-80" font-family="Helvetica,sans-Serif" font-size="10.00">TH2D.h</text>
</a>
</g>
</g>
<!-- Node27&#45;&gt;Node31 -->
<g id="edge33" class="edge">
<title>Node27&#45;&gt;Node31</title>
<path fill="none" stroke="midnightblue" d="M1259.81,-134.48C1268.68,-125.37 1282.95,-110.74 1293.92,-99.48"/>
<polygon fill="midnightblue" stroke="midnightblue" points="1296.73,-101.61 1301.21,-92.01 1291.72,-96.73 1296.73,-101.61"/>
</g>
<!-- Node33&#45;&gt;Node3 -->
<g id="edge37" class="edge">
<title>Node33&#45;&gt;Node3</title>
<path fill="none" stroke="midnightblue" d="M1128.85,-309.17C1079.37,-305.27 1012.44,-294.54 960.5,-266 939.61,-254.52 921.77,-233.32 910.88,-218.26"/>
<polygon fill="midnightblue" stroke="midnightblue" points="913.6,-216.04 905.03,-209.81 907.85,-220.03 913.6,-216.04"/>
</g>
<!-- Node33&#45;&gt;Node26 -->
<g id="edge44" class="edge">
<title>Node33&#45;&gt;Node26</title>
<path fill="none" stroke="midnightblue" d="M1197.5,-302.08C1197.5,-295.01 1197.5,-284.86 1197.5,-275.99"/>
<polygon fill="midnightblue" stroke="midnightblue" points="1201,-275.75 1197.5,-265.75 1194,-275.75 1201,-275.75"/>
</g>
<!-- Node34 -->
<g id="node34" class="node">
<title>Node34</title>
<g id="a_node34"><a xlink:href="_o_m_sim_hit_manager_8hh.html" target="_top" xlink:title="Defines structures and classes related to optical module photon hit management.">
<polygon fill="none" stroke="black" points="1341,-190.5 1341,-209.5 1464,-209.5 1464,-190.5 1341,-190.5"/>
<text text-anchor="middle" x="1402.5" y="-197.5" font-family="Helvetica,sans-Serif" font-size="10.00">OMSimHitManager.hh</text>
</a>
</g>
</g>
<!-- Node33&#45;&gt;Node34 -->
<g id="edge38" class="edge">
<title>Node33&#45;&gt;Node34</title>
<path fill="none" stroke="midnightblue" d="M1219.43,-302.42C1240.39,-293.97 1272.68,-280.28 1299.5,-266 1328.96,-250.32 1361.24,-229.27 1381.67,-215.43"/>
<polygon fill="midnightblue" stroke="midnightblue" points="1383.89,-218.15 1390.17,-209.62 1379.94,-212.37 1383.89,-218.15"/>
</g>
<!-- Node34&#45;&gt;Node16 -->
<g id="edge42" class="edge">
<title>Node34&#45;&gt;Node16</title>
<path fill="none" stroke="midnightblue" d="M1399.66,-190.32C1390.94,-164.04 1363.96,-85.95 1345.5,-67 1327.5,-48.52 1301.45,-36.11 1279.32,-28.22"/>
<polygon fill="midnightblue" stroke="midnightblue" points="1280.39,-24.88 1269.8,-25 1278.16,-31.52 1280.39,-24.88"/>
</g>
<!-- Node34&#45;&gt;Node17 -->
<g id="edge43" class="edge">
<title>Node34&#45;&gt;Node17</title>
<path fill="none" stroke="midnightblue" d="M1401.3,-190.27C1398.31,-169 1389.89,-112.89 1378.5,-67 1375.83,-56.23 1372.12,-44.4 1368.95,-34.9"/>
<polygon fill="midnightblue" stroke="midnightblue" points="1372.23,-33.67 1365.68,-25.34 1365.6,-35.94 1372.23,-33.67"/>
</g>
<!-- Node34&#45;&gt;Node27 -->
<g id="edge39" class="edge">
<title>Node34&#45;&gt;Node27</title>
<path fill="none" stroke="midnightblue" d="M1378.57,-190.44C1353.28,-181.4 1313.2,-167.06 1284.82,-156.92"/>
<polygon fill="midnightblue" stroke="midnightblue" points="1285.91,-153.59 1275.31,-153.52 1283.55,-160.18 1285.91,-153.59"/>
</g>
<!-- Node35 -->
<g id="node35" class="node">
<title>Node35</title>
<g id="a_node35"><a xlink:title=" ">
<polygon fill="none" stroke="#bfbfbf" points="1431,-134.5 1431,-153.5 1534,-153.5 1534,-134.5 1431,-134.5"/>
<text text-anchor="middle" x="1482.5" y="-141.5" font-family="Helvetica,sans-Serif" font-size="10.00">G4ThreeVector.hh</text>
</a>
</g>
</g>
<!-- Node34&#45;&gt;Node35 -->
<g id="edge40" class="edge">
<title>Node34&#45;&gt;Node35</title>
<path fill="none" stroke="midnightblue" d="M1415.35,-190.32C1427.72,-181.98 1446.63,-169.21 1461.24,-159.35"/>
<polygon fill="midnightblue" stroke="midnightblue" points="1463.35,-162.15 1469.68,-153.65 1459.43,-156.35 1463.35,-162.15"/>
</g>
<!-- Node36 -->
<g id="node36" class="node">
<title>Node36</title>
<g id="a_node36"><a xlink:title=" ">
<polygon fill="none" stroke="#bfbfbf" points="1552,-134.5 1552,-153.5 1607,-153.5 1607,-134.5 1552,-134.5"/>
<text text-anchor="middle" x="1579.5" y="-141.5" font-family="Helvetica,sans-Serif" font-size="10.00">fstream</text>
</a>
</g>
</g>
<!-- Node34&#45;&gt;Node36 -->
<g id="edge41" class="edge">
<title>Node34&#45;&gt;Node36</title>
<path fill="none" stroke="midnightblue" d="M1430.55,-190.44C1460.67,-181.25 1508.69,-166.6 1542.04,-156.43"/>
<polygon fill="midnightblue" stroke="midnightblue" points="1543.33,-159.69 1551.88,-153.43 1541.29,-153 1543.33,-159.69"/>
</g>
</g>
</svg>
