<?xml version="1.0" encoding="UTF-8" standalone="no"?>
<!DOCTYPE svg PUBLIC "-//W3C//DTD SVG 1.1//EN"
 "http://www.w3.org/Graphics/SVG/1.1/DTD/svg11.dtd">
<!-- Generated by graphviz version 2.43.0 (0)
 -->
<!-- Title: OMSimDetectorComponent.hh Pages: 1 -->
<svg width="1090pt" height="302pt"
 viewBox="0.00 0.00 1090.00 302.00" xmlns="http://www.w3.org/2000/svg" xmlns:xlink="http://www.w3.org/1999/xlink">
<g id="graph0" class="graph" transform="scale(1 1) rotate(0) translate(4 298)">
<title>OMSimDetectorComponent.hh</title>
<!-- Node1 -->
<g id="Node000001" class="node">
<title>Node1</title>
<g id="a_Node000001"><a xlink:title="Provides helper base class OMSimDetectorComponent for constructing and managing detector components i...">
<polygon fill="#999999" stroke="#666666" points="493.5,-294 328.5,-294 328.5,-275 493.5,-275 493.5,-294"/>
<text text-anchor="middle" x="411" y="-282" font-family="Helvetica,sans-Serif" font-size="10.00">OMSimDetectorComponent.hh</text>
</a>
</g>
</g>
<!-- Node2 -->
<g id="Node000002" class="node">
<title>Node2</title>
<g id="a_Node000002"><a xlink:href="_o_m_sim_d_e_g_g_harness_8hh.html" target="_top" xlink:title="Construction of the DEGG harness.">
<polygon fill="white" stroke="#666666" points="220.5,-239 85.5,-239 85.5,-220 220.5,-220 220.5,-239"/>
<text text-anchor="middle" x="153" y="-227" font-family="Helvetica,sans-Serif" font-size="10.00">OMSimDEGGHarness.hh</text>
</a>
</g>
</g>
<!-- Node1&#45;&gt;Node2 -->
<g id="edge1_Node000001_Node000002" class="edge">
<title>Node1&#45;&gt;Node2</title>
<g id="a_edge1_Node000001_Node000002"><a xlink:title=" ">
<path fill="none" stroke="#63b8ff" d="M359.6,-272.94C311.24,-263.01 239.72,-248.31 194.78,-239.08"/>
<polygon fill="#63b8ff" stroke="#63b8ff" points="359.05,-276.4 369.55,-274.98 360.46,-269.54 359.05,-276.4"/>
</a>
</g>
</g>
<!-- Node3 -->
<g id="Node000003" class="node">
<title>Node3</title>
<g id="a_Node000003"><a xlink:href="_o_m_sim_m_d_o_m_flasher_8hh.html" target="_top" xlink:title="Defines the mDOMFlasher class for simulating the 10 flashers in an mDOM optical module.">
<polygon fill="white" stroke="#666666" points="144.5,-184 9.5,-184 9.5,-165 144.5,-165 144.5,-184"/>
<text text-anchor="middle" x="77" y="-172" font-family="Helvetica,sans-Serif" font-size="10.00">OMSimMDOMFlasher.hh</text>
</a>
</g>
</g>
<!-- Node1&#45;&gt;Node3 -->
<g id="edge2_Node000001_Node000003" class="edge">
<title>Node1&#45;&gt;Node3</title>
<g id="a_edge2_Node000001_Node000003"><a xlink:title=" ">
<path fill="none" stroke="#63b8ff" d="M368.06,-272.22C339.09,-264.13 300.24,-252.34 267,-239 249.48,-231.97 246.58,-226.9 229,-220 190.1,-204.72 143.81,-191.9 112.61,-184"/>
<polygon fill="#63b8ff" stroke="#63b8ff" points="367.3,-275.64 377.87,-274.93 369.16,-268.9 367.3,-275.64"/>
</a>
</g>
</g>
<!-- Node5 -->
<g id="Node000005" class="node">
<title>Node5</title>
<g id="a_Node000005"><a xlink:href="_o_m_sim_m_d_o_m_harness_8hh.html" target="_top" xlink:title="Construction of mDOM harness.">
<polygon fill="white" stroke="#666666" points="1028,-239 888,-239 888,-220 1028,-220 1028,-239"/>
<text text-anchor="middle" x="958" y="-227" font-family="Helvetica,sans-Serif" font-size="10.00">OMSimMDOMHarness.hh</text>
</a>
</g>
</g>
<!-- Node1&#45;&gt;Node5 -->
<g id="edge4_Node000001_Node000005" class="edge">
<title>Node1&#45;&gt;Node5</title>
<g id="a_edge4_Node000001_Node000005"><a xlink:title=" ">
<path fill="none" stroke="#63b8ff" d="M503.81,-274.72C597.3,-265.84 745.68,-251.66 874,-239 878.52,-238.55 883.18,-238.09 887.88,-237.62"/>
<polygon fill="#63b8ff" stroke="#63b8ff" points="503.44,-271.24 493.81,-275.67 504.1,-278.21 503.44,-271.24"/>
</a>
</g>
</g>
<!-- Node6 -->
<g id="Node000006" class="node">
<title>Node6</title>
<g id="a_Node000006"><a xlink:href="_o_m_sim_optical_module_8hh_source.html" target="_top" xlink:title=" ">
<polygon fill="white" stroke="#666666" points="533.5,-184 396.5,-184 396.5,-165 533.5,-165 533.5,-184"/>
<text text-anchor="middle" x="465" y="-172" font-family="Helvetica,sans-Serif" font-size="10.00">OMSimOpticalModule.hh</text>
</a>
</g>
</g>
<!-- Node1&#45;&gt;Node6 -->
<g id="edge5_Node000001_Node000006" class="edge">
<title>Node1&#45;&gt;Node6</title>
<g id="a_edge5_Node000001_Node000006"><a xlink:title=" ">
<path fill="none" stroke="#63b8ff" d="M429.24,-268C437.4,-260.12 446.41,-249.91 452,-239 461.23,-220.97 463.91,-196.9 464.68,-184.2"/>
<polygon fill="#63b8ff" stroke="#63b8ff" points="426.84,-265.46 421.83,-274.79 431.57,-270.62 426.84,-265.46"/>
</a>
</g>
</g>
<!-- Node17 -->
<g id="Node000017" class="node">
<title>Node17</title>
<g id="a_Node000017"><a xlink:href="_o_m_sim_rad_decays_detector_8hh.html" target="_top" xlink:title="Defines the OMSimRadDecaysDetector class for the radioactive decays simulation.">
<polygon fill="white" stroke="#666666" points="941.5,-74 778.5,-74 778.5,-55 941.5,-55 941.5,-74"/>
<text text-anchor="middle" x="860" y="-62" font-family="Helvetica,sans-Serif" font-size="10.00">OMSimRadDecaysDetector.hh</text>
</a>
</g>
</g>
<!-- Node1&#45;&gt;Node17 -->
<g id="edge36_Node000001_Node000017" class="edge">
<title>Node1&#45;&gt;Node17</title>
<g id="a_edge36_Node000001_Node000017"><a xlink:title=" ">
<path fill="none" stroke="#63b8ff" d="M503.98,-274.43C601.21,-260.05 751.83,-223.14 841,-129 855.56,-113.63 859.01,-87.55 859.79,-74.1"/>
<polygon fill="#63b8ff" stroke="#63b8ff" points="503.27,-271 493.86,-275.88 504.26,-277.93 503.27,-271"/>
</a>
</g>
</g>
<!-- Node23 -->
<g id="Node000023" class="node">
<title>Node23</title>
<g id="a_Node000023"><a xlink:href="_o_m_sim_p_m_t_construction_8hh.html" target="_top" xlink:title="Construction of the PMTs.">
<polygon fill="white" stroke="#666666" points="425.5,-239 276.5,-239 276.5,-220 425.5,-220 425.5,-239"/>
<text text-anchor="middle" x="351" y="-227" font-family="Helvetica,sans-Serif" font-size="10.00">OMSimPMTConstruction.hh</text>
</a>
</g>
</g>
<!-- Node1&#45;&gt;Node23 -->
<g id="edge28_Node000001_Node000023" class="edge">
<title>Node1&#45;&gt;Node23</title>
<g id="a_edge28_Node000001_Node000023"><a xlink:title=" ">
<path fill="none" stroke="#63b8ff" d="M393.82,-268.32C383.12,-258.87 369.74,-247.06 360.82,-239.17"/>
<polygon fill="#63b8ff" stroke="#63b8ff" points="391.55,-270.99 401.36,-274.98 396.18,-265.74 391.55,-270.99"/>
</a>
</g>
</g>
<!-- Node4 -->
<g id="Node000004" class="node">
<title>Node4</title>
<g id="a_Node000004"><a xlink:href="_o_m_sim_m_d_o_m_8hh.html" target="_top" xlink:title="Construction of mDOM.">
<polygon fill="white" stroke="#666666" points="100,-129 0,-129 0,-110 100,-110 100,-129"/>
<text text-anchor="middle" x="50" y="-117" font-family="Helvetica,sans-Serif" font-size="10.00">OMSimMDOM.hh</text>
</a>
</g>
</g>
<!-- Node3&#45;&gt;Node4 -->
<g id="edge3_Node000003_Node000004" class="edge">
<title>Node3&#45;&gt;Node4</title>
<g id="a_edge3_Node000003_Node000004"><a xlink:title=" ">
<path fill="none" stroke="#63b8ff" d="M67.99,-155.82C63.41,-146.82 58.05,-136.29 54.38,-129.09"/>
<polygon fill="#63b8ff" stroke="#63b8ff" points="64.88,-157.43 72.54,-164.75 71.12,-154.25 64.88,-157.43"/>
</a>
</g>
</g>
<!-- Node6&#45;&gt;Node4 -->
<g id="edge25_Node000006_Node000004" class="edge">
<title>Node6&#45;&gt;Node4</title>
<g id="a_edge25_Node000006_Node000004"><a xlink:title=" ">
<path fill="none" stroke="#63b8ff" d="M386,-164.06C313.82,-155.32 204.17,-141.8 109,-129 106.13,-128.61 103.18,-128.21 100.2,-127.8"/>
<polygon fill="#63b8ff" stroke="#63b8ff" points="386.02,-167.58 396.37,-165.31 386.86,-160.63 386.02,-167.58"/>
</a>
</g>
</g>
<!-- Node7 -->
<g id="Node000007" class="node">
<title>Node7</title>
<g id="a_Node000007"><a xlink:href="_o_m_sim_d_e_g_g_8hh.html" target="_top" xlink:title="Construction of the DEGG class. From DOUMEKI.">
<polygon fill="white" stroke="#666666" points="447.5,-129 352.5,-129 352.5,-110 447.5,-110 447.5,-129"/>
<text text-anchor="middle" x="400" y="-117" font-family="Helvetica,sans-Serif" font-size="10.00">OMSimDEGG.hh</text>
</a>
</g>
</g>
<!-- Node6&#45;&gt;Node7 -->
<g id="edge6_Node000006_Node000007" class="edge">
<title>Node6&#45;&gt;Node7</title>
<g id="a_edge6_Node000006_Node000007"><a xlink:title=" ">
<path fill="none" stroke="#63b8ff" d="M446.73,-158.6C435.08,-149.11 420.4,-137.13 410.63,-129.17"/>
<polygon fill="#63b8ff" stroke="#63b8ff" points="444.59,-161.38 454.56,-164.98 449.02,-155.95 444.59,-161.38"/>
</a>
</g>
</g>
<!-- Node8 -->
<g id="Node000008" class="node">
<title>Node8</title>
<g id="a_Node000008"><a xlink:href="_o_m_sim_decays_g_p_s_8hh.html" target="_top" xlink:title="Defines the OMSimDecaysGPS class for the radioactive decays simulation.">
<polygon fill="white" stroke="#666666" points="1082,-74 960,-74 960,-55 1082,-55 1082,-74"/>
<text text-anchor="middle" x="1021" y="-62" font-family="Helvetica,sans-Serif" font-size="10.00">OMSimDecaysGPS.hh</text>
</a>
</g>
</g>
<!-- Node6&#45;&gt;Node8 -->
<g id="edge7_Node000006_Node000008" class="edge">
<title>Node6&#45;&gt;Node8</title>
<g id="a_edge7_Node000006_Node000008"><a xlink:title=" ">
<path fill="none" stroke="#63b8ff" d="M536.1,-163.28C578.78,-156.05 633.78,-144.82 681,-129 699.66,-122.75 702.17,-115.73 721,-110 743.35,-103.2 878.93,-84.44 959.98,-73.57"/>
<polygon fill="#63b8ff" stroke="#63b8ff" points="535.38,-159.85 526.08,-164.94 536.52,-166.75 535.38,-159.85"/>
</a>
</g>
</g>
<!-- Node10 -->
<g id="Node000010" class="node">
<title>Node10</title>
<g id="a_Node000010"><a xlink:href="_o_m_sim_detector_construction_8hh_source.html" target="_top" xlink:title=" ">
<polygon fill="white" stroke="#666666" points="636,-129 466,-129 466,-110 636,-110 636,-129"/>
<text text-anchor="middle" x="551" y="-117" font-family="Helvetica,sans-Serif" font-size="10.00">OMSimDetectorConstruction.hh</text>
</a>
</g>
</g>
<!-- Node6&#45;&gt;Node10 -->
<g id="edge9_Node000006_Node000010" class="edge">
<title>Node6&#45;&gt;Node10</title>
<g id="a_edge9_Node000006_Node000010"><a xlink:title=" ">
<path fill="none" stroke="#63b8ff" d="M487.4,-159.7C503.07,-150.04 523.51,-137.44 536.93,-129.17"/>
<polygon fill="#63b8ff" stroke="#63b8ff" points="485.49,-156.76 478.82,-164.98 489.17,-162.72 485.49,-156.76"/>
</a>
</g>
</g>
<!-- Node6&#45;&gt;Node17 -->
<g id="edge27_Node000006_Node000017" class="edge">
<title>Node6&#45;&gt;Node17</title>
<g id="a_edge27_Node000006_Node000017"><a xlink:title=" ">
<path fill="none" stroke="#63b8ff" d="M518.38,-162.85C554.57,-155.02 603.23,-143.27 645,-129 664.77,-122.25 668.27,-116.86 688,-110 732.14,-94.65 784.27,-81.89 819.48,-74.02"/>
<polygon fill="#63b8ff" stroke="#63b8ff" points="517.57,-159.45 508.52,-164.96 519.03,-166.29 517.57,-159.45"/>
</a>
</g>
</g>
<!-- Node19 -->
<g id="Node000019" class="node">
<title>Node19</title>
<g id="a_Node000019"><a xlink:href="_o_m_sim_l_o_m16_8hh.html" target="_top" xlink:title="Construction of LOM16.">
<polygon fill="white" stroke="#666666" points="831.5,-129 730.5,-129 730.5,-110 831.5,-110 831.5,-129"/>
<text text-anchor="middle" x="781" y="-117" font-family="Helvetica,sans-Serif" font-size="10.00">OMSimLOM16.hh</text>
</a>
</g>
</g>
<!-- Node6&#45;&gt;Node19 -->
<g id="edge22_Node000006_Node000019" class="edge">
<title>Node6&#45;&gt;Node19</title>
<g id="a_edge22_Node000006_Node000019"><a xlink:title=" ">
<path fill="none" stroke="#63b8ff" d="M525.77,-163.31C585.2,-153.34 674.66,-138.34 730.36,-128.99"/>
<polygon fill="#63b8ff" stroke="#63b8ff" points="525.05,-159.88 515.77,-164.98 526.21,-166.78 525.05,-159.88"/>
</a>
</g>
</g>
<!-- Node20 -->
<g id="Node000020" class="node">
<title>Node20</title>
<g id="a_Node000020"><a xlink:href="_o_m_sim_l_o_m18_8hh.html" target="_top" xlink:title="Construction of LOM18.">
<polygon fill="white" stroke="#666666" points="219.5,-129 118.5,-129 118.5,-110 219.5,-110 219.5,-129"/>
<text text-anchor="middle" x="169" y="-117" font-family="Helvetica,sans-Serif" font-size="10.00">OMSimLOM18.hh</text>
</a>
</g>
</g>
<!-- Node6&#45;&gt;Node20 -->
<g id="edge23_Node000006_Node000020" class="edge">
<title>Node6&#45;&gt;Node20</title>
<g id="a_edge23_Node000006_Node000020"><a xlink:title=" ">
<path fill="none" stroke="#63b8ff" d="M407.41,-163.19C351.92,-153.25 268.93,-138.39 216.93,-129.08"/>
<polygon fill="#63b8ff" stroke="#63b8ff" points="406.98,-166.67 417.44,-164.98 408.22,-159.78 406.98,-166.67"/>
</a>
</g>
</g>
<!-- Node22 -->
<g id="Node000022" class="node">
<title>Node22</title>
<g id="a_Node000022"><a xlink:href="_o_m_sim_p_d_o_m_8hh.html" target="_top" xlink:title="Implementation of the pDOM/Gen1 DOM class.">
<polygon fill="white" stroke="#666666" points="334.5,-129 237.5,-129 237.5,-110 334.5,-110 334.5,-129"/>
<text text-anchor="middle" x="286" y="-117" font-family="Helvetica,sans-Serif" font-size="10.00">OMSimPDOM.hh</text>
</a>
</g>
</g>
<!-- Node6&#45;&gt;Node22 -->
<g id="edge26_Node000006_Node000022" class="edge">
<title>Node6&#45;&gt;Node22</title>
<g id="a_edge26_Node000006_Node000022"><a xlink:title=" ">
<path fill="none" stroke="#63b8ff" d="M426.35,-162.06C392.89,-152.15 345.25,-138.04 314.98,-129.08"/>
<polygon fill="#63b8ff" stroke="#63b8ff" points="425.66,-165.5 436.24,-164.98 427.65,-158.79 425.66,-165.5"/>
</a>
</g>
</g>
<!-- Node9 -->
<g id="Node000009" class="node">
<title>Node9</title>
<g id="a_Node000009"><a xlink:href="_o_m_sim__radioactive__decays_8cc.html" target="_top" xlink:title="Main of the radioactive decay study.">
<polygon fill="white" stroke="#666666" points="942.5,-19 777.5,-19 777.5,0 942.5,0 942.5,-19"/>
<text text-anchor="middle" x="860" y="-7" font-family="Helvetica,sans-Serif" font-size="10.00">OMSim_radioactive_decays.cc</text>
</a>
</g>
</g>
<!-- Node8&#45;&gt;Node9 -->
<g id="edge8_Node000008_Node000009" class="edge">
<title>Node8&#45;&gt;Node9</title>
<g id="a_edge8_Node000008_Node000009"><a xlink:title=" ">
<path fill="none" stroke="#63b8ff" d="M985.45,-51.8C955.41,-41.91 913.06,-27.97 886.07,-19.08"/>
<polygon fill="#63b8ff" stroke="#63b8ff" points="984.54,-55.18 995.13,-54.98 986.73,-48.53 984.54,-55.18"/>
</a>
</g>
</g>
<!-- Node11 -->
<g id="Node000011" class="node">
<title>Node11</title>
<g id="a_Node000011"><a xlink:href="_o_m_sim_8hh.html" target="_top" xlink:title="Main simulation class for the Optical Module (OM) simulation. This file defines the OMSim class,...">
<polygon fill="white" stroke="#666666" points="569.5,-74 502.5,-74 502.5,-55 569.5,-55 569.5,-74"/>
<text text-anchor="middle" x="536" y="-62" font-family="Helvetica,sans-Serif" font-size="10.00">OMSim.hh</text>
</a>
</g>
</g>
<!-- Node10&#45;&gt;Node11 -->
<g id="edge10_Node000010_Node000011" class="edge">
<title>Node10&#45;&gt;Node11</title>
<g id="a_edge10_Node000010_Node000011"><a xlink:title=" ">
<path fill="none" stroke="#63b8ff" d="M545.75,-99.95C543.26,-91.15 540.4,-81.06 538.43,-74.09"/>
<polygon fill="#63b8ff" stroke="#63b8ff" points="542.43,-101.08 548.52,-109.75 549.17,-99.17 542.43,-101.08"/>
</a>
</g>
</g>
<!-- Node15 -->
<g id="Node000015" class="node">
<title>Node15</title>
<g id="a_Node000015"><a xlink:href="_o_m_sim_effective_area_detector_8hh.html" target="_top" xlink:title="Defines the OMSimEffectiveAreaDetector class for effective area simulation detector construction.">
<polygon fill="white" stroke="#666666" points="760.5,-74 587.5,-74 587.5,-55 760.5,-55 760.5,-74"/>
<text text-anchor="middle" x="674" y="-62" font-family="Helvetica,sans-Serif" font-size="10.00">OMSimEffectiveAreaDetector.hh</text>
</a>
</g>
</g>
<!-- Node10&#45;&gt;Node15 -->
<g id="edge15_Node000010_Node000015" class="edge">
<title>Node10&#45;&gt;Node15</title>
<g id="a_edge15_Node000010_Node000015"><a xlink:title=" ">
<path fill="none" stroke="#63b8ff" d="M580.25,-105.9C602.97,-96.11 633.87,-82.79 653.88,-74.17"/>
<polygon fill="#63b8ff" stroke="#63b8ff" points="578.56,-102.81 570.76,-109.98 581.33,-109.24 578.56,-102.81"/>
</a>
</g>
</g>
<!-- Node16 -->
<g id="Node000016" class="node">
<title>Node16</title>
<g id="a_Node000016"><a xlink:href="_o_m_sim_effi_cali_detector_8hh_source.html" target="_top" xlink:title=" ">
<polygon fill="white" stroke="#666666" points="484.5,-74 341.5,-74 341.5,-55 484.5,-55 484.5,-74"/>
<text text-anchor="middle" x="413" y="-62" font-family="Helvetica,sans-Serif" font-size="10.00">OMSimEffiCaliDetector.hh</text>
</a>
</g>
</g>
<!-- Node10&#45;&gt;Node16 -->
<g id="edge17_Node000010_Node000016" class="edge">
<title>Node10&#45;&gt;Node16</title>
<g id="a_edge17_Node000010_Node000016"><a xlink:title=" ">
<path fill="none" stroke="#63b8ff" d="M519.21,-106.29C493.63,-96.47 458.33,-82.91 435.58,-74.17"/>
<polygon fill="#63b8ff" stroke="#63b8ff" points="518.24,-109.67 528.83,-109.98 520.75,-103.13 518.24,-109.67"/>
</a>
</g>
</g>
<!-- Node10&#45;&gt;Node17 -->
<g id="edge18_Node000010_Node000017" class="edge">
<title>Node10&#45;&gt;Node17</title>
<g id="a_edge18_Node000010_Node000017"><a xlink:title=" ">
<path fill="none" stroke="#63b8ff" d="M610.77,-108.25C668.8,-98.3 755.85,-83.36 810.22,-74.04"/>
<polygon fill="#63b8ff" stroke="#63b8ff" points="609.91,-104.84 600.65,-109.98 611.09,-111.74 609.91,-104.84"/>
</a>
</g>
</g>
<!-- Node18 -->
<g id="Node000018" class="node">
<title>Node18</title>
<g id="a_Node000018"><a xlink:href="_o_m_sim_s_ndetector_8hh_source.html" target="_top" xlink:title=" ">
<polygon fill="white" stroke="#666666" points="323,-74 203,-74 203,-55 323,-55 323,-74"/>
<text text-anchor="middle" x="263" y="-62" font-family="Helvetica,sans-Serif" font-size="10.00">OMSimSNdetector.hh</text>
</a>
</g>
</g>
<!-- Node10&#45;&gt;Node18 -->
<g id="edge20_Node000010_Node000018" class="edge">
<title>Node10&#45;&gt;Node18</title>
<g id="a_edge20_Node000010_Node000018"><a xlink:title=" ">
<path fill="none" stroke="#63b8ff" d="M494.63,-108.13C440.64,-98.19 360.12,-83.37 309.63,-74.08"/>
<polygon fill="#63b8ff" stroke="#63b8ff" points="494.26,-111.62 504.73,-109.98 495.53,-104.73 494.26,-111.62"/>
</a>
</g>
</g>
<!-- Node11&#45;&gt;Node9 -->
<g id="edge14_Node000011_Node000009" class="edge">
<title>Node11&#45;&gt;Node9</title>
<g id="a_edge14_Node000011_Node000009"><a xlink:title=" ">
<path fill="none" stroke="#63b8ff" d="M579.89,-54.72C661.87,-40.09 746.38,-27.14 801.28,-19.01"/>
<polygon fill="#63b8ff" stroke="#63b8ff" points="579.13,-51.3 569.9,-56.51 580.36,-58.19 579.13,-51.3"/>
</a>
</g>
</g>
<!-- Node12 -->
<g id="Node000012" class="node">
<title>Node12</title>
<g id="a_Node000012"><a xlink:href="_o_m_sim_8cc.html" target="_top" xlink:title="Implementation of the OMSim class.">
<polygon fill="white" stroke="#666666" points="568.5,-19 503.5,-19 503.5,0 568.5,0 568.5,-19"/>
<text text-anchor="middle" x="536" y="-7" font-family="Helvetica,sans-Serif" font-size="10.00">OMSim.cc</text>
</a>
</g>
</g>
<!-- Node11&#45;&gt;Node12 -->
<g id="edge11_Node000011_Node000012" class="edge">
<title>Node11&#45;&gt;Node12</title>
<g id="a_edge11_Node000011_Node000012"><a xlink:title=" ">
<path fill="none" stroke="#63b8ff" d="M536,-44.66C536,-35.93 536,-25.99 536,-19.09"/>
<polygon fill="#63b8ff" stroke="#63b8ff" points="532.5,-44.75 536,-54.75 539.5,-44.75 532.5,-44.75"/>
</a>
</g>
</g>
<!-- Node13 -->
<g id="Node000013" class="node">
<title>Node13</title>
<g id="a_Node000013"><a xlink:href="_o_m_sim_supernova_8cc.html" target="_top" xlink:title="Main of the supernova study.">
<polygon fill="white" stroke="#666666" points="403.5,-19 286.5,-19 286.5,0 403.5,0 403.5,-19"/>
<text text-anchor="middle" x="345" y="-7" font-family="Helvetica,sans-Serif" font-size="10.00">OMSimSupernova.cc</text>
</a>
</g>
</g>
<!-- Node11&#45;&gt;Node13 -->
<g id="edge12_Node000011_Node000013" class="edge">
<title>Node11&#45;&gt;Node13</title>
<g id="a_edge12_Node000011_Node000013"><a xlink:title=" ">
<path fill="none" stroke="#63b8ff" d="M495.22,-52.18C459.5,-42.27 408.37,-28.08 375.93,-19.08"/>
<polygon fill="#63b8ff" stroke="#63b8ff" points="494.74,-55.68 505.31,-54.98 496.61,-48.94 494.74,-55.68"/>
</a>
</g>
</g>
<!-- Node14 -->
<g id="Node000014" class="node">
<title>Node14</title>
<g id="a_Node000014"><a xlink:href="_o_m_sim__effective__area_8cc.html" target="_top" xlink:title="Main for the calculation of effective areas.">
<polygon fill="white" stroke="#666666" points="736,-19 596,-19 596,0 736,0 736,-19"/>
<text text-anchor="middle" x="666" y="-7" font-family="Helvetica,sans-Serif" font-size="10.00">OMSim_effective_area.cc</text>
</a>
</g>
</g>
<!-- Node11&#45;&gt;Node14 -->
<g id="edge13_Node000011_Node000014" class="edge">
<title>Node11&#45;&gt;Node14</title>
<g id="a_edge13_Node000011_Node000014"><a xlink:title=" ">
<path fill="none" stroke="#63b8ff" d="M566.27,-51.16C590.34,-41.35 623.4,-27.87 644.73,-19.17"/>
<polygon fill="#63b8ff" stroke="#63b8ff" points="564.83,-47.97 556.89,-54.98 567.47,-54.45 564.83,-47.97"/>
</a>
</g>
</g>
<!-- Node15&#45;&gt;Node14 -->
<g id="edge16_Node000015_Node000014" class="edge">
<title>Node15&#45;&gt;Node14</title>
<g id="a_edge16_Node000015_Node000014"><a xlink:title=" ">
<path fill="none" stroke="#63b8ff" d="M671.16,-44.66C669.84,-35.93 668.34,-25.99 667.3,-19.09"/>
<polygon fill="#63b8ff" stroke="#63b8ff" points="667.73,-45.38 672.68,-54.75 674.65,-44.34 667.73,-45.38"/>
</a>
</g>
</g>
<!-- Node17&#45;&gt;Node9 -->
<g id="edge19_Node000017_Node000009" class="edge">
<title>Node17&#45;&gt;Node9</title>
<g id="a_edge19_Node000017_Node000009"><a xlink:title=" ">
<path fill="none" stroke="#63b8ff" d="M860,-44.66C860,-35.93 860,-25.99 860,-19.09"/>
<polygon fill="#63b8ff" stroke="#63b8ff" points="856.5,-44.75 860,-54.75 863.5,-44.75 856.5,-44.75"/>
</a>
</g>
</g>
<!-- Node18&#45;&gt;Node13 -->
<g id="edge21_Node000018_Node000013" class="edge">
<title>Node18&#45;&gt;Node13</title>
<g id="a_edge21_Node000018_Node000013"><a xlink:title=" ">
<path fill="none" stroke="#63b8ff" d="M284.78,-49.42C299.66,-39.81 318.91,-27.37 331.59,-19.17"/>
<polygon fill="#63b8ff" stroke="#63b8ff" points="282.67,-46.62 276.17,-54.98 286.47,-52.5 282.67,-46.62"/>
</a>
</g>
</g>
<!-- Node21 -->
<g id="Node000021" class="node">
<title>Node21</title>
<g id="a_Node000021"><a xlink:href="_o_m_sim_l_o_m18_8cc.html" target="_top" xlink:title=" ">
<polygon fill="white" stroke="#666666" points="184.5,-74 85.5,-74 85.5,-55 184.5,-55 184.5,-74"/>
<text text-anchor="middle" x="135" y="-62" font-family="Helvetica,sans-Serif" font-size="10.00">OMSimLOM18.cc</text>
</a>
</g>
</g>
<!-- Node20&#45;&gt;Node21 -->
<g id="edge24_Node000020_Node000021" class="edge">
<title>Node20&#45;&gt;Node21</title>
<g id="a_edge24_Node000020_Node000021"><a xlink:title=" ">
<path fill="none" stroke="#63b8ff" d="M157.84,-101.1C152.03,-92.04 145.18,-81.37 140.51,-74.09"/>
<polygon fill="#63b8ff" stroke="#63b8ff" points="155.04,-103.22 163.39,-109.75 160.93,-99.44 155.04,-103.22"/>
</a>
</g>
</g>
<!-- Node23&#45;&gt;Node4 -->
<g id="edge32_Node000023_Node000004" class="edge">
<title>Node23&#45;&gt;Node4</title>
<g id="a_edge32_Node000023_Node000004"><a xlink:title=" ">
<path fill="none" stroke="#63b8ff" d="M317.54,-216.5C256.22,-194.49 127.22,-148.21 73.87,-129.07"/>
<polygon fill="#63b8ff" stroke="#63b8ff" points="316.53,-219.85 327.13,-219.94 318.9,-213.26 316.53,-219.85"/>
</a>
</g>
</g>
<!-- Node23&#45;&gt;Node6 -->
<g id="edge33_Node000023_Node000006" class="edge">
<title>Node23&#45;&gt;Node6</title>
<g id="a_edge33_Node000023_Node000006"><a xlink:title=" ">
<path fill="none" stroke="#63b8ff" d="M378.39,-215.77C399.42,-205.99 427.89,-192.75 446.35,-184.17"/>
<polygon fill="#63b8ff" stroke="#63b8ff" points="376.91,-212.6 369.32,-219.98 379.86,-218.94 376.91,-212.6"/>
</a>
</g>
</g>
<!-- Node23&#45;&gt;Node7 -->
<g id="edge29_Node000023_Node000007" class="edge">
<title>Node23&#45;&gt;Node7</title>
<g id="a_edge29_Node000023_Node000007"><a xlink:title=" ">
<path fill="none" stroke="#63b8ff" d="M359.19,-210.44C369.86,-186.92 388.1,-146.73 396.07,-129.16"/>
<polygon fill="#63b8ff" stroke="#63b8ff" points="355.95,-209.11 355.01,-219.66 362.33,-212 355.95,-209.11"/>
</a>
</g>
</g>
<!-- Node23&#45;&gt;Node19 -->
<g id="edge30_Node000023_Node000019" class="edge">
<title>Node23&#45;&gt;Node19</title>
<g id="a_edge30_Node000023_Node000019"><a xlink:title=" ">
<path fill="none" stroke="#63b8ff" d="M399.08,-217.73C437.76,-208.96 493.48,-196.1 542,-184 616.98,-165.31 704.68,-141.51 750.14,-129.02"/>
<polygon fill="#63b8ff" stroke="#63b8ff" points="398.12,-214.36 389.13,-219.98 399.66,-221.19 398.12,-214.36"/>
</a>
</g>
</g>
<!-- Node23&#45;&gt;Node20 -->
<g id="edge31_Node000023_Node000020" class="edge">
<title>Node23&#45;&gt;Node20</title>
<g id="a_edge31_Node000023_Node000020"><a xlink:title=" ">
<path fill="none" stroke="#63b8ff" d="M327.53,-214.57C289.3,-191.89 214.73,-147.64 183.4,-129.05"/>
<polygon fill="#63b8ff" stroke="#63b8ff" points="326.03,-217.75 336.41,-219.84 329.6,-211.73 326.03,-217.75"/>
</a>
</g>
</g>
<!-- Node23&#45;&gt;Node22 -->
<g id="edge34_Node000023_Node000022" class="edge">
<title>Node23&#45;&gt;Node22</title>
<g id="a_edge34_Node000023_Node000022"><a xlink:title=" ">
<path fill="none" stroke="#63b8ff" d="M340.51,-211.07C326.41,-187.64 301.88,-146.89 291.21,-129.16"/>
<polygon fill="#63b8ff" stroke="#63b8ff" points="337.53,-212.9 345.68,-219.66 343.52,-209.29 337.53,-212.9"/>
</a>
</g>
</g>
<!-- Node23&#45;&gt;Node23 -->
<g id="edge35_Node000023_Node000023" class="edge">
<title>Node23&#45;&gt;Node23</title>
<g id="a_edge35_Node000023_Node000023"><a xlink:title=" ">
<path fill="none" stroke="#63b8ff" d="M404.29,-239.56C425.61,-240.13 443.5,-236.77 443.5,-229.5 443.5,-221.12 419.71,-217.94 394.3,-219.97"/>
<polygon fill="#63b8ff" stroke="#63b8ff" points="404.47,-236.07 394.3,-239.03 404.1,-243.06 404.47,-236.07"/>
</a>
</g>
</g>
</g>
</svg>
