<?xml version="1.0" encoding="UTF-8" standalone="no"?>
<!DOCTYPE svg PUBLIC "-//W3C//DTD SVG 1.1//EN"
 "http://www.w3.org/Graphics/SVG/1.1/DTD/svg11.dtd">
<!-- Generated by graphviz version 2.43.0 (0)
 -->
<!-- Title: OMSimSensitiveDetector.hh Pages: 1 -->
<svg width="2956pt" height="308pt"
 viewBox="0.00 0.00 2956.00 308.00" xmlns="http://www.w3.org/2000/svg" xmlns:xlink="http://www.w3.org/1999/xlink">
<g id="graph0" class="graph" transform="scale(1 1) rotate(0) translate(4 304)">
<title>OMSimSensitiveDetector.hh</title>
<polygon fill="white" stroke="transparent" points="-4,4 -4,-304 2952,-304 2952,4 -4,4"/>
<!-- Node1 -->
<g id="node1" class="node">
<title>Node1</title>
<g id="a_node1"><a xlink:title=" ">
<polygon fill="#bfbfbf" stroke="black" points="1597.5,-280.5 1597.5,-299.5 1750.5,-299.5 1750.5,-280.5 1597.5,-280.5"/>
<text text-anchor="middle" x="1674" y="-287.5" font-family="Helvetica,sans-Serif" font-size="10.00">OMSimSensitiveDetector.hh</text>
</a>
</g>
</g>
<!-- Node2 -->
<g id="node2" class="node">
<title>Node2</title>
<g id="a_node2"><a xlink:href="_o_m_sim_hit_manager_8hh.html" target="_top" xlink:title="Defines structures and classes related to optical module photon hit management.">
<polygon fill="white" stroke="black" points="1192.5,-224.5 1192.5,-243.5 1315.5,-243.5 1315.5,-224.5 1192.5,-224.5"/>
<text text-anchor="middle" x="1254" y="-231.5" font-family="Helvetica,sans-Serif" font-size="10.00">OMSimHitManager.hh</text>
</a>
</g>
</g>
<!-- Node1&#45;&gt;Node2 -->
<g id="edge1" class="edge">
<title>Node1&#45;&gt;Node2</title>
<path fill="none" stroke="midnightblue" d="M1597.33,-279.14C1516.44,-268.74 1390.56,-252.56 1315.79,-242.94"/>
<polygon fill="midnightblue" stroke="midnightblue" points="1597.09,-282.64 1607.45,-280.44 1597.98,-275.7 1597.09,-282.64"/>
</g>
<!-- Node4 -->
<g id="node4" class="node">
<title>Node4</title>
<g id="a_node4"><a xlink:href="_o_m_sim_sensitive_detector_8cc.html" target="_top" xlink:title=" ">
<polygon fill="white" stroke="black" points="0,-168.5 0,-187.5 152,-187.5 152,-168.5 0,-168.5"/>
<text text-anchor="middle" x="76" y="-175.5" font-family="Helvetica,sans-Serif" font-size="10.00">OMSimSensitiveDetector.cc</text>
</a>
</g>
</g>
<!-- Node1&#45;&gt;Node4 -->
<g id="edge80" class="edge">
<title>Node1&#45;&gt;Node4</title>
<path fill="none" stroke="midnightblue" d="M1587.41,-284.2C1356.36,-271.17 706.1,-233.08 166,-188 161.46,-187.62 156.8,-187.21 152.09,-186.79"/>
<polygon fill="midnightblue" stroke="midnightblue" points="1587.25,-287.69 1597.43,-284.76 1587.64,-280.7 1587.25,-287.69"/>
</g>
<!-- Node9 -->
<g id="node9" class="node">
<title>Node9</title>
<g id="a_node9"><a xlink:href="_o_m_sim_effective_area_detector_8cc.html" target="_top" xlink:title=" ">
<polygon fill="white" stroke="black" points="1759,-0.5 1759,-19.5 1931,-19.5 1931,-0.5 1759,-0.5"/>
<text text-anchor="middle" x="1845" y="-7.5" font-family="Helvetica,sans-Serif" font-size="10.00">OMSimEffectiveAreaDetector.cc</text>
</a>
</g>
</g>
<!-- Node1&#45;&gt;Node9 -->
<g id="edge82" class="edge">
<title>Node1&#45;&gt;Node9</title>
<path fill="none" stroke="midnightblue" d="M1760.72,-286.24C1864.87,-277.7 2035.55,-245.95 2116,-132 2125.3,-118.83 2134.6,-80.19 2113,-56 2100.53,-42.03 2000.47,-28.08 1926.24,-19.5"/>
<polygon fill="midnightblue" stroke="midnightblue" points="1760.25,-282.76 1750.55,-287.01 1760.78,-289.74 1760.25,-282.76"/>
</g>
<!-- Node10 -->
<g id="node10" class="node">
<title>Node10</title>
<g id="a_node10"><a xlink:href="_o_m_sim_rad_decays_detector_8cc.html" target="_top" xlink:title=" ">
<polygon fill="white" stroke="black" points="2249.5,-0.5 2249.5,-19.5 2410.5,-19.5 2410.5,-0.5 2249.5,-0.5"/>
<text text-anchor="middle" x="2330" y="-7.5" font-family="Helvetica,sans-Serif" font-size="10.00">OMSimRadDecaysDetector.cc</text>
</a>
</g>
</g>
<!-- Node1&#45;&gt;Node10 -->
<g id="edge83" class="edge">
<title>Node1&#45;&gt;Node10</title>
<path fill="none" stroke="midnightblue" d="M1761.07,-287.61C1990.31,-282.82 2593,-262.28 2593,-179 2593,-179 2593,-179 2593,-121 2593,-86.84 2580.11,-75.4 2552,-56 2528.13,-39.53 2458.07,-27.1 2402.97,-19.52"/>
<polygon fill="midnightblue" stroke="midnightblue" points="1760.7,-284.12 1750.77,-287.82 1760.84,-291.12 1760.7,-284.12"/>
</g>
<!-- Node18 -->
<g id="node18" class="node">
<title>Node18</title>
<g id="a_node18"><a xlink:href="_o_m_sim_p_m_t_construction_8cc.html" target="_top" xlink:title=" ">
<polygon fill="white" stroke="black" points="907.5,-56.5 907.5,-75.5 1054.5,-75.5 1054.5,-56.5 907.5,-56.5"/>
<text text-anchor="middle" x="981" y="-63.5" font-family="Helvetica,sans-Serif" font-size="10.00">OMSimPMTConstruction.cc</text>
</a>
</g>
</g>
<!-- Node1&#45;&gt;Node18 -->
<g id="edge81" class="edge">
<title>Node1&#45;&gt;Node18</title>
<path fill="none" stroke="midnightblue" d="M1677.35,-270.36C1680.99,-243.48 1682.99,-194.18 1655,-168 1589.17,-106.43 1339.19,-150.6 1251,-132 1223.91,-126.29 1218.7,-119.34 1192,-112 1136.57,-96.75 1071.75,-83.61 1028.73,-75.53"/>
<polygon fill="midnightblue" stroke="midnightblue" points="1673.87,-269.96 1675.77,-280.38 1680.78,-271.05 1673.87,-269.96"/>
</g>
<!-- Node3 -->
<g id="node3" class="node">
<title>Node3</title>
<g id="a_node3"><a xlink:href="_o_m_sim_hit_manager_8cc.html" target="_top" xlink:title=" ">
<polygon fill="white" stroke="black" points="1524,-168.5 1524,-187.5 1646,-187.5 1646,-168.5 1524,-168.5"/>
<text text-anchor="middle" x="1585" y="-175.5" font-family="Helvetica,sans-Serif" font-size="10.00">OMSimHitManager.cc</text>
</a>
</g>
</g>
<!-- Node2&#45;&gt;Node3 -->
<g id="edge2" class="edge">
<title>Node2&#45;&gt;Node3</title>
<path fill="none" stroke="midnightblue" d="M1316.58,-222.79C1379.12,-212.59 1474.19,-197.08 1532.8,-187.52"/>
<polygon fill="midnightblue" stroke="midnightblue" points="1315.75,-219.38 1306.45,-224.44 1316.88,-226.29 1315.75,-219.38"/>
</g>
<!-- Node2&#45;&gt;Node4 -->
<g id="edge3" class="edge">
<title>Node2&#45;&gt;Node4</title>
<path fill="none" stroke="midnightblue" d="M1182.21,-231.48C1007.89,-227.47 548.51,-215.01 166,-188 161.46,-187.68 156.79,-187.32 152.08,-186.92"/>
<polygon fill="midnightblue" stroke="midnightblue" points="1182.2,-234.98 1192.28,-231.71 1182.36,-227.98 1182.2,-234.98"/>
</g>
<!-- Node5 -->
<g id="node5" class="node">
<title>Node5</title>
<g id="a_node5"><a xlink:href="_o_m_sim_optical_module_8hh.html" target="_top" xlink:title=" ">
<polygon fill="white" stroke="black" points="1705.5,-168.5 1705.5,-187.5 1842.5,-187.5 1842.5,-168.5 1705.5,-168.5"/>
<text text-anchor="middle" x="1774" y="-175.5" font-family="Helvetica,sans-Serif" font-size="10.00">OMSimOpticalModule.hh</text>
</a>
</g>
</g>
<!-- Node2&#45;&gt;Node5 -->
<g id="edge4" class="edge">
<title>Node2&#45;&gt;Node5</title>
<path fill="none" stroke="midnightblue" d="M1325.73,-225.55C1426,-215.14 1606.81,-196.36 1705.38,-186.13"/>
<polygon fill="midnightblue" stroke="midnightblue" points="1325.28,-222.08 1315.69,-226.59 1326,-229.04 1325.28,-222.08"/>
</g>
<!-- Node8 -->
<g id="node8" class="node">
<title>Node8</title>
<g id="a_node8"><a xlink:href="_o_m_sim_detector_construction_8cc.html" target="_top" xlink:title=" ">
<polygon fill="white" stroke="black" points="1949.5,-0.5 1949.5,-19.5 2118.5,-19.5 2118.5,-0.5 1949.5,-0.5"/>
<text text-anchor="middle" x="2034" y="-7.5" font-family="Helvetica,sans-Serif" font-size="10.00">OMSimDetectorConstruction.cc</text>
</a>
</g>
</g>
<!-- Node2&#45;&gt;Node8 -->
<g id="edge60" class="edge">
<title>Node2&#45;&gt;Node8</title>
<path fill="none" stroke="midnightblue" d="M1325.96,-231.73C1445.69,-228.78 1693.13,-219.14 1900,-188 2116.62,-155.4 2243.83,-247.6 2380,-76 2385.53,-69.04 2385.87,-62.68 2380,-56 2371.41,-46.21 2218.17,-29.26 2118.53,-19.19"/>
<polygon fill="midnightblue" stroke="midnightblue" points="1325.73,-228.24 1315.82,-231.97 1325.9,-235.23 1325.73,-228.24"/>
</g>
<!-- Node2&#45;&gt;Node9 -->
<g id="edge66" class="edge">
<title>Node2&#45;&gt;Node9</title>
<path fill="none" stroke="midnightblue" d="M1325.65,-226.68C1382.3,-220.24 1455.33,-208.26 1477,-188 1521.42,-146.47 1467.27,-96.08 1513,-56 1522.46,-47.71 1670.75,-30.07 1765.92,-19.51"/>
<polygon fill="midnightblue" stroke="midnightblue" points="1325.19,-223.21 1315.64,-227.78 1325.96,-230.17 1325.19,-223.21"/>
</g>
<!-- Node2&#45;&gt;Node10 -->
<g id="edge70" class="edge">
<title>Node2&#45;&gt;Node10</title>
<path fill="none" stroke="midnightblue" d="M1325.86,-233.1C1471.48,-232.42 1811.54,-226.44 2094,-188 2208.54,-172.41 2236.09,-160.96 2348,-132 2432.4,-110.16 2483.89,-145.9 2536,-76 2541.31,-68.87 2541.57,-62.92 2536,-56 2526.52,-44.22 2443.44,-28.9 2385.73,-19.51"/>
<polygon fill="midnightblue" stroke="midnightblue" points="1325.7,-229.6 1315.71,-233.14 1325.73,-236.6 1325.7,-229.6"/>
</g>
<!-- Node11 -->
<g id="node11" class="node">
<title>Node11</title>
<g id="a_node11"><a xlink:href="_o_m_sim_s_ndetector_8cc.html" target="_top" xlink:title=" ">
<polygon fill="white" stroke="black" points="1504.5,-0.5 1504.5,-19.5 1623.5,-19.5 1623.5,-0.5 1504.5,-0.5"/>
<text text-anchor="middle" x="1564" y="-7.5" font-family="Helvetica,sans-Serif" font-size="10.00">OMSimSNdetector.cc</text>
</a>
</g>
</g>
<!-- Node2&#45;&gt;Node11 -->
<g id="edge79" class="edge">
<title>Node2&#45;&gt;Node11</title>
<path fill="none" stroke="midnightblue" d="M1214.31,-220.58C1198.91,-213.59 1182.86,-203.15 1174,-188 1156.95,-158.84 1197.29,-137.38 1175,-112 1093.38,-19.04 980.62,-168.96 899,-76 893.14,-69.32 892.91,-62.47 899,-56 944.55,-7.62 1429.85,-26.36 1496,-20 1498.73,-19.74 1501.51,-19.45 1504.32,-19.14"/>
<polygon fill="midnightblue" stroke="midnightblue" points="1213.17,-223.89 1223.75,-224.49 1215.85,-217.43 1213.17,-223.89"/>
</g>
<!-- Node16 -->
<g id="node16" class="node">
<title>Node16</title>
<g id="a_node16"><a xlink:href="_o_m_sim__radioactive__decays_8cc.html" target="_top" xlink:title="Main of the radioactive decay study.">
<polygon fill="white" stroke="black" points="1006.5,-0.5 1006.5,-19.5 1171.5,-19.5 1171.5,-0.5 1006.5,-0.5"/>
<text text-anchor="middle" x="1089" y="-7.5" font-family="Helvetica,sans-Serif" font-size="10.00">OMSim_radioactive_decays.cc</text>
</a>
</g>
</g>
<!-- Node2&#45;&gt;Node16 -->
<g id="edge67" class="edge">
<title>Node2&#45;&gt;Node16</title>
<path fill="none" stroke="midnightblue" d="M1182.2,-228.79C1003.21,-217.54 548.5,-184.06 506,-132 500.38,-125.11 500.56,-119.03 506,-112 521.17,-92.39 697.64,-60.63 722,-56 818.8,-37.6 931.47,-25.09 1006.17,-18.02"/>
<polygon fill="midnightblue" stroke="midnightblue" points="1182.11,-232.29 1192.31,-229.42 1182.54,-225.3 1182.11,-232.29"/>
</g>
<!-- Node17 -->
<g id="node17" class="node">
<title>Node17</title>
<g id="a_node17"><a xlink:href="_o_m_sim__supernova_8cc.html" target="_top" xlink:title="Main of the supernova study.">
<polygon fill="white" stroke="black" points="405,-0.5 405,-19.5 527,-19.5 527,-0.5 405,-0.5"/>
<text text-anchor="middle" x="466" y="-7.5" font-family="Helvetica,sans-Serif" font-size="10.00">OMSim_supernova.cc</text>
</a>
</g>
</g>
<!-- Node2&#45;&gt;Node17 -->
<g id="edge77" class="edge">
<title>Node2&#45;&gt;Node17</title>
<path fill="none" stroke="midnightblue" d="M1182.26,-230.97C962.29,-224.59 309.55,-204.37 267,-188 224.7,-171.73 173.24,-149.29 199,-112 245.13,-45.23 341.49,-22.56 404.95,-14.88"/>
<polygon fill="midnightblue" stroke="midnightblue" points="1182.31,-234.47 1192.41,-231.27 1182.51,-227.48 1182.31,-234.47"/>
</g>
<!-- Node32 -->
<g id="node32" class="node">
<title>Node32</title>
<g id="a_node32"><a xlink:href="_o_m_sim_optical_module_8cc.html" target="_top" xlink:title=" ">
<polygon fill="white" stroke="black" points="1971,-112.5 1971,-131.5 2107,-131.5 2107,-112.5 1971,-112.5"/>
<text text-anchor="middle" x="2039" y="-119.5" font-family="Helvetica,sans-Serif" font-size="10.00">OMSimOpticalModule.cc</text>
</a>
</g>
</g>
<!-- Node2&#45;&gt;Node32 -->
<g id="edge61" class="edge">
<title>Node2&#45;&gt;Node32</title>
<path fill="none" stroke="midnightblue" d="M1326.12,-233.56C1439.35,-233.11 1665.17,-226.81 1852,-188 1915.27,-174.86 1986.46,-145.96 2019.82,-131.54"/>
<polygon fill="midnightblue" stroke="midnightblue" points="1325.84,-230.07 1315.85,-233.59 1325.86,-237.07 1325.84,-230.07"/>
</g>
<!-- Node36 -->
<g id="node36" class="node">
<title>Node36</title>
<g id="a_node36"><a xlink:href="_o_m_sim_effective_area_analyisis_8hh.html" target="_top" xlink:title=" ">
<polygon fill="white" stroke="black" points="285,-168.5 285,-187.5 461,-187.5 461,-168.5 285,-168.5"/>
<text text-anchor="middle" x="373" y="-175.5" font-family="Helvetica,sans-Serif" font-size="10.00">OMSimEffectiveAreaAnalyisis.hh</text>
</a>
</g>
</g>
<!-- Node2&#45;&gt;Node36 -->
<g id="edge62" class="edge">
<title>Node2&#45;&gt;Node36</title>
<path fill="none" stroke="midnightblue" d="M1181.96,-229.57C1044.45,-222.86 735.07,-206.98 475,-188 470.48,-187.67 465.85,-187.32 461.17,-186.95"/>
<polygon fill="midnightblue" stroke="midnightblue" points="1182.2,-233.09 1192.36,-230.08 1182.54,-226.09 1182.2,-233.09"/>
</g>
<!-- Node37 -->
<g id="node37" class="node">
<title>Node37</title>
<g id="a_node37"><a xlink:href="_o_m_sim_effective_area_analyisis_8cc.html" target="_top" xlink:title=" ">
<polygon fill="white" stroke="black" points="208.5,-112.5 208.5,-131.5 383.5,-131.5 383.5,-112.5 208.5,-112.5"/>
<text text-anchor="middle" x="296" y="-119.5" font-family="Helvetica,sans-Serif" font-size="10.00">OMSimEffectiveAreaAnalyisis.cc</text>
</a>
</g>
</g>
<!-- Node2&#45;&gt;Node37 -->
<g id="edge65" class="edge">
<title>Node2&#45;&gt;Node37</title>
<path fill="none" stroke="midnightblue" d="M1181.97,-232.38C961.24,-230.11 307.2,-220.67 276,-188 261,-172.29 277.89,-145.58 288.58,-131.8"/>
<polygon fill="midnightblue" stroke="midnightblue" points="1182.12,-235.88 1192.15,-232.48 1182.19,-228.88 1182.12,-235.88"/>
</g>
<!-- Node38 -->
<g id="node38" class="node">
<title>Node38</title>
<g id="a_node38"><a xlink:href="_o_m_sim_decays_analysis_8cc.html" target="_top" xlink:title=" ">
<polygon fill="white" stroke="black" points="1182.5,-168.5 1182.5,-187.5 1325.5,-187.5 1325.5,-168.5 1182.5,-168.5"/>
<text text-anchor="middle" x="1254" y="-175.5" font-family="Helvetica,sans-Serif" font-size="10.00">OMSimDecaysAnalysis.cc</text>
</a>
</g>
</g>
<!-- Node2&#45;&gt;Node38 -->
<g id="edge68" class="edge">
<title>Node2&#45;&gt;Node38</title>
<path fill="none" stroke="midnightblue" d="M1254,-213.8C1254,-204.91 1254,-194.78 1254,-187.75"/>
<polygon fill="midnightblue" stroke="midnightblue" points="1250.5,-214.08 1254,-224.08 1257.5,-214.08 1250.5,-214.08"/>
</g>
<!-- Node39 -->
<g id="node39" class="node">
<title>Node39</title>
<g id="a_node39"><a xlink:href="radioactive__decays_2src_2_o_m_sim_event_action_8cc.html" target="_top" xlink:title=" ">
<polygon fill="white" stroke="black" points="1344,-168.5 1344,-187.5 1468,-187.5 1468,-168.5 1344,-168.5"/>
<text text-anchor="middle" x="1406" y="-175.5" font-family="Helvetica,sans-Serif" font-size="10.00">OMSimEventAction.cc</text>
</a>
</g>
</g>
<!-- Node2&#45;&gt;Node39 -->
<g id="edge69" class="edge">
<title>Node2&#45;&gt;Node39</title>
<path fill="none" stroke="midnightblue" d="M1287.67,-221.04C1316.27,-210.88 1356.61,-196.55 1382.03,-187.52"/>
<polygon fill="midnightblue" stroke="midnightblue" points="1286.34,-217.8 1278.08,-224.44 1288.68,-224.39 1286.34,-217.8"/>
</g>
<!-- Node40 -->
<g id="node40" class="node">
<title>Node40</title>
<g id="a_node40"><a xlink:href="_o_m_sim_s_n_analysis_8hh.html" target="_top" xlink:title=" ">
<polygon fill="white" stroke="black" points="789,-168.5 789,-187.5 911,-187.5 911,-168.5 789,-168.5"/>
<text text-anchor="middle" x="850" y="-175.5" font-family="Helvetica,sans-Serif" font-size="10.00">OMSimSNAnalysis.hh</text>
</a>
</g>
</g>
<!-- Node2&#45;&gt;Node40 -->
<g id="edge71" class="edge">
<title>Node2&#45;&gt;Node40</title>
<path fill="none" stroke="midnightblue" d="M1182.09,-223.39C1104.97,-213.08 983.82,-196.89 911.13,-187.17"/>
<polygon fill="midnightblue" stroke="midnightblue" points="1181.83,-226.88 1192.2,-224.74 1182.75,-219.95 1181.83,-226.88"/>
</g>
<!-- Node43 -->
<g id="node43" class="node">
<title>Node43</title>
<g id="a_node43"><a xlink:href="_o_m_sim_s_n_analysis_8cc.html" target="_top" xlink:title="Analyze data and write output files.">
<polygon fill="white" stroke="black" points="1046,-112.5 1046,-131.5 1166,-131.5 1166,-112.5 1046,-112.5"/>
<text text-anchor="middle" x="1106" y="-119.5" font-family="Helvetica,sans-Serif" font-size="10.00">OMSimSNAnalysis.cc</text>
</a>
</g>
</g>
<!-- Node2&#45;&gt;Node43 -->
<g id="edge78" class="edge">
<title>Node2&#45;&gt;Node43</title>
<path fill="none" stroke="midnightblue" d="M1203.61,-221.56C1182.07,-214.68 1157.84,-204.04 1140,-188 1122.58,-172.33 1112.63,-145.61 1108.42,-131.81"/>
<polygon fill="midnightblue" stroke="midnightblue" points="1202.7,-224.95 1213.28,-224.47 1204.71,-218.24 1202.7,-224.95"/>
</g>
<!-- Node6 -->
<g id="node6" class="node">
<title>Node6</title>
<g id="a_node6"><a xlink:href="_o_m_sim_d_e_g_g_8hh.html" target="_top" xlink:title="Construction of the DEGG class.">
<polygon fill="white" stroke="black" points="2160.5,-56.5 2160.5,-75.5 2255.5,-75.5 2255.5,-56.5 2160.5,-56.5"/>
<text text-anchor="middle" x="2208" y="-63.5" font-family="Helvetica,sans-Serif" font-size="10.00">OMSimDEGG.hh</text>
</a>
</g>
</g>
<!-- Node5&#45;&gt;Node6 -->
<g id="edge5" class="edge">
<title>Node5&#45;&gt;Node6</title>
<path fill="none" stroke="midnightblue" d="M1796.72,-163.07C1825,-145.96 1871.9,-118.41 1891,-112 1939.87,-95.58 2084.36,-79.33 2160.24,-71.62"/>
<polygon fill="midnightblue" stroke="midnightblue" points="1794.63,-160.24 1787.91,-168.43 1798.27,-166.22 1794.63,-160.24"/>
</g>
<!-- Node12 -->
<g id="node12" class="node">
<title>Node12</title>
<g id="a_node12"><a xlink:href="_o_m_sim_detector_construction_8hh.html" target="_top" xlink:title=" ">
<polygon fill="white" stroke="black" points="1260,-112.5 1260,-131.5 1430,-131.5 1430,-112.5 1260,-112.5"/>
<text text-anchor="middle" x="1345" y="-119.5" font-family="Helvetica,sans-Serif" font-size="10.00">OMSimDetectorConstruction.hh</text>
</a>
</g>
</g>
<!-- Node5&#45;&gt;Node12 -->
<g id="edge11" class="edge">
<title>Node5&#45;&gt;Node12</title>
<path fill="none" stroke="midnightblue" d="M1695.88,-167.17C1614.89,-156.97 1489.56,-141.2 1412.66,-131.52"/>
<polygon fill="midnightblue" stroke="midnightblue" points="1695.66,-170.67 1706.02,-168.44 1696.54,-163.72 1695.66,-170.67"/>
</g>
<!-- Node20 -->
<g id="node20" class="node">
<title>Node20</title>
<g id="a_node20"><a xlink:href="_o_m_sim_rad_decays_detector_8hh.html" target="_top" xlink:title="Defines the OMSimRadDecaysDetector class for the radioactive decays simulation.">
<polygon fill="white" stroke="black" points="1263.5,-56.5 1263.5,-75.5 1426.5,-75.5 1426.5,-56.5 1263.5,-56.5"/>
<text text-anchor="middle" x="1345" y="-63.5" font-family="Helvetica,sans-Serif" font-size="10.00">OMSimRadDecaysDetector.hh</text>
</a>
</g>
</g>
<!-- Node5&#45;&gt;Node20 -->
<g id="edge59" class="edge">
<title>Node5&#45;&gt;Node20</title>
<path fill="none" stroke="midnightblue" d="M1730.77,-165.92C1645.04,-143.93 1455.16,-95.25 1378.28,-75.53"/>
<polygon fill="midnightblue" stroke="midnightblue" points="1730.14,-169.37 1740.69,-168.46 1731.88,-162.59 1730.14,-169.37"/>
</g>
<!-- Node22 -->
<g id="node22" class="node">
<title>Node22</title>
<g id="a_node22"><a xlink:href="_o_m_sim_l_o_m16_8hh.html" target="_top" xlink:title="Construction of LOM16.">
<polygon fill="white" stroke="black" points="1521.5,-56.5 1521.5,-75.5 1622.5,-75.5 1622.5,-56.5 1521.5,-56.5"/>
<text text-anchor="middle" x="1572" y="-63.5" font-family="Helvetica,sans-Serif" font-size="10.00">OMSimLOM16.hh</text>
</a>
</g>
</g>
<!-- Node5&#45;&gt;Node22 -->
<g id="edge28" class="edge">
<title>Node5&#45;&gt;Node22</title>
<path fill="none" stroke="midnightblue" d="M1749.11,-163.45C1706.97,-140.5 1622.74,-94.63 1587.78,-75.59"/>
<polygon fill="midnightblue" stroke="midnightblue" points="1747.69,-166.66 1758.15,-168.37 1751.04,-160.51 1747.69,-166.66"/>
</g>
<!-- Node24 -->
<g id="node24" class="node">
<title>Node24</title>
<g id="a_node24"><a xlink:href="_o_m_sim_l_o_m18_8hh.html" target="_top" xlink:title="Construction of LOM18.">
<polygon fill="white" stroke="black" points="1640.5,-56.5 1640.5,-75.5 1741.5,-75.5 1741.5,-56.5 1640.5,-56.5"/>
<text text-anchor="middle" x="1691" y="-63.5" font-family="Helvetica,sans-Serif" font-size="10.00">OMSimLOM18.hh</text>
</a>
</g>
</g>
<!-- Node5&#45;&gt;Node24 -->
<g id="edge34" class="edge">
<title>Node5&#45;&gt;Node24</title>
<path fill="none" stroke="midnightblue" d="M1745.19,-163.43C1732.06,-155.89 1717.39,-145.32 1708,-132 1695.77,-114.65 1692.34,-89.12 1691.37,-75.8"/>
<polygon fill="midnightblue" stroke="midnightblue" points="1743.91,-166.72 1754.38,-168.38 1747.23,-160.56 1743.91,-166.72"/>
</g>
<!-- Node26 -->
<g id="node26" class="node">
<title>Node26</title>
<g id="a_node26"><a xlink:href="_o_m_sim_m_d_o_m_8hh.html" target="_top" xlink:title="Construction of mDOM.">
<polygon fill="white" stroke="black" points="2427,-56.5 2427,-75.5 2527,-75.5 2527,-56.5 2427,-56.5"/>
<text text-anchor="middle" x="2477" y="-63.5" font-family="Helvetica,sans-Serif" font-size="10.00">OMSimMDOM.hh</text>
</a>
</g>
</g>
<!-- Node5&#45;&gt;Node26 -->
<g id="edge40" class="edge">
<title>Node5&#45;&gt;Node26</title>
<path fill="none" stroke="midnightblue" d="M1816.31,-165.72C1845.76,-157.45 1885.74,-145.36 1920,-132 1939.26,-124.49 1942.05,-117.42 1962,-112 2141.95,-63.13 2194.28,-92.61 2380,-76 2395.16,-74.64 2411.65,-73.13 2426.66,-71.73"/>
<polygon fill="midnightblue" stroke="midnightblue" points="1815.06,-162.44 1806.36,-168.49 1816.93,-169.18 1815.06,-162.44"/>
</g>
<!-- Node30 -->
<g id="node30" class="node">
<title>Node30</title>
<g id="a_node30"><a xlink:href="_o_m_sim_p_d_o_m_8hh.html" target="_top" xlink:title="Implementation of the pDOM/Gen1 DOM class.">
<polygon fill="white" stroke="black" points="2273.5,-56.5 2273.5,-75.5 2370.5,-75.5 2370.5,-56.5 2273.5,-56.5"/>
<text text-anchor="middle" x="2322" y="-63.5" font-family="Helvetica,sans-Serif" font-size="10.00">OMSimPDOM.hh</text>
</a>
</g>
</g>
<!-- Node5&#45;&gt;Node30 -->
<g id="edge48" class="edge">
<title>Node5&#45;&gt;Node30</title>
<path fill="none" stroke="midnightblue" d="M1805.1,-164.56C1827.19,-155.66 1857.5,-143.31 1884,-132 1904.13,-123.41 1907.86,-117.68 1929,-112 2074.04,-73.03 2116.11,-95.72 2265,-76 2267.68,-75.64 2270.43,-75.26 2273.21,-74.87"/>
<polygon fill="midnightblue" stroke="midnightblue" points="1803.55,-161.42 1795.58,-168.39 1806.16,-167.91 1803.55,-161.42"/>
</g>
<!-- Node5&#45;&gt;Node32 -->
<g id="edge54" class="edge">
<title>Node5&#45;&gt;Node32</title>
<path fill="none" stroke="midnightblue" d="M1825.97,-166.41C1876.05,-156.2 1950.86,-140.96 1997.21,-131.52"/>
<polygon fill="midnightblue" stroke="midnightblue" points="1825.09,-163.02 1815.99,-168.44 1826.49,-169.88 1825.09,-163.02"/>
</g>
<!-- Node33 -->
<g id="node33" class="node">
<title>Node33</title>
<g id="a_node33"><a xlink:href="_o_m_sim_decays_g_p_s_8hh.html" target="_top" xlink:title="Defines the OMSimDecaysGPS class for the radioactive decays simulation.">
<polygon fill="white" stroke="black" points="1717,-112.5 1717,-131.5 1839,-131.5 1839,-112.5 1717,-112.5"/>
<text text-anchor="middle" x="1778" y="-119.5" font-family="Helvetica,sans-Serif" font-size="10.00">OMSimDecaysGPS.hh</text>
</a>
</g>
</g>
<!-- Node5&#45;&gt;Node33 -->
<g id="edge55" class="edge">
<title>Node5&#45;&gt;Node33</title>
<path fill="none" stroke="midnightblue" d="M1775.4,-158.1C1776.06,-149.14 1776.83,-138.86 1777.35,-131.75"/>
<polygon fill="midnightblue" stroke="midnightblue" points="1771.91,-157.85 1774.66,-168.08 1778.89,-158.37 1771.91,-157.85"/>
</g>
<!-- Node7 -->
<g id="node7" class="node">
<title>Node7</title>
<g id="a_node7"><a xlink:href="_o_m_sim_d_e_g_g_8cc.html" target="_top" xlink:title=" ">
<polygon fill="white" stroke="black" points="2137,-0.5 2137,-19.5 2231,-19.5 2231,-0.5 2137,-0.5"/>
<text text-anchor="middle" x="2184" y="-7.5" font-family="Helvetica,sans-Serif" font-size="10.00">OMSimDEGG.cc</text>
</a>
</g>
</g>
<!-- Node6&#45;&gt;Node7 -->
<g id="edge6" class="edge">
<title>Node6&#45;&gt;Node7</title>
<path fill="none" stroke="midnightblue" d="M2199.86,-46.69C2195.82,-37.59 2191.12,-27.01 2187.89,-19.75"/>
<polygon fill="midnightblue" stroke="midnightblue" points="2196.78,-48.37 2204.04,-56.08 2203.17,-45.52 2196.78,-48.37"/>
</g>
<!-- Node6&#45;&gt;Node8 -->
<g id="edge7" class="edge">
<title>Node6&#45;&gt;Node8</title>
<path fill="none" stroke="midnightblue" d="M2170.74,-53.44C2137.93,-43.26 2090.92,-28.66 2061.44,-19.52"/>
<polygon fill="midnightblue" stroke="midnightblue" points="2169.84,-56.82 2180.43,-56.44 2171.92,-50.14 2169.84,-56.82"/>
</g>
<!-- Node6&#45;&gt;Node9 -->
<g id="edge8" class="edge">
<title>Node6&#45;&gt;Node9</title>
<path fill="none" stroke="midnightblue" d="M2150.05,-56.38C2082.03,-46.26 1969.92,-29.58 1902.21,-19.51"/>
<polygon fill="midnightblue" stroke="midnightblue" points="2149.76,-59.88 2160.17,-57.88 2150.79,-52.95 2149.76,-59.88"/>
</g>
<!-- Node6&#45;&gt;Node10 -->
<g id="edge9" class="edge">
<title>Node6&#45;&gt;Node10</title>
<path fill="none" stroke="midnightblue" d="M2236.54,-52.37C2259.39,-42.26 2290.81,-28.35 2310.76,-19.52"/>
<polygon fill="midnightblue" stroke="midnightblue" points="2235.06,-49.2 2227.33,-56.44 2237.89,-55.6 2235.06,-49.2"/>
</g>
<!-- Node6&#45;&gt;Node11 -->
<g id="edge10" class="edge">
<title>Node6&#45;&gt;Node11</title>
<path fill="none" stroke="midnightblue" d="M2150.07,-59.33C2137.83,-58.18 2124.99,-57.02 2113,-56 1899.83,-37.91 1845.81,-41.84 1633,-20 1630,-19.69 1626.92,-19.36 1623.82,-19.01"/>
<polygon fill="midnightblue" stroke="midnightblue" points="2149.89,-62.83 2160.17,-60.28 2150.55,-55.86 2149.89,-62.83"/>
</g>
<!-- Node12&#45;&gt;Node8 -->
<g id="edge17" class="edge">
<title>Node12&#45;&gt;Node8</title>
<path fill="none" stroke="midnightblue" d="M1440.29,-120.4C1523.88,-117.55 1647.83,-107.62 1751,-76 1769.25,-70.41 1770.96,-62.24 1789,-56 1842.33,-37.55 1904.96,-26.22 1953.54,-19.54"/>
<polygon fill="midnightblue" stroke="midnightblue" points="1439.94,-116.91 1430.05,-120.72 1440.15,-123.91 1439.94,-116.91"/>
</g>
<!-- Node13 -->
<g id="node13" class="node">
<title>Node13</title>
<g id="a_node13"><a xlink:href="_o_m_sim_8hh.html" target="_top" xlink:title="Main simulation class for the Optical Module (OM) simulation. This file defines the OMSim class,...">
<polygon fill="white" stroke="black" points="538.5,-56.5 538.5,-75.5 605.5,-75.5 605.5,-56.5 538.5,-56.5"/>
<text text-anchor="middle" x="572" y="-63.5" font-family="Helvetica,sans-Serif" font-size="10.00">OMSim.hh</text>
</a>
</g>
</g>
<!-- Node12&#45;&gt;Node13 -->
<g id="edge12" class="edge">
<title>Node12&#45;&gt;Node13</title>
<path fill="none" stroke="midnightblue" d="M1249.56,-114.33C1076.27,-102.23 717.47,-77.16 605.88,-69.37"/>
<polygon fill="midnightblue" stroke="midnightblue" points="1249.47,-117.84 1259.69,-115.04 1249.96,-110.85 1249.47,-117.84"/>
</g>
<!-- Node12&#45;&gt;Node18 -->
<g id="edge18" class="edge">
<title>Node12&#45;&gt;Node18</title>
<path fill="none" stroke="midnightblue" d="M1277.03,-110.92C1208.26,-100.71 1103.13,-85.12 1038.41,-75.52"/>
<polygon fill="midnightblue" stroke="midnightblue" points="1276.92,-114.44 1287.32,-112.44 1277.95,-107.51 1276.92,-114.44"/>
</g>
<!-- Node19 -->
<g id="node19" class="node">
<title>Node19</title>
<g id="a_node19"><a xlink:href="_o_m_sim_effective_area_detector_8hh.html" target="_top" xlink:title="Defines the OMSimEffectiveAreaDetector class for effective area simulation detector construction.">
<polygon fill="white" stroke="black" points="1072.5,-56.5 1072.5,-75.5 1245.5,-75.5 1245.5,-56.5 1072.5,-56.5"/>
<text text-anchor="middle" x="1159" y="-63.5" font-family="Helvetica,sans-Serif" font-size="10.00">OMSimEffectiveAreaDetector.hh</text>
</a>
</g>
</g>
<!-- Node12&#45;&gt;Node19 -->
<g id="edge19" class="edge">
<title>Node12&#45;&gt;Node19</title>
<path fill="none" stroke="midnightblue" d="M1305.62,-109.57C1270.53,-99.38 1219.98,-84.7 1188.33,-75.52"/>
<polygon fill="midnightblue" stroke="midnightblue" points="1304.95,-113.02 1315.53,-112.44 1306.9,-106.29 1304.95,-113.02"/>
</g>
<!-- Node12&#45;&gt;Node20 -->
<g id="edge22" class="edge">
<title>Node12&#45;&gt;Node20</title>
<path fill="none" stroke="midnightblue" d="M1345,-101.8C1345,-92.91 1345,-82.78 1345,-75.75"/>
<polygon fill="midnightblue" stroke="midnightblue" points="1341.5,-102.08 1345,-112.08 1348.5,-102.08 1341.5,-102.08"/>
</g>
<!-- Node21 -->
<g id="node21" class="node">
<title>Node21</title>
<g id="a_node21"><a xlink:href="_o_m_sim_s_ndetector_8hh.html" target="_top" xlink:title=" ">
<polygon fill="white" stroke="black" points="731,-56.5 731,-75.5 851,-75.5 851,-56.5 731,-56.5"/>
<text text-anchor="middle" x="791" y="-63.5" font-family="Helvetica,sans-Serif" font-size="10.00">OMSimSNdetector.hh</text>
</a>
</g>
</g>
<!-- Node12&#45;&gt;Node21 -->
<g id="edge25" class="edge">
<title>Node12&#45;&gt;Node21</title>
<path fill="none" stroke="midnightblue" d="M1249.81,-111.72C1135.52,-100.58 947.27,-82.23 851.31,-72.88"/>
<polygon fill="midnightblue" stroke="midnightblue" points="1249.66,-115.22 1259.95,-112.71 1250.34,-108.26 1249.66,-115.22"/>
</g>
<!-- Node14 -->
<g id="node14" class="node">
<title>Node14</title>
<g id="a_node14"><a xlink:href="_o_m_sim_8cc.html" target="_top" xlink:title="Implementation of the OMSim class.">
<polygon fill="white" stroke="black" points="703.5,-0.5 703.5,-19.5 768.5,-19.5 768.5,-0.5 703.5,-0.5"/>
<text text-anchor="middle" x="736" y="-7.5" font-family="Helvetica,sans-Serif" font-size="10.00">OMSim.cc</text>
</a>
</g>
</g>
<!-- Node13&#45;&gt;Node14 -->
<g id="edge13" class="edge">
<title>Node13&#45;&gt;Node14</title>
<path fill="none" stroke="midnightblue" d="M607.52,-53.3C638.42,-43.13 682.47,-28.62 710.14,-19.52"/>
<polygon fill="midnightblue" stroke="midnightblue" points="606.39,-49.99 597.99,-56.44 608.58,-56.64 606.39,-49.99"/>
</g>
<!-- Node15 -->
<g id="node15" class="node">
<title>Node15</title>
<g id="a_node15"><a xlink:href="_o_m_sim__effective__area_8cc.html" target="_top" xlink:title="Main for the calculation of effective areas.">
<polygon fill="white" stroke="black" points="545,-0.5 545,-19.5 685,-19.5 685,-0.5 545,-0.5"/>
<text text-anchor="middle" x="615" y="-7.5" font-family="Helvetica,sans-Serif" font-size="10.00">OMSim_effective_area.cc</text>
</a>
</g>
</g>
<!-- Node13&#45;&gt;Node15 -->
<g id="edge14" class="edge">
<title>Node13&#45;&gt;Node15</title>
<path fill="none" stroke="midnightblue" d="M585.42,-48.14C592.91,-38.74 601.94,-27.4 608.03,-19.75"/>
<polygon fill="midnightblue" stroke="midnightblue" points="582.59,-46.08 579.1,-56.08 588.07,-50.44 582.59,-46.08"/>
</g>
<!-- Node13&#45;&gt;Node16 -->
<g id="edge15" class="edge">
<title>Node13&#45;&gt;Node16</title>
<path fill="none" stroke="midnightblue" d="M615.53,-56.66C617.04,-56.43 618.53,-56.21 620,-56 754.65,-36.96 912.21,-23.67 1006.13,-16.69"/>
<polygon fill="midnightblue" stroke="midnightblue" points="614.8,-53.23 605.51,-58.32 615.94,-60.14 614.8,-53.23"/>
</g>
<!-- Node13&#45;&gt;Node17 -->
<g id="edge16" class="edge">
<title>Node13&#45;&gt;Node17</title>
<path fill="none" stroke="midnightblue" d="M545.94,-51.73C526.32,-41.73 499.97,-28.31 482.99,-19.65"/>
<polygon fill="midnightblue" stroke="midnightblue" points="544.47,-54.9 554.97,-56.32 547.65,-48.67 544.47,-54.9"/>
</g>
<!-- Node19&#45;&gt;Node9 -->
<g id="edge21" class="edge">
<title>Node19&#45;&gt;Node9</title>
<path fill="none" stroke="midnightblue" d="M1255.89,-55.94C1476.53,-37.72 1533.52,-38.12 1750,-20 1752.89,-19.76 1755.83,-19.51 1758.79,-19.25"/>
<polygon fill="midnightblue" stroke="midnightblue" points="1255.28,-52.48 1245.6,-56.8 1255.85,-59.46 1255.28,-52.48"/>
</g>
<!-- Node19&#45;&gt;Node15 -->
<g id="edge20" class="edge">
<title>Node19&#45;&gt;Node15</title>
<path fill="none" stroke="midnightblue" d="M1062.23,-55.83C947.46,-44.92 763,-27.27 694,-20 691.12,-19.7 688.18,-19.38 685.2,-19.06"/>
<polygon fill="midnightblue" stroke="midnightblue" points="1062.14,-59.34 1072.43,-56.8 1062.81,-52.37 1062.14,-59.34"/>
</g>
<!-- Node20&#45;&gt;Node10 -->
<g id="edge24" class="edge">
<title>Node20&#45;&gt;Node10</title>
<path fill="none" stroke="midnightblue" d="M1436.71,-60.02C1461.47,-58.69 1488.26,-57.28 1513,-56 1836.08,-39.35 1917.39,-44.1 2240,-20 2242.98,-19.78 2246,-19.54 2249.06,-19.29"/>
<polygon fill="midnightblue" stroke="midnightblue" points="1436.4,-56.53 1426.6,-60.56 1436.77,-63.52 1436.4,-56.53"/>
</g>
<!-- Node20&#45;&gt;Node16 -->
<g id="edge23" class="edge">
<title>Node20&#45;&gt;Node16</title>
<path fill="none" stroke="midnightblue" d="M1294.49,-54.35C1246.11,-44.14 1174.05,-28.94 1129.37,-19.52"/>
<polygon fill="midnightblue" stroke="midnightblue" points="1293.93,-57.8 1304.44,-56.44 1295.37,-50.95 1293.93,-57.8"/>
</g>
<!-- Node21&#45;&gt;Node11 -->
<g id="edge27" class="edge">
<title>Node21&#45;&gt;Node11</title>
<path fill="none" stroke="midnightblue" d="M861.16,-56.35C862.45,-56.23 863.73,-56.11 865,-56 1144.79,-31.03 1216.35,-46.45 1496,-20 1498.73,-19.74 1501.51,-19.46 1504.32,-19.15"/>
<polygon fill="midnightblue" stroke="midnightblue" points="860.74,-52.88 851.14,-57.36 861.44,-59.84 860.74,-52.88"/>
</g>
<!-- Node21&#45;&gt;Node17 -->
<g id="edge26" class="edge">
<title>Node21&#45;&gt;Node17</title>
<path fill="none" stroke="midnightblue" d="M729.56,-54.79C668.14,-44.59 574.8,-29.08 517.26,-19.52"/>
<polygon fill="midnightblue" stroke="midnightblue" points="729.06,-58.26 739.5,-56.44 730.21,-51.35 729.06,-58.26"/>
</g>
<!-- Node22&#45;&gt;Node8 -->
<g id="edge29" class="edge">
<title>Node22&#45;&gt;Node8</title>
<path fill="none" stroke="midnightblue" d="M1632.83,-55.94C1748.64,-40.89 1870.46,-27.72 1949.58,-19.52"/>
<polygon fill="midnightblue" stroke="midnightblue" points="1632.18,-52.49 1622.72,-57.26 1633.09,-59.43 1632.18,-52.49"/>
</g>
<!-- Node22&#45;&gt;Node9 -->
<g id="edge31" class="edge">
<title>Node22&#45;&gt;Node9</title>
<path fill="none" stroke="midnightblue" d="M1625.22,-54.47C1676.81,-44.27 1754.1,-28.98 1801.94,-19.52"/>
<polygon fill="midnightblue" stroke="midnightblue" points="1624.39,-51.07 1615.26,-56.44 1625.75,-57.94 1624.39,-51.07"/>
</g>
<!-- Node22&#45;&gt;Node10 -->
<g id="edge32" class="edge">
<title>Node22&#45;&gt;Node10</title>
<path fill="none" stroke="midnightblue" d="M1632.81,-56.02C1902.95,-28.22 1973.45,-41.21 2240,-20 2242.97,-19.76 2246,-19.51 2249.06,-19.25"/>
<polygon fill="midnightblue" stroke="midnightblue" points="1632.28,-52.55 1622.7,-57.07 1633.01,-59.52 1632.28,-52.55"/>
</g>
<!-- Node22&#45;&gt;Node11 -->
<g id="edge33" class="edge">
<title>Node22&#45;&gt;Node11</title>
<path fill="none" stroke="midnightblue" d="M1569.2,-46.1C1567.87,-37.14 1566.35,-26.86 1565.3,-19.75"/>
<polygon fill="midnightblue" stroke="midnightblue" points="1565.75,-46.7 1570.68,-56.08 1572.68,-45.68 1565.75,-46.7"/>
</g>
<!-- Node23 -->
<g id="node23" class="node">
<title>Node23</title>
<g id="a_node23"><a xlink:href="_o_m_sim_l_o_m16_8cc.html" target="_top" xlink:title=" ">
<polygon fill="white" stroke="black" points="1387.5,-0.5 1387.5,-19.5 1486.5,-19.5 1486.5,-0.5 1387.5,-0.5"/>
<text text-anchor="middle" x="1437" y="-7.5" font-family="Helvetica,sans-Serif" font-size="10.00">OMSimLOM16.cc</text>
</a>
</g>
</g>
<!-- Node22&#45;&gt;Node23 -->
<g id="edge30" class="edge">
<title>Node22&#45;&gt;Node23</title>
<path fill="none" stroke="midnightblue" d="M1541.09,-52.64C1515.76,-42.5 1480.57,-28.43 1458.29,-19.52"/>
<polygon fill="midnightblue" stroke="midnightblue" points="1540.02,-55.98 1550.61,-56.44 1542.62,-49.48 1540.02,-55.98"/>
</g>
<!-- Node24&#45;&gt;Node8 -->
<g id="edge35" class="edge">
<title>Node24&#45;&gt;Node8</title>
<path fill="none" stroke="midnightblue" d="M1751.66,-55.45C1816.31,-45.27 1917.71,-29.31 1979.78,-19.54"/>
<polygon fill="midnightblue" stroke="midnightblue" points="1750.94,-52.02 1741.61,-57.03 1752.03,-58.93 1750.94,-52.02"/>
</g>
<!-- Node24&#45;&gt;Node9 -->
<g id="edge37" class="edge">
<title>Node24&#45;&gt;Node9</title>
<path fill="none" stroke="midnightblue" d="M1725.11,-53.04C1754.09,-42.88 1794.96,-28.55 1820.71,-19.52"/>
<polygon fill="midnightblue" stroke="midnightblue" points="1723.68,-49.83 1715.4,-56.44 1726,-56.44 1723.68,-49.83"/>
</g>
<!-- Node24&#45;&gt;Node10 -->
<g id="edge38" class="edge">
<title>Node24&#45;&gt;Node10</title>
<path fill="none" stroke="midnightblue" d="M1751.79,-59.3C1764.1,-58.18 1776.96,-57.03 1789,-56 1989.35,-38.81 2039.73,-38.01 2240,-20 2242.97,-19.73 2246,-19.46 2249.05,-19.17"/>
<polygon fill="midnightblue" stroke="midnightblue" points="1751.24,-55.84 1741.6,-60.24 1751.88,-62.81 1751.24,-55.84"/>
</g>
<!-- Node24&#45;&gt;Node11 -->
<g id="edge39" class="edge">
<title>Node24&#45;&gt;Node11</title>
<path fill="none" stroke="midnightblue" d="M1661.61,-52.5C1637.8,-42.38 1604.89,-28.39 1584.03,-19.52"/>
<polygon fill="midnightblue" stroke="midnightblue" points="1660.3,-55.75 1670.88,-56.44 1663.04,-49.31 1660.3,-55.75"/>
</g>
<!-- Node25 -->
<g id="node25" class="node">
<title>Node25</title>
<g id="a_node25"><a xlink:href="_o_m_sim_l_o_m18_8cc.html" target="_top" xlink:title=" ">
<polygon fill="white" stroke="black" points="1641.5,-0.5 1641.5,-19.5 1740.5,-19.5 1740.5,-0.5 1641.5,-0.5"/>
<text text-anchor="middle" x="1691" y="-7.5" font-family="Helvetica,sans-Serif" font-size="10.00">OMSimLOM18.cc</text>
</a>
</g>
</g>
<!-- Node24&#45;&gt;Node25 -->
<g id="edge36" class="edge">
<title>Node24&#45;&gt;Node25</title>
<path fill="none" stroke="midnightblue" d="M1691,-45.8C1691,-36.91 1691,-26.78 1691,-19.75"/>
<polygon fill="midnightblue" stroke="midnightblue" points="1687.5,-46.08 1691,-56.08 1694.5,-46.08 1687.5,-46.08"/>
</g>
<!-- Node26&#45;&gt;Node8 -->
<g id="edge41" class="edge">
<title>Node26&#45;&gt;Node8</title>
<path fill="none" stroke="midnightblue" d="M2416.79,-56.5C2415.52,-56.33 2414.25,-56.16 2413,-56 2308.03,-42.39 2186.48,-28.24 2109.92,-19.53"/>
<polygon fill="midnightblue" stroke="midnightblue" points="2416.33,-59.96 2426.71,-57.82 2417.26,-53.03 2416.33,-59.96"/>
</g>
<!-- Node26&#45;&gt;Node9 -->
<g id="edge45" class="edge">
<title>Node26&#45;&gt;Node9</title>
<path fill="none" stroke="midnightblue" d="M2416.63,-59.3C2404.5,-58.18 2391.85,-57.04 2380,-56 2184.98,-38.96 2136.01,-37.14 1941,-20 1937.75,-19.71 1934.43,-19.42 1931.09,-19.12"/>
<polygon fill="midnightblue" stroke="midnightblue" points="2416.38,-62.79 2426.66,-60.23 2417.03,-55.82 2416.38,-62.79"/>
</g>
<!-- Node26&#45;&gt;Node10 -->
<g id="edge46" class="edge">
<title>Node26&#45;&gt;Node10</title>
<path fill="none" stroke="midnightblue" d="M2444.08,-52.91C2416.44,-42.75 2377.66,-28.51 2353.18,-19.52"/>
<polygon fill="midnightblue" stroke="midnightblue" points="2443.11,-56.28 2453.71,-56.44 2445.53,-49.71 2443.11,-56.28"/>
</g>
<!-- Node26&#45;&gt;Node11 -->
<g id="edge47" class="edge">
<title>Node26&#45;&gt;Node11</title>
<path fill="none" stroke="midnightblue" d="M2416.66,-58.98C2404.53,-57.89 2391.86,-56.84 2380,-56 2048.44,-32.64 1964.07,-49.52 1633,-20 1629.99,-19.73 1626.91,-19.43 1623.81,-19.1"/>
<polygon fill="midnightblue" stroke="midnightblue" points="2416.41,-62.48 2426.69,-59.9 2417.05,-55.5 2416.41,-62.48"/>
</g>
<!-- Node27 -->
<g id="node27" class="node">
<title>Node27</title>
<g id="a_node27"><a xlink:href="_o_m_sim_m_d_o_m_8cc.html" target="_top" xlink:title=" ">
<polygon fill="white" stroke="black" points="2698,-0.5 2698,-19.5 2796,-19.5 2796,-0.5 2698,-0.5"/>
<text text-anchor="middle" x="2747" y="-7.5" font-family="Helvetica,sans-Serif" font-size="10.00">OMSimMDOM.cc</text>
</a>
</g>
</g>
<!-- Node26&#45;&gt;Node27 -->
<g id="edge42" class="edge">
<title>Node26&#45;&gt;Node27</title>
<path fill="none" stroke="midnightblue" d="M2529.63,-54.47C2580.66,-44.27 2657.1,-28.98 2704.42,-19.52"/>
<polygon fill="midnightblue" stroke="midnightblue" points="2528.9,-51.05 2519.78,-56.44 2530.27,-57.91 2528.9,-51.05"/>
</g>
<!-- Node28 -->
<g id="node28" class="node">
<title>Node28</title>
<g id="a_node28"><a xlink:href="_o_m_sim_m_d_o_m_flasher_8cc.html" target="_top" xlink:title=" ">
<polygon fill="white" stroke="black" points="2814,-0.5 2814,-19.5 2948,-19.5 2948,-0.5 2814,-0.5"/>
<text text-anchor="middle" x="2881" y="-7.5" font-family="Helvetica,sans-Serif" font-size="10.00">OMSimMDOMFlasher.cc</text>
</a>
</g>
</g>
<!-- Node26&#45;&gt;Node28 -->
<g id="edge43" class="edge">
<title>Node26&#45;&gt;Node28</title>
<path fill="none" stroke="midnightblue" d="M2537.61,-56.9C2612.89,-46.84 2740.7,-29.75 2817.36,-19.51"/>
<polygon fill="midnightblue" stroke="midnightblue" points="2536.8,-53.48 2527.35,-58.27 2537.73,-60.41 2536.8,-53.48"/>
</g>
<!-- Node29 -->
<g id="node29" class="node">
<title>Node29</title>
<g id="a_node29"><a xlink:href="_o_m_sim_m_d_o_m_harness_8cc.html" target="_top" xlink:title=" ">
<polygon fill="white" stroke="black" points="2542,-0.5 2542,-19.5 2680,-19.5 2680,-0.5 2542,-0.5"/>
<text text-anchor="middle" x="2611" y="-7.5" font-family="Helvetica,sans-Serif" font-size="10.00">OMSimMDOMHarness.cc</text>
</a>
</g>
</g>
<!-- Node26&#45;&gt;Node29 -->
<g id="edge44" class="edge">
<title>Node26&#45;&gt;Node29</title>
<path fill="none" stroke="midnightblue" d="M2507.68,-52.64C2532.82,-42.5 2567.75,-28.43 2589.87,-19.52"/>
<polygon fill="midnightblue" stroke="midnightblue" points="2506.2,-49.46 2498.23,-56.44 2508.82,-55.95 2506.2,-49.46"/>
</g>
<!-- Node30&#45;&gt;Node8 -->
<g id="edge49" class="edge">
<title>Node30&#45;&gt;Node8</title>
<path fill="none" stroke="midnightblue" d="M2266.2,-54.54C2211.77,-44.33 2130,-29 2079.42,-19.52"/>
<polygon fill="midnightblue" stroke="midnightblue" points="2265.89,-58.04 2276.37,-56.44 2267.18,-51.16 2265.89,-58.04"/>
</g>
<!-- Node30&#45;&gt;Node9 -->
<g id="edge51" class="edge">
<title>Node30&#45;&gt;Node9</title>
<path fill="none" stroke="midnightblue" d="M2263.06,-55.81C2187.13,-46.12 2028.26,-29.63 1929.44,-19.54"/>
<polygon fill="midnightblue" stroke="midnightblue" points="2262.84,-59.31 2273.21,-57.13 2263.74,-52.37 2262.84,-59.31"/>
</g>
<!-- Node30&#45;&gt;Node10 -->
<g id="edge52" class="edge">
<title>Node30&#45;&gt;Node10</title>
<path fill="none" stroke="midnightblue" d="M2324.8,-46.1C2326.13,-37.14 2327.65,-26.86 2328.7,-19.75"/>
<polygon fill="midnightblue" stroke="midnightblue" points="2321.32,-45.68 2323.32,-56.08 2328.25,-46.7 2321.32,-45.68"/>
</g>
<!-- Node30&#45;&gt;Node11 -->
<g id="edge53" class="edge">
<title>Node30&#45;&gt;Node11</title>
<path fill="none" stroke="midnightblue" d="M2263.19,-55.9C1983.54,-26.49 1909.84,-45.9 1633,-20 1629.99,-19.72 1626.92,-19.41 1623.81,-19.07"/>
<polygon fill="midnightblue" stroke="midnightblue" points="2262.91,-59.39 2273.22,-56.97 2263.65,-52.43 2262.91,-59.39"/>
</g>
<!-- Node31 -->
<g id="node31" class="node">
<title>Node31</title>
<g id="a_node31"><a xlink:href="_o_m_sim_p_d_o_m_8cc.html" target="_top" xlink:title=" ">
<polygon fill="white" stroke="black" points="2428.5,-0.5 2428.5,-19.5 2523.5,-19.5 2523.5,-0.5 2428.5,-0.5"/>
<text text-anchor="middle" x="2476" y="-7.5" font-family="Helvetica,sans-Serif" font-size="10.00">OMSimPDOM.cc</text>
</a>
</g>
</g>
<!-- Node30&#45;&gt;Node31 -->
<g id="edge50" class="edge">
<title>Node30&#45;&gt;Node31</title>
<path fill="none" stroke="midnightblue" d="M2356.11,-53.04C2385.09,-42.88 2425.96,-28.55 2451.71,-19.52"/>
<polygon fill="midnightblue" stroke="midnightblue" points="2354.68,-49.83 2346.4,-56.44 2357,-56.44 2354.68,-49.83"/>
</g>
<!-- Node33&#45;&gt;Node16 -->
<g id="edge56" class="edge">
<title>Node33&#45;&gt;Node16</title>
<path fill="none" stroke="midnightblue" d="M1708.96,-110.94C1655.3,-102.72 1579.12,-90.17 1513,-76 1478.43,-68.59 1470.71,-62.73 1436,-56 1346.4,-38.62 1242.44,-26.14 1171.85,-18.8"/>
<polygon fill="midnightblue" stroke="midnightblue" points="1708.63,-114.43 1719.04,-112.47 1709.68,-107.51 1708.63,-114.43"/>
</g>
<!-- Node34 -->
<g id="node34" class="node">
<title>Node34</title>
<g id="a_node34"><a xlink:href="_o_m_sim_decays_g_p_s_8cc.html" target="_top" xlink:title=" ">
<polygon fill="white" stroke="black" points="1982.5,-56.5 1982.5,-75.5 2103.5,-75.5 2103.5,-56.5 1982.5,-56.5"/>
<text text-anchor="middle" x="2043" y="-63.5" font-family="Helvetica,sans-Serif" font-size="10.00">OMSimDecaysGPS.cc</text>
</a>
</g>
</g>
<!-- Node33&#45;&gt;Node34 -->
<g id="edge57" class="edge">
<title>Node33&#45;&gt;Node34</title>
<path fill="none" stroke="midnightblue" d="M1829.97,-110.41C1880.05,-100.2 1954.86,-84.96 2001.21,-75.52"/>
<polygon fill="midnightblue" stroke="midnightblue" points="1829.09,-107.02 1819.99,-112.44 1830.49,-113.88 1829.09,-107.02"/>
</g>
<!-- Node35 -->
<g id="node35" class="node">
<title>Node35</title>
<g id="a_node35"><a xlink:href="_o_m_sim_g4_radioactive_decay_8cc.html" target="_top" xlink:title=" ">
<polygon fill="white" stroke="black" points="1798,-56.5 1798,-75.5 1964,-75.5 1964,-56.5 1798,-56.5"/>
<text text-anchor="middle" x="1881" y="-63.5" font-family="Helvetica,sans-Serif" font-size="10.00">OMSimG4RadioactiveDecay.cc</text>
</a>
</g>
</g>
<!-- Node33&#45;&gt;Node35 -->
<g id="edge58" class="edge">
<title>Node33&#45;&gt;Node35</title>
<path fill="none" stroke="midnightblue" d="M1803.58,-107.59C1822.62,-97.61 1848.06,-84.27 1864.49,-75.65"/>
<polygon fill="midnightblue" stroke="midnightblue" points="1801.78,-104.58 1794.55,-112.32 1805.03,-110.78 1801.78,-104.58"/>
</g>
<!-- Node36&#45;&gt;Node15 -->
<g id="edge63" class="edge">
<title>Node36&#45;&gt;Node15</title>
<path fill="none" stroke="midnightblue" d="M386.79,-160.54C398.91,-146.65 417.46,-126.74 436,-112 488.8,-70.04 561.2,-34.99 595.48,-19.51"/>
<polygon fill="midnightblue" stroke="midnightblue" points="383.99,-158.44 380.14,-168.31 389.3,-162.99 383.99,-158.44"/>
</g>
<!-- Node36&#45;&gt;Node37 -->
<g id="edge64" class="edge">
<title>Node36&#45;&gt;Node37</title>
<path fill="none" stroke="midnightblue" d="M352.1,-162.34C338.09,-152.52 320.12,-139.91 308.34,-131.65"/>
<polygon fill="midnightblue" stroke="midnightblue" points="350.43,-165.45 360.63,-168.32 354.45,-159.72 350.43,-165.45"/>
</g>
<!-- Node40&#45;&gt;Node17 -->
<g id="edge72" class="edge">
<title>Node40&#45;&gt;Node17</title>
<path fill="none" stroke="midnightblue" d="M778.59,-176.37C690.17,-174.14 546.3,-165.32 506,-132 470.87,-102.96 466.38,-42.31 465.96,-19.72"/>
<polygon fill="midnightblue" stroke="midnightblue" points="778.74,-179.87 788.82,-176.6 778.9,-172.88 778.74,-179.87"/>
</g>
<!-- Node41 -->
<g id="node41" class="node">
<title>Node41</title>
<g id="a_node41"><a xlink:href="supernova_2src_2_o_m_sim_event_action_8cc.html" target="_top" xlink:title=" ">
<polygon fill="white" stroke="black" points="702,-112.5 702,-131.5 826,-131.5 826,-112.5 702,-112.5"/>
<text text-anchor="middle" x="764" y="-119.5" font-family="Helvetica,sans-Serif" font-size="10.00">OMSimEventAction.cc</text>
</a>
</g>
</g>
<!-- Node40&#45;&gt;Node41 -->
<g id="edge73" class="edge">
<title>Node40&#45;&gt;Node41</title>
<path fill="none" stroke="midnightblue" d="M827.55,-162.9C811.78,-153 791.19,-140.07 777.78,-131.65"/>
<polygon fill="midnightblue" stroke="midnightblue" points="825.85,-165.97 836.18,-168.32 829.57,-160.04 825.85,-165.97"/>
</g>
<!-- Node42 -->
<g id="node42" class="node">
<title>Node42</title>
<g id="a_node42"><a xlink:href="supernova_2src_2_o_m_sim_primary_generator_action_8cc.html" target="_top" xlink:title=" ">
<polygon fill="white" stroke="black" points="844.5,-112.5 844.5,-131.5 1027.5,-131.5 1027.5,-112.5 844.5,-112.5"/>
<text text-anchor="middle" x="936" y="-119.5" font-family="Helvetica,sans-Serif" font-size="10.00">OMSimPrimaryGeneratorAction.cc</text>
</a>
</g>
</g>
<!-- Node40&#45;&gt;Node42 -->
<g id="edge74" class="edge">
<title>Node40&#45;&gt;Node42</title>
<path fill="none" stroke="midnightblue" d="M872.45,-162.9C888.22,-153 908.81,-140.07 922.22,-131.65"/>
<polygon fill="midnightblue" stroke="midnightblue" points="870.43,-160.04 863.82,-168.32 874.15,-165.97 870.43,-160.04"/>
</g>
<!-- Node40&#45;&gt;Node43 -->
<g id="edge75" class="edge">
<title>Node40&#45;&gt;Node43</title>
<path fill="none" stroke="midnightblue" d="M900.51,-166.35C948.89,-156.14 1020.95,-140.94 1065.63,-131.52"/>
<polygon fill="midnightblue" stroke="midnightblue" points="899.63,-162.95 890.56,-168.44 901.07,-169.8 899.63,-162.95"/>
</g>
<!-- Node44 -->
<g id="node44" class="node">
<title>Node44</title>
<g id="a_node44"><a xlink:href="_o_m_sim_s_n_particle_generators_8cc.html" target="_top" xlink:title=" ">
<polygon fill="white" stroke="black" points="515.5,-112.5 515.5,-131.5 684.5,-131.5 684.5,-112.5 515.5,-112.5"/>
<text text-anchor="middle" x="600" y="-119.5" font-family="Helvetica,sans-Serif" font-size="10.00">OMSimSNParticleGenerators.cc</text>
</a>
</g>
</g>
<!-- Node40&#45;&gt;Node44 -->
<g id="edge76" class="edge">
<title>Node40&#45;&gt;Node44</title>
<path fill="none" stroke="midnightblue" d="M800.38,-166.28C753.13,-156.08 682.96,-140.92 639.43,-131.52"/>
<polygon fill="midnightblue" stroke="midnightblue" points="799.87,-169.75 810.39,-168.44 801.35,-162.91 799.87,-169.75"/>
</g>
</g>
</svg>
