<?xml version="1.0" encoding="UTF-8" standalone="no"?>
<!DOCTYPE svg PUBLIC "-//W3C//DTD SVG 1.1//EN"
 "http://www.w3.org/Graphics/SVG/1.1/DTD/svg11.dtd">
<!-- Generated by graphviz version 2.43.0 (0)
 -->
<!-- Title: OMSimDecaysGPS.cc Pages: 1 -->
<svg width="1382pt" height="375pt"
 viewBox="0.00 0.00 1382.00 375.00" xmlns="http://www.w3.org/2000/svg" xmlns:xlink="http://www.w3.org/1999/xlink">
<g id="graph0" class="graph" transform="scale(1 1) rotate(0) translate(4 371)">
<title>OMSimDecaysGPS.cc</title>
<polygon fill="white" stroke="transparent" points="-4,4 -4,-371 1378,-371 1378,4 -4,4"/>
<!-- Node1 -->
<g id="node1" class="node">
<title>Node1</title>
<g id="a_node1"><a xlink:title=" ">
<polygon fill="#bfbfbf" stroke="black" points="985.5,-347.5 985.5,-366.5 1106.5,-366.5 1106.5,-347.5 985.5,-347.5"/>
<text text-anchor="middle" x="1046" y="-354.5" font-family="Helvetica,sans-Serif" font-size="10.00">OMSimDecaysGPS.cc</text>
</a>
</g>
</g>
<!-- Node2 -->
<g id="node2" class="node">
<title>Node2</title>
<g id="a_node2"><a xlink:href="_o_m_sim_decays_g_p_s_8hh.html" target="_top" xlink:title="Defines the IsotopeDecays class for the radioactive decays simulation.">
<polygon fill="white" stroke="black" points="811,-291.5 811,-310.5 933,-310.5 933,-291.5 811,-291.5"/>
<text text-anchor="middle" x="872" y="-298.5" font-family="Helvetica,sans-Serif" font-size="10.00">OMSimDecaysGPS.hh</text>
</a>
</g>
</g>
<!-- Node1&#45;&gt;Node2 -->
<g id="edge1" class="edge">
<title>Node1&#45;&gt;Node2</title>
<path fill="none" stroke="midnightblue" d="M1018.43,-347.44C988.9,-338.28 941.88,-323.69 909.12,-313.52"/>
<polygon fill="midnightblue" stroke="midnightblue" points="910.03,-310.14 899.44,-310.52 907.96,-316.82 910.03,-310.14"/>
</g>
<!-- Node7 -->
<g id="node7" class="node">
<title>Node7</title>
<g id="a_node7"><a xlink:title=" ">
<polygon fill="white" stroke="#bfbfbf" points="904.5,-6 904.5,-25 1023.5,-25 1023.5,-6 904.5,-6"/>
<text text-anchor="middle" x="964" y="-13" font-family="Helvetica,sans-Serif" font-size="10.00">G4SystemOfUnits.hh</text>
</a>
</g>
</g>
<!-- Node1&#45;&gt;Node7 -->
<g id="edge37" class="edge">
<title>Node1&#45;&gt;Node7</title>
<path fill="none" stroke="midnightblue" d="M1039.88,-347.35C1027.79,-329.38 1002,-286.31 1002,-246 1002,-246 1002,-246 1002,-132 1002,-95.75 984.91,-56.17 973.65,-34.03"/>
<polygon fill="midnightblue" stroke="midnightblue" points="976.73,-32.37 968.97,-25.16 970.54,-35.64 976.73,-32.37"/>
</g>
<!-- Node25 -->
<g id="node25" class="node">
<title>Node25</title>
<g id="a_node25"><a xlink:href="_o_m_sim_u_iinterface_8hh.html" target="_top" xlink:title="The OMSimUIinterface class provides a singleton interface to Geant4&#39;s UI manager.">
<polygon fill="white" stroke="black" points="1030.5,-291.5 1030.5,-310.5 1151.5,-310.5 1151.5,-291.5 1030.5,-291.5"/>
<text text-anchor="middle" x="1091" y="-298.5" font-family="Helvetica,sans-Serif" font-size="10.00">OMSimUIinterface.hh</text>
</a>
</g>
</g>
<!-- Node1&#45;&gt;Node25 -->
<g id="edge28" class="edge">
<title>Node1&#45;&gt;Node25</title>
<path fill="none" stroke="midnightblue" d="M1053.43,-347.08C1059.85,-339.38 1069.31,-328.03 1077.12,-318.65"/>
<polygon fill="midnightblue" stroke="midnightblue" points="1079.99,-320.67 1083.71,-310.75 1074.62,-316.19 1079.99,-320.67"/>
</g>
<!-- Node33 -->
<g id="node33" class="node">
<title>Node33</title>
<g id="a_node33"><a xlink:title=" ">
<polygon fill="white" stroke="#bfbfbf" points="1169.5,-291.5 1169.5,-310.5 1252.5,-310.5 1252.5,-291.5 1169.5,-291.5"/>
<text text-anchor="middle" x="1211" y="-298.5" font-family="Helvetica,sans-Serif" font-size="10.00">G4Poisson.hh</text>
</a>
</g>
</g>
<!-- Node1&#45;&gt;Node33 -->
<g id="edge38" class="edge">
<title>Node1&#45;&gt;Node33</title>
<path fill="none" stroke="midnightblue" d="M1072.14,-347.44C1100.02,-338.32 1144.35,-323.81 1175.4,-313.65"/>
<polygon fill="midnightblue" stroke="midnightblue" points="1176.56,-316.95 1184.98,-310.52 1174.38,-310.3 1176.56,-316.95"/>
</g>
<!-- Node3 -->
<g id="node3" class="node">
<title>Node3</title>
<g id="a_node3"><a xlink:href="_o_m_sim_optical_module_8hh.html" target="_top" xlink:title=" ">
<polygon fill="white" stroke="black" points="803.5,-235.5 803.5,-254.5 940.5,-254.5 940.5,-235.5 803.5,-235.5"/>
<text text-anchor="middle" x="872" y="-242.5" font-family="Helvetica,sans-Serif" font-size="10.00">OMSimOpticalModule.hh</text>
</a>
</g>
</g>
<!-- Node2&#45;&gt;Node3 -->
<g id="edge2" class="edge">
<title>Node2&#45;&gt;Node3</title>
<path fill="none" stroke="midnightblue" d="M872,-291.08C872,-284.01 872,-273.86 872,-264.99"/>
<polygon fill="midnightblue" stroke="midnightblue" points="875.5,-264.75 872,-254.75 868.5,-264.75 875.5,-264.75"/>
</g>
<!-- Node24 -->
<g id="node24" class="node">
<title>Node24</title>
<g id="a_node24"><a xlink:title=" ">
<polygon fill="white" stroke="#bfbfbf" points="718.5,-235.5 718.5,-254.5 785.5,-254.5 785.5,-235.5 718.5,-235.5"/>
<text text-anchor="middle" x="752" y="-242.5" font-family="Helvetica,sans-Serif" font-size="10.00">globals.hh</text>
</a>
</g>
</g>
<!-- Node2&#45;&gt;Node24 -->
<g id="edge27" class="edge">
<title>Node2&#45;&gt;Node24</title>
<path fill="none" stroke="midnightblue" d="M852.99,-291.44C833.41,-282.64 802.69,-268.81 780.27,-258.72"/>
<polygon fill="midnightblue" stroke="midnightblue" points="781.48,-255.43 770.93,-254.52 778.61,-261.81 781.48,-255.43"/>
</g>
<!-- Node4 -->
<g id="node4" class="node">
<title>Node4</title>
<g id="a_node4"><a xlink:href="abc_detector_component_8hh.html" target="_top" xlink:title="Provides helper base class abcDetectorComponent for constructing and managing detector components in ...">
<polygon fill="white" stroke="black" points="350.5,-123.5 350.5,-142.5 497.5,-142.5 497.5,-123.5 350.5,-123.5"/>
<text text-anchor="middle" x="424" y="-130.5" font-family="Helvetica,sans-Serif" font-size="10.00">abcDetectorComponent.hh</text>
</a>
</g>
</g>
<!-- Node3&#45;&gt;Node4 -->
<g id="edge3" class="edge">
<title>Node3&#45;&gt;Node4</title>
<path fill="none" stroke="midnightblue" d="M805.66,-235.5C733.73,-225.96 623.73,-210.33 583,-199 534.78,-185.59 481.44,-161.82 450.43,-147.05"/>
<polygon fill="midnightblue" stroke="midnightblue" points="451.7,-143.78 441.18,-142.59 448.67,-150.08 451.7,-143.78"/>
</g>
<!-- Node13 -->
<g id="node13" class="node">
<title>Node13</title>
<g id="a_node13"><a xlink:href="_o_m_sim_hit_manager_8hh.html" target="_top" xlink:title="Defines structures and classes related to optical module photon hit management.">
<polygon fill="white" stroke="black" points="830.5,-179.5 830.5,-198.5 953.5,-198.5 953.5,-179.5 830.5,-179.5"/>
<text text-anchor="middle" x="892" y="-186.5" font-family="Helvetica,sans-Serif" font-size="10.00">OMSimHitManager.hh</text>
</a>
</g>
</g>
<!-- Node3&#45;&gt;Node13 -->
<g id="edge12" class="edge">
<title>Node3&#45;&gt;Node13</title>
<path fill="none" stroke="midnightblue" d="M875.3,-235.08C877.98,-227.85 881.85,-217.41 885.19,-208.4"/>
<polygon fill="midnightblue" stroke="midnightblue" points="888.57,-209.34 888.76,-198.75 882,-206.91 888.57,-209.34"/>
</g>
<!-- Node21 -->
<g id="node21" class="node">
<title>Node21</title>
<g id="a_node21"><a xlink:href="_o_m_sim_p_m_t_construction_8hh.html" target="_top" xlink:title="Construction of the PMTs.">
<polygon fill="white" stroke="black" points="591.5,-179.5 591.5,-198.5 740.5,-198.5 740.5,-179.5 591.5,-179.5"/>
<text text-anchor="middle" x="666" y="-186.5" font-family="Helvetica,sans-Serif" font-size="10.00">OMSimPMTConstruction.hh</text>
</a>
</g>
</g>
<!-- Node3&#45;&gt;Node21 -->
<g id="edge21" class="edge">
<title>Node3&#45;&gt;Node21</title>
<path fill="none" stroke="midnightblue" d="M839.36,-235.44C803.95,-226.16 747.29,-211.31 708.45,-201.13"/>
<polygon fill="midnightblue" stroke="midnightblue" points="709.05,-197.67 698.49,-198.52 707.27,-204.44 709.05,-197.67"/>
</g>
<!-- Node5 -->
<g id="node5" class="node">
<title>Node5</title>
<g id="a_node5"><a xlink:href="_o_m_sim_input_data_8hh.html" target="_top" xlink:title="Definition of ParameterTable and InputDataManager.">
<polygon fill="white" stroke="black" points="523.5,-67.5 523.5,-86.5 638.5,-86.5 638.5,-67.5 523.5,-67.5"/>
<text text-anchor="middle" x="581" y="-74.5" font-family="Helvetica,sans-Serif" font-size="10.00">OMSimInputData.hh</text>
</a>
</g>
</g>
<!-- Node4&#45;&gt;Node5 -->
<g id="edge4" class="edge">
<title>Node4&#45;&gt;Node5</title>
<path fill="none" stroke="midnightblue" d="M448.88,-123.44C475.29,-114.36 517.22,-99.94 546.74,-89.78"/>
<polygon fill="midnightblue" stroke="midnightblue" points="547.92,-93.08 556.24,-86.52 545.64,-86.46 547.92,-93.08"/>
</g>
<!-- Node9 -->
<g id="node9" class="node">
<title>Node9</title>
<g id="a_node9"><a xlink:title=" ">
<polygon fill="white" stroke="#bfbfbf" points="398.5,-67.5 398.5,-86.5 505.5,-86.5 505.5,-67.5 398.5,-67.5"/>
<text text-anchor="middle" x="452" y="-74.5" font-family="Helvetica,sans-Serif" font-size="10.00">G4Transform3D.hh</text>
</a>
</g>
</g>
<!-- Node4&#45;&gt;Node9 -->
<g id="edge8" class="edge">
<title>Node4&#45;&gt;Node9</title>
<path fill="none" stroke="midnightblue" d="M428.62,-123.08C432.46,-115.69 438.02,-104.95 442.76,-95.81"/>
<polygon fill="midnightblue" stroke="midnightblue" points="445.97,-97.24 447.46,-86.75 439.75,-94.02 445.97,-97.24"/>
</g>
<!-- Node10 -->
<g id="node10" class="node">
<title>Node10</title>
<g id="a_node10"><a xlink:title=" ">
<polygon fill="white" stroke="#bfbfbf" points="0,-67.5 0,-86.5 108,-86.5 108,-67.5 0,-67.5"/>
<text text-anchor="middle" x="54" y="-74.5" font-family="Helvetica,sans-Serif" font-size="10.00">G4VisAttributes.hh</text>
</a>
</g>
</g>
<!-- Node4&#45;&gt;Node10 -->
<g id="edge9" class="edge">
<title>Node4&#45;&gt;Node10</title>
<path fill="none" stroke="midnightblue" d="M365.37,-123.44C297.98,-113.61 187.73,-97.52 118.11,-87.36"/>
<polygon fill="midnightblue" stroke="midnightblue" points="118.54,-83.88 108.14,-85.9 117.53,-90.81 118.54,-83.88"/>
</g>
<!-- Node11 -->
<g id="node11" class="node">
<title>Node11</title>
<g id="a_node11"><a xlink:title=" ">
<polygon fill="white" stroke="#bfbfbf" points="126.5,-67.5 126.5,-86.5 251.5,-86.5 251.5,-67.5 126.5,-67.5"/>
<text text-anchor="middle" x="189" y="-74.5" font-family="Helvetica,sans-Serif" font-size="10.00">G4SubtractionSolid.hh</text>
</a>
</g>
</g>
<!-- Node4&#45;&gt;Node11 -->
<g id="edge10" class="edge">
<title>Node4&#45;&gt;Node11</title>
<path fill="none" stroke="midnightblue" d="M386.76,-123.44C345.94,-114.06 280.36,-98.99 236.02,-88.8"/>
<polygon fill="midnightblue" stroke="midnightblue" points="236.59,-85.34 226.06,-86.52 235.02,-92.17 236.59,-85.34"/>
</g>
<!-- Node12 -->
<g id="node12" class="node">
<title>Node12</title>
<g id="a_node12"><a xlink:title=" ">
<polygon fill="white" stroke="#bfbfbf" points="270,-67.5 270,-86.5 380,-86.5 380,-67.5 270,-67.5"/>
<text text-anchor="middle" x="325" y="-74.5" font-family="Helvetica,sans-Serif" font-size="10.00">G4PVPlacement.hh</text>
</a>
</g>
</g>
<!-- Node4&#45;&gt;Node12 -->
<g id="edge11" class="edge">
<title>Node4&#45;&gt;Node12</title>
<path fill="none" stroke="midnightblue" d="M408.09,-123.32C392.36,-114.74 368.06,-101.49 349.79,-91.52"/>
<polygon fill="midnightblue" stroke="midnightblue" points="351.32,-88.37 340.87,-86.65 347.97,-94.52 351.32,-88.37"/>
</g>
<!-- Node6 -->
<g id="node6" class="node">
<title>Node6</title>
<g id="a_node6"><a xlink:title=" ">
<polygon fill="white" stroke="#bfbfbf" points="436.5,-6 436.5,-25 579.5,-25 579.5,-6 436.5,-6"/>
<text text-anchor="middle" x="508" y="-13" font-family="Helvetica,sans-Serif" font-size="10.00">G4OpBoundaryProcess.hh</text>
</a>
</g>
</g>
<!-- Node5&#45;&gt;Node6 -->
<g id="edge5" class="edge">
<title>Node5&#45;&gt;Node6</title>
<path fill="none" stroke="midnightblue" d="M570.54,-67.48C559.05,-58.11 540.37,-42.88 526.41,-31.51"/>
<polygon fill="midnightblue" stroke="midnightblue" points="528.4,-28.61 518.44,-25.01 523.98,-34.04 528.4,-28.61"/>
</g>
<!-- Node5&#45;&gt;Node7 -->
<g id="edge6" class="edge">
<title>Node5&#45;&gt;Node7</title>
<path fill="none" stroke="midnightblue" d="M635.87,-67.48C705.41,-56.67 825.1,-38.08 899.1,-26.58"/>
<polygon fill="midnightblue" stroke="midnightblue" points="899.88,-30 909.23,-25.01 898.81,-23.09 899.88,-30"/>
</g>
<!-- Node8 -->
<g id="node8" class="node">
<title>Node8</title>
<g id="a_node8"><a xlink:title=" ">
<polygon fill="white" stroke="#bfbfbf" points="597.5,-0.5 597.5,-30.5 710.5,-30.5 710.5,-0.5 597.5,-0.5"/>
<text text-anchor="start" x="605.5" y="-18.5" font-family="Helvetica,sans-Serif" font-size="10.00">boost/property_tree</text>
<text text-anchor="middle" x="654" y="-7.5" font-family="Helvetica,sans-Serif" font-size="10.00">/json_parser.hpp</text>
</a>
</g>
</g>
<!-- Node5&#45;&gt;Node8 -->
<g id="edge7" class="edge">
<title>Node5&#45;&gt;Node8</title>
<path fill="none" stroke="midnightblue" d="M591.46,-67.48C601.16,-59.57 615.99,-47.48 628.77,-37.07"/>
<polygon fill="midnightblue" stroke="midnightblue" points="631.26,-39.55 636.8,-30.52 626.83,-34.13 631.26,-39.55"/>
</g>
<!-- Node14 -->
<g id="node14" class="node">
<title>Node14</title>
<g id="a_node14"><a xlink:href="_o_m_sim_p_m_t_response_8hh.html" target="_top" xlink:title="Provides simulation for PMT response. This class is responsible for transforming hits on photocathode...">
<polygon fill="white" stroke="black" points="717.5,-123.5 717.5,-142.5 852.5,-142.5 852.5,-123.5 717.5,-123.5"/>
<text text-anchor="middle" x="785" y="-130.5" font-family="Helvetica,sans-Serif" font-size="10.00">OMSimPMTResponse.hh</text>
</a>
</g>
</g>
<!-- Node13&#45;&gt;Node14 -->
<g id="edge13" class="edge">
<title>Node13&#45;&gt;Node14</title>
<path fill="none" stroke="midnightblue" d="M874.81,-179.32C857.65,-170.66 831.05,-157.24 811.25,-147.25"/>
<polygon fill="midnightblue" stroke="midnightblue" points="812.65,-144.04 802.15,-142.65 809.5,-150.28 812.65,-144.04"/>
</g>
<!-- Node19 -->
<g id="node19" class="node">
<title>Node19</title>
<g id="a_node19"><a xlink:title=" ">
<polygon fill="white" stroke="#bfbfbf" points="870.5,-123.5 870.5,-142.5 973.5,-142.5 973.5,-123.5 870.5,-123.5"/>
<text text-anchor="middle" x="922" y="-130.5" font-family="Helvetica,sans-Serif" font-size="10.00">G4ThreeVector.hh</text>
</a>
</g>
</g>
<!-- Node13&#45;&gt;Node19 -->
<g id="edge19" class="edge">
<title>Node13&#45;&gt;Node19</title>
<path fill="none" stroke="midnightblue" d="M896.95,-179.08C901.1,-171.61 907.15,-160.72 912.27,-151.52"/>
<polygon fill="midnightblue" stroke="midnightblue" points="915.34,-153.19 917.14,-142.75 909.22,-149.79 915.34,-153.19"/>
</g>
<!-- Node20 -->
<g id="node20" class="node">
<title>Node20</title>
<g id="a_node20"><a xlink:title=" ">
<polygon fill="white" stroke="#bfbfbf" points="1030.5,-123.5 1030.5,-142.5 1085.5,-142.5 1085.5,-123.5 1030.5,-123.5"/>
<text text-anchor="middle" x="1058" y="-130.5" font-family="Helvetica,sans-Serif" font-size="10.00">fstream</text>
</a>
</g>
</g>
<!-- Node13&#45;&gt;Node20 -->
<g id="edge20" class="edge">
<title>Node13&#45;&gt;Node20</title>
<path fill="none" stroke="midnightblue" d="M918.3,-179.44C946.35,-170.32 990.94,-155.81 1022.18,-145.65"/>
<polygon fill="midnightblue" stroke="midnightblue" points="1023.39,-148.94 1031.82,-142.52 1021.23,-142.28 1023.39,-148.94"/>
</g>
<!-- Node14&#45;&gt;Node7 -->
<g id="edge14" class="edge">
<title>Node14&#45;&gt;Node7</title>
<path fill="none" stroke="midnightblue" d="M835.13,-123.47C876.06,-115.53 929.58,-102.59 945,-87 958.49,-73.37 962.67,-51.23 963.83,-35.39"/>
<polygon fill="midnightblue" stroke="midnightblue" points="967.34,-35.32 964.24,-25.19 960.34,-35.05 967.34,-35.32"/>
</g>
<!-- Node15 -->
<g id="node15" class="node">
<title>Node15</title>
<g id="a_node15"><a xlink:title=" ">
<polygon fill="white" stroke="#bfbfbf" points="806.5,-67.5 806.5,-86.5 879.5,-86.5 879.5,-67.5 806.5,-67.5"/>
<text text-anchor="middle" x="843" y="-74.5" font-family="Helvetica,sans-Serif" font-size="10.00">G4Types.hh</text>
</a>
</g>
</g>
<!-- Node14&#45;&gt;Node15 -->
<g id="edge15" class="edge">
<title>Node14&#45;&gt;Node15</title>
<path fill="none" stroke="midnightblue" d="M794.32,-123.32C802.89,-115.34 815.81,-103.31 826.19,-93.65"/>
<polygon fill="midnightblue" stroke="midnightblue" points="828.58,-96.21 833.51,-86.83 823.81,-91.09 828.58,-96.21"/>
</g>
<!-- Node16 -->
<g id="node16" class="node">
<title>Node16</title>
<g id="a_node16"><a xlink:title=" ">
<polygon fill="white" stroke="#bfbfbf" points="898,-67.5 898,-86.5 936,-86.5 936,-67.5 898,-67.5"/>
<text text-anchor="middle" x="917" y="-74.5" font-family="Helvetica,sans-Serif" font-size="10.00">map</text>
</a>
</g>
</g>
<!-- Node14&#45;&gt;Node16 -->
<g id="edge16" class="edge">
<title>Node14&#45;&gt;Node16</title>
<path fill="none" stroke="midnightblue" d="M805.92,-123.44C828.25,-114.31 863.78,-99.77 888.62,-89.61"/>
<polygon fill="midnightblue" stroke="midnightblue" points="889.97,-92.84 897.9,-85.82 887.32,-86.36 889.97,-92.84"/>
</g>
<!-- Node17 -->
<g id="node17" class="node">
<title>Node17</title>
<g id="a_node17"><a xlink:title=" ">
<polygon fill="white" stroke="#bfbfbf" points="656.5,-67.5 656.5,-86.5 717.5,-86.5 717.5,-67.5 656.5,-67.5"/>
<text text-anchor="middle" x="687" y="-74.5" font-family="Helvetica,sans-Serif" font-size="10.00">TGraph.h</text>
</a>
</g>
</g>
<!-- Node14&#45;&gt;Node17 -->
<g id="edge17" class="edge">
<title>Node14&#45;&gt;Node17</title>
<path fill="none" stroke="midnightblue" d="M769.25,-123.32C753.68,-114.74 729.62,-101.49 711.54,-91.52"/>
<polygon fill="midnightblue" stroke="midnightblue" points="713.15,-88.42 702.71,-86.65 709.78,-94.55 713.15,-88.42"/>
</g>
<!-- Node18 -->
<g id="node18" class="node">
<title>Node18</title>
<g id="a_node18"><a xlink:title=" ">
<polygon fill="white" stroke="#bfbfbf" points="735.5,-67.5 735.5,-86.5 788.5,-86.5 788.5,-67.5 735.5,-67.5"/>
<text text-anchor="middle" x="762" y="-74.5" font-family="Helvetica,sans-Serif" font-size="10.00">TH2D.h</text>
</a>
</g>
</g>
<!-- Node14&#45;&gt;Node18 -->
<g id="edge18" class="edge">
<title>Node14&#45;&gt;Node18</title>
<path fill="none" stroke="midnightblue" d="M781.2,-123.08C778.09,-115.77 773.58,-105.18 769.71,-96.1"/>
<polygon fill="midnightblue" stroke="midnightblue" points="772.87,-94.58 765.73,-86.75 766.43,-97.32 772.87,-94.58"/>
</g>
<!-- Node21&#45;&gt;Node4 -->
<g id="edge22" class="edge">
<title>Node21&#45;&gt;Node4</title>
<path fill="none" stroke="midnightblue" d="M627.65,-179.44C585.53,-170.04 517.79,-154.93 472.13,-144.74"/>
<polygon fill="midnightblue" stroke="midnightblue" points="472.69,-141.28 462.17,-142.52 471.16,-148.11 472.69,-141.28"/>
</g>
<!-- Node21&#45;&gt;Node14 -->
<g id="edge24" class="edge">
<title>Node21&#45;&gt;Node14</title>
<path fill="none" stroke="midnightblue" d="M684.86,-179.44C704.27,-170.64 734.73,-156.81 756.96,-146.72"/>
<polygon fill="midnightblue" stroke="midnightblue" points="758.57,-149.84 766.23,-142.52 755.68,-143.46 758.57,-149.84"/>
</g>
<!-- Node21&#45;&gt;Node21 -->
<g id="edge23" class="edge">
<title>Node21&#45;&gt;Node21</title>
<path fill="none" stroke="midnightblue" d="M705.45,-198.53C732.26,-201.31 758.5,-198.13 758.5,-189 758.5,-181.01 738.41,-177.58 715.43,-178.71"/>
<polygon fill="midnightblue" stroke="midnightblue" points="715.15,-175.22 705.45,-179.47 715.69,-182.2 715.15,-175.22"/>
</g>
<!-- Node22 -->
<g id="node22" class="node">
<title>Node22</title>
<g id="a_node22"><a xlink:title=" ">
<polygon fill="white" stroke="#bfbfbf" points="516,-123.5 516,-142.5 614,-142.5 614,-123.5 516,-123.5"/>
<text text-anchor="middle" x="565" y="-130.5" font-family="Helvetica,sans-Serif" font-size="10.00">G4UnionSolid.hh</text>
</a>
</g>
</g>
<!-- Node21&#45;&gt;Node22 -->
<g id="edge25" class="edge">
<title>Node21&#45;&gt;Node22</title>
<path fill="none" stroke="midnightblue" d="M649.77,-179.32C633.65,-170.7 608.7,-157.36 590.04,-147.39"/>
<polygon fill="midnightblue" stroke="midnightblue" points="591.66,-144.28 581.19,-142.65 588.36,-150.46 591.66,-144.28"/>
</g>
<!-- Node23 -->
<g id="node23" class="node">
<title>Node23</title>
<g id="a_node23"><a xlink:title=" ">
<polygon fill="white" stroke="#bfbfbf" points="632.5,-123.5 632.5,-142.5 699.5,-142.5 699.5,-123.5 632.5,-123.5"/>
<text text-anchor="middle" x="666" y="-130.5" font-family="Helvetica,sans-Serif" font-size="10.00">G4Tubs.hh</text>
</a>
</g>
</g>
<!-- Node21&#45;&gt;Node23 -->
<g id="edge26" class="edge">
<title>Node21&#45;&gt;Node23</title>
<path fill="none" stroke="midnightblue" d="M666,-179.08C666,-172.01 666,-161.86 666,-152.99"/>
<polygon fill="midnightblue" stroke="midnightblue" points="669.5,-152.75 666,-142.75 662.5,-152.75 669.5,-152.75"/>
</g>
<!-- Node26 -->
<g id="node26" class="node">
<title>Node26</title>
<g id="a_node26"><a xlink:href="_o_m_sim_command_args_table_8hh.html" target="_top" xlink:title="Definition of the OMSimCommandArgsTable singleton class, which controls user args.">
<polygon fill="white" stroke="black" points="1152,-235.5 1152,-254.5 1316,-254.5 1316,-235.5 1152,-235.5"/>
<text text-anchor="middle" x="1234" y="-242.5" font-family="Helvetica,sans-Serif" font-size="10.00">OMSimCommandArgsTable.hh</text>
</a>
</g>
</g>
<!-- Node25&#45;&gt;Node26 -->
<g id="edge29" class="edge">
<title>Node25&#45;&gt;Node26</title>
<path fill="none" stroke="midnightblue" d="M1113.66,-291.44C1137.4,-282.48 1174.91,-268.31 1201.74,-258.18"/>
<polygon fill="midnightblue" stroke="midnightblue" points="1203.33,-261.32 1211.45,-254.52 1200.86,-254.77 1203.33,-261.32"/>
</g>
<!-- Node32 -->
<g id="node32" class="node">
<title>Node32</title>
<g id="a_node32"><a xlink:title=" ">
<polygon fill="white" stroke="#bfbfbf" points="1036,-235.5 1036,-254.5 1134,-254.5 1134,-235.5 1036,-235.5"/>
<text text-anchor="middle" x="1085" y="-242.5" font-family="Helvetica,sans-Serif" font-size="10.00">G4UImanager.hh</text>
</a>
</g>
</g>
<!-- Node25&#45;&gt;Node32 -->
<g id="edge36" class="edge">
<title>Node25&#45;&gt;Node32</title>
<path fill="none" stroke="midnightblue" d="M1090.01,-291.08C1089.21,-283.93 1088.07,-273.64 1087.08,-264.69"/>
<polygon fill="midnightblue" stroke="midnightblue" points="1090.56,-264.3 1085.97,-254.75 1083.6,-265.08 1090.56,-264.3"/>
</g>
<!-- Node26&#45;&gt;Node20 -->
<g id="edge33" class="edge">
<title>Node26&#45;&gt;Node20</title>
<path fill="none" stroke="midnightblue" d="M1151.6,-235.86C1125.18,-229.49 1097.7,-218.36 1078,-199 1065.77,-186.99 1060.98,-167.69 1059.12,-153.24"/>
<polygon fill="midnightblue" stroke="midnightblue" points="1062.58,-152.56 1058.18,-142.92 1055.61,-153.2 1062.58,-152.56"/>
</g>
<!-- Node27 -->
<g id="node27" class="node">
<title>Node27</title>
<g id="a_node27"><a xlink:href="_o_m_sim_logger_8hh.html" target="_top" xlink:title=" ">
<polygon fill="white" stroke="black" points="1086.5,-179.5 1086.5,-198.5 1185.5,-198.5 1185.5,-179.5 1086.5,-179.5"/>
<text text-anchor="middle" x="1136" y="-186.5" font-family="Helvetica,sans-Serif" font-size="10.00">OMSimLogger.hh</text>
</a>
</g>
</g>
<!-- Node26&#45;&gt;Node27 -->
<g id="edge30" class="edge">
<title>Node26&#45;&gt;Node27</title>
<path fill="none" stroke="midnightblue" d="M1218.25,-235.32C1202.68,-226.74 1178.62,-213.49 1160.54,-203.52"/>
<polygon fill="midnightblue" stroke="midnightblue" points="1162.15,-200.42 1151.71,-198.65 1158.78,-206.55 1162.15,-200.42"/>
</g>
<!-- Node30 -->
<g id="node30" class="node">
<title>Node30</title>
<g id="a_node30"><a xlink:title=" ">
<polygon fill="white" stroke="#bfbfbf" points="1204,-179.5 1204,-198.5 1288,-198.5 1288,-179.5 1204,-179.5"/>
<text text-anchor="middle" x="1246" y="-186.5" font-family="Helvetica,sans-Serif" font-size="10.00">boost/any.hpp</text>
</a>
</g>
</g>
<!-- Node26&#45;&gt;Node30 -->
<g id="edge34" class="edge">
<title>Node26&#45;&gt;Node30</title>
<path fill="none" stroke="midnightblue" d="M1235.98,-235.08C1237.57,-227.93 1239.86,-217.64 1241.85,-208.69"/>
<polygon fill="midnightblue" stroke="midnightblue" points="1245.3,-209.27 1244.06,-198.75 1238.47,-207.75 1245.3,-209.27"/>
</g>
<!-- Node31 -->
<g id="node31" class="node">
<title>Node31</title>
<g id="a_node31"><a xlink:title=" ">
<polygon fill="white" stroke="#bfbfbf" points="1306,-179.5 1306,-198.5 1374,-198.5 1374,-179.5 1306,-179.5"/>
<text text-anchor="middle" x="1340" y="-186.5" font-family="Helvetica,sans-Serif" font-size="10.00">sys/time.h</text>
</a>
</g>
</g>
<!-- Node26&#45;&gt;Node31 -->
<g id="edge35" class="edge">
<title>Node26&#45;&gt;Node31</title>
<path fill="none" stroke="midnightblue" d="M1251.03,-235.32C1268.03,-226.66 1294.38,-213.24 1313.99,-203.25"/>
<polygon fill="midnightblue" stroke="midnightblue" points="1315.69,-206.31 1323.01,-198.65 1312.51,-200.08 1315.69,-206.31"/>
</g>
<!-- Node28 -->
<g id="node28" class="node">
<title>Node28</title>
<g id="a_node28"><a xlink:title=" ">
<polygon fill="white" stroke="#bfbfbf" points="1174,-123.5 1174,-142.5 1224,-142.5 1224,-123.5 1174,-123.5"/>
<text text-anchor="middle" x="1199" y="-130.5" font-family="Helvetica,sans-Serif" font-size="10.00">stdio.h</text>
</a>
</g>
</g>
<!-- Node27&#45;&gt;Node28 -->
<g id="edge31" class="edge">
<title>Node27&#45;&gt;Node28</title>
<path fill="none" stroke="midnightblue" d="M1146.12,-179.32C1155.53,-171.26 1169.74,-159.08 1181.07,-149.37"/>
<polygon fill="midnightblue" stroke="midnightblue" points="1183.38,-152 1188.69,-142.83 1178.82,-146.68 1183.38,-152"/>
</g>
<!-- Node29 -->
<g id="node29" class="node">
<title>Node29</title>
<g id="a_node29"><a xlink:title=" ">
<polygon fill="white" stroke="#bfbfbf" points="1108,-123.5 1108,-142.5 1156,-142.5 1156,-123.5 1108,-123.5"/>
<text text-anchor="middle" x="1132" y="-130.5" font-family="Helvetica,sans-Serif" font-size="10.00">time.h</text>
</a>
</g>
</g>
<!-- Node27&#45;&gt;Node29 -->
<g id="edge32" class="edge">
<title>Node27&#45;&gt;Node29</title>
<path fill="none" stroke="midnightblue" d="M1135.34,-179.08C1134.82,-172.01 1134.06,-161.86 1133.41,-152.99"/>
<polygon fill="midnightblue" stroke="midnightblue" points="1136.88,-152.47 1132.65,-142.75 1129.9,-152.98 1136.88,-152.47"/>
</g>
</g>
</svg>
