<?xml version="1.0" encoding="UTF-8" standalone="no"?>
<!DOCTYPE svg PUBLIC "-//W3C//DTD SVG 1.1//EN"
 "http://www.w3.org/Graphics/SVG/1.1/DTD/svg11.dtd">
<!-- Generated by graphviz version 2.43.0 (0)
 -->
<!-- Title: OMSimPDOM.cc Pages: 1 -->
<svg width="1649pt" height="442pt"
 viewBox="0.00 0.00 1648.50 442.00" xmlns="http://www.w3.org/2000/svg" xmlns:xlink="http://www.w3.org/1999/xlink">
<g id="graph0" class="graph" transform="scale(1 1) rotate(0) translate(4 438)">
<title>OMSimPDOM.cc</title>
<polygon fill="white" stroke="transparent" points="-4,4 -4,-438 1644.5,-438 1644.5,4 -4,4"/>
<!-- Node1 -->
<g id="node1" class="node">
<title>Node1</title>
<g id="a_node1"><a xlink:title=" ">
<polygon fill="#bfbfbf" stroke="black" points="1206.5,-414.5 1206.5,-433.5 1301.5,-433.5 1301.5,-414.5 1206.5,-414.5"/>
<text text-anchor="middle" x="1254" y="-421.5" font-family="Helvetica,sans-Serif" font-size="10.00">OMSimPDOM.cc</text>
</a>
</g>
</g>
<!-- Node2 -->
<g id="node2" class="node">
<title>Node2</title>
<g id="a_node2"><a xlink:href="_o_m_sim_p_d_o_m_8hh.html" target="_top" xlink:title="Implementation of the pDOM/Gen1 DOM class.">
<polygon fill="white" stroke="black" points="546.5,-358.5 546.5,-377.5 643.5,-377.5 643.5,-358.5 546.5,-358.5"/>
<text text-anchor="middle" x="595" y="-365.5" font-family="Helvetica,sans-Serif" font-size="10.00">OMSimPDOM.hh</text>
</a>
</g>
</g>
<!-- Node1&#45;&gt;Node2 -->
<g id="edge1" class="edge">
<title>Node1&#45;&gt;Node2</title>
<path fill="none" stroke="midnightblue" d="M1206.34,-419.09C1088.32,-409.42 782.71,-384.38 653.77,-373.82"/>
<polygon fill="midnightblue" stroke="midnightblue" points="653.94,-370.32 643.69,-372.99 653.37,-377.29 653.94,-370.32"/>
</g>
<!-- Node6 -->
<g id="node6" class="node">
<title>Node6</title>
<g id="a_node6"><a xlink:href="_o_m_sim_logger_8hh.html" target="_top" xlink:title=" ">
<polygon fill="white" stroke="black" points="993.5,-73 993.5,-92 1092.5,-92 1092.5,-73 993.5,-73"/>
<text text-anchor="middle" x="1043" y="-80" font-family="Helvetica,sans-Serif" font-size="10.00">OMSimLogger.hh</text>
</a>
</g>
</g>
<!-- Node1&#45;&gt;Node6 -->
<g id="edge33" class="edge">
<title>Node1&#45;&gt;Node6</title>
<path fill="none" stroke="midnightblue" d="M1240.08,-414.31C1228.3,-406.27 1211.81,-393.27 1202,-378 1185.74,-352.68 1183,-343.1 1183,-313 1183,-313 1183,-313 1183,-199 1183,-145.33 1121.01,-111.94 1079.53,-95.61"/>
<polygon fill="midnightblue" stroke="midnightblue" points="1080.59,-92.27 1069.99,-92.01 1078.11,-98.82 1080.59,-92.27"/>
</g>
<!-- Node29 -->
<g id="node29" class="node">
<title>Node29</title>
<g id="a_node29"><a xlink:href="_o_m_sim_command_args_table_8hh.html" target="_top" xlink:title="Definition of the OMSimCommandArgsTable singleton class, which controls user args.">
<polygon fill="white" stroke="black" points="961,-246.5 961,-265.5 1125,-265.5 1125,-246.5 961,-246.5"/>
<text text-anchor="middle" x="1043" y="-253.5" font-family="Helvetica,sans-Serif" font-size="10.00">OMSimCommandArgsTable.hh</text>
</a>
</g>
</g>
<!-- Node1&#45;&gt;Node29 -->
<g id="edge34" class="edge">
<title>Node1&#45;&gt;Node29</title>
<path fill="none" stroke="midnightblue" d="M1234.2,-414.44C1216.36,-406.29 1189.84,-393.07 1169,-378 1124.37,-345.73 1079.66,-298.36 1057.44,-273.55"/>
<polygon fill="midnightblue" stroke="midnightblue" points="1059.8,-270.94 1050.55,-265.77 1054.56,-275.58 1059.8,-270.94"/>
</g>
<!-- Node32 -->
<g id="node32" class="node">
<title>Node32</title>
<g id="a_node32"><a xlink:title=" ">
<polygon fill="white" stroke="#bfbfbf" points="1211,-358.5 1211,-377.5 1297,-377.5 1297,-358.5 1211,-358.5"/>
<text text-anchor="middle" x="1254" y="-365.5" font-family="Helvetica,sans-Serif" font-size="10.00">G4Ellipsoid.hh</text>
</a>
</g>
</g>
<!-- Node1&#45;&gt;Node32 -->
<g id="edge39" class="edge">
<title>Node1&#45;&gt;Node32</title>
<path fill="none" stroke="midnightblue" d="M1254,-414.08C1254,-407.01 1254,-396.86 1254,-387.99"/>
<polygon fill="midnightblue" stroke="midnightblue" points="1257.5,-387.75 1254,-377.75 1250.5,-387.75 1257.5,-387.75"/>
</g>
<!-- Node33 -->
<g id="node33" class="node">
<title>Node33</title>
<g id="a_node33"><a xlink:title=" ">
<polygon fill="white" stroke="#bfbfbf" points="1315.5,-358.5 1315.5,-377.5 1452.5,-377.5 1452.5,-358.5 1315.5,-358.5"/>
<text text-anchor="middle" x="1384" y="-365.5" font-family="Helvetica,sans-Serif" font-size="10.00">G4LogicalSkinSurface.hh</text>
</a>
</g>
</g>
<!-- Node1&#45;&gt;Node33 -->
<g id="edge40" class="edge">
<title>Node1&#45;&gt;Node33</title>
<path fill="none" stroke="midnightblue" d="M1274.6,-414.44C1295.99,-405.56 1329.68,-391.56 1354.02,-381.45"/>
<polygon fill="midnightblue" stroke="midnightblue" points="1355.61,-384.58 1363.5,-377.52 1352.92,-378.12 1355.61,-384.58"/>
</g>
<!-- Node34 -->
<g id="node34" class="node">
<title>Node34</title>
<g id="a_node34"><a xlink:title=" ">
<polygon fill="white" stroke="#bfbfbf" points="1471,-358.5 1471,-377.5 1533,-377.5 1533,-358.5 1471,-358.5"/>
<text text-anchor="middle" x="1502" y="-365.5" font-family="Helvetica,sans-Serif" font-size="10.00">G4Orb.hh</text>
</a>
</g>
</g>
<!-- Node1&#45;&gt;Node34 -->
<g id="edge41" class="edge">
<title>Node1&#45;&gt;Node34</title>
<path fill="none" stroke="midnightblue" d="M1293.9,-414.47C1333.74,-405.93 1397,-392.31 1461.12,-378.18"/>
<polygon fill="midnightblue" stroke="midnightblue" points="1461.99,-381.57 1471,-376 1460.48,-374.74 1461.99,-381.57"/>
</g>
<!-- Node35 -->
<g id="node35" class="node">
<title>Node35</title>
<g id="a_node35"><a xlink:title=" ">
<polygon fill="white" stroke="#bfbfbf" points="1551.5,-358.5 1551.5,-377.5 1640.5,-377.5 1640.5,-358.5 1551.5,-358.5"/>
<text text-anchor="middle" x="1596" y="-365.5" font-family="Helvetica,sans-Serif" font-size="10.00">G4Polycone.hh</text>
</a>
</g>
</g>
<!-- Node1&#45;&gt;Node35 -->
<g id="edge42" class="edge">
<title>Node1&#45;&gt;Node35</title>
<path fill="none" stroke="midnightblue" d="M1301.67,-415.7C1356.8,-407.23 1450.56,-392.72 1541.31,-378.1"/>
<polygon fill="midnightblue" stroke="midnightblue" points="1541.9,-381.55 1551.22,-376.5 1540.79,-374.64 1541.9,-381.55"/>
</g>
<!-- Node3 -->
<g id="node3" class="node">
<title>Node3</title>
<g id="a_node3"><a xlink:href="_o_m_sim_p_m_t_construction_8hh.html" target="_top" xlink:title="Construction of the PMTs.">
<polygon fill="white" stroke="black" points="400.5,-246.5 400.5,-265.5 549.5,-265.5 549.5,-246.5 400.5,-246.5"/>
<text text-anchor="middle" x="475" y="-253.5" font-family="Helvetica,sans-Serif" font-size="10.00">OMSimPMTConstruction.hh</text>
</a>
</g>
</g>
<!-- Node2&#45;&gt;Node3 -->
<g id="edge2" class="edge">
<title>Node2&#45;&gt;Node3</title>
<path fill="none" stroke="midnightblue" d="M574.36,-358.4C557.53,-350.66 533.88,-338.05 517,-322 502.74,-308.44 491.05,-289.12 483.66,-275.07"/>
<polygon fill="midnightblue" stroke="midnightblue" points="486.68,-273.29 479.06,-265.93 480.43,-276.44 486.68,-273.29"/>
</g>
<!-- Node25 -->
<g id="node25" class="node">
<title>Node25</title>
<g id="a_node25"><a xlink:href="_o_m_sim_optical_module_8hh.html" target="_top" xlink:title=" ">
<polygon fill="white" stroke="black" points="526.5,-302.5 526.5,-321.5 663.5,-321.5 663.5,-302.5 526.5,-302.5"/>
<text text-anchor="middle" x="595" y="-309.5" font-family="Helvetica,sans-Serif" font-size="10.00">OMSimOpticalModule.hh</text>
</a>
</g>
</g>
<!-- Node2&#45;&gt;Node25 -->
<g id="edge26" class="edge">
<title>Node2&#45;&gt;Node25</title>
<path fill="none" stroke="midnightblue" d="M595,-358.08C595,-351.01 595,-340.86 595,-331.99"/>
<polygon fill="midnightblue" stroke="midnightblue" points="598.5,-331.75 595,-321.75 591.5,-331.75 598.5,-331.75"/>
</g>
<!-- Node3&#45;&gt;Node3 -->
<g id="edge17" class="edge">
<title>Node3&#45;&gt;Node3</title>
<path fill="none" stroke="midnightblue" d="M514.45,-265.53C541.26,-268.31 567.5,-265.13 567.5,-256 567.5,-248.01 547.41,-244.58 524.43,-245.71"/>
<polygon fill="midnightblue" stroke="midnightblue" points="524.15,-242.22 514.45,-246.47 524.69,-249.2 524.15,-242.22"/>
</g>
<!-- Node4 -->
<g id="node4" class="node">
<title>Node4</title>
<g id="a_node4"><a xlink:href="abc_detector_component_8hh.html" target="_top" xlink:title="Provides helper base class abcDetectorComponent for constructing and managing detector components in ...">
<polygon fill="white" stroke="black" points="401.5,-190.5 401.5,-209.5 548.5,-209.5 548.5,-190.5 401.5,-190.5"/>
<text text-anchor="middle" x="475" y="-197.5" font-family="Helvetica,sans-Serif" font-size="10.00">abcDetectorComponent.hh</text>
</a>
</g>
</g>
<!-- Node3&#45;&gt;Node4 -->
<g id="edge3" class="edge">
<title>Node3&#45;&gt;Node4</title>
<path fill="none" stroke="midnightblue" d="M475,-246.08C475,-239.01 475,-228.86 475,-219.99"/>
<polygon fill="midnightblue" stroke="midnightblue" points="478.5,-219.75 475,-209.75 471.5,-219.75 478.5,-219.75"/>
</g>
<!-- Node18 -->
<g id="node18" class="node">
<title>Node18</title>
<g id="a_node18"><a xlink:href="_o_m_sim_p_m_t_response_8hh.html" target="_top" xlink:title="Provides simulation for PMT response. This class is responsible for transforming hits on photocathode...">
<polygon fill="white" stroke="black" points="599.5,-190.5 599.5,-209.5 734.5,-209.5 734.5,-190.5 599.5,-190.5"/>
<text text-anchor="middle" x="667" y="-197.5" font-family="Helvetica,sans-Serif" font-size="10.00">OMSimPMTResponse.hh</text>
</a>
</g>
</g>
<!-- Node3&#45;&gt;Node18 -->
<g id="edge18" class="edge">
<title>Node3&#45;&gt;Node18</title>
<path fill="none" stroke="midnightblue" d="M505.42,-246.44C538.28,-237.2 590.78,-222.44 626.97,-212.26"/>
<polygon fill="midnightblue" stroke="midnightblue" points="628.04,-215.59 636.72,-209.52 626.15,-208.85 628.04,-215.59"/>
</g>
<!-- Node23 -->
<g id="node23" class="node">
<title>Node23</title>
<g id="a_node23"><a xlink:title=" ">
<polygon fill="white" stroke="#bfbfbf" points="285,-190.5 285,-209.5 383,-209.5 383,-190.5 285,-190.5"/>
<text text-anchor="middle" x="334" y="-197.5" font-family="Helvetica,sans-Serif" font-size="10.00">G4UnionSolid.hh</text>
</a>
</g>
</g>
<!-- Node3&#45;&gt;Node23 -->
<g id="edge24" class="edge">
<title>Node3&#45;&gt;Node23</title>
<path fill="none" stroke="midnightblue" d="M452.66,-246.44C429.25,-237.48 392.26,-223.31 365.81,-213.18"/>
<polygon fill="midnightblue" stroke="midnightblue" points="366.83,-209.82 356.24,-209.52 364.32,-216.36 366.83,-209.82"/>
</g>
<!-- Node24 -->
<g id="node24" class="node">
<title>Node24</title>
<g id="a_node24"><a xlink:title=" ">
<polygon fill="white" stroke="#bfbfbf" points="199.5,-190.5 199.5,-209.5 266.5,-209.5 266.5,-190.5 199.5,-190.5"/>
<text text-anchor="middle" x="233" y="-197.5" font-family="Helvetica,sans-Serif" font-size="10.00">G4Tubs.hh</text>
</a>
</g>
</g>
<!-- Node3&#45;&gt;Node24 -->
<g id="edge25" class="edge">
<title>Node3&#45;&gt;Node24</title>
<path fill="none" stroke="midnightblue" d="M436.65,-246.44C393.16,-236.74 322.38,-220.95 276.77,-210.77"/>
<polygon fill="midnightblue" stroke="midnightblue" points="277.39,-207.32 266.87,-208.56 275.87,-214.15 277.39,-207.32"/>
</g>
<!-- Node5 -->
<g id="node5" class="node">
<title>Node5</title>
<g id="a_node5"><a xlink:href="_o_m_sim_input_data_8hh.html" target="_top" xlink:title="Definition of ParameterTable and InputDataManager.">
<polygon fill="white" stroke="black" points="128.5,-134.5 128.5,-153.5 243.5,-153.5 243.5,-134.5 128.5,-134.5"/>
<text text-anchor="middle" x="186" y="-141.5" font-family="Helvetica,sans-Serif" font-size="10.00">OMSimInputData.hh</text>
</a>
</g>
</g>
<!-- Node4&#45;&gt;Node5 -->
<g id="edge4" class="edge">
<title>Node4&#45;&gt;Node5</title>
<path fill="none" stroke="midnightblue" d="M429.21,-190.44C378.26,-180.92 295.97,-165.55 241.43,-155.36"/>
<polygon fill="midnightblue" stroke="midnightblue" points="242.05,-151.91 231.58,-153.52 240.77,-158.79 242.05,-151.91"/>
</g>
<!-- Node14 -->
<g id="node14" class="node">
<title>Node14</title>
<g id="a_node14"><a xlink:title=" ">
<polygon fill="white" stroke="#bfbfbf" points="261.5,-134.5 261.5,-153.5 368.5,-153.5 368.5,-134.5 261.5,-134.5"/>
<text text-anchor="middle" x="315" y="-141.5" font-family="Helvetica,sans-Serif" font-size="10.00">G4Transform3D.hh</text>
</a>
</g>
</g>
<!-- Node4&#45;&gt;Node14 -->
<g id="edge13" class="edge">
<title>Node4&#45;&gt;Node14</title>
<path fill="none" stroke="midnightblue" d="M449.65,-190.44C422.73,-181.36 380,-166.94 349.91,-156.78"/>
<polygon fill="midnightblue" stroke="midnightblue" points="350.83,-153.4 340.23,-153.52 348.59,-160.03 350.83,-153.4"/>
</g>
<!-- Node15 -->
<g id="node15" class="node">
<title>Node15</title>
<g id="a_node15"><a xlink:title=" ">
<polygon fill="white" stroke="#bfbfbf" points="387,-134.5 387,-153.5 495,-153.5 495,-134.5 387,-134.5"/>
<text text-anchor="middle" x="441" y="-141.5" font-family="Helvetica,sans-Serif" font-size="10.00">G4VisAttributes.hh</text>
</a>
</g>
</g>
<!-- Node4&#45;&gt;Node15 -->
<g id="edge14" class="edge">
<title>Node4&#45;&gt;Node15</title>
<path fill="none" stroke="midnightblue" d="M469.39,-190.08C464.63,-182.53 457.68,-171.49 451.85,-162.23"/>
<polygon fill="midnightblue" stroke="midnightblue" points="454.8,-160.35 446.51,-153.75 448.88,-164.08 454.8,-160.35"/>
</g>
<!-- Node16 -->
<g id="node16" class="node">
<title>Node16</title>
<g id="a_node16"><a xlink:title=" ">
<polygon fill="white" stroke="#bfbfbf" points="513.5,-134.5 513.5,-153.5 638.5,-153.5 638.5,-134.5 513.5,-134.5"/>
<text text-anchor="middle" x="576" y="-141.5" font-family="Helvetica,sans-Serif" font-size="10.00">G4SubtractionSolid.hh</text>
</a>
</g>
</g>
<!-- Node4&#45;&gt;Node16 -->
<g id="edge15" class="edge">
<title>Node4&#45;&gt;Node16</title>
<path fill="none" stroke="midnightblue" d="M491.23,-190.32C507.35,-181.7 532.3,-168.36 550.96,-158.39"/>
<polygon fill="midnightblue" stroke="midnightblue" points="552.64,-161.46 559.81,-153.65 549.34,-155.28 552.64,-161.46"/>
</g>
<!-- Node17 -->
<g id="node17" class="node">
<title>Node17</title>
<g id="a_node17"><a xlink:title=" ">
<polygon fill="white" stroke="#bfbfbf" points="0,-134.5 0,-153.5 110,-153.5 110,-134.5 0,-134.5"/>
<text text-anchor="middle" x="55" y="-141.5" font-family="Helvetica,sans-Serif" font-size="10.00">G4PVPlacement.hh</text>
</a>
</g>
</g>
<!-- Node4&#45;&gt;Node17 -->
<g id="edge16" class="edge">
<title>Node4&#45;&gt;Node17</title>
<path fill="none" stroke="midnightblue" d="M405.38,-190.49C335.84,-181.93 225.57,-168.17 120.32,-154.16"/>
<polygon fill="midnightblue" stroke="midnightblue" points="120.53,-150.66 110.15,-152.81 119.6,-157.6 120.53,-150.66"/>
</g>
<!-- Node5&#45;&gt;Node6 -->
<g id="edge5" class="edge">
<title>Node5&#45;&gt;Node6</title>
<path fill="none" stroke="midnightblue" d="M243.56,-134.9C246.41,-134.58 249.24,-134.28 252,-134 524.29,-106.78 850.86,-91.38 983.07,-85.86"/>
<polygon fill="midnightblue" stroke="midnightblue" points="983.54,-89.34 993.38,-85.43 983.25,-82.35 983.54,-89.34"/>
</g>
<!-- Node11 -->
<g id="node11" class="node">
<title>Node11</title>
<g id="a_node11"><a xlink:title=" ">
<polygon fill="white" stroke="#bfbfbf" points="41.5,-73 41.5,-92 184.5,-92 184.5,-73 41.5,-73"/>
<text text-anchor="middle" x="113" y="-80" font-family="Helvetica,sans-Serif" font-size="10.00">G4OpBoundaryProcess.hh</text>
</a>
</g>
</g>
<!-- Node5&#45;&gt;Node11 -->
<g id="edge10" class="edge">
<title>Node5&#45;&gt;Node11</title>
<path fill="none" stroke="midnightblue" d="M175.54,-134.48C164.05,-125.11 145.37,-109.88 131.41,-98.51"/>
<polygon fill="midnightblue" stroke="midnightblue" points="133.4,-95.61 123.44,-92.01 128.98,-101.04 133.4,-95.61"/>
</g>
<!-- Node12 -->
<g id="node12" class="node">
<title>Node12</title>
<g id="a_node12"><a xlink:title=" ">
<polygon fill="white" stroke="#bfbfbf" points="507.5,-73 507.5,-92 626.5,-92 626.5,-73 507.5,-73"/>
<text text-anchor="middle" x="567" y="-80" font-family="Helvetica,sans-Serif" font-size="10.00">G4SystemOfUnits.hh</text>
</a>
</g>
</g>
<!-- Node5&#45;&gt;Node12 -->
<g id="edge11" class="edge">
<title>Node5&#45;&gt;Node12</title>
<path fill="none" stroke="midnightblue" d="M240.59,-134.48C309.76,-123.67 428.83,-105.08 502.44,-93.58"/>
<polygon fill="midnightblue" stroke="midnightblue" points="503.17,-97.01 512.51,-92.01 502.09,-90.09 503.17,-97.01"/>
</g>
<!-- Node13 -->
<g id="node13" class="node">
<title>Node13</title>
<g id="a_node13"><a xlink:title=" ">
<polygon fill="white" stroke="#bfbfbf" points="202.5,-67.5 202.5,-97.5 315.5,-97.5 315.5,-67.5 202.5,-67.5"/>
<text text-anchor="start" x="210.5" y="-85.5" font-family="Helvetica,sans-Serif" font-size="10.00">boost/property_tree</text>
<text text-anchor="middle" x="259" y="-74.5" font-family="Helvetica,sans-Serif" font-size="10.00">/json_parser.hpp</text>
</a>
</g>
</g>
<!-- Node5&#45;&gt;Node13 -->
<g id="edge12" class="edge">
<title>Node5&#45;&gt;Node13</title>
<path fill="none" stroke="midnightblue" d="M196.46,-134.48C206.16,-126.57 220.99,-114.48 233.77,-104.07"/>
<polygon fill="midnightblue" stroke="midnightblue" points="236.26,-106.55 241.8,-97.52 231.83,-101.13 236.26,-106.55"/>
</g>
<!-- Node7 -->
<g id="node7" class="node">
<title>Node7</title>
<g id="a_node7"><a xlink:title=" ">
<polygon fill="white" stroke="#bfbfbf" points="824.5,-6 824.5,-25 917.5,-25 917.5,-6 824.5,-6"/>
<text text-anchor="middle" x="871" y="-13" font-family="Helvetica,sans-Serif" font-size="10.00">spdlog/spdlog.h</text>
</a>
</g>
</g>
<!-- Node6&#45;&gt;Node7 -->
<g id="edge6" class="edge">
<title>Node6&#45;&gt;Node7</title>
<path fill="none" stroke="midnightblue" d="M1020.16,-72.87C990.13,-61.52 937.22,-41.52 903.16,-28.65"/>
<polygon fill="midnightblue" stroke="midnightblue" points="904.25,-25.32 893.66,-25.06 901.78,-31.87 904.25,-25.32"/>
</g>
<!-- Node8 -->
<g id="node8" class="node">
<title>Node8</title>
<g id="a_node8"><a xlink:title=" ">
<polygon fill="white" stroke="#bfbfbf" points="935.5,-0.5 935.5,-30.5 1046.5,-30.5 1046.5,-0.5 935.5,-0.5"/>
<text text-anchor="start" x="943.5" y="-18.5" font-family="Helvetica,sans-Serif" font-size="10.00">spdlog/sinks/stdout</text>
<text text-anchor="middle" x="991" y="-7.5" font-family="Helvetica,sans-Serif" font-size="10.00">_color_sinks.h</text>
</a>
</g>
</g>
<!-- Node6&#45;&gt;Node8 -->
<g id="edge7" class="edge">
<title>Node6&#45;&gt;Node8</title>
<path fill="none" stroke="midnightblue" d="M1035.99,-72.73C1029.03,-64.03 1018.08,-50.34 1008.72,-38.65"/>
<polygon fill="midnightblue" stroke="midnightblue" points="1011.25,-36.21 1002.27,-30.59 1005.79,-40.58 1011.25,-36.21"/>
</g>
<!-- Node9 -->
<g id="node9" class="node">
<title>Node9</title>
<g id="a_node9"><a xlink:title=" ">
<polygon fill="white" stroke="#bfbfbf" points="1065,-6 1065,-25 1123,-25 1123,-6 1065,-6"/>
<text text-anchor="middle" x="1094" y="-13" font-family="Helvetica,sans-Serif" font-size="10.00">memory</text>
</a>
</g>
</g>
<!-- Node6&#45;&gt;Node9 -->
<g id="edge8" class="edge">
<title>Node6&#45;&gt;Node9</title>
<path fill="none" stroke="midnightblue" d="M1049.88,-72.73C1057.83,-62.6 1071.1,-45.69 1081.01,-33.06"/>
<polygon fill="midnightblue" stroke="midnightblue" points="1083.81,-35.16 1087.23,-25.13 1078.3,-30.83 1083.81,-35.16"/>
</g>
<!-- Node10 -->
<g id="node10" class="node">
<title>Node10</title>
<g id="a_node10"><a xlink:title=" ">
<polygon fill="white" stroke="#bfbfbf" points="1141,-6 1141,-25 1239,-25 1239,-6 1141,-6"/>
<text text-anchor="middle" x="1190" y="-13" font-family="Helvetica,sans-Serif" font-size="10.00">spdlog/fmt/fmt.h</text>
</a>
</g>
</g>
<!-- Node6&#45;&gt;Node10 -->
<g id="edge9" class="edge">
<title>Node6&#45;&gt;Node10</title>
<path fill="none" stroke="midnightblue" d="M1062.52,-72.87C1087.78,-61.7 1132,-42.15 1161.14,-29.26"/>
<polygon fill="midnightblue" stroke="midnightblue" points="1162.67,-32.41 1170.4,-25.17 1159.84,-26.01 1162.67,-32.41"/>
</g>
<!-- Node18&#45;&gt;Node12 -->
<g id="edge19" class="edge">
<title>Node18&#45;&gt;Node12</title>
<path fill="none" stroke="midnightblue" d="M666.23,-190.12C664.66,-176.72 660.06,-151.07 647,-134 634.4,-117.53 614.78,-105.03 598.12,-96.58"/>
<polygon fill="midnightblue" stroke="midnightblue" points="599.26,-93.25 588.73,-92.08 596.23,-99.56 599.26,-93.25"/>
</g>
<!-- Node19 -->
<g id="node19" class="node">
<title>Node19</title>
<g id="a_node19"><a xlink:title=" ">
<polygon fill="white" stroke="#bfbfbf" points="695.5,-134.5 695.5,-153.5 768.5,-153.5 768.5,-134.5 695.5,-134.5"/>
<text text-anchor="middle" x="732" y="-141.5" font-family="Helvetica,sans-Serif" font-size="10.00">G4Types.hh</text>
</a>
</g>
</g>
<!-- Node18&#45;&gt;Node19 -->
<g id="edge20" class="edge">
<title>Node18&#45;&gt;Node19</title>
<path fill="none" stroke="midnightblue" d="M677.44,-190.32C687.15,-182.26 701.82,-170.08 713.5,-160.37"/>
<polygon fill="midnightblue" stroke="midnightblue" points="715.91,-162.92 721.37,-153.83 711.44,-157.53 715.91,-162.92"/>
</g>
<!-- Node20 -->
<g id="node20" class="node">
<title>Node20</title>
<g id="a_node20"><a xlink:title=" ">
<polygon fill="white" stroke="#bfbfbf" points="787,-134.5 787,-153.5 825,-153.5 825,-134.5 787,-134.5"/>
<text text-anchor="middle" x="806" y="-141.5" font-family="Helvetica,sans-Serif" font-size="10.00">map</text>
</a>
</g>
</g>
<!-- Node18&#45;&gt;Node20 -->
<g id="edge21" class="edge">
<title>Node18&#45;&gt;Node20</title>
<path fill="none" stroke="midnightblue" d="M689.02,-190.44C712.92,-181.16 751.15,-166.31 777.36,-156.13"/>
<polygon fill="midnightblue" stroke="midnightblue" points="778.71,-159.36 786.76,-152.47 776.18,-152.83 778.71,-159.36"/>
</g>
<!-- Node21 -->
<g id="node21" class="node">
<title>Node21</title>
<g id="a_node21"><a xlink:title=" ">
<polygon fill="white" stroke="#bfbfbf" points="843.5,-134.5 843.5,-153.5 904.5,-153.5 904.5,-134.5 843.5,-134.5"/>
<text text-anchor="middle" x="874" y="-141.5" font-family="Helvetica,sans-Serif" font-size="10.00">TGraph.h</text>
</a>
</g>
</g>
<!-- Node18&#45;&gt;Node21 -->
<g id="edge22" class="edge">
<title>Node18&#45;&gt;Node21</title>
<path fill="none" stroke="midnightblue" d="M699.8,-190.44C736.01,-181 794.33,-165.78 833.4,-155.59"/>
<polygon fill="midnightblue" stroke="midnightblue" points="834.59,-158.9 843.38,-152.99 832.82,-152.13 834.59,-158.9"/>
</g>
<!-- Node22 -->
<g id="node22" class="node">
<title>Node22</title>
<g id="a_node22"><a xlink:title=" ">
<polygon fill="white" stroke="#bfbfbf" points="922.5,-134.5 922.5,-153.5 975.5,-153.5 975.5,-134.5 922.5,-134.5"/>
<text text-anchor="middle" x="949" y="-141.5" font-family="Helvetica,sans-Serif" font-size="10.00">TH2D.h</text>
</a>
</g>
</g>
<!-- Node18&#45;&gt;Node22 -->
<g id="edge23" class="edge">
<title>Node18&#45;&gt;Node22</title>
<path fill="none" stroke="midnightblue" d="M719.02,-190.48C766.8,-182.43 839.77,-169.57 912.51,-153.99"/>
<polygon fill="midnightblue" stroke="midnightblue" points="913.27,-157.41 922.31,-151.88 911.79,-150.56 913.27,-157.41"/>
</g>
<!-- Node25&#45;&gt;Node3 -->
<g id="edge32" class="edge">
<title>Node25&#45;&gt;Node3</title>
<path fill="none" stroke="midnightblue" d="M575.99,-302.44C556.41,-293.64 525.69,-279.81 503.27,-269.72"/>
<polygon fill="midnightblue" stroke="midnightblue" points="504.48,-266.43 493.93,-265.52 501.61,-272.81 504.48,-266.43"/>
</g>
<!-- Node25&#45;&gt;Node4 -->
<g id="edge27" class="edge">
<title>Node25&#45;&gt;Node4</title>
<path fill="none" stroke="midnightblue" d="M594.71,-302.33C593.82,-288.74 590.23,-262.29 576,-246 562.23,-230.24 541.88,-219.74 523.04,-212.89"/>
<polygon fill="midnightblue" stroke="midnightblue" points="523.97,-209.5 513.38,-209.62 521.73,-216.14 523.97,-209.5"/>
</g>
<!-- Node26 -->
<g id="node26" class="node">
<title>Node26</title>
<g id="a_node26"><a xlink:href="_o_m_sim_hit_manager_8hh.html" target="_top" xlink:title="Defines structures and classes related to optical module photon hit management.">
<polygon fill="white" stroke="black" points="683.5,-246.5 683.5,-265.5 806.5,-265.5 806.5,-246.5 683.5,-246.5"/>
<text text-anchor="middle" x="745" y="-253.5" font-family="Helvetica,sans-Serif" font-size="10.00">OMSimHitManager.hh</text>
</a>
</g>
</g>
<!-- Node25&#45;&gt;Node26 -->
<g id="edge28" class="edge">
<title>Node25&#45;&gt;Node26</title>
<path fill="none" stroke="midnightblue" d="M618.77,-302.44C643.89,-293.4 683.71,-279.06 711.9,-268.92"/>
<polygon fill="midnightblue" stroke="midnightblue" points="713.12,-272.2 721.34,-265.52 710.75,-265.61 713.12,-272.2"/>
</g>
<!-- Node26&#45;&gt;Node18 -->
<g id="edge29" class="edge">
<title>Node26&#45;&gt;Node18</title>
<path fill="none" stroke="midnightblue" d="M732.47,-246.32C720.41,-237.98 701.97,-225.21 687.73,-215.35"/>
<polygon fill="midnightblue" stroke="midnightblue" points="689.72,-212.47 679.5,-209.65 685.73,-218.22 689.72,-212.47"/>
</g>
<!-- Node27 -->
<g id="node27" class="node">
<title>Node27</title>
<g id="a_node27"><a xlink:title=" ">
<polygon fill="white" stroke="#bfbfbf" points="752.5,-190.5 752.5,-209.5 855.5,-209.5 855.5,-190.5 752.5,-190.5"/>
<text text-anchor="middle" x="804" y="-197.5" font-family="Helvetica,sans-Serif" font-size="10.00">G4ThreeVector.hh</text>
</a>
</g>
</g>
<!-- Node26&#45;&gt;Node27 -->
<g id="edge30" class="edge">
<title>Node26&#45;&gt;Node27</title>
<path fill="none" stroke="midnightblue" d="M754.48,-246.32C763.2,-238.34 776.34,-226.31 786.9,-216.65"/>
<polygon fill="midnightblue" stroke="midnightblue" points="789.33,-219.17 794.35,-209.83 784.61,-214 789.33,-219.17"/>
</g>
<!-- Node28 -->
<g id="node28" class="node">
<title>Node28</title>
<g id="a_node28"><a xlink:title=" ">
<polygon fill="white" stroke="#bfbfbf" points="873.5,-190.5 873.5,-209.5 928.5,-209.5 928.5,-190.5 873.5,-190.5"/>
<text text-anchor="middle" x="901" y="-197.5" font-family="Helvetica,sans-Serif" font-size="10.00">fstream</text>
</a>
</g>
</g>
<!-- Node26&#45;&gt;Node28 -->
<g id="edge31" class="edge">
<title>Node26&#45;&gt;Node28</title>
<path fill="none" stroke="midnightblue" d="M769.72,-246.44C795.85,-237.4 837.26,-223.06 866.58,-212.92"/>
<polygon fill="midnightblue" stroke="midnightblue" points="868.09,-216.1 876.4,-209.52 865.8,-209.48 868.09,-216.1"/>
</g>
<!-- Node29&#45;&gt;Node6 -->
<g id="edge35" class="edge">
<title>Node29&#45;&gt;Node6</title>
<path fill="none" stroke="midnightblue" d="M1043,-246.26C1043,-219.65 1043,-139.21 1043,-102.34"/>
<polygon fill="midnightblue" stroke="midnightblue" points="1046.5,-102.02 1043,-92.02 1039.5,-102.02 1046.5,-102.02"/>
</g>
<!-- Node29&#45;&gt;Node28 -->
<g id="edge36" class="edge">
<title>Node29&#45;&gt;Node28</title>
<path fill="none" stroke="midnightblue" d="M1020.5,-246.44C996.92,-237.48 959.68,-223.31 933.04,-213.18"/>
<polygon fill="midnightblue" stroke="midnightblue" points="933.99,-209.8 923.4,-209.52 931.5,-216.34 933.99,-209.8"/>
</g>
<!-- Node30 -->
<g id="node30" class="node">
<title>Node30</title>
<g id="a_node30"><a xlink:title=" ">
<polygon fill="white" stroke="#bfbfbf" points="1071,-190.5 1071,-209.5 1155,-209.5 1155,-190.5 1071,-190.5"/>
<text text-anchor="middle" x="1113" y="-197.5" font-family="Helvetica,sans-Serif" font-size="10.00">boost/any.hpp</text>
</a>
</g>
</g>
<!-- Node29&#45;&gt;Node30 -->
<g id="edge37" class="edge">
<title>Node29&#45;&gt;Node30</title>
<path fill="none" stroke="midnightblue" d="M1054.25,-246.32C1064.8,-238.18 1080.8,-225.84 1093.44,-216.09"/>
<polygon fill="midnightblue" stroke="midnightblue" points="1095.77,-218.71 1101.55,-209.83 1091.49,-213.17 1095.77,-218.71"/>
</g>
<!-- Node31 -->
<g id="node31" class="node">
<title>Node31</title>
<g id="a_node31"><a xlink:title=" ">
<polygon fill="white" stroke="#bfbfbf" points="947,-190.5 947,-209.5 1015,-209.5 1015,-190.5 947,-190.5"/>
<text text-anchor="middle" x="981" y="-197.5" font-family="Helvetica,sans-Serif" font-size="10.00">sys/time.h</text>
</a>
</g>
</g>
<!-- Node29&#45;&gt;Node31 -->
<g id="edge38" class="edge">
<title>Node29&#45;&gt;Node31</title>
<path fill="none" stroke="midnightblue" d="M1033.04,-246.32C1023.87,-238.34 1010.06,-226.31 998.97,-216.65"/>
<polygon fill="midnightblue" stroke="midnightblue" points="1000.98,-213.76 991.14,-209.83 996.38,-219.04 1000.98,-213.76"/>
</g>
</g>
</svg>
