<?xml version="1.0" encoding="UTF-8" standalone="no"?>
<!DOCTYPE svg PUBLIC "-//W3C//DTD SVG 1.1//EN"
 "http://www.w3.org/Graphics/SVG/1.1/DTD/svg11.dtd">
<!-- Generated by graphviz version 2.43.0 (0)
 -->
<!-- Title: OMSimPMTConstruction.cc Pages: 1 -->
<svg width="3188pt" height="420pt"
 viewBox="0.00 0.00 3187.50 420.00" xmlns="http://www.w3.org/2000/svg" xmlns:xlink="http://www.w3.org/1999/xlink">
<g id="graph0" class="graph" transform="scale(1 1) rotate(0) translate(4 416)">
<title>OMSimPMTConstruction.cc</title>
<polygon fill="white" stroke="transparent" points="-4,4 -4,-416 3183.5,-416 3183.5,4 -4,4"/>
<!-- Node1 -->
<g id="node1" class="node">
<title>Node1</title>
<g id="a_node1"><a xlink:title=" ">
<polygon fill="#bfbfbf" stroke="black" points="2458.5,-392.5 2458.5,-411.5 2605.5,-411.5 2605.5,-392.5 2458.5,-392.5"/>
<text text-anchor="middle" x="2532" y="-399.5" font-family="Helvetica,sans-Serif" font-size="10.00">OMSimPMTConstruction.cc</text>
</a>
</g>
</g>
<!-- Node2 -->
<g id="node2" class="node">
<title>Node2</title>
<g id="a_node2"><a xlink:href="_o_m_sim_p_m_t_construction_8hh.html" target="_top" xlink:title="Construction of the PMTs.">
<polygon fill="white" stroke="black" points="2340.5,-224.5 2340.5,-243.5 2489.5,-243.5 2489.5,-224.5 2340.5,-224.5"/>
<text text-anchor="middle" x="2415" y="-231.5" font-family="Helvetica,sans-Serif" font-size="10.00">OMSimPMTConstruction.hh</text>
</a>
</g>
</g>
<!-- Node1&#45;&gt;Node2 -->
<g id="edge1" class="edge">
<title>Node1&#45;&gt;Node2</title>
<path fill="none" stroke="midnightblue" d="M2458.36,-396.69C2398.17,-391.45 2319.87,-380.1 2300,-356 2285.9,-338.91 2298.73,-300.04 2316,-280 2329.54,-264.29 2349.69,-253.77 2368.28,-246.89"/>
<polygon fill="midnightblue" stroke="midnightblue" points="2369.5,-250.17 2377.82,-243.61 2367.22,-243.55 2369.5,-250.17"/>
</g>
<!-- Node24 -->
<g id="node17" class="node">
<title>Node24</title>
<g id="a_node17"><a xlink:href="_o_m_sim_command_args_table_8hh.html" target="_top" xlink:title="Definition of the OMSimCommandArgsTable singleton class, which controls user args.">
<polygon fill="white" stroke="black" points="116,-224.5 116,-243.5 280,-243.5 280,-224.5 116,-224.5"/>
<text text-anchor="middle" x="198" y="-231.5" font-family="Helvetica,sans-Serif" font-size="10.00">OMSimCommandArgsTable.hh</text>
</a>
</g>
</g>
<!-- Node1&#45;&gt;Node24 -->
<g id="edge18" class="edge">
<title>Node1&#45;&gt;Node24</title>
<path fill="none" stroke="midnightblue" d="M2458.29,-395.76C2114.67,-371.32 670.67,-268.62 290.2,-241.56"/>
<polygon fill="midnightblue" stroke="midnightblue" points="290.29,-238.06 280.07,-240.84 289.79,-245.04 290.29,-238.06"/>
</g>
<!-- Node28 -->
<g id="node21" class="node">
<title>Node28</title>
<g id="a_node21"><a xlink:href="_o_m_sim_detector_construction_8hh.html" target="_top" xlink:title=" ">
<polygon fill="white" stroke="black" points="2309,-336.5 2309,-355.5 2479,-355.5 2479,-336.5 2309,-336.5"/>
<text text-anchor="middle" x="2394" y="-343.5" font-family="Helvetica,sans-Serif" font-size="10.00">OMSimDetectorConstruction.hh</text>
</a>
</g>
</g>
<!-- Node1&#45;&gt;Node28 -->
<g id="edge23" class="edge">
<title>Node1&#45;&gt;Node28</title>
<path fill="none" stroke="midnightblue" d="M2510.13,-392.44C2487.22,-383.48 2451.02,-369.31 2425.13,-359.18"/>
<polygon fill="midnightblue" stroke="midnightblue" points="2426.35,-355.9 2415.76,-355.52 2423.8,-362.42 2426.35,-355.9"/>
</g>
<!-- Node34 -->
<g id="node25" class="node">
<title>Node34</title>
<g id="a_node25"><a xlink:href="_o_m_sim_sensitive_detector_8hh.html" target="_top" xlink:title=" ">
<polygon fill="white" stroke="black" points="2125.5,-224.5 2125.5,-243.5 2278.5,-243.5 2278.5,-224.5 2125.5,-224.5"/>
<text text-anchor="middle" x="2202" y="-231.5" font-family="Helvetica,sans-Serif" font-size="10.00">OMSimSensitiveDetector.hh</text>
</a>
</g>
</g>
<!-- Node1&#45;&gt;Node34 -->
<g id="edge29" class="edge">
<title>Node1&#45;&gt;Node34</title>
<path fill="none" stroke="midnightblue" d="M2458.23,-393.34C2397.63,-385.95 2317.47,-373.33 2290,-356 2250.05,-330.79 2222.45,-280.34 2209.82,-253.22"/>
<polygon fill="midnightblue" stroke="midnightblue" points="2212.86,-251.47 2205.58,-243.78 2206.48,-254.33 2212.86,-251.47"/>
</g>
<!-- Node37 -->
<g id="node29" class="node">
<title>Node37</title>
<g id="a_node29"><a xlink:href="_c_a_d_mesh_8hh.html" target="_top" xlink:title=" ">
<polygon fill="white" stroke="black" points="1114.5,-224.5 1114.5,-243.5 1193.5,-243.5 1193.5,-224.5 1114.5,-224.5"/>
<text text-anchor="middle" x="1154" y="-231.5" font-family="Helvetica,sans-Serif" font-size="10.00">CADMesh.hh</text>
</a>
</g>
</g>
<!-- Node1&#45;&gt;Node37 -->
<g id="edge35" class="edge">
<title>Node1&#45;&gt;Node37</title>
<path fill="none" stroke="midnightblue" d="M2461.29,-392.48C2217.05,-363.06 1412.44,-266.13 1203.78,-241"/>
<polygon fill="midnightblue" stroke="midnightblue" points="1204.08,-237.51 1193.73,-239.79 1203.24,-244.46 1204.08,-237.51"/>
</g>
<!-- Node53 -->
<g id="node45" class="node">
<title>Node53</title>
<g id="a_node45"><a xlink:title=" ">
<polygon fill="white" stroke="#bfbfbf" points="2497.5,-336.5 2497.5,-355.5 2566.5,-355.5 2566.5,-336.5 2497.5,-336.5"/>
<text text-anchor="middle" x="2532" y="-343.5" font-family="Helvetica,sans-Serif" font-size="10.00">G4Cons.hh</text>
</a>
</g>
</g>
<!-- Node1&#45;&gt;Node53 -->
<g id="edge56" class="edge">
<title>Node1&#45;&gt;Node53</title>
<path fill="none" stroke="midnightblue" d="M2532,-392.08C2532,-385.01 2532,-374.86 2532,-365.99"/>
<polygon fill="midnightblue" stroke="midnightblue" points="2535.5,-365.75 2532,-355.75 2528.5,-365.75 2535.5,-365.75"/>
</g>
<!-- Node54 -->
<g id="node46" class="node">
<title>Node54</title>
<g id="a_node46"><a xlink:title=" ">
<polygon fill="white" stroke="#bfbfbf" points="2585,-336.5 2585,-355.5 2671,-355.5 2671,-336.5 2585,-336.5"/>
<text text-anchor="middle" x="2628" y="-343.5" font-family="Helvetica,sans-Serif" font-size="10.00">G4Ellipsoid.hh</text>
</a>
</g>
</g>
<!-- Node1&#45;&gt;Node54 -->
<g id="edge57" class="edge">
<title>Node1&#45;&gt;Node54</title>
<path fill="none" stroke="midnightblue" d="M2547.42,-392.32C2562.54,-383.82 2585.82,-370.73 2603.47,-360.8"/>
<polygon fill="midnightblue" stroke="midnightblue" points="2605.61,-363.61 2612.61,-355.65 2602.18,-357.51 2605.61,-363.61"/>
</g>
<!-- Node55 -->
<g id="node47" class="node">
<title>Node55</title>
<g id="a_node47"><a xlink:title=" ">
<polygon fill="white" stroke="#bfbfbf" points="2689.5,-336.5 2689.5,-355.5 2838.5,-355.5 2838.5,-336.5 2689.5,-336.5"/>
<text text-anchor="middle" x="2764" y="-343.5" font-family="Helvetica,sans-Serif" font-size="10.00">G4LogicalBorderSurface.hh</text>
</a>
</g>
</g>
<!-- Node1&#45;&gt;Node55 -->
<g id="edge58" class="edge">
<title>Node1&#45;&gt;Node55</title>
<path fill="none" stroke="midnightblue" d="M2568.76,-392.44C2609.06,-383.06 2673.81,-367.99 2717.58,-357.8"/>
<polygon fill="midnightblue" stroke="midnightblue" points="2718.46,-361.19 2727.41,-355.52 2716.88,-354.37 2718.46,-361.19"/>
</g>
<!-- Node56 -->
<g id="node48" class="node">
<title>Node56</title>
<g id="a_node48"><a xlink:title=" ">
<polygon fill="white" stroke="#bfbfbf" points="2856.5,-336.5 2856.5,-355.5 2993.5,-355.5 2993.5,-336.5 2856.5,-336.5"/>
<text text-anchor="middle" x="2925" y="-343.5" font-family="Helvetica,sans-Serif" font-size="10.00">G4LogicalSkinSurface.hh</text>
</a>
</g>
</g>
<!-- Node1&#45;&gt;Node56 -->
<g id="edge59" class="edge">
<title>Node1&#45;&gt;Node56</title>
<path fill="none" stroke="midnightblue" d="M2594.27,-392.44C2664.55,-382.79 2778.72,-367.1 2852.84,-356.92"/>
<polygon fill="midnightblue" stroke="midnightblue" points="2853.59,-360.35 2863.02,-355.52 2852.64,-353.41 2853.59,-360.35"/>
</g>
<!-- Node57 -->
<g id="node49" class="node">
<title>Node57</title>
<g id="a_node49"><a xlink:title=" ">
<polygon fill="white" stroke="#bfbfbf" points="3011.5,-336.5 3011.5,-355.5 3090.5,-355.5 3090.5,-336.5 3011.5,-336.5"/>
<text text-anchor="middle" x="3051" y="-343.5" font-family="Helvetica,sans-Serif" font-size="10.00">G4Sphere.hh</text>
</a>
</g>
</g>
<!-- Node1&#45;&gt;Node57 -->
<g id="edge60" class="edge">
<title>Node1&#45;&gt;Node57</title>
<path fill="none" stroke="midnightblue" d="M2605.67,-396.03C2696.49,-389.43 2855.75,-376.36 3001.47,-356.11"/>
<polygon fill="midnightblue" stroke="midnightblue" points="3002.08,-359.56 3011.49,-354.7 3001.1,-352.62 3002.08,-359.56"/>
</g>
<!-- Node58 -->
<g id="node50" class="node">
<title>Node58</title>
<g id="a_node50"><a xlink:title=" ">
<polygon fill="white" stroke="#bfbfbf" points="3108.5,-336.5 3108.5,-355.5 3179.5,-355.5 3179.5,-336.5 3108.5,-336.5"/>
<text text-anchor="middle" x="3144" y="-343.5" font-family="Helvetica,sans-Serif" font-size="10.00">G4Torus.hh</text>
</a>
</g>
</g>
<!-- Node1&#45;&gt;Node58 -->
<g id="edge61" class="edge">
<title>Node1&#45;&gt;Node58</title>
<path fill="none" stroke="midnightblue" d="M2605.84,-398.05C2712.55,-393.13 2916.17,-381.35 3098.03,-356.13"/>
<polygon fill="midnightblue" stroke="midnightblue" points="3098.63,-359.59 3108.04,-354.73 3097.65,-352.65 3098.63,-359.59"/>
</g>
<!-- Node2&#45;&gt;Node2 -->
<g id="edge12" class="edge">
<title>Node2&#45;&gt;Node2</title>
<path fill="none" stroke="midnightblue" d="M2454.45,-243.53C2481.26,-246.31 2507.5,-243.13 2507.5,-234 2507.5,-226.01 2487.41,-222.58 2464.43,-223.71"/>
<polygon fill="midnightblue" stroke="midnightblue" points="2464.15,-220.22 2454.45,-224.47 2464.69,-227.2 2464.15,-220.22"/>
</g>
<!-- Node3 -->
<g id="node3" class="node">
<title>Node3</title>
<g id="a_node3"><a xlink:href="abc_detector_component_8hh.html" target="_top" xlink:title="Provides helper base class abcDetectorComponent for constructing and managing detector components in ...">
<polygon fill="white" stroke="black" points="2642.5,-168.5 2642.5,-187.5 2789.5,-187.5 2789.5,-168.5 2642.5,-168.5"/>
<text text-anchor="middle" x="2716" y="-175.5" font-family="Helvetica,sans-Serif" font-size="10.00">abcDetectorComponent.hh</text>
</a>
</g>
</g>
<!-- Node2&#45;&gt;Node3 -->
<g id="edge2" class="edge">
<title>Node2&#45;&gt;Node3</title>
<path fill="none" stroke="midnightblue" d="M2462.69,-224.44C2515.86,-214.9 2601.82,-199.48 2658.63,-189.29"/>
<polygon fill="midnightblue" stroke="midnightblue" points="2659.3,-192.73 2668.53,-187.52 2658.07,-185.84 2659.3,-192.73"/>
</g>
<!-- Node17 -->
<g id="node13" class="node">
<title>Node17</title>
<g id="a_node13"><a xlink:href="_o_m_sim_p_m_t_response_8hh.html" target="_top" xlink:title="Provides simulation for PMT response. This class is responsible for transforming hits on photocathode...">
<polygon fill="white" stroke="red" points="2287.5,-168.5 2287.5,-187.5 2422.5,-187.5 2422.5,-168.5 2287.5,-168.5"/>
<text text-anchor="middle" x="2355" y="-175.5" font-family="Helvetica,sans-Serif" font-size="10.00">OMSimPMTResponse.hh</text>
</a>
</g>
</g>
<!-- Node2&#45;&gt;Node17 -->
<g id="edge13" class="edge">
<title>Node2&#45;&gt;Node17</title>
<path fill="none" stroke="midnightblue" d="M2405.36,-224.32C2396.49,-216.34 2383.13,-204.31 2372.39,-194.65"/>
<polygon fill="midnightblue" stroke="midnightblue" points="2374.59,-191.92 2364.82,-187.83 2369.91,-197.13 2374.59,-191.92"/>
</g>
<!-- Node22 -->
<g id="node15" class="node">
<title>Node22</title>
<g id="a_node15"><a xlink:title=" ">
<polygon fill="white" stroke="#bfbfbf" points="2441,-168.5 2441,-187.5 2539,-187.5 2539,-168.5 2441,-168.5"/>
<text text-anchor="middle" x="2490" y="-175.5" font-family="Helvetica,sans-Serif" font-size="10.00">G4UnionSolid.hh</text>
</a>
</g>
</g>
<!-- Node2&#45;&gt;Node22 -->
<g id="edge16" class="edge">
<title>Node2&#45;&gt;Node22</title>
<path fill="none" stroke="midnightblue" d="M2427.05,-224.32C2438.46,-216.11 2455.83,-203.6 2469.43,-193.81"/>
<polygon fill="midnightblue" stroke="midnightblue" points="2471.66,-196.52 2477.73,-187.83 2467.57,-190.84 2471.66,-196.52"/>
</g>
<!-- Node23 -->
<g id="node16" class="node">
<title>Node23</title>
<g id="a_node16"><a xlink:title=" ">
<polygon fill="white" stroke="#bfbfbf" points="2557.5,-168.5 2557.5,-187.5 2624.5,-187.5 2624.5,-168.5 2557.5,-168.5"/>
<text text-anchor="middle" x="2591" y="-175.5" font-family="Helvetica,sans-Serif" font-size="10.00">G4Tubs.hh</text>
</a>
</g>
</g>
<!-- Node2&#45;&gt;Node23 -->
<g id="edge17" class="edge">
<title>Node2&#45;&gt;Node23</title>
<path fill="none" stroke="midnightblue" d="M2442.89,-224.44C2472.75,-215.28 2520.31,-200.69 2553.46,-190.52"/>
<polygon fill="midnightblue" stroke="midnightblue" points="2554.71,-193.8 2563.24,-187.52 2552.66,-187.1 2554.71,-193.8"/>
</g>
<!-- Node4 -->
<g id="node4" class="node">
<title>Node4</title>
<g id="a_node4"><a xlink:href="_o_m_sim_input_data_8hh.html" target="_top" xlink:title="Definition of ParameterTable and InputDataManager.">
<polygon fill="white" stroke="red" points="2343.5,-112.5 2343.5,-131.5 2458.5,-131.5 2458.5,-112.5 2343.5,-112.5"/>
<text text-anchor="middle" x="2401" y="-119.5" font-family="Helvetica,sans-Serif" font-size="10.00">OMSimInputData.hh</text>
</a>
</g>
</g>
<!-- Node3&#45;&gt;Node4 -->
<g id="edge3" class="edge">
<title>Node3&#45;&gt;Node4</title>
<path fill="none" stroke="midnightblue" d="M2666.09,-168.44C2610.33,-158.89 2520.11,-143.42 2460.67,-133.23"/>
<polygon fill="midnightblue" stroke="midnightblue" points="2461.13,-129.76 2450.68,-131.52 2459.94,-136.66 2461.13,-129.76"/>
</g>
<!-- Node13 -->
<g id="node9" class="node">
<title>Node13</title>
<g id="a_node9"><a xlink:title=" ">
<polygon fill="white" stroke="#bfbfbf" points="2525.5,-112.5 2525.5,-131.5 2632.5,-131.5 2632.5,-112.5 2525.5,-112.5"/>
<text text-anchor="middle" x="2579" y="-119.5" font-family="Helvetica,sans-Serif" font-size="10.00">G4Transform3D.hh</text>
</a>
</g>
</g>
<!-- Node3&#45;&gt;Node13 -->
<g id="edge8" class="edge">
<title>Node3&#45;&gt;Node13</title>
<path fill="none" stroke="midnightblue" d="M2694.29,-168.44C2671.65,-159.52 2635.93,-145.44 2610.25,-135.32"/>
<polygon fill="midnightblue" stroke="midnightblue" points="2611.19,-131.93 2600.61,-131.52 2608.63,-138.44 2611.19,-131.93"/>
</g>
<!-- Node14 -->
<g id="node10" class="node">
<title>Node14</title>
<g id="a_node10"><a xlink:title=" ">
<polygon fill="white" stroke="#bfbfbf" points="2651,-112.5 2651,-131.5 2759,-131.5 2759,-112.5 2651,-112.5"/>
<text text-anchor="middle" x="2705" y="-119.5" font-family="Helvetica,sans-Serif" font-size="10.00">G4VisAttributes.hh</text>
</a>
</g>
</g>
<!-- Node3&#45;&gt;Node14 -->
<g id="edge9" class="edge">
<title>Node3&#45;&gt;Node14</title>
<path fill="none" stroke="midnightblue" d="M2714.18,-168.08C2712.73,-160.93 2710.63,-150.64 2708.81,-141.69"/>
<polygon fill="midnightblue" stroke="midnightblue" points="2712.21,-140.85 2706.78,-131.75 2705.35,-142.25 2712.21,-140.85"/>
</g>
<!-- Node15 -->
<g id="node11" class="node">
<title>Node15</title>
<g id="a_node11"><a xlink:title=" ">
<polygon fill="white" stroke="#bfbfbf" points="2777.5,-112.5 2777.5,-131.5 2902.5,-131.5 2902.5,-112.5 2777.5,-112.5"/>
<text text-anchor="middle" x="2840" y="-119.5" font-family="Helvetica,sans-Serif" font-size="10.00">G4SubtractionSolid.hh</text>
</a>
</g>
</g>
<!-- Node3&#45;&gt;Node15 -->
<g id="edge10" class="edge">
<title>Node3&#45;&gt;Node15</title>
<path fill="none" stroke="midnightblue" d="M2735.65,-168.44C2755.96,-159.6 2787.9,-145.69 2811.1,-135.59"/>
<polygon fill="midnightblue" stroke="midnightblue" points="2812.67,-138.72 2820.44,-131.52 2809.88,-132.3 2812.67,-138.72"/>
</g>
<!-- Node16 -->
<g id="node12" class="node">
<title>Node16</title>
<g id="a_node12"><a xlink:title=" ">
<polygon fill="white" stroke="#bfbfbf" points="2921,-112.5 2921,-131.5 3031,-131.5 3031,-112.5 2921,-112.5"/>
<text text-anchor="middle" x="2976" y="-119.5" font-family="Helvetica,sans-Serif" font-size="10.00">G4PVPlacement.hh</text>
</a>
</g>
</g>
<!-- Node3&#45;&gt;Node16 -->
<g id="edge11" class="edge">
<title>Node3&#45;&gt;Node16</title>
<path fill="none" stroke="midnightblue" d="M2757.2,-168.44C2802.65,-159 2875.84,-143.8 2924.91,-133.61"/>
<polygon fill="midnightblue" stroke="midnightblue" points="2925.92,-136.98 2934.99,-131.52 2924.49,-130.12 2925.92,-136.98"/>
</g>
<!-- Node5 -->
<g id="node5" class="node">
<title>Node5</title>
<g id="a_node5"><a xlink:href="_o_m_sim_logger_8hh.html" target="_top" xlink:title=" ">
<polygon fill="white" stroke="red" points="338.5,-56.5 338.5,-75.5 437.5,-75.5 437.5,-56.5 338.5,-56.5"/>
<text text-anchor="middle" x="388" y="-63.5" font-family="Helvetica,sans-Serif" font-size="10.00">OMSimLogger.hh</text>
</a>
</g>
</g>
<!-- Node4&#45;&gt;Node5 -->
<g id="edge4" class="edge">
<title>Node4&#45;&gt;Node5</title>
<path fill="none" stroke="midnightblue" d="M2343.3,-112.84C2340.16,-112.52 2337.04,-112.24 2334,-112 1954,-82.18 732.62,-69.97 447.78,-67.49"/>
<polygon fill="midnightblue" stroke="midnightblue" points="447.68,-63.99 437.65,-67.4 447.62,-70.99 447.68,-63.99"/>
</g>
<!-- Node10 -->
<g id="node7" class="node">
<title>Node10</title>
<g id="a_node7"><a xlink:title=" ">
<polygon fill="white" stroke="#bfbfbf" points="2207.5,-56.5 2207.5,-75.5 2350.5,-75.5 2350.5,-56.5 2207.5,-56.5"/>
<text text-anchor="middle" x="2279" y="-63.5" font-family="Helvetica,sans-Serif" font-size="10.00">G4OpBoundaryProcess.hh</text>
</a>
</g>
</g>
<!-- Node4&#45;&gt;Node10 -->
<g id="edge6" class="edge">
<title>Node4&#45;&gt;Node10</title>
<path fill="none" stroke="midnightblue" d="M2381.67,-112.44C2361.68,-103.6 2330.26,-89.69 2307.44,-79.59"/>
<polygon fill="midnightblue" stroke="midnightblue" points="2308.8,-76.36 2298.24,-75.52 2305.97,-82.76 2308.8,-76.36"/>
</g>
<!-- Node11 -->
<g id="node8" class="node">
<title>Node11</title>
<g id="a_node8"><a xlink:title=" ">
<polygon fill="white" stroke="#bfbfbf" points="2407.5,-56.5 2407.5,-75.5 2526.5,-75.5 2526.5,-56.5 2407.5,-56.5"/>
<text text-anchor="middle" x="2467" y="-63.5" font-family="Helvetica,sans-Serif" font-size="10.00">G4SystemOfUnits.hh</text>
</a>
</g>
</g>
<!-- Node4&#45;&gt;Node11 -->
<g id="edge7" class="edge">
<title>Node4&#45;&gt;Node11</title>
<path fill="none" stroke="midnightblue" d="M2411.6,-112.32C2421.46,-104.26 2436.35,-92.08 2448.22,-82.37"/>
<polygon fill="midnightblue" stroke="midnightblue" points="2450.68,-84.88 2456.2,-75.83 2446.25,-79.46 2450.68,-84.88"/>
</g>
<!-- Node8 -->
<g id="node6" class="node">
<title>Node8</title>
<g id="a_node6"><a xlink:title=" ">
<polygon fill="white" stroke="#bfbfbf" points="320,-0.5 320,-19.5 378,-19.5 378,-0.5 320,-0.5"/>
<text text-anchor="middle" x="349" y="-7.5" font-family="Helvetica,sans-Serif" font-size="10.00">memory</text>
</a>
</g>
</g>
<!-- Node5&#45;&gt;Node8 -->
<g id="edge5" class="edge">
<title>Node5&#45;&gt;Node8</title>
<path fill="none" stroke="midnightblue" d="M381.56,-56.08C376.05,-48.46 367.97,-37.26 361.24,-27.94"/>
<polygon fill="midnightblue" stroke="midnightblue" points="364.01,-25.81 355.32,-19.75 358.34,-29.91 364.01,-25.81"/>
</g>
<!-- Node17&#45;&gt;Node11 -->
<g id="edge14" class="edge">
<title>Node17&#45;&gt;Node11</title>
<path fill="none" stroke="midnightblue" d="M2410.91,-168.46C2432.47,-162.14 2455.02,-151.14 2468,-132 2477.1,-118.59 2475.67,-99.77 2472.67,-85.83"/>
<polygon fill="midnightblue" stroke="midnightblue" points="2475.99,-84.69 2470.09,-75.89 2469.21,-86.45 2475.99,-84.69"/>
</g>
<!-- Node19 -->
<g id="node14" class="node">
<title>Node19</title>
<g id="a_node14"><a xlink:title=" ">
<polygon fill="white" stroke="#bfbfbf" points="2287,-112.5 2287,-131.5 2325,-131.5 2325,-112.5 2287,-112.5"/>
<text text-anchor="middle" x="2306" y="-119.5" font-family="Helvetica,sans-Serif" font-size="10.00">map</text>
</a>
</g>
</g>
<!-- Node17&#45;&gt;Node19 -->
<g id="edge15" class="edge">
<title>Node17&#45;&gt;Node19</title>
<path fill="none" stroke="midnightblue" d="M2346.91,-168.08C2339.84,-160.3 2329.41,-148.8 2320.85,-139.37"/>
<polygon fill="midnightblue" stroke="midnightblue" points="2323.25,-136.8 2313.94,-131.75 2318.07,-141.51 2323.25,-136.8"/>
</g>
<!-- Node24&#45;&gt;Node5 -->
<g id="edge19" class="edge">
<title>Node24&#45;&gt;Node5</title>
<path fill="none" stroke="midnightblue" d="M198.55,-224.08C199.8,-210.62 203.87,-184.89 217,-168 252.02,-122.96 313.21,-93.94 352.11,-79.06"/>
<polygon fill="midnightblue" stroke="midnightblue" points="353.34,-82.34 361.49,-75.58 350.9,-75.78 353.34,-82.34"/>
</g>
<!-- Node25 -->
<g id="node18" class="node">
<title>Node25</title>
<g id="a_node18"><a xlink:title=" ">
<polygon fill="white" stroke="#bfbfbf" points="226.5,-168.5 226.5,-187.5 281.5,-187.5 281.5,-168.5 226.5,-168.5"/>
<text text-anchor="middle" x="254" y="-175.5" font-family="Helvetica,sans-Serif" font-size="10.00">fstream</text>
</a>
</g>
</g>
<!-- Node24&#45;&gt;Node25 -->
<g id="edge20" class="edge">
<title>Node24&#45;&gt;Node25</title>
<path fill="none" stroke="midnightblue" d="M207,-224.32C215.19,-216.42 227.51,-204.55 237.47,-194.94"/>
<polygon fill="midnightblue" stroke="midnightblue" points="240.07,-197.29 244.84,-187.83 235.21,-192.26 240.07,-197.29"/>
</g>
<!-- Node26 -->
<g id="node19" class="node">
<title>Node26</title>
<g id="a_node19"><a xlink:title=" ">
<polygon fill="white" stroke="#bfbfbf" points="0,-168.5 0,-187.5 84,-187.5 84,-168.5 0,-168.5"/>
<text text-anchor="middle" x="42" y="-175.5" font-family="Helvetica,sans-Serif" font-size="10.00">boost/any.hpp</text>
</a>
</g>
</g>
<!-- Node24&#45;&gt;Node26 -->
<g id="edge21" class="edge">
<title>Node24&#45;&gt;Node26</title>
<path fill="none" stroke="midnightblue" d="M173.28,-224.44C147.15,-215.4 105.74,-201.06 76.42,-190.92"/>
<polygon fill="midnightblue" stroke="midnightblue" points="77.2,-187.48 66.6,-187.52 74.91,-194.1 77.2,-187.48"/>
</g>
<!-- Node27 -->
<g id="node20" class="node">
<title>Node27</title>
<g id="a_node20"><a xlink:title=" ">
<polygon fill="white" stroke="#bfbfbf" points="102,-168.5 102,-187.5 170,-187.5 170,-168.5 102,-168.5"/>
<text text-anchor="middle" x="136" y="-175.5" font-family="Helvetica,sans-Serif" font-size="10.00">sys/time.h</text>
</a>
</g>
</g>
<!-- Node24&#45;&gt;Node27 -->
<g id="edge22" class="edge">
<title>Node24&#45;&gt;Node27</title>
<path fill="none" stroke="midnightblue" d="M188.04,-224.32C178.87,-216.34 165.06,-204.31 153.97,-194.65"/>
<polygon fill="midnightblue" stroke="midnightblue" points="155.98,-191.76 146.14,-187.83 151.38,-197.04 155.98,-191.76"/>
</g>
<!-- Node29 -->
<g id="node22" class="node">
<title>Node29</title>
<g id="a_node22"><a xlink:href="_o_m_sim_optical_module_8hh.html" target="_top" xlink:title=" ">
<polygon fill="white" stroke="red" points="2325.5,-280.5 2325.5,-299.5 2462.5,-299.5 2462.5,-280.5 2325.5,-280.5"/>
<text text-anchor="middle" x="2394" y="-287.5" font-family="Helvetica,sans-Serif" font-size="10.00">OMSimOpticalModule.hh</text>
</a>
</g>
</g>
<!-- Node28&#45;&gt;Node29 -->
<g id="edge24" class="edge">
<title>Node28&#45;&gt;Node29</title>
<path fill="none" stroke="midnightblue" d="M2394,-336.08C2394,-329.01 2394,-318.86 2394,-309.99"/>
<polygon fill="midnightblue" stroke="midnightblue" points="2397.5,-309.75 2394,-299.75 2390.5,-309.75 2397.5,-309.75"/>
</g>
<!-- Node32 -->
<g id="node23" class="node">
<title>Node32</title>
<g id="a_node23"><a xlink:title=" ">
<polygon fill="white" stroke="#bfbfbf" points="2481,-280.5 2481,-299.5 2543,-299.5 2543,-280.5 2481,-280.5"/>
<text text-anchor="middle" x="2512" y="-287.5" font-family="Helvetica,sans-Serif" font-size="10.00">G4Orb.hh</text>
</a>
</g>
</g>
<!-- Node28&#45;&gt;Node32 -->
<g id="edge27" class="edge">
<title>Node28&#45;&gt;Node32</title>
<path fill="none" stroke="midnightblue" d="M2412.7,-336.44C2431.94,-327.64 2462.15,-313.81 2484.2,-303.72"/>
<polygon fill="midnightblue" stroke="midnightblue" points="2485.75,-306.86 2493.39,-299.52 2482.84,-300.5 2485.75,-306.86"/>
</g>
<!-- Node33 -->
<g id="node24" class="node">
<title>Node33</title>
<g id="a_node24"><a xlink:title=" ">
<polygon fill="white" stroke="#bfbfbf" points="2561,-280.5 2561,-299.5 2739,-299.5 2739,-280.5 2561,-280.5"/>
<text text-anchor="middle" x="2650" y="-287.5" font-family="Helvetica,sans-Serif" font-size="10.00">G4VUserDetectorConstruction.hh</text>
</a>
</g>
</g>
<!-- Node28&#45;&gt;Node33 -->
<g id="edge28" class="edge">
<title>Node28&#45;&gt;Node33</title>
<path fill="none" stroke="midnightblue" d="M2434.56,-336.44C2479.32,-327 2551.38,-311.8 2599.7,-301.61"/>
<polygon fill="midnightblue" stroke="midnightblue" points="2600.56,-305.01 2609.63,-299.52 2599.12,-298.16 2600.56,-305.01"/>
</g>
<!-- Node29&#45;&gt;Node2 -->
<g id="edge26" class="edge">
<title>Node29&#45;&gt;Node2</title>
<path fill="none" stroke="midnightblue" d="M2397.47,-280.08C2400.31,-272.77 2404.43,-262.18 2407.96,-253.1"/>
<polygon fill="midnightblue" stroke="midnightblue" points="2411.23,-254.34 2411.6,-243.75 2404.71,-251.8 2411.23,-254.34"/>
</g>
<!-- Node29&#45;&gt;Node3 -->
<g id="edge25" class="edge">
<title>Node29&#45;&gt;Node3</title>
<path fill="none" stroke="midnightblue" d="M2419,-280.46C2475.94,-261.01 2615.43,-213.36 2680.94,-190.98"/>
<polygon fill="midnightblue" stroke="midnightblue" points="2682.46,-194.16 2690.8,-187.61 2680.2,-187.53 2682.46,-194.16"/>
</g>
<!-- Node34&#45;&gt;Node10 -->
<g id="edge33" class="edge">
<title>Node34&#45;&gt;Node10</title>
<path fill="none" stroke="midnightblue" d="M2211,-224.48C2219.52,-215.96 2232.16,-202.13 2240,-188 2258.67,-154.34 2270,-110.39 2275.33,-85.79"/>
<polygon fill="midnightblue" stroke="midnightblue" points="2278.82,-86.18 2277.41,-75.68 2271.97,-84.76 2278.82,-86.18"/>
</g>
<!-- Node34&#45;&gt;Node17 -->
<g id="edge32" class="edge">
<title>Node34&#45;&gt;Node17</title>
<path fill="none" stroke="midnightblue" d="M2226.24,-224.44C2251.87,-215.4 2292.49,-201.06 2321.24,-190.92"/>
<polygon fill="midnightblue" stroke="midnightblue" points="2322.61,-194.15 2330.87,-187.52 2320.28,-187.54 2322.61,-194.15"/>
</g>
<!-- Node35 -->
<g id="node26" class="node">
<title>Node35</title>
<g id="a_node26"><a xlink:title=" ">
<polygon fill="white" stroke="#bfbfbf" points="2093,-168.5 2093,-187.5 2231,-187.5 2231,-168.5 2093,-168.5"/>
<text text-anchor="middle" x="2162" y="-175.5" font-family="Helvetica,sans-Serif" font-size="10.00">G4VSensitiveDetector.hh</text>
</a>
</g>
</g>
<!-- Node34&#45;&gt;Node35 -->
<g id="edge30" class="edge">
<title>Node34&#45;&gt;Node35</title>
<path fill="none" stroke="midnightblue" d="M2195.39,-224.08C2189.74,-216.46 2181.46,-205.26 2174.55,-195.94"/>
<polygon fill="midnightblue" stroke="midnightblue" points="2177.25,-193.7 2168.48,-187.75 2171.62,-197.87 2177.25,-193.7"/>
</g>
<!-- Node31 -->
<g id="node27" class="node">
<title>Node31</title>
<g id="a_node27"><a xlink:title=" ">
<polygon fill="white" stroke="#bfbfbf" points="1906.5,-168.5 1906.5,-187.5 2009.5,-187.5 2009.5,-168.5 1906.5,-168.5"/>
<text text-anchor="middle" x="1958" y="-175.5" font-family="Helvetica,sans-Serif" font-size="10.00">G4ThreeVector.hh</text>
</a>
</g>
</g>
<!-- Node34&#45;&gt;Node31 -->
<g id="edge31" class="edge">
<title>Node34&#45;&gt;Node31</title>
<path fill="none" stroke="midnightblue" d="M2163.34,-224.44C2120.86,-215.04 2052.57,-199.93 2006.53,-189.74"/>
<polygon fill="midnightblue" stroke="midnightblue" points="2007,-186.26 1996.48,-187.52 2005.49,-193.09 2007,-186.26"/>
</g>
<!-- Node36 -->
<g id="node28" class="node">
<title>Node36</title>
<g id="a_node28"><a xlink:title=" ">
<polygon fill="white" stroke="#bfbfbf" points="2027.5,-168.5 2027.5,-187.5 2074.5,-187.5 2074.5,-168.5 2027.5,-168.5"/>
<text text-anchor="middle" x="2051" y="-175.5" font-family="Helvetica,sans-Serif" font-size="10.00">vector</text>
</a>
</g>
</g>
<!-- Node34&#45;&gt;Node36 -->
<g id="edge34" class="edge">
<title>Node34&#45;&gt;Node36</title>
<path fill="none" stroke="midnightblue" d="M2178.07,-224.44C2152.78,-215.4 2112.7,-201.06 2084.32,-190.92"/>
<polygon fill="midnightblue" stroke="midnightblue" points="2085.41,-187.59 2074.81,-187.52 2083.05,-194.18 2085.41,-187.59"/>
</g>
<!-- Node37&#45;&gt;Node8 -->
<g id="edge41" class="edge">
<title>Node37&#45;&gt;Node8</title>
<path fill="none" stroke="midnightblue" d="M1114.3,-232.33C953.31,-229.45 356.29,-216.82 329,-188 287.58,-144.26 320.77,-64.62 339.01,-29.03"/>
<polygon fill="midnightblue" stroke="midnightblue" points="342.28,-30.32 343.89,-19.85 336.1,-27.04 342.28,-30.32"/>
</g>
<!-- Node37&#45;&gt;Node19 -->
<g id="edge38" class="edge">
<title>Node37&#45;&gt;Node19</title>
<path fill="none" stroke="midnightblue" d="M1161.16,-224.2C1173.83,-209.39 1201.81,-179.92 1233,-168 1332.8,-129.84 2114.22,-123.94 2276.53,-123.12"/>
<polygon fill="midnightblue" stroke="midnightblue" points="2276.74,-126.62 2286.73,-123.07 2276.71,-119.62 2276.74,-126.62"/>
</g>
<!-- Node37&#45;&gt;Node25 -->
<g id="edge52" class="edge">
<title>Node37&#45;&gt;Node25</title>
<path fill="none" stroke="midnightblue" d="M1114.46,-233.15C992.17,-233.14 609.49,-229.54 296,-188 294.71,-187.83 293.4,-187.64 292.08,-187.44"/>
<polygon fill="midnightblue" stroke="midnightblue" points="292.36,-183.93 281.91,-185.63 291.14,-190.82 292.36,-183.93"/>
</g>
<!-- Node37&#45;&gt;Node31 -->
<g id="edge39" class="edge">
<title>Node37&#45;&gt;Node31</title>
<path fill="none" stroke="midnightblue" d="M1193.57,-231.8C1303.33,-228.22 1621.11,-216.13 1896.27,-187.97"/>
<polygon fill="midnightblue" stroke="midnightblue" points="1896.87,-191.43 1906.45,-186.92 1896.15,-184.47 1896.87,-191.43"/>
</g>
<!-- Node37&#45;&gt;Node36 -->
<g id="edge42" class="edge">
<title>Node37&#45;&gt;Node36</title>
<path fill="none" stroke="midnightblue" d="M1193.5,-232.07C1337.8,-228.48 1836.89,-214.55 2017.45,-187.64"/>
<polygon fill="midnightblue" stroke="midnightblue" points="2018,-191.1 2027.34,-186.1 2016.92,-184.18 2018,-191.1"/>
</g>
<!-- Node38 -->
<g id="node30" class="node">
<title>Node38</title>
<g id="a_node30"><a xlink:title=" ">
<polygon fill="white" stroke="#bfbfbf" points="1030,-168.5 1030,-187.5 1104,-187.5 1104,-168.5 1030,-168.5"/>
<text text-anchor="middle" x="1067" y="-175.5" font-family="Helvetica,sans-Serif" font-size="10.00">G4String.hh</text>
</a>
</g>
</g>
<!-- Node37&#45;&gt;Node38 -->
<g id="edge36" class="edge">
<title>Node37&#45;&gt;Node38</title>
<path fill="none" stroke="midnightblue" d="M1140.02,-224.32C1126.45,-215.9 1105.62,-202.97 1089.68,-193.07"/>
<polygon fill="midnightblue" stroke="midnightblue" points="1091.29,-189.95 1080.94,-187.65 1087.59,-195.9 1091.29,-189.95"/>
</g>
<!-- Node39 -->
<g id="node31" class="node">
<title>Node39</title>
<g id="a_node31"><a xlink:title=" ">
<polygon fill="white" stroke="#bfbfbf" points="1122,-168.5 1122,-187.5 1186,-187.5 1186,-168.5 1122,-168.5"/>
<text text-anchor="middle" x="1154" y="-175.5" font-family="Helvetica,sans-Serif" font-size="10.00">algorithm</text>
</a>
</g>
</g>
<!-- Node37&#45;&gt;Node39 -->
<g id="edge37" class="edge">
<title>Node37&#45;&gt;Node39</title>
<path fill="none" stroke="midnightblue" d="M1154,-224.08C1154,-217.01 1154,-206.86 1154,-197.99"/>
<polygon fill="midnightblue" stroke="midnightblue" points="1157.5,-197.75 1154,-187.75 1150.5,-197.75 1157.5,-197.75"/>
</g>
<!-- Node40 -->
<g id="node32" class="node">
<title>Node40</title>
<g id="a_node32"><a xlink:title=" ">
<polygon fill="white" stroke="#bfbfbf" points="1242.5,-168.5 1242.5,-187.5 1361.5,-187.5 1361.5,-168.5 1242.5,-168.5"/>
<text text-anchor="middle" x="1302" y="-175.5" font-family="Helvetica,sans-Serif" font-size="10.00">G4TriangularFacet.hh</text>
</a>
</g>
</g>
<!-- Node37&#45;&gt;Node40 -->
<g id="edge40" class="edge">
<title>Node37&#45;&gt;Node40</title>
<path fill="none" stroke="midnightblue" d="M1177.45,-224.44C1202.13,-215.44 1241.19,-201.19 1268.98,-191.05"/>
<polygon fill="midnightblue" stroke="midnightblue" points="1270.46,-194.23 1278.66,-187.52 1268.06,-187.66 1270.46,-194.23"/>
</g>
<!-- Node41 -->
<g id="node33" class="node">
<title>Node41</title>
<g id="a_node33"><a xlink:title=" ">
<polygon fill="white" stroke="#bfbfbf" points="1380,-168.5 1380,-187.5 1440,-187.5 1440,-168.5 1380,-168.5"/>
<text text-anchor="middle" x="1410" y="-175.5" font-family="Helvetica,sans-Serif" font-size="10.00">iostream</text>
</a>
</g>
</g>
<!-- Node37&#45;&gt;Node41 -->
<g id="edge43" class="edge">
<title>Node37&#45;&gt;Node41</title>
<path fill="none" stroke="midnightblue" d="M1193.85,-224.9C1237.23,-216.03 1308.6,-201.3 1370,-188 1370.1,-187.98 1370.2,-187.96 1370.3,-187.93"/>
<polygon fill="midnightblue" stroke="midnightblue" points="1370.85,-191.4 1379.87,-185.83 1369.35,-184.56 1370.85,-191.4"/>
</g>
<!-- Node42 -->
<g id="node34" class="node">
<title>Node42</title>
<g id="a_node34"><a xlink:title=" ">
<polygon fill="white" stroke="#bfbfbf" points="1458,-168.5 1458,-187.5 1502,-187.5 1502,-168.5 1458,-168.5"/>
<text text-anchor="middle" x="1480" y="-175.5" font-family="Helvetica,sans-Serif" font-size="10.00">string</text>
</a>
</g>
</g>
<!-- Node37&#45;&gt;Node42 -->
<g id="edge44" class="edge">
<title>Node37&#45;&gt;Node42</title>
<path fill="none" stroke="midnightblue" d="M1193.91,-228.6C1249.01,-222.15 1351.59,-208.83 1447.85,-188.01"/>
<polygon fill="midnightblue" stroke="midnightblue" points="1448.72,-191.4 1457.74,-185.84 1447.22,-184.57 1448.72,-191.4"/>
</g>
<!-- Node43 -->
<g id="node35" class="node">
<title>Node43</title>
<g id="a_node35"><a xlink:title=" ">
<polygon fill="white" stroke="#bfbfbf" points="1520,-168.5 1520,-187.5 1650,-187.5 1650,-168.5 1520,-168.5"/>
<text text-anchor="middle" x="1585" y="-175.5" font-family="Helvetica,sans-Serif" font-size="10.00">G4AssemblyVolume.hh</text>
</a>
</g>
</g>
<!-- Node37&#45;&gt;Node43 -->
<g id="edge45" class="edge">
<title>Node37&#45;&gt;Node43</title>
<path fill="none" stroke="midnightblue" d="M1193.77,-228.02C1265.58,-219.02 1417.94,-199.93 1509.9,-188.41"/>
<polygon fill="midnightblue" stroke="midnightblue" points="1510.49,-191.86 1519.98,-187.15 1509.62,-184.92 1510.49,-191.86"/>
</g>
<!-- Node44 -->
<g id="node36" class="node">
<title>Node44</title>
<g id="a_node36"><a xlink:title=" ">
<polygon fill="white" stroke="#bfbfbf" points="1668,-168.5 1668,-187.5 1784,-187.5 1784,-168.5 1668,-168.5"/>
<text text-anchor="middle" x="1726" y="-175.5" font-family="Helvetica,sans-Serif" font-size="10.00">G4LogicalVolume.hh</text>
</a>
</g>
</g>
<!-- Node37&#45;&gt;Node44 -->
<g id="edge46" class="edge">
<title>Node37&#45;&gt;Node44</title>
<path fill="none" stroke="midnightblue" d="M1193.67,-230.07C1277.36,-223.76 1478.37,-207.92 1657.76,-188.09"/>
<polygon fill="midnightblue" stroke="midnightblue" points="1658.36,-191.55 1667.91,-186.96 1657.59,-184.59 1658.36,-191.55"/>
</g>
<!-- Node45 -->
<g id="node37" class="node">
<title>Node45</title>
<g id="a_node37"><a xlink:title=" ">
<polygon fill="white" stroke="#bfbfbf" points="1802,-168.5 1802,-187.5 1888,-187.5 1888,-168.5 1802,-168.5"/>
<text text-anchor="middle" x="1845" y="-175.5" font-family="Helvetica,sans-Serif" font-size="10.00">G4Material.hh</text>
</a>
</g>
</g>
<!-- Node37&#45;&gt;Node45 -->
<g id="edge47" class="edge">
<title>Node37&#45;&gt;Node45</title>
<path fill="none" stroke="midnightblue" d="M1193.77,-231.6C1292.97,-227.8 1559.54,-215.76 1791.93,-188.01"/>
<polygon fill="midnightblue" stroke="midnightblue" points="1792.41,-191.47 1801.92,-186.8 1791.57,-184.52 1792.41,-191.47"/>
</g>
<!-- Node46 -->
<g id="node38" class="node">
<title>Node46</title>
<g id="a_node38"><a xlink:title=" ">
<polygon fill="white" stroke="#bfbfbf" points="338,-168.5 338,-187.5 462,-187.5 462,-168.5 338,-168.5"/>
<text text-anchor="middle" x="400" y="-175.5" font-family="Helvetica,sans-Serif" font-size="10.00">G4TessellatedSolid.hh</text>
</a>
</g>
</g>
<!-- Node37&#45;&gt;Node46 -->
<g id="edge48" class="edge">
<title>Node37&#45;&gt;Node46</title>
<path fill="none" stroke="midnightblue" d="M1114.28,-231.22C1010.54,-226.4 722.69,-211.87 472.33,-188.07"/>
<polygon fill="midnightblue" stroke="midnightblue" points="472.6,-184.58 462.31,-187.11 471.94,-191.55 472.6,-184.58"/>
</g>
<!-- Node47 -->
<g id="node39" class="node">
<title>Node47</title>
<g id="a_node39"><a xlink:title=" ">
<polygon fill="white" stroke="#bfbfbf" points="480.5,-168.5 480.5,-187.5 539.5,-187.5 539.5,-168.5 480.5,-168.5"/>
<text text-anchor="middle" x="510" y="-175.5" font-family="Helvetica,sans-Serif" font-size="10.00">G4Tet.hh</text>
</a>
</g>
</g>
<!-- Node37&#45;&gt;Node47 -->
<g id="edge49" class="edge">
<title>Node37&#45;&gt;Node47</title>
<path fill="none" stroke="midnightblue" d="M1114.48,-232.14C1019.05,-229.63 768.39,-220.39 549.78,-187.87"/>
<polygon fill="midnightblue" stroke="midnightblue" points="550.13,-184.38 539.72,-186.35 549.09,-191.3 550.13,-184.38"/>
</g>
<!-- Node48 -->
<g id="node40" class="node">
<title>Node48</title>
<g id="a_node40"><a xlink:title=" ">
<polygon fill="white" stroke="#bfbfbf" points="558,-168.5 558,-187.5 662,-187.5 662,-168.5 558,-168.5"/>
<text text-anchor="middle" x="610" y="-175.5" font-family="Helvetica,sans-Serif" font-size="10.00">G4UIcommand.hh</text>
</a>
</g>
</g>
<!-- Node37&#45;&gt;Node48 -->
<g id="edge50" class="edge">
<title>Node37&#45;&gt;Node48</title>
<path fill="none" stroke="midnightblue" d="M1114.48,-230.04C1033.56,-223.82 842.94,-208.38 672.39,-188.11"/>
<polygon fill="midnightblue" stroke="midnightblue" points="672.56,-184.61 662.22,-186.89 671.73,-191.56 672.56,-184.61"/>
</g>
<!-- Node49 -->
<g id="node41" class="node">
<title>Node49</title>
<g id="a_node41"><a xlink:title=" ">
<polygon fill="white" stroke="#bfbfbf" points="680.5,-168.5 680.5,-187.5 747.5,-187.5 747.5,-168.5 680.5,-168.5"/>
<text text-anchor="middle" x="714" y="-175.5" font-family="Helvetica,sans-Serif" font-size="10.00">globals.hh</text>
</a>
</g>
</g>
<!-- Node37&#45;&gt;Node49 -->
<g id="edge51" class="edge">
<title>Node37&#45;&gt;Node49</title>
<path fill="none" stroke="midnightblue" d="M1114.39,-229.75C1044.53,-223.74 894.67,-209.65 757.98,-188.01"/>
<polygon fill="midnightblue" stroke="midnightblue" points="758.17,-184.5 747.75,-186.37 757.07,-191.41 758.17,-184.5"/>
</g>
<!-- Node50 -->
<g id="node42" class="node">
<title>Node50</title>
<g id="a_node42"><a xlink:title=" ">
<polygon fill="white" stroke="#bfbfbf" points="766,-168.5 766,-187.5 822,-187.5 822,-168.5 766,-168.5"/>
<text text-anchor="middle" x="794" y="-175.5" font-family="Helvetica,sans-Serif" font-size="10.00">sstream</text>
</a>
</g>
</g>
<!-- Node37&#45;&gt;Node50 -->
<g id="edge53" class="edge">
<title>Node37&#45;&gt;Node50</title>
<path fill="none" stroke="midnightblue" d="M1114.26,-228.76C1054.95,-222.15 939.61,-208.22 832.25,-188.08"/>
<polygon fill="midnightblue" stroke="midnightblue" points="832.7,-184.6 822.22,-186.17 831.39,-191.48 832.7,-184.6"/>
</g>
<!-- Node51 -->
<g id="node43" class="node">
<title>Node51</title>
<g id="a_node43"><a xlink:title=" ">
<polygon fill="white" stroke="#bfbfbf" points="840.5,-168.5 840.5,-187.5 907.5,-187.5 907.5,-168.5 840.5,-168.5"/>
<text text-anchor="middle" x="874" y="-175.5" font-family="Helvetica,sans-Serif" font-size="10.00">streambuf</text>
</a>
</g>
</g>
<!-- Node37&#45;&gt;Node51 -->
<g id="edge54" class="edge">
<title>Node37&#45;&gt;Node51</title>
<path fill="none" stroke="midnightblue" d="M1114.12,-225.66C1069.01,-217.31 993.08,-203.1 917.91,-188.15"/>
<polygon fill="midnightblue" stroke="midnightblue" points="918.28,-184.66 907.79,-186.13 916.91,-191.52 918.28,-184.66"/>
</g>
<!-- Node52 -->
<g id="node44" class="node">
<title>Node52</title>
<g id="a_node44"><a xlink:title=" ">
<polygon fill="white" stroke="#bfbfbf" points="926,-168.5 926,-187.5 1012,-187.5 1012,-168.5 926,-168.5"/>
<text text-anchor="middle" x="969" y="-175.5" font-family="Helvetica,sans-Serif" font-size="10.00">Randomize.hh</text>
</a>
</g>
</g>
<!-- Node37&#45;&gt;Node52 -->
<g id="edge55" class="edge">
<title>Node37&#45;&gt;Node52</title>
<path fill="none" stroke="midnightblue" d="M1124.69,-224.44C1093.16,-215.24 1042.87,-200.56 1008.01,-190.39"/>
<polygon fill="midnightblue" stroke="midnightblue" points="1008.76,-186.96 998.18,-187.52 1006.8,-193.68 1008.76,-186.96"/>
</g>
</g>
</svg>
