<?xml version="1.0" encoding="UTF-8" standalone="no"?>
<!DOCTYPE svg PUBLIC "-//W3C//DTD SVG 1.1//EN"
 "http://www.w3.org/Graphics/SVG/1.1/DTD/svg11.dtd">
<!-- Generated by graphviz version 2.43.0 (0)
 -->
<!-- Title: OMSimPMTResponse.hh Pages: 1 -->
<svg width="1582pt" height="302pt"
 viewBox="0.00 0.00 1581.50 302.00" xmlns="http://www.w3.org/2000/svg" xmlns:xlink="http://www.w3.org/1999/xlink">
<g id="graph0" class="graph" transform="scale(1 1) rotate(0) translate(4 298)">
<title>OMSimPMTResponse.hh</title>
<!-- Node1 -->
<g id="Node000001" class="node">
<title>Node1</title>
<g id="a_Node000001"><a xlink:title="Simulation of PMT response.">
<polygon fill="#999999" stroke="#666666" points="958.5,-294 823.5,-294 823.5,-275 958.5,-275 958.5,-294"/>
<text text-anchor="middle" x="891" y="-282" font-family="Helvetica,sans-Serif" font-size="10.00">OMSimPMTResponse.hh</text>
</a>
</g>
</g>
<!-- Node2 -->
<g id="Node000002" class="node">
<title>Node2</title>
<g id="a_Node000002"><a xlink:href="_o_m_sim_effective_area_analyisis_8hh_source.html" target="_top" xlink:title=" ">
<polygon fill="white" stroke="#666666" points="176,-184 0,-184 0,-165 176,-165 176,-184"/>
<text text-anchor="middle" x="88" y="-172" font-family="Helvetica,sans-Serif" font-size="10.00">OMSimEffectiveAreaAnalyisis.hh</text>
</a>
</g>
</g>
<!-- Node1&#45;&gt;Node2 -->
<g id="edge1_Node000001_Node000002" class="edge">
<title>Node1&#45;&gt;Node2</title>
<g id="a_edge1_Node000001_Node000002"><a xlink:title=" ">
<path fill="none" stroke="#63b8ff" d="M813.09,-277.79C722.65,-270.71 569.13,-257.3 438,-239 325.46,-223.29 193.89,-197.36 128.78,-184.02"/>
<polygon fill="#63b8ff" stroke="#63b8ff" points="813.02,-281.29 823.26,-278.58 813.56,-274.31 813.02,-281.29"/>
</a>
</g>
</g>
<!-- Node4 -->
<g id="Node000004" class="node">
<title>Node4</title>
<g id="a_Node000004"><a xlink:href="_o_m_sim_effi_cali_analyisis_8hh_source.html" target="_top" xlink:title=" ">
<polygon fill="white" stroke="#666666" points="593,-239 447,-239 447,-220 593,-220 593,-239"/>
<text text-anchor="middle" x="520" y="-227" font-family="Helvetica,sans-Serif" font-size="10.00">OMSimEffiCaliAnalyisis.hh</text>
</a>
</g>
</g>
<!-- Node1&#45;&gt;Node4 -->
<g id="edge3_Node000001_Node000004" class="edge">
<title>Node1&#45;&gt;Node4</title>
<g id="a_edge3_Node000001_Node000004"><a xlink:title=" ">
<path fill="none" stroke="#63b8ff" d="M821.39,-273.56C751.74,-263.61 645.72,-248.46 579.77,-239.04"/>
<polygon fill="#63b8ff" stroke="#63b8ff" points="821,-277.04 831.39,-274.98 821.99,-270.11 821,-277.04"/>
</a>
</g>
</g>
<!-- Node5 -->
<g id="Node000005" class="node">
<title>Node5</title>
<g id="a_Node000005"><a xlink:href="common_2framework_2include_2_o_m_sim_hit_manager_8hh.html" target="_top" xlink:title="Defines structures and classes related to optical module photon hit management.">
<polygon fill="white" stroke="#666666" points="734.5,-239 611.5,-239 611.5,-220 734.5,-220 734.5,-239"/>
<text text-anchor="middle" x="673" y="-227" font-family="Helvetica,sans-Serif" font-size="10.00">OMSimHitManager.hh</text>
</a>
</g>
</g>
<!-- Node1&#45;&gt;Node5 -->
<g id="edge4_Node000001_Node000005" class="edge">
<title>Node1&#45;&gt;Node5</title>
<g id="a_edge4_Node000001_Node000005"><a xlink:title=" ">
<path fill="none" stroke="#63b8ff" d="M846.02,-272.56C805.19,-262.64 745.8,-248.2 708.3,-239.08"/>
<polygon fill="#63b8ff" stroke="#63b8ff" points="845.43,-276.02 855.97,-274.98 847.08,-269.22 845.43,-276.02"/>
</a>
</g>
</g>
<!-- Node8 -->
<g id="Node000008" class="node">
<title>Node8</title>
<g id="a_Node000008"><a xlink:href="simulations_2wavepid_2include_2_o_m_sim_hit_manager_8hh.html" target="_top" xlink:title="Enhanced hit manager for WavePID with photon origin tracking.">
<polygon fill="white" stroke="#666666" points="875.5,-239 752.5,-239 752.5,-220 875.5,-220 875.5,-239"/>
<text text-anchor="middle" x="814" y="-227" font-family="Helvetica,sans-Serif" font-size="10.00">OMSimHitManager.hh</text>
</a>
</g>
</g>
<!-- Node1&#45;&gt;Node8 -->
<g id="edge7_Node000001_Node000008" class="edge">
<title>Node1&#45;&gt;Node8</title>
<g id="a_edge7_Node000001_Node000008"><a xlink:title=" ">
<path fill="none" stroke="#63b8ff" d="M870.15,-269.15C856.24,-259.57 838.39,-247.29 826.6,-239.17"/>
<polygon fill="#63b8ff" stroke="#63b8ff" points="868.41,-272.2 878.63,-274.98 872.38,-266.43 868.41,-272.2"/>
</a>
</g>
</g>
<!-- Node11 -->
<g id="Node000011" class="node">
<title>Node11</title>
<g id="a_Node000011"><a xlink:href="_o_m_sim_p_m_t_construction_8hh.html" target="_top" xlink:title="Construction of the PMTs.">
<polygon fill="white" stroke="#666666" points="1042.5,-239 893.5,-239 893.5,-220 1042.5,-220 1042.5,-239"/>
<text text-anchor="middle" x="968" y="-227" font-family="Helvetica,sans-Serif" font-size="10.00">OMSimPMTConstruction.hh</text>
</a>
</g>
</g>
<!-- Node1&#45;&gt;Node11 -->
<g id="edge10_Node000001_Node000011" class="edge">
<title>Node1&#45;&gt;Node11</title>
<g id="a_edge10_Node000001_Node000011"><a xlink:title=" ">
<path fill="none" stroke="#63b8ff" d="M911.85,-269.15C925.76,-259.57 943.61,-247.29 955.4,-239.17"/>
<polygon fill="#63b8ff" stroke="#63b8ff" points="909.62,-266.43 903.37,-274.98 913.59,-272.2 909.62,-266.43"/>
</a>
</g>
</g>
<!-- Node30 -->
<g id="Node000030" class="node">
<title>Node30</title>
<g id="a_Node000030"><a xlink:href="simulations_2wavepid_2src_2_o_m_sim_sensitive_detector_8cc.html" target="_top" xlink:title="Enhanced sensitive detector implementation with photon origin tracking.">
<polygon fill="white" stroke="#666666" points="1231,-239 1079,-239 1079,-220 1231,-220 1231,-239"/>
<text text-anchor="middle" x="1155" y="-227" font-family="Helvetica,sans-Serif" font-size="10.00">OMSimSensitiveDetector.cc</text>
</a>
</g>
</g>
<!-- Node1&#45;&gt;Node30 -->
<g id="edge45_Node000001_Node000030" class="edge">
<title>Node1&#45;&gt;Node30</title>
<g id="a_edge45_Node000001_Node000030"><a xlink:title=" ">
<path fill="none" stroke="#63b8ff" d="M943.29,-273C992.78,-263.07 1066.17,-248.33 1112.25,-239.08"/>
<polygon fill="#63b8ff" stroke="#63b8ff" points="942.53,-269.58 933.42,-274.98 943.91,-276.45 942.53,-269.58"/>
</a>
</g>
</g>
<!-- Node31 -->
<g id="Node000031" class="node">
<title>Node31</title>
<g id="a_Node000031"><a xlink:href="common_2framework_2include_2_o_m_sim_sensitive_detector_8hh_source.html" target="_top" xlink:title=" ">
<polygon fill="white" stroke="#666666" points="1402.5,-239 1249.5,-239 1249.5,-220 1402.5,-220 1402.5,-239"/>
<text text-anchor="middle" x="1326" y="-227" font-family="Helvetica,sans-Serif" font-size="10.00">OMSimSensitiveDetector.hh</text>
</a>
</g>
</g>
<!-- Node1&#45;&gt;Node31 -->
<g id="edge46_Node000001_Node000031" class="edge">
<title>Node1&#45;&gt;Node31</title>
<g id="a_edge46_Node000001_Node000031"><a xlink:title=" ">
<path fill="none" stroke="#63b8ff" d="M969.18,-273.97C1050.79,-264.03 1177.57,-248.58 1255.99,-239.03"/>
<polygon fill="#63b8ff" stroke="#63b8ff" points="968.47,-270.53 958.97,-275.22 969.32,-277.48 968.47,-270.53"/>
</a>
</g>
</g>
<!-- Node32 -->
<g id="Node000032" class="node">
<title>Node32</title>
<g id="a_Node000032"><a xlink:href="simulations_2wavepid_2include_2_o_m_sim_sensitive_detector_8hh.html" target="_top" xlink:title="Enhanced sensitive detector for WavePID with photon origin tracking.">
<polygon fill="white" stroke="#666666" points="1573.5,-239 1420.5,-239 1420.5,-220 1573.5,-220 1573.5,-239"/>
<text text-anchor="middle" x="1497" y="-227" font-family="Helvetica,sans-Serif" font-size="10.00">OMSimSensitiveDetector.hh</text>
</a>
</g>
</g>
<!-- Node1&#45;&gt;Node32 -->
<g id="edge47_Node000001_Node000032" class="edge">
<title>Node1&#45;&gt;Node32</title>
<g id="a_edge47_Node000001_Node000032"><a xlink:title=" ">
<path fill="none" stroke="#63b8ff" d="M969.09,-277.18C1071.01,-268.86 1254.91,-253.56 1412,-239 1414.66,-238.75 1417.36,-238.5 1420.09,-238.24"/>
<polygon fill="#63b8ff" stroke="#63b8ff" points="968.57,-273.72 958.88,-278.02 969.14,-280.69 968.57,-273.72"/>
</a>
</g>
</g>
<!-- Node3 -->
<g id="Node000003" class="node">
<title>Node3</title>
<g id="a_Node000003"><a xlink:href="_o_m_sim__effective__area_8cc.html" target="_top" xlink:title="Main for the calculation of effective areas.">
<polygon fill="white" stroke="#666666" points="213,-19 73,-19 73,0 213,0 213,-19"/>
<text text-anchor="middle" x="143" y="-7" font-family="Helvetica,sans-Serif" font-size="10.00">OMSim_effective_area.cc</text>
</a>
</g>
</g>
<!-- Node2&#45;&gt;Node3 -->
<g id="edge2_Node000002_Node000003" class="edge">
<title>Node2&#45;&gt;Node3</title>
<g id="a_edge2_Node000002_Node000003"><a xlink:title=" ">
<path fill="none" stroke="#63b8ff" d="M67.86,-158.46C39.54,-135.46 -5.95,-90.47 19,-55 32.23,-36.2 54.18,-25.3 75.97,-19"/>
<polygon fill="#63b8ff" stroke="#63b8ff" points="65.98,-161.43 76,-164.86 70.3,-155.93 65.98,-161.43"/>
</a>
</g>
</g>
<!-- Node6 -->
<g id="Node000006" class="node">
<title>Node6</title>
<g id="a_Node000006"><a xlink:href="common_2framework_2include_2_o_m_sim_run_action_8hh_source.html" target="_top" xlink:title=" ">
<polygon fill="white" stroke="#666666" points="361,-184 245,-184 245,-165 361,-165 361,-184"/>
<text text-anchor="middle" x="303" y="-172" font-family="Helvetica,sans-Serif" font-size="10.00">OMSimRunAction.hh</text>
</a>
</g>
</g>
<!-- Node5&#45;&gt;Node6 -->
<g id="edge5_Node000005_Node000006" class="edge">
<title>Node5&#45;&gt;Node6</title>
<g id="a_edge5_Node000005_Node000006"><a xlink:title=" ">
<path fill="none" stroke="#63b8ff" d="M603.5,-218.54C533.5,-208.52 426.71,-193.22 361.08,-183.82"/>
<polygon fill="#63b8ff" stroke="#63b8ff" points="603.16,-222.03 613.55,-219.98 604.15,-215.1 603.16,-222.03"/>
</a>
</g>
</g>
<!-- Node7 -->
<g id="Node000007" class="node">
<title>Node7</title>
<g id="a_Node000007"><a xlink:href="common_2framework_2include_2_o_m_sim_8hh.html" target="_top" xlink:title="Main simulation class for the Optical Module (OM) simulation. This file defines the OMSim class,...">
<polygon fill="white" stroke="#666666" points="95.5,-74 28.5,-74 28.5,-55 95.5,-55 95.5,-74"/>
<text text-anchor="middle" x="62" y="-62" font-family="Helvetica,sans-Serif" font-size="10.00">OMSim.hh</text>
</a>
</g>
</g>
<!-- Node6&#45;&gt;Node7 -->
<g id="edge6_Node000006_Node000007" class="edge">
<title>Node6&#45;&gt;Node7</title>
<g id="a_edge6_Node000006_Node000007"><a xlink:title=" ">
<path fill="none" stroke="#63b8ff" d="M274.45,-160.71C224.66,-138.4 123.26,-92.95 81.07,-74.05"/>
<polygon fill="#63b8ff" stroke="#63b8ff" points="273.13,-163.95 283.69,-164.84 275.99,-157.56 273.13,-163.95"/>
</a>
</g>
</g>
<!-- Node9 -->
<g id="Node000009" class="node">
<title>Node9</title>
<g id="a_Node000009"><a xlink:href="simulations_2wavepid_2include_2_o_m_sim_run_action_8hh.html" target="_top" xlink:title="Run action for WavePID simulation.">
<polygon fill="white" stroke="#666666" points="699,-184 583,-184 583,-165 699,-165 699,-184"/>
<text text-anchor="middle" x="641" y="-172" font-family="Helvetica,sans-Serif" font-size="10.00">OMSimRunAction.hh</text>
</a>
</g>
</g>
<!-- Node8&#45;&gt;Node9 -->
<g id="edge8_Node000008_Node000009" class="edge">
<title>Node8&#45;&gt;Node9</title>
<g id="a_edge8_Node000008_Node000009"><a xlink:title=" ">
<path fill="none" stroke="#63b8ff" d="M776.23,-216.93C743.91,-207.03 698.14,-193.01 669.01,-184.08"/>
<polygon fill="#63b8ff" stroke="#63b8ff" points="775.62,-220.4 786.2,-219.98 777.67,-213.71 775.62,-220.4"/>
</a>
</g>
</g>
<!-- Node10 -->
<g id="Node000010" class="node">
<title>Node10</title>
<g id="a_Node000010"><a xlink:href="simulations_2wavepid_2include_2_o_m_sim_8hh.html" target="_top" xlink:title="Main simulation class for the Optical Module (OM) simulation.">
<polygon fill="white" stroke="#666666" points="180.5,-74 113.5,-74 113.5,-55 180.5,-55 180.5,-74"/>
<text text-anchor="middle" x="147" y="-62" font-family="Helvetica,sans-Serif" font-size="10.00">OMSim.hh</text>
</a>
</g>
</g>
<!-- Node9&#45;&gt;Node10 -->
<g id="edge9_Node000009_Node000010" class="edge">
<title>Node9&#45;&gt;Node10</title>
<g id="a_edge9_Node000009_Node000010"><a xlink:title=" ">
<path fill="none" stroke="#63b8ff" d="M590.71,-162.85C548.57,-153.91 486.83,-140.73 433,-129 341.81,-109.12 234.4,-85.11 180.88,-73.11"/>
<polygon fill="#63b8ff" stroke="#63b8ff" points="590.21,-166.33 600.72,-164.98 591.66,-159.48 590.21,-166.33"/>
</a>
</g>
</g>
<!-- Node11&#45;&gt;Node11 -->
<g id="edge44_Node000011_Node000011" class="edge">
<title>Node11&#45;&gt;Node11</title>
<g id="a_edge44_Node000011_Node000011"><a xlink:title=" ">
<path fill="none" stroke="#63b8ff" d="M1021.29,-239.56C1042.61,-240.13 1060.5,-236.77 1060.5,-229.5 1060.5,-221.12 1036.71,-217.94 1011.3,-219.97"/>
<polygon fill="#63b8ff" stroke="#63b8ff" points="1021.47,-236.07 1011.3,-239.03 1021.1,-243.06 1021.47,-236.07"/>
</a>
</g>
</g>
<!-- Node12 -->
<g id="Node000012" class="node">
<title>Node12</title>
<g id="a_Node000012"><a xlink:href="_o_m_sim_d_e_g_g_8hh.html" target="_top" xlink:title="Construction of the DEGG class.">
<polygon fill="white" stroke="#666666" points="1135.5,-129 1040.5,-129 1040.5,-110 1135.5,-110 1135.5,-129"/>
<text text-anchor="middle" x="1088" y="-117" font-family="Helvetica,sans-Serif" font-size="10.00">OMSimDEGG.hh</text>
</a>
</g>
</g>
<!-- Node11&#45;&gt;Node12 -->
<g id="edge11_Node000011_Node000012" class="edge">
<title>Node11&#45;&gt;Node12</title>
<g id="a_edge11_Node000011_Node000012"><a xlink:title=" ">
<path fill="none" stroke="#63b8ff" d="M997.8,-215.63C1013.33,-207.96 1031.96,-197.15 1046,-184 1063.56,-167.56 1077.38,-142.4 1083.9,-129.23"/>
<polygon fill="#63b8ff" stroke="#63b8ff" points="996.14,-212.55 988.6,-220 999.14,-218.87 996.14,-212.55"/>
</a>
</g>
</g>
<!-- Node14 -->
<g id="Node000014" class="node">
<title>Node14</title>
<g id="a_Node000014"><a xlink:href="_o_m_sim_l_o_m16_8hh.html" target="_top" xlink:title="Construction of LOM16.">
<polygon fill="white" stroke="#666666" points="1373.5,-129 1272.5,-129 1272.5,-110 1373.5,-110 1373.5,-129"/>
<text text-anchor="middle" x="1323" y="-117" font-family="Helvetica,sans-Serif" font-size="10.00">OMSimLOM16.hh</text>
</a>
</g>
</g>
<!-- Node11&#45;&gt;Node14 -->
<g id="edge13_Node000011_Node000014" class="edge">
<title>Node11&#45;&gt;Node14</title>
<g id="a_edge13_Node000011_Node000014"><a xlink:title=" ">
<path fill="none" stroke="#63b8ff" d="M1006.13,-216.9C1077.9,-195.07 1231.54,-148.33 1294.84,-129.07"/>
<polygon fill="#63b8ff" stroke="#63b8ff" points="1004.7,-213.68 996.15,-219.94 1006.74,-220.37 1004.7,-213.68"/>
</a>
</g>
</g>
<!-- Node15 -->
<g id="Node000015" class="node">
<title>Node15</title>
<g id="a_Node000015"><a xlink:href="_o_m_sim_l_o_m18_8hh.html" target="_top" xlink:title="Construction of LOM18.">
<polygon fill="white" stroke="#666666" points="1254.5,-129 1153.5,-129 1153.5,-110 1254.5,-110 1254.5,-129"/>
<text text-anchor="middle" x="1204" y="-117" font-family="Helvetica,sans-Serif" font-size="10.00">OMSimLOM18.hh</text>
</a>
</g>
</g>
<!-- Node11&#45;&gt;Node15 -->
<g id="edge15_Node000011_Node000015" class="edge">
<title>Node11&#45;&gt;Node15</title>
<g id="a_edge15_Node000011_Node000015"><a xlink:title=" ">
<path fill="none" stroke="#63b8ff" d="M996.79,-215.85C1016.8,-207.02 1044.08,-194.91 1068,-184 1110.44,-164.65 1160.02,-141.31 1186.01,-129.03"/>
<polygon fill="#63b8ff" stroke="#63b8ff" points="995.33,-212.67 987.59,-219.91 998.15,-219.08 995.33,-212.67"/>
</a>
</g>
</g>
<!-- Node17 -->
<g id="Node000017" class="node">
<title>Node17</title>
<g id="a_Node000017"><a xlink:href="_o_m_sim_m_d_o_m_8hh.html" target="_top" xlink:title="Construction of mDOM.">
<polygon fill="white" stroke="#666666" points="1492,-129 1392,-129 1392,-110 1492,-110 1492,-129"/>
<text text-anchor="middle" x="1442" y="-117" font-family="Helvetica,sans-Serif" font-size="10.00">OMSimMDOM.hh</text>
</a>
</g>
</g>
<!-- Node11&#45;&gt;Node17 -->
<g id="edge18_Node000011_Node000017" class="edge">
<title>Node11&#45;&gt;Node17</title>
<g id="a_edge18_Node000011_Node000017"><a xlink:title=" ">
<path fill="none" stroke="#63b8ff" d="M1015.42,-217.69C1109.68,-196.22 1318.84,-148.56 1404.41,-129.07"/>
<polygon fill="#63b8ff" stroke="#63b8ff" points="1014.56,-214.3 1005.59,-219.94 1016.12,-221.13 1014.56,-214.3"/>
</a>
</g>
</g>
<!-- Node18 -->
<g id="Node000018" class="node">
<title>Node18</title>
<g id="a_Node000018"><a xlink:href="_o_m_sim_optical_module_8hh_source.html" target="_top" xlink:title=" ">
<polygon fill="white" stroke="#666666" points="1036.5,-184 899.5,-184 899.5,-165 1036.5,-165 1036.5,-184"/>
<text text-anchor="middle" x="968" y="-172" font-family="Helvetica,sans-Serif" font-size="10.00">OMSimOpticalModule.hh</text>
</a>
</g>
</g>
<!-- Node11&#45;&gt;Node18 -->
<g id="edge20_Node000011_Node000018" class="edge">
<title>Node11&#45;&gt;Node18</title>
<g id="a_edge20_Node000011_Node000018"><a xlink:title=" ">
<path fill="none" stroke="#63b8ff" d="M968,-209.66C968,-200.93 968,-190.99 968,-184.09"/>
<polygon fill="#63b8ff" stroke="#63b8ff" points="964.5,-209.75 968,-219.75 971.5,-209.75 964.5,-209.75"/>
</a>
</g>
</g>
<!-- Node29 -->
<g id="Node000029" class="node">
<title>Node29</title>
<g id="a_Node000029"><a xlink:href="_o_m_sim_p_d_o_m_8hh.html" target="_top" xlink:title="Implementation of the pDOM (deepcore) or Gen1 DOM..">
<polygon fill="white" stroke="#666666" points="843.5,-129 746.5,-129 746.5,-110 843.5,-110 843.5,-129"/>
<text text-anchor="middle" x="795" y="-117" font-family="Helvetica,sans-Serif" font-size="10.00">OMSimPDOM.hh</text>
</a>
</g>
</g>
<!-- Node11&#45;&gt;Node29 -->
<g id="edge43_Node000011_Node000029" class="edge">
<title>Node11&#45;&gt;Node29</title>
<g id="a_edge43_Node000011_Node000029"><a xlink:title=" ">
<path fill="none" stroke="#63b8ff" d="M943.67,-214.94C928.41,-206.31 908.4,-194.77 891,-184 860.58,-165.18 825.77,-141.63 807.58,-129.17"/>
<polygon fill="#63b8ff" stroke="#63b8ff" points="942.07,-218.05 952.5,-219.9 945.5,-211.95 942.07,-218.05"/>
</a>
</g>
</g>
<!-- Node13 -->
<g id="Node000013" class="node">
<title>Node13</title>
<g id="a_Node000013"><a xlink:href="_o_m_sim_wave_p_i_d_detector_8cc.html" target="_top" xlink:title="Implementation of detector construction for WavePID study.">
<polygon fill="white" stroke="#666666" points="1280,-19 1130,-19 1130,0 1280,0 1280,-19"/>
<text text-anchor="middle" x="1205" y="-7" font-family="Helvetica,sans-Serif" font-size="10.00">OMSimWavePIDDetector.cc</text>
</a>
</g>
</g>
<!-- Node12&#45;&gt;Node13 -->
<g id="edge12_Node000012_Node000013" class="edge">
<title>Node12&#45;&gt;Node13</title>
<g id="a_edge12_Node000012_Node000013"><a xlink:title=" ">
<path fill="none" stroke="#63b8ff" d="M1101.93,-102.04C1113.46,-88.78 1130.57,-69.95 1147,-55 1161.83,-41.5 1180.45,-27.72 1192.53,-19.14"/>
<polygon fill="#63b8ff" stroke="#63b8ff" points="1099.08,-99.99 1095.22,-109.85 1104.39,-104.55 1099.08,-99.99"/>
</a>
</g>
</g>
<!-- Node14&#45;&gt;Node13 -->
<g id="edge14_Node000014_Node000013" class="edge">
<title>Node14&#45;&gt;Node13</title>
<g id="a_edge14_Node000014_Node000013"><a xlink:title=" ">
<path fill="none" stroke="#63b8ff" d="M1313.6,-100.95C1305.66,-87.28 1293.33,-68.43 1279,-55 1262.49,-39.52 1239.71,-26.82 1223.8,-19"/>
<polygon fill="#63b8ff" stroke="#63b8ff" points="1310.63,-102.81 1318.56,-109.83 1316.74,-99.4 1310.63,-102.81"/>
</a>
</g>
</g>
<!-- Node15&#45;&gt;Node13 -->
<g id="edge17_Node000015_Node000013" class="edge">
<title>Node15&#45;&gt;Node13</title>
<g id="a_edge17_Node000015_Node000013"><a xlink:title=" ">
<path fill="none" stroke="#63b8ff" d="M1232.53,-104.95C1244.56,-97.61 1257.31,-87.29 1264,-74 1275.64,-50.88 1245,-30.16 1223.65,-19.06"/>
<polygon fill="#63b8ff" stroke="#63b8ff" points="1230.58,-102.03 1223.58,-109.98 1234.01,-108.13 1230.58,-102.03"/>
</a>
</g>
</g>
<!-- Node16 -->
<g id="Node000016" class="node">
<title>Node16</title>
<g id="a_Node000016"><a xlink:href="_o_m_sim_l_o_m18_8cc.html" target="_top" xlink:title=" ">
<polygon fill="white" stroke="#666666" points="1254.5,-74 1155.5,-74 1155.5,-55 1254.5,-55 1254.5,-74"/>
<text text-anchor="middle" x="1205" y="-62" font-family="Helvetica,sans-Serif" font-size="10.00">OMSimLOM18.cc</text>
</a>
</g>
</g>
<!-- Node15&#45;&gt;Node16 -->
<g id="edge16_Node000015_Node000016" class="edge">
<title>Node15&#45;&gt;Node16</title>
<g id="a_edge16_Node000015_Node000016"><a xlink:title=" ">
<path fill="none" stroke="#63b8ff" d="M1204.36,-99.66C1204.52,-90.93 1204.71,-80.99 1204.84,-74.09"/>
<polygon fill="#63b8ff" stroke="#63b8ff" points="1200.85,-99.68 1204.17,-109.75 1207.85,-99.82 1200.85,-99.68"/>
</a>
</g>
</g>
<!-- Node17&#45;&gt;Node13 -->
<g id="edge19_Node000017_Node000013" class="edge">
<title>Node17&#45;&gt;Node13</title>
<g id="a_edge19_Node000017_Node000013"><a xlink:title=" ">
<path fill="none" stroke="#63b8ff" d="M1413.62,-105.57C1364.55,-83.21 1265.15,-37.91 1223.76,-19.05"/>
<polygon fill="#63b8ff" stroke="#63b8ff" points="1412.45,-108.88 1423.01,-109.84 1415.36,-102.51 1412.45,-108.88"/>
</a>
</g>
</g>
<!-- Node18&#45;&gt;Node12 -->
<g id="edge21_Node000018_Node000012" class="edge">
<title>Node18&#45;&gt;Node12</title>
<g id="a_edge21_Node000018_Node000012"><a xlink:title=" ">
<path fill="none" stroke="#63b8ff" d="M996.53,-160.9C1018.7,-151.11 1048.85,-137.79 1068.37,-129.17"/>
<polygon fill="#63b8ff" stroke="#63b8ff" points="995.01,-157.74 987.28,-164.98 997.84,-164.15 995.01,-157.74"/>
</a>
</g>
</g>
<!-- Node18&#45;&gt;Node14 -->
<g id="edge37_Node000018_Node000014" class="edge">
<title>Node18&#45;&gt;Node14</title>
<g id="a_edge37_Node000018_Node000014"><a xlink:title=" ">
<path fill="none" stroke="#63b8ff" d="M1034.94,-163.51C1103.98,-153.2 1210.1,-137.36 1272.43,-128.05"/>
<polygon fill="#63b8ff" stroke="#63b8ff" points="1034.41,-160.05 1025.04,-164.98 1035.44,-166.97 1034.41,-160.05"/>
</a>
</g>
</g>
<!-- Node18&#45;&gt;Node15 -->
<g id="edge38_Node000018_Node000015" class="edge">
<title>Node18&#45;&gt;Node15</title>
<g id="a_edge38_Node000018_Node000015"><a xlink:title=" ">
<path fill="none" stroke="#63b8ff" d="M1015.85,-162.75C1060.08,-152.82 1124.93,-138.26 1165.79,-129.08"/>
<polygon fill="#63b8ff" stroke="#63b8ff" points="1014.91,-159.38 1005.92,-164.98 1016.44,-166.21 1014.91,-159.38"/>
</a>
</g>
</g>
<!-- Node18&#45;&gt;Node17 -->
<g id="edge39_Node000018_Node000017" class="edge">
<title>Node18&#45;&gt;Node17</title>
<g id="a_edge39_Node000018_Node000017"><a xlink:title=" ">
<path fill="none" stroke="#63b8ff" d="M1046.93,-165.9C1130.49,-157.65 1266.19,-143.67 1383,-129 1385.88,-128.64 1388.83,-128.26 1391.8,-127.86"/>
<polygon fill="#63b8ff" stroke="#63b8ff" points="1046.36,-162.44 1036.75,-166.9 1047.04,-169.4 1046.36,-162.44"/>
</a>
</g>
</g>
<!-- Node19 -->
<g id="Node000019" class="node">
<title>Node19</title>
<g id="a_Node000019"><a xlink:href="_o_m_sim_decays_g_p_s_8hh.html" target="_top" xlink:title="Defines the OMSimDecaysGPS class for the radioactive decays simulation.">
<polygon fill="white" stroke="#666666" points="1022,-129 900,-129 900,-110 1022,-110 1022,-129"/>
<text text-anchor="middle" x="961" y="-117" font-family="Helvetica,sans-Serif" font-size="10.00">OMSimDecaysGPS.hh</text>
</a>
</g>
</g>
<!-- Node18&#45;&gt;Node19 -->
<g id="edge22_Node000018_Node000019" class="edge">
<title>Node18&#45;&gt;Node19</title>
<g id="a_edge22_Node000018_Node000019"><a xlink:title=" ">
<path fill="none" stroke="#63b8ff" d="M965.51,-154.66C964.36,-145.93 963.05,-135.99 962.13,-129.09"/>
<polygon fill="#63b8ff" stroke="#63b8ff" points="962.06,-155.29 966.84,-164.75 969,-154.38 962.06,-155.29"/>
</a>
</g>
</g>
<!-- Node21 -->
<g id="Node000021" class="node">
<title>Node21</title>
<g id="a_Node000021"><a xlink:href="_o_m_sim_detector_construction_8hh_source.html" target="_top" xlink:title=" ">
<polygon fill="white" stroke="#666666" points="612,-129 442,-129 442,-110 612,-110 612,-129"/>
<text text-anchor="middle" x="527" y="-117" font-family="Helvetica,sans-Serif" font-size="10.00">OMSimDetectorConstruction.hh</text>
</a>
</g>
</g>
<!-- Node18&#45;&gt;Node21 -->
<g id="edge24_Node000018_Node000021" class="edge">
<title>Node18&#45;&gt;Node21</title>
<g id="a_edge24_Node000018_Node000021"><a xlink:title=" ">
<path fill="none" stroke="#63b8ff" d="M888.99,-164C806.27,-154.06 677.56,-138.59 597.98,-129.03"/>
<polygon fill="#63b8ff" stroke="#63b8ff" points="888.75,-167.5 899.09,-165.22 889.58,-160.55 888.75,-167.5"/>
</a>
</g>
</g>
<!-- Node24 -->
<g id="Node000024" class="node">
<title>Node24</title>
<g id="a_Node000024"><a xlink:href="_o_m_sim_rad_decays_detector_8hh.html" target="_top" xlink:title="Defines the OMSimRadDecaysDetector class for the radioactive decays simulation.">
<polygon fill="white" stroke="#666666" points="1022.5,-74 859.5,-74 859.5,-55 1022.5,-55 1022.5,-74"/>
<text text-anchor="middle" x="941" y="-62" font-family="Helvetica,sans-Serif" font-size="10.00">OMSimRadDecaysDetector.hh</text>
</a>
</g>
</g>
<!-- Node18&#45;&gt;Node24 -->
<g id="edge42_Node000018_Node000024" class="edge">
<title>Node18&#45;&gt;Node24</title>
<g id="a_edge42_Node000018_Node000024"><a xlink:title=" ">
<path fill="none" stroke="#63b8ff" d="M929.35,-160.77C914.65,-153.83 899.42,-143.59 891,-129 878.73,-107.73 906.6,-85.87 925.46,-74.16"/>
<polygon fill="#63b8ff" stroke="#63b8ff" points="928.29,-164.13 938.86,-164.87 931.07,-157.7 928.29,-164.13"/>
</a>
</g>
</g>
<!-- Node18&#45;&gt;Node29 -->
<g id="edge40_Node000018_Node000029" class="edge">
<title>Node18&#45;&gt;Node29</title>
<g id="a_edge40_Node000018_Node000029"><a xlink:title=" ">
<path fill="none" stroke="#63b8ff" d="M930.23,-161.93C897.91,-152.03 852.14,-138.01 823.01,-129.08"/>
<polygon fill="#63b8ff" stroke="#63b8ff" points="929.62,-165.4 940.2,-164.98 931.67,-158.71 929.62,-165.4"/>
</a>
</g>
</g>
<!-- Node20 -->
<g id="Node000020" class="node">
<title>Node20</title>
<g id="a_Node000020"><a xlink:href="_o_m_sim__radioactive__decays_8cc.html" target="_top" xlink:title="Main of the radioactive decay study.">
<polygon fill="white" stroke="#666666" points="1028.5,-19 863.5,-19 863.5,0 1028.5,0 1028.5,-19"/>
<text text-anchor="middle" x="946" y="-7" font-family="Helvetica,sans-Serif" font-size="10.00">OMSim_radioactive_decays.cc</text>
</a>
</g>
</g>
<!-- Node19&#45;&gt;Node20 -->
<g id="edge23_Node000019_Node000020" class="edge">
<title>Node19&#45;&gt;Node20</title>
<g id="a_edge23_Node000019_Node000020"><a xlink:title=" ">
<path fill="none" stroke="#63b8ff" d="M994.03,-105.77C1018.27,-94.37 1044.9,-76.2 1032,-55 1020.9,-36.76 999.65,-25.67 981.05,-19.12"/>
<polygon fill="#63b8ff" stroke="#63b8ff" points="992.33,-102.7 984.6,-109.95 995.16,-109.1 992.33,-102.7"/>
</a>
</g>
</g>
<!-- Node21&#45;&gt;Node7 -->
<g id="edge25_Node000021_Node000007" class="edge">
<title>Node21&#45;&gt;Node7</title>
<g id="a_edge25_Node000021_Node000007"><a xlink:title=" ">
<path fill="none" stroke="#63b8ff" d="M431.62,-111.07C345.67,-103.75 215.98,-91.18 104,-74 101.35,-73.59 98.62,-73.13 95.88,-72.64"/>
<polygon fill="#63b8ff" stroke="#63b8ff" points="431.36,-114.56 441.62,-111.91 431.95,-107.58 431.36,-114.56"/>
</a>
</g>
</g>
<!-- Node21&#45;&gt;Node10 -->
<g id="edge26_Node000021_Node000010" class="edge">
<title>Node21&#45;&gt;Node10</title>
<g id="a_edge26_Node000021_Node000010"><a xlink:title=" ">
<path fill="none" stroke="#63b8ff" d="M440.3,-108.75C371.87,-100.65 274.1,-88.2 189,-74 186.36,-73.56 183.63,-73.07 180.89,-72.57"/>
<polygon fill="#63b8ff" stroke="#63b8ff" points="440.26,-112.27 450.6,-109.96 441.07,-105.32 440.26,-112.27"/>
</a>
</g>
</g>
<!-- Node22 -->
<g id="Node000022" class="node">
<title>Node22</title>
<g id="a_Node000022"><a xlink:href="_o_m_sim_effective_area_detector_8hh.html" target="_top" xlink:title="Defines the OMSimEffectiveAreaDetector class for effective area simulation detector construction.">
<polygon fill="white" stroke="#666666" points="371.5,-74 198.5,-74 198.5,-55 371.5,-55 371.5,-74"/>
<text text-anchor="middle" x="285" y="-62" font-family="Helvetica,sans-Serif" font-size="10.00">OMSimEffectiveAreaDetector.hh</text>
</a>
</g>
</g>
<!-- Node21&#45;&gt;Node22 -->
<g id="edge27_Node000021_Node000022" class="edge">
<title>Node21&#45;&gt;Node22</title>
<g id="a_edge27_Node000021_Node000022"><a xlink:title=" ">
<path fill="none" stroke="#63b8ff" d="M478.21,-107.82C432.86,-97.88 366.17,-83.28 324.19,-74.08"/>
<polygon fill="#63b8ff" stroke="#63b8ff" points="477.6,-111.26 488.12,-109.98 479.1,-104.43 477.6,-111.26"/>
</a>
</g>
</g>
<!-- Node23 -->
<g id="Node000023" class="node">
<title>Node23</title>
<g id="a_Node000023"><a xlink:href="_o_m_sim_effi_cali_detector_8hh_source.html" target="_top" xlink:title=" ">
<polygon fill="white" stroke="#666666" points="841.5,-74 698.5,-74 698.5,-55 841.5,-55 841.5,-74"/>
<text text-anchor="middle" x="770" y="-62" font-family="Helvetica,sans-Serif" font-size="10.00">OMSimEffiCaliDetector.hh</text>
</a>
</g>
</g>
<!-- Node21&#45;&gt;Node23 -->
<g id="edge29_Node000021_Node000023" class="edge">
<title>Node21&#45;&gt;Node23</title>
<g id="a_edge29_Node000021_Node000023"><a xlink:title=" ">
<path fill="none" stroke="#63b8ff" d="M575.99,-107.82C621.53,-97.88 688.5,-83.28 730.65,-74.08"/>
<polygon fill="#63b8ff" stroke="#63b8ff" points="575.07,-104.43 566.04,-109.98 576.56,-111.27 575.07,-104.43"/>
</a>
</g>
</g>
<!-- Node21&#45;&gt;Node24 -->
<g id="edge30_Node000021_Node000024" class="edge">
<title>Node21&#45;&gt;Node24</title>
<g id="a_edge30_Node000021_Node000024"><a xlink:title=" ">
<path fill="none" stroke="#63b8ff" d="M603.73,-108.68C681.43,-98.73 800.41,-83.5 874.31,-74.04"/>
<polygon fill="#63b8ff" stroke="#63b8ff" points="602.99,-105.24 593.52,-109.98 603.88,-112.19 602.99,-105.24"/>
</a>
</g>
</g>
<!-- Node25 -->
<g id="Node000025" class="node">
<title>Node25</title>
<g id="a_Node000025"><a xlink:href="_o_m_sim_s_ndetector_8hh_source.html" target="_top" xlink:title=" ">
<polygon fill="white" stroke="#666666" points="510,-74 390,-74 390,-55 510,-55 510,-74"/>
<text text-anchor="middle" x="450" y="-62" font-family="Helvetica,sans-Serif" font-size="10.00">OMSimSNdetector.hh</text>
</a>
</g>
</g>
<!-- Node21&#45;&gt;Node25 -->
<g id="edge32_Node000021_Node000025" class="edge">
<title>Node21&#45;&gt;Node25</title>
<g id="a_edge32_Node000021_Node000025"><a xlink:title=" ">
<path fill="none" stroke="#63b8ff" d="M506.15,-104.15C492.24,-94.57 474.39,-82.29 462.6,-74.17"/>
<polygon fill="#63b8ff" stroke="#63b8ff" points="504.41,-107.2 514.63,-109.98 508.38,-101.43 504.41,-107.2"/>
</a>
</g>
</g>
<!-- Node27 -->
<g id="Node000027" class="node">
<title>Node27</title>
<g id="a_Node000027"><a xlink:href="_o_m_sim_wave_p_i_d_detector_8hh.html" target="_top" xlink:title="Detector construction for WavePID simulation study.">
<polygon fill="white" stroke="#666666" points="680,-74 528,-74 528,-55 680,-55 680,-74"/>
<text text-anchor="middle" x="604" y="-62" font-family="Helvetica,sans-Serif" font-size="10.00">OMSimWavePIDDetector.hh</text>
</a>
</g>
</g>
<!-- Node21&#45;&gt;Node27 -->
<g id="edge34_Node000021_Node000027" class="edge">
<title>Node21&#45;&gt;Node27</title>
<g id="a_edge34_Node000021_Node000027"><a xlink:title=" ">
<path fill="none" stroke="#63b8ff" d="M547.85,-104.15C561.76,-94.57 579.61,-82.29 591.4,-74.17"/>
<polygon fill="#63b8ff" stroke="#63b8ff" points="545.62,-101.43 539.37,-109.98 549.59,-107.2 545.62,-101.43"/>
</a>
</g>
</g>
<!-- Node22&#45;&gt;Node3 -->
<g id="edge28_Node000022_Node000003" class="edge">
<title>Node22&#45;&gt;Node3</title>
<g id="a_edge28_Node000022_Node000003"><a xlink:title=" ">
<path fill="none" stroke="#63b8ff" d="M252.64,-51.42C226.29,-41.59 189.74,-27.95 166.23,-19.17"/>
<polygon fill="#63b8ff" stroke="#63b8ff" points="251.59,-54.77 262.19,-54.98 254.04,-48.21 251.59,-54.77"/>
</a>
</g>
</g>
<!-- Node24&#45;&gt;Node20 -->
<g id="edge31_Node000024_Node000020" class="edge">
<title>Node24&#45;&gt;Node20</title>
<g id="a_edge31_Node000024_Node000020"><a xlink:title=" ">
<path fill="none" stroke="#63b8ff" d="M942.78,-44.66C943.6,-35.93 944.54,-25.99 945.19,-19.09"/>
<polygon fill="#63b8ff" stroke="#63b8ff" points="939.28,-44.46 941.83,-54.75 946.25,-45.12 939.28,-44.46"/>
</a>
</g>
</g>
<!-- Node26 -->
<g id="Node000026" class="node">
<title>Node26</title>
<g id="a_Node000026"><a xlink:href="_o_m_sim_supernova_8cc.html" target="_top" xlink:title="Main of the supernova study.">
<polygon fill="white" stroke="#666666" points="508.5,-19 391.5,-19 391.5,0 508.5,0 508.5,-19"/>
<text text-anchor="middle" x="450" y="-7" font-family="Helvetica,sans-Serif" font-size="10.00">OMSimSupernova.cc</text>
</a>
</g>
</g>
<!-- Node25&#45;&gt;Node26 -->
<g id="edge33_Node000025_Node000026" class="edge">
<title>Node25&#45;&gt;Node26</title>
<g id="a_edge33_Node000025_Node000026"><a xlink:title=" ">
<path fill="none" stroke="#63b8ff" d="M450,-44.66C450,-35.93 450,-25.99 450,-19.09"/>
<polygon fill="#63b8ff" stroke="#63b8ff" points="446.5,-44.75 450,-54.75 453.5,-44.75 446.5,-44.75"/>
</a>
</g>
</g>
<!-- Node27&#45;&gt;Node13 -->
<g id="edge35_Node000027_Node000013" class="edge">
<title>Node27&#45;&gt;Node13</title>
<g id="a_edge35_Node000027_Node000013"><a xlink:title=" ">
<path fill="none" stroke="#63b8ff" d="M690.64,-54.86C853.17,-39.78 1031.33,-24.8 1129.77,-16.66"/>
<polygon fill="#63b8ff" stroke="#63b8ff" points="690.08,-51.39 680.45,-55.81 690.73,-58.36 690.08,-51.39"/>
</a>
</g>
</g>
<!-- Node28 -->
<g id="Node000028" class="node">
<title>Node28</title>
<g id="a_Node000028"><a xlink:href="_o_m_sim___wave_p_i_d__study_8cc.html" target="_top" xlink:title="Main executable for WavePID photon origin tracking study.">
<polygon fill="white" stroke="#666666" points="676.5,-19 531.5,-19 531.5,0 676.5,0 676.5,-19"/>
<text text-anchor="middle" x="604" y="-7" font-family="Helvetica,sans-Serif" font-size="10.00">OMSim_WavePID_study.cc</text>
</a>
</g>
</g>
<!-- Node27&#45;&gt;Node28 -->
<g id="edge36_Node000027_Node000028" class="edge">
<title>Node27&#45;&gt;Node28</title>
<g id="a_edge36_Node000027_Node000028"><a xlink:title=" ">
<path fill="none" stroke="#63b8ff" d="M604,-44.66C604,-35.93 604,-25.99 604,-19.09"/>
<polygon fill="#63b8ff" stroke="#63b8ff" points="600.5,-44.75 604,-54.75 607.5,-44.75 600.5,-44.75"/>
</a>
</g>
</g>
<!-- Node29&#45;&gt;Node13 -->
<g id="edge41_Node000029_Node000013" class="edge">
<title>Node29&#45;&gt;Node13</title>
<g id="a_edge41_Node000029_Node000013"><a xlink:title=" ">
<path fill="none" stroke="#63b8ff" d="M853.63,-110.27C901.97,-102.83 972.09,-90.5 1032,-74 1088.76,-58.37 1153.3,-32.4 1185.11,-19.03"/>
<polygon fill="#63b8ff" stroke="#63b8ff" points="853.01,-106.82 843.65,-111.79 854.06,-113.74 853.01,-106.82"/>
</a>
</g>
</g>
</g>
</svg>
