<?xml version="1.0" encoding="UTF-8" standalone="no"?>
<!DOCTYPE svg PUBLIC "-//W3C//DTD SVG 1.1//EN"
 "http://www.w3.org/Graphics/SVG/1.1/DTD/svg11.dtd">
<!-- Generated by graphviz version 2.43.0 (0)
 -->
<!-- Title: OMSimActionInitialization.cc Pages: 1 -->
<svg width="1294pt" height="263pt"
 viewBox="0.00 0.00 1293.50 263.00" xmlns="http://www.w3.org/2000/svg" xmlns:xlink="http://www.w3.org/1999/xlink">
<g id="graph0" class="graph" transform="scale(1 1) rotate(0) translate(4 259)">
<title>OMSimActionInitialization.cc</title>
<polygon fill="white" stroke="transparent" points="-4,4 -4,-259 1289.5,-259 1289.5,4 -4,4"/>
<!-- Node1 -->
<g id="node1" class="node">
<title>Node1</title>
<g id="a_node1"><a xlink:title=" ">
<polygon fill="#bfbfbf" stroke="black" points="702,-235.5 702,-254.5 859,-254.5 859,-235.5 702,-235.5"/>
<text text-anchor="middle" x="780.5" y="-242.5" font-family="Helvetica,sans-Serif" font-size="10.00">OMSimActionInitialization.cc</text>
</a>
</g>
</g>
<!-- Node2 -->
<g id="node2" class="node">
<title>Node2</title>
<g id="a_node2"><a xlink:href="_o_m_sim_action_initialization_8hh.html" target="_top" xlink:title=" ">
<polygon fill="white" stroke="black" points="200.5,-179.5 200.5,-198.5 358.5,-198.5 358.5,-179.5 200.5,-179.5"/>
<text text-anchor="middle" x="279.5" y="-186.5" font-family="Helvetica,sans-Serif" font-size="10.00">OMSimActionInitialization.hh</text>
</a>
</g>
</g>
<!-- Node1&#45;&gt;Node2 -->
<g id="edge1" class="edge">
<title>Node1&#45;&gt;Node2</title>
<path fill="none" stroke="midnightblue" d="M701.94,-235.53C611.47,-225.78 463.17,-209.8 368.51,-199.59"/>
<polygon fill="midnightblue" stroke="midnightblue" points="368.7,-196.09 358.38,-198.5 367.95,-203.05 368.7,-196.09"/>
</g>
<!-- Node4 -->
<g id="node4" class="node">
<title>Node4</title>
<g id="a_node4"><a xlink:title=" ">
<polygon fill="white" stroke="#bfbfbf" points="381,-179.5 381,-198.5 566,-198.5 566,-179.5 381,-179.5"/>
<text text-anchor="middle" x="473.5" y="-186.5" font-family="Helvetica,sans-Serif" font-size="10.00">OMSimPrimaryGeneratorAction.hh</text>
</a>
</g>
</g>
<!-- Node1&#45;&gt;Node4 -->
<g id="edge3" class="edge">
<title>Node1&#45;&gt;Node4</title>
<path fill="none" stroke="midnightblue" d="M731.85,-235.44C677.63,-225.9 589.95,-210.48 532.02,-200.29"/>
<polygon fill="midnightblue" stroke="midnightblue" points="532.37,-196.8 521.92,-198.52 531.16,-203.7 532.37,-196.8"/>
</g>
<!-- Node5 -->
<g id="node5" class="node">
<title>Node5</title>
<g id="a_node5"><a xlink:href="_o_m_sim_run_action_8hh.html" target="_top" xlink:title=" ">
<polygon fill="white" stroke="black" points="583.5,-179.5 583.5,-198.5 699.5,-198.5 699.5,-179.5 583.5,-179.5"/>
<text text-anchor="middle" x="641.5" y="-186.5" font-family="Helvetica,sans-Serif" font-size="10.00">OMSimRunAction.hh</text>
</a>
</g>
</g>
<!-- Node1&#45;&gt;Node5 -->
<g id="edge4" class="edge">
<title>Node1&#45;&gt;Node5</title>
<path fill="none" stroke="midnightblue" d="M758.48,-235.44C735.4,-226.48 698.94,-212.31 672.86,-202.18"/>
<polygon fill="midnightblue" stroke="midnightblue" points="674.01,-198.88 663.42,-198.52 671.48,-205.4 674.01,-198.88"/>
</g>
<!-- Node23 -->
<g id="node23" class="node">
<title>Node23</title>
<g id="a_node23"><a xlink:title=" ">
<polygon fill="white" stroke="#bfbfbf" points="718,-179.5 718,-198.5 843,-198.5 843,-179.5 718,-179.5"/>
<text text-anchor="middle" x="780.5" y="-186.5" font-family="Helvetica,sans-Serif" font-size="10.00">OMSimEventAction.hh</text>
</a>
</g>
</g>
<!-- Node1&#45;&gt;Node23 -->
<g id="edge22" class="edge">
<title>Node1&#45;&gt;Node23</title>
<path fill="none" stroke="midnightblue" d="M780.5,-235.08C780.5,-228.01 780.5,-217.86 780.5,-208.99"/>
<polygon fill="midnightblue" stroke="midnightblue" points="784,-208.75 780.5,-198.75 777,-208.75 784,-208.75"/>
</g>
<!-- Node24 -->
<g id="node24" class="node">
<title>Node24</title>
<g id="a_node24"><a xlink:href="_o_m_sim_tracking_action_8hh.html" target="_top" xlink:title=" ">
<polygon fill="white" stroke="black" points="861.5,-179.5 861.5,-198.5 999.5,-198.5 999.5,-179.5 861.5,-179.5"/>
<text text-anchor="middle" x="930.5" y="-186.5" font-family="Helvetica,sans-Serif" font-size="10.00">OMSimTrackingAction.hh</text>
</a>
</g>
</g>
<!-- Node1&#45;&gt;Node24 -->
<g id="edge23" class="edge">
<title>Node1&#45;&gt;Node24</title>
<path fill="none" stroke="midnightblue" d="M804.27,-235.44C829.39,-226.4 869.21,-212.06 897.4,-201.92"/>
<polygon fill="midnightblue" stroke="midnightblue" points="898.62,-205.2 906.84,-198.52 896.25,-198.61 898.62,-205.2"/>
</g>
<!-- Node26 -->
<g id="node26" class="node">
<title>Node26</title>
<g id="a_node26"><a xlink:href="_o_m_sim_stepping_action_8hh.html" target="_top" xlink:title="Defines OMSimSteppingAction.Currently it only checks for trapped photons.">
<polygon fill="white" stroke="black" points="1017.5,-179.5 1017.5,-198.5 1157.5,-198.5 1157.5,-179.5 1017.5,-179.5"/>
<text text-anchor="middle" x="1087.5" y="-186.5" font-family="Helvetica,sans-Serif" font-size="10.00">OMSimSteppingAction.hh</text>
</a>
</g>
</g>
<!-- Node1&#45;&gt;Node26 -->
<g id="edge25" class="edge">
<title>Node1&#45;&gt;Node26</title>
<path fill="none" stroke="midnightblue" d="M829.15,-235.44C883.37,-225.9 971.05,-210.48 1028.98,-200.29"/>
<polygon fill="midnightblue" stroke="midnightblue" points="1029.84,-203.7 1039.08,-198.52 1028.63,-196.8 1029.84,-203.7"/>
</g>
<!-- Node28 -->
<g id="node28" class="node">
<title>Node28</title>
<g id="a_node28"><a xlink:title=" ">
<polygon fill="white" stroke="#bfbfbf" points="1175.5,-179.5 1175.5,-198.5 1285.5,-198.5 1285.5,-179.5 1175.5,-179.5"/>
<text text-anchor="middle" x="1230.5" y="-186.5" font-family="Helvetica,sans-Serif" font-size="10.00">G4RandomTools.hh</text>
</a>
</g>
</g>
<!-- Node1&#45;&gt;Node28 -->
<g id="edge27" class="edge">
<title>Node1&#45;&gt;Node28</title>
<path fill="none" stroke="midnightblue" d="M858.2,-235.49C933.91,-227.07 1052.57,-213.55 1165.18,-199.15"/>
<polygon fill="midnightblue" stroke="midnightblue" points="1165.88,-202.58 1175.35,-197.84 1164.99,-195.64 1165.88,-202.58"/>
</g>
<!-- Node3 -->
<g id="node3" class="node">
<title>Node3</title>
<g id="a_node3"><a xlink:title=" ">
<polygon fill="white" stroke="#bfbfbf" points="194.5,-123.5 194.5,-142.5 360.5,-142.5 360.5,-123.5 194.5,-123.5"/>
<text text-anchor="middle" x="277.5" y="-130.5" font-family="Helvetica,sans-Serif" font-size="10.00">G4VUserActionInitialization.hh</text>
</a>
</g>
</g>
<!-- Node2&#45;&gt;Node3 -->
<g id="edge2" class="edge">
<title>Node2&#45;&gt;Node3</title>
<path fill="none" stroke="midnightblue" d="M279.17,-179.08C278.91,-172.01 278.53,-161.86 278.2,-152.99"/>
<polygon fill="midnightblue" stroke="midnightblue" points="281.69,-152.61 277.82,-142.75 274.7,-152.87 281.69,-152.61"/>
</g>
<!-- Node6 -->
<g id="node6" class="node">
<title>Node6</title>
<g id="a_node6"><a xlink:title=" ">
<polygon fill="white" stroke="#bfbfbf" points="379,-123.5 379,-142.5 496,-142.5 496,-123.5 379,-123.5"/>
<text text-anchor="middle" x="437.5" y="-130.5" font-family="Helvetica,sans-Serif" font-size="10.00">G4UserRunAction.hh</text>
</a>
</g>
</g>
<!-- Node5&#45;&gt;Node6 -->
<g id="edge5" class="edge">
<title>Node5&#45;&gt;Node6</title>
<path fill="none" stroke="midnightblue" d="M609.18,-179.44C574.11,-170.16 518,-155.31 479.54,-145.13"/>
<polygon fill="midnightblue" stroke="midnightblue" points="480.24,-141.69 469.67,-142.52 478.44,-148.46 480.24,-141.69"/>
</g>
<!-- Node7 -->
<g id="node7" class="node">
<title>Node7</title>
<g id="a_node7"><a xlink:href="_o_m_sim_hit_manager_8hh.html" target="_top" xlink:title="Defines structures and classes related to optical module photon hit management.">
<polygon fill="white" stroke="black" points="514,-123.5 514,-142.5 637,-142.5 637,-123.5 514,-123.5"/>
<text text-anchor="middle" x="575.5" y="-130.5" font-family="Helvetica,sans-Serif" font-size="10.00">OMSimHitManager.hh</text>
</a>
</g>
</g>
<!-- Node5&#45;&gt;Node7 -->
<g id="edge6" class="edge">
<title>Node5&#45;&gt;Node7</title>
<path fill="none" stroke="midnightblue" d="M630.9,-179.32C621.04,-171.26 606.15,-159.08 594.28,-149.37"/>
<polygon fill="midnightblue" stroke="midnightblue" points="596.25,-146.46 586.3,-142.83 591.82,-151.88 596.25,-146.46"/>
</g>
<!-- Node18 -->
<g id="node18" class="node">
<title>Node18</title>
<g id="a_node18"><a xlink:href="_o_m_sim_logger_8hh.html" target="_top" xlink:title=" ">
<polygon fill="white" stroke="black" points="745,-123.5 745,-142.5 844,-142.5 844,-123.5 745,-123.5"/>
<text text-anchor="middle" x="794.5" y="-130.5" font-family="Helvetica,sans-Serif" font-size="10.00">OMSimLogger.hh</text>
</a>
</g>
</g>
<!-- Node5&#45;&gt;Node18 -->
<g id="edge17" class="edge">
<title>Node5&#45;&gt;Node18</title>
<path fill="none" stroke="midnightblue" d="M665.74,-179.44C691.37,-170.4 731.99,-156.06 760.74,-145.92"/>
<polygon fill="midnightblue" stroke="midnightblue" points="762.11,-149.15 770.37,-142.52 759.78,-142.54 762.11,-149.15"/>
</g>
<!-- Node8 -->
<g id="node8" class="node">
<title>Node8</title>
<g id="a_node8"><a xlink:href="_o_m_sim_p_m_t_response_8hh.html" target="_top" xlink:title="Simulation of PMT response.">
<polygon fill="white" stroke="black" points="180,-62 180,-81 315,-81 315,-62 180,-62"/>
<text text-anchor="middle" x="247.5" y="-69" font-family="Helvetica,sans-Serif" font-size="10.00">OMSimPMTResponse.hh</text>
</a>
</g>
</g>
<!-- Node7&#45;&gt;Node8 -->
<g id="edge7" class="edge">
<title>Node7&#45;&gt;Node8</title>
<path fill="none" stroke="midnightblue" d="M526.69,-123.46C475.9,-114.53 394.08,-100.03 323.5,-87 316.42,-85.69 308.97,-84.3 301.61,-82.91"/>
<polygon fill="midnightblue" stroke="midnightblue" points="302.17,-79.45 291.69,-81.02 300.86,-86.33 302.17,-79.45"/>
</g>
<!-- Node14 -->
<g id="node14" class="node">
<title>Node14</title>
<g id="a_node14"><a xlink:title=" ">
<polygon fill="white" stroke="#bfbfbf" points="333,-62 333,-81 436,-81 436,-62 333,-62"/>
<text text-anchor="middle" x="384.5" y="-69" font-family="Helvetica,sans-Serif" font-size="10.00">G4ThreeVector.hh</text>
</a>
</g>
</g>
<!-- Node7&#45;&gt;Node14 -->
<g id="edge13" class="edge">
<title>Node7&#45;&gt;Node14</title>
<path fill="none" stroke="midnightblue" d="M548.13,-123.48C514.95,-113.14 458.85,-95.66 421.74,-84.1"/>
<polygon fill="midnightblue" stroke="midnightblue" points="422.4,-80.64 411.81,-81.01 420.32,-87.32 422.4,-80.64"/>
</g>
<!-- Node15 -->
<g id="node15" class="node">
<title>Node15</title>
<g id="a_node15"><a xlink:title=" ">
<polygon fill="white" stroke="#bfbfbf" points="454,-62 454,-81 509,-81 509,-62 454,-62"/>
<text text-anchor="middle" x="481.5" y="-69" font-family="Helvetica,sans-Serif" font-size="10.00">fstream</text>
</a>
</g>
</g>
<!-- Node7&#45;&gt;Node15 -->
<g id="edge14" class="edge">
<title>Node7&#45;&gt;Node15</title>
<path fill="none" stroke="midnightblue" d="M562.03,-123.48C546.82,-113.84 521.81,-98.02 503.7,-86.55"/>
<polygon fill="midnightblue" stroke="midnightblue" points="505.26,-83.4 494.94,-81.01 501.52,-89.31 505.26,-83.4"/>
</g>
<!-- Node16 -->
<g id="node16" class="node">
<title>Node16</title>
<g id="a_node16"><a xlink:title=" ">
<polygon fill="white" stroke="#bfbfbf" points="527.5,-62 527.5,-81 617.5,-81 617.5,-62 527.5,-62"/>
<text text-anchor="middle" x="572.5" y="-69" font-family="Helvetica,sans-Serif" font-size="10.00">G4AutoLock.hh</text>
</a>
</g>
</g>
<!-- Node7&#45;&gt;Node16 -->
<g id="edge15" class="edge">
<title>Node7&#45;&gt;Node16</title>
<path fill="none" stroke="midnightblue" d="M575.07,-123.48C574.65,-115.08 573.99,-101.98 573.44,-91.16"/>
<polygon fill="midnightblue" stroke="midnightblue" points="576.93,-90.82 572.93,-81.01 569.94,-91.17 576.93,-90.82"/>
</g>
<!-- Node17 -->
<g id="node17" class="node">
<title>Node17</title>
<g id="a_node17"><a xlink:title=" ">
<polygon fill="white" stroke="#bfbfbf" points="635.5,-62 635.5,-81 729.5,-81 729.5,-62 635.5,-62"/>
<text text-anchor="middle" x="682.5" y="-69" font-family="Helvetica,sans-Serif" font-size="10.00">G4Threading.hh</text>
</a>
</g>
</g>
<!-- Node7&#45;&gt;Node17 -->
<g id="edge16" class="edge">
<title>Node7&#45;&gt;Node17</title>
<path fill="none" stroke="midnightblue" d="M590.83,-123.48C608.47,-113.67 637.66,-97.43 658.36,-85.92"/>
<polygon fill="midnightblue" stroke="midnightblue" points="660.16,-88.93 667.2,-81.01 656.76,-82.81 660.16,-88.93"/>
</g>
<!-- Node9 -->
<g id="node9" class="node">
<title>Node9</title>
<g id="a_node9"><a xlink:title=" ">
<polygon fill="white" stroke="#bfbfbf" points="0,-0.5 0,-19.5 119,-19.5 119,-0.5 0,-0.5"/>
<text text-anchor="middle" x="59.5" y="-7.5" font-family="Helvetica,sans-Serif" font-size="10.00">G4SystemOfUnits.hh</text>
</a>
</g>
</g>
<!-- Node8&#45;&gt;Node9 -->
<g id="edge8" class="edge">
<title>Node8&#45;&gt;Node9</title>
<path fill="none" stroke="midnightblue" d="M220.56,-61.98C187.9,-51.64 132.68,-34.16 96.16,-22.6"/>
<polygon fill="midnightblue" stroke="midnightblue" points="96.98,-19.19 86.39,-19.51 94.86,-25.86 96.98,-19.19"/>
</g>
<!-- Node10 -->
<g id="node10" class="node">
<title>Node10</title>
<g id="a_node10"><a xlink:title=" ">
<polygon fill="white" stroke="#bfbfbf" points="137,-0.5 137,-19.5 210,-19.5 210,-0.5 137,-0.5"/>
<text text-anchor="middle" x="173.5" y="-7.5" font-family="Helvetica,sans-Serif" font-size="10.00">G4Types.hh</text>
</a>
</g>
</g>
<!-- Node8&#45;&gt;Node10 -->
<g id="edge9" class="edge">
<title>Node8&#45;&gt;Node10</title>
<path fill="none" stroke="midnightblue" d="M236.9,-61.98C225.25,-52.61 206.31,-37.38 192.17,-26.01"/>
<polygon fill="midnightblue" stroke="midnightblue" points="194.07,-23.05 184.08,-19.51 189.68,-28.5 194.07,-23.05"/>
</g>
<!-- Node11 -->
<g id="node11" class="node">
<title>Node11</title>
<g id="a_node11"><a xlink:title=" ">
<polygon fill="white" stroke="#bfbfbf" points="228.5,-0.5 228.5,-19.5 266.5,-19.5 266.5,-0.5 228.5,-0.5"/>
<text text-anchor="middle" x="247.5" y="-7.5" font-family="Helvetica,sans-Serif" font-size="10.00">map</text>
</a>
</g>
</g>
<!-- Node8&#45;&gt;Node11 -->
<g id="edge10" class="edge">
<title>Node8&#45;&gt;Node11</title>
<path fill="none" stroke="midnightblue" d="M247.5,-61.98C247.5,-53.58 247.5,-40.48 247.5,-29.66"/>
<polygon fill="midnightblue" stroke="midnightblue" points="251,-29.51 247.5,-19.51 244,-29.51 251,-29.51"/>
</g>
<!-- Node12 -->
<g id="node12" class="node">
<title>Node12</title>
<g id="a_node12"><a xlink:title=" ">
<polygon fill="white" stroke="#bfbfbf" points="285,-0.5 285,-19.5 346,-19.5 346,-0.5 285,-0.5"/>
<text text-anchor="middle" x="315.5" y="-7.5" font-family="Helvetica,sans-Serif" font-size="10.00">TGraph.h</text>
</a>
</g>
</g>
<!-- Node8&#45;&gt;Node12 -->
<g id="edge11" class="edge">
<title>Node8&#45;&gt;Node12</title>
<path fill="none" stroke="midnightblue" d="M257.24,-61.98C267.85,-52.7 285.02,-37.67 297.98,-26.33"/>
<polygon fill="midnightblue" stroke="midnightblue" points="300.55,-28.73 305.78,-19.51 295.94,-23.46 300.55,-28.73"/>
</g>
<!-- Node13 -->
<g id="node13" class="node">
<title>Node13</title>
<g id="a_node13"><a xlink:title=" ">
<polygon fill="white" stroke="#bfbfbf" points="364,-0.5 364,-19.5 417,-19.5 417,-0.5 364,-0.5"/>
<text text-anchor="middle" x="390.5" y="-7.5" font-family="Helvetica,sans-Serif" font-size="10.00">TH2D.h</text>
</a>
</g>
</g>
<!-- Node8&#45;&gt;Node13 -->
<g id="edge12" class="edge">
<title>Node8&#45;&gt;Node13</title>
<path fill="none" stroke="midnightblue" d="M267.99,-61.98C292.31,-51.86 333.05,-34.9 360.82,-23.35"/>
<polygon fill="midnightblue" stroke="midnightblue" points="362.16,-26.58 370.05,-19.51 359.47,-20.12 362.16,-26.58"/>
</g>
<!-- Node19 -->
<g id="node19" class="node">
<title>Node19</title>
<g id="a_node19"><a xlink:title=" ">
<polygon fill="white" stroke="#bfbfbf" points="748,-62 748,-81 841,-81 841,-62 748,-62"/>
<text text-anchor="middle" x="794.5" y="-69" font-family="Helvetica,sans-Serif" font-size="10.00">spdlog/spdlog.h</text>
</a>
</g>
</g>
<!-- Node18&#45;&gt;Node19 -->
<g id="edge18" class="edge">
<title>Node18&#45;&gt;Node19</title>
<path fill="none" stroke="midnightblue" d="M794.5,-123.48C794.5,-115.08 794.5,-101.98 794.5,-91.16"/>
<polygon fill="midnightblue" stroke="midnightblue" points="798,-91.01 794.5,-81.01 791,-91.01 798,-91.01"/>
</g>
<!-- Node20 -->
<g id="node20" class="node">
<title>Node20</title>
<g id="a_node20"><a xlink:title=" ">
<polygon fill="white" stroke="#bfbfbf" points="859,-56.5 859,-86.5 970,-86.5 970,-56.5 859,-56.5"/>
<text text-anchor="start" x="867" y="-74.5" font-family="Helvetica,sans-Serif" font-size="10.00">spdlog/sinks/stdout</text>
<text text-anchor="middle" x="914.5" y="-63.5" font-family="Helvetica,sans-Serif" font-size="10.00">_color_sinks.h</text>
</a>
</g>
</g>
<!-- Node18&#45;&gt;Node20 -->
<g id="edge19" class="edge">
<title>Node18&#45;&gt;Node20</title>
<path fill="none" stroke="midnightblue" d="M811.69,-123.48C828.7,-115.04 855.3,-101.86 877.17,-91.01"/>
<polygon fill="midnightblue" stroke="midnightblue" points="878.81,-94.1 886.22,-86.52 875.7,-87.83 878.81,-94.1"/>
</g>
<!-- Node21 -->
<g id="node21" class="node">
<title>Node21</title>
<g id="a_node21"><a xlink:title=" ">
<polygon fill="white" stroke="#bfbfbf" points="988.5,-62 988.5,-81 1046.5,-81 1046.5,-62 988.5,-62"/>
<text text-anchor="middle" x="1017.5" y="-69" font-family="Helvetica,sans-Serif" font-size="10.00">memory</text>
</a>
</g>
</g>
<!-- Node18&#45;&gt;Node21 -->
<g id="edge20" class="edge">
<title>Node18&#45;&gt;Node21</title>
<path fill="none" stroke="midnightblue" d="M835.43,-123.42C872.97,-115.22 929.93,-101.91 978.5,-87 981.07,-86.21 983.71,-85.35 986.35,-84.45"/>
<polygon fill="midnightblue" stroke="midnightblue" points="987.54,-87.74 995.79,-81.08 985.19,-81.14 987.54,-87.74"/>
</g>
<!-- Node22 -->
<g id="node22" class="node">
<title>Node22</title>
<g id="a_node22"><a xlink:title=" ">
<polygon fill="white" stroke="#bfbfbf" points="1064.5,-62 1064.5,-81 1162.5,-81 1162.5,-62 1064.5,-62"/>
<text text-anchor="middle" x="1113.5" y="-69" font-family="Helvetica,sans-Serif" font-size="10.00">spdlog/fmt/fmt.h</text>
</a>
</g>
</g>
<!-- Node18&#45;&gt;Node22 -->
<g id="edge21" class="edge">
<title>Node18&#45;&gt;Node22</title>
<path fill="none" stroke="midnightblue" d="M844.26,-123.87C908.32,-113.33 1016.08,-95.31 1055.5,-87 1060.57,-85.93 1065.88,-84.72 1071.13,-83.48"/>
<polygon fill="midnightblue" stroke="midnightblue" points="1072.19,-86.82 1081.08,-81.06 1070.54,-80.02 1072.19,-86.82"/>
</g>
<!-- Node25 -->
<g id="node25" class="node">
<title>Node25</title>
<g id="a_node25"><a xlink:title=" ">
<polygon fill="white" stroke="#bfbfbf" points="862,-123.5 862,-142.5 1001,-142.5 1001,-123.5 862,-123.5"/>
<text text-anchor="middle" x="931.5" y="-130.5" font-family="Helvetica,sans-Serif" font-size="10.00">G4UserTrackingAction.hh</text>
</a>
</g>
</g>
<!-- Node24&#45;&gt;Node25 -->
<g id="edge24" class="edge">
<title>Node24&#45;&gt;Node25</title>
<path fill="none" stroke="midnightblue" d="M930.67,-179.08C930.8,-172.01 930.98,-161.86 931.15,-152.99"/>
<polygon fill="midnightblue" stroke="midnightblue" points="934.65,-152.81 931.34,-142.75 927.65,-152.68 934.65,-152.81"/>
</g>
<!-- Node27 -->
<g id="node27" class="node">
<title>Node27</title>
<g id="a_node27"><a xlink:title=" ">
<polygon fill="white" stroke="#bfbfbf" points="1019,-123.5 1019,-142.5 1160,-142.5 1160,-123.5 1019,-123.5"/>
<text text-anchor="middle" x="1089.5" y="-130.5" font-family="Helvetica,sans-Serif" font-size="10.00">G4UserSteppingAction.hh</text>
</a>
</g>
</g>
<!-- Node26&#45;&gt;Node27 -->
<g id="edge26" class="edge">
<title>Node26&#45;&gt;Node27</title>
<path fill="none" stroke="midnightblue" d="M1087.83,-179.08C1088.09,-172.01 1088.47,-161.86 1088.8,-152.99"/>
<polygon fill="midnightblue" stroke="midnightblue" points="1092.3,-152.87 1089.18,-142.75 1085.31,-152.61 1092.3,-152.87"/>
</g>
</g>
</svg>
