<?xml version="1.0" encoding="UTF-8" standalone="no"?>
<!DOCTYPE svg PUBLIC "-//W3C//DTD SVG 1.1//EN"
 "http://www.w3.org/Graphics/SVG/1.1/DTD/svg11.dtd">
<!-- Generated by graphviz version 2.43.0 (0)
 -->
<!-- Title: OMSim_radioactive_decays.cc Pages: 1 -->
<svg width="2554pt" height="420pt"
 viewBox="0.00 0.00 2553.50 420.00" xmlns="http://www.w3.org/2000/svg" xmlns:xlink="http://www.w3.org/1999/xlink">
<g id="graph0" class="graph" transform="scale(1 1) rotate(0) translate(4 416)">
<title>OMSim_radioactive_decays.cc</title>
<polygon fill="white" stroke="transparent" points="-4,4 -4,-416 2549.5,-416 2549.5,4 -4,4"/>
<!-- Node1 -->
<g id="node1" class="node">
<title>Node1</title>
<g id="a_node1"><a xlink:title="Main of the radioactive decay study.">
<polygon fill="#bfbfbf" stroke="black" points="818,-392.5 818,-411.5 983,-411.5 983,-392.5 818,-392.5"/>
<text text-anchor="middle" x="900.5" y="-399.5" font-family="Helvetica,sans-Serif" font-size="10.00">OMSim_radioactive_decays.cc</text>
</a>
</g>
</g>
<!-- Node2 -->
<g id="node2" class="node">
<title>Node2</title>
<g id="a_node2"><a xlink:href="_o_m_sim_8hh.html" target="_top" xlink:title="Main simulation class for the Optical Module (OM) simulation. This file defines the OMSim class,...">
<polygon fill="white" stroke="black" points="1585,-336.5 1585,-355.5 1652,-355.5 1652,-336.5 1585,-336.5"/>
<text text-anchor="middle" x="1618.5" y="-343.5" font-family="Helvetica,sans-Serif" font-size="10.00">OMSim.hh</text>
</a>
</g>
</g>
<!-- Node1&#45;&gt;Node2 -->
<g id="edge1" class="edge">
<title>Node1&#45;&gt;Node2</title>
<path fill="none" stroke="midnightblue" d="M983.21,-394.78C1136.06,-383.28 1457.78,-359.09 1574.78,-350.29"/>
<polygon fill="midnightblue" stroke="midnightblue" points="1575.1,-353.77 1584.8,-349.53 1574.57,-346.79 1575.1,-353.77"/>
</g>
<!-- Node19 -->
<g id="node13" class="node">
<title>Node19</title>
<g id="a_node13"><a xlink:href="_o_m_sim_hit_manager_8hh.html" target="_top" xlink:title="Defines structures and classes related to optical module photon hit management.">
<polygon fill="white" stroke="black" points="812,-168.5 812,-187.5 935,-187.5 935,-168.5 812,-168.5"/>
<text text-anchor="middle" x="873.5" y="-175.5" font-family="Helvetica,sans-Serif" font-size="10.00">OMSimHitManager.hh</text>
</a>
</g>
</g>
<!-- Node1&#45;&gt;Node19 -->
<g id="edge55" class="edge">
<title>Node1&#45;&gt;Node19</title>
<path fill="none" stroke="midnightblue" d="M899.8,-392.5C897.64,-366.94 890.69,-288.56 881.5,-224 880.25,-215.25 878.58,-205.6 877.08,-197.48"/>
<polygon fill="midnightblue" stroke="midnightblue" points="880.51,-196.77 875.21,-187.6 873.63,-198.08 880.51,-196.77"/>
</g>
<!-- Node53 -->
<g id="node47" class="node">
<title>Node53</title>
<g id="a_node47"><a xlink:href="_o_m_sim_decays_g_p_s_8hh.html" target="_top" xlink:title="Defines the OMSimDecaysGPS class for the radioactive decays simulation.">
<polygon fill="white" stroke="black" points="331.5,-336.5 331.5,-355.5 453.5,-355.5 453.5,-336.5 331.5,-336.5"/>
<text text-anchor="middle" x="392.5" y="-343.5" font-family="Helvetica,sans-Serif" font-size="10.00">OMSimDecaysGPS.hh</text>
</a>
</g>
</g>
<!-- Node1&#45;&gt;Node53 -->
<g id="edge52" class="edge">
<title>Node1&#45;&gt;Node53</title>
<path fill="none" stroke="midnightblue" d="M820.29,-392.47C722.09,-382.04 557.33,-364.52 463.52,-354.55"/>
<polygon fill="midnightblue" stroke="midnightblue" points="463.87,-351.07 453.56,-353.49 463.13,-358.03 463.87,-351.07"/>
</g>
<!-- Node55 -->
<g id="node49" class="node">
<title>Node55</title>
<g id="a_node49"><a xlink:href="_o_m_sim_decays_analysis_8hh.html" target="_top" xlink:title="Defines the OMSimDecaysAnalysis class and DecayStats struct for the radioactive decays simulation.">
<polygon fill="white" stroke="black" points="953.5,-168.5 953.5,-187.5 1097.5,-187.5 1097.5,-168.5 953.5,-168.5"/>
<text text-anchor="middle" x="1025.5" y="-175.5" font-family="Helvetica,sans-Serif" font-size="10.00">OMSimDecaysAnalysis.hh</text>
</a>
</g>
</g>
<!-- Node1&#45;&gt;Node55 -->
<g id="edge56" class="edge">
<title>Node1&#45;&gt;Node55</title>
<path fill="none" stroke="midnightblue" d="M905.4,-392.3C923.95,-359.36 990.08,-241.9 1015.47,-196.81"/>
<polygon fill="midnightblue" stroke="midnightblue" points="1018.64,-198.31 1020.5,-187.88 1012.54,-194.88 1018.64,-198.31"/>
</g>
<!-- Node56 -->
<g id="node50" class="node">
<title>Node56</title>
<g id="a_node50"><a xlink:href="_o_m_sim_rad_decays_detector_8hh.html" target="_top" xlink:title="Defines the OMSimRadDecaysDetector class for the radioactive decays simulation.">
<polygon fill="white" stroke="black" points="544,-336.5 544,-355.5 707,-355.5 707,-336.5 544,-336.5"/>
<text text-anchor="middle" x="625.5" y="-343.5" font-family="Helvetica,sans-Serif" font-size="10.00">OMSimRadDecaysDetector.hh</text>
</a>
</g>
</g>
<!-- Node1&#45;&gt;Node56 -->
<g id="edge59" class="edge">
<title>Node1&#45;&gt;Node56</title>
<path fill="none" stroke="midnightblue" d="M856.93,-392.44C808.65,-382.96 730.79,-367.67 678.89,-357.48"/>
<polygon fill="midnightblue" stroke="midnightblue" points="679.36,-354.01 668.87,-355.52 678.01,-360.88 679.36,-354.01"/>
</g>
<!-- Node3 -->
<g id="node3" class="node">
<title>Node3</title>
<g id="a_node3"><a xlink:href="_o_m_sim_detector_construction_8hh.html" target="_top" xlink:title=" ">
<polygon fill="white" stroke="black" points="653.5,-280.5 653.5,-299.5 823.5,-299.5 823.5,-280.5 653.5,-280.5"/>
<text text-anchor="middle" x="738.5" y="-287.5" font-family="Helvetica,sans-Serif" font-size="10.00">OMSimDetectorConstruction.hh</text>
</a>
</g>
</g>
<!-- Node2&#45;&gt;Node3 -->
<g id="edge2" class="edge">
<title>Node2&#45;&gt;Node3</title>
<path fill="none" stroke="midnightblue" d="M1584.81,-342.93C1460.98,-335.33 1028.18,-308.78 834.03,-296.86"/>
<polygon fill="midnightblue" stroke="midnightblue" points="834.03,-293.36 823.84,-296.24 833.6,-300.34 834.03,-293.36"/>
</g>
<!-- Node34 -->
<g id="node28" class="node">
<title>Node34</title>
<g id="a_node28"><a xlink:title=" ">
<polygon fill="white" stroke="#bfbfbf" points="1005,-280.5 1005,-299.5 1126,-299.5 1126,-280.5 1005,-280.5"/>
<text text-anchor="middle" x="1065.5" y="-287.5" font-family="Helvetica,sans-Serif" font-size="10.00">OMSimPhysicsList.hh</text>
</a>
</g>
</g>
<!-- Node2&#45;&gt;Node34 -->
<g id="edge31" class="edge">
<title>Node2&#45;&gt;Node34</title>
<path fill="none" stroke="midnightblue" d="M1584.72,-342.29C1507.31,-335.99 1310.95,-319.49 1136.22,-300.16"/>
<polygon fill="midnightblue" stroke="midnightblue" points="1136.39,-296.66 1126.07,-299.03 1135.62,-303.61 1136.39,-296.66"/>
</g>
<!-- Node35 -->
<g id="node29" class="node">
<title>Node35</title>
<g id="a_node29"><a xlink:title=" ">
<polygon fill="white" stroke="#bfbfbf" points="1144,-280.5 1144,-299.5 1329,-299.5 1329,-280.5 1144,-280.5"/>
<text text-anchor="middle" x="1236.5" y="-287.5" font-family="Helvetica,sans-Serif" font-size="10.00">OMSimPrimaryGeneratorAction.hh</text>
</a>
</g>
</g>
<!-- Node2&#45;&gt;Node35 -->
<g id="edge32" class="edge">
<title>Node2&#45;&gt;Node35</title>
<path fill="none" stroke="midnightblue" d="M1584.93,-340.26C1522.98,-331.5 1389.45,-312.62 1306.87,-300.95"/>
<polygon fill="midnightblue" stroke="midnightblue" points="1307.2,-297.46 1296.81,-299.53 1306.22,-304.39 1307.2,-297.46"/>
</g>
<!-- Node36 -->
<g id="node30" class="node">
<title>Node36</title>
<g id="a_node30"><a xlink:href="_o_m_sim_run_action_8hh.html" target="_top" xlink:title=" ">
<polygon fill="white" stroke="black" points="1346.5,-280.5 1346.5,-299.5 1462.5,-299.5 1462.5,-280.5 1346.5,-280.5"/>
<text text-anchor="middle" x="1404.5" y="-287.5" font-family="Helvetica,sans-Serif" font-size="10.00">OMSimRunAction.hh</text>
</a>
</g>
</g>
<!-- Node2&#45;&gt;Node36 -->
<g id="edge33" class="edge">
<title>Node2&#45;&gt;Node36</title>
<path fill="none" stroke="midnightblue" d="M1584.59,-336.44C1547.65,-327.12 1488.45,-312.18 1448.08,-302"/>
<polygon fill="midnightblue" stroke="midnightblue" points="1448.8,-298.57 1438.25,-299.52 1447.09,-305.36 1448.8,-298.57"/>
</g>
<!-- Node38 -->
<g id="node32" class="node">
<title>Node38</title>
<g id="a_node32"><a xlink:title=" ">
<polygon fill="white" stroke="#bfbfbf" points="1481,-280.5 1481,-299.5 1606,-299.5 1606,-280.5 1481,-280.5"/>
<text text-anchor="middle" x="1543.5" y="-287.5" font-family="Helvetica,sans-Serif" font-size="10.00">OMSimEventAction.hh</text>
</a>
</g>
</g>
<!-- Node2&#45;&gt;Node38 -->
<g id="edge35" class="edge">
<title>Node2&#45;&gt;Node38</title>
<path fill="none" stroke="midnightblue" d="M1606.45,-336.32C1595.04,-328.11 1577.67,-315.6 1564.07,-305.81"/>
<polygon fill="midnightblue" stroke="midnightblue" points="1565.93,-302.84 1555.77,-299.83 1561.84,-308.52 1565.93,-302.84"/>
</g>
<!-- Node39 -->
<g id="node33" class="node">
<title>Node39</title>
<g id="a_node33"><a xlink:href="_o_m_sim_tracking_action_8hh.html" target="_top" xlink:title=" ">
<polygon fill="white" stroke="black" points="1624.5,-280.5 1624.5,-299.5 1762.5,-299.5 1762.5,-280.5 1624.5,-280.5"/>
<text text-anchor="middle" x="1693.5" y="-287.5" font-family="Helvetica,sans-Serif" font-size="10.00">OMSimTrackingAction.hh</text>
</a>
</g>
</g>
<!-- Node2&#45;&gt;Node39 -->
<g id="edge36" class="edge">
<title>Node2&#45;&gt;Node39</title>
<path fill="none" stroke="midnightblue" d="M1630.55,-336.32C1641.96,-328.11 1659.33,-315.6 1672.93,-305.81"/>
<polygon fill="midnightblue" stroke="midnightblue" points="1675.16,-308.52 1681.23,-299.83 1671.07,-302.84 1675.16,-308.52"/>
</g>
<!-- Node41 -->
<g id="node35" class="node">
<title>Node41</title>
<g id="a_node35"><a xlink:href="_o_m_sim_stepping_action_8hh.html" target="_top" xlink:title="Defines OMSimSteppingAction.Currently it only checks for trapped photons.">
<polygon fill="white" stroke="black" points="1780.5,-280.5 1780.5,-299.5 1920.5,-299.5 1920.5,-280.5 1780.5,-280.5"/>
<text text-anchor="middle" x="1850.5" y="-287.5" font-family="Helvetica,sans-Serif" font-size="10.00">OMSimSteppingAction.hh</text>
</a>
</g>
</g>
<!-- Node2&#45;&gt;Node41 -->
<g id="edge38" class="edge">
<title>Node2&#45;&gt;Node41</title>
<path fill="none" stroke="midnightblue" d="M1652.23,-337.15C1692.19,-327.85 1758.98,-312.3 1803.87,-301.85"/>
<polygon fill="midnightblue" stroke="midnightblue" points="1804.71,-305.25 1813.66,-299.58 1803.12,-298.43 1804.71,-305.25"/>
</g>
<!-- Node43 -->
<g id="node37" class="node">
<title>Node43</title>
<g id="a_node37"><a xlink:href="_o_m_sim_u_iinterface_8hh.html" target="_top" xlink:title=" ">
<polygon fill="white" stroke="black" points="1104,-224.5 1104,-243.5 1225,-243.5 1225,-224.5 1104,-224.5"/>
<text text-anchor="middle" x="1164.5" y="-231.5" font-family="Helvetica,sans-Serif" font-size="10.00">OMSimUIinterface.hh</text>
</a>
</g>
</g>
<!-- Node2&#45;&gt;Node43 -->
<g id="edge40" class="edge">
<title>Node2&#45;&gt;Node43</title>
<path fill="none" stroke="midnightblue" d="M1584.91,-345.18C1461.17,-345.49 1035.85,-343.37 995.5,-300 961.8,-263.78 1033.42,-247.52 1093.6,-240.38"/>
<polygon fill="midnightblue" stroke="midnightblue" points="1094.35,-243.82 1103.9,-239.23 1093.57,-236.86 1094.35,-243.82"/>
</g>
<!-- Node48 -->
<g id="node42" class="node">
<title>Node48</title>
<g id="a_node42"><a xlink:title=" ">
<polygon fill="white" stroke="#bfbfbf" points="1938.5,-280.5 1938.5,-299.5 2044.5,-299.5 2044.5,-280.5 1938.5,-280.5"/>
<text text-anchor="middle" x="1991.5" y="-287.5" font-family="Helvetica,sans-Serif" font-size="10.00">G4RunManager.hh</text>
</a>
</g>
</g>
<!-- Node2&#45;&gt;Node48 -->
<g id="edge47" class="edge">
<title>Node2&#45;&gt;Node48</title>
<path fill="none" stroke="midnightblue" d="M1652.1,-340.14C1707.4,-332.15 1821.36,-315.67 1928.4,-300.16"/>
<polygon fill="midnightblue" stroke="midnightblue" points="1929.01,-303.61 1938.4,-298.71 1928,-296.68 1929.01,-303.61"/>
</g>
<!-- Node49 -->
<g id="node43" class="node">
<title>Node49</title>
<g id="a_node43"><a xlink:title=" ">
<polygon fill="white" stroke="#bfbfbf" points="2063,-280.5 2063,-299.5 2170,-299.5 2170,-280.5 2063,-280.5"/>
<text text-anchor="middle" x="2116.5" y="-287.5" font-family="Helvetica,sans-Serif" font-size="10.00">G4VisExecutive.hh</text>
</a>
</g>
</g>
<!-- Node2&#45;&gt;Node49 -->
<g id="edge48" class="edge">
<title>Node2&#45;&gt;Node49</title>
<path fill="none" stroke="midnightblue" d="M1652.12,-341.97C1723.65,-335.43 1896.47,-319.11 2052.64,-300.06"/>
<polygon fill="midnightblue" stroke="midnightblue" points="2053.4,-303.49 2062.9,-298.8 2052.55,-296.54 2053.4,-303.49"/>
</g>
<!-- Node50 -->
<g id="node44" class="node">
<title>Node50</title>
<g id="a_node44"><a xlink:title=" ">
<polygon fill="white" stroke="#bfbfbf" points="2188,-280.5 2188,-299.5 2291,-299.5 2291,-280.5 2188,-280.5"/>
<text text-anchor="middle" x="2239.5" y="-287.5" font-family="Helvetica,sans-Serif" font-size="10.00">G4UIExecutive.hh</text>
</a>
</g>
</g>
<!-- Node2&#45;&gt;Node50 -->
<g id="edge49" class="edge">
<title>Node2&#45;&gt;Node50</title>
<path fill="none" stroke="midnightblue" d="M1652.09,-343.11C1737.9,-338.13 1972.3,-323.42 2177.75,-300.13"/>
<polygon fill="midnightblue" stroke="midnightblue" points="2178.28,-303.6 2187.82,-298.98 2177.49,-296.64 2178.28,-303.6"/>
</g>
<!-- Node51 -->
<g id="node45" class="node">
<title>Node51</title>
<g id="a_node45"><a xlink:title=" ">
<polygon fill="white" stroke="#bfbfbf" points="2309.5,-280.5 2309.5,-299.5 2377.5,-299.5 2377.5,-280.5 2309.5,-280.5"/>
<text text-anchor="middle" x="2343.5" y="-287.5" font-family="Helvetica,sans-Serif" font-size="10.00">filesystem</text>
</a>
</g>
</g>
<!-- Node2&#45;&gt;Node51 -->
<g id="edge50" class="edge">
<title>Node2&#45;&gt;Node51</title>
<path fill="none" stroke="midnightblue" d="M1652.02,-344.45C1750.11,-342.5 2045.11,-334.12 2299.15,-299.99"/>
<polygon fill="midnightblue" stroke="midnightblue" points="2299.87,-303.42 2309.31,-298.61 2298.93,-296.49 2299.87,-303.42"/>
</g>
<!-- Node52 -->
<g id="node46" class="node">
<title>Node52</title>
<g id="a_node46"><a xlink:title=" ">
<polygon fill="white" stroke="#bfbfbf" points="2395.5,-280.5 2395.5,-299.5 2545.5,-299.5 2545.5,-280.5 2395.5,-280.5"/>
<text text-anchor="middle" x="2470.5" y="-287.5" font-family="Helvetica,sans-Serif" font-size="10.00">boost/program_options.hpp</text>
</a>
</g>
</g>
<!-- Node2&#45;&gt;Node52 -->
<g id="edge51" class="edge">
<title>Node2&#45;&gt;Node52</title>
<path fill="none" stroke="midnightblue" d="M1652.23,-343.61C1758.33,-339.09 2094.97,-323.84 2385.11,-300.08"/>
<polygon fill="midnightblue" stroke="midnightblue" points="2385.73,-303.54 2395.41,-299.23 2385.16,-296.56 2385.73,-303.54"/>
</g>
<!-- Node4 -->
<g id="node4" class="node">
<title>Node4</title>
<g id="a_node4"><a xlink:href="_o_m_sim_optical_module_8hh.html" target="_top" xlink:title=" ">
<polygon fill="white" stroke="black" points="459,-224.5 459,-243.5 596,-243.5 596,-224.5 459,-224.5"/>
<text text-anchor="middle" x="527.5" y="-231.5" font-family="Helvetica,sans-Serif" font-size="10.00">OMSimOpticalModule.hh</text>
</a>
</g>
</g>
<!-- Node3&#45;&gt;Node4 -->
<g id="edge3" class="edge">
<title>Node3&#45;&gt;Node4</title>
<path fill="none" stroke="midnightblue" d="M705.07,-280.44C668.64,-271.12 610.27,-256.18 570.47,-246"/>
<polygon fill="midnightblue" stroke="midnightblue" points="571.33,-242.61 560.78,-243.52 569.6,-249.39 571.33,-242.61"/>
</g>
<!-- Node32 -->
<g id="node26" class="node">
<title>Node32</title>
<g id="a_node26"><a xlink:title=" ">
<polygon fill="white" stroke="#bfbfbf" points="614.5,-224.5 614.5,-243.5 676.5,-243.5 676.5,-224.5 614.5,-224.5"/>
<text text-anchor="middle" x="645.5" y="-231.5" font-family="Helvetica,sans-Serif" font-size="10.00">G4Orb.hh</text>
</a>
</g>
</g>
<!-- Node3&#45;&gt;Node32 -->
<g id="edge29" class="edge">
<title>Node3&#45;&gt;Node32</title>
<path fill="none" stroke="midnightblue" d="M723.56,-280.32C708.91,-271.82 686.37,-258.73 669.26,-248.8"/>
<polygon fill="midnightblue" stroke="midnightblue" points="670.81,-245.65 660.4,-243.65 667.3,-251.7 670.81,-245.65"/>
</g>
<!-- Node33 -->
<g id="node27" class="node">
<title>Node33</title>
<g id="a_node27"><a xlink:title=" ">
<polygon fill="white" stroke="#bfbfbf" points="694.5,-224.5 694.5,-243.5 872.5,-243.5 872.5,-224.5 694.5,-224.5"/>
<text text-anchor="middle" x="783.5" y="-231.5" font-family="Helvetica,sans-Serif" font-size="10.00">G4VUserDetectorConstruction.hh</text>
</a>
</g>
</g>
<!-- Node3&#45;&gt;Node33 -->
<g id="edge30" class="edge">
<title>Node3&#45;&gt;Node33</title>
<path fill="none" stroke="midnightblue" d="M745.93,-280.08C752.35,-272.38 761.81,-261.03 769.62,-251.65"/>
<polygon fill="midnightblue" stroke="midnightblue" points="772.49,-253.67 776.21,-243.75 767.12,-249.19 772.49,-253.67"/>
</g>
<!-- Node5 -->
<g id="node5" class="node">
<title>Node5</title>
<g id="a_node5"><a xlink:href="abc_detector_component_8hh.html" target="_top" xlink:title="Provides helper base class abcDetectorComponent for constructing and managing detector components in ...">
<polygon fill="white" stroke="black" points="298,-112.5 298,-131.5 445,-131.5 445,-112.5 298,-112.5"/>
<text text-anchor="middle" x="371.5" y="-119.5" font-family="Helvetica,sans-Serif" font-size="10.00">abcDetectorComponent.hh</text>
</a>
</g>
</g>
<!-- Node4&#45;&gt;Node5 -->
<g id="edge4" class="edge">
<title>Node4&#45;&gt;Node5</title>
<path fill="none" stroke="midnightblue" d="M517.3,-224.41C501.92,-211.59 471.68,-186.93 444.5,-168 428.57,-156.9 409.92,-145.43 395.46,-136.85"/>
<polygon fill="midnightblue" stroke="midnightblue" points="397.03,-133.71 386.63,-131.66 393.48,-139.74 397.03,-133.71"/>
</g>
<!-- Node4&#45;&gt;Node19 -->
<g id="edge12" class="edge">
<title>Node4&#45;&gt;Node19</title>
<path fill="none" stroke="midnightblue" d="M582.32,-224.44C643.82,-214.85 743.48,-199.29 808.76,-189.1"/>
<polygon fill="midnightblue" stroke="midnightblue" points="809.59,-192.52 818.93,-187.52 808.51,-185.6 809.59,-192.52"/>
</g>
<!-- Node29 -->
<g id="node23" class="node">
<title>Node29</title>
<g id="a_node23"><a xlink:href="_o_m_sim_p_m_t_construction_8hh.html" target="_top" xlink:title="Construction of the PMTs.">
<polygon fill="white" stroke="black" points="496,-168.5 496,-187.5 645,-187.5 645,-168.5 496,-168.5"/>
<text text-anchor="middle" x="570.5" y="-175.5" font-family="Helvetica,sans-Serif" font-size="10.00">OMSimPMTConstruction.hh</text>
</a>
</g>
</g>
<!-- Node4&#45;&gt;Node29 -->
<g id="edge23" class="edge">
<title>Node4&#45;&gt;Node29</title>
<path fill="none" stroke="midnightblue" d="M534.6,-224.08C540.74,-216.38 549.77,-205.03 557.24,-195.65"/>
<polygon fill="midnightblue" stroke="midnightblue" points="560.04,-197.75 563.53,-187.75 554.56,-193.39 560.04,-197.75"/>
</g>
<!-- Node6 -->
<g id="node6" class="node">
<title>Node6</title>
<g id="a_node6"><a xlink:href="_o_m_sim_input_data_8hh.html" target="_top" xlink:title="Definition of ParameterTable and InputDataManager.">
<polygon fill="white" stroke="red" points="524,-56.5 524,-75.5 639,-75.5 639,-56.5 524,-56.5"/>
<text text-anchor="middle" x="581.5" y="-63.5" font-family="Helvetica,sans-Serif" font-size="10.00">OMSimInputData.hh</text>
</a>
</g>
</g>
<!-- Node5&#45;&gt;Node6 -->
<g id="edge5" class="edge">
<title>Node5&#45;&gt;Node6</title>
<path fill="none" stroke="midnightblue" d="M404.78,-112.44C440.95,-103.14 498.88,-88.25 538.48,-78.06"/>
<polygon fill="midnightblue" stroke="midnightblue" points="539.57,-81.4 548.38,-75.52 537.82,-74.62 539.57,-81.4"/>
</g>
<!-- Node15 -->
<g id="node9" class="node">
<title>Node15</title>
<g id="a_node9"><a xlink:title=" ">
<polygon fill="white" stroke="#bfbfbf" points="272,-56.5 272,-75.5 379,-75.5 379,-56.5 272,-56.5"/>
<text text-anchor="middle" x="325.5" y="-63.5" font-family="Helvetica,sans-Serif" font-size="10.00">G4Transform3D.hh</text>
</a>
</g>
</g>
<!-- Node5&#45;&gt;Node15 -->
<g id="edge8" class="edge">
<title>Node5&#45;&gt;Node15</title>
<path fill="none" stroke="midnightblue" d="M363.9,-112.08C357.27,-104.3 347.48,-92.8 339.44,-83.37"/>
<polygon fill="midnightblue" stroke="midnightblue" points="342.1,-81.09 332.95,-75.75 336.77,-85.63 342.1,-81.09"/>
</g>
<!-- Node16 -->
<g id="node10" class="node">
<title>Node16</title>
<g id="a_node10"><a xlink:title=" ">
<polygon fill="white" stroke="#bfbfbf" points="397.5,-56.5 397.5,-75.5 505.5,-75.5 505.5,-56.5 397.5,-56.5"/>
<text text-anchor="middle" x="451.5" y="-63.5" font-family="Helvetica,sans-Serif" font-size="10.00">G4VisAttributes.hh</text>
</a>
</g>
</g>
<!-- Node5&#45;&gt;Node16 -->
<g id="edge9" class="edge">
<title>Node5&#45;&gt;Node16</title>
<path fill="none" stroke="midnightblue" d="M384.35,-112.32C396.72,-103.98 415.63,-91.21 430.24,-81.35"/>
<polygon fill="midnightblue" stroke="midnightblue" points="432.35,-84.15 438.68,-75.65 428.43,-78.35 432.35,-84.15"/>
</g>
<!-- Node17 -->
<g id="node11" class="node">
<title>Node17</title>
<g id="a_node11"><a xlink:title=" ">
<polygon fill="white" stroke="#bfbfbf" points="0,-56.5 0,-75.5 125,-75.5 125,-56.5 0,-56.5"/>
<text text-anchor="middle" x="62.5" y="-63.5" font-family="Helvetica,sans-Serif" font-size="10.00">G4SubtractionSolid.hh</text>
</a>
</g>
</g>
<!-- Node5&#45;&gt;Node17 -->
<g id="edge10" class="edge">
<title>Node5&#45;&gt;Node17</title>
<path fill="none" stroke="midnightblue" d="M322.54,-112.44C267.96,-102.9 179.71,-87.48 121.4,-77.29"/>
<polygon fill="midnightblue" stroke="midnightblue" points="121.69,-73.79 111.23,-75.52 120.48,-80.69 121.69,-73.79"/>
</g>
<!-- Node18 -->
<g id="node12" class="node">
<title>Node18</title>
<g id="a_node12"><a xlink:title=" ">
<polygon fill="white" stroke="#bfbfbf" points="143.5,-56.5 143.5,-75.5 253.5,-75.5 253.5,-56.5 143.5,-56.5"/>
<text text-anchor="middle" x="198.5" y="-63.5" font-family="Helvetica,sans-Serif" font-size="10.00">G4PVPlacement.hh</text>
</a>
</g>
</g>
<!-- Node5&#45;&gt;Node18 -->
<g id="edge11" class="edge">
<title>Node5&#45;&gt;Node18</title>
<path fill="none" stroke="midnightblue" d="M344.09,-112.44C314.73,-103.28 267.98,-88.69 235.4,-78.52"/>
<polygon fill="midnightblue" stroke="midnightblue" points="236.37,-75.16 225.78,-75.52 234.29,-81.84 236.37,-75.16"/>
</g>
<!-- Node7 -->
<g id="node7" class="node">
<title>Node7</title>
<g id="a_node7"><a xlink:href="_o_m_sim_logger_8hh.html" target="_top" xlink:title=" ">
<polygon fill="white" stroke="red" points="948,-0.5 948,-19.5 1047,-19.5 1047,-0.5 948,-0.5"/>
<text text-anchor="middle" x="997.5" y="-7.5" font-family="Helvetica,sans-Serif" font-size="10.00">OMSimLogger.hh</text>
</a>
</g>
</g>
<!-- Node6&#45;&gt;Node7 -->
<g id="edge6" class="edge">
<title>Node6&#45;&gt;Node7</title>
<path fill="none" stroke="midnightblue" d="M639.34,-57.49C717.97,-47.29 857.89,-29.12 937.58,-18.78"/>
<polygon fill="midnightblue" stroke="midnightblue" points="938.47,-22.19 947.94,-17.43 937.57,-15.25 938.47,-22.19"/>
</g>
<!-- Node13 -->
<g id="node8" class="node">
<title>Node13</title>
<g id="a_node8"><a xlink:title=" ">
<polygon fill="white" stroke="#bfbfbf" points="565,-0.5 565,-19.5 684,-19.5 684,-0.5 565,-0.5"/>
<text text-anchor="middle" x="624.5" y="-7.5" font-family="Helvetica,sans-Serif" font-size="10.00">G4SystemOfUnits.hh</text>
</a>
</g>
</g>
<!-- Node6&#45;&gt;Node13 -->
<g id="edge7" class="edge">
<title>Node6&#45;&gt;Node13</title>
<path fill="none" stroke="midnightblue" d="M588.6,-56.08C594.74,-48.38 603.77,-37.03 611.24,-27.65"/>
<polygon fill="midnightblue" stroke="midnightblue" points="614.04,-29.75 617.53,-19.75 608.56,-25.39 614.04,-29.75"/>
</g>
<!-- Node20 -->
<g id="node14" class="node">
<title>Node20</title>
<g id="a_node14"><a xlink:href="_o_m_sim_p_m_t_response_8hh.html" target="_top" xlink:title="Simulation of PMT response.">
<polygon fill="white" stroke="black" points="665,-112.5 665,-131.5 800,-131.5 800,-112.5 665,-112.5"/>
<text text-anchor="middle" x="732.5" y="-119.5" font-family="Helvetica,sans-Serif" font-size="10.00">OMSimPMTResponse.hh</text>
</a>
</g>
</g>
<!-- Node19&#45;&gt;Node20 -->
<g id="edge13" class="edge">
<title>Node19&#45;&gt;Node20</title>
<path fill="none" stroke="midnightblue" d="M851.16,-168.44C827.75,-159.48 790.76,-145.31 764.31,-135.18"/>
<polygon fill="midnightblue" stroke="midnightblue" points="765.33,-131.82 754.74,-131.52 762.82,-138.36 765.33,-131.82"/>
</g>
<!-- Node25 -->
<g id="node19" class="node">
<title>Node25</title>
<g id="a_node19"><a xlink:title=" ">
<polygon fill="white" stroke="#bfbfbf" points="1039,-112.5 1039,-131.5 1142,-131.5 1142,-112.5 1039,-112.5"/>
<text text-anchor="middle" x="1090.5" y="-119.5" font-family="Helvetica,sans-Serif" font-size="10.00">G4ThreeVector.hh</text>
</a>
</g>
</g>
<!-- Node19&#45;&gt;Node25 -->
<g id="edge19" class="edge">
<title>Node19&#45;&gt;Node25</title>
<path fill="none" stroke="midnightblue" d="M907.88,-168.44C945.42,-159.1 1005.63,-144.12 1046.57,-133.93"/>
<polygon fill="midnightblue" stroke="midnightblue" points="1047.42,-137.33 1056.28,-131.52 1045.73,-130.53 1047.42,-137.33"/>
</g>
<!-- Node26 -->
<g id="node20" class="node">
<title>Node26</title>
<g id="a_node20"><a xlink:title=" ">
<polygon fill="white" stroke="#bfbfbf" points="1160,-112.5 1160,-131.5 1215,-131.5 1215,-112.5 1160,-112.5"/>
<text text-anchor="middle" x="1187.5" y="-119.5" font-family="Helvetica,sans-Serif" font-size="10.00">fstream</text>
</a>
</g>
</g>
<!-- Node19&#45;&gt;Node26 -->
<g id="edge20" class="edge">
<title>Node19&#45;&gt;Node26</title>
<path fill="none" stroke="midnightblue" d="M934.54,-168.47C988.52,-160.62 1069.62,-148.05 1149.44,-132.08"/>
<polygon fill="midnightblue" stroke="midnightblue" points="1150.56,-135.43 1159.67,-130.01 1149.18,-128.56 1150.56,-135.43"/>
</g>
<!-- Node27 -->
<g id="node21" class="node">
<title>Node27</title>
<g id="a_node21"><a xlink:title=" ">
<polygon fill="white" stroke="#bfbfbf" points="818.5,-112.5 818.5,-131.5 908.5,-131.5 908.5,-112.5 818.5,-112.5"/>
<text text-anchor="middle" x="863.5" y="-119.5" font-family="Helvetica,sans-Serif" font-size="10.00">G4AutoLock.hh</text>
</a>
</g>
</g>
<!-- Node19&#45;&gt;Node27 -->
<g id="edge21" class="edge">
<title>Node19&#45;&gt;Node27</title>
<path fill="none" stroke="midnightblue" d="M871.85,-168.08C870.52,-160.93 868.62,-150.64 866.96,-141.69"/>
<polygon fill="midnightblue" stroke="midnightblue" points="870.38,-140.95 865.12,-131.75 863.5,-142.22 870.38,-140.95"/>
</g>
<!-- Node28 -->
<g id="node22" class="node">
<title>Node28</title>
<g id="a_node22"><a xlink:title=" ">
<polygon fill="white" stroke="#bfbfbf" points="926.5,-112.5 926.5,-131.5 1020.5,-131.5 1020.5,-112.5 926.5,-112.5"/>
<text text-anchor="middle" x="973.5" y="-119.5" font-family="Helvetica,sans-Serif" font-size="10.00">G4Threading.hh</text>
</a>
</g>
</g>
<!-- Node19&#45;&gt;Node28 -->
<g id="edge22" class="edge">
<title>Node19&#45;&gt;Node28</title>
<path fill="none" stroke="midnightblue" d="M889.57,-168.32C905.46,-159.74 930.01,-146.49 948.46,-136.52"/>
<polygon fill="midnightblue" stroke="midnightblue" points="950.34,-139.49 957.47,-131.65 947.01,-133.33 950.34,-139.49"/>
</g>
<!-- Node20&#45;&gt;Node13 -->
<g id="edge14" class="edge">
<title>Node20&#45;&gt;Node13</title>
<path fill="none" stroke="midnightblue" d="M723.59,-112.46C714.26,-103.48 699.22,-88.88 686.5,-76 670.17,-59.46 651.83,-40.14 639.37,-26.89"/>
<polygon fill="midnightblue" stroke="midnightblue" points="641.83,-24.4 632.43,-19.5 636.72,-29.19 641.83,-24.4"/>
</g>
<!-- Node21 -->
<g id="node15" class="node">
<title>Node21</title>
<g id="a_node15"><a xlink:title=" ">
<polygon fill="white" stroke="#bfbfbf" points="696,-56.5 696,-75.5 769,-75.5 769,-56.5 696,-56.5"/>
<text text-anchor="middle" x="732.5" y="-63.5" font-family="Helvetica,sans-Serif" font-size="10.00">G4Types.hh</text>
</a>
</g>
</g>
<!-- Node20&#45;&gt;Node21 -->
<g id="edge15" class="edge">
<title>Node20&#45;&gt;Node21</title>
<path fill="none" stroke="midnightblue" d="M732.5,-112.08C732.5,-105.01 732.5,-94.86 732.5,-85.99"/>
<polygon fill="midnightblue" stroke="midnightblue" points="736,-85.75 732.5,-75.75 729,-85.75 736,-85.75"/>
</g>
<!-- Node22 -->
<g id="node16" class="node">
<title>Node22</title>
<g id="a_node16"><a xlink:title=" ">
<polygon fill="white" stroke="#bfbfbf" points="787.5,-56.5 787.5,-75.5 825.5,-75.5 825.5,-56.5 787.5,-56.5"/>
<text text-anchor="middle" x="806.5" y="-63.5" font-family="Helvetica,sans-Serif" font-size="10.00">map</text>
</a>
</g>
</g>
<!-- Node20&#45;&gt;Node22 -->
<g id="edge16" class="edge">
<title>Node20&#45;&gt;Node22</title>
<path fill="none" stroke="midnightblue" d="M744.39,-112.32C755.65,-104.11 772.79,-91.6 786.21,-81.81"/>
<polygon fill="midnightblue" stroke="midnightblue" points="788.38,-84.56 794.39,-75.83 784.25,-78.9 788.38,-84.56"/>
</g>
<!-- Node23 -->
<g id="node17" class="node">
<title>Node23</title>
<g id="a_node17"><a xlink:title=" ">
<polygon fill="white" stroke="#bfbfbf" points="844,-56.5 844,-75.5 905,-75.5 905,-56.5 844,-56.5"/>
<text text-anchor="middle" x="874.5" y="-63.5" font-family="Helvetica,sans-Serif" font-size="10.00">TGraph.h</text>
</a>
</g>
</g>
<!-- Node20&#45;&gt;Node23 -->
<g id="edge17" class="edge">
<title>Node20&#45;&gt;Node23</title>
<path fill="none" stroke="midnightblue" d="M755,-112.44C778.58,-103.48 815.82,-89.31 842.46,-79.18"/>
<polygon fill="midnightblue" stroke="midnightblue" points="844,-82.34 852.1,-75.52 841.51,-75.8 844,-82.34"/>
</g>
<!-- Node24 -->
<g id="node18" class="node">
<title>Node24</title>
<g id="a_node18"><a xlink:title=" ">
<polygon fill="white" stroke="#bfbfbf" points="923,-56.5 923,-75.5 976,-75.5 976,-56.5 923,-56.5"/>
<text text-anchor="middle" x="949.5" y="-63.5" font-family="Helvetica,sans-Serif" font-size="10.00">TH2D.h</text>
</a>
</g>
</g>
<!-- Node20&#45;&gt;Node24 -->
<g id="edge18" class="edge">
<title>Node20&#45;&gt;Node24</title>
<path fill="none" stroke="midnightblue" d="M766.87,-112.47C801.28,-103.92 856.04,-90.32 912.88,-76.15"/>
<polygon fill="midnightblue" stroke="midnightblue" points="913.91,-79.5 922.76,-73.69 912.21,-72.71 913.91,-79.5"/>
</g>
<!-- Node29&#45;&gt;Node5 -->
<g id="edge24" class="edge">
<title>Node29&#45;&gt;Node5</title>
<path fill="none" stroke="midnightblue" d="M538.97,-168.44C504.91,-159.2 450.49,-144.44 412.98,-134.26"/>
<polygon fill="midnightblue" stroke="midnightblue" points="413.45,-130.76 402.88,-131.52 411.62,-137.51 413.45,-130.76"/>
</g>
<!-- Node29&#45;&gt;Node20 -->
<g id="edge26" class="edge">
<title>Node29&#45;&gt;Node20</title>
<path fill="none" stroke="midnightblue" d="M596.17,-168.44C623.42,-159.36 666.68,-144.94 697.15,-134.78"/>
<polygon fill="midnightblue" stroke="midnightblue" points="698.57,-138 706.95,-131.52 696.36,-131.36 698.57,-138"/>
</g>
<!-- Node29&#45;&gt;Node29 -->
<g id="edge25" class="edge">
<title>Node29&#45;&gt;Node29</title>
<path fill="none" stroke="midnightblue" d="M609.95,-187.53C636.76,-190.31 663,-187.13 663,-178 663,-170.01 642.91,-166.58 619.93,-167.71"/>
<polygon fill="midnightblue" stroke="midnightblue" points="619.65,-164.22 609.95,-168.47 620.19,-171.2 619.65,-164.22"/>
</g>
<!-- Node30 -->
<g id="node24" class="node">
<title>Node30</title>
<g id="a_node24"><a xlink:title=" ">
<polygon fill="white" stroke="#bfbfbf" points="548.5,-112.5 548.5,-131.5 646.5,-131.5 646.5,-112.5 548.5,-112.5"/>
<text text-anchor="middle" x="597.5" y="-119.5" font-family="Helvetica,sans-Serif" font-size="10.00">G4UnionSolid.hh</text>
</a>
</g>
</g>
<!-- Node29&#45;&gt;Node30 -->
<g id="edge27" class="edge">
<title>Node29&#45;&gt;Node30</title>
<path fill="none" stroke="midnightblue" d="M574.96,-168.08C578.65,-160.69 584.02,-149.95 588.59,-140.81"/>
<polygon fill="midnightblue" stroke="midnightblue" points="591.78,-142.26 593.12,-131.75 585.52,-139.13 591.78,-142.26"/>
</g>
<!-- Node31 -->
<g id="node25" class="node">
<title>Node31</title>
<g id="a_node25"><a xlink:title=" ">
<polygon fill="white" stroke="#bfbfbf" points="463,-112.5 463,-131.5 530,-131.5 530,-112.5 463,-112.5"/>
<text text-anchor="middle" x="496.5" y="-119.5" font-family="Helvetica,sans-Serif" font-size="10.00">G4Tubs.hh</text>
</a>
</g>
</g>
<!-- Node29&#45;&gt;Node31 -->
<g id="edge28" class="edge">
<title>Node29&#45;&gt;Node31</title>
<path fill="none" stroke="midnightblue" d="M558.61,-168.32C547.35,-160.11 530.21,-147.6 516.79,-137.81"/>
<polygon fill="midnightblue" stroke="midnightblue" points="518.75,-134.9 508.61,-131.83 514.62,-140.56 518.75,-134.9"/>
</g>
<!-- Node37 -->
<g id="node31" class="node">
<title>Node37</title>
<g id="a_node31"><a xlink:title=" ">
<polygon fill="white" stroke="#bfbfbf" points="1346,-224.5 1346,-243.5 1463,-243.5 1463,-224.5 1346,-224.5"/>
<text text-anchor="middle" x="1404.5" y="-231.5" font-family="Helvetica,sans-Serif" font-size="10.00">G4UserRunAction.hh</text>
</a>
</g>
</g>
<!-- Node36&#45;&gt;Node37 -->
<g id="edge34" class="edge">
<title>Node36&#45;&gt;Node37</title>
<path fill="none" stroke="midnightblue" d="M1404.5,-280.08C1404.5,-273.01 1404.5,-262.86 1404.5,-253.99"/>
<polygon fill="midnightblue" stroke="midnightblue" points="1408,-253.75 1404.5,-243.75 1401,-253.75 1408,-253.75"/>
</g>
<!-- Node40 -->
<g id="node34" class="node">
<title>Node40</title>
<g id="a_node34"><a xlink:title=" ">
<polygon fill="white" stroke="#bfbfbf" points="1623,-224.5 1623,-243.5 1762,-243.5 1762,-224.5 1623,-224.5"/>
<text text-anchor="middle" x="1692.5" y="-231.5" font-family="Helvetica,sans-Serif" font-size="10.00">G4UserTrackingAction.hh</text>
</a>
</g>
</g>
<!-- Node39&#45;&gt;Node40 -->
<g id="edge37" class="edge">
<title>Node39&#45;&gt;Node40</title>
<path fill="none" stroke="midnightblue" d="M1693.33,-280.08C1693.2,-273.01 1693.02,-262.86 1692.85,-253.99"/>
<polygon fill="midnightblue" stroke="midnightblue" points="1696.35,-253.68 1692.66,-243.75 1689.35,-253.81 1696.35,-253.68"/>
</g>
<!-- Node42 -->
<g id="node36" class="node">
<title>Node42</title>
<g id="a_node36"><a xlink:title=" ">
<polygon fill="white" stroke="#bfbfbf" points="1780,-224.5 1780,-243.5 1921,-243.5 1921,-224.5 1780,-224.5"/>
<text text-anchor="middle" x="1850.5" y="-231.5" font-family="Helvetica,sans-Serif" font-size="10.00">G4UserSteppingAction.hh</text>
</a>
</g>
</g>
<!-- Node41&#45;&gt;Node42 -->
<g id="edge39" class="edge">
<title>Node41&#45;&gt;Node42</title>
<path fill="none" stroke="midnightblue" d="M1850.5,-280.08C1850.5,-273.01 1850.5,-262.86 1850.5,-253.99"/>
<polygon fill="midnightblue" stroke="midnightblue" points="1854,-253.75 1850.5,-243.75 1847,-253.75 1854,-253.75"/>
</g>
<!-- Node44 -->
<g id="node38" class="node">
<title>Node44</title>
<g id="a_node38"><a xlink:href="_o_m_sim_command_args_table_8hh.html" target="_top" xlink:title="Definition of the OMSimCommandArgsTable singleton class, which controls user args.">
<polygon fill="white" stroke="black" points="1231.5,-168.5 1231.5,-187.5 1395.5,-187.5 1395.5,-168.5 1231.5,-168.5"/>
<text text-anchor="middle" x="1313.5" y="-175.5" font-family="Helvetica,sans-Serif" font-size="10.00">OMSimCommandArgsTable.hh</text>
</a>
</g>
</g>
<!-- Node43&#45;&gt;Node44 -->
<g id="edge41" class="edge">
<title>Node43&#45;&gt;Node44</title>
<path fill="none" stroke="midnightblue" d="M1188.11,-224.44C1212.96,-215.44 1252.27,-201.19 1280.25,-191.05"/>
<polygon fill="midnightblue" stroke="midnightblue" points="1281.79,-194.21 1290,-187.52 1279.41,-187.63 1281.79,-194.21"/>
</g>
<!-- Node47 -->
<g id="node41" class="node">
<title>Node47</title>
<g id="a_node41"><a xlink:title=" ">
<polygon fill="white" stroke="#bfbfbf" points="1115.5,-168.5 1115.5,-187.5 1213.5,-187.5 1213.5,-168.5 1115.5,-168.5"/>
<text text-anchor="middle" x="1164.5" y="-175.5" font-family="Helvetica,sans-Serif" font-size="10.00">G4UImanager.hh</text>
</a>
</g>
</g>
<!-- Node43&#45;&gt;Node47 -->
<g id="edge46" class="edge">
<title>Node43&#45;&gt;Node47</title>
<path fill="none" stroke="midnightblue" d="M1164.5,-224.08C1164.5,-217.01 1164.5,-206.86 1164.5,-197.99"/>
<polygon fill="midnightblue" stroke="midnightblue" points="1168,-197.75 1164.5,-187.75 1161,-197.75 1168,-197.75"/>
</g>
<!-- Node44&#45;&gt;Node7 -->
<g id="edge42" class="edge">
<title>Node44&#45;&gt;Node7</title>
<path fill="none" stroke="midnightblue" d="M1303.17,-168.45C1286.92,-155.26 1254.06,-129.61 1223.5,-112 1157.73,-74.09 1075.12,-40.41 1030.23,-23.17"/>
<polygon fill="midnightblue" stroke="midnightblue" points="1031.3,-19.84 1020.71,-19.55 1028.81,-26.38 1031.3,-19.84"/>
</g>
<!-- Node44&#45;&gt;Node26 -->
<g id="edge43" class="edge">
<title>Node44&#45;&gt;Node26</title>
<path fill="none" stroke="midnightblue" d="M1293.53,-168.44C1272.89,-159.6 1240.44,-145.69 1216.87,-135.59"/>
<polygon fill="midnightblue" stroke="midnightblue" points="1217.94,-132.24 1207.37,-131.52 1215.18,-138.67 1217.94,-132.24"/>
</g>
<!-- Node45 -->
<g id="node39" class="node">
<title>Node45</title>
<g id="a_node39"><a xlink:title=" ">
<polygon fill="white" stroke="#bfbfbf" points="1271.5,-112.5 1271.5,-131.5 1355.5,-131.5 1355.5,-112.5 1271.5,-112.5"/>
<text text-anchor="middle" x="1313.5" y="-119.5" font-family="Helvetica,sans-Serif" font-size="10.00">boost/any.hpp</text>
</a>
</g>
</g>
<!-- Node44&#45;&gt;Node45 -->
<g id="edge44" class="edge">
<title>Node44&#45;&gt;Node45</title>
<path fill="none" stroke="midnightblue" d="M1313.5,-168.08C1313.5,-161.01 1313.5,-150.86 1313.5,-141.99"/>
<polygon fill="midnightblue" stroke="midnightblue" points="1317,-141.75 1313.5,-131.75 1310,-141.75 1317,-141.75"/>
</g>
<!-- Node46 -->
<g id="node40" class="node">
<title>Node46</title>
<g id="a_node40"><a xlink:title=" ">
<polygon fill="white" stroke="#bfbfbf" points="1373.5,-112.5 1373.5,-131.5 1441.5,-131.5 1441.5,-112.5 1373.5,-112.5"/>
<text text-anchor="middle" x="1407.5" y="-119.5" font-family="Helvetica,sans-Serif" font-size="10.00">sys/time.h</text>
</a>
</g>
</g>
<!-- Node44&#45;&gt;Node46 -->
<g id="edge45" class="edge">
<title>Node44&#45;&gt;Node46</title>
<path fill="none" stroke="midnightblue" d="M1328.6,-168.32C1343.4,-159.82 1366.19,-146.73 1383.48,-136.8"/>
<polygon fill="midnightblue" stroke="midnightblue" points="1385.51,-139.67 1392.43,-131.65 1382.02,-133.6 1385.51,-139.67"/>
</g>
<!-- Node53&#45;&gt;Node4 -->
<g id="edge53" class="edge">
<title>Node53&#45;&gt;Node4</title>
<path fill="none" stroke="midnightblue" d="M403.09,-336.37C425.96,-317.73 480.21,-273.53 508.93,-250.13"/>
<polygon fill="midnightblue" stroke="midnightblue" points="511.41,-252.62 516.96,-243.59 506.99,-247.19 511.41,-252.62"/>
</g>
<!-- Node54 -->
<g id="node48" class="node">
<title>Node54</title>
<g id="a_node48"><a xlink:title=" ">
<polygon fill="white" stroke="#bfbfbf" points="297,-280.5 297,-299.5 364,-299.5 364,-280.5 297,-280.5"/>
<text text-anchor="middle" x="330.5" y="-287.5" font-family="Helvetica,sans-Serif" font-size="10.00">globals.hh</text>
</a>
</g>
</g>
<!-- Node53&#45;&gt;Node54 -->
<g id="edge54" class="edge">
<title>Node53&#45;&gt;Node54</title>
<path fill="none" stroke="midnightblue" d="M382.54,-336.32C373.37,-328.34 359.56,-316.31 348.47,-306.65"/>
<polygon fill="midnightblue" stroke="midnightblue" points="350.48,-303.76 340.64,-299.83 345.88,-309.04 350.48,-303.76"/>
</g>
<!-- Node55&#45;&gt;Node25 -->
<g id="edge57" class="edge">
<title>Node55&#45;&gt;Node25</title>
<path fill="none" stroke="midnightblue" d="M1035.94,-168.32C1045.65,-160.26 1060.32,-148.08 1072,-138.37"/>
<polygon fill="midnightblue" stroke="midnightblue" points="1074.41,-140.92 1079.87,-131.83 1069.94,-135.53 1074.41,-140.92"/>
</g>
<!-- Node55&#45;&gt;Node26 -->
<g id="edge58" class="edge">
<title>Node55&#45;&gt;Node26</title>
<path fill="none" stroke="midnightblue" d="M1051.17,-168.44C1078.42,-159.36 1121.68,-144.94 1152.15,-134.78"/>
<polygon fill="midnightblue" stroke="midnightblue" points="1153.57,-138 1161.95,-131.52 1151.36,-131.36 1153.57,-138"/>
</g>
<!-- Node56&#45;&gt;Node3 -->
<g id="edge62" class="edge">
<title>Node56&#45;&gt;Node3</title>
<path fill="none" stroke="midnightblue" d="M643.41,-336.44C661.75,-327.68 690.51,-313.94 711.59,-303.86"/>
<polygon fill="midnightblue" stroke="midnightblue" points="713.17,-306.99 720.68,-299.52 710.15,-300.67 713.17,-306.99"/>
</g>
<!-- Node56&#45;&gt;Node4 -->
<g id="edge60" class="edge">
<title>Node56&#45;&gt;Node4</title>
<path fill="none" stroke="midnightblue" d="M617.81,-336.37C601.49,-318.05 563.18,-275.05 542.08,-251.36"/>
<polygon fill="midnightblue" stroke="midnightblue" points="544.42,-248.73 535.15,-243.59 539.19,-253.39 544.42,-248.73"/>
</g>
<!-- Node56&#45;&gt;Node5 -->
<g id="edge61" class="edge">
<title>Node56&#45;&gt;Node5</title>
<path fill="none" stroke="midnightblue" d="M603.59,-336.48C568.01,-321.82 496.89,-289 449.5,-244 417.01,-213.14 391.77,-166.15 379.56,-140.77"/>
<polygon fill="midnightblue" stroke="midnightblue" points="382.68,-139.18 375.27,-131.6 376.34,-142.14 382.68,-139.18"/>
</g>
<!-- Node56&#45;&gt;Node32 -->
<g id="edge63" class="edge">
<title>Node56&#45;&gt;Node32</title>
<path fill="none" stroke="midnightblue" d="M627.07,-336.37C630.3,-318.62 637.74,-277.67 642.12,-253.6"/>
<polygon fill="midnightblue" stroke="midnightblue" points="645.59,-254.06 643.94,-243.59 638.71,-252.8 645.59,-254.06"/>
</g>
</g>
</svg>
