<?xml version="1.0" encoding="UTF-8" standalone="no"?>
<!DOCTYPE svg PUBLIC "-//W3C//DTD SVG 1.1//EN"
 "http://www.w3.org/Graphics/SVG/1.1/DTD/svg11.dtd">
<!-- Generated by graphviz version 2.43.0 (0)
 -->
<!-- Title: OMSimSNTools.cc Pages: 1 -->
<svg width="1459pt" height="207pt"
 viewBox="0.00 0.00 1458.50 207.00" xmlns="http://www.w3.org/2000/svg" xmlns:xlink="http://www.w3.org/1999/xlink">
<g id="graph0" class="graph" transform="scale(1 1) rotate(0) translate(4 203)">
<title>OMSimSNTools.cc</title>
<polygon fill="white" stroke="transparent" points="-4,4 -4,-203 1454.5,-203 1454.5,4 -4,4"/>
<!-- Node1 -->
<g id="node1" class="node">
<title>Node1</title>
<g id="a_node1"><a xlink:title=" ">
<polygon fill="#bfbfbf" stroke="black" points="656.5,-179.5 656.5,-198.5 760.5,-198.5 760.5,-179.5 656.5,-179.5"/>
<text text-anchor="middle" x="708.5" y="-186.5" font-family="Helvetica,sans-Serif" font-size="10.00">OMSimSNTools.cc</text>
</a>
</g>
</g>
<!-- Node2 -->
<g id="node2" class="node">
<title>Node2</title>
<g id="a_node2"><a xlink:href="_o_m_sim_s_n_tools_8hh.html" target="_top" xlink:title="Provides the definition for the OMSimSNTools class, centralizing utility methods for Supernova (SN) n...">
<polygon fill="white" stroke="black" points="149,-123.5 149,-142.5 254,-142.5 254,-123.5 149,-123.5"/>
<text text-anchor="middle" x="201.5" y="-130.5" font-family="Helvetica,sans-Serif" font-size="10.00">OMSimSNTools.hh</text>
</a>
</g>
</g>
<!-- Node1&#45;&gt;Node2 -->
<g id="edge1" class="edge">
<title>Node1&#45;&gt;Node2</title>
<path fill="none" stroke="midnightblue" d="M656.39,-182.79C575.34,-174.64 414.14,-158.22 277.5,-143 273.27,-142.53 268.9,-142.03 264.5,-141.53"/>
<polygon fill="midnightblue" stroke="midnightblue" points="264.57,-138.01 254.23,-140.34 263.76,-144.97 264.57,-138.01"/>
</g>
<!-- Node6 -->
<g id="node6" class="node">
<title>Node6</title>
<g id="a_node6"><a xlink:title=" ">
<polygon fill="white" stroke="#bfbfbf" points="271,-67.5 271,-86.5 332,-86.5 332,-67.5 271,-67.5"/>
<text text-anchor="middle" x="301.5" y="-74.5" font-family="Helvetica,sans-Serif" font-size="10.00">TGraph.h</text>
</a>
</g>
</g>
<!-- Node1&#45;&gt;Node6 -->
<g id="edge22" class="edge">
<title>Node1&#45;&gt;Node6</title>
<path fill="none" stroke="midnightblue" d="M656.4,-185.62C554.11,-180.46 334.83,-166.73 310.5,-143 298.41,-131.21 297.3,-111.28 298.51,-96.59"/>
<polygon fill="midnightblue" stroke="midnightblue" points="302,-96.96 299.75,-86.6 295.05,-96.1 302,-96.96"/>
</g>
<!-- Node7 -->
<g id="node7" class="node">
<title>Node7</title>
<g id="a_node7"><a xlink:title=" ">
<polygon fill="white" stroke="#bfbfbf" points="319.5,-123.5 319.5,-142.5 453.5,-142.5 453.5,-123.5 319.5,-123.5"/>
<text text-anchor="middle" x="386.5" y="-130.5" font-family="Helvetica,sans-Serif" font-size="10.00">G4PhysicalConstants.hh</text>
</a>
</g>
</g>
<!-- Node1&#45;&gt;Node7 -->
<g id="edge6" class="edge">
<title>Node1&#45;&gt;Node7</title>
<path fill="none" stroke="midnightblue" d="M657.48,-179.44C600.48,-169.89 508.26,-154.42 447.5,-144.23"/>
<polygon fill="midnightblue" stroke="midnightblue" points="447.72,-140.72 437.28,-142.52 446.57,-147.62 447.72,-140.72"/>
</g>
<!-- Node8 -->
<g id="node8" class="node">
<title>Node8</title>
<g id="a_node8"><a xlink:title=" ">
<polygon fill="white" stroke="#bfbfbf" points="472,-123.5 472,-142.5 591,-142.5 591,-123.5 472,-123.5"/>
<text text-anchor="middle" x="531.5" y="-130.5" font-family="Helvetica,sans-Serif" font-size="10.00">G4SystemOfUnits.hh</text>
</a>
</g>
</g>
<!-- Node1&#45;&gt;Node8 -->
<g id="edge7" class="edge">
<title>Node1&#45;&gt;Node8</title>
<path fill="none" stroke="midnightblue" d="M680.45,-179.44C650.42,-170.28 602.59,-155.69 569.26,-145.52"/>
<polygon fill="midnightblue" stroke="midnightblue" points="570,-142.09 559.41,-142.52 567.96,-148.78 570,-142.09"/>
</g>
<!-- Node9 -->
<g id="node9" class="node">
<title>Node9</title>
<g id="a_node9"><a xlink:title=" ">
<polygon fill="white" stroke="#bfbfbf" points="609.5,-123.5 609.5,-142.5 695.5,-142.5 695.5,-123.5 609.5,-123.5"/>
<text text-anchor="middle" x="652.5" y="-130.5" font-family="Helvetica,sans-Serif" font-size="10.00">Randomize.hh</text>
</a>
</g>
</g>
<!-- Node1&#45;&gt;Node9 -->
<g id="edge8" class="edge">
<title>Node1&#45;&gt;Node9</title>
<path fill="none" stroke="midnightblue" d="M699.5,-179.32C691.31,-171.42 678.99,-159.55 669.03,-149.94"/>
<polygon fill="midnightblue" stroke="midnightblue" points="671.29,-147.26 661.66,-142.83 666.43,-152.29 671.29,-147.26"/>
</g>
<!-- Node10 -->
<g id="node10" class="node">
<title>Node10</title>
<g id="a_node10"><a xlink:title=" ">
<polygon fill="white" stroke="#bfbfbf" points="714,-123.5 714,-142.5 815,-142.5 815,-123.5 714,-123.5"/>
<text text-anchor="middle" x="764.5" y="-130.5" font-family="Helvetica,sans-Serif" font-size="10.00">G4VTouchable.hh</text>
</a>
</g>
</g>
<!-- Node1&#45;&gt;Node10 -->
<g id="edge9" class="edge">
<title>Node1&#45;&gt;Node10</title>
<path fill="none" stroke="midnightblue" d="M717.5,-179.32C725.69,-171.42 738.01,-159.55 747.97,-149.94"/>
<polygon fill="midnightblue" stroke="midnightblue" points="750.57,-152.29 755.34,-142.83 745.71,-147.26 750.57,-152.29"/>
</g>
<!-- Node11 -->
<g id="node11" class="node">
<title>Node11</title>
<g id="a_node11"><a xlink:title=" ">
<polygon fill="white" stroke="#bfbfbf" points="833,-123.5 833,-142.5 886,-142.5 886,-123.5 833,-123.5"/>
<text text-anchor="middle" x="859.5" y="-130.5" font-family="Helvetica,sans-Serif" font-size="10.00">stdlib.h</text>
</a>
</g>
</g>
<!-- Node1&#45;&gt;Node11 -->
<g id="edge10" class="edge">
<title>Node1&#45;&gt;Node11</title>
<path fill="none" stroke="midnightblue" d="M732.43,-179.44C757.72,-170.4 797.8,-156.06 826.18,-145.92"/>
<polygon fill="midnightblue" stroke="midnightblue" points="827.45,-149.18 835.69,-142.52 825.09,-142.59 827.45,-149.18"/>
</g>
<!-- Node12 -->
<g id="node12" class="node">
<title>Node12</title>
<g id="a_node12"><a xlink:title=" ">
<polygon fill="white" stroke="#bfbfbf" points="904.5,-123.5 904.5,-142.5 996.5,-142.5 996.5,-123.5 904.5,-123.5"/>
<text text-anchor="middle" x="950.5" y="-130.5" font-family="Helvetica,sans-Serif" font-size="10.00">G4Navigator.hh</text>
</a>
</g>
</g>
<!-- Node1&#45;&gt;Node12 -->
<g id="edge11" class="edge">
<title>Node1&#45;&gt;Node12</title>
<path fill="none" stroke="midnightblue" d="M746.85,-179.44C788.97,-170.04 856.71,-154.93 902.37,-144.74"/>
<polygon fill="midnightblue" stroke="midnightblue" points="903.34,-148.11 912.33,-142.52 901.81,-141.28 903.34,-148.11"/>
</g>
<!-- Node13 -->
<g id="node13" class="node">
<title>Node13</title>
<g id="a_node13"><a xlink:title=" ">
<polygon fill="white" stroke="#bfbfbf" points="1014.5,-123.5 1014.5,-142.5 1178.5,-142.5 1178.5,-123.5 1014.5,-123.5"/>
<text text-anchor="middle" x="1096.5" y="-130.5" font-family="Helvetica,sans-Serif" font-size="10.00">G4TouchableHistoryHandle.hh</text>
</a>
</g>
</g>
<!-- Node1&#45;&gt;Node13 -->
<g id="edge12" class="edge">
<title>Node1&#45;&gt;Node13</title>
<path fill="none" stroke="midnightblue" d="M760.83,-180.72C829.03,-171.23 948.58,-154.59 1025.07,-143.94"/>
<polygon fill="midnightblue" stroke="midnightblue" points="1025.69,-147.39 1035.11,-142.54 1024.72,-140.46 1025.69,-147.39"/>
</g>
<!-- Node14 -->
<g id="node14" class="node">
<title>Node14</title>
<g id="a_node14"><a xlink:href="_o_m_sim_command_args_table_8hh.html" target="_top" xlink:title="Definition of the OMSimCommandArgsTable singleton class, which controls user args.">
<polygon fill="white" stroke="black" points="1196.5,-123.5 1196.5,-142.5 1360.5,-142.5 1360.5,-123.5 1196.5,-123.5"/>
<text text-anchor="middle" x="1278.5" y="-130.5" font-family="Helvetica,sans-Serif" font-size="10.00">OMSimCommandArgsTable.hh</text>
</a>
</g>
</g>
<!-- Node1&#45;&gt;Node14 -->
<g id="edge13" class="edge">
<title>Node1&#45;&gt;Node14</title>
<path fill="none" stroke="midnightblue" d="M760.6,-183.19C846.79,-175.21 1024.74,-158.67 1186.05,-143.14"/>
<polygon fill="midnightblue" stroke="midnightblue" points="1186.54,-146.6 1196.16,-142.16 1185.87,-139.64 1186.54,-146.6"/>
</g>
<!-- Node3 -->
<g id="node3" class="node">
<title>Node3</title>
<g id="a_node3"><a xlink:title=" ">
<polygon fill="white" stroke="#bfbfbf" points="0,-67.5 0,-86.5 67,-86.5 67,-67.5 0,-67.5"/>
<text text-anchor="middle" x="33.5" y="-74.5" font-family="Helvetica,sans-Serif" font-size="10.00">globals.hh</text>
</a>
</g>
</g>
<!-- Node2&#45;&gt;Node3 -->
<g id="edge2" class="edge">
<title>Node2&#45;&gt;Node3</title>
<path fill="none" stroke="midnightblue" d="M174.88,-123.44C146.49,-114.32 101.36,-99.81 69.75,-89.65"/>
<polygon fill="midnightblue" stroke="midnightblue" points="70.59,-86.24 60,-86.52 68.44,-92.91 70.59,-86.24"/>
</g>
<!-- Node4 -->
<g id="node4" class="node">
<title>Node4</title>
<g id="a_node4"><a xlink:title=" ">
<polygon fill="white" stroke="#bfbfbf" points="85,-67.5 85,-86.5 132,-86.5 132,-67.5 85,-67.5"/>
<text text-anchor="middle" x="108.5" y="-74.5" font-family="Helvetica,sans-Serif" font-size="10.00">vector</text>
</a>
</g>
</g>
<!-- Node2&#45;&gt;Node4 -->
<g id="edge3" class="edge">
<title>Node2&#45;&gt;Node4</title>
<path fill="none" stroke="midnightblue" d="M186.56,-123.32C171.91,-114.82 149.37,-101.73 132.26,-91.8"/>
<polygon fill="midnightblue" stroke="midnightblue" points="133.81,-88.65 123.4,-86.65 130.3,-94.7 133.81,-88.65"/>
</g>
<!-- Node5 -->
<g id="node5" class="node">
<title>Node5</title>
<g id="a_node5"><a xlink:title=" ">
<polygon fill="white" stroke="#bfbfbf" points="150,-67.5 150,-86.5 253,-86.5 253,-67.5 150,-67.5"/>
<text text-anchor="middle" x="201.5" y="-74.5" font-family="Helvetica,sans-Serif" font-size="10.00">G4ThreeVector.hh</text>
</a>
</g>
</g>
<!-- Node2&#45;&gt;Node5 -->
<g id="edge4" class="edge">
<title>Node2&#45;&gt;Node5</title>
<path fill="none" stroke="midnightblue" d="M201.5,-123.08C201.5,-116.01 201.5,-105.86 201.5,-96.99"/>
<polygon fill="midnightblue" stroke="midnightblue" points="205,-96.75 201.5,-86.75 198,-96.75 205,-96.75"/>
</g>
<!-- Node2&#45;&gt;Node6 -->
<g id="edge5" class="edge">
<title>Node2&#45;&gt;Node6</title>
<path fill="none" stroke="midnightblue" d="M217.57,-123.32C233.46,-114.74 258.01,-101.49 276.46,-91.52"/>
<polygon fill="midnightblue" stroke="midnightblue" points="278.34,-94.49 285.47,-86.65 275.01,-88.33 278.34,-94.49"/>
</g>
<!-- Node15 -->
<g id="node15" class="node">
<title>Node15</title>
<g id="a_node15"><a xlink:href="_o_m_sim_logger_8hh.html" target="_top" xlink:title=" ">
<polygon fill="white" stroke="black" points="1090,-67.5 1090,-86.5 1189,-86.5 1189,-67.5 1090,-67.5"/>
<text text-anchor="middle" x="1139.5" y="-74.5" font-family="Helvetica,sans-Serif" font-size="10.00">OMSimLogger.hh</text>
</a>
</g>
</g>
<!-- Node14&#45;&gt;Node15 -->
<g id="edge14" class="edge">
<title>Node14&#45;&gt;Node15</title>
<path fill="none" stroke="midnightblue" d="M1256.48,-123.44C1233.4,-114.48 1196.94,-100.31 1170.86,-90.18"/>
<polygon fill="midnightblue" stroke="midnightblue" points="1172.01,-86.88 1161.42,-86.52 1169.48,-93.4 1172.01,-86.88"/>
</g>
<!-- Node20 -->
<g id="node20" class="node">
<title>Node20</title>
<g id="a_node20"><a xlink:title=" ">
<polygon fill="white" stroke="#bfbfbf" points="1207,-67.5 1207,-86.5 1262,-86.5 1262,-67.5 1207,-67.5"/>
<text text-anchor="middle" x="1234.5" y="-74.5" font-family="Helvetica,sans-Serif" font-size="10.00">fstream</text>
</a>
</g>
</g>
<!-- Node14&#45;&gt;Node20 -->
<g id="edge19" class="edge">
<title>Node14&#45;&gt;Node20</title>
<path fill="none" stroke="midnightblue" d="M1271.23,-123.08C1264.96,-115.38 1255.71,-104.03 1248.07,-94.65"/>
<polygon fill="midnightblue" stroke="midnightblue" points="1250.66,-92.29 1241.63,-86.75 1245.23,-96.71 1250.66,-92.29"/>
</g>
<!-- Node21 -->
<g id="node21" class="node">
<title>Node21</title>
<g id="a_node21"><a xlink:title=" ">
<polygon fill="white" stroke="#bfbfbf" points="1280.5,-67.5 1280.5,-86.5 1364.5,-86.5 1364.5,-67.5 1280.5,-67.5"/>
<text text-anchor="middle" x="1322.5" y="-74.5" font-family="Helvetica,sans-Serif" font-size="10.00">boost/any.hpp</text>
</a>
</g>
</g>
<!-- Node14&#45;&gt;Node21 -->
<g id="edge20" class="edge">
<title>Node14&#45;&gt;Node21</title>
<path fill="none" stroke="midnightblue" d="M1285.77,-123.08C1292.04,-115.38 1301.29,-104.03 1308.93,-94.65"/>
<polygon fill="midnightblue" stroke="midnightblue" points="1311.77,-96.71 1315.37,-86.75 1306.34,-92.29 1311.77,-96.71"/>
</g>
<!-- Node22 -->
<g id="node22" class="node">
<title>Node22</title>
<g id="a_node22"><a xlink:title=" ">
<polygon fill="white" stroke="#bfbfbf" points="1382.5,-67.5 1382.5,-86.5 1450.5,-86.5 1450.5,-67.5 1382.5,-67.5"/>
<text text-anchor="middle" x="1416.5" y="-74.5" font-family="Helvetica,sans-Serif" font-size="10.00">sys/time.h</text>
</a>
</g>
</g>
<!-- Node14&#45;&gt;Node22 -->
<g id="edge21" class="edge">
<title>Node14&#45;&gt;Node22</title>
<path fill="none" stroke="midnightblue" d="M1300.37,-123.44C1323.28,-114.48 1359.48,-100.31 1385.37,-90.18"/>
<polygon fill="midnightblue" stroke="midnightblue" points="1386.7,-93.42 1394.74,-86.52 1384.15,-86.9 1386.7,-93.42"/>
</g>
<!-- Node16 -->
<g id="node16" class="node">
<title>Node16</title>
<g id="a_node16"><a xlink:title=" ">
<polygon fill="white" stroke="#bfbfbf" points="921,-6 921,-25 1014,-25 1014,-6 921,-6"/>
<text text-anchor="middle" x="967.5" y="-13" font-family="Helvetica,sans-Serif" font-size="10.00">spdlog/spdlog.h</text>
</a>
</g>
</g>
<!-- Node15&#45;&gt;Node16 -->
<g id="edge15" class="edge">
<title>Node15&#45;&gt;Node16</title>
<path fill="none" stroke="midnightblue" d="M1114.86,-67.48C1085.22,-57.22 1035.32,-39.96 1001.9,-28.4"/>
<polygon fill="midnightblue" stroke="midnightblue" points="1002.69,-24.97 992.1,-25.01 1000.4,-31.59 1002.69,-24.97"/>
</g>
<!-- Node17 -->
<g id="node17" class="node">
<title>Node17</title>
<g id="a_node17"><a xlink:title=" ">
<polygon fill="white" stroke="#bfbfbf" points="1032,-0.5 1032,-30.5 1143,-30.5 1143,-0.5 1032,-0.5"/>
<text text-anchor="start" x="1040" y="-18.5" font-family="Helvetica,sans-Serif" font-size="10.00">spdlog/sinks/stdout</text>
<text text-anchor="middle" x="1087.5" y="-7.5" font-family="Helvetica,sans-Serif" font-size="10.00">_color_sinks.h</text>
</a>
</g>
</g>
<!-- Node15&#45;&gt;Node17 -->
<g id="edge16" class="edge">
<title>Node15&#45;&gt;Node17</title>
<path fill="none" stroke="midnightblue" d="M1132.05,-67.48C1125.4,-59.87 1115.38,-48.4 1106.52,-38.26"/>
<polygon fill="midnightblue" stroke="midnightblue" points="1108.97,-35.75 1099.76,-30.52 1103.7,-40.36 1108.97,-35.75"/>
</g>
<!-- Node18 -->
<g id="node18" class="node">
<title>Node18</title>
<g id="a_node18"><a xlink:title=" ">
<polygon fill="white" stroke="#bfbfbf" points="1161.5,-6 1161.5,-25 1219.5,-25 1219.5,-6 1161.5,-6"/>
<text text-anchor="middle" x="1190.5" y="-13" font-family="Helvetica,sans-Serif" font-size="10.00">memory</text>
</a>
</g>
</g>
<!-- Node15&#45;&gt;Node18 -->
<g id="edge17" class="edge">
<title>Node15&#45;&gt;Node18</title>
<path fill="none" stroke="midnightblue" d="M1146.81,-67.48C1154.53,-58.46 1166.91,-44.02 1176.52,-32.81"/>
<polygon fill="midnightblue" stroke="midnightblue" points="1179.36,-34.88 1183.21,-25.01 1174.04,-30.32 1179.36,-34.88"/>
</g>
<!-- Node19 -->
<g id="node19" class="node">
<title>Node19</title>
<g id="a_node19"><a xlink:title=" ">
<polygon fill="white" stroke="#bfbfbf" points="1237.5,-6 1237.5,-25 1335.5,-25 1335.5,-6 1237.5,-6"/>
<text text-anchor="middle" x="1286.5" y="-13" font-family="Helvetica,sans-Serif" font-size="10.00">spdlog/fmt/fmt.h</text>
</a>
</g>
</g>
<!-- Node15&#45;&gt;Node19 -->
<g id="edge18" class="edge">
<title>Node15&#45;&gt;Node19</title>
<path fill="none" stroke="midnightblue" d="M1160.56,-67.48C1185.56,-57.36 1227.44,-40.4 1255.99,-28.85"/>
<polygon fill="midnightblue" stroke="midnightblue" points="1257.52,-32.01 1265.48,-25.01 1254.89,-25.52 1257.52,-32.01"/>
</g>
</g>
</svg>
