<?xml version="1.0" encoding="UTF-8" standalone="no"?>
<!DOCTYPE svg PUBLIC "-//W3C//DTD SVG 1.1//EN"
 "http://www.w3.org/Graphics/SVG/1.1/DTD/svg11.dtd">
<!-- Generated by graphviz version 2.43.0 (0)
 -->
<!-- Title: OMSim_radioactive_decays.cc Pages: 1 -->
<svg width="2407pt" height="487pt"
 viewBox="0.00 0.00 2406.50 487.00" xmlns="http://www.w3.org/2000/svg" xmlns:xlink="http://www.w3.org/1999/xlink">
<g id="graph0" class="graph" transform="scale(1 1) rotate(0) translate(4 483)">
<title>OMSim_radioactive_decays.cc</title>
<!-- Node1 -->
<g id="node1" class="node">
<title>Node1</title>
<g id="a_node1"><a xlink:title="Main of the radioactive decay study.">
<polygon fill="#bfbfbf" stroke="black" points="837.5,-459.5 837.5,-478.5 1002.5,-478.5 1002.5,-459.5 837.5,-459.5"/>
<text text-anchor="middle" x="920" y="-466.5" font-family="Helvetica,sans-Serif" font-size="10.00">OMSim_radioactive_decays.cc</text>
</a>
</g>
</g>
<!-- Node2 -->
<g id="node2" class="node">
<title>Node2</title>
<g id="a_node2"><a xlink:href="_o_m_sim_8hh.html" target="_top" xlink:title="Main simulation class for the Optical Module (OM) simulation. This file defines the OMSim class,...">
<polygon fill="none" stroke="black" points="1516.5,-403.5 1516.5,-422.5 1583.5,-422.5 1583.5,-403.5 1516.5,-403.5"/>
<text text-anchor="middle" x="1550" y="-410.5" font-family="Helvetica,sans-Serif" font-size="10.00">OMSim.hh</text>
</a>
</g>
</g>
<!-- Node1&#45;&gt;Node2 -->
<g id="edge1" class="edge">
<title>Node1&#45;&gt;Node2</title>
<path fill="none" stroke="midnightblue" d="M1002.69,-460.91C1137.92,-449.32 1401.77,-426.71 1506.06,-417.77"/>
<polygon fill="midnightblue" stroke="midnightblue" points="1506.57,-421.24 1516.23,-416.89 1505.97,-414.26 1506.57,-421.24"/>
</g>
<!-- Node26 -->
<g id="node16" class="node">
<title>Node26</title>
<g id="a_node16"><a xlink:href="_o_m_sim_hit_manager_8hh.html" target="_top" xlink:title="Defines structures and classes related to optical module photon hit management.">
<polygon fill="none" stroke="black" points="858.5,-235.5 858.5,-254.5 981.5,-254.5 981.5,-235.5 858.5,-235.5"/>
<text text-anchor="middle" x="920" y="-242.5" font-family="Helvetica,sans-Serif" font-size="10.00">OMSimHitManager.hh</text>
</a>
</g>
</g>
<!-- Node1&#45;&gt;Node26 -->
<g id="edge57" class="edge">
<title>Node1&#45;&gt;Node26</title>
<path fill="none" stroke="midnightblue" d="M920,-459.3C920,-426.63 920,-310.87 920,-264.96"/>
<polygon fill="midnightblue" stroke="midnightblue" points="923.5,-264.88 920,-254.88 916.5,-264.88 923.5,-264.88"/>
</g>
<!-- Node59 -->
<g id="node47" class="node">
<title>Node59</title>
<g id="a_node47"><a xlink:href="_o_m_sim_decays_g_p_s_8hh.html" target="_top" xlink:title="Defines the OMSimDecaysGPS class for the radioactive decays simulation.">
<polygon fill="none" stroke="black" points="351,-403.5 351,-422.5 473,-422.5 473,-403.5 351,-403.5"/>
<text text-anchor="middle" x="412" y="-410.5" font-family="Helvetica,sans-Serif" font-size="10.00">OMSimDecaysGPS.hh</text>
</a>
</g>
</g>
<!-- Node1&#45;&gt;Node59 -->
<g id="edge54" class="edge">
<title>Node1&#45;&gt;Node59</title>
<path fill="none" stroke="midnightblue" d="M839.79,-459.47C741.59,-449.04 576.83,-431.52 483.02,-421.55"/>
<polygon fill="midnightblue" stroke="midnightblue" points="483.37,-418.07 473.06,-420.49 482.63,-425.03 483.37,-418.07"/>
</g>
<!-- Node61 -->
<g id="node49" class="node">
<title>Node61</title>
<g id="a_node49"><a xlink:href="_o_m_sim_decays_analysis_8hh.html" target="_top" xlink:title="Defines the OMSimDecaysAnalysis class and DecayStats struct for the radioactive decays simulation.">
<polygon fill="none" stroke="black" points="1000,-235.5 1000,-254.5 1144,-254.5 1144,-235.5 1000,-235.5"/>
<text text-anchor="middle" x="1072" y="-242.5" font-family="Helvetica,sans-Serif" font-size="10.00">OMSimDecaysAnalysis.hh</text>
</a>
</g>
</g>
<!-- Node1&#45;&gt;Node61 -->
<g id="edge58" class="edge">
<title>Node1&#45;&gt;Node61</title>
<path fill="none" stroke="midnightblue" d="M923.02,-459.3C930.38,-438.7 950.61,-385.78 977,-347 999.85,-313.42 1033.86,-280.22 1054.38,-261.5"/>
<polygon fill="midnightblue" stroke="midnightblue" points="1056.94,-263.91 1062.03,-254.62 1052.26,-258.7 1056.94,-263.91"/>
</g>
<!-- Node62 -->
<g id="node50" class="node">
<title>Node62</title>
<g id="a_node50"><a xlink:href="_o_m_sim_rad_decays_detector_8hh.html" target="_top" xlink:title="Defines the OMSimRadDecaysDetector class for the radioactive decays simulation.">
<polygon fill="none" stroke="black" points="563.5,-403.5 563.5,-422.5 726.5,-422.5 726.5,-403.5 563.5,-403.5"/>
<text text-anchor="middle" x="645" y="-410.5" font-family="Helvetica,sans-Serif" font-size="10.00">OMSimRadDecaysDetector.hh</text>
</a>
</g>
</g>
<!-- Node1&#45;&gt;Node62 -->
<g id="edge62" class="edge">
<title>Node1&#45;&gt;Node62</title>
<path fill="none" stroke="midnightblue" d="M876.43,-459.44C828.15,-449.96 750.29,-434.67 698.39,-424.48"/>
<polygon fill="midnightblue" stroke="midnightblue" points="698.86,-421.01 688.37,-422.52 697.51,-427.88 698.86,-421.01"/>
</g>
<!-- Node3 -->
<g id="node3" class="node">
<title>Node3</title>
<g id="a_node3"><a xlink:href="_o_m_sim_detector_construction_8hh_source.html" target="_top" xlink:title=" ">
<polygon fill="none" stroke="black" points="673,-347.5 673,-366.5 843,-366.5 843,-347.5 673,-347.5"/>
<text text-anchor="middle" x="758" y="-354.5" font-family="Helvetica,sans-Serif" font-size="10.00">OMSimDetectorConstruction.hh</text>
</a>
</g>
</g>
<!-- Node2&#45;&gt;Node3 -->
<g id="edge2" class="edge">
<title>Node2&#45;&gt;Node3</title>
<path fill="none" stroke="midnightblue" d="M1516.47,-409.71C1402.97,-401.98 1030.38,-376.57 853.21,-364.49"/>
<polygon fill="midnightblue" stroke="midnightblue" points="853.34,-360.99 843.12,-363.8 852.86,-367.98 853.34,-360.99"/>
</g>
<!-- Node39 -->
<g id="node29" class="node">
<title>Node39</title>
<g id="a_node29"><a xlink:title=" ">
<polygon fill="none" stroke="#bfbfbf" points="1616.5,-347.5 1616.5,-366.5 1737.5,-366.5 1737.5,-347.5 1616.5,-347.5"/>
<text text-anchor="middle" x="1677" y="-354.5" font-family="Helvetica,sans-Serif" font-size="10.00">OMSimPhysicsList.hh</text>
</a>
</g>
</g>
<!-- Node2&#45;&gt;Node39 -->
<g id="edge32" class="edge">
<title>Node2&#45;&gt;Node39</title>
<path fill="none" stroke="midnightblue" d="M1570.12,-403.44C1591.02,-394.56 1623.93,-380.56 1647.72,-370.45"/>
<polygon fill="midnightblue" stroke="midnightblue" points="1649.14,-373.65 1656.97,-366.52 1646.4,-367.21 1649.14,-373.65"/>
</g>
<!-- Node40 -->
<g id="node30" class="node">
<title>Node40</title>
<g id="a_node30"><a xlink:title=" ">
<polygon fill="none" stroke="#bfbfbf" points="1755.5,-347.5 1755.5,-366.5 1940.5,-366.5 1940.5,-347.5 1755.5,-347.5"/>
<text text-anchor="middle" x="1848" y="-354.5" font-family="Helvetica,sans-Serif" font-size="10.00">OMSimPrimaryGeneratorAction.hh</text>
</a>
</g>
</g>
<!-- Node2&#45;&gt;Node40 -->
<g id="edge33" class="edge">
<title>Node2&#45;&gt;Node40</title>
<path fill="none" stroke="midnightblue" d="M1583.61,-405.91C1634,-396.78 1729.77,-379.42 1791.16,-368.3"/>
<polygon fill="midnightblue" stroke="midnightblue" points="1791.87,-371.73 1801.08,-366.5 1790.62,-364.84 1791.87,-371.73"/>
</g>
<!-- Node41 -->
<g id="node31" class="node">
<title>Node41</title>
<g id="a_node31"><a xlink:href="_o_m_sim_run_action_8hh_source.html" target="_top" xlink:title=" ">
<polygon fill="none" stroke="black" points="1512,-291.5 1512,-310.5 1628,-310.5 1628,-291.5 1512,-291.5"/>
<text text-anchor="middle" x="1570" y="-298.5" font-family="Helvetica,sans-Serif" font-size="10.00">OMSimRunAction.hh</text>
</a>
</g>
</g>
<!-- Node2&#45;&gt;Node41 -->
<g id="edge34" class="edge">
<title>Node2&#45;&gt;Node41</title>
<path fill="none" stroke="midnightblue" d="M1553.35,-403.18C1556.61,-394.21 1561.44,-379.84 1564,-367 1567.05,-351.7 1568.56,-334.06 1569.3,-321.02"/>
<polygon fill="midnightblue" stroke="midnightblue" points="1572.8,-321.07 1569.77,-310.92 1565.8,-320.74 1572.8,-321.07"/>
</g>
<!-- Node45 -->
<g id="node35" class="node">
<title>Node45</title>
<g id="a_node35"><a xlink:title=" ">
<polygon fill="none" stroke="#bfbfbf" points="1958.5,-347.5 1958.5,-366.5 2083.5,-366.5 2083.5,-347.5 1958.5,-347.5"/>
<text text-anchor="middle" x="2021" y="-354.5" font-family="Helvetica,sans-Serif" font-size="10.00">OMSimEventAction.hh</text>
</a>
</g>
</g>
<!-- Node2&#45;&gt;Node45 -->
<g id="edge40" class="edge">
<title>Node2&#45;&gt;Node45</title>
<path fill="none" stroke="midnightblue" d="M1583.65,-408.34C1650.73,-401.02 1806.16,-383.92 1947.99,-367.11"/>
<polygon fill="midnightblue" stroke="midnightblue" points="1948.66,-370.55 1958.18,-365.9 1947.83,-363.6 1948.66,-370.55"/>
</g>
<!-- Node46 -->
<g id="node36" class="node">
<title>Node46</title>
<g id="a_node36"><a xlink:href="_o_m_sim_tracking_action_8hh_source.html" target="_top" xlink:title=" ">
<polygon fill="none" stroke="black" points="2102,-347.5 2102,-366.5 2240,-366.5 2240,-347.5 2102,-347.5"/>
<text text-anchor="middle" x="2171" y="-354.5" font-family="Helvetica,sans-Serif" font-size="10.00">OMSimTrackingAction.hh</text>
</a>
</g>
</g>
<!-- Node2&#45;&gt;Node46 -->
<g id="edge41" class="edge">
<title>Node2&#45;&gt;Node46</title>
<path fill="none" stroke="midnightblue" d="M1583.65,-409.57C1667.41,-403.43 1892.21,-386.49 2091.58,-367.01"/>
<polygon fill="midnightblue" stroke="midnightblue" points="2092.04,-370.48 2101.65,-366.02 2091.36,-363.52 2092.04,-370.48"/>
</g>
<!-- Node48 -->
<g id="node38" class="node">
<title>Node48</title>
<g id="a_node38"><a xlink:href="_o_m_sim_stepping_action_8hh.html" target="_top" xlink:title="Defines OMSimSteppingAction.Currently it only checks for trapped photons.">
<polygon fill="none" stroke="black" points="2258,-347.5 2258,-366.5 2398,-366.5 2398,-347.5 2258,-347.5"/>
<text text-anchor="middle" x="2328" y="-354.5" font-family="Helvetica,sans-Serif" font-size="10.00">OMSimSteppingAction.hh</text>
</a>
</g>
</g>
<!-- Node2&#45;&gt;Node48 -->
<g id="edge43" class="edge">
<title>Node2&#45;&gt;Node48</title>
<path fill="none" stroke="midnightblue" d="M1583.51,-410.43C1683.01,-405.64 1985.61,-390.17 2247.72,-367.07"/>
<polygon fill="midnightblue" stroke="midnightblue" points="2248.16,-370.55 2257.81,-366.18 2247.54,-363.57 2248.16,-370.55"/>
</g>
<!-- Node50 -->
<g id="node40" class="node">
<title>Node50</title>
<g id="a_node40"><a xlink:href="_o_m_sim_u_iinterface_8hh.html" target="_top" xlink:title=" ">
<polygon fill="none" stroke="black" points="1332.5,-291.5 1332.5,-310.5 1453.5,-310.5 1453.5,-291.5 1332.5,-291.5"/>
<text text-anchor="middle" x="1393" y="-298.5" font-family="Helvetica,sans-Serif" font-size="10.00">OMSimUIinterface.hh</text>
</a>
</g>
</g>
<!-- Node2&#45;&gt;Node50 -->
<g id="edge45" class="edge">
<title>Node2&#45;&gt;Node50</title>
<path fill="none" stroke="midnightblue" d="M1549.91,-403.15C1549.29,-389.32 1546.06,-362.53 1531,-347 1513.19,-328.63 1487.81,-317.76 1463.66,-311.32"/>
<polygon fill="midnightblue" stroke="midnightblue" points="1464.31,-307.88 1453.77,-308.9 1462.65,-314.68 1464.31,-307.88"/>
</g>
<!-- Node55 -->
<g id="node43" class="node">
<title>Node55</title>
<g id="a_node43"><a xlink:title=" ">
<polygon fill="none" stroke="#bfbfbf" points="986.5,-347.5 986.5,-366.5 1107.5,-366.5 1107.5,-347.5 986.5,-347.5"/>
<text text-anchor="middle" x="1047" y="-354.5" font-family="Helvetica,sans-Serif" font-size="10.00">G4MTRunManager.hh</text>
</a>
</g>
</g>
<!-- Node2&#45;&gt;Node55 -->
<g id="edge50" class="edge">
<title>Node2&#45;&gt;Node55</title>
<path fill="none" stroke="midnightblue" d="M1516.48,-408.83C1445.14,-402.01 1272.78,-385.2 1117.76,-367.18"/>
<polygon fill="midnightblue" stroke="midnightblue" points="1117.91,-363.68 1107.57,-365.99 1117.1,-370.63 1117.91,-363.68"/>
</g>
<!-- Node56 -->
<g id="node44" class="node">
<title>Node56</title>
<g id="a_node44"><a xlink:title=" ">
<polygon fill="none" stroke="#bfbfbf" points="1125.5,-347.5 1125.5,-366.5 1232.5,-366.5 1232.5,-347.5 1125.5,-347.5"/>
<text text-anchor="middle" x="1179" y="-354.5" font-family="Helvetica,sans-Serif" font-size="10.00">G4VisExecutive.hh</text>
</a>
</g>
</g>
<!-- Node2&#45;&gt;Node56 -->
<g id="edge51" class="edge">
<title>Node2&#45;&gt;Node56</title>
<path fill="none" stroke="midnightblue" d="M1516.42,-407.11C1454.71,-398.13 1322.33,-378.86 1242.97,-367.31"/>
<polygon fill="midnightblue" stroke="midnightblue" points="1243.01,-363.78 1232.61,-365.8 1242,-370.71 1243.01,-363.78"/>
</g>
<!-- Node57 -->
<g id="node45" class="node">
<title>Node57</title>
<g id="a_node45"><a xlink:title=" ">
<polygon fill="none" stroke="#bfbfbf" points="1250.5,-347.5 1250.5,-366.5 1353.5,-366.5 1353.5,-347.5 1250.5,-347.5"/>
<text text-anchor="middle" x="1302" y="-354.5" font-family="Helvetica,sans-Serif" font-size="10.00">G4UIExecutive.hh</text>
</a>
</g>
</g>
<!-- Node2&#45;&gt;Node57 -->
<g id="edge52" class="edge">
<title>Node2&#45;&gt;Node57</title>
<path fill="none" stroke="midnightblue" d="M1516.3,-404.66C1473.76,-395.4 1400.27,-379.4 1351.4,-368.76"/>
<polygon fill="midnightblue" stroke="midnightblue" points="1351.88,-365.28 1341.36,-366.57 1350.39,-372.12 1351.88,-365.28"/>
</g>
<!-- Node58 -->
<g id="node46" class="node">
<title>Node58</title>
<g id="a_node46"><a xlink:title=" ">
<polygon fill="none" stroke="#bfbfbf" points="1372,-347.5 1372,-366.5 1522,-366.5 1522,-347.5 1372,-347.5"/>
<text text-anchor="middle" x="1447" y="-354.5" font-family="Helvetica,sans-Serif" font-size="10.00">boost/program_options.hpp</text>
</a>
</g>
</g>
<!-- Node2&#45;&gt;Node58 -->
<g id="edge53" class="edge">
<title>Node2&#45;&gt;Node58</title>
<path fill="none" stroke="midnightblue" d="M1533.45,-403.32C1517.01,-394.7 1491.57,-381.36 1472.53,-371.39"/>
<polygon fill="midnightblue" stroke="midnightblue" points="1473.99,-368.2 1463.51,-366.65 1470.74,-374.4 1473.99,-368.2"/>
</g>
<!-- Node4 -->
<g id="node4" class="node">
<title>Node4</title>
<g id="a_node4"><a xlink:href="_o_m_sim_optical_module_8hh_source.html" target="_top" xlink:title=" ">
<polygon fill="none" stroke="black" points="478.5,-291.5 478.5,-310.5 615.5,-310.5 615.5,-291.5 478.5,-291.5"/>
<text text-anchor="middle" x="547" y="-298.5" font-family="Helvetica,sans-Serif" font-size="10.00">OMSimOpticalModule.hh</text>
</a>
</g>
</g>
<!-- Node3&#45;&gt;Node4 -->
<g id="edge3" class="edge">
<title>Node3&#45;&gt;Node4</title>
<path fill="none" stroke="midnightblue" d="M724.57,-347.44C688.14,-338.12 629.77,-323.18 589.97,-313"/>
<polygon fill="midnightblue" stroke="midnightblue" points="590.83,-309.61 580.28,-310.52 589.1,-316.39 590.83,-309.61"/>
</g>
<!-- Node37 -->
<g id="node27" class="node">
<title>Node37</title>
<g id="a_node27"><a xlink:title=" ">
<polygon fill="none" stroke="#bfbfbf" points="634,-291.5 634,-310.5 696,-310.5 696,-291.5 634,-291.5"/>
<text text-anchor="middle" x="665" y="-298.5" font-family="Helvetica,sans-Serif" font-size="10.00">G4Orb.hh</text>
</a>
</g>
</g>
<!-- Node3&#45;&gt;Node37 -->
<g id="edge30" class="edge">
<title>Node3&#45;&gt;Node37</title>
<path fill="none" stroke="midnightblue" d="M743.06,-347.32C728.41,-338.82 705.87,-325.73 688.76,-315.8"/>
<polygon fill="midnightblue" stroke="midnightblue" points="690.31,-312.65 679.9,-310.65 686.8,-318.7 690.31,-312.65"/>
</g>
<!-- Node38 -->
<g id="node28" class="node">
<title>Node38</title>
<g id="a_node28"><a xlink:title=" ">
<polygon fill="none" stroke="#bfbfbf" points="714,-291.5 714,-310.5 892,-310.5 892,-291.5 714,-291.5"/>
<text text-anchor="middle" x="803" y="-298.5" font-family="Helvetica,sans-Serif" font-size="10.00">G4VUserDetectorConstruction.hh</text>
</a>
</g>
</g>
<!-- Node3&#45;&gt;Node38 -->
<g id="edge31" class="edge">
<title>Node3&#45;&gt;Node38</title>
<path fill="none" stroke="midnightblue" d="M765.43,-347.08C771.85,-339.38 781.31,-328.03 789.12,-318.65"/>
<polygon fill="midnightblue" stroke="midnightblue" points="791.99,-320.67 795.71,-310.75 786.62,-316.19 791.99,-320.67"/>
</g>
<!-- Node5 -->
<g id="node5" class="node">
<title>Node5</title>
<g id="a_node5"><a xlink:href="abc_detector_component_8hh.html" target="_top" xlink:title="Provides helper base class abcDetectorComponent for constructing and managing detector components in ...">
<polygon fill="none" stroke="black" points="377.5,-179.5 377.5,-198.5 524.5,-198.5 524.5,-179.5 377.5,-179.5"/>
<text text-anchor="middle" x="451" y="-186.5" font-family="Helvetica,sans-Serif" font-size="10.00">abcDetectorComponent.hh</text>
</a>
</g>
</g>
<!-- Node4&#45;&gt;Node5 -->
<g id="edge4" class="edge">
<title>Node4&#45;&gt;Node5</title>
<path fill="none" stroke="midnightblue" d="M539.05,-291.46C530.71,-282.47 517.3,-267.87 506,-255 491.76,-238.78 475.87,-219.92 464.85,-206.7"/>
<polygon fill="midnightblue" stroke="midnightblue" points="467.46,-204.37 458.37,-198.92 462.08,-208.85 467.46,-204.37"/>
</g>
<!-- Node4&#45;&gt;Node26 -->
<g id="edge15" class="edge">
<title>Node4&#45;&gt;Node26</title>
<path fill="none" stroke="midnightblue" d="M606.1,-291.44C672.67,-281.81 780.72,-266.16 851.08,-255.98"/>
<polygon fill="midnightblue" stroke="midnightblue" points="851.78,-259.41 861.17,-254.52 850.78,-252.49 851.78,-259.41"/>
</g>
<!-- Node34 -->
<g id="node26" class="node">
<title>Node34</title>
<g id="a_node26"><a xlink:href="_o_m_sim_p_m_t_construction_8hh.html" target="_top" xlink:title="Construction of the PMTs.">
<polygon fill="none" stroke="red" points="515.5,-235.5 515.5,-254.5 664.5,-254.5 664.5,-235.5 515.5,-235.5"/>
<text text-anchor="middle" x="590" y="-242.5" font-family="Helvetica,sans-Serif" font-size="10.00">OMSimPMTConstruction.hh</text>
</a>
</g>
</g>
<!-- Node4&#45;&gt;Node34 -->
<g id="edge26" class="edge">
<title>Node4&#45;&gt;Node34</title>
<path fill="none" stroke="midnightblue" d="M554.1,-291.08C560.24,-283.38 569.27,-272.03 576.74,-262.65"/>
<polygon fill="midnightblue" stroke="midnightblue" points="579.54,-264.75 583.03,-254.75 574.06,-260.39 579.54,-264.75"/>
</g>
<!-- Node6 -->
<g id="node6" class="node">
<title>Node6</title>
<g id="a_node6"><a xlink:href="_o_m_sim_input_data_8hh.html" target="_top" xlink:title="Definition of ParameterTable and OMSimInputData.">
<polygon fill="none" stroke="red" points="523.5,-123.5 523.5,-142.5 638.5,-142.5 638.5,-123.5 523.5,-123.5"/>
<text text-anchor="middle" x="581" y="-130.5" font-family="Helvetica,sans-Serif" font-size="10.00">OMSimInputData.hh</text>
</a>
</g>
</g>
<!-- Node5&#45;&gt;Node6 -->
<g id="edge5" class="edge">
<title>Node5&#45;&gt;Node6</title>
<path fill="none" stroke="midnightblue" d="M471.6,-179.44C492.99,-170.56 526.68,-156.56 551.02,-146.45"/>
<polygon fill="midnightblue" stroke="midnightblue" points="552.61,-149.58 560.5,-142.52 549.92,-143.12 552.61,-149.58"/>
</g>
<!-- Node22 -->
<g id="node12" class="node">
<title>Node22</title>
<g id="a_node12"><a xlink:title=" ">
<polygon fill="none" stroke="#bfbfbf" points="398.5,-123.5 398.5,-142.5 505.5,-142.5 505.5,-123.5 398.5,-123.5"/>
<text text-anchor="middle" x="452" y="-130.5" font-family="Helvetica,sans-Serif" font-size="10.00">G4Transform3D.hh</text>
</a>
</g>
</g>
<!-- Node5&#45;&gt;Node22 -->
<g id="edge11" class="edge">
<title>Node5&#45;&gt;Node22</title>
<path fill="none" stroke="midnightblue" d="M451.17,-179.08C451.3,-172.01 451.48,-161.86 451.65,-152.99"/>
<polygon fill="midnightblue" stroke="midnightblue" points="455.15,-152.81 451.84,-142.75 448.15,-152.68 455.15,-152.81"/>
</g>
<!-- Node23 -->
<g id="node13" class="node">
<title>Node23</title>
<g id="a_node13"><a xlink:title=" ">
<polygon fill="none" stroke="#bfbfbf" points="0,-123.5 0,-142.5 108,-142.5 108,-123.5 0,-123.5"/>
<text text-anchor="middle" x="54" y="-130.5" font-family="Helvetica,sans-Serif" font-size="10.00">G4VisAttributes.hh</text>
</a>
</g>
</g>
<!-- Node5&#45;&gt;Node23 -->
<g id="edge12" class="edge">
<title>Node5&#45;&gt;Node23</title>
<path fill="none" stroke="midnightblue" d="M386.64,-179.48C321.53,-170.83 217.7,-156.94 118.21,-143.16"/>
<polygon fill="midnightblue" stroke="midnightblue" points="118.68,-139.69 108.29,-141.78 117.72,-146.62 118.68,-139.69"/>
</g>
<!-- Node24 -->
<g id="node14" class="node">
<title>Node24</title>
<g id="a_node14"><a xlink:title=" ">
<polygon fill="none" stroke="#bfbfbf" points="126.5,-123.5 126.5,-142.5 251.5,-142.5 251.5,-123.5 126.5,-123.5"/>
<text text-anchor="middle" x="189" y="-130.5" font-family="Helvetica,sans-Serif" font-size="10.00">G4SubtractionSolid.hh</text>
</a>
</g>
</g>
<!-- Node5&#45;&gt;Node24 -->
<g id="edge13" class="edge">
<title>Node5&#45;&gt;Node24</title>
<path fill="none" stroke="midnightblue" d="M409.49,-179.44C363.59,-169.98 289.62,-154.74 240.17,-144.55"/>
<polygon fill="midnightblue" stroke="midnightblue" points="240.82,-141.11 230.32,-142.52 239.41,-147.96 240.82,-141.11"/>
</g>
<!-- Node25 -->
<g id="node15" class="node">
<title>Node25</title>
<g id="a_node15"><a xlink:title=" ">
<polygon fill="none" stroke="#bfbfbf" points="270,-123.5 270,-142.5 380,-142.5 380,-123.5 270,-123.5"/>
<text text-anchor="middle" x="325" y="-130.5" font-family="Helvetica,sans-Serif" font-size="10.00">G4PVPlacement.hh</text>
</a>
</g>
</g>
<!-- Node5&#45;&gt;Node25 -->
<g id="edge14" class="edge">
<title>Node5&#45;&gt;Node25</title>
<path fill="none" stroke="midnightblue" d="M431.03,-179.44C410.39,-170.6 377.94,-156.69 354.37,-146.59"/>
<polygon fill="midnightblue" stroke="midnightblue" points="355.44,-143.24 344.87,-142.52 352.68,-149.67 355.44,-143.24"/>
</g>
<!-- Node7 -->
<g id="node7" class="node">
<title>Node7</title>
<g id="a_node7"><a xlink:href="_o_m_sim_logger_8hh_source.html" target="_top" xlink:title=" ">
<polygon fill="none" stroke="red" points="1194.5,-67.5 1194.5,-86.5 1293.5,-86.5 1293.5,-67.5 1194.5,-67.5"/>
<text text-anchor="middle" x="1244" y="-74.5" font-family="Helvetica,sans-Serif" font-size="10.00">OMSimLogger.hh</text>
</a>
</g>
</g>
<!-- Node6&#45;&gt;Node7 -->
<g id="edge6" class="edge">
<title>Node6&#45;&gt;Node7</title>
<path fill="none" stroke="midnightblue" d="M638.76,-127C654.11,-125.68 670.68,-124.27 686,-123 867.43,-107.91 1082.1,-90.81 1184.23,-82.72"/>
<polygon fill="midnightblue" stroke="midnightblue" points="1184.66,-86.2 1194.35,-81.92 1184.11,-79.22 1184.66,-86.2"/>
</g>
<!-- Node20 -->
<g id="node11" class="node">
<title>Node20</title>
<g id="a_node11"><a xlink:title=" ">
<polygon fill="none" stroke="#bfbfbf" points="564.5,-67.5 564.5,-86.5 683.5,-86.5 683.5,-67.5 564.5,-67.5"/>
<text text-anchor="middle" x="624" y="-74.5" font-family="Helvetica,sans-Serif" font-size="10.00">G4SystemOfUnits.hh</text>
</a>
</g>
</g>
<!-- Node6&#45;&gt;Node20 -->
<g id="edge10" class="edge">
<title>Node6&#45;&gt;Node20</title>
<path fill="none" stroke="midnightblue" d="M588.1,-123.08C594.24,-115.38 603.27,-104.03 610.74,-94.65"/>
<polygon fill="midnightblue" stroke="midnightblue" points="613.54,-96.75 617.03,-86.75 608.06,-92.39 613.54,-96.75"/>
</g>
<!-- Node8 -->
<g id="node8" class="node">
<title>Node8</title>
<g id="a_node8"><a xlink:title=" ">
<polygon fill="none" stroke="#bfbfbf" points="1077.5,-6 1077.5,-25 1170.5,-25 1170.5,-6 1077.5,-6"/>
<text text-anchor="middle" x="1124" y="-13" font-family="Helvetica,sans-Serif" font-size="10.00">spdlog/spdlog.h</text>
</a>
</g>
</g>
<!-- Node7&#45;&gt;Node8 -->
<g id="edge7" class="edge">
<title>Node7&#45;&gt;Node8</title>
<path fill="none" stroke="midnightblue" d="M1226.81,-67.48C1206.76,-57.53 1173.4,-40.99 1150.14,-29.46"/>
<polygon fill="midnightblue" stroke="midnightblue" points="1151.68,-26.32 1141.16,-25.01 1148.57,-32.59 1151.68,-26.32"/>
</g>
<!-- Node9 -->
<g id="node9" class="node">
<title>Node9</title>
<g id="a_node9"><a xlink:title=" ">
<polygon fill="none" stroke="#bfbfbf" points="1188.5,-0.5 1188.5,-30.5 1299.5,-30.5 1299.5,-0.5 1188.5,-0.5"/>
<text text-anchor="start" x="1196.5" y="-18.5" font-family="Helvetica,sans-Serif" font-size="10.00">spdlog/sinks/stdout</text>
<text text-anchor="middle" x="1244" y="-7.5" font-family="Helvetica,sans-Serif" font-size="10.00">_color_sinks.h</text>
</a>
</g>
</g>
<!-- Node7&#45;&gt;Node9 -->
<g id="edge8" class="edge">
<title>Node7&#45;&gt;Node9</title>
<path fill="none" stroke="midnightblue" d="M1244,-67.48C1244,-60.47 1244,-50.19 1244,-40.7"/>
<polygon fill="midnightblue" stroke="midnightblue" points="1247.5,-40.52 1244,-30.52 1240.5,-40.52 1247.5,-40.52"/>
</g>
<!-- Node10 -->
<g id="node10" class="node">
<title>Node10</title>
<g id="a_node10"><a xlink:title=" ">
<polygon fill="none" stroke="#bfbfbf" points="1318,-6 1318,-25 1376,-25 1376,-6 1318,-6"/>
<text text-anchor="middle" x="1347" y="-13" font-family="Helvetica,sans-Serif" font-size="10.00">memory</text>
</a>
</g>
</g>
<!-- Node7&#45;&gt;Node10 -->
<g id="edge9" class="edge">
<title>Node7&#45;&gt;Node10</title>
<path fill="none" stroke="midnightblue" d="M1258.76,-67.48C1275.66,-57.71 1303.58,-41.58 1323.49,-30.08"/>
<polygon fill="midnightblue" stroke="midnightblue" points="1325.36,-33.04 1332.27,-25.01 1321.86,-26.98 1325.36,-33.04"/>
</g>
<!-- Node27 -->
<g id="node17" class="node">
<title>Node27</title>
<g id="a_node17"><a xlink:href="_o_m_sim_p_m_t_response_8hh.html" target="_top" xlink:title="Simulation of PMT response.">
<polygon fill="none" stroke="black" points="664.5,-179.5 664.5,-198.5 799.5,-198.5 799.5,-179.5 664.5,-179.5"/>
<text text-anchor="middle" x="732" y="-186.5" font-family="Helvetica,sans-Serif" font-size="10.00">OMSimPMTResponse.hh</text>
</a>
</g>
</g>
<!-- Node26&#45;&gt;Node27 -->
<g id="edge16" class="edge">
<title>Node26&#45;&gt;Node27</title>
<path fill="none" stroke="midnightblue" d="M890.21,-235.44C858.17,-226.24 807.07,-211.56 771.65,-201.39"/>
<polygon fill="midnightblue" stroke="midnightblue" points="772.23,-197.91 761.65,-198.52 770.29,-204.64 772.23,-197.91"/>
</g>
<!-- Node32 -->
<g id="node22" class="node">
<title>Node32</title>
<g id="a_node22"><a xlink:title=" ">
<polygon fill="none" stroke="#bfbfbf" points="930.5,-179.5 930.5,-198.5 1033.5,-198.5 1033.5,-179.5 930.5,-179.5"/>
<text text-anchor="middle" x="982" y="-186.5" font-family="Helvetica,sans-Serif" font-size="10.00">G4ThreeVector.hh</text>
</a>
</g>
</g>
<!-- Node26&#45;&gt;Node32 -->
<g id="edge22" class="edge">
<title>Node26&#45;&gt;Node32</title>
<path fill="none" stroke="midnightblue" d="M929.96,-235.32C939.13,-227.34 952.94,-215.31 964.03,-205.65"/>
<polygon fill="midnightblue" stroke="midnightblue" points="966.62,-208.04 971.86,-198.83 962.02,-202.76 966.62,-208.04"/>
</g>
<!-- Node33 -->
<g id="node23" class="node">
<title>Node33</title>
<g id="a_node23"><a xlink:title=" ">
<polygon fill="none" stroke="#bfbfbf" points="1160.5,-179.5 1160.5,-198.5 1215.5,-198.5 1215.5,-179.5 1160.5,-179.5"/>
<text text-anchor="middle" x="1188" y="-186.5" font-family="Helvetica,sans-Serif" font-size="10.00">fstream</text>
</a>
</g>
</g>
<!-- Node26&#45;&gt;Node33 -->
<g id="edge23" class="edge">
<title>Node26&#45;&gt;Node33</title>
<path fill="none" stroke="midnightblue" d="M967.03,-235.5C1011.7,-227.27 1080.97,-214.14 1150.36,-199.06"/>
<polygon fill="midnightblue" stroke="midnightblue" points="1151.13,-202.47 1160.15,-196.92 1149.63,-195.64 1151.13,-202.47"/>
</g>
<!-- Node18 -->
<g id="node24" class="node">
<title>Node18</title>
<g id="a_node24"><a xlink:title=" ">
<polygon fill="none" stroke="#bfbfbf" points="1052,-179.5 1052,-198.5 1142,-198.5 1142,-179.5 1052,-179.5"/>
<text text-anchor="middle" x="1097" y="-186.5" font-family="Helvetica,sans-Serif" font-size="10.00">G4AutoLock.hh</text>
</a>
</g>
</g>
<!-- Node26&#45;&gt;Node18 -->
<g id="edge24" class="edge">
<title>Node26&#45;&gt;Node18</title>
<path fill="none" stroke="midnightblue" d="M948.05,-235.44C978.08,-226.28 1025.91,-211.69 1059.24,-201.52"/>
<polygon fill="midnightblue" stroke="midnightblue" points="1060.54,-204.78 1069.09,-198.52 1058.5,-198.09 1060.54,-204.78"/>
</g>
<!-- Node19 -->
<g id="node25" class="node">
<title>Node19</title>
<g id="a_node25"><a xlink:title=" ">
<polygon fill="none" stroke="#bfbfbf" points="818,-179.5 818,-198.5 912,-198.5 912,-179.5 818,-179.5"/>
<text text-anchor="middle" x="865" y="-186.5" font-family="Helvetica,sans-Serif" font-size="10.00">G4Threading.hh</text>
</a>
</g>
</g>
<!-- Node26&#45;&gt;Node19 -->
<g id="edge25" class="edge">
<title>Node26&#45;&gt;Node19</title>
<path fill="none" stroke="midnightblue" d="M910.92,-235.08C902.83,-227.14 890.8,-215.34 881.09,-205.8"/>
<polygon fill="midnightblue" stroke="midnightblue" points="883.5,-203.26 873.91,-198.75 878.6,-208.25 883.5,-203.26"/>
</g>
<!-- Node27&#45;&gt;Node20 -->
<g id="edge17" class="edge">
<title>Node27&#45;&gt;Node20</title>
<path fill="none" stroke="midnightblue" d="M723.09,-179.46C713.76,-170.48 698.72,-155.88 686,-143 669.67,-126.46 651.33,-107.14 638.87,-93.89"/>
<polygon fill="midnightblue" stroke="midnightblue" points="641.33,-91.4 631.93,-86.5 636.22,-96.19 641.33,-91.4"/>
</g>
<!-- Node28 -->
<g id="node18" class="node">
<title>Node28</title>
<g id="a_node18"><a xlink:title=" ">
<polygon fill="none" stroke="#bfbfbf" points="695.5,-123.5 695.5,-142.5 768.5,-142.5 768.5,-123.5 695.5,-123.5"/>
<text text-anchor="middle" x="732" y="-130.5" font-family="Helvetica,sans-Serif" font-size="10.00">G4Types.hh</text>
</a>
</g>
</g>
<!-- Node27&#45;&gt;Node28 -->
<g id="edge18" class="edge">
<title>Node27&#45;&gt;Node28</title>
<path fill="none" stroke="midnightblue" d="M732,-179.08C732,-172.01 732,-161.86 732,-152.99"/>
<polygon fill="midnightblue" stroke="midnightblue" points="735.5,-152.75 732,-142.75 728.5,-152.75 735.5,-152.75"/>
</g>
<!-- Node29 -->
<g id="node19" class="node">
<title>Node29</title>
<g id="a_node19"><a xlink:title=" ">
<polygon fill="none" stroke="#bfbfbf" points="787,-123.5 787,-142.5 825,-142.5 825,-123.5 787,-123.5"/>
<text text-anchor="middle" x="806" y="-130.5" font-family="Helvetica,sans-Serif" font-size="10.00">map</text>
</a>
</g>
</g>
<!-- Node27&#45;&gt;Node29 -->
<g id="edge19" class="edge">
<title>Node27&#45;&gt;Node29</title>
<path fill="none" stroke="midnightblue" d="M743.89,-179.32C755.15,-171.11 772.29,-158.6 785.71,-148.81"/>
<polygon fill="midnightblue" stroke="midnightblue" points="787.88,-151.56 793.89,-142.83 783.75,-145.9 787.88,-151.56"/>
</g>
<!-- Node30 -->
<g id="node20" class="node">
<title>Node30</title>
<g id="a_node20"><a xlink:title=" ">
<polygon fill="none" stroke="#bfbfbf" points="843.5,-123.5 843.5,-142.5 904.5,-142.5 904.5,-123.5 843.5,-123.5"/>
<text text-anchor="middle" x="874" y="-130.5" font-family="Helvetica,sans-Serif" font-size="10.00">TGraph.h</text>
</a>
</g>
</g>
<!-- Node27&#45;&gt;Node30 -->
<g id="edge20" class="edge">
<title>Node27&#45;&gt;Node30</title>
<path fill="none" stroke="midnightblue" d="M754.5,-179.44C778.08,-170.48 815.32,-156.31 841.96,-146.18"/>
<polygon fill="midnightblue" stroke="midnightblue" points="843.5,-149.34 851.6,-142.52 841.01,-142.8 843.5,-149.34"/>
</g>
<!-- Node31 -->
<g id="node21" class="node">
<title>Node31</title>
<g id="a_node21"><a xlink:title=" ">
<polygon fill="none" stroke="#bfbfbf" points="922.5,-123.5 922.5,-142.5 975.5,-142.5 975.5,-123.5 922.5,-123.5"/>
<text text-anchor="middle" x="949" y="-130.5" font-family="Helvetica,sans-Serif" font-size="10.00">TH2D.h</text>
</a>
</g>
</g>
<!-- Node27&#45;&gt;Node31 -->
<g id="edge21" class="edge">
<title>Node27&#45;&gt;Node31</title>
<path fill="none" stroke="midnightblue" d="M766.37,-179.47C800.78,-170.92 855.54,-157.32 912.38,-143.15"/>
<polygon fill="midnightblue" stroke="midnightblue" points="913.41,-146.5 922.26,-140.69 911.71,-139.71 913.41,-146.5"/>
</g>
<!-- Node34&#45;&gt;Node5 -->
<g id="edge27" class="edge">
<title>Node34&#45;&gt;Node5</title>
<path fill="none" stroke="midnightblue" d="M567.98,-235.44C544.9,-226.48 508.44,-212.31 482.36,-202.18"/>
<polygon fill="midnightblue" stroke="midnightblue" points="483.51,-198.88 472.92,-198.52 480.98,-205.4 483.51,-198.88"/>
</g>
<!-- Node34&#45;&gt;Node27 -->
<g id="edge29" class="edge">
<title>Node34&#45;&gt;Node27</title>
<path fill="none" stroke="midnightblue" d="M612.5,-235.44C636.08,-226.48 673.32,-212.31 699.96,-202.18"/>
<polygon fill="midnightblue" stroke="midnightblue" points="701.5,-205.34 709.6,-198.52 699.01,-198.8 701.5,-205.34"/>
</g>
<!-- Node34&#45;&gt;Node34 -->
<g id="edge28" class="edge">
<title>Node34&#45;&gt;Node34</title>
<path fill="none" stroke="midnightblue" d="M629.45,-254.53C656.26,-257.31 682.5,-254.13 682.5,-245 682.5,-237.01 662.41,-233.58 639.43,-234.71"/>
<polygon fill="midnightblue" stroke="midnightblue" points="639.15,-231.22 629.45,-235.47 639.69,-238.2 639.15,-231.22"/>
</g>
<!-- Node41&#45;&gt;Node7 -->
<g id="edge37" class="edge">
<title>Node41&#45;&gt;Node7</title>
<path fill="none" stroke="midnightblue" d="M1566.91,-291.44C1561.71,-277.99 1550.06,-251.73 1533,-235 1457.07,-160.56 1338.68,-111.34 1279.78,-90.04"/>
<polygon fill="midnightblue" stroke="midnightblue" points="1280.77,-86.68 1270.18,-86.63 1278.43,-93.27 1280.77,-86.68"/>
</g>
<!-- Node41&#45;&gt;Node26 -->
<g id="edge36" class="edge">
<title>Node41&#45;&gt;Node26</title>
<path fill="none" stroke="midnightblue" d="M1511.99,-295.09C1495.81,-293.74 1478.22,-292.3 1462,-291 1255.99,-274.54 1201.56,-276.15 991.67,-255.02"/>
<polygon fill="midnightblue" stroke="midnightblue" points="991.85,-251.52 981.55,-253.99 991.15,-258.48 991.85,-251.52"/>
</g>
<!-- Node42 -->
<g id="node32" class="node">
<title>Node42</title>
<g id="a_node32"><a xlink:title=" ">
<polygon fill="none" stroke="#bfbfbf" points="1580.5,-235.5 1580.5,-254.5 1697.5,-254.5 1697.5,-235.5 1580.5,-235.5"/>
<text text-anchor="middle" x="1639" y="-242.5" font-family="Helvetica,sans-Serif" font-size="10.00">G4UserRunAction.hh</text>
</a>
</g>
</g>
<!-- Node41&#45;&gt;Node42 -->
<g id="edge35" class="edge">
<title>Node41&#45;&gt;Node42</title>
<path fill="none" stroke="midnightblue" d="M1581.09,-291.32C1591.49,-283.18 1607.26,-270.84 1619.72,-261.09"/>
<polygon fill="midnightblue" stroke="midnightblue" points="1621.99,-263.75 1627.71,-254.83 1617.68,-258.24 1621.99,-263.75"/>
</g>
<!-- Node43 -->
<g id="node33" class="node">
<title>Node43</title>
<g id="a_node33"><a xlink:title=" ">
<polygon fill="none" stroke="#bfbfbf" points="1716,-235.5 1716,-254.5 1802,-254.5 1802,-235.5 1716,-235.5"/>
<text text-anchor="middle" x="1759" y="-242.5" font-family="Helvetica,sans-Serif" font-size="10.00">Randomize.hh</text>
</a>
</g>
</g>
<!-- Node41&#45;&gt;Node43 -->
<g id="edge38" class="edge">
<title>Node41&#45;&gt;Node43</title>
<path fill="none" stroke="midnightblue" d="M1599.95,-291.44C1632.16,-282.24 1683.53,-267.56 1719.14,-257.39"/>
<polygon fill="midnightblue" stroke="midnightblue" points="1720.54,-260.63 1729.19,-254.52 1718.62,-253.9 1720.54,-260.63"/>
</g>
<!-- Node44 -->
<g id="node34" class="node">
<title>Node44</title>
<g id="a_node34"><a xlink:title=" ">
<polygon fill="none" stroke="#bfbfbf" points="1460,-235.5 1460,-254.5 1524,-254.5 1524,-235.5 1460,-235.5"/>
<text text-anchor="middle" x="1492" y="-242.5" font-family="Helvetica,sans-Serif" font-size="10.00">G4Run.hh</text>
</a>
</g>
</g>
<!-- Node41&#45;&gt;Node44 -->
<g id="edge39" class="edge">
<title>Node41&#45;&gt;Node44</title>
<path fill="none" stroke="midnightblue" d="M1557.47,-291.32C1545.41,-282.98 1526.97,-270.21 1512.73,-260.35"/>
<polygon fill="midnightblue" stroke="midnightblue" points="1514.72,-257.47 1504.5,-254.65 1510.73,-263.22 1514.72,-257.47"/>
</g>
<!-- Node47 -->
<g id="node37" class="node">
<title>Node47</title>
<g id="a_node37"><a xlink:title=" ">
<polygon fill="none" stroke="#bfbfbf" points="2100.5,-291.5 2100.5,-310.5 2239.5,-310.5 2239.5,-291.5 2100.5,-291.5"/>
<text text-anchor="middle" x="2170" y="-298.5" font-family="Helvetica,sans-Serif" font-size="10.00">G4UserTrackingAction.hh</text>
</a>
</g>
</g>
<!-- Node46&#45;&gt;Node47 -->
<g id="edge42" class="edge">
<title>Node46&#45;&gt;Node47</title>
<path fill="none" stroke="midnightblue" d="M2170.83,-347.08C2170.7,-340.01 2170.52,-329.86 2170.35,-320.99"/>
<polygon fill="midnightblue" stroke="midnightblue" points="2173.85,-320.68 2170.16,-310.75 2166.85,-320.81 2173.85,-320.68"/>
</g>
<!-- Node49 -->
<g id="node39" class="node">
<title>Node49</title>
<g id="a_node39"><a xlink:title=" ">
<polygon fill="none" stroke="#bfbfbf" points="2257.5,-291.5 2257.5,-310.5 2398.5,-310.5 2398.5,-291.5 2257.5,-291.5"/>
<text text-anchor="middle" x="2328" y="-298.5" font-family="Helvetica,sans-Serif" font-size="10.00">G4UserSteppingAction.hh</text>
</a>
</g>
</g>
<!-- Node48&#45;&gt;Node49 -->
<g id="edge44" class="edge">
<title>Node48&#45;&gt;Node49</title>
<path fill="none" stroke="midnightblue" d="M2328,-347.08C2328,-340.01 2328,-329.86 2328,-320.99"/>
<polygon fill="midnightblue" stroke="midnightblue" points="2331.5,-320.75 2328,-310.75 2324.5,-320.75 2331.5,-320.75"/>
</g>
<!-- Node51 -->
<g id="node41" class="node">
<title>Node51</title>
<g id="a_node41"><a xlink:href="_o_m_sim_command_args_table_8hh.html" target="_top" xlink:title="Definition of the OMSimCommandArgsTable singleton class, which controls user args.">
<polygon fill="none" stroke="red" points="1162,-235.5 1162,-254.5 1326,-254.5 1326,-235.5 1162,-235.5"/>
<text text-anchor="middle" x="1244" y="-242.5" font-family="Helvetica,sans-Serif" font-size="10.00">OMSimCommandArgsTable.hh</text>
</a>
</g>
</g>
<!-- Node50&#45;&gt;Node51 -->
<g id="edge46" class="edge">
<title>Node50&#45;&gt;Node51</title>
<path fill="none" stroke="midnightblue" d="M1369.39,-291.44C1344.54,-282.44 1305.23,-268.19 1277.25,-258.05"/>
<polygon fill="midnightblue" stroke="midnightblue" points="1278.09,-254.63 1267.5,-254.52 1275.71,-261.21 1278.09,-254.63"/>
</g>
<!-- Node54 -->
<g id="node42" class="node">
<title>Node54</title>
<g id="a_node42"><a xlink:title=" ">
<polygon fill="none" stroke="#bfbfbf" points="1344,-235.5 1344,-254.5 1442,-254.5 1442,-235.5 1344,-235.5"/>
<text text-anchor="middle" x="1393" y="-242.5" font-family="Helvetica,sans-Serif" font-size="10.00">G4UImanager.hh</text>
</a>
</g>
</g>
<!-- Node50&#45;&gt;Node54 -->
<g id="edge49" class="edge">
<title>Node50&#45;&gt;Node54</title>
<path fill="none" stroke="midnightblue" d="M1393,-291.08C1393,-284.01 1393,-273.86 1393,-264.99"/>
<polygon fill="midnightblue" stroke="midnightblue" points="1396.5,-264.75 1393,-254.75 1389.5,-264.75 1396.5,-264.75"/>
</g>
<!-- Node51&#45;&gt;Node7 -->
<g id="edge47" class="edge">
<title>Node51&#45;&gt;Node7</title>
<path fill="none" stroke="midnightblue" d="M1244,-235.08C1244,-208.95 1244,-132.21 1244,-96.58"/>
<polygon fill="midnightblue" stroke="midnightblue" points="1247.5,-96.57 1244,-86.57 1240.5,-96.57 1247.5,-96.57"/>
</g>
<!-- Node51&#45;&gt;Node33 -->
<g id="edge48" class="edge">
<title>Node51&#45;&gt;Node33</title>
<path fill="none" stroke="midnightblue" d="M1235,-235.32C1226.81,-227.42 1214.49,-215.55 1204.53,-205.94"/>
<polygon fill="midnightblue" stroke="midnightblue" points="1206.79,-203.26 1197.16,-198.83 1201.93,-208.29 1206.79,-203.26"/>
</g>
<!-- Node59&#45;&gt;Node4 -->
<g id="edge55" class="edge">
<title>Node59&#45;&gt;Node4</title>
<path fill="none" stroke="midnightblue" d="M422.59,-403.37C445.46,-384.73 499.71,-340.53 528.43,-317.13"/>
<polygon fill="midnightblue" stroke="midnightblue" points="530.91,-319.62 536.46,-310.59 526.49,-314.19 530.91,-319.62"/>
</g>
<!-- Node60 -->
<g id="node48" class="node">
<title>Node60</title>
<g id="a_node48"><a xlink:title=" ">
<polygon fill="none" stroke="#bfbfbf" points="316.5,-347.5 316.5,-366.5 383.5,-366.5 383.5,-347.5 316.5,-347.5"/>
<text text-anchor="middle" x="350" y="-354.5" font-family="Helvetica,sans-Serif" font-size="10.00">globals.hh</text>
</a>
</g>
</g>
<!-- Node59&#45;&gt;Node60 -->
<g id="edge56" class="edge">
<title>Node59&#45;&gt;Node60</title>
<path fill="none" stroke="midnightblue" d="M402.04,-403.32C392.87,-395.34 379.06,-383.31 367.97,-373.65"/>
<polygon fill="midnightblue" stroke="midnightblue" points="369.98,-370.76 360.14,-366.83 365.38,-376.04 369.98,-370.76"/>
</g>
<!-- Node61&#45;&gt;Node32 -->
<g id="edge59" class="edge">
<title>Node61&#45;&gt;Node32</title>
<path fill="none" stroke="midnightblue" d="M1057.54,-235.32C1043.5,-226.9 1021.95,-213.97 1005.46,-204.07"/>
<polygon fill="midnightblue" stroke="midnightblue" points="1006.8,-200.8 996.42,-198.65 1003.2,-206.8 1006.8,-200.8"/>
</g>
<!-- Node61&#45;&gt;Node33 -->
<g id="edge60" class="edge">
<title>Node61&#45;&gt;Node33</title>
<path fill="none" stroke="midnightblue" d="M1090.38,-235.44C1109.22,-226.68 1138.73,-212.94 1160.38,-202.86"/>
<polygon fill="midnightblue" stroke="midnightblue" points="1162.12,-205.91 1169.71,-198.52 1159.16,-199.56 1162.12,-205.91"/>
</g>
<!-- Node61&#45;&gt;Node18 -->
<g id="edge61" class="edge">
<title>Node61&#45;&gt;Node18</title>
<path fill="none" stroke="midnightblue" d="M1076.13,-235.08C1079.51,-227.77 1084.42,-217.18 1088.62,-208.1"/>
<polygon fill="midnightblue" stroke="midnightblue" points="1091.92,-209.3 1092.95,-198.75 1085.57,-206.36 1091.92,-209.3"/>
</g>
<!-- Node62&#45;&gt;Node3 -->
<g id="edge65" class="edge">
<title>Node62&#45;&gt;Node3</title>
<path fill="none" stroke="midnightblue" d="M662.91,-403.44C681.25,-394.68 710.01,-380.94 731.09,-370.86"/>
<polygon fill="midnightblue" stroke="midnightblue" points="732.67,-373.99 740.18,-366.52 729.65,-367.67 732.67,-373.99"/>
</g>
<!-- Node62&#45;&gt;Node4 -->
<g id="edge63" class="edge">
<title>Node62&#45;&gt;Node4</title>
<path fill="none" stroke="midnightblue" d="M637.31,-403.37C620.99,-385.05 582.68,-342.05 561.58,-318.36"/>
<polygon fill="midnightblue" stroke="midnightblue" points="563.92,-315.73 554.65,-310.59 558.69,-320.39 563.92,-315.73"/>
</g>
<!-- Node62&#45;&gt;Node5 -->
<g id="edge64" class="edge">
<title>Node62&#45;&gt;Node5</title>
<path fill="none" stroke="midnightblue" d="M614.07,-403.47C573.63,-390.59 503.85,-362.07 469,-311 447.82,-279.96 447.32,-234.04 449.03,-208.63"/>
<polygon fill="midnightblue" stroke="midnightblue" points="452.53,-208.78 449.9,-198.52 445.55,-208.18 452.53,-208.78"/>
</g>
<!-- Node62&#45;&gt;Node37 -->
<g id="edge66" class="edge">
<title>Node62&#45;&gt;Node37</title>
<path fill="none" stroke="midnightblue" d="M646.57,-403.37C649.8,-385.62 657.24,-344.67 661.62,-320.6"/>
<polygon fill="midnightblue" stroke="midnightblue" points="665.09,-321.06 663.44,-310.59 658.21,-319.8 665.09,-321.06"/>
</g>
</g>
</svg>
