<?xml version="1.0" encoding="UTF-8" standalone="no"?>
<!DOCTYPE svg PUBLIC "-//W3C//DTD SVG 1.1//EN"
 "http://www.w3.org/Graphics/SVG/1.1/DTD/svg11.dtd">
<!-- Generated by graphviz version 2.43.0 (0)
 -->
<!-- Title: OMSimHitManager.cc Pages: 1 -->
<svg width="989pt" height="207pt"
 viewBox="0.00 0.00 989.00 207.00" xmlns="http://www.w3.org/2000/svg" xmlns:xlink="http://www.w3.org/1999/xlink">
<g id="graph0" class="graph" transform="scale(1 1) rotate(0) translate(4 203)">
<title>OMSimHitManager.cc</title>
<polygon fill="white" stroke="transparent" points="-4,4 -4,-203 985,-203 985,4 -4,4"/>
<!-- Node1 -->
<g id="node1" class="node">
<title>Node1</title>
<g id="a_node1"><a xlink:title=" ">
<polygon fill="#bfbfbf" stroke="black" points="620,-179.5 620,-198.5 742,-198.5 742,-179.5 620,-179.5"/>
<text text-anchor="middle" x="681" y="-186.5" font-family="Helvetica,sans-Serif" font-size="10.00">OMSimHitManager.cc</text>
</a>
</g>
</g>
<!-- Node2 -->
<g id="node2" class="node">
<title>Node2</title>
<g id="a_node2"><a xlink:href="_o_m_sim_hit_manager_8hh.html" target="_top" xlink:title="Defines structures and classes related to optical module photon hit management.">
<polygon fill="white" stroke="black" points="392.5,-123.5 392.5,-142.5 515.5,-142.5 515.5,-123.5 392.5,-123.5"/>
<text text-anchor="middle" x="454" y="-130.5" font-family="Helvetica,sans-Serif" font-size="10.00">OMSimHitManager.hh</text>
</a>
</g>
</g>
<!-- Node1&#45;&gt;Node2 -->
<g id="edge1" class="edge">
<title>Node1&#45;&gt;Node2</title>
<path fill="none" stroke="midnightblue" d="M645.03,-179.44C605.68,-170.08 542.51,-155.06 499.69,-144.87"/>
<polygon fill="midnightblue" stroke="midnightblue" points="500.34,-141.43 489.8,-142.52 498.72,-148.24 500.34,-141.43"/>
</g>
<!-- Node11 -->
<g id="node11" class="node">
<title>Node11</title>
<g id="a_node11"><a xlink:href="_o_m_sim_command_args_table_8hh.html" target="_top" xlink:title="Definition of the OMSimCommandArgsTable singleton class, which controls user args.">
<polygon fill="white" stroke="black" points="599,-123.5 599,-142.5 763,-142.5 763,-123.5 599,-123.5"/>
<text text-anchor="middle" x="681" y="-130.5" font-family="Helvetica,sans-Serif" font-size="10.00">OMSimCommandArgsTable.hh</text>
</a>
</g>
</g>
<!-- Node1&#45;&gt;Node11 -->
<g id="edge10" class="edge">
<title>Node1&#45;&gt;Node11</title>
<path fill="none" stroke="midnightblue" d="M681,-179.08C681,-172.01 681,-161.86 681,-152.99"/>
<polygon fill="midnightblue" stroke="midnightblue" points="684.5,-152.75 681,-142.75 677.5,-152.75 684.5,-152.75"/>
</g>
<!-- Node12 -->
<g id="node12" class="node">
<title>Node12</title>
<g id="a_node12"><a xlink:href="_o_m_sim_logger_8hh.html" target="_top" xlink:title=" ">
<polygon fill="white" stroke="black" points="548.5,-67.5 548.5,-86.5 647.5,-86.5 647.5,-67.5 548.5,-67.5"/>
<text text-anchor="middle" x="598" y="-74.5" font-family="Helvetica,sans-Serif" font-size="10.00">OMSimLogger.hh</text>
</a>
</g>
</g>
<!-- Node1&#45;&gt;Node12 -->
<g id="edge20" class="edge">
<title>Node1&#45;&gt;Node12</title>
<path fill="none" stroke="midnightblue" d="M643.03,-179.41C623.59,-172.88 601.62,-161.72 590,-143 581.3,-128.99 585.03,-109.99 589.89,-96.16"/>
<polygon fill="midnightblue" stroke="midnightblue" points="593.19,-97.33 593.64,-86.75 586.69,-94.74 593.19,-97.33"/>
</g>
<!-- Node19 -->
<g id="node19" class="node">
<title>Node19</title>
<g id="a_node19"><a xlink:title=" ">
<polygon fill="white" stroke="#bfbfbf" points="781.5,-123.5 781.5,-142.5 906.5,-142.5 906.5,-123.5 781.5,-123.5"/>
<text text-anchor="middle" x="844" y="-130.5" font-family="Helvetica,sans-Serif" font-size="10.00">OMSimEventAction.hh</text>
</a>
</g>
</g>
<!-- Node1&#45;&gt;Node19 -->
<g id="edge19" class="edge">
<title>Node1&#45;&gt;Node19</title>
<path fill="none" stroke="midnightblue" d="M706.83,-179.44C734.25,-170.36 777.78,-155.94 808.43,-145.78"/>
<polygon fill="midnightblue" stroke="midnightblue" points="809.9,-148.98 818.29,-142.52 807.7,-142.34 809.9,-148.98"/>
</g>
<!-- Node20 -->
<g id="node20" class="node">
<title>Node20</title>
<g id="a_node20"><a xlink:title=" ">
<polygon fill="white" stroke="#bfbfbf" points="925,-123.5 925,-142.5 981,-142.5 981,-123.5 925,-123.5"/>
<text text-anchor="middle" x="953" y="-130.5" font-family="Helvetica,sans-Serif" font-size="10.00">numeric</text>
</a>
</g>
</g>
<!-- Node1&#45;&gt;Node20 -->
<g id="edge21" class="edge">
<title>Node1&#45;&gt;Node20</title>
<path fill="none" stroke="midnightblue" d="M729.3,-179.47C774.77,-171.28 845,-158.22 914.89,-143.16"/>
<polygon fill="midnightblue" stroke="midnightblue" points="915.72,-146.56 924.75,-141.02 914.24,-139.72 915.72,-146.56"/>
</g>
<!-- Node3 -->
<g id="node3" class="node">
<title>Node3</title>
<g id="a_node3"><a xlink:href="_o_m_sim_p_m_t_response_8hh.html" target="_top" xlink:title="Provides simulation for PMT response. This class is responsible for transforming hits on photocathode...">
<polygon fill="white" stroke="black" points="146.5,-67.5 146.5,-86.5 281.5,-86.5 281.5,-67.5 146.5,-67.5"/>
<text text-anchor="middle" x="214" y="-74.5" font-family="Helvetica,sans-Serif" font-size="10.00">OMSimPMTResponse.hh</text>
</a>
</g>
</g>
<!-- Node2&#45;&gt;Node3 -->
<g id="edge2" class="edge">
<title>Node2&#45;&gt;Node3</title>
<path fill="none" stroke="midnightblue" d="M415.97,-123.44C374.19,-114.04 307.02,-98.93 261.73,-88.74"/>
<polygon fill="midnightblue" stroke="midnightblue" points="262.38,-85.3 251.85,-86.52 260.84,-92.13 262.38,-85.3"/>
</g>
<!-- Node9 -->
<g id="node9" class="node">
<title>Node9</title>
<g id="a_node9"><a xlink:title=" ">
<polygon fill="white" stroke="#bfbfbf" points="354.5,-67.5 354.5,-86.5 457.5,-86.5 457.5,-67.5 354.5,-67.5"/>
<text text-anchor="middle" x="406" y="-74.5" font-family="Helvetica,sans-Serif" font-size="10.00">G4ThreeVector.hh</text>
</a>
</g>
</g>
<!-- Node2&#45;&gt;Node9 -->
<g id="edge8" class="edge">
<title>Node2&#45;&gt;Node9</title>
<path fill="none" stroke="midnightblue" d="M446.07,-123.08C439.15,-115.3 428.93,-103.8 420.55,-94.37"/>
<polygon fill="midnightblue" stroke="midnightblue" points="423.04,-91.9 413.78,-86.75 417.81,-96.55 423.04,-91.9"/>
</g>
<!-- Node10 -->
<g id="node10" class="node">
<title>Node10</title>
<g id="a_node10"><a xlink:title=" ">
<polygon fill="white" stroke="#bfbfbf" points="475.5,-67.5 475.5,-86.5 530.5,-86.5 530.5,-67.5 475.5,-67.5"/>
<text text-anchor="middle" x="503" y="-74.5" font-family="Helvetica,sans-Serif" font-size="10.00">fstream</text>
</a>
</g>
</g>
<!-- Node2&#45;&gt;Node10 -->
<g id="edge9" class="edge">
<title>Node2&#45;&gt;Node10</title>
<path fill="none" stroke="midnightblue" d="M462.09,-123.08C469.16,-115.3 479.59,-103.8 488.15,-94.37"/>
<polygon fill="midnightblue" stroke="midnightblue" points="490.93,-96.51 495.06,-86.75 485.75,-91.8 490.93,-96.51"/>
</g>
<!-- Node4 -->
<g id="node4" class="node">
<title>Node4</title>
<g id="a_node4"><a xlink:title=" ">
<polygon fill="white" stroke="#bfbfbf" points="206.5,-6 206.5,-25 325.5,-25 325.5,-6 206.5,-6"/>
<text text-anchor="middle" x="266" y="-13" font-family="Helvetica,sans-Serif" font-size="10.00">G4SystemOfUnits.hh</text>
</a>
</g>
</g>
<!-- Node3&#45;&gt;Node4 -->
<g id="edge3" class="edge">
<title>Node3&#45;&gt;Node4</title>
<path fill="none" stroke="midnightblue" d="M221.45,-67.48C229.33,-58.46 241.94,-44.02 251.74,-32.81"/>
<polygon fill="midnightblue" stroke="midnightblue" points="254.62,-34.84 258.56,-25.01 249.35,-30.24 254.62,-34.84"/>
</g>
<!-- Node5 -->
<g id="node5" class="node">
<title>Node5</title>
<g id="a_node5"><a xlink:title=" ">
<polygon fill="white" stroke="#bfbfbf" points="343.5,-6 343.5,-25 416.5,-25 416.5,-6 343.5,-6"/>
<text text-anchor="middle" x="380" y="-13" font-family="Helvetica,sans-Serif" font-size="10.00">G4Types.hh</text>
</a>
</g>
</g>
<!-- Node3&#45;&gt;Node5 -->
<g id="edge4" class="edge">
<title>Node3&#45;&gt;Node5</title>
<path fill="none" stroke="midnightblue" d="M237.78,-67.48C266.38,-57.22 314.55,-39.96 346.8,-28.4"/>
<polygon fill="midnightblue" stroke="midnightblue" points="348.03,-31.68 356.26,-25.01 345.67,-25.09 348.03,-31.68"/>
</g>
<!-- Node6 -->
<g id="node6" class="node">
<title>Node6</title>
<g id="a_node6"><a xlink:title=" ">
<polygon fill="white" stroke="#bfbfbf" points="0,-6 0,-25 38,-25 38,-6 0,-6"/>
<text text-anchor="middle" x="19" y="-13" font-family="Helvetica,sans-Serif" font-size="10.00">map</text>
</a>
</g>
</g>
<!-- Node3&#45;&gt;Node6 -->
<g id="edge5" class="edge">
<title>Node3&#45;&gt;Node6</title>
<path fill="none" stroke="midnightblue" d="M172.72,-67.48C138.44,-59.79 88.7,-47.2 47,-31 45.79,-30.53 44.57,-30.03 43.35,-29.49"/>
<polygon fill="midnightblue" stroke="midnightblue" points="44.66,-26.24 34.13,-25.09 41.64,-32.56 44.66,-26.24"/>
</g>
<!-- Node7 -->
<g id="node7" class="node">
<title>Node7</title>
<g id="a_node7"><a xlink:title=" ">
<polygon fill="white" stroke="#bfbfbf" points="56.5,-6 56.5,-25 117.5,-25 117.5,-6 56.5,-6"/>
<text text-anchor="middle" x="87" y="-13" font-family="Helvetica,sans-Serif" font-size="10.00">TGraph.h</text>
</a>
</g>
</g>
<!-- Node3&#45;&gt;Node7 -->
<g id="edge6" class="edge">
<title>Node3&#45;&gt;Node7</title>
<path fill="none" stroke="midnightblue" d="M195.8,-67.48C174.49,-57.49 138.97,-40.85 114.34,-29.31"/>
<polygon fill="midnightblue" stroke="midnightblue" points="115.7,-26.08 105.16,-25.01 112.73,-32.42 115.7,-26.08"/>
</g>
<!-- Node8 -->
<g id="node8" class="node">
<title>Node8</title>
<g id="a_node8"><a xlink:title=" ">
<polygon fill="white" stroke="#bfbfbf" points="135.5,-6 135.5,-25 188.5,-25 188.5,-6 135.5,-6"/>
<text text-anchor="middle" x="162" y="-13" font-family="Helvetica,sans-Serif" font-size="10.00">TH2D.h</text>
</a>
</g>
</g>
<!-- Node3&#45;&gt;Node8 -->
<g id="edge7" class="edge">
<title>Node3&#45;&gt;Node8</title>
<path fill="none" stroke="midnightblue" d="M206.55,-67.48C198.67,-58.46 186.06,-44.02 176.26,-32.81"/>
<polygon fill="midnightblue" stroke="midnightblue" points="178.65,-30.24 169.44,-25.01 173.38,-34.84 178.65,-30.24"/>
</g>
<!-- Node11&#45;&gt;Node10 -->
<g id="edge16" class="edge">
<title>Node11&#45;&gt;Node10</title>
<path fill="none" stroke="midnightblue" d="M652.8,-123.44C622.5,-114.25 574.21,-99.6 540.68,-89.43"/>
<polygon fill="midnightblue" stroke="midnightblue" points="541.37,-85.98 530.78,-86.43 539.33,-92.68 541.37,-85.98"/>
</g>
<!-- Node11&#45;&gt;Node12 -->
<g id="edge11" class="edge">
<title>Node11&#45;&gt;Node12</title>
<path fill="none" stroke="midnightblue" d="M667.66,-123.32C654.84,-114.98 635.22,-102.21 620.06,-92.35"/>
<polygon fill="midnightblue" stroke="midnightblue" points="621.59,-89.17 611.3,-86.65 617.78,-95.04 621.59,-89.17"/>
</g>
<!-- Node17 -->
<g id="node17" class="node">
<title>Node17</title>
<g id="a_node17"><a xlink:title=" ">
<polygon fill="white" stroke="#bfbfbf" points="666,-67.5 666,-86.5 750,-86.5 750,-67.5 666,-67.5"/>
<text text-anchor="middle" x="708" y="-74.5" font-family="Helvetica,sans-Serif" font-size="10.00">boost/any.hpp</text>
</a>
</g>
</g>
<!-- Node11&#45;&gt;Node17 -->
<g id="edge17" class="edge">
<title>Node11&#45;&gt;Node17</title>
<path fill="none" stroke="midnightblue" d="M685.46,-123.08C689.15,-115.69 694.52,-104.95 699.09,-95.81"/>
<polygon fill="midnightblue" stroke="midnightblue" points="702.28,-97.26 703.62,-86.75 696.02,-94.13 702.28,-97.26"/>
</g>
<!-- Node18 -->
<g id="node18" class="node">
<title>Node18</title>
<g id="a_node18"><a xlink:title=" ">
<polygon fill="white" stroke="#bfbfbf" points="768,-67.5 768,-86.5 836,-86.5 836,-67.5 768,-67.5"/>
<text text-anchor="middle" x="802" y="-74.5" font-family="Helvetica,sans-Serif" font-size="10.00">sys/time.h</text>
</a>
</g>
</g>
<!-- Node11&#45;&gt;Node18 -->
<g id="edge18" class="edge">
<title>Node11&#45;&gt;Node18</title>
<path fill="none" stroke="midnightblue" d="M700.17,-123.44C719.91,-114.64 750.89,-100.81 773.49,-90.72"/>
<polygon fill="midnightblue" stroke="midnightblue" points="775.21,-93.79 782.92,-86.52 772.36,-87.4 775.21,-93.79"/>
</g>
<!-- Node13 -->
<g id="node13" class="node">
<title>Node13</title>
<g id="a_node13"><a xlink:title=" ">
<polygon fill="white" stroke="#bfbfbf" points="551.5,-6 551.5,-25 644.5,-25 644.5,-6 551.5,-6"/>
<text text-anchor="middle" x="598" y="-13" font-family="Helvetica,sans-Serif" font-size="10.00">spdlog/spdlog.h</text>
</a>
</g>
</g>
<!-- Node12&#45;&gt;Node13 -->
<g id="edge12" class="edge">
<title>Node12&#45;&gt;Node13</title>
<path fill="none" stroke="midnightblue" d="M598,-67.48C598,-59.08 598,-45.98 598,-35.16"/>
<polygon fill="midnightblue" stroke="midnightblue" points="601.5,-35.01 598,-25.01 594.5,-35.01 601.5,-35.01"/>
</g>
<!-- Node14 -->
<g id="node14" class="node">
<title>Node14</title>
<g id="a_node14"><a xlink:title=" ">
<polygon fill="white" stroke="#bfbfbf" points="662.5,-0.5 662.5,-30.5 773.5,-30.5 773.5,-0.5 662.5,-0.5"/>
<text text-anchor="start" x="670.5" y="-18.5" font-family="Helvetica,sans-Serif" font-size="10.00">spdlog/sinks/stdout</text>
<text text-anchor="middle" x="718" y="-7.5" font-family="Helvetica,sans-Serif" font-size="10.00">_color_sinks.h</text>
</a>
</g>
</g>
<!-- Node12&#45;&gt;Node14 -->
<g id="edge13" class="edge">
<title>Node12&#45;&gt;Node14</title>
<path fill="none" stroke="midnightblue" d="M615.19,-67.48C632.2,-59.04 658.8,-45.86 680.67,-35.01"/>
<polygon fill="midnightblue" stroke="midnightblue" points="682.31,-38.1 689.72,-30.52 679.2,-31.83 682.31,-38.1"/>
</g>
<!-- Node15 -->
<g id="node15" class="node">
<title>Node15</title>
<g id="a_node15"><a xlink:title=" ">
<polygon fill="white" stroke="#bfbfbf" points="792,-6 792,-25 850,-25 850,-6 792,-6"/>
<text text-anchor="middle" x="821" y="-13" font-family="Helvetica,sans-Serif" font-size="10.00">memory</text>
</a>
</g>
</g>
<!-- Node12&#45;&gt;Node15 -->
<g id="edge14" class="edge">
<title>Node12&#45;&gt;Node15</title>
<path fill="none" stroke="midnightblue" d="M638.93,-67.42C676.47,-59.22 733.43,-45.91 782,-31 784.57,-30.21 787.21,-29.35 789.85,-28.45"/>
<polygon fill="midnightblue" stroke="midnightblue" points="791.04,-31.74 799.29,-25.08 788.69,-25.14 791.04,-31.74"/>
</g>
<!-- Node16 -->
<g id="node16" class="node">
<title>Node16</title>
<g id="a_node16"><a xlink:title=" ">
<polygon fill="white" stroke="#bfbfbf" points="435,-6 435,-25 533,-25 533,-6 435,-6"/>
<text text-anchor="middle" x="484" y="-13" font-family="Helvetica,sans-Serif" font-size="10.00">spdlog/fmt/fmt.h</text>
</a>
</g>
</g>
<!-- Node12&#45;&gt;Node16 -->
<g id="edge15" class="edge">
<title>Node12&#45;&gt;Node16</title>
<path fill="none" stroke="midnightblue" d="M581.67,-67.48C562.79,-57.62 531.49,-41.29 509.42,-29.77"/>
<polygon fill="midnightblue" stroke="midnightblue" points="510.79,-26.53 500.3,-25.01 507.55,-32.74 510.79,-26.53"/>
</g>
</g>
</svg>
