<?xml version="1.0" encoding="UTF-8" standalone="no"?>
<!DOCTYPE svg PUBLIC "-//W3C//DTD SVG 1.1//EN"
 "http://www.w3.org/Graphics/SVG/1.1/DTD/svg11.dtd">
<!-- Generated by graphviz version 2.43.0 (0)
 -->
<!-- Title: OMSimDecaysAnalysis.cc Pages: 1 -->
<svg width="1205pt" height="207pt"
 viewBox="0.00 0.00 1205.00 207.00" xmlns="http://www.w3.org/2000/svg" xmlns:xlink="http://www.w3.org/1999/xlink">
<g id="graph0" class="graph" transform="scale(1 1) rotate(0) translate(4 203)">
<title>OMSimDecaysAnalysis.cc</title>
<polygon fill="white" stroke="transparent" points="-4,4 -4,-203 1201,-203 1201,4 -4,4"/>
<!-- Node1 -->
<g id="node1" class="node">
<title>Node1</title>
<g id="a_node1"><a xlink:title=" ">
<polygon fill="#bfbfbf" stroke="black" points="716.5,-179.5 716.5,-198.5 859.5,-198.5 859.5,-179.5 716.5,-179.5"/>
<text text-anchor="middle" x="788" y="-186.5" font-family="Helvetica,sans-Serif" font-size="10.00">OMSimDecaysAnalysis.cc</text>
</a>
</g>
</g>
<!-- Node2 -->
<g id="node2" class="node">
<title>Node2</title>
<g id="a_node2"><a xlink:href="_o_m_sim_decays_analysis_8hh.html" target="_top" xlink:title="Defines the OMSimDecaysAnalysis class and DecayStats struct for the radioactive decays simulation.">
<polygon fill="white" stroke="black" points="431,-123.5 431,-142.5 575,-142.5 575,-123.5 431,-123.5"/>
<text text-anchor="middle" x="503" y="-130.5" font-family="Helvetica,sans-Serif" font-size="10.00">OMSimDecaysAnalysis.hh</text>
</a>
</g>
</g>
<!-- Node1&#45;&gt;Node2 -->
<g id="edge1" class="edge">
<title>Node1&#45;&gt;Node2</title>
<path fill="none" stroke="midnightblue" d="M742.84,-179.44C692.71,-169.94 611.78,-154.61 557.99,-144.42"/>
<polygon fill="midnightblue" stroke="midnightblue" points="558.42,-140.94 547.95,-142.52 557.12,-147.82 558.42,-140.94"/>
</g>
<!-- Node5 -->
<g id="node5" class="node">
<title>Node5</title>
<g id="a_node5"><a xlink:title=" ">
<polygon fill="white" stroke="#bfbfbf" points="700,-67.5 700,-86.5 790,-86.5 790,-67.5 700,-67.5"/>
<text text-anchor="middle" x="745" y="-74.5" font-family="Helvetica,sans-Serif" font-size="10.00">G4AutoLock.hh</text>
</a>
</g>
</g>
<!-- Node1&#45;&gt;Node5 -->
<g id="edge29" class="edge">
<title>Node1&#45;&gt;Node5</title>
<path fill="none" stroke="midnightblue" d="M782.95,-179.25C777.94,-170.33 770.28,-156.01 765,-143 758.76,-127.62 753.34,-109.52 749.72,-96.33"/>
<polygon fill="midnightblue" stroke="midnightblue" points="753.08,-95.34 747.13,-86.58 746.31,-97.14 753.08,-95.34"/>
</g>
<!-- Node6 -->
<g id="node6" class="node">
<title>Node6</title>
<g id="a_node6"><a xlink:title=" ">
<polygon fill="white" stroke="#bfbfbf" points="773.5,-123.5 773.5,-142.5 888.5,-142.5 888.5,-123.5 773.5,-123.5"/>
<text text-anchor="middle" x="831" y="-130.5" font-family="Helvetica,sans-Serif" font-size="10.00">G4EventManager.hh</text>
</a>
</g>
</g>
<!-- Node1&#45;&gt;Node6 -->
<g id="edge5" class="edge">
<title>Node1&#45;&gt;Node6</title>
<path fill="none" stroke="midnightblue" d="M795.1,-179.08C801.24,-171.38 810.27,-160.03 817.74,-150.65"/>
<polygon fill="midnightblue" stroke="midnightblue" points="820.54,-152.75 824.03,-142.75 815.06,-148.39 820.54,-152.75"/>
</g>
<!-- Node7 -->
<g id="node7" class="node">
<title>Node7</title>
<g id="a_node7"><a xlink:title=" ">
<polygon fill="white" stroke="#bfbfbf" points="906.5,-123.5 906.5,-142.5 979.5,-142.5 979.5,-123.5 906.5,-123.5"/>
<text text-anchor="middle" x="943" y="-130.5" font-family="Helvetica,sans-Serif" font-size="10.00">G4Event.hh</text>
</a>
</g>
</g>
<!-- Node1&#45;&gt;Node7 -->
<g id="edge6" class="edge">
<title>Node1&#45;&gt;Node7</title>
<path fill="none" stroke="midnightblue" d="M812.56,-179.44C838.52,-170.4 879.67,-156.06 908.8,-145.92"/>
<polygon fill="midnightblue" stroke="midnightblue" points="910.26,-149.11 918.55,-142.52 907.96,-142.5 910.26,-149.11"/>
</g>
<!-- Node8 -->
<g id="node8" class="node">
<title>Node8</title>
<g id="a_node8"><a xlink:href="_o_m_sim_command_args_table_8hh.html" target="_top" xlink:title="Definition of the OMSimCommandArgsTable singleton class, which controls user args.">
<polygon fill="white" stroke="black" points="249,-123.5 249,-142.5 413,-142.5 413,-123.5 249,-123.5"/>
<text text-anchor="middle" x="331" y="-130.5" font-family="Helvetica,sans-Serif" font-size="10.00">OMSimCommandArgsTable.hh</text>
</a>
</g>
</g>
<!-- Node1&#45;&gt;Node8 -->
<g id="edge7" class="edge">
<title>Node1&#45;&gt;Node8</title>
<path fill="none" stroke="midnightblue" d="M716.34,-179.53C634.07,-169.81 499.36,-153.89 412.98,-143.69"/>
<polygon fill="midnightblue" stroke="midnightblue" points="413.29,-140.2 402.95,-142.5 412.47,-147.15 413.29,-140.2"/>
</g>
<!-- Node16 -->
<g id="node16" class="node">
<title>Node16</title>
<g id="a_node16"><a xlink:title=" ">
<polygon fill="white" stroke="#bfbfbf" points="997.5,-123.5 997.5,-142.5 1122.5,-142.5 1122.5,-123.5 997.5,-123.5"/>
<text text-anchor="middle" x="1060" y="-130.5" font-family="Helvetica,sans-Serif" font-size="10.00">OMSimEventAction.hh</text>
</a>
</g>
</g>
<!-- Node1&#45;&gt;Node16 -->
<g id="edge16" class="edge">
<title>Node1&#45;&gt;Node16</title>
<path fill="none" stroke="midnightblue" d="M831.1,-179.44C878.85,-169.96 955.86,-154.67 1007.19,-144.48"/>
<polygon fill="midnightblue" stroke="midnightblue" points="1007.98,-147.9 1017.1,-142.52 1006.61,-141.03 1007.98,-147.9"/>
</g>
<!-- Node17 -->
<g id="node17" class="node">
<title>Node17</title>
<g id="a_node17"><a xlink:href="_o_m_sim_hit_manager_8hh.html" target="_top" xlink:title="Defines structures and classes related to optical module photon hit management.">
<polygon fill="white" stroke="black" points="593.5,-123.5 593.5,-142.5 716.5,-142.5 716.5,-123.5 593.5,-123.5"/>
<text text-anchor="middle" x="655" y="-130.5" font-family="Helvetica,sans-Serif" font-size="10.00">OMSimHitManager.hh</text>
</a>
</g>
</g>
<!-- Node1&#45;&gt;Node17 -->
<g id="edge17" class="edge">
<title>Node1&#45;&gt;Node17</title>
<path fill="none" stroke="midnightblue" d="M766.93,-179.44C744.94,-170.52 710.27,-156.44 685.34,-146.32"/>
<polygon fill="midnightblue" stroke="midnightblue" points="686.56,-143.04 675.98,-142.52 683.92,-149.52 686.56,-143.04"/>
</g>
<!-- Node25 -->
<g id="node25" class="node">
<title>Node25</title>
<g id="a_node25"><a xlink:title=" ">
<polygon fill="white" stroke="#bfbfbf" points="1141,-123.5 1141,-142.5 1197,-142.5 1197,-123.5 1141,-123.5"/>
<text text-anchor="middle" x="1169" y="-130.5" font-family="Helvetica,sans-Serif" font-size="10.00">numeric</text>
</a>
</g>
</g>
<!-- Node1&#45;&gt;Node25 -->
<g id="edge28" class="edge">
<title>Node1&#45;&gt;Node25</title>
<path fill="none" stroke="midnightblue" d="M859.51,-180.93C927.09,-173.74 1031.46,-161.28 1130.87,-143.04"/>
<polygon fill="midnightblue" stroke="midnightblue" points="1131.59,-146.46 1140.79,-141.2 1130.32,-139.58 1131.59,-146.46"/>
</g>
<!-- Node3 -->
<g id="node3" class="node">
<title>Node3</title>
<g id="a_node3"><a xlink:title=" ">
<polygon fill="white" stroke="#bfbfbf" points="466.5,-67.5 466.5,-86.5 569.5,-86.5 569.5,-67.5 466.5,-67.5"/>
<text text-anchor="middle" x="518" y="-74.5" font-family="Helvetica,sans-Serif" font-size="10.00">G4ThreeVector.hh</text>
</a>
</g>
</g>
<!-- Node2&#45;&gt;Node3 -->
<g id="edge2" class="edge">
<title>Node2&#45;&gt;Node3</title>
<path fill="none" stroke="midnightblue" d="M505.48,-123.08C507.49,-115.85 510.39,-105.41 512.89,-96.4"/>
<polygon fill="midnightblue" stroke="midnightblue" points="516.26,-97.32 515.57,-86.75 509.52,-95.45 516.26,-97.32"/>
</g>
<!-- Node4 -->
<g id="node4" class="node">
<title>Node4</title>
<g id="a_node4"><a xlink:title=" ">
<polygon fill="white" stroke="#bfbfbf" points="393.5,-67.5 393.5,-86.5 448.5,-86.5 448.5,-67.5 393.5,-67.5"/>
<text text-anchor="middle" x="421" y="-74.5" font-family="Helvetica,sans-Serif" font-size="10.00">fstream</text>
</a>
</g>
</g>
<!-- Node2&#45;&gt;Node4 -->
<g id="edge3" class="edge">
<title>Node2&#45;&gt;Node4</title>
<path fill="none" stroke="midnightblue" d="M489.83,-123.32C477.15,-114.98 457.77,-102.21 442.79,-92.35"/>
<polygon fill="midnightblue" stroke="midnightblue" points="444.42,-89.23 434.14,-86.65 440.57,-95.08 444.42,-89.23"/>
</g>
<!-- Node2&#45;&gt;Node5 -->
<g id="edge4" class="edge">
<title>Node2&#45;&gt;Node5</title>
<path fill="none" stroke="midnightblue" d="M541.35,-123.44C583.47,-114.04 651.21,-98.93 696.87,-88.74"/>
<polygon fill="midnightblue" stroke="midnightblue" points="697.84,-92.11 706.83,-86.52 696.31,-85.28 697.84,-92.11"/>
</g>
<!-- Node8&#45;&gt;Node4 -->
<g id="edge13" class="edge">
<title>Node8&#45;&gt;Node4</title>
<path fill="none" stroke="midnightblue" d="M345.46,-123.32C359.5,-114.9 381.05,-101.97 397.54,-92.07"/>
<polygon fill="midnightblue" stroke="midnightblue" points="399.8,-94.8 406.58,-86.65 396.2,-88.8 399.8,-94.8"/>
</g>
<!-- Node9 -->
<g id="node9" class="node">
<title>Node9</title>
<g id="a_node9"><a xlink:href="_o_m_sim_logger_8hh.html" target="_top" xlink:title=" ">
<polygon fill="white" stroke="black" points="173.5,-67.5 173.5,-86.5 272.5,-86.5 272.5,-67.5 173.5,-67.5"/>
<text text-anchor="middle" x="223" y="-74.5" font-family="Helvetica,sans-Serif" font-size="10.00">OMSimLogger.hh</text>
</a>
</g>
</g>
<!-- Node8&#45;&gt;Node9 -->
<g id="edge8" class="edge">
<title>Node8&#45;&gt;Node9</title>
<path fill="none" stroke="midnightblue" d="M313.65,-123.32C296.33,-114.66 269.48,-101.24 249.5,-91.25"/>
<polygon fill="midnightblue" stroke="midnightblue" points="250.82,-88 240.31,-86.65 247.69,-94.26 250.82,-88"/>
</g>
<!-- Node14 -->
<g id="node14" class="node">
<title>Node14</title>
<g id="a_node14"><a xlink:title=" ">
<polygon fill="white" stroke="#bfbfbf" points="291,-67.5 291,-86.5 375,-86.5 375,-67.5 291,-67.5"/>
<text text-anchor="middle" x="333" y="-74.5" font-family="Helvetica,sans-Serif" font-size="10.00">boost/any.hpp</text>
</a>
</g>
</g>
<!-- Node8&#45;&gt;Node14 -->
<g id="edge14" class="edge">
<title>Node8&#45;&gt;Node14</title>
<path fill="none" stroke="midnightblue" d="M331.33,-123.08C331.59,-116.01 331.97,-105.86 332.3,-96.99"/>
<polygon fill="midnightblue" stroke="midnightblue" points="335.8,-96.87 332.68,-86.75 328.81,-96.61 335.8,-96.87"/>
</g>
<!-- Node15 -->
<g id="node15" class="node">
<title>Node15</title>
<g id="a_node15"><a xlink:title=" ">
<polygon fill="white" stroke="#bfbfbf" points="87,-67.5 87,-86.5 155,-86.5 155,-67.5 87,-67.5"/>
<text text-anchor="middle" x="121" y="-74.5" font-family="Helvetica,sans-Serif" font-size="10.00">sys/time.h</text>
</a>
</g>
</g>
<!-- Node8&#45;&gt;Node15 -->
<g id="edge15" class="edge">
<title>Node8&#45;&gt;Node15</title>
<path fill="none" stroke="midnightblue" d="M297.72,-123.44C261.55,-114.14 203.62,-99.25 164.02,-89.06"/>
<polygon fill="midnightblue" stroke="midnightblue" points="164.68,-85.62 154.12,-86.52 162.93,-92.4 164.68,-85.62"/>
</g>
<!-- Node10 -->
<g id="node10" class="node">
<title>Node10</title>
<g id="a_node10"><a xlink:title=" ">
<polygon fill="white" stroke="#bfbfbf" points="116.5,-6 116.5,-25 209.5,-25 209.5,-6 116.5,-6"/>
<text text-anchor="middle" x="163" y="-13" font-family="Helvetica,sans-Serif" font-size="10.00">spdlog/spdlog.h</text>
</a>
</g>
</g>
<!-- Node9&#45;&gt;Node10 -->
<g id="edge9" class="edge">
<title>Node9&#45;&gt;Node10</title>
<path fill="none" stroke="midnightblue" d="M214.4,-67.48C205.14,-58.28 190.18,-43.46 178.79,-32.16"/>
<polygon fill="midnightblue" stroke="midnightblue" points="181.15,-29.57 171.58,-25.01 176.22,-34.54 181.15,-29.57"/>
</g>
<!-- Node11 -->
<g id="node11" class="node">
<title>Node11</title>
<g id="a_node11"><a xlink:title=" ">
<polygon fill="white" stroke="#bfbfbf" points="227.5,-0.5 227.5,-30.5 338.5,-30.5 338.5,-0.5 227.5,-0.5"/>
<text text-anchor="start" x="235.5" y="-18.5" font-family="Helvetica,sans-Serif" font-size="10.00">spdlog/sinks/stdout</text>
<text text-anchor="middle" x="283" y="-7.5" font-family="Helvetica,sans-Serif" font-size="10.00">_color_sinks.h</text>
</a>
</g>
</g>
<!-- Node9&#45;&gt;Node11 -->
<g id="edge10" class="edge">
<title>Node9&#45;&gt;Node11</title>
<path fill="none" stroke="midnightblue" d="M231.6,-67.48C239.42,-59.72 251.29,-47.94 261.66,-37.66"/>
<polygon fill="midnightblue" stroke="midnightblue" points="264.22,-40.05 268.86,-30.52 259.29,-35.08 264.22,-40.05"/>
</g>
<!-- Node12 -->
<g id="node12" class="node">
<title>Node12</title>
<g id="a_node12"><a xlink:title=" ">
<polygon fill="white" stroke="#bfbfbf" points="357,-6 357,-25 415,-25 415,-6 357,-6"/>
<text text-anchor="middle" x="386" y="-13" font-family="Helvetica,sans-Serif" font-size="10.00">memory</text>
</a>
</g>
</g>
<!-- Node9&#45;&gt;Node12 -->
<g id="edge11" class="edge">
<title>Node9&#45;&gt;Node12</title>
<path fill="none" stroke="midnightblue" d="M246.79,-67.43C271.77,-58.42 312.17,-43.79 347,-31 349.09,-30.23 351.25,-29.44 353.42,-28.63"/>
<polygon fill="midnightblue" stroke="midnightblue" points="354.75,-31.87 362.91,-25.12 352.32,-25.31 354.75,-31.87"/>
</g>
<!-- Node13 -->
<g id="node13" class="node">
<title>Node13</title>
<g id="a_node13"><a xlink:title=" ">
<polygon fill="white" stroke="#bfbfbf" points="0,-6 0,-25 98,-25 98,-6 0,-6"/>
<text text-anchor="middle" x="49" y="-13" font-family="Helvetica,sans-Serif" font-size="10.00">spdlog/fmt/fmt.h</text>
</a>
</g>
</g>
<!-- Node9&#45;&gt;Node13 -->
<g id="edge12" class="edge">
<title>Node9&#45;&gt;Node13</title>
<path fill="none" stroke="midnightblue" d="M198.07,-67.48C167.96,-57.18 117.17,-39.81 83.36,-28.25"/>
<polygon fill="midnightblue" stroke="midnightblue" points="84.48,-24.93 73.88,-25.01 82.21,-31.56 84.48,-24.93"/>
</g>
<!-- Node17&#45;&gt;Node3 -->
<g id="edge24" class="edge">
<title>Node17&#45;&gt;Node3</title>
<path fill="none" stroke="midnightblue" d="M633.29,-123.44C610.65,-114.52 574.93,-100.44 549.25,-90.32"/>
<polygon fill="midnightblue" stroke="midnightblue" points="550.19,-86.93 539.61,-86.52 547.63,-93.44 550.19,-86.93"/>
</g>
<!-- Node17&#45;&gt;Node4 -->
<g id="edge25" class="edge">
<title>Node17&#45;&gt;Node4</title>
<path fill="none" stroke="midnightblue" d="M616.24,-123.45C578.39,-115.04 518.9,-101.68 458.58,-87.34"/>
<polygon fill="midnightblue" stroke="midnightblue" points="459.04,-83.85 448.5,-84.94 457.42,-90.66 459.04,-83.85"/>
</g>
<!-- Node17&#45;&gt;Node5 -->
<g id="edge26" class="edge">
<title>Node17&#45;&gt;Node5</title>
<path fill="none" stroke="midnightblue" d="M669.46,-123.32C683.5,-114.9 705.05,-101.97 721.54,-92.07"/>
<polygon fill="midnightblue" stroke="midnightblue" points="723.8,-94.8 730.58,-86.65 720.2,-88.8 723.8,-94.8"/>
</g>
<!-- Node18 -->
<g id="node18" class="node">
<title>Node18</title>
<g id="a_node18"><a xlink:href="_o_m_sim_p_m_t_response_8hh.html" target="_top" xlink:title="Simulation of PMT response.">
<polygon fill="white" stroke="black" points="808.5,-67.5 808.5,-86.5 943.5,-86.5 943.5,-67.5 808.5,-67.5"/>
<text text-anchor="middle" x="876" y="-74.5" font-family="Helvetica,sans-Serif" font-size="10.00">OMSimPMTResponse.hh</text>
</a>
</g>
</g>
<!-- Node17&#45;&gt;Node18 -->
<g id="edge18" class="edge">
<title>Node17&#45;&gt;Node18</title>
<path fill="none" stroke="midnightblue" d="M690.02,-123.44C728.25,-114.1 789.57,-99.12 831.26,-88.93"/>
<polygon fill="midnightblue" stroke="midnightblue" points="832.26,-92.29 841.15,-86.52 830.6,-85.49 832.26,-92.29"/>
</g>
<!-- Node24 -->
<g id="node24" class="node">
<title>Node24</title>
<g id="a_node24"><a xlink:title=" ">
<polygon fill="white" stroke="#bfbfbf" points="588,-67.5 588,-86.5 682,-86.5 682,-67.5 588,-67.5"/>
<text text-anchor="middle" x="635" y="-74.5" font-family="Helvetica,sans-Serif" font-size="10.00">G4Threading.hh</text>
</a>
</g>
</g>
<!-- Node17&#45;&gt;Node24 -->
<g id="edge27" class="edge">
<title>Node17&#45;&gt;Node24</title>
<path fill="none" stroke="midnightblue" d="M651.7,-123.08C649.02,-115.85 645.15,-105.41 641.81,-96.4"/>
<polygon fill="midnightblue" stroke="midnightblue" points="645,-94.91 638.24,-86.75 638.43,-97.34 645,-94.91"/>
</g>
<!-- Node19 -->
<g id="node19" class="node">
<title>Node19</title>
<g id="a_node19"><a xlink:title=" ">
<polygon fill="white" stroke="#bfbfbf" points="920.5,-6 920.5,-25 1039.5,-25 1039.5,-6 920.5,-6"/>
<text text-anchor="middle" x="980" y="-13" font-family="Helvetica,sans-Serif" font-size="10.00">G4SystemOfUnits.hh</text>
</a>
</g>
</g>
<!-- Node18&#45;&gt;Node19 -->
<g id="edge19" class="edge">
<title>Node18&#45;&gt;Node19</title>
<path fill="none" stroke="midnightblue" d="M890.9,-67.48C907.97,-57.71 936.16,-41.58 956.26,-30.08"/>
<polygon fill="midnightblue" stroke="midnightblue" points="958.19,-33.01 965.13,-25.01 954.71,-26.94 958.19,-33.01"/>
</g>
<!-- Node20 -->
<g id="node20" class="node">
<title>Node20</title>
<g id="a_node20"><a xlink:title=" ">
<polygon fill="white" stroke="#bfbfbf" points="1057.5,-6 1057.5,-25 1130.5,-25 1130.5,-6 1057.5,-6"/>
<text text-anchor="middle" x="1094" y="-13" font-family="Helvetica,sans-Serif" font-size="10.00">G4Types.hh</text>
</a>
</g>
</g>
<!-- Node18&#45;&gt;Node20 -->
<g id="edge20" class="edge">
<title>Node18&#45;&gt;Node20</title>
<path fill="none" stroke="midnightblue" d="M911.28,-67.45C946.36,-58.8 1001.62,-44.78 1049,-31 1052.15,-30.08 1055.42,-29.1 1058.69,-28.09"/>
<polygon fill="midnightblue" stroke="midnightblue" points="1059.89,-31.38 1068.38,-25.04 1057.79,-24.7 1059.89,-31.38"/>
</g>
<!-- Node21 -->
<g id="node21" class="node">
<title>Node21</title>
<g id="a_node21"><a xlink:title=" ">
<polygon fill="white" stroke="#bfbfbf" points="714,-6 714,-25 752,-25 752,-6 714,-6"/>
<text text-anchor="middle" x="733" y="-13" font-family="Helvetica,sans-Serif" font-size="10.00">map</text>
</a>
</g>
</g>
<!-- Node18&#45;&gt;Node21 -->
<g id="edge21" class="edge">
<title>Node18&#45;&gt;Node21</title>
<path fill="none" stroke="midnightblue" d="M851.91,-67.41C828.43,-58.84 791.86,-44.98 761,-31 760,-30.55 758.99,-30.08 757.97,-29.6"/>
<polygon fill="midnightblue" stroke="midnightblue" points="759.36,-26.38 748.85,-25.07 756.25,-32.65 759.36,-26.38"/>
</g>
<!-- Node22 -->
<g id="node22" class="node">
<title>Node22</title>
<g id="a_node22"><a xlink:title=" ">
<polygon fill="white" stroke="#bfbfbf" points="770.5,-6 770.5,-25 831.5,-25 831.5,-6 770.5,-6"/>
<text text-anchor="middle" x="801" y="-13" font-family="Helvetica,sans-Serif" font-size="10.00">TGraph.h</text>
</a>
</g>
</g>
<!-- Node18&#45;&gt;Node22 -->
<g id="edge22" class="edge">
<title>Node18&#45;&gt;Node22</title>
<path fill="none" stroke="midnightblue" d="M865.25,-67.48C853.45,-58.11 834.26,-42.88 819.92,-31.51"/>
<polygon fill="midnightblue" stroke="midnightblue" points="821.74,-28.48 811.73,-25.01 817.38,-33.97 821.74,-28.48"/>
</g>
<!-- Node23 -->
<g id="node23" class="node">
<title>Node23</title>
<g id="a_node23"><a xlink:title=" ">
<polygon fill="white" stroke="#bfbfbf" points="849.5,-6 849.5,-25 902.5,-25 902.5,-6 849.5,-6"/>
<text text-anchor="middle" x="876" y="-13" font-family="Helvetica,sans-Serif" font-size="10.00">TH2D.h</text>
</a>
</g>
</g>
<!-- Node18&#45;&gt;Node23 -->
<g id="edge23" class="edge">
<title>Node18&#45;&gt;Node23</title>
<path fill="none" stroke="midnightblue" d="M876,-67.48C876,-59.08 876,-45.98 876,-35.16"/>
<polygon fill="midnightblue" stroke="midnightblue" points="879.5,-35.01 876,-25.01 872.5,-35.01 879.5,-35.01"/>
</g>
</g>
</svg>
