<?xml version="1.0" encoding="UTF-8" standalone="no"?>
<!DOCTYPE svg PUBLIC "-//W3C//DTD SVG 1.1//EN"
 "http://www.w3.org/Graphics/SVG/1.1/DTD/svg11.dtd">
<!-- Generated by graphviz version 2.43.0 (0)
 -->
<!-- Title: OMSimSNdetector.cc Pages: 1 -->
<svg width="1484pt" height="498pt"
 viewBox="0.00 0.00 1483.50 498.00" xmlns="http://www.w3.org/2000/svg" xmlns:xlink="http://www.w3.org/1999/xlink">
<g id="graph0" class="graph" transform="scale(1 1) rotate(0) translate(4 494)">
<title>OMSimSNdetector.cc</title>
<polygon fill="white" stroke="transparent" points="-4,4 -4,-494 1479.5,-494 1479.5,4 -4,4"/>
<!-- Node1 -->
<g id="node1" class="node">
<title>Node1</title>
<g id="a_node1"><a xlink:title=" ">
<polygon fill="#bfbfbf" stroke="black" points="572,-470.5 572,-489.5 691,-489.5 691,-470.5 572,-470.5"/>
<text text-anchor="middle" x="631.5" y="-477.5" font-family="Helvetica,sans-Serif" font-size="10.00">OMSimSNdetector.cc</text>
</a>
</g>
</g>
<!-- Node2 -->
<g id="node2" class="node">
<title>Node2</title>
<g id="a_node2"><a xlink:href="_o_m_sim_s_ndetector_8hh.html" target="_top" xlink:title=" ">
<polygon fill="white" stroke="black" points="720.5,-414.5 720.5,-433.5 840.5,-433.5 840.5,-414.5 720.5,-414.5"/>
<text text-anchor="middle" x="780.5" y="-421.5" font-family="Helvetica,sans-Serif" font-size="10.00">OMSimSNdetector.hh</text>
</a>
</g>
</g>
<!-- Node1&#45;&gt;Node2 -->
<g id="edge1" class="edge">
<title>Node1&#45;&gt;Node2</title>
<path fill="none" stroke="midnightblue" d="M655.11,-470.44C679.96,-461.44 719.27,-447.19 747.25,-437.05"/>
<polygon fill="midnightblue" stroke="midnightblue" points="748.79,-440.21 757,-433.52 746.41,-433.63 748.79,-440.21"/>
</g>
<!-- Node19 -->
<g id="node19" class="node">
<title>Node19</title>
<g id="a_node19"><a xlink:href="_o_m_sim_hit_manager_8hh.html" target="_top" xlink:title="Defines structures and classes related to optical module photon hit management.">
<polygon fill="white" stroke="black" points="1071,-246.5 1071,-265.5 1194,-265.5 1194,-246.5 1071,-246.5"/>
<text text-anchor="middle" x="1132.5" y="-253.5" font-family="Helvetica,sans-Serif" font-size="10.00">OMSimHitManager.hh</text>
</a>
</g>
</g>
<!-- Node1&#45;&gt;Node19 -->
<g id="edge58" class="edge">
<title>Node1&#45;&gt;Node19</title>
<path fill="none" stroke="midnightblue" d="M691.17,-477.37C811.84,-473.51 1075.95,-461.92 1105.5,-434 1149.33,-392.58 1142.24,-312.29 1136.23,-275.83"/>
<polygon fill="midnightblue" stroke="midnightblue" points="1139.61,-274.85 1134.38,-265.63 1132.72,-276.1 1139.61,-274.85"/>
</g>
<!-- Node31 -->
<g id="node31" class="node">
<title>Node31</title>
<g id="a_node31"><a xlink:title=" ">
<polygon fill="white" stroke="#bfbfbf" points="511,-190.5 511,-209.5 578,-209.5 578,-190.5 511,-190.5"/>
<text text-anchor="middle" x="544.5" y="-197.5" font-family="Helvetica,sans-Serif" font-size="10.00">G4Tubs.hh</text>
</a>
</g>
</g>
<!-- Node1&#45;&gt;Node31 -->
<g id="edge65" class="edge">
<title>Node1&#45;&gt;Node31</title>
<path fill="none" stroke="midnightblue" d="M691.18,-476.16C834.76,-467.22 1179.94,-431.94 1072.5,-302 1041.44,-264.43 709.45,-220.92 588.37,-206.18"/>
<polygon fill="midnightblue" stroke="midnightblue" points="588.68,-202.69 578.33,-204.97 587.84,-209.64 588.68,-202.69"/>
</g>
<!-- Node34 -->
<g id="node34" class="node">
<title>Node34</title>
<g id="a_node34"><a xlink:href="_o_m_sim_m_d_o_m_8hh.html" target="_top" xlink:title="Construction of mDOM.">
<polygon fill="white" stroke="black" points="160.5,-358.5 160.5,-377.5 260.5,-377.5 260.5,-358.5 160.5,-358.5"/>
<text text-anchor="middle" x="210.5" y="-365.5" font-family="Helvetica,sans-Serif" font-size="10.00">OMSimMDOM.hh</text>
</a>
</g>
</g>
<!-- Node1&#45;&gt;Node34 -->
<g id="edge37" class="edge">
<title>Node1&#45;&gt;Node34</title>
<path fill="none" stroke="midnightblue" d="M595.66,-470.47C558.72,-461.62 499.49,-447.23 448.5,-434 378.78,-415.91 297.96,-393.54 250.71,-380.32"/>
<polygon fill="midnightblue" stroke="midnightblue" points="251.44,-376.89 240.87,-377.56 249.55,-383.63 251.44,-376.89"/>
</g>
<!-- Node36 -->
<g id="node36" class="node">
<title>Node36</title>
<g id="a_node36"><a xlink:title=" ">
<polygon fill="white" stroke="#bfbfbf" points="11.5,-246.5 11.5,-265.5 103.5,-265.5 103.5,-246.5 11.5,-246.5"/>
<text text-anchor="middle" x="57.5" y="-253.5" font-family="Helvetica,sans-Serif" font-size="10.00">G4Navigator.hh</text>
</a>
</g>
</g>
<!-- Node1&#45;&gt;Node36 -->
<g id="edge59" class="edge">
<title>Node1&#45;&gt;Node36</title>
<path fill="none" stroke="midnightblue" d="M571.89,-473.35C479.12,-463.06 295.88,-436.65 151.5,-378 105.38,-359.26 79.39,-365.11 54.5,-322 46.39,-307.95 48.32,-289.21 51.58,-275.46"/>
<polygon fill="midnightblue" stroke="midnightblue" points="54.99,-276.26 54.32,-265.69 48.25,-274.38 54.99,-276.26"/>
</g>
<!-- Node37 -->
<g id="node37" class="node">
<title>Node37</title>
<g id="a_node37"><a xlink:href="_o_m_sim_p_d_o_m_8hh.html" target="_top" xlink:title="Implementation of the pDOM/Gen1 DOM class.">
<polygon fill="white" stroke="black" points="392,-358.5 392,-377.5 489,-377.5 489,-358.5 392,-358.5"/>
<text text-anchor="middle" x="440.5" y="-365.5" font-family="Helvetica,sans-Serif" font-size="10.00">OMSimPDOM.hh</text>
</a>
</g>
</g>
<!-- Node1&#45;&gt;Node37 -->
<g id="edge44" class="edge">
<title>Node1&#45;&gt;Node37</title>
<path fill="none" stroke="midnightblue" d="M616.51,-470.37C583.46,-451.33 504.08,-405.62 464.2,-382.65"/>
<polygon fill="midnightblue" stroke="midnightblue" points="465.83,-379.55 455.42,-377.59 462.34,-385.62 465.83,-379.55"/>
</g>
<!-- Node38 -->
<g id="node38" class="node">
<title>Node38</title>
<g id="a_node38"><a xlink:href="_o_m_sim_l_o_m16_8hh.html" target="_top" xlink:title="Construction of LOM16.">
<polygon fill="white" stroke="black" points="507,-358.5 507,-377.5 608,-377.5 608,-358.5 507,-358.5"/>
<text text-anchor="middle" x="557.5" y="-365.5" font-family="Helvetica,sans-Serif" font-size="10.00">OMSimLOM16.hh</text>
</a>
</g>
</g>
<!-- Node1&#45;&gt;Node38 -->
<g id="edge47" class="edge">
<title>Node1&#45;&gt;Node38</title>
<path fill="none" stroke="midnightblue" d="M625.69,-470.37C613.48,-452.22 584.95,-409.8 568.93,-385.99"/>
<polygon fill="midnightblue" stroke="midnightblue" points="571.77,-383.94 563.28,-377.59 565.96,-387.84 571.77,-383.94"/>
</g>
<!-- Node39 -->
<g id="node39" class="node">
<title>Node39</title>
<g id="a_node39"><a xlink:href="_o_m_sim_l_o_m18_8hh.html" target="_top" xlink:title="Construction of LOM18.">
<polygon fill="white" stroke="black" points="626,-358.5 626,-377.5 727,-377.5 727,-358.5 626,-358.5"/>
<text text-anchor="middle" x="676.5" y="-365.5" font-family="Helvetica,sans-Serif" font-size="10.00">OMSimLOM18.hh</text>
</a>
</g>
</g>
<!-- Node1&#45;&gt;Node39 -->
<g id="edge50" class="edge">
<title>Node1&#45;&gt;Node39</title>
<path fill="none" stroke="midnightblue" d="M635.03,-470.37C642.36,-452.46 659.35,-410.92 669.16,-386.95"/>
<polygon fill="midnightblue" stroke="midnightblue" points="672.44,-388.17 672.99,-377.59 665.96,-385.52 672.44,-388.17"/>
</g>
<!-- Node42 -->
<g id="node42" class="node">
<title>Node42</title>
<g id="a_node42"><a xlink:href="_o_m_sim_d_e_g_g_8hh.html" target="_top" xlink:title="Construction of the DEGG class. From DOUMEKI.">
<polygon fill="white" stroke="black" points="279,-358.5 279,-377.5 374,-377.5 374,-358.5 279,-358.5"/>
<text text-anchor="middle" x="326.5" y="-365.5" font-family="Helvetica,sans-Serif" font-size="10.00">OMSimDEGG.hh</text>
</a>
</g>
</g>
<!-- Node1&#45;&gt;Node42 -->
<g id="edge55" class="edge">
<title>Node1&#45;&gt;Node42</title>
<path fill="none" stroke="midnightblue" d="M607.82,-470.46C553.99,-451.05 422.3,-403.55 360.09,-381.12"/>
<polygon fill="midnightblue" stroke="midnightblue" points="360.97,-377.71 350.37,-377.61 358.59,-384.3 360.97,-377.71"/>
</g>
<!-- Node43 -->
<g id="node43" class="node">
<title>Node43</title>
<g id="a_node43"><a xlink:href="_o_m_sim_command_args_table_8hh.html" target="_top" xlink:title="Definition of the OMSimCommandArgsTable singleton class, which controls user args.">
<polygon fill="white" stroke="black" points="1229.5,-246.5 1229.5,-265.5 1393.5,-265.5 1393.5,-246.5 1229.5,-246.5"/>
<text text-anchor="middle" x="1311.5" y="-253.5" font-family="Helvetica,sans-Serif" font-size="10.00">OMSimCommandArgsTable.hh</text>
</a>
</g>
</g>
<!-- Node1&#45;&gt;Node43 -->
<g id="edge60" class="edge">
<title>Node1&#45;&gt;Node43</title>
<path fill="none" stroke="midnightblue" d="M691.26,-478.49C805.7,-476.71 1051.2,-468.83 1127.5,-434 1207.45,-397.5 1273.94,-311.36 1299.85,-274.37"/>
<polygon fill="midnightblue" stroke="midnightblue" points="1303.03,-275.93 1305.81,-265.7 1297.26,-271.96 1303.03,-275.93"/>
</g>
<!-- Node3 -->
<g id="node3" class="node">
<title>Node3</title>
<g id="a_node3"><a xlink:href="_o_m_sim_detector_construction_8hh.html" target="_top" xlink:title=" ">
<polygon fill="white" stroke="black" points="747.5,-358.5 747.5,-377.5 917.5,-377.5 917.5,-358.5 747.5,-358.5"/>
<text text-anchor="middle" x="832.5" y="-365.5" font-family="Helvetica,sans-Serif" font-size="10.00">OMSimDetectorConstruction.hh</text>
</a>
</g>
</g>
<!-- Node2&#45;&gt;Node3 -->
<g id="edge2" class="edge">
<title>Node2&#45;&gt;Node3</title>
<path fill="none" stroke="midnightblue" d="M789.09,-414.08C796.66,-406.22 807.88,-394.57 817.01,-385.08"/>
<polygon fill="midnightblue" stroke="midnightblue" points="819.66,-387.38 824.07,-377.75 814.62,-382.53 819.66,-387.38"/>
</g>
<!-- Node4 -->
<g id="node4" class="node">
<title>Node4</title>
<g id="a_node4"><a xlink:href="_o_m_sim_optical_module_8hh.html" target="_top" xlink:title=" ">
<polygon fill="white" stroke="black" points="370,-302.5 370,-321.5 507,-321.5 507,-302.5 370,-302.5"/>
<text text-anchor="middle" x="438.5" y="-309.5" font-family="Helvetica,sans-Serif" font-size="10.00">OMSimOpticalModule.hh</text>
</a>
</g>
</g>
<!-- Node3&#45;&gt;Node4 -->
<g id="edge3" class="edge">
<title>Node3&#45;&gt;Node4</title>
<path fill="none" stroke="midnightblue" d="M770.07,-358.44C699.61,-348.79 585.15,-333.1 510.85,-322.92"/>
<polygon fill="midnightblue" stroke="midnightblue" points="511.02,-319.41 500.64,-321.52 510.07,-326.34 511.02,-319.41"/>
</g>
<!-- Node32 -->
<g id="node32" class="node">
<title>Node32</title>
<g id="a_node32"><a xlink:title=" ">
<polygon fill="white" stroke="#bfbfbf" points="805.5,-302.5 805.5,-321.5 867.5,-321.5 867.5,-302.5 805.5,-302.5"/>
<text text-anchor="middle" x="836.5" y="-309.5" font-family="Helvetica,sans-Serif" font-size="10.00">G4Orb.hh</text>
</a>
</g>
</g>
<!-- Node3&#45;&gt;Node32 -->
<g id="edge35" class="edge">
<title>Node3&#45;&gt;Node32</title>
<path fill="none" stroke="midnightblue" d="M833.16,-358.08C833.68,-351.01 834.44,-340.86 835.09,-331.99"/>
<polygon fill="midnightblue" stroke="midnightblue" points="838.6,-331.98 835.85,-321.75 831.62,-331.47 838.6,-331.98"/>
</g>
<!-- Node33 -->
<g id="node33" class="node">
<title>Node33</title>
<g id="a_node33"><a xlink:title=" ">
<polygon fill="white" stroke="#bfbfbf" points="885.5,-302.5 885.5,-321.5 1063.5,-321.5 1063.5,-302.5 885.5,-302.5"/>
<text text-anchor="middle" x="974.5" y="-309.5" font-family="Helvetica,sans-Serif" font-size="10.00">G4VUserDetectorConstruction.hh</text>
</a>
</g>
</g>
<!-- Node3&#45;&gt;Node33 -->
<g id="edge36" class="edge">
<title>Node3&#45;&gt;Node33</title>
<path fill="none" stroke="midnightblue" d="M855,-358.44C878.58,-349.48 915.82,-335.31 942.46,-325.18"/>
<polygon fill="midnightblue" stroke="midnightblue" points="944,-328.34 952.1,-321.52 941.51,-321.8 944,-328.34"/>
</g>
<!-- Node5 -->
<g id="node5" class="node">
<title>Node5</title>
<g id="a_node5"><a xlink:href="abc_detector_component_8hh.html" target="_top" xlink:title="Provides helper base class abcDetectorComponent for constructing and managing detector components in ...">
<polygon fill="white" stroke="black" points="243,-190.5 243,-209.5 390,-209.5 390,-190.5 243,-190.5"/>
<text text-anchor="middle" x="316.5" y="-197.5" font-family="Helvetica,sans-Serif" font-size="10.00">abcDetectorComponent.hh</text>
</a>
</g>
</g>
<!-- Node4&#45;&gt;Node5 -->
<g id="edge4" class="edge">
<title>Node4&#45;&gt;Node5</title>
<path fill="none" stroke="midnightblue" d="M438.07,-302.32C436.95,-288.71 432.94,-262.23 418.5,-246 404.42,-230.16 383.72,-219.64 364.64,-212.78"/>
<polygon fill="midnightblue" stroke="midnightblue" points="365.75,-209.46 355.15,-209.62 363.53,-216.1 365.75,-209.46"/>
</g>
<!-- Node4&#45;&gt;Node19 -->
<g id="edge18" class="edge">
<title>Node4&#45;&gt;Node19</title>
<path fill="none" stroke="midnightblue" d="M507.39,-302.89C510.47,-302.58 513.51,-302.28 516.5,-302 713.14,-283.48 945.7,-268.32 1060.7,-261.26"/>
<polygon fill="midnightblue" stroke="midnightblue" points="1061.02,-264.75 1070.79,-260.65 1060.59,-257.76 1061.02,-264.75"/>
</g>
<!-- Node29 -->
<g id="node29" class="node">
<title>Node29</title>
<g id="a_node29"><a xlink:href="_o_m_sim_p_m_t_construction_8hh.html" target="_top" xlink:title="Construction of the PMTs.">
<polygon fill="white" stroke="black" points="243,-246.5 243,-265.5 392,-265.5 392,-246.5 243,-246.5"/>
<text text-anchor="middle" x="317.5" y="-253.5" font-family="Helvetica,sans-Serif" font-size="10.00">OMSimPMTConstruction.hh</text>
</a>
</g>
</g>
<!-- Node4&#45;&gt;Node29 -->
<g id="edge29" class="edge">
<title>Node4&#45;&gt;Node29</title>
<path fill="none" stroke="midnightblue" d="M419.33,-302.44C399.59,-293.64 368.61,-279.81 346.01,-269.72"/>
<polygon fill="midnightblue" stroke="midnightblue" points="347.14,-266.4 336.58,-265.52 344.29,-272.79 347.14,-266.4"/>
</g>
<!-- Node6 -->
<g id="node6" class="node">
<title>Node6</title>
<g id="a_node6"><a xlink:href="_o_m_sim_input_data_8hh.html" target="_top" xlink:title="Definition of ParameterTable and InputDataManager.">
<polygon fill="white" stroke="black" points="524,-134.5 524,-153.5 639,-153.5 639,-134.5 524,-134.5"/>
<text text-anchor="middle" x="581.5" y="-141.5" font-family="Helvetica,sans-Serif" font-size="10.00">OMSimInputData.hh</text>
</a>
</g>
</g>
<!-- Node5&#45;&gt;Node6 -->
<g id="edge5" class="edge">
<title>Node5&#45;&gt;Node6</title>
<path fill="none" stroke="midnightblue" d="M358.49,-190.44C404.91,-180.98 479.73,-165.74 529.74,-155.55"/>
<polygon fill="midnightblue" stroke="midnightblue" points="530.61,-158.94 539.71,-153.52 529.21,-152.08 530.61,-158.94"/>
</g>
<!-- Node15 -->
<g id="node15" class="node">
<title>Node15</title>
<g id="a_node15"><a xlink:title=" ">
<polygon fill="white" stroke="#bfbfbf" points="0,-134.5 0,-153.5 107,-153.5 107,-134.5 0,-134.5"/>
<text text-anchor="middle" x="53.5" y="-141.5" font-family="Helvetica,sans-Serif" font-size="10.00">G4Transform3D.hh</text>
</a>
</g>
</g>
<!-- Node5&#45;&gt;Node15 -->
<g id="edge14" class="edge">
<title>Node5&#45;&gt;Node15</title>
<path fill="none" stroke="midnightblue" d="M274.83,-190.44C228.75,-180.98 154.5,-165.74 104.87,-155.55"/>
<polygon fill="midnightblue" stroke="midnightblue" points="105.48,-152.1 94.98,-153.52 104.07,-158.96 105.48,-152.1"/>
</g>
<!-- Node16 -->
<g id="node16" class="node">
<title>Node16</title>
<g id="a_node16"><a xlink:title=" ">
<polygon fill="white" stroke="#bfbfbf" points="125.5,-134.5 125.5,-153.5 233.5,-153.5 233.5,-134.5 125.5,-134.5"/>
<text text-anchor="middle" x="179.5" y="-141.5" font-family="Helvetica,sans-Serif" font-size="10.00">G4VisAttributes.hh</text>
</a>
</g>
</g>
<!-- Node5&#45;&gt;Node16 -->
<g id="edge15" class="edge">
<title>Node5&#45;&gt;Node16</title>
<path fill="none" stroke="midnightblue" d="M294.79,-190.44C272.15,-181.52 236.43,-167.44 210.75,-157.32"/>
<polygon fill="midnightblue" stroke="midnightblue" points="211.69,-153.93 201.11,-153.52 209.13,-160.44 211.69,-153.93"/>
</g>
<!-- Node17 -->
<g id="node17" class="node">
<title>Node17</title>
<g id="a_node17"><a xlink:title=" ">
<polygon fill="white" stroke="#bfbfbf" points="252,-134.5 252,-153.5 377,-153.5 377,-134.5 252,-134.5"/>
<text text-anchor="middle" x="314.5" y="-141.5" font-family="Helvetica,sans-Serif" font-size="10.00">G4SubtractionSolid.hh</text>
</a>
</g>
</g>
<!-- Node5&#45;&gt;Node17 -->
<g id="edge16" class="edge">
<title>Node5&#45;&gt;Node17</title>
<path fill="none" stroke="midnightblue" d="M316.17,-190.08C315.91,-183.01 315.53,-172.86 315.2,-163.99"/>
<polygon fill="midnightblue" stroke="midnightblue" points="318.69,-163.61 314.82,-153.75 311.7,-163.87 318.69,-163.61"/>
</g>
<!-- Node18 -->
<g id="node18" class="node">
<title>Node18</title>
<g id="a_node18"><a xlink:title=" ">
<polygon fill="white" stroke="#bfbfbf" points="395.5,-134.5 395.5,-153.5 505.5,-153.5 505.5,-134.5 395.5,-134.5"/>
<text text-anchor="middle" x="450.5" y="-141.5" font-family="Helvetica,sans-Serif" font-size="10.00">G4PVPlacement.hh</text>
</a>
</g>
</g>
<!-- Node5&#45;&gt;Node18 -->
<g id="edge17" class="edge">
<title>Node5&#45;&gt;Node18</title>
<path fill="none" stroke="midnightblue" d="M337.73,-190.44C359.88,-181.52 394.82,-167.44 419.94,-157.32"/>
<polygon fill="midnightblue" stroke="midnightblue" points="421.4,-160.5 429.37,-153.52 418.78,-154.01 421.4,-160.5"/>
</g>
<!-- Node7 -->
<g id="node7" class="node">
<title>Node7</title>
<g id="a_node7"><a xlink:href="_o_m_sim_logger_8hh.html" target="_top" xlink:title=" ">
<polygon fill="white" stroke="black" points="1230,-73 1230,-92 1329,-92 1329,-73 1230,-73"/>
<text text-anchor="middle" x="1279.5" y="-80" font-family="Helvetica,sans-Serif" font-size="10.00">OMSimLogger.hh</text>
</a>
</g>
</g>
<!-- Node6&#45;&gt;Node7 -->
<g id="edge6" class="edge">
<title>Node6&#45;&gt;Node7</title>
<path fill="none" stroke="midnightblue" d="M639.07,-134.96C641.92,-134.62 644.74,-134.3 647.5,-134 857.36,-111.33 1107.44,-94.28 1219.73,-87.16"/>
<polygon fill="midnightblue" stroke="midnightblue" points="1220.08,-90.65 1229.84,-86.52 1219.64,-83.66 1220.08,-90.65"/>
</g>
<!-- Node12 -->
<g id="node12" class="node">
<title>Node12</title>
<g id="a_node12"><a xlink:title=" ">
<polygon fill="white" stroke="#bfbfbf" points="569,-73 569,-92 712,-92 712,-73 569,-73"/>
<text text-anchor="middle" x="640.5" y="-80" font-family="Helvetica,sans-Serif" font-size="10.00">G4OpBoundaryProcess.hh</text>
</a>
</g>
</g>
<!-- Node6&#45;&gt;Node12 -->
<g id="edge11" class="edge">
<title>Node6&#45;&gt;Node12</title>
<path fill="none" stroke="midnightblue" d="M589.95,-134.48C599.07,-125.28 613.77,-110.46 624.98,-99.16"/>
<polygon fill="midnightblue" stroke="midnightblue" points="627.51,-101.57 632.06,-92.01 622.54,-96.65 627.51,-101.57"/>
</g>
<!-- Node13 -->
<g id="node13" class="node">
<title>Node13</title>
<g id="a_node13"><a xlink:title=" ">
<polygon fill="white" stroke="#bfbfbf" points="847,-73 847,-92 966,-92 966,-73 847,-73"/>
<text text-anchor="middle" x="906.5" y="-80" font-family="Helvetica,sans-Serif" font-size="10.00">G4SystemOfUnits.hh</text>
</a>
</g>
</g>
<!-- Node6&#45;&gt;Node13 -->
<g id="edge12" class="edge">
<title>Node6&#45;&gt;Node13</title>
<path fill="none" stroke="midnightblue" d="M628.06,-134.48C686.59,-123.76 786.98,-105.38 849.88,-93.87"/>
<polygon fill="midnightblue" stroke="midnightblue" points="850.82,-97.25 860.02,-92.01 849.55,-90.37 850.82,-97.25"/>
</g>
<!-- Node14 -->
<g id="node14" class="node">
<title>Node14</title>
<g id="a_node14"><a xlink:title=" ">
<polygon fill="white" stroke="#bfbfbf" points="438,-67.5 438,-97.5 551,-97.5 551,-67.5 438,-67.5"/>
<text text-anchor="start" x="446" y="-85.5" font-family="Helvetica,sans-Serif" font-size="10.00">boost/property_tree</text>
<text text-anchor="middle" x="494.5" y="-74.5" font-family="Helvetica,sans-Serif" font-size="10.00">/json_parser.hpp</text>
</a>
</g>
</g>
<!-- Node6&#45;&gt;Node14 -->
<g id="edge13" class="edge">
<title>Node6&#45;&gt;Node14</title>
<path fill="none" stroke="midnightblue" d="M569.04,-134.48C557.14,-126.34 538.79,-113.79 523.27,-103.18"/>
<polygon fill="midnightblue" stroke="midnightblue" points="525.23,-100.28 515,-97.52 521.28,-106.06 525.23,-100.28"/>
</g>
<!-- Node8 -->
<g id="node8" class="node">
<title>Node8</title>
<g id="a_node8"><a xlink:title=" ">
<polygon fill="white" stroke="#bfbfbf" points="1061,-6 1061,-25 1154,-25 1154,-6 1061,-6"/>
<text text-anchor="middle" x="1107.5" y="-13" font-family="Helvetica,sans-Serif" font-size="10.00">spdlog/spdlog.h</text>
</a>
</g>
</g>
<!-- Node7&#45;&gt;Node8 -->
<g id="edge7" class="edge">
<title>Node7&#45;&gt;Node8</title>
<path fill="none" stroke="midnightblue" d="M1256.66,-72.87C1226.63,-61.52 1173.72,-41.52 1139.66,-28.65"/>
<polygon fill="midnightblue" stroke="midnightblue" points="1140.75,-25.32 1130.16,-25.06 1138.28,-31.87 1140.75,-25.32"/>
</g>
<!-- Node9 -->
<g id="node9" class="node">
<title>Node9</title>
<g id="a_node9"><a xlink:title=" ">
<polygon fill="white" stroke="#bfbfbf" points="1172,-0.5 1172,-30.5 1283,-30.5 1283,-0.5 1172,-0.5"/>
<text text-anchor="start" x="1180" y="-18.5" font-family="Helvetica,sans-Serif" font-size="10.00">spdlog/sinks/stdout</text>
<text text-anchor="middle" x="1227.5" y="-7.5" font-family="Helvetica,sans-Serif" font-size="10.00">_color_sinks.h</text>
</a>
</g>
</g>
<!-- Node7&#45;&gt;Node9 -->
<g id="edge8" class="edge">
<title>Node7&#45;&gt;Node9</title>
<path fill="none" stroke="midnightblue" d="M1272.49,-72.73C1265.53,-64.03 1254.58,-50.34 1245.22,-38.65"/>
<polygon fill="midnightblue" stroke="midnightblue" points="1247.75,-36.21 1238.77,-30.59 1242.29,-40.58 1247.75,-36.21"/>
</g>
<!-- Node10 -->
<g id="node10" class="node">
<title>Node10</title>
<g id="a_node10"><a xlink:title=" ">
<polygon fill="white" stroke="#bfbfbf" points="1301.5,-6 1301.5,-25 1359.5,-25 1359.5,-6 1301.5,-6"/>
<text text-anchor="middle" x="1330.5" y="-13" font-family="Helvetica,sans-Serif" font-size="10.00">memory</text>
</a>
</g>
</g>
<!-- Node7&#45;&gt;Node10 -->
<g id="edge9" class="edge">
<title>Node7&#45;&gt;Node10</title>
<path fill="none" stroke="midnightblue" d="M1286.38,-72.73C1294.33,-62.6 1307.6,-45.69 1317.51,-33.06"/>
<polygon fill="midnightblue" stroke="midnightblue" points="1320.31,-35.16 1323.73,-25.13 1314.8,-30.83 1320.31,-35.16"/>
</g>
<!-- Node11 -->
<g id="node11" class="node">
<title>Node11</title>
<g id="a_node11"><a xlink:title=" ">
<polygon fill="white" stroke="#bfbfbf" points="1377.5,-6 1377.5,-25 1475.5,-25 1475.5,-6 1377.5,-6"/>
<text text-anchor="middle" x="1426.5" y="-13" font-family="Helvetica,sans-Serif" font-size="10.00">spdlog/fmt/fmt.h</text>
</a>
</g>
</g>
<!-- Node7&#45;&gt;Node11 -->
<g id="edge10" class="edge">
<title>Node7&#45;&gt;Node11</title>
<path fill="none" stroke="midnightblue" d="M1299.02,-72.87C1324.28,-61.7 1368.5,-42.15 1397.64,-29.26"/>
<polygon fill="midnightblue" stroke="midnightblue" points="1399.17,-32.41 1406.9,-25.17 1396.34,-26.01 1399.17,-32.41"/>
</g>
<!-- Node20 -->
<g id="node20" class="node">
<title>Node20</title>
<g id="a_node20"><a xlink:href="_o_m_sim_p_m_t_response_8hh.html" target="_top" xlink:title="Simulation of PMT response.">
<polygon fill="white" stroke="black" points="700,-190.5 700,-209.5 835,-209.5 835,-190.5 700,-190.5"/>
<text text-anchor="middle" x="767.5" y="-197.5" font-family="Helvetica,sans-Serif" font-size="10.00">OMSimPMTResponse.hh</text>
</a>
</g>
</g>
<!-- Node19&#45;&gt;Node20 -->
<g id="edge19" class="edge">
<title>Node19&#45;&gt;Node20</title>
<path fill="none" stroke="midnightblue" d="M1074.66,-246.44C1009.66,-236.83 904.22,-221.23 835.37,-211.04"/>
<polygon fill="midnightblue" stroke="midnightblue" points="835.47,-207.52 825.06,-209.52 834.44,-214.44 835.47,-207.52"/>
</g>
<!-- Node25 -->
<g id="node25" class="node">
<title>Node25</title>
<g id="a_node25"><a xlink:title=" ">
<polygon fill="white" stroke="#bfbfbf" points="966,-190.5 966,-209.5 1069,-209.5 1069,-190.5 966,-190.5"/>
<text text-anchor="middle" x="1017.5" y="-197.5" font-family="Helvetica,sans-Serif" font-size="10.00">G4ThreeVector.hh</text>
</a>
</g>
</g>
<!-- Node19&#45;&gt;Node25 -->
<g id="edge25" class="edge">
<title>Node19&#45;&gt;Node25</title>
<path fill="none" stroke="midnightblue" d="M1114.28,-246.44C1095.6,-237.68 1066.34,-223.94 1044.88,-213.86"/>
<polygon fill="midnightblue" stroke="midnightblue" points="1046.18,-210.6 1035.64,-209.52 1043.2,-216.93 1046.18,-210.6"/>
</g>
<!-- Node26 -->
<g id="node26" class="node">
<title>Node26</title>
<g id="a_node26"><a xlink:title=" ">
<polygon fill="white" stroke="#bfbfbf" points="1196,-190.5 1196,-209.5 1251,-209.5 1251,-190.5 1196,-190.5"/>
<text text-anchor="middle" x="1223.5" y="-197.5" font-family="Helvetica,sans-Serif" font-size="10.00">fstream</text>
</a>
</g>
</g>
<!-- Node19&#45;&gt;Node26 -->
<g id="edge26" class="edge">
<title>Node19&#45;&gt;Node26</title>
<path fill="none" stroke="midnightblue" d="M1147.12,-246.32C1161.45,-237.82 1183.51,-224.73 1200.25,-214.8"/>
<polygon fill="midnightblue" stroke="midnightblue" points="1202.1,-217.77 1208.92,-209.65 1198.53,-211.75 1202.1,-217.77"/>
</g>
<!-- Node27 -->
<g id="node27" class="node">
<title>Node27</title>
<g id="a_node27"><a xlink:title=" ">
<polygon fill="white" stroke="#bfbfbf" points="1087.5,-190.5 1087.5,-209.5 1177.5,-209.5 1177.5,-190.5 1087.5,-190.5"/>
<text text-anchor="middle" x="1132.5" y="-197.5" font-family="Helvetica,sans-Serif" font-size="10.00">G4AutoLock.hh</text>
</a>
</g>
</g>
<!-- Node19&#45;&gt;Node27 -->
<g id="edge27" class="edge">
<title>Node19&#45;&gt;Node27</title>
<path fill="none" stroke="midnightblue" d="M1132.5,-246.08C1132.5,-239.01 1132.5,-228.86 1132.5,-219.99"/>
<polygon fill="midnightblue" stroke="midnightblue" points="1136,-219.75 1132.5,-209.75 1129,-219.75 1136,-219.75"/>
</g>
<!-- Node28 -->
<g id="node28" class="node">
<title>Node28</title>
<g id="a_node28"><a xlink:title=" ">
<polygon fill="white" stroke="#bfbfbf" points="853.5,-190.5 853.5,-209.5 947.5,-209.5 947.5,-190.5 853.5,-190.5"/>
<text text-anchor="middle" x="900.5" y="-197.5" font-family="Helvetica,sans-Serif" font-size="10.00">G4Threading.hh</text>
</a>
</g>
</g>
<!-- Node19&#45;&gt;Node28 -->
<g id="edge28" class="edge">
<title>Node19&#45;&gt;Node28</title>
<path fill="none" stroke="midnightblue" d="M1095.74,-246.44C1055.44,-237.06 990.69,-221.99 946.92,-211.8"/>
<polygon fill="midnightblue" stroke="midnightblue" points="947.62,-208.37 937.09,-209.52 946.04,-215.19 947.62,-208.37"/>
</g>
<!-- Node20&#45;&gt;Node13 -->
<g id="edge20" class="edge">
<title>Node20&#45;&gt;Node13</title>
<path fill="none" stroke="midnightblue" d="M835.1,-190.57C879.47,-183.5 931.74,-171.67 945.5,-154 959.04,-136.61 941.14,-113.93 925.38,-99.05"/>
<polygon fill="midnightblue" stroke="midnightblue" points="927.3,-96.08 917.5,-92.05 922.65,-101.31 927.3,-96.08"/>
</g>
<!-- Node21 -->
<g id="node21" class="node">
<title>Node21</title>
<g id="a_node21"><a xlink:title=" ">
<polygon fill="white" stroke="#bfbfbf" points="657,-134.5 657,-153.5 730,-153.5 730,-134.5 657,-134.5"/>
<text text-anchor="middle" x="693.5" y="-141.5" font-family="Helvetica,sans-Serif" font-size="10.00">G4Types.hh</text>
</a>
</g>
</g>
<!-- Node20&#45;&gt;Node21 -->
<g id="edge21" class="edge">
<title>Node20&#45;&gt;Node21</title>
<path fill="none" stroke="midnightblue" d="M755.61,-190.32C744.35,-182.11 727.21,-169.6 713.79,-159.81"/>
<polygon fill="midnightblue" stroke="midnightblue" points="715.75,-156.9 705.61,-153.83 711.62,-162.56 715.75,-156.9"/>
</g>
<!-- Node22 -->
<g id="node22" class="node">
<title>Node22</title>
<g id="a_node22"><a xlink:title=" ">
<polygon fill="white" stroke="#bfbfbf" points="748.5,-134.5 748.5,-153.5 786.5,-153.5 786.5,-134.5 748.5,-134.5"/>
<text text-anchor="middle" x="767.5" y="-141.5" font-family="Helvetica,sans-Serif" font-size="10.00">map</text>
</a>
</g>
</g>
<!-- Node20&#45;&gt;Node22 -->
<g id="edge22" class="edge">
<title>Node20&#45;&gt;Node22</title>
<path fill="none" stroke="midnightblue" d="M767.5,-190.08C767.5,-183.01 767.5,-172.86 767.5,-163.99"/>
<polygon fill="midnightblue" stroke="midnightblue" points="771,-163.75 767.5,-153.75 764,-163.75 771,-163.75"/>
</g>
<!-- Node23 -->
<g id="node23" class="node">
<title>Node23</title>
<g id="a_node23"><a xlink:title=" ">
<polygon fill="white" stroke="#bfbfbf" points="805,-134.5 805,-153.5 866,-153.5 866,-134.5 805,-134.5"/>
<text text-anchor="middle" x="835.5" y="-141.5" font-family="Helvetica,sans-Serif" font-size="10.00">TGraph.h</text>
</a>
</g>
</g>
<!-- Node20&#45;&gt;Node23 -->
<g id="edge23" class="edge">
<title>Node20&#45;&gt;Node23</title>
<path fill="none" stroke="midnightblue" d="M778.43,-190.32C788.67,-182.18 804.22,-169.84 816.5,-160.09"/>
<polygon fill="midnightblue" stroke="midnightblue" points="818.72,-162.79 824.38,-153.83 814.37,-157.31 818.72,-162.79"/>
</g>
<!-- Node24 -->
<g id="node24" class="node">
<title>Node24</title>
<g id="a_node24"><a xlink:title=" ">
<polygon fill="white" stroke="#bfbfbf" points="884,-134.5 884,-153.5 937,-153.5 937,-134.5 884,-134.5"/>
<text text-anchor="middle" x="910.5" y="-141.5" font-family="Helvetica,sans-Serif" font-size="10.00">TH2D.h</text>
</a>
</g>
</g>
<!-- Node20&#45;&gt;Node24 -->
<g id="edge24" class="edge">
<title>Node20&#45;&gt;Node24</title>
<path fill="none" stroke="midnightblue" d="M790.16,-190.44C813.9,-181.48 851.41,-167.31 878.24,-157.18"/>
<polygon fill="midnightblue" stroke="midnightblue" points="879.83,-160.32 887.95,-153.52 877.36,-153.77 879.83,-160.32"/>
</g>
<!-- Node29&#45;&gt;Node5 -->
<g id="edge30" class="edge">
<title>Node29&#45;&gt;Node5</title>
<path fill="none" stroke="midnightblue" d="M317.33,-246.08C317.2,-239.01 317.02,-228.86 316.85,-219.99"/>
<polygon fill="midnightblue" stroke="midnightblue" points="320.35,-219.68 316.66,-209.75 313.35,-219.81 320.35,-219.68"/>
</g>
<!-- Node29&#45;&gt;Node20 -->
<g id="edge32" class="edge">
<title>Node29&#45;&gt;Node20</title>
<path fill="none" stroke="midnightblue" d="M388.8,-246.44C470.85,-236.6 605.11,-220.49 689.77,-210.33"/>
<polygon fill="midnightblue" stroke="midnightblue" points="690.33,-213.79 699.84,-209.12 689.49,-206.84 690.33,-213.79"/>
</g>
<!-- Node29&#45;&gt;Node29 -->
<g id="edge31" class="edge">
<title>Node29&#45;&gt;Node29</title>
<path fill="none" stroke="midnightblue" d="M356.95,-265.53C383.76,-268.31 410,-265.13 410,-256 410,-248.01 389.91,-244.58 366.93,-245.71"/>
<polygon fill="midnightblue" stroke="midnightblue" points="366.65,-242.22 356.95,-246.47 367.19,-249.2 366.65,-242.22"/>
</g>
<!-- Node30 -->
<g id="node30" class="node">
<title>Node30</title>
<g id="a_node30"><a xlink:title=" ">
<polygon fill="white" stroke="#bfbfbf" points="104.5,-190.5 104.5,-209.5 202.5,-209.5 202.5,-190.5 104.5,-190.5"/>
<text text-anchor="middle" x="153.5" y="-197.5" font-family="Helvetica,sans-Serif" font-size="10.00">G4UnionSolid.hh</text>
</a>
</g>
</g>
<!-- Node29&#45;&gt;Node30 -->
<g id="edge33" class="edge">
<title>Node29&#45;&gt;Node30</title>
<path fill="none" stroke="midnightblue" d="M291.51,-246.44C263.8,-237.32 219.75,-222.81 188.88,-212.65"/>
<polygon fill="midnightblue" stroke="midnightblue" points="189.96,-209.32 179.36,-209.52 187.77,-215.97 189.96,-209.32"/>
</g>
<!-- Node29&#45;&gt;Node31 -->
<g id="edge34" class="edge">
<title>Node29&#45;&gt;Node31</title>
<path fill="none" stroke="midnightblue" d="M353.47,-246.44C393.51,-236.92 458.22,-221.52 501.06,-211.33"/>
<polygon fill="midnightblue" stroke="midnightblue" points="502,-214.71 510.92,-208.99 500.38,-207.9 502,-214.71"/>
</g>
<!-- Node34&#45;&gt;Node4 -->
<g id="edge43" class="edge">
<title>Node34&#45;&gt;Node4</title>
<path fill="none" stroke="midnightblue" d="M246.63,-358.44C286.15,-349.08 349.6,-334.06 392.61,-323.87"/>
<polygon fill="midnightblue" stroke="midnightblue" points="393.62,-327.23 402.54,-321.52 392,-320.42 393.62,-327.23"/>
</g>
<!-- Node34&#45;&gt;Node29 -->
<g id="edge42" class="edge">
<title>Node34&#45;&gt;Node29</title>
<path fill="none" stroke="midnightblue" d="M218.9,-358.37C236.79,-339.97 278.91,-296.67 301.89,-273.05"/>
<polygon fill="midnightblue" stroke="midnightblue" points="304.68,-275.2 309.14,-265.59 299.66,-270.32 304.68,-275.2"/>
</g>
<!-- Node35 -->
<g id="node35" class="node">
<title>Node35</title>
<g id="a_node35"><a xlink:href="_o_m_sim_m_d_o_m_flasher_8hh.html" target="_top" xlink:title="Defines the mDOMFlasher class for simulating the 10 flashers in an mDOM optical module.">
<polygon fill="white" stroke="black" points="64,-302.5 64,-321.5 199,-321.5 199,-302.5 64,-302.5"/>
<text text-anchor="middle" x="131.5" y="-309.5" font-family="Helvetica,sans-Serif" font-size="10.00">OMSimMDOMFlasher.hh</text>
</a>
</g>
</g>
<!-- Node34&#45;&gt;Node35 -->
<g id="edge38" class="edge">
<title>Node34&#45;&gt;Node35</title>
<path fill="none" stroke="midnightblue" d="M197.81,-358.32C185.6,-349.98 166.92,-337.21 152.5,-327.35"/>
<polygon fill="midnightblue" stroke="midnightblue" points="154.39,-324.41 144.16,-321.65 150.44,-330.19 154.39,-324.41"/>
</g>
<!-- Node35&#45;&gt;Node5 -->
<g id="edge39" class="edge">
<title>Node35&#45;&gt;Node5</title>
<path fill="none" stroke="midnightblue" d="M144.2,-302.5C163.32,-289.79 200.75,-265.28 233.5,-246 252.39,-234.88 274.2,-223.09 290.72,-214.38"/>
<polygon fill="midnightblue" stroke="midnightblue" points="292.54,-217.37 299.77,-209.63 289.29,-211.17 292.54,-217.37"/>
</g>
<!-- Node35&#45;&gt;Node30 -->
<g id="edge40" class="edge">
<title>Node35&#45;&gt;Node30</title>
<path fill="none" stroke="midnightblue" d="M133.23,-302.37C136.78,-284.62 144.97,-243.67 149.78,-219.6"/>
<polygon fill="midnightblue" stroke="midnightblue" points="153.25,-220.08 151.78,-209.59 146.39,-218.71 153.25,-220.08"/>
</g>
<!-- Node35&#45;&gt;Node36 -->
<g id="edge41" class="edge">
<title>Node35&#45;&gt;Node36</title>
<path fill="none" stroke="midnightblue" d="M119.61,-302.32C108.35,-294.11 91.21,-281.6 77.79,-271.81"/>
<polygon fill="midnightblue" stroke="midnightblue" points="79.75,-268.9 69.61,-265.83 75.62,-274.56 79.75,-268.9"/>
</g>
<!-- Node37&#45;&gt;Node4 -->
<g id="edge46" class="edge">
<title>Node37&#45;&gt;Node4</title>
<path fill="none" stroke="midnightblue" d="M440.17,-358.08C439.91,-351.01 439.53,-340.86 439.2,-331.99"/>
<polygon fill="midnightblue" stroke="midnightblue" points="442.69,-331.61 438.82,-321.75 435.7,-331.87 442.69,-331.61"/>
</g>
<!-- Node37&#45;&gt;Node29 -->
<g id="edge45" class="edge">
<title>Node37&#45;&gt;Node29</title>
<path fill="none" stroke="midnightblue" d="M391.78,-359.1C368.88,-352.86 343.21,-341.74 327.5,-322 317.18,-309.03 315.35,-289.86 315.7,-275.7"/>
<polygon fill="midnightblue" stroke="midnightblue" points="319.2,-275.83 316.32,-265.63 312.21,-275.4 319.2,-275.83"/>
</g>
<!-- Node38&#45;&gt;Node4 -->
<g id="edge49" class="edge">
<title>Node38&#45;&gt;Node4</title>
<path fill="none" stroke="midnightblue" d="M538.64,-358.44C519.23,-349.64 488.77,-335.81 466.54,-325.72"/>
<polygon fill="midnightblue" stroke="midnightblue" points="467.82,-322.46 457.27,-321.52 464.93,-328.84 467.82,-322.46"/>
</g>
<!-- Node38&#45;&gt;Node29 -->
<g id="edge48" class="edge">
<title>Node38&#45;&gt;Node29</title>
<path fill="none" stroke="midnightblue" d="M511.79,-358.42C457.57,-347.95 372.9,-330.59 360.5,-322 343.69,-310.36 331.74,-289.81 324.77,-274.93"/>
<polygon fill="midnightblue" stroke="midnightblue" points="327.96,-273.47 320.75,-265.71 321.54,-276.27 327.96,-273.47"/>
</g>
<!-- Node39&#45;&gt;Node4 -->
<g id="edge52" class="edge">
<title>Node39&#45;&gt;Node4</title>
<path fill="none" stroke="midnightblue" d="M638.79,-358.44C597.36,-349.04 530.74,-333.93 485.83,-323.74"/>
<polygon fill="midnightblue" stroke="midnightblue" points="486.56,-320.32 476.04,-321.52 485.01,-327.14 486.56,-320.32"/>
</g>
<!-- Node39&#45;&gt;Node29 -->
<g id="edge51" class="edge">
<title>Node39&#45;&gt;Node29</title>
<path fill="none" stroke="midnightblue" d="M702.58,-358.43C733.55,-346.95 778.53,-325.29 757.5,-302 734.19,-276.19 523.54,-264.37 402.36,-259.67"/>
<polygon fill="midnightblue" stroke="midnightblue" points="402.48,-256.17 392.35,-259.29 402.21,-263.17 402.48,-256.17"/>
</g>
<!-- Node40 -->
<g id="node40" class="node">
<title>Node40</title>
<g id="a_node40"><a xlink:title=" ">
<polygon fill="white" stroke="#bfbfbf" points="525.5,-302.5 525.5,-321.5 641.5,-321.5 641.5,-302.5 525.5,-302.5"/>
<text text-anchor="middle" x="583.5" y="-309.5" font-family="Helvetica,sans-Serif" font-size="10.00">G4LogicalVolume.hh</text>
</a>
</g>
</g>
<!-- Node39&#45;&gt;Node40 -->
<g id="edge53" class="edge">
<title>Node39&#45;&gt;Node40</title>
<path fill="none" stroke="midnightblue" d="M661.56,-358.32C646.91,-349.82 624.37,-336.73 607.26,-326.8"/>
<polygon fill="midnightblue" stroke="midnightblue" points="608.81,-323.65 598.4,-321.65 605.3,-329.7 608.81,-323.65"/>
</g>
<!-- Node41 -->
<g id="node41" class="node">
<title>Node41</title>
<g id="a_node41"><a xlink:title=" ">
<polygon fill="white" stroke="#bfbfbf" points="660,-302.5 660,-321.5 749,-321.5 749,-302.5 660,-302.5"/>
<text text-anchor="middle" x="704.5" y="-309.5" font-family="Helvetica,sans-Serif" font-size="10.00">G4Polycone.hh</text>
</a>
</g>
</g>
<!-- Node39&#45;&gt;Node41 -->
<g id="edge54" class="edge">
<title>Node39&#45;&gt;Node41</title>
<path fill="none" stroke="midnightblue" d="M681.12,-358.08C684.96,-350.69 690.52,-339.95 695.26,-330.81"/>
<polygon fill="midnightblue" stroke="midnightblue" points="698.47,-332.24 699.96,-321.75 692.25,-329.02 698.47,-332.24"/>
</g>
<!-- Node42&#45;&gt;Node4 -->
<g id="edge57" class="edge">
<title>Node42&#45;&gt;Node4</title>
<path fill="none" stroke="midnightblue" d="M344.49,-358.32C362.54,-349.62 390.55,-336.12 411.3,-326.11"/>
<polygon fill="midnightblue" stroke="midnightblue" points="413.06,-329.15 420.55,-321.65 410.02,-322.84 413.06,-329.15"/>
</g>
<!-- Node42&#45;&gt;Node29 -->
<g id="edge56" class="edge">
<title>Node42&#45;&gt;Node29</title>
<path fill="none" stroke="midnightblue" d="M316.06,-358.24C307.08,-349.97 294.75,-336.66 289.5,-322 283.51,-305.27 293.22,-286.7 302.81,-273.7"/>
<polygon fill="midnightblue" stroke="midnightblue" points="305.71,-275.68 309.23,-265.69 300.25,-271.31 305.71,-275.68"/>
</g>
<!-- Node43&#45;&gt;Node7 -->
<g id="edge61" class="edge">
<title>Node43&#45;&gt;Node7</title>
<path fill="none" stroke="midnightblue" d="M1383.63,-246.48C1425.17,-238.09 1465.99,-221.69 1448.5,-190 1420.95,-140.07 1359.06,-110.34 1318.32,-95.46"/>
<polygon fill="midnightblue" stroke="midnightblue" points="1319.3,-92.1 1308.7,-92.08 1316.97,-98.7 1319.3,-92.1"/>
</g>
<!-- Node43&#45;&gt;Node26 -->
<g id="edge62" class="edge">
<title>Node43&#45;&gt;Node26</title>
<path fill="none" stroke="midnightblue" d="M1297.36,-246.32C1283.63,-237.9 1262.56,-224.97 1246.44,-215.07"/>
<polygon fill="midnightblue" stroke="midnightblue" points="1247.96,-211.9 1237.6,-209.65 1244.3,-217.87 1247.96,-211.9"/>
</g>
<!-- Node44 -->
<g id="node44" class="node">
<title>Node44</title>
<g id="a_node44"><a xlink:title=" ">
<polygon fill="white" stroke="#bfbfbf" points="1269.5,-190.5 1269.5,-209.5 1353.5,-209.5 1353.5,-190.5 1269.5,-190.5"/>
<text text-anchor="middle" x="1311.5" y="-197.5" font-family="Helvetica,sans-Serif" font-size="10.00">boost/any.hpp</text>
</a>
</g>
</g>
<!-- Node43&#45;&gt;Node44 -->
<g id="edge63" class="edge">
<title>Node43&#45;&gt;Node44</title>
<path fill="none" stroke="midnightblue" d="M1311.5,-246.08C1311.5,-239.01 1311.5,-228.86 1311.5,-219.99"/>
<polygon fill="midnightblue" stroke="midnightblue" points="1315,-219.75 1311.5,-209.75 1308,-219.75 1315,-219.75"/>
</g>
<!-- Node45 -->
<g id="node45" class="node">
<title>Node45</title>
<g id="a_node45"><a xlink:title=" ">
<polygon fill="white" stroke="#bfbfbf" points="1371.5,-190.5 1371.5,-209.5 1439.5,-209.5 1439.5,-190.5 1371.5,-190.5"/>
<text text-anchor="middle" x="1405.5" y="-197.5" font-family="Helvetica,sans-Serif" font-size="10.00">sys/time.h</text>
</a>
</g>
</g>
<!-- Node43&#45;&gt;Node45 -->
<g id="edge64" class="edge">
<title>Node43&#45;&gt;Node45</title>
<path fill="none" stroke="midnightblue" d="M1326.6,-246.32C1341.4,-237.82 1364.19,-224.73 1381.48,-214.8"/>
<polygon fill="midnightblue" stroke="midnightblue" points="1383.51,-217.67 1390.43,-209.65 1380.02,-211.6 1383.51,-217.67"/>
</g>
</g>
</svg>
