<?xml version="1.0" encoding="UTF-8" standalone="no"?>
<!DOCTYPE svg PUBLIC "-//W3C//DTD SVG 1.1//EN"
 "http://www.w3.org/Graphics/SVG/1.1/DTD/svg11.dtd">
<!-- Generated by graphviz version 2.43.0 (0)
 -->
<!-- Title: OMSim.cc Pages: 1 -->
<svg width="1858pt" height="478pt"
 viewBox="0.00 0.00 1858.00 478.00" xmlns="http://www.w3.org/2000/svg" xmlns:xlink="http://www.w3.org/1999/xlink">
<g id="graph0" class="graph" transform="scale(1 1) rotate(0) translate(4 474)">
<title>OMSim.cc</title>
<!-- Node1 -->
<g id="Node000001" class="node">
<title>Node1</title>
<g id="a_Node000001"><a xlink:title="Implementation of the OMSim class.">
<polygon fill="#999999" stroke="#666666" points="1585.5,-470 1520.5,-470 1520.5,-451 1585.5,-451 1585.5,-470"/>
<text text-anchor="middle" x="1553" y="-458" font-family="Helvetica,sans-Serif" font-size="10.00">OMSim.cc</text>
</a>
</g>
</g>
<!-- Node2 -->
<g id="Node000002" class="node">
<title>Node2</title>
<g id="a_Node000002"><a xlink:href="_o_m_sim_8hh.html" target="_top" xlink:title="Main simulation class for the Optical Module (OM) simulation. This file defines the OMSim class,...">
<polygon fill="white" stroke="#666666" points="1037.5,-415 970.5,-415 970.5,-396 1037.5,-396 1037.5,-415"/>
<text text-anchor="middle" x="1004" y="-403" font-family="Helvetica,sans-Serif" font-size="10.00">OMSim.hh</text>
</a>
</g>
</g>
<!-- Node1&#45;&gt;Node2 -->
<g id="edge1_Node000001_Node000002" class="edge">
<title>Node1&#45;&gt;Node2</title>
<g id="a_edge1_Node000001_Node000002"><a xlink:title=" ">
<path fill="none" stroke="#63b8ff" d="M1520.3,-456.34C1426.14,-447.25 1154.29,-421.01 1047.66,-410.71"/>
<polygon fill="#63b8ff" stroke="#63b8ff" points="1047.86,-407.22 1037.57,-409.74 1047.19,-414.19 1047.86,-407.22"/>
</a>
</g>
</g>
<!-- Node7 -->
<g id="Node000007" class="node">
<title>Node7</title>
<g id="a_Node000007"><a xlink:href="_o_m_sim_logger_8hh_source.html" target="_top" xlink:title=" ">
<polygon fill="white" stroke="#666666" points="1309.5,-85 1210.5,-85 1210.5,-66 1309.5,-66 1309.5,-85"/>
<text text-anchor="middle" x="1260" y="-73" font-family="Helvetica,sans-Serif" font-size="10.00">OMSimLogger.hh</text>
</a>
</g>
</g>
<!-- Node1&#45;&gt;Node7 -->
<g id="edge59_Node000001_Node000007" class="edge">
<title>Node1&#45;&gt;Node7</title>
<g id="a_edge59_Node000001_Node000007"><a xlink:title=" ">
<path fill="none" stroke="#63b8ff" d="M1570.94,-451C1600.45,-435.62 1656,-400.21 1656,-351.5 1656,-351.5 1656,-351.5 1656,-184.5 1656,-115.66 1430.41,-89.21 1319.77,-80.38"/>
<polygon fill="#63b8ff" stroke="#63b8ff" points="1319.99,-76.89 1309.75,-79.6 1319.45,-83.86 1319.99,-76.89"/>
</a>
</g>
</g>
<!-- Node58 -->
<g id="Node000058" class="node">
<title>Node58</title>
<g id="a_Node000058"><a xlink:title=" ">
<polygon fill="#e0e0e0" stroke="#999999" points="1628,-360 1478,-360 1478,-341 1628,-341 1628,-360"/>
<text text-anchor="middle" x="1553" y="-348" font-family="Helvetica,sans-Serif" font-size="10.00">boost/program_options.hpp</text>
</a>
</g>
</g>
<!-- Node1&#45;&gt;Node58 -->
<g id="edge62_Node000001_Node000058" class="edge">
<title>Node1&#45;&gt;Node58</title>
<g id="a_edge62_Node000001_Node000058"><a xlink:title=" ">
<path fill="none" stroke="#63b8ff" d="M1553,-450.66C1553,-433.17 1553,-393.8 1553,-370.27"/>
<polygon fill="#63b8ff" stroke="#63b8ff" points="1556.5,-370.16 1553,-360.16 1549.5,-370.16 1556.5,-370.16"/>
</a>
</g>
</g>
<!-- Node59 -->
<g id="Node000059" class="node">
<title>Node59</title>
<g id="a_Node000059"><a xlink:href="_o_m_sim_tools_8hh.html" target="_top" xlink:title="Definition of Tools namespace, a collection of helper methods.">
<polygon fill="white" stroke="#666666" points="546,-195 454,-195 454,-176 546,-176 546,-195"/>
<text text-anchor="middle" x="500" y="-183" font-family="Helvetica,sans-Serif" font-size="10.00">OMSimTools.hh</text>
</a>
</g>
</g>
<!-- Node1&#45;&gt;Node59 -->
<g id="edge52_Node000001_Node000059" class="edge">
<title>Node1&#45;&gt;Node59</title>
<g id="a_edge52_Node000001_Node000059"><a xlink:title=" ">
<path fill="none" stroke="#63b8ff" d="M1520.21,-458.99C1296.16,-455.3 0,-430.51 0,-351.5 0,-351.5 0,-351.5 0,-294.5 0,-204.58 312.9,-189.34 443.65,-186.9"/>
<polygon fill="#63b8ff" stroke="#63b8ff" points="443.92,-190.39 453.86,-186.73 443.8,-183.39 443.92,-190.39"/>
</a>
</g>
</g>
<!-- Node63 -->
<g id="Node000063" class="node">
<title>Node63</title>
<g id="a_Node000063"><a xlink:href="_o_m_sim_action_initialization_8hh_source.html" target="_top" xlink:title=" ">
<polygon fill="white" stroke="#666666" points="1844,-415 1686,-415 1686,-396 1844,-396 1844,-415"/>
<text text-anchor="middle" x="1765" y="-403" font-family="Helvetica,sans-Serif" font-size="10.00">OMSimActionInitialization.hh</text>
</a>
</g>
</g>
<!-- Node1&#45;&gt;Node63 -->
<g id="edge60_Node000001_Node000063" class="edge">
<title>Node1&#45;&gt;Node63</title>
<g id="a_edge60_Node000001_Node000063"><a xlink:title=" ">
<path fill="none" stroke="#63b8ff" d="M1585.66,-451.33C1621.96,-442.26 1680.76,-427.56 1721.07,-417.48"/>
<polygon fill="#63b8ff" stroke="#63b8ff" points="1722.04,-420.85 1730.9,-415.03 1720.35,-414.06 1722.04,-420.85"/>
</a>
</g>
</g>
<!-- Node3 -->
<g id="Node000003" class="node">
<title>Node3</title>
<g id="a_Node000003"><a xlink:href="_o_m_sim_detector_construction_8hh_source.html" target="_top" xlink:title=" ">
<polygon fill="white" stroke="#666666" points="1282,-360 1112,-360 1112,-341 1282,-341 1282,-360"/>
<text text-anchor="middle" x="1197" y="-348" font-family="Helvetica,sans-Serif" font-size="10.00">OMSimDetectorConstruction.hh</text>
</a>
</g>
</g>
<!-- Node2&#45;&gt;Node3 -->
<g id="edge2_Node000002_Node000003" class="edge">
<title>Node2&#45;&gt;Node3</title>
<g id="a_edge2_Node000002_Node000003"><a xlink:title=" ">
<path fill="none" stroke="#63b8ff" d="M1035.01,-395.98C1067.83,-386.97 1119.8,-372.7 1155.99,-362.76"/>
<polygon fill="#63b8ff" stroke="#63b8ff" points="1157.03,-366.11 1165.75,-360.08 1155.18,-359.36 1157.03,-366.11"/>
</a>
</g>
</g>
<!-- Node39 -->
<g id="Node000039" class="node">
<title>Node39</title>
<g id="a_Node000039"><a xlink:title=" ">
<polygon fill="#e0e0e0" stroke="#999999" points="1421.5,-360 1300.5,-360 1300.5,-341 1421.5,-341 1421.5,-360"/>
<text text-anchor="middle" x="1361" y="-348" font-family="Helvetica,sans-Serif" font-size="10.00">OMSimPhysicsList.hh</text>
</a>
</g>
</g>
<!-- Node2&#45;&gt;Node39 -->
<g id="edge27_Node000002_Node000039" class="edge">
<title>Node2&#45;&gt;Node39</title>
<g id="a_edge27_Node000002_Node000039"><a xlink:title=" ">
<path fill="none" stroke="#63b8ff" d="M1037.59,-399.51C1095.98,-390.85 1217.25,-372.84 1293.57,-361.51"/>
<polygon fill="#63b8ff" stroke="#63b8ff" points="1294.19,-364.96 1303.57,-360.03 1293.16,-358.03 1294.19,-364.96"/>
</a>
</g>
</g>
<!-- Node40 -->
<g id="Node000040" class="node">
<title>Node40</title>
<g id="a_Node000040"><a xlink:title=" ">
<polygon fill="#e0e0e0" stroke="#999999" points="212.5,-360 27.5,-360 27.5,-341 212.5,-341 212.5,-360"/>
<text text-anchor="middle" x="120" y="-348" font-family="Helvetica,sans-Serif" font-size="10.00">OMSimPrimaryGeneratorAction.hh</text>
</a>
</g>
</g>
<!-- Node2&#45;&gt;Node40 -->
<g id="edge28_Node000002_Node000040" class="edge">
<title>Node2&#45;&gt;Node40</title>
<g id="a_edge28_Node000002_Node000040"><a xlink:title=" ">
<path fill="none" stroke="#63b8ff" d="M970.4,-402.92C863.1,-397.8 518.83,-380.83 222.8,-360.11"/>
<polygon fill="#63b8ff" stroke="#63b8ff" points="222.95,-356.61 212.73,-359.4 222.46,-363.59 222.95,-356.61"/>
</a>
</g>
</g>
<!-- Node41 -->
<g id="Node000041" class="node">
<title>Node41</title>
<g id="a_Node000041"><a xlink:href="_o_m_sim_run_action_8hh_source.html" target="_top" xlink:title=" ">
<polygon fill="white" stroke="#666666" points="906,-305 790,-305 790,-286 906,-286 906,-305"/>
<text text-anchor="middle" x="848" y="-293" font-family="Helvetica,sans-Serif" font-size="10.00">OMSimRunAction.hh</text>
</a>
</g>
</g>
<!-- Node2&#45;&gt;Node41 -->
<g id="edge29_Node000002_Node000041" class="edge">
<title>Node2&#45;&gt;Node41</title>
<g id="a_edge29_Node000002_Node000041"><a xlink:title=" ">
<path fill="none" stroke="#63b8ff" d="M1022.86,-395.83C1046.18,-383.95 1080.86,-361.69 1064,-341 1045.56,-318.37 972.43,-306.91 916.32,-301.34"/>
<polygon fill="#63b8ff" stroke="#63b8ff" points="916.34,-297.83 906.06,-300.37 915.68,-304.8 916.34,-297.83"/>
</a>
</g>
</g>
<!-- Node45 -->
<g id="Node000045" class="node">
<title>Node45</title>
<g id="a_Node000045"><a xlink:title=" ">
<polygon fill="#e0e0e0" stroke="#999999" points="355.5,-360 230.5,-360 230.5,-341 355.5,-341 355.5,-360"/>
<text text-anchor="middle" x="293" y="-348" font-family="Helvetica,sans-Serif" font-size="10.00">OMSimEventAction.hh</text>
</a>
</g>
</g>
<!-- Node2&#45;&gt;Node45 -->
<g id="edge35_Node000002_Node000045" class="edge">
<title>Node2&#45;&gt;Node45</title>
<g id="a_edge35_Node000002_Node000045"><a xlink:title=" ">
<path fill="none" stroke="#63b8ff" d="M970.35,-402.73C876.55,-397.66 604,-382.13 366.04,-360.05"/>
<polygon fill="#63b8ff" stroke="#63b8ff" points="366.09,-356.54 355.81,-359.09 365.44,-363.51 366.09,-356.54"/>
</a>
</g>
</g>
<!-- Node46 -->
<g id="Node000046" class="node">
<title>Node46</title>
<g id="a_Node000046"><a xlink:href="_o_m_sim_tracking_action_8hh_source.html" target="_top" xlink:title=" ">
<polygon fill="white" stroke="#666666" points="512,-360 374,-360 374,-341 512,-341 512,-360"/>
<text text-anchor="middle" x="443" y="-348" font-family="Helvetica,sans-Serif" font-size="10.00">OMSimTrackingAction.hh</text>
</a>
</g>
</g>
<!-- Node2&#45;&gt;Node46 -->
<g id="edge36_Node000002_Node000046" class="edge">
<title>Node2&#45;&gt;Node46</title>
<g id="a_edge36_Node000002_Node000046"><a xlink:title=" ">
<path fill="none" stroke="#63b8ff" d="M970.31,-401.59C893.12,-394.88 697.27,-377.63 522.47,-360.13"/>
<polygon fill="#63b8ff" stroke="#63b8ff" points="522.62,-356.63 512.32,-359.11 521.92,-363.6 522.62,-356.63"/>
</a>
</g>
</g>
<!-- Node48 -->
<g id="Node000048" class="node">
<title>Node48</title>
<g id="a_Node000048"><a xlink:href="_o_m_sim_stepping_action_8hh.html" target="_top" xlink:title="Defines OMSimSteppingAction.Currently it only checks for trapped photons.">
<polygon fill="white" stroke="#666666" points="670,-360 530,-360 530,-341 670,-341 670,-360"/>
<text text-anchor="middle" x="600" y="-348" font-family="Helvetica,sans-Serif" font-size="10.00">OMSimSteppingAction.hh</text>
</a>
</g>
</g>
<!-- Node2&#45;&gt;Node48 -->
<g id="edge38_Node000002_Node000048" class="edge">
<title>Node2&#45;&gt;Node48</title>
<g id="a_edge38_Node000002_Node000048"><a xlink:title=" ">
<path fill="none" stroke="#63b8ff" d="M970.25,-400.07C905.61,-391.59 762.93,-372.87 674.78,-361.31"/>
<polygon fill="#63b8ff" stroke="#63b8ff" points="675.21,-357.84 664.84,-360.01 674.3,-364.78 675.21,-357.84"/>
</a>
</g>
</g>
<!-- Node50 -->
<g id="Node000050" class="node">
<title>Node50</title>
<g id="a_Node000050"><a xlink:href="_o_m_sim_u_iinterface_8hh.html" target="_top" xlink:title=" ">
<polygon fill="white" stroke="#666666" points="1562.5,-305 1441.5,-305 1441.5,-286 1562.5,-286 1562.5,-305"/>
<text text-anchor="middle" x="1502" y="-293" font-family="Helvetica,sans-Serif" font-size="10.00">OMSimUIinterface.hh</text>
</a>
</g>
</g>
<!-- Node2&#45;&gt;Node50 -->
<g id="edge40_Node000002_Node000050" class="edge">
<title>Node2&#45;&gt;Node50</title>
<g id="a_edge40_Node000002_Node000050"><a xlink:title=" ">
<path fill="none" stroke="#63b8ff" d="M1037.74,-403.61C1125.63,-400.88 1359.69,-390.84 1430,-360 1453.73,-349.59 1475.2,-328.4 1488.39,-313.37"/>
<polygon fill="#63b8ff" stroke="#63b8ff" points="1491.38,-315.25 1495.16,-305.35 1486.03,-310.73 1491.38,-315.25"/>
</a>
</g>
</g>
<!-- Node55 -->
<g id="Node000055" class="node">
<title>Node55</title>
<g id="a_Node000055"><a xlink:title=" ">
<polygon fill="#e0e0e0" stroke="#999999" points="809.5,-360 688.5,-360 688.5,-341 809.5,-341 809.5,-360"/>
<text text-anchor="middle" x="749" y="-348" font-family="Helvetica,sans-Serif" font-size="10.00">G4MTRunManager.hh</text>
</a>
</g>
</g>
<!-- Node2&#45;&gt;Node55 -->
<g id="edge48_Node000002_Node000055" class="edge">
<title>Node2&#45;&gt;Node55</title>
<g id="a_edge48_Node000002_Node000055"><a xlink:title=" ">
<path fill="none" stroke="#63b8ff" d="M970.4,-397.52C927,-388.5 851.04,-372.71 800.37,-362.18"/>
<polygon fill="#63b8ff" stroke="#63b8ff" points="800.78,-358.69 790.28,-360.08 799.36,-365.54 800.78,-358.69"/>
</a>
</g>
</g>
<!-- Node56 -->
<g id="Node000056" class="node">
<title>Node56</title>
<g id="a_Node000056"><a xlink:title=" ">
<polygon fill="#e0e0e0" stroke="#999999" points="934.5,-360 827.5,-360 827.5,-341 934.5,-341 934.5,-360"/>
<text text-anchor="middle" x="881" y="-348" font-family="Helvetica,sans-Serif" font-size="10.00">G4VisExecutive.hh</text>
</a>
</g>
</g>
<!-- Node2&#45;&gt;Node56 -->
<g id="edge49_Node000002_Node000056" class="edge">
<title>Node2&#45;&gt;Node56</title>
<g id="a_edge49_Node000002_Node000056"><a xlink:title=" ">
<path fill="none" stroke="#63b8ff" d="M984.24,-395.98C964.27,-387.38 933.2,-373.99 910.35,-364.15"/>
<polygon fill="#63b8ff" stroke="#63b8ff" points="911.69,-360.91 901.12,-360.17 908.92,-367.34 911.69,-360.91"/>
</a>
</g>
</g>
<!-- Node57 -->
<g id="Node000057" class="node">
<title>Node57</title>
<g id="a_Node000057"><a xlink:title=" ">
<polygon fill="#e0e0e0" stroke="#999999" points="1055.5,-360 952.5,-360 952.5,-341 1055.5,-341 1055.5,-360"/>
<text text-anchor="middle" x="1004" y="-348" font-family="Helvetica,sans-Serif" font-size="10.00">G4UIExecutive.hh</text>
</a>
</g>
</g>
<!-- Node2&#45;&gt;Node57 -->
<g id="edge50_Node000002_Node000057" class="edge">
<title>Node2&#45;&gt;Node57</title>
<g id="a_edge50_Node000002_Node000057"><a xlink:title=" ">
<path fill="none" stroke="#63b8ff" d="M1004,-395.75C1004,-388.8 1004,-378.85 1004,-370.13"/>
<polygon fill="#63b8ff" stroke="#63b8ff" points="1007.5,-370.09 1004,-360.09 1000.5,-370.09 1007.5,-370.09"/>
</a>
</g>
</g>
<!-- Node2&#45;&gt;Node58 -->
<g id="edge51_Node000002_Node000058" class="edge">
<title>Node2&#45;&gt;Node58</title>
<g id="a_edge51_Node000002_Node000058"><a xlink:title=" ">
<path fill="none" stroke="#63b8ff" d="M1037.52,-401.26C1121.75,-393.13 1344.37,-371.64 1467.72,-359.73"/>
<polygon fill="#63b8ff" stroke="#63b8ff" points="1468.26,-363.2 1477.88,-358.75 1467.59,-356.23 1468.26,-363.2"/>
</a>
</g>
</g>
<!-- Node4 -->
<g id="Node000004" class="node">
<title>Node4</title>
<g id="a_Node000004"><a xlink:href="_o_m_sim_optical_module_8hh_source.html" target="_top" xlink:title=" ">
<polygon fill="white" stroke="#666666" points="1147.5,-305 1010.5,-305 1010.5,-286 1147.5,-286 1147.5,-305"/>
<text text-anchor="middle" x="1079" y="-293" font-family="Helvetica,sans-Serif" font-size="10.00">OMSimOpticalModule.hh</text>
</a>
</g>
</g>
<!-- Node3&#45;&gt;Node4 -->
<g id="edge3_Node000003_Node000004" class="edge">
<title>Node3&#45;&gt;Node4</title>
<g id="a_edge3_Node000003_Node000004"><a xlink:title=" ">
<path fill="none" stroke="#63b8ff" d="M1178.04,-340.98C1158.97,-332.42 1129.34,-319.11 1107.45,-309.28"/>
<polygon fill="#63b8ff" stroke="#63b8ff" points="1108.86,-306.07 1098.3,-305.17 1105.99,-312.46 1108.86,-306.07"/>
</a>
</g>
</g>
<!-- Node37 -->
<g id="Node000037" class="node">
<title>Node37</title>
<g id="a_Node000037"><a xlink:title=" ">
<polygon fill="#e0e0e0" stroke="#999999" points="1228,-305 1166,-305 1166,-286 1228,-286 1228,-305"/>
<text text-anchor="middle" x="1197" y="-293" font-family="Helvetica,sans-Serif" font-size="10.00">G4Orb.hh</text>
</a>
</g>
</g>
<!-- Node3&#45;&gt;Node37 -->
<g id="edge25_Node000003_Node000037" class="edge">
<title>Node3&#45;&gt;Node37</title>
<g id="a_edge25_Node000003_Node000037"><a xlink:title=" ">
<path fill="none" stroke="#63b8ff" d="M1197,-340.75C1197,-333.8 1197,-323.85 1197,-315.13"/>
<polygon fill="#63b8ff" stroke="#63b8ff" points="1200.5,-315.09 1197,-305.09 1193.5,-315.09 1200.5,-315.09"/>
</a>
</g>
</g>
<!-- Node38 -->
<g id="Node000038" class="node">
<title>Node38</title>
<g id="a_Node000038"><a xlink:title=" ">
<polygon fill="#e0e0e0" stroke="#999999" points="1424,-305 1246,-305 1246,-286 1424,-286 1424,-305"/>
<text text-anchor="middle" x="1335" y="-293" font-family="Helvetica,sans-Serif" font-size="10.00">G4VUserDetectorConstruction.hh</text>
</a>
</g>
</g>
<!-- Node3&#45;&gt;Node38 -->
<g id="edge26_Node000003_Node000038" class="edge">
<title>Node3&#45;&gt;Node38</title>
<g id="a_edge26_Node000003_Node000038"><a xlink:title=" ">
<path fill="none" stroke="#63b8ff" d="M1219.17,-340.98C1241.77,-332.3 1277.06,-318.75 1302.75,-308.88"/>
<polygon fill="#63b8ff" stroke="#63b8ff" points="1304.34,-312.02 1312.42,-305.17 1301.83,-305.49 1304.34,-312.02"/>
</a>
</g>
</g>
<!-- Node5 -->
<g id="Node000005" class="node">
<title>Node5</title>
<g id="a_Node000005"><a xlink:href="_o_m_sim_detector_component_8hh.html" target="_top" xlink:title="Provides helper base class OMSimDetectorComponent for constructing and managing detector components i...">
<polygon fill="#fff0f0" stroke="red" points="1282.5,-195 1117.5,-195 1117.5,-176 1282.5,-176 1282.5,-195"/>
<text text-anchor="middle" x="1200" y="-183" font-family="Helvetica,sans-Serif" font-size="10.00">OMSimDetectorComponent.hh</text>
</a>
</g>
</g>
<!-- Node4&#45;&gt;Node5 -->
<g id="edge4_Node000004_Node000005" class="edge">
<title>Node4&#45;&gt;Node5</title>
<g id="a_edge4_Node000004_Node000005"><a xlink:title=" ">
<path fill="none" stroke="#63b8ff" d="M1147.61,-286.55C1193.07,-279.71 1246.84,-268.04 1261,-250 1275.6,-231.4 1250.28,-212.09 1227.96,-199.72"/>
<polygon fill="#63b8ff" stroke="#63b8ff" points="1229.5,-196.58 1219.01,-195.03 1226.24,-202.78 1229.5,-196.58"/>
</a>
</g>
</g>
<!-- Node26 -->
<g id="Node000026" class="node">
<title>Node26</title>
<g id="a_Node000026"><a xlink:href="_o_m_sim_hit_manager_8hh.html" target="_top" xlink:title="Defines structures and classes related to optical module photon hit management.">
<polygon fill="white" stroke="#666666" points="1067.5,-250 944.5,-250 944.5,-231 1067.5,-231 1067.5,-250"/>
<text text-anchor="middle" x="1006" y="-238" font-family="Helvetica,sans-Serif" font-size="10.00">OMSimHitManager.hh</text>
</a>
</g>
</g>
<!-- Node4&#45;&gt;Node26 -->
<g id="edge12_Node000004_Node000026" class="edge">
<title>Node4&#45;&gt;Node26</title>
<g id="a_edge12_Node000004_Node000026"><a xlink:title=" ">
<path fill="none" stroke="#63b8ff" d="M1067.27,-285.98C1056.27,-278 1039.58,-265.88 1026.4,-256.31"/>
<polygon fill="#63b8ff" stroke="#63b8ff" points="1028.09,-253.21 1017.94,-250.17 1023.98,-258.88 1028.09,-253.21"/>
</a>
</g>
</g>
<!-- Node34 -->
<g id="Node000034" class="node">
<title>Node34</title>
<g id="a_Node000034"><a xlink:href="_o_m_sim_p_m_t_construction_8hh.html" target="_top" xlink:title="Construction of the PMTs.">
<polygon fill="#fff0f0" stroke="red" points="1234.5,-250 1085.5,-250 1085.5,-231 1234.5,-231 1234.5,-250"/>
<text text-anchor="middle" x="1160" y="-238" font-family="Helvetica,sans-Serif" font-size="10.00">OMSimPMTConstruction.hh</text>
</a>
</g>
</g>
<!-- Node4&#45;&gt;Node34 -->
<g id="edge21_Node000004_Node000034" class="edge">
<title>Node4&#45;&gt;Node34</title>
<g id="a_edge21_Node000004_Node000034"><a xlink:title=" ">
<path fill="none" stroke="#63b8ff" d="M1092.01,-285.98C1104.46,-277.84 1123.46,-265.41 1138.21,-255.76"/>
<polygon fill="#63b8ff" stroke="#63b8ff" points="1140.3,-258.57 1146.75,-250.17 1136.46,-252.72 1140.3,-258.57"/>
</a>
</g>
</g>
<!-- Node6 -->
<g id="Node000006" class="node">
<title>Node6</title>
<g id="a_Node000006"><a xlink:href="_o_m_sim_input_data_8hh.html" target="_top" xlink:title="Definition of ParameterTable and OMSimInputData.">
<polygon fill="#fff0f0" stroke="red" points="1317.5,-140 1202.5,-140 1202.5,-121 1317.5,-121 1317.5,-140"/>
<text text-anchor="middle" x="1260" y="-128" font-family="Helvetica,sans-Serif" font-size="10.00">OMSimInputData.hh</text>
</a>
</g>
</g>
<!-- Node5&#45;&gt;Node6 -->
<g id="edge5_Node000005_Node000006" class="edge">
<title>Node5&#45;&gt;Node6</title>
<g id="a_edge5_Node000005_Node000006"><a xlink:title=" ">
<path fill="none" stroke="#63b8ff" d="M1209.64,-175.98C1218.51,-168.15 1231.87,-156.34 1242.61,-146.86"/>
<polygon fill="#63b8ff" stroke="#63b8ff" points="1245.01,-149.41 1250.18,-140.17 1240.37,-144.17 1245.01,-149.41"/>
</a>
</g>
</g>
<!-- Node22 -->
<g id="Node000022" class="node">
<title>Node22</title>
<g id="a_Node000022"><a xlink:title=" ">
<polygon fill="#e0e0e0" stroke="#999999" points="1184.5,-140 1077.5,-140 1077.5,-121 1184.5,-121 1184.5,-140"/>
<text text-anchor="middle" x="1131" y="-128" font-family="Helvetica,sans-Serif" font-size="10.00">G4Transform3D.hh</text>
</a>
</g>
</g>
<!-- Node5&#45;&gt;Node22 -->
<g id="edge11_Node000005_Node000022" class="edge">
<title>Node5&#45;&gt;Node22</title>
<g id="a_edge11_Node000005_Node000022"><a xlink:title=" ">
<path fill="none" stroke="#63b8ff" d="M1188.91,-175.98C1178.51,-168 1162.74,-155.88 1150.28,-146.31"/>
<polygon fill="#63b8ff" stroke="#63b8ff" points="1152.35,-143.49 1142.29,-140.17 1148.09,-149.04 1152.35,-143.49"/>
</a>
</g>
</g>
<!-- Node6&#45;&gt;Node7 -->
<g id="edge6_Node000006_Node000007" class="edge">
<title>Node6&#45;&gt;Node7</title>
<g id="a_edge6_Node000006_Node000007"><a xlink:title=" ">
<path fill="none" stroke="#63b8ff" d="M1260,-120.75C1260,-113.8 1260,-103.85 1260,-95.13"/>
<polygon fill="#63b8ff" stroke="#63b8ff" points="1263.5,-95.09 1260,-85.09 1256.5,-95.09 1263.5,-95.09"/>
</a>
</g>
</g>
<!-- Node8 -->
<g id="Node000008" class="node">
<title>Node8</title>
<g id="a_Node000008"><a xlink:title=" ">
<polygon fill="#e0e0e0" stroke="#999999" points="1135.5,-24.5 1042.5,-24.5 1042.5,-5.5 1135.5,-5.5 1135.5,-24.5"/>
<text text-anchor="middle" x="1089" y="-12.5" font-family="Helvetica,sans-Serif" font-size="10.00">spdlog/spdlog.h</text>
</a>
</g>
</g>
<!-- Node7&#45;&gt;Node8 -->
<g id="edge7_Node000007_Node000008" class="edge">
<title>Node7&#45;&gt;Node8</title>
<g id="a_edge7_Node000007_Node000008"><a xlink:title=" ">
<path fill="none" stroke="#63b8ff" d="M1235.14,-65.99C1205.75,-55.94 1156.69,-39.16 1123.61,-27.84"/>
<polygon fill="#63b8ff" stroke="#63b8ff" points="1124.49,-24.44 1113.89,-24.52 1122.22,-31.07 1124.49,-24.44"/>
</a>
</g>
</g>
<!-- Node9 -->
<g id="Node000009" class="node">
<title>Node9</title>
<g id="a_Node000009"><a xlink:title=" ">
<polygon fill="#e0e0e0" stroke="#999999" points="1264.5,-30 1153.5,-30 1153.5,0 1264.5,0 1264.5,-30"/>
<text text-anchor="start" x="1161.5" y="-18" font-family="Helvetica,sans-Serif" font-size="10.00">spdlog/sinks/stdout</text>
<text text-anchor="middle" x="1209" y="-7" font-family="Helvetica,sans-Serif" font-size="10.00">_color_sinks.h</text>
</a>
</g>
</g>
<!-- Node7&#45;&gt;Node9 -->
<g id="edge8_Node000007_Node000009" class="edge">
<title>Node7&#45;&gt;Node9</title>
<g id="a_edge8_Node000007_Node000009"><a xlink:title=" ">
<path fill="none" stroke="#63b8ff" d="M1252.47,-65.87C1246.07,-58.52 1236.58,-47.63 1228.1,-37.91"/>
<polygon fill="#63b8ff" stroke="#63b8ff" points="1230.51,-35.35 1221.31,-30.11 1225.24,-39.95 1230.51,-35.35"/>
</a>
</g>
</g>
<!-- Node10 -->
<g id="Node000010" class="node">
<title>Node10</title>
<g id="a_Node000010"><a xlink:title=" ">
<polygon fill="#e0e0e0" stroke="#999999" points="1341,-24.5 1283,-24.5 1283,-5.5 1341,-5.5 1341,-24.5"/>
<text text-anchor="middle" x="1312" y="-12.5" font-family="Helvetica,sans-Serif" font-size="10.00">memory</text>
</a>
</g>
</g>
<!-- Node7&#45;&gt;Node10 -->
<g id="edge9_Node000007_Node000010" class="edge">
<title>Node7&#45;&gt;Node10</title>
<g id="a_edge9_Node000007_Node000010"><a xlink:title=" ">
<path fill="none" stroke="#63b8ff" d="M1267.67,-65.87C1275.51,-57.05 1287.86,-43.16 1297.54,-32.27"/>
<polygon fill="#63b8ff" stroke="#63b8ff" points="1300.27,-34.47 1304.3,-24.67 1295.04,-29.82 1300.27,-34.47"/>
</a>
</g>
</g>
<!-- Node11 -->
<g id="Node000011" class="node">
<title>Node11</title>
<g id="a_Node000011"><a xlink:title=" ">
<polygon fill="#e0e0e0" stroke="#999999" points="1457,-24.5 1359,-24.5 1359,-5.5 1457,-5.5 1457,-24.5"/>
<text text-anchor="middle" x="1408" y="-12.5" font-family="Helvetica,sans-Serif" font-size="10.00">spdlog/fmt/fmt.h</text>
</a>
</g>
</g>
<!-- Node7&#45;&gt;Node11 -->
<g id="edge10_Node000007_Node000011" class="edge">
<title>Node7&#45;&gt;Node11</title>
<g id="a_edge10_Node000007_Node000011"><a xlink:title=" ">
<path fill="none" stroke="#63b8ff" d="M1281.52,-65.99C1306.62,-56.07 1348.32,-39.59 1376.93,-28.28"/>
<polygon fill="#63b8ff" stroke="#63b8ff" points="1378.44,-31.45 1386.45,-24.52 1375.87,-24.94 1378.44,-31.45"/>
</a>
</g>
</g>
<!-- Node27 -->
<g id="Node000027" class="node">
<title>Node27</title>
<g id="a_Node000027"><a xlink:href="_o_m_sim_p_m_t_response_8hh.html" target="_top" xlink:title="Simulation of PMT response.">
<polygon fill="#fff0f0" stroke="red" points="1099.5,-195 964.5,-195 964.5,-176 1099.5,-176 1099.5,-195"/>
<text text-anchor="middle" x="1032" y="-183" font-family="Helvetica,sans-Serif" font-size="10.00">OMSimPMTResponse.hh</text>
</a>
</g>
</g>
<!-- Node26&#45;&gt;Node27 -->
<g id="edge13_Node000026_Node000027" class="edge">
<title>Node26&#45;&gt;Node27</title>
<g id="a_edge13_Node000026_Node000027"><a xlink:title=" ">
<path fill="none" stroke="#63b8ff" d="M1010.29,-230.75C1013.81,-223.57 1018.91,-213.18 1023.28,-204.27"/>
<polygon fill="#63b8ff" stroke="#63b8ff" points="1026.52,-205.61 1027.79,-195.09 1020.24,-202.53 1026.52,-205.61"/>
</a>
</g>
</g>
<!-- Node32 -->
<g id="Node000032" class="node">
<title>Node32</title>
<g id="a_Node000032"><a xlink:title=" ">
<polygon fill="#e0e0e0" stroke="#999999" points="725.5,-195 622.5,-195 622.5,-176 725.5,-176 725.5,-195"/>
<text text-anchor="middle" x="674" y="-183" font-family="Helvetica,sans-Serif" font-size="10.00">G4ThreeVector.hh</text>
</a>
</g>
</g>
<!-- Node26&#45;&gt;Node32 -->
<g id="edge17_Node000026_Node000032" class="edge">
<title>Node26&#45;&gt;Node32</title>
<g id="a_edge17_Node000026_Node000032"><a xlink:title=" ">
<path fill="none" stroke="#63b8ff" d="M952.66,-230.98C893.45,-221.53 798.04,-206.3 735.67,-196.34"/>
<polygon fill="#63b8ff" stroke="#63b8ff" points="736,-192.85 725.57,-194.73 734.89,-199.77 736,-192.85"/>
</a>
</g>
</g>
<!-- Node33 -->
<g id="Node000033" class="node">
<title>Node33</title>
<g id="a_Node000033"><a xlink:title=" ">
<polygon fill="#e0e0e0" stroke="#999999" points="1355.5,-195 1300.5,-195 1300.5,-176 1355.5,-176 1355.5,-195"/>
<text text-anchor="middle" x="1328" y="-183" font-family="Helvetica,sans-Serif" font-size="10.00">fstream</text>
</a>
</g>
</g>
<!-- Node26&#45;&gt;Node33 -->
<g id="edge18_Node000026_Node000033" class="edge">
<title>Node26&#45;&gt;Node33</title>
<g id="a_edge18_Node000026_Node000033"><a xlink:title=" ">
<path fill="none" stroke="#63b8ff" d="M1067.65,-231.16C1123.26,-223.35 1207.51,-210.79 1290.1,-195.05"/>
<polygon fill="#63b8ff" stroke="#63b8ff" points="1291.01,-198.44 1300.16,-193.12 1289.68,-191.57 1291.01,-198.44"/>
</a>
</g>
</g>
<!-- Node18 -->
<g id="Node000018" class="node">
<title>Node18</title>
<g id="a_Node000018"><a xlink:title=" ">
<polygon fill="#e0e0e0" stroke="#999999" points="834,-195 744,-195 744,-176 834,-176 834,-195"/>
<text text-anchor="middle" x="789" y="-183" font-family="Helvetica,sans-Serif" font-size="10.00">G4AutoLock.hh</text>
</a>
</g>
</g>
<!-- Node26&#45;&gt;Node18 -->
<g id="edge19_Node000026_Node000018" class="edge">
<title>Node26&#45;&gt;Node18</title>
<g id="a_edge19_Node000026_Node000018"><a xlink:title=" ">
<path fill="none" stroke="#63b8ff" d="M971.14,-230.98C933.91,-221.89 874.8,-207.46 834.07,-197.51"/>
<polygon fill="#63b8ff" stroke="#63b8ff" points="834.68,-194.05 824.14,-195.08 833.02,-200.85 834.68,-194.05"/>
</a>
</g>
</g>
<!-- Node19 -->
<g id="Node000019" class="node">
<title>Node19</title>
<g id="a_Node000019"><a xlink:title=" ">
<polygon fill="#e0e0e0" stroke="#999999" points="946,-195 852,-195 852,-176 946,-176 946,-195"/>
<text text-anchor="middle" x="899" y="-183" font-family="Helvetica,sans-Serif" font-size="10.00">G4Threading.hh</text>
</a>
</g>
</g>
<!-- Node26&#45;&gt;Node19 -->
<g id="edge20_Node000026_Node000019" class="edge">
<title>Node26&#45;&gt;Node19</title>
<g id="a_edge20_Node000026_Node000019"><a xlink:title=" ">
<path fill="none" stroke="#63b8ff" d="M988.81,-230.98C971.75,-222.54 945.37,-209.47 925.6,-199.68"/>
<polygon fill="#63b8ff" stroke="#63b8ff" points="927.02,-196.47 916.5,-195.17 923.91,-202.75 927.02,-196.47"/>
</a>
</g>
</g>
<!-- Node29 -->
<g id="Node000029" class="node">
<title>Node29</title>
<g id="a_Node000029"><a xlink:title=" ">
<polygon fill="#e0e0e0" stroke="#999999" points="1448,-140 1410,-140 1410,-121 1448,-121 1448,-140"/>
<text text-anchor="middle" x="1429" y="-128" font-family="Helvetica,sans-Serif" font-size="10.00">map</text>
</a>
</g>
</g>
<!-- Node27&#45;&gt;Node29 -->
<g id="edge14_Node000027_Node000029" class="edge">
<title>Node27&#45;&gt;Node29</title>
<g id="a_edge14_Node000027_Node000029"><a xlink:title=" ">
<path fill="none" stroke="#63b8ff" d="M1095.78,-175.98C1183.02,-164.34 1335.96,-143.92 1399.76,-135.4"/>
<polygon fill="#63b8ff" stroke="#63b8ff" points="1400.46,-138.84 1409.91,-134.05 1399.53,-131.9 1400.46,-138.84"/>
</a>
</g>
</g>
<!-- Node30 -->
<g id="Node000030" class="node">
<title>Node30</title>
<g id="a_Node000030"><a xlink:title=" ">
<polygon fill="#e0e0e0" stroke="#999999" points="805.5,-140 744.5,-140 744.5,-121 805.5,-121 805.5,-140"/>
<text text-anchor="middle" x="775" y="-128" font-family="Helvetica,sans-Serif" font-size="10.00">TGraph.h</text>
</a>
</g>
</g>
<!-- Node27&#45;&gt;Node30 -->
<g id="edge15_Node000027_Node000030" class="edge">
<title>Node27&#45;&gt;Node30</title>
<g id="a_edge15_Node000027_Node000030"><a xlink:title=" ">
<path fill="none" stroke="#63b8ff" d="M990.71,-175.98C942.59,-166.06 863.58,-149.77 815.71,-139.9"/>
<polygon fill="#63b8ff" stroke="#63b8ff" points="816.21,-136.42 805.71,-137.83 814.79,-143.28 816.21,-136.42"/>
</a>
</g>
</g>
<!-- Node31 -->
<g id="Node000031" class="node">
<title>Node31</title>
<g id="a_Node000031"><a xlink:title=" ">
<polygon fill="#e0e0e0" stroke="#999999" points="998.5,-140 945.5,-140 945.5,-121 998.5,-121 998.5,-140"/>
<text text-anchor="middle" x="972" y="-128" font-family="Helvetica,sans-Serif" font-size="10.00">TH2D.h</text>
</a>
</g>
</g>
<!-- Node27&#45;&gt;Node31 -->
<g id="edge16_Node000027_Node000031" class="edge">
<title>Node27&#45;&gt;Node31</title>
<g id="a_edge16_Node000027_Node000031"><a xlink:title=" ">
<path fill="none" stroke="#63b8ff" d="M1022.36,-175.98C1013.49,-168.15 1000.13,-156.34 989.39,-146.86"/>
<polygon fill="#63b8ff" stroke="#63b8ff" points="991.63,-144.17 981.82,-140.17 986.99,-149.41 991.63,-144.17"/>
</a>
</g>
</g>
<!-- Node34&#45;&gt;Node5 -->
<g id="edge22_Node000034_Node000005" class="edge">
<title>Node34&#45;&gt;Node5</title>
<g id="a_edge22_Node000034_Node000005"><a xlink:title=" ">
<path fill="none" stroke="#63b8ff" d="M1166.61,-230.75C1172.26,-223.26 1180.54,-212.28 1187.45,-203.13"/>
<polygon fill="#63b8ff" stroke="#63b8ff" points="1190.29,-205.18 1193.52,-195.09 1184.7,-200.96 1190.29,-205.18"/>
</a>
</g>
</g>
<!-- Node34&#45;&gt;Node27 -->
<g id="edge24_Node000034_Node000027" class="edge">
<title>Node34&#45;&gt;Node27</title>
<g id="a_edge24_Node000034_Node000027"><a xlink:title=" ">
<path fill="none" stroke="#63b8ff" d="M1139.43,-230.98C1118.57,-222.34 1086.03,-208.87 1062.23,-199.02"/>
<polygon fill="#63b8ff" stroke="#63b8ff" points="1063.52,-195.76 1052.94,-195.17 1060.84,-202.23 1063.52,-195.76"/>
</a>
</g>
</g>
<!-- Node34&#45;&gt;Node34 -->
<g id="edge23_Node000034_Node000034" class="edge">
<title>Node34&#45;&gt;Node34</title>
<g id="a_edge23_Node000034_Node000034"><a xlink:title=" ">
<path fill="none" stroke="#63b8ff" d="M1203.3,-250.03C1228.71,-252.06 1252.5,-248.88 1252.5,-240.5 1252.5,-233.23 1234.61,-229.87 1213.29,-230.44"/>
<polygon fill="#63b8ff" stroke="#63b8ff" points="1213.1,-226.94 1203.3,-230.97 1213.47,-233.93 1213.1,-226.94"/>
</a>
</g>
</g>
<!-- Node41&#45;&gt;Node7 -->
<g id="edge32_Node000041_Node000007" class="edge">
<title>Node41&#45;&gt;Node7</title>
<g id="a_edge32_Node000041_Node000007"><a xlink:title=" ">
<path fill="none" stroke="#63b8ff" d="M789.72,-291.73C727.55,-287.4 635.02,-276.58 613,-250 592.02,-224.67 595.15,-203.62 613,-176 645.28,-126.04 677.43,-135.95 735,-121 821.48,-98.54 1081.69,-84.45 1200.13,-79.03"/>
<polygon fill="#63b8ff" stroke="#63b8ff" points="1200.63,-82.51 1210.46,-78.56 1200.31,-75.52 1200.63,-82.51"/>
</a>
</g>
</g>
<!-- Node41&#45;&gt;Node26 -->
<g id="edge31_Node000041_Node000026" class="edge">
<title>Node41&#45;&gt;Node26</title>
<g id="a_edge31_Node000041_Node000026"><a xlink:title=" ">
<path fill="none" stroke="#63b8ff" d="M873.39,-285.98C899.8,-277.13 941.35,-263.19 970.89,-253.28"/>
<polygon fill="#63b8ff" stroke="#63b8ff" points="972.05,-256.58 980.42,-250.08 969.82,-249.94 972.05,-256.58"/>
</a>
</g>
</g>
<!-- Node42 -->
<g id="Node000042" class="node">
<title>Node42</title>
<g id="a_Node000042"><a xlink:title=" ">
<polygon fill="#e0e0e0" stroke="#999999" points="739.5,-250 622.5,-250 622.5,-231 739.5,-231 739.5,-250"/>
<text text-anchor="middle" x="681" y="-238" font-family="Helvetica,sans-Serif" font-size="10.00">G4UserRunAction.hh</text>
</a>
</g>
</g>
<!-- Node41&#45;&gt;Node42 -->
<g id="edge30_Node000041_Node000042" class="edge">
<title>Node41&#45;&gt;Node42</title>
<g id="a_edge30_Node000041_Node000042"><a xlink:title=" ">
<path fill="none" stroke="#63b8ff" d="M821.17,-285.98C793.13,-277.09 748.95,-263.07 717.7,-253.15"/>
<polygon fill="#63b8ff" stroke="#63b8ff" points="718.63,-249.77 708.04,-250.08 716.51,-256.44 718.63,-249.77"/>
</a>
</g>
</g>
<!-- Node43 -->
<g id="Node000043" class="node">
<title>Node43</title>
<g id="a_Node000043"><a xlink:title=" ">
<polygon fill="#e0e0e0" stroke="#999999" points="844,-250 758,-250 758,-231 844,-231 844,-250"/>
<text text-anchor="middle" x="801" y="-238" font-family="Helvetica,sans-Serif" font-size="10.00">Randomize.hh</text>
</a>
</g>
</g>
<!-- Node41&#45;&gt;Node43 -->
<g id="edge33_Node000041_Node000043" class="edge">
<title>Node41&#45;&gt;Node43</title>
<g id="a_edge33_Node000041_Node000043"><a xlink:title=" ">
<path fill="none" stroke="#63b8ff" d="M840.24,-285.75C833.53,-278.18 823.66,-267.05 815.49,-257.84"/>
<polygon fill="#63b8ff" stroke="#63b8ff" points="817.87,-255.25 808.62,-250.09 812.63,-259.89 817.87,-255.25"/>
</a>
</g>
</g>
<!-- Node44 -->
<g id="Node000044" class="node">
<title>Node44</title>
<g id="a_Node000044"><a xlink:title=" ">
<polygon fill="#e0e0e0" stroke="#999999" points="926,-250 862,-250 862,-231 926,-231 926,-250"/>
<text text-anchor="middle" x="894" y="-238" font-family="Helvetica,sans-Serif" font-size="10.00">G4Run.hh</text>
</a>
</g>
</g>
<!-- Node41&#45;&gt;Node44 -->
<g id="edge34_Node000041_Node000044" class="edge">
<title>Node41&#45;&gt;Node44</title>
<g id="a_edge34_Node000041_Node000044"><a xlink:title=" ">
<path fill="none" stroke="#63b8ff" d="M855.6,-285.75C862.16,-278.18 871.82,-267.05 879.81,-257.84"/>
<polygon fill="#63b8ff" stroke="#63b8ff" points="882.63,-259.94 886.55,-250.09 877.35,-255.35 882.63,-259.94"/>
</a>
</g>
</g>
<!-- Node47 -->
<g id="Node000047" class="node">
<title>Node47</title>
<g id="a_Node000047"><a xlink:title=" ">
<polygon fill="#e0e0e0" stroke="#999999" points="511.5,-305 372.5,-305 372.5,-286 511.5,-286 511.5,-305"/>
<text text-anchor="middle" x="442" y="-293" font-family="Helvetica,sans-Serif" font-size="10.00">G4UserTrackingAction.hh</text>
</a>
</g>
</g>
<!-- Node46&#45;&gt;Node47 -->
<g id="edge37_Node000046_Node000047" class="edge">
<title>Node46&#45;&gt;Node47</title>
<g id="a_edge37_Node000046_Node000047"><a xlink:title=" ">
<path fill="none" stroke="#63b8ff" d="M442.83,-340.75C442.7,-333.8 442.52,-323.85 442.35,-315.13"/>
<polygon fill="#63b8ff" stroke="#63b8ff" points="445.85,-315.02 442.16,-305.09 438.85,-315.15 445.85,-315.02"/>
</a>
</g>
</g>
<!-- Node49 -->
<g id="Node000049" class="node">
<title>Node49</title>
<g id="a_Node000049"><a xlink:title=" ">
<polygon fill="#e0e0e0" stroke="#999999" points="670.5,-305 529.5,-305 529.5,-286 670.5,-286 670.5,-305"/>
<text text-anchor="middle" x="600" y="-293" font-family="Helvetica,sans-Serif" font-size="10.00">G4UserSteppingAction.hh</text>
</a>
</g>
</g>
<!-- Node48&#45;&gt;Node49 -->
<g id="edge39_Node000048_Node000049" class="edge">
<title>Node48&#45;&gt;Node49</title>
<g id="a_edge39_Node000048_Node000049"><a xlink:title=" ">
<path fill="none" stroke="#63b8ff" d="M600,-340.75C600,-333.8 600,-323.85 600,-315.13"/>
<polygon fill="#63b8ff" stroke="#63b8ff" points="603.5,-315.09 600,-305.09 596.5,-315.09 603.5,-315.09"/>
</a>
</g>
</g>
<!-- Node51 -->
<g id="Node000051" class="node">
<title>Node51</title>
<g id="a_Node000051"><a xlink:href="_o_m_sim_command_args_table_8hh.html" target="_top" xlink:title="Definition of the OMSimCommandArgsTable singleton class, which controls user args.">
<polygon fill="white" stroke="#666666" points="1592,-250 1428,-250 1428,-231 1592,-231 1592,-250"/>
<text text-anchor="middle" x="1510" y="-238" font-family="Helvetica,sans-Serif" font-size="10.00">OMSimCommandArgsTable.hh</text>
</a>
</g>
</g>
<!-- Node50&#45;&gt;Node51 -->
<g id="edge41_Node000050_Node000051" class="edge">
<title>Node50&#45;&gt;Node51</title>
<g id="a_edge41_Node000050_Node000051"><a xlink:title=" ">
<path fill="none" stroke="#63b8ff" d="M1503.32,-285.75C1504.37,-278.8 1505.87,-268.85 1507.19,-260.13"/>
<polygon fill="#63b8ff" stroke="#63b8ff" points="1510.67,-260.5 1508.7,-250.09 1503.75,-259.45 1510.67,-260.5"/>
</a>
</g>
</g>
<!-- Node54 -->
<g id="Node000054" class="node">
<title>Node54</title>
<g id="a_Node000054"><a xlink:title=" ">
<polygon fill="#e0e0e0" stroke="#999999" points="1410,-250 1312,-250 1312,-231 1410,-231 1410,-250"/>
<text text-anchor="middle" x="1361" y="-238" font-family="Helvetica,sans-Serif" font-size="10.00">G4UImanager.hh</text>
</a>
</g>
</g>
<!-- Node50&#45;&gt;Node54 -->
<g id="edge47_Node000050_Node000054" class="edge">
<title>Node50&#45;&gt;Node54</title>
<g id="a_edge47_Node000050_Node000054"><a xlink:title=" ">
<path fill="none" stroke="#63b8ff" d="M1479.35,-285.98C1456.15,-277.27 1419.88,-263.63 1393.6,-253.75"/>
<polygon fill="#63b8ff" stroke="#63b8ff" points="1394.66,-250.41 1384.07,-250.17 1392.2,-256.97 1394.66,-250.41"/>
</a>
</g>
</g>
<!-- Node51&#45;&gt;Node7 -->
<g id="edge42_Node000051_Node000007" class="edge">
<title>Node51&#45;&gt;Node7</title>
<g id="a_edge42_Node000051_Node000007"><a xlink:title=" ">
<path fill="none" stroke="#63b8ff" d="M1528.54,-230.97C1550.61,-219.57 1582.85,-198.22 1569,-176 1542.32,-133.18 1401.83,-101.59 1319.76,-86.46"/>
<polygon fill="#63b8ff" stroke="#63b8ff" points="1320.28,-83 1309.81,-84.66 1319.03,-89.89 1320.28,-83"/>
</a>
</g>
</g>
<!-- Node51&#45;&gt;Node29 -->
<g id="edge46_Node000051_Node000029" class="edge">
<title>Node51&#45;&gt;Node29</title>
<g id="a_edge46_Node000051_Node000029"><a xlink:title=" ">
<path fill="none" stroke="#63b8ff" d="M1523.34,-230.81C1540.52,-218.51 1566.64,-195.38 1553,-176 1531.67,-145.68 1487.64,-135.91 1458.2,-132.83"/>
<polygon fill="#63b8ff" stroke="#63b8ff" points="1458.35,-129.33 1448.09,-131.97 1457.76,-136.31 1458.35,-129.33"/>
</a>
</g>
</g>
<!-- Node51&#45;&gt;Node33 -->
<g id="edge43_Node000051_Node000033" class="edge">
<title>Node51&#45;&gt;Node33</title>
<g id="a_edge43_Node000051_Node000033"><a xlink:title=" ">
<path fill="none" stroke="#63b8ff" d="M1480.76,-230.98C1449.39,-221.85 1399.48,-207.32 1365.31,-197.36"/>
<polygon fill="#63b8ff" stroke="#63b8ff" points="1366.26,-194 1355.68,-194.56 1364.3,-200.72 1366.26,-194"/>
</a>
</g>
</g>
<!-- Node52 -->
<g id="Node000052" class="node">
<title>Node52</title>
<g id="a_Node000052"><a xlink:title=" ">
<polygon fill="#e0e0e0" stroke="#999999" points="1458,-195 1374,-195 1374,-176 1458,-176 1458,-195"/>
<text text-anchor="middle" x="1416" y="-183" font-family="Helvetica,sans-Serif" font-size="10.00">boost/any.hpp</text>
</a>
</g>
</g>
<!-- Node51&#45;&gt;Node52 -->
<g id="edge44_Node000051_Node000052" class="edge">
<title>Node51&#45;&gt;Node52</title>
<g id="a_edge44_Node000051_Node000052"><a xlink:title=" ">
<path fill="none" stroke="#63b8ff" d="M1494.9,-230.98C1480.18,-222.69 1457.58,-209.94 1440.33,-200.22"/>
<polygon fill="#63b8ff" stroke="#63b8ff" points="1441.81,-197.03 1431.38,-195.17 1438.37,-203.13 1441.81,-197.03"/>
</a>
</g>
</g>
<!-- Node53 -->
<g id="Node000053" class="node">
<title>Node53</title>
<g id="a_Node000053"><a xlink:title=" ">
<polygon fill="#e0e0e0" stroke="#999999" points="1544,-195 1476,-195 1476,-176 1544,-176 1544,-195"/>
<text text-anchor="middle" x="1510" y="-183" font-family="Helvetica,sans-Serif" font-size="10.00">sys/time.h</text>
</a>
</g>
</g>
<!-- Node51&#45;&gt;Node53 -->
<g id="edge45_Node000051_Node000053" class="edge">
<title>Node51&#45;&gt;Node53</title>
<g id="a_edge45_Node000051_Node000053"><a xlink:title=" ">
<path fill="none" stroke="#63b8ff" d="M1510,-230.75C1510,-223.8 1510,-213.85 1510,-205.13"/>
<polygon fill="#63b8ff" stroke="#63b8ff" points="1513.5,-205.09 1510,-195.09 1506.5,-205.09 1513.5,-205.09"/>
</a>
</g>
</g>
<!-- Node59&#45;&gt;Node7 -->
<g id="edge53_Node000059_Node000007" class="edge">
<title>Node59&#45;&gt;Node7</title>
<g id="a_edge53_Node000059_Node000007"><a xlink:title=" ">
<path fill="none" stroke="#63b8ff" d="M507.35,-175.98C520.33,-161.62 548.9,-133 580,-121 692.26,-77.7 1055.44,-75.11 1199.91,-75.88"/>
<polygon fill="#63b8ff" stroke="#63b8ff" points="1200.32,-79.38 1210.34,-75.94 1200.36,-72.38 1200.32,-79.38"/>
</a>
</g>
</g>
<!-- Node59&#45;&gt;Node30 -->
<g id="edge55_Node000059_Node000030" class="edge">
<title>Node59&#45;&gt;Node30</title>
<g id="a_edge55_Node000059_Node000030"><a xlink:title=" ">
<path fill="none" stroke="#63b8ff" d="M544.18,-175.98C596.6,-165.88 683.26,-149.18 734.16,-139.37"/>
<polygon fill="#63b8ff" stroke="#63b8ff" points="735,-142.77 744.15,-137.45 733.67,-135.9 735,-142.77"/>
</a>
</g>
</g>
<!-- Node59&#45;&gt;Node31 -->
<g id="edge56_Node000059_Node000031" class="edge">
<title>Node59&#45;&gt;Node31</title>
<g id="a_edge56_Node000059_Node000031"><a xlink:title=" ">
<path fill="none" stroke="#63b8ff" d="M546.12,-179.32C639.75,-168.81 850.46,-145.15 935.44,-135.6"/>
<polygon fill="#63b8ff" stroke="#63b8ff" points="935.86,-139.08 945.4,-134.49 935.07,-132.12 935.86,-139.08"/>
</a>
</g>
</g>
<!-- Node60 -->
<g id="Node000060" class="node">
<title>Node60</title>
<g id="a_Node000060"><a xlink:title=" ">
<polygon fill="#e0e0e0" stroke="#999999" points="384.5,-140 317.5,-140 317.5,-121 384.5,-121 384.5,-140"/>
<text text-anchor="middle" x="351" y="-128" font-family="Helvetica,sans-Serif" font-size="10.00">globals.hh</text>
</a>
</g>
</g>
<!-- Node59&#45;&gt;Node60 -->
<g id="edge54_Node000059_Node000060" class="edge">
<title>Node59&#45;&gt;Node60</title>
<g id="a_edge54_Node000059_Node000060"><a xlink:title=" ">
<path fill="none" stroke="#63b8ff" d="M476.06,-175.98C451.44,-167.23 412.88,-153.51 385.08,-143.62"/>
<polygon fill="#63b8ff" stroke="#63b8ff" points="385.97,-140.22 375.38,-140.17 383.62,-146.82 385.97,-140.22"/>
</a>
</g>
</g>
<!-- Node61 -->
<g id="Node000061" class="node">
<title>Node61</title>
<g id="a_Node000061"><a xlink:title=" ">
<polygon fill="#e0e0e0" stroke="#999999" points="453.5,-140 402.5,-140 402.5,-121 453.5,-121 453.5,-140"/>
<text text-anchor="middle" x="428" y="-128" font-family="Helvetica,sans-Serif" font-size="10.00">variant</text>
</a>
</g>
</g>
<!-- Node59&#45;&gt;Node61 -->
<g id="edge57_Node000059_Node000061" class="edge">
<title>Node59&#45;&gt;Node61</title>
<g id="a_edge57_Node000059_Node000061"><a xlink:title=" ">
<path fill="none" stroke="#63b8ff" d="M488.43,-175.98C477.58,-168 461.12,-155.88 448.12,-146.31"/>
<polygon fill="#63b8ff" stroke="#63b8ff" points="449.91,-143.28 439.78,-140.17 445.76,-148.92 449.91,-143.28"/>
</a>
</g>
</g>
<!-- Node62 -->
<g id="Node000062" class="node">
<title>Node62</title>
<g id="a_Node000062"><a xlink:title=" ">
<polygon fill="#e0e0e0" stroke="#999999" points="528,-140 472,-140 472,-121 528,-121 528,-140"/>
<text text-anchor="middle" x="500" y="-128" font-family="Helvetica,sans-Serif" font-size="10.00">optional</text>
</a>
</g>
</g>
<!-- Node59&#45;&gt;Node62 -->
<g id="edge58_Node000059_Node000062" class="edge">
<title>Node59&#45;&gt;Node62</title>
<g id="a_edge58_Node000059_Node000062"><a xlink:title=" ">
<path fill="none" stroke="#63b8ff" d="M500,-175.75C500,-168.8 500,-158.85 500,-150.13"/>
<polygon fill="#63b8ff" stroke="#63b8ff" points="503.5,-150.09 500,-140.09 496.5,-150.09 503.5,-150.09"/>
</a>
</g>
</g>
<!-- Node64 -->
<g id="Node000064" class="node">
<title>Node64</title>
<g id="a_Node000064"><a xlink:title=" ">
<polygon fill="#e0e0e0" stroke="#999999" points="1850,-360 1684,-360 1684,-341 1850,-341 1850,-360"/>
<text text-anchor="middle" x="1767" y="-348" font-family="Helvetica,sans-Serif" font-size="10.00">G4VUserActionInitialization.hh</text>
</a>
</g>
</g>
<!-- Node63&#45;&gt;Node64 -->
<g id="edge61_Node000063_Node000064" class="edge">
<title>Node63&#45;&gt;Node64</title>
<g id="a_edge61_Node000063_Node000064"><a xlink:title=" ">
<path fill="none" stroke="#63b8ff" d="M1765.33,-395.75C1765.59,-388.8 1765.97,-378.85 1766.3,-370.13"/>
<polygon fill="#63b8ff" stroke="#63b8ff" points="1769.8,-370.21 1766.68,-360.09 1762.8,-369.95 1769.8,-370.21"/>
</a>
</g>
</g>
</g>
</svg>
