<?xml version="1.0" encoding="UTF-8" standalone="no"?>
<!DOCTYPE svg PUBLIC "-//W3C//DTD SVG 1.1//EN"
 "http://www.w3.org/Graphics/SVG/1.1/DTD/svg11.dtd">
<!-- Generated by graphviz version 2.43.0 (0)
 -->
<!-- Title: OMSimDetectorConstruction.cc Pages: 1 -->
<svg width="1247pt" height="442pt"
 viewBox="0.00 0.00 1246.50 442.00" xmlns="http://www.w3.org/2000/svg" xmlns:xlink="http://www.w3.org/1999/xlink">
<g id="graph0" class="graph" transform="scale(1 1) rotate(0) translate(4 438)">
<title>OMSimDetectorConstruction.cc</title>
<polygon fill="white" stroke="transparent" points="-4,4 -4,-438 1242.5,-438 1242.5,4 -4,4"/>
<!-- Node1 -->
<g id="node1" class="node">
<title>Node1</title>
<g id="a_node1"><a xlink:title=" ">
<polygon fill="#bfbfbf" stroke="black" points="652,-414.5 652,-433.5 821,-433.5 821,-414.5 652,-414.5"/>
<text text-anchor="middle" x="736.5" y="-421.5" font-family="Helvetica,sans-Serif" font-size="10.00">OMSimDetectorConstruction.cc</text>
</a>
</g>
</g>
<!-- Node2 -->
<g id="node2" class="node">
<title>Node2</title>
<g id="a_node2"><a xlink:href="_o_m_sim_detector_construction_8hh.html" target="_top" xlink:title=" ">
<polygon fill="white" stroke="black" points="881.5,-358.5 881.5,-377.5 1051.5,-377.5 1051.5,-358.5 881.5,-358.5"/>
<text text-anchor="middle" x="966.5" y="-365.5" font-family="Helvetica,sans-Serif" font-size="10.00">OMSimDetectorConstruction.hh</text>
</a>
</g>
</g>
<!-- Node1&#45;&gt;Node2 -->
<g id="edge1" class="edge">
<title>Node1&#45;&gt;Node2</title>
<path fill="none" stroke="midnightblue" d="M772.94,-414.44C812.9,-405.06 877.09,-389.99 920.48,-379.8"/>
<polygon fill="midnightblue" stroke="midnightblue" points="921.29,-383.21 930.23,-377.52 919.69,-376.39 921.29,-383.21"/>
</g>
<!-- Node18 -->
<g id="node18" class="node">
<title>Node18</title>
<g id="a_node18"><a xlink:href="_o_m_sim_hit_manager_8hh.html" target="_top" xlink:title="Defines structures and classes related to optical module photon hit management.">
<polygon fill="white" stroke="black" points="754,-246.5 754,-265.5 877,-265.5 877,-246.5 754,-246.5"/>
<text text-anchor="middle" x="815.5" y="-253.5" font-family="Helvetica,sans-Serif" font-size="10.00">OMSimHitManager.hh</text>
</a>
</g>
</g>
<!-- Node1&#45;&gt;Node18 -->
<g id="edge60" class="edge">
<title>Node1&#45;&gt;Node18</title>
<path fill="none" stroke="midnightblue" d="M753.9,-414.45C767.49,-406.83 785.67,-394.34 795.5,-378 814.73,-346.02 817.01,-301.12 816.53,-275.98"/>
<polygon fill="midnightblue" stroke="midnightblue" points="820.01,-275.51 816.15,-265.65 813.02,-275.77 820.01,-275.51"/>
</g>
<!-- Node31 -->
<g id="node31" class="node">
<title>Node31</title>
<g id="a_node31"><a xlink:href="_o_m_sim_p_d_o_m_8hh.html" target="_top" xlink:title="Implementation of the pDOM/Gen1 DOM class.">
<polygon fill="white" stroke="black" points="571,-358.5 571,-377.5 668,-377.5 668,-358.5 571,-358.5"/>
<text text-anchor="middle" x="619.5" y="-365.5" font-family="Helvetica,sans-Serif" font-size="10.00">OMSimPDOM.hh</text>
</a>
</g>
</g>
<!-- Node1&#45;&gt;Node31 -->
<g id="edge34" class="edge">
<title>Node1&#45;&gt;Node31</title>
<path fill="none" stroke="midnightblue" d="M717.96,-414.44C698.88,-405.64 668.93,-391.81 647.06,-381.72"/>
<polygon fill="midnightblue" stroke="midnightblue" points="648.5,-378.53 637.95,-377.52 645.57,-384.88 648.5,-378.53"/>
</g>
<!-- Node32 -->
<g id="node32" class="node">
<title>Node32</title>
<g id="a_node32"><a xlink:href="_o_m_sim_l_o_m16_8hh.html" target="_top" xlink:title="Construction of LOM16.">
<polygon fill="white" stroke="black" points="686,-358.5 686,-377.5 787,-377.5 787,-358.5 686,-358.5"/>
<text text-anchor="middle" x="736.5" y="-365.5" font-family="Helvetica,sans-Serif" font-size="10.00">OMSimLOM16.hh</text>
</a>
</g>
</g>
<!-- Node1&#45;&gt;Node32 -->
<g id="edge37" class="edge">
<title>Node1&#45;&gt;Node32</title>
<path fill="none" stroke="midnightblue" d="M736.5,-414.08C736.5,-407.01 736.5,-396.86 736.5,-387.99"/>
<polygon fill="midnightblue" stroke="midnightblue" points="740,-387.75 736.5,-377.75 733,-387.75 740,-387.75"/>
</g>
<!-- Node33 -->
<g id="node33" class="node">
<title>Node33</title>
<g id="a_node33"><a xlink:href="_o_m_sim_l_o_m18_8hh.html" target="_top" xlink:title="Construction of LOM18.">
<polygon fill="white" stroke="black" points="339,-358.5 339,-377.5 440,-377.5 440,-358.5 339,-358.5"/>
<text text-anchor="middle" x="389.5" y="-365.5" font-family="Helvetica,sans-Serif" font-size="10.00">OMSimLOM18.hh</text>
</a>
</g>
</g>
<!-- Node1&#45;&gt;Node33 -->
<g id="edge40" class="edge">
<title>Node1&#45;&gt;Node33</title>
<path fill="none" stroke="midnightblue" d="M681.52,-414.44C618.57,-404.65 515.76,-388.65 450.43,-378.48"/>
<polygon fill="midnightblue" stroke="midnightblue" points="450.69,-374.98 440.27,-376.9 449.62,-381.9 450.69,-374.98"/>
</g>
<!-- Node36 -->
<g id="node36" class="node">
<title>Node36</title>
<g id="a_node36"><a xlink:href="_o_m_sim_d_e_g_g_8hh.html" target="_top" xlink:title="Construction of the DEGG class.">
<polygon fill="white" stroke="black" points="458,-358.5 458,-377.5 553,-377.5 553,-358.5 458,-358.5"/>
<text text-anchor="middle" x="505.5" y="-365.5" font-family="Helvetica,sans-Serif" font-size="10.00">OMSimDEGG.hh</text>
</a>
</g>
</g>
<!-- Node1&#45;&gt;Node36 -->
<g id="edge45" class="edge">
<title>Node1&#45;&gt;Node36</title>
<path fill="none" stroke="midnightblue" d="M699.9,-414.44C659.77,-405.06 595.3,-389.99 551.72,-379.8"/>
<polygon fill="midnightblue" stroke="midnightblue" points="552.47,-376.38 541.93,-377.52 550.87,-383.2 552.47,-376.38"/>
</g>
<!-- Node37 -->
<g id="node37" class="node">
<title>Node37</title>
<g id="a_node37"><a xlink:href="_o_m_sim_m_d_o_m_8hh.html" target="_top" xlink:title="Construction of mDOM.">
<polygon fill="white" stroke="black" points="178.5,-358.5 178.5,-377.5 278.5,-377.5 278.5,-358.5 178.5,-358.5"/>
<text text-anchor="middle" x="228.5" y="-365.5" font-family="Helvetica,sans-Serif" font-size="10.00">OMSimMDOM.hh</text>
</a>
</g>
</g>
<!-- Node1&#45;&gt;Node37 -->
<g id="edge48" class="edge">
<title>Node1&#45;&gt;Node37</title>
<path fill="none" stroke="midnightblue" d="M656.29,-414.47C554.25,-403.63 380.34,-385.14 288.85,-375.42"/>
<polygon fill="midnightblue" stroke="midnightblue" points="288.96,-371.91 278.65,-374.33 288.22,-378.87 288.96,-371.91"/>
</g>
<!-- Node40 -->
<g id="node40" class="node">
<title>Node40</title>
<g id="a_node40"><a xlink:href="_o_m_sim_command_args_table_8hh.html" target="_top" xlink:title="Definition of the OMSimCommandArgsTable singleton class, which controls user args.">
<polygon fill="white" stroke="black" points="927.5,-246.5 927.5,-265.5 1091.5,-265.5 1091.5,-246.5 927.5,-246.5"/>
<text text-anchor="middle" x="1009.5" y="-253.5" font-family="Helvetica,sans-Serif" font-size="10.00">OMSimCommandArgsTable.hh</text>
</a>
</g>
</g>
<!-- Node1&#45;&gt;Node40 -->
<g id="edge55" class="edge">
<title>Node1&#45;&gt;Node40</title>
<path fill="none" stroke="midnightblue" d="M753.55,-414.47C769.78,-406.05 794.62,-392.39 814.5,-378 855.55,-348.29 856.54,-328.87 899.5,-302 921.95,-287.96 949.54,-276.68 971.47,-268.93"/>
<polygon fill="midnightblue" stroke="midnightblue" points="972.79,-272.18 981.11,-265.62 970.51,-265.56 972.79,-272.18"/>
</g>
<!-- Node43 -->
<g id="node43" class="node">
<title>Node43</title>
<g id="a_node43"><a xlink:title=" ">
<polygon fill="white" stroke="#bfbfbf" points="1070,-358.5 1070,-377.5 1171,-377.5 1171,-358.5 1070,-358.5"/>
<text text-anchor="middle" x="1120.5" y="-365.5" font-family="Helvetica,sans-Serif" font-size="10.00">G4SDManager.hh</text>
</a>
</g>
</g>
<!-- Node1&#45;&gt;Node43 -->
<g id="edge61" class="edge">
<title>Node1&#45;&gt;Node43</title>
<path fill="none" stroke="midnightblue" d="M799.25,-414.49C862.37,-405.88 962.79,-392.07 1059.79,-378.09"/>
<polygon fill="midnightblue" stroke="midnightblue" points="1060.37,-381.54 1069.77,-376.65 1059.37,-374.61 1060.37,-381.54"/>
</g>
<!-- Node3 -->
<g id="node3" class="node">
<title>Node3</title>
<g id="a_node3"><a xlink:href="_o_m_sim_optical_module_8hh.html" target="_top" xlink:title=" ">
<polygon fill="white" stroke="black" points="571,-302.5 571,-321.5 708,-321.5 708,-302.5 571,-302.5"/>
<text text-anchor="middle" x="639.5" y="-309.5" font-family="Helvetica,sans-Serif" font-size="10.00">OMSimOpticalModule.hh</text>
</a>
</g>
</g>
<!-- Node2&#45;&gt;Node3 -->
<g id="edge2" class="edge">
<title>Node2&#45;&gt;Node3</title>
<path fill="none" stroke="midnightblue" d="M914.69,-358.44C856.68,-348.87 762.76,-333.36 701.06,-323.17"/>
<polygon fill="midnightblue" stroke="midnightblue" points="701.51,-319.69 691.07,-321.52 700.37,-326.6 701.51,-319.69"/>
</g>
<!-- Node29 -->
<g id="node29" class="node">
<title>Node29</title>
<g id="a_node29"><a xlink:title=" ">
<polygon fill="white" stroke="#bfbfbf" points="908.5,-302.5 908.5,-321.5 970.5,-321.5 970.5,-302.5 908.5,-302.5"/>
<text text-anchor="middle" x="939.5" y="-309.5" font-family="Helvetica,sans-Serif" font-size="10.00">G4Orb.hh</text>
</a>
</g>
</g>
<!-- Node2&#45;&gt;Node29 -->
<g id="edge32" class="edge">
<title>Node2&#45;&gt;Node29</title>
<path fill="none" stroke="midnightblue" d="M962.04,-358.08C958.35,-350.69 952.98,-339.95 948.41,-330.81"/>
<polygon fill="midnightblue" stroke="midnightblue" points="951.48,-329.13 943.88,-321.75 945.22,-332.26 951.48,-329.13"/>
</g>
<!-- Node30 -->
<g id="node30" class="node">
<title>Node30</title>
<g id="a_node30"><a xlink:title=" ">
<polygon fill="white" stroke="#bfbfbf" points="988.5,-302.5 988.5,-321.5 1166.5,-321.5 1166.5,-302.5 988.5,-302.5"/>
<text text-anchor="middle" x="1077.5" y="-309.5" font-family="Helvetica,sans-Serif" font-size="10.00">G4VUserDetectorConstruction.hh</text>
</a>
</g>
</g>
<!-- Node2&#45;&gt;Node30 -->
<g id="edge33" class="edge">
<title>Node2&#45;&gt;Node30</title>
<path fill="none" stroke="midnightblue" d="M984.33,-358.32C1002.22,-349.62 1029.98,-336.12 1050.55,-326.11"/>
<polygon fill="midnightblue" stroke="midnightblue" points="1052.25,-329.18 1059.71,-321.65 1049.19,-322.88 1052.25,-329.18"/>
</g>
<!-- Node4 -->
<g id="node4" class="node">
<title>Node4</title>
<g id="a_node4"><a xlink:href="abc_detector_component_8hh.html" target="_top" xlink:title="Provides helper base class abcDetectorComponent for constructing and managing detector components in ...">
<polygon fill="white" stroke="black" points="403,-190.5 403,-209.5 550,-209.5 550,-190.5 403,-190.5"/>
<text text-anchor="middle" x="476.5" y="-197.5" font-family="Helvetica,sans-Serif" font-size="10.00">abcDetectorComponent.hh</text>
</a>
</g>
</g>
<!-- Node3&#45;&gt;Node4 -->
<g id="edge3" class="edge">
<title>Node3&#45;&gt;Node4</title>
<path fill="none" stroke="midnightblue" d="M634.39,-302.25C625.99,-288.55 608.03,-261.95 586.5,-246 566.23,-230.98 540.23,-220.05 518.59,-212.72"/>
<polygon fill="midnightblue" stroke="midnightblue" points="519.59,-209.36 509,-209.6 517.43,-216.02 519.59,-209.36"/>
</g>
<!-- Node3&#45;&gt;Node18 -->
<g id="edge17" class="edge">
<title>Node3&#45;&gt;Node18</title>
<path fill="none" stroke="midnightblue" d="M667.39,-302.44C697.25,-293.28 744.81,-278.69 777.96,-268.52"/>
<polygon fill="midnightblue" stroke="midnightblue" points="779.21,-271.8 787.74,-265.52 777.16,-265.1 779.21,-271.8"/>
</g>
<!-- Node26 -->
<g id="node26" class="node">
<title>Node26</title>
<g id="a_node26"><a xlink:href="_o_m_sim_p_m_t_construction_8hh.html" target="_top" xlink:title="Construction of the PMTs.">
<polygon fill="white" stroke="black" points="411,-246.5 411,-265.5 560,-265.5 560,-246.5 411,-246.5"/>
<text text-anchor="middle" x="485.5" y="-253.5" font-family="Helvetica,sans-Serif" font-size="10.00">OMSimPMTConstruction.hh</text>
</a>
</g>
</g>
<!-- Node3&#45;&gt;Node26 -->
<g id="edge26" class="edge">
<title>Node3&#45;&gt;Node26</title>
<path fill="none" stroke="midnightblue" d="M615.1,-302.44C589.3,-293.4 548.42,-279.06 519.48,-268.92"/>
<polygon fill="midnightblue" stroke="midnightblue" points="520.38,-265.52 509.79,-265.52 518.07,-272.13 520.38,-265.52"/>
</g>
<!-- Node5 -->
<g id="node5" class="node">
<title>Node5</title>
<g id="a_node5"><a xlink:href="_o_m_sim_input_data_8hh.html" target="_top" xlink:title="Definition of ParameterTable and InputDataManager.">
<polygon fill="white" stroke="black" points="272,-134.5 272,-153.5 387,-153.5 387,-134.5 272,-134.5"/>
<text text-anchor="middle" x="329.5" y="-141.5" font-family="Helvetica,sans-Serif" font-size="10.00">OMSimInputData.hh</text>
</a>
</g>
</g>
<!-- Node4&#45;&gt;Node5 -->
<g id="edge4" class="edge">
<title>Node4&#45;&gt;Node5</title>
<path fill="none" stroke="midnightblue" d="M453.21,-190.44C428.69,-181.44 389.9,-167.19 362.3,-157.05"/>
<polygon fill="midnightblue" stroke="midnightblue" points="363.28,-153.68 352.68,-153.52 360.86,-160.25 363.28,-153.68"/>
</g>
<!-- Node14 -->
<g id="node14" class="node">
<title>Node14</title>
<g id="a_node14"><a xlink:title=" ">
<polygon fill="white" stroke="#bfbfbf" points="405,-134.5 405,-153.5 512,-153.5 512,-134.5 405,-134.5"/>
<text text-anchor="middle" x="458.5" y="-141.5" font-family="Helvetica,sans-Serif" font-size="10.00">G4Transform3D.hh</text>
</a>
</g>
</g>
<!-- Node4&#45;&gt;Node14 -->
<g id="edge13" class="edge">
<title>Node4&#45;&gt;Node14</title>
<path fill="none" stroke="midnightblue" d="M473.53,-190.08C471.12,-182.85 467.64,-172.41 464.63,-163.4"/>
<polygon fill="midnightblue" stroke="midnightblue" points="467.9,-162.13 461.42,-153.75 461.26,-164.34 467.9,-162.13"/>
</g>
<!-- Node15 -->
<g id="node15" class="node">
<title>Node15</title>
<g id="a_node15"><a xlink:title=" ">
<polygon fill="white" stroke="#bfbfbf" points="530.5,-134.5 530.5,-153.5 638.5,-153.5 638.5,-134.5 530.5,-134.5"/>
<text text-anchor="middle" x="584.5" y="-141.5" font-family="Helvetica,sans-Serif" font-size="10.00">G4VisAttributes.hh</text>
</a>
</g>
</g>
<!-- Node4&#45;&gt;Node15 -->
<g id="edge14" class="edge">
<title>Node4&#45;&gt;Node15</title>
<path fill="none" stroke="midnightblue" d="M493.85,-190.32C511.17,-181.66 538.02,-168.24 558,-158.25"/>
<polygon fill="midnightblue" stroke="midnightblue" points="559.81,-161.26 567.19,-153.65 556.68,-155 559.81,-161.26"/>
</g>
<!-- Node16 -->
<g id="node16" class="node">
<title>Node16</title>
<g id="a_node16"><a xlink:title=" ">
<polygon fill="white" stroke="#bfbfbf" points="0,-134.5 0,-153.5 125,-153.5 125,-134.5 0,-134.5"/>
<text text-anchor="middle" x="62.5" y="-141.5" font-family="Helvetica,sans-Serif" font-size="10.00">G4SubtractionSolid.hh</text>
</a>
</g>
</g>
<!-- Node4&#45;&gt;Node16 -->
<g id="edge15" class="edge">
<title>Node4&#45;&gt;Node16</title>
<path fill="none" stroke="midnightblue" d="M410.9,-190.44C335.84,-180.65 213.26,-164.66 135.3,-154.5"/>
<polygon fill="midnightblue" stroke="midnightblue" points="135.45,-150.99 125.08,-153.16 134.55,-157.93 135.45,-150.99"/>
</g>
<!-- Node17 -->
<g id="node17" class="node">
<title>Node17</title>
<g id="a_node17"><a xlink:title=" ">
<polygon fill="white" stroke="#bfbfbf" points="143.5,-134.5 143.5,-153.5 253.5,-153.5 253.5,-134.5 143.5,-134.5"/>
<text text-anchor="middle" x="198.5" y="-141.5" font-family="Helvetica,sans-Serif" font-size="10.00">G4PVPlacement.hh</text>
</a>
</g>
</g>
<!-- Node4&#45;&gt;Node17 -->
<g id="edge16" class="edge">
<title>Node4&#45;&gt;Node17</title>
<path fill="none" stroke="midnightblue" d="M432.45,-190.44C383.65,-180.96 304.94,-165.67 252.47,-155.48"/>
<polygon fill="midnightblue" stroke="midnightblue" points="252.83,-151.99 242.34,-153.52 251.49,-158.86 252.83,-151.99"/>
</g>
<!-- Node6 -->
<g id="node6" class="node">
<title>Node6</title>
<g id="a_node6"><a xlink:href="_o_m_sim_logger_8hh.html" target="_top" xlink:title=" ">
<polygon fill="white" stroke="black" points="993,-73 993,-92 1092,-92 1092,-73 993,-73"/>
<text text-anchor="middle" x="1042.5" y="-80" font-family="Helvetica,sans-Serif" font-size="10.00">OMSimLogger.hh</text>
</a>
</g>
</g>
<!-- Node5&#45;&gt;Node6 -->
<g id="edge5" class="edge">
<title>Node5&#45;&gt;Node6</title>
<path fill="none" stroke="midnightblue" d="M387.07,-134.95C389.92,-134.61 392.74,-134.3 395.5,-134 611.14,-110.9 868.29,-93.99 982.61,-87.02"/>
<polygon fill="midnightblue" stroke="midnightblue" points="983.13,-90.49 992.9,-86.39 982.7,-83.51 983.13,-90.49"/>
</g>
<!-- Node11 -->
<g id="node11" class="node">
<title>Node11</title>
<g id="a_node11"><a xlink:title=" ">
<polygon fill="white" stroke="#bfbfbf" points="331,-73 331,-92 474,-92 474,-73 331,-73"/>
<text text-anchor="middle" x="402.5" y="-80" font-family="Helvetica,sans-Serif" font-size="10.00">G4OpBoundaryProcess.hh</text>
</a>
</g>
</g>
<!-- Node5&#45;&gt;Node11 -->
<g id="edge10" class="edge">
<title>Node5&#45;&gt;Node11</title>
<path fill="none" stroke="midnightblue" d="M339.96,-134.48C351.45,-125.11 370.13,-109.88 384.09,-98.51"/>
<polygon fill="midnightblue" stroke="midnightblue" points="386.52,-101.04 392.06,-92.01 382.1,-95.61 386.52,-101.04"/>
</g>
<!-- Node12 -->
<g id="node12" class="node">
<title>Node12</title>
<g id="a_node12"><a xlink:title=" ">
<polygon fill="white" stroke="#bfbfbf" points="661,-73 661,-92 780,-92 780,-73 661,-73"/>
<text text-anchor="middle" x="720.5" y="-80" font-family="Helvetica,sans-Serif" font-size="10.00">G4SystemOfUnits.hh</text>
</a>
</g>
</g>
<!-- Node5&#45;&gt;Node12 -->
<g id="edge11" class="edge">
<title>Node5&#45;&gt;Node12</title>
<path fill="none" stroke="midnightblue" d="M385.52,-134.48C456.51,-123.67 578.7,-105.08 654.24,-93.58"/>
<polygon fill="midnightblue" stroke="midnightblue" points="655.22,-96.97 664.58,-92.01 654.17,-90.05 655.22,-96.97"/>
</g>
<!-- Node13 -->
<g id="node13" class="node">
<title>Node13</title>
<g id="a_node13"><a xlink:title=" ">
<polygon fill="white" stroke="#bfbfbf" points="200,-67.5 200,-97.5 313,-97.5 313,-67.5 200,-67.5"/>
<text text-anchor="start" x="208" y="-85.5" font-family="Helvetica,sans-Serif" font-size="10.00">boost/property_tree</text>
<text text-anchor="middle" x="256.5" y="-74.5" font-family="Helvetica,sans-Serif" font-size="10.00">/json_parser.hpp</text>
</a>
</g>
</g>
<!-- Node5&#45;&gt;Node13 -->
<g id="edge12" class="edge">
<title>Node5&#45;&gt;Node13</title>
<path fill="none" stroke="midnightblue" d="M319.04,-134.48C309.34,-126.57 294.51,-114.48 281.73,-104.07"/>
<polygon fill="midnightblue" stroke="midnightblue" points="283.67,-101.13 273.7,-97.52 279.24,-106.55 283.67,-101.13"/>
</g>
<!-- Node7 -->
<g id="node7" class="node">
<title>Node7</title>
<g id="a_node7"><a xlink:title=" ">
<polygon fill="white" stroke="#bfbfbf" points="824,-6 824,-25 917,-25 917,-6 824,-6"/>
<text text-anchor="middle" x="870.5" y="-13" font-family="Helvetica,sans-Serif" font-size="10.00">spdlog/spdlog.h</text>
</a>
</g>
</g>
<!-- Node6&#45;&gt;Node7 -->
<g id="edge6" class="edge">
<title>Node6&#45;&gt;Node7</title>
<path fill="none" stroke="midnightblue" d="M1019.66,-72.87C989.63,-61.52 936.72,-41.52 902.66,-28.65"/>
<polygon fill="midnightblue" stroke="midnightblue" points="903.75,-25.32 893.16,-25.06 901.28,-31.87 903.75,-25.32"/>
</g>
<!-- Node8 -->
<g id="node8" class="node">
<title>Node8</title>
<g id="a_node8"><a xlink:title=" ">
<polygon fill="white" stroke="#bfbfbf" points="935,-0.5 935,-30.5 1046,-30.5 1046,-0.5 935,-0.5"/>
<text text-anchor="start" x="943" y="-18.5" font-family="Helvetica,sans-Serif" font-size="10.00">spdlog/sinks/stdout</text>
<text text-anchor="middle" x="990.5" y="-7.5" font-family="Helvetica,sans-Serif" font-size="10.00">_color_sinks.h</text>
</a>
</g>
</g>
<!-- Node6&#45;&gt;Node8 -->
<g id="edge7" class="edge">
<title>Node6&#45;&gt;Node8</title>
<path fill="none" stroke="midnightblue" d="M1035.49,-72.73C1028.53,-64.03 1017.58,-50.34 1008.22,-38.65"/>
<polygon fill="midnightblue" stroke="midnightblue" points="1010.75,-36.21 1001.77,-30.59 1005.29,-40.58 1010.75,-36.21"/>
</g>
<!-- Node9 -->
<g id="node9" class="node">
<title>Node9</title>
<g id="a_node9"><a xlink:title=" ">
<polygon fill="white" stroke="#bfbfbf" points="1064.5,-6 1064.5,-25 1122.5,-25 1122.5,-6 1064.5,-6"/>
<text text-anchor="middle" x="1093.5" y="-13" font-family="Helvetica,sans-Serif" font-size="10.00">memory</text>
</a>
</g>
</g>
<!-- Node6&#45;&gt;Node9 -->
<g id="edge8" class="edge">
<title>Node6&#45;&gt;Node9</title>
<path fill="none" stroke="midnightblue" d="M1049.38,-72.73C1057.33,-62.6 1070.6,-45.69 1080.51,-33.06"/>
<polygon fill="midnightblue" stroke="midnightblue" points="1083.31,-35.16 1086.73,-25.13 1077.8,-30.83 1083.31,-35.16"/>
</g>
<!-- Node10 -->
<g id="node10" class="node">
<title>Node10</title>
<g id="a_node10"><a xlink:title=" ">
<polygon fill="white" stroke="#bfbfbf" points="1140.5,-6 1140.5,-25 1238.5,-25 1238.5,-6 1140.5,-6"/>
<text text-anchor="middle" x="1189.5" y="-13" font-family="Helvetica,sans-Serif" font-size="10.00">spdlog/fmt/fmt.h</text>
</a>
</g>
</g>
<!-- Node6&#45;&gt;Node10 -->
<g id="edge9" class="edge">
<title>Node6&#45;&gt;Node10</title>
<path fill="none" stroke="midnightblue" d="M1062.02,-72.87C1087.28,-61.7 1131.5,-42.15 1160.64,-29.26"/>
<polygon fill="midnightblue" stroke="midnightblue" points="1162.17,-32.41 1169.9,-25.17 1159.34,-26.01 1162.17,-32.41"/>
</g>
<!-- Node19 -->
<g id="node19" class="node">
<title>Node19</title>
<g id="a_node19"><a xlink:href="_o_m_sim_p_m_t_response_8hh.html" target="_top" xlink:title="Provides simulation for PMT response. This class is responsible for transforming hits on photocathode...">
<polygon fill="white" stroke="black" points="620,-190.5 620,-209.5 755,-209.5 755,-190.5 620,-190.5"/>
<text text-anchor="middle" x="687.5" y="-197.5" font-family="Helvetica,sans-Serif" font-size="10.00">OMSimPMTResponse.hh</text>
</a>
</g>
</g>
<!-- Node18&#45;&gt;Node19 -->
<g id="edge18" class="edge">
<title>Node18&#45;&gt;Node19</title>
<path fill="none" stroke="midnightblue" d="M795.22,-246.44C774.15,-237.56 740.98,-223.56 717.01,-213.45"/>
<polygon fill="midnightblue" stroke="midnightblue" points="718.26,-210.18 707.69,-209.52 715.54,-216.63 718.26,-210.18"/>
</g>
<!-- Node24 -->
<g id="node24" class="node">
<title>Node24</title>
<g id="a_node24"><a xlink:title=" ">
<polygon fill="white" stroke="#bfbfbf" points="773,-190.5 773,-209.5 876,-209.5 876,-190.5 773,-190.5"/>
<text text-anchor="middle" x="824.5" y="-197.5" font-family="Helvetica,sans-Serif" font-size="10.00">G4ThreeVector.hh</text>
</a>
</g>
</g>
<!-- Node18&#45;&gt;Node24 -->
<g id="edge24" class="edge">
<title>Node18&#45;&gt;Node24</title>
<path fill="none" stroke="midnightblue" d="M816.99,-246.08C818.18,-238.93 819.89,-228.64 821.38,-219.69"/>
<polygon fill="midnightblue" stroke="midnightblue" points="824.85,-220.19 823.04,-209.75 817.95,-219.04 824.85,-220.19"/>
</g>
<!-- Node25 -->
<g id="node25" class="node">
<title>Node25</title>
<g id="a_node25"><a xlink:title=" ">
<polygon fill="white" stroke="#bfbfbf" points="894,-190.5 894,-209.5 949,-209.5 949,-190.5 894,-190.5"/>
<text text-anchor="middle" x="921.5" y="-197.5" font-family="Helvetica,sans-Serif" font-size="10.00">fstream</text>
</a>
</g>
</g>
<!-- Node18&#45;&gt;Node25 -->
<g id="edge25" class="edge">
<title>Node18&#45;&gt;Node25</title>
<path fill="none" stroke="midnightblue" d="M832.53,-246.32C849.53,-237.66 875.88,-224.24 895.49,-214.25"/>
<polygon fill="midnightblue" stroke="midnightblue" points="897.19,-217.31 904.51,-209.65 894.01,-211.08 897.19,-217.31"/>
</g>
<!-- Node19&#45;&gt;Node12 -->
<g id="edge19" class="edge">
<title>Node19&#45;&gt;Node12</title>
<path fill="none" stroke="midnightblue" d="M740.82,-190.43C762.16,-184.1 784.68,-173.1 797.5,-154 813.41,-130.31 780.63,-109.09 753.03,-96.27"/>
<polygon fill="midnightblue" stroke="midnightblue" points="754.13,-92.93 743.57,-92.09 751.3,-99.33 754.13,-92.93"/>
</g>
<!-- Node20 -->
<g id="node20" class="node">
<title>Node20</title>
<g id="a_node20"><a xlink:title=" ">
<polygon fill="white" stroke="#bfbfbf" points="846,-134.5 846,-153.5 919,-153.5 919,-134.5 846,-134.5"/>
<text text-anchor="middle" x="882.5" y="-141.5" font-family="Helvetica,sans-Serif" font-size="10.00">G4Types.hh</text>
</a>
</g>
</g>
<!-- Node19&#45;&gt;Node20 -->
<g id="edge20" class="edge">
<title>Node19&#45;&gt;Node20</title>
<path fill="none" stroke="midnightblue" d="M718.4,-190.44C751.77,-181.2 805.09,-166.44 841.85,-156.26"/>
<polygon fill="midnightblue" stroke="midnightblue" points="843.04,-159.56 851.75,-153.52 841.17,-152.81 843.04,-159.56"/>
</g>
<!-- Node21 -->
<g id="node21" class="node">
<title>Node21</title>
<g id="a_node21"><a xlink:title=" ">
<polygon fill="white" stroke="#bfbfbf" points="937.5,-134.5 937.5,-153.5 975.5,-153.5 975.5,-134.5 937.5,-134.5"/>
<text text-anchor="middle" x="956.5" y="-141.5" font-family="Helvetica,sans-Serif" font-size="10.00">map</text>
</a>
</g>
</g>
<!-- Node19&#45;&gt;Node21 -->
<g id="edge21" class="edge">
<title>Node19&#45;&gt;Node21</title>
<path fill="none" stroke="midnightblue" d="M744.43,-190.45C791.24,-182.96 859.43,-170.95 927.3,-154.05"/>
<polygon fill="midnightblue" stroke="midnightblue" points="928.48,-157.36 937.31,-151.52 926.76,-150.58 928.48,-157.36"/>
</g>
<!-- Node22 -->
<g id="node22" class="node">
<title>Node22</title>
<g id="a_node22"><a xlink:title=" ">
<polygon fill="white" stroke="#bfbfbf" points="657,-134.5 657,-153.5 718,-153.5 718,-134.5 657,-134.5"/>
<text text-anchor="middle" x="687.5" y="-141.5" font-family="Helvetica,sans-Serif" font-size="10.00">TGraph.h</text>
</a>
</g>
</g>
<!-- Node19&#45;&gt;Node22 -->
<g id="edge22" class="edge">
<title>Node19&#45;&gt;Node22</title>
<path fill="none" stroke="midnightblue" d="M687.5,-190.08C687.5,-183.01 687.5,-172.86 687.5,-163.99"/>
<polygon fill="midnightblue" stroke="midnightblue" points="691,-163.75 687.5,-153.75 684,-163.75 691,-163.75"/>
</g>
<!-- Node23 -->
<g id="node23" class="node">
<title>Node23</title>
<g id="a_node23"><a xlink:title=" ">
<polygon fill="white" stroke="#bfbfbf" points="736,-134.5 736,-153.5 789,-153.5 789,-134.5 736,-134.5"/>
<text text-anchor="middle" x="762.5" y="-141.5" font-family="Helvetica,sans-Serif" font-size="10.00">TH2D.h</text>
</a>
</g>
</g>
<!-- Node19&#45;&gt;Node23 -->
<g id="edge23" class="edge">
<title>Node19&#45;&gt;Node23</title>
<path fill="none" stroke="midnightblue" d="M699.55,-190.32C710.96,-182.11 728.33,-169.6 741.93,-159.81"/>
<polygon fill="midnightblue" stroke="midnightblue" points="744.16,-162.52 750.23,-153.83 740.07,-156.84 744.16,-162.52"/>
</g>
<!-- Node26&#45;&gt;Node4 -->
<g id="edge27" class="edge">
<title>Node26&#45;&gt;Node4</title>
<path fill="none" stroke="midnightblue" d="M484.01,-246.08C482.82,-238.93 481.11,-228.64 479.62,-219.69"/>
<polygon fill="midnightblue" stroke="midnightblue" points="483.05,-219.04 477.96,-209.75 476.15,-220.19 483.05,-219.04"/>
</g>
<!-- Node26&#45;&gt;Node19 -->
<g id="edge29" class="edge">
<title>Node26&#45;&gt;Node19</title>
<path fill="none" stroke="midnightblue" d="M517.51,-246.44C552.23,-237.16 607.79,-222.31 645.88,-212.13"/>
<polygon fill="midnightblue" stroke="midnightblue" points="646.89,-215.48 655.64,-209.52 645.08,-208.72 646.89,-215.48"/>
</g>
<!-- Node26&#45;&gt;Node26 -->
<g id="edge28" class="edge">
<title>Node26&#45;&gt;Node26</title>
<path fill="none" stroke="midnightblue" d="M524.95,-265.53C551.76,-268.31 578,-265.13 578,-256 578,-248.01 557.91,-244.58 534.93,-245.71"/>
<polygon fill="midnightblue" stroke="midnightblue" points="534.65,-242.22 524.95,-246.47 535.19,-249.2 534.65,-242.22"/>
</g>
<!-- Node27 -->
<g id="node27" class="node">
<title>Node27</title>
<g id="a_node27"><a xlink:title=" ">
<polygon fill="white" stroke="#bfbfbf" points="201.5,-190.5 201.5,-209.5 299.5,-209.5 299.5,-190.5 201.5,-190.5"/>
<text text-anchor="middle" x="250.5" y="-197.5" font-family="Helvetica,sans-Serif" font-size="10.00">G4UnionSolid.hh</text>
</a>
</g>
</g>
<!-- Node26&#45;&gt;Node27 -->
<g id="edge30" class="edge">
<title>Node26&#45;&gt;Node27</title>
<path fill="none" stroke="midnightblue" d="M448.26,-246.44C407.44,-237.06 341.86,-221.99 297.52,-211.8"/>
<polygon fill="midnightblue" stroke="midnightblue" points="298.09,-208.34 287.56,-209.52 296.52,-215.17 298.09,-208.34"/>
</g>
<!-- Node28 -->
<g id="node28" class="node">
<title>Node28</title>
<g id="a_node28"><a xlink:title=" ">
<polygon fill="white" stroke="#bfbfbf" points="318,-190.5 318,-209.5 385,-209.5 385,-190.5 318,-190.5"/>
<text text-anchor="middle" x="351.5" y="-197.5" font-family="Helvetica,sans-Serif" font-size="10.00">G4Tubs.hh</text>
</a>
</g>
</g>
<!-- Node26&#45;&gt;Node28 -->
<g id="edge31" class="edge">
<title>Node26&#45;&gt;Node28</title>
<path fill="none" stroke="midnightblue" d="M464.27,-246.44C442.12,-237.52 407.18,-223.44 382.06,-213.32"/>
<polygon fill="midnightblue" stroke="midnightblue" points="383.22,-210.01 372.63,-209.52 380.6,-216.5 383.22,-210.01"/>
</g>
<!-- Node31&#45;&gt;Node3 -->
<g id="edge36" class="edge">
<title>Node31&#45;&gt;Node3</title>
<path fill="none" stroke="midnightblue" d="M622.8,-358.08C625.48,-350.85 629.35,-340.41 632.69,-331.4"/>
<polygon fill="midnightblue" stroke="midnightblue" points="636.07,-332.34 636.26,-321.75 629.5,-329.91 636.07,-332.34"/>
</g>
<!-- Node31&#45;&gt;Node26 -->
<g id="edge35" class="edge">
<title>Node31&#45;&gt;Node26</title>
<path fill="none" stroke="midnightblue" d="M607.82,-358.2C596.01,-349.24 577.31,-334.88 561.5,-322 541.06,-305.34 518.12,-285.57 502.85,-272.25"/>
<polygon fill="midnightblue" stroke="midnightblue" points="505.04,-269.52 495.21,-265.57 500.43,-274.78 505.04,-269.52"/>
</g>
<!-- Node32&#45;&gt;Node3 -->
<g id="edge39" class="edge">
<title>Node32&#45;&gt;Node3</title>
<path fill="none" stroke="midnightblue" d="M720.92,-358.32C705.5,-349.74 681.69,-336.49 663.79,-326.52"/>
<polygon fill="midnightblue" stroke="midnightblue" points="665.49,-323.46 655.05,-321.65 662.08,-329.58 665.49,-323.46"/>
</g>
<!-- Node32&#45;&gt;Node26 -->
<g id="edge38" class="edge">
<title>Node32&#45;&gt;Node26</title>
<path fill="none" stroke="midnightblue" d="M736.49,-358.37C735.99,-344.34 732.83,-316.68 716.5,-302 695.04,-282.7 626.92,-271 570.17,-264.39"/>
<polygon fill="midnightblue" stroke="midnightblue" points="570.42,-260.89 560.09,-263.25 569.63,-267.85 570.42,-260.89"/>
</g>
<!-- Node33&#45;&gt;Node3 -->
<g id="edge42" class="edge">
<title>Node33&#45;&gt;Node3</title>
<path fill="none" stroke="midnightblue" d="M429.11,-358.44C472.73,-349.02 542.9,-333.87 590.08,-323.68"/>
<polygon fill="midnightblue" stroke="midnightblue" points="591.04,-327.05 600.07,-321.52 589.56,-320.21 591.04,-327.05"/>
</g>
<!-- Node33&#45;&gt;Node26 -->
<g id="edge41" class="edge">
<title>Node33&#45;&gt;Node26</title>
<path fill="none" stroke="midnightblue" d="M403.33,-358.2C415.65,-349.9 433.68,-336.58 446.5,-322 459.11,-307.67 469.95,-288.71 476.97,-274.97"/>
<polygon fill="midnightblue" stroke="midnightblue" points="480.29,-276.16 481.57,-265.65 474.01,-273.07 480.29,-276.16"/>
</g>
<!-- Node34 -->
<g id="node34" class="node">
<title>Node34</title>
<g id="a_node34"><a xlink:title=" ">
<polygon fill="white" stroke="#bfbfbf" points="214.5,-302.5 214.5,-321.5 330.5,-321.5 330.5,-302.5 214.5,-302.5"/>
<text text-anchor="middle" x="272.5" y="-309.5" font-family="Helvetica,sans-Serif" font-size="10.00">G4LogicalVolume.hh</text>
</a>
</g>
</g>
<!-- Node33&#45;&gt;Node34 -->
<g id="edge43" class="edge">
<title>Node33&#45;&gt;Node34</title>
<path fill="none" stroke="midnightblue" d="M370.96,-358.44C351.88,-349.64 321.93,-335.81 300.06,-325.72"/>
<polygon fill="midnightblue" stroke="midnightblue" points="301.5,-322.53 290.95,-321.52 298.57,-328.88 301.5,-322.53"/>
</g>
<!-- Node35 -->
<g id="node35" class="node">
<title>Node35</title>
<g id="a_node35"><a xlink:title=" ">
<polygon fill="white" stroke="#bfbfbf" points="349,-302.5 349,-321.5 438,-321.5 438,-302.5 349,-302.5"/>
<text text-anchor="middle" x="393.5" y="-309.5" font-family="Helvetica,sans-Serif" font-size="10.00">G4Polycone.hh</text>
</a>
</g>
</g>
<!-- Node33&#45;&gt;Node35 -->
<g id="edge44" class="edge">
<title>Node33&#45;&gt;Node35</title>
<path fill="none" stroke="midnightblue" d="M390.16,-358.08C390.68,-351.01 391.44,-340.86 392.09,-331.99"/>
<polygon fill="midnightblue" stroke="midnightblue" points="395.6,-331.98 392.85,-321.75 388.62,-331.47 395.6,-331.98"/>
</g>
<!-- Node36&#45;&gt;Node3 -->
<g id="edge47" class="edge">
<title>Node36&#45;&gt;Node3</title>
<path fill="none" stroke="midnightblue" d="M526.73,-358.44C548.88,-349.52 583.82,-335.44 608.94,-325.32"/>
<polygon fill="midnightblue" stroke="midnightblue" points="610.4,-328.5 618.37,-321.52 607.78,-322.01 610.4,-328.5"/>
</g>
<!-- Node36&#45;&gt;Node26 -->
<g id="edge46" class="edge">
<title>Node36&#45;&gt;Node26</title>
<path fill="none" stroke="midnightblue" d="M503.93,-358.37C500.7,-340.62 493.26,-299.67 488.88,-275.6"/>
<polygon fill="midnightblue" stroke="midnightblue" points="492.29,-274.8 487.06,-265.59 485.41,-276.06 492.29,-274.8"/>
</g>
<!-- Node37&#45;&gt;Node3 -->
<g id="edge54" class="edge">
<title>Node37&#45;&gt;Node3</title>
<path fill="none" stroke="midnightblue" d="M278.9,-360.38C350.3,-351 481.43,-333.77 564.35,-322.87"/>
<polygon fill="midnightblue" stroke="midnightblue" points="565,-326.32 574.46,-321.55 564.09,-319.38 565,-326.32"/>
</g>
<!-- Node37&#45;&gt;Node26 -->
<g id="edge53" class="edge">
<title>Node37&#45;&gt;Node26</title>
<path fill="none" stroke="midnightblue" d="M220.68,-358.45C209.35,-345.01 191.21,-318.76 205.5,-302 230.24,-272.96 327.63,-262.59 400.64,-258.93"/>
<polygon fill="midnightblue" stroke="midnightblue" points="400.95,-262.42 410.77,-258.45 400.62,-255.42 400.95,-262.42"/>
</g>
<!-- Node38 -->
<g id="node38" class="node">
<title>Node38</title>
<g id="a_node38"><a xlink:href="_o_m_sim_m_d_o_m_flasher_8hh.html" target="_top" xlink:title="Defines the mDOMFlasher class for simulating the 10 flashers in an mDOM optical module.">
<polygon fill="white" stroke="black" points="127,-246.5 127,-265.5 262,-265.5 262,-246.5 127,-246.5"/>
<text text-anchor="middle" x="194.5" y="-253.5" font-family="Helvetica,sans-Serif" font-size="10.00">OMSimMDOMFlasher.hh</text>
</a>
</g>
</g>
<!-- Node37&#45;&gt;Node38 -->
<g id="edge49" class="edge">
<title>Node37&#45;&gt;Node38</title>
<path fill="none" stroke="midnightblue" d="M211,-358.46C197.71,-350.92 180.42,-338.53 172.5,-322 164.97,-306.29 173.22,-287.31 181.68,-273.93"/>
<polygon fill="midnightblue" stroke="midnightblue" points="184.59,-275.89 187.38,-265.67 178.82,-271.92 184.59,-275.89"/>
</g>
<!-- Node38&#45;&gt;Node4 -->
<g id="edge50" class="edge">
<title>Node38&#45;&gt;Node4</title>
<path fill="none" stroke="midnightblue" d="M239.18,-246.44C288.79,-236.94 368.86,-221.61 422.09,-211.42"/>
<polygon fill="midnightblue" stroke="midnightblue" points="422.86,-214.83 432.03,-209.52 421.55,-207.96 422.86,-214.83"/>
</g>
<!-- Node38&#45;&gt;Node27 -->
<g id="edge51" class="edge">
<title>Node38&#45;&gt;Node27</title>
<path fill="none" stroke="midnightblue" d="M203.5,-246.32C211.69,-238.42 224.01,-226.55 233.97,-216.94"/>
<polygon fill="midnightblue" stroke="midnightblue" points="236.57,-219.29 241.34,-209.83 231.71,-214.26 236.57,-219.29"/>
</g>
<!-- Node39 -->
<g id="node39" class="node">
<title>Node39</title>
<g id="a_node39"><a xlink:title=" ">
<polygon fill="white" stroke="#bfbfbf" points="91.5,-190.5 91.5,-209.5 183.5,-209.5 183.5,-190.5 91.5,-190.5"/>
<text text-anchor="middle" x="137.5" y="-197.5" font-family="Helvetica,sans-Serif" font-size="10.00">G4Navigator.hh</text>
</a>
</g>
</g>
<!-- Node38&#45;&gt;Node39 -->
<g id="edge52" class="edge">
<title>Node38&#45;&gt;Node39</title>
<path fill="none" stroke="midnightblue" d="M185.34,-246.32C177,-238.42 164.47,-226.55 154.32,-216.94"/>
<polygon fill="midnightblue" stroke="midnightblue" points="156.49,-214.17 146.82,-209.83 151.68,-219.25 156.49,-214.17"/>
</g>
<!-- Node40&#45;&gt;Node6 -->
<g id="edge56" class="edge">
<title>Node40&#45;&gt;Node6</title>
<path fill="none" stroke="midnightblue" d="M1088.79,-246.44C1111.03,-239.95 1132.85,-228.86 1146.5,-210 1177.53,-167.15 1108.5,-119.76 1068.48,-97.06"/>
<polygon fill="midnightblue" stroke="midnightblue" points="1069.93,-93.87 1059.48,-92.1 1066.54,-99.99 1069.93,-93.87"/>
</g>
<!-- Node40&#45;&gt;Node25 -->
<g id="edge57" class="edge">
<title>Node40&#45;&gt;Node25</title>
<path fill="none" stroke="midnightblue" d="M995.36,-246.32C981.63,-237.9 960.56,-224.97 944.44,-215.07"/>
<polygon fill="midnightblue" stroke="midnightblue" points="945.96,-211.9 935.6,-209.65 942.3,-217.87 945.96,-211.9"/>
</g>
<!-- Node41 -->
<g id="node41" class="node">
<title>Node41</title>
<g id="a_node41"><a xlink:title=" ">
<polygon fill="white" stroke="#bfbfbf" points="967.5,-190.5 967.5,-209.5 1051.5,-209.5 1051.5,-190.5 967.5,-190.5"/>
<text text-anchor="middle" x="1009.5" y="-197.5" font-family="Helvetica,sans-Serif" font-size="10.00">boost/any.hpp</text>
</a>
</g>
</g>
<!-- Node40&#45;&gt;Node41 -->
<g id="edge58" class="edge">
<title>Node40&#45;&gt;Node41</title>
<path fill="none" stroke="midnightblue" d="M1009.5,-246.08C1009.5,-239.01 1009.5,-228.86 1009.5,-219.99"/>
<polygon fill="midnightblue" stroke="midnightblue" points="1013,-219.75 1009.5,-209.75 1006,-219.75 1013,-219.75"/>
</g>
<!-- Node42 -->
<g id="node42" class="node">
<title>Node42</title>
<g id="a_node42"><a xlink:title=" ">
<polygon fill="white" stroke="#bfbfbf" points="1069.5,-190.5 1069.5,-209.5 1137.5,-209.5 1137.5,-190.5 1069.5,-190.5"/>
<text text-anchor="middle" x="1103.5" y="-197.5" font-family="Helvetica,sans-Serif" font-size="10.00">sys/time.h</text>
</a>
</g>
</g>
<!-- Node40&#45;&gt;Node42 -->
<g id="edge59" class="edge">
<title>Node40&#45;&gt;Node42</title>
<path fill="none" stroke="midnightblue" d="M1024.6,-246.32C1039.4,-237.82 1062.19,-224.73 1079.48,-214.8"/>
<polygon fill="midnightblue" stroke="midnightblue" points="1081.51,-217.67 1088.43,-209.65 1078.02,-211.6 1081.51,-217.67"/>
</g>
</g>
</svg>
