<?xml version="1.0" encoding="UTF-8" standalone="no"?>
<!DOCTYPE svg PUBLIC "-//W3C//DTD SVG 1.1//EN"
 "http://www.w3.org/Graphics/SVG/1.1/DTD/svg11.dtd">
<!-- Generated by graphviz version 2.43.0 (0)
 -->
<!-- Title: OMSimEffectiveAreaDetector.hh Pages: 1 -->
<svg width="1774pt" height="434pt"
 viewBox="0.00 0.00 1774.00 434.00" xmlns="http://www.w3.org/2000/svg" xmlns:xlink="http://www.w3.org/1999/xlink">
<g id="graph0" class="graph" transform="scale(1 1) rotate(0) translate(4 430)">
<title>OMSimEffectiveAreaDetector.hh</title>
<!-- Node1 -->
<g id="Node000001" class="node">
<title>Node1</title>
<g id="a_Node000001"><a xlink:title="Defines the OMSimEffectiveAreaDetector class for effective area simulation detector construction.">
<polygon fill="#999999" stroke="#666666" points="1537,-426 1364,-426 1364,-407 1537,-407 1537,-426"/>
<text text-anchor="middle" x="1450.5" y="-414" font-family="Helvetica,sans-Serif" font-size="10.00">OMSimEffectiveAreaDetector.hh</text>
</a>
</g>
</g>
<!-- Node2 -->
<g id="Node000002" class="node">
<title>Node2</title>
<g id="a_Node000002"><a xlink:href="_o_m_sim_detector_construction_8hh_source.html" target="_top" xlink:title=" ">
<polygon fill="white" stroke="#666666" points="1535.5,-371 1365.5,-371 1365.5,-352 1535.5,-352 1535.5,-371"/>
<text text-anchor="middle" x="1450.5" y="-359" font-family="Helvetica,sans-Serif" font-size="10.00">OMSimDetectorConstruction.hh</text>
</a>
</g>
</g>
<!-- Node1&#45;&gt;Node2 -->
<g id="edge1_Node000001_Node000002" class="edge">
<title>Node1&#45;&gt;Node2</title>
<g id="a_edge1_Node000001_Node000002"><a xlink:title=" ">
<path fill="none" stroke="#63b8ff" d="M1450.5,-406.75C1450.5,-399.8 1450.5,-389.85 1450.5,-381.13"/>
<polygon fill="#63b8ff" stroke="#63b8ff" points="1454,-381.09 1450.5,-371.09 1447,-381.09 1454,-381.09"/>
</a>
</g>
</g>
<!-- Node3 -->
<g id="Node000003" class="node">
<title>Node3</title>
<g id="a_Node000003"><a xlink:href="_o_m_sim_optical_module_8hh_source.html" target="_top" xlink:title=" ">
<polygon fill="white" stroke="#666666" points="1401,-316 1264,-316 1264,-297 1401,-297 1401,-316"/>
<text text-anchor="middle" x="1332.5" y="-304" font-family="Helvetica,sans-Serif" font-size="10.00">OMSimOpticalModule.hh</text>
</a>
</g>
</g>
<!-- Node2&#45;&gt;Node3 -->
<g id="edge2_Node000002_Node000003" class="edge">
<title>Node2&#45;&gt;Node3</title>
<g id="a_edge2_Node000002_Node000003"><a xlink:title=" ">
<path fill="none" stroke="#63b8ff" d="M1431.54,-351.98C1412.47,-343.42 1382.84,-330.11 1360.95,-320.28"/>
<polygon fill="#63b8ff" stroke="#63b8ff" points="1362.36,-317.07 1351.8,-316.17 1359.49,-323.46 1362.36,-317.07"/>
</a>
</g>
</g>
<!-- Node34 -->
<g id="Node000034" class="node">
<title>Node34</title>
<g id="a_Node000034"><a xlink:title=" ">
<polygon fill="#e0e0e0" stroke="#999999" points="1481.5,-316 1419.5,-316 1419.5,-297 1481.5,-297 1481.5,-316"/>
<text text-anchor="middle" x="1450.5" y="-304" font-family="Helvetica,sans-Serif" font-size="10.00">G4Orb.hh</text>
</a>
</g>
</g>
<!-- Node2&#45;&gt;Node34 -->
<g id="edge36_Node000002_Node000034" class="edge">
<title>Node2&#45;&gt;Node34</title>
<g id="a_edge36_Node000002_Node000034"><a xlink:title=" ">
<path fill="none" stroke="#63b8ff" d="M1450.5,-351.75C1450.5,-344.8 1450.5,-334.85 1450.5,-326.13"/>
<polygon fill="#63b8ff" stroke="#63b8ff" points="1454,-326.09 1450.5,-316.09 1447,-326.09 1454,-326.09"/>
</a>
</g>
</g>
<!-- Node35 -->
<g id="Node000035" class="node">
<title>Node35</title>
<g id="a_Node000035"><a xlink:title=" ">
<polygon fill="#e0e0e0" stroke="#999999" points="1677.5,-316 1499.5,-316 1499.5,-297 1677.5,-297 1677.5,-316"/>
<text text-anchor="middle" x="1588.5" y="-304" font-family="Helvetica,sans-Serif" font-size="10.00">G4VUserDetectorConstruction.hh</text>
</a>
</g>
</g>
<!-- Node2&#45;&gt;Node35 -->
<g id="edge37_Node000002_Node000035" class="edge">
<title>Node2&#45;&gt;Node35</title>
<g id="a_edge37_Node000002_Node000035"><a xlink:title=" ">
<path fill="none" stroke="#63b8ff" d="M1472.67,-351.98C1495.27,-343.3 1530.56,-329.75 1556.25,-319.88"/>
<polygon fill="#63b8ff" stroke="#63b8ff" points="1557.84,-323.02 1565.92,-316.17 1555.33,-316.49 1557.84,-323.02"/>
</a>
</g>
</g>
<!-- Node4 -->
<g id="Node000004" class="node">
<title>Node4</title>
<g id="a_Node000004"><a xlink:href="_o_m_sim_detector_component_8hh.html" target="_top" xlink:title="Provides helper base class OMSimDetectorComponent for constructing and managing detector components i...">
<polygon fill="white" stroke="#666666" points="1295,-206 1130,-206 1130,-187 1295,-187 1295,-206"/>
<text text-anchor="middle" x="1212.5" y="-194" font-family="Helvetica,sans-Serif" font-size="10.00">OMSimDetectorComponent.hh</text>
</a>
</g>
</g>
<!-- Node3&#45;&gt;Node4 -->
<g id="edge3_Node000003_Node000004" class="edge">
<title>Node3&#45;&gt;Node4</title>
<g id="a_edge3_Node000003_Node000004"><a xlink:title=" ">
<path fill="none" stroke="#63b8ff" d="M1315.27,-296.95C1300.13,-288.93 1277.99,-275.95 1261.5,-261 1246.25,-247.17 1232.27,-228.13 1223.18,-214.51"/>
<polygon fill="#63b8ff" stroke="#63b8ff" points="1226.09,-212.57 1217.71,-206.08 1220.22,-216.38 1226.09,-212.57"/>
</a>
</g>
</g>
<!-- Node25 -->
<g id="Node000025" class="node">
<title>Node25</title>
<g id="a_Node000025"><a xlink:title=" ">
<polygon fill="#e0e0e0" stroke="#999999" points="1394,-261 1271,-261 1271,-242 1394,-242 1394,-261"/>
<text text-anchor="middle" x="1332.5" y="-249" font-family="Helvetica,sans-Serif" font-size="10.00">OMSimHitManager.hh</text>
</a>
</g>
</g>
<!-- Node3&#45;&gt;Node25 -->
<g id="edge24_Node000003_Node000025" class="edge">
<title>Node3&#45;&gt;Node25</title>
<g id="a_edge24_Node000003_Node000025"><a xlink:title=" ">
<path fill="none" stroke="#63b8ff" d="M1332.5,-296.75C1332.5,-289.8 1332.5,-279.85 1332.5,-271.13"/>
<polygon fill="#63b8ff" stroke="#63b8ff" points="1336,-271.09 1332.5,-261.09 1329,-271.09 1336,-271.09"/>
</a>
</g>
</g>
<!-- Node26 -->
<g id="Node000026" class="node">
<title>Node26</title>
<g id="a_Node000026"><a xlink:href="_o_m_sim_p_m_t_construction_8hh.html" target="_top" xlink:title="Construction of the PMTs.">
<polygon fill="white" stroke="#666666" points="1571,-261 1422,-261 1422,-242 1571,-242 1571,-261"/>
<text text-anchor="middle" x="1496.5" y="-249" font-family="Helvetica,sans-Serif" font-size="10.00">OMSimPMTConstruction.hh</text>
</a>
</g>
</g>
<!-- Node3&#45;&gt;Node26 -->
<g id="edge25_Node000003_Node000026" class="edge">
<title>Node3&#45;&gt;Node26</title>
<g id="a_edge25_Node000003_Node000026"><a xlink:title=" ">
<path fill="none" stroke="#63b8ff" d="M1358.85,-296.98C1386.26,-288.13 1429.39,-274.19 1460.06,-264.28"/>
<polygon fill="#63b8ff" stroke="#63b8ff" points="1461.5,-267.49 1469.94,-261.08 1459.35,-260.83 1461.5,-267.49"/>
</a>
</g>
</g>
<!-- Node5 -->
<g id="Node000005" class="node">
<title>Node5</title>
<g id="a_Node000005"><a xlink:href="_o_m_sim_input_data_8hh.html" target="_top" xlink:title="Definition of ParameterTable and OMSimInputData.">
<polygon fill="white" stroke="#666666" points="880,-151 765,-151 765,-132 880,-132 880,-151"/>
<text text-anchor="middle" x="822.5" y="-139" font-family="Helvetica,sans-Serif" font-size="10.00">OMSimInputData.hh</text>
</a>
</g>
</g>
<!-- Node4&#45;&gt;Node5 -->
<g id="edge4_Node000004_Node000005" class="edge">
<title>Node4&#45;&gt;Node5</title>
<g id="a_edge4_Node000004_Node000005"><a xlink:title=" ">
<path fill="none" stroke="#63b8ff" d="M1149.84,-186.98C1078.79,-177.33 963.35,-161.64 890.26,-151.71"/>
<polygon fill="#63b8ff" stroke="#63b8ff" points="890.61,-148.22 880.23,-150.35 889.67,-155.16 890.61,-148.22"/>
</a>
</g>
</g>
<!-- Node21 -->
<g id="Node000021" class="node">
<title>Node21</title>
<g id="a_Node000021"><a xlink:title=" ">
<polygon fill="#e0e0e0" stroke="#999999" points="1005,-151 898,-151 898,-132 1005,-132 1005,-151"/>
<text text-anchor="middle" x="951.5" y="-139" font-family="Helvetica,sans-Serif" font-size="10.00">G4Transform3D.hh</text>
</a>
</g>
</g>
<!-- Node4&#45;&gt;Node21 -->
<g id="edge20_Node000004_Node000021" class="edge">
<title>Node4&#45;&gt;Node21</title>
<g id="a_edge20_Node000004_Node000021"><a xlink:title=" ">
<path fill="none" stroke="#63b8ff" d="M1170.57,-186.98C1125.23,-177.78 1052.89,-163.09 1003.85,-153.13"/>
<polygon fill="#63b8ff" stroke="#63b8ff" points="1004.26,-149.64 993.76,-151.08 1002.87,-156.5 1004.26,-149.64"/>
</a>
</g>
</g>
<!-- Node22 -->
<g id="Node000022" class="node">
<title>Node22</title>
<g id="a_Node000022"><a xlink:title=" ">
<polygon fill="#e0e0e0" stroke="#999999" points="1131.5,-151 1023.5,-151 1023.5,-132 1131.5,-132 1131.5,-151"/>
<text text-anchor="middle" x="1077.5" y="-139" font-family="Helvetica,sans-Serif" font-size="10.00">G4VisAttributes.hh</text>
</a>
</g>
</g>
<!-- Node4&#45;&gt;Node22 -->
<g id="edge21_Node000004_Node000022" class="edge">
<title>Node4&#45;&gt;Node22</title>
<g id="a_edge21_Node000004_Node000022"><a xlink:title=" ">
<path fill="none" stroke="#63b8ff" d="M1190.81,-186.98C1168.7,-178.3 1134.18,-164.75 1109.05,-154.88"/>
<polygon fill="#63b8ff" stroke="#63b8ff" points="1110.17,-151.57 1099.58,-151.17 1107.61,-158.08 1110.17,-151.57"/>
</a>
</g>
</g>
<!-- Node23 -->
<g id="Node000023" class="node">
<title>Node23</title>
<g id="a_Node000023"><a xlink:title=" ">
<polygon fill="#e0e0e0" stroke="#999999" points="1275,-151 1150,-151 1150,-132 1275,-132 1275,-151"/>
<text text-anchor="middle" x="1212.5" y="-139" font-family="Helvetica,sans-Serif" font-size="10.00">G4SubtractionSolid.hh</text>
</a>
</g>
</g>
<!-- Node4&#45;&gt;Node23 -->
<g id="edge22_Node000004_Node000023" class="edge">
<title>Node4&#45;&gt;Node23</title>
<g id="a_edge22_Node000004_Node000023"><a xlink:title=" ">
<path fill="none" stroke="#63b8ff" d="M1212.5,-186.75C1212.5,-179.8 1212.5,-169.85 1212.5,-161.13"/>
<polygon fill="#63b8ff" stroke="#63b8ff" points="1216,-161.09 1212.5,-151.09 1209,-161.09 1216,-161.09"/>
</a>
</g>
</g>
<!-- Node24 -->
<g id="Node000024" class="node">
<title>Node24</title>
<g id="a_Node000024"><a xlink:title=" ">
<polygon fill="#e0e0e0" stroke="#999999" points="1403.5,-151 1293.5,-151 1293.5,-132 1403.5,-132 1403.5,-151"/>
<text text-anchor="middle" x="1348.5" y="-139" font-family="Helvetica,sans-Serif" font-size="10.00">G4PVPlacement.hh</text>
</a>
</g>
</g>
<!-- Node4&#45;&gt;Node24 -->
<g id="edge23_Node000004_Node000024" class="edge">
<title>Node4&#45;&gt;Node24</title>
<g id="a_edge23_Node000004_Node000024"><a xlink:title=" ">
<path fill="none" stroke="#63b8ff" d="M1234.35,-186.98C1256.62,-178.3 1291.4,-164.75 1316.72,-154.88"/>
<polygon fill="#63b8ff" stroke="#63b8ff" points="1318.21,-158.06 1326.25,-151.17 1315.66,-151.54 1318.21,-158.06"/>
</a>
</g>
</g>
<!-- Node6 -->
<g id="Node000006" class="node">
<title>Node6</title>
<g id="a_Node000006"><a xlink:href="_o_m_sim_logger_8hh_source.html" target="_top" xlink:title=" ">
<polygon fill="white" stroke="#666666" points="319,-90.5 220,-90.5 220,-71.5 319,-71.5 319,-90.5"/>
<text text-anchor="middle" x="269.5" y="-78.5" font-family="Helvetica,sans-Serif" font-size="10.00">OMSimLogger.hh</text>
</a>
</g>
</g>
<!-- Node5&#45;&gt;Node6 -->
<g id="edge5_Node000005_Node000006" class="edge">
<title>Node5&#45;&gt;Node6</title>
<g id="a_edge5_Node000005_Node000006"><a xlink:title=" ">
<path fill="none" stroke="#63b8ff" d="M764.88,-134.41C659.43,-123.25 436.4,-99.66 329.32,-88.33"/>
<polygon fill="#63b8ff" stroke="#63b8ff" points="329.64,-84.84 319.33,-87.27 328.91,-91.8 329.64,-84.84"/>
</a>
</g>
</g>
<!-- Node11 -->
<g id="Node000011" class="node">
<title>Node11</title>
<g id="a_Node000011"><a xlink:href="_o_m_sim_op_boundary_process_8hh_source.html" target="_top" xlink:title=" ">
<polygon fill="white" stroke="#666666" points="904.5,-90.5 740.5,-90.5 740.5,-71.5 904.5,-71.5 904.5,-90.5"/>
<text text-anchor="middle" x="822.5" y="-78.5" font-family="Helvetica,sans-Serif" font-size="10.00">OMSimOpBoundaryProcess.hh</text>
</a>
</g>
</g>
<!-- Node5&#45;&gt;Node11 -->
<g id="edge10_Node000005_Node000011" class="edge">
<title>Node5&#45;&gt;Node11</title>
<g id="a_edge10_Node000005_Node000011"><a xlink:title=" ">
<path fill="none" stroke="#63b8ff" d="M822.5,-131.87C822.5,-123.75 822.5,-111.31 822.5,-100.89"/>
<polygon fill="#63b8ff" stroke="#63b8ff" points="826,-100.67 822.5,-90.67 819,-100.67 826,-100.67"/>
</a>
</g>
</g>
<!-- Node19 -->
<g id="Node000019" class="node">
<title>Node19</title>
<g id="a_Node000019"><a xlink:title=" ">
<polygon fill="#e0e0e0" stroke="#999999" points="1332,-90.5 1213,-90.5 1213,-71.5 1332,-71.5 1332,-90.5"/>
<text text-anchor="middle" x="1272.5" y="-78.5" font-family="Helvetica,sans-Serif" font-size="10.00">G4SystemOfUnits.hh</text>
</a>
</g>
</g>
<!-- Node5&#45;&gt;Node19 -->
<g id="edge18_Node000005_Node000019" class="edge">
<title>Node5&#45;&gt;Node19</title>
<g id="a_edge18_Node000005_Node000019"><a xlink:title=" ">
<path fill="none" stroke="#63b8ff" d="M880.41,-132.97C962.92,-122.25 1114.12,-102.59 1202.71,-91.07"/>
<polygon fill="#63b8ff" stroke="#63b8ff" points="1203.2,-94.54 1212.67,-89.78 1202.3,-87.6 1203.2,-94.54"/>
</a>
</g>
</g>
<!-- Node20 -->
<g id="Node000020" class="node">
<title>Node20</title>
<g id="a_Node000020"><a xlink:title=" ">
<polygon fill="#e0e0e0" stroke="#999999" points="1036,-96 923,-96 923,-66 1036,-66 1036,-96"/>
<text text-anchor="start" x="931" y="-84" font-family="Helvetica,sans-Serif" font-size="10.00">boost/property_tree</text>
<text text-anchor="middle" x="979.5" y="-73" font-family="Helvetica,sans-Serif" font-size="10.00">/json_parser.hpp</text>
</a>
</g>
</g>
<!-- Node5&#45;&gt;Node20 -->
<g id="edge19_Node000005_Node000020" class="edge">
<title>Node5&#45;&gt;Node20</title>
<g id="a_edge19_Node000005_Node000020"><a xlink:title=" ">
<path fill="none" stroke="#63b8ff" d="M845.33,-131.99C868.02,-123.54 903.5,-110.32 932.28,-99.59"/>
<polygon fill="#63b8ff" stroke="#63b8ff" points="933.61,-102.84 941.75,-96.06 931.16,-96.28 933.61,-102.84"/>
</a>
</g>
</g>
<!-- Node7 -->
<g id="Node000007" class="node">
<title>Node7</title>
<g id="a_Node000007"><a xlink:title=" ">
<polygon fill="#e0e0e0" stroke="#999999" points="93,-24.5 0,-24.5 0,-5.5 93,-5.5 93,-24.5"/>
<text text-anchor="middle" x="46.5" y="-12.5" font-family="Helvetica,sans-Serif" font-size="10.00">spdlog/spdlog.h</text>
</a>
</g>
</g>
<!-- Node6&#45;&gt;Node7 -->
<g id="edge6_Node000006_Node000007" class="edge">
<title>Node6&#45;&gt;Node7</title>
<g id="a_edge6_Node000006_Node000007"><a xlink:title=" ">
<path fill="none" stroke="#63b8ff" d="M239.43,-71.37C199.83,-60 130.11,-40 86.21,-27.4"/>
<polygon fill="#63b8ff" stroke="#63b8ff" points="87.03,-23.99 76.45,-24.6 85.1,-30.72 87.03,-23.99"/>
</a>
</g>
</g>
<!-- Node8 -->
<g id="Node000008" class="node">
<title>Node8</title>
<g id="a_Node000008"><a xlink:title=" ">
<polygon fill="#e0e0e0" stroke="#999999" points="222,-30 111,-30 111,0 222,0 222,-30"/>
<text text-anchor="start" x="119" y="-18" font-family="Helvetica,sans-Serif" font-size="10.00">spdlog/sinks/stdout</text>
<text text-anchor="middle" x="166.5" y="-7" font-family="Helvetica,sans-Serif" font-size="10.00">_color_sinks.h</text>
</a>
</g>
</g>
<!-- Node6&#45;&gt;Node8 -->
<g id="edge7_Node000006_Node000008" class="edge">
<title>Node6&#45;&gt;Node8</title>
<g id="a_edge7_Node000006_Node000008"><a xlink:title=" ">
<path fill="none" stroke="#63b8ff" d="M255.61,-71.37C240.85,-62.2 217.02,-47.39 197.72,-35.4"/>
<polygon fill="#63b8ff" stroke="#63b8ff" points="199.56,-32.42 189.22,-30.12 195.86,-38.37 199.56,-32.42"/>
</a>
</g>
</g>
<!-- Node9 -->
<g id="Node000009" class="node">
<title>Node9</title>
<g id="a_Node000009"><a xlink:title=" ">
<polygon fill="#e0e0e0" stroke="#999999" points="298.5,-24.5 240.5,-24.5 240.5,-5.5 298.5,-5.5 298.5,-24.5"/>
<text text-anchor="middle" x="269.5" y="-12.5" font-family="Helvetica,sans-Serif" font-size="10.00">memory</text>
</a>
</g>
</g>
<!-- Node6&#45;&gt;Node9 -->
<g id="edge8_Node000006_Node000009" class="edge">
<title>Node6&#45;&gt;Node9</title>
<g id="a_edge8_Node000006_Node000009"><a xlink:title=" ">
<path fill="none" stroke="#63b8ff" d="M269.5,-71.37C269.5,-62.16 269.5,-47.29 269.5,-35.27"/>
<polygon fill="#63b8ff" stroke="#63b8ff" points="273,-34.91 269.5,-24.91 266,-34.91 273,-34.91"/>
</a>
</g>
</g>
<!-- Node10 -->
<g id="Node000010" class="node">
<title>Node10</title>
<g id="a_Node000010"><a xlink:title=" ">
<polygon fill="#e0e0e0" stroke="#999999" points="414.5,-24.5 316.5,-24.5 316.5,-5.5 414.5,-5.5 414.5,-24.5"/>
<text text-anchor="middle" x="365.5" y="-12.5" font-family="Helvetica,sans-Serif" font-size="10.00">spdlog/fmt/fmt.h</text>
</a>
</g>
</g>
<!-- Node6&#45;&gt;Node10 -->
<g id="edge9_Node000006_Node000010" class="edge">
<title>Node6&#45;&gt;Node10</title>
<g id="a_edge9_Node000006_Node000010"><a xlink:title=" ">
<path fill="none" stroke="#63b8ff" d="M282.45,-71.37C298.19,-60.87 325,-43 343.9,-30.4"/>
<polygon fill="#63b8ff" stroke="#63b8ff" points="346.07,-33.16 352.45,-24.7 342.19,-27.33 346.07,-33.16"/>
</a>
</g>
</g>
<!-- Node12 -->
<g id="Node000012" class="node">
<title>Node12</title>
<g id="a_Node000012"><a xlink:title=" ">
<polygon fill="#e0e0e0" stroke="#999999" points="546,-24.5 433,-24.5 433,-5.5 546,-5.5 546,-24.5"/>
<text text-anchor="middle" x="489.5" y="-12.5" font-family="Helvetica,sans-Serif" font-size="10.00">G4OpticalPhoton.hh</text>
</a>
</g>
</g>
<!-- Node11&#45;&gt;Node12 -->
<g id="edge11_Node000011_Node000012" class="edge">
<title>Node11&#45;&gt;Node12</title>
<g id="a_edge11_Node000011_Node000012"><a xlink:title=" ">
<path fill="none" stroke="#63b8ff" d="M775.17,-71.49C721.74,-61.8 632.27,-45.33 555.5,-30 550.12,-28.92 544.49,-27.77 538.89,-26.61"/>
<polygon fill="#63b8ff" stroke="#63b8ff" points="539.41,-23.14 528.91,-24.52 537.98,-30 539.41,-23.14"/>
</a>
</g>
</g>
<!-- Node13 -->
<g id="Node000013" class="node">
<title>Node13</title>
<g id="a_Node000013"><a xlink:title=" ">
<polygon fill="#e0e0e0" stroke="#999999" points="680.5,-24.5 564.5,-24.5 564.5,-5.5 680.5,-5.5 680.5,-24.5"/>
<text text-anchor="middle" x="622.5" y="-12.5" font-family="Helvetica,sans-Serif" font-size="10.00">G4OpticalSurface.hh</text>
</a>
</g>
</g>
<!-- Node11&#45;&gt;Node13 -->
<g id="edge12_Node000011_Node000013" class="edge">
<title>Node11&#45;&gt;Node13</title>
<g id="a_edge12_Node000011_Node000013"><a xlink:title=" ">
<path fill="none" stroke="#63b8ff" d="M795.53,-71.37C760.31,-60.1 698.54,-40.33 659.12,-27.72"/>
<polygon fill="#63b8ff" stroke="#63b8ff" points="659.96,-24.31 649.36,-24.6 657.82,-30.98 659.96,-24.31"/>
</a>
</g>
</g>
<!-- Node14 -->
<g id="Node000014" class="node">
<title>Node14</title>
<g id="a_Node000014"><a xlink:title=" ">
<polygon fill="#e0e0e0" stroke="#999999" points="808.5,-24.5 698.5,-24.5 698.5,-5.5 808.5,-5.5 808.5,-24.5"/>
<text text-anchor="middle" x="753.5" y="-12.5" font-family="Helvetica,sans-Serif" font-size="10.00">G4RandomTools.hh</text>
</a>
</g>
</g>
<!-- Node11&#45;&gt;Node14 -->
<g id="edge13_Node000011_Node000014" class="edge">
<title>Node11&#45;&gt;Node14</title>
<g id="a_edge13_Node000011_Node000014"><a xlink:title=" ">
<path fill="none" stroke="#63b8ff" d="M813.19,-71.37C802.35,-61.31 784.2,-44.48 770.76,-32.01"/>
<polygon fill="#63b8ff" stroke="#63b8ff" points="772.81,-29.14 763.1,-24.91 768.05,-34.27 772.81,-29.14"/>
</a>
</g>
</g>
<!-- Node15 -->
<g id="Node000015" class="node">
<title>Node15</title>
<g id="a_Node000015"><a xlink:title=" ">
<polygon fill="#e0e0e0" stroke="#999999" points="956.5,-24.5 826.5,-24.5 826.5,-5.5 956.5,-5.5 956.5,-24.5"/>
<text text-anchor="middle" x="891.5" y="-12.5" font-family="Helvetica,sans-Serif" font-size="10.00">G4VDiscreteProcess.hh</text>
</a>
</g>
</g>
<!-- Node11&#45;&gt;Node15 -->
<g id="edge14_Node000011_Node000015" class="edge">
<title>Node11&#45;&gt;Node15</title>
<g id="a_edge14_Node000011_Node000015"><a xlink:title=" ">
<path fill="none" stroke="#63b8ff" d="M831.81,-71.37C842.65,-61.31 860.8,-44.48 874.24,-32.01"/>
<polygon fill="#63b8ff" stroke="#63b8ff" points="876.95,-34.27 881.9,-24.91 872.19,-29.14 876.95,-34.27"/>
</a>
</g>
</g>
<!-- Node16 -->
<g id="Node000016" class="node">
<title>Node16</title>
<g id="a_Node000016"><a xlink:title=" ">
<polygon fill="#e0e0e0" stroke="#999999" points="1132,-24.5 975,-24.5 975,-5.5 1132,-5.5 1132,-24.5"/>
<text text-anchor="middle" x="1053.5" y="-12.5" font-family="Helvetica,sans-Serif" font-size="10.00">G4VUserTrackInformation.hh</text>
</a>
</g>
</g>
<!-- Node11&#45;&gt;Node16 -->
<g id="edge15_Node000011_Node000016" class="edge">
<title>Node11&#45;&gt;Node16</title>
<g id="a_edge15_Node000011_Node000016"><a xlink:title=" ">
<path fill="none" stroke="#63b8ff" d="M853.65,-71.37C894.76,-59.98 967.19,-39.91 1012.65,-27.32"/>
<polygon fill="#63b8ff" stroke="#63b8ff" points="1013.77,-30.64 1022.47,-24.6 1011.9,-23.89 1013.77,-30.64"/>
</a>
</g>
</g>
<!-- Node17 -->
<g id="Node000017" class="node">
<title>Node17</title>
<g id="a_Node000017"><a xlink:title=" ">
<polygon fill="#e0e0e0" stroke="#999999" points="1240.5,-24.5 1150.5,-24.5 1150.5,-5.5 1240.5,-5.5 1240.5,-24.5"/>
<text text-anchor="middle" x="1195.5" y="-12.5" font-family="Helvetica,sans-Serif" font-size="10.00">G4AutoLock.hh</text>
</a>
</g>
</g>
<!-- Node11&#45;&gt;Node17 -->
<g id="edge16_Node000011_Node000017" class="edge">
<title>Node11&#45;&gt;Node17</title>
<g id="a_edge16_Node000011_Node000017"><a xlink:title=" ">
<path fill="none" stroke="#63b8ff" d="M877.62,-71.47C965.23,-57.89 1127.76,-32.62 1140.5,-30 1144.96,-29.08 1149.61,-28.04 1154.23,-26.95"/>
<polygon fill="#63b8ff" stroke="#63b8ff" points="1155.32,-30.28 1164.2,-24.5 1153.66,-23.48 1155.32,-30.28"/>
</a>
</g>
</g>
<!-- Node18 -->
<g id="Node000018" class="node">
<title>Node18</title>
<g id="a_Node000018"><a xlink:title=" ">
<polygon fill="#e0e0e0" stroke="#999999" points="1352.5,-24.5 1258.5,-24.5 1258.5,-5.5 1352.5,-5.5 1352.5,-24.5"/>
<text text-anchor="middle" x="1305.5" y="-12.5" font-family="Helvetica,sans-Serif" font-size="10.00">G4Threading.hh</text>
</a>
</g>
</g>
<!-- Node11&#45;&gt;Node18 -->
<g id="edge17_Node000011_Node000018" class="edge">
<title>Node11&#45;&gt;Node18</title>
<g id="a_edge17_Node000011_Node000018"><a xlink:title=" ">
<path fill="none" stroke="#63b8ff" d="M875.37,-71.45C887.86,-69.54 901.14,-67.61 913.5,-66 1062.43,-46.58 1101.63,-56.28 1249.5,-30 1254.49,-29.11 1259.69,-28.03 1264.83,-26.86"/>
<polygon fill="#63b8ff" stroke="#63b8ff" points="1265.65,-30.27 1274.56,-24.55 1264.02,-23.46 1265.65,-30.27"/>
</a>
</g>
</g>
<!-- Node26&#45;&gt;Node4 -->
<g id="edge26_Node000026_Node000004" class="edge">
<title>Node26&#45;&gt;Node4</title>
<g id="a_edge26_Node000026_Node000004"><a xlink:title=" ">
<path fill="none" stroke="#63b8ff" d="M1450.87,-241.98C1401.23,-232.72 1321.84,-217.9 1268.47,-207.94"/>
<polygon fill="#63b8ff" stroke="#63b8ff" points="1268.96,-204.48 1258.49,-206.08 1267.68,-211.36 1268.96,-204.48"/>
</a>
</g>
</g>
<!-- Node26&#45;&gt;Node26 -->
<g id="edge27_Node000026_Node000026" class="edge">
<title>Node26&#45;&gt;Node26</title>
<g id="a_edge27_Node000026_Node000026"><a xlink:title=" ">
<path fill="none" stroke="#63b8ff" d="M1539.8,-261.03C1565.21,-263.06 1589,-259.88 1589,-251.5 1589,-244.23 1571.11,-240.87 1549.79,-241.44"/>
<polygon fill="#63b8ff" stroke="#63b8ff" points="1549.6,-237.94 1539.8,-241.97 1549.97,-244.93 1549.6,-237.94"/>
</a>
</g>
</g>
<!-- Node27 -->
<g id="Node000027" class="node">
<title>Node27</title>
<g id="a_Node000027"><a xlink:href="_o_m_sim_p_m_t_response_8hh.html" target="_top" xlink:title="Simulation of PMT response.">
<polygon fill="white" stroke="#666666" points="1564,-206 1429,-206 1429,-187 1564,-187 1564,-206"/>
<text text-anchor="middle" x="1496.5" y="-194" font-family="Helvetica,sans-Serif" font-size="10.00">OMSimPMTResponse.hh</text>
</a>
</g>
</g>
<!-- Node26&#45;&gt;Node27 -->
<g id="edge28_Node000026_Node000027" class="edge">
<title>Node26&#45;&gt;Node27</title>
<g id="a_edge28_Node000026_Node000027"><a xlink:title=" ">
<path fill="none" stroke="#63b8ff" d="M1496.5,-241.75C1496.5,-234.8 1496.5,-224.85 1496.5,-216.13"/>
<polygon fill="#63b8ff" stroke="#63b8ff" points="1500,-216.09 1496.5,-206.09 1493,-216.09 1500,-216.09"/>
</a>
</g>
</g>
<!-- Node32 -->
<g id="Node000032" class="node">
<title>Node32</title>
<g id="a_Node000032"><a xlink:title=" ">
<polygon fill="#e0e0e0" stroke="#999999" points="1680.5,-206 1582.5,-206 1582.5,-187 1680.5,-187 1680.5,-206"/>
<text text-anchor="middle" x="1631.5" y="-194" font-family="Helvetica,sans-Serif" font-size="10.00">G4UnionSolid.hh</text>
</a>
</g>
</g>
<!-- Node26&#45;&gt;Node32 -->
<g id="edge34_Node000026_Node000032" class="edge">
<title>Node26&#45;&gt;Node32</title>
<g id="a_edge34_Node000026_Node000032"><a xlink:title=" ">
<path fill="none" stroke="#63b8ff" d="M1518.19,-241.98C1540.3,-233.3 1574.82,-219.75 1599.95,-209.88"/>
<polygon fill="#63b8ff" stroke="#63b8ff" points="1601.39,-213.08 1609.42,-206.17 1598.83,-206.57 1601.39,-213.08"/>
</a>
</g>
</g>
<!-- Node33 -->
<g id="Node000033" class="node">
<title>Node33</title>
<g id="a_Node000033"><a xlink:title=" ">
<polygon fill="#e0e0e0" stroke="#999999" points="1766,-206 1699,-206 1699,-187 1766,-187 1766,-206"/>
<text text-anchor="middle" x="1732.5" y="-194" font-family="Helvetica,sans-Serif" font-size="10.00">G4Tubs.hh</text>
</a>
</g>
</g>
<!-- Node26&#45;&gt;Node33 -->
<g id="edge35_Node000026_Node000033" class="edge">
<title>Node26&#45;&gt;Node33</title>
<g id="a_edge35_Node000026_Node000033"><a xlink:title=" ">
<path fill="none" stroke="#63b8ff" d="M1534.42,-241.98C1576.6,-232.51 1644.65,-217.23 1688.98,-207.27"/>
<polygon fill="#63b8ff" stroke="#63b8ff" points="1689.89,-210.66 1698.88,-205.05 1688.36,-203.83 1689.89,-210.66"/>
</a>
</g>
</g>
<!-- Node27&#45;&gt;Node19 -->
<g id="edge29_Node000027_Node000019" class="edge">
<title>Node27&#45;&gt;Node19</title>
<g id="a_edge29_Node000027_Node000019"><a xlink:title=" ">
<path fill="none" stroke="#63b8ff" d="M1486.84,-186.61C1471.88,-173.24 1441.78,-147.81 1412.5,-132 1381.32,-115.16 1343.31,-102 1314.77,-93.42"/>
<polygon fill="#63b8ff" stroke="#63b8ff" points="1315.68,-90.04 1305.09,-90.57 1313.7,-96.75 1315.68,-90.04"/>
</a>
</g>
</g>
<!-- Node28 -->
<g id="Node000028" class="node">
<title>Node28</title>
<g id="a_Node000028"><a xlink:title=" ">
<polygon fill="#e0e0e0" stroke="#999999" points="1533,-151 1460,-151 1460,-132 1533,-132 1533,-151"/>
<text text-anchor="middle" x="1496.5" y="-139" font-family="Helvetica,sans-Serif" font-size="10.00">G4Types.hh</text>
</a>
</g>
</g>
<!-- Node27&#45;&gt;Node28 -->
<g id="edge30_Node000027_Node000028" class="edge">
<title>Node27&#45;&gt;Node28</title>
<g id="a_edge30_Node000027_Node000028"><a xlink:title=" ">
<path fill="none" stroke="#63b8ff" d="M1496.5,-186.75C1496.5,-179.8 1496.5,-169.85 1496.5,-161.13"/>
<polygon fill="#63b8ff" stroke="#63b8ff" points="1500,-161.09 1496.5,-151.09 1493,-161.09 1500,-161.09"/>
</a>
</g>
</g>
<!-- Node29 -->
<g id="Node000029" class="node">
<title>Node29</title>
<g id="a_Node000029"><a xlink:title=" ">
<polygon fill="#e0e0e0" stroke="#999999" points="1589.5,-151 1551.5,-151 1551.5,-132 1589.5,-132 1589.5,-151"/>
<text text-anchor="middle" x="1570.5" y="-139" font-family="Helvetica,sans-Serif" font-size="10.00">map</text>
</a>
</g>
</g>
<!-- Node27&#45;&gt;Node29 -->
<g id="edge31_Node000027_Node000029" class="edge">
<title>Node27&#45;&gt;Node29</title>
<g id="a_edge31_Node000027_Node000029"><a xlink:title=" ">
<path fill="none" stroke="#63b8ff" d="M1508.39,-186.98C1519.65,-178.92 1536.79,-166.65 1550.21,-157.03"/>
<polygon fill="#63b8ff" stroke="#63b8ff" points="1552.3,-159.84 1558.39,-151.17 1548.23,-154.15 1552.3,-159.84"/>
</a>
</g>
</g>
<!-- Node30 -->
<g id="Node000030" class="node">
<title>Node30</title>
<g id="a_Node000030"><a xlink:title=" ">
<polygon fill="#e0e0e0" stroke="#999999" points="1669,-151 1608,-151 1608,-132 1669,-132 1669,-151"/>
<text text-anchor="middle" x="1638.5" y="-139" font-family="Helvetica,sans-Serif" font-size="10.00">TGraph.h</text>
</a>
</g>
</g>
<!-- Node27&#45;&gt;Node30 -->
<g id="edge32_Node000027_Node000030" class="edge">
<title>Node27&#45;&gt;Node30</title>
<g id="a_edge32_Node000027_Node000030"><a xlink:title=" ">
<path fill="none" stroke="#63b8ff" d="M1519.31,-186.98C1542.67,-178.27 1579.2,-164.63 1605.67,-154.75"/>
<polygon fill="#63b8ff" stroke="#63b8ff" points="1607.13,-157.95 1615.27,-151.17 1604.68,-151.39 1607.13,-157.95"/>
</a>
</g>
</g>
<!-- Node31 -->
<g id="Node000031" class="node">
<title>Node31</title>
<g id="a_Node000031"><a xlink:title=" ">
<polygon fill="#e0e0e0" stroke="#999999" points="1740,-151 1687,-151 1687,-132 1740,-132 1740,-151"/>
<text text-anchor="middle" x="1713.5" y="-139" font-family="Helvetica,sans-Serif" font-size="10.00">TH2D.h</text>
</a>
</g>
</g>
<!-- Node27&#45;&gt;Node31 -->
<g id="edge33_Node000027_Node000031" class="edge">
<title>Node27&#45;&gt;Node31</title>
<g id="a_edge33_Node000027_Node000031"><a xlink:title=" ">
<path fill="none" stroke="#63b8ff" d="M1531.36,-186.98C1571.35,-177.22 1636.59,-161.29 1677.17,-151.37"/>
<polygon fill="#63b8ff" stroke="#63b8ff" points="1678.04,-154.76 1686.93,-148.99 1676.38,-147.96 1678.04,-154.76"/>
</a>
</g>
</g>
</g>
</svg>
