<?xml version="1.0" encoding="UTF-8" standalone="no"?>
<!DOCTYPE svg PUBLIC "-//W3C//DTD SVG 1.1//EN"
 "http://www.w3.org/Graphics/SVG/1.1/DTD/svg11.dtd">
<!-- Generated by graphviz version 2.43.0 (0)
 -->
<!-- Title: OMSimDetectorConstruction.hh Pages: 1 -->
<svg width="1104pt" height="140pt"
 viewBox="0.00 0.00 1103.50 140.00" xmlns="http://www.w3.org/2000/svg" xmlns:xlink="http://www.w3.org/1999/xlink">
<g id="graph0" class="graph" transform="scale(1 1) rotate(0) translate(4 136)">
<title>OMSimDetectorConstruction.hh</title>
<polygon fill="white" stroke="transparent" points="-4,4 -4,-136 1099.5,-136 1099.5,4 -4,4"/>
<!-- Node1 -->
<g id="node1" class="node">
<title>Node1</title>
<g id="a_node1"><a xlink:title=" ">
<polygon fill="#bfbfbf" stroke="black" points="518,-112.5 518,-131.5 688,-131.5 688,-112.5 518,-112.5"/>
<text text-anchor="middle" x="603" y="-119.5" font-family="Helvetica,sans-Serif" font-size="10.00">OMSimDetectorConstruction.hh</text>
</a>
</g>
</g>
<!-- Node2 -->
<g id="node2" class="node">
<title>Node2</title>
<g id="a_node2"><a xlink:href="_o_m_sim_8hh.html" target="_top" xlink:title="Main simulation class for the Optical Module (OM) simulation. This file defines the OMSim class,...">
<polygon fill="white" stroke="black" points="356.5,-56.5 356.5,-75.5 423.5,-75.5 423.5,-56.5 356.5,-56.5"/>
<text text-anchor="middle" x="390" y="-63.5" font-family="Helvetica,sans-Serif" font-size="10.00">OMSim.hh</text>
</a>
</g>
</g>
<!-- Node1&#45;&gt;Node2 -->
<g id="edge1" class="edge">
<title>Node1&#45;&gt;Node2</title>
<path fill="none" stroke="midnightblue" d="M559.45,-109.96C519.22,-99.76 460.3,-84.82 423.59,-75.52"/>
<polygon fill="midnightblue" stroke="midnightblue" points="558.7,-113.38 569.25,-112.44 560.42,-106.59 558.7,-113.38"/>
</g>
<!-- Node7 -->
<g id="node7" class="node">
<title>Node7</title>
<g id="a_node7"><a xlink:href="_o_m_sim_detector_construction_8cc.html" target="_top" xlink:title=" ">
<polygon fill="white" stroke="black" points="761.5,-56.5 761.5,-75.5 930.5,-75.5 930.5,-56.5 761.5,-56.5"/>
<text text-anchor="middle" x="846" y="-63.5" font-family="Helvetica,sans-Serif" font-size="10.00">OMSimDetectorConstruction.cc</text>
</a>
</g>
</g>
<!-- Node1&#45;&gt;Node7 -->
<g id="edge6" class="edge">
<title>Node1&#45;&gt;Node7</title>
<path fill="none" stroke="midnightblue" d="M651.52,-110.22C697.44,-100.01 765.45,-84.9 807.68,-75.52"/>
<polygon fill="midnightblue" stroke="midnightblue" points="650.51,-106.86 641.5,-112.44 652.03,-113.69 650.51,-106.86"/>
</g>
<!-- Node8 -->
<g id="node8" class="node">
<title>Node8</title>
<g id="a_node8"><a xlink:href="_o_m_sim_p_m_t_construction_8cc.html" target="_top" xlink:title=" ">
<polygon fill="white" stroke="black" points="948.5,-56.5 948.5,-75.5 1095.5,-75.5 1095.5,-56.5 948.5,-56.5"/>
<text text-anchor="middle" x="1022" y="-63.5" font-family="Helvetica,sans-Serif" font-size="10.00">OMSimPMTConstruction.cc</text>
</a>
</g>
</g>
<!-- Node1&#45;&gt;Node8 -->
<g id="edge7" class="edge">
<title>Node1&#45;&gt;Node8</title>
<path fill="none" stroke="midnightblue" d="M679.78,-111.1C758.9,-100.91 880.96,-85.18 955.92,-75.52"/>
<polygon fill="midnightblue" stroke="midnightblue" points="678.86,-107.69 669.39,-112.44 679.76,-114.64 678.86,-107.69"/>
</g>
<!-- Node9 -->
<g id="node9" class="node">
<title>Node9</title>
<g id="a_node9"><a xlink:href="_o_m_sim_effective_area_detector_8hh.html" target="_top" xlink:title="Defines the OMSimEffectiveAreaDetector class for effective area simulation detector construction.">
<polygon fill="white" stroke="black" points="165.5,-56.5 165.5,-75.5 338.5,-75.5 338.5,-56.5 165.5,-56.5"/>
<text text-anchor="middle" x="252" y="-63.5" font-family="Helvetica,sans-Serif" font-size="10.00">OMSimEffectiveAreaDetector.hh</text>
</a>
</g>
</g>
<!-- Node1&#45;&gt;Node9 -->
<g id="edge8" class="edge">
<title>Node1&#45;&gt;Node9</title>
<path fill="none" stroke="midnightblue" d="M537.46,-110.92C471.15,-100.71 369.76,-85.12 307.36,-75.52"/>
<polygon fill="midnightblue" stroke="midnightblue" points="536.97,-114.38 547.38,-112.44 538.03,-107.46 536.97,-114.38"/>
</g>
<!-- Node11 -->
<g id="node11" class="node">
<title>Node11</title>
<g id="a_node11"><a xlink:href="_o_m_sim_rad_decays_detector_8hh.html" target="_top" xlink:title="Defines the OMSimRadDecaysDetector class for the radioactive decays simulation.">
<polygon fill="white" stroke="black" points="441.5,-56.5 441.5,-75.5 604.5,-75.5 604.5,-56.5 441.5,-56.5"/>
<text text-anchor="middle" x="523" y="-63.5" font-family="Helvetica,sans-Serif" font-size="10.00">OMSimRadDecaysDetector.hh</text>
</a>
</g>
</g>
<!-- Node1&#45;&gt;Node11 -->
<g id="edge11" class="edge">
<title>Node1&#45;&gt;Node11</title>
<path fill="none" stroke="midnightblue" d="M581.7,-106.62C567.08,-96.76 548.17,-83.99 535.82,-75.65"/>
<polygon fill="midnightblue" stroke="midnightblue" points="579.9,-109.63 590.15,-112.32 583.82,-103.83 579.9,-109.63"/>
</g>
<!-- Node13 -->
<g id="node13" class="node">
<title>Node13</title>
<g id="a_node13"><a xlink:href="_o_m_sim_s_ndetector_8hh.html" target="_top" xlink:title=" ">
<polygon fill="white" stroke="black" points="623,-56.5 623,-75.5 743,-75.5 743,-56.5 623,-56.5"/>
<text text-anchor="middle" x="683" y="-63.5" font-family="Helvetica,sans-Serif" font-size="10.00">OMSimSNdetector.hh</text>
</a>
</g>
</g>
<!-- Node1&#45;&gt;Node13 -->
<g id="edge14" class="edge">
<title>Node1&#45;&gt;Node13</title>
<path fill="none" stroke="midnightblue" d="M624.3,-106.62C638.92,-96.76 657.83,-83.99 670.18,-75.65"/>
<polygon fill="midnightblue" stroke="midnightblue" points="622.18,-103.83 615.85,-112.32 626.1,-109.63 622.18,-103.83"/>
</g>
<!-- Node3 -->
<g id="node3" class="node">
<title>Node3</title>
<g id="a_node3"><a xlink:href="_o_m_sim_8cc.html" target="_top" xlink:title="Implementation of the OMSim class.">
<polygon fill="white" stroke="black" points="348.5,-0.5 348.5,-19.5 413.5,-19.5 413.5,-0.5 348.5,-0.5"/>
<text text-anchor="middle" x="381" y="-7.5" font-family="Helvetica,sans-Serif" font-size="10.00">OMSim.cc</text>
</a>
</g>
</g>
<!-- Node2&#45;&gt;Node3 -->
<g id="edge2" class="edge">
<title>Node2&#45;&gt;Node3</title>
<path fill="none" stroke="midnightblue" d="M386.85,-46.1C385.36,-37.14 383.64,-26.86 382.46,-19.75"/>
<polygon fill="midnightblue" stroke="midnightblue" points="383.42,-46.79 388.51,-56.08 390.32,-45.64 383.42,-46.79"/>
</g>
<!-- Node4 -->
<g id="node4" class="node">
<title>Node4</title>
<g id="a_node4"><a xlink:href="_o_m_sim__effective__area_8cc.html" target="_top" xlink:title="Main for the calculation of effective areas.">
<polygon fill="white" stroke="black" points="190,-0.5 190,-19.5 330,-19.5 330,-0.5 190,-0.5"/>
<text text-anchor="middle" x="260" y="-7.5" font-family="Helvetica,sans-Serif" font-size="10.00">OMSim_effective_area.cc</text>
</a>
</g>
</g>
<!-- Node2&#45;&gt;Node4 -->
<g id="edge3" class="edge">
<title>Node2&#45;&gt;Node4</title>
<path fill="none" stroke="midnightblue" d="M359.91,-52.5C335.54,-42.38 301.86,-28.39 280.5,-19.52"/>
<polygon fill="midnightblue" stroke="midnightblue" points="358.82,-55.84 369.4,-56.44 361.51,-49.38 358.82,-55.84"/>
</g>
<!-- Node5 -->
<g id="node5" class="node">
<title>Node5</title>
<g id="a_node5"><a xlink:href="_o_m_sim__radioactive__decays_8cc.html" target="_top" xlink:title="Main of the radioactive decay study.">
<polygon fill="white" stroke="black" points="431.5,-0.5 431.5,-19.5 596.5,-19.5 596.5,-0.5 431.5,-0.5"/>
<text text-anchor="middle" x="514" y="-7.5" font-family="Helvetica,sans-Serif" font-size="10.00">OMSim_radioactive_decays.cc</text>
</a>
</g>
</g>
<!-- Node2&#45;&gt;Node5 -->
<g id="edge4" class="edge">
<title>Node2&#45;&gt;Node5</title>
<path fill="none" stroke="midnightblue" d="M419.01,-52.37C442.23,-42.26 474.16,-28.35 494.44,-19.52"/>
<polygon fill="midnightblue" stroke="midnightblue" points="417.42,-49.24 409.65,-56.44 420.21,-55.66 417.42,-49.24"/>
</g>
<!-- Node6 -->
<g id="node6" class="node">
<title>Node6</title>
<g id="a_node6"><a xlink:href="_o_m_sim__supernova_8cc.html" target="_top" xlink:title="Main of the supernova study.">
<polygon fill="white" stroke="black" points="615,-0.5 615,-19.5 737,-19.5 737,-0.5 615,-0.5"/>
<text text-anchor="middle" x="676" y="-7.5" font-family="Helvetica,sans-Serif" font-size="10.00">OMSim_supernova.cc</text>
</a>
</g>
</g>
<!-- Node2&#45;&gt;Node6 -->
<g id="edge5" class="edge">
<title>Node2&#45;&gt;Node6</title>
<path fill="none" stroke="midnightblue" d="M434.12,-55.61C506.58,-41.26 580.22,-27.92 627.31,-19.55"/>
<polygon fill="midnightblue" stroke="midnightblue" points="433.03,-52.26 423.91,-57.65 434.4,-59.13 433.03,-52.26"/>
</g>
<!-- Node9&#45;&gt;Node4 -->
<g id="edge9" class="edge">
<title>Node9&#45;&gt;Node4</title>
<path fill="none" stroke="midnightblue" d="M254.8,-46.1C256.13,-37.14 257.65,-26.86 258.7,-19.75"/>
<polygon fill="midnightblue" stroke="midnightblue" points="251.32,-45.68 253.32,-56.08 258.25,-46.7 251.32,-45.68"/>
</g>
<!-- Node10 -->
<g id="node10" class="node">
<title>Node10</title>
<g id="a_node10"><a xlink:href="_o_m_sim_effective_area_detector_8cc.html" target="_top" xlink:title=" ">
<polygon fill="white" stroke="black" points="0,-0.5 0,-19.5 172,-19.5 172,-0.5 0,-0.5"/>
<text text-anchor="middle" x="86" y="-7.5" font-family="Helvetica,sans-Serif" font-size="10.00">OMSimEffectiveAreaDetector.cc</text>
</a>
</g>
</g>
<!-- Node9&#45;&gt;Node10 -->
<g id="edge10" class="edge">
<title>Node9&#45;&gt;Node10</title>
<path fill="none" stroke="midnightblue" d="M216.05,-53.3C184.77,-43.13 140.18,-28.62 112.18,-19.52"/>
<polygon fill="midnightblue" stroke="midnightblue" points="215.1,-56.68 225.7,-56.44 217.27,-50.02 215.1,-56.68"/>
</g>
<!-- Node11&#45;&gt;Node5 -->
<g id="edge12" class="edge">
<title>Node11&#45;&gt;Node5</title>
<path fill="none" stroke="midnightblue" d="M519.85,-46.1C518.36,-37.14 516.64,-26.86 515.46,-19.75"/>
<polygon fill="midnightblue" stroke="midnightblue" points="516.42,-46.79 521.51,-56.08 523.32,-45.64 516.42,-46.79"/>
</g>
<!-- Node12 -->
<g id="node12" class="node">
<title>Node12</title>
<g id="a_node12"><a xlink:href="_o_m_sim_rad_decays_detector_8cc.html" target="_top" xlink:title=" ">
<polygon fill="white" stroke="black" points="755.5,-0.5 755.5,-19.5 916.5,-19.5 916.5,-0.5 755.5,-0.5"/>
<text text-anchor="middle" x="836" y="-7.5" font-family="Helvetica,sans-Serif" font-size="10.00">OMSimRadDecaysDetector.cc</text>
</a>
</g>
</g>
<!-- Node11&#45;&gt;Node12 -->
<g id="edge13" class="edge">
<title>Node11&#45;&gt;Node12</title>
<path fill="none" stroke="midnightblue" d="M582.54,-54.73C641.69,-44.52 731.33,-29.06 786.64,-19.52"/>
<polygon fill="midnightblue" stroke="midnightblue" points="581.86,-51.29 572.6,-56.44 583.05,-58.19 581.86,-51.29"/>
</g>
<!-- Node13&#45;&gt;Node6 -->
<g id="edge15" class="edge">
<title>Node13&#45;&gt;Node6</title>
<path fill="none" stroke="midnightblue" d="M680.55,-46.1C679.39,-37.14 678.06,-26.86 677.13,-19.75"/>
<polygon fill="midnightblue" stroke="midnightblue" points="677.09,-46.62 681.84,-56.08 684.03,-45.72 677.09,-46.62"/>
</g>
<!-- Node14 -->
<g id="node14" class="node">
<title>Node14</title>
<g id="a_node14"><a xlink:href="_o_m_sim_s_ndetector_8cc.html" target="_top" xlink:title=" ">
<polygon fill="white" stroke="black" points="934.5,-0.5 934.5,-19.5 1053.5,-19.5 1053.5,-0.5 934.5,-0.5"/>
<text text-anchor="middle" x="994" y="-7.5" font-family="Helvetica,sans-Serif" font-size="10.00">OMSimSNdetector.cc</text>
</a>
</g>
</g>
<!-- Node13&#45;&gt;Node14 -->
<g id="edge16" class="edge">
<title>Node13&#45;&gt;Node14</title>
<path fill="none" stroke="midnightblue" d="M742.16,-54.73C800.93,-44.52 890,-29.06 944.95,-19.52"/>
<polygon fill="midnightblue" stroke="midnightblue" points="741.53,-51.28 732.28,-56.44 742.73,-58.18 741.53,-51.28"/>
</g>
</g>
</svg>
