<?xml version="1.0" encoding="UTF-8" standalone="no"?>
<!DOCTYPE svg PUBLIC "-//W3C//DTD SVG 1.1//EN"
 "http://www.w3.org/Graphics/SVG/1.1/DTD/svg11.dtd">
<!-- Generated by graphviz version 2.43.0 (0)
 -->
<!-- Title: OMSim_supernova.cc Pages: 1 -->
<svg width="2035pt" height="487pt"
 viewBox="0.00 0.00 2034.93 487.00" xmlns="http://www.w3.org/2000/svg" xmlns:xlink="http://www.w3.org/1999/xlink">
<g id="graph0" class="graph" transform="scale(1 1) rotate(0) translate(4 483)">
<title>OMSim_supernova.cc</title>
<!-- Node1 -->
<g id="node1" class="node">
<title>Node1</title>
<g id="a_node1"><a xlink:title="Main of the supernova study.">
<polygon fill="#bfbfbf" stroke="black" points="486.43,-459.5 486.43,-478.5 608.43,-478.5 608.43,-459.5 486.43,-459.5"/>
<text text-anchor="middle" x="547.43" y="-466.5" font-family="Helvetica,sans-Serif" font-size="10.00">OMSim_supernova.cc</text>
</a>
</g>
</g>
<!-- Node2 -->
<g id="node2" class="node">
<title>Node2</title>
<g id="a_node2"><a xlink:href="_o_m_sim_8hh.html" target="_top" xlink:title="Main simulation class for the Optical Module (OM) simulation. This file defines the OMSim class,...">
<polygon fill="none" stroke="black" points="1083.93,-403.5 1083.93,-422.5 1150.93,-422.5 1150.93,-403.5 1083.93,-403.5"/>
<text text-anchor="middle" x="1117.43" y="-410.5" font-family="Helvetica,sans-Serif" font-size="10.00">OMSim.hh</text>
</a>
</g>
</g>
<!-- Node1&#45;&gt;Node2 -->
<g id="edge1" class="edge">
<title>Node1&#45;&gt;Node2</title>
<path fill="none" stroke="midnightblue" d="M608.7,-462.2C724.5,-451.22 972.9,-427.69 1073.64,-418.15"/>
<polygon fill="midnightblue" stroke="midnightblue" points="1074.14,-421.62 1083.77,-417.19 1073.48,-414.65 1074.14,-421.62"/>
</g>
<!-- Node19 -->
<g id="node13" class="node">
<title>Node19</title>
<g id="a_node13"><a xlink:href="_o_m_sim_hit_manager_8hh.html" target="_top" xlink:title="Defines structures and classes related to optical module photon hit management.">
<polygon fill="none" stroke="black" points="317.93,-235.5 317.93,-254.5 440.93,-254.5 440.93,-235.5 317.93,-235.5"/>
<text text-anchor="middle" x="379.43" y="-242.5" font-family="Helvetica,sans-Serif" font-size="10.00">OMSimHitManager.hh</text>
</a>
</g>
</g>
<!-- Node1&#45;&gt;Node19 -->
<g id="edge61" class="edge">
<title>Node1&#45;&gt;Node19</title>
<path fill="none" stroke="midnightblue" d="M486.29,-461.76C430.83,-452.2 354.36,-428.03 331.43,-367 324.91,-349.66 332.92,-305.02 339.43,-291 344.51,-280.05 353.15,-269.82 361.1,-261.89"/>
<polygon fill="midnightblue" stroke="midnightblue" points="363.77,-264.18 368.66,-254.78 358.98,-259.08 363.77,-264.18"/>
</g>
<!-- Node35 -->
<g id="node27" class="node">
<title>Node35</title>
<g id="a_node27"><a xlink:title=" ">
<polygon fill="none" stroke="#bfbfbf" points="528.93,-347.5 528.93,-366.5 713.93,-366.5 713.93,-347.5 528.93,-347.5"/>
<text text-anchor="middle" x="621.43" y="-354.5" font-family="Helvetica,sans-Serif" font-size="10.00">OMSimPrimaryGeneratorAction.hh</text>
</a>
</g>
</g>
<!-- Node1&#45;&gt;Node35 -->
<g id="edge60" class="edge">
<title>Node1&#45;&gt;Node35</title>
<path fill="none" stroke="midnightblue" d="M553.24,-459.37C565.45,-441.22 593.98,-398.8 610,-374.99"/>
<polygon fill="midnightblue" stroke="midnightblue" points="612.97,-376.84 615.65,-366.59 607.16,-372.94 612.97,-376.84"/>
</g>
<!-- Node53 -->
<g id="node45" class="node">
<title>Node53</title>
<g id="a_node45"><a xlink:href="_o_m_sim_s_n_analysis_8hh_source.html" target="_top" xlink:title=" ">
<polygon fill="none" stroke="black" points="155.43,-291.5 155.43,-310.5 277.43,-310.5 277.43,-291.5 155.43,-291.5"/>
<text text-anchor="middle" x="216.43" y="-298.5" font-family="Helvetica,sans-Serif" font-size="10.00">OMSimSNAnalysis.hh</text>
</a>
</g>
</g>
<!-- Node1&#45;&gt;Node53 -->
<g id="edge52" class="edge">
<title>Node1&#45;&gt;Node53</title>
<path fill="none" stroke="midnightblue" d="M486.34,-462.42C422.89,-455.67 328.71,-442.71 298.43,-423 259.75,-397.83 234.64,-347.36 223.35,-320.23"/>
<polygon fill="midnightblue" stroke="midnightblue" points="226.53,-318.77 219.58,-310.78 220.03,-321.37 226.53,-318.77"/>
</g>
<!-- Node57 -->
<g id="node49" class="node">
<title>Node57</title>
<g id="a_node49"><a xlink:title=" ">
<polygon fill="none" stroke="#bfbfbf" points="1169.43,-403.5 1169.43,-422.5 1261.43,-422.5 1261.43,-403.5 1169.43,-403.5"/>
<text text-anchor="middle" x="1215.43" y="-410.5" font-family="Helvetica,sans-Serif" font-size="10.00">G4Navigator.hh</text>
</a>
</g>
</g>
<!-- Node1&#45;&gt;Node57 -->
<g id="edge62" class="edge">
<title>Node1&#45;&gt;Node57</title>
<path fill="none" stroke="midnightblue" d="M608.83,-465.23C717.5,-459.96 950.96,-446.9 1159.12,-422.92"/>
<polygon fill="midnightblue" stroke="midnightblue" points="1159.8,-426.36 1169.33,-421.73 1158.99,-419.41 1159.8,-426.36"/>
</g>
<!-- Node58 -->
<g id="node50" class="node">
<title>Node58</title>
<g id="a_node50"><a xlink:href="_o_m_sim_s_ndetector_8hh_source.html" target="_top" xlink:title=" ">
<polygon fill="none" stroke="black" points="389.43,-403.5 389.43,-422.5 509.43,-422.5 509.43,-403.5 389.43,-403.5"/>
<text text-anchor="middle" x="449.43" y="-410.5" font-family="Helvetica,sans-Serif" font-size="10.00">OMSimSNdetector.hh</text>
</a>
</g>
</g>
<!-- Node1&#45;&gt;Node58 -->
<g id="edge63" class="edge">
<title>Node1&#45;&gt;Node58</title>
<path fill="none" stroke="midnightblue" d="M531.68,-459.32C516.11,-450.74 492.05,-437.49 473.97,-427.52"/>
<polygon fill="midnightblue" stroke="midnightblue" points="475.58,-424.42 465.13,-422.65 472.2,-430.55 475.58,-424.42"/>
</g>
<!-- Node3 -->
<g id="node3" class="node">
<title>Node3</title>
<g id="a_node3"><a xlink:href="_o_m_sim_detector_construction_8hh_source.html" target="_top" xlink:title=" ">
<polygon fill="none" stroke="black" points="340.43,-347.5 340.43,-366.5 510.43,-366.5 510.43,-347.5 340.43,-347.5"/>
<text text-anchor="middle" x="425.43" y="-354.5" font-family="Helvetica,sans-Serif" font-size="10.00">OMSimDetectorConstruction.hh</text>
</a>
</g>
</g>
<!-- Node2&#45;&gt;Node3 -->
<g id="edge2" class="edge">
<title>Node2&#45;&gt;Node3</title>
<path fill="none" stroke="midnightblue" d="M1083.69,-409.7C994,-403.54 741.95,-385.9 520.66,-367.09"/>
<polygon fill="midnightblue" stroke="midnightblue" points="520.74,-363.58 510.48,-366.22 520.14,-370.56 520.74,-363.58"/>
</g>
<!-- Node34 -->
<g id="node26" class="node">
<title>Node34</title>
<g id="a_node26"><a xlink:title=" ">
<polygon fill="none" stroke="#bfbfbf" points="1183.93,-347.5 1183.93,-366.5 1304.93,-366.5 1304.93,-347.5 1183.93,-347.5"/>
<text text-anchor="middle" x="1244.43" y="-354.5" font-family="Helvetica,sans-Serif" font-size="10.00">OMSimPhysicsList.hh</text>
</a>
</g>
</g>
<!-- Node2&#45;&gt;Node34 -->
<g id="edge29" class="edge">
<title>Node2&#45;&gt;Node34</title>
<path fill="none" stroke="midnightblue" d="M1137.55,-403.44C1158.45,-394.56 1191.36,-380.56 1215.14,-370.45"/>
<polygon fill="midnightblue" stroke="midnightblue" points="1216.57,-373.65 1224.4,-366.52 1213.83,-367.21 1216.57,-373.65"/>
</g>
<!-- Node2&#45;&gt;Node35 -->
<g id="edge30" class="edge">
<title>Node2&#45;&gt;Node35</title>
<path fill="none" stroke="midnightblue" d="M1083.73,-408.33C1007.82,-400.07 821.41,-379.77 709.86,-367.63"/>
<polygon fill="midnightblue" stroke="midnightblue" points="709.95,-364.12 699.63,-366.51 709.2,-371.08 709.95,-364.12"/>
</g>
<!-- Node36 -->
<g id="node28" class="node">
<title>Node36</title>
<g id="a_node28"><a xlink:href="_o_m_sim_run_action_8hh_source.html" target="_top" xlink:title=" ">
<polygon fill="none" stroke="black" points="789.43,-291.5 789.43,-310.5 905.43,-310.5 905.43,-291.5 789.43,-291.5"/>
<text text-anchor="middle" x="847.43" y="-298.5" font-family="Helvetica,sans-Serif" font-size="10.00">OMSimRunAction.hh</text>
</a>
</g>
</g>
<!-- Node2&#45;&gt;Node36 -->
<g id="edge31" class="edge">
<title>Node2&#45;&gt;Node36</title>
<path fill="none" stroke="midnightblue" d="M1117.59,-403.36C1117.35,-389.31 1114.7,-361.61 1098.43,-347 1072.09,-323.34 980.69,-311.68 915.8,-306.26"/>
<polygon fill="midnightblue" stroke="midnightblue" points="915.88,-302.75 905.63,-305.44 915.32,-309.73 915.88,-302.75"/>
</g>
<!-- Node38 -->
<g id="node30" class="node">
<title>Node38</title>
<g id="a_node30"><a xlink:title=" ">
<polygon fill="none" stroke="#bfbfbf" points="1322.93,-347.5 1322.93,-366.5 1447.93,-366.5 1447.93,-347.5 1322.93,-347.5"/>
<text text-anchor="middle" x="1385.43" y="-354.5" font-family="Helvetica,sans-Serif" font-size="10.00">OMSimEventAction.hh</text>
</a>
</g>
</g>
<!-- Node2&#45;&gt;Node38 -->
<g id="edge35" class="edge">
<title>Node2&#45;&gt;Node38</title>
<path fill="none" stroke="midnightblue" d="M1151.22,-404.9C1154.33,-404.25 1157.44,-403.61 1160.43,-403 1219.21,-390.97 1286.7,-377.52 1332.31,-368.48"/>
<polygon fill="midnightblue" stroke="midnightblue" points="1333.14,-371.89 1342.27,-366.51 1331.78,-365.02 1333.14,-371.89"/>
</g>
<!-- Node39 -->
<g id="node31" class="node">
<title>Node39</title>
<g id="a_node31"><a xlink:href="_o_m_sim_tracking_action_8hh_source.html" target="_top" xlink:title=" ">
<polygon fill="none" stroke="black" points="1466.43,-347.5 1466.43,-366.5 1604.43,-366.5 1604.43,-347.5 1466.43,-347.5"/>
<text text-anchor="middle" x="1535.43" y="-354.5" font-family="Helvetica,sans-Serif" font-size="10.00">OMSimTrackingAction.hh</text>
</a>
</g>
</g>
<!-- Node2&#45;&gt;Node39 -->
<g id="edge36" class="edge">
<title>Node2&#45;&gt;Node39</title>
<path fill="none" stroke="midnightblue" d="M1151.18,-404.65C1154.3,-404.05 1157.42,-403.49 1160.43,-403 1188.81,-398.34 1354.47,-378.92 1455.88,-367.17"/>
<polygon fill="midnightblue" stroke="midnightblue" points="1456.57,-370.62 1466.1,-365.99 1455.76,-363.66 1456.57,-370.62"/>
</g>
<!-- Node41 -->
<g id="node33" class="node">
<title>Node41</title>
<g id="a_node33"><a xlink:href="_o_m_sim_stepping_action_8hh.html" target="_top" xlink:title="Defines OMSimSteppingAction.Currently it only checks for trapped photons.">
<polygon fill="none" stroke="black" points="1622.43,-347.5 1622.43,-366.5 1762.43,-366.5 1762.43,-347.5 1622.43,-347.5"/>
<text text-anchor="middle" x="1692.43" y="-354.5" font-family="Helvetica,sans-Serif" font-size="10.00">OMSimSteppingAction.hh</text>
</a>
</g>
</g>
<!-- Node2&#45;&gt;Node41 -->
<g id="edge38" class="edge">
<title>Node2&#45;&gt;Node41</title>
<path fill="none" stroke="midnightblue" d="M1151.16,-404.52C1154.28,-403.95 1157.41,-403.43 1160.43,-403 1357.12,-374.72 1410.68,-386.05 1612.21,-367.08"/>
<polygon fill="midnightblue" stroke="midnightblue" points="1612.61,-370.56 1622.23,-366.12 1611.94,-363.59 1612.61,-370.56"/>
</g>
<!-- Node43 -->
<g id="node35" class="node">
<title>Node43</title>
<g id="a_node35"><a xlink:href="_o_m_sim_u_iinterface_8hh.html" target="_top" xlink:title=" ">
<polygon fill="none" stroke="black" points="1094.93,-291.5 1094.93,-310.5 1215.93,-310.5 1215.93,-291.5 1094.93,-291.5"/>
<text text-anchor="middle" x="1155.43" y="-298.5" font-family="Helvetica,sans-Serif" font-size="10.00">OMSimUIinterface.hh</text>
</a>
</g>
</g>
<!-- Node2&#45;&gt;Node43 -->
<g id="edge40" class="edge">
<title>Node2&#45;&gt;Node43</title>
<path fill="none" stroke="midnightblue" d="M1120.41,-403.37C1126.57,-385.54 1140.82,-344.3 1149.12,-320.27"/>
<polygon fill="midnightblue" stroke="midnightblue" points="1152.5,-321.19 1152.46,-310.59 1145.89,-318.9 1152.5,-321.19"/>
</g>
<!-- Node48 -->
<g id="node40" class="node">
<title>Node48</title>
<g id="a_node40"><a xlink:title=" ">
<polygon fill="none" stroke="#bfbfbf" points="1780.93,-347.5 1780.93,-366.5 1901.93,-366.5 1901.93,-347.5 1780.93,-347.5"/>
<text text-anchor="middle" x="1841.43" y="-354.5" font-family="Helvetica,sans-Serif" font-size="10.00">G4MTRunManager.hh</text>
</a>
</g>
</g>
<!-- Node2&#45;&gt;Node48 -->
<g id="edge47" class="edge">
<title>Node2&#45;&gt;Node48</title>
<path fill="none" stroke="midnightblue" d="M1151.15,-404.45C1154.28,-403.9 1157.4,-403.4 1160.43,-403 1426.78,-367.48 1498.84,-391.75 1770.58,-367"/>
<polygon fill="midnightblue" stroke="midnightblue" points="1771.12,-370.47 1780.75,-366.06 1770.47,-363.5 1771.12,-370.47"/>
</g>
<!-- Node49 -->
<g id="node41" class="node">
<title>Node49</title>
<g id="a_node41"><a xlink:title=" ">
<polygon fill="none" stroke="#bfbfbf" points="1919.93,-347.5 1919.93,-366.5 2026.93,-366.5 2026.93,-347.5 1919.93,-347.5"/>
<text text-anchor="middle" x="1973.43" y="-354.5" font-family="Helvetica,sans-Serif" font-size="10.00">G4VisExecutive.hh</text>
</a>
</g>
</g>
<!-- Node2&#45;&gt;Node49 -->
<g id="edge48" class="edge">
<title>Node2&#45;&gt;Node49</title>
<path fill="none" stroke="midnightblue" d="M1151.14,-404.42C1154.27,-403.87 1157.4,-403.39 1160.43,-403 1488.49,-361.07 1577,-398.26 1909.29,-367.11"/>
<polygon fill="midnightblue" stroke="midnightblue" points="1910.07,-370.55 1919.7,-366.12 1909.41,-363.59 1910.07,-370.55"/>
</g>
<!-- Node50 -->
<g id="node42" class="node">
<title>Node50</title>
<g id="a_node42"><a xlink:title=" ">
<polygon fill="none" stroke="#bfbfbf" points="731.93,-347.5 731.93,-366.5 834.93,-366.5 834.93,-347.5 731.93,-347.5"/>
<text text-anchor="middle" x="783.43" y="-354.5" font-family="Helvetica,sans-Serif" font-size="10.00">G4UIExecutive.hh</text>
</a>
</g>
</g>
<!-- Node2&#45;&gt;Node50 -->
<g id="edge49" class="edge">
<title>Node2&#45;&gt;Node50</title>
<path fill="none" stroke="midnightblue" d="M1083.87,-406.58C1028.14,-397.56 915.65,-379.38 845.24,-367.99"/>
<polygon fill="midnightblue" stroke="midnightblue" points="845.6,-364.51 835.17,-366.37 844.48,-371.42 845.6,-364.51"/>
</g>
<!-- Node51 -->
<g id="node43" class="node">
<title>Node51</title>
<g id="a_node43"><a xlink:title=" ">
<polygon fill="none" stroke="#bfbfbf" points="853.43,-347.5 853.43,-366.5 921.43,-366.5 921.43,-347.5 853.43,-347.5"/>
<text text-anchor="middle" x="887.43" y="-354.5" font-family="Helvetica,sans-Serif" font-size="10.00">filesystem</text>
</a>
</g>
</g>
<!-- Node2&#45;&gt;Node51 -->
<g id="edge50" class="edge">
<title>Node2&#45;&gt;Node51</title>
<path fill="none" stroke="midnightblue" d="M1083.49,-404.03C1043.15,-394.56 975.73,-378.73 931.42,-368.33"/>
<polygon fill="midnightblue" stroke="midnightblue" points="932.04,-364.88 921.5,-366 930.44,-371.69 932.04,-364.88"/>
</g>
<!-- Node52 -->
<g id="node44" class="node">
<title>Node52</title>
<g id="a_node44"><a xlink:title=" ">
<polygon fill="none" stroke="#bfbfbf" points="939.43,-347.5 939.43,-366.5 1089.43,-366.5 1089.43,-347.5 939.43,-347.5"/>
<text text-anchor="middle" x="1014.43" y="-354.5" font-family="Helvetica,sans-Serif" font-size="10.00">boost/program_options.hpp</text>
</a>
</g>
</g>
<!-- Node2&#45;&gt;Node52 -->
<g id="edge51" class="edge">
<title>Node2&#45;&gt;Node52</title>
<path fill="none" stroke="midnightblue" d="M1100.88,-403.32C1084.44,-394.7 1058.99,-381.36 1039.96,-371.39"/>
<polygon fill="midnightblue" stroke="midnightblue" points="1041.42,-368.2 1030.94,-366.65 1038.17,-374.4 1041.42,-368.2"/>
</g>
<!-- Node4 -->
<g id="node4" class="node">
<title>Node4</title>
<g id="a_node4"><a xlink:href="_o_m_sim_optical_module_8hh_source.html" target="_top" xlink:title=" ">
<polygon fill="none" stroke="black" points="348.93,-291.5 348.93,-310.5 485.93,-310.5 485.93,-291.5 348.93,-291.5"/>
<text text-anchor="middle" x="417.43" y="-298.5" font-family="Helvetica,sans-Serif" font-size="10.00">OMSimOpticalModule.hh</text>
</a>
</g>
</g>
<!-- Node3&#45;&gt;Node4 -->
<g id="edge3" class="edge">
<title>Node3&#45;&gt;Node4</title>
<path fill="none" stroke="midnightblue" d="M424.11,-347.08C423.05,-339.93 421.52,-329.64 420.2,-320.69"/>
<polygon fill="midnightblue" stroke="midnightblue" points="423.65,-320.13 418.72,-310.75 416.73,-321.16 423.65,-320.13"/>
</g>
<!-- Node32 -->
<g id="node24" class="node">
<title>Node32</title>
<g id="a_node24"><a xlink:title=" ">
<polygon fill="none" stroke="#bfbfbf" points="504.43,-291.5 504.43,-310.5 566.43,-310.5 566.43,-291.5 504.43,-291.5"/>
<text text-anchor="middle" x="535.43" y="-298.5" font-family="Helvetica,sans-Serif" font-size="10.00">G4Orb.hh</text>
</a>
</g>
</g>
<!-- Node3&#45;&gt;Node32 -->
<g id="edge27" class="edge">
<title>Node3&#45;&gt;Node32</title>
<path fill="none" stroke="midnightblue" d="M443.1,-347.32C460.82,-338.62 488.33,-325.12 508.72,-315.11"/>
<polygon fill="midnightblue" stroke="midnightblue" points="510.36,-318.2 517.8,-310.65 507.28,-311.92 510.36,-318.2"/>
</g>
<!-- Node33 -->
<g id="node25" class="node">
<title>Node33</title>
<g id="a_node25"><a xlink:title=" ">
<polygon fill="none" stroke="#bfbfbf" points="584.43,-291.5 584.43,-310.5 762.43,-310.5 762.43,-291.5 584.43,-291.5"/>
<text text-anchor="middle" x="673.43" y="-298.5" font-family="Helvetica,sans-Serif" font-size="10.00">G4VUserDetectorConstruction.hh</text>
</a>
</g>
</g>
<!-- Node3&#45;&gt;Node33 -->
<g id="edge28" class="edge">
<title>Node3&#45;&gt;Node33</title>
<path fill="none" stroke="midnightblue" d="M464.72,-347.44C507.99,-338.02 577.6,-322.87 624.4,-312.68"/>
<polygon fill="midnightblue" stroke="midnightblue" points="625.29,-316.06 634.32,-310.52 623.8,-309.22 625.29,-316.06"/>
</g>
<!-- Node5 -->
<g id="node5" class="node">
<title>Node5</title>
<g id="a_node5"><a xlink:href="abc_detector_component_8hh.html" target="_top" xlink:title="Provides helper base class abcDetectorComponent for constructing and managing detector components in ...">
<polygon fill="none" stroke="red" points="592.93,-179.5 592.93,-198.5 739.93,-198.5 739.93,-179.5 592.93,-179.5"/>
<text text-anchor="middle" x="666.43" y="-186.5" font-family="Helvetica,sans-Serif" font-size="10.00">abcDetectorComponent.hh</text>
</a>
</g>
</g>
<!-- Node4&#45;&gt;Node5 -->
<g id="edge4" class="edge">
<title>Node4&#45;&gt;Node5</title>
<path fill="none" stroke="midnightblue" d="M470.6,-291.48C530.59,-281.47 621.54,-264.98 634.43,-255 649.17,-243.59 657.57,-223.6 662.03,-208.79"/>
<polygon fill="midnightblue" stroke="midnightblue" points="665.52,-209.27 664.71,-198.71 658.76,-207.47 665.52,-209.27"/>
</g>
<!-- Node4&#45;&gt;Node19 -->
<g id="edge12" class="edge">
<title>Node4&#45;&gt;Node19</title>
<path fill="none" stroke="midnightblue" d="M411.15,-291.08C405.79,-283.46 397.91,-272.26 391.35,-262.94"/>
<polygon fill="midnightblue" stroke="midnightblue" points="394.2,-260.91 385.59,-254.75 388.48,-264.94 394.2,-260.91"/>
</g>
<!-- Node29 -->
<g id="node23" class="node">
<title>Node29</title>
<g id="a_node23"><a xlink:href="_o_m_sim_p_m_t_construction_8hh.html" target="_top" xlink:title="Construction of the PMTs.">
<polygon fill="none" stroke="red" points="458.93,-235.5 458.93,-254.5 607.93,-254.5 607.93,-235.5 458.93,-235.5"/>
<text text-anchor="middle" x="533.43" y="-242.5" font-family="Helvetica,sans-Serif" font-size="10.00">OMSimPMTConstruction.hh</text>
</a>
</g>
</g>
<!-- Node4&#45;&gt;Node29 -->
<g id="edge23" class="edge">
<title>Node4&#45;&gt;Node29</title>
<path fill="none" stroke="midnightblue" d="M435.81,-291.44C454.64,-282.68 484.16,-268.94 505.81,-258.86"/>
<polygon fill="midnightblue" stroke="midnightblue" points="507.55,-261.91 515.13,-254.52 504.59,-255.56 507.55,-261.91"/>
</g>
<!-- Node6 -->
<g id="node6" class="node">
<title>Node6</title>
<g id="a_node6"><a xlink:href="_o_m_sim_input_data_8hh.html" target="_top" xlink:title="Definition of ParameterTable and InputDataManager.">
<polygon fill="none" stroke="red" points="616.93,-123.5 616.93,-142.5 731.93,-142.5 731.93,-123.5 616.93,-123.5"/>
<text text-anchor="middle" x="674.43" y="-130.5" font-family="Helvetica,sans-Serif" font-size="10.00">OMSimInputData.hh</text>
</a>
</g>
</g>
<!-- Node5&#45;&gt;Node6 -->
<g id="edge5" class="edge">
<title>Node5&#45;&gt;Node6</title>
<path fill="none" stroke="midnightblue" d="M667.75,-179.08C668.81,-171.93 670.33,-161.64 671.66,-152.69"/>
<polygon fill="midnightblue" stroke="midnightblue" points="675.13,-153.16 673.13,-142.75 668.2,-152.13 675.13,-153.16"/>
</g>
<!-- Node7 -->
<g id="node7" class="node">
<title>Node7</title>
<g id="a_node7"><a xlink:href="_o_m_sim_logger_8hh_source.html" target="_top" xlink:title=" ">
<polygon fill="none" stroke="black" points="718.93,-67.5 718.93,-86.5 817.93,-86.5 817.93,-67.5 718.93,-67.5"/>
<text text-anchor="middle" x="768.43" y="-74.5" font-family="Helvetica,sans-Serif" font-size="10.00">OMSimLogger.hh</text>
</a>
</g>
</g>
<!-- Node6&#45;&gt;Node7 -->
<g id="edge6" class="edge">
<title>Node6&#45;&gt;Node7</title>
<path fill="none" stroke="midnightblue" d="M689.53,-123.32C704.33,-114.82 727.12,-101.73 744.41,-91.8"/>
<polygon fill="midnightblue" stroke="midnightblue" points="746.44,-94.67 753.36,-86.65 742.95,-88.6 746.44,-94.67"/>
</g>
<!-- Node13 -->
<g id="node12" class="node">
<title>Node13</title>
<g id="a_node12"><a xlink:title=" ">
<polygon fill="none" stroke="#bfbfbf" points="555.93,-67.5 555.93,-86.5 674.93,-86.5 674.93,-67.5 555.93,-67.5"/>
<text text-anchor="middle" x="615.43" y="-74.5" font-family="Helvetica,sans-Serif" font-size="10.00">G4SystemOfUnits.hh</text>
</a>
</g>
</g>
<!-- Node6&#45;&gt;Node13 -->
<g id="edge11" class="edge">
<title>Node6&#45;&gt;Node13</title>
<path fill="none" stroke="midnightblue" d="M664.95,-123.32C656.23,-115.34 643.08,-103.31 632.53,-93.65"/>
<polygon fill="midnightblue" stroke="midnightblue" points="634.82,-91 625.08,-86.83 630.09,-96.17 634.82,-91"/>
</g>
<!-- Node8 -->
<g id="node8" class="node">
<title>Node8</title>
<g id="a_node8"><a xlink:title=" ">
<polygon fill="none" stroke="#bfbfbf" points="549.93,-6 549.93,-25 642.93,-25 642.93,-6 549.93,-6"/>
<text text-anchor="middle" x="596.43" y="-13" font-family="Helvetica,sans-Serif" font-size="10.00">spdlog/spdlog.h</text>
</a>
</g>
</g>
<!-- Node7&#45;&gt;Node8 -->
<g id="edge7" class="edge">
<title>Node7&#45;&gt;Node8</title>
<path fill="none" stroke="midnightblue" d="M743.79,-67.48C714.15,-57.22 664.24,-39.96 630.83,-28.4"/>
<polygon fill="midnightblue" stroke="midnightblue" points="631.62,-24.97 621.03,-25.01 629.33,-31.59 631.62,-24.97"/>
</g>
<!-- Node9 -->
<g id="node9" class="node">
<title>Node9</title>
<g id="a_node9"><a xlink:title=" ">
<polygon fill="none" stroke="#bfbfbf" points="660.93,-0.5 660.93,-30.5 771.93,-30.5 771.93,-0.5 660.93,-0.5"/>
<text text-anchor="start" x="668.93" y="-18.5" font-family="Helvetica,sans-Serif" font-size="10.00">spdlog/sinks/stdout</text>
<text text-anchor="middle" x="716.43" y="-7.5" font-family="Helvetica,sans-Serif" font-size="10.00">_color_sinks.h</text>
</a>
</g>
</g>
<!-- Node7&#45;&gt;Node9 -->
<g id="edge8" class="edge">
<title>Node7&#45;&gt;Node9</title>
<path fill="none" stroke="midnightblue" d="M760.98,-67.48C754.33,-59.87 744.31,-48.4 735.45,-38.26"/>
<polygon fill="midnightblue" stroke="midnightblue" points="737.9,-35.75 728.68,-30.52 732.63,-40.36 737.9,-35.75"/>
</g>
<!-- Node10 -->
<g id="node10" class="node">
<title>Node10</title>
<g id="a_node10"><a xlink:title=" ">
<polygon fill="none" stroke="#bfbfbf" points="790.43,-6 790.43,-25 848.43,-25 848.43,-6 790.43,-6"/>
<text text-anchor="middle" x="819.43" y="-13" font-family="Helvetica,sans-Serif" font-size="10.00">memory</text>
</a>
</g>
</g>
<!-- Node7&#45;&gt;Node10 -->
<g id="edge9" class="edge">
<title>Node7&#45;&gt;Node10</title>
<path fill="none" stroke="midnightblue" d="M775.74,-67.48C783.46,-58.46 795.84,-44.02 805.45,-32.81"/>
<polygon fill="midnightblue" stroke="midnightblue" points="808.28,-34.88 812.13,-25.01 802.97,-30.32 808.28,-34.88"/>
</g>
<!-- Node11 -->
<g id="node11" class="node">
<title>Node11</title>
<g id="a_node11"><a xlink:title=" ">
<polygon fill="none" stroke="#bfbfbf" points="866.43,-6 866.43,-25 964.43,-25 964.43,-6 866.43,-6"/>
<text text-anchor="middle" x="915.43" y="-13" font-family="Helvetica,sans-Serif" font-size="10.00">spdlog/fmt/fmt.h</text>
</a>
</g>
</g>
<!-- Node7&#45;&gt;Node11 -->
<g id="edge10" class="edge">
<title>Node7&#45;&gt;Node11</title>
<path fill="none" stroke="midnightblue" d="M789.49,-67.48C814.49,-57.36 856.37,-40.4 884.92,-28.85"/>
<polygon fill="midnightblue" stroke="midnightblue" points="886.45,-32.01 894.41,-25.01 883.82,-25.52 886.45,-32.01"/>
</g>
<!-- Node20 -->
<g id="node14" class="node">
<title>Node20</title>
<g id="a_node14"><a xlink:href="_o_m_sim_p_m_t_response_8hh.html" target="_top" xlink:title="Simulation of PMT response.">
<polygon fill="none" stroke="black" points="439.93,-179.5 439.93,-198.5 574.93,-198.5 574.93,-179.5 439.93,-179.5"/>
<text text-anchor="middle" x="507.43" y="-186.5" font-family="Helvetica,sans-Serif" font-size="10.00">OMSimPMTResponse.hh</text>
</a>
</g>
</g>
<!-- Node19&#45;&gt;Node20 -->
<g id="edge13" class="edge">
<title>Node19&#45;&gt;Node20</title>
<path fill="none" stroke="midnightblue" d="M399.71,-235.44C420.78,-226.56 453.95,-212.56 477.91,-202.45"/>
<polygon fill="midnightblue" stroke="midnightblue" points="479.39,-205.63 487.24,-198.52 476.67,-199.18 479.39,-205.63"/>
</g>
<!-- Node25 -->
<g id="node19" class="node">
<title>Node25</title>
<g id="a_node19"><a xlink:title=" ">
<polygon fill="none" stroke="#bfbfbf" points="24.93,-179.5 24.93,-198.5 127.93,-198.5 127.93,-179.5 24.93,-179.5"/>
<text text-anchor="middle" x="76.43" y="-186.5" font-family="Helvetica,sans-Serif" font-size="10.00">G4ThreeVector.hh</text>
</a>
</g>
</g>
<!-- Node19&#45;&gt;Node25 -->
<g id="edge19" class="edge">
<title>Node19&#45;&gt;Node25</title>
<path fill="none" stroke="midnightblue" d="M331.42,-235.44C277.89,-225.9 191.36,-210.48 134.18,-200.29"/>
<polygon fill="midnightblue" stroke="midnightblue" points="134.67,-196.83 124.22,-198.52 133.45,-203.72 134.67,-196.83"/>
</g>
<!-- Node26 -->
<g id="node20" class="node">
<title>Node26</title>
<g id="a_node20"><a xlink:title=" ">
<polygon fill="none" stroke="#bfbfbf" points="366.93,-179.5 366.93,-198.5 421.93,-198.5 421.93,-179.5 366.93,-179.5"/>
<text text-anchor="middle" x="394.43" y="-186.5" font-family="Helvetica,sans-Serif" font-size="10.00">fstream</text>
</a>
</g>
</g>
<!-- Node19&#45;&gt;Node26 -->
<g id="edge20" class="edge">
<title>Node19&#45;&gt;Node26</title>
<path fill="none" stroke="midnightblue" d="M381.91,-235.08C383.91,-227.85 386.81,-217.41 389.32,-208.4"/>
<polygon fill="midnightblue" stroke="midnightblue" points="392.69,-209.32 392,-198.75 385.95,-207.45 392.69,-209.32"/>
</g>
<!-- Node27 -->
<g id="node21" class="node">
<title>Node27</title>
<g id="a_node21"><a xlink:title=" ">
<polygon fill="none" stroke="#bfbfbf" points="146.43,-179.5 146.43,-198.5 236.43,-198.5 236.43,-179.5 146.43,-179.5"/>
<text text-anchor="middle" x="191.43" y="-186.5" font-family="Helvetica,sans-Serif" font-size="10.00">G4AutoLock.hh</text>
</a>
</g>
</g>
<!-- Node19&#45;&gt;Node27 -->
<g id="edge21" class="edge">
<title>Node19&#45;&gt;Node27</title>
<path fill="none" stroke="midnightblue" d="M349.64,-235.44C317.6,-226.24 266.49,-211.56 231.08,-201.39"/>
<polygon fill="midnightblue" stroke="midnightblue" points="231.66,-197.91 221.08,-198.52 229.72,-204.64 231.66,-197.91"/>
</g>
<!-- Node28 -->
<g id="node22" class="node">
<title>Node28</title>
<g id="a_node22"><a xlink:title=" ">
<polygon fill="none" stroke="#bfbfbf" points="254.43,-179.5 254.43,-198.5 348.43,-198.5 348.43,-179.5 254.43,-179.5"/>
<text text-anchor="middle" x="301.43" y="-186.5" font-family="Helvetica,sans-Serif" font-size="10.00">G4Threading.hh</text>
</a>
</g>
</g>
<!-- Node19&#45;&gt;Node28 -->
<g id="edge22" class="edge">
<title>Node19&#45;&gt;Node28</title>
<path fill="none" stroke="midnightblue" d="M366.9,-235.32C354.84,-226.98 336.4,-214.21 322.16,-204.35"/>
<polygon fill="midnightblue" stroke="midnightblue" points="324.14,-201.47 313.93,-198.65 320.16,-207.22 324.14,-201.47"/>
</g>
<!-- Node20&#45;&gt;Node13 -->
<g id="edge14" class="edge">
<title>Node20&#45;&gt;Node13</title>
<path fill="none" stroke="midnightblue" d="M521.47,-179.44C534.49,-171.11 553.98,-157.59 568.43,-143 582.92,-128.37 596.35,-108.95 605.11,-95.16"/>
<polygon fill="midnightblue" stroke="midnightblue" points="608.1,-96.98 610.39,-86.64 602.15,-93.3 608.1,-96.98"/>
</g>
<!-- Node21 -->
<g id="node15" class="node">
<title>Node21</title>
<g id="a_node15"><a xlink:title=" ">
<polygon fill="none" stroke="#bfbfbf" points="115.93,-123.5 115.93,-142.5 188.93,-142.5 188.93,-123.5 115.93,-123.5"/>
<text text-anchor="middle" x="152.43" y="-130.5" font-family="Helvetica,sans-Serif" font-size="10.00">G4Types.hh</text>
</a>
</g>
</g>
<!-- Node20&#45;&gt;Node21 -->
<g id="edge15" class="edge">
<title>Node20&#45;&gt;Node21</title>
<path fill="none" stroke="midnightblue" d="M451.18,-179.44C381.59,-168.86 264.36,-151.03 199.37,-141.14"/>
<polygon fill="midnightblue" stroke="midnightblue" points="199.82,-137.67 189.4,-139.62 198.76,-144.59 199.82,-137.67"/>
</g>
<!-- Node22 -->
<g id="node16" class="node">
<title>Node22</title>
<g id="a_node16"><a xlink:title=" ">
<polygon fill="none" stroke="#bfbfbf" points="371.43,-123.5 371.43,-142.5 409.43,-142.5 409.43,-123.5 371.43,-123.5"/>
<text text-anchor="middle" x="390.43" y="-130.5" font-family="Helvetica,sans-Serif" font-size="10.00">map</text>
</a>
</g>
</g>
<!-- Node20&#45;&gt;Node22 -->
<g id="edge16" class="edge">
<title>Node20&#45;&gt;Node22</title>
<path fill="none" stroke="midnightblue" d="M488.89,-179.44C469.81,-170.64 439.85,-156.81 417.99,-146.72"/>
<polygon fill="midnightblue" stroke="midnightblue" points="419.43,-143.53 408.88,-142.52 416.49,-149.88 419.43,-143.53"/>
</g>
<!-- Node23 -->
<g id="node17" class="node">
<title>Node23</title>
<g id="a_node17"><a xlink:title=" ">
<polygon fill="none" stroke="#bfbfbf" points="427.93,-123.5 427.93,-142.5 488.93,-142.5 488.93,-123.5 427.93,-123.5"/>
<text text-anchor="middle" x="458.43" y="-130.5" font-family="Helvetica,sans-Serif" font-size="10.00">TGraph.h</text>
</a>
</g>
</g>
<!-- Node20&#45;&gt;Node23 -->
<g id="edge17" class="edge">
<title>Node20&#45;&gt;Node23</title>
<path fill="none" stroke="midnightblue" d="M499.34,-179.08C492.27,-171.3 481.84,-159.8 473.28,-150.37"/>
<polygon fill="midnightblue" stroke="midnightblue" points="475.68,-147.8 466.37,-142.75 470.5,-152.51 475.68,-147.8"/>
</g>
<!-- Node24 -->
<g id="node18" class="node">
<title>Node24</title>
<g id="a_node18"><a xlink:title=" ">
<polygon fill="none" stroke="#bfbfbf" points="506.93,-123.5 506.93,-142.5 559.93,-142.5 559.93,-123.5 506.93,-123.5"/>
<text text-anchor="middle" x="533.43" y="-130.5" font-family="Helvetica,sans-Serif" font-size="10.00">TH2D.h</text>
</a>
</g>
</g>
<!-- Node20&#45;&gt;Node24 -->
<g id="edge18" class="edge">
<title>Node20&#45;&gt;Node24</title>
<path fill="none" stroke="midnightblue" d="M511.72,-179.08C515.28,-171.69 520.45,-160.95 524.85,-151.81"/>
<polygon fill="midnightblue" stroke="midnightblue" points="528.03,-153.28 529.21,-142.75 521.72,-150.24 528.03,-153.28"/>
</g>
<!-- Node29&#45;&gt;Node5 -->
<g id="edge24" class="edge">
<title>Node29&#45;&gt;Node5</title>
<path fill="none" stroke="midnightblue" d="M554.5,-235.44C576.49,-226.52 611.16,-212.44 636.09,-202.32"/>
<polygon fill="midnightblue" stroke="midnightblue" points="637.5,-205.52 645.45,-198.52 634.87,-199.04 637.5,-205.52"/>
</g>
<!-- Node29&#45;&gt;Node20 -->
<g id="edge26" class="edge">
<title>Node29&#45;&gt;Node20</title>
<path fill="none" stroke="midnightblue" d="M529.14,-235.08C525.58,-227.69 520.41,-216.95 516,-207.81"/>
<polygon fill="midnightblue" stroke="midnightblue" points="519.13,-206.24 511.64,-198.75 512.83,-209.28 519.13,-206.24"/>
</g>
<!-- Node29&#45;&gt;Node29 -->
<g id="edge25" class="edge">
<title>Node29&#45;&gt;Node29</title>
<path fill="none" stroke="midnightblue" d="M572.88,-254.53C599.69,-257.31 625.93,-254.13 625.93,-245 625.93,-237.01 605.84,-233.58 582.86,-234.71"/>
<polygon fill="midnightblue" stroke="midnightblue" points="582.58,-231.22 572.88,-235.47 583.12,-238.2 582.58,-231.22"/>
</g>
<!-- Node36&#45;&gt;Node7 -->
<g id="edge34" class="edge">
<title>Node36&#45;&gt;Node7</title>
<path fill="none" stroke="midnightblue" d="M828.92,-291.37C815.02,-283.84 796.83,-271.52 787.43,-255 758.33,-203.83 762.01,-130.82 765.81,-96.8"/>
<polygon fill="midnightblue" stroke="midnightblue" points="769.28,-97.2 767.05,-86.84 762.34,-96.33 769.28,-97.2"/>
</g>
<!-- Node36&#45;&gt;Node19 -->
<g id="edge33" class="edge">
<title>Node36&#45;&gt;Node19</title>
<path fill="none" stroke="midnightblue" d="M789.34,-293.08C783.29,-292.37 777.24,-291.67 771.43,-291 631.58,-274.9 594.07,-272.3 451.27,-255.21"/>
<polygon fill="midnightblue" stroke="midnightblue" points="451.6,-251.72 441.26,-254.01 450.77,-258.67 451.6,-251.72"/>
</g>
<!-- Node37 -->
<g id="node29" class="node">
<title>Node37</title>
<g id="a_node29"><a xlink:title=" ">
<polygon fill="none" stroke="#bfbfbf" points="796.93,-235.5 796.93,-254.5 913.93,-254.5 913.93,-235.5 796.93,-235.5"/>
<text text-anchor="middle" x="855.43" y="-242.5" font-family="Helvetica,sans-Serif" font-size="10.00">G4UserRunAction.hh</text>
</a>
</g>
</g>
<!-- Node36&#45;&gt;Node37 -->
<g id="edge32" class="edge">
<title>Node36&#45;&gt;Node37</title>
<path fill="none" stroke="midnightblue" d="M848.75,-291.08C849.81,-283.93 851.33,-273.64 852.66,-264.69"/>
<polygon fill="midnightblue" stroke="midnightblue" points="856.13,-265.16 854.13,-254.75 849.2,-264.13 856.13,-265.16"/>
</g>
<!-- Node40 -->
<g id="node32" class="node">
<title>Node40</title>
<g id="a_node32"><a xlink:title=" ">
<polygon fill="none" stroke="#bfbfbf" points="1464.93,-291.5 1464.93,-310.5 1603.93,-310.5 1603.93,-291.5 1464.93,-291.5"/>
<text text-anchor="middle" x="1534.43" y="-298.5" font-family="Helvetica,sans-Serif" font-size="10.00">G4UserTrackingAction.hh</text>
</a>
</g>
</g>
<!-- Node39&#45;&gt;Node40 -->
<g id="edge37" class="edge">
<title>Node39&#45;&gt;Node40</title>
<path fill="none" stroke="midnightblue" d="M1535.26,-347.08C1535.13,-340.01 1534.94,-329.86 1534.78,-320.99"/>
<polygon fill="midnightblue" stroke="midnightblue" points="1538.28,-320.68 1534.59,-310.75 1531.28,-320.81 1538.28,-320.68"/>
</g>
<!-- Node42 -->
<g id="node34" class="node">
<title>Node42</title>
<g id="a_node34"><a xlink:title=" ">
<polygon fill="none" stroke="#bfbfbf" points="1621.93,-291.5 1621.93,-310.5 1762.93,-310.5 1762.93,-291.5 1621.93,-291.5"/>
<text text-anchor="middle" x="1692.43" y="-298.5" font-family="Helvetica,sans-Serif" font-size="10.00">G4UserSteppingAction.hh</text>
</a>
</g>
</g>
<!-- Node41&#45;&gt;Node42 -->
<g id="edge39" class="edge">
<title>Node41&#45;&gt;Node42</title>
<path fill="none" stroke="midnightblue" d="M1692.43,-347.08C1692.43,-340.01 1692.43,-329.86 1692.43,-320.99"/>
<polygon fill="midnightblue" stroke="midnightblue" points="1695.93,-320.75 1692.43,-310.75 1688.93,-320.75 1695.93,-320.75"/>
</g>
<!-- Node44 -->
<g id="node36" class="node">
<title>Node44</title>
<g id="a_node36"><a xlink:href="_o_m_sim_command_args_table_8hh.html" target="_top" xlink:title="Definition of the OMSimCommandArgsTable singleton class, which controls user args.">
<polygon fill="none" stroke="black" points="932.43,-235.5 932.43,-254.5 1096.43,-254.5 1096.43,-235.5 932.43,-235.5"/>
<text text-anchor="middle" x="1014.43" y="-242.5" font-family="Helvetica,sans-Serif" font-size="10.00">OMSimCommandArgsTable.hh</text>
</a>
</g>
</g>
<!-- Node43&#45;&gt;Node44 -->
<g id="edge41" class="edge">
<title>Node43&#45;&gt;Node44</title>
<path fill="none" stroke="midnightblue" d="M1133.09,-291.44C1109.68,-282.48 1072.69,-268.31 1046.24,-258.18"/>
<polygon fill="midnightblue" stroke="midnightblue" points="1047.26,-254.82 1036.67,-254.52 1044.75,-261.36 1047.26,-254.82"/>
</g>
<!-- Node47 -->
<g id="node39" class="node">
<title>Node47</title>
<g id="a_node39"><a xlink:title=" ">
<polygon fill="none" stroke="#bfbfbf" points="1114.43,-235.5 1114.43,-254.5 1212.43,-254.5 1212.43,-235.5 1114.43,-235.5"/>
<text text-anchor="middle" x="1163.43" y="-242.5" font-family="Helvetica,sans-Serif" font-size="10.00">G4UImanager.hh</text>
</a>
</g>
</g>
<!-- Node43&#45;&gt;Node47 -->
<g id="edge46" class="edge">
<title>Node43&#45;&gt;Node47</title>
<path fill="none" stroke="midnightblue" d="M1156.75,-291.08C1157.81,-283.93 1159.33,-273.64 1160.66,-264.69"/>
<polygon fill="midnightblue" stroke="midnightblue" points="1164.13,-265.16 1162.13,-254.75 1157.2,-264.13 1164.13,-265.16"/>
</g>
<!-- Node44&#45;&gt;Node7 -->
<g id="edge42" class="edge">
<title>Node44&#45;&gt;Node7</title>
<path fill="none" stroke="midnightblue" d="M1019.81,-235.17C1027.17,-221.83 1038.2,-196.25 1026.43,-179 982.12,-114.08 889.26,-90.88 827.88,-82.6"/>
<polygon fill="midnightblue" stroke="midnightblue" points="828.3,-79.13 817.94,-81.35 827.43,-86.07 828.3,-79.13"/>
</g>
<!-- Node44&#45;&gt;Node26 -->
<g id="edge43" class="edge">
<title>Node44&#45;&gt;Node26</title>
<path fill="none" stroke="midnightblue" d="M932.18,-235.85C928.89,-235.56 925.63,-235.27 922.43,-235 707.28,-216.61 648.68,-233.2 432.33,-199.06"/>
<polygon fill="midnightblue" stroke="midnightblue" points="432.67,-195.57 422.24,-197.45 431.56,-202.49 432.67,-195.57"/>
</g>
<!-- Node45 -->
<g id="node37" class="node">
<title>Node45</title>
<g id="a_node37"><a xlink:title=" ">
<polygon fill="none" stroke="#bfbfbf" points="847.43,-179.5 847.43,-198.5 931.43,-198.5 931.43,-179.5 847.43,-179.5"/>
<text text-anchor="middle" x="889.43" y="-186.5" font-family="Helvetica,sans-Serif" font-size="10.00">boost/any.hpp</text>
</a>
</g>
</g>
<!-- Node44&#45;&gt;Node45 -->
<g id="edge44" class="edge">
<title>Node44&#45;&gt;Node45</title>
<path fill="none" stroke="midnightblue" d="M994.62,-235.44C974.14,-226.6 941.95,-212.69 918.56,-202.59"/>
<polygon fill="midnightblue" stroke="midnightblue" points="919.71,-199.27 909.14,-198.52 916.93,-205.7 919.71,-199.27"/>
</g>
<!-- Node46 -->
<g id="node38" class="node">
<title>Node46</title>
<g id="a_node38"><a xlink:title=" ">
<polygon fill="none" stroke="#bfbfbf" points="949.43,-179.5 949.43,-198.5 1017.43,-198.5 1017.43,-179.5 949.43,-179.5"/>
<text text-anchor="middle" x="983.43" y="-186.5" font-family="Helvetica,sans-Serif" font-size="10.00">sys/time.h</text>
</a>
</g>
</g>
<!-- Node44&#45;&gt;Node46 -->
<g id="edge45" class="edge">
<title>Node44&#45;&gt;Node46</title>
<path fill="none" stroke="midnightblue" d="M1009.31,-235.08C1005.02,-227.61 998.77,-216.72 993.49,-207.52"/>
<polygon fill="midnightblue" stroke="midnightblue" points="996.47,-205.68 988.45,-198.75 990.4,-209.17 996.47,-205.68"/>
</g>
<!-- Node53&#45;&gt;Node19 -->
<g id="edge56" class="edge">
<title>Node53&#45;&gt;Node19</title>
<path fill="none" stroke="midnightblue" d="M242.26,-291.44C269.68,-282.36 313.21,-267.94 343.86,-257.78"/>
<polygon fill="midnightblue" stroke="midnightblue" points="345.33,-260.98 353.72,-254.52 343.13,-254.34 345.33,-260.98"/>
</g>
<!-- Node53&#45;&gt;Node21 -->
<g id="edge53" class="edge">
<title>Node53&#45;&gt;Node21</title>
<path fill="none" stroke="midnightblue" d="M155.35,-294.61C102.78,-288.57 32.75,-276.63 15.43,-255 -5.69,-228.64 -4.38,-206.36 15.43,-179 35.88,-150.76 74.62,-139.93 105.7,-135.92"/>
<polygon fill="midnightblue" stroke="midnightblue" points="106.35,-139.37 115.91,-134.81 105.59,-132.41 106.35,-139.37"/>
</g>
<!-- Node53&#45;&gt;Node25 -->
<g id="edge55" class="edge">
<title>Node53&#45;&gt;Node25</title>
<path fill="none" stroke="midnightblue" d="M222.64,-291.07C231.16,-277.6 244.09,-251.85 231.43,-235 219.88,-219.63 176.17,-207.8 138.1,-200.14"/>
<polygon fill="midnightblue" stroke="midnightblue" points="138.54,-196.66 128.06,-198.19 137.2,-203.53 138.54,-196.66"/>
</g>
<!-- Node53&#45;&gt;Node26 -->
<g id="edge58" class="edge">
<title>Node53&#45;&gt;Node26</title>
<path fill="none" stroke="midnightblue" d="M227.43,-291.5C244.37,-278.58 278.06,-253.56 308.43,-235 327.42,-223.39 349.71,-211.79 366.83,-203.27"/>
<polygon fill="midnightblue" stroke="midnightblue" points="368.83,-206.19 376.26,-198.63 365.74,-199.9 368.83,-206.19"/>
</g>
<!-- Node54 -->
<g id="node46" class="node">
<title>Node54</title>
<g id="a_node46"><a xlink:title=" ">
<polygon fill="none" stroke="#bfbfbf" points="24.43,-235.5 24.43,-254.5 98.43,-254.5 98.43,-235.5 24.43,-235.5"/>
<text text-anchor="middle" x="61.43" y="-242.5" font-family="Helvetica,sans-Serif" font-size="10.00">G4String.hh</text>
</a>
</g>
</g>
<!-- Node53&#45;&gt;Node54 -->
<g id="edge54" class="edge">
<title>Node53&#45;&gt;Node54</title>
<path fill="none" stroke="midnightblue" d="M191.87,-291.44C165.91,-282.4 124.76,-268.06 95.63,-257.92"/>
<polygon fill="midnightblue" stroke="midnightblue" points="96.47,-254.5 85.87,-254.52 94.17,-261.11 96.47,-254.5"/>
</g>
<!-- Node55 -->
<g id="node47" class="node">
<title>Node55</title>
<g id="a_node47"><a xlink:title=" ">
<polygon fill="none" stroke="#bfbfbf" points="116.93,-235.5 116.93,-254.5 163.93,-254.5 163.93,-235.5 116.93,-235.5"/>
<text text-anchor="middle" x="140.43" y="-242.5" font-family="Helvetica,sans-Serif" font-size="10.00">vector</text>
</a>
</g>
</g>
<!-- Node53&#45;&gt;Node55 -->
<g id="edge57" class="edge">
<title>Node53&#45;&gt;Node55</title>
<path fill="none" stroke="midnightblue" d="M204.22,-291.32C192.65,-283.11 175.05,-270.6 161.27,-260.81"/>
<polygon fill="midnightblue" stroke="midnightblue" points="163.04,-257.77 152.86,-254.83 158.99,-263.48 163.04,-257.77"/>
</g>
<!-- Node56 -->
<g id="node48" class="node">
<title>Node56</title>
<g id="a_node48"><a xlink:title=" ">
<polygon fill="none" stroke="#bfbfbf" points="181.93,-235.5 181.93,-254.5 222.93,-254.5 222.93,-235.5 181.93,-235.5"/>
<text text-anchor="middle" x="202.43" y="-242.5" font-family="Helvetica,sans-Serif" font-size="10.00">tuple</text>
</a>
</g>
</g>
<!-- Node53&#45;&gt;Node56 -->
<g id="edge59" class="edge">
<title>Node53&#45;&gt;Node56</title>
<path fill="none" stroke="midnightblue" d="M214.12,-291.08C212.26,-283.93 209.59,-273.64 207.27,-264.69"/>
<polygon fill="midnightblue" stroke="midnightblue" points="210.59,-263.55 204.7,-254.75 203.82,-265.31 210.59,-263.55"/>
</g>
<!-- Node58&#45;&gt;Node3 -->
<g id="edge64" class="edge">
<title>Node58&#45;&gt;Node3</title>
<path fill="none" stroke="midnightblue" d="M445.47,-403.08C442.22,-395.77 437.51,-385.18 433.47,-376.1"/>
<polygon fill="midnightblue" stroke="midnightblue" points="436.58,-374.47 429.32,-366.75 430.18,-377.31 436.58,-374.47"/>
</g>
</g>
</svg>
