<?xml version="1.0" encoding="UTF-8" standalone="no"?>
<!DOCTYPE svg PUBLIC "-//W3C//DTD SVG 1.1//EN"
 "http://www.w3.org/Graphics/SVG/1.1/DTD/svg11.dtd">
<!-- Generated by graphviz version 2.43.0 (0)
 -->
<!-- Title: OMSimInputData.cc Pages: 1 -->
<svg width="792pt" height="274pt"
 viewBox="0.00 0.00 792.05 274.00" xmlns="http://www.w3.org/2000/svg" xmlns:xlink="http://www.w3.org/1999/xlink">
<g id="graph0" class="graph" transform="scale(1 1) rotate(0) translate(4 270)">
<title>OMSimInputData.cc</title>
<polygon fill="white" stroke="transparent" points="-4,4 -4,-270 788.05,-270 788.05,4 -4,4"/>
<!-- Node1 -->
<g id="node1" class="node">
<title>Node1</title>
<g id="a_node1"><a xlink:title=" ">
<polygon fill="#bfbfbf" stroke="black" points="417.55,-246.5 417.55,-265.5 530.55,-265.5 530.55,-246.5 417.55,-246.5"/>
<text text-anchor="middle" x="474.05" y="-253.5" font-family="Helvetica,sans-Serif" font-size="10.00">OMSimInputData.cc</text>
</a>
</g>
</g>
<!-- Node2 -->
<g id="node2" class="node">
<title>Node2</title>
<g id="a_node2"><a xlink:href="_o_m_sim_input_data_8hh.html" target="_top" xlink:title="Definition of ParameterTable and InputDataManager.">
<polygon fill="white" stroke="black" points="177.55,-190.5 177.55,-209.5 292.55,-209.5 292.55,-190.5 177.55,-190.5"/>
<text text-anchor="middle" x="235.05" y="-197.5" font-family="Helvetica,sans-Serif" font-size="10.00">OMSimInputData.hh</text>
</a>
</g>
</g>
<!-- Node1&#45;&gt;Node2 -->
<g id="edge1" class="edge">
<title>Node1&#45;&gt;Node2</title>
<path fill="none" stroke="midnightblue" d="M436.18,-246.44C394.57,-237.04 327.68,-221.93 282.58,-211.74"/>
<polygon fill="midnightblue" stroke="midnightblue" points="283.27,-208.31 272.74,-209.52 281.72,-215.13 283.27,-208.31"/>
</g>
<!-- Node11 -->
<g id="node11" class="node">
<title>Node11</title>
<g id="a_node11"><a xlink:href="_o_m_sim_command_args_table_8hh.html" target="_top" xlink:title="Definition of the OMSimCommandArgsTable singleton class, which controls user args.">
<polygon fill="white" stroke="black" points="574.05,-129 574.05,-148 738.05,-148 738.05,-129 574.05,-129"/>
<text text-anchor="middle" x="656.05" y="-136" font-family="Helvetica,sans-Serif" font-size="10.00">OMSimCommandArgsTable.hh</text>
</a>
</g>
</g>
<!-- Node1&#45;&gt;Node11 -->
<g id="edge10" class="edge">
<title>Node1&#45;&gt;Node11</title>
<path fill="none" stroke="midnightblue" d="M474.11,-246.13C474.7,-232.25 477.87,-205.42 493.05,-190 508.6,-174.2 561.67,-159.61 603.09,-150.22"/>
<polygon fill="midnightblue" stroke="midnightblue" points="604.06,-153.59 613.06,-148.01 602.54,-146.76 604.06,-153.59"/>
</g>
<!-- Node15 -->
<g id="node15" class="node">
<title>Node15</title>
<g id="a_node15"><a xlink:href="_o_m_sim_data_file_types_8hh.html" target="_top" xlink:title="Collection of classes and methods to handle material creation from user data in json files.">
<polygon fill="white" stroke="black" points="310.55,-190.5 310.55,-209.5 445.55,-209.5 445.55,-190.5 310.55,-190.5"/>
<text text-anchor="middle" x="378.05" y="-197.5" font-family="Helvetica,sans-Serif" font-size="10.00">OMSimDataFileTypes.hh</text>
</a>
</g>
</g>
<!-- Node1&#45;&gt;Node15 -->
<g id="edge15" class="edge">
<title>Node1&#45;&gt;Node15</title>
<path fill="none" stroke="midnightblue" d="M458.62,-246.32C443.51,-237.82 420.23,-224.73 402.58,-214.8"/>
<polygon fill="midnightblue" stroke="midnightblue" points="403.86,-211.51 393.43,-209.65 400.43,-217.61 403.86,-211.51"/>
</g>
<!-- Node17 -->
<g id="node17" class="node">
<title>Node17</title>
<g id="a_node17"><a xlink:title=" ">
<polygon fill="white" stroke="#bfbfbf" points="502.05,-190.5 502.05,-209.5 598.05,-209.5 598.05,-190.5 502.05,-190.5"/>
<text text-anchor="middle" x="550.05" y="-197.5" font-family="Helvetica,sans-Serif" font-size="10.00">G4UnitsTable.hh</text>
</a>
</g>
</g>
<!-- Node1&#45;&gt;Node17 -->
<g id="edge21" class="edge">
<title>Node1&#45;&gt;Node17</title>
<path fill="none" stroke="midnightblue" d="M486.26,-246.32C497.82,-238.11 515.42,-225.6 529.21,-215.81"/>
<polygon fill="midnightblue" stroke="midnightblue" points="531.49,-218.48 537.61,-209.83 527.44,-212.77 531.49,-218.48"/>
</g>
<!-- Node18 -->
<g id="node18" class="node">
<title>Node18</title>
<g id="a_node18"><a xlink:title=" ">
<polygon fill="white" stroke="#bfbfbf" points="616.05,-190.5 616.05,-209.5 670.05,-209.5 670.05,-190.5 616.05,-190.5"/>
<text text-anchor="middle" x="643.05" y="-197.5" font-family="Helvetica,sans-Serif" font-size="10.00">dirent.h</text>
</a>
</g>
</g>
<!-- Node1&#45;&gt;Node18 -->
<g id="edge22" class="edge">
<title>Node1&#45;&gt;Node18</title>
<path fill="none" stroke="midnightblue" d="M500.83,-246.44C529.38,-237.32 574.78,-222.81 606.58,-212.65"/>
<polygon fill="midnightblue" stroke="midnightblue" points="607.93,-215.89 616.39,-209.52 605.8,-209.23 607.93,-215.89"/>
</g>
<!-- Node3 -->
<g id="node3" class="node">
<title>Node3</title>
<g id="a_node3"><a xlink:href="_o_m_sim_logger_8hh.html" target="_top" xlink:title=" ">
<polygon fill="white" stroke="black" points="182.55,-67.5 182.55,-86.5 281.55,-86.5 281.55,-67.5 182.55,-67.5"/>
<text text-anchor="middle" x="232.05" y="-74.5" font-family="Helvetica,sans-Serif" font-size="10.00">OMSimLogger.hh</text>
</a>
</g>
</g>
<!-- Node2&#45;&gt;Node3 -->
<g id="edge2" class="edge">
<title>Node2&#45;&gt;Node3</title>
<path fill="none" stroke="midnightblue" d="M177.32,-195.57C117.8,-190.69 30.82,-179.34 10.05,-154 -36.39,-97.35 91.93,-82.79 172.42,-79.14"/>
<polygon fill="midnightblue" stroke="midnightblue" points="172.62,-82.63 182.47,-78.72 172.33,-75.64 172.62,-82.63"/>
</g>
<!-- Node8 -->
<g id="node8" class="node">
<title>Node8</title>
<g id="a_node8"><a xlink:title=" ">
<polygon fill="white" stroke="#bfbfbf" points="19.55,-129 19.55,-148 162.55,-148 162.55,-129 19.55,-129"/>
<text text-anchor="middle" x="91.05" y="-136" font-family="Helvetica,sans-Serif" font-size="10.00">G4OpBoundaryProcess.hh</text>
</a>
</g>
</g>
<!-- Node2&#45;&gt;Node8 -->
<g id="edge7" class="edge">
<title>Node2&#45;&gt;Node8</title>
<path fill="none" stroke="midnightblue" d="M214.42,-190.48C189.93,-180.36 148.9,-163.4 120.94,-151.85"/>
<polygon fill="midnightblue" stroke="midnightblue" points="122.22,-148.59 111.64,-148.01 119.55,-155.06 122.22,-148.59"/>
</g>
<!-- Node9 -->
<g id="node9" class="node">
<title>Node9</title>
<g id="a_node9"><a xlink:title=" ">
<polygon fill="white" stroke="#bfbfbf" points="180.55,-129 180.55,-148 299.55,-148 299.55,-129 180.55,-129"/>
<text text-anchor="middle" x="240.05" y="-136" font-family="Helvetica,sans-Serif" font-size="10.00">G4SystemOfUnits.hh</text>
</a>
</g>
</g>
<!-- Node2&#45;&gt;Node9 -->
<g id="edge8" class="edge">
<title>Node2&#45;&gt;Node9</title>
<path fill="none" stroke="midnightblue" d="M235.76,-190.48C236.47,-182.08 237.57,-168.98 238.48,-158.16"/>
<polygon fill="midnightblue" stroke="midnightblue" points="241.98,-158.27 239.33,-148.01 235.01,-157.68 241.98,-158.27"/>
</g>
<!-- Node10 -->
<g id="node10" class="node">
<title>Node10</title>
<g id="a_node10"><a xlink:title=" ">
<polygon fill="white" stroke="#bfbfbf" points="317.55,-123.5 317.55,-153.5 430.55,-153.5 430.55,-123.5 317.55,-123.5"/>
<text text-anchor="start" x="325.55" y="-141.5" font-family="Helvetica,sans-Serif" font-size="10.00">boost/property_tree</text>
<text text-anchor="middle" x="374.05" y="-130.5" font-family="Helvetica,sans-Serif" font-size="10.00">/json_parser.hpp</text>
</a>
</g>
</g>
<!-- Node2&#45;&gt;Node10 -->
<g id="edge9" class="edge">
<title>Node2&#45;&gt;Node10</title>
<path fill="none" stroke="midnightblue" d="M254.96,-190.48C274.93,-181.93 306.3,-168.5 331.83,-157.57"/>
<polygon fill="midnightblue" stroke="midnightblue" points="333.47,-160.68 341.29,-153.52 330.72,-154.24 333.47,-160.68"/>
</g>
<!-- Node4 -->
<g id="node4" class="node">
<title>Node4</title>
<g id="a_node4"><a xlink:title=" ">
<polygon fill="white" stroke="#bfbfbf" points="14.55,-6 14.55,-25 107.55,-25 107.55,-6 14.55,-6"/>
<text text-anchor="middle" x="61.05" y="-13" font-family="Helvetica,sans-Serif" font-size="10.00">spdlog/spdlog.h</text>
</a>
</g>
</g>
<!-- Node3&#45;&gt;Node4 -->
<g id="edge3" class="edge">
<title>Node3&#45;&gt;Node4</title>
<path fill="none" stroke="midnightblue" d="M207.55,-67.48C178.09,-57.22 128.47,-39.96 95.25,-28.4"/>
<polygon fill="midnightblue" stroke="midnightblue" points="96.1,-24.99 85.5,-25.01 93.8,-31.6 96.1,-24.99"/>
</g>
<!-- Node5 -->
<g id="node5" class="node">
<title>Node5</title>
<g id="a_node5"><a xlink:title=" ">
<polygon fill="white" stroke="#bfbfbf" points="125.55,-0.5 125.55,-30.5 236.55,-30.5 236.55,-0.5 125.55,-0.5"/>
<text text-anchor="start" x="133.55" y="-18.5" font-family="Helvetica,sans-Serif" font-size="10.00">spdlog/sinks/stdout</text>
<text text-anchor="middle" x="181.05" y="-7.5" font-family="Helvetica,sans-Serif" font-size="10.00">_color_sinks.h</text>
</a>
</g>
</g>
<!-- Node3&#45;&gt;Node5 -->
<g id="edge4" class="edge">
<title>Node3&#45;&gt;Node5</title>
<path fill="none" stroke="midnightblue" d="M224.74,-67.48C218.22,-59.87 208.39,-48.4 199.7,-38.26"/>
<polygon fill="midnightblue" stroke="midnightblue" points="202.23,-35.84 193.07,-30.52 196.92,-40.39 202.23,-35.84"/>
</g>
<!-- Node6 -->
<g id="node6" class="node">
<title>Node6</title>
<g id="a_node6"><a xlink:title=" ">
<polygon fill="white" stroke="#bfbfbf" points="255.05,-6 255.05,-25 313.05,-25 313.05,-6 255.05,-6"/>
<text text-anchor="middle" x="284.05" y="-13" font-family="Helvetica,sans-Serif" font-size="10.00">memory</text>
</a>
</g>
</g>
<!-- Node3&#45;&gt;Node6 -->
<g id="edge5" class="edge">
<title>Node3&#45;&gt;Node6</title>
<path fill="none" stroke="midnightblue" d="M239.5,-67.48C247.37,-58.46 259.99,-44.02 269.79,-32.81"/>
<polygon fill="midnightblue" stroke="midnightblue" points="272.67,-34.84 276.61,-25.01 267.39,-30.24 272.67,-34.84"/>
</g>
<!-- Node7 -->
<g id="node7" class="node">
<title>Node7</title>
<g id="a_node7"><a xlink:title=" ">
<polygon fill="white" stroke="#bfbfbf" points="331.05,-6 331.05,-25 429.05,-25 429.05,-6 331.05,-6"/>
<text text-anchor="middle" x="380.05" y="-13" font-family="Helvetica,sans-Serif" font-size="10.00">spdlog/fmt/fmt.h</text>
</a>
</g>
</g>
<!-- Node3&#45;&gt;Node7 -->
<g id="edge6" class="edge">
<title>Node3&#45;&gt;Node7</title>
<path fill="none" stroke="midnightblue" d="M253.25,-67.48C278.42,-57.36 320.59,-40.4 349.33,-28.85"/>
<polygon fill="midnightblue" stroke="midnightblue" points="350.91,-31.99 358.88,-25.01 348.3,-25.49 350.91,-31.99"/>
</g>
<!-- Node11&#45;&gt;Node3 -->
<g id="edge11" class="edge">
<title>Node11&#45;&gt;Node3</title>
<path fill="none" stroke="midnightblue" d="M603.63,-128.93C591,-126.93 577.55,-124.84 565.05,-123 469.72,-108.97 358.79,-94.31 292.07,-85.68"/>
<polygon fill="midnightblue" stroke="midnightblue" points="292.11,-82.15 281.75,-84.34 291.22,-89.09 292.11,-82.15"/>
</g>
<!-- Node12 -->
<g id="node12" class="node">
<title>Node12</title>
<g id="a_node12"><a xlink:title=" ">
<polygon fill="white" stroke="#bfbfbf" points="540.55,-67.5 540.55,-86.5 595.55,-86.5 595.55,-67.5 540.55,-67.5"/>
<text text-anchor="middle" x="568.05" y="-74.5" font-family="Helvetica,sans-Serif" font-size="10.00">fstream</text>
</a>
</g>
</g>
<!-- Node11&#45;&gt;Node12 -->
<g id="edge12" class="edge">
<title>Node11&#45;&gt;Node12</title>
<path fill="none" stroke="midnightblue" d="M643.44,-128.98C629.32,-119.43 606.22,-103.81 589.3,-92.37"/>
<polygon fill="midnightblue" stroke="midnightblue" points="590.88,-89.21 580.63,-86.51 586.96,-95.01 590.88,-89.21"/>
</g>
<!-- Node13 -->
<g id="node13" class="node">
<title>Node13</title>
<g id="a_node13"><a xlink:title=" ">
<polygon fill="white" stroke="#bfbfbf" points="614.05,-67.5 614.05,-86.5 698.05,-86.5 698.05,-67.5 614.05,-67.5"/>
<text text-anchor="middle" x="656.05" y="-74.5" font-family="Helvetica,sans-Serif" font-size="10.00">boost/any.hpp</text>
</a>
</g>
</g>
<!-- Node11&#45;&gt;Node13 -->
<g id="edge13" class="edge">
<title>Node11&#45;&gt;Node13</title>
<path fill="none" stroke="midnightblue" d="M656.05,-128.98C656.05,-120.58 656.05,-107.48 656.05,-96.66"/>
<polygon fill="midnightblue" stroke="midnightblue" points="659.55,-96.51 656.05,-86.51 652.55,-96.51 659.55,-96.51"/>
</g>
<!-- Node14 -->
<g id="node14" class="node">
<title>Node14</title>
<g id="a_node14"><a xlink:title=" ">
<polygon fill="white" stroke="#bfbfbf" points="716.05,-67.5 716.05,-86.5 784.05,-86.5 784.05,-67.5 716.05,-67.5"/>
<text text-anchor="middle" x="750.05" y="-74.5" font-family="Helvetica,sans-Serif" font-size="10.00">sys/time.h</text>
</a>
</g>
</g>
<!-- Node11&#45;&gt;Node14 -->
<g id="edge14" class="edge">
<title>Node11&#45;&gt;Node14</title>
<path fill="none" stroke="midnightblue" d="M669.52,-128.98C684.73,-119.34 709.73,-103.52 727.85,-92.05"/>
<polygon fill="midnightblue" stroke="midnightblue" points="730.03,-94.81 736.6,-86.51 726.28,-88.9 730.03,-94.81"/>
</g>
<!-- Node15&#45;&gt;Node8 -->
<g id="edge17" class="edge">
<title>Node15&#45;&gt;Node8</title>
<path fill="none" stroke="midnightblue" d="M336.93,-190.48C285.57,-179.83 197.69,-161.61 142.08,-150.08"/>
<polygon fill="midnightblue" stroke="midnightblue" points="142.59,-146.61 132.09,-148.01 141.17,-153.47 142.59,-146.61"/>
</g>
<!-- Node15&#45;&gt;Node9 -->
<g id="edge18" class="edge">
<title>Node15&#45;&gt;Node9</title>
<path fill="none" stroke="midnightblue" d="M358.28,-190.48C334.91,-180.4 295.83,-163.55 269.04,-152"/>
<polygon fill="midnightblue" stroke="midnightblue" points="270.35,-148.75 259.78,-148.01 267.58,-155.18 270.35,-148.75"/>
</g>
<!-- Node15&#45;&gt;Node10 -->
<g id="edge19" class="edge">
<title>Node15&#45;&gt;Node10</title>
<path fill="none" stroke="midnightblue" d="M377.47,-190.48C377,-183.47 376.31,-173.19 375.67,-163.7"/>
<polygon fill="midnightblue" stroke="midnightblue" points="379.15,-163.27 374.99,-153.52 372.17,-163.74 379.15,-163.27"/>
</g>
<!-- Node15&#45;&gt;Node11 -->
<g id="edge20" class="edge">
<title>Node15&#45;&gt;Node11</title>
<path fill="none" stroke="midnightblue" d="M417.88,-190.48C467.53,-179.85 552.39,-161.68 606.28,-150.15"/>
<polygon fill="midnightblue" stroke="midnightblue" points="607.24,-153.52 616.29,-148.01 605.78,-146.68 607.24,-153.52"/>
</g>
<!-- Node16 -->
<g id="node16" class="node">
<title>Node16</title>
<g id="a_node16"><a xlink:title=" ">
<polygon fill="white" stroke="#bfbfbf" points="448.55,-129 448.55,-148 555.55,-148 555.55,-129 448.55,-129"/>
<text text-anchor="middle" x="502.05" y="-136" font-family="Helvetica,sans-Serif" font-size="10.00">G4NistManager.hh</text>
</a>
</g>
</g>
<!-- Node15&#45;&gt;Node16 -->
<g id="edge16" class="edge">
<title>Node15&#45;&gt;Node16</title>
<path fill="none" stroke="midnightblue" d="M395.81,-190.48C416.53,-180.53 451,-163.99 475.04,-152.46"/>
<polygon fill="midnightblue" stroke="midnightblue" points="476.81,-155.49 484.31,-148.01 473.78,-149.18 476.81,-155.49"/>
</g>
</g>
</svg>
