<?xml version="1.0" encoding="UTF-8" standalone="no"?>
<!DOCTYPE svg PUBLIC "-//W3C//DTD SVG 1.1//EN"
 "http://www.w3.org/Graphics/SVG/1.1/DTD/svg11.dtd">
<!-- Generated by graphviz version 2.43.0 (0)
 -->
<!-- Title: OMSimInputData.hh Pages: 1 -->
<svg width="1041pt" height="364pt"
 viewBox="0.00 0.00 1040.50 364.00" xmlns="http://www.w3.org/2000/svg" xmlns:xlink="http://www.w3.org/1999/xlink">
<g id="graph0" class="graph" transform="scale(1 1) rotate(0) translate(4 360)">
<title>OMSimInputData.hh</title>
<!-- Node1 -->
<g id="node1" class="node">
<title>Node1</title>
<g id="a_node1"><a xlink:title="Definition of ParameterTable and OMSimInputData.">
<polygon fill="#bfbfbf" stroke="black" points="357,-336.5 357,-355.5 472,-355.5 472,-336.5 357,-336.5"/>
<text text-anchor="middle" x="414.5" y="-343.5" font-family="Helvetica,sans-Serif" font-size="10.00">OMSimInputData.hh</text>
</a>
</g>
</g>
<!-- Node2 -->
<g id="node2" class="node">
<title>Node2</title>
<g id="a_node2"><a xlink:href="abc_detector_component_8hh.html" target="_top" xlink:title="Provides helper base class abcDetectorComponent for constructing and managing detector components in ...">
<polygon fill="none" stroke="black" points="341,-280.5 341,-299.5 488,-299.5 488,-280.5 341,-280.5"/>
<text text-anchor="middle" x="414.5" y="-287.5" font-family="Helvetica,sans-Serif" font-size="10.00">abcDetectorComponent.hh</text>
</a>
</g>
</g>
<!-- Node1&#45;&gt;Node2 -->
<g id="edge1" class="edge">
<title>Node1&#45;&gt;Node2</title>
<path fill="none" stroke="midnightblue" d="M414.5,-325.8C414.5,-316.91 414.5,-306.78 414.5,-299.75"/>
<polygon fill="midnightblue" stroke="midnightblue" points="411,-326.08 414.5,-336.08 418,-326.08 411,-326.08"/>
</g>
<!-- Node3 -->
<g id="node3" class="node">
<title>Node3</title>
<g id="a_node3"><a xlink:href="_o_m_sim_d_e_g_g_harness_8hh.html" target="_top" xlink:title="Construction of the DEGG harness.">
<polygon fill="none" stroke="black" points="89,-224.5 89,-243.5 224,-243.5 224,-224.5 89,-224.5"/>
<text text-anchor="middle" x="156.5" y="-231.5" font-family="Helvetica,sans-Serif" font-size="10.00">OMSimDEGGHarness.hh</text>
</a>
</g>
</g>
<!-- Node2&#45;&gt;Node3 -->
<g id="edge2" class="edge">
<title>Node2&#45;&gt;Node3</title>
<path fill="none" stroke="midnightblue" d="M363.6,-278.35C314.84,-268.14 242.21,-252.94 197.19,-243.52"/>
<polygon fill="midnightblue" stroke="midnightblue" points="363.11,-281.82 373.62,-280.44 364.55,-274.97 363.11,-281.82"/>
</g>
<!-- Node4 -->
<g id="node4" class="node">
<title>Node4</title>
<g id="a_node4"><a xlink:href="_o_m_sim_m_d_o_m_flasher_8hh.html" target="_top" xlink:title="Defines the mDOMFlasher class for simulating the 10 flashers in an mDOM optical module.">
<polygon fill="none" stroke="black" points="15,-168.5 15,-187.5 150,-187.5 150,-168.5 15,-168.5"/>
<text text-anchor="middle" x="82.5" y="-175.5" font-family="Helvetica,sans-Serif" font-size="10.00">OMSimMDOMFlasher.hh</text>
</a>
</g>
</g>
<!-- Node2&#45;&gt;Node4 -->
<g id="edge3" class="edge">
<title>Node2&#45;&gt;Node4</title>
<path fill="none" stroke="midnightblue" d="M371.78,-277.73C342.98,-269.61 304.38,-257.7 271.5,-244 253.88,-236.66 251.17,-231.2 233.5,-224 195.12,-208.36 149.29,-195.47 118.26,-187.55"/>
<polygon fill="midnightblue" stroke="midnightblue" points="370.96,-281.14 381.53,-280.44 372.84,-274.39 370.96,-281.14"/>
</g>
<!-- Node6 -->
<g id="node6" class="node">
<title>Node6</title>
<g id="a_node6"><a xlink:href="_o_m_sim_m_d_o_m_harness_8hh.html" target="_top" xlink:title="Construction of mDOM harness.">
<polygon fill="none" stroke="black" points="892.5,-224.5 892.5,-243.5 1032.5,-243.5 1032.5,-224.5 892.5,-224.5"/>
<text text-anchor="middle" x="962.5" y="-231.5" font-family="Helvetica,sans-Serif" font-size="10.00">OMSimMDOMHarness.hh</text>
</a>
</g>
</g>
<!-- Node2&#45;&gt;Node6 -->
<g id="edge5" class="edge">
<title>Node2&#45;&gt;Node6</title>
<path fill="none" stroke="midnightblue" d="M498.24,-281.13C591.18,-272.34 745.6,-257.56 878.5,-244 883.02,-243.54 887.68,-243.06 892.38,-242.57"/>
<polygon fill="midnightblue" stroke="midnightblue" points="497.68,-277.67 488.05,-282.1 498.34,-284.64 497.68,-277.67"/>
</g>
<!-- Node7 -->
<g id="node7" class="node">
<title>Node7</title>
<g id="a_node7"><a xlink:href="_o_m_sim_optical_module_8hh_source.html" target="_top" xlink:title=" ">
<polygon fill="none" stroke="black" points="400,-168.5 400,-187.5 537,-187.5 537,-168.5 400,-168.5"/>
<text text-anchor="middle" x="468.5" y="-175.5" font-family="Helvetica,sans-Serif" font-size="10.00">OMSimOpticalModule.hh</text>
</a>
</g>
</g>
<!-- Node2&#45;&gt;Node7 -->
<g id="edge6" class="edge">
<title>Node2&#45;&gt;Node7</title>
<path fill="none" stroke="midnightblue" d="M433.29,-273.42C441.66,-265.47 450.89,-255.14 456.5,-244 465.79,-225.55 467.95,-200.91 468.41,-187.91"/>
<polygon fill="midnightblue" stroke="midnightblue" points="430.77,-270.98 425.66,-280.26 435.44,-276.19 430.77,-270.98"/>
</g>
<!-- Node18 -->
<g id="node18" class="node">
<title>Node18</title>
<g id="a_node18"><a xlink:href="_o_m_sim_rad_decays_detector_8hh.html" target="_top" xlink:title="Defines the OMSimRadDecaysDetector class for the radioactive decays simulation.">
<polygon fill="none" stroke="black" points="723,-56.5 723,-75.5 886,-75.5 886,-56.5 723,-56.5"/>
<text text-anchor="middle" x="804.5" y="-63.5" font-family="Helvetica,sans-Serif" font-size="10.00">OMSimRadDecaysDetector.hh</text>
</a>
</g>
</g>
<!-- Node2&#45;&gt;Node18 -->
<g id="edge37" class="edge">
<title>Node2&#45;&gt;Node18</title>
<path fill="none" stroke="midnightblue" d="M498.59,-285.56C600.16,-276.36 767.13,-243.96 845.5,-132 859.27,-112.33 833.41,-88.18 816.84,-75.58"/>
<polygon fill="midnightblue" stroke="midnightblue" points="498.03,-282.1 488.36,-286.43 498.62,-289.07 498.03,-282.1"/>
</g>
<!-- Node25 -->
<g id="node25" class="node">
<title>Node25</title>
<g id="a_node25"><a xlink:href="_o_m_sim_p_m_t_construction_8hh.html" target="_top" xlink:title="Construction of the PMTs.">
<polygon fill="none" stroke="black" points="280,-224.5 280,-243.5 429,-243.5 429,-224.5 280,-224.5"/>
<text text-anchor="middle" x="354.5" y="-231.5" font-family="Helvetica,sans-Serif" font-size="10.00">OMSimPMTConstruction.hh</text>
</a>
</g>
</g>
<!-- Node2&#45;&gt;Node25 -->
<g id="edge29" class="edge">
<title>Node2&#45;&gt;Node25</title>
<path fill="none" stroke="midnightblue" d="M397.32,-273.54C386.62,-263.91 373.24,-251.87 364.32,-243.83"/>
<polygon fill="midnightblue" stroke="midnightblue" points="395.09,-276.24 404.86,-280.32 399.77,-271.03 395.09,-276.24"/>
</g>
<!-- Node5 -->
<g id="node5" class="node">
<title>Node5</title>
<g id="a_node5"><a xlink:href="_o_m_sim_m_d_o_m_8hh.html" target="_top" xlink:title="Construction of mDOM.">
<polygon fill="none" stroke="black" points="4.5,-112.5 4.5,-131.5 104.5,-131.5 104.5,-112.5 4.5,-112.5"/>
<text text-anchor="middle" x="54.5" y="-119.5" font-family="Helvetica,sans-Serif" font-size="10.00">OMSimMDOM.hh</text>
</a>
</g>
</g>
<!-- Node4&#45;&gt;Node5 -->
<g id="edge4" class="edge">
<title>Node4&#45;&gt;Node5</title>
<path fill="none" stroke="midnightblue" d="M73.16,-158.98C68.41,-149.82 62.84,-139.09 59.04,-131.75"/>
<polygon fill="midnightblue" stroke="midnightblue" points="70.17,-160.82 77.88,-168.08 76.38,-157.59 70.17,-160.82"/>
</g>
<!-- Node7&#45;&gt;Node5 -->
<g id="edge24" class="edge">
<title>Node7&#45;&gt;Node5</title>
<path fill="none" stroke="midnightblue" d="M389.6,-167.48C317.81,-158.71 208.96,-145.09 114.5,-132 111.27,-131.55 107.93,-131.08 104.58,-130.6"/>
<polygon fill="midnightblue" stroke="midnightblue" points="389.56,-171.01 399.91,-168.74 390.41,-164.06 389.56,-171.01"/>
</g>
<!-- Node8 -->
<g id="node8" class="node">
<title>Node8</title>
<g id="a_node8"><a xlink:href="_o_m_sim_d_e_g_g_8hh.html" target="_top" xlink:title="Construction of the DEGG class. From DOUMEKI.">
<polygon fill="none" stroke="black" points="123,-112.5 123,-131.5 218,-131.5 218,-112.5 123,-112.5"/>
<text text-anchor="middle" x="170.5" y="-119.5" font-family="Helvetica,sans-Serif" font-size="10.00">OMSimDEGG.hh</text>
</a>
</g>
</g>
<!-- Node7&#45;&gt;Node8 -->
<g id="edge7" class="edge">
<title>Node7&#45;&gt;Node8</title>
<path fill="none" stroke="midnightblue" d="M411.11,-166.6C354.79,-156.4 269.94,-141.02 217.5,-131.52"/>
<polygon fill="midnightblue" stroke="midnightblue" points="410.82,-170.1 421.28,-168.44 412.07,-163.22 410.82,-170.1"/>
</g>
<!-- Node9 -->
<g id="node9" class="node">
<title>Node9</title>
<g id="a_node9"><a xlink:href="_o_m_sim_detector_construction_8hh_source.html" target="_top" xlink:title=" ">
<polygon fill="none" stroke="black" points="474.5,-112.5 474.5,-131.5 644.5,-131.5 644.5,-112.5 474.5,-112.5"/>
<text text-anchor="middle" x="559.5" y="-119.5" font-family="Helvetica,sans-Serif" font-size="10.00">OMSimDetectorConstruction.hh</text>
</a>
</g>
</g>
<!-- Node7&#45;&gt;Node9 -->
<g id="edge8" class="edge">
<title>Node7&#45;&gt;Node9</title>
<path fill="none" stroke="midnightblue" d="M491.79,-163.18C508.54,-153.24 530.6,-140.15 544.92,-131.65"/>
<polygon fill="midnightblue" stroke="midnightblue" points="489.93,-160.21 483.12,-168.32 493.51,-166.23 489.93,-160.21"/>
</g>
<!-- Node7&#45;&gt;Node18 -->
<g id="edge28" class="edge">
<title>Node7&#45;&gt;Node18</title>
<path fill="none" stroke="midnightblue" d="M524.59,-166.36C561.7,-158.59 611.16,-146.84 653.5,-132 673.39,-125.03 677.21,-120.5 696.5,-112 726.43,-98.81 761.43,-84.41 783.28,-75.54"/>
<polygon fill="midnightblue" stroke="midnightblue" points="523.55,-163 514.46,-168.44 524.96,-169.86 523.55,-163"/>
</g>
<!-- Node20 -->
<g id="node20" class="node">
<title>Node20</title>
<g id="a_node20"><a xlink:href="_o_m_sim_l_o_m16_8hh.html" target="_top" xlink:title="Construction of LOM16.">
<polygon fill="none" stroke="black" points="236,-112.5 236,-131.5 337,-131.5 337,-112.5 236,-112.5"/>
<text text-anchor="middle" x="286.5" y="-119.5" font-family="Helvetica,sans-Serif" font-size="10.00">OMSimLOM16.hh</text>
</a>
</g>
</g>
<!-- Node7&#45;&gt;Node20 -->
<g id="edge21" class="edge">
<title>Node7&#45;&gt;Node20</title>
<path fill="none" stroke="midnightblue" d="M429.97,-165.57C395.64,-155.38 346.17,-140.7 315.2,-131.52"/>
<polygon fill="midnightblue" stroke="midnightblue" points="429.08,-168.95 439.66,-168.44 431.07,-162.24 429.08,-168.95"/>
</g>
<!-- Node21 -->
<g id="node21" class="node">
<title>Node21</title>
<g id="a_node21"><a xlink:href="_o_m_sim_l_o_m18_8hh.html" target="_top" xlink:title="Construction of LOM18.">
<polygon fill="none" stroke="black" points="355,-112.5 355,-131.5 456,-131.5 456,-112.5 355,-112.5"/>
<text text-anchor="middle" x="405.5" y="-119.5" font-family="Helvetica,sans-Serif" font-size="10.00">OMSimLOM18.hh</text>
</a>
</g>
</g>
<!-- Node7&#45;&gt;Node21 -->
<g id="edge22" class="edge">
<title>Node7&#45;&gt;Node21</title>
<path fill="none" stroke="midnightblue" d="M450.46,-161.54C439.23,-151.91 425.18,-139.87 415.81,-131.83"/>
<polygon fill="midnightblue" stroke="midnightblue" points="448.51,-164.47 458.38,-168.32 453.06,-159.16 448.51,-164.47"/>
</g>
<!-- Node23 -->
<g id="node23" class="node">
<title>Node23</title>
<g id="a_node23"><a xlink:href="_o_m_sim_p_d_o_m_8hh.html" target="_top" xlink:title="Implementation of the pDOM/Gen1 DOM class.">
<polygon fill="none" stroke="black" points="739,-112.5 739,-131.5 836,-131.5 836,-112.5 739,-112.5"/>
<text text-anchor="middle" x="787.5" y="-119.5" font-family="Helvetica,sans-Serif" font-size="10.00">OMSimPDOM.hh</text>
</a>
</g>
</g>
<!-- Node7&#45;&gt;Node23 -->
<g id="edge25" class="edge">
<title>Node7&#45;&gt;Node23</title>
<path fill="none" stroke="midnightblue" d="M529.28,-166.71C590.12,-156.41 682.56,-140.76 738.76,-131.25"/>
<polygon fill="midnightblue" stroke="midnightblue" points="528.32,-163.32 519.05,-168.44 529.49,-170.23 528.32,-163.32"/>
</g>
<!-- Node24 -->
<g id="node24" class="node">
<title>Node24</title>
<g id="a_node24"><a xlink:href="_o_m_sim_decays_g_p_s_8hh.html" target="_top" xlink:title="Defines the OMSimDecaysGPS class for the radioactive decays simulation.">
<polygon fill="none" stroke="black" points="904.5,-56.5 904.5,-75.5 1026.5,-75.5 1026.5,-56.5 904.5,-56.5"/>
<text text-anchor="middle" x="965.5" y="-63.5" font-family="Helvetica,sans-Serif" font-size="10.00">OMSimDecaysGPS.hh</text>
</a>
</g>
</g>
<!-- Node7&#45;&gt;Node24 -->
<g id="edge26" class="edge">
<title>Node7&#45;&gt;Node24</title>
<path fill="none" stroke="midnightblue" d="M540.18,-166.86C583.76,-159.59 640.14,-148.19 688.5,-132 708.11,-125.44 710.85,-118.44 730.5,-112 763.56,-101.16 853.96,-85.24 912.52,-75.53"/>
<polygon fill="midnightblue" stroke="midnightblue" points="539.55,-163.41 530.24,-168.48 540.68,-170.32 539.55,-163.41"/>
</g>
<!-- Node10 -->
<g id="node10" class="node">
<title>Node10</title>
<g id="a_node10"><a xlink:href="_o_m_sim_8hh.html" target="_top" xlink:title="Main simulation class for the Optical Module (OM) simulation. This file defines the OMSim class,...">
<polygon fill="none" stroke="black" points="638,-56.5 638,-75.5 705,-75.5 705,-56.5 638,-56.5"/>
<text text-anchor="middle" x="671.5" y="-63.5" font-family="Helvetica,sans-Serif" font-size="10.00">OMSim.hh</text>
</a>
</g>
</g>
<!-- Node9&#45;&gt;Node10 -->
<g id="edge9" class="edge">
<title>Node9&#45;&gt;Node10</title>
<path fill="none" stroke="midnightblue" d="M586.75,-107.86C607.52,-97.85 635.52,-84.35 653.55,-75.65"/>
<polygon fill="midnightblue" stroke="midnightblue" points="584.98,-104.83 577.49,-112.32 588.02,-111.13 584.98,-104.83"/>
</g>
<!-- Node16 -->
<g id="node16" class="node">
<title>Node16</title>
<g id="a_node16"><a xlink:href="effective__area_2include_2_o_m_sim_effective_area_detector_8hh.html" target="_top" xlink:title="Defines the OMSimEffectiveAreaDetector class for effective area simulation detector construction.">
<polygon fill="none" stroke="black" points="117,-56.5 117,-75.5 290,-75.5 290,-56.5 117,-56.5"/>
<text text-anchor="middle" x="203.5" y="-63.5" font-family="Helvetica,sans-Serif" font-size="10.00">OMSimEffectiveAreaDetector.hh</text>
</a>
</g>
</g>
<!-- Node9&#45;&gt;Node16 -->
<g id="edge15" class="edge">
<title>Node9&#45;&gt;Node16</title>
<path fill="none" stroke="midnightblue" d="M493.02,-110.92C425.77,-100.71 322.94,-85.12 259.65,-75.52"/>
<polygon fill="midnightblue" stroke="midnightblue" points="492.68,-114.4 503.09,-112.44 493.73,-107.48 492.68,-114.4"/>
</g>
<!-- Node17 -->
<g id="node17" class="node">
<title>Node17</title>
<g id="a_node17"><a xlink:href="_q_e__calibration_2include_2_o_m_sim_effective_area_detector_8hh.html" target="_top" xlink:title="Defines the OMSimEffectiveAreaDetector class for effective area simulation detector construction.">
<polygon fill="none" stroke="black" points="308,-56.5 308,-75.5 481,-75.5 481,-56.5 308,-56.5"/>
<text text-anchor="middle" x="394.5" y="-63.5" font-family="Helvetica,sans-Serif" font-size="10.00">OMSimEffectiveAreaDetector.hh</text>
</a>
</g>
</g>
<!-- Node9&#45;&gt;Node17 -->
<g id="edge16" class="edge">
<title>Node9&#45;&gt;Node17</title>
<path fill="none" stroke="midnightblue" d="M523.76,-109.3C492.67,-99.13 448.35,-84.62 420.52,-75.52"/>
<polygon fill="midnightblue" stroke="midnightblue" points="522.76,-112.66 533.36,-112.44 524.94,-106.01 522.76,-112.66"/>
</g>
<!-- Node9&#45;&gt;Node18 -->
<g id="edge17" class="edge">
<title>Node9&#45;&gt;Node18</title>
<path fill="none" stroke="midnightblue" d="M608.13,-110.28C654.43,-100.08 723.19,-84.92 765.86,-75.52"/>
<polygon fill="midnightblue" stroke="midnightblue" points="607.33,-106.87 598.32,-112.44 608.84,-113.71 607.33,-106.87"/>
</g>
<!-- Node19 -->
<g id="node19" class="node">
<title>Node19</title>
<g id="a_node19"><a xlink:href="_o_m_sim_s_ndetector_8hh_source.html" target="_top" xlink:title=" ">
<polygon fill="none" stroke="black" points="499.5,-56.5 499.5,-75.5 619.5,-75.5 619.5,-56.5 499.5,-56.5"/>
<text text-anchor="middle" x="559.5" y="-63.5" font-family="Helvetica,sans-Serif" font-size="10.00">OMSimSNdetector.hh</text>
</a>
</g>
</g>
<!-- Node9&#45;&gt;Node19 -->
<g id="edge19" class="edge">
<title>Node9&#45;&gt;Node19</title>
<path fill="none" stroke="midnightblue" d="M559.5,-101.8C559.5,-92.91 559.5,-82.78 559.5,-75.75"/>
<polygon fill="midnightblue" stroke="midnightblue" points="556,-102.08 559.5,-112.08 563,-102.08 556,-102.08"/>
</g>
<!-- Node11 -->
<g id="node11" class="node">
<title>Node11</title>
<g id="a_node11"><a xlink:href="_o_m_sim_8cc.html" target="_top" xlink:title="Implementation of the OMSim class.">
<polygon fill="none" stroke="black" points="780,-0.5 780,-19.5 845,-19.5 845,-0.5 780,-0.5"/>
<text text-anchor="middle" x="812.5" y="-7.5" font-family="Helvetica,sans-Serif" font-size="10.00">OMSim.cc</text>
</a>
</g>
</g>
<!-- Node10&#45;&gt;Node11 -->
<g id="edge10" class="edge">
<title>Node10&#45;&gt;Node11</title>
<path fill="none" stroke="midnightblue" d="M703.43,-52.77C729.91,-42.63 766.89,-28.47 790.26,-19.52"/>
<polygon fill="midnightblue" stroke="midnightblue" points="701.93,-49.6 693.84,-56.44 704.43,-56.14 701.93,-49.6"/>
</g>
<!-- Node12 -->
<g id="node12" class="node">
<title>Node12</title>
<g id="a_node12"><a xlink:href="_o_m_sim__effective__area_8cc.html" target="_top" xlink:title="Main for the calculation of effective areas.">
<polygon fill="none" stroke="black" points="462.5,-0.5 462.5,-19.5 602.5,-19.5 602.5,-0.5 462.5,-0.5"/>
<text text-anchor="middle" x="532.5" y="-7.5" font-family="Helvetica,sans-Serif" font-size="10.00">OMSim_effective_area.cc</text>
</a>
</g>
</g>
<!-- Node10&#45;&gt;Node12 -->
<g id="edge11" class="edge">
<title>Node10&#45;&gt;Node12</title>
<path fill="none" stroke="midnightblue" d="M640.02,-52.77C613.91,-42.63 577.46,-28.47 554.42,-19.52"/>
<polygon fill="midnightblue" stroke="midnightblue" points="638.89,-56.08 649.48,-56.44 641.42,-49.56 638.89,-56.08"/>
</g>
<!-- Node13 -->
<g id="node13" class="node">
<title>Node13</title>
<g id="a_node13"><a xlink:href="_o_m_sim___q_e__calibration_8cc.html" target="_top" xlink:title="Main for the calculation of effective areas.">
<polygon fill="none" stroke="black" points="621,-0.5 621,-19.5 762,-19.5 762,-0.5 621,-0.5"/>
<text text-anchor="middle" x="691.5" y="-7.5" font-family="Helvetica,sans-Serif" font-size="10.00">OMSim_QE_calibration.cc</text>
</a>
</g>
</g>
<!-- Node10&#45;&gt;Node13 -->
<g id="edge12" class="edge">
<title>Node10&#45;&gt;Node13</title>
<path fill="none" stroke="midnightblue" d="M678.28,-46.69C681.65,-37.59 685.57,-27.01 688.26,-19.75"/>
<polygon fill="midnightblue" stroke="midnightblue" points="674.99,-45.49 674.8,-56.08 681.56,-47.92 674.99,-45.49"/>
</g>
<!-- Node14 -->
<g id="node14" class="node">
<title>Node14</title>
<g id="a_node14"><a xlink:href="_o_m_sim__radioactive__decays_8cc.html" target="_top" xlink:title="Main of the radioactive decay study.">
<polygon fill="none" stroke="black" points="863,-0.5 863,-19.5 1028,-19.5 1028,-0.5 863,-0.5"/>
<text text-anchor="middle" x="945.5" y="-7.5" font-family="Helvetica,sans-Serif" font-size="10.00">OMSim_radioactive_decays.cc</text>
</a>
</g>
</g>
<!-- Node10&#45;&gt;Node14 -->
<g id="edge13" class="edge">
<title>Node10&#45;&gt;Node14</title>
<path fill="none" stroke="midnightblue" d="M715.25,-55.87C785.86,-41.64 856.28,-28.04 900.75,-19.53"/>
<polygon fill="midnightblue" stroke="midnightblue" points="714.4,-52.47 705.29,-57.88 715.79,-59.33 714.4,-52.47"/>
</g>
<!-- Node15 -->
<g id="node15" class="node">
<title>Node15</title>
<g id="a_node15"><a xlink:href="_o_m_sim__supernova_8cc.html" target="_top" xlink:title="Main of the supernova study.">
<polygon fill="none" stroke="black" points="322.5,-0.5 322.5,-19.5 444.5,-19.5 444.5,-0.5 322.5,-0.5"/>
<text text-anchor="middle" x="383.5" y="-7.5" font-family="Helvetica,sans-Serif" font-size="10.00">OMSim_supernova.cc</text>
</a>
</g>
</g>
<!-- Node10&#45;&gt;Node15 -->
<g id="edge14" class="edge">
<title>Node10&#45;&gt;Node15</title>
<path fill="none" stroke="midnightblue" d="M627.74,-55.89C553.66,-41.4 479.26,-27.95 431.91,-19.53"/>
<polygon fill="midnightblue" stroke="midnightblue" points="627.23,-59.36 637.71,-57.85 628.58,-52.49 627.23,-59.36"/>
</g>
<!-- Node18&#45;&gt;Node14 -->
<g id="edge18" class="edge">
<title>Node18&#45;&gt;Node14</title>
<path fill="none" stroke="midnightblue" d="M836.43,-52.77C862.91,-42.63 899.89,-28.47 923.26,-19.52"/>
<polygon fill="midnightblue" stroke="midnightblue" points="834.93,-49.6 826.84,-56.44 837.43,-56.14 834.93,-49.6"/>
</g>
<!-- Node19&#45;&gt;Node15 -->
<g id="edge20" class="edge">
<title>Node19&#45;&gt;Node15</title>
<path fill="none" stroke="midnightblue" d="M521.81,-53.44C488.63,-43.26 441.07,-28.66 411.26,-19.52"/>
<polygon fill="midnightblue" stroke="midnightblue" points="521.03,-56.86 531.61,-56.44 523.08,-50.16 521.03,-56.86"/>
</g>
<!-- Node22 -->
<g id="node22" class="node">
<title>Node22</title>
<g id="a_node22"><a xlink:href="_o_m_sim_l_o_m18_8cc.html" target="_top" xlink:title=" ">
<polygon fill="none" stroke="black" points="0,-56.5 0,-75.5 99,-75.5 99,-56.5 0,-56.5"/>
<text text-anchor="middle" x="49.5" y="-63.5" font-family="Helvetica,sans-Serif" font-size="10.00">OMSimLOM18.cc</text>
</a>
</g>
</g>
<!-- Node21&#45;&gt;Node22 -->
<g id="edge23" class="edge">
<title>Node21&#45;&gt;Node22</title>
<path fill="none" stroke="midnightblue" d="M344.83,-111.75C239.06,-95.69 211.07,-91.58 108.5,-76 105.43,-75.53 102.26,-75.05 99.07,-74.57"/>
<polygon fill="midnightblue" stroke="midnightblue" points="344.56,-115.25 354.97,-113.29 345.61,-108.33 344.56,-115.25"/>
</g>
<!-- Node24&#45;&gt;Node14 -->
<g id="edge27" class="edge">
<title>Node24&#45;&gt;Node14</title>
<path fill="none" stroke="midnightblue" d="M958.72,-46.69C955.35,-37.59 951.43,-27.01 948.74,-19.75"/>
<polygon fill="midnightblue" stroke="midnightblue" points="955.44,-47.92 962.2,-56.08 962.01,-45.49 955.44,-47.92"/>
</g>
<!-- Node25&#45;&gt;Node5 -->
<g id="edge33" class="edge">
<title>Node25&#45;&gt;Node5</title>
<path fill="none" stroke="midnightblue" d="M321.4,-220.86C260.25,-198.44 130.95,-151.03 77.93,-131.59"/>
<polygon fill="midnightblue" stroke="midnightblue" points="320.37,-224.21 330.96,-224.37 322.78,-217.64 320.37,-224.21"/>
</g>
<!-- Node25&#45;&gt;Node7 -->
<g id="edge34" class="edge">
<title>Node25&#45;&gt;Node7</title>
<path fill="none" stroke="midnightblue" d="M381.74,-220.1C403.04,-210.01 432.04,-196.27 450.52,-187.52"/>
<polygon fill="midnightblue" stroke="midnightblue" points="380.1,-217 372.56,-224.44 383.1,-223.33 380.1,-217"/>
</g>
<!-- Node25&#45;&gt;Node8 -->
<g id="edge30" class="edge">
<title>Node25&#45;&gt;Node8</title>
<path fill="none" stroke="midnightblue" d="M331.1,-219.01C292.47,-195.92 216.52,-150.51 184.87,-131.59"/>
<polygon fill="midnightblue" stroke="midnightblue" points="329.68,-222.24 340.06,-224.37 333.27,-216.23 329.68,-222.24"/>
</g>
<!-- Node25&#45;&gt;Node20 -->
<g id="edge31" class="edge">
<title>Node25&#45;&gt;Node20</title>
<path fill="none" stroke="midnightblue" d="M343.77,-215.64C329,-191.74 302.96,-149.63 291.81,-131.59"/>
<polygon fill="midnightblue" stroke="midnightblue" points="340.93,-217.7 349.16,-224.37 346.88,-214.02 340.93,-217.7"/>
</g>
<!-- Node25&#45;&gt;Node21 -->
<g id="edge32" class="edge">
<title>Node25&#45;&gt;Node21</title>
<path fill="none" stroke="midnightblue" d="M362.85,-215C373.97,-191 393.23,-149.47 401.52,-131.59"/>
<polygon fill="midnightblue" stroke="midnightblue" points="359.53,-213.82 358.5,-224.37 365.88,-216.77 359.53,-213.82"/>
</g>
<!-- Node25&#45;&gt;Node23 -->
<g id="edge35" class="edge">
<title>Node25&#45;&gt;Node23</title>
<path fill="none" stroke="midnightblue" d="M402.47,-222.22C441.38,-213.37 497.59,-200.32 546.5,-188 622.56,-168.84 711.54,-144.28 757.15,-131.53"/>
<polygon fill="midnightblue" stroke="midnightblue" points="401.45,-218.86 392.48,-224.49 403,-225.69 401.45,-218.86"/>
</g>
<!-- Node25&#45;&gt;Node25 -->
<g id="edge36" class="edge">
<title>Node25&#45;&gt;Node25</title>
<path fill="none" stroke="midnightblue" d="M403.93,-244.29C426.91,-245.42 447,-241.99 447,-234 447,-224.87 420.76,-221.69 393.95,-224.47"/>
<polygon fill="midnightblue" stroke="midnightblue" points="404.19,-240.8 393.95,-243.53 403.65,-247.78 404.19,-240.8"/>
</g>
</g>
</svg>
