<?xml version="1.0" encoding="UTF-8" standalone="no"?>
<!DOCTYPE svg PUBLIC "-//W3C//DTD SVG 1.1//EN"
 "http://www.w3.org/Graphics/SVG/1.1/DTD/svg11.dtd">
<!-- Generated by graphviz version 2.43.0 (0)
 -->
<!-- Title: OMSimEffectiveAreaDetector.cc Pages: 1 -->
<svg width="1632pt" height="498pt"
 viewBox="0.00 0.00 1632.00 498.00" xmlns="http://www.w3.org/2000/svg" xmlns:xlink="http://www.w3.org/1999/xlink">
<g id="graph0" class="graph" transform="scale(1 1) rotate(0) translate(4 494)">
<title>OMSimEffectiveAreaDetector.cc</title>
<polygon fill="white" stroke="transparent" points="-4,4 -4,-494 1628,-494 1628,4 -4,4"/>
<!-- Node1 -->
<g id="node1" class="node">
<title>Node1</title>
<g id="a_node1"><a xlink:title=" ">
<polygon fill="#bfbfbf" stroke="black" points="791.5,-470.5 791.5,-489.5 963.5,-489.5 963.5,-470.5 791.5,-470.5"/>
<text text-anchor="middle" x="877.5" y="-477.5" font-family="Helvetica,sans-Serif" font-size="10.00">OMSimEffectiveAreaDetector.cc</text>
</a>
</g>
</g>
<!-- Node2 -->
<g id="node2" class="node">
<title>Node2</title>
<g id="a_node2"><a xlink:href="_o_m_sim_effective_area_detector_8hh.html" target="_top" xlink:title="Defines the OMSimEffectiveAreaDetector class for effective area simulation detector construction.">
<polygon fill="white" stroke="black" points="841,-414.5 841,-433.5 1014,-433.5 1014,-414.5 841,-414.5"/>
<text text-anchor="middle" x="927.5" y="-421.5" font-family="Helvetica,sans-Serif" font-size="10.00">OMSimEffectiveAreaDetector.hh</text>
</a>
</g>
</g>
<!-- Node1&#45;&gt;Node2 -->
<g id="edge1" class="edge">
<title>Node1&#45;&gt;Node2</title>
<path fill="none" stroke="midnightblue" d="M885.76,-470.08C892.96,-462.3 903.61,-450.8 912.35,-441.37"/>
<polygon fill="midnightblue" stroke="midnightblue" points="915.17,-443.47 919.4,-433.75 910.03,-438.71 915.17,-443.47"/>
</g>
<!-- Node19 -->
<g id="node19" class="node">
<title>Node19</title>
<g id="a_node19"><a xlink:href="_o_m_sim_hit_manager_8hh.html" target="_top" xlink:title="Defines structures and classes related to optical module photon hit management.">
<polygon fill="white" stroke="black" points="834,-246.5 834,-265.5 957,-265.5 957,-246.5 834,-246.5"/>
<text text-anchor="middle" x="895.5" y="-253.5" font-family="Helvetica,sans-Serif" font-size="10.00">OMSimHitManager.hh</text>
</a>
</g>
</g>
<!-- Node1&#45;&gt;Node19 -->
<g id="edge63" class="edge">
<title>Node1&#45;&gt;Node19</title>
<path fill="none" stroke="midnightblue" d="M963.76,-472.21C992.25,-465.99 1022.09,-454.6 1043.5,-434 1081.07,-397.83 1070.63,-373.55 1078.5,-322 1079.84,-313.21 1083.98,-309 1078.5,-302 1064.57,-284.23 1012.44,-272.53 967.36,-265.54"/>
<polygon fill="midnightblue" stroke="midnightblue" points="967.69,-262.04 957.28,-264.03 966.65,-268.97 967.69,-262.04"/>
</g>
<!-- Node32 -->
<g id="node32" class="node">
<title>Node32</title>
<g id="a_node32"><a xlink:title=" ">
<polygon fill="white" stroke="#bfbfbf" points="1007.5,-302.5 1007.5,-321.5 1069.5,-321.5 1069.5,-302.5 1007.5,-302.5"/>
<text text-anchor="middle" x="1038.5" y="-309.5" font-family="Helvetica,sans-Serif" font-size="10.00">G4Orb.hh</text>
</a>
</g>
</g>
<!-- Node1&#45;&gt;Node32 -->
<g id="edge64" class="edge">
<title>Node1&#45;&gt;Node32</title>
<path fill="none" stroke="midnightblue" d="M950.3,-470.46C975.97,-464.12 1003.21,-453.1 1022.5,-434 1049.64,-407.13 1046.5,-358.11 1042.26,-331.45"/>
<polygon fill="midnightblue" stroke="midnightblue" points="1045.68,-330.75 1040.46,-321.53 1038.8,-331.99 1045.68,-330.75"/>
</g>
<!-- Node34 -->
<g id="node34" class="node">
<title>Node34</title>
<g id="a_node34"><a xlink:href="_o_m_sim_p_d_o_m_8hh.html" target="_top" xlink:title="Implementation of the pDOM/Gen1 DOM class.">
<polygon fill="white" stroke="black" points="78,-358.5 78,-377.5 175,-377.5 175,-358.5 78,-358.5"/>
<text text-anchor="middle" x="126.5" y="-365.5" font-family="Helvetica,sans-Serif" font-size="10.00">OMSimPDOM.hh</text>
</a>
</g>
</g>
<!-- Node1&#45;&gt;Node34 -->
<g id="edge37" class="edge">
<title>Node1&#45;&gt;Node34</title>
<path fill="none" stroke="midnightblue" d="M791.31,-475.72C690.5,-470.86 518.88,-459.43 373.5,-434 297.25,-420.66 210.12,-395.29 162.42,-380.49"/>
<polygon fill="midnightblue" stroke="midnightblue" points="163.45,-377.15 152.86,-377.51 161.36,-383.83 163.45,-377.15"/>
</g>
<!-- Node35 -->
<g id="node35" class="node">
<title>Node35</title>
<g id="a_node35"><a xlink:href="_o_m_sim_l_o_m16_8hh.html" target="_top" xlink:title="Construction of LOM16.">
<polygon fill="white" stroke="black" points="193,-358.5 193,-377.5 294,-377.5 294,-358.5 193,-358.5"/>
<text text-anchor="middle" x="243.5" y="-365.5" font-family="Helvetica,sans-Serif" font-size="10.00">OMSimLOM16.hh</text>
</a>
</g>
</g>
<!-- Node1&#45;&gt;Node35 -->
<g id="edge40" class="edge">
<title>Node1&#45;&gt;Node35</title>
<path fill="none" stroke="midnightblue" d="M791.27,-474.83C704.86,-469.5 568.4,-457.92 452.5,-434 388.52,-420.8 316.21,-396.01 275.61,-381.15"/>
<polygon fill="midnightblue" stroke="midnightblue" points="276.6,-377.79 266,-377.6 274.17,-384.35 276.6,-377.79"/>
</g>
<!-- Node36 -->
<g id="node36" class="node">
<title>Node36</title>
<g id="a_node36"><a xlink:href="_o_m_sim_l_o_m18_8hh.html" target="_top" xlink:title="Construction of LOM18.">
<polygon fill="white" stroke="black" points="501,-414.5 501,-433.5 602,-433.5 602,-414.5 501,-414.5"/>
<text text-anchor="middle" x="551.5" y="-421.5" font-family="Helvetica,sans-Serif" font-size="10.00">OMSimLOM18.hh</text>
</a>
</g>
</g>
<!-- Node1&#45;&gt;Node36 -->
<g id="edge43" class="edge">
<title>Node1&#45;&gt;Node36</title>
<path fill="none" stroke="midnightblue" d="M825.84,-470.44C767.77,-460.82 673.56,-445.22 612.06,-435.03"/>
<polygon fill="midnightblue" stroke="midnightblue" points="612.55,-431.56 602.11,-433.38 611.4,-438.47 612.55,-431.56"/>
</g>
<!-- Node37 -->
<g id="node37" class="node">
<title>Node37</title>
<g id="a_node37"><a xlink:title=" ">
<polygon fill="white" stroke="#bfbfbf" points="613.5,-358.5 613.5,-377.5 729.5,-377.5 729.5,-358.5 613.5,-358.5"/>
<text text-anchor="middle" x="671.5" y="-365.5" font-family="Helvetica,sans-Serif" font-size="10.00">G4LogicalVolume.hh</text>
</a>
</g>
</g>
<!-- Node1&#45;&gt;Node37 -->
<g id="edge71" class="edge">
<title>Node1&#45;&gt;Node37</title>
<path fill="none" stroke="midnightblue" d="M861.34,-470.37C825.53,-451.25 739.35,-405.23 696.52,-382.36"/>
<polygon fill="midnightblue" stroke="midnightblue" points="698.06,-379.21 687.59,-377.59 694.76,-385.39 698.06,-379.21"/>
</g>
<!-- Node39 -->
<g id="node39" class="node">
<title>Node39</title>
<g id="a_node39"><a xlink:href="_o_m_sim_d_e_g_g_8hh.html" target="_top" xlink:title="Construction of the DEGG class. From DOUMEKI.">
<polygon fill="white" stroke="black" points="748,-358.5 748,-377.5 843,-377.5 843,-358.5 748,-358.5"/>
<text text-anchor="middle" x="795.5" y="-365.5" font-family="Helvetica,sans-Serif" font-size="10.00">OMSimDEGG.hh</text>
</a>
</g>
</g>
<!-- Node1&#45;&gt;Node39 -->
<g id="edge48" class="edge">
<title>Node1&#45;&gt;Node39</title>
<path fill="none" stroke="midnightblue" d="M867.14,-470.44C857.21,-461.89 842.2,-448.04 831.5,-434 820.29,-419.28 810.34,-400.65 803.76,-387.11"/>
<polygon fill="midnightblue" stroke="midnightblue" points="806.84,-385.45 799.41,-377.9 800.51,-388.44 806.84,-385.45"/>
</g>
<!-- Node40 -->
<g id="node40" class="node">
<title>Node40</title>
<g id="a_node40"><a xlink:href="_o_m_sim_m_d_o_m_8hh.html" target="_top" xlink:title="Construction of mDOM.">
<polygon fill="white" stroke="black" points="350.5,-358.5 350.5,-377.5 450.5,-377.5 450.5,-358.5 350.5,-358.5"/>
<text text-anchor="middle" x="400.5" y="-365.5" font-family="Helvetica,sans-Serif" font-size="10.00">OMSimMDOM.hh</text>
</a>
</g>
</g>
<!-- Node1&#45;&gt;Node40 -->
<g id="edge51" class="edge">
<title>Node1&#45;&gt;Node40</title>
<path fill="none" stroke="midnightblue" d="M791.2,-473.96C694.53,-467.44 544.45,-454.43 491.5,-434 462.23,-422.71 433.66,-399.78 416.57,-384.4"/>
<polygon fill="midnightblue" stroke="midnightblue" points="418.86,-381.76 409.14,-377.54 414.11,-386.9 418.86,-381.76"/>
</g>
<!-- Node43 -->
<g id="node43" class="node">
<title>Node43</title>
<g id="a_node43"><a xlink:href="_o_m_sim_command_args_table_8hh.html" target="_top" xlink:title="Definition of the OMSimCommandArgsTable singleton class, which controls user args.">
<polygon fill="white" stroke="black" points="1053.5,-246.5 1053.5,-265.5 1217.5,-265.5 1217.5,-246.5 1053.5,-246.5"/>
<text text-anchor="middle" x="1135.5" y="-253.5" font-family="Helvetica,sans-Serif" font-size="10.00">OMSimCommandArgsTable.hh</text>
</a>
</g>
</g>
<!-- Node1&#45;&gt;Node43 -->
<g id="edge58" class="edge">
<title>Node1&#45;&gt;Node43</title>
<path fill="none" stroke="midnightblue" d="M963.51,-475.67C998.94,-470.27 1038.23,-458.55 1066.5,-434 1114.81,-392.05 1129.53,-312.03 1133.82,-275.73"/>
<polygon fill="midnightblue" stroke="midnightblue" points="1137.32,-275.9 1134.88,-265.59 1130.36,-275.17 1137.32,-275.9"/>
</g>
<!-- Node46 -->
<g id="node46" class="node">
<title>Node46</title>
<g id="a_node46"><a xlink:href="_o_m_sim_sensitive_detector_8hh.html" target="_top" xlink:title=" ">
<polygon fill="white" stroke="black" points="1276,-246.5 1276,-265.5 1429,-265.5 1429,-246.5 1276,-246.5"/>
<text text-anchor="middle" x="1352.5" y="-253.5" font-family="Helvetica,sans-Serif" font-size="10.00">OMSimSensitiveDetector.hh</text>
</a>
</g>
</g>
<!-- Node1&#45;&gt;Node46 -->
<g id="edge65" class="edge">
<title>Node1&#45;&gt;Node46</title>
<path fill="none" stroke="midnightblue" d="M951.23,-470.44C992.98,-463.86 1045.5,-452.64 1089.5,-434 1191.22,-390.9 1295.11,-306.57 1335.24,-272.17"/>
<polygon fill="midnightblue" stroke="midnightblue" points="1337.54,-274.8 1342.81,-265.61 1332.96,-269.51 1337.54,-274.8"/>
</g>
<!-- Node49 -->
<g id="node49" class="node">
<title>Node49</title>
<g id="a_node49"><a xlink:title=" ">
<polygon fill="white" stroke="#bfbfbf" points="1201.5,-414.5 1201.5,-433.5 1265.5,-433.5 1265.5,-414.5 1201.5,-414.5"/>
<text text-anchor="middle" x="1233.5" y="-421.5" font-family="Helvetica,sans-Serif" font-size="10.00">G4Box.hh</text>
</a>
</g>
</g>
<!-- Node1&#45;&gt;Node49 -->
<g id="edge72" class="edge">
<title>Node1&#45;&gt;Node49</title>
<path fill="none" stroke="midnightblue" d="M942.66,-470.49C1005.49,-462.06 1103.2,-448.36 1187.5,-434 1188.76,-433.78 1190.05,-433.56 1191.34,-433.33"/>
<polygon fill="midnightblue" stroke="midnightblue" points="1192.16,-436.74 1201.37,-431.5 1190.9,-429.86 1192.16,-436.74"/>
</g>
<!-- Node3 -->
<g id="node3" class="node">
<title>Node3</title>
<g id="a_node3"><a xlink:href="_o_m_sim_detector_construction_8hh.html" target="_top" xlink:title=" ">
<polygon fill="white" stroke="black" points="861.5,-358.5 861.5,-377.5 1031.5,-377.5 1031.5,-358.5 861.5,-358.5"/>
<text text-anchor="middle" x="946.5" y="-365.5" font-family="Helvetica,sans-Serif" font-size="10.00">OMSimDetectorConstruction.hh</text>
</a>
</g>
</g>
<!-- Node2&#45;&gt;Node3 -->
<g id="edge2" class="edge">
<title>Node2&#45;&gt;Node3</title>
<path fill="none" stroke="midnightblue" d="M930.64,-414.08C933.18,-406.85 936.86,-396.41 940.03,-387.4"/>
<polygon fill="midnightblue" stroke="midnightblue" points="943.4,-388.35 943.42,-377.75 936.8,-386.02 943.4,-388.35"/>
</g>
<!-- Node4 -->
<g id="node4" class="node">
<title>Node4</title>
<g id="a_node4"><a xlink:href="_o_m_sim_optical_module_8hh.html" target="_top" xlink:title=" ">
<polygon fill="white" stroke="black" points="429,-302.5 429,-321.5 566,-321.5 566,-302.5 429,-302.5"/>
<text text-anchor="middle" x="497.5" y="-309.5" font-family="Helvetica,sans-Serif" font-size="10.00">OMSimOpticalModule.hh</text>
</a>
</g>
</g>
<!-- Node3&#45;&gt;Node4 -->
<g id="edge3" class="edge">
<title>Node3&#45;&gt;Node4</title>
<path fill="none" stroke="midnightblue" d="M875.35,-358.44C793.85,-348.64 660.69,-332.63 576.16,-322.46"/>
<polygon fill="midnightblue" stroke="midnightblue" points="576.45,-318.97 566.1,-321.25 575.61,-325.92 576.45,-318.97"/>
</g>
<!-- Node3&#45;&gt;Node32 -->
<g id="edge35" class="edge">
<title>Node3&#45;&gt;Node32</title>
<path fill="none" stroke="midnightblue" d="M961.28,-358.32C975.77,-349.82 998.07,-336.73 1014.99,-326.8"/>
<polygon fill="midnightblue" stroke="midnightblue" points="1016.9,-329.74 1023.76,-321.65 1013.36,-323.7 1016.9,-329.74"/>
</g>
<!-- Node33 -->
<g id="node33" class="node">
<title>Node33</title>
<g id="a_node33"><a xlink:title=" ">
<polygon fill="white" stroke="#bfbfbf" points="811.5,-302.5 811.5,-321.5 989.5,-321.5 989.5,-302.5 811.5,-302.5"/>
<text text-anchor="middle" x="900.5" y="-309.5" font-family="Helvetica,sans-Serif" font-size="10.00">G4VUserDetectorConstruction.hh</text>
</a>
</g>
</g>
<!-- Node3&#45;&gt;Node33 -->
<g id="edge36" class="edge">
<title>Node3&#45;&gt;Node33</title>
<path fill="none" stroke="midnightblue" d="M938.9,-358.08C932.27,-350.3 922.48,-338.8 914.44,-329.37"/>
<polygon fill="midnightblue" stroke="midnightblue" points="917.1,-327.09 907.95,-321.75 911.77,-331.63 917.1,-327.09"/>
</g>
<!-- Node5 -->
<g id="node5" class="node">
<title>Node5</title>
<g id="a_node5"><a xlink:href="abc_detector_component_8hh.html" target="_top" xlink:title="Provides helper base class abcDetectorComponent for constructing and managing detector components in ...">
<polygon fill="white" stroke="black" points="311,-190.5 311,-209.5 458,-209.5 458,-190.5 311,-190.5"/>
<text text-anchor="middle" x="384.5" y="-197.5" font-family="Helvetica,sans-Serif" font-size="10.00">abcDetectorComponent.hh</text>
</a>
</g>
</g>
<!-- Node4&#45;&gt;Node5 -->
<g id="edge4" class="edge">
<title>Node4&#45;&gt;Node5</title>
<path fill="none" stroke="midnightblue" d="M500.39,-302.11C504.16,-288.68 509.03,-263 497.5,-246 486.45,-229.7 468.46,-219.31 450.04,-212.68"/>
<polygon fill="midnightblue" stroke="midnightblue" points="451.01,-209.31 440.41,-209.54 448.84,-215.97 451.01,-209.31"/>
</g>
<!-- Node4&#45;&gt;Node19 -->
<g id="edge18" class="edge">
<title>Node4&#45;&gt;Node19</title>
<path fill="none" stroke="midnightblue" d="M560.56,-302.44C632.06,-292.74 748.38,-276.96 823.41,-266.78"/>
<polygon fill="midnightblue" stroke="midnightblue" points="824.27,-270.2 833.71,-265.38 823.33,-263.26 824.27,-270.2"/>
</g>
<!-- Node29 -->
<g id="node29" class="node">
<title>Node29</title>
<g id="a_node29"><a xlink:href="_o_m_sim_p_m_t_construction_8hh.html" target="_top" xlink:title="Construction of the PMTs.">
<polygon fill="white" stroke="black" points="169,-246.5 169,-265.5 318,-265.5 318,-246.5 169,-246.5"/>
<text text-anchor="middle" x="243.5" y="-253.5" font-family="Helvetica,sans-Serif" font-size="10.00">OMSimPMTConstruction.hh</text>
</a>
</g>
</g>
<!-- Node4&#45;&gt;Node29 -->
<g id="edge29" class="edge">
<title>Node4&#45;&gt;Node29</title>
<path fill="none" stroke="midnightblue" d="M457.25,-302.44C412.85,-293 341.35,-277.8 293.41,-267.61"/>
<polygon fill="midnightblue" stroke="midnightblue" points="294.07,-264.17 283.56,-265.52 292.61,-271.02 294.07,-264.17"/>
</g>
<!-- Node6 -->
<g id="node6" class="node">
<title>Node6</title>
<g id="a_node6"><a xlink:href="_o_m_sim_input_data_8hh.html" target="_top" xlink:title="Definition of ParameterTable and InputDataManager.">
<polygon fill="white" stroke="black" points="562,-134.5 562,-153.5 677,-153.5 677,-134.5 562,-134.5"/>
<text text-anchor="middle" x="619.5" y="-141.5" font-family="Helvetica,sans-Serif" font-size="10.00">OMSimInputData.hh</text>
</a>
</g>
</g>
<!-- Node5&#45;&gt;Node6 -->
<g id="edge5" class="edge">
<title>Node5&#45;&gt;Node6</title>
<path fill="none" stroke="midnightblue" d="M421.74,-190.44C462.56,-181.06 528.14,-165.99 572.48,-155.8"/>
<polygon fill="midnightblue" stroke="midnightblue" points="573.48,-159.17 582.44,-153.52 571.91,-152.34 573.48,-159.17"/>
</g>
<!-- Node15 -->
<g id="node15" class="node">
<title>Node15</title>
<g id="a_node15"><a xlink:title=" ">
<polygon fill="white" stroke="#bfbfbf" points="272,-134.5 272,-153.5 379,-153.5 379,-134.5 272,-134.5"/>
<text text-anchor="middle" x="325.5" y="-141.5" font-family="Helvetica,sans-Serif" font-size="10.00">G4Transform3D.hh</text>
</a>
</g>
</g>
<!-- Node5&#45;&gt;Node15 -->
<g id="edge14" class="edge">
<title>Node5&#45;&gt;Node15</title>
<path fill="none" stroke="midnightblue" d="M375.02,-190.32C366.3,-182.34 353.16,-170.31 342.6,-160.65"/>
<polygon fill="midnightblue" stroke="midnightblue" points="344.89,-158 335.15,-153.83 340.17,-163.17 344.89,-158"/>
</g>
<!-- Node16 -->
<g id="node16" class="node">
<title>Node16</title>
<g id="a_node16"><a xlink:title=" ">
<polygon fill="white" stroke="#bfbfbf" points="397.5,-134.5 397.5,-153.5 505.5,-153.5 505.5,-134.5 397.5,-134.5"/>
<text text-anchor="middle" x="451.5" y="-141.5" font-family="Helvetica,sans-Serif" font-size="10.00">G4VisAttributes.hh</text>
</a>
</g>
</g>
<!-- Node5&#45;&gt;Node16 -->
<g id="edge15" class="edge">
<title>Node5&#45;&gt;Node16</title>
<path fill="none" stroke="midnightblue" d="M395.26,-190.32C405.27,-182.26 420.39,-170.08 432.43,-160.37"/>
<polygon fill="midnightblue" stroke="midnightblue" points="434.95,-162.83 440.54,-153.83 430.56,-157.38 434.95,-162.83"/>
</g>
<!-- Node17 -->
<g id="node17" class="node">
<title>Node17</title>
<g id="a_node17"><a xlink:title=" ">
<polygon fill="white" stroke="#bfbfbf" points="0,-134.5 0,-153.5 125,-153.5 125,-134.5 0,-134.5"/>
<text text-anchor="middle" x="62.5" y="-141.5" font-family="Helvetica,sans-Serif" font-size="10.00">G4SubtractionSolid.hh</text>
</a>
</g>
</g>
<!-- Node5&#45;&gt;Node17 -->
<g id="edge16" class="edge">
<title>Node5&#45;&gt;Node17</title>
<path fill="none" stroke="midnightblue" d="M333.48,-190.44C276.48,-180.89 184.26,-165.42 123.5,-155.23"/>
<polygon fill="midnightblue" stroke="midnightblue" points="123.72,-151.72 113.28,-153.52 122.57,-158.62 123.72,-151.72"/>
</g>
<!-- Node18 -->
<g id="node18" class="node">
<title>Node18</title>
<g id="a_node18"><a xlink:title=" ">
<polygon fill="white" stroke="#bfbfbf" points="143.5,-134.5 143.5,-153.5 253.5,-153.5 253.5,-134.5 143.5,-134.5"/>
<text text-anchor="middle" x="198.5" y="-141.5" font-family="Helvetica,sans-Serif" font-size="10.00">G4PVPlacement.hh</text>
</a>
</g>
</g>
<!-- Node5&#45;&gt;Node18 -->
<g id="edge17" class="edge">
<title>Node5&#45;&gt;Node18</title>
<path fill="none" stroke="midnightblue" d="M355.03,-190.44C323.33,-181.24 272.77,-166.56 237.73,-156.39"/>
<polygon fill="midnightblue" stroke="midnightblue" points="238.41,-152.94 227.83,-153.52 236.46,-159.67 238.41,-152.94"/>
</g>
<!-- Node7 -->
<g id="node7" class="node">
<title>Node7</title>
<g id="a_node7"><a xlink:href="_o_m_sim_logger_8hh.html" target="_top" xlink:title=" ">
<polygon fill="white" stroke="black" points="933,-73 933,-92 1032,-92 1032,-73 933,-73"/>
<text text-anchor="middle" x="982.5" y="-80" font-family="Helvetica,sans-Serif" font-size="10.00">OMSimLogger.hh</text>
</a>
</g>
</g>
<!-- Node6&#45;&gt;Node7 -->
<g id="edge6" class="edge">
<title>Node6&#45;&gt;Node7</title>
<path fill="none" stroke="midnightblue" d="M671.51,-134.48C738.03,-123.57 852.97,-104.73 922.93,-93.26"/>
<polygon fill="midnightblue" stroke="midnightblue" points="923.62,-96.7 932.92,-91.63 922.48,-89.79 923.62,-96.7"/>
</g>
<!-- Node12 -->
<g id="node12" class="node">
<title>Node12</title>
<g id="a_node12"><a xlink:title=" ">
<polygon fill="white" stroke="#bfbfbf" points="1156,-73 1156,-92 1299,-92 1299,-73 1156,-73"/>
<text text-anchor="middle" x="1227.5" y="-80" font-family="Helvetica,sans-Serif" font-size="10.00">G4OpBoundaryProcess.hh</text>
</a>
</g>
</g>
<!-- Node6&#45;&gt;Node12 -->
<g id="edge11" class="edge">
<title>Node6&#45;&gt;Node12</title>
<path fill="none" stroke="midnightblue" d="M677.23,-135.1C680.36,-134.71 683.47,-134.34 686.5,-134 849.03,-115.51 1039.6,-98.9 1145.65,-90.1"/>
<polygon fill="midnightblue" stroke="midnightblue" points="1145.97,-93.59 1155.65,-89.28 1145.39,-86.61 1145.97,-93.59"/>
</g>
<!-- Node13 -->
<g id="node13" class="node">
<title>Node13</title>
<g id="a_node13"><a xlink:title=" ">
<polygon fill="white" stroke="#bfbfbf" points="474,-73 474,-92 593,-92 593,-73 474,-73"/>
<text text-anchor="middle" x="533.5" y="-80" font-family="Helvetica,sans-Serif" font-size="10.00">G4SystemOfUnits.hh</text>
</a>
</g>
</g>
<!-- Node6&#45;&gt;Node13 -->
<g id="edge12" class="edge">
<title>Node6&#45;&gt;Node13</title>
<path fill="none" stroke="midnightblue" d="M607.18,-134.48C593.38,-124.93 570.8,-109.31 554.27,-97.87"/>
<polygon fill="midnightblue" stroke="midnightblue" points="556.01,-94.82 545.8,-92.01 552.03,-100.58 556.01,-94.82"/>
</g>
<!-- Node14 -->
<g id="node14" class="node">
<title>Node14</title>
<g id="a_node14"><a xlink:title=" ">
<polygon fill="white" stroke="#bfbfbf" points="611,-67.5 611,-97.5 724,-97.5 724,-67.5 611,-67.5"/>
<text text-anchor="start" x="619" y="-85.5" font-family="Helvetica,sans-Serif" font-size="10.00">boost/property_tree</text>
<text text-anchor="middle" x="667.5" y="-74.5" font-family="Helvetica,sans-Serif" font-size="10.00">/json_parser.hpp</text>
</a>
</g>
</g>
<!-- Node6&#45;&gt;Node14 -->
<g id="edge13" class="edge">
<title>Node6&#45;&gt;Node14</title>
<path fill="none" stroke="midnightblue" d="M626.38,-134.48C632.45,-126.94 641.58,-115.63 649.7,-105.57"/>
<polygon fill="midnightblue" stroke="midnightblue" points="652.63,-107.5 656.19,-97.52 647.18,-103.11 652.63,-107.5"/>
</g>
<!-- Node8 -->
<g id="node8" class="node">
<title>Node8</title>
<g id="a_node8"><a xlink:title=" ">
<polygon fill="white" stroke="#bfbfbf" points="764,-6 764,-25 857,-25 857,-6 764,-6"/>
<text text-anchor="middle" x="810.5" y="-13" font-family="Helvetica,sans-Serif" font-size="10.00">spdlog/spdlog.h</text>
</a>
</g>
</g>
<!-- Node7&#45;&gt;Node8 -->
<g id="edge7" class="edge">
<title>Node7&#45;&gt;Node8</title>
<path fill="none" stroke="midnightblue" d="M959.66,-72.87C929.63,-61.52 876.72,-41.52 842.66,-28.65"/>
<polygon fill="midnightblue" stroke="midnightblue" points="843.75,-25.32 833.16,-25.06 841.28,-31.87 843.75,-25.32"/>
</g>
<!-- Node9 -->
<g id="node9" class="node">
<title>Node9</title>
<g id="a_node9"><a xlink:title=" ">
<polygon fill="white" stroke="#bfbfbf" points="875,-0.5 875,-30.5 986,-30.5 986,-0.5 875,-0.5"/>
<text text-anchor="start" x="883" y="-18.5" font-family="Helvetica,sans-Serif" font-size="10.00">spdlog/sinks/stdout</text>
<text text-anchor="middle" x="930.5" y="-7.5" font-family="Helvetica,sans-Serif" font-size="10.00">_color_sinks.h</text>
</a>
</g>
</g>
<!-- Node7&#45;&gt;Node9 -->
<g id="edge8" class="edge">
<title>Node7&#45;&gt;Node9</title>
<path fill="none" stroke="midnightblue" d="M975.49,-72.73C968.53,-64.03 957.58,-50.34 948.22,-38.65"/>
<polygon fill="midnightblue" stroke="midnightblue" points="950.75,-36.21 941.77,-30.59 945.29,-40.58 950.75,-36.21"/>
</g>
<!-- Node10 -->
<g id="node10" class="node">
<title>Node10</title>
<g id="a_node10"><a xlink:title=" ">
<polygon fill="white" stroke="#bfbfbf" points="1004.5,-6 1004.5,-25 1062.5,-25 1062.5,-6 1004.5,-6"/>
<text text-anchor="middle" x="1033.5" y="-13" font-family="Helvetica,sans-Serif" font-size="10.00">memory</text>
</a>
</g>
</g>
<!-- Node7&#45;&gt;Node10 -->
<g id="edge9" class="edge">
<title>Node7&#45;&gt;Node10</title>
<path fill="none" stroke="midnightblue" d="M989.38,-72.73C997.33,-62.6 1010.6,-45.69 1020.51,-33.06"/>
<polygon fill="midnightblue" stroke="midnightblue" points="1023.31,-35.16 1026.73,-25.13 1017.8,-30.83 1023.31,-35.16"/>
</g>
<!-- Node11 -->
<g id="node11" class="node">
<title>Node11</title>
<g id="a_node11"><a xlink:title=" ">
<polygon fill="white" stroke="#bfbfbf" points="1080.5,-6 1080.5,-25 1178.5,-25 1178.5,-6 1080.5,-6"/>
<text text-anchor="middle" x="1129.5" y="-13" font-family="Helvetica,sans-Serif" font-size="10.00">spdlog/fmt/fmt.h</text>
</a>
</g>
</g>
<!-- Node7&#45;&gt;Node11 -->
<g id="edge10" class="edge">
<title>Node7&#45;&gt;Node11</title>
<path fill="none" stroke="midnightblue" d="M1002.02,-72.87C1027.28,-61.7 1071.5,-42.15 1100.64,-29.26"/>
<polygon fill="midnightblue" stroke="midnightblue" points="1102.17,-32.41 1109.9,-25.17 1099.34,-26.01 1102.17,-32.41"/>
</g>
<!-- Node20 -->
<g id="node20" class="node">
<title>Node20</title>
<g id="a_node20"><a xlink:href="_o_m_sim_p_m_t_response_8hh.html" target="_top" xlink:title="Simulation of PMT response.">
<polygon fill="white" stroke="black" points="587,-190.5 587,-209.5 722,-209.5 722,-190.5 587,-190.5"/>
<text text-anchor="middle" x="654.5" y="-197.5" font-family="Helvetica,sans-Serif" font-size="10.00">OMSimPMTResponse.hh</text>
</a>
</g>
</g>
<!-- Node19&#45;&gt;Node20 -->
<g id="edge19" class="edge">
<title>Node19&#45;&gt;Node20</title>
<path fill="none" stroke="midnightblue" d="M857.31,-246.44C815.36,-237.04 747.91,-221.93 702.43,-211.74"/>
<polygon fill="midnightblue" stroke="midnightblue" points="703.03,-208.29 692.51,-209.52 701.5,-215.12 703.03,-208.29"/>
</g>
<!-- Node25 -->
<g id="node25" class="node">
<title>Node25</title>
<g id="a_node25"><a xlink:title=" ">
<polygon fill="white" stroke="#bfbfbf" points="1261,-190.5 1261,-209.5 1364,-209.5 1364,-190.5 1261,-190.5"/>
<text text-anchor="middle" x="1312.5" y="-197.5" font-family="Helvetica,sans-Serif" font-size="10.00">G4ThreeVector.hh</text>
</a>
</g>
</g>
<!-- Node19&#45;&gt;Node25 -->
<g id="edge25" class="edge">
<title>Node19&#45;&gt;Node25</title>
<path fill="none" stroke="midnightblue" d="M957.03,-247.03C1035.84,-236.83 1171.66,-219.24 1250.64,-209.01"/>
<polygon fill="midnightblue" stroke="midnightblue" points="1251.45,-212.43 1260.92,-207.68 1250.55,-205.49 1251.45,-212.43"/>
</g>
<!-- Node26 -->
<g id="node26" class="node">
<title>Node26</title>
<g id="a_node26"><a xlink:title=" ">
<polygon fill="white" stroke="#bfbfbf" points="961,-190.5 961,-209.5 1016,-209.5 1016,-190.5 961,-190.5"/>
<text text-anchor="middle" x="988.5" y="-197.5" font-family="Helvetica,sans-Serif" font-size="10.00">fstream</text>
</a>
</g>
</g>
<!-- Node19&#45;&gt;Node26 -->
<g id="edge26" class="edge">
<title>Node19&#45;&gt;Node26</title>
<path fill="none" stroke="midnightblue" d="M910.44,-246.32C925.09,-237.82 947.63,-224.73 964.74,-214.8"/>
<polygon fill="midnightblue" stroke="midnightblue" points="966.7,-217.7 973.6,-209.65 963.19,-211.65 966.7,-217.7"/>
</g>
<!-- Node27 -->
<g id="node27" class="node">
<title>Node27</title>
<g id="a_node27"><a xlink:title=" ">
<polygon fill="white" stroke="#bfbfbf" points="740.5,-190.5 740.5,-209.5 830.5,-209.5 830.5,-190.5 740.5,-190.5"/>
<text text-anchor="middle" x="785.5" y="-197.5" font-family="Helvetica,sans-Serif" font-size="10.00">G4AutoLock.hh</text>
</a>
</g>
</g>
<!-- Node19&#45;&gt;Node27 -->
<g id="edge27" class="edge">
<title>Node19&#45;&gt;Node27</title>
<path fill="none" stroke="midnightblue" d="M877.83,-246.32C860.11,-237.62 832.6,-224.12 812.21,-214.11"/>
<polygon fill="midnightblue" stroke="midnightblue" points="813.65,-210.92 803.13,-209.65 810.56,-217.2 813.65,-210.92"/>
</g>
<!-- Node28 -->
<g id="node28" class="node">
<title>Node28</title>
<g id="a_node28"><a xlink:title=" ">
<polygon fill="white" stroke="#bfbfbf" points="848.5,-190.5 848.5,-209.5 942.5,-209.5 942.5,-190.5 848.5,-190.5"/>
<text text-anchor="middle" x="895.5" y="-197.5" font-family="Helvetica,sans-Serif" font-size="10.00">G4Threading.hh</text>
</a>
</g>
</g>
<!-- Node19&#45;&gt;Node28 -->
<g id="edge28" class="edge">
<title>Node19&#45;&gt;Node28</title>
<path fill="none" stroke="midnightblue" d="M895.5,-246.08C895.5,-239.01 895.5,-228.86 895.5,-219.99"/>
<polygon fill="midnightblue" stroke="midnightblue" points="899,-219.75 895.5,-209.75 892,-219.75 899,-219.75"/>
</g>
<!-- Node20&#45;&gt;Node13 -->
<g id="edge20" class="edge">
<title>Node20&#45;&gt;Node13</title>
<path fill="none" stroke="midnightblue" d="M615.1,-190.45C593.74,-183.87 568.51,-172.65 552.5,-154 540.14,-139.6 535.74,-117.94 534.22,-102.43"/>
<polygon fill="midnightblue" stroke="midnightblue" points="537.71,-102.16 533.54,-92.42 530.72,-102.63 537.71,-102.16"/>
</g>
<!-- Node21 -->
<g id="node21" class="node">
<title>Node21</title>
<g id="a_node21"><a xlink:title=" ">
<polygon fill="white" stroke="#bfbfbf" points="902,-134.5 902,-153.5 975,-153.5 975,-134.5 902,-134.5"/>
<text text-anchor="middle" x="938.5" y="-141.5" font-family="Helvetica,sans-Serif" font-size="10.00">G4Types.hh</text>
</a>
</g>
</g>
<!-- Node20&#45;&gt;Node21 -->
<g id="edge21" class="edge">
<title>Node20&#45;&gt;Node21</title>
<path fill="none" stroke="midnightblue" d="M700.14,-190.46C746.01,-181.86 818.99,-168.11 892.01,-154.08"/>
<polygon fill="midnightblue" stroke="midnightblue" points="892.69,-157.52 901.85,-152.19 891.36,-150.64 892.69,-157.52"/>
</g>
<!-- Node22 -->
<g id="node22" class="node">
<title>Node22</title>
<g id="a_node22"><a xlink:title=" ">
<polygon fill="white" stroke="#bfbfbf" points="695.5,-134.5 695.5,-153.5 733.5,-153.5 733.5,-134.5 695.5,-134.5"/>
<text text-anchor="middle" x="714.5" y="-141.5" font-family="Helvetica,sans-Serif" font-size="10.00">map</text>
</a>
</g>
</g>
<!-- Node20&#45;&gt;Node22 -->
<g id="edge22" class="edge">
<title>Node20&#45;&gt;Node22</title>
<path fill="none" stroke="midnightblue" d="M664.14,-190.32C673.01,-182.34 686.37,-170.31 697.11,-160.65"/>
<polygon fill="midnightblue" stroke="midnightblue" points="699.59,-163.13 704.68,-153.83 694.91,-157.92 699.59,-163.13"/>
</g>
<!-- Node23 -->
<g id="node23" class="node">
<title>Node23</title>
<g id="a_node23"><a xlink:title=" ">
<polygon fill="white" stroke="#bfbfbf" points="752,-134.5 752,-153.5 813,-153.5 813,-134.5 752,-134.5"/>
<text text-anchor="middle" x="782.5" y="-141.5" font-family="Helvetica,sans-Serif" font-size="10.00">TGraph.h</text>
</a>
</g>
</g>
<!-- Node20&#45;&gt;Node23 -->
<g id="edge23" class="edge">
<title>Node20&#45;&gt;Node23</title>
<path fill="none" stroke="midnightblue" d="M674.78,-190.44C695.85,-181.56 729.02,-167.56 752.99,-157.45"/>
<polygon fill="midnightblue" stroke="midnightblue" points="754.46,-160.63 762.31,-153.52 751.74,-154.18 754.46,-160.63"/>
</g>
<!-- Node24 -->
<g id="node24" class="node">
<title>Node24</title>
<g id="a_node24"><a xlink:title=" ">
<polygon fill="white" stroke="#bfbfbf" points="831,-134.5 831,-153.5 884,-153.5 884,-134.5 831,-134.5"/>
<text text-anchor="middle" x="857.5" y="-141.5" font-family="Helvetica,sans-Serif" font-size="10.00">TH2D.h</text>
</a>
</g>
</g>
<!-- Node20&#45;&gt;Node24 -->
<g id="edge24" class="edge">
<title>Node20&#45;&gt;Node24</title>
<path fill="none" stroke="midnightblue" d="M686.67,-190.44C723.3,-180.7 783.03,-164.81 821.28,-154.64"/>
<polygon fill="midnightblue" stroke="midnightblue" points="822.22,-158.01 830.98,-152.05 820.42,-151.24 822.22,-158.01"/>
</g>
<!-- Node29&#45;&gt;Node5 -->
<g id="edge30" class="edge">
<title>Node29&#45;&gt;Node5</title>
<path fill="none" stroke="midnightblue" d="M265.84,-246.44C289.25,-237.48 326.24,-223.31 352.69,-213.18"/>
<polygon fill="midnightblue" stroke="midnightblue" points="354.18,-216.36 362.26,-209.52 351.67,-209.82 354.18,-216.36"/>
</g>
<!-- Node29&#45;&gt;Node20 -->
<g id="edge32" class="edge">
<title>Node29&#45;&gt;Node20</title>
<path fill="none" stroke="midnightblue" d="M308.62,-246.44C382.28,-236.77 502.01,-221.04 579.51,-210.85"/>
<polygon fill="midnightblue" stroke="midnightblue" points="580.22,-214.29 589.68,-209.52 579.31,-207.35 580.22,-214.29"/>
</g>
<!-- Node29&#45;&gt;Node29 -->
<g id="edge31" class="edge">
<title>Node29&#45;&gt;Node29</title>
<path fill="none" stroke="midnightblue" d="M282.95,-265.53C309.76,-268.31 336,-265.13 336,-256 336,-248.01 315.91,-244.58 292.93,-245.71"/>
<polygon fill="midnightblue" stroke="midnightblue" points="292.65,-242.22 282.95,-246.47 293.19,-249.2 292.65,-242.22"/>
</g>
<!-- Node30 -->
<g id="node30" class="node">
<title>Node30</title>
<g id="a_node30"><a xlink:title=" ">
<polygon fill="white" stroke="#bfbfbf" points="194.5,-190.5 194.5,-209.5 292.5,-209.5 292.5,-190.5 194.5,-190.5"/>
<text text-anchor="middle" x="243.5" y="-197.5" font-family="Helvetica,sans-Serif" font-size="10.00">G4UnionSolid.hh</text>
</a>
</g>
</g>
<!-- Node29&#45;&gt;Node30 -->
<g id="edge33" class="edge">
<title>Node29&#45;&gt;Node30</title>
<path fill="none" stroke="midnightblue" d="M243.5,-246.08C243.5,-239.01 243.5,-228.86 243.5,-219.99"/>
<polygon fill="midnightblue" stroke="midnightblue" points="247,-219.75 243.5,-209.75 240,-219.75 247,-219.75"/>
</g>
<!-- Node31 -->
<g id="node31" class="node">
<title>Node31</title>
<g id="a_node31"><a xlink:title=" ">
<polygon fill="white" stroke="#bfbfbf" points="109,-190.5 109,-209.5 176,-209.5 176,-190.5 109,-190.5"/>
<text text-anchor="middle" x="142.5" y="-197.5" font-family="Helvetica,sans-Serif" font-size="10.00">G4Tubs.hh</text>
</a>
</g>
</g>
<!-- Node29&#45;&gt;Node31 -->
<g id="edge34" class="edge">
<title>Node29&#45;&gt;Node31</title>
<path fill="none" stroke="midnightblue" d="M227.27,-246.32C211.15,-237.7 186.2,-224.36 167.54,-214.39"/>
<polygon fill="midnightblue" stroke="midnightblue" points="169.16,-211.28 158.69,-209.65 165.86,-217.46 169.16,-211.28"/>
</g>
<!-- Node34&#45;&gt;Node4 -->
<g id="edge39" class="edge">
<title>Node34&#45;&gt;Node4</title>
<path fill="none" stroke="midnightblue" d="M175,-359.29C177.88,-358.85 180.73,-358.42 183.5,-358 266.72,-345.47 362.48,-331.86 426.15,-322.93"/>
<polygon fill="midnightblue" stroke="midnightblue" points="426.67,-326.39 436.09,-321.54 425.7,-319.46 426.67,-326.39"/>
</g>
<!-- Node34&#45;&gt;Node29 -->
<g id="edge38" class="edge">
<title>Node34&#45;&gt;Node29</title>
<path fill="none" stroke="midnightblue" d="M135.68,-358.37C155.33,-339.89 201.71,-296.29 226.75,-272.74"/>
<polygon fill="midnightblue" stroke="midnightblue" points="229.47,-274.99 234.36,-265.59 224.68,-269.89 229.47,-274.99"/>
</g>
<!-- Node35&#45;&gt;Node4 -->
<g id="edge42" class="edge">
<title>Node35&#45;&gt;Node4</title>
<path fill="none" stroke="midnightblue" d="M283.75,-358.44C328.15,-349 399.65,-333.8 447.59,-323.61"/>
<polygon fill="midnightblue" stroke="midnightblue" points="448.39,-327.02 457.44,-321.52 446.93,-320.17 448.39,-327.02"/>
</g>
<!-- Node35&#45;&gt;Node29 -->
<g id="edge41" class="edge">
<title>Node35&#45;&gt;Node29</title>
<path fill="none" stroke="midnightblue" d="M243.5,-358.37C243.5,-340.62 243.5,-299.67 243.5,-275.6"/>
<polygon fill="midnightblue" stroke="midnightblue" points="247,-275.59 243.5,-265.59 240,-275.59 247,-275.59"/>
</g>
<!-- Node36&#45;&gt;Node4 -->
<g id="edge45" class="edge">
<title>Node36&#45;&gt;Node4</title>
<path fill="none" stroke="midnightblue" d="M534.87,-414.46C522.01,-406.84 505.16,-394.36 497.5,-378 490.77,-363.63 491.43,-345.43 493.4,-331.95"/>
<polygon fill="midnightblue" stroke="midnightblue" points="496.88,-332.39 495.22,-321.92 489.99,-331.13 496.88,-332.39"/>
</g>
<!-- Node36&#45;&gt;Node29 -->
<g id="edge44" class="edge">
<title>Node36&#45;&gt;Node29</title>
<path fill="none" stroke="midnightblue" d="M500.92,-421.54C456.06,-418.16 390.28,-407.94 341.5,-378 299.42,-352.17 267.5,-301.59 252.66,-274.74"/>
<polygon fill="midnightblue" stroke="midnightblue" points="255.63,-272.87 247.82,-265.71 249.46,-276.18 255.63,-272.87"/>
</g>
<!-- Node36&#45;&gt;Node37 -->
<g id="edge46" class="edge">
<title>Node36&#45;&gt;Node37</title>
<path fill="none" stroke="midnightblue" d="M570.51,-414.44C590.09,-405.64 620.81,-391.81 643.23,-381.72"/>
<polygon fill="midnightblue" stroke="midnightblue" points="644.89,-384.81 652.57,-377.52 642.02,-378.43 644.89,-384.81"/>
</g>
<!-- Node38 -->
<g id="node38" class="node">
<title>Node38</title>
<g id="a_node38"><a xlink:title=" ">
<polygon fill="white" stroke="#bfbfbf" points="507,-358.5 507,-377.5 596,-377.5 596,-358.5 507,-358.5"/>
<text text-anchor="middle" x="551.5" y="-365.5" font-family="Helvetica,sans-Serif" font-size="10.00">G4Polycone.hh</text>
</a>
</g>
</g>
<!-- Node36&#45;&gt;Node38 -->
<g id="edge47" class="edge">
<title>Node36&#45;&gt;Node38</title>
<path fill="none" stroke="midnightblue" d="M551.5,-414.08C551.5,-407.01 551.5,-396.86 551.5,-387.99"/>
<polygon fill="midnightblue" stroke="midnightblue" points="555,-387.75 551.5,-377.75 548,-387.75 555,-387.75"/>
</g>
<!-- Node39&#45;&gt;Node4 -->
<g id="edge50" class="edge">
<title>Node39&#45;&gt;Node4</title>
<path fill="none" stroke="midnightblue" d="M748.28,-358.44C695.75,-348.92 610.89,-333.55 554.65,-323.36"/>
<polygon fill="midnightblue" stroke="midnightblue" points="554.96,-319.86 544.5,-321.52 553.71,-326.74 554.96,-319.86"/>
</g>
<!-- Node39&#45;&gt;Node29 -->
<g id="edge49" class="edge">
<title>Node39&#45;&gt;Node29</title>
<path fill="none" stroke="midnightblue" d="M770.96,-358.45C730.5,-344.67 647.05,-317.51 574.5,-302 491.56,-284.27 395.36,-272.11 328.12,-264.95"/>
<polygon fill="midnightblue" stroke="midnightblue" points="328.31,-261.45 318,-263.88 327.58,-268.41 328.31,-261.45"/>
</g>
<!-- Node40&#45;&gt;Node4 -->
<g id="edge57" class="edge">
<title>Node40&#45;&gt;Node4</title>
<path fill="none" stroke="midnightblue" d="M416.08,-358.32C431.5,-349.74 455.31,-336.49 473.21,-326.52"/>
<polygon fill="midnightblue" stroke="midnightblue" points="474.92,-329.58 481.95,-321.65 471.51,-323.46 474.92,-329.58"/>
</g>
<!-- Node40&#45;&gt;Node29 -->
<g id="edge56" class="edge">
<title>Node40&#45;&gt;Node29</title>
<path fill="none" stroke="midnightblue" d="M393.78,-358.5C382.88,-345.13 360.18,-318.98 336.5,-302 317.75,-288.56 294.38,-277.27 275.75,-269.36"/>
<polygon fill="midnightblue" stroke="midnightblue" points="277.07,-266.12 266.49,-265.54 274.4,-272.59 277.07,-266.12"/>
</g>
<!-- Node41 -->
<g id="node41" class="node">
<title>Node41</title>
<g id="a_node41"><a xlink:href="_o_m_sim_m_d_o_m_flasher_8hh.html" target="_top" xlink:title="Defines the mDOMFlasher class for simulating the 10 flashers in an mDOM optical module.">
<polygon fill="white" stroke="black" points="354,-246.5 354,-265.5 489,-265.5 489,-246.5 354,-246.5"/>
<text text-anchor="middle" x="421.5" y="-253.5" font-family="Helvetica,sans-Serif" font-size="10.00">OMSimMDOMFlasher.hh</text>
</a>
</g>
</g>
<!-- Node40&#45;&gt;Node41 -->
<g id="edge52" class="edge">
<title>Node40&#45;&gt;Node41</title>
<path fill="none" stroke="midnightblue" d="M402.15,-358.37C405.54,-340.62 413.35,-299.67 417.95,-275.6"/>
<polygon fill="midnightblue" stroke="midnightblue" points="421.42,-276.07 419.86,-265.59 414.55,-274.76 421.42,-276.07"/>
</g>
<!-- Node41&#45;&gt;Node5 -->
<g id="edge53" class="edge">
<title>Node41&#45;&gt;Node5</title>
<path fill="none" stroke="midnightblue" d="M415.39,-246.08C410.22,-238.53 402.65,-227.49 396.31,-218.23"/>
<polygon fill="midnightblue" stroke="midnightblue" points="399.04,-216.02 390.5,-209.75 393.26,-219.98 399.04,-216.02"/>
</g>
<!-- Node41&#45;&gt;Node30 -->
<g id="edge54" class="edge">
<title>Node41&#45;&gt;Node30</title>
<path fill="none" stroke="midnightblue" d="M393.3,-246.44C363.09,-237.28 314.99,-222.69 281.47,-212.52"/>
<polygon fill="midnightblue" stroke="midnightblue" points="282.16,-209.07 271.57,-209.52 280.13,-215.77 282.16,-209.07"/>
</g>
<!-- Node42 -->
<g id="node42" class="node">
<title>Node42</title>
<g id="a_node42"><a xlink:title=" ">
<polygon fill="white" stroke="#bfbfbf" points="476.5,-190.5 476.5,-209.5 568.5,-209.5 568.5,-190.5 476.5,-190.5"/>
<text text-anchor="middle" x="522.5" y="-197.5" font-family="Helvetica,sans-Serif" font-size="10.00">G4Navigator.hh</text>
</a>
</g>
</g>
<!-- Node41&#45;&gt;Node42 -->
<g id="edge55" class="edge">
<title>Node41&#45;&gt;Node42</title>
<path fill="none" stroke="midnightblue" d="M437.73,-246.32C453.85,-237.7 478.8,-224.36 497.46,-214.39"/>
<polygon fill="midnightblue" stroke="midnightblue" points="499.14,-217.46 506.31,-209.65 495.84,-211.28 499.14,-217.46"/>
</g>
<!-- Node43&#45;&gt;Node7 -->
<g id="edge59" class="edge">
<title>Node43&#45;&gt;Node7</title>
<path fill="none" stroke="midnightblue" d="M1161.46,-246.47C1189.96,-235.62 1229.66,-215.24 1213.5,-190 1176.07,-131.53 1097.49,-104.71 1042.42,-92.72"/>
<polygon fill="midnightblue" stroke="midnightblue" points="1042.93,-89.25 1032.43,-90.64 1041.51,-96.1 1042.93,-89.25"/>
</g>
<!-- Node43&#45;&gt;Node26 -->
<g id="edge60" class="edge">
<title>Node43&#45;&gt;Node26</title>
<path fill="none" stroke="midnightblue" d="M1112.21,-246.44C1087.69,-237.44 1048.9,-223.19 1021.3,-213.05"/>
<polygon fill="midnightblue" stroke="midnightblue" points="1022.28,-209.68 1011.68,-209.52 1019.86,-216.25 1022.28,-209.68"/>
</g>
<!-- Node44 -->
<g id="node44" class="node">
<title>Node44</title>
<g id="a_node44"><a xlink:title=" ">
<polygon fill="white" stroke="#bfbfbf" points="1034.5,-190.5 1034.5,-209.5 1118.5,-209.5 1118.5,-190.5 1034.5,-190.5"/>
<text text-anchor="middle" x="1076.5" y="-197.5" font-family="Helvetica,sans-Serif" font-size="10.00">boost/any.hpp</text>
</a>
</g>
</g>
<!-- Node43&#45;&gt;Node44 -->
<g id="edge61" class="edge">
<title>Node43&#45;&gt;Node44</title>
<path fill="none" stroke="midnightblue" d="M1126.02,-246.32C1117.3,-238.34 1104.16,-226.31 1093.6,-216.65"/>
<polygon fill="midnightblue" stroke="midnightblue" points="1095.89,-214 1086.15,-209.83 1091.17,-219.17 1095.89,-214"/>
</g>
<!-- Node45 -->
<g id="node45" class="node">
<title>Node45</title>
<g id="a_node45"><a xlink:title=" ">
<polygon fill="white" stroke="#bfbfbf" points="1136.5,-190.5 1136.5,-209.5 1204.5,-209.5 1204.5,-190.5 1136.5,-190.5"/>
<text text-anchor="middle" x="1170.5" y="-197.5" font-family="Helvetica,sans-Serif" font-size="10.00">sys/time.h</text>
</a>
</g>
</g>
<!-- Node43&#45;&gt;Node45 -->
<g id="edge62" class="edge">
<title>Node43&#45;&gt;Node45</title>
<path fill="none" stroke="midnightblue" d="M1141.28,-246.08C1146.17,-238.53 1153.33,-227.49 1159.33,-218.23"/>
<polygon fill="midnightblue" stroke="midnightblue" points="1162.33,-220.05 1164.83,-209.75 1156.45,-216.24 1162.33,-220.05"/>
</g>
<!-- Node46&#45;&gt;Node12 -->
<g id="edge69" class="edge">
<title>Node46&#45;&gt;Node12</title>
<path fill="none" stroke="midnightblue" d="M1359.51,-246.25C1368.86,-233.43 1383.17,-209.03 1373.5,-190 1349.72,-143.22 1294.68,-112.1 1259.39,-96.15"/>
<polygon fill="midnightblue" stroke="midnightblue" points="1260.56,-92.85 1250,-92.06 1257.76,-99.26 1260.56,-92.85"/>
</g>
<!-- Node46&#45;&gt;Node20 -->
<g id="edge68" class="edge">
<title>Node46&#45;&gt;Node20</title>
<path fill="none" stroke="midnightblue" d="M1275.84,-249.49C1124.5,-238.6 796.98,-215.02 732.23,-209.91"/>
<polygon fill="midnightblue" stroke="midnightblue" points="732.34,-206.41 722.09,-209.07 731.76,-213.39 732.34,-206.41"/>
</g>
<!-- Node46&#45;&gt;Node25 -->
<g id="edge67" class="edge">
<title>Node46&#45;&gt;Node25</title>
<path fill="none" stroke="midnightblue" d="M1345.89,-246.08C1340.24,-238.46 1331.96,-227.26 1325.05,-217.94"/>
<polygon fill="midnightblue" stroke="midnightblue" points="1327.75,-215.7 1318.98,-209.75 1322.12,-219.87 1327.75,-215.7"/>
</g>
<!-- Node47 -->
<g id="node47" class="node">
<title>Node47</title>
<g id="a_node47"><a xlink:title=" ">
<polygon fill="white" stroke="#bfbfbf" points="1420.5,-190.5 1420.5,-209.5 1558.5,-209.5 1558.5,-190.5 1420.5,-190.5"/>
<text text-anchor="middle" x="1489.5" y="-197.5" font-family="Helvetica,sans-Serif" font-size="10.00">G4VSensitiveDetector.hh</text>
</a>
</g>
</g>
<!-- Node46&#45;&gt;Node47 -->
<g id="edge66" class="edge">
<title>Node46&#45;&gt;Node47</title>
<path fill="none" stroke="midnightblue" d="M1374.21,-246.44C1396.85,-237.52 1432.57,-223.44 1458.25,-213.32"/>
<polygon fill="midnightblue" stroke="midnightblue" points="1459.87,-216.44 1467.89,-209.52 1457.31,-209.93 1459.87,-216.44"/>
</g>
<!-- Node48 -->
<g id="node48" class="node">
<title>Node48</title>
<g id="a_node48"><a xlink:title=" ">
<polygon fill="white" stroke="#bfbfbf" points="1577,-190.5 1577,-209.5 1624,-209.5 1624,-190.5 1577,-190.5"/>
<text text-anchor="middle" x="1600.5" y="-197.5" font-family="Helvetica,sans-Serif" font-size="10.00">vector</text>
</a>
</g>
</g>
<!-- Node46&#45;&gt;Node48 -->
<g id="edge70" class="edge">
<title>Node46&#45;&gt;Node48</title>
<path fill="none" stroke="midnightblue" d="M1397.15,-246.47C1438.62,-238.36 1502.32,-225.44 1566.82,-210.05"/>
<polygon fill="midnightblue" stroke="midnightblue" points="1567.85,-213.4 1576.75,-207.66 1566.21,-206.6 1567.85,-213.4"/>
</g>
</g>
</svg>
