<?xml version="1.0" encoding="UTF-8" standalone="no"?>
<!DOCTYPE svg PUBLIC "-//W3C//DTD SVG 1.1//EN"
 "http://www.w3.org/Graphics/SVG/1.1/DTD/svg11.dtd">
<!-- Generated by graphviz version 2.43.0 (0)
 -->
<!-- Title: OMSimMDOMFlasher.hh Pages: 1 -->
<svg width="1357pt" height="274pt"
 viewBox="0.00 0.00 1356.50 274.00" xmlns="http://www.w3.org/2000/svg" xmlns:xlink="http://www.w3.org/1999/xlink">
<g id="graph0" class="graph" transform="scale(1 1) rotate(0) translate(4 270)">
<title>OMSimMDOMFlasher.hh</title>
<!-- Node1 -->
<g id="node1" class="node">
<title>Node1</title>
<g id="a_node1"><a xlink:title="Defines the mDOMFlasher class for simulating the 10 flashers in an mDOM optical module.">
<polygon fill="#bfbfbf" stroke="black" points="1096,-246.5 1096,-265.5 1231,-265.5 1231,-246.5 1096,-246.5"/>
<text text-anchor="middle" x="1163.5" y="-253.5" font-family="Helvetica,sans-Serif" font-size="10.00">OMSimMDOMFlasher.hh</text>
</a>
</g>
</g>
<!-- Node2 -->
<g id="node2" class="node">
<title>Node2</title>
<g id="a_node2"><a xlink:href="abc_detector_component_8hh.html" target="_top" xlink:title="Provides helper base class abcDetectorComponent for constructing and managing detector components in ...">
<polygon fill="none" stroke="black" points="949,-190.5 949,-209.5 1096,-209.5 1096,-190.5 949,-190.5"/>
<text text-anchor="middle" x="1022.5" y="-197.5" font-family="Helvetica,sans-Serif" font-size="10.00">abcDetectorComponent.hh</text>
</a>
</g>
</g>
<!-- Node1&#45;&gt;Node2 -->
<g id="edge1" class="edge">
<title>Node1&#45;&gt;Node2</title>
<path fill="none" stroke="midnightblue" d="M1141.16,-246.44C1117.75,-237.48 1080.76,-223.31 1054.31,-213.18"/>
<polygon fill="midnightblue" stroke="midnightblue" points="1055.33,-209.82 1044.74,-209.52 1052.82,-216.36 1055.33,-209.82"/>
</g>
<!-- Node21 -->
<g id="node21" class="node">
<title>Node21</title>
<g id="a_node21"><a xlink:title=" ">
<polygon fill="none" stroke="#bfbfbf" points="1114.5,-190.5 1114.5,-209.5 1212.5,-209.5 1212.5,-190.5 1114.5,-190.5"/>
<text text-anchor="middle" x="1163.5" y="-197.5" font-family="Helvetica,sans-Serif" font-size="10.00">G4UnionSolid.hh</text>
</a>
</g>
</g>
<!-- Node1&#45;&gt;Node21 -->
<g id="edge20" class="edge">
<title>Node1&#45;&gt;Node21</title>
<path fill="none" stroke="midnightblue" d="M1163.5,-246.08C1163.5,-239.01 1163.5,-228.86 1163.5,-219.99"/>
<polygon fill="midnightblue" stroke="midnightblue" points="1167,-219.75 1163.5,-209.75 1160,-219.75 1167,-219.75"/>
</g>
<!-- Node22 -->
<g id="node22" class="node">
<title>Node22</title>
<g id="a_node22"><a xlink:title=" ">
<polygon fill="none" stroke="#bfbfbf" points="1230.5,-190.5 1230.5,-209.5 1322.5,-209.5 1322.5,-190.5 1230.5,-190.5"/>
<text text-anchor="middle" x="1276.5" y="-197.5" font-family="Helvetica,sans-Serif" font-size="10.00">G4Navigator.hh</text>
</a>
</g>
</g>
<!-- Node1&#45;&gt;Node22 -->
<g id="edge21" class="edge">
<title>Node1&#45;&gt;Node22</title>
<path fill="none" stroke="midnightblue" d="M1181.41,-246.44C1199.75,-237.68 1228.51,-223.94 1249.59,-213.86"/>
<polygon fill="midnightblue" stroke="midnightblue" points="1251.17,-216.99 1258.68,-209.52 1248.15,-210.67 1251.17,-216.99"/>
</g>
<!-- Node3 -->
<g id="node3" class="node">
<title>Node3</title>
<g id="a_node3"><a xlink:href="_o_m_sim_input_data_8hh.html" target="_top" xlink:title="Definition of ParameterTable and InputDataManager.">
<polygon fill="none" stroke="black" points="710,-134.5 710,-153.5 825,-153.5 825,-134.5 710,-134.5"/>
<text text-anchor="middle" x="767.5" y="-141.5" font-family="Helvetica,sans-Serif" font-size="10.00">OMSimInputData.hh</text>
</a>
</g>
</g>
<!-- Node2&#45;&gt;Node3 -->
<g id="edge2" class="edge">
<title>Node2&#45;&gt;Node3</title>
<path fill="none" stroke="midnightblue" d="M982.09,-190.44C937.52,-181 865.73,-165.8 817.61,-155.61"/>
<polygon fill="midnightblue" stroke="midnightblue" points="818.22,-152.16 807.72,-153.52 816.77,-159.01 818.22,-152.16"/>
</g>
<!-- Node17 -->
<g id="node17" class="node">
<title>Node17</title>
<g id="a_node17"><a xlink:title=" ">
<polygon fill="none" stroke="#bfbfbf" points="843,-134.5 843,-153.5 950,-153.5 950,-134.5 843,-134.5"/>
<text text-anchor="middle" x="896.5" y="-141.5" font-family="Helvetica,sans-Serif" font-size="10.00">G4Transform3D.hh</text>
</a>
</g>
</g>
<!-- Node2&#45;&gt;Node17 -->
<g id="edge16" class="edge">
<title>Node2&#45;&gt;Node17</title>
<path fill="none" stroke="midnightblue" d="M1002.53,-190.44C981.89,-181.6 949.44,-167.69 925.87,-157.59"/>
<polygon fill="midnightblue" stroke="midnightblue" points="926.94,-154.24 916.37,-153.52 924.18,-160.67 926.94,-154.24"/>
</g>
<!-- Node18 -->
<g id="node18" class="node">
<title>Node18</title>
<g id="a_node18"><a xlink:title=" ">
<polygon fill="none" stroke="#bfbfbf" points="968.5,-134.5 968.5,-153.5 1076.5,-153.5 1076.5,-134.5 968.5,-134.5"/>
<text text-anchor="middle" x="1022.5" y="-141.5" font-family="Helvetica,sans-Serif" font-size="10.00">G4VisAttributes.hh</text>
</a>
</g>
</g>
<!-- Node2&#45;&gt;Node18 -->
<g id="edge17" class="edge">
<title>Node2&#45;&gt;Node18</title>
<path fill="none" stroke="midnightblue" d="M1022.5,-190.08C1022.5,-183.01 1022.5,-172.86 1022.5,-163.99"/>
<polygon fill="midnightblue" stroke="midnightblue" points="1026,-163.75 1022.5,-153.75 1019,-163.75 1026,-163.75"/>
</g>
<!-- Node19 -->
<g id="node19" class="node">
<title>Node19</title>
<g id="a_node19"><a xlink:title=" ">
<polygon fill="none" stroke="#bfbfbf" points="1095,-134.5 1095,-153.5 1220,-153.5 1220,-134.5 1095,-134.5"/>
<text text-anchor="middle" x="1157.5" y="-141.5" font-family="Helvetica,sans-Serif" font-size="10.00">G4SubtractionSolid.hh</text>
</a>
</g>
</g>
<!-- Node2&#45;&gt;Node19 -->
<g id="edge18" class="edge">
<title>Node2&#45;&gt;Node19</title>
<path fill="none" stroke="midnightblue" d="M1043.89,-190.44C1066.21,-181.52 1101.4,-167.44 1126.71,-157.32"/>
<polygon fill="midnightblue" stroke="midnightblue" points="1128.22,-160.48 1136.21,-153.52 1125.62,-153.98 1128.22,-160.48"/>
</g>
<!-- Node20 -->
<g id="node20" class="node">
<title>Node20</title>
<g id="a_node20"><a xlink:title=" ">
<polygon fill="none" stroke="#bfbfbf" points="1238.5,-134.5 1238.5,-153.5 1348.5,-153.5 1348.5,-134.5 1238.5,-134.5"/>
<text text-anchor="middle" x="1293.5" y="-141.5" font-family="Helvetica,sans-Serif" font-size="10.00">G4PVPlacement.hh</text>
</a>
</g>
</g>
<!-- Node2&#45;&gt;Node20 -->
<g id="edge19" class="edge">
<title>Node2&#45;&gt;Node20</title>
<path fill="none" stroke="midnightblue" d="M1065.44,-190.44C1113.01,-180.96 1189.74,-165.67 1240.89,-155.48"/>
<polygon fill="midnightblue" stroke="midnightblue" points="1241.64,-158.9 1250.76,-153.52 1240.27,-152.04 1241.64,-158.9"/>
</g>
<!-- Node4 -->
<g id="node4" class="node">
<title>Node4</title>
<g id="a_node4"><a xlink:href="_o_m_sim_logger_8hh_source.html" target="_top" xlink:title=" ">
<polygon fill="none" stroke="black" points="220,-73 220,-92 319,-92 319,-73 220,-73"/>
<text text-anchor="middle" x="269.5" y="-80" font-family="Helvetica,sans-Serif" font-size="10.00">OMSimLogger.hh</text>
</a>
</g>
</g>
<!-- Node3&#45;&gt;Node4 -->
<g id="edge3" class="edge">
<title>Node3&#45;&gt;Node4</title>
<path fill="none" stroke="midnightblue" d="M709.89,-136.12C614.78,-124.75 425.87,-102.18 329.33,-90.65"/>
<polygon fill="midnightblue" stroke="midnightblue" points="329.5,-87.14 319.15,-89.43 328.66,-94.09 329.5,-87.14"/>
</g>
<!-- Node9 -->
<g id="node9" class="node">
<title>Node9</title>
<g id="a_node9"><a xlink:href="_o_m_sim_op_boundary_process_8hh_source.html" target="_top" xlink:title=" ">
<polygon fill="none" stroke="black" points="605.5,-73 605.5,-92 769.5,-92 769.5,-73 605.5,-73"/>
<text text-anchor="middle" x="687.5" y="-80" font-family="Helvetica,sans-Serif" font-size="10.00">OMSimOpBoundaryProcess.hh</text>
</a>
</g>
</g>
<!-- Node3&#45;&gt;Node9 -->
<g id="edge8" class="edge">
<title>Node3&#45;&gt;Node9</title>
<path fill="none" stroke="midnightblue" d="M756.04,-134.48C743.33,-125.02 722.59,-109.6 707.25,-98.19"/>
<polygon fill="midnightblue" stroke="midnightblue" points="709.05,-95.17 698.94,-92.01 704.88,-100.79 709.05,-95.17"/>
</g>
<!-- Node15 -->
<g id="node15" class="node">
<title>Node15</title>
<g id="a_node15"><a xlink:title=" ">
<polygon fill="none" stroke="#bfbfbf" points="788,-73 788,-92 907,-92 907,-73 788,-73"/>
<text text-anchor="middle" x="847.5" y="-80" font-family="Helvetica,sans-Serif" font-size="10.00">G4SystemOfUnits.hh</text>
</a>
</g>
</g>
<!-- Node3&#45;&gt;Node15 -->
<g id="edge14" class="edge">
<title>Node3&#45;&gt;Node15</title>
<path fill="none" stroke="midnightblue" d="M778.96,-134.48C791.67,-125.02 812.41,-109.6 827.75,-98.19"/>
<polygon fill="midnightblue" stroke="midnightblue" points="830.12,-100.79 836.06,-92.01 825.95,-95.17 830.12,-100.79"/>
</g>
<!-- Node16 -->
<g id="node16" class="node">
<title>Node16</title>
<g id="a_node16"><a xlink:title=" ">
<polygon fill="none" stroke="#bfbfbf" points="925,-67.5 925,-97.5 1038,-97.5 1038,-67.5 925,-67.5"/>
<text text-anchor="start" x="933" y="-85.5" font-family="Helvetica,sans-Serif" font-size="10.00">boost/property_tree</text>
<text text-anchor="middle" x="981.5" y="-74.5" font-family="Helvetica,sans-Serif" font-size="10.00">/json_parser.hpp</text>
</a>
</g>
</g>
<!-- Node3&#45;&gt;Node16 -->
<g id="edge15" class="edge">
<title>Node3&#45;&gt;Node16</title>
<path fill="none" stroke="midnightblue" d="M798.16,-134.48C830.19,-125.57 881.27,-111.37 921.38,-100.22"/>
<polygon fill="midnightblue" stroke="midnightblue" points="922.37,-103.57 931.06,-97.52 920.49,-96.83 922.37,-103.57"/>
</g>
<!-- Node5 -->
<g id="node5" class="node">
<title>Node5</title>
<g id="a_node5"><a xlink:title=" ">
<polygon fill="none" stroke="#bfbfbf" points="0,-6 0,-25 93,-25 93,-6 0,-6"/>
<text text-anchor="middle" x="46.5" y="-13" font-family="Helvetica,sans-Serif" font-size="10.00">spdlog/spdlog.h</text>
</a>
</g>
</g>
<!-- Node4&#45;&gt;Node5 -->
<g id="edge4" class="edge">
<title>Node4&#45;&gt;Node5</title>
<path fill="none" stroke="midnightblue" d="M239.89,-72.87C200.21,-61.3 129.69,-40.75 85.66,-27.91"/>
<polygon fill="midnightblue" stroke="midnightblue" points="86.46,-24.5 75.88,-25.06 84.5,-31.22 86.46,-24.5"/>
</g>
<!-- Node6 -->
<g id="node6" class="node">
<title>Node6</title>
<g id="a_node6"><a xlink:title=" ">
<polygon fill="none" stroke="#bfbfbf" points="111,-0.5 111,-30.5 222,-30.5 222,-0.5 111,-0.5"/>
<text text-anchor="start" x="119" y="-18.5" font-family="Helvetica,sans-Serif" font-size="10.00">spdlog/sinks/stdout</text>
<text text-anchor="middle" x="166.5" y="-7.5" font-family="Helvetica,sans-Serif" font-size="10.00">_color_sinks.h</text>
</a>
</g>
</g>
<!-- Node4&#45;&gt;Node6 -->
<g id="edge5" class="edge">
<title>Node4&#45;&gt;Node6</title>
<path fill="none" stroke="midnightblue" d="M255.61,-72.73C240.75,-63.36 216.71,-48.19 197.35,-35.97"/>
<polygon fill="midnightblue" stroke="midnightblue" points="199.15,-32.97 188.83,-30.59 195.41,-38.89 199.15,-32.97"/>
</g>
<!-- Node7 -->
<g id="node7" class="node">
<title>Node7</title>
<g id="a_node7"><a xlink:title=" ">
<polygon fill="none" stroke="#bfbfbf" points="240.5,-6 240.5,-25 298.5,-25 298.5,-6 240.5,-6"/>
<text text-anchor="middle" x="269.5" y="-13" font-family="Helvetica,sans-Serif" font-size="10.00">memory</text>
</a>
</g>
</g>
<!-- Node4&#45;&gt;Node7 -->
<g id="edge6" class="edge">
<title>Node4&#45;&gt;Node7</title>
<path fill="none" stroke="midnightblue" d="M269.5,-72.73C269.5,-63.18 269.5,-47.62 269.5,-35.28"/>
<polygon fill="midnightblue" stroke="midnightblue" points="273,-35.13 269.5,-25.13 266,-35.13 273,-35.13"/>
</g>
<!-- Node8 -->
<g id="node8" class="node">
<title>Node8</title>
<g id="a_node8"><a xlink:title=" ">
<polygon fill="none" stroke="#bfbfbf" points="316.5,-6 316.5,-25 414.5,-25 414.5,-6 316.5,-6"/>
<text text-anchor="middle" x="365.5" y="-13" font-family="Helvetica,sans-Serif" font-size="10.00">spdlog/fmt/fmt.h</text>
</a>
</g>
</g>
<!-- Node4&#45;&gt;Node8 -->
<g id="edge7" class="edge">
<title>Node4&#45;&gt;Node8</title>
<path fill="none" stroke="midnightblue" d="M282.45,-72.73C298.35,-61.96 325.55,-43.55 344.47,-30.74"/>
<polygon fill="midnightblue" stroke="midnightblue" points="346.44,-33.63 352.76,-25.13 342.52,-27.84 346.44,-33.63"/>
</g>
<!-- Node10 -->
<g id="node10" class="node">
<title>Node10</title>
<g id="a_node10"><a xlink:title=" ">
<polygon fill="none" stroke="#bfbfbf" points="433,-6 433,-25 546,-25 546,-6 433,-6"/>
<text text-anchor="middle" x="489.5" y="-13" font-family="Helvetica,sans-Serif" font-size="10.00">G4OpticalPhoton.hh</text>
</a>
</g>
</g>
<!-- Node9&#45;&gt;Node10 -->
<g id="edge9" class="edge">
<title>Node9&#45;&gt;Node10</title>
<path fill="none" stroke="midnightblue" d="M661.21,-72.87C626.27,-61.4 564.42,-41.09 525.26,-28.24"/>
<polygon fill="midnightblue" stroke="midnightblue" points="526.18,-24.86 515.59,-25.06 524,-31.51 526.18,-24.86"/>
</g>
<!-- Node11 -->
<g id="node11" class="node">
<title>Node11</title>
<g id="a_node11"><a xlink:title=" ">
<polygon fill="none" stroke="#bfbfbf" points="564.5,-6 564.5,-25 680.5,-25 680.5,-6 564.5,-6"/>
<text text-anchor="middle" x="622.5" y="-13" font-family="Helvetica,sans-Serif" font-size="10.00">G4OpticalSurface.hh</text>
</a>
</g>
</g>
<!-- Node9&#45;&gt;Node11 -->
<g id="edge10" class="edge">
<title>Node9&#45;&gt;Node11</title>
<path fill="none" stroke="midnightblue" d="M678.73,-72.73C668.4,-62.4 651.04,-45.04 638.33,-32.33"/>
<polygon fill="midnightblue" stroke="midnightblue" points="640.67,-29.72 631.13,-25.13 635.72,-34.67 640.67,-29.72"/>
</g>
<!-- Node12 -->
<g id="node12" class="node">
<title>Node12</title>
<g id="a_node12"><a xlink:title=" ">
<polygon fill="none" stroke="#bfbfbf" points="698.5,-6 698.5,-25 808.5,-25 808.5,-6 698.5,-6"/>
<text text-anchor="middle" x="753.5" y="-13" font-family="Helvetica,sans-Serif" font-size="10.00">G4RandomTools.hh</text>
</a>
</g>
</g>
<!-- Node9&#45;&gt;Node12 -->
<g id="edge11" class="edge">
<title>Node9&#45;&gt;Node12</title>
<path fill="none" stroke="midnightblue" d="M696.4,-72.73C706.89,-62.4 724.52,-45.04 737.42,-32.33"/>
<polygon fill="midnightblue" stroke="midnightblue" points="740.07,-34.64 744.74,-25.13 735.16,-29.65 740.07,-34.64"/>
</g>
<!-- Node13 -->
<g id="node13" class="node">
<title>Node13</title>
<g id="a_node13"><a xlink:title=" ">
<polygon fill="none" stroke="#bfbfbf" points="826.5,-6 826.5,-25 956.5,-25 956.5,-6 826.5,-6"/>
<text text-anchor="middle" x="891.5" y="-13" font-family="Helvetica,sans-Serif" font-size="10.00">G4VDiscreteProcess.hh</text>
</a>
</g>
</g>
<!-- Node9&#45;&gt;Node13 -->
<g id="edge12" class="edge">
<title>Node9&#45;&gt;Node13</title>
<path fill="none" stroke="midnightblue" d="M714.59,-72.87C750.66,-61.38 814.58,-41.01 854.91,-28.16"/>
<polygon fill="midnightblue" stroke="midnightblue" points="856.16,-31.43 864.62,-25.06 854.03,-24.76 856.16,-31.43"/>
</g>
<!-- Node14 -->
<g id="node14" class="node">
<title>Node14</title>
<g id="a_node14"><a xlink:title=" ">
<polygon fill="none" stroke="#bfbfbf" points="975,-6 975,-25 1132,-25 1132,-6 975,-6"/>
<text text-anchor="middle" x="1053.5" y="-13" font-family="Helvetica,sans-Serif" font-size="10.00">G4VUserTrackInformation.hh</text>
</a>
</g>
</g>
<!-- Node9&#45;&gt;Node14 -->
<g id="edge13" class="edge">
<title>Node9&#45;&gt;Node14</title>
<path fill="none" stroke="midnightblue" d="M735.72,-72.94C802.61,-61.06 923.38,-39.61 995.23,-26.85"/>
<polygon fill="midnightblue" stroke="midnightblue" points="996.23,-30.23 1005.46,-25.03 995,-23.33 996.23,-30.23"/>
</g>
</g>
</svg>
