<?xml version="1.0" encoding="UTF-8" standalone="no"?>
<!DOCTYPE svg PUBLIC "-//W3C//DTD SVG 1.1//EN"
 "http://www.w3.org/Graphics/SVG/1.1/DTD/svg11.dtd">
<!-- Generated by graphviz version 2.43.0 (0)
 -->
<!-- Title: OMSimHitManager.hh Pages: 1 -->
<svg width="827pt" height="196pt"
 viewBox="0.00 0.00 827.00 196.00" xmlns="http://www.w3.org/2000/svg" xmlns:xlink="http://www.w3.org/1999/xlink">
<g id="graph0" class="graph" transform="scale(1 1) rotate(0) translate(4 192)">
<title>OMSimHitManager.hh</title>
<polygon fill="white" stroke="transparent" points="-4,4 -4,-192 823,-192 823,4 -4,4"/>
<!-- Node1 -->
<g id="node1" class="node">
<title>Node1</title>
<g id="a_node1"><a xlink:title="Defines structures and classes related to optical module photon hit management.">
<polygon fill="#bfbfbf" stroke="black" points="552,-168.5 552,-187.5 675,-187.5 675,-168.5 552,-168.5"/>
<text text-anchor="middle" x="613.5" y="-175.5" font-family="Helvetica,sans-Serif" font-size="10.00">OMSimHitManager.hh</text>
</a>
</g>
</g>
<!-- Node2 -->
<g id="node2" class="node">
<title>Node2</title>
<g id="a_node2"><a xlink:href="_o_m_sim_p_m_t_response_8hh.html" target="_top" xlink:title="Provides simulation for PMT response. This class is responsible for transforming hits on photocathode...">
<polygon fill="white" stroke="black" points="180,-56.5 180,-75.5 315,-75.5 315,-56.5 180,-56.5"/>
<text text-anchor="middle" x="247.5" y="-63.5" font-family="Helvetica,sans-Serif" font-size="10.00">OMSimPMTResponse.hh</text>
</a>
</g>
</g>
<!-- Node1&#45;&gt;Node2 -->
<g id="edge1" class="edge">
<title>Node1&#45;&gt;Node2</title>
<path fill="none" stroke="midnightblue" d="M585.09,-168.46C519.88,-148.86 359.45,-100.65 285.71,-78.48"/>
<polygon fill="midnightblue" stroke="midnightblue" points="286.48,-75.06 275.9,-75.53 284.47,-81.76 286.48,-75.06"/>
</g>
<!-- Node8 -->
<g id="node8" class="node">
<title>Node8</title>
<g id="a_node8"><a xlink:href="_o_m_sim_sensitive_detector_8hh.html" target="_top" xlink:title=" ">
<polygon fill="white" stroke="black" points="485,-112.5 485,-131.5 638,-131.5 638,-112.5 485,-112.5"/>
<text text-anchor="middle" x="561.5" y="-119.5" font-family="Helvetica,sans-Serif" font-size="10.00">OMSimSensitiveDetector.hh</text>
</a>
</g>
</g>
<!-- Node1&#45;&gt;Node8 -->
<g id="edge7" class="edge">
<title>Node1&#45;&gt;Node8</title>
<path fill="none" stroke="midnightblue" d="M604.91,-168.08C597.34,-160.22 586.12,-148.57 576.99,-139.08"/>
<polygon fill="midnightblue" stroke="midnightblue" points="579.38,-136.53 569.93,-131.75 574.34,-141.38 579.38,-136.53"/>
</g>
<!-- Node10 -->
<g id="node10" class="node">
<title>Node10</title>
<g id="a_node10"><a xlink:title=" ">
<polygon fill="white" stroke="#bfbfbf" points="716,-56.5 716,-75.5 819,-75.5 819,-56.5 716,-56.5"/>
<text text-anchor="middle" x="767.5" y="-63.5" font-family="Helvetica,sans-Serif" font-size="10.00">G4ThreeVector.hh</text>
</a>
</g>
</g>
<!-- Node1&#45;&gt;Node10 -->
<g id="edge13" class="edge">
<title>Node1&#45;&gt;Node10</title>
<path fill="none" stroke="midnightblue" d="M621.96,-168.33C635.04,-155.19 661.32,-129.88 686.5,-112 703.61,-99.86 724.3,-88.41 740.49,-80.1"/>
<polygon fill="midnightblue" stroke="midnightblue" points="742.09,-83.21 749.44,-75.59 738.94,-76.96 742.09,-83.21"/>
</g>
<!-- Node13 -->
<g id="node13" class="node">
<title>Node13</title>
<g id="a_node13"><a xlink:title=" ">
<polygon fill="white" stroke="#bfbfbf" points="695,-112.5 695,-131.5 750,-131.5 750,-112.5 695,-112.5"/>
<text text-anchor="middle" x="722.5" y="-119.5" font-family="Helvetica,sans-Serif" font-size="10.00">fstream</text>
</a>
</g>
</g>
<!-- Node1&#45;&gt;Node13 -->
<g id="edge14" class="edge">
<title>Node1&#45;&gt;Node13</title>
<path fill="none" stroke="midnightblue" d="M631.01,-168.32C648.57,-159.62 675.83,-146.12 696.03,-136.11"/>
<polygon fill="midnightblue" stroke="midnightblue" points="697.62,-139.23 705.03,-131.65 694.52,-132.96 697.62,-139.23"/>
</g>
<!-- Node3 -->
<g id="node3" class="node">
<title>Node3</title>
<g id="a_node3"><a xlink:title=" ">
<polygon fill="white" stroke="#bfbfbf" points="0,-0.5 0,-19.5 119,-19.5 119,-0.5 0,-0.5"/>
<text text-anchor="middle" x="59.5" y="-7.5" font-family="Helvetica,sans-Serif" font-size="10.00">G4SystemOfUnits.hh</text>
</a>
</g>
</g>
<!-- Node2&#45;&gt;Node3 -->
<g id="edge2" class="edge">
<title>Node2&#45;&gt;Node3</title>
<path fill="none" stroke="midnightblue" d="M217.71,-56.44C185.67,-47.24 134.57,-32.56 99.15,-22.39"/>
<polygon fill="midnightblue" stroke="midnightblue" points="99.73,-18.91 89.15,-19.52 97.79,-25.64 99.73,-18.91"/>
</g>
<!-- Node4 -->
<g id="node4" class="node">
<title>Node4</title>
<g id="a_node4"><a xlink:title=" ">
<polygon fill="white" stroke="#bfbfbf" points="137,-0.5 137,-19.5 210,-19.5 210,-0.5 137,-0.5"/>
<text text-anchor="middle" x="173.5" y="-7.5" font-family="Helvetica,sans-Serif" font-size="10.00">G4Types.hh</text>
</a>
</g>
</g>
<!-- Node2&#45;&gt;Node4 -->
<g id="edge3" class="edge">
<title>Node2&#45;&gt;Node4</title>
<path fill="none" stroke="midnightblue" d="M235.61,-56.32C224.35,-48.11 207.21,-35.6 193.79,-25.81"/>
<polygon fill="midnightblue" stroke="midnightblue" points="195.75,-22.9 185.61,-19.83 191.62,-28.56 195.75,-22.9"/>
</g>
<!-- Node5 -->
<g id="node5" class="node">
<title>Node5</title>
<g id="a_node5"><a xlink:title=" ">
<polygon fill="white" stroke="#bfbfbf" points="228.5,-0.5 228.5,-19.5 266.5,-19.5 266.5,-0.5 228.5,-0.5"/>
<text text-anchor="middle" x="247.5" y="-7.5" font-family="Helvetica,sans-Serif" font-size="10.00">map</text>
</a>
</g>
</g>
<!-- Node2&#45;&gt;Node5 -->
<g id="edge4" class="edge">
<title>Node2&#45;&gt;Node5</title>
<path fill="none" stroke="midnightblue" d="M247.5,-56.08C247.5,-49.01 247.5,-38.86 247.5,-29.99"/>
<polygon fill="midnightblue" stroke="midnightblue" points="251,-29.75 247.5,-19.75 244,-29.75 251,-29.75"/>
</g>
<!-- Node6 -->
<g id="node6" class="node">
<title>Node6</title>
<g id="a_node6"><a xlink:title=" ">
<polygon fill="white" stroke="#bfbfbf" points="285,-0.5 285,-19.5 346,-19.5 346,-0.5 285,-0.5"/>
<text text-anchor="middle" x="315.5" y="-7.5" font-family="Helvetica,sans-Serif" font-size="10.00">TGraph.h</text>
</a>
</g>
</g>
<!-- Node2&#45;&gt;Node6 -->
<g id="edge5" class="edge">
<title>Node2&#45;&gt;Node6</title>
<path fill="none" stroke="midnightblue" d="M258.43,-56.32C268.67,-48.18 284.22,-35.84 296.5,-26.09"/>
<polygon fill="midnightblue" stroke="midnightblue" points="298.72,-28.79 304.38,-19.83 294.37,-23.31 298.72,-28.79"/>
</g>
<!-- Node7 -->
<g id="node7" class="node">
<title>Node7</title>
<g id="a_node7"><a xlink:title=" ">
<polygon fill="white" stroke="#bfbfbf" points="364,-0.5 364,-19.5 417,-19.5 417,-0.5 364,-0.5"/>
<text text-anchor="middle" x="390.5" y="-7.5" font-family="Helvetica,sans-Serif" font-size="10.00">TH2D.h</text>
</a>
</g>
</g>
<!-- Node2&#45;&gt;Node7 -->
<g id="edge6" class="edge">
<title>Node2&#45;&gt;Node7</title>
<path fill="none" stroke="midnightblue" d="M270.16,-56.44C293.9,-47.48 331.41,-33.31 358.24,-23.18"/>
<polygon fill="midnightblue" stroke="midnightblue" points="359.83,-26.32 367.95,-19.52 357.36,-19.77 359.83,-26.32"/>
</g>
<!-- Node8&#45;&gt;Node2 -->
<g id="edge10" class="edge">
<title>Node8&#45;&gt;Node2</title>
<path fill="none" stroke="midnightblue" d="M511.75,-112.44C456.17,-102.89 366.24,-87.42 306.98,-77.23"/>
<polygon fill="midnightblue" stroke="midnightblue" points="307.47,-73.76 297.02,-75.52 306.28,-80.66 307.47,-73.76"/>
</g>
<!-- Node9 -->
<g id="node9" class="node">
<title>Node9</title>
<g id="a_node9"><a xlink:title=" ">
<polygon fill="white" stroke="#bfbfbf" points="333.5,-56.5 333.5,-75.5 471.5,-75.5 471.5,-56.5 333.5,-56.5"/>
<text text-anchor="middle" x="402.5" y="-63.5" font-family="Helvetica,sans-Serif" font-size="10.00">G4VSensitiveDetector.hh</text>
</a>
</g>
</g>
<!-- Node8&#45;&gt;Node9 -->
<g id="edge8" class="edge">
<title>Node8&#45;&gt;Node9</title>
<path fill="none" stroke="midnightblue" d="M536.31,-112.44C509.56,-103.36 467.1,-88.94 437.19,-78.78"/>
<polygon fill="midnightblue" stroke="midnightblue" points="438.17,-75.42 427.58,-75.52 435.92,-82.05 438.17,-75.42"/>
</g>
<!-- Node8&#45;&gt;Node10 -->
<g id="edge9" class="edge">
<title>Node8&#45;&gt;Node10</title>
<path fill="none" stroke="midnightblue" d="M594.14,-112.44C629.55,-103.16 686.21,-88.31 725.05,-78.13"/>
<polygon fill="midnightblue" stroke="midnightblue" points="726.23,-81.44 735.01,-75.52 724.45,-74.67 726.23,-81.44"/>
</g>
<!-- Node11 -->
<g id="node11" class="node">
<title>Node11</title>
<g id="a_node11"><a xlink:title=" ">
<polygon fill="white" stroke="#bfbfbf" points="490,-56.5 490,-75.5 633,-75.5 633,-56.5 490,-56.5"/>
<text text-anchor="middle" x="561.5" y="-63.5" font-family="Helvetica,sans-Serif" font-size="10.00">G4OpBoundaryProcess.hh</text>
</a>
</g>
</g>
<!-- Node8&#45;&gt;Node11 -->
<g id="edge11" class="edge">
<title>Node8&#45;&gt;Node11</title>
<path fill="none" stroke="midnightblue" d="M561.5,-112.08C561.5,-105.01 561.5,-94.86 561.5,-85.99"/>
<polygon fill="midnightblue" stroke="midnightblue" points="565,-85.75 561.5,-75.75 558,-85.75 565,-85.75"/>
</g>
<!-- Node12 -->
<g id="node12" class="node">
<title>Node12</title>
<g id="a_node12"><a xlink:title=" ">
<polygon fill="white" stroke="#bfbfbf" points="651,-56.5 651,-75.5 698,-75.5 698,-56.5 651,-56.5"/>
<text text-anchor="middle" x="674.5" y="-63.5" font-family="Helvetica,sans-Serif" font-size="10.00">vector</text>
</a>
</g>
</g>
<!-- Node8&#45;&gt;Node12 -->
<g id="edge12" class="edge">
<title>Node8&#45;&gt;Node12</title>
<path fill="none" stroke="midnightblue" d="M579.41,-112.44C597.75,-103.68 626.51,-89.94 647.59,-79.86"/>
<polygon fill="midnightblue" stroke="midnightblue" points="649.17,-82.99 656.68,-75.52 646.15,-76.67 649.17,-82.99"/>
</g>
</g>
</svg>
