<?xml version="1.0" encoding="UTF-8" standalone="no"?>
<!DOCTYPE svg PUBLIC "-//W3C//DTD SVG 1.1//EN"
 "http://www.w3.org/Graphics/SVG/1.1/DTD/svg11.dtd">
<!-- Generated by graphviz version 2.43.0 (0)
 -->
<!-- Title: OMSim_effective_area.cc Pages: 1 -->
<svg width="2224pt" height="368pt"
 viewBox="0.00 0.00 2224.00 368.00" xmlns="http://www.w3.org/2000/svg" xmlns:xlink="http://www.w3.org/1999/xlink">
<g id="graph0" class="graph" transform="scale(1 1) rotate(0) translate(4 364)">
<title>OMSim_effective_area.cc</title>
<!-- Node1 -->
<g id="Node000001" class="node">
<title>Node1</title>
<g id="a_Node000001"><a xlink:title="Main for the calculation of effective areas.">
<polygon fill="#999999" stroke="#666666" points="458.5,-360 318.5,-360 318.5,-341 458.5,-341 458.5,-360"/>
<text text-anchor="middle" x="388.5" y="-348" font-family="Helvetica,sans-Serif" font-size="10.00">OMSim_effective_area.cc</text>
</a>
</g>
</g>
<!-- Node2 -->
<g id="Node000002" class="node">
<title>Node2</title>
<g id="a_Node000002"><a xlink:href="_o_m_sim_8hh.html" target="_top" xlink:title="Main simulation class for the Optical Module (OM) simulation. This file defines the OMSim class,...">
<polygon fill="white" stroke="#666666" points="1250,-305 1183,-305 1183,-286 1250,-286 1250,-305"/>
<text text-anchor="middle" x="1216.5" y="-293" font-family="Helvetica,sans-Serif" font-size="10.00">OMSim.hh</text>
</a>
</g>
</g>
<!-- Node1&#45;&gt;Node2 -->
<g id="edge1_Node000001_Node000002" class="edge">
<title>Node1&#45;&gt;Node2</title>
<g id="a_edge1_Node000001_Node000002"><a xlink:title=" ">
<path fill="none" stroke="#63b8ff" d="M458.74,-345C624.67,-334.38 1037.12,-307.98 1172.61,-299.31"/>
<polygon fill="#63b8ff" stroke="#63b8ff" points="1172.87,-302.8 1182.62,-298.67 1172.42,-295.81 1172.87,-302.8"/>
</a>
</g>
</g>
<!-- Node59 -->
<g id="Node000059" class="node">
<title>Node59</title>
<g id="a_Node000059"><a xlink:href="_o_m_sim_angular_scan_8hh.html" target="_top" xlink:title="Defines the AngularScan class for configuring and running GPS beam with angular scans.">
<polygon fill="white" stroke="#666666" points="358.5,-305 230.5,-305 230.5,-286 358.5,-286 358.5,-305"/>
<text text-anchor="middle" x="294.5" y="-293" font-family="Helvetica,sans-Serif" font-size="10.00">OMSimAngularScan.hh</text>
</a>
</g>
</g>
<!-- Node1&#45;&gt;Node59 -->
<g id="edge50_Node000001_Node000059" class="edge">
<title>Node1&#45;&gt;Node59</title>
<g id="a_edge50_Node000001_Node000059"><a xlink:title=" ">
<path fill="none" stroke="#63b8ff" d="M373.4,-340.98C358.68,-332.69 336.08,-319.94 318.83,-310.22"/>
<polygon fill="#63b8ff" stroke="#63b8ff" points="320.31,-307.03 309.88,-305.17 316.87,-313.13 320.31,-307.03"/>
</a>
</g>
</g>
<!-- Node61 -->
<g id="Node000061" class="node">
<title>Node61</title>
<g id="a_Node000061"><a xlink:href="_o_m_sim_effective_area_analyisis_8hh_source.html" target="_top" xlink:title=" ">
<polygon fill="white" stroke="#666666" points="476.5,-195 300.5,-195 300.5,-176 476.5,-176 476.5,-195"/>
<text text-anchor="middle" x="388.5" y="-183" font-family="Helvetica,sans-Serif" font-size="10.00">OMSimEffectiveAreaAnalyisis.hh</text>
</a>
</g>
</g>
<!-- Node1&#45;&gt;Node61 -->
<g id="edge52_Node000001_Node000061" class="edge">
<title>Node1&#45;&gt;Node61</title>
<g id="a_edge52_Node000001_Node000061"><a xlink:title=" ">
<path fill="none" stroke="#63b8ff" d="M388.5,-340.74C388.5,-315.31 388.5,-241.08 388.5,-205.69"/>
<polygon fill="#63b8ff" stroke="#63b8ff" points="392,-205.31 388.5,-195.31 385,-205.31 392,-205.31"/>
</a>
</g>
</g>
<!-- Node62 -->
<g id="Node000062" class="node">
<title>Node62</title>
<g id="a_Node000062"><a xlink:href="_o_m_sim_effective_area_detector_8hh.html" target="_top" xlink:title="Defines the OMSimEffectiveAreaDetector class for effective area simulation detector construction.">
<polygon fill="white" stroke="#666666" points="638,-305 465,-305 465,-286 638,-286 638,-305"/>
<text text-anchor="middle" x="551.5" y="-293" font-family="Helvetica,sans-Serif" font-size="10.00">OMSimEffectiveAreaDetector.hh</text>
</a>
</g>
</g>
<!-- Node1&#45;&gt;Node62 -->
<g id="edge57_Node000001_Node000062" class="edge">
<title>Node1&#45;&gt;Node62</title>
<g id="a_edge57_Node000001_Node000062"><a xlink:title=" ">
<path fill="none" stroke="#63b8ff" d="M414.69,-340.98C441.94,-332.13 484.8,-318.19 515.28,-308.28"/>
<polygon fill="#63b8ff" stroke="#63b8ff" points="516.68,-311.5 525.11,-305.08 514.51,-304.85 516.68,-311.5"/>
</a>
</g>
</g>
<!-- Node63 -->
<g id="Node000063" class="node">
<title>Node63</title>
<g id="a_Node000063"><a xlink:href="_o_m_sim_tools_8hh.html" target="_top" xlink:title="Definition of Tools namespace, a collection of helper methods.">
<polygon fill="white" stroke="#666666" points="237.5,-195 145.5,-195 145.5,-176 237.5,-176 237.5,-195"/>
<text text-anchor="middle" x="191.5" y="-183" font-family="Helvetica,sans-Serif" font-size="10.00">OMSimTools.hh</text>
</a>
</g>
</g>
<!-- Node1&#45;&gt;Node63 -->
<g id="edge59_Node000001_Node000063" class="edge">
<title>Node1&#45;&gt;Node63</title>
<g id="a_edge59_Node000001_Node000063"><a xlink:title=" ">
<path fill="none" stroke="#63b8ff" d="M318.18,-346.8C284.76,-341.9 246.7,-330.51 221.5,-305 194.87,-278.04 190.79,-231.03 190.76,-205.06"/>
<polygon fill="#63b8ff" stroke="#63b8ff" points="194.26,-205.12 190.96,-195.05 187.27,-204.98 194.26,-205.12"/>
</a>
</g>
</g>
<!-- Node3 -->
<g id="Node000003" class="node">
<title>Node3</title>
<g id="a_Node000003"><a xlink:href="_o_m_sim_detector_construction_8hh_source.html" target="_top" xlink:title=" ">
<polygon fill="white" stroke="#666666" points="684.5,-250 514.5,-250 514.5,-231 684.5,-231 684.5,-250"/>
<text text-anchor="middle" x="599.5" y="-238" font-family="Helvetica,sans-Serif" font-size="10.00">OMSimDetectorConstruction.hh</text>
</a>
</g>
</g>
<!-- Node2&#45;&gt;Node3 -->
<g id="edge2_Node000002_Node000003" class="edge">
<title>Node2&#45;&gt;Node3</title>
<g id="a_edge2_Node000002_Node000003"><a xlink:title=" ">
<path fill="none" stroke="#63b8ff" d="M1182.84,-291.7C1101.21,-284.89 885.98,-266.86 694.79,-250.11"/>
<polygon fill="#63b8ff" stroke="#63b8ff" points="694.82,-246.6 684.55,-249.21 694.21,-253.57 694.82,-246.6"/>
</a>
</g>
</g>
<!-- Node39 -->
<g id="Node000039" class="node">
<title>Node39</title>
<g id="a_Node000039"><a xlink:title=" ">
<polygon fill="#e0e0e0" stroke="#999999" points="1416,-250 1295,-250 1295,-231 1416,-231 1416,-250"/>
<text text-anchor="middle" x="1355.5" y="-238" font-family="Helvetica,sans-Serif" font-size="10.00">OMSimPhysicsList.hh</text>
</a>
</g>
</g>
<!-- Node2&#45;&gt;Node39 -->
<g id="edge22_Node000002_Node000039" class="edge">
<title>Node2&#45;&gt;Node39</title>
<g id="a_edge22_Node000002_Node000039"><a xlink:title=" ">
<path fill="none" stroke="#63b8ff" d="M1238.83,-285.98C1261.7,-277.27 1297.46,-263.63 1323.36,-253.75"/>
<polygon fill="#63b8ff" stroke="#63b8ff" points="1324.66,-257 1332.76,-250.17 1322.17,-250.46 1324.66,-257"/>
</a>
</g>
</g>
<!-- Node40 -->
<g id="Node000040" class="node">
<title>Node40</title>
<g id="a_Node000040"><a xlink:title=" ">
<polygon fill="#e0e0e0" stroke="#999999" points="1619,-250 1434,-250 1434,-231 1619,-231 1619,-250"/>
<text text-anchor="middle" x="1526.5" y="-238" font-family="Helvetica,sans-Serif" font-size="10.00">OMSimPrimaryGeneratorAction.hh</text>
</a>
</g>
</g>
<!-- Node2&#45;&gt;Node40 -->
<g id="edge23_Node000002_Node000040" class="edge">
<title>Node2&#45;&gt;Node40</title>
<g id="a_edge23_Node000002_Node000040"><a xlink:title=" ">
<path fill="none" stroke="#63b8ff" d="M1250.27,-288.73C1302.18,-279.85 1402.32,-262.73 1466.7,-251.72"/>
<polygon fill="#63b8ff" stroke="#63b8ff" points="1467.45,-255.15 1476.71,-250.01 1466.27,-248.25 1467.45,-255.15"/>
</a>
</g>
</g>
<!-- Node41 -->
<g id="Node000041" class="node">
<title>Node41</title>
<g id="a_Node000041"><a xlink:href="_o_m_sim_run_action_8hh_source.html" target="_top" xlink:title=" ">
<polygon fill="white" stroke="#666666" points="1088.5,-195 972.5,-195 972.5,-176 1088.5,-176 1088.5,-195"/>
<text text-anchor="middle" x="1030.5" y="-183" font-family="Helvetica,sans-Serif" font-size="10.00">OMSimRunAction.hh</text>
</a>
</g>
</g>
<!-- Node2&#45;&gt;Node41 -->
<g id="edge24_Node000002_Node000041" class="edge">
<title>Node2&#45;&gt;Node41</title>
<g id="a_edge24_Node000002_Node000041"><a xlink:title=" ">
<path fill="none" stroke="#63b8ff" d="M1201.86,-285.81C1181.13,-273.52 1142,-250.4 1108.5,-231 1090.51,-220.58 1070.1,-208.94 1054.68,-200.18"/>
<polygon fill="#63b8ff" stroke="#63b8ff" points="1056.2,-197.03 1045.78,-195.14 1052.75,-203.12 1056.2,-197.03"/>
</a>
</g>
</g>
<!-- Node45 -->
<g id="Node000045" class="node">
<title>Node45</title>
<g id="a_Node000045"><a xlink:title=" ">
<polygon fill="#e0e0e0" stroke="#999999" points="1762,-250 1637,-250 1637,-231 1762,-231 1762,-250"/>
<text text-anchor="middle" x="1699.5" y="-238" font-family="Helvetica,sans-Serif" font-size="10.00">OMSimEventAction.hh</text>
</a>
</g>
</g>
<!-- Node2&#45;&gt;Node45 -->
<g id="edge34_Node000002_Node000045" class="edge">
<title>Node2&#45;&gt;Node45</title>
<g id="a_edge34_Node000002_Node000045"><a xlink:title=" ">
<path fill="none" stroke="#63b8ff" d="M1250.08,-290.98C1318.63,-283.76 1479.9,-266.65 1626.59,-250.09"/>
<polygon fill="#63b8ff" stroke="#63b8ff" points="1627.13,-253.55 1636.68,-248.95 1626.35,-246.6 1627.13,-253.55"/>
</a>
</g>
</g>
<!-- Node46 -->
<g id="Node000046" class="node">
<title>Node46</title>
<g id="a_Node000046"><a xlink:href="_o_m_sim_tracking_action_8hh_source.html" target="_top" xlink:title=" ">
<polygon fill="white" stroke="#666666" points="1918.5,-250 1780.5,-250 1780.5,-231 1918.5,-231 1918.5,-250"/>
<text text-anchor="middle" x="1849.5" y="-238" font-family="Helvetica,sans-Serif" font-size="10.00">OMSimTrackingAction.hh</text>
</a>
</g>
</g>
<!-- Node2&#45;&gt;Node46 -->
<g id="edge35_Node000002_Node000046" class="edge">
<title>Node2&#45;&gt;Node46</title>
<g id="a_edge35_Node000002_Node000046"><a xlink:title=" ">
<path fill="none" stroke="#63b8ff" d="M1250.25,-292.11C1335.39,-286.01 1565.97,-269.06 1770.14,-250.01"/>
<polygon fill="#63b8ff" stroke="#63b8ff" points="1770.52,-253.49 1780.15,-249.07 1769.87,-246.52 1770.52,-253.49"/>
</a>
</g>
</g>
<!-- Node48 -->
<g id="Node000048" class="node">
<title>Node48</title>
<g id="a_Node000048"><a xlink:href="_o_m_sim_stepping_action_8hh.html" target="_top" xlink:title="Defines OMSimSteppingAction.Currently it only checks for trapped photons.">
<polygon fill="white" stroke="#666666" points="2076.5,-250 1936.5,-250 1936.5,-231 2076.5,-231 2076.5,-250"/>
<text text-anchor="middle" x="2006.5" y="-238" font-family="Helvetica,sans-Serif" font-size="10.00">OMSimSteppingAction.hh</text>
</a>
</g>
</g>
<!-- Node2&#45;&gt;Node48 -->
<g id="edge37_Node000002_Node000048" class="edge">
<title>Node2&#45;&gt;Node48</title>
<g id="a_edge37_Node000002_Node000048"><a xlink:title=" ">
<path fill="none" stroke="#63b8ff" d="M1250.22,-292.93C1351.04,-288.1 1659.21,-272.54 1926.03,-250.09"/>
<polygon fill="#63b8ff" stroke="#63b8ff" points="1926.64,-253.55 1936.3,-249.22 1926.04,-246.57 1926.64,-253.55"/>
</a>
</g>
</g>
<!-- Node50 -->
<g id="Node000050" class="node">
<title>Node50</title>
<g id="a_Node000050"><a xlink:href="_o_m_sim_u_iinterface_8hh.html" target="_top" xlink:title=" ">
<polygon fill="white" stroke="#666666" points="1277,-250 1156,-250 1156,-231 1277,-231 1277,-250"/>
<text text-anchor="middle" x="1216.5" y="-238" font-family="Helvetica,sans-Serif" font-size="10.00">OMSimUIinterface.hh</text>
</a>
</g>
</g>
<!-- Node2&#45;&gt;Node50 -->
<g id="edge39_Node000002_Node000050" class="edge">
<title>Node2&#45;&gt;Node50</title>
<g id="a_edge39_Node000002_Node000050"><a xlink:title=" ">
<path fill="none" stroke="#63b8ff" d="M1216.5,-285.75C1216.5,-278.8 1216.5,-268.85 1216.5,-260.13"/>
<polygon fill="#63b8ff" stroke="#63b8ff" points="1220,-260.09 1216.5,-250.09 1213,-260.09 1220,-260.09"/>
</a>
</g>
</g>
<!-- Node55 -->
<g id="Node000055" class="node">
<title>Node55</title>
<g id="a_Node000055"><a xlink:title=" ">
<polygon fill="#e0e0e0" stroke="#999999" points="2216,-250 2095,-250 2095,-231 2216,-231 2216,-250"/>
<text text-anchor="middle" x="2155.5" y="-238" font-family="Helvetica,sans-Serif" font-size="10.00">G4MTRunManager.hh</text>
</a>
</g>
</g>
<!-- Node2&#45;&gt;Node55 -->
<g id="edge46_Node000002_Node000055" class="edge">
<title>Node2&#45;&gt;Node55</title>
<g id="a_edge46_Node000002_Node000055"><a xlink:title=" ">
<path fill="none" stroke="#63b8ff" d="M1250.11,-293.62C1364.98,-290.44 1752.72,-278.25 2084.53,-250.01"/>
<polygon fill="#63b8ff" stroke="#63b8ff" points="2085.16,-253.47 2094.82,-249.13 2084.56,-246.5 2085.16,-253.47"/>
</a>
</g>
</g>
<!-- Node56 -->
<g id="Node000056" class="node">
<title>Node56</title>
<g id="a_Node000056"><a xlink:title=" ">
<polygon fill="#e0e0e0" stroke="#999999" points="810,-250 703,-250 703,-231 810,-231 810,-250"/>
<text text-anchor="middle" x="756.5" y="-238" font-family="Helvetica,sans-Serif" font-size="10.00">G4VisExecutive.hh</text>
</a>
</g>
</g>
<!-- Node2&#45;&gt;Node56 -->
<g id="edge47_Node000002_Node000056" class="edge">
<title>Node2&#45;&gt;Node56</title>
<g id="a_edge47_Node000002_Node000056"><a xlink:title=" ">
<path fill="none" stroke="#63b8ff" d="M1182.92,-291.03C1115.97,-284.05 960.88,-267.58 820.35,-250.21"/>
<polygon fill="#63b8ff" stroke="#63b8ff" points="820.61,-246.71 810.26,-248.95 819.75,-253.66 820.61,-246.71"/>
</a>
</g>
</g>
<!-- Node57 -->
<g id="Node000057" class="node">
<title>Node57</title>
<g id="a_Node000057"><a xlink:title=" ">
<polygon fill="#e0e0e0" stroke="#999999" points="931,-250 828,-250 828,-231 931,-231 931,-250"/>
<text text-anchor="middle" x="879.5" y="-238" font-family="Helvetica,sans-Serif" font-size="10.00">G4UIExecutive.hh</text>
</a>
</g>
</g>
<!-- Node2&#45;&gt;Node57 -->
<g id="edge48_Node000002_Node000057" class="edge">
<title>Node2&#45;&gt;Node57</title>
<g id="a_edge48_Node000002_Node000057"><a xlink:title=" ">
<path fill="none" stroke="#63b8ff" d="M1182.96,-289.22C1126.7,-280.38 1012.54,-262.42 941.4,-251.23"/>
<polygon fill="#63b8ff" stroke="#63b8ff" points="941.65,-247.73 931.23,-249.63 940.56,-254.65 941.65,-247.73"/>
</a>
</g>
</g>
<!-- Node58 -->
<g id="Node000058" class="node">
<title>Node58</title>
<g id="a_Node000058"><a xlink:title=" ">
<polygon fill="#e0e0e0" stroke="#999999" points="1099.5,-250 949.5,-250 949.5,-231 1099.5,-231 1099.5,-250"/>
<text text-anchor="middle" x="1024.5" y="-238" font-family="Helvetica,sans-Serif" font-size="10.00">boost/program_options.hpp</text>
</a>
</g>
</g>
<!-- Node2&#45;&gt;Node58 -->
<g id="edge49_Node000002_Node000058" class="edge">
<title>Node2&#45;&gt;Node58</title>
<g id="a_edge49_Node000002_Node000058"><a xlink:title=" ">
<path fill="none" stroke="#63b8ff" d="M1185.65,-285.98C1153,-276.97 1101.3,-262.7 1065.3,-252.76"/>
<polygon fill="#63b8ff" stroke="#63b8ff" points="1066.16,-249.37 1055.59,-250.08 1064.3,-256.12 1066.16,-249.37"/>
</a>
</g>
</g>
<!-- Node4 -->
<g id="Node000004" class="node">
<title>Node4</title>
<g id="a_Node000004"><a xlink:href="_o_m_sim_optical_module_8hh_source.html" target="_top" xlink:title=" ">
<polygon fill="white" stroke="#666666" points="656,-195 519,-195 519,-176 656,-176 656,-195"/>
<text text-anchor="middle" x="587.5" y="-183" font-family="Helvetica,sans-Serif" font-size="10.00">OMSimOpticalModule.hh</text>
</a>
</g>
</g>
<!-- Node3&#45;&gt;Node4 -->
<g id="edge3_Node000003_Node000004" class="edge">
<title>Node3&#45;&gt;Node4</title>
<g id="a_edge3_Node000003_Node000004"><a xlink:title=" ">
<path fill="none" stroke="#63b8ff" d="M597.52,-230.75C595.93,-223.72 593.64,-213.62 591.65,-204.84"/>
<polygon fill="#63b8ff" stroke="#63b8ff" points="595.07,-204.07 589.44,-195.09 588.24,-205.62 595.07,-204.07"/>
</a>
</g>
</g>
<!-- Node37 -->
<g id="Node000037" class="node">
<title>Node37</title>
<g id="a_Node000037"><a xlink:title=" ">
<polygon fill="#e0e0e0" stroke="#999999" points="932.5,-195 870.5,-195 870.5,-176 932.5,-176 932.5,-195"/>
<text text-anchor="middle" x="901.5" y="-183" font-family="Helvetica,sans-Serif" font-size="10.00">G4Orb.hh</text>
</a>
</g>
</g>
<!-- Node3&#45;&gt;Node37 -->
<g id="edge20_Node000003_Node000037" class="edge">
<title>Node3&#45;&gt;Node37</title>
<g id="a_edge20_Node000003_Node000037"><a xlink:title=" ">
<path fill="none" stroke="#63b8ff" d="M653.56,-230.98C704.44,-222.82 783.01,-209.82 860.19,-195.19"/>
<polygon fill="#63b8ff" stroke="#63b8ff" points="860.91,-198.62 870.08,-193.3 859.6,-191.74 860.91,-198.62"/>
</a>
</g>
</g>
<!-- Node38 -->
<g id="Node000038" class="node">
<title>Node38</title>
<g id="a_Node000038"><a xlink:title=" ">
<polygon fill="#e0e0e0" stroke="#999999" points="852.5,-195 674.5,-195 674.5,-176 852.5,-176 852.5,-195"/>
<text text-anchor="middle" x="763.5" y="-183" font-family="Helvetica,sans-Serif" font-size="10.00">G4VUserDetectorConstruction.hh</text>
</a>
</g>
</g>
<!-- Node3&#45;&gt;Node38 -->
<g id="edge21_Node000003_Node000038" class="edge">
<title>Node3&#45;&gt;Node38</title>
<g id="a_edge21_Node000003_Node000038"><a xlink:title=" ">
<path fill="none" stroke="#63b8ff" d="M625.85,-230.98C653.26,-222.13 696.39,-208.19 727.06,-198.28"/>
<polygon fill="#63b8ff" stroke="#63b8ff" points="728.5,-201.49 736.94,-195.08 726.35,-194.83 728.5,-201.49"/>
</a>
</g>
</g>
<!-- Node5 -->
<g id="Node000005" class="node">
<title>Node5</title>
<g id="a_Node000005"><a xlink:href="_o_m_sim_detector_component_8hh.html" target="_top" xlink:title="Provides helper base class OMSimDetectorComponent for constructing and managing detector components i...">
<polygon fill="#fff0f0" stroke="red" points="953,-79.5 788,-79.5 788,-60.5 953,-60.5 953,-79.5"/>
<text text-anchor="middle" x="870.5" y="-67.5" font-family="Helvetica,sans-Serif" font-size="10.00">OMSimDetectorComponent.hh</text>
</a>
</g>
</g>
<!-- Node4&#45;&gt;Node5 -->
<g id="edge4_Node000004_Node000005" class="edge">
<title>Node4&#45;&gt;Node5</title>
<g id="a_edge4_Node000004_Node000005"><a xlink:title=" ">
<path fill="none" stroke="#63b8ff" d="M643.83,-175.96C680.42,-169.14 728.57,-157.73 768.5,-140 800.36,-125.85 833.01,-101.74 852.52,-86.09"/>
<polygon fill="#63b8ff" stroke="#63b8ff" points="854.98,-88.6 860.51,-79.57 850.55,-83.18 854.98,-88.6"/>
</a>
</g>
</g>
<!-- Node26 -->
<g id="Node000026" class="node">
<title>Node26</title>
<g id="a_Node000026"><a xlink:href="_o_m_sim_hit_manager_8hh.html" target="_top" xlink:title="Defines structures and classes related to optical module photon hit management.">
<polygon fill="white" stroke="#666666" points="537,-140 414,-140 414,-121 537,-121 537,-140"/>
<text text-anchor="middle" x="475.5" y="-128" font-family="Helvetica,sans-Serif" font-size="10.00">OMSimHitManager.hh</text>
</a>
</g>
</g>
<!-- Node4&#45;&gt;Node26 -->
<g id="edge5_Node000004_Node000026" class="edge">
<title>Node4&#45;&gt;Node26</title>
<g id="a_edge5_Node000004_Node000026"><a xlink:title=" ">
<path fill="none" stroke="#63b8ff" d="M569.51,-175.98C551.57,-167.5 523.78,-154.35 503.07,-144.54"/>
<polygon fill="#63b8ff" stroke="#63b8ff" points="504.36,-141.28 493.82,-140.17 501.36,-147.61 504.36,-141.28"/>
</a>
</g>
</g>
<!-- Node34 -->
<g id="Node000034" class="node">
<title>Node34</title>
<g id="a_Node000034"><a xlink:href="_o_m_sim_p_m_t_construction_8hh.html" target="_top" xlink:title="Construction of the PMTs.">
<polygon fill="#fff0f0" stroke="red" points="742,-140 593,-140 593,-121 742,-121 742,-140"/>
<text text-anchor="middle" x="667.5" y="-128" font-family="Helvetica,sans-Serif" font-size="10.00">OMSimPMTConstruction.hh</text>
</a>
</g>
</g>
<!-- Node4&#45;&gt;Node34 -->
<g id="edge16_Node000004_Node000034" class="edge">
<title>Node4&#45;&gt;Node34</title>
<g id="a_edge16_Node000004_Node000034"><a xlink:title=" ">
<path fill="none" stroke="#63b8ff" d="M600.35,-175.98C612.64,-167.84 631.41,-155.41 645.98,-145.76"/>
<polygon fill="#63b8ff" stroke="#63b8ff" points="648.01,-148.61 654.41,-140.17 644.14,-142.78 648.01,-148.61"/>
</a>
</g>
</g>
<!-- Node27 -->
<g id="Node000027" class="node">
<title>Node27</title>
<g id="a_Node000027"><a xlink:href="_o_m_sim_p_m_t_response_8hh.html" target="_top" xlink:title="Simulation of PMT response.">
<polygon fill="white" stroke="#666666" points="697,-79.5 562,-79.5 562,-60.5 697,-60.5 697,-79.5"/>
<text text-anchor="middle" x="629.5" y="-67.5" font-family="Helvetica,sans-Serif" font-size="10.00">OMSimPMTResponse.hh</text>
</a>
</g>
</g>
<!-- Node26&#45;&gt;Node27 -->
<g id="edge6_Node000026_Node000027" class="edge">
<title>Node26&#45;&gt;Node27</title>
<g id="a_edge6_Node000026_Node000027"><a xlink:title=" ">
<path fill="none" stroke="#63b8ff" d="M497.89,-120.99C524.12,-111.03 567.78,-94.45 597.56,-83.13"/>
<polygon fill="#63b8ff" stroke="#63b8ff" points="598.97,-86.34 607.08,-79.52 596.49,-79.8 598.97,-86.34"/>
</a>
</g>
</g>
<!-- Node32 -->
<g id="Node000032" class="node">
<title>Node32</title>
<g id="a_Node000032"><a xlink:title=" ">
<polygon fill="#e0e0e0" stroke="#999999" points="323,-79.5 220,-79.5 220,-60.5 323,-60.5 323,-79.5"/>
<text text-anchor="middle" x="271.5" y="-67.5" font-family="Helvetica,sans-Serif" font-size="10.00">G4ThreeVector.hh</text>
</a>
</g>
</g>
<!-- Node26&#45;&gt;Node32 -->
<g id="edge12_Node000026_Node000032" class="edge">
<title>Node26&#45;&gt;Node32</title>
<g id="a_edge12_Node000026_Node000032"><a xlink:title=" ">
<path fill="none" stroke="#63b8ff" d="M445.84,-120.99C410.26,-110.79 350.48,-93.65 311.02,-82.33"/>
<polygon fill="#63b8ff" stroke="#63b8ff" points="311.78,-78.91 301.2,-79.52 309.85,-85.64 311.78,-78.91"/>
</a>
</g>
</g>
<!-- Node33 -->
<g id="Node000033" class="node">
<title>Node33</title>
<g id="a_Node000033"><a xlink:title=" ">
<polygon fill="#e0e0e0" stroke="#999999" points="770,-79.5 715,-79.5 715,-60.5 770,-60.5 770,-79.5"/>
<text text-anchor="middle" x="742.5" y="-67.5" font-family="Helvetica,sans-Serif" font-size="10.00">fstream</text>
</a>
</g>
</g>
<!-- Node26&#45;&gt;Node33 -->
<g id="edge13_Node000026_Node000033" class="edge">
<title>Node26&#45;&gt;Node33</title>
<g id="a_edge13_Node000026_Node000033"><a xlink:title=" ">
<path fill="none" stroke="#63b8ff" d="M534.28,-120.97C581.14,-113.48 648.18,-101.26 705.5,-85 707.65,-84.39 709.85,-83.71 712.05,-82.99"/>
<polygon fill="#63b8ff" stroke="#63b8ff" points="713.31,-86.25 721.58,-79.63 710.98,-79.65 713.31,-86.25"/>
</a>
</g>
</g>
<!-- Node18 -->
<g id="Node000018" class="node">
<title>Node18</title>
<g id="a_Node000018"><a xlink:title=" ">
<polygon fill="#e0e0e0" stroke="#999999" points="543.5,-79.5 453.5,-79.5 453.5,-60.5 543.5,-60.5 543.5,-79.5"/>
<text text-anchor="middle" x="498.5" y="-67.5" font-family="Helvetica,sans-Serif" font-size="10.00">G4AutoLock.hh</text>
</a>
</g>
</g>
<!-- Node26&#45;&gt;Node18 -->
<g id="edge14_Node000026_Node000018" class="edge">
<title>Node26&#45;&gt;Node18</title>
<g id="a_edge14_Node000026_Node000018"><a xlink:title=" ">
<path fill="none" stroke="#63b8ff" d="M478.89,-120.87C482.16,-112.57 487.19,-99.78 491.34,-89.22"/>
<polygon fill="#63b8ff" stroke="#63b8ff" points="494.69,-90.25 495.09,-79.67 488.18,-87.69 494.69,-90.25"/>
</a>
</g>
</g>
<!-- Node19 -->
<g id="Node000019" class="node">
<title>Node19</title>
<g id="a_Node000019"><a xlink:title=" ">
<polygon fill="#e0e0e0" stroke="#999999" points="435.5,-79.5 341.5,-79.5 341.5,-60.5 435.5,-60.5 435.5,-79.5"/>
<text text-anchor="middle" x="388.5" y="-67.5" font-family="Helvetica,sans-Serif" font-size="10.00">G4Threading.hh</text>
</a>
</g>
</g>
<!-- Node26&#45;&gt;Node19 -->
<g id="edge15_Node000026_Node000019" class="edge">
<title>Node26&#45;&gt;Node19</title>
<g id="a_edge15_Node000026_Node000019"><a xlink:title=" ">
<path fill="none" stroke="#63b8ff" d="M462.66,-120.87C448.78,-111.54 426.43,-96.51 409.89,-85.38"/>
<polygon fill="#63b8ff" stroke="#63b8ff" points="411.64,-82.34 401.39,-79.67 407.74,-88.15 411.64,-82.34"/>
</a>
</g>
</g>
<!-- Node20 -->
<g id="Node000020" class="node">
<title>Node20</title>
<g id="a_Node000020"><a xlink:title=" ">
<polygon fill="#e0e0e0" stroke="#999999" points="632,-19 513,-19 513,0 632,0 632,-19"/>
<text text-anchor="middle" x="572.5" y="-7" font-family="Helvetica,sans-Serif" font-size="10.00">G4SystemOfUnits.hh</text>
</a>
</g>
</g>
<!-- Node27&#45;&gt;Node20 -->
<g id="edge7_Node000027_Node000020" class="edge">
<title>Node27&#45;&gt;Node20</title>
<g id="a_edge7_Node000027_Node000020"><a xlink:title=" ">
<path fill="none" stroke="#63b8ff" d="M621.09,-60.37C612.42,-51.47 598.7,-37.39 588.04,-26.45"/>
<polygon fill="#63b8ff" stroke="#63b8ff" points="590.43,-23.89 580.95,-19.17 585.42,-28.77 590.43,-23.89"/>
</a>
</g>
</g>
<!-- Node28 -->
<g id="Node000028" class="node">
<title>Node28</title>
<g id="a_Node000028"><a xlink:title=" ">
<polygon fill="#e0e0e0" stroke="#999999" points="723,-19 650,-19 650,0 723,0 723,-19"/>
<text text-anchor="middle" x="686.5" y="-7" font-family="Helvetica,sans-Serif" font-size="10.00">G4Types.hh</text>
</a>
</g>
</g>
<!-- Node27&#45;&gt;Node28 -->
<g id="edge8_Node000027_Node000028" class="edge">
<title>Node27&#45;&gt;Node28</title>
<g id="a_edge8_Node000027_Node000028"><a xlink:title=" ">
<path fill="none" stroke="#63b8ff" d="M637.91,-60.37C646.58,-51.47 660.3,-37.39 670.96,-26.45"/>
<polygon fill="#63b8ff" stroke="#63b8ff" points="673.58,-28.77 678.05,-19.17 668.57,-23.89 673.58,-28.77"/>
</a>
</g>
</g>
<!-- Node29 -->
<g id="Node000029" class="node">
<title>Node29</title>
<g id="a_Node000029"><a xlink:title=" ">
<polygon fill="#e0e0e0" stroke="#999999" points="1134.5,-19 1096.5,-19 1096.5,0 1134.5,0 1134.5,-19"/>
<text text-anchor="middle" x="1115.5" y="-7" font-family="Helvetica,sans-Serif" font-size="10.00">map</text>
</a>
</g>
</g>
<!-- Node27&#45;&gt;Node29 -->
<g id="edge9_Node000027_Node000029" class="edge">
<title>Node27&#45;&gt;Node29</title>
<g id="a_edge9_Node000027_Node000029"><a xlink:title=" ">
<path fill="none" stroke="#63b8ff" d="M672.81,-60.45C683.48,-58.5 694.88,-56.55 705.5,-55 847.44,-34.25 1018.33,-18.72 1085.92,-12.95"/>
<polygon fill="#63b8ff" stroke="#63b8ff" points="1086.55,-16.41 1096.22,-12.08 1085.96,-9.44 1086.55,-16.41"/>
</a>
</g>
</g>
<!-- Node30 -->
<g id="Node000030" class="node">
<title>Node30</title>
<g id="a_Node000030"><a xlink:title=" ">
<polygon fill="#e0e0e0" stroke="#999999" points="287,-19 226,-19 226,0 287,0 287,-19"/>
<text text-anchor="middle" x="256.5" y="-7" font-family="Helvetica,sans-Serif" font-size="10.00">TGraph.h</text>
</a>
</g>
</g>
<!-- Node27&#45;&gt;Node30 -->
<g id="edge10_Node000027_Node000030" class="edge">
<title>Node27&#45;&gt;Node30</title>
<g id="a_edge10_Node000027_Node000030"><a xlink:title=" ">
<path fill="none" stroke="#63b8ff" d="M583.94,-60.48C573.61,-58.61 562.69,-56.69 552.5,-55 461.53,-39.9 354.45,-24.35 297.3,-16.23"/>
<polygon fill="#63b8ff" stroke="#63b8ff" points="297.62,-12.74 287.23,-14.8 296.64,-19.67 297.62,-12.74"/>
</a>
</g>
</g>
<!-- Node31 -->
<g id="Node000031" class="node">
<title>Node31</title>
<g id="a_Node000031"><a xlink:title=" ">
<polygon fill="#e0e0e0" stroke="#999999" points="449,-19 396,-19 396,0 449,0 449,-19"/>
<text text-anchor="middle" x="422.5" y="-7" font-family="Helvetica,sans-Serif" font-size="10.00">TH2D.h</text>
</a>
</g>
</g>
<!-- Node27&#45;&gt;Node31 -->
<g id="edge11_Node000027_Node000031" class="edge">
<title>Node27&#45;&gt;Node31</title>
<g id="a_edge11_Node000027_Node000031"><a xlink:title=" ">
<path fill="none" stroke="#63b8ff" d="M599.4,-60.49C562.16,-49.97 498.81,-32.07 458.88,-20.78"/>
<polygon fill="#63b8ff" stroke="#63b8ff" points="459.6,-17.35 449.02,-18 457.69,-24.08 459.6,-17.35"/>
</a>
</g>
</g>
<!-- Node34&#45;&gt;Node5 -->
<g id="edge17_Node000034_Node000005" class="edge">
<title>Node34&#45;&gt;Node5</title>
<g id="a_edge17_Node000034_Node000005"><a xlink:title=" ">
<path fill="none" stroke="#63b8ff" d="M697.02,-120.99C732.42,-110.79 791.9,-93.65 831.18,-82.33"/>
<polygon fill="#63b8ff" stroke="#63b8ff" points="832.31,-85.65 840.95,-79.52 830.37,-78.92 832.31,-85.65"/>
</a>
</g>
</g>
<!-- Node34&#45;&gt;Node27 -->
<g id="edge19_Node000034_Node000027" class="edge">
<title>Node34&#45;&gt;Node27</title>
<g id="a_edge19_Node000034_Node000027"><a xlink:title=" ">
<path fill="none" stroke="#63b8ff" d="M661.89,-120.87C656.34,-112.31 647.67,-98.97 640.7,-88.24"/>
<polygon fill="#63b8ff" stroke="#63b8ff" points="643.51,-86.15 635.13,-79.67 637.64,-89.96 643.51,-86.15"/>
</a>
</g>
</g>
<!-- Node34&#45;&gt;Node34 -->
<g id="edge18_Node000034_Node000034" class="edge">
<title>Node34&#45;&gt;Node34</title>
<g id="a_edge18_Node000034_Node000034"><a xlink:title=" ">
<path fill="none" stroke="#63b8ff" d="M710.8,-140.03C736.21,-142.06 760,-138.88 760,-130.5 760,-123.23 742.11,-119.87 720.79,-120.44"/>
<polygon fill="#63b8ff" stroke="#63b8ff" points="720.6,-116.94 710.8,-120.97 720.97,-123.93 720.6,-116.94"/>
</a>
</g>
</g>
<!-- Node41&#45;&gt;Node26 -->
<g id="edge26_Node000041_Node000026" class="edge">
<title>Node41&#45;&gt;Node26</title>
<g id="a_edge26_Node000041_Node000026"><a xlink:title=" ">
<path fill="none" stroke="#63b8ff" d="M972.42,-178.95C870.25,-169.2 658.71,-149 547.47,-138.37"/>
<polygon fill="#63b8ff" stroke="#63b8ff" points="547.63,-134.87 537.35,-137.41 546.97,-141.84 547.63,-134.87"/>
</a>
</g>
</g>
<!-- Node42 -->
<g id="Node000042" class="node">
<title>Node42</title>
<g id="a_Node000042"><a xlink:title=" ">
<polygon fill="#e0e0e0" stroke="#999999" points="1015,-140 898,-140 898,-121 1015,-121 1015,-140"/>
<text text-anchor="middle" x="956.5" y="-128" font-family="Helvetica,sans-Serif" font-size="10.00">G4UserRunAction.hh</text>
</a>
</g>
</g>
<!-- Node41&#45;&gt;Node42 -->
<g id="edge25_Node000041_Node000042" class="edge">
<title>Node41&#45;&gt;Node42</title>
<g id="a_edge25_Node000041_Node000042"><a xlink:title=" ">
<path fill="none" stroke="#63b8ff" d="M1018.61,-175.98C1007.35,-167.92 990.21,-155.65 976.79,-146.03"/>
<polygon fill="#63b8ff" stroke="#63b8ff" points="978.77,-143.15 968.61,-140.17 974.7,-148.84 978.77,-143.15"/>
</a>
</g>
</g>
<!-- Node7 -->
<g id="Node000007" class="node">
<title>Node7</title>
<g id="a_Node000007"><a xlink:href="_o_m_sim_logger_8hh_source.html" target="_top" xlink:title=" ">
<polygon fill="white" stroke="#666666" points="1275,-140 1176,-140 1176,-121 1275,-121 1275,-140"/>
<text text-anchor="middle" x="1225.5" y="-128" font-family="Helvetica,sans-Serif" font-size="10.00">OMSimLogger.hh</text>
</a>
</g>
</g>
<!-- Node41&#45;&gt;Node7 -->
<g id="edge27_Node000041_Node000007" class="edge">
<title>Node41&#45;&gt;Node7</title>
<g id="a_edge27_Node000041_Node000007"><a xlink:title=" ">
<path fill="none" stroke="#63b8ff" d="M1061.83,-175.98C1094.99,-166.97 1147.5,-152.7 1184.06,-142.76"/>
<polygon fill="#63b8ff" stroke="#63b8ff" points="1185.19,-146.08 1193.92,-140.08 1183.36,-139.33 1185.19,-146.08"/>
</a>
</g>
</g>
<!-- Node43 -->
<g id="Node000043" class="node">
<title>Node43</title>
<g id="a_Node000043"><a xlink:title=" ">
<polygon fill="#e0e0e0" stroke="#999999" points="1119.5,-140 1033.5,-140 1033.5,-121 1119.5,-121 1119.5,-140"/>
<text text-anchor="middle" x="1076.5" y="-128" font-family="Helvetica,sans-Serif" font-size="10.00">Randomize.hh</text>
</a>
</g>
</g>
<!-- Node41&#45;&gt;Node43 -->
<g id="edge32_Node000041_Node000043" class="edge">
<title>Node41&#45;&gt;Node43</title>
<g id="a_edge32_Node000041_Node000043"><a xlink:title=" ">
<path fill="none" stroke="#63b8ff" d="M1038.1,-175.75C1044.66,-168.18 1054.32,-157.05 1062.31,-147.84"/>
<polygon fill="#63b8ff" stroke="#63b8ff" points="1065.13,-149.94 1069.05,-140.09 1059.85,-145.35 1065.13,-149.94"/>
</a>
</g>
</g>
<!-- Node44 -->
<g id="Node000044" class="node">
<title>Node44</title>
<g id="a_Node000044"><a xlink:title=" ">
<polygon fill="#e0e0e0" stroke="#999999" points="879.5,-140 815.5,-140 815.5,-121 879.5,-121 879.5,-140"/>
<text text-anchor="middle" x="847.5" y="-128" font-family="Helvetica,sans-Serif" font-size="10.00">G4Run.hh</text>
</a>
</g>
</g>
<!-- Node41&#45;&gt;Node44 -->
<g id="edge33_Node000041_Node000044" class="edge">
<title>Node41&#45;&gt;Node44</title>
<g id="a_edge33_Node000041_Node000044"><a xlink:title=" ">
<path fill="none" stroke="#63b8ff" d="M1001.1,-175.98C970.11,-167.01 921.12,-152.82 886.83,-142.89"/>
<polygon fill="#63b8ff" stroke="#63b8ff" points="887.71,-139.5 877.13,-140.08 885.76,-146.23 887.71,-139.5"/>
</a>
</g>
</g>
<!-- Node8 -->
<g id="Node000008" class="node">
<title>Node8</title>
<g id="a_Node000008"><a xlink:title=" ">
<polygon fill="#e0e0e0" stroke="#999999" points="1386,-79.5 1293,-79.5 1293,-60.5 1386,-60.5 1386,-79.5"/>
<text text-anchor="middle" x="1339.5" y="-67.5" font-family="Helvetica,sans-Serif" font-size="10.00">spdlog/spdlog.h</text>
</a>
</g>
</g>
<!-- Node7&#45;&gt;Node8 -->
<g id="edge28_Node000007_Node000008" class="edge">
<title>Node7&#45;&gt;Node8</title>
<g id="a_edge28_Node000007_Node000008"><a xlink:title=" ">
<path fill="none" stroke="#63b8ff" d="M1242.32,-120.87C1261.1,-111.23 1291.7,-95.53 1313.55,-84.31"/>
<polygon fill="#63b8ff" stroke="#63b8ff" points="1315.31,-87.35 1322.61,-79.67 1312.11,-81.12 1315.31,-87.35"/>
</a>
</g>
</g>
<!-- Node9 -->
<g id="Node000009" class="node">
<title>Node9</title>
<g id="a_Node000009"><a xlink:title=" ">
<polygon fill="#e0e0e0" stroke="#999999" points="1082,-85 971,-85 971,-55 1082,-55 1082,-85"/>
<text text-anchor="start" x="979" y="-73" font-family="Helvetica,sans-Serif" font-size="10.00">spdlog/sinks/stdout</text>
<text text-anchor="middle" x="1026.5" y="-62" font-family="Helvetica,sans-Serif" font-size="10.00">_color_sinks.h</text>
</a>
</g>
</g>
<!-- Node7&#45;&gt;Node9 -->
<g id="edge29_Node000007_Node000009" class="edge">
<title>Node7&#45;&gt;Node9</title>
<g id="a_edge29_Node000007_Node000009"><a xlink:title=" ">
<path fill="none" stroke="#63b8ff" d="M1196.56,-120.99C1167.17,-112.35 1120.86,-98.74 1083.98,-87.9"/>
<polygon fill="#63b8ff" stroke="#63b8ff" points="1084.92,-84.53 1074.34,-85.06 1082.95,-91.24 1084.92,-84.53"/>
</a>
</g>
</g>
<!-- Node10 -->
<g id="Node000010" class="node">
<title>Node10</title>
<g id="a_Node000010"><a xlink:title=" ">
<polygon fill="#e0e0e0" stroke="#999999" points="1158.5,-79.5 1100.5,-79.5 1100.5,-60.5 1158.5,-60.5 1158.5,-79.5"/>
<text text-anchor="middle" x="1129.5" y="-67.5" font-family="Helvetica,sans-Serif" font-size="10.00">memory</text>
</a>
</g>
</g>
<!-- Node7&#45;&gt;Node10 -->
<g id="edge30_Node000007_Node000010" class="edge">
<title>Node7&#45;&gt;Node10</title>
<g id="a_edge30_Node000007_Node000010"><a xlink:title=" ">
<path fill="none" stroke="#63b8ff" d="M1211.33,-120.87C1195.81,-111.41 1170.67,-96.09 1152.35,-84.92"/>
<polygon fill="#63b8ff" stroke="#63b8ff" points="1154.08,-81.88 1143.72,-79.67 1150.44,-87.86 1154.08,-81.88"/>
</a>
</g>
</g>
<!-- Node11 -->
<g id="Node000011" class="node">
<title>Node11</title>
<g id="a_Node000011"><a xlink:title=" ">
<polygon fill="#e0e0e0" stroke="#999999" points="1274.5,-79.5 1176.5,-79.5 1176.5,-60.5 1274.5,-60.5 1274.5,-79.5"/>
<text text-anchor="middle" x="1225.5" y="-67.5" font-family="Helvetica,sans-Serif" font-size="10.00">spdlog/fmt/fmt.h</text>
</a>
</g>
</g>
<!-- Node7&#45;&gt;Node11 -->
<g id="edge31_Node000007_Node000011" class="edge">
<title>Node7&#45;&gt;Node11</title>
<g id="a_edge31_Node000007_Node000011"><a xlink:title=" ">
<path fill="none" stroke="#63b8ff" d="M1225.5,-120.87C1225.5,-112.75 1225.5,-100.31 1225.5,-89.89"/>
<polygon fill="#63b8ff" stroke="#63b8ff" points="1229,-89.67 1225.5,-79.67 1222,-89.67 1229,-89.67"/>
</a>
</g>
</g>
<!-- Node47 -->
<g id="Node000047" class="node">
<title>Node47</title>
<g id="a_Node000047"><a xlink:title=" ">
<polygon fill="#e0e0e0" stroke="#999999" points="1918,-195 1779,-195 1779,-176 1918,-176 1918,-195"/>
<text text-anchor="middle" x="1848.5" y="-183" font-family="Helvetica,sans-Serif" font-size="10.00">G4UserTrackingAction.hh</text>
</a>
</g>
</g>
<!-- Node46&#45;&gt;Node47 -->
<g id="edge36_Node000046_Node000047" class="edge">
<title>Node46&#45;&gt;Node47</title>
<g id="a_edge36_Node000046_Node000047"><a xlink:title=" ">
<path fill="none" stroke="#63b8ff" d="M1849.33,-230.75C1849.2,-223.8 1849.02,-213.85 1848.85,-205.13"/>
<polygon fill="#63b8ff" stroke="#63b8ff" points="1852.35,-205.02 1848.66,-195.09 1845.35,-205.15 1852.35,-205.02"/>
</a>
</g>
</g>
<!-- Node49 -->
<g id="Node000049" class="node">
<title>Node49</title>
<g id="a_Node000049"><a xlink:title=" ">
<polygon fill="#e0e0e0" stroke="#999999" points="2077,-195 1936,-195 1936,-176 2077,-176 2077,-195"/>
<text text-anchor="middle" x="2006.5" y="-183" font-family="Helvetica,sans-Serif" font-size="10.00">G4UserSteppingAction.hh</text>
</a>
</g>
</g>
<!-- Node48&#45;&gt;Node49 -->
<g id="edge38_Node000048_Node000049" class="edge">
<title>Node48&#45;&gt;Node49</title>
<g id="a_edge38_Node000048_Node000049"><a xlink:title=" ">
<path fill="none" stroke="#63b8ff" d="M2006.5,-230.75C2006.5,-223.8 2006.5,-213.85 2006.5,-205.13"/>
<polygon fill="#63b8ff" stroke="#63b8ff" points="2010,-205.09 2006.5,-195.09 2003,-205.09 2010,-205.09"/>
</a>
</g>
</g>
<!-- Node51 -->
<g id="Node000051" class="node">
<title>Node51</title>
<g id="a_Node000051"><a xlink:href="_o_m_sim_command_args_table_8hh.html" target="_top" xlink:title="Definition of the OMSimCommandArgsTable singleton class, which controls user args.">
<polygon fill="#fff0f0" stroke="red" points="1301.5,-195 1137.5,-195 1137.5,-176 1301.5,-176 1301.5,-195"/>
<text text-anchor="middle" x="1219.5" y="-183" font-family="Helvetica,sans-Serif" font-size="10.00">OMSimCommandArgsTable.hh</text>
</a>
</g>
</g>
<!-- Node50&#45;&gt;Node51 -->
<g id="edge40_Node000050_Node000051" class="edge">
<title>Node50&#45;&gt;Node51</title>
<g id="a_edge40_Node000050_Node000051"><a xlink:title=" ">
<path fill="none" stroke="#63b8ff" d="M1217,-230.75C1217.39,-223.8 1217.95,-213.85 1218.45,-205.13"/>
<polygon fill="#63b8ff" stroke="#63b8ff" points="1221.94,-205.27 1219.01,-195.09 1214.95,-204.88 1221.94,-205.27"/>
</a>
</g>
</g>
<!-- Node54 -->
<g id="Node000054" class="node">
<title>Node54</title>
<g id="a_Node000054"><a xlink:title=" ">
<polygon fill="#e0e0e0" stroke="#999999" points="1417.5,-195 1319.5,-195 1319.5,-176 1417.5,-176 1417.5,-195"/>
<text text-anchor="middle" x="1368.5" y="-183" font-family="Helvetica,sans-Serif" font-size="10.00">G4UImanager.hh</text>
</a>
</g>
</g>
<!-- Node50&#45;&gt;Node54 -->
<g id="edge45_Node000050_Node000054" class="edge">
<title>Node50&#45;&gt;Node54</title>
<g id="a_edge45_Node000050_Node000054"><a xlink:title=" ">
<path fill="none" stroke="#63b8ff" d="M1240.92,-230.98C1266.22,-222.16 1305.95,-208.31 1334.36,-198.41"/>
<polygon fill="#63b8ff" stroke="#63b8ff" points="1335.6,-201.68 1343.89,-195.08 1333.29,-195.07 1335.6,-201.68"/>
</a>
</g>
</g>
<!-- Node51&#45;&gt;Node29 -->
<g id="edge44_Node000051_Node000029" class="edge">
<title>Node51&#45;&gt;Node29</title>
<g id="a_edge44_Node000051_Node000029"><a xlink:title=" ">
<path fill="none" stroke="#63b8ff" d="M1251.28,-175.92C1313.8,-157.56 1442.7,-111.5 1394.5,-55 1362.68,-17.7 1210.39,-11.52 1145.21,-10.6"/>
<polygon fill="#63b8ff" stroke="#63b8ff" points="1144.85,-7.1 1134.81,-10.49 1144.77,-14.1 1144.85,-7.1"/>
</a>
</g>
</g>
<!-- Node51&#45;&gt;Node33 -->
<g id="edge42_Node000051_Node000033" class="edge">
<title>Node51&#45;&gt;Node33</title>
<g id="a_edge42_Node000051_Node000033"><a xlink:title=" ">
<path fill="none" stroke="#63b8ff" d="M1210.34,-175.65C1194.91,-161.35 1162.09,-133.48 1128.5,-121 981.92,-66.52 930.52,-121.67 778.5,-85 776.13,-84.43 773.72,-83.74 771.31,-82.98"/>
<polygon fill="#63b8ff" stroke="#63b8ff" points="772.22,-79.58 761.62,-79.53 769.87,-86.18 772.22,-79.58"/>
</a>
</g>
</g>
<!-- Node51&#45;&gt;Node7 -->
<g id="edge41_Node000051_Node000007" class="edge">
<title>Node51&#45;&gt;Node7</title>
<g id="a_edge41_Node000051_Node000007"><a xlink:title=" ">
<path fill="none" stroke="#63b8ff" d="M1220.49,-175.75C1221.28,-168.8 1222.4,-158.85 1223.39,-150.13"/>
<polygon fill="#63b8ff" stroke="#63b8ff" points="1226.88,-150.42 1224.53,-140.09 1219.92,-149.63 1226.88,-150.42"/>
</a>
</g>
</g>
<!-- Node52 -->
<g id="Node000052" class="node">
<title>Node52</title>
<g id="a_Node000052"><a xlink:title=" ">
<polygon fill="#e0e0e0" stroke="#999999" points="1526.5,-140 1442.5,-140 1442.5,-121 1526.5,-121 1526.5,-140"/>
<text text-anchor="middle" x="1484.5" y="-128" font-family="Helvetica,sans-Serif" font-size="10.00">boost/any.hpp</text>
</a>
</g>
</g>
<!-- Node51&#45;&gt;Node52 -->
<g id="edge43_Node000051_Node000052" class="edge">
<title>Node51&#45;&gt;Node52</title>
<g id="a_edge43_Node000051_Node000052"><a xlink:title=" ">
<path fill="none" stroke="#63b8ff" d="M1262.08,-175.98C1308.48,-166.7 1382.74,-151.85 1432.54,-141.89"/>
<polygon fill="#63b8ff" stroke="#63b8ff" points="1433.35,-145.3 1442.47,-139.91 1431.97,-138.44 1433.35,-145.3"/>
</a>
</g>
</g>
<!-- Node60 -->
<g id="Node000060" class="node">
<title>Node60</title>
<g id="a_Node000060"><a xlink:title=" ">
<polygon fill="#e0e0e0" stroke="#999999" points="294,-140 227,-140 227,-121 294,-121 294,-140"/>
<text text-anchor="middle" x="260.5" y="-128" font-family="Helvetica,sans-Serif" font-size="10.00">globals.hh</text>
</a>
</g>
</g>
<!-- Node59&#45;&gt;Node60 -->
<g id="edge51_Node000059_Node000060" class="edge">
<title>Node59&#45;&gt;Node60</title>
<g id="a_edge51_Node000059_Node000060"><a xlink:title=" ">
<path fill="none" stroke="#63b8ff" d="M292.67,-285.74C287.35,-260.2 271.75,-185.43 264.41,-150.23"/>
<polygon fill="#63b8ff" stroke="#63b8ff" points="267.81,-149.38 262.34,-140.31 260.95,-150.81 267.81,-149.38"/>
</a>
</g>
</g>
<!-- Node61&#45;&gt;Node26 -->
<g id="edge54_Node000061_Node000026" class="edge">
<title>Node61&#45;&gt;Node26</title>
<g id="a_edge54_Node000061_Node000026"><a xlink:title=" ">
<path fill="none" stroke="#63b8ff" d="M402.48,-175.98C415.97,-167.77 436.63,-155.18 452.54,-145.49"/>
<polygon fill="#63b8ff" stroke="#63b8ff" points="454.55,-148.36 461.27,-140.17 450.91,-142.38 454.55,-148.36"/>
</a>
</g>
</g>
<!-- Node61&#45;&gt;Node27 -->
<g id="edge53_Node000061_Node000027" class="edge">
<title>Node61&#45;&gt;Node27</title>
<g id="a_edge53_Node000061_Node000027"><a xlink:title=" ">
<path fill="none" stroke="#63b8ff" d="M388.03,-175.72C387.8,-162.01 389.5,-135.58 404.5,-121 410.7,-114.98 510.99,-94.31 575.57,-81.51"/>
<polygon fill="#63b8ff" stroke="#63b8ff" points="576.47,-84.9 585.6,-79.53 575.12,-78.03 576.47,-84.9"/>
</a>
</g>
</g>
<!-- Node61&#45;&gt;Node32 -->
<g id="edge55_Node000061_Node000032" class="edge">
<title>Node61&#45;&gt;Node32</title>
<g id="a_edge55_Node000061_Node000032"><a xlink:title=" ">
<path fill="none" stroke="#63b8ff" d="M379.71,-175.97C360.14,-156.99 312.77,-111.03 287.69,-86.71"/>
<polygon fill="#63b8ff" stroke="#63b8ff" points="290.01,-84.08 280.4,-79.63 285.14,-89.11 290.01,-84.08"/>
</a>
</g>
</g>
<!-- Node61&#45;&gt;Node33 -->
<g id="edge56_Node000061_Node000033" class="edge">
<title>Node61&#45;&gt;Node33</title>
<g id="a_edge56_Node000061_Node000033"><a xlink:title=" ">
<path fill="none" stroke="#63b8ff" d="M425.94,-175.99C458.16,-168.17 505.61,-155.47 545.5,-140 563.11,-133.17 565.93,-127.92 583.5,-121 636.1,-100.28 651.91,-103.02 705.5,-85 707.36,-84.38 709.26,-83.72 711.17,-83.04"/>
<polygon fill="#63b8ff" stroke="#63b8ff" points="712.49,-86.28 720.68,-79.56 710.09,-79.71 712.49,-86.28"/>
</a>
</g>
</g>
<!-- Node62&#45;&gt;Node3 -->
<g id="edge58_Node000062_Node000003" class="edge">
<title>Node62&#45;&gt;Node3</title>
<g id="a_edge58_Node000062_Node000003"><a xlink:title=" ">
<path fill="none" stroke="#63b8ff" d="M559.43,-285.75C566.35,-278.11 576.57,-266.82 584.95,-257.56"/>
<polygon fill="#63b8ff" stroke="#63b8ff" points="587.6,-259.85 591.72,-250.09 582.41,-255.15 587.6,-259.85"/>
</a>
</g>
</g>
<!-- Node63&#45;&gt;Node30 -->
<g id="edge62_Node000063_Node000030" class="edge">
<title>Node63&#45;&gt;Node30</title>
<g id="a_edge62_Node000063_Node000030"><a xlink:title=" ">
<path fill="none" stroke="#63b8ff" d="M187.27,-175.89C177.16,-153.99 154.11,-95.02 177.5,-55 186.18,-40.14 201.85,-29.86 216.96,-22.95"/>
<polygon fill="#63b8ff" stroke="#63b8ff" points="218.35,-26.17 226.23,-19.08 215.65,-19.71 218.35,-26.17"/>
</a>
</g>
</g>
<!-- Node63&#45;&gt;Node31 -->
<g id="edge63_Node000063_Node000031" class="edge">
<title>Node63&#45;&gt;Node31</title>
<g id="a_edge63_Node000063_Node000031"><a xlink:title=" ">
<path fill="none" stroke="#63b8ff" d="M189.78,-175.85C185.74,-152.79 178.27,-89.26 210.5,-55 233.93,-30.09 331.07,-18.11 385.36,-13.27"/>
<polygon fill="#63b8ff" stroke="#63b8ff" points="385.95,-16.73 395.62,-12.39 385.35,-9.75 385.95,-16.73"/>
</a>
</g>
</g>
<!-- Node63&#45;&gt;Node7 -->
<g id="edge60_Node000063_Node000007" class="edge">
<title>Node63&#45;&gt;Node7</title>
<g id="a_edge60_Node000063_Node000007"><a xlink:title=" ">
<path fill="none" stroke="#63b8ff" d="M237.52,-180.18C254.48,-178.7 273.85,-177.13 291.5,-176 663.08,-152.23 756.95,-164.26 1128.5,-140 1140.49,-139.22 1153.31,-138.21 1165.56,-137.17"/>
<polygon fill="#63b8ff" stroke="#63b8ff" points="1166.03,-140.64 1175.69,-136.29 1165.42,-133.67 1166.03,-140.64"/>
</a>
</g>
</g>
<!-- Node63&#45;&gt;Node60 -->
<g id="edge61_Node000063_Node000060" class="edge">
<title>Node63&#45;&gt;Node60</title>
<g id="a_edge61_Node000063_Node000060"><a xlink:title=" ">
<path fill="none" stroke="#63b8ff" d="M202.59,-175.98C212.99,-168 228.76,-155.88 241.22,-146.31"/>
<polygon fill="#63b8ff" stroke="#63b8ff" points="243.41,-149.04 249.21,-140.17 239.15,-143.49 243.41,-149.04"/>
</a>
</g>
</g>
<!-- Node64 -->
<g id="Node000064" class="node">
<title>Node64</title>
<g id="a_Node000064"><a xlink:title=" ">
<polygon fill="#e0e0e0" stroke="#999999" points="51,-140 0,-140 0,-121 51,-121 51,-140"/>
<text text-anchor="middle" x="25.5" y="-128" font-family="Helvetica,sans-Serif" font-size="10.00">variant</text>
</a>
</g>
</g>
<!-- Node63&#45;&gt;Node64 -->
<g id="edge64_Node000063_Node000064" class="edge">
<title>Node63&#45;&gt;Node64</title>
<g id="a_edge64_Node000063_Node000064"><a xlink:title=" ">
<path fill="none" stroke="#63b8ff" d="M164.83,-175.98C136.55,-166.95 91.74,-152.65 60.6,-142.71"/>
<polygon fill="#63b8ff" stroke="#63b8ff" points="61.6,-139.35 51.01,-139.65 59.48,-146.02 61.6,-139.35"/>
</a>
</g>
</g>
<!-- Node65 -->
<g id="Node000065" class="node">
<title>Node65</title>
<g id="a_Node000065"><a xlink:title=" ">
<polygon fill="#e0e0e0" stroke="#999999" points="125.5,-140 69.5,-140 69.5,-121 125.5,-121 125.5,-140"/>
<text text-anchor="middle" x="97.5" y="-128" font-family="Helvetica,sans-Serif" font-size="10.00">optional</text>
</a>
</g>
</g>
<!-- Node63&#45;&gt;Node65 -->
<g id="edge65_Node000063_Node000065" class="edge">
<title>Node63&#45;&gt;Node65</title>
<g id="a_edge65_Node000063_Node000065"><a xlink:title=" ">
<path fill="none" stroke="#63b8ff" d="M176.4,-175.98C161.68,-167.69 139.08,-154.94 121.83,-145.22"/>
<polygon fill="#63b8ff" stroke="#63b8ff" points="123.31,-142.03 112.88,-140.17 119.87,-148.13 123.31,-142.03"/>
</a>
</g>
</g>
</g>
</svg>
