<?xml version="1.0" encoding="UTF-8" standalone="no"?>
<!DOCTYPE svg PUBLIC "-//W3C//DTD SVG 1.1//EN"
 "http://www.w3.org/Graphics/SVG/1.1/DTD/svg11.dtd">
<!-- Generated by graphviz version 2.43.0 (0)
 -->
<!-- Title: OMSimMDOMHarness.cc Pages: 1 -->
<svg width="1687pt" height="375pt"
 viewBox="0.00 0.00 1687.00 375.00" xmlns="http://www.w3.org/2000/svg" xmlns:xlink="http://www.w3.org/1999/xlink">
<g id="graph0" class="graph" transform="scale(1 1) rotate(0) translate(4 371)">
<title>OMSimMDOMHarness.cc</title>
<polygon fill="white" stroke="transparent" points="-4,4 -4,-371 1683,-371 1683,4 -4,4"/>
<!-- Node1 -->
<g id="node1" class="node">
<title>Node1</title>
<g id="a_node1"><a xlink:title=" ">
<polygon fill="#bfbfbf" stroke="black" points="1162.5,-347.5 1162.5,-366.5 1300.5,-366.5 1300.5,-347.5 1162.5,-347.5"/>
<text text-anchor="middle" x="1231.5" y="-354.5" font-family="Helvetica,sans-Serif" font-size="10.00">OMSimMDOMHarness.cc</text>
</a>
</g>
</g>
<!-- Node2 -->
<g id="node2" class="node">
<title>Node2</title>
<g id="a_node2"><a xlink:href="_o_m_sim_m_d_o_m_harness_8hh.html" target="_top" xlink:title="Construction of mDOM harness.">
<polygon fill="white" stroke="black" points="510.5,-291.5 510.5,-310.5 650.5,-310.5 650.5,-291.5 510.5,-291.5"/>
<text text-anchor="middle" x="580.5" y="-298.5" font-family="Helvetica,sans-Serif" font-size="10.00">OMSimMDOMHarness.hh</text>
</a>
</g>
</g>
<!-- Node1&#45;&gt;Node2 -->
<g id="edge1" class="edge">
<title>Node1&#45;&gt;Node2</title>
<path fill="none" stroke="midnightblue" d="M1162.45,-350.27C1041.06,-340.2 790.09,-319.39 661.02,-308.68"/>
<polygon fill="midnightblue" stroke="midnightblue" points="661.07,-305.17 650.81,-307.83 660.49,-312.15 661.07,-305.17"/>
</g>
<!-- Node14 -->
<g id="node14" class="node">
<title>Node14</title>
<g id="a_node14"><a xlink:href="_o_m_sim_m_d_o_m_8hh.html" target="_top" xlink:title="Construction of mDOM.">
<polygon fill="white" stroke="black" points="707.5,-291.5 707.5,-310.5 807.5,-310.5 807.5,-291.5 707.5,-291.5"/>
<text text-anchor="middle" x="757.5" y="-298.5" font-family="Helvetica,sans-Serif" font-size="10.00">OMSimMDOM.hh</text>
</a>
</g>
</g>
<!-- Node1&#45;&gt;Node14 -->
<g id="edge13" class="edge">
<title>Node1&#45;&gt;Node14</title>
<path fill="none" stroke="midnightblue" d="M1162.32,-348.12C1069.39,-337.53 905.74,-318.89 817.66,-308.85"/>
<polygon fill="midnightblue" stroke="midnightblue" points="817.9,-305.36 807.56,-307.7 817.1,-312.31 817.9,-305.36"/>
</g>
<!-- Node29 -->
<g id="node29" class="node">
<title>Node29</title>
<g id="a_node29"><a xlink:href="_o_m_sim_command_args_table_8hh.html" target="_top" xlink:title="Definition of the OMSimCommandArgsTable singleton class, which controls user args.">
<polygon fill="white" stroke="black" points="938.5,-291.5 938.5,-310.5 1102.5,-310.5 1102.5,-291.5 938.5,-291.5"/>
<text text-anchor="middle" x="1020.5" y="-298.5" font-family="Helvetica,sans-Serif" font-size="10.00">OMSimCommandArgsTable.hh</text>
</a>
</g>
</g>
<!-- Node1&#45;&gt;Node29 -->
<g id="edge36" class="edge">
<title>Node1&#45;&gt;Node29</title>
<path fill="none" stroke="midnightblue" d="M1198.07,-347.44C1161.64,-338.12 1103.27,-323.18 1063.47,-313"/>
<polygon fill="midnightblue" stroke="midnightblue" points="1064.33,-309.61 1053.78,-310.52 1062.6,-316.39 1064.33,-309.61"/>
</g>
<!-- Node35 -->
<g id="node35" class="node">
<title>Node35</title>
<g id="a_node35"><a xlink:title=" ">
<polygon fill="white" stroke="#bfbfbf" points="1120.5,-291.5 1120.5,-310.5 1230.5,-310.5 1230.5,-291.5 1120.5,-291.5"/>
<text text-anchor="middle" x="1175.5" y="-298.5" font-family="Helvetica,sans-Serif" font-size="10.00">G4EllipticalTube.hh</text>
</a>
</g>
</g>
<!-- Node1&#45;&gt;Node35 -->
<g id="edge43" class="edge">
<title>Node1&#45;&gt;Node35</title>
<path fill="none" stroke="midnightblue" d="M1222.5,-347.32C1214.31,-339.42 1201.99,-327.55 1192.03,-317.94"/>
<polygon fill="midnightblue" stroke="midnightblue" points="1194.29,-315.26 1184.66,-310.83 1189.43,-320.29 1194.29,-315.26"/>
</g>
<!-- Node36 -->
<g id="node36" class="node">
<title>Node36</title>
<g id="a_node36"><a xlink:title=" ">
<polygon fill="white" stroke="#bfbfbf" points="1249,-291.5 1249,-310.5 1328,-310.5 1328,-291.5 1249,-291.5"/>
<text text-anchor="middle" x="1288.5" y="-298.5" font-family="Helvetica,sans-Serif" font-size="10.00">G4Sphere.hh</text>
</a>
</g>
</g>
<!-- Node1&#45;&gt;Node36 -->
<g id="edge44" class="edge">
<title>Node1&#45;&gt;Node36</title>
<path fill="none" stroke="midnightblue" d="M1240.66,-347.32C1249,-339.42 1261.53,-327.55 1271.68,-317.94"/>
<polygon fill="midnightblue" stroke="midnightblue" points="1274.32,-320.25 1279.18,-310.83 1269.51,-315.17 1274.32,-320.25"/>
</g>
<!-- Node37 -->
<g id="node37" class="node">
<title>Node37</title>
<g id="a_node37"><a xlink:title=" ">
<polygon fill="white" stroke="#bfbfbf" points="1346,-291.5 1346,-310.5 1483,-310.5 1483,-291.5 1346,-291.5"/>
<text text-anchor="middle" x="1414.5" y="-298.5" font-family="Helvetica,sans-Serif" font-size="10.00">G4LogicalSkinSurface.hh</text>
</a>
</g>
</g>
<!-- Node1&#45;&gt;Node37 -->
<g id="edge45" class="edge">
<title>Node1&#45;&gt;Node37</title>
<path fill="none" stroke="midnightblue" d="M1260.5,-347.44C1291.68,-338.24 1341.43,-323.56 1375.91,-313.39"/>
<polygon fill="midnightblue" stroke="midnightblue" points="1377.04,-316.7 1385.64,-310.52 1375.06,-309.99 1377.04,-316.7"/>
</g>
<!-- Node38 -->
<g id="node38" class="node">
<title>Node38</title>
<g id="a_node38"><a xlink:title=" ">
<polygon fill="white" stroke="#bfbfbf" points="1501,-291.5 1501,-310.5 1590,-310.5 1590,-291.5 1501,-291.5"/>
<text text-anchor="middle" x="1545.5" y="-298.5" font-family="Helvetica,sans-Serif" font-size="10.00">G4Polycone.hh</text>
</a>
</g>
</g>
<!-- Node1&#45;&gt;Node38 -->
<g id="edge46" class="edge">
<title>Node1&#45;&gt;Node38</title>
<path fill="none" stroke="midnightblue" d="M1281.25,-347.44C1338.31,-337.63 1431.55,-321.6 1490.66,-311.43"/>
<polygon fill="midnightblue" stroke="midnightblue" points="1491.3,-314.87 1500.56,-309.73 1490.11,-307.97 1491.3,-314.87"/>
</g>
<!-- Node39 -->
<g id="node39" class="node">
<title>Node39</title>
<g id="a_node39"><a xlink:title=" ">
<polygon fill="white" stroke="#bfbfbf" points="1608,-291.5 1608,-310.5 1679,-310.5 1679,-291.5 1608,-291.5"/>
<text text-anchor="middle" x="1643.5" y="-298.5" font-family="Helvetica,sans-Serif" font-size="10.00">G4Torus.hh</text>
</a>
</g>
</g>
<!-- Node1&#45;&gt;Node39 -->
<g id="edge47" class="edge">
<title>Node1&#45;&gt;Node39</title>
<path fill="none" stroke="midnightblue" d="M1300.58,-349.22C1372.46,-341.79 1488.51,-328.74 1597.35,-311.25"/>
<polygon fill="midnightblue" stroke="midnightblue" points="1598.21,-314.66 1607.52,-309.6 1597.09,-307.75 1598.21,-314.66"/>
</g>
<!-- Node3 -->
<g id="node3" class="node">
<title>Node3</title>
<g id="a_node3"><a xlink:href="abc_detector_component_8hh.html" target="_top" xlink:title="Provides helper base class abcDetectorComponent for constructing and managing detector components in ...">
<polygon fill="white" stroke="black" points="337,-123.5 337,-142.5 484,-142.5 484,-123.5 337,-123.5"/>
<text text-anchor="middle" x="410.5" y="-130.5" font-family="Helvetica,sans-Serif" font-size="10.00">abcDetectorComponent.hh</text>
</a>
</g>
</g>
<!-- Node2&#45;&gt;Node3 -->
<g id="edge2" class="edge">
<title>Node2&#45;&gt;Node3</title>
<path fill="none" stroke="midnightblue" d="M510.45,-295.27C481.37,-289.66 449.76,-278.17 429.5,-255 404.51,-226.41 405.14,-178.83 407.8,-152.66"/>
<polygon fill="midnightblue" stroke="midnightblue" points="411.3,-152.94 409.05,-142.59 404.35,-152.08 411.3,-152.94"/>
</g>
<!-- Node12 -->
<g id="node12" class="node">
<title>Node12</title>
<g id="a_node12"><a xlink:title=" ">
<polygon fill="white" stroke="#bfbfbf" points="439,-235.5 439,-254.5 566,-254.5 566,-235.5 439,-235.5"/>
<text text-anchor="middle" x="502.5" y="-242.5" font-family="Helvetica,sans-Serif" font-size="10.00">G4IntersectionSolid.hh</text>
</a>
</g>
</g>
<!-- Node2&#45;&gt;Node12 -->
<g id="edge11" class="edge">
<title>Node2&#45;&gt;Node12</title>
<path fill="none" stroke="midnightblue" d="M567.97,-291.32C555.91,-282.98 537.47,-270.21 523.23,-260.35"/>
<polygon fill="midnightblue" stroke="midnightblue" points="525.22,-257.47 515,-254.65 521.23,-263.22 525.22,-257.47"/>
</g>
<!-- Node13 -->
<g id="node13" class="node">
<title>Node13</title>
<g id="a_node13"><a xlink:title=" ">
<polygon fill="white" stroke="#bfbfbf" points="584,-235.5 584,-254.5 653,-254.5 653,-235.5 584,-235.5"/>
<text text-anchor="middle" x="618.5" y="-242.5" font-family="Helvetica,sans-Serif" font-size="10.00">G4Cons.hh</text>
</a>
</g>
</g>
<!-- Node2&#45;&gt;Node13 -->
<g id="edge12" class="edge">
<title>Node2&#45;&gt;Node13</title>
<path fill="none" stroke="midnightblue" d="M586.77,-291.08C592.14,-283.46 600.02,-272.26 606.58,-262.94"/>
<polygon fill="midnightblue" stroke="midnightblue" points="609.45,-264.94 612.34,-254.75 603.72,-260.91 609.45,-264.94"/>
</g>
<!-- Node4 -->
<g id="node4" class="node">
<title>Node4</title>
<g id="a_node4"><a xlink:href="_o_m_sim_input_data_8hh.html" target="_top" xlink:title="Definition of ParameterTable and InputDataManager.">
<polygon fill="white" stroke="black" points="87,-67.5 87,-86.5 202,-86.5 202,-67.5 87,-67.5"/>
<text text-anchor="middle" x="144.5" y="-74.5" font-family="Helvetica,sans-Serif" font-size="10.00">OMSimInputData.hh</text>
</a>
</g>
</g>
<!-- Node3&#45;&gt;Node4 -->
<g id="edge3" class="edge">
<title>Node3&#45;&gt;Node4</title>
<path fill="none" stroke="midnightblue" d="M368.35,-123.44C321.75,-113.98 246.66,-98.74 196.45,-88.55"/>
<polygon fill="midnightblue" stroke="midnightblue" points="196.95,-85.08 186.45,-86.52 195.56,-91.94 196.95,-85.08"/>
</g>
<!-- Node8 -->
<g id="node8" class="node">
<title>Node8</title>
<g id="a_node8"><a xlink:title=" ">
<polygon fill="white" stroke="#bfbfbf" points="220,-67.5 220,-86.5 327,-86.5 327,-67.5 220,-67.5"/>
<text text-anchor="middle" x="273.5" y="-74.5" font-family="Helvetica,sans-Serif" font-size="10.00">G4Transform3D.hh</text>
</a>
</g>
</g>
<!-- Node3&#45;&gt;Node8 -->
<g id="edge7" class="edge">
<title>Node3&#45;&gt;Node8</title>
<path fill="none" stroke="midnightblue" d="M388.79,-123.44C366.15,-114.52 330.43,-100.44 304.75,-90.32"/>
<polygon fill="midnightblue" stroke="midnightblue" points="305.69,-86.93 295.11,-86.52 303.13,-93.44 305.69,-86.93"/>
</g>
<!-- Node9 -->
<g id="node9" class="node">
<title>Node9</title>
<g id="a_node9"><a xlink:title=" ">
<polygon fill="white" stroke="#bfbfbf" points="345.5,-67.5 345.5,-86.5 453.5,-86.5 453.5,-67.5 345.5,-67.5"/>
<text text-anchor="middle" x="399.5" y="-74.5" font-family="Helvetica,sans-Serif" font-size="10.00">G4VisAttributes.hh</text>
</a>
</g>
</g>
<!-- Node3&#45;&gt;Node9 -->
<g id="edge8" class="edge">
<title>Node3&#45;&gt;Node9</title>
<path fill="none" stroke="midnightblue" d="M408.68,-123.08C407.23,-115.93 405.13,-105.64 403.31,-96.69"/>
<polygon fill="midnightblue" stroke="midnightblue" points="406.71,-95.85 401.28,-86.75 399.85,-97.25 406.71,-95.85"/>
</g>
<!-- Node10 -->
<g id="node10" class="node">
<title>Node10</title>
<g id="a_node10"><a xlink:title=" ">
<polygon fill="white" stroke="#bfbfbf" points="472,-67.5 472,-86.5 597,-86.5 597,-67.5 472,-67.5"/>
<text text-anchor="middle" x="534.5" y="-74.5" font-family="Helvetica,sans-Serif" font-size="10.00">G4SubtractionSolid.hh</text>
</a>
</g>
</g>
<!-- Node3&#45;&gt;Node10 -->
<g id="edge9" class="edge">
<title>Node3&#45;&gt;Node10</title>
<path fill="none" stroke="midnightblue" d="M430.15,-123.44C450.46,-114.6 482.4,-100.69 505.6,-90.59"/>
<polygon fill="midnightblue" stroke="midnightblue" points="507.17,-93.72 514.94,-86.52 504.38,-87.3 507.17,-93.72"/>
</g>
<!-- Node11 -->
<g id="node11" class="node">
<title>Node11</title>
<g id="a_node11"><a xlink:title=" ">
<polygon fill="white" stroke="#bfbfbf" points="615.5,-67.5 615.5,-86.5 725.5,-86.5 725.5,-67.5 615.5,-67.5"/>
<text text-anchor="middle" x="670.5" y="-74.5" font-family="Helvetica,sans-Serif" font-size="10.00">G4PVPlacement.hh</text>
</a>
</g>
</g>
<!-- Node3&#45;&gt;Node11 -->
<g id="edge10" class="edge">
<title>Node3&#45;&gt;Node11</title>
<path fill="none" stroke="midnightblue" d="M451.7,-123.44C497.15,-114 570.34,-98.8 619.41,-88.61"/>
<polygon fill="midnightblue" stroke="midnightblue" points="620.42,-91.98 629.49,-86.52 618.99,-85.12 620.42,-91.98"/>
</g>
<!-- Node5 -->
<g id="node5" class="node">
<title>Node5</title>
<g id="a_node5"><a xlink:title=" ">
<polygon fill="white" stroke="#bfbfbf" points="0,-6 0,-25 143,-25 143,-6 0,-6"/>
<text text-anchor="middle" x="71.5" y="-13" font-family="Helvetica,sans-Serif" font-size="10.00">G4OpBoundaryProcess.hh</text>
</a>
</g>
</g>
<!-- Node4&#45;&gt;Node5 -->
<g id="edge4" class="edge">
<title>Node4&#45;&gt;Node5</title>
<path fill="none" stroke="midnightblue" d="M134.04,-67.48C122.55,-58.11 103.87,-42.88 89.91,-31.51"/>
<polygon fill="midnightblue" stroke="midnightblue" points="91.9,-28.61 81.94,-25.01 87.48,-34.04 91.9,-28.61"/>
</g>
<!-- Node6 -->
<g id="node6" class="node">
<title>Node6</title>
<g id="a_node6"><a xlink:title=" ">
<polygon fill="white" stroke="#bfbfbf" points="493,-6 493,-25 612,-25 612,-6 493,-6"/>
<text text-anchor="middle" x="552.5" y="-13" font-family="Helvetica,sans-Serif" font-size="10.00">G4SystemOfUnits.hh</text>
</a>
</g>
</g>
<!-- Node4&#45;&gt;Node6 -->
<g id="edge5" class="edge">
<title>Node4&#45;&gt;Node6</title>
<path fill="none" stroke="midnightblue" d="M202.09,-67.6C276.19,-56.79 404.77,-38.04 483.87,-26.51"/>
<polygon fill="midnightblue" stroke="midnightblue" points="484.82,-29.91 494.21,-25 483.81,-22.98 484.82,-29.91"/>
</g>
<!-- Node7 -->
<g id="node7" class="node">
<title>Node7</title>
<g id="a_node7"><a xlink:title=" ">
<polygon fill="white" stroke="#bfbfbf" points="161,-0.5 161,-30.5 274,-30.5 274,-0.5 161,-0.5"/>
<text text-anchor="start" x="169" y="-18.5" font-family="Helvetica,sans-Serif" font-size="10.00">boost/property_tree</text>
<text text-anchor="middle" x="217.5" y="-7.5" font-family="Helvetica,sans-Serif" font-size="10.00">/json_parser.hpp</text>
</a>
</g>
</g>
<!-- Node4&#45;&gt;Node7 -->
<g id="edge6" class="edge">
<title>Node4&#45;&gt;Node7</title>
<path fill="none" stroke="midnightblue" d="M154.96,-67.48C164.66,-59.57 179.49,-47.48 192.27,-37.07"/>
<polygon fill="midnightblue" stroke="midnightblue" points="194.76,-39.55 200.3,-30.52 190.33,-34.13 194.76,-39.55"/>
</g>
<!-- Node15 -->
<g id="node15" class="node">
<title>Node15</title>
<g id="a_node15"><a xlink:href="_o_m_sim_m_d_o_m_flasher_8hh.html" target="_top" xlink:title="Defines the mDOMFlasher class for simulating the 10 flashers in an mDOM optical module.">
<polygon fill="white" stroke="black" points="486,-179.5 486,-198.5 621,-198.5 621,-179.5 486,-179.5"/>
<text text-anchor="middle" x="553.5" y="-186.5" font-family="Helvetica,sans-Serif" font-size="10.00">OMSimMDOMFlasher.hh</text>
</a>
</g>
</g>
<!-- Node14&#45;&gt;Node15 -->
<g id="edge14" class="edge">
<title>Node14&#45;&gt;Node15</title>
<path fill="none" stroke="midnightblue" d="M746.44,-291.43C729.04,-278.19 693.91,-252.5 661.5,-235 637.47,-222.03 608.9,-210.27 587.19,-202.03"/>
<polygon fill="midnightblue" stroke="midnightblue" points="588.32,-198.72 577.73,-198.5 585.87,-205.28 588.32,-198.72"/>
</g>
<!-- Node18 -->
<g id="node18" class="node">
<title>Node18</title>
<g id="a_node18"><a xlink:href="_o_m_sim_p_m_t_construction_8hh.html" target="_top" xlink:title="Construction of the PMTs.">
<polygon fill="white" stroke="black" points="645,-179.5 645,-198.5 794,-198.5 794,-179.5 645,-179.5"/>
<text text-anchor="middle" x="719.5" y="-186.5" font-family="Helvetica,sans-Serif" font-size="10.00">OMSimPMTConstruction.hh</text>
</a>
</g>
</g>
<!-- Node14&#45;&gt;Node18 -->
<g id="edge18" class="edge">
<title>Node14&#45;&gt;Node18</title>
<path fill="none" stroke="midnightblue" d="M753.56,-291.49C749.49,-282.53 743.11,-267.94 738.5,-255 732.96,-239.42 727.77,-221.35 724.22,-208.22"/>
<polygon fill="midnightblue" stroke="midnightblue" points="727.6,-207.29 721.65,-198.51 720.83,-209.08 727.6,-207.29"/>
</g>
<!-- Node25 -->
<g id="node25" class="node">
<title>Node25</title>
<g id="a_node25"><a xlink:href="_o_m_sim_optical_module_8hh.html" target="_top" xlink:title=" ">
<polygon fill="white" stroke="black" points="748,-235.5 748,-254.5 885,-254.5 885,-235.5 748,-235.5"/>
<text text-anchor="middle" x="816.5" y="-242.5" font-family="Helvetica,sans-Serif" font-size="10.00">OMSimOpticalModule.hh</text>
</a>
</g>
</g>
<!-- Node14&#45;&gt;Node25 -->
<g id="edge29" class="edge">
<title>Node14&#45;&gt;Node25</title>
<path fill="none" stroke="midnightblue" d="M766.98,-291.32C775.7,-283.34 788.84,-271.31 799.4,-261.65"/>
<polygon fill="midnightblue" stroke="midnightblue" points="801.83,-264.17 806.85,-254.83 797.11,-259 801.83,-264.17"/>
</g>
<!-- Node15&#45;&gt;Node3 -->
<g id="edge15" class="edge">
<title>Node15&#45;&gt;Node3</title>
<path fill="none" stroke="midnightblue" d="M530.84,-179.44C507.1,-170.48 469.59,-156.31 442.76,-146.18"/>
<polygon fill="midnightblue" stroke="midnightblue" points="443.64,-142.77 433.05,-142.52 441.17,-149.32 443.64,-142.77"/>
</g>
<!-- Node16 -->
<g id="node16" class="node">
<title>Node16</title>
<g id="a_node16"><a xlink:title=" ">
<polygon fill="white" stroke="#bfbfbf" points="612.5,-123.5 612.5,-142.5 710.5,-142.5 710.5,-123.5 612.5,-123.5"/>
<text text-anchor="middle" x="661.5" y="-130.5" font-family="Helvetica,sans-Serif" font-size="10.00">G4UnionSolid.hh</text>
</a>
</g>
</g>
<!-- Node15&#45;&gt;Node16 -->
<g id="edge16" class="edge">
<title>Node15&#45;&gt;Node16</title>
<path fill="none" stroke="midnightblue" d="M570.85,-179.32C588.17,-170.66 615.02,-157.24 635,-147.25"/>
<polygon fill="midnightblue" stroke="midnightblue" points="636.81,-150.26 644.19,-142.65 633.68,-144 636.81,-150.26"/>
</g>
<!-- Node17 -->
<g id="node17" class="node">
<title>Node17</title>
<g id="a_node17"><a xlink:title=" ">
<polygon fill="white" stroke="#bfbfbf" points="502.5,-123.5 502.5,-142.5 594.5,-142.5 594.5,-123.5 502.5,-123.5"/>
<text text-anchor="middle" x="548.5" y="-130.5" font-family="Helvetica,sans-Serif" font-size="10.00">G4Navigator.hh</text>
</a>
</g>
</g>
<!-- Node15&#45;&gt;Node17 -->
<g id="edge17" class="edge">
<title>Node15&#45;&gt;Node17</title>
<path fill="none" stroke="midnightblue" d="M552.67,-179.08C552.02,-172.01 551.08,-161.86 550.26,-152.99"/>
<polygon fill="midnightblue" stroke="midnightblue" points="553.72,-152.39 549.31,-142.75 546.75,-153.03 553.72,-152.39"/>
</g>
<!-- Node18&#45;&gt;Node3 -->
<g id="edge19" class="edge">
<title>Node18&#45;&gt;Node3</title>
<path fill="none" stroke="midnightblue" d="M670.54,-179.44C615.96,-169.9 527.71,-154.48 469.4,-144.29"/>
<polygon fill="midnightblue" stroke="midnightblue" points="469.69,-140.79 459.23,-142.52 468.48,-147.69 469.69,-140.79"/>
</g>
<!-- Node18&#45;&gt;Node16 -->
<g id="edge27" class="edge">
<title>Node18&#45;&gt;Node16</title>
<path fill="none" stroke="midnightblue" d="M710.18,-179.32C701.61,-171.34 688.69,-159.31 678.31,-149.65"/>
<polygon fill="midnightblue" stroke="midnightblue" points="680.69,-147.09 670.99,-142.83 675.92,-152.21 680.69,-147.09"/>
</g>
<!-- Node18&#45;&gt;Node18 -->
<g id="edge20" class="edge">
<title>Node18&#45;&gt;Node18</title>
<path fill="none" stroke="midnightblue" d="M758.95,-198.53C785.76,-201.31 812,-198.13 812,-189 812,-181.01 791.91,-177.58 768.93,-178.71"/>
<polygon fill="midnightblue" stroke="midnightblue" points="768.65,-175.22 758.95,-179.47 769.19,-182.2 768.65,-175.22"/>
</g>
<!-- Node19 -->
<g id="node19" class="node">
<title>Node19</title>
<g id="a_node19"><a xlink:href="_o_m_sim_p_m_t_response_8hh.html" target="_top" xlink:title="Provides simulation for PMT response. This class is responsible for transforming hits on photocathode...">
<polygon fill="white" stroke="black" points="814,-123.5 814,-142.5 949,-142.5 949,-123.5 814,-123.5"/>
<text text-anchor="middle" x="881.5" y="-130.5" font-family="Helvetica,sans-Serif" font-size="10.00">OMSimPMTResponse.hh</text>
</a>
</g>
</g>
<!-- Node18&#45;&gt;Node19 -->
<g id="edge21" class="edge">
<title>Node18&#45;&gt;Node19</title>
<path fill="none" stroke="midnightblue" d="M745.17,-179.44C772.42,-170.36 815.68,-155.94 846.15,-145.78"/>
<polygon fill="midnightblue" stroke="midnightblue" points="847.57,-149 855.95,-142.52 845.36,-142.36 847.57,-149"/>
</g>
<!-- Node24 -->
<g id="node24" class="node">
<title>Node24</title>
<g id="a_node24"><a xlink:title=" ">
<polygon fill="white" stroke="#bfbfbf" points="729,-123.5 729,-142.5 796,-142.5 796,-123.5 729,-123.5"/>
<text text-anchor="middle" x="762.5" y="-130.5" font-family="Helvetica,sans-Serif" font-size="10.00">G4Tubs.hh</text>
</a>
</g>
</g>
<!-- Node18&#45;&gt;Node24 -->
<g id="edge28" class="edge">
<title>Node18&#45;&gt;Node24</title>
<path fill="none" stroke="midnightblue" d="M726.6,-179.08C732.74,-171.38 741.77,-160.03 749.24,-150.65"/>
<polygon fill="midnightblue" stroke="midnightblue" points="752.04,-152.75 755.53,-142.75 746.56,-148.39 752.04,-152.75"/>
</g>
<!-- Node19&#45;&gt;Node6 -->
<g id="edge22" class="edge">
<title>Node19&#45;&gt;Node6</title>
<path fill="none" stroke="midnightblue" d="M859.11,-123.46C836.89,-114.82 801.98,-100.81 772.5,-87 755.22,-78.91 752.24,-74.04 734.5,-67 691.17,-49.82 639.85,-36.15 602.77,-27.39"/>
<polygon fill="midnightblue" stroke="midnightblue" points="603.24,-23.9 592.71,-25.05 601.66,-30.72 603.24,-23.9"/>
</g>
<!-- Node20 -->
<g id="node20" class="node">
<title>Node20</title>
<g id="a_node20"><a xlink:title=" ">
<polygon fill="white" stroke="#bfbfbf" points="782,-67.5 782,-86.5 855,-86.5 855,-67.5 782,-67.5"/>
<text text-anchor="middle" x="818.5" y="-74.5" font-family="Helvetica,sans-Serif" font-size="10.00">G4Types.hh</text>
</a>
</g>
</g>
<!-- Node19&#45;&gt;Node20 -->
<g id="edge23" class="edge">
<title>Node19&#45;&gt;Node20</title>
<path fill="none" stroke="midnightblue" d="M871.38,-123.32C861.97,-115.26 847.76,-103.08 836.43,-93.37"/>
<polygon fill="midnightblue" stroke="midnightblue" points="838.68,-90.68 828.81,-86.83 834.12,-96 838.68,-90.68"/>
</g>
<!-- Node21 -->
<g id="node21" class="node">
<title>Node21</title>
<g id="a_node21"><a xlink:title=" ">
<polygon fill="white" stroke="#bfbfbf" points="873.5,-67.5 873.5,-86.5 911.5,-86.5 911.5,-67.5 873.5,-67.5"/>
<text text-anchor="middle" x="892.5" y="-74.5" font-family="Helvetica,sans-Serif" font-size="10.00">map</text>
</a>
</g>
</g>
<!-- Node19&#45;&gt;Node21 -->
<g id="edge24" class="edge">
<title>Node19&#45;&gt;Node21</title>
<path fill="none" stroke="midnightblue" d="M883.32,-123.08C884.77,-115.93 886.87,-105.64 888.69,-96.69"/>
<polygon fill="midnightblue" stroke="midnightblue" points="892.15,-97.25 890.72,-86.75 885.29,-95.85 892.15,-97.25"/>
</g>
<!-- Node22 -->
<g id="node22" class="node">
<title>Node22</title>
<g id="a_node22"><a xlink:title=" ">
<polygon fill="white" stroke="#bfbfbf" points="930,-67.5 930,-86.5 991,-86.5 991,-67.5 930,-67.5"/>
<text text-anchor="middle" x="960.5" y="-74.5" font-family="Helvetica,sans-Serif" font-size="10.00">TGraph.h</text>
</a>
</g>
</g>
<!-- Node19&#45;&gt;Node22 -->
<g id="edge25" class="edge">
<title>Node19&#45;&gt;Node22</title>
<path fill="none" stroke="midnightblue" d="M894.19,-123.32C906.4,-114.98 925.08,-102.21 939.5,-92.35"/>
<polygon fill="midnightblue" stroke="midnightblue" points="941.56,-95.19 947.84,-86.65 937.61,-89.41 941.56,-95.19"/>
</g>
<!-- Node23 -->
<g id="node23" class="node">
<title>Node23</title>
<g id="a_node23"><a xlink:title=" ">
<polygon fill="white" stroke="#bfbfbf" points="1009,-67.5 1009,-86.5 1062,-86.5 1062,-67.5 1009,-67.5"/>
<text text-anchor="middle" x="1035.5" y="-74.5" font-family="Helvetica,sans-Serif" font-size="10.00">TH2D.h</text>
</a>
</g>
</g>
<!-- Node19&#45;&gt;Node23 -->
<g id="edge26" class="edge">
<title>Node19&#45;&gt;Node23</title>
<path fill="none" stroke="midnightblue" d="M905.9,-123.44C931.7,-114.4 972.58,-100.06 1001.52,-89.92"/>
<polygon fill="midnightblue" stroke="midnightblue" points="1002.93,-93.13 1011.21,-86.52 1000.62,-86.52 1002.93,-93.13"/>
</g>
<!-- Node25&#45;&gt;Node3 -->
<g id="edge30" class="edge">
<title>Node25&#45;&gt;Node3</title>
<path fill="none" stroke="midnightblue" d="M747.78,-240.06C662.58,-234.29 522.91,-221.68 476.5,-199 453.79,-187.9 434.09,-165.93 422.26,-150.62"/>
<polygon fill="midnightblue" stroke="midnightblue" points="425.02,-148.46 416.25,-142.51 419.39,-152.63 425.02,-148.46"/>
</g>
<!-- Node25&#45;&gt;Node18 -->
<g id="edge35" class="edge">
<title>Node25&#45;&gt;Node18</title>
<path fill="none" stroke="midnightblue" d="M800.92,-235.32C785.5,-226.74 761.69,-213.49 743.79,-203.52"/>
<polygon fill="midnightblue" stroke="midnightblue" points="745.49,-200.46 735.05,-198.65 742.08,-206.58 745.49,-200.46"/>
</g>
<!-- Node26 -->
<g id="node26" class="node">
<title>Node26</title>
<g id="a_node26"><a xlink:href="_o_m_sim_hit_manager_8hh.html" target="_top" xlink:title="Defines structures and classes related to optical module photon hit management.">
<polygon fill="white" stroke="black" points="830,-179.5 830,-198.5 953,-198.5 953,-179.5 830,-179.5"/>
<text text-anchor="middle" x="891.5" y="-186.5" font-family="Helvetica,sans-Serif" font-size="10.00">OMSimHitManager.hh</text>
</a>
</g>
</g>
<!-- Node25&#45;&gt;Node26 -->
<g id="edge31" class="edge">
<title>Node25&#45;&gt;Node26</title>
<path fill="none" stroke="midnightblue" d="M828.55,-235.32C839.96,-227.11 857.33,-214.6 870.93,-204.81"/>
<polygon fill="midnightblue" stroke="midnightblue" points="873.16,-207.52 879.23,-198.83 869.07,-201.84 873.16,-207.52"/>
</g>
<!-- Node26&#45;&gt;Node19 -->
<g id="edge32" class="edge">
<title>Node26&#45;&gt;Node19</title>
<path fill="none" stroke="midnightblue" d="M889.85,-179.08C888.52,-171.93 886.62,-161.64 884.96,-152.69"/>
<polygon fill="midnightblue" stroke="midnightblue" points="888.38,-151.95 883.12,-142.75 881.5,-153.22 888.38,-151.95"/>
</g>
<!-- Node27 -->
<g id="node27" class="node">
<title>Node27</title>
<g id="a_node27"><a xlink:title=" ">
<polygon fill="white" stroke="#bfbfbf" points="967,-123.5 967,-142.5 1070,-142.5 1070,-123.5 967,-123.5"/>
<text text-anchor="middle" x="1018.5" y="-130.5" font-family="Helvetica,sans-Serif" font-size="10.00">G4ThreeVector.hh</text>
</a>
</g>
</g>
<!-- Node26&#45;&gt;Node27 -->
<g id="edge33" class="edge">
<title>Node26&#45;&gt;Node27</title>
<path fill="none" stroke="midnightblue" d="M911.62,-179.44C932.52,-170.56 965.43,-156.56 989.22,-146.45"/>
<polygon fill="midnightblue" stroke="midnightblue" points="990.64,-149.65 998.47,-142.52 987.9,-143.21 990.64,-149.65"/>
</g>
<!-- Node28 -->
<g id="node28" class="node">
<title>Node28</title>
<g id="a_node28"><a xlink:title=" ">
<polygon fill="white" stroke="#bfbfbf" points="1088,-123.5 1088,-142.5 1143,-142.5 1143,-123.5 1088,-123.5"/>
<text text-anchor="middle" x="1115.5" y="-130.5" font-family="Helvetica,sans-Serif" font-size="10.00">fstream</text>
</a>
</g>
</g>
<!-- Node26&#45;&gt;Node28 -->
<g id="edge34" class="edge">
<title>Node26&#45;&gt;Node28</title>
<path fill="none" stroke="midnightblue" d="M927.57,-179.48C963.36,-171 1020.06,-157.5 1077.94,-143.37"/>
<polygon fill="midnightblue" stroke="midnightblue" points="1079.11,-146.68 1087.99,-140.91 1077.44,-139.88 1079.11,-146.68"/>
</g>
<!-- Node29&#45;&gt;Node28 -->
<g id="edge40" class="edge">
<title>Node29&#45;&gt;Node28</title>
<path fill="none" stroke="midnightblue" d="M1015.37,-291.41C1010.44,-282.61 1003.34,-268.38 1000.5,-255 993.39,-221.48 991.64,-205.39 1013.5,-179 1022.48,-168.16 1054.17,-155.12 1079.87,-145.87"/>
<polygon fill="midnightblue" stroke="midnightblue" points="1081.1,-149.15 1089.37,-142.52 1078.78,-142.54 1081.1,-149.15"/>
</g>
<!-- Node30 -->
<g id="node30" class="node">
<title>Node30</title>
<g id="a_node30"><a xlink:href="_o_m_sim_logger_8hh.html" target="_top" xlink:title=" ">
<polygon fill="white" stroke="black" points="1010,-235.5 1010,-254.5 1109,-254.5 1109,-235.5 1010,-235.5"/>
<text text-anchor="middle" x="1059.5" y="-242.5" font-family="Helvetica,sans-Serif" font-size="10.00">OMSimLogger.hh</text>
</a>
</g>
</g>
<!-- Node29&#45;&gt;Node30 -->
<g id="edge37" class="edge">
<title>Node29&#45;&gt;Node30</title>
<path fill="none" stroke="midnightblue" d="M1026.94,-291.08C1032.45,-283.46 1040.53,-272.26 1047.26,-262.94"/>
<polygon fill="midnightblue" stroke="midnightblue" points="1050.16,-264.91 1053.18,-254.75 1044.49,-260.81 1050.16,-264.91"/>
</g>
<!-- Node33 -->
<g id="node33" class="node">
<title>Node33</title>
<g id="a_node33"><a xlink:title=" ">
<polygon fill="white" stroke="#bfbfbf" points="1127.5,-235.5 1127.5,-254.5 1211.5,-254.5 1211.5,-235.5 1127.5,-235.5"/>
<text text-anchor="middle" x="1169.5" y="-242.5" font-family="Helvetica,sans-Serif" font-size="10.00">boost/any.hpp</text>
</a>
</g>
</g>
<!-- Node29&#45;&gt;Node33 -->
<g id="edge41" class="edge">
<title>Node29&#45;&gt;Node33</title>
<path fill="none" stroke="midnightblue" d="M1044.11,-291.44C1068.96,-282.44 1108.27,-268.19 1136.25,-258.05"/>
<polygon fill="midnightblue" stroke="midnightblue" points="1137.79,-261.21 1146,-254.52 1135.41,-254.63 1137.79,-261.21"/>
</g>
<!-- Node34 -->
<g id="node34" class="node">
<title>Node34</title>
<g id="a_node34"><a xlink:title=" ">
<polygon fill="white" stroke="#bfbfbf" points="1229.5,-235.5 1229.5,-254.5 1297.5,-254.5 1297.5,-235.5 1229.5,-235.5"/>
<text text-anchor="middle" x="1263.5" y="-242.5" font-family="Helvetica,sans-Serif" font-size="10.00">sys/time.h</text>
</a>
</g>
</g>
<!-- Node29&#45;&gt;Node34 -->
<g id="edge42" class="edge">
<title>Node29&#45;&gt;Node34</title>
<path fill="none" stroke="midnightblue" d="M1059,-291.44C1102.67,-281.74 1173.75,-265.95 1219.55,-255.77"/>
<polygon fill="midnightblue" stroke="midnightblue" points="1220.49,-259.14 1229.49,-253.56 1218.97,-252.31 1220.49,-259.14"/>
</g>
<!-- Node31 -->
<g id="node31" class="node">
<title>Node31</title>
<g id="a_node31"><a xlink:title=" ">
<polygon fill="white" stroke="#bfbfbf" points="1022.5,-179.5 1022.5,-198.5 1072.5,-198.5 1072.5,-179.5 1022.5,-179.5"/>
<text text-anchor="middle" x="1047.5" y="-186.5" font-family="Helvetica,sans-Serif" font-size="10.00">stdio.h</text>
</a>
</g>
</g>
<!-- Node30&#45;&gt;Node31 -->
<g id="edge38" class="edge">
<title>Node30&#45;&gt;Node31</title>
<path fill="none" stroke="midnightblue" d="M1057.52,-235.08C1055.93,-227.93 1053.64,-217.64 1051.65,-208.69"/>
<polygon fill="midnightblue" stroke="midnightblue" points="1055.03,-207.75 1049.44,-198.75 1048.2,-209.27 1055.03,-207.75"/>
</g>
<!-- Node32 -->
<g id="node32" class="node">
<title>Node32</title>
<g id="a_node32"><a xlink:title=" ">
<polygon fill="white" stroke="#bfbfbf" points="1090.5,-179.5 1090.5,-198.5 1138.5,-198.5 1138.5,-179.5 1090.5,-179.5"/>
<text text-anchor="middle" x="1114.5" y="-186.5" font-family="Helvetica,sans-Serif" font-size="10.00">time.h</text>
</a>
</g>
</g>
<!-- Node30&#45;&gt;Node32 -->
<g id="edge39" class="edge">
<title>Node30&#45;&gt;Node32</title>
<path fill="none" stroke="midnightblue" d="M1068.58,-235.08C1076.67,-227.14 1088.7,-215.34 1098.41,-205.8"/>
<polygon fill="midnightblue" stroke="midnightblue" points="1100.9,-208.25 1105.59,-198.75 1096,-203.26 1100.9,-208.25"/>
</g>
</g>
</svg>
