<?xml version="1.0" encoding="UTF-8" standalone="no"?>
<!DOCTYPE svg PUBLIC "-//W3C//DTD SVG 1.1//EN"
 "http://www.w3.org/Graphics/SVG/1.1/DTD/svg11.dtd">
<!-- Generated by graphviz version 2.43.0 (0)
 -->
<!-- Title: OMSimCommandArgsTable.hh Pages: 1 -->
<svg width="699pt" height="192pt"
 viewBox="0.00 0.00 699.00 192.00" xmlns="http://www.w3.org/2000/svg" xmlns:xlink="http://www.w3.org/1999/xlink">
<g id="graph0" class="graph" transform="scale(1 1) rotate(0) translate(4 188)">
<title>OMSimCommandArgsTable.hh</title>
<!-- Node1 -->
<g id="Node000001" class="node">
<title>Node1</title>
<g id="a_Node000001"><a xlink:title="Definition of the OMSimCommandArgsTable singleton class, which controls user args.">
<polygon fill="#999999" stroke="#666666" points="330.5,-184 166.5,-184 166.5,-165 330.5,-165 330.5,-184"/>
<text text-anchor="middle" x="248.5" y="-172" font-family="Helvetica,sans-Serif" font-size="10.00">OMSimCommandArgsTable.hh</text>
</a>
</g>
</g>
<!-- Node2 -->
<g id="Node000002" class="node">
<title>Node2</title>
<g id="a_Node000002"><a xlink:href="_o_m_sim_l_o_m18_8cc.html" target="_top" xlink:title=" ">
<polygon fill="white" stroke="#666666" points="99,-74 0,-74 0,-55 99,-55 99,-74"/>
<text text-anchor="middle" x="49.5" y="-62" font-family="Helvetica,sans-Serif" font-size="10.00">OMSimLOM18.cc</text>
</a>
</g>
</g>
<!-- Node1&#45;&gt;Node2 -->
<g id="edge1_Node000001_Node000002" class="edge">
<title>Node1&#45;&gt;Node2</title>
<g id="a_edge1_Node000001_Node000002"><a xlink:title=" ">
<path fill="none" stroke="#63b8ff" d="M223.63,-160C182.08,-137.45 99.72,-92.75 65.25,-74.05"/>
<polygon fill="#63b8ff" stroke="#63b8ff" points="222.09,-163.15 232.55,-164.84 225.43,-157 222.09,-163.15"/>
</a>
</g>
</g>
<!-- Node3 -->
<g id="Node000003" class="node">
<title>Node3</title>
<g id="a_Node000003"><a xlink:href="_o_m_sim_material_handler_8hh.html" target="_top" xlink:title="Definition of OMSimMaterialHandler and the namespaces IceProcessor and ScintillationProcessor.">
<polygon fill="white" stroke="#666666" points="597,-129 452,-129 452,-110 597,-110 597,-129"/>
<text text-anchor="middle" x="524.5" y="-117" font-family="Helvetica,sans-Serif" font-size="10.00">OMSimMaterialHandler.hh</text>
</a>
</g>
</g>
<!-- Node1&#45;&gt;Node3 -->
<g id="edge2_Node000001_Node000003" class="edge">
<title>Node1&#45;&gt;Node3</title>
<g id="a_edge2_Node000001_Node000003"><a xlink:title=" ">
<path fill="none" stroke="#63b8ff" d="M302.84,-163.07C354.58,-153.13 431.53,-138.35 479.81,-129.08"/>
<polygon fill="#63b8ff" stroke="#63b8ff" points="302,-159.66 292.84,-164.98 303.32,-166.54 302,-159.66"/>
</a>
</g>
</g>
<!-- Node4 -->
<g id="Node000004" class="node">
<title>Node4</title>
<g id="a_Node000004"><a xlink:href="_o_m_sim_s_n_analysis_8cc.html" target="_top" xlink:title="Analyze data and write output files.">
<polygon fill="white" stroke="#666666" points="237.5,-74 117.5,-74 117.5,-55 237.5,-55 237.5,-74"/>
<text text-anchor="middle" x="177.5" y="-62" font-family="Helvetica,sans-Serif" font-size="10.00">OMSimSNAnalysis.cc</text>
</a>
</g>
</g>
<!-- Node1&#45;&gt;Node4 -->
<g id="edge3_Node000001_Node000004" class="edge">
<title>Node1&#45;&gt;Node4</title>
<g id="a_edge3_Node000001_Node000004"><a xlink:title=" ">
<path fill="none" stroke="#63b8ff" d="M224.69,-159.36C213.68,-151.68 201.33,-141.25 193.5,-129 182.48,-111.76 179.05,-87.37 177.98,-74.41"/>
<polygon fill="#63b8ff" stroke="#63b8ff" points="222.85,-162.34 233.12,-164.91 226.69,-156.49 222.85,-162.34"/>
</a>
</g>
</g>
<!-- Node5 -->
<g id="Node000005" class="node">
<title>Node5</title>
<g id="a_Node000005"><a xlink:href="_o_m_sim_tools_8hh.html" target="_top" xlink:title="Definition of Tools namespace, a collection of helper methods.">
<polygon fill="white" stroke="#666666" points="294.5,-129 202.5,-129 202.5,-110 294.5,-110 294.5,-129"/>
<text text-anchor="middle" x="248.5" y="-117" font-family="Helvetica,sans-Serif" font-size="10.00">OMSimTools.hh</text>
</a>
</g>
</g>
<!-- Node1&#45;&gt;Node5 -->
<g id="edge4_Node000001_Node000005" class="edge">
<title>Node1&#45;&gt;Node5</title>
<g id="a_edge4_Node000001_Node000005"><a xlink:title=" ">
<path fill="none" stroke="#63b8ff" d="M248.5,-154.66C248.5,-145.93 248.5,-135.99 248.5,-129.09"/>
<polygon fill="#63b8ff" stroke="#63b8ff" points="245,-154.75 248.5,-164.75 252,-154.75 245,-154.75"/>
</a>
</g>
</g>
<!-- Node8 -->
<g id="Node000008" class="node">
<title>Node8</title>
<g id="a_Node000008"><a xlink:href="_o_m_sim_u_iinterface_8hh.html" target="_top" xlink:title=" ">
<polygon fill="white" stroke="#666666" points="434,-129 313,-129 313,-110 434,-110 434,-129"/>
<text text-anchor="middle" x="373.5" y="-117" font-family="Helvetica,sans-Serif" font-size="10.00">OMSimUIinterface.hh</text>
</a>
</g>
</g>
<!-- Node1&#45;&gt;Node8 -->
<g id="edge9_Node000001_Node000008" class="edge">
<title>Node1&#45;&gt;Node8</title>
<g id="a_edge9_Node000001_Node000008"><a xlink:title=" ">
<path fill="none" stroke="#63b8ff" d="M277.91,-161.03C301.03,-151.23 332.63,-137.83 353.05,-129.17"/>
<polygon fill="#63b8ff" stroke="#63b8ff" points="276.42,-157.86 268.58,-164.98 279.16,-164.3 276.42,-157.86"/>
</a>
</g>
</g>
<!-- Node5&#45;&gt;Node2 -->
<g id="edge6_Node000005_Node000002" class="edge">
<title>Node5&#45;&gt;Node2</title>
<g id="a_edge6_Node000005_Node000002"><a xlink:title=" ">
<path fill="none" stroke="#63b8ff" d="M206.49,-107.31C169.25,-97.39 115.66,-83.12 81.72,-74.08"/>
<polygon fill="#63b8ff" stroke="#63b8ff" points="205.96,-110.79 216.53,-109.98 207.76,-104.03 205.96,-110.79"/>
</a>
</g>
</g>
<!-- Node5&#45;&gt;Node4 -->
<g id="edge7_Node000005_Node000004" class="edge">
<title>Node5&#45;&gt;Node4</title>
<g id="a_edge7_Node000005_Node000004"><a xlink:title=" ">
<path fill="none" stroke="#63b8ff" d="M228.91,-103.88C216.13,-94.34 199.89,-82.21 189.11,-74.17"/>
<polygon fill="#63b8ff" stroke="#63b8ff" points="226.99,-106.81 237.09,-109.98 231.17,-101.2 226.99,-106.81"/>
</a>
</g>
</g>
<!-- Node6 -->
<g id="Node000006" class="node">
<title>Node6</title>
<g id="a_Node000006"><a xlink:href="_o_m_sim_8cc.html" target="_top" xlink:title="Implementation of the OMSim class.">
<polygon fill="white" stroke="#666666" points="373,-19 308,-19 308,0 373,0 373,-19"/>
<text text-anchor="middle" x="340.5" y="-7" font-family="Helvetica,sans-Serif" font-size="10.00">OMSim.cc</text>
</a>
</g>
</g>
<!-- Node5&#45;&gt;Node6 -->
<g id="edge5_Node000005_Node000006" class="edge">
<title>Node5&#45;&gt;Node6</title>
<g id="a_edge5_Node000005_Node000006"><a xlink:title=" ">
<path fill="none" stroke="#63b8ff" d="M262.56,-102C282.37,-78.73 317.82,-37.13 333.12,-19.16"/>
<polygon fill="#63b8ff" stroke="#63b8ff" points="259.85,-99.78 256.03,-109.66 265.18,-104.32 259.85,-99.78"/>
</a>
</g>
</g>
<!-- Node7 -->
<g id="Node000007" class="node">
<title>Node7</title>
<g id="a_Node000007"><a xlink:href="_o_m_sim__effective__area_8cc.html" target="_top" xlink:title="Main for the calculation of effective areas.">
<polygon fill="white" stroke="#666666" points="289.5,-19 149.5,-19 149.5,0 289.5,0 289.5,-19"/>
<text text-anchor="middle" x="219.5" y="-7" font-family="Helvetica,sans-Serif" font-size="10.00">OMSim_effective_area.cc</text>
</a>
</g>
</g>
<!-- Node5&#45;&gt;Node7 -->
<g id="edge8_Node000005_Node000007" class="edge">
<title>Node5&#45;&gt;Node7</title>
<g id="a_edge8_Node000005_Node000007"><a xlink:title=" ">
<path fill="none" stroke="#63b8ff" d="M250.38,-99.67C251.07,-86.82 250.82,-69.56 246.5,-55 242.44,-41.31 233.11,-27.57 226.56,-19.05"/>
<polygon fill="#63b8ff" stroke="#63b8ff" points="246.89,-99.41 249.61,-109.65 253.87,-99.95 246.89,-99.41"/>
</a>
</g>
</g>
<!-- Node9 -->
<g id="Node000009" class="node">
<title>Node9</title>
<g id="a_Node000009"><a xlink:href="_o_m_sim_8hh.html" target="_top" xlink:title="Main simulation class for the Optical Module (OM) simulation. This file defines the OMSim class,...">
<polygon fill="white" stroke="#666666" points="407,-74 340,-74 340,-55 407,-55 407,-74"/>
<text text-anchor="middle" x="373.5" y="-62" font-family="Helvetica,sans-Serif" font-size="10.00">OMSim.hh</text>
</a>
</g>
</g>
<!-- Node8&#45;&gt;Node9 -->
<g id="edge10_Node000008_Node000009" class="edge">
<title>Node8&#45;&gt;Node9</title>
<g id="a_edge10_Node000008_Node000009"><a xlink:title=" ">
<path fill="none" stroke="#63b8ff" d="M373.5,-99.66C373.5,-90.93 373.5,-80.99 373.5,-74.09"/>
<polygon fill="#63b8ff" stroke="#63b8ff" points="370,-99.75 373.5,-109.75 377,-99.75 370,-99.75"/>
</a>
</g>
</g>
<!-- Node9&#45;&gt;Node6 -->
<g id="edge11_Node000009_Node000006" class="edge">
<title>Node9&#45;&gt;Node6</title>
<g id="a_edge11_Node000009_Node000006"><a xlink:title=" ">
<path fill="none" stroke="#63b8ff" d="M362.67,-46.1C357.03,-37.04 350.38,-26.37 345.85,-19.09"/>
<polygon fill="#63b8ff" stroke="#63b8ff" points="359.79,-48.11 368.05,-54.75 365.74,-44.41 359.79,-48.11"/>
</a>
</g>
</g>
<!-- Node9&#45;&gt;Node7 -->
<g id="edge13_Node000009_Node000007" class="edge">
<title>Node9&#45;&gt;Node7</title>
<g id="a_edge13_Node000009_Node000007"><a xlink:title=" ">
<path fill="none" stroke="#63b8ff" d="M339.12,-51.67C310.41,-41.79 270.14,-27.93 244.44,-19.08"/>
<polygon fill="#63b8ff" stroke="#63b8ff" points="338.16,-55.04 348.76,-54.98 340.44,-48.42 338.16,-55.04"/>
</a>
</g>
</g>
<!-- Node10 -->
<g id="Node000010" class="node">
<title>Node10</title>
<g id="a_Node000010"><a xlink:href="_o_m_sim_supernova_8cc.html" target="_top" xlink:title="Main of the supernova study.">
<polygon fill="white" stroke="#666666" points="508,-19 391,-19 391,0 508,0 508,-19"/>
<text text-anchor="middle" x="449.5" y="-7" font-family="Helvetica,sans-Serif" font-size="10.00">OMSimSupernova.cc</text>
</a>
</g>
</g>
<!-- Node9&#45;&gt;Node10 -->
<g id="edge12_Node000009_Node000010" class="edge">
<title>Node9&#45;&gt;Node10</title>
<g id="a_edge12_Node000009_Node000010"><a xlink:title=" ">
<path fill="none" stroke="#63b8ff" d="M394.08,-49.15C407.81,-39.57 425.43,-27.29 437.07,-19.17"/>
<polygon fill="#63b8ff" stroke="#63b8ff" points="391.91,-46.39 385.71,-54.98 395.92,-52.14 391.91,-46.39"/>
</a>
</g>
</g>
<!-- Node11 -->
<g id="Node000011" class="node">
<title>Node11</title>
<g id="a_Node000011"><a xlink:href="_o_m_sim__radioactive__decays_8cc.html" target="_top" xlink:title="Main of the radioactive decay study.">
<polygon fill="white" stroke="#666666" points="691,-19 526,-19 526,0 691,0 691,-19"/>
<text text-anchor="middle" x="608.5" y="-7" font-family="Helvetica,sans-Serif" font-size="10.00">OMSim_radioactive_decays.cc</text>
</a>
</g>
</g>
<!-- Node9&#45;&gt;Node11 -->
<g id="edge14_Node000009_Node000011" class="edge">
<title>Node9&#45;&gt;Node11</title>
<g id="a_edge14_Node000009_Node000011"><a xlink:title=" ">
<path fill="none" stroke="#63b8ff" d="M417.03,-53.68C461.12,-43.74 528.65,-28.51 570.61,-19.05"/>
<polygon fill="#63b8ff" stroke="#63b8ff" points="416.15,-50.29 407.17,-55.91 417.69,-57.12 416.15,-50.29"/>
</a>
</g>
</g>
</g>
</svg>
