<?xml version="1.0" encoding="UTF-8" standalone="no"?>
<!DOCTYPE svg PUBLIC "-//W3C//DTD SVG 1.1//EN"
 "http://www.w3.org/Graphics/SVG/1.1/DTD/svg11.dtd">
<!-- Generated by graphviz version 2.43.0 (0)
 -->
<!-- Title: OMSimPMTResponse.hh Pages: 1 -->
<svg width="1520pt" height="308pt"
 viewBox="0.00 0.00 1519.50 308.00" xmlns="http://www.w3.org/2000/svg" xmlns:xlink="http://www.w3.org/1999/xlink">
<g id="graph0" class="graph" transform="scale(1 1) rotate(0) translate(4 304)">
<title>OMSimPMTResponse.hh</title>
<!-- Node1 -->
<g id="node1" class="node">
<title>Node1</title>
<g id="a_node1"><a xlink:title="Simulation of PMT response.">
<polygon fill="#bfbfbf" stroke="black" points="538.5,-280.5 538.5,-299.5 673.5,-299.5 673.5,-280.5 538.5,-280.5"/>
<text text-anchor="middle" x="606" y="-287.5" font-family="Helvetica,sans-Serif" font-size="10.00">OMSimPMTResponse.hh</text>
</a>
</g>
</g>
<!-- Node2 -->
<g id="node2" class="node">
<title>Node2</title>
<g id="a_node2"><a xlink:href="_o_m_sim_hit_manager_8hh.html" target="_top" xlink:title="Defines structures and classes related to optical module photon hit management.">
<polygon fill="none" stroke="black" points="406.5,-224.5 406.5,-243.5 529.5,-243.5 529.5,-224.5 406.5,-224.5"/>
<text text-anchor="middle" x="468" y="-231.5" font-family="Helvetica,sans-Serif" font-size="10.00">OMSimHitManager.hh</text>
</a>
</g>
</g>
<!-- Node1&#45;&gt;Node2 -->
<g id="edge1" class="edge">
<title>Node1&#45;&gt;Node2</title>
<path fill="none" stroke="midnightblue" d="M574.75,-276.77C548.83,-266.63 512.64,-252.47 489.76,-243.52"/>
<polygon fill="midnightblue" stroke="midnightblue" points="573.55,-280.06 584.13,-280.44 576.1,-273.54 573.55,-280.06"/>
</g>
<!-- Node22 -->
<g id="node22" class="node">
<title>Node22</title>
<g id="a_node22"><a xlink:href="_o_m_sim_effective_area_analyisis_8hh_source.html" target="_top" xlink:title=" ">
<polygon fill="none" stroke="black" points="0,-168.5 0,-187.5 176,-187.5 176,-168.5 0,-168.5"/>
<text text-anchor="middle" x="88" y="-175.5" font-family="Helvetica,sans-Serif" font-size="10.00">OMSimEffectiveAreaAnalyisis.hh</text>
</a>
</g>
</g>
<!-- Node1&#45;&gt;Node22 -->
<g id="edge44" class="edge">
<title>Node1&#45;&gt;Node22</title>
<path fill="none" stroke="midnightblue" d="M555.99,-278.38C453.56,-256.63 221.68,-207.39 128.19,-187.53"/>
<polygon fill="midnightblue" stroke="midnightblue" points="555.28,-281.81 565.78,-280.46 556.73,-274.96 555.28,-281.81"/>
</g>
<!-- Node23 -->
<g id="node23" class="node">
<title>Node23</title>
<g id="a_node23"><a xlink:href="_o_m_sim_effi_cali_analyisis_8hh_source.html" target="_top" xlink:title=" ">
<polygon fill="none" stroke="black" points="582,-168.5 582,-187.5 728,-187.5 728,-168.5 582,-168.5"/>
<text text-anchor="middle" x="655" y="-175.5" font-family="Helvetica,sans-Serif" font-size="10.00">OMSimEffiCaliAnalyisis.hh</text>
</a>
</g>
</g>
<!-- Node1&#45;&gt;Node23 -->
<g id="edge45" class="edge">
<title>Node1&#45;&gt;Node23</title>
<path fill="none" stroke="midnightblue" d="M609.84,-270.42C612.97,-257.12 618.01,-238.99 625,-224 631.27,-210.55 641.23,-196.56 647.93,-187.82"/>
<polygon fill="midnightblue" stroke="midnightblue" points="606.4,-269.77 607.67,-280.29 613.24,-271.28 606.4,-269.77"/>
</g>
<!-- Node26 -->
<g id="node26" class="node">
<title>Node26</title>
<g id="a_node26"><a xlink:href="_o_m_sim_sensitive_detector_8hh_source.html" target="_top" xlink:title=" ">
<polygon fill="none" stroke="black" points="634.5,-224.5 634.5,-243.5 787.5,-243.5 787.5,-224.5 634.5,-224.5"/>
<text text-anchor="middle" x="711" y="-231.5" font-family="Helvetica,sans-Serif" font-size="10.00">OMSimSensitiveDetector.hh</text>
</a>
</g>
</g>
<!-- Node1&#45;&gt;Node26 -->
<g id="edge35" class="edge">
<title>Node1&#45;&gt;Node26</title>
<path fill="none" stroke="midnightblue" d="M631.81,-275.73C651.25,-265.73 677.35,-252.31 694.17,-243.65"/>
<polygon fill="midnightblue" stroke="midnightblue" points="630.16,-272.64 622.87,-280.32 633.36,-278.86 630.16,-272.64"/>
</g>
<!-- Node27 -->
<g id="node27" class="node">
<title>Node27</title>
<g id="a_node27"><a xlink:href="_o_m_sim_p_m_t_construction_8hh.html" target="_top" xlink:title="Construction of the PMTs.">
<polygon fill="none" stroke="black" points="1051.5,-224.5 1051.5,-243.5 1200.5,-243.5 1200.5,-224.5 1051.5,-224.5"/>
<text text-anchor="middle" x="1126" y="-231.5" font-family="Helvetica,sans-Serif" font-size="10.00">OMSimPMTConstruction.hh</text>
</a>
</g>
</g>
<!-- Node1&#45;&gt;Node27 -->
<g id="edge36" class="edge">
<title>Node1&#45;&gt;Node27</title>
<path fill="none" stroke="midnightblue" d="M683.68,-280.93C782.88,-270.63 953.38,-252.93 1051.19,-242.77"/>
<polygon fill="midnightblue" stroke="midnightblue" points="683.3,-277.45 673.71,-281.97 684.02,-284.42 683.3,-277.45"/>
</g>
<!-- Node3 -->
<g id="node3" class="node">
<title>Node3</title>
<g id="a_node3"><a xlink:href="_o_m_sim_run_action_8hh_source.html" target="_top" xlink:title=" ">
<polygon fill="none" stroke="black" points="410,-168.5 410,-187.5 526,-187.5 526,-168.5 410,-168.5"/>
<text text-anchor="middle" x="468" y="-175.5" font-family="Helvetica,sans-Serif" font-size="10.00">OMSimRunAction.hh</text>
</a>
</g>
</g>
<!-- Node2&#45;&gt;Node3 -->
<g id="edge2" class="edge">
<title>Node2&#45;&gt;Node3</title>
<path fill="none" stroke="midnightblue" d="M468,-213.8C468,-204.91 468,-194.78 468,-187.75"/>
<polygon fill="midnightblue" stroke="midnightblue" points="464.5,-214.08 468,-224.08 471.5,-214.08 464.5,-214.08"/>
</g>
<!-- Node7 -->
<g id="node7" class="node">
<title>Node7</title>
<g id="a_node7"><a xlink:href="_o_m_sim__radioactive__decays_8cc.html" target="_top" xlink:title="Main of the radioactive decay study.">
<polygon fill="none" stroke="black" points="809.5,-0.5 809.5,-19.5 974.5,-19.5 974.5,-0.5 809.5,-0.5"/>
<text text-anchor="middle" x="892" y="-7.5" font-family="Helvetica,sans-Serif" font-size="10.00">OMSim_radioactive_decays.cc</text>
</a>
</g>
</g>
<!-- Node2&#45;&gt;Node7 -->
<g id="edge29" class="edge">
<title>Node2&#45;&gt;Node7</title>
<path fill="none" stroke="midnightblue" d="M498.6,-219.87C512.02,-212.5 526.59,-201.94 535,-188 565.46,-137.48 507.8,-98.23 549,-56 584.02,-20.1 719.31,-11.89 809.15,-10.52"/>
<polygon fill="midnightblue" stroke="midnightblue" points="496.91,-216.81 489.59,-224.47 500.09,-223.04 496.91,-216.81"/>
</g>
<!-- Node8 -->
<g id="node8" class="node">
<title>Node8</title>
<g id="a_node8"><a xlink:href="_o_m_sim__supernova_8cc.html" target="_top" xlink:title="Main of the supernova study.">
<polygon fill="none" stroke="black" points="319,-0.5 319,-19.5 441,-19.5 441,-0.5 319,-0.5"/>
<text text-anchor="middle" x="380" y="-7.5" font-family="Helvetica,sans-Serif" font-size="10.00">OMSim_supernova.cc</text>
</a>
</g>
</g>
<!-- Node2&#45;&gt;Node8 -->
<g id="edge33" class="edge">
<title>Node2&#45;&gt;Node8</title>
<path fill="none" stroke="midnightblue" d="M396.23,-224.58C342.81,-217.11 275.41,-204.77 253,-188 230.4,-171.08 229.87,-159.39 223,-132 207.5,-70.25 296.39,-34.56 346.89,-19.51"/>
<polygon fill="midnightblue" stroke="midnightblue" points="395.99,-228.08 406.37,-225.96 396.94,-221.14 395.99,-228.08"/>
</g>
<!-- Node9 -->
<g id="node9" class="node">
<title>Node9</title>
<g id="a_node9"><a xlink:href="_o_m_sim_optical_module_8hh_source.html" target="_top" xlink:title=" ">
<polygon fill="none" stroke="black" points="960.5,-168.5 960.5,-187.5 1097.5,-187.5 1097.5,-168.5 960.5,-168.5"/>
<text text-anchor="middle" x="1029" y="-175.5" font-family="Helvetica,sans-Serif" font-size="10.00">OMSimOpticalModule.hh</text>
</a>
</g>
</g>
<!-- Node2&#45;&gt;Node9 -->
<g id="edge8" class="edge">
<title>Node2&#45;&gt;Node9</title>
<path fill="none" stroke="midnightblue" d="M539.85,-226.08C648.56,-215.62 853.44,-195.9 960.27,-185.62"/>
<polygon fill="midnightblue" stroke="midnightblue" points="539.26,-222.62 529.64,-227.07 539.93,-229.59 539.26,-222.62"/>
</g>
<!-- Node2&#45;&gt;Node22 -->
<g id="edge26" class="edge">
<title>Node2&#45;&gt;Node22</title>
<path fill="none" stroke="midnightblue" d="M397.48,-222.98C325.7,-212.78 215.63,-197.14 147.93,-187.52"/>
<polygon fill="midnightblue" stroke="midnightblue" points="397.39,-226.5 407.79,-224.44 398.38,-219.57 397.39,-226.5"/>
</g>
<!-- Node2&#45;&gt;Node23 -->
<g id="edge28" class="edge">
<title>Node2&#45;&gt;Node23</title>
<path fill="none" stroke="midnightblue" d="M507.59,-221.57C542.87,-211.38 593.69,-196.7 625.51,-187.52"/>
<polygon fill="midnightblue" stroke="midnightblue" points="506.27,-218.31 497.63,-224.44 508.21,-225.03 506.27,-218.31"/>
</g>
<!-- Node24 -->
<g id="node24" class="node">
<title>Node24</title>
<g id="a_node24"><a xlink:href="_o_m_sim_s_n_analysis_8hh_source.html" target="_top" xlink:title=" ">
<polygon fill="none" stroke="black" points="270,-168.5 270,-187.5 392,-187.5 392,-168.5 270,-168.5"/>
<text text-anchor="middle" x="331" y="-175.5" font-family="Helvetica,sans-Serif" font-size="10.00">OMSimSNAnalysis.hh</text>
</a>
</g>
</g>
<!-- Node2&#45;&gt;Node24 -->
<g id="edge30" class="edge">
<title>Node2&#45;&gt;Node24</title>
<path fill="none" stroke="midnightblue" d="M436.98,-220.77C411.24,-210.63 375.31,-196.47 352.61,-187.52"/>
<polygon fill="midnightblue" stroke="midnightblue" points="435.71,-224.03 446.29,-224.44 438.27,-217.52 435.71,-224.03"/>
</g>
<!-- Node25 -->
<g id="node25" class="node">
<title>Node25</title>
<g id="a_node25"><a xlink:href="_o_m_sim_s_n_analysis_8cc.html" target="_top" xlink:title="Analyze data and write output files.">
<polygon fill="none" stroke="black" points="232,-112.5 232,-131.5 352,-131.5 352,-112.5 232,-112.5"/>
<text text-anchor="middle" x="292" y="-119.5" font-family="Helvetica,sans-Serif" font-size="10.00">OMSimSNAnalysis.cc</text>
</a>
</g>
</g>
<!-- Node2&#45;&gt;Node25 -->
<g id="edge34" class="edge">
<title>Node2&#45;&gt;Node25</title>
<path fill="none" stroke="midnightblue" d="M396.37,-226.89C343.51,-220.73 277.94,-209.02 261,-188 246.72,-170.28 268.41,-144.9 282.15,-131.71"/>
<polygon fill="midnightblue" stroke="midnightblue" points="396.09,-230.38 406.42,-228.02 396.87,-223.43 396.09,-230.38"/>
</g>
<!-- Node4 -->
<g id="node4" class="node">
<title>Node4</title>
<g id="a_node4"><a xlink:href="_o_m_sim_8hh.html" target="_top" xlink:title="Main simulation class for the Optical Module (OM) simulation. This file defines the OMSim class,...">
<polygon fill="none" stroke="black" points="434.5,-56.5 434.5,-75.5 501.5,-75.5 501.5,-56.5 434.5,-56.5"/>
<text text-anchor="middle" x="468" y="-63.5" font-family="Helvetica,sans-Serif" font-size="10.00">OMSim.hh</text>
</a>
</g>
</g>
<!-- Node3&#45;&gt;Node4 -->
<g id="edge3" class="edge">
<title>Node3&#45;&gt;Node4</title>
<path fill="none" stroke="midnightblue" d="M468,-158.35C468,-134.25 468,-93.31 468,-75.59"/>
<polygon fill="midnightblue" stroke="midnightblue" points="464.5,-158.37 468,-168.37 471.5,-158.37 464.5,-158.37"/>
</g>
<!-- Node5 -->
<g id="node5" class="node">
<title>Node5</title>
<g id="a_node5"><a xlink:href="_o_m_sim_8cc.html" target="_top" xlink:title="Implementation of the OMSim class.">
<polygon fill="none" stroke="black" points="459.5,-0.5 459.5,-19.5 524.5,-19.5 524.5,-0.5 459.5,-0.5"/>
<text text-anchor="middle" x="492" y="-7.5" font-family="Helvetica,sans-Serif" font-size="10.00">OMSim.cc</text>
</a>
</g>
</g>
<!-- Node4&#45;&gt;Node5 -->
<g id="edge4" class="edge">
<title>Node4&#45;&gt;Node5</title>
<path fill="none" stroke="midnightblue" d="M476.14,-46.69C480.18,-37.59 484.88,-27.01 488.11,-19.75"/>
<polygon fill="midnightblue" stroke="midnightblue" points="472.83,-45.52 471.96,-56.08 479.22,-48.37 472.83,-45.52"/>
</g>
<!-- Node6 -->
<g id="node6" class="node">
<title>Node6</title>
<g id="a_node6"><a xlink:href="_o_m_sim__effective__area_8cc.html" target="_top" xlink:title="Main for the calculation of effective areas.">
<polygon fill="none" stroke="black" points="129,-0.5 129,-19.5 269,-19.5 269,-0.5 129,-0.5"/>
<text text-anchor="middle" x="199" y="-7.5" font-family="Helvetica,sans-Serif" font-size="10.00">OMSim_effective_area.cc</text>
</a>
</g>
</g>
<!-- Node4&#45;&gt;Node6 -->
<g id="edge5" class="edge">
<title>Node4&#45;&gt;Node6</title>
<path fill="none" stroke="midnightblue" d="M424.52,-56.27C374.06,-46.14 291.37,-29.54 241.38,-19.51"/>
<polygon fill="midnightblue" stroke="midnightblue" points="423.98,-59.73 434.47,-58.27 425.36,-52.87 423.98,-59.73"/>
</g>
<!-- Node4&#45;&gt;Node7 -->
<g id="edge6" class="edge">
<title>Node4&#45;&gt;Node7</title>
<path fill="none" stroke="midnightblue" d="M511.54,-56.71C513.04,-56.46 514.53,-56.23 516,-56 616.56,-40.57 732.94,-27.35 809.27,-19.31"/>
<polygon fill="midnightblue" stroke="midnightblue" points="510.79,-53.28 501.52,-58.42 511.97,-60.18 510.79,-53.28"/>
</g>
<!-- Node4&#45;&gt;Node8 -->
<g id="edge7" class="edge">
<title>Node4&#45;&gt;Node8</title>
<path fill="none" stroke="midnightblue" d="M445.02,-50.9C428.89,-41 407.82,-28.07 394.1,-19.65"/>
<polygon fill="midnightblue" stroke="midnightblue" points="443.51,-54.08 453.86,-56.32 447.17,-48.11 443.51,-54.08"/>
</g>
<!-- Node10 -->
<g id="node10" class="node">
<title>Node10</title>
<g id="a_node10"><a xlink:href="_o_m_sim_d_e_g_g_8hh.html" target="_top" xlink:title="Construction of the DEGG class. From DOUMEKI.">
<polygon fill="none" stroke="black" points="679.5,-112.5 679.5,-131.5 774.5,-131.5 774.5,-112.5 679.5,-112.5"/>
<text text-anchor="middle" x="727" y="-119.5" font-family="Helvetica,sans-Serif" font-size="10.00">OMSimDEGG.hh</text>
</a>
</g>
</g>
<!-- Node9&#45;&gt;Node10 -->
<g id="edge9" class="edge">
<title>Node9&#45;&gt;Node10</title>
<path fill="none" stroke="midnightblue" d="M971.2,-166.66C914.12,-156.46 827.88,-141.04 774.63,-131.52"/>
<polygon fill="midnightblue" stroke="midnightblue" points="970.69,-170.13 981.15,-168.44 971.92,-163.24 970.69,-170.13"/>
</g>
<!-- Node11 -->
<g id="node11" class="node">
<title>Node11</title>
<g id="a_node11"><a xlink:href="_o_m_sim_detector_construction_8hh_source.html" target="_top" xlink:title=" ">
<polygon fill="none" stroke="black" points="793,-112.5 793,-131.5 963,-131.5 963,-112.5 793,-112.5"/>
<text text-anchor="middle" x="878" y="-119.5" font-family="Helvetica,sans-Serif" font-size="10.00">OMSimDetectorConstruction.hh</text>
</a>
</g>
</g>
<!-- Node9&#45;&gt;Node11 -->
<g id="edge10" class="edge">
<title>Node9&#45;&gt;Node11</title>
<path fill="none" stroke="midnightblue" d="M995.55,-165.04C967.14,-154.88 927.06,-140.55 901.81,-131.52"/>
<polygon fill="midnightblue" stroke="midnightblue" points="994.48,-168.37 1005.07,-168.44 996.84,-161.78 994.48,-168.37"/>
</g>
<!-- Node14 -->
<g id="node14" class="node">
<title>Node14</title>
<g id="a_node14"><a xlink:href="_o_m_sim_rad_decays_detector_8hh.html" target="_top" xlink:title="Defines the OMSimRadDecaysDetector class for the radioactive decays simulation.">
<polygon fill="none" stroke="black" points="1078.5,-56.5 1078.5,-75.5 1241.5,-75.5 1241.5,-56.5 1078.5,-56.5"/>
<text text-anchor="middle" x="1160" y="-63.5" font-family="Helvetica,sans-Serif" font-size="10.00">OMSimRadDecaysDetector.hh</text>
</a>
</g>
</g>
<!-- Node9&#45;&gt;Node14 -->
<g id="edge25" class="edge">
<title>Node9&#45;&gt;Node14</title>
<path fill="none" stroke="midnightblue" d="M1017.99,-158.96C1011,-144.92 1004.97,-125.61 1015,-112 1030.01,-91.63 1054.15,-80.21 1078.47,-73.89"/>
<polygon fill="midnightblue" stroke="midnightblue" points="1015.14,-161.03 1023.04,-168.09 1021.27,-157.64 1015.14,-161.03"/>
</g>
<!-- Node16 -->
<g id="node16" class="node">
<title>Node16</title>
<g id="a_node16"><a xlink:href="_o_m_sim_l_o_m16_8hh.html" target="_top" xlink:title="Construction of LOM16.">
<polygon fill="none" stroke="black" points="1057.5,-112.5 1057.5,-131.5 1158.5,-131.5 1158.5,-112.5 1057.5,-112.5"/>
<text text-anchor="middle" x="1108" y="-119.5" font-family="Helvetica,sans-Serif" font-size="10.00">OMSimLOM16.hh</text>
</a>
</g>
</g>
<!-- Node9&#45;&gt;Node16 -->
<g id="edge18" class="edge">
<title>Node9&#45;&gt;Node16</title>
<path fill="none" stroke="midnightblue" d="M1050.03,-162.62C1064.47,-152.76 1083.14,-139.99 1095.34,-131.65"/>
<polygon fill="midnightblue" stroke="midnightblue" points="1047.97,-159.79 1041.69,-168.32 1051.92,-165.57 1047.97,-159.79"/>
</g>
<!-- Node17 -->
<g id="node17" class="node">
<title>Node17</title>
<g id="a_node17"><a xlink:href="_o_m_sim_l_o_m18_8hh.html" target="_top" xlink:title="Construction of LOM18.">
<polygon fill="none" stroke="black" points="1176.5,-112.5 1176.5,-131.5 1277.5,-131.5 1277.5,-112.5 1176.5,-112.5"/>
<text text-anchor="middle" x="1227" y="-119.5" font-family="Helvetica,sans-Serif" font-size="10.00">OMSimLOM18.hh</text>
</a>
</g>
</g>
<!-- Node9&#45;&gt;Node17 -->
<g id="edge19" class="edge">
<title>Node9&#45;&gt;Node17</title>
<path fill="none" stroke="midnightblue" d="M1070.44,-165.7C1107.81,-155.51 1161.94,-140.74 1195.77,-131.52"/>
<polygon fill="midnightblue" stroke="midnightblue" points="1069.1,-162.44 1060.37,-168.44 1070.94,-169.19 1069.1,-162.44"/>
</g>
<!-- Node19 -->
<g id="node19" class="node">
<title>Node19</title>
<g id="a_node19"><a xlink:href="_o_m_sim_m_d_o_m_8hh.html" target="_top" xlink:title="Construction of mDOM.">
<polygon fill="none" stroke="black" points="1296,-112.5 1296,-131.5 1396,-131.5 1396,-112.5 1296,-112.5"/>
<text text-anchor="middle" x="1346" y="-119.5" font-family="Helvetica,sans-Serif" font-size="10.00">OMSimMDOM.hh</text>
</a>
</g>
</g>
<!-- Node9&#45;&gt;Node19 -->
<g id="edge21" class="edge">
<title>Node9&#45;&gt;Node19</title>
<path fill="none" stroke="midnightblue" d="M1089.3,-166.73C1149.21,-156.52 1239.99,-141.06 1296.01,-131.52"/>
<polygon fill="midnightblue" stroke="midnightblue" points="1088.5,-163.31 1079.23,-168.44 1089.68,-170.21 1088.5,-163.31"/>
</g>
<!-- Node20 -->
<g id="node20" class="node">
<title>Node20</title>
<g id="a_node20"><a xlink:href="_o_m_sim_p_d_o_m_8hh.html" target="_top" xlink:title="Implementation of the pDOM/Gen1 DOM class.">
<polygon fill="none" stroke="black" points="1414.5,-112.5 1414.5,-131.5 1511.5,-131.5 1511.5,-112.5 1414.5,-112.5"/>
<text text-anchor="middle" x="1463" y="-119.5" font-family="Helvetica,sans-Serif" font-size="10.00">OMSimPDOM.hh</text>
</a>
</g>
</g>
<!-- Node9&#45;&gt;Node20 -->
<g id="edge22" class="edge">
<title>Node9&#45;&gt;Node20</title>
<path fill="none" stroke="midnightblue" d="M1107.7,-168.39C1183.84,-159.87 1302.46,-146.09 1405,-132 1408.03,-131.58 1411.14,-131.14 1414.28,-130.69"/>
<polygon fill="midnightblue" stroke="midnightblue" points="1107.25,-164.92 1097.7,-169.5 1108.03,-171.87 1107.25,-164.92"/>
</g>
<!-- Node21 -->
<g id="node21" class="node">
<title>Node21</title>
<g id="a_node21"><a xlink:href="_o_m_sim_decays_g_p_s_8hh.html" target="_top" xlink:title="Defines the OMSimDecaysGPS class for the radioactive decays simulation.">
<polygon fill="none" stroke="black" points="1260,-56.5 1260,-75.5 1382,-75.5 1382,-56.5 1260,-56.5"/>
<text text-anchor="middle" x="1321" y="-63.5" font-family="Helvetica,sans-Serif" font-size="10.00">OMSimDecaysGPS.hh</text>
</a>
</g>
</g>
<!-- Node9&#45;&gt;Node21 -->
<g id="edge23" class="edge">
<title>Node9&#45;&gt;Node21</title>
<path fill="none" stroke="midnightblue" d="M1029.64,-158.26C1031.2,-143.48 1035.82,-123.51 1049,-112 1056.92,-105.08 1182.16,-86.45 1259.91,-75.45"/>
<polygon fill="midnightblue" stroke="midnightblue" points="1026.15,-158.1 1028.96,-168.32 1033.13,-158.58 1026.15,-158.1"/>
</g>
<!-- Node11&#45;&gt;Node4 -->
<g id="edge11" class="edge">
<title>Node11&#45;&gt;Node4</title>
<path fill="none" stroke="midnightblue" d="M802.93,-111.11C713.25,-99.3 567.16,-80.06 501.65,-71.43"/>
<polygon fill="midnightblue" stroke="midnightblue" points="802.66,-114.61 813.03,-112.44 803.58,-107.67 802.66,-114.61"/>
</g>
<!-- Node12 -->
<g id="node12" class="node">
<title>Node12</title>
<g id="a_node12"><a xlink:href="effective__area_2include_2_o_m_sim_effective_area_detector_8hh.html" target="_top" xlink:title="Defines the OMSimEffectiveAreaDetector class for effective area simulation detector construction.">
<polygon fill="none" stroke="black" points="887.5,-56.5 887.5,-75.5 1060.5,-75.5 1060.5,-56.5 887.5,-56.5"/>
<text text-anchor="middle" x="974" y="-63.5" font-family="Helvetica,sans-Serif" font-size="10.00">OMSimEffectiveAreaDetector.hh</text>
</a>
</g>
</g>
<!-- Node11&#45;&gt;Node12 -->
<g id="edge12" class="edge">
<title>Node11&#45;&gt;Node12</title>
<path fill="none" stroke="midnightblue" d="M902.57,-107.18C920.24,-97.24 943.51,-84.15 958.61,-75.65"/>
<polygon fill="midnightblue" stroke="midnightblue" points="900.42,-104.37 893.42,-112.32 903.86,-110.47 900.42,-104.37"/>
</g>
<!-- Node13 -->
<g id="node13" class="node">
<title>Node13</title>
<g id="a_node13"><a xlink:href="efficiency__calibration_2include_2_o_m_sim_effective_area_detector_8hh.html" target="_top" xlink:title="Defines the OMSimEffectiveAreaDetector class for effective area simulation detector construction.">
<polygon fill="none" stroke="black" points="696.5,-56.5 696.5,-75.5 869.5,-75.5 869.5,-56.5 696.5,-56.5"/>
<text text-anchor="middle" x="783" y="-63.5" font-family="Helvetica,sans-Serif" font-size="10.00">OMSimEffectiveAreaDetector.hh</text>
</a>
</g>
</g>
<!-- Node11&#45;&gt;Node13 -->
<g id="edge13" class="edge">
<title>Node11&#45;&gt;Node13</title>
<path fill="none" stroke="midnightblue" d="M853.68,-107.18C836.2,-97.24 813.17,-84.15 798.23,-75.65"/>
<polygon fill="midnightblue" stroke="midnightblue" points="852.31,-110.43 862.74,-112.32 855.77,-104.34 852.31,-110.43"/>
</g>
<!-- Node11&#45;&gt;Node14 -->
<g id="edge14" class="edge">
<title>Node11&#45;&gt;Node14</title>
<path fill="none" stroke="midnightblue" d="M932.64,-110.54C985.94,-100.33 1066,-85 1115.53,-75.52"/>
<polygon fill="midnightblue" stroke="midnightblue" points="931.85,-107.13 922.68,-112.44 933.16,-114 931.85,-107.13"/>
</g>
<!-- Node15 -->
<g id="node15" class="node">
<title>Node15</title>
<g id="a_node15"><a xlink:href="_o_m_sim_s_ndetector_8hh_source.html" target="_top" xlink:title=" ">
<polygon fill="none" stroke="black" points="558,-56.5 558,-75.5 678,-75.5 678,-56.5 558,-56.5"/>
<text text-anchor="middle" x="618" y="-63.5" font-family="Helvetica,sans-Serif" font-size="10.00">OMSimSNdetector.hh</text>
</a>
</g>
</g>
<!-- Node11&#45;&gt;Node15 -->
<g id="edge16" class="edge">
<title>Node11&#45;&gt;Node15</title>
<path fill="none" stroke="midnightblue" d="M827.01,-110.41C777.87,-100.2 704.47,-84.96 659.01,-75.52"/>
<polygon fill="midnightblue" stroke="midnightblue" points="826.3,-113.84 836.8,-112.44 827.72,-106.98 826.3,-113.84"/>
</g>
<!-- Node14&#45;&gt;Node7 -->
<g id="edge15" class="edge">
<title>Node14&#45;&gt;Node7</title>
<path fill="none" stroke="midnightblue" d="M1107.44,-54.41C1056.79,-44.2 981.13,-28.96 934.27,-19.52"/>
<polygon fill="midnightblue" stroke="midnightblue" points="1107.04,-57.9 1117.53,-56.44 1108.42,-51.04 1107.04,-57.9"/>
</g>
<!-- Node15&#45;&gt;Node8 -->
<g id="edge17" class="edge">
<title>Node15&#45;&gt;Node8</title>
<path fill="none" stroke="midnightblue" d="M570.48,-54.22C525.5,-44.01 458.9,-28.9 417.54,-19.52"/>
<polygon fill="midnightblue" stroke="midnightblue" points="569.76,-57.64 580.29,-56.44 571.31,-50.82 569.76,-57.64"/>
</g>
<!-- Node18 -->
<g id="node18" class="node">
<title>Node18</title>
<g id="a_node18"><a xlink:href="_o_m_sim_l_o_m18_8cc.html" target="_top" xlink:title=" ">
<polygon fill="none" stroke="black" points="1400.5,-56.5 1400.5,-75.5 1499.5,-75.5 1499.5,-56.5 1400.5,-56.5"/>
<text text-anchor="middle" x="1450" y="-63.5" font-family="Helvetica,sans-Serif" font-size="10.00">OMSimLOM18.cc</text>
</a>
</g>
</g>
<!-- Node17&#45;&gt;Node18 -->
<g id="edge20" class="edge">
<title>Node17&#45;&gt;Node18</title>
<path fill="none" stroke="midnightblue" d="M1272.06,-110.09C1314.19,-99.89 1376.24,-84.86 1414.83,-75.52"/>
<polygon fill="midnightblue" stroke="midnightblue" points="1271.23,-106.69 1262.34,-112.44 1272.88,-113.49 1271.23,-106.69"/>
</g>
<!-- Node21&#45;&gt;Node7 -->
<g id="edge24" class="edge">
<title>Node21&#45;&gt;Node7</title>
<path fill="none" stroke="midnightblue" d="M1249.91,-55.86C1142.84,-42.28 1030.56,-28.25 960.5,-19.52"/>
<polygon fill="midnightblue" stroke="midnightblue" points="1249.56,-59.35 1259.92,-57.14 1250.44,-52.4 1249.56,-59.35"/>
</g>
<!-- Node22&#45;&gt;Node6 -->
<g id="edge27" class="edge">
<title>Node22&#45;&gt;Node6</title>
<path fill="none" stroke="midnightblue" d="M99.83,-159.31C123.49,-123.92 175.89,-45.56 193.27,-19.57"/>
<polygon fill="midnightblue" stroke="midnightblue" points="96.62,-157.82 93.97,-168.08 102.44,-161.71 96.62,-157.82"/>
</g>
<!-- Node24&#45;&gt;Node8 -->
<g id="edge31" class="edge">
<title>Node24&#45;&gt;Node8</title>
<path fill="none" stroke="midnightblue" d="M344.74,-160.2C350.65,-152.13 357.08,-142.04 361,-132 376.61,-91.98 379.41,-39.78 379.9,-19.54"/>
<polygon fill="midnightblue" stroke="midnightblue" points="341.79,-158.29 338.45,-168.34 347.33,-162.56 341.79,-158.29"/>
</g>
<!-- Node24&#45;&gt;Node25 -->
<g id="edge32" class="edge">
<title>Node24&#45;&gt;Node25</title>
<path fill="none" stroke="midnightblue" d="M318.62,-159.86C311.86,-150.5 303.79,-139.33 298.32,-131.75"/>
<polygon fill="midnightblue" stroke="midnightblue" points="315.87,-162.03 324.56,-168.08 321.54,-157.93 315.87,-162.03"/>
</g>
<!-- Node27&#45;&gt;Node9 -->
<g id="edge41" class="edge">
<title>Node27&#45;&gt;Node9</title>
<path fill="none" stroke="midnightblue" d="M1101.66,-219.45C1083.76,-209.48 1059.95,-196.23 1044.55,-187.65"/>
<polygon fill="midnightblue" stroke="midnightblue" points="1099.98,-222.52 1110.42,-224.32 1103.38,-216.4 1099.98,-222.52"/>
</g>
<!-- Node27&#45;&gt;Node10 -->
<g id="edge37" class="edge">
<title>Node27&#45;&gt;Node10</title>
<path fill="none" stroke="midnightblue" d="M1081.95,-221.97C1046.72,-213.07 996.1,-200.07 952,-188 881.21,-168.63 798.39,-144.26 755.7,-131.57"/>
<polygon fill="midnightblue" stroke="midnightblue" points="1081.36,-225.43 1091.92,-224.49 1083.08,-218.65 1081.36,-225.43"/>
</g>
<!-- Node27&#45;&gt;Node16 -->
<g id="edge38" class="edge">
<title>Node27&#45;&gt;Node16</title>
<path fill="none" stroke="midnightblue" d="M1122.95,-214.35C1119.01,-190.25 1112.3,-149.31 1109.41,-131.59"/>
<polygon fill="midnightblue" stroke="midnightblue" points="1119.52,-215.06 1124.59,-224.37 1126.43,-213.93 1119.52,-215.06"/>
</g>
<!-- Node27&#45;&gt;Node17 -->
<g id="edge39" class="edge">
<title>Node27&#45;&gt;Node17</title>
<path fill="none" stroke="midnightblue" d="M1140.79,-216.9C1162.5,-193.25 1202.26,-149.95 1219.11,-131.59"/>
<polygon fill="midnightblue" stroke="midnightblue" points="1138.11,-214.64 1133.93,-224.37 1143.27,-219.37 1138.11,-214.64"/>
</g>
<!-- Node27&#45;&gt;Node19 -->
<g id="edge40" class="edge">
<title>Node27&#45;&gt;Node19</title>
<path fill="none" stroke="midnightblue" d="M1152.24,-219.88C1197.84,-197.08 1290.5,-150.75 1328.82,-131.59"/>
<polygon fill="midnightblue" stroke="midnightblue" points="1150.64,-216.77 1143.26,-224.37 1153.77,-223.03 1150.64,-216.77"/>
</g>
<!-- Node27&#45;&gt;Node20 -->
<g id="edge42" class="edge">
<title>Node27&#45;&gt;Node20</title>
<path fill="none" stroke="midnightblue" d="M1162.02,-221.24C1230.22,-198.98 1376.69,-151.17 1436.62,-131.61"/>
<polygon fill="midnightblue" stroke="midnightblue" points="1160.58,-218.03 1152.16,-224.46 1162.76,-224.68 1160.58,-218.03"/>
</g>
<!-- Node27&#45;&gt;Node27 -->
<g id="edge43" class="edge">
<title>Node27&#45;&gt;Node27</title>
<path fill="none" stroke="midnightblue" d="M1175.43,-244.29C1198.41,-245.42 1218.5,-241.99 1218.5,-234 1218.5,-224.87 1192.26,-221.69 1165.45,-224.47"/>
<polygon fill="midnightblue" stroke="midnightblue" points="1175.69,-240.8 1165.45,-243.53 1175.15,-247.78 1175.69,-240.8"/>
</g>
</g>
</svg>
