<?xml version="1.0" encoding="UTF-8" standalone="no"?>
<!DOCTYPE svg PUBLIC "-//W3C//DTD SVG 1.1//EN"
 "http://www.w3.org/Graphics/SVG/1.1/DTD/svg11.dtd">
<!-- Generated by graphviz version 2.43.0 (0)
 -->
<!-- Title: OMSimMDOMFlasher.hh Pages: 1 -->
<svg width="1256pt" height="140pt"
 viewBox="0.00 0.00 1256.00 140.00" xmlns="http://www.w3.org/2000/svg" xmlns:xlink="http://www.w3.org/1999/xlink">
<g id="graph0" class="graph" transform="scale(1 1) rotate(0) translate(4 136)">
<title>OMSimMDOMFlasher.hh</title>
<polygon fill="white" stroke="transparent" points="-4,4 -4,-136 1252,-136 1252,4 -4,4"/>
<!-- Node1 -->
<g id="node1" class="node">
<title>Node1</title>
<g id="a_node1"><a xlink:title="Defines the mDOMFlasher class for simulating the 10 flashers in an mDOM optical module.">
<polygon fill="#bfbfbf" stroke="black" points="542,-112.5 542,-131.5 677,-131.5 677,-112.5 542,-112.5"/>
<text text-anchor="middle" x="609.5" y="-119.5" font-family="Helvetica,sans-Serif" font-size="10.00">OMSimMDOMFlasher.hh</text>
</a>
</g>
</g>
<!-- Node2 -->
<g id="node2" class="node">
<title>Node2</title>
<g id="a_node2"><a xlink:href="_o_m_sim_m_d_o_m_8hh.html" target="_top" xlink:title="Construction of mDOM.">
<polygon fill="white" stroke="black" points="559.5,-56.5 559.5,-75.5 659.5,-75.5 659.5,-56.5 559.5,-56.5"/>
<text text-anchor="middle" x="609.5" y="-63.5" font-family="Helvetica,sans-Serif" font-size="10.00">OMSimMDOM.hh</text>
</a>
</g>
</g>
<!-- Node1&#45;&gt;Node2 -->
<g id="edge1" class="edge">
<title>Node1&#45;&gt;Node2</title>
<path fill="none" stroke="midnightblue" d="M609.5,-101.8C609.5,-92.91 609.5,-82.78 609.5,-75.75"/>
<polygon fill="midnightblue" stroke="midnightblue" points="606,-102.08 609.5,-112.08 613,-102.08 606,-102.08"/>
</g>
<!-- Node3 -->
<g id="node3" class="node">
<title>Node3</title>
<g id="a_node3"><a xlink:href="_o_m_sim_detector_construction_8cc.html" target="_top" xlink:title=" ">
<polygon fill="white" stroke="black" points="0,-0.5 0,-19.5 169,-19.5 169,-0.5 0,-0.5"/>
<text text-anchor="middle" x="84.5" y="-7.5" font-family="Helvetica,sans-Serif" font-size="10.00">OMSimDetectorConstruction.cc</text>
</a>
</g>
</g>
<!-- Node2&#45;&gt;Node3 -->
<g id="edge2" class="edge">
<title>Node2&#45;&gt;Node3</title>
<path fill="none" stroke="midnightblue" d="M548.95,-58.77C454.85,-49.09 273.29,-30.42 167.19,-19.5"/>
<polygon fill="midnightblue" stroke="midnightblue" points="548.86,-62.28 559.16,-59.82 549.57,-55.32 548.86,-62.28"/>
</g>
<!-- Node4 -->
<g id="node4" class="node">
<title>Node4</title>
<g id="a_node4"><a xlink:href="_o_m_sim_m_d_o_m_8cc.html" target="_top" xlink:title=" ">
<polygon fill="white" stroke="black" points="186.5,-0.5 186.5,-19.5 284.5,-19.5 284.5,-0.5 186.5,-0.5"/>
<text text-anchor="middle" x="235.5" y="-7.5" font-family="Helvetica,sans-Serif" font-size="10.00">OMSimMDOM.cc</text>
</a>
</g>
</g>
<!-- Node2&#45;&gt;Node4 -->
<g id="edge3" class="edge">
<title>Node2&#45;&gt;Node4</title>
<path fill="none" stroke="midnightblue" d="M549.15,-56.63C485.53,-47.76 382.41,-33.23 293.5,-20 290.58,-19.57 287.57,-19.11 284.54,-18.65"/>
<polygon fill="midnightblue" stroke="midnightblue" points="549.01,-60.15 559.39,-58.06 549.97,-53.21 549.01,-60.15"/>
</g>
<!-- Node5 -->
<g id="node5" class="node">
<title>Node5</title>
<g id="a_node5"><a xlink:href="_o_m_sim_m_d_o_m_flasher_8cc.html" target="_top" xlink:title=" ">
<polygon fill="white" stroke="black" points="302.5,-0.5 302.5,-19.5 436.5,-19.5 436.5,-0.5 302.5,-0.5"/>
<text text-anchor="middle" x="369.5" y="-7.5" font-family="Helvetica,sans-Serif" font-size="10.00">OMSimMDOMFlasher.cc</text>
</a>
</g>
</g>
<!-- Node2&#45;&gt;Node5 -->
<g id="edge4" class="edge">
<title>Node2&#45;&gt;Node5</title>
<path fill="none" stroke="midnightblue" d="M561.58,-54.22C516.23,-44.01 449.06,-28.9 407.35,-19.52"/>
<polygon fill="midnightblue" stroke="midnightblue" points="560.95,-57.66 571.47,-56.44 562.48,-50.83 560.95,-57.66"/>
</g>
<!-- Node6 -->
<g id="node6" class="node">
<title>Node6</title>
<g id="a_node6"><a xlink:href="_o_m_sim_m_d_o_m_harness_8cc.html" target="_top" xlink:title=" ">
<polygon fill="white" stroke="black" points="454.5,-0.5 454.5,-19.5 592.5,-19.5 592.5,-0.5 454.5,-0.5"/>
<text text-anchor="middle" x="523.5" y="-7.5" font-family="Helvetica,sans-Serif" font-size="10.00">OMSimMDOMHarness.cc</text>
</a>
</g>
</g>
<!-- Node2&#45;&gt;Node6 -->
<g id="edge5" class="edge">
<title>Node2&#45;&gt;Node6</title>
<path fill="none" stroke="midnightblue" d="M587.05,-50.9C571.28,-41 550.69,-28.07 537.28,-19.65"/>
<polygon fill="midnightblue" stroke="midnightblue" points="585.35,-53.97 595.68,-56.32 589.07,-48.04 585.35,-53.97"/>
</g>
<!-- Node7 -->
<g id="node7" class="node">
<title>Node7</title>
<g id="a_node7"><a xlink:href="_o_m_sim_effective_area_detector_8cc.html" target="_top" xlink:title=" ">
<polygon fill="white" stroke="black" points="610.5,-0.5 610.5,-19.5 782.5,-19.5 782.5,-0.5 610.5,-0.5"/>
<text text-anchor="middle" x="696.5" y="-7.5" font-family="Helvetica,sans-Serif" font-size="10.00">OMSimEffectiveAreaDetector.cc</text>
</a>
</g>
</g>
<!-- Node2&#45;&gt;Node7 -->
<g id="edge6" class="edge">
<title>Node2&#45;&gt;Node7</title>
<path fill="none" stroke="midnightblue" d="M632.22,-50.9C648.17,-41 669,-28.07 682.56,-19.65"/>
<polygon fill="midnightblue" stroke="midnightblue" points="630.13,-48.08 623.48,-56.32 633.82,-54.02 630.13,-48.08"/>
</g>
<!-- Node8 -->
<g id="node8" class="node">
<title>Node8</title>
<g id="a_node8"><a xlink:href="_o_m_sim_rad_decays_detector_8cc.html" target="_top" xlink:title=" ">
<polygon fill="white" stroke="black" points="801,-0.5 801,-19.5 962,-19.5 962,-0.5 801,-0.5"/>
<text text-anchor="middle" x="881.5" y="-7.5" font-family="Helvetica,sans-Serif" font-size="10.00">OMSimRadDecaysDetector.cc</text>
</a>
</g>
</g>
<!-- Node2&#45;&gt;Node8 -->
<g id="edge7" class="edge">
<title>Node2&#45;&gt;Node8</title>
<path fill="none" stroke="midnightblue" d="M662.52,-54.47C713.93,-44.27 790.94,-28.98 838.6,-19.52"/>
<polygon fill="midnightblue" stroke="midnightblue" points="661.73,-51.06 652.6,-56.44 663.09,-57.93 661.73,-51.06"/>
</g>
<!-- Node9 -->
<g id="node9" class="node">
<title>Node9</title>
<g id="a_node9"><a xlink:href="_o_m_sim_yield_detector_8cc.html" target="_top" xlink:title=" ">
<polygon fill="white" stroke="black" points="980,-0.5 980,-19.5 1111,-19.5 1111,-0.5 980,-0.5"/>
<text text-anchor="middle" x="1045.5" y="-7.5" font-family="Helvetica,sans-Serif" font-size="10.00">OMSimYieldDetector.cc</text>
</a>
</g>
</g>
<!-- Node2&#45;&gt;Node9 -->
<g id="edge8" class="edge">
<title>Node2&#45;&gt;Node9</title>
<path fill="none" stroke="midnightblue" d="M669.6,-57.56C750.96,-47.48 895.63,-29.56 979.79,-19.14"/>
<polygon fill="midnightblue" stroke="midnightblue" points="669.01,-54.1 659.51,-58.81 669.87,-61.05 669.01,-54.1"/>
</g>
<!-- Node10 -->
<g id="node10" class="node">
<title>Node10</title>
<g id="a_node10"><a xlink:href="_o_m_sim_s_ndetector_8cc.html" target="_top" xlink:title=" ">
<polygon fill="white" stroke="black" points="1129,-0.5 1129,-19.5 1248,-19.5 1248,-0.5 1129,-0.5"/>
<text text-anchor="middle" x="1188.5" y="-7.5" font-family="Helvetica,sans-Serif" font-size="10.00">OMSimSNdetector.cc</text>
</a>
</g>
</g>
<!-- Node2&#45;&gt;Node10 -->
<g id="edge9" class="edge">
<title>Node2&#45;&gt;Node10</title>
<path fill="none" stroke="midnightblue" d="M669.68,-60.56C765.31,-53.31 957.79,-37.92 1120.5,-20 1123.22,-19.7 1126,-19.38 1128.81,-19.05"/>
<polygon fill="midnightblue" stroke="midnightblue" points="669.33,-57.07 659.62,-61.32 669.85,-64.05 669.33,-57.07"/>
</g>
</g>
</svg>
