<?xml version="1.0" encoding="UTF-8" standalone="no"?>
<!DOCTYPE svg PUBLIC "-//W3C//DTD SVG 1.1//EN"
 "http://www.w3.org/Graphics/SVG/1.1/DTD/svg11.dtd">
<!-- Generated by graphviz version 2.43.0 (0)
 -->
<!-- Title: OMSimHitManager.cc Pages: 1 -->
<svg width="910pt" height="207pt"
 viewBox="0.00 0.00 909.50 207.00" xmlns="http://www.w3.org/2000/svg" xmlns:xlink="http://www.w3.org/1999/xlink">
<g id="graph0" class="graph" transform="scale(1 1) rotate(0) translate(4 203)">
<title>OMSimHitManager.cc</title>
<polygon fill="white" stroke="transparent" points="-4,4 -4,-203 905.5,-203 905.5,4 -4,4"/>
<!-- Node1 -->
<g id="node1" class="node">
<title>Node1</title>
<g id="a_node1"><a xlink:title=" ">
<polygon fill="#bfbfbf" stroke="black" points="621.5,-179.5 621.5,-198.5 743.5,-198.5 743.5,-179.5 621.5,-179.5"/>
<text text-anchor="middle" x="682.5" y="-186.5" font-family="Helvetica,sans-Serif" font-size="10.00">OMSimHitManager.cc</text>
</a>
</g>
</g>
<!-- Node2 -->
<g id="node2" class="node">
<title>Node2</title>
<g id="a_node2"><a xlink:href="_o_m_sim_hit_manager_8hh.html" target="_top" xlink:title="Defines structures and classes related to optical module photon hit management.">
<polygon fill="white" stroke="black" points="363,-123.5 363,-142.5 486,-142.5 486,-123.5 363,-123.5"/>
<text text-anchor="middle" x="424.5" y="-130.5" font-family="Helvetica,sans-Serif" font-size="10.00">OMSimHitManager.hh</text>
</a>
</g>
</g>
<!-- Node1&#45;&gt;Node2 -->
<g id="edge1" class="edge">
<title>Node1&#45;&gt;Node2</title>
<path fill="none" stroke="midnightblue" d="M641.62,-179.44C596.52,-170 523.89,-154.8 475.2,-144.61"/>
<polygon fill="midnightblue" stroke="midnightblue" points="475.69,-141.14 465.19,-142.52 474.26,-147.99 475.69,-141.14"/>
</g>
<!-- Node11 -->
<g id="node11" class="node">
<title>Node11</title>
<g id="a_node11"><a xlink:href="_o_m_sim_command_args_table_8hh.html" target="_top" xlink:title="Definition of the OMSimCommandArgsTable singleton class, which controls user args.">
<polygon fill="white" stroke="black" points="519.5,-123.5 519.5,-142.5 683.5,-142.5 683.5,-123.5 519.5,-123.5"/>
<text text-anchor="middle" x="601.5" y="-130.5" font-family="Helvetica,sans-Serif" font-size="10.00">OMSimCommandArgsTable.hh</text>
</a>
</g>
</g>
<!-- Node1&#45;&gt;Node11 -->
<g id="edge10" class="edge">
<title>Node1&#45;&gt;Node11</title>
<path fill="none" stroke="midnightblue" d="M669.49,-179.32C656.97,-170.98 637.82,-158.21 623.03,-148.35"/>
<polygon fill="midnightblue" stroke="midnightblue" points="624.74,-145.29 614.48,-142.65 620.86,-151.11 624.74,-145.29"/>
</g>
<!-- Node19 -->
<g id="node19" class="node">
<title>Node19</title>
<g id="a_node19"><a xlink:title=" ">
<polygon fill="white" stroke="#bfbfbf" points="702,-123.5 702,-142.5 827,-142.5 827,-123.5 702,-123.5"/>
<text text-anchor="middle" x="764.5" y="-130.5" font-family="Helvetica,sans-Serif" font-size="10.00">OMSimEventAction.hh</text>
</a>
</g>
</g>
<!-- Node1&#45;&gt;Node19 -->
<g id="edge19" class="edge">
<title>Node1&#45;&gt;Node19</title>
<path fill="none" stroke="midnightblue" d="M695.67,-179.32C708.35,-170.98 727.73,-158.21 742.71,-148.35"/>
<polygon fill="midnightblue" stroke="midnightblue" points="744.93,-151.08 751.36,-142.65 741.08,-145.23 744.93,-151.08"/>
</g>
<!-- Node20 -->
<g id="node20" class="node">
<title>Node20</title>
<g id="a_node20"><a xlink:title=" ">
<polygon fill="white" stroke="#bfbfbf" points="845.5,-123.5 845.5,-142.5 901.5,-142.5 901.5,-123.5 845.5,-123.5"/>
<text text-anchor="middle" x="873.5" y="-130.5" font-family="Helvetica,sans-Serif" font-size="10.00">numeric</text>
</a>
</g>
</g>
<!-- Node1&#45;&gt;Node20 -->
<g id="edge20" class="edge">
<title>Node1&#45;&gt;Node20</title>
<path fill="none" stroke="midnightblue" d="M712.76,-179.44C746.03,-170.04 799.53,-154.91 835.57,-144.72"/>
<polygon fill="midnightblue" stroke="midnightblue" points="836.57,-148.08 845.25,-141.99 834.67,-141.34 836.57,-148.08"/>
</g>
<!-- Node3 -->
<g id="node3" class="node">
<title>Node3</title>
<g id="a_node3"><a xlink:href="_o_m_sim_p_m_t_response_8hh.html" target="_top" xlink:title="Provides simulation for PMT response. This class is responsible for transforming hits on photocathode...">
<polygon fill="white" stroke="black" points="193,-67.5 193,-86.5 328,-86.5 328,-67.5 193,-67.5"/>
<text text-anchor="middle" x="260.5" y="-74.5" font-family="Helvetica,sans-Serif" font-size="10.00">OMSimPMTResponse.hh</text>
</a>
</g>
</g>
<!-- Node2&#45;&gt;Node3 -->
<g id="edge2" class="edge">
<title>Node2&#45;&gt;Node3</title>
<path fill="none" stroke="midnightblue" d="M398.51,-123.44C370.8,-114.32 326.75,-99.81 295.88,-89.65"/>
<polygon fill="midnightblue" stroke="midnightblue" points="296.96,-86.32 286.36,-86.52 294.77,-92.97 296.96,-86.32"/>
</g>
<!-- Node9 -->
<g id="node9" class="node">
<title>Node9</title>
<g id="a_node9"><a xlink:title=" ">
<polygon fill="white" stroke="#bfbfbf" points="358,-67.5 358,-86.5 461,-86.5 461,-67.5 358,-67.5"/>
<text text-anchor="middle" x="409.5" y="-74.5" font-family="Helvetica,sans-Serif" font-size="10.00">G4ThreeVector.hh</text>
</a>
</g>
</g>
<!-- Node2&#45;&gt;Node9 -->
<g id="edge8" class="edge">
<title>Node2&#45;&gt;Node9</title>
<path fill="none" stroke="midnightblue" d="M422.02,-123.08C420.01,-115.85 417.11,-105.41 414.61,-96.4"/>
<polygon fill="midnightblue" stroke="midnightblue" points="417.98,-95.45 411.93,-86.75 411.24,-97.32 417.98,-95.45"/>
</g>
<!-- Node10 -->
<g id="node10" class="node">
<title>Node10</title>
<g id="a_node10"><a xlink:title=" ">
<polygon fill="white" stroke="#bfbfbf" points="479,-67.5 479,-86.5 534,-86.5 534,-67.5 479,-67.5"/>
<text text-anchor="middle" x="506.5" y="-74.5" font-family="Helvetica,sans-Serif" font-size="10.00">fstream</text>
</a>
</g>
</g>
<!-- Node2&#45;&gt;Node10 -->
<g id="edge9" class="edge">
<title>Node2&#45;&gt;Node10</title>
<path fill="none" stroke="midnightblue" d="M437.67,-123.32C450.35,-114.98 469.73,-102.21 484.71,-92.35"/>
<polygon fill="midnightblue" stroke="midnightblue" points="486.93,-95.08 493.36,-86.65 483.08,-89.23 486.93,-95.08"/>
</g>
<!-- Node4 -->
<g id="node4" class="node">
<title>Node4</title>
<g id="a_node4"><a xlink:title=" ">
<polygon fill="white" stroke="#bfbfbf" points="0,-6 0,-25 119,-25 119,-6 0,-6"/>
<text text-anchor="middle" x="59.5" y="-13" font-family="Helvetica,sans-Serif" font-size="10.00">G4SystemOfUnits.hh</text>
</a>
</g>
</g>
<!-- Node3&#45;&gt;Node4 -->
<g id="edge3" class="edge">
<title>Node3&#45;&gt;Node4</title>
<path fill="none" stroke="midnightblue" d="M231.7,-67.48C196.63,-57.09 137.24,-39.51 98.19,-27.95"/>
<polygon fill="midnightblue" stroke="midnightblue" points="98.83,-24.49 88.24,-25.01 96.84,-31.2 98.83,-24.49"/>
</g>
<!-- Node5 -->
<g id="node5" class="node">
<title>Node5</title>
<g id="a_node5"><a xlink:title=" ">
<polygon fill="white" stroke="#bfbfbf" points="137,-6 137,-25 210,-25 210,-6 137,-6"/>
<text text-anchor="middle" x="173.5" y="-13" font-family="Helvetica,sans-Serif" font-size="10.00">G4Types.hh</text>
</a>
</g>
</g>
<!-- Node3&#45;&gt;Node5 -->
<g id="edge4" class="edge">
<title>Node3&#45;&gt;Node5</title>
<path fill="none" stroke="midnightblue" d="M248.04,-67.48C234.08,-57.93 211.24,-42.31 194.51,-30.87"/>
<polygon fill="midnightblue" stroke="midnightblue" points="196.17,-27.77 185.94,-25.01 192.22,-33.54 196.17,-27.77"/>
</g>
<!-- Node6 -->
<g id="node6" class="node">
<title>Node6</title>
<g id="a_node6"><a xlink:title=" ">
<polygon fill="white" stroke="#bfbfbf" points="228.5,-6 228.5,-25 266.5,-25 266.5,-6 228.5,-6"/>
<text text-anchor="middle" x="247.5" y="-13" font-family="Helvetica,sans-Serif" font-size="10.00">map</text>
</a>
</g>
</g>
<!-- Node3&#45;&gt;Node6 -->
<g id="edge5" class="edge">
<title>Node3&#45;&gt;Node6</title>
<path fill="none" stroke="midnightblue" d="M258.64,-67.48C256.78,-58.99 253.88,-45.7 251.5,-34.82"/>
<polygon fill="midnightblue" stroke="midnightblue" points="254.91,-34.03 249.36,-25.01 248.07,-35.53 254.91,-34.03"/>
</g>
<!-- Node7 -->
<g id="node7" class="node">
<title>Node7</title>
<g id="a_node7"><a xlink:title=" ">
<polygon fill="white" stroke="#bfbfbf" points="285,-6 285,-25 346,-25 346,-6 285,-6"/>
<text text-anchor="middle" x="315.5" y="-13" font-family="Helvetica,sans-Serif" font-size="10.00">TGraph.h</text>
</a>
</g>
</g>
<!-- Node3&#45;&gt;Node7 -->
<g id="edge6" class="edge">
<title>Node3&#45;&gt;Node7</title>
<path fill="none" stroke="midnightblue" d="M268.38,-67.48C276.79,-58.37 290.32,-43.74 300.73,-32.48"/>
<polygon fill="midnightblue" stroke="midnightblue" points="303.42,-34.73 307.63,-25.01 298.28,-29.98 303.42,-34.73"/>
</g>
<!-- Node8 -->
<g id="node8" class="node">
<title>Node8</title>
<g id="a_node8"><a xlink:title=" ">
<polygon fill="white" stroke="#bfbfbf" points="364,-6 364,-25 417,-25 417,-6 364,-6"/>
<text text-anchor="middle" x="390.5" y="-13" font-family="Helvetica,sans-Serif" font-size="10.00">TH2D.h</text>
</a>
</g>
</g>
<!-- Node3&#45;&gt;Node8 -->
<g id="edge7" class="edge">
<title>Node3&#45;&gt;Node8</title>
<path fill="none" stroke="midnightblue" d="M279.13,-67.48C300.94,-57.49 337.3,-40.85 362.52,-29.31"/>
<polygon fill="midnightblue" stroke="midnightblue" points="364.27,-32.35 371.91,-25.01 361.36,-25.99 364.27,-32.35"/>
</g>
<!-- Node11&#45;&gt;Node10 -->
<g id="edge16" class="edge">
<title>Node11&#45;&gt;Node10</title>
<path fill="none" stroke="midnightblue" d="M586.24,-123.32C571.28,-114.82 548.25,-101.73 530.77,-91.8"/>
<polygon fill="midnightblue" stroke="midnightblue" points="532.15,-88.55 521.73,-86.65 528.69,-94.64 532.15,-88.55"/>
</g>
<!-- Node12 -->
<g id="node12" class="node">
<title>Node12</title>
<g id="a_node12"><a xlink:href="_o_m_sim_logger_8hh.html" target="_top" xlink:title=" ">
<polygon fill="white" stroke="black" points="552,-67.5 552,-86.5 651,-86.5 651,-67.5 552,-67.5"/>
<text text-anchor="middle" x="601.5" y="-74.5" font-family="Helvetica,sans-Serif" font-size="10.00">OMSimLogger.hh</text>
</a>
</g>
</g>
<!-- Node11&#45;&gt;Node12 -->
<g id="edge11" class="edge">
<title>Node11&#45;&gt;Node12</title>
<path fill="none" stroke="midnightblue" d="M601.5,-123.08C601.5,-116.01 601.5,-105.86 601.5,-96.99"/>
<polygon fill="midnightblue" stroke="midnightblue" points="605,-96.75 601.5,-86.75 598,-96.75 605,-96.75"/>
</g>
<!-- Node17 -->
<g id="node17" class="node">
<title>Node17</title>
<g id="a_node17"><a xlink:title=" ">
<polygon fill="white" stroke="#bfbfbf" points="669.5,-67.5 669.5,-86.5 753.5,-86.5 753.5,-67.5 669.5,-67.5"/>
<text text-anchor="middle" x="711.5" y="-74.5" font-family="Helvetica,sans-Serif" font-size="10.00">boost/any.hpp</text>
</a>
</g>
</g>
<!-- Node11&#45;&gt;Node17 -->
<g id="edge17" class="edge">
<title>Node11&#45;&gt;Node17</title>
<path fill="none" stroke="midnightblue" d="M619.17,-123.32C636.89,-114.62 664.4,-101.12 684.79,-91.11"/>
<polygon fill="midnightblue" stroke="midnightblue" points="686.44,-94.2 693.87,-86.65 683.35,-87.92 686.44,-94.2"/>
</g>
<!-- Node18 -->
<g id="node18" class="node">
<title>Node18</title>
<g id="a_node18"><a xlink:title=" ">
<polygon fill="white" stroke="#bfbfbf" points="771.5,-67.5 771.5,-86.5 839.5,-86.5 839.5,-67.5 771.5,-67.5"/>
<text text-anchor="middle" x="805.5" y="-74.5" font-family="Helvetica,sans-Serif" font-size="10.00">sys/time.h</text>
</a>
</g>
</g>
<!-- Node11&#45;&gt;Node18 -->
<g id="edge18" class="edge">
<title>Node11&#45;&gt;Node18</title>
<path fill="none" stroke="midnightblue" d="M633.82,-123.44C668.89,-114.16 725,-99.31 763.46,-89.13"/>
<polygon fill="midnightblue" stroke="midnightblue" points="764.56,-92.46 773.33,-86.52 762.76,-85.69 764.56,-92.46"/>
</g>
<!-- Node13 -->
<g id="node13" class="node">
<title>Node13</title>
<g id="a_node13"><a xlink:title=" ">
<polygon fill="white" stroke="#bfbfbf" points="435,-6 435,-25 528,-25 528,-6 435,-6"/>
<text text-anchor="middle" x="481.5" y="-13" font-family="Helvetica,sans-Serif" font-size="10.00">spdlog/spdlog.h</text>
</a>
</g>
</g>
<!-- Node12&#45;&gt;Node13 -->
<g id="edge12" class="edge">
<title>Node12&#45;&gt;Node13</title>
<path fill="none" stroke="midnightblue" d="M584.31,-67.48C564.26,-57.53 530.9,-40.99 507.64,-29.46"/>
<polygon fill="midnightblue" stroke="midnightblue" points="509.18,-26.32 498.66,-25.01 506.07,-32.59 509.18,-26.32"/>
</g>
<!-- Node14 -->
<g id="node14" class="node">
<title>Node14</title>
<g id="a_node14"><a xlink:title=" ">
<polygon fill="white" stroke="#bfbfbf" points="546,-0.5 546,-30.5 657,-30.5 657,-0.5 546,-0.5"/>
<text text-anchor="start" x="554" y="-18.5" font-family="Helvetica,sans-Serif" font-size="10.00">spdlog/sinks/stdout</text>
<text text-anchor="middle" x="601.5" y="-7.5" font-family="Helvetica,sans-Serif" font-size="10.00">_color_sinks.h</text>
</a>
</g>
</g>
<!-- Node12&#45;&gt;Node14 -->
<g id="edge13" class="edge">
<title>Node12&#45;&gt;Node14</title>
<path fill="none" stroke="midnightblue" d="M601.5,-67.48C601.5,-60.47 601.5,-50.19 601.5,-40.7"/>
<polygon fill="midnightblue" stroke="midnightblue" points="605,-40.52 601.5,-30.52 598,-40.52 605,-40.52"/>
</g>
<!-- Node15 -->
<g id="node15" class="node">
<title>Node15</title>
<g id="a_node15"><a xlink:title=" ">
<polygon fill="white" stroke="#bfbfbf" points="675.5,-6 675.5,-25 733.5,-25 733.5,-6 675.5,-6"/>
<text text-anchor="middle" x="704.5" y="-13" font-family="Helvetica,sans-Serif" font-size="10.00">memory</text>
</a>
</g>
</g>
<!-- Node12&#45;&gt;Node15 -->
<g id="edge14" class="edge">
<title>Node12&#45;&gt;Node15</title>
<path fill="none" stroke="midnightblue" d="M616.26,-67.48C633.16,-57.71 661.08,-41.58 680.99,-30.08"/>
<polygon fill="midnightblue" stroke="midnightblue" points="682.86,-33.04 689.77,-25.01 679.36,-26.98 682.86,-33.04"/>
</g>
<!-- Node16 -->
<g id="node16" class="node">
<title>Node16</title>
<g id="a_node16"><a xlink:title=" ">
<polygon fill="white" stroke="#bfbfbf" points="751.5,-6 751.5,-25 849.5,-25 849.5,-6 751.5,-6"/>
<text text-anchor="middle" x="800.5" y="-13" font-family="Helvetica,sans-Serif" font-size="10.00">spdlog/fmt/fmt.h</text>
</a>
</g>
</g>
<!-- Node12&#45;&gt;Node16 -->
<g id="edge15" class="edge">
<title>Node12&#45;&gt;Node16</title>
<path fill="none" stroke="midnightblue" d="M630.01,-67.48C664.74,-57.09 723.54,-39.51 762.19,-27.95"/>
<polygon fill="midnightblue" stroke="midnightblue" points="763.46,-31.23 772.04,-25.01 761.46,-24.52 763.46,-31.23"/>
</g>
</g>
</svg>
