<?xml version="1.0" encoding="UTF-8" standalone="no"?>
<!DOCTYPE svg PUBLIC "-//W3C//DTD SVG 1.1//EN"
 "http://www.w3.org/Graphics/SVG/1.1/DTD/svg11.dtd">
<!-- Generated by graphviz version 2.43.0 (0)
 -->
<!-- Title: OMSim_radioactive_decays.cc Pages: 1 -->
<svg width="2403pt" height="431pt"
 viewBox="0.00 0.00 2403.00 431.00" xmlns="http://www.w3.org/2000/svg" xmlns:xlink="http://www.w3.org/1999/xlink">
<g id="graph0" class="graph" transform="scale(1 1) rotate(0) translate(4 427)">
<title>OMSim_radioactive_decays.cc</title>
<polygon fill="white" stroke="transparent" points="-4,4 -4,-427 2399,-427 2399,4 -4,4"/>
<!-- Node1 -->
<g id="node1" class="node">
<title>Node1</title>
<g id="a_node1"><a xlink:title="Main of the radioactive decay study.">
<polygon fill="#bfbfbf" stroke="black" points="1562.5,-403.5 1562.5,-422.5 1727.5,-422.5 1727.5,-403.5 1562.5,-403.5"/>
<text text-anchor="middle" x="1645" y="-410.5" font-family="Helvetica,sans-Serif" font-size="10.00">OMSim_radioactive_decays.cc</text>
</a>
</g>
</g>
<!-- Node2 -->
<g id="node2" class="node">
<title>Node2</title>
<g id="a_node2"><a xlink:href="_o_m_sim_8hh.html" target="_top" xlink:title="Main simulation class for the Optical Module (OM) simulation. This file defines the OMSim class,...">
<polygon fill="white" stroke="black" points="1029.5,-347.5 1029.5,-366.5 1096.5,-366.5 1096.5,-347.5 1029.5,-347.5"/>
<text text-anchor="middle" x="1063" y="-354.5" font-family="Helvetica,sans-Serif" font-size="10.00">OMSim.hh</text>
</a>
</g>
</g>
<!-- Node1&#45;&gt;Node2 -->
<g id="edge1" class="edge">
<title>Node1&#45;&gt;Node2</title>
<path fill="none" stroke="midnightblue" d="M1562.23,-404.32C1436.87,-392.69 1203.25,-371.01 1106.6,-362.05"/>
<polygon fill="midnightblue" stroke="midnightblue" points="1106.87,-358.56 1096.59,-361.12 1106.22,-365.53 1106.87,-358.56"/>
</g>
<!-- Node19 -->
<g id="node15" class="node">
<title>Node19</title>
<g id="a_node15"><a xlink:href="_o_m_sim_hit_manager_8hh.html" target="_top" xlink:title="Defines structures and classes related to optical module photon hit management.">
<polygon fill="white" stroke="black" points="1583.5,-179.5 1583.5,-198.5 1706.5,-198.5 1706.5,-179.5 1583.5,-179.5"/>
<text text-anchor="middle" x="1645" y="-186.5" font-family="Helvetica,sans-Serif" font-size="10.00">OMSimHitManager.hh</text>
</a>
</g>
</g>
<!-- Node1&#45;&gt;Node19 -->
<g id="edge55" class="edge">
<title>Node1&#45;&gt;Node19</title>
<path fill="none" stroke="midnightblue" d="M1645,-403.3C1645,-370.63 1645,-254.87 1645,-208.96"/>
<polygon fill="midnightblue" stroke="midnightblue" points="1648.5,-208.88 1645,-198.88 1641.5,-208.88 1648.5,-208.88"/>
</g>
<!-- Node51 -->
<g id="node47" class="node">
<title>Node51</title>
<g id="a_node47"><a xlink:href="_o_m_sim_decays_g_p_s_8hh.html" target="_top" xlink:title="Defines the OMSimDecaysGPS class for the radioactive decays simulation.">
<polygon fill="white" stroke="black" points="1673,-347.5 1673,-366.5 1795,-366.5 1795,-347.5 1673,-347.5"/>
<text text-anchor="middle" x="1734" y="-354.5" font-family="Helvetica,sans-Serif" font-size="10.00">OMSimDecaysGPS.hh</text>
</a>
</g>
</g>
<!-- Node1&#45;&gt;Node51 -->
<g id="edge52" class="edge">
<title>Node1&#45;&gt;Node51</title>
<path fill="none" stroke="midnightblue" d="M1659.3,-403.32C1673.18,-394.9 1694.49,-381.97 1710.8,-372.07"/>
<polygon fill="midnightblue" stroke="midnightblue" points="1713,-374.83 1719.74,-366.65 1709.37,-368.85 1713,-374.83"/>
</g>
<!-- Node53 -->
<g id="node49" class="node">
<title>Node53</title>
<g id="a_node49"><a xlink:href="_o_m_sim_decays_analysis_8hh.html" target="_top" xlink:title="Defines the OMSimDecaysAnalysis class and DecayStats struct for the radioactive decays simulation.">
<polygon fill="white" stroke="black" points="1421,-179.5 1421,-198.5 1565,-198.5 1565,-179.5 1421,-179.5"/>
<text text-anchor="middle" x="1493" y="-186.5" font-family="Helvetica,sans-Serif" font-size="10.00">OMSimDecaysAnalysis.hh</text>
</a>
</g>
</g>
<!-- Node1&#45;&gt;Node53 -->
<g id="edge56" class="edge">
<title>Node1&#45;&gt;Node53</title>
<path fill="none" stroke="midnightblue" d="M1641.98,-403.3C1634.62,-382.7 1614.39,-329.78 1588,-291 1565.15,-257.42 1531.14,-224.22 1510.62,-205.5"/>
<polygon fill="midnightblue" stroke="midnightblue" points="1512.74,-202.7 1502.97,-198.62 1508.06,-207.91 1512.74,-202.7"/>
</g>
<!-- Node54 -->
<g id="node50" class="node">
<title>Node54</title>
<g id="a_node50"><a xlink:href="_o_m_sim_rad_decays_detector_8hh.html" target="_top" xlink:title="Defines the OMSimRadDecaysDetector class for the radioactive decays simulation.">
<polygon fill="white" stroke="black" points="1838.5,-347.5 1838.5,-366.5 2001.5,-366.5 2001.5,-347.5 1838.5,-347.5"/>
<text text-anchor="middle" x="1920" y="-354.5" font-family="Helvetica,sans-Serif" font-size="10.00">OMSimRadDecaysDetector.hh</text>
</a>
</g>
</g>
<!-- Node1&#45;&gt;Node54 -->
<g id="edge59" class="edge">
<title>Node1&#45;&gt;Node54</title>
<path fill="none" stroke="midnightblue" d="M1688.57,-403.44C1736.85,-393.96 1814.71,-378.67 1866.61,-368.48"/>
<polygon fill="midnightblue" stroke="midnightblue" points="1867.49,-371.88 1876.63,-366.52 1866.14,-365.01 1867.49,-371.88"/>
</g>
<!-- Node3 -->
<g id="node3" class="node">
<title>Node3</title>
<g id="a_node3"><a xlink:href="_o_m_sim_detector_construction_8hh.html" target="_top" xlink:title=" ">
<polygon fill="white" stroke="black" points="1835,-291.5 1835,-310.5 2005,-310.5 2005,-291.5 1835,-291.5"/>
<text text-anchor="middle" x="1920" y="-298.5" font-family="Helvetica,sans-Serif" font-size="10.00">OMSimDetectorConstruction.hh</text>
</a>
</g>
</g>
<!-- Node2&#45;&gt;Node3 -->
<g id="edge2" class="edge">
<title>Node2&#45;&gt;Node3</title>
<path fill="none" stroke="midnightblue" d="M1096.6,-353.88C1217.69,-346.25 1634.63,-319.98 1824.48,-308.02"/>
<polygon fill="midnightblue" stroke="midnightblue" points="1824.97,-311.49 1834.73,-307.37 1824.53,-304.51 1824.97,-311.49"/>
</g>
<!-- Node32 -->
<g id="node28" class="node">
<title>Node32</title>
<g id="a_node28"><a xlink:title=" ">
<polygon fill="white" stroke="#bfbfbf" points="370.5,-291.5 370.5,-310.5 491.5,-310.5 491.5,-291.5 370.5,-291.5"/>
<text text-anchor="middle" x="431" y="-298.5" font-family="Helvetica,sans-Serif" font-size="10.00">OMSimPhysicsList.hh</text>
</a>
</g>
</g>
<!-- Node2&#45;&gt;Node32 -->
<g id="edge31" class="edge">
<title>Node2&#45;&gt;Node32</title>
<path fill="none" stroke="midnightblue" d="M1029.38,-353.87C943.48,-348.32 708.79,-332.38 501.83,-311.04"/>
<polygon fill="midnightblue" stroke="midnightblue" points="501.99,-307.53 491.69,-309.98 501.27,-314.5 501.99,-307.53"/>
</g>
<!-- Node33 -->
<g id="node29" class="node">
<title>Node33</title>
<g id="a_node29"><a xlink:title=" ">
<polygon fill="white" stroke="#bfbfbf" points="167.5,-291.5 167.5,-310.5 352.5,-310.5 352.5,-291.5 167.5,-291.5"/>
<text text-anchor="middle" x="260" y="-298.5" font-family="Helvetica,sans-Serif" font-size="10.00">OMSimPrimaryGeneratorAction.hh</text>
</a>
</g>
</g>
<!-- Node2&#45;&gt;Node33 -->
<g id="edge32" class="edge">
<title>Node2&#45;&gt;Node33</title>
<path fill="none" stroke="midnightblue" d="M1029.37,-354.14C929.51,-348.56 625.78,-331.13 362.85,-311.13"/>
<polygon fill="midnightblue" stroke="midnightblue" points="362.97,-307.62 352.73,-310.35 362.43,-314.6 362.97,-307.62"/>
</g>
<!-- Node34 -->
<g id="node30" class="node">
<title>Node34</title>
<g id="a_node30"><a xlink:href="_o_m_sim_run_action_8hh.html" target="_top" xlink:title=" ">
<polygon fill="white" stroke="black" points="510,-291.5 510,-310.5 626,-310.5 626,-291.5 510,-291.5"/>
<text text-anchor="middle" x="568" y="-298.5" font-family="Helvetica,sans-Serif" font-size="10.00">OMSimRunAction.hh</text>
</a>
</g>
</g>
<!-- Node2&#45;&gt;Node34 -->
<g id="edge33" class="edge">
<title>Node2&#45;&gt;Node34</title>
<path fill="none" stroke="midnightblue" d="M1029.39,-352.8C958.7,-345.99 789.19,-329.3 636.15,-311.11"/>
<polygon fill="midnightblue" stroke="midnightblue" points="636.44,-307.62 626.09,-309.91 635.61,-314.57 636.44,-307.62"/>
</g>
<!-- Node36 -->
<g id="node32" class="node">
<title>Node36</title>
<g id="a_node32"><a xlink:title=" ">
<polygon fill="white" stroke="#bfbfbf" points="644.5,-291.5 644.5,-310.5 769.5,-310.5 769.5,-291.5 644.5,-291.5"/>
<text text-anchor="middle" x="707" y="-298.5" font-family="Helvetica,sans-Serif" font-size="10.00">OMSimEventAction.hh</text>
</a>
</g>
</g>
<!-- Node2&#45;&gt;Node36 -->
<g id="edge35" class="edge">
<title>Node2&#45;&gt;Node36</title>
<path fill="none" stroke="midnightblue" d="M1029.19,-350.87C970.55,-341.98 849.02,-323.54 773.13,-312.03"/>
<polygon fill="midnightblue" stroke="midnightblue" points="773.6,-308.56 763.19,-310.52 772.55,-315.48 773.6,-308.56"/>
</g>
<!-- Node37 -->
<g id="node33" class="node">
<title>Node37</title>
<g id="a_node33"><a xlink:href="_o_m_sim_tracking_action_8hh.html" target="_top" xlink:title=" ">
<polygon fill="white" stroke="black" points="788,-291.5 788,-310.5 926,-310.5 926,-291.5 788,-291.5"/>
<text text-anchor="middle" x="857" y="-298.5" font-family="Helvetica,sans-Serif" font-size="10.00">OMSimTrackingAction.hh</text>
</a>
</g>
</g>
<!-- Node2&#45;&gt;Node37 -->
<g id="edge36" class="edge">
<title>Node2&#45;&gt;Node37</title>
<path fill="none" stroke="midnightblue" d="M1030.36,-347.44C994.95,-338.16 938.29,-323.31 899.45,-313.13"/>
<polygon fill="midnightblue" stroke="midnightblue" points="900.05,-309.67 889.49,-310.52 898.27,-316.44 900.05,-309.67"/>
</g>
<!-- Node39 -->
<g id="node35" class="node">
<title>Node39</title>
<g id="a_node35"><a xlink:href="_o_m_sim_stepping_action_8hh.html" target="_top" xlink:title="Defines OMSimSteppingAction.Currently it only checks for trapped photons.">
<polygon fill="white" stroke="black" points="944,-291.5 944,-310.5 1084,-310.5 1084,-291.5 944,-291.5"/>
<text text-anchor="middle" x="1014" y="-298.5" font-family="Helvetica,sans-Serif" font-size="10.00">OMSimSteppingAction.hh</text>
</a>
</g>
</g>
<!-- Node2&#45;&gt;Node39 -->
<g id="edge38" class="edge">
<title>Node2&#45;&gt;Node39</title>
<path fill="none" stroke="midnightblue" d="M1054.91,-347.08C1047.84,-339.3 1037.41,-327.8 1028.85,-318.37"/>
<polygon fill="midnightblue" stroke="midnightblue" points="1031.25,-315.8 1021.94,-310.75 1026.07,-320.51 1031.25,-315.8"/>
</g>
<!-- Node41 -->
<g id="node37" class="node">
<title>Node41</title>
<g id="a_node37"><a xlink:href="_o_m_sim_u_iinterface_8hh.html" target="_top" xlink:title="The OMSimUIinterface class provides a singleton interface to Geant4&#39;s UI manager.">
<polygon fill="white" stroke="black" points="1144.5,-235.5 1144.5,-254.5 1265.5,-254.5 1265.5,-235.5 1144.5,-235.5"/>
<text text-anchor="middle" x="1205" y="-242.5" font-family="Helvetica,sans-Serif" font-size="10.00">OMSimUIinterface.hh</text>
</a>
</g>
</g>
<!-- Node2&#45;&gt;Node41 -->
<g id="edge40" class="edge">
<title>Node2&#45;&gt;Node41</title>
<path fill="none" stroke="midnightblue" d="M1070.85,-347.38C1083,-334.32 1107.42,-309.1 1131,-291 1146.36,-279.21 1165,-267.89 1179.72,-259.56"/>
<polygon fill="midnightblue" stroke="midnightblue" points="1181.72,-262.45 1188.76,-254.54 1178.32,-256.33 1181.72,-262.45"/>
</g>
<!-- Node46 -->
<g id="node42" class="node">
<title>Node46</title>
<g id="a_node42"><a xlink:title=" ">
<polygon fill="white" stroke="#bfbfbf" points="1140,-291.5 1140,-310.5 1246,-310.5 1246,-291.5 1140,-291.5"/>
<text text-anchor="middle" x="1193" y="-298.5" font-family="Helvetica,sans-Serif" font-size="10.00">G4RunManager.hh</text>
</a>
</g>
</g>
<!-- Node2&#45;&gt;Node46 -->
<g id="edge47" class="edge">
<title>Node2&#45;&gt;Node46</title>
<path fill="none" stroke="midnightblue" d="M1083.6,-347.44C1104.99,-338.56 1138.68,-324.56 1163.02,-314.45"/>
<polygon fill="midnightblue" stroke="midnightblue" points="1164.61,-317.58 1172.5,-310.52 1161.92,-311.12 1164.61,-317.58"/>
</g>
<!-- Node47 -->
<g id="node43" class="node">
<title>Node47</title>
<g id="a_node43"><a xlink:title=" ">
<polygon fill="white" stroke="#bfbfbf" points="1264.5,-291.5 1264.5,-310.5 1371.5,-310.5 1371.5,-291.5 1264.5,-291.5"/>
<text text-anchor="middle" x="1318" y="-298.5" font-family="Helvetica,sans-Serif" font-size="10.00">G4VisExecutive.hh</text>
</a>
</g>
</g>
<!-- Node2&#45;&gt;Node47 -->
<g id="edge48" class="edge">
<title>Node2&#45;&gt;Node47</title>
<path fill="none" stroke="midnightblue" d="M1096.6,-348.88C1140.25,-339.64 1216.85,-323.42 1267.51,-312.69"/>
<polygon fill="midnightblue" stroke="midnightblue" points="1268.54,-316.05 1277.59,-310.56 1267.09,-309.2 1268.54,-316.05"/>
</g>
<!-- Node48 -->
<g id="node44" class="node">
<title>Node48</title>
<g id="a_node44"><a xlink:title=" ">
<polygon fill="white" stroke="#bfbfbf" points="1389.5,-291.5 1389.5,-310.5 1492.5,-310.5 1492.5,-291.5 1389.5,-291.5"/>
<text text-anchor="middle" x="1441" y="-298.5" font-family="Helvetica,sans-Serif" font-size="10.00">G4UIExecutive.hh</text>
</a>
</g>
</g>
<!-- Node2&#45;&gt;Node48 -->
<g id="edge49" class="edge">
<title>Node2&#45;&gt;Node48</title>
<path fill="none" stroke="midnightblue" d="M1096.9,-351.3C1153.29,-343.45 1270.19,-327.11 1379.12,-311.27"/>
<polygon fill="midnightblue" stroke="midnightblue" points="1379.9,-314.69 1389.29,-309.78 1378.89,-307.76 1379.9,-314.69"/>
</g>
<!-- Node49 -->
<g id="node45" class="node">
<title>Node49</title>
<g id="a_node45"><a xlink:title=" ">
<polygon fill="white" stroke="#bfbfbf" points="1511,-291.5 1511,-310.5 1579,-310.5 1579,-291.5 1511,-291.5"/>
<text text-anchor="middle" x="1545" y="-298.5" font-family="Helvetica,sans-Serif" font-size="10.00">filesystem</text>
</a>
</g>
</g>
<!-- Node2&#45;&gt;Node49 -->
<g id="edge50" class="edge">
<title>Node2&#45;&gt;Node49</title>
<path fill="none" stroke="midnightblue" d="M1096.75,-353.75C1168.97,-348.66 1343.99,-334.97 1500.51,-311.08"/>
<polygon fill="midnightblue" stroke="midnightblue" points="1501.44,-314.48 1510.79,-309.5 1500.37,-307.56 1501.44,-314.48"/>
</g>
<!-- Node50 -->
<g id="node46" class="node">
<title>Node50</title>
<g id="a_node46"><a xlink:title=" ">
<polygon fill="white" stroke="#bfbfbf" points="0,-291.5 0,-310.5 150,-310.5 150,-291.5 0,-291.5"/>
<text text-anchor="middle" x="75" y="-298.5" font-family="Helvetica,sans-Serif" font-size="10.00">boost/program_options.hpp</text>
</a>
</g>
</g>
<!-- Node2&#45;&gt;Node50 -->
<g id="edge51" class="edge">
<title>Node2&#45;&gt;Node50</title>
<path fill="none" stroke="midnightblue" d="M1029.26,-355.03C911.21,-351.5 505.55,-338.09 160.28,-311.14"/>
<polygon fill="midnightblue" stroke="midnightblue" points="160.33,-307.63 150.08,-310.34 159.78,-314.61 160.33,-307.63"/>
</g>
<!-- Node4 -->
<g id="node4" class="node">
<title>Node4</title>
<g id="a_node4"><a xlink:href="_o_m_sim_optical_module_8hh.html" target="_top" xlink:title=" ">
<polygon fill="white" stroke="black" points="1675.5,-235.5 1675.5,-254.5 1812.5,-254.5 1812.5,-235.5 1675.5,-235.5"/>
<text text-anchor="middle" x="1744" y="-242.5" font-family="Helvetica,sans-Serif" font-size="10.00">OMSimOpticalModule.hh</text>
</a>
</g>
</g>
<!-- Node3&#45;&gt;Node4 -->
<g id="edge3" class="edge">
<title>Node3&#45;&gt;Node4</title>
<path fill="none" stroke="midnightblue" d="M1892.11,-291.44C1862.25,-282.28 1814.69,-267.69 1781.54,-257.52"/>
<polygon fill="midnightblue" stroke="midnightblue" points="1782.34,-254.1 1771.76,-254.52 1780.29,-260.8 1782.34,-254.1"/>
</g>
<!-- Node30 -->
<g id="node26" class="node">
<title>Node30</title>
<g id="a_node26"><a xlink:title=" ">
<polygon fill="white" stroke="#bfbfbf" points="2027,-235.5 2027,-254.5 2089,-254.5 2089,-235.5 2027,-235.5"/>
<text text-anchor="middle" x="2058" y="-242.5" font-family="Helvetica,sans-Serif" font-size="10.00">G4Orb.hh</text>
</a>
</g>
</g>
<!-- Node3&#45;&gt;Node30 -->
<g id="edge29" class="edge">
<title>Node3&#45;&gt;Node30</title>
<path fill="none" stroke="midnightblue" d="M1941.87,-291.44C1964.78,-282.48 2000.98,-268.31 2026.87,-258.18"/>
<polygon fill="midnightblue" stroke="midnightblue" points="2028.2,-261.42 2036.24,-254.52 2025.65,-254.9 2028.2,-261.42"/>
</g>
<!-- Node31 -->
<g id="node27" class="node">
<title>Node31</title>
<g id="a_node27"><a xlink:title=" ">
<polygon fill="white" stroke="#bfbfbf" points="1831,-235.5 1831,-254.5 2009,-254.5 2009,-235.5 1831,-235.5"/>
<text text-anchor="middle" x="1920" y="-242.5" font-family="Helvetica,sans-Serif" font-size="10.00">G4VUserDetectorConstruction.hh</text>
</a>
</g>
</g>
<!-- Node3&#45;&gt;Node31 -->
<g id="edge30" class="edge">
<title>Node3&#45;&gt;Node31</title>
<path fill="none" stroke="midnightblue" d="M1920,-291.08C1920,-284.01 1920,-273.86 1920,-264.99"/>
<polygon fill="midnightblue" stroke="midnightblue" points="1923.5,-264.75 1920,-254.75 1916.5,-264.75 1923.5,-264.75"/>
</g>
<!-- Node5 -->
<g id="node5" class="node">
<title>Node5</title>
<g id="a_node5"><a xlink:href="abc_detector_component_8hh.html" target="_top" xlink:title="Provides helper base class abcDetectorComponent for constructing and managing detector components in ...">
<polygon fill="white" stroke="black" points="1977.5,-123.5 1977.5,-142.5 2124.5,-142.5 2124.5,-123.5 1977.5,-123.5"/>
<text text-anchor="middle" x="2051" y="-130.5" font-family="Helvetica,sans-Serif" font-size="10.00">abcDetectorComponent.hh</text>
</a>
</g>
</g>
<!-- Node4&#45;&gt;Node5 -->
<g id="edge4" class="edge">
<title>Node4&#45;&gt;Node5</title>
<path fill="none" stroke="midnightblue" d="M1778.71,-235.44C1810.8,-227.19 1859.63,-213.82 1901,-199 1944.93,-183.26 1994.3,-160.93 2024.01,-146.96"/>
<polygon fill="midnightblue" stroke="midnightblue" points="2025.75,-150.01 2033.29,-142.57 2022.76,-143.68 2025.75,-150.01"/>
</g>
<!-- Node4&#45;&gt;Node19 -->
<g id="edge14" class="edge">
<title>Node4&#45;&gt;Node19</title>
<path fill="none" stroke="midnightblue" d="M1728.09,-235.32C1712.36,-226.74 1688.06,-213.49 1669.79,-203.52"/>
<polygon fill="midnightblue" stroke="midnightblue" points="1671.32,-200.37 1660.87,-198.65 1667.97,-206.52 1671.32,-200.37"/>
</g>
<!-- Node27 -->
<g id="node23" class="node">
<title>Node27</title>
<g id="a_node23"><a xlink:href="_o_m_sim_p_m_t_construction_8hh.html" target="_top" xlink:title="Construction of the PMTs.">
<polygon fill="white" stroke="black" points="1724.5,-179.5 1724.5,-198.5 1873.5,-198.5 1873.5,-179.5 1724.5,-179.5"/>
<text text-anchor="middle" x="1799" y="-186.5" font-family="Helvetica,sans-Serif" font-size="10.00">OMSimPMTConstruction.hh</text>
</a>
</g>
</g>
<!-- Node4&#45;&gt;Node27 -->
<g id="edge23" class="edge">
<title>Node4&#45;&gt;Node27</title>
<path fill="none" stroke="midnightblue" d="M1753.08,-235.08C1761.17,-227.14 1773.2,-215.34 1782.91,-205.8"/>
<polygon fill="midnightblue" stroke="midnightblue" points="1785.4,-208.25 1790.09,-198.75 1780.5,-203.26 1785.4,-208.25"/>
</g>
<!-- Node6 -->
<g id="node6" class="node">
<title>Node6</title>
<g id="a_node6"><a xlink:href="_o_m_sim_input_data_8hh.html" target="_top" xlink:title="Definition of ParameterTable and InputDataManager.">
<polygon fill="white" stroke="black" points="2028.5,-67.5 2028.5,-86.5 2143.5,-86.5 2143.5,-67.5 2028.5,-67.5"/>
<text text-anchor="middle" x="2086" y="-74.5" font-family="Helvetica,sans-Serif" font-size="10.00">OMSimInputData.hh</text>
</a>
</g>
</g>
<!-- Node5&#45;&gt;Node6 -->
<g id="edge5" class="edge">
<title>Node5&#45;&gt;Node6</title>
<path fill="none" stroke="midnightblue" d="M2056.78,-123.08C2061.67,-115.53 2068.83,-104.49 2074.83,-95.23"/>
<polygon fill="midnightblue" stroke="midnightblue" points="2077.83,-97.05 2080.33,-86.75 2071.95,-93.24 2077.83,-97.05"/>
</g>
<!-- Node15 -->
<g id="node11" class="node">
<title>Node15</title>
<g id="a_node11"><a xlink:title=" ">
<polygon fill="white" stroke="#bfbfbf" points="2161.5,-67.5 2161.5,-86.5 2268.5,-86.5 2268.5,-67.5 2161.5,-67.5"/>
<text text-anchor="middle" x="2215" y="-74.5" font-family="Helvetica,sans-Serif" font-size="10.00">G4Transform3D.hh</text>
</a>
</g>
</g>
<!-- Node5&#45;&gt;Node15 -->
<g id="edge10" class="edge">
<title>Node5&#45;&gt;Node15</title>
<path fill="none" stroke="midnightblue" d="M2076.99,-123.44C2104.7,-114.32 2148.75,-99.81 2179.62,-89.65"/>
<polygon fill="midnightblue" stroke="midnightblue" points="2180.73,-92.97 2189.14,-86.52 2178.54,-86.32 2180.73,-92.97"/>
</g>
<!-- Node16 -->
<g id="node12" class="node">
<title>Node16</title>
<g id="a_node12"><a xlink:title=" ">
<polygon fill="white" stroke="#bfbfbf" points="2287,-67.5 2287,-86.5 2395,-86.5 2395,-67.5 2287,-67.5"/>
<text text-anchor="middle" x="2341" y="-74.5" font-family="Helvetica,sans-Serif" font-size="10.00">G4VisAttributes.hh</text>
</a>
</g>
</g>
<!-- Node5&#45;&gt;Node16 -->
<g id="edge11" class="edge">
<title>Node5&#45;&gt;Node16</title>
<path fill="none" stroke="midnightblue" d="M2096.95,-123.44C2148.07,-113.92 2230.65,-98.55 2285.38,-88.36"/>
<polygon fill="midnightblue" stroke="midnightblue" points="2286.07,-91.79 2295.26,-86.52 2284.79,-84.91 2286.07,-91.79"/>
</g>
<!-- Node17 -->
<g id="node13" class="node">
<title>Node17</title>
<g id="a_node13"><a xlink:title=" ">
<polygon fill="white" stroke="#bfbfbf" points="1756.5,-67.5 1756.5,-86.5 1881.5,-86.5 1881.5,-67.5 1756.5,-67.5"/>
<text text-anchor="middle" x="1819" y="-74.5" font-family="Helvetica,sans-Serif" font-size="10.00">G4SubtractionSolid.hh</text>
</a>
</g>
</g>
<!-- Node5&#45;&gt;Node17 -->
<g id="edge12" class="edge">
<title>Node5&#45;&gt;Node17</title>
<path fill="none" stroke="midnightblue" d="M2014.24,-123.44C1973.94,-114.06 1909.19,-98.99 1865.42,-88.8"/>
<polygon fill="midnightblue" stroke="midnightblue" points="1866.12,-85.37 1855.59,-86.52 1864.54,-92.19 1866.12,-85.37"/>
</g>
<!-- Node18 -->
<g id="node14" class="node">
<title>Node18</title>
<g id="a_node14"><a xlink:title=" ">
<polygon fill="white" stroke="#bfbfbf" points="1900,-67.5 1900,-86.5 2010,-86.5 2010,-67.5 1900,-67.5"/>
<text text-anchor="middle" x="1955" y="-74.5" font-family="Helvetica,sans-Serif" font-size="10.00">G4PVPlacement.hh</text>
</a>
</g>
</g>
<!-- Node5&#45;&gt;Node18 -->
<g id="edge13" class="edge">
<title>Node5&#45;&gt;Node18</title>
<path fill="none" stroke="midnightblue" d="M2035.58,-123.32C2020.46,-114.82 1997.18,-101.73 1979.53,-91.8"/>
<polygon fill="midnightblue" stroke="midnightblue" points="1980.82,-88.51 1970.39,-86.65 1977.39,-94.61 1980.82,-88.51"/>
</g>
<!-- Node7 -->
<g id="node7" class="node">
<title>Node7</title>
<g id="a_node7"><a xlink:href="_o_m_sim_logger_8hh.html" target="_top" xlink:title=" ">
<polygon fill="white" stroke="red" points="1402.5,-6 1402.5,-25 1501.5,-25 1501.5,-6 1402.5,-6"/>
<text text-anchor="middle" x="1452" y="-13" font-family="Helvetica,sans-Serif" font-size="10.00">OMSimLogger.hh</text>
</a>
</g>
</g>
<!-- Node6&#45;&gt;Node7 -->
<g id="edge6" class="edge">
<title>Node6&#45;&gt;Node7</title>
<path fill="none" stroke="midnightblue" d="M2028.28,-68.08C2025.14,-67.7 2022.03,-67.34 2019,-67 1834.55,-46.41 1615.58,-28.85 1512.01,-20.96"/>
<polygon fill="midnightblue" stroke="midnightblue" points="1511.99,-17.45 1501.75,-20.18 1511.46,-24.43 1511.99,-17.45"/>
</g>
<!-- Node12 -->
<g id="node8" class="node">
<title>Node12</title>
<g id="a_node8"><a xlink:title=" ">
<polygon fill="white" stroke="#bfbfbf" points="1941.5,-6 1941.5,-25 2084.5,-25 2084.5,-6 1941.5,-6"/>
<text text-anchor="middle" x="2013" y="-13" font-family="Helvetica,sans-Serif" font-size="10.00">G4OpBoundaryProcess.hh</text>
</a>
</g>
</g>
<!-- Node6&#45;&gt;Node12 -->
<g id="edge7" class="edge">
<title>Node6&#45;&gt;Node12</title>
<path fill="none" stroke="midnightblue" d="M2075.54,-67.48C2064.05,-58.11 2045.37,-42.88 2031.41,-31.51"/>
<polygon fill="midnightblue" stroke="midnightblue" points="2033.4,-28.61 2023.44,-25.01 2028.98,-34.04 2033.4,-28.61"/>
</g>
<!-- Node13 -->
<g id="node9" class="node">
<title>Node13</title>
<g id="a_node9"><a xlink:title=" ">
<polygon fill="white" stroke="#bfbfbf" points="1662.5,-6 1662.5,-25 1781.5,-25 1781.5,-6 1662.5,-6"/>
<text text-anchor="middle" x="1722" y="-13" font-family="Helvetica,sans-Serif" font-size="10.00">G4SystemOfUnits.hh</text>
</a>
</g>
</g>
<!-- Node6&#45;&gt;Node13 -->
<g id="edge8" class="edge">
<title>Node6&#45;&gt;Node13</title>
<path fill="none" stroke="midnightblue" d="M2033.85,-67.48C1967.89,-56.69 1854.47,-38.15 1784.11,-26.65"/>
<polygon fill="midnightblue" stroke="midnightblue" points="1784.49,-23.17 1774.06,-25.01 1783.36,-30.08 1784.49,-23.17"/>
</g>
<!-- Node14 -->
<g id="node10" class="node">
<title>Node14</title>
<g id="a_node10"><a xlink:title=" ">
<polygon fill="white" stroke="#bfbfbf" points="2102.5,-0.5 2102.5,-30.5 2215.5,-30.5 2215.5,-0.5 2102.5,-0.5"/>
<text text-anchor="start" x="2110.5" y="-18.5" font-family="Helvetica,sans-Serif" font-size="10.00">boost/property_tree</text>
<text text-anchor="middle" x="2159" y="-7.5" font-family="Helvetica,sans-Serif" font-size="10.00">/json_parser.hpp</text>
</a>
</g>
</g>
<!-- Node6&#45;&gt;Node14 -->
<g id="edge9" class="edge">
<title>Node6&#45;&gt;Node14</title>
<path fill="none" stroke="midnightblue" d="M2096.46,-67.48C2106.16,-59.57 2120.99,-47.48 2133.77,-37.07"/>
<polygon fill="midnightblue" stroke="midnightblue" points="2136.26,-39.55 2141.8,-30.52 2131.83,-34.13 2136.26,-39.55"/>
</g>
<!-- Node20 -->
<g id="node16" class="node">
<title>Node20</title>
<g id="a_node16"><a xlink:href="_o_m_sim_p_m_t_response_8hh.html" target="_top" xlink:title="Provides simulation for PMT response. This class is responsible for transforming hits on photocathode...">
<polygon fill="white" stroke="black" points="1577.5,-123.5 1577.5,-142.5 1712.5,-142.5 1712.5,-123.5 1577.5,-123.5"/>
<text text-anchor="middle" x="1645" y="-130.5" font-family="Helvetica,sans-Serif" font-size="10.00">OMSimPMTResponse.hh</text>
</a>
</g>
</g>
<!-- Node19&#45;&gt;Node20 -->
<g id="edge15" class="edge">
<title>Node19&#45;&gt;Node20</title>
<path fill="none" stroke="midnightblue" d="M1645,-179.08C1645,-172.01 1645,-161.86 1645,-152.99"/>
<polygon fill="midnightblue" stroke="midnightblue" points="1648.5,-152.75 1645,-142.75 1641.5,-152.75 1648.5,-152.75"/>
</g>
<!-- Node25 -->
<g id="node21" class="node">
<title>Node25</title>
<g id="a_node21"><a xlink:title=" ">
<polygon fill="white" stroke="#bfbfbf" points="1456.5,-123.5 1456.5,-142.5 1559.5,-142.5 1559.5,-123.5 1456.5,-123.5"/>
<text text-anchor="middle" x="1508" y="-130.5" font-family="Helvetica,sans-Serif" font-size="10.00">G4ThreeVector.hh</text>
</a>
</g>
</g>
<!-- Node19&#45;&gt;Node25 -->
<g id="edge21" class="edge">
<title>Node19&#45;&gt;Node25</title>
<path fill="none" stroke="midnightblue" d="M1623.29,-179.44C1600.65,-170.52 1564.93,-156.44 1539.25,-146.32"/>
<polygon fill="midnightblue" stroke="midnightblue" points="1540.19,-142.93 1529.61,-142.52 1537.63,-149.44 1540.19,-142.93"/>
</g>
<!-- Node26 -->
<g id="node22" class="node">
<title>Node26</title>
<g id="a_node22"><a xlink:title=" ">
<polygon fill="white" stroke="#bfbfbf" points="1383.5,-123.5 1383.5,-142.5 1438.5,-142.5 1438.5,-123.5 1383.5,-123.5"/>
<text text-anchor="middle" x="1411" y="-130.5" font-family="Helvetica,sans-Serif" font-size="10.00">fstream</text>
</a>
</g>
</g>
<!-- Node19&#45;&gt;Node26 -->
<g id="edge22" class="edge">
<title>Node19&#45;&gt;Node26</title>
<path fill="none" stroke="midnightblue" d="M1606.83,-179.45C1569.13,-170.96 1509.58,-157.46 1448.66,-143.13"/>
<polygon fill="midnightblue" stroke="midnightblue" points="1449.41,-139.71 1438.87,-140.82 1447.8,-146.52 1449.41,-139.71"/>
</g>
<!-- Node20&#45;&gt;Node13 -->
<g id="edge16" class="edge">
<title>Node20&#45;&gt;Node13</title>
<path fill="none" stroke="midnightblue" d="M1631.53,-123.44C1613.79,-111.07 1586.35,-87.43 1600,-67 1613.15,-47.33 1635.53,-35.31 1657.56,-27.97"/>
<polygon fill="midnightblue" stroke="midnightblue" points="1658.74,-31.27 1667.28,-25.01 1656.7,-24.57 1658.74,-31.27"/>
</g>
<!-- Node21 -->
<g id="node17" class="node">
<title>Node21</title>
<g id="a_node17"><a xlink:title=" ">
<polygon fill="white" stroke="#bfbfbf" points="1608.5,-67.5 1608.5,-86.5 1681.5,-86.5 1681.5,-67.5 1608.5,-67.5"/>
<text text-anchor="middle" x="1645" y="-74.5" font-family="Helvetica,sans-Serif" font-size="10.00">G4Types.hh</text>
</a>
</g>
</g>
<!-- Node20&#45;&gt;Node21 -->
<g id="edge17" class="edge">
<title>Node20&#45;&gt;Node21</title>
<path fill="none" stroke="midnightblue" d="M1645,-123.08C1645,-116.01 1645,-105.86 1645,-96.99"/>
<polygon fill="midnightblue" stroke="midnightblue" points="1648.5,-96.75 1645,-86.75 1641.5,-96.75 1648.5,-96.75"/>
</g>
<!-- Node22 -->
<g id="node18" class="node">
<title>Node22</title>
<g id="a_node18"><a xlink:title=" ">
<polygon fill="white" stroke="#bfbfbf" points="1700,-67.5 1700,-86.5 1738,-86.5 1738,-67.5 1700,-67.5"/>
<text text-anchor="middle" x="1719" y="-74.5" font-family="Helvetica,sans-Serif" font-size="10.00">map</text>
</a>
</g>
</g>
<!-- Node20&#45;&gt;Node22 -->
<g id="edge18" class="edge">
<title>Node20&#45;&gt;Node22</title>
<path fill="none" stroke="midnightblue" d="M1656.89,-123.32C1668.15,-115.11 1685.29,-102.6 1698.71,-92.81"/>
<polygon fill="midnightblue" stroke="midnightblue" points="1700.88,-95.56 1706.89,-86.83 1696.75,-89.9 1700.88,-95.56"/>
</g>
<!-- Node23 -->
<g id="node19" class="node">
<title>Node23</title>
<g id="a_node19"><a xlink:title=" ">
<polygon fill="white" stroke="#bfbfbf" points="1419.5,-67.5 1419.5,-86.5 1480.5,-86.5 1480.5,-67.5 1419.5,-67.5"/>
<text text-anchor="middle" x="1450" y="-74.5" font-family="Helvetica,sans-Serif" font-size="10.00">TGraph.h</text>
</a>
</g>
</g>
<!-- Node20&#45;&gt;Node23 -->
<g id="edge19" class="edge">
<title>Node20&#45;&gt;Node23</title>
<path fill="none" stroke="midnightblue" d="M1614.1,-123.44C1580.73,-114.2 1527.41,-99.44 1490.65,-89.26"/>
<polygon fill="midnightblue" stroke="midnightblue" points="1491.33,-85.81 1480.75,-86.52 1489.46,-92.56 1491.33,-85.81"/>
</g>
<!-- Node24 -->
<g id="node20" class="node">
<title>Node24</title>
<g id="a_node20"><a xlink:title=" ">
<polygon fill="white" stroke="#bfbfbf" points="1498.5,-67.5 1498.5,-86.5 1551.5,-86.5 1551.5,-67.5 1498.5,-67.5"/>
<text text-anchor="middle" x="1525" y="-74.5" font-family="Helvetica,sans-Serif" font-size="10.00">TH2D.h</text>
</a>
</g>
</g>
<!-- Node20&#45;&gt;Node24 -->
<g id="edge20" class="edge">
<title>Node20&#45;&gt;Node24</title>
<path fill="none" stroke="midnightblue" d="M1625.99,-123.44C1606.41,-114.64 1575.69,-100.81 1553.27,-90.72"/>
<polygon fill="midnightblue" stroke="midnightblue" points="1554.48,-87.43 1543.93,-86.52 1551.61,-93.81 1554.48,-87.43"/>
</g>
<!-- Node27&#45;&gt;Node5 -->
<g id="edge24" class="edge">
<title>Node27&#45;&gt;Node5</title>
<path fill="none" stroke="midnightblue" d="M1838.93,-179.44C1882.89,-170.02 1953.63,-154.87 2001.18,-144.68"/>
<polygon fill="midnightblue" stroke="midnightblue" points="2002.21,-148.03 2011.26,-142.52 2000.75,-141.19 2002.21,-148.03"/>
</g>
<!-- Node27&#45;&gt;Node20 -->
<g id="edge26" class="edge">
<title>Node27&#45;&gt;Node20</title>
<path fill="none" stroke="midnightblue" d="M1774.6,-179.44C1748.8,-170.4 1707.92,-156.06 1678.98,-145.92"/>
<polygon fill="midnightblue" stroke="midnightblue" points="1679.88,-142.52 1669.29,-142.52 1677.57,-149.13 1679.88,-142.52"/>
</g>
<!-- Node27&#45;&gt;Node27 -->
<g id="edge25" class="edge">
<title>Node27&#45;&gt;Node27</title>
<path fill="none" stroke="midnightblue" d="M1838.45,-198.53C1865.26,-201.31 1891.5,-198.13 1891.5,-189 1891.5,-181.01 1871.41,-177.58 1848.43,-178.71"/>
<polygon fill="midnightblue" stroke="midnightblue" points="1848.15,-175.22 1838.45,-179.47 1848.69,-182.2 1848.15,-175.22"/>
</g>
<!-- Node28 -->
<g id="node24" class="node">
<title>Node28</title>
<g id="a_node24"><a xlink:title=" ">
<polygon fill="white" stroke="#bfbfbf" points="1740,-123.5 1740,-142.5 1838,-142.5 1838,-123.5 1740,-123.5"/>
<text text-anchor="middle" x="1789" y="-130.5" font-family="Helvetica,sans-Serif" font-size="10.00">G4UnionSolid.hh</text>
</a>
</g>
</g>
<!-- Node27&#45;&gt;Node28 -->
<g id="edge27" class="edge">
<title>Node27&#45;&gt;Node28</title>
<path fill="none" stroke="midnightblue" d="M1797.35,-179.08C1796.02,-171.93 1794.12,-161.64 1792.46,-152.69"/>
<polygon fill="midnightblue" stroke="midnightblue" points="1795.88,-151.95 1790.62,-142.75 1789,-153.22 1795.88,-151.95"/>
</g>
<!-- Node29 -->
<g id="node25" class="node">
<title>Node29</title>
<g id="a_node25"><a xlink:title=" ">
<polygon fill="white" stroke="#bfbfbf" points="1856.5,-123.5 1856.5,-142.5 1923.5,-142.5 1923.5,-123.5 1856.5,-123.5"/>
<text text-anchor="middle" x="1890" y="-130.5" font-family="Helvetica,sans-Serif" font-size="10.00">G4Tubs.hh</text>
</a>
</g>
</g>
<!-- Node27&#45;&gt;Node29 -->
<g id="edge28" class="edge">
<title>Node27&#45;&gt;Node29</title>
<path fill="none" stroke="midnightblue" d="M1813.62,-179.32C1827.95,-170.82 1850.01,-157.73 1866.75,-147.8"/>
<polygon fill="midnightblue" stroke="midnightblue" points="1868.6,-150.77 1875.42,-142.65 1865.03,-144.75 1868.6,-150.77"/>
</g>
<!-- Node35 -->
<g id="node31" class="node">
<title>Node35</title>
<g id="a_node31"><a xlink:title=" ">
<polygon fill="white" stroke="#bfbfbf" points="509.5,-235.5 509.5,-254.5 626.5,-254.5 626.5,-235.5 509.5,-235.5"/>
<text text-anchor="middle" x="568" y="-242.5" font-family="Helvetica,sans-Serif" font-size="10.00">G4UserRunAction.hh</text>
</a>
</g>
</g>
<!-- Node34&#45;&gt;Node35 -->
<g id="edge34" class="edge">
<title>Node34&#45;&gt;Node35</title>
<path fill="none" stroke="midnightblue" d="M568,-291.08C568,-284.01 568,-273.86 568,-264.99"/>
<polygon fill="midnightblue" stroke="midnightblue" points="571.5,-264.75 568,-254.75 564.5,-264.75 571.5,-264.75"/>
</g>
<!-- Node38 -->
<g id="node34" class="node">
<title>Node38</title>
<g id="a_node34"><a xlink:title=" ">
<polygon fill="white" stroke="#bfbfbf" points="786.5,-235.5 786.5,-254.5 925.5,-254.5 925.5,-235.5 786.5,-235.5"/>
<text text-anchor="middle" x="856" y="-242.5" font-family="Helvetica,sans-Serif" font-size="10.00">G4UserTrackingAction.hh</text>
</a>
</g>
</g>
<!-- Node37&#45;&gt;Node38 -->
<g id="edge37" class="edge">
<title>Node37&#45;&gt;Node38</title>
<path fill="none" stroke="midnightblue" d="M856.83,-291.08C856.7,-284.01 856.52,-273.86 856.35,-264.99"/>
<polygon fill="midnightblue" stroke="midnightblue" points="859.85,-264.68 856.16,-254.75 852.85,-264.81 859.85,-264.68"/>
</g>
<!-- Node40 -->
<g id="node36" class="node">
<title>Node40</title>
<g id="a_node36"><a xlink:title=" ">
<polygon fill="white" stroke="#bfbfbf" points="943.5,-235.5 943.5,-254.5 1084.5,-254.5 1084.5,-235.5 943.5,-235.5"/>
<text text-anchor="middle" x="1014" y="-242.5" font-family="Helvetica,sans-Serif" font-size="10.00">G4UserSteppingAction.hh</text>
</a>
</g>
</g>
<!-- Node39&#45;&gt;Node40 -->
<g id="edge39" class="edge">
<title>Node39&#45;&gt;Node40</title>
<path fill="none" stroke="midnightblue" d="M1014,-291.08C1014,-284.01 1014,-273.86 1014,-264.99"/>
<polygon fill="midnightblue" stroke="midnightblue" points="1017.5,-264.75 1014,-254.75 1010.5,-264.75 1017.5,-264.75"/>
</g>
<!-- Node42 -->
<g id="node38" class="node">
<title>Node42</title>
<g id="a_node38"><a xlink:href="_o_m_sim_command_args_table_8hh.html" target="_top" xlink:title="Definition of the OMSimCommandArgsTable singleton class, which controls user args.">
<polygon fill="white" stroke="black" points="1123,-179.5 1123,-198.5 1287,-198.5 1287,-179.5 1123,-179.5"/>
<text text-anchor="middle" x="1205" y="-186.5" font-family="Helvetica,sans-Serif" font-size="10.00">OMSimCommandArgsTable.hh</text>
</a>
</g>
</g>
<!-- Node41&#45;&gt;Node42 -->
<g id="edge41" class="edge">
<title>Node41&#45;&gt;Node42</title>
<path fill="none" stroke="midnightblue" d="M1205,-235.08C1205,-228.01 1205,-217.86 1205,-208.99"/>
<polygon fill="midnightblue" stroke="midnightblue" points="1208.5,-208.75 1205,-198.75 1201.5,-208.75 1208.5,-208.75"/>
</g>
<!-- Node45 -->
<g id="node41" class="node">
<title>Node45</title>
<g id="a_node41"><a xlink:title=" ">
<polygon fill="white" stroke="#bfbfbf" points="1305,-179.5 1305,-198.5 1403,-198.5 1403,-179.5 1305,-179.5"/>
<text text-anchor="middle" x="1354" y="-186.5" font-family="Helvetica,sans-Serif" font-size="10.00">G4UImanager.hh</text>
</a>
</g>
</g>
<!-- Node41&#45;&gt;Node45 -->
<g id="edge46" class="edge">
<title>Node41&#45;&gt;Node45</title>
<path fill="none" stroke="midnightblue" d="M1228.61,-235.44C1253.46,-226.44 1292.77,-212.19 1320.75,-202.05"/>
<polygon fill="midnightblue" stroke="midnightblue" points="1322.29,-205.21 1330.5,-198.52 1319.91,-198.63 1322.29,-205.21"/>
</g>
<!-- Node42&#45;&gt;Node7 -->
<g id="edge42" class="edge">
<title>Node42&#45;&gt;Node7</title>
<path fill="none" stroke="midnightblue" d="M1194.11,-179.23C1179.51,-166.4 1156.88,-141.98 1170,-123 1219.96,-50.73 1325.67,-27.45 1392.52,-19.98"/>
<polygon fill="midnightblue" stroke="midnightblue" points="1392.91,-23.46 1402.5,-18.95 1392.19,-16.5 1392.91,-23.46"/>
</g>
<!-- Node42&#45;&gt;Node26 -->
<g id="edge43" class="edge">
<title>Node42&#45;&gt;Node26</title>
<path fill="none" stroke="midnightblue" d="M1237.64,-179.44C1274.61,-169.75 1334.75,-153.99 1373.59,-143.81"/>
<polygon fill="midnightblue" stroke="midnightblue" points="1374.67,-147.14 1383.46,-141.22 1372.9,-140.37 1374.67,-147.14"/>
</g>
<!-- Node43 -->
<g id="node39" class="node">
<title>Node43</title>
<g id="a_node39"><a xlink:title=" ">
<polygon fill="white" stroke="#bfbfbf" points="1179,-123.5 1179,-142.5 1263,-142.5 1263,-123.5 1179,-123.5"/>
<text text-anchor="middle" x="1221" y="-130.5" font-family="Helvetica,sans-Serif" font-size="10.00">boost/any.hpp</text>
</a>
</g>
</g>
<!-- Node42&#45;&gt;Node43 -->
<g id="edge44" class="edge">
<title>Node42&#45;&gt;Node43</title>
<path fill="none" stroke="midnightblue" d="M1207.64,-179.08C1209.79,-171.85 1212.88,-161.41 1215.55,-152.4"/>
<polygon fill="midnightblue" stroke="midnightblue" points="1218.92,-153.33 1218.41,-142.75 1212.21,-151.34 1218.92,-153.33"/>
</g>
<!-- Node44 -->
<g id="node40" class="node">
<title>Node44</title>
<g id="a_node40"><a xlink:title=" ">
<polygon fill="white" stroke="#bfbfbf" points="1281,-123.5 1281,-142.5 1349,-142.5 1349,-123.5 1281,-123.5"/>
<text text-anchor="middle" x="1315" y="-130.5" font-family="Helvetica,sans-Serif" font-size="10.00">sys/time.h</text>
</a>
</g>
</g>
<!-- Node42&#45;&gt;Node44 -->
<g id="edge45" class="edge">
<title>Node42&#45;&gt;Node44</title>
<path fill="none" stroke="midnightblue" d="M1222.67,-179.32C1240.39,-170.62 1267.9,-157.12 1288.29,-147.11"/>
<polygon fill="midnightblue" stroke="midnightblue" points="1289.94,-150.2 1297.37,-142.65 1286.85,-143.92 1289.94,-150.2"/>
</g>
<!-- Node51&#45;&gt;Node4 -->
<g id="edge53" class="edge">
<title>Node51&#45;&gt;Node4</title>
<path fill="none" stroke="midnightblue" d="M1738.11,-347.28C1742.06,-338.38 1747.74,-324.07 1750,-311 1752.65,-295.63 1750.72,-277.99 1748.36,-264.97"/>
<polygon fill="midnightblue" stroke="midnightblue" points="1751.73,-263.98 1746.29,-254.89 1744.87,-265.39 1751.73,-263.98"/>
</g>
<!-- Node52 -->
<g id="node48" class="node">
<title>Node52</title>
<g id="a_node48"><a xlink:title=" ">
<polygon fill="white" stroke="#bfbfbf" points="1673.5,-291.5 1673.5,-310.5 1740.5,-310.5 1740.5,-291.5 1673.5,-291.5"/>
<text text-anchor="middle" x="1707" y="-298.5" font-family="Helvetica,sans-Serif" font-size="10.00">globals.hh</text>
</a>
</g>
</g>
<!-- Node51&#45;&gt;Node52 -->
<g id="edge54" class="edge">
<title>Node51&#45;&gt;Node52</title>
<path fill="none" stroke="midnightblue" d="M1729.54,-347.08C1725.85,-339.69 1720.48,-328.95 1715.91,-319.81"/>
<polygon fill="midnightblue" stroke="midnightblue" points="1718.98,-318.13 1711.38,-310.75 1712.72,-321.26 1718.98,-318.13"/>
</g>
<!-- Node53&#45;&gt;Node25 -->
<g id="edge57" class="edge">
<title>Node53&#45;&gt;Node25</title>
<path fill="none" stroke="midnightblue" d="M1495.48,-179.08C1497.49,-171.85 1500.39,-161.41 1502.89,-152.4"/>
<polygon fill="midnightblue" stroke="midnightblue" points="1506.26,-153.32 1505.57,-142.75 1499.52,-151.45 1506.26,-153.32"/>
</g>
<!-- Node53&#45;&gt;Node26 -->
<g id="edge58" class="edge">
<title>Node53&#45;&gt;Node26</title>
<path fill="none" stroke="midnightblue" d="M1479.83,-179.32C1467.15,-170.98 1447.77,-158.21 1432.79,-148.35"/>
<polygon fill="midnightblue" stroke="midnightblue" points="1434.42,-145.23 1424.14,-142.65 1430.57,-151.08 1434.42,-145.23"/>
</g>
<!-- Node54&#45;&gt;Node3 -->
<g id="edge62" class="edge">
<title>Node54&#45;&gt;Node3</title>
<path fill="none" stroke="midnightblue" d="M1920,-347.08C1920,-340.01 1920,-329.86 1920,-320.99"/>
<polygon fill="midnightblue" stroke="midnightblue" points="1923.5,-320.75 1920,-310.75 1916.5,-320.75 1923.5,-320.75"/>
</g>
<!-- Node54&#45;&gt;Node4 -->
<g id="edge60" class="edge">
<title>Node54&#45;&gt;Node4</title>
<path fill="none" stroke="midnightblue" d="M1898.76,-347.45C1879.23,-339.22 1849.78,-325.86 1826,-311 1802.12,-296.08 1777.1,-275.4 1761.07,-261.41"/>
<polygon fill="midnightblue" stroke="midnightblue" points="1763.37,-258.77 1753.56,-254.76 1758.73,-264.01 1763.37,-258.77"/>
</g>
<!-- Node54&#45;&gt;Node5 -->
<g id="edge61" class="edge">
<title>Node54&#45;&gt;Node5</title>
<path fill="none" stroke="midnightblue" d="M1961.25,-347.42C2005.91,-335.53 2073.98,-309.06 2098,-255 2114.38,-218.13 2084.87,-173.66 2065.64,-150.24"/>
<polygon fill="midnightblue" stroke="midnightblue" points="2068.28,-147.95 2059.12,-142.62 2062.96,-152.5 2068.28,-147.95"/>
</g>
<!-- Node54&#45;&gt;Node30 -->
<g id="edge63" class="edge">
<title>Node54&#45;&gt;Node30</title>
<path fill="none" stroke="midnightblue" d="M1946.9,-347.46C1966.99,-340.12 1994.26,-328 2014,-311 2029.29,-297.83 2041.61,-278.15 2049.28,-263.9"/>
<polygon fill="midnightblue" stroke="midnightblue" points="2052.58,-265.14 2054.02,-254.65 2046.35,-261.95 2052.58,-265.14"/>
</g>
</g>
</svg>
