<?xml version="1.0" encoding="UTF-8" standalone="no"?>
<!DOCTYPE svg PUBLIC "-//W3C//DTD SVG 1.1//EN"
 "http://www.w3.org/Graphics/SVG/1.1/DTD/svg11.dtd">
<!-- Generated by graphviz version 2.43.0 (0)
 -->
<!-- Title: OMSimG4VRadioactiveDecay.hh Pages: 1 -->
<svg width="1059pt" height="148pt"
 viewBox="0.00 0.00 1059.00 148.00" xmlns="http://www.w3.org/2000/svg" xmlns:xlink="http://www.w3.org/1999/xlink">
<g id="graph0" class="graph" transform="scale(1 1) rotate(0) translate(4 144)">
<title>OMSimG4VRadioactiveDecay.hh</title>
<!-- Node1 -->
<g id="Node000001" class="node">
<title>Node1</title>
<g id="a_Node000001"><a xlink:title="Modified version of the original Geant4 RadioactiveDecay class to define custom decay time.">
<polygon fill="#999999" stroke="#666666" points="488.5,-140 314.5,-140 314.5,-121 488.5,-121 488.5,-140"/>
<text text-anchor="middle" x="401.5" y="-128" font-family="Helvetica,sans-Serif" font-size="10.00">OMSimG4VRadioactiveDecay.hh</text>
</a>
</g>
</g>
<!-- Node2 -->
<g id="Node000002" class="node">
<title>Node2</title>
<g id="a_Node000002"><a xlink:title=" ">
<polygon fill="#e0e0e0" stroke="#999999" points="47,-79.5 0,-79.5 0,-60.5 47,-60.5 47,-79.5"/>
<text text-anchor="middle" x="23.5" y="-67.5" font-family="Helvetica,sans-Serif" font-size="10.00">vector</text>
</a>
</g>
</g>
<!-- Node1&#45;&gt;Node2 -->
<g id="edge1_Node000001_Node000002" class="edge">
<title>Node1&#45;&gt;Node2</title>
<g id="a_edge1_Node000001_Node000002"><a xlink:title=" ">
<path fill="none" stroke="#63b8ff" d="M314.44,-124.86C243.91,-119.53 142.47,-108.31 56.5,-85 54.61,-84.49 52.68,-83.89 50.76,-83.23"/>
<polygon fill="#63b8ff" stroke="#63b8ff" points="51.93,-79.93 41.34,-79.61 49.42,-86.47 51.93,-79.93"/>
</a>
</g>
</g>
<!-- Node3 -->
<g id="Node000003" class="node">
<title>Node3</title>
<g id="a_Node000003"><a xlink:title=" ">
<polygon fill="#e0e0e0" stroke="#999999" points="103.5,-79.5 65.5,-79.5 65.5,-60.5 103.5,-60.5 103.5,-79.5"/>
<text text-anchor="middle" x="84.5" y="-67.5" font-family="Helvetica,sans-Serif" font-size="10.00">map</text>
</a>
</g>
</g>
<!-- Node1&#45;&gt;Node3 -->
<g id="edge2_Node000001_Node000003" class="edge">
<title>Node1&#45;&gt;Node3</title>
<g id="a_edge2_Node000001_Node000003"><a xlink:title=" ">
<path fill="none" stroke="#63b8ff" d="M314.22,-123.17C256.02,-117.24 178.41,-105.98 112.5,-85 111.28,-84.61 110.04,-84.17 108.8,-83.7"/>
<polygon fill="#63b8ff" stroke="#63b8ff" points="110.1,-80.45 99.54,-79.59 107.26,-86.85 110.1,-80.45"/>
</a>
</g>
</g>
<!-- Node4 -->
<g id="Node000004" class="node">
<title>Node4</title>
<g id="a_Node000004"><a xlink:title=" ">
<polygon fill="#e0e0e0" stroke="#999999" points="283.5,-79.5 121.5,-79.5 121.5,-60.5 283.5,-60.5 283.5,-79.5"/>
<text text-anchor="middle" x="202.5" y="-67.5" font-family="Helvetica,sans-Serif" font-size="10.00">CLHEP/Units/SystemOfUnits.h</text>
</a>
</g>
</g>
<!-- Node1&#45;&gt;Node4 -->
<g id="edge3_Node000001_Node000004" class="edge">
<title>Node1&#45;&gt;Node4</title>
<g id="a_edge3_Node000001_Node000004"><a xlink:title=" ">
<path fill="none" stroke="#63b8ff" d="M372.56,-120.99C337.93,-110.81 279.8,-93.72 241.29,-82.4"/>
<polygon fill="#63b8ff" stroke="#63b8ff" points="242.05,-78.98 231.47,-79.52 240.08,-85.7 242.05,-78.98"/>
</a>
</g>
</g>
<!-- Node5 -->
<g id="Node000005" class="node">
<title>Node5</title>
<g id="a_Node000005"><a xlink:title=" ">
<polygon fill="#e0e0e0" stroke="#999999" points="298,-19 239,-19 239,0 298,0 298,-19"/>
<text text-anchor="middle" x="268.5" y="-7" font-family="Helvetica,sans-Serif" font-size="10.00">G4ios.hh</text>
</a>
</g>
</g>
<!-- Node1&#45;&gt;Node5 -->
<g id="edge4_Node000001_Node000005" class="edge">
<title>Node1&#45;&gt;Node5</title>
<g id="a_edge4_Node000001_Node000005"><a xlink:title=" ">
<path fill="none" stroke="#63b8ff" d="M391.93,-120.94C369.71,-101.06 314.31,-51.49 285.9,-26.07"/>
<polygon fill="#63b8ff" stroke="#63b8ff" points="288.12,-23.36 278.34,-19.3 283.46,-28.58 288.12,-23.36"/>
</a>
</g>
</g>
<!-- Node6 -->
<g id="Node000006" class="node">
<title>Node6</title>
<g id="a_Node000006"><a xlink:title=" ">
<polygon fill="#e0e0e0" stroke="#999999" points="383,-19 316,-19 316,0 383,0 383,-19"/>
<text text-anchor="middle" x="349.5" y="-7" font-family="Helvetica,sans-Serif" font-size="10.00">globals.hh</text>
</a>
</g>
</g>
<!-- Node1&#45;&gt;Node6 -->
<g id="edge5_Node000001_Node000006" class="edge">
<title>Node1&#45;&gt;Node6</title>
<g id="a_edge5_Node000001_Node000006"><a xlink:title=" ">
<path fill="none" stroke="#63b8ff" d="M393.85,-120.9C386.62,-112.35 375.94,-98.58 369.5,-85 360.91,-66.89 355.53,-44.49 352.54,-29.01"/>
<polygon fill="#63b8ff" stroke="#63b8ff" points="355.98,-28.35 350.77,-19.12 349.09,-29.58 355.98,-28.35"/>
</a>
</g>
</g>
<!-- Node7 -->
<g id="Node000007" class="node">
<title>Node7</title>
<g id="a_Node000007"><a xlink:title=" ">
<polygon fill="#e0e0e0" stroke="#999999" points="739.5,-79.5 587.5,-79.5 587.5,-60.5 739.5,-60.5 739.5,-79.5"/>
<text text-anchor="middle" x="663.5" y="-67.5" font-family="Helvetica,sans-Serif" font-size="10.00">G4VRestDiscreteProcess.hh</text>
</a>
</g>
</g>
<!-- Node1&#45;&gt;Node7 -->
<g id="edge6_Node000001_Node000007" class="edge">
<title>Node1&#45;&gt;Node7</title>
<g id="a_edge6_Node000001_Node000007"><a xlink:title=" ">
<path fill="none" stroke="#63b8ff" d="M439.6,-120.99C486.07,-110.62 564.68,-93.07 615.31,-81.76"/>
<polygon fill="#63b8ff" stroke="#63b8ff" points="616.36,-85.11 625.36,-79.52 614.83,-78.28 616.36,-85.11"/>
</a>
</g>
</g>
<!-- Node8 -->
<g id="Node000008" class="node">
<title>Node8</title>
<g id="a_Node000008"><a xlink:href="_o_m_sim_g4_particle_change_for_rad_decay_8hh_source.html" target="_top" xlink:title=" ">
<polygon fill="white" stroke="#666666" points="531,-85 378,-85 378,-55 531,-55 531,-85"/>
<text text-anchor="start" x="386" y="-73" font-family="Helvetica,sans-Serif" font-size="10.00">OMSimG4ParticleChangeFor</text>
<text text-anchor="middle" x="454.5" y="-62" font-family="Helvetica,sans-Serif" font-size="10.00">RadDecay.hh</text>
</a>
</g>
</g>
<!-- Node1&#45;&gt;Node8 -->
<g id="edge7_Node000001_Node000008" class="edge">
<title>Node1&#45;&gt;Node8</title>
<g id="a_edge7_Node000001_Node000008"><a xlink:title=" ">
<path fill="none" stroke="#63b8ff" d="M409.32,-120.87C416.05,-113.44 426.04,-102.42 434.91,-92.62"/>
<polygon fill="#63b8ff" stroke="#63b8ff" points="437.59,-94.88 441.71,-85.11 432.4,-90.18 437.59,-94.88"/>
</a>
</g>
</g>
<!-- Node9 -->
<g id="Node000009" class="node">
<title>Node9</title>
<g id="a_Node000009"><a xlink:title=" ">
<polygon fill="#e0e0e0" stroke="#999999" points="647,-19 544,-19 544,0 647,0 647,-19"/>
<text text-anchor="middle" x="595.5" y="-7" font-family="Helvetica,sans-Serif" font-size="10.00">G4ThreeVector.hh</text>
</a>
</g>
</g>
<!-- Node1&#45;&gt;Node9 -->
<g id="edge13_Node000001_Node000009" class="edge">
<title>Node1&#45;&gt;Node9</title>
<g id="a_edge13_Node000001_Node000009"><a xlink:title=" ">
<path fill="none" stroke="#63b8ff" d="M453.23,-120.97C481.02,-114.51 514.77,-103.46 540.5,-85 561.25,-70.11 577.42,-45.02 586.71,-28.12"/>
<polygon fill="#63b8ff" stroke="#63b8ff" points="589.82,-29.73 591.37,-19.25 583.62,-26.48 589.82,-29.73"/>
</a>
</g>
</g>
<!-- Node11 -->
<g id="Node000011" class="node">
<title>Node11</title>
<g id="a_Node000011"><a xlink:title=" ">
<polygon fill="#e0e0e0" stroke="#999999" points="871.5,-79.5 757.5,-79.5 757.5,-60.5 871.5,-60.5 871.5,-79.5"/>
<text text-anchor="middle" x="814.5" y="-67.5" font-family="Helvetica,sans-Serif" font-size="10.00">G4NucleusLimits.hh</text>
</a>
</g>
</g>
<!-- Node1&#45;&gt;Node11 -->
<g id="edge12_Node000001_Node000011" class="edge">
<title>Node1&#45;&gt;Node11</title>
<g id="a_edge12_Node000001_Node000011"><a xlink:title=" ">
<path fill="none" stroke="#63b8ff" d="M482.76,-120.97C553.26,-113.13 657.93,-100.39 748.5,-85 754.42,-83.99 760.61,-82.83 766.73,-81.61"/>
<polygon fill="#63b8ff" stroke="#63b8ff" points="767.81,-84.96 776.91,-79.53 766.41,-78.11 767.81,-84.96"/>
</a>
</g>
</g>
<!-- Node12 -->
<g id="Node000012" class="node">
<title>Node12</title>
<g id="a_Node000012"><a xlink:title=" ">
<polygon fill="#e0e0e0" stroke="#999999" points="1051,-79.5 890,-79.5 890,-60.5 1051,-60.5 1051,-79.5"/>
<text text-anchor="middle" x="970.5" y="-67.5" font-family="Helvetica,sans-Serif" font-size="10.00">G4RadioactiveDecayMode.hh</text>
</a>
</g>
</g>
<!-- Node1&#45;&gt;Node12 -->
<g id="edge14_Node000001_Node000012" class="edge">
<title>Node1&#45;&gt;Node12</title>
<g id="a_edge14_Node000001_Node000012"><a xlink:title=" ">
<path fill="none" stroke="#63b8ff" d="M488.64,-123.03C584.77,-115.51 743.95,-101.95 880.5,-85 889.82,-83.84 899.65,-82.47 909.27,-81.04"/>
<polygon fill="#63b8ff" stroke="#63b8ff" points="909.81,-84.5 919.18,-79.54 908.76,-77.58 909.81,-84.5"/>
</a>
</g>
</g>
<!-- Node8&#45;&gt;Node5 -->
<g id="edge9_Node000008_Node000005" class="edge">
<title>Node8&#45;&gt;Node5</title>
<g id="a_edge9_Node000008_Node000005"><a xlink:title=" ">
<path fill="none" stroke="#63b8ff" d="M409.95,-54.99C377.99,-44.94 335.44,-31.55 305.38,-22.1"/>
<polygon fill="#63b8ff" stroke="#63b8ff" points="306.29,-18.72 295.7,-19.05 304.19,-25.39 306.29,-18.72"/>
</a>
</g>
</g>
<!-- Node8&#45;&gt;Node6 -->
<g id="edge8_Node000008_Node000006" class="edge">
<title>Node8&#45;&gt;Node6</title>
<g id="a_edge8_Node000008_Node000006"><a xlink:title=" ">
<path fill="none" stroke="#63b8ff" d="M429.35,-54.99C412.61,-45.66 390.73,-33.47 374.11,-24.21"/>
<polygon fill="#63b8ff" stroke="#63b8ff" points="375.45,-20.95 365.01,-19.14 372.04,-27.06 375.45,-20.95"/>
</a>
</g>
</g>
<!-- Node8&#45;&gt;Node9 -->
<g id="edge10_Node000008_Node000009" class="edge">
<title>Node8&#45;&gt;Node9</title>
<g id="a_edge10_Node000008_Node000009"><a xlink:title=" ">
<path fill="none" stroke="#63b8ff" d="M488.27,-54.99C511.69,-45.27 542.62,-32.44 565.23,-23.06"/>
<polygon fill="#63b8ff" stroke="#63b8ff" points="566.78,-26.2 574.68,-19.14 564.1,-19.74 566.78,-26.2"/>
</a>
</g>
</g>
<!-- Node10 -->
<g id="Node000010" class="node">
<title>Node10</title>
<g id="a_Node000010"><a xlink:title=" ">
<polygon fill="#e0e0e0" stroke="#999999" points="526,-19 401,-19 401,0 526,0 526,-19"/>
<text text-anchor="middle" x="463.5" y="-7" font-family="Helvetica,sans-Serif" font-size="10.00">G4VParticleChange.hh</text>
</a>
</g>
</g>
<!-- Node8&#45;&gt;Node10 -->
<g id="edge11_Node000008_Node000010" class="edge">
<title>Node8&#45;&gt;Node10</title>
<g id="a_edge11_Node000008_Node000010"><a xlink:title=" ">
<path fill="none" stroke="#63b8ff" d="M456.68,-54.84C457.87,-47.13 459.35,-37.49 460.63,-29.17"/>
<polygon fill="#63b8ff" stroke="#63b8ff" points="464.09,-29.68 462.15,-19.27 457.17,-28.62 464.09,-29.68"/>
</a>
</g>
</g>
</g>
</svg>
