<?xml version="1.0" encoding="UTF-8" standalone="no"?>
<!DOCTYPE svg PUBLIC "-//W3C//DTD SVG 1.1//EN"
 "http://www.w3.org/Graphics/SVG/1.1/DTD/svg11.dtd">
<!-- Generated by graphviz version 2.43.0 (0)
 -->
<!-- Title: OMSimSNAnalysis.cc Pages: 1 -->
<svg width="1254pt" height="258pt"
 viewBox="0.00 0.00 1253.50 258.00" xmlns="http://www.w3.org/2000/svg" xmlns:xlink="http://www.w3.org/1999/xlink">
<g id="graph0" class="graph" transform="scale(1 1) rotate(0) translate(4 254)">
<title>OMSimSNAnalysis.cc</title>
<!-- Node1 -->
<g id="Node000001" class="node">
<title>Node1</title>
<g id="a_Node000001"><a xlink:title="Analyze data and write output files.">
<polygon fill="#999999" stroke="#666666" points="452.5,-250 332.5,-250 332.5,-231 452.5,-231 452.5,-250"/>
<text text-anchor="middle" x="392.5" y="-238" font-family="Helvetica,sans-Serif" font-size="10.00">OMSimSNAnalysis.cc</text>
</a>
</g>
</g>
<!-- Node2 -->
<g id="Node000002" class="node">
<title>Node2</title>
<g id="a_Node000002"><a xlink:href="_o_m_sim_s_n_analysis_8hh_source.html" target="_top" xlink:title=" ">
<polygon fill="white" stroke="#666666" points="301.5,-195 179.5,-195 179.5,-176 301.5,-176 301.5,-195"/>
<text text-anchor="middle" x="240.5" y="-183" font-family="Helvetica,sans-Serif" font-size="10.00">OMSimSNAnalysis.hh</text>
</a>
</g>
</g>
<!-- Node1&#45;&gt;Node2 -->
<g id="edge1_Node000001_Node000002" class="edge">
<title>Node1&#45;&gt;Node2</title>
<g id="a_edge1_Node000001_Node000002"><a xlink:title=" ">
<path fill="none" stroke="#63b8ff" d="M368.08,-230.98C342.78,-222.16 303.05,-208.31 274.64,-198.41"/>
<polygon fill="#63b8ff" stroke="#63b8ff" points="275.71,-195.07 265.11,-195.08 273.4,-201.68 275.71,-195.07"/>
</a>
</g>
</g>
<!-- Node6 -->
<g id="Node000006" class="node">
<title>Node6</title>
<g id="a_Node000006"><a xlink:href="_o_m_sim_hit_manager_8hh.html" target="_top" xlink:title="Defines structures and classes related to optical module photon hit management.">
<polygon fill="white" stroke="#666666" points="425,-140 302,-140 302,-121 425,-121 425,-140"/>
<text text-anchor="middle" x="363.5" y="-128" font-family="Helvetica,sans-Serif" font-size="10.00">OMSimHitManager.hh</text>
</a>
</g>
</g>
<!-- Node1&#45;&gt;Node6 -->
<g id="edge31_Node000001_Node000006" class="edge">
<title>Node1&#45;&gt;Node6</title>
<g id="a_edge31_Node000001_Node000006"><a xlink:title=" ">
<path fill="none" stroke="#63b8ff" d="M390.13,-230.66C385.41,-213.09 374.76,-173.45 368.46,-149.95"/>
<polygon fill="#63b8ff" stroke="#63b8ff" points="371.8,-148.91 365.82,-140.16 365.04,-150.72 371.8,-148.91"/>
</a>
</g>
</g>
<!-- Node8 -->
<g id="Node000008" class="node">
<title>Node8</title>
<g id="a_Node000008"><a xlink:title=" ">
<polygon fill="#e0e0e0" stroke="#999999" points="119,-24.5 0,-24.5 0,-5.5 119,-5.5 119,-24.5"/>
<text text-anchor="middle" x="59.5" y="-12.5" font-family="Helvetica,sans-Serif" font-size="10.00">G4SystemOfUnits.hh</text>
</a>
</g>
</g>
<!-- Node1&#45;&gt;Node8 -->
<g id="edge19_Node000001_Node000008" class="edge">
<title>Node1&#45;&gt;Node8</title>
<g id="a_edge19_Node000001_Node000008"><a xlink:title=" ">
<path fill="none" stroke="#63b8ff" d="M332.17,-232.59C236.65,-220.22 57.76,-190.73 22.5,-140 3.73,-113 12.2,-97.23 22.5,-66 26.69,-53.28 35.51,-41.15 43.48,-32.02"/>
<polygon fill="#63b8ff" stroke="#63b8ff" points="46.18,-34.26 50.41,-24.55 41.05,-29.5 46.18,-34.26"/>
</a>
</g>
</g>
<!-- Node17 -->
<g id="Node000017" class="node">
<title>Node17</title>
<g id="a_Node000017"><a xlink:title=" ">
<polygon fill="#e0e0e0" stroke="#999999" points="451,-195 392,-195 392,-176 451,-176 451,-195"/>
<text text-anchor="middle" x="421.5" y="-183" font-family="Helvetica,sans-Serif" font-size="10.00">G4ios.hh</text>
</a>
</g>
</g>
<!-- Node1&#45;&gt;Node17 -->
<g id="edge20_Node000001_Node000017" class="edge">
<title>Node1&#45;&gt;Node17</title>
<g id="a_edge20_Node000001_Node000017"><a xlink:title=" ">
<path fill="none" stroke="#63b8ff" d="M397.29,-230.75C401.26,-223.49 407.03,-212.95 411.93,-203.98"/>
<polygon fill="#63b8ff" stroke="#63b8ff" points="415.07,-205.54 416.8,-195.09 408.93,-202.18 415.07,-205.54"/>
</a>
</g>
</g>
<!-- Node18 -->
<g id="Node000018" class="node">
<title>Node18</title>
<g id="a_Node000018"><a xlink:href="_o_m_sim_command_args_table_8hh.html" target="_top" xlink:title="Definition of the OMSimCommandArgsTable singleton class, which controls user args.">
<polygon fill="white" stroke="#666666" points="762.5,-140 598.5,-140 598.5,-121 762.5,-121 762.5,-140"/>
<text text-anchor="middle" x="680.5" y="-128" font-family="Helvetica,sans-Serif" font-size="10.00">OMSimCommandArgsTable.hh</text>
</a>
</g>
</g>
<!-- Node1&#45;&gt;Node18 -->
<g id="edge21_Node000001_Node000018" class="edge">
<title>Node1&#45;&gt;Node18</title>
<g id="a_edge21_Node000001_Node000018"><a xlink:title=" ">
<path fill="none" stroke="#63b8ff" d="M415.58,-230.84C466.68,-211.68 589.49,-165.63 648.19,-143.62"/>
<polygon fill="#63b8ff" stroke="#63b8ff" points="649.57,-146.84 657.71,-140.05 647.12,-140.28 649.57,-146.84"/>
</a>
</g>
</g>
<!-- Node26 -->
<g id="Node000026" class="node">
<title>Node26</title>
<g id="a_Node000026"><a xlink:href="_o_m_sim_tools_8hh.html" target="_top" xlink:title="Definition of Tools namespace, a collection of helper methods.">
<polygon fill="white" stroke="#666666" points="1013.5,-140 921.5,-140 921.5,-121 1013.5,-121 1013.5,-140"/>
<text text-anchor="middle" x="967.5" y="-128" font-family="Helvetica,sans-Serif" font-size="10.00">OMSimTools.hh</text>
</a>
</g>
</g>
<!-- Node1&#45;&gt;Node26 -->
<g id="edge32_Node000001_Node000026" class="edge">
<title>Node1&#45;&gt;Node26</title>
<g id="a_edge32_Node000001_Node000026"><a xlink:title=" ">
<path fill="none" stroke="#63b8ff" d="M438.1,-230.94C542.53,-211.32 798.71,-163.2 912.03,-141.92"/>
<polygon fill="#63b8ff" stroke="#63b8ff" points="912.71,-145.35 921.9,-140.07 911.42,-138.47 912.71,-145.35"/>
</a>
</g>
</g>
<!-- Node3 -->
<g id="Node000003" class="node">
<title>Node3</title>
<g id="a_Node000003"><a xlink:title=" ">
<polygon fill="#e0e0e0" stroke="#999999" points="354,-24.5 281,-24.5 281,-5.5 354,-5.5 354,-24.5"/>
<text text-anchor="middle" x="317.5" y="-12.5" font-family="Helvetica,sans-Serif" font-size="10.00">G4Types.hh</text>
</a>
</g>
</g>
<!-- Node2&#45;&gt;Node3 -->
<g id="edge2_Node000002_Node000003" class="edge">
<title>Node2&#45;&gt;Node3</title>
<g id="a_edge2_Node000002_Node000003"><a xlink:title=" ">
<path fill="none" stroke="#63b8ff" d="M179.34,-179.42C126.21,-173.58 55.08,-161.86 37.5,-140 16.88,-114.37 16.39,-91.22 37.5,-66 66.69,-31.13 198.83,-20.55 270.66,-17.36"/>
<polygon fill="#63b8ff" stroke="#63b8ff" points="270.95,-20.86 280.8,-16.95 270.66,-13.86 270.95,-20.86"/>
</a>
</g>
</g>
<!-- Node4 -->
<g id="Node000004" class="node">
<title>Node4</title>
<g id="a_Node000004"><a xlink:title=" ">
<polygon fill="#e0e0e0" stroke="#999999" points="245.5,-140 171.5,-140 171.5,-121 245.5,-121 245.5,-140"/>
<text text-anchor="middle" x="208.5" y="-128" font-family="Helvetica,sans-Serif" font-size="10.00">G4String.hh</text>
</a>
</g>
</g>
<!-- Node2&#45;&gt;Node4 -->
<g id="edge3_Node000002_Node000004" class="edge">
<title>Node2&#45;&gt;Node4</title>
<g id="a_edge3_Node000002_Node000004"><a xlink:title=" ">
<path fill="none" stroke="#63b8ff" d="M235.22,-175.75C230.79,-168.42 224.34,-157.73 218.88,-148.7"/>
<polygon fill="#63b8ff" stroke="#63b8ff" points="221.85,-146.84 213.69,-140.09 215.86,-150.46 221.85,-146.84"/>
</a>
</g>
</g>
<!-- Node5 -->
<g id="Node000005" class="node">
<title>Node5</title>
<g id="a_Node000005"><a xlink:title=" ">
<polygon fill="#e0e0e0" stroke="#999999" points="150,-85 47,-85 47,-66 150,-66 150,-85"/>
<text text-anchor="middle" x="98.5" y="-73" font-family="Helvetica,sans-Serif" font-size="10.00">G4ThreeVector.hh</text>
</a>
</g>
</g>
<!-- Node2&#45;&gt;Node5 -->
<g id="edge4_Node000002_Node000005" class="edge">
<title>Node2&#45;&gt;Node5</title>
<g id="a_edge4_Node000002_Node000005"><a xlink:title=" ">
<path fill="none" stroke="#63b8ff" d="M246.44,-175.76C254.58,-162.58 266.88,-137.4 254.5,-121 242.82,-105.52 198.57,-93.82 160.17,-86.31"/>
<polygon fill="#63b8ff" stroke="#63b8ff" points="160.52,-82.81 150.04,-84.4 159.22,-89.69 160.52,-82.81"/>
</a>
</g>
</g>
<!-- Node2&#45;&gt;Node6 -->
<g id="edge5_Node000002_Node000006" class="edge">
<title>Node2&#45;&gt;Node6</title>
<g id="a_edge5_Node000002_Node000006"><a xlink:title=" ">
<path fill="none" stroke="#63b8ff" d="M260.26,-175.98C280.23,-167.38 311.3,-153.99 334.15,-144.15"/>
<polygon fill="#63b8ff" stroke="#63b8ff" points="335.58,-147.34 343.38,-140.17 332.81,-140.91 335.58,-147.34"/>
</a>
</g>
</g>
<!-- Node12 -->
<g id="Node000012" class="node">
<title>Node12</title>
<g id="a_Node000012"><a xlink:title=" ">
<polygon fill="#e0e0e0" stroke="#999999" points="597,-85 542,-85 542,-66 597,-66 597,-85"/>
<text text-anchor="middle" x="569.5" y="-73" font-family="Helvetica,sans-Serif" font-size="10.00">fstream</text>
</a>
</g>
</g>
<!-- Node2&#45;&gt;Node12 -->
<g id="edge17_Node000002_Node000012" class="edge">
<title>Node2&#45;&gt;Node12</title>
<g id="a_edge17_Node000002_Node000012"><a xlink:title=" ">
<path fill="none" stroke="#63b8ff" d="M290.49,-175.97C329.93,-168.52 386.03,-156.35 433.5,-140 473.87,-126.09 518.29,-103.97 545.03,-89.85"/>
<polygon fill="#63b8ff" stroke="#63b8ff" points="546.86,-92.84 554.04,-85.04 543.57,-86.66 546.86,-92.84"/>
</a>
</g>
</g>
<!-- Node15 -->
<g id="Node000015" class="node">
<title>Node15</title>
<g id="a_Node000015"><a xlink:title=" ">
<polygon fill="#e0e0e0" stroke="#999999" points="94,-140 47,-140 47,-121 94,-121 94,-140"/>
<text text-anchor="middle" x="70.5" y="-128" font-family="Helvetica,sans-Serif" font-size="10.00">vector</text>
</a>
</g>
</g>
<!-- Node2&#45;&gt;Node15 -->
<g id="edge16_Node000002_Node000015" class="edge">
<title>Node2&#45;&gt;Node15</title>
<g id="a_edge16_Node000002_Node000015"><a xlink:title=" ">
<path fill="none" stroke="#63b8ff" d="M213.19,-175.98C183.46,-166.72 135.91,-151.89 103.96,-141.93"/>
<polygon fill="#63b8ff" stroke="#63b8ff" points="104.77,-138.52 94.18,-138.88 102.69,-145.2 104.77,-138.52"/>
</a>
</g>
</g>
<!-- Node16 -->
<g id="Node000016" class="node">
<title>Node16</title>
<g id="a_Node000016"><a xlink:title=" ">
<polygon fill="#e0e0e0" stroke="#999999" points="153,-140 112,-140 112,-121 153,-121 153,-140"/>
<text text-anchor="middle" x="132.5" y="-128" font-family="Helvetica,sans-Serif" font-size="10.00">tuple</text>
</a>
</g>
</g>
<!-- Node2&#45;&gt;Node16 -->
<g id="edge18_Node000002_Node000016" class="edge">
<title>Node2&#45;&gt;Node16</title>
<g id="a_edge18_Node000002_Node000016"><a xlink:title=" ">
<path fill="none" stroke="#63b8ff" d="M223.15,-175.98C205.93,-167.54 179.3,-154.47 159.35,-144.68"/>
<polygon fill="#63b8ff" stroke="#63b8ff" points="160.69,-141.43 150.17,-140.17 157.6,-147.72 160.69,-141.43"/>
</a>
</g>
</g>
<!-- Node6&#45;&gt;Node5 -->
<g id="edge12_Node000006_Node000005" class="edge">
<title>Node6&#45;&gt;Node5</title>
<g id="a_edge12_Node000006_Node000005"><a xlink:title=" ">
<path fill="none" stroke="#63b8ff" d="M320.92,-120.98C274.8,-111.76 201.14,-97.03 151.34,-87.07"/>
<polygon fill="#63b8ff" stroke="#63b8ff" points="151.9,-83.61 141.41,-85.08 150.53,-90.48 151.9,-83.61"/>
</a>
</g>
</g>
<!-- Node7 -->
<g id="Node000007" class="node">
<title>Node7</title>
<g id="a_Node000007"><a xlink:href="_o_m_sim_p_m_t_response_8hh.html" target="_top" xlink:title="Simulation of PMT response.">
<polygon fill="white" stroke="#666666" points="524,-85 389,-85 389,-66 524,-66 524,-85"/>
<text text-anchor="middle" x="456.5" y="-73" font-family="Helvetica,sans-Serif" font-size="10.00">OMSimPMTResponse.hh</text>
</a>
</g>
</g>
<!-- Node6&#45;&gt;Node7 -->
<g id="edge6_Node000006_Node000007" class="edge">
<title>Node6&#45;&gt;Node7</title>
<g id="a_edge6_Node000006_Node000007"><a xlink:title=" ">
<path fill="none" stroke="#63b8ff" d="M378.44,-120.98C393,-112.69 415.37,-99.94 432.43,-90.22"/>
<polygon fill="#63b8ff" stroke="#63b8ff" points="434.33,-93.16 441.29,-85.17 430.86,-87.08 434.33,-93.16"/>
</a>
</g>
</g>
<!-- Node6&#45;&gt;Node12 -->
<g id="edge13_Node000006_Node000012" class="edge">
<title>Node6&#45;&gt;Node12</title>
<g id="a_edge13_Node000006_Node000012"><a xlink:title=" ">
<path fill="none" stroke="#63b8ff" d="M396.6,-120.98C433.56,-111.48 493.25,-96.12 531.93,-86.17"/>
<polygon fill="#63b8ff" stroke="#63b8ff" points="532.96,-89.52 541.77,-83.63 531.21,-82.74 532.96,-89.52"/>
</a>
</g>
</g>
<!-- Node13 -->
<g id="Node000013" class="node">
<title>Node13</title>
<g id="a_Node000013"><a xlink:title=" ">
<polygon fill="#e0e0e0" stroke="#999999" points="258.5,-85 168.5,-85 168.5,-66 258.5,-66 258.5,-85"/>
<text text-anchor="middle" x="213.5" y="-73" font-family="Helvetica,sans-Serif" font-size="10.00">G4AutoLock.hh</text>
</a>
</g>
</g>
<!-- Node6&#45;&gt;Node13 -->
<g id="edge14_Node000006_Node000013" class="edge">
<title>Node6&#45;&gt;Node13</title>
<g id="a_edge14_Node000006_Node000013"><a xlink:title=" ">
<path fill="none" stroke="#63b8ff" d="M339.4,-120.98C314.62,-112.23 275.8,-98.51 247.81,-88.62"/>
<polygon fill="#63b8ff" stroke="#63b8ff" points="248.63,-85.2 238.04,-85.17 246.3,-91.8 248.63,-85.2"/>
</a>
</g>
</g>
<!-- Node14 -->
<g id="Node000014" class="node">
<title>Node14</title>
<g id="a_Node000014"><a xlink:title=" ">
<polygon fill="#e0e0e0" stroke="#999999" points="370.5,-85 276.5,-85 276.5,-66 370.5,-66 370.5,-85"/>
<text text-anchor="middle" x="323.5" y="-73" font-family="Helvetica,sans-Serif" font-size="10.00">G4Threading.hh</text>
</a>
</g>
</g>
<!-- Node6&#45;&gt;Node14 -->
<g id="edge15_Node000006_Node000014" class="edge">
<title>Node6&#45;&gt;Node14</title>
<g id="a_edge15_Node000006_Node000014"><a xlink:title=" ">
<path fill="none" stroke="#63b8ff" d="M356.89,-120.75C351.24,-113.26 342.96,-102.28 336.05,-93.13"/>
<polygon fill="#63b8ff" stroke="#63b8ff" points="338.8,-90.96 329.98,-85.09 333.21,-95.18 338.8,-90.96"/>
</a>
</g>
</g>
<!-- Node7&#45;&gt;Node3 -->
<g id="edge8_Node000007_Node000003" class="edge">
<title>Node7&#45;&gt;Node3</title>
<g id="a_edge8_Node000007_Node000003"><a xlink:title=" ">
<path fill="none" stroke="#63b8ff" d="M436.29,-65.99C412.82,-56.12 373.89,-39.73 347.04,-28.43"/>
<polygon fill="#63b8ff" stroke="#63b8ff" points="348.31,-25.17 337.74,-24.52 345.6,-31.62 348.31,-25.17"/>
</a>
</g>
</g>
<!-- Node7&#45;&gt;Node8 -->
<g id="edge7_Node000007_Node000008" class="edge">
<title>Node7&#45;&gt;Node8</title>
<g id="a_edge7_Node000007_Node000008"><a xlink:title=" ">
<path fill="none" stroke="#63b8ff" d="M398.77,-65.99C326.74,-55.38 203.75,-37.26 127.3,-25.99"/>
<polygon fill="#63b8ff" stroke="#63b8ff" points="127.7,-22.51 117.3,-24.52 126.68,-29.44 127.7,-22.51"/>
</a>
</g>
</g>
<!-- Node9 -->
<g id="Node000009" class="node">
<title>Node9</title>
<g id="a_Node000009"><a xlink:title=" ">
<polygon fill="#e0e0e0" stroke="#999999" points="482.5,-24.5 444.5,-24.5 444.5,-5.5 482.5,-5.5 482.5,-24.5"/>
<text text-anchor="middle" x="463.5" y="-12.5" font-family="Helvetica,sans-Serif" font-size="10.00">map</text>
</a>
</g>
</g>
<!-- Node7&#45;&gt;Node9 -->
<g id="edge9_Node000007_Node000009" class="edge">
<title>Node7&#45;&gt;Node9</title>
<g id="a_edge9_Node000007_Node000009"><a xlink:title=" ">
<path fill="none" stroke="#63b8ff" d="M457.53,-65.87C458.5,-57.75 459.99,-45.31 461.24,-34.89"/>
<polygon fill="#63b8ff" stroke="#63b8ff" points="464.75,-35.01 462.46,-24.67 457.8,-34.18 464.75,-35.01"/>
</a>
</g>
</g>
<!-- Node10 -->
<g id="Node000010" class="node">
<title>Node10</title>
<g id="a_Node000010"><a xlink:title=" ">
<polygon fill="#e0e0e0" stroke="#999999" points="620,-24.5 559,-24.5 559,-5.5 620,-5.5 620,-24.5"/>
<text text-anchor="middle" x="589.5" y="-12.5" font-family="Helvetica,sans-Serif" font-size="10.00">TGraph.h</text>
</a>
</g>
</g>
<!-- Node7&#45;&gt;Node10 -->
<g id="edge10_Node000007_Node000010" class="edge">
<title>Node7&#45;&gt;Node10</title>
<g id="a_edge10_Node000007_Node000010"><a xlink:title=" ">
<path fill="none" stroke="#63b8ff" d="M475.84,-65.99C498.2,-56.16 535.21,-39.88 560.9,-28.58"/>
<polygon fill="#63b8ff" stroke="#63b8ff" points="562.39,-31.75 570.14,-24.52 559.57,-25.34 562.39,-31.75"/>
</a>
</g>
</g>
<!-- Node11 -->
<g id="Node000011" class="node">
<title>Node11</title>
<g id="a_Node000011"><a xlink:title=" ">
<polygon fill="#e0e0e0" stroke="#999999" points="718,-24.5 665,-24.5 665,-5.5 718,-5.5 718,-24.5"/>
<text text-anchor="middle" x="691.5" y="-12.5" font-family="Helvetica,sans-Serif" font-size="10.00">TH2D.h</text>
</a>
</g>
</g>
<!-- Node7&#45;&gt;Node11 -->
<g id="edge11_Node000007_Node000011" class="edge">
<title>Node7&#45;&gt;Node11</title>
<g id="a_edge11_Node000007_Node000011"><a xlink:title=" ">
<path fill="none" stroke="#63b8ff" d="M490.67,-65.99C534.49,-55.09 610.15,-36.25 655.04,-25.08"/>
<polygon fill="#63b8ff" stroke="#63b8ff" points="656.08,-28.42 664.94,-22.61 654.39,-21.63 656.08,-28.42"/>
</a>
</g>
</g>
<!-- Node18&#45;&gt;Node9 -->
<g id="edge30_Node000018_Node000009" class="edge">
<title>Node18&#45;&gt;Node9</title>
<g id="a_edge30_Node000018_Node000009"><a xlink:title=" ">
<path fill="none" stroke="#63b8ff" d="M686.14,-120.64C693.84,-107.29 705.31,-81.9 692.5,-66 686.2,-58.17 553.14,-32.63 492.8,-21.39"/>
<polygon fill="#63b8ff" stroke="#63b8ff" points="493.23,-17.91 482.76,-19.53 491.95,-24.79 493.23,-17.91"/>
</a>
</g>
</g>
<!-- Node18&#45;&gt;Node12 -->
<g id="edge27_Node000018_Node000012" class="edge">
<title>Node18&#45;&gt;Node12</title>
<g id="a_edge27_Node000018_Node000012"><a xlink:title=" ">
<path fill="none" stroke="#63b8ff" d="M662.67,-120.98C644.89,-112.5 617.35,-99.35 596.82,-89.54"/>
<polygon fill="#63b8ff" stroke="#63b8ff" points="598.19,-86.32 587.66,-85.17 595.17,-92.64 598.19,-86.32"/>
</a>
</g>
</g>
<!-- Node19 -->
<g id="Node000019" class="node">
<title>Node19</title>
<g id="a_Node000019"><a xlink:href="_o_m_sim_logger_8hh_source.html" target="_top" xlink:title=" ">
<polygon fill="white" stroke="#666666" points="1017,-85 918,-85 918,-66 1017,-66 1017,-85"/>
<text text-anchor="middle" x="967.5" y="-73" font-family="Helvetica,sans-Serif" font-size="10.00">OMSimLogger.hh</text>
</a>
</g>
</g>
<!-- Node18&#45;&gt;Node19 -->
<g id="edge22_Node000018_Node000019" class="edge">
<title>Node18&#45;&gt;Node19</title>
<g id="a_edge22_Node000018_Node000019"><a xlink:title=" ">
<path fill="none" stroke="#63b8ff" d="M726.61,-120.98C776.78,-111.72 857.01,-96.9 910.94,-86.94"/>
<polygon fill="#63b8ff" stroke="#63b8ff" points="911.83,-90.34 921.03,-85.08 910.56,-83.46 911.83,-90.34"/>
</a>
</g>
</g>
<!-- Node24 -->
<g id="Node000024" class="node">
<title>Node24</title>
<g id="a_Node000024"><a xlink:title=" ">
<polygon fill="#e0e0e0" stroke="#999999" points="823.5,-85 739.5,-85 739.5,-66 823.5,-66 823.5,-85"/>
<text text-anchor="middle" x="781.5" y="-73" font-family="Helvetica,sans-Serif" font-size="10.00">boost/any.hpp</text>
</a>
</g>
</g>
<!-- Node18&#45;&gt;Node24 -->
<g id="edge28_Node000018_Node000024" class="edge">
<title>Node18&#45;&gt;Node24</title>
<g id="a_edge28_Node000018_Node000024"><a xlink:title=" ">
<path fill="none" stroke="#63b8ff" d="M696.73,-120.98C712.68,-112.61 737.28,-99.7 755.88,-89.95"/>
<polygon fill="#63b8ff" stroke="#63b8ff" points="757.75,-92.92 764.98,-85.17 754.5,-86.72 757.75,-92.92"/>
</a>
</g>
</g>
<!-- Node25 -->
<g id="Node000025" class="node">
<title>Node25</title>
<g id="a_Node000025"><a xlink:title=" ">
<polygon fill="#e0e0e0" stroke="#999999" points="683.5,-85 615.5,-85 615.5,-66 683.5,-66 683.5,-85"/>
<text text-anchor="middle" x="649.5" y="-73" font-family="Helvetica,sans-Serif" font-size="10.00">sys/time.h</text>
</a>
</g>
</g>
<!-- Node18&#45;&gt;Node25 -->
<g id="edge29_Node000018_Node000025" class="edge">
<title>Node18&#45;&gt;Node25</title>
<g id="a_edge29_Node000018_Node000025"><a xlink:title=" ">
<path fill="none" stroke="#63b8ff" d="M675.38,-120.75C671.14,-113.49 664.97,-102.95 659.72,-93.98"/>
<polygon fill="#63b8ff" stroke="#63b8ff" points="662.59,-91.95 654.52,-85.09 656.55,-95.49 662.59,-91.95"/>
</a>
</g>
</g>
<!-- Node20 -->
<g id="Node000020" class="node">
<title>Node20</title>
<g id="a_Node000020"><a xlink:title=" ">
<polygon fill="#e0e0e0" stroke="#999999" points="842,-24.5 749,-24.5 749,-5.5 842,-5.5 842,-24.5"/>
<text text-anchor="middle" x="795.5" y="-12.5" font-family="Helvetica,sans-Serif" font-size="10.00">spdlog/spdlog.h</text>
</a>
</g>
</g>
<!-- Node19&#45;&gt;Node20 -->
<g id="edge23_Node000019_Node000020" class="edge">
<title>Node19&#45;&gt;Node20</title>
<g id="a_edge23_Node000019_Node000020"><a xlink:title=" ">
<path fill="none" stroke="#63b8ff" d="M942.49,-65.99C912.94,-55.94 863.59,-39.16 830.31,-27.84"/>
<polygon fill="#63b8ff" stroke="#63b8ff" points="831.13,-24.42 820.54,-24.52 828.88,-31.05 831.13,-24.42"/>
</a>
</g>
</g>
<!-- Node21 -->
<g id="Node000021" class="node">
<title>Node21</title>
<g id="a_Node000021"><a xlink:title=" ">
<polygon fill="#e0e0e0" stroke="#999999" points="971,-30 860,-30 860,0 971,0 971,-30"/>
<text text-anchor="start" x="868" y="-18" font-family="Helvetica,sans-Serif" font-size="10.00">spdlog/sinks/stdout</text>
<text text-anchor="middle" x="915.5" y="-7" font-family="Helvetica,sans-Serif" font-size="10.00">_color_sinks.h</text>
</a>
</g>
</g>
<!-- Node19&#45;&gt;Node21 -->
<g id="edge24_Node000019_Node000021" class="edge">
<title>Node19&#45;&gt;Node21</title>
<g id="a_edge24_Node000019_Node000021"><a xlink:title=" ">
<path fill="none" stroke="#63b8ff" d="M959.83,-65.87C953.23,-58.44 943.43,-47.42 934.72,-37.62"/>
<polygon fill="#63b8ff" stroke="#63b8ff" points="937.31,-35.26 928.05,-30.11 932.07,-39.91 937.31,-35.26"/>
</a>
</g>
</g>
<!-- Node22 -->
<g id="Node000022" class="node">
<title>Node22</title>
<g id="a_Node000022"><a xlink:title=" ">
<polygon fill="#e0e0e0" stroke="#999999" points="1047.5,-24.5 989.5,-24.5 989.5,-5.5 1047.5,-5.5 1047.5,-24.5"/>
<text text-anchor="middle" x="1018.5" y="-12.5" font-family="Helvetica,sans-Serif" font-size="10.00">memory</text>
</a>
</g>
</g>
<!-- Node19&#45;&gt;Node22 -->
<g id="edge25_Node000019_Node000022" class="edge">
<title>Node19&#45;&gt;Node22</title>
<g id="a_edge25_Node000019_Node000022"><a xlink:title=" ">
<path fill="none" stroke="#63b8ff" d="M975.03,-65.87C982.71,-57.05 994.82,-43.16 1004.31,-32.27"/>
<polygon fill="#63b8ff" stroke="#63b8ff" points="1007.01,-34.51 1010.94,-24.67 1001.73,-29.91 1007.01,-34.51"/>
</a>
</g>
</g>
<!-- Node23 -->
<g id="Node000023" class="node">
<title>Node23</title>
<g id="a_Node000023"><a xlink:title=" ">
<polygon fill="#e0e0e0" stroke="#999999" points="1163.5,-24.5 1065.5,-24.5 1065.5,-5.5 1163.5,-5.5 1163.5,-24.5"/>
<text text-anchor="middle" x="1114.5" y="-12.5" font-family="Helvetica,sans-Serif" font-size="10.00">spdlog/fmt/fmt.h</text>
</a>
</g>
</g>
<!-- Node19&#45;&gt;Node23 -->
<g id="edge26_Node000019_Node000023" class="edge">
<title>Node19&#45;&gt;Node23</title>
<g id="a_edge26_Node000019_Node000023"><a xlink:title=" ">
<path fill="none" stroke="#63b8ff" d="M988.88,-65.99C1013.81,-56.07 1055.22,-39.59 1083.64,-28.28"/>
<polygon fill="#63b8ff" stroke="#63b8ff" points="1085.1,-31.47 1093.1,-24.52 1082.51,-24.96 1085.1,-31.47"/>
</a>
</g>
</g>
<!-- Node26&#45;&gt;Node10 -->
<g id="edge35_Node000026_Node000010" class="edge">
<title>Node26&#45;&gt;Node10</title>
<g id="a_edge35_Node000026_Node000010"><a xlink:title=" ">
<path fill="none" stroke="#63b8ff" d="M946.09,-120.97C925.22,-112.47 892.76,-98.74 865.5,-85 850.39,-77.38 848.33,-71.99 832.5,-66 757.84,-37.72 734.69,-46.17 656.5,-30 647.97,-28.24 638.83,-26.33 630.13,-24.52"/>
<polygon fill="#63b8ff" stroke="#63b8ff" points="630.68,-21.06 620.18,-22.44 629.25,-27.91 630.68,-21.06"/>
</a>
</g>
</g>
<!-- Node26&#45;&gt;Node11 -->
<g id="edge36_Node000026_Node000011" class="edge">
<title>Node26&#45;&gt;Node11</title>
<g id="a_edge36_Node000026_Node000011"><a xlink:title=" ">
<path fill="none" stroke="#63b8ff" d="M956.16,-120.96C937.92,-107.57 900.57,-81.59 865.5,-66 863.89,-65.28 778.87,-40.96 728.29,-26.5"/>
<polygon fill="#63b8ff" stroke="#63b8ff" points="728.94,-23.05 718.36,-23.67 727.02,-29.78 728.94,-23.05"/>
</a>
</g>
</g>
<!-- Node26&#45;&gt;Node19 -->
<g id="edge33_Node000026_Node000019" class="edge">
<title>Node26&#45;&gt;Node19</title>
<g id="a_edge33_Node000026_Node000019"><a xlink:title=" ">
<path fill="none" stroke="#63b8ff" d="M967.5,-120.75C967.5,-113.8 967.5,-103.85 967.5,-95.13"/>
<polygon fill="#63b8ff" stroke="#63b8ff" points="971,-95.09 967.5,-85.09 964,-95.09 971,-95.09"/>
</a>
</g>
</g>
<!-- Node27 -->
<g id="Node000027" class="node">
<title>Node27</title>
<g id="a_Node000027"><a xlink:title=" ">
<polygon fill="#e0e0e0" stroke="#999999" points="1102,-85 1035,-85 1035,-66 1102,-66 1102,-85"/>
<text text-anchor="middle" x="1068.5" y="-73" font-family="Helvetica,sans-Serif" font-size="10.00">globals.hh</text>
</a>
</g>
</g>
<!-- Node26&#45;&gt;Node27 -->
<g id="edge34_Node000026_Node000027" class="edge">
<title>Node26&#45;&gt;Node27</title>
<g id="a_edge34_Node000026_Node000027"><a xlink:title=" ">
<path fill="none" stroke="#63b8ff" d="M983.73,-120.98C999.68,-112.61 1024.28,-99.7 1042.88,-89.95"/>
<polygon fill="#63b8ff" stroke="#63b8ff" points="1044.75,-92.92 1051.98,-85.17 1041.5,-86.72 1044.75,-92.92"/>
</a>
</g>
</g>
<!-- Node28 -->
<g id="Node000028" class="node">
<title>Node28</title>
<g id="a_Node000028"><a xlink:title=" ">
<polygon fill="#e0e0e0" stroke="#999999" points="1171,-85 1120,-85 1120,-66 1171,-66 1171,-85"/>
<text text-anchor="middle" x="1145.5" y="-73" font-family="Helvetica,sans-Serif" font-size="10.00">variant</text>
</a>
</g>
</g>
<!-- Node26&#45;&gt;Node28 -->
<g id="edge37_Node000026_Node000028" class="edge">
<title>Node26&#45;&gt;Node28</title>
<g id="a_edge37_Node000026_Node000028"><a xlink:title=" ">
<path fill="none" stroke="#63b8ff" d="M996.1,-120.98C1027.09,-111.76 1076.59,-97.02 1110.03,-87.06"/>
<polygon fill="#63b8ff" stroke="#63b8ff" points="1111.28,-90.34 1119.86,-84.13 1109.28,-83.63 1111.28,-90.34"/>
</a>
</g>
</g>
<!-- Node29 -->
<g id="Node000029" class="node">
<title>Node29</title>
<g id="a_Node000029"><a xlink:title=" ">
<polygon fill="#e0e0e0" stroke="#999999" points="1245.5,-85 1189.5,-85 1189.5,-66 1245.5,-66 1245.5,-85"/>
<text text-anchor="middle" x="1217.5" y="-73" font-family="Helvetica,sans-Serif" font-size="10.00">optional</text>
</a>
</g>
</g>
<!-- Node26&#45;&gt;Node29 -->
<g id="edge38_Node000026_Node000029" class="edge">
<title>Node26&#45;&gt;Node29</title>
<g id="a_edge38_Node000026_Node000029"><a xlink:title=" ">
<path fill="none" stroke="#63b8ff" d="M1009.58,-120.96C1050.49,-112.61 1114.63,-99.36 1179.27,-85.24"/>
<polygon fill="#63b8ff" stroke="#63b8ff" points="1180.21,-88.61 1189.23,-83.05 1178.71,-81.78 1180.21,-88.61"/>
</a>
</g>
</g>
</g>
</svg>
