<?xml version="1.0" encoding="UTF-8" standalone="no"?>
<!DOCTYPE svg PUBLIC "-//W3C//DTD SVG 1.1//EN"
 "http://www.w3.org/Graphics/SVG/1.1/DTD/svg11.dtd">
<!-- Generated by graphviz version 2.43.0 (0)
 -->
<!-- Title: OMSimPMTConstruction.hh Pages: 1 -->
<svg width="1005pt" height="248pt"
 viewBox="0.00 0.00 1004.50 247.85" xmlns="http://www.w3.org/2000/svg" xmlns:xlink="http://www.w3.org/1999/xlink">
<g id="graph0" class="graph" transform="scale(1 1) rotate(0) translate(4 243.85)">
<title>OMSimPMTConstruction.hh</title>
<!-- Node1 -->
<g id="Node000001" class="node">
<title>Node1</title>
<g id="a_Node000001"><a xlink:title="Construction of the PMTs.">
<polygon fill="#999999" stroke="#666666" points="394,-239 245,-239 245,-220 394,-220 394,-239"/>
<text text-anchor="middle" x="319.5" y="-227" font-family="Helvetica,sans-Serif" font-size="10.00">OMSimPMTConstruction.hh</text>
</a>
</g>
</g>
<!-- Node1&#45;&gt;Node1 -->
<g id="edge29_Node000001_Node000001" class="edge">
<title>Node1&#45;&gt;Node1</title>
<g id="a_edge29_Node000001_Node000001"><a xlink:title=" ">
<path fill="none" stroke="#63b8ff" d="M372.79,-239.56C394.11,-240.13 412,-236.77 412,-229.5 412,-221.12 388.21,-217.94 362.8,-219.97"/>
<polygon fill="#63b8ff" stroke="#63b8ff" points="372.97,-236.07 362.8,-239.03 372.6,-243.06 372.97,-236.07"/>
</a>
</g>
</g>
<!-- Node2 -->
<g id="Node000002" class="node">
<title>Node2</title>
<g id="a_Node000002"><a xlink:href="_o_m_sim_d_e_g_g_8hh.html" target="_top" xlink:title="Construction of the DEGG class. From DOUMEKI.">
<polygon fill="white" stroke="#666666" points="113,-129 18,-129 18,-110 113,-110 113,-129"/>
<text text-anchor="middle" x="65.5" y="-117" font-family="Helvetica,sans-Serif" font-size="10.00">OMSimDEGG.hh</text>
</a>
</g>
</g>
<!-- Node1&#45;&gt;Node2 -->
<g id="edge1_Node000001_Node000002" class="edge">
<title>Node1&#45;&gt;Node2</title>
<g id="a_edge1_Node000001_Node000002"><a xlink:title=" ">
<path fill="none" stroke="#63b8ff" d="M289.74,-215.84C237.38,-193.58 130.15,-147.99 85.6,-129.05"/>
<polygon fill="#63b8ff" stroke="#63b8ff" points="288.57,-219.15 299.14,-219.84 291.31,-212.71 288.57,-219.15"/>
</a>
</g>
</g>
<!-- Node3 -->
<g id="Node000003" class="node">
<title>Node3</title>
<g id="a_Node000003"><a xlink:href="_o_m_sim_l_o_m16_8hh.html" target="_top" xlink:title="Construction of LOM16.">
<polygon fill="white" stroke="#666666" points="232,-129 131,-129 131,-110 232,-110 232,-129"/>
<text text-anchor="middle" x="181.5" y="-117" font-family="Helvetica,sans-Serif" font-size="10.00">OMSimLOM16.hh</text>
</a>
</g>
</g>
<!-- Node1&#45;&gt;Node3 -->
<g id="edge2_Node000001_Node000003" class="edge">
<title>Node1&#45;&gt;Node3</title>
<g id="a_edge2_Node000001_Node000003"><a xlink:title=" ">
<path fill="none" stroke="#63b8ff" d="M299.96,-213.21C270.56,-190.2 215.93,-147.44 192.56,-129.16"/>
<polygon fill="#63b8ff" stroke="#63b8ff" points="298.17,-216.26 308.21,-219.66 302.49,-210.74 298.17,-216.26"/>
</a>
</g>
</g>
<!-- Node4 -->
<g id="Node000004" class="node">
<title>Node4</title>
<g id="a_Node000004"><a xlink:href="_o_m_sim_l_o_m18_8hh.html" target="_top" xlink:title="Construction of LOM18.">
<polygon fill="white" stroke="#666666" points="351,-129 250,-129 250,-110 351,-110 351,-129"/>
<text text-anchor="middle" x="300.5" y="-117" font-family="Helvetica,sans-Serif" font-size="10.00">OMSimLOM18.hh</text>
</a>
</g>
</g>
<!-- Node1&#45;&gt;Node4 -->
<g id="edge3_Node000001_Node000004" class="edge">
<title>Node1&#45;&gt;Node4</title>
<g id="a_edge3_Node000001_Node000004"><a xlink:title=" ">
<path fill="none" stroke="#63b8ff" d="M316.21,-209.8C312.06,-186.2 305.09,-146.58 302.02,-129.16"/>
<polygon fill="#63b8ff" stroke="#63b8ff" points="312.77,-210.42 317.95,-219.66 319.66,-209.21 312.77,-210.42"/>
</a>
</g>
</g>
<!-- Node6 -->
<g id="Node000006" class="node">
<title>Node6</title>
<g id="a_Node000006"><a xlink:href="_o_m_sim_m_d_o_m_8hh.html" target="_top" xlink:title="Construction of mDOM.">
<polygon fill="white" stroke="#666666" points="469.5,-129 369.5,-129 369.5,-110 469.5,-110 469.5,-129"/>
<text text-anchor="middle" x="419.5" y="-117" font-family="Helvetica,sans-Serif" font-size="10.00">OMSimMDOM.hh</text>
</a>
</g>
</g>
<!-- Node1&#45;&gt;Node6 -->
<g id="edge5_Node000001_Node000006" class="edge">
<title>Node1&#45;&gt;Node6</title>
<g id="a_edge5_Node000001_Node000006"><a xlink:title=" ">
<path fill="none" stroke="#63b8ff" d="M327.62,-210.78C334.37,-197.27 344.88,-178.71 357.5,-165 371.23,-150.08 390.69,-137.1 404.13,-129.07"/>
<polygon fill="#63b8ff" stroke="#63b8ff" points="324.38,-209.43 323.22,-219.96 330.7,-212.46 324.38,-209.43"/>
</a>
</g>
</g>
<!-- Node7 -->
<g id="Node000007" class="node">
<title>Node7</title>
<g id="a_Node000007"><a xlink:href="_o_m_sim_optical_module_8hh_source.html" target="_top" xlink:title=" ">
<polygon fill="white" stroke="#666666" points="504,-184 367,-184 367,-165 504,-165 504,-184"/>
<text text-anchor="middle" x="435.5" y="-172" font-family="Helvetica,sans-Serif" font-size="10.00">OMSimOpticalModule.hh</text>
</a>
</g>
</g>
<!-- Node1&#45;&gt;Node7 -->
<g id="edge6_Node000001_Node000007" class="edge">
<title>Node1&#45;&gt;Node7</title>
<g id="a_edge6_Node000001_Node000007"><a xlink:title=" ">
<path fill="none" stroke="#63b8ff" d="M347.37,-215.77C368.77,-205.99 397.74,-192.75 416.52,-184.17"/>
<polygon fill="#63b8ff" stroke="#63b8ff" points="345.78,-212.65 338.14,-219.98 348.69,-219.01 345.78,-212.65"/>
</a>
</g>
</g>
<!-- Node19 -->
<g id="Node000019" class="node">
<title>Node19</title>
<g id="a_Node000019"><a xlink:href="_o_m_sim_p_d_o_m_8hh.html" target="_top" xlink:title="Implementation of the pDOM (deepcore) or Gen1 DOM..">
<polygon fill="white" stroke="#666666" points="849,-129 752,-129 752,-110 849,-110 849,-129"/>
<text text-anchor="middle" x="800.5" y="-117" font-family="Helvetica,sans-Serif" font-size="10.00">OMSimPDOM.hh</text>
</a>
</g>
</g>
<!-- Node1&#45;&gt;Node19 -->
<g id="edge28_Node000001_Node000019" class="edge">
<title>Node1&#45;&gt;Node19</title>
<g id="a_edge28_Node000001_Node000019"><a xlink:title=" ">
<path fill="none" stroke="#63b8ff" d="M367.62,-217.69C463.27,-196.22 675.52,-148.56 762.35,-129.07"/>
<polygon fill="#63b8ff" stroke="#63b8ff" points="366.64,-214.33 357.65,-219.94 368.17,-221.16 366.64,-214.33"/>
</a>
</g>
</g>
<!-- Node5 -->
<g id="Node000005" class="node">
<title>Node5</title>
<g id="a_Node000005"><a xlink:href="_o_m_sim_l_o_m18_8cc.html" target="_top" xlink:title=" ">
<polygon fill="white" stroke="#666666" points="99,-74 0,-74 0,-55 99,-55 99,-74"/>
<text text-anchor="middle" x="49.5" y="-62" font-family="Helvetica,sans-Serif" font-size="10.00">OMSimLOM18.cc</text>
</a>
</g>
</g>
<!-- Node4&#45;&gt;Node5 -->
<g id="edge4_Node000004_Node000005" class="edge">
<title>Node4&#45;&gt;Node5</title>
<g id="a_edge4_Node000004_Node000005"><a xlink:title=" ">
<path fill="none" stroke="#63b8ff" d="M250.2,-107.88C203.15,-97.94 133.78,-83.3 90.14,-74.08"/>
<polygon fill="#63b8ff" stroke="#63b8ff" points="249.67,-111.34 260.17,-109.98 251.11,-104.49 249.67,-111.34"/>
</a>
</g>
</g>
<!-- Node7&#45;&gt;Node2 -->
<g id="edge7_Node000007_Node000002" class="edge">
<title>Node7&#45;&gt;Node2</title>
<g id="a_edge7_Node000007_Node000002"><a xlink:title=" ">
<path fill="none" stroke="#63b8ff" d="M364.17,-163.59C300.51,-154.71 204.75,-141.22 121.5,-129 118.78,-128.6 115.98,-128.19 113.15,-127.77"/>
<polygon fill="#63b8ff" stroke="#63b8ff" points="363.72,-167.07 374.1,-164.98 364.68,-160.13 363.72,-167.07"/>
</a>
</g>
</g>
<!-- Node7&#45;&gt;Node3 -->
<g id="edge23_Node000007_Node000003" class="edge">
<title>Node7&#45;&gt;Node3</title>
<g id="a_edge23_Node000007_Node000003"><a xlink:title=" ">
<path fill="none" stroke="#63b8ff" d="M384.89,-162.94C337.28,-153.01 266.88,-138.31 222.63,-129.08"/>
<polygon fill="#63b8ff" stroke="#63b8ff" points="384.19,-166.37 394.69,-164.98 385.62,-159.52 384.19,-166.37"/>
</a>
</g>
</g>
<!-- Node7&#45;&gt;Node4 -->
<g id="edge24_Node000007_Node000004" class="edge">
<title>Node7&#45;&gt;Node4</title>
<g id="a_edge24_Node000007_Node000004"><a xlink:title=" ">
<path fill="none" stroke="#63b8ff" d="M404.4,-161.29C379.38,-151.47 344.84,-137.91 322.58,-129.17"/>
<polygon fill="#63b8ff" stroke="#63b8ff" points="403.22,-164.59 413.81,-164.98 405.78,-158.07 403.22,-164.59"/>
</a>
</g>
</g>
<!-- Node7&#45;&gt;Node6 -->
<g id="edge25_Node000007_Node000006" class="edge">
<title>Node7&#45;&gt;Node6</title>
<g id="a_edge25_Node000007_Node000006"><a xlink:title=" ">
<path fill="none" stroke="#63b8ff" d="M429.9,-154.95C427.24,-146.15 424.2,-136.06 422.09,-129.09"/>
<polygon fill="#63b8ff" stroke="#63b8ff" points="426.62,-156.19 432.86,-164.75 433.32,-154.16 426.62,-156.19"/>
</a>
</g>
</g>
<!-- Node8 -->
<g id="Node000008" class="node">
<title>Node8</title>
<g id="a_Node000008"><a xlink:href="_o_m_sim_decays_g_p_s_8hh.html" target="_top" xlink:title="Defines the OMSimDecaysGPS class for the radioactive decays simulation.">
<polygon fill="white" stroke="#666666" points="996.5,-74 874.5,-74 874.5,-55 996.5,-55 996.5,-74"/>
<text text-anchor="middle" x="935.5" y="-62" font-family="Helvetica,sans-Serif" font-size="10.00">OMSimDecaysGPS.hh</text>
</a>
</g>
</g>
<!-- Node7&#45;&gt;Node8 -->
<g id="edge8_Node000007_Node000008" class="edge">
<title>Node7&#45;&gt;Node8</title>
<g id="a_edge8_Node000007_Node000008"><a xlink:title=" ">
<path fill="none" stroke="#63b8ff" d="M514.15,-165.45C567.27,-158.75 638.54,-147.29 699.5,-129 719.51,-122.99 722.68,-116.6 742.5,-110 790.62,-93.98 847.36,-81.65 886.81,-74.07"/>
<polygon fill="#63b8ff" stroke="#63b8ff" points="513.61,-161.99 504.12,-166.68 514.47,-168.93 513.61,-161.99"/>
</a>
</g>
</g>
<!-- Node10 -->
<g id="Node000010" class="node">
<title>Node10</title>
<g id="a_Node000010"><a xlink:href="_o_m_sim_detector_construction_8hh_source.html" target="_top" xlink:title=" ">
<polygon fill="white" stroke="#666666" points="657.5,-129 487.5,-129 487.5,-110 657.5,-110 657.5,-129"/>
<text text-anchor="middle" x="572.5" y="-117" font-family="Helvetica,sans-Serif" font-size="10.00">OMSimDetectorConstruction.hh</text>
</a>
</g>
</g>
<!-- Node7&#45;&gt;Node10 -->
<g id="edge10_Node000007_Node000010" class="edge">
<title>Node7&#45;&gt;Node10</title>
<g id="a_edge10_Node000007_Node000010"><a xlink:title=" ">
<path fill="none" stroke="#63b8ff" d="M467.06,-161.29C492.45,-151.47 527.5,-137.91 550.09,-129.17"/>
<polygon fill="#63b8ff" stroke="#63b8ff" points="465.58,-158.11 457.51,-164.98 468.1,-164.64 465.58,-158.11"/>
</a>
</g>
</g>
<!-- Node17 -->
<g id="Node000017" class="node">
<title>Node17</title>
<g id="a_Node000017"><a xlink:href="_o_m_sim_rad_decays_detector_8hh.html" target="_top" xlink:title="Defines the OMSimRadDecaysDetector class for the radioactive decays simulation.">
<polygon fill="white" stroke="#666666" points="856,-74 693,-74 693,-55 856,-55 856,-74"/>
<text text-anchor="middle" x="774.5" y="-62" font-family="Helvetica,sans-Serif" font-size="10.00">OMSimRadDecaysDetector.hh</text>
</a>
</g>
</g>
<!-- Node7&#45;&gt;Node17 -->
<g id="edge27_Node000007_Node000017" class="edge">
<title>Node7&#45;&gt;Node17</title>
<g id="a_edge27_Node000007_Node000017"><a xlink:title=" ">
<path fill="none" stroke="#63b8ff" d="M514.25,-165.11C559.78,-158.6 617.57,-147.47 666.5,-129 704.15,-114.79 743.78,-87.96 762.87,-74.16"/>
<polygon fill="#63b8ff" stroke="#63b8ff" points="513.56,-161.67 504.14,-166.5 514.52,-168.6 513.56,-161.67"/>
</a>
</g>
</g>
<!-- Node7&#45;&gt;Node19 -->
<g id="edge26_Node000007_Node000019" class="edge">
<title>Node7&#45;&gt;Node19</title>
<g id="a_edge26_Node000007_Node000019"><a xlink:title=" ">
<path fill="none" stroke="#63b8ff" d="M504.07,-163.54C576.32,-153.05 688.29,-136.79 751.93,-127.55"/>
<polygon fill="#63b8ff" stroke="#63b8ff" points="503.54,-160.08 494.14,-164.98 504.54,-167.01 503.54,-160.08"/>
</a>
</g>
</g>
<!-- Node9 -->
<g id="Node000009" class="node">
<title>Node9</title>
<g id="a_Node000009"><a xlink:href="_o_m_sim__radioactive__decays_8cc.html" target="_top" xlink:title="Main of the radioactive decay study.">
<polygon fill="white" stroke="#666666" points="857,-19 692,-19 692,0 857,0 857,-19"/>
<text text-anchor="middle" x="774.5" y="-7" font-family="Helvetica,sans-Serif" font-size="10.00">OMSim_radioactive_decays.cc</text>
</a>
</g>
</g>
<!-- Node8&#45;&gt;Node9 -->
<g id="edge9_Node000008_Node000009" class="edge">
<title>Node8&#45;&gt;Node9</title>
<g id="a_edge9_Node000008_Node000009"><a xlink:title=" ">
<path fill="none" stroke="#63b8ff" d="M899.95,-51.8C869.91,-41.91 827.56,-27.97 800.57,-19.08"/>
<polygon fill="#63b8ff" stroke="#63b8ff" points="899.04,-55.18 909.63,-54.98 901.23,-48.53 899.04,-55.18"/>
</a>
</g>
</g>
<!-- Node11 -->
<g id="Node000011" class="node">
<title>Node11</title>
<g id="a_Node000011"><a xlink:href="_o_m_sim_8hh.html" target="_top" xlink:title="Main simulation class for the Optical Module (OM) simulation. This file defines the OMSim class,...">
<polygon fill="white" stroke="#666666" points="675,-74 608,-74 608,-55 675,-55 675,-74"/>
<text text-anchor="middle" x="641.5" y="-62" font-family="Helvetica,sans-Serif" font-size="10.00">OMSim.hh</text>
</a>
</g>
</g>
<!-- Node10&#45;&gt;Node11 -->
<g id="edge11_Node000010_Node000011" class="edge">
<title>Node10&#45;&gt;Node11</title>
<g id="a_edge11_Node000010_Node000011"><a xlink:title=" ">
<path fill="none" stroke="#63b8ff" d="M591.54,-103.88C603.96,-94.34 619.74,-82.21 630.21,-74.17"/>
<polygon fill="#63b8ff" stroke="#63b8ff" points="589.38,-101.12 583.59,-109.98 593.65,-106.67 589.38,-101.12"/>
</a>
</g>
</g>
<!-- Node15 -->
<g id="Node000015" class="node">
<title>Node15</title>
<g id="a_Node000015"><a xlink:href="_o_m_sim_effective_area_detector_8hh.html" target="_top" xlink:title="Defines the OMSimEffectiveAreaDetector class for effective area simulation detector construction.">
<polygon fill="white" stroke="#666666" points="590,-74 417,-74 417,-55 590,-55 590,-74"/>
<text text-anchor="middle" x="503.5" y="-62" font-family="Helvetica,sans-Serif" font-size="10.00">OMSimEffectiveAreaDetector.hh</text>
</a>
</g>
</g>
<!-- Node10&#45;&gt;Node15 -->
<g id="edge16_Node000010_Node000015" class="edge">
<title>Node10&#45;&gt;Node15</title>
<g id="a_edge16_Node000010_Node000015"><a xlink:title=" ">
<path fill="none" stroke="#63b8ff" d="M553.46,-103.88C541.04,-94.34 525.26,-82.21 514.79,-74.17"/>
<polygon fill="#63b8ff" stroke="#63b8ff" points="551.35,-106.67 561.41,-109.98 555.62,-101.12 551.35,-106.67"/>
</a>
</g>
</g>
<!-- Node16 -->
<g id="Node000016" class="node">
<title>Node16</title>
<g id="a_Node000016"><a xlink:href="_o_m_sim_effi_cali_detector_8hh_source.html" target="_top" xlink:title=" ">
<polygon fill="white" stroke="#666666" points="399,-74 256,-74 256,-55 399,-55 399,-74"/>
<text text-anchor="middle" x="327.5" y="-62" font-family="Helvetica,sans-Serif" font-size="10.00">OMSimEffiCaliDetector.hh</text>
</a>
</g>
</g>
<!-- Node10&#45;&gt;Node16 -->
<g id="edge18_Node000010_Node000016" class="edge">
<title>Node10&#45;&gt;Node16</title>
<g id="a_edge18_Node000010_Node000016"><a xlink:title=" ">
<path fill="none" stroke="#63b8ff" d="M523.11,-107.82C477.2,-97.88 409.67,-83.28 367.17,-74.08"/>
<polygon fill="#63b8ff" stroke="#63b8ff" points="522.62,-111.29 533.14,-109.98 524.1,-104.45 522.62,-111.29"/>
</a>
</g>
</g>
<!-- Node10&#45;&gt;Node17 -->
<g id="edge19_Node000010_Node000017" class="edge">
<title>Node10&#45;&gt;Node17</title>
<g id="a_edge19_Node000010_Node000017"><a xlink:title=" ">
<path fill="none" stroke="#63b8ff" d="M614.66,-107.44C652.48,-97.52 707.19,-83.16 741.79,-74.08"/>
<polygon fill="#63b8ff" stroke="#63b8ff" points="613.74,-104.06 604.95,-109.98 615.52,-110.83 613.74,-104.06"/>
</a>
</g>
</g>
<!-- Node18 -->
<g id="Node000018" class="node">
<title>Node18</title>
<g id="a_Node000018"><a xlink:href="_o_m_sim_s_ndetector_8hh_source.html" target="_top" xlink:title=" ">
<polygon fill="white" stroke="#666666" points="237.5,-74 117.5,-74 117.5,-55 237.5,-55 237.5,-74"/>
<text text-anchor="middle" x="177.5" y="-62" font-family="Helvetica,sans-Serif" font-size="10.00">OMSimSNdetector.hh</text>
</a>
</g>
</g>
<!-- Node10&#45;&gt;Node18 -->
<g id="edge21_Node000010_Node000018" class="edge">
<title>Node10&#45;&gt;Node18</title>
<g id="a_edge21_Node000010_Node000018"><a xlink:title=" ">
<path fill="none" stroke="#63b8ff" d="M498.67,-108.59C423.25,-98.47 307.57,-82.95 237.57,-73.56"/>
<polygon fill="#63b8ff" stroke="#63b8ff" points="498.66,-112.12 509.04,-109.98 499.59,-105.19 498.66,-112.12"/>
</a>
</g>
</g>
<!-- Node11&#45;&gt;Node9 -->
<g id="edge15_Node000011_Node000009" class="edge">
<title>Node11&#45;&gt;Node9</title>
<g id="a_edge15_Node000011_Node000009"><a xlink:title=" ">
<path fill="none" stroke="#63b8ff" d="M672.47,-51.16C697.09,-41.35 730.91,-27.87 752.74,-19.17"/>
<polygon fill="#63b8ff" stroke="#63b8ff" points="670.86,-48.03 662.87,-54.98 673.45,-54.53 670.86,-48.03"/>
</a>
</g>
</g>
<!-- Node12 -->
<g id="Node000012" class="node">
<title>Node12</title>
<g id="a_Node000012"><a xlink:href="_o_m_sim_8cc.html" target="_top" xlink:title="Implementation of the OMSim class.">
<polygon fill="white" stroke="#666666" points="674,-19 609,-19 609,0 674,0 674,-19"/>
<text text-anchor="middle" x="641.5" y="-7" font-family="Helvetica,sans-Serif" font-size="10.00">OMSim.cc</text>
</a>
</g>
</g>
<!-- Node11&#45;&gt;Node12 -->
<g id="edge12_Node000011_Node000012" class="edge">
<title>Node11&#45;&gt;Node12</title>
<g id="a_edge12_Node000011_Node000012"><a xlink:title=" ">
<path fill="none" stroke="#63b8ff" d="M641.5,-44.66C641.5,-35.93 641.5,-25.99 641.5,-19.09"/>
<polygon fill="#63b8ff" stroke="#63b8ff" points="638,-44.75 641.5,-54.75 645,-44.75 638,-44.75"/>
</a>
</g>
</g>
<!-- Node13 -->
<g id="Node000013" class="node">
<title>Node13</title>
<g id="a_Node000013"><a xlink:href="_o_m_sim_supernova_8cc.html" target="_top" xlink:title="Main of the supernova study.">
<polygon fill="white" stroke="#666666" points="334,-19 217,-19 217,0 334,0 334,-19"/>
<text text-anchor="middle" x="275.5" y="-7" font-family="Helvetica,sans-Serif" font-size="10.00">OMSimSupernova.cc</text>
</a>
</g>
</g>
<!-- Node11&#45;&gt;Node13 -->
<g id="edge13_Node000011_Node000013" class="edge">
<title>Node11&#45;&gt;Node13</title>
<g id="a_edge13_Node000011_Node000013"><a xlink:title=" ">
<path fill="none" stroke="#63b8ff" d="M597.62,-54.94C499.29,-38.64 396.68,-25.27 334.01,-17.52"/>
<polygon fill="#63b8ff" stroke="#63b8ff" points="597.29,-58.44 607.73,-56.63 598.45,-51.53 597.29,-58.44"/>
</a>
</g>
</g>
<!-- Node14 -->
<g id="Node000014" class="node">
<title>Node14</title>
<g id="a_Node000014"><a xlink:href="_o_m_sim__effective__area_8cc.html" target="_top" xlink:title="Main for the calculation of effective areas.">
<polygon fill="white" stroke="#666666" points="581.5,-19 441.5,-19 441.5,0 581.5,0 581.5,-19"/>
<text text-anchor="middle" x="511.5" y="-7" font-family="Helvetica,sans-Serif" font-size="10.00">OMSim_effective_area.cc</text>
</a>
</g>
</g>
<!-- Node11&#45;&gt;Node14 -->
<g id="edge14_Node000011_Node000014" class="edge">
<title>Node11&#45;&gt;Node14</title>
<g id="a_edge14_Node000011_Node000014"><a xlink:title=" ">
<path fill="none" stroke="#63b8ff" d="M611.23,-51.16C587.16,-41.35 554.1,-27.87 532.77,-19.17"/>
<polygon fill="#63b8ff" stroke="#63b8ff" points="610.03,-54.45 620.61,-54.98 612.67,-47.97 610.03,-54.45"/>
</a>
</g>
</g>
<!-- Node15&#45;&gt;Node14 -->
<g id="edge17_Node000015_Node000014" class="edge">
<title>Node15&#45;&gt;Node14</title>
<g id="a_edge17_Node000015_Node000014"><a xlink:title=" ">
<path fill="none" stroke="#63b8ff" d="M506.34,-44.66C507.66,-35.93 509.16,-25.99 510.2,-19.09"/>
<polygon fill="#63b8ff" stroke="#63b8ff" points="502.85,-44.34 504.82,-54.75 509.77,-45.38 502.85,-44.34"/>
</a>
</g>
</g>
<!-- Node17&#45;&gt;Node9 -->
<g id="edge20_Node000017_Node000009" class="edge">
<title>Node17&#45;&gt;Node9</title>
<g id="a_edge20_Node000017_Node000009"><a xlink:title=" ">
<path fill="none" stroke="#63b8ff" d="M774.5,-44.66C774.5,-35.93 774.5,-25.99 774.5,-19.09"/>
<polygon fill="#63b8ff" stroke="#63b8ff" points="771,-44.75 774.5,-54.75 778,-44.75 771,-44.75"/>
</a>
</g>
</g>
<!-- Node18&#45;&gt;Node13 -->
<g id="edge22_Node000018_Node000013" class="edge">
<title>Node18&#45;&gt;Node13</title>
<g id="a_edge22_Node000018_Node000013"><a xlink:title=" ">
<path fill="none" stroke="#63b8ff" d="M202.53,-49.97C220.44,-40.28 244.03,-27.52 259.47,-19.17"/>
<polygon fill="#63b8ff" stroke="#63b8ff" points="200.38,-47.15 193.25,-54.98 203.71,-53.31 200.38,-47.15"/>
</a>
</g>
</g>
</g>
</svg>
