<?xml version="1.0" encoding="UTF-8" standalone="no"?>
<!DOCTYPE svg PUBLIC "-//W3C//DTD SVG 1.1//EN"
 "http://www.w3.org/Graphics/SVG/1.1/DTD/svg11.dtd">
<!-- Generated by graphviz version 2.43.0 (0)
 -->
<!-- Title: OMSim.cc Pages: 1 -->
<svg width="2202pt" height="431pt"
 viewBox="0.00 0.00 2201.50 431.00" xmlns="http://www.w3.org/2000/svg" xmlns:xlink="http://www.w3.org/1999/xlink">
<g id="graph0" class="graph" transform="scale(1 1) rotate(0) translate(4 427)">
<title>OMSim.cc</title>
<polygon fill="white" stroke="transparent" points="-4,4 -4,-427 2197.5,-427 2197.5,4 -4,4"/>
<!-- Node1 -->
<g id="node1" class="node">
<title>Node1</title>
<g id="a_node1"><a xlink:title="Implementation of the OMSim class.">
<polygon fill="#bfbfbf" stroke="black" points="1059,-403.5 1059,-422.5 1124,-422.5 1124,-403.5 1059,-403.5"/>
<text text-anchor="middle" x="1091.5" y="-410.5" font-family="Helvetica,sans-Serif" font-size="10.00">OMSim.cc</text>
</a>
</g>
</g>
<!-- Node2 -->
<g id="node2" class="node">
<title>Node2</title>
<g id="a_node2"><a xlink:href="_o_m_sim_8hh.html" target="_top" xlink:title="Main simulation class for the Optical Module (OM) simulation. This file defines the OMSim class,...">
<polygon fill="white" stroke="black" points="1027,-347.5 1027,-366.5 1094,-366.5 1094,-347.5 1027,-347.5"/>
<text text-anchor="middle" x="1060.5" y="-354.5" font-family="Helvetica,sans-Serif" font-size="10.00">OMSim.hh</text>
</a>
</g>
</g>
<!-- Node1&#45;&gt;Node2 -->
<g id="edge1" class="edge">
<title>Node1&#45;&gt;Node2</title>
<path fill="none" stroke="midnightblue" d="M1086.38,-403.08C1082.09,-395.61 1075.84,-384.72 1070.56,-375.52"/>
<polygon fill="midnightblue" stroke="midnightblue" points="1073.54,-373.68 1065.52,-366.75 1067.47,-377.17 1073.54,-373.68"/>
</g>
<!-- Node48 -->
<g id="node48" class="node">
<title>Node48</title>
<g id="a_node48"><a xlink:title=" ">
<polygon fill="white" stroke="#bfbfbf" points="1718.5,-291.5 1718.5,-310.5 1868.5,-310.5 1868.5,-291.5 1718.5,-291.5"/>
<text text-anchor="middle" x="1793.5" y="-298.5" font-family="Helvetica,sans-Serif" font-size="10.00">boost/program_options.hpp</text>
</a>
</g>
</g>
<!-- Node1&#45;&gt;Node48 -->
<g id="edge53" class="edge">
<title>Node1&#45;&gt;Node48</title>
<path fill="none" stroke="midnightblue" d="M1124.42,-406.84C1233.35,-389.77 1583.46,-334.91 1729.05,-312.1"/>
<polygon fill="midnightblue" stroke="midnightblue" points="1729.84,-315.52 1739.18,-310.51 1728.75,-308.6 1729.84,-315.52"/>
</g>
<!-- Node3 -->
<g id="node3" class="node">
<title>Node3</title>
<g id="a_node3"><a xlink:href="_o_m_sim_detector_construction_8hh.html" target="_top" xlink:title=" ">
<polygon fill="white" stroke="black" points="1530.5,-291.5 1530.5,-310.5 1700.5,-310.5 1700.5,-291.5 1530.5,-291.5"/>
<text text-anchor="middle" x="1615.5" y="-298.5" font-family="Helvetica,sans-Serif" font-size="10.00">OMSimDetectorConstruction.hh</text>
</a>
</g>
</g>
<!-- Node2&#45;&gt;Node3 -->
<g id="edge2" class="edge">
<title>Node2&#45;&gt;Node3</title>
<path fill="none" stroke="midnightblue" d="M1094.38,-352.7C1177.56,-344.61 1394.22,-323.53 1520.44,-311.25"/>
<polygon fill="midnightblue" stroke="midnightblue" points="1520.88,-314.72 1530.49,-310.27 1520.2,-307.76 1520.88,-314.72"/>
</g>
<!-- Node27 -->
<g id="node27" class="node">
<title>Node27</title>
<g id="a_node27"><a xlink:title=" ">
<polygon fill="white" stroke="#bfbfbf" points="0,-291.5 0,-310.5 121,-310.5 121,-291.5 0,-291.5"/>
<text text-anchor="middle" x="60.5" y="-298.5" font-family="Helvetica,sans-Serif" font-size="10.00">OMSimPhysicsList.hh</text>
</a>
</g>
</g>
<!-- Node2&#45;&gt;Node27 -->
<g id="edge30" class="edge">
<title>Node2&#45;&gt;Node27</title>
<path fill="none" stroke="midnightblue" d="M1026.61,-355.36C906.14,-352.87 487.13,-342.41 131.04,-311.07"/>
<polygon fill="midnightblue" stroke="midnightblue" points="131.32,-307.58 121.05,-310.18 130.7,-314.55 131.32,-307.58"/>
</g>
<!-- Node28 -->
<g id="node28" class="node">
<title>Node28</title>
<g id="a_node28"><a xlink:title=" ">
<polygon fill="white" stroke="#bfbfbf" points="139,-291.5 139,-310.5 324,-310.5 324,-291.5 139,-291.5"/>
<text text-anchor="middle" x="231.5" y="-298.5" font-family="Helvetica,sans-Serif" font-size="10.00">OMSimPrimaryGeneratorAction.hh</text>
</a>
</g>
</g>
<!-- Node2&#45;&gt;Node28 -->
<g id="edge31" class="edge">
<title>Node2&#45;&gt;Node28</title>
<path fill="none" stroke="midnightblue" d="M1026.73,-354.24C924.28,-348.83 607.74,-331.6 334.35,-311.12"/>
<polygon fill="midnightblue" stroke="midnightblue" points="334.46,-307.62 324.23,-310.36 333.94,-314.6 334.46,-307.62"/>
</g>
<!-- Node29 -->
<g id="node29" class="node">
<title>Node29</title>
<g id="a_node29"><a xlink:href="_o_m_sim_run_action_8hh.html" target="_top" xlink:title=" ">
<polygon fill="white" stroke="black" points="341.5,-291.5 341.5,-310.5 457.5,-310.5 457.5,-291.5 341.5,-291.5"/>
<text text-anchor="middle" x="399.5" y="-298.5" font-family="Helvetica,sans-Serif" font-size="10.00">OMSimRunAction.hh</text>
</a>
</g>
</g>
<!-- Node2&#45;&gt;Node29 -->
<g id="edge32" class="edge">
<title>Node2&#45;&gt;Node29</title>
<path fill="none" stroke="midnightblue" d="M1026.95,-354.14C937.75,-349.05 687.15,-333.82 467.68,-311.07"/>
<polygon fill="midnightblue" stroke="midnightblue" points="467.89,-307.57 457.58,-310.01 467.16,-314.53 467.89,-307.57"/>
</g>
<!-- Node31 -->
<g id="node31" class="node">
<title>Node31</title>
<g id="a_node31"><a xlink:title=" ">
<polygon fill="white" stroke="#bfbfbf" points="476,-291.5 476,-310.5 601,-310.5 601,-291.5 476,-291.5"/>
<text text-anchor="middle" x="538.5" y="-298.5" font-family="Helvetica,sans-Serif" font-size="10.00">OMSimEventAction.hh</text>
</a>
</g>
</g>
<!-- Node2&#45;&gt;Node31 -->
<g id="edge34" class="edge">
<title>Node2&#45;&gt;Node31</title>
<path fill="none" stroke="midnightblue" d="M1026.88,-352.92C953.56,-346.15 773.54,-329.2 611.47,-311.08"/>
<polygon fill="midnightblue" stroke="midnightblue" points="611.65,-307.58 601.32,-309.94 610.87,-314.54 611.65,-307.58"/>
</g>
<!-- Node32 -->
<g id="node32" class="node">
<title>Node32</title>
<g id="a_node32"><a xlink:href="_o_m_sim_tracking_action_8hh.html" target="_top" xlink:title=" ">
<polygon fill="white" stroke="black" points="619.5,-291.5 619.5,-310.5 757.5,-310.5 757.5,-291.5 619.5,-291.5"/>
<text text-anchor="middle" x="688.5" y="-298.5" font-family="Helvetica,sans-Serif" font-size="10.00">OMSimTrackingAction.hh</text>
</a>
</g>
</g>
<!-- Node2&#45;&gt;Node32 -->
<g id="edge35" class="edge">
<title>Node2&#45;&gt;Node32</title>
<path fill="none" stroke="midnightblue" d="M1026.83,-351.11C966.12,-342.3 837.17,-323.58 757.17,-311.97"/>
<polygon fill="midnightblue" stroke="midnightblue" points="757.58,-308.49 747.18,-310.52 756.58,-315.42 757.58,-308.49"/>
</g>
<!-- Node34 -->
<g id="node34" class="node">
<title>Node34</title>
<g id="a_node34"><a xlink:href="_o_m_sim_stepping_action_8hh.html" target="_top" xlink:title="Defines OMSimSteppingAction.Currently it only checks for trapped photons.">
<polygon fill="white" stroke="black" points="775.5,-291.5 775.5,-310.5 915.5,-310.5 915.5,-291.5 775.5,-291.5"/>
<text text-anchor="middle" x="845.5" y="-298.5" font-family="Helvetica,sans-Serif" font-size="10.00">OMSimSteppingAction.hh</text>
</a>
</g>
</g>
<!-- Node2&#45;&gt;Node34 -->
<g id="edge37" class="edge">
<title>Node2&#45;&gt;Node34</title>
<path fill="none" stroke="midnightblue" d="M1026.91,-347.56C989.89,-338.26 930.21,-323.28 889.49,-313.05"/>
<polygon fill="midnightblue" stroke="midnightblue" points="890.12,-309.6 879.57,-310.56 888.41,-316.39 890.12,-309.6"/>
</g>
<!-- Node36 -->
<g id="node36" class="node">
<title>Node36</title>
<g id="a_node36"><a xlink:href="_o_m_sim_u_iinterface_8hh.html" target="_top" xlink:title="The OMSimUIinterface class provides a singleton interface to Geant4&#39;s UI manager.">
<polygon fill="white" stroke="black" points="934,-291.5 934,-310.5 1055,-310.5 1055,-291.5 934,-291.5"/>
<text text-anchor="middle" x="994.5" y="-298.5" font-family="Helvetica,sans-Serif" font-size="10.00">OMSimUIinterface.hh</text>
</a>
</g>
</g>
<!-- Node2&#45;&gt;Node36 -->
<g id="edge39" class="edge">
<title>Node2&#45;&gt;Node36</title>
<path fill="none" stroke="midnightblue" d="M1049.9,-347.32C1040.04,-339.26 1025.15,-327.08 1013.28,-317.37"/>
<polygon fill="midnightblue" stroke="midnightblue" points="1015.25,-314.46 1005.3,-310.83 1010.82,-319.88 1015.25,-314.46"/>
</g>
<!-- Node44 -->
<g id="node44" class="node">
<title>Node44</title>
<g id="a_node44"><a xlink:title=" ">
<polygon fill="white" stroke="#bfbfbf" points="1073.5,-291.5 1073.5,-310.5 1179.5,-310.5 1179.5,-291.5 1073.5,-291.5"/>
<text text-anchor="middle" x="1126.5" y="-298.5" font-family="Helvetica,sans-Serif" font-size="10.00">G4RunManager.hh</text>
</a>
</g>
</g>
<!-- Node2&#45;&gt;Node44 -->
<g id="edge48" class="edge">
<title>Node2&#45;&gt;Node44</title>
<path fill="none" stroke="midnightblue" d="M1071.1,-347.32C1080.96,-339.26 1095.85,-327.08 1107.72,-317.37"/>
<polygon fill="midnightblue" stroke="midnightblue" points="1110.18,-319.88 1115.7,-310.83 1105.75,-314.46 1110.18,-319.88"/>
</g>
<!-- Node45 -->
<g id="node45" class="node">
<title>Node45</title>
<g id="a_node45"><a xlink:title=" ">
<polygon fill="white" stroke="#bfbfbf" points="1198,-291.5 1198,-310.5 1305,-310.5 1305,-291.5 1198,-291.5"/>
<text text-anchor="middle" x="1251.5" y="-298.5" font-family="Helvetica,sans-Serif" font-size="10.00">G4VisExecutive.hh</text>
</a>
</g>
</g>
<!-- Node2&#45;&gt;Node45 -->
<g id="edge49" class="edge">
<title>Node2&#45;&gt;Node45</title>
<path fill="none" stroke="midnightblue" d="M1090.76,-347.44C1123.46,-338.2 1175.68,-323.44 1211.68,-313.26"/>
<polygon fill="midnightblue" stroke="midnightblue" points="1212.71,-316.61 1221.38,-310.52 1210.8,-309.87 1212.71,-316.61"/>
</g>
<!-- Node46 -->
<g id="node46" class="node">
<title>Node46</title>
<g id="a_node46"><a xlink:title=" ">
<polygon fill="white" stroke="#bfbfbf" points="1323,-291.5 1323,-310.5 1426,-310.5 1426,-291.5 1323,-291.5"/>
<text text-anchor="middle" x="1374.5" y="-298.5" font-family="Helvetica,sans-Serif" font-size="10.00">G4UIExecutive.hh</text>
</a>
</g>
</g>
<!-- Node2&#45;&gt;Node46 -->
<g id="edge50" class="edge">
<title>Node2&#45;&gt;Node46</title>
<path fill="none" stroke="midnightblue" d="M1094.1,-350.22C1146.74,-341.17 1249.37,-323.52 1314.79,-312.27"/>
<polygon fill="midnightblue" stroke="midnightblue" points="1315.69,-315.66 1324.96,-310.52 1314.51,-308.77 1315.69,-315.66"/>
</g>
<!-- Node47 -->
<g id="node47" class="node">
<title>Node47</title>
<g id="a_node47"><a xlink:title=" ">
<polygon fill="white" stroke="#bfbfbf" points="1444.5,-291.5 1444.5,-310.5 1512.5,-310.5 1512.5,-291.5 1444.5,-291.5"/>
<text text-anchor="middle" x="1478.5" y="-298.5" font-family="Helvetica,sans-Serif" font-size="10.00">filesystem</text>
</a>
</g>
</g>
<!-- Node2&#45;&gt;Node47 -->
<g id="edge51" class="edge">
<title>Node2&#45;&gt;Node47</title>
<path fill="none" stroke="midnightblue" d="M1094.15,-352.88C1159.83,-346.6 1309.58,-331.26 1434.5,-311 1434.6,-310.98 1434.7,-310.97 1434.8,-310.95"/>
<polygon fill="midnightblue" stroke="midnightblue" points="1435.2,-314.43 1444.44,-309.25 1433.99,-307.54 1435.2,-314.43"/>
</g>
<!-- Node2&#45;&gt;Node48 -->
<g id="edge52" class="edge">
<title>Node2&#45;&gt;Node48</title>
<path fill="none" stroke="midnightblue" d="M1094.32,-354.1C1189.27,-348.68 1466.64,-332.2 1708.38,-311.07"/>
<polygon fill="midnightblue" stroke="midnightblue" points="1708.75,-314.55 1718.41,-310.19 1708.14,-307.58 1708.75,-314.55"/>
</g>
<!-- Node4 -->
<g id="node4" class="node">
<title>Node4</title>
<g id="a_node4"><a xlink:href="_o_m_sim_optical_module_8hh.html" target="_top" xlink:title=" ">
<polygon fill="white" stroke="black" points="1547,-235.5 1547,-254.5 1684,-254.5 1684,-235.5 1547,-235.5"/>
<text text-anchor="middle" x="1615.5" y="-242.5" font-family="Helvetica,sans-Serif" font-size="10.00">OMSimOpticalModule.hh</text>
</a>
</g>
</g>
<!-- Node3&#45;&gt;Node4 -->
<g id="edge3" class="edge">
<title>Node3&#45;&gt;Node4</title>
<path fill="none" stroke="midnightblue" d="M1615.5,-291.08C1615.5,-284.01 1615.5,-273.86 1615.5,-264.99"/>
<polygon fill="midnightblue" stroke="midnightblue" points="1619,-264.75 1615.5,-254.75 1612,-264.75 1619,-264.75"/>
</g>
<!-- Node25 -->
<g id="node25" class="node">
<title>Node25</title>
<g id="a_node25"><a xlink:title=" ">
<polygon fill="white" stroke="#bfbfbf" points="1702.5,-235.5 1702.5,-254.5 1764.5,-254.5 1764.5,-235.5 1702.5,-235.5"/>
<text text-anchor="middle" x="1733.5" y="-242.5" font-family="Helvetica,sans-Serif" font-size="10.00">G4Orb.hh</text>
</a>
</g>
</g>
<!-- Node3&#45;&gt;Node25 -->
<g id="edge28" class="edge">
<title>Node3&#45;&gt;Node25</title>
<path fill="none" stroke="midnightblue" d="M1634.2,-291.44C1653.44,-282.64 1683.65,-268.81 1705.7,-258.72"/>
<polygon fill="midnightblue" stroke="midnightblue" points="1707.25,-261.86 1714.89,-254.52 1704.34,-255.5 1707.25,-261.86"/>
</g>
<!-- Node26 -->
<g id="node26" class="node">
<title>Node26</title>
<g id="a_node26"><a xlink:title=" ">
<polygon fill="white" stroke="#bfbfbf" points="1350.5,-235.5 1350.5,-254.5 1528.5,-254.5 1528.5,-235.5 1350.5,-235.5"/>
<text text-anchor="middle" x="1439.5" y="-242.5" font-family="Helvetica,sans-Serif" font-size="10.00">G4VUserDetectorConstruction.hh</text>
</a>
</g>
</g>
<!-- Node3&#45;&gt;Node26 -->
<g id="edge29" class="edge">
<title>Node3&#45;&gt;Node26</title>
<path fill="none" stroke="midnightblue" d="M1587.61,-291.44C1557.75,-282.28 1510.19,-267.69 1477.04,-257.52"/>
<polygon fill="midnightblue" stroke="midnightblue" points="1477.84,-254.1 1467.26,-254.52 1475.79,-260.8 1477.84,-254.1"/>
</g>
<!-- Node5 -->
<g id="node5" class="node">
<title>Node5</title>
<g id="a_node5"><a xlink:href="abc_detector_component_8hh.html" target="_top" xlink:title="Provides helper base class abcDetectorComponent for constructing and managing detector components in ...">
<polygon fill="white" stroke="black" points="1696,-123.5 1696,-142.5 1843,-142.5 1843,-123.5 1696,-123.5"/>
<text text-anchor="middle" x="1769.5" y="-130.5" font-family="Helvetica,sans-Serif" font-size="10.00">abcDetectorComponent.hh</text>
</a>
</g>
</g>
<!-- Node4&#45;&gt;Node5 -->
<g id="edge4" class="edge">
<title>Node4&#45;&gt;Node5</title>
<path fill="none" stroke="midnightblue" d="M1643.53,-235.49C1664.92,-228.1 1694.39,-215.91 1716.5,-199 1733.96,-185.65 1749.25,-165.44 1758.87,-151.11"/>
<polygon fill="midnightblue" stroke="midnightblue" points="1761.84,-152.97 1764.33,-142.67 1755.96,-149.16 1761.84,-152.97"/>
</g>
<!-- Node14 -->
<g id="node14" class="node">
<title>Node14</title>
<g id="a_node14"><a xlink:href="_o_m_sim_hit_manager_8hh.html" target="_top" xlink:title="Defines structures and classes related to optical module photon hit management.">
<polygon fill="white" stroke="black" points="1347,-179.5 1347,-198.5 1470,-198.5 1470,-179.5 1347,-179.5"/>
<text text-anchor="middle" x="1408.5" y="-186.5" font-family="Helvetica,sans-Serif" font-size="10.00">OMSimHitManager.hh</text>
</a>
</g>
</g>
<!-- Node4&#45;&gt;Node14 -->
<g id="edge13" class="edge">
<title>Node4&#45;&gt;Node14</title>
<path fill="none" stroke="midnightblue" d="M1582.7,-235.44C1547.12,-226.16 1490.19,-211.31 1451.15,-201.13"/>
<polygon fill="midnightblue" stroke="midnightblue" points="1451.71,-197.65 1441.15,-198.52 1449.94,-204.43 1451.71,-197.65"/>
</g>
<!-- Node22 -->
<g id="node22" class="node">
<title>Node22</title>
<g id="a_node22"><a xlink:href="_o_m_sim_p_m_t_construction_8hh.html" target="_top" xlink:title="Construction of the PMTs.">
<polygon fill="white" stroke="black" points="1541,-179.5 1541,-198.5 1690,-198.5 1690,-179.5 1541,-179.5"/>
<text text-anchor="middle" x="1615.5" y="-186.5" font-family="Helvetica,sans-Serif" font-size="10.00">OMSimPMTConstruction.hh</text>
</a>
</g>
</g>
<!-- Node4&#45;&gt;Node22 -->
<g id="edge22" class="edge">
<title>Node4&#45;&gt;Node22</title>
<path fill="none" stroke="midnightblue" d="M1615.5,-235.08C1615.5,-228.01 1615.5,-217.86 1615.5,-208.99"/>
<polygon fill="midnightblue" stroke="midnightblue" points="1619,-208.75 1615.5,-198.75 1612,-208.75 1619,-208.75"/>
</g>
<!-- Node6 -->
<g id="node6" class="node">
<title>Node6</title>
<g id="a_node6"><a xlink:href="_o_m_sim_input_data_8hh.html" target="_top" xlink:title="Definition of ParameterTable and InputDataManager.">
<polygon fill="white" stroke="black" points="1555,-67.5 1555,-86.5 1670,-86.5 1670,-67.5 1555,-67.5"/>
<text text-anchor="middle" x="1612.5" y="-74.5" font-family="Helvetica,sans-Serif" font-size="10.00">OMSimInputData.hh</text>
</a>
</g>
</g>
<!-- Node5&#45;&gt;Node6 -->
<g id="edge5" class="edge">
<title>Node5&#45;&gt;Node6</title>
<path fill="none" stroke="midnightblue" d="M1744.62,-123.44C1718.21,-114.36 1676.28,-99.94 1646.76,-89.78"/>
<polygon fill="midnightblue" stroke="midnightblue" points="1647.86,-86.46 1637.26,-86.52 1645.58,-93.08 1647.86,-86.46"/>
</g>
<!-- Node10 -->
<g id="node10" class="node">
<title>Node10</title>
<g id="a_node10"><a xlink:title=" ">
<polygon fill="white" stroke="#bfbfbf" points="1688,-67.5 1688,-86.5 1795,-86.5 1795,-67.5 1688,-67.5"/>
<text text-anchor="middle" x="1741.5" y="-74.5" font-family="Helvetica,sans-Serif" font-size="10.00">G4Transform3D.hh</text>
</a>
</g>
</g>
<!-- Node5&#45;&gt;Node10 -->
<g id="edge9" class="edge">
<title>Node5&#45;&gt;Node10</title>
<path fill="none" stroke="midnightblue" d="M1764.88,-123.08C1761.04,-115.69 1755.48,-104.95 1750.74,-95.81"/>
<polygon fill="midnightblue" stroke="midnightblue" points="1753.75,-94.02 1746.04,-86.75 1747.53,-97.24 1753.75,-94.02"/>
</g>
<!-- Node11 -->
<g id="node11" class="node">
<title>Node11</title>
<g id="a_node11"><a xlink:title=" ">
<polygon fill="white" stroke="#bfbfbf" points="1813.5,-67.5 1813.5,-86.5 1921.5,-86.5 1921.5,-67.5 1813.5,-67.5"/>
<text text-anchor="middle" x="1867.5" y="-74.5" font-family="Helvetica,sans-Serif" font-size="10.00">G4VisAttributes.hh</text>
</a>
</g>
</g>
<!-- Node5&#45;&gt;Node11 -->
<g id="edge10" class="edge">
<title>Node5&#45;&gt;Node11</title>
<path fill="none" stroke="midnightblue" d="M1785.25,-123.32C1800.82,-114.74 1824.88,-101.49 1842.96,-91.52"/>
<polygon fill="midnightblue" stroke="midnightblue" points="1844.72,-94.55 1851.79,-86.65 1841.35,-88.42 1844.72,-94.55"/>
</g>
<!-- Node12 -->
<g id="node12" class="node">
<title>Node12</title>
<g id="a_node12"><a xlink:title=" ">
<polygon fill="white" stroke="#bfbfbf" points="1940,-67.5 1940,-86.5 2065,-86.5 2065,-67.5 1940,-67.5"/>
<text text-anchor="middle" x="2002.5" y="-74.5" font-family="Helvetica,sans-Serif" font-size="10.00">G4SubtractionSolid.hh</text>
</a>
</g>
</g>
<!-- Node5&#45;&gt;Node12 -->
<g id="edge11" class="edge">
<title>Node5&#45;&gt;Node12</title>
<path fill="none" stroke="midnightblue" d="M1806.42,-123.44C1846.9,-114.06 1911.92,-98.99 1955.88,-88.8"/>
<polygon fill="midnightblue" stroke="midnightblue" points="1956.8,-92.18 1965.75,-86.52 1955.22,-85.36 1956.8,-92.18"/>
</g>
<!-- Node13 -->
<g id="node13" class="node">
<title>Node13</title>
<g id="a_node13"><a xlink:title=" ">
<polygon fill="white" stroke="#bfbfbf" points="2083.5,-67.5 2083.5,-86.5 2193.5,-86.5 2193.5,-67.5 2083.5,-67.5"/>
<text text-anchor="middle" x="2138.5" y="-74.5" font-family="Helvetica,sans-Serif" font-size="10.00">G4PVPlacement.hh</text>
</a>
</g>
</g>
<!-- Node5&#45;&gt;Node13 -->
<g id="edge12" class="edge">
<title>Node5&#45;&gt;Node13</title>
<path fill="none" stroke="midnightblue" d="M1827.97,-123.44C1894.79,-113.66 2003.87,-97.7 2073.36,-87.53"/>
<polygon fill="midnightblue" stroke="midnightblue" points="2073.93,-90.99 2083.32,-86.08 2072.92,-84.06 2073.93,-90.99"/>
</g>
<!-- Node7 -->
<g id="node7" class="node">
<title>Node7</title>
<g id="a_node7"><a xlink:title=" ">
<polygon fill="white" stroke="#bfbfbf" points="1614,-6 1614,-25 1757,-25 1757,-6 1614,-6"/>
<text text-anchor="middle" x="1685.5" y="-13" font-family="Helvetica,sans-Serif" font-size="10.00">G4OpBoundaryProcess.hh</text>
</a>
</g>
</g>
<!-- Node6&#45;&gt;Node7 -->
<g id="edge6" class="edge">
<title>Node6&#45;&gt;Node7</title>
<path fill="none" stroke="midnightblue" d="M1622.96,-67.48C1634.45,-58.11 1653.13,-42.88 1667.09,-31.51"/>
<polygon fill="midnightblue" stroke="midnightblue" points="1669.52,-34.04 1675.06,-25.01 1665.1,-28.61 1669.52,-34.04"/>
</g>
<!-- Node8 -->
<g id="node8" class="node">
<title>Node8</title>
<g id="a_node8"><a xlink:title=" ">
<polygon fill="white" stroke="#bfbfbf" points="1294,-6 1294,-25 1413,-25 1413,-6 1294,-6"/>
<text text-anchor="middle" x="1353.5" y="-13" font-family="Helvetica,sans-Serif" font-size="10.00">G4SystemOfUnits.hh</text>
</a>
</g>
</g>
<!-- Node6&#45;&gt;Node8 -->
<g id="edge7" class="edge">
<title>Node6&#45;&gt;Node8</title>
<path fill="none" stroke="midnightblue" d="M1575.39,-67.48C1529.33,-56.89 1450.73,-38.84 1400.5,-27.3"/>
<polygon fill="midnightblue" stroke="midnightblue" points="1401.07,-23.84 1390.54,-25.01 1399.5,-30.66 1401.07,-23.84"/>
</g>
<!-- Node9 -->
<g id="node9" class="node">
<title>Node9</title>
<g id="a_node9"><a xlink:title=" ">
<polygon fill="white" stroke="#bfbfbf" points="1483,-0.5 1483,-30.5 1596,-30.5 1596,-0.5 1483,-0.5"/>
<text text-anchor="start" x="1491" y="-18.5" font-family="Helvetica,sans-Serif" font-size="10.00">boost/property_tree</text>
<text text-anchor="middle" x="1539.5" y="-7.5" font-family="Helvetica,sans-Serif" font-size="10.00">/json_parser.hpp</text>
</a>
</g>
</g>
<!-- Node6&#45;&gt;Node9 -->
<g id="edge8" class="edge">
<title>Node6&#45;&gt;Node9</title>
<path fill="none" stroke="midnightblue" d="M1602.04,-67.48C1592.34,-59.57 1577.51,-47.48 1564.73,-37.07"/>
<polygon fill="midnightblue" stroke="midnightblue" points="1566.67,-34.13 1556.7,-30.52 1562.24,-39.55 1566.67,-34.13"/>
</g>
<!-- Node15 -->
<g id="node15" class="node">
<title>Node15</title>
<g id="a_node15"><a xlink:href="_o_m_sim_p_m_t_response_8hh.html" target="_top" xlink:title="Provides simulation for PMT response. This class is responsible for transforming hits on photocathode...">
<polygon fill="white" stroke="black" points="1341,-123.5 1341,-142.5 1476,-142.5 1476,-123.5 1341,-123.5"/>
<text text-anchor="middle" x="1408.5" y="-130.5" font-family="Helvetica,sans-Serif" font-size="10.00">OMSimPMTResponse.hh</text>
</a>
</g>
</g>
<!-- Node14&#45;&gt;Node15 -->
<g id="edge14" class="edge">
<title>Node14&#45;&gt;Node15</title>
<path fill="none" stroke="midnightblue" d="M1408.5,-179.08C1408.5,-172.01 1408.5,-161.86 1408.5,-152.99"/>
<polygon fill="midnightblue" stroke="midnightblue" points="1412,-152.75 1408.5,-142.75 1405,-152.75 1412,-152.75"/>
</g>
<!-- Node20 -->
<g id="node20" class="node">
<title>Node20</title>
<g id="a_node20"><a xlink:title=" ">
<polygon fill="white" stroke="#bfbfbf" points="1220,-123.5 1220,-142.5 1323,-142.5 1323,-123.5 1220,-123.5"/>
<text text-anchor="middle" x="1271.5" y="-130.5" font-family="Helvetica,sans-Serif" font-size="10.00">G4ThreeVector.hh</text>
</a>
</g>
</g>
<!-- Node14&#45;&gt;Node20 -->
<g id="edge20" class="edge">
<title>Node14&#45;&gt;Node20</title>
<path fill="none" stroke="midnightblue" d="M1386.79,-179.44C1364.15,-170.52 1328.43,-156.44 1302.75,-146.32"/>
<polygon fill="midnightblue" stroke="midnightblue" points="1303.69,-142.93 1293.11,-142.52 1301.13,-149.44 1303.69,-142.93"/>
</g>
<!-- Node21 -->
<g id="node21" class="node">
<title>Node21</title>
<g id="a_node21"><a xlink:title=" ">
<polygon fill="white" stroke="#bfbfbf" points="1134,-123.5 1134,-142.5 1189,-142.5 1189,-123.5 1134,-123.5"/>
<text text-anchor="middle" x="1161.5" y="-130.5" font-family="Helvetica,sans-Serif" font-size="10.00">fstream</text>
</a>
</g>
</g>
<!-- Node14&#45;&gt;Node21 -->
<g id="edge21" class="edge">
<title>Node14&#45;&gt;Node21</title>
<path fill="none" stroke="midnightblue" d="M1369.36,-179.44C1322.7,-169.24 1245.25,-152.31 1199.22,-142.25"/>
<polygon fill="midnightblue" stroke="midnightblue" points="1199.86,-138.8 1189.34,-140.09 1198.36,-145.64 1199.86,-138.8"/>
</g>
<!-- Node15&#45;&gt;Node8 -->
<g id="edge15" class="edge">
<title>Node15&#45;&gt;Node8</title>
<path fill="none" stroke="midnightblue" d="M1351.54,-123.49C1310.53,-116.06 1260.26,-103.82 1247.5,-87 1226.77,-59.69 1270.1,-39.59 1307.45,-27.99"/>
<polygon fill="midnightblue" stroke="midnightblue" points="1308.67,-31.28 1317.27,-25.08 1306.69,-24.56 1308.67,-31.28"/>
</g>
<!-- Node16 -->
<g id="node16" class="node">
<title>Node16</title>
<g id="a_node16"><a xlink:title=" ">
<polygon fill="white" stroke="#bfbfbf" points="1257,-67.5 1257,-86.5 1330,-86.5 1330,-67.5 1257,-67.5"/>
<text text-anchor="middle" x="1293.5" y="-74.5" font-family="Helvetica,sans-Serif" font-size="10.00">G4Types.hh</text>
</a>
</g>
</g>
<!-- Node15&#45;&gt;Node16 -->
<g id="edge16" class="edge">
<title>Node15&#45;&gt;Node16</title>
<path fill="none" stroke="midnightblue" d="M1390.28,-123.44C1371.6,-114.68 1342.34,-100.94 1320.88,-90.86"/>
<polygon fill="midnightblue" stroke="midnightblue" points="1322.18,-87.6 1311.64,-86.52 1319.2,-93.93 1322.18,-87.6"/>
</g>
<!-- Node17 -->
<g id="node17" class="node">
<title>Node17</title>
<g id="a_node17"><a xlink:title=" ">
<polygon fill="white" stroke="#bfbfbf" points="1348.5,-67.5 1348.5,-86.5 1386.5,-86.5 1386.5,-67.5 1348.5,-67.5"/>
<text text-anchor="middle" x="1367.5" y="-74.5" font-family="Helvetica,sans-Serif" font-size="10.00">map</text>
</a>
</g>
</g>
<!-- Node15&#45;&gt;Node17 -->
<g id="edge17" class="edge">
<title>Node15&#45;&gt;Node17</title>
<path fill="none" stroke="midnightblue" d="M1401.73,-123.08C1395.94,-115.46 1387.44,-104.26 1380.36,-94.94"/>
<polygon fill="midnightblue" stroke="midnightblue" points="1382.98,-92.6 1374.14,-86.75 1377.4,-96.83 1382.98,-92.6"/>
</g>
<!-- Node18 -->
<g id="node18" class="node">
<title>Node18</title>
<g id="a_node18"><a xlink:title=" ">
<polygon fill="white" stroke="#bfbfbf" points="1405,-67.5 1405,-86.5 1466,-86.5 1466,-67.5 1405,-67.5"/>
<text text-anchor="middle" x="1435.5" y="-74.5" font-family="Helvetica,sans-Serif" font-size="10.00">TGraph.h</text>
</a>
</g>
</g>
<!-- Node15&#45;&gt;Node18 -->
<g id="edge18" class="edge">
<title>Node15&#45;&gt;Node18</title>
<path fill="none" stroke="midnightblue" d="M1412.96,-123.08C1416.65,-115.69 1422.02,-104.95 1426.59,-95.81"/>
<polygon fill="midnightblue" stroke="midnightblue" points="1429.78,-97.26 1431.12,-86.75 1423.52,-94.13 1429.78,-97.26"/>
</g>
<!-- Node19 -->
<g id="node19" class="node">
<title>Node19</title>
<g id="a_node19"><a xlink:title=" ">
<polygon fill="white" stroke="#bfbfbf" points="1484,-67.5 1484,-86.5 1537,-86.5 1537,-67.5 1484,-67.5"/>
<text text-anchor="middle" x="1510.5" y="-74.5" font-family="Helvetica,sans-Serif" font-size="10.00">TH2D.h</text>
</a>
</g>
</g>
<!-- Node15&#45;&gt;Node19 -->
<g id="edge19" class="edge">
<title>Node15&#45;&gt;Node19</title>
<path fill="none" stroke="midnightblue" d="M1424.89,-123.32C1441.17,-114.7 1466.37,-101.36 1485.22,-91.39"/>
<polygon fill="midnightblue" stroke="midnightblue" points="1486.95,-94.43 1494.15,-86.65 1483.68,-88.24 1486.95,-94.43"/>
</g>
<!-- Node22&#45;&gt;Node5 -->
<g id="edge23" class="edge">
<title>Node22&#45;&gt;Node5</title>
<path fill="none" stroke="midnightblue" d="M1639.9,-179.44C1665.7,-170.4 1706.58,-156.06 1735.52,-145.92"/>
<polygon fill="midnightblue" stroke="midnightblue" points="1736.93,-149.13 1745.21,-142.52 1734.62,-142.52 1736.93,-149.13"/>
</g>
<!-- Node22&#45;&gt;Node15 -->
<g id="edge25" class="edge">
<title>Node22&#45;&gt;Node15</title>
<path fill="none" stroke="midnightblue" d="M1582.7,-179.44C1547.12,-170.16 1490.19,-155.31 1451.15,-145.13"/>
<polygon fill="midnightblue" stroke="midnightblue" points="1451.71,-141.65 1441.15,-142.52 1449.94,-148.43 1451.71,-141.65"/>
</g>
<!-- Node22&#45;&gt;Node22 -->
<g id="edge24" class="edge">
<title>Node22&#45;&gt;Node22</title>
<path fill="none" stroke="midnightblue" d="M1654.95,-198.53C1681.76,-201.31 1708,-198.13 1708,-189 1708,-181.01 1687.91,-177.58 1664.93,-178.71"/>
<polygon fill="midnightblue" stroke="midnightblue" points="1664.65,-175.22 1654.95,-179.47 1665.19,-182.2 1664.65,-175.22"/>
</g>
<!-- Node23 -->
<g id="node23" class="node">
<title>Node23</title>
<g id="a_node23"><a xlink:title=" ">
<polygon fill="white" stroke="#bfbfbf" points="1579.5,-123.5 1579.5,-142.5 1677.5,-142.5 1677.5,-123.5 1579.5,-123.5"/>
<text text-anchor="middle" x="1628.5" y="-130.5" font-family="Helvetica,sans-Serif" font-size="10.00">G4UnionSolid.hh</text>
</a>
</g>
</g>
<!-- Node22&#45;&gt;Node23 -->
<g id="edge26" class="edge">
<title>Node22&#45;&gt;Node23</title>
<path fill="none" stroke="midnightblue" d="M1617.65,-179.08C1619.37,-171.93 1621.85,-161.64 1624,-152.69"/>
<polygon fill="midnightblue" stroke="midnightblue" points="1627.46,-153.29 1626.39,-142.75 1620.65,-151.65 1627.46,-153.29"/>
</g>
<!-- Node24 -->
<g id="node24" class="node">
<title>Node24</title>
<g id="a_node24"><a xlink:title=" ">
<polygon fill="white" stroke="#bfbfbf" points="1494,-123.5 1494,-142.5 1561,-142.5 1561,-123.5 1494,-123.5"/>
<text text-anchor="middle" x="1527.5" y="-130.5" font-family="Helvetica,sans-Serif" font-size="10.00">G4Tubs.hh</text>
</a>
</g>
</g>
<!-- Node22&#45;&gt;Node24 -->
<g id="edge27" class="edge">
<title>Node22&#45;&gt;Node24</title>
<path fill="none" stroke="midnightblue" d="M1601.36,-179.32C1587.63,-170.9 1566.56,-157.97 1550.44,-148.07"/>
<polygon fill="midnightblue" stroke="midnightblue" points="1551.96,-144.9 1541.6,-142.65 1548.3,-150.87 1551.96,-144.9"/>
</g>
<!-- Node30 -->
<g id="node30" class="node">
<title>Node30</title>
<g id="a_node30"><a xlink:title=" ">
<polygon fill="white" stroke="#bfbfbf" points="341,-235.5 341,-254.5 458,-254.5 458,-235.5 341,-235.5"/>
<text text-anchor="middle" x="399.5" y="-242.5" font-family="Helvetica,sans-Serif" font-size="10.00">G4UserRunAction.hh</text>
</a>
</g>
</g>
<!-- Node29&#45;&gt;Node30 -->
<g id="edge33" class="edge">
<title>Node29&#45;&gt;Node30</title>
<path fill="none" stroke="midnightblue" d="M399.5,-291.08C399.5,-284.01 399.5,-273.86 399.5,-264.99"/>
<polygon fill="midnightblue" stroke="midnightblue" points="403,-264.75 399.5,-254.75 396,-264.75 403,-264.75"/>
</g>
<!-- Node33 -->
<g id="node33" class="node">
<title>Node33</title>
<g id="a_node33"><a xlink:title=" ">
<polygon fill="white" stroke="#bfbfbf" points="618,-235.5 618,-254.5 757,-254.5 757,-235.5 618,-235.5"/>
<text text-anchor="middle" x="687.5" y="-242.5" font-family="Helvetica,sans-Serif" font-size="10.00">G4UserTrackingAction.hh</text>
</a>
</g>
</g>
<!-- Node32&#45;&gt;Node33 -->
<g id="edge36" class="edge">
<title>Node32&#45;&gt;Node33</title>
<path fill="none" stroke="midnightblue" d="M688.33,-291.08C688.2,-284.01 688.02,-273.86 687.85,-264.99"/>
<polygon fill="midnightblue" stroke="midnightblue" points="691.35,-264.68 687.66,-254.75 684.35,-264.81 691.35,-264.68"/>
</g>
<!-- Node35 -->
<g id="node35" class="node">
<title>Node35</title>
<g id="a_node35"><a xlink:title=" ">
<polygon fill="white" stroke="#bfbfbf" points="775,-235.5 775,-254.5 916,-254.5 916,-235.5 775,-235.5"/>
<text text-anchor="middle" x="845.5" y="-242.5" font-family="Helvetica,sans-Serif" font-size="10.00">G4UserSteppingAction.hh</text>
</a>
</g>
</g>
<!-- Node34&#45;&gt;Node35 -->
<g id="edge38" class="edge">
<title>Node34&#45;&gt;Node35</title>
<path fill="none" stroke="midnightblue" d="M845.5,-291.08C845.5,-284.01 845.5,-273.86 845.5,-264.99"/>
<polygon fill="midnightblue" stroke="midnightblue" points="849,-264.75 845.5,-254.75 842,-264.75 849,-264.75"/>
</g>
<!-- Node37 -->
<g id="node37" class="node">
<title>Node37</title>
<g id="a_node37"><a xlink:href="_o_m_sim_command_args_table_8hh.html" target="_top" xlink:title="Definition of the OMSimCommandArgsTable singleton class, which controls user args.">
<polygon fill="white" stroke="black" points="1056.5,-235.5 1056.5,-254.5 1220.5,-254.5 1220.5,-235.5 1056.5,-235.5"/>
<text text-anchor="middle" x="1138.5" y="-242.5" font-family="Helvetica,sans-Serif" font-size="10.00">OMSimCommandArgsTable.hh</text>
</a>
</g>
</g>
<!-- Node36&#45;&gt;Node37 -->
<g id="edge40" class="edge">
<title>Node36&#45;&gt;Node37</title>
<path fill="none" stroke="midnightblue" d="M1017.32,-291.44C1041.33,-282.44 1079.33,-268.19 1106.37,-258.05"/>
<polygon fill="midnightblue" stroke="midnightblue" points="1107.66,-261.3 1115.79,-254.52 1105.2,-254.75 1107.66,-261.3"/>
</g>
<!-- Node43 -->
<g id="node43" class="node">
<title>Node43</title>
<g id="a_node43"><a xlink:title=" ">
<polygon fill="white" stroke="#bfbfbf" points="940.5,-235.5 940.5,-254.5 1038.5,-254.5 1038.5,-235.5 940.5,-235.5"/>
<text text-anchor="middle" x="989.5" y="-242.5" font-family="Helvetica,sans-Serif" font-size="10.00">G4UImanager.hh</text>
</a>
</g>
</g>
<!-- Node36&#45;&gt;Node43 -->
<g id="edge47" class="edge">
<title>Node36&#45;&gt;Node43</title>
<path fill="none" stroke="midnightblue" d="M993.67,-291.08C993.02,-284.01 992.08,-273.86 991.26,-264.99"/>
<polygon fill="midnightblue" stroke="midnightblue" points="994.72,-264.39 990.31,-254.75 987.75,-265.03 994.72,-264.39"/>
</g>
<!-- Node37&#45;&gt;Node21 -->
<g id="edge44" class="edge">
<title>Node37&#45;&gt;Node21</title>
<path fill="none" stroke="midnightblue" d="M1139.74,-235.12C1141.54,-222.56 1145.17,-198.91 1149.5,-179 1151.41,-170.2 1153.93,-160.54 1156.17,-152.43"/>
<polygon fill="midnightblue" stroke="midnightblue" points="1159.61,-153.14 1158.96,-142.57 1152.87,-151.24 1159.61,-153.14"/>
</g>
<!-- Node38 -->
<g id="node38" class="node">
<title>Node38</title>
<g id="a_node38"><a xlink:href="_o_m_sim_logger_8hh.html" target="_top" xlink:title=" ">
<polygon fill="white" stroke="black" points="1003,-179.5 1003,-198.5 1102,-198.5 1102,-179.5 1003,-179.5"/>
<text text-anchor="middle" x="1052.5" y="-186.5" font-family="Helvetica,sans-Serif" font-size="10.00">OMSimLogger.hh</text>
</a>
</g>
</g>
<!-- Node37&#45;&gt;Node38 -->
<g id="edge41" class="edge">
<title>Node37&#45;&gt;Node38</title>
<path fill="none" stroke="midnightblue" d="M1124.68,-235.32C1111.27,-226.9 1090.68,-213.97 1074.91,-204.07"/>
<polygon fill="midnightblue" stroke="midnightblue" points="1076.61,-201.01 1066.28,-198.65 1072.89,-206.94 1076.61,-201.01"/>
</g>
<!-- Node41 -->
<g id="node41" class="node">
<title>Node41</title>
<g id="a_node41"><a xlink:title=" ">
<polygon fill="white" stroke="#bfbfbf" points="1158.5,-179.5 1158.5,-198.5 1242.5,-198.5 1242.5,-179.5 1158.5,-179.5"/>
<text text-anchor="middle" x="1200.5" y="-186.5" font-family="Helvetica,sans-Serif" font-size="10.00">boost/any.hpp</text>
</a>
</g>
</g>
<!-- Node37&#45;&gt;Node41 -->
<g id="edge45" class="edge">
<title>Node37&#45;&gt;Node41</title>
<path fill="none" stroke="midnightblue" d="M1148.46,-235.32C1157.63,-227.34 1171.44,-215.31 1182.53,-205.65"/>
<polygon fill="midnightblue" stroke="midnightblue" points="1185.12,-208.04 1190.36,-198.83 1180.52,-202.76 1185.12,-208.04"/>
</g>
<!-- Node42 -->
<g id="node42" class="node">
<title>Node42</title>
<g id="a_node42"><a xlink:title=" ">
<polygon fill="white" stroke="#bfbfbf" points="1260.5,-179.5 1260.5,-198.5 1328.5,-198.5 1328.5,-179.5 1260.5,-179.5"/>
<text text-anchor="middle" x="1294.5" y="-186.5" font-family="Helvetica,sans-Serif" font-size="10.00">sys/time.h</text>
</a>
</g>
</g>
<!-- Node37&#45;&gt;Node42 -->
<g id="edge46" class="edge">
<title>Node37&#45;&gt;Node42</title>
<path fill="none" stroke="midnightblue" d="M1163.22,-235.44C1189.35,-226.4 1230.76,-212.06 1260.08,-201.92"/>
<polygon fill="midnightblue" stroke="midnightblue" points="1261.59,-205.1 1269.9,-198.52 1259.3,-198.48 1261.59,-205.1"/>
</g>
<!-- Node39 -->
<g id="node39" class="node">
<title>Node39</title>
<g id="a_node39"><a xlink:title=" ">
<polygon fill="white" stroke="#bfbfbf" points="973.5,-123.5 973.5,-142.5 1023.5,-142.5 1023.5,-123.5 973.5,-123.5"/>
<text text-anchor="middle" x="998.5" y="-130.5" font-family="Helvetica,sans-Serif" font-size="10.00">stdio.h</text>
</a>
</g>
</g>
<!-- Node38&#45;&gt;Node39 -->
<g id="edge42" class="edge">
<title>Node38&#45;&gt;Node39</title>
<path fill="none" stroke="midnightblue" d="M1043.58,-179.08C1035.72,-171.22 1024.07,-159.57 1014.58,-150.08"/>
<polygon fill="midnightblue" stroke="midnightblue" points="1016.8,-147.35 1007.25,-142.75 1011.85,-152.3 1016.8,-147.35"/>
</g>
<!-- Node40 -->
<g id="node40" class="node">
<title>Node40</title>
<g id="a_node40"><a xlink:title=" ">
<polygon fill="white" stroke="#bfbfbf" points="1041.5,-123.5 1041.5,-142.5 1089.5,-142.5 1089.5,-123.5 1041.5,-123.5"/>
<text text-anchor="middle" x="1065.5" y="-130.5" font-family="Helvetica,sans-Serif" font-size="10.00">time.h</text>
</a>
</g>
</g>
<!-- Node38&#45;&gt;Node40 -->
<g id="edge43" class="edge">
<title>Node38&#45;&gt;Node40</title>
<path fill="none" stroke="midnightblue" d="M1054.65,-179.08C1056.37,-171.93 1058.85,-161.64 1061,-152.69"/>
<polygon fill="midnightblue" stroke="midnightblue" points="1064.46,-153.29 1063.39,-142.75 1057.65,-151.65 1064.46,-153.29"/>
</g>
</g>
</svg>
