<?xml version="1.0" encoding="UTF-8" standalone="no"?>
<!DOCTYPE svg PUBLIC "-//W3C//DTD SVG 1.1//EN"
 "http://www.w3.org/Graphics/SVG/1.1/DTD/svg11.dtd">
<!-- Generated by graphviz version 2.43.0 (0)
 -->
<!-- Title: OMSimG4RadioactiveDecay.hh Pages: 1 -->
<svg width="1370pt" height="84pt"
 viewBox="0.00 0.00 1370.00 84.00" xmlns="http://www.w3.org/2000/svg" xmlns:xlink="http://www.w3.org/1999/xlink">
<g id="graph0" class="graph" transform="scale(1 1) rotate(0) translate(4 80)">
<title>OMSimG4RadioactiveDecay.hh</title>
<!-- Node1 -->
<g id="node1" class="node">
<title>Node1</title>
<g id="a_node1"><a xlink:title="Modified version of the original Geant4 RadioactiveDecay class to define custom decay time.">
<polygon fill="#bfbfbf" stroke="black" points="457,-56.5 457,-75.5 624,-75.5 624,-56.5 457,-56.5"/>
<text text-anchor="middle" x="540.5" y="-63.5" font-family="Helvetica,sans-Serif" font-size="10.00">OMSimG4RadioactiveDecay.hh</text>
</a>
</g>
</g>
<!-- Node2 -->
<g id="node2" class="node">
<title>Node2</title>
<g id="a_node2"><a xlink:title=" ">
<polygon fill="none" stroke="#bfbfbf" points="0,-0.5 0,-19.5 47,-19.5 47,-0.5 0,-0.5"/>
<text text-anchor="middle" x="23.5" y="-7.5" font-family="Helvetica,sans-Serif" font-size="10.00">vector</text>
</a>
</g>
</g>
<!-- Node1&#45;&gt;Node2 -->
<g id="edge1" class="edge">
<title>Node1&#45;&gt;Node2</title>
<path fill="none" stroke="midnightblue" d="M456.83,-61.63C362.04,-56.82 202.93,-45.75 57.2,-19.8"/>
<polygon fill="midnightblue" stroke="midnightblue" points="57.64,-16.32 47.18,-17.99 56.4,-23.21 57.64,-16.32"/>
</g>
<!-- Node3 -->
<g id="node3" class="node">
<title>Node3</title>
<g id="a_node3"><a xlink:title=" ">
<polygon fill="none" stroke="#bfbfbf" points="65.5,-0.5 65.5,-19.5 103.5,-19.5 103.5,-0.5 65.5,-0.5"/>
<text text-anchor="middle" x="84.5" y="-7.5" font-family="Helvetica,sans-Serif" font-size="10.00">map</text>
</a>
</g>
</g>
<!-- Node1&#45;&gt;Node3 -->
<g id="edge2" class="edge">
<title>Node1&#45;&gt;Node3</title>
<path fill="none" stroke="midnightblue" d="M456.86,-61.31C372.29,-56.43 237.88,-45.5 113.7,-19.84"/>
<polygon fill="midnightblue" stroke="midnightblue" points="114.15,-16.36 103.64,-17.73 112.7,-23.21 114.15,-16.36"/>
</g>
<!-- Node4 -->
<g id="node4" class="node">
<title>Node4</title>
<g id="a_node4"><a xlink:title=" ">
<polygon fill="none" stroke="#bfbfbf" points="121.5,-0.5 121.5,-19.5 283.5,-19.5 283.5,-0.5 121.5,-0.5"/>
<text text-anchor="middle" x="202.5" y="-7.5" font-family="Helvetica,sans-Serif" font-size="10.00">CLHEP/Units/SystemOfUnits.h</text>
</a>
</g>
</g>
<!-- Node1&#45;&gt;Node4 -->
<g id="edge3" class="edge">
<title>Node1&#45;&gt;Node4</title>
<path fill="none" stroke="midnightblue" d="M486.94,-56.44C426.87,-46.85 329.51,-31.29 265.74,-21.1"/>
<polygon fill="midnightblue" stroke="midnightblue" points="266.23,-17.64 255.81,-19.52 265.13,-24.55 266.23,-17.64"/>
</g>
<!-- Node5 -->
<g id="node5" class="node">
<title>Node5</title>
<g id="a_node5"><a xlink:title=" ">
<polygon fill="none" stroke="#bfbfbf" points="302,-0.5 302,-19.5 361,-19.5 361,-0.5 302,-0.5"/>
<text text-anchor="middle" x="331.5" y="-7.5" font-family="Helvetica,sans-Serif" font-size="10.00">G4ios.hh</text>
</a>
</g>
</g>
<!-- Node1&#45;&gt;Node5 -->
<g id="edge4" class="edge">
<title>Node1&#45;&gt;Node5</title>
<path fill="none" stroke="midnightblue" d="M507.38,-56.44C470.32,-46.87 410.32,-31.36 370.88,-21.18"/>
<polygon fill="midnightblue" stroke="midnightblue" points="371.64,-17.76 361.08,-18.64 369.89,-24.53 371.64,-17.76"/>
</g>
<!-- Node6 -->
<g id="node6" class="node">
<title>Node6</title>
<g id="a_node6"><a xlink:title=" ">
<polygon fill="none" stroke="#bfbfbf" points="379,-0.5 379,-19.5 446,-19.5 446,-0.5 379,-0.5"/>
<text text-anchor="middle" x="412.5" y="-7.5" font-family="Helvetica,sans-Serif" font-size="10.00">globals.hh</text>
</a>
</g>
</g>
<!-- Node1&#45;&gt;Node6 -->
<g id="edge5" class="edge">
<title>Node1&#45;&gt;Node6</title>
<path fill="none" stroke="midnightblue" d="M520.22,-56.44C499.15,-47.56 465.98,-33.56 442.01,-23.45"/>
<polygon fill="midnightblue" stroke="midnightblue" points="443.26,-20.18 432.69,-19.52 440.54,-26.63 443.26,-20.18"/>
</g>
<!-- Node7 -->
<g id="node7" class="node">
<title>Node7</title>
<g id="a_node7"><a xlink:title=" ">
<polygon fill="none" stroke="#bfbfbf" points="464.5,-0.5 464.5,-19.5 616.5,-19.5 616.5,-0.5 464.5,-0.5"/>
<text text-anchor="middle" x="540.5" y="-7.5" font-family="Helvetica,sans-Serif" font-size="10.00">G4VRestDiscreteProcess.hh</text>
</a>
</g>
</g>
<!-- Node1&#45;&gt;Node7 -->
<g id="edge6" class="edge">
<title>Node1&#45;&gt;Node7</title>
<path fill="none" stroke="midnightblue" d="M540.5,-56.08C540.5,-49.01 540.5,-38.86 540.5,-29.99"/>
<polygon fill="midnightblue" stroke="midnightblue" points="544,-29.75 540.5,-19.75 537,-29.75 544,-29.75"/>
</g>
<!-- Node8 -->
<g id="node8" class="node">
<title>Node8</title>
<g id="a_node8"><a xlink:title=" ">
<polygon fill="none" stroke="#bfbfbf" points="635,-0.5 635,-19.5 816,-19.5 816,-0.5 635,-0.5"/>
<text text-anchor="middle" x="725.5" y="-7.5" font-family="Helvetica,sans-Serif" font-size="10.00">G4ParticleChangeForRadDecay.hh</text>
</a>
</g>
</g>
<!-- Node1&#45;&gt;Node8 -->
<g id="edge7" class="edge">
<title>Node1&#45;&gt;Node8</title>
<path fill="none" stroke="midnightblue" d="M569.81,-56.44C601.34,-47.24 651.63,-32.56 686.49,-22.39"/>
<polygon fill="midnightblue" stroke="midnightblue" points="687.7,-25.68 696.32,-19.52 685.74,-18.96 687.7,-25.68"/>
</g>
<!-- Node9 -->
<g id="node9" class="node">
<title>Node9</title>
<g id="a_node9"><a xlink:title=" ">
<polygon fill="none" stroke="#bfbfbf" points="834.5,-0.5 834.5,-19.5 948.5,-19.5 948.5,-0.5 834.5,-0.5"/>
<text text-anchor="middle" x="891.5" y="-7.5" font-family="Helvetica,sans-Serif" font-size="10.00">G4NucleusLimits.hh</text>
</a>
</g>
</g>
<!-- Node1&#45;&gt;Node9 -->
<g id="edge8" class="edge">
<title>Node1&#45;&gt;Node9</title>
<path fill="none" stroke="midnightblue" d="M596.12,-56.44C658.63,-46.83 760.02,-31.23 826.23,-21.04"/>
<polygon fill="midnightblue" stroke="midnightblue" points="826.79,-24.5 836.14,-19.52 825.73,-17.58 826.79,-24.5"/>
</g>
<!-- Node10 -->
<g id="node10" class="node">
<title>Node10</title>
<g id="a_node10"><a xlink:title=" ">
<polygon fill="none" stroke="#bfbfbf" points="967,-0.5 967,-19.5 1070,-19.5 1070,-0.5 967,-0.5"/>
<text text-anchor="middle" x="1018.5" y="-7.5" font-family="Helvetica,sans-Serif" font-size="10.00">G4ThreeVector.hh</text>
</a>
</g>
</g>
<!-- Node1&#45;&gt;Node10 -->
<g id="edge9" class="edge">
<title>Node1&#45;&gt;Node10</title>
<path fill="none" stroke="midnightblue" d="M624.08,-56.95C706.05,-48.83 834.83,-35.49 956.68,-20.06"/>
<polygon fill="midnightblue" stroke="midnightblue" points="957.46,-23.49 966.93,-18.75 956.57,-16.54 957.46,-23.49"/>
</g>
<!-- Node11 -->
<g id="node11" class="node">
<title>Node11</title>
<g id="a_node11"><a xlink:title=" ">
<polygon fill="none" stroke="#bfbfbf" points="1088.5,-0.5 1088.5,-19.5 1182.5,-19.5 1182.5,-0.5 1088.5,-0.5"/>
<text text-anchor="middle" x="1135.5" y="-7.5" font-family="Helvetica,sans-Serif" font-size="10.00">G4Threading.hh</text>
</a>
</g>
</g>
<!-- Node1&#45;&gt;Node11 -->
<g id="edge10" class="edge">
<title>Node1&#45;&gt;Node11</title>
<path fill="none" stroke="midnightblue" d="M624.27,-59.99C728.35,-53.31 911.61,-40.1 1078.53,-20.03"/>
<polygon fill="midnightblue" stroke="midnightblue" points="1078.98,-23.5 1088.48,-18.82 1078.13,-16.55 1078.98,-23.5"/>
</g>
<!-- Node12 -->
<g id="node12" class="node">
<title>Node12</title>
<g id="a_node12"><a xlink:title=" ">
<polygon fill="none" stroke="#bfbfbf" points="1201,-0.5 1201,-19.5 1362,-19.5 1362,-0.5 1201,-0.5"/>
<text text-anchor="middle" x="1281.5" y="-7.5" font-family="Helvetica,sans-Serif" font-size="10.00">G4RadioactiveDecayMode.hh</text>
</a>
</g>
</g>
<!-- Node1&#45;&gt;Node12 -->
<g id="edge11" class="edge">
<title>Node1&#45;&gt;Node12</title>
<path fill="none" stroke="midnightblue" d="M624.06,-60.05C746.07,-52.63 980.41,-37.69 1190.57,-20.05"/>
<polygon fill="midnightblue" stroke="midnightblue" points="1190.89,-23.54 1200.56,-19.21 1190.3,-16.56 1190.89,-23.54"/>
</g>
</g>
</svg>
