<?xml version="1.0" encoding="UTF-8" standalone="no"?>
<!DOCTYPE svg PUBLIC "-//W3C//DTD SVG 1.1//EN"
 "http://www.w3.org/Graphics/SVG/1.1/DTD/svg11.dtd">
<!-- Generated by graphviz version 2.43.0 (0)
 -->
<!-- Title: OMSimRadDecaysDetector.hh Pages: 1 -->
<svg width="1360pt" height="434pt"
 viewBox="0.00 0.00 1360.00 434.00" xmlns="http://www.w3.org/2000/svg" xmlns:xlink="http://www.w3.org/1999/xlink">
<g id="graph0" class="graph" transform="scale(1 1) rotate(0) translate(4 430)">
<title>OMSimRadDecaysDetector.hh</title>
<!-- Node1 -->
<g id="Node000001" class="node">
<title>Node1</title>
<g id="a_Node000001"><a xlink:title="Defines the OMSimRadDecaysDetector class for the radioactive decays simulation.">
<polygon fill="#999999" stroke="#666666" points="940.5,-426 777.5,-426 777.5,-407 940.5,-407 940.5,-426"/>
<text text-anchor="middle" x="859" y="-414" font-family="Helvetica,sans-Serif" font-size="10.00">OMSimRadDecaysDetector.hh</text>
</a>
</g>
</g>
<!-- Node2 -->
<g id="Node000002" class="node">
<title>Node2</title>
<g id="a_Node000002"><a xlink:href="_o_m_sim_optical_module_8hh_source.html" target="_top" xlink:title=" ">
<polygon fill="white" stroke="#666666" points="857.5,-316 720.5,-316 720.5,-297 857.5,-297 857.5,-316"/>
<text text-anchor="middle" x="789" y="-304" font-family="Helvetica,sans-Serif" font-size="10.00">OMSimOpticalModule.hh</text>
</a>
</g>
</g>
<!-- Node1&#45;&gt;Node2 -->
<g id="edge1_Node000001_Node000002" class="edge">
<title>Node1&#45;&gt;Node2</title>
<g id="a_edge1_Node000001_Node000002"><a xlink:title=" ">
<path fill="none" stroke="#63b8ff" d="M853.27,-406.66C841.68,-388.77 815.25,-348 800.14,-324.69"/>
<polygon fill="#63b8ff" stroke="#63b8ff" points="802.99,-322.65 794.61,-316.16 797.11,-326.45 802.99,-322.65"/>
</a>
</g>
</g>
<!-- Node3 -->
<g id="Node000003" class="node">
<title>Node3</title>
<g id="a_Node000003"><a xlink:href="_o_m_sim_detector_component_8hh.html" target="_top" xlink:title="Provides helper base class OMSimDetectorComponent for constructing and managing detector components i...">
<polygon fill="white" stroke="#666666" points="746.5,-206 581.5,-206 581.5,-187 746.5,-187 746.5,-206"/>
<text text-anchor="middle" x="664" y="-194" font-family="Helvetica,sans-Serif" font-size="10.00">OMSimDetectorComponent.hh</text>
</a>
</g>
</g>
<!-- Node1&#45;&gt;Node3 -->
<g id="edge40_Node000001_Node000003" class="edge">
<title>Node1&#45;&gt;Node3</title>
<g id="a_edge40_Node000001_Node000003"><a xlink:title=" ">
<path fill="none" stroke="#63b8ff" d="M839.2,-406.96C807.89,-392.53 746.84,-360.48 711,-316 686.55,-285.66 673.5,-241.01 667.74,-216.08"/>
<polygon fill="#63b8ff" stroke="#63b8ff" points="671.12,-215.17 665.58,-206.14 664.28,-216.65 671.12,-215.17"/>
</a>
</g>
</g>
<!-- Node35 -->
<g id="Node000035" class="node">
<title>Node35</title>
<g id="a_Node000035"><a xlink:href="_o_m_sim_detector_construction_8hh_source.html" target="_top" xlink:title=" ">
<polygon fill="white" stroke="#666666" points="1032,-371 862,-371 862,-352 1032,-352 1032,-371"/>
<text text-anchor="middle" x="947" y="-359" font-family="Helvetica,sans-Serif" font-size="10.00">OMSimDetectorConstruction.hh</text>
</a>
</g>
</g>
<!-- Node1&#45;&gt;Node35 -->
<g id="edge41_Node000001_Node000035" class="edge">
<title>Node1&#45;&gt;Node35</title>
<g id="a_edge41_Node000001_Node000035"><a xlink:title=" ">
<path fill="none" stroke="#63b8ff" d="M873.14,-406.98C886.79,-398.77 907.69,-386.18 923.78,-376.49"/>
<polygon fill="#63b8ff" stroke="#63b8ff" points="925.84,-379.33 932.6,-371.17 922.23,-373.33 925.84,-379.33"/>
</a>
</g>
</g>
<!-- Node36 -->
<g id="Node000036" class="node">
<title>Node36</title>
<g id="a_Node000036"><a xlink:title=" ">
<polygon fill="#e0e0e0" stroke="#999999" points="1134,-316 1072,-316 1072,-297 1134,-297 1134,-316"/>
<text text-anchor="middle" x="1103" y="-304" font-family="Helvetica,sans-Serif" font-size="10.00">G4Orb.hh</text>
</a>
</g>
</g>
<!-- Node1&#45;&gt;Node36 -->
<g id="edge45_Node000001_Node000036" class="edge">
<title>Node1&#45;&gt;Node36</title>
<g id="a_edge45_Node000001_Node000036"><a xlink:title=" ">
<path fill="none" stroke="#63b8ff" d="M932.91,-406.99C967.44,-400.69 1008.09,-389.78 1041,-371 1061.39,-359.36 1079.47,-339.08 1090.77,-324.57"/>
<polygon fill="#63b8ff" stroke="#63b8ff" points="1093.69,-326.51 1096.89,-316.41 1088.09,-322.31 1093.69,-326.51"/>
</a>
</g>
</g>
<!-- Node2&#45;&gt;Node3 -->
<g id="edge2_Node000002_Node000003" class="edge">
<title>Node2&#45;&gt;Node3</title>
<g id="a_edge2_Node000002_Node000003"><a xlink:title=" ">
<path fill="none" stroke="#63b8ff" d="M776.46,-296.71C764.28,-288.02 745.42,-274.15 730,-261 711.97,-245.62 692.56,-226.62 679.49,-213.43"/>
<polygon fill="#63b8ff" stroke="#63b8ff" points="681.74,-210.74 672.24,-206.06 676.75,-215.64 681.74,-210.74"/>
</a>
</g>
</g>
<!-- Node24 -->
<g id="Node000024" class="node">
<title>Node24</title>
<g id="a_Node000024"><a xlink:href="_o_m_sim_hit_manager_8hh.html" target="_top" xlink:title="Defines structures and classes related to optical module photon hit management.">
<polygon fill="white" stroke="#666666" points="1223.5,-206 1100.5,-206 1100.5,-187 1223.5,-187 1223.5,-206"/>
<text text-anchor="middle" x="1162" y="-194" font-family="Helvetica,sans-Serif" font-size="10.00">OMSimHitManager.hh</text>
</a>
</g>
</g>
<!-- Node2&#45;&gt;Node24 -->
<g id="edge23_Node000002_Node000024" class="edge">
<title>Node2&#45;&gt;Node24</title>
<g id="a_edge23_Node000002_Node000024"><a xlink:title=" ">
<path fill="none" stroke="#63b8ff" d="M818.58,-296.94C885.23,-277.64 1047.18,-230.74 1122.4,-208.97"/>
<polygon fill="#63b8ff" stroke="#63b8ff" points="1123.78,-212.21 1132.42,-206.07 1121.84,-205.49 1123.78,-212.21"/>
</a>
</g>
</g>
<!-- Node32 -->
<g id="Node000032" class="node">
<title>Node32</title>
<g id="a_Node000032"><a xlink:href="_o_m_sim_p_m_t_construction_8hh.html" target="_top" xlink:title="Construction of the PMTs.">
<polygon fill="white" stroke="#666666" points="888.5,-261 739.5,-261 739.5,-242 888.5,-242 888.5,-261"/>
<text text-anchor="middle" x="814" y="-249" font-family="Helvetica,sans-Serif" font-size="10.00">OMSimPMTConstruction.hh</text>
</a>
</g>
</g>
<!-- Node2&#45;&gt;Node32 -->
<g id="edge34_Node000002_Node000032" class="edge">
<title>Node2&#45;&gt;Node32</title>
<g id="a_edge34_Node000002_Node000032"><a xlink:title=" ">
<path fill="none" stroke="#63b8ff" d="M793.13,-296.75C796.51,-289.57 801.42,-279.18 805.62,-270.27"/>
<polygon fill="#63b8ff" stroke="#63b8ff" points="808.85,-271.63 809.95,-261.09 802.52,-268.64 808.85,-271.63"/>
</a>
</g>
</g>
<!-- Node4 -->
<g id="Node000004" class="node">
<title>Node4</title>
<g id="a_Node000004"><a xlink:href="_o_m_sim_input_data_8hh.html" target="_top" xlink:title="Definition of ParameterTable and OMSimInputData.">
<polygon fill="white" stroke="#666666" points="367.5,-151 252.5,-151 252.5,-132 367.5,-132 367.5,-151"/>
<text text-anchor="middle" x="310" y="-139" font-family="Helvetica,sans-Serif" font-size="10.00">OMSimInputData.hh</text>
</a>
</g>
</g>
<!-- Node3&#45;&gt;Node4 -->
<g id="edge3_Node000003_Node000004" class="edge">
<title>Node3&#45;&gt;Node4</title>
<g id="a_edge3_Node000003_Node000004"><a xlink:title=" ">
<path fill="none" stroke="#63b8ff" d="M607.12,-186.98C544.38,-177.59 443.51,-162.49 376.99,-152.53"/>
<polygon fill="#63b8ff" stroke="#63b8ff" points="377.44,-149.06 367.03,-151.04 376.4,-155.98 377.44,-149.06"/>
</a>
</g>
</g>
<!-- Node20 -->
<g id="Node000020" class="node">
<title>Node20</title>
<g id="a_Node000020"><a xlink:title=" ">
<polygon fill="#e0e0e0" stroke="#999999" points="492.5,-151 385.5,-151 385.5,-132 492.5,-132 492.5,-151"/>
<text text-anchor="middle" x="439" y="-139" font-family="Helvetica,sans-Serif" font-size="10.00">G4Transform3D.hh</text>
</a>
</g>
</g>
<!-- Node3&#45;&gt;Node20 -->
<g id="edge19_Node000003_Node000020" class="edge">
<title>Node3&#45;&gt;Node20</title>
<g id="a_edge19_Node000003_Node000020"><a xlink:title=" ">
<path fill="none" stroke="#63b8ff" d="M627.85,-186.98C589.09,-177.86 527.45,-163.33 485.2,-153.38"/>
<polygon fill="#63b8ff" stroke="#63b8ff" points="485.97,-149.97 475.43,-151.08 484.36,-156.78 485.97,-149.97"/>
</a>
</g>
</g>
<!-- Node21 -->
<g id="Node000021" class="node">
<title>Node21</title>
<g id="a_Node000021"><a xlink:title=" ">
<polygon fill="#e0e0e0" stroke="#999999" points="619,-151 511,-151 511,-132 619,-132 619,-151"/>
<text text-anchor="middle" x="565" y="-139" font-family="Helvetica,sans-Serif" font-size="10.00">G4VisAttributes.hh</text>
</a>
</g>
</g>
<!-- Node3&#45;&gt;Node21 -->
<g id="edge20_Node000003_Node000021" class="edge">
<title>Node3&#45;&gt;Node21</title>
<g id="a_edge20_Node000003_Node000021"><a xlink:title=" ">
<path fill="none" stroke="#63b8ff" d="M648.09,-186.98C632.45,-178.61 608.34,-165.7 590.12,-155.95"/>
<polygon fill="#63b8ff" stroke="#63b8ff" points="591.66,-152.8 581.2,-151.17 588.36,-158.98 591.66,-152.8"/>
</a>
</g>
</g>
<!-- Node22 -->
<g id="Node000022" class="node">
<title>Node22</title>
<g id="a_Node000022"><a xlink:title=" ">
<polygon fill="#e0e0e0" stroke="#999999" points="762.5,-151 637.5,-151 637.5,-132 762.5,-132 762.5,-151"/>
<text text-anchor="middle" x="700" y="-139" font-family="Helvetica,sans-Serif" font-size="10.00">G4SubtractionSolid.hh</text>
</a>
</g>
</g>
<!-- Node3&#45;&gt;Node22 -->
<g id="edge21_Node000003_Node000022" class="edge">
<title>Node3&#45;&gt;Node22</title>
<g id="a_edge21_Node000003_Node000022"><a xlink:title=" ">
<path fill="none" stroke="#63b8ff" d="M669.94,-186.75C674.98,-179.34 682.34,-168.5 688.51,-159.41"/>
<polygon fill="#63b8ff" stroke="#63b8ff" points="691.44,-161.33 694.17,-151.09 685.65,-157.39 691.44,-161.33"/>
</a>
</g>
</g>
<!-- Node23 -->
<g id="Node000023" class="node">
<title>Node23</title>
<g id="a_Node000023"><a xlink:title=" ">
<polygon fill="#e0e0e0" stroke="#999999" points="891,-151 781,-151 781,-132 891,-132 891,-151"/>
<text text-anchor="middle" x="836" y="-139" font-family="Helvetica,sans-Serif" font-size="10.00">G4PVPlacement.hh</text>
</a>
</g>
</g>
<!-- Node3&#45;&gt;Node23 -->
<g id="edge22_Node000003_Node000023" class="edge">
<title>Node3&#45;&gt;Node23</title>
<g id="a_edge22_Node000003_Node000023"><a xlink:title=" ">
<path fill="none" stroke="#63b8ff" d="M691.63,-186.98C720.51,-178.09 766.01,-164.07 798.2,-154.15"/>
<polygon fill="#63b8ff" stroke="#63b8ff" points="799.62,-157.37 808.15,-151.08 797.56,-150.68 799.62,-157.37"/>
</a>
</g>
</g>
<!-- Node5 -->
<g id="Node000005" class="node">
<title>Node5</title>
<g id="a_Node000005"><a xlink:href="_o_m_sim_logger_8hh_source.html" target="_top" xlink:title=" ">
<polygon fill="white" stroke="#666666" points="345.5,-90.5 246.5,-90.5 246.5,-71.5 345.5,-71.5 345.5,-90.5"/>
<text text-anchor="middle" x="296" y="-78.5" font-family="Helvetica,sans-Serif" font-size="10.00">OMSimLogger.hh</text>
</a>
</g>
</g>
<!-- Node4&#45;&gt;Node5 -->
<g id="edge4_Node000004_Node000005" class="edge">
<title>Node4&#45;&gt;Node5</title>
<g id="a_edge4_Node000004_Node000005"><a xlink:title=" ">
<path fill="none" stroke="#63b8ff" d="M307.93,-131.87C305.97,-123.66 302.95,-111.04 300.44,-100.55"/>
<polygon fill="#63b8ff" stroke="#63b8ff" points="303.81,-99.58 298.07,-90.67 297,-101.21 303.81,-99.58"/>
</a>
</g>
</g>
<!-- Node10 -->
<g id="Node000010" class="node">
<title>Node10</title>
<g id="a_Node000010"><a xlink:href="_o_m_sim_op_boundary_process_8hh_source.html" target="_top" xlink:title=" ">
<polygon fill="white" stroke="#666666" points="748,-90.5 584,-90.5 584,-71.5 748,-71.5 748,-90.5"/>
<text text-anchor="middle" x="666" y="-78.5" font-family="Helvetica,sans-Serif" font-size="10.00">OMSimOpBoundaryProcess.hh</text>
</a>
</g>
</g>
<!-- Node4&#45;&gt;Node10 -->
<g id="edge9_Node000004_Node000010" class="edge">
<title>Node4&#45;&gt;Node10</title>
<g id="a_edge9_Node000004_Node000010"><a xlink:title=" ">
<path fill="none" stroke="#63b8ff" d="M361.77,-131.99C425.96,-121.44 535.3,-103.48 603.94,-92.2"/>
<polygon fill="#63b8ff" stroke="#63b8ff" points="604.87,-95.59 614.17,-90.52 603.74,-88.68 604.87,-95.59"/>
</a>
</g>
</g>
<!-- Node18 -->
<g id="Node000018" class="node">
<title>Node18</title>
<g id="a_Node000018"><a xlink:title=" ">
<polygon fill="#e0e0e0" stroke="#999999" points="885.5,-90.5 766.5,-90.5 766.5,-71.5 885.5,-71.5 885.5,-90.5"/>
<text text-anchor="middle" x="826" y="-78.5" font-family="Helvetica,sans-Serif" font-size="10.00">G4SystemOfUnits.hh</text>
</a>
</g>
</g>
<!-- Node4&#45;&gt;Node18 -->
<g id="edge17_Node000004_Node000018" class="edge">
<title>Node4&#45;&gt;Node18</title>
<g id="a_edge17_Node000004_Node000018"><a xlink:title=" ">
<path fill="none" stroke="#63b8ff" d="M367.58,-132.97C370.43,-132.63 373.24,-132.31 376,-132 545.04,-113.13 588.75,-120.95 757,-96 763.74,-95 770.82,-93.77 777.77,-92.46"/>
<polygon fill="#63b8ff" stroke="#63b8ff" points="778.66,-95.85 787.81,-90.5 777.32,-88.98 778.66,-95.85"/>
</a>
</g>
</g>
<!-- Node19 -->
<g id="Node000019" class="node">
<title>Node19</title>
<g id="a_Node000019"><a xlink:title=" ">
<polygon fill="#e0e0e0" stroke="#999999" points="228.5,-96 115.5,-96 115.5,-66 228.5,-66 228.5,-96"/>
<text text-anchor="start" x="123.5" y="-84" font-family="Helvetica,sans-Serif" font-size="10.00">boost/property_tree</text>
<text text-anchor="middle" x="172" y="-73" font-family="Helvetica,sans-Serif" font-size="10.00">/json_parser.hpp</text>
</a>
</g>
</g>
<!-- Node4&#45;&gt;Node19 -->
<g id="edge18_Node000004_Node000019" class="edge">
<title>Node4&#45;&gt;Node19</title>
<g id="a_edge18_Node000004_Node000019"><a xlink:title=" ">
<path fill="none" stroke="#63b8ff" d="M289.93,-131.99C270.25,-123.65 239.61,-110.66 214.5,-100.02"/>
<polygon fill="#63b8ff" stroke="#63b8ff" points="215.75,-96.74 205.18,-96.06 213.02,-103.19 215.75,-96.74"/>
</a>
</g>
</g>
<!-- Node6 -->
<g id="Node000006" class="node">
<title>Node6</title>
<g id="a_Node000006"><a xlink:title=" ">
<polygon fill="#e0e0e0" stroke="#999999" points="209.5,-24.5 116.5,-24.5 116.5,-5.5 209.5,-5.5 209.5,-24.5"/>
<text text-anchor="middle" x="163" y="-12.5" font-family="Helvetica,sans-Serif" font-size="10.00">spdlog/spdlog.h</text>
</a>
</g>
</g>
<!-- Node5&#45;&gt;Node6 -->
<g id="edge5_Node000005_Node000006" class="edge">
<title>Node5&#45;&gt;Node6</title>
<g id="a_edge5_Node000005_Node000006"><a xlink:title=" ">
<path fill="none" stroke="#63b8ff" d="M278.06,-71.37C255.46,-60.49 216.38,-41.69 190.12,-29.05"/>
<polygon fill="#63b8ff" stroke="#63b8ff" points="191.61,-25.88 181.08,-24.7 188.57,-32.19 191.61,-25.88"/>
</a>
</g>
</g>
<!-- Node7 -->
<g id="Node000007" class="node">
<title>Node7</title>
<g id="a_Node000007"><a xlink:title=" ">
<polygon fill="#e0e0e0" stroke="#999999" points="338.5,-30 227.5,-30 227.5,0 338.5,0 338.5,-30"/>
<text text-anchor="start" x="235.5" y="-18" font-family="Helvetica,sans-Serif" font-size="10.00">spdlog/sinks/stdout</text>
<text text-anchor="middle" x="283" y="-7" font-family="Helvetica,sans-Serif" font-size="10.00">_color_sinks.h</text>
</a>
</g>
</g>
<!-- Node5&#45;&gt;Node7 -->
<g id="edge6_Node000005_Node000007" class="edge">
<title>Node5&#45;&gt;Node7</title>
<g id="a_edge6_Node000005_Node000007"><a xlink:title=" ">
<path fill="none" stroke="#63b8ff" d="M294.25,-71.37C292.63,-63.4 290.15,-51.2 287.93,-40.27"/>
<polygon fill="#63b8ff" stroke="#63b8ff" points="291.34,-39.46 285.92,-30.36 284.48,-40.86 291.34,-39.46"/>
</a>
</g>
</g>
<!-- Node8 -->
<g id="Node000008" class="node">
<title>Node8</title>
<g id="a_Node000008"><a xlink:title=" ">
<polygon fill="#e0e0e0" stroke="#999999" points="415,-24.5 357,-24.5 357,-5.5 415,-5.5 415,-24.5"/>
<text text-anchor="middle" x="386" y="-12.5" font-family="Helvetica,sans-Serif" font-size="10.00">memory</text>
</a>
</g>
</g>
<!-- Node5&#45;&gt;Node8 -->
<g id="edge7_Node000005_Node000008" class="edge">
<title>Node5&#45;&gt;Node8</title>
<g id="a_edge7_Node000005_Node000008"><a xlink:title=" ">
<path fill="none" stroke="#63b8ff" d="M308.14,-71.37C322.77,-60.97 347.58,-43.32 365.26,-30.75"/>
<polygon fill="#63b8ff" stroke="#63b8ff" points="367.65,-33.35 373.77,-24.7 363.59,-27.64 367.65,-33.35"/>
</a>
</g>
</g>
<!-- Node9 -->
<g id="Node000009" class="node">
<title>Node9</title>
<g id="a_Node000009"><a xlink:title=" ">
<polygon fill="#e0e0e0" stroke="#999999" points="98,-24.5 0,-24.5 0,-5.5 98,-5.5 98,-24.5"/>
<text text-anchor="middle" x="49" y="-12.5" font-family="Helvetica,sans-Serif" font-size="10.00">spdlog/fmt/fmt.h</text>
</a>
</g>
</g>
<!-- Node5&#45;&gt;Node9 -->
<g id="edge8_Node000005_Node000009" class="edge">
<title>Node5&#45;&gt;Node9</title>
<g id="a_edge8_Node000005_Node000009"><a xlink:title=" ">
<path fill="none" stroke="#63b8ff" d="M262.94,-71.44C218.76,-59.99 140.4,-39.68 91.76,-27.08"/>
<polygon fill="#63b8ff" stroke="#63b8ff" points="92.42,-23.63 81.86,-24.51 90.66,-30.41 92.42,-23.63"/>
</a>
</g>
</g>
<!-- Node11 -->
<g id="Node000011" class="node">
<title>Node11</title>
<g id="a_Node000011"><a xlink:title=" ">
<polygon fill="#e0e0e0" stroke="#999999" points="1131.5,-24.5 1018.5,-24.5 1018.5,-5.5 1131.5,-5.5 1131.5,-24.5"/>
<text text-anchor="middle" x="1075" y="-12.5" font-family="Helvetica,sans-Serif" font-size="10.00">G4OpticalPhoton.hh</text>
</a>
</g>
</g>
<!-- Node10&#45;&gt;Node11 -->
<g id="edge10_Node000010_Node000011" class="edge">
<title>Node10&#45;&gt;Node11</title>
<g id="a_edge10_Node000010_Node000011"><a xlink:title=" ">
<path fill="none" stroke="#63b8ff" d="M720.84,-71.46C732.76,-69.63 745.3,-67.73 757,-66 869.35,-49.36 898.19,-49.97 1010,-30 1015.75,-28.97 1021.77,-27.8 1027.72,-26.59"/>
<polygon fill="#63b8ff" stroke="#63b8ff" points="1028.55,-29.99 1037.62,-24.52 1027.12,-23.14 1028.55,-29.99"/>
</a>
</g>
</g>
<!-- Node12 -->
<g id="Node000012" class="node">
<title>Node12</title>
<g id="a_Node000012"><a xlink:title=" ">
<polygon fill="#e0e0e0" stroke="#999999" points="549,-24.5 433,-24.5 433,-5.5 549,-5.5 549,-24.5"/>
<text text-anchor="middle" x="491" y="-12.5" font-family="Helvetica,sans-Serif" font-size="10.00">G4OpticalSurface.hh</text>
</a>
</g>
</g>
<!-- Node10&#45;&gt;Node12 -->
<g id="edge11_Node000010_Node000012" class="edge">
<title>Node10&#45;&gt;Node12</title>
<g id="a_edge11_Node000010_Node000012"><a xlink:title=" ">
<path fill="none" stroke="#63b8ff" d="M642.4,-71.37C611.91,-60.22 558.68,-40.75 524.15,-28.12"/>
<polygon fill="#63b8ff" stroke="#63b8ff" points="525.1,-24.74 514.51,-24.6 522.7,-31.32 525.1,-24.74"/>
</a>
</g>
</g>
<!-- Node13 -->
<g id="Node000013" class="node">
<title>Node13</title>
<g id="a_Node000013"><a xlink:title=" ">
<polygon fill="#e0e0e0" stroke="#999999" points="677,-24.5 567,-24.5 567,-5.5 677,-5.5 677,-24.5"/>
<text text-anchor="middle" x="622" y="-12.5" font-family="Helvetica,sans-Serif" font-size="10.00">G4RandomTools.hh</text>
</a>
</g>
</g>
<!-- Node10&#45;&gt;Node13 -->
<g id="edge12_Node000010_Node000013" class="edge">
<title>Node10&#45;&gt;Node13</title>
<g id="a_edge12_Node000010_Node000013"><a xlink:title=" ">
<path fill="none" stroke="#63b8ff" d="M660.07,-71.37C653.41,-61.69 642.44,-45.74 633.99,-33.44"/>
<polygon fill="#63b8ff" stroke="#63b8ff" points="636.67,-31.16 628.12,-24.91 630.9,-35.13 636.67,-31.16"/>
</a>
</g>
</g>
<!-- Node14 -->
<g id="Node000014" class="node">
<title>Node14</title>
<g id="a_Node000014"><a xlink:title=" ">
<polygon fill="#e0e0e0" stroke="#999999" points="825,-24.5 695,-24.5 695,-5.5 825,-5.5 825,-24.5"/>
<text text-anchor="middle" x="760" y="-12.5" font-family="Helvetica,sans-Serif" font-size="10.00">G4VDiscreteProcess.hh</text>
</a>
</g>
</g>
<!-- Node10&#45;&gt;Node14 -->
<g id="edge13_Node000010_Node000014" class="edge">
<title>Node10&#45;&gt;Node14</title>
<g id="a_edge13_Node000010_Node000014"><a xlink:title=" ">
<path fill="none" stroke="#63b8ff" d="M678.68,-71.37C694.09,-60.87 720.35,-43 738.85,-30.4"/>
<polygon fill="#63b8ff" stroke="#63b8ff" points="740.93,-33.22 747.22,-24.7 736.99,-27.43 740.93,-33.22"/>
</a>
</g>
</g>
<!-- Node15 -->
<g id="Node000015" class="node">
<title>Node15</title>
<g id="a_Node000015"><a xlink:title=" ">
<polygon fill="#e0e0e0" stroke="#999999" points="1000.5,-24.5 843.5,-24.5 843.5,-5.5 1000.5,-5.5 1000.5,-24.5"/>
<text text-anchor="middle" x="922" y="-12.5" font-family="Helvetica,sans-Serif" font-size="10.00">G4VUserTrackInformation.hh</text>
</a>
</g>
</g>
<!-- Node10&#45;&gt;Node15 -->
<g id="edge14_Node000010_Node000015" class="edge">
<title>Node10&#45;&gt;Node15</title>
<g id="a_edge14_Node000010_Node000015"><a xlink:title=" ">
<path fill="none" stroke="#63b8ff" d="M700.26,-71.44C746.15,-59.96 827.61,-39.6 877.99,-27"/>
<polygon fill="#63b8ff" stroke="#63b8ff" points="879.09,-30.34 887.94,-24.51 877.39,-23.54 879.09,-30.34"/>
</a>
</g>
</g>
<!-- Node16 -->
<g id="Node000016" class="node">
<title>Node16</title>
<g id="a_Node000016"><a xlink:title=" ">
<polygon fill="#e0e0e0" stroke="#999999" points="1240,-24.5 1150,-24.5 1150,-5.5 1240,-5.5 1240,-24.5"/>
<text text-anchor="middle" x="1195" y="-12.5" font-family="Helvetica,sans-Serif" font-size="10.00">G4AutoLock.hh</text>
</a>
</g>
</g>
<!-- Node10&#45;&gt;Node16 -->
<g id="edge15_Node000010_Node000016" class="edge">
<title>Node10&#45;&gt;Node16</title>
<g id="a_edge15_Node000010_Node000016"><a xlink:title=" ">
<path fill="none" stroke="#63b8ff" d="M717.9,-71.47C730.66,-69.53 744.31,-67.57 757,-66 927.12,-44.96 972.16,-59.6 1141,-30 1145.76,-29.17 1150.71,-28.13 1155.6,-26.99"/>
<polygon fill="#63b8ff" stroke="#63b8ff" points="1156.6,-30.35 1165.48,-24.56 1154.93,-23.55 1156.6,-30.35"/>
</a>
</g>
</g>
<!-- Node17 -->
<g id="Node000017" class="node">
<title>Node17</title>
<g id="a_Node000017"><a xlink:title=" ">
<polygon fill="#e0e0e0" stroke="#999999" points="1352,-24.5 1258,-24.5 1258,-5.5 1352,-5.5 1352,-24.5"/>
<text text-anchor="middle" x="1305" y="-12.5" font-family="Helvetica,sans-Serif" font-size="10.00">G4Threading.hh</text>
</a>
</g>
</g>
<!-- Node10&#45;&gt;Node17 -->
<g id="edge16_Node000010_Node000017" class="edge">
<title>Node10&#45;&gt;Node17</title>
<g id="a_edge16_Node000010_Node000017"><a xlink:title=" ">
<path fill="none" stroke="#63b8ff" d="M716.92,-71.43C729.96,-69.44 743.98,-67.48 757,-66 974.86,-41.31 1032.51,-64.72 1249,-30 1254.19,-29.17 1259.59,-28.09 1264.92,-26.9"/>
<polygon fill="#63b8ff" stroke="#63b8ff" points="1266.05,-30.23 1274.97,-24.52 1264.43,-23.42 1266.05,-30.23"/>
</a>
</g>
</g>
<!-- Node24&#45;&gt;Node16 -->
<g id="edge32_Node000024_Node000016" class="edge">
<title>Node24&#45;&gt;Node16</title>
<g id="a_edge32_Node000024_Node000016"><a xlink:title=" ">
<path fill="none" stroke="#63b8ff" d="M1197.05,-186.88C1215.65,-180.33 1236.9,-169.24 1248,-151 1272.21,-111.21 1233.76,-58.44 1210.56,-32.22"/>
<polygon fill="#63b8ff" stroke="#63b8ff" points="1213,-29.7 1203.67,-24.69 1207.84,-34.43 1213,-29.7"/>
</a>
</g>
</g>
<!-- Node24&#45;&gt;Node17 -->
<g id="edge33_Node000024_Node000017" class="edge">
<title>Node24&#45;&gt;Node17</title>
<g id="a_edge33_Node000024_Node000017"><a xlink:title=" ">
<path fill="none" stroke="#63b8ff" d="M1202.11,-186.93C1223.51,-180.43 1248.71,-169.36 1265,-151 1294.51,-117.73 1302.28,-63.56 1304.3,-35.01"/>
<polygon fill="#63b8ff" stroke="#63b8ff" points="1307.81,-34.96 1304.85,-24.78 1300.82,-34.58 1307.81,-34.96"/>
</a>
</g>
</g>
<!-- Node25 -->
<g id="Node000025" class="node">
<title>Node25</title>
<g id="a_Node000025"><a xlink:href="_o_m_sim_p_m_t_response_8hh.html" target="_top" xlink:title="Simulation of PMT response.">
<polygon fill="white" stroke="#666666" points="1044.5,-151 909.5,-151 909.5,-132 1044.5,-132 1044.5,-151"/>
<text text-anchor="middle" x="977" y="-139" font-family="Helvetica,sans-Serif" font-size="10.00">OMSimPMTResponse.hh</text>
</a>
</g>
</g>
<!-- Node24&#45;&gt;Node25 -->
<g id="edge24_Node000024_Node000025" class="edge">
<title>Node24&#45;&gt;Node25</title>
<g id="a_edge24_Node000024_Node000025"><a xlink:title=" ">
<path fill="none" stroke="#63b8ff" d="M1132.28,-186.98C1100.95,-178.01 1051.43,-163.82 1016.76,-153.89"/>
<polygon fill="#63b8ff" stroke="#63b8ff" points="1017.53,-150.47 1006.96,-151.08 1015.61,-157.2 1017.53,-150.47"/>
</a>
</g>
</g>
<!-- Node30 -->
<g id="Node000030" class="node">
<title>Node30</title>
<g id="a_Node000030"><a xlink:title=" ">
<polygon fill="#e0e0e0" stroke="#999999" points="1165.5,-151 1062.5,-151 1062.5,-132 1165.5,-132 1165.5,-151"/>
<text text-anchor="middle" x="1114" y="-139" font-family="Helvetica,sans-Serif" font-size="10.00">G4ThreeVector.hh</text>
</a>
</g>
</g>
<!-- Node24&#45;&gt;Node30 -->
<g id="edge30_Node000024_Node000030" class="edge">
<title>Node24&#45;&gt;Node30</title>
<g id="a_edge30_Node000024_Node000030"><a xlink:title=" ">
<path fill="none" stroke="#63b8ff" d="M1154.07,-186.75C1147.15,-179.11 1136.93,-167.82 1128.55,-158.56"/>
<polygon fill="#63b8ff" stroke="#63b8ff" points="1131.09,-156.15 1121.78,-151.09 1125.9,-160.85 1131.09,-156.15"/>
</a>
</g>
</g>
<!-- Node31 -->
<g id="Node000031" class="node">
<title>Node31</title>
<g id="a_Node000031"><a xlink:title=" ">
<polygon fill="#e0e0e0" stroke="#999999" points="1238.5,-151 1183.5,-151 1183.5,-132 1238.5,-132 1238.5,-151"/>
<text text-anchor="middle" x="1211" y="-139" font-family="Helvetica,sans-Serif" font-size="10.00">fstream</text>
</a>
</g>
</g>
<!-- Node24&#45;&gt;Node31 -->
<g id="edge31_Node000024_Node000031" class="edge">
<title>Node24&#45;&gt;Node31</title>
<g id="a_edge31_Node000024_Node000031"><a xlink:title=" ">
<path fill="none" stroke="#63b8ff" d="M1170.09,-186.75C1177.16,-179.11 1187.59,-167.82 1196.15,-158.56"/>
<polygon fill="#63b8ff" stroke="#63b8ff" points="1198.84,-160.81 1203.06,-151.09 1193.7,-156.06 1198.84,-160.81"/>
</a>
</g>
</g>
<!-- Node25&#45;&gt;Node18 -->
<g id="edge25_Node000025_Node000018" class="edge">
<title>Node25&#45;&gt;Node18</title>
<g id="a_edge25_Node000025_Node000018"><a xlink:title=" ">
<path fill="none" stroke="#63b8ff" d="M955.04,-131.99C929.32,-122.03 886.52,-105.45 857.32,-94.13"/>
<polygon fill="#63b8ff" stroke="#63b8ff" points="858.57,-90.87 847.98,-90.52 856.04,-97.39 858.57,-90.87"/>
</a>
</g>
</g>
<!-- Node26 -->
<g id="Node000026" class="node">
<title>Node26</title>
<g id="a_Node000026"><a xlink:title=" ">
<polygon fill="#e0e0e0" stroke="#999999" points="976.5,-90.5 903.5,-90.5 903.5,-71.5 976.5,-71.5 976.5,-90.5"/>
<text text-anchor="middle" x="940" y="-78.5" font-family="Helvetica,sans-Serif" font-size="10.00">G4Types.hh</text>
</a>
</g>
</g>
<!-- Node25&#45;&gt;Node26 -->
<g id="edge26_Node000025_Node000026" class="edge">
<title>Node25&#45;&gt;Node26</title>
<g id="a_edge26_Node000025_Node000026"><a xlink:title=" ">
<path fill="none" stroke="#63b8ff" d="M971.54,-131.87C966.13,-123.31 957.69,-109.97 950.9,-99.24"/>
<polygon fill="#63b8ff" stroke="#63b8ff" points="953.79,-97.25 945.48,-90.67 947.87,-100.99 953.79,-97.25"/>
</a>
</g>
</g>
<!-- Node27 -->
<g id="Node000027" class="node">
<title>Node27</title>
<g id="a_Node000027"><a xlink:title=" ">
<polygon fill="#e0e0e0" stroke="#999999" points="1033,-90.5 995,-90.5 995,-71.5 1033,-71.5 1033,-90.5"/>
<text text-anchor="middle" x="1014" y="-78.5" font-family="Helvetica,sans-Serif" font-size="10.00">map</text>
</a>
</g>
</g>
<!-- Node25&#45;&gt;Node27 -->
<g id="edge27_Node000025_Node000027" class="edge">
<title>Node25&#45;&gt;Node27</title>
<g id="a_edge27_Node000025_Node000027"><a xlink:title=" ">
<path fill="none" stroke="#63b8ff" d="M982.46,-131.87C987.87,-123.31 996.31,-109.97 1003.1,-99.24"/>
<polygon fill="#63b8ff" stroke="#63b8ff" points="1006.13,-100.99 1008.52,-90.67 1000.21,-97.25 1006.13,-100.99"/>
</a>
</g>
</g>
<!-- Node28 -->
<g id="Node000028" class="node">
<title>Node28</title>
<g id="a_Node000028"><a xlink:title=" ">
<polygon fill="#e0e0e0" stroke="#999999" points="1112.5,-90.5 1051.5,-90.5 1051.5,-71.5 1112.5,-71.5 1112.5,-90.5"/>
<text text-anchor="middle" x="1082" y="-78.5" font-family="Helvetica,sans-Serif" font-size="10.00">TGraph.h</text>
</a>
</g>
</g>
<!-- Node25&#45;&gt;Node28 -->
<g id="edge28_Node000025_Node000028" class="edge">
<title>Node25&#45;&gt;Node28</title>
<g id="a_edge28_Node000025_Node000028"><a xlink:title=" ">
<path fill="none" stroke="#63b8ff" d="M992.49,-131.87C1009.63,-122.32 1037.47,-106.81 1057.56,-95.62"/>
<polygon fill="#63b8ff" stroke="#63b8ff" points="1059.41,-98.59 1066.44,-90.67 1056,-92.48 1059.41,-98.59"/>
</a>
</g>
</g>
<!-- Node29 -->
<g id="Node000029" class="node">
<title>Node29</title>
<g id="a_Node000029"><a xlink:title=" ">
<polygon fill="#e0e0e0" stroke="#999999" points="1183.5,-90.5 1130.5,-90.5 1130.5,-71.5 1183.5,-71.5 1183.5,-90.5"/>
<text text-anchor="middle" x="1157" y="-78.5" font-family="Helvetica,sans-Serif" font-size="10.00">TH2D.h</text>
</a>
</g>
</g>
<!-- Node25&#45;&gt;Node29 -->
<g id="edge29_Node000025_Node000029" class="edge">
<title>Node25&#45;&gt;Node29</title>
<g id="a_edge29_Node000025_Node000029"><a xlink:title=" ">
<path fill="none" stroke="#63b8ff" d="M1007.51,-131.93C1037.02,-123.46 1082.89,-109.8 1122,-96 1123.61,-95.43 1125.26,-94.83 1126.92,-94.22"/>
<polygon fill="#63b8ff" stroke="#63b8ff" points="1128.3,-97.43 1136.38,-90.58 1125.79,-90.9 1128.3,-97.43"/>
</a>
</g>
</g>
<!-- Node32&#45;&gt;Node3 -->
<g id="edge35_Node000032_Node000003" class="edge">
<title>Node32&#45;&gt;Node3</title>
<g id="a_edge35_Node000032_Node000003"><a xlink:title=" ">
<path fill="none" stroke="#63b8ff" d="M789.9,-241.98C765.12,-233.23 726.3,-219.51 698.31,-209.62"/>
<polygon fill="#63b8ff" stroke="#63b8ff" points="699.13,-206.2 688.54,-206.17 696.8,-212.8 699.13,-206.2"/>
</a>
</g>
</g>
<!-- Node32&#45;&gt;Node25 -->
<g id="edge37_Node000032_Node000025" class="edge">
<title>Node32&#45;&gt;Node25</title>
<g id="a_edge37_Node000032_Node000025"><a xlink:title=" ">
<path fill="none" stroke="#63b8ff" d="M886.22,-241.98C911.44,-235.69 938.12,-224.81 957,-206 968.89,-194.15 973.72,-175.32 975.68,-161.23"/>
<polygon fill="#63b8ff" stroke="#63b8ff" points="979.18,-161.49 976.72,-151.18 972.21,-160.77 979.18,-161.49"/>
</a>
</g>
</g>
<!-- Node32&#45;&gt;Node32 -->
<g id="edge36_Node000032_Node000032" class="edge">
<title>Node32&#45;&gt;Node32</title>
<g id="a_edge36_Node000032_Node000032"><a xlink:title=" ">
<path fill="none" stroke="#63b8ff" d="M857.3,-261.03C882.71,-263.06 906.5,-259.88 906.5,-251.5 906.5,-244.23 888.61,-240.87 867.29,-241.44"/>
<polygon fill="#63b8ff" stroke="#63b8ff" points="867.1,-237.94 857.3,-241.97 867.47,-244.93 867.1,-237.94"/>
</a>
</g>
</g>
<!-- Node33 -->
<g id="Node000033" class="node">
<title>Node33</title>
<g id="a_Node000033"><a xlink:title=" ">
<polygon fill="#e0e0e0" stroke="#999999" points="863,-206 765,-206 765,-187 863,-187 863,-206"/>
<text text-anchor="middle" x="814" y="-194" font-family="Helvetica,sans-Serif" font-size="10.00">G4UnionSolid.hh</text>
</a>
</g>
</g>
<!-- Node32&#45;&gt;Node33 -->
<g id="edge38_Node000032_Node000033" class="edge">
<title>Node32&#45;&gt;Node33</title>
<g id="a_edge38_Node000032_Node000033"><a xlink:title=" ">
<path fill="none" stroke="#63b8ff" d="M814,-241.75C814,-234.8 814,-224.85 814,-216.13"/>
<polygon fill="#63b8ff" stroke="#63b8ff" points="817.5,-216.09 814,-206.09 810.5,-216.09 817.5,-216.09"/>
</a>
</g>
</g>
<!-- Node34 -->
<g id="Node000034" class="node">
<title>Node34</title>
<g id="a_Node000034"><a xlink:title=" ">
<polygon fill="#e0e0e0" stroke="#999999" points="948.5,-206 881.5,-206 881.5,-187 948.5,-187 948.5,-206"/>
<text text-anchor="middle" x="915" y="-194" font-family="Helvetica,sans-Serif" font-size="10.00">G4Tubs.hh</text>
</a>
</g>
</g>
<!-- Node32&#45;&gt;Node34 -->
<g id="edge39_Node000032_Node000034" class="edge">
<title>Node32&#45;&gt;Node34</title>
<g id="a_edge39_Node000032_Node000034"><a xlink:title=" ">
<path fill="none" stroke="#63b8ff" d="M830.23,-241.98C846.18,-233.61 870.78,-220.7 889.38,-210.95"/>
<polygon fill="#63b8ff" stroke="#63b8ff" points="891.25,-213.92 898.48,-206.17 888,-207.72 891.25,-213.92"/>
</a>
</g>
</g>
<!-- Node35&#45;&gt;Node2 -->
<g id="edge42_Node000035_Node000002" class="edge">
<title>Node35&#45;&gt;Node2</title>
<g id="a_edge42_Node000035_Node000002"><a xlink:title=" ">
<path fill="none" stroke="#63b8ff" d="M921.61,-351.98C895.2,-343.13 853.65,-329.19 824.11,-319.28"/>
<polygon fill="#63b8ff" stroke="#63b8ff" points="825.18,-315.94 814.58,-316.08 822.95,-322.58 825.18,-315.94"/>
</a>
</g>
</g>
<!-- Node35&#45;&gt;Node36 -->
<g id="edge43_Node000035_Node000036" class="edge">
<title>Node35&#45;&gt;Node36</title>
<g id="a_edge43_Node000035_Node000036"><a xlink:title=" ">
<path fill="none" stroke="#63b8ff" d="M972.06,-351.98C998.03,-343.16 1038.81,-329.31 1067.96,-319.41"/>
<polygon fill="#63b8ff" stroke="#63b8ff" points="1069.4,-322.61 1077.74,-316.08 1067.15,-315.99 1069.4,-322.61"/>
</a>
</g>
</g>
<!-- Node37 -->
<g id="Node000037" class="node">
<title>Node37</title>
<g id="a_Node000037"><a xlink:title=" ">
<polygon fill="#e0e0e0" stroke="#999999" points="1054,-316 876,-316 876,-297 1054,-297 1054,-316"/>
<text text-anchor="middle" x="965" y="-304" font-family="Helvetica,sans-Serif" font-size="10.00">G4VUserDetectorConstruction.hh</text>
</a>
</g>
</g>
<!-- Node35&#45;&gt;Node37 -->
<g id="edge44_Node000035_Node000037" class="edge">
<title>Node35&#45;&gt;Node37</title>
<g id="a_edge44_Node000035_Node000037"><a xlink:title=" ">
<path fill="none" stroke="#63b8ff" d="M949.97,-351.75C952.36,-344.72 955.79,-334.62 958.77,-325.84"/>
<polygon fill="#63b8ff" stroke="#63b8ff" points="962.18,-326.68 962.08,-316.09 955.55,-324.43 962.18,-326.68"/>
</a>
</g>
</g>
</g>
</svg>
