<?xml version="1.0" encoding="UTF-8" standalone="no"?>
<!DOCTYPE svg PUBLIC "-//W3C//DTD SVG 1.1//EN"
 "http://www.w3.org/Graphics/SVG/1.1/DTD/svg11.dtd">
<!-- Generated by graphviz version 2.43.0 (0)
 -->
<!-- Title: OMSim.cc Pages: 1 -->
<svg width="1925pt" height="487pt"
 viewBox="0.00 0.00 1925.00 487.00" xmlns="http://www.w3.org/2000/svg" xmlns:xlink="http://www.w3.org/1999/xlink">
<g id="graph0" class="graph" transform="scale(1 1) rotate(0) translate(4 483)">
<title>OMSim.cc</title>
<!-- Node1 -->
<g id="node1" class="node">
<title>Node1</title>
<g id="a_node1"><a xlink:title="Implementation of the OMSim class.">
<polygon fill="#bfbfbf" stroke="black" points="787.5,-459.5 787.5,-478.5 852.5,-478.5 852.5,-459.5 787.5,-459.5"/>
<text text-anchor="middle" x="820" y="-466.5" font-family="Helvetica,sans-Serif" font-size="10.00">OMSim.cc</text>
</a>
</g>
</g>
<!-- Node2 -->
<g id="node2" class="node">
<title>Node2</title>
<g id="a_node2"><a xlink:href="_o_m_sim_8hh.html" target="_top" xlink:title="Main simulation class for the Optical Module (OM) simulation. This file defines the OMSim class,...">
<polygon fill="none" stroke="black" points="755.5,-403.5 755.5,-422.5 822.5,-422.5 822.5,-403.5 755.5,-403.5"/>
<text text-anchor="middle" x="789" y="-410.5" font-family="Helvetica,sans-Serif" font-size="10.00">OMSim.hh</text>
</a>
</g>
</g>
<!-- Node1&#45;&gt;Node2 -->
<g id="edge1" class="edge">
<title>Node1&#45;&gt;Node2</title>
<path fill="none" stroke="midnightblue" d="M814.88,-459.08C810.59,-451.61 804.34,-440.72 799.06,-431.52"/>
<polygon fill="midnightblue" stroke="midnightblue" points="802.04,-429.68 794.02,-422.75 795.97,-433.17 802.04,-429.68"/>
</g>
<!-- Node7 -->
<g id="node7" class="node">
<title>Node7</title>
<g id="a_node7"><a xlink:href="_o_m_sim_logger_8hh_source.html" target="_top" xlink:title=" ">
<polygon fill="none" stroke="black" points="272.5,-67.5 272.5,-86.5 371.5,-86.5 371.5,-67.5 272.5,-67.5"/>
<text text-anchor="middle" x="322" y="-74.5" font-family="Helvetica,sans-Serif" font-size="10.00">OMSimLogger.hh</text>
</a>
</g>
</g>
<!-- Node1&#45;&gt;Node7 -->
<g id="edge56" class="edge">
<title>Node1&#45;&gt;Node7</title>
<path fill="none" stroke="midnightblue" d="M787.35,-467.12C634.84,-462.59 0,-438.89 0,-358 0,-358 0,-358 0,-188 0,-133.2 169.15,-100.05 262.26,-85.96"/>
<polygon fill="midnightblue" stroke="midnightblue" points="263.02,-89.38 272.39,-84.45 261.99,-82.46 263.02,-89.38"/>
</g>
<!-- Node59 -->
<g id="node48" class="node">
<title>Node59</title>
<g id="a_node48"><a xlink:title=" ">
<polygon fill="none" stroke="#bfbfbf" points="1583,-347.5 1583,-366.5 1733,-366.5 1733,-347.5 1583,-347.5"/>
<text text-anchor="middle" x="1658" y="-354.5" font-family="Helvetica,sans-Serif" font-size="10.00">boost/program_options.hpp</text>
</a>
</g>
</g>
<!-- Node1&#45;&gt;Node59 -->
<g id="edge59" class="edge">
<title>Node1&#45;&gt;Node59</title>
<path fill="none" stroke="midnightblue" d="M852.59,-463.72C974.75,-447.69 1407.38,-390.9 1583.04,-367.84"/>
<polygon fill="midnightblue" stroke="midnightblue" points="1583.52,-371.31 1592.98,-366.54 1582.61,-364.37 1583.52,-371.31"/>
</g>
<!-- Node60 -->
<g id="node49" class="node">
<title>Node60</title>
<g id="a_node49"><a xlink:href="_o_m_sim_action_initialization_8hh_source.html" target="_top" xlink:title=" ">
<polygon fill="none" stroke="black" points="1582,-403.5 1582,-422.5 1740,-422.5 1740,-403.5 1582,-403.5"/>
<text text-anchor="middle" x="1661" y="-410.5" font-family="Helvetica,sans-Serif" font-size="10.00">OMSimActionInitialization.hh</text>
</a>
</g>
</g>
<!-- Node1&#45;&gt;Node60 -->
<g id="edge57" class="edge">
<title>Node1&#45;&gt;Node60</title>
<path fill="none" stroke="midnightblue" d="M852.71,-465.9C972.17,-458.23 1387.49,-431.56 1571.76,-419.73"/>
<polygon fill="midnightblue" stroke="midnightblue" points="1572.2,-423.21 1581.96,-419.08 1571.76,-416.22 1572.2,-423.21"/>
</g>
<!-- Node3 -->
<g id="node3" class="node">
<title>Node3</title>
<g id="a_node3"><a xlink:href="_o_m_sim_detector_construction_8hh_source.html" target="_top" xlink:title=" ">
<polygon fill="none" stroke="black" points="455,-347.5 455,-366.5 625,-366.5 625,-347.5 455,-347.5"/>
<text text-anchor="middle" x="540" y="-354.5" font-family="Helvetica,sans-Serif" font-size="10.00">OMSimDetectorConstruction.hh</text>
</a>
</g>
</g>
<!-- Node2&#45;&gt;Node3 -->
<g id="edge2" class="edge">
<title>Node2&#45;&gt;Node3</title>
<path fill="none" stroke="midnightblue" d="M755.42,-404.72C712.7,-395.45 638.57,-379.38 589.4,-368.71"/>
<polygon fill="midnightblue" stroke="midnightblue" points="590.12,-365.29 579.61,-366.59 588.64,-372.13 590.12,-365.29"/>
</g>
<!-- Node39 -->
<g id="node28" class="node">
<title>Node39</title>
<g id="a_node28"><a xlink:title=" ">
<polygon fill="none" stroke="#bfbfbf" points="643.5,-347.5 643.5,-366.5 764.5,-366.5 764.5,-347.5 643.5,-347.5"/>
<text text-anchor="middle" x="704" y="-354.5" font-family="Helvetica,sans-Serif" font-size="10.00">OMSimPhysicsList.hh</text>
</a>
</g>
</g>
<!-- Node2&#45;&gt;Node39 -->
<g id="edge31" class="edge">
<title>Node2&#45;&gt;Node39</title>
<path fill="none" stroke="midnightblue" d="M775.34,-403.32C762.08,-394.9 741.73,-381.97 726.15,-372.07"/>
<polygon fill="midnightblue" stroke="midnightblue" points="727.94,-369.06 717.62,-366.65 724.19,-374.97 727.94,-369.06"/>
</g>
<!-- Node40 -->
<g id="node29" class="node">
<title>Node40</title>
<g id="a_node29"><a xlink:title=" ">
<polygon fill="none" stroke="#bfbfbf" points="782.5,-347.5 782.5,-366.5 967.5,-366.5 967.5,-347.5 782.5,-347.5"/>
<text text-anchor="middle" x="875" y="-354.5" font-family="Helvetica,sans-Serif" font-size="10.00">OMSimPrimaryGeneratorAction.hh</text>
</a>
</g>
</g>
<!-- Node2&#45;&gt;Node40 -->
<g id="edge32" class="edge">
<title>Node2&#45;&gt;Node40</title>
<path fill="none" stroke="midnightblue" d="M802.82,-403.32C816.23,-394.9 836.82,-381.97 852.59,-372.07"/>
<polygon fill="midnightblue" stroke="midnightblue" points="854.61,-374.94 861.22,-366.65 850.89,-369.01 854.61,-374.94"/>
</g>
<!-- Node41 -->
<g id="node30" class="node">
<title>Node41</title>
<g id="a_node30"><a xlink:href="_o_m_sim_run_action_8hh_source.html" target="_top" xlink:title=" ">
<polygon fill="none" stroke="black" points="371,-291.5 371,-310.5 487,-310.5 487,-291.5 371,-291.5"/>
<text text-anchor="middle" x="429" y="-298.5" font-family="Helvetica,sans-Serif" font-size="10.00">OMSimRunAction.hh</text>
</a>
</g>
</g>
<!-- Node2&#45;&gt;Node41 -->
<g id="edge33" class="edge">
<title>Node2&#45;&gt;Node41</title>
<path fill="none" stroke="midnightblue" d="M755.44,-412.19C678.29,-411.93 491.44,-407.07 446,-367 433.03,-355.56 429.38,-335.58 428.61,-320.78"/>
<polygon fill="midnightblue" stroke="midnightblue" points="432.11,-320.65 428.47,-310.7 425.11,-320.75 432.11,-320.65"/>
</g>
<!-- Node45 -->
<g id="node34" class="node">
<title>Node45</title>
<g id="a_node34"><a xlink:title=" ">
<polygon fill="none" stroke="#bfbfbf" points="985.5,-347.5 985.5,-366.5 1110.5,-366.5 1110.5,-347.5 985.5,-347.5"/>
<text text-anchor="middle" x="1048" y="-354.5" font-family="Helvetica,sans-Serif" font-size="10.00">OMSimEventAction.hh</text>
</a>
</g>
</g>
<!-- Node2&#45;&gt;Node45 -->
<g id="edge39" class="edge">
<title>Node2&#45;&gt;Node45</title>
<path fill="none" stroke="midnightblue" d="M822.59,-405C866.99,-395.74 945.61,-379.35 997.26,-368.58"/>
<polygon fill="midnightblue" stroke="midnightblue" points="998.14,-371.97 1007.22,-366.5 996.71,-365.12 998.14,-371.97"/>
</g>
<!-- Node46 -->
<g id="node35" class="node">
<title>Node46</title>
<g id="a_node35"><a xlink:href="_o_m_sim_tracking_action_8hh_source.html" target="_top" xlink:title=" ">
<polygon fill="none" stroke="black" points="1129,-347.5 1129,-366.5 1267,-366.5 1267,-347.5 1129,-347.5"/>
<text text-anchor="middle" x="1198" y="-354.5" font-family="Helvetica,sans-Serif" font-size="10.00">OMSimTrackingAction.hh</text>
</a>
</g>
</g>
<!-- Node2&#45;&gt;Node46 -->
<g id="edge40" class="edge">
<title>Node2&#45;&gt;Node46</title>
<path fill="none" stroke="midnightblue" d="M822.82,-407.54C888.33,-398.89 1033.95,-379.66 1123.27,-367.87"/>
<polygon fill="midnightblue" stroke="midnightblue" points="1123.88,-371.32 1133.34,-366.54 1122.97,-364.38 1123.88,-371.32"/>
</g>
<!-- Node48 -->
<g id="node37" class="node">
<title>Node48</title>
<g id="a_node37"><a xlink:href="_o_m_sim_stepping_action_8hh.html" target="_top" xlink:title="Defines OMSimSteppingAction.Currently it only checks for trapped photons.">
<polygon fill="none" stroke="black" points="1285,-347.5 1285,-366.5 1425,-366.5 1425,-347.5 1285,-347.5"/>
<text text-anchor="middle" x="1355" y="-354.5" font-family="Helvetica,sans-Serif" font-size="10.00">OMSimSteppingAction.hh</text>
</a>
</g>
</g>
<!-- Node2&#45;&gt;Node48 -->
<g id="edge42" class="edge">
<title>Node2&#45;&gt;Node48</title>
<path fill="none" stroke="midnightblue" d="M822.68,-409.14C900.35,-402.48 1098.28,-385.21 1274.81,-367.1"/>
<polygon fill="midnightblue" stroke="midnightblue" points="1275.21,-370.58 1284.8,-366.08 1274.49,-363.62 1275.21,-370.58"/>
</g>
<!-- Node50 -->
<g id="node39" class="node">
<title>Node50</title>
<g id="a_node39"><a xlink:href="_o_m_sim_u_iinterface_8hh.html" target="_top" xlink:title=" ">
<polygon fill="none" stroke="black" points="198.5,-291.5 198.5,-310.5 319.5,-310.5 319.5,-291.5 198.5,-291.5"/>
<text text-anchor="middle" x="259" y="-298.5" font-family="Helvetica,sans-Serif" font-size="10.00">OMSimUIinterface.hh</text>
</a>
</g>
</g>
<!-- Node2&#45;&gt;Node50 -->
<g id="edge44" class="edge">
<title>Node2&#45;&gt;Node50</title>
<path fill="none" stroke="midnightblue" d="M755.35,-410.46C691.2,-406.93 547.34,-396.21 430,-367 402.47,-360.15 330.07,-331.2 288.84,-314.33"/>
<polygon fill="midnightblue" stroke="midnightblue" points="290.15,-311.08 279.57,-310.53 287.49,-317.56 290.15,-311.08"/>
</g>
<!-- Node55 -->
<g id="node44" class="node">
<title>Node55</title>
<g id="a_node44"><a xlink:title=" ">
<polygon fill="none" stroke="#bfbfbf" points="1443.5,-347.5 1443.5,-366.5 1564.5,-366.5 1564.5,-347.5 1443.5,-347.5"/>
<text text-anchor="middle" x="1504" y="-354.5" font-family="Helvetica,sans-Serif" font-size="10.00">G4MTRunManager.hh</text>
</a>
</g>
</g>
<!-- Node2&#45;&gt;Node55 -->
<g id="edge51" class="edge">
<title>Node2&#45;&gt;Node55</title>
<path fill="none" stroke="midnightblue" d="M822.63,-410.35C917.06,-405.55 1192.86,-390.55 1433.34,-367.01"/>
<polygon fill="midnightblue" stroke="midnightblue" points="1433.71,-370.49 1443.32,-366.02 1433.02,-363.52 1433.71,-370.49"/>
</g>
<!-- Node56 -->
<g id="node45" class="node">
<title>Node56</title>
<g id="a_node45"><a xlink:title=" ">
<polygon fill="none" stroke="#bfbfbf" points="46.5,-347.5 46.5,-366.5 153.5,-366.5 153.5,-347.5 46.5,-347.5"/>
<text text-anchor="middle" x="100" y="-354.5" font-family="Helvetica,sans-Serif" font-size="10.00">G4VisExecutive.hh</text>
</a>
</g>
</g>
<!-- Node2&#45;&gt;Node56 -->
<g id="edge52" class="edge">
<title>Node2&#45;&gt;Node56</title>
<path fill="none" stroke="midnightblue" d="M755.28,-410.44C662.54,-405.97 395.65,-391.88 163.71,-367.12"/>
<polygon fill="midnightblue" stroke="midnightblue" points="164.06,-363.63 153.74,-366.04 163.31,-370.59 164.06,-363.63"/>
</g>
<!-- Node57 -->
<g id="node46" class="node">
<title>Node57</title>
<g id="a_node46"><a xlink:title=" ">
<polygon fill="none" stroke="#bfbfbf" points="171.5,-347.5 171.5,-366.5 274.5,-366.5 274.5,-347.5 171.5,-347.5"/>
<text text-anchor="middle" x="223" y="-354.5" font-family="Helvetica,sans-Serif" font-size="10.00">G4UIExecutive.hh</text>
</a>
</g>
</g>
<!-- Node2&#45;&gt;Node57 -->
<g id="edge53" class="edge">
<title>Node2&#45;&gt;Node57</title>
<path fill="none" stroke="midnightblue" d="M755.24,-409.67C675.43,-404.01 468.66,-388.5 284.69,-367.01"/>
<polygon fill="midnightblue" stroke="midnightblue" points="284.9,-363.51 274.56,-365.82 284.08,-370.46 284.9,-363.51"/>
</g>
<!-- Node58 -->
<g id="node47" class="node">
<title>Node58</title>
<g id="a_node47"><a xlink:title=" ">
<polygon fill="none" stroke="#bfbfbf" points="293,-347.5 293,-366.5 361,-366.5 361,-347.5 293,-347.5"/>
<text text-anchor="middle" x="327" y="-354.5" font-family="Helvetica,sans-Serif" font-size="10.00">filesystem</text>
</a>
</g>
</g>
<!-- Node2&#45;&gt;Node58 -->
<g id="edge54" class="edge">
<title>Node2&#45;&gt;Node58</title>
<path fill="none" stroke="midnightblue" d="M755.35,-409.23C684.68,-403.21 515.72,-387.81 375,-367 373.73,-366.81 372.43,-366.61 371.13,-366.41"/>
<polygon fill="midnightblue" stroke="midnightblue" points="371.47,-362.92 361.03,-364.72 370.32,-369.82 371.47,-362.92"/>
</g>
<!-- Node2&#45;&gt;Node59 -->
<g id="edge55" class="edge">
<title>Node2&#45;&gt;Node59</title>
<path fill="none" stroke="midnightblue" d="M822.66,-410.65C930.16,-406.21 1275.02,-391.02 1572.8,-366.97"/>
<polygon fill="midnightblue" stroke="midnightblue" points="1573.25,-370.44 1582.93,-366.15 1572.68,-363.47 1573.25,-370.44"/>
</g>
<!-- Node4 -->
<g id="node4" class="node">
<title>Node4</title>
<g id="a_node4"><a xlink:href="_o_m_sim_optical_module_8hh_source.html" target="_top" xlink:title=" ">
<polygon fill="none" stroke="black" points="821.5,-291.5 821.5,-310.5 958.5,-310.5 958.5,-291.5 821.5,-291.5"/>
<text text-anchor="middle" x="890" y="-298.5" font-family="Helvetica,sans-Serif" font-size="10.00">OMSimOpticalModule.hh</text>
</a>
</g>
</g>
<!-- Node3&#45;&gt;Node4 -->
<g id="edge3" class="edge">
<title>Node3&#45;&gt;Node4</title>
<path fill="none" stroke="midnightblue" d="M595.46,-347.44C657.67,-337.85 758.48,-322.29 824.51,-312.1"/>
<polygon fill="midnightblue" stroke="midnightblue" points="825.45,-315.5 834.8,-310.52 824.38,-308.58 825.45,-315.5"/>
</g>
<!-- Node37 -->
<g id="node26" class="node">
<title>Node37</title>
<g id="a_node26"><a xlink:title=" ">
<polygon fill="none" stroke="#bfbfbf" points="508,-291.5 508,-310.5 570,-310.5 570,-291.5 508,-291.5"/>
<text text-anchor="middle" x="539" y="-298.5" font-family="Helvetica,sans-Serif" font-size="10.00">G4Orb.hh</text>
</a>
</g>
</g>
<!-- Node3&#45;&gt;Node37 -->
<g id="edge29" class="edge">
<title>Node3&#45;&gt;Node37</title>
<path fill="none" stroke="midnightblue" d="M539.83,-347.08C539.7,-340.01 539.52,-329.86 539.35,-320.99"/>
<polygon fill="midnightblue" stroke="midnightblue" points="542.85,-320.68 539.16,-310.75 535.85,-320.81 542.85,-320.68"/>
</g>
<!-- Node38 -->
<g id="node27" class="node">
<title>Node38</title>
<g id="a_node27"><a xlink:title=" ">
<polygon fill="none" stroke="#bfbfbf" points="588,-291.5 588,-310.5 766,-310.5 766,-291.5 588,-291.5"/>
<text text-anchor="middle" x="677" y="-298.5" font-family="Helvetica,sans-Serif" font-size="10.00">G4VUserDetectorConstruction.hh</text>
</a>
</g>
</g>
<!-- Node3&#45;&gt;Node38 -->
<g id="edge30" class="edge">
<title>Node3&#45;&gt;Node38</title>
<path fill="none" stroke="midnightblue" d="M561.71,-347.44C584.35,-338.52 620.07,-324.44 645.75,-314.32"/>
<polygon fill="midnightblue" stroke="midnightblue" points="647.37,-317.44 655.39,-310.52 644.81,-310.93 647.37,-317.44"/>
</g>
<!-- Node5 -->
<g id="node5" class="node">
<title>Node5</title>
<g id="a_node5"><a xlink:href="abc_detector_component_8hh.html" target="_top" xlink:title="Provides helper base class abcDetectorComponent for constructing and managing detector components in ...">
<polygon fill="none" stroke="black" points="989.5,-179.5 989.5,-198.5 1136.5,-198.5 1136.5,-179.5 989.5,-179.5"/>
<text text-anchor="middle" x="1063" y="-186.5" font-family="Helvetica,sans-Serif" font-size="10.00">abcDetectorComponent.hh</text>
</a>
</g>
</g>
<!-- Node4&#45;&gt;Node5 -->
<g id="edge4" class="edge">
<title>Node4&#45;&gt;Node5</title>
<path fill="none" stroke="midnightblue" d="M900.62,-291.49C916.97,-278.57 949.52,-253.54 979,-235 997.5,-223.37 1019.27,-211.76 1036.01,-203.25"/>
<polygon fill="midnightblue" stroke="midnightblue" points="1037.86,-206.24 1045.22,-198.62 1034.72,-199.98 1037.86,-206.24"/>
</g>
<!-- Node26 -->
<g id="node17" class="node">
<title>Node26</title>
<g id="a_node17"><a xlink:href="_o_m_sim_hit_manager_8hh.html" target="_top" xlink:title="Defines structures and classes related to optical module photon hit management.">
<polygon fill="none" stroke="black" points="686.5,-235.5 686.5,-254.5 809.5,-254.5 809.5,-235.5 686.5,-235.5"/>
<text text-anchor="middle" x="748" y="-242.5" font-family="Helvetica,sans-Serif" font-size="10.00">OMSimHitManager.hh</text>
</a>
</g>
</g>
<!-- Node4&#45;&gt;Node26 -->
<g id="edge16" class="edge">
<title>Node4&#45;&gt;Node26</title>
<path fill="none" stroke="midnightblue" d="M867.5,-291.44C843.92,-282.48 806.68,-268.31 780.04,-258.18"/>
<polygon fill="midnightblue" stroke="midnightblue" points="780.99,-254.8 770.4,-254.52 778.5,-261.34 780.99,-254.8"/>
</g>
<!-- Node34 -->
<g id="node23" class="node">
<title>Node34</title>
<g id="a_node23"><a xlink:href="_o_m_sim_p_m_t_construction_8hh.html" target="_top" xlink:title="Construction of the PMTs.">
<polygon fill="none" stroke="black" points="988.5,-235.5 988.5,-254.5 1137.5,-254.5 1137.5,-235.5 988.5,-235.5"/>
<text text-anchor="middle" x="1063" y="-242.5" font-family="Helvetica,sans-Serif" font-size="10.00">OMSimPMTConstruction.hh</text>
</a>
</g>
</g>
<!-- Node4&#45;&gt;Node34 -->
<g id="edge23" class="edge">
<title>Node4&#45;&gt;Node34</title>
<path fill="none" stroke="midnightblue" d="M917.41,-291.44C946.77,-282.28 993.52,-267.69 1026.1,-257.52"/>
<polygon fill="midnightblue" stroke="midnightblue" points="1027.21,-260.84 1035.72,-254.52 1025.13,-254.16 1027.21,-260.84"/>
</g>
<!-- Node6 -->
<g id="node6" class="node">
<title>Node6</title>
<g id="a_node6"><a xlink:href="_o_m_sim_input_data_8hh.html" target="_top" xlink:title="Definition of ParameterTable and OMSimInputData.">
<polygon fill="none" stroke="red" points="740.5,-123.5 740.5,-142.5 855.5,-142.5 855.5,-123.5 740.5,-123.5"/>
<text text-anchor="middle" x="798" y="-130.5" font-family="Helvetica,sans-Serif" font-size="10.00">OMSimInputData.hh</text>
</a>
</g>
</g>
<!-- Node5&#45;&gt;Node6 -->
<g id="edge5" class="edge">
<title>Node5&#45;&gt;Node6</title>
<path fill="none" stroke="midnightblue" d="M1021.01,-179.44C974.59,-169.98 899.77,-154.74 849.76,-144.55"/>
<polygon fill="midnightblue" stroke="midnightblue" points="850.29,-141.08 839.79,-142.52 848.89,-147.94 850.29,-141.08"/>
</g>
<!-- Node22 -->
<g id="node13" class="node">
<title>Node22</title>
<g id="a_node13"><a xlink:title=" ">
<polygon fill="none" stroke="#bfbfbf" points="1272.5,-123.5 1272.5,-142.5 1379.5,-142.5 1379.5,-123.5 1272.5,-123.5"/>
<text text-anchor="middle" x="1326" y="-130.5" font-family="Helvetica,sans-Serif" font-size="10.00">G4Transform3D.hh</text>
</a>
</g>
</g>
<!-- Node5&#45;&gt;Node22 -->
<g id="edge12" class="edge">
<title>Node5&#45;&gt;Node22</title>
<path fill="none" stroke="midnightblue" d="M1104.67,-179.44C1150.75,-169.98 1225,-154.74 1274.63,-144.55"/>
<polygon fill="midnightblue" stroke="midnightblue" points="1275.43,-147.96 1284.52,-142.52 1274.02,-141.1 1275.43,-147.96"/>
</g>
<!-- Node23 -->
<g id="node14" class="node">
<title>Node23</title>
<g id="a_node14"><a xlink:title=" ">
<polygon fill="none" stroke="#bfbfbf" points="874,-123.5 874,-142.5 982,-142.5 982,-123.5 874,-123.5"/>
<text text-anchor="middle" x="928" y="-130.5" font-family="Helvetica,sans-Serif" font-size="10.00">G4VisAttributes.hh</text>
</a>
</g>
</g>
<!-- Node5&#45;&gt;Node23 -->
<g id="edge13" class="edge">
<title>Node5&#45;&gt;Node23</title>
<path fill="none" stroke="midnightblue" d="M1041.61,-179.44C1019.29,-170.52 984.1,-156.44 958.79,-146.32"/>
<polygon fill="midnightblue" stroke="midnightblue" points="959.88,-142.98 949.29,-142.52 957.28,-149.48 959.88,-142.98"/>
</g>
<!-- Node24 -->
<g id="node15" class="node">
<title>Node24</title>
<g id="a_node15"><a xlink:title=" ">
<polygon fill="none" stroke="#bfbfbf" points="1000.5,-123.5 1000.5,-142.5 1125.5,-142.5 1125.5,-123.5 1000.5,-123.5"/>
<text text-anchor="middle" x="1063" y="-130.5" font-family="Helvetica,sans-Serif" font-size="10.00">G4SubtractionSolid.hh</text>
</a>
</g>
</g>
<!-- Node5&#45;&gt;Node24 -->
<g id="edge14" class="edge">
<title>Node5&#45;&gt;Node24</title>
<path fill="none" stroke="midnightblue" d="M1063,-179.08C1063,-172.01 1063,-161.86 1063,-152.99"/>
<polygon fill="midnightblue" stroke="midnightblue" points="1066.5,-152.75 1063,-142.75 1059.5,-152.75 1066.5,-152.75"/>
</g>
<!-- Node25 -->
<g id="node16" class="node">
<title>Node25</title>
<g id="a_node16"><a xlink:title=" ">
<polygon fill="none" stroke="#bfbfbf" points="1144,-123.5 1144,-142.5 1254,-142.5 1254,-123.5 1144,-123.5"/>
<text text-anchor="middle" x="1199" y="-130.5" font-family="Helvetica,sans-Serif" font-size="10.00">G4PVPlacement.hh</text>
</a>
</g>
</g>
<!-- Node5&#45;&gt;Node25 -->
<g id="edge15" class="edge">
<title>Node5&#45;&gt;Node25</title>
<path fill="none" stroke="midnightblue" d="M1084.55,-179.44C1107.03,-170.52 1142.49,-156.44 1167.98,-146.32"/>
<polygon fill="midnightblue" stroke="midnightblue" points="1169.55,-149.46 1177.55,-142.52 1166.97,-142.95 1169.55,-149.46"/>
</g>
<!-- Node6&#45;&gt;Node7 -->
<g id="edge6" class="edge">
<title>Node6&#45;&gt;Node7</title>
<path fill="none" stroke="midnightblue" d="M740.11,-125.43C649.12,-115.11 473.56,-95.19 381.55,-84.76"/>
<polygon fill="midnightblue" stroke="midnightblue" points="381.9,-81.27 371.57,-83.62 381.11,-88.23 381.9,-81.27"/>
</g>
<!-- Node20 -->
<g id="node12" class="node">
<title>Node20</title>
<g id="a_node12"><a xlink:title=" ">
<polygon fill="none" stroke="#bfbfbf" points="695.5,-67.5 695.5,-86.5 814.5,-86.5 814.5,-67.5 695.5,-67.5"/>
<text text-anchor="middle" x="755" y="-74.5" font-family="Helvetica,sans-Serif" font-size="10.00">G4SystemOfUnits.hh</text>
</a>
</g>
</g>
<!-- Node6&#45;&gt;Node20 -->
<g id="edge11" class="edge">
<title>Node6&#45;&gt;Node20</title>
<path fill="none" stroke="midnightblue" d="M790.9,-123.08C784.76,-115.38 775.73,-104.03 768.26,-94.65"/>
<polygon fill="midnightblue" stroke="midnightblue" points="770.94,-92.39 761.97,-86.75 765.46,-96.75 770.94,-92.39"/>
</g>
<!-- Node8 -->
<g id="node8" class="node">
<title>Node8</title>
<g id="a_node8"><a xlink:title=" ">
<polygon fill="none" stroke="#bfbfbf" points="104.5,-6 104.5,-25 197.5,-25 197.5,-6 104.5,-6"/>
<text text-anchor="middle" x="151" y="-13" font-family="Helvetica,sans-Serif" font-size="10.00">spdlog/spdlog.h</text>
</a>
</g>
</g>
<!-- Node7&#45;&gt;Node8 -->
<g id="edge7" class="edge">
<title>Node7&#45;&gt;Node8</title>
<path fill="none" stroke="midnightblue" d="M297.5,-67.48C268.04,-57.22 218.42,-39.96 185.2,-28.4"/>
<polygon fill="midnightblue" stroke="midnightblue" points="186.05,-24.99 175.45,-25.01 183.75,-31.6 186.05,-24.99"/>
</g>
<!-- Node9 -->
<g id="node9" class="node">
<title>Node9</title>
<g id="a_node9"><a xlink:title=" ">
<polygon fill="none" stroke="#bfbfbf" points="215.5,-0.5 215.5,-30.5 326.5,-30.5 326.5,-0.5 215.5,-0.5"/>
<text text-anchor="start" x="223.5" y="-18.5" font-family="Helvetica,sans-Serif" font-size="10.00">spdlog/sinks/stdout</text>
<text text-anchor="middle" x="271" y="-7.5" font-family="Helvetica,sans-Serif" font-size="10.00">_color_sinks.h</text>
</a>
</g>
</g>
<!-- Node7&#45;&gt;Node9 -->
<g id="edge8" class="edge">
<title>Node7&#45;&gt;Node9</title>
<path fill="none" stroke="midnightblue" d="M314.69,-67.48C308.17,-59.87 298.34,-48.4 289.66,-38.26"/>
<polygon fill="midnightblue" stroke="midnightblue" points="292.19,-35.84 283.02,-30.52 286.87,-40.39 292.19,-35.84"/>
</g>
<!-- Node10 -->
<g id="node10" class="node">
<title>Node10</title>
<g id="a_node10"><a xlink:title=" ">
<polygon fill="none" stroke="#bfbfbf" points="345,-6 345,-25 403,-25 403,-6 345,-6"/>
<text text-anchor="middle" x="374" y="-13" font-family="Helvetica,sans-Serif" font-size="10.00">memory</text>
</a>
</g>
</g>
<!-- Node7&#45;&gt;Node10 -->
<g id="edge9" class="edge">
<title>Node7&#45;&gt;Node10</title>
<path fill="none" stroke="midnightblue" d="M329.45,-67.48C337.33,-58.46 349.94,-44.02 359.74,-32.81"/>
<polygon fill="midnightblue" stroke="midnightblue" points="362.62,-34.84 366.56,-25.01 357.35,-30.24 362.62,-34.84"/>
</g>
<!-- Node11 -->
<g id="node11" class="node">
<title>Node11</title>
<g id="a_node11"><a xlink:title=" ">
<polygon fill="none" stroke="#bfbfbf" points="421,-6 421,-25 519,-25 519,-6 421,-6"/>
<text text-anchor="middle" x="470" y="-13" font-family="Helvetica,sans-Serif" font-size="10.00">spdlog/fmt/fmt.h</text>
</a>
</g>
</g>
<!-- Node7&#45;&gt;Node11 -->
<g id="edge10" class="edge">
<title>Node7&#45;&gt;Node11</title>
<path fill="none" stroke="midnightblue" d="M343.2,-67.48C368.37,-57.36 410.54,-40.4 439.28,-28.85"/>
<polygon fill="midnightblue" stroke="midnightblue" points="440.86,-31.99 448.83,-25.01 438.25,-25.49 440.86,-31.99"/>
</g>
<!-- Node27 -->
<g id="node18" class="node">
<title>Node27</title>
<g id="a_node18"><a xlink:href="_o_m_sim_p_m_t_response_8hh.html" target="_top" xlink:title="Simulation of PMT response.">
<polygon fill="none" stroke="red" points="836.5,-179.5 836.5,-198.5 971.5,-198.5 971.5,-179.5 836.5,-179.5"/>
<text text-anchor="middle" x="904" y="-186.5" font-family="Helvetica,sans-Serif" font-size="10.00">OMSimPMTResponse.hh</text>
</a>
</g>
</g>
<!-- Node26&#45;&gt;Node27 -->
<g id="edge17" class="edge">
<title>Node26&#45;&gt;Node27</title>
<path fill="none" stroke="midnightblue" d="M772.72,-235.44C798.85,-226.4 840.26,-212.06 869.58,-201.92"/>
<polygon fill="midnightblue" stroke="midnightblue" points="871.09,-205.1 879.4,-198.52 868.8,-198.48 871.09,-205.1"/>
</g>
<!-- Node32 -->
<g id="node19" class="node">
<title>Node32</title>
<g id="a_node19"><a xlink:title=" ">
<polygon fill="none" stroke="#bfbfbf" points="606.5,-179.5 606.5,-198.5 709.5,-198.5 709.5,-179.5 606.5,-179.5"/>
<text text-anchor="middle" x="658" y="-186.5" font-family="Helvetica,sans-Serif" font-size="10.00">G4ThreeVector.hh</text>
</a>
</g>
</g>
<!-- Node26&#45;&gt;Node32 -->
<g id="edge19" class="edge">
<title>Node26&#45;&gt;Node32</title>
<path fill="none" stroke="midnightblue" d="M733.54,-235.32C719.5,-226.9 697.95,-213.97 681.46,-204.07"/>
<polygon fill="midnightblue" stroke="midnightblue" points="682.8,-200.8 672.42,-198.65 679.2,-206.8 682.8,-200.8"/>
</g>
<!-- Node33 -->
<g id="node20" class="node">
<title>Node33</title>
<g id="a_node20"><a xlink:title=" ">
<polygon fill="none" stroke="#bfbfbf" points="420.5,-179.5 420.5,-198.5 475.5,-198.5 475.5,-179.5 420.5,-179.5"/>
<text text-anchor="middle" x="448" y="-186.5" font-family="Helvetica,sans-Serif" font-size="10.00">fstream</text>
</a>
</g>
</g>
<!-- Node26&#45;&gt;Node33 -->
<g id="edge20" class="edge">
<title>Node26&#45;&gt;Node33</title>
<path fill="none" stroke="midnightblue" d="M691.35,-235.47C640.14,-227.49 562.46,-214.74 485.68,-199.02"/>
<polygon fill="midnightblue" stroke="midnightblue" points="486.33,-195.58 475.83,-196.99 484.92,-202.44 486.33,-195.58"/>
</g>
<!-- Node18 -->
<g id="node21" class="node">
<title>Node18</title>
<g id="a_node21"><a xlink:title=" ">
<polygon fill="none" stroke="#bfbfbf" points="728,-179.5 728,-198.5 818,-198.5 818,-179.5 728,-179.5"/>
<text text-anchor="middle" x="773" y="-186.5" font-family="Helvetica,sans-Serif" font-size="10.00">G4AutoLock.hh</text>
</a>
</g>
</g>
<!-- Node26&#45;&gt;Node18 -->
<g id="edge21" class="edge">
<title>Node26&#45;&gt;Node18</title>
<path fill="none" stroke="midnightblue" d="M752.13,-235.08C755.51,-227.77 760.42,-217.18 764.62,-208.1"/>
<polygon fill="midnightblue" stroke="midnightblue" points="767.92,-209.3 768.95,-198.75 761.57,-206.36 767.92,-209.3"/>
</g>
<!-- Node19 -->
<g id="node22" class="node">
<title>Node19</title>
<g id="a_node22"><a xlink:title=" ">
<polygon fill="none" stroke="#bfbfbf" points="494,-179.5 494,-198.5 588,-198.5 588,-179.5 494,-179.5"/>
<text text-anchor="middle" x="541" y="-186.5" font-family="Helvetica,sans-Serif" font-size="10.00">G4Threading.hh</text>
</a>
</g>
</g>
<!-- Node26&#45;&gt;Node19 -->
<g id="edge22" class="edge">
<title>Node26&#45;&gt;Node19</title>
<path fill="none" stroke="midnightblue" d="M715.2,-235.44C679.62,-226.16 622.69,-211.31 583.65,-201.13"/>
<polygon fill="midnightblue" stroke="midnightblue" points="584.21,-197.65 573.65,-198.52 582.44,-204.43 584.21,-197.65"/>
</g>
<!-- Node27&#45;&gt;Node20 -->
<g id="edge18" class="edge">
<title>Node27&#45;&gt;Node20</title>
<path fill="none" stroke="midnightblue" d="M839.19,-179.47C795.87,-172.29 744.43,-160.37 731,-143 719.91,-128.66 730.2,-108.67 740.53,-94.66"/>
<polygon fill="midnightblue" stroke="midnightblue" points="743.29,-96.81 746.79,-86.81 737.82,-92.45 743.29,-96.81"/>
</g>
<!-- Node34&#45;&gt;Node5 -->
<g id="edge24" class="edge">
<title>Node34&#45;&gt;Node5</title>
<path fill="none" stroke="midnightblue" d="M1063,-235.08C1063,-228.01 1063,-217.86 1063,-208.99"/>
<polygon fill="midnightblue" stroke="midnightblue" points="1066.5,-208.75 1063,-198.75 1059.5,-208.75 1066.5,-208.75"/>
</g>
<!-- Node34&#45;&gt;Node27 -->
<g id="edge26" class="edge">
<title>Node34&#45;&gt;Node27</title>
<path fill="none" stroke="midnightblue" d="M1037.81,-235.44C1011.06,-226.36 968.6,-211.94 938.69,-201.78"/>
<polygon fill="midnightblue" stroke="midnightblue" points="939.67,-198.42 929.08,-198.52 937.42,-205.05 939.67,-198.42"/>
</g>
<!-- Node34&#45;&gt;Node34 -->
<g id="edge25" class="edge">
<title>Node34&#45;&gt;Node34</title>
<path fill="none" stroke="midnightblue" d="M1102.45,-254.53C1129.26,-257.31 1155.5,-254.13 1155.5,-245 1155.5,-237.01 1135.41,-233.58 1112.43,-234.71"/>
<polygon fill="midnightblue" stroke="midnightblue" points="1112.15,-231.22 1102.45,-235.47 1112.69,-238.2 1112.15,-231.22"/>
</g>
<!-- Node35 -->
<g id="node24" class="node">
<title>Node35</title>
<g id="a_node24"><a xlink:title=" ">
<polygon fill="none" stroke="#bfbfbf" points="1240,-179.5 1240,-198.5 1338,-198.5 1338,-179.5 1240,-179.5"/>
<text text-anchor="middle" x="1289" y="-186.5" font-family="Helvetica,sans-Serif" font-size="10.00">G4UnionSolid.hh</text>
</a>
</g>
</g>
<!-- Node34&#45;&gt;Node35 -->
<g id="edge27" class="edge">
<title>Node34&#45;&gt;Node35</title>
<path fill="none" stroke="midnightblue" d="M1098.81,-235.44C1137.99,-226.08 1200.88,-211.06 1243.52,-200.87"/>
<polygon fill="midnightblue" stroke="midnightblue" points="1244.44,-204.24 1253.36,-198.52 1242.82,-197.44 1244.44,-204.24"/>
</g>
<!-- Node36 -->
<g id="node25" class="node">
<title>Node36</title>
<g id="a_node25"><a xlink:title=" ">
<polygon fill="none" stroke="#bfbfbf" points="1154.5,-179.5 1154.5,-198.5 1221.5,-198.5 1221.5,-179.5 1154.5,-179.5"/>
<text text-anchor="middle" x="1188" y="-186.5" font-family="Helvetica,sans-Serif" font-size="10.00">G4Tubs.hh</text>
</a>
</g>
</g>
<!-- Node34&#45;&gt;Node36 -->
<g id="edge28" class="edge">
<title>Node34&#45;&gt;Node36</title>
<path fill="none" stroke="midnightblue" d="M1082.81,-235.44C1103.29,-226.6 1135.48,-212.69 1158.86,-202.59"/>
<polygon fill="midnightblue" stroke="midnightblue" points="1160.49,-205.7 1168.29,-198.52 1157.72,-199.27 1160.49,-205.7"/>
</g>
<!-- Node41&#45;&gt;Node7 -->
<g id="edge36" class="edge">
<title>Node41&#45;&gt;Node7</title>
<path fill="none" stroke="midnightblue" d="M424.99,-291.14C419.3,-278.6 408.51,-254.98 399,-235 374.95,-184.46 345.6,-125.29 331.06,-96.13"/>
<polygon fill="midnightblue" stroke="midnightblue" points="334.01,-94.2 326.41,-86.82 327.75,-97.33 334.01,-94.2"/>
</g>
<!-- Node41&#45;&gt;Node26 -->
<g id="edge35" class="edge">
<title>Node41&#45;&gt;Node26</title>
<path fill="none" stroke="midnightblue" d="M479.55,-291.44C536.01,-281.89 627.37,-266.42 687.57,-256.23"/>
<polygon fill="midnightblue" stroke="midnightblue" points="688.41,-259.64 697.69,-254.52 687.25,-252.73 688.41,-259.64"/>
</g>
<!-- Node42 -->
<g id="node31" class="node">
<title>Node42</title>
<g id="a_node31"><a xlink:title=" ">
<polygon fill="none" stroke="#bfbfbf" points="446.5,-235.5 446.5,-254.5 563.5,-254.5 563.5,-235.5 446.5,-235.5"/>
<text text-anchor="middle" x="505" y="-242.5" font-family="Helvetica,sans-Serif" font-size="10.00">G4UserRunAction.hh</text>
</a>
</g>
</g>
<!-- Node41&#45;&gt;Node42 -->
<g id="edge34" class="edge">
<title>Node41&#45;&gt;Node42</title>
<path fill="none" stroke="midnightblue" d="M441.21,-291.32C452.78,-283.11 470.38,-270.6 484.16,-260.81"/>
<polygon fill="midnightblue" stroke="midnightblue" points="486.44,-263.48 492.57,-254.83 482.39,-257.77 486.44,-263.48"/>
</g>
<!-- Node43 -->
<g id="node32" class="node">
<title>Node43</title>
<g id="a_node32"><a xlink:title=" ">
<polygon fill="none" stroke="#bfbfbf" points="582,-235.5 582,-254.5 668,-254.5 668,-235.5 582,-235.5"/>
<text text-anchor="middle" x="625" y="-242.5" font-family="Helvetica,sans-Serif" font-size="10.00">Randomize.hh</text>
</a>
</g>
</g>
<!-- Node41&#45;&gt;Node43 -->
<g id="edge37" class="edge">
<title>Node41&#45;&gt;Node43</title>
<path fill="none" stroke="midnightblue" d="M460.06,-291.44C493.6,-282.2 547.2,-267.44 584.14,-257.26"/>
<polygon fill="midnightblue" stroke="midnightblue" points="585.38,-260.55 594.09,-254.52 583.52,-253.8 585.38,-260.55"/>
</g>
<!-- Node44 -->
<g id="node33" class="node">
<title>Node44</title>
<g id="a_node33"><a xlink:title=" ">
<polygon fill="none" stroke="#bfbfbf" points="326,-235.5 326,-254.5 390,-254.5 390,-235.5 326,-235.5"/>
<text text-anchor="middle" x="358" y="-242.5" font-family="Helvetica,sans-Serif" font-size="10.00">G4Run.hh</text>
</a>
</g>
</g>
<!-- Node41&#45;&gt;Node44 -->
<g id="edge38" class="edge">
<title>Node41&#45;&gt;Node44</title>
<path fill="none" stroke="midnightblue" d="M417.59,-291.32C406.89,-283.18 390.66,-270.84 377.84,-261.09"/>
<polygon fill="midnightblue" stroke="midnightblue" points="379.69,-258.1 369.61,-254.83 375.46,-263.67 379.69,-258.1"/>
</g>
<!-- Node47 -->
<g id="node36" class="node">
<title>Node47</title>
<g id="a_node36"><a xlink:title=" ">
<polygon fill="none" stroke="#bfbfbf" points="1127.5,-291.5 1127.5,-310.5 1266.5,-310.5 1266.5,-291.5 1127.5,-291.5"/>
<text text-anchor="middle" x="1197" y="-298.5" font-family="Helvetica,sans-Serif" font-size="10.00">G4UserTrackingAction.hh</text>
</a>
</g>
</g>
<!-- Node46&#45;&gt;Node47 -->
<g id="edge41" class="edge">
<title>Node46&#45;&gt;Node47</title>
<path fill="none" stroke="midnightblue" d="M1197.83,-347.08C1197.7,-340.01 1197.52,-329.86 1197.35,-320.99"/>
<polygon fill="midnightblue" stroke="midnightblue" points="1200.85,-320.68 1197.16,-310.75 1193.85,-320.81 1200.85,-320.68"/>
</g>
<!-- Node49 -->
<g id="node38" class="node">
<title>Node49</title>
<g id="a_node38"><a xlink:title=" ">
<polygon fill="none" stroke="#bfbfbf" points="1284.5,-291.5 1284.5,-310.5 1425.5,-310.5 1425.5,-291.5 1284.5,-291.5"/>
<text text-anchor="middle" x="1355" y="-298.5" font-family="Helvetica,sans-Serif" font-size="10.00">G4UserSteppingAction.hh</text>
</a>
</g>
</g>
<!-- Node48&#45;&gt;Node49 -->
<g id="edge43" class="edge">
<title>Node48&#45;&gt;Node49</title>
<path fill="none" stroke="midnightblue" d="M1355,-347.08C1355,-340.01 1355,-329.86 1355,-320.99"/>
<polygon fill="midnightblue" stroke="midnightblue" points="1358.5,-320.75 1355,-310.75 1351.5,-320.75 1358.5,-320.75"/>
</g>
<!-- Node51 -->
<g id="node40" class="node">
<title>Node51</title>
<g id="a_node40"><a xlink:href="_o_m_sim_command_args_table_8hh.html" target="_top" xlink:title="Definition of the OMSimCommandArgsTable singleton class, which controls user args.">
<polygon fill="none" stroke="black" points="28,-235.5 28,-254.5 192,-254.5 192,-235.5 28,-235.5"/>
<text text-anchor="middle" x="110" y="-242.5" font-family="Helvetica,sans-Serif" font-size="10.00">OMSimCommandArgsTable.hh</text>
</a>
</g>
</g>
<!-- Node50&#45;&gt;Node51 -->
<g id="edge45" class="edge">
<title>Node50&#45;&gt;Node51</title>
<path fill="none" stroke="midnightblue" d="M235.39,-291.44C210.54,-282.44 171.23,-268.19 143.25,-258.05"/>
<polygon fill="midnightblue" stroke="midnightblue" points="144.09,-254.63 133.5,-254.52 141.71,-261.21 144.09,-254.63"/>
</g>
<!-- Node54 -->
<g id="node43" class="node">
<title>Node54</title>
<g id="a_node43"><a xlink:title=" ">
<polygon fill="none" stroke="#bfbfbf" points="210,-235.5 210,-254.5 308,-254.5 308,-235.5 210,-235.5"/>
<text text-anchor="middle" x="259" y="-242.5" font-family="Helvetica,sans-Serif" font-size="10.00">G4UImanager.hh</text>
</a>
</g>
</g>
<!-- Node50&#45;&gt;Node54 -->
<g id="edge50" class="edge">
<title>Node50&#45;&gt;Node54</title>
<path fill="none" stroke="midnightblue" d="M259,-291.08C259,-284.01 259,-273.86 259,-264.99"/>
<polygon fill="midnightblue" stroke="midnightblue" points="262.5,-264.75 259,-254.75 255.5,-264.75 262.5,-264.75"/>
</g>
<!-- Node51&#45;&gt;Node7 -->
<g id="edge46" class="edge">
<title>Node51&#45;&gt;Node7</title>
<path fill="none" stroke="midnightblue" d="M146.53,-235.43C170.96,-228.44 202.93,-216.78 227,-199 266.05,-170.16 297.54,-121.27 312.52,-95.34"/>
<polygon fill="midnightblue" stroke="midnightblue" points="315.58,-97.05 317.43,-86.62 309.48,-93.62 315.58,-97.05"/>
</g>
<!-- Node51&#45;&gt;Node33 -->
<g id="edge47" class="edge">
<title>Node51&#45;&gt;Node33</title>
<path fill="none" stroke="midnightblue" d="M163.56,-235.44C232.39,-224.45 350.18,-205.63 410.29,-196.02"/>
<polygon fill="midnightblue" stroke="midnightblue" points="411.15,-199.43 420.47,-194.4 410.05,-192.52 411.15,-199.43"/>
</g>
<!-- Node52 -->
<g id="node41" class="node">
<title>Node52</title>
<g id="a_node41"><a xlink:title=" ">
<polygon fill="none" stroke="#bfbfbf" points="48,-179.5 48,-198.5 132,-198.5 132,-179.5 48,-179.5"/>
<text text-anchor="middle" x="90" y="-186.5" font-family="Helvetica,sans-Serif" font-size="10.00">boost/any.hpp</text>
</a>
</g>
</g>
<!-- Node51&#45;&gt;Node52 -->
<g id="edge48" class="edge">
<title>Node51&#45;&gt;Node52</title>
<path fill="none" stroke="midnightblue" d="M106.7,-235.08C104.02,-227.85 100.15,-217.41 96.81,-208.4"/>
<polygon fill="midnightblue" stroke="midnightblue" points="100,-206.91 93.24,-198.75 93.43,-209.34 100,-206.91"/>
</g>
<!-- Node53 -->
<g id="node42" class="node">
<title>Node53</title>
<g id="a_node42"><a xlink:title=" ">
<polygon fill="none" stroke="#bfbfbf" points="150,-179.5 150,-198.5 218,-198.5 218,-179.5 150,-179.5"/>
<text text-anchor="middle" x="184" y="-186.5" font-family="Helvetica,sans-Serif" font-size="10.00">sys/time.h</text>
</a>
</g>
</g>
<!-- Node51&#45;&gt;Node53 -->
<g id="edge49" class="edge">
<title>Node51&#45;&gt;Node53</title>
<path fill="none" stroke="midnightblue" d="M121.89,-235.32C133.15,-227.11 150.29,-214.6 163.71,-204.81"/>
<polygon fill="midnightblue" stroke="midnightblue" points="165.88,-207.56 171.89,-198.83 161.75,-201.9 165.88,-207.56"/>
</g>
<!-- Node61 -->
<g id="node50" class="node">
<title>Node61</title>
<g id="a_node50"><a xlink:title=" ">
<polygon fill="none" stroke="#bfbfbf" points="1751,-347.5 1751,-366.5 1917,-366.5 1917,-347.5 1751,-347.5"/>
<text text-anchor="middle" x="1834" y="-354.5" font-family="Helvetica,sans-Serif" font-size="10.00">G4VUserActionInitialization.hh</text>
</a>
</g>
</g>
<!-- Node60&#45;&gt;Node61 -->
<g id="edge58" class="edge">
<title>Node60&#45;&gt;Node61</title>
<path fill="none" stroke="midnightblue" d="M1688.41,-403.44C1717.77,-394.28 1764.52,-379.69 1797.1,-369.52"/>
<polygon fill="midnightblue" stroke="midnightblue" points="1798.21,-372.84 1806.72,-366.52 1796.13,-366.16 1798.21,-372.84"/>
</g>
</g>
</svg>
