<?xml version="1.0" encoding="UTF-8" standalone="no"?>
<!DOCTYPE svg PUBLIC "-//W3C//DTD SVG 1.1//EN"
 "http://www.w3.org/Graphics/SVG/1.1/DTD/svg11.dtd">
<!-- Generated by graphviz version 2.43.0 (0)
 -->
<!-- Title: OMSim.cc Pages: 1 -->
<svg width="2065pt" height="487pt"
 viewBox="0.00 0.00 2064.50 487.00" xmlns="http://www.w3.org/2000/svg" xmlns:xlink="http://www.w3.org/1999/xlink">
<g id="graph0" class="graph" transform="scale(1 1) rotate(0) translate(4 483)">
<title>OMSim.cc</title>
<!-- Node1 -->
<g id="node1" class="node">
<title>Node1</title>
<g id="a_node1"><a xlink:title="Implementation of the OMSim class.">
<polygon fill="#bfbfbf" stroke="black" points="888,-459.5 888,-478.5 953,-478.5 953,-459.5 888,-459.5"/>
<text text-anchor="middle" x="920.5" y="-466.5" font-family="Helvetica,sans-Serif" font-size="10.00">OMSim.cc</text>
</a>
</g>
</g>
<!-- Node2 -->
<g id="node2" class="node">
<title>Node2</title>
<g id="a_node2"><a xlink:href="_o_m_sim_8hh.html" target="_top" xlink:title="Main simulation class for the Optical Module (OM) simulation. This file defines the OMSim class,...">
<polygon fill="none" stroke="black" points="887,-403.5 887,-422.5 954,-422.5 954,-403.5 887,-403.5"/>
<text text-anchor="middle" x="920.5" y="-410.5" font-family="Helvetica,sans-Serif" font-size="10.00">OMSim.hh</text>
</a>
</g>
</g>
<!-- Node1&#45;&gt;Node2 -->
<g id="edge1" class="edge">
<title>Node1&#45;&gt;Node2</title>
<path fill="none" stroke="midnightblue" d="M920.5,-459.08C920.5,-452.01 920.5,-441.86 920.5,-432.99"/>
<polygon fill="midnightblue" stroke="midnightblue" points="924,-432.75 920.5,-422.75 917,-432.75 924,-432.75"/>
</g>
<!-- Node7 -->
<g id="node7" class="node">
<title>Node7</title>
<g id="a_node7"><a xlink:href="_o_m_sim_logger_8hh_source.html" target="_top" xlink:title=" ">
<polygon fill="none" stroke="black" points="168,-67.5 168,-86.5 267,-86.5 267,-67.5 168,-67.5"/>
<text text-anchor="middle" x="217.5" y="-74.5" font-family="Helvetica,sans-Serif" font-size="10.00">OMSimLogger.hh</text>
</a>
</g>
</g>
<!-- Node1&#45;&gt;Node7 -->
<g id="edge56" class="edge">
<title>Node1&#45;&gt;Node7</title>
<path fill="none" stroke="midnightblue" d="M887.77,-467.28C748.08,-464.05 205.71,-449.87 134.5,-423 90.66,-406.46 51.5,-404.85 51.5,-358 51.5,-358 51.5,-358 51.5,-188 51.5,-132.37 117.09,-103.21 165.81,-89.23"/>
<polygon fill="midnightblue" stroke="midnightblue" points="166.89,-92.56 175.61,-86.55 165.04,-85.81 166.89,-92.56"/>
</g>
<!-- Node58 -->
<g id="node45" class="node">
<title>Node58</title>
<g id="a_node45"><a xlink:title=" ">
<polygon fill="none" stroke="#bfbfbf" points="1722.5,-347.5 1722.5,-366.5 1872.5,-366.5 1872.5,-347.5 1722.5,-347.5"/>
<text text-anchor="middle" x="1797.5" y="-354.5" font-family="Helvetica,sans-Serif" font-size="10.00">boost/program_options.hpp</text>
</a>
</g>
</g>
<!-- Node1&#45;&gt;Node58 -->
<g id="edge59" class="edge">
<title>Node1&#45;&gt;Node58</title>
<path fill="none" stroke="midnightblue" d="M953.02,-463.92C1078.74,-448.15 1535.2,-390.9 1719.51,-367.78"/>
<polygon fill="midnightblue" stroke="midnightblue" points="1720.18,-371.22 1729.67,-366.51 1719.31,-364.28 1720.18,-371.22"/>
</g>
<!-- Node59 -->
<g id="node46" class="node">
<title>Node59</title>
<g id="a_node46"><a xlink:href="_o_m_sim_tools_8hh.html" target="_top" xlink:title=" ">
<polygon fill="none" stroke="black" points="143.5,-403.5 143.5,-422.5 235.5,-422.5 235.5,-403.5 143.5,-403.5"/>
<text text-anchor="middle" x="189.5" y="-410.5" font-family="Helvetica,sans-Serif" font-size="10.00">OMSimTools.hh</text>
</a>
</g>
</g>
<!-- Node1&#45;&gt;Node59 -->
<g id="edge52" class="edge">
<title>Node1&#45;&gt;Node59</title>
<path fill="none" stroke="midnightblue" d="M887.67,-465.57C773.18,-457.12 390.68,-428.86 245.78,-418.16"/>
<polygon fill="midnightblue" stroke="midnightblue" points="246,-414.66 235.77,-417.42 245.48,-421.65 246,-414.66"/>
</g>
<!-- Node62 -->
<g id="node49" class="node">
<title>Node62</title>
<g id="a_node49"><a xlink:href="_o_m_sim_action_initialization_8hh_source.html" target="_top" xlink:title=" ">
<polygon fill="none" stroke="black" points="1697.5,-403.5 1697.5,-422.5 1855.5,-422.5 1855.5,-403.5 1697.5,-403.5"/>
<text text-anchor="middle" x="1776.5" y="-410.5" font-family="Helvetica,sans-Serif" font-size="10.00">OMSimActionInitialization.hh</text>
</a>
</g>
</g>
<!-- Node1&#45;&gt;Node62 -->
<g id="edge57" class="edge">
<title>Node1&#45;&gt;Node62</title>
<path fill="none" stroke="midnightblue" d="M953.01,-465.95C1073.93,-458.32 1500.35,-431.42 1687.42,-419.62"/>
<polygon fill="midnightblue" stroke="midnightblue" points="1687.74,-423.11 1697.49,-418.98 1687.29,-416.12 1687.74,-423.11"/>
</g>
<!-- Node3 -->
<g id="node3" class="node">
<title>Node3</title>
<g id="a_node3"><a xlink:href="_o_m_sim_detector_construction_8hh_source.html" target="_top" xlink:title=" ">
<polygon fill="none" stroke="black" points="892.5,-347.5 892.5,-366.5 1062.5,-366.5 1062.5,-347.5 892.5,-347.5"/>
<text text-anchor="middle" x="977.5" y="-354.5" font-family="Helvetica,sans-Serif" font-size="10.00">OMSimDetectorConstruction.hh</text>
</a>
</g>
</g>
<!-- Node2&#45;&gt;Node3 -->
<g id="edge2" class="edge">
<title>Node2&#45;&gt;Node3</title>
<path fill="none" stroke="midnightblue" d="M929.66,-403.32C938,-395.42 950.53,-383.55 960.68,-373.94"/>
<polygon fill="midnightblue" stroke="midnightblue" points="963.32,-376.25 968.18,-366.83 958.51,-371.17 963.32,-376.25"/>
</g>
<!-- Node39 -->
<g id="node26" class="node">
<title>Node39</title>
<g id="a_node26"><a xlink:title=" ">
<polygon fill="none" stroke="#bfbfbf" points="1081,-347.5 1081,-366.5 1202,-366.5 1202,-347.5 1081,-347.5"/>
<text text-anchor="middle" x="1141.5" y="-354.5" font-family="Helvetica,sans-Serif" font-size="10.00">OMSimPhysicsList.hh</text>
</a>
</g>
</g>
<!-- Node2&#45;&gt;Node39 -->
<g id="edge28" class="edge">
<title>Node2&#45;&gt;Node39</title>
<path fill="none" stroke="midnightblue" d="M954.07,-403.8C992.18,-394.48 1054.55,-379.24 1096.78,-368.93"/>
<polygon fill="midnightblue" stroke="midnightblue" points="1097.64,-372.32 1106.52,-366.55 1095.98,-365.52 1097.64,-372.32"/>
</g>
<!-- Node40 -->
<g id="node27" class="node">
<title>Node40</title>
<g id="a_node27"><a xlink:title=" ">
<polygon fill="none" stroke="#bfbfbf" points="1220,-347.5 1220,-366.5 1405,-366.5 1405,-347.5 1220,-347.5"/>
<text text-anchor="middle" x="1312.5" y="-354.5" font-family="Helvetica,sans-Serif" font-size="10.00">OMSimPrimaryGeneratorAction.hh</text>
</a>
</g>
</g>
<!-- Node2&#45;&gt;Node40 -->
<g id="edge29" class="edge">
<title>Node2&#45;&gt;Node40</title>
<path fill="none" stroke="midnightblue" d="M954.26,-407.35C1017.61,-398.62 1155.58,-379.62 1240.6,-367.9"/>
<polygon fill="midnightblue" stroke="midnightblue" points="1241.27,-371.35 1250.7,-366.51 1240.32,-364.41 1241.27,-371.35"/>
</g>
<!-- Node41 -->
<g id="node28" class="node">
<title>Node41</title>
<g id="a_node28"><a xlink:href="_o_m_sim_run_action_8hh_source.html" target="_top" xlink:title=" ">
<polygon fill="none" stroke="black" points="638.5,-291.5 638.5,-310.5 754.5,-310.5 754.5,-291.5 638.5,-291.5"/>
<text text-anchor="middle" x="696.5" y="-298.5" font-family="Helvetica,sans-Serif" font-size="10.00">OMSimRunAction.hh</text>
</a>
</g>
</g>
<!-- Node2&#45;&gt;Node41 -->
<g id="edge30" class="edge">
<title>Node2&#45;&gt;Node41</title>
<path fill="none" stroke="midnightblue" d="M911.96,-403.16C898.15,-389.34 869.51,-362.57 840.5,-347 811.39,-331.38 776.01,-320.22 747.6,-312.93"/>
<polygon fill="midnightblue" stroke="midnightblue" points="748.42,-309.53 737.87,-310.51 746.73,-316.32 748.42,-309.53"/>
</g>
<!-- Node45 -->
<g id="node32" class="node">
<title>Node45</title>
<g id="a_node32"><a xlink:title=" ">
<polygon fill="none" stroke="#bfbfbf" points="1423,-347.5 1423,-366.5 1548,-366.5 1548,-347.5 1423,-347.5"/>
<text text-anchor="middle" x="1485.5" y="-354.5" font-family="Helvetica,sans-Serif" font-size="10.00">OMSimEventAction.hh</text>
</a>
</g>
</g>
<!-- Node2&#45;&gt;Node45 -->
<g id="edge36" class="edge">
<title>Node2&#45;&gt;Node45</title>
<path fill="none" stroke="midnightblue" d="M954.01,-409.33C1032.25,-403.01 1233.25,-386.3 1412.54,-367.07"/>
<polygon fill="midnightblue" stroke="midnightblue" points="1413.12,-370.53 1422.69,-365.98 1412.37,-363.57 1413.12,-370.53"/>
</g>
<!-- Node46 -->
<g id="node33" class="node">
<title>Node46</title>
<g id="a_node33"><a xlink:href="_o_m_sim_tracking_action_8hh_source.html" target="_top" xlink:title=" ">
<polygon fill="none" stroke="black" points="1566.5,-347.5 1566.5,-366.5 1704.5,-366.5 1704.5,-347.5 1566.5,-347.5"/>
<text text-anchor="middle" x="1635.5" y="-354.5" font-family="Helvetica,sans-Serif" font-size="10.00">OMSimTrackingAction.hh</text>
</a>
</g>
</g>
<!-- Node2&#45;&gt;Node46 -->
<g id="edge37" class="edge">
<title>Node2&#45;&gt;Node46</title>
<path fill="none" stroke="midnightblue" d="M954.33,-410.12C1047.99,-404.8 1318.86,-388.68 1555.96,-367.01"/>
<polygon fill="midnightblue" stroke="midnightblue" points="1556.52,-370.47 1566.16,-366.07 1555.88,-363.5 1556.52,-370.47"/>
</g>
<!-- Node48 -->
<g id="node35" class="node">
<title>Node48</title>
<g id="a_node35"><a xlink:href="_o_m_sim_stepping_action_8hh.html" target="_top" xlink:title="Defines OMSimSteppingAction.Currently it only checks for trapped photons.">
<polygon fill="none" stroke="black" points="272.5,-347.5 272.5,-366.5 412.5,-366.5 412.5,-347.5 272.5,-347.5"/>
<text text-anchor="middle" x="342.5" y="-354.5" font-family="Helvetica,sans-Serif" font-size="10.00">OMSimSteppingAction.hh</text>
</a>
</g>
</g>
<!-- Node2&#45;&gt;Node48 -->
<g id="edge39" class="edge">
<title>Node2&#45;&gt;Node48</title>
<path fill="none" stroke="midnightblue" d="M886.89,-409.24C807.9,-402.71 604.06,-385.5 422.69,-367.1"/>
<polygon fill="midnightblue" stroke="midnightblue" points="423.01,-363.61 412.7,-366.08 422.3,-370.58 423.01,-363.61"/>
</g>
<!-- Node50 -->
<g id="node37" class="node">
<title>Node50</title>
<g id="a_node37"><a xlink:href="_o_m_sim_u_iinterface_8hh.html" target="_top" xlink:title=" ">
<polygon fill="none" stroke="black" points="368,-291.5 368,-310.5 489,-310.5 489,-291.5 368,-291.5"/>
<text text-anchor="middle" x="428.5" y="-298.5" font-family="Helvetica,sans-Serif" font-size="10.00">OMSimUIinterface.hh</text>
</a>
</g>
</g>
<!-- Node2&#45;&gt;Node50 -->
<g id="edge41" class="edge">
<title>Node2&#45;&gt;Node50</title>
<path fill="none" stroke="midnightblue" d="M905.11,-403.46C888.97,-394.47 862.88,-379.87 840.5,-367 825.3,-358.26 823.11,-352.6 806.5,-347 751.27,-328.38 592.69,-314.06 499.41,-306.95"/>
<polygon fill="midnightblue" stroke="midnightblue" points="499.44,-303.44 489.2,-306.18 498.91,-310.42 499.44,-303.44"/>
</g>
<!-- Node55 -->
<g id="node42" class="node">
<title>Node55</title>
<g id="a_node42"><a xlink:title=" ">
<polygon fill="none" stroke="#bfbfbf" points="431,-347.5 431,-366.5 552,-366.5 552,-347.5 431,-347.5"/>
<text text-anchor="middle" x="491.5" y="-354.5" font-family="Helvetica,sans-Serif" font-size="10.00">G4MTRunManager.hh</text>
</a>
</g>
</g>
<!-- Node2&#45;&gt;Node55 -->
<g id="edge48" class="edge">
<title>Node2&#45;&gt;Node55</title>
<path fill="none" stroke="midnightblue" d="M886.74,-407.84C824.66,-400.18 687.92,-383.24 562.26,-367.22"/>
<polygon fill="midnightblue" stroke="midnightblue" points="562.44,-363.71 552.08,-365.92 561.56,-370.66 562.44,-363.71"/>
</g>
<!-- Node56 -->
<g id="node43" class="node">
<title>Node56</title>
<g id="a_node43"><a xlink:title=" ">
<polygon fill="none" stroke="#bfbfbf" points="570,-347.5 570,-366.5 677,-366.5 677,-347.5 570,-347.5"/>
<text text-anchor="middle" x="623.5" y="-354.5" font-family="Helvetica,sans-Serif" font-size="10.00">G4VisExecutive.hh</text>
</a>
</g>
</g>
<!-- Node2&#45;&gt;Node56 -->
<g id="edge49" class="edge">
<title>Node2&#45;&gt;Node56</title>
<path fill="none" stroke="midnightblue" d="M886.72,-405.86C836.46,-396.72 741.36,-379.43 680.28,-368.32"/>
<polygon fill="midnightblue" stroke="midnightblue" points="680.88,-364.88 670.41,-366.53 679.63,-371.76 680.88,-364.88"/>
</g>
<!-- Node57 -->
<g id="node44" class="node">
<title>Node57</title>
<g id="a_node44"><a xlink:title=" ">
<polygon fill="none" stroke="#bfbfbf" points="695,-347.5 695,-366.5 798,-366.5 798,-347.5 695,-347.5"/>
<text text-anchor="middle" x="746.5" y="-354.5" font-family="Helvetica,sans-Serif" font-size="10.00">G4UIExecutive.hh</text>
</a>
</g>
</g>
<!-- Node2&#45;&gt;Node57 -->
<g id="edge50" class="edge">
<title>Node2&#45;&gt;Node57</title>
<path fill="none" stroke="midnightblue" d="M892.93,-403.44C863.4,-394.28 816.38,-379.69 783.62,-369.52"/>
<polygon fill="midnightblue" stroke="midnightblue" points="784.53,-366.14 773.94,-366.52 782.46,-372.82 784.53,-366.14"/>
</g>
<!-- Node2&#45;&gt;Node58 -->
<g id="edge51" class="edge">
<title>Node2&#45;&gt;Node58</title>
<path fill="none" stroke="midnightblue" d="M954.16,-410.69C1062.46,-406.36 1411.77,-391.4 1712.19,-367.07"/>
<polygon fill="midnightblue" stroke="midnightblue" points="1712.73,-370.53 1722.41,-366.23 1712.16,-363.56 1712.73,-370.53"/>
</g>
<!-- Node4 -->
<g id="node4" class="node">
<title>Node4</title>
<g id="a_node4"><a xlink:href="_o_m_sim_optical_module_8hh_source.html" target="_top" xlink:title=" ">
<polygon fill="none" stroke="black" points="850,-291.5 850,-310.5 987,-310.5 987,-291.5 850,-291.5"/>
<text text-anchor="middle" x="918.5" y="-298.5" font-family="Helvetica,sans-Serif" font-size="10.00">OMSimOpticalModule.hh</text>
</a>
</g>
</g>
<!-- Node3&#45;&gt;Node4 -->
<g id="edge3" class="edge">
<title>Node3&#45;&gt;Node4</title>
<path fill="none" stroke="midnightblue" d="M968.02,-347.32C959.3,-339.34 946.16,-327.31 935.6,-317.65"/>
<polygon fill="midnightblue" stroke="midnightblue" points="937.89,-315 928.15,-310.83 933.17,-320.17 937.89,-315"/>
</g>
<!-- Node37 -->
<g id="node24" class="node">
<title>Node37</title>
<g id="a_node24"><a xlink:title=" ">
<polygon fill="none" stroke="#bfbfbf" points="1005.5,-291.5 1005.5,-310.5 1067.5,-310.5 1067.5,-291.5 1005.5,-291.5"/>
<text text-anchor="middle" x="1036.5" y="-298.5" font-family="Helvetica,sans-Serif" font-size="10.00">G4Orb.hh</text>
</a>
</g>
</g>
<!-- Node3&#45;&gt;Node37 -->
<g id="edge26" class="edge">
<title>Node3&#45;&gt;Node37</title>
<path fill="none" stroke="midnightblue" d="M986.98,-347.32C995.7,-339.34 1008.84,-327.31 1019.4,-317.65"/>
<polygon fill="midnightblue" stroke="midnightblue" points="1021.83,-320.17 1026.85,-310.83 1017.11,-315 1021.83,-320.17"/>
</g>
<!-- Node38 -->
<g id="node25" class="node">
<title>Node38</title>
<g id="a_node25"><a xlink:title=" ">
<polygon fill="none" stroke="#bfbfbf" points="1085.5,-291.5 1085.5,-310.5 1263.5,-310.5 1263.5,-291.5 1085.5,-291.5"/>
<text text-anchor="middle" x="1174.5" y="-298.5" font-family="Helvetica,sans-Serif" font-size="10.00">G4VUserDetectorConstruction.hh</text>
</a>
</g>
</g>
<!-- Node3&#45;&gt;Node38 -->
<g id="edge27" class="edge">
<title>Node3&#45;&gt;Node38</title>
<path fill="none" stroke="midnightblue" d="M1008.72,-347.44C1042.43,-338.2 1096.3,-323.44 1133.43,-313.26"/>
<polygon fill="midnightblue" stroke="midnightblue" points="1134.71,-316.54 1143.43,-310.52 1132.86,-309.78 1134.71,-316.54"/>
</g>
<!-- Node5 -->
<g id="node5" class="node">
<title>Node5</title>
<g id="a_node5"><a xlink:href="abc_detector_component_8hh.html" target="_top" xlink:title="Provides helper base class abcDetectorComponent for constructing and managing detector components in ...">
<polygon fill="none" stroke="black" points="1158,-179.5 1158,-198.5 1305,-198.5 1305,-179.5 1158,-179.5"/>
<text text-anchor="middle" x="1231.5" y="-186.5" font-family="Helvetica,sans-Serif" font-size="10.00">abcDetectorComponent.hh</text>
</a>
</g>
</g>
<!-- Node4&#45;&gt;Node5 -->
<g id="edge4" class="edge">
<title>Node4&#45;&gt;Node5</title>
<path fill="none" stroke="midnightblue" d="M980.16,-291.46C1038.32,-282.8 1120.86,-268.73 1150.5,-255 1176.41,-242.99 1201.27,-220.96 1216.45,-205.91"/>
<polygon fill="midnightblue" stroke="midnightblue" points="1218.96,-208.35 1223.47,-198.76 1213.97,-203.44 1218.96,-208.35"/>
</g>
<!-- Node26 -->
<g id="node16" class="node">
<title>Node26</title>
<g id="a_node16"><a xlink:href="_o_m_sim_hit_manager_8hh.html" target="_top" xlink:title="Defines structures and classes related to optical module photon hit management.">
<polygon fill="none" stroke="black" points="794,-235.5 794,-254.5 917,-254.5 917,-235.5 794,-235.5"/>
<text text-anchor="middle" x="855.5" y="-242.5" font-family="Helvetica,sans-Serif" font-size="10.00">OMSimHitManager.hh</text>
</a>
</g>
</g>
<!-- Node4&#45;&gt;Node26 -->
<g id="edge15" class="edge">
<title>Node4&#45;&gt;Node26</title>
<path fill="none" stroke="midnightblue" d="M908.38,-291.32C898.97,-283.26 884.76,-271.08 873.43,-261.37"/>
<polygon fill="midnightblue" stroke="midnightblue" points="875.68,-258.68 865.81,-254.83 871.12,-264 875.68,-258.68"/>
</g>
<!-- Node34 -->
<g id="node22" class="node">
<title>Node34</title>
<g id="a_node22"><a xlink:href="_o_m_sim_p_m_t_construction_8hh.html" target="_top" xlink:title="Construction of the PMTs.">
<polygon fill="none" stroke="red" points="975,-235.5 975,-254.5 1124,-254.5 1124,-235.5 975,-235.5"/>
<text text-anchor="middle" x="1049.5" y="-242.5" font-family="Helvetica,sans-Serif" font-size="10.00">OMSimPMTConstruction.hh</text>
</a>
</g>
</g>
<!-- Node4&#45;&gt;Node34 -->
<g id="edge21" class="edge">
<title>Node4&#45;&gt;Node34</title>
<path fill="none" stroke="midnightblue" d="M939.26,-291.44C960.82,-282.56 994.76,-268.56 1019.29,-258.45"/>
<polygon fill="midnightblue" stroke="midnightblue" points="1020.93,-261.56 1028.84,-254.52 1018.26,-255.09 1020.93,-261.56"/>
</g>
<!-- Node6 -->
<g id="node6" class="node">
<title>Node6</title>
<g id="a_node6"><a xlink:href="_o_m_sim_input_data_8hh.html" target="_top" xlink:title="Definition of ParameterTable and OMSimInputData.">
<polygon fill="none" stroke="red" points="691,-123.5 691,-142.5 806,-142.5 806,-123.5 691,-123.5"/>
<text text-anchor="middle" x="748.5" y="-130.5" font-family="Helvetica,sans-Serif" font-size="10.00">OMSimInputData.hh</text>
</a>
</g>
</g>
<!-- Node5&#45;&gt;Node6 -->
<g id="edge5" class="edge">
<title>Node5&#45;&gt;Node6</title>
<path fill="none" stroke="midnightblue" d="M1157.88,-179.77C1064.94,-169.38 906.34,-151.65 816.26,-141.58"/>
<polygon fill="midnightblue" stroke="midnightblue" points="816.49,-138.08 806.16,-140.45 815.71,-145.04 816.49,-138.08"/>
</g>
<!-- Node22 -->
<g id="node12" class="node">
<title>Node22</title>
<g id="a_node12"><a xlink:title=" ">
<polygon fill="none" stroke="#bfbfbf" points="1373,-123.5 1373,-142.5 1480,-142.5 1480,-123.5 1373,-123.5"/>
<text text-anchor="middle" x="1426.5" y="-130.5" font-family="Helvetica,sans-Serif" font-size="10.00">G4Transform3D.hh</text>
</a>
</g>
</g>
<!-- Node5&#45;&gt;Node22 -->
<g id="edge11" class="edge">
<title>Node5&#45;&gt;Node22</title>
<path fill="none" stroke="midnightblue" d="M1262.4,-179.44C1295.77,-170.2 1349.09,-155.44 1385.85,-145.26"/>
<polygon fill="midnightblue" stroke="midnightblue" points="1387.04,-148.56 1395.75,-142.52 1385.17,-141.81 1387.04,-148.56"/>
</g>
<!-- Node23 -->
<g id="node13" class="node">
<title>Node23</title>
<g id="a_node13"><a xlink:title=" ">
<polygon fill="none" stroke="#bfbfbf" points="974.5,-123.5 974.5,-142.5 1082.5,-142.5 1082.5,-123.5 974.5,-123.5"/>
<text text-anchor="middle" x="1028.5" y="-130.5" font-family="Helvetica,sans-Serif" font-size="10.00">G4VisAttributes.hh</text>
</a>
</g>
</g>
<!-- Node5&#45;&gt;Node23 -->
<g id="edge12" class="edge">
<title>Node5&#45;&gt;Node23</title>
<path fill="none" stroke="midnightblue" d="M1199.33,-179.44C1164.44,-170.16 1108.61,-155.31 1070.33,-145.13"/>
<polygon fill="midnightblue" stroke="midnightblue" points="1071.08,-141.7 1060.52,-142.52 1069.28,-148.47 1071.08,-141.7"/>
</g>
<!-- Node24 -->
<g id="node14" class="node">
<title>Node24</title>
<g id="a_node14"><a xlink:title=" ">
<polygon fill="none" stroke="#bfbfbf" points="1101,-123.5 1101,-142.5 1226,-142.5 1226,-123.5 1101,-123.5"/>
<text text-anchor="middle" x="1163.5" y="-130.5" font-family="Helvetica,sans-Serif" font-size="10.00">G4SubtractionSolid.hh</text>
</a>
</g>
</g>
<!-- Node5&#45;&gt;Node24 -->
<g id="edge13" class="edge">
<title>Node5&#45;&gt;Node24</title>
<path fill="none" stroke="midnightblue" d="M1220.57,-179.32C1210.33,-171.18 1194.78,-158.84 1182.5,-149.09"/>
<polygon fill="midnightblue" stroke="midnightblue" points="1184.63,-146.31 1174.62,-142.83 1180.28,-151.79 1184.63,-146.31"/>
</g>
<!-- Node25 -->
<g id="node15" class="node">
<title>Node25</title>
<g id="a_node15"><a xlink:title=" ">
<polygon fill="none" stroke="#bfbfbf" points="1244.5,-123.5 1244.5,-142.5 1354.5,-142.5 1354.5,-123.5 1244.5,-123.5"/>
<text text-anchor="middle" x="1299.5" y="-130.5" font-family="Helvetica,sans-Serif" font-size="10.00">G4PVPlacement.hh</text>
</a>
</g>
</g>
<!-- Node5&#45;&gt;Node25 -->
<g id="edge14" class="edge">
<title>Node5&#45;&gt;Node25</title>
<path fill="none" stroke="midnightblue" d="M1242.43,-179.32C1252.67,-171.18 1268.22,-158.84 1280.5,-149.09"/>
<polygon fill="midnightblue" stroke="midnightblue" points="1282.72,-151.79 1288.38,-142.83 1278.37,-146.31 1282.72,-151.79"/>
</g>
<!-- Node6&#45;&gt;Node7 -->
<g id="edge6" class="edge">
<title>Node6&#45;&gt;Node7</title>
<path fill="none" stroke="midnightblue" d="M690.92,-126.14C589.55,-115.84 380.27,-94.55 277.33,-84.08"/>
<polygon fill="midnightblue" stroke="midnightblue" points="277.42,-80.58 267.11,-83.05 276.71,-87.54 277.42,-80.58"/>
</g>
<!-- Node8 -->
<g id="node8" class="node">
<title>Node8</title>
<g id="a_node8"><a xlink:title=" ">
<polygon fill="none" stroke="#bfbfbf" points="0,-6 0,-25 93,-25 93,-6 0,-6"/>
<text text-anchor="middle" x="46.5" y="-13" font-family="Helvetica,sans-Serif" font-size="10.00">spdlog/spdlog.h</text>
</a>
</g>
</g>
<!-- Node7&#45;&gt;Node8 -->
<g id="edge7" class="edge">
<title>Node7&#45;&gt;Node8</title>
<path fill="none" stroke="midnightblue" d="M193,-67.48C163.54,-57.22 113.92,-39.96 80.7,-28.4"/>
<polygon fill="midnightblue" stroke="midnightblue" points="81.55,-24.99 70.95,-25.01 79.25,-31.6 81.55,-24.99"/>
</g>
<!-- Node9 -->
<g id="node9" class="node">
<title>Node9</title>
<g id="a_node9"><a xlink:title=" ">
<polygon fill="none" stroke="#bfbfbf" points="111,-0.5 111,-30.5 222,-30.5 222,-0.5 111,-0.5"/>
<text text-anchor="start" x="119" y="-18.5" font-family="Helvetica,sans-Serif" font-size="10.00">spdlog/sinks/stdout</text>
<text text-anchor="middle" x="166.5" y="-7.5" font-family="Helvetica,sans-Serif" font-size="10.00">_color_sinks.h</text>
</a>
</g>
</g>
<!-- Node7&#45;&gt;Node9 -->
<g id="edge8" class="edge">
<title>Node7&#45;&gt;Node9</title>
<path fill="none" stroke="midnightblue" d="M210.19,-67.48C203.67,-59.87 193.84,-48.4 185.16,-38.26"/>
<polygon fill="midnightblue" stroke="midnightblue" points="187.69,-35.84 178.52,-30.52 182.37,-40.39 187.69,-35.84"/>
</g>
<!-- Node10 -->
<g id="node10" class="node">
<title>Node10</title>
<g id="a_node10"><a xlink:title=" ">
<polygon fill="none" stroke="#bfbfbf" points="240.5,-6 240.5,-25 298.5,-25 298.5,-6 240.5,-6"/>
<text text-anchor="middle" x="269.5" y="-13" font-family="Helvetica,sans-Serif" font-size="10.00">memory</text>
</a>
</g>
</g>
<!-- Node7&#45;&gt;Node10 -->
<g id="edge9" class="edge">
<title>Node7&#45;&gt;Node10</title>
<path fill="none" stroke="midnightblue" d="M224.95,-67.48C232.83,-58.46 245.44,-44.02 255.24,-32.81"/>
<polygon fill="midnightblue" stroke="midnightblue" points="258.12,-34.84 262.06,-25.01 252.85,-30.24 258.12,-34.84"/>
</g>
<!-- Node11 -->
<g id="node11" class="node">
<title>Node11</title>
<g id="a_node11"><a xlink:title=" ">
<polygon fill="none" stroke="#bfbfbf" points="316.5,-6 316.5,-25 414.5,-25 414.5,-6 316.5,-6"/>
<text text-anchor="middle" x="365.5" y="-13" font-family="Helvetica,sans-Serif" font-size="10.00">spdlog/fmt/fmt.h</text>
</a>
</g>
</g>
<!-- Node7&#45;&gt;Node11 -->
<g id="edge10" class="edge">
<title>Node7&#45;&gt;Node11</title>
<path fill="none" stroke="midnightblue" d="M238.7,-67.48C263.87,-57.36 306.04,-40.4 334.78,-28.85"/>
<polygon fill="midnightblue" stroke="midnightblue" points="336.36,-31.99 344.33,-25.01 333.75,-25.49 336.36,-31.99"/>
</g>
<!-- Node27 -->
<g id="node17" class="node">
<title>Node27</title>
<g id="a_node17"><a xlink:href="_o_m_sim_p_m_t_response_8hh.html" target="_top" xlink:title="Simulation of PMT response.">
<polygon fill="none" stroke="red" points="888,-179.5 888,-198.5 1023,-198.5 1023,-179.5 888,-179.5"/>
<text text-anchor="middle" x="955.5" y="-186.5" font-family="Helvetica,sans-Serif" font-size="10.00">OMSimPMTResponse.hh</text>
</a>
</g>
</g>
<!-- Node26&#45;&gt;Node27 -->
<g id="edge16" class="edge">
<title>Node26&#45;&gt;Node27</title>
<path fill="none" stroke="midnightblue" d="M871.57,-235.32C887.46,-226.74 912.01,-213.49 930.46,-203.52"/>
<polygon fill="midnightblue" stroke="midnightblue" points="932.34,-206.49 939.47,-198.65 929.01,-200.33 932.34,-206.49"/>
</g>
<!-- Node32 -->
<g id="node18" class="node">
<title>Node32</title>
<g id="a_node18"><a xlink:title=" ">
<polygon fill="none" stroke="#bfbfbf" points="658,-179.5 658,-198.5 761,-198.5 761,-179.5 658,-179.5"/>
<text text-anchor="middle" x="709.5" y="-186.5" font-family="Helvetica,sans-Serif" font-size="10.00">G4ThreeVector.hh</text>
</a>
</g>
</g>
<!-- Node26&#45;&gt;Node32 -->
<g id="edge17" class="edge">
<title>Node26&#45;&gt;Node32</title>
<path fill="none" stroke="midnightblue" d="M832.37,-235.44C808.02,-226.44 769.49,-212.19 742.08,-202.05"/>
<polygon fill="midnightblue" stroke="midnightblue" points="743.12,-198.7 732.53,-198.52 740.69,-205.27 743.12,-198.7"/>
</g>
<!-- Node33 -->
<g id="node19" class="node">
<title>Node33</title>
<g id="a_node19"><a xlink:title=" ">
<polygon fill="none" stroke="#bfbfbf" points="472,-179.5 472,-198.5 527,-198.5 527,-179.5 472,-179.5"/>
<text text-anchor="middle" x="499.5" y="-186.5" font-family="Helvetica,sans-Serif" font-size="10.00">fstream</text>
</a>
</g>
</g>
<!-- Node26&#45;&gt;Node33 -->
<g id="edge18" class="edge">
<title>Node26&#45;&gt;Node33</title>
<path fill="none" stroke="midnightblue" d="M793.66,-236.01C719.52,-226.32 598.58,-210.09 537.33,-198.96"/>
<polygon fill="midnightblue" stroke="midnightblue" points="537.79,-195.48 527.32,-197.08 536.5,-202.36 537.79,-195.48"/>
</g>
<!-- Node18 -->
<g id="node20" class="node">
<title>Node18</title>
<g id="a_node20"><a xlink:title=" ">
<polygon fill="none" stroke="#bfbfbf" points="779.5,-179.5 779.5,-198.5 869.5,-198.5 869.5,-179.5 779.5,-179.5"/>
<text text-anchor="middle" x="824.5" y="-186.5" font-family="Helvetica,sans-Serif" font-size="10.00">G4AutoLock.hh</text>
</a>
</g>
</g>
<!-- Node26&#45;&gt;Node18 -->
<g id="edge19" class="edge">
<title>Node26&#45;&gt;Node18</title>
<path fill="none" stroke="midnightblue" d="M850.38,-235.08C846.09,-227.61 839.84,-216.72 834.56,-207.52"/>
<polygon fill="midnightblue" stroke="midnightblue" points="837.54,-205.68 829.52,-198.75 831.47,-209.17 837.54,-205.68"/>
</g>
<!-- Node19 -->
<g id="node21" class="node">
<title>Node19</title>
<g id="a_node21"><a xlink:title=" ">
<polygon fill="none" stroke="#bfbfbf" points="545.5,-179.5 545.5,-198.5 639.5,-198.5 639.5,-179.5 545.5,-179.5"/>
<text text-anchor="middle" x="592.5" y="-186.5" font-family="Helvetica,sans-Serif" font-size="10.00">G4Threading.hh</text>
</a>
</g>
</g>
<!-- Node26&#45;&gt;Node19 -->
<g id="edge20" class="edge">
<title>Node26&#45;&gt;Node19</title>
<path fill="none" stroke="midnightblue" d="M813.83,-235.44C767.75,-225.98 693.5,-210.74 643.87,-200.55"/>
<polygon fill="midnightblue" stroke="midnightblue" points="644.48,-197.1 633.98,-198.52 643.07,-203.96 644.48,-197.1"/>
</g>
<!-- Node34&#45;&gt;Node5 -->
<g id="edge22" class="edge">
<title>Node34&#45;&gt;Node5</title>
<path fill="none" stroke="midnightblue" d="M1078.34,-235.44C1109.36,-226.24 1158.83,-211.56 1193.12,-201.39"/>
<polygon fill="midnightblue" stroke="midnightblue" points="1194.21,-204.72 1202.8,-198.52 1192.21,-198.01 1194.21,-204.72"/>
</g>
<!-- Node34&#45;&gt;Node27 -->
<g id="edge24" class="edge">
<title>Node34&#45;&gt;Node27</title>
<path fill="none" stroke="midnightblue" d="M1034.4,-235.32C1019.6,-226.82 996.81,-213.73 979.52,-203.8"/>
<polygon fill="midnightblue" stroke="midnightblue" points="980.98,-200.6 970.57,-198.65 977.49,-206.67 980.98,-200.6"/>
</g>
<!-- Node34&#45;&gt;Node34 -->
<g id="edge23" class="edge">
<title>Node34&#45;&gt;Node34</title>
<path fill="none" stroke="midnightblue" d="M1088.95,-254.53C1115.76,-257.31 1142,-254.13 1142,-245 1142,-237.01 1121.91,-233.58 1098.93,-234.71"/>
<polygon fill="midnightblue" stroke="midnightblue" points="1098.65,-231.22 1088.95,-235.47 1099.19,-238.2 1098.65,-231.22"/>
</g>
<!-- Node35 -->
<g id="node23" class="node">
<title>Node35</title>
<g id="a_node23"><a xlink:title=" ">
<polygon fill="none" stroke="#bfbfbf" points="1041.5,-179.5 1041.5,-198.5 1139.5,-198.5 1139.5,-179.5 1041.5,-179.5"/>
<text text-anchor="middle" x="1090.5" y="-186.5" font-family="Helvetica,sans-Serif" font-size="10.00">G4UnionSolid.hh</text>
</a>
</g>
</g>
<!-- Node34&#45;&gt;Node35 -->
<g id="edge25" class="edge">
<title>Node34&#45;&gt;Node35</title>
<path fill="none" stroke="midnightblue" d="M1056.27,-235.08C1062.06,-227.46 1070.56,-216.26 1077.64,-206.94"/>
<polygon fill="midnightblue" stroke="midnightblue" points="1080.6,-208.83 1083.86,-198.75 1075.02,-204.6 1080.6,-208.83"/>
</g>
<!-- Node41&#45;&gt;Node7 -->
<g id="edge33" class="edge">
<title>Node41&#45;&gt;Node7</title>
<path fill="none" stroke="midnightblue" d="M638.18,-295.85C589.54,-290.76 519.28,-279.53 462.5,-255 412.84,-233.55 284.27,-131.85 236.09,-93.07"/>
<polygon fill="midnightblue" stroke="midnightblue" points="238.05,-90.15 228.07,-86.6 233.65,-95.6 238.05,-90.15"/>
</g>
<!-- Node41&#45;&gt;Node26 -->
<g id="edge32" class="edge">
<title>Node41&#45;&gt;Node26</title>
<path fill="none" stroke="midnightblue" d="M721.69,-291.44C748.44,-282.36 790.9,-267.94 820.81,-257.78"/>
<polygon fill="midnightblue" stroke="midnightblue" points="822.08,-261.05 830.42,-254.52 819.83,-254.42 822.08,-261.05"/>
</g>
<!-- Node42 -->
<g id="node29" class="node">
<title>Node42</title>
<g id="a_node29"><a xlink:title=" ">
<polygon fill="none" stroke="#bfbfbf" points="472,-235.5 472,-254.5 589,-254.5 589,-235.5 472,-235.5"/>
<text text-anchor="middle" x="530.5" y="-242.5" font-family="Helvetica,sans-Serif" font-size="10.00">G4UserRunAction.hh</text>
</a>
</g>
</g>
<!-- Node41&#45;&gt;Node42 -->
<g id="edge31" class="edge">
<title>Node41&#45;&gt;Node42</title>
<path fill="none" stroke="midnightblue" d="M670.2,-291.44C642.15,-282.32 597.56,-267.81 566.32,-257.65"/>
<polygon fill="midnightblue" stroke="midnightblue" points="567.27,-254.28 556.68,-254.52 565.11,-260.94 567.27,-254.28"/>
</g>
<!-- Node43 -->
<g id="node30" class="node">
<title>Node43</title>
<g id="a_node30"><a xlink:title=" ">
<polygon fill="none" stroke="#bfbfbf" points="607.5,-235.5 607.5,-254.5 693.5,-254.5 693.5,-235.5 607.5,-235.5"/>
<text text-anchor="middle" x="650.5" y="-242.5" font-family="Helvetica,sans-Serif" font-size="10.00">Randomize.hh</text>
</a>
</g>
</g>
<!-- Node41&#45;&gt;Node43 -->
<g id="edge34" class="edge">
<title>Node41&#45;&gt;Node43</title>
<path fill="none" stroke="midnightblue" d="M688.9,-291.08C682.27,-283.3 672.48,-271.8 664.44,-262.37"/>
<polygon fill="midnightblue" stroke="midnightblue" points="667.1,-260.09 657.95,-254.75 661.77,-264.63 667.1,-260.09"/>
</g>
<!-- Node44 -->
<g id="node31" class="node">
<title>Node44</title>
<g id="a_node31"><a xlink:title=" ">
<polygon fill="none" stroke="#bfbfbf" points="711.5,-235.5 711.5,-254.5 775.5,-254.5 775.5,-235.5 711.5,-235.5"/>
<text text-anchor="middle" x="743.5" y="-242.5" font-family="Helvetica,sans-Serif" font-size="10.00">G4Run.hh</text>
</a>
</g>
</g>
<!-- Node41&#45;&gt;Node44 -->
<g id="edge35" class="edge">
<title>Node41&#45;&gt;Node44</title>
<path fill="none" stroke="midnightblue" d="M704.26,-291.08C711.04,-283.3 721.04,-271.8 729.26,-262.37"/>
<polygon fill="midnightblue" stroke="midnightblue" points="731.96,-264.59 735.88,-254.75 726.68,-260 731.96,-264.59"/>
</g>
<!-- Node47 -->
<g id="node34" class="node">
<title>Node47</title>
<g id="a_node34"><a xlink:title=" ">
<polygon fill="none" stroke="#bfbfbf" points="1566,-291.5 1566,-310.5 1705,-310.5 1705,-291.5 1566,-291.5"/>
<text text-anchor="middle" x="1635.5" y="-298.5" font-family="Helvetica,sans-Serif" font-size="10.00">G4UserTrackingAction.hh</text>
</a>
</g>
</g>
<!-- Node46&#45;&gt;Node47 -->
<g id="edge38" class="edge">
<title>Node46&#45;&gt;Node47</title>
<path fill="none" stroke="midnightblue" d="M1635.5,-347.08C1635.5,-340.01 1635.5,-329.86 1635.5,-320.99"/>
<polygon fill="midnightblue" stroke="midnightblue" points="1639,-320.75 1635.5,-310.75 1632,-320.75 1639,-320.75"/>
</g>
<!-- Node49 -->
<g id="node36" class="node">
<title>Node49</title>
<g id="a_node36"><a xlink:title=" ">
<polygon fill="none" stroke="#bfbfbf" points="209,-291.5 209,-310.5 350,-310.5 350,-291.5 209,-291.5"/>
<text text-anchor="middle" x="279.5" y="-298.5" font-family="Helvetica,sans-Serif" font-size="10.00">G4UserSteppingAction.hh</text>
</a>
</g>
</g>
<!-- Node48&#45;&gt;Node49 -->
<g id="edge40" class="edge">
<title>Node48&#45;&gt;Node49</title>
<path fill="none" stroke="midnightblue" d="M332.38,-347.32C322.97,-339.26 308.76,-327.08 297.43,-317.37"/>
<polygon fill="midnightblue" stroke="midnightblue" points="299.68,-314.68 289.81,-310.83 295.12,-320 299.68,-314.68"/>
</g>
<!-- Node51 -->
<g id="node38" class="node">
<title>Node51</title>
<g id="a_node38"><a xlink:href="_o_m_sim_command_args_table_8hh.html" target="_top" xlink:title="Definition of the OMSimCommandArgsTable singleton class, which controls user args.">
<polygon fill="none" stroke="black" points="135.5,-235.5 135.5,-254.5 299.5,-254.5 299.5,-235.5 135.5,-235.5"/>
<text text-anchor="middle" x="217.5" y="-242.5" font-family="Helvetica,sans-Serif" font-size="10.00">OMSimCommandArgsTable.hh</text>
</a>
</g>
</g>
<!-- Node50&#45;&gt;Node51 -->
<g id="edge42" class="edge">
<title>Node50&#45;&gt;Node51</title>
<path fill="none" stroke="midnightblue" d="M395.07,-291.44C358.64,-282.12 300.27,-267.18 260.47,-257"/>
<polygon fill="midnightblue" stroke="midnightblue" points="261.33,-253.61 250.78,-254.52 259.6,-260.39 261.33,-253.61"/>
</g>
<!-- Node54 -->
<g id="node41" class="node">
<title>Node54</title>
<g id="a_node41"><a xlink:title=" ">
<polygon fill="none" stroke="#bfbfbf" points="317.5,-235.5 317.5,-254.5 415.5,-254.5 415.5,-235.5 317.5,-235.5"/>
<text text-anchor="middle" x="366.5" y="-242.5" font-family="Helvetica,sans-Serif" font-size="10.00">G4UImanager.hh</text>
</a>
</g>
</g>
<!-- Node50&#45;&gt;Node54 -->
<g id="edge47" class="edge">
<title>Node50&#45;&gt;Node54</title>
<path fill="none" stroke="midnightblue" d="M418.54,-291.32C409.37,-283.34 395.56,-271.31 384.47,-261.65"/>
<polygon fill="midnightblue" stroke="midnightblue" points="386.48,-258.76 376.64,-254.83 381.88,-264.04 386.48,-258.76"/>
</g>
<!-- Node51&#45;&gt;Node7 -->
<g id="edge43" class="edge">
<title>Node51&#45;&gt;Node7</title>
<path fill="none" stroke="midnightblue" d="M217.5,-235.08C217.5,-208.95 217.5,-132.21 217.5,-96.58"/>
<polygon fill="midnightblue" stroke="midnightblue" points="221,-96.57 217.5,-86.57 214,-96.57 221,-96.57"/>
</g>
<!-- Node51&#45;&gt;Node33 -->
<g id="edge44" class="edge">
<title>Node51&#45;&gt;Node33</title>
<path fill="none" stroke="midnightblue" d="M262.18,-235.44C317.25,-224.9 409.86,-207.16 461.61,-197.26"/>
<polygon fill="midnightblue" stroke="midnightblue" points="462.53,-200.64 471.69,-195.32 461.21,-193.77 462.53,-200.64"/>
</g>
<!-- Node52 -->
<g id="node39" class="node">
<title>Node52</title>
<g id="a_node39"><a xlink:title=" ">
<polygon fill="none" stroke="#bfbfbf" points="245.5,-179.5 245.5,-198.5 329.5,-198.5 329.5,-179.5 245.5,-179.5"/>
<text text-anchor="middle" x="287.5" y="-186.5" font-family="Helvetica,sans-Serif" font-size="10.00">boost/any.hpp</text>
</a>
</g>
</g>
<!-- Node51&#45;&gt;Node52 -->
<g id="edge45" class="edge">
<title>Node51&#45;&gt;Node52</title>
<path fill="none" stroke="midnightblue" d="M228.75,-235.32C239.3,-227.18 255.3,-214.84 267.94,-205.09"/>
<polygon fill="midnightblue" stroke="midnightblue" points="270.27,-207.71 276.05,-198.83 265.99,-202.17 270.27,-207.71"/>
</g>
<!-- Node53 -->
<g id="node40" class="node">
<title>Node53</title>
<g id="a_node40"><a xlink:title=" ">
<polygon fill="none" stroke="#bfbfbf" points="121.5,-179.5 121.5,-198.5 189.5,-198.5 189.5,-179.5 121.5,-179.5"/>
<text text-anchor="middle" x="155.5" y="-186.5" font-family="Helvetica,sans-Serif" font-size="10.00">sys/time.h</text>
</a>
</g>
</g>
<!-- Node51&#45;&gt;Node53 -->
<g id="edge46" class="edge">
<title>Node51&#45;&gt;Node53</title>
<path fill="none" stroke="midnightblue" d="M207.54,-235.32C198.37,-227.34 184.56,-215.31 173.47,-205.65"/>
<polygon fill="midnightblue" stroke="midnightblue" points="175.48,-202.76 165.64,-198.83 170.88,-208.04 175.48,-202.76"/>
</g>
<!-- Node59&#45;&gt;Node7 -->
<g id="edge53" class="edge">
<title>Node59&#45;&gt;Node7</title>
<path fill="none" stroke="midnightblue" d="M163.34,-403.49C145.46,-396.4 122.56,-384.6 108.5,-367 89.71,-343.48 89.5,-332.1 89.5,-302 89.5,-302 89.5,-302 89.5,-188 89.5,-138.64 144.92,-106.61 182.83,-90.48"/>
<polygon fill="midnightblue" stroke="midnightblue" points="184.57,-93.55 192.52,-86.53 181.93,-87.06 184.57,-93.55"/>
</g>
<!-- Node60 -->
<g id="node47" class="node">
<title>Node60</title>
<g id="a_node47"><a xlink:title=" ">
<polygon fill="none" stroke="#bfbfbf" points="118,-347.5 118,-366.5 185,-366.5 185,-347.5 118,-347.5"/>
<text text-anchor="middle" x="151.5" y="-354.5" font-family="Helvetica,sans-Serif" font-size="10.00">globals.hh</text>
</a>
</g>
</g>
<!-- Node59&#45;&gt;Node60 -->
<g id="edge54" class="edge">
<title>Node59&#45;&gt;Node60</title>
<path fill="none" stroke="midnightblue" d="M183.23,-403.08C177.86,-395.46 169.98,-384.26 163.42,-374.94"/>
<polygon fill="midnightblue" stroke="midnightblue" points="166.28,-372.91 157.66,-366.75 160.55,-376.94 166.28,-372.91"/>
</g>
<!-- Node61 -->
<g id="node48" class="node">
<title>Node61</title>
<g id="a_node48"><a xlink:title=" ">
<polygon fill="none" stroke="#bfbfbf" points="203,-347.5 203,-366.5 254,-366.5 254,-347.5 203,-347.5"/>
<text text-anchor="middle" x="228.5" y="-354.5" font-family="Helvetica,sans-Serif" font-size="10.00">variant</text>
</a>
</g>
</g>
<!-- Node59&#45;&gt;Node61 -->
<g id="edge55" class="edge">
<title>Node59&#45;&gt;Node61</title>
<path fill="none" stroke="midnightblue" d="M195.94,-403.08C201.45,-395.46 209.53,-384.26 216.26,-374.94"/>
<polygon fill="midnightblue" stroke="midnightblue" points="219.16,-376.91 222.18,-366.75 213.49,-372.81 219.16,-376.91"/>
</g>
<!-- Node63 -->
<g id="node50" class="node">
<title>Node63</title>
<g id="a_node50"><a xlink:title=" ">
<polygon fill="none" stroke="#bfbfbf" points="1890.5,-347.5 1890.5,-366.5 2056.5,-366.5 2056.5,-347.5 1890.5,-347.5"/>
<text text-anchor="middle" x="1973.5" y="-354.5" font-family="Helvetica,sans-Serif" font-size="10.00">G4VUserActionInitialization.hh</text>
</a>
</g>
</g>
<!-- Node62&#45;&gt;Node63 -->
<g id="edge58" class="edge">
<title>Node62&#45;&gt;Node63</title>
<path fill="none" stroke="midnightblue" d="M1807.72,-403.44C1841.43,-394.2 1895.3,-379.44 1932.43,-369.26"/>
<polygon fill="midnightblue" stroke="midnightblue" points="1933.71,-372.54 1942.43,-366.52 1931.86,-365.78 1933.71,-372.54"/>
</g>
</g>
</svg>
