<?xml version="1.0" encoding="UTF-8" standalone="no"?>
<!DOCTYPE svg PUBLIC "-//W3C//DTD SVG 1.1//EN"
 "http://www.w3.org/Graphics/SVG/1.1/DTD/svg11.dtd">
<!-- Generated by graphviz version 2.43.0 (0)
 -->
<!-- Title: OMSim_effective_area.cc Pages: 1 -->
<svg width="2086pt" height="375pt"
 viewBox="0.00 0.00 2086.00 375.00" xmlns="http://www.w3.org/2000/svg" xmlns:xlink="http://www.w3.org/1999/xlink">
<g id="graph0" class="graph" transform="scale(1 1) rotate(0) translate(4 371)">
<title>OMSim_effective_area.cc</title>
<!-- Node1 -->
<g id="node1" class="node">
<title>Node1</title>
<g id="a_node1"><a xlink:title="Main for the calculation of effective areas.">
<polygon fill="#bfbfbf" stroke="black" points="1612.5,-347.5 1612.5,-366.5 1752.5,-366.5 1752.5,-347.5 1612.5,-347.5"/>
<text text-anchor="middle" x="1682.5" y="-354.5" font-family="Helvetica,sans-Serif" font-size="10.00">OMSim_effective_area.cc</text>
</a>
</g>
</g>
<!-- Node2 -->
<g id="node2" class="node">
<title>Node2</title>
<g id="a_node2"><a xlink:href="_o_m_sim_8hh.html" target="_top" xlink:title="Main simulation class for the Optical Module (OM) simulation. This file defines the OMSim class,...">
<polygon fill="none" stroke="black" points="921,-291.5 921,-310.5 988,-310.5 988,-291.5 921,-291.5"/>
<text text-anchor="middle" x="954.5" y="-298.5" font-family="Helvetica,sans-Serif" font-size="10.00">OMSim.hh</text>
</a>
</g>
</g>
<!-- Node1&#45;&gt;Node2 -->
<g id="edge1" class="edge">
<title>Node1&#45;&gt;Node2</title>
<path fill="none" stroke="midnightblue" d="M1612.37,-350.8C1463.64,-339.77 1120.28,-314.3 998.4,-305.26"/>
<polygon fill="midnightblue" stroke="midnightblue" points="998.55,-301.76 988.32,-304.51 998.03,-308.74 998.55,-301.76"/>
</g>
<!-- Node59 -->
<g id="node45" class="node">
<title>Node59</title>
<g id="a_node45"><a xlink:href="_o_m_sim_angular_scan_8hh.html" target="_top" xlink:title="Defines the AngularScan class for configuring and running GPS beam with angular scans.">
<polygon fill="none" stroke="black" points="1618.5,-291.5 1618.5,-310.5 1746.5,-310.5 1746.5,-291.5 1618.5,-291.5"/>
<text text-anchor="middle" x="1682.5" y="-298.5" font-family="Helvetica,sans-Serif" font-size="10.00">OMSimAngularScan.hh</text>
</a>
</g>
</g>
<!-- Node1&#45;&gt;Node59 -->
<g id="edge50" class="edge">
<title>Node1&#45;&gt;Node59</title>
<path fill="none" stroke="midnightblue" d="M1682.5,-347.08C1682.5,-340.01 1682.5,-329.86 1682.5,-320.99"/>
<polygon fill="midnightblue" stroke="midnightblue" points="1686,-320.75 1682.5,-310.75 1679,-320.75 1686,-320.75"/>
</g>
<!-- Node61 -->
<g id="node47" class="node">
<title>Node61</title>
<g id="a_node47"><a xlink:href="_o_m_sim_effective_area_analyisis_8hh_source.html" target="_top" xlink:title=" ">
<polygon fill="none" stroke="black" points="1390.5,-179.5 1390.5,-198.5 1566.5,-198.5 1566.5,-179.5 1390.5,-179.5"/>
<text text-anchor="middle" x="1478.5" y="-186.5" font-family="Helvetica,sans-Serif" font-size="10.00">OMSimEffectiveAreaAnalyisis.hh</text>
</a>
</g>
</g>
<!-- Node1&#45;&gt;Node61 -->
<g id="edge52" class="edge">
<title>Node1&#45;&gt;Node61</title>
<path fill="none" stroke="midnightblue" d="M1662.43,-347.41C1646.45,-339.76 1624.37,-327.26 1609.5,-311 1584.01,-283.14 1598.38,-261.53 1571.5,-235 1556.46,-220.15 1535.56,-209.44 1517.39,-202.2"/>
<polygon fill="midnightblue" stroke="midnightblue" points="1518.49,-198.88 1507.9,-198.63 1516.03,-205.43 1518.49,-198.88"/>
</g>
<!-- Node62 -->
<g id="node48" class="node">
<title>Node62</title>
<g id="a_node48"><a xlink:title=" ">
<polygon fill="none" stroke="#bfbfbf" points="1765,-291.5 1765,-310.5 1938,-310.5 1938,-291.5 1765,-291.5"/>
<text text-anchor="middle" x="1851.5" y="-298.5" font-family="Helvetica,sans-Serif" font-size="10.00">OMSimEffectiveAreaDetector.hh</text>
</a>
</g>
</g>
<!-- Node1&#45;&gt;Node62 -->
<g id="edge57" class="edge">
<title>Node1&#45;&gt;Node62</title>
<path fill="none" stroke="midnightblue" d="M1709.28,-347.44C1737.83,-338.32 1783.23,-323.81 1815.04,-313.65"/>
<polygon fill="midnightblue" stroke="midnightblue" points="1816.39,-316.89 1824.85,-310.52 1814.26,-310.23 1816.39,-316.89"/>
</g>
<!-- Node63 -->
<g id="node49" class="node">
<title>Node63</title>
<g id="a_node49"><a xlink:href="_o_m_sim_tools_8hh.html" target="_top" xlink:title=" ">
<polygon fill="none" stroke="black" points="1920.5,-179.5 1920.5,-198.5 2012.5,-198.5 2012.5,-179.5 1920.5,-179.5"/>
<text text-anchor="middle" x="1966.5" y="-186.5" font-family="Helvetica,sans-Serif" font-size="10.00">OMSimTools.hh</text>
</a>
</g>
</g>
<!-- Node1&#45;&gt;Node63 -->
<g id="edge58" class="edge">
<title>Node1&#45;&gt;Node63</title>
<path fill="none" stroke="midnightblue" d="M1752.71,-353.13C1821.87,-348.77 1920.94,-337.89 1947.5,-311 1974.3,-283.86 1972.87,-235.35 1969.62,-208.74"/>
<polygon fill="midnightblue" stroke="midnightblue" points="1973.07,-208.2 1968.19,-198.8 1966.15,-209.2 1973.07,-208.2"/>
</g>
<!-- Node3 -->
<g id="node3" class="node">
<title>Node3</title>
<g id="a_node3"><a xlink:href="_o_m_sim_detector_construction_8hh_source.html" target="_top" xlink:title=" ">
<polygon fill="none" stroke="black" points="414.5,-235.5 414.5,-254.5 584.5,-254.5 584.5,-235.5 414.5,-235.5"/>
<text text-anchor="middle" x="499.5" y="-242.5" font-family="Helvetica,sans-Serif" font-size="10.00">OMSimDetectorConstruction.hh</text>
</a>
</g>
</g>
<!-- Node2&#45;&gt;Node3 -->
<g id="edge2" class="edge">
<title>Node2&#45;&gt;Node3</title>
<path fill="none" stroke="midnightblue" d="M920.67,-295.99C849.49,-287.54 682.48,-267.72 581.46,-255.73"/>
<polygon fill="midnightblue" stroke="midnightblue" points="581.64,-252.22 571.29,-254.52 580.81,-259.17 581.64,-252.22"/>
</g>
<!-- Node39 -->
<g id="node20" class="node">
<title>Node39</title>
<g id="a_node20"><a xlink:title=" ">
<polygon fill="none" stroke="#bfbfbf" points="603,-235.5 603,-254.5 724,-254.5 724,-235.5 603,-235.5"/>
<text text-anchor="middle" x="663.5" y="-242.5" font-family="Helvetica,sans-Serif" font-size="10.00">OMSimPhysicsList.hh</text>
</a>
</g>
</g>
<!-- Node2&#45;&gt;Node39 -->
<g id="edge22" class="edge">
<title>Node2&#45;&gt;Node39</title>
<path fill="none" stroke="midnightblue" d="M920.83,-293.75C871.55,-284.61 779.15,-267.46 719.52,-256.4"/>
<polygon fill="midnightblue" stroke="midnightblue" points="719.99,-252.92 709.51,-254.54 718.71,-259.8 719.99,-252.92"/>
</g>
<!-- Node40 -->
<g id="node21" class="node">
<title>Node40</title>
<g id="a_node21"><a xlink:title=" ">
<polygon fill="none" stroke="#bfbfbf" points="742,-235.5 742,-254.5 927,-254.5 927,-235.5 742,-235.5"/>
<text text-anchor="middle" x="834.5" y="-242.5" font-family="Helvetica,sans-Serif" font-size="10.00">OMSimPrimaryGeneratorAction.hh</text>
</a>
</g>
</g>
<!-- Node2&#45;&gt;Node40 -->
<g id="edge23" class="edge">
<title>Node2&#45;&gt;Node40</title>
<path fill="none" stroke="midnightblue" d="M935.49,-291.44C915.91,-282.64 885.19,-268.81 862.77,-258.72"/>
<polygon fill="midnightblue" stroke="midnightblue" points="863.98,-255.43 853.43,-254.52 861.11,-261.81 863.98,-255.43"/>
</g>
<!-- Node41 -->
<g id="node22" class="node">
<title>Node41</title>
<g id="a_node22"><a xlink:href="_o_m_sim_run_action_8hh_source.html" target="_top" xlink:title=" ">
<polygon fill="none" stroke="black" points="939.5,-179.5 939.5,-198.5 1055.5,-198.5 1055.5,-179.5 939.5,-179.5"/>
<text text-anchor="middle" x="997.5" y="-186.5" font-family="Helvetica,sans-Serif" font-size="10.00">OMSimRunAction.hh</text>
</a>
</g>
</g>
<!-- Node2&#45;&gt;Node41 -->
<g id="edge24" class="edge">
<title>Node2&#45;&gt;Node41</title>
<path fill="none" stroke="midnightblue" d="M956.42,-291.4C959.36,-278.77 965.51,-254.6 973.5,-235 977.3,-225.67 982.46,-215.75 987.03,-207.6"/>
<polygon fill="midnightblue" stroke="midnightblue" points="990.2,-209.11 992.16,-198.7 984.13,-205.62 990.2,-209.11"/>
</g>
<!-- Node45 -->
<g id="node31" class="node">
<title>Node45</title>
<g id="a_node31"><a xlink:title=" ">
<polygon fill="none" stroke="#bfbfbf" points="983,-235.5 983,-254.5 1108,-254.5 1108,-235.5 983,-235.5"/>
<text text-anchor="middle" x="1045.5" y="-242.5" font-family="Helvetica,sans-Serif" font-size="10.00">OMSimEventAction.hh</text>
</a>
</g>
</g>
<!-- Node2&#45;&gt;Node45 -->
<g id="edge34" class="edge">
<title>Node2&#45;&gt;Node45</title>
<path fill="none" stroke="midnightblue" d="M969.12,-291.32C983.45,-282.82 1005.51,-269.73 1022.25,-259.8"/>
<polygon fill="midnightblue" stroke="midnightblue" points="1024.1,-262.77 1030.92,-254.65 1020.53,-256.75 1024.1,-262.77"/>
</g>
<!-- Node46 -->
<g id="node32" class="node">
<title>Node46</title>
<g id="a_node32"><a xlink:href="_o_m_sim_tracking_action_8hh_source.html" target="_top" xlink:title=" ">
<polygon fill="none" stroke="black" points="1126.5,-235.5 1126.5,-254.5 1264.5,-254.5 1264.5,-235.5 1126.5,-235.5"/>
<text text-anchor="middle" x="1195.5" y="-242.5" font-family="Helvetica,sans-Serif" font-size="10.00">OMSimTrackingAction.hh</text>
</a>
</g>
</g>
<!-- Node2&#45;&gt;Node46 -->
<g id="edge35" class="edge">
<title>Node2&#45;&gt;Node46</title>
<path fill="none" stroke="midnightblue" d="M988.01,-292.49C1029.46,-283.2 1100.32,-267.33 1147.52,-256.75"/>
<polygon fill="midnightblue" stroke="midnightblue" points="1148.52,-260.11 1157.51,-254.51 1146.99,-253.28 1148.52,-260.11"/>
</g>
<!-- Node48 -->
<g id="node34" class="node">
<title>Node48</title>
<g id="a_node34"><a xlink:href="_o_m_sim_stepping_action_8hh.html" target="_top" xlink:title="Defines OMSimSteppingAction.Currently it only checks for trapped photons.">
<polygon fill="none" stroke="black" points="1282.5,-235.5 1282.5,-254.5 1422.5,-254.5 1422.5,-235.5 1282.5,-235.5"/>
<text text-anchor="middle" x="1352.5" y="-242.5" font-family="Helvetica,sans-Serif" font-size="10.00">OMSimSteppingAction.hh</text>
</a>
</g>
</g>
<!-- Node2&#45;&gt;Node48 -->
<g id="edge37" class="edge">
<title>Node2&#45;&gt;Node48</title>
<path fill="none" stroke="midnightblue" d="M988.09,-295.44C1052.18,-286.75 1193.21,-267.61 1279.82,-255.86"/>
<polygon fill="midnightblue" stroke="midnightblue" points="1280.41,-259.31 1289.85,-254.5 1279.47,-252.38 1280.41,-259.31"/>
</g>
<!-- Node50 -->
<g id="node36" class="node">
<title>Node50</title>
<g id="a_node36"><a xlink:href="_o_m_sim_u_iinterface_8hh.html" target="_top" xlink:title=" ">
<polygon fill="none" stroke="black" points="1619,-235.5 1619,-254.5 1740,-254.5 1740,-235.5 1619,-235.5"/>
<text text-anchor="middle" x="1679.5" y="-242.5" font-family="Helvetica,sans-Serif" font-size="10.00">OMSimUIinterface.hh</text>
</a>
</g>
</g>
<!-- Node2&#45;&gt;Node50 -->
<g id="edge39" class="edge">
<title>Node2&#45;&gt;Node50</title>
<path fill="none" stroke="midnightblue" d="M988.29,-297.66C1081.31,-291.19 1349.05,-272.38 1571.5,-255 1583.52,-254.06 1596.28,-253.03 1608.67,-252.01"/>
<polygon fill="midnightblue" stroke="midnightblue" points="1609.28,-255.47 1618.96,-251.16 1608.71,-248.49 1609.28,-255.47"/>
</g>
<!-- Node55 -->
<g id="node41" class="node">
<title>Node55</title>
<g id="a_node41"><a xlink:title=" ">
<polygon fill="none" stroke="#bfbfbf" points="1441,-235.5 1441,-254.5 1562,-254.5 1562,-235.5 1441,-235.5"/>
<text text-anchor="middle" x="1501.5" y="-242.5" font-family="Helvetica,sans-Serif" font-size="10.00">G4MTRunManager.hh</text>
</a>
</g>
</g>
<!-- Node2&#45;&gt;Node55 -->
<g id="edge46" class="edge">
<title>Node2&#45;&gt;Node55</title>
<path fill="none" stroke="midnightblue" d="M988.08,-297.22C1064.56,-290.82 1257.79,-274.17 1430.76,-255.05"/>
<polygon fill="midnightblue" stroke="midnightblue" points="1431.26,-258.51 1440.81,-253.93 1430.48,-251.56 1431.26,-258.51"/>
</g>
<!-- Node56 -->
<g id="node42" class="node">
<title>Node56</title>
<g id="a_node42"><a xlink:title=" ">
<polygon fill="none" stroke="#bfbfbf" points="0,-235.5 0,-254.5 107,-254.5 107,-235.5 0,-235.5"/>
<text text-anchor="middle" x="53.5" y="-242.5" font-family="Helvetica,sans-Serif" font-size="10.00">G4VisExecutive.hh</text>
</a>
</g>
</g>
<!-- Node2&#45;&gt;Node56 -->
<g id="edge47" class="edge">
<title>Node2&#45;&gt;Node56</title>
<path fill="none" stroke="midnightblue" d="M920.85,-299.29C808.46,-296.68 435.71,-286.19 117.58,-255.12"/>
<polygon fill="midnightblue" stroke="midnightblue" points="117.53,-251.6 107.23,-254.1 116.84,-258.57 117.53,-251.6"/>
</g>
<!-- Node57 -->
<g id="node43" class="node">
<title>Node57</title>
<g id="a_node43"><a xlink:title=" ">
<polygon fill="none" stroke="#bfbfbf" points="125,-235.5 125,-254.5 228,-254.5 228,-235.5 125,-235.5"/>
<text text-anchor="middle" x="176.5" y="-242.5" font-family="Helvetica,sans-Serif" font-size="10.00">G4UIExecutive.hh</text>
</a>
</g>
</g>
<!-- Node2&#45;&gt;Node57 -->
<g id="edge48" class="edge">
<title>Node2&#45;&gt;Node57</title>
<path fill="none" stroke="midnightblue" d="M920.82,-298.89C819.36,-295.33 507.59,-282.85 238.02,-254.96"/>
<polygon fill="midnightblue" stroke="midnightblue" points="238.36,-251.47 228.05,-253.92 237.63,-258.43 238.36,-251.47"/>
</g>
<!-- Node58 -->
<g id="node44" class="node">
<title>Node58</title>
<g id="a_node44"><a xlink:title=" ">
<polygon fill="none" stroke="#bfbfbf" points="246.5,-235.5 246.5,-254.5 396.5,-254.5 396.5,-235.5 246.5,-235.5"/>
<text text-anchor="middle" x="321.5" y="-242.5" font-family="Helvetica,sans-Serif" font-size="10.00">boost/program_options.hpp</text>
</a>
</g>
</g>
<!-- Node2&#45;&gt;Node58 -->
<g id="edge49" class="edge">
<title>Node2&#45;&gt;Node58</title>
<path fill="none" stroke="midnightblue" d="M920.74,-297.53C836.17,-291.27 608.18,-274.02 406.77,-255.1"/>
<polygon fill="midnightblue" stroke="midnightblue" points="406.88,-251.59 396.6,-254.14 406.22,-258.56 406.88,-251.59"/>
</g>
<!-- Node4 -->
<g id="node4" class="node">
<title>Node4</title>
<g id="a_node4"><a xlink:href="_o_m_sim_optical_module_8hh_source.html" target="_top" xlink:title=" ">
<polygon fill="none" stroke="black" points="634,-179.5 634,-198.5 771,-198.5 771,-179.5 634,-179.5"/>
<text text-anchor="middle" x="702.5" y="-186.5" font-family="Helvetica,sans-Serif" font-size="10.00">OMSimOpticalModule.hh</text>
</a>
</g>
</g>
<!-- Node3&#45;&gt;Node4 -->
<g id="edge3" class="edge">
<title>Node3&#45;&gt;Node4</title>
<path fill="none" stroke="midnightblue" d="M531.67,-235.44C566.56,-226.16 622.39,-211.31 660.67,-201.13"/>
<polygon fill="midnightblue" stroke="midnightblue" points="661.72,-204.47 670.48,-198.52 659.92,-197.7 661.72,-204.47"/>
</g>
<!-- Node37 -->
<g id="node18" class="node">
<title>Node37</title>
<g id="a_node18"><a xlink:title=" ">
<polygon fill="none" stroke="#bfbfbf" points="346.5,-179.5 346.5,-198.5 408.5,-198.5 408.5,-179.5 346.5,-179.5"/>
<text text-anchor="middle" x="377.5" y="-186.5" font-family="Helvetica,sans-Serif" font-size="10.00">G4Orb.hh</text>
</a>
</g>
</g>
<!-- Node3&#45;&gt;Node37 -->
<g id="edge20" class="edge">
<title>Node3&#45;&gt;Node37</title>
<path fill="none" stroke="midnightblue" d="M480.17,-235.44C460.18,-226.6 428.76,-212.69 405.94,-202.59"/>
<polygon fill="midnightblue" stroke="midnightblue" points="407.3,-199.36 396.74,-198.52 404.47,-205.76 407.3,-199.36"/>
</g>
<!-- Node38 -->
<g id="node19" class="node">
<title>Node38</title>
<g id="a_node19"><a xlink:title=" ">
<polygon fill="none" stroke="#bfbfbf" points="426.5,-179.5 426.5,-198.5 604.5,-198.5 604.5,-179.5 426.5,-179.5"/>
<text text-anchor="middle" x="515.5" y="-186.5" font-family="Helvetica,sans-Serif" font-size="10.00">G4VUserDetectorConstruction.hh</text>
</a>
</g>
</g>
<!-- Node3&#45;&gt;Node38 -->
<g id="edge21" class="edge">
<title>Node3&#45;&gt;Node38</title>
<path fill="none" stroke="midnightblue" d="M502.14,-235.08C504.29,-227.85 507.38,-217.41 510.05,-208.4"/>
<polygon fill="midnightblue" stroke="midnightblue" points="513.42,-209.33 512.91,-198.75 506.71,-207.34 513.42,-209.33"/>
</g>
<!-- Node5 -->
<g id="node5" class="node">
<title>Node5</title>
<g id="a_node5"><a xlink:href="abc_detector_component_8hh.html" target="_top" xlink:title="Provides helper base class abcDetectorComponent for constructing and managing detector components in ...">
<polygon fill="none" stroke="red" points="586,-62 586,-81 733,-81 733,-62 586,-62"/>
<text text-anchor="middle" x="659.5" y="-69" font-family="Helvetica,sans-Serif" font-size="10.00">abcDetectorComponent.hh</text>
</a>
</g>
</g>
<!-- Node4&#45;&gt;Node5 -->
<g id="edge4" class="edge">
<title>Node4&#45;&gt;Node5</title>
<path fill="none" stroke="midnightblue" d="M674.48,-179.4C657.33,-172.51 636.75,-160.98 626.5,-143 616.32,-125.14 629.89,-103.61 642.58,-89.08"/>
<polygon fill="midnightblue" stroke="midnightblue" points="645.48,-91.1 649.77,-81.41 640.38,-86.31 645.48,-91.1"/>
</g>
<!-- Node26 -->
<g id="node6" class="node">
<title>Node26</title>
<g id="a_node6"><a xlink:href="_o_m_sim_hit_manager_8hh.html" target="_top" xlink:title="Defines structures and classes related to optical module photon hit management.">
<polygon fill="none" stroke="black" points="1195,-123.5 1195,-142.5 1318,-142.5 1318,-123.5 1195,-123.5"/>
<text text-anchor="middle" x="1256.5" y="-130.5" font-family="Helvetica,sans-Serif" font-size="10.00">OMSimHitManager.hh</text>
</a>
</g>
</g>
<!-- Node4&#45;&gt;Node26 -->
<g id="edge5" class="edge">
<title>Node4&#45;&gt;Node26</title>
<path fill="none" stroke="midnightblue" d="M771.27,-181.3C876.68,-171.02 1077.24,-151.47 1184.54,-141.01"/>
<polygon fill="midnightblue" stroke="midnightblue" points="1185.01,-144.48 1194.63,-140.03 1184.33,-137.52 1185.01,-144.48"/>
</g>
<!-- Node34 -->
<g id="node17" class="node">
<title>Node34</title>
<g id="a_node17"><a xlink:href="_o_m_sim_p_m_t_construction_8hh.html" target="_top" xlink:title="Construction of the PMTs.">
<polygon fill="none" stroke="red" points="636,-123.5 636,-142.5 785,-142.5 785,-123.5 636,-123.5"/>
<text text-anchor="middle" x="710.5" y="-130.5" font-family="Helvetica,sans-Serif" font-size="10.00">OMSimPMTConstruction.hh</text>
</a>
</g>
</g>
<!-- Node4&#45;&gt;Node34 -->
<g id="edge16" class="edge">
<title>Node4&#45;&gt;Node34</title>
<path fill="none" stroke="midnightblue" d="M703.82,-179.08C704.88,-171.93 706.41,-161.64 707.73,-152.69"/>
<polygon fill="midnightblue" stroke="midnightblue" points="711.2,-153.16 709.2,-142.75 704.28,-152.13 711.2,-153.16"/>
</g>
<!-- Node27 -->
<g id="node7" class="node">
<title>Node27</title>
<g id="a_node7"><a xlink:href="_o_m_sim_p_m_t_response_8hh.html" target="_top" xlink:title="Simulation of PMT response.">
<polygon fill="none" stroke="black" points="949,-62 949,-81 1084,-81 1084,-62 949,-62"/>
<text text-anchor="middle" x="1016.5" y="-69" font-family="Helvetica,sans-Serif" font-size="10.00">OMSimPMTResponse.hh</text>
</a>
</g>
</g>
<!-- Node26&#45;&gt;Node27 -->
<g id="edge6" class="edge">
<title>Node26&#45;&gt;Node27</title>
<path fill="none" stroke="midnightblue" d="M1222.11,-123.48C1179.61,-112.94 1107.2,-94.99 1060.63,-83.44"/>
<polygon fill="midnightblue" stroke="midnightblue" points="1061.37,-80.02 1050.82,-81.01 1059.69,-86.81 1061.37,-80.02"/>
</g>
<!-- Node32 -->
<g id="node13" class="node">
<title>Node32</title>
<g id="a_node13"><a xlink:title=" ">
<polygon fill="none" stroke="#bfbfbf" points="1323,-62 1323,-81 1426,-81 1426,-62 1323,-62"/>
<text text-anchor="middle" x="1374.5" y="-69" font-family="Helvetica,sans-Serif" font-size="10.00">G4ThreeVector.hh</text>
</a>
</g>
</g>
<!-- Node26&#45;&gt;Node32 -->
<g id="edge12" class="edge">
<title>Node26&#45;&gt;Node32</title>
<path fill="none" stroke="midnightblue" d="M1273.41,-123.48C1293.03,-113.58 1325.63,-97.14 1348.49,-85.62"/>
<polygon fill="midnightblue" stroke="midnightblue" points="1350.27,-88.64 1357.62,-81.01 1347.12,-82.39 1350.27,-88.64"/>
</g>
<!-- Node33 -->
<g id="node14" class="node">
<title>Node33</title>
<g id="a_node14"><a xlink:title=" ">
<polygon fill="none" stroke="#bfbfbf" points="1877,-62 1877,-81 1932,-81 1932,-62 1877,-62"/>
<text text-anchor="middle" x="1904.5" y="-69" font-family="Helvetica,sans-Serif" font-size="10.00">fstream</text>
</a>
</g>
</g>
<!-- Node26&#45;&gt;Node33 -->
<g id="edge13" class="edge">
<title>Node26&#45;&gt;Node33</title>
<path fill="none" stroke="midnightblue" d="M1318.09,-128.55C1462.74,-120.31 1815.9,-99.21 1868.5,-87 1871.33,-86.34 1874.23,-85.5 1877.09,-84.54"/>
<polygon fill="midnightblue" stroke="midnightblue" points="1878.4,-87.79 1886.54,-81 1875.95,-81.23 1878.4,-87.79"/>
</g>
<!-- Node18 -->
<g id="node15" class="node">
<title>Node18</title>
<g id="a_node15"><a xlink:title=" ">
<polygon fill="none" stroke="#bfbfbf" points="1214.5,-62 1214.5,-81 1304.5,-81 1304.5,-62 1214.5,-62"/>
<text text-anchor="middle" x="1259.5" y="-69" font-family="Helvetica,sans-Serif" font-size="10.00">G4AutoLock.hh</text>
</a>
</g>
</g>
<!-- Node26&#45;&gt;Node18 -->
<g id="edge14" class="edge">
<title>Node26&#45;&gt;Node18</title>
<path fill="none" stroke="midnightblue" d="M1256.93,-123.48C1257.35,-115.08 1258.01,-101.98 1258.56,-91.16"/>
<polygon fill="midnightblue" stroke="midnightblue" points="1262.06,-91.17 1259.07,-81.01 1255.07,-90.82 1262.06,-91.17"/>
</g>
<!-- Node19 -->
<g id="node16" class="node">
<title>Node19</title>
<g id="a_node16"><a xlink:title=" ">
<polygon fill="none" stroke="#bfbfbf" points="1102.5,-62 1102.5,-81 1196.5,-81 1196.5,-62 1102.5,-62"/>
<text text-anchor="middle" x="1149.5" y="-69" font-family="Helvetica,sans-Serif" font-size="10.00">G4Threading.hh</text>
</a>
</g>
</g>
<!-- Node26&#45;&gt;Node19 -->
<g id="edge15" class="edge">
<title>Node26&#45;&gt;Node19</title>
<path fill="none" stroke="midnightblue" d="M1241.17,-123.48C1223.53,-113.67 1194.34,-97.43 1173.64,-85.92"/>
<polygon fill="midnightblue" stroke="midnightblue" points="1175.24,-82.81 1164.8,-81.01 1171.84,-88.93 1175.24,-82.81"/>
</g>
<!-- Node20 -->
<g id="node8" class="node">
<title>Node20</title>
<g id="a_node8"><a xlink:title=" ">
<polygon fill="none" stroke="#bfbfbf" points="843,-0.5 843,-19.5 962,-19.5 962,-0.5 843,-0.5"/>
<text text-anchor="middle" x="902.5" y="-7.5" font-family="Helvetica,sans-Serif" font-size="10.00">G4SystemOfUnits.hh</text>
</a>
</g>
</g>
<!-- Node27&#45;&gt;Node20 -->
<g id="edge7" class="edge">
<title>Node27&#45;&gt;Node20</title>
<path fill="none" stroke="midnightblue" d="M1000.17,-61.98C981.29,-52.12 949.99,-35.79 927.92,-24.27"/>
<polygon fill="midnightblue" stroke="midnightblue" points="929.29,-21.03 918.8,-19.51 926.05,-27.24 929.29,-21.03"/>
</g>
<!-- Node28 -->
<g id="node9" class="node">
<title>Node28</title>
<g id="a_node9"><a xlink:title=" ">
<polygon fill="none" stroke="#bfbfbf" points="980,-0.5 980,-19.5 1053,-19.5 1053,-0.5 980,-0.5"/>
<text text-anchor="middle" x="1016.5" y="-7.5" font-family="Helvetica,sans-Serif" font-size="10.00">G4Types.hh</text>
</a>
</g>
</g>
<!-- Node27&#45;&gt;Node28 -->
<g id="edge8" class="edge">
<title>Node27&#45;&gt;Node28</title>
<path fill="none" stroke="midnightblue" d="M1016.5,-61.98C1016.5,-53.58 1016.5,-40.48 1016.5,-29.66"/>
<polygon fill="midnightblue" stroke="midnightblue" points="1020,-29.51 1016.5,-19.51 1013,-29.51 1020,-29.51"/>
</g>
<!-- Node29 -->
<g id="node10" class="node">
<title>Node29</title>
<g id="a_node10"><a xlink:title=" ">
<polygon fill="none" stroke="#bfbfbf" points="1071.5,-0.5 1071.5,-19.5 1109.5,-19.5 1109.5,-0.5 1071.5,-0.5"/>
<text text-anchor="middle" x="1090.5" y="-7.5" font-family="Helvetica,sans-Serif" font-size="10.00">map</text>
</a>
</g>
</g>
<!-- Node27&#45;&gt;Node29 -->
<g id="edge9" class="edge">
<title>Node27&#45;&gt;Node29</title>
<path fill="none" stroke="midnightblue" d="M1027.1,-61.98C1038.75,-52.61 1057.69,-37.38 1071.83,-26.01"/>
<polygon fill="midnightblue" stroke="midnightblue" points="1074.32,-28.5 1079.92,-19.51 1069.93,-23.05 1074.32,-28.5"/>
</g>
<!-- Node30 -->
<g id="node11" class="node">
<title>Node30</title>
<g id="a_node11"><a xlink:title=" ">
<polygon fill="none" stroke="#bfbfbf" points="1510,-0.5 1510,-19.5 1571,-19.5 1571,-0.5 1510,-0.5"/>
<text text-anchor="middle" x="1540.5" y="-7.5" font-family="Helvetica,sans-Serif" font-size="10.00">TGraph.h</text>
</a>
</g>
</g>
<!-- Node27&#45;&gt;Node30 -->
<g id="edge10" class="edge">
<title>Node27&#45;&gt;Node30</title>
<path fill="none" stroke="midnightblue" d="M1058.35,-61.94C1069.72,-59.8 1082.06,-57.65 1093.5,-56 1242.55,-34.5 1421.05,-19.83 1499.78,-13.92"/>
<polygon fill="midnightblue" stroke="midnightblue" points="1500.06,-17.41 1509.77,-13.18 1499.54,-10.43 1500.06,-17.41"/>
</g>
<!-- Node31 -->
<g id="node12" class="node">
<title>Node31</title>
<g id="a_node12"><a xlink:title=" ">
<polygon fill="none" stroke="#bfbfbf" points="1780,-0.5 1780,-19.5 1833,-19.5 1833,-0.5 1780,-0.5"/>
<text text-anchor="middle" x="1806.5" y="-7.5" font-family="Helvetica,sans-Serif" font-size="10.00">TH2D.h</text>
</a>
</g>
</g>
<!-- Node27&#45;&gt;Node31 -->
<g id="edge11" class="edge">
<title>Node27&#45;&gt;Node31</title>
<path fill="none" stroke="midnightblue" d="M1056.71,-61.96C1068.52,-59.72 1081.49,-57.5 1093.5,-56 1226.39,-39.36 1642.46,-18.77 1769.38,-12.74"/>
<polygon fill="midnightblue" stroke="midnightblue" points="1769.9,-16.22 1779.72,-12.25 1769.57,-9.22 1769.9,-16.22"/>
</g>
<!-- Node34&#45;&gt;Node5 -->
<g id="edge17" class="edge">
<title>Node34&#45;&gt;Node5</title>
<path fill="none" stroke="midnightblue" d="M703.19,-123.48C695.47,-114.46 683.09,-100.02 673.48,-88.81"/>
<polygon fill="midnightblue" stroke="midnightblue" points="675.96,-86.32 666.79,-81.01 670.64,-90.88 675.96,-86.32"/>
</g>
<!-- Node34&#45;&gt;Node27 -->
<g id="edge19" class="edge">
<title>Node34&#45;&gt;Node27</title>
<path fill="none" stroke="midnightblue" d="M754.34,-123.48C809.33,-112.78 903.57,-94.46 962.82,-82.94"/>
<polygon fill="midnightblue" stroke="midnightblue" points="963.59,-86.35 972.74,-81.01 962.25,-79.48 963.59,-86.35"/>
</g>
<!-- Node34&#45;&gt;Node34 -->
<g id="edge18" class="edge">
<title>Node34&#45;&gt;Node34</title>
<path fill="none" stroke="midnightblue" d="M749.95,-142.53C776.76,-145.31 803,-142.13 803,-133 803,-125.01 782.91,-121.58 759.93,-122.71"/>
<polygon fill="midnightblue" stroke="midnightblue" points="759.65,-119.22 749.95,-123.47 760.19,-126.2 759.65,-119.22"/>
</g>
<!-- Node41&#45;&gt;Node26 -->
<g id="edge26" class="edge">
<title>Node41&#45;&gt;Node26</title>
<path fill="none" stroke="midnightblue" d="M1038.54,-179.44C1083.82,-170 1156.73,-154.8 1205.61,-144.61"/>
<polygon fill="midnightblue" stroke="midnightblue" points="1206.58,-147.98 1215.65,-142.52 1205.15,-141.13 1206.58,-147.98"/>
</g>
<!-- Node42 -->
<g id="node23" class="node">
<title>Node42</title>
<g id="a_node23"><a xlink:title=" ">
<polygon fill="none" stroke="#bfbfbf" points="821,-123.5 821,-142.5 938,-142.5 938,-123.5 821,-123.5"/>
<text text-anchor="middle" x="879.5" y="-130.5" font-family="Helvetica,sans-Serif" font-size="10.00">G4UserRunAction.hh</text>
</a>
</g>
</g>
<!-- Node41&#45;&gt;Node42 -->
<g id="edge25" class="edge">
<title>Node41&#45;&gt;Node42</title>
<path fill="none" stroke="midnightblue" d="M978.8,-179.44C959.56,-170.64 929.35,-156.81 907.3,-146.72"/>
<polygon fill="midnightblue" stroke="midnightblue" points="908.66,-143.5 898.11,-142.52 905.75,-149.86 908.66,-143.5"/>
</g>
<!-- Node7 -->
<g id="node24" class="node">
<title>Node7</title>
<g id="a_node24"><a xlink:href="_o_m_sim_logger_8hh_source.html" target="_top" xlink:title=" ">
<polygon fill="none" stroke="black" points="1671,-123.5 1671,-142.5 1770,-142.5 1770,-123.5 1671,-123.5"/>
<text text-anchor="middle" x="1720.5" y="-130.5" font-family="Helvetica,sans-Serif" font-size="10.00">OMSimLogger.hh</text>
</a>
</g>
</g>
<!-- Node41&#45;&gt;Node7 -->
<g id="edge27" class="edge">
<title>Node41&#45;&gt;Node7</title>
<path fill="none" stroke="midnightblue" d="M1055.57,-179.93C1058.59,-179.6 1061.58,-179.28 1064.5,-179 1325.71,-153.61 1395.41,-170.63 1660.64,-142.98"/>
<polygon fill="midnightblue" stroke="midnightblue" points="1661.39,-146.42 1670.97,-141.89 1660.66,-139.46 1661.39,-146.42"/>
</g>
<!-- Node43 -->
<g id="node29" class="node">
<title>Node43</title>
<g id="a_node29"><a xlink:title=" ">
<polygon fill="none" stroke="#bfbfbf" points="956.5,-123.5 956.5,-142.5 1042.5,-142.5 1042.5,-123.5 956.5,-123.5"/>
<text text-anchor="middle" x="999.5" y="-130.5" font-family="Helvetica,sans-Serif" font-size="10.00">Randomize.hh</text>
</a>
</g>
</g>
<!-- Node41&#45;&gt;Node43 -->
<g id="edge32" class="edge">
<title>Node41&#45;&gt;Node43</title>
<path fill="none" stroke="midnightblue" d="M997.83,-179.08C998.09,-172.01 998.47,-161.86 998.8,-152.99"/>
<polygon fill="midnightblue" stroke="midnightblue" points="1002.3,-152.87 999.18,-142.75 995.31,-152.61 1002.3,-152.87"/>
</g>
<!-- Node44 -->
<g id="node30" class="node">
<title>Node44</title>
<g id="a_node30"><a xlink:title=" ">
<polygon fill="none" stroke="#bfbfbf" points="1060.5,-123.5 1060.5,-142.5 1124.5,-142.5 1124.5,-123.5 1060.5,-123.5"/>
<text text-anchor="middle" x="1092.5" y="-130.5" font-family="Helvetica,sans-Serif" font-size="10.00">G4Run.hh</text>
</a>
</g>
</g>
<!-- Node41&#45;&gt;Node44 -->
<g id="edge33" class="edge">
<title>Node41&#45;&gt;Node44</title>
<path fill="none" stroke="midnightblue" d="M1012.76,-179.32C1027.72,-170.82 1050.75,-157.73 1068.23,-147.8"/>
<polygon fill="midnightblue" stroke="midnightblue" points="1070.31,-150.64 1077.27,-142.65 1066.85,-144.55 1070.31,-150.64"/>
</g>
<!-- Node8 -->
<g id="node25" class="node">
<title>Node8</title>
<g id="a_node25"><a xlink:title=" ">
<polygon fill="none" stroke="#bfbfbf" points="1637,-62 1637,-81 1730,-81 1730,-62 1637,-62"/>
<text text-anchor="middle" x="1683.5" y="-69" font-family="Helvetica,sans-Serif" font-size="10.00">spdlog/spdlog.h</text>
</a>
</g>
</g>
<!-- Node7&#45;&gt;Node8 -->
<g id="edge28" class="edge">
<title>Node7&#45;&gt;Node8</title>
<path fill="none" stroke="midnightblue" d="M1715.2,-123.48C1709.76,-114.73 1701.14,-100.87 1694.26,-89.81"/>
<polygon fill="midnightblue" stroke="midnightblue" points="1697.04,-87.65 1688.79,-81.01 1691.1,-91.35 1697.04,-87.65"/>
</g>
<!-- Node9 -->
<g id="node26" class="node">
<title>Node9</title>
<g id="a_node26"><a xlink:title=" ">
<polygon fill="none" stroke="#bfbfbf" points="1748,-56.5 1748,-86.5 1859,-86.5 1859,-56.5 1748,-56.5"/>
<text text-anchor="start" x="1756" y="-74.5" font-family="Helvetica,sans-Serif" font-size="10.00">spdlog/sinks/stdout</text>
<text text-anchor="middle" x="1803.5" y="-63.5" font-family="Helvetica,sans-Serif" font-size="10.00">_color_sinks.h</text>
</a>
</g>
</g>
<!-- Node7&#45;&gt;Node9 -->
<g id="edge29" class="edge">
<title>Node7&#45;&gt;Node9</title>
<path fill="none" stroke="midnightblue" d="M1732.39,-123.48C1743.63,-115.42 1760.92,-103.02 1775.64,-92.47"/>
<polygon fill="midnightblue" stroke="midnightblue" points="1777.85,-95.19 1783.94,-86.52 1773.77,-89.5 1777.85,-95.19"/>
</g>
<!-- Node10 -->
<g id="node27" class="node">
<title>Node10</title>
<g id="a_node27"><a xlink:title=" ">
<polygon fill="none" stroke="#bfbfbf" points="1444.5,-62 1444.5,-81 1502.5,-81 1502.5,-62 1444.5,-62"/>
<text text-anchor="middle" x="1473.5" y="-69" font-family="Helvetica,sans-Serif" font-size="10.00">memory</text>
</a>
</g>
</g>
<!-- Node7&#45;&gt;Node10 -->
<g id="edge30" class="edge">
<title>Node7&#45;&gt;Node10</title>
<path fill="none" stroke="midnightblue" d="M1670.98,-123.54C1628.29,-115.73 1565.23,-102.94 1511.5,-87 1508.92,-86.24 1506.27,-85.38 1503.63,-84.47"/>
<polygon fill="midnightblue" stroke="midnightblue" points="1504.8,-81.18 1494.21,-81.06 1502.42,-87.76 1504.8,-81.18"/>
</g>
<!-- Node11 -->
<g id="node28" class="node">
<title>Node11</title>
<g id="a_node28"><a xlink:title=" ">
<polygon fill="none" stroke="#bfbfbf" points="1520.5,-62 1520.5,-81 1618.5,-81 1618.5,-62 1520.5,-62"/>
<text text-anchor="middle" x="1569.5" y="-69" font-family="Helvetica,sans-Serif" font-size="10.00">spdlog/fmt/fmt.h</text>
</a>
</g>
</g>
<!-- Node7&#45;&gt;Node11 -->
<g id="edge31" class="edge">
<title>Node7&#45;&gt;Node11</title>
<path fill="none" stroke="midnightblue" d="M1698.87,-123.48C1673.08,-113.31 1629.79,-96.26 1600.46,-84.7"/>
<polygon fill="midnightblue" stroke="midnightblue" points="1601.68,-81.42 1591.09,-81.01 1599.12,-87.93 1601.68,-81.42"/>
</g>
<!-- Node47 -->
<g id="node33" class="node">
<title>Node47</title>
<g id="a_node33"><a xlink:title=" ">
<polygon fill="none" stroke="#bfbfbf" points="1074,-179.5 1074,-198.5 1213,-198.5 1213,-179.5 1074,-179.5"/>
<text text-anchor="middle" x="1143.5" y="-186.5" font-family="Helvetica,sans-Serif" font-size="10.00">G4UserTrackingAction.hh</text>
</a>
</g>
</g>
<!-- Node46&#45;&gt;Node47 -->
<g id="edge36" class="edge">
<title>Node46&#45;&gt;Node47</title>
<path fill="none" stroke="midnightblue" d="M1186.91,-235.08C1179.34,-227.22 1168.12,-215.57 1158.99,-206.08"/>
<polygon fill="midnightblue" stroke="midnightblue" points="1161.38,-203.53 1151.93,-198.75 1156.34,-208.38 1161.38,-203.53"/>
</g>
<!-- Node49 -->
<g id="node35" class="node">
<title>Node49</title>
<g id="a_node35"><a xlink:title=" ">
<polygon fill="none" stroke="#bfbfbf" points="1231,-179.5 1231,-198.5 1372,-198.5 1372,-179.5 1231,-179.5"/>
<text text-anchor="middle" x="1301.5" y="-186.5" font-family="Helvetica,sans-Serif" font-size="10.00">G4UserSteppingAction.hh</text>
</a>
</g>
</g>
<!-- Node48&#45;&gt;Node49 -->
<g id="edge38" class="edge">
<title>Node48&#45;&gt;Node49</title>
<path fill="none" stroke="midnightblue" d="M1344.08,-235.08C1336.65,-227.22 1325.65,-215.57 1316.69,-206.08"/>
<polygon fill="midnightblue" stroke="midnightblue" points="1319.18,-203.62 1309.76,-198.75 1314.09,-208.42 1319.18,-203.62"/>
</g>
<!-- Node51 -->
<g id="node37" class="node">
<title>Node51</title>
<g id="a_node37"><a xlink:href="_o_m_sim_command_args_table_8hh.html" target="_top" xlink:title="Definition of the OMSimCommandArgsTable singleton class, which controls user args.">
<polygon fill="none" stroke="black" points="1700.5,-179.5 1700.5,-198.5 1864.5,-198.5 1864.5,-179.5 1700.5,-179.5"/>
<text text-anchor="middle" x="1782.5" y="-186.5" font-family="Helvetica,sans-Serif" font-size="10.00">OMSimCommandArgsTable.hh</text>
</a>
</g>
</g>
<!-- Node50&#45;&gt;Node51 -->
<g id="edge40" class="edge">
<title>Node50&#45;&gt;Node51</title>
<path fill="none" stroke="midnightblue" d="M1696.05,-235.32C1712.49,-226.7 1737.93,-213.36 1756.97,-203.39"/>
<polygon fill="midnightblue" stroke="midnightblue" points="1758.76,-206.4 1765.99,-198.65 1755.51,-200.2 1758.76,-206.4"/>
</g>
<!-- Node54 -->
<g id="node40" class="node">
<title>Node54</title>
<g id="a_node40"><a xlink:title=" ">
<polygon fill="none" stroke="#bfbfbf" points="1584.5,-179.5 1584.5,-198.5 1682.5,-198.5 1682.5,-179.5 1584.5,-179.5"/>
<text text-anchor="middle" x="1633.5" y="-186.5" font-family="Helvetica,sans-Serif" font-size="10.00">G4UImanager.hh</text>
</a>
</g>
</g>
<!-- Node50&#45;&gt;Node54 -->
<g id="edge45" class="edge">
<title>Node50&#45;&gt;Node54</title>
<path fill="none" stroke="midnightblue" d="M1671.9,-235.08C1665.27,-227.3 1655.48,-215.8 1647.44,-206.37"/>
<polygon fill="midnightblue" stroke="midnightblue" points="1650.1,-204.09 1640.95,-198.75 1644.77,-208.63 1650.1,-204.09"/>
</g>
<!-- Node51&#45;&gt;Node33 -->
<g id="edge42" class="edge">
<title>Node51&#45;&gt;Node33</title>
<path fill="none" stroke="midnightblue" d="M1791.67,-179.32C1812.16,-159.92 1861.9,-112.83 1887.96,-88.16"/>
<polygon fill="midnightblue" stroke="midnightblue" points="1890.37,-90.7 1895.22,-81.28 1885.56,-85.62 1890.37,-90.7"/>
</g>
<!-- Node51&#45;&gt;Node7 -->
<g id="edge41" class="edge">
<title>Node51&#45;&gt;Node7</title>
<path fill="none" stroke="midnightblue" d="M1772.54,-179.32C1763.37,-171.34 1749.56,-159.31 1738.47,-149.65"/>
<polygon fill="midnightblue" stroke="midnightblue" points="1740.48,-146.76 1730.64,-142.83 1735.88,-152.04 1740.48,-146.76"/>
</g>
<!-- Node52 -->
<g id="node38" class="node">
<title>Node52</title>
<g id="a_node38"><a xlink:title=" ">
<polygon fill="none" stroke="#bfbfbf" points="1568.5,-123.5 1568.5,-142.5 1652.5,-142.5 1652.5,-123.5 1568.5,-123.5"/>
<text text-anchor="middle" x="1610.5" y="-130.5" font-family="Helvetica,sans-Serif" font-size="10.00">boost/any.hpp</text>
</a>
</g>
</g>
<!-- Node51&#45;&gt;Node52 -->
<g id="edge43" class="edge">
<title>Node51&#45;&gt;Node52</title>
<path fill="none" stroke="midnightblue" d="M1755.25,-179.44C1726.06,-170.28 1679.58,-155.69 1647.19,-145.52"/>
<polygon fill="midnightblue" stroke="midnightblue" points="1648.22,-142.17 1637.63,-142.52 1646.12,-148.85 1648.22,-142.17"/>
</g>
<!-- Node53 -->
<g id="node39" class="node">
<title>Node53</title>
<g id="a_node39"><a xlink:title=" ">
<polygon fill="none" stroke="#bfbfbf" points="1482.5,-123.5 1482.5,-142.5 1550.5,-142.5 1550.5,-123.5 1482.5,-123.5"/>
<text text-anchor="middle" x="1516.5" y="-130.5" font-family="Helvetica,sans-Serif" font-size="10.00">sys/time.h</text>
</a>
</g>
</g>
<!-- Node51&#45;&gt;Node53 -->
<g id="edge44" class="edge">
<title>Node51&#45;&gt;Node53</title>
<path fill="none" stroke="midnightblue" d="M1739.73,-179.46C1696.93,-170.9 1628.92,-157.24 1560.81,-143.26"/>
<polygon fill="midnightblue" stroke="midnightblue" points="1561.26,-139.78 1550.76,-141.19 1559.85,-146.64 1561.26,-139.78"/>
</g>
<!-- Node60 -->
<g id="node46" class="node">
<title>Node60</title>
<g id="a_node46"><a xlink:title=" ">
<polygon fill="none" stroke="#bfbfbf" points="1865,-123.5 1865,-142.5 1932,-142.5 1932,-123.5 1865,-123.5"/>
<text text-anchor="middle" x="1898.5" y="-130.5" font-family="Helvetica,sans-Serif" font-size="10.00">globals.hh</text>
</a>
</g>
</g>
<!-- Node59&#45;&gt;Node60 -->
<g id="edge51" class="edge">
<title>Node59&#45;&gt;Node60</title>
<path fill="none" stroke="midnightblue" d="M1712.55,-291.49C1754.15,-278.26 1829.18,-248.94 1873.5,-199 1885.15,-185.87 1891.63,-166.73 1895.05,-152.61"/>
<polygon fill="midnightblue" stroke="midnightblue" points="1898.53,-153.09 1897.18,-142.58 1891.68,-151.64 1898.53,-153.09"/>
</g>
<!-- Node61&#45;&gt;Node26 -->
<g id="edge54" class="edge">
<title>Node61&#45;&gt;Node26</title>
<path fill="none" stroke="midnightblue" d="M1443.32,-179.44C1404.92,-170.1 1343.32,-155.12 1301.44,-144.93"/>
<polygon fill="midnightblue" stroke="midnightblue" points="1302.06,-141.48 1291.51,-142.52 1300.4,-148.28 1302.06,-141.48"/>
</g>
<!-- Node61&#45;&gt;Node27 -->
<g id="edge53" class="edge">
<title>Node61&#45;&gt;Node27</title>
<path fill="none" stroke="midnightblue" d="M1390.45,-180.01C1331.89,-173.33 1253.67,-161.81 1186.5,-143 1172.31,-139.03 1090.3,-104.17 1045.58,-85.01"/>
<polygon fill="midnightblue" stroke="midnightblue" points="1046.95,-81.79 1036.38,-81.06 1044.19,-88.22 1046.95,-81.79"/>
</g>
<!-- Node61&#45;&gt;Node32 -->
<g id="edge55" class="edge">
<title>Node61&#45;&gt;Node32</title>
<path fill="none" stroke="midnightblue" d="M1470.68,-179.32C1453.37,-160.09 1411.54,-113.64 1389.18,-88.81"/>
<polygon fill="midnightblue" stroke="midnightblue" points="1391.7,-86.37 1382.41,-81.28 1386.5,-91.06 1391.7,-86.37"/>
</g>
<!-- Node61&#45;&gt;Node33 -->
<g id="edge56" class="edge">
<title>Node61&#45;&gt;Node33</title>
<path fill="none" stroke="midnightblue" d="M1557.58,-179.48C1632.61,-170.79 1739.65,-156.69 1779.5,-143 1819.2,-129.36 1860.78,-103.14 1884.58,-86.8"/>
<polygon fill="midnightblue" stroke="midnightblue" points="1886.59,-89.67 1892.79,-81.07 1882.58,-83.93 1886.59,-89.67"/>
</g>
<!-- Node63&#45;&gt;Node30 -->
<g id="edge61" class="edge">
<title>Node63&#45;&gt;Node30</title>
<path fill="none" stroke="midnightblue" d="M1967.94,-179.3C1971.34,-155.51 1977.07,-88.99 1941.5,-56 1915.41,-31.81 1678.24,-17.68 1581.4,-12.87"/>
<polygon fill="midnightblue" stroke="midnightblue" points="1581.28,-9.36 1571.12,-12.37 1580.94,-16.35 1581.28,-9.36"/>
</g>
<!-- Node63&#45;&gt;Node31 -->
<g id="edge62" class="edge">
<title>Node63&#45;&gt;Node31</title>
<path fill="none" stroke="midnightblue" d="M1970.45,-179.49C1980.35,-156.74 2003.43,-93.7 1974.5,-56 1958.63,-35.32 1887.75,-22.07 1843.28,-15.63"/>
<polygon fill="midnightblue" stroke="midnightblue" points="1843.52,-12.13 1833.13,-14.21 1842.55,-19.06 1843.52,-12.13"/>
</g>
<!-- Node63&#45;&gt;Node7 -->
<g id="edge59" class="edge">
<title>Node63&#45;&gt;Node7</title>
<path fill="none" stroke="midnightblue" d="M1927.52,-179.44C1884.61,-170.02 1815.55,-154.87 1769.13,-144.68"/>
<polygon fill="midnightblue" stroke="midnightblue" points="1769.81,-141.24 1759.3,-142.52 1768.31,-148.08 1769.81,-141.24"/>
</g>
<!-- Node63&#45;&gt;Node60 -->
<g id="edge60" class="edge">
<title>Node63&#45;&gt;Node60</title>
<path fill="none" stroke="midnightblue" d="M1955.57,-179.32C1945.33,-171.18 1929.78,-158.84 1917.5,-149.09"/>
<polygon fill="midnightblue" stroke="midnightblue" points="1919.63,-146.31 1909.62,-142.83 1915.28,-151.79 1919.63,-146.31"/>
</g>
<!-- Node64 -->
<g id="node50" class="node">
<title>Node64</title>
<g id="a_node50"><a xlink:title=" ">
<polygon fill="none" stroke="#bfbfbf" points="2027,-123.5 2027,-142.5 2078,-142.5 2078,-123.5 2027,-123.5"/>
<text text-anchor="middle" x="2052.5" y="-130.5" font-family="Helvetica,sans-Serif" font-size="10.00">variant</text>
</a>
</g>
</g>
<!-- Node63&#45;&gt;Node64 -->
<g id="edge63" class="edge">
<title>Node63&#45;&gt;Node64</title>
<path fill="none" stroke="midnightblue" d="M1980.32,-179.32C1993.73,-170.9 2014.32,-157.97 2030.09,-148.07"/>
<polygon fill="midnightblue" stroke="midnightblue" points="2032.11,-150.94 2038.72,-142.65 2028.39,-145.01 2032.11,-150.94"/>
</g>
</g>
</svg>
