<?xml version="1.0" encoding="UTF-8" standalone="no"?>
<!DOCTYPE svg PUBLIC "-//W3C//DTD SVG 1.1//EN"
 "http://www.w3.org/Graphics/SVG/1.1/DTD/svg11.dtd">
<!-- Generated by graphviz version 2.43.0 (0)
 -->
<!-- Title: OMSimPMTConstruction.hh Pages: 1 -->
<svg width="1133pt" height="208pt"
 viewBox="0.00 0.00 1133.00 207.92" xmlns="http://www.w3.org/2000/svg" xmlns:xlink="http://www.w3.org/1999/xlink">
<g id="graph0" class="graph" transform="scale(1 1) rotate(0) translate(4 203.92)">
<title>OMSimPMTConstruction.hh</title>
<polygon fill="white" stroke="transparent" points="-4,4 -4,-203.92 1129,-203.92 1129,4 -4,4"/>
<!-- Node1 -->
<g id="node1" class="node">
<title>Node1</title>
<g id="a_node1"><a xlink:title="Construction of the PMTs.">
<polygon fill="#bfbfbf" stroke="black" points="848,-179.5 848,-198.5 997,-198.5 997,-179.5 848,-179.5"/>
<text text-anchor="middle" x="922.5" y="-186.5" font-family="Helvetica,sans-Serif" font-size="10.00">OMSimPMTConstruction.hh</text>
</a>
</g>
</g>
<!-- Node1&#45;&gt;Node1 -->
<g id="edge10" class="edge">
<title>Node1&#45;&gt;Node1</title>
<path fill="none" stroke="midnightblue" d="M961.95,-198.53C988.76,-201.31 1015,-198.13 1015,-189 1015,-181.01 994.91,-177.58 971.93,-178.71"/>
<polygon fill="midnightblue" stroke="midnightblue" points="971.65,-175.22 961.95,-179.47 972.19,-182.2 971.65,-175.22"/>
</g>
<!-- Node2 -->
<g id="node2" class="node">
<title>Node2</title>
<g id="a_node2"><a xlink:href="abc_detector_component_8hh.html" target="_top" xlink:title="Provides helper base class abcDetectorComponent for constructing and managing detector components in ...">
<polygon fill="white" stroke="black" points="394,-123.5 394,-142.5 541,-142.5 541,-123.5 394,-123.5"/>
<text text-anchor="middle" x="467.5" y="-130.5" font-family="Helvetica,sans-Serif" font-size="10.00">abcDetectorComponent.hh</text>
</a>
</g>
</g>
<!-- Node1&#45;&gt;Node2 -->
<g id="edge1" class="edge">
<title>Node1&#45;&gt;Node2</title>
<path fill="none" stroke="midnightblue" d="M850.65,-179.47C768.75,-169.75 635.15,-153.9 549.31,-143.71"/>
<polygon fill="midnightblue" stroke="midnightblue" points="549.69,-140.23 539.34,-142.53 548.86,-147.18 549.69,-140.23"/>
</g>
<!-- Node11 -->
<g id="node11" class="node">
<title>Node11</title>
<g id="a_node11"><a xlink:href="_o_m_sim_p_m_t_response_8hh.html" target="_top" xlink:title="Provides simulation for PMT response. This class is responsible for transforming hits on photocathode...">
<polygon fill="white" stroke="black" points="788,-123.5 788,-142.5 923,-142.5 923,-123.5 788,-123.5"/>
<text text-anchor="middle" x="855.5" y="-130.5" font-family="Helvetica,sans-Serif" font-size="10.00">OMSimPMTResponse.hh</text>
</a>
</g>
</g>
<!-- Node1&#45;&gt;Node11 -->
<g id="edge11" class="edge">
<title>Node1&#45;&gt;Node11</title>
<path fill="none" stroke="midnightblue" d="M911.74,-179.32C901.73,-171.26 886.61,-159.08 874.57,-149.37"/>
<polygon fill="midnightblue" stroke="midnightblue" points="876.44,-146.38 866.46,-142.83 872.05,-151.83 876.44,-146.38"/>
</g>
<!-- Node16 -->
<g id="node16" class="node">
<title>Node16</title>
<g id="a_node16"><a xlink:title=" ">
<polygon fill="white" stroke="#bfbfbf" points="941.5,-123.5 941.5,-142.5 1039.5,-142.5 1039.5,-123.5 941.5,-123.5"/>
<text text-anchor="middle" x="990.5" y="-130.5" font-family="Helvetica,sans-Serif" font-size="10.00">G4UnionSolid.hh</text>
</a>
</g>
</g>
<!-- Node1&#45;&gt;Node16 -->
<g id="edge17" class="edge">
<title>Node1&#45;&gt;Node16</title>
<path fill="none" stroke="midnightblue" d="M933.43,-179.32C943.67,-171.18 959.22,-158.84 971.5,-149.09"/>
<polygon fill="midnightblue" stroke="midnightblue" points="973.72,-151.79 979.38,-142.83 969.37,-146.31 973.72,-151.79"/>
</g>
<!-- Node17 -->
<g id="node17" class="node">
<title>Node17</title>
<g id="a_node17"><a xlink:title=" ">
<polygon fill="white" stroke="#bfbfbf" points="1058,-123.5 1058,-142.5 1125,-142.5 1125,-123.5 1058,-123.5"/>
<text text-anchor="middle" x="1091.5" y="-130.5" font-family="Helvetica,sans-Serif" font-size="10.00">G4Tubs.hh</text>
</a>
</g>
</g>
<!-- Node1&#45;&gt;Node17 -->
<g id="edge18" class="edge">
<title>Node1&#45;&gt;Node17</title>
<path fill="none" stroke="midnightblue" d="M949.28,-179.44C977.83,-170.32 1023.23,-155.81 1055.04,-145.65"/>
<polygon fill="midnightblue" stroke="midnightblue" points="1056.39,-148.89 1064.85,-142.52 1054.26,-142.23 1056.39,-148.89"/>
</g>
<!-- Node3 -->
<g id="node3" class="node">
<title>Node3</title>
<g id="a_node3"><a xlink:href="_o_m_sim_input_data_8hh.html" target="_top" xlink:title="Definition of ParameterTable and InputDataManager.">
<polygon fill="white" stroke="black" points="87,-67.5 87,-86.5 202,-86.5 202,-67.5 87,-67.5"/>
<text text-anchor="middle" x="144.5" y="-74.5" font-family="Helvetica,sans-Serif" font-size="10.00">OMSimInputData.hh</text>
</a>
</g>
</g>
<!-- Node2&#45;&gt;Node3 -->
<g id="edge2" class="edge">
<title>Node2&#45;&gt;Node3</title>
<path fill="none" stroke="midnightblue" d="M416.32,-123.44C359.03,-113.87 266.26,-98.36 205.31,-88.17"/>
<polygon fill="midnightblue" stroke="midnightblue" points="205.88,-84.71 195.44,-86.52 204.73,-91.62 205.88,-84.71"/>
</g>
<!-- Node7 -->
<g id="node7" class="node">
<title>Node7</title>
<g id="a_node7"><a xlink:title=" ">
<polygon fill="white" stroke="#bfbfbf" points="220,-67.5 220,-86.5 327,-86.5 327,-67.5 220,-67.5"/>
<text text-anchor="middle" x="273.5" y="-74.5" font-family="Helvetica,sans-Serif" font-size="10.00">G4Transform3D.hh</text>
</a>
</g>
</g>
<!-- Node2&#45;&gt;Node7 -->
<g id="edge6" class="edge">
<title>Node2&#45;&gt;Node7</title>
<path fill="none" stroke="midnightblue" d="M436.76,-123.44C403.56,-114.2 350.51,-99.44 313.94,-89.26"/>
<polygon fill="midnightblue" stroke="midnightblue" points="314.67,-85.83 304.1,-86.52 312.79,-92.57 314.67,-85.83"/>
</g>
<!-- Node8 -->
<g id="node8" class="node">
<title>Node8</title>
<g id="a_node8"><a xlink:title=" ">
<polygon fill="white" stroke="#bfbfbf" points="345.5,-67.5 345.5,-86.5 453.5,-86.5 453.5,-67.5 345.5,-67.5"/>
<text text-anchor="middle" x="399.5" y="-74.5" font-family="Helvetica,sans-Serif" font-size="10.00">G4VisAttributes.hh</text>
</a>
</g>
</g>
<!-- Node2&#45;&gt;Node8 -->
<g id="edge7" class="edge">
<title>Node2&#45;&gt;Node8</title>
<path fill="none" stroke="midnightblue" d="M456.57,-123.32C446.33,-115.18 430.78,-102.84 418.5,-93.09"/>
<polygon fill="midnightblue" stroke="midnightblue" points="420.63,-90.31 410.62,-86.83 416.28,-95.79 420.63,-90.31"/>
</g>
<!-- Node9 -->
<g id="node9" class="node">
<title>Node9</title>
<g id="a_node9"><a xlink:title=" ">
<polygon fill="white" stroke="#bfbfbf" points="472,-67.5 472,-86.5 597,-86.5 597,-67.5 472,-67.5"/>
<text text-anchor="middle" x="534.5" y="-74.5" font-family="Helvetica,sans-Serif" font-size="10.00">G4SubtractionSolid.hh</text>
</a>
</g>
</g>
<!-- Node2&#45;&gt;Node9 -->
<g id="edge8" class="edge">
<title>Node2&#45;&gt;Node9</title>
<path fill="none" stroke="midnightblue" d="M478.26,-123.32C488.27,-115.26 503.39,-103.08 515.43,-93.37"/>
<polygon fill="midnightblue" stroke="midnightblue" points="517.95,-95.83 523.54,-86.83 513.56,-90.38 517.95,-95.83"/>
</g>
<!-- Node10 -->
<g id="node10" class="node">
<title>Node10</title>
<g id="a_node10"><a xlink:title=" ">
<polygon fill="white" stroke="#bfbfbf" points="615.5,-67.5 615.5,-86.5 725.5,-86.5 725.5,-67.5 615.5,-67.5"/>
<text text-anchor="middle" x="670.5" y="-74.5" font-family="Helvetica,sans-Serif" font-size="10.00">G4PVPlacement.hh</text>
</a>
</g>
</g>
<!-- Node2&#45;&gt;Node10 -->
<g id="edge9" class="edge">
<title>Node2&#45;&gt;Node10</title>
<path fill="none" stroke="midnightblue" d="M499.67,-123.44C534.56,-114.16 590.39,-99.31 628.67,-89.13"/>
<polygon fill="midnightblue" stroke="midnightblue" points="629.72,-92.47 638.48,-86.52 627.92,-85.7 629.72,-92.47"/>
</g>
<!-- Node4 -->
<g id="node4" class="node">
<title>Node4</title>
<g id="a_node4"><a xlink:title=" ">
<polygon fill="white" stroke="#bfbfbf" points="0,-6 0,-25 143,-25 143,-6 0,-6"/>
<text text-anchor="middle" x="71.5" y="-13" font-family="Helvetica,sans-Serif" font-size="10.00">G4OpBoundaryProcess.hh</text>
</a>
</g>
</g>
<!-- Node3&#45;&gt;Node4 -->
<g id="edge3" class="edge">
<title>Node3&#45;&gt;Node4</title>
<path fill="none" stroke="midnightblue" d="M134.04,-67.48C122.55,-58.11 103.87,-42.88 89.91,-31.51"/>
<polygon fill="midnightblue" stroke="midnightblue" points="91.9,-28.61 81.94,-25.01 87.48,-34.04 91.9,-28.61"/>
</g>
<!-- Node5 -->
<g id="node5" class="node">
<title>Node5</title>
<g id="a_node5"><a xlink:title=" ">
<polygon fill="white" stroke="#bfbfbf" points="493,-6 493,-25 612,-25 612,-6 493,-6"/>
<text text-anchor="middle" x="552.5" y="-13" font-family="Helvetica,sans-Serif" font-size="10.00">G4SystemOfUnits.hh</text>
</a>
</g>
</g>
<!-- Node3&#45;&gt;Node5 -->
<g id="edge4" class="edge">
<title>Node3&#45;&gt;Node5</title>
<path fill="none" stroke="midnightblue" d="M202.09,-67.6C276.19,-56.79 404.77,-38.04 483.87,-26.51"/>
<polygon fill="midnightblue" stroke="midnightblue" points="484.82,-29.91 494.21,-25 483.81,-22.98 484.82,-29.91"/>
</g>
<!-- Node6 -->
<g id="node6" class="node">
<title>Node6</title>
<g id="a_node6"><a xlink:title=" ">
<polygon fill="white" stroke="#bfbfbf" points="161,-0.5 161,-30.5 274,-30.5 274,-0.5 161,-0.5"/>
<text text-anchor="start" x="169" y="-18.5" font-family="Helvetica,sans-Serif" font-size="10.00">boost/property_tree</text>
<text text-anchor="middle" x="217.5" y="-7.5" font-family="Helvetica,sans-Serif" font-size="10.00">/json_parser.hpp</text>
</a>
</g>
</g>
<!-- Node3&#45;&gt;Node6 -->
<g id="edge5" class="edge">
<title>Node3&#45;&gt;Node6</title>
<path fill="none" stroke="midnightblue" d="M154.96,-67.48C164.66,-59.57 179.49,-47.48 192.27,-37.07"/>
<polygon fill="midnightblue" stroke="midnightblue" points="194.76,-39.55 200.3,-30.52 190.33,-34.13 194.76,-39.55"/>
</g>
<!-- Node11&#45;&gt;Node5 -->
<g id="edge12" class="edge">
<title>Node11&#45;&gt;Node5</title>
<path fill="none" stroke="midnightblue" d="M839.57,-123.32C807.97,-106.12 739.92,-69.18 734.5,-67 691.39,-49.69 640.25,-36.07 603.17,-27.36"/>
<polygon fill="midnightblue" stroke="midnightblue" points="603.64,-23.88 593.11,-25.04 602.06,-30.7 603.64,-23.88"/>
</g>
<!-- Node12 -->
<g id="node12" class="node">
<title>Node12</title>
<g id="a_node12"><a xlink:title=" ">
<polygon fill="white" stroke="#bfbfbf" points="782,-67.5 782,-86.5 855,-86.5 855,-67.5 782,-67.5"/>
<text text-anchor="middle" x="818.5" y="-74.5" font-family="Helvetica,sans-Serif" font-size="10.00">G4Types.hh</text>
</a>
</g>
</g>
<!-- Node11&#45;&gt;Node12 -->
<g id="edge13" class="edge">
<title>Node11&#45;&gt;Node12</title>
<path fill="none" stroke="midnightblue" d="M849.39,-123.08C844.22,-115.53 836.65,-104.49 830.31,-95.23"/>
<polygon fill="midnightblue" stroke="midnightblue" points="833.04,-93.02 824.5,-86.75 827.26,-96.98 833.04,-93.02"/>
</g>
<!-- Node13 -->
<g id="node13" class="node">
<title>Node13</title>
<g id="a_node13"><a xlink:title=" ">
<polygon fill="white" stroke="#bfbfbf" points="873.5,-67.5 873.5,-86.5 911.5,-86.5 911.5,-67.5 873.5,-67.5"/>
<text text-anchor="middle" x="892.5" y="-74.5" font-family="Helvetica,sans-Serif" font-size="10.00">map</text>
</a>
</g>
</g>
<!-- Node11&#45;&gt;Node13 -->
<g id="edge14" class="edge">
<title>Node11&#45;&gt;Node13</title>
<path fill="none" stroke="midnightblue" d="M861.61,-123.08C866.78,-115.53 874.35,-104.49 880.69,-95.23"/>
<polygon fill="midnightblue" stroke="midnightblue" points="883.74,-96.98 886.5,-86.75 877.96,-93.02 883.74,-96.98"/>
</g>
<!-- Node14 -->
<g id="node14" class="node">
<title>Node14</title>
<g id="a_node14"><a xlink:title=" ">
<polygon fill="white" stroke="#bfbfbf" points="930,-67.5 930,-86.5 991,-86.5 991,-67.5 930,-67.5"/>
<text text-anchor="middle" x="960.5" y="-74.5" font-family="Helvetica,sans-Serif" font-size="10.00">TGraph.h</text>
</a>
</g>
</g>
<!-- Node11&#45;&gt;Node14 -->
<g id="edge15" class="edge">
<title>Node11&#45;&gt;Node14</title>
<path fill="none" stroke="midnightblue" d="M872.37,-123.32C889.21,-114.66 915.31,-101.24 934.74,-91.25"/>
<polygon fill="midnightblue" stroke="midnightblue" points="936.38,-94.34 943.67,-86.65 933.18,-88.12 936.38,-94.34"/>
</g>
<!-- Node15 -->
<g id="node15" class="node">
<title>Node15</title>
<g id="a_node15"><a xlink:title=" ">
<polygon fill="white" stroke="#bfbfbf" points="1009,-67.5 1009,-86.5 1062,-86.5 1062,-67.5 1009,-67.5"/>
<text text-anchor="middle" x="1035.5" y="-74.5" font-family="Helvetica,sans-Serif" font-size="10.00">TH2D.h</text>
</a>
</g>
</g>
<!-- Node11&#45;&gt;Node15 -->
<g id="edge16" class="edge">
<title>Node11&#45;&gt;Node15</title>
<path fill="none" stroke="midnightblue" d="M884.02,-123.44C915.11,-114.12 964.93,-99.17 998.88,-88.99"/>
<polygon fill="midnightblue" stroke="midnightblue" points="1000.3,-92.21 1008.87,-85.99 998.29,-85.51 1000.3,-92.21"/>
</g>
</g>
</svg>
