<?xml version="1.0" encoding="UTF-8" standalone="no"?>
<!DOCTYPE svg PUBLIC "-//W3C//DTD SVG 1.1//EN"
 "http://www.w3.org/Graphics/SVG/1.1/DTD/svg11.dtd">
<!-- Generated by graphviz version 2.43.0 (0)
 -->
<!-- Title: OMSimPMTConstruction.cc Pages: 1 -->
<svg width="3197pt" height="431pt"
 viewBox="0.00 0.00 3196.50 431.00" xmlns="http://www.w3.org/2000/svg" xmlns:xlink="http://www.w3.org/1999/xlink">
<g id="graph0" class="graph" transform="scale(1 1) rotate(0) translate(4 427)">
<title>OMSimPMTConstruction.cc</title>
<polygon fill="white" stroke="transparent" points="-4,4 -4,-427 3192.5,-427 3192.5,4 -4,4"/>
<!-- Node1 -->
<g id="node1" class="node">
<title>Node1</title>
<g id="a_node1"><a xlink:title=" ">
<polygon fill="#bfbfbf" stroke="black" points="2435.5,-403.5 2435.5,-422.5 2582.5,-422.5 2582.5,-403.5 2435.5,-403.5"/>
<text text-anchor="middle" x="2509" y="-410.5" font-family="Helvetica,sans-Serif" font-size="10.00">OMSimPMTConstruction.cc</text>
</a>
</g>
</g>
<!-- Node2 -->
<g id="node2" class="node">
<title>Node2</title>
<g id="a_node2"><a xlink:href="_o_m_sim_p_m_t_construction_8hh.html" target="_top" xlink:title="Construction of the PMTs.">
<polygon fill="white" stroke="black" points="2467.5,-235.5 2467.5,-254.5 2616.5,-254.5 2616.5,-235.5 2467.5,-235.5"/>
<text text-anchor="middle" x="2542" y="-242.5" font-family="Helvetica,sans-Serif" font-size="10.00">OMSimPMTConstruction.hh</text>
</a>
</g>
</g>
<!-- Node1&#45;&gt;Node2 -->
<g id="edge1" class="edge">
<title>Node1&#45;&gt;Node2</title>
<path fill="none" stroke="midnightblue" d="M2505.04,-403.41C2499.78,-390.81 2491.84,-366.66 2498,-347 2503.82,-328.41 2514.6,-328.58 2523,-311 2530.13,-296.08 2535.16,-277.94 2538.24,-264.62"/>
<polygon fill="midnightblue" stroke="midnightblue" points="2541.69,-265.25 2540.38,-254.74 2534.85,-263.77 2541.69,-265.25"/>
</g>
<!-- Node5 -->
<g id="node5" class="node">
<title>Node5</title>
<g id="a_node5"><a xlink:href="_o_m_sim_logger_8hh.html" target="_top" xlink:title=" ">
<polygon fill="white" stroke="black" points="160.5,-67.5 160.5,-86.5 259.5,-86.5 259.5,-67.5 160.5,-67.5"/>
<text text-anchor="middle" x="210" y="-74.5" font-family="Helvetica,sans-Serif" font-size="10.00">OMSimLogger.hh</text>
</a>
</g>
</g>
<!-- Node1&#45;&gt;Node5 -->
<g id="edge61" class="edge">
<title>Node1&#45;&gt;Node5</title>
<path fill="none" stroke="midnightblue" d="M2435.27,-410.74C2020.84,-403.44 0,-364.61 0,-302 0,-302 0,-302 0,-188 0,-119.68 88.31,-93.71 150.39,-83.89"/>
<polygon fill="midnightblue" stroke="midnightblue" points="151.12,-87.32 160.5,-82.4 150.09,-80.4 151.12,-87.32"/>
</g>
<!-- Node24 -->
<g id="node17" class="node">
<title>Node24</title>
<g id="a_node17"><a xlink:href="_o_m_sim_command_args_table_8hh.html" target="_top" xlink:title="Definition of the OMSimCommandArgsTable singleton class, which controls user args.">
<polygon fill="white" stroke="black" points="120,-235.5 120,-254.5 284,-254.5 284,-235.5 120,-235.5"/>
<text text-anchor="middle" x="202" y="-242.5" font-family="Helvetica,sans-Serif" font-size="10.00">OMSimCommandArgsTable.hh</text>
</a>
</g>
</g>
<!-- Node1&#45;&gt;Node24 -->
<g id="edge17" class="edge">
<title>Node1&#45;&gt;Node24</title>
<path fill="none" stroke="midnightblue" d="M2435.18,-406.69C2094.14,-382.15 671.67,-279.79 294.26,-252.64"/>
<polygon fill="midnightblue" stroke="midnightblue" points="294.42,-249.14 284.2,-251.91 293.92,-256.12 294.42,-249.14"/>
</g>
<!-- Node28 -->
<g id="node21" class="node">
<title>Node28</title>
<g id="a_node21"><a xlink:href="_o_m_sim_detector_construction_8hh.html" target="_top" xlink:title=" ">
<polygon fill="white" stroke="black" points="2280,-347.5 2280,-366.5 2450,-366.5 2450,-347.5 2280,-347.5"/>
<text text-anchor="middle" x="2365" y="-354.5" font-family="Helvetica,sans-Serif" font-size="10.00">OMSimDetectorConstruction.hh</text>
</a>
</g>
</g>
<!-- Node1&#45;&gt;Node28 -->
<g id="edge22" class="edge">
<title>Node1&#45;&gt;Node28</title>
<path fill="none" stroke="midnightblue" d="M2486.18,-403.44C2462.17,-394.44 2424.17,-380.19 2397.13,-370.05"/>
<polygon fill="midnightblue" stroke="midnightblue" points="2398.3,-366.75 2387.71,-366.52 2395.84,-373.3 2398.3,-366.75"/>
</g>
<!-- Node34 -->
<g id="node25" class="node">
<title>Node34</title>
<g id="a_node25"><a xlink:href="_o_m_sim_sensitive_detector_8hh.html" target="_top" xlink:title=" ">
<polygon fill="white" stroke="black" points="2054.5,-235.5 2054.5,-254.5 2207.5,-254.5 2207.5,-235.5 2054.5,-235.5"/>
<text text-anchor="middle" x="2131" y="-242.5" font-family="Helvetica,sans-Serif" font-size="10.00">OMSimSensitiveDetector.hh</text>
</a>
</g>
</g>
<!-- Node1&#45;&gt;Node34 -->
<g id="edge28" class="edge">
<title>Node1&#45;&gt;Node34</title>
<path fill="none" stroke="midnightblue" d="M2435.4,-405.37C2326.62,-393.83 2131.39,-365.86 2091,-311 2078.96,-294.64 2095.68,-274.57 2111.03,-261.1"/>
<polygon fill="midnightblue" stroke="midnightblue" points="2113.29,-263.77 2118.78,-254.71 2108.84,-258.37 2113.29,-263.77"/>
</g>
<!-- Node37 -->
<g id="node29" class="node">
<title>Node37</title>
<g id="a_node29"><a xlink:href="_c_a_d_mesh_8hh.html" target="_top" xlink:title=" ">
<polygon fill="white" stroke="black" points="1107.5,-235.5 1107.5,-254.5 1186.5,-254.5 1186.5,-235.5 1107.5,-235.5"/>
<text text-anchor="middle" x="1147" y="-242.5" font-family="Helvetica,sans-Serif" font-size="10.00">CADMesh.hh</text>
</a>
</g>
</g>
<!-- Node1&#45;&gt;Node37 -->
<g id="edge34" class="edge">
<title>Node1&#45;&gt;Node37</title>
<path fill="none" stroke="midnightblue" d="M2439.11,-403.48C2197.84,-374.08 1403.32,-277.24 1196.55,-252.04"/>
<polygon fill="midnightblue" stroke="midnightblue" points="1196.93,-248.56 1186.58,-250.82 1196.09,-255.51 1196.93,-248.56"/>
</g>
<!-- Node53 -->
<g id="node45" class="node">
<title>Node53</title>
<g id="a_node45"><a xlink:title=" ">
<polygon fill="white" stroke="#bfbfbf" points="2506.5,-347.5 2506.5,-366.5 2575.5,-366.5 2575.5,-347.5 2506.5,-347.5"/>
<text text-anchor="middle" x="2541" y="-354.5" font-family="Helvetica,sans-Serif" font-size="10.00">G4Cons.hh</text>
</a>
</g>
</g>
<!-- Node1&#45;&gt;Node53 -->
<g id="edge55" class="edge">
<title>Node1&#45;&gt;Node53</title>
<path fill="none" stroke="midnightblue" d="M2514.28,-403.08C2518.71,-395.61 2525.16,-384.72 2530.62,-375.52"/>
<polygon fill="midnightblue" stroke="midnightblue" points="2533.73,-377.14 2535.81,-366.75 2527.71,-373.57 2533.73,-377.14"/>
</g>
<!-- Node54 -->
<g id="node46" class="node">
<title>Node54</title>
<g id="a_node46"><a xlink:title=" ">
<polygon fill="white" stroke="#bfbfbf" points="2594,-347.5 2594,-366.5 2680,-366.5 2680,-347.5 2594,-347.5"/>
<text text-anchor="middle" x="2637" y="-354.5" font-family="Helvetica,sans-Serif" font-size="10.00">G4Ellipsoid.hh</text>
</a>
</g>
</g>
<!-- Node1&#45;&gt;Node54 -->
<g id="edge56" class="edge">
<title>Node1&#45;&gt;Node54</title>
<path fill="none" stroke="midnightblue" d="M2529.28,-403.44C2550.35,-394.56 2583.52,-380.56 2607.49,-370.45"/>
<polygon fill="midnightblue" stroke="midnightblue" points="2608.96,-373.63 2616.81,-366.52 2606.24,-367.18 2608.96,-373.63"/>
</g>
<!-- Node55 -->
<g id="node47" class="node">
<title>Node55</title>
<g id="a_node47"><a xlink:title=" ">
<polygon fill="white" stroke="#bfbfbf" points="2698.5,-347.5 2698.5,-366.5 2847.5,-366.5 2847.5,-347.5 2698.5,-347.5"/>
<text text-anchor="middle" x="2773" y="-354.5" font-family="Helvetica,sans-Serif" font-size="10.00">G4LogicalBorderSurface.hh</text>
</a>
</g>
</g>
<!-- Node1&#45;&gt;Node55 -->
<g id="edge57" class="edge">
<title>Node1&#45;&gt;Node55</title>
<path fill="none" stroke="midnightblue" d="M2550.83,-403.44C2597.08,-393.98 2671.61,-378.74 2721.44,-368.55"/>
<polygon fill="midnightblue" stroke="midnightblue" points="2722.27,-371.95 2731.36,-366.52 2720.87,-365.09 2722.27,-371.95"/>
</g>
<!-- Node56 -->
<g id="node48" class="node">
<title>Node56</title>
<g id="a_node48"><a xlink:title=" ">
<polygon fill="white" stroke="#bfbfbf" points="2865.5,-347.5 2865.5,-366.5 3002.5,-366.5 3002.5,-347.5 2865.5,-347.5"/>
<text text-anchor="middle" x="2934" y="-354.5" font-family="Helvetica,sans-Serif" font-size="10.00">G4LogicalSkinSurface.hh</text>
</a>
</g>
</g>
<!-- Node1&#45;&gt;Node56 -->
<g id="edge58" class="edge">
<title>Node1&#45;&gt;Node56</title>
<path fill="none" stroke="midnightblue" d="M2576.34,-403.44C2652.66,-393.75 2776.82,-377.97 2856.94,-367.79"/>
<polygon fill="midnightblue" stroke="midnightblue" points="2857.49,-371.25 2866.97,-366.52 2856.61,-364.3 2857.49,-371.25"/>
</g>
<!-- Node57 -->
<g id="node49" class="node">
<title>Node57</title>
<g id="a_node49"><a xlink:title=" ">
<polygon fill="white" stroke="#bfbfbf" points="3020.5,-347.5 3020.5,-366.5 3099.5,-366.5 3099.5,-347.5 3020.5,-347.5"/>
<text text-anchor="middle" x="3060" y="-354.5" font-family="Helvetica,sans-Serif" font-size="10.00">G4Sphere.hh</text>
</a>
</g>
</g>
<!-- Node1&#45;&gt;Node57 -->
<g id="edge59" class="edge">
<title>Node1&#45;&gt;Node57</title>
<path fill="none" stroke="midnightblue" d="M2582.56,-407.64C2678.66,-401.45 2852.35,-388.57 3010.13,-367.14"/>
<polygon fill="midnightblue" stroke="midnightblue" points="3011.07,-370.55 3020.5,-365.72 3010.11,-363.61 3011.07,-370.55"/>
</g>
<!-- Node58 -->
<g id="node50" class="node">
<title>Node58</title>
<g id="a_node50"><a xlink:title=" ">
<polygon fill="white" stroke="#bfbfbf" points="3117.5,-347.5 3117.5,-366.5 3188.5,-366.5 3188.5,-347.5 3117.5,-347.5"/>
<text text-anchor="middle" x="3153" y="-354.5" font-family="Helvetica,sans-Serif" font-size="10.00">G4Torus.hh</text>
</a>
</g>
</g>
<!-- Node1&#45;&gt;Node58 -->
<g id="edge60" class="edge">
<title>Node1&#45;&gt;Node58</title>
<path fill="none" stroke="midnightblue" d="M2582.75,-409.48C2694.32,-405.01 2912.81,-393.64 3106.94,-367.14"/>
<polygon fill="midnightblue" stroke="midnightblue" points="3107.62,-370.58 3117.05,-365.74 3106.66,-363.64 3107.62,-370.58"/>
</g>
<!-- Node2&#45;&gt;Node2 -->
<g id="edge12" class="edge">
<title>Node2&#45;&gt;Node2</title>
<path fill="none" stroke="midnightblue" d="M2581.45,-254.53C2608.26,-257.31 2634.5,-254.13 2634.5,-245 2634.5,-237.01 2614.41,-233.58 2591.43,-234.71"/>
<polygon fill="midnightblue" stroke="midnightblue" points="2591.15,-231.22 2581.45,-235.47 2591.69,-238.2 2591.15,-231.22"/>
</g>
<!-- Node3 -->
<g id="node3" class="node">
<title>Node3</title>
<g id="a_node3"><a xlink:href="abc_detector_component_8hh.html" target="_top" xlink:title="Provides helper base class abcDetectorComponent for constructing and managing detector components in ...">
<polygon fill="white" stroke="red" points="2468.5,-179.5 2468.5,-198.5 2615.5,-198.5 2615.5,-179.5 2468.5,-179.5"/>
<text text-anchor="middle" x="2542" y="-186.5" font-family="Helvetica,sans-Serif" font-size="10.00">abcDetectorComponent.hh</text>
</a>
</g>
</g>
<!-- Node2&#45;&gt;Node3 -->
<g id="edge2" class="edge">
<title>Node2&#45;&gt;Node3</title>
<path fill="none" stroke="midnightblue" d="M2542,-235.08C2542,-228.01 2542,-217.86 2542,-208.99"/>
<polygon fill="midnightblue" stroke="midnightblue" points="2545.5,-208.75 2542,-198.75 2538.5,-208.75 2545.5,-208.75"/>
</g>
<!-- Node17 -->
<g id="node13" class="node">
<title>Node17</title>
<g id="a_node13"><a xlink:href="_o_m_sim_p_m_t_response_8hh.html" target="_top" xlink:title="Simulation of PMT response.">
<polygon fill="white" stroke="red" points="2315.5,-179.5 2315.5,-198.5 2450.5,-198.5 2450.5,-179.5 2315.5,-179.5"/>
<text text-anchor="middle" x="2383" y="-186.5" font-family="Helvetica,sans-Serif" font-size="10.00">OMSimPMTResponse.hh</text>
</a>
</g>
</g>
<!-- Node2&#45;&gt;Node17 -->
<g id="edge13" class="edge">
<title>Node2&#45;&gt;Node17</title>
<path fill="none" stroke="midnightblue" d="M2516.81,-235.44C2490.06,-226.36 2447.6,-211.94 2417.69,-201.78"/>
<polygon fill="midnightblue" stroke="midnightblue" points="2418.67,-198.42 2408.08,-198.52 2416.42,-205.05 2418.67,-198.42"/>
</g>
<!-- Node22 -->
<g id="node15" class="node">
<title>Node22</title>
<g id="a_node15"><a xlink:title=" ">
<polygon fill="white" stroke="#bfbfbf" points="2719,-179.5 2719,-198.5 2817,-198.5 2817,-179.5 2719,-179.5"/>
<text text-anchor="middle" x="2768" y="-186.5" font-family="Helvetica,sans-Serif" font-size="10.00">G4UnionSolid.hh</text>
</a>
</g>
</g>
<!-- Node2&#45;&gt;Node22 -->
<g id="edge15" class="edge">
<title>Node2&#45;&gt;Node22</title>
<path fill="none" stroke="midnightblue" d="M2577.81,-235.44C2616.99,-226.08 2679.88,-211.06 2722.52,-200.87"/>
<polygon fill="midnightblue" stroke="midnightblue" points="2723.44,-204.24 2732.36,-198.52 2721.82,-197.44 2723.44,-204.24"/>
</g>
<!-- Node23 -->
<g id="node16" class="node">
<title>Node23</title>
<g id="a_node16"><a xlink:title=" ">
<polygon fill="white" stroke="#bfbfbf" points="2633.5,-179.5 2633.5,-198.5 2700.5,-198.5 2700.5,-179.5 2633.5,-179.5"/>
<text text-anchor="middle" x="2667" y="-186.5" font-family="Helvetica,sans-Serif" font-size="10.00">G4Tubs.hh</text>
</a>
</g>
</g>
<!-- Node2&#45;&gt;Node23 -->
<g id="edge16" class="edge">
<title>Node2&#45;&gt;Node23</title>
<path fill="none" stroke="midnightblue" d="M2561.81,-235.44C2582.29,-226.6 2614.48,-212.69 2637.86,-202.59"/>
<polygon fill="midnightblue" stroke="midnightblue" points="2639.49,-205.7 2647.29,-198.52 2636.72,-199.27 2639.49,-205.7"/>
</g>
<!-- Node4 -->
<g id="node4" class="node">
<title>Node4</title>
<g id="a_node4"><a xlink:href="_o_m_sim_input_data_8hh.html" target="_top" xlink:title="Definition of ParameterTable and InputDataManager.">
<polygon fill="white" stroke="red" points="2315.5,-123.5 2315.5,-142.5 2430.5,-142.5 2430.5,-123.5 2315.5,-123.5"/>
<text text-anchor="middle" x="2373" y="-130.5" font-family="Helvetica,sans-Serif" font-size="10.00">OMSimInputData.hh</text>
</a>
</g>
</g>
<!-- Node3&#45;&gt;Node4 -->
<g id="edge3" class="edge">
<title>Node3&#45;&gt;Node4</title>
<path fill="none" stroke="midnightblue" d="M2515.22,-179.44C2486.67,-170.32 2441.27,-155.81 2409.46,-145.65"/>
<polygon fill="midnightblue" stroke="midnightblue" points="2410.24,-142.23 2399.65,-142.52 2408.11,-148.89 2410.24,-142.23"/>
</g>
<!-- Node13 -->
<g id="node11" class="node">
<title>Node13</title>
<g id="a_node11"><a xlink:title=" ">
<polygon fill="white" stroke="#bfbfbf" points="2594.5,-123.5 2594.5,-142.5 2701.5,-142.5 2701.5,-123.5 2594.5,-123.5"/>
<text text-anchor="middle" x="2648" y="-130.5" font-family="Helvetica,sans-Serif" font-size="10.00">G4Transform3D.hh</text>
</a>
</g>
</g>
<!-- Node3&#45;&gt;Node13 -->
<g id="edge10" class="edge">
<title>Node3&#45;&gt;Node13</title>
<path fill="none" stroke="midnightblue" d="M2559.03,-179.32C2576.03,-170.66 2602.38,-157.24 2621.99,-147.25"/>
<polygon fill="midnightblue" stroke="midnightblue" points="2623.69,-150.31 2631.01,-142.65 2620.51,-144.08 2623.69,-150.31"/>
</g>
<!-- Node14 -->
<g id="node12" class="node">
<title>Node14</title>
<g id="a_node12"><a xlink:title=" ">
<polygon fill="white" stroke="#bfbfbf" points="2468,-123.5 2468,-142.5 2576,-142.5 2576,-123.5 2468,-123.5"/>
<text text-anchor="middle" x="2522" y="-130.5" font-family="Helvetica,sans-Serif" font-size="10.00">G4VisAttributes.hh</text>
</a>
</g>
</g>
<!-- Node3&#45;&gt;Node14 -->
<g id="edge11" class="edge">
<title>Node3&#45;&gt;Node14</title>
<path fill="none" stroke="midnightblue" d="M2538.7,-179.08C2536.02,-171.85 2532.15,-161.41 2528.81,-152.4"/>
<polygon fill="midnightblue" stroke="midnightblue" points="2532,-150.91 2525.24,-142.75 2525.43,-153.34 2532,-150.91"/>
</g>
<!-- Node4&#45;&gt;Node5 -->
<g id="edge4" class="edge">
<title>Node4&#45;&gt;Node5</title>
<path fill="none" stroke="midnightblue" d="M2315.43,-129.94C2260.38,-128.01 2175.03,-125.11 2101,-123 1379.71,-102.48 503.46,-84.03 269.67,-79.22"/>
<polygon fill="midnightblue" stroke="midnightblue" points="269.74,-75.72 259.67,-79.01 269.6,-82.72 269.74,-75.72"/>
</g>
<!-- Node10 -->
<g id="node10" class="node">
<title>Node10</title>
<g id="a_node10"><a xlink:title=" ">
<polygon fill="white" stroke="#bfbfbf" points="2258.5,-67.5 2258.5,-86.5 2401.5,-86.5 2401.5,-67.5 2258.5,-67.5"/>
<text text-anchor="middle" x="2330" y="-74.5" font-family="Helvetica,sans-Serif" font-size="10.00">G4OpBoundaryProcess.hh</text>
</a>
</g>
</g>
<!-- Node4&#45;&gt;Node10 -->
<g id="edge9" class="edge">
<title>Node4&#45;&gt;Node10</title>
<path fill="none" stroke="midnightblue" d="M2365.9,-123.08C2359.76,-115.38 2350.73,-104.03 2343.26,-94.65"/>
<polygon fill="midnightblue" stroke="midnightblue" points="2345.94,-92.39 2336.97,-86.75 2340.46,-96.75 2345.94,-92.39"/>
</g>
<!-- Node6 -->
<g id="node6" class="node">
<title>Node6</title>
<g id="a_node6"><a xlink:title=" ">
<polygon fill="white" stroke="#bfbfbf" points="43.5,-6 43.5,-25 136.5,-25 136.5,-6 43.5,-6"/>
<text text-anchor="middle" x="90" y="-13" font-family="Helvetica,sans-Serif" font-size="10.00">spdlog/spdlog.h</text>
</a>
</g>
</g>
<!-- Node5&#45;&gt;Node6 -->
<g id="edge5" class="edge">
<title>Node5&#45;&gt;Node6</title>
<path fill="none" stroke="midnightblue" d="M192.81,-67.48C172.76,-57.53 139.4,-40.99 116.14,-29.46"/>
<polygon fill="midnightblue" stroke="midnightblue" points="117.68,-26.32 107.16,-25.01 114.57,-32.59 117.68,-26.32"/>
</g>
<!-- Node7 -->
<g id="node7" class="node">
<title>Node7</title>
<g id="a_node7"><a xlink:title=" ">
<polygon fill="white" stroke="#bfbfbf" points="154.5,-0.5 154.5,-30.5 265.5,-30.5 265.5,-0.5 154.5,-0.5"/>
<text text-anchor="start" x="162.5" y="-18.5" font-family="Helvetica,sans-Serif" font-size="10.00">spdlog/sinks/stdout</text>
<text text-anchor="middle" x="210" y="-7.5" font-family="Helvetica,sans-Serif" font-size="10.00">_color_sinks.h</text>
</a>
</g>
</g>
<!-- Node5&#45;&gt;Node7 -->
<g id="edge6" class="edge">
<title>Node5&#45;&gt;Node7</title>
<path fill="none" stroke="midnightblue" d="M210,-67.48C210,-60.47 210,-50.19 210,-40.7"/>
<polygon fill="midnightblue" stroke="midnightblue" points="213.5,-40.52 210,-30.52 206.5,-40.52 213.5,-40.52"/>
</g>
<!-- Node8 -->
<g id="node8" class="node">
<title>Node8</title>
<g id="a_node8"><a xlink:title=" ">
<polygon fill="white" stroke="#bfbfbf" points="487,-6 487,-25 545,-25 545,-6 487,-6"/>
<text text-anchor="middle" x="516" y="-13" font-family="Helvetica,sans-Serif" font-size="10.00">memory</text>
</a>
</g>
</g>
<!-- Node5&#45;&gt;Node8 -->
<g id="edge7" class="edge">
<title>Node5&#45;&gt;Node8</title>
<path fill="none" stroke="midnightblue" d="M253.84,-67.48C313.58,-55.86 419.65,-35.23 476.85,-24.11"/>
<polygon fill="midnightblue" stroke="midnightblue" points="477.79,-27.5 486.94,-22.15 476.45,-20.62 477.79,-27.5"/>
</g>
<!-- Node9 -->
<g id="node9" class="node">
<title>Node9</title>
<g id="a_node9"><a xlink:title=" ">
<polygon fill="white" stroke="#bfbfbf" points="284,-6 284,-25 382,-25 382,-6 284,-6"/>
<text text-anchor="middle" x="333" y="-13" font-family="Helvetica,sans-Serif" font-size="10.00">spdlog/fmt/fmt.h</text>
</a>
</g>
</g>
<!-- Node5&#45;&gt;Node9 -->
<g id="edge8" class="edge">
<title>Node5&#45;&gt;Node9</title>
<path fill="none" stroke="midnightblue" d="M227.62,-67.48C248.17,-57.53 282.36,-40.99 306.21,-29.46"/>
<polygon fill="midnightblue" stroke="midnightblue" points="307.93,-32.51 315.41,-25.01 304.88,-26.21 307.93,-32.51"/>
</g>
<!-- Node19 -->
<g id="node14" class="node">
<title>Node19</title>
<g id="a_node14"><a xlink:title=" ">
<polygon fill="white" stroke="#bfbfbf" points="2054,-123.5 2054,-142.5 2092,-142.5 2092,-123.5 2054,-123.5"/>
<text text-anchor="middle" x="2073" y="-130.5" font-family="Helvetica,sans-Serif" font-size="10.00">map</text>
</a>
</g>
</g>
<!-- Node17&#45;&gt;Node19 -->
<g id="edge14" class="edge">
<title>Node17&#45;&gt;Node19</title>
<path fill="none" stroke="midnightblue" d="M2333.88,-179.44C2268.71,-168.09 2155.72,-148.41 2102.43,-139.13"/>
<polygon fill="midnightblue" stroke="midnightblue" points="2102.75,-135.63 2092.3,-137.36 2101.55,-142.53 2102.75,-135.63"/>
</g>
<!-- Node24&#45;&gt;Node5 -->
<g id="edge18" class="edge">
<title>Node24&#45;&gt;Node5</title>
<path fill="none" stroke="midnightblue" d="M119.71,-236.91C95.65,-230.55 71.85,-219.16 57,-199 20.24,-149.1 114.23,-108.71 170.82,-89.73"/>
<polygon fill="midnightblue" stroke="midnightblue" points="172.15,-92.98 180.57,-86.55 169.97,-86.32 172.15,-92.98"/>
</g>
<!-- Node25 -->
<g id="node18" class="node">
<title>Node25</title>
<g id="a_node18"><a xlink:title=" ">
<polygon fill="white" stroke="#bfbfbf" points="254.5,-179.5 254.5,-198.5 309.5,-198.5 309.5,-179.5 254.5,-179.5"/>
<text text-anchor="middle" x="282" y="-186.5" font-family="Helvetica,sans-Serif" font-size="10.00">fstream</text>
</a>
</g>
</g>
<!-- Node24&#45;&gt;Node25 -->
<g id="edge19" class="edge">
<title>Node24&#45;&gt;Node25</title>
<path fill="none" stroke="midnightblue" d="M214.85,-235.32C227.22,-226.98 246.13,-214.21 260.74,-204.35"/>
<polygon fill="midnightblue" stroke="midnightblue" points="262.85,-207.15 269.18,-198.65 258.93,-201.35 262.85,-207.15"/>
</g>
<!-- Node26 -->
<g id="node19" class="node">
<title>Node26</title>
<g id="a_node19"><a xlink:title=" ">
<polygon fill="white" stroke="#bfbfbf" points="66,-179.5 66,-198.5 150,-198.5 150,-179.5 66,-179.5"/>
<text text-anchor="middle" x="108" y="-186.5" font-family="Helvetica,sans-Serif" font-size="10.00">boost/any.hpp</text>
</a>
</g>
</g>
<!-- Node24&#45;&gt;Node26 -->
<g id="edge20" class="edge">
<title>Node24&#45;&gt;Node26</title>
<path fill="none" stroke="midnightblue" d="M186.9,-235.32C172.1,-226.82 149.31,-213.73 132.02,-203.8"/>
<polygon fill="midnightblue" stroke="midnightblue" points="133.48,-200.6 123.07,-198.65 129.99,-206.67 133.48,-200.6"/>
</g>
<!-- Node27 -->
<g id="node20" class="node">
<title>Node27</title>
<g id="a_node20"><a xlink:title=" ">
<polygon fill="white" stroke="#bfbfbf" points="168,-179.5 168,-198.5 236,-198.5 236,-179.5 168,-179.5"/>
<text text-anchor="middle" x="202" y="-186.5" font-family="Helvetica,sans-Serif" font-size="10.00">sys/time.h</text>
</a>
</g>
</g>
<!-- Node24&#45;&gt;Node27 -->
<g id="edge21" class="edge">
<title>Node24&#45;&gt;Node27</title>
<path fill="none" stroke="midnightblue" d="M202,-235.08C202,-228.01 202,-217.86 202,-208.99"/>
<polygon fill="midnightblue" stroke="midnightblue" points="205.5,-208.75 202,-198.75 198.5,-208.75 205.5,-208.75"/>
</g>
<!-- Node29 -->
<g id="node22" class="node">
<title>Node29</title>
<g id="a_node22"><a xlink:href="_o_m_sim_optical_module_8hh.html" target="_top" xlink:title=" ">
<polygon fill="white" stroke="red" points="2296.5,-291.5 2296.5,-310.5 2433.5,-310.5 2433.5,-291.5 2296.5,-291.5"/>
<text text-anchor="middle" x="2365" y="-298.5" font-family="Helvetica,sans-Serif" font-size="10.00">OMSimOpticalModule.hh</text>
</a>
</g>
</g>
<!-- Node28&#45;&gt;Node29 -->
<g id="edge23" class="edge">
<title>Node28&#45;&gt;Node29</title>
<path fill="none" stroke="midnightblue" d="M2365,-347.08C2365,-340.01 2365,-329.86 2365,-320.99"/>
<polygon fill="midnightblue" stroke="midnightblue" points="2368.5,-320.75 2365,-310.75 2361.5,-320.75 2368.5,-320.75"/>
</g>
<!-- Node32 -->
<g id="node23" class="node">
<title>Node32</title>
<g id="a_node23"><a xlink:title=" ">
<polygon fill="white" stroke="#bfbfbf" points="2452,-291.5 2452,-310.5 2514,-310.5 2514,-291.5 2452,-291.5"/>
<text text-anchor="middle" x="2483" y="-298.5" font-family="Helvetica,sans-Serif" font-size="10.00">G4Orb.hh</text>
</a>
</g>
</g>
<!-- Node28&#45;&gt;Node32 -->
<g id="edge26" class="edge">
<title>Node28&#45;&gt;Node32</title>
<path fill="none" stroke="midnightblue" d="M2383.7,-347.44C2402.94,-338.64 2433.15,-324.81 2455.2,-314.72"/>
<polygon fill="midnightblue" stroke="midnightblue" points="2456.75,-317.86 2464.39,-310.52 2453.84,-311.5 2456.75,-317.86"/>
</g>
<!-- Node33 -->
<g id="node24" class="node">
<title>Node33</title>
<g id="a_node24"><a xlink:title=" ">
<polygon fill="white" stroke="#bfbfbf" points="2100,-291.5 2100,-310.5 2278,-310.5 2278,-291.5 2100,-291.5"/>
<text text-anchor="middle" x="2189" y="-298.5" font-family="Helvetica,sans-Serif" font-size="10.00">G4VUserDetectorConstruction.hh</text>
</a>
</g>
</g>
<!-- Node28&#45;&gt;Node33 -->
<g id="edge27" class="edge">
<title>Node28&#45;&gt;Node33</title>
<path fill="none" stroke="midnightblue" d="M2337.11,-347.44C2307.25,-338.28 2259.69,-323.69 2226.54,-313.52"/>
<polygon fill="midnightblue" stroke="midnightblue" points="2227.34,-310.1 2216.76,-310.52 2225.29,-316.8 2227.34,-310.1"/>
</g>
<!-- Node29&#45;&gt;Node2 -->
<g id="edge25" class="edge">
<title>Node29&#45;&gt;Node2</title>
<path fill="none" stroke="midnightblue" d="M2393.05,-291.44C2423.08,-282.28 2470.91,-267.69 2504.24,-257.52"/>
<polygon fill="midnightblue" stroke="midnightblue" points="2505.54,-260.78 2514.09,-254.52 2503.5,-254.09 2505.54,-260.78"/>
</g>
<!-- Node29&#45;&gt;Node3 -->
<g id="edge24" class="edge">
<title>Node29&#45;&gt;Node3</title>
<path fill="none" stroke="midnightblue" d="M2376.6,-291.37C2394.08,-278.51 2428.4,-253.8 2459,-235 2477.56,-223.6 2499.22,-211.9 2515.76,-203.3"/>
<polygon fill="midnightblue" stroke="midnightblue" points="2517.56,-206.31 2524.85,-198.61 2514.35,-200.08 2517.56,-206.31"/>
</g>
<!-- Node34&#45;&gt;Node10 -->
<g id="edge32" class="edge">
<title>Node34&#45;&gt;Node10</title>
<path fill="none" stroke="midnightblue" d="M2188.62,-235.44C2215.21,-229.07 2245.74,-218.03 2268,-199 2268.27,-198.77 2303.71,-129.44 2320.88,-95.85"/>
<polygon fill="midnightblue" stroke="midnightblue" points="2324.13,-97.18 2325.57,-86.68 2317.9,-93.99 2324.13,-97.18"/>
</g>
<!-- Node34&#45;&gt;Node17 -->
<g id="edge31" class="edge">
<title>Node34&#45;&gt;Node17</title>
<path fill="none" stroke="midnightblue" d="M2170.93,-235.44C2214.89,-226.02 2285.63,-210.87 2333.18,-200.68"/>
<polygon fill="midnightblue" stroke="midnightblue" points="2334.21,-204.03 2343.26,-198.52 2332.75,-197.19 2334.21,-204.03"/>
</g>
<!-- Node35 -->
<g id="node26" class="node">
<title>Node35</title>
<g id="a_node26"><a xlink:title=" ">
<polygon fill="white" stroke="#bfbfbf" points="2121,-179.5 2121,-198.5 2259,-198.5 2259,-179.5 2121,-179.5"/>
<text text-anchor="middle" x="2190" y="-186.5" font-family="Helvetica,sans-Serif" font-size="10.00">G4VSensitiveDetector.hh</text>
</a>
</g>
</g>
<!-- Node34&#45;&gt;Node35 -->
<g id="edge29" class="edge">
<title>Node34&#45;&gt;Node35</title>
<path fill="none" stroke="midnightblue" d="M2140.48,-235.32C2149.2,-227.34 2162.34,-215.31 2172.9,-205.65"/>
<polygon fill="midnightblue" stroke="midnightblue" points="2175.33,-208.17 2180.35,-198.83 2170.61,-203 2175.33,-208.17"/>
</g>
<!-- Node31 -->
<g id="node27" class="node">
<title>Node31</title>
<g id="a_node27"><a xlink:title=" ">
<polygon fill="white" stroke="#bfbfbf" points="1999.5,-179.5 1999.5,-198.5 2102.5,-198.5 2102.5,-179.5 1999.5,-179.5"/>
<text text-anchor="middle" x="2051" y="-186.5" font-family="Helvetica,sans-Serif" font-size="10.00">G4ThreeVector.hh</text>
</a>
</g>
</g>
<!-- Node34&#45;&gt;Node31 -->
<g id="edge30" class="edge">
<title>Node34&#45;&gt;Node31</title>
<path fill="none" stroke="midnightblue" d="M2118.15,-235.32C2105.78,-226.98 2086.87,-214.21 2072.26,-204.35"/>
<polygon fill="midnightblue" stroke="midnightblue" points="2074.07,-201.35 2063.82,-198.65 2070.15,-207.15 2074.07,-201.35"/>
</g>
<!-- Node36 -->
<g id="node28" class="node">
<title>Node36</title>
<g id="a_node28"><a xlink:title=" ">
<polygon fill="white" stroke="#bfbfbf" points="1934.5,-179.5 1934.5,-198.5 1981.5,-198.5 1981.5,-179.5 1934.5,-179.5"/>
<text text-anchor="middle" x="1958" y="-186.5" font-family="Helvetica,sans-Serif" font-size="10.00">vector</text>
</a>
</g>
</g>
<!-- Node34&#45;&gt;Node36 -->
<g id="edge33" class="edge">
<title>Node34&#45;&gt;Node36</title>
<path fill="none" stroke="midnightblue" d="M2103.59,-235.44C2073.11,-225.93 2023.88,-210.56 1991.23,-200.37"/>
<polygon fill="midnightblue" stroke="midnightblue" points="1992.26,-197.03 1981.67,-197.39 1990.17,-203.71 1992.26,-197.03"/>
</g>
<!-- Node37&#45;&gt;Node8 -->
<g id="edge40" class="edge">
<title>Node37&#45;&gt;Node8</title>
<path fill="none" stroke="midnightblue" d="M1107.33,-242.71C991.88,-238.67 661.73,-224.94 621,-199 560.38,-160.4 530.94,-73.46 520.55,-35.19"/>
<polygon fill="midnightblue" stroke="midnightblue" points="523.9,-34.18 518.01,-25.37 517.12,-35.93 523.9,-34.18"/>
</g>
<!-- Node37&#45;&gt;Node19 -->
<g id="edge37" class="edge">
<title>Node37&#45;&gt;Node19</title>
<path fill="none" stroke="midnightblue" d="M1186.61,-243.72C1320.06,-242.46 1752.42,-235.59 1886,-199 1904.79,-193.85 1906.94,-186.31 1925,-179 1965.31,-162.69 2013.83,-149.01 2044.05,-141.16"/>
<polygon fill="midnightblue" stroke="midnightblue" points="2045.12,-144.5 2053.94,-138.63 2043.38,-137.72 2045.12,-144.5"/>
</g>
<!-- Node37&#45;&gt;Node25 -->
<g id="edge51" class="edge">
<title>Node37&#45;&gt;Node25</title>
<path fill="none" stroke="midnightblue" d="M1107.1,-244.43C988.43,-245.15 627.38,-243.37 319.77,-198.8"/>
<polygon fill="midnightblue" stroke="midnightblue" points="320.17,-195.33 309.77,-197.34 319.16,-202.25 320.17,-195.33"/>
</g>
<!-- Node37&#45;&gt;Node31 -->
<g id="edge38" class="edge">
<title>Node37&#45;&gt;Node31</title>
<path fill="none" stroke="midnightblue" d="M1186.6,-243.2C1306.08,-240.49 1673.56,-230.14 1989.19,-198.97"/>
<polygon fill="midnightblue" stroke="midnightblue" points="1989.85,-202.42 1999.46,-197.95 1989.16,-195.46 1989.85,-202.42"/>
</g>
<!-- Node37&#45;&gt;Node36 -->
<g id="edge41" class="edge">
<title>Node37&#45;&gt;Node36</title>
<path fill="none" stroke="midnightblue" d="M1186.66,-244.12C1301.08,-243.96 1641.34,-239.79 1920,-199 1921.47,-198.79 1922.96,-198.54 1924.47,-198.28"/>
<polygon fill="midnightblue" stroke="midnightblue" points="1925.3,-201.68 1934.41,-196.26 1923.91,-194.82 1925.3,-201.68"/>
</g>
<!-- Node38 -->
<g id="node30" class="node">
<title>Node38</title>
<g id="a_node30"><a xlink:title=" ">
<polygon fill="white" stroke="#bfbfbf" points="630,-179.5 630,-198.5 704,-198.5 704,-179.5 630,-179.5"/>
<text text-anchor="middle" x="667" y="-186.5" font-family="Helvetica,sans-Serif" font-size="10.00">G4String.hh</text>
</a>
</g>
</g>
<!-- Node37&#45;&gt;Node38 -->
<g id="edge35" class="edge">
<title>Node37&#45;&gt;Node38</title>
<path fill="none" stroke="midnightblue" d="M1107.36,-241.09C1032.49,-235.33 865,-221.22 714.03,-199.03"/>
<polygon fill="midnightblue" stroke="midnightblue" points="714.51,-195.56 704.11,-197.56 713.48,-202.49 714.51,-195.56"/>
</g>
<!-- Node39 -->
<g id="node31" class="node">
<title>Node39</title>
<g id="a_node31"><a xlink:title=" ">
<polygon fill="white" stroke="#bfbfbf" points="722,-179.5 722,-198.5 786,-198.5 786,-179.5 722,-179.5"/>
<text text-anchor="middle" x="754" y="-186.5" font-family="Helvetica,sans-Serif" font-size="10.00">algorithm</text>
</a>
</g>
</g>
<!-- Node37&#45;&gt;Node39 -->
<g id="edge36" class="edge">
<title>Node37&#45;&gt;Node39</title>
<path fill="none" stroke="midnightblue" d="M1107.24,-240.08C1043.63,-233.56 914.89,-219.32 796.16,-199.07"/>
<polygon fill="midnightblue" stroke="midnightblue" points="796.62,-195.6 786.18,-197.35 795.44,-202.49 796.62,-195.6"/>
</g>
<!-- Node40 -->
<g id="node32" class="node">
<title>Node40</title>
<g id="a_node32"><a xlink:title=" ">
<polygon fill="white" stroke="#bfbfbf" points="804.5,-179.5 804.5,-198.5 923.5,-198.5 923.5,-179.5 804.5,-179.5"/>
<text text-anchor="middle" x="864" y="-186.5" font-family="Helvetica,sans-Serif" font-size="10.00">G4TriangularFacet.hh</text>
</a>
</g>
</g>
<!-- Node37&#45;&gt;Node40 -->
<g id="edge39" class="edge">
<title>Node37&#45;&gt;Node40</title>
<path fill="none" stroke="midnightblue" d="M1107.35,-236.43C1058.23,-227.06 974.28,-211.04 918.96,-200.49"/>
<polygon fill="midnightblue" stroke="midnightblue" points="919.46,-197.02 908.98,-198.58 918.15,-203.9 919.46,-197.02"/>
</g>
<!-- Node41 -->
<g id="node33" class="node">
<title>Node41</title>
<g id="a_node33"><a xlink:title=" ">
<polygon fill="white" stroke="#bfbfbf" points="942,-179.5 942,-198.5 1002,-198.5 1002,-179.5 942,-179.5"/>
<text text-anchor="middle" x="972" y="-186.5" font-family="Helvetica,sans-Serif" font-size="10.00">iostream</text>
</a>
</g>
</g>
<!-- Node37&#45;&gt;Node41 -->
<g id="edge42" class="edge">
<title>Node37&#45;&gt;Node41</title>
<path fill="none" stroke="midnightblue" d="M1119.27,-235.44C1089.57,-226.28 1042.28,-211.69 1009.33,-201.52"/>
<polygon fill="midnightblue" stroke="midnightblue" points="1010.19,-198.12 999.6,-198.52 1008.12,-204.81 1010.19,-198.12"/>
</g>
<!-- Node42 -->
<g id="node34" class="node">
<title>Node42</title>
<g id="a_node34"><a xlink:title=" ">
<polygon fill="white" stroke="#bfbfbf" points="1020,-179.5 1020,-198.5 1064,-198.5 1064,-179.5 1020,-179.5"/>
<text text-anchor="middle" x="1042" y="-186.5" font-family="Helvetica,sans-Serif" font-size="10.00">string</text>
</a>
</g>
</g>
<!-- Node37&#45;&gt;Node42 -->
<g id="edge43" class="edge">
<title>Node37&#45;&gt;Node42</title>
<path fill="none" stroke="midnightblue" d="M1130.13,-235.32C1113.29,-226.66 1087.19,-213.24 1067.76,-203.25"/>
<polygon fill="midnightblue" stroke="midnightblue" points="1069.32,-200.12 1058.83,-198.65 1066.12,-206.34 1069.32,-200.12"/>
</g>
<!-- Node43 -->
<g id="node35" class="node">
<title>Node43</title>
<g id="a_node35"><a xlink:title=" ">
<polygon fill="white" stroke="#bfbfbf" points="1082,-179.5 1082,-198.5 1212,-198.5 1212,-179.5 1082,-179.5"/>
<text text-anchor="middle" x="1147" y="-186.5" font-family="Helvetica,sans-Serif" font-size="10.00">G4AssemblyVolume.hh</text>
</a>
</g>
</g>
<!-- Node37&#45;&gt;Node43 -->
<g id="edge44" class="edge">
<title>Node37&#45;&gt;Node43</title>
<path fill="none" stroke="midnightblue" d="M1147,-235.08C1147,-228.01 1147,-217.86 1147,-208.99"/>
<polygon fill="midnightblue" stroke="midnightblue" points="1150.5,-208.75 1147,-198.75 1143.5,-208.75 1150.5,-208.75"/>
</g>
<!-- Node44 -->
<g id="node36" class="node">
<title>Node44</title>
<g id="a_node36"><a xlink:title=" ">
<polygon fill="white" stroke="#bfbfbf" points="1230,-179.5 1230,-198.5 1346,-198.5 1346,-179.5 1230,-179.5"/>
<text text-anchor="middle" x="1288" y="-186.5" font-family="Helvetica,sans-Serif" font-size="10.00">G4LogicalVolume.hh</text>
</a>
</g>
</g>
<!-- Node37&#45;&gt;Node44 -->
<g id="edge45" class="edge">
<title>Node37&#45;&gt;Node44</title>
<path fill="none" stroke="midnightblue" d="M1169.34,-235.44C1192.75,-226.48 1229.74,-212.31 1256.19,-202.18"/>
<polygon fill="midnightblue" stroke="midnightblue" points="1257.68,-205.36 1265.76,-198.52 1255.17,-198.82 1257.68,-205.36"/>
</g>
<!-- Node45 -->
<g id="node37" class="node">
<title>Node45</title>
<g id="a_node37"><a xlink:title=" ">
<polygon fill="white" stroke="#bfbfbf" points="1364,-179.5 1364,-198.5 1450,-198.5 1450,-179.5 1364,-179.5"/>
<text text-anchor="middle" x="1407" y="-186.5" font-family="Helvetica,sans-Serif" font-size="10.00">G4Material.hh</text>
</a>
</g>
</g>
<!-- Node37&#45;&gt;Node45 -->
<g id="edge46" class="edge">
<title>Node37&#45;&gt;Node45</title>
<path fill="none" stroke="midnightblue" d="M1186.77,-235.74C1232.15,-226.31 1306.48,-210.88 1356.07,-200.58"/>
<polygon fill="midnightblue" stroke="midnightblue" points="1356.87,-203.99 1365.95,-198.53 1355.44,-197.13 1356.87,-203.99"/>
</g>
<!-- Node46 -->
<g id="node38" class="node">
<title>Node46</title>
<g id="a_node38"><a xlink:title=" ">
<polygon fill="white" stroke="#bfbfbf" points="1468,-179.5 1468,-198.5 1592,-198.5 1592,-179.5 1468,-179.5"/>
<text text-anchor="middle" x="1530" y="-186.5" font-family="Helvetica,sans-Serif" font-size="10.00">G4TessellatedSolid.hh</text>
</a>
</g>
</g>
<!-- Node37&#45;&gt;Node46 -->
<g id="edge47" class="edge">
<title>Node37&#45;&gt;Node46</title>
<path fill="none" stroke="midnightblue" d="M1186.55,-238.42C1250.88,-229.35 1379.07,-211.28 1459.35,-199.96"/>
<polygon fill="midnightblue" stroke="midnightblue" points="1459.96,-203.41 1469.38,-198.55 1458.98,-196.48 1459.96,-203.41"/>
</g>
<!-- Node47 -->
<g id="node39" class="node">
<title>Node47</title>
<g id="a_node39"><a xlink:title=" ">
<polygon fill="white" stroke="#bfbfbf" points="1610.5,-179.5 1610.5,-198.5 1669.5,-198.5 1669.5,-179.5 1610.5,-179.5"/>
<text text-anchor="middle" x="1640" y="-186.5" font-family="Helvetica,sans-Serif" font-size="10.00">G4Tet.hh</text>
</a>
</g>
</g>
<!-- Node37&#45;&gt;Node47 -->
<g id="edge48" class="edge">
<title>Node37&#45;&gt;Node47</title>
<path fill="none" stroke="midnightblue" d="M1186.7,-241.78C1264.27,-237.07 1441.52,-224.5 1600.32,-198.9"/>
<polygon fill="midnightblue" stroke="midnightblue" points="1600.96,-202.34 1610.27,-197.27 1599.83,-195.43 1600.96,-202.34"/>
</g>
<!-- Node48 -->
<g id="node40" class="node">
<title>Node48</title>
<g id="a_node40"><a xlink:title=" ">
<polygon fill="white" stroke="#bfbfbf" points="1688,-179.5 1688,-198.5 1792,-198.5 1792,-179.5 1688,-179.5"/>
<text text-anchor="middle" x="1740" y="-186.5" font-family="Helvetica,sans-Serif" font-size="10.00">G4UIcommand.hh</text>
</a>
</g>
</g>
<!-- Node37&#45;&gt;Node48 -->
<g id="edge49" class="edge">
<title>Node37&#45;&gt;Node48</title>
<path fill="none" stroke="midnightblue" d="M1186.71,-241.45C1275.13,-235.59 1494.86,-220.03 1678,-199 1678.1,-198.99 1678.2,-198.98 1678.3,-198.96"/>
<polygon fill="midnightblue" stroke="midnightblue" points="1678.43,-202.48 1687.93,-197.79 1677.58,-195.53 1678.43,-202.48"/>
</g>
<!-- Node49 -->
<g id="node41" class="node">
<title>Node49</title>
<g id="a_node41"><a xlink:title=" ">
<polygon fill="white" stroke="#bfbfbf" points="1810.5,-179.5 1810.5,-198.5 1877.5,-198.5 1877.5,-179.5 1810.5,-179.5"/>
<text text-anchor="middle" x="1844" y="-186.5" font-family="Helvetica,sans-Serif" font-size="10.00">globals.hh</text>
</a>
</g>
</g>
<!-- Node37&#45;&gt;Node49 -->
<g id="edge50" class="edge">
<title>Node37&#45;&gt;Node49</title>
<path fill="none" stroke="midnightblue" d="M1186.64,-243.17C1287.41,-240.66 1561.69,-231.29 1800.03,-198.93"/>
<polygon fill="midnightblue" stroke="midnightblue" points="1800.85,-202.35 1810.28,-197.52 1799.89,-195.41 1800.85,-202.35"/>
</g>
<!-- Node50 -->
<g id="node42" class="node">
<title>Node50</title>
<g id="a_node42"><a xlink:title=" ">
<polygon fill="white" stroke="#bfbfbf" points="328,-179.5 328,-198.5 384,-198.5 384,-179.5 328,-179.5"/>
<text text-anchor="middle" x="356" y="-186.5" font-family="Helvetica,sans-Serif" font-size="10.00">sstream</text>
</a>
</g>
</g>
<!-- Node37&#45;&gt;Node50 -->
<g id="edge52" class="edge">
<title>Node37&#45;&gt;Node50</title>
<path fill="none" stroke="midnightblue" d="M1107.49,-244.12C996.45,-243.95 672.08,-239.82 394.45,-198.94"/>
<polygon fill="midnightblue" stroke="midnightblue" points="394.59,-195.42 384.18,-197.4 393.55,-202.34 394.59,-195.42"/>
</g>
<!-- Node51 -->
<g id="node43" class="node">
<title>Node51</title>
<g id="a_node43"><a xlink:title=" ">
<polygon fill="white" stroke="#bfbfbf" points="402.5,-179.5 402.5,-198.5 469.5,-198.5 469.5,-179.5 402.5,-179.5"/>
<text text-anchor="middle" x="436" y="-186.5" font-family="Helvetica,sans-Serif" font-size="10.00">streambuf</text>
</a>
</g>
</g>
<!-- Node37&#45;&gt;Node51 -->
<g id="edge53" class="edge">
<title>Node37&#45;&gt;Node51</title>
<path fill="none" stroke="midnightblue" d="M1107.28,-243.25C1004.92,-240.9 723.75,-231.86 479.84,-198.91"/>
<polygon fill="midnightblue" stroke="midnightblue" points="480.11,-195.41 469.72,-197.52 479.16,-202.34 480.11,-195.41"/>
</g>
<!-- Node52 -->
<g id="node44" class="node">
<title>Node52</title>
<g id="a_node44"><a xlink:title=" ">
<polygon fill="white" stroke="#bfbfbf" points="488,-179.5 488,-198.5 574,-198.5 574,-179.5 488,-179.5"/>
<text text-anchor="middle" x="531" y="-186.5" font-family="Helvetica,sans-Serif" font-size="10.00">Randomize.hh</text>
</a>
</g>
</g>
<!-- Node37&#45;&gt;Node52 -->
<g id="edge54" class="edge">
<title>Node37&#45;&gt;Node52</title>
<path fill="none" stroke="midnightblue" d="M1107.25,-241.84C1015.53,-236.64 782.09,-222.1 588,-199 586.74,-198.85 585.47,-198.69 584.18,-198.53"/>
<polygon fill="midnightblue" stroke="midnightblue" points="584.59,-195.05 574.21,-197.18 583.65,-201.99 584.59,-195.05"/>
</g>
</g>
</svg>
