<?xml version="1.0" encoding="UTF-8" standalone="no"?>
<!DOCTYPE svg PUBLIC "-//W3C//DTD SVG 1.1//EN"
 "http://www.w3.org/Graphics/SVG/1.1/DTD/svg11.dtd">
<!-- Generated by graphviz version 2.43.0 (0)
 -->
<!-- Title: OMSimRunAction.hh Pages: 1 -->
<svg width="1171pt" height="207pt"
 viewBox="0.00 0.00 1170.50 207.00" xmlns="http://www.w3.org/2000/svg" xmlns:xlink="http://www.w3.org/1999/xlink">
<g id="graph0" class="graph" transform="scale(1 1) rotate(0) translate(4 203)">
<title>OMSimRunAction.hh</title>
<polygon fill="white" stroke="transparent" points="-4,4 -4,-203 1166.5,-203 1166.5,4 -4,4"/>
<!-- Node1 -->
<g id="node1" class="node">
<title>Node1</title>
<g id="a_node1"><a xlink:title=" ">
<polygon fill="#bfbfbf" stroke="black" points="468.5,-179.5 468.5,-198.5 584.5,-198.5 584.5,-179.5 468.5,-179.5"/>
<text text-anchor="middle" x="526.5" y="-186.5" font-family="Helvetica,sans-Serif" font-size="10.00">OMSimRunAction.hh</text>
</a>
</g>
</g>
<!-- Node2 -->
<g id="node2" class="node">
<title>Node2</title>
<g id="a_node2"><a xlink:title=" ">
<polygon fill="white" stroke="#bfbfbf" points="330,-123.5 330,-142.5 447,-142.5 447,-123.5 330,-123.5"/>
<text text-anchor="middle" x="388.5" y="-130.5" font-family="Helvetica,sans-Serif" font-size="10.00">G4UserRunAction.hh</text>
</a>
</g>
</g>
<!-- Node1&#45;&gt;Node2 -->
<g id="edge1" class="edge">
<title>Node1&#45;&gt;Node2</title>
<path fill="none" stroke="midnightblue" d="M504.63,-179.44C481.72,-170.48 445.52,-156.31 419.63,-146.18"/>
<polygon fill="midnightblue" stroke="midnightblue" points="420.85,-142.9 410.26,-142.52 418.3,-149.42 420.85,-142.9"/>
</g>
<!-- Node3 -->
<g id="node3" class="node">
<title>Node3</title>
<g id="a_node3"><a xlink:href="_o_m_sim_hit_manager_8hh.html" target="_top" xlink:title="Defines structures and classes related to optical module photon hit management.">
<polygon fill="white" stroke="black" points="465,-123.5 465,-142.5 588,-142.5 588,-123.5 465,-123.5"/>
<text text-anchor="middle" x="526.5" y="-130.5" font-family="Helvetica,sans-Serif" font-size="10.00">OMSimHitManager.hh</text>
</a>
</g>
</g>
<!-- Node1&#45;&gt;Node3 -->
<g id="edge2" class="edge">
<title>Node1&#45;&gt;Node3</title>
<path fill="none" stroke="midnightblue" d="M526.5,-179.08C526.5,-172.01 526.5,-161.86 526.5,-152.99"/>
<polygon fill="midnightblue" stroke="midnightblue" points="530,-152.75 526.5,-142.75 523,-152.75 530,-152.75"/>
</g>
<!-- Node14 -->
<g id="node14" class="node">
<title>Node14</title>
<g id="a_node14"><a xlink:href="_o_m_sim_logger_8hh.html" target="_top" xlink:title=" ">
<polygon fill="white" stroke="black" points="865,-123.5 865,-142.5 964,-142.5 964,-123.5 865,-123.5"/>
<text text-anchor="middle" x="914.5" y="-130.5" font-family="Helvetica,sans-Serif" font-size="10.00">OMSimLogger.hh</text>
</a>
</g>
</g>
<!-- Node1&#45;&gt;Node14 -->
<g id="edge13" class="edge">
<title>Node1&#45;&gt;Node14</title>
<path fill="none" stroke="midnightblue" d="M584.59,-179.92C657.38,-169.79 781.46,-152.52 854.93,-142.29"/>
<polygon fill="midnightblue" stroke="midnightblue" points="855.53,-145.74 864.96,-140.9 854.57,-138.81 855.53,-145.74"/>
</g>
<!-- Node4 -->
<g id="node4" class="node">
<title>Node4</title>
<g id="a_node4"><a xlink:href="_o_m_sim_p_m_t_response_8hh.html" target="_top" xlink:title="Simulation of PMT response.">
<polygon fill="white" stroke="black" points="180,-62 180,-81 315,-81 315,-62 180,-62"/>
<text text-anchor="middle" x="247.5" y="-69" font-family="Helvetica,sans-Serif" font-size="10.00">OMSimPMTResponse.hh</text>
</a>
</g>
</g>
<!-- Node3&#45;&gt;Node4 -->
<g id="edge3" class="edge">
<title>Node3&#45;&gt;Node4</title>
<path fill="none" stroke="midnightblue" d="M486.53,-123.48C436.7,-112.85 351.53,-94.68 297.45,-83.15"/>
<polygon fill="midnightblue" stroke="midnightblue" points="297.91,-79.67 287.4,-81.01 296.45,-86.52 297.91,-79.67"/>
</g>
<!-- Node10 -->
<g id="node10" class="node">
<title>Node10</title>
<g id="a_node10"><a xlink:title=" ">
<polygon fill="white" stroke="#bfbfbf" points="333,-62 333,-81 436,-81 436,-62 333,-62"/>
<text text-anchor="middle" x="384.5" y="-69" font-family="Helvetica,sans-Serif" font-size="10.00">G4ThreeVector.hh</text>
</a>
</g>
</g>
<!-- Node3&#45;&gt;Node10 -->
<g id="edge9" class="edge">
<title>Node3&#45;&gt;Node10</title>
<path fill="none" stroke="midnightblue" d="M506.15,-123.48C482.11,-113.4 441.9,-96.55 414.34,-85"/>
<polygon fill="midnightblue" stroke="midnightblue" points="415.38,-81.65 404.81,-81.01 412.68,-88.1 415.38,-81.65"/>
</g>
<!-- Node11 -->
<g id="node11" class="node">
<title>Node11</title>
<g id="a_node11"><a xlink:title=" ">
<polygon fill="white" stroke="#bfbfbf" points="454,-62 454,-81 509,-81 509,-62 454,-62"/>
<text text-anchor="middle" x="481.5" y="-69" font-family="Helvetica,sans-Serif" font-size="10.00">fstream</text>
</a>
</g>
</g>
<!-- Node3&#45;&gt;Node11 -->
<g id="edge10" class="edge">
<title>Node3&#45;&gt;Node11</title>
<path fill="none" stroke="midnightblue" d="M520.05,-123.48C513.3,-114.55 502.53,-100.31 494.09,-89.14"/>
<polygon fill="midnightblue" stroke="midnightblue" points="496.76,-86.87 487.94,-81.01 491.18,-91.1 496.76,-86.87"/>
</g>
<!-- Node12 -->
<g id="node12" class="node">
<title>Node12</title>
<g id="a_node12"><a xlink:title=" ">
<polygon fill="white" stroke="#bfbfbf" points="527.5,-62 527.5,-81 617.5,-81 617.5,-62 527.5,-62"/>
<text text-anchor="middle" x="572.5" y="-69" font-family="Helvetica,sans-Serif" font-size="10.00">G4AutoLock.hh</text>
</a>
</g>
</g>
<!-- Node3&#45;&gt;Node12 -->
<g id="edge11" class="edge">
<title>Node3&#45;&gt;Node12</title>
<path fill="none" stroke="midnightblue" d="M533.09,-123.48C539.99,-114.55 551,-100.31 559.63,-89.14"/>
<polygon fill="midnightblue" stroke="midnightblue" points="562.57,-91.06 565.92,-81.01 557.04,-86.78 562.57,-91.06"/>
</g>
<!-- Node13 -->
<g id="node13" class="node">
<title>Node13</title>
<g id="a_node13"><a xlink:title=" ">
<polygon fill="white" stroke="#bfbfbf" points="635.5,-62 635.5,-81 729.5,-81 729.5,-62 635.5,-62"/>
<text text-anchor="middle" x="682.5" y="-69" font-family="Helvetica,sans-Serif" font-size="10.00">G4Threading.hh</text>
</a>
</g>
</g>
<!-- Node3&#45;&gt;Node13 -->
<g id="edge12" class="edge">
<title>Node3&#45;&gt;Node13</title>
<path fill="none" stroke="midnightblue" d="M548.85,-123.48C575.49,-113.31 620.21,-96.26 650.51,-84.7"/>
<polygon fill="midnightblue" stroke="midnightblue" points="652.09,-87.84 660.19,-81.01 649.6,-81.3 652.09,-87.84"/>
</g>
<!-- Node5 -->
<g id="node5" class="node">
<title>Node5</title>
<g id="a_node5"><a xlink:title=" ">
<polygon fill="white" stroke="#bfbfbf" points="0,-0.5 0,-19.5 119,-19.5 119,-0.5 0,-0.5"/>
<text text-anchor="middle" x="59.5" y="-7.5" font-family="Helvetica,sans-Serif" font-size="10.00">G4SystemOfUnits.hh</text>
</a>
</g>
</g>
<!-- Node4&#45;&gt;Node5 -->
<g id="edge4" class="edge">
<title>Node4&#45;&gt;Node5</title>
<path fill="none" stroke="midnightblue" d="M220.56,-61.98C187.9,-51.64 132.68,-34.16 96.16,-22.6"/>
<polygon fill="midnightblue" stroke="midnightblue" points="96.98,-19.19 86.39,-19.51 94.86,-25.86 96.98,-19.19"/>
</g>
<!-- Node6 -->
<g id="node6" class="node">
<title>Node6</title>
<g id="a_node6"><a xlink:title=" ">
<polygon fill="white" stroke="#bfbfbf" points="137,-0.5 137,-19.5 210,-19.5 210,-0.5 137,-0.5"/>
<text text-anchor="middle" x="173.5" y="-7.5" font-family="Helvetica,sans-Serif" font-size="10.00">G4Types.hh</text>
</a>
</g>
</g>
<!-- Node4&#45;&gt;Node6 -->
<g id="edge5" class="edge">
<title>Node4&#45;&gt;Node6</title>
<path fill="none" stroke="midnightblue" d="M236.9,-61.98C225.25,-52.61 206.31,-37.38 192.17,-26.01"/>
<polygon fill="midnightblue" stroke="midnightblue" points="194.07,-23.05 184.08,-19.51 189.68,-28.5 194.07,-23.05"/>
</g>
<!-- Node7 -->
<g id="node7" class="node">
<title>Node7</title>
<g id="a_node7"><a xlink:title=" ">
<polygon fill="white" stroke="#bfbfbf" points="228.5,-0.5 228.5,-19.5 266.5,-19.5 266.5,-0.5 228.5,-0.5"/>
<text text-anchor="middle" x="247.5" y="-7.5" font-family="Helvetica,sans-Serif" font-size="10.00">map</text>
</a>
</g>
</g>
<!-- Node4&#45;&gt;Node7 -->
<g id="edge6" class="edge">
<title>Node4&#45;&gt;Node7</title>
<path fill="none" stroke="midnightblue" d="M247.5,-61.98C247.5,-53.58 247.5,-40.48 247.5,-29.66"/>
<polygon fill="midnightblue" stroke="midnightblue" points="251,-29.51 247.5,-19.51 244,-29.51 251,-29.51"/>
</g>
<!-- Node8 -->
<g id="node8" class="node">
<title>Node8</title>
<g id="a_node8"><a xlink:title=" ">
<polygon fill="white" stroke="#bfbfbf" points="285,-0.5 285,-19.5 346,-19.5 346,-0.5 285,-0.5"/>
<text text-anchor="middle" x="315.5" y="-7.5" font-family="Helvetica,sans-Serif" font-size="10.00">TGraph.h</text>
</a>
</g>
</g>
<!-- Node4&#45;&gt;Node8 -->
<g id="edge7" class="edge">
<title>Node4&#45;&gt;Node8</title>
<path fill="none" stroke="midnightblue" d="M257.24,-61.98C267.85,-52.7 285.02,-37.67 297.98,-26.33"/>
<polygon fill="midnightblue" stroke="midnightblue" points="300.55,-28.73 305.78,-19.51 295.94,-23.46 300.55,-28.73"/>
</g>
<!-- Node9 -->
<g id="node9" class="node">
<title>Node9</title>
<g id="a_node9"><a xlink:title=" ">
<polygon fill="white" stroke="#bfbfbf" points="364,-0.5 364,-19.5 417,-19.5 417,-0.5 364,-0.5"/>
<text text-anchor="middle" x="390.5" y="-7.5" font-family="Helvetica,sans-Serif" font-size="10.00">TH2D.h</text>
</a>
</g>
</g>
<!-- Node4&#45;&gt;Node9 -->
<g id="edge8" class="edge">
<title>Node4&#45;&gt;Node9</title>
<path fill="none" stroke="midnightblue" d="M267.99,-61.98C292.31,-51.86 333.05,-34.9 360.82,-23.35"/>
<polygon fill="midnightblue" stroke="midnightblue" points="362.16,-26.58 370.05,-19.51 359.47,-20.12 362.16,-26.58"/>
</g>
<!-- Node15 -->
<g id="node15" class="node">
<title>Node15</title>
<g id="a_node15"><a xlink:title=" ">
<polygon fill="white" stroke="#bfbfbf" points="748,-62 748,-81 841,-81 841,-62 748,-62"/>
<text text-anchor="middle" x="794.5" y="-69" font-family="Helvetica,sans-Serif" font-size="10.00">spdlog/spdlog.h</text>
</a>
</g>
</g>
<!-- Node14&#45;&gt;Node15 -->
<g id="edge14" class="edge">
<title>Node14&#45;&gt;Node15</title>
<path fill="none" stroke="midnightblue" d="M897.31,-123.48C877.26,-113.53 843.9,-96.99 820.64,-85.46"/>
<polygon fill="midnightblue" stroke="midnightblue" points="822.18,-82.32 811.66,-81.01 819.07,-88.59 822.18,-82.32"/>
</g>
<!-- Node16 -->
<g id="node16" class="node">
<title>Node16</title>
<g id="a_node16"><a xlink:title=" ">
<polygon fill="white" stroke="#bfbfbf" points="859,-56.5 859,-86.5 970,-86.5 970,-56.5 859,-56.5"/>
<text text-anchor="start" x="867" y="-74.5" font-family="Helvetica,sans-Serif" font-size="10.00">spdlog/sinks/stdout</text>
<text text-anchor="middle" x="914.5" y="-63.5" font-family="Helvetica,sans-Serif" font-size="10.00">_color_sinks.h</text>
</a>
</g>
</g>
<!-- Node14&#45;&gt;Node16 -->
<g id="edge15" class="edge">
<title>Node14&#45;&gt;Node16</title>
<path fill="none" stroke="midnightblue" d="M914.5,-123.48C914.5,-116.47 914.5,-106.19 914.5,-96.7"/>
<polygon fill="midnightblue" stroke="midnightblue" points="918,-96.52 914.5,-86.52 911,-96.52 918,-96.52"/>
</g>
<!-- Node17 -->
<g id="node17" class="node">
<title>Node17</title>
<g id="a_node17"><a xlink:title=" ">
<polygon fill="white" stroke="#bfbfbf" points="988.5,-62 988.5,-81 1046.5,-81 1046.5,-62 988.5,-62"/>
<text text-anchor="middle" x="1017.5" y="-69" font-family="Helvetica,sans-Serif" font-size="10.00">memory</text>
</a>
</g>
</g>
<!-- Node14&#45;&gt;Node17 -->
<g id="edge16" class="edge">
<title>Node14&#45;&gt;Node17</title>
<path fill="none" stroke="midnightblue" d="M929.26,-123.48C946.16,-113.71 974.08,-97.58 993.99,-86.08"/>
<polygon fill="midnightblue" stroke="midnightblue" points="995.86,-89.04 1002.77,-81.01 992.36,-82.98 995.86,-89.04"/>
</g>
<!-- Node18 -->
<g id="node18" class="node">
<title>Node18</title>
<g id="a_node18"><a xlink:title=" ">
<polygon fill="white" stroke="#bfbfbf" points="1064.5,-62 1064.5,-81 1162.5,-81 1162.5,-62 1064.5,-62"/>
<text text-anchor="middle" x="1113.5" y="-69" font-family="Helvetica,sans-Serif" font-size="10.00">spdlog/fmt/fmt.h</text>
</a>
</g>
</g>
<!-- Node14&#45;&gt;Node18 -->
<g id="edge17" class="edge">
<title>Node14&#45;&gt;Node18</title>
<path fill="none" stroke="midnightblue" d="M943.01,-123.48C977.74,-113.09 1036.54,-95.51 1075.19,-83.95"/>
<polygon fill="midnightblue" stroke="midnightblue" points="1076.46,-87.23 1085.04,-81.01 1074.46,-80.52 1076.46,-87.23"/>
</g>
</g>
</svg>
