<?xml version="1.0" encoding="UTF-8" standalone="no"?>
<!DOCTYPE svg PUBLIC "-//W3C//DTD SVG 1.1//EN"
 "http://www.w3.org/Graphics/SVG/1.1/DTD/svg11.dtd">
<!-- Generated by graphviz version 2.43.0 (0)
 -->
<!-- Title: OMSim.cc Pages: 1 -->
<svg width="1803pt" height="498pt"
 viewBox="0.00 0.00 1803.00 498.00" xmlns="http://www.w3.org/2000/svg" xmlns:xlink="http://www.w3.org/1999/xlink">
<g id="graph0" class="graph" transform="scale(1 1) rotate(0) translate(4 494)">
<title>OMSim.cc</title>
<polygon fill="white" stroke="transparent" points="-4,4 -4,-494 1799,-494 1799,4 -4,4"/>
<!-- Node1 -->
<g id="node1" class="node">
<title>Node1</title>
<g id="a_node1"><a xlink:title="Implementation of the OMSim class.">
<polygon fill="#bfbfbf" stroke="black" points="776.5,-470.5 776.5,-489.5 841.5,-489.5 841.5,-470.5 776.5,-470.5"/>
<text text-anchor="middle" x="809" y="-477.5" font-family="Helvetica,sans-Serif" font-size="10.00">OMSim.cc</text>
</a>
</g>
</g>
<!-- Node2 -->
<g id="node2" class="node">
<title>Node2</title>
<g id="a_node2"><a xlink:href="_o_m_sim_8hh.html" target="_top" xlink:title="Main simulation class for the Optical Module (OM) simulation. This file defines the OMSim class,...">
<polygon fill="white" stroke="black" points="775.5,-414.5 775.5,-433.5 842.5,-433.5 842.5,-414.5 775.5,-414.5"/>
<text text-anchor="middle" x="809" y="-421.5" font-family="Helvetica,sans-Serif" font-size="10.00">OMSim.hh</text>
</a>
</g>
</g>
<!-- Node1&#45;&gt;Node2 -->
<g id="edge1" class="edge">
<title>Node1&#45;&gt;Node2</title>
<path fill="none" stroke="midnightblue" d="M809,-470.08C809,-463.01 809,-452.86 809,-443.99"/>
<polygon fill="midnightblue" stroke="midnightblue" points="812.5,-443.75 809,-433.75 805.5,-443.75 812.5,-443.75"/>
</g>
<!-- Node7 -->
<g id="node7" class="node">
<title>Node7</title>
<g id="a_node7"><a xlink:href="_o_m_sim_logger_8hh.html" target="_top" xlink:title=" ">
<polygon fill="white" stroke="black" points="254.5,-73 254.5,-92 353.5,-92 353.5,-73 254.5,-73"/>
<text text-anchor="middle" x="304" y="-80" font-family="Helvetica,sans-Serif" font-size="10.00">OMSimLogger.hh</text>
</a>
</g>
</g>
<!-- Node1&#45;&gt;Node7 -->
<g id="edge56" class="edge">
<title>Node1&#45;&gt;Node7</title>
<path fill="none" stroke="midnightblue" d="M776.28,-478.06C624.93,-473.28 0,-448.73 0,-369 0,-369 0,-369 0,-199 0,-147.22 156.08,-110.34 244.56,-93.6"/>
<polygon fill="midnightblue" stroke="midnightblue" points="245.29,-97.02 254.48,-91.75 244.01,-90.14 245.29,-97.02"/>
</g>
<!-- Node50 -->
<g id="node50" class="node">
<title>Node50</title>
<g id="a_node50"><a xlink:title=" ">
<polygon fill="white" stroke="#bfbfbf" points="1645,-358.5 1645,-377.5 1795,-377.5 1795,-358.5 1645,-358.5"/>
<text text-anchor="middle" x="1720" y="-365.5" font-family="Helvetica,sans-Serif" font-size="10.00">boost/program_options.hpp</text>
</a>
</g>
</g>
<!-- Node1&#45;&gt;Node50 -->
<g id="edge57" class="edge">
<title>Node1&#45;&gt;Node50</title>
<path fill="none" stroke="midnightblue" d="M841.69,-475.05C970.86,-459.46 1447.97,-401.85 1639.58,-378.71"/>
<polygon fill="midnightblue" stroke="midnightblue" points="1640.08,-382.18 1649.59,-377.5 1639.24,-375.23 1640.08,-382.18"/>
</g>
<!-- Node3 -->
<g id="node3" class="node">
<title>Node3</title>
<g id="a_node3"><a xlink:href="_o_m_sim_detector_construction_8hh.html" target="_top" xlink:title=" ">
<polygon fill="white" stroke="black" points="837,-358.5 837,-377.5 1007,-377.5 1007,-358.5 837,-358.5"/>
<text text-anchor="middle" x="922" y="-365.5" font-family="Helvetica,sans-Serif" font-size="10.00">OMSimDetectorConstruction.hh</text>
</a>
</g>
</g>
<!-- Node2&#45;&gt;Node3 -->
<g id="edge2" class="edge">
<title>Node2&#45;&gt;Node3</title>
<path fill="none" stroke="midnightblue" d="M826.91,-414.44C845.25,-405.68 874.01,-391.94 895.09,-381.86"/>
<polygon fill="midnightblue" stroke="midnightblue" points="896.67,-384.99 904.18,-377.52 893.65,-378.67 896.67,-384.99"/>
</g>
<!-- Node32 -->
<g id="node32" class="node">
<title>Node32</title>
<g id="a_node32"><a xlink:title=" ">
<polygon fill="white" stroke="#bfbfbf" points="1025.5,-358.5 1025.5,-377.5 1146.5,-377.5 1146.5,-358.5 1025.5,-358.5"/>
<text text-anchor="middle" x="1086" y="-365.5" font-family="Helvetica,sans-Serif" font-size="10.00">OMSimPhysicsList.hh</text>
</a>
</g>
</g>
<!-- Node2&#45;&gt;Node32 -->
<g id="edge35" class="edge">
<title>Node2&#45;&gt;Node32</title>
<path fill="none" stroke="midnightblue" d="M842.69,-416.43C889.79,-407.25 975.83,-390.48 1031.95,-379.54"/>
<polygon fill="midnightblue" stroke="midnightblue" points="1032.92,-382.91 1042.07,-377.56 1031.58,-376.04 1032.92,-382.91"/>
</g>
<!-- Node33 -->
<g id="node33" class="node">
<title>Node33</title>
<g id="a_node33"><a xlink:title=" ">
<polygon fill="white" stroke="#bfbfbf" points="1164.5,-358.5 1164.5,-377.5 1349.5,-377.5 1349.5,-358.5 1164.5,-358.5"/>
<text text-anchor="middle" x="1257" y="-365.5" font-family="Helvetica,sans-Serif" font-size="10.00">OMSimPrimaryGeneratorAction.hh</text>
</a>
</g>
</g>
<!-- Node2&#45;&gt;Node33 -->
<g id="edge36" class="edge">
<title>Node2&#45;&gt;Node33</title>
<path fill="none" stroke="midnightblue" d="M842.67,-418.94C913.01,-410.46 1077.19,-390.67 1176.47,-378.71"/>
<polygon fill="midnightblue" stroke="midnightblue" points="1176.95,-382.17 1186.46,-377.5 1176.11,-375.22 1176.95,-382.17"/>
</g>
<!-- Node34 -->
<g id="node34" class="node">
<title>Node34</title>
<g id="a_node34"><a xlink:href="_o_m_sim_run_action_8hh.html" target="_top" xlink:title=" ">
<polygon fill="white" stroke="black" points="1367,-358.5 1367,-377.5 1483,-377.5 1483,-358.5 1367,-358.5"/>
<text text-anchor="middle" x="1425" y="-365.5" font-family="Helvetica,sans-Serif" font-size="10.00">OMSimRunAction.hh</text>
</a>
</g>
</g>
<!-- Node2&#45;&gt;Node34 -->
<g id="edge37" class="edge">
<title>Node2&#45;&gt;Node34</title>
<path fill="none" stroke="midnightblue" d="M842.79,-420.84C927.44,-415.3 1155.58,-399.57 1356.75,-378.08"/>
<polygon fill="midnightblue" stroke="midnightblue" points="1357.35,-381.54 1366.92,-376.99 1356.6,-374.58 1357.35,-381.54"/>
</g>
<!-- Node36 -->
<g id="node36" class="node">
<title>Node36</title>
<g id="a_node36"><a xlink:title=" ">
<polygon fill="white" stroke="#bfbfbf" points="1501.5,-358.5 1501.5,-377.5 1626.5,-377.5 1626.5,-358.5 1501.5,-358.5"/>
<text text-anchor="middle" x="1564" y="-365.5" font-family="Helvetica,sans-Serif" font-size="10.00">OMSimEventAction.hh</text>
</a>
</g>
</g>
<!-- Node2&#45;&gt;Node36 -->
<g id="edge39" class="edge">
<title>Node2&#45;&gt;Node36</title>
<path fill="none" stroke="midnightblue" d="M842.81,-421.47C941.1,-416.89 1235.38,-402.11 1490.97,-378.04"/>
<polygon fill="midnightblue" stroke="midnightblue" points="1491.57,-381.5 1501.2,-377.07 1490.91,-374.53 1491.57,-381.5"/>
</g>
<!-- Node37 -->
<g id="node37" class="node">
<title>Node37</title>
<g id="a_node37"><a xlink:href="_o_m_sim_tracking_action_8hh.html" target="_top" xlink:title=" ">
<polygon fill="white" stroke="black" points="28,-358.5 28,-377.5 166,-377.5 166,-358.5 28,-358.5"/>
<text text-anchor="middle" x="97" y="-365.5" font-family="Helvetica,sans-Serif" font-size="10.00">OMSimTrackingAction.hh</text>
</a>
</g>
</g>
<!-- Node2&#45;&gt;Node37 -->
<g id="edge40" class="edge">
<title>Node2&#45;&gt;Node37</title>
<path fill="none" stroke="midnightblue" d="M775.28,-421.13C681.91,-415.84 411.87,-399.8 176.43,-378.1"/>
<polygon fill="midnightblue" stroke="midnightblue" points="176.59,-374.6 166.31,-377.16 175.94,-381.57 176.59,-374.6"/>
</g>
<!-- Node39 -->
<g id="node39" class="node">
<title>Node39</title>
<g id="a_node39"><a xlink:href="_o_m_sim_stepping_action_8hh.html" target="_top" xlink:title="Defines OMSimSteppingAction.Currently it only checks for trapped photons.">
<polygon fill="white" stroke="black" points="184,-358.5 184,-377.5 324,-377.5 324,-358.5 184,-358.5"/>
<text text-anchor="middle" x="254" y="-365.5" font-family="Helvetica,sans-Serif" font-size="10.00">OMSimSteppingAction.hh</text>
</a>
</g>
</g>
<!-- Node2&#45;&gt;Node39 -->
<g id="edge42" class="edge">
<title>Node2&#45;&gt;Node39</title>
<path fill="none" stroke="midnightblue" d="M775.22,-420.03C698.74,-413.26 506.26,-395.95 334.2,-378.11"/>
<polygon fill="midnightblue" stroke="midnightblue" points="334.51,-374.62 324.2,-377.07 333.79,-381.58 334.51,-374.62"/>
</g>
<!-- Node41 -->
<g id="node41" class="node">
<title>Node41</title>
<g id="a_node41"><a xlink:href="_o_m_sim_u_iinterface_8hh.html" target="_top" xlink:title=" ">
<polygon fill="white" stroke="black" points="513.5,-302.5 513.5,-321.5 634.5,-321.5 634.5,-302.5 513.5,-302.5"/>
<text text-anchor="middle" x="574" y="-309.5" font-family="Helvetica,sans-Serif" font-size="10.00">OMSimUIinterface.hh</text>
</a>
</g>
</g>
<!-- Node2&#45;&gt;Node41 -->
<g id="edge44" class="edge">
<title>Node2&#45;&gt;Node41</title>
<path fill="none" stroke="midnightblue" d="M809.12,-414.41C808.81,-400.43 806.06,-372.84 790,-358 778.86,-347.71 698.87,-332.93 639.46,-323.16"/>
<polygon fill="midnightblue" stroke="midnightblue" points="639.8,-319.67 629.37,-321.51 638.68,-326.58 639.8,-319.67"/>
</g>
<!-- Node46 -->
<g id="node46" class="node">
<title>Node46</title>
<g id="a_node46"><a xlink:title=" ">
<polygon fill="white" stroke="#bfbfbf" points="342,-358.5 342,-377.5 448,-377.5 448,-358.5 342,-358.5"/>
<text text-anchor="middle" x="395" y="-365.5" font-family="Helvetica,sans-Serif" font-size="10.00">G4RunManager.hh</text>
</a>
</g>
</g>
<!-- Node2&#45;&gt;Node46 -->
<g id="edge51" class="edge">
<title>Node2&#45;&gt;Node46</title>
<path fill="none" stroke="midnightblue" d="M775.49,-418.91C714.53,-411.42 581.17,-394.86 458.07,-378.13"/>
<polygon fill="midnightblue" stroke="midnightblue" points="458.47,-374.65 448.09,-376.77 457.53,-381.59 458.47,-374.65"/>
</g>
<!-- Node47 -->
<g id="node47" class="node">
<title>Node47</title>
<g id="a_node47"><a xlink:title=" ">
<polygon fill="white" stroke="#bfbfbf" points="466.5,-358.5 466.5,-377.5 573.5,-377.5 573.5,-358.5 466.5,-358.5"/>
<text text-anchor="middle" x="520" y="-365.5" font-family="Helvetica,sans-Serif" font-size="10.00">G4VisExecutive.hh</text>
</a>
</g>
</g>
<!-- Node2&#45;&gt;Node47 -->
<g id="edge52" class="edge">
<title>Node2&#45;&gt;Node47</title>
<path fill="none" stroke="midnightblue" d="M775.28,-416.7C726.3,-407.55 634.87,-390.46 575.77,-379.42"/>
<polygon fill="midnightblue" stroke="midnightblue" points="576.32,-375.96 565.85,-377.57 575.03,-382.84 576.32,-375.96"/>
</g>
<!-- Node48 -->
<g id="node48" class="node">
<title>Node48</title>
<g id="a_node48"><a xlink:title=" ">
<polygon fill="white" stroke="#bfbfbf" points="591.5,-358.5 591.5,-377.5 694.5,-377.5 694.5,-358.5 591.5,-358.5"/>
<text text-anchor="middle" x="643" y="-365.5" font-family="Helvetica,sans-Serif" font-size="10.00">G4UIExecutive.hh</text>
</a>
</g>
</g>
<!-- Node2&#45;&gt;Node48 -->
<g id="edge53" class="edge">
<title>Node2&#45;&gt;Node48</title>
<path fill="none" stroke="midnightblue" d="M782.7,-414.44C754.65,-405.32 710.06,-390.81 678.82,-380.65"/>
<polygon fill="midnightblue" stroke="midnightblue" points="679.77,-377.28 669.18,-377.52 677.61,-383.94 679.77,-377.28"/>
</g>
<!-- Node49 -->
<g id="node49" class="node">
<title>Node49</title>
<g id="a_node49"><a xlink:title=" ">
<polygon fill="white" stroke="#bfbfbf" points="713,-358.5 713,-377.5 781,-377.5 781,-358.5 713,-358.5"/>
<text text-anchor="middle" x="747" y="-365.5" font-family="Helvetica,sans-Serif" font-size="10.00">filesystem</text>
</a>
</g>
</g>
<!-- Node2&#45;&gt;Node49 -->
<g id="edge54" class="edge">
<title>Node2&#45;&gt;Node49</title>
<path fill="none" stroke="midnightblue" d="M799.04,-414.32C789.87,-406.34 776.06,-394.31 764.97,-384.65"/>
<polygon fill="midnightblue" stroke="midnightblue" points="766.98,-381.76 757.14,-377.83 762.38,-387.04 766.98,-381.76"/>
</g>
<!-- Node2&#45;&gt;Node50 -->
<g id="edge55" class="edge">
<title>Node2&#45;&gt;Node50</title>
<path fill="none" stroke="midnightblue" d="M842.52,-421.81C953.65,-417.72 1320.22,-403.16 1634.69,-378.06"/>
<polygon fill="midnightblue" stroke="midnightblue" points="1635.22,-381.53 1644.91,-377.24 1634.66,-374.55 1635.22,-381.53"/>
</g>
<!-- Node4 -->
<g id="node4" class="node">
<title>Node4</title>
<g id="a_node4"><a xlink:href="_o_m_sim_optical_module_8hh.html" target="_top" xlink:title=" ">
<polygon fill="white" stroke="black" points="853.5,-302.5 853.5,-321.5 990.5,-321.5 990.5,-302.5 853.5,-302.5"/>
<text text-anchor="middle" x="922" y="-309.5" font-family="Helvetica,sans-Serif" font-size="10.00">OMSimOpticalModule.hh</text>
</a>
</g>
</g>
<!-- Node3&#45;&gt;Node4 -->
<g id="edge3" class="edge">
<title>Node3&#45;&gt;Node4</title>
<path fill="none" stroke="midnightblue" d="M922,-358.08C922,-351.01 922,-340.86 922,-331.99"/>
<polygon fill="midnightblue" stroke="midnightblue" points="925.5,-331.75 922,-321.75 918.5,-331.75 925.5,-331.75"/>
</g>
<!-- Node30 -->
<g id="node30" class="node">
<title>Node30</title>
<g id="a_node30"><a xlink:title=" ">
<polygon fill="white" stroke="#bfbfbf" points="1009,-302.5 1009,-321.5 1071,-321.5 1071,-302.5 1009,-302.5"/>
<text text-anchor="middle" x="1040" y="-309.5" font-family="Helvetica,sans-Serif" font-size="10.00">G4Orb.hh</text>
</a>
</g>
</g>
<!-- Node3&#45;&gt;Node30 -->
<g id="edge33" class="edge">
<title>Node3&#45;&gt;Node30</title>
<path fill="none" stroke="midnightblue" d="M940.7,-358.44C959.94,-349.64 990.15,-335.81 1012.2,-325.72"/>
<polygon fill="midnightblue" stroke="midnightblue" points="1013.75,-328.86 1021.39,-321.52 1010.84,-322.5 1013.75,-328.86"/>
</g>
<!-- Node31 -->
<g id="node31" class="node">
<title>Node31</title>
<g id="a_node31"><a xlink:title=" ">
<polygon fill="white" stroke="#bfbfbf" points="657,-302.5 657,-321.5 835,-321.5 835,-302.5 657,-302.5"/>
<text text-anchor="middle" x="746" y="-309.5" font-family="Helvetica,sans-Serif" font-size="10.00">G4VUserDetectorConstruction.hh</text>
</a>
</g>
</g>
<!-- Node3&#45;&gt;Node31 -->
<g id="edge34" class="edge">
<title>Node3&#45;&gt;Node31</title>
<path fill="none" stroke="midnightblue" d="M894.11,-358.44C864.25,-349.28 816.69,-334.69 783.54,-324.52"/>
<polygon fill="midnightblue" stroke="midnightblue" points="784.34,-321.1 773.76,-321.52 782.29,-327.8 784.34,-321.1"/>
</g>
<!-- Node5 -->
<g id="node5" class="node">
<title>Node5</title>
<g id="a_node5"><a xlink:href="abc_detector_component_8hh.html" target="_top" xlink:title="Provides helper base class abcDetectorComponent for constructing and managing detector components in ...">
<polygon fill="white" stroke="black" points="626.5,-190.5 626.5,-209.5 773.5,-209.5 773.5,-190.5 626.5,-190.5"/>
<text text-anchor="middle" x="700" y="-197.5" font-family="Helvetica,sans-Serif" font-size="10.00">abcDetectorComponent.hh</text>
</a>
</g>
</g>
<!-- Node4&#45;&gt;Node5 -->
<g id="edge4" class="edge">
<title>Node4&#45;&gt;Node5</title>
<path fill="none" stroke="midnightblue" d="M904.58,-302.37C865.84,-283.17 772.34,-236.84 726.39,-214.07"/>
<polygon fill="midnightblue" stroke="midnightblue" points="727.85,-210.9 717.34,-209.59 724.75,-217.17 727.85,-210.9"/>
</g>
<!-- Node19 -->
<g id="node19" class="node">
<title>Node19</title>
<g id="a_node19"><a xlink:href="_o_m_sim_hit_manager_8hh.html" target="_top" xlink:title="Defines structures and classes related to optical module photon hit management.">
<polygon fill="white" stroke="black" points="1054.5,-246.5 1054.5,-265.5 1177.5,-265.5 1177.5,-246.5 1054.5,-246.5"/>
<text text-anchor="middle" x="1116" y="-253.5" font-family="Helvetica,sans-Serif" font-size="10.00">OMSimHitManager.hh</text>
</a>
</g>
</g>
<!-- Node4&#45;&gt;Node19 -->
<g id="edge18" class="edge">
<title>Node4&#45;&gt;Node19</title>
<path fill="none" stroke="midnightblue" d="M952.74,-302.44C985.94,-293.2 1038.99,-278.44 1075.56,-268.26"/>
<polygon fill="midnightblue" stroke="midnightblue" points="1076.71,-271.57 1085.4,-265.52 1074.83,-264.83 1076.71,-271.57"/>
</g>
<!-- Node27 -->
<g id="node27" class="node">
<title>Node27</title>
<g id="a_node27"><a xlink:href="_o_m_sim_p_m_t_construction_8hh.html" target="_top" xlink:title="Construction of the PMTs.">
<polygon fill="white" stroke="black" points="847.5,-246.5 847.5,-265.5 996.5,-265.5 996.5,-246.5 847.5,-246.5"/>
<text text-anchor="middle" x="922" y="-253.5" font-family="Helvetica,sans-Serif" font-size="10.00">OMSimPMTConstruction.hh</text>
</a>
</g>
</g>
<!-- Node4&#45;&gt;Node27 -->
<g id="edge27" class="edge">
<title>Node4&#45;&gt;Node27</title>
<path fill="none" stroke="midnightblue" d="M922,-302.08C922,-295.01 922,-284.86 922,-275.99"/>
<polygon fill="midnightblue" stroke="midnightblue" points="925.5,-275.75 922,-265.75 918.5,-275.75 925.5,-275.75"/>
</g>
<!-- Node6 -->
<g id="node6" class="node">
<title>Node6</title>
<g id="a_node6"><a xlink:href="_o_m_sim_input_data_8hh.html" target="_top" xlink:title="Definition of ParameterTable and InputDataManager.">
<polygon fill="white" stroke="black" points="856.5,-134.5 856.5,-153.5 971.5,-153.5 971.5,-134.5 856.5,-134.5"/>
<text text-anchor="middle" x="914" y="-141.5" font-family="Helvetica,sans-Serif" font-size="10.00">OMSimInputData.hh</text>
</a>
</g>
</g>
<!-- Node5&#45;&gt;Node6 -->
<g id="edge5" class="edge">
<title>Node5&#45;&gt;Node6</title>
<path fill="none" stroke="midnightblue" d="M733.91,-190.44C770.85,-181.12 830.05,-166.18 870.42,-156"/>
<polygon fill="midnightblue" stroke="midnightblue" points="871.41,-159.36 880.25,-153.52 869.7,-152.57 871.41,-159.36"/>
</g>
<!-- Node15 -->
<g id="node15" class="node">
<title>Node15</title>
<g id="a_node15"><a xlink:title=" ">
<polygon fill="white" stroke="#bfbfbf" points="332.5,-134.5 332.5,-153.5 439.5,-153.5 439.5,-134.5 332.5,-134.5"/>
<text text-anchor="middle" x="386" y="-141.5" font-family="Helvetica,sans-Serif" font-size="10.00">G4Transform3D.hh</text>
</a>
</g>
</g>
<!-- Node5&#45;&gt;Node15 -->
<g id="edge14" class="edge">
<title>Node5&#45;&gt;Node15</title>
<path fill="none" stroke="midnightblue" d="M650.25,-190.44C594.67,-180.89 504.74,-165.42 445.48,-155.23"/>
<polygon fill="midnightblue" stroke="midnightblue" points="445.97,-151.76 435.52,-153.52 444.78,-158.66 445.97,-151.76"/>
</g>
<!-- Node16 -->
<g id="node16" class="node">
<title>Node16</title>
<g id="a_node16"><a xlink:title=" ">
<polygon fill="white" stroke="#bfbfbf" points="458,-134.5 458,-153.5 566,-153.5 566,-134.5 458,-134.5"/>
<text text-anchor="middle" x="512" y="-141.5" font-family="Helvetica,sans-Serif" font-size="10.00">G4VisAttributes.hh</text>
</a>
</g>
</g>
<!-- Node5&#45;&gt;Node16 -->
<g id="edge15" class="edge">
<title>Node5&#45;&gt;Node16</title>
<path fill="none" stroke="midnightblue" d="M670.21,-190.44C638.17,-181.24 587.07,-166.56 551.65,-156.39"/>
<polygon fill="midnightblue" stroke="midnightblue" points="552.23,-152.91 541.65,-153.52 550.29,-159.64 552.23,-152.91"/>
</g>
<!-- Node17 -->
<g id="node17" class="node">
<title>Node17</title>
<g id="a_node17"><a xlink:title=" ">
<polygon fill="white" stroke="#bfbfbf" points="584.5,-134.5 584.5,-153.5 709.5,-153.5 709.5,-134.5 584.5,-134.5"/>
<text text-anchor="middle" x="647" y="-141.5" font-family="Helvetica,sans-Serif" font-size="10.00">G4SubtractionSolid.hh</text>
</a>
</g>
</g>
<!-- Node5&#45;&gt;Node17 -->
<g id="edge16" class="edge">
<title>Node5&#45;&gt;Node17</title>
<path fill="none" stroke="midnightblue" d="M691.25,-190.08C683.53,-182.22 672.1,-170.57 662.78,-161.08"/>
<polygon fill="midnightblue" stroke="midnightblue" points="665.09,-158.44 655.59,-153.75 660.1,-163.34 665.09,-158.44"/>
</g>
<!-- Node18 -->
<g id="node18" class="node">
<title>Node18</title>
<g id="a_node18"><a xlink:title=" ">
<polygon fill="white" stroke="#bfbfbf" points="728,-134.5 728,-153.5 838,-153.5 838,-134.5 728,-134.5"/>
<text text-anchor="middle" x="783" y="-141.5" font-family="Helvetica,sans-Serif" font-size="10.00">G4PVPlacement.hh</text>
</a>
</g>
</g>
<!-- Node5&#45;&gt;Node18 -->
<g id="edge17" class="edge">
<title>Node5&#45;&gt;Node18</title>
<path fill="none" stroke="midnightblue" d="M713.34,-190.32C726.16,-181.98 745.78,-169.21 760.94,-159.35"/>
<polygon fill="midnightblue" stroke="midnightblue" points="763.22,-162.04 769.7,-153.65 759.41,-156.17 763.22,-162.04"/>
</g>
<!-- Node6&#45;&gt;Node7 -->
<g id="edge6" class="edge">
<title>Node6&#45;&gt;Node7</title>
<path fill="none" stroke="midnightblue" d="M856.28,-135.09C853.14,-134.71 850.03,-134.34 847,-134 671.87,-114.1 464.3,-96.44 364.09,-88.28"/>
<polygon fill="midnightblue" stroke="midnightblue" points="364.11,-84.77 353.85,-87.45 363.54,-91.75 364.11,-84.77"/>
</g>
<!-- Node12 -->
<g id="node12" class="node">
<title>Node12</title>
<g id="a_node12"><a xlink:title=" ">
<polygon fill="white" stroke="#bfbfbf" points="758.5,-73 758.5,-92 901.5,-92 901.5,-73 758.5,-73"/>
<text text-anchor="middle" x="830" y="-80" font-family="Helvetica,sans-Serif" font-size="10.00">G4OpBoundaryProcess.hh</text>
</a>
</g>
</g>
<!-- Node6&#45;&gt;Node12 -->
<g id="edge11" class="edge">
<title>Node6&#45;&gt;Node12</title>
<path fill="none" stroke="midnightblue" d="M901.96,-134.48C888.49,-124.93 866.43,-109.31 850.28,-97.87"/>
<polygon fill="midnightblue" stroke="midnightblue" points="852.2,-94.93 842.01,-92.01 848.15,-100.65 852.2,-94.93"/>
</g>
<!-- Node13 -->
<g id="node13" class="node">
<title>Node13</title>
<g id="a_node13"><a xlink:title=" ">
<polygon fill="white" stroke="#bfbfbf" points="1175.5,-73 1175.5,-92 1294.5,-92 1294.5,-73 1175.5,-73"/>
<text text-anchor="middle" x="1235" y="-80" font-family="Helvetica,sans-Serif" font-size="10.00">G4SystemOfUnits.hh</text>
</a>
</g>
</g>
<!-- Node6&#45;&gt;Node13 -->
<g id="edge12" class="edge">
<title>Node6&#45;&gt;Node13</title>
<path fill="none" stroke="midnightblue" d="M959.99,-134.48C1017.8,-123.76 1116.95,-105.38 1179.08,-93.87"/>
<polygon fill="midnightblue" stroke="midnightblue" points="1179.9,-97.27 1189.09,-92.01 1178.62,-90.39 1179.9,-97.27"/>
</g>
<!-- Node14 -->
<g id="node14" class="node">
<title>Node14</title>
<g id="a_node14"><a xlink:title=" ">
<polygon fill="white" stroke="#bfbfbf" points="919.5,-67.5 919.5,-97.5 1032.5,-97.5 1032.5,-67.5 919.5,-67.5"/>
<text text-anchor="start" x="927.5" y="-85.5" font-family="Helvetica,sans-Serif" font-size="10.00">boost/property_tree</text>
<text text-anchor="middle" x="976" y="-74.5" font-family="Helvetica,sans-Serif" font-size="10.00">/json_parser.hpp</text>
</a>
</g>
</g>
<!-- Node6&#45;&gt;Node14 -->
<g id="edge13" class="edge">
<title>Node6&#45;&gt;Node14</title>
<path fill="none" stroke="midnightblue" d="M922.88,-134.48C930.97,-126.72 943.24,-114.94 953.95,-104.66"/>
<polygon fill="midnightblue" stroke="midnightblue" points="956.6,-106.97 961.39,-97.52 951.75,-101.92 956.6,-106.97"/>
</g>
<!-- Node8 -->
<g id="node8" class="node">
<title>Node8</title>
<g id="a_node8"><a xlink:title=" ">
<polygon fill="white" stroke="#bfbfbf" points="86.5,-6 86.5,-25 179.5,-25 179.5,-6 86.5,-6"/>
<text text-anchor="middle" x="133" y="-13" font-family="Helvetica,sans-Serif" font-size="10.00">spdlog/spdlog.h</text>
</a>
</g>
</g>
<!-- Node7&#45;&gt;Node8 -->
<g id="edge7" class="edge">
<title>Node7&#45;&gt;Node8</title>
<path fill="none" stroke="midnightblue" d="M281.29,-72.87C251.44,-61.52 198.83,-41.52 164.97,-28.65"/>
<polygon fill="midnightblue" stroke="midnightblue" points="166.12,-25.35 155.53,-25.06 163.63,-31.89 166.12,-25.35"/>
</g>
<!-- Node9 -->
<g id="node9" class="node">
<title>Node9</title>
<g id="a_node9"><a xlink:title=" ">
<polygon fill="white" stroke="#bfbfbf" points="197.5,-0.5 197.5,-30.5 308.5,-30.5 308.5,-0.5 197.5,-0.5"/>
<text text-anchor="start" x="205.5" y="-18.5" font-family="Helvetica,sans-Serif" font-size="10.00">spdlog/sinks/stdout</text>
<text text-anchor="middle" x="253" y="-7.5" font-family="Helvetica,sans-Serif" font-size="10.00">_color_sinks.h</text>
</a>
</g>
</g>
<!-- Node7&#45;&gt;Node9 -->
<g id="edge8" class="edge">
<title>Node7&#45;&gt;Node9</title>
<path fill="none" stroke="midnightblue" d="M297.12,-72.73C290.3,-64.03 279.56,-50.34 270.38,-38.65"/>
<polygon fill="midnightblue" stroke="midnightblue" points="272.98,-36.3 264.05,-30.59 267.47,-40.62 272.98,-36.3"/>
</g>
<!-- Node10 -->
<g id="node10" class="node">
<title>Node10</title>
<g id="a_node10"><a xlink:title=" ">
<polygon fill="white" stroke="#bfbfbf" points="327,-6 327,-25 385,-25 385,-6 327,-6"/>
<text text-anchor="middle" x="356" y="-13" font-family="Helvetica,sans-Serif" font-size="10.00">memory</text>
</a>
</g>
</g>
<!-- Node7&#45;&gt;Node10 -->
<g id="edge9" class="edge">
<title>Node7&#45;&gt;Node10</title>
<path fill="none" stroke="midnightblue" d="M311.01,-72.73C319.12,-62.6 332.65,-45.69 342.76,-33.06"/>
<polygon fill="midnightblue" stroke="midnightblue" points="345.58,-35.12 349.1,-25.13 340.12,-30.75 345.58,-35.12"/>
</g>
<!-- Node11 -->
<g id="node11" class="node">
<title>Node11</title>
<g id="a_node11"><a xlink:title=" ">
<polygon fill="white" stroke="#bfbfbf" points="403,-6 403,-25 501,-25 501,-6 403,-6"/>
<text text-anchor="middle" x="452" y="-13" font-family="Helvetica,sans-Serif" font-size="10.00">spdlog/fmt/fmt.h</text>
</a>
</g>
</g>
<!-- Node7&#45;&gt;Node11 -->
<g id="edge10" class="edge">
<title>Node7&#45;&gt;Node11</title>
<path fill="none" stroke="midnightblue" d="M323.65,-72.87C349.09,-61.7 393.6,-42.15 422.95,-29.26"/>
<polygon fill="midnightblue" stroke="midnightblue" points="424.52,-32.39 432.27,-25.17 421.7,-25.98 424.52,-32.39"/>
</g>
<!-- Node20 -->
<g id="node20" class="node">
<title>Node20</title>
<g id="a_node20"><a xlink:href="_o_m_sim_p_m_t_response_8hh.html" target="_top" xlink:title="Simulation of PMT response.">
<polygon fill="white" stroke="black" points="1066.5,-190.5 1066.5,-209.5 1201.5,-209.5 1201.5,-190.5 1066.5,-190.5"/>
<text text-anchor="middle" x="1134" y="-197.5" font-family="Helvetica,sans-Serif" font-size="10.00">OMSimPMTResponse.hh</text>
</a>
</g>
</g>
<!-- Node19&#45;&gt;Node20 -->
<g id="edge19" class="edge">
<title>Node19&#45;&gt;Node20</title>
<path fill="none" stroke="midnightblue" d="M1118.97,-246.08C1121.38,-238.85 1124.86,-228.41 1127.87,-219.4"/>
<polygon fill="midnightblue" stroke="midnightblue" points="1131.24,-220.34 1131.08,-209.75 1124.6,-218.13 1131.24,-220.34"/>
</g>
<!-- Node25 -->
<g id="node25" class="node">
<title>Node25</title>
<g id="a_node25"><a xlink:title=" ">
<polygon fill="white" stroke="#bfbfbf" points="1219.5,-190.5 1219.5,-209.5 1322.5,-209.5 1322.5,-190.5 1219.5,-190.5"/>
<text text-anchor="middle" x="1271" y="-197.5" font-family="Helvetica,sans-Serif" font-size="10.00">G4ThreeVector.hh</text>
</a>
</g>
</g>
<!-- Node19&#45;&gt;Node25 -->
<g id="edge25" class="edge">
<title>Node19&#45;&gt;Node25</title>
<path fill="none" stroke="midnightblue" d="M1140.56,-246.44C1166.52,-237.4 1207.67,-223.06 1236.8,-212.92"/>
<polygon fill="midnightblue" stroke="midnightblue" points="1238.26,-216.11 1246.55,-209.52 1235.96,-209.5 1238.26,-216.11"/>
</g>
<!-- Node26 -->
<g id="node26" class="node">
<title>Node26</title>
<g id="a_node26"><a xlink:title=" ">
<polygon fill="white" stroke="#bfbfbf" points="993.5,-190.5 993.5,-209.5 1048.5,-209.5 1048.5,-190.5 993.5,-190.5"/>
<text text-anchor="middle" x="1021" y="-197.5" font-family="Helvetica,sans-Serif" font-size="10.00">fstream</text>
</a>
</g>
</g>
<!-- Node19&#45;&gt;Node26 -->
<g id="edge26" class="edge">
<title>Node19&#45;&gt;Node26</title>
<path fill="none" stroke="midnightblue" d="M1100.74,-246.32C1085.78,-237.82 1062.75,-224.73 1045.27,-214.8"/>
<polygon fill="midnightblue" stroke="midnightblue" points="1046.65,-211.55 1036.23,-209.65 1043.19,-217.64 1046.65,-211.55"/>
</g>
<!-- Node20&#45;&gt;Node13 -->
<g id="edge20" class="edge">
<title>Node20&#45;&gt;Node13</title>
<path fill="none" stroke="midnightblue" d="M1181.26,-190.46C1218.61,-182.64 1266.33,-169.88 1278,-154 1291.43,-135.74 1271.86,-113.14 1254.94,-98.53"/>
<polygon fill="midnightblue" stroke="midnightblue" points="1256.96,-95.66 1247,-92.05 1252.54,-101.08 1256.96,-95.66"/>
</g>
<!-- Node21 -->
<g id="node21" class="node">
<title>Node21</title>
<g id="a_node21"><a xlink:title=" ">
<polygon fill="white" stroke="#bfbfbf" points="989.5,-134.5 989.5,-153.5 1062.5,-153.5 1062.5,-134.5 989.5,-134.5"/>
<text text-anchor="middle" x="1026" y="-141.5" font-family="Helvetica,sans-Serif" font-size="10.00">G4Types.hh</text>
</a>
</g>
</g>
<!-- Node20&#45;&gt;Node21 -->
<g id="edge21" class="edge">
<title>Node20&#45;&gt;Node21</title>
<path fill="none" stroke="midnightblue" d="M1116.65,-190.32C1099.33,-181.66 1072.48,-168.24 1052.5,-158.25"/>
<polygon fill="midnightblue" stroke="midnightblue" points="1053.82,-155 1043.31,-153.65 1050.69,-161.26 1053.82,-155"/>
</g>
<!-- Node22 -->
<g id="node22" class="node">
<title>Node22</title>
<g id="a_node22"><a xlink:title=" ">
<polygon fill="white" stroke="#bfbfbf" points="1081,-134.5 1081,-153.5 1119,-153.5 1119,-134.5 1081,-134.5"/>
<text text-anchor="middle" x="1100" y="-141.5" font-family="Helvetica,sans-Serif" font-size="10.00">map</text>
</a>
</g>
</g>
<!-- Node20&#45;&gt;Node22 -->
<g id="edge22" class="edge">
<title>Node20&#45;&gt;Node22</title>
<path fill="none" stroke="midnightblue" d="M1128.39,-190.08C1123.63,-182.53 1116.68,-171.49 1110.85,-162.23"/>
<polygon fill="midnightblue" stroke="midnightblue" points="1113.8,-160.35 1105.51,-153.75 1107.88,-164.08 1113.8,-160.35"/>
</g>
<!-- Node23 -->
<g id="node23" class="node">
<title>Node23</title>
<g id="a_node23"><a xlink:title=" ">
<polygon fill="white" stroke="#bfbfbf" points="1137.5,-134.5 1137.5,-153.5 1198.5,-153.5 1198.5,-134.5 1137.5,-134.5"/>
<text text-anchor="middle" x="1168" y="-141.5" font-family="Helvetica,sans-Serif" font-size="10.00">TGraph.h</text>
</a>
</g>
</g>
<!-- Node20&#45;&gt;Node23 -->
<g id="edge23" class="edge">
<title>Node20&#45;&gt;Node23</title>
<path fill="none" stroke="midnightblue" d="M1139.61,-190.08C1144.37,-182.53 1151.32,-171.49 1157.15,-162.23"/>
<polygon fill="midnightblue" stroke="midnightblue" points="1160.12,-164.08 1162.49,-153.75 1154.2,-160.35 1160.12,-164.08"/>
</g>
<!-- Node24 -->
<g id="node24" class="node">
<title>Node24</title>
<g id="a_node24"><a xlink:title=" ">
<polygon fill="white" stroke="#bfbfbf" points="1216.5,-134.5 1216.5,-153.5 1269.5,-153.5 1269.5,-134.5 1216.5,-134.5"/>
<text text-anchor="middle" x="1243" y="-141.5" font-family="Helvetica,sans-Serif" font-size="10.00">TH2D.h</text>
</a>
</g>
</g>
<!-- Node20&#45;&gt;Node24 -->
<g id="edge24" class="edge">
<title>Node20&#45;&gt;Node24</title>
<path fill="none" stroke="midnightblue" d="M1151.51,-190.32C1169.07,-181.62 1196.33,-168.12 1216.53,-158.11"/>
<polygon fill="midnightblue" stroke="midnightblue" points="1218.12,-161.23 1225.53,-153.65 1215.02,-154.96 1218.12,-161.23"/>
</g>
<!-- Node27&#45;&gt;Node5 -->
<g id="edge28" class="edge">
<title>Node27&#45;&gt;Node5</title>
<path fill="none" stroke="midnightblue" d="M886.82,-246.44C848.42,-237.1 786.82,-222.12 744.94,-211.93"/>
<polygon fill="midnightblue" stroke="midnightblue" points="745.56,-208.48 735.01,-209.52 743.9,-215.28 745.56,-208.48"/>
</g>
<!-- Node27&#45;&gt;Node20 -->
<g id="edge30" class="edge">
<title>Node27&#45;&gt;Node20</title>
<path fill="none" stroke="midnightblue" d="M955.59,-246.44C992.19,-237.12 1050.84,-222.18 1090.83,-212"/>
<polygon fill="midnightblue" stroke="midnightblue" points="1091.74,-215.38 1100.57,-209.52 1090.01,-208.59 1091.74,-215.38"/>
</g>
<!-- Node27&#45;&gt;Node27 -->
<g id="edge29" class="edge">
<title>Node27&#45;&gt;Node27</title>
<path fill="none" stroke="midnightblue" d="M961.45,-265.53C988.26,-268.31 1014.5,-265.13 1014.5,-256 1014.5,-248.01 994.41,-244.58 971.43,-245.71"/>
<polygon fill="midnightblue" stroke="midnightblue" points="971.15,-242.22 961.45,-246.47 971.69,-249.2 971.15,-242.22"/>
</g>
<!-- Node28 -->
<g id="node28" class="node">
<title>Node28</title>
<g id="a_node28"><a xlink:title=" ">
<polygon fill="white" stroke="#bfbfbf" points="877,-190.5 877,-209.5 975,-209.5 975,-190.5 877,-190.5"/>
<text text-anchor="middle" x="926" y="-197.5" font-family="Helvetica,sans-Serif" font-size="10.00">G4UnionSolid.hh</text>
</a>
</g>
</g>
<!-- Node27&#45;&gt;Node28 -->
<g id="edge31" class="edge">
<title>Node27&#45;&gt;Node28</title>
<path fill="none" stroke="midnightblue" d="M922.66,-246.08C923.18,-239.01 923.94,-228.86 924.59,-219.99"/>
<polygon fill="midnightblue" stroke="midnightblue" points="928.1,-219.98 925.35,-209.75 921.12,-219.47 928.1,-219.98"/>
</g>
<!-- Node29 -->
<g id="node29" class="node">
<title>Node29</title>
<g id="a_node29"><a xlink:title=" ">
<polygon fill="white" stroke="#bfbfbf" points="791.5,-190.5 791.5,-209.5 858.5,-209.5 858.5,-190.5 791.5,-190.5"/>
<text text-anchor="middle" x="825" y="-197.5" font-family="Helvetica,sans-Serif" font-size="10.00">G4Tubs.hh</text>
</a>
</g>
</g>
<!-- Node27&#45;&gt;Node29 -->
<g id="edge32" class="edge">
<title>Node27&#45;&gt;Node29</title>
<path fill="none" stroke="midnightblue" d="M906.42,-246.32C891,-237.74 867.19,-224.49 849.29,-214.52"/>
<polygon fill="midnightblue" stroke="midnightblue" points="850.99,-211.46 840.55,-209.65 847.58,-217.58 850.99,-211.46"/>
</g>
<!-- Node35 -->
<g id="node35" class="node">
<title>Node35</title>
<g id="a_node35"><a xlink:title=" ">
<polygon fill="white" stroke="#bfbfbf" points="1366.5,-302.5 1366.5,-321.5 1483.5,-321.5 1483.5,-302.5 1366.5,-302.5"/>
<text text-anchor="middle" x="1425" y="-309.5" font-family="Helvetica,sans-Serif" font-size="10.00">G4UserRunAction.hh</text>
</a>
</g>
</g>
<!-- Node34&#45;&gt;Node35 -->
<g id="edge38" class="edge">
<title>Node34&#45;&gt;Node35</title>
<path fill="none" stroke="midnightblue" d="M1425,-358.08C1425,-351.01 1425,-340.86 1425,-331.99"/>
<polygon fill="midnightblue" stroke="midnightblue" points="1428.5,-331.75 1425,-321.75 1421.5,-331.75 1428.5,-331.75"/>
</g>
<!-- Node38 -->
<g id="node38" class="node">
<title>Node38</title>
<g id="a_node38"><a xlink:title=" ">
<polygon fill="white" stroke="#bfbfbf" points="28.5,-302.5 28.5,-321.5 167.5,-321.5 167.5,-302.5 28.5,-302.5"/>
<text text-anchor="middle" x="98" y="-309.5" font-family="Helvetica,sans-Serif" font-size="10.00">G4UserTrackingAction.hh</text>
</a>
</g>
</g>
<!-- Node37&#45;&gt;Node38 -->
<g id="edge41" class="edge">
<title>Node37&#45;&gt;Node38</title>
<path fill="none" stroke="midnightblue" d="M97.17,-358.08C97.3,-351.01 97.48,-340.86 97.65,-331.99"/>
<polygon fill="midnightblue" stroke="midnightblue" points="101.15,-331.81 97.84,-321.75 94.15,-331.68 101.15,-331.81"/>
</g>
<!-- Node40 -->
<g id="node40" class="node">
<title>Node40</title>
<g id="a_node40"><a xlink:title=" ">
<polygon fill="white" stroke="#bfbfbf" points="185.5,-302.5 185.5,-321.5 326.5,-321.5 326.5,-302.5 185.5,-302.5"/>
<text text-anchor="middle" x="256" y="-309.5" font-family="Helvetica,sans-Serif" font-size="10.00">G4UserSteppingAction.hh</text>
</a>
</g>
</g>
<!-- Node39&#45;&gt;Node40 -->
<g id="edge43" class="edge">
<title>Node39&#45;&gt;Node40</title>
<path fill="none" stroke="midnightblue" d="M254.33,-358.08C254.59,-351.01 254.97,-340.86 255.3,-331.99"/>
<polygon fill="midnightblue" stroke="midnightblue" points="258.8,-331.87 255.68,-321.75 251.81,-331.61 258.8,-331.87"/>
</g>
<!-- Node42 -->
<g id="node42" class="node">
<title>Node42</title>
<g id="a_node42"><a xlink:href="_o_m_sim_command_args_table_8hh.html" target="_top" xlink:title="Definition of the OMSimCommandArgsTable singleton class, which controls user args.">
<polygon fill="white" stroke="black" points="492,-246.5 492,-265.5 656,-265.5 656,-246.5 492,-246.5"/>
<text text-anchor="middle" x="574" y="-253.5" font-family="Helvetica,sans-Serif" font-size="10.00">OMSimCommandArgsTable.hh</text>
</a>
</g>
</g>
<!-- Node41&#45;&gt;Node42 -->
<g id="edge45" class="edge">
<title>Node41&#45;&gt;Node42</title>
<path fill="none" stroke="midnightblue" d="M574,-302.08C574,-295.01 574,-284.86 574,-275.99"/>
<polygon fill="midnightblue" stroke="midnightblue" points="577.5,-275.75 574,-265.75 570.5,-275.75 577.5,-275.75"/>
</g>
<!-- Node45 -->
<g id="node45" class="node">
<title>Node45</title>
<g id="a_node45"><a xlink:title=" ">
<polygon fill="white" stroke="#bfbfbf" points="376,-246.5 376,-265.5 474,-265.5 474,-246.5 376,-246.5"/>
<text text-anchor="middle" x="425" y="-253.5" font-family="Helvetica,sans-Serif" font-size="10.00">G4UImanager.hh</text>
</a>
</g>
</g>
<!-- Node41&#45;&gt;Node45 -->
<g id="edge50" class="edge">
<title>Node41&#45;&gt;Node45</title>
<path fill="none" stroke="midnightblue" d="M550.39,-302.44C525.54,-293.44 486.23,-279.19 458.25,-269.05"/>
<polygon fill="midnightblue" stroke="midnightblue" points="459.09,-265.63 448.5,-265.52 456.71,-272.21 459.09,-265.63"/>
</g>
<!-- Node42&#45;&gt;Node7 -->
<g id="edge46" class="edge">
<title>Node42&#45;&gt;Node7</title>
<path fill="none" stroke="midnightblue" d="M507.15,-246.48C449.28,-235.42 368,-210.34 323,-154 311.27,-139.32 306.76,-118.01 305.03,-102.66"/>
<polygon fill="midnightblue" stroke="midnightblue" points="308.49,-101.98 304.18,-92.3 301.51,-102.55 308.49,-101.98"/>
</g>
<!-- Node42&#45;&gt;Node26 -->
<g id="edge47" class="edge">
<title>Node42&#45;&gt;Node26</title>
<path fill="none" stroke="midnightblue" d="M656.12,-249.13C736.94,-242.63 863.98,-230.52 983.17,-209.93"/>
<polygon fill="midnightblue" stroke="midnightblue" points="983.95,-213.34 993.2,-208.17 982.75,-206.45 983.95,-213.34"/>
</g>
<!-- Node43 -->
<g id="node43" class="node">
<title>Node43</title>
<g id="a_node43"><a xlink:title=" ">
<polygon fill="white" stroke="#bfbfbf" points="438,-190.5 438,-209.5 522,-209.5 522,-190.5 438,-190.5"/>
<text text-anchor="middle" x="480" y="-197.5" font-family="Helvetica,sans-Serif" font-size="10.00">boost/any.hpp</text>
</a>
</g>
</g>
<!-- Node42&#45;&gt;Node43 -->
<g id="edge48" class="edge">
<title>Node42&#45;&gt;Node43</title>
<path fill="none" stroke="midnightblue" d="M558.9,-246.32C544.1,-237.82 521.31,-224.73 504.02,-214.8"/>
<polygon fill="midnightblue" stroke="midnightblue" points="505.48,-211.6 495.07,-209.65 501.99,-217.67 505.48,-211.6"/>
</g>
<!-- Node44 -->
<g id="node44" class="node">
<title>Node44</title>
<g id="a_node44"><a xlink:title=" ">
<polygon fill="white" stroke="#bfbfbf" points="540,-190.5 540,-209.5 608,-209.5 608,-190.5 540,-190.5"/>
<text text-anchor="middle" x="574" y="-197.5" font-family="Helvetica,sans-Serif" font-size="10.00">sys/time.h</text>
</a>
</g>
</g>
<!-- Node42&#45;&gt;Node44 -->
<g id="edge49" class="edge">
<title>Node42&#45;&gt;Node44</title>
<path fill="none" stroke="midnightblue" d="M574,-246.08C574,-239.01 574,-228.86 574,-219.99"/>
<polygon fill="midnightblue" stroke="midnightblue" points="577.5,-219.75 574,-209.75 570.5,-219.75 577.5,-219.75"/>
</g>
</g>
</svg>
