<?xml version="1.0" encoding="UTF-8" standalone="no"?>
<!DOCTYPE svg PUBLIC "-//W3C//DTD SVG 1.1//EN"
 "http://www.w3.org/Graphics/SVG/1.1/DTD/svg11.dtd">
<!-- Generated by graphviz version 2.43.0 (0)
 -->
<!-- Title: OMSimOpticalModule.cc Pages: 1 -->
<svg width="1282pt" height="386pt"
 viewBox="0.00 0.00 1282.00 386.00" xmlns="http://www.w3.org/2000/svg" xmlns:xlink="http://www.w3.org/1999/xlink">
<g id="graph0" class="graph" transform="scale(1 1) rotate(0) translate(4 382)">
<title>OMSimOpticalModule.cc</title>
<polygon fill="white" stroke="transparent" points="-4,4 -4,-382 1278,-382 1278,4 -4,4"/>
<!-- Node1 -->
<g id="node1" class="node">
<title>Node1</title>
<g id="a_node1"><a xlink:title=" ">
<polygon fill="#bfbfbf" stroke="black" points="798.5,-358.5 798.5,-377.5 934.5,-377.5 934.5,-358.5 798.5,-358.5"/>
<text text-anchor="middle" x="866.5" y="-365.5" font-family="Helvetica,sans-Serif" font-size="10.00">OMSimOpticalModule.cc</text>
</a>
</g>
</g>
<!-- Node2 -->
<g id="node2" class="node">
<title>Node2</title>
<g id="a_node2"><a xlink:href="_o_m_sim_optical_module_8hh.html" target="_top" xlink:title=" ">
<polygon fill="white" stroke="black" points="798,-302.5 798,-321.5 935,-321.5 935,-302.5 798,-302.5"/>
<text text-anchor="middle" x="866.5" y="-309.5" font-family="Helvetica,sans-Serif" font-size="10.00">OMSimOpticalModule.hh</text>
</a>
</g>
</g>
<!-- Node1&#45;&gt;Node2 -->
<g id="edge1" class="edge">
<title>Node1&#45;&gt;Node2</title>
<path fill="none" stroke="midnightblue" d="M866.5,-358.08C866.5,-351.01 866.5,-340.86 866.5,-331.99"/>
<polygon fill="midnightblue" stroke="midnightblue" points="870,-331.75 866.5,-321.75 863,-331.75 870,-331.75"/>
</g>
<!-- Node17 -->
<g id="node17" class="node">
<title>Node17</title>
<g id="a_node17"><a xlink:href="_o_m_sim_hit_manager_8hh.html" target="_top" xlink:title="Defines structures and classes related to optical module photon hit management.">
<polygon fill="white" stroke="black" points="936,-246.5 936,-265.5 1059,-265.5 1059,-246.5 936,-246.5"/>
<text text-anchor="middle" x="997.5" y="-253.5" font-family="Helvetica,sans-Serif" font-size="10.00">OMSimHitManager.hh</text>
</a>
</g>
</g>
<!-- Node1&#45;&gt;Node17 -->
<g id="edge31" class="edge">
<title>Node1&#45;&gt;Node17</title>
<path fill="none" stroke="midnightblue" d="M885.7,-358.38C902.3,-350.38 926.4,-337.4 944.5,-322 961.06,-307.91 976.33,-288.15 986.18,-274.12"/>
<polygon fill="midnightblue" stroke="midnightblue" points="989.08,-276.08 991.83,-265.85 983.3,-272.13 989.08,-276.08"/>
</g>
<!-- Node25 -->
<g id="node25" class="node">
<title>Node25</title>
<g id="a_node25"><a xlink:href="_o_m_sim_p_m_t_construction_8hh.html" target="_top" xlink:title="Construction of the PMTs.">
<polygon fill="white" stroke="black" points="672,-246.5 672,-265.5 821,-265.5 821,-246.5 672,-246.5"/>
<text text-anchor="middle" x="746.5" y="-253.5" font-family="Helvetica,sans-Serif" font-size="10.00">OMSimPMTConstruction.hh</text>
</a>
</g>
</g>
<!-- Node1&#45;&gt;Node25 -->
<g id="edge32" class="edge">
<title>Node1&#45;&gt;Node25</title>
<path fill="none" stroke="midnightblue" d="M845.86,-358.4C829.03,-350.66 805.38,-338.05 788.5,-322 774.24,-308.44 762.55,-289.12 755.16,-275.07"/>
<polygon fill="midnightblue" stroke="midnightblue" points="758.18,-273.29 750.56,-265.93 751.93,-276.44 758.18,-273.29"/>
</g>
<!-- Node3 -->
<g id="node3" class="node">
<title>Node3</title>
<g id="a_node3"><a xlink:href="abc_detector_component_8hh.html" target="_top" xlink:title="Provides helper base class abcDetectorComponent for constructing and managing detector components in ...">
<polygon fill="white" stroke="black" points="673,-190.5 673,-209.5 820,-209.5 820,-190.5 673,-190.5"/>
<text text-anchor="middle" x="746.5" y="-197.5" font-family="Helvetica,sans-Serif" font-size="10.00">abcDetectorComponent.hh</text>
</a>
</g>
</g>
<!-- Node2&#45;&gt;Node3 -->
<g id="edge2" class="edge">
<title>Node2&#45;&gt;Node3</title>
<path fill="none" stroke="midnightblue" d="M866.21,-302.33C865.32,-288.74 861.73,-262.29 847.5,-246 833.73,-230.24 813.38,-219.74 794.54,-212.89"/>
<polygon fill="midnightblue" stroke="midnightblue" points="795.47,-209.5 784.88,-209.62 793.23,-216.14 795.47,-209.5"/>
</g>
<!-- Node2&#45;&gt;Node17 -->
<g id="edge16" class="edge">
<title>Node2&#45;&gt;Node17</title>
<path fill="none" stroke="midnightblue" d="M887.26,-302.44C908.82,-293.56 942.76,-279.56 967.29,-269.45"/>
<polygon fill="midnightblue" stroke="midnightblue" points="968.93,-272.56 976.84,-265.52 966.26,-266.09 968.93,-272.56"/>
</g>
<!-- Node2&#45;&gt;Node25 -->
<g id="edge25" class="edge">
<title>Node2&#45;&gt;Node25</title>
<path fill="none" stroke="midnightblue" d="M847.49,-302.44C827.91,-293.64 797.19,-279.81 774.77,-269.72"/>
<polygon fill="midnightblue" stroke="midnightblue" points="775.98,-266.43 765.43,-265.52 773.11,-272.81 775.98,-266.43"/>
</g>
<!-- Node4 -->
<g id="node4" class="node">
<title>Node4</title>
<g id="a_node4"><a xlink:href="_o_m_sim_input_data_8hh.html" target="_top" xlink:title="Definition of ParameterTable and InputDataManager.">
<polygon fill="white" stroke="black" points="299,-134.5 299,-153.5 414,-153.5 414,-134.5 299,-134.5"/>
<text text-anchor="middle" x="356.5" y="-141.5" font-family="Helvetica,sans-Serif" font-size="10.00">OMSimInputData.hh</text>
</a>
</g>
</g>
<!-- Node3&#45;&gt;Node4 -->
<g id="edge3" class="edge">
<title>Node3&#45;&gt;Node4</title>
<path fill="none" stroke="midnightblue" d="M684.7,-190.44C613.73,-180.62 497.65,-164.54 424.26,-154.38"/>
<polygon fill="midnightblue" stroke="midnightblue" points="424.58,-150.89 414.19,-152.99 423.62,-157.83 424.58,-150.89"/>
</g>
<!-- Node13 -->
<g id="node13" class="node">
<title>Node13</title>
<g id="a_node13"><a xlink:title=" ">
<polygon fill="white" stroke="#bfbfbf" points="432,-134.5 432,-153.5 539,-153.5 539,-134.5 432,-134.5"/>
<text text-anchor="middle" x="485.5" y="-141.5" font-family="Helvetica,sans-Serif" font-size="10.00">G4Transform3D.hh</text>
</a>
</g>
</g>
<!-- Node3&#45;&gt;Node13 -->
<g id="edge12" class="edge">
<title>Node3&#45;&gt;Node13</title>
<path fill="none" stroke="midnightblue" d="M705.14,-190.44C659.42,-180.98 585.74,-165.74 536.48,-155.55"/>
<polygon fill="midnightblue" stroke="midnightblue" points="537.16,-152.12 526.66,-153.52 535.75,-158.97 537.16,-152.12"/>
</g>
<!-- Node14 -->
<g id="node14" class="node">
<title>Node14</title>
<g id="a_node14"><a xlink:title=" ">
<polygon fill="white" stroke="#bfbfbf" points="557.5,-134.5 557.5,-153.5 665.5,-153.5 665.5,-134.5 557.5,-134.5"/>
<text text-anchor="middle" x="611.5" y="-141.5" font-family="Helvetica,sans-Serif" font-size="10.00">G4VisAttributes.hh</text>
</a>
</g>
</g>
<!-- Node3&#45;&gt;Node14 -->
<g id="edge13" class="edge">
<title>Node3&#45;&gt;Node14</title>
<path fill="none" stroke="midnightblue" d="M725.11,-190.44C702.79,-181.52 667.6,-167.44 642.29,-157.32"/>
<polygon fill="midnightblue" stroke="midnightblue" points="643.38,-153.98 632.79,-153.52 640.78,-160.48 643.38,-153.98"/>
</g>
<!-- Node15 -->
<g id="node15" class="node">
<title>Node15</title>
<g id="a_node15"><a xlink:title=" ">
<polygon fill="white" stroke="#bfbfbf" points="684,-134.5 684,-153.5 809,-153.5 809,-134.5 684,-134.5"/>
<text text-anchor="middle" x="746.5" y="-141.5" font-family="Helvetica,sans-Serif" font-size="10.00">G4SubtractionSolid.hh</text>
</a>
</g>
</g>
<!-- Node3&#45;&gt;Node15 -->
<g id="edge14" class="edge">
<title>Node3&#45;&gt;Node15</title>
<path fill="none" stroke="midnightblue" d="M746.5,-190.08C746.5,-183.01 746.5,-172.86 746.5,-163.99"/>
<polygon fill="midnightblue" stroke="midnightblue" points="750,-163.75 746.5,-153.75 743,-163.75 750,-163.75"/>
</g>
<!-- Node16 -->
<g id="node16" class="node">
<title>Node16</title>
<g id="a_node16"><a xlink:title=" ">
<polygon fill="white" stroke="#bfbfbf" points="827.5,-134.5 827.5,-153.5 937.5,-153.5 937.5,-134.5 827.5,-134.5"/>
<text text-anchor="middle" x="882.5" y="-141.5" font-family="Helvetica,sans-Serif" font-size="10.00">G4PVPlacement.hh</text>
</a>
</g>
</g>
<!-- Node3&#45;&gt;Node16 -->
<g id="edge15" class="edge">
<title>Node3&#45;&gt;Node16</title>
<path fill="none" stroke="midnightblue" d="M768.05,-190.44C790.53,-181.52 825.99,-167.44 851.48,-157.32"/>
<polygon fill="midnightblue" stroke="midnightblue" points="853.05,-160.46 861.05,-153.52 850.47,-153.95 853.05,-160.46"/>
</g>
<!-- Node5 -->
<g id="node5" class="node">
<title>Node5</title>
<g id="a_node5"><a xlink:href="_o_m_sim_logger_8hh.html" target="_top" xlink:title=" ">
<polygon fill="white" stroke="black" points="168,-73 168,-92 267,-92 267,-73 168,-73"/>
<text text-anchor="middle" x="217.5" y="-80" font-family="Helvetica,sans-Serif" font-size="10.00">OMSimLogger.hh</text>
</a>
</g>
</g>
<!-- Node4&#45;&gt;Node5 -->
<g id="edge4" class="edge">
<title>Node4&#45;&gt;Node5</title>
<path fill="none" stroke="midnightblue" d="M336.58,-134.48C313.05,-124.4 273.69,-107.55 246.71,-96"/>
<polygon fill="midnightblue" stroke="midnightblue" points="247.95,-92.73 237.38,-92.01 245.19,-99.16 247.95,-92.73"/>
</g>
<!-- Node10 -->
<g id="node10" class="node">
<title>Node10</title>
<g id="a_node10"><a xlink:title=" ">
<polygon fill="white" stroke="#bfbfbf" points="285,-73 285,-92 428,-92 428,-73 285,-73"/>
<text text-anchor="middle" x="356.5" y="-80" font-family="Helvetica,sans-Serif" font-size="10.00">G4OpBoundaryProcess.hh</text>
</a>
</g>
</g>
<!-- Node4&#45;&gt;Node10 -->
<g id="edge9" class="edge">
<title>Node4&#45;&gt;Node10</title>
<path fill="none" stroke="midnightblue" d="M356.5,-134.48C356.5,-126.08 356.5,-112.98 356.5,-102.16"/>
<polygon fill="midnightblue" stroke="midnightblue" points="360,-102.01 356.5,-92.01 353,-102.01 360,-102.01"/>
</g>
<!-- Node11 -->
<g id="node11" class="node">
<title>Node11</title>
<g id="a_node11"><a xlink:title=" ">
<polygon fill="white" stroke="#bfbfbf" points="741,-73 741,-92 860,-92 860,-73 741,-73"/>
<text text-anchor="middle" x="800.5" y="-80" font-family="Helvetica,sans-Serif" font-size="10.00">G4SystemOfUnits.hh</text>
</a>
</g>
</g>
<!-- Node4&#45;&gt;Node11 -->
<g id="edge10" class="edge">
<title>Node4&#45;&gt;Node11</title>
<path fill="none" stroke="midnightblue" d="M414.09,-135.14C416.93,-134.75 419.75,-134.37 422.5,-134 529.97,-119.49 654.66,-102.88 730.54,-92.79"/>
<polygon fill="midnightblue" stroke="midnightblue" points="731.46,-96.2 740.92,-91.41 730.54,-89.26 731.46,-96.2"/>
</g>
<!-- Node12 -->
<g id="node12" class="node">
<title>Node12</title>
<g id="a_node12"><a xlink:title=" ">
<polygon fill="white" stroke="#bfbfbf" points="446,-67.5 446,-97.5 559,-97.5 559,-67.5 446,-67.5"/>
<text text-anchor="start" x="454" y="-85.5" font-family="Helvetica,sans-Serif" font-size="10.00">boost/property_tree</text>
<text text-anchor="middle" x="502.5" y="-74.5" font-family="Helvetica,sans-Serif" font-size="10.00">/json_parser.hpp</text>
</a>
</g>
</g>
<!-- Node4&#45;&gt;Node12 -->
<g id="edge11" class="edge">
<title>Node4&#45;&gt;Node12</title>
<path fill="none" stroke="midnightblue" d="M377.42,-134.48C398.49,-125.89 431.63,-112.38 458.51,-101.43"/>
<polygon fill="midnightblue" stroke="midnightblue" points="460.15,-104.54 468.09,-97.52 457.51,-98.06 460.15,-104.54"/>
</g>
<!-- Node6 -->
<g id="node6" class="node">
<title>Node6</title>
<g id="a_node6"><a xlink:title=" ">
<polygon fill="white" stroke="#bfbfbf" points="0,-6 0,-25 93,-25 93,-6 0,-6"/>
<text text-anchor="middle" x="46.5" y="-13" font-family="Helvetica,sans-Serif" font-size="10.00">spdlog/spdlog.h</text>
</a>
</g>
</g>
<!-- Node5&#45;&gt;Node6 -->
<g id="edge5" class="edge">
<title>Node5&#45;&gt;Node6</title>
<path fill="none" stroke="midnightblue" d="M194.79,-72.87C164.94,-61.52 112.33,-41.52 78.47,-28.65"/>
<polygon fill="midnightblue" stroke="midnightblue" points="79.62,-25.35 69.03,-25.06 77.13,-31.89 79.62,-25.35"/>
</g>
<!-- Node7 -->
<g id="node7" class="node">
<title>Node7</title>
<g id="a_node7"><a xlink:title=" ">
<polygon fill="white" stroke="#bfbfbf" points="111,-0.5 111,-30.5 222,-30.5 222,-0.5 111,-0.5"/>
<text text-anchor="start" x="119" y="-18.5" font-family="Helvetica,sans-Serif" font-size="10.00">spdlog/sinks/stdout</text>
<text text-anchor="middle" x="166.5" y="-7.5" font-family="Helvetica,sans-Serif" font-size="10.00">_color_sinks.h</text>
</a>
</g>
</g>
<!-- Node5&#45;&gt;Node7 -->
<g id="edge6" class="edge">
<title>Node5&#45;&gt;Node7</title>
<path fill="none" stroke="midnightblue" d="M210.62,-72.73C203.8,-64.03 193.06,-50.34 183.88,-38.65"/>
<polygon fill="midnightblue" stroke="midnightblue" points="186.48,-36.3 177.55,-30.59 180.97,-40.62 186.48,-36.3"/>
</g>
<!-- Node8 -->
<g id="node8" class="node">
<title>Node8</title>
<g id="a_node8"><a xlink:title=" ">
<polygon fill="white" stroke="#bfbfbf" points="240.5,-6 240.5,-25 298.5,-25 298.5,-6 240.5,-6"/>
<text text-anchor="middle" x="269.5" y="-13" font-family="Helvetica,sans-Serif" font-size="10.00">memory</text>
</a>
</g>
</g>
<!-- Node5&#45;&gt;Node8 -->
<g id="edge7" class="edge">
<title>Node5&#45;&gt;Node8</title>
<path fill="none" stroke="midnightblue" d="M224.51,-72.73C232.62,-62.6 246.15,-45.69 256.26,-33.06"/>
<polygon fill="midnightblue" stroke="midnightblue" points="259.08,-35.12 262.6,-25.13 253.62,-30.75 259.08,-35.12"/>
</g>
<!-- Node9 -->
<g id="node9" class="node">
<title>Node9</title>
<g id="a_node9"><a xlink:title=" ">
<polygon fill="white" stroke="#bfbfbf" points="316.5,-6 316.5,-25 414.5,-25 414.5,-6 316.5,-6"/>
<text text-anchor="middle" x="365.5" y="-13" font-family="Helvetica,sans-Serif" font-size="10.00">spdlog/fmt/fmt.h</text>
</a>
</g>
</g>
<!-- Node5&#45;&gt;Node9 -->
<g id="edge8" class="edge">
<title>Node5&#45;&gt;Node9</title>
<path fill="none" stroke="midnightblue" d="M237.15,-72.87C262.59,-61.7 307.1,-42.15 336.45,-29.26"/>
<polygon fill="midnightblue" stroke="midnightblue" points="338.02,-32.39 345.77,-25.17 335.2,-25.98 338.02,-32.39"/>
</g>
<!-- Node18 -->
<g id="node18" class="node">
<title>Node18</title>
<g id="a_node18"><a xlink:href="_o_m_sim_p_m_t_response_8hh.html" target="_top" xlink:title="Provides simulation for PMT response. This class is responsible for transforming hits on photocathode...">
<polygon fill="white" stroke="black" points="930,-190.5 930,-209.5 1065,-209.5 1065,-190.5 930,-190.5"/>
<text text-anchor="middle" x="997.5" y="-197.5" font-family="Helvetica,sans-Serif" font-size="10.00">OMSimPMTResponse.hh</text>
</a>
</g>
</g>
<!-- Node17&#45;&gt;Node18 -->
<g id="edge17" class="edge">
<title>Node17&#45;&gt;Node18</title>
<path fill="none" stroke="midnightblue" d="M997.5,-246.08C997.5,-239.01 997.5,-228.86 997.5,-219.99"/>
<polygon fill="midnightblue" stroke="midnightblue" points="1001,-219.75 997.5,-209.75 994,-219.75 1001,-219.75"/>
</g>
<!-- Node23 -->
<g id="node23" class="node">
<title>Node23</title>
<g id="a_node23"><a xlink:title=" ">
<polygon fill="white" stroke="#bfbfbf" points="1083,-190.5 1083,-209.5 1186,-209.5 1186,-190.5 1083,-190.5"/>
<text text-anchor="middle" x="1134.5" y="-197.5" font-family="Helvetica,sans-Serif" font-size="10.00">G4ThreeVector.hh</text>
</a>
</g>
</g>
<!-- Node17&#45;&gt;Node23 -->
<g id="edge23" class="edge">
<title>Node17&#45;&gt;Node23</title>
<path fill="none" stroke="midnightblue" d="M1019.21,-246.44C1041.85,-237.52 1077.57,-223.44 1103.25,-213.32"/>
<polygon fill="midnightblue" stroke="midnightblue" points="1104.87,-216.44 1112.89,-209.52 1102.31,-209.93 1104.87,-216.44"/>
</g>
<!-- Node24 -->
<g id="node24" class="node">
<title>Node24</title>
<g id="a_node24"><a xlink:title=" ">
<polygon fill="white" stroke="#bfbfbf" points="1204,-190.5 1204,-209.5 1259,-209.5 1259,-190.5 1204,-190.5"/>
<text text-anchor="middle" x="1231.5" y="-197.5" font-family="Helvetica,sans-Serif" font-size="10.00">fstream</text>
</a>
</g>
</g>
<!-- Node17&#45;&gt;Node24 -->
<g id="edge24" class="edge">
<title>Node17&#45;&gt;Node24</title>
<path fill="none" stroke="midnightblue" d="M1036.26,-246.45C1074.11,-238.04 1133.6,-224.68 1193.92,-210.34"/>
<polygon fill="midnightblue" stroke="midnightblue" points="1195.08,-213.66 1204,-207.94 1193.46,-206.85 1195.08,-213.66"/>
</g>
<!-- Node18&#45;&gt;Node11 -->
<g id="edge18" class="edge">
<title>Node18&#45;&gt;Node11</title>
<path fill="none" stroke="midnightblue" d="M992.77,-190.1C984.94,-176.2 967.99,-149.32 946.5,-134 919.44,-114.71 884.38,-102.27 855.4,-94.56"/>
<polygon fill="midnightblue" stroke="midnightblue" points="855.97,-91.09 845.42,-92.02 854.25,-97.88 855.97,-91.09"/>
</g>
<!-- Node19 -->
<g id="node19" class="node">
<title>Node19</title>
<g id="a_node19"><a xlink:title=" ">
<polygon fill="white" stroke="#bfbfbf" points="994,-134.5 994,-153.5 1067,-153.5 1067,-134.5 994,-134.5"/>
<text text-anchor="middle" x="1030.5" y="-141.5" font-family="Helvetica,sans-Serif" font-size="10.00">G4Types.hh</text>
</a>
</g>
</g>
<!-- Node18&#45;&gt;Node19 -->
<g id="edge19" class="edge">
<title>Node18&#45;&gt;Node19</title>
<path fill="none" stroke="midnightblue" d="M1002.95,-190.08C1007.51,-182.61 1014.17,-171.72 1019.79,-162.52"/>
<polygon fill="midnightblue" stroke="midnightblue" points="1022.92,-164.11 1025.15,-153.75 1016.95,-160.46 1022.92,-164.11"/>
</g>
<!-- Node20 -->
<g id="node20" class="node">
<title>Node20</title>
<g id="a_node20"><a xlink:title=" ">
<polygon fill="white" stroke="#bfbfbf" points="1085.5,-134.5 1085.5,-153.5 1123.5,-153.5 1123.5,-134.5 1085.5,-134.5"/>
<text text-anchor="middle" x="1104.5" y="-141.5" font-family="Helvetica,sans-Serif" font-size="10.00">map</text>
</a>
</g>
</g>
<!-- Node18&#45;&gt;Node20 -->
<g id="edge20" class="edge">
<title>Node18&#45;&gt;Node20</title>
<path fill="none" stroke="midnightblue" d="M1014.69,-190.32C1031.85,-181.66 1058.45,-168.24 1078.25,-158.25"/>
<polygon fill="midnightblue" stroke="midnightblue" points="1080,-161.28 1087.35,-153.65 1076.85,-155.04 1080,-161.28"/>
</g>
<!-- Node21 -->
<g id="node21" class="node">
<title>Node21</title>
<g id="a_node21"><a xlink:title=" ">
<polygon fill="white" stroke="#bfbfbf" points="1142,-134.5 1142,-153.5 1203,-153.5 1203,-134.5 1142,-134.5"/>
<text text-anchor="middle" x="1172.5" y="-141.5" font-family="Helvetica,sans-Serif" font-size="10.00">TGraph.h</text>
</a>
</g>
</g>
<!-- Node18&#45;&gt;Node21 -->
<g id="edge21" class="edge">
<title>Node18&#45;&gt;Node21</title>
<path fill="none" stroke="midnightblue" d="M1025.23,-190.44C1054.93,-181.28 1102.22,-166.69 1135.17,-156.52"/>
<polygon fill="midnightblue" stroke="midnightblue" points="1136.38,-159.81 1144.9,-153.52 1134.31,-153.12 1136.38,-159.81"/>
</g>
<!-- Node22 -->
<g id="node22" class="node">
<title>Node22</title>
<g id="a_node22"><a xlink:title=" ">
<polygon fill="white" stroke="#bfbfbf" points="1221,-134.5 1221,-153.5 1274,-153.5 1274,-134.5 1221,-134.5"/>
<text text-anchor="middle" x="1247.5" y="-141.5" font-family="Helvetica,sans-Serif" font-size="10.00">TH2D.h</text>
</a>
</g>
</g>
<!-- Node18&#45;&gt;Node22 -->
<g id="edge22" class="edge">
<title>Node18&#45;&gt;Node22</title>
<path fill="none" stroke="midnightblue" d="M1041.28,-190.44C1082.69,-182.21 1146.81,-169.12 1210.91,-154.3"/>
<polygon fill="midnightblue" stroke="midnightblue" points="1211.83,-157.68 1220.78,-152 1210.24,-150.86 1211.83,-157.68"/>
</g>
<!-- Node25&#45;&gt;Node3 -->
<g id="edge26" class="edge">
<title>Node25&#45;&gt;Node3</title>
<path fill="none" stroke="midnightblue" d="M746.5,-246.08C746.5,-239.01 746.5,-228.86 746.5,-219.99"/>
<polygon fill="midnightblue" stroke="midnightblue" points="750,-219.75 746.5,-209.75 743,-219.75 750,-219.75"/>
</g>
<!-- Node25&#45;&gt;Node18 -->
<g id="edge28" class="edge">
<title>Node25&#45;&gt;Node18</title>
<path fill="none" stroke="midnightblue" d="M786.27,-246.44C830.06,-237.02 900.51,-221.87 947.88,-211.68"/>
<polygon fill="midnightblue" stroke="midnightblue" points="948.87,-215.04 957.91,-209.52 947.4,-208.2 948.87,-215.04"/>
</g>
<!-- Node25&#45;&gt;Node25 -->
<g id="edge27" class="edge">
<title>Node25&#45;&gt;Node25</title>
<path fill="none" stroke="midnightblue" d="M785.95,-265.53C812.76,-268.31 839,-265.13 839,-256 839,-248.01 818.91,-244.58 795.93,-245.71"/>
<polygon fill="midnightblue" stroke="midnightblue" points="795.65,-242.22 785.95,-246.47 796.19,-249.2 795.65,-242.22"/>
</g>
<!-- Node26 -->
<g id="node26" class="node">
<title>Node26</title>
<g id="a_node26"><a xlink:title=" ">
<polygon fill="white" stroke="#bfbfbf" points="556.5,-190.5 556.5,-209.5 654.5,-209.5 654.5,-190.5 556.5,-190.5"/>
<text text-anchor="middle" x="605.5" y="-197.5" font-family="Helvetica,sans-Serif" font-size="10.00">G4UnionSolid.hh</text>
</a>
</g>
</g>
<!-- Node25&#45;&gt;Node26 -->
<g id="edge29" class="edge">
<title>Node25&#45;&gt;Node26</title>
<path fill="none" stroke="midnightblue" d="M724.16,-246.44C700.75,-237.48 663.76,-223.31 637.31,-213.18"/>
<polygon fill="midnightblue" stroke="midnightblue" points="638.33,-209.82 627.74,-209.52 635.82,-216.36 638.33,-209.82"/>
</g>
<!-- Node27 -->
<g id="node27" class="node">
<title>Node27</title>
<g id="a_node27"><a xlink:title=" ">
<polygon fill="white" stroke="#bfbfbf" points="471,-190.5 471,-209.5 538,-209.5 538,-190.5 471,-190.5"/>
<text text-anchor="middle" x="504.5" y="-197.5" font-family="Helvetica,sans-Serif" font-size="10.00">G4Tubs.hh</text>
</a>
</g>
</g>
<!-- Node25&#45;&gt;Node27 -->
<g id="edge30" class="edge">
<title>Node25&#45;&gt;Node27</title>
<path fill="none" stroke="midnightblue" d="M708.15,-246.44C664.66,-236.74 593.88,-220.95 548.27,-210.77"/>
<polygon fill="midnightblue" stroke="midnightblue" points="548.89,-207.32 538.37,-208.56 547.37,-214.15 548.89,-207.32"/>
</g>
</g>
</svg>
