<?xml version="1.0" encoding="UTF-8" standalone="no"?>
<!DOCTYPE svg PUBLIC "-//W3C//DTD SVG 1.1//EN"
 "http://www.w3.org/Graphics/SVG/1.1/DTD/svg11.dtd">
<!-- Generated by graphviz version 2.43.0 (0)
 -->
<!-- Title: OMSimSNAnalysis.cc Pages: 1 -->
<svg width="3119pt" height="313pt"
 viewBox="0.00 0.00 3119.02 313.00" xmlns="http://www.w3.org/2000/svg" xmlns:xlink="http://www.w3.org/1999/xlink">
<g id="graph0" class="graph" transform="scale(1 1) rotate(0) translate(4 309)">
<title>OMSimSNAnalysis.cc</title>
<!-- Node1 -->
<g id="Node000001" class="node">
<title>Node1</title>
<g id="a_Node000001"><a xlink:title="Analyze data and write output files.">
<polygon fill="#999999" stroke="#666666" points="514.52,-305 394.52,-305 394.52,-286 514.52,-286 514.52,-305"/>
<text text-anchor="middle" x="454.52" y="-293" font-family="Helvetica,sans-Serif" font-size="10.00">OMSimSNAnalysis.cc</text>
</a>
</g>
</g>
<!-- Node2 -->
<g id="Node000002" class="node">
<title>Node2</title>
<g id="a_Node000002"><a xlink:href="_o_m_sim_s_n_analysis_8hh_source.html" target="_top" xlink:title=" ">
<polygon fill="white" stroke="#666666" points="669.52,-195 547.52,-195 547.52,-176 669.52,-176 669.52,-195"/>
<text text-anchor="middle" x="608.52" y="-183" font-family="Helvetica,sans-Serif" font-size="10.00">OMSimSNAnalysis.hh</text>
</a>
</g>
</g>
<!-- Node1&#45;&gt;Node2 -->
<g id="edge1_Node000001_Node000002" class="edge">
<title>Node1&#45;&gt;Node2</title>
<g id="a_edge1_Node000001_Node000002"><a xlink:title=" ">
<path fill="none" stroke="#63b8ff" d="M468.22,-285.86C482.06,-277.05 503.99,-262.89 522.52,-250 545.75,-233.85 571.8,-214.42 589.09,-201.34"/>
<polygon fill="#63b8ff" stroke="#63b8ff" points="591.41,-203.96 597.26,-195.13 587.18,-198.39 591.41,-203.96"/>
</a>
</g>
</g>
<!-- Node6 -->
<g id="Node000006" class="node">
<title>Node6</title>
<g id="a_Node000006"><a xlink:title=" ">
<polygon fill="#e0e0e0" stroke="#999999" points="382.02,-140 259.02,-140 259.02,-121 382.02,-121 382.02,-140"/>
<text text-anchor="middle" x="320.52" y="-128" font-family="Helvetica,sans-Serif" font-size="10.00">OMSimHitManager.hh</text>
</a>
</g>
</g>
<!-- Node1&#45;&gt;Node6 -->
<g id="edge21_Node000001_Node000006" class="edge">
<title>Node1&#45;&gt;Node6</title>
<g id="a_edge21_Node000001_Node000006"><a xlink:title=" ">
<path fill="none" stroke="#63b8ff" d="M438.39,-285.89C412.2,-271.03 360.74,-237.97 334.52,-195 326.34,-181.58 322.91,-163.98 321.49,-150.71"/>
<polygon fill="#63b8ff" stroke="#63b8ff" points="324.95,-150.08 320.69,-140.38 317.98,-150.62 324.95,-150.08"/>
</a>
</g>
</g>
<!-- Node10 -->
<g id="Node000010" class="node">
<title>Node10</title>
<g id="a_Node000010"><a xlink:title=" ">
<polygon fill="#e0e0e0" stroke="#999999" points="1539.02,-85 1420.02,-85 1420.02,-66 1539.02,-66 1539.02,-85"/>
<text text-anchor="middle" x="1479.52" y="-73" font-family="Helvetica,sans-Serif" font-size="10.00">G4SystemOfUnits.hh</text>
</a>
</g>
</g>
<!-- Node1&#45;&gt;Node10 -->
<g id="edge9_Node000001_Node000010" class="edge">
<title>Node1&#45;&gt;Node10</title>
<g id="a_edge9_Node000001_Node000010"><a xlink:title=" ">
<path fill="none" stroke="#63b8ff" d="M394.48,-290.57C251.09,-279.21 -91.11,-239.19 23.52,-121 47.92,-95.84 1122.61,-80.88 1409.66,-77.32"/>
<polygon fill="#63b8ff" stroke="#63b8ff" points="1409.98,-80.82 1419.93,-77.2 1409.89,-73.82 1409.98,-80.82"/>
</a>
</g>
</g>
<!-- Node11 -->
<g id="Node000011" class="node">
<title>Node11</title>
<g id="a_Node000011"><a xlink:title=" ">
<polygon fill="#e0e0e0" stroke="#999999" points="513.02,-250 454.02,-250 454.02,-231 513.02,-231 513.02,-250"/>
<text text-anchor="middle" x="483.52" y="-238" font-family="Helvetica,sans-Serif" font-size="10.00">G4ios.hh</text>
</a>
</g>
</g>
<!-- Node1&#45;&gt;Node11 -->
<g id="edge10_Node000001_Node000011" class="edge">
<title>Node1&#45;&gt;Node11</title>
<g id="a_edge10_Node000001_Node000011"><a xlink:title=" ">
<path fill="none" stroke="#63b8ff" d="M459.31,-285.75C463.28,-278.49 469.05,-267.95 473.96,-258.98"/>
<polygon fill="#63b8ff" stroke="#63b8ff" points="477.09,-260.54 478.82,-250.09 470.95,-257.18 477.09,-260.54"/>
</a>
</g>
</g>
<!-- Node12 -->
<g id="Node000012" class="node">
<title>Node12</title>
<g id="a_Node000012"><a xlink:href="_o_m_sim_command_args_table_8hh.html" target="_top" xlink:title="Definition of the OMSimCommandArgsTable singleton class, which controls user args.">
<polygon fill="white" stroke="#666666" points="507.52,-195 343.52,-195 343.52,-176 507.52,-176 507.52,-195"/>
<text text-anchor="middle" x="425.52" y="-183" font-family="Helvetica,sans-Serif" font-size="10.00">OMSimCommandArgsTable.hh</text>
</a>
</g>
</g>
<!-- Node1&#45;&gt;Node12 -->
<g id="edge11_Node000001_Node000012" class="edge">
<title>Node1&#45;&gt;Node12</title>
<g id="a_edge11_Node000001_Node000012"><a xlink:title=" ">
<path fill="none" stroke="#63b8ff" d="M452.15,-285.66C447.43,-268.09 436.78,-228.45 430.48,-204.95"/>
<polygon fill="#63b8ff" stroke="#63b8ff" points="433.82,-203.91 427.85,-195.16 427.06,-205.72 433.82,-203.91"/>
</a>
</g>
</g>
<!-- Node21 -->
<g id="Node000021" class="node">
<title>Node21</title>
<g id="a_Node000021"><a xlink:href="_o_m_sim_tools_8hh.html" target="_top" xlink:title="Definition of Tools namespace, a collection of helper methods.">
<polygon fill="white" stroke="#666666" points="2085.52,-250 1993.52,-250 1993.52,-231 2085.52,-231 2085.52,-250"/>
<text text-anchor="middle" x="2039.52" y="-238" font-family="Helvetica,sans-Serif" font-size="10.00">OMSimTools.hh</text>
</a>
</g>
</g>
<!-- Node1&#45;&gt;Node21 -->
<g id="edge22_Node000001_Node000021" class="edge">
<title>Node1&#45;&gt;Node21</title>
<g id="a_edge22_Node000001_Node000021"><a xlink:title=" ">
<path fill="none" stroke="#63b8ff" d="M514.72,-292.49C767.11,-284.05 1738.24,-251.57 1983.17,-243.38"/>
<polygon fill="#63b8ff" stroke="#63b8ff" points="1983.4,-246.88 1993.27,-243.05 1983.16,-239.88 1983.4,-246.88"/>
</a>
</g>
</g>
<!-- Node3 -->
<g id="Node000003" class="node">
<title>Node3</title>
<g id="a_Node000003"><a xlink:title=" ">
<polygon fill="#e0e0e0" stroke="#999999" points="662.02,-140 589.02,-140 589.02,-121 662.02,-121 662.02,-140"/>
<text text-anchor="middle" x="625.52" y="-128" font-family="Helvetica,sans-Serif" font-size="10.00">G4Types.hh</text>
</a>
</g>
</g>
<!-- Node2&#45;&gt;Node3 -->
<g id="edge2_Node000002_Node000003" class="edge">
<title>Node2&#45;&gt;Node3</title>
<g id="a_edge2_Node000002_Node000003"><a xlink:title=" ">
<path fill="none" stroke="#63b8ff" d="M611.33,-175.75C613.58,-168.72 616.82,-158.62 619.64,-149.84"/>
<polygon fill="#63b8ff" stroke="#63b8ff" points="623.04,-150.68 622.77,-140.09 616.38,-148.54 623.04,-150.68"/>
</a>
</g>
</g>
<!-- Node4 -->
<g id="Node000004" class="node">
<title>Node4</title>
<g id="a_Node000004"><a xlink:title=" ">
<polygon fill="#e0e0e0" stroke="#999999" points="940.52,-140 866.52,-140 866.52,-121 940.52,-121 940.52,-140"/>
<text text-anchor="middle" x="903.52" y="-128" font-family="Helvetica,sans-Serif" font-size="10.00">G4String.hh</text>
</a>
</g>
</g>
<!-- Node2&#45;&gt;Node4 -->
<g id="edge3_Node000002_Node000004" class="edge">
<title>Node2&#45;&gt;Node4</title>
<g id="a_edge3_Node000002_Node000004"><a xlink:title=" ">
<path fill="none" stroke="#63b8ff" d="M656.74,-175.97C704.75,-167.46 780.85,-153.91 856.22,-140.23"/>
<polygon fill="#63b8ff" stroke="#63b8ff" points="857.15,-143.62 866.37,-138.38 855.9,-136.73 857.15,-143.62"/>
</a>
</g>
</g>
<!-- Node5 -->
<g id="Node000005" class="node">
<title>Node5</title>
<g id="a_Node000005"><a xlink:title=" ">
<polygon fill="#e0e0e0" stroke="#999999" points="848.02,-140 745.02,-140 745.02,-121 848.02,-121 848.02,-140"/>
<text text-anchor="middle" x="796.52" y="-128" font-family="Helvetica,sans-Serif" font-size="10.00">G4ThreeVector.hh</text>
</a>
</g>
</g>
<!-- Node2&#45;&gt;Node5 -->
<g id="edge4_Node000002_Node000005" class="edge">
<title>Node2&#45;&gt;Node5</title>
<g id="a_edge4_Node000002_Node000005"><a xlink:title=" ">
<path fill="none" stroke="#63b8ff" d="M638.73,-175.98C670.56,-167.01 720.88,-152.82 756.12,-142.89"/>
<polygon fill="#63b8ff" stroke="#63b8ff" points="757.4,-146.16 766.08,-140.08 755.5,-139.43 757.4,-146.16"/>
</a>
</g>
</g>
<!-- Node2&#45;&gt;Node6 -->
<g id="edge5_Node000002_Node000006" class="edge">
<title>Node2&#45;&gt;Node6</title>
<g id="a_edge5_Node000002_Node000006"><a xlink:title=" ">
<path fill="none" stroke="#63b8ff" d="M562.25,-175.98C511.91,-166.72 431.4,-151.9 377.28,-141.94"/>
<polygon fill="#63b8ff" stroke="#63b8ff" points="377.62,-138.45 367.16,-140.08 376.36,-145.33 377.62,-138.45"/>
</a>
</g>
</g>
<!-- Node7 -->
<g id="Node000007" class="node">
<title>Node7</title>
<g id="a_Node000007"><a xlink:title=" ">
<polygon fill="#e0e0e0" stroke="#999999" points="727.02,-140 680.02,-140 680.02,-121 727.02,-121 727.02,-140"/>
<text text-anchor="middle" x="703.52" y="-128" font-family="Helvetica,sans-Serif" font-size="10.00">vector</text>
</a>
</g>
</g>
<!-- Node2&#45;&gt;Node7 -->
<g id="edge6_Node000002_Node000007" class="edge">
<title>Node2&#45;&gt;Node7</title>
<g id="a_edge6_Node000002_Node000007"><a xlink:title=" ">
<path fill="none" stroke="#63b8ff" d="M623.78,-175.98C638.65,-167.69 661.5,-154.94 678.94,-145.22"/>
<polygon fill="#63b8ff" stroke="#63b8ff" points="680.95,-148.1 687.98,-140.17 677.54,-141.99 680.95,-148.1"/>
</a>
</g>
</g>
<!-- Node8 -->
<g id="Node000008" class="node">
<title>Node8</title>
<g id="a_Node000008"><a xlink:title=" ">
<polygon fill="#e0e0e0" stroke="#999999" points="571.02,-140 516.02,-140 516.02,-121 571.02,-121 571.02,-140"/>
<text text-anchor="middle" x="543.52" y="-128" font-family="Helvetica,sans-Serif" font-size="10.00">fstream</text>
</a>
</g>
</g>
<!-- Node2&#45;&gt;Node8 -->
<g id="edge7_Node000002_Node000008" class="edge">
<title>Node2&#45;&gt;Node8</title>
<g id="a_edge7_Node000002_Node000008"><a xlink:title=" ">
<path fill="none" stroke="#63b8ff" d="M598.08,-175.98C588.37,-168.07 573.71,-156.11 562.02,-146.58"/>
<polygon fill="#63b8ff" stroke="#63b8ff" points="564.12,-143.78 554.15,-140.17 559.69,-149.2 564.12,-143.78"/>
</a>
</g>
</g>
<!-- Node9 -->
<g id="Node000009" class="node">
<title>Node9</title>
<g id="a_Node000009"><a xlink:title=" ">
<polygon fill="#e0e0e0" stroke="#999999" points="498.02,-140 457.02,-140 457.02,-121 498.02,-121 498.02,-140"/>
<text text-anchor="middle" x="477.52" y="-128" font-family="Helvetica,sans-Serif" font-size="10.00">tuple</text>
</a>
</g>
</g>
<!-- Node2&#45;&gt;Node9 -->
<g id="edge8_Node000002_Node000009" class="edge">
<title>Node2&#45;&gt;Node9</title>
<g id="a_edge8_Node000002_Node000009"><a xlink:title=" ">
<path fill="none" stroke="#63b8ff" d="M587.47,-175.98C565.86,-167.24 532.02,-153.55 507.59,-143.67"/>
<polygon fill="#63b8ff" stroke="#63b8ff" points="508.67,-140.33 498.08,-139.82 506.04,-146.81 508.67,-140.33"/>
</a>
</g>
</g>
<!-- Node12&#45;&gt;Node8 -->
<g id="edge17_Node000012_Node000008" class="edge">
<title>Node12&#45;&gt;Node8</title>
<g id="a_edge17_Node000012_Node000008"><a xlink:title=" ">
<path fill="none" stroke="#63b8ff" d="M444.48,-175.98C463.55,-167.42 493.18,-154.11 515.07,-144.28"/>
<polygon fill="#63b8ff" stroke="#63b8ff" points="516.53,-147.46 524.22,-140.17 513.66,-141.07 516.53,-147.46"/>
</a>
</g>
</g>
<!-- Node13 -->
<g id="Node000013" class="node">
<title>Node13</title>
<g id="a_Node000013"><a xlink:href="_o_m_sim_logger_8hh_source.html" target="_top" xlink:title=" ">
<polygon fill="white" stroke="#666666" points="2078.02,-85 1979.02,-85 1979.02,-66 2078.02,-66 2078.02,-85"/>
<text text-anchor="middle" x="2028.52" y="-73" font-family="Helvetica,sans-Serif" font-size="10.00">OMSimLogger.hh</text>
</a>
</g>
</g>
<!-- Node12&#45;&gt;Node13 -->
<g id="edge12_Node000012_Node000013" class="edge">
<title>Node12&#45;&gt;Node13</title>
<g id="a_edge12_Node000012_Node000013"><a xlink:title=" ">
<path fill="none" stroke="#63b8ff" d="M343.4,-178.9C282.44,-171.85 215.33,-156.06 249.52,-121 257.2,-113.13 1659.71,-84.03 1968.75,-77.72"/>
<polygon fill="#63b8ff" stroke="#63b8ff" points="1968.92,-81.21 1978.85,-77.51 1968.78,-74.21 1968.92,-81.21"/>
</a>
</g>
</g>
<!-- Node18 -->
<g id="Node000018" class="node">
<title>Node18</title>
<g id="a_Node000018"><a xlink:title=" ">
<polygon fill="#e0e0e0" stroke="#999999" points="202.52,-140 118.52,-140 118.52,-121 202.52,-121 202.52,-140"/>
<text text-anchor="middle" x="160.52" y="-128" font-family="Helvetica,sans-Serif" font-size="10.00">boost/any.hpp</text>
</a>
</g>
</g>
<!-- Node12&#45;&gt;Node18 -->
<g id="edge18_Node000012_Node000018" class="edge">
<title>Node12&#45;&gt;Node18</title>
<g id="a_edge18_Node000012_Node000018"><a xlink:title=" ">
<path fill="none" stroke="#63b8ff" d="M382.94,-175.98C336.54,-166.7 262.28,-151.85 212.48,-141.89"/>
<polygon fill="#63b8ff" stroke="#63b8ff" points="213.05,-138.44 202.55,-139.91 211.67,-145.3 213.05,-138.44"/>
</a>
</g>
</g>
<!-- Node19 -->
<g id="Node000019" class="node">
<title>Node19</title>
<g id="a_Node000019"><a xlink:title=" ">
<polygon fill="#e0e0e0" stroke="#999999" points="100.52,-140 32.52,-140 32.52,-121 100.52,-121 100.52,-140"/>
<text text-anchor="middle" x="66.52" y="-128" font-family="Helvetica,sans-Serif" font-size="10.00">sys/time.h</text>
</a>
</g>
</g>
<!-- Node12&#45;&gt;Node19 -->
<g id="edge19_Node000012_Node000019" class="edge">
<title>Node12&#45;&gt;Node19</title>
<g id="a_edge19_Node000012_Node000019"><a xlink:title=" ">
<path fill="none" stroke="#63b8ff" d="M357.24,-175.99C295.38,-168.03 201.49,-155.32 110.67,-140.12"/>
<polygon fill="#63b8ff" stroke="#63b8ff" points="111.2,-136.66 100.76,-138.44 110.04,-143.56 111.2,-136.66"/>
</a>
</g>
</g>
<!-- Node20 -->
<g id="Node000020" class="node">
<title>Node20</title>
<g id="a_Node000020"><a xlink:title=" ">
<polygon fill="#e0e0e0" stroke="#999999" points="438.52,-140 400.52,-140 400.52,-121 438.52,-121 438.52,-140"/>
<text text-anchor="middle" x="419.52" y="-128" font-family="Helvetica,sans-Serif" font-size="10.00">map</text>
</a>
</g>
</g>
<!-- Node12&#45;&gt;Node20 -->
<g id="edge20_Node000012_Node000020" class="edge">
<title>Node12&#45;&gt;Node20</title>
<g id="a_edge20_Node000012_Node000020"><a xlink:title=" ">
<path fill="none" stroke="#63b8ff" d="M424.53,-175.75C423.74,-168.8 422.62,-158.85 421.63,-150.13"/>
<polygon fill="#63b8ff" stroke="#63b8ff" points="425.1,-149.63 420.49,-140.09 418.14,-150.42 425.1,-149.63"/>
</a>
</g>
</g>
<!-- Node14 -->
<g id="Node000014" class="node">
<title>Node14</title>
<g id="a_Node000014"><a xlink:title=" ">
<polygon fill="#e0e0e0" stroke="#999999" points="1955.02,-24.5 1862.02,-24.5 1862.02,-5.5 1955.02,-5.5 1955.02,-24.5"/>
<text text-anchor="middle" x="1908.52" y="-12.5" font-family="Helvetica,sans-Serif" font-size="10.00">spdlog/spdlog.h</text>
</a>
</g>
</g>
<!-- Node13&#45;&gt;Node14 -->
<g id="edge13_Node000013_Node000014" class="edge">
<title>Node13&#45;&gt;Node14</title>
<g id="a_edge13_Node000013_Node000014"><a xlink:title=" ">
<path fill="none" stroke="#63b8ff" d="M2011.07,-65.99C1991.16,-56.29 1958.38,-40.31 1935.25,-29.03"/>
<polygon fill="#63b8ff" stroke="#63b8ff" points="1936.51,-25.75 1925.99,-24.52 1933.45,-32.04 1936.51,-25.75"/>
</a>
</g>
</g>
<!-- Node15 -->
<g id="Node000015" class="node">
<title>Node15</title>
<g id="a_Node000015"><a xlink:title=" ">
<polygon fill="#e0e0e0" stroke="#999999" points="2084.02,-30 1973.02,-30 1973.02,0 2084.02,0 2084.02,-30"/>
<text text-anchor="start" x="1981.02" y="-18" font-family="Helvetica,sans-Serif" font-size="10.00">spdlog/sinks/stdout</text>
<text text-anchor="middle" x="2028.52" y="-7" font-family="Helvetica,sans-Serif" font-size="10.00">_color_sinks.h</text>
</a>
</g>
</g>
<!-- Node13&#45;&gt;Node15 -->
<g id="edge14_Node000013_Node000015" class="edge">
<title>Node13&#45;&gt;Node15</title>
<g id="a_edge14_Node000013_Node000015"><a xlink:title=" ">
<path fill="none" stroke="#63b8ff" d="M2028.52,-65.87C2028.52,-59.11 2028.52,-49.35 2028.52,-40.26"/>
<polygon fill="#63b8ff" stroke="#63b8ff" points="2032.02,-40.11 2028.52,-30.11 2025.02,-40.11 2032.02,-40.11"/>
</a>
</g>
</g>
<!-- Node16 -->
<g id="Node000016" class="node">
<title>Node16</title>
<g id="a_Node000016"><a xlink:title=" ">
<polygon fill="#e0e0e0" stroke="#999999" points="1279.52,-24.5 1221.52,-24.5 1221.52,-5.5 1279.52,-5.5 1279.52,-24.5"/>
<text text-anchor="middle" x="1250.52" y="-12.5" font-family="Helvetica,sans-Serif" font-size="10.00">memory</text>
</a>
</g>
</g>
<!-- Node13&#45;&gt;Node16 -->
<g id="edge15_Node000013_Node000016" class="edge">
<title>Node13&#45;&gt;Node16</title>
<g id="a_edge15_Node000013_Node000016"><a xlink:title=" ">
<path fill="none" stroke="#63b8ff" d="M1978.97,-70.77C1835.24,-59.97 1420.17,-28.76 1290.03,-18.97"/>
<polygon fill="#63b8ff" stroke="#63b8ff" points="1289.98,-15.46 1279.75,-18.2 1289.46,-22.44 1289.98,-15.46"/>
</a>
</g>
</g>
<!-- Node17 -->
<g id="Node000017" class="node">
<title>Node17</title>
<g id="a_Node000017"><a xlink:title=" ">
<polygon fill="#e0e0e0" stroke="#999999" points="2200.52,-24.5 2102.52,-24.5 2102.52,-5.5 2200.52,-5.5 2200.52,-24.5"/>
<text text-anchor="middle" x="2151.52" y="-12.5" font-family="Helvetica,sans-Serif" font-size="10.00">spdlog/fmt/fmt.h</text>
</a>
</g>
</g>
<!-- Node13&#45;&gt;Node17 -->
<g id="edge16_Node000013_Node000017" class="edge">
<title>Node13&#45;&gt;Node17</title>
<g id="a_edge16_Node000013_Node000017"><a xlink:title=" ">
<path fill="none" stroke="#63b8ff" d="M2046.41,-65.99C2066.9,-56.25 2100.71,-40.16 2124.44,-28.88"/>
<polygon fill="#63b8ff" stroke="#63b8ff" points="2126.09,-31.97 2133.61,-24.52 2123.08,-25.65 2126.09,-31.97"/>
</a>
</g>
</g>
<!-- Node21&#45;&gt;Node5 -->
<g id="edge40_Node000021_Node000005" class="edge">
<title>Node21&#45;&gt;Node5</title>
<g id="a_edge40_Node000021_Node000005"><a xlink:title=" ">
<path fill="none" stroke="#63b8ff" d="M1993.12,-238.27C1872.16,-234.72 1549.42,-222.83 1446.52,-195 1427.91,-189.97 1426.16,-180.94 1407.52,-176 1173.98,-114.04 1103.15,-163.53 858.35,-139.98"/>
<polygon fill="#63b8ff" stroke="#63b8ff" points="858.37,-136.46 848.07,-138.95 857.68,-143.43 858.37,-136.46"/>
</a>
</g>
</g>
<!-- Node21&#45;&gt;Node12 -->
<g id="edge33_Node000021_Node000012" class="edge">
<title>Node21&#45;&gt;Node12</title>
<g id="a_edge33_Node000021_Node000012"><a xlink:title=" ">
<path fill="none" stroke="#63b8ff" d="M1993.43,-238.9C1809.72,-236.33 1111.94,-225.05 538.52,-195 531.79,-194.65 524.83,-194.24 517.84,-193.79"/>
<polygon fill="#63b8ff" stroke="#63b8ff" points="517.79,-190.28 507.58,-193.11 517.33,-197.26 517.79,-190.28"/>
</a>
</g>
</g>
<!-- Node21&#45;&gt;Node13 -->
<g id="edge23_Node000021_Node000013" class="edge">
<title>Node21&#45;&gt;Node13</title>
<g id="a_edge23_Node000021_Node000013"><a xlink:title=" ">
<path fill="none" stroke="#63b8ff" d="M2039.53,-231C2040.05,-217.18 2043.21,-190.01 2059.52,-176 2139.9,-106.94 2359.92,-201.94 2291.52,-121 2266.04,-90.85 2157.84,-81.12 2088.41,-77.99"/>
<polygon fill="#63b8ff" stroke="#63b8ff" points="2088.18,-74.47 2078.04,-77.55 2087.89,-81.47 2088.18,-74.47"/>
</a>
</g>
</g>
<!-- Node22 -->
<g id="Node000022" class="node">
<title>Node22</title>
<g id="a_Node000022"><a xlink:href="_o_m_sim_detector_component_8hh.html" target="_top" xlink:title="Provides helper base class OMSimDetectorComponent for constructing and managing detector components i...">
<polygon fill="white" stroke="#666666" points="2812.02,-195 2647.02,-195 2647.02,-176 2812.02,-176 2812.02,-195"/>
<text text-anchor="middle" x="2729.52" y="-183" font-family="Helvetica,sans-Serif" font-size="10.00">OMSimDetectorComponent.hh</text>
</a>
</g>
</g>
<!-- Node21&#45;&gt;Node22 -->
<g id="edge24_Node000021_Node000022" class="edge">
<title>Node21&#45;&gt;Node22</title>
<g id="a_edge24_Node000021_Node000022"><a xlink:title=" ">
<path fill="none" stroke="#63b8ff" d="M2085.6,-235.96C2197.84,-227.34 2487.18,-205.11 2636.82,-193.62"/>
<polygon fill="#63b8ff" stroke="#63b8ff" points="2637.21,-197.1 2646.91,-192.85 2636.67,-190.12 2637.21,-197.1"/>
</a>
</g>
</g>
<!-- Node37 -->
<g id="Node000037" class="node">
<title>Node37</title>
<g id="a_Node000037"><a xlink:title=" ">
<polygon fill="#e0e0e0" stroke="#999999" points="2011.02,-195 1874.02,-195 1874.02,-176 2011.02,-176 2011.02,-195"/>
<text text-anchor="middle" x="1942.52" y="-183" font-family="Helvetica,sans-Serif" font-size="10.00">G4LogicalSkinSurface.hh</text>
</a>
</g>
</g>
<!-- Node21&#45;&gt;Node37 -->
<g id="edge34_Node000021_Node000037" class="edge">
<title>Node21&#45;&gt;Node37</title>
<g id="a_edge34_Node000021_Node000037"><a xlink:title=" ">
<path fill="none" stroke="#63b8ff" d="M2023.94,-230.98C2008.75,-222.69 1985.42,-209.94 1967.62,-200.22"/>
<polygon fill="#63b8ff" stroke="#63b8ff" points="1968.84,-196.89 1958.39,-195.17 1965.49,-203.04 1968.84,-196.89"/>
</a>
</g>
</g>
<!-- Node38 -->
<g id="Node000038" class="node">
<title>Node38</title>
<g id="a_Node000038"><a xlink:title=" ">
<polygon fill="#e0e0e0" stroke="#999999" points="2282.02,-140 2215.02,-140 2215.02,-121 2282.02,-121 2282.02,-140"/>
<text text-anchor="middle" x="2248.52" y="-128" font-family="Helvetica,sans-Serif" font-size="10.00">globals.hh</text>
</a>
</g>
</g>
<!-- Node21&#45;&gt;Node38 -->
<g id="edge35_Node000021_Node000038" class="edge">
<title>Node21&#45;&gt;Node38</title>
<g id="a_edge35_Node000021_Node000038"><a xlink:title=" ">
<path fill="none" stroke="#63b8ff" d="M1993.44,-237.48C1929.69,-233.1 1826.59,-219.27 1865.52,-176 1914.4,-121.67 2114.33,-149.08 2204.58,-139.76"/>
<polygon fill="#63b8ff" stroke="#63b8ff" points="2205.29,-143.19 2214.77,-138.47 2204.41,-136.25 2205.29,-143.19"/>
</a>
</g>
</g>
<!-- Node39 -->
<g id="Node000039" class="node">
<title>Node39</title>
<g id="a_Node000039"><a xlink:title=" ">
<polygon fill="#e0e0e0" stroke="#999999" points="2129.02,-195 2068.02,-195 2068.02,-176 2129.02,-176 2129.02,-195"/>
<text text-anchor="middle" x="2098.52" y="-183" font-family="Helvetica,sans-Serif" font-size="10.00">TGraph.h</text>
</a>
</g>
</g>
<!-- Node21&#45;&gt;Node39 -->
<g id="edge36_Node000021_Node000039" class="edge">
<title>Node21&#45;&gt;Node39</title>
<g id="a_edge36_Node000021_Node000039"><a xlink:title=" ">
<path fill="none" stroke="#63b8ff" d="M2049,-230.98C2057.72,-223.15 2070.86,-211.34 2081.42,-201.86"/>
<polygon fill="#63b8ff" stroke="#63b8ff" points="2083.77,-204.46 2088.87,-195.17 2079.09,-199.25 2083.77,-204.46"/>
</a>
</g>
</g>
<!-- Node40 -->
<g id="Node000040" class="node">
<title>Node40</title>
<g id="a_Node000040"><a xlink:title=" ">
<polygon fill="#e0e0e0" stroke="#999999" points="2200.02,-195 2147.02,-195 2147.02,-176 2200.02,-176 2200.02,-195"/>
<text text-anchor="middle" x="2173.52" y="-183" font-family="Helvetica,sans-Serif" font-size="10.00">TH2D.h</text>
</a>
</g>
</g>
<!-- Node21&#45;&gt;Node40 -->
<g id="edge37_Node000021_Node000040" class="edge">
<title>Node21&#45;&gt;Node40</title>
<g id="a_edge37_Node000021_Node000040"><a xlink:title=" ">
<path fill="none" stroke="#63b8ff" d="M2061.05,-230.98C2083,-222.3 2117.26,-208.75 2142.21,-198.88"/>
<polygon fill="#63b8ff" stroke="#63b8ff" points="2143.59,-202.1 2151.6,-195.17 2141.01,-195.59 2143.59,-202.1"/>
</a>
</g>
</g>
<!-- Node41 -->
<g id="Node000041" class="node">
<title>Node41</title>
<g id="a_Node000041"><a xlink:title=" ">
<polygon fill="#e0e0e0" stroke="#999999" points="2269.02,-195 2218.02,-195 2218.02,-176 2269.02,-176 2269.02,-195"/>
<text text-anchor="middle" x="2243.52" y="-183" font-family="Helvetica,sans-Serif" font-size="10.00">variant</text>
</a>
</g>
</g>
<!-- Node21&#45;&gt;Node41 -->
<g id="edge38_Node000021_Node000041" class="edge">
<title>Node21&#45;&gt;Node41</title>
<g id="a_edge38_Node000021_Node000041"><a xlink:title=" ">
<path fill="none" stroke="#63b8ff" d="M2072.3,-230.98C2109.52,-221.31 2170.02,-205.6 2208.25,-195.66"/>
<polygon fill="#63b8ff" stroke="#63b8ff" points="2209.13,-199.05 2217.93,-193.15 2207.37,-192.28 2209.13,-199.05"/>
</a>
</g>
</g>
<!-- Node42 -->
<g id="Node000042" class="node">
<title>Node42</title>
<g id="a_Node000042"><a xlink:title=" ">
<polygon fill="#e0e0e0" stroke="#999999" points="2343.52,-195 2287.52,-195 2287.52,-176 2343.52,-176 2343.52,-195"/>
<text text-anchor="middle" x="2315.52" y="-183" font-family="Helvetica,sans-Serif" font-size="10.00">optional</text>
</a>
</g>
</g>
<!-- Node21&#45;&gt;Node42 -->
<g id="edge39_Node000021_Node000042" class="edge">
<title>Node21&#45;&gt;Node42</title>
<g id="a_edge39_Node000021_Node000042"><a xlink:title=" ">
<path fill="none" stroke="#63b8ff" d="M2085.9,-231.46C2131.97,-223.33 2204.87,-210.13 2277.08,-195.23"/>
<polygon fill="#63b8ff" stroke="#63b8ff" points="2278.19,-198.58 2287.27,-193.12 2276.76,-191.72 2278.19,-198.58"/>
</a>
</g>
</g>
<!-- Node43 -->
<g id="Node000043" class="node">
<title>Node43</title>
<g id="a_Node000043"><a xlink:title=" ">
<polygon fill="#e0e0e0" stroke="#999999" points="2479.52,-195 2361.52,-195 2361.52,-176 2479.52,-176 2479.52,-195"/>
<text text-anchor="middle" x="2420.52" y="-183" font-family="Helvetica,sans-Serif" font-size="10.00">G4RotationMatrix.hh</text>
</a>
</g>
</g>
<!-- Node21&#45;&gt;Node43 -->
<g id="edge41_Node000021_Node000043" class="edge">
<title>Node21&#45;&gt;Node43</title>
<g id="a_edge41_Node000021_Node000043"><a xlink:title=" ">
<path fill="none" stroke="#63b8ff" d="M2085.86,-233.05C2152.1,-223.84 2274.33,-206.84 2351.32,-196.13"/>
<polygon fill="#63b8ff" stroke="#63b8ff" points="2351.98,-199.57 2361.41,-194.72 2351.02,-192.63 2351.98,-199.57"/>
</a>
</g>
</g>
<!-- Node44 -->
<g id="Node000044" class="node">
<title>Node44</title>
<g id="a_Node000044"><a xlink:title=" ">
<polygon fill="#e0e0e0" stroke="#999999" points="2454.52,-140 2338.52,-140 2338.52,-121 2454.52,-121 2454.52,-140"/>
<text text-anchor="middle" x="2396.52" y="-128" font-family="Helvetica,sans-Serif" font-size="10.00">G4LogicalVolume.hh</text>
</a>
</g>
</g>
<!-- Node21&#45;&gt;Node44 -->
<g id="edge42_Node000021_Node000044" class="edge">
<title>Node21&#45;&gt;Node44</title>
<g id="a_edge42_Node000021_Node000044"><a xlink:title=" ">
<path fill="none" stroke="#63b8ff" d="M2085.86,-238.36C2195.14,-235.18 2461.83,-224.46 2488.52,-195 2508.56,-172.88 2471.31,-154.41 2438.37,-143.2"/>
<polygon fill="#63b8ff" stroke="#63b8ff" points="2439.4,-139.85 2428.8,-140.09 2437.24,-146.51 2439.4,-139.85"/>
</a>
</g>
</g>
<!-- Node45 -->
<g id="Node000045" class="node">
<title>Node45</title>
<g id="a_Node000045"><a xlink:href="_c_a_d_mesh_8hh_source.html" target="_top" xlink:title=" ">
<polygon fill="white" stroke="#666666" points="1534.02,-195 1455.02,-195 1455.02,-176 1534.02,-176 1534.02,-195"/>
<text text-anchor="middle" x="1494.52" y="-183" font-family="Helvetica,sans-Serif" font-size="10.00">CADMesh.hh</text>
</a>
</g>
</g>
<!-- Node21&#45;&gt;Node45 -->
<g id="edge43_Node000021_Node000045" class="edge">
<title>Node21&#45;&gt;Node45</title>
<g id="a_edge43_Node000021_Node000045"><a xlink:title=" ">
<path fill="none" stroke="#63b8ff" d="M1993.05,-234.98C1891.16,-225.07 1648.86,-201.51 1544.14,-191.33"/>
<polygon fill="#63b8ff" stroke="#63b8ff" points="1544.44,-187.84 1534.15,-190.35 1543.76,-194.81 1544.44,-187.84"/>
</a>
</g>
</g>
<!-- Node58 -->
<g id="Node000058" class="node">
<title>Node58</title>
<g id="a_Node000058"><a xlink:title=" ">
<polygon fill="#e0e0e0" stroke="#999999" points="1398.52,-195 1300.52,-195 1300.52,-176 1398.52,-176 1398.52,-195"/>
<text text-anchor="middle" x="1349.52" y="-183" font-family="Helvetica,sans-Serif" font-size="10.00">G4MultiUnion.hh</text>
</a>
</g>
</g>
<!-- Node21&#45;&gt;Node58 -->
<g id="edge64_Node000021_Node000058" class="edge">
<title>Node21&#45;&gt;Node58</title>
<g id="a_edge64_Node000021_Node000058"><a xlink:title=" ">
<path fill="none" stroke="#63b8ff" d="M1993.42,-237.23C1889.55,-231.89 1629.36,-217.3 1412.52,-195 1411.25,-194.87 1409.98,-194.73 1408.69,-194.59"/>
<polygon fill="#63b8ff" stroke="#63b8ff" points="1409,-191.11 1398.67,-193.44 1408.2,-198.06 1409,-191.11"/>
</a>
</g>
</g>
<!-- Node23 -->
<g id="Node000023" class="node">
<title>Node23</title>
<g id="a_Node000023"><a xlink:href="_o_m_sim_input_data_8hh.html" target="_top" xlink:title="Definition of ParameterTable and OMSimInputData.">
<polygon fill="#fff0f0" stroke="red" points="2986.02,-140 2871.02,-140 2871.02,-121 2986.02,-121 2986.02,-140"/>
<text text-anchor="middle" x="2928.52" y="-128" font-family="Helvetica,sans-Serif" font-size="10.00">OMSimInputData.hh</text>
</a>
</g>
</g>
<!-- Node22&#45;&gt;Node23 -->
<g id="edge25_Node000022_Node000023" class="edge">
<title>Node22&#45;&gt;Node23</title>
<g id="a_edge25_Node000022_Node000023"><a xlink:title=" ">
<path fill="none" stroke="#63b8ff" d="M2761.49,-175.98C2795.34,-166.97 2848.92,-152.7 2886.23,-142.76"/>
<polygon fill="#63b8ff" stroke="#63b8ff" points="2887.54,-146.04 2896.3,-140.08 2885.73,-139.27 2887.54,-146.04"/>
</a>
</g>
</g>
<!-- Node33 -->
<g id="Node000033" class="node">
<title>Node33</title>
<g id="a_Node000033"><a xlink:title=" ">
<polygon fill="#e0e0e0" stroke="#999999" points="3111.02,-140 3004.02,-140 3004.02,-121 3111.02,-121 3111.02,-140"/>
<text text-anchor="middle" x="3057.52" y="-128" font-family="Helvetica,sans-Serif" font-size="10.00">G4Transform3D.hh</text>
</a>
</g>
</g>
<!-- Node22&#45;&gt;Node33 -->
<g id="edge29_Node000022_Node000033" class="edge">
<title>Node22&#45;&gt;Node33</title>
<g id="a_edge29_Node000022_Node000033"><a xlink:title=" ">
<path fill="none" stroke="#63b8ff" d="M2782.22,-175.98C2840.11,-166.63 2933.05,-151.61 2994.69,-141.65"/>
<polygon fill="#63b8ff" stroke="#63b8ff" points="2995.37,-145.09 3004.68,-140.04 2994.25,-138.18 2995.37,-145.09"/>
</a>
</g>
</g>
<!-- Node34 -->
<g id="Node000034" class="node">
<title>Node34</title>
<g id="a_Node000034"><a xlink:title=" ">
<polygon fill="#e0e0e0" stroke="#999999" points="2580.52,-140 2472.52,-140 2472.52,-121 2580.52,-121 2580.52,-140"/>
<text text-anchor="middle" x="2526.52" y="-128" font-family="Helvetica,sans-Serif" font-size="10.00">G4VisAttributes.hh</text>
</a>
</g>
</g>
<!-- Node22&#45;&gt;Node34 -->
<g id="edge30_Node000022_Node000034" class="edge">
<title>Node22&#45;&gt;Node34</title>
<g id="a_edge30_Node000022_Node000034"><a xlink:title=" ">
<path fill="none" stroke="#63b8ff" d="M2696.91,-175.98C2662.23,-166.93 2607.26,-152.58 2569.17,-142.64"/>
<polygon fill="#63b8ff" stroke="#63b8ff" points="2569.95,-139.22 2559.39,-140.08 2568.18,-145.99 2569.95,-139.22"/>
</a>
</g>
</g>
<!-- Node35 -->
<g id="Node000035" class="node">
<title>Node35</title>
<g id="a_Node000035"><a xlink:title=" ">
<polygon fill="#e0e0e0" stroke="#999999" points="2724.02,-140 2599.02,-140 2599.02,-121 2724.02,-121 2724.02,-140"/>
<text text-anchor="middle" x="2661.52" y="-128" font-family="Helvetica,sans-Serif" font-size="10.00">G4SubtractionSolid.hh</text>
</a>
</g>
</g>
<!-- Node22&#45;&gt;Node35 -->
<g id="edge31_Node000022_Node000035" class="edge">
<title>Node22&#45;&gt;Node35</title>
<g id="a_edge31_Node000022_Node000035"><a xlink:title=" ">
<path fill="none" stroke="#63b8ff" d="M2718.6,-175.98C2708.44,-168.07 2693.1,-156.11 2680.87,-146.58"/>
<polygon fill="#63b8ff" stroke="#63b8ff" points="2682.68,-143.56 2672.64,-140.17 2678.38,-149.08 2682.68,-143.56"/>
</a>
</g>
</g>
<!-- Node36 -->
<g id="Node000036" class="node">
<title>Node36</title>
<g id="a_Node000036"><a xlink:title=" ">
<polygon fill="#e0e0e0" stroke="#999999" points="2852.52,-140 2742.52,-140 2742.52,-121 2852.52,-121 2852.52,-140"/>
<text text-anchor="middle" x="2797.52" y="-128" font-family="Helvetica,sans-Serif" font-size="10.00">G4PVPlacement.hh</text>
</a>
</g>
</g>
<!-- Node22&#45;&gt;Node36 -->
<g id="edge32_Node000022_Node000036" class="edge">
<title>Node22&#45;&gt;Node36</title>
<g id="a_edge32_Node000022_Node000036"><a xlink:title=" ">
<path fill="none" stroke="#63b8ff" d="M2740.45,-175.98C2750.6,-168.07 2765.94,-156.11 2778.17,-146.58"/>
<polygon fill="#63b8ff" stroke="#63b8ff" points="2780.66,-149.08 2786.4,-140.17 2776.36,-143.56 2780.66,-149.08"/>
</a>
</g>
</g>
<!-- Node23&#45;&gt;Node10 -->
<g id="edge28_Node000023_Node000010" class="edge">
<title>Node23&#45;&gt;Node10</title>
<g id="a_edge28_Node000023_Node000010"><a xlink:title=" ">
<path fill="none" stroke="#63b8ff" d="M2870.81,-121.83C2867.67,-121.52 2864.56,-121.24 2861.52,-121 2602.46,-100.44 1793.04,-82.83 1549.52,-77.88"/>
<polygon fill="#63b8ff" stroke="#63b8ff" points="1549.45,-74.38 1539.38,-77.68 1549.31,-81.38 1549.45,-74.38"/>
</a>
</g>
</g>
<!-- Node23&#45;&gt;Node13 -->
<g id="edge26_Node000023_Node000013" class="edge">
<title>Node23&#45;&gt;Node13</title>
<g id="a_edge26_Node000023_Node000013"><a xlink:title=" ">
<path fill="none" stroke="#63b8ff" d="M2870.81,-121.91C2867.67,-121.58 2864.56,-121.27 2861.52,-121 2572.63,-94.99 2225.91,-82.44 2088.67,-78.21"/>
<polygon fill="#63b8ff" stroke="#63b8ff" points="2088.48,-74.7 2078.37,-77.9 2088.26,-81.7 2088.48,-74.7"/>
</a>
</g>
</g>
<!-- Node24 -->
<g id="Node000024" class="node">
<title>Node24</title>
<g id="a_Node000024"><a xlink:href="_o_m_sim_op_boundary_process_8hh_source.html" target="_top" xlink:title=" ">
<polygon fill="#fff0f0" stroke="red" points="3010.52,-85 2846.52,-85 2846.52,-66 3010.52,-66 3010.52,-85"/>
<text text-anchor="middle" x="2928.52" y="-73" font-family="Helvetica,sans-Serif" font-size="10.00">OMSimOpBoundaryProcess.hh</text>
</a>
</g>
</g>
<!-- Node23&#45;&gt;Node24 -->
<g id="edge27_Node000023_Node000024" class="edge">
<title>Node23&#45;&gt;Node24</title>
<g id="a_edge27_Node000023_Node000024"><a xlink:title=" ">
<path fill="none" stroke="#63b8ff" d="M2928.52,-120.75C2928.52,-113.8 2928.52,-103.85 2928.52,-95.13"/>
<polygon fill="#63b8ff" stroke="#63b8ff" points="2932.02,-95.09 2928.52,-85.09 2925.02,-95.09 2932.02,-95.09"/>
</a>
</g>
</g>
<!-- Node45&#45;&gt;Node4 -->
<g id="edge44_Node000045_Node000004" class="edge">
<title>Node45&#45;&gt;Node4</title>
<g id="a_edge44_Node000045_Node000004"><a xlink:title=" ">
<path fill="none" stroke="#63b8ff" d="M1454.76,-177.86C1449.97,-177.17 1445.14,-176.53 1440.52,-176 1225.36,-151.14 1169.57,-165.83 954.52,-140 953.27,-139.85 952,-139.69 950.72,-139.52"/>
<polygon fill="#63b8ff" stroke="#63b8ff" points="951.18,-136.05 940.79,-138.11 950.2,-142.98 951.18,-136.05"/>
</a>
</g>
</g>
<!-- Node45&#45;&gt;Node5 -->
<g id="edge47_Node000045_Node000005" class="edge">
<title>Node45&#45;&gt;Node5</title>
<g id="a_edge47_Node000045_Node000005"><a xlink:title=" ">
<path fill="none" stroke="#63b8ff" d="M1454.77,-177.81C1449.98,-177.13 1445.14,-176.51 1440.52,-176 1185.73,-148.14 1117.55,-165.48 858.17,-139.97"/>
<polygon fill="#63b8ff" stroke="#63b8ff" points="858.37,-136.47 848.07,-138.97 857.68,-143.44 858.37,-136.47"/>
</a>
</g>
</g>
<!-- Node45&#45;&gt;Node7 -->
<g id="edge50_Node000045_Node000007" class="edge">
<title>Node45&#45;&gt;Node7</title>
<g id="a_edge50_Node000045_Node000007"><a xlink:title=" ">
<path fill="none" stroke="#63b8ff" d="M1454.71,-180.24C1439.9,-178.75 1422.96,-177.17 1407.52,-176 1113.06,-153.73 1033.47,-184.76 737.37,-139.76"/>
<polygon fill="#63b8ff" stroke="#63b8ff" points="737.61,-136.26 727.2,-138.2 736.55,-143.18 737.61,-136.26"/>
</a>
</g>
</g>
<!-- Node45&#45;&gt;Node8 -->
<g id="edge60_Node000045_Node000008" class="edge">
<title>Node45&#45;&gt;Node8</title>
<g id="a_edge60_Node000045_Node000008"><a xlink:title=" ">
<path fill="none" stroke="#63b8ff" d="M1454.71,-180.16C1439.91,-178.66 1422.96,-177.09 1407.52,-176 1043.84,-150.34 946.84,-188.69 581.36,-139.81"/>
<polygon fill="#63b8ff" stroke="#63b8ff" points="581.68,-136.32 571.3,-138.45 580.74,-143.26 581.68,-136.32"/>
</a>
</g>
</g>
<!-- Node45&#45;&gt;Node16 -->
<g id="edge49_Node000045_Node000016" class="edge">
<title>Node45&#45;&gt;Node16</title>
<g id="a_edge49_Node000045_Node000016"><a xlink:title=" ">
<path fill="none" stroke="#63b8ff" d="M1454.76,-177.89C1449.97,-177.19 1445.14,-176.55 1440.52,-176 1390.38,-170.07 1021.78,-177.09 987.52,-140 918.25,-65 1122.57,-31.11 1211.44,-20.19"/>
<polygon fill="#63b8ff" stroke="#63b8ff" points="1211.91,-23.65 1221.42,-19 1211.08,-16.7 1211.91,-23.65"/>
</a>
</g>
</g>
<!-- Node45&#45;&gt;Node20 -->
<g id="edge46_Node000045_Node000020" class="edge">
<title>Node45&#45;&gt;Node20</title>
<g id="a_edge46_Node000045_Node000020"><a xlink:title=" ">
<path fill="none" stroke="#63b8ff" d="M1454.72,-180.11C1439.91,-178.6 1422.97,-177.04 1407.52,-176 981.97,-147.25 869.51,-208.51 448.52,-140 448.42,-139.98 448.32,-139.97 448.22,-139.95"/>
<polygon fill="#63b8ff" stroke="#63b8ff" points="449.23,-136.59 438.71,-137.85 447.72,-143.42 449.23,-136.59"/>
</a>
</g>
</g>
<!-- Node45&#45;&gt;Node38 -->
<g id="edge59_Node000045_Node000038" class="edge">
<title>Node45&#45;&gt;Node38</title>
<g id="a_edge59_Node000045_Node000038"><a xlink:title=" ">
<path fill="none" stroke="#63b8ff" d="M1534.4,-183.86C1641.34,-181.74 1943.52,-173.15 2204.73,-139.9"/>
<polygon fill="#63b8ff" stroke="#63b8ff" points="2205.32,-143.36 2214.79,-138.61 2204.42,-136.41 2205.32,-143.36"/>
</a>
</g>
</g>
<!-- Node45&#45;&gt;Node44 -->
<g id="edge54_Node000045_Node000044" class="edge">
<title>Node45&#45;&gt;Node44</title>
<g id="a_edge54_Node000045_Node000044"><a xlink:title=" ">
<path fill="none" stroke="#63b8ff" d="M1534.35,-182.63C1650.87,-177.08 2001.17,-159.85 2291.52,-140 2303.42,-139.19 2316.08,-138.23 2328.33,-137.27"/>
<polygon fill="#63b8ff" stroke="#63b8ff" points="2328.81,-140.74 2338.5,-136.46 2328.25,-133.76 2328.81,-140.74"/>
</a>
</g>
</g>
<!-- Node46 -->
<g id="Node000046" class="node">
<title>Node46</title>
<g id="a_Node000046"><a xlink:title=" ">
<polygon fill="#e0e0e0" stroke="#999999" points="1666.52,-140 1602.52,-140 1602.52,-121 1666.52,-121 1666.52,-140"/>
<text text-anchor="middle" x="1634.52" y="-128" font-family="Helvetica,sans-Serif" font-size="10.00">algorithm</text>
</a>
</g>
</g>
<!-- Node45&#45;&gt;Node46 -->
<g id="edge45_Node000045_Node000046" class="edge">
<title>Node45&#45;&gt;Node46</title>
<g id="a_edge45_Node000045_Node000046"><a xlink:title=" ">
<path fill="none" stroke="#63b8ff" d="M1517.01,-175.98C1540.04,-167.27 1576.06,-153.63 1602.15,-143.75"/>
<polygon fill="#63b8ff" stroke="#63b8ff" points="1603.51,-146.98 1611.62,-140.17 1601.03,-140.44 1603.51,-146.98"/>
</a>
</g>
</g>
<!-- Node47 -->
<g id="Node000047" class="node">
<title>Node47</title>
<g id="a_Node000047"><a xlink:title=" ">
<polygon fill="#e0e0e0" stroke="#999999" points="1804.02,-140 1685.02,-140 1685.02,-121 1804.02,-121 1804.02,-140"/>
<text text-anchor="middle" x="1744.52" y="-128" font-family="Helvetica,sans-Serif" font-size="10.00">G4TriangularFacet.hh</text>
</a>
</g>
</g>
<!-- Node45&#45;&gt;Node47 -->
<g id="edge48_Node000045_Node000047" class="edge">
<title>Node45&#45;&gt;Node47</title>
<g id="a_edge48_Node000045_Node000047"><a xlink:title=" ">
<path fill="none" stroke="#63b8ff" d="M1534.13,-176.1C1577.49,-166.91 1647.1,-152.15 1694.26,-142.15"/>
<polygon fill="#63b8ff" stroke="#63b8ff" points="1695.21,-145.53 1704.27,-140.03 1693.76,-138.68 1695.21,-145.53"/>
</a>
</g>
</g>
<!-- Node48 -->
<g id="Node000048" class="node">
<title>Node48</title>
<g id="a_Node000048"><a xlink:title=" ">
<polygon fill="#e0e0e0" stroke="#999999" points="1882.52,-140 1822.52,-140 1822.52,-121 1882.52,-121 1882.52,-140"/>
<text text-anchor="middle" x="1852.52" y="-128" font-family="Helvetica,sans-Serif" font-size="10.00">iostream</text>
</a>
</g>
</g>
<!-- Node45&#45;&gt;Node48 -->
<g id="edge51_Node000045_Node000048" class="edge">
<title>Node45&#45;&gt;Node48</title>
<g id="a_edge51_Node000045_Node000048"><a xlink:title=" ">
<path fill="none" stroke="#63b8ff" d="M1534.21,-179.95C1592.86,-173 1706.33,-158.75 1812.42,-140.08"/>
<polygon fill="#63b8ff" stroke="#63b8ff" points="1813.1,-143.51 1822.33,-138.32 1811.87,-136.62 1813.1,-143.51"/>
</a>
</g>
</g>
<!-- Node49 -->
<g id="Node000049" class="node">
<title>Node49</title>
<g id="a_Node000049"><a xlink:title=" ">
<polygon fill="#e0e0e0" stroke="#999999" points="1944.52,-140 1900.52,-140 1900.52,-121 1944.52,-121 1944.52,-140"/>
<text text-anchor="middle" x="1922.52" y="-128" font-family="Helvetica,sans-Serif" font-size="10.00">string</text>
</a>
</g>
</g>
<!-- Node45&#45;&gt;Node49 -->
<g id="edge52_Node000045_Node000049" class="edge">
<title>Node45&#45;&gt;Node49</title>
<g id="a_edge52_Node000045_Node000049"><a xlink:title=" ">
<path fill="none" stroke="#63b8ff" d="M1534.27,-182.1C1604.35,-177.44 1754.54,-165.44 1890.12,-139.98"/>
<polygon fill="#63b8ff" stroke="#63b8ff" points="1891.1,-143.36 1900.27,-138.05 1889.79,-136.48 1891.1,-143.36"/>
</a>
</g>
</g>
<!-- Node50 -->
<g id="Node000050" class="node">
<title>Node50</title>
<g id="a_Node000050"><a xlink:title=" ">
<polygon fill="#e0e0e0" stroke="#999999" points="2092.52,-140 1962.52,-140 1962.52,-121 2092.52,-121 2092.52,-140"/>
<text text-anchor="middle" x="2027.52" y="-128" font-family="Helvetica,sans-Serif" font-size="10.00">G4AssemblyVolume.hh</text>
</a>
</g>
</g>
<!-- Node45&#45;&gt;Node50 -->
<g id="edge53_Node000045_Node000050" class="edge">
<title>Node45&#45;&gt;Node50</title>
<g id="a_edge53_Node000045_Node000050"><a xlink:title=" ">
<path fill="none" stroke="#63b8ff" d="M1534.15,-180.9C1612.06,-173.76 1790.93,-157.12 1952.06,-140.14"/>
<polygon fill="#63b8ff" stroke="#63b8ff" points="1952.58,-143.6 1962.16,-139.07 1951.85,-136.64 1952.58,-143.6"/>
</a>
</g>
</g>
<!-- Node51 -->
<g id="Node000051" class="node">
<title>Node51</title>
<g id="a_Node000051"><a xlink:title=" ">
<polygon fill="#e0e0e0" stroke="#999999" points="2196.52,-140 2110.52,-140 2110.52,-121 2196.52,-121 2196.52,-140"/>
<text text-anchor="middle" x="2153.52" y="-128" font-family="Helvetica,sans-Serif" font-size="10.00">G4Material.hh</text>
</a>
</g>
</g>
<!-- Node45&#45;&gt;Node51 -->
<g id="edge55_Node000045_Node000051" class="edge">
<title>Node45&#45;&gt;Node51</title>
<g id="a_edge55_Node000045_Node000051"><a xlink:title=" ">
<path fill="none" stroke="#63b8ff" d="M1534.05,-182.82C1629.54,-178.5 1880.49,-165.6 2100.32,-140.03"/>
<polygon fill="#63b8ff" stroke="#63b8ff" points="2100.91,-143.49 2110.43,-138.85 2100.09,-136.54 2100.91,-143.49"/>
</a>
</g>
</g>
<!-- Node52 -->
<g id="Node000052" class="node">
<title>Node52</title>
<g id="a_Node000052"><a xlink:title=" ">
<polygon fill="#e0e0e0" stroke="#999999" points="1120.52,-140 996.52,-140 996.52,-121 1120.52,-121 1120.52,-140"/>
<text text-anchor="middle" x="1058.52" y="-128" font-family="Helvetica,sans-Serif" font-size="10.00">G4TessellatedSolid.hh</text>
</a>
</g>
</g>
<!-- Node45&#45;&gt;Node52 -->
<g id="edge56_Node000045_Node000052" class="edge">
<title>Node45&#45;&gt;Node52</title>
<g id="a_edge56_Node000045_Node000052"><a xlink:title=" ">
<path fill="none" stroke="#63b8ff" d="M1454.74,-178.05C1449.95,-177.33 1445.13,-176.63 1440.52,-176 1303.1,-157.21 1268.28,-156.13 1130.52,-140 1130.42,-139.99 1130.32,-139.98 1130.22,-139.96"/>
<polygon fill="#63b8ff" stroke="#63b8ff" points="1130.91,-136.52 1120.57,-138.83 1130.1,-143.47 1130.91,-136.52"/>
</a>
</g>
</g>
<!-- Node53 -->
<g id="Node000053" class="node">
<title>Node53</title>
<g id="a_Node000053"><a xlink:title=" ">
<polygon fill="#e0e0e0" stroke="#999999" points="1198.02,-140 1139.02,-140 1139.02,-121 1198.02,-121 1198.02,-140"/>
<text text-anchor="middle" x="1168.52" y="-128" font-family="Helvetica,sans-Serif" font-size="10.00">G4Tet.hh</text>
</a>
</g>
</g>
<!-- Node45&#45;&gt;Node53 -->
<g id="edge57_Node000045_Node000053" class="edge">
<title>Node45&#45;&gt;Node53</title>
<g id="a_edge57_Node000045_Node000053"><a xlink:title=" ">
<path fill="none" stroke="#63b8ff" d="M1455,-178.27C1450.13,-177.5 1445.21,-176.73 1440.52,-176 1340.12,-160.34 1312.21,-159.22 1208.26,-140.04"/>
<polygon fill="#63b8ff" stroke="#63b8ff" points="1208.76,-136.57 1198.29,-138.19 1207.49,-143.45 1208.76,-136.57"/>
</a>
</g>
</g>
<!-- Node54 -->
<g id="Node000054" class="node">
<title>Node54</title>
<g id="a_Node000054"><a xlink:title=" ">
<polygon fill="#e0e0e0" stroke="#999999" points="1320.52,-140 1216.52,-140 1216.52,-121 1320.52,-121 1320.52,-140"/>
<text text-anchor="middle" x="1268.52" y="-128" font-family="Helvetica,sans-Serif" font-size="10.00">G4UIcommand.hh</text>
</a>
</g>
</g>
<!-- Node45&#45;&gt;Node54 -->
<g id="edge58_Node000045_Node000054" class="edge">
<title>Node45&#45;&gt;Node54</title>
<g id="a_edge58_Node000045_Node000054"><a xlink:title=" ">
<path fill="none" stroke="#63b8ff" d="M1458.21,-175.98C1419.28,-166.86 1357.36,-152.33 1314.93,-142.38"/>
<polygon fill="#63b8ff" stroke="#63b8ff" points="1315.65,-138.96 1305.12,-140.08 1314.05,-145.77 1315.65,-138.96"/>
</a>
</g>
</g>
<!-- Node55 -->
<g id="Node000055" class="node">
<title>Node55</title>
<g id="a_Node000055"><a xlink:title=" ">
<polygon fill="#e0e0e0" stroke="#999999" points="1394.52,-140 1338.52,-140 1338.52,-121 1394.52,-121 1394.52,-140"/>
<text text-anchor="middle" x="1366.52" y="-128" font-family="Helvetica,sans-Serif" font-size="10.00">sstream</text>
</a>
</g>
</g>
<!-- Node45&#45;&gt;Node55 -->
<g id="edge61_Node000045_Node000055" class="edge">
<title>Node45&#45;&gt;Node55</title>
<g id="a_edge61_Node000045_Node000055"><a xlink:title=" ">
<path fill="none" stroke="#63b8ff" d="M1473.96,-175.98C1453.09,-167.34 1420.55,-153.87 1396.75,-144.02"/>
<polygon fill="#63b8ff" stroke="#63b8ff" points="1398.04,-140.76 1387.46,-140.17 1395.36,-147.23 1398.04,-140.76"/>
</a>
</g>
</g>
<!-- Node56 -->
<g id="Node000056" class="node">
<title>Node56</title>
<g id="a_Node000056"><a xlink:title=" ">
<polygon fill="#e0e0e0" stroke="#999999" points="1480.02,-140 1413.02,-140 1413.02,-121 1480.02,-121 1480.02,-140"/>
<text text-anchor="middle" x="1446.52" y="-128" font-family="Helvetica,sans-Serif" font-size="10.00">streambuf</text>
</a>
</g>
</g>
<!-- Node45&#45;&gt;Node56 -->
<g id="edge62_Node000045_Node000056" class="edge">
<title>Node45&#45;&gt;Node56</title>
<g id="a_edge62_Node000045_Node000056"><a xlink:title=" ">
<path fill="none" stroke="#63b8ff" d="M1486.59,-175.75C1479.67,-168.11 1469.46,-156.82 1461.07,-147.56"/>
<polygon fill="#63b8ff" stroke="#63b8ff" points="1463.61,-145.15 1454.3,-140.09 1458.42,-149.85 1463.61,-145.15"/>
</a>
</g>
</g>
<!-- Node57 -->
<g id="Node000057" class="node">
<title>Node57</title>
<g id="a_Node000057"><a xlink:title=" ">
<polygon fill="#e0e0e0" stroke="#999999" points="1584.52,-140 1498.52,-140 1498.52,-121 1584.52,-121 1584.52,-140"/>
<text text-anchor="middle" x="1541.52" y="-128" font-family="Helvetica,sans-Serif" font-size="10.00">Randomize.hh</text>
</a>
</g>
</g>
<!-- Node45&#45;&gt;Node57 -->
<g id="edge63_Node000045_Node000057" class="edge">
<title>Node45&#45;&gt;Node57</title>
<g id="a_edge63_Node000045_Node000057"><a xlink:title=" ">
<path fill="none" stroke="#63b8ff" d="M1502.28,-175.75C1508.99,-168.18 1518.86,-157.05 1527.03,-147.84"/>
<polygon fill="#63b8ff" stroke="#63b8ff" points="1529.89,-149.89 1533.9,-140.09 1524.65,-145.25 1529.89,-149.89"/>
</a>
</g>
</g>
</g>
</svg>
