<?xml version="1.0" encoding="UTF-8" standalone="no"?>
<!DOCTYPE svg PUBLIC "-//W3C//DTD SVG 1.1//EN"
 "http://www.w3.org/Graphics/SVG/1.1/DTD/svg11.dtd">
<!-- Generated by graphviz version 2.43.0 (0)
 -->
<!-- Title: OMSim_radioactive_decays.cc Pages: 1 -->
<svg width="1397pt" height="489pt"
 viewBox="0.00 0.00 1396.50 489.00" xmlns="http://www.w3.org/2000/svg" xmlns:xlink="http://www.w3.org/1999/xlink">
<g id="graph0" class="graph" transform="scale(1 1) rotate(0) translate(4 485)">
<title>OMSim_radioactive_decays.cc</title>
<!-- Node1 -->
<g id="Node000001" class="node">
<title>Node1</title>
<g id="a_Node000001"><a xlink:title="Main of the radioactive decay study.">
<polygon fill="#999999" stroke="#666666" points="1133.5,-481 968.5,-481 968.5,-462 1133.5,-462 1133.5,-481"/>
<text text-anchor="middle" x="1051" y="-469" font-family="Helvetica,sans-Serif" font-size="10.00">OMSim_radioactive_decays.cc</text>
</a>
</g>
</g>
<!-- Node2 -->
<g id="Node000002" class="node">
<title>Node2</title>
<g id="a_Node000002"><a xlink:title=" ">
<polygon fill="#e0e0e0" stroke="#999999" points="778.5,-426 711.5,-426 711.5,-407 778.5,-407 778.5,-426"/>
<text text-anchor="middle" x="745" y="-414" font-family="Helvetica,sans-Serif" font-size="10.00">OMSim.hh</text>
</a>
</g>
</g>
<!-- Node1&#45;&gt;Node2 -->
<g id="edge1_Node000001_Node000002" class="edge">
<title>Node1&#45;&gt;Node2</title>
<g id="a_edge1_Node000001_Node000002"><a xlink:title=" ">
<path fill="none" stroke="#63b8ff" d="M997.31,-461.98C946.1,-453.73 866.52,-440.6 788.86,-426.3"/>
<polygon fill="#63b8ff" stroke="#63b8ff" points="789.38,-422.84 778.91,-424.46 788.1,-429.72 789.38,-422.84"/>
</a>
</g>
</g>
<!-- Node3 -->
<g id="Node000003" class="node">
<title>Node3</title>
<g id="a_Node000003"><a xlink:href="_o_m_sim_decays_g_p_s_8hh.html" target="_top" xlink:title="Defines the OMSimDecaysGPS class for the radioactive decays simulation.">
<polygon fill="white" stroke="#666666" points="1112,-426 990,-426 990,-407 1112,-407 1112,-426"/>
<text text-anchor="middle" x="1051" y="-414" font-family="Helvetica,sans-Serif" font-size="10.00">OMSimDecaysGPS.hh</text>
</a>
</g>
</g>
<!-- Node1&#45;&gt;Node3 -->
<g id="edge2_Node000001_Node000003" class="edge">
<title>Node1&#45;&gt;Node3</title>
<g id="a_edge2_Node000001_Node000003"><a xlink:title=" ">
<path fill="none" stroke="#63b8ff" d="M1051,-461.75C1051,-454.8 1051,-444.85 1051,-436.13"/>
<polygon fill="#63b8ff" stroke="#63b8ff" points="1054.5,-436.09 1051,-426.09 1047.5,-436.09 1054.5,-436.09"/>
</a>
</g>
</g>
<!-- Node26 -->
<g id="Node000026" class="node">
<title>Node26</title>
<g id="a_Node000026"><a xlink:title=" ">
<polygon fill="#e0e0e0" stroke="#999999" points="1205.5,-261 1082.5,-261 1082.5,-242 1205.5,-242 1205.5,-261"/>
<text text-anchor="middle" x="1144" y="-249" font-family="Helvetica,sans-Serif" font-size="10.00">OMSimHitManager.hh</text>
</a>
</g>
</g>
<!-- Node1&#45;&gt;Node26 -->
<g id="edge38_Node000001_Node000026" class="edge">
<title>Node1&#45;&gt;Node26</title>
<g id="a_edge38_Node000001_Node000026"><a xlink:title=" ">
<path fill="none" stroke="#63b8ff" d="M1074.07,-461.99C1089.95,-454.88 1110.07,-443.11 1121,-426 1152.01,-377.43 1149.7,-305.61 1146.41,-271.64"/>
<polygon fill="#63b8ff" stroke="#63b8ff" points="1149.85,-270.85 1145.27,-261.3 1142.89,-271.63 1149.85,-270.85"/>
</a>
</g>
</g>
<!-- Node36 -->
<g id="Node000036" class="node">
<title>Node36</title>
<g id="a_Node000036"><a xlink:href="_o_m_sim_decays_analysis_8hh.html" target="_top" xlink:title="Defines the OMSimDecaysAnalysis class and DecayStats struct for the radioactive decays simulation.">
<polygon fill="white" stroke="#666666" points="1347,-426 1203,-426 1203,-407 1347,-407 1347,-426"/>
<text text-anchor="middle" x="1275" y="-414" font-family="Helvetica,sans-Serif" font-size="10.00">OMSimDecaysAnalysis.hh</text>
</a>
</g>
</g>
<!-- Node1&#45;&gt;Node36 -->
<g id="edge39_Node000001_Node000036" class="edge">
<title>Node1&#45;&gt;Node36</title>
<g id="a_edge39_Node000001_Node000036"><a xlink:title=" ">
<path fill="none" stroke="#63b8ff" d="M1086.99,-461.98C1125.49,-452.87 1186.69,-438.4 1228.74,-428.45"/>
<polygon fill="#63b8ff" stroke="#63b8ff" points="1229.8,-431.79 1238.73,-426.08 1228.19,-424.98 1229.8,-431.79"/>
</a>
</g>
</g>
<!-- Node39 -->
<g id="Node000039" class="node">
<title>Node39</title>
<g id="a_Node000039"><a xlink:href="_o_m_sim_rad_decays_detector_8hh.html" target="_top" xlink:title="Defines the OMSimRadDecaysDetector class for the radioactive decays simulation.">
<polygon fill="white" stroke="#666666" points="959.5,-426 796.5,-426 796.5,-407 959.5,-407 959.5,-426"/>
<text text-anchor="middle" x="878" y="-414" font-family="Helvetica,sans-Serif" font-size="10.00">OMSimRadDecaysDetector.hh</text>
</a>
</g>
</g>
<!-- Node1&#45;&gt;Node39 -->
<g id="edge43_Node000001_Node000039" class="edge">
<title>Node1&#45;&gt;Node39</title>
<g id="a_edge43_Node000001_Node000039"><a xlink:title=" ">
<path fill="none" stroke="#63b8ff" d="M1023.2,-461.98C994.03,-453.05 948,-438.94 915.6,-429.02"/>
<polygon fill="#63b8ff" stroke="#63b8ff" points="916.6,-425.66 906.01,-426.08 914.55,-432.36 916.6,-425.66"/>
</a>
</g>
</g>
<!-- Node4 -->
<g id="Node000004" class="node">
<title>Node4</title>
<g id="a_Node000004"><a xlink:href="_o_m_sim_optical_module_8hh_source.html" target="_top" xlink:title=" ">
<polygon fill="white" stroke="#666666" points="1116.5,-316 979.5,-316 979.5,-297 1116.5,-297 1116.5,-316"/>
<text text-anchor="middle" x="1048" y="-304" font-family="Helvetica,sans-Serif" font-size="10.00">OMSimOpticalModule.hh</text>
</a>
</g>
</g>
<!-- Node3&#45;&gt;Node4 -->
<g id="edge3_Node000003_Node000004" class="edge">
<title>Node3&#45;&gt;Node4</title>
<g id="a_edge3_Node000003_Node000004"><a xlink:title=" ">
<path fill="none" stroke="#63b8ff" d="M1061.65,-406.89C1074.89,-395.06 1094.85,-372.88 1087,-352 1082.82,-340.89 1074.48,-330.75 1066.57,-322.96"/>
<polygon fill="#63b8ff" stroke="#63b8ff" points="1068.72,-320.19 1058.99,-316.01 1063.99,-325.35 1068.72,-320.19"/>
</a>
</g>
</g>
<!-- Node35 -->
<g id="Node000035" class="node">
<title>Node35</title>
<g id="a_Node000035"><a xlink:title=" ">
<polygon fill="#e0e0e0" stroke="#999999" points="1078.5,-371 1011.5,-371 1011.5,-352 1078.5,-352 1078.5,-371"/>
<text text-anchor="middle" x="1045" y="-359" font-family="Helvetica,sans-Serif" font-size="10.00">globals.hh</text>
</a>
</g>
</g>
<!-- Node3&#45;&gt;Node35 -->
<g id="edge37_Node000003_Node000035" class="edge">
<title>Node3&#45;&gt;Node35</title>
<g id="a_edge37_Node000003_Node000035"><a xlink:title=" ">
<path fill="none" stroke="#63b8ff" d="M1050.01,-406.75C1049.22,-399.8 1048.1,-389.85 1047.11,-381.13"/>
<polygon fill="#63b8ff" stroke="#63b8ff" points="1050.58,-380.63 1045.97,-371.09 1043.62,-381.42 1050.58,-380.63"/>
</a>
</g>
</g>
<!-- Node5 -->
<g id="Node000005" class="node">
<title>Node5</title>
<g id="a_Node000005"><a xlink:href="_o_m_sim_detector_component_8hh.html" target="_top" xlink:title="Provides helper base class OMSimDetectorComponent for constructing and managing detector components i...">
<polygon fill="white" stroke="#666666" points="776.5,-206 611.5,-206 611.5,-187 776.5,-187 776.5,-206"/>
<text text-anchor="middle" x="694" y="-194" font-family="Helvetica,sans-Serif" font-size="10.00">OMSimDetectorComponent.hh</text>
</a>
</g>
</g>
<!-- Node4&#45;&gt;Node5 -->
<g id="edge4_Node000004_Node000005" class="edge">
<title>Node4&#45;&gt;Node5</title>
<g id="a_edge4_Node000004_Node000005"><a xlink:title=" ">
<path fill="none" stroke="#63b8ff" d="M1014.97,-296.96C982.13,-288.34 930.39,-274.43 886,-261 830.32,-244.16 766.28,-222.52 728.03,-209.34"/>
<polygon fill="#63b8ff" stroke="#63b8ff" points="729.02,-205.98 718.42,-206.02 726.73,-212.6 729.02,-205.98"/>
</a>
</g>
</g>
<!-- Node4&#45;&gt;Node26 -->
<g id="edge25_Node000004_Node000026" class="edge">
<title>Node4&#45;&gt;Node26</title>
<g id="a_edge25_Node000004_Node000026"><a xlink:title=" ">
<path fill="none" stroke="#63b8ff" d="M1063.42,-296.98C1078.45,-288.69 1101.54,-275.94 1119.16,-266.22"/>
<polygon fill="#63b8ff" stroke="#63b8ff" points="1121.23,-269.07 1128.3,-261.17 1117.85,-262.94 1121.23,-269.07"/>
</a>
</g>
</g>
<!-- Node27 -->
<g id="Node000027" class="node">
<title>Node27</title>
<g id="a_Node000027"><a xlink:href="_o_m_sim_p_m_t_construction_8hh.html" target="_top" xlink:title="Construction of the PMTs.">
<polygon fill="white" stroke="#666666" points="1044.5,-261 895.5,-261 895.5,-242 1044.5,-242 1044.5,-261"/>
<text text-anchor="middle" x="970" y="-249" font-family="Helvetica,sans-Serif" font-size="10.00">OMSimPMTConstruction.hh</text>
</a>
</g>
</g>
<!-- Node4&#45;&gt;Node27 -->
<g id="edge26_Node000004_Node000027" class="edge">
<title>Node4&#45;&gt;Node27</title>
<g id="a_edge26_Node000004_Node000027"><a xlink:title=" ">
<path fill="none" stroke="#63b8ff" d="M1035.47,-296.98C1023.6,-288.92 1005.54,-276.65 991.39,-267.03"/>
<polygon fill="#63b8ff" stroke="#63b8ff" points="993,-263.9 982.76,-261.17 989.06,-269.69 993,-263.9"/>
</a>
</g>
</g>
<!-- Node6 -->
<g id="Node000006" class="node">
<title>Node6</title>
<g id="a_Node000006"><a xlink:href="_o_m_sim_input_data_8hh.html" target="_top" xlink:title="Definition of ParameterTable and OMSimInputData.">
<polygon fill="white" stroke="#666666" points="767.5,-151 652.5,-151 652.5,-132 767.5,-132 767.5,-151"/>
<text text-anchor="middle" x="710" y="-139" font-family="Helvetica,sans-Serif" font-size="10.00">OMSimInputData.hh</text>
</a>
</g>
</g>
<!-- Node5&#45;&gt;Node6 -->
<g id="edge5_Node000005_Node000006" class="edge">
<title>Node5&#45;&gt;Node6</title>
<g id="a_edge5_Node000005_Node000006"><a xlink:title=" ">
<path fill="none" stroke="#63b8ff" d="M696.64,-186.75C698.76,-179.72 701.81,-169.62 704.46,-160.84"/>
<polygon fill="#63b8ff" stroke="#63b8ff" points="707.87,-161.67 707.41,-151.09 701.17,-159.65 707.87,-161.67"/>
</a>
</g>
</g>
<!-- Node22 -->
<g id="Node000022" class="node">
<title>Node22</title>
<g id="a_Node000022"><a xlink:title=" ">
<polygon fill="#e0e0e0" stroke="#999999" points="892.5,-151 785.5,-151 785.5,-132 892.5,-132 892.5,-151"/>
<text text-anchor="middle" x="839" y="-139" font-family="Helvetica,sans-Serif" font-size="10.00">G4Transform3D.hh</text>
</a>
</g>
</g>
<!-- Node5&#45;&gt;Node22 -->
<g id="edge21_Node000005_Node000022" class="edge">
<title>Node5&#45;&gt;Node22</title>
<g id="a_edge21_Node000005_Node000022"><a xlink:title=" ">
<path fill="none" stroke="#63b8ff" d="M717.3,-186.98C741.25,-178.23 778.78,-164.51 805.83,-154.62"/>
<polygon fill="#63b8ff" stroke="#63b8ff" points="807.09,-157.89 815.28,-151.17 804.69,-151.32 807.09,-157.89"/>
</a>
</g>
</g>
<!-- Node23 -->
<g id="Node000023" class="node">
<title>Node23</title>
<g id="a_Node000023"><a xlink:title=" ">
<polygon fill="#e0e0e0" stroke="#999999" points="362,-151 254,-151 254,-132 362,-132 362,-151"/>
<text text-anchor="middle" x="308" y="-139" font-family="Helvetica,sans-Serif" font-size="10.00">G4VisAttributes.hh</text>
</a>
</g>
</g>
<!-- Node5&#45;&gt;Node23 -->
<g id="edge22_Node000005_Node000023" class="edge">
<title>Node5&#45;&gt;Node23</title>
<g id="a_edge22_Node000005_Node000023"><a xlink:title=" ">
<path fill="none" stroke="#63b8ff" d="M631.98,-186.98C560.79,-177.21 444.57,-161.25 372.39,-151.34"/>
<polygon fill="#63b8ff" stroke="#63b8ff" points="372.46,-147.82 362.07,-149.92 371.5,-154.75 372.46,-147.82"/>
</a>
</g>
</g>
<!-- Node24 -->
<g id="Node000024" class="node">
<title>Node24</title>
<g id="a_Node000024"><a xlink:title=" ">
<polygon fill="#e0e0e0" stroke="#999999" points="505.5,-151 380.5,-151 380.5,-132 505.5,-132 505.5,-151"/>
<text text-anchor="middle" x="443" y="-139" font-family="Helvetica,sans-Serif" font-size="10.00">G4SubtractionSolid.hh</text>
</a>
</g>
</g>
<!-- Node5&#45;&gt;Node24 -->
<g id="edge23_Node000005_Node000024" class="edge">
<title>Node5&#45;&gt;Node24</title>
<g id="a_edge23_Node000005_Node000024"><a xlink:title=" ">
<path fill="none" stroke="#63b8ff" d="M653.67,-186.98C610.16,-177.8 540.8,-163.15 493.65,-153.19"/>
<polygon fill="#63b8ff" stroke="#63b8ff" points="494.15,-149.72 483.64,-151.08 492.7,-156.57 494.15,-149.72"/>
</a>
</g>
</g>
<!-- Node25 -->
<g id="Node000025" class="node">
<title>Node25</title>
<g id="a_Node000025"><a xlink:title=" ">
<polygon fill="#e0e0e0" stroke="#999999" points="634,-151 524,-151 524,-132 634,-132 634,-151"/>
<text text-anchor="middle" x="579" y="-139" font-family="Helvetica,sans-Serif" font-size="10.00">G4PVPlacement.hh</text>
</a>
</g>
</g>
<!-- Node5&#45;&gt;Node25 -->
<g id="edge24_Node000005_Node000025" class="edge">
<title>Node5&#45;&gt;Node25</title>
<g id="a_edge24_Node000005_Node000025"><a xlink:title=" ">
<path fill="none" stroke="#63b8ff" d="M675.52,-186.98C657.02,-178.46 628.32,-165.23 607.02,-155.41"/>
<polygon fill="#63b8ff" stroke="#63b8ff" points="608.36,-152.18 597.81,-151.17 605.43,-158.53 608.36,-152.18"/>
</a>
</g>
</g>
<!-- Node7 -->
<g id="Node000007" class="node">
<title>Node7</title>
<g id="a_Node000007"><a xlink:href="_o_m_sim_logger_8hh_source.html" target="_top" xlink:title=" ">
<polygon fill="white" stroke="#666666" points="288.5,-90.5 189.5,-90.5 189.5,-71.5 288.5,-71.5 288.5,-90.5"/>
<text text-anchor="middle" x="239" y="-78.5" font-family="Helvetica,sans-Serif" font-size="10.00">OMSimLogger.hh</text>
</a>
</g>
</g>
<!-- Node6&#45;&gt;Node7 -->
<g id="edge6_Node000006_Node000007" class="edge">
<title>Node6&#45;&gt;Node7</title>
<g id="a_edge6_Node000006_Node000007"><a xlink:title=" ">
<path fill="none" stroke="#63b8ff" d="M652.26,-133.16C649.13,-132.77 646.02,-132.38 643,-132 520.86,-116.69 377.9,-99.07 299,-89.37"/>
<polygon fill="#63b8ff" stroke="#63b8ff" points="299.11,-85.86 288.76,-88.11 298.26,-92.8 299.11,-85.86"/>
</a>
</g>
</g>
<!-- Node12 -->
<g id="Node000012" class="node">
<title>Node12</title>
<g id="a_Node000012"><a xlink:href="_o_m_sim_op_boundary_process_8hh_source.html" target="_top" xlink:title=" ">
<polygon fill="white" stroke="#666666" points="948,-90.5 784,-90.5 784,-71.5 948,-71.5 948,-90.5"/>
<text text-anchor="middle" x="866" y="-78.5" font-family="Helvetica,sans-Serif" font-size="10.00">OMSimOpBoundaryProcess.hh</text>
</a>
</g>
</g>
<!-- Node6&#45;&gt;Node12 -->
<g id="edge11_Node000006_Node000012" class="edge">
<title>Node6&#45;&gt;Node12</title>
<g id="a_edge11_Node000006_Node000012"><a xlink:title=" ">
<path fill="none" stroke="#63b8ff" d="M732.68,-131.99C759.26,-122.03 803.48,-105.45 833.64,-94.13"/>
<polygon fill="#63b8ff" stroke="#63b8ff" points="835.15,-97.31 843.29,-90.52 832.7,-90.75 835.15,-97.31"/>
</a>
</g>
</g>
<!-- Node20 -->
<g id="Node000020" class="node">
<title>Node20</title>
<g id="a_Node000020"><a xlink:title=" ">
<polygon fill="#e0e0e0" stroke="#999999" points="1181.5,-90.5 1062.5,-90.5 1062.5,-71.5 1181.5,-71.5 1181.5,-90.5"/>
<text text-anchor="middle" x="1122" y="-78.5" font-family="Helvetica,sans-Serif" font-size="10.00">G4SystemOfUnits.hh</text>
</a>
</g>
</g>
<!-- Node6&#45;&gt;Node20 -->
<g id="edge19_Node000006_Node000020" class="edge">
<title>Node6&#45;&gt;Node20</title>
<g id="a_edge19_Node000006_Node000020"><a xlink:title=" ">
<path fill="none" stroke="#63b8ff" d="M767.72,-132.3C842.37,-121.7 972.29,-103.26 1052.34,-91.89"/>
<polygon fill="#63b8ff" stroke="#63b8ff" points="1052.92,-95.34 1062.33,-90.47 1051.94,-88.41 1052.92,-95.34"/>
</a>
</g>
</g>
<!-- Node21 -->
<g id="Node000021" class="node">
<title>Node21</title>
<g id="a_Node000021"><a xlink:title=" ">
<polygon fill="#e0e0e0" stroke="#999999" points="765.5,-96 652.5,-96 652.5,-66 765.5,-66 765.5,-96"/>
<text text-anchor="start" x="660.5" y="-84" font-family="Helvetica,sans-Serif" font-size="10.00">boost/property_tree</text>
<text text-anchor="middle" x="709" y="-73" font-family="Helvetica,sans-Serif" font-size="10.00">/json_parser.hpp</text>
</a>
</g>
</g>
<!-- Node6&#45;&gt;Node21 -->
<g id="edge20_Node000006_Node000021" class="edge">
<title>Node6&#45;&gt;Node21</title>
<g id="a_edge20_Node000006_Node000021"><a xlink:title=" ">
<path fill="none" stroke="#63b8ff" d="M709.85,-131.87C709.74,-125.11 709.57,-115.35 709.41,-106.26"/>
<polygon fill="#63b8ff" stroke="#63b8ff" points="712.91,-106.05 709.24,-96.11 705.91,-106.17 712.91,-106.05"/>
</a>
</g>
</g>
<!-- Node8 -->
<g id="Node000008" class="node">
<title>Node8</title>
<g id="a_Node000008"><a xlink:title=" ">
<polygon fill="#e0e0e0" stroke="#999999" points="285.5,-24.5 192.5,-24.5 192.5,-5.5 285.5,-5.5 285.5,-24.5"/>
<text text-anchor="middle" x="239" y="-12.5" font-family="Helvetica,sans-Serif" font-size="10.00">spdlog/spdlog.h</text>
</a>
</g>
</g>
<!-- Node7&#45;&gt;Node8 -->
<g id="edge7_Node000007_Node000008" class="edge">
<title>Node7&#45;&gt;Node8</title>
<g id="a_edge7_Node000007_Node000008"><a xlink:title=" ">
<path fill="none" stroke="#63b8ff" d="M239,-71.37C239,-62.16 239,-47.29 239,-35.27"/>
<polygon fill="#63b8ff" stroke="#63b8ff" points="242.5,-34.91 239,-24.91 235.5,-34.91 242.5,-34.91"/>
</a>
</g>
</g>
<!-- Node9 -->
<g id="Node000009" class="node">
<title>Node9</title>
<g id="a_Node000009"><a xlink:title=" ">
<polygon fill="#e0e0e0" stroke="#999999" points="414.5,-30 303.5,-30 303.5,0 414.5,0 414.5,-30"/>
<text text-anchor="start" x="311.5" y="-18" font-family="Helvetica,sans-Serif" font-size="10.00">spdlog/sinks/stdout</text>
<text text-anchor="middle" x="359" y="-7" font-family="Helvetica,sans-Serif" font-size="10.00">_color_sinks.h</text>
</a>
</g>
</g>
<!-- Node7&#45;&gt;Node9 -->
<g id="edge8_Node000007_Node000009" class="edge">
<title>Node7&#45;&gt;Node9</title>
<g id="a_edge8_Node000007_Node000009"><a xlink:title=" ">
<path fill="none" stroke="#63b8ff" d="M255.18,-71.37C272.61,-62.07 300.89,-46.99 323.54,-34.91"/>
<polygon fill="#63b8ff" stroke="#63b8ff" points="325.36,-37.91 332.53,-30.12 322.06,-31.73 325.36,-37.91"/>
</a>
</g>
</g>
<!-- Node10 -->
<g id="Node000010" class="node">
<title>Node10</title>
<g id="a_Node000010"><a xlink:title=" ">
<polygon fill="#e0e0e0" stroke="#999999" points="58,-24.5 0,-24.5 0,-5.5 58,-5.5 58,-24.5"/>
<text text-anchor="middle" x="29" y="-12.5" font-family="Helvetica,sans-Serif" font-size="10.00">memory</text>
</a>
</g>
</g>
<!-- Node7&#45;&gt;Node10 -->
<g id="edge9_Node000007_Node000010" class="edge">
<title>Node7&#45;&gt;Node10</title>
<g id="a_edge9_Node000007_Node000010"><a xlink:title=" ">
<path fill="none" stroke="#63b8ff" d="M207.09,-71.45C172.41,-61.98 115.44,-45.94 67,-30 65.1,-29.37 63.15,-28.71 61.18,-28.03"/>
<polygon fill="#63b8ff" stroke="#63b8ff" points="62.01,-24.61 51.41,-24.55 59.66,-31.21 62.01,-24.61"/>
</a>
</g>
</g>
<!-- Node11 -->
<g id="Node000011" class="node">
<title>Node11</title>
<g id="a_Node000011"><a xlink:title=" ">
<polygon fill="#e0e0e0" stroke="#999999" points="174,-24.5 76,-24.5 76,-5.5 174,-5.5 174,-24.5"/>
<text text-anchor="middle" x="125" y="-12.5" font-family="Helvetica,sans-Serif" font-size="10.00">spdlog/fmt/fmt.h</text>
</a>
</g>
</g>
<!-- Node7&#45;&gt;Node11 -->
<g id="edge10_Node000007_Node000011" class="edge">
<title>Node7&#45;&gt;Node11</title>
<g id="a_edge10_Node000007_Node000011"><a xlink:title=" ">
<path fill="none" stroke="#63b8ff" d="M223.63,-71.37C204.59,-60.68 171.93,-42.35 149.44,-29.72"/>
<polygon fill="#63b8ff" stroke="#63b8ff" points="150.93,-26.54 140.5,-24.7 147.5,-32.65 150.93,-26.54"/>
</a>
</g>
</g>
<!-- Node13 -->
<g id="Node000013" class="node">
<title>Node13</title>
<g id="a_Node000013"><a xlink:title=" ">
<polygon fill="#e0e0e0" stroke="#999999" points="658.5,-24.5 545.5,-24.5 545.5,-5.5 658.5,-5.5 658.5,-24.5"/>
<text text-anchor="middle" x="602" y="-12.5" font-family="Helvetica,sans-Serif" font-size="10.00">G4OpticalPhoton.hh</text>
</a>
</g>
</g>
<!-- Node12&#45;&gt;Node13 -->
<g id="edge12_Node000012_Node000013" class="edge">
<title>Node12&#45;&gt;Node13</title>
<g id="a_edge12_Node000012_Node000013"><a xlink:title=" ">
<path fill="none" stroke="#63b8ff" d="M830.67,-71.44C783.25,-59.94 698.99,-39.51 647.06,-26.92"/>
<polygon fill="#63b8ff" stroke="#63b8ff" points="647.66,-23.47 637.12,-24.51 646.01,-30.27 647.66,-23.47"/>
</a>
</g>
</g>
<!-- Node14 -->
<g id="Node000014" class="node">
<title>Node14</title>
<g id="a_Node000014"><a xlink:title=" ">
<polygon fill="#e0e0e0" stroke="#999999" points="793,-24.5 677,-24.5 677,-5.5 793,-5.5 793,-24.5"/>
<text text-anchor="middle" x="735" y="-12.5" font-family="Helvetica,sans-Serif" font-size="10.00">G4OpticalSurface.hh</text>
</a>
</g>
</g>
<!-- Node12&#45;&gt;Node14 -->
<g id="edge13_Node000012_Node000014" class="edge">
<title>Node12&#45;&gt;Node14</title>
<g id="a_edge13_Node000012_Node000014"><a xlink:title=" ">
<path fill="none" stroke="#63b8ff" d="M848.33,-71.37C826.16,-60.54 787.92,-41.85 762.05,-29.22"/>
<polygon fill="#63b8ff" stroke="#63b8ff" points="763.33,-25.94 752.81,-24.7 760.25,-32.23 763.33,-25.94"/>
</a>
</g>
</g>
<!-- Node15 -->
<g id="Node000015" class="node">
<title>Node15</title>
<g id="a_Node000015"><a xlink:title=" ">
<polygon fill="#e0e0e0" stroke="#999999" points="921,-24.5 811,-24.5 811,-5.5 921,-5.5 921,-24.5"/>
<text text-anchor="middle" x="866" y="-12.5" font-family="Helvetica,sans-Serif" font-size="10.00">G4RandomTools.hh</text>
</a>
</g>
</g>
<!-- Node12&#45;&gt;Node15 -->
<g id="edge14_Node000012_Node000015" class="edge">
<title>Node12&#45;&gt;Node15</title>
<g id="a_edge14_Node000012_Node000015"><a xlink:title=" ">
<path fill="none" stroke="#63b8ff" d="M866,-71.37C866,-62.16 866,-47.29 866,-35.27"/>
<polygon fill="#63b8ff" stroke="#63b8ff" points="869.5,-34.91 866,-24.91 862.5,-34.91 869.5,-34.91"/>
</a>
</g>
</g>
<!-- Node16 -->
<g id="Node000016" class="node">
<title>Node16</title>
<g id="a_Node000016"><a xlink:title=" ">
<polygon fill="#e0e0e0" stroke="#999999" points="1069,-24.5 939,-24.5 939,-5.5 1069,-5.5 1069,-24.5"/>
<text text-anchor="middle" x="1004" y="-12.5" font-family="Helvetica,sans-Serif" font-size="10.00">G4VDiscreteProcess.hh</text>
</a>
</g>
</g>
<!-- Node12&#45;&gt;Node16 -->
<g id="edge15_Node000012_Node000016" class="edge">
<title>Node12&#45;&gt;Node16</title>
<g id="a_edge15_Node000012_Node000016"><a xlink:title=" ">
<path fill="none" stroke="#63b8ff" d="M884.61,-71.37C908.07,-60.49 948.61,-41.69 975.86,-29.05"/>
<polygon fill="#63b8ff" stroke="#63b8ff" points="977.64,-32.08 985.24,-24.7 974.7,-25.73 977.64,-32.08"/>
</a>
</g>
</g>
<!-- Node17 -->
<g id="Node000017" class="node">
<title>Node17</title>
<g id="a_Node000017"><a xlink:title=" ">
<polygon fill="#e0e0e0" stroke="#999999" points="1244.5,-24.5 1087.5,-24.5 1087.5,-5.5 1244.5,-5.5 1244.5,-24.5"/>
<text text-anchor="middle" x="1166" y="-12.5" font-family="Helvetica,sans-Serif" font-size="10.00">G4VUserTrackInformation.hh</text>
</a>
</g>
</g>
<!-- Node12&#45;&gt;Node17 -->
<g id="edge16_Node000012_Node000017" class="edge">
<title>Node12&#45;&gt;Node17</title>
<g id="a_edge16_Node000012_Node000017"><a xlink:title=" ">
<path fill="none" stroke="#63b8ff" d="M906.15,-71.44C960.48,-59.84 1057.39,-39.17 1116.27,-26.61"/>
<polygon fill="#63b8ff" stroke="#63b8ff" points="1117.04,-30.02 1126.09,-24.51 1115.58,-23.18 1117.04,-30.02"/>
</a>
</g>
</g>
<!-- Node18 -->
<g id="Node000018" class="node">
<title>Node18</title>
<g id="a_Node000018"><a xlink:title=" ">
<polygon fill="#e0e0e0" stroke="#999999" points="1353,-24.5 1263,-24.5 1263,-5.5 1353,-5.5 1353,-24.5"/>
<text text-anchor="middle" x="1308" y="-12.5" font-family="Helvetica,sans-Serif" font-size="10.00">G4AutoLock.hh</text>
</a>
</g>
</g>
<!-- Node12&#45;&gt;Node18 -->
<g id="edge17_Node000012_Node000018" class="edge">
<title>Node12&#45;&gt;Node18</title>
<g id="a_edge17_Node000012_Node000018"><a xlink:title=" ">
<path fill="none" stroke="#63b8ff" d="M948.23,-72.43C1027.09,-64.46 1149.31,-50.23 1254,-30 1258.51,-29.13 1263.2,-28.1 1267.85,-27"/>
<polygon fill="#63b8ff" stroke="#63b8ff" points="1269.01,-30.32 1277.88,-24.52 1267.33,-23.52 1269.01,-30.32"/>
</a>
</g>
</g>
<!-- Node19 -->
<g id="Node000019" class="node">
<title>Node19</title>
<g id="a_Node000019"><a xlink:title=" ">
<polygon fill="#e0e0e0" stroke="#999999" points="527,-24.5 433,-24.5 433,-5.5 527,-5.5 527,-24.5"/>
<text text-anchor="middle" x="480" y="-12.5" font-family="Helvetica,sans-Serif" font-size="10.00">G4Threading.hh</text>
</a>
</g>
</g>
<!-- Node12&#45;&gt;Node19 -->
<g id="edge18_Node000012_Node000019" class="edge">
<title>Node12&#45;&gt;Node19</title>
<g id="a_edge18_Node000012_Node000019"><a xlink:title=" ">
<path fill="none" stroke="#63b8ff" d="M810.05,-71.48C798.15,-69.67 785.66,-67.77 774,-66 668.23,-49.95 640.9,-51 536,-30 531.33,-29.07 526.47,-28 521.64,-26.87"/>
<polygon fill="#63b8ff" stroke="#63b8ff" points="522.41,-23.46 511.86,-24.52 520.77,-30.26 522.41,-23.46"/>
</a>
</g>
</g>
<!-- Node27&#45;&gt;Node5 -->
<g id="edge27_Node000027_Node000005" class="edge">
<title>Node27&#45;&gt;Node5</title>
<g id="a_edge27_Node000027_Node000005"><a xlink:title=" ">
<path fill="none" stroke="#63b8ff" d="M925.66,-241.98C877.51,-232.74 800.58,-217.97 748.71,-208.01"/>
<polygon fill="#63b8ff" stroke="#63b8ff" points="749.17,-204.53 738.69,-206.08 747.85,-211.41 749.17,-204.53"/>
</a>
</g>
</g>
<!-- Node27&#45;&gt;Node27 -->
<g id="edge28_Node000027_Node000027" class="edge">
<title>Node27&#45;&gt;Node27</title>
<g id="a_edge28_Node000027_Node000027"><a xlink:title=" ">
<path fill="none" stroke="#63b8ff" d="M1013.3,-261.03C1038.71,-263.06 1062.5,-259.88 1062.5,-251.5 1062.5,-244.23 1044.61,-240.87 1023.29,-241.44"/>
<polygon fill="#63b8ff" stroke="#63b8ff" points="1023.1,-237.94 1013.3,-241.97 1023.47,-244.93 1023.1,-237.94"/>
</a>
</g>
</g>
<!-- Node28 -->
<g id="Node000028" class="node">
<title>Node28</title>
<g id="a_Node000028"><a xlink:href="_o_m_sim_p_m_t_response_8hh.html" target="_top" xlink:title="Simulation of PMT response.">
<polygon fill="white" stroke="#666666" points="1156.5,-206 1021.5,-206 1021.5,-187 1156.5,-187 1156.5,-206"/>
<text text-anchor="middle" x="1089" y="-194" font-family="Helvetica,sans-Serif" font-size="10.00">OMSimPMTResponse.hh</text>
</a>
</g>
</g>
<!-- Node27&#45;&gt;Node28 -->
<g id="edge29_Node000027_Node000028" class="edge">
<title>Node27&#45;&gt;Node28</title>
<g id="a_edge29_Node000027_Node000028"><a xlink:title=" ">
<path fill="none" stroke="#63b8ff" d="M989.12,-241.98C1008.35,-233.42 1038.23,-220.11 1060.31,-210.28"/>
<polygon fill="#63b8ff" stroke="#63b8ff" points="1061.82,-213.44 1069.53,-206.17 1058.97,-207.04 1061.82,-213.44"/>
</a>
</g>
</g>
<!-- Node33 -->
<g id="Node000033" class="node">
<title>Node33</title>
<g id="a_Node000033"><a xlink:title=" ">
<polygon fill="#e0e0e0" stroke="#999999" points="918,-206 820,-206 820,-187 918,-187 918,-206"/>
<text text-anchor="middle" x="869" y="-194" font-family="Helvetica,sans-Serif" font-size="10.00">G4UnionSolid.hh</text>
</a>
</g>
</g>
<!-- Node27&#45;&gt;Node33 -->
<g id="edge35_Node000027_Node000033" class="edge">
<title>Node27&#45;&gt;Node33</title>
<g id="a_edge35_Node000027_Node000033"><a xlink:title=" ">
<path fill="none" stroke="#63b8ff" d="M953.77,-241.98C937.82,-233.61 913.22,-220.7 894.62,-210.95"/>
<polygon fill="#63b8ff" stroke="#63b8ff" points="896,-207.72 885.52,-206.17 892.75,-213.92 896,-207.72"/>
</a>
</g>
</g>
<!-- Node34 -->
<g id="Node000034" class="node">
<title>Node34</title>
<g id="a_Node000034"><a xlink:title=" ">
<polygon fill="#e0e0e0" stroke="#999999" points="1003.5,-206 936.5,-206 936.5,-187 1003.5,-187 1003.5,-206"/>
<text text-anchor="middle" x="970" y="-194" font-family="Helvetica,sans-Serif" font-size="10.00">G4Tubs.hh</text>
</a>
</g>
</g>
<!-- Node27&#45;&gt;Node34 -->
<g id="edge36_Node000027_Node000034" class="edge">
<title>Node27&#45;&gt;Node34</title>
<g id="a_edge36_Node000027_Node000034"><a xlink:title=" ">
<path fill="none" stroke="#63b8ff" d="M970,-241.75C970,-234.8 970,-224.85 970,-216.13"/>
<polygon fill="#63b8ff" stroke="#63b8ff" points="973.5,-216.09 970,-206.09 966.5,-216.09 973.5,-216.09"/>
</a>
</g>
</g>
<!-- Node28&#45;&gt;Node20 -->
<g id="edge30_Node000028_Node000020" class="edge">
<title>Node28&#45;&gt;Node20</title>
<g id="a_edge30_Node000028_Node000020"><a xlink:title=" ">
<path fill="none" stroke="#63b8ff" d="M1143.93,-186.96C1165.11,-180.69 1187.26,-169.83 1200,-151 1215.77,-127.69 1183.53,-107.22 1155.83,-94.75"/>
<polygon fill="#63b8ff" stroke="#63b8ff" points="1156.88,-91.39 1146.31,-90.68 1154.13,-97.83 1156.88,-91.39"/>
</a>
</g>
</g>
<!-- Node29 -->
<g id="Node000029" class="node">
<title>Node29</title>
<g id="a_Node000029"><a xlink:title=" ">
<polygon fill="#e0e0e0" stroke="#999999" points="983.5,-151 910.5,-151 910.5,-132 983.5,-132 983.5,-151"/>
<text text-anchor="middle" x="947" y="-139" font-family="Helvetica,sans-Serif" font-size="10.00">G4Types.hh</text>
</a>
</g>
</g>
<!-- Node28&#45;&gt;Node29 -->
<g id="edge31_Node000028_Node000029" class="edge">
<title>Node28&#45;&gt;Node29</title>
<g id="a_edge31_Node000028_Node000029"><a xlink:title=" ">
<path fill="none" stroke="#63b8ff" d="M1066.19,-186.98C1042.83,-178.27 1006.3,-164.63 979.83,-154.75"/>
<polygon fill="#63b8ff" stroke="#63b8ff" points="980.82,-151.39 970.23,-151.17 978.37,-157.95 980.82,-151.39"/>
</a>
</g>
</g>
<!-- Node30 -->
<g id="Node000030" class="node">
<title>Node30</title>
<g id="a_Node000030"><a xlink:title=" ">
<polygon fill="#e0e0e0" stroke="#999999" points="1040,-151 1002,-151 1002,-132 1040,-132 1040,-151"/>
<text text-anchor="middle" x="1021" y="-139" font-family="Helvetica,sans-Serif" font-size="10.00">map</text>
</a>
</g>
</g>
<!-- Node28&#45;&gt;Node30 -->
<g id="edge32_Node000028_Node000030" class="edge">
<title>Node28&#45;&gt;Node30</title>
<g id="a_edge32_Node000028_Node000030"><a xlink:title=" ">
<path fill="none" stroke="#63b8ff" d="M1078.07,-186.98C1067.92,-179.07 1052.58,-167.11 1040.35,-157.58"/>
<polygon fill="#63b8ff" stroke="#63b8ff" points="1042.16,-154.56 1032.12,-151.17 1037.86,-160.08 1042.16,-154.56"/>
</a>
</g>
</g>
<!-- Node31 -->
<g id="Node000031" class="node">
<title>Node31</title>
<g id="a_Node000031"><a xlink:title=" ">
<polygon fill="#e0e0e0" stroke="#999999" points="1119.5,-151 1058.5,-151 1058.5,-132 1119.5,-132 1119.5,-151"/>
<text text-anchor="middle" x="1089" y="-139" font-family="Helvetica,sans-Serif" font-size="10.00">TGraph.h</text>
</a>
</g>
</g>
<!-- Node28&#45;&gt;Node31 -->
<g id="edge33_Node000028_Node000031" class="edge">
<title>Node28&#45;&gt;Node31</title>
<g id="a_edge33_Node000028_Node000031"><a xlink:title=" ">
<path fill="none" stroke="#63b8ff" d="M1089,-186.75C1089,-179.8 1089,-169.85 1089,-161.13"/>
<polygon fill="#63b8ff" stroke="#63b8ff" points="1092.5,-161.09 1089,-151.09 1085.5,-161.09 1092.5,-161.09"/>
</a>
</g>
</g>
<!-- Node32 -->
<g id="Node000032" class="node">
<title>Node32</title>
<g id="a_Node000032"><a xlink:title=" ">
<polygon fill="#e0e0e0" stroke="#999999" points="1190.5,-151 1137.5,-151 1137.5,-132 1190.5,-132 1190.5,-151"/>
<text text-anchor="middle" x="1164" y="-139" font-family="Helvetica,sans-Serif" font-size="10.00">TH2D.h</text>
</a>
</g>
</g>
<!-- Node28&#45;&gt;Node32 -->
<g id="edge34_Node000028_Node000032" class="edge">
<title>Node28&#45;&gt;Node32</title>
<g id="a_edge34_Node000028_Node000032"><a xlink:title=" ">
<path fill="none" stroke="#63b8ff" d="M1101.05,-186.98C1112.46,-178.92 1129.83,-166.65 1143.43,-157.03"/>
<polygon fill="#63b8ff" stroke="#63b8ff" points="1145.58,-159.8 1151.73,-151.17 1141.54,-154.08 1145.58,-159.8"/>
</a>
</g>
</g>
<!-- Node36&#45;&gt;Node18 -->
<g id="edge42_Node000036_Node000018" class="edge">
<title>Node36&#45;&gt;Node18</title>
<g id="a_edge42_Node000036_Node000018"><a xlink:title=" ">
<path fill="none" stroke="#63b8ff" d="M1279.17,-406.77C1287.41,-388.69 1305,-345.64 1305,-307.5 1305,-307.5 1305,-307.5 1305,-140.5 1305,-102.98 1306.38,-59.13 1307.27,-34.76"/>
<polygon fill="#63b8ff" stroke="#63b8ff" points="1310.76,-34.88 1307.64,-24.75 1303.77,-34.61 1310.76,-34.88"/>
</a>
</g>
</g>
<!-- Node37 -->
<g id="Node000037" class="node">
<title>Node37</title>
<g id="a_Node000037"><a xlink:title=" ">
<polygon fill="#e0e0e0" stroke="#999999" points="1276.5,-371 1173.5,-371 1173.5,-352 1276.5,-352 1276.5,-371"/>
<text text-anchor="middle" x="1225" y="-359" font-family="Helvetica,sans-Serif" font-size="10.00">G4ThreeVector.hh</text>
</a>
</g>
</g>
<!-- Node36&#45;&gt;Node37 -->
<g id="edge40_Node000036_Node000037" class="edge">
<title>Node36&#45;&gt;Node37</title>
<g id="a_edge40_Node000036_Node000037"><a xlink:title=" ">
<path fill="none" stroke="#63b8ff" d="M1266.74,-406.75C1259.54,-399.11 1248.89,-387.82 1240.15,-378.56"/>
<polygon fill="#63b8ff" stroke="#63b8ff" points="1242.51,-375.96 1233.1,-371.09 1237.42,-380.76 1242.51,-375.96"/>
</a>
</g>
</g>
<!-- Node38 -->
<g id="Node000038" class="node">
<title>Node38</title>
<g id="a_Node000038"><a xlink:title=" ">
<polygon fill="#e0e0e0" stroke="#999999" points="1388.5,-371 1333.5,-371 1333.5,-352 1388.5,-352 1388.5,-371"/>
<text text-anchor="middle" x="1361" y="-359" font-family="Helvetica,sans-Serif" font-size="10.00">fstream</text>
</a>
</g>
</g>
<!-- Node36&#45;&gt;Node38 -->
<g id="edge41_Node000036_Node000038" class="edge">
<title>Node36&#45;&gt;Node38</title>
<g id="a_edge41_Node000036_Node000038"><a xlink:title=" ">
<path fill="none" stroke="#63b8ff" d="M1288.82,-406.98C1302.15,-398.77 1322.58,-386.18 1338.31,-376.49"/>
<polygon fill="#63b8ff" stroke="#63b8ff" points="1340.25,-379.4 1346.93,-371.17 1336.58,-373.44 1340.25,-379.4"/>
</a>
</g>
</g>
<!-- Node39&#45;&gt;Node4 -->
<g id="edge44_Node000039_Node000004" class="edge">
<title>Node39&#45;&gt;Node4</title>
<g id="a_edge44_Node000039_Node000004"><a xlink:title=" ">
<path fill="none" stroke="#63b8ff" d="M896.62,-407C914.38,-398.62 941.67,-385.07 964,-371 987.84,-355.98 1013.42,-336.02 1030.01,-322.52"/>
<polygon fill="#63b8ff" stroke="#63b8ff" points="1032.3,-325.17 1037.8,-316.11 1027.86,-319.76 1032.3,-325.17"/>
</a>
</g>
</g>
<!-- Node39&#45;&gt;Node5 -->
<g id="edge45_Node000039_Node000005" class="edge">
<title>Node39&#45;&gt;Node5</title>
<g id="a_edge45_Node000039_Node000005"><a xlink:title=" ">
<path fill="none" stroke="#63b8ff" d="M831.98,-406.92C785.82,-395.41 718.2,-369.82 694,-316 679.29,-283.28 684.62,-240.15 689.51,-215.98"/>
<polygon fill="#63b8ff" stroke="#63b8ff" points="692.97,-216.56 691.73,-206.03 686.14,-215.04 692.97,-216.56"/>
</a>
</g>
</g>
<!-- Node40 -->
<g id="Node000040" class="node">
<title>Node40</title>
<g id="a_Node000040"><a xlink:href="_o_m_sim_detector_construction_8hh_source.html" target="_top" xlink:title=" ">
<polygon fill="white" stroke="#666666" points="955,-371 785,-371 785,-352 955,-352 955,-371"/>
<text text-anchor="middle" x="870" y="-359" font-family="Helvetica,sans-Serif" font-size="10.00">OMSimDetectorConstruction.hh</text>
</a>
</g>
</g>
<!-- Node39&#45;&gt;Node40 -->
<g id="edge46_Node000039_Node000040" class="edge">
<title>Node39&#45;&gt;Node40</title>
<g id="a_edge46_Node000039_Node000040"><a xlink:title=" ">
<path fill="none" stroke="#63b8ff" d="M876.68,-406.75C875.63,-399.8 874.13,-389.85 872.81,-381.13"/>
<polygon fill="#63b8ff" stroke="#63b8ff" points="876.25,-380.45 871.3,-371.09 869.33,-381.5 876.25,-380.45"/>
</a>
</g>
</g>
<!-- Node41 -->
<g id="Node000041" class="node">
<title>Node41</title>
<g id="a_Node000041"><a xlink:title=" ">
<polygon fill="#e0e0e0" stroke="#999999" points="765,-316 703,-316 703,-297 765,-297 765,-316"/>
<text text-anchor="middle" x="734" y="-304" font-family="Helvetica,sans-Serif" font-size="10.00">G4Orb.hh</text>
</a>
</g>
</g>
<!-- Node39&#45;&gt;Node41 -->
<g id="edge50_Node000039_Node000041" class="edge">
<title>Node39&#45;&gt;Node41</title>
<g id="a_edge50_Node000039_Node000041"><a xlink:title=" ">
<path fill="none" stroke="#63b8ff" d="M846.44,-406.94C824.86,-399.91 796.56,-388.28 776,-371 761.02,-358.41 749.32,-339.14 742.11,-325.13"/>
<polygon fill="#63b8ff" stroke="#63b8ff" points="745.21,-323.49 737.68,-316.03 738.91,-326.55 745.21,-323.49"/>
</a>
</g>
</g>
<!-- Node40&#45;&gt;Node4 -->
<g id="edge47_Node000040_Node000004" class="edge">
<title>Node40&#45;&gt;Node4</title>
<g id="a_edge47_Node000040_Node000004"><a xlink:title=" ">
<path fill="none" stroke="#63b8ff" d="M898.6,-351.98C928.61,-343.05 975.98,-328.94 1009.32,-319.02"/>
<polygon fill="#63b8ff" stroke="#63b8ff" points="1010.59,-322.29 1019.18,-316.08 1008.59,-315.58 1010.59,-322.29"/>
</a>
</g>
</g>
<!-- Node40&#45;&gt;Node41 -->
<g id="edge48_Node000040_Node000041" class="edge">
<title>Node40&#45;&gt;Node41</title>
<g id="a_edge48_Node000040_Node000041"><a xlink:title=" ">
<path fill="none" stroke="#63b8ff" d="M848.15,-351.98C825.88,-343.3 791.1,-329.75 765.78,-319.88"/>
<polygon fill="#63b8ff" stroke="#63b8ff" points="766.84,-316.54 756.25,-316.17 764.29,-323.06 766.84,-316.54"/>
</a>
</g>
</g>
<!-- Node42 -->
<g id="Node000042" class="node">
<title>Node42</title>
<g id="a_Node000042"><a xlink:title=" ">
<polygon fill="#e0e0e0" stroke="#999999" points="961,-316 783,-316 783,-297 961,-297 961,-316"/>
<text text-anchor="middle" x="872" y="-304" font-family="Helvetica,sans-Serif" font-size="10.00">G4VUserDetectorConstruction.hh</text>
</a>
</g>
</g>
<!-- Node40&#45;&gt;Node42 -->
<g id="edge49_Node000040_Node000042" class="edge">
<title>Node40&#45;&gt;Node42</title>
<g id="a_edge49_Node000040_Node000042"><a xlink:title=" ">
<path fill="none" stroke="#63b8ff" d="M870.33,-351.75C870.59,-344.8 870.97,-334.85 871.3,-326.13"/>
<polygon fill="#63b8ff" stroke="#63b8ff" points="874.8,-326.21 871.68,-316.09 867.8,-325.95 874.8,-326.21"/>
</a>
</g>
</g>
</g>
</svg>
