<?xml version="1.0" encoding="UTF-8" standalone="no"?>
<!DOCTYPE svg PUBLIC "-//W3C//DTD SVG 1.1//EN"
 "http://www.w3.org/Graphics/SVG/1.1/DTD/svg11.dtd">
<!-- Generated by graphviz version 2.43.0 (0)
 -->
<!-- Title: OMSimSNParticleGenerators.hh Pages: 1 -->
<svg width="1042pt" height="137pt"
 viewBox="0.00 0.00 1041.50 137.00" xmlns="http://www.w3.org/2000/svg" xmlns:xlink="http://www.w3.org/1999/xlink">
<g id="graph0" class="graph" transform="scale(1 1) rotate(0) translate(4 133)">
<title>OMSimSNParticleGenerators.hh</title>
<!-- Node1 -->
<g id="Node000001" class="node">
<title>Node1</title>
<g id="a_Node000001"><a xlink:title="This file contains the classes in charge of particle generation.">
<polygon fill="#999999" stroke="#666666" points="607,-129 437,-129 437,-110 607,-110 607,-129"/>
<text text-anchor="middle" x="522" y="-117" font-family="Helvetica,sans-Serif" font-size="10.00">OMSimSNParticleGenerators.hh</text>
</a>
</g>
</g>
<!-- Node2 -->
<g id="Node000002" class="node">
<title>Node2</title>
<g id="a_Node000002"><a xlink:title=" ">
<polygon fill="#e0e0e0" stroke="#999999" points="192,-74 0,-74 0,-55 192,-55 192,-74"/>
<text text-anchor="middle" x="96" y="-62" font-family="Helvetica,sans-Serif" font-size="10.00">G4VUserPrimaryGeneratorAction.hh</text>
</a>
</g>
</g>
<!-- Node1&#45;&gt;Node2 -->
<g id="edge1_Node000001_Node000002" class="edge">
<title>Node1&#45;&gt;Node2</title>
<g id="a_edge1_Node000001_Node000002"><a xlink:title=" ">
<path fill="none" stroke="#63b8ff" d="M453.56,-109.98C377.43,-100.51 254.67,-85.24 174.65,-75.29"/>
<polygon fill="#63b8ff" stroke="#63b8ff" points="174.98,-71.8 164.63,-74.04 174.12,-78.75 174.98,-71.8"/>
</a>
</g>
</g>
<!-- Node3 -->
<g id="Node000003" class="node">
<title>Node3</title>
<g id="a_Node000003"><a xlink:href="_o_m_sim_primary_generator_messenger_8hh_source.html" target="_top" xlink:title=" ">
<polygon fill="white" stroke="#666666" points="416,-74 210,-74 210,-55 416,-55 416,-74"/>
<text text-anchor="middle" x="313" y="-62" font-family="Helvetica,sans-Serif" font-size="10.00">OMSimPrimaryGeneratorMessenger.hh</text>
</a>
</g>
</g>
<!-- Node1&#45;&gt;Node3 -->
<g id="edge2_Node000001_Node000003" class="edge">
<title>Node1&#45;&gt;Node3</title>
<g id="a_edge2_Node000001_Node000003"><a xlink:title=" ">
<path fill="none" stroke="#63b8ff" d="M488.42,-109.98C452.65,-100.91 395.88,-86.52 356.66,-76.57"/>
<polygon fill="#63b8ff" stroke="#63b8ff" points="357.4,-73.15 346.84,-74.08 355.68,-79.93 357.4,-73.15"/>
</a>
</g>
</g>
<!-- Node5 -->
<g id="Node000005" class="node">
<title>Node5</title>
<g id="a_Node000005"><a xlink:title=" ">
<polygon fill="#e0e0e0" stroke="#999999" points="450.5,-19 383.5,-19 383.5,0 450.5,0 450.5,-19"/>
<text text-anchor="middle" x="417" y="-7" font-family="Helvetica,sans-Serif" font-size="10.00">globals.hh</text>
</a>
</g>
</g>
<!-- Node1&#45;&gt;Node5 -->
<g id="edge11_Node000001_Node000005" class="edge">
<title>Node1&#45;&gt;Node5</title>
<g id="a_edge11_Node000001_Node000005"><a xlink:title=" ">
<path fill="none" stroke="#63b8ff" d="M513.41,-109.66C495.71,-91.46 454.96,-49.55 432.52,-26.47"/>
<polygon fill="#63b8ff" stroke="#63b8ff" points="434.9,-23.89 425.42,-19.16 429.88,-28.77 434.9,-23.89"/>
</a>
</g>
</g>
<!-- Node6 -->
<g id="Node000006" class="node">
<title>Node6</title>
<g id="a_Node000006"><a xlink:href="_o_m_sim_s_n_tools_8hh.html" target="_top" xlink:title="Provides the definition for the OMSimSNTools class, centralizing utility methods for Supernova (SN) n...">
<polygon fill="white" stroke="#666666" points="615.5,-74 510.5,-74 510.5,-55 615.5,-55 615.5,-74"/>
<text text-anchor="middle" x="563" y="-62" font-family="Helvetica,sans-Serif" font-size="10.00">OMSimSNTools.hh</text>
</a>
</g>
</g>
<!-- Node1&#45;&gt;Node6 -->
<g id="edge5_Node000001_Node000006" class="edge">
<title>Node1&#45;&gt;Node6</title>
<g id="a_edge5_Node000001_Node000006"><a xlink:title=" ">
<path fill="none" stroke="#63b8ff" d="M528.77,-109.75C534.56,-102.26 543.06,-91.28 550.14,-82.13"/>
<polygon fill="#63b8ff" stroke="#63b8ff" points="553.01,-84.14 556.36,-74.09 547.47,-79.86 553.01,-84.14"/>
</a>
</g>
</g>
<!-- Node7 -->
<g id="Node000007" class="node">
<title>Node7</title>
<g id="a_Node000007"><a xlink:title=" ">
<polygon fill="#e0e0e0" stroke="#999999" points="515.5,-19 468.5,-19 468.5,0 515.5,0 515.5,-19"/>
<text text-anchor="middle" x="492" y="-7" font-family="Helvetica,sans-Serif" font-size="10.00">vector</text>
</a>
</g>
</g>
<!-- Node1&#45;&gt;Node7 -->
<g id="edge12_Node000001_Node000007" class="edge">
<title>Node1&#45;&gt;Node7</title>
<g id="a_edge12_Node000001_Node000007"><a xlink:title=" ">
<path fill="none" stroke="#63b8ff" d="M517.01,-109.94C512.14,-101.2 504.92,-87.09 501,-74 496.65,-59.46 494.38,-42.41 493.21,-29.64"/>
<polygon fill="#63b8ff" stroke="#63b8ff" points="496.67,-29.01 492.41,-19.3 489.69,-29.54 496.67,-29.01"/>
</a>
</g>
</g>
<!-- Node10 -->
<g id="Node000010" class="node">
<title>Node10</title>
<g id="a_Node000010"><a xlink:title=" ">
<polygon fill="#e0e0e0" stroke="#999999" points="744,-74 634,-74 634,-55 744,-55 744,-74"/>
<text text-anchor="middle" x="689" y="-62" font-family="Helvetica,sans-Serif" font-size="10.00">G4RandomTools.hh</text>
</a>
</g>
</g>
<!-- Node1&#45;&gt;Node10 -->
<g id="edge10_Node000001_Node000010" class="edge">
<title>Node1&#45;&gt;Node10</title>
<g id="a_edge10_Node000001_Node000010"><a xlink:title=" ">
<path fill="none" stroke="#63b8ff" d="M548.83,-109.98C576.87,-101.09 621.05,-87.07 652.3,-77.15"/>
<polygon fill="#63b8ff" stroke="#63b8ff" points="653.49,-80.44 661.96,-74.08 651.37,-73.77 653.49,-80.44"/>
</a>
</g>
</g>
<!-- Node11 -->
<g id="Node000011" class="node">
<title>Node11</title>
<g id="a_Node000011"><a xlink:title=" ">
<polygon fill="#e0e0e0" stroke="#999999" points="896,-74 762,-74 762,-55 896,-55 896,-74"/>
<text text-anchor="middle" x="829" y="-62" font-family="Helvetica,sans-Serif" font-size="10.00">G4PhysicalConstants.hh</text>
</a>
</g>
</g>
<!-- Node1&#45;&gt;Node11 -->
<g id="edge13_Node000001_Node000011" class="edge">
<title>Node1&#45;&gt;Node11</title>
<g id="a_edge13_Node000001_Node000011"><a xlink:title=" ">
<path fill="none" stroke="#63b8ff" d="M571.32,-109.98C625.29,-100.67 711.78,-85.74 769.48,-75.78"/>
<polygon fill="#63b8ff" stroke="#63b8ff" points="770.28,-79.19 779.54,-74.04 769.09,-72.29 770.28,-79.19"/>
</a>
</g>
</g>
<!-- Node12 -->
<g id="Node000012" class="node">
<title>Node12</title>
<g id="a_Node000012"><a xlink:title=" ">
<polygon fill="#e0e0e0" stroke="#999999" points="1033.5,-74 914.5,-74 914.5,-55 1033.5,-55 1033.5,-74"/>
<text text-anchor="middle" x="974" y="-62" font-family="Helvetica,sans-Serif" font-size="10.00">G4SystemOfUnits.hh</text>
</a>
</g>
</g>
<!-- Node1&#45;&gt;Node12 -->
<g id="edge14_Node000001_Node000012" class="edge">
<title>Node1&#45;&gt;Node12</title>
<g id="a_edge14_Node000001_Node000012"><a xlink:title=" ">
<path fill="none" stroke="#63b8ff" d="M596.52,-110C671.45,-101.41 790.59,-87.66 903.92,-74.12"/>
<polygon fill="#63b8ff" stroke="#63b8ff" points="904.65,-77.56 914.16,-72.9 903.82,-70.61 904.65,-77.56"/>
</a>
</g>
</g>
<!-- Node4 -->
<g id="Node000004" class="node">
<title>Node4</title>
<g id="a_Node000004"><a xlink:title=" ">
<polygon fill="#e0e0e0" stroke="#999999" points="365.5,-19 256.5,-19 256.5,0 365.5,0 365.5,-19"/>
<text text-anchor="middle" x="311" y="-7" font-family="Helvetica,sans-Serif" font-size="10.00">G4UImessenger.hh</text>
</a>
</g>
</g>
<!-- Node3&#45;&gt;Node4 -->
<g id="edge3_Node000003_Node000004" class="edge">
<title>Node3&#45;&gt;Node4</title>
<g id="a_edge3_Node000003_Node000004"><a xlink:title=" ">
<path fill="none" stroke="#63b8ff" d="M312.67,-54.75C312.41,-47.8 312.03,-37.85 311.7,-29.13"/>
<polygon fill="#63b8ff" stroke="#63b8ff" points="315.2,-28.95 311.32,-19.09 308.2,-29.21 315.2,-28.95"/>
</a>
</g>
</g>
<!-- Node3&#45;&gt;Node5 -->
<g id="edge4_Node000003_Node000005" class="edge">
<title>Node3&#45;&gt;Node5</title>
<g id="a_edge4_Node000003_Node000005"><a xlink:title=" ">
<path fill="none" stroke="#63b8ff" d="M329.71,-54.98C346.21,-46.57 371.7,-33.59 390.88,-23.81"/>
<polygon fill="#63b8ff" stroke="#63b8ff" points="392.67,-26.83 399.99,-19.17 389.49,-20.59 392.67,-26.83"/>
</a>
</g>
</g>
<!-- Node6&#45;&gt;Node5 -->
<g id="edge6_Node000006_Node000005" class="edge">
<title>Node6&#45;&gt;Node5</title>
<g id="a_edge6_Node000006_Node000005"><a xlink:title=" ">
<path fill="none" stroke="#63b8ff" d="M539.54,-54.98C515.42,-46.23 477.63,-32.51 450.4,-22.62"/>
<polygon fill="#63b8ff" stroke="#63b8ff" points="451.48,-19.29 440.88,-19.17 449.09,-25.87 451.48,-19.29"/>
</a>
</g>
</g>
<!-- Node6&#45;&gt;Node7 -->
<g id="edge7_Node000006_Node000007" class="edge">
<title>Node6&#45;&gt;Node7</title>
<g id="a_edge7_Node000006_Node000007"><a xlink:title=" ">
<path fill="none" stroke="#63b8ff" d="M551.59,-54.98C540.89,-47 524.66,-34.88 511.84,-25.31"/>
<polygon fill="#63b8ff" stroke="#63b8ff" points="513.72,-22.35 503.61,-19.17 509.53,-27.96 513.72,-22.35"/>
</a>
</g>
</g>
<!-- Node8 -->
<g id="Node000008" class="node">
<title>Node8</title>
<g id="a_Node000008"><a xlink:title=" ">
<polygon fill="#e0e0e0" stroke="#999999" points="715.5,-19 612.5,-19 612.5,0 715.5,0 715.5,-19"/>
<text text-anchor="middle" x="664" y="-7" font-family="Helvetica,sans-Serif" font-size="10.00">G4ThreeVector.hh</text>
</a>
</g>
</g>
<!-- Node6&#45;&gt;Node8 -->
<g id="edge8_Node000006_Node000008" class="edge">
<title>Node6&#45;&gt;Node8</title>
<g id="a_edge8_Node000006_Node000008"><a xlink:title=" ">
<path fill="none" stroke="#63b8ff" d="M579.23,-54.98C595.18,-46.61 619.78,-33.7 638.38,-23.95"/>
<polygon fill="#63b8ff" stroke="#63b8ff" points="640.25,-26.92 647.48,-19.17 637,-20.72 640.25,-26.92"/>
</a>
</g>
</g>
<!-- Node9 -->
<g id="Node000009" class="node">
<title>Node9</title>
<g id="a_Node000009"><a xlink:title=" ">
<polygon fill="#e0e0e0" stroke="#999999" points="594.5,-19 533.5,-19 533.5,0 594.5,0 594.5,-19"/>
<text text-anchor="middle" x="564" y="-7" font-family="Helvetica,sans-Serif" font-size="10.00">TGraph.h</text>
</a>
</g>
</g>
<!-- Node6&#45;&gt;Node9 -->
<g id="edge9_Node000006_Node000009" class="edge">
<title>Node6&#45;&gt;Node9</title>
<g id="a_edge9_Node000006_Node000009"><a xlink:title=" ">
<path fill="none" stroke="#63b8ff" d="M563.17,-54.75C563.3,-47.8 563.48,-37.85 563.65,-29.13"/>
<polygon fill="#63b8ff" stroke="#63b8ff" points="567.15,-29.15 563.84,-19.09 560.15,-29.02 567.15,-29.15"/>
</a>
</g>
</g>
</g>
</svg>
