<?xml version="1.0" encoding="UTF-8" standalone="no"?>
<!DOCTYPE svg PUBLIC "-//W3C//DTD SVG 1.1//EN"
 "http://www.w3.org/Graphics/SVG/1.1/DTD/svg11.dtd">
<!-- Generated by graphviz version 2.43.0 (0)
 -->
<!-- Title: OMSimEffectiveAreaDetector.cc Pages: 1 -->
<svg width="1437pt" height="498pt"
 viewBox="0.00 0.00 1436.50 498.00" xmlns="http://www.w3.org/2000/svg" xmlns:xlink="http://www.w3.org/1999/xlink">
<g id="graph0" class="graph" transform="scale(1 1) rotate(0) translate(4 494)">
<title>OMSimEffectiveAreaDetector.cc</title>
<polygon fill="white" stroke="transparent" points="-4,4 -4,-494 1432.5,-494 1432.5,4 -4,4"/>
<!-- Node1 -->
<g id="node1" class="node">
<title>Node1</title>
<g id="a_node1"><a xlink:title=" ">
<polygon fill="#bfbfbf" stroke="black" points="826.5,-470.5 826.5,-489.5 998.5,-489.5 998.5,-470.5 826.5,-470.5"/>
<text text-anchor="middle" x="912.5" y="-477.5" font-family="Helvetica,sans-Serif" font-size="10.00">OMSimEffectiveAreaDetector.cc</text>
</a>
</g>
</g>
<!-- Node2 -->
<g id="node2" class="node">
<title>Node2</title>
<g id="a_node2"><a xlink:href="_o_m_sim_effective_area_detector_8hh.html" target="_top" xlink:title="Defines the OMSimEffectiveAreaDetector class for effective area simulation detector construction.">
<polygon fill="white" stroke="black" points="826,-414.5 826,-433.5 999,-433.5 999,-414.5 826,-414.5"/>
<text text-anchor="middle" x="912.5" y="-421.5" font-family="Helvetica,sans-Serif" font-size="10.00">OMSimEffectiveAreaDetector.hh</text>
</a>
</g>
</g>
<!-- Node1&#45;&gt;Node2 -->
<g id="edge1" class="edge">
<title>Node1&#45;&gt;Node2</title>
<path fill="none" stroke="midnightblue" d="M912.5,-470.08C912.5,-463.01 912.5,-452.86 912.5,-443.99"/>
<polygon fill="midnightblue" stroke="midnightblue" points="916,-443.75 912.5,-433.75 909,-443.75 916,-443.75"/>
</g>
<!-- Node19 -->
<g id="node19" class="node">
<title>Node19</title>
<g id="a_node19"><a xlink:href="_o_m_sim_hit_manager_8hh.html" target="_top" xlink:title="Defines structures and classes related to optical module photon hit management.">
<polygon fill="white" stroke="black" points="732,-246.5 732,-265.5 855,-265.5 855,-246.5 732,-246.5"/>
<text text-anchor="middle" x="793.5" y="-253.5" font-family="Helvetica,sans-Serif" font-size="10.00">OMSimHitManager.hh</text>
</a>
</g>
</g>
<!-- Node1&#45;&gt;Node19 -->
<g id="edge61" class="edge">
<title>Node1&#45;&gt;Node19</title>
<path fill="none" stroke="midnightblue" d="M963.47,-470.48C986,-464.13 1010.87,-453.1 1026.5,-434 1064.08,-388.08 1084.61,-347.48 1046.5,-302 1034.86,-288.11 936.05,-273.72 865.43,-265.06"/>
<polygon fill="midnightblue" stroke="midnightblue" points="865.57,-261.56 855.23,-263.83 864.73,-268.5 865.57,-261.56"/>
</g>
<!-- Node30 -->
<g id="node30" class="node">
<title>Node30</title>
<g id="a_node30"><a xlink:title=" ">
<polygon fill="white" stroke="#bfbfbf" points="975.5,-302.5 975.5,-321.5 1037.5,-321.5 1037.5,-302.5 975.5,-302.5"/>
<text text-anchor="middle" x="1006.5" y="-309.5" font-family="Helvetica,sans-Serif" font-size="10.00">G4Orb.hh</text>
</a>
</g>
</g>
<!-- Node1&#45;&gt;Node30 -->
<g id="edge63" class="edge">
<title>Node1&#45;&gt;Node30</title>
<path fill="none" stroke="midnightblue" d="M952.93,-470.45C972.92,-463.99 995.33,-452.86 1007.5,-434 1027.64,-402.79 1019.48,-356.96 1012.51,-331.6"/>
<polygon fill="midnightblue" stroke="midnightblue" points="1015.8,-330.39 1009.58,-321.8 1009.09,-332.39 1015.8,-330.39"/>
</g>
<!-- Node32 -->
<g id="node32" class="node">
<title>Node32</title>
<g id="a_node32"><a xlink:href="_o_m_sim_p_d_o_m_8hh.html" target="_top" xlink:title="Implementation of the pDOM/Gen1 DOM class.">
<polygon fill="white" stroke="black" points="46,-358.5 46,-377.5 143,-377.5 143,-358.5 46,-358.5"/>
<text text-anchor="middle" x="94.5" y="-365.5" font-family="Helvetica,sans-Serif" font-size="10.00">OMSimPDOM.hh</text>
</a>
</g>
</g>
<!-- Node1&#45;&gt;Node32 -->
<g id="edge35" class="edge">
<title>Node1&#45;&gt;Node32</title>
<path fill="none" stroke="midnightblue" d="M826.3,-477C713.99,-473.29 511.84,-462.89 341.5,-434 265.18,-421.06 178.08,-395.54 130.4,-380.61"/>
<polygon fill="midnightblue" stroke="midnightblue" points="131.43,-377.27 120.84,-377.6 129.33,-383.95 131.43,-377.27"/>
</g>
<!-- Node33 -->
<g id="node33" class="node">
<title>Node33</title>
<g id="a_node33"><a xlink:href="_o_m_sim_l_o_m16_8hh.html" target="_top" xlink:title="Construction of LOM16.">
<polygon fill="white" stroke="black" points="161,-358.5 161,-377.5 262,-377.5 262,-358.5 161,-358.5"/>
<text text-anchor="middle" x="211.5" y="-365.5" font-family="Helvetica,sans-Serif" font-size="10.00">OMSimLOM16.hh</text>
</a>
</g>
</g>
<!-- Node1&#45;&gt;Node33 -->
<g id="edge38" class="edge">
<title>Node1&#45;&gt;Node33</title>
<path fill="none" stroke="midnightblue" d="M826.39,-476.6C727.56,-472.58 560.99,-461.95 420.5,-434 356.25,-421.22 283.76,-396.18 243.26,-381.18"/>
<polygon fill="midnightblue" stroke="midnightblue" points="244.27,-377.82 233.68,-377.6 241.82,-384.38 244.27,-377.82"/>
</g>
<!-- Node34 -->
<g id="node34" class="node">
<title>Node34</title>
<g id="a_node34"><a xlink:href="_o_m_sim_l_o_m18_8hh.html" target="_top" xlink:title="Construction of LOM18.">
<polygon fill="white" stroke="black" points="469,-414.5 469,-433.5 570,-433.5 570,-414.5 469,-414.5"/>
<text text-anchor="middle" x="519.5" y="-421.5" font-family="Helvetica,sans-Serif" font-size="10.00">OMSimLOM18.hh</text>
</a>
</g>
</g>
<!-- Node1&#45;&gt;Node34 -->
<g id="edge41" class="edge">
<title>Node1&#45;&gt;Node34</title>
<path fill="none" stroke="midnightblue" d="M850.23,-470.44C776.22,-460.28 653.57,-443.42 580.24,-433.35"/>
<polygon fill="midnightblue" stroke="midnightblue" points="580.62,-429.86 570.23,-431.97 579.66,-436.8 580.62,-429.86"/>
</g>
<!-- Node35 -->
<g id="node35" class="node">
<title>Node35</title>
<g id="a_node35"><a xlink:title=" ">
<polygon fill="white" stroke="#bfbfbf" points="581.5,-358.5 581.5,-377.5 697.5,-377.5 697.5,-358.5 581.5,-358.5"/>
<text text-anchor="middle" x="639.5" y="-365.5" font-family="Helvetica,sans-Serif" font-size="10.00">G4LogicalVolume.hh</text>
</a>
</g>
</g>
<!-- Node1&#45;&gt;Node35 -->
<g id="edge70" class="edge">
<title>Node1&#45;&gt;Node35</title>
<path fill="none" stroke="midnightblue" d="M889.14,-470.46C865.07,-461.6 826.52,-447.21 793.5,-434 749.74,-416.5 699.51,-395.04 668.65,-381.69"/>
<polygon fill="midnightblue" stroke="midnightblue" points="669.9,-378.42 659.34,-377.66 667.12,-384.84 669.9,-378.42"/>
</g>
<!-- Node37 -->
<g id="node37" class="node">
<title>Node37</title>
<g id="a_node37"><a xlink:href="_o_m_sim_d_e_g_g_8hh.html" target="_top" xlink:title="Construction of the DEGG class.">
<polygon fill="white" stroke="black" points="716,-358.5 716,-377.5 811,-377.5 811,-358.5 716,-358.5"/>
<text text-anchor="middle" x="763.5" y="-365.5" font-family="Helvetica,sans-Serif" font-size="10.00">OMSimDEGG.hh</text>
</a>
</g>
</g>
<!-- Node1&#45;&gt;Node37 -->
<g id="edge46" class="edge">
<title>Node1&#45;&gt;Node37</title>
<path fill="none" stroke="midnightblue" d="M886.29,-470.37C865.93,-462.84 837.69,-450.53 816.5,-434 799.17,-420.48 783.85,-400.31 774.2,-386.03"/>
<polygon fill="midnightblue" stroke="midnightblue" points="777.11,-384.08 768.71,-377.62 771.25,-387.91 777.11,-384.08"/>
</g>
<!-- Node38 -->
<g id="node38" class="node">
<title>Node38</title>
<g id="a_node38"><a xlink:href="_o_m_sim_m_d_o_m_8hh.html" target="_top" xlink:title="Construction of mDOM.">
<polygon fill="white" stroke="black" points="318.5,-358.5 318.5,-377.5 418.5,-377.5 418.5,-358.5 318.5,-358.5"/>
<text text-anchor="middle" x="368.5" y="-365.5" font-family="Helvetica,sans-Serif" font-size="10.00">OMSimMDOM.hh</text>
</a>
</g>
</g>
<!-- Node1&#45;&gt;Node38 -->
<g id="edge49" class="edge">
<title>Node1&#45;&gt;Node38</title>
<path fill="none" stroke="midnightblue" d="M826.03,-475.71C713.76,-470.53 524.51,-458.44 459.5,-434 430.14,-422.96 401.59,-399.97 384.53,-384.5"/>
<polygon fill="midnightblue" stroke="midnightblue" points="386.82,-381.86 377.12,-377.6 382.05,-386.98 386.82,-381.86"/>
</g>
<!-- Node41 -->
<g id="node41" class="node">
<title>Node41</title>
<g id="a_node41"><a xlink:href="_o_m_sim_command_args_table_8hh.html" target="_top" xlink:title="Definition of the OMSimCommandArgsTable singleton class, which controls user args.">
<polygon fill="white" stroke="black" points="893.5,-246.5 893.5,-265.5 1057.5,-265.5 1057.5,-246.5 893.5,-246.5"/>
<text text-anchor="middle" x="975.5" y="-253.5" font-family="Helvetica,sans-Serif" font-size="10.00">OMSimCommandArgsTable.hh</text>
</a>
</g>
</g>
<!-- Node1&#45;&gt;Node41 -->
<g id="edge56" class="edge">
<title>Node1&#45;&gt;Node41</title>
<path fill="none" stroke="midnightblue" d="M973.32,-470.47C1015.51,-463.17 1066.4,-451.1 1079.5,-434 1115.18,-387.43 1111.71,-351.03 1079.5,-302 1068.93,-285.91 1051.24,-275.54 1033.42,-268.88"/>
<polygon fill="midnightblue" stroke="midnightblue" points="1034.14,-265.43 1023.55,-265.54 1031.9,-272.06 1034.14,-265.43"/>
</g>
<!-- Node44 -->
<g id="node44" class="node">
<title>Node44</title>
<g id="a_node44"><a xlink:title=" ">
<polygon fill="white" stroke="#bfbfbf" points="1170,-414.5 1170,-433.5 1271,-433.5 1271,-414.5 1170,-414.5"/>
<text text-anchor="middle" x="1220.5" y="-421.5" font-family="Helvetica,sans-Serif" font-size="10.00">G4SDManager.hh</text>
</a>
</g>
</g>
<!-- Node1&#45;&gt;Node44 -->
<g id="edge62" class="edge">
<title>Node1&#45;&gt;Node44</title>
<path fill="none" stroke="midnightblue" d="M961.3,-470.44C1015.71,-460.9 1103.67,-445.48 1161.79,-435.29"/>
<polygon fill="midnightblue" stroke="midnightblue" points="1162.68,-438.69 1171.92,-433.52 1161.47,-431.8 1162.68,-438.69"/>
</g>
<!-- Node45 -->
<g id="node45" class="node">
<title>Node45</title>
<g id="a_node45"><a xlink:href="_o_m_sim_sensitive_detector_8hh.html" target="_top" xlink:title=" ">
<polygon fill="white" stroke="black" points="1081,-246.5 1081,-265.5 1234,-265.5 1234,-246.5 1081,-246.5"/>
<text text-anchor="middle" x="1157.5" y="-253.5" font-family="Helvetica,sans-Serif" font-size="10.00">OMSimSensitiveDetector.hh</text>
</a>
</g>
</g>
<!-- Node1&#45;&gt;Node45 -->
<g id="edge64" class="edge">
<title>Node1&#45;&gt;Node45</title>
<path fill="none" stroke="midnightblue" d="M976.29,-470.44C1023.39,-462.91 1082.33,-450.56 1100.5,-434 1146.78,-391.8 1155.65,-311.91 1157.23,-275.69"/>
<polygon fill="midnightblue" stroke="midnightblue" points="1160.74,-275.67 1157.53,-265.57 1153.74,-275.46 1160.74,-275.67"/>
</g>
<!-- Node48 -->
<g id="node48" class="node">
<title>Node48</title>
<g id="a_node48"><a xlink:title=" ">
<polygon fill="white" stroke="#bfbfbf" points="1289.5,-414.5 1289.5,-433.5 1353.5,-433.5 1353.5,-414.5 1289.5,-414.5"/>
<text text-anchor="middle" x="1321.5" y="-421.5" font-family="Helvetica,sans-Serif" font-size="10.00">G4Box.hh</text>
</a>
</g>
</g>
<!-- Node1&#45;&gt;Node48 -->
<g id="edge71" class="edge">
<title>Node1&#45;&gt;Node48</title>
<path fill="none" stroke="midnightblue" d="M998.72,-470.78C1071.1,-463.35 1177.41,-451.18 1279.18,-434.09"/>
<polygon fill="midnightblue" stroke="midnightblue" points="1280.05,-437.49 1289.33,-432.36 1278.88,-430.59 1280.05,-437.49"/>
</g>
<!-- Node3 -->
<g id="node3" class="node">
<title>Node3</title>
<g id="a_node3"><a xlink:href="_o_m_sim_detector_construction_8hh.html" target="_top" xlink:title=" ">
<polygon fill="white" stroke="black" points="829.5,-358.5 829.5,-377.5 999.5,-377.5 999.5,-358.5 829.5,-358.5"/>
<text text-anchor="middle" x="914.5" y="-365.5" font-family="Helvetica,sans-Serif" font-size="10.00">OMSimDetectorConstruction.hh</text>
</a>
</g>
</g>
<!-- Node2&#45;&gt;Node3 -->
<g id="edge2" class="edge">
<title>Node2&#45;&gt;Node3</title>
<path fill="none" stroke="midnightblue" d="M912.83,-414.08C913.09,-407.01 913.47,-396.86 913.8,-387.99"/>
<polygon fill="midnightblue" stroke="midnightblue" points="917.3,-387.87 914.18,-377.75 910.31,-387.61 917.3,-387.87"/>
</g>
<!-- Node4 -->
<g id="node4" class="node">
<title>Node4</title>
<g id="a_node4"><a xlink:href="_o_m_sim_optical_module_8hh.html" target="_top" xlink:title=" ">
<polygon fill="white" stroke="black" points="397,-302.5 397,-321.5 534,-321.5 534,-302.5 397,-302.5"/>
<text text-anchor="middle" x="465.5" y="-309.5" font-family="Helvetica,sans-Serif" font-size="10.00">OMSimOpticalModule.hh</text>
</a>
</g>
</g>
<!-- Node3&#45;&gt;Node4 -->
<g id="edge3" class="edge">
<title>Node3&#45;&gt;Node4</title>
<path fill="none" stroke="midnightblue" d="M843.35,-358.44C761.85,-348.64 628.69,-332.63 544.16,-322.46"/>
<polygon fill="midnightblue" stroke="midnightblue" points="544.45,-318.97 534.1,-321.25 543.61,-325.92 544.45,-318.97"/>
</g>
<!-- Node3&#45;&gt;Node30 -->
<g id="edge33" class="edge">
<title>Node3&#45;&gt;Node30</title>
<path fill="none" stroke="midnightblue" d="M929.28,-358.32C943.77,-349.82 966.07,-336.73 982.99,-326.8"/>
<polygon fill="midnightblue" stroke="midnightblue" points="984.9,-329.74 991.76,-321.65 981.36,-323.7 984.9,-329.74"/>
</g>
<!-- Node31 -->
<g id="node31" class="node">
<title>Node31</title>
<g id="a_node31"><a xlink:title=" ">
<polygon fill="white" stroke="#bfbfbf" points="779.5,-302.5 779.5,-321.5 957.5,-321.5 957.5,-302.5 779.5,-302.5"/>
<text text-anchor="middle" x="868.5" y="-309.5" font-family="Helvetica,sans-Serif" font-size="10.00">G4VUserDetectorConstruction.hh</text>
</a>
</g>
</g>
<!-- Node3&#45;&gt;Node31 -->
<g id="edge34" class="edge">
<title>Node3&#45;&gt;Node31</title>
<path fill="none" stroke="midnightblue" d="M906.9,-358.08C900.27,-350.3 890.48,-338.8 882.44,-329.37"/>
<polygon fill="midnightblue" stroke="midnightblue" points="885.1,-327.09 875.95,-321.75 879.77,-331.63 885.1,-327.09"/>
</g>
<!-- Node5 -->
<g id="node5" class="node">
<title>Node5</title>
<g id="a_node5"><a xlink:href="abc_detector_component_8hh.html" target="_top" xlink:title="Provides helper base class abcDetectorComponent for constructing and managing detector components in ...">
<polygon fill="white" stroke="black" points="334,-190.5 334,-209.5 481,-209.5 481,-190.5 334,-190.5"/>
<text text-anchor="middle" x="407.5" y="-197.5" font-family="Helvetica,sans-Serif" font-size="10.00">abcDetectorComponent.hh</text>
</a>
</g>
</g>
<!-- Node4&#45;&gt;Node5 -->
<g id="edge4" class="edge">
<title>Node4&#45;&gt;Node5</title>
<path fill="none" stroke="midnightblue" d="M475.92,-302.36C489.9,-289.68 511.64,-265.45 499.5,-246 489.74,-230.36 472.8,-220.01 456.1,-213.23"/>
<polygon fill="midnightblue" stroke="midnightblue" points="456.94,-209.81 446.35,-209.64 454.52,-216.38 456.94,-209.81"/>
</g>
<!-- Node4&#45;&gt;Node19 -->
<g id="edge18" class="edge">
<title>Node4&#45;&gt;Node19</title>
<path fill="none" stroke="midnightblue" d="M517.47,-302.44C575.65,-292.87 669.86,-277.36 731.75,-267.17"/>
<polygon fill="midnightblue" stroke="midnightblue" points="732.47,-270.59 741.77,-265.52 731.33,-263.69 732.47,-270.59"/>
</g>
<!-- Node27 -->
<g id="node27" class="node">
<title>Node27</title>
<g id="a_node27"><a xlink:href="_o_m_sim_p_m_t_construction_8hh.html" target="_top" xlink:title="Construction of the PMTs.">
<polygon fill="white" stroke="black" points="171,-246.5 171,-265.5 320,-265.5 320,-246.5 171,-246.5"/>
<text text-anchor="middle" x="245.5" y="-253.5" font-family="Helvetica,sans-Serif" font-size="10.00">OMSimPMTConstruction.hh</text>
</a>
</g>
</g>
<!-- Node4&#45;&gt;Node27 -->
<g id="edge27" class="edge">
<title>Node4&#45;&gt;Node27</title>
<path fill="none" stroke="midnightblue" d="M430.64,-302.44C392.58,-293.1 331.54,-278.12 290.04,-267.93"/>
<polygon fill="midnightblue" stroke="midnightblue" points="290.74,-264.5 280.2,-265.52 289.07,-271.3 290.74,-264.5"/>
</g>
<!-- Node6 -->
<g id="node6" class="node">
<title>Node6</title>
<g id="a_node6"><a xlink:href="_o_m_sim_input_data_8hh.html" target="_top" xlink:title="Definition of ParameterTable and InputDataManager.">
<polygon fill="white" stroke="black" points="562,-134.5 562,-153.5 677,-153.5 677,-134.5 562,-134.5"/>
<text text-anchor="middle" x="619.5" y="-141.5" font-family="Helvetica,sans-Serif" font-size="10.00">OMSimInputData.hh</text>
</a>
</g>
</g>
<!-- Node5&#45;&gt;Node6 -->
<g id="edge5" class="edge">
<title>Node5&#45;&gt;Node6</title>
<path fill="none" stroke="midnightblue" d="M441.09,-190.44C477.69,-181.12 536.34,-166.18 576.33,-156"/>
<polygon fill="midnightblue" stroke="midnightblue" points="577.24,-159.38 586.07,-153.52 575.51,-152.59 577.24,-159.38"/>
</g>
<!-- Node15 -->
<g id="node15" class="node">
<title>Node15</title>
<g id="a_node15"><a xlink:title=" ">
<polygon fill="white" stroke="#bfbfbf" points="272,-134.5 272,-153.5 379,-153.5 379,-134.5 272,-134.5"/>
<text text-anchor="middle" x="325.5" y="-141.5" font-family="Helvetica,sans-Serif" font-size="10.00">G4Transform3D.hh</text>
</a>
</g>
</g>
<!-- Node5&#45;&gt;Node15 -->
<g id="edge14" class="edge">
<title>Node5&#45;&gt;Node15</title>
<path fill="none" stroke="midnightblue" d="M394.33,-190.32C381.65,-181.98 362.27,-169.21 347.29,-159.35"/>
<polygon fill="midnightblue" stroke="midnightblue" points="348.92,-156.23 338.64,-153.65 345.07,-162.08 348.92,-156.23"/>
</g>
<!-- Node16 -->
<g id="node16" class="node">
<title>Node16</title>
<g id="a_node16"><a xlink:title=" ">
<polygon fill="white" stroke="#bfbfbf" points="397.5,-134.5 397.5,-153.5 505.5,-153.5 505.5,-134.5 397.5,-134.5"/>
<text text-anchor="middle" x="451.5" y="-141.5" font-family="Helvetica,sans-Serif" font-size="10.00">G4VisAttributes.hh</text>
</a>
</g>
</g>
<!-- Node5&#45;&gt;Node16 -->
<g id="edge15" class="edge">
<title>Node5&#45;&gt;Node16</title>
<path fill="none" stroke="midnightblue" d="M414.77,-190.08C421.04,-182.38 430.29,-171.03 437.93,-161.65"/>
<polygon fill="midnightblue" stroke="midnightblue" points="440.77,-163.71 444.37,-153.75 435.34,-159.29 440.77,-163.71"/>
</g>
<!-- Node17 -->
<g id="node17" class="node">
<title>Node17</title>
<g id="a_node17"><a xlink:title=" ">
<polygon fill="white" stroke="#bfbfbf" points="0,-134.5 0,-153.5 125,-153.5 125,-134.5 0,-134.5"/>
<text text-anchor="middle" x="62.5" y="-141.5" font-family="Helvetica,sans-Serif" font-size="10.00">G4SubtractionSolid.hh</text>
</a>
</g>
</g>
<!-- Node5&#45;&gt;Node17 -->
<g id="edge16" class="edge">
<title>Node5&#45;&gt;Node17</title>
<path fill="none" stroke="midnightblue" d="M352.83,-190.44C291.51,-180.85 192.14,-165.29 127.05,-155.1"/>
<polygon fill="midnightblue" stroke="midnightblue" points="127.33,-151.61 116.91,-153.52 126.25,-158.52 127.33,-151.61"/>
</g>
<!-- Node18 -->
<g id="node18" class="node">
<title>Node18</title>
<g id="a_node18"><a xlink:title=" ">
<polygon fill="white" stroke="#bfbfbf" points="143.5,-134.5 143.5,-153.5 253.5,-153.5 253.5,-134.5 143.5,-134.5"/>
<text text-anchor="middle" x="198.5" y="-141.5" font-family="Helvetica,sans-Serif" font-size="10.00">G4PVPlacement.hh</text>
</a>
</g>
</g>
<!-- Node5&#45;&gt;Node18 -->
<g id="edge17" class="edge">
<title>Node5&#45;&gt;Node18</title>
<path fill="none" stroke="midnightblue" d="M374.38,-190.44C338.38,-181.14 280.73,-166.25 241.31,-156.06"/>
<polygon fill="midnightblue" stroke="midnightblue" points="242.02,-152.63 231.46,-153.52 240.27,-159.41 242.02,-152.63"/>
</g>
<!-- Node7 -->
<g id="node7" class="node">
<title>Node7</title>
<g id="a_node7"><a xlink:href="_o_m_sim_logger_8hh.html" target="_top" xlink:title=" ">
<polygon fill="white" stroke="black" points="848,-73 848,-92 947,-92 947,-73 848,-73"/>
<text text-anchor="middle" x="897.5" y="-80" font-family="Helvetica,sans-Serif" font-size="10.00">OMSimLogger.hh</text>
</a>
</g>
</g>
<!-- Node6&#45;&gt;Node7 -->
<g id="edge6" class="edge">
<title>Node6&#45;&gt;Node7</title>
<path fill="none" stroke="midnightblue" d="M659.33,-134.48C708.98,-123.85 793.85,-105.68 847.73,-94.15"/>
<polygon fill="midnightblue" stroke="midnightblue" points="848.7,-97.52 857.74,-92.01 847.23,-90.68 848.7,-97.52"/>
</g>
<!-- Node12 -->
<g id="node12" class="node">
<title>Node12</title>
<g id="a_node12"><a xlink:title=" ">
<polygon fill="white" stroke="#bfbfbf" points="1061,-73 1061,-92 1204,-92 1204,-73 1061,-73"/>
<text text-anchor="middle" x="1132.5" y="-80" font-family="Helvetica,sans-Serif" font-size="10.00">G4OpBoundaryProcess.hh</text>
</a>
</g>
</g>
<!-- Node6&#45;&gt;Node12 -->
<g id="edge11" class="edge">
<title>Node6&#45;&gt;Node12</title>
<path fill="none" stroke="midnightblue" d="M677.23,-135.17C680.37,-134.77 683.47,-134.37 686.5,-134 813.65,-118.26 961.44,-101.91 1050.91,-92.22"/>
<polygon fill="midnightblue" stroke="midnightblue" points="1051.43,-95.69 1060.99,-91.13 1050.68,-88.73 1051.43,-95.69"/>
</g>
<!-- Node13 -->
<g id="node13" class="node">
<title>Node13</title>
<g id="a_node13"><a xlink:title=" ">
<polygon fill="white" stroke="#bfbfbf" points="474,-73 474,-92 593,-92 593,-73 474,-73"/>
<text text-anchor="middle" x="533.5" y="-80" font-family="Helvetica,sans-Serif" font-size="10.00">G4SystemOfUnits.hh</text>
</a>
</g>
</g>
<!-- Node6&#45;&gt;Node13 -->
<g id="edge12" class="edge">
<title>Node6&#45;&gt;Node13</title>
<path fill="none" stroke="midnightblue" d="M607.18,-134.48C593.38,-124.93 570.8,-109.31 554.27,-97.87"/>
<polygon fill="midnightblue" stroke="midnightblue" points="556.01,-94.82 545.8,-92.01 552.03,-100.58 556.01,-94.82"/>
</g>
<!-- Node14 -->
<g id="node14" class="node">
<title>Node14</title>
<g id="a_node14"><a xlink:title=" ">
<polygon fill="white" stroke="#bfbfbf" points="611,-67.5 611,-97.5 724,-97.5 724,-67.5 611,-67.5"/>
<text text-anchor="start" x="619" y="-85.5" font-family="Helvetica,sans-Serif" font-size="10.00">boost/property_tree</text>
<text text-anchor="middle" x="667.5" y="-74.5" font-family="Helvetica,sans-Serif" font-size="10.00">/json_parser.hpp</text>
</a>
</g>
</g>
<!-- Node6&#45;&gt;Node14 -->
<g id="edge13" class="edge">
<title>Node6&#45;&gt;Node14</title>
<path fill="none" stroke="midnightblue" d="M626.38,-134.48C632.45,-126.94 641.58,-115.63 649.7,-105.57"/>
<polygon fill="midnightblue" stroke="midnightblue" points="652.63,-107.5 656.19,-97.52 647.18,-103.11 652.63,-107.5"/>
</g>
<!-- Node8 -->
<g id="node8" class="node">
<title>Node8</title>
<g id="a_node8"><a xlink:title=" ">
<polygon fill="white" stroke="#bfbfbf" points="679,-6 679,-25 772,-25 772,-6 679,-6"/>
<text text-anchor="middle" x="725.5" y="-13" font-family="Helvetica,sans-Serif" font-size="10.00">spdlog/spdlog.h</text>
</a>
</g>
</g>
<!-- Node7&#45;&gt;Node8 -->
<g id="edge7" class="edge">
<title>Node7&#45;&gt;Node8</title>
<path fill="none" stroke="midnightblue" d="M874.66,-72.87C844.63,-61.52 791.72,-41.52 757.66,-28.65"/>
<polygon fill="midnightblue" stroke="midnightblue" points="758.75,-25.32 748.16,-25.06 756.28,-31.87 758.75,-25.32"/>
</g>
<!-- Node9 -->
<g id="node9" class="node">
<title>Node9</title>
<g id="a_node9"><a xlink:title=" ">
<polygon fill="white" stroke="#bfbfbf" points="790,-0.5 790,-30.5 901,-30.5 901,-0.5 790,-0.5"/>
<text text-anchor="start" x="798" y="-18.5" font-family="Helvetica,sans-Serif" font-size="10.00">spdlog/sinks/stdout</text>
<text text-anchor="middle" x="845.5" y="-7.5" font-family="Helvetica,sans-Serif" font-size="10.00">_color_sinks.h</text>
</a>
</g>
</g>
<!-- Node7&#45;&gt;Node9 -->
<g id="edge8" class="edge">
<title>Node7&#45;&gt;Node9</title>
<path fill="none" stroke="midnightblue" d="M890.49,-72.73C883.53,-64.03 872.58,-50.34 863.22,-38.65"/>
<polygon fill="midnightblue" stroke="midnightblue" points="865.75,-36.21 856.77,-30.59 860.29,-40.58 865.75,-36.21"/>
</g>
<!-- Node10 -->
<g id="node10" class="node">
<title>Node10</title>
<g id="a_node10"><a xlink:title=" ">
<polygon fill="white" stroke="#bfbfbf" points="919.5,-6 919.5,-25 977.5,-25 977.5,-6 919.5,-6"/>
<text text-anchor="middle" x="948.5" y="-13" font-family="Helvetica,sans-Serif" font-size="10.00">memory</text>
</a>
</g>
</g>
<!-- Node7&#45;&gt;Node10 -->
<g id="edge9" class="edge">
<title>Node7&#45;&gt;Node10</title>
<path fill="none" stroke="midnightblue" d="M904.38,-72.73C912.33,-62.6 925.6,-45.69 935.51,-33.06"/>
<polygon fill="midnightblue" stroke="midnightblue" points="938.31,-35.16 941.73,-25.13 932.8,-30.83 938.31,-35.16"/>
</g>
<!-- Node11 -->
<g id="node11" class="node">
<title>Node11</title>
<g id="a_node11"><a xlink:title=" ">
<polygon fill="white" stroke="#bfbfbf" points="995.5,-6 995.5,-25 1093.5,-25 1093.5,-6 995.5,-6"/>
<text text-anchor="middle" x="1044.5" y="-13" font-family="Helvetica,sans-Serif" font-size="10.00">spdlog/fmt/fmt.h</text>
</a>
</g>
</g>
<!-- Node7&#45;&gt;Node11 -->
<g id="edge10" class="edge">
<title>Node7&#45;&gt;Node11</title>
<path fill="none" stroke="midnightblue" d="M917.02,-72.87C942.28,-61.7 986.5,-42.15 1015.64,-29.26"/>
<polygon fill="midnightblue" stroke="midnightblue" points="1017.17,-32.41 1024.9,-25.17 1014.34,-26.01 1017.17,-32.41"/>
</g>
<!-- Node20 -->
<g id="node20" class="node">
<title>Node20</title>
<g id="a_node20"><a xlink:href="_o_m_sim_p_m_t_response_8hh.html" target="_top" xlink:title="Provides simulation for PMT response. This class is responsible for transforming hits on photocathode...">
<polygon fill="white" stroke="black" points="613,-190.5 613,-209.5 748,-209.5 748,-190.5 613,-190.5"/>
<text text-anchor="middle" x="680.5" y="-197.5" font-family="Helvetica,sans-Serif" font-size="10.00">OMSimPMTResponse.hh</text>
</a>
</g>
</g>
<!-- Node19&#45;&gt;Node20 -->
<g id="edge19" class="edge">
<title>Node19&#45;&gt;Node20</title>
<path fill="none" stroke="midnightblue" d="M775.59,-246.44C757.25,-237.68 728.49,-223.94 707.41,-213.86"/>
<polygon fill="midnightblue" stroke="midnightblue" points="708.85,-210.67 698.32,-209.52 705.83,-216.99 708.85,-210.67"/>
</g>
<!-- Node25 -->
<g id="node25" class="node">
<title>Node25</title>
<g id="a_node25"><a xlink:title=" ">
<polygon fill="white" stroke="#bfbfbf" points="1066,-190.5 1066,-209.5 1169,-209.5 1169,-190.5 1066,-190.5"/>
<text text-anchor="middle" x="1117.5" y="-197.5" font-family="Helvetica,sans-Serif" font-size="10.00">G4ThreeVector.hh</text>
</a>
</g>
</g>
<!-- Node19&#45;&gt;Node25 -->
<g id="edge25" class="edge">
<title>Node19&#45;&gt;Node25</title>
<path fill="none" stroke="midnightblue" d="M844.84,-246.44C902.31,-236.87 995.37,-221.36 1056.5,-211.17"/>
<polygon fill="midnightblue" stroke="midnightblue" points="1057.11,-214.61 1066.4,-209.52 1055.96,-207.71 1057.11,-214.61"/>
</g>
<!-- Node26 -->
<g id="node26" class="node">
<title>Node26</title>
<g id="a_node26"><a xlink:title=" ">
<polygon fill="white" stroke="#bfbfbf" points="766,-190.5 766,-209.5 821,-209.5 821,-190.5 766,-190.5"/>
<text text-anchor="middle" x="793.5" y="-197.5" font-family="Helvetica,sans-Serif" font-size="10.00">fstream</text>
</a>
</g>
</g>
<!-- Node19&#45;&gt;Node26 -->
<g id="edge26" class="edge">
<title>Node19&#45;&gt;Node26</title>
<path fill="none" stroke="midnightblue" d="M793.5,-246.08C793.5,-239.01 793.5,-228.86 793.5,-219.99"/>
<polygon fill="midnightblue" stroke="midnightblue" points="797,-219.75 793.5,-209.75 790,-219.75 797,-219.75"/>
</g>
<!-- Node20&#45;&gt;Node13 -->
<g id="edge20" class="edge">
<title>Node20&#45;&gt;Node13</title>
<path fill="none" stroke="midnightblue" d="M620.94,-190.49C596.71,-184.17 570.28,-173.17 552.5,-154 539.46,-139.94 535.19,-117.88 533.89,-102.18"/>
<polygon fill="midnightblue" stroke="midnightblue" points="537.38,-101.89 533.38,-92.08 530.39,-102.25 537.38,-101.89"/>
</g>
<!-- Node21 -->
<g id="node21" class="node">
<title>Node21</title>
<g id="a_node21"><a xlink:title=" ">
<polygon fill="white" stroke="#bfbfbf" points="902,-134.5 902,-153.5 975,-153.5 975,-134.5 902,-134.5"/>
<text text-anchor="middle" x="938.5" y="-141.5" font-family="Helvetica,sans-Serif" font-size="10.00">G4Types.hh</text>
</a>
</g>
</g>
<!-- Node20&#45;&gt;Node21 -->
<g id="edge21" class="edge">
<title>Node20&#45;&gt;Node21</title>
<path fill="none" stroke="midnightblue" d="M721.38,-190.44C767.81,-180.73 843.41,-164.9 892.04,-154.73"/>
<polygon fill="midnightblue" stroke="midnightblue" points="892.91,-158.12 901.98,-152.64 891.48,-151.27 892.91,-158.12"/>
</g>
<!-- Node22 -->
<g id="node22" class="node">
<title>Node22</title>
<g id="a_node22"><a xlink:title=" ">
<polygon fill="white" stroke="#bfbfbf" points="695.5,-134.5 695.5,-153.5 733.5,-153.5 733.5,-134.5 695.5,-134.5"/>
<text text-anchor="middle" x="714.5" y="-141.5" font-family="Helvetica,sans-Serif" font-size="10.00">map</text>
</a>
</g>
</g>
<!-- Node20&#45;&gt;Node22 -->
<g id="edge22" class="edge">
<title>Node20&#45;&gt;Node22</title>
<path fill="none" stroke="midnightblue" d="M686.11,-190.08C690.87,-182.53 697.82,-171.49 703.65,-162.23"/>
<polygon fill="midnightblue" stroke="midnightblue" points="706.62,-164.08 708.99,-153.75 700.7,-160.35 706.62,-164.08"/>
</g>
<!-- Node23 -->
<g id="node23" class="node">
<title>Node23</title>
<g id="a_node23"><a xlink:title=" ">
<polygon fill="white" stroke="#bfbfbf" points="752,-134.5 752,-153.5 813,-153.5 813,-134.5 752,-134.5"/>
<text text-anchor="middle" x="782.5" y="-141.5" font-family="Helvetica,sans-Serif" font-size="10.00">TGraph.h</text>
</a>
</g>
</g>
<!-- Node20&#45;&gt;Node23 -->
<g id="edge23" class="edge">
<title>Node20&#45;&gt;Node23</title>
<path fill="none" stroke="midnightblue" d="M696.89,-190.32C713.17,-181.7 738.37,-168.36 757.22,-158.39"/>
<polygon fill="midnightblue" stroke="midnightblue" points="758.95,-161.43 766.15,-153.65 755.68,-155.24 758.95,-161.43"/>
</g>
<!-- Node24 -->
<g id="node24" class="node">
<title>Node24</title>
<g id="a_node24"><a xlink:title=" ">
<polygon fill="white" stroke="#bfbfbf" points="831,-134.5 831,-153.5 884,-153.5 884,-134.5 831,-134.5"/>
<text text-anchor="middle" x="857.5" y="-141.5" font-family="Helvetica,sans-Serif" font-size="10.00">TH2D.h</text>
</a>
</g>
</g>
<!-- Node20&#45;&gt;Node24 -->
<g id="edge24" class="edge">
<title>Node20&#45;&gt;Node24</title>
<path fill="none" stroke="midnightblue" d="M708.55,-190.44C738.94,-181.17 787.54,-166.34 820.91,-156.16"/>
<polygon fill="midnightblue" stroke="midnightblue" points="822.2,-159.43 830.74,-153.16 820.16,-152.73 822.2,-159.43"/>
</g>
<!-- Node27&#45;&gt;Node5 -->
<g id="edge28" class="edge">
<title>Node27&#45;&gt;Node5</title>
<path fill="none" stroke="midnightblue" d="M271.17,-246.44C298.42,-237.36 341.68,-222.94 372.15,-212.78"/>
<polygon fill="midnightblue" stroke="midnightblue" points="373.57,-216 381.95,-209.52 371.36,-209.36 373.57,-216"/>
</g>
<!-- Node27&#45;&gt;Node20 -->
<g id="edge30" class="edge">
<title>Node27&#45;&gt;Node20</title>
<path fill="none" stroke="midnightblue" d="M314.43,-246.44C392.96,-236.69 521.01,-220.8 602.96,-210.63"/>
<polygon fill="midnightblue" stroke="midnightblue" points="603.48,-214.09 612.97,-209.38 602.61,-207.14 603.48,-214.09"/>
</g>
<!-- Node27&#45;&gt;Node27 -->
<g id="edge29" class="edge">
<title>Node27&#45;&gt;Node27</title>
<path fill="none" stroke="midnightblue" d="M284.95,-265.53C311.76,-268.31 338,-265.13 338,-256 338,-248.01 317.91,-244.58 294.93,-245.71"/>
<polygon fill="midnightblue" stroke="midnightblue" points="294.65,-242.22 284.95,-246.47 295.19,-249.2 294.65,-242.22"/>
</g>
<!-- Node28 -->
<g id="node28" class="node">
<title>Node28</title>
<g id="a_node28"><a xlink:title=" ">
<polygon fill="white" stroke="#bfbfbf" points="217.5,-190.5 217.5,-209.5 315.5,-209.5 315.5,-190.5 217.5,-190.5"/>
<text text-anchor="middle" x="266.5" y="-197.5" font-family="Helvetica,sans-Serif" font-size="10.00">G4UnionSolid.hh</text>
</a>
</g>
</g>
<!-- Node27&#45;&gt;Node28 -->
<g id="edge31" class="edge">
<title>Node27&#45;&gt;Node28</title>
<path fill="none" stroke="midnightblue" d="M248.97,-246.08C251.81,-238.77 255.93,-228.18 259.46,-219.1"/>
<polygon fill="midnightblue" stroke="midnightblue" points="262.73,-220.34 263.1,-209.75 256.21,-217.8 262.73,-220.34"/>
</g>
<!-- Node29 -->
<g id="node29" class="node">
<title>Node29</title>
<g id="a_node29"><a xlink:title=" ">
<polygon fill="white" stroke="#bfbfbf" points="132,-190.5 132,-209.5 199,-209.5 199,-190.5 132,-190.5"/>
<text text-anchor="middle" x="165.5" y="-197.5" font-family="Helvetica,sans-Serif" font-size="10.00">G4Tubs.hh</text>
</a>
</g>
</g>
<!-- Node27&#45;&gt;Node29 -->
<g id="edge32" class="edge">
<title>Node27&#45;&gt;Node29</title>
<path fill="none" stroke="midnightblue" d="M232.65,-246.32C220.28,-237.98 201.37,-225.21 186.76,-215.35"/>
<polygon fill="midnightblue" stroke="midnightblue" points="188.57,-212.35 178.32,-209.65 184.65,-218.15 188.57,-212.35"/>
</g>
<!-- Node32&#45;&gt;Node4 -->
<g id="edge37" class="edge">
<title>Node32&#45;&gt;Node4</title>
<path fill="none" stroke="midnightblue" d="M143,-359.29C145.88,-358.85 148.73,-358.42 151.5,-358 234.72,-345.47 330.48,-331.86 394.15,-322.93"/>
<polygon fill="midnightblue" stroke="midnightblue" points="394.67,-326.39 404.09,-321.54 393.7,-319.46 394.67,-326.39"/>
</g>
<!-- Node32&#45;&gt;Node27 -->
<g id="edge36" class="edge">
<title>Node32&#45;&gt;Node27</title>
<path fill="none" stroke="midnightblue" d="M106.35,-358.37C132.15,-339.57 193.65,-294.77 225.55,-271.53"/>
<polygon fill="midnightblue" stroke="midnightblue" points="227.68,-274.31 233.71,-265.59 223.56,-268.65 227.68,-274.31"/>
</g>
<!-- Node33&#45;&gt;Node4 -->
<g id="edge40" class="edge">
<title>Node33&#45;&gt;Node4</title>
<path fill="none" stroke="midnightblue" d="M251.75,-358.44C296.15,-349 367.65,-333.8 415.59,-323.61"/>
<polygon fill="midnightblue" stroke="midnightblue" points="416.39,-327.02 425.44,-321.52 414.93,-320.17 416.39,-327.02"/>
</g>
<!-- Node33&#45;&gt;Node27 -->
<g id="edge39" class="edge">
<title>Node33&#45;&gt;Node27</title>
<path fill="none" stroke="midnightblue" d="M214.17,-358.37C219.68,-340.54 232.43,-299.3 239.85,-275.27"/>
<polygon fill="midnightblue" stroke="midnightblue" points="243.24,-276.18 242.84,-265.59 236.55,-274.11 243.24,-276.18"/>
</g>
<!-- Node34&#45;&gt;Node4 -->
<g id="edge43" class="edge">
<title>Node34&#45;&gt;Node4</title>
<path fill="none" stroke="midnightblue" d="M502.87,-414.46C490.01,-406.84 473.16,-394.36 465.5,-378 458.77,-363.63 459.43,-345.43 461.4,-331.95"/>
<polygon fill="midnightblue" stroke="midnightblue" points="464.88,-332.39 463.22,-321.92 457.99,-331.13 464.88,-332.39"/>
</g>
<!-- Node34&#45;&gt;Node27 -->
<g id="edge42" class="edge">
<title>Node34&#45;&gt;Node27</title>
<path fill="none" stroke="midnightblue" d="M468.55,-417.08C414.66,-409.97 334.11,-396.62 309.5,-378 275.19,-352.04 257.4,-302.28 249.92,-275.36"/>
<polygon fill="midnightblue" stroke="midnightblue" points="253.3,-274.46 247.4,-265.66 246.53,-276.22 253.3,-274.46"/>
</g>
<!-- Node34&#45;&gt;Node35 -->
<g id="edge44" class="edge">
<title>Node34&#45;&gt;Node35</title>
<path fill="none" stroke="midnightblue" d="M538.51,-414.44C558.09,-405.64 588.81,-391.81 611.23,-381.72"/>
<polygon fill="midnightblue" stroke="midnightblue" points="612.89,-384.81 620.57,-377.52 610.02,-378.43 612.89,-384.81"/>
</g>
<!-- Node36 -->
<g id="node36" class="node">
<title>Node36</title>
<g id="a_node36"><a xlink:title=" ">
<polygon fill="white" stroke="#bfbfbf" points="475,-358.5 475,-377.5 564,-377.5 564,-358.5 475,-358.5"/>
<text text-anchor="middle" x="519.5" y="-365.5" font-family="Helvetica,sans-Serif" font-size="10.00">G4Polycone.hh</text>
</a>
</g>
</g>
<!-- Node34&#45;&gt;Node36 -->
<g id="edge45" class="edge">
<title>Node34&#45;&gt;Node36</title>
<path fill="none" stroke="midnightblue" d="M519.5,-414.08C519.5,-407.01 519.5,-396.86 519.5,-387.99"/>
<polygon fill="midnightblue" stroke="midnightblue" points="523,-387.75 519.5,-377.75 516,-387.75 523,-387.75"/>
</g>
<!-- Node37&#45;&gt;Node4 -->
<g id="edge48" class="edge">
<title>Node37&#45;&gt;Node4</title>
<path fill="none" stroke="midnightblue" d="M716.28,-358.44C663.75,-348.92 578.89,-333.55 522.65,-323.36"/>
<polygon fill="midnightblue" stroke="midnightblue" points="522.96,-319.86 512.5,-321.52 521.71,-326.74 522.96,-319.86"/>
</g>
<!-- Node37&#45;&gt;Node27 -->
<g id="edge47" class="edge">
<title>Node37&#45;&gt;Node27</title>
<path fill="none" stroke="midnightblue" d="M738.6,-358.47C697.98,-344.83 614.73,-318.02 542.5,-302 471.63,-286.28 390.02,-274.36 330.3,-266.74"/>
<polygon fill="midnightblue" stroke="midnightblue" points="330.52,-263.24 320.17,-265.46 329.65,-270.19 330.52,-263.24"/>
</g>
<!-- Node38&#45;&gt;Node4 -->
<g id="edge55" class="edge">
<title>Node38&#45;&gt;Node4</title>
<path fill="none" stroke="midnightblue" d="M384.08,-358.32C399.5,-349.74 423.31,-336.49 441.21,-326.52"/>
<polygon fill="midnightblue" stroke="midnightblue" points="442.92,-329.58 449.95,-321.65 439.51,-323.46 442.92,-329.58"/>
</g>
<!-- Node38&#45;&gt;Node27 -->
<g id="edge54" class="edge">
<title>Node38&#45;&gt;Node27</title>
<path fill="none" stroke="midnightblue" d="M360.58,-358.2C348.84,-345.33 325.89,-320.85 304.5,-302 292.33,-291.28 277.86,-280.22 266.3,-271.74"/>
<polygon fill="midnightblue" stroke="midnightblue" points="268.26,-268.84 258.11,-265.82 264.16,-274.52 268.26,-268.84"/>
</g>
<!-- Node39 -->
<g id="node39" class="node">
<title>Node39</title>
<g id="a_node39"><a xlink:href="_o_m_sim_m_d_o_m_flasher_8hh.html" target="_top" xlink:title="Defines the mDOMFlasher class for simulating the 10 flashers in an mDOM optical module.">
<polygon fill="white" stroke="black" points="356,-246.5 356,-265.5 491,-265.5 491,-246.5 356,-246.5"/>
<text text-anchor="middle" x="423.5" y="-253.5" font-family="Helvetica,sans-Serif" font-size="10.00">OMSimMDOMFlasher.hh</text>
</a>
</g>
</g>
<!-- Node38&#45;&gt;Node39 -->
<g id="edge50" class="edge">
<title>Node38&#45;&gt;Node39</title>
<path fill="none" stroke="midnightblue" d="M369.95,-358.18C372.31,-345.28 377.74,-320.78 387.5,-302 392.91,-291.59 400.92,-281.28 408.01,-273.15"/>
<polygon fill="midnightblue" stroke="midnightblue" points="410.77,-275.32 414.92,-265.57 405.6,-270.6 410.77,-275.32"/>
</g>
<!-- Node39&#45;&gt;Node5 -->
<g id="edge51" class="edge">
<title>Node39&#45;&gt;Node5</title>
<path fill="none" stroke="midnightblue" d="M420.86,-246.08C418.71,-238.85 415.62,-228.41 412.95,-219.4"/>
<polygon fill="midnightblue" stroke="midnightblue" points="416.29,-218.34 410.09,-209.75 409.58,-220.33 416.29,-218.34"/>
</g>
<!-- Node39&#45;&gt;Node28 -->
<g id="edge52" class="edge">
<title>Node39&#45;&gt;Node28</title>
<path fill="none" stroke="midnightblue" d="M398.62,-246.44C372.21,-237.36 330.28,-222.94 300.76,-212.78"/>
<polygon fill="midnightblue" stroke="midnightblue" points="301.86,-209.46 291.26,-209.52 299.58,-216.08 301.86,-209.46"/>
</g>
<!-- Node40 -->
<g id="node40" class="node">
<title>Node40</title>
<g id="a_node40"><a xlink:title=" ">
<polygon fill="white" stroke="#bfbfbf" points="499.5,-190.5 499.5,-209.5 591.5,-209.5 591.5,-190.5 499.5,-190.5"/>
<text text-anchor="middle" x="545.5" y="-197.5" font-family="Helvetica,sans-Serif" font-size="10.00">G4Navigator.hh</text>
</a>
</g>
</g>
<!-- Node39&#45;&gt;Node40 -->
<g id="edge53" class="edge">
<title>Node39&#45;&gt;Node40</title>
<path fill="none" stroke="midnightblue" d="M442.83,-246.44C462.82,-237.6 494.24,-223.69 517.06,-213.59"/>
<polygon fill="midnightblue" stroke="midnightblue" points="518.53,-216.76 526.26,-209.52 515.7,-210.36 518.53,-216.76"/>
</g>
<!-- Node41&#45;&gt;Node7 -->
<g id="edge57" class="edge">
<title>Node41&#45;&gt;Node7</title>
<path fill="none" stroke="midnightblue" d="M988,-246.3C998.37,-238.25 1012.39,-225.24 1018.5,-210 1021.81,-201.75 1020.95,-198.54 1018.5,-190 1010.41,-161.79 1004.54,-154.46 983.5,-134 967.27,-118.21 945.18,-105.37 927.45,-96.59"/>
<polygon fill="midnightblue" stroke="midnightblue" points="928.65,-93.29 918.11,-92.14 925.63,-99.61 928.65,-93.29"/>
</g>
<!-- Node41&#45;&gt;Node26 -->
<g id="edge58" class="edge">
<title>Node41&#45;&gt;Node26</title>
<path fill="none" stroke="midnightblue" d="M946.66,-246.44C915.28,-237.13 865,-222.22 830.68,-212.03"/>
<polygon fill="midnightblue" stroke="midnightblue" points="831.59,-208.65 821.01,-209.16 829.6,-215.36 831.59,-208.65"/>
</g>
<!-- Node42 -->
<g id="node42" class="node">
<title>Node42</title>
<g id="a_node42"><a xlink:title=" ">
<polygon fill="white" stroke="#bfbfbf" points="839.5,-190.5 839.5,-209.5 923.5,-209.5 923.5,-190.5 839.5,-190.5"/>
<text text-anchor="middle" x="881.5" y="-197.5" font-family="Helvetica,sans-Serif" font-size="10.00">boost/any.hpp</text>
</a>
</g>
</g>
<!-- Node41&#45;&gt;Node42 -->
<g id="edge59" class="edge">
<title>Node41&#45;&gt;Node42</title>
<path fill="none" stroke="midnightblue" d="M960.4,-246.32C945.6,-237.82 922.81,-224.73 905.52,-214.8"/>
<polygon fill="midnightblue" stroke="midnightblue" points="906.98,-211.6 896.57,-209.65 903.49,-217.67 906.98,-211.6"/>
</g>
<!-- Node43 -->
<g id="node43" class="node">
<title>Node43</title>
<g id="a_node43"><a xlink:title=" ">
<polygon fill="white" stroke="#bfbfbf" points="941.5,-190.5 941.5,-209.5 1009.5,-209.5 1009.5,-190.5 941.5,-190.5"/>
<text text-anchor="middle" x="975.5" y="-197.5" font-family="Helvetica,sans-Serif" font-size="10.00">sys/time.h</text>
</a>
</g>
</g>
<!-- Node41&#45;&gt;Node43 -->
<g id="edge60" class="edge">
<title>Node41&#45;&gt;Node43</title>
<path fill="none" stroke="midnightblue" d="M975.5,-246.08C975.5,-239.01 975.5,-228.86 975.5,-219.99"/>
<polygon fill="midnightblue" stroke="midnightblue" points="979,-219.75 975.5,-209.75 972,-219.75 979,-219.75"/>
</g>
<!-- Node45&#45;&gt;Node12 -->
<g id="edge68" class="edge">
<title>Node45&#45;&gt;Node12</title>
<path fill="none" stroke="midnightblue" d="M1188.58,-246.43C1217.79,-236.51 1255.39,-217.89 1243.5,-190 1225.71,-148.29 1182.69,-115.05 1155.73,-97.4"/>
<polygon fill="midnightblue" stroke="midnightblue" points="1157.58,-94.43 1147.26,-92.03 1153.83,-100.34 1157.58,-94.43"/>
</g>
<!-- Node45&#45;&gt;Node20 -->
<g id="edge67" class="edge">
<title>Node45&#45;&gt;Node20</title>
<path fill="none" stroke="midnightblue" d="M1080.98,-246.55C1002.49,-237.86 876.54,-223.82 758.02,-210.17"/>
<polygon fill="midnightblue" stroke="midnightblue" points="758.38,-206.69 748.04,-209.02 757.58,-213.64 758.38,-206.69"/>
</g>
<!-- Node45&#45;&gt;Node25 -->
<g id="edge66" class="edge">
<title>Node45&#45;&gt;Node25</title>
<path fill="none" stroke="midnightblue" d="M1150.89,-246.08C1145.24,-238.46 1136.96,-227.26 1130.05,-217.94"/>
<polygon fill="midnightblue" stroke="midnightblue" points="1132.75,-215.7 1123.98,-209.75 1127.12,-219.87 1132.75,-215.7"/>
</g>
<!-- Node46 -->
<g id="node46" class="node">
<title>Node46</title>
<g id="a_node46"><a xlink:title=" ">
<polygon fill="white" stroke="#bfbfbf" points="1290.5,-190.5 1290.5,-209.5 1428.5,-209.5 1428.5,-190.5 1290.5,-190.5"/>
<text text-anchor="middle" x="1359.5" y="-197.5" font-family="Helvetica,sans-Serif" font-size="10.00">G4VSensitiveDetector.hh</text>
</a>
</g>
</g>
<!-- Node45&#45;&gt;Node46 -->
<g id="edge65" class="edge">
<title>Node45&#45;&gt;Node46</title>
<path fill="none" stroke="midnightblue" d="M1189.51,-246.44C1224.23,-237.16 1279.79,-222.31 1317.88,-212.13"/>
<polygon fill="midnightblue" stroke="midnightblue" points="1318.89,-215.48 1327.64,-209.52 1317.08,-208.72 1318.89,-215.48"/>
</g>
<!-- Node47 -->
<g id="node47" class="node">
<title>Node47</title>
<g id="a_node47"><a xlink:title=" ">
<polygon fill="white" stroke="#bfbfbf" points="1187,-190.5 1187,-209.5 1234,-209.5 1234,-190.5 1187,-190.5"/>
<text text-anchor="middle" x="1210.5" y="-197.5" font-family="Helvetica,sans-Serif" font-size="10.00">vector</text>
</a>
</g>
</g>
<!-- Node45&#45;&gt;Node47 -->
<g id="edge69" class="edge">
<title>Node45&#45;&gt;Node47</title>
<path fill="none" stroke="midnightblue" d="M1166.25,-246.08C1173.97,-238.22 1185.4,-226.57 1194.72,-217.08"/>
<polygon fill="midnightblue" stroke="midnightblue" points="1197.4,-219.34 1201.91,-209.75 1192.41,-214.44 1197.4,-219.34"/>
</g>
</g>
</svg>
