<?xml version="1.0" encoding="UTF-8" standalone="no"?>
<!DOCTYPE svg PUBLIC "-//W3C//DTD SVG 1.1//EN"
 "http://www.w3.org/Graphics/SVG/1.1/DTD/svg11.dtd">
<!-- Generated by graphviz version 2.43.0 (0)
 -->
<!-- Title: OMSimMDOM.hh Pages: 1 -->
<svg width="1615pt" height="379pt"
 viewBox="0.00 0.00 1615.00 379.00" xmlns="http://www.w3.org/2000/svg" xmlns:xlink="http://www.w3.org/1999/xlink">
<g id="graph0" class="graph" transform="scale(1 1) rotate(0) translate(4 375)">
<title>OMSimMDOM.hh</title>
<!-- Node1 -->
<g id="Node000001" class="node">
<title>Node1</title>
<g id="a_Node000001"><a xlink:title="Construction of mDOM.">
<polygon fill="#999999" stroke="#666666" points="1150.5,-371 1050.5,-371 1050.5,-352 1150.5,-352 1150.5,-371"/>
<text text-anchor="middle" x="1100.5" y="-359" font-family="Helvetica,sans-Serif" font-size="10.00">OMSimMDOM.hh</text>
</a>
</g>
</g>
<!-- Node2 -->
<g id="Node000002" class="node">
<title>Node2</title>
<g id="a_Node000002"><a xlink:href="_o_m_sim_m_d_o_m_flasher_8hh.html" target="_top" xlink:title="Defines the mDOMFlasher class for simulating the 10 flashers in an mDOM optical module.">
<polygon fill="white" stroke="#666666" points="1105,-261 970,-261 970,-242 1105,-242 1105,-261"/>
<text text-anchor="middle" x="1037.5" y="-249" font-family="Helvetica,sans-Serif" font-size="10.00">OMSimMDOMFlasher.hh</text>
</a>
</g>
</g>
<!-- Node1&#45;&gt;Node2 -->
<g id="edge1_Node000001_Node000002" class="edge">
<title>Node1&#45;&gt;Node2</title>
<g id="a_edge1_Node000001_Node000002"><a xlink:title=" ">
<path fill="none" stroke="#63b8ff" d="M1095.34,-351.66C1084.96,-333.85 1061.34,-293.37 1047.71,-270.01"/>
<polygon fill="#63b8ff" stroke="#63b8ff" points="1050.61,-268.03 1042.55,-261.16 1044.57,-271.56 1050.61,-268.03"/>
</a>
</g>
</g>
<!-- Node26 -->
<g id="Node000026" class="node">
<title>Node26</title>
<g id="a_Node000026"><a xlink:href="_o_m_sim_p_m_t_construction_8hh.html" target="_top" xlink:title="Construction of the PMTs.">
<polygon fill="white" stroke="#666666" points="1272,-261 1123,-261 1123,-242 1272,-242 1272,-261"/>
<text text-anchor="middle" x="1197.5" y="-249" font-family="Helvetica,sans-Serif" font-size="10.00">OMSimPMTConstruction.hh</text>
</a>
</g>
</g>
<!-- Node1&#45;&gt;Node26 -->
<g id="edge25_Node000001_Node000026" class="edge">
<title>Node1&#45;&gt;Node26</title>
<g id="a_edge25_Node000001_Node000026"><a xlink:title=" ">
<path fill="none" stroke="#63b8ff" d="M1101.25,-351.76C1102.78,-338.58 1107.34,-313.41 1120.5,-297 1131.78,-282.94 1148.79,-272.44 1163.95,-265.19"/>
<polygon fill="#63b8ff" stroke="#63b8ff" points="1165.4,-268.38 1173.09,-261.09 1162.53,-261.99 1165.4,-268.38"/>
</a>
</g>
</g>
<!-- Node33 -->
<g id="Node000033" class="node">
<title>Node33</title>
<g id="a_Node000033"><a xlink:href="_o_m_sim_optical_module_8hh_source.html" target="_top" xlink:title=" ">
<polygon fill="white" stroke="#666666" points="1266,-316 1129,-316 1129,-297 1266,-297 1266,-316"/>
<text text-anchor="middle" x="1197.5" y="-304" font-family="Helvetica,sans-Serif" font-size="10.00">OMSimOpticalModule.hh</text>
</a>
</g>
</g>
<!-- Node1&#45;&gt;Node33 -->
<g id="edge36_Node000001_Node000033" class="edge">
<title>Node1&#45;&gt;Node33</title>
<g id="a_edge36_Node000001_Node000033"><a xlink:title=" ">
<path fill="none" stroke="#63b8ff" d="M1116.08,-351.98C1131.27,-343.69 1154.6,-330.94 1172.4,-321.22"/>
<polygon fill="#63b8ff" stroke="#63b8ff" points="1174.53,-324.04 1181.63,-316.17 1171.18,-317.89 1174.53,-324.04"/>
</a>
</g>
</g>
<!-- Node3 -->
<g id="Node000003" class="node">
<title>Node3</title>
<g id="a_Node000003"><a xlink:href="_o_m_sim_detector_component_8hh.html" target="_top" xlink:title="Provides helper base class OMSimDetectorComponent for constructing and managing detector components i...">
<polygon fill="white" stroke="#666666" points="973,-206 808,-206 808,-187 973,-187 973,-206"/>
<text text-anchor="middle" x="890.5" y="-194" font-family="Helvetica,sans-Serif" font-size="10.00">OMSimDetectorComponent.hh</text>
</a>
</g>
</g>
<!-- Node2&#45;&gt;Node3 -->
<g id="edge2_Node000002_Node000003" class="edge">
<title>Node2&#45;&gt;Node3</title>
<g id="a_edge2_Node000002_Node000003"><a xlink:title=" ">
<path fill="none" stroke="#63b8ff" d="M1013.88,-241.98C989.6,-233.23 951.55,-219.51 924.13,-209.62"/>
<polygon fill="#63b8ff" stroke="#63b8ff" points="925.14,-206.27 914.55,-206.17 922.77,-212.85 925.14,-206.27"/>
</a>
</g>
</g>
<!-- Node24 -->
<g id="Node000024" class="node">
<title>Node24</title>
<g id="a_Node000024"><a xlink:title=" ">
<polygon fill="#e0e0e0" stroke="#999999" points="1199.5,-206 1101.5,-206 1101.5,-187 1199.5,-187 1199.5,-206"/>
<text text-anchor="middle" x="1150.5" y="-194" font-family="Helvetica,sans-Serif" font-size="10.00">G4UnionSolid.hh</text>
</a>
</g>
</g>
<!-- Node2&#45;&gt;Node24 -->
<g id="edge23_Node000002_Node000024" class="edge">
<title>Node2&#45;&gt;Node24</title>
<g id="a_edge23_Node000002_Node000024"><a xlink:title=" ">
<path fill="none" stroke="#63b8ff" d="M1055.66,-241.98C1073.75,-233.5 1101.78,-220.35 1122.69,-210.54"/>
<polygon fill="#63b8ff" stroke="#63b8ff" points="1124.45,-213.59 1132.01,-206.17 1121.47,-207.25 1124.45,-213.59"/>
</a>
</g>
</g>
<!-- Node25 -->
<g id="Node000025" class="node">
<title>Node25</title>
<g id="a_Node000025"><a xlink:title=" ">
<polygon fill="#e0e0e0" stroke="#999999" points="1083.5,-206 991.5,-206 991.5,-187 1083.5,-187 1083.5,-206"/>
<text text-anchor="middle" x="1037.5" y="-194" font-family="Helvetica,sans-Serif" font-size="10.00">G4Navigator.hh</text>
</a>
</g>
</g>
<!-- Node2&#45;&gt;Node25 -->
<g id="edge24_Node000002_Node000025" class="edge">
<title>Node2&#45;&gt;Node25</title>
<g id="a_edge24_Node000002_Node000025"><a xlink:title=" ">
<path fill="none" stroke="#63b8ff" d="M1037.5,-241.75C1037.5,-234.8 1037.5,-224.85 1037.5,-216.13"/>
<polygon fill="#63b8ff" stroke="#63b8ff" points="1041,-216.09 1037.5,-206.09 1034,-216.09 1041,-216.09"/>
</a>
</g>
</g>
<!-- Node4 -->
<g id="Node000004" class="node">
<title>Node4</title>
<g id="a_Node000004"><a xlink:href="_o_m_sim_input_data_8hh.html" target="_top" xlink:title="Definition of ParameterTable and OMSimInputData.">
<polygon fill="white" stroke="#666666" points="642,-151 527,-151 527,-132 642,-132 642,-151"/>
<text text-anchor="middle" x="584.5" y="-139" font-family="Helvetica,sans-Serif" font-size="10.00">OMSimInputData.hh</text>
</a>
</g>
</g>
<!-- Node3&#45;&gt;Node4 -->
<g id="edge3_Node000003_Node000004" class="edge">
<title>Node3&#45;&gt;Node4</title>
<g id="a_edge3_Node000003_Node000004"><a xlink:title=" ">
<path fill="none" stroke="#63b8ff" d="M841.34,-186.98C787.55,-177.67 701.34,-162.74 643.83,-152.78"/>
<polygon fill="#63b8ff" stroke="#63b8ff" points="644.25,-149.3 633.8,-151.04 643.05,-156.19 644.25,-149.3"/>
</a>
</g>
</g>
<!-- Node20 -->
<g id="Node000020" class="node">
<title>Node20</title>
<g id="a_Node000020"><a xlink:title=" ">
<polygon fill="#e0e0e0" stroke="#999999" points="767,-151 660,-151 660,-132 767,-132 767,-151"/>
<text text-anchor="middle" x="713.5" y="-139" font-family="Helvetica,sans-Serif" font-size="10.00">G4Transform3D.hh</text>
</a>
</g>
</g>
<!-- Node3&#45;&gt;Node20 -->
<g id="edge19_Node000003_Node000020" class="edge">
<title>Node3&#45;&gt;Node20</title>
<g id="a_edge19_Node000003_Node000020"><a xlink:title=" ">
<path fill="none" stroke="#63b8ff" d="M862.06,-186.98C832.22,-178.05 785.12,-163.94 751.97,-154.02"/>
<polygon fill="#63b8ff" stroke="#63b8ff" points="752.74,-150.6 742.16,-151.08 750.74,-157.3 752.74,-150.6"/>
</a>
</g>
</g>
<!-- Node21 -->
<g id="Node000021" class="node">
<title>Node21</title>
<g id="a_Node000021"><a xlink:title=" ">
<polygon fill="#e0e0e0" stroke="#999999" points="893.5,-151 785.5,-151 785.5,-132 893.5,-132 893.5,-151"/>
<text text-anchor="middle" x="839.5" y="-139" font-family="Helvetica,sans-Serif" font-size="10.00">G4VisAttributes.hh</text>
</a>
</g>
</g>
<!-- Node3&#45;&gt;Node21 -->
<g id="edge20_Node000003_Node000021" class="edge">
<title>Node3&#45;&gt;Node21</title>
<g id="a_edge20_Node000003_Node000021"><a xlink:title=" ">
<path fill="none" stroke="#63b8ff" d="M882.08,-186.75C874.73,-179.11 863.87,-167.82 854.96,-158.56"/>
<polygon fill="#63b8ff" stroke="#63b8ff" points="857.22,-155.87 847.76,-151.09 852.18,-160.72 857.22,-155.87"/>
</a>
</g>
</g>
<!-- Node22 -->
<g id="Node000022" class="node">
<title>Node22</title>
<g id="a_Node000022"><a xlink:title=" ">
<polygon fill="#e0e0e0" stroke="#999999" points="1037,-151 912,-151 912,-132 1037,-132 1037,-151"/>
<text text-anchor="middle" x="974.5" y="-139" font-family="Helvetica,sans-Serif" font-size="10.00">G4SubtractionSolid.hh</text>
</a>
</g>
</g>
<!-- Node3&#45;&gt;Node22 -->
<g id="edge21_Node000003_Node000022" class="edge">
<title>Node3&#45;&gt;Node22</title>
<g id="a_edge21_Node000003_Node000022"><a xlink:title=" ">
<path fill="none" stroke="#63b8ff" d="M904,-186.98C916.9,-178.84 936.6,-166.41 951.9,-156.76"/>
<polygon fill="#63b8ff" stroke="#63b8ff" points="954.17,-159.47 960.76,-151.17 950.43,-153.55 954.17,-159.47"/>
</a>
</g>
</g>
<!-- Node23 -->
<g id="Node000023" class="node">
<title>Node23</title>
<g id="a_Node000023"><a xlink:title=" ">
<polygon fill="#e0e0e0" stroke="#999999" points="1165.5,-151 1055.5,-151 1055.5,-132 1165.5,-132 1165.5,-151"/>
<text text-anchor="middle" x="1110.5" y="-139" font-family="Helvetica,sans-Serif" font-size="10.00">G4PVPlacement.hh</text>
</a>
</g>
</g>
<!-- Node3&#45;&gt;Node23 -->
<g id="edge22_Node000003_Node000023" class="edge">
<title>Node3&#45;&gt;Node23</title>
<g id="a_edge22_Node000003_Node000023"><a xlink:title=" ">
<path fill="none" stroke="#63b8ff" d="M925.85,-186.98C963.66,-177.87 1023.76,-163.4 1065.07,-153.45"/>
<polygon fill="#63b8ff" stroke="#63b8ff" points="1065.97,-156.83 1074.88,-151.08 1064.33,-150.02 1065.97,-156.83"/>
</a>
</g>
</g>
<!-- Node5 -->
<g id="Node000005" class="node">
<title>Node5</title>
<g id="a_Node000005"><a xlink:href="_o_m_sim_logger_8hh_source.html" target="_top" xlink:title=" ">
<polygon fill="white" stroke="#666666" points="319,-90.5 220,-90.5 220,-71.5 319,-71.5 319,-90.5"/>
<text text-anchor="middle" x="269.5" y="-78.5" font-family="Helvetica,sans-Serif" font-size="10.00">OMSimLogger.hh</text>
</a>
</g>
</g>
<!-- Node4&#45;&gt;Node5 -->
<g id="edge4_Node000004_Node000005" class="edge">
<title>Node4&#45;&gt;Node5</title>
<g id="a_edge4_Node000004_Node000005"><a xlink:title=" ">
<path fill="none" stroke="#63b8ff" d="M538.7,-131.99C482.24,-121.51 386.34,-103.7 325.54,-92.41"/>
<polygon fill="#63b8ff" stroke="#63b8ff" points="325.83,-88.9 315.36,-90.52 324.55,-95.78 325.83,-88.9"/>
</a>
</g>
</g>
<!-- Node10 -->
<g id="Node000010" class="node">
<title>Node10</title>
<g id="a_Node000010"><a xlink:href="_o_m_sim_op_boundary_process_8hh_source.html" target="_top" xlink:title=" ">
<polygon fill="white" stroke="#666666" points="769.5,-90.5 605.5,-90.5 605.5,-71.5 769.5,-71.5 769.5,-90.5"/>
<text text-anchor="middle" x="687.5" y="-78.5" font-family="Helvetica,sans-Serif" font-size="10.00">OMSimOpBoundaryProcess.hh</text>
</a>
</g>
</g>
<!-- Node4&#45;&gt;Node10 -->
<g id="edge9_Node000004_Node000010" class="edge">
<title>Node4&#45;&gt;Node10</title>
<g id="a_edge9_Node000004_Node000010"><a xlink:title=" ">
<path fill="none" stroke="#63b8ff" d="M599.7,-131.87C616.51,-122.32 643.82,-106.81 663.52,-95.62"/>
<polygon fill="#63b8ff" stroke="#63b8ff" points="665.27,-98.65 672.24,-90.67 661.82,-92.56 665.27,-98.65"/>
</a>
</g>
</g>
<!-- Node18 -->
<g id="Node000018" class="node">
<title>Node18</title>
<g id="a_Node000018"><a xlink:title=" ">
<polygon fill="#e0e0e0" stroke="#999999" points="1038,-90.5 919,-90.5 919,-71.5 1038,-71.5 1038,-90.5"/>
<text text-anchor="middle" x="978.5" y="-78.5" font-family="Helvetica,sans-Serif" font-size="10.00">G4SystemOfUnits.hh</text>
</a>
</g>
</g>
<!-- Node4&#45;&gt;Node18 -->
<g id="edge17_Node000004_Node000018" class="edge">
<title>Node4&#45;&gt;Node18</title>
<g id="a_edge17_Node000004_Node000018"><a xlink:title=" ">
<path fill="none" stroke="#63b8ff" d="M642.04,-133.07C721.15,-122.78 859.39,-104.51 909.5,-96 915.75,-94.94 922.29,-93.73 928.76,-92.49"/>
<polygon fill="#63b8ff" stroke="#63b8ff" points="929.68,-95.87 938.81,-90.51 928.32,-89.01 929.68,-95.87"/>
</a>
</g>
</g>
<!-- Node19 -->
<g id="Node000019" class="node">
<title>Node19</title>
<g id="a_Node000019"><a xlink:title=" ">
<polygon fill="#e0e0e0" stroke="#999999" points="901,-96 788,-96 788,-66 901,-66 901,-96"/>
<text text-anchor="start" x="796" y="-84" font-family="Helvetica,sans-Serif" font-size="10.00">boost/property_tree</text>
<text text-anchor="middle" x="844.5" y="-73" font-family="Helvetica,sans-Serif" font-size="10.00">/json_parser.hpp</text>
</a>
</g>
</g>
<!-- Node4&#45;&gt;Node19 -->
<g id="edge18_Node000004_Node000019" class="edge">
<title>Node4&#45;&gt;Node19</title>
<g id="a_edge18_Node000004_Node000019"><a xlink:title=" ">
<path fill="none" stroke="#63b8ff" d="M622.31,-131.99C663.02,-122.83 728.59,-108.08 777.97,-96.97"/>
<polygon fill="#63b8ff" stroke="#63b8ff" points="778.95,-100.34 787.93,-94.73 777.41,-93.51 778.95,-100.34"/>
</a>
</g>
</g>
<!-- Node6 -->
<g id="Node000006" class="node">
<title>Node6</title>
<g id="a_Node000006"><a xlink:title=" ">
<polygon fill="#e0e0e0" stroke="#999999" points="93,-24.5 0,-24.5 0,-5.5 93,-5.5 93,-24.5"/>
<text text-anchor="middle" x="46.5" y="-12.5" font-family="Helvetica,sans-Serif" font-size="10.00">spdlog/spdlog.h</text>
</a>
</g>
</g>
<!-- Node5&#45;&gt;Node6 -->
<g id="edge5_Node000005_Node000006" class="edge">
<title>Node5&#45;&gt;Node6</title>
<g id="a_edge5_Node000005_Node000006"><a xlink:title=" ">
<path fill="none" stroke="#63b8ff" d="M239.43,-71.37C199.83,-60 130.11,-40 86.21,-27.4"/>
<polygon fill="#63b8ff" stroke="#63b8ff" points="87.03,-23.99 76.45,-24.6 85.1,-30.72 87.03,-23.99"/>
</a>
</g>
</g>
<!-- Node7 -->
<g id="Node000007" class="node">
<title>Node7</title>
<g id="a_Node000007"><a xlink:title=" ">
<polygon fill="#e0e0e0" stroke="#999999" points="222,-30 111,-30 111,0 222,0 222,-30"/>
<text text-anchor="start" x="119" y="-18" font-family="Helvetica,sans-Serif" font-size="10.00">spdlog/sinks/stdout</text>
<text text-anchor="middle" x="166.5" y="-7" font-family="Helvetica,sans-Serif" font-size="10.00">_color_sinks.h</text>
</a>
</g>
</g>
<!-- Node5&#45;&gt;Node7 -->
<g id="edge6_Node000005_Node000007" class="edge">
<title>Node5&#45;&gt;Node7</title>
<g id="a_edge6_Node000005_Node000007"><a xlink:title=" ">
<path fill="none" stroke="#63b8ff" d="M255.61,-71.37C240.85,-62.2 217.02,-47.39 197.72,-35.4"/>
<polygon fill="#63b8ff" stroke="#63b8ff" points="199.56,-32.42 189.22,-30.12 195.86,-38.37 199.56,-32.42"/>
</a>
</g>
</g>
<!-- Node8 -->
<g id="Node000008" class="node">
<title>Node8</title>
<g id="a_Node000008"><a xlink:title=" ">
<polygon fill="#e0e0e0" stroke="#999999" points="298.5,-24.5 240.5,-24.5 240.5,-5.5 298.5,-5.5 298.5,-24.5"/>
<text text-anchor="middle" x="269.5" y="-12.5" font-family="Helvetica,sans-Serif" font-size="10.00">memory</text>
</a>
</g>
</g>
<!-- Node5&#45;&gt;Node8 -->
<g id="edge7_Node000005_Node000008" class="edge">
<title>Node5&#45;&gt;Node8</title>
<g id="a_edge7_Node000005_Node000008"><a xlink:title=" ">
<path fill="none" stroke="#63b8ff" d="M269.5,-71.37C269.5,-62.16 269.5,-47.29 269.5,-35.27"/>
<polygon fill="#63b8ff" stroke="#63b8ff" points="273,-34.91 269.5,-24.91 266,-34.91 273,-34.91"/>
</a>
</g>
</g>
<!-- Node9 -->
<g id="Node000009" class="node">
<title>Node9</title>
<g id="a_Node000009"><a xlink:title=" ">
<polygon fill="#e0e0e0" stroke="#999999" points="414.5,-24.5 316.5,-24.5 316.5,-5.5 414.5,-5.5 414.5,-24.5"/>
<text text-anchor="middle" x="365.5" y="-12.5" font-family="Helvetica,sans-Serif" font-size="10.00">spdlog/fmt/fmt.h</text>
</a>
</g>
</g>
<!-- Node5&#45;&gt;Node9 -->
<g id="edge8_Node000005_Node000009" class="edge">
<title>Node5&#45;&gt;Node9</title>
<g id="a_edge8_Node000005_Node000009"><a xlink:title=" ">
<path fill="none" stroke="#63b8ff" d="M282.45,-71.37C298.19,-60.87 325,-43 343.9,-30.4"/>
<polygon fill="#63b8ff" stroke="#63b8ff" points="346.07,-33.16 352.45,-24.7 342.19,-27.33 346.07,-33.16"/>
</a>
</g>
</g>
<!-- Node11 -->
<g id="Node000011" class="node">
<title>Node11</title>
<g id="a_Node000011"><a xlink:title=" ">
<polygon fill="#e0e0e0" stroke="#999999" points="546,-24.5 433,-24.5 433,-5.5 546,-5.5 546,-24.5"/>
<text text-anchor="middle" x="489.5" y="-12.5" font-family="Helvetica,sans-Serif" font-size="10.00">G4OpticalPhoton.hh</text>
</a>
</g>
</g>
<!-- Node10&#45;&gt;Node11 -->
<g id="edge10_Node000010_Node000011" class="edge">
<title>Node10&#45;&gt;Node11</title>
<g id="a_edge10_Node000010_Node000011"><a xlink:title=" ">
<path fill="none" stroke="#63b8ff" d="M660.8,-71.37C626.01,-60.12 565.04,-40.42 526,-27.8"/>
<polygon fill="#63b8ff" stroke="#63b8ff" points="526.69,-24.34 516.1,-24.6 524.53,-31 526.69,-24.34"/>
</a>
</g>
</g>
<!-- Node12 -->
<g id="Node000012" class="node">
<title>Node12</title>
<g id="a_Node000012"><a xlink:title=" ">
<polygon fill="#e0e0e0" stroke="#999999" points="680.5,-24.5 564.5,-24.5 564.5,-5.5 680.5,-5.5 680.5,-24.5"/>
<text text-anchor="middle" x="622.5" y="-12.5" font-family="Helvetica,sans-Serif" font-size="10.00">G4OpticalSurface.hh</text>
</a>
</g>
</g>
<!-- Node10&#45;&gt;Node12 -->
<g id="edge11_Node000010_Node000012" class="edge">
<title>Node10&#45;&gt;Node12</title>
<g id="a_edge11_Node000010_Node000012"><a xlink:title=" ">
<path fill="none" stroke="#63b8ff" d="M678.73,-71.37C668.52,-61.31 651.42,-44.48 638.76,-32.01"/>
<polygon fill="#63b8ff" stroke="#63b8ff" points="641.13,-29.43 631.54,-24.91 636.21,-34.42 641.13,-29.43"/>
</a>
</g>
</g>
<!-- Node13 -->
<g id="Node000013" class="node">
<title>Node13</title>
<g id="a_Node000013"><a xlink:title=" ">
<polygon fill="#e0e0e0" stroke="#999999" points="808.5,-24.5 698.5,-24.5 698.5,-5.5 808.5,-5.5 808.5,-24.5"/>
<text text-anchor="middle" x="753.5" y="-12.5" font-family="Helvetica,sans-Serif" font-size="10.00">G4RandomTools.hh</text>
</a>
</g>
</g>
<!-- Node10&#45;&gt;Node13 -->
<g id="edge12_Node000010_Node000013" class="edge">
<title>Node10&#45;&gt;Node13</title>
<g id="a_edge12_Node000010_Node000013"><a xlink:title=" ">
<path fill="none" stroke="#63b8ff" d="M696.4,-71.37C706.77,-61.31 724.13,-44.48 736.99,-32.01"/>
<polygon fill="#63b8ff" stroke="#63b8ff" points="739.57,-34.38 744.32,-24.91 734.7,-29.35 739.57,-34.38"/>
</a>
</g>
</g>
<!-- Node14 -->
<g id="Node000014" class="node">
<title>Node14</title>
<g id="a_Node000014"><a xlink:title=" ">
<polygon fill="#e0e0e0" stroke="#999999" points="956.5,-24.5 826.5,-24.5 826.5,-5.5 956.5,-5.5 956.5,-24.5"/>
<text text-anchor="middle" x="891.5" y="-12.5" font-family="Helvetica,sans-Serif" font-size="10.00">G4VDiscreteProcess.hh</text>
</a>
</g>
</g>
<!-- Node10&#45;&gt;Node14 -->
<g id="edge13_Node000010_Node000014" class="edge">
<title>Node10&#45;&gt;Node14</title>
<g id="a_edge13_Node000010_Node000014"><a xlink:title=" ">
<path fill="none" stroke="#63b8ff" d="M715.01,-71.37C751.01,-60.08 814.21,-40.25 854.41,-27.64"/>
<polygon fill="#63b8ff" stroke="#63b8ff" points="855.6,-30.93 864.1,-24.6 853.51,-24.25 855.6,-30.93"/>
</a>
</g>
</g>
<!-- Node15 -->
<g id="Node000015" class="node">
<title>Node15</title>
<g id="a_Node000015"><a xlink:title=" ">
<polygon fill="#e0e0e0" stroke="#999999" points="1132,-24.5 975,-24.5 975,-5.5 1132,-5.5 1132,-24.5"/>
<text text-anchor="middle" x="1053.5" y="-12.5" font-family="Helvetica,sans-Serif" font-size="10.00">G4VUserTrackInformation.hh</text>
</a>
</g>
</g>
<!-- Node10&#45;&gt;Node15 -->
<g id="edge14_Node000010_Node000015" class="edge">
<title>Node10&#45;&gt;Node15</title>
<g id="a_edge14_Node000010_Node000015"><a xlink:title=" ">
<path fill="none" stroke="#63b8ff" d="M736.48,-71.44C803.32,-59.75 922.95,-38.83 994.6,-26.3"/>
<polygon fill="#63b8ff" stroke="#63b8ff" points="995.56,-29.68 1004.81,-24.51 994.36,-22.79 995.56,-29.68"/>
</a>
</g>
</g>
<!-- Node16 -->
<g id="Node000016" class="node">
<title>Node16</title>
<g id="a_Node000016"><a xlink:title=" ">
<polygon fill="#e0e0e0" stroke="#999999" points="1281.5,-24.5 1191.5,-24.5 1191.5,-5.5 1281.5,-5.5 1281.5,-24.5"/>
<text text-anchor="middle" x="1236.5" y="-12.5" font-family="Helvetica,sans-Serif" font-size="10.00">G4AutoLock.hh</text>
</a>
</g>
</g>
<!-- Node10&#45;&gt;Node16 -->
<g id="edge15_Node000010_Node000016" class="edge">
<title>Node10&#45;&gt;Node16</title>
<g id="a_edge15_Node000010_Node000016"><a xlink:title=" ">
<path fill="none" stroke="#63b8ff" d="M739.88,-71.45C752.51,-69.52 765.97,-67.58 778.5,-66 939.34,-45.67 980.59,-49.82 1141.5,-30 1154.29,-28.42 1168.03,-26.52 1180.97,-24.64"/>
<polygon fill="#63b8ff" stroke="#63b8ff" points="1181.76,-28.06 1191.14,-23.13 1180.73,-21.13 1181.76,-28.06"/>
</a>
</g>
</g>
<!-- Node17 -->
<g id="Node000017" class="node">
<title>Node17</title>
<g id="a_Node000017"><a xlink:title=" ">
<polygon fill="#e0e0e0" stroke="#999999" points="1409.5,-24.5 1315.5,-24.5 1315.5,-5.5 1409.5,-5.5 1409.5,-24.5"/>
<text text-anchor="middle" x="1362.5" y="-12.5" font-family="Helvetica,sans-Serif" font-size="10.00">G4Threading.hh</text>
</a>
</g>
</g>
<!-- Node10&#45;&gt;Node17 -->
<g id="edge16_Node000010_Node000017" class="edge">
<title>Node10&#45;&gt;Node17</title>
<g id="a_edge16_Node000010_Node000017"><a xlink:title=" ">
<path fill="none" stroke="#63b8ff" d="M737.94,-71.48C751.11,-69.47 765.32,-67.48 778.5,-66 1005.2,-40.64 1064.34,-59.83 1290.5,-30 1297.96,-29.02 1305.82,-27.74 1313.48,-26.36"/>
<polygon fill="#63b8ff" stroke="#63b8ff" points="1314.22,-29.78 1323.41,-24.5 1312.93,-22.9 1314.22,-29.78"/>
</a>
</g>
</g>
<!-- Node26&#45;&gt;Node3 -->
<g id="edge26_Node000026_Node000003" class="edge">
<title>Node26&#45;&gt;Node3</title>
<g id="a_edge26_Node000026_Node000003"><a xlink:title=" ">
<path fill="none" stroke="#63b8ff" d="M1148.18,-241.98C1094.21,-232.67 1007.72,-217.74 950.02,-207.78"/>
<polygon fill="#63b8ff" stroke="#63b8ff" points="950.41,-204.29 939.96,-206.04 949.22,-211.19 950.41,-204.29"/>
</a>
</g>
</g>
<!-- Node26&#45;&gt;Node24 -->
<g id="edge34_Node000026_Node000024" class="edge">
<title>Node26&#45;&gt;Node24</title>
<g id="a_edge34_Node000026_Node000024"><a xlink:title=" ">
<path fill="none" stroke="#63b8ff" d="M1189.74,-241.75C1183.03,-234.18 1173.16,-223.05 1164.99,-213.84"/>
<polygon fill="#63b8ff" stroke="#63b8ff" points="1167.37,-211.25 1158.12,-206.09 1162.13,-215.89 1167.37,-211.25"/>
</a>
</g>
</g>
<!-- Node26&#45;&gt;Node26 -->
<g id="edge27_Node000026_Node000026" class="edge">
<title>Node26&#45;&gt;Node26</title>
<g id="a_edge27_Node000026_Node000026"><a xlink:title=" ">
<path fill="none" stroke="#63b8ff" d="M1240.8,-261.03C1266.21,-263.06 1290,-259.88 1290,-251.5 1290,-244.23 1272.11,-240.87 1250.79,-241.44"/>
<polygon fill="#63b8ff" stroke="#63b8ff" points="1250.6,-237.94 1240.8,-241.97 1250.97,-244.93 1250.6,-237.94"/>
</a>
</g>
</g>
<!-- Node27 -->
<g id="Node000027" class="node">
<title>Node27</title>
<g id="a_Node000027"><a xlink:href="_o_m_sim_p_m_t_response_8hh.html" target="_top" xlink:title="Simulation of PMT response.">
<polygon fill="white" stroke="#666666" points="1319,-151 1184,-151 1184,-132 1319,-132 1319,-151"/>
<text text-anchor="middle" x="1251.5" y="-139" font-family="Helvetica,sans-Serif" font-size="10.00">OMSimPMTResponse.hh</text>
</a>
</g>
</g>
<!-- Node26&#45;&gt;Node27 -->
<g id="edge28_Node000026_Node000027" class="edge">
<title>Node26&#45;&gt;Node27</title>
<g id="a_edge28_Node000026_Node000027"><a xlink:title=" ">
<path fill="none" stroke="#63b8ff" d="M1201.92,-241.66C1210.78,-223.93 1230.89,-183.73 1242.59,-160.32"/>
<polygon fill="#63b8ff" stroke="#63b8ff" points="1245.83,-161.67 1247.17,-151.16 1239.57,-158.54 1245.83,-161.67"/>
</a>
</g>
</g>
<!-- Node32 -->
<g id="Node000032" class="node">
<title>Node32</title>
<g id="a_Node000032"><a xlink:title=" ">
<polygon fill="#e0e0e0" stroke="#999999" points="1323,-206 1256,-206 1256,-187 1323,-187 1323,-206"/>
<text text-anchor="middle" x="1289.5" y="-194" font-family="Helvetica,sans-Serif" font-size="10.00">G4Tubs.hh</text>
</a>
</g>
</g>
<!-- Node26&#45;&gt;Node32 -->
<g id="edge35_Node000026_Node000032" class="edge">
<title>Node26&#45;&gt;Node32</title>
<g id="a_edge35_Node000026_Node000032"><a xlink:title=" ">
<path fill="none" stroke="#63b8ff" d="M1212.28,-241.98C1226.68,-233.69 1248.81,-220.94 1265.69,-211.22"/>
<polygon fill="#63b8ff" stroke="#63b8ff" points="1267.53,-214.19 1274.45,-206.17 1264.04,-208.13 1267.53,-214.19"/>
</a>
</g>
</g>
<!-- Node27&#45;&gt;Node18 -->
<g id="edge29_Node000027_Node000018" class="edge">
<title>Node27&#45;&gt;Node18</title>
<g id="a_edge29_Node000027_Node000018"><a xlink:title=" ">
<path fill="none" stroke="#63b8ff" d="M1211.8,-131.99C1163.18,-121.57 1080.79,-103.92 1028.05,-92.62"/>
<polygon fill="#63b8ff" stroke="#63b8ff" points="1028.76,-89.19 1018.24,-90.52 1027.29,-96.03 1028.76,-89.19"/>
</a>
</g>
</g>
<!-- Node28 -->
<g id="Node000028" class="node">
<title>Node28</title>
<g id="a_Node000028"><a xlink:title=" ">
<polygon fill="#e0e0e0" stroke="#999999" points="1129,-90.5 1056,-90.5 1056,-71.5 1129,-71.5 1129,-90.5"/>
<text text-anchor="middle" x="1092.5" y="-78.5" font-family="Helvetica,sans-Serif" font-size="10.00">G4Types.hh</text>
</a>
</g>
</g>
<!-- Node27&#45;&gt;Node28 -->
<g id="edge30_Node000027_Node000028" class="edge">
<title>Node27&#45;&gt;Node28</title>
<g id="a_edge30_Node000027_Node000028"><a xlink:title=" ">
<path fill="none" stroke="#63b8ff" d="M1228.38,-131.99C1201.18,-121.99 1155.83,-105.3 1125.08,-93.99"/>
<polygon fill="#63b8ff" stroke="#63b8ff" points="1126.24,-90.68 1115.65,-90.52 1123.82,-97.25 1126.24,-90.68"/>
</a>
</g>
</g>
<!-- Node29 -->
<g id="Node000029" class="node">
<title>Node29</title>
<g id="a_Node000029"><a xlink:title=" ">
<polygon fill="#e0e0e0" stroke="#999999" points="1185.5,-90.5 1147.5,-90.5 1147.5,-71.5 1185.5,-71.5 1185.5,-90.5"/>
<text text-anchor="middle" x="1166.5" y="-78.5" font-family="Helvetica,sans-Serif" font-size="10.00">map</text>
</a>
</g>
</g>
<!-- Node27&#45;&gt;Node29 -->
<g id="edge31_Node000027_Node000029" class="edge">
<title>Node27&#45;&gt;Node29</title>
<g id="a_edge31_Node000027_Node000029"><a xlink:title=" ">
<path fill="none" stroke="#63b8ff" d="M1238.96,-131.87C1225.4,-122.54 1203.56,-107.51 1187.4,-96.38"/>
<polygon fill="#63b8ff" stroke="#63b8ff" points="1189.32,-93.45 1179.09,-90.67 1185.35,-99.22 1189.32,-93.45"/>
</a>
</g>
</g>
<!-- Node30 -->
<g id="Node000030" class="node">
<title>Node30</title>
<g id="a_Node000030"><a xlink:title=" ">
<polygon fill="#e0e0e0" stroke="#999999" points="1265,-90.5 1204,-90.5 1204,-71.5 1265,-71.5 1265,-90.5"/>
<text text-anchor="middle" x="1234.5" y="-78.5" font-family="Helvetica,sans-Serif" font-size="10.00">TGraph.h</text>
</a>
</g>
</g>
<!-- Node27&#45;&gt;Node30 -->
<g id="edge32_Node000027_Node000030" class="edge">
<title>Node27&#45;&gt;Node30</title>
<g id="a_edge32_Node000027_Node000030"><a xlink:title=" ">
<path fill="none" stroke="#63b8ff" d="M1248.99,-131.87C1246.61,-123.66 1242.94,-111.04 1239.89,-100.55"/>
<polygon fill="#63b8ff" stroke="#63b8ff" points="1243.17,-99.29 1237.02,-90.67 1236.45,-101.25 1243.17,-99.29"/>
</a>
</g>
</g>
<!-- Node31 -->
<g id="Node000031" class="node">
<title>Node31</title>
<g id="a_Node000031"><a xlink:title=" ">
<polygon fill="#e0e0e0" stroke="#999999" points="1336,-90.5 1283,-90.5 1283,-71.5 1336,-71.5 1336,-90.5"/>
<text text-anchor="middle" x="1309.5" y="-78.5" font-family="Helvetica,sans-Serif" font-size="10.00">TH2D.h</text>
</a>
</g>
</g>
<!-- Node27&#45;&gt;Node31 -->
<g id="edge33_Node000027_Node000031" class="edge">
<title>Node27&#45;&gt;Node31</title>
<g id="a_edge33_Node000027_Node000031"><a xlink:title=" ">
<path fill="none" stroke="#63b8ff" d="M1260.06,-131.87C1268.88,-122.97 1282.84,-108.89 1293.68,-97.95"/>
<polygon fill="#63b8ff" stroke="#63b8ff" points="1296.35,-100.23 1300.91,-90.67 1291.38,-95.3 1296.35,-100.23"/>
</a>
</g>
</g>
<!-- Node33&#45;&gt;Node3 -->
<g id="edge37_Node000033_Node000003" class="edge">
<title>Node33&#45;&gt;Node3</title>
<g id="a_edge37_Node000033_Node000003"><a xlink:title=" ">
<path fill="none" stroke="#63b8ff" d="M1128.99,-302.53C1079.89,-298.1 1013.36,-287.27 960.5,-261 937.65,-249.65 916.74,-228.66 903.83,-213.93"/>
<polygon fill="#63b8ff" stroke="#63b8ff" points="906.34,-211.47 897.21,-206.1 901,-216 906.34,-211.47"/>
</a>
</g>
</g>
<!-- Node33&#45;&gt;Node26 -->
<g id="edge44_Node000033_Node000026" class="edge">
<title>Node33&#45;&gt;Node26</title>
<g id="a_edge44_Node000033_Node000026"><a xlink:title=" ">
<path fill="none" stroke="#63b8ff" d="M1197.5,-296.75C1197.5,-289.8 1197.5,-279.85 1197.5,-271.13"/>
<polygon fill="#63b8ff" stroke="#63b8ff" points="1201,-271.09 1197.5,-261.09 1194,-271.09 1201,-271.09"/>
</a>
</g>
</g>
<!-- Node34 -->
<g id="Node000034" class="node">
<title>Node34</title>
<g id="a_Node000034"><a xlink:href="_o_m_sim_hit_manager_8hh.html" target="_top" xlink:title="Defines structures and classes related to optical module photon hit management.">
<polygon fill="white" stroke="#666666" points="1464,-206 1341,-206 1341,-187 1464,-187 1464,-206"/>
<text text-anchor="middle" x="1402.5" y="-194" font-family="Helvetica,sans-Serif" font-size="10.00">OMSimHitManager.hh</text>
</a>
</g>
</g>
<!-- Node33&#45;&gt;Node34 -->
<g id="edge38_Node000033_Node000034" class="edge">
<title>Node33&#45;&gt;Node34</title>
<g id="a_edge38_Node000033_Node000034"><a xlink:title=" ">
<path fill="none" stroke="#63b8ff" d="M1219.41,-296.99C1240.35,-288.61 1272.62,-275.06 1299.5,-261 1328.72,-245.72 1360.83,-225.3 1381.3,-211.8"/>
<polygon fill="#63b8ff" stroke="#63b8ff" points="1383.45,-214.57 1389.83,-206.12 1379.57,-208.74 1383.45,-214.57"/>
</a>
</g>
</g>
<!-- Node34&#45;&gt;Node16 -->
<g id="edge42_Node000034_Node000016" class="edge">
<title>Node34&#45;&gt;Node16</title>
<g id="a_edge42_Node000034_Node000016"><a xlink:title=" ">
<path fill="none" stroke="#63b8ff" d="M1399.65,-186.98C1390.87,-161.19 1363.77,-84.55 1345.5,-66 1327.56,-47.78 1301.74,-35.53 1279.74,-27.72"/>
<polygon fill="#63b8ff" stroke="#63b8ff" points="1280.85,-24.4 1270.26,-24.54 1278.62,-31.04 1280.85,-24.4"/>
</a>
</g>
</g>
<!-- Node34&#45;&gt;Node17 -->
<g id="edge43_Node000034_Node000017" class="edge">
<title>Node34&#45;&gt;Node17</title>
<g id="a_edge43_Node000034_Node000017"><a xlink:title=" ">
<path fill="none" stroke="#63b8ff" d="M1401.3,-186.93C1398.28,-166.07 1389.83,-111.01 1378.5,-66 1375.82,-55.34 1372.11,-43.63 1368.94,-34.22"/>
<polygon fill="#63b8ff" stroke="#63b8ff" points="1372.25,-33.06 1365.67,-24.75 1365.63,-35.35 1372.25,-33.06"/>
</a>
</g>
</g>
<!-- Node34&#45;&gt;Node27 -->
<g id="edge39_Node000034_Node000027" class="edge">
<title>Node34&#45;&gt;Node27</title>
<g id="a_edge39_Node000034_Node000027"><a xlink:title=" ">
<path fill="none" stroke="#63b8ff" d="M1378.24,-186.98C1353.18,-178.19 1313.87,-164.39 1285.67,-154.49"/>
<polygon fill="#63b8ff" stroke="#63b8ff" points="1286.8,-151.18 1276.2,-151.17 1284.48,-157.78 1286.8,-151.18"/>
</a>
</g>
</g>
<!-- Node35 -->
<g id="Node000035" class="node">
<title>Node35</title>
<g id="a_Node000035"><a xlink:title=" ">
<polygon fill="#e0e0e0" stroke="#999999" points="1534,-151 1431,-151 1431,-132 1534,-132 1534,-151"/>
<text text-anchor="middle" x="1482.5" y="-139" font-family="Helvetica,sans-Serif" font-size="10.00">G4ThreeVector.hh</text>
</a>
</g>
</g>
<!-- Node34&#45;&gt;Node35 -->
<g id="edge40_Node000034_Node000035" class="edge">
<title>Node34&#45;&gt;Node35</title>
<g id="a_edge40_Node000034_Node000035"><a xlink:title=" ">
<path fill="none" stroke="#63b8ff" d="M1415.35,-186.98C1427.64,-178.84 1446.41,-166.41 1460.98,-156.76"/>
<polygon fill="#63b8ff" stroke="#63b8ff" points="1463.01,-159.61 1469.41,-151.17 1459.14,-153.78 1463.01,-159.61"/>
</a>
</g>
</g>
<!-- Node36 -->
<g id="Node000036" class="node">
<title>Node36</title>
<g id="a_Node000036"><a xlink:title=" ">
<polygon fill="#e0e0e0" stroke="#999999" points="1607,-151 1552,-151 1552,-132 1607,-132 1607,-151"/>
<text text-anchor="middle" x="1579.5" y="-139" font-family="Helvetica,sans-Serif" font-size="10.00">fstream</text>
</a>
</g>
</g>
<!-- Node34&#45;&gt;Node36 -->
<g id="edge41_Node000034_Node000036" class="edge">
<title>Node34&#45;&gt;Node36</title>
<g id="a_edge41_Node000034_Node000036"><a xlink:title=" ">
<path fill="none" stroke="#63b8ff" d="M1430.94,-186.98C1461.05,-177.97 1508.72,-163.69 1541.92,-153.75"/>
<polygon fill="#63b8ff" stroke="#63b8ff" points="1543.14,-157.04 1551.72,-150.82 1541.13,-150.34 1543.14,-157.04"/>
</a>
</g>
</g>
</g>
</svg>
