<?xml version="1.0" encoding="UTF-8" standalone="no"?>
<!DOCTYPE svg PUBLIC "-//W3C//DTD SVG 1.1//EN"
 "http://www.w3.org/Graphics/SVG/1.1/DTD/svg11.dtd">
<!-- Generated by graphviz version 2.43.0 (0)
 -->
<!-- Title: OMSimPDOM.cc Pages: 1 -->
<svg width="1706pt" height="442pt"
 viewBox="0.00 0.00 1705.50 442.00" xmlns="http://www.w3.org/2000/svg" xmlns:xlink="http://www.w3.org/1999/xlink">
<g id="graph0" class="graph" transform="scale(1 1) rotate(0) translate(4 438)">
<title>OMSimPDOM.cc</title>
<polygon fill="white" stroke="transparent" points="-4,4 -4,-438 1701.5,-438 1701.5,4 -4,4"/>
<!-- Node1 -->
<g id="node1" class="node">
<title>Node1</title>
<g id="a_node1"><a xlink:title=" ">
<polygon fill="#bfbfbf" stroke="black" points="1263.5,-414.5 1263.5,-433.5 1358.5,-433.5 1358.5,-414.5 1263.5,-414.5"/>
<text text-anchor="middle" x="1311" y="-421.5" font-family="Helvetica,sans-Serif" font-size="10.00">OMSimPDOM.cc</text>
</a>
</g>
</g>
<!-- Node2 -->
<g id="node2" class="node">
<title>Node2</title>
<g id="a_node2"><a xlink:href="_o_m_sim_p_d_o_m_8hh.html" target="_top" xlink:title="Implementation of the pDOM/Gen1 DOM class.">
<polygon fill="white" stroke="black" points="607.5,-358.5 607.5,-377.5 704.5,-377.5 704.5,-358.5 607.5,-358.5"/>
<text text-anchor="middle" x="656" y="-365.5" font-family="Helvetica,sans-Serif" font-size="10.00">OMSimPDOM.hh</text>
</a>
</g>
</g>
<!-- Node1&#45;&gt;Node2 -->
<g id="edge1" class="edge">
<title>Node1&#45;&gt;Node2</title>
<path fill="none" stroke="midnightblue" d="M1263.37,-419.07C1145.99,-409.4 843.11,-384.43 714.82,-373.85"/>
<polygon fill="midnightblue" stroke="midnightblue" points="715.04,-370.36 704.79,-373.02 714.46,-377.33 715.04,-370.36"/>
</g>
<!-- Node6 -->
<g id="node6" class="node">
<title>Node6</title>
<g id="a_node6"><a xlink:href="_o_m_sim_logger_8hh.html" target="_top" xlink:title=" ">
<polygon fill="white" stroke="black" points="1152.5,-73 1152.5,-92 1251.5,-92 1251.5,-73 1152.5,-73"/>
<text text-anchor="middle" x="1202" y="-80" font-family="Helvetica,sans-Serif" font-size="10.00">OMSimLogger.hh</text>
</a>
</g>
</g>
<!-- Node1&#45;&gt;Node6 -->
<g id="edge39" class="edge">
<title>Node1&#45;&gt;Node6</title>
<path fill="none" stroke="midnightblue" d="M1291.76,-414.42C1260.47,-398.99 1202,-363.41 1202,-313 1202,-313 1202,-313 1202,-199 1202,-164.86 1202,-125.05 1202,-102.21"/>
<polygon fill="midnightblue" stroke="midnightblue" points="1205.5,-102.19 1202,-92.19 1198.5,-102.19 1205.5,-102.19"/>
</g>
<!-- Node32 -->
<g id="node32" class="node">
<title>Node32</title>
<g id="a_node32"><a xlink:href="_o_m_sim_command_args_table_8hh.html" target="_top" xlink:title="Definition of the OMSimCommandArgsTable singleton class, which controls user args.">
<polygon fill="white" stroke="black" points="1230,-246.5 1230,-265.5 1394,-265.5 1394,-246.5 1230,-246.5"/>
<text text-anchor="middle" x="1312" y="-253.5" font-family="Helvetica,sans-Serif" font-size="10.00">OMSimCommandArgsTable.hh</text>
</a>
</g>
</g>
<!-- Node1&#45;&gt;Node32 -->
<g id="edge40" class="edge">
<title>Node1&#45;&gt;Node32</title>
<path fill="none" stroke="midnightblue" d="M1295.22,-414.47C1282.8,-406.77 1266.39,-394.18 1259,-378 1255.3,-369.92 1256.87,-366.63 1259,-358 1266.86,-326.11 1286.78,-293.15 1299.84,-273.89"/>
<polygon fill="midnightblue" stroke="midnightblue" points="1302.77,-275.8 1305.61,-265.6 1297.02,-271.8 1302.77,-275.8"/>
</g>
<!-- Node35 -->
<g id="node35" class="node">
<title>Node35</title>
<g id="a_node35"><a xlink:title=" ">
<polygon fill="white" stroke="#bfbfbf" points="1268,-358.5 1268,-377.5 1354,-377.5 1354,-358.5 1268,-358.5"/>
<text text-anchor="middle" x="1311" y="-365.5" font-family="Helvetica,sans-Serif" font-size="10.00">G4Ellipsoid.hh</text>
</a>
</g>
</g>
<!-- Node1&#45;&gt;Node35 -->
<g id="edge45" class="edge">
<title>Node1&#45;&gt;Node35</title>
<path fill="none" stroke="midnightblue" d="M1311,-414.08C1311,-407.01 1311,-396.86 1311,-387.99"/>
<polygon fill="midnightblue" stroke="midnightblue" points="1314.5,-387.75 1311,-377.75 1307.5,-387.75 1314.5,-387.75"/>
</g>
<!-- Node36 -->
<g id="node36" class="node">
<title>Node36</title>
<g id="a_node36"><a xlink:title=" ">
<polygon fill="white" stroke="#bfbfbf" points="1372.5,-358.5 1372.5,-377.5 1509.5,-377.5 1509.5,-358.5 1372.5,-358.5"/>
<text text-anchor="middle" x="1441" y="-365.5" font-family="Helvetica,sans-Serif" font-size="10.00">G4LogicalSkinSurface.hh</text>
</a>
</g>
</g>
<!-- Node1&#45;&gt;Node36 -->
<g id="edge46" class="edge">
<title>Node1&#45;&gt;Node36</title>
<path fill="none" stroke="midnightblue" d="M1331.6,-414.44C1352.99,-405.56 1386.68,-391.56 1411.02,-381.45"/>
<polygon fill="midnightblue" stroke="midnightblue" points="1412.61,-384.58 1420.5,-377.52 1409.92,-378.12 1412.61,-384.58"/>
</g>
<!-- Node37 -->
<g id="node37" class="node">
<title>Node37</title>
<g id="a_node37"><a xlink:title=" ">
<polygon fill="white" stroke="#bfbfbf" points="1528,-358.5 1528,-377.5 1590,-377.5 1590,-358.5 1528,-358.5"/>
<text text-anchor="middle" x="1559" y="-365.5" font-family="Helvetica,sans-Serif" font-size="10.00">G4Orb.hh</text>
</a>
</g>
</g>
<!-- Node1&#45;&gt;Node37 -->
<g id="edge47" class="edge">
<title>Node1&#45;&gt;Node37</title>
<path fill="none" stroke="midnightblue" d="M1350.9,-414.47C1390.74,-405.93 1454,-392.31 1518.12,-378.18"/>
<polygon fill="midnightblue" stroke="midnightblue" points="1518.99,-381.57 1528,-376 1517.48,-374.74 1518.99,-381.57"/>
</g>
<!-- Node38 -->
<g id="node38" class="node">
<title>Node38</title>
<g id="a_node38"><a xlink:title=" ">
<polygon fill="white" stroke="#bfbfbf" points="1608.5,-358.5 1608.5,-377.5 1697.5,-377.5 1697.5,-358.5 1608.5,-358.5"/>
<text text-anchor="middle" x="1653" y="-365.5" font-family="Helvetica,sans-Serif" font-size="10.00">G4Polycone.hh</text>
</a>
</g>
</g>
<!-- Node1&#45;&gt;Node38 -->
<g id="edge48" class="edge">
<title>Node1&#45;&gt;Node38</title>
<path fill="none" stroke="midnightblue" d="M1358.67,-415.7C1413.8,-407.23 1507.56,-392.72 1598.31,-378.1"/>
<polygon fill="midnightblue" stroke="midnightblue" points="1598.9,-381.55 1608.22,-376.5 1597.79,-374.64 1598.9,-381.55"/>
</g>
<!-- Node3 -->
<g id="node3" class="node">
<title>Node3</title>
<g id="a_node3"><a xlink:href="_o_m_sim_p_m_t_construction_8hh.html" target="_top" xlink:title="Construction of the PMTs.">
<polygon fill="white" stroke="black" points="461.5,-246.5 461.5,-265.5 610.5,-265.5 610.5,-246.5 461.5,-246.5"/>
<text text-anchor="middle" x="536" y="-253.5" font-family="Helvetica,sans-Serif" font-size="10.00">OMSimPMTConstruction.hh</text>
</a>
</g>
</g>
<!-- Node2&#45;&gt;Node3 -->
<g id="edge2" class="edge">
<title>Node2&#45;&gt;Node3</title>
<path fill="none" stroke="midnightblue" d="M635.36,-358.4C618.53,-350.66 594.88,-338.05 578,-322 563.74,-308.44 552.05,-289.12 544.66,-275.07"/>
<polygon fill="midnightblue" stroke="midnightblue" points="547.68,-273.29 540.06,-265.93 541.43,-276.44 547.68,-273.29"/>
</g>
<!-- Node25 -->
<g id="node25" class="node">
<title>Node25</title>
<g id="a_node25"><a xlink:href="_o_m_sim_optical_module_8hh.html" target="_top" xlink:title=" ">
<polygon fill="white" stroke="black" points="587.5,-302.5 587.5,-321.5 724.5,-321.5 724.5,-302.5 587.5,-302.5"/>
<text text-anchor="middle" x="656" y="-309.5" font-family="Helvetica,sans-Serif" font-size="10.00">OMSimOpticalModule.hh</text>
</a>
</g>
</g>
<!-- Node2&#45;&gt;Node25 -->
<g id="edge26" class="edge">
<title>Node2&#45;&gt;Node25</title>
<path fill="none" stroke="midnightblue" d="M656,-358.08C656,-351.01 656,-340.86 656,-331.99"/>
<polygon fill="midnightblue" stroke="midnightblue" points="659.5,-331.75 656,-321.75 652.5,-331.75 659.5,-331.75"/>
</g>
<!-- Node3&#45;&gt;Node3 -->
<g id="edge17" class="edge">
<title>Node3&#45;&gt;Node3</title>
<path fill="none" stroke="midnightblue" d="M575.45,-265.53C602.26,-268.31 628.5,-265.13 628.5,-256 628.5,-248.01 608.41,-244.58 585.43,-245.71"/>
<polygon fill="midnightblue" stroke="midnightblue" points="585.15,-242.22 575.45,-246.47 585.69,-249.2 585.15,-242.22"/>
</g>
<!-- Node4 -->
<g id="node4" class="node">
<title>Node4</title>
<g id="a_node4"><a xlink:href="abc_detector_component_8hh.html" target="_top" xlink:title="Provides helper base class abcDetectorComponent for constructing and managing detector components in ...">
<polygon fill="white" stroke="black" points="462.5,-190.5 462.5,-209.5 609.5,-209.5 609.5,-190.5 462.5,-190.5"/>
<text text-anchor="middle" x="536" y="-197.5" font-family="Helvetica,sans-Serif" font-size="10.00">abcDetectorComponent.hh</text>
</a>
</g>
</g>
<!-- Node3&#45;&gt;Node4 -->
<g id="edge3" class="edge">
<title>Node3&#45;&gt;Node4</title>
<path fill="none" stroke="midnightblue" d="M536,-246.08C536,-239.01 536,-228.86 536,-219.99"/>
<polygon fill="midnightblue" stroke="midnightblue" points="539.5,-219.75 536,-209.75 532.5,-219.75 539.5,-219.75"/>
</g>
<!-- Node18 -->
<g id="node18" class="node">
<title>Node18</title>
<g id="a_node18"><a xlink:href="_o_m_sim_p_m_t_response_8hh.html" target="_top" xlink:title="Provides simulation for PMT response. This class is responsible for transforming hits on photocathode...">
<polygon fill="white" stroke="black" points="695.5,-134.5 695.5,-153.5 830.5,-153.5 830.5,-134.5 695.5,-134.5"/>
<text text-anchor="middle" x="763" y="-141.5" font-family="Helvetica,sans-Serif" font-size="10.00">OMSimPMTResponse.hh</text>
</a>
</g>
</g>
<!-- Node3&#45;&gt;Node18 -->
<g id="edge18" class="edge">
<title>Node3&#45;&gt;Node18</title>
<path fill="none" stroke="midnightblue" d="M553.81,-246.37C593.43,-227.17 689.04,-180.84 736.02,-158.07"/>
<polygon fill="midnightblue" stroke="midnightblue" points="737.8,-161.1 745.27,-153.59 734.75,-154.8 737.8,-161.1"/>
</g>
<!-- Node23 -->
<g id="node23" class="node">
<title>Node23</title>
<g id="a_node23"><a xlink:title=" ">
<polygon fill="white" stroke="#bfbfbf" points="346,-190.5 346,-209.5 444,-209.5 444,-190.5 346,-190.5"/>
<text text-anchor="middle" x="395" y="-197.5" font-family="Helvetica,sans-Serif" font-size="10.00">G4UnionSolid.hh</text>
</a>
</g>
</g>
<!-- Node3&#45;&gt;Node23 -->
<g id="edge24" class="edge">
<title>Node3&#45;&gt;Node23</title>
<path fill="none" stroke="midnightblue" d="M513.66,-246.44C490.25,-237.48 453.26,-223.31 426.81,-213.18"/>
<polygon fill="midnightblue" stroke="midnightblue" points="427.83,-209.82 417.24,-209.52 425.32,-216.36 427.83,-209.82"/>
</g>
<!-- Node24 -->
<g id="node24" class="node">
<title>Node24</title>
<g id="a_node24"><a xlink:title=" ">
<polygon fill="white" stroke="#bfbfbf" points="260.5,-190.5 260.5,-209.5 327.5,-209.5 327.5,-190.5 260.5,-190.5"/>
<text text-anchor="middle" x="294" y="-197.5" font-family="Helvetica,sans-Serif" font-size="10.00">G4Tubs.hh</text>
</a>
</g>
</g>
<!-- Node3&#45;&gt;Node24 -->
<g id="edge25" class="edge">
<title>Node3&#45;&gt;Node24</title>
<path fill="none" stroke="midnightblue" d="M497.65,-246.44C454.16,-236.74 383.38,-220.95 337.77,-210.77"/>
<polygon fill="midnightblue" stroke="midnightblue" points="338.39,-207.32 327.87,-208.56 336.87,-214.15 338.39,-207.32"/>
</g>
<!-- Node5 -->
<g id="node5" class="node">
<title>Node5</title>
<g id="a_node5"><a xlink:href="_o_m_sim_input_data_8hh.html" target="_top" xlink:title="Definition of ParameterTable and InputDataManager.">
<polygon fill="white" stroke="black" points="562.5,-134.5 562.5,-153.5 677.5,-153.5 677.5,-134.5 562.5,-134.5"/>
<text text-anchor="middle" x="620" y="-141.5" font-family="Helvetica,sans-Serif" font-size="10.00">OMSimInputData.hh</text>
</a>
</g>
</g>
<!-- Node4&#45;&gt;Node5 -->
<g id="edge4" class="edge">
<title>Node4&#45;&gt;Node5</title>
<path fill="none" stroke="midnightblue" d="M549.5,-190.32C562.6,-181.9 582.71,-168.97 598.11,-159.07"/>
<polygon fill="midnightblue" stroke="midnightblue" points="600.02,-162.01 606.54,-153.65 596.23,-156.12 600.02,-162.01"/>
</g>
<!-- Node14 -->
<g id="node14" class="node">
<title>Node14</title>
<g id="a_node14"><a xlink:title=" ">
<polygon fill="white" stroke="#bfbfbf" points="398.5,-134.5 398.5,-153.5 505.5,-153.5 505.5,-134.5 398.5,-134.5"/>
<text text-anchor="middle" x="452" y="-141.5" font-family="Helvetica,sans-Serif" font-size="10.00">G4Transform3D.hh</text>
</a>
</g>
</g>
<!-- Node4&#45;&gt;Node14 -->
<g id="edge13" class="edge">
<title>Node4&#45;&gt;Node14</title>
<path fill="none" stroke="midnightblue" d="M522.5,-190.32C509.4,-181.9 489.29,-168.97 473.89,-159.07"/>
<polygon fill="midnightblue" stroke="midnightblue" points="475.77,-156.12 465.46,-153.65 471.98,-162.01 475.77,-156.12"/>
</g>
<!-- Node15 -->
<g id="node15" class="node">
<title>Node15</title>
<g id="a_node15"><a xlink:title=" ">
<polygon fill="white" stroke="#bfbfbf" points="0,-134.5 0,-153.5 108,-153.5 108,-134.5 0,-134.5"/>
<text text-anchor="middle" x="54" y="-141.5" font-family="Helvetica,sans-Serif" font-size="10.00">G4VisAttributes.hh</text>
</a>
</g>
</g>
<!-- Node4&#45;&gt;Node15 -->
<g id="edge14" class="edge">
<title>Node4&#45;&gt;Node15</title>
<path fill="none" stroke="midnightblue" d="M462.23,-191C459.11,-190.66 456.03,-190.33 453,-190 306.89,-174.25 267.7,-172.68 118.28,-154.13"/>
<polygon fill="midnightblue" stroke="midnightblue" points="118.64,-150.64 108.28,-152.88 117.77,-157.59 118.64,-150.64"/>
</g>
<!-- Node16 -->
<g id="node16" class="node">
<title>Node16</title>
<g id="a_node16"><a xlink:title=" ">
<polygon fill="white" stroke="#bfbfbf" points="126.5,-134.5 126.5,-153.5 251.5,-153.5 251.5,-134.5 126.5,-134.5"/>
<text text-anchor="middle" x="189" y="-141.5" font-family="Helvetica,sans-Serif" font-size="10.00">G4SubtractionSolid.hh</text>
</a>
</g>
</g>
<!-- Node4&#45;&gt;Node16 -->
<g id="edge15" class="edge">
<title>Node4&#45;&gt;Node16</title>
<path fill="none" stroke="midnightblue" d="M481.02,-190.44C419.34,-180.85 319.39,-165.29 253.93,-155.1"/>
<polygon fill="midnightblue" stroke="midnightblue" points="254.15,-151.6 243.73,-153.52 253.07,-158.51 254.15,-151.6"/>
</g>
<!-- Node17 -->
<g id="node17" class="node">
<title>Node17</title>
<g id="a_node17"><a xlink:title=" ">
<polygon fill="white" stroke="#bfbfbf" points="270,-134.5 270,-153.5 380,-153.5 380,-134.5 270,-134.5"/>
<text text-anchor="middle" x="325" y="-141.5" font-family="Helvetica,sans-Serif" font-size="10.00">G4PVPlacement.hh</text>
</a>
</g>
</g>
<!-- Node4&#45;&gt;Node17 -->
<g id="edge16" class="edge">
<title>Node4&#45;&gt;Node17</title>
<path fill="none" stroke="midnightblue" d="M502.57,-190.44C466.14,-181.12 407.77,-166.18 367.97,-156"/>
<polygon fill="midnightblue" stroke="midnightblue" points="368.83,-152.61 358.28,-153.52 367.1,-159.39 368.83,-152.61"/>
</g>
<!-- Node5&#45;&gt;Node6 -->
<g id="edge5" class="edge">
<title>Node5&#45;&gt;Node6</title>
<path fill="none" stroke="midnightblue" d="M677.58,-135.02C680.42,-134.66 683.24,-134.32 686,-134 850.97,-114.69 1046.21,-96.98 1142.37,-88.59"/>
<polygon fill="midnightblue" stroke="midnightblue" points="1142.82,-92.07 1152.48,-87.72 1142.22,-85.1 1142.82,-92.07"/>
</g>
<!-- Node11 -->
<g id="node11" class="node">
<title>Node11</title>
<g id="a_node11"><a xlink:title=" ">
<polygon fill="white" stroke="#bfbfbf" points="297.5,-73 297.5,-92 440.5,-92 440.5,-73 297.5,-73"/>
<text text-anchor="middle" x="369" y="-80" font-family="Helvetica,sans-Serif" font-size="10.00">G4OpBoundaryProcess.hh</text>
</a>
</g>
</g>
<!-- Node5&#45;&gt;Node11 -->
<g id="edge10" class="edge">
<title>Node5&#45;&gt;Node11</title>
<path fill="none" stroke="midnightblue" d="M584.04,-134.48C539.49,-123.92 463.54,-105.91 414.85,-94.37"/>
<polygon fill="midnightblue" stroke="midnightblue" points="415.43,-90.91 404.9,-92.01 413.82,-97.72 415.43,-90.91"/>
</g>
<!-- Node12 -->
<g id="node12" class="node">
<title>Node12</title>
<g id="a_node12"><a xlink:title=" ">
<polygon fill="white" stroke="#bfbfbf" points="589.5,-73 589.5,-92 708.5,-92 708.5,-73 589.5,-73"/>
<text text-anchor="middle" x="649" y="-80" font-family="Helvetica,sans-Serif" font-size="10.00">G4SystemOfUnits.hh</text>
</a>
</g>
</g>
<!-- Node5&#45;&gt;Node12 -->
<g id="edge11" class="edge">
<title>Node5&#45;&gt;Node12</title>
<path fill="none" stroke="midnightblue" d="M624.15,-134.48C628.38,-125.82 635.04,-112.15 640.4,-101.15"/>
<polygon fill="midnightblue" stroke="midnightblue" points="643.62,-102.53 644.85,-92.01 637.33,-99.46 643.62,-102.53"/>
</g>
<!-- Node13 -->
<g id="node13" class="node">
<title>Node13</title>
<g id="a_node13"><a xlink:title=" ">
<polygon fill="white" stroke="#bfbfbf" points="458.5,-67.5 458.5,-97.5 571.5,-97.5 571.5,-67.5 458.5,-67.5"/>
<text text-anchor="start" x="466.5" y="-85.5" font-family="Helvetica,sans-Serif" font-size="10.00">boost/property_tree</text>
<text text-anchor="middle" x="515" y="-74.5" font-family="Helvetica,sans-Serif" font-size="10.00">/json_parser.hpp</text>
</a>
</g>
</g>
<!-- Node5&#45;&gt;Node13 -->
<g id="edge12" class="edge">
<title>Node5&#45;&gt;Node13</title>
<path fill="none" stroke="midnightblue" d="M604.96,-134.48C590.34,-126.19 567.63,-113.32 548.69,-102.59"/>
<polygon fill="midnightblue" stroke="midnightblue" points="550.17,-99.41 539.75,-97.52 546.72,-105.5 550.17,-99.41"/>
</g>
<!-- Node7 -->
<g id="node7" class="node">
<title>Node7</title>
<g id="a_node7"><a xlink:title=" ">
<polygon fill="white" stroke="#bfbfbf" points="983.5,-6 983.5,-25 1076.5,-25 1076.5,-6 983.5,-6"/>
<text text-anchor="middle" x="1030" y="-13" font-family="Helvetica,sans-Serif" font-size="10.00">spdlog/spdlog.h</text>
</a>
</g>
</g>
<!-- Node6&#45;&gt;Node7 -->
<g id="edge6" class="edge">
<title>Node6&#45;&gt;Node7</title>
<path fill="none" stroke="midnightblue" d="M1179.16,-72.87C1149.13,-61.52 1096.22,-41.52 1062.16,-28.65"/>
<polygon fill="midnightblue" stroke="midnightblue" points="1063.25,-25.32 1052.66,-25.06 1060.78,-31.87 1063.25,-25.32"/>
</g>
<!-- Node8 -->
<g id="node8" class="node">
<title>Node8</title>
<g id="a_node8"><a xlink:title=" ">
<polygon fill="white" stroke="#bfbfbf" points="1094.5,-0.5 1094.5,-30.5 1205.5,-30.5 1205.5,-0.5 1094.5,-0.5"/>
<text text-anchor="start" x="1102.5" y="-18.5" font-family="Helvetica,sans-Serif" font-size="10.00">spdlog/sinks/stdout</text>
<text text-anchor="middle" x="1150" y="-7.5" font-family="Helvetica,sans-Serif" font-size="10.00">_color_sinks.h</text>
</a>
</g>
</g>
<!-- Node6&#45;&gt;Node8 -->
<g id="edge7" class="edge">
<title>Node6&#45;&gt;Node8</title>
<path fill="none" stroke="midnightblue" d="M1194.99,-72.73C1188.03,-64.03 1177.08,-50.34 1167.72,-38.65"/>
<polygon fill="midnightblue" stroke="midnightblue" points="1170.25,-36.21 1161.27,-30.59 1164.79,-40.58 1170.25,-36.21"/>
</g>
<!-- Node9 -->
<g id="node9" class="node">
<title>Node9</title>
<g id="a_node9"><a xlink:title=" ">
<polygon fill="white" stroke="#bfbfbf" points="1224,-6 1224,-25 1282,-25 1282,-6 1224,-6"/>
<text text-anchor="middle" x="1253" y="-13" font-family="Helvetica,sans-Serif" font-size="10.00">memory</text>
</a>
</g>
</g>
<!-- Node6&#45;&gt;Node9 -->
<g id="edge8" class="edge">
<title>Node6&#45;&gt;Node9</title>
<path fill="none" stroke="midnightblue" d="M1208.88,-72.73C1216.83,-62.6 1230.1,-45.69 1240.01,-33.06"/>
<polygon fill="midnightblue" stroke="midnightblue" points="1242.81,-35.16 1246.23,-25.13 1237.3,-30.83 1242.81,-35.16"/>
</g>
<!-- Node10 -->
<g id="node10" class="node">
<title>Node10</title>
<g id="a_node10"><a xlink:title=" ">
<polygon fill="white" stroke="#bfbfbf" points="1300,-6 1300,-25 1398,-25 1398,-6 1300,-6"/>
<text text-anchor="middle" x="1349" y="-13" font-family="Helvetica,sans-Serif" font-size="10.00">spdlog/fmt/fmt.h</text>
</a>
</g>
</g>
<!-- Node6&#45;&gt;Node10 -->
<g id="edge9" class="edge">
<title>Node6&#45;&gt;Node10</title>
<path fill="none" stroke="midnightblue" d="M1221.52,-72.87C1246.78,-61.7 1291,-42.15 1320.14,-29.26"/>
<polygon fill="midnightblue" stroke="midnightblue" points="1321.67,-32.41 1329.4,-25.17 1318.84,-26.01 1321.67,-32.41"/>
</g>
<!-- Node18&#45;&gt;Node12 -->
<g id="edge19" class="edge">
<title>Node18&#45;&gt;Node12</title>
<path fill="none" stroke="midnightblue" d="M746.67,-134.48C727.79,-124.62 696.49,-108.29 674.42,-96.77"/>
<polygon fill="midnightblue" stroke="midnightblue" points="675.79,-93.53 665.3,-92.01 672.55,-99.74 675.79,-93.53"/>
</g>
<!-- Node19 -->
<g id="node19" class="node">
<title>Node19</title>
<g id="a_node19"><a xlink:title=" ">
<polygon fill="white" stroke="#bfbfbf" points="726.5,-73 726.5,-92 799.5,-92 799.5,-73 726.5,-73"/>
<text text-anchor="middle" x="763" y="-80" font-family="Helvetica,sans-Serif" font-size="10.00">G4Types.hh</text>
</a>
</g>
</g>
<!-- Node18&#45;&gt;Node19 -->
<g id="edge20" class="edge">
<title>Node18&#45;&gt;Node19</title>
<path fill="none" stroke="midnightblue" d="M763,-134.48C763,-126.08 763,-112.98 763,-102.16"/>
<polygon fill="midnightblue" stroke="midnightblue" points="766.5,-102.01 763,-92.01 759.5,-102.01 766.5,-102.01"/>
</g>
<!-- Node20 -->
<g id="node20" class="node">
<title>Node20</title>
<g id="a_node20"><a xlink:title=" ">
<polygon fill="white" stroke="#bfbfbf" points="818,-73 818,-92 856,-92 856,-73 818,-73"/>
<text text-anchor="middle" x="837" y="-80" font-family="Helvetica,sans-Serif" font-size="10.00">map</text>
</a>
</g>
</g>
<!-- Node18&#45;&gt;Node20 -->
<g id="edge21" class="edge">
<title>Node18&#45;&gt;Node20</title>
<path fill="none" stroke="midnightblue" d="M773.6,-134.48C785.25,-125.11 804.19,-109.88 818.33,-98.51"/>
<polygon fill="midnightblue" stroke="midnightblue" points="820.82,-101 826.42,-92.01 816.43,-95.55 820.82,-101"/>
</g>
<!-- Node21 -->
<g id="node21" class="node">
<title>Node21</title>
<g id="a_node21"><a xlink:title=" ">
<polygon fill="white" stroke="#bfbfbf" points="874.5,-73 874.5,-92 935.5,-92 935.5,-73 874.5,-73"/>
<text text-anchor="middle" x="905" y="-80" font-family="Helvetica,sans-Serif" font-size="10.00">TGraph.h</text>
</a>
</g>
</g>
<!-- Node18&#45;&gt;Node21 -->
<g id="edge22" class="edge">
<title>Node18&#45;&gt;Node21</title>
<path fill="none" stroke="midnightblue" d="M783.35,-134.48C807.39,-124.4 847.6,-107.55 875.16,-96"/>
<polygon fill="midnightblue" stroke="midnightblue" points="876.82,-99.1 884.69,-92.01 874.12,-92.65 876.82,-99.1"/>
</g>
<!-- Node22 -->
<g id="node22" class="node">
<title>Node22</title>
<g id="a_node22"><a xlink:title=" ">
<polygon fill="white" stroke="#bfbfbf" points="953.5,-73 953.5,-92 1006.5,-92 1006.5,-73 953.5,-73"/>
<text text-anchor="middle" x="980" y="-80" font-family="Helvetica,sans-Serif" font-size="10.00">TH2D.h</text>
</a>
</g>
</g>
<!-- Node18&#45;&gt;Node22 -->
<g id="edge23" class="edge">
<title>Node18&#45;&gt;Node22</title>
<path fill="none" stroke="midnightblue" d="M804.44,-134.42C841.42,-126.36 896.87,-113.27 944,-98 946.14,-97.31 948.32,-96.55 950.52,-95.76"/>
<polygon fill="midnightblue" stroke="midnightblue" points="951.91,-98.97 960,-92.13 949.41,-92.43 951.91,-98.97"/>
</g>
<!-- Node25&#45;&gt;Node3 -->
<g id="edge38" class="edge">
<title>Node25&#45;&gt;Node3</title>
<path fill="none" stroke="midnightblue" d="M636.99,-302.44C617.41,-293.64 586.69,-279.81 564.27,-269.72"/>
<polygon fill="midnightblue" stroke="midnightblue" points="565.48,-266.43 554.93,-265.52 562.61,-272.81 565.48,-266.43"/>
</g>
<!-- Node25&#45;&gt;Node4 -->
<g id="edge27" class="edge">
<title>Node25&#45;&gt;Node4</title>
<path fill="none" stroke="midnightblue" d="M655.71,-302.33C654.82,-288.74 651.23,-262.29 637,-246 623.23,-230.24 602.88,-219.74 584.04,-212.89"/>
<polygon fill="midnightblue" stroke="midnightblue" points="584.97,-209.5 574.38,-209.62 582.73,-216.14 584.97,-209.5"/>
</g>
<!-- Node26 -->
<g id="node26" class="node">
<title>Node26</title>
<g id="a_node26"><a xlink:href="_o_m_sim_hit_manager_8hh.html" target="_top" xlink:title="Defines structures and classes related to optical module photon hit management.">
<polygon fill="white" stroke="black" points="856.5,-246.5 856.5,-265.5 979.5,-265.5 979.5,-246.5 856.5,-246.5"/>
<text text-anchor="middle" x="918" y="-253.5" font-family="Helvetica,sans-Serif" font-size="10.00">OMSimHitManager.hh</text>
</a>
</g>
</g>
<!-- Node25&#45;&gt;Node26 -->
<g id="edge28" class="edge">
<title>Node25&#45;&gt;Node26</title>
<path fill="none" stroke="midnightblue" d="M697.51,-302.44C743.41,-292.98 817.38,-277.74 866.83,-267.55"/>
<polygon fill="midnightblue" stroke="midnightblue" points="867.59,-270.96 876.68,-265.52 866.18,-264.11 867.59,-270.96"/>
</g>
<!-- Node26&#45;&gt;Node18 -->
<g id="edge29" class="edge">
<title>Node26&#45;&gt;Node18</title>
<path fill="none" stroke="midnightblue" d="M897.99,-246.43C879.97,-238.28 853.14,-225.05 832,-210 811.6,-195.48 791.08,-175.26 777.78,-161.24"/>
<polygon fill="midnightblue" stroke="midnightblue" points="780.23,-158.73 770.85,-153.8 775.1,-163.5 780.23,-158.73"/>
</g>
<!-- Node27 -->
<g id="node27" class="node">
<title>Node27</title>
<g id="a_node27"><a xlink:href="_o_m_sim_sensitive_detector_8hh.html" target="_top" xlink:title=" ">
<polygon fill="white" stroke="black" points="841.5,-190.5 841.5,-209.5 994.5,-209.5 994.5,-190.5 841.5,-190.5"/>
<text text-anchor="middle" x="918" y="-197.5" font-family="Helvetica,sans-Serif" font-size="10.00">OMSimSensitiveDetector.hh</text>
</a>
</g>
</g>
<!-- Node26&#45;&gt;Node27 -->
<g id="edge30" class="edge">
<title>Node26&#45;&gt;Node27</title>
<path fill="none" stroke="midnightblue" d="M918,-246.08C918,-239.01 918,-228.86 918,-219.99"/>
<polygon fill="midnightblue" stroke="midnightblue" points="921.5,-219.75 918,-209.75 914.5,-219.75 921.5,-219.75"/>
</g>
<!-- Node29 -->
<g id="node29" class="node">
<title>Node29</title>
<g id="a_node29"><a xlink:title=" ">
<polygon fill="white" stroke="#bfbfbf" points="1070.5,-134.5 1070.5,-153.5 1173.5,-153.5 1173.5,-134.5 1070.5,-134.5"/>
<text text-anchor="middle" x="1122" y="-141.5" font-family="Helvetica,sans-Serif" font-size="10.00">G4ThreeVector.hh</text>
</a>
</g>
</g>
<!-- Node26&#45;&gt;Node29 -->
<g id="edge36" class="edge">
<title>Node26&#45;&gt;Node29</title>
<path fill="none" stroke="midnightblue" d="M934.33,-246.44C951.47,-237.43 979.18,-222.81 1003,-210 1035.76,-192.38 1073.42,-171.75 1097.45,-158.53"/>
<polygon fill="midnightblue" stroke="midnightblue" points="1099.18,-161.58 1106.25,-153.69 1095.8,-155.44 1099.18,-161.58"/>
</g>
<!-- Node31 -->
<g id="node31" class="node">
<title>Node31</title>
<g id="a_node31"><a xlink:title=" ">
<polygon fill="white" stroke="#bfbfbf" points="1101.5,-190.5 1101.5,-209.5 1156.5,-209.5 1156.5,-190.5 1101.5,-190.5"/>
<text text-anchor="middle" x="1129" y="-197.5" font-family="Helvetica,sans-Serif" font-size="10.00">fstream</text>
</a>
</g>
</g>
<!-- Node26&#45;&gt;Node31 -->
<g id="edge37" class="edge">
<title>Node26&#45;&gt;Node31</title>
<path fill="none" stroke="midnightblue" d="M951.43,-246.44C989.6,-236.68 1051.86,-220.74 1091.6,-210.57"/>
<polygon fill="midnightblue" stroke="midnightblue" points="1092.62,-213.92 1101.44,-208.05 1090.88,-207.14 1092.62,-213.92"/>
</g>
<!-- Node27&#45;&gt;Node11 -->
<g id="edge34" class="edge">
<title>Node27&#45;&gt;Node11</title>
<path fill="none" stroke="midnightblue" d="M841.23,-197.31C766.23,-193.87 649.58,-183.69 553,-154 534.38,-148.28 531.91,-141.67 514,-134 478.49,-118.8 436.72,-104.62 407.15,-95.19"/>
<polygon fill="midnightblue" stroke="midnightblue" points="407.83,-91.73 397.24,-92.05 405.72,-98.4 407.83,-91.73"/>
</g>
<!-- Node27&#45;&gt;Node18 -->
<g id="edge33" class="edge">
<title>Node27&#45;&gt;Node18</title>
<path fill="none" stroke="midnightblue" d="M893.44,-190.44C867.48,-181.4 826.33,-167.06 797.2,-156.92"/>
<polygon fill="midnightblue" stroke="midnightblue" points="798.04,-153.5 787.45,-153.52 795.74,-160.11 798.04,-153.5"/>
</g>
<!-- Node28 -->
<g id="node28" class="node">
<title>Node28</title>
<g id="a_node28"><a xlink:title=" ">
<polygon fill="white" stroke="#bfbfbf" points="849,-134.5 849,-153.5 987,-153.5 987,-134.5 849,-134.5"/>
<text text-anchor="middle" x="918" y="-141.5" font-family="Helvetica,sans-Serif" font-size="10.00">G4VSensitiveDetector.hh</text>
</a>
</g>
</g>
<!-- Node27&#45;&gt;Node28 -->
<g id="edge31" class="edge">
<title>Node27&#45;&gt;Node28</title>
<path fill="none" stroke="midnightblue" d="M918,-190.08C918,-183.01 918,-172.86 918,-163.99"/>
<polygon fill="midnightblue" stroke="midnightblue" points="921.5,-163.75 918,-153.75 914.5,-163.75 921.5,-163.75"/>
</g>
<!-- Node27&#45;&gt;Node29 -->
<g id="edge32" class="edge">
<title>Node27&#45;&gt;Node29</title>
<path fill="none" stroke="midnightblue" d="M950.32,-190.44C985.39,-181.16 1041.5,-166.31 1079.96,-156.13"/>
<polygon fill="midnightblue" stroke="midnightblue" points="1081.06,-159.46 1089.83,-153.52 1079.26,-152.69 1081.06,-159.46"/>
</g>
<!-- Node30 -->
<g id="node30" class="node">
<title>Node30</title>
<g id="a_node30"><a xlink:title=" ">
<polygon fill="white" stroke="#bfbfbf" points="1005.5,-134.5 1005.5,-153.5 1052.5,-153.5 1052.5,-134.5 1005.5,-134.5"/>
<text text-anchor="middle" x="1029" y="-141.5" font-family="Helvetica,sans-Serif" font-size="10.00">vector</text>
</a>
</g>
</g>
<!-- Node27&#45;&gt;Node30 -->
<g id="edge35" class="edge">
<title>Node27&#45;&gt;Node30</title>
<path fill="none" stroke="midnightblue" d="M935.83,-190.32C953.72,-181.62 981.48,-168.12 1002.05,-158.11"/>
<polygon fill="midnightblue" stroke="midnightblue" points="1003.75,-161.18 1011.21,-153.65 1000.69,-154.88 1003.75,-161.18"/>
</g>
<!-- Node32&#45;&gt;Node6 -->
<g id="edge41" class="edge">
<title>Node32&#45;&gt;Node6</title>
<path fill="none" stroke="midnightblue" d="M1299.35,-246.2C1288.13,-237.89 1271.89,-224.56 1261,-210 1235.09,-175.36 1216.63,-127.52 1207.83,-101.74"/>
<polygon fill="midnightblue" stroke="midnightblue" points="1211.11,-100.53 1204.65,-92.14 1204.47,-102.73 1211.11,-100.53"/>
</g>
<!-- Node32&#45;&gt;Node31 -->
<g id="edge42" class="edge">
<title>Node32&#45;&gt;Node31</title>
<path fill="none" stroke="midnightblue" d="M1283,-246.44C1251.45,-237.13 1200.9,-222.22 1166.38,-212.03"/>
<polygon fill="midnightblue" stroke="midnightblue" points="1167.25,-208.64 1156.66,-209.16 1165.26,-215.35 1167.25,-208.64"/>
</g>
<!-- Node33 -->
<g id="node33" class="node">
<title>Node33</title>
<g id="a_node33"><a xlink:title=" ">
<polygon fill="white" stroke="#bfbfbf" points="1270,-190.5 1270,-209.5 1354,-209.5 1354,-190.5 1270,-190.5"/>
<text text-anchor="middle" x="1312" y="-197.5" font-family="Helvetica,sans-Serif" font-size="10.00">boost/any.hpp</text>
</a>
</g>
</g>
<!-- Node32&#45;&gt;Node33 -->
<g id="edge43" class="edge">
<title>Node32&#45;&gt;Node33</title>
<path fill="none" stroke="midnightblue" d="M1312,-246.08C1312,-239.01 1312,-228.86 1312,-219.99"/>
<polygon fill="midnightblue" stroke="midnightblue" points="1315.5,-219.75 1312,-209.75 1308.5,-219.75 1315.5,-219.75"/>
</g>
<!-- Node34 -->
<g id="node34" class="node">
<title>Node34</title>
<g id="a_node34"><a xlink:title=" ">
<polygon fill="white" stroke="#bfbfbf" points="1372,-190.5 1372,-209.5 1440,-209.5 1440,-190.5 1372,-190.5"/>
<text text-anchor="middle" x="1406" y="-197.5" font-family="Helvetica,sans-Serif" font-size="10.00">sys/time.h</text>
</a>
</g>
</g>
<!-- Node32&#45;&gt;Node34 -->
<g id="edge44" class="edge">
<title>Node32&#45;&gt;Node34</title>
<path fill="none" stroke="midnightblue" d="M1327.1,-246.32C1341.9,-237.82 1364.69,-224.73 1381.98,-214.8"/>
<polygon fill="midnightblue" stroke="midnightblue" points="1384.01,-217.67 1390.93,-209.65 1380.52,-211.6 1384.01,-217.67"/>
</g>
</g>
</svg>
