<?xml version="1.0" encoding="UTF-8" standalone="no"?>
<!DOCTYPE svg PUBLIC "-//W3C//DTD SVG 1.1//EN"
 "http://www.w3.org/Graphics/SVG/1.1/DTD/svg11.dtd">
<!-- Generated by graphviz version 2.43.0 (0)
 -->
<!-- Title: OMSimSensitiveDetector.cc Pages: 1 -->
<svg width="2578pt" height="207pt"
 viewBox="0.00 0.00 2577.50 207.00" xmlns="http://www.w3.org/2000/svg" xmlns:xlink="http://www.w3.org/1999/xlink">
<g id="graph0" class="graph" transform="scale(1 1) rotate(0) translate(4 203)">
<title>OMSimSensitiveDetector.cc</title>
<polygon fill="white" stroke="transparent" points="-4,4 -4,-203 2573.5,-203 2573.5,4 -4,4"/>
<!-- Node1 -->
<g id="node1" class="node">
<title>Node1</title>
<g id="a_node1"><a xlink:title=" ">
<polygon fill="#bfbfbf" stroke="black" points="1213,-179.5 1213,-198.5 1365,-198.5 1365,-179.5 1213,-179.5"/>
<text text-anchor="middle" x="1289" y="-186.5" font-family="Helvetica,sans-Serif" font-size="10.00">OMSimSensitiveDetector.cc</text>
</a>
</g>
</g>
<!-- Node2 -->
<g id="node2" class="node">
<title>Node2</title>
<g id="a_node2"><a xlink:href="_o_m_sim_sensitive_detector_8hh.html" target="_top" xlink:title=" ">
<polygon fill="white" stroke="black" points="207.5,-123.5 207.5,-142.5 360.5,-142.5 360.5,-123.5 207.5,-123.5"/>
<text text-anchor="middle" x="284" y="-130.5" font-family="Helvetica,sans-Serif" font-size="10.00">OMSimSensitiveDetector.hh</text>
</a>
</g>
</g>
<!-- Node1&#45;&gt;Node2 -->
<g id="edge1" class="edge">
<title>Node1&#45;&gt;Node2</title>
<path fill="none" stroke="midnightblue" d="M1212.79,-185.52C1055.86,-180.14 685.34,-165.97 375,-143 373.71,-142.9 372.41,-142.81 371.1,-142.7"/>
<polygon fill="midnightblue" stroke="midnightblue" points="371.18,-139.2 360.93,-141.88 370.61,-146.18 371.18,-139.2"/>
</g>
<!-- Node5 -->
<g id="node5" class="node">
<title>Node5</title>
<g id="a_node5"><a xlink:href="_o_m_sim_p_m_t_response_8hh.html" target="_top" xlink:title="Provides simulation for PMT response. This class is responsible for transforming hits on photocathode...">
<polygon fill="white" stroke="black" points="382.5,-67.5 382.5,-86.5 517.5,-86.5 517.5,-67.5 382.5,-67.5"/>
<text text-anchor="middle" x="450" y="-74.5" font-family="Helvetica,sans-Serif" font-size="10.00">OMSimPMTResponse.hh</text>
</a>
</g>
</g>
<!-- Node1&#45;&gt;Node5 -->
<g id="edge24" class="edge">
<title>Node1&#45;&gt;Node5</title>
<path fill="none" stroke="midnightblue" d="M1212.86,-186.93C1003.96,-183.62 435.53,-171.97 408,-143 393.52,-127.77 412.41,-106.88 429.3,-92.94"/>
<polygon fill="midnightblue" stroke="midnightblue" points="431.55,-95.63 437.28,-86.71 427.24,-90.11 431.55,-95.63"/>
</g>
<!-- Node13 -->
<g id="node13" class="node">
<title>Node13</title>
<g id="a_node13"><a xlink:title=" ">
<polygon fill="white" stroke="#bfbfbf" points="417.5,-123.5 417.5,-142.5 476.5,-142.5 476.5,-123.5 417.5,-123.5"/>
<text text-anchor="middle" x="447" y="-130.5" font-family="Helvetica,sans-Serif" font-size="10.00">G4ios.hh</text>
</a>
</g>
</g>
<!-- Node1&#45;&gt;Node13 -->
<g id="edge12" class="edge">
<title>Node1&#45;&gt;Node13</title>
<path fill="none" stroke="midnightblue" d="M1212.74,-188.05C1071.31,-187.2 758.82,-180.89 486.78,-142.83"/>
<polygon fill="midnightblue" stroke="midnightblue" points="487.1,-139.34 476.71,-141.41 486.12,-146.27 487.1,-139.34"/>
</g>
<!-- Node14 -->
<g id="node14" class="node">
<title>Node14</title>
<g id="a_node14"><a xlink:title=" ">
<polygon fill="white" stroke="#bfbfbf" points="495,-123.5 495,-142.5 611,-142.5 611,-123.5 495,-123.5"/>
<text text-anchor="middle" x="553" y="-130.5" font-family="Helvetica,sans-Serif" font-size="10.00">G4LogicalVolume.hh</text>
</a>
</g>
</g>
<!-- Node1&#45;&gt;Node14 -->
<g id="edge13" class="edge">
<title>Node1&#45;&gt;Node14</title>
<path fill="none" stroke="midnightblue" d="M1212.86,-184.53C1090.45,-178.58 842.08,-165.01 621.24,-143.06"/>
<polygon fill="midnightblue" stroke="midnightblue" points="621.38,-139.56 611.08,-142.04 620.68,-146.52 621.38,-139.56"/>
</g>
<!-- Node15 -->
<g id="node15" class="node">
<title>Node15</title>
<g id="a_node15"><a xlink:title=" ">
<polygon fill="white" stroke="#bfbfbf" points="629,-123.5 629,-142.5 757,-142.5 757,-123.5 629,-123.5"/>
<text text-anchor="middle" x="693" y="-130.5" font-family="Helvetica,sans-Serif" font-size="10.00">G4ParticleDefinition.hh</text>
</a>
</g>
</g>
<!-- Node1&#45;&gt;Node15 -->
<g id="edge14" class="edge">
<title>Node1&#45;&gt;Node15</title>
<path fill="none" stroke="midnightblue" d="M1212.7,-182.32C1112.86,-174.69 932.22,-160.21 767.41,-143.11"/>
<polygon fill="midnightblue" stroke="midnightblue" points="767.39,-139.59 757.08,-142.04 766.66,-146.55 767.39,-139.59"/>
</g>
<!-- Node16 -->
<g id="node16" class="node">
<title>Node16</title>
<g id="a_node16"><a xlink:title=" ">
<polygon fill="white" stroke="#bfbfbf" points="775.5,-123.5 775.5,-142.5 884.5,-142.5 884.5,-123.5 775.5,-123.5"/>
<text text-anchor="middle" x="830" y="-130.5" font-family="Helvetica,sans-Serif" font-size="10.00">G4ParticleTypes.hh</text>
</a>
</g>
</g>
<!-- Node1&#45;&gt;Node16 -->
<g id="edge15" class="edge">
<title>Node1&#45;&gt;Node16</title>
<path fill="none" stroke="midnightblue" d="M1212.64,-179.98C1135.09,-171.69 1011.27,-158.03 894.79,-143.2"/>
<polygon fill="midnightblue" stroke="midnightblue" points="894.99,-139.7 884.62,-141.9 894.1,-146.64 894.99,-139.7"/>
</g>
<!-- Node17 -->
<g id="node17" class="node">
<title>Node17</title>
<g id="a_node17"><a xlink:title=" ">
<polygon fill="white" stroke="#bfbfbf" points="902.5,-123.5 902.5,-142.5 1003.5,-142.5 1003.5,-123.5 902.5,-123.5"/>
<text text-anchor="middle" x="953" y="-130.5" font-family="Helvetica,sans-Serif" font-size="10.00">G4SDManager.hh</text>
</a>
</g>
</g>
<!-- Node1&#45;&gt;Node17 -->
<g id="edge16" class="edge">
<title>Node1&#45;&gt;Node17</title>
<path fill="none" stroke="midnightblue" d="M1235.76,-179.44C1175.37,-169.74 1077.1,-153.94 1013.76,-143.76"/>
<polygon fill="midnightblue" stroke="midnightblue" points="1013.95,-140.25 1003.52,-142.12 1012.84,-147.16 1013.95,-140.25"/>
</g>
<!-- Node18 -->
<g id="node18" class="node">
<title>Node18</title>
<g id="a_node18"><a xlink:title=" ">
<polygon fill="white" stroke="#bfbfbf" points="1021.5,-123.5 1021.5,-142.5 1088.5,-142.5 1088.5,-123.5 1021.5,-123.5"/>
<text text-anchor="middle" x="1055" y="-130.5" font-family="Helvetica,sans-Serif" font-size="10.00">G4Step.hh</text>
</a>
</g>
</g>
<!-- Node1&#45;&gt;Node18 -->
<g id="edge17" class="edge">
<title>Node1&#45;&gt;Node18</title>
<path fill="none" stroke="midnightblue" d="M1251.92,-179.44C1210.32,-169.84 1142.88,-154.28 1098.73,-144.09"/>
<polygon fill="midnightblue" stroke="midnightblue" points="1099.4,-140.65 1088.87,-141.82 1097.82,-147.47 1099.4,-140.65"/>
</g>
<!-- Node19 -->
<g id="node19" class="node">
<title>Node19</title>
<g id="a_node19"><a xlink:title=" ">
<polygon fill="white" stroke="#bfbfbf" points="1107,-123.5 1107,-142.5 1235,-142.5 1235,-123.5 1107,-123.5"/>
<text text-anchor="middle" x="1171" y="-130.5" font-family="Helvetica,sans-Serif" font-size="10.00">G4TouchableHistory.hh</text>
</a>
</g>
</g>
<!-- Node1&#45;&gt;Node19 -->
<g id="edge18" class="edge">
<title>Node1&#45;&gt;Node19</title>
<path fill="none" stroke="midnightblue" d="M1270.3,-179.44C1251.06,-170.64 1220.85,-156.81 1198.8,-146.72"/>
<polygon fill="midnightblue" stroke="midnightblue" points="1200.16,-143.5 1189.61,-142.52 1197.25,-149.86 1200.16,-143.5"/>
</g>
<!-- Node20 -->
<g id="node20" class="node">
<title>Node20</title>
<g id="a_node20"><a xlink:title=" ">
<polygon fill="white" stroke="#bfbfbf" points="1253.5,-123.5 1253.5,-142.5 1324.5,-142.5 1324.5,-123.5 1253.5,-123.5"/>
<text text-anchor="middle" x="1289" y="-130.5" font-family="Helvetica,sans-Serif" font-size="10.00">G4Track.hh</text>
</a>
</g>
</g>
<!-- Node1&#45;&gt;Node20 -->
<g id="edge19" class="edge">
<title>Node1&#45;&gt;Node20</title>
<path fill="none" stroke="midnightblue" d="M1289,-179.08C1289,-172.01 1289,-161.86 1289,-152.99"/>
<polygon fill="midnightblue" stroke="midnightblue" points="1292.5,-152.75 1289,-142.75 1285.5,-152.75 1292.5,-152.75"/>
</g>
<!-- Node21 -->
<g id="node21" class="node">
<title>Node21</title>
<g id="a_node21"><a xlink:title=" ">
<polygon fill="white" stroke="#bfbfbf" points="1342.5,-123.5 1342.5,-142.5 1471.5,-142.5 1471.5,-123.5 1342.5,-123.5"/>
<text text-anchor="middle" x="1407" y="-130.5" font-family="Helvetica,sans-Serif" font-size="10.00">G4VPhysicalVolume.hh</text>
</a>
</g>
</g>
<!-- Node1&#45;&gt;Node21 -->
<g id="edge20" class="edge">
<title>Node1&#45;&gt;Node21</title>
<path fill="none" stroke="midnightblue" d="M1307.7,-179.44C1326.94,-170.64 1357.15,-156.81 1379.2,-146.72"/>
<polygon fill="midnightblue" stroke="midnightblue" points="1380.75,-149.86 1388.39,-142.52 1377.84,-143.5 1380.75,-149.86"/>
</g>
<!-- Node22 -->
<g id="node22" class="node">
<title>Node22</title>
<g id="a_node22"><a xlink:title=" ">
<polygon fill="white" stroke="#bfbfbf" points="1489.5,-123.5 1489.5,-142.5 1590.5,-142.5 1590.5,-123.5 1489.5,-123.5"/>
<text text-anchor="middle" x="1540" y="-130.5" font-family="Helvetica,sans-Serif" font-size="10.00">G4VTouchable.hh</text>
</a>
</g>
</g>
<!-- Node1&#45;&gt;Node22 -->
<g id="edge21" class="edge">
<title>Node1&#45;&gt;Node22</title>
<path fill="none" stroke="midnightblue" d="M1328.77,-179.44C1372.56,-170.02 1443.01,-154.87 1490.38,-144.68"/>
<polygon fill="midnightblue" stroke="midnightblue" points="1491.37,-148.04 1500.41,-142.52 1489.9,-141.2 1491.37,-148.04"/>
</g>
<!-- Node23 -->
<g id="node23" class="node">
<title>Node23</title>
<g id="a_node23"><a xlink:title=" ">
<polygon fill="white" stroke="#bfbfbf" points="1608.5,-123.5 1608.5,-142.5 1733.5,-142.5 1733.5,-123.5 1608.5,-123.5"/>
<text text-anchor="middle" x="1671" y="-130.5" font-family="Helvetica,sans-Serif" font-size="10.00">OMSimEventAction.hh</text>
</a>
</g>
</g>
<!-- Node1&#45;&gt;Node23 -->
<g id="edge22" class="edge">
<title>Node1&#45;&gt;Node23</title>
<path fill="none" stroke="midnightblue" d="M1349.53,-179.44C1417.7,-169.81 1528.36,-154.16 1600.41,-143.98"/>
<polygon fill="midnightblue" stroke="midnightblue" points="1601.34,-147.38 1610.75,-142.52 1600.36,-140.45 1601.34,-147.38"/>
</g>
<!-- Node24 -->
<g id="node24" class="node">
<title>Node24</title>
<g id="a_node24"><a xlink:title=" ">
<polygon fill="white" stroke="#bfbfbf" points="1751.5,-123.5 1751.5,-142.5 1864.5,-142.5 1864.5,-123.5 1751.5,-123.5"/>
<text text-anchor="middle" x="1808" y="-130.5" font-family="Helvetica,sans-Serif" font-size="10.00">G4OpticalPhoton.hh</text>
</a>
</g>
</g>
<!-- Node1&#45;&gt;Node24 -->
<g id="edge23" class="edge">
<title>Node1&#45;&gt;Node24</title>
<path fill="none" stroke="midnightblue" d="M1365.24,-181.28C1453.23,-173.34 1602.54,-159.26 1741.51,-143.02"/>
<polygon fill="midnightblue" stroke="midnightblue" points="1741.97,-146.49 1751.49,-141.84 1741.15,-139.53 1741.97,-146.49"/>
</g>
<!-- Node25 -->
<g id="node25" class="node">
<title>Node25</title>
<g id="a_node25"><a xlink:href="_o_m_sim_command_args_table_8hh.html" target="_top" xlink:title="Definition of the OMSimCommandArgsTable singleton class, which controls user args.">
<polygon fill="white" stroke="black" points="2024,-123.5 2024,-142.5 2188,-142.5 2188,-123.5 2024,-123.5"/>
<text text-anchor="middle" x="2106" y="-130.5" font-family="Helvetica,sans-Serif" font-size="10.00">OMSimCommandArgsTable.hh</text>
</a>
</g>
</g>
<!-- Node1&#45;&gt;Node25 -->
<g id="edge25" class="edge">
<title>Node1&#45;&gt;Node25</title>
<path fill="none" stroke="midnightblue" d="M1365.1,-184.2C1495.56,-177.49 1770.54,-162.46 2013.58,-143.09"/>
<polygon fill="midnightblue" stroke="midnightblue" points="2013.98,-146.57 2023.67,-142.28 2013.42,-139.59 2013.98,-146.57"/>
</g>
<!-- Node34 -->
<g id="node34" class="node">
<title>Node34</title>
<g id="a_node34"><a xlink:href="_o_m_sim_hit_manager_8hh.html" target="_top" xlink:title="Defines structures and classes related to optical module photon hit management.">
<polygon fill="white" stroke="black" points="1882.5,-123.5 1882.5,-142.5 2005.5,-142.5 2005.5,-123.5 1882.5,-123.5"/>
<text text-anchor="middle" x="1944" y="-130.5" font-family="Helvetica,sans-Serif" font-size="10.00">OMSimHitManager.hh</text>
</a>
</g>
</g>
<!-- Node1&#45;&gt;Node34 -->
<g id="edge34" class="edge">
<title>Node1&#45;&gt;Node34</title>
<path fill="none" stroke="midnightblue" d="M1365.17,-183.33C1474.79,-176.34 1683.65,-162.03 1872.34,-143.02"/>
<polygon fill="midnightblue" stroke="midnightblue" points="1872.85,-146.48 1882.45,-141.99 1872.15,-139.52 1872.85,-146.48"/>
</g>
<!-- Node35 -->
<g id="node35" class="node">
<title>Node35</title>
<g id="a_node35"><a xlink:title=" ">
<polygon fill="white" stroke="#bfbfbf" points="2206.5,-123.5 2206.5,-142.5 2295.5,-142.5 2295.5,-123.5 2206.5,-123.5"/>
<text text-anchor="middle" x="2251" y="-130.5" font-family="Helvetica,sans-Serif" font-size="10.00">G4VProcess.hh</text>
</a>
</g>
</g>
<!-- Node1&#45;&gt;Node35 -->
<g id="edge38" class="edge">
<title>Node1&#45;&gt;Node35</title>
<path fill="none" stroke="midnightblue" d="M1365.17,-187.2C1519.83,-184.91 1881.93,-176.29 2196.05,-142.96"/>
<polygon fill="midnightblue" stroke="midnightblue" points="2196.7,-146.41 2206.27,-141.86 2195.95,-139.45 2196.7,-146.41"/>
</g>
<!-- Node36 -->
<g id="node36" class="node">
<title>Node36</title>
<g id="a_node36"><a xlink:title=" ">
<polygon fill="white" stroke="#bfbfbf" points="2313.5,-123.5 2313.5,-142.5 2426.5,-142.5 2426.5,-123.5 2313.5,-123.5"/>
<text text-anchor="middle" x="2370" y="-130.5" font-family="Helvetica,sans-Serif" font-size="10.00">G4ProcessVector.hh</text>
</a>
</g>
</g>
<!-- Node1&#45;&gt;Node36 -->
<g id="edge39" class="edge">
<title>Node1&#45;&gt;Node36</title>
<path fill="none" stroke="midnightblue" d="M1365.32,-187.05C1533.15,-184.44 1947.1,-175.1 2303.32,-143.07"/>
<polygon fill="midnightblue" stroke="midnightblue" points="2303.67,-146.55 2313.32,-142.17 2303.04,-139.58 2303.67,-146.55"/>
</g>
<!-- Node37 -->
<g id="node37" class="node">
<title>Node37</title>
<g id="a_node37"><a xlink:title=" ">
<polygon fill="white" stroke="#bfbfbf" points="2444.5,-123.5 2444.5,-142.5 2569.5,-142.5 2569.5,-123.5 2444.5,-123.5"/>
<text text-anchor="middle" x="2507" y="-130.5" font-family="Helvetica,sans-Serif" font-size="10.00">G4ProcessManager.hh</text>
</a>
</g>
</g>
<!-- Node1&#45;&gt;Node37 -->
<g id="edge40" class="edge">
<title>Node1&#45;&gt;Node37</title>
<path fill="none" stroke="midnightblue" d="M1365.31,-187.29C1548.09,-185.11 2025.56,-176.48 2434.07,-143.09"/>
<polygon fill="midnightblue" stroke="midnightblue" points="2434.63,-146.56 2444.31,-142.25 2434.06,-139.58 2434.63,-146.56"/>
</g>
<!-- Node3 -->
<g id="node3" class="node">
<title>Node3</title>
<g id="a_node3"><a xlink:title=" ">
<polygon fill="white" stroke="#bfbfbf" points="0,-67.5 0,-86.5 138,-86.5 138,-67.5 0,-67.5"/>
<text text-anchor="middle" x="69" y="-74.5" font-family="Helvetica,sans-Serif" font-size="10.00">G4VSensitiveDetector.hh</text>
</a>
</g>
</g>
<!-- Node2&#45;&gt;Node3 -->
<g id="edge2" class="edge">
<title>Node2&#45;&gt;Node3</title>
<path fill="none" stroke="midnightblue" d="M249.93,-123.44C212.82,-114.12 153.34,-99.18 112.79,-89"/>
<polygon fill="midnightblue" stroke="midnightblue" points="113.46,-85.56 102.91,-86.52 111.75,-92.35 113.46,-85.56"/>
</g>
<!-- Node4 -->
<g id="node4" class="node">
<title>Node4</title>
<g id="a_node4"><a xlink:title=" ">
<polygon fill="white" stroke="#bfbfbf" points="1193.5,-67.5 1193.5,-86.5 1296.5,-86.5 1296.5,-67.5 1193.5,-67.5"/>
<text text-anchor="middle" x="1245" y="-74.5" font-family="Helvetica,sans-Serif" font-size="10.00">G4ThreeVector.hh</text>
</a>
</g>
</g>
<!-- Node2&#45;&gt;Node4 -->
<g id="edge3" class="edge">
<title>Node2&#45;&gt;Node4</title>
<path fill="none" stroke="midnightblue" d="M360.71,-126.21C376.36,-125.09 392.71,-123.97 408,-123 697.75,-104.7 1044.23,-87.59 1183.04,-80.93"/>
<polygon fill="midnightblue" stroke="midnightblue" points="1183.25,-84.43 1193.07,-80.45 1182.91,-77.44 1183.25,-84.43"/>
</g>
<!-- Node2&#45;&gt;Node5 -->
<g id="edge4" class="edge">
<title>Node2&#45;&gt;Node5</title>
<path fill="none" stroke="midnightblue" d="M310.3,-123.44C338.35,-114.32 382.94,-99.81 414.18,-89.65"/>
<polygon fill="midnightblue" stroke="midnightblue" points="415.39,-92.94 423.82,-86.52 413.23,-86.28 415.39,-92.94"/>
</g>
<!-- Node11 -->
<g id="node11" class="node">
<title>Node11</title>
<g id="a_node11"><a xlink:title=" ">
<polygon fill="white" stroke="#bfbfbf" points="156.5,-67.5 156.5,-86.5 299.5,-86.5 299.5,-67.5 156.5,-67.5"/>
<text text-anchor="middle" x="228" y="-74.5" font-family="Helvetica,sans-Serif" font-size="10.00">G4OpBoundaryProcess.hh</text>
</a>
</g>
</g>
<!-- Node2&#45;&gt;Node11 -->
<g id="edge10" class="edge">
<title>Node2&#45;&gt;Node11</title>
<path fill="none" stroke="midnightblue" d="M275,-123.32C266.81,-115.42 254.49,-103.55 244.53,-93.94"/>
<polygon fill="midnightblue" stroke="midnightblue" points="246.79,-91.26 237.16,-86.83 241.93,-96.29 246.79,-91.26"/>
</g>
<!-- Node12 -->
<g id="node12" class="node">
<title>Node12</title>
<g id="a_node12"><a xlink:title=" ">
<polygon fill="white" stroke="#bfbfbf" points="317.5,-67.5 317.5,-86.5 364.5,-86.5 364.5,-67.5 317.5,-67.5"/>
<text text-anchor="middle" x="341" y="-74.5" font-family="Helvetica,sans-Serif" font-size="10.00">vector</text>
</a>
</g>
</g>
<!-- Node2&#45;&gt;Node12 -->
<g id="edge11" class="edge">
<title>Node2&#45;&gt;Node12</title>
<path fill="none" stroke="midnightblue" d="M293.16,-123.32C301.5,-115.42 314.03,-103.55 324.18,-93.94"/>
<polygon fill="midnightblue" stroke="midnightblue" points="326.82,-96.25 331.68,-86.83 322.01,-91.17 326.82,-96.25"/>
</g>
<!-- Node6 -->
<g id="node6" class="node">
<title>Node6</title>
<g id="a_node6"><a xlink:title=" ">
<polygon fill="white" stroke="#bfbfbf" points="494.5,-6 494.5,-25 613.5,-25 613.5,-6 494.5,-6"/>
<text text-anchor="middle" x="554" y="-13" font-family="Helvetica,sans-Serif" font-size="10.00">G4SystemOfUnits.hh</text>
</a>
</g>
</g>
<!-- Node5&#45;&gt;Node6 -->
<g id="edge5" class="edge">
<title>Node5&#45;&gt;Node6</title>
<path fill="none" stroke="midnightblue" d="M464.9,-67.48C481.97,-57.71 510.16,-41.58 530.26,-30.08"/>
<polygon fill="midnightblue" stroke="midnightblue" points="532.19,-33.01 539.13,-25.01 528.71,-26.94 532.19,-33.01"/>
</g>
<!-- Node7 -->
<g id="node7" class="node">
<title>Node7</title>
<g id="a_node7"><a xlink:title=" ">
<polygon fill="white" stroke="#bfbfbf" points="631.5,-6 631.5,-25 704.5,-25 704.5,-6 631.5,-6"/>
<text text-anchor="middle" x="668" y="-13" font-family="Helvetica,sans-Serif" font-size="10.00">G4Types.hh</text>
</a>
</g>
</g>
<!-- Node5&#45;&gt;Node7 -->
<g id="edge6" class="edge">
<title>Node5&#45;&gt;Node7</title>
<path fill="none" stroke="midnightblue" d="M484.73,-67.45C519.57,-58.75 574.69,-44.64 622,-31 625.32,-30.04 628.76,-29.02 632.2,-27.97"/>
<polygon fill="midnightblue" stroke="midnightblue" points="633.28,-31.3 641.8,-25.01 631.21,-24.62 633.28,-31.3"/>
</g>
<!-- Node8 -->
<g id="node8" class="node">
<title>Node8</title>
<g id="a_node8"><a xlink:title=" ">
<polygon fill="white" stroke="#bfbfbf" points="288,-6 288,-25 326,-25 326,-6 288,-6"/>
<text text-anchor="middle" x="307" y="-13" font-family="Helvetica,sans-Serif" font-size="10.00">map</text>
</a>
</g>
</g>
<!-- Node5&#45;&gt;Node8 -->
<g id="edge7" class="edge">
<title>Node5&#45;&gt;Node8</title>
<path fill="none" stroke="midnightblue" d="M425.91,-67.41C402.43,-58.84 365.86,-44.98 335,-31 334,-30.55 332.99,-30.08 331.97,-29.6"/>
<polygon fill="midnightblue" stroke="midnightblue" points="333.36,-26.38 322.85,-25.07 330.25,-32.65 333.36,-26.38"/>
</g>
<!-- Node9 -->
<g id="node9" class="node">
<title>Node9</title>
<g id="a_node9"><a xlink:title=" ">
<polygon fill="white" stroke="#bfbfbf" points="344.5,-6 344.5,-25 405.5,-25 405.5,-6 344.5,-6"/>
<text text-anchor="middle" x="375" y="-13" font-family="Helvetica,sans-Serif" font-size="10.00">TGraph.h</text>
</a>
</g>
</g>
<!-- Node5&#45;&gt;Node9 -->
<g id="edge8" class="edge">
<title>Node5&#45;&gt;Node9</title>
<path fill="none" stroke="midnightblue" d="M439.25,-67.48C427.45,-58.11 408.26,-42.88 393.92,-31.51"/>
<polygon fill="midnightblue" stroke="midnightblue" points="395.74,-28.48 385.73,-25.01 391.38,-33.97 395.74,-28.48"/>
</g>
<!-- Node10 -->
<g id="node10" class="node">
<title>Node10</title>
<g id="a_node10"><a xlink:title=" ">
<polygon fill="white" stroke="#bfbfbf" points="423.5,-6 423.5,-25 476.5,-25 476.5,-6 423.5,-6"/>
<text text-anchor="middle" x="450" y="-13" font-family="Helvetica,sans-Serif" font-size="10.00">TH2D.h</text>
</a>
</g>
</g>
<!-- Node5&#45;&gt;Node10 -->
<g id="edge9" class="edge">
<title>Node5&#45;&gt;Node10</title>
<path fill="none" stroke="midnightblue" d="M450,-67.48C450,-59.08 450,-45.98 450,-35.16"/>
<polygon fill="midnightblue" stroke="midnightblue" points="453.5,-35.01 450,-25.01 446.5,-35.01 453.5,-35.01"/>
</g>
<!-- Node26 -->
<g id="node26" class="node">
<title>Node26</title>
<g id="a_node26"><a xlink:href="_o_m_sim_logger_8hh.html" target="_top" xlink:title=" ">
<polygon fill="white" stroke="black" points="1989.5,-67.5 1989.5,-86.5 2088.5,-86.5 2088.5,-67.5 1989.5,-67.5"/>
<text text-anchor="middle" x="2039" y="-74.5" font-family="Helvetica,sans-Serif" font-size="10.00">OMSimLogger.hh</text>
</a>
</g>
</g>
<!-- Node25&#45;&gt;Node26 -->
<g id="edge26" class="edge">
<title>Node25&#45;&gt;Node26</title>
<path fill="none" stroke="midnightblue" d="M2095.24,-123.32C2085.23,-115.26 2070.11,-103.08 2058.07,-93.37"/>
<polygon fill="midnightblue" stroke="midnightblue" points="2059.94,-90.38 2049.96,-86.83 2055.55,-95.83 2059.94,-90.38"/>
</g>
<!-- Node31 -->
<g id="node31" class="node">
<title>Node31</title>
<g id="a_node31"><a xlink:title=" ">
<polygon fill="white" stroke="#bfbfbf" points="1916.5,-67.5 1916.5,-86.5 1971.5,-86.5 1971.5,-67.5 1916.5,-67.5"/>
<text text-anchor="middle" x="1944" y="-74.5" font-family="Helvetica,sans-Serif" font-size="10.00">fstream</text>
</a>
</g>
</g>
<!-- Node25&#45;&gt;Node31 -->
<g id="edge31" class="edge">
<title>Node25&#45;&gt;Node31</title>
<path fill="none" stroke="midnightblue" d="M2080.33,-123.44C2053.08,-114.36 2009.82,-99.94 1979.35,-89.78"/>
<polygon fill="midnightblue" stroke="midnightblue" points="1980.14,-86.36 1969.55,-86.52 1977.93,-93 1980.14,-86.36"/>
</g>
<!-- Node32 -->
<g id="node32" class="node">
<title>Node32</title>
<g id="a_node32"><a xlink:title=" ">
<polygon fill="white" stroke="#bfbfbf" points="2107,-67.5 2107,-86.5 2191,-86.5 2191,-67.5 2107,-67.5"/>
<text text-anchor="middle" x="2149" y="-74.5" font-family="Helvetica,sans-Serif" font-size="10.00">boost/any.hpp</text>
</a>
</g>
</g>
<!-- Node25&#45;&gt;Node32 -->
<g id="edge32" class="edge">
<title>Node25&#45;&gt;Node32</title>
<path fill="none" stroke="midnightblue" d="M2113.1,-123.08C2119.24,-115.38 2128.27,-104.03 2135.74,-94.65"/>
<polygon fill="midnightblue" stroke="midnightblue" points="2138.54,-96.75 2142.03,-86.75 2133.06,-92.39 2138.54,-96.75"/>
</g>
<!-- Node33 -->
<g id="node33" class="node">
<title>Node33</title>
<g id="a_node33"><a xlink:title=" ">
<polygon fill="white" stroke="#bfbfbf" points="2209,-67.5 2209,-86.5 2277,-86.5 2277,-67.5 2209,-67.5"/>
<text text-anchor="middle" x="2243" y="-74.5" font-family="Helvetica,sans-Serif" font-size="10.00">sys/time.h</text>
</a>
</g>
</g>
<!-- Node25&#45;&gt;Node33 -->
<g id="edge33" class="edge">
<title>Node25&#45;&gt;Node33</title>
<path fill="none" stroke="midnightblue" d="M2127.71,-123.44C2150.35,-114.52 2186.07,-100.44 2211.75,-90.32"/>
<polygon fill="midnightblue" stroke="midnightblue" points="2213.37,-93.44 2221.39,-86.52 2210.81,-86.93 2213.37,-93.44"/>
</g>
<!-- Node27 -->
<g id="node27" class="node">
<title>Node27</title>
<g id="a_node27"><a xlink:title=" ">
<polygon fill="white" stroke="#bfbfbf" points="1932.5,-6 1932.5,-25 2025.5,-25 2025.5,-6 1932.5,-6"/>
<text text-anchor="middle" x="1979" y="-13" font-family="Helvetica,sans-Serif" font-size="10.00">spdlog/spdlog.h</text>
</a>
</g>
</g>
<!-- Node26&#45;&gt;Node27 -->
<g id="edge27" class="edge">
<title>Node26&#45;&gt;Node27</title>
<path fill="none" stroke="midnightblue" d="M2030.4,-67.48C2021.14,-58.28 2006.18,-43.46 1994.79,-32.16"/>
<polygon fill="midnightblue" stroke="midnightblue" points="1997.15,-29.57 1987.58,-25.01 1992.22,-34.54 1997.15,-29.57"/>
</g>
<!-- Node28 -->
<g id="node28" class="node">
<title>Node28</title>
<g id="a_node28"><a xlink:title=" ">
<polygon fill="white" stroke="#bfbfbf" points="2043.5,-0.5 2043.5,-30.5 2154.5,-30.5 2154.5,-0.5 2043.5,-0.5"/>
<text text-anchor="start" x="2051.5" y="-18.5" font-family="Helvetica,sans-Serif" font-size="10.00">spdlog/sinks/stdout</text>
<text text-anchor="middle" x="2099" y="-7.5" font-family="Helvetica,sans-Serif" font-size="10.00">_color_sinks.h</text>
</a>
</g>
</g>
<!-- Node26&#45;&gt;Node28 -->
<g id="edge28" class="edge">
<title>Node26&#45;&gt;Node28</title>
<path fill="none" stroke="midnightblue" d="M2047.6,-67.48C2055.42,-59.72 2067.29,-47.94 2077.66,-37.66"/>
<polygon fill="midnightblue" stroke="midnightblue" points="2080.22,-40.05 2084.86,-30.52 2075.29,-35.08 2080.22,-40.05"/>
</g>
<!-- Node29 -->
<g id="node29" class="node">
<title>Node29</title>
<g id="a_node29"><a xlink:title=" ">
<polygon fill="white" stroke="#bfbfbf" points="2173,-6 2173,-25 2231,-25 2231,-6 2173,-6"/>
<text text-anchor="middle" x="2202" y="-13" font-family="Helvetica,sans-Serif" font-size="10.00">memory</text>
</a>
</g>
</g>
<!-- Node26&#45;&gt;Node29 -->
<g id="edge29" class="edge">
<title>Node26&#45;&gt;Node29</title>
<path fill="none" stroke="midnightblue" d="M2063.48,-67.34C2088.72,-58.38 2129.18,-43.91 2164,-31 2166.1,-30.22 2168.26,-29.41 2170.43,-28.6"/>
<polygon fill="midnightblue" stroke="midnightblue" points="2171.81,-31.82 2179.92,-25.01 2169.33,-25.27 2171.81,-31.82"/>
</g>
<!-- Node30 -->
<g id="node30" class="node">
<title>Node30</title>
<g id="a_node30"><a xlink:title=" ">
<polygon fill="white" stroke="#bfbfbf" points="1816,-6 1816,-25 1914,-25 1914,-6 1816,-6"/>
<text text-anchor="middle" x="1865" y="-13" font-family="Helvetica,sans-Serif" font-size="10.00">spdlog/fmt/fmt.h</text>
</a>
</g>
</g>
<!-- Node26&#45;&gt;Node30 -->
<g id="edge30" class="edge">
<title>Node26&#45;&gt;Node30</title>
<path fill="none" stroke="midnightblue" d="M2014.07,-67.48C1983.96,-57.18 1933.17,-39.81 1899.36,-28.25"/>
<polygon fill="midnightblue" stroke="midnightblue" points="1900.48,-24.93 1889.88,-25.01 1898.21,-31.56 1900.48,-24.93"/>
</g>
<!-- Node34&#45;&gt;Node4 -->
<g id="edge36" class="edge">
<title>Node34&#45;&gt;Node4</title>
<path fill="none" stroke="midnightblue" d="M1882.45,-123.99C1879.26,-123.64 1876.09,-123.31 1873,-123 1665.99,-102.48 1419.71,-87.6 1306.94,-81.31"/>
<polygon fill="midnightblue" stroke="midnightblue" points="1306.95,-77.81 1296.78,-80.75 1306.57,-84.8 1306.95,-77.81"/>
</g>
<!-- Node34&#45;&gt;Node5 -->
<g id="edge35" class="edge">
<title>Node34&#45;&gt;Node5</title>
<path fill="none" stroke="midnightblue" d="M1882.46,-123.84C1879.27,-123.53 1876.1,-123.24 1873,-123 1360.86,-82.53 742.32,-78.11 527.74,-77.88"/>
<polygon fill="midnightblue" stroke="midnightblue" points="527.53,-74.38 517.53,-77.87 527.52,-81.38 527.53,-74.38"/>
</g>
<!-- Node34&#45;&gt;Node31 -->
<g id="edge37" class="edge">
<title>Node34&#45;&gt;Node31</title>
<path fill="none" stroke="midnightblue" d="M1944,-123.08C1944,-116.01 1944,-105.86 1944,-96.99"/>
<polygon fill="midnightblue" stroke="midnightblue" points="1947.5,-96.75 1944,-86.75 1940.5,-96.75 1947.5,-96.75"/>
</g>
</g>
</svg>
