<?xml version="1.0" encoding="UTF-8" standalone="no"?>
<!DOCTYPE svg PUBLIC "-//W3C//DTD SVG 1.1//EN"
 "http://www.w3.org/Graphics/SVG/1.1/DTD/svg11.dtd">
<!-- Generated by graphviz version 2.43.0 (0)
 -->
<!-- Title: OMSimSNdetector.cc Pages: 1 -->
<svg width="1402pt" height="431pt"
 viewBox="0.00 0.00 1402.00 431.00" xmlns="http://www.w3.org/2000/svg" xmlns:xlink="http://www.w3.org/1999/xlink">
<g id="graph0" class="graph" transform="scale(1 1) rotate(0) translate(4 427)">
<title>OMSimSNdetector.cc</title>
<polygon fill="white" stroke="transparent" points="-4,4 -4,-427 1398,-427 1398,4 -4,4"/>
<!-- Node1 -->
<g id="node1" class="node">
<title>Node1</title>
<g id="a_node1"><a xlink:title=" ">
<polygon fill="#bfbfbf" stroke="black" points="576,-403.5 576,-422.5 695,-422.5 695,-403.5 576,-403.5"/>
<text text-anchor="middle" x="635.5" y="-410.5" font-family="Helvetica,sans-Serif" font-size="10.00">OMSimSNdetector.cc</text>
</a>
</g>
</g>
<!-- Node2 -->
<g id="node2" class="node">
<title>Node2</title>
<g id="a_node2"><a xlink:href="_o_m_sim_s_ndetector_8hh.html" target="_top" xlink:title=" ">
<polygon fill="white" stroke="black" points="726.5,-347.5 726.5,-366.5 846.5,-366.5 846.5,-347.5 726.5,-347.5"/>
<text text-anchor="middle" x="786.5" y="-354.5" font-family="Helvetica,sans-Serif" font-size="10.00">OMSimSNdetector.hh</text>
</a>
</g>
</g>
<!-- Node1&#45;&gt;Node2 -->
<g id="edge1" class="edge">
<title>Node1&#45;&gt;Node2</title>
<path fill="none" stroke="midnightblue" d="M659.43,-403.44C684.72,-394.4 724.8,-380.06 753.18,-369.92"/>
<polygon fill="midnightblue" stroke="midnightblue" points="754.45,-373.18 762.69,-366.52 752.09,-366.59 754.45,-373.18"/>
</g>
<!-- Node14 -->
<g id="node14" class="node">
<title>Node14</title>
<g id="a_node14"><a xlink:href="_o_m_sim_hit_manager_8hh.html" target="_top" xlink:title="Defines structures and classes related to optical module photon hit management.">
<polygon fill="white" stroke="black" points="1215,-179.5 1215,-198.5 1338,-198.5 1338,-179.5 1215,-179.5"/>
<text text-anchor="middle" x="1276.5" y="-186.5" font-family="Helvetica,sans-Serif" font-size="10.00">OMSimHitManager.hh</text>
</a>
</g>
</g>
<!-- Node1&#45;&gt;Node14 -->
<g id="edge51" class="edge">
<title>Node1&#45;&gt;Node14</title>
<path fill="none" stroke="midnightblue" d="M695.12,-412.52C851.34,-413.27 1263.36,-411 1304.5,-367 1344.57,-324.15 1320.62,-291.41 1304.5,-235 1301.6,-224.84 1295.67,-214.75 1290.01,-206.7"/>
<polygon fill="midnightblue" stroke="midnightblue" points="1292.72,-204.48 1283.91,-198.59 1287.12,-208.69 1292.72,-204.48"/>
</g>
<!-- Node24 -->
<g id="node24" class="node">
<title>Node24</title>
<g id="a_node24"><a xlink:title=" ">
<polygon fill="white" stroke="#bfbfbf" points="600,-123.5 600,-142.5 667,-142.5 667,-123.5 600,-123.5"/>
<text text-anchor="middle" x="633.5" y="-130.5" font-family="Helvetica,sans-Serif" font-size="10.00">G4Tubs.hh</text>
</a>
</g>
</g>
<!-- Node1&#45;&gt;Node24 -->
<g id="edge60" class="edge">
<title>Node1&#45;&gt;Node24</title>
<path fill="none" stroke="midnightblue" d="M695.06,-409.76C828.82,-404.37 1144.69,-389.41 1187.5,-367 1249.11,-334.75 1316.66,-287.88 1271.5,-235 1232.64,-189.5 815.08,-149.66 677.32,-137.67"/>
<polygon fill="midnightblue" stroke="midnightblue" points="677.39,-134.17 667.13,-136.79 676.79,-141.14 677.39,-134.17"/>
</g>
<!-- Node27 -->
<g id="node27" class="node">
<title>Node27</title>
<g id="a_node27"><a xlink:href="_o_m_sim_m_d_o_m_8hh.html" target="_top" xlink:title="Construction of mDOM.">
<polygon fill="white" stroke="black" points="163.5,-291.5 163.5,-310.5 263.5,-310.5 263.5,-291.5 163.5,-291.5"/>
<text text-anchor="middle" x="213.5" y="-298.5" font-family="Helvetica,sans-Serif" font-size="10.00">OMSimMDOM.hh</text>
</a>
</g>
</g>
<!-- Node1&#45;&gt;Node27 -->
<g id="edge30" class="edge">
<title>Node1&#45;&gt;Node27</title>
<path fill="none" stroke="midnightblue" d="M599.67,-403.46C562.73,-394.6 503.49,-380.2 452.5,-367 382.5,-348.88 301.34,-326.52 253.88,-313.31"/>
<polygon fill="midnightblue" stroke="midnightblue" points="254.57,-309.86 244,-310.55 252.69,-316.61 254.57,-309.86"/>
</g>
<!-- Node29 -->
<g id="node29" class="node">
<title>Node29</title>
<g id="a_node29"><a xlink:title=" ">
<polygon fill="white" stroke="#bfbfbf" points="77.5,-179.5 77.5,-198.5 169.5,-198.5 169.5,-179.5 77.5,-179.5"/>
<text text-anchor="middle" x="123.5" y="-186.5" font-family="Helvetica,sans-Serif" font-size="10.00">G4Navigator.hh</text>
</a>
</g>
</g>
<!-- Node1&#45;&gt;Node29 -->
<g id="edge52" class="edge">
<title>Node1&#45;&gt;Node29</title>
<path fill="none" stroke="midnightblue" d="M575.8,-405.7C462.35,-392.74 220.99,-360.11 154.5,-311 131.08,-293.7 128.35,-283.04 120.5,-255 116.26,-239.85 117.52,-221.96 119.55,-208.78"/>
<polygon fill="midnightblue" stroke="midnightblue" points="123.06,-209.07 121.42,-198.61 116.17,-207.81 123.06,-209.07"/>
</g>
<!-- Node30 -->
<g id="node30" class="node">
<title>Node30</title>
<g id="a_node30"><a xlink:href="_o_m_sim_p_d_o_m_8hh.html" target="_top" xlink:title="Implementation of the pDOM/Gen1 DOM class.">
<polygon fill="white" stroke="black" points="282,-291.5 282,-310.5 379,-310.5 379,-291.5 282,-291.5"/>
<text text-anchor="middle" x="330.5" y="-298.5" font-family="Helvetica,sans-Serif" font-size="10.00">OMSimPDOM.hh</text>
</a>
</g>
</g>
<!-- Node1&#45;&gt;Node30 -->
<g id="edge37" class="edge">
<title>Node1&#45;&gt;Node30</title>
<path fill="none" stroke="midnightblue" d="M611.82,-403.46C557.99,-384.05 426.3,-336.55 364.09,-314.12"/>
<polygon fill="midnightblue" stroke="midnightblue" points="364.97,-310.71 354.37,-310.61 362.59,-317.3 364.97,-310.71"/>
</g>
<!-- Node31 -->
<g id="node31" class="node">
<title>Node31</title>
<g id="a_node31"><a xlink:href="_o_m_sim_l_o_m16_8hh.html" target="_top" xlink:title="Construction of LOM16.">
<polygon fill="white" stroke="black" points="397,-291.5 397,-310.5 498,-310.5 498,-291.5 397,-291.5"/>
<text text-anchor="middle" x="447.5" y="-298.5" font-family="Helvetica,sans-Serif" font-size="10.00">OMSimLOM16.hh</text>
</a>
</g>
</g>
<!-- Node1&#45;&gt;Node31 -->
<g id="edge40" class="edge">
<title>Node1&#45;&gt;Node31</title>
<path fill="none" stroke="midnightblue" d="M620.75,-403.37C588.21,-384.33 510.08,-338.62 470.83,-315.65"/>
<polygon fill="midnightblue" stroke="midnightblue" points="472.58,-312.62 462.18,-310.59 469.05,-318.66 472.58,-312.62"/>
</g>
<!-- Node32 -->
<g id="node32" class="node">
<title>Node32</title>
<g id="a_node32"><a xlink:href="_o_m_sim_l_o_m18_8hh.html" target="_top" xlink:title="Construction of LOM18.">
<polygon fill="white" stroke="black" points="629,-291.5 629,-310.5 730,-310.5 730,-291.5 629,-291.5"/>
<text text-anchor="middle" x="679.5" y="-298.5" font-family="Helvetica,sans-Serif" font-size="10.00">OMSimLOM18.hh</text>
</a>
</g>
</g>
<!-- Node1&#45;&gt;Node32 -->
<g id="edge43" class="edge">
<title>Node1&#45;&gt;Node32</title>
<path fill="none" stroke="midnightblue" d="M638.95,-403.37C646.12,-385.46 662.73,-343.92 672.32,-319.95"/>
<polygon fill="midnightblue" stroke="midnightblue" points="675.6,-321.18 676.06,-310.59 669.1,-318.58 675.6,-321.18"/>
</g>
<!-- Node35 -->
<g id="node35" class="node">
<title>Node35</title>
<g id="a_node35"><a xlink:href="_o_m_sim_d_e_g_g_8hh.html" target="_top" xlink:title="Construction of the DEGG class.">
<polygon fill="white" stroke="black" points="516,-291.5 516,-310.5 611,-310.5 611,-291.5 516,-291.5"/>
<text text-anchor="middle" x="563.5" y="-298.5" font-family="Helvetica,sans-Serif" font-size="10.00">OMSimDEGG.hh</text>
</a>
</g>
</g>
<!-- Node1&#45;&gt;Node35 -->
<g id="edge48" class="edge">
<title>Node1&#45;&gt;Node35</title>
<path fill="none" stroke="midnightblue" d="M629.85,-403.37C617.97,-385.22 590.21,-342.8 574.62,-318.99"/>
<polygon fill="midnightblue" stroke="midnightblue" points="577.53,-317.04 569.12,-310.59 571.67,-320.88 577.53,-317.04"/>
</g>
<!-- Node36 -->
<g id="node36" class="node">
<title>Node36</title>
<g id="a_node36"><a xlink:href="_o_m_sim_command_args_table_8hh.html" target="_top" xlink:title="Definition of the OMSimCommandArgsTable singleton class, which controls user args.">
<polygon fill="white" stroke="black" points="1014.5,-347.5 1014.5,-366.5 1178.5,-366.5 1178.5,-347.5 1014.5,-347.5"/>
<text text-anchor="middle" x="1096.5" y="-354.5" font-family="Helvetica,sans-Serif" font-size="10.00">OMSimCommandArgsTable.hh</text>
</a>
</g>
</g>
<!-- Node1&#45;&gt;Node36 -->
<g id="edge53" class="edge">
<title>Node1&#45;&gt;Node36</title>
<path fill="none" stroke="midnightblue" d="M695.3,-405C776.54,-395.48 922.17,-378.42 1013.83,-367.68"/>
<polygon fill="midnightblue" stroke="midnightblue" points="1014.38,-371.14 1023.91,-366.5 1013.57,-364.19 1014.38,-371.14"/>
</g>
<!-- Node3 -->
<g id="node3" class="node">
<title>Node3</title>
<g id="a_node3"><a xlink:href="_o_m_sim_detector_construction_8hh.html" target="_top" xlink:title=" ">
<polygon fill="white" stroke="black" points="748.5,-291.5 748.5,-310.5 918.5,-310.5 918.5,-291.5 748.5,-291.5"/>
<text text-anchor="middle" x="833.5" y="-298.5" font-family="Helvetica,sans-Serif" font-size="10.00">OMSimDetectorConstruction.hh</text>
</a>
</g>
</g>
<!-- Node2&#45;&gt;Node3 -->
<g id="edge2" class="edge">
<title>Node2&#45;&gt;Node3</title>
<path fill="none" stroke="midnightblue" d="M794.26,-347.08C801.04,-339.3 811.04,-327.8 819.26,-318.37"/>
<polygon fill="midnightblue" stroke="midnightblue" points="821.96,-320.59 825.88,-310.75 816.68,-316 821.96,-320.59"/>
</g>
<!-- Node4 -->
<g id="node4" class="node">
<title>Node4</title>
<g id="a_node4"><a xlink:href="_o_m_sim_optical_module_8hh.html" target="_top" xlink:title=" ">
<polygon fill="white" stroke="black" points="436,-235.5 436,-254.5 573,-254.5 573,-235.5 436,-235.5"/>
<text text-anchor="middle" x="504.5" y="-242.5" font-family="Helvetica,sans-Serif" font-size="10.00">OMSimOpticalModule.hh</text>
</a>
</g>
</g>
<!-- Node3&#45;&gt;Node4 -->
<g id="edge3" class="edge">
<title>Node3&#45;&gt;Node4</title>
<path fill="none" stroke="midnightblue" d="M781.37,-291.44C723.01,-281.87 628.52,-266.36 566.44,-256.17"/>
<polygon fill="midnightblue" stroke="midnightblue" points="566.82,-252.68 556.39,-254.52 565.69,-259.59 566.82,-252.68"/>
</g>
<!-- Node25 -->
<g id="node25" class="node">
<title>Node25</title>
<g id="a_node25"><a xlink:title=" ">
<polygon fill="white" stroke="#bfbfbf" points="870.5,-235.5 870.5,-254.5 932.5,-254.5 932.5,-235.5 870.5,-235.5"/>
<text text-anchor="middle" x="901.5" y="-242.5" font-family="Helvetica,sans-Serif" font-size="10.00">G4Orb.hh</text>
</a>
</g>
</g>
<!-- Node3&#45;&gt;Node25 -->
<g id="edge28" class="edge">
<title>Node3&#45;&gt;Node25</title>
<path fill="none" stroke="midnightblue" d="M844.43,-291.32C854.67,-283.18 870.22,-270.84 882.5,-261.09"/>
<polygon fill="midnightblue" stroke="midnightblue" points="884.72,-263.79 890.38,-254.83 880.37,-258.31 884.72,-263.79"/>
</g>
<!-- Node26 -->
<g id="node26" class="node">
<title>Node26</title>
<g id="a_node26"><a xlink:title=" ">
<polygon fill="white" stroke="#bfbfbf" points="950.5,-235.5 950.5,-254.5 1128.5,-254.5 1128.5,-235.5 950.5,-235.5"/>
<text text-anchor="middle" x="1039.5" y="-242.5" font-family="Helvetica,sans-Serif" font-size="10.00">G4VUserDetectorConstruction.hh</text>
</a>
</g>
</g>
<!-- Node3&#45;&gt;Node26 -->
<g id="edge29" class="edge">
<title>Node3&#45;&gt;Node26</title>
<path fill="none" stroke="midnightblue" d="M866.14,-291.44C901.55,-282.16 958.21,-267.31 997.05,-257.13"/>
<polygon fill="midnightblue" stroke="midnightblue" points="998.23,-260.44 1007.01,-254.52 996.45,-253.67 998.23,-260.44"/>
</g>
<!-- Node5 -->
<g id="node5" class="node">
<title>Node5</title>
<g id="a_node5"><a xlink:href="abc_detector_component_8hh.html" target="_top" xlink:title="Provides helper base class abcDetectorComponent for constructing and managing detector components in ...">
<polygon fill="white" stroke="black" points="311,-123.5 311,-142.5 458,-142.5 458,-123.5 311,-123.5"/>
<text text-anchor="middle" x="384.5" y="-130.5" font-family="Helvetica,sans-Serif" font-size="10.00">abcDetectorComponent.hh</text>
</a>
</g>
</g>
<!-- Node4&#45;&gt;Node5 -->
<g id="edge4" class="edge">
<title>Node4&#45;&gt;Node5</title>
<path fill="none" stroke="midnightblue" d="M504.21,-235.33C503.32,-221.74 499.73,-195.29 485.5,-179 471.73,-163.24 451.38,-152.74 432.54,-145.89"/>
<polygon fill="midnightblue" stroke="midnightblue" points="433.47,-142.5 422.88,-142.62 431.23,-149.14 433.47,-142.5"/>
</g>
<!-- Node4&#45;&gt;Node14 -->
<g id="edge13" class="edge">
<title>Node4&#45;&gt;Node14</title>
<path fill="none" stroke="midnightblue" d="M573.19,-238.57C588.75,-237.37 605.19,-236.12 620.5,-235 832.91,-219.48 1084.12,-202.68 1204.77,-194.71"/>
<polygon fill="midnightblue" stroke="midnightblue" points="1205.24,-198.19 1214.99,-194.04 1204.78,-191.2 1205.24,-198.19"/>
</g>
<!-- Node22 -->
<g id="node22" class="node">
<title>Node22</title>
<g id="a_node22"><a xlink:href="_o_m_sim_p_m_t_construction_8hh.html" target="_top" xlink:title="Construction of the PMTs.">
<polygon fill="white" stroke="black" points="310,-179.5 310,-198.5 459,-198.5 459,-179.5 310,-179.5"/>
<text text-anchor="middle" x="384.5" y="-186.5" font-family="Helvetica,sans-Serif" font-size="10.00">OMSimPMTConstruction.hh</text>
</a>
</g>
</g>
<!-- Node4&#45;&gt;Node22 -->
<g id="edge22" class="edge">
<title>Node4&#45;&gt;Node22</title>
<path fill="none" stroke="midnightblue" d="M485.49,-235.44C465.91,-226.64 435.19,-212.81 412.77,-202.72"/>
<polygon fill="midnightblue" stroke="midnightblue" points="413.98,-199.43 403.43,-198.52 411.11,-205.81 413.98,-199.43"/>
</g>
<!-- Node6 -->
<g id="node6" class="node">
<title>Node6</title>
<g id="a_node6"><a xlink:href="_o_m_sim_input_data_8hh.html" target="_top" xlink:title="Definition of ParameterTable and InputDataManager.">
<polygon fill="white" stroke="black" points="72,-67.5 72,-86.5 187,-86.5 187,-67.5 72,-67.5"/>
<text text-anchor="middle" x="129.5" y="-74.5" font-family="Helvetica,sans-Serif" font-size="10.00">OMSimInputData.hh</text>
</a>
</g>
</g>
<!-- Node5&#45;&gt;Node6 -->
<g id="edge5" class="edge">
<title>Node5&#45;&gt;Node6</title>
<path fill="none" stroke="midnightblue" d="M344.09,-123.44C299.52,-114 227.73,-98.8 179.61,-88.61"/>
<polygon fill="midnightblue" stroke="midnightblue" points="180.22,-85.16 169.72,-86.52 178.77,-92.01 180.22,-85.16"/>
</g>
<!-- Node10 -->
<g id="node10" class="node">
<title>Node10</title>
<g id="a_node10"><a xlink:title=" ">
<polygon fill="white" stroke="#bfbfbf" points="205,-67.5 205,-86.5 312,-86.5 312,-67.5 205,-67.5"/>
<text text-anchor="middle" x="258.5" y="-74.5" font-family="Helvetica,sans-Serif" font-size="10.00">G4Transform3D.hh</text>
</a>
</g>
</g>
<!-- Node5&#45;&gt;Node10 -->
<g id="edge9" class="edge">
<title>Node5&#45;&gt;Node10</title>
<path fill="none" stroke="midnightblue" d="M364.53,-123.44C343.89,-114.6 311.44,-100.69 287.87,-90.59"/>
<polygon fill="midnightblue" stroke="midnightblue" points="288.94,-87.24 278.37,-86.52 286.18,-93.67 288.94,-87.24"/>
</g>
<!-- Node11 -->
<g id="node11" class="node">
<title>Node11</title>
<g id="a_node11"><a xlink:title=" ">
<polygon fill="white" stroke="#bfbfbf" points="330.5,-67.5 330.5,-86.5 438.5,-86.5 438.5,-67.5 330.5,-67.5"/>
<text text-anchor="middle" x="384.5" y="-74.5" font-family="Helvetica,sans-Serif" font-size="10.00">G4VisAttributes.hh</text>
</a>
</g>
</g>
<!-- Node5&#45;&gt;Node11 -->
<g id="edge10" class="edge">
<title>Node5&#45;&gt;Node11</title>
<path fill="none" stroke="midnightblue" d="M384.5,-123.08C384.5,-116.01 384.5,-105.86 384.5,-96.99"/>
<polygon fill="midnightblue" stroke="midnightblue" points="388,-96.75 384.5,-86.75 381,-96.75 388,-96.75"/>
</g>
<!-- Node12 -->
<g id="node12" class="node">
<title>Node12</title>
<g id="a_node12"><a xlink:title=" ">
<polygon fill="white" stroke="#bfbfbf" points="457,-67.5 457,-86.5 582,-86.5 582,-67.5 457,-67.5"/>
<text text-anchor="middle" x="519.5" y="-74.5" font-family="Helvetica,sans-Serif" font-size="10.00">G4SubtractionSolid.hh</text>
</a>
</g>
</g>
<!-- Node5&#45;&gt;Node12 -->
<g id="edge11" class="edge">
<title>Node5&#45;&gt;Node12</title>
<path fill="none" stroke="midnightblue" d="M405.89,-123.44C428.21,-114.52 463.4,-100.44 488.71,-90.32"/>
<polygon fill="midnightblue" stroke="midnightblue" points="490.22,-93.48 498.21,-86.52 487.62,-86.98 490.22,-93.48"/>
</g>
<!-- Node13 -->
<g id="node13" class="node">
<title>Node13</title>
<g id="a_node13"><a xlink:title=" ">
<polygon fill="white" stroke="#bfbfbf" points="600.5,-67.5 600.5,-86.5 710.5,-86.5 710.5,-67.5 600.5,-67.5"/>
<text text-anchor="middle" x="655.5" y="-74.5" font-family="Helvetica,sans-Serif" font-size="10.00">G4PVPlacement.hh</text>
</a>
</g>
</g>
<!-- Node5&#45;&gt;Node13 -->
<g id="edge12" class="edge">
<title>Node5&#45;&gt;Node13</title>
<path fill="none" stroke="midnightblue" d="M427.44,-123.44C475.01,-113.96 551.74,-98.67 602.89,-88.48"/>
<polygon fill="midnightblue" stroke="midnightblue" points="603.64,-91.9 612.76,-86.52 602.27,-85.04 603.64,-91.9"/>
</g>
<!-- Node7 -->
<g id="node7" class="node">
<title>Node7</title>
<g id="a_node7"><a xlink:title=" ">
<polygon fill="white" stroke="#bfbfbf" points="131,-6 131,-25 274,-25 274,-6 131,-6"/>
<text text-anchor="middle" x="202.5" y="-13" font-family="Helvetica,sans-Serif" font-size="10.00">G4OpBoundaryProcess.hh</text>
</a>
</g>
</g>
<!-- Node6&#45;&gt;Node7 -->
<g id="edge6" class="edge">
<title>Node6&#45;&gt;Node7</title>
<path fill="none" stroke="midnightblue" d="M139.96,-67.48C151.45,-58.11 170.13,-42.88 184.09,-31.51"/>
<polygon fill="midnightblue" stroke="midnightblue" points="186.52,-34.04 192.06,-25.01 182.1,-28.61 186.52,-34.04"/>
</g>
<!-- Node8 -->
<g id="node8" class="node">
<title>Node8</title>
<g id="a_node8"><a xlink:title=" ">
<polygon fill="white" stroke="#bfbfbf" points="485,-6 485,-25 604,-25 604,-6 485,-6"/>
<text text-anchor="middle" x="544.5" y="-13" font-family="Helvetica,sans-Serif" font-size="10.00">G4SystemOfUnits.hh</text>
</a>
</g>
</g>
<!-- Node6&#45;&gt;Node8 -->
<g id="edge7" class="edge">
<title>Node6&#45;&gt;Node8</title>
<path fill="none" stroke="midnightblue" d="M187.2,-67.73C262.49,-56.93 394.11,-38.06 474.86,-26.48"/>
<polygon fill="midnightblue" stroke="midnightblue" points="475.54,-29.92 484.94,-25.04 474.54,-22.99 475.54,-29.92"/>
</g>
<!-- Node9 -->
<g id="node9" class="node">
<title>Node9</title>
<g id="a_node9"><a xlink:title=" ">
<polygon fill="white" stroke="#bfbfbf" points="0,-0.5 0,-30.5 113,-30.5 113,-0.5 0,-0.5"/>
<text text-anchor="start" x="8" y="-18.5" font-family="Helvetica,sans-Serif" font-size="10.00">boost/property_tree</text>
<text text-anchor="middle" x="56.5" y="-7.5" font-family="Helvetica,sans-Serif" font-size="10.00">/json_parser.hpp</text>
</a>
</g>
</g>
<!-- Node6&#45;&gt;Node9 -->
<g id="edge8" class="edge">
<title>Node6&#45;&gt;Node9</title>
<path fill="none" stroke="midnightblue" d="M119.04,-67.48C109.34,-59.57 94.51,-47.48 81.73,-37.07"/>
<polygon fill="midnightblue" stroke="midnightblue" points="83.67,-34.13 73.7,-30.52 79.24,-39.55 83.67,-34.13"/>
</g>
<!-- Node15 -->
<g id="node15" class="node">
<title>Node15</title>
<g id="a_node15"><a xlink:href="_o_m_sim_p_m_t_response_8hh.html" target="_top" xlink:title="Provides simulation for PMT response. This class is responsible for transforming hits on photocathode...">
<polygon fill="white" stroke="black" points="810,-123.5 810,-142.5 945,-142.5 945,-123.5 810,-123.5"/>
<text text-anchor="middle" x="877.5" y="-130.5" font-family="Helvetica,sans-Serif" font-size="10.00">OMSimPMTResponse.hh</text>
</a>
</g>
</g>
<!-- Node14&#45;&gt;Node15 -->
<g id="edge14" class="edge">
<title>Node14&#45;&gt;Node15</title>
<path fill="none" stroke="midnightblue" d="M1214.59,-179.62C1143.26,-169.97 1026.18,-154.12 950.48,-143.88"/>
<polygon fill="midnightblue" stroke="midnightblue" points="950.92,-140.4 940.54,-142.53 949.98,-147.34 950.92,-140.4"/>
</g>
<!-- Node20 -->
<g id="node20" class="node">
<title>Node20</title>
<g id="a_node20"><a xlink:title=" ">
<polygon fill="white" stroke="#bfbfbf" points="1218,-123.5 1218,-142.5 1321,-142.5 1321,-123.5 1218,-123.5"/>
<text text-anchor="middle" x="1269.5" y="-130.5" font-family="Helvetica,sans-Serif" font-size="10.00">G4ThreeVector.hh</text>
</a>
</g>
</g>
<!-- Node14&#45;&gt;Node20 -->
<g id="edge20" class="edge">
<title>Node14&#45;&gt;Node20</title>
<path fill="none" stroke="midnightblue" d="M1275.34,-179.08C1274.42,-171.93 1273.08,-161.64 1271.92,-152.69"/>
<polygon fill="midnightblue" stroke="midnightblue" points="1275.39,-152.22 1270.63,-142.75 1268.45,-153.12 1275.39,-152.22"/>
</g>
<!-- Node21 -->
<g id="node21" class="node">
<title>Node21</title>
<g id="a_node21"><a xlink:title=" ">
<polygon fill="white" stroke="#bfbfbf" points="1339,-123.5 1339,-142.5 1394,-142.5 1394,-123.5 1339,-123.5"/>
<text text-anchor="middle" x="1366.5" y="-130.5" font-family="Helvetica,sans-Serif" font-size="10.00">fstream</text>
</a>
</g>
</g>
<!-- Node14&#45;&gt;Node21 -->
<g id="edge21" class="edge">
<title>Node14&#45;&gt;Node21</title>
<path fill="none" stroke="midnightblue" d="M1290.96,-179.32C1305,-170.9 1326.55,-157.97 1343.04,-148.07"/>
<polygon fill="midnightblue" stroke="midnightblue" points="1345.3,-150.8 1352.08,-142.65 1341.7,-144.8 1345.3,-150.8"/>
</g>
<!-- Node15&#45;&gt;Node8 -->
<g id="edge15" class="edge">
<title>Node15&#45;&gt;Node8</title>
<path fill="none" stroke="midnightblue" d="M852.56,-123.49C828.25,-114.98 790.4,-101.16 758.5,-87 740.7,-79.1 737.61,-74.18 719.5,-67 677.36,-50.3 627.54,-36.46 591.86,-27.53"/>
<polygon fill="midnightblue" stroke="midnightblue" points="592.27,-24.02 581.72,-25.02 590.59,-30.82 592.27,-24.02"/>
</g>
<!-- Node16 -->
<g id="node16" class="node">
<title>Node16</title>
<g id="a_node16"><a xlink:title=" ">
<polygon fill="white" stroke="#bfbfbf" points="767,-67.5 767,-86.5 840,-86.5 840,-67.5 767,-67.5"/>
<text text-anchor="middle" x="803.5" y="-74.5" font-family="Helvetica,sans-Serif" font-size="10.00">G4Types.hh</text>
</a>
</g>
</g>
<!-- Node15&#45;&gt;Node16 -->
<g id="edge16" class="edge">
<title>Node15&#45;&gt;Node16</title>
<path fill="none" stroke="midnightblue" d="M865.61,-123.32C854.35,-115.11 837.21,-102.6 823.79,-92.81"/>
<polygon fill="midnightblue" stroke="midnightblue" points="825.75,-89.9 815.61,-86.83 821.62,-95.56 825.75,-89.9"/>
</g>
<!-- Node17 -->
<g id="node17" class="node">
<title>Node17</title>
<g id="a_node17"><a xlink:title=" ">
<polygon fill="white" stroke="#bfbfbf" points="858.5,-67.5 858.5,-86.5 896.5,-86.5 896.5,-67.5 858.5,-67.5"/>
<text text-anchor="middle" x="877.5" y="-74.5" font-family="Helvetica,sans-Serif" font-size="10.00">map</text>
</a>
</g>
</g>
<!-- Node15&#45;&gt;Node17 -->
<g id="edge17" class="edge">
<title>Node15&#45;&gt;Node17</title>
<path fill="none" stroke="midnightblue" d="M877.5,-123.08C877.5,-116.01 877.5,-105.86 877.5,-96.99"/>
<polygon fill="midnightblue" stroke="midnightblue" points="881,-96.75 877.5,-86.75 874,-96.75 881,-96.75"/>
</g>
<!-- Node18 -->
<g id="node18" class="node">
<title>Node18</title>
<g id="a_node18"><a xlink:title=" ">
<polygon fill="white" stroke="#bfbfbf" points="915,-67.5 915,-86.5 976,-86.5 976,-67.5 915,-67.5"/>
<text text-anchor="middle" x="945.5" y="-74.5" font-family="Helvetica,sans-Serif" font-size="10.00">TGraph.h</text>
</a>
</g>
</g>
<!-- Node15&#45;&gt;Node18 -->
<g id="edge18" class="edge">
<title>Node15&#45;&gt;Node18</title>
<path fill="none" stroke="midnightblue" d="M888.43,-123.32C898.67,-115.18 914.22,-102.84 926.5,-93.09"/>
<polygon fill="midnightblue" stroke="midnightblue" points="928.72,-95.79 934.38,-86.83 924.37,-90.31 928.72,-95.79"/>
</g>
<!-- Node19 -->
<g id="node19" class="node">
<title>Node19</title>
<g id="a_node19"><a xlink:title=" ">
<polygon fill="white" stroke="#bfbfbf" points="994,-67.5 994,-86.5 1047,-86.5 1047,-67.5 994,-67.5"/>
<text text-anchor="middle" x="1020.5" y="-74.5" font-family="Helvetica,sans-Serif" font-size="10.00">TH2D.h</text>
</a>
</g>
</g>
<!-- Node15&#45;&gt;Node19 -->
<g id="edge19" class="edge">
<title>Node15&#45;&gt;Node19</title>
<path fill="none" stroke="midnightblue" d="M900.16,-123.44C923.9,-114.48 961.41,-100.31 988.24,-90.18"/>
<polygon fill="midnightblue" stroke="midnightblue" points="989.83,-93.32 997.95,-86.52 987.36,-86.77 989.83,-93.32"/>
</g>
<!-- Node22&#45;&gt;Node5 -->
<g id="edge23" class="edge">
<title>Node22&#45;&gt;Node5</title>
<path fill="none" stroke="midnightblue" d="M384.5,-179.08C384.5,-172.01 384.5,-161.86 384.5,-152.99"/>
<polygon fill="midnightblue" stroke="midnightblue" points="388,-152.75 384.5,-142.75 381,-152.75 388,-152.75"/>
</g>
<!-- Node22&#45;&gt;Node15 -->
<g id="edge25" class="edge">
<title>Node22&#45;&gt;Node15</title>
<path fill="none" stroke="midnightblue" d="M459.11,-179.83C551.05,-169.76 706.51,-152.73 799.84,-142.51"/>
<polygon fill="midnightblue" stroke="midnightblue" points="800.22,-145.99 809.78,-141.42 799.46,-139.03 800.22,-145.99"/>
</g>
<!-- Node22&#45;&gt;Node22 -->
<g id="edge24" class="edge">
<title>Node22&#45;&gt;Node22</title>
<path fill="none" stroke="midnightblue" d="M423.95,-198.53C450.76,-201.31 477,-198.13 477,-189 477,-181.01 456.91,-177.58 433.93,-178.71"/>
<polygon fill="midnightblue" stroke="midnightblue" points="433.65,-175.22 423.95,-179.47 434.19,-182.2 433.65,-175.22"/>
</g>
<!-- Node23 -->
<g id="node23" class="node">
<title>Node23</title>
<g id="a_node23"><a xlink:title=" ">
<polygon fill="white" stroke="#bfbfbf" points="171.5,-123.5 171.5,-142.5 269.5,-142.5 269.5,-123.5 171.5,-123.5"/>
<text text-anchor="middle" x="220.5" y="-130.5" font-family="Helvetica,sans-Serif" font-size="10.00">G4UnionSolid.hh</text>
</a>
</g>
</g>
<!-- Node22&#45;&gt;Node23 -->
<g id="edge26" class="edge">
<title>Node22&#45;&gt;Node23</title>
<path fill="none" stroke="midnightblue" d="M358.51,-179.44C330.8,-170.32 286.75,-155.81 255.88,-145.65"/>
<polygon fill="midnightblue" stroke="midnightblue" points="256.96,-142.32 246.36,-142.52 254.77,-148.97 256.96,-142.32"/>
</g>
<!-- Node22&#45;&gt;Node24 -->
<g id="edge27" class="edge">
<title>Node22&#45;&gt;Node24</title>
<path fill="none" stroke="midnightblue" d="M423.95,-179.44C469.18,-169.64 543.09,-153.61 589.96,-143.44"/>
<polygon fill="midnightblue" stroke="midnightblue" points="590.79,-146.84 599.82,-141.3 589.3,-140 590.79,-146.84"/>
</g>
<!-- Node27&#45;&gt;Node4 -->
<g id="edge36" class="edge">
<title>Node27&#45;&gt;Node4</title>
<path fill="none" stroke="midnightblue" d="M259.61,-291.44C310.91,-281.92 393.77,-266.55 448.69,-256.36"/>
<polygon fill="midnightblue" stroke="midnightblue" points="449.41,-259.78 458.61,-254.52 448.14,-252.9 449.41,-259.78"/>
</g>
<!-- Node27&#45;&gt;Node22 -->
<g id="edge35" class="edge">
<title>Node27&#45;&gt;Node22</title>
<path fill="none" stroke="midnightblue" d="M226.92,-291.37C256.26,-272.49 326.38,-227.38 362.37,-204.24"/>
<polygon fill="midnightblue" stroke="midnightblue" points="364.63,-206.95 371.14,-198.59 360.84,-201.06 364.63,-206.95"/>
</g>
<!-- Node28 -->
<g id="node28" class="node">
<title>Node28</title>
<g id="a_node28"><a xlink:href="_o_m_sim_m_d_o_m_flasher_8hh.html" target="_top" xlink:title="Defines the mDOMFlasher class for simulating the 10 flashers in an mDOM optical module.">
<polygon fill="white" stroke="black" points="130,-235.5 130,-254.5 265,-254.5 265,-235.5 130,-235.5"/>
<text text-anchor="middle" x="197.5" y="-242.5" font-family="Helvetica,sans-Serif" font-size="10.00">OMSimMDOMFlasher.hh</text>
</a>
</g>
</g>
<!-- Node27&#45;&gt;Node28 -->
<g id="edge31" class="edge">
<title>Node27&#45;&gt;Node28</title>
<path fill="none" stroke="midnightblue" d="M210.86,-291.08C208.71,-283.85 205.62,-273.41 202.95,-264.4"/>
<polygon fill="midnightblue" stroke="midnightblue" points="206.29,-263.34 200.09,-254.75 199.58,-265.33 206.29,-263.34"/>
</g>
<!-- Node28&#45;&gt;Node5 -->
<g id="edge32" class="edge">
<title>Node28&#45;&gt;Node5</title>
<path fill="none" stroke="midnightblue" d="M210.33,-235.49C229.63,-222.78 267.43,-198.26 300.5,-179 319.62,-167.86 341.69,-156.08 358.41,-147.37"/>
<polygon fill="midnightblue" stroke="midnightblue" points="360.3,-150.33 367.57,-142.62 357.08,-144.11 360.3,-150.33"/>
</g>
<!-- Node28&#45;&gt;Node23 -->
<g id="edge33" class="edge">
<title>Node28&#45;&gt;Node23</title>
<path fill="none" stroke="midnightblue" d="M199.3,-235.37C203.02,-217.62 211.58,-176.67 216.61,-152.6"/>
<polygon fill="midnightblue" stroke="midnightblue" points="220.08,-153.1 218.7,-142.59 213.23,-151.66 220.08,-153.1"/>
</g>
<!-- Node28&#45;&gt;Node29 -->
<g id="edge34" class="edge">
<title>Node28&#45;&gt;Node29</title>
<path fill="none" stroke="midnightblue" d="M185.61,-235.32C174.35,-227.11 157.21,-214.6 143.79,-204.81"/>
<polygon fill="midnightblue" stroke="midnightblue" points="145.75,-201.9 135.61,-198.83 141.62,-207.56 145.75,-201.9"/>
</g>
<!-- Node30&#45;&gt;Node4 -->
<g id="edge39" class="edge">
<title>Node30&#45;&gt;Node4</title>
<path fill="none" stroke="midnightblue" d="M358.07,-291.44C387.6,-282.28 434.62,-267.69 467.38,-257.52"/>
<polygon fill="midnightblue" stroke="midnightblue" points="468.54,-260.82 477.06,-254.52 466.47,-254.14 468.54,-260.82"/>
</g>
<!-- Node30&#45;&gt;Node22 -->
<g id="edge38" class="edge">
<title>Node30&#45;&gt;Node22</title>
<path fill="none" stroke="midnightblue" d="M333.2,-291.35C337.29,-278.66 345.65,-254.41 355.5,-235 360.39,-225.37 366.82,-215.2 372.38,-206.98"/>
<polygon fill="midnightblue" stroke="midnightblue" points="375.34,-208.86 378.16,-198.64 369.59,-204.86 375.34,-208.86"/>
</g>
<!-- Node31&#45;&gt;Node4 -->
<g id="edge42" class="edge">
<title>Node31&#45;&gt;Node4</title>
<path fill="none" stroke="midnightblue" d="M456.66,-291.32C465,-283.42 477.53,-271.55 487.68,-261.94"/>
<polygon fill="midnightblue" stroke="midnightblue" points="490.32,-264.25 495.18,-254.83 485.51,-259.17 490.32,-264.25"/>
</g>
<!-- Node31&#45;&gt;Node22 -->
<g id="edge41" class="edge">
<title>Node31&#45;&gt;Node22</title>
<path fill="none" stroke="midnightblue" d="M431.96,-291.48C419.4,-283.7 402.39,-271 393.5,-255 385.64,-240.84 383.73,-222.36 383.59,-208.72"/>
<polygon fill="midnightblue" stroke="midnightblue" points="387.09,-208.68 383.8,-198.61 380.1,-208.54 387.09,-208.68"/>
</g>
<!-- Node32&#45;&gt;Node4 -->
<g id="edge45" class="edge">
<title>Node32&#45;&gt;Node4</title>
<path fill="none" stroke="midnightblue" d="M651.77,-291.44C622.07,-282.28 574.78,-267.69 541.83,-257.52"/>
<polygon fill="midnightblue" stroke="midnightblue" points="542.69,-254.12 532.1,-254.52 540.62,-260.81 542.69,-254.12"/>
</g>
<!-- Node32&#45;&gt;Node22 -->
<g id="edge44" class="edge">
<title>Node32&#45;&gt;Node22</title>
<path fill="none" stroke="midnightblue" d="M669.35,-291.43C652.32,-277.5 616.4,-249.97 581.5,-235 542.28,-218.18 495.86,-207.19 457.93,-200.28"/>
<polygon fill="midnightblue" stroke="midnightblue" points="458.44,-196.81 447.98,-198.52 457.22,-203.71 458.44,-196.81"/>
</g>
<!-- Node33 -->
<g id="node33" class="node">
<title>Node33</title>
<g id="a_node33"><a xlink:title=" ">
<polygon fill="white" stroke="#bfbfbf" points="736.5,-235.5 736.5,-254.5 852.5,-254.5 852.5,-235.5 736.5,-235.5"/>
<text text-anchor="middle" x="794.5" y="-242.5" font-family="Helvetica,sans-Serif" font-size="10.00">G4LogicalVolume.hh</text>
</a>
</g>
</g>
<!-- Node32&#45;&gt;Node33 -->
<g id="edge46" class="edge">
<title>Node32&#45;&gt;Node33</title>
<path fill="none" stroke="midnightblue" d="M697.72,-291.44C716.4,-282.68 745.66,-268.94 767.12,-258.86"/>
<polygon fill="midnightblue" stroke="midnightblue" points="768.8,-261.93 776.36,-254.52 765.82,-255.6 768.8,-261.93"/>
</g>
<!-- Node34 -->
<g id="node34" class="node">
<title>Node34</title>
<g id="a_node34"><a xlink:title=" ">
<polygon fill="white" stroke="#bfbfbf" points="630,-235.5 630,-254.5 719,-254.5 719,-235.5 630,-235.5"/>
<text text-anchor="middle" x="674.5" y="-242.5" font-family="Helvetica,sans-Serif" font-size="10.00">G4Polycone.hh</text>
</a>
</g>
</g>
<!-- Node32&#45;&gt;Node34 -->
<g id="edge47" class="edge">
<title>Node32&#45;&gt;Node34</title>
<path fill="none" stroke="midnightblue" d="M678.67,-291.08C678.02,-284.01 677.08,-273.86 676.26,-264.99"/>
<polygon fill="midnightblue" stroke="midnightblue" points="679.72,-264.39 675.31,-254.75 672.75,-265.03 679.72,-264.39"/>
</g>
<!-- Node35&#45;&gt;Node4 -->
<g id="edge50" class="edge">
<title>Node35&#45;&gt;Node4</title>
<path fill="none" stroke="midnightblue" d="M554.02,-291.32C545.3,-283.34 532.16,-271.31 521.6,-261.65"/>
<polygon fill="midnightblue" stroke="midnightblue" points="523.89,-259 514.15,-254.83 519.17,-264.17 523.89,-259"/>
</g>
<!-- Node35&#45;&gt;Node22 -->
<g id="edge49" class="edge">
<title>Node35&#45;&gt;Node22</title>
<path fill="none" stroke="midnightblue" d="M515.98,-292.62C487.73,-286.35 452.46,-275.04 426.5,-255 410.75,-242.85 399.17,-223.01 392.2,-208.44"/>
<polygon fill="midnightblue" stroke="midnightblue" points="395.24,-206.64 387.95,-198.95 388.85,-209.51 395.24,-206.64"/>
</g>
<!-- Node36&#45;&gt;Node21 -->
<g id="edge57" class="edge">
<title>Node36&#45;&gt;Node21</title>
<path fill="none" stroke="midnightblue" d="M1138.8,-347.43C1167.03,-340.47 1204.21,-328.84 1233.5,-311 1294.17,-274.06 1311.02,-259.95 1347.5,-199 1356.08,-184.66 1360.99,-166.19 1363.66,-152.61"/>
<polygon fill="midnightblue" stroke="midnightblue" points="1367.15,-153 1365.41,-142.55 1360.25,-151.81 1367.15,-153"/>
</g>
<!-- Node37 -->
<g id="node37" class="node">
<title>Node37</title>
<g id="a_node37"><a xlink:href="_o_m_sim_logger_8hh.html" target="_top" xlink:title=" ">
<polygon fill="white" stroke="black" points="937,-291.5 937,-310.5 1036,-310.5 1036,-291.5 937,-291.5"/>
<text text-anchor="middle" x="986.5" y="-298.5" font-family="Helvetica,sans-Serif" font-size="10.00">OMSimLogger.hh</text>
</a>
</g>
</g>
<!-- Node36&#45;&gt;Node37 -->
<g id="edge54" class="edge">
<title>Node36&#45;&gt;Node37</title>
<path fill="none" stroke="midnightblue" d="M1078.83,-347.32C1061.11,-338.62 1033.6,-325.12 1013.21,-315.11"/>
<polygon fill="midnightblue" stroke="midnightblue" points="1014.65,-311.92 1004.13,-310.65 1011.56,-318.2 1014.65,-311.92"/>
</g>
<!-- Node40 -->
<g id="node40" class="node">
<title>Node40</title>
<g id="a_node40"><a xlink:title=" ">
<polygon fill="white" stroke="#bfbfbf" points="1054.5,-291.5 1054.5,-310.5 1138.5,-310.5 1138.5,-291.5 1054.5,-291.5"/>
<text text-anchor="middle" x="1096.5" y="-298.5" font-family="Helvetica,sans-Serif" font-size="10.00">boost/any.hpp</text>
</a>
</g>
</g>
<!-- Node36&#45;&gt;Node40 -->
<g id="edge58" class="edge">
<title>Node36&#45;&gt;Node40</title>
<path fill="none" stroke="midnightblue" d="M1096.5,-347.08C1096.5,-340.01 1096.5,-329.86 1096.5,-320.99"/>
<polygon fill="midnightblue" stroke="midnightblue" points="1100,-320.75 1096.5,-310.75 1093,-320.75 1100,-320.75"/>
</g>
<!-- Node41 -->
<g id="node41" class="node">
<title>Node41</title>
<g id="a_node41"><a xlink:title=" ">
<polygon fill="white" stroke="#bfbfbf" points="1156.5,-291.5 1156.5,-310.5 1224.5,-310.5 1224.5,-291.5 1156.5,-291.5"/>
<text text-anchor="middle" x="1190.5" y="-298.5" font-family="Helvetica,sans-Serif" font-size="10.00">sys/time.h</text>
</a>
</g>
</g>
<!-- Node36&#45;&gt;Node41 -->
<g id="edge59" class="edge">
<title>Node36&#45;&gt;Node41</title>
<path fill="none" stroke="midnightblue" d="M1111.6,-347.32C1126.4,-338.82 1149.19,-325.73 1166.48,-315.8"/>
<polygon fill="midnightblue" stroke="midnightblue" points="1168.51,-318.67 1175.43,-310.65 1165.02,-312.6 1168.51,-318.67"/>
</g>
<!-- Node38 -->
<g id="node38" class="node">
<title>Node38</title>
<g id="a_node38"><a xlink:title=" ">
<polygon fill="white" stroke="#bfbfbf" points="1212.5,-235.5 1212.5,-254.5 1262.5,-254.5 1262.5,-235.5 1212.5,-235.5"/>
<text text-anchor="middle" x="1237.5" y="-242.5" font-family="Helvetica,sans-Serif" font-size="10.00">stdio.h</text>
</a>
</g>
</g>
<!-- Node37&#45;&gt;Node38 -->
<g id="edge55" class="edge">
<title>Node37&#45;&gt;Node38</title>
<path fill="none" stroke="midnightblue" d="M1031.12,-291.48C1072.96,-283.33 1137.46,-270.35 1202.3,-255.19"/>
<polygon fill="midnightblue" stroke="midnightblue" points="1203.36,-258.54 1212.29,-252.84 1201.75,-251.72 1203.36,-258.54"/>
</g>
<!-- Node39 -->
<g id="node39" class="node">
<title>Node39</title>
<g id="a_node39"><a xlink:title=" ">
<polygon fill="white" stroke="#bfbfbf" points="1146.5,-235.5 1146.5,-254.5 1194.5,-254.5 1194.5,-235.5 1146.5,-235.5"/>
<text text-anchor="middle" x="1170.5" y="-242.5" font-family="Helvetica,sans-Serif" font-size="10.00">time.h</text>
</a>
</g>
</g>
<!-- Node37&#45;&gt;Node39 -->
<g id="edge56" class="edge">
<title>Node37&#45;&gt;Node39</title>
<path fill="none" stroke="midnightblue" d="M1015.66,-291.44C1048.58,-281.78 1102.08,-266.08 1136.78,-255.9"/>
<polygon fill="midnightblue" stroke="midnightblue" points="1137.86,-259.23 1146.47,-253.05 1135.88,-252.51 1137.86,-259.23"/>
</g>
</g>
</svg>
