<?xml version="1.0" encoding="UTF-8" standalone="no"?>
<!DOCTYPE svg PUBLIC "-//W3C//DTD SVG 1.1//EN"
 "http://www.w3.org/Graphics/SVG/1.1/DTD/svg11.dtd">
<!-- Generated by graphviz version 2.43.0 (0)
 -->
<!-- Title: OMSimAngularScan.cc Pages: 1 -->
<svg width="567pt" height="263pt"
 viewBox="0.00 0.00 567.00 263.00" xmlns="http://www.w3.org/2000/svg" xmlns:xlink="http://www.w3.org/1999/xlink">
<g id="graph0" class="graph" transform="scale(1 1) rotate(0) translate(4 259)">
<title>OMSimAngularScan.cc</title>
<polygon fill="white" stroke="transparent" points="-4,4 -4,-259 563,-259 563,4 -4,4"/>
<!-- Node1 -->
<g id="node1" class="node">
<title>Node1</title>
<g id="a_node1"><a xlink:title=" ">
<polygon fill="#bfbfbf" stroke="black" points="298.5,-235.5 298.5,-254.5 424.5,-254.5 424.5,-235.5 298.5,-235.5"/>
<text text-anchor="middle" x="361.5" y="-242.5" font-family="Helvetica,sans-Serif" font-size="10.00">OMSimAngularScan.cc</text>
</a>
</g>
</g>
<!-- Node2 -->
<g id="node2" class="node">
<title>Node2</title>
<g id="a_node2"><a xlink:href="_o_m_sim_angular_scan_8hh.html" target="_top" xlink:title="Defines the AngularScan class for configuring and running GPS beam with angular scans.">
<polygon fill="white" stroke="black" points="154.5,-179.5 154.5,-198.5 282.5,-198.5 282.5,-179.5 154.5,-179.5"/>
<text text-anchor="middle" x="218.5" y="-186.5" font-family="Helvetica,sans-Serif" font-size="10.00">OMSimAngularScan.hh</text>
</a>
</g>
</g>
<!-- Node1&#45;&gt;Node2 -->
<g id="edge1" class="edge">
<title>Node1&#45;&gt;Node2</title>
<path fill="none" stroke="midnightblue" d="M338.84,-235.44C315.1,-226.48 277.59,-212.31 250.76,-202.18"/>
<polygon fill="midnightblue" stroke="midnightblue" points="251.64,-198.77 241.05,-198.52 249.17,-205.32 251.64,-198.77"/>
</g>
<!-- Node4 -->
<g id="node4" class="node">
<title>Node4</title>
<g id="a_node4"><a xlink:href="_o_m_sim_u_iinterface_8hh.html" target="_top" xlink:title="The OMSimUIinterface class provides a singleton interface to Geant4&#39;s UI manager.">
<polygon fill="white" stroke="black" points="301,-179.5 301,-198.5 422,-198.5 422,-179.5 301,-179.5"/>
<text text-anchor="middle" x="361.5" y="-186.5" font-family="Helvetica,sans-Serif" font-size="10.00">OMSimUIinterface.hh</text>
</a>
</g>
</g>
<!-- Node1&#45;&gt;Node4 -->
<g id="edge3" class="edge">
<title>Node1&#45;&gt;Node4</title>
<path fill="none" stroke="midnightblue" d="M361.5,-235.08C361.5,-228.01 361.5,-217.86 361.5,-208.99"/>
<polygon fill="midnightblue" stroke="midnightblue" points="365,-208.75 361.5,-198.75 358,-208.75 365,-208.75"/>
</g>
<!-- Node15 -->
<g id="node15" class="node">
<title>Node15</title>
<g id="a_node15"><a xlink:title=" ">
<polygon fill="white" stroke="#bfbfbf" points="440,-179.5 440,-198.5 559,-198.5 559,-179.5 440,-179.5"/>
<text text-anchor="middle" x="499.5" y="-186.5" font-family="Helvetica,sans-Serif" font-size="10.00">G4SystemOfUnits.hh</text>
</a>
</g>
</g>
<!-- Node1&#45;&gt;Node15 -->
<g id="edge14" class="edge">
<title>Node1&#45;&gt;Node15</title>
<path fill="none" stroke="midnightblue" d="M383.37,-235.44C406.28,-226.48 442.48,-212.31 468.37,-202.18"/>
<polygon fill="midnightblue" stroke="midnightblue" points="469.7,-205.42 477.74,-198.52 467.15,-198.9 469.7,-205.42"/>
</g>
<!-- Node3 -->
<g id="node3" class="node">
<title>Node3</title>
<g id="a_node3"><a xlink:title=" ">
<polygon fill="white" stroke="#bfbfbf" points="185,-123.5 185,-142.5 252,-142.5 252,-123.5 185,-123.5"/>
<text text-anchor="middle" x="218.5" y="-130.5" font-family="Helvetica,sans-Serif" font-size="10.00">globals.hh</text>
</a>
</g>
</g>
<!-- Node2&#45;&gt;Node3 -->
<g id="edge2" class="edge">
<title>Node2&#45;&gt;Node3</title>
<path fill="none" stroke="midnightblue" d="M218.5,-179.08C218.5,-172.01 218.5,-161.86 218.5,-152.99"/>
<polygon fill="midnightblue" stroke="midnightblue" points="222,-152.75 218.5,-142.75 215,-152.75 222,-152.75"/>
</g>
<!-- Node5 -->
<g id="node5" class="node">
<title>Node5</title>
<g id="a_node5"><a xlink:href="_o_m_sim_command_args_table_8hh.html" target="_top" xlink:title="Definition of the OMSimCommandArgsTable singleton class, which controls user args.">
<polygon fill="white" stroke="black" points="274.5,-123.5 274.5,-142.5 438.5,-142.5 438.5,-123.5 274.5,-123.5"/>
<text text-anchor="middle" x="356.5" y="-130.5" font-family="Helvetica,sans-Serif" font-size="10.00">OMSimCommandArgsTable.hh</text>
</a>
</g>
</g>
<!-- Node4&#45;&gt;Node5 -->
<g id="edge4" class="edge">
<title>Node4&#45;&gt;Node5</title>
<path fill="none" stroke="midnightblue" d="M360.67,-179.08C360.02,-172.01 359.08,-161.86 358.26,-152.99"/>
<polygon fill="midnightblue" stroke="midnightblue" points="361.72,-152.39 357.31,-142.75 354.75,-153.03 361.72,-152.39"/>
</g>
<!-- Node14 -->
<g id="node14" class="node">
<title>Node14</title>
<g id="a_node14"><a xlink:title=" ">
<polygon fill="white" stroke="#bfbfbf" points="456.5,-123.5 456.5,-142.5 554.5,-142.5 554.5,-123.5 456.5,-123.5"/>
<text text-anchor="middle" x="505.5" y="-130.5" font-family="Helvetica,sans-Serif" font-size="10.00">G4UImanager.hh</text>
</a>
</g>
</g>
<!-- Node4&#45;&gt;Node14 -->
<g id="edge13" class="edge">
<title>Node4&#45;&gt;Node14</title>
<path fill="none" stroke="midnightblue" d="M384.32,-179.44C408.33,-170.44 446.33,-156.19 473.37,-146.05"/>
<polygon fill="midnightblue" stroke="midnightblue" points="474.66,-149.3 482.79,-142.52 472.2,-142.75 474.66,-149.3"/>
</g>
<!-- Node6 -->
<g id="node6" class="node">
<title>Node6</title>
<g id="a_node6"><a xlink:href="_o_m_sim_logger_8hh.html" target="_top" xlink:title=" ">
<polygon fill="white" stroke="black" points="168,-67.5 168,-86.5 267,-86.5 267,-67.5 168,-67.5"/>
<text text-anchor="middle" x="217.5" y="-74.5" font-family="Helvetica,sans-Serif" font-size="10.00">OMSimLogger.hh</text>
</a>
</g>
</g>
<!-- Node5&#45;&gt;Node6 -->
<g id="edge5" class="edge">
<title>Node5&#45;&gt;Node6</title>
<path fill="none" stroke="midnightblue" d="M334.48,-123.44C311.4,-114.48 274.94,-100.31 248.86,-90.18"/>
<polygon fill="midnightblue" stroke="midnightblue" points="250.01,-86.88 239.42,-86.52 247.48,-93.4 250.01,-86.88"/>
</g>
<!-- Node11 -->
<g id="node11" class="node">
<title>Node11</title>
<g id="a_node11"><a xlink:title=" ">
<polygon fill="white" stroke="#bfbfbf" points="285,-67.5 285,-86.5 340,-86.5 340,-67.5 285,-67.5"/>
<text text-anchor="middle" x="312.5" y="-74.5" font-family="Helvetica,sans-Serif" font-size="10.00">fstream</text>
</a>
</g>
</g>
<!-- Node5&#45;&gt;Node11 -->
<g id="edge10" class="edge">
<title>Node5&#45;&gt;Node11</title>
<path fill="none" stroke="midnightblue" d="M349.23,-123.08C342.96,-115.38 333.71,-104.03 326.07,-94.65"/>
<polygon fill="midnightblue" stroke="midnightblue" points="328.66,-92.29 319.63,-86.75 323.23,-96.71 328.66,-92.29"/>
</g>
<!-- Node12 -->
<g id="node12" class="node">
<title>Node12</title>
<g id="a_node12"><a xlink:title=" ">
<polygon fill="white" stroke="#bfbfbf" points="358.5,-67.5 358.5,-86.5 442.5,-86.5 442.5,-67.5 358.5,-67.5"/>
<text text-anchor="middle" x="400.5" y="-74.5" font-family="Helvetica,sans-Serif" font-size="10.00">boost/any.hpp</text>
</a>
</g>
</g>
<!-- Node5&#45;&gt;Node12 -->
<g id="edge11" class="edge">
<title>Node5&#45;&gt;Node12</title>
<path fill="none" stroke="midnightblue" d="M363.77,-123.08C370.04,-115.38 379.29,-104.03 386.93,-94.65"/>
<polygon fill="midnightblue" stroke="midnightblue" points="389.77,-96.71 393.37,-86.75 384.34,-92.29 389.77,-96.71"/>
</g>
<!-- Node13 -->
<g id="node13" class="node">
<title>Node13</title>
<g id="a_node13"><a xlink:title=" ">
<polygon fill="white" stroke="#bfbfbf" points="460.5,-67.5 460.5,-86.5 528.5,-86.5 528.5,-67.5 460.5,-67.5"/>
<text text-anchor="middle" x="494.5" y="-74.5" font-family="Helvetica,sans-Serif" font-size="10.00">sys/time.h</text>
</a>
</g>
</g>
<!-- Node5&#45;&gt;Node13 -->
<g id="edge12" class="edge">
<title>Node5&#45;&gt;Node13</title>
<path fill="none" stroke="midnightblue" d="M378.37,-123.44C401.28,-114.48 437.48,-100.31 463.37,-90.18"/>
<polygon fill="midnightblue" stroke="midnightblue" points="464.7,-93.42 472.74,-86.52 462.15,-86.9 464.7,-93.42"/>
</g>
<!-- Node7 -->
<g id="node7" class="node">
<title>Node7</title>
<g id="a_node7"><a xlink:title=" ">
<polygon fill="white" stroke="#bfbfbf" points="0,-6 0,-25 93,-25 93,-6 0,-6"/>
<text text-anchor="middle" x="46.5" y="-13" font-family="Helvetica,sans-Serif" font-size="10.00">spdlog/spdlog.h</text>
</a>
</g>
</g>
<!-- Node6&#45;&gt;Node7 -->
<g id="edge6" class="edge">
<title>Node6&#45;&gt;Node7</title>
<path fill="none" stroke="midnightblue" d="M193,-67.48C163.54,-57.22 113.92,-39.96 80.7,-28.4"/>
<polygon fill="midnightblue" stroke="midnightblue" points="81.55,-24.99 70.95,-25.01 79.25,-31.6 81.55,-24.99"/>
</g>
<!-- Node8 -->
<g id="node8" class="node">
<title>Node8</title>
<g id="a_node8"><a xlink:title=" ">
<polygon fill="white" stroke="#bfbfbf" points="111,-0.5 111,-30.5 222,-30.5 222,-0.5 111,-0.5"/>
<text text-anchor="start" x="119" y="-18.5" font-family="Helvetica,sans-Serif" font-size="10.00">spdlog/sinks/stdout</text>
<text text-anchor="middle" x="166.5" y="-7.5" font-family="Helvetica,sans-Serif" font-size="10.00">_color_sinks.h</text>
</a>
</g>
</g>
<!-- Node6&#45;&gt;Node8 -->
<g id="edge7" class="edge">
<title>Node6&#45;&gt;Node8</title>
<path fill="none" stroke="midnightblue" d="M210.19,-67.48C203.67,-59.87 193.84,-48.4 185.16,-38.26"/>
<polygon fill="midnightblue" stroke="midnightblue" points="187.69,-35.84 178.52,-30.52 182.37,-40.39 187.69,-35.84"/>
</g>
<!-- Node9 -->
<g id="node9" class="node">
<title>Node9</title>
<g id="a_node9"><a xlink:title=" ">
<polygon fill="white" stroke="#bfbfbf" points="240.5,-6 240.5,-25 298.5,-25 298.5,-6 240.5,-6"/>
<text text-anchor="middle" x="269.5" y="-13" font-family="Helvetica,sans-Serif" font-size="10.00">memory</text>
</a>
</g>
</g>
<!-- Node6&#45;&gt;Node9 -->
<g id="edge8" class="edge">
<title>Node6&#45;&gt;Node9</title>
<path fill="none" stroke="midnightblue" d="M224.95,-67.48C232.83,-58.46 245.44,-44.02 255.24,-32.81"/>
<polygon fill="midnightblue" stroke="midnightblue" points="258.12,-34.84 262.06,-25.01 252.85,-30.24 258.12,-34.84"/>
</g>
<!-- Node10 -->
<g id="node10" class="node">
<title>Node10</title>
<g id="a_node10"><a xlink:title=" ">
<polygon fill="white" stroke="#bfbfbf" points="316.5,-6 316.5,-25 414.5,-25 414.5,-6 316.5,-6"/>
<text text-anchor="middle" x="365.5" y="-13" font-family="Helvetica,sans-Serif" font-size="10.00">spdlog/fmt/fmt.h</text>
</a>
</g>
</g>
<!-- Node6&#45;&gt;Node10 -->
<g id="edge9" class="edge">
<title>Node6&#45;&gt;Node10</title>
<path fill="none" stroke="midnightblue" d="M238.7,-67.48C263.87,-57.36 306.04,-40.4 334.78,-28.85"/>
<polygon fill="midnightblue" stroke="midnightblue" points="336.36,-31.99 344.33,-25.01 333.75,-25.49 336.36,-31.99"/>
</g>
</g>
</svg>
