<?xml version="1.0" encoding="UTF-8" standalone="no"?>
<!DOCTYPE svg PUBLIC "-//W3C//DTD SVG 1.1//EN"
 "http://www.w3.org/Graphics/SVG/1.1/DTD/svg11.dtd">
<!-- Generated by graphviz version 2.43.0 (0)
 -->
<!-- Title: OMSimEffectiveAreaDetector.cc Pages: 1 -->
<svg width="1459pt" height="431pt"
 viewBox="0.00 0.00 1459.00 431.00" xmlns="http://www.w3.org/2000/svg" xmlns:xlink="http://www.w3.org/1999/xlink">
<g id="graph0" class="graph" transform="scale(1 1) rotate(0) translate(4 427)">
<title>OMSimEffectiveAreaDetector.cc</title>
<polygon fill="white" stroke="transparent" points="-4,4 -4,-427 1455,-427 1455,4 -4,4"/>
<!-- Node1 -->
<g id="node1" class="node">
<title>Node1</title>
<g id="a_node1"><a xlink:title=" ">
<polygon fill="#bfbfbf" stroke="black" points="780,-403.5 780,-422.5 952,-422.5 952,-403.5 780,-403.5"/>
<text text-anchor="middle" x="866" y="-410.5" font-family="Helvetica,sans-Serif" font-size="10.00">OMSimEffectiveAreaDetector.cc</text>
</a>
</g>
</g>
<!-- Node2 -->
<g id="node2" class="node">
<title>Node2</title>
<g id="a_node2"><a xlink:href="_o_m_sim_effective_area_detector_8hh.html" target="_top" xlink:title="Defines the OMSimEffectiveAreaDetector class for effective area simulation detector construction.">
<polygon fill="white" stroke="black" points="779.5,-347.5 779.5,-366.5 952.5,-366.5 952.5,-347.5 779.5,-347.5"/>
<text text-anchor="middle" x="866" y="-354.5" font-family="Helvetica,sans-Serif" font-size="10.00">OMSimEffectiveAreaDetector.hh</text>
</a>
</g>
</g>
<!-- Node1&#45;&gt;Node2 -->
<g id="edge1" class="edge">
<title>Node1&#45;&gt;Node2</title>
<path fill="none" stroke="midnightblue" d="M866,-403.08C866,-396.01 866,-385.86 866,-376.99"/>
<polygon fill="midnightblue" stroke="midnightblue" points="869.5,-376.75 866,-366.75 862.5,-376.75 869.5,-376.75"/>
</g>
<!-- Node14 -->
<g id="node14" class="node">
<title>Node14</title>
<g id="a_node14"><a xlink:href="_o_m_sim_hit_manager_8hh.html" target="_top" xlink:title="Defines structures and classes related to optical module photon hit management.">
<polygon fill="white" stroke="black" points="864.5,-179.5 864.5,-198.5 987.5,-198.5 987.5,-179.5 864.5,-179.5"/>
<text text-anchor="middle" x="926" y="-186.5" font-family="Helvetica,sans-Serif" font-size="10.00">OMSimHitManager.hh</text>
</a>
</g>
</g>
<!-- Node1&#45;&gt;Node14 -->
<g id="edge58" class="edge">
<title>Node1&#45;&gt;Node14</title>
<path fill="none" stroke="midnightblue" d="M916.97,-403.48C939.5,-397.13 964.37,-386.1 980,-367 1017.58,-321.08 1029.08,-286.72 1000,-235 991.78,-220.38 976.67,-209.95 962.24,-202.85"/>
<polygon fill="midnightblue" stroke="midnightblue" points="963.48,-199.57 952.93,-198.64 960.6,-205.95 963.48,-199.57"/>
</g>
<!-- Node25 -->
<g id="node25" class="node">
<title>Node25</title>
<g id="a_node25"><a xlink:title=" ">
<polygon fill="white" stroke="#bfbfbf" points="929,-235.5 929,-254.5 991,-254.5 991,-235.5 929,-235.5"/>
<text text-anchor="middle" x="960" y="-242.5" font-family="Helvetica,sans-Serif" font-size="10.00">G4Orb.hh</text>
</a>
</g>
</g>
<!-- Node1&#45;&gt;Node25 -->
<g id="edge60" class="edge">
<title>Node1&#45;&gt;Node25</title>
<path fill="none" stroke="midnightblue" d="M906.43,-403.45C926.42,-396.99 948.83,-385.86 961,-367 981.14,-335.79 972.98,-289.96 966.01,-264.6"/>
<polygon fill="midnightblue" stroke="midnightblue" points="969.3,-263.39 963.08,-254.8 962.59,-265.39 969.3,-263.39"/>
</g>
<!-- Node27 -->
<g id="node27" class="node">
<title>Node27</title>
<g id="a_node27"><a xlink:href="_o_m_sim_p_d_o_m_8hh.html" target="_top" xlink:title="Implementation of the pDOM/Gen1 DOM class.">
<polygon fill="white" stroke="black" points="231.5,-291.5 231.5,-310.5 328.5,-310.5 328.5,-291.5 231.5,-291.5"/>
<text text-anchor="middle" x="280" y="-298.5" font-family="Helvetica,sans-Serif" font-size="10.00">OMSimPDOM.hh</text>
</a>
</g>
</g>
<!-- Node1&#45;&gt;Node27 -->
<g id="edge30" class="edge">
<title>Node1&#45;&gt;Node27</title>
<path fill="none" stroke="midnightblue" d="M779.72,-407.22C699.93,-401.58 578.4,-389.92 475,-367 415.35,-353.78 348.27,-329.17 310.38,-314.32"/>
<polygon fill="midnightblue" stroke="midnightblue" points="311.53,-311.01 300.95,-310.59 308.96,-317.52 311.53,-311.01"/>
</g>
<!-- Node28 -->
<g id="node28" class="node">
<title>Node28</title>
<g id="a_node28"><a xlink:href="_o_m_sim_l_o_m16_8hh.html" target="_top" xlink:title="Construction of LOM16.">
<polygon fill="white" stroke="black" points="346.5,-291.5 346.5,-310.5 447.5,-310.5 447.5,-291.5 346.5,-291.5"/>
<text text-anchor="middle" x="397" y="-298.5" font-family="Helvetica,sans-Serif" font-size="10.00">OMSimLOM16.hh</text>
</a>
</g>
</g>
<!-- Node1&#45;&gt;Node28 -->
<g id="edge33" class="edge">
<title>Node1&#45;&gt;Node28</title>
<path fill="none" stroke="midnightblue" d="M779.69,-408.42C710.16,-403.68 610.57,-392.65 527,-367 487,-354.72 444.28,-331.08 419.14,-315.95"/>
<polygon fill="midnightblue" stroke="midnightblue" points="420.77,-312.84 410.41,-310.6 417.11,-318.81 420.77,-312.84"/>
</g>
<!-- Node29 -->
<g id="node29" class="node">
<title>Node29</title>
<g id="a_node29"><a xlink:href="_o_m_sim_l_o_m18_8hh.html" target="_top" xlink:title="Construction of LOM18.">
<polygon fill="white" stroke="black" points="536.5,-347.5 536.5,-366.5 637.5,-366.5 637.5,-347.5 536.5,-347.5"/>
<text text-anchor="middle" x="587" y="-354.5" font-family="Helvetica,sans-Serif" font-size="10.00">OMSimLOM18.hh</text>
</a>
</g>
</g>
<!-- Node1&#45;&gt;Node29 -->
<g id="edge36" class="edge">
<title>Node1&#45;&gt;Node29</title>
<path fill="none" stroke="midnightblue" d="M821.79,-403.44C772.71,-393.94 693.49,-378.61 640.84,-368.42"/>
<polygon fill="midnightblue" stroke="midnightblue" points="641.48,-364.98 631,-366.52 640.15,-371.85 641.48,-364.98"/>
</g>
<!-- Node30 -->
<g id="node30" class="node">
<title>Node30</title>
<g id="a_node30"><a xlink:title=" ">
<polygon fill="white" stroke="#bfbfbf" points="649,-291.5 649,-310.5 765,-310.5 765,-291.5 649,-291.5"/>
<text text-anchor="middle" x="707" y="-298.5" font-family="Helvetica,sans-Serif" font-size="10.00">G4LogicalVolume.hh</text>
</a>
</g>
</g>
<!-- Node1&#45;&gt;Node30 -->
<g id="edge67" class="edge">
<title>Node1&#45;&gt;Node30</title>
<path fill="none" stroke="midnightblue" d="M841.81,-403.49C821.57,-395.73 792.48,-383.04 770,-367 750.51,-353.09 731.9,-332.71 720.03,-318.49"/>
<polygon fill="midnightblue" stroke="midnightblue" points="722.59,-316.09 713.56,-310.55 717.16,-320.51 722.59,-316.09"/>
</g>
<!-- Node32 -->
<g id="node32" class="node">
<title>Node32</title>
<g id="a_node32"><a xlink:href="_o_m_sim_d_e_g_g_8hh.html" target="_top" xlink:title="Construction of the DEGG class.">
<polygon fill="white" stroke="black" points="118.5,-291.5 118.5,-310.5 213.5,-310.5 213.5,-291.5 118.5,-291.5"/>
<text text-anchor="middle" x="166" y="-298.5" font-family="Helvetica,sans-Serif" font-size="10.00">OMSimDEGG.hh</text>
</a>
</g>
</g>
<!-- Node1&#45;&gt;Node32 -->
<g id="edge41" class="edge">
<title>Node1&#45;&gt;Node32</title>
<path fill="none" stroke="midnightblue" d="M779.67,-408.13C685.84,-402.88 531.79,-391.23 401,-367 328.83,-353.63 246.62,-328.55 201.08,-313.76"/>
<polygon fill="midnightblue" stroke="midnightblue" points="201.99,-310.38 191.39,-310.59 199.81,-317.03 201.99,-310.38"/>
</g>
<!-- Node33 -->
<g id="node33" class="node">
<title>Node33</title>
<g id="a_node33"><a xlink:href="_o_m_sim_m_d_o_m_8hh.html" target="_top" xlink:title="Construction of mDOM.">
<polygon fill="white" stroke="black" points="0,-291.5 0,-310.5 100,-310.5 100,-291.5 0,-291.5"/>
<text text-anchor="middle" x="50" y="-298.5" font-family="Helvetica,sans-Serif" font-size="10.00">OMSimMDOM.hh</text>
</a>
</g>
</g>
<!-- Node1&#45;&gt;Node33 -->
<g id="edge44" class="edge">
<title>Node1&#45;&gt;Node33</title>
<path fill="none" stroke="midnightblue" d="M779.75,-409.28C670.5,-404.86 476.75,-393.72 313,-367 231.79,-353.75 138.75,-328.25 87.98,-313.44"/>
<polygon fill="midnightblue" stroke="midnightblue" points="88.68,-310 78.1,-310.53 86.71,-316.71 88.68,-310"/>
</g>
<!-- Node36 -->
<g id="node36" class="node">
<title>Node36</title>
<g id="a_node36"><a xlink:href="_o_m_sim_command_args_table_8hh.html" target="_top" xlink:title="Definition of the OMSimCommandArgsTable singleton class, which controls user args.">
<polygon fill="white" stroke="black" points="1085,-347.5 1085,-366.5 1249,-366.5 1249,-347.5 1085,-347.5"/>
<text text-anchor="middle" x="1167" y="-354.5" font-family="Helvetica,sans-Serif" font-size="10.00">OMSimCommandArgsTable.hh</text>
</a>
</g>
</g>
<!-- Node1&#45;&gt;Node36 -->
<g id="edge51" class="edge">
<title>Node1&#45;&gt;Node36</title>
<path fill="none" stroke="midnightblue" d="M913.69,-403.44C966.86,-393.9 1052.82,-378.48 1109.63,-368.29"/>
<polygon fill="midnightblue" stroke="midnightblue" points="1110.3,-371.73 1119.53,-366.52 1109.07,-364.84 1110.3,-371.73"/>
</g>
<!-- Node42 -->
<g id="node42" class="node">
<title>Node42</title>
<g id="a_node42"><a xlink:title=" ">
<polygon fill="white" stroke="#bfbfbf" points="1267.5,-347.5 1267.5,-366.5 1368.5,-366.5 1368.5,-347.5 1267.5,-347.5"/>
<text text-anchor="middle" x="1318" y="-354.5" font-family="Helvetica,sans-Serif" font-size="10.00">G4SDManager.hh</text>
</a>
</g>
</g>
<!-- Node1&#45;&gt;Node42 -->
<g id="edge59" class="edge">
<title>Node1&#45;&gt;Node42</title>
<path fill="none" stroke="midnightblue" d="M947.56,-403.47C1024.6,-395.22 1143.65,-381.98 1257.03,-367.09"/>
<polygon fill="midnightblue" stroke="midnightblue" points="1257.82,-370.51 1267.28,-365.73 1256.91,-363.57 1257.82,-370.51"/>
</g>
<!-- Node43 -->
<g id="node43" class="node">
<title>Node43</title>
<g id="a_node43"><a xlink:href="_o_m_sim_sensitive_detector_8hh.html" target="_top" xlink:title=" ">
<polygon fill="white" stroke="black" points="1085.5,-179.5 1085.5,-198.5 1238.5,-198.5 1238.5,-179.5 1085.5,-179.5"/>
<text text-anchor="middle" x="1162" y="-186.5" font-family="Helvetica,sans-Serif" font-size="10.00">OMSimSensitiveDetector.hh</text>
</a>
</g>
</g>
<!-- Node1&#45;&gt;Node43 -->
<g id="edge61" class="edge">
<title>Node1&#45;&gt;Node43</title>
<path fill="none" stroke="midnightblue" d="M910.2,-403.48C938.13,-396.67 974.08,-385.2 1002,-367 1069.88,-322.75 1127.44,-242.78 1150.82,-207.52"/>
<polygon fill="midnightblue" stroke="midnightblue" points="1153.96,-209.11 1156.49,-198.82 1148.1,-205.29 1153.96,-209.11"/>
</g>
<!-- Node46 -->
<g id="node46" class="node">
<title>Node46</title>
<g id="a_node46"><a xlink:title=" ">
<polygon fill="white" stroke="#bfbfbf" points="1387,-347.5 1387,-366.5 1451,-366.5 1451,-347.5 1387,-347.5"/>
<text text-anchor="middle" x="1419" y="-354.5" font-family="Helvetica,sans-Serif" font-size="10.00">G4Box.hh</text>
</a>
</g>
</g>
<!-- Node1&#45;&gt;Node46 -->
<g id="edge68" class="edge">
<title>Node1&#45;&gt;Node46</title>
<path fill="none" stroke="midnightblue" d="M952.01,-407.82C1051.88,-402.21 1221.67,-390.31 1376.66,-367.02"/>
<polygon fill="midnightblue" stroke="midnightblue" points="1377.48,-370.43 1386.84,-365.47 1376.43,-363.51 1377.48,-370.43"/>
</g>
<!-- Node3 -->
<g id="node3" class="node">
<title>Node3</title>
<g id="a_node3"><a xlink:href="_o_m_sim_detector_construction_8hh.html" target="_top" xlink:title=" ">
<polygon fill="white" stroke="black" points="783,-291.5 783,-310.5 953,-310.5 953,-291.5 783,-291.5"/>
<text text-anchor="middle" x="868" y="-298.5" font-family="Helvetica,sans-Serif" font-size="10.00">OMSimDetectorConstruction.hh</text>
</a>
</g>
</g>
<!-- Node2&#45;&gt;Node3 -->
<g id="edge2" class="edge">
<title>Node2&#45;&gt;Node3</title>
<path fill="none" stroke="midnightblue" d="M866.33,-347.08C866.59,-340.01 866.97,-329.86 867.3,-320.99"/>
<polygon fill="midnightblue" stroke="midnightblue" points="870.8,-320.87 867.68,-310.75 863.81,-320.61 870.8,-320.87"/>
</g>
<!-- Node4 -->
<g id="node4" class="node">
<title>Node4</title>
<g id="a_node4"><a xlink:href="_o_m_sim_optical_module_8hh.html" target="_top" xlink:title=" ">
<polygon fill="white" stroke="black" points="346.5,-235.5 346.5,-254.5 483.5,-254.5 483.5,-235.5 346.5,-235.5"/>
<text text-anchor="middle" x="415" y="-242.5" font-family="Helvetica,sans-Serif" font-size="10.00">OMSimOpticalModule.hh</text>
</a>
</g>
</g>
<!-- Node3&#45;&gt;Node4 -->
<g id="edge3" class="edge">
<title>Node3&#45;&gt;Node4</title>
<path fill="none" stroke="midnightblue" d="M796.22,-291.44C713.87,-281.63 579.26,-265.58 493.99,-255.42"/>
<polygon fill="midnightblue" stroke="midnightblue" points="494.19,-251.92 483.85,-254.21 493.36,-258.87 494.19,-251.92"/>
</g>
<!-- Node3&#45;&gt;Node25 -->
<g id="edge28" class="edge">
<title>Node3&#45;&gt;Node25</title>
<path fill="none" stroke="midnightblue" d="M882.78,-291.32C897.27,-282.82 919.57,-269.73 936.49,-259.8"/>
<polygon fill="midnightblue" stroke="midnightblue" points="938.4,-262.74 945.26,-254.65 934.86,-256.7 938.4,-262.74"/>
</g>
<!-- Node26 -->
<g id="node26" class="node">
<title>Node26</title>
<g id="a_node26"><a xlink:title=" ">
<polygon fill="white" stroke="#bfbfbf" points="733,-235.5 733,-254.5 911,-254.5 911,-235.5 733,-235.5"/>
<text text-anchor="middle" x="822" y="-242.5" font-family="Helvetica,sans-Serif" font-size="10.00">G4VUserDetectorConstruction.hh</text>
</a>
</g>
</g>
<!-- Node3&#45;&gt;Node26 -->
<g id="edge29" class="edge">
<title>Node3&#45;&gt;Node26</title>
<path fill="none" stroke="midnightblue" d="M860.4,-291.08C853.77,-283.3 843.98,-271.8 835.94,-262.37"/>
<polygon fill="midnightblue" stroke="midnightblue" points="838.6,-260.09 829.45,-254.75 833.27,-264.63 838.6,-260.09"/>
</g>
<!-- Node5 -->
<g id="node5" class="node">
<title>Node5</title>
<g id="a_node5"><a xlink:href="abc_detector_component_8hh.html" target="_top" xlink:title="Provides helper base class abcDetectorComponent for constructing and managing detector components in ...">
<polygon fill="white" stroke="black" points="239.5,-123.5 239.5,-142.5 386.5,-142.5 386.5,-123.5 239.5,-123.5"/>
<text text-anchor="middle" x="313" y="-130.5" font-family="Helvetica,sans-Serif" font-size="10.00">abcDetectorComponent.hh</text>
</a>
</g>
</g>
<!-- Node4&#45;&gt;Node5 -->
<g id="edge4" class="edge">
<title>Node4&#45;&gt;Node5</title>
<path fill="none" stroke="midnightblue" d="M416.58,-235.07C418.46,-221.59 419.97,-195.84 408,-179 396.76,-163.19 378.47,-152.74 360.93,-145.94"/>
<polygon fill="midnightblue" stroke="midnightblue" points="361.9,-142.57 351.31,-142.53 359.56,-149.17 361.9,-142.57"/>
</g>
<!-- Node4&#45;&gt;Node14 -->
<g id="edge13" class="edge">
<title>Node4&#45;&gt;Node14</title>
<path fill="none" stroke="midnightblue" d="M483.65,-236.75C580.39,-226.52 755.99,-207.97 854.34,-197.57"/>
<polygon fill="midnightblue" stroke="midnightblue" points="854.9,-201.03 864.48,-196.5 854.17,-194.07 854.9,-201.03"/>
</g>
<!-- Node22 -->
<g id="node22" class="node">
<title>Node22</title>
<g id="a_node22"><a xlink:href="_o_m_sim_p_m_t_construction_8hh.html" target="_top" xlink:title="Construction of the PMTs.">
<polygon fill="white" stroke="black" points="232.5,-179.5 232.5,-198.5 381.5,-198.5 381.5,-179.5 232.5,-179.5"/>
<text text-anchor="middle" x="307" y="-186.5" font-family="Helvetica,sans-Serif" font-size="10.00">OMSimPMTConstruction.hh</text>
</a>
</g>
</g>
<!-- Node4&#45;&gt;Node22 -->
<g id="edge22" class="edge">
<title>Node4&#45;&gt;Node22</title>
<path fill="none" stroke="midnightblue" d="M397.65,-235.32C380.33,-226.66 353.48,-213.24 333.5,-203.25"/>
<polygon fill="midnightblue" stroke="midnightblue" points="334.82,-200 324.31,-198.65 331.69,-206.26 334.82,-200"/>
</g>
<!-- Node6 -->
<g id="node6" class="node">
<title>Node6</title>
<g id="a_node6"><a xlink:href="_o_m_sim_input_data_8hh.html" target="_top" xlink:title="Definition of ParameterTable and InputDataManager.">
<polygon fill="white" stroke="black" points="529.5,-67.5 529.5,-86.5 644.5,-86.5 644.5,-67.5 529.5,-67.5"/>
<text text-anchor="middle" x="587" y="-74.5" font-family="Helvetica,sans-Serif" font-size="10.00">OMSimInputData.hh</text>
</a>
</g>
</g>
<!-- Node5&#45;&gt;Node6 -->
<g id="edge5" class="edge">
<title>Node5&#45;&gt;Node6</title>
<path fill="none" stroke="midnightblue" d="M356.42,-123.44C404.52,-113.96 482.09,-98.67 533.81,-88.48"/>
<polygon fill="midnightblue" stroke="midnightblue" points="534.65,-91.88 543.79,-86.52 533.3,-85.02 534.65,-91.88"/>
</g>
<!-- Node10 -->
<g id="node10" class="node">
<title>Node10</title>
<g id="a_node10"><a xlink:title=" ">
<polygon fill="white" stroke="#bfbfbf" points="4.5,-67.5 4.5,-86.5 111.5,-86.5 111.5,-67.5 4.5,-67.5"/>
<text text-anchor="middle" x="58" y="-74.5" font-family="Helvetica,sans-Serif" font-size="10.00">G4Transform3D.hh</text>
</a>
</g>
</g>
<!-- Node5&#45;&gt;Node10 -->
<g id="edge9" class="edge">
<title>Node5&#45;&gt;Node10</title>
<path fill="none" stroke="midnightblue" d="M272.59,-123.44C228.02,-114 156.23,-98.8 108.11,-88.61"/>
<polygon fill="midnightblue" stroke="midnightblue" points="108.72,-85.16 98.22,-86.52 107.27,-92.01 108.72,-85.16"/>
</g>
<!-- Node11 -->
<g id="node11" class="node">
<title>Node11</title>
<g id="a_node11"><a xlink:title=" ">
<polygon fill="white" stroke="#bfbfbf" points="130,-67.5 130,-86.5 238,-86.5 238,-67.5 130,-67.5"/>
<text text-anchor="middle" x="184" y="-74.5" font-family="Helvetica,sans-Serif" font-size="10.00">G4VisAttributes.hh</text>
</a>
</g>
</g>
<!-- Node5&#45;&gt;Node11 -->
<g id="edge10" class="edge">
<title>Node5&#45;&gt;Node11</title>
<path fill="none" stroke="midnightblue" d="M292.56,-123.44C271.33,-114.56 237.9,-100.56 213.75,-90.45"/>
<polygon fill="midnightblue" stroke="midnightblue" points="214.92,-87.15 204.34,-86.52 212.22,-93.61 214.92,-87.15"/>
</g>
<!-- Node12 -->
<g id="node12" class="node">
<title>Node12</title>
<g id="a_node12"><a xlink:title=" ">
<polygon fill="white" stroke="#bfbfbf" points="256.5,-67.5 256.5,-86.5 381.5,-86.5 381.5,-67.5 256.5,-67.5"/>
<text text-anchor="middle" x="319" y="-74.5" font-family="Helvetica,sans-Serif" font-size="10.00">G4SubtractionSolid.hh</text>
</a>
</g>
</g>
<!-- Node5&#45;&gt;Node12 -->
<g id="edge11" class="edge">
<title>Node5&#45;&gt;Node12</title>
<path fill="none" stroke="midnightblue" d="M313.99,-123.08C314.79,-115.93 315.93,-105.64 316.92,-96.69"/>
<polygon fill="midnightblue" stroke="midnightblue" points="320.4,-97.08 318.03,-86.75 313.44,-96.3 320.4,-97.08"/>
</g>
<!-- Node13 -->
<g id="node13" class="node">
<title>Node13</title>
<g id="a_node13"><a xlink:title=" ">
<polygon fill="white" stroke="#bfbfbf" points="400,-67.5 400,-86.5 510,-86.5 510,-67.5 400,-67.5"/>
<text text-anchor="middle" x="455" y="-74.5" font-family="Helvetica,sans-Serif" font-size="10.00">G4PVPlacement.hh</text>
</a>
</g>
</g>
<!-- Node5&#45;&gt;Node13 -->
<g id="edge12" class="edge">
<title>Node5&#45;&gt;Node13</title>
<path fill="none" stroke="midnightblue" d="M335.5,-123.44C359.08,-114.48 396.32,-100.31 422.96,-90.18"/>
<polygon fill="midnightblue" stroke="midnightblue" points="424.5,-93.34 432.6,-86.52 422.01,-86.8 424.5,-93.34"/>
</g>
<!-- Node7 -->
<g id="node7" class="node">
<title>Node7</title>
<g id="a_node7"><a xlink:title=" ">
<polygon fill="white" stroke="#bfbfbf" points="1002.5,-6 1002.5,-25 1145.5,-25 1145.5,-6 1002.5,-6"/>
<text text-anchor="middle" x="1074" y="-13" font-family="Helvetica,sans-Serif" font-size="10.00">G4OpBoundaryProcess.hh</text>
</a>
</g>
</g>
<!-- Node6&#45;&gt;Node7 -->
<g id="edge6" class="edge">
<title>Node6&#45;&gt;Node7</title>
<path fill="none" stroke="midnightblue" d="M644.78,-68.94C731.53,-58.34 895.71,-38.28 993.95,-26.28"/>
<polygon fill="midnightblue" stroke="midnightblue" points="994.63,-29.72 1004.13,-25.04 993.78,-22.78 994.63,-29.72"/>
</g>
<!-- Node8 -->
<g id="node8" class="node">
<title>Node8</title>
<g id="a_node8"><a xlink:title=" ">
<polygon fill="white" stroke="#bfbfbf" points="614.5,-6 614.5,-25 733.5,-25 733.5,-6 614.5,-6"/>
<text text-anchor="middle" x="674" y="-13" font-family="Helvetica,sans-Serif" font-size="10.00">G4SystemOfUnits.hh</text>
</a>
</g>
</g>
<!-- Node6&#45;&gt;Node8 -->
<g id="edge7" class="edge">
<title>Node6&#45;&gt;Node8</title>
<path fill="none" stroke="midnightblue" d="M599.46,-67.48C613.42,-57.93 636.26,-42.31 652.99,-30.87"/>
<polygon fill="midnightblue" stroke="midnightblue" points="655.28,-33.54 661.56,-25.01 651.33,-27.77 655.28,-33.54"/>
</g>
<!-- Node9 -->
<g id="node9" class="node">
<title>Node9</title>
<g id="a_node9"><a xlink:title=" ">
<polygon fill="white" stroke="#bfbfbf" points="483.5,-0.5 483.5,-30.5 596.5,-30.5 596.5,-0.5 483.5,-0.5"/>
<text text-anchor="start" x="491.5" y="-18.5" font-family="Helvetica,sans-Serif" font-size="10.00">boost/property_tree</text>
<text text-anchor="middle" x="540" y="-7.5" font-family="Helvetica,sans-Serif" font-size="10.00">/json_parser.hpp</text>
</a>
</g>
</g>
<!-- Node6&#45;&gt;Node9 -->
<g id="edge8" class="edge">
<title>Node6&#45;&gt;Node9</title>
<path fill="none" stroke="midnightblue" d="M580.27,-67.48C574.32,-59.94 565.38,-48.63 557.43,-38.57"/>
<polygon fill="midnightblue" stroke="midnightblue" points="560.02,-36.2 551.08,-30.52 554.53,-40.54 560.02,-36.2"/>
</g>
<!-- Node15 -->
<g id="node15" class="node">
<title>Node15</title>
<g id="a_node15"><a xlink:href="_o_m_sim_p_m_t_response_8hh.html" target="_top" xlink:title="Provides simulation for PMT response. This class is responsible for transforming hits on photocathode...">
<polygon fill="white" stroke="black" points="745.5,-123.5 745.5,-142.5 880.5,-142.5 880.5,-123.5 745.5,-123.5"/>
<text text-anchor="middle" x="813" y="-130.5" font-family="Helvetica,sans-Serif" font-size="10.00">OMSimPMTResponse.hh</text>
</a>
</g>
</g>
<!-- Node14&#45;&gt;Node15 -->
<g id="edge14" class="edge">
<title>Node14&#45;&gt;Node15</title>
<path fill="none" stroke="midnightblue" d="M908.09,-179.44C889.75,-170.68 860.99,-156.94 839.91,-146.86"/>
<polygon fill="midnightblue" stroke="midnightblue" points="841.35,-143.67 830.82,-142.52 838.33,-149.99 841.35,-143.67"/>
</g>
<!-- Node20 -->
<g id="node20" class="node">
<title>Node20</title>
<g id="a_node20"><a xlink:title=" ">
<polygon fill="white" stroke="#bfbfbf" points="971.5,-123.5 971.5,-142.5 1074.5,-142.5 1074.5,-123.5 971.5,-123.5"/>
<text text-anchor="middle" x="1023" y="-130.5" font-family="Helvetica,sans-Serif" font-size="10.00">G4ThreeVector.hh</text>
</a>
</g>
</g>
<!-- Node14&#45;&gt;Node20 -->
<g id="edge20" class="edge">
<title>Node14&#45;&gt;Node20</title>
<path fill="none" stroke="midnightblue" d="M941.58,-179.32C957,-170.74 980.81,-157.49 998.71,-147.52"/>
<polygon fill="midnightblue" stroke="midnightblue" points="1000.42,-150.58 1007.45,-142.65 997.01,-144.46 1000.42,-150.58"/>
</g>
<!-- Node21 -->
<g id="node21" class="node">
<title>Node21</title>
<g id="a_node21"><a xlink:title=" ">
<polygon fill="white" stroke="#bfbfbf" points="898.5,-123.5 898.5,-142.5 953.5,-142.5 953.5,-123.5 898.5,-123.5"/>
<text text-anchor="middle" x="926" y="-130.5" font-family="Helvetica,sans-Serif" font-size="10.00">fstream</text>
</a>
</g>
</g>
<!-- Node14&#45;&gt;Node21 -->
<g id="edge21" class="edge">
<title>Node14&#45;&gt;Node21</title>
<path fill="none" stroke="midnightblue" d="M926,-179.08C926,-172.01 926,-161.86 926,-152.99"/>
<polygon fill="midnightblue" stroke="midnightblue" points="929.5,-152.75 926,-142.75 922.5,-152.75 929.5,-152.75"/>
</g>
<!-- Node15&#45;&gt;Node8 -->
<g id="edge15" class="edge">
<title>Node15&#45;&gt;Node8</title>
<path fill="none" stroke="midnightblue" d="M760.16,-123.48C736.62,-117.13 710.36,-106.1 693,-87 680.1,-72.81 675.81,-50.77 674.46,-35.11"/>
<polygon fill="midnightblue" stroke="midnightblue" points="677.95,-34.84 673.92,-25.05 670.96,-35.22 677.95,-34.84"/>
</g>
<!-- Node16 -->
<g id="node16" class="node">
<title>Node16</title>
<g id="a_node16"><a xlink:title=" ">
<polygon fill="white" stroke="#bfbfbf" points="702.5,-67.5 702.5,-86.5 775.5,-86.5 775.5,-67.5 702.5,-67.5"/>
<text text-anchor="middle" x="739" y="-74.5" font-family="Helvetica,sans-Serif" font-size="10.00">G4Types.hh</text>
</a>
</g>
</g>
<!-- Node15&#45;&gt;Node16 -->
<g id="edge16" class="edge">
<title>Node15&#45;&gt;Node16</title>
<path fill="none" stroke="midnightblue" d="M801.11,-123.32C789.85,-115.11 772.71,-102.6 759.29,-92.81"/>
<polygon fill="midnightblue" stroke="midnightblue" points="761.25,-89.9 751.11,-86.83 757.12,-95.56 761.25,-89.9"/>
</g>
<!-- Node17 -->
<g id="node17" class="node">
<title>Node17</title>
<g id="a_node17"><a xlink:title=" ">
<polygon fill="white" stroke="#bfbfbf" points="794,-67.5 794,-86.5 832,-86.5 832,-67.5 794,-67.5"/>
<text text-anchor="middle" x="813" y="-74.5" font-family="Helvetica,sans-Serif" font-size="10.00">map</text>
</a>
</g>
</g>
<!-- Node15&#45;&gt;Node17 -->
<g id="edge17" class="edge">
<title>Node15&#45;&gt;Node17</title>
<path fill="none" stroke="midnightblue" d="M813,-123.08C813,-116.01 813,-105.86 813,-96.99"/>
<polygon fill="midnightblue" stroke="midnightblue" points="816.5,-96.75 813,-86.75 809.5,-96.75 816.5,-96.75"/>
</g>
<!-- Node18 -->
<g id="node18" class="node">
<title>Node18</title>
<g id="a_node18"><a xlink:title=" ">
<polygon fill="white" stroke="#bfbfbf" points="850.5,-67.5 850.5,-86.5 911.5,-86.5 911.5,-67.5 850.5,-67.5"/>
<text text-anchor="middle" x="881" y="-74.5" font-family="Helvetica,sans-Serif" font-size="10.00">TGraph.h</text>
</a>
</g>
</g>
<!-- Node15&#45;&gt;Node18 -->
<g id="edge18" class="edge">
<title>Node15&#45;&gt;Node18</title>
<path fill="none" stroke="midnightblue" d="M823.93,-123.32C834.17,-115.18 849.72,-102.84 862,-93.09"/>
<polygon fill="midnightblue" stroke="midnightblue" points="864.22,-95.79 869.88,-86.83 859.87,-90.31 864.22,-95.79"/>
</g>
<!-- Node19 -->
<g id="node19" class="node">
<title>Node19</title>
<g id="a_node19"><a xlink:title=" ">
<polygon fill="white" stroke="#bfbfbf" points="929.5,-67.5 929.5,-86.5 982.5,-86.5 982.5,-67.5 929.5,-67.5"/>
<text text-anchor="middle" x="956" y="-74.5" font-family="Helvetica,sans-Serif" font-size="10.00">TH2D.h</text>
</a>
</g>
</g>
<!-- Node15&#45;&gt;Node19 -->
<g id="edge19" class="edge">
<title>Node15&#45;&gt;Node19</title>
<path fill="none" stroke="midnightblue" d="M835.66,-123.44C859.4,-114.48 896.91,-100.31 923.74,-90.18"/>
<polygon fill="midnightblue" stroke="midnightblue" points="925.33,-93.32 933.45,-86.52 922.86,-86.77 925.33,-93.32"/>
</g>
<!-- Node22&#45;&gt;Node5 -->
<g id="edge23" class="edge">
<title>Node22&#45;&gt;Node5</title>
<path fill="none" stroke="midnightblue" d="M307.99,-179.08C308.79,-171.93 309.93,-161.64 310.92,-152.69"/>
<polygon fill="midnightblue" stroke="midnightblue" points="314.4,-153.08 312.03,-142.75 307.44,-152.3 314.4,-153.08"/>
</g>
<!-- Node22&#45;&gt;Node15 -->
<g id="edge25" class="edge">
<title>Node22&#45;&gt;Node15</title>
<path fill="none" stroke="midnightblue" d="M381.66,-180.03C476.45,-169.92 639.19,-152.55 735.37,-142.28"/>
<polygon fill="midnightblue" stroke="midnightblue" points="735.75,-145.76 745.32,-141.22 735.01,-138.8 735.75,-145.76"/>
</g>
<!-- Node22&#45;&gt;Node22 -->
<g id="edge24" class="edge">
<title>Node22&#45;&gt;Node22</title>
<path fill="none" stroke="midnightblue" d="M346.45,-198.53C373.26,-201.31 399.5,-198.13 399.5,-189 399.5,-181.01 379.41,-177.58 356.43,-178.71"/>
<polygon fill="midnightblue" stroke="midnightblue" points="356.15,-175.22 346.45,-179.47 356.69,-182.2 356.15,-175.22"/>
</g>
<!-- Node23 -->
<g id="node23" class="node">
<title>Node23</title>
<g id="a_node23"><a xlink:title=" ">
<polygon fill="white" stroke="#bfbfbf" points="123,-123.5 123,-142.5 221,-142.5 221,-123.5 123,-123.5"/>
<text text-anchor="middle" x="172" y="-130.5" font-family="Helvetica,sans-Serif" font-size="10.00">G4UnionSolid.hh</text>
</a>
</g>
</g>
<!-- Node22&#45;&gt;Node23 -->
<g id="edge26" class="edge">
<title>Node22&#45;&gt;Node23</title>
<path fill="none" stroke="midnightblue" d="M285.61,-179.44C263.29,-170.52 228.1,-156.44 202.79,-146.32"/>
<polygon fill="midnightblue" stroke="midnightblue" points="203.88,-142.98 193.29,-142.52 201.28,-149.48 203.88,-142.98"/>
</g>
<!-- Node24 -->
<g id="node24" class="node">
<title>Node24</title>
<g id="a_node24"><a xlink:title=" ">
<polygon fill="white" stroke="#bfbfbf" points="404.5,-123.5 404.5,-142.5 471.5,-142.5 471.5,-123.5 404.5,-123.5"/>
<text text-anchor="middle" x="438" y="-130.5" font-family="Helvetica,sans-Serif" font-size="10.00">G4Tubs.hh</text>
</a>
</g>
</g>
<!-- Node22&#45;&gt;Node24 -->
<g id="edge27" class="edge">
<title>Node22&#45;&gt;Node24</title>
<path fill="none" stroke="midnightblue" d="M327.76,-179.44C349.32,-170.56 383.26,-156.56 407.79,-146.45"/>
<polygon fill="midnightblue" stroke="midnightblue" points="409.43,-149.56 417.34,-142.52 406.76,-143.09 409.43,-149.56"/>
</g>
<!-- Node27&#45;&gt;Node4 -->
<g id="edge32" class="edge">
<title>Node27&#45;&gt;Node4</title>
<path fill="none" stroke="midnightblue" d="M301.39,-291.44C323.71,-282.52 358.9,-268.44 384.21,-258.32"/>
<polygon fill="midnightblue" stroke="midnightblue" points="385.72,-261.48 393.71,-254.52 383.12,-254.98 385.72,-261.48"/>
</g>
<!-- Node27&#45;&gt;Node22 -->
<g id="edge31" class="edge">
<title>Node27&#45;&gt;Node22</title>
<path fill="none" stroke="midnightblue" d="M282.12,-291.37C286.48,-273.62 296.53,-232.67 302.44,-208.6"/>
<polygon fill="midnightblue" stroke="midnightblue" points="305.91,-209.14 304.89,-198.59 299.11,-207.47 305.91,-209.14"/>
</g>
<!-- Node28&#45;&gt;Node4 -->
<g id="edge35" class="edge">
<title>Node28&#45;&gt;Node4</title>
<path fill="none" stroke="midnightblue" d="M399.97,-291.08C402.38,-283.85 405.86,-273.41 408.87,-264.4"/>
<polygon fill="midnightblue" stroke="midnightblue" points="412.24,-265.34 412.08,-254.75 405.6,-263.13 412.24,-265.34"/>
</g>
<!-- Node28&#45;&gt;Node22 -->
<g id="edge34" class="edge">
<title>Node28&#45;&gt;Node22</title>
<path fill="none" stroke="midnightblue" d="M381.5,-291.37C368.26,-283.37 349.44,-270.39 337,-255 325.78,-241.12 317.71,-222.36 312.78,-208.56"/>
<polygon fill="midnightblue" stroke="midnightblue" points="315.99,-207.12 309.51,-198.74 309.35,-209.34 315.99,-207.12"/>
</g>
<!-- Node29&#45;&gt;Node4 -->
<g id="edge38" class="edge">
<title>Node29&#45;&gt;Node4</title>
<path fill="none" stroke="midnightblue" d="M568.15,-347.43C550.16,-338.98 522.55,-325.3 500,-311 475.68,-295.58 449.66,-275.01 432.9,-261.17"/>
<polygon fill="midnightblue" stroke="midnightblue" points="434.96,-258.34 425.04,-254.62 430.48,-263.71 434.96,-258.34"/>
</g>
<!-- Node29&#45;&gt;Node22 -->
<g id="edge37" class="edge">
<title>Node29&#45;&gt;Node22</title>
<path fill="none" stroke="midnightblue" d="M573.78,-347.19C562.02,-338.88 544.9,-325.55 533,-311 508.71,-281.29 522.38,-258.45 492,-235 463.42,-212.94 425.55,-201.51 391.53,-195.66"/>
<polygon fill="midnightblue" stroke="midnightblue" points="392,-192.19 381.57,-194.09 390.9,-199.11 392,-192.19"/>
</g>
<!-- Node29&#45;&gt;Node30 -->
<g id="edge39" class="edge">
<title>Node29&#45;&gt;Node30</title>
<path fill="none" stroke="midnightblue" d="M606.01,-347.44C625.59,-338.64 656.31,-324.81 678.73,-314.72"/>
<polygon fill="midnightblue" stroke="midnightblue" points="680.39,-317.81 688.07,-310.52 677.52,-311.43 680.39,-317.81"/>
</g>
<!-- Node31 -->
<g id="node31" class="node">
<title>Node31</title>
<g id="a_node31"><a xlink:title=" ">
<polygon fill="white" stroke="#bfbfbf" points="542.5,-291.5 542.5,-310.5 631.5,-310.5 631.5,-291.5 542.5,-291.5"/>
<text text-anchor="middle" x="587" y="-298.5" font-family="Helvetica,sans-Serif" font-size="10.00">G4Polycone.hh</text>
</a>
</g>
</g>
<!-- Node29&#45;&gt;Node31 -->
<g id="edge40" class="edge">
<title>Node29&#45;&gt;Node31</title>
<path fill="none" stroke="midnightblue" d="M587,-347.08C587,-340.01 587,-329.86 587,-320.99"/>
<polygon fill="midnightblue" stroke="midnightblue" points="590.5,-320.75 587,-310.75 583.5,-320.75 590.5,-320.75"/>
</g>
<!-- Node32&#45;&gt;Node4 -->
<g id="edge43" class="edge">
<title>Node32&#45;&gt;Node4</title>
<path fill="none" stroke="midnightblue" d="M205.45,-291.44C248.89,-282.02 318.79,-266.87 365.78,-256.68"/>
<polygon fill="midnightblue" stroke="midnightblue" points="366.7,-260.06 375.73,-254.52 365.22,-253.22 366.7,-260.06"/>
</g>
<!-- Node32&#45;&gt;Node22 -->
<g id="edge42" class="edge">
<title>Node32&#45;&gt;Node22</title>
<path fill="none" stroke="midnightblue" d="M177.06,-291.37C201.05,-272.65 258.1,-228.15 287.99,-204.83"/>
<polygon fill="midnightblue" stroke="midnightblue" points="290.26,-207.5 295.99,-198.59 285.95,-201.98 290.26,-207.5"/>
</g>
<!-- Node33&#45;&gt;Node4 -->
<g id="edge50" class="edge">
<title>Node33&#45;&gt;Node4</title>
<path fill="none" stroke="midnightblue" d="M100.21,-292.32C103.18,-291.87 106.13,-291.43 109,-291 190.49,-278.79 284.24,-265.05 346.27,-256"/>
<polygon fill="midnightblue" stroke="midnightblue" points="346.93,-259.44 356.32,-254.53 345.92,-252.51 346.93,-259.44"/>
</g>
<!-- Node33&#45;&gt;Node22 -->
<g id="edge49" class="edge">
<title>Node33&#45;&gt;Node22</title>
<path fill="none" stroke="midnightblue" d="M70.17,-291.37C115.3,-272.05 224.62,-225.26 277.45,-202.65"/>
<polygon fill="midnightblue" stroke="midnightblue" points="279.11,-205.74 286.93,-198.59 276.36,-199.31 279.11,-205.74"/>
</g>
<!-- Node34 -->
<g id="node34" class="node">
<title>Node34</title>
<g id="a_node34"><a xlink:href="_o_m_sim_m_d_o_m_flasher_8hh.html" target="_top" xlink:title="Defines the mDOMFlasher class for simulating the 10 flashers in an mDOM optical module.">
<polygon fill="white" stroke="black" points="38.5,-179.5 38.5,-198.5 173.5,-198.5 173.5,-179.5 38.5,-179.5"/>
<text text-anchor="middle" x="106" y="-186.5" font-family="Helvetica,sans-Serif" font-size="10.00">OMSimMDOMFlasher.hh</text>
</a>
</g>
</g>
<!-- Node33&#45;&gt;Node34 -->
<g id="edge45" class="edge">
<title>Node33&#45;&gt;Node34</title>
<path fill="none" stroke="midnightblue" d="M54.39,-291.37C63.55,-273.38 84.85,-231.55 97.03,-207.63"/>
<polygon fill="midnightblue" stroke="midnightblue" points="100.21,-209.09 101.63,-198.59 93.97,-205.92 100.21,-209.09"/>
</g>
<!-- Node34&#45;&gt;Node5 -->
<g id="edge46" class="edge">
<title>Node34&#45;&gt;Node5</title>
<path fill="none" stroke="midnightblue" d="M138.8,-179.44C174.38,-170.16 231.31,-155.31 270.35,-145.13"/>
<polygon fill="midnightblue" stroke="midnightblue" points="271.56,-148.43 280.35,-142.52 269.79,-141.65 271.56,-148.43"/>
</g>
<!-- Node34&#45;&gt;Node23 -->
<g id="edge47" class="edge">
<title>Node34&#45;&gt;Node23</title>
<path fill="none" stroke="midnightblue" d="M116.6,-179.32C126.46,-171.26 141.35,-159.08 153.22,-149.37"/>
<polygon fill="midnightblue" stroke="midnightblue" points="155.68,-151.88 161.2,-142.83 151.25,-146.46 155.68,-151.88"/>
</g>
<!-- Node35 -->
<g id="node35" class="node">
<title>Node35</title>
<g id="a_node35"><a xlink:title=" ">
<polygon fill="white" stroke="#bfbfbf" points="13,-123.5 13,-142.5 105,-142.5 105,-123.5 13,-123.5"/>
<text text-anchor="middle" x="59" y="-130.5" font-family="Helvetica,sans-Serif" font-size="10.00">G4Navigator.hh</text>
</a>
</g>
</g>
<!-- Node34&#45;&gt;Node35 -->
<g id="edge48" class="edge">
<title>Node34&#45;&gt;Node35</title>
<path fill="none" stroke="midnightblue" d="M98.24,-179.08C91.46,-171.3 81.46,-159.8 73.24,-150.37"/>
<polygon fill="midnightblue" stroke="midnightblue" points="75.82,-148 66.62,-142.75 70.54,-152.59 75.82,-148"/>
</g>
<!-- Node36&#45;&gt;Node21 -->
<g id="edge55" class="edge">
<title>Node36&#45;&gt;Node21</title>
<path fill="none" stroke="midnightblue" d="M1156.06,-347.45C1145.08,-338.69 1127.83,-324.48 1114,-311 1057.65,-256.07 1055.86,-230.07 996,-179 982.07,-167.11 964.77,-155.97 950.86,-147.74"/>
<polygon fill="midnightblue" stroke="midnightblue" points="952.26,-144.51 941.85,-142.54 948.76,-150.57 952.26,-144.51"/>
</g>
<!-- Node37 -->
<g id="node37" class="node">
<title>Node37</title>
<g id="a_node37"><a xlink:href="_o_m_sim_logger_8hh.html" target="_top" xlink:title=" ">
<polygon fill="white" stroke="black" points="1311.5,-291.5 1311.5,-310.5 1410.5,-310.5 1410.5,-291.5 1311.5,-291.5"/>
<text text-anchor="middle" x="1361" y="-298.5" font-family="Helvetica,sans-Serif" font-size="10.00">OMSimLogger.hh</text>
</a>
</g>
</g>
<!-- Node36&#45;&gt;Node37 -->
<g id="edge52" class="edge">
<title>Node36&#45;&gt;Node37</title>
<path fill="none" stroke="midnightblue" d="M1197.74,-347.44C1230.94,-338.2 1283.99,-323.44 1320.56,-313.26"/>
<polygon fill="midnightblue" stroke="midnightblue" points="1321.71,-316.57 1330.4,-310.52 1319.83,-309.83 1321.71,-316.57"/>
</g>
<!-- Node40 -->
<g id="node40" class="node">
<title>Node40</title>
<g id="a_node40"><a xlink:title=" ">
<polygon fill="white" stroke="#bfbfbf" points="1123,-291.5 1123,-310.5 1207,-310.5 1207,-291.5 1123,-291.5"/>
<text text-anchor="middle" x="1165" y="-298.5" font-family="Helvetica,sans-Serif" font-size="10.00">boost/any.hpp</text>
</a>
</g>
</g>
<!-- Node36&#45;&gt;Node40 -->
<g id="edge56" class="edge">
<title>Node36&#45;&gt;Node40</title>
<path fill="none" stroke="midnightblue" d="M1166.67,-347.08C1166.41,-340.01 1166.03,-329.86 1165.7,-320.99"/>
<polygon fill="midnightblue" stroke="midnightblue" points="1169.19,-320.61 1165.32,-310.75 1162.2,-320.87 1169.19,-320.61"/>
</g>
<!-- Node41 -->
<g id="node41" class="node">
<title>Node41</title>
<g id="a_node41"><a xlink:title=" ">
<polygon fill="white" stroke="#bfbfbf" points="1225,-291.5 1225,-310.5 1293,-310.5 1293,-291.5 1225,-291.5"/>
<text text-anchor="middle" x="1259" y="-298.5" font-family="Helvetica,sans-Serif" font-size="10.00">sys/time.h</text>
</a>
</g>
</g>
<!-- Node36&#45;&gt;Node41 -->
<g id="edge57" class="edge">
<title>Node36&#45;&gt;Node41</title>
<path fill="none" stroke="midnightblue" d="M1181.78,-347.32C1196.27,-338.82 1218.57,-325.73 1235.49,-315.8"/>
<polygon fill="midnightblue" stroke="midnightblue" points="1237.4,-318.74 1244.26,-310.65 1233.86,-312.7 1237.4,-318.74"/>
</g>
<!-- Node38 -->
<g id="node38" class="node">
<title>Node38</title>
<g id="a_node38"><a xlink:title=" ">
<polygon fill="white" stroke="#bfbfbf" points="1302,-235.5 1302,-254.5 1352,-254.5 1352,-235.5 1302,-235.5"/>
<text text-anchor="middle" x="1327" y="-242.5" font-family="Helvetica,sans-Serif" font-size="10.00">stdio.h</text>
</a>
</g>
</g>
<!-- Node37&#45;&gt;Node38 -->
<g id="edge53" class="edge">
<title>Node37&#45;&gt;Node38</title>
<path fill="none" stroke="midnightblue" d="M1355.39,-291.08C1350.63,-283.53 1343.68,-272.49 1337.85,-263.23"/>
<polygon fill="midnightblue" stroke="midnightblue" points="1340.8,-261.35 1332.51,-254.75 1334.88,-265.08 1340.8,-261.35"/>
</g>
<!-- Node39 -->
<g id="node39" class="node">
<title>Node39</title>
<g id="a_node39"><a xlink:title=" ">
<polygon fill="white" stroke="#bfbfbf" points="1370,-235.5 1370,-254.5 1418,-254.5 1418,-235.5 1370,-235.5"/>
<text text-anchor="middle" x="1394" y="-242.5" font-family="Helvetica,sans-Serif" font-size="10.00">time.h</text>
</a>
</g>
</g>
<!-- Node37&#45;&gt;Node39 -->
<g id="edge54" class="edge">
<title>Node37&#45;&gt;Node39</title>
<path fill="none" stroke="midnightblue" d="M1366.45,-291.08C1371.01,-283.61 1377.67,-272.72 1383.29,-263.52"/>
<polygon fill="midnightblue" stroke="midnightblue" points="1386.42,-265.11 1388.65,-254.75 1380.45,-261.46 1386.42,-265.11"/>
</g>
<!-- Node43&#45;&gt;Node7 -->
<g id="edge65" class="edge">
<title>Node43&#45;&gt;Node7</title>
<path fill="none" stroke="midnightblue" d="M1238.6,-179.61C1282.99,-171.26 1326.43,-154.86 1306,-123 1269.96,-66.81 1196.02,-39.87 1141.25,-27.22"/>
<polygon fill="midnightblue" stroke="midnightblue" points="1141.78,-23.75 1131.26,-25.02 1140.27,-30.58 1141.78,-23.75"/>
</g>
<!-- Node43&#45;&gt;Node15 -->
<g id="edge64" class="edge">
<title>Node43&#45;&gt;Node15</title>
<path fill="none" stroke="midnightblue" d="M1106.7,-179.44C1044.67,-169.85 944.14,-154.29 878.3,-144.1"/>
<polygon fill="midnightblue" stroke="midnightblue" points="878.46,-140.59 868.04,-142.52 877.39,-147.5 878.46,-140.59"/>
</g>
<!-- Node43&#45;&gt;Node20 -->
<g id="edge63" class="edge">
<title>Node43&#45;&gt;Node20</title>
<path fill="none" stroke="midnightblue" d="M1139.98,-179.44C1116.9,-170.48 1080.44,-156.31 1054.36,-146.18"/>
<polygon fill="midnightblue" stroke="midnightblue" points="1055.51,-142.88 1044.92,-142.52 1052.98,-149.4 1055.51,-142.88"/>
</g>
<!-- Node44 -->
<g id="node44" class="node">
<title>Node44</title>
<g id="a_node44"><a xlink:title=" ">
<polygon fill="white" stroke="#bfbfbf" points="1093,-123.5 1093,-142.5 1231,-142.5 1231,-123.5 1093,-123.5"/>
<text text-anchor="middle" x="1162" y="-130.5" font-family="Helvetica,sans-Serif" font-size="10.00">G4VSensitiveDetector.hh</text>
</a>
</g>
</g>
<!-- Node43&#45;&gt;Node44 -->
<g id="edge62" class="edge">
<title>Node43&#45;&gt;Node44</title>
<path fill="none" stroke="midnightblue" d="M1162,-179.08C1162,-172.01 1162,-161.86 1162,-152.99"/>
<polygon fill="midnightblue" stroke="midnightblue" points="1165.5,-152.75 1162,-142.75 1158.5,-152.75 1165.5,-152.75"/>
</g>
<!-- Node45 -->
<g id="node45" class="node">
<title>Node45</title>
<g id="a_node45"><a xlink:title=" ">
<polygon fill="white" stroke="#bfbfbf" points="1249.5,-123.5 1249.5,-142.5 1296.5,-142.5 1296.5,-123.5 1249.5,-123.5"/>
<text text-anchor="middle" x="1273" y="-130.5" font-family="Helvetica,sans-Serif" font-size="10.00">vector</text>
</a>
</g>
</g>
<!-- Node43&#45;&gt;Node45 -->
<g id="edge66" class="edge">
<title>Node43&#45;&gt;Node45</title>
<path fill="none" stroke="midnightblue" d="M1179.83,-179.32C1197.72,-170.62 1225.48,-157.12 1246.05,-147.11"/>
<polygon fill="midnightblue" stroke="midnightblue" points="1247.75,-150.18 1255.21,-142.65 1244.69,-143.88 1247.75,-150.18"/>
</g>
</g>
</svg>
