<?xml version="1.0" encoding="UTF-8" standalone="no"?>
<!DOCTYPE svg PUBLIC "-//W3C//DTD SVG 1.1//EN"
 "http://www.w3.org/Graphics/SVG/1.1/DTD/svg11.dtd">
<!-- Generated by graphviz version 2.43.0 (0)
 -->
<!-- Title: OMSimSensitiveDetector.hh Pages: 1 -->
<svg width="845pt" height="84pt"
 viewBox="0.00 0.00 844.50 84.00" xmlns="http://www.w3.org/2000/svg" xmlns:xlink="http://www.w3.org/1999/xlink">
<g id="graph0" class="graph" transform="scale(1 1) rotate(0) translate(4 80)">
<title>OMSimSensitiveDetector.hh</title>
<polygon fill="white" stroke="transparent" points="-4,4 -4,-80 840.5,-80 840.5,4 -4,4"/>
<!-- Node1 -->
<g id="node1" class="node">
<title>Node1</title>
<g id="a_node1"><a xlink:title=" ">
<polygon fill="#bfbfbf" stroke="black" points="345.5,-56.5 345.5,-75.5 498.5,-75.5 498.5,-56.5 345.5,-56.5"/>
<text text-anchor="middle" x="422" y="-63.5" font-family="Helvetica,sans-Serif" font-size="10.00">OMSimSensitiveDetector.hh</text>
</a>
</g>
</g>
<!-- Node2 -->
<g id="node2" class="node">
<title>Node2</title>
<g id="a_node2"><a xlink:href="_o_m_sim_sensitive_detector_8cc.html" target="_top" xlink:title=" ">
<polygon fill="white" stroke="black" points="0,-0.5 0,-19.5 152,-19.5 152,-0.5 0,-0.5"/>
<text text-anchor="middle" x="76" y="-7.5" font-family="Helvetica,sans-Serif" font-size="10.00">OMSimSensitiveDetector.cc</text>
</a>
</g>
</g>
<!-- Node1&#45;&gt;Node2 -->
<g id="edge1" class="edge">
<title>Node1&#45;&gt;Node2</title>
<path fill="none" stroke="midnightblue" d="M356.99,-54.85C291.62,-44.65 191.96,-29.1 130.57,-19.52"/>
<polygon fill="midnightblue" stroke="midnightblue" points="356.76,-58.36 367.18,-56.44 357.83,-51.44 356.76,-58.36"/>
</g>
<!-- Node3 -->
<g id="node3" class="node">
<title>Node3</title>
<g id="a_node3"><a xlink:href="_o_m_sim_p_m_t_construction_8cc.html" target="_top" xlink:title=" ">
<polygon fill="white" stroke="black" points="170.5,-0.5 170.5,-19.5 317.5,-19.5 317.5,-0.5 170.5,-0.5"/>
<text text-anchor="middle" x="244" y="-7.5" font-family="Helvetica,sans-Serif" font-size="10.00">OMSimPMTConstruction.cc</text>
</a>
</g>
</g>
<!-- Node1&#45;&gt;Node3 -->
<g id="edge2" class="edge">
<title>Node1&#45;&gt;Node3</title>
<path fill="none" stroke="midnightblue" d="M383.88,-53.44C350.32,-43.26 302.23,-28.66 272.07,-19.52"/>
<polygon fill="midnightblue" stroke="midnightblue" points="383.21,-56.89 393.8,-56.44 385.24,-50.19 383.21,-56.89"/>
</g>
<!-- Node4 -->
<g id="node4" class="node">
<title>Node4</title>
<g id="a_node4"><a xlink:href="_o_m_sim_effective_area_detector_8cc.html" target="_top" xlink:title=" ">
<polygon fill="white" stroke="black" points="336,-0.5 336,-19.5 508,-19.5 508,-0.5 336,-0.5"/>
<text text-anchor="middle" x="422" y="-7.5" font-family="Helvetica,sans-Serif" font-size="10.00">OMSimEffectiveAreaDetector.cc</text>
</a>
</g>
</g>
<!-- Node1&#45;&gt;Node4 -->
<g id="edge3" class="edge">
<title>Node1&#45;&gt;Node4</title>
<path fill="none" stroke="midnightblue" d="M422,-45.8C422,-36.91 422,-26.78 422,-19.75"/>
<polygon fill="midnightblue" stroke="midnightblue" points="418.5,-46.08 422,-56.08 425.5,-46.08 418.5,-46.08"/>
</g>
<!-- Node5 -->
<g id="node5" class="node">
<title>Node5</title>
<g id="a_node5"><a xlink:href="_o_m_sim_rad_decays_detector_8cc.html" target="_top" xlink:title=" ">
<polygon fill="white" stroke="black" points="526.5,-0.5 526.5,-19.5 687.5,-19.5 687.5,-0.5 526.5,-0.5"/>
<text text-anchor="middle" x="607" y="-7.5" font-family="Helvetica,sans-Serif" font-size="10.00">OMSimRadDecaysDetector.cc</text>
</a>
</g>
</g>
<!-- Node1&#45;&gt;Node5 -->
<g id="edge4" class="edge">
<title>Node1&#45;&gt;Node5</title>
<path fill="none" stroke="midnightblue" d="M461.17,-53.57C496.07,-43.38 546.35,-28.7 577.82,-19.52"/>
<polygon fill="midnightblue" stroke="midnightblue" points="459.93,-50.28 451.31,-56.44 461.89,-57 459.93,-50.28"/>
</g>
<!-- Node6 -->
<g id="node6" class="node">
<title>Node6</title>
<g id="a_node6"><a xlink:href="_o_m_sim_yield_detector_8cc.html" target="_top" xlink:title=" ">
<polygon fill="white" stroke="black" points="705.5,-0.5 705.5,-19.5 836.5,-19.5 836.5,-0.5 705.5,-0.5"/>
<text text-anchor="middle" x="771" y="-7.5" font-family="Helvetica,sans-Serif" font-size="10.00">OMSimYieldDetector.cc</text>
</a>
</g>
</g>
<!-- Node1&#45;&gt;Node6 -->
<g id="edge5" class="edge">
<title>Node1&#45;&gt;Node6</title>
<path fill="none" stroke="midnightblue" d="M487.57,-54.85C553.52,-44.65 654.04,-29.1 715.96,-19.52"/>
<polygon fill="midnightblue" stroke="midnightblue" points="486.65,-51.46 477.3,-56.44 487.72,-58.37 486.65,-51.46"/>
</g>
</g>
</svg>
