<?xml version="1.0" encoding="UTF-8" standalone="no"?>
<!DOCTYPE svg PUBLIC "-//W3C//DTD SVG 1.1//EN"
 "http://www.w3.org/Graphics/SVG/1.1/DTD/svg11.dtd">
<!-- Generated by graphviz version 2.43.0 (0)
 -->
<!-- Title: OMSimYieldDetector.cc Pages: 1 -->
<svg width="1626pt" height="442pt"
 viewBox="0.00 0.00 1625.50 442.00" xmlns="http://www.w3.org/2000/svg" xmlns:xlink="http://www.w3.org/1999/xlink">
<g id="graph0" class="graph" transform="scale(1 1) rotate(0) translate(4 438)">
<title>OMSimYieldDetector.cc</title>
<polygon fill="white" stroke="transparent" points="-4,4 -4,-438 1621.5,-438 1621.5,4 -4,4"/>
<!-- Node1 -->
<g id="node1" class="node">
<title>Node1</title>
<g id="a_node1"><a xlink:title=" ">
<polygon fill="#bfbfbf" stroke="black" points="560.5,-414.5 560.5,-433.5 691.5,-433.5 691.5,-414.5 560.5,-414.5"/>
<text text-anchor="middle" x="626" y="-421.5" font-family="Helvetica,sans-Serif" font-size="10.00">OMSimYieldDetector.cc</text>
</a>
</g>
</g>
<!-- Node2 -->
<g id="node2" class="node">
<title>Node2</title>
<g id="a_node2"><a xlink:title=" ">
<polygon fill="white" stroke="#bfbfbf" points="0,-358.5 0,-377.5 132,-377.5 132,-358.5 0,-358.5"/>
<text text-anchor="middle" x="66" y="-365.5" font-family="Helvetica,sans-Serif" font-size="10.00">OMSimYieldDetector.hh</text>
</a>
</g>
</g>
<!-- Node1&#45;&gt;Node2 -->
<g id="edge1" class="edge">
<title>Node1&#45;&gt;Node2</title>
<path fill="none" stroke="midnightblue" d="M560.44,-417.48C469.19,-409.67 298.42,-394.61 142.49,-378.13"/>
<polygon fill="midnightblue" stroke="midnightblue" points="142.56,-374.62 132.24,-377.05 141.82,-381.58 142.56,-374.62"/>
</g>
<!-- Node3 -->
<g id="node3" class="node">
<title>Node3</title>
<g id="a_node3"><a xlink:title=" ">
<polygon fill="white" stroke="#bfbfbf" points="150.5,-358.5 150.5,-377.5 269.5,-377.5 269.5,-358.5 150.5,-358.5"/>
<text text-anchor="middle" x="210" y="-365.5" font-family="Helvetica,sans-Serif" font-size="10.00">OMSimYieldSetup.hh</text>
</a>
</g>
</g>
<!-- Node1&#45;&gt;Node3 -->
<g id="edge2" class="edge">
<title>Node1&#45;&gt;Node3</title>
<path fill="none" stroke="midnightblue" d="M560.44,-414.51C492.85,-405.76 384.1,-391.67 279.91,-378.12"/>
<polygon fill="midnightblue" stroke="midnightblue" points="280.21,-374.63 269.84,-376.81 279.3,-381.57 280.21,-374.63"/>
</g>
<!-- Node4 -->
<g id="node4" class="node">
<title>Node4</title>
<g id="a_node4"><a xlink:href="_o_m_sim_m_d_o_m_8hh.html" target="_top" xlink:title="Construction of mDOM.">
<polygon fill="white" stroke="black" points="288,-358.5 288,-377.5 388,-377.5 388,-358.5 288,-358.5"/>
<text text-anchor="middle" x="338" y="-365.5" font-family="Helvetica,sans-Serif" font-size="10.00">OMSimMDOM.hh</text>
</a>
</g>
</g>
<!-- Node1&#45;&gt;Node4 -->
<g id="edge3" class="edge">
<title>Node1&#45;&gt;Node4</title>
<path fill="none" stroke="midnightblue" d="M580.37,-414.44C529.7,-404.94 447.93,-389.61 393.57,-379.42"/>
<polygon fill="midnightblue" stroke="midnightblue" points="393.89,-375.92 383.42,-377.52 392.6,-382.8 393.89,-375.92"/>
</g>
<!-- Node30 -->
<g id="node30" class="node">
<title>Node30</title>
<g id="a_node30"><a xlink:href="_o_m_sim_hit_manager_8hh.html" target="_top" xlink:title="Defines structures and classes related to optical module photon hit management.">
<polygon fill="white" stroke="black" points="807.5,-246.5 807.5,-265.5 930.5,-265.5 930.5,-246.5 807.5,-246.5"/>
<text text-anchor="middle" x="869" y="-253.5" font-family="Helvetica,sans-Serif" font-size="10.00">OMSimHitManager.hh</text>
</a>
</g>
</g>
<!-- Node1&#45;&gt;Node30 -->
<g id="edge60" class="edge">
<title>Node1&#45;&gt;Node30</title>
<path fill="none" stroke="midnightblue" d="M691.67,-417.1C740.27,-411.18 807.4,-399.7 863,-378 906.89,-360.87 930.12,-363.18 953,-322 966.3,-298.06 935.91,-280.03 908.04,-269.1"/>
<polygon fill="midnightblue" stroke="midnightblue" points="908.95,-265.71 898.36,-265.53 906.53,-272.27 908.95,-265.71"/>
</g>
<!-- Node35 -->
<g id="node35" class="node">
<title>Node35</title>
<g id="a_node35"><a xlink:href="_o_m_sim_p_d_o_m_8hh.html" target="_top" xlink:title="Implementation of the pDOM/Gen1 DOM class.">
<polygon fill="white" stroke="black" points="519.5,-358.5 519.5,-377.5 616.5,-377.5 616.5,-358.5 519.5,-358.5"/>
<text text-anchor="middle" x="568" y="-365.5" font-family="Helvetica,sans-Serif" font-size="10.00">OMSimPDOM.hh</text>
</a>
</g>
</g>
<!-- Node1&#45;&gt;Node35 -->
<g id="edge41" class="edge">
<title>Node1&#45;&gt;Node35</title>
<path fill="none" stroke="midnightblue" d="M616.68,-414.32C608.11,-406.34 595.19,-394.31 584.81,-384.65"/>
<polygon fill="midnightblue" stroke="midnightblue" points="587.19,-382.09 577.49,-377.83 582.42,-387.21 587.19,-382.09"/>
</g>
<!-- Node36 -->
<g id="node36" class="node">
<title>Node36</title>
<g id="a_node36"><a xlink:href="_o_m_sim_l_o_m16_8hh.html" target="_top" xlink:title="Construction of LOM16.">
<polygon fill="white" stroke="black" points="634.5,-358.5 634.5,-377.5 735.5,-377.5 735.5,-358.5 634.5,-358.5"/>
<text text-anchor="middle" x="685" y="-365.5" font-family="Helvetica,sans-Serif" font-size="10.00">OMSimLOM16.hh</text>
</a>
</g>
</g>
<!-- Node1&#45;&gt;Node36 -->
<g id="edge44" class="edge">
<title>Node1&#45;&gt;Node36</title>
<path fill="none" stroke="midnightblue" d="M635.48,-414.32C644.2,-406.34 657.34,-394.31 667.9,-384.65"/>
<polygon fill="midnightblue" stroke="midnightblue" points="670.33,-387.17 675.35,-377.83 665.61,-382 670.33,-387.17"/>
</g>
<!-- Node37 -->
<g id="node37" class="node">
<title>Node37</title>
<g id="a_node37"><a xlink:href="_o_m_sim_l_o_m18_8hh.html" target="_top" xlink:title="Construction of LOM18.">
<polygon fill="white" stroke="black" points="753.5,-358.5 753.5,-377.5 854.5,-377.5 854.5,-358.5 753.5,-358.5"/>
<text text-anchor="middle" x="804" y="-365.5" font-family="Helvetica,sans-Serif" font-size="10.00">OMSimLOM18.hh</text>
</a>
</g>
</g>
<!-- Node1&#45;&gt;Node37 -->
<g id="edge47" class="edge">
<title>Node1&#45;&gt;Node37</title>
<path fill="none" stroke="midnightblue" d="M654.2,-414.44C684.41,-405.28 732.51,-390.69 766.03,-380.52"/>
<polygon fill="midnightblue" stroke="midnightblue" points="767.37,-383.77 775.93,-377.52 765.34,-377.07 767.37,-383.77"/>
</g>
<!-- Node40 -->
<g id="node40" class="node">
<title>Node40</title>
<g id="a_node40"><a xlink:href="_o_m_sim_d_e_g_g_8hh.html" target="_top" xlink:title="Construction of the DEGG class. From DOUMEKI.">
<polygon fill="white" stroke="black" points="406.5,-358.5 406.5,-377.5 501.5,-377.5 501.5,-358.5 406.5,-358.5"/>
<text text-anchor="middle" x="454" y="-365.5" font-family="Helvetica,sans-Serif" font-size="10.00">OMSimDEGG.hh</text>
</a>
</g>
</g>
<!-- Node1&#45;&gt;Node40 -->
<g id="edge52" class="edge">
<title>Node1&#45;&gt;Node40</title>
<path fill="none" stroke="midnightblue" d="M598.75,-414.44C569.56,-405.28 523.08,-390.69 490.69,-380.52"/>
<polygon fill="midnightblue" stroke="midnightblue" points="491.72,-377.17 481.13,-377.52 489.62,-383.85 491.72,-377.17"/>
</g>
<!-- Node41 -->
<g id="node41" class="node">
<title>Node41</title>
<g id="a_node41"><a xlink:href="_o_m_sim_command_args_table_8hh.html" target="_top" xlink:title="Definition of the OMSimCommandArgsTable singleton class, which controls user args.">
<polygon fill="white" stroke="black" points="988,-246.5 988,-265.5 1152,-265.5 1152,-246.5 988,-246.5"/>
<text text-anchor="middle" x="1070" y="-253.5" font-family="Helvetica,sans-Serif" font-size="10.00">OMSimCommandArgsTable.hh</text>
</a>
</g>
</g>
<!-- Node1&#45;&gt;Node41 -->
<g id="edge55" class="edge">
<title>Node1&#45;&gt;Node41</title>
<path fill="none" stroke="midnightblue" d="M691.52,-421.08C749.62,-417.39 835.75,-406.98 905,-378 966.44,-352.29 1026.39,-299.33 1054.08,-272.83"/>
<polygon fill="midnightblue" stroke="midnightblue" points="1056.57,-275.29 1061.3,-265.81 1051.69,-270.27 1056.57,-275.29"/>
</g>
<!-- Node44 -->
<g id="node44" class="node">
<title>Node44</title>
<g id="a_node44"><a xlink:href="_o_m_sim_sensitive_detector_8hh.html" target="_top" xlink:title=" ">
<polygon fill="white" stroke="black" points="1269.5,-246.5 1269.5,-265.5 1422.5,-265.5 1422.5,-246.5 1269.5,-246.5"/>
<text text-anchor="middle" x="1346" y="-253.5" font-family="Helvetica,sans-Serif" font-size="10.00">OMSimSensitiveDetector.hh</text>
</a>
</g>
</g>
<!-- Node1&#45;&gt;Node44 -->
<g id="edge61" class="edge">
<title>Node1&#45;&gt;Node44</title>
<path fill="none" stroke="midnightblue" d="M691.63,-416.34C755.11,-409.23 853.8,-396.45 938,-378 1079.01,-347.09 1242.45,-292.88 1311.93,-268.94"/>
<polygon fill="midnightblue" stroke="midnightblue" points="1313.18,-272.21 1321.49,-265.63 1310.89,-265.59 1313.18,-272.21"/>
</g>
<!-- Node5 -->
<g id="node5" class="node">
<title>Node5</title>
<g id="a_node5"><a xlink:href="_o_m_sim_m_d_o_m_flasher_8hh.html" target="_top" xlink:title="Defines the mDOMFlasher class for simulating the 10 flashers in an mDOM optical module.">
<polygon fill="white" stroke="black" points="207.5,-246.5 207.5,-265.5 342.5,-265.5 342.5,-246.5 207.5,-246.5"/>
<text text-anchor="middle" x="275" y="-253.5" font-family="Helvetica,sans-Serif" font-size="10.00">OMSimMDOMFlasher.hh</text>
</a>
</g>
</g>
<!-- Node4&#45;&gt;Node5 -->
<g id="edge4" class="edge">
<title>Node4&#45;&gt;Node5</title>
<path fill="none" stroke="midnightblue" d="M333.06,-358.37C322.71,-340.3 298.58,-298.18 284.91,-274.31"/>
<polygon fill="midnightblue" stroke="midnightblue" points="287.93,-272.53 279.92,-265.59 281.85,-276.01 287.93,-272.53"/>
</g>
<!-- Node22 -->
<g id="node22" class="node">
<title>Node22</title>
<g id="a_node22"><a xlink:href="_o_m_sim_p_m_t_construction_8hh.html" target="_top" xlink:title="Construction of the PMTs.">
<polygon fill="white" stroke="black" points="448.5,-246.5 448.5,-265.5 597.5,-265.5 597.5,-246.5 448.5,-246.5"/>
<text text-anchor="middle" x="523" y="-253.5" font-family="Helvetica,sans-Serif" font-size="10.00">OMSimPMTConstruction.hh</text>
</a>
</g>
</g>
<!-- Node4&#45;&gt;Node22 -->
<g id="edge21" class="edge">
<title>Node4&#45;&gt;Node22</title>
<path fill="none" stroke="midnightblue" d="M349.81,-358.29C367.61,-345.31 402.6,-320.47 434,-302 453.9,-290.3 477.21,-278.58 494.98,-270.04"/>
<polygon fill="midnightblue" stroke="midnightblue" points="496.7,-273.09 504.22,-265.64 493.69,-266.77 496.7,-273.09"/>
</g>
<!-- Node29 -->
<g id="node29" class="node">
<title>Node29</title>
<g id="a_node29"><a xlink:href="_o_m_sim_optical_module_8hh.html" target="_top" xlink:title=" ">
<polygon fill="white" stroke="black" points="451.5,-302.5 451.5,-321.5 588.5,-321.5 588.5,-302.5 451.5,-302.5"/>
<text text-anchor="middle" x="520" y="-309.5" font-family="Helvetica,sans-Serif" font-size="10.00">OMSimOpticalModule.hh</text>
</a>
</g>
</g>
<!-- Node4&#45;&gt;Node29 -->
<g id="edge32" class="edge">
<title>Node4&#45;&gt;Node29</title>
<path fill="none" stroke="midnightblue" d="M366.84,-358.44C397.86,-349.24 447.33,-334.56 481.62,-324.39"/>
<polygon fill="midnightblue" stroke="midnightblue" points="482.71,-327.72 491.3,-321.52 480.71,-321.01 482.71,-327.72"/>
</g>
<!-- Node6 -->
<g id="node6" class="node">
<title>Node6</title>
<g id="a_node6"><a xlink:href="abc_detector_component_8hh.html" target="_top" xlink:title="Provides helper base class abcDetectorComponent for constructing and managing detector components in ...">
<polygon fill="white" stroke="black" points="330.5,-190.5 330.5,-209.5 477.5,-209.5 477.5,-190.5 330.5,-190.5"/>
<text text-anchor="middle" x="404" y="-197.5" font-family="Helvetica,sans-Serif" font-size="10.00">abcDetectorComponent.hh</text>
</a>
</g>
</g>
<!-- Node5&#45;&gt;Node6 -->
<g id="edge5" class="edge">
<title>Node5&#45;&gt;Node6</title>
<path fill="none" stroke="midnightblue" d="M295.44,-246.44C316.67,-237.56 350.1,-223.56 374.25,-213.45"/>
<polygon fill="midnightblue" stroke="midnightblue" points="375.78,-216.61 383.66,-209.52 373.08,-210.15 375.78,-216.61"/>
</g>
<!-- Node20 -->
<g id="node20" class="node">
<title>Node20</title>
<g id="a_node20"><a xlink:title=" ">
<polygon fill="white" stroke="#bfbfbf" points="214,-190.5 214,-209.5 312,-209.5 312,-190.5 214,-190.5"/>
<text text-anchor="middle" x="263" y="-197.5" font-family="Helvetica,sans-Serif" font-size="10.00">G4UnionSolid.hh</text>
</a>
</g>
</g>
<!-- Node5&#45;&gt;Node20 -->
<g id="edge19" class="edge">
<title>Node5&#45;&gt;Node20</title>
<path fill="none" stroke="midnightblue" d="M273.02,-246.08C271.43,-238.93 269.14,-228.64 267.15,-219.69"/>
<polygon fill="midnightblue" stroke="midnightblue" points="270.53,-218.75 264.94,-209.75 263.7,-220.27 270.53,-218.75"/>
</g>
<!-- Node21 -->
<g id="node21" class="node">
<title>Node21</title>
<g id="a_node21"><a xlink:title=" ">
<polygon fill="white" stroke="#bfbfbf" points="104,-190.5 104,-209.5 196,-209.5 196,-190.5 104,-190.5"/>
<text text-anchor="middle" x="150" y="-197.5" font-family="Helvetica,sans-Serif" font-size="10.00">G4Navigator.hh</text>
</a>
</g>
</g>
<!-- Node5&#45;&gt;Node21 -->
<g id="edge20" class="edge">
<title>Node5&#45;&gt;Node21</title>
<path fill="none" stroke="midnightblue" d="M255.19,-246.44C234.71,-237.6 202.52,-223.69 179.14,-213.59"/>
<polygon fill="midnightblue" stroke="midnightblue" points="180.28,-210.27 169.71,-209.52 177.51,-216.7 180.28,-210.27"/>
</g>
<!-- Node7 -->
<g id="node7" class="node">
<title>Node7</title>
<g id="a_node7"><a xlink:href="_o_m_sim_input_data_8hh.html" target="_top" xlink:title="Definition of ParameterTable and InputDataManager.">
<polygon fill="white" stroke="black" points="678.5,-134.5 678.5,-153.5 793.5,-153.5 793.5,-134.5 678.5,-134.5"/>
<text text-anchor="middle" x="736" y="-141.5" font-family="Helvetica,sans-Serif" font-size="10.00">OMSimInputData.hh</text>
</a>
</g>
</g>
<!-- Node6&#45;&gt;Node7 -->
<g id="edge6" class="edge">
<title>Node6&#45;&gt;Node7</title>
<path fill="none" stroke="midnightblue" d="M456.61,-190.44C515.49,-180.87 610.85,-165.36 673.49,-155.17"/>
<polygon fill="midnightblue" stroke="midnightblue" points="674.33,-158.58 683.64,-153.52 673.21,-151.67 674.33,-158.58"/>
</g>
<!-- Node16 -->
<g id="node16" class="node">
<title>Node16</title>
<g id="a_node16"><a xlink:title=" ">
<polygon fill="white" stroke="#bfbfbf" points="102.5,-134.5 102.5,-153.5 209.5,-153.5 209.5,-134.5 102.5,-134.5"/>
<text text-anchor="middle" x="156" y="-141.5" font-family="Helvetica,sans-Serif" font-size="10.00">G4Transform3D.hh</text>
</a>
</g>
</g>
<!-- Node6&#45;&gt;Node16 -->
<g id="edge15" class="edge">
<title>Node6&#45;&gt;Node16</title>
<path fill="none" stroke="midnightblue" d="M364.7,-190.44C321.44,-181.02 251.83,-165.87 205.03,-155.68"/>
<polygon fill="midnightblue" stroke="midnightblue" points="205.63,-152.22 195.11,-153.52 204.14,-159.06 205.63,-152.22"/>
</g>
<!-- Node17 -->
<g id="node17" class="node">
<title>Node17</title>
<g id="a_node17"><a xlink:title=" ">
<polygon fill="white" stroke="#bfbfbf" points="228,-134.5 228,-153.5 336,-153.5 336,-134.5 228,-134.5"/>
<text text-anchor="middle" x="282" y="-141.5" font-family="Helvetica,sans-Serif" font-size="10.00">G4VisAttributes.hh</text>
</a>
</g>
</g>
<!-- Node6&#45;&gt;Node17 -->
<g id="edge16" class="edge">
<title>Node6&#45;&gt;Node17</title>
<path fill="none" stroke="midnightblue" d="M384.67,-190.44C364.68,-181.6 333.26,-167.69 310.44,-157.59"/>
<polygon fill="midnightblue" stroke="midnightblue" points="311.8,-154.36 301.24,-153.52 308.97,-160.76 311.8,-154.36"/>
</g>
<!-- Node18 -->
<g id="node18" class="node">
<title>Node18</title>
<g id="a_node18"><a xlink:title=" ">
<polygon fill="white" stroke="#bfbfbf" points="354.5,-134.5 354.5,-153.5 479.5,-153.5 479.5,-134.5 354.5,-134.5"/>
<text text-anchor="middle" x="417" y="-141.5" font-family="Helvetica,sans-Serif" font-size="10.00">G4SubtractionSolid.hh</text>
</a>
</g>
</g>
<!-- Node6&#45;&gt;Node18 -->
<g id="edge17" class="edge">
<title>Node6&#45;&gt;Node18</title>
<path fill="none" stroke="midnightblue" d="M406.15,-190.08C407.87,-182.93 410.35,-172.64 412.5,-163.69"/>
<polygon fill="midnightblue" stroke="midnightblue" points="415.96,-164.29 414.89,-153.75 409.15,-162.65 415.96,-164.29"/>
</g>
<!-- Node19 -->
<g id="node19" class="node">
<title>Node19</title>
<g id="a_node19"><a xlink:title=" ">
<polygon fill="white" stroke="#bfbfbf" points="498,-134.5 498,-153.5 608,-153.5 608,-134.5 498,-134.5"/>
<text text-anchor="middle" x="553" y="-141.5" font-family="Helvetica,sans-Serif" font-size="10.00">G4PVPlacement.hh</text>
</a>
</g>
</g>
<!-- Node6&#45;&gt;Node19 -->
<g id="edge18" class="edge">
<title>Node6&#45;&gt;Node19</title>
<path fill="none" stroke="midnightblue" d="M427.61,-190.44C452.46,-181.44 491.77,-167.19 519.75,-157.05"/>
<polygon fill="midnightblue" stroke="midnightblue" points="521.29,-160.21 529.5,-153.52 518.91,-153.63 521.29,-160.21"/>
</g>
<!-- Node8 -->
<g id="node8" class="node">
<title>Node8</title>
<g id="a_node8"><a xlink:href="_o_m_sim_logger_8hh.html" target="_top" xlink:title=" ">
<polygon fill="white" stroke="black" points="1003.5,-73 1003.5,-92 1102.5,-92 1102.5,-73 1003.5,-73"/>
<text text-anchor="middle" x="1053" y="-80" font-family="Helvetica,sans-Serif" font-size="10.00">OMSimLogger.hh</text>
</a>
</g>
</g>
<!-- Node7&#45;&gt;Node8 -->
<g id="edge7" class="edge">
<title>Node7&#45;&gt;Node8</title>
<path fill="none" stroke="midnightblue" d="M781.42,-134.48C838.5,-123.76 936.42,-105.38 997.77,-93.87"/>
<polygon fill="midnightblue" stroke="midnightblue" points="998.48,-97.29 1007.67,-92.01 997.19,-90.41 998.48,-97.29"/>
</g>
<!-- Node13 -->
<g id="node13" class="node">
<title>Node13</title>
<g id="a_node13"><a xlink:title=" ">
<polygon fill="white" stroke="#bfbfbf" points="1203.5,-73 1203.5,-92 1346.5,-92 1346.5,-73 1203.5,-73"/>
<text text-anchor="middle" x="1275" y="-80" font-family="Helvetica,sans-Serif" font-size="10.00">G4OpBoundaryProcess.hh</text>
</a>
</g>
</g>
<!-- Node7&#45;&gt;Node13 -->
<g id="edge12" class="edge">
<title>Node7&#45;&gt;Node13</title>
<path fill="none" stroke="midnightblue" d="M793.58,-135.05C796.43,-134.69 799.24,-134.33 802,-134 939.04,-117.34 1098.79,-100.91 1193.16,-91.51"/>
<polygon fill="midnightblue" stroke="midnightblue" points="1193.6,-94.98 1203.21,-90.51 1192.91,-88.01 1193.6,-94.98"/>
</g>
<!-- Node14 -->
<g id="node14" class="node">
<title>Node14</title>
<g id="a_node14"><a xlink:title=" ">
<polygon fill="white" stroke="#bfbfbf" points="590.5,-73 590.5,-92 709.5,-92 709.5,-73 590.5,-73"/>
<text text-anchor="middle" x="650" y="-80" font-family="Helvetica,sans-Serif" font-size="10.00">G4SystemOfUnits.hh</text>
</a>
</g>
</g>
<!-- Node7&#45;&gt;Node14 -->
<g id="edge13" class="edge">
<title>Node7&#45;&gt;Node14</title>
<path fill="none" stroke="midnightblue" d="M723.68,-134.48C709.88,-124.93 687.3,-109.31 670.77,-97.87"/>
<polygon fill="midnightblue" stroke="midnightblue" points="672.51,-94.82 662.3,-92.01 668.53,-100.58 672.51,-94.82"/>
</g>
<!-- Node15 -->
<g id="node15" class="node">
<title>Node15</title>
<g id="a_node15"><a xlink:title=" ">
<polygon fill="white" stroke="#bfbfbf" points="727.5,-67.5 727.5,-97.5 840.5,-97.5 840.5,-67.5 727.5,-67.5"/>
<text text-anchor="start" x="735.5" y="-85.5" font-family="Helvetica,sans-Serif" font-size="10.00">boost/property_tree</text>
<text text-anchor="middle" x="784" y="-74.5" font-family="Helvetica,sans-Serif" font-size="10.00">/json_parser.hpp</text>
</a>
</g>
</g>
<!-- Node7&#45;&gt;Node15 -->
<g id="edge14" class="edge">
<title>Node7&#45;&gt;Node15</title>
<path fill="none" stroke="midnightblue" d="M742.88,-134.48C748.95,-126.94 758.08,-115.63 766.2,-105.57"/>
<polygon fill="midnightblue" stroke="midnightblue" points="769.13,-107.5 772.69,-97.52 763.68,-103.11 769.13,-107.5"/>
</g>
<!-- Node9 -->
<g id="node9" class="node">
<title>Node9</title>
<g id="a_node9"><a xlink:title=" ">
<polygon fill="white" stroke="#bfbfbf" points="834.5,-6 834.5,-25 927.5,-25 927.5,-6 834.5,-6"/>
<text text-anchor="middle" x="881" y="-13" font-family="Helvetica,sans-Serif" font-size="10.00">spdlog/spdlog.h</text>
</a>
</g>
</g>
<!-- Node8&#45;&gt;Node9 -->
<g id="edge8" class="edge">
<title>Node8&#45;&gt;Node9</title>
<path fill="none" stroke="midnightblue" d="M1030.16,-72.87C1000.13,-61.52 947.22,-41.52 913.16,-28.65"/>
<polygon fill="midnightblue" stroke="midnightblue" points="914.25,-25.32 903.66,-25.06 911.78,-31.87 914.25,-25.32"/>
</g>
<!-- Node10 -->
<g id="node10" class="node">
<title>Node10</title>
<g id="a_node10"><a xlink:title=" ">
<polygon fill="white" stroke="#bfbfbf" points="945.5,-0.5 945.5,-30.5 1056.5,-30.5 1056.5,-0.5 945.5,-0.5"/>
<text text-anchor="start" x="953.5" y="-18.5" font-family="Helvetica,sans-Serif" font-size="10.00">spdlog/sinks/stdout</text>
<text text-anchor="middle" x="1001" y="-7.5" font-family="Helvetica,sans-Serif" font-size="10.00">_color_sinks.h</text>
</a>
</g>
</g>
<!-- Node8&#45;&gt;Node10 -->
<g id="edge9" class="edge">
<title>Node8&#45;&gt;Node10</title>
<path fill="none" stroke="midnightblue" d="M1045.99,-72.73C1039.03,-64.03 1028.08,-50.34 1018.72,-38.65"/>
<polygon fill="midnightblue" stroke="midnightblue" points="1021.25,-36.21 1012.27,-30.59 1015.79,-40.58 1021.25,-36.21"/>
</g>
<!-- Node11 -->
<g id="node11" class="node">
<title>Node11</title>
<g id="a_node11"><a xlink:title=" ">
<polygon fill="white" stroke="#bfbfbf" points="1075,-6 1075,-25 1133,-25 1133,-6 1075,-6"/>
<text text-anchor="middle" x="1104" y="-13" font-family="Helvetica,sans-Serif" font-size="10.00">memory</text>
</a>
</g>
</g>
<!-- Node8&#45;&gt;Node11 -->
<g id="edge10" class="edge">
<title>Node8&#45;&gt;Node11</title>
<path fill="none" stroke="midnightblue" d="M1059.88,-72.73C1067.83,-62.6 1081.1,-45.69 1091.01,-33.06"/>
<polygon fill="midnightblue" stroke="midnightblue" points="1093.81,-35.16 1097.23,-25.13 1088.3,-30.83 1093.81,-35.16"/>
</g>
<!-- Node12 -->
<g id="node12" class="node">
<title>Node12</title>
<g id="a_node12"><a xlink:title=" ">
<polygon fill="white" stroke="#bfbfbf" points="1151,-6 1151,-25 1249,-25 1249,-6 1151,-6"/>
<text text-anchor="middle" x="1200" y="-13" font-family="Helvetica,sans-Serif" font-size="10.00">spdlog/fmt/fmt.h</text>
</a>
</g>
</g>
<!-- Node8&#45;&gt;Node12 -->
<g id="edge11" class="edge">
<title>Node8&#45;&gt;Node12</title>
<path fill="none" stroke="midnightblue" d="M1072.52,-72.87C1097.78,-61.7 1142,-42.15 1171.14,-29.26"/>
<polygon fill="midnightblue" stroke="midnightblue" points="1172.67,-32.41 1180.4,-25.17 1169.84,-26.01 1172.67,-32.41"/>
</g>
<!-- Node22&#45;&gt;Node6 -->
<g id="edge22" class="edge">
<title>Node22&#45;&gt;Node6</title>
<path fill="none" stroke="midnightblue" d="M504.14,-246.44C484.73,-237.64 454.27,-223.81 432.04,-213.72"/>
<polygon fill="midnightblue" stroke="midnightblue" points="433.32,-210.46 422.77,-209.52 430.43,-216.84 433.32,-210.46"/>
</g>
<!-- Node22&#45;&gt;Node20 -->
<g id="edge30" class="edge">
<title>Node22&#45;&gt;Node20</title>
<path fill="none" stroke="midnightblue" d="M481.8,-246.44C436.35,-237 363.16,-221.8 314.09,-211.61"/>
<polygon fill="midnightblue" stroke="midnightblue" points="314.51,-208.12 304.01,-209.52 313.08,-214.98 314.51,-208.12"/>
</g>
<!-- Node22&#45;&gt;Node22 -->
<g id="edge23" class="edge">
<title>Node22&#45;&gt;Node22</title>
<path fill="none" stroke="midnightblue" d="M562.45,-265.53C589.26,-268.31 615.5,-265.13 615.5,-256 615.5,-248.01 595.41,-244.58 572.43,-245.71"/>
<polygon fill="midnightblue" stroke="midnightblue" points="572.15,-242.22 562.45,-246.47 572.69,-249.2 572.15,-242.22"/>
</g>
<!-- Node23 -->
<g id="node23" class="node">
<title>Node23</title>
<g id="a_node23"><a xlink:href="_o_m_sim_p_m_t_response_8hh.html" target="_top" xlink:title="Simulation of PMT response.">
<polygon fill="white" stroke="black" points="801.5,-190.5 801.5,-209.5 936.5,-209.5 936.5,-190.5 801.5,-190.5"/>
<text text-anchor="middle" x="869" y="-197.5" font-family="Helvetica,sans-Serif" font-size="10.00">OMSimPMTResponse.hh</text>
</a>
</g>
</g>
<!-- Node22&#45;&gt;Node23 -->
<g id="edge24" class="edge">
<title>Node22&#45;&gt;Node23</title>
<path fill="none" stroke="midnightblue" d="M577.82,-246.44C639.32,-236.85 738.98,-221.29 804.26,-211.1"/>
<polygon fill="midnightblue" stroke="midnightblue" points="805.09,-214.52 814.43,-209.52 804.01,-207.6 805.09,-214.52"/>
</g>
<!-- Node28 -->
<g id="node28" class="node">
<title>Node28</title>
<g id="a_node28"><a xlink:title=" ">
<polygon fill="white" stroke="#bfbfbf" points="495.5,-190.5 495.5,-209.5 562.5,-209.5 562.5,-190.5 495.5,-190.5"/>
<text text-anchor="middle" x="529" y="-197.5" font-family="Helvetica,sans-Serif" font-size="10.00">G4Tubs.hh</text>
</a>
</g>
</g>
<!-- Node22&#45;&gt;Node28 -->
<g id="edge31" class="edge">
<title>Node22&#45;&gt;Node28</title>
<path fill="none" stroke="midnightblue" d="M523.99,-246.08C524.79,-238.93 525.93,-228.64 526.92,-219.69"/>
<polygon fill="midnightblue" stroke="midnightblue" points="530.4,-220.08 528.03,-209.75 523.44,-219.3 530.4,-220.08"/>
</g>
<!-- Node23&#45;&gt;Node14 -->
<g id="edge25" class="edge">
<title>Node23&#45;&gt;Node14</title>
<path fill="none" stroke="midnightblue" d="M801.37,-191.32C751.02,-184.26 687.88,-172.11 669,-154 655.16,-140.73 651.04,-118.52 649.99,-102.58"/>
<polygon fill="midnightblue" stroke="midnightblue" points="653.48,-102.18 649.67,-92.29 646.48,-102.39 653.48,-102.18"/>
</g>
<!-- Node24 -->
<g id="node24" class="node">
<title>Node24</title>
<g id="a_node24"><a xlink:title=" ">
<polygon fill="white" stroke="#bfbfbf" points="961.5,-134.5 961.5,-153.5 1034.5,-153.5 1034.5,-134.5 961.5,-134.5"/>
<text text-anchor="middle" x="998" y="-141.5" font-family="Helvetica,sans-Serif" font-size="10.00">G4Types.hh</text>
</a>
</g>
</g>
<!-- Node23&#45;&gt;Node24 -->
<g id="edge26" class="edge">
<title>Node23&#45;&gt;Node24</title>
<path fill="none" stroke="midnightblue" d="M889.44,-190.44C910.67,-181.56 944.1,-167.56 968.25,-157.45"/>
<polygon fill="midnightblue" stroke="midnightblue" points="969.78,-160.61 977.66,-153.52 967.08,-154.15 969.78,-160.61"/>
</g>
<!-- Node25 -->
<g id="node25" class="node">
<title>Node25</title>
<g id="a_node25"><a xlink:title=" ">
<polygon fill="white" stroke="#bfbfbf" points="1053,-134.5 1053,-153.5 1091,-153.5 1091,-134.5 1053,-134.5"/>
<text text-anchor="middle" x="1072" y="-141.5" font-family="Helvetica,sans-Serif" font-size="10.00">map</text>
</a>
</g>
</g>
<!-- Node23&#45;&gt;Node25 -->
<g id="edge27" class="edge">
<title>Node23&#45;&gt;Node25</title>
<path fill="none" stroke="midnightblue" d="M904.7,-190.48C938.17,-182.34 989.82,-169.42 1043.15,-154.13"/>
<polygon fill="midnightblue" stroke="midnightblue" points="1044.13,-157.49 1052.77,-151.35 1042.19,-150.76 1044.13,-157.49"/>
</g>
<!-- Node26 -->
<g id="node26" class="node">
<title>Node26</title>
<g id="a_node26"><a xlink:title=" ">
<polygon fill="white" stroke="#bfbfbf" points="811.5,-134.5 811.5,-153.5 872.5,-153.5 872.5,-134.5 811.5,-134.5"/>
<text text-anchor="middle" x="842" y="-141.5" font-family="Helvetica,sans-Serif" font-size="10.00">TGraph.h</text>
</a>
</g>
</g>
<!-- Node23&#45;&gt;Node26 -->
<g id="edge28" class="edge">
<title>Node23&#45;&gt;Node26</title>
<path fill="none" stroke="midnightblue" d="M864.54,-190.08C860.85,-182.69 855.48,-171.95 850.91,-162.81"/>
<polygon fill="midnightblue" stroke="midnightblue" points="853.98,-161.13 846.38,-153.75 847.72,-164.26 853.98,-161.13"/>
</g>
<!-- Node27 -->
<g id="node27" class="node">
<title>Node27</title>
<g id="a_node27"><a xlink:title=" ">
<polygon fill="white" stroke="#bfbfbf" points="890.5,-134.5 890.5,-153.5 943.5,-153.5 943.5,-134.5 890.5,-134.5"/>
<text text-anchor="middle" x="917" y="-141.5" font-family="Helvetica,sans-Serif" font-size="10.00">TH2D.h</text>
</a>
</g>
</g>
<!-- Node23&#45;&gt;Node27 -->
<g id="edge29" class="edge">
<title>Node23&#45;&gt;Node27</title>
<path fill="none" stroke="midnightblue" d="M876.93,-190.08C883.85,-182.3 894.07,-170.8 902.45,-161.37"/>
<polygon fill="midnightblue" stroke="midnightblue" points="905.19,-163.55 909.22,-153.75 899.96,-158.9 905.19,-163.55"/>
</g>
<!-- Node29&#45;&gt;Node6 -->
<g id="edge33" class="edge">
<title>Node29&#45;&gt;Node6</title>
<path fill="none" stroke="midnightblue" d="M497.12,-302.47C479.52,-295 455.5,-282.72 439,-266 425.8,-252.62 416.24,-233.25 410.48,-219.13"/>
<polygon fill="midnightblue" stroke="midnightblue" points="413.66,-217.64 406.82,-209.55 407.12,-220.14 413.66,-217.64"/>
</g>
<!-- Node29&#45;&gt;Node22 -->
<g id="edge40" class="edge">
<title>Node29&#45;&gt;Node22</title>
<path fill="none" stroke="midnightblue" d="M520.5,-302.08C520.89,-295.01 521.45,-284.86 521.95,-275.99"/>
<polygon fill="midnightblue" stroke="midnightblue" points="525.45,-275.93 522.51,-265.75 518.46,-275.54 525.45,-275.93"/>
</g>
<!-- Node29&#45;&gt;Node30 -->
<g id="edge34" class="edge">
<title>Node29&#45;&gt;Node30</title>
<path fill="none" stroke="midnightblue" d="M575.3,-302.44C637.33,-292.85 737.86,-277.29 803.7,-267.1"/>
<polygon fill="midnightblue" stroke="midnightblue" points="804.61,-270.5 813.96,-265.52 803.54,-263.59 804.61,-270.5"/>
</g>
<!-- Node30&#45;&gt;Node23 -->
<g id="edge35" class="edge">
<title>Node30&#45;&gt;Node23</title>
<path fill="none" stroke="midnightblue" d="M869,-246.08C869,-239.01 869,-228.86 869,-219.99"/>
<polygon fill="midnightblue" stroke="midnightblue" points="872.5,-219.75 869,-209.75 865.5,-219.75 872.5,-219.75"/>
</g>
<!-- Node31 -->
<g id="node31" class="node">
<title>Node31</title>
<g id="a_node31"><a xlink:title=" ">
<polygon fill="white" stroke="#bfbfbf" points="1254.5,-190.5 1254.5,-209.5 1357.5,-209.5 1357.5,-190.5 1254.5,-190.5"/>
<text text-anchor="middle" x="1306" y="-197.5" font-family="Helvetica,sans-Serif" font-size="10.00">G4ThreeVector.hh</text>
</a>
</g>
</g>
<!-- Node30&#45;&gt;Node31 -->
<g id="edge36" class="edge">
<title>Node30&#45;&gt;Node31</title>
<path fill="none" stroke="midnightblue" d="M930.68,-247.38C1013.8,-237.11 1160.89,-218.93 1244.11,-208.65"/>
<polygon fill="midnightblue" stroke="midnightblue" points="1244.69,-212.1 1254.18,-207.4 1243.83,-205.16 1244.69,-212.1"/>
</g>
<!-- Node32 -->
<g id="node32" class="node">
<title>Node32</title>
<g id="a_node32"><a xlink:title=" ">
<polygon fill="white" stroke="#bfbfbf" points="954.5,-190.5 954.5,-209.5 1009.5,-209.5 1009.5,-190.5 954.5,-190.5"/>
<text text-anchor="middle" x="982" y="-197.5" font-family="Helvetica,sans-Serif" font-size="10.00">fstream</text>
</a>
</g>
</g>
<!-- Node30&#45;&gt;Node32 -->
<g id="edge37" class="edge">
<title>Node30&#45;&gt;Node32</title>
<path fill="none" stroke="midnightblue" d="M886.91,-246.44C905.25,-237.68 934.01,-223.94 955.09,-213.86"/>
<polygon fill="midnightblue" stroke="midnightblue" points="956.67,-216.99 964.18,-209.52 953.65,-210.67 956.67,-216.99"/>
</g>
<!-- Node33 -->
<g id="node33" class="node">
<title>Node33</title>
<g id="a_node33"><a xlink:title=" ">
<polygon fill="white" stroke="#bfbfbf" points="581,-190.5 581,-209.5 671,-209.5 671,-190.5 581,-190.5"/>
<text text-anchor="middle" x="626" y="-197.5" font-family="Helvetica,sans-Serif" font-size="10.00">G4AutoLock.hh</text>
</a>
</g>
</g>
<!-- Node30&#45;&gt;Node33 -->
<g id="edge38" class="edge">
<title>Node30&#45;&gt;Node33</title>
<path fill="none" stroke="midnightblue" d="M830.5,-246.44C788.19,-237.04 720.18,-221.93 674.33,-211.74"/>
<polygon fill="midnightblue" stroke="midnightblue" points="674.85,-208.27 664.32,-209.52 673.33,-215.1 674.85,-208.27"/>
</g>
<!-- Node34 -->
<g id="node34" class="node">
<title>Node34</title>
<g id="a_node34"><a xlink:title=" ">
<polygon fill="white" stroke="#bfbfbf" points="689,-190.5 689,-209.5 783,-209.5 783,-190.5 689,-190.5"/>
<text text-anchor="middle" x="736" y="-197.5" font-family="Helvetica,sans-Serif" font-size="10.00">G4Threading.hh</text>
</a>
</g>
</g>
<!-- Node30&#45;&gt;Node34 -->
<g id="edge39" class="edge">
<title>Node30&#45;&gt;Node34</title>
<path fill="none" stroke="midnightblue" d="M847.93,-246.44C825.94,-237.52 791.27,-223.44 766.34,-213.32"/>
<polygon fill="midnightblue" stroke="midnightblue" points="767.56,-210.04 756.98,-209.52 764.92,-216.52 767.56,-210.04"/>
</g>
<!-- Node35&#45;&gt;Node22 -->
<g id="edge42" class="edge">
<title>Node35&#45;&gt;Node22</title>
<path fill="none" stroke="midnightblue" d="M577.03,-358.34C589.14,-345.65 607.9,-321.39 597,-302 588.78,-287.38 573.67,-276.95 559.24,-269.85"/>
<polygon fill="midnightblue" stroke="midnightblue" points="560.48,-266.57 549.93,-265.64 557.6,-272.95 560.48,-266.57"/>
</g>
<!-- Node35&#45;&gt;Node29 -->
<g id="edge43" class="edge">
<title>Node35&#45;&gt;Node29</title>
<path fill="none" stroke="midnightblue" d="M560.07,-358.08C553.15,-350.3 542.93,-338.8 534.55,-329.37"/>
<polygon fill="midnightblue" stroke="midnightblue" points="537.04,-326.9 527.78,-321.75 531.81,-331.55 537.04,-326.9"/>
</g>
<!-- Node36&#45;&gt;Node22 -->
<g id="edge45" class="edge">
<title>Node36&#45;&gt;Node22</title>
<path fill="none" stroke="midnightblue" d="M676.78,-358.18C664.03,-344.84 638.31,-319.28 613,-302 594.25,-289.2 571.35,-277.8 553.34,-269.68"/>
<polygon fill="midnightblue" stroke="midnightblue" points="554.46,-266.35 543.9,-265.51 551.63,-272.75 554.46,-266.35"/>
</g>
<!-- Node36&#45;&gt;Node29 -->
<g id="edge46" class="edge">
<title>Node36&#45;&gt;Node29</title>
<path fill="none" stroke="midnightblue" d="M658.86,-358.44C630.98,-349.32 586.65,-334.81 555.6,-324.65"/>
<polygon fill="midnightblue" stroke="midnightblue" points="556.62,-321.3 546.02,-321.52 554.44,-327.95 556.62,-321.3"/>
</g>
<!-- Node37&#45;&gt;Node22 -->
<g id="edge48" class="edge">
<title>Node37&#45;&gt;Node22</title>
<path fill="none" stroke="midnightblue" d="M782.54,-358.41C751.24,-345.91 691.21,-322 640,-302 611.26,-290.78 578.48,-278.19 554.94,-269.18"/>
<polygon fill="midnightblue" stroke="midnightblue" points="556.05,-265.86 545.46,-265.56 553.55,-272.4 556.05,-265.86"/>
</g>
<!-- Node37&#45;&gt;Node29 -->
<g id="edge49" class="edge">
<title>Node37&#45;&gt;Node29</title>
<path fill="none" stroke="midnightblue" d="M759,-358.44C709.04,-348.94 628.4,-333.61 574.8,-323.42"/>
<polygon fill="midnightblue" stroke="midnightblue" points="575.27,-319.95 564.79,-321.52 573.96,-326.82 575.27,-319.95"/>
</g>
<!-- Node38 -->
<g id="node38" class="node">
<title>Node38</title>
<g id="a_node38"><a xlink:title=" ">
<polygon fill="white" stroke="#bfbfbf" points="721,-302.5 721,-321.5 837,-321.5 837,-302.5 721,-302.5"/>
<text text-anchor="middle" x="779" y="-309.5" font-family="Helvetica,sans-Serif" font-size="10.00">G4LogicalVolume.hh</text>
</a>
</g>
</g>
<!-- Node37&#45;&gt;Node38 -->
<g id="edge50" class="edge">
<title>Node37&#45;&gt;Node38</title>
<path fill="none" stroke="midnightblue" d="M799.87,-358.08C796.49,-350.77 791.58,-340.18 787.38,-331.1"/>
<polygon fill="midnightblue" stroke="midnightblue" points="790.43,-329.36 783.05,-321.75 784.08,-332.3 790.43,-329.36"/>
</g>
<!-- Node39 -->
<g id="node39" class="node">
<title>Node39</title>
<g id="a_node39"><a xlink:title=" ">
<polygon fill="white" stroke="#bfbfbf" points="855.5,-302.5 855.5,-321.5 944.5,-321.5 944.5,-302.5 855.5,-302.5"/>
<text text-anchor="middle" x="900" y="-309.5" font-family="Helvetica,sans-Serif" font-size="10.00">G4Polycone.hh</text>
</a>
</g>
</g>
<!-- Node37&#45;&gt;Node39 -->
<g id="edge51" class="edge">
<title>Node37&#45;&gt;Node39</title>
<path fill="none" stroke="midnightblue" d="M819.42,-358.32C834.54,-349.82 857.82,-336.73 875.47,-326.8"/>
<polygon fill="midnightblue" stroke="midnightblue" points="877.61,-329.61 884.61,-321.65 874.18,-323.51 877.61,-329.61"/>
</g>
<!-- Node40&#45;&gt;Node22 -->
<g id="edge53" class="edge">
<title>Node40&#45;&gt;Node22</title>
<path fill="none" stroke="midnightblue" d="M448.92,-358.36C441.94,-345.26 431.41,-320 442,-302 450.92,-286.84 466.99,-276.43 482.48,-269.46"/>
<polygon fill="midnightblue" stroke="midnightblue" points="484.06,-272.6 491.98,-265.56 481.4,-266.12 484.06,-272.6"/>
</g>
<!-- Node40&#45;&gt;Node29 -->
<g id="edge54" class="edge">
<title>Node40&#45;&gt;Node29</title>
<path fill="none" stroke="midnightblue" d="M464.6,-358.32C474.46,-350.26 489.35,-338.08 501.22,-328.37"/>
<polygon fill="midnightblue" stroke="midnightblue" points="503.68,-330.88 509.2,-321.83 499.25,-325.46 503.68,-330.88"/>
</g>
<!-- Node41&#45;&gt;Node8 -->
<g id="edge56" class="edge">
<title>Node41&#45;&gt;Node8</title>
<path fill="none" stroke="midnightblue" d="M1143.05,-246.45C1183.92,-238.07 1223.62,-221.71 1207,-190 1181.85,-142.03 1124.21,-111.39 1087.02,-95.84"/>
<polygon fill="midnightblue" stroke="midnightblue" points="1088.16,-92.53 1077.58,-92.03 1085.54,-99.02 1088.16,-92.53"/>
</g>
<!-- Node41&#45;&gt;Node32 -->
<g id="edge57" class="edge">
<title>Node41&#45;&gt;Node32</title>
<path fill="none" stroke="midnightblue" d="M1055.86,-246.32C1042.13,-237.9 1021.06,-224.97 1004.94,-215.07"/>
<polygon fill="midnightblue" stroke="midnightblue" points="1006.46,-211.9 996.1,-209.65 1002.8,-217.87 1006.46,-211.9"/>
</g>
<!-- Node42 -->
<g id="node42" class="node">
<title>Node42</title>
<g id="a_node42"><a xlink:title=" ">
<polygon fill="white" stroke="#bfbfbf" points="1028,-190.5 1028,-209.5 1112,-209.5 1112,-190.5 1028,-190.5"/>
<text text-anchor="middle" x="1070" y="-197.5" font-family="Helvetica,sans-Serif" font-size="10.00">boost/any.hpp</text>
</a>
</g>
</g>
<!-- Node41&#45;&gt;Node42 -->
<g id="edge58" class="edge">
<title>Node41&#45;&gt;Node42</title>
<path fill="none" stroke="midnightblue" d="M1070,-246.08C1070,-239.01 1070,-228.86 1070,-219.99"/>
<polygon fill="midnightblue" stroke="midnightblue" points="1073.5,-219.75 1070,-209.75 1066.5,-219.75 1073.5,-219.75"/>
</g>
<!-- Node43 -->
<g id="node43" class="node">
<title>Node43</title>
<g id="a_node43"><a xlink:title=" ">
<polygon fill="white" stroke="#bfbfbf" points="1130,-190.5 1130,-209.5 1198,-209.5 1198,-190.5 1130,-190.5"/>
<text text-anchor="middle" x="1164" y="-197.5" font-family="Helvetica,sans-Serif" font-size="10.00">sys/time.h</text>
</a>
</g>
</g>
<!-- Node41&#45;&gt;Node43 -->
<g id="edge59" class="edge">
<title>Node41&#45;&gt;Node43</title>
<path fill="none" stroke="midnightblue" d="M1085.1,-246.32C1099.9,-237.82 1122.69,-224.73 1139.98,-214.8"/>
<polygon fill="midnightblue" stroke="midnightblue" points="1142.01,-217.67 1148.93,-209.65 1138.52,-211.6 1142.01,-217.67"/>
</g>
<!-- Node44&#45;&gt;Node13 -->
<g id="edge65" class="edge">
<title>Node44&#45;&gt;Node13</title>
<path fill="none" stroke="midnightblue" d="M1352.71,-246.08C1361.33,-233.48 1374.36,-209.78 1367,-190 1352.57,-151.22 1316.97,-117.14 1294.52,-98.51"/>
<polygon fill="midnightblue" stroke="midnightblue" points="1296.62,-95.7 1286.63,-92.15 1292.22,-101.15 1296.62,-95.7"/>
</g>
<!-- Node44&#45;&gt;Node23 -->
<g id="edge64" class="edge">
<title>Node44&#45;&gt;Node23</title>
<path fill="none" stroke="midnightblue" d="M1269.31,-246.47C1190.98,-237.74 1065.56,-223.69 946.62,-210.07"/>
<polygon fill="midnightblue" stroke="midnightblue" points="946.94,-206.58 936.6,-208.92 946.14,-213.53 946.94,-206.58"/>
</g>
<!-- Node44&#45;&gt;Node31 -->
<g id="edge63" class="edge">
<title>Node44&#45;&gt;Node31</title>
<path fill="none" stroke="midnightblue" d="M1339.39,-246.08C1333.74,-238.46 1325.46,-227.26 1318.55,-217.94"/>
<polygon fill="midnightblue" stroke="midnightblue" points="1321.25,-215.7 1312.48,-209.75 1315.62,-219.87 1321.25,-215.7"/>
</g>
<!-- Node45 -->
<g id="node45" class="node">
<title>Node45</title>
<g id="a_node45"><a xlink:title=" ">
<polygon fill="white" stroke="#bfbfbf" points="1414,-190.5 1414,-209.5 1552,-209.5 1552,-190.5 1414,-190.5"/>
<text text-anchor="middle" x="1483" y="-197.5" font-family="Helvetica,sans-Serif" font-size="10.00">G4VSensitiveDetector.hh</text>
</a>
</g>
</g>
<!-- Node44&#45;&gt;Node45 -->
<g id="edge62" class="edge">
<title>Node44&#45;&gt;Node45</title>
<path fill="none" stroke="midnightblue" d="M1367.71,-246.44C1390.35,-237.52 1426.07,-223.44 1451.75,-213.32"/>
<polygon fill="midnightblue" stroke="midnightblue" points="1453.37,-216.44 1461.39,-209.52 1450.81,-209.93 1453.37,-216.44"/>
</g>
<!-- Node46 -->
<g id="node46" class="node">
<title>Node46</title>
<g id="a_node46"><a xlink:title=" ">
<polygon fill="white" stroke="#bfbfbf" points="1570.5,-190.5 1570.5,-209.5 1617.5,-209.5 1617.5,-190.5 1570.5,-190.5"/>
<text text-anchor="middle" x="1594" y="-197.5" font-family="Helvetica,sans-Serif" font-size="10.00">vector</text>
</a>
</g>
</g>
<!-- Node44&#45;&gt;Node46 -->
<g id="edge66" class="edge">
<title>Node44&#45;&gt;Node46</title>
<path fill="none" stroke="midnightblue" d="M1390.65,-246.47C1432.12,-238.36 1495.82,-225.44 1560.32,-210.05"/>
<polygon fill="midnightblue" stroke="midnightblue" points="1561.35,-213.4 1570.25,-207.66 1559.71,-206.6 1561.35,-213.4"/>
</g>
</g>
</svg>
