<?xml version="1.0" encoding="UTF-8" standalone="no"?>
<!DOCTYPE svg PUBLIC "-//W3C//DTD SVG 1.1//EN"
 "http://www.w3.org/Graphics/SVG/1.1/DTD/svg11.dtd">
<!-- Generated by graphviz version 2.43.0 (0)
 -->
<!-- Title: OMSim_effective_area.cc Pages: 1 -->
<svg width="2612pt" height="423pt"
 viewBox="0.00 0.00 2611.50 423.00" xmlns="http://www.w3.org/2000/svg" xmlns:xlink="http://www.w3.org/1999/xlink">
<g id="graph0" class="graph" transform="scale(1 1) rotate(0) translate(4 419)">
<title>OMSim_effective_area.cc</title>
<!-- Node1 -->
<g id="Node000001" class="node">
<title>Node1</title>
<g id="a_Node000001"><a xlink:title="Main for the calculation of effective areas.">
<polygon fill="#999999" stroke="#666666" points="1272.5,-415 1132.5,-415 1132.5,-396 1272.5,-396 1272.5,-415"/>
<text text-anchor="middle" x="1202.5" y="-403" font-family="Helvetica,sans-Serif" font-size="10.00">OMSim_effective_area.cc</text>
</a>
</g>
</g>
<!-- Node2 -->
<g id="Node000002" class="node">
<title>Node2</title>
<g id="a_Node000002"><a xlink:title=" ">
<polygon fill="#e0e0e0" stroke="#999999" points="1136,-360 1069,-360 1069,-341 1136,-341 1136,-360"/>
<text text-anchor="middle" x="1102.5" y="-348" font-family="Helvetica,sans-Serif" font-size="10.00">OMSim.hh</text>
</a>
</g>
</g>
<!-- Node1&#45;&gt;Node2 -->
<g id="edge1_Node000001_Node000002" class="edge">
<title>Node1&#45;&gt;Node2</title>
<g id="a_edge1_Node000001_Node000002"><a xlink:title=" ">
<path fill="none" stroke="#63b8ff" d="M1186.43,-395.98C1170.64,-387.61 1146.28,-374.7 1127.87,-364.95"/>
<polygon fill="#63b8ff" stroke="#63b8ff" points="1129.33,-361.76 1118.86,-360.17 1126.06,-367.95 1129.33,-361.76"/>
</a>
</g>
</g>
<!-- Node3 -->
<g id="Node000003" class="node">
<title>Node3</title>
<g id="a_Node000003"><a xlink:href="_o_m_sim_angular_scan_8hh.html" target="_top" xlink:title="Defines the AngularScan class for configuring and running GPS beam with angular scans.">
<polygon fill="white" stroke="#666666" points="656.5,-305 528.5,-305 528.5,-286 656.5,-286 656.5,-305"/>
<text text-anchor="middle" x="592.5" y="-293" font-family="Helvetica,sans-Serif" font-size="10.00">OMSimAngularScan.hh</text>
</a>
</g>
</g>
<!-- Node1&#45;&gt;Node3 -->
<g id="edge2_Node000001_Node000003" class="edge">
<title>Node1&#45;&gt;Node3</title>
<g id="a_edge2_Node000001_Node000003"><a xlink:title=" ">
<path fill="none" stroke="#63b8ff" d="M1197.46,-395.59C1188.76,-381.2 1169.44,-353.22 1144.5,-341 1062.43,-300.8 797.86,-295.76 667.09,-295.84"/>
<polygon fill="#63b8ff" stroke="#63b8ff" points="666.76,-292.34 656.76,-295.85 666.77,-299.34 666.76,-292.34"/>
</a>
</g>
</g>
<!-- Node5 -->
<g id="Node000005" class="node">
<title>Node5</title>
<g id="a_Node000005"><a xlink:href="_o_m_sim_effective_area_analyisis_8hh_source.html" target="_top" xlink:title=" ">
<polygon fill="white" stroke="#666666" points="1508.5,-250 1332.5,-250 1332.5,-231 1508.5,-231 1508.5,-250"/>
<text text-anchor="middle" x="1420.5" y="-238" font-family="Helvetica,sans-Serif" font-size="10.00">OMSimEffectiveAreaAnalyisis.hh</text>
</a>
</g>
</g>
<!-- Node1&#45;&gt;Node5 -->
<g id="edge4_Node000001_Node000005" class="edge">
<title>Node1&#45;&gt;Node5</title>
<g id="a_edge4_Node000001_Node000005"><a xlink:title=" ">
<path fill="none" stroke="#63b8ff" d="M1213.91,-395.97C1249.07,-369.68 1356.05,-289.69 1400.65,-256.34"/>
<polygon fill="#63b8ff" stroke="#63b8ff" points="1403.02,-258.94 1408.94,-250.15 1398.83,-253.33 1403.02,-258.94"/>
</a>
</g>
</g>
<!-- Node15 -->
<g id="Node000015" class="node">
<title>Node15</title>
<g id="a_Node000015"><a xlink:href="_o_m_sim_effective_area_detector_8hh.html" target="_top" xlink:title="Defines the OMSimEffectiveAreaDetector class for effective area simulation detector construction.">
<polygon fill="white" stroke="#666666" points="1870,-360 1697,-360 1697,-341 1870,-341 1870,-360"/>
<text text-anchor="middle" x="1783.5" y="-348" font-family="Helvetica,sans-Serif" font-size="10.00">OMSimEffectiveAreaDetector.hh</text>
</a>
</g>
</g>
<!-- Node1&#45;&gt;Node15 -->
<g id="edge14_Node000001_Node000015" class="edge">
<title>Node1&#45;&gt;Node15</title>
<g id="a_edge14_Node000001_Node000015"><a xlink:title=" ">
<path fill="none" stroke="#63b8ff" d="M1272.58,-398.11C1375.96,-388.68 1569.67,-371.01 1686.59,-360.34"/>
<polygon fill="#63b8ff" stroke="#63b8ff" points="1686.98,-363.82 1696.62,-359.43 1686.34,-356.85 1686.98,-363.82"/>
</a>
</g>
</g>
<!-- Node43 -->
<g id="Node000043" class="node">
<title>Node43</title>
<g id="a_Node000043"><a xlink:href="_o_m_sim_tools_8hh.html" target="_top" xlink:title="Definition of Tools namespace, a collection of helper methods.">
<polygon fill="white" stroke="#666666" points="1188.5,-250 1096.5,-250 1096.5,-231 1188.5,-231 1188.5,-250"/>
<text text-anchor="middle" x="1142.5" y="-238" font-family="Helvetica,sans-Serif" font-size="10.00">OMSimTools.hh</text>
</a>
</g>
</g>
<!-- Node1&#45;&gt;Node43 -->
<g id="edge32_Node000001_Node000043" class="edge">
<title>Node1&#45;&gt;Node43</title>
<g id="a_edge32_Node000001_Node000043"><a xlink:title=" ">
<path fill="none" stroke="#63b8ff" d="M1199.27,-395.74C1189.83,-370.09 1162.11,-294.78 1149.23,-259.78"/>
<polygon fill="#63b8ff" stroke="#63b8ff" points="1152.48,-258.48 1145.74,-250.31 1145.91,-260.9 1152.48,-258.48"/>
</a>
</g>
</g>
<!-- Node4 -->
<g id="Node000004" class="node">
<title>Node4</title>
<g id="a_Node000004"><a xlink:title=" ">
<polygon fill="#e0e0e0" stroke="#999999" points="67,-140 0,-140 0,-121 67,-121 67,-140"/>
<text text-anchor="middle" x="33.5" y="-128" font-family="Helvetica,sans-Serif" font-size="10.00">globals.hh</text>
</a>
</g>
</g>
<!-- Node3&#45;&gt;Node4 -->
<g id="edge3_Node000003_Node000004" class="edge">
<title>Node3&#45;&gt;Node4</title>
<g id="a_edge3_Node000003_Node000004"><a xlink:title=" ">
<path fill="none" stroke="#63b8ff" d="M528.3,-291.24C399.93,-283.42 118.06,-259.2 49.5,-195 37.45,-183.72 33.92,-164.81 33.13,-150.55"/>
<polygon fill="#63b8ff" stroke="#63b8ff" points="36.62,-150.29 32.96,-140.35 29.62,-150.41 36.62,-150.29"/>
</a>
</g>
</g>
<!-- Node6 -->
<g id="Node000006" class="node">
<title>Node6</title>
<g id="a_Node000006"><a xlink:href="_o_m_sim_p_m_t_response_8hh.html" target="_top" xlink:title="Simulation of PMT response.">
<polygon fill="white" stroke="#666666" points="1848,-195 1713,-195 1713,-176 1848,-176 1848,-195"/>
<text text-anchor="middle" x="1780.5" y="-183" font-family="Helvetica,sans-Serif" font-size="10.00">OMSimPMTResponse.hh</text>
</a>
</g>
</g>
<!-- Node5&#45;&gt;Node6 -->
<g id="edge5_Node000005_Node000006" class="edge">
<title>Node5&#45;&gt;Node6</title>
<g id="a_edge5_Node000005_Node000006"><a xlink:title=" ">
<path fill="none" stroke="#63b8ff" d="M1478.34,-230.98C1542.15,-221.59 1644.72,-206.49 1712.37,-196.53"/>
<polygon fill="#63b8ff" stroke="#63b8ff" points="1713.12,-199.96 1722.51,-195.04 1712.1,-193.03 1713.12,-199.96"/>
</a>
</g>
</g>
<!-- Node12 -->
<g id="Node000012" class="node">
<title>Node12</title>
<g id="a_Node000012"><a xlink:title=" ">
<polygon fill="#e0e0e0" stroke="#999999" points="2315,-195 2192,-195 2192,-176 2315,-176 2315,-195"/>
<text text-anchor="middle" x="2253.5" y="-183" font-family="Helvetica,sans-Serif" font-size="10.00">OMSimHitManager.hh</text>
</a>
</g>
</g>
<!-- Node5&#45;&gt;Node12 -->
<g id="edge11_Node000005_Node000012" class="edge">
<title>Node5&#45;&gt;Node12</title>
<g id="a_edge11_Node000005_Node000012"><a xlink:title=" ">
<path fill="none" stroke="#63b8ff" d="M1508.75,-236.15C1649.11,-230.42 1932.08,-217.25 2181.7,-195.11"/>
<polygon fill="#63b8ff" stroke="#63b8ff" points="2182.04,-198.59 2191.69,-194.22 2181.41,-191.62 2182.04,-198.59"/>
</a>
</g>
</g>
<!-- Node13 -->
<g id="Node000013" class="node">
<title>Node13</title>
<g id="a_Node000013"><a xlink:title=" ">
<polygon fill="#e0e0e0" stroke="#999999" points="1311,-140 1208,-140 1208,-121 1311,-121 1311,-140"/>
<text text-anchor="middle" x="1259.5" y="-128" font-family="Helvetica,sans-Serif" font-size="10.00">G4ThreeVector.hh</text>
</a>
</g>
</g>
<!-- Node5&#45;&gt;Node13 -->
<g id="edge12_Node000005_Node000013" class="edge">
<title>Node5&#45;&gt;Node13</title>
<g id="a_edge12_Node000005_Node000013"><a xlink:title=" ">
<path fill="none" stroke="#63b8ff" d="M1414.46,-230.59C1404.98,-217.17 1385.42,-191.71 1363.5,-176 1343.75,-161.84 1318.79,-150.97 1298.27,-143.52"/>
<polygon fill="#63b8ff" stroke="#63b8ff" points="1299.2,-140.14 1288.6,-140.14 1296.88,-146.75 1299.2,-140.14"/>
</a>
</g>
</g>
<!-- Node14 -->
<g id="Node000014" class="node">
<title>Node14</title>
<g id="a_Node000014"><a xlink:title=" ">
<polygon fill="#e0e0e0" stroke="#999999" points="1384,-140 1329,-140 1329,-121 1384,-121 1384,-140"/>
<text text-anchor="middle" x="1356.5" y="-128" font-family="Helvetica,sans-Serif" font-size="10.00">fstream</text>
</a>
</g>
</g>
<!-- Node5&#45;&gt;Node14 -->
<g id="edge13_Node000005_Node000014" class="edge">
<title>Node5&#45;&gt;Node14</title>
<g id="a_edge13_Node000005_Node000014"><a xlink:title=" ">
<path fill="none" stroke="#63b8ff" d="M1418.33,-230.82C1414.91,-218.15 1407.53,-194.12 1396.5,-176 1390.18,-165.62 1381.28,-155.43 1373.48,-147.43"/>
<polygon fill="#63b8ff" stroke="#63b8ff" points="1375.76,-144.76 1366.19,-140.23 1370.85,-149.74 1375.76,-144.76"/>
</a>
</g>
</g>
<!-- Node7 -->
<g id="Node000007" class="node">
<title>Node7</title>
<g id="a_Node000007"><a xlink:title=" ">
<polygon fill="#e0e0e0" stroke="#999999" points="2039,-85 1920,-85 1920,-66 2039,-66 2039,-85"/>
<text text-anchor="middle" x="1979.5" y="-73" font-family="Helvetica,sans-Serif" font-size="10.00">G4SystemOfUnits.hh</text>
</a>
</g>
</g>
<!-- Node6&#45;&gt;Node7 -->
<g id="edge6_Node000006_Node000007" class="edge">
<title>Node6&#45;&gt;Node7</title>
<g id="a_edge6_Node000006_Node000007"><a xlink:title=" ">
<path fill="none" stroke="#63b8ff" d="M1824.48,-175.93C1852.56,-169.13 1888.93,-157.74 1917.5,-140 1937.44,-127.61 1955.61,-107.48 1967.05,-93.2"/>
<polygon fill="#63b8ff" stroke="#63b8ff" points="1969.9,-95.24 1973.26,-85.19 1964.37,-90.95 1969.9,-95.24"/>
</a>
</g>
</g>
<!-- Node8 -->
<g id="Node000008" class="node">
<title>Node8</title>
<g id="a_Node000008"><a xlink:title=" ">
<polygon fill="#e0e0e0" stroke="#999999" points="1908,-140 1835,-140 1835,-121 1908,-121 1908,-140"/>
<text text-anchor="middle" x="1871.5" y="-128" font-family="Helvetica,sans-Serif" font-size="10.00">G4Types.hh</text>
</a>
</g>
</g>
<!-- Node6&#45;&gt;Node8 -->
<g id="edge7_Node000006_Node000008" class="edge">
<title>Node6&#45;&gt;Node8</title>
<g id="a_edge7_Node000006_Node000008"><a xlink:title=" ">
<path fill="none" stroke="#63b8ff" d="M1795.12,-175.98C1809.36,-167.69 1831.25,-154.94 1847.95,-145.22"/>
<polygon fill="#63b8ff" stroke="#63b8ff" points="1849.73,-148.23 1856.61,-140.17 1846.21,-142.18 1849.73,-148.23"/>
</a>
</g>
</g>
<!-- Node9 -->
<g id="Node000009" class="node">
<title>Node9</title>
<g id="a_Node000009"><a xlink:title=" ">
<polygon fill="#e0e0e0" stroke="#999999" points="1666.5,-140 1628.5,-140 1628.5,-121 1666.5,-121 1666.5,-140"/>
<text text-anchor="middle" x="1647.5" y="-128" font-family="Helvetica,sans-Serif" font-size="10.00">map</text>
</a>
</g>
</g>
<!-- Node6&#45;&gt;Node9 -->
<g id="edge8_Node000006_Node000009" class="edge">
<title>Node6&#45;&gt;Node9</title>
<g id="a_edge8_Node000006_Node000009"><a xlink:title=" ">
<path fill="none" stroke="#63b8ff" d="M1759.13,-175.98C1736.57,-166.99 1700.89,-152.78 1675.96,-142.84"/>
<polygon fill="#63b8ff" stroke="#63b8ff" points="1677.24,-139.58 1666.66,-139.13 1674.65,-146.09 1677.24,-139.58"/>
</a>
</g>
</g>
<!-- Node10 -->
<g id="Node000010" class="node">
<title>Node10</title>
<g id="a_Node000010"><a xlink:title=" ">
<polygon fill="#e0e0e0" stroke="#999999" points="1817,-140 1756,-140 1756,-121 1817,-121 1817,-140"/>
<text text-anchor="middle" x="1786.5" y="-128" font-family="Helvetica,sans-Serif" font-size="10.00">TGraph.h</text>
</a>
</g>
</g>
<!-- Node6&#45;&gt;Node10 -->
<g id="edge9_Node000006_Node000010" class="edge">
<title>Node6&#45;&gt;Node10</title>
<g id="a_edge9_Node000006_Node000010"><a xlink:title=" ">
<path fill="none" stroke="#63b8ff" d="M1781.49,-175.75C1782.28,-168.8 1783.4,-158.85 1784.39,-150.13"/>
<polygon fill="#63b8ff" stroke="#63b8ff" points="1787.88,-150.42 1785.53,-140.09 1780.92,-149.63 1787.88,-150.42"/>
</a>
</g>
</g>
<!-- Node11 -->
<g id="Node000011" class="node">
<title>Node11</title>
<g id="a_Node000011"><a xlink:title=" ">
<polygon fill="#e0e0e0" stroke="#999999" points="1738,-140 1685,-140 1685,-121 1738,-121 1738,-140"/>
<text text-anchor="middle" x="1711.5" y="-128" font-family="Helvetica,sans-Serif" font-size="10.00">TH2D.h</text>
</a>
</g>
</g>
<!-- Node6&#45;&gt;Node11 -->
<g id="edge10_Node000006_Node000011" class="edge">
<title>Node6&#45;&gt;Node11</title>
<g id="a_edge10_Node000006_Node000011"><a xlink:title=" ">
<path fill="none" stroke="#63b8ff" d="M1769.41,-175.98C1759.01,-168 1743.24,-155.88 1730.78,-146.31"/>
<polygon fill="#63b8ff" stroke="#63b8ff" points="1732.85,-143.49 1722.79,-140.17 1728.59,-149.04 1732.85,-143.49"/>
</a>
</g>
</g>
<!-- Node16 -->
<g id="Node000016" class="node">
<title>Node16</title>
<g id="a_Node000016"><a xlink:href="_o_m_sim_detector_construction_8hh_source.html" target="_top" xlink:title=" ">
<polygon fill="white" stroke="#666666" points="2235.5,-305 2065.5,-305 2065.5,-286 2235.5,-286 2235.5,-305"/>
<text text-anchor="middle" x="2150.5" y="-293" font-family="Helvetica,sans-Serif" font-size="10.00">OMSimDetectorConstruction.hh</text>
</a>
</g>
</g>
<!-- Node15&#45;&gt;Node16 -->
<g id="edge15_Node000015_Node000016" class="edge">
<title>Node15&#45;&gt;Node16</title>
<g id="a_edge15_Node000015_Node000016"><a xlink:title=" ">
<path fill="none" stroke="#63b8ff" d="M1842.46,-340.98C1907.64,-331.57 2012.51,-316.43 2081.47,-306.47"/>
<polygon fill="#63b8ff" stroke="#63b8ff" points="2081.98,-309.93 2091.38,-305.04 2080.98,-303 2081.98,-309.93"/>
</a>
</g>
</g>
<!-- Node17 -->
<g id="Node000017" class="node">
<title>Node17</title>
<g id="a_Node000017"><a xlink:href="_o_m_sim_optical_module_8hh_source.html" target="_top" xlink:title=" ">
<polygon fill="#fff0f0" stroke="red" points="2160,-250 2023,-250 2023,-231 2160,-231 2160,-250"/>
<text text-anchor="middle" x="2091.5" y="-238" font-family="Helvetica,sans-Serif" font-size="10.00">OMSimOpticalModule.hh</text>
</a>
</g>
</g>
<!-- Node16&#45;&gt;Node17 -->
<g id="edge16_Node000016_Node000017" class="edge">
<title>Node16&#45;&gt;Node17</title>
<g id="a_edge16_Node000016_Node000017"><a xlink:title=" ">
<path fill="none" stroke="#63b8ff" d="M2141.02,-285.98C2132.3,-278.15 2119.16,-266.34 2108.6,-256.86"/>
<polygon fill="#63b8ff" stroke="#63b8ff" points="2110.93,-254.25 2101.15,-250.17 2106.25,-259.46 2110.93,-254.25"/>
</a>
</g>
</g>
<!-- Node41 -->
<g id="Node000041" class="node">
<title>Node41</title>
<g id="a_Node000041"><a xlink:title=" ">
<polygon fill="#e0e0e0" stroke="#999999" points="2240.5,-250 2178.5,-250 2178.5,-231 2240.5,-231 2240.5,-250"/>
<text text-anchor="middle" x="2209.5" y="-238" font-family="Helvetica,sans-Serif" font-size="10.00">G4Orb.hh</text>
</a>
</g>
</g>
<!-- Node16&#45;&gt;Node41 -->
<g id="edge30_Node000016_Node000041" class="edge">
<title>Node16&#45;&gt;Node41</title>
<g id="a_edge30_Node000016_Node000041"><a xlink:title=" ">
<path fill="none" stroke="#63b8ff" d="M2159.98,-285.98C2168.7,-278.15 2181.84,-266.34 2192.4,-256.86"/>
<polygon fill="#63b8ff" stroke="#63b8ff" points="2194.75,-259.46 2199.85,-250.17 2190.07,-254.25 2194.75,-259.46"/>
</a>
</g>
</g>
<!-- Node42 -->
<g id="Node000042" class="node">
<title>Node42</title>
<g id="a_Node000042"><a xlink:title=" ">
<polygon fill="#e0e0e0" stroke="#999999" points="2436.5,-250 2258.5,-250 2258.5,-231 2436.5,-231 2436.5,-250"/>
<text text-anchor="middle" x="2347.5" y="-238" font-family="Helvetica,sans-Serif" font-size="10.00">G4VUserDetectorConstruction.hh</text>
</a>
</g>
</g>
<!-- Node16&#45;&gt;Node42 -->
<g id="edge31_Node000016_Node000042" class="edge">
<title>Node16&#45;&gt;Node42</title>
<g id="a_edge31_Node000016_Node000042"><a xlink:title=" ">
<path fill="none" stroke="#63b8ff" d="M2182.15,-285.98C2215.66,-276.97 2268.7,-262.7 2305.64,-252.76"/>
<polygon fill="#63b8ff" stroke="#63b8ff" points="2306.85,-256.06 2315.6,-250.08 2305.03,-249.3 2306.85,-256.06"/>
</a>
</g>
</g>
<!-- Node17&#45;&gt;Node12 -->
<g id="edge29_Node000017_Node000012" class="edge">
<title>Node17&#45;&gt;Node12</title>
<g id="a_edge29_Node000017_Node000012"><a xlink:title=" ">
<path fill="none" stroke="#63b8ff" d="M2117.53,-230.98C2144.61,-222.13 2187.21,-208.19 2217.51,-198.28"/>
<polygon fill="#63b8ff" stroke="#63b8ff" points="2218.85,-201.52 2227.27,-195.08 2216.68,-194.87 2218.85,-201.52"/>
</a>
</g>
</g>
<!-- Node18 -->
<g id="Node000018" class="node">
<title>Node18</title>
<g id="a_Node000018"><a xlink:href="_o_m_sim_detector_component_8hh.html" target="_top" xlink:title="Provides helper base class OMSimDetectorComponent for constructing and managing detector components i...">
<polygon fill="white" stroke="#666666" points="2174,-195 2009,-195 2009,-176 2174,-176 2174,-195"/>
<text text-anchor="middle" x="2091.5" y="-183" font-family="Helvetica,sans-Serif" font-size="10.00">OMSimDetectorComponent.hh</text>
</a>
</g>
</g>
<!-- Node17&#45;&gt;Node18 -->
<g id="edge17_Node000017_Node000018" class="edge">
<title>Node17&#45;&gt;Node18</title>
<g id="a_edge17_Node000017_Node000018"><a xlink:title=" ">
<path fill="none" stroke="#63b8ff" d="M2091.5,-230.75C2091.5,-223.8 2091.5,-213.85 2091.5,-205.13"/>
<polygon fill="#63b8ff" stroke="#63b8ff" points="2095,-205.09 2091.5,-195.09 2088,-205.09 2095,-205.09"/>
</a>
</g>
</g>
<!-- Node19 -->
<g id="Node000019" class="node">
<title>Node19</title>
<g id="a_Node000019"><a xlink:href="_o_m_sim_input_data_8hh.html" target="_top" xlink:title="Definition of ParameterTable and OMSimInputData.">
<polygon fill="#fff0f0" stroke="red" points="2080,-140 1965,-140 1965,-121 2080,-121 2080,-140"/>
<text text-anchor="middle" x="2022.5" y="-128" font-family="Helvetica,sans-Serif" font-size="10.00">OMSimInputData.hh</text>
</a>
</g>
</g>
<!-- Node18&#45;&gt;Node19 -->
<g id="edge18_Node000018_Node000019" class="edge">
<title>Node18&#45;&gt;Node19</title>
<g id="a_edge18_Node000018_Node000019"><a xlink:title=" ">
<path fill="none" stroke="#63b8ff" d="M2080.41,-175.98C2070.01,-168 2054.24,-155.88 2041.78,-146.31"/>
<polygon fill="#63b8ff" stroke="#63b8ff" points="2043.85,-143.49 2033.79,-140.17 2039.59,-149.04 2043.85,-143.49"/>
</a>
</g>
</g>
<!-- Node34 -->
<g id="Node000034" class="node">
<title>Node34</title>
<g id="a_Node000034"><a xlink:title=" ">
<polygon fill="#e0e0e0" stroke="#999999" points="2477,-140 2370,-140 2370,-121 2477,-121 2477,-140"/>
<text text-anchor="middle" x="2423.5" y="-128" font-family="Helvetica,sans-Serif" font-size="10.00">G4Transform3D.hh</text>
</a>
</g>
</g>
<!-- Node18&#45;&gt;Node34 -->
<g id="edge25_Node000018_Node000034" class="edge">
<title>Node18&#45;&gt;Node34</title>
<g id="a_edge25_Node000018_Node000034"><a xlink:title=" ">
<path fill="none" stroke="#63b8ff" d="M2144.84,-175.98C2203.44,-166.63 2297.51,-151.61 2359.9,-141.65"/>
<polygon fill="#63b8ff" stroke="#63b8ff" points="2360.69,-145.07 2370.02,-140.04 2359.59,-138.16 2360.69,-145.07"/>
</a>
</g>
</g>
<!-- Node35 -->
<g id="Node000035" class="node">
<title>Node35</title>
<g id="a_Node000035"><a xlink:title=" ">
<polygon fill="#e0e0e0" stroke="#999999" points="2603.5,-140 2495.5,-140 2495.5,-121 2603.5,-121 2603.5,-140"/>
<text text-anchor="middle" x="2549.5" y="-128" font-family="Helvetica,sans-Serif" font-size="10.00">G4VisAttributes.hh</text>
</a>
</g>
</g>
<!-- Node18&#45;&gt;Node35 -->
<g id="edge26_Node000018_Node000035" class="edge">
<title>Node18&#45;&gt;Node35</title>
<g id="a_edge26_Node000018_Node000035"><a xlink:title=" ">
<path fill="none" stroke="#63b8ff" d="M2171.75,-175.98C2249.34,-167.62 2370.5,-154.26 2485.2,-140.14"/>
<polygon fill="#63b8ff" stroke="#63b8ff" points="2485.72,-143.6 2495.21,-138.9 2484.86,-136.65 2485.72,-143.6"/>
</a>
</g>
</g>
<!-- Node36 -->
<g id="Node000036" class="node">
<title>Node36</title>
<g id="a_Node000036"><a xlink:title=" ">
<polygon fill="#e0e0e0" stroke="#999999" points="2223,-140 2098,-140 2098,-121 2223,-121 2223,-140"/>
<text text-anchor="middle" x="2160.5" y="-128" font-family="Helvetica,sans-Serif" font-size="10.00">G4SubtractionSolid.hh</text>
</a>
</g>
</g>
<!-- Node18&#45;&gt;Node36 -->
<g id="edge27_Node000018_Node000036" class="edge">
<title>Node18&#45;&gt;Node36</title>
<g id="a_edge27_Node000018_Node000036"><a xlink:title=" ">
<path fill="none" stroke="#63b8ff" d="M2102.59,-175.98C2112.99,-168 2128.76,-155.88 2141.22,-146.31"/>
<polygon fill="#63b8ff" stroke="#63b8ff" points="2143.41,-149.04 2149.21,-140.17 2139.15,-143.49 2143.41,-149.04"/>
</a>
</g>
</g>
<!-- Node37 -->
<g id="Node000037" class="node">
<title>Node37</title>
<g id="a_Node000037"><a xlink:title=" ">
<polygon fill="#e0e0e0" stroke="#999999" points="2351.5,-140 2241.5,-140 2241.5,-121 2351.5,-121 2351.5,-140"/>
<text text-anchor="middle" x="2296.5" y="-128" font-family="Helvetica,sans-Serif" font-size="10.00">G4PVPlacement.hh</text>
</a>
</g>
</g>
<!-- Node18&#45;&gt;Node37 -->
<g id="edge28_Node000018_Node000037" class="edge">
<title>Node18&#45;&gt;Node37</title>
<g id="a_edge28_Node000018_Node000037"><a xlink:title=" ">
<path fill="none" stroke="#63b8ff" d="M2124.44,-175.98C2159.45,-166.93 2214.97,-152.58 2253.43,-142.64"/>
<polygon fill="#63b8ff" stroke="#63b8ff" points="2254.5,-145.97 2263.31,-140.08 2252.75,-139.2 2254.5,-145.97"/>
</a>
</g>
</g>
<!-- Node19&#45;&gt;Node7 -->
<g id="edge24_Node000019_Node000007" class="edge">
<title>Node19&#45;&gt;Node7</title>
<g id="a_edge24_Node000019_Node000007"><a xlink:title=" ">
<path fill="none" stroke="#63b8ff" d="M2015.4,-120.75C2009.33,-113.26 2000.41,-102.28 1992.99,-93.13"/>
<polygon fill="#63b8ff" stroke="#63b8ff" points="1995.49,-90.65 1986.47,-85.09 1990.05,-95.06 1995.49,-90.65"/>
</a>
</g>
</g>
<!-- Node20 -->
<g id="Node000020" class="node">
<title>Node20</title>
<g id="a_Node000020"><a xlink:href="_o_m_sim_logger_8hh_source.html" target="_top" xlink:title=" ">
<polygon fill="white" stroke="#666666" points="1022,-85 923,-85 923,-66 1022,-66 1022,-85"/>
<text text-anchor="middle" x="972.5" y="-73" font-family="Helvetica,sans-Serif" font-size="10.00">OMSimLogger.hh</text>
</a>
</g>
</g>
<!-- Node19&#45;&gt;Node20 -->
<g id="edge19_Node000019_Node000020" class="edge">
<title>Node19&#45;&gt;Node20</title>
<g id="a_edge19_Node000019_Node000020"><a xlink:title=" ">
<path fill="none" stroke="#63b8ff" d="M1964.76,-124.47C1949.41,-123.23 1932.83,-121.98 1917.5,-121 1583.36,-99.61 1182.14,-84.07 1032.56,-78.62"/>
<polygon fill="#63b8ff" stroke="#63b8ff" points="1032.35,-75.11 1022.23,-78.25 1032.09,-82.11 1032.35,-75.11"/>
</a>
</g>
</g>
<!-- Node21 -->
<g id="Node000021" class="node">
<title>Node21</title>
<g id="a_Node000021"><a xlink:title=" ">
<polygon fill="#e0e0e0" stroke="#999999" points="1019,-24.5 926,-24.5 926,-5.5 1019,-5.5 1019,-24.5"/>
<text text-anchor="middle" x="972.5" y="-12.5" font-family="Helvetica,sans-Serif" font-size="10.00">spdlog/spdlog.h</text>
</a>
</g>
</g>
<!-- Node20&#45;&gt;Node21 -->
<g id="edge20_Node000020_Node000021" class="edge">
<title>Node20&#45;&gt;Node21</title>
<g id="a_edge20_Node000020_Node000021"><a xlink:title=" ">
<path fill="none" stroke="#63b8ff" d="M972.5,-65.87C972.5,-57.75 972.5,-45.31 972.5,-34.89"/>
<polygon fill="#63b8ff" stroke="#63b8ff" points="976,-34.67 972.5,-24.67 969,-34.67 976,-34.67"/>
</a>
</g>
</g>
<!-- Node22 -->
<g id="Node000022" class="node">
<title>Node22</title>
<g id="a_Node000022"><a xlink:title=" ">
<polygon fill="#e0e0e0" stroke="#999999" points="1148,-30 1037,-30 1037,0 1148,0 1148,-30"/>
<text text-anchor="start" x="1045" y="-18" font-family="Helvetica,sans-Serif" font-size="10.00">spdlog/sinks/stdout</text>
<text text-anchor="middle" x="1092.5" y="-7" font-family="Helvetica,sans-Serif" font-size="10.00">_color_sinks.h</text>
</a>
</g>
</g>
<!-- Node20&#45;&gt;Node22 -->
<g id="edge21_Node000020_Node000022" class="edge">
<title>Node20&#45;&gt;Node22</title>
<g id="a_edge21_Node000020_Node000022"><a xlink:title=" ">
<path fill="none" stroke="#63b8ff" d="M989.95,-65.99C1006.71,-57.82 1032.6,-45.2 1054.17,-34.69"/>
<polygon fill="#63b8ff" stroke="#63b8ff" points="1055.96,-37.71 1063.42,-30.18 1052.9,-31.41 1055.96,-37.71"/>
</a>
</g>
</g>
<!-- Node23 -->
<g id="Node000023" class="node">
<title>Node23</title>
<g id="a_Node000023"><a xlink:title=" ">
<polygon fill="#e0e0e0" stroke="#999999" points="477.5,-24.5 419.5,-24.5 419.5,-5.5 477.5,-5.5 477.5,-24.5"/>
<text text-anchor="middle" x="448.5" y="-12.5" font-family="Helvetica,sans-Serif" font-size="10.00">memory</text>
</a>
</g>
</g>
<!-- Node20&#45;&gt;Node23 -->
<g id="edge22_Node000020_Node000023" class="edge">
<title>Node20&#45;&gt;Node23</title>
<g id="a_edge22_Node000020_Node000023"><a xlink:title=" ">
<path fill="none" stroke="#63b8ff" d="M922.73,-68.94C819.05,-57.37 581.75,-30.88 487.82,-20.39"/>
<polygon fill="#63b8ff" stroke="#63b8ff" points="487.95,-16.88 477.62,-19.25 487.17,-23.84 487.95,-16.88"/>
</a>
</g>
</g>
<!-- Node24 -->
<g id="Node000024" class="node">
<title>Node24</title>
<g id="a_Node000024"><a xlink:title=" ">
<polygon fill="#e0e0e0" stroke="#999999" points="907.5,-24.5 809.5,-24.5 809.5,-5.5 907.5,-5.5 907.5,-24.5"/>
<text text-anchor="middle" x="858.5" y="-12.5" font-family="Helvetica,sans-Serif" font-size="10.00">spdlog/fmt/fmt.h</text>
</a>
</g>
</g>
<!-- Node20&#45;&gt;Node24 -->
<g id="edge23_Node000020_Node000024" class="edge">
<title>Node20&#45;&gt;Node24</title>
<g id="a_edge23_Node000020_Node000024"><a xlink:title=" ">
<path fill="none" stroke="#63b8ff" d="M955.68,-65.87C936.9,-56.23 906.3,-40.53 884.45,-29.31"/>
<polygon fill="#63b8ff" stroke="#63b8ff" points="885.89,-26.12 875.39,-24.67 882.69,-32.35 885.89,-26.12"/>
</a>
</g>
</g>
<!-- Node43&#45;&gt;Node4 -->
<g id="edge42_Node000043_Node000004" class="edge">
<title>Node43&#45;&gt;Node4</title>
<g id="a_edge42_Node000043_Node000004"><a xlink:title=" ">
<path fill="none" stroke="#63b8ff" d="M1096.26,-238.8C896.55,-235.62 116.11,-221.53 71.5,-195 54.97,-185.17 44.78,-165.13 39.17,-150.18"/>
<polygon fill="#63b8ff" stroke="#63b8ff" points="42.38,-148.76 35.86,-140.41 35.75,-151 42.38,-148.76"/>
</a>
</g>
</g>
<!-- Node43&#45;&gt;Node10 -->
<g id="edge43_Node000043_Node000010" class="edge">
<title>Node43&#45;&gt;Node10</title>
<g id="a_edge43_Node000043_Node000010"><a xlink:title=" ">
<path fill="none" stroke="#63b8ff" d="M1188.63,-237.57C1297.09,-232.69 1565.65,-218.55 1652.5,-195 1693.88,-183.78 1738.13,-160.28 1764.01,-145.23"/>
<polygon fill="#63b8ff" stroke="#63b8ff" points="1765.85,-148.21 1772.67,-140.11 1762.28,-142.19 1765.85,-148.21"/>
</a>
</g>
</g>
<!-- Node43&#45;&gt;Node11 -->
<g id="edge44_Node000043_Node000011" class="edge">
<title>Node43&#45;&gt;Node11</title>
<g id="a_edge44_Node000043_Node000011"><a xlink:title=" ">
<path fill="none" stroke="#63b8ff" d="M1188.82,-236.56C1301.1,-229.25 1581.54,-209.75 1621.5,-195 1650.18,-184.42 1678.13,-162.29 1695.08,-147.17"/>
<polygon fill="#63b8ff" stroke="#63b8ff" points="1697.47,-149.72 1702.48,-140.38 1692.74,-144.57 1697.47,-149.72"/>
</a>
</g>
</g>
<!-- Node43&#45;&gt;Node13 -->
<g id="edge47_Node000043_Node000013" class="edge">
<title>Node43&#45;&gt;Node13</title>
<g id="a_edge47_Node000043_Node000013"><a xlink:title=" ">
<path fill="none" stroke="#63b8ff" d="M1116.51,-230.96C1087.18,-219.95 1045.83,-199.41 1064.5,-176 1072.97,-165.38 1143.89,-151.13 1197.78,-141.64"/>
<polygon fill="#63b8ff" stroke="#63b8ff" points="1198.72,-145.03 1207.97,-139.87 1197.52,-138.14 1198.72,-145.03"/>
</a>
</g>
</g>
<!-- Node43&#45;&gt;Node18 -->
<g id="edge34_Node000043_Node000018" class="edge">
<title>Node43&#45;&gt;Node18</title>
<g id="a_edge34_Node000043_Node000018"><a xlink:title=" ">
<path fill="none" stroke="#63b8ff" d="M1188.59,-236.93C1336.17,-228.68 1799.01,-202.83 1998.5,-191.69"/>
<polygon fill="#63b8ff" stroke="#63b8ff" points="1998.87,-195.18 2008.66,-191.13 1998.48,-188.19 1998.87,-195.18"/>
</a>
</g>
</g>
<!-- Node43&#45;&gt;Node20 -->
<g id="edge33_Node000043_Node000020" class="edge">
<title>Node43&#45;&gt;Node20</title>
<g id="a_edge33_Node000043_Node000020"><a xlink:title=" ">
<path fill="none" stroke="#63b8ff" d="M1096.23,-238.45C909.19,-233.72 215.93,-211.45 152.5,-140 146.89,-133.69 146.69,-127.13 152.5,-121 178.59,-93.46 728.17,-80.95 912.69,-77.52"/>
<polygon fill="#63b8ff" stroke="#63b8ff" points="912.82,-81.02 922.76,-77.33 912.69,-74.02 912.82,-81.02"/>
</a>
</g>
</g>
<!-- Node44 -->
<g id="Node000044" class="node">
<title>Node44</title>
<g id="a_Node000044"><a xlink:href="_o_m_sim_command_args_table_8hh.html" target="_top" xlink:title="Definition of the OMSimCommandArgsTable singleton class, which controls user args.">
<polygon fill="white" stroke="#666666" points="1612.5,-195 1448.5,-195 1448.5,-176 1612.5,-176 1612.5,-195"/>
<text text-anchor="middle" x="1530.5" y="-183" font-family="Helvetica,sans-Serif" font-size="10.00">OMSimCommandArgsTable.hh</text>
</a>
</g>
</g>
<!-- Node43&#45;&gt;Node44 -->
<g id="edge35_Node000043_Node000044" class="edge">
<title>Node43&#45;&gt;Node44</title>
<g id="a_edge35_Node000043_Node000044"><a xlink:title=" ">
<path fill="none" stroke="#63b8ff" d="M1188.53,-233.21C1255.1,-224.12 1378.89,-207.21 1457.85,-196.42"/>
<polygon fill="#63b8ff" stroke="#63b8ff" points="1458.78,-199.83 1468.21,-195.01 1457.83,-192.89 1458.78,-199.83"/>
</a>
</g>
</g>
<!-- Node47 -->
<g id="Node000047" class="node">
<title>Node47</title>
<g id="a_Node000047"><a xlink:title=" ">
<polygon fill="#e0e0e0" stroke="#999999" points="1211,-195 1074,-195 1074,-176 1211,-176 1211,-195"/>
<text text-anchor="middle" x="1142.5" y="-183" font-family="Helvetica,sans-Serif" font-size="10.00">G4LogicalSkinSurface.hh</text>
</a>
</g>
</g>
<!-- Node43&#45;&gt;Node47 -->
<g id="edge41_Node000043_Node000047" class="edge">
<title>Node43&#45;&gt;Node47</title>
<g id="a_edge41_Node000043_Node000047"><a xlink:title=" ">
<path fill="none" stroke="#63b8ff" d="M1142.5,-230.75C1142.5,-223.8 1142.5,-213.85 1142.5,-205.13"/>
<polygon fill="#63b8ff" stroke="#63b8ff" points="1146,-205.09 1142.5,-195.09 1139,-205.09 1146,-205.09"/>
</a>
</g>
</g>
<!-- Node48 -->
<g id="Node000048" class="node">
<title>Node48</title>
<g id="a_Node000048"><a xlink:title=" ">
<polygon fill="#e0e0e0" stroke="#999999" points="1280,-195 1229,-195 1229,-176 1280,-176 1280,-195"/>
<text text-anchor="middle" x="1254.5" y="-183" font-family="Helvetica,sans-Serif" font-size="10.00">variant</text>
</a>
</g>
</g>
<!-- Node43&#45;&gt;Node48 -->
<g id="edge45_Node000043_Node000048" class="edge">
<title>Node43&#45;&gt;Node48</title>
<g id="a_edge45_Node000043_Node000048"><a xlink:title=" ">
<path fill="none" stroke="#63b8ff" d="M1160.49,-230.98C1178.43,-222.5 1206.22,-209.35 1226.93,-199.54"/>
<polygon fill="#63b8ff" stroke="#63b8ff" points="1228.64,-202.61 1236.18,-195.17 1225.64,-196.28 1228.64,-202.61"/>
</a>
</g>
</g>
<!-- Node49 -->
<g id="Node000049" class="node">
<title>Node49</title>
<g id="a_Node000049"><a xlink:title=" ">
<polygon fill="#e0e0e0" stroke="#999999" points="1354.5,-195 1298.5,-195 1298.5,-176 1354.5,-176 1354.5,-195"/>
<text text-anchor="middle" x="1326.5" y="-183" font-family="Helvetica,sans-Serif" font-size="10.00">optional</text>
</a>
</g>
</g>
<!-- Node43&#45;&gt;Node49 -->
<g id="edge46_Node000043_Node000049" class="edge">
<title>Node43&#45;&gt;Node49</title>
<g id="a_edge46_Node000043_Node000049"><a xlink:title=" ">
<path fill="none" stroke="#63b8ff" d="M1172.06,-230.98C1203.68,-221.88 1253.94,-207.4 1288.48,-197.45"/>
<polygon fill="#63b8ff" stroke="#63b8ff" points="1289.58,-200.78 1298.22,-194.65 1287.64,-194.05 1289.58,-200.78"/>
</a>
</g>
</g>
<!-- Node50 -->
<g id="Node000050" class="node">
<title>Node50</title>
<g id="a_Node000050"><a xlink:title=" ">
<polygon fill="#e0e0e0" stroke="#999999" points="740.5,-195 622.5,-195 622.5,-176 740.5,-176 740.5,-195"/>
<text text-anchor="middle" x="681.5" y="-183" font-family="Helvetica,sans-Serif" font-size="10.00">G4RotationMatrix.hh</text>
</a>
</g>
</g>
<!-- Node43&#45;&gt;Node50 -->
<g id="edge48_Node000043_Node000050" class="edge">
<title>Node43&#45;&gt;Node50</title>
<g id="a_edge48_Node000043_Node000050"><a xlink:title=" ">
<path fill="none" stroke="#63b8ff" d="M1096.5,-234.47C1024.96,-226.6 882.43,-210.77 751.08,-195.18"/>
<polygon fill="#63b8ff" stroke="#63b8ff" points="751.18,-191.66 740.83,-193.96 750.35,-198.61 751.18,-191.66"/>
</a>
</g>
</g>
<!-- Node51 -->
<g id="Node000051" class="node">
<title>Node51</title>
<g id="a_Node000051"><a xlink:title=" ">
<polygon fill="#e0e0e0" stroke="#999999" points="1189.5,-140 1073.5,-140 1073.5,-121 1189.5,-121 1189.5,-140"/>
<text text-anchor="middle" x="1131.5" y="-128" font-family="Helvetica,sans-Serif" font-size="10.00">G4LogicalVolume.hh</text>
</a>
</g>
</g>
<!-- Node43&#45;&gt;Node51 -->
<g id="edge49_Node000043_Node000051" class="edge">
<title>Node43&#45;&gt;Node51</title>
<g id="a_edge49_Node000043_Node000051"><a xlink:title=" ">
<path fill="none" stroke="#63b8ff" d="M1096.47,-233.35C1072.85,-227.61 1046.04,-216.5 1031.5,-195 1014.67,-170.12 1049.61,-152.95 1082.71,-142.8"/>
<polygon fill="#63b8ff" stroke="#63b8ff" points="1083.78,-146.14 1092.41,-140 1081.83,-139.42 1083.78,-146.14"/>
</a>
</g>
</g>
<!-- Node52 -->
<g id="Node000052" class="node">
<title>Node52</title>
<g id="a_Node000052"><a xlink:href="_c_a_d_mesh_8hh_source.html" target="_top" xlink:title=" ">
<polygon fill="#fff0f0" stroke="red" points="838,-195 759,-195 759,-176 838,-176 838,-195"/>
<text text-anchor="middle" x="798.5" y="-183" font-family="Helvetica,sans-Serif" font-size="10.00">CADMesh.hh</text>
</a>
</g>
</g>
<!-- Node43&#45;&gt;Node52 -->
<g id="edge50_Node000043_Node000052" class="edge">
<title>Node43&#45;&gt;Node52</title>
<g id="a_edge50_Node000043_Node000052"><a xlink:title=" ">
<path fill="none" stroke="#63b8ff" d="M1096.46,-232.41C1031.9,-222.46 914.93,-204.44 848.37,-194.18"/>
<polygon fill="#63b8ff" stroke="#63b8ff" points="848.55,-190.67 838.13,-192.61 847.48,-197.59 848.55,-190.67"/>
</a>
</g>
</g>
<!-- Node67 -->
<g id="Node000067" class="node">
<title>Node67</title>
<g id="a_Node000067"><a xlink:title=" ">
<polygon fill="#e0e0e0" stroke="#999999" points="178.5,-195 80.5,-195 80.5,-176 178.5,-176 178.5,-195"/>
<text text-anchor="middle" x="129.5" y="-183" font-family="Helvetica,sans-Serif" font-size="10.00">G4MultiUnion.hh</text>
</a>
</g>
</g>
<!-- Node43&#45;&gt;Node67 -->
<g id="edge66_Node000043_Node000067" class="edge">
<title>Node43&#45;&gt;Node67</title>
<g id="a_edge66_Node000043_Node000067"><a xlink:title=" ">
<path fill="none" stroke="#63b8ff" d="M1096.43,-238.77C958.85,-236.27 539.05,-226.43 192.5,-195 191.23,-194.89 189.95,-194.76 188.66,-194.64"/>
<polygon fill="#63b8ff" stroke="#63b8ff" points="188.95,-191.15 178.63,-193.55 188.2,-198.11 188.95,-191.15"/>
</a>
</g>
</g>
<!-- Node44&#45;&gt;Node9 -->
<g id="edge40_Node000044_Node000009" class="edge">
<title>Node44&#45;&gt;Node9</title>
<g id="a_edge40_Node000044_Node000009"><a xlink:title=" ">
<path fill="none" stroke="#63b8ff" d="M1549.3,-175.98C1568.12,-167.46 1597.32,-154.23 1619,-144.41"/>
<polygon fill="#63b8ff" stroke="#63b8ff" points="1620.7,-147.48 1628.36,-140.17 1617.81,-141.11 1620.7,-147.48"/>
</a>
</g>
</g>
<!-- Node44&#45;&gt;Node14 -->
<g id="edge37_Node000044_Node000014" class="edge">
<title>Node44&#45;&gt;Node14</title>
<g id="a_edge37_Node000044_Node000014"><a xlink:title=" ">
<path fill="none" stroke="#63b8ff" d="M1502.54,-175.98C1473.03,-166.99 1426.35,-152.78 1393.74,-142.84"/>
<polygon fill="#63b8ff" stroke="#63b8ff" points="1394.69,-139.47 1384.1,-139.91 1392.65,-146.17 1394.69,-139.47"/>
</a>
</g>
</g>
<!-- Node44&#45;&gt;Node20 -->
<g id="edge36_Node000044_Node000020" class="edge">
<title>Node44&#45;&gt;Node20</title>
<g id="a_edge36_Node000044_Node000020"><a xlink:title=" ">
<path fill="none" stroke="#63b8ff" d="M1545.9,-175.96C1566.58,-163.46 1598.83,-139.64 1581.5,-121 1544.63,-81.33 1178.59,-76.64 1032.37,-76.36"/>
<polygon fill="#63b8ff" stroke="#63b8ff" points="1032.24,-72.86 1022.23,-76.35 1032.23,-79.86 1032.24,-72.86"/>
</a>
</g>
</g>
<!-- Node45 -->
<g id="Node000045" class="node">
<title>Node45</title>
<g id="a_Node000045"><a xlink:title=" ">
<polygon fill="#e0e0e0" stroke="#999999" points="1572.5,-140 1488.5,-140 1488.5,-121 1572.5,-121 1572.5,-140"/>
<text text-anchor="middle" x="1530.5" y="-128" font-family="Helvetica,sans-Serif" font-size="10.00">boost/any.hpp</text>
</a>
</g>
</g>
<!-- Node44&#45;&gt;Node45 -->
<g id="edge38_Node000044_Node000045" class="edge">
<title>Node44&#45;&gt;Node45</title>
<g id="a_edge38_Node000044_Node000045"><a xlink:title=" ">
<path fill="none" stroke="#63b8ff" d="M1530.5,-175.75C1530.5,-168.8 1530.5,-158.85 1530.5,-150.13"/>
<polygon fill="#63b8ff" stroke="#63b8ff" points="1534,-150.09 1530.5,-140.09 1527,-150.09 1534,-150.09"/>
</a>
</g>
</g>
<!-- Node46 -->
<g id="Node000046" class="node">
<title>Node46</title>
<g id="a_Node000046"><a xlink:title=" ">
<polygon fill="#e0e0e0" stroke="#999999" points="1470.5,-140 1402.5,-140 1402.5,-121 1470.5,-121 1470.5,-140"/>
<text text-anchor="middle" x="1436.5" y="-128" font-family="Helvetica,sans-Serif" font-size="10.00">sys/time.h</text>
</a>
</g>
</g>
<!-- Node44&#45;&gt;Node46 -->
<g id="edge39_Node000044_Node000046" class="edge">
<title>Node44&#45;&gt;Node46</title>
<g id="a_edge39_Node000044_Node000046"><a xlink:title=" ">
<path fill="none" stroke="#63b8ff" d="M1515.4,-175.98C1500.68,-167.69 1478.08,-154.94 1460.83,-145.22"/>
<polygon fill="#63b8ff" stroke="#63b8ff" points="1462.31,-142.03 1451.88,-140.17 1458.87,-148.13 1462.31,-142.03"/>
</a>
</g>
</g>
<!-- Node52&#45;&gt;Node4 -->
<g id="edge64_Node000052_Node000004" class="edge">
<title>Node52&#45;&gt;Node4</title>
<g id="a_edge64_Node000052_Node000004"><a xlink:title=" ">
<path fill="none" stroke="#63b8ff" d="M758.98,-177.24C755.78,-176.78 752.59,-176.35 749.5,-176 470.88,-143.98 399.11,-161.8 119.5,-140 105.79,-138.93 90.88,-137.54 77.38,-136.19"/>
<polygon fill="#63b8ff" stroke="#63b8ff" points="77.68,-132.7 67.37,-135.17 76.97,-139.67 77.68,-132.7"/>
</a>
</g>
</g>
<!-- Node52&#45;&gt;Node9 -->
<g id="edge53_Node000052_Node000009" class="edge">
<title>Node52&#45;&gt;Node9</title>
<g id="a_edge53_Node000052_Node000009"><a xlink:title=" ">
<path fill="none" stroke="#63b8ff" d="M838.09,-183.25C953.11,-179.4 1297.13,-166.36 1581.5,-140 1593.65,-138.87 1607.02,-137.23 1618.52,-135.69"/>
<polygon fill="#63b8ff" stroke="#63b8ff" points="1619.05,-139.15 1628.48,-134.32 1618.09,-132.21 1619.05,-139.15"/>
</a>
</g>
</g>
<!-- Node52&#45;&gt;Node13 -->
<g id="edge54_Node000052_Node000013" class="edge">
<title>Node52&#45;&gt;Node13</title>
<g id="a_edge54_Node000052_Node000013"><a xlink:title=" ">
<path fill="none" stroke="#63b8ff" d="M838,-180.47C908.14,-173.24 1059.3,-157.29 1197.97,-140.03"/>
<polygon fill="#63b8ff" stroke="#63b8ff" points="1198.44,-143.5 1207.93,-138.79 1197.57,-136.56 1198.44,-143.5"/>
</a>
</g>
</g>
<!-- Node52&#45;&gt;Node14 -->
<g id="edge65_Node000052_Node000014" class="edge">
<title>Node52&#45;&gt;Node14</title>
<g id="a_edge65_Node000052_Node000014"><a xlink:title=" ">
<path fill="none" stroke="#63b8ff" d="M838.03,-183.11C923.95,-179.67 1134.21,-168.95 1318.79,-140.06"/>
<polygon fill="#63b8ff" stroke="#63b8ff" points="1319.34,-143.52 1328.67,-138.5 1318.25,-136.61 1319.34,-143.52"/>
</a>
</g>
</g>
<!-- Node52&#45;&gt;Node23 -->
<g id="edge56_Node000052_Node000023" class="edge">
<title>Node52&#45;&gt;Node23</title>
<g id="a_edge56_Node000052_Node000023"><a xlink:title=" ">
<path fill="none" stroke="#63b8ff" d="M758.97,-177.25C755.78,-176.79 752.59,-176.36 749.5,-176 683.49,-168.31 198.05,-188.38 152.5,-140 74.01,-56.63 312.3,-27.2 409.34,-18.84"/>
<polygon fill="#63b8ff" stroke="#63b8ff" points="409.69,-22.32 419.37,-18.01 409.11,-15.35 409.69,-22.32"/>
</a>
</g>
</g>
<!-- Node52&#45;&gt;Node51 -->
<g id="edge61_Node000052_Node000051" class="edge">
<title>Node52&#45;&gt;Node51</title>
<g id="a_edge61_Node000052_Node000051"><a xlink:title=" ">
<path fill="none" stroke="#63b8ff" d="M838.01,-178.21C894.79,-169.17 1000.08,-152.42 1067.9,-141.62"/>
<polygon fill="#63b8ff" stroke="#63b8ff" points="1068.71,-145.04 1078.04,-140.01 1067.61,-138.12 1068.71,-145.04"/>
</a>
</g>
</g>
<!-- Node53 -->
<g id="Node000053" class="node">
<title>Node53</title>
<g id="a_Node000053"><a xlink:title=" ">
<polygon fill="#e0e0e0" stroke="#999999" points="835.5,-140 761.5,-140 761.5,-121 835.5,-121 835.5,-140"/>
<text text-anchor="middle" x="798.5" y="-128" font-family="Helvetica,sans-Serif" font-size="10.00">G4String.hh</text>
</a>
</g>
</g>
<!-- Node52&#45;&gt;Node53 -->
<g id="edge51_Node000052_Node000053" class="edge">
<title>Node52&#45;&gt;Node53</title>
<g id="a_edge51_Node000052_Node000053"><a xlink:title=" ">
<path fill="none" stroke="#63b8ff" d="M798.5,-175.75C798.5,-168.8 798.5,-158.85 798.5,-150.13"/>
<polygon fill="#63b8ff" stroke="#63b8ff" points="802,-150.09 798.5,-140.09 795,-150.09 802,-150.09"/>
</a>
</g>
</g>
<!-- Node54 -->
<g id="Node000054" class="node">
<title>Node54</title>
<g id="a_Node000054"><a xlink:title=" ">
<polygon fill="#e0e0e0" stroke="#999999" points="917.5,-140 853.5,-140 853.5,-121 917.5,-121 917.5,-140"/>
<text text-anchor="middle" x="885.5" y="-128" font-family="Helvetica,sans-Serif" font-size="10.00">algorithm</text>
</a>
</g>
</g>
<!-- Node52&#45;&gt;Node54 -->
<g id="edge52_Node000052_Node000054" class="edge">
<title>Node52&#45;&gt;Node54</title>
<g id="a_edge52_Node000052_Node000054"><a xlink:title=" ">
<path fill="none" stroke="#63b8ff" d="M812.48,-175.98C825.97,-167.77 846.63,-155.18 862.54,-145.49"/>
<polygon fill="#63b8ff" stroke="#63b8ff" points="864.55,-148.36 871.27,-140.17 860.91,-142.38 864.55,-148.36"/>
</a>
</g>
</g>
<!-- Node55 -->
<g id="Node000055" class="node">
<title>Node55</title>
<g id="a_Node000055"><a xlink:title=" ">
<polygon fill="#e0e0e0" stroke="#999999" points="1055,-140 936,-140 936,-121 1055,-121 1055,-140"/>
<text text-anchor="middle" x="995.5" y="-128" font-family="Helvetica,sans-Serif" font-size="10.00">G4TriangularFacet.hh</text>
</a>
</g>
</g>
<!-- Node52&#45;&gt;Node55 -->
<g id="edge55_Node000052_Node000055" class="edge">
<title>Node52&#45;&gt;Node55</title>
<g id="a_edge55_Node000052_Node000055"><a xlink:title=" ">
<path fill="none" stroke="#63b8ff" d="M830.15,-175.98C863.66,-166.97 916.7,-152.7 953.64,-142.76"/>
<polygon fill="#63b8ff" stroke="#63b8ff" points="954.85,-146.06 963.6,-140.08 953.03,-139.3 954.85,-146.06"/>
</a>
</g>
</g>
<!-- Node56 -->
<g id="Node000056" class="node">
<title>Node56</title>
<g id="a_Node000056"><a xlink:title=" ">
<polygon fill="#e0e0e0" stroke="#999999" points="209,-140 162,-140 162,-121 209,-121 209,-140"/>
<text text-anchor="middle" x="185.5" y="-128" font-family="Helvetica,sans-Serif" font-size="10.00">vector</text>
</a>
</g>
</g>
<!-- Node52&#45;&gt;Node56 -->
<g id="edge57_Node000052_Node000056" class="edge">
<title>Node52&#45;&gt;Node56</title>
<g id="a_edge57_Node000052_Node000056"><a xlink:title=" ">
<path fill="none" stroke="#63b8ff" d="M758.97,-177.28C755.77,-176.81 752.59,-176.37 749.5,-176 517.98,-148.15 453.83,-176.83 219.39,-139.79"/>
<polygon fill="#63b8ff" stroke="#63b8ff" points="219.61,-136.28 209.18,-138.16 218.5,-143.2 219.61,-136.28"/>
</a>
</g>
</g>
<!-- Node57 -->
<g id="Node000057" class="node">
<title>Node57</title>
<g id="a_Node000057"><a xlink:title=" ">
<polygon fill="#e0e0e0" stroke="#999999" points="435.5,-140 375.5,-140 375.5,-121 435.5,-121 435.5,-140"/>
<text text-anchor="middle" x="405.5" y="-128" font-family="Helvetica,sans-Serif" font-size="10.00">iostream</text>
</a>
</g>
</g>
<!-- Node52&#45;&gt;Node57 -->
<g id="edge58_Node000052_Node000057" class="edge">
<title>Node52&#45;&gt;Node57</title>
<g id="a_edge58_Node000052_Node000057"><a xlink:title=" ">
<path fill="none" stroke="#63b8ff" d="M758.95,-177.45C755.76,-176.94 752.58,-176.45 749.5,-176 617.59,-156.79 580.83,-162.28 445.59,-140.03"/>
<polygon fill="#63b8ff" stroke="#63b8ff" points="446.12,-136.57 435.68,-138.38 444.97,-143.48 446.12,-136.57"/>
</a>
</g>
</g>
<!-- Node58 -->
<g id="Node000058" class="node">
<title>Node58</title>
<g id="a_Node000058"><a xlink:title=" ">
<polygon fill="#e0e0e0" stroke="#999999" points="497.5,-140 453.5,-140 453.5,-121 497.5,-121 497.5,-140"/>
<text text-anchor="middle" x="475.5" y="-128" font-family="Helvetica,sans-Serif" font-size="10.00">string</text>
</a>
</g>
</g>
<!-- Node52&#45;&gt;Node58 -->
<g id="edge59_Node000052_Node000058" class="edge">
<title>Node52&#45;&gt;Node58</title>
<g id="a_edge59_Node000052_Node000058"><a xlink:title=" ">
<path fill="none" stroke="#63b8ff" d="M758.93,-177.55C755.74,-177.02 752.57,-176.49 749.5,-176 644.86,-159.18 615.07,-162.27 507.71,-140.04"/>
<polygon fill="#63b8ff" stroke="#63b8ff" points="508.28,-136.58 497.77,-137.95 506.84,-143.43 508.28,-136.58"/>
</a>
</g>
</g>
<!-- Node59 -->
<g id="Node000059" class="node">
<title>Node59</title>
<g id="a_Node000059"><a xlink:title=" ">
<polygon fill="#e0e0e0" stroke="#999999" points="357.5,-140 227.5,-140 227.5,-121 357.5,-121 357.5,-140"/>
<text text-anchor="middle" x="292.5" y="-128" font-family="Helvetica,sans-Serif" font-size="10.00">G4AssemblyVolume.hh</text>
</a>
</g>
</g>
<!-- Node52&#45;&gt;Node59 -->
<g id="edge60_Node000052_Node000059" class="edge">
<title>Node52&#45;&gt;Node59</title>
<g id="a_edge60_Node000052_Node000059"><a xlink:title=" ">
<path fill="none" stroke="#63b8ff" d="M758.96,-177.37C755.76,-176.88 752.58,-176.41 749.5,-176 583.26,-153.8 538.25,-157.6 367.92,-140.12"/>
<polygon fill="#63b8ff" stroke="#63b8ff" points="368.17,-136.63 357.86,-139.08 367.45,-143.59 368.17,-136.63"/>
</a>
</g>
</g>
<!-- Node60 -->
<g id="Node000060" class="node">
<title>Node60</title>
<g id="a_Node000060"><a xlink:title=" ">
<polygon fill="#e0e0e0" stroke="#999999" points="601.5,-140 515.5,-140 515.5,-121 601.5,-121 601.5,-140"/>
<text text-anchor="middle" x="558.5" y="-128" font-family="Helvetica,sans-Serif" font-size="10.00">G4Material.hh</text>
</a>
</g>
</g>
<!-- Node52&#45;&gt;Node60 -->
<g id="edge62_Node000052_Node000060" class="edge">
<title>Node52&#45;&gt;Node60</title>
<g id="a_edge62_Node000052_Node000060"><a xlink:title=" ">
<path fill="none" stroke="#63b8ff" d="M759.94,-175.98C718.43,-166.82 652.29,-152.21 607.21,-142.26"/>
<polygon fill="#63b8ff" stroke="#63b8ff" points="607.88,-138.82 597.36,-140.08 606.37,-145.66 607.88,-138.82"/>
</a>
</g>
</g>
<!-- Node61 -->
<g id="Node000061" class="node">
<title>Node61</title>
<g id="a_Node000061"><a xlink:title=" ">
<polygon fill="#e0e0e0" stroke="#999999" points="743.5,-140 619.5,-140 619.5,-121 743.5,-121 743.5,-140"/>
<text text-anchor="middle" x="681.5" y="-128" font-family="Helvetica,sans-Serif" font-size="10.00">G4TessellatedSolid.hh</text>
</a>
</g>
</g>
<!-- Node52&#45;&gt;Node61 -->
<g id="edge63_Node000052_Node000061" class="edge">
<title>Node52&#45;&gt;Node61</title>
<g id="a_edge63_Node000052_Node000061"><a xlink:title=" ">
<path fill="none" stroke="#63b8ff" d="M779.7,-175.98C760.88,-167.46 731.68,-154.23 710,-144.41"/>
<polygon fill="#63b8ff" stroke="#63b8ff" points="711.19,-141.11 700.64,-140.17 708.3,-147.48 711.19,-141.11"/>
</a>
</g>
</g>
</g>
</svg>
