<?xml version="1.0" encoding="UTF-8" standalone="no"?>
<!DOCTYPE svg PUBLIC "-//W3C//DTD SVG 1.1//EN"
 "http://www.w3.org/Graphics/SVG/1.1/DTD/svg11.dtd">
<!-- Generated by graphviz version 2.43.0 (0)
 -->
<!-- Title: OMSimHitManager.hh Pages: 1 -->
<svg width="1501pt" height="252pt"
 viewBox="0.00 0.00 1500.61 252.00" xmlns="http://www.w3.org/2000/svg" xmlns:xlink="http://www.w3.org/1999/xlink">
<g id="graph0" class="graph" transform="scale(1 1) rotate(0) translate(4 248)">
<title>OMSimHitManager.hh</title>
<!-- Node1 -->
<g id="node1" class="node">
<title>Node1</title>
<g id="a_node1"><a xlink:title="Defines structures and classes related to optical module photon hit management.">
<polygon fill="#bfbfbf" stroke="black" points="1021.11,-224.5 1021.11,-243.5 1144.11,-243.5 1144.11,-224.5 1021.11,-224.5"/>
<text text-anchor="middle" x="1082.61" y="-231.5" font-family="Helvetica,sans-Serif" font-size="10.00">OMSimHitManager.hh</text>
</a>
</g>
</g>
<!-- Node2 -->
<g id="node2" class="node">
<title>Node2</title>
<g id="a_node2"><a xlink:href="_o_m_sim_run_action_8hh_source.html" target="_top" xlink:title=" ">
<polygon fill="none" stroke="black" points="802.61,-168.5 802.61,-187.5 918.61,-187.5 918.61,-168.5 802.61,-168.5"/>
<text text-anchor="middle" x="860.61" y="-175.5" font-family="Helvetica,sans-Serif" font-size="10.00">OMSimRunAction.hh</text>
</a>
</g>
</g>
<!-- Node1&#45;&gt;Node2 -->
<g id="edge1" class="edge">
<title>Node1&#45;&gt;Node2</title>
<path fill="none" stroke="midnightblue" d="M1037.49,-222.02C995.55,-211.82 933.96,-196.84 895.62,-187.52"/>
<polygon fill="midnightblue" stroke="midnightblue" points="1036.89,-225.48 1047.43,-224.44 1038.54,-218.68 1036.89,-225.48"/>
</g>
<!-- Node6 -->
<g id="node6" class="node">
<title>Node6</title>
<g id="a_node6"><a xlink:href="_o_m_sim__radioactive__decays_8cc.html" target="_top" xlink:title="Main of the radioactive decay study.">
<polygon fill="none" stroke="black" points="225.11,-0.5 225.11,-19.5 390.11,-19.5 390.11,-0.5 225.11,-0.5"/>
<text text-anchor="middle" x="307.61" y="-7.5" font-family="Helvetica,sans-Serif" font-size="10.00">OMSim_radioactive_decays.cc</text>
</a>
</g>
</g>
<!-- Node1&#45;&gt;Node6 -->
<g id="edge28" class="edge">
<title>Node1&#45;&gt;Node6</title>
<path fill="none" stroke="midnightblue" d="M1010.86,-231.84C781.71,-227.38 78.64,-207.59 13.61,-132 3.93,-120.75 -11.01,-85.32 14.61,-56 41.53,-25.19 148.04,-15.29 224.88,-12.22"/>
<polygon fill="midnightblue" stroke="midnightblue" points="1011.02,-235.34 1021.08,-232.03 1011.15,-228.34 1011.02,-235.34"/>
</g>
<!-- Node7 -->
<g id="node7" class="node">
<title>Node7</title>
<g id="a_node7"><a xlink:href="_o_m_sim__supernova_8cc.html" target="_top" xlink:title="Main of the supernova study.">
<polygon fill="none" stroke="black" points="1079.61,-0.5 1079.61,-19.5 1201.61,-19.5 1201.61,-0.5 1079.61,-0.5"/>
<text text-anchor="middle" x="1140.61" y="-7.5" font-family="Helvetica,sans-Serif" font-size="10.00">OMSim_supernova.cc</text>
</a>
</g>
</g>
<!-- Node1&#45;&gt;Node7 -->
<g id="edge32" class="edge">
<title>Node1&#45;&gt;Node7</title>
<path fill="none" stroke="midnightblue" d="M1100.65,-217.11C1108.44,-209.18 1116.84,-198.95 1121.61,-188 1147.76,-127.92 1143.63,-45.96 1141.44,-19.56"/>
<polygon fill="midnightblue" stroke="midnightblue" points="1098.03,-214.77 1093.22,-224.21 1102.87,-219.83 1098.03,-214.77"/>
</g>
<!-- Node8 -->
<g id="node8" class="node">
<title>Node8</title>
<g id="a_node8"><a xlink:href="_o_m_sim_optical_module_8hh_source.html" target="_top" xlink:title=" ">
<polygon fill="none" stroke="black" points="394.11,-168.5 394.11,-187.5 531.11,-187.5 531.11,-168.5 394.11,-168.5"/>
<text text-anchor="middle" x="462.61" y="-175.5" font-family="Helvetica,sans-Serif" font-size="10.00">OMSimOpticalModule.hh</text>
</a>
</g>
</g>
<!-- Node1&#45;&gt;Node8 -->
<g id="edge7" class="edge">
<title>Node1&#45;&gt;Node8</title>
<path fill="none" stroke="midnightblue" d="M1010.67,-226.73C890.2,-216.24 649.25,-195.26 531.11,-184.97"/>
<polygon fill="midnightblue" stroke="midnightblue" points="1010.63,-230.24 1020.9,-227.62 1011.24,-223.27 1010.63,-230.24"/>
</g>
<!-- Node21 -->
<g id="node21" class="node">
<title>Node21</title>
<g id="a_node21"><a xlink:href="_o_m_sim_effective_area_analyisis_8hh_source.html" target="_top" xlink:title=" ">
<polygon fill="none" stroke="black" points="936.61,-168.5 936.61,-187.5 1112.61,-187.5 1112.61,-168.5 936.61,-168.5"/>
<text text-anchor="middle" x="1024.61" y="-175.5" font-family="Helvetica,sans-Serif" font-size="10.00">OMSimEffectiveAreaAnalyisis.hh</text>
</a>
</g>
</g>
<!-- Node1&#45;&gt;Node21 -->
<g id="edge25" class="edge">
<title>Node1&#45;&gt;Node21</title>
<path fill="none" stroke="midnightblue" d="M1065.7,-217.25C1055.41,-207.67 1042.64,-195.79 1034.1,-187.83"/>
<polygon fill="midnightblue" stroke="midnightblue" points="1063.59,-220.07 1073.29,-224.32 1068.36,-214.95 1063.59,-220.07"/>
</g>
<!-- Node22 -->
<g id="node22" class="node">
<title>Node22</title>
<g id="a_node22"><a xlink:href="_o_m_sim_effi_cali_analyisis_8hh_source.html" target="_top" xlink:title=" ">
<polygon fill="none" stroke="black" points="1346.61,-168.5 1346.61,-187.5 1492.61,-187.5 1492.61,-168.5 1346.61,-168.5"/>
<text text-anchor="middle" x="1419.61" y="-175.5" font-family="Helvetica,sans-Serif" font-size="10.00">OMSimEffiCaliAnalyisis.hh</text>
</a>
</g>
</g>
<!-- Node1&#45;&gt;Node22 -->
<g id="edge27" class="edge">
<title>Node1&#45;&gt;Node22</title>
<path fill="none" stroke="midnightblue" d="M1145.93,-222.85C1209.6,-212.65 1306.67,-197.1 1366.46,-187.52"/>
<polygon fill="midnightblue" stroke="midnightblue" points="1145.33,-219.41 1136.01,-224.44 1146.44,-226.32 1145.33,-219.41"/>
</g>
<!-- Node23 -->
<g id="node23" class="node">
<title>Node23</title>
<g id="a_node23"><a xlink:href="_o_m_sim_s_n_analysis_8hh_source.html" target="_top" xlink:title=" ">
<polygon fill="none" stroke="black" points="1168.61,-168.5 1168.61,-187.5 1290.61,-187.5 1290.61,-168.5 1168.61,-168.5"/>
<text text-anchor="middle" x="1229.61" y="-175.5" font-family="Helvetica,sans-Serif" font-size="10.00">OMSimSNAnalysis.hh</text>
</a>
</g>
</g>
<!-- Node1&#45;&gt;Node23 -->
<g id="edge29" class="edge">
<title>Node1&#45;&gt;Node23</title>
<path fill="none" stroke="midnightblue" d="M1115.53,-220.91C1143.17,-210.75 1181.95,-196.51 1206.43,-187.52"/>
<polygon fill="midnightblue" stroke="midnightblue" points="1114.08,-217.71 1105.9,-224.44 1116.5,-224.28 1114.08,-217.71"/>
</g>
<!-- Node24 -->
<g id="node24" class="node">
<title>Node24</title>
<g id="a_node24"><a xlink:href="_o_m_sim_s_n_analysis_8cc.html" target="_top" xlink:title="Analyze data and write output files.">
<polygon fill="none" stroke="black" points="1245.61,-112.5 1245.61,-131.5 1365.61,-131.5 1365.61,-112.5 1245.61,-112.5"/>
<text text-anchor="middle" x="1305.61" y="-119.5" font-family="Helvetica,sans-Serif" font-size="10.00">OMSimSNAnalysis.cc</text>
</a>
</g>
</g>
<!-- Node1&#45;&gt;Node24 -->
<g id="edge33" class="edge">
<title>Node1&#45;&gt;Node24</title>
<path fill="none" stroke="midnightblue" d="M1154.4,-227.22C1209.93,-221.15 1280.48,-209.41 1299.61,-188 1313.5,-172.45 1310.52,-145.67 1307.75,-131.84"/>
<polygon fill="midnightblue" stroke="midnightblue" points="1153.8,-223.76 1144.22,-228.28 1154.53,-230.72 1153.8,-223.76"/>
</g>
<!-- Node3 -->
<g id="node3" class="node">
<title>Node3</title>
<g id="a_node3"><a xlink:href="_o_m_sim_8hh.html" target="_top" xlink:title="Main simulation class for the Optical Module (OM) simulation. This file defines the OMSim class,...">
<polygon fill="none" stroke="black" points="869.11,-56.5 869.11,-75.5 936.11,-75.5 936.11,-56.5 869.11,-56.5"/>
<text text-anchor="middle" x="902.61" y="-63.5" font-family="Helvetica,sans-Serif" font-size="10.00">OMSim.hh</text>
</a>
</g>
</g>
<!-- Node2&#45;&gt;Node3 -->
<g id="edge2" class="edge">
<title>Node2&#45;&gt;Node3</title>
<path fill="none" stroke="midnightblue" d="M867.48,-159C876.65,-135 892.5,-93.47 899.33,-75.59"/>
<polygon fill="midnightblue" stroke="midnightblue" points="864.2,-157.78 863.91,-168.37 870.74,-160.27 864.2,-157.78"/>
</g>
<!-- Node4 -->
<g id="node4" class="node">
<title>Node4</title>
<g id="a_node4"><a xlink:href="_o_m_sim_8cc.html" target="_top" xlink:title="Implementation of the OMSim class.">
<polygon fill="none" stroke="black" points="838.11,-0.5 838.11,-19.5 903.11,-19.5 903.11,-0.5 838.11,-0.5"/>
<text text-anchor="middle" x="870.61" y="-7.5" font-family="Helvetica,sans-Serif" font-size="10.00">OMSim.cc</text>
</a>
</g>
</g>
<!-- Node3&#45;&gt;Node4 -->
<g id="edge3" class="edge">
<title>Node3&#45;&gt;Node4</title>
<path fill="none" stroke="midnightblue" d="M892.11,-47.27C886.64,-38.05 880.19,-27.17 875.8,-19.75"/>
<polygon fill="midnightblue" stroke="midnightblue" points="889.22,-49.26 897.33,-56.08 895.24,-45.7 889.22,-49.26"/>
</g>
<!-- Node5 -->
<g id="node5" class="node">
<title>Node5</title>
<g id="a_node5"><a xlink:href="_o_m_sim__effective__area_8cc.html" target="_top" xlink:title="Main for the calculation of effective areas.">
<polygon fill="none" stroke="black" points="921.61,-0.5 921.61,-19.5 1061.61,-19.5 1061.61,-0.5 921.61,-0.5"/>
<text text-anchor="middle" x="991.61" y="-7.5" font-family="Helvetica,sans-Serif" font-size="10.00">OMSim_effective_area.cc</text>
</a>
</g>
</g>
<!-- Node3&#45;&gt;Node5 -->
<g id="edge4" class="edge">
<title>Node3&#45;&gt;Node5</title>
<path fill="none" stroke="midnightblue" d="M925.85,-50.9C942.17,-41 963.47,-28.07 977.35,-19.65"/>
<polygon fill="midnightblue" stroke="midnightblue" points="923.64,-48.14 916.91,-56.32 927.27,-54.13 923.64,-48.14"/>
</g>
<!-- Node3&#45;&gt;Node6 -->
<g id="edge5" class="edge">
<title>Node3&#45;&gt;Node6</title>
<path fill="none" stroke="midnightblue" d="M858.79,-55.89C687.36,-31.14 496.84,-19.48 390.44,-14.38"/>
<polygon fill="midnightblue" stroke="midnightblue" points="858.35,-59.37 868.75,-57.35 859.36,-52.44 858.35,-59.37"/>
</g>
<!-- Node3&#45;&gt;Node7 -->
<g id="edge6" class="edge">
<title>Node3&#45;&gt;Node7</title>
<path fill="none" stroke="midnightblue" d="M946.22,-55.1C991.09,-44.92 1060.27,-29.23 1102.87,-19.56"/>
<polygon fill="midnightblue" stroke="midnightblue" points="945.18,-51.75 936.2,-57.38 946.73,-58.58 945.18,-51.75"/>
</g>
<!-- Node9 -->
<g id="node9" class="node">
<title>Node9</title>
<g id="a_node9"><a xlink:href="_o_m_sim_d_e_g_g_8hh.html" target="_top" xlink:title="Construction of the DEGG class. From DOUMEKI.">
<polygon fill="none" stroke="black" points="415.11,-112.5 415.11,-131.5 510.11,-131.5 510.11,-112.5 415.11,-112.5"/>
<text text-anchor="middle" x="462.61" y="-119.5" font-family="Helvetica,sans-Serif" font-size="10.00">OMSimDEGG.hh</text>
</a>
</g>
</g>
<!-- Node8&#45;&gt;Node9 -->
<g id="edge8" class="edge">
<title>Node8&#45;&gt;Node9</title>
<path fill="none" stroke="midnightblue" d="M462.61,-157.8C462.61,-148.91 462.61,-138.78 462.61,-131.75"/>
<polygon fill="midnightblue" stroke="midnightblue" points="459.11,-158.08 462.61,-168.08 466.11,-158.08 459.11,-158.08"/>
</g>
<!-- Node10 -->
<g id="node10" class="node">
<title>Node10</title>
<g id="a_node10"><a xlink:href="_o_m_sim_detector_construction_8hh_source.html" target="_top" xlink:title=" ">
<polygon fill="none" stroke="black" points="686.61,-112.5 686.61,-131.5 856.61,-131.5 856.61,-112.5 686.61,-112.5"/>
<text text-anchor="middle" x="771.61" y="-119.5" font-family="Helvetica,sans-Serif" font-size="10.00">OMSimDetectorConstruction.hh</text>
</a>
</g>
</g>
<!-- Node8&#45;&gt;Node10 -->
<g id="edge9" class="edge">
<title>Node8&#45;&gt;Node10</title>
<path fill="none" stroke="midnightblue" d="M521.75,-166.66C580.15,-156.46 668.39,-141.04 722.88,-131.52"/>
<polygon fill="midnightblue" stroke="midnightblue" points="520.82,-163.27 511.57,-168.44 522.03,-170.17 520.82,-163.27"/>
</g>
<!-- Node13 -->
<g id="node13" class="node">
<title>Node13</title>
<g id="a_node13"><a xlink:href="_o_m_sim_rad_decays_detector_8hh.html" target="_top" xlink:title="Defines the OMSimRadDecaysDetector class for the radioactive decays simulation.">
<polygon fill="none" stroke="black" points="306.11,-56.5 306.11,-75.5 469.11,-75.5 469.11,-56.5 306.11,-56.5"/>
<text text-anchor="middle" x="387.61" y="-63.5" font-family="Helvetica,sans-Serif" font-size="10.00">OMSimRadDecaysDetector.hh</text>
</a>
</g>
</g>
<!-- Node8&#45;&gt;Node13 -->
<g id="edge24" class="edge">
<title>Node8&#45;&gt;Node13</title>
<path fill="none" stroke="midnightblue" d="M488.88,-163.26C509.65,-150.55 533.08,-130.82 519.61,-112 506.01,-93 483.91,-81.93 461.65,-75.51"/>
<polygon fill="midnightblue" stroke="midnightblue" points="486.86,-160.39 479.96,-168.42 490.37,-166.44 486.86,-160.39"/>
</g>
<!-- Node15 -->
<g id="node15" class="node">
<title>Node15</title>
<g id="a_node15"><a xlink:href="_o_m_sim_l_o_m16_8hh.html" target="_top" xlink:title="Construction of LOM16.">
<polygon fill="none" stroke="black" points="567.11,-112.5 567.11,-131.5 668.11,-131.5 668.11,-112.5 567.11,-112.5"/>
<text text-anchor="middle" x="617.61" y="-119.5" font-family="Helvetica,sans-Serif" font-size="10.00">OMSimLOM16.hh</text>
</a>
</g>
</g>
<!-- Node8&#45;&gt;Node15 -->
<g id="edge17" class="edge">
<title>Node8&#45;&gt;Node15</title>
<path fill="none" stroke="midnightblue" d="M496.94,-165.04C526.11,-154.88 567.25,-140.55 593.16,-131.52"/>
<polygon fill="midnightblue" stroke="midnightblue" points="495.46,-161.85 487.17,-168.44 497.76,-168.46 495.46,-161.85"/>
</g>
<!-- Node16 -->
<g id="node16" class="node">
<title>Node16</title>
<g id="a_node16"><a xlink:href="_o_m_sim_l_o_m18_8hh.html" target="_top" xlink:title="Construction of LOM18.">
<polygon fill="none" stroke="black" points="23.11,-112.5 23.11,-131.5 124.11,-131.5 124.11,-112.5 23.11,-112.5"/>
<text text-anchor="middle" x="73.61" y="-119.5" font-family="Helvetica,sans-Serif" font-size="10.00">OMSimLOM18.hh</text>
</a>
</g>
</g>
<!-- Node8&#45;&gt;Node16 -->
<g id="edge18" class="edge">
<title>Node8&#45;&gt;Node16</title>
<path fill="none" stroke="midnightblue" d="M388.58,-167.15C321.88,-158.21 221.14,-144.55 133.61,-132 130.59,-131.57 127.48,-131.12 124.34,-130.66"/>
<polygon fill="midnightblue" stroke="midnightblue" points="388.21,-170.63 398.58,-168.49 389.13,-163.7 388.21,-170.63"/>
</g>
<!-- Node18 -->
<g id="node18" class="node">
<title>Node18</title>
<g id="a_node18"><a xlink:href="_o_m_sim_m_d_o_m_8hh.html" target="_top" xlink:title="Construction of mDOM.">
<polygon fill="none" stroke="black" points="142.61,-112.5 142.61,-131.5 242.61,-131.5 242.61,-112.5 142.61,-112.5"/>
<text text-anchor="middle" x="192.61" y="-119.5" font-family="Helvetica,sans-Serif" font-size="10.00">OMSimMDOM.hh</text>
</a>
</g>
</g>
<!-- Node8&#45;&gt;Node18 -->
<g id="edge20" class="edge">
<title>Node8&#45;&gt;Node18</title>
<path fill="none" stroke="midnightblue" d="M409.98,-166.47C358.95,-156.27 282.51,-140.98 235.19,-131.52"/>
<polygon fill="midnightblue" stroke="midnightblue" points="409.34,-169.91 419.83,-168.44 410.71,-163.05 409.34,-169.91"/>
</g>
<!-- Node19 -->
<g id="node19" class="node">
<title>Node19</title>
<g id="a_node19"><a xlink:href="_o_m_sim_p_d_o_m_8hh.html" target="_top" xlink:title="Implementation of the pDOM/Gen1 DOM class.">
<polygon fill="none" stroke="black" points="261.11,-112.5 261.11,-131.5 358.11,-131.5 358.11,-112.5 261.11,-112.5"/>
<text text-anchor="middle" x="309.61" y="-119.5" font-family="Helvetica,sans-Serif" font-size="10.00">OMSimPDOM.hh</text>
</a>
</g>
</g>
<!-- Node8&#45;&gt;Node19 -->
<g id="edge21" class="edge">
<title>Node8&#45;&gt;Node19</title>
<path fill="none" stroke="midnightblue" d="M428.72,-165.04C399.93,-154.88 359.32,-140.55 333.74,-131.52"/>
<polygon fill="midnightblue" stroke="midnightblue" points="427.77,-168.42 438.37,-168.44 430.1,-161.81 427.77,-168.42"/>
</g>
<!-- Node20 -->
<g id="node20" class="node">
<title>Node20</title>
<g id="a_node20"><a xlink:href="_o_m_sim_decays_g_p_s_8hh.html" target="_top" xlink:title="Defines the OMSimDecaysGPS class for the radioactive decays simulation.">
<polygon fill="none" stroke="black" points="165.61,-56.5 165.61,-75.5 287.61,-75.5 287.61,-56.5 165.61,-56.5"/>
<text text-anchor="middle" x="226.61" y="-63.5" font-family="Helvetica,sans-Serif" font-size="10.00">OMSimDecaysGPS.hh</text>
</a>
</g>
</g>
<!-- Node8&#45;&gt;Node20 -->
<g id="edge22" class="edge">
<title>Node8&#45;&gt;Node20</title>
<path fill="none" stroke="midnightblue" d="M444.04,-162.07C425.39,-147.65 395.36,-126 366.61,-112 332.75,-95.52 291.43,-83.09 262.49,-75.51"/>
<polygon fill="midnightblue" stroke="midnightblue" points="441.97,-164.89 452,-168.31 446.3,-159.39 441.97,-164.89"/>
</g>
<!-- Node10&#45;&gt;Node3 -->
<g id="edge10" class="edge">
<title>Node10&#45;&gt;Node3</title>
<path fill="none" stroke="midnightblue" d="M801.93,-108.5C826.49,-98.38 860.43,-84.39 881.95,-75.52"/>
<polygon fill="midnightblue" stroke="midnightblue" points="800.28,-105.4 792.37,-112.44 802.95,-111.87 800.28,-105.4"/>
</g>
<!-- Node11 -->
<g id="node11" class="node">
<title>Node11</title>
<g id="a_node11"><a xlink:href="effective__area_2include_2_o_m_sim_effective_area_detector_8hh.html" target="_top" xlink:title="Defines the OMSimEffectiveAreaDetector class for effective area simulation detector construction.">
<polygon fill="none" stroke="black" points="678.11,-56.5 678.11,-75.5 851.11,-75.5 851.11,-56.5 678.11,-56.5"/>
<text text-anchor="middle" x="764.61" y="-63.5" font-family="Helvetica,sans-Serif" font-size="10.00">OMSimEffectiveAreaDetector.hh</text>
</a>
</g>
</g>
<!-- Node10&#45;&gt;Node11 -->
<g id="edge11" class="edge">
<title>Node10&#45;&gt;Node11</title>
<path fill="none" stroke="midnightblue" d="M769.16,-102.1C768,-93.14 766.67,-82.86 765.74,-75.75"/>
<polygon fill="midnightblue" stroke="midnightblue" points="765.7,-102.62 770.45,-112.08 772.64,-101.72 765.7,-102.62"/>
</g>
<!-- Node12 -->
<g id="node12" class="node">
<title>Node12</title>
<g id="a_node12"><a xlink:href="efficiency__calibration_2include_2_o_m_sim_effective_area_detector_8hh.html" target="_top" xlink:title="Defines the OMSimEffectiveAreaDetector class for effective area simulation detector construction.">
<polygon fill="none" stroke="black" points="487.11,-56.5 487.11,-75.5 660.11,-75.5 660.11,-56.5 487.11,-56.5"/>
<text text-anchor="middle" x="573.61" y="-63.5" font-family="Helvetica,sans-Serif" font-size="10.00">OMSimEffectiveAreaDetector.hh</text>
</a>
</g>
</g>
<!-- Node10&#45;&gt;Node12 -->
<g id="edge12" class="edge">
<title>Node10&#45;&gt;Node12</title>
<path fill="none" stroke="midnightblue" d="M730.17,-109.7C692.8,-99.51 638.67,-84.74 604.84,-75.52"/>
<polygon fill="midnightblue" stroke="midnightblue" points="729.67,-113.19 740.24,-112.44 731.51,-106.44 729.67,-113.19"/>
</g>
<!-- Node10&#45;&gt;Node13 -->
<g id="edge13" class="edge">
<title>Node10&#45;&gt;Node13</title>
<path fill="none" stroke="midnightblue" d="M700.8,-111.04C628.27,-100.84 516.73,-85.16 448.17,-75.52"/>
<polygon fill="midnightblue" stroke="midnightblue" points="700.37,-114.52 710.76,-112.44 701.35,-107.59 700.37,-114.52"/>
</g>
<!-- Node14 -->
<g id="node14" class="node">
<title>Node14</title>
<g id="a_node14"><a xlink:href="_o_m_sim_s_ndetector_8hh_source.html" target="_top" xlink:title=" ">
<polygon fill="none" stroke="black" points="954.61,-56.5 954.61,-75.5 1074.61,-75.5 1074.61,-56.5 954.61,-56.5"/>
<text text-anchor="middle" x="1014.61" y="-63.5" font-family="Helvetica,sans-Serif" font-size="10.00">OMSimSNdetector.hh</text>
</a>
</g>
</g>
<!-- Node10&#45;&gt;Node14 -->
<g id="edge15" class="edge">
<title>Node10&#45;&gt;Node14</title>
<path fill="none" stroke="midnightblue" d="M820.13,-110.22C866.05,-100.01 934.06,-84.9 976.29,-75.52"/>
<polygon fill="midnightblue" stroke="midnightblue" points="819.12,-106.86 810.11,-112.44 820.64,-113.69 819.12,-106.86"/>
</g>
<!-- Node13&#45;&gt;Node6 -->
<g id="edge14" class="edge">
<title>Node13&#45;&gt;Node6</title>
<path fill="none" stroke="midnightblue" d="M366.31,-50.62C351.69,-40.76 332.78,-27.99 320.43,-19.65"/>
<polygon fill="midnightblue" stroke="midnightblue" points="364.51,-53.63 374.76,-56.32 368.43,-47.83 364.51,-53.63"/>
</g>
<!-- Node14&#45;&gt;Node7 -->
<g id="edge16" class="edge">
<title>Node14&#45;&gt;Node7</title>
<path fill="none" stroke="midnightblue" d="M1043.77,-52.5C1067.39,-42.38 1100.04,-28.39 1120.74,-19.52"/>
<polygon fill="midnightblue" stroke="midnightblue" points="1042.39,-49.29 1034.57,-56.44 1045.15,-55.72 1042.39,-49.29"/>
</g>
<!-- Node17 -->
<g id="node17" class="node">
<title>Node17</title>
<g id="a_node17"><a xlink:href="_o_m_sim_l_o_m18_8cc.html" target="_top" xlink:title=" ">
<polygon fill="none" stroke="black" points="24.11,-56.5 24.11,-75.5 123.11,-75.5 123.11,-56.5 24.11,-56.5"/>
<text text-anchor="middle" x="73.61" y="-63.5" font-family="Helvetica,sans-Serif" font-size="10.00">OMSimLOM18.cc</text>
</a>
</g>
</g>
<!-- Node16&#45;&gt;Node17 -->
<g id="edge19" class="edge">
<title>Node16&#45;&gt;Node17</title>
<path fill="none" stroke="midnightblue" d="M73.61,-101.8C73.61,-92.91 73.61,-82.78 73.61,-75.75"/>
<polygon fill="midnightblue" stroke="midnightblue" points="70.11,-102.08 73.61,-112.08 77.11,-102.08 70.11,-102.08"/>
</g>
<!-- Node20&#45;&gt;Node6 -->
<g id="edge23" class="edge">
<title>Node20&#45;&gt;Node6</title>
<path fill="none" stroke="midnightblue" d="M248.18,-50.62C262.97,-40.76 282.12,-27.99 294.63,-19.65"/>
<polygon fill="midnightblue" stroke="midnightblue" points="246,-47.86 239.62,-56.32 249.89,-53.69 246,-47.86"/>
</g>
<!-- Node21&#45;&gt;Node5 -->
<g id="edge26" class="edge">
<title>Node21&#45;&gt;Node5</title>
<path fill="none" stroke="midnightblue" d="M1042.08,-161.67C1066.69,-138.16 1106.16,-92.14 1083.61,-56 1071.94,-37.3 1049.99,-26.15 1030.45,-19.64"/>
<polygon fill="midnightblue" stroke="midnightblue" points="1039.69,-159.11 1034.71,-168.47 1044.44,-164.26 1039.69,-159.11"/>
</g>
<!-- Node23&#45;&gt;Node7 -->
<g id="edge30" class="edge">
<title>Node23&#45;&gt;Node7</title>
<path fill="none" stroke="midnightblue" d="M1219.88,-158.86C1200.79,-123.25 1159.08,-45.45 1145.2,-19.57"/>
<polygon fill="midnightblue" stroke="midnightblue" points="1217.01,-160.92 1224.82,-168.08 1223.18,-157.61 1217.01,-160.92"/>
</g>
<!-- Node23&#45;&gt;Node24 -->
<g id="edge31" class="edge">
<title>Node23&#45;&gt;Node24</title>
<path fill="none" stroke="midnightblue" d="M1250.19,-162.38C1263.92,-152.62 1281.54,-140.11 1293.18,-131.83"/>
<polygon fill="midnightblue" stroke="midnightblue" points="1247.95,-159.68 1241.82,-168.32 1252,-165.38 1247.95,-159.68"/>
</g>
</g>
</svg>
