<?xml version="1.0" encoding="UTF-8" standalone="no"?>
<!DOCTYPE svg PUBLIC "-//W3C//DTD SVG 1.1//EN"
 "http://www.w3.org/Graphics/SVG/1.1/DTD/svg11.dtd">
<!-- Generated by graphviz version 2.43.0 (0)
 -->
<!-- Title: OMSimMDOMHarness.cc Pages: 1 -->
<svg width="1588pt" height="442pt"
 viewBox="0.00 0.00 1587.50 442.00" xmlns="http://www.w3.org/2000/svg" xmlns:xlink="http://www.w3.org/1999/xlink">
<g id="graph0" class="graph" transform="scale(1 1) rotate(0) translate(4 438)">
<title>OMSimMDOMHarness.cc</title>
<polygon fill="white" stroke="transparent" points="-4,4 -4,-438 1583.5,-438 1583.5,4 -4,4"/>
<!-- Node1 -->
<g id="node1" class="node">
<title>Node1</title>
<g id="a_node1"><a xlink:title=" ">
<polygon fill="#bfbfbf" stroke="black" points="972.5,-414.5 972.5,-433.5 1110.5,-433.5 1110.5,-414.5 972.5,-414.5"/>
<text text-anchor="middle" x="1041.5" y="-421.5" font-family="Helvetica,sans-Serif" font-size="10.00">OMSimMDOMHarness.cc</text>
</a>
</g>
</g>
<!-- Node2 -->
<g id="node2" class="node">
<title>Node2</title>
<g id="a_node2"><a xlink:href="_o_m_sim_m_d_o_m_harness_8hh.html" target="_top" xlink:title="Construction of mDOM harness.">
<polygon fill="white" stroke="black" points="499.5,-358.5 499.5,-377.5 639.5,-377.5 639.5,-358.5 499.5,-358.5"/>
<text text-anchor="middle" x="569.5" y="-365.5" font-family="Helvetica,sans-Serif" font-size="10.00">OMSimMDOMHarness.hh</text>
</a>
</g>
</g>
<!-- Node1&#45;&gt;Node2 -->
<g id="edge1" class="edge">
<title>Node1&#45;&gt;Node2</title>
<path fill="none" stroke="midnightblue" d="M972.36,-415.09C886.47,-405.26 740.21,-388.53 649.55,-378.16"/>
<polygon fill="midnightblue" stroke="midnightblue" points="649.93,-374.68 639.59,-377.02 649.13,-381.63 649.93,-374.68"/>
</g>
<!-- Node19 -->
<g id="node19" class="node">
<title>Node19</title>
<g id="a_node19"><a xlink:href="_o_m_sim_m_d_o_m_8hh.html" target="_top" xlink:title="Construction of mDOM.">
<polygon fill="white" stroke="black" points="696.5,-358.5 696.5,-377.5 796.5,-377.5 796.5,-358.5 696.5,-358.5"/>
<text text-anchor="middle" x="746.5" y="-365.5" font-family="Helvetica,sans-Serif" font-size="10.00">OMSimMDOM.hh</text>
</a>
</g>
</g>
<!-- Node1&#45;&gt;Node19 -->
<g id="edge18" class="edge">
<title>Node1&#45;&gt;Node19</title>
<path fill="none" stroke="midnightblue" d="M994.76,-414.44C942.75,-404.92 858.75,-389.55 803.08,-379.36"/>
<polygon fill="midnightblue" stroke="midnightblue" points="803.49,-375.87 793.02,-377.52 802.23,-382.76 803.49,-375.87"/>
</g>
<!-- Node36 -->
<g id="node36" class="node">
<title>Node36</title>
<g id="a_node36"><a xlink:href="_o_m_sim_command_args_table_8hh.html" target="_top" xlink:title="Definition of the OMSimCommandArgsTable singleton class, which controls user args.">
<polygon fill="white" stroke="black" points="1299.5,-246.5 1299.5,-265.5 1463.5,-265.5 1463.5,-246.5 1299.5,-246.5"/>
<text text-anchor="middle" x="1381.5" y="-253.5" font-family="Helvetica,sans-Serif" font-size="10.00">OMSimCommandArgsTable.hh</text>
</a>
</g>
</g>
<!-- Node1&#45;&gt;Node36 -->
<g id="edge43" class="edge">
<title>Node1&#45;&gt;Node36</title>
<path fill="none" stroke="midnightblue" d="M991.49,-414.45C948.92,-404.98 898.11,-387.08 921.5,-358 966.73,-301.76 1168.33,-275.06 1289.13,-263.9"/>
<polygon fill="midnightblue" stroke="midnightblue" points="1289.47,-267.38 1299.12,-262.99 1288.84,-260.41 1289.47,-267.38"/>
</g>
<!-- Node39 -->
<g id="node39" class="node">
<title>Node39</title>
<g id="a_node39"><a xlink:title=" ">
<polygon fill="white" stroke="#bfbfbf" points="930.5,-358.5 930.5,-377.5 1040.5,-377.5 1040.5,-358.5 930.5,-358.5"/>
<text text-anchor="middle" x="985.5" y="-365.5" font-family="Helvetica,sans-Serif" font-size="10.00">G4EllipticalTube.hh</text>
</a>
</g>
</g>
<!-- Node1&#45;&gt;Node39 -->
<g id="edge48" class="edge">
<title>Node1&#45;&gt;Node39</title>
<path fill="none" stroke="midnightblue" d="M1032.5,-414.32C1024.31,-406.42 1011.99,-394.55 1002.03,-384.94"/>
<polygon fill="midnightblue" stroke="midnightblue" points="1004.29,-382.26 994.66,-377.83 999.43,-387.29 1004.29,-382.26"/>
</g>
<!-- Node40 -->
<g id="node40" class="node">
<title>Node40</title>
<g id="a_node40"><a xlink:title=" ">
<polygon fill="white" stroke="#bfbfbf" points="1059,-358.5 1059,-377.5 1138,-377.5 1138,-358.5 1059,-358.5"/>
<text text-anchor="middle" x="1098.5" y="-365.5" font-family="Helvetica,sans-Serif" font-size="10.00">G4Sphere.hh</text>
</a>
</g>
</g>
<!-- Node1&#45;&gt;Node40 -->
<g id="edge49" class="edge">
<title>Node1&#45;&gt;Node40</title>
<path fill="none" stroke="midnightblue" d="M1050.66,-414.32C1059,-406.42 1071.53,-394.55 1081.68,-384.94"/>
<polygon fill="midnightblue" stroke="midnightblue" points="1084.32,-387.25 1089.18,-377.83 1079.51,-382.17 1084.32,-387.25"/>
</g>
<!-- Node41 -->
<g id="node41" class="node">
<title>Node41</title>
<g id="a_node41"><a xlink:title=" ">
<polygon fill="white" stroke="#bfbfbf" points="1156,-358.5 1156,-377.5 1293,-377.5 1293,-358.5 1156,-358.5"/>
<text text-anchor="middle" x="1224.5" y="-365.5" font-family="Helvetica,sans-Serif" font-size="10.00">G4LogicalSkinSurface.hh</text>
</a>
</g>
</g>
<!-- Node1&#45;&gt;Node41 -->
<g id="edge50" class="edge">
<title>Node1&#45;&gt;Node41</title>
<path fill="none" stroke="midnightblue" d="M1070.5,-414.44C1101.68,-405.24 1151.43,-390.56 1185.91,-380.39"/>
<polygon fill="midnightblue" stroke="midnightblue" points="1187.04,-383.7 1195.64,-377.52 1185.06,-376.99 1187.04,-383.7"/>
</g>
<!-- Node42 -->
<g id="node42" class="node">
<title>Node42</title>
<g id="a_node42"><a xlink:title=" ">
<polygon fill="white" stroke="#bfbfbf" points="1311,-358.5 1311,-377.5 1400,-377.5 1400,-358.5 1311,-358.5"/>
<text text-anchor="middle" x="1355.5" y="-365.5" font-family="Helvetica,sans-Serif" font-size="10.00">G4Polycone.hh</text>
</a>
</g>
</g>
<!-- Node1&#45;&gt;Node42 -->
<g id="edge51" class="edge">
<title>Node1&#45;&gt;Node42</title>
<path fill="none" stroke="midnightblue" d="M1091.25,-414.44C1148.31,-404.63 1241.55,-388.6 1300.66,-378.43"/>
<polygon fill="midnightblue" stroke="midnightblue" points="1301.3,-381.87 1310.56,-376.73 1300.11,-374.97 1301.3,-381.87"/>
</g>
<!-- Node43 -->
<g id="node43" class="node">
<title>Node43</title>
<g id="a_node43"><a xlink:title=" ">
<polygon fill="white" stroke="#bfbfbf" points="1418,-358.5 1418,-377.5 1489,-377.5 1489,-358.5 1418,-358.5"/>
<text text-anchor="middle" x="1453.5" y="-365.5" font-family="Helvetica,sans-Serif" font-size="10.00">G4Torus.hh</text>
</a>
</g>
</g>
<!-- Node1&#45;&gt;Node43 -->
<g id="edge52" class="edge">
<title>Node1&#45;&gt;Node43</title>
<path fill="none" stroke="midnightblue" d="M1110.58,-416.22C1182.46,-408.79 1298.51,-395.74 1407.35,-378.25"/>
<polygon fill="midnightblue" stroke="midnightblue" points="1408.21,-381.66 1417.52,-376.6 1407.09,-374.75 1408.21,-381.66"/>
</g>
<!-- Node3 -->
<g id="node3" class="node">
<title>Node3</title>
<g id="a_node3"><a xlink:href="abc_detector_component_8hh.html" target="_top" xlink:title="Provides helper base class abcDetectorComponent for constructing and managing detector components in ...">
<polygon fill="white" stroke="black" points="326,-190.5 326,-209.5 473,-209.5 473,-190.5 326,-190.5"/>
<text text-anchor="middle" x="399.5" y="-197.5" font-family="Helvetica,sans-Serif" font-size="10.00">abcDetectorComponent.hh</text>
</a>
</g>
</g>
<!-- Node2&#45;&gt;Node3 -->
<g id="edge2" class="edge">
<title>Node2&#45;&gt;Node3</title>
<path fill="none" stroke="midnightblue" d="M499.45,-362.27C470.37,-356.66 438.76,-345.17 418.5,-322 393.51,-293.41 394.14,-245.83 396.8,-219.66"/>
<polygon fill="midnightblue" stroke="midnightblue" points="400.3,-219.94 398.05,-209.59 393.35,-219.08 400.3,-219.94"/>
</g>
<!-- Node17 -->
<g id="node17" class="node">
<title>Node17</title>
<g id="a_node17"><a xlink:title=" ">
<polygon fill="white" stroke="#bfbfbf" points="428,-302.5 428,-321.5 555,-321.5 555,-302.5 428,-302.5"/>
<text text-anchor="middle" x="491.5" y="-309.5" font-family="Helvetica,sans-Serif" font-size="10.00">G4IntersectionSolid.hh</text>
</a>
</g>
</g>
<!-- Node2&#45;&gt;Node17 -->
<g id="edge16" class="edge">
<title>Node2&#45;&gt;Node17</title>
<path fill="none" stroke="midnightblue" d="M556.97,-358.32C544.91,-349.98 526.47,-337.21 512.23,-327.35"/>
<polygon fill="midnightblue" stroke="midnightblue" points="514.22,-324.47 504,-321.65 510.23,-330.22 514.22,-324.47"/>
</g>
<!-- Node18 -->
<g id="node18" class="node">
<title>Node18</title>
<g id="a_node18"><a xlink:title=" ">
<polygon fill="white" stroke="#bfbfbf" points="573,-302.5 573,-321.5 642,-321.5 642,-302.5 573,-302.5"/>
<text text-anchor="middle" x="607.5" y="-309.5" font-family="Helvetica,sans-Serif" font-size="10.00">G4Cons.hh</text>
</a>
</g>
</g>
<!-- Node2&#45;&gt;Node18 -->
<g id="edge17" class="edge">
<title>Node2&#45;&gt;Node18</title>
<path fill="none" stroke="midnightblue" d="M575.77,-358.08C581.14,-350.46 589.02,-339.26 595.58,-329.94"/>
<polygon fill="midnightblue" stroke="midnightblue" points="598.45,-331.94 601.34,-321.75 592.72,-327.91 598.45,-331.94"/>
</g>
<!-- Node4 -->
<g id="node4" class="node">
<title>Node4</title>
<g id="a_node4"><a xlink:href="_o_m_sim_input_data_8hh.html" target="_top" xlink:title="Definition of ParameterTable and InputDataManager.">
<polygon fill="white" stroke="black" points="87,-134.5 87,-153.5 202,-153.5 202,-134.5 87,-134.5"/>
<text text-anchor="middle" x="144.5" y="-141.5" font-family="Helvetica,sans-Serif" font-size="10.00">OMSimInputData.hh</text>
</a>
</g>
</g>
<!-- Node3&#45;&gt;Node4 -->
<g id="edge3" class="edge">
<title>Node3&#45;&gt;Node4</title>
<path fill="none" stroke="midnightblue" d="M359.09,-190.44C314.52,-181 242.73,-165.8 194.61,-155.61"/>
<polygon fill="midnightblue" stroke="midnightblue" points="195.22,-152.16 184.72,-153.52 193.77,-159.01 195.22,-152.16"/>
</g>
<!-- Node13 -->
<g id="node13" class="node">
<title>Node13</title>
<g id="a_node13"><a xlink:title=" ">
<polygon fill="white" stroke="#bfbfbf" points="220,-134.5 220,-153.5 327,-153.5 327,-134.5 220,-134.5"/>
<text text-anchor="middle" x="273.5" y="-141.5" font-family="Helvetica,sans-Serif" font-size="10.00">G4Transform3D.hh</text>
</a>
</g>
</g>
<!-- Node3&#45;&gt;Node13 -->
<g id="edge12" class="edge">
<title>Node3&#45;&gt;Node13</title>
<path fill="none" stroke="midnightblue" d="M379.53,-190.44C358.89,-181.6 326.44,-167.69 302.87,-157.59"/>
<polygon fill="midnightblue" stroke="midnightblue" points="303.94,-154.24 293.37,-153.52 301.18,-160.67 303.94,-154.24"/>
</g>
<!-- Node14 -->
<g id="node14" class="node">
<title>Node14</title>
<g id="a_node14"><a xlink:title=" ">
<polygon fill="white" stroke="#bfbfbf" points="345.5,-134.5 345.5,-153.5 453.5,-153.5 453.5,-134.5 345.5,-134.5"/>
<text text-anchor="middle" x="399.5" y="-141.5" font-family="Helvetica,sans-Serif" font-size="10.00">G4VisAttributes.hh</text>
</a>
</g>
</g>
<!-- Node3&#45;&gt;Node14 -->
<g id="edge13" class="edge">
<title>Node3&#45;&gt;Node14</title>
<path fill="none" stroke="midnightblue" d="M399.5,-190.08C399.5,-183.01 399.5,-172.86 399.5,-163.99"/>
<polygon fill="midnightblue" stroke="midnightblue" points="403,-163.75 399.5,-153.75 396,-163.75 403,-163.75"/>
</g>
<!-- Node15 -->
<g id="node15" class="node">
<title>Node15</title>
<g id="a_node15"><a xlink:title=" ">
<polygon fill="white" stroke="#bfbfbf" points="472,-134.5 472,-153.5 597,-153.5 597,-134.5 472,-134.5"/>
<text text-anchor="middle" x="534.5" y="-141.5" font-family="Helvetica,sans-Serif" font-size="10.00">G4SubtractionSolid.hh</text>
</a>
</g>
</g>
<!-- Node3&#45;&gt;Node15 -->
<g id="edge14" class="edge">
<title>Node3&#45;&gt;Node15</title>
<path fill="none" stroke="midnightblue" d="M420.89,-190.44C443.21,-181.52 478.4,-167.44 503.71,-157.32"/>
<polygon fill="midnightblue" stroke="midnightblue" points="505.22,-160.48 513.21,-153.52 502.62,-153.98 505.22,-160.48"/>
</g>
<!-- Node16 -->
<g id="node16" class="node">
<title>Node16</title>
<g id="a_node16"><a xlink:title=" ">
<polygon fill="white" stroke="#bfbfbf" points="615.5,-134.5 615.5,-153.5 725.5,-153.5 725.5,-134.5 615.5,-134.5"/>
<text text-anchor="middle" x="670.5" y="-141.5" font-family="Helvetica,sans-Serif" font-size="10.00">G4PVPlacement.hh</text>
</a>
</g>
</g>
<!-- Node3&#45;&gt;Node16 -->
<g id="edge15" class="edge">
<title>Node3&#45;&gt;Node16</title>
<path fill="none" stroke="midnightblue" d="M442.44,-190.44C490.01,-180.96 566.74,-165.67 617.89,-155.48"/>
<polygon fill="midnightblue" stroke="midnightblue" points="618.64,-158.9 627.76,-153.52 617.27,-152.04 618.64,-158.9"/>
</g>
<!-- Node5 -->
<g id="node5" class="node">
<title>Node5</title>
<g id="a_node5"><a xlink:href="_o_m_sim_logger_8hh.html" target="_top" xlink:title=" ">
<polygon fill="white" stroke="black" points="981,-73 981,-92 1080,-92 1080,-73 981,-73"/>
<text text-anchor="middle" x="1030.5" y="-80" font-family="Helvetica,sans-Serif" font-size="10.00">OMSimLogger.hh</text>
</a>
</g>
</g>
<!-- Node4&#45;&gt;Node5 -->
<g id="edge4" class="edge">
<title>Node4&#45;&gt;Node5</title>
<path fill="none" stroke="midnightblue" d="M202.06,-134.9C204.91,-134.57 207.74,-134.27 210.5,-134 494.43,-105.94 835.32,-90.9 970.78,-85.66"/>
<polygon fill="midnightblue" stroke="midnightblue" points="971.09,-89.15 980.95,-85.27 970.82,-82.16 971.09,-89.15"/>
</g>
<!-- Node10 -->
<g id="node10" class="node">
<title>Node10</title>
<g id="a_node10"><a xlink:title=" ">
<polygon fill="white" stroke="#bfbfbf" points="0,-73 0,-92 143,-92 143,-73 0,-73"/>
<text text-anchor="middle" x="71.5" y="-80" font-family="Helvetica,sans-Serif" font-size="10.00">G4OpBoundaryProcess.hh</text>
</a>
</g>
</g>
<!-- Node4&#45;&gt;Node10 -->
<g id="edge9" class="edge">
<title>Node4&#45;&gt;Node10</title>
<path fill="none" stroke="midnightblue" d="M134.04,-134.48C122.55,-125.11 103.87,-109.88 89.91,-98.51"/>
<polygon fill="midnightblue" stroke="midnightblue" points="91.9,-95.61 81.94,-92.01 87.48,-101.04 91.9,-95.61"/>
</g>
<!-- Node11 -->
<g id="node11" class="node">
<title>Node11</title>
<g id="a_node11"><a xlink:title=" ">
<polygon fill="white" stroke="#bfbfbf" points="493,-73 493,-92 612,-92 612,-73 493,-73"/>
<text text-anchor="middle" x="552.5" y="-80" font-family="Helvetica,sans-Serif" font-size="10.00">G4SystemOfUnits.hh</text>
</a>
</g>
</g>
<!-- Node4&#45;&gt;Node11 -->
<g id="edge10" class="edge">
<title>Node4&#45;&gt;Node11</title>
<path fill="none" stroke="midnightblue" d="M202.09,-134.6C276.19,-123.79 404.77,-105.04 483.87,-93.51"/>
<polygon fill="midnightblue" stroke="midnightblue" points="484.82,-96.91 494.21,-92 483.81,-89.98 484.82,-96.91"/>
</g>
<!-- Node12 -->
<g id="node12" class="node">
<title>Node12</title>
<g id="a_node12"><a xlink:title=" ">
<polygon fill="white" stroke="#bfbfbf" points="161,-67.5 161,-97.5 274,-97.5 274,-67.5 161,-67.5"/>
<text text-anchor="start" x="169" y="-85.5" font-family="Helvetica,sans-Serif" font-size="10.00">boost/property_tree</text>
<text text-anchor="middle" x="217.5" y="-74.5" font-family="Helvetica,sans-Serif" font-size="10.00">/json_parser.hpp</text>
</a>
</g>
</g>
<!-- Node4&#45;&gt;Node12 -->
<g id="edge11" class="edge">
<title>Node4&#45;&gt;Node12</title>
<path fill="none" stroke="midnightblue" d="M154.96,-134.48C164.66,-126.57 179.49,-114.48 192.27,-104.07"/>
<polygon fill="midnightblue" stroke="midnightblue" points="194.76,-106.55 200.3,-97.52 190.33,-101.13 194.76,-106.55"/>
</g>
<!-- Node6 -->
<g id="node6" class="node">
<title>Node6</title>
<g id="a_node6"><a xlink:title=" ">
<polygon fill="white" stroke="#bfbfbf" points="812,-6 812,-25 905,-25 905,-6 812,-6"/>
<text text-anchor="middle" x="858.5" y="-13" font-family="Helvetica,sans-Serif" font-size="10.00">spdlog/spdlog.h</text>
</a>
</g>
</g>
<!-- Node5&#45;&gt;Node6 -->
<g id="edge5" class="edge">
<title>Node5&#45;&gt;Node6</title>
<path fill="none" stroke="midnightblue" d="M1007.66,-72.87C977.63,-61.52 924.72,-41.52 890.66,-28.65"/>
<polygon fill="midnightblue" stroke="midnightblue" points="891.75,-25.32 881.16,-25.06 889.28,-31.87 891.75,-25.32"/>
</g>
<!-- Node7 -->
<g id="node7" class="node">
<title>Node7</title>
<g id="a_node7"><a xlink:title=" ">
<polygon fill="white" stroke="#bfbfbf" points="923,-0.5 923,-30.5 1034,-30.5 1034,-0.5 923,-0.5"/>
<text text-anchor="start" x="931" y="-18.5" font-family="Helvetica,sans-Serif" font-size="10.00">spdlog/sinks/stdout</text>
<text text-anchor="middle" x="978.5" y="-7.5" font-family="Helvetica,sans-Serif" font-size="10.00">_color_sinks.h</text>
</a>
</g>
</g>
<!-- Node5&#45;&gt;Node7 -->
<g id="edge6" class="edge">
<title>Node5&#45;&gt;Node7</title>
<path fill="none" stroke="midnightblue" d="M1023.49,-72.73C1016.53,-64.03 1005.58,-50.34 996.22,-38.65"/>
<polygon fill="midnightblue" stroke="midnightblue" points="998.75,-36.21 989.77,-30.59 993.29,-40.58 998.75,-36.21"/>
</g>
<!-- Node8 -->
<g id="node8" class="node">
<title>Node8</title>
<g id="a_node8"><a xlink:title=" ">
<polygon fill="white" stroke="#bfbfbf" points="1052.5,-6 1052.5,-25 1110.5,-25 1110.5,-6 1052.5,-6"/>
<text text-anchor="middle" x="1081.5" y="-13" font-family="Helvetica,sans-Serif" font-size="10.00">memory</text>
</a>
</g>
</g>
<!-- Node5&#45;&gt;Node8 -->
<g id="edge7" class="edge">
<title>Node5&#45;&gt;Node8</title>
<path fill="none" stroke="midnightblue" d="M1037.38,-72.73C1045.33,-62.6 1058.6,-45.69 1068.51,-33.06"/>
<polygon fill="midnightblue" stroke="midnightblue" points="1071.31,-35.16 1074.73,-25.13 1065.8,-30.83 1071.31,-35.16"/>
</g>
<!-- Node9 -->
<g id="node9" class="node">
<title>Node9</title>
<g id="a_node9"><a xlink:title=" ">
<polygon fill="white" stroke="#bfbfbf" points="1128.5,-6 1128.5,-25 1226.5,-25 1226.5,-6 1128.5,-6"/>
<text text-anchor="middle" x="1177.5" y="-13" font-family="Helvetica,sans-Serif" font-size="10.00">spdlog/fmt/fmt.h</text>
</a>
</g>
</g>
<!-- Node5&#45;&gt;Node9 -->
<g id="edge8" class="edge">
<title>Node5&#45;&gt;Node9</title>
<path fill="none" stroke="midnightblue" d="M1050.02,-72.87C1075.28,-61.7 1119.5,-42.15 1148.64,-29.26"/>
<polygon fill="midnightblue" stroke="midnightblue" points="1150.17,-32.41 1157.9,-25.17 1147.34,-26.01 1150.17,-32.41"/>
</g>
<!-- Node20 -->
<g id="node20" class="node">
<title>Node20</title>
<g id="a_node20"><a xlink:href="_o_m_sim_m_d_o_m_flasher_8hh.html" target="_top" xlink:title="Defines the mDOMFlasher class for simulating the 10 flashers in an mDOM optical module.">
<polygon fill="white" stroke="black" points="475,-246.5 475,-265.5 610,-265.5 610,-246.5 475,-246.5"/>
<text text-anchor="middle" x="542.5" y="-253.5" font-family="Helvetica,sans-Serif" font-size="10.00">OMSimMDOMFlasher.hh</text>
</a>
</g>
</g>
<!-- Node19&#45;&gt;Node20 -->
<g id="edge19" class="edge">
<title>Node19&#45;&gt;Node20</title>
<path fill="none" stroke="midnightblue" d="M735.44,-358.43C718.04,-345.19 682.91,-319.5 650.5,-302 626.47,-289.03 597.9,-277.27 576.19,-269.03"/>
<polygon fill="midnightblue" stroke="midnightblue" points="577.32,-265.72 566.73,-265.5 574.87,-272.28 577.32,-265.72"/>
</g>
<!-- Node23 -->
<g id="node23" class="node">
<title>Node23</title>
<g id="a_node23"><a xlink:href="_o_m_sim_p_m_t_construction_8hh.html" target="_top" xlink:title="Construction of the PMTs.">
<polygon fill="white" stroke="black" points="655,-246.5 655,-265.5 804,-265.5 804,-246.5 655,-246.5"/>
<text text-anchor="middle" x="729.5" y="-253.5" font-family="Helvetica,sans-Serif" font-size="10.00">OMSimPMTConstruction.hh</text>
</a>
</g>
</g>
<!-- Node19&#45;&gt;Node23 -->
<g id="edge23" class="edge">
<title>Node19&#45;&gt;Node23</title>
<path fill="none" stroke="midnightblue" d="M741.62,-358.37C736.94,-349.55 730.19,-335.3 727.5,-322 724.38,-306.59 725.25,-288.72 726.68,-275.62"/>
<polygon fill="midnightblue" stroke="midnightblue" points="730.18,-275.89 728.01,-265.52 723.24,-274.98 730.18,-275.89"/>
</g>
<!-- Node30 -->
<g id="node30" class="node">
<title>Node30</title>
<g id="a_node30"><a xlink:href="_o_m_sim_optical_module_8hh.html" target="_top" xlink:title=" ">
<polygon fill="white" stroke="black" points="737,-302.5 737,-321.5 874,-321.5 874,-302.5 737,-302.5"/>
<text text-anchor="middle" x="805.5" y="-309.5" font-family="Helvetica,sans-Serif" font-size="10.00">OMSimOpticalModule.hh</text>
</a>
</g>
</g>
<!-- Node19&#45;&gt;Node30 -->
<g id="edge34" class="edge">
<title>Node19&#45;&gt;Node30</title>
<path fill="none" stroke="midnightblue" d="M755.98,-358.32C764.7,-350.34 777.84,-338.31 788.4,-328.65"/>
<polygon fill="midnightblue" stroke="midnightblue" points="790.83,-331.17 795.85,-321.83 786.11,-326 790.83,-331.17"/>
</g>
<!-- Node20&#45;&gt;Node3 -->
<g id="edge20" class="edge">
<title>Node20&#45;&gt;Node3</title>
<path fill="none" stroke="midnightblue" d="M519.84,-246.44C496.1,-237.48 458.59,-223.31 431.76,-213.18"/>
<polygon fill="midnightblue" stroke="midnightblue" points="432.64,-209.77 422.05,-209.52 430.17,-216.32 432.64,-209.77"/>
</g>
<!-- Node21 -->
<g id="node21" class="node">
<title>Node21</title>
<g id="a_node21"><a xlink:title=" ">
<polygon fill="white" stroke="#bfbfbf" points="601.5,-190.5 601.5,-209.5 699.5,-209.5 699.5,-190.5 601.5,-190.5"/>
<text text-anchor="middle" x="650.5" y="-197.5" font-family="Helvetica,sans-Serif" font-size="10.00">G4UnionSolid.hh</text>
</a>
</g>
</g>
<!-- Node20&#45;&gt;Node21 -->
<g id="edge21" class="edge">
<title>Node20&#45;&gt;Node21</title>
<path fill="none" stroke="midnightblue" d="M559.85,-246.32C577.17,-237.66 604.02,-224.24 624,-214.25"/>
<polygon fill="midnightblue" stroke="midnightblue" points="625.81,-217.26 633.19,-209.65 622.68,-211 625.81,-217.26"/>
</g>
<!-- Node22 -->
<g id="node22" class="node">
<title>Node22</title>
<g id="a_node22"><a xlink:title=" ">
<polygon fill="white" stroke="#bfbfbf" points="491.5,-190.5 491.5,-209.5 583.5,-209.5 583.5,-190.5 491.5,-190.5"/>
<text text-anchor="middle" x="537.5" y="-197.5" font-family="Helvetica,sans-Serif" font-size="10.00">G4Navigator.hh</text>
</a>
</g>
</g>
<!-- Node20&#45;&gt;Node22 -->
<g id="edge22" class="edge">
<title>Node20&#45;&gt;Node22</title>
<path fill="none" stroke="midnightblue" d="M541.67,-246.08C541.02,-239.01 540.08,-228.86 539.26,-219.99"/>
<polygon fill="midnightblue" stroke="midnightblue" points="542.72,-219.39 538.31,-209.75 535.75,-220.03 542.72,-219.39"/>
</g>
<!-- Node23&#45;&gt;Node3 -->
<g id="edge24" class="edge">
<title>Node23&#45;&gt;Node3</title>
<path fill="none" stroke="midnightblue" d="M677.21,-246.44C618.68,-236.87 523.9,-221.36 461.63,-211.17"/>
<polygon fill="midnightblue" stroke="midnightblue" points="461.98,-207.68 451.54,-209.52 460.85,-214.59 461.98,-207.68"/>
</g>
<!-- Node23&#45;&gt;Node21 -->
<g id="edge32" class="edge">
<title>Node23&#45;&gt;Node21</title>
<path fill="none" stroke="midnightblue" d="M716.81,-246.32C704.6,-237.98 685.92,-225.21 671.5,-215.35"/>
<polygon fill="midnightblue" stroke="midnightblue" points="673.39,-212.41 663.16,-209.65 669.44,-218.19 673.39,-212.41"/>
</g>
<!-- Node23&#45;&gt;Node23 -->
<g id="edge25" class="edge">
<title>Node23&#45;&gt;Node23</title>
<path fill="none" stroke="midnightblue" d="M768.95,-265.53C795.76,-268.31 822,-265.13 822,-256 822,-248.01 801.91,-244.58 778.93,-245.71"/>
<polygon fill="midnightblue" stroke="midnightblue" points="778.65,-242.22 768.95,-246.47 779.19,-249.2 778.65,-242.22"/>
</g>
<!-- Node24 -->
<g id="node24" class="node">
<title>Node24</title>
<g id="a_node24"><a xlink:href="_o_m_sim_p_m_t_response_8hh.html" target="_top" xlink:title="Simulation of PMT response.">
<polygon fill="white" stroke="black" points="803,-190.5 803,-209.5 938,-209.5 938,-190.5 803,-190.5"/>
<text text-anchor="middle" x="870.5" y="-197.5" font-family="Helvetica,sans-Serif" font-size="10.00">OMSimPMTResponse.hh</text>
</a>
</g>
</g>
<!-- Node23&#45;&gt;Node24 -->
<g id="edge26" class="edge">
<title>Node23&#45;&gt;Node24</title>
<path fill="none" stroke="midnightblue" d="M751.84,-246.44C775.25,-237.48 812.24,-223.31 838.69,-213.18"/>
<polygon fill="midnightblue" stroke="midnightblue" points="840.18,-216.36 848.26,-209.52 837.67,-209.82 840.18,-216.36"/>
</g>
<!-- Node29 -->
<g id="node29" class="node">
<title>Node29</title>
<g id="a_node29"><a xlink:title=" ">
<polygon fill="white" stroke="#bfbfbf" points="718,-190.5 718,-209.5 785,-209.5 785,-190.5 718,-190.5"/>
<text text-anchor="middle" x="751.5" y="-197.5" font-family="Helvetica,sans-Serif" font-size="10.00">G4Tubs.hh</text>
</a>
</g>
</g>
<!-- Node23&#45;&gt;Node29 -->
<g id="edge33" class="edge">
<title>Node23&#45;&gt;Node29</title>
<path fill="none" stroke="midnightblue" d="M733.13,-246.08C736.11,-238.77 740.43,-228.18 744.12,-219.1"/>
<polygon fill="midnightblue" stroke="midnightblue" points="747.4,-220.33 747.93,-209.75 740.92,-217.69 747.4,-220.33"/>
</g>
<!-- Node24&#45;&gt;Node11 -->
<g id="edge27" class="edge">
<title>Node24&#45;&gt;Node11</title>
<path fill="none" stroke="midnightblue" d="M850.83,-190.34C830.94,-181.5 799.37,-167.23 772.5,-154 755.38,-145.57 752.24,-141.04 734.5,-134 691.17,-116.82 639.85,-103.15 602.77,-94.39"/>
<polygon fill="midnightblue" stroke="midnightblue" points="603.24,-90.9 592.71,-92.05 601.66,-97.72 603.24,-90.9"/>
</g>
<!-- Node25 -->
<g id="node25" class="node">
<title>Node25</title>
<g id="a_node25"><a xlink:title=" ">
<polygon fill="white" stroke="#bfbfbf" points="782,-134.5 782,-153.5 855,-153.5 855,-134.5 782,-134.5"/>
<text text-anchor="middle" x="818.5" y="-141.5" font-family="Helvetica,sans-Serif" font-size="10.00">G4Types.hh</text>
</a>
</g>
</g>
<!-- Node24&#45;&gt;Node25 -->
<g id="edge28" class="edge">
<title>Node24&#45;&gt;Node25</title>
<path fill="none" stroke="midnightblue" d="M861.91,-190.08C854.34,-182.22 843.12,-170.57 833.99,-161.08"/>
<polygon fill="midnightblue" stroke="midnightblue" points="836.38,-158.53 826.93,-153.75 831.34,-163.38 836.38,-158.53"/>
</g>
<!-- Node26 -->
<g id="node26" class="node">
<title>Node26</title>
<g id="a_node26"><a xlink:title=" ">
<polygon fill="white" stroke="#bfbfbf" points="873.5,-134.5 873.5,-153.5 911.5,-153.5 911.5,-134.5 873.5,-134.5"/>
<text text-anchor="middle" x="892.5" y="-141.5" font-family="Helvetica,sans-Serif" font-size="10.00">map</text>
</a>
</g>
</g>
<!-- Node24&#45;&gt;Node26 -->
<g id="edge29" class="edge">
<title>Node24&#45;&gt;Node26</title>
<path fill="none" stroke="midnightblue" d="M874.13,-190.08C877.11,-182.77 881.43,-172.18 885.12,-163.1"/>
<polygon fill="midnightblue" stroke="midnightblue" points="888.4,-164.33 888.93,-153.75 881.92,-161.69 888.4,-164.33"/>
</g>
<!-- Node27 -->
<g id="node27" class="node">
<title>Node27</title>
<g id="a_node27"><a xlink:title=" ">
<polygon fill="white" stroke="#bfbfbf" points="930,-134.5 930,-153.5 991,-153.5 991,-134.5 930,-134.5"/>
<text text-anchor="middle" x="960.5" y="-141.5" font-family="Helvetica,sans-Serif" font-size="10.00">TGraph.h</text>
</a>
</g>
</g>
<!-- Node24&#45;&gt;Node27 -->
<g id="edge30" class="edge">
<title>Node24&#45;&gt;Node27</title>
<path fill="none" stroke="midnightblue" d="M884.96,-190.32C899,-181.9 920.55,-168.97 937.04,-159.07"/>
<polygon fill="midnightblue" stroke="midnightblue" points="939.3,-161.8 946.08,-153.65 935.7,-155.8 939.3,-161.8"/>
</g>
<!-- Node28 -->
<g id="node28" class="node">
<title>Node28</title>
<g id="a_node28"><a xlink:title=" ">
<polygon fill="white" stroke="#bfbfbf" points="1009,-134.5 1009,-153.5 1062,-153.5 1062,-134.5 1009,-134.5"/>
<text text-anchor="middle" x="1035.5" y="-141.5" font-family="Helvetica,sans-Serif" font-size="10.00">TH2D.h</text>
</a>
</g>
</g>
<!-- Node24&#45;&gt;Node28 -->
<g id="edge31" class="edge">
<title>Node24&#45;&gt;Node28</title>
<path fill="none" stroke="midnightblue" d="M896.64,-190.44C924.52,-181.32 968.85,-166.81 999.9,-156.65"/>
<polygon fill="midnightblue" stroke="midnightblue" points="1001.06,-159.95 1009.48,-153.52 998.88,-153.3 1001.06,-159.95"/>
</g>
<!-- Node30&#45;&gt;Node3 -->
<g id="edge35" class="edge">
<title>Node30&#45;&gt;Node3</title>
<path fill="none" stroke="midnightblue" d="M736.78,-307.06C651.58,-301.29 511.91,-288.68 465.5,-266 442.79,-254.9 423.09,-232.93 411.26,-217.62"/>
<polygon fill="midnightblue" stroke="midnightblue" points="414.02,-215.46 405.25,-209.51 408.39,-219.63 414.02,-215.46"/>
</g>
<!-- Node30&#45;&gt;Node23 -->
<g id="edge42" class="edge">
<title>Node30&#45;&gt;Node23</title>
<path fill="none" stroke="midnightblue" d="M793.29,-302.32C781.72,-294.11 764.12,-281.6 750.34,-271.81"/>
<polygon fill="midnightblue" stroke="midnightblue" points="752.11,-268.77 741.93,-265.83 748.06,-274.48 752.11,-268.77"/>
</g>
<!-- Node31 -->
<g id="node31" class="node">
<title>Node31</title>
<g id="a_node31"><a xlink:href="_o_m_sim_hit_manager_8hh.html" target="_top" xlink:title="Defines structures and classes related to optical module photon hit management.">
<polygon fill="white" stroke="black" points="1003,-246.5 1003,-265.5 1126,-265.5 1126,-246.5 1003,-246.5"/>
<text text-anchor="middle" x="1064.5" y="-253.5" font-family="Helvetica,sans-Serif" font-size="10.00">OMSimHitManager.hh</text>
</a>
</g>
</g>
<!-- Node30&#45;&gt;Node31 -->
<g id="edge36" class="edge">
<title>Node30&#45;&gt;Node31</title>
<path fill="none" stroke="midnightblue" d="M846.54,-302.44C891.82,-293 964.73,-277.8 1013.61,-267.61"/>
<polygon fill="midnightblue" stroke="midnightblue" points="1014.58,-270.98 1023.65,-265.52 1013.15,-264.13 1014.58,-270.98"/>
</g>
<!-- Node31&#45;&gt;Node24 -->
<g id="edge37" class="edge">
<title>Node31&#45;&gt;Node24</title>
<path fill="none" stroke="midnightblue" d="M1033.76,-246.44C1000.56,-237.2 947.51,-222.44 910.94,-212.26"/>
<polygon fill="midnightblue" stroke="midnightblue" points="911.67,-208.83 901.1,-209.52 909.79,-215.57 911.67,-208.83"/>
</g>
<!-- Node32 -->
<g id="node32" class="node">
<title>Node32</title>
<g id="a_node32"><a xlink:title=" ">
<polygon fill="white" stroke="#bfbfbf" points="956,-190.5 956,-209.5 1059,-209.5 1059,-190.5 956,-190.5"/>
<text text-anchor="middle" x="1007.5" y="-197.5" font-family="Helvetica,sans-Serif" font-size="10.00">G4ThreeVector.hh</text>
</a>
</g>
</g>
<!-- Node31&#45;&gt;Node32 -->
<g id="edge38" class="edge">
<title>Node31&#45;&gt;Node32</title>
<path fill="none" stroke="midnightblue" d="M1055.34,-246.32C1047,-238.42 1034.47,-226.55 1024.32,-216.94"/>
<polygon fill="midnightblue" stroke="midnightblue" points="1026.49,-214.17 1016.82,-209.83 1021.68,-219.25 1026.49,-214.17"/>
</g>
<!-- Node33 -->
<g id="node33" class="node">
<title>Node33</title>
<g id="a_node33"><a xlink:title=" ">
<polygon fill="white" stroke="#bfbfbf" points="1298,-190.5 1298,-209.5 1353,-209.5 1353,-190.5 1298,-190.5"/>
<text text-anchor="middle" x="1325.5" y="-197.5" font-family="Helvetica,sans-Serif" font-size="10.00">fstream</text>
</a>
</g>
</g>
<!-- Node31&#45;&gt;Node33 -->
<g id="edge39" class="edge">
<title>Node31&#45;&gt;Node33</title>
<path fill="none" stroke="midnightblue" d="M1109.66,-246.48C1152.86,-238.21 1220.07,-225.02 1287.67,-210.11"/>
<polygon fill="midnightblue" stroke="midnightblue" points="1288.64,-213.48 1297.65,-207.9 1287.13,-206.65 1288.64,-213.48"/>
</g>
<!-- Node34 -->
<g id="node34" class="node">
<title>Node34</title>
<g id="a_node34"><a xlink:title=" ">
<polygon fill="white" stroke="#bfbfbf" points="1077.5,-190.5 1077.5,-209.5 1167.5,-209.5 1167.5,-190.5 1077.5,-190.5"/>
<text text-anchor="middle" x="1122.5" y="-197.5" font-family="Helvetica,sans-Serif" font-size="10.00">G4AutoLock.hh</text>
</a>
</g>
</g>
<!-- Node31&#45;&gt;Node34 -->
<g id="edge40" class="edge">
<title>Node31&#45;&gt;Node34</title>
<path fill="none" stroke="midnightblue" d="M1073.82,-246.32C1082.39,-238.34 1095.31,-226.31 1105.69,-216.65"/>
<polygon fill="midnightblue" stroke="midnightblue" points="1108.08,-219.21 1113.01,-209.83 1103.31,-214.09 1108.08,-219.21"/>
</g>
<!-- Node35 -->
<g id="node35" class="node">
<title>Node35</title>
<g id="a_node35"><a xlink:title=" ">
<polygon fill="white" stroke="#bfbfbf" points="1185.5,-190.5 1185.5,-209.5 1279.5,-209.5 1279.5,-190.5 1185.5,-190.5"/>
<text text-anchor="middle" x="1232.5" y="-197.5" font-family="Helvetica,sans-Serif" font-size="10.00">G4Threading.hh</text>
</a>
</g>
</g>
<!-- Node31&#45;&gt;Node35 -->
<g id="edge41" class="edge">
<title>Node31&#45;&gt;Node35</title>
<path fill="none" stroke="midnightblue" d="M1091.12,-246.44C1119.51,-237.32 1164.64,-222.81 1196.25,-212.65"/>
<polygon fill="midnightblue" stroke="midnightblue" points="1197.56,-215.91 1206,-209.52 1195.41,-209.24 1197.56,-215.91"/>
</g>
<!-- Node36&#45;&gt;Node5 -->
<g id="edge44" class="edge">
<title>Node36&#45;&gt;Node5</title>
<path fill="none" stroke="midnightblue" d="M1381.42,-246.14C1380.81,-232.29 1377.6,-205.49 1362.5,-190 1289.68,-115.26 1164.38,-92.88 1090.3,-86.24"/>
<polygon fill="midnightblue" stroke="midnightblue" points="1090.46,-82.74 1080.2,-85.41 1089.88,-89.72 1090.46,-82.74"/>
</g>
<!-- Node36&#45;&gt;Node33 -->
<g id="edge45" class="edge">
<title>Node36&#45;&gt;Node33</title>
<path fill="none" stroke="midnightblue" d="M1372.5,-246.32C1364.31,-238.42 1351.99,-226.55 1342.03,-216.94"/>
<polygon fill="midnightblue" stroke="midnightblue" points="1344.29,-214.26 1334.66,-209.83 1339.43,-219.29 1344.29,-214.26"/>
</g>
<!-- Node37 -->
<g id="node37" class="node">
<title>Node37</title>
<g id="a_node37"><a xlink:title=" ">
<polygon fill="white" stroke="#bfbfbf" points="1409.5,-190.5 1409.5,-209.5 1493.5,-209.5 1493.5,-190.5 1409.5,-190.5"/>
<text text-anchor="middle" x="1451.5" y="-197.5" font-family="Helvetica,sans-Serif" font-size="10.00">boost/any.hpp</text>
</a>
</g>
</g>
<!-- Node36&#45;&gt;Node37 -->
<g id="edge46" class="edge">
<title>Node36&#45;&gt;Node37</title>
<path fill="none" stroke="midnightblue" d="M1392.75,-246.32C1403.3,-238.18 1419.3,-225.84 1431.94,-216.09"/>
<polygon fill="midnightblue" stroke="midnightblue" points="1434.27,-218.71 1440.05,-209.83 1429.99,-213.17 1434.27,-218.71"/>
</g>
<!-- Node38 -->
<g id="node38" class="node">
<title>Node38</title>
<g id="a_node38"><a xlink:title=" ">
<polygon fill="white" stroke="#bfbfbf" points="1511.5,-190.5 1511.5,-209.5 1579.5,-209.5 1579.5,-190.5 1511.5,-190.5"/>
<text text-anchor="middle" x="1545.5" y="-197.5" font-family="Helvetica,sans-Serif" font-size="10.00">sys/time.h</text>
</a>
</g>
</g>
<!-- Node36&#45;&gt;Node38 -->
<g id="edge47" class="edge">
<title>Node36&#45;&gt;Node38</title>
<path fill="none" stroke="midnightblue" d="M1407.49,-246.44C1435.2,-237.32 1479.25,-222.81 1510.12,-212.65"/>
<polygon fill="midnightblue" stroke="midnightblue" points="1511.23,-215.97 1519.64,-209.52 1509.04,-209.32 1511.23,-215.97"/>
</g>
</g>
</svg>
