<?xml version="1.0" encoding="UTF-8" standalone="no"?>
<!DOCTYPE svg PUBLIC "-//W3C//DTD SVG 1.1//EN"
 "http://www.w3.org/Graphics/SVG/1.1/DTD/svg11.dtd">
<!-- Generated by graphviz version 2.43.0 (0)
 -->
<!-- Title: OMSimOpticalModule.hh Pages: 1 -->
<svg width="2360pt" height="196pt"
 viewBox="0.00 0.00 2359.50 196.00" xmlns="http://www.w3.org/2000/svg" xmlns:xlink="http://www.w3.org/1999/xlink">
<g id="graph0" class="graph" transform="scale(1 1) rotate(0) translate(4 192)">
<title>OMSimOpticalModule.hh</title>
<polygon fill="white" stroke="transparent" points="-4,4 -4,-192 2355.5,-192 2355.5,4 -4,4"/>
<!-- Node1 -->
<g id="node1" class="node">
<title>Node1</title>
<g id="a_node1"><a xlink:title=" ">
<polygon fill="#bfbfbf" stroke="black" points="1012,-168.5 1012,-187.5 1149,-187.5 1149,-168.5 1012,-168.5"/>
<text text-anchor="middle" x="1080.5" y="-175.5" font-family="Helvetica,sans-Serif" font-size="10.00">OMSimOpticalModule.hh</text>
</a>
</g>
</g>
<!-- Node2 -->
<g id="node2" class="node">
<title>Node2</title>
<g id="a_node2"><a xlink:href="_o_m_sim_d_e_g_g_8hh.html" target="_top" xlink:title="Construction of the DEGG class. From DOUMEKI.">
<polygon fill="white" stroke="black" points="663,-56.5 663,-75.5 758,-75.5 758,-56.5 663,-56.5"/>
<text text-anchor="middle" x="710.5" y="-63.5" font-family="Helvetica,sans-Serif" font-size="10.00">OMSimDEGG.hh</text>
</a>
</g>
</g>
<!-- Node1&#45;&gt;Node2 -->
<g id="edge1" class="edge">
<title>Node1&#45;&gt;Node2</title>
<path fill="none" stroke="midnightblue" d="M1041.35,-165.65C1010.21,-156.61 965.54,-143.58 926.5,-132 859.11,-112.01 780.03,-88.1 738.78,-75.59"/>
<polygon fill="midnightblue" stroke="midnightblue" points="1040.38,-169.02 1050.96,-168.44 1042.33,-162.29 1040.38,-169.02"/>
</g>
<!-- Node9 -->
<g id="node9" class="node">
<title>Node9</title>
<g id="a_node9"><a xlink:href="_o_m_sim_detector_construction_8hh.html" target="_top" xlink:title=" ">
<polygon fill="white" stroke="black" points="1380.5,-112.5 1380.5,-131.5 1550.5,-131.5 1550.5,-112.5 1380.5,-112.5"/>
<text text-anchor="middle" x="1465.5" y="-119.5" font-family="Helvetica,sans-Serif" font-size="10.00">OMSimDetectorConstruction.hh</text>
</a>
</g>
</g>
<!-- Node1&#45;&gt;Node9 -->
<g id="edge8" class="edge">
<title>Node1&#45;&gt;Node9</title>
<path fill="none" stroke="midnightblue" d="M1151.5,-167.04C1224.21,-156.84 1336.05,-141.16 1404.78,-131.52"/>
<polygon fill="midnightblue" stroke="midnightblue" points="1150.92,-163.59 1141.5,-168.44 1151.89,-170.52 1150.92,-163.59"/>
</g>
<!-- Node17 -->
<g id="node17" class="node">
<title>Node17</title>
<g id="a_node17"><a xlink:href="_o_m_sim_rad_decays_detector_8hh.html" target="_top" xlink:title="Defines the OMSimRadDecaysDetector class for the radioactive decays simulation.">
<polygon fill="white" stroke="black" points="1826,-56.5 1826,-75.5 1989,-75.5 1989,-56.5 1826,-56.5"/>
<text text-anchor="middle" x="1907.5" y="-63.5" font-family="Helvetica,sans-Serif" font-size="10.00">OMSimRadDecaysDetector.hh</text>
</a>
</g>
</g>
<!-- Node1&#45;&gt;Node17 -->
<g id="edge60" class="edge">
<title>Node1&#45;&gt;Node17</title>
<path fill="none" stroke="midnightblue" d="M1159.46,-171.79C1254.62,-165.01 1419.23,-151.65 1559.5,-132 1672.26,-116.21 1804.05,-89.23 1868.29,-75.53"/>
<polygon fill="midnightblue" stroke="midnightblue" points="1159.07,-168.31 1149.34,-172.51 1159.56,-175.3 1159.07,-168.31"/>
</g>
<!-- Node19 -->
<g id="node19" class="node">
<title>Node19</title>
<g id="a_node19"><a xlink:href="_o_m_sim_l_o_m16_8hh.html" target="_top" xlink:title="Construction of LOM16.">
<polygon fill="white" stroke="black" points="776,-56.5 776,-75.5 877,-75.5 877,-56.5 776,-56.5"/>
<text text-anchor="middle" x="826.5" y="-63.5" font-family="Helvetica,sans-Serif" font-size="10.00">OMSimLOM16.hh</text>
</a>
</g>
</g>
<!-- Node1&#45;&gt;Node19 -->
<g id="edge25" class="edge">
<title>Node1&#45;&gt;Node19</title>
<path fill="none" stroke="midnightblue" d="M1051.19,-164.3C998.9,-141.66 890.86,-94.87 846.34,-75.59"/>
<polygon fill="midnightblue" stroke="midnightblue" points="1050,-167.61 1060.57,-168.37 1052.78,-161.18 1050,-167.61"/>
</g>
<!-- Node21 -->
<g id="node21" class="node">
<title>Node21</title>
<g id="a_node21"><a xlink:href="_o_m_sim_l_o_m18_8hh.html" target="_top" xlink:title="Construction of LOM18.">
<polygon fill="white" stroke="black" points="544,-56.5 544,-75.5 645,-75.5 645,-56.5 544,-56.5"/>
<text text-anchor="middle" x="594.5" y="-63.5" font-family="Helvetica,sans-Serif" font-size="10.00">OMSimLOM18.hh</text>
</a>
</g>
</g>
<!-- Node1&#45;&gt;Node21 -->
<g id="edge32" class="edge">
<title>Node1&#45;&gt;Node21</title>
<path fill="none" stroke="midnightblue" d="M1024.96,-166.56C979.54,-157.85 913.71,-144.84 856.5,-132 773.5,-113.38 676.5,-88.49 627.06,-75.58"/>
<polygon fill="midnightblue" stroke="midnightblue" points="1024.42,-170.02 1034.9,-168.46 1025.73,-163.15 1024.42,-170.02"/>
</g>
<!-- Node23 -->
<g id="node23" class="node">
<title>Node23</title>
<g id="a_node23"><a xlink:href="_o_m_sim_m_d_o_m_8hh.html" target="_top" xlink:title="Construction of mDOM.">
<polygon fill="white" stroke="black" points="1030.5,-56.5 1030.5,-75.5 1130.5,-75.5 1130.5,-56.5 1030.5,-56.5"/>
<text text-anchor="middle" x="1080.5" y="-63.5" font-family="Helvetica,sans-Serif" font-size="10.00">OMSimMDOM.hh</text>
</a>
</g>
</g>
<!-- Node1&#45;&gt;Node23 -->
<g id="edge39" class="edge">
<title>Node1&#45;&gt;Node23</title>
<path fill="none" stroke="midnightblue" d="M1080.5,-158.35C1080.5,-134.25 1080.5,-93.31 1080.5,-75.59"/>
<polygon fill="midnightblue" stroke="midnightblue" points="1077,-158.37 1080.5,-168.37 1084,-158.37 1077,-158.37"/>
</g>
<!-- Node27 -->
<g id="node27" class="node">
<title>Node27</title>
<g id="a_node27"><a xlink:href="_o_m_sim_p_d_o_m_8hh.html" target="_top" xlink:title="Implementation of the pDOM/Gen1 DOM class.">
<polygon fill="white" stroke="black" points="895,-56.5 895,-75.5 992,-75.5 992,-56.5 895,-56.5"/>
<text text-anchor="middle" x="943.5" y="-63.5" font-family="Helvetica,sans-Serif" font-size="10.00">OMSimPDOM.hh</text>
</a>
</g>
</g>
<!-- Node1&#45;&gt;Node27 -->
<g id="edge48" class="edge">
<title>Node1&#45;&gt;Node27</title>
<path fill="none" stroke="midnightblue" d="M1061.59,-161.82C1032.41,-138.39 977.36,-94.19 954.2,-75.59"/>
<polygon fill="midnightblue" stroke="midnightblue" points="1059.76,-164.84 1069.75,-168.37 1064.14,-159.38 1059.76,-164.84"/>
</g>
<!-- Node29 -->
<g id="node29" class="node">
<title>Node29</title>
<g id="a_node29"><a xlink:href="_o_m_sim_optical_module_8cc.html" target="_top" xlink:title=" ">
<polygon fill="white" stroke="black" points="2096.5,-112.5 2096.5,-131.5 2232.5,-131.5 2232.5,-112.5 2096.5,-112.5"/>
<text text-anchor="middle" x="2164.5" y="-119.5" font-family="Helvetica,sans-Serif" font-size="10.00">OMSimOpticalModule.cc</text>
</a>
</g>
</g>
<!-- Node1&#45;&gt;Node29 -->
<g id="edge55" class="edge">
<title>Node1&#45;&gt;Node29</title>
<path fill="none" stroke="midnightblue" d="M1159.39,-175.4C1329.3,-171.53 1742.41,-159.84 2087.5,-132 2090.32,-131.77 2093.19,-131.52 2096.09,-131.25"/>
<polygon fill="midnightblue" stroke="midnightblue" points="1159.2,-171.9 1149.28,-175.63 1159.36,-178.9 1159.2,-171.9"/>
</g>
<!-- Node30 -->
<g id="node30" class="node">
<title>Node30</title>
<g id="a_node30"><a xlink:href="_o_m_sim_decays_g_p_s_8hh.html" target="_top" xlink:title="Defines the OMSimDecaysGPS class for the radioactive decays simulation.">
<polygon fill="white" stroke="black" points="1956.5,-112.5 1956.5,-131.5 2078.5,-131.5 2078.5,-112.5 1956.5,-112.5"/>
<text text-anchor="middle" x="2017.5" y="-119.5" font-family="Helvetica,sans-Serif" font-size="10.00">OMSimDecaysGPS.hh</text>
</a>
</g>
</g>
<!-- Node1&#45;&gt;Node30 -->
<g id="edge56" class="edge">
<title>Node1&#45;&gt;Node30</title>
<path fill="none" stroke="midnightblue" d="M1159.1,-172.47C1341.87,-161.94 1792.38,-135.97 1956.47,-126.52"/>
<polygon fill="midnightblue" stroke="midnightblue" points="1158.8,-168.98 1149.02,-173.05 1159.21,-175.97 1158.8,-168.98"/>
</g>
<!-- Node3 -->
<g id="node3" class="node">
<title>Node3</title>
<g id="a_node3"><a xlink:href="_o_m_sim_d_e_g_g_8cc.html" target="_top" xlink:title=" ">
<polygon fill="white" stroke="black" points="117.5,-0.5 117.5,-19.5 211.5,-19.5 211.5,-0.5 117.5,-0.5"/>
<text text-anchor="middle" x="164.5" y="-7.5" font-family="Helvetica,sans-Serif" font-size="10.00">OMSimDEGG.cc</text>
</a>
</g>
</g>
<!-- Node2&#45;&gt;Node3 -->
<g id="edge2" class="edge">
<title>Node2&#45;&gt;Node3</title>
<path fill="none" stroke="midnightblue" d="M652.77,-56.01C460.04,-33.27 408.92,-42.94 220.5,-20 217.57,-19.64 214.55,-19.25 211.52,-18.82"/>
<polygon fill="midnightblue" stroke="midnightblue" points="652.61,-59.51 662.95,-57.22 653.44,-52.56 652.61,-59.51"/>
</g>
<!-- Node4 -->
<g id="node4" class="node">
<title>Node4</title>
<g id="a_node4"><a xlink:href="_o_m_sim_detector_construction_8cc.html" target="_top" xlink:title=" ">
<polygon fill="white" stroke="black" points="230,-0.5 230,-19.5 399,-19.5 399,-0.5 230,-0.5"/>
<text text-anchor="middle" x="314.5" y="-7.5" font-family="Helvetica,sans-Serif" font-size="10.00">OMSimDetectorConstruction.cc</text>
</a>
</g>
</g>
<!-- Node2&#45;&gt;Node4 -->
<g id="edge3" class="edge">
<title>Node2&#45;&gt;Node4</title>
<path fill="none" stroke="midnightblue" d="M652.93,-55.95C552.68,-41.46 448.71,-27.94 382.42,-19.52"/>
<polygon fill="midnightblue" stroke="midnightblue" points="652.53,-59.43 662.93,-57.4 653.53,-52.5 652.53,-59.43"/>
</g>
<!-- Node5 -->
<g id="node5" class="node">
<title>Node5</title>
<g id="a_node5"><a xlink:href="_o_m_sim_effective_area_detector_8cc.html" target="_top" xlink:title=" ">
<polygon fill="white" stroke="black" points="683.5,-0.5 683.5,-19.5 855.5,-19.5 855.5,-0.5 683.5,-0.5"/>
<text text-anchor="middle" x="769.5" y="-7.5" font-family="Helvetica,sans-Serif" font-size="10.00">OMSimEffectiveAreaDetector.cc</text>
</a>
</g>
</g>
<!-- Node2&#45;&gt;Node5 -->
<g id="edge4" class="edge">
<title>Node2&#45;&gt;Node5</title>
<path fill="none" stroke="midnightblue" d="M727.39,-49.54C737.91,-39.91 751.07,-27.87 759.85,-19.83"/>
<polygon fill="midnightblue" stroke="midnightblue" points="724.99,-46.99 719.98,-56.32 729.72,-52.15 724.99,-46.99"/>
</g>
<!-- Node6 -->
<g id="node6" class="node">
<title>Node6</title>
<g id="a_node6"><a xlink:href="_o_m_sim_rad_decays_detector_8cc.html" target="_top" xlink:title=" ">
<polygon fill="white" stroke="black" points="1011,-0.5 1011,-19.5 1172,-19.5 1172,-0.5 1011,-0.5"/>
<text text-anchor="middle" x="1091.5" y="-7.5" font-family="Helvetica,sans-Serif" font-size="10.00">OMSimRadDecaysDetector.cc</text>
</a>
</g>
</g>
<!-- Node2&#45;&gt;Node6 -->
<g id="edge5" class="edge">
<title>Node2&#45;&gt;Node6</title>
<path fill="none" stroke="midnightblue" d="M768.01,-55.95C864.55,-41.68 964.29,-28.04 1027.51,-19.53"/>
<polygon fill="midnightblue" stroke="midnightblue" points="767.45,-52.49 758.08,-57.42 768.48,-59.42 767.45,-52.49"/>
</g>
<!-- Node7 -->
<g id="node7" class="node">
<title>Node7</title>
<g id="a_node7"><a xlink:href="_o_m_sim_yield_detector_8cc.html" target="_top" xlink:title=" ">
<polygon fill="white" stroke="black" points="417,-0.5 417,-19.5 548,-19.5 548,-0.5 417,-0.5"/>
<text text-anchor="middle" x="482.5" y="-7.5" font-family="Helvetica,sans-Serif" font-size="10.00">OMSimYieldDetector.cc</text>
</a>
</g>
</g>
<!-- Node2&#45;&gt;Node7 -->
<g id="edge6" class="edge">
<title>Node2&#45;&gt;Node7</title>
<path fill="none" stroke="midnightblue" d="M664.43,-54.09C621.35,-43.89 557.91,-28.86 518.46,-19.52"/>
<polygon fill="midnightblue" stroke="midnightblue" points="663.84,-57.54 674.37,-56.44 665.45,-50.73 663.84,-57.54"/>
</g>
<!-- Node8 -->
<g id="node8" class="node">
<title>Node8</title>
<g id="a_node8"><a xlink:href="_o_m_sim_s_ndetector_8cc.html" target="_top" xlink:title=" ">
<polygon fill="white" stroke="black" points="874,-0.5 874,-19.5 993,-19.5 993,-0.5 874,-0.5"/>
<text text-anchor="middle" x="933.5" y="-7.5" font-family="Helvetica,sans-Serif" font-size="10.00">OMSimSNdetector.cc</text>
</a>
</g>
</g>
<!-- Node2&#45;&gt;Node8 -->
<g id="edge7" class="edge">
<title>Node2&#45;&gt;Node8</title>
<path fill="none" stroke="midnightblue" d="M755.56,-54.09C797.69,-43.89 859.74,-28.86 898.33,-19.52"/>
<polygon fill="midnightblue" stroke="midnightblue" points="754.73,-50.69 745.84,-56.44 756.38,-57.49 754.73,-50.69"/>
</g>
<!-- Node9&#45;&gt;Node4 -->
<g id="edge14" class="edge">
<title>Node9&#45;&gt;Node4</title>
<path fill="none" stroke="midnightblue" d="M1370.11,-119.28C1166.08,-115.12 692.97,-102.84 534.5,-76 460.48,-63.46 376.19,-34.15 336.88,-19.56"/>
<polygon fill="midnightblue" stroke="midnightblue" points="1370.14,-122.78 1380.21,-119.48 1370.29,-115.78 1370.14,-122.78"/>
</g>
<!-- Node10 -->
<g id="node10" class="node">
<title>Node10</title>
<g id="a_node10"><a xlink:href="_o_m_sim_8hh.html" target="_top" xlink:title="Main simulation class for the Optical Module (OM) simulation. This file defines the OMSim class,...">
<polygon fill="white" stroke="black" points="1741,-56.5 1741,-75.5 1808,-75.5 1808,-56.5 1741,-56.5"/>
<text text-anchor="middle" x="1774.5" y="-63.5" font-family="Helvetica,sans-Serif" font-size="10.00">OMSim.hh</text>
</a>
</g>
</g>
<!-- Node9&#45;&gt;Node10 -->
<g id="edge9" class="edge">
<title>Node9&#45;&gt;Node10</title>
<path fill="none" stroke="midnightblue" d="M1524.42,-110.7C1588.45,-99.51 1688.55,-82.02 1740.56,-72.93"/>
<polygon fill="midnightblue" stroke="midnightblue" points="1523.71,-107.27 1514.46,-112.44 1524.92,-114.17 1523.71,-107.27"/>
</g>
<!-- Node15 -->
<g id="node15" class="node">
<title>Node15</title>
<g id="a_node15"><a xlink:href="_o_m_sim_p_m_t_construction_8cc.html" target="_top" xlink:title=" ">
<polygon fill="white" stroke="black" points="1544,-56.5 1544,-75.5 1691,-75.5 1691,-56.5 1544,-56.5"/>
<text text-anchor="middle" x="1617.5" y="-63.5" font-family="Helvetica,sans-Serif" font-size="10.00">OMSimPMTConstruction.cc</text>
</a>
</g>
</g>
<!-- Node9&#45;&gt;Node15 -->
<g id="edge15" class="edge">
<title>Node9&#45;&gt;Node15</title>
<path fill="none" stroke="midnightblue" d="M1499.17,-109.04C1527.77,-98.88 1568.11,-84.55 1593.53,-75.52"/>
<polygon fill="midnightblue" stroke="midnightblue" points="1497.84,-105.8 1489.58,-112.44 1500.18,-112.39 1497.84,-105.8"/>
</g>
<!-- Node16 -->
<g id="node16" class="node">
<title>Node16</title>
<g id="a_node16"><a xlink:href="_o_m_sim_effective_area_detector_8hh.html" target="_top" xlink:title="Defines the OMSimEffectiveAreaDetector class for effective area simulation detector construction.">
<polygon fill="white" stroke="black" points="1214,-56.5 1214,-75.5 1387,-75.5 1387,-56.5 1214,-56.5"/>
<text text-anchor="middle" x="1300.5" y="-63.5" font-family="Helvetica,sans-Serif" font-size="10.00">OMSimEffectiveAreaDetector.hh</text>
</a>
</g>
</g>
<!-- Node9&#45;&gt;Node16 -->
<g id="edge16" class="edge">
<title>Node9&#45;&gt;Node16</title>
<path fill="none" stroke="midnightblue" d="M1429.76,-109.3C1398.67,-99.13 1354.35,-84.62 1326.52,-75.52"/>
<polygon fill="midnightblue" stroke="midnightblue" points="1428.76,-112.66 1439.36,-112.44 1430.94,-106.01 1428.76,-112.66"/>
</g>
<!-- Node9&#45;&gt;Node17 -->
<g id="edge19" class="edge">
<title>Node9&#45;&gt;Node17</title>
<path fill="none" stroke="midnightblue" d="M1545.48,-111.23C1628.91,-101.04 1758.4,-85.22 1837.79,-75.52"/>
<polygon fill="midnightblue" stroke="midnightblue" points="1545.04,-107.76 1535.54,-112.44 1545.89,-114.7 1545.04,-107.76"/>
</g>
<!-- Node18 -->
<g id="node18" class="node">
<title>Node18</title>
<g id="a_node18"><a xlink:href="_o_m_sim_s_ndetector_8hh.html" target="_top" xlink:title=" ">
<polygon fill="white" stroke="black" points="1405.5,-56.5 1405.5,-75.5 1525.5,-75.5 1525.5,-56.5 1405.5,-56.5"/>
<text text-anchor="middle" x="1465.5" y="-63.5" font-family="Helvetica,sans-Serif" font-size="10.00">OMSimSNdetector.hh</text>
</a>
</g>
</g>
<!-- Node9&#45;&gt;Node18 -->
<g id="edge22" class="edge">
<title>Node9&#45;&gt;Node18</title>
<path fill="none" stroke="midnightblue" d="M1465.5,-101.8C1465.5,-92.91 1465.5,-82.78 1465.5,-75.75"/>
<polygon fill="midnightblue" stroke="midnightblue" points="1462,-102.08 1465.5,-112.08 1469,-102.08 1462,-102.08"/>
</g>
<!-- Node11 -->
<g id="node11" class="node">
<title>Node11</title>
<g id="a_node11"><a xlink:href="_o_m_sim_8cc.html" target="_top" xlink:title="Implementation of the OMSim class.">
<polygon fill="white" stroke="black" points="2026,-0.5 2026,-19.5 2091,-19.5 2091,-0.5 2026,-0.5"/>
<text text-anchor="middle" x="2058.5" y="-7.5" font-family="Helvetica,sans-Serif" font-size="10.00">OMSim.cc</text>
</a>
</g>
</g>
<!-- Node10&#45;&gt;Node11 -->
<g id="edge10" class="edge">
<title>Node10&#45;&gt;Node11</title>
<path fill="none" stroke="midnightblue" d="M1818.29,-55.89C1907.39,-38.68 1931.42,-36.81 2016.5,-20 2019.57,-19.39 2022.77,-18.74 2025.96,-18.08"/>
<polygon fill="midnightblue" stroke="midnightblue" points="1817.43,-52.49 1808.28,-57.84 1818.77,-59.37 1817.43,-52.49"/>
</g>
<!-- Node12 -->
<g id="node12" class="node">
<title>Node12</title>
<g id="a_node12"><a xlink:href="_o_m_sim__effective__area_8cc.html" target="_top" xlink:title="Main for the calculation of effective areas.">
<polygon fill="white" stroke="black" points="1727.5,-0.5 1727.5,-19.5 1867.5,-19.5 1867.5,-0.5 1727.5,-0.5"/>
<text text-anchor="middle" x="1797.5" y="-7.5" font-family="Helvetica,sans-Serif" font-size="10.00">OMSim_effective_area.cc</text>
</a>
</g>
</g>
<!-- Node10&#45;&gt;Node12 -->
<g id="edge11" class="edge">
<title>Node10&#45;&gt;Node12</title>
<path fill="none" stroke="midnightblue" d="M1782.3,-46.69C1786.18,-37.59 1790.68,-27.01 1793.77,-19.75"/>
<polygon fill="midnightblue" stroke="midnightblue" points="1779,-45.51 1778.3,-56.08 1785.44,-48.25 1779,-45.51"/>
</g>
<!-- Node13 -->
<g id="node13" class="node">
<title>Node13</title>
<g id="a_node13"><a xlink:href="_o_m_sim__radioactive__decays_8cc.html" target="_top" xlink:title="Main of the radioactive decay study.">
<polygon fill="white" stroke="black" points="2109,-0.5 2109,-19.5 2274,-19.5 2274,-0.5 2109,-0.5"/>
<text text-anchor="middle" x="2191.5" y="-7.5" font-family="Helvetica,sans-Serif" font-size="10.00">OMSim_radioactive_decays.cc</text>
</a>
</g>
</g>
<!-- Node10&#45;&gt;Node13 -->
<g id="edge12" class="edge">
<title>Node10&#45;&gt;Node13</title>
<path fill="none" stroke="midnightblue" d="M1818.28,-56.03C1887.14,-45.26 2025.96,-29.34 2113.84,-19.54"/>
<polygon fill="midnightblue" stroke="midnightblue" points="1817.57,-52.6 1808.25,-57.65 1818.68,-59.51 1817.57,-52.6"/>
</g>
<!-- Node14 -->
<g id="node14" class="node">
<title>Node14</title>
<g id="a_node14"><a xlink:href="_o_m_sim__supernova_8cc.html" target="_top" xlink:title="Main of the supernova study.">
<polygon fill="white" stroke="black" points="1885.5,-0.5 1885.5,-19.5 2007.5,-19.5 2007.5,-0.5 1885.5,-0.5"/>
<text text-anchor="middle" x="1946.5" y="-7.5" font-family="Helvetica,sans-Serif" font-size="10.00">OMSim_supernova.cc</text>
</a>
</g>
</g>
<!-- Node10&#45;&gt;Node14 -->
<g id="edge13" class="edge">
<title>Node10&#45;&gt;Node14</title>
<path fill="none" stroke="midnightblue" d="M1811.33,-53.44C1843.76,-43.26 1890.24,-28.66 1919.37,-19.52"/>
<polygon fill="midnightblue" stroke="midnightblue" points="1810.25,-50.11 1801.75,-56.44 1812.34,-56.79 1810.25,-50.11"/>
</g>
<!-- Node16&#45;&gt;Node5 -->
<g id="edge18" class="edge">
<title>Node16&#45;&gt;Node5</title>
<path fill="none" stroke="midnightblue" d="M1206.55,-55.45C1106.43,-45.26 949.41,-29.3 853.34,-19.53"/>
<polygon fill="midnightblue" stroke="midnightblue" points="1206.35,-58.94 1216.65,-56.47 1207.06,-51.98 1206.35,-58.94"/>
</g>
<!-- Node16&#45;&gt;Node12 -->
<g id="edge17" class="edge">
<title>Node16&#45;&gt;Node12</title>
<path fill="none" stroke="midnightblue" d="M1391.14,-55.41C1475.82,-46.4 1605.74,-32.49 1718.5,-20 1721.38,-19.68 1724.32,-19.35 1727.29,-19.02"/>
<polygon fill="midnightblue" stroke="midnightblue" points="1390.61,-51.94 1381.04,-56.48 1391.35,-58.9 1390.61,-51.94"/>
</g>
<!-- Node17&#45;&gt;Node6 -->
<g id="edge21" class="edge">
<title>Node17&#45;&gt;Node6</title>
<path fill="none" stroke="midnightblue" d="M1815.48,-55.87C1533.54,-34.1 1460.45,-41.83 1181.5,-20 1178.53,-19.77 1175.5,-19.52 1172.44,-19.26"/>
<polygon fill="midnightblue" stroke="midnightblue" points="1815.36,-59.37 1825.6,-56.66 1815.9,-52.39 1815.36,-59.37"/>
</g>
<!-- Node17&#45;&gt;Node13 -->
<g id="edge20" class="edge">
<title>Node17&#45;&gt;Node13</title>
<path fill="none" stroke="midnightblue" d="M1962.53,-54.54C2016.2,-44.33 2096.84,-29 2146.71,-19.52"/>
<polygon fill="midnightblue" stroke="midnightblue" points="1961.67,-51.14 1952.5,-56.44 1962.98,-58.01 1961.67,-51.14"/>
</g>
<!-- Node18&#45;&gt;Node8 -->
<g id="edge24" class="edge">
<title>Node18&#45;&gt;Node8</title>
<path fill="none" stroke="midnightblue" d="M1395.23,-55.9C1220.04,-36.72 1174.03,-39.02 1002.5,-20 999.5,-19.67 996.42,-19.31 993.32,-18.95"/>
<polygon fill="midnightblue" stroke="midnightblue" points="1394.98,-59.39 1405.31,-57.01 1395.75,-52.43 1394.98,-59.39"/>
</g>
<!-- Node18&#45;&gt;Node14 -->
<g id="edge23" class="edge">
<title>Node18&#45;&gt;Node14</title>
<path fill="none" stroke="midnightblue" d="M1536.03,-55.97C1688.56,-38.25 1728.39,-37.34 1876.5,-20 1879.42,-19.66 1882.41,-19.3 1885.43,-18.94"/>
<polygon fill="midnightblue" stroke="midnightblue" points="1535.35,-52.52 1525.82,-57.16 1536.16,-59.47 1535.35,-52.52"/>
</g>
<!-- Node19&#45;&gt;Node4 -->
<g id="edge26" class="edge">
<title>Node19&#45;&gt;Node4</title>
<path fill="none" stroke="midnightblue" d="M765.98,-55.96C714.24,-50.27 515.08,-30.67 399.11,-19.29"/>
<polygon fill="midnightblue" stroke="midnightblue" points="765.66,-59.45 775.99,-57.12 766.46,-52.49 765.66,-59.45"/>
</g>
<!-- Node19&#45;&gt;Node5 -->
<g id="edge28" class="edge">
<title>Node19&#45;&gt;Node5</title>
<path fill="none" stroke="midnightblue" d="M809.88,-49.25C799.77,-39.67 787.22,-27.79 778.82,-19.83"/>
<polygon fill="midnightblue" stroke="midnightblue" points="807.68,-51.99 817.34,-56.32 812.49,-46.91 807.68,-51.99"/>
</g>
<!-- Node19&#45;&gt;Node6 -->
<g id="edge29" class="edge">
<title>Node19&#45;&gt;Node6</title>
<path fill="none" stroke="midnightblue" d="M878.47,-54.41C928.55,-44.2 1003.36,-28.96 1049.71,-19.52"/>
<polygon fill="midnightblue" stroke="midnightblue" points="877.59,-51.02 868.49,-56.44 878.99,-57.88 877.59,-51.02"/>
</g>
<!-- Node19&#45;&gt;Node7 -->
<g id="edge30" class="edge">
<title>Node19&#45;&gt;Node7</title>
<path fill="none" stroke="midnightblue" d="M765.66,-55.45C700.83,-45.27 599.13,-29.31 536.88,-19.54"/>
<polygon fill="midnightblue" stroke="midnightblue" points="765.32,-58.94 775.74,-57.03 766.41,-52.02 765.32,-58.94"/>
</g>
<!-- Node19&#45;&gt;Node8 -->
<g id="edge31" class="edge">
<title>Node19&#45;&gt;Node8</title>
<path fill="none" stroke="midnightblue" d="M852.8,-51.73C872.61,-41.73 899.21,-28.31 916.35,-19.65"/>
<polygon fill="midnightblue" stroke="midnightblue" points="851.04,-48.69 843.69,-56.32 854.2,-54.94 851.04,-48.69"/>
</g>
<!-- Node20 -->
<g id="node20" class="node">
<title>Node20</title>
<g id="a_node20"><a xlink:href="_o_m_sim_l_o_m16_8cc.html" target="_top" xlink:title=" ">
<polygon fill="white" stroke="black" points="566,-0.5 566,-19.5 665,-19.5 665,-0.5 566,-0.5"/>
<text text-anchor="middle" x="615.5" y="-7.5" font-family="Helvetica,sans-Serif" font-size="10.00">OMSimLOM16.cc</text>
</a>
</g>
</g>
<!-- Node19&#45;&gt;Node20 -->
<g id="edge27" class="edge">
<title>Node19&#45;&gt;Node20</title>
<path fill="none" stroke="midnightblue" d="M783.36,-53.96C743.51,-43.76 685.14,-28.82 648.78,-19.52"/>
<polygon fill="midnightblue" stroke="midnightblue" points="782.51,-57.35 793.07,-56.44 784.25,-50.57 782.51,-57.35"/>
</g>
<!-- Node21&#45;&gt;Node4 -->
<g id="edge33" class="edge">
<title>Node21&#45;&gt;Node4</title>
<path fill="none" stroke="midnightblue" d="M540.25,-54.54C487.33,-44.33 407.83,-29 358.66,-19.52"/>
<polygon fill="midnightblue" stroke="midnightblue" points="539.65,-57.99 550.13,-56.44 540.98,-51.11 539.65,-57.99"/>
</g>
<!-- Node21&#45;&gt;Node5 -->
<g id="edge35" class="edge">
<title>Node21&#45;&gt;Node5</title>
<path fill="none" stroke="midnightblue" d="M631.97,-53.44C664.97,-43.26 712.26,-28.66 741.9,-19.52"/>
<polygon fill="midnightblue" stroke="midnightblue" points="630.75,-50.15 622.23,-56.44 632.82,-56.84 630.75,-50.15"/>
</g>
<!-- Node21&#45;&gt;Node6 -->
<g id="edge36" class="edge">
<title>Node21&#45;&gt;Node6</title>
<path fill="none" stroke="midnightblue" d="M655.1,-55.94C706.05,-50.2 898.97,-30.55 1010.69,-19.2"/>
<polygon fill="midnightblue" stroke="midnightblue" points="654.53,-52.48 645.01,-57.13 655.35,-59.43 654.53,-52.48"/>
</g>
<!-- Node21&#45;&gt;Node7 -->
<g id="edge37" class="edge">
<title>Node21&#45;&gt;Node7</title>
<path fill="none" stroke="midnightblue" d="M567.25,-51.86C546.48,-41.85 518.48,-28.35 500.45,-19.65"/>
<polygon fill="midnightblue" stroke="midnightblue" points="565.98,-55.13 576.51,-56.32 569.02,-48.83 565.98,-55.13"/>
</g>
<!-- Node21&#45;&gt;Node8 -->
<g id="edge38" class="edge">
<title>Node21&#45;&gt;Node8</title>
<path fill="none" stroke="midnightblue" d="M655.19,-55.33C719.1,-45.15 818.77,-29.28 879.88,-19.54"/>
<polygon fill="midnightblue" stroke="midnightblue" points="654.58,-51.89 645.25,-56.92 655.68,-58.8 654.58,-51.89"/>
</g>
<!-- Node22 -->
<g id="node22" class="node">
<title>Node22</title>
<g id="a_node22"><a xlink:href="_o_m_sim_l_o_m18_8cc.html" target="_top" xlink:title=" ">
<polygon fill="white" stroke="black" points="0,-0.5 0,-19.5 99,-19.5 99,-0.5 0,-0.5"/>
<text text-anchor="middle" x="49.5" y="-7.5" font-family="Helvetica,sans-Serif" font-size="10.00">OMSimLOM18.cc</text>
</a>
</g>
</g>
<!-- Node21&#45;&gt;Node22 -->
<g id="edge34" class="edge">
<title>Node21&#45;&gt;Node22</title>
<path fill="none" stroke="midnightblue" d="M533.68,-60.53C441.54,-53.49 261.11,-38.69 108.5,-20 105.41,-19.62 102.24,-19.21 99.05,-18.77"/>
<polygon fill="midnightblue" stroke="midnightblue" points="533.43,-64.02 543.67,-61.29 533.96,-57.04 533.43,-64.02"/>
</g>
<!-- Node23&#45;&gt;Node4 -->
<g id="edge40" class="edge">
<title>Node23&#45;&gt;Node4</title>
<path fill="none" stroke="midnightblue" d="M1020.42,-57.82C1014.03,-57.16 1007.64,-56.54 1001.5,-56 738.02,-33.02 671.17,-40.74 407.5,-20 404.75,-19.78 401.96,-19.56 399.14,-19.32"/>
<polygon fill="midnightblue" stroke="midnightblue" points="1020.07,-61.3 1030.39,-58.89 1020.82,-54.34 1020.07,-61.3"/>
</g>
<!-- Node23&#45;&gt;Node5 -->
<g id="edge44" class="edge">
<title>Node23&#45;&gt;Node5</title>
<path fill="none" stroke="midnightblue" d="M1021.34,-54.73C962.57,-44.52 873.5,-29.06 818.55,-19.52"/>
<polygon fill="midnightblue" stroke="midnightblue" points="1020.77,-58.18 1031.22,-56.44 1021.97,-51.28 1020.77,-58.18"/>
</g>
<!-- Node23&#45;&gt;Node6 -->
<g id="edge45" class="edge">
<title>Node23&#45;&gt;Node6</title>
<path fill="none" stroke="midnightblue" d="M1084.35,-46.1C1086.18,-37.14 1088.27,-26.86 1089.72,-19.75"/>
<polygon fill="midnightblue" stroke="midnightblue" points="1080.88,-45.59 1082.32,-56.08 1087.74,-46.98 1080.88,-45.59"/>
</g>
<!-- Node23&#45;&gt;Node7 -->
<g id="edge46" class="edge">
<title>Node23&#45;&gt;Node7</title>
<path fill="none" stroke="midnightblue" d="M1020.4,-57.95C1014.03,-57.26 1007.63,-56.6 1001.5,-56 804.01,-36.77 753.92,-39.98 556.5,-20 553.8,-19.73 551.04,-19.44 548.25,-19.14"/>
<polygon fill="midnightblue" stroke="midnightblue" points="1020.05,-61.43 1030.38,-59.04 1020.82,-54.47 1020.05,-61.43"/>
</g>
<!-- Node23&#45;&gt;Node8 -->
<g id="edge47" class="edge">
<title>Node23&#45;&gt;Node8</title>
<path fill="none" stroke="midnightblue" d="M1047.58,-52.91C1019.94,-42.75 981.16,-28.51 956.68,-19.52"/>
<polygon fill="midnightblue" stroke="midnightblue" points="1046.61,-56.28 1057.21,-56.44 1049.03,-49.71 1046.61,-56.28"/>
</g>
<!-- Node24 -->
<g id="node24" class="node">
<title>Node24</title>
<g id="a_node24"><a xlink:href="_o_m_sim_m_d_o_m_8cc.html" target="_top" xlink:title=" ">
<polygon fill="white" stroke="black" points="1459.5,-0.5 1459.5,-19.5 1557.5,-19.5 1557.5,-0.5 1459.5,-0.5"/>
<text text-anchor="middle" x="1508.5" y="-7.5" font-family="Helvetica,sans-Serif" font-size="10.00">OMSimMDOM.cc</text>
</a>
</g>
</g>
<!-- Node23&#45;&gt;Node24 -->
<g id="edge41" class="edge">
<title>Node23&#45;&gt;Node24</title>
<path fill="none" stroke="midnightblue" d="M1140.51,-58.32C1213.76,-50.02 1341.38,-35.1 1450.5,-20 1453.43,-19.59 1456.44,-19.17 1459.47,-18.72"/>
<polygon fill="midnightblue" stroke="midnightblue" points="1140.08,-54.84 1130.54,-59.44 1140.87,-61.8 1140.08,-54.84"/>
</g>
<!-- Node25 -->
<g id="node25" class="node">
<title>Node25</title>
<g id="a_node25"><a xlink:href="_o_m_sim_m_d_o_m_flasher_8cc.html" target="_top" xlink:title=" ">
<polygon fill="white" stroke="black" points="1575.5,-0.5 1575.5,-19.5 1709.5,-19.5 1709.5,-0.5 1575.5,-0.5"/>
<text text-anchor="middle" x="1642.5" y="-7.5" font-family="Helvetica,sans-Serif" font-size="10.00">OMSimMDOMFlasher.cc</text>
</a>
</g>
</g>
<!-- Node23&#45;&gt;Node25 -->
<g id="edge42" class="edge">
<title>Node23&#45;&gt;Node25</title>
<path fill="none" stroke="midnightblue" d="M1140.79,-59.92C1232.7,-52.05 1413.35,-36.16 1566.5,-20 1569.41,-19.69 1572.38,-19.37 1575.37,-19.04"/>
<polygon fill="midnightblue" stroke="midnightblue" points="1140.23,-56.45 1130.57,-60.79 1140.83,-63.43 1140.23,-56.45"/>
</g>
<!-- Node26 -->
<g id="node26" class="node">
<title>Node26</title>
<g id="a_node26"><a xlink:href="_o_m_sim_m_d_o_m_harness_8cc.html" target="_top" xlink:title=" ">
<polygon fill="white" stroke="black" points="1303.5,-0.5 1303.5,-19.5 1441.5,-19.5 1441.5,-0.5 1303.5,-0.5"/>
<text text-anchor="middle" x="1372.5" y="-7.5" font-family="Helvetica,sans-Serif" font-size="10.00">OMSimMDOMHarness.cc</text>
</a>
</g>
</g>
<!-- Node23&#45;&gt;Node26 -->
<g id="edge43" class="edge">
<title>Node23&#45;&gt;Node26</title>
<path fill="none" stroke="midnightblue" d="M1136.73,-54.6C1191.92,-44.4 1275.06,-29.02 1326.45,-19.52"/>
<polygon fill="midnightblue" stroke="midnightblue" points="1135.97,-51.18 1126.77,-56.44 1137.24,-58.07 1135.97,-51.18"/>
</g>
<!-- Node27&#45;&gt;Node4 -->
<g id="edge49" class="edge">
<title>Node27&#45;&gt;Node4</title>
<path fill="none" stroke="midnightblue" d="M884.51,-55.85C672.71,-31.54 616.88,-38 407.5,-20 404.75,-19.76 401.96,-19.52 399.14,-19.27"/>
<polygon fill="midnightblue" stroke="midnightblue" points="884.38,-59.36 894.72,-57.03 885.19,-52.4 884.38,-59.36"/>
</g>
<!-- Node27&#45;&gt;Node5 -->
<g id="edge51" class="edge">
<title>Node27&#45;&gt;Node5</title>
<path fill="none" stroke="midnightblue" d="M906.24,-53.44C873.43,-43.26 826.42,-28.66 796.94,-19.52"/>
<polygon fill="midnightblue" stroke="midnightblue" points="905.34,-56.82 915.93,-56.44 907.42,-50.14 905.34,-56.82"/>
</g>
<!-- Node27&#45;&gt;Node6 -->
<g id="edge52" class="edge">
<title>Node27&#45;&gt;Node6</title>
<path fill="none" stroke="midnightblue" d="M976.65,-52.91C1004.47,-42.75 1043.52,-28.51 1068.16,-19.52"/>
<polygon fill="midnightblue" stroke="midnightblue" points="975.15,-49.73 966.95,-56.44 977.54,-56.3 975.15,-49.73"/>
</g>
<!-- Node27&#45;&gt;Node7 -->
<g id="edge53" class="edge">
<title>Node27&#45;&gt;Node7</title>
<path fill="none" stroke="midnightblue" d="M884.47,-55.78C738.53,-36.5 699.77,-36.53 556.5,-20 553.8,-19.69 551.05,-19.37 548.26,-19.04"/>
<polygon fill="midnightblue" stroke="midnightblue" points="884.33,-59.29 894.7,-57.14 885.25,-52.35 884.33,-59.29"/>
</g>
<!-- Node27&#45;&gt;Node8 -->
<g id="edge54" class="edge">
<title>Node27&#45;&gt;Node8</title>
<path fill="none" stroke="midnightblue" d="M940,-46.1C938.34,-37.14 936.44,-26.86 935.12,-19.75"/>
<polygon fill="midnightblue" stroke="midnightblue" points="936.59,-46.89 941.85,-56.08 943.47,-45.61 936.59,-46.89"/>
</g>
<!-- Node28 -->
<g id="node28" class="node">
<title>Node28</title>
<g id="a_node28"><a xlink:href="_o_m_sim_p_d_o_m_8cc.html" target="_top" xlink:title=" ">
<polygon fill="white" stroke="black" points="1190,-0.5 1190,-19.5 1285,-19.5 1285,-0.5 1190,-0.5"/>
<text text-anchor="middle" x="1237.5" y="-7.5" font-family="Helvetica,sans-Serif" font-size="10.00">OMSimPDOM.cc</text>
</a>
</g>
</g>
<!-- Node27&#45;&gt;Node28 -->
<g id="edge50" class="edge">
<title>Node27&#45;&gt;Node28</title>
<path fill="none" stroke="midnightblue" d="M1000.12,-54.6C1055.68,-44.4 1139.4,-29.02 1191.13,-19.52"/>
<polygon fill="midnightblue" stroke="midnightblue" points="999.29,-51.19 990.09,-56.44 1000.55,-58.08 999.29,-51.19"/>
</g>
<!-- Node30&#45;&gt;Node13 -->
<g id="edge57" class="edge">
<title>Node30&#45;&gt;Node13</title>
<path fill="none" stroke="midnightblue" d="M2018.64,-101.77C2020.5,-87.33 2025.29,-68.03 2037.5,-56 2056.74,-37.03 2083.51,-25.98 2109.34,-19.56"/>
<polygon fill="midnightblue" stroke="midnightblue" points="2015.12,-101.81 2017.69,-112.09 2022.09,-102.45 2015.12,-101.81"/>
</g>
<!-- Node31 -->
<g id="node31" class="node">
<title>Node31</title>
<g id="a_node31"><a xlink:href="_o_m_sim_decays_g_p_s_8cc.html" target="_top" xlink:title=" ">
<polygon fill="white" stroke="black" points="2046,-56.5 2046,-75.5 2167,-75.5 2167,-56.5 2046,-56.5"/>
<text text-anchor="middle" x="2106.5" y="-63.5" font-family="Helvetica,sans-Serif" font-size="10.00">OMSimDecaysGPS.cc</text>
</a>
</g>
</g>
<!-- Node30&#45;&gt;Node31 -->
<g id="edge58" class="edge">
<title>Node30&#45;&gt;Node31</title>
<path fill="none" stroke="midnightblue" d="M2040.74,-106.9C2057.06,-97 2078.37,-84.07 2092.24,-75.65"/>
<polygon fill="midnightblue" stroke="midnightblue" points="2038.53,-104.14 2031.8,-112.32 2042.16,-110.13 2038.53,-104.14"/>
</g>
<!-- Node32 -->
<g id="node32" class="node">
<title>Node32</title>
<g id="a_node32"><a xlink:href="_o_m_sim_g4_radioactive_decay_8cc.html" target="_top" xlink:title=" ">
<polygon fill="white" stroke="black" points="2185.5,-56.5 2185.5,-75.5 2351.5,-75.5 2351.5,-56.5 2185.5,-56.5"/>
<text text-anchor="middle" x="2268.5" y="-63.5" font-family="Helvetica,sans-Serif" font-size="10.00">OMSimG4RadioactiveDecay.cc</text>
</a>
</g>
</g>
<!-- Node30&#45;&gt;Node32 -->
<g id="edge59" class="edge">
<title>Node30&#45;&gt;Node32</title>
<path fill="none" stroke="midnightblue" d="M2067.32,-110.28C2114.75,-100.08 2185.2,-84.92 2228.91,-75.52"/>
<polygon fill="midnightblue" stroke="midnightblue" points="2066.31,-106.92 2057.27,-112.44 2067.78,-113.76 2066.31,-106.92"/>
</g>
</g>
</svg>
