<?xml version="1.0" encoding="UTF-8" standalone="no"?>
<!DOCTYPE svg PUBLIC "-//W3C//DTD SVG 1.1//EN"
 "http://www.w3.org/Graphics/SVG/1.1/DTD/svg11.dtd">
<!-- Generated by graphviz version 2.43.0 (0)
 -->
<!-- Title: OMSimSupernova.cc Pages: 1 -->
<svg width="1991pt" height="368pt"
 viewBox="0.00 0.00 1990.84 368.00" xmlns="http://www.w3.org/2000/svg" xmlns:xlink="http://www.w3.org/1999/xlink">
<g id="graph0" class="graph" transform="scale(1 1) rotate(0) translate(4 364)">
<title>OMSimSupernova.cc</title>
<!-- Node1 -->
<g id="Node000001" class="node">
<title>Node1</title>
<g id="a_Node000001"><a xlink:title="Main of the supernova study.">
<polygon fill="#999999" stroke="#666666" points="546.84,-360 429.84,-360 429.84,-341 546.84,-341 546.84,-360"/>
<text text-anchor="middle" x="488.34" y="-348" font-family="Helvetica,sans-Serif" font-size="10.00">OMSimSupernova.cc</text>
</a>
</g>
</g>
<!-- Node2 -->
<g id="Node000002" class="node">
<title>Node2</title>
<g id="a_Node000002"><a xlink:href="_o_m_sim_8hh.html" target="_top" xlink:title="Main simulation class for the Optical Module (OM) simulation. This file defines the OMSim class,...">
<polygon fill="white" stroke="#666666" points="1135.84,-305 1068.84,-305 1068.84,-286 1135.84,-286 1135.84,-305"/>
<text text-anchor="middle" x="1102.34" y="-293" font-family="Helvetica,sans-Serif" font-size="10.00">OMSim.hh</text>
</a>
</g>
</g>
<!-- Node1&#45;&gt;Node2 -->
<g id="edge1_Node000001_Node000002" class="edge">
<title>Node1&#45;&gt;Node2</title>
<g id="a_edge1_Node000001_Node000002"><a xlink:title=" ">
<path fill="none" stroke="#63b8ff" d="M546.94,-344.44C669.35,-333.88 949.86,-309.66 1058.36,-300.3"/>
<polygon fill="#63b8ff" stroke="#63b8ff" points="1058.95,-303.76 1068.62,-299.41 1058.35,-296.78 1058.95,-303.76"/>
</a>
</g>
</g>
<!-- Node26 -->
<g id="Node000026" class="node">
<title>Node26</title>
<g id="a_Node000026"><a xlink:href="_o_m_sim_hit_manager_8hh.html" target="_top" xlink:title="Defines structures and classes related to optical module photon hit management.">
<polygon fill="white" stroke="#666666" points="427.84,-140 304.84,-140 304.84,-121 427.84,-121 427.84,-140"/>
<text text-anchor="middle" x="366.34" y="-128" font-family="Helvetica,sans-Serif" font-size="10.00">OMSimHitManager.hh</text>
</a>
</g>
</g>
<!-- Node1&#45;&gt;Node26 -->
<g id="edge60_Node000001_Node000026" class="edge">
<title>Node1&#45;&gt;Node26</title>
<g id="a_edge60_Node000001_Node000026"><a xlink:title=" ">
<path fill="none" stroke="#63b8ff" d="M429.66,-344.02C374.1,-335.09 295.82,-311.64 272.34,-250 263.68,-227.25 285.91,-179.08 288.34,-176 299.53,-161.81 316.59,-151.34 331.89,-144.14"/>
<polygon fill="#63b8ff" stroke="#63b8ff" points="333.39,-147.31 341.13,-140.07 330.57,-140.9 333.39,-147.31"/>
</a>
</g>
</g>
<!-- Node40 -->
<g id="Node000040" class="node">
<title>Node40</title>
<g id="a_Node000040"><a xlink:title=" ">
<polygon fill="#e0e0e0" stroke="#999999" points="654.84,-250 469.84,-250 469.84,-231 654.84,-231 654.84,-250"/>
<text text-anchor="middle" x="562.34" y="-238" font-family="Helvetica,sans-Serif" font-size="10.00">OMSimPrimaryGeneratorAction.hh</text>
</a>
</g>
</g>
<!-- Node1&#45;&gt;Node40 -->
<g id="edge59_Node000001_Node000040" class="edge">
<title>Node1&#45;&gt;Node40</title>
<g id="a_edge59_Node000001_Node000040"><a xlink:title=" ">
<path fill="none" stroke="#63b8ff" d="M494.4,-340.66C506.65,-322.77 534.59,-282 550.56,-258.69"/>
<polygon fill="#63b8ff" stroke="#63b8ff" points="553.64,-260.39 556.41,-250.16 547.87,-256.43 553.64,-260.39"/>
</a>
</g>
</g>
<!-- Node59 -->
<g id="Node000059" class="node">
<title>Node59</title>
<g id="a_Node000059"><a xlink:href="_o_m_sim_s_n_analysis_8hh_source.html" target="_top" xlink:title=" ">
<polygon fill="white" stroke="#666666" points="225.34,-195 103.34,-195 103.34,-176 225.34,-176 225.34,-195"/>
<text text-anchor="middle" x="164.34" y="-183" font-family="Helvetica,sans-Serif" font-size="10.00">OMSimSNAnalysis.hh</text>
</a>
</g>
</g>
<!-- Node1&#45;&gt;Node59 -->
<g id="edge51_Node000001_Node000059" class="edge">
<title>Node1&#45;&gt;Node59</title>
<g id="a_edge51_Node000001_Node000059"><a xlink:title=" ">
<path fill="none" stroke="#63b8ff" d="M429.73,-344.49C366.18,-338.12 269.73,-325.42 239.34,-305 202.75,-280.41 180.4,-231.33 170.45,-204.7"/>
<polygon fill="#63b8ff" stroke="#63b8ff" points="173.69,-203.35 167.04,-195.09 167.09,-205.69 173.69,-203.35"/>
</a>
</g>
</g>
<!-- Node63 -->
<g id="Node000063" class="node">
<title>Node63</title>
<g id="a_Node000063"><a xlink:title=" ">
<polygon fill="#e0e0e0" stroke="#999999" points="1246.34,-305 1154.34,-305 1154.34,-286 1246.34,-286 1246.34,-305"/>
<text text-anchor="middle" x="1200.34" y="-293" font-family="Helvetica,sans-Serif" font-size="10.00">G4Navigator.hh</text>
</a>
</g>
</g>
<!-- Node1&#45;&gt;Node63 -->
<g id="edge61_Node000001_Node000063" class="edge">
<title>Node1&#45;&gt;Node63</title>
<g id="a_edge61_Node000001_Node000063"><a xlink:title=" ">
<path fill="none" stroke="#63b8ff" d="M546.94,-347.22C660.26,-342.44 917.51,-329.8 1144.08,-305.04"/>
<polygon fill="#63b8ff" stroke="#63b8ff" points="1144.61,-308.51 1154.17,-303.93 1143.84,-301.55 1144.61,-308.51"/>
</a>
</g>
</g>
<!-- Node64 -->
<g id="Node000064" class="node">
<title>Node64</title>
<g id="a_Node000064"><a xlink:href="_o_m_sim_s_ndetector_8hh_source.html" target="_top" xlink:title=" ">
<polygon fill="white" stroke="#666666" points="450.34,-305 330.34,-305 330.34,-286 450.34,-286 450.34,-305"/>
<text text-anchor="middle" x="390.34" y="-293" font-family="Helvetica,sans-Serif" font-size="10.00">OMSimSNdetector.hh</text>
</a>
</g>
</g>
<!-- Node1&#45;&gt;Node64 -->
<g id="edge62_Node000001_Node000064" class="edge">
<title>Node1&#45;&gt;Node64</title>
<g id="a_edge62_Node000001_Node000064"><a xlink:title=" ">
<path fill="none" stroke="#63b8ff" d="M472.6,-340.98C457.11,-332.61 433.25,-319.7 415.2,-309.95"/>
<polygon fill="#63b8ff" stroke="#63b8ff" points="416.83,-306.85 406.37,-305.17 413.5,-313.01 416.83,-306.85"/>
</a>
</g>
</g>
<!-- Node3 -->
<g id="Node000003" class="node">
<title>Node3</title>
<g id="a_Node000003"><a xlink:href="_o_m_sim_detector_construction_8hh_source.html" target="_top" xlink:title=" ">
<polygon fill="white" stroke="#666666" points="451.34,-250 281.34,-250 281.34,-231 451.34,-231 451.34,-250"/>
<text text-anchor="middle" x="366.34" y="-238" font-family="Helvetica,sans-Serif" font-size="10.00">OMSimDetectorConstruction.hh</text>
</a>
</g>
</g>
<!-- Node2&#45;&gt;Node3 -->
<g id="edge2_Node000002_Node000003" class="edge">
<title>Node2&#45;&gt;Node3</title>
<g id="a_edge2_Node000002_Node000003"><a xlink:title=" ">
<path fill="none" stroke="#63b8ff" d="M1068.56,-292.41C974.4,-286.53 700.73,-269.07 461.67,-250.09"/>
<polygon fill="#63b8ff" stroke="#63b8ff" points="461.63,-246.58 451.39,-249.27 461.08,-253.55 461.63,-246.58"/>
</a>
</g>
</g>
<!-- Node39 -->
<g id="Node000039" class="node">
<title>Node39</title>
<g id="a_Node000039"><a xlink:title=" ">
<polygon fill="#e0e0e0" stroke="#999999" points="793.84,-250 672.84,-250 672.84,-231 793.84,-231 793.84,-250"/>
<text text-anchor="middle" x="733.34" y="-238" font-family="Helvetica,sans-Serif" font-size="10.00">OMSimPhysicsList.hh</text>
</a>
</g>
</g>
<!-- Node2&#45;&gt;Node39 -->
<g id="edge22_Node000002_Node000039" class="edge">
<title>Node2&#45;&gt;Node39</title>
<g id="a_edge22_Node000002_Node000039"><a xlink:title=" ">
<path fill="none" stroke="#63b8ff" d="M1068.62,-289.66C1008.56,-281.03 881.96,-262.85 802.66,-251.46"/>
<polygon fill="#63b8ff" stroke="#63b8ff" points="803.15,-247.99 792.75,-250.03 802.16,-254.92 803.15,-247.99"/>
</a>
</g>
</g>
<!-- Node2&#45;&gt;Node40 -->
<g id="edge23_Node000002_Node000040" class="edge">
<title>Node2&#45;&gt;Node40</title>
<g id="a_edge23_Node000002_Node000040"><a xlink:title=" ">
<path fill="none" stroke="#63b8ff" d="M1068.56,-291.18C987.99,-283.28 782.12,-263.07 659.15,-251"/>
<polygon fill="#63b8ff" stroke="#63b8ff" points="659.28,-247.5 648.99,-250 658.6,-254.46 659.28,-247.5"/>
</a>
</g>
</g>
<!-- Node41 -->
<g id="Node000041" class="node">
<title>Node41</title>
<g id="a_Node000041"><a xlink:href="_o_m_sim_run_action_8hh_source.html" target="_top" xlink:title=" ">
<polygon fill="white" stroke="#666666" points="1386.34,-195 1270.34,-195 1270.34,-176 1386.34,-176 1386.34,-195"/>
<text text-anchor="middle" x="1328.34" y="-183" font-family="Helvetica,sans-Serif" font-size="10.00">OMSimRunAction.hh</text>
</a>
</g>
</g>
<!-- Node2&#45;&gt;Node41 -->
<g id="edge24_Node000002_Node000041" class="edge">
<title>Node2&#45;&gt;Node41</title>
<g id="a_edge24_Node000002_Node000041"><a xlink:title=" ">
<path fill="none" stroke="#63b8ff" d="M1136.07,-287.36C1139.19,-286.85 1142.32,-286.38 1145.34,-286 1219.21,-276.76 1763.14,-304.03 1814.34,-250 1820.15,-243.87 1820.03,-237.24 1814.34,-231 1800.46,-215.79 1527.18,-198.01 1396.64,-190.34"/>
<polygon fill="#63b8ff" stroke="#63b8ff" points="1396.54,-186.83 1386.36,-189.74 1396.13,-193.81 1396.54,-186.83"/>
</a>
</g>
</g>
<!-- Node45 -->
<g id="Node000045" class="node">
<title>Node45</title>
<g id="a_Node000045"><a xlink:title=" ">
<polygon fill="#e0e0e0" stroke="#999999" points="936.84,-250 811.84,-250 811.84,-231 936.84,-231 936.84,-250"/>
<text text-anchor="middle" x="874.34" y="-238" font-family="Helvetica,sans-Serif" font-size="10.00">OMSimEventAction.hh</text>
</a>
</g>
</g>
<!-- Node2&#45;&gt;Node45 -->
<g id="edge34_Node000002_Node000045" class="edge">
<title>Node2&#45;&gt;Node45</title>
<g id="a_edge34_Node000002_Node000045"><a xlink:title=" ">
<path fill="none" stroke="#63b8ff" d="M1068.7,-286.68C1029.63,-277.6 964.93,-262.56 921.01,-252.35"/>
<polygon fill="#63b8ff" stroke="#63b8ff" points="921.68,-248.91 911.15,-250.06 920.09,-255.73 921.68,-248.91"/>
</a>
</g>
</g>
<!-- Node46 -->
<g id="Node000046" class="node">
<title>Node46</title>
<g id="a_Node000046"><a xlink:href="_o_m_sim_tracking_action_8hh_source.html" target="_top" xlink:title=" ">
<polygon fill="white" stroke="#666666" points="1093.34,-250 955.34,-250 955.34,-231 1093.34,-231 1093.34,-250"/>
<text text-anchor="middle" x="1024.34" y="-238" font-family="Helvetica,sans-Serif" font-size="10.00">OMSimTrackingAction.hh</text>
</a>
</g>
</g>
<!-- Node2&#45;&gt;Node46 -->
<g id="edge35_Node000002_Node000046" class="edge">
<title>Node2&#45;&gt;Node46</title>
<g id="a_edge35_Node000002_Node000046"><a xlink:title=" ">
<path fill="none" stroke="#63b8ff" d="M1089.81,-285.98C1077.94,-277.92 1059.88,-265.65 1045.73,-256.03"/>
<polygon fill="#63b8ff" stroke="#63b8ff" points="1047.34,-252.9 1037.1,-250.17 1043.4,-258.69 1047.34,-252.9"/>
</a>
</g>
</g>
<!-- Node48 -->
<g id="Node000048" class="node">
<title>Node48</title>
<g id="a_Node000048"><a xlink:href="_o_m_sim_stepping_action_8hh.html" target="_top" xlink:title="Defines OMSimSteppingAction.Currently it only checks for trapped photons.">
<polygon fill="white" stroke="#666666" points="1251.34,-250 1111.34,-250 1111.34,-231 1251.34,-231 1251.34,-250"/>
<text text-anchor="middle" x="1181.34" y="-238" font-family="Helvetica,sans-Serif" font-size="10.00">OMSimSteppingAction.hh</text>
</a>
</g>
</g>
<!-- Node2&#45;&gt;Node48 -->
<g id="edge37_Node000002_Node000048" class="edge">
<title>Node2&#45;&gt;Node48</title>
<g id="a_edge37_Node000002_Node000048"><a xlink:title=" ">
<path fill="none" stroke="#63b8ff" d="M1115.03,-285.98C1127.17,-277.84 1145.7,-265.41 1160.09,-255.76"/>
<polygon fill="#63b8ff" stroke="#63b8ff" points="1162.06,-258.65 1168.42,-250.17 1158.16,-252.84 1162.06,-258.65"/>
</a>
</g>
</g>
<!-- Node50 -->
<g id="Node000050" class="node">
<title>Node50</title>
<g id="a_Node000050"><a xlink:href="_o_m_sim_u_iinterface_8hh.html" target="_top" xlink:title=" ">
<polygon fill="white" stroke="#666666" points="1982.84,-250 1861.84,-250 1861.84,-231 1982.84,-231 1982.84,-250"/>
<text text-anchor="middle" x="1922.34" y="-238" font-family="Helvetica,sans-Serif" font-size="10.00">OMSimUIinterface.hh</text>
</a>
</g>
</g>
<!-- Node2&#45;&gt;Node50 -->
<g id="edge39_Node000002_Node000050" class="edge">
<title>Node2&#45;&gt;Node50</title>
<g id="a_edge39_Node000002_Node000050"><a xlink:title=" ">
<path fill="none" stroke="#63b8ff" d="M1136.07,-287.36C1139.19,-286.84 1142.32,-286.37 1145.34,-286 1455.38,-247.61 1535.98,-275.6 1847.34,-250 1848.81,-249.88 1850.29,-249.75 1851.79,-249.62"/>
<polygon fill="#63b8ff" stroke="#63b8ff" points="1852.16,-253.1 1861.79,-248.69 1851.51,-246.13 1852.16,-253.1"/>
</a>
</g>
</g>
<!-- Node55 -->
<g id="Node000055" class="node">
<title>Node55</title>
<g id="a_Node000055"><a xlink:title=" ">
<polygon fill="#e0e0e0" stroke="#999999" points="1390.84,-250 1269.84,-250 1269.84,-231 1390.84,-231 1390.84,-250"/>
<text text-anchor="middle" x="1330.34" y="-238" font-family="Helvetica,sans-Serif" font-size="10.00">G4MTRunManager.hh</text>
</a>
</g>
</g>
<!-- Node2&#45;&gt;Node55 -->
<g id="edge47_Node000002_Node000055" class="edge">
<title>Node2&#45;&gt;Node55</title>
<g id="a_edge47_Node000002_Node000055"><a xlink:title=" ">
<path fill="none" stroke="#63b8ff" d="M1135.98,-286.68C1175.06,-277.6 1239.75,-262.56 1283.67,-252.35"/>
<polygon fill="#63b8ff" stroke="#63b8ff" points="1284.59,-255.73 1293.53,-250.06 1283,-248.91 1284.59,-255.73"/>
</a>
</g>
</g>
<!-- Node56 -->
<g id="Node000056" class="node">
<title>Node56</title>
<g id="a_Node000056"><a xlink:title=" ">
<polygon fill="#e0e0e0" stroke="#999999" points="1515.84,-250 1408.84,-250 1408.84,-231 1515.84,-231 1515.84,-250"/>
<text text-anchor="middle" x="1462.34" y="-238" font-family="Helvetica,sans-Serif" font-size="10.00">G4VisExecutive.hh</text>
</a>
</g>
</g>
<!-- Node2&#45;&gt;Node56 -->
<g id="edge48_Node000002_Node000056" class="edge">
<title>Node2&#45;&gt;Node56</title>
<g id="a_edge48_Node000002_Node000056"><a xlink:title=" ">
<path fill="none" stroke="#63b8ff" d="M1136.11,-287.64C1139.23,-287.06 1142.34,-286.51 1145.34,-286 1169.69,-281.89 1313.09,-262.03 1398.45,-250.27"/>
<polygon fill="#63b8ff" stroke="#63b8ff" points="1399.13,-253.71 1408.56,-248.88 1398.18,-246.78 1399.13,-253.71"/>
</a>
</g>
</g>
<!-- Node57 -->
<g id="Node000057" class="node">
<title>Node57</title>
<g id="a_Node000057"><a xlink:title=" ">
<polygon fill="#e0e0e0" stroke="#999999" points="1636.84,-250 1533.84,-250 1533.84,-231 1636.84,-231 1636.84,-250"/>
<text text-anchor="middle" x="1585.34" y="-238" font-family="Helvetica,sans-Serif" font-size="10.00">G4UIExecutive.hh</text>
</a>
</g>
</g>
<!-- Node2&#45;&gt;Node57 -->
<g id="edge49_Node000002_Node000057" class="edge">
<title>Node2&#45;&gt;Node57</title>
<g id="a_edge49_Node000002_Node000057"><a xlink:title=" ">
<path fill="none" stroke="#63b8ff" d="M1136.09,-287.5C1139.21,-286.95 1142.33,-286.44 1145.34,-286 1310.01,-261.99 1355.16,-269.6 1523.69,-250.14"/>
<polygon fill="#63b8ff" stroke="#63b8ff" points="1524.12,-253.62 1533.65,-248.98 1523.31,-246.66 1524.12,-253.62"/>
</a>
</g>
</g>
<!-- Node58 -->
<g id="Node000058" class="node">
<title>Node58</title>
<g id="a_Node000058"><a xlink:title=" ">
<polygon fill="#e0e0e0" stroke="#999999" points="1805.34,-250 1655.34,-250 1655.34,-231 1805.34,-231 1805.34,-250"/>
<text text-anchor="middle" x="1730.34" y="-238" font-family="Helvetica,sans-Serif" font-size="10.00">boost/program_options.hpp</text>
</a>
</g>
</g>
<!-- Node2&#45;&gt;Node58 -->
<g id="edge50_Node000002_Node000058" class="edge">
<title>Node2&#45;&gt;Node58</title>
<g id="a_edge50_Node000002_Node000058"><a xlink:title=" ">
<path fill="none" stroke="#63b8ff" d="M1136.08,-287.42C1139.2,-286.89 1142.32,-286.4 1145.34,-286 1363.36,-256.73 1422.22,-268.87 1645.19,-250.07"/>
<polygon fill="#63b8ff" stroke="#63b8ff" points="1645.58,-253.55 1655.25,-249.21 1644.98,-246.57 1645.58,-253.55"/>
</a>
</g>
</g>
<!-- Node4 -->
<g id="Node000004" class="node">
<title>Node4</title>
<g id="a_Node000004"><a xlink:href="_o_m_sim_optical_module_8hh_source.html" target="_top" xlink:title=" ">
<polygon fill="white" stroke="#666666" points="434.84,-195 297.84,-195 297.84,-176 434.84,-176 434.84,-195"/>
<text text-anchor="middle" x="366.34" y="-183" font-family="Helvetica,sans-Serif" font-size="10.00">OMSimOpticalModule.hh</text>
</a>
</g>
</g>
<!-- Node3&#45;&gt;Node4 -->
<g id="edge3_Node000003_Node000004" class="edge">
<title>Node3&#45;&gt;Node4</title>
<g id="a_edge3_Node000003_Node000004"><a xlink:title=" ">
<path fill="none" stroke="#63b8ff" d="M366.34,-230.75C366.34,-223.8 366.34,-213.85 366.34,-205.13"/>
<polygon fill="#63b8ff" stroke="#63b8ff" points="369.84,-205.09 366.34,-195.09 362.84,-205.09 369.84,-205.09"/>
</a>
</g>
</g>
<!-- Node37 -->
<g id="Node000037" class="node">
<title>Node37</title>
<g id="a_Node000037"><a xlink:title=" ">
<polygon fill="#e0e0e0" stroke="#999999" points="515.34,-195 453.34,-195 453.34,-176 515.34,-176 515.34,-195"/>
<text text-anchor="middle" x="484.34" y="-183" font-family="Helvetica,sans-Serif" font-size="10.00">G4Orb.hh</text>
</a>
</g>
</g>
<!-- Node3&#45;&gt;Node37 -->
<g id="edge20_Node000003_Node000037" class="edge">
<title>Node3&#45;&gt;Node37</title>
<g id="a_edge20_Node000003_Node000037"><a xlink:title=" ">
<path fill="none" stroke="#63b8ff" d="M385.3,-230.98C404.37,-222.42 434,-209.11 455.89,-199.28"/>
<polygon fill="#63b8ff" stroke="#63b8ff" points="457.35,-202.46 465.04,-195.17 454.48,-196.07 457.35,-202.46"/>
</a>
</g>
</g>
<!-- Node38 -->
<g id="Node000038" class="node">
<title>Node38</title>
<g id="a_Node000038"><a xlink:title=" ">
<polygon fill="#e0e0e0" stroke="#999999" points="711.34,-195 533.34,-195 533.34,-176 711.34,-176 711.34,-195"/>
<text text-anchor="middle" x="622.34" y="-183" font-family="Helvetica,sans-Serif" font-size="10.00">G4VUserDetectorConstruction.hh</text>
</a>
</g>
</g>
<!-- Node3&#45;&gt;Node38 -->
<g id="edge21_Node000003_Node000038" class="edge">
<title>Node3&#45;&gt;Node38</title>
<g id="a_edge21_Node000003_Node000038"><a xlink:title=" ">
<path fill="none" stroke="#63b8ff" d="M407.47,-230.98C451.94,-221.78 522.89,-207.09 570.99,-197.13"/>
<polygon fill="#63b8ff" stroke="#63b8ff" points="571.8,-200.54 580.89,-195.08 570.39,-193.68 571.8,-200.54"/>
</a>
</g>
</g>
<!-- Node5 -->
<g id="Node000005" class="node">
<title>Node5</title>
<g id="a_Node000005"><a xlink:href="_o_m_sim_detector_component_8hh.html" target="_top" xlink:title="Provides helper base class OMSimDetectorComponent for constructing and managing detector components i...">
<polygon fill="#fff0f0" stroke="red" points="748.84,-79.5 583.84,-79.5 583.84,-60.5 748.84,-60.5 748.84,-79.5"/>
<text text-anchor="middle" x="666.34" y="-67.5" font-family="Helvetica,sans-Serif" font-size="10.00">OMSimDetectorComponent.hh</text>
</a>
</g>
</g>
<!-- Node4&#45;&gt;Node5 -->
<g id="edge4_Node000004_Node000005" class="edge">
<title>Node4&#45;&gt;Node5</title>
<g id="a_edge4_Node000004_Node000005"><a xlink:title=" ">
<path fill="none" stroke="#63b8ff" d="M430.75,-175.98C501,-166.26 605.61,-150.37 621.34,-140 639.76,-127.86 652.31,-105.31 659.39,-89.29"/>
<polygon fill="#63b8ff" stroke="#63b8ff" points="662.69,-90.47 663.25,-79.89 656.22,-87.81 662.69,-90.47"/>
</a>
</g>
</g>
<!-- Node4&#45;&gt;Node26 -->
<g id="edge5_Node000004_Node000026" class="edge">
<title>Node4&#45;&gt;Node26</title>
<g id="a_edge5_Node000004_Node000026"><a xlink:title=" ">
<path fill="none" stroke="#63b8ff" d="M366.34,-175.75C366.34,-168.8 366.34,-158.85 366.34,-150.13"/>
<polygon fill="#63b8ff" stroke="#63b8ff" points="369.84,-150.09 366.34,-140.09 362.84,-150.09 369.84,-150.09"/>
</a>
</g>
</g>
<!-- Node34 -->
<g id="Node000034" class="node">
<title>Node34</title>
<g id="a_Node000034"><a xlink:href="_o_m_sim_p_m_t_construction_8hh.html" target="_top" xlink:title="Construction of the PMTs.">
<polygon fill="#fff0f0" stroke="red" points="594.84,-140 445.84,-140 445.84,-121 594.84,-121 594.84,-140"/>
<text text-anchor="middle" x="520.34" y="-128" font-family="Helvetica,sans-Serif" font-size="10.00">OMSimPMTConstruction.hh</text>
</a>
</g>
</g>
<!-- Node4&#45;&gt;Node34 -->
<g id="edge16_Node000004_Node000034" class="edge">
<title>Node4&#45;&gt;Node34</title>
<g id="a_edge16_Node000004_Node000034"><a xlink:title=" ">
<path fill="none" stroke="#63b8ff" d="M391.08,-175.98C416.71,-167.16 456.97,-153.31 485.75,-143.41"/>
<polygon fill="#63b8ff" stroke="#63b8ff" points="487.09,-146.65 495.4,-140.08 484.81,-140.03 487.09,-146.65"/>
</a>
</g>
</g>
<!-- Node27 -->
<g id="Node000027" class="node">
<title>Node27</title>
<g id="a_Node000027"><a xlink:href="_o_m_sim_p_m_t_response_8hh.html" target="_top" xlink:title="Simulation of PMT response.">
<polygon fill="white" stroke="#666666" points="565.84,-79.5 430.84,-79.5 430.84,-60.5 565.84,-60.5 565.84,-79.5"/>
<text text-anchor="middle" x="498.34" y="-67.5" font-family="Helvetica,sans-Serif" font-size="10.00">OMSimPMTResponse.hh</text>
</a>
</g>
</g>
<!-- Node26&#45;&gt;Node27 -->
<g id="edge6_Node000026_Node000027" class="edge">
<title>Node26&#45;&gt;Node27</title>
<g id="a_edge6_Node000026_Node000027"><a xlink:title=" ">
<path fill="none" stroke="#63b8ff" d="M385.53,-120.99C407.73,-111.16 444.46,-94.88 469.96,-83.58"/>
<polygon fill="#63b8ff" stroke="#63b8ff" points="471.4,-86.77 479.12,-79.52 468.56,-80.37 471.4,-86.77"/>
</a>
</g>
</g>
<!-- Node32 -->
<g id="Node000032" class="node">
<title>Node32</title>
<g id="a_Node000032"><a xlink:title=" ">
<polygon fill="#e0e0e0" stroke="#999999" points="116.84,-79.5 13.84,-79.5 13.84,-60.5 116.84,-60.5 116.84,-79.5"/>
<text text-anchor="middle" x="65.34" y="-67.5" font-family="Helvetica,sans-Serif" font-size="10.00">G4ThreeVector.hh</text>
</a>
</g>
</g>
<!-- Node26&#45;&gt;Node32 -->
<g id="edge12_Node000026_Node000032" class="edge">
<title>Node26&#45;&gt;Node32</title>
<g id="a_edge12_Node000026_Node000032"><a xlink:title=" ">
<path fill="none" stroke="#63b8ff" d="M317.26,-120.92C268.87,-112.34 192.86,-98.49 127.34,-85 122.34,-83.97 117.11,-82.85 111.91,-81.72"/>
<polygon fill="#63b8ff" stroke="#63b8ff" points="112.53,-78.27 102.01,-79.52 111.02,-85.1 112.53,-78.27"/>
</a>
</g>
</g>
<!-- Node33 -->
<g id="Node000033" class="node">
<title>Node33</title>
<g id="a_Node000033"><a xlink:title=" ">
<polygon fill="#e0e0e0" stroke="#999999" points="303.84,-79.5 248.84,-79.5 248.84,-60.5 303.84,-60.5 303.84,-79.5"/>
<text text-anchor="middle" x="276.34" y="-67.5" font-family="Helvetica,sans-Serif" font-size="10.00">fstream</text>
</a>
</g>
</g>
<!-- Node26&#45;&gt;Node33 -->
<g id="edge13_Node000026_Node000033" class="edge">
<title>Node26&#45;&gt;Node33</title>
<g id="a_edge13_Node000026_Node000033"><a xlink:title=" ">
<path fill="none" stroke="#63b8ff" d="M353.06,-120.87C338.7,-111.54 315.58,-96.51 298.47,-85.38"/>
<polygon fill="#63b8ff" stroke="#63b8ff" points="299.97,-82.18 289.67,-79.67 296.15,-88.05 299.97,-82.18"/>
</a>
</g>
</g>
<!-- Node18 -->
<g id="Node000018" class="node">
<title>Node18</title>
<g id="a_Node000018"><a xlink:title=" ">
<polygon fill="#e0e0e0" stroke="#999999" points="412.34,-79.5 322.34,-79.5 322.34,-60.5 412.34,-60.5 412.34,-79.5"/>
<text text-anchor="middle" x="367.34" y="-67.5" font-family="Helvetica,sans-Serif" font-size="10.00">G4AutoLock.hh</text>
</a>
</g>
</g>
<!-- Node26&#45;&gt;Node18 -->
<g id="edge14_Node000026_Node000018" class="edge">
<title>Node26&#45;&gt;Node18</title>
<g id="a_edge14_Node000026_Node000018"><a xlink:title=" ">
<path fill="none" stroke="#63b8ff" d="M366.49,-120.87C366.63,-112.75 366.84,-100.31 367.02,-89.89"/>
<polygon fill="#63b8ff" stroke="#63b8ff" points="370.52,-89.73 367.19,-79.67 363.52,-89.61 370.52,-89.73"/>
</a>
</g>
</g>
<!-- Node19 -->
<g id="Node000019" class="node">
<title>Node19</title>
<g id="a_Node000019"><a xlink:title=" ">
<polygon fill="#e0e0e0" stroke="#999999" points="230.34,-79.5 136.34,-79.5 136.34,-60.5 230.34,-60.5 230.34,-79.5"/>
<text text-anchor="middle" x="183.34" y="-67.5" font-family="Helvetica,sans-Serif" font-size="10.00">G4Threading.hh</text>
</a>
</g>
</g>
<!-- Node26&#45;&gt;Node19 -->
<g id="edge15_Node000026_Node000019" class="edge">
<title>Node26&#45;&gt;Node19</title>
<g id="a_edge15_Node000026_Node000019"><a xlink:title=" ">
<path fill="none" stroke="#63b8ff" d="M339.73,-120.99C308.15,-110.9 255.33,-94.01 219.92,-82.69"/>
<polygon fill="#63b8ff" stroke="#63b8ff" points="220.57,-79.23 209.98,-79.52 218.44,-85.9 220.57,-79.23"/>
</a>
</g>
</g>
<!-- Node20 -->
<g id="Node000020" class="node">
<title>Node20</title>
<g id="a_Node000020"><a xlink:title=" ">
<polygon fill="#e0e0e0" stroke="#999999" points="449.84,-19 330.84,-19 330.84,0 449.84,0 449.84,-19"/>
<text text-anchor="middle" x="390.34" y="-7" font-family="Helvetica,sans-Serif" font-size="10.00">G4SystemOfUnits.hh</text>
</a>
</g>
</g>
<!-- Node27&#45;&gt;Node20 -->
<g id="edge7_Node000027_Node000020" class="edge">
<title>Node27&#45;&gt;Node20</title>
<g id="a_edge7_Node000027_Node000020"><a xlink:title=" ">
<path fill="none" stroke="#63b8ff" d="M482.4,-60.37C464.7,-50.78 435.88,-35.17 415.2,-23.97"/>
<polygon fill="#63b8ff" stroke="#63b8ff" points="416.8,-20.85 406.34,-19.17 413.47,-27.01 416.8,-20.85"/>
</a>
</g>
</g>
<!-- Node28 -->
<g id="Node000028" class="node">
<title>Node28</title>
<g id="a_Node000028"><a xlink:title=" ">
<polygon fill="#e0e0e0" stroke="#999999" points="166.84,-19 93.84,-19 93.84,0 166.84,0 166.84,-19"/>
<text text-anchor="middle" x="130.34" y="-7" font-family="Helvetica,sans-Serif" font-size="10.00">G4Types.hh</text>
</a>
</g>
</g>
<!-- Node27&#45;&gt;Node28 -->
<g id="edge8_Node000027_Node000028" class="edge">
<title>Node27&#45;&gt;Node28</title>
<g id="a_edge8_Node000027_Node000028"><a xlink:title=" ">
<path fill="none" stroke="#63b8ff" d="M452.78,-60.5C442.45,-58.63 431.53,-56.7 421.34,-55 335.45,-40.63 234.98,-25.67 177.38,-17.28"/>
<polygon fill="#63b8ff" stroke="#63b8ff" points="177.54,-13.76 167.14,-15.79 176.54,-20.69 177.54,-13.76"/>
</a>
</g>
</g>
<!-- Node29 -->
<g id="Node000029" class="node">
<title>Node29</title>
<g id="a_Node000029"><a xlink:title=" ">
<polygon fill="#e0e0e0" stroke="#999999" points="1209.34,-19 1171.34,-19 1171.34,0 1209.34,0 1209.34,-19"/>
<text text-anchor="middle" x="1190.34" y="-7" font-family="Helvetica,sans-Serif" font-size="10.00">map</text>
</a>
</g>
</g>
<!-- Node27&#45;&gt;Node29 -->
<g id="edge9_Node000027_Node000029" class="edge">
<title>Node27&#45;&gt;Node29</title>
<g id="a_edge9_Node000027_Node000029"><a xlink:title=" ">
<path fill="none" stroke="#63b8ff" d="M540.02,-60.47C551.14,-58.43 563.16,-56.43 574.34,-55 798.96,-26.29 1072.2,-14.66 1160.98,-11.47"/>
<polygon fill="#63b8ff" stroke="#63b8ff" points="1161.23,-14.97 1171.1,-11.12 1160.99,-7.97 1161.23,-14.97"/>
</a>
</g>
</g>
<!-- Node30 -->
<g id="Node000030" class="node">
<title>Node30</title>
<g id="a_Node000030"><a xlink:title=" ">
<polygon fill="#e0e0e0" stroke="#999999" points="528.84,-19 467.84,-19 467.84,0 528.84,0 528.84,-19"/>
<text text-anchor="middle" x="498.34" y="-7" font-family="Helvetica,sans-Serif" font-size="10.00">TGraph.h</text>
</a>
</g>
</g>
<!-- Node27&#45;&gt;Node30 -->
<g id="edge10_Node000027_Node000030" class="edge">
<title>Node27&#45;&gt;Node30</title>
<g id="a_edge10_Node000027_Node000030"><a xlink:title=" ">
<path fill="none" stroke="#63b8ff" d="M498.34,-60.37C498.34,-52.25 498.34,-39.81 498.34,-29.39"/>
<polygon fill="#63b8ff" stroke="#63b8ff" points="501.84,-29.17 498.34,-19.17 494.84,-29.17 501.84,-29.17"/>
</a>
</g>
</g>
<!-- Node31 -->
<g id="Node000031" class="node">
<title>Node31</title>
<g id="a_Node000031"><a xlink:title=" ">
<polygon fill="#e0e0e0" stroke="#999999" points="599.84,-19 546.84,-19 546.84,0 599.84,0 599.84,-19"/>
<text text-anchor="middle" x="573.34" y="-7" font-family="Helvetica,sans-Serif" font-size="10.00">TH2D.h</text>
</a>
</g>
</g>
<!-- Node27&#45;&gt;Node31 -->
<g id="edge11_Node000027_Node000031" class="edge">
<title>Node27&#45;&gt;Node31</title>
<g id="a_edge11_Node000027_Node000031"><a xlink:title=" ">
<path fill="none" stroke="#63b8ff" d="M509.41,-60.37C521.15,-51.21 539.93,-36.56 554.1,-25.51"/>
<polygon fill="#63b8ff" stroke="#63b8ff" points="556.5,-28.08 562.23,-19.17 552.19,-22.56 556.5,-28.08"/>
</a>
</g>
</g>
<!-- Node34&#45;&gt;Node5 -->
<g id="edge17_Node000034_Node000005" class="edge">
<title>Node34&#45;&gt;Node5</title>
<g id="a_edge17_Node000034_Node000005"><a xlink:title=" ">
<path fill="none" stroke="#63b8ff" d="M541.57,-120.99C566.33,-111.07 607.46,-94.59 635.69,-83.28"/>
<polygon fill="#63b8ff" stroke="#63b8ff" points="637.1,-86.49 645.09,-79.52 634.5,-79.99 637.1,-86.49"/>
</a>
</g>
</g>
<!-- Node34&#45;&gt;Node27 -->
<g id="edge19_Node000034_Node000027" class="edge">
<title>Node34&#45;&gt;Node27</title>
<g id="a_edge19_Node000034_Node000027"><a xlink:title=" ">
<path fill="none" stroke="#63b8ff" d="M517.09,-120.87C513.97,-112.57 509.16,-99.78 505.19,-89.22"/>
<polygon fill="#63b8ff" stroke="#63b8ff" points="508.4,-87.8 501.6,-79.67 501.84,-90.26 508.4,-87.8"/>
</a>
</g>
</g>
<!-- Node34&#45;&gt;Node34 -->
<g id="edge18_Node000034_Node000034" class="edge">
<title>Node34&#45;&gt;Node34</title>
<g id="a_edge18_Node000034_Node000034"><a xlink:title=" ">
<path fill="none" stroke="#63b8ff" d="M563.64,-140.03C589.05,-142.06 612.84,-138.88 612.84,-130.5 612.84,-123.23 594.95,-119.87 573.63,-120.44"/>
<polygon fill="#63b8ff" stroke="#63b8ff" points="573.44,-116.94 563.64,-120.97 573.81,-123.93 573.44,-116.94"/>
</a>
</g>
</g>
<!-- Node41&#45;&gt;Node26 -->
<g id="edge26_Node000041_Node000026" class="edge">
<title>Node41&#45;&gt;Node26</title>
<g id="a_edge26_Node000041_Node000026"><a xlink:title=" ">
<path fill="none" stroke="#63b8ff" d="M1270.27,-176.83C1267.25,-176.53 1264.26,-176.25 1261.34,-176 898.95,-145.16 803.83,-169.69 438.22,-140.09"/>
<polygon fill="#63b8ff" stroke="#63b8ff" points="438.4,-136.59 428.15,-139.27 437.83,-143.57 438.4,-136.59"/>
</a>
</g>
</g>
<!-- Node42 -->
<g id="Node000042" class="node">
<title>Node42</title>
<g id="a_Node000042"><a xlink:title=" ">
<polygon fill="#e0e0e0" stroke="#999999" points="1266.84,-140 1149.84,-140 1149.84,-121 1266.84,-121 1266.84,-140"/>
<text text-anchor="middle" x="1208.34" y="-128" font-family="Helvetica,sans-Serif" font-size="10.00">G4UserRunAction.hh</text>
</a>
</g>
</g>
<!-- Node41&#45;&gt;Node42 -->
<g id="edge25_Node000041_Node000042" class="edge">
<title>Node41&#45;&gt;Node42</title>
<g id="a_edge25_Node000041_Node000042"><a xlink:title=" ">
<path fill="none" stroke="#63b8ff" d="M1309.06,-175.98C1289.67,-167.42 1259.53,-154.11 1237.28,-144.28"/>
<polygon fill="#63b8ff" stroke="#63b8ff" points="1238.53,-141.01 1227.97,-140.17 1235.71,-147.41 1238.53,-141.01"/>
</a>
</g>
</g>
<!-- Node7 -->
<g id="Node000007" class="node">
<title>Node7</title>
<g id="a_Node000007"><a xlink:href="_o_m_sim_logger_8hh_source.html" target="_top" xlink:title=" ">
<polygon fill="white" stroke="#666666" points="1526.84,-140 1427.84,-140 1427.84,-121 1526.84,-121 1526.84,-140"/>
<text text-anchor="middle" x="1477.34" y="-128" font-family="Helvetica,sans-Serif" font-size="10.00">OMSimLogger.hh</text>
</a>
</g>
</g>
<!-- Node41&#45;&gt;Node7 -->
<g id="edge27_Node000041_Node000007" class="edge">
<title>Node41&#45;&gt;Node7</title>
<g id="a_edge27_Node000041_Node000007"><a xlink:title=" ">
<path fill="none" stroke="#63b8ff" d="M1352.28,-175.98C1376.9,-167.23 1415.46,-153.51 1443.26,-143.62"/>
<polygon fill="#63b8ff" stroke="#63b8ff" points="1444.72,-146.82 1452.97,-140.17 1442.37,-140.22 1444.72,-146.82"/>
</a>
</g>
</g>
<!-- Node43 -->
<g id="Node000043" class="node">
<title>Node43</title>
<g id="a_Node000043"><a xlink:title=" ">
<polygon fill="#e0e0e0" stroke="#999999" points="1371.34,-140 1285.34,-140 1285.34,-121 1371.34,-121 1371.34,-140"/>
<text text-anchor="middle" x="1328.34" y="-128" font-family="Helvetica,sans-Serif" font-size="10.00">Randomize.hh</text>
</a>
</g>
</g>
<!-- Node41&#45;&gt;Node43 -->
<g id="edge32_Node000041_Node000043" class="edge">
<title>Node41&#45;&gt;Node43</title>
<g id="a_edge32_Node000041_Node000043"><a xlink:title=" ">
<path fill="none" stroke="#63b8ff" d="M1328.34,-175.75C1328.34,-168.8 1328.34,-158.85 1328.34,-150.13"/>
<polygon fill="#63b8ff" stroke="#63b8ff" points="1331.84,-150.09 1328.34,-140.09 1324.84,-150.09 1331.84,-150.09"/>
</a>
</g>
</g>
<!-- Node44 -->
<g id="Node000044" class="node">
<title>Node44</title>
<g id="a_Node000044"><a xlink:title=" ">
<polygon fill="#e0e0e0" stroke="#999999" points="1131.34,-140 1067.34,-140 1067.34,-121 1131.34,-121 1131.34,-140"/>
<text text-anchor="middle" x="1099.34" y="-128" font-family="Helvetica,sans-Serif" font-size="10.00">G4Run.hh</text>
</a>
</g>
</g>
<!-- Node41&#45;&gt;Node44 -->
<g id="edge33_Node000041_Node000044" class="edge">
<title>Node41&#45;&gt;Node44</title>
<g id="a_edge33_Node000041_Node000044"><a xlink:title=" ">
<path fill="none" stroke="#63b8ff" d="M1291.55,-175.98C1250.58,-166.5 1184.49,-151.21 1141.48,-141.25"/>
<polygon fill="#63b8ff" stroke="#63b8ff" points="1142.13,-137.81 1131.6,-138.97 1140.55,-144.63 1142.13,-137.81"/>
</a>
</g>
</g>
<!-- Node8 -->
<g id="Node000008" class="node">
<title>Node8</title>
<g id="a_Node000008"><a xlink:title=" ">
<polygon fill="#e0e0e0" stroke="#999999" points="1456.84,-79.5 1363.84,-79.5 1363.84,-60.5 1456.84,-60.5 1456.84,-79.5"/>
<text text-anchor="middle" x="1410.34" y="-67.5" font-family="Helvetica,sans-Serif" font-size="10.00">spdlog/spdlog.h</text>
</a>
</g>
</g>
<!-- Node7&#45;&gt;Node8 -->
<g id="edge28_Node000007_Node000008" class="edge">
<title>Node7&#45;&gt;Node8</title>
<g id="a_edge28_Node000007_Node000008"><a xlink:title=" ">
<path fill="none" stroke="#63b8ff" d="M1467.45,-120.87C1457.06,-111.8 1440.5,-97.34 1427.89,-86.32"/>
<polygon fill="#63b8ff" stroke="#63b8ff" points="1430.1,-83.61 1420.27,-79.67 1425.5,-88.88 1430.1,-83.61"/>
</a>
</g>
</g>
<!-- Node9 -->
<g id="Node000009" class="node">
<title>Node9</title>
<g id="a_Node000009"><a xlink:title=" ">
<polygon fill="#e0e0e0" stroke="#999999" points="1585.84,-85 1474.84,-85 1474.84,-55 1585.84,-55 1585.84,-85"/>
<text text-anchor="start" x="1482.84" y="-73" font-family="Helvetica,sans-Serif" font-size="10.00">spdlog/sinks/stdout</text>
<text text-anchor="middle" x="1530.34" y="-62" font-family="Helvetica,sans-Serif" font-size="10.00">_color_sinks.h</text>
</a>
</g>
</g>
<!-- Node7&#45;&gt;Node9 -->
<g id="edge29_Node000007_Node000009" class="edge">
<title>Node7&#45;&gt;Node9</title>
<g id="a_edge29_Node000007_Node000009"><a xlink:title=" ">
<path fill="none" stroke="#63b8ff" d="M1485.16,-120.87C1491.89,-113.44 1501.88,-102.42 1510.76,-92.62"/>
<polygon fill="#63b8ff" stroke="#63b8ff" points="1513.43,-94.88 1517.55,-85.11 1508.25,-90.18 1513.43,-94.88"/>
</a>
</g>
</g>
<!-- Node10 -->
<g id="Node000010" class="node">
<title>Node10</title>
<g id="a_Node000010"><a xlink:title=" ">
<polygon fill="#e0e0e0" stroke="#999999" points="1662.34,-79.5 1604.34,-79.5 1604.34,-60.5 1662.34,-60.5 1662.34,-79.5"/>
<text text-anchor="middle" x="1633.34" y="-67.5" font-family="Helvetica,sans-Serif" font-size="10.00">memory</text>
</a>
</g>
</g>
<!-- Node7&#45;&gt;Node10 -->
<g id="edge30_Node000007_Node000010" class="edge">
<title>Node7&#45;&gt;Node10</title>
<g id="a_edge30_Node000007_Node000010"><a xlink:title=" ">
<path fill="none" stroke="#63b8ff" d="M1500.02,-120.99C1526.6,-111.03 1570.82,-94.45 1600.98,-83.13"/>
<polygon fill="#63b8ff" stroke="#63b8ff" points="1602.5,-86.31 1610.63,-79.52 1600.04,-79.75 1602.5,-86.31"/>
</a>
</g>
</g>
<!-- Node11 -->
<g id="Node000011" class="node">
<title>Node11</title>
<g id="a_Node000011"><a xlink:title=" ">
<polygon fill="#e0e0e0" stroke="#999999" points="1345.34,-79.5 1247.34,-79.5 1247.34,-60.5 1345.34,-60.5 1345.34,-79.5"/>
<text text-anchor="middle" x="1296.34" y="-67.5" font-family="Helvetica,sans-Serif" font-size="10.00">spdlog/fmt/fmt.h</text>
</a>
</g>
</g>
<!-- Node7&#45;&gt;Node11 -->
<g id="edge31_Node000007_Node000011" class="edge">
<title>Node7&#45;&gt;Node11</title>
<g id="a_edge31_Node000007_Node000011"><a xlink:title=" ">
<path fill="none" stroke="#63b8ff" d="M1451.02,-120.99C1419.79,-110.9 1367.54,-94.01 1332.52,-82.69"/>
<polygon fill="#63b8ff" stroke="#63b8ff" points="1333.28,-79.26 1322.69,-79.52 1331.13,-85.92 1333.28,-79.26"/>
</a>
</g>
</g>
<!-- Node47 -->
<g id="Node000047" class="node">
<title>Node47</title>
<g id="a_Node000047"><a xlink:title=" ">
<polygon fill="#e0e0e0" stroke="#999999" points="1092.84,-195 953.84,-195 953.84,-176 1092.84,-176 1092.84,-195"/>
<text text-anchor="middle" x="1023.34" y="-183" font-family="Helvetica,sans-Serif" font-size="10.00">G4UserTrackingAction.hh</text>
</a>
</g>
</g>
<!-- Node46&#45;&gt;Node47 -->
<g id="edge36_Node000046_Node000047" class="edge">
<title>Node46&#45;&gt;Node47</title>
<g id="a_edge36_Node000046_Node000047"><a xlink:title=" ">
<path fill="none" stroke="#63b8ff" d="M1024.18,-230.75C1024.04,-223.8 1023.86,-213.85 1023.69,-205.13"/>
<polygon fill="#63b8ff" stroke="#63b8ff" points="1027.19,-205.02 1023.5,-195.09 1020.19,-205.15 1027.19,-205.02"/>
</a>
</g>
</g>
<!-- Node49 -->
<g id="Node000049" class="node">
<title>Node49</title>
<g id="a_Node000049"><a xlink:title=" ">
<polygon fill="#e0e0e0" stroke="#999999" points="1251.84,-195 1110.84,-195 1110.84,-176 1251.84,-176 1251.84,-195"/>
<text text-anchor="middle" x="1181.34" y="-183" font-family="Helvetica,sans-Serif" font-size="10.00">G4UserSteppingAction.hh</text>
</a>
</g>
</g>
<!-- Node48&#45;&gt;Node49 -->
<g id="edge38_Node000048_Node000049" class="edge">
<title>Node48&#45;&gt;Node49</title>
<g id="a_edge38_Node000048_Node000049"><a xlink:title=" ">
<path fill="none" stroke="#63b8ff" d="M1181.34,-230.75C1181.34,-223.8 1181.34,-213.85 1181.34,-205.13"/>
<polygon fill="#63b8ff" stroke="#63b8ff" points="1184.84,-205.09 1181.34,-195.09 1177.84,-205.09 1184.84,-205.09"/>
</a>
</g>
</g>
<!-- Node51 -->
<g id="Node000051" class="node">
<title>Node51</title>
<g id="a_Node000051"><a xlink:href="_o_m_sim_command_args_table_8hh.html" target="_top" xlink:title="Definition of the OMSimCommandArgsTable singleton class, which controls user args.">
<polygon fill="white" stroke="#666666" points="1716.34,-195 1552.34,-195 1552.34,-176 1716.34,-176 1716.34,-195"/>
<text text-anchor="middle" x="1634.34" y="-183" font-family="Helvetica,sans-Serif" font-size="10.00">OMSimCommandArgsTable.hh</text>
</a>
</g>
</g>
<!-- Node50&#45;&gt;Node51 -->
<g id="edge40_Node000050_Node000051" class="edge">
<title>Node50&#45;&gt;Node51</title>
<g id="a_edge40_Node000050_Node000051"><a xlink:title=" ">
<path fill="none" stroke="#63b8ff" d="M1876.07,-230.98C1825.73,-221.72 1745.22,-206.9 1691.1,-196.94"/>
<polygon fill="#63b8ff" stroke="#63b8ff" points="1691.44,-193.45 1680.98,-195.08 1690.18,-200.33 1691.44,-193.45"/>
</a>
</g>
</g>
<!-- Node54 -->
<g id="Node000054" class="node">
<title>Node54</title>
<g id="a_Node000054"><a xlink:title=" ">
<polygon fill="#e0e0e0" stroke="#999999" points="1971.34,-195 1873.34,-195 1873.34,-176 1971.34,-176 1971.34,-195"/>
<text text-anchor="middle" x="1922.34" y="-183" font-family="Helvetica,sans-Serif" font-size="10.00">G4UImanager.hh</text>
</a>
</g>
</g>
<!-- Node50&#45;&gt;Node54 -->
<g id="edge46_Node000050_Node000054" class="edge">
<title>Node50&#45;&gt;Node54</title>
<g id="a_edge46_Node000050_Node000054"><a xlink:title=" ">
<path fill="none" stroke="#63b8ff" d="M1922.34,-230.75C1922.34,-223.8 1922.34,-213.85 1922.34,-205.13"/>
<polygon fill="#63b8ff" stroke="#63b8ff" points="1925.84,-205.09 1922.34,-195.09 1918.84,-205.09 1925.84,-205.09"/>
</a>
</g>
</g>
<!-- Node51&#45;&gt;Node29 -->
<g id="edge45_Node000051_Node000029" class="edge">
<title>Node51&#45;&gt;Node29</title>
<g id="a_edge45_Node000051_Node000029"><a xlink:title=" ">
<path fill="none" stroke="#63b8ff" d="M1672.35,-175.85C1691.46,-169.37 1712.94,-158.36 1724.34,-140 1748.04,-101.85 1700.95,-70.92 1671.34,-55 1592.64,-12.69 1311.7,-9.99 1219.72,-10.27"/>
<polygon fill="#63b8ff" stroke="#63b8ff" points="1219.45,-6.77 1209.47,-10.31 1219.48,-13.77 1219.45,-6.77"/>
</a>
</g>
</g>
<!-- Node51&#45;&gt;Node33 -->
<g id="edge42_Node000051_Node000033" class="edge">
<title>Node51&#45;&gt;Node33</title>
<g id="a_edge42_Node000051_Node000033"><a xlink:title=" ">
<path fill="none" stroke="#63b8ff" d="M1573.02,-175.98C1529.41,-168.92 1469.85,-157.23 1419.34,-140 1401.09,-133.78 1399.05,-125.65 1380.34,-121 1150.1,-63.79 545.96,-131.61 313.34,-85 310.66,-84.46 307.91,-83.75 305.19,-82.94"/>
<polygon fill="#63b8ff" stroke="#63b8ff" points="306.17,-79.57 295.57,-79.64 303.9,-86.2 306.17,-79.57"/>
</a>
</g>
</g>
<!-- Node51&#45;&gt;Node7 -->
<g id="edge41_Node000051_Node000007" class="edge">
<title>Node51&#45;&gt;Node7</title>
<g id="a_edge41_Node000051_Node000007"><a xlink:title=" ">
<path fill="none" stroke="#63b8ff" d="M1609.12,-175.98C1582.99,-167.16 1541.94,-153.31 1512.61,-143.41"/>
<polygon fill="#63b8ff" stroke="#63b8ff" points="1513.36,-139.96 1502.76,-140.08 1511.12,-146.6 1513.36,-139.96"/>
</a>
</g>
</g>
<!-- Node52 -->
<g id="Node000052" class="node">
<title>Node52</title>
<g id="a_Node000052"><a xlink:title=" ">
<polygon fill="#e0e0e0" stroke="#999999" points="1629.34,-140 1545.34,-140 1545.34,-121 1629.34,-121 1629.34,-140"/>
<text text-anchor="middle" x="1587.34" y="-128" font-family="Helvetica,sans-Serif" font-size="10.00">boost/any.hpp</text>
</a>
</g>
</g>
<!-- Node51&#45;&gt;Node52 -->
<g id="edge43_Node000051_Node000052" class="edge">
<title>Node51&#45;&gt;Node52</title>
<g id="a_edge43_Node000051_Node000052"><a xlink:title=" ">
<path fill="none" stroke="#63b8ff" d="M1626.58,-175.75C1619.87,-168.18 1610,-157.05 1601.83,-147.84"/>
<polygon fill="#63b8ff" stroke="#63b8ff" points="1604.21,-145.25 1594.96,-140.09 1598.97,-149.89 1604.21,-145.25"/>
</a>
</g>
</g>
<!-- Node53 -->
<g id="Node000053" class="node">
<title>Node53</title>
<g id="a_Node000053"><a xlink:title=" ">
<polygon fill="#e0e0e0" stroke="#999999" points="1715.34,-140 1647.34,-140 1647.34,-121 1715.34,-121 1715.34,-140"/>
<text text-anchor="middle" x="1681.34" y="-128" font-family="Helvetica,sans-Serif" font-size="10.00">sys/time.h</text>
</a>
</g>
</g>
<!-- Node51&#45;&gt;Node53 -->
<g id="edge44_Node000051_Node000053" class="edge">
<title>Node51&#45;&gt;Node53</title>
<g id="a_edge44_Node000051_Node000053"><a xlink:title=" ">
<path fill="none" stroke="#63b8ff" d="M1642.1,-175.75C1648.81,-168.18 1658.68,-157.05 1666.85,-147.84"/>
<polygon fill="#63b8ff" stroke="#63b8ff" points="1669.71,-149.89 1673.72,-140.09 1664.47,-145.25 1669.71,-149.89"/>
</a>
</g>
</g>
<!-- Node59&#45;&gt;Node26 -->
<g id="edge55_Node000059_Node000026" class="edge">
<title>Node59&#45;&gt;Node26</title>
<g id="a_edge55_Node000059_Node000026"><a xlink:title=" ">
<path fill="none" stroke="#63b8ff" d="M196.8,-175.98C231.3,-166.93 286,-152.58 323.9,-142.64"/>
<polygon fill="#63b8ff" stroke="#63b8ff" points="324.85,-146.01 333.63,-140.08 323.07,-139.23 324.85,-146.01"/>
</a>
</g>
</g>
<!-- Node59&#45;&gt;Node28 -->
<g id="edge52_Node000059_Node000028" class="edge">
<title>Node59&#45;&gt;Node28</title>
<g id="a_edge52_Node000059_Node000028"><a xlink:title=" ">
<path fill="none" stroke="#63b8ff" d="M109.77,-175.99C83.92,-169.66 54.03,-158.74 32.34,-140 11.58,-122.07 10.74,-111.67 4.34,-85 1.23,-72.03 -3.36,-65.89 4.34,-55 22.24,-29.7 55.77,-18.68 83.74,-13.94"/>
<polygon fill="#63b8ff" stroke="#63b8ff" points="84.38,-17.38 93.76,-12.46 83.35,-10.46 84.38,-17.38"/>
</a>
</g>
</g>
<!-- Node59&#45;&gt;Node32 -->
<g id="edge54_Node000059_Node000032" class="edge">
<title>Node59&#45;&gt;Node32</title>
<g id="a_edge54_Node000059_Node000032"><a xlink:title=" ">
<path fill="none" stroke="#63b8ff" d="M103.15,-177.58C79.52,-171.59 54.75,-160.48 40.34,-140 29.17,-124.12 40.15,-102.7 50.88,-87.96"/>
<polygon fill="#63b8ff" stroke="#63b8ff" points="53.9,-89.78 57.32,-79.75 48.39,-85.46 53.9,-89.78"/>
</a>
</g>
</g>
<!-- Node59&#45;&gt;Node33 -->
<g id="edge57_Node000059_Node000033" class="edge">
<title>Node59&#45;&gt;Node33</title>
<g id="a_edge57_Node000059_Node000033"><a xlink:title=" ">
<path fill="none" stroke="#63b8ff" d="M197.55,-175.89C217.24,-169.17 241.23,-157.89 256.34,-140 268.27,-125.88 273.09,-104.98 275.03,-89.88"/>
<polygon fill="#63b8ff" stroke="#63b8ff" points="278.54,-89.97 276.03,-79.68 271.57,-89.29 278.54,-89.97"/>
</a>
</g>
</g>
<!-- Node60 -->
<g id="Node000060" class="node">
<title>Node60</title>
<g id="a_Node000060"><a xlink:title=" ">
<polygon fill="#e0e0e0" stroke="#999999" points="123.34,-140 49.34,-140 49.34,-121 123.34,-121 123.34,-140"/>
<text text-anchor="middle" x="86.34" y="-128" font-family="Helvetica,sans-Serif" font-size="10.00">G4String.hh</text>
</a>
</g>
</g>
<!-- Node59&#45;&gt;Node60 -->
<g id="edge53_Node000059_Node000060" class="edge">
<title>Node59&#45;&gt;Node60</title>
<g id="a_edge53_Node000059_Node000060"><a xlink:title=" ">
<path fill="none" stroke="#63b8ff" d="M151.81,-175.98C139.94,-167.92 121.88,-155.65 107.73,-146.03"/>
<polygon fill="#63b8ff" stroke="#63b8ff" points="109.34,-142.9 99.1,-140.17 105.4,-148.69 109.34,-142.9"/>
</a>
</g>
</g>
<!-- Node61 -->
<g id="Node000061" class="node">
<title>Node61</title>
<g id="a_Node000061"><a xlink:title=" ">
<polygon fill="#e0e0e0" stroke="#999999" points="188.84,-140 141.84,-140 141.84,-121 188.84,-121 188.84,-140"/>
<text text-anchor="middle" x="165.34" y="-128" font-family="Helvetica,sans-Serif" font-size="10.00">vector</text>
</a>
</g>
</g>
<!-- Node59&#45;&gt;Node61 -->
<g id="edge56_Node000059_Node000061" class="edge">
<title>Node59&#45;&gt;Node61</title>
<g id="a_edge56_Node000059_Node000061"><a xlink:title=" ">
<path fill="none" stroke="#63b8ff" d="M164.51,-175.75C164.64,-168.8 164.82,-158.85 164.99,-150.13"/>
<polygon fill="#63b8ff" stroke="#63b8ff" points="168.49,-150.15 165.18,-140.09 161.49,-150.02 168.49,-150.15"/>
</a>
</g>
</g>
<!-- Node62 -->
<g id="Node000062" class="node">
<title>Node62</title>
<g id="a_Node000062"><a xlink:title=" ">
<polygon fill="#e0e0e0" stroke="#999999" points="247.84,-140 206.84,-140 206.84,-121 247.84,-121 247.84,-140"/>
<text text-anchor="middle" x="227.34" y="-128" font-family="Helvetica,sans-Serif" font-size="10.00">tuple</text>
</a>
</g>
</g>
<!-- Node59&#45;&gt;Node62 -->
<g id="edge58_Node000059_Node000062" class="edge">
<title>Node59&#45;&gt;Node62</title>
<g id="a_edge58_Node000059_Node000062"><a xlink:title=" ">
<path fill="none" stroke="#63b8ff" d="M174.46,-175.98C183.78,-168.15 197.81,-156.34 209.08,-146.86"/>
<polygon fill="#63b8ff" stroke="#63b8ff" points="211.64,-149.29 217.03,-140.17 207.13,-143.93 211.64,-149.29"/>
</a>
</g>
</g>
<!-- Node64&#45;&gt;Node3 -->
<g id="edge63_Node000064_Node000003" class="edge">
<title>Node64&#45;&gt;Node3</title>
<g id="a_edge63_Node000064_Node000003"><a xlink:title=" ">
<path fill="none" stroke="#63b8ff" d="M386.38,-285.75C383.13,-278.57 378.42,-268.18 374.39,-259.27"/>
<polygon fill="#63b8ff" stroke="#63b8ff" points="377.54,-257.75 370.23,-250.09 371.17,-260.64 377.54,-257.75"/>
</a>
</g>
</g>
</g>
</svg>
