<?xml version="1.0" encoding="UTF-8" standalone="no"?>
<!DOCTYPE svg PUBLIC "-//W3C//DTD SVG 1.1//EN"
 "http://www.w3.org/Graphics/SVG/1.1/DTD/svg11.dtd">
<!-- Generated by graphviz version 2.43.0 (0)
 -->
<!-- Title: OMSimDEGG.hh Pages: 1 -->
<svg width="1615pt" height="386pt"
 viewBox="0.00 0.00 1615.00 386.00" xmlns="http://www.w3.org/2000/svg" xmlns:xlink="http://www.w3.org/1999/xlink">
<g id="graph0" class="graph" transform="scale(1 1) rotate(0) translate(4 382)">
<title>OMSimDEGG.hh</title>
<!-- Node1 -->
<g id="node1" class="node">
<title>Node1</title>
<g id="a_node1"><a xlink:title="Construction of the DEGG class. From DOUMEKI.">
<polygon fill="#bfbfbf" stroke="black" points="1096,-358.5 1096,-377.5 1191,-377.5 1191,-358.5 1096,-358.5"/>
<text text-anchor="middle" x="1143.5" y="-365.5" font-family="Helvetica,sans-Serif" font-size="10.00">OMSimDEGG.hh</text>
</a>
</g>
</g>
<!-- Node2 -->
<g id="node2" class="node">
<title>Node2</title>
<g id="a_node2"><a xlink:href="_o_m_sim_p_m_t_construction_8hh.html" target="_top" xlink:title="Construction of the PMTs.">
<polygon fill="none" stroke="black" points="1070,-246.5 1070,-265.5 1219,-265.5 1219,-246.5 1070,-246.5"/>
<text text-anchor="middle" x="1144.5" y="-253.5" font-family="Helvetica,sans-Serif" font-size="10.00">OMSimPMTConstruction.hh</text>
</a>
</g>
</g>
<!-- Node1&#45;&gt;Node2 -->
<g id="edge1" class="edge">
<title>Node1&#45;&gt;Node2</title>
<path fill="none" stroke="midnightblue" d="M1135.57,-358.42C1125.27,-346.21 1109.32,-322.98 1115.5,-302 1118.51,-291.76 1124.65,-281.66 1130.51,-273.63"/>
<polygon fill="midnightblue" stroke="midnightblue" points="1133.43,-275.58 1136.83,-265.54 1127.91,-271.27 1133.43,-275.58"/>
</g>
<!-- Node31 -->
<g id="node31" class="node">
<title>Node31</title>
<g id="a_node31"><a xlink:href="_o_m_sim_optical_module_8hh_source.html" target="_top" xlink:title=" ">
<polygon fill="none" stroke="black" points="1124,-302.5 1124,-321.5 1261,-321.5 1261,-302.5 1124,-302.5"/>
<text text-anchor="middle" x="1192.5" y="-309.5" font-family="Helvetica,sans-Serif" font-size="10.00">OMSimOpticalModule.hh</text>
</a>
</g>
</g>
<!-- Node1&#45;&gt;Node31 -->
<g id="edge32" class="edge">
<title>Node1&#45;&gt;Node31</title>
<path fill="none" stroke="midnightblue" d="M1151.59,-358.08C1158.66,-350.3 1169.09,-338.8 1177.65,-329.37"/>
<polygon fill="midnightblue" stroke="midnightblue" points="1180.43,-331.51 1184.56,-321.75 1175.25,-326.8 1180.43,-331.51"/>
</g>
<!-- Node2&#45;&gt;Node2 -->
<g id="edge23" class="edge">
<title>Node2&#45;&gt;Node2</title>
<path fill="none" stroke="midnightblue" d="M1183.95,-265.53C1210.76,-268.31 1237,-265.13 1237,-256 1237,-248.01 1216.91,-244.58 1193.93,-245.71"/>
<polygon fill="midnightblue" stroke="midnightblue" points="1193.65,-242.22 1183.95,-246.47 1194.19,-249.2 1193.65,-242.22"/>
</g>
<!-- Node3 -->
<g id="node3" class="node">
<title>Node3</title>
<g id="a_node3"><a xlink:href="_o_m_sim_detector_component_8hh.html" target="_top" xlink:title="Provides helper base class OMSimDetectorComponent for constructing and managing detector components i...">
<polygon fill="none" stroke="black" points="909,-190.5 909,-209.5 1074,-209.5 1074,-190.5 909,-190.5"/>
<text text-anchor="middle" x="991.5" y="-197.5" font-family="Helvetica,sans-Serif" font-size="10.00">OMSimDetectorComponent.hh</text>
</a>
</g>
</g>
<!-- Node2&#45;&gt;Node3 -->
<g id="edge2" class="edge">
<title>Node2&#45;&gt;Node3</title>
<path fill="none" stroke="midnightblue" d="M1120.26,-246.44C1094.63,-237.4 1054.01,-223.06 1025.26,-212.92"/>
<polygon fill="midnightblue" stroke="midnightblue" points="1026.22,-209.54 1015.63,-209.52 1023.89,-216.15 1026.22,-209.54"/>
</g>
<!-- Node24 -->
<g id="node24" class="node">
<title>Node24</title>
<g id="a_node24"><a xlink:href="_o_m_sim_p_m_t_response_8hh.html" target="_top" xlink:title="Simulation of PMT response.">
<polygon fill="none" stroke="black" points="1201,-134.5 1201,-153.5 1336,-153.5 1336,-134.5 1201,-134.5"/>
<text text-anchor="middle" x="1268.5" y="-141.5" font-family="Helvetica,sans-Serif" font-size="10.00">OMSimPMTResponse.hh</text>
</a>
</g>
</g>
<!-- Node2&#45;&gt;Node24 -->
<g id="edge24" class="edge">
<title>Node2&#45;&gt;Node24</title>
<path fill="none" stroke="midnightblue" d="M1137.48,-246.17C1127.79,-232.83 1112.84,-207.25 1125.5,-190 1136.12,-175.52 1176.86,-163.57 1212.15,-155.64"/>
<polygon fill="midnightblue" stroke="midnightblue" points="1212.9,-159.05 1221.93,-153.5 1211.41,-152.21 1212.9,-159.05"/>
</g>
<!-- Node29 -->
<g id="node29" class="node">
<title>Node29</title>
<g id="a_node29"><a xlink:title=" ">
<polygon fill="none" stroke="#bfbfbf" points="1134.5,-190.5 1134.5,-209.5 1232.5,-209.5 1232.5,-190.5 1134.5,-190.5"/>
<text text-anchor="middle" x="1183.5" y="-197.5" font-family="Helvetica,sans-Serif" font-size="10.00">G4UnionSolid.hh</text>
</a>
</g>
</g>
<!-- Node2&#45;&gt;Node29 -->
<g id="edge30" class="edge">
<title>Node2&#45;&gt;Node29</title>
<path fill="none" stroke="midnightblue" d="M1150.94,-246.08C1156.45,-238.46 1164.53,-227.26 1171.26,-217.94"/>
<polygon fill="midnightblue" stroke="midnightblue" points="1174.16,-219.91 1177.18,-209.75 1168.49,-215.81 1174.16,-219.91"/>
</g>
<!-- Node30 -->
<g id="node30" class="node">
<title>Node30</title>
<g id="a_node30"><a xlink:title=" ">
<polygon fill="none" stroke="#bfbfbf" points="1251,-190.5 1251,-209.5 1318,-209.5 1318,-190.5 1251,-190.5"/>
<text text-anchor="middle" x="1284.5" y="-197.5" font-family="Helvetica,sans-Serif" font-size="10.00">G4Tubs.hh</text>
</a>
</g>
</g>
<!-- Node2&#45;&gt;Node30 -->
<g id="edge31" class="edge">
<title>Node2&#45;&gt;Node30</title>
<path fill="none" stroke="midnightblue" d="M1166.68,-246.44C1189.93,-237.48 1226.65,-223.31 1252.92,-213.18"/>
<polygon fill="midnightblue" stroke="midnightblue" points="1254.35,-216.38 1262.42,-209.52 1251.83,-209.85 1254.35,-216.38"/>
</g>
<!-- Node4 -->
<g id="node4" class="node">
<title>Node4</title>
<g id="a_node4"><a xlink:href="_o_m_sim_input_data_8hh.html" target="_top" xlink:title="Definition of ParameterTable and OMSimInputData.">
<polygon fill="none" stroke="black" points="544,-134.5 544,-153.5 659,-153.5 659,-134.5 544,-134.5"/>
<text text-anchor="middle" x="601.5" y="-141.5" font-family="Helvetica,sans-Serif" font-size="10.00">OMSimInputData.hh</text>
</a>
</g>
</g>
<!-- Node3&#45;&gt;Node4 -->
<g id="edge3" class="edge">
<title>Node3&#45;&gt;Node4</title>
<path fill="none" stroke="midnightblue" d="M929.7,-190.44C858.73,-180.62 742.65,-164.54 669.26,-154.38"/>
<polygon fill="midnightblue" stroke="midnightblue" points="669.58,-150.89 659.19,-152.99 668.62,-157.83 669.58,-150.89"/>
</g>
<!-- Node20 -->
<g id="node20" class="node">
<title>Node20</title>
<g id="a_node20"><a xlink:title=" ">
<polygon fill="none" stroke="#bfbfbf" points="677,-134.5 677,-153.5 784,-153.5 784,-134.5 677,-134.5"/>
<text text-anchor="middle" x="730.5" y="-141.5" font-family="Helvetica,sans-Serif" font-size="10.00">G4Transform3D.hh</text>
</a>
</g>
</g>
<!-- Node3&#45;&gt;Node20 -->
<g id="edge19" class="edge">
<title>Node3&#45;&gt;Node20</title>
<path fill="none" stroke="midnightblue" d="M950.14,-190.44C904.42,-180.98 830.74,-165.74 781.48,-155.55"/>
<polygon fill="midnightblue" stroke="midnightblue" points="782.16,-152.12 771.66,-153.52 780.75,-158.97 782.16,-152.12"/>
</g>
<!-- Node21 -->
<g id="node21" class="node">
<title>Node21</title>
<g id="a_node21"><a xlink:title=" ">
<polygon fill="none" stroke="#bfbfbf" points="802.5,-134.5 802.5,-153.5 910.5,-153.5 910.5,-134.5 802.5,-134.5"/>
<text text-anchor="middle" x="856.5" y="-141.5" font-family="Helvetica,sans-Serif" font-size="10.00">G4VisAttributes.hh</text>
</a>
</g>
</g>
<!-- Node3&#45;&gt;Node21 -->
<g id="edge20" class="edge">
<title>Node3&#45;&gt;Node21</title>
<path fill="none" stroke="midnightblue" d="M970.11,-190.44C947.79,-181.52 912.6,-167.44 887.29,-157.32"/>
<polygon fill="midnightblue" stroke="midnightblue" points="888.38,-153.98 877.79,-153.52 885.78,-160.48 888.38,-153.98"/>
</g>
<!-- Node22 -->
<g id="node22" class="node">
<title>Node22</title>
<g id="a_node22"><a xlink:title=" ">
<polygon fill="none" stroke="#bfbfbf" points="929,-134.5 929,-153.5 1054,-153.5 1054,-134.5 929,-134.5"/>
<text text-anchor="middle" x="991.5" y="-141.5" font-family="Helvetica,sans-Serif" font-size="10.00">G4SubtractionSolid.hh</text>
</a>
</g>
</g>
<!-- Node3&#45;&gt;Node22 -->
<g id="edge21" class="edge">
<title>Node3&#45;&gt;Node22</title>
<path fill="none" stroke="midnightblue" d="M991.5,-190.08C991.5,-183.01 991.5,-172.86 991.5,-163.99"/>
<polygon fill="midnightblue" stroke="midnightblue" points="995,-163.75 991.5,-153.75 988,-163.75 995,-163.75"/>
</g>
<!-- Node23 -->
<g id="node23" class="node">
<title>Node23</title>
<g id="a_node23"><a xlink:title=" ">
<polygon fill="none" stroke="#bfbfbf" points="1072.5,-134.5 1072.5,-153.5 1182.5,-153.5 1182.5,-134.5 1072.5,-134.5"/>
<text text-anchor="middle" x="1127.5" y="-141.5" font-family="Helvetica,sans-Serif" font-size="10.00">G4PVPlacement.hh</text>
</a>
</g>
</g>
<!-- Node3&#45;&gt;Node23 -->
<g id="edge22" class="edge">
<title>Node3&#45;&gt;Node23</title>
<path fill="none" stroke="midnightblue" d="M1013.05,-190.44C1035.53,-181.52 1070.99,-167.44 1096.48,-157.32"/>
<polygon fill="midnightblue" stroke="midnightblue" points="1098.05,-160.46 1106.05,-153.52 1095.47,-153.95 1098.05,-160.46"/>
</g>
<!-- Node5 -->
<g id="node5" class="node">
<title>Node5</title>
<g id="a_node5"><a xlink:href="_o_m_sim_logger_8hh_source.html" target="_top" xlink:title=" ">
<polygon fill="none" stroke="black" points="220,-73 220,-92 319,-92 319,-73 220,-73"/>
<text text-anchor="middle" x="269.5" y="-80" font-family="Helvetica,sans-Serif" font-size="10.00">OMSimLogger.hh</text>
</a>
</g>
</g>
<!-- Node4&#45;&gt;Node5 -->
<g id="edge4" class="edge">
<title>Node4&#45;&gt;Node5</title>
<path fill="none" stroke="midnightblue" d="M553.93,-134.48C494.02,-123.74 391.18,-105.31 326.94,-93.79"/>
<polygon fill="midnightblue" stroke="midnightblue" points="327.44,-90.33 316.98,-92.01 326.2,-97.22 327.44,-90.33"/>
</g>
<!-- Node10 -->
<g id="node10" class="node">
<title>Node10</title>
<g id="a_node10"><a xlink:href="_o_m_sim_op_boundary_process_8hh_source.html" target="_top" xlink:title=" ">
<polygon fill="none" stroke="black" points="605.5,-73 605.5,-92 769.5,-92 769.5,-73 605.5,-73"/>
<text text-anchor="middle" x="687.5" y="-80" font-family="Helvetica,sans-Serif" font-size="10.00">OMSimOpBoundaryProcess.hh</text>
</a>
</g>
</g>
<!-- Node4&#45;&gt;Node10 -->
<g id="edge9" class="edge">
<title>Node4&#45;&gt;Node10</title>
<path fill="none" stroke="midnightblue" d="M613.82,-134.48C627.62,-124.93 650.2,-109.31 666.73,-97.87"/>
<polygon fill="midnightblue" stroke="midnightblue" points="668.97,-100.58 675.2,-92.01 664.99,-94.82 668.97,-100.58"/>
</g>
<!-- Node18 -->
<g id="node18" class="node">
<title>Node18</title>
<g id="a_node18"><a xlink:title=" ">
<polygon fill="none" stroke="#bfbfbf" points="919,-73 919,-92 1038,-92 1038,-73 919,-73"/>
<text text-anchor="middle" x="978.5" y="-80" font-family="Helvetica,sans-Serif" font-size="10.00">G4SystemOfUnits.hh</text>
</a>
</g>
</g>
<!-- Node4&#45;&gt;Node18 -->
<g id="edge17" class="edge">
<title>Node4&#45;&gt;Node18</title>
<path fill="none" stroke="midnightblue" d="M659.22,-135C734.66,-124.48 862.68,-106.33 909.5,-98 916.14,-96.82 923.12,-95.47 929.98,-94.09"/>
<polygon fill="midnightblue" stroke="midnightblue" points="930.81,-97.49 939.9,-92.05 929.4,-90.64 930.81,-97.49"/>
</g>
<!-- Node19 -->
<g id="node19" class="node">
<title>Node19</title>
<g id="a_node19"><a xlink:title=" ">
<polygon fill="none" stroke="#bfbfbf" points="788,-67.5 788,-97.5 901,-97.5 901,-67.5 788,-67.5"/>
<text text-anchor="start" x="796" y="-85.5" font-family="Helvetica,sans-Serif" font-size="10.00">boost/property_tree</text>
<text text-anchor="middle" x="844.5" y="-74.5" font-family="Helvetica,sans-Serif" font-size="10.00">/json_parser.hpp</text>
</a>
</g>
</g>
<!-- Node4&#45;&gt;Node19 -->
<g id="edge18" class="edge">
<title>Node4&#45;&gt;Node19</title>
<path fill="none" stroke="midnightblue" d="M636.32,-134.48C673.12,-125.46 732.06,-111.03 777.84,-99.82"/>
<polygon fill="midnightblue" stroke="midnightblue" points="778.82,-103.19 787.7,-97.41 777.15,-96.39 778.82,-103.19"/>
</g>
<!-- Node6 -->
<g id="node6" class="node">
<title>Node6</title>
<g id="a_node6"><a xlink:title=" ">
<polygon fill="none" stroke="#bfbfbf" points="0,-6 0,-25 93,-25 93,-6 0,-6"/>
<text text-anchor="middle" x="46.5" y="-13" font-family="Helvetica,sans-Serif" font-size="10.00">spdlog/spdlog.h</text>
</a>
</g>
</g>
<!-- Node5&#45;&gt;Node6 -->
<g id="edge5" class="edge">
<title>Node5&#45;&gt;Node6</title>
<path fill="none" stroke="midnightblue" d="M239.89,-72.87C200.21,-61.3 129.69,-40.75 85.66,-27.91"/>
<polygon fill="midnightblue" stroke="midnightblue" points="86.46,-24.5 75.88,-25.06 84.5,-31.22 86.46,-24.5"/>
</g>
<!-- Node7 -->
<g id="node7" class="node">
<title>Node7</title>
<g id="a_node7"><a xlink:title=" ">
<polygon fill="none" stroke="#bfbfbf" points="111,-0.5 111,-30.5 222,-30.5 222,-0.5 111,-0.5"/>
<text text-anchor="start" x="119" y="-18.5" font-family="Helvetica,sans-Serif" font-size="10.00">spdlog/sinks/stdout</text>
<text text-anchor="middle" x="166.5" y="-7.5" font-family="Helvetica,sans-Serif" font-size="10.00">_color_sinks.h</text>
</a>
</g>
</g>
<!-- Node5&#45;&gt;Node7 -->
<g id="edge6" class="edge">
<title>Node5&#45;&gt;Node7</title>
<path fill="none" stroke="midnightblue" d="M255.61,-72.73C240.75,-63.36 216.71,-48.19 197.35,-35.97"/>
<polygon fill="midnightblue" stroke="midnightblue" points="199.15,-32.97 188.83,-30.59 195.41,-38.89 199.15,-32.97"/>
</g>
<!-- Node8 -->
<g id="node8" class="node">
<title>Node8</title>
<g id="a_node8"><a xlink:title=" ">
<polygon fill="none" stroke="#bfbfbf" points="240.5,-6 240.5,-25 298.5,-25 298.5,-6 240.5,-6"/>
<text text-anchor="middle" x="269.5" y="-13" font-family="Helvetica,sans-Serif" font-size="10.00">memory</text>
</a>
</g>
</g>
<!-- Node5&#45;&gt;Node8 -->
<g id="edge7" class="edge">
<title>Node5&#45;&gt;Node8</title>
<path fill="none" stroke="midnightblue" d="M269.5,-72.73C269.5,-63.18 269.5,-47.62 269.5,-35.28"/>
<polygon fill="midnightblue" stroke="midnightblue" points="273,-35.13 269.5,-25.13 266,-35.13 273,-35.13"/>
</g>
<!-- Node9 -->
<g id="node9" class="node">
<title>Node9</title>
<g id="a_node9"><a xlink:title=" ">
<polygon fill="none" stroke="#bfbfbf" points="316.5,-6 316.5,-25 414.5,-25 414.5,-6 316.5,-6"/>
<text text-anchor="middle" x="365.5" y="-13" font-family="Helvetica,sans-Serif" font-size="10.00">spdlog/fmt/fmt.h</text>
</a>
</g>
</g>
<!-- Node5&#45;&gt;Node9 -->
<g id="edge8" class="edge">
<title>Node5&#45;&gt;Node9</title>
<path fill="none" stroke="midnightblue" d="M282.45,-72.73C298.35,-61.96 325.55,-43.55 344.47,-30.74"/>
<polygon fill="midnightblue" stroke="midnightblue" points="346.44,-33.63 352.76,-25.13 342.52,-27.84 346.44,-33.63"/>
</g>
<!-- Node11 -->
<g id="node11" class="node">
<title>Node11</title>
<g id="a_node11"><a xlink:title=" ">
<polygon fill="none" stroke="#bfbfbf" points="433,-6 433,-25 546,-25 546,-6 433,-6"/>
<text text-anchor="middle" x="489.5" y="-13" font-family="Helvetica,sans-Serif" font-size="10.00">G4OpticalPhoton.hh</text>
</a>
</g>
</g>
<!-- Node10&#45;&gt;Node11 -->
<g id="edge10" class="edge">
<title>Node10&#45;&gt;Node11</title>
<path fill="none" stroke="midnightblue" d="M661.21,-72.87C626.27,-61.4 564.42,-41.09 525.26,-28.24"/>
<polygon fill="midnightblue" stroke="midnightblue" points="526.18,-24.86 515.59,-25.06 524,-31.51 526.18,-24.86"/>
</g>
<!-- Node12 -->
<g id="node12" class="node">
<title>Node12</title>
<g id="a_node12"><a xlink:title=" ">
<polygon fill="none" stroke="#bfbfbf" points="564.5,-6 564.5,-25 680.5,-25 680.5,-6 564.5,-6"/>
<text text-anchor="middle" x="622.5" y="-13" font-family="Helvetica,sans-Serif" font-size="10.00">G4OpticalSurface.hh</text>
</a>
</g>
</g>
<!-- Node10&#45;&gt;Node12 -->
<g id="edge11" class="edge">
<title>Node10&#45;&gt;Node12</title>
<path fill="none" stroke="midnightblue" d="M678.73,-72.73C668.4,-62.4 651.04,-45.04 638.33,-32.33"/>
<polygon fill="midnightblue" stroke="midnightblue" points="640.67,-29.72 631.13,-25.13 635.72,-34.67 640.67,-29.72"/>
</g>
<!-- Node13 -->
<g id="node13" class="node">
<title>Node13</title>
<g id="a_node13"><a xlink:title=" ">
<polygon fill="none" stroke="#bfbfbf" points="698.5,-6 698.5,-25 808.5,-25 808.5,-6 698.5,-6"/>
<text text-anchor="middle" x="753.5" y="-13" font-family="Helvetica,sans-Serif" font-size="10.00">G4RandomTools.hh</text>
</a>
</g>
</g>
<!-- Node10&#45;&gt;Node13 -->
<g id="edge12" class="edge">
<title>Node10&#45;&gt;Node13</title>
<path fill="none" stroke="midnightblue" d="M696.4,-72.73C706.89,-62.4 724.52,-45.04 737.42,-32.33"/>
<polygon fill="midnightblue" stroke="midnightblue" points="740.07,-34.64 744.74,-25.13 735.16,-29.65 740.07,-34.64"/>
</g>
<!-- Node14 -->
<g id="node14" class="node">
<title>Node14</title>
<g id="a_node14"><a xlink:title=" ">
<polygon fill="none" stroke="#bfbfbf" points="826.5,-6 826.5,-25 956.5,-25 956.5,-6 826.5,-6"/>
<text text-anchor="middle" x="891.5" y="-13" font-family="Helvetica,sans-Serif" font-size="10.00">G4VDiscreteProcess.hh</text>
</a>
</g>
</g>
<!-- Node10&#45;&gt;Node14 -->
<g id="edge13" class="edge">
<title>Node10&#45;&gt;Node14</title>
<path fill="none" stroke="midnightblue" d="M714.59,-72.87C750.66,-61.38 814.58,-41.01 854.91,-28.16"/>
<polygon fill="midnightblue" stroke="midnightblue" points="856.16,-31.43 864.62,-25.06 854.03,-24.76 856.16,-31.43"/>
</g>
<!-- Node15 -->
<g id="node15" class="node">
<title>Node15</title>
<g id="a_node15"><a xlink:title=" ">
<polygon fill="none" stroke="#bfbfbf" points="975,-6 975,-25 1132,-25 1132,-6 975,-6"/>
<text text-anchor="middle" x="1053.5" y="-13" font-family="Helvetica,sans-Serif" font-size="10.00">G4VUserTrackInformation.hh</text>
</a>
</g>
</g>
<!-- Node10&#45;&gt;Node15 -->
<g id="edge14" class="edge">
<title>Node10&#45;&gt;Node15</title>
<path fill="none" stroke="midnightblue" d="M735.72,-72.94C802.61,-61.06 923.38,-39.61 995.23,-26.85"/>
<polygon fill="midnightblue" stroke="midnightblue" points="996.23,-30.23 1005.46,-25.03 995,-23.33 996.23,-30.23"/>
</g>
<!-- Node16 -->
<g id="node16" class="node">
<title>Node16</title>
<g id="a_node16"><a xlink:title=" ">
<polygon fill="none" stroke="#bfbfbf" points="1191.5,-6 1191.5,-25 1281.5,-25 1281.5,-6 1191.5,-6"/>
<text text-anchor="middle" x="1236.5" y="-13" font-family="Helvetica,sans-Serif" font-size="10.00">G4AutoLock.hh</text>
</a>
</g>
</g>
<!-- Node10&#45;&gt;Node16 -->
<g id="edge15" class="edge">
<title>Node10&#45;&gt;Node16</title>
<path fill="none" stroke="midnightblue" d="M737.49,-72.99C750.79,-70.87 765.17,-68.72 778.5,-67 939.29,-46.24 980.64,-51.24 1141.5,-31 1154.3,-29.39 1168.04,-27.43 1180.97,-25.48"/>
<polygon fill="midnightblue" stroke="midnightblue" points="1181.79,-28.89 1191.14,-23.92 1180.73,-21.97 1181.79,-28.89"/>
</g>
<!-- Node17 -->
<g id="node17" class="node">
<title>Node17</title>
<g id="a_node17"><a xlink:title=" ">
<polygon fill="none" stroke="#bfbfbf" points="1315.5,-6 1315.5,-25 1409.5,-25 1409.5,-6 1315.5,-6"/>
<text text-anchor="middle" x="1362.5" y="-13" font-family="Helvetica,sans-Serif" font-size="10.00">G4Threading.hh</text>
</a>
</g>
</g>
<!-- Node10&#45;&gt;Node17 -->
<g id="edge16" class="edge">
<title>Node10&#45;&gt;Node17</title>
<path fill="none" stroke="midnightblue" d="M736.04,-72.96C749.73,-70.77 764.67,-68.58 778.5,-67 1005.13,-41.03 1064.44,-61.58 1290.5,-31 1298.41,-29.93 1306.75,-28.52 1314.85,-26.99"/>
<polygon fill="midnightblue" stroke="midnightblue" points="1315.77,-30.38 1324.91,-25.02 1314.43,-23.51 1315.77,-30.38"/>
</g>
<!-- Node24&#45;&gt;Node18 -->
<g id="edge25" class="edge">
<title>Node24&#45;&gt;Node18</title>
<path fill="none" stroke="midnightblue" d="M1226.12,-134.45C1181.62,-125.46 1109.62,-110.85 1047.5,-98 1041.44,-96.75 1035.09,-95.42 1028.79,-94.11"/>
<polygon fill="midnightblue" stroke="midnightblue" points="1029.5,-90.68 1018.99,-92.05 1028.06,-97.53 1029.5,-90.68"/>
</g>
<!-- Node25 -->
<g id="node25" class="node">
<title>Node25</title>
<g id="a_node25"><a xlink:title=" ">
<polygon fill="none" stroke="#bfbfbf" points="1056,-73 1056,-92 1129,-92 1129,-73 1056,-73"/>
<text text-anchor="middle" x="1092.5" y="-80" font-family="Helvetica,sans-Serif" font-size="10.00">G4Types.hh</text>
</a>
</g>
</g>
<!-- Node24&#45;&gt;Node25 -->
<g id="edge26" class="edge">
<title>Node24&#45;&gt;Node25</title>
<path fill="none" stroke="midnightblue" d="M1243.28,-134.48C1212.83,-124.18 1161.45,-106.81 1127.26,-95.25"/>
<polygon fill="midnightblue" stroke="midnightblue" points="1128.26,-91.9 1117.67,-92.01 1126.02,-98.53 1128.26,-91.9"/>
</g>
<!-- Node26 -->
<g id="node26" class="node">
<title>Node26</title>
<g id="a_node26"><a xlink:title=" ">
<polygon fill="none" stroke="#bfbfbf" points="1147.5,-73 1147.5,-92 1185.5,-92 1185.5,-73 1147.5,-73"/>
<text text-anchor="middle" x="1166.5" y="-80" font-family="Helvetica,sans-Serif" font-size="10.00">map</text>
</a>
</g>
</g>
<!-- Node24&#45;&gt;Node26 -->
<g id="edge27" class="edge">
<title>Node24&#45;&gt;Node26</title>
<path fill="none" stroke="midnightblue" d="M1253.89,-134.48C1237.15,-124.71 1209.5,-108.58 1189.78,-97.08"/>
<polygon fill="midnightblue" stroke="midnightblue" points="1191.49,-94.02 1181.09,-92.01 1187.96,-100.07 1191.49,-94.02"/>
</g>
<!-- Node27 -->
<g id="node27" class="node">
<title>Node27</title>
<g id="a_node27"><a xlink:title=" ">
<polygon fill="none" stroke="#bfbfbf" points="1204,-73 1204,-92 1265,-92 1265,-73 1204,-73"/>
<text text-anchor="middle" x="1234.5" y="-80" font-family="Helvetica,sans-Serif" font-size="10.00">TGraph.h</text>
</a>
</g>
</g>
<!-- Node24&#45;&gt;Node27 -->
<g id="edge28" class="edge">
<title>Node24&#45;&gt;Node27</title>
<path fill="none" stroke="midnightblue" d="M1263.63,-134.48C1258.63,-125.73 1250.71,-111.87 1244.39,-100.81"/>
<polygon fill="midnightblue" stroke="midnightblue" points="1247.36,-98.96 1239.36,-92.01 1241.28,-102.43 1247.36,-98.96"/>
</g>
<!-- Node28 -->
<g id="node28" class="node">
<title>Node28</title>
<g id="a_node28"><a xlink:title=" ">
<polygon fill="none" stroke="#bfbfbf" points="1283,-73 1283,-92 1336,-92 1336,-73 1283,-73"/>
<text text-anchor="middle" x="1309.5" y="-80" font-family="Helvetica,sans-Serif" font-size="10.00">TH2D.h</text>
</a>
</g>
</g>
<!-- Node24&#45;&gt;Node28 -->
<g id="edge29" class="edge">
<title>Node24&#45;&gt;Node28</title>
<path fill="none" stroke="midnightblue" d="M1274.37,-134.48C1280.46,-125.64 1290.14,-111.59 1297.8,-100.48"/>
<polygon fill="midnightblue" stroke="midnightblue" points="1300.84,-102.23 1303.64,-92.01 1295.08,-98.26 1300.84,-102.23"/>
</g>
<!-- Node31&#45;&gt;Node2 -->
<g id="edge40" class="edge">
<title>Node31&#45;&gt;Node2</title>
<path fill="none" stroke="midnightblue" d="M1184.57,-302.08C1177.65,-294.3 1167.43,-282.8 1159.05,-273.37"/>
<polygon fill="midnightblue" stroke="midnightblue" points="1161.54,-270.9 1152.28,-265.75 1156.31,-275.55 1161.54,-270.9"/>
</g>
<!-- Node31&#45;&gt;Node3 -->
<g id="edge33" class="edge">
<title>Node31&#45;&gt;Node3</title>
<path fill="none" stroke="midnightblue" d="M1154.55,-302.46C1127.37,-295.3 1090.59,-283.42 1061.5,-266 1039.62,-252.89 1018.76,-232.07 1005.6,-217.54"/>
<polygon fill="midnightblue" stroke="midnightblue" points="1008.02,-215 998.78,-209.81 1002.77,-219.63 1008.02,-215"/>
</g>
<!-- Node32 -->
<g id="node32" class="node">
<title>Node32</title>
<g id="a_node32"><a xlink:href="_o_m_sim_hit_manager_8hh.html" target="_top" xlink:title="Defines structures and classes related to optical module photon hit management.">
<polygon fill="none" stroke="black" points="1338,-190.5 1338,-209.5 1461,-209.5 1461,-190.5 1338,-190.5"/>
<text text-anchor="middle" x="1399.5" y="-197.5" font-family="Helvetica,sans-Serif" font-size="10.00">OMSimHitManager.hh</text>
</a>
</g>
</g>
<!-- Node31&#45;&gt;Node32 -->
<g id="edge34" class="edge">
<title>Node31&#45;&gt;Node32</title>
<path fill="none" stroke="midnightblue" d="M1208.74,-302.37C1244.72,-283.25 1331.32,-237.23 1374.36,-214.36"/>
<polygon fill="midnightblue" stroke="midnightblue" points="1376.14,-217.37 1383.33,-209.59 1372.86,-211.19 1376.14,-217.37"/>
</g>
<!-- Node32&#45;&gt;Node16 -->
<g id="edge38" class="edge">
<title>Node32&#45;&gt;Node16</title>
<path fill="none" stroke="midnightblue" d="M1396.87,-190.32C1388.77,-164.05 1363.63,-85.98 1345.5,-67 1327.8,-48.48 1302,-36.11 1279.94,-28.24"/>
<polygon fill="midnightblue" stroke="midnightblue" points="1281.02,-24.92 1270.43,-25.04 1278.79,-31.55 1281.02,-24.92"/>
</g>
<!-- Node32&#45;&gt;Node17 -->
<g id="edge39" class="edge">
<title>Node32&#45;&gt;Node17</title>
<path fill="none" stroke="midnightblue" d="M1398.57,-190.26C1396.2,-168.98 1389.34,-112.84 1378.5,-67 1375.95,-56.21 1372.25,-44.37 1369.05,-34.88"/>
<polygon fill="midnightblue" stroke="midnightblue" points="1372.32,-33.63 1365.74,-25.33 1365.71,-35.92 1372.32,-33.63"/>
</g>
<!-- Node32&#45;&gt;Node24 -->
<g id="edge35" class="edge">
<title>Node32&#45;&gt;Node24</title>
<path fill="none" stroke="midnightblue" d="M1378.74,-190.44C1357.18,-181.56 1323.24,-167.56 1298.71,-157.45"/>
<polygon fill="midnightblue" stroke="midnightblue" points="1299.74,-154.09 1289.16,-153.52 1297.07,-160.56 1299.74,-154.09"/>
</g>
<!-- Node33 -->
<g id="node33" class="node">
<title>Node33</title>
<g id="a_node33"><a xlink:title=" ">
<polygon fill="none" stroke="#bfbfbf" points="1431,-134.5 1431,-153.5 1534,-153.5 1534,-134.5 1431,-134.5"/>
<text text-anchor="middle" x="1482.5" y="-141.5" font-family="Helvetica,sans-Serif" font-size="10.00">G4ThreeVector.hh</text>
</a>
</g>
</g>
<!-- Node32&#45;&gt;Node33 -->
<g id="edge36" class="edge">
<title>Node32&#45;&gt;Node33</title>
<path fill="none" stroke="midnightblue" d="M1412.84,-190.32C1425.66,-181.98 1445.28,-169.21 1460.44,-159.35"/>
<polygon fill="midnightblue" stroke="midnightblue" points="1462.72,-162.04 1469.2,-153.65 1458.91,-156.17 1462.72,-162.04"/>
</g>
<!-- Node34 -->
<g id="node34" class="node">
<title>Node34</title>
<g id="a_node34"><a xlink:title=" ">
<polygon fill="none" stroke="#bfbfbf" points="1552,-134.5 1552,-153.5 1607,-153.5 1607,-134.5 1552,-134.5"/>
<text text-anchor="middle" x="1579.5" y="-141.5" font-family="Helvetica,sans-Serif" font-size="10.00">fstream</text>
</a>
</g>
</g>
<!-- Node32&#45;&gt;Node34 -->
<g id="edge37" class="edge">
<title>Node32&#45;&gt;Node34</title>
<path fill="none" stroke="midnightblue" d="M1428.02,-190.44C1458.84,-181.2 1508.07,-166.43 1542,-156.25"/>
<polygon fill="midnightblue" stroke="midnightblue" points="1543.42,-159.48 1552,-153.25 1541.41,-152.77 1543.42,-159.48"/>
</g>
</g>
</svg>
