<?xml version="1.0" encoding="UTF-8" standalone="no"?>
<!DOCTYPE svg PUBLIC "-//W3C//DTD SVG 1.1//EN"
 "http://www.w3.org/Graphics/SVG/1.1/DTD/svg11.dtd">
<!-- Generated by graphviz version 2.43.0 (0)
 -->
<!-- Title: OMSimSensitiveDetector.cc Pages: 1 -->
<svg width="2640pt" height="263pt"
 viewBox="0.00 0.00 2640.00 263.00" xmlns="http://www.w3.org/2000/svg" xmlns:xlink="http://www.w3.org/1999/xlink">
<g id="graph0" class="graph" transform="scale(1 1) rotate(0) translate(4 259)">
<title>OMSimSensitiveDetector.cc</title>
<polygon fill="white" stroke="transparent" points="-4,4 -4,-259 2636,-259 2636,4 -4,4"/>
<!-- Node1 -->
<g id="node1" class="node">
<title>Node1</title>
<g id="a_node1"><a xlink:title=" ">
<polygon fill="#bfbfbf" stroke="black" points="1365.5,-235.5 1365.5,-254.5 1517.5,-254.5 1517.5,-235.5 1365.5,-235.5"/>
<text text-anchor="middle" x="1441.5" y="-242.5" font-family="Helvetica,sans-Serif" font-size="10.00">OMSimSensitiveDetector.cc</text>
</a>
</g>
</g>
<!-- Node2 -->
<g id="node2" class="node">
<title>Node2</title>
<g id="a_node2"><a xlink:href="_o_m_sim_sensitive_detector_8hh.html" target="_top" xlink:title=" ">
<polygon fill="white" stroke="black" points="322,-123.5 322,-142.5 475,-142.5 475,-123.5 322,-123.5"/>
<text text-anchor="middle" x="398.5" y="-130.5" font-family="Helvetica,sans-Serif" font-size="10.00">OMSimSensitiveDetector.hh</text>
</a>
</g>
</g>
<!-- Node1&#45;&gt;Node2 -->
<g id="edge1" class="edge">
<title>Node1&#45;&gt;Node2</title>
<path fill="none" stroke="midnightblue" d="M1365.4,-242.67C1137.15,-238.42 471.68,-223.93 432.5,-199 416.25,-188.66 407.33,-167.84 402.75,-152.54"/>
<polygon fill="midnightblue" stroke="midnightblue" points="406.07,-151.39 400.15,-142.6 399.3,-153.16 406.07,-151.39"/>
</g>
<!-- Node5 -->
<g id="node5" class="node">
<title>Node5</title>
<g id="a_node5"><a xlink:href="_o_m_sim_p_m_t_response_8hh.html" target="_top" xlink:title="Provides simulation for PMT response. This class is responsible for transforming hits on photocathode...">
<polygon fill="white" stroke="black" points="504,-62 504,-81 639,-81 639,-62 504,-62"/>
<text text-anchor="middle" x="571.5" y="-69" font-family="Helvetica,sans-Serif" font-size="10.00">OMSimPMTResponse.hh</text>
</a>
</g>
</g>
<!-- Node1&#45;&gt;Node5 -->
<g id="edge24" class="edge">
<title>Node1&#45;&gt;Node5</title>
<path fill="none" stroke="midnightblue" d="M1365.36,-244.7C1171.67,-245.82 671.3,-244.24 612.5,-199 579.05,-173.26 572.47,-119.78 571.44,-91.3"/>
<polygon fill="midnightblue" stroke="midnightblue" points="574.93,-91.03 571.27,-81.09 567.93,-91.14 574.93,-91.03"/>
</g>
<!-- Node13 -->
<g id="node13" class="node">
<title>Node13</title>
<g id="a_node13"><a xlink:title=" ">
<polygon fill="white" stroke="#bfbfbf" points="804,-179.5 804,-198.5 863,-198.5 863,-179.5 804,-179.5"/>
<text text-anchor="middle" x="833.5" y="-186.5" font-family="Helvetica,sans-Serif" font-size="10.00">G4ios.hh</text>
</a>
</g>
</g>
<!-- Node1&#45;&gt;Node13 -->
<g id="edge12" class="edge">
<title>Node1&#45;&gt;Node13</title>
<path fill="none" stroke="midnightblue" d="M1365.16,-241.55C1257.55,-237.29 1055.05,-226.37 873.24,-198.87"/>
<polygon fill="midnightblue" stroke="midnightblue" points="873.64,-195.39 863.22,-197.34 872.58,-202.31 873.64,-195.39"/>
</g>
<!-- Node14 -->
<g id="node14" class="node">
<title>Node14</title>
<g id="a_node14"><a xlink:title=" ">
<polygon fill="white" stroke="#bfbfbf" points="881.5,-179.5 881.5,-198.5 997.5,-198.5 997.5,-179.5 881.5,-179.5"/>
<text text-anchor="middle" x="939.5" y="-186.5" font-family="Helvetica,sans-Serif" font-size="10.00">G4LogicalVolume.hh</text>
</a>
</g>
</g>
<!-- Node1&#45;&gt;Node14 -->
<g id="edge13" class="edge">
<title>Node1&#45;&gt;Node14</title>
<path fill="none" stroke="midnightblue" d="M1365.2,-236.82C1280.49,-228.68 1139.42,-214.66 1007.85,-199.13"/>
<polygon fill="midnightblue" stroke="midnightblue" points="1007.93,-195.61 997.59,-197.91 1007.11,-202.57 1007.93,-195.61"/>
</g>
<!-- Node15 -->
<g id="node15" class="node">
<title>Node15</title>
<g id="a_node15"><a xlink:title=" ">
<polygon fill="white" stroke="#bfbfbf" points="1015.5,-179.5 1015.5,-198.5 1143.5,-198.5 1143.5,-179.5 1015.5,-179.5"/>
<text text-anchor="middle" x="1079.5" y="-186.5" font-family="Helvetica,sans-Serif" font-size="10.00">G4ParticleDefinition.hh</text>
</a>
</g>
</g>
<!-- Node1&#45;&gt;Node15 -->
<g id="edge14" class="edge">
<title>Node1&#45;&gt;Node15</title>
<path fill="none" stroke="midnightblue" d="M1384.14,-235.44C1319.67,-225.83 1215.1,-210.23 1146.81,-200.04"/>
<polygon fill="midnightblue" stroke="midnightblue" points="1147,-196.53 1136.59,-198.52 1145.97,-203.45 1147,-196.53"/>
</g>
<!-- Node16 -->
<g id="node16" class="node">
<title>Node16</title>
<g id="a_node16"><a xlink:title=" ">
<polygon fill="white" stroke="#bfbfbf" points="1162,-179.5 1162,-198.5 1271,-198.5 1271,-179.5 1162,-179.5"/>
<text text-anchor="middle" x="1216.5" y="-186.5" font-family="Helvetica,sans-Serif" font-size="10.00">G4ParticleTypes.hh</text>
</a>
</g>
</g>
<!-- Node1&#45;&gt;Node16 -->
<g id="edge15" class="edge">
<title>Node1&#45;&gt;Node16</title>
<path fill="none" stroke="midnightblue" d="M1405.85,-235.44C1366.84,-226.08 1304.23,-211.06 1261.78,-200.87"/>
<polygon fill="midnightblue" stroke="midnightblue" points="1262.53,-197.45 1251.99,-198.52 1260.89,-204.25 1262.53,-197.45"/>
</g>
<!-- Node17 -->
<g id="node17" class="node">
<title>Node17</title>
<g id="a_node17"><a xlink:title=" ">
<polygon fill="white" stroke="#bfbfbf" points="1289,-179.5 1289,-198.5 1390,-198.5 1390,-179.5 1289,-179.5"/>
<text text-anchor="middle" x="1339.5" y="-186.5" font-family="Helvetica,sans-Serif" font-size="10.00">G4SDManager.hh</text>
</a>
</g>
</g>
<!-- Node1&#45;&gt;Node17 -->
<g id="edge16" class="edge">
<title>Node1&#45;&gt;Node17</title>
<path fill="none" stroke="midnightblue" d="M1425.11,-235.32C1408.83,-226.7 1383.63,-213.36 1364.78,-203.39"/>
<polygon fill="midnightblue" stroke="midnightblue" points="1366.32,-200.24 1355.85,-198.65 1363.05,-206.43 1366.32,-200.24"/>
</g>
<!-- Node18 -->
<g id="node18" class="node">
<title>Node18</title>
<g id="a_node18"><a xlink:title=" ">
<polygon fill="white" stroke="#bfbfbf" points="1408,-179.5 1408,-198.5 1475,-198.5 1475,-179.5 1408,-179.5"/>
<text text-anchor="middle" x="1441.5" y="-186.5" font-family="Helvetica,sans-Serif" font-size="10.00">G4Step.hh</text>
</a>
</g>
</g>
<!-- Node1&#45;&gt;Node18 -->
<g id="edge17" class="edge">
<title>Node1&#45;&gt;Node18</title>
<path fill="none" stroke="midnightblue" d="M1441.5,-235.08C1441.5,-228.01 1441.5,-217.86 1441.5,-208.99"/>
<polygon fill="midnightblue" stroke="midnightblue" points="1445,-208.75 1441.5,-198.75 1438,-208.75 1445,-208.75"/>
</g>
<!-- Node19 -->
<g id="node19" class="node">
<title>Node19</title>
<g id="a_node19"><a xlink:title=" ">
<polygon fill="white" stroke="#bfbfbf" points="1493.5,-179.5 1493.5,-198.5 1621.5,-198.5 1621.5,-179.5 1493.5,-179.5"/>
<text text-anchor="middle" x="1557.5" y="-186.5" font-family="Helvetica,sans-Serif" font-size="10.00">G4TouchableHistory.hh</text>
</a>
</g>
</g>
<!-- Node1&#45;&gt;Node19 -->
<g id="edge18" class="edge">
<title>Node1&#45;&gt;Node19</title>
<path fill="none" stroke="midnightblue" d="M1459.88,-235.44C1478.72,-226.68 1508.23,-212.94 1529.88,-202.86"/>
<polygon fill="midnightblue" stroke="midnightblue" points="1531.62,-205.91 1539.21,-198.52 1528.66,-199.56 1531.62,-205.91"/>
</g>
<!-- Node20 -->
<g id="node20" class="node">
<title>Node20</title>
<g id="a_node20"><a xlink:title=" ">
<polygon fill="white" stroke="#bfbfbf" points="1640,-179.5 1640,-198.5 1711,-198.5 1711,-179.5 1640,-179.5"/>
<text text-anchor="middle" x="1675.5" y="-186.5" font-family="Helvetica,sans-Serif" font-size="10.00">G4Track.hh</text>
</a>
</g>
</g>
<!-- Node1&#45;&gt;Node20 -->
<g id="edge19" class="edge">
<title>Node1&#45;&gt;Node20</title>
<path fill="none" stroke="midnightblue" d="M1478.58,-235.44C1519.59,-225.98 1585.69,-210.73 1629.85,-200.54"/>
<polygon fill="midnightblue" stroke="midnightblue" points="1630.79,-203.91 1639.75,-198.25 1629.22,-197.09 1630.79,-203.91"/>
</g>
<!-- Node21 -->
<g id="node21" class="node">
<title>Node21</title>
<g id="a_node21"><a xlink:title=" ">
<polygon fill="white" stroke="#bfbfbf" points="1729,-179.5 1729,-198.5 1858,-198.5 1858,-179.5 1729,-179.5"/>
<text text-anchor="middle" x="1793.5" y="-186.5" font-family="Helvetica,sans-Serif" font-size="10.00">G4VPhysicalVolume.hh</text>
</a>
</g>
</g>
<!-- Node1&#45;&gt;Node21 -->
<g id="edge20" class="edge">
<title>Node1&#45;&gt;Node21</title>
<path fill="none" stroke="midnightblue" d="M1497.28,-235.44C1559.97,-225.83 1661.65,-210.23 1728.05,-200.04"/>
<polygon fill="midnightblue" stroke="midnightblue" points="1728.63,-203.49 1737.99,-198.52 1727.57,-196.57 1728.63,-203.49"/>
</g>
<!-- Node22 -->
<g id="node22" class="node">
<title>Node22</title>
<g id="a_node22"><a xlink:title=" ">
<polygon fill="white" stroke="#bfbfbf" points="1876,-179.5 1876,-198.5 1977,-198.5 1977,-179.5 1876,-179.5"/>
<text text-anchor="middle" x="1926.5" y="-186.5" font-family="Helvetica,sans-Serif" font-size="10.00">G4VTouchable.hh</text>
</a>
</g>
</g>
<!-- Node1&#45;&gt;Node22 -->
<g id="edge21" class="edge">
<title>Node1&#45;&gt;Node22</title>
<path fill="none" stroke="midnightblue" d="M1517.81,-237.01C1600.98,-229.15 1738.24,-215.47 1866.02,-199.14"/>
<polygon fill="midnightblue" stroke="midnightblue" points="1866.52,-202.61 1875.99,-197.86 1865.63,-195.66 1866.52,-202.61"/>
</g>
<!-- Node23 -->
<g id="node23" class="node">
<title>Node23</title>
<g id="a_node23"><a xlink:title=" ">
<polygon fill="white" stroke="#bfbfbf" points="1995,-179.5 1995,-198.5 2120,-198.5 2120,-179.5 1995,-179.5"/>
<text text-anchor="middle" x="2057.5" y="-186.5" font-family="Helvetica,sans-Serif" font-size="10.00">OMSimEventAction.hh</text>
</a>
</g>
</g>
<!-- Node1&#45;&gt;Node23 -->
<g id="edge22" class="edge">
<title>Node1&#45;&gt;Node23</title>
<path fill="none" stroke="midnightblue" d="M1517.87,-238.75C1621.36,-231.4 1812.16,-217.02 1984.77,-199.14"/>
<polygon fill="midnightblue" stroke="midnightblue" points="1985.21,-202.62 1994.8,-198.1 1984.49,-195.65 1985.21,-202.62"/>
</g>
<!-- Node24 -->
<g id="node24" class="node">
<title>Node24</title>
<g id="a_node24"><a xlink:title=" ">
<polygon fill="white" stroke="#bfbfbf" points="2138,-179.5 2138,-198.5 2251,-198.5 2251,-179.5 2138,-179.5"/>
<text text-anchor="middle" x="2194.5" y="-186.5" font-family="Helvetica,sans-Serif" font-size="10.00">G4OpticalPhoton.hh</text>
</a>
</g>
</g>
<!-- Node1&#45;&gt;Node24 -->
<g id="edge23" class="edge">
<title>Node1&#45;&gt;Node24</title>
<path fill="none" stroke="midnightblue" d="M1517.75,-240.82C1642.96,-235.19 1900.18,-221.96 2127.68,-199.12"/>
<polygon fill="midnightblue" stroke="midnightblue" points="2128.21,-202.58 2137.81,-198.1 2127.51,-195.62 2128.21,-202.58"/>
</g>
<!-- Node25 -->
<g id="node25" class="node">
<title>Node25</title>
<g id="a_node25"><a xlink:href="_o_m_sim_command_args_table_8hh.html" target="_top" xlink:title="Definition of the OMSimCommandArgsTable singleton class, which controls user args.">
<polygon fill="white" stroke="black" points="621.5,-179.5 621.5,-198.5 785.5,-198.5 785.5,-179.5 621.5,-179.5"/>
<text text-anchor="middle" x="703.5" y="-186.5" font-family="Helvetica,sans-Serif" font-size="10.00">OMSimCommandArgsTable.hh</text>
</a>
</g>
</g>
<!-- Node1&#45;&gt;Node25 -->
<g id="edge25" class="edge">
<title>Node1&#45;&gt;Node25</title>
<path fill="none" stroke="midnightblue" d="M1365.37,-239.39C1246.4,-232.03 1008.93,-216.72 795.87,-199.01"/>
<polygon fill="midnightblue" stroke="midnightblue" points="796,-195.51 785.75,-198.16 795.42,-202.48 796,-195.51"/>
</g>
<!-- Node34 -->
<g id="node34" class="node">
<title>Node34</title>
<g id="a_node34"><a xlink:href="_o_m_sim_hit_manager_8hh.html" target="_top" xlink:title="Defines structures and classes related to optical module photon hit management.">
<polygon fill="white" stroke="black" points="442,-179.5 442,-198.5 565,-198.5 565,-179.5 442,-179.5"/>
<text text-anchor="middle" x="503.5" y="-186.5" font-family="Helvetica,sans-Serif" font-size="10.00">OMSimHitManager.hh</text>
</a>
</g>
</g>
<!-- Node1&#45;&gt;Node34 -->
<g id="edge34" class="edge">
<title>Node1&#45;&gt;Node34</title>
<path fill="none" stroke="midnightblue" d="M1365.28,-241.7C1214.84,-236.8 869.17,-223.69 579.5,-199 578.2,-198.89 576.88,-198.77 575.56,-198.65"/>
<polygon fill="midnightblue" stroke="midnightblue" points="575.56,-195.14 565.27,-197.66 574.88,-202.1 575.56,-195.14"/>
</g>
<!-- Node35 -->
<g id="node35" class="node">
<title>Node35</title>
<g id="a_node35"><a xlink:title=" ">
<polygon fill="white" stroke="#bfbfbf" points="2269,-179.5 2269,-198.5 2358,-198.5 2358,-179.5 2269,-179.5"/>
<text text-anchor="middle" x="2313.5" y="-186.5" font-family="Helvetica,sans-Serif" font-size="10.00">G4VProcess.hh</text>
</a>
</g>
</g>
<!-- Node1&#45;&gt;Node35 -->
<g id="edge39" class="edge">
<title>Node1&#45;&gt;Node35</title>
<path fill="none" stroke="midnightblue" d="M1517.67,-242.69C1660.92,-239.61 1980.34,-229.74 2258.44,-199.11"/>
<polygon fill="midnightblue" stroke="midnightblue" points="2259.18,-202.55 2268.73,-197.97 2258.41,-195.6 2259.18,-202.55"/>
</g>
<!-- Node36 -->
<g id="node36" class="node">
<title>Node36</title>
<g id="a_node36"><a xlink:title=" ">
<polygon fill="white" stroke="#bfbfbf" points="2376,-179.5 2376,-198.5 2489,-198.5 2489,-179.5 2376,-179.5"/>
<text text-anchor="middle" x="2432.5" y="-186.5" font-family="Helvetica,sans-Serif" font-size="10.00">G4ProcessVector.hh</text>
</a>
</g>
</g>
<!-- Node1&#45;&gt;Node36 -->
<g id="edge40" class="edge">
<title>Node1&#45;&gt;Node36</title>
<path fill="none" stroke="midnightblue" d="M1517.58,-242.59C1674.32,-239.2 2044.73,-228.61 2365.39,-199.12"/>
<polygon fill="midnightblue" stroke="midnightblue" points="2366.18,-202.56 2375.81,-198.15 2365.53,-195.59 2366.18,-202.56"/>
</g>
<!-- Node37 -->
<g id="node37" class="node">
<title>Node37</title>
<g id="a_node37"><a xlink:title=" ">
<polygon fill="white" stroke="#bfbfbf" points="2507,-179.5 2507,-198.5 2632,-198.5 2632,-179.5 2507,-179.5"/>
<text text-anchor="middle" x="2569.5" y="-186.5" font-family="Helvetica,sans-Serif" font-size="10.00">G4ProcessManager.hh</text>
</a>
</g>
</g>
<!-- Node1&#45;&gt;Node37 -->
<g id="edge41" class="edge">
<title>Node1&#45;&gt;Node37</title>
<path fill="none" stroke="midnightblue" d="M1517.58,-242.94C1690,-240.06 2123.84,-230.18 2496.63,-199.09"/>
<polygon fill="midnightblue" stroke="midnightblue" points="2497.14,-202.56 2506.81,-198.23 2496.55,-195.58 2497.14,-202.56"/>
</g>
<!-- Node3 -->
<g id="node3" class="node">
<title>Node3</title>
<g id="a_node3"><a xlink:title=" ">
<polygon fill="white" stroke="#bfbfbf" points="65.5,-62 65.5,-81 203.5,-81 203.5,-62 65.5,-62"/>
<text text-anchor="middle" x="134.5" y="-69" font-family="Helvetica,sans-Serif" font-size="10.00">G4VSensitiveDetector.hh</text>
</a>
</g>
</g>
<!-- Node2&#45;&gt;Node3 -->
<g id="edge2" class="edge">
<title>Node2&#45;&gt;Node3</title>
<path fill="none" stroke="midnightblue" d="M360.68,-123.48C313.63,-112.87 233.27,-94.76 182.08,-83.22"/>
<polygon fill="midnightblue" stroke="midnightblue" points="182.78,-79.79 172.25,-81.01 181.24,-86.62 182.78,-79.79"/>
</g>
<!-- Node4 -->
<g id="node4" class="node">
<title>Node4</title>
<g id="a_node4"><a xlink:title=" ">
<polygon fill="white" stroke="#bfbfbf" points="383,-62 383,-81 486,-81 486,-62 383,-62"/>
<text text-anchor="middle" x="434.5" y="-69" font-family="Helvetica,sans-Serif" font-size="10.00">G4ThreeVector.hh</text>
</a>
</g>
</g>
<!-- Node2&#45;&gt;Node4 -->
<g id="edge3" class="edge">
<title>Node2&#45;&gt;Node4</title>
<path fill="none" stroke="midnightblue" d="M403.66,-123.48C408.95,-114.73 417.34,-100.87 424.03,-89.81"/>
<polygon fill="midnightblue" stroke="midnightblue" points="427.17,-91.38 429.35,-81.01 421.18,-87.75 427.17,-91.38"/>
</g>
<!-- Node2&#45;&gt;Node5 -->
<g id="edge4" class="edge">
<title>Node2&#45;&gt;Node5</title>
<path fill="none" stroke="midnightblue" d="M423.29,-123.48C453.09,-113.22 503.29,-95.96 536.9,-84.4"/>
<polygon fill="midnightblue" stroke="midnightblue" points="538.44,-87.57 546.76,-81.01 536.16,-80.95 538.44,-87.57"/>
</g>
<!-- Node11 -->
<g id="node11" class="node">
<title>Node11</title>
<g id="a_node11"><a xlink:title=" ">
<polygon fill="white" stroke="#bfbfbf" points="222,-62 222,-81 365,-81 365,-62 222,-62"/>
<text text-anchor="middle" x="293.5" y="-69" font-family="Helvetica,sans-Serif" font-size="10.00">G4OpBoundaryProcess.hh</text>
</a>
</g>
</g>
<!-- Node2&#45;&gt;Node11 -->
<g id="edge10" class="edge">
<title>Node2&#45;&gt;Node11</title>
<path fill="none" stroke="midnightblue" d="M383.46,-123.48C366.22,-113.71 337.76,-97.58 317.47,-86.08"/>
<polygon fill="midnightblue" stroke="midnightblue" points="318.94,-82.89 308.52,-81.01 315.49,-88.98 318.94,-82.89"/>
</g>
<!-- Node12 -->
<g id="node12" class="node">
<title>Node12</title>
<g id="a_node12"><a xlink:title=" ">
<polygon fill="white" stroke="#bfbfbf" points="0,-62 0,-81 47,-81 47,-62 0,-62"/>
<text text-anchor="middle" x="23.5" y="-69" font-family="Helvetica,sans-Serif" font-size="10.00">vector</text>
</a>
</g>
</g>
<!-- Node2&#45;&gt;Node12 -->
<g id="edge11" class="edge">
<title>Node2&#45;&gt;Node12</title>
<path fill="none" stroke="midnightblue" d="M321.87,-128.13C251.73,-123.13 145.61,-111.89 56.5,-87 54.35,-86.4 52.15,-85.68 49.96,-84.89"/>
<polygon fill="midnightblue" stroke="midnightblue" points="51.21,-81.62 40.63,-81.12 48.59,-88.11 51.21,-81.62"/>
</g>
<!-- Node6 -->
<g id="node6" class="node">
<title>Node6</title>
<g id="a_node6"><a xlink:title=" ">
<polygon fill="white" stroke="#bfbfbf" points="324,-0.5 324,-19.5 443,-19.5 443,-0.5 324,-0.5"/>
<text text-anchor="middle" x="383.5" y="-7.5" font-family="Helvetica,sans-Serif" font-size="10.00">G4SystemOfUnits.hh</text>
</a>
</g>
</g>
<!-- Node5&#45;&gt;Node6 -->
<g id="edge5" class="edge">
<title>Node5&#45;&gt;Node6</title>
<path fill="none" stroke="midnightblue" d="M544.56,-61.98C511.9,-51.64 456.68,-34.16 420.16,-22.6"/>
<polygon fill="midnightblue" stroke="midnightblue" points="420.98,-19.19 410.39,-19.51 418.86,-25.86 420.98,-19.19"/>
</g>
<!-- Node7 -->
<g id="node7" class="node">
<title>Node7</title>
<g id="a_node7"><a xlink:title=" ">
<polygon fill="white" stroke="#bfbfbf" points="461,-0.5 461,-19.5 534,-19.5 534,-0.5 461,-0.5"/>
<text text-anchor="middle" x="497.5" y="-7.5" font-family="Helvetica,sans-Serif" font-size="10.00">G4Types.hh</text>
</a>
</g>
</g>
<!-- Node5&#45;&gt;Node7 -->
<g id="edge6" class="edge">
<title>Node5&#45;&gt;Node7</title>
<path fill="none" stroke="midnightblue" d="M560.9,-61.98C549.25,-52.61 530.31,-37.38 516.17,-26.01"/>
<polygon fill="midnightblue" stroke="midnightblue" points="518.07,-23.05 508.08,-19.51 513.68,-28.5 518.07,-23.05"/>
</g>
<!-- Node8 -->
<g id="node8" class="node">
<title>Node8</title>
<g id="a_node8"><a xlink:title=" ">
<polygon fill="white" stroke="#bfbfbf" points="552.5,-0.5 552.5,-19.5 590.5,-19.5 590.5,-0.5 552.5,-0.5"/>
<text text-anchor="middle" x="571.5" y="-7.5" font-family="Helvetica,sans-Serif" font-size="10.00">map</text>
</a>
</g>
</g>
<!-- Node5&#45;&gt;Node8 -->
<g id="edge7" class="edge">
<title>Node5&#45;&gt;Node8</title>
<path fill="none" stroke="midnightblue" d="M571.5,-61.98C571.5,-53.58 571.5,-40.48 571.5,-29.66"/>
<polygon fill="midnightblue" stroke="midnightblue" points="575,-29.51 571.5,-19.51 568,-29.51 575,-29.51"/>
</g>
<!-- Node9 -->
<g id="node9" class="node">
<title>Node9</title>
<g id="a_node9"><a xlink:title=" ">
<polygon fill="white" stroke="#bfbfbf" points="609,-0.5 609,-19.5 670,-19.5 670,-0.5 609,-0.5"/>
<text text-anchor="middle" x="639.5" y="-7.5" font-family="Helvetica,sans-Serif" font-size="10.00">TGraph.h</text>
</a>
</g>
</g>
<!-- Node5&#45;&gt;Node9 -->
<g id="edge8" class="edge">
<title>Node5&#45;&gt;Node9</title>
<path fill="none" stroke="midnightblue" d="M581.24,-61.98C591.85,-52.7 609.02,-37.67 621.98,-26.33"/>
<polygon fill="midnightblue" stroke="midnightblue" points="624.55,-28.73 629.78,-19.51 619.94,-23.46 624.55,-28.73"/>
</g>
<!-- Node10 -->
<g id="node10" class="node">
<title>Node10</title>
<g id="a_node10"><a xlink:title=" ">
<polygon fill="white" stroke="#bfbfbf" points="688,-0.5 688,-19.5 741,-19.5 741,-0.5 688,-0.5"/>
<text text-anchor="middle" x="714.5" y="-7.5" font-family="Helvetica,sans-Serif" font-size="10.00">TH2D.h</text>
</a>
</g>
</g>
<!-- Node5&#45;&gt;Node10 -->
<g id="edge9" class="edge">
<title>Node5&#45;&gt;Node10</title>
<path fill="none" stroke="midnightblue" d="M591.99,-61.98C616.31,-51.86 657.05,-34.9 684.82,-23.35"/>
<polygon fill="midnightblue" stroke="midnightblue" points="686.16,-26.58 694.05,-19.51 683.47,-20.12 686.16,-26.58"/>
</g>
<!-- Node26 -->
<g id="node26" class="node">
<title>Node26</title>
<g id="a_node26"><a xlink:href="_o_m_sim_logger_8hh.html" target="_top" xlink:title=" ">
<polygon fill="white" stroke="black" points="695,-123.5 695,-142.5 794,-142.5 794,-123.5 695,-123.5"/>
<text text-anchor="middle" x="744.5" y="-130.5" font-family="Helvetica,sans-Serif" font-size="10.00">OMSimLogger.hh</text>
</a>
</g>
</g>
<!-- Node25&#45;&gt;Node26 -->
<g id="edge26" class="edge">
<title>Node25&#45;&gt;Node26</title>
<path fill="none" stroke="midnightblue" d="M710.27,-179.08C716.06,-171.46 724.56,-160.26 731.64,-150.94"/>
<polygon fill="midnightblue" stroke="midnightblue" points="734.6,-152.83 737.86,-142.75 729.02,-148.6 734.6,-152.83"/>
</g>
<!-- Node31 -->
<g id="node31" class="node">
<title>Node31</title>
<g id="a_node31"><a xlink:title=" ">
<polygon fill="white" stroke="#bfbfbf" points="622,-123.5 622,-142.5 677,-142.5 677,-123.5 622,-123.5"/>
<text text-anchor="middle" x="649.5" y="-130.5" font-family="Helvetica,sans-Serif" font-size="10.00">fstream</text>
</a>
</g>
</g>
<!-- Node25&#45;&gt;Node31 -->
<g id="edge31" class="edge">
<title>Node25&#45;&gt;Node31</title>
<path fill="none" stroke="midnightblue" d="M694.58,-179.08C686.72,-171.22 675.07,-159.57 665.58,-150.08"/>
<polygon fill="midnightblue" stroke="midnightblue" points="667.8,-147.35 658.25,-142.75 662.85,-152.3 667.8,-147.35"/>
</g>
<!-- Node32 -->
<g id="node32" class="node">
<title>Node32</title>
<g id="a_node32"><a xlink:title=" ">
<polygon fill="white" stroke="#bfbfbf" points="812.5,-123.5 812.5,-142.5 896.5,-142.5 896.5,-123.5 812.5,-123.5"/>
<text text-anchor="middle" x="854.5" y="-130.5" font-family="Helvetica,sans-Serif" font-size="10.00">boost/any.hpp</text>
</a>
</g>
</g>
<!-- Node25&#45;&gt;Node32 -->
<g id="edge32" class="edge">
<title>Node25&#45;&gt;Node32</title>
<path fill="none" stroke="midnightblue" d="M727.43,-179.44C752.72,-170.4 792.8,-156.06 821.18,-145.92"/>
<polygon fill="midnightblue" stroke="midnightblue" points="822.45,-149.18 830.69,-142.52 820.09,-142.59 822.45,-149.18"/>
</g>
<!-- Node33 -->
<g id="node33" class="node">
<title>Node33</title>
<g id="a_node33"><a xlink:title=" ">
<polygon fill="white" stroke="#bfbfbf" points="914.5,-123.5 914.5,-142.5 982.5,-142.5 982.5,-123.5 914.5,-123.5"/>
<text text-anchor="middle" x="948.5" y="-130.5" font-family="Helvetica,sans-Serif" font-size="10.00">sys/time.h</text>
</a>
</g>
</g>
<!-- Node25&#45;&gt;Node33 -->
<g id="edge33" class="edge">
<title>Node25&#45;&gt;Node33</title>
<path fill="none" stroke="midnightblue" d="M742.32,-179.44C786.35,-169.74 858.01,-153.95 904.19,-143.77"/>
<polygon fill="midnightblue" stroke="midnightblue" points="905.2,-147.13 914.21,-141.56 903.69,-140.29 905.2,-147.13"/>
</g>
<!-- Node27 -->
<g id="node27" class="node">
<title>Node27</title>
<g id="a_node27"><a xlink:title=" ">
<polygon fill="white" stroke="#bfbfbf" points="774,-62 774,-81 867,-81 867,-62 774,-62"/>
<text text-anchor="middle" x="820.5" y="-69" font-family="Helvetica,sans-Serif" font-size="10.00">spdlog/spdlog.h</text>
</a>
</g>
</g>
<!-- Node26&#45;&gt;Node27 -->
<g id="edge27" class="edge">
<title>Node26&#45;&gt;Node27</title>
<path fill="none" stroke="midnightblue" d="M755.39,-123.48C767.47,-114.02 787.17,-98.6 801.74,-87.19"/>
<polygon fill="midnightblue" stroke="midnightblue" points="803.91,-89.93 809.63,-81.01 799.6,-84.42 803.91,-89.93"/>
</g>
<!-- Node28 -->
<g id="node28" class="node">
<title>Node28</title>
<g id="a_node28"><a xlink:title=" ">
<polygon fill="white" stroke="#bfbfbf" points="885,-56.5 885,-86.5 996,-86.5 996,-56.5 885,-56.5"/>
<text text-anchor="start" x="893" y="-74.5" font-family="Helvetica,sans-Serif" font-size="10.00">spdlog/sinks/stdout</text>
<text text-anchor="middle" x="940.5" y="-63.5" font-family="Helvetica,sans-Serif" font-size="10.00">_color_sinks.h</text>
</a>
</g>
</g>
<!-- Node26&#45;&gt;Node28 -->
<g id="edge28" class="edge">
<title>Node26&#45;&gt;Node28</title>
<path fill="none" stroke="midnightblue" d="M772.58,-123.48C801.61,-114.66 847.71,-100.67 884.27,-89.57"/>
<polygon fill="midnightblue" stroke="midnightblue" points="885.75,-92.78 894.31,-86.52 883.72,-86.08 885.75,-92.78"/>
</g>
<!-- Node29 -->
<g id="node29" class="node">
<title>Node29</title>
<g id="a_node29"><a xlink:title=" ">
<polygon fill="white" stroke="#bfbfbf" points="1014.5,-62 1014.5,-81 1072.5,-81 1072.5,-62 1014.5,-62"/>
<text text-anchor="middle" x="1043.5" y="-69" font-family="Helvetica,sans-Serif" font-size="10.00">memory</text>
</a>
</g>
</g>
<!-- Node26&#45;&gt;Node29 -->
<g id="edge29" class="edge">
<title>Node26&#45;&gt;Node29</title>
<path fill="none" stroke="midnightblue" d="M794.28,-123.95C864.28,-112.55 985.52,-92.48 1005.5,-87 1008.15,-86.27 1010.88,-85.43 1013.6,-84.53"/>
<polygon fill="midnightblue" stroke="midnightblue" points="1015,-87.74 1023.23,-81.07 1012.64,-81.15 1015,-87.74"/>
</g>
<!-- Node30 -->
<g id="node30" class="node">
<title>Node30</title>
<g id="a_node30"><a xlink:title=" ">
<polygon fill="white" stroke="#bfbfbf" points="657.5,-62 657.5,-81 755.5,-81 755.5,-62 657.5,-62"/>
<text text-anchor="middle" x="706.5" y="-69" font-family="Helvetica,sans-Serif" font-size="10.00">spdlog/fmt/fmt.h</text>
</a>
</g>
</g>
<!-- Node26&#45;&gt;Node30 -->
<g id="edge30" class="edge">
<title>Node26&#45;&gt;Node30</title>
<path fill="none" stroke="midnightblue" d="M739.06,-123.48C733.41,-114.64 724.44,-100.59 717.34,-89.48"/>
<polygon fill="midnightblue" stroke="midnightblue" points="720.27,-87.55 711.93,-81.01 714.37,-91.32 720.27,-87.55"/>
</g>
<!-- Node34&#45;&gt;Node2 -->
<g id="edge36" class="edge">
<title>Node34&#45;&gt;Node2</title>
<path fill="none" stroke="midnightblue" d="M486.63,-179.32C469.79,-170.66 443.69,-157.24 424.26,-147.25"/>
<polygon fill="midnightblue" stroke="midnightblue" points="425.82,-144.12 415.33,-142.65 422.62,-150.34 425.82,-144.12"/>
</g>
<!-- Node34&#45;&gt;Node4 -->
<g id="edge37" class="edge">
<title>Node34&#45;&gt;Node4</title>
<path fill="none" stroke="midnightblue" d="M502.2,-179.48C499.94,-166.54 494.44,-141.49 483.5,-123 475.55,-109.56 463.32,-96.95 453.07,-87.69"/>
<polygon fill="midnightblue" stroke="midnightblue" points="455.24,-84.94 445.39,-81.04 450.65,-90.23 455.24,-84.94"/>
</g>
<!-- Node34&#45;&gt;Node5 -->
<g id="edge35" class="edge">
<title>Node34&#45;&gt;Node5</title>
<path fill="none" stroke="midnightblue" d="M508.61,-179.32C519.74,-160.42 546.33,-115.25 561.13,-90.12"/>
<polygon fill="midnightblue" stroke="midnightblue" points="564.27,-91.68 566.33,-81.28 558.24,-88.12 564.27,-91.68"/>
</g>
<!-- Node34&#45;&gt;Node31 -->
<g id="edge38" class="edge">
<title>Node34&#45;&gt;Node31</title>
<path fill="none" stroke="midnightblue" d="M526.63,-179.44C550.98,-170.44 589.51,-156.19 616.92,-146.05"/>
<polygon fill="midnightblue" stroke="midnightblue" points="618.31,-149.27 626.47,-142.52 615.88,-142.7 618.31,-149.27"/>
</g>
</g>
</svg>
