<?xml version="1.0" encoding="UTF-8" standalone="no"?>
<!DOCTYPE svg PUBLIC "-//W3C//DTD SVG 1.1//EN"
 "http://www.w3.org/Graphics/SVG/1.1/DTD/svg11.dtd">
<!-- Generated by graphviz version 2.43.0 (0)
 -->
<!-- Title: OMSimPMTResponse.hh Pages: 1 -->
<svg width="1436pt" height="308pt"
 viewBox="0.00 0.00 1436.00 308.00" xmlns="http://www.w3.org/2000/svg" xmlns:xlink="http://www.w3.org/1999/xlink">
<g id="graph0" class="graph" transform="scale(1 1) rotate(0) translate(4 304)">
<title>OMSimPMTResponse.hh</title>
<!-- Node1 -->
<g id="node1" class="node">
<title>Node1</title>
<g id="a_node1"><a xlink:title="Simulation of PMT response.">
<polygon fill="#bfbfbf" stroke="black" points="910.5,-280.5 910.5,-299.5 1045.5,-299.5 1045.5,-280.5 910.5,-280.5"/>
<text text-anchor="middle" x="978" y="-287.5" font-family="Helvetica,sans-Serif" font-size="10.00">OMSimPMTResponse.hh</text>
</a>
</g>
</g>
<!-- Node2 -->
<g id="node2" class="node">
<title>Node2</title>
<g id="a_node2"><a xlink:href="_o_m_sim_hit_manager_8hh.html" target="_top" xlink:title="Defines structures and classes related to optical module photon hit management.">
<polygon fill="none" stroke="black" points="916.5,-224.5 916.5,-243.5 1039.5,-243.5 1039.5,-224.5 916.5,-224.5"/>
<text text-anchor="middle" x="978" y="-231.5" font-family="Helvetica,sans-Serif" font-size="10.00">OMSimHitManager.hh</text>
</a>
</g>
</g>
<!-- Node1&#45;&gt;Node2 -->
<g id="edge1" class="edge">
<title>Node1&#45;&gt;Node2</title>
<path fill="none" stroke="midnightblue" d="M978,-269.8C978,-260.91 978,-250.78 978,-243.75"/>
<polygon fill="midnightblue" stroke="midnightblue" points="974.5,-270.08 978,-280.08 981.5,-270.08 974.5,-270.08"/>
</g>
<!-- Node22 -->
<g id="node22" class="node">
<title>Node22</title>
<g id="a_node22"><a xlink:href="_o_m_sim_effective_area_analyisis_8hh_source.html" target="_top" xlink:title=" ">
<polygon fill="none" stroke="black" points="665,-168.5 665,-187.5 841,-187.5 841,-168.5 665,-168.5"/>
<text text-anchor="middle" x="753" y="-175.5" font-family="Helvetica,sans-Serif" font-size="10.00">OMSimEffectiveAreaAnalyisis.hh</text>
</a>
</g>
</g>
<!-- Node1&#45;&gt;Node22 -->
<g id="edge45" class="edge">
<title>Node1&#45;&gt;Node22</title>
<path fill="none" stroke="midnightblue" d="M951.16,-275.88C904.52,-253.08 809.76,-206.75 770.57,-187.59"/>
<polygon fill="midnightblue" stroke="midnightblue" points="949.82,-279.12 960.34,-280.37 952.9,-272.83 949.82,-279.12"/>
</g>
<!-- Node23 -->
<g id="node23" class="node">
<title>Node23</title>
<g id="a_node23"><a xlink:href="_o_m_sim_effi_cali_analyisis_8hh_source.html" target="_top" xlink:title=" ">
<polygon fill="none" stroke="black" points="1282,-168.5 1282,-187.5 1428,-187.5 1428,-168.5 1282,-168.5"/>
<text text-anchor="middle" x="1355" y="-175.5" font-family="Helvetica,sans-Serif" font-size="10.00">OMSimEffiCaliAnalyisis.hh</text>
</a>
</g>
</g>
<!-- Node1&#45;&gt;Node23 -->
<g id="edge46" class="edge">
<title>Node1&#45;&gt;Node23</title>
<path fill="none" stroke="midnightblue" d="M999.67,-274.9C1026.26,-257.84 1070.01,-230.57 1088,-224 1123.71,-210.95 1220.88,-196.43 1287.6,-187.5"/>
<polygon fill="midnightblue" stroke="midnightblue" points="997.56,-272.1 991.05,-280.46 1001.35,-277.98 997.56,-272.1"/>
</g>
<!-- Node26 -->
<g id="node26" class="node">
<title>Node26</title>
<g id="a_node26"><a xlink:href="_o_m_sim_sensitive_detector_8hh_source.html" target="_top" xlink:title=" ">
<polygon fill="none" stroke="black" points="1096.5,-224.5 1096.5,-243.5 1249.5,-243.5 1249.5,-224.5 1096.5,-224.5"/>
<text text-anchor="middle" x="1173" y="-231.5" font-family="Helvetica,sans-Serif" font-size="10.00">OMSimSensitiveDetector.hh</text>
</a>
</g>
</g>
<!-- Node1&#45;&gt;Node26 -->
<g id="edge36" class="edge">
<title>Node1&#45;&gt;Node26</title>
<path fill="none" stroke="midnightblue" d="M1018.81,-277.7C1055.61,-267.51 1108.93,-252.74 1142.25,-243.52"/>
<polygon fill="midnightblue" stroke="midnightblue" points="1017.6,-274.4 1008.9,-280.44 1019.47,-281.15 1017.6,-274.4"/>
</g>
<!-- Node27 -->
<g id="node27" class="node">
<title>Node27</title>
<g id="a_node27"><a xlink:href="_o_m_sim_p_m_t_construction_8hh.html" target="_top" xlink:title="Construction of the PMTs.">
<polygon fill="none" stroke="black" points="304.5,-224.5 304.5,-243.5 453.5,-243.5 453.5,-224.5 304.5,-224.5"/>
<text text-anchor="middle" x="379" y="-231.5" font-family="Helvetica,sans-Serif" font-size="10.00">OMSimPMTConstruction.hh</text>
</a>
</g>
</g>
<!-- Node1&#45;&gt;Node27 -->
<g id="edge37" class="edge">
<title>Node1&#45;&gt;Node27</title>
<path fill="none" stroke="midnightblue" d="M900.24,-281.99C784.39,-271.55 567.9,-252.03 453.79,-241.74"/>
<polygon fill="midnightblue" stroke="midnightblue" points="900.18,-285.5 910.45,-282.91 900.81,-278.53 900.18,-285.5"/>
</g>
<!-- Node3 -->
<g id="node3" class="node">
<title>Node3</title>
<g id="a_node3"><a xlink:href="_o_m_sim_run_action_8hh_source.html" target="_top" xlink:title=" ">
<polygon fill="none" stroke="black" points="920,-168.5 920,-187.5 1036,-187.5 1036,-168.5 920,-168.5"/>
<text text-anchor="middle" x="978" y="-175.5" font-family="Helvetica,sans-Serif" font-size="10.00">OMSimRunAction.hh</text>
</a>
</g>
</g>
<!-- Node2&#45;&gt;Node3 -->
<g id="edge2" class="edge">
<title>Node2&#45;&gt;Node3</title>
<path fill="none" stroke="midnightblue" d="M978,-213.8C978,-204.91 978,-194.78 978,-187.75"/>
<polygon fill="midnightblue" stroke="midnightblue" points="974.5,-214.08 978,-224.08 981.5,-214.08 974.5,-214.08"/>
</g>
<!-- Node7 -->
<g id="node7" class="node">
<title>Node7</title>
<g id="a_node7"><a xlink:href="_o_m_sim__radioactive__decays_8cc.html" target="_top" xlink:title="Main of the radioactive decay study.">
<polygon fill="none" stroke="black" points="507.5,-0.5 507.5,-19.5 672.5,-19.5 672.5,-0.5 507.5,-0.5"/>
<text text-anchor="middle" x="590" y="-7.5" font-family="Helvetica,sans-Serif" font-size="10.00">OMSim_radioactive_decays.cc</text>
</a>
</g>
</g>
<!-- Node2&#45;&gt;Node7 -->
<g id="edge30" class="edge">
<title>Node2&#45;&gt;Node7</title>
<path fill="none" stroke="midnightblue" d="M954.6,-219.14C941.29,-210.8 924.61,-199.59 911,-188 875.81,-158.03 878.48,-137.62 840,-112 801.72,-86.52 785.09,-94.52 743,-76 725.17,-68.15 721.75,-64.03 704,-56 673.37,-42.14 637.12,-28.25 613.86,-19.64"/>
<polygon fill="midnightblue" stroke="midnightblue" points="952.85,-222.17 963.2,-224.41 956.51,-216.2 952.85,-222.17"/>
</g>
<!-- Node8 -->
<g id="node8" class="node">
<title>Node8</title>
<g id="a_node8"><a xlink:href="_o_m_sim_supernova_8cc.html" target="_top" xlink:title="Main of the supernova study.">
<polygon fill="none" stroke="black" points="1113.5,-0.5 1113.5,-19.5 1230.5,-19.5 1230.5,-0.5 1113.5,-0.5"/>
<text text-anchor="middle" x="1172" y="-7.5" font-family="Helvetica,sans-Serif" font-size="10.00">OMSimSupernova.cc</text>
</a>
</g>
</g>
<!-- Node2&#45;&gt;Node8 -->
<g id="edge34" class="edge">
<title>Node2&#45;&gt;Node8</title>
<path fill="none" stroke="midnightblue" d="M1044.71,-222.89C1115.26,-211.88 1217.24,-194.92 1223,-188 1238.88,-168.94 1283.49,-222.61 1211,-56 1204.65,-41.4 1191.82,-28.08 1182.62,-19.79"/>
<polygon fill="midnightblue" stroke="midnightblue" points="1043.89,-219.48 1034.55,-224.47 1044.96,-226.4 1043.89,-219.48"/>
</g>
<!-- Node9 -->
<g id="node9" class="node">
<title>Node9</title>
<g id="a_node9"><a xlink:href="_o_m_sim_optical_module_8hh_source.html" target="_top" xlink:title=" ">
<polygon fill="none" stroke="black" points="407.5,-168.5 407.5,-187.5 544.5,-187.5 544.5,-168.5 407.5,-168.5"/>
<text text-anchor="middle" x="476" y="-175.5" font-family="Helvetica,sans-Serif" font-size="10.00">OMSimOpticalModule.hh</text>
</a>
</g>
</g>
<!-- Node2&#45;&gt;Node9 -->
<g id="edge8" class="edge">
<title>Node2&#45;&gt;Node9</title>
<path fill="none" stroke="midnightblue" d="M906.21,-225.28C809.83,-214.91 639.77,-196.62 544.9,-186.41"/>
<polygon fill="midnightblue" stroke="midnightblue" points="906.13,-228.79 916.44,-226.38 906.88,-221.83 906.13,-228.79"/>
</g>
<!-- Node2&#45;&gt;Node22 -->
<g id="edge27" class="edge">
<title>Node2&#45;&gt;Node22</title>
<path fill="none" stroke="midnightblue" d="M932.53,-222.09C890.03,-211.89 827.42,-196.86 788.49,-187.52"/>
<polygon fill="midnightblue" stroke="midnightblue" points="931.81,-225.51 942.35,-224.44 933.44,-218.71 931.81,-225.51"/>
</g>
<!-- Node2&#45;&gt;Node23 -->
<g id="edge29" class="edge">
<title>Node2&#45;&gt;Node23</title>
<path fill="none" stroke="midnightblue" d="M1047.96,-222.98C1119.17,-212.78 1228.38,-197.14 1295.54,-187.52"/>
<polygon fill="midnightblue" stroke="midnightblue" points="1047.14,-219.56 1037.74,-224.44 1048.13,-226.49 1047.14,-219.56"/>
</g>
<!-- Node24 -->
<g id="node24" class="node">
<title>Node24</title>
<g id="a_node24"><a xlink:href="_o_m_sim_s_n_analysis_8hh_source.html" target="_top" xlink:title=" ">
<polygon fill="none" stroke="black" points="1092,-168.5 1092,-187.5 1214,-187.5 1214,-168.5 1092,-168.5"/>
<text text-anchor="middle" x="1153" y="-175.5" font-family="Helvetica,sans-Serif" font-size="10.00">OMSimSNAnalysis.hh</text>
</a>
</g>
</g>
<!-- Node2&#45;&gt;Node24 -->
<g id="edge31" class="edge">
<title>Node2&#45;&gt;Node24</title>
<path fill="none" stroke="midnightblue" d="M1015.47,-221.44C1048.47,-211.26 1095.76,-196.66 1125.4,-187.52"/>
<polygon fill="midnightblue" stroke="midnightblue" points="1014.25,-218.15 1005.73,-224.44 1016.32,-224.84 1014.25,-218.15"/>
</g>
<!-- Node25 -->
<g id="node25" class="node">
<title>Node25</title>
<g id="a_node25"><a xlink:href="_o_m_sim_s_n_analysis_8cc.html" target="_top" xlink:title="Analyze data and write output files.">
<polygon fill="none" stroke="black" points="1056,-112.5 1056,-131.5 1176,-131.5 1176,-112.5 1056,-112.5"/>
<text text-anchor="middle" x="1116" y="-119.5" font-family="Helvetica,sans-Serif" font-size="10.00">OMSimSNAnalysis.cc</text>
</a>
</g>
</g>
<!-- Node2&#45;&gt;Node25 -->
<g id="edge35" class="edge">
<title>Node2&#45;&gt;Node25</title>
<path fill="none" stroke="midnightblue" d="M1000.56,-219.05C1013.84,-210.55 1030.77,-199.19 1045,-188 1068.65,-169.41 1094.14,-144.82 1107.19,-131.87"/>
<polygon fill="midnightblue" stroke="midnightblue" points="998.61,-216.14 992.03,-224.45 1002.35,-222.06 998.61,-216.14"/>
</g>
<!-- Node4 -->
<g id="node4" class="node">
<title>Node4</title>
<g id="a_node4"><a xlink:href="_o_m_sim_8hh.html" target="_top" xlink:title="Main simulation class for the Optical Module (OM) simulation. This file defines the OMSim class,...">
<polygon fill="none" stroke="black" points="982.5,-56.5 982.5,-75.5 1049.5,-75.5 1049.5,-56.5 982.5,-56.5"/>
<text text-anchor="middle" x="1016" y="-63.5" font-family="Helvetica,sans-Serif" font-size="10.00">OMSim.hh</text>
</a>
</g>
</g>
<!-- Node3&#45;&gt;Node4 -->
<g id="edge3" class="edge">
<title>Node3&#45;&gt;Node4</title>
<path fill="none" stroke="midnightblue" d="M984.33,-158.67C992.64,-134.62 1006.88,-93.39 1013.03,-75.59"/>
<polygon fill="midnightblue" stroke="midnightblue" points="980.94,-157.77 980.98,-168.37 987.56,-160.06 980.94,-157.77"/>
</g>
<!-- Node5 -->
<g id="node5" class="node">
<title>Node5</title>
<g id="a_node5"><a xlink:href="_o_m_sim_8cc.html" target="_top" xlink:title="Implementation of the OMSim class.">
<polygon fill="none" stroke="black" points="984.5,-0.5 984.5,-19.5 1049.5,-19.5 1049.5,-0.5 984.5,-0.5"/>
<text text-anchor="middle" x="1017" y="-7.5" font-family="Helvetica,sans-Serif" font-size="10.00">OMSim.cc</text>
</a>
</g>
</g>
<!-- Node4&#45;&gt;Node5 -->
<g id="edge4" class="edge">
<title>Node4&#45;&gt;Node5</title>
<path fill="none" stroke="midnightblue" d="M1016.36,-45.8C1016.52,-36.91 1016.71,-26.78 1016.84,-19.75"/>
<polygon fill="midnightblue" stroke="midnightblue" points="1012.85,-46.02 1016.17,-56.08 1019.85,-46.15 1012.85,-46.02"/>
</g>
<!-- Node6 -->
<g id="node6" class="node">
<title>Node6</title>
<g id="a_node6"><a xlink:href="_o_m_sim__effective__area_8cc.html" target="_top" xlink:title="Main for the calculation of effective areas.">
<polygon fill="none" stroke="black" points="826,-0.5 826,-19.5 966,-19.5 966,-0.5 826,-0.5"/>
<text text-anchor="middle" x="896" y="-7.5" font-family="Helvetica,sans-Serif" font-size="10.00">OMSim_effective_area.cc</text>
</a>
</g>
</g>
<!-- Node4&#45;&gt;Node6 -->
<g id="edge5" class="edge">
<title>Node4&#45;&gt;Node6</title>
<path fill="none" stroke="midnightblue" d="M987.63,-52.23C965.18,-42.13 934.46,-28.31 914.93,-19.52"/>
<polygon fill="midnightblue" stroke="midnightblue" points="986.43,-55.53 996.99,-56.44 989.3,-49.15 986.43,-55.53"/>
</g>
<!-- Node4&#45;&gt;Node7 -->
<g id="edge6" class="edge">
<title>Node4&#45;&gt;Node7</title>
<path fill="none" stroke="midnightblue" d="M972.22,-59.45C897.59,-49.99 745.3,-30.69 657.15,-19.51"/>
<polygon fill="midnightblue" stroke="midnightblue" points="971.86,-62.93 982.22,-60.72 972.74,-55.99 971.86,-62.93"/>
</g>
<!-- Node4&#45;&gt;Node8 -->
<g id="edge7" class="edge">
<title>Node4&#45;&gt;Node8</title>
<path fill="none" stroke="midnightblue" d="M1050.17,-53.17C1079.54,-43 1121.2,-28.59 1147.4,-19.52"/>
<polygon fill="midnightblue" stroke="midnightblue" points="1049.02,-49.86 1040.72,-56.44 1051.31,-56.48 1049.02,-49.86"/>
</g>
<!-- Node10 -->
<g id="node10" class="node">
<title>Node10</title>
<g id="a_node10"><a xlink:href="_o_m_sim_d_e_g_g_8hh.html" target="_top" xlink:title="Construction of the DEGG class. From DOUMEKI.">
<polygon fill="none" stroke="black" points="118.5,-112.5 118.5,-131.5 213.5,-131.5 213.5,-112.5 118.5,-112.5"/>
<text text-anchor="middle" x="166" y="-119.5" font-family="Helvetica,sans-Serif" font-size="10.00">OMSimDEGG.hh</text>
</a>
</g>
</g>
<!-- Node9&#45;&gt;Node10 -->
<g id="edge9" class="edge">
<title>Node9&#45;&gt;Node10</title>
<path fill="none" stroke="midnightblue" d="M416.95,-166.71C357.92,-156.43 268.26,-140.81 213.62,-131.29"/>
<polygon fill="midnightblue" stroke="midnightblue" points="416.43,-170.18 426.88,-168.44 417.63,-163.28 416.43,-170.18"/>
</g>
<!-- Node11 -->
<g id="node11" class="node">
<title>Node11</title>
<g id="a_node11"><a xlink:href="_o_m_sim_detector_construction_8hh_source.html" target="_top" xlink:title=" ">
<polygon fill="none" stroke="black" points="542,-112.5 542,-131.5 712,-131.5 712,-112.5 542,-112.5"/>
<text text-anchor="middle" x="627" y="-119.5" font-family="Helvetica,sans-Serif" font-size="10.00">OMSimDetectorConstruction.hh</text>
</a>
</g>
</g>
<!-- Node9&#45;&gt;Node11 -->
<g id="edge10" class="edge">
<title>Node9&#45;&gt;Node11</title>
<path fill="none" stroke="midnightblue" d="M509.45,-165.04C537.86,-154.88 577.94,-140.55 603.19,-131.52"/>
<polygon fill="midnightblue" stroke="midnightblue" points="508.16,-161.78 499.93,-168.44 510.52,-168.37 508.16,-161.78"/>
</g>
<!-- Node14 -->
<g id="node14" class="node">
<title>Node14</title>
<g id="a_node14"><a xlink:href="_o_m_sim_rad_decays_detector_8hh.html" target="_top" xlink:title="Defines the OMSimRadDecaysDetector class for the radioactive decays simulation.">
<polygon fill="none" stroke="black" points="371.5,-56.5 371.5,-75.5 534.5,-75.5 534.5,-56.5 371.5,-56.5"/>
<text text-anchor="middle" x="453" y="-63.5" font-family="Helvetica,sans-Serif" font-size="10.00">OMSimRadDecaysDetector.hh</text>
</a>
</g>
</g>
<!-- Node9&#45;&gt;Node14 -->
<g id="edge26" class="edge">
<title>Node9&#45;&gt;Node14</title>
<path fill="none" stroke="midnightblue" d="M485.14,-159C490.61,-145.75 495.53,-127.43 490,-112 484.75,-97.34 472.42,-84.03 463.44,-75.76"/>
<polygon fill="midnightblue" stroke="midnightblue" points="481.82,-157.84 480.82,-168.39 488.18,-160.77 481.82,-157.84"/>
</g>
<!-- Node16 -->
<g id="node16" class="node">
<title>Node16</title>
<g id="a_node16"><a xlink:href="_o_m_sim_l_o_m16_8hh.html" target="_top" xlink:title="Construction of LOM16.">
<polygon fill="none" stroke="black" points="730.5,-112.5 730.5,-131.5 831.5,-131.5 831.5,-112.5 730.5,-112.5"/>
<text text-anchor="middle" x="781" y="-119.5" font-family="Helvetica,sans-Serif" font-size="10.00">OMSimLOM16.hh</text>
</a>
</g>
</g>
<!-- Node9&#45;&gt;Node16 -->
<g id="edge19" class="edge">
<title>Node9&#45;&gt;Node16</title>
<path fill="none" stroke="midnightblue" d="M534.38,-166.66C592.02,-156.46 679.12,-141.04 732.9,-131.52"/>
<polygon fill="midnightblue" stroke="midnightblue" points="533.56,-163.25 524.33,-168.44 534.79,-170.15 533.56,-163.25"/>
</g>
<!-- Node17 -->
<g id="node17" class="node">
<title>Node17</title>
<g id="a_node17"><a xlink:href="_o_m_sim_l_o_m18_8hh.html" target="_top" xlink:title="Construction of LOM18.">
<polygon fill="none" stroke="black" points="346.5,-112.5 346.5,-131.5 447.5,-131.5 447.5,-112.5 346.5,-112.5"/>
<text text-anchor="middle" x="397" y="-119.5" font-family="Helvetica,sans-Serif" font-size="10.00">OMSimLOM18.hh</text>
</a>
</g>
</g>
<!-- Node9&#45;&gt;Node17 -->
<g id="edge20" class="edge">
<title>Node9&#45;&gt;Node17</title>
<path fill="none" stroke="midnightblue" d="M454.97,-162.62C440.53,-152.76 421.86,-139.99 409.66,-131.65"/>
<polygon fill="midnightblue" stroke="midnightblue" points="453.08,-165.57 463.31,-168.32 457.03,-159.79 453.08,-165.57"/>
</g>
<!-- Node19 -->
<g id="node19" class="node">
<title>Node19</title>
<g id="a_node19"><a xlink:href="_o_m_sim_m_d_o_m_8hh.html" target="_top" xlink:title="Construction of mDOM.">
<polygon fill="none" stroke="black" points="0,-112.5 0,-131.5 100,-131.5 100,-112.5 0,-112.5"/>
<text text-anchor="middle" x="50" y="-119.5" font-family="Helvetica,sans-Serif" font-size="10.00">OMSimMDOM.hh</text>
</a>
</g>
</g>
<!-- Node9&#45;&gt;Node19 -->
<g id="edge22" class="edge">
<title>Node9&#45;&gt;Node19</title>
<path fill="none" stroke="midnightblue" d="M397.04,-168C322.66,-159.36 208.15,-145.64 109,-132 106.13,-131.6 103.17,-131.19 100.2,-130.76"/>
<polygon fill="midnightblue" stroke="midnightblue" points="396.93,-171.51 407.27,-169.18 397.74,-164.55 396.93,-171.51"/>
</g>
<!-- Node20 -->
<g id="node20" class="node">
<title>Node20</title>
<g id="a_node20"><a xlink:href="_o_m_sim_p_d_o_m_8hh.html" target="_top" xlink:title="Implementation of the pDOM/Gen1 DOM class.">
<polygon fill="none" stroke="black" points="231.5,-112.5 231.5,-131.5 328.5,-131.5 328.5,-112.5 231.5,-112.5"/>
<text text-anchor="middle" x="280" y="-119.5" font-family="Helvetica,sans-Serif" font-size="10.00">OMSimPDOM.hh</text>
</a>
</g>
</g>
<!-- Node9&#45;&gt;Node20 -->
<g id="edge23" class="edge">
<title>Node9&#45;&gt;Node20</title>
<path fill="none" stroke="midnightblue" d="M434.98,-165.7C397.99,-155.51 344.4,-140.74 310.91,-131.52"/>
<polygon fill="midnightblue" stroke="midnightblue" points="434.37,-169.16 444.94,-168.44 436.23,-162.41 434.37,-169.16"/>
</g>
<!-- Node21 -->
<g id="node21" class="node">
<title>Node21</title>
<g id="a_node21"><a xlink:href="_o_m_sim_decays_g_p_s_8hh.html" target="_top" xlink:title="Defines the OMSimDecaysGPS class for the radioactive decays simulation.">
<polygon fill="none" stroke="black" points="231,-56.5 231,-75.5 353,-75.5 353,-56.5 231,-56.5"/>
<text text-anchor="middle" x="292" y="-63.5" font-family="Helvetica,sans-Serif" font-size="10.00">OMSimDecaysGPS.hh</text>
</a>
</g>
</g>
<!-- Node9&#45;&gt;Node21 -->
<g id="edge24" class="edge">
<title>Node9&#45;&gt;Node21</title>
<path fill="none" stroke="midnightblue" d="M474.92,-157.71C473.09,-143.24 468.31,-123.93 456,-112 439.89,-96.38 385.1,-83.44 343.23,-75.51"/>
<polygon fill="midnightblue" stroke="midnightblue" points="471.47,-158.41 475.84,-168.06 478.44,-157.78 471.47,-158.41"/>
</g>
<!-- Node11&#45;&gt;Node4 -->
<g id="edge11" class="edge">
<title>Node11&#45;&gt;Node4</title>
<path fill="none" stroke="midnightblue" d="M698.65,-111.05C782.98,-99.35 919.45,-80.4 982.32,-71.67"/>
<polygon fill="midnightblue" stroke="midnightblue" points="698.06,-107.6 688.64,-112.44 699.02,-114.54 698.06,-107.6"/>
</g>
<!-- Node12 -->
<g id="node12" class="node">
<title>Node12</title>
<g id="a_node12"><a xlink:href="_o_m_sim_effective_area_detector_8hh.html" target="_top" xlink:title="Defines the OMSimEffectiveAreaDetector class for effective area simulation detector construction.">
<polygon fill="none" stroke="black" points="752.5,-56.5 752.5,-75.5 925.5,-75.5 925.5,-56.5 752.5,-56.5"/>
<text text-anchor="middle" x="839" y="-63.5" font-family="Helvetica,sans-Serif" font-size="10.00">OMSimEffectiveAreaDetector.hh</text>
</a>
</g>
</g>
<!-- Node11&#45;&gt;Node12 -->
<g id="edge12" class="edge">
<title>Node11&#45;&gt;Node12</title>
<path fill="none" stroke="midnightblue" d="M670.35,-109.96C710.39,-99.76 769.03,-84.82 805.57,-75.52"/>
<polygon fill="midnightblue" stroke="midnightblue" points="669.42,-106.58 660.59,-112.44 671.15,-113.37 669.42,-106.58"/>
</g>
<!-- Node13 -->
<g id="node13" class="node">
<title>Node13</title>
<g id="a_node13"><a xlink:href="_o_m_sim_effi_cali_detector_8hh_source.html" target="_top" xlink:title=" ">
<polygon fill="none" stroke="black" points="552.5,-56.5 552.5,-75.5 695.5,-75.5 695.5,-56.5 552.5,-56.5"/>
<text text-anchor="middle" x="624" y="-63.5" font-family="Helvetica,sans-Serif" font-size="10.00">OMSimEffiCaliDetector.hh</text>
</a>
</g>
</g>
<!-- Node11&#45;&gt;Node13 -->
<g id="edge14" class="edge">
<title>Node11&#45;&gt;Node13</title>
<path fill="none" stroke="midnightblue" d="M625.93,-101.8C625.44,-92.91 624.88,-82.78 624.49,-75.75"/>
<polygon fill="midnightblue" stroke="midnightblue" points="622.46,-102.29 626.5,-112.08 629.44,-101.9 622.46,-102.29"/>
</g>
<!-- Node11&#45;&gt;Node14 -->
<g id="edge15" class="edge">
<title>Node11&#45;&gt;Node14</title>
<path fill="none" stroke="midnightblue" d="M589.74,-109.44C556.93,-99.26 509.92,-84.66 480.44,-75.52"/>
<polygon fill="midnightblue" stroke="midnightblue" points="588.84,-112.82 599.43,-112.44 590.92,-106.14 588.84,-112.82"/>
</g>
<!-- Node15 -->
<g id="node15" class="node">
<title>Node15</title>
<g id="a_node15"><a xlink:href="_o_m_sim_s_ndetector_8hh_source.html" target="_top" xlink:title=" ">
<polygon fill="none" stroke="black" points="1068,-56.5 1068,-75.5 1188,-75.5 1188,-56.5 1068,-56.5"/>
<text text-anchor="middle" x="1128" y="-63.5" font-family="Helvetica,sans-Serif" font-size="10.00">OMSimSNdetector.hh</text>
</a>
</g>
</g>
<!-- Node11&#45;&gt;Node15 -->
<g id="edge17" class="edge">
<title>Node11&#45;&gt;Node15</title>
<path fill="none" stroke="midnightblue" d="M722.5,-111.77C810.09,-103.13 943.38,-89.56 1059,-76 1061.88,-75.66 1064.83,-75.31 1067.8,-74.95"/>
<polygon fill="midnightblue" stroke="midnightblue" points="721.93,-108.31 712.32,-112.77 722.61,-115.27 721.93,-108.31"/>
</g>
<!-- Node12&#45;&gt;Node6 -->
<g id="edge13" class="edge">
<title>Node12&#45;&gt;Node6</title>
<path fill="none" stroke="midnightblue" d="M855.62,-49.25C865.73,-39.67 878.28,-27.79 886.68,-19.83"/>
<polygon fill="midnightblue" stroke="midnightblue" points="853.01,-46.91 848.16,-56.32 857.82,-51.99 853.01,-46.91"/>
</g>
<!-- Node14&#45;&gt;Node7 -->
<g id="edge16" class="edge">
<title>Node14&#45;&gt;Node7</title>
<path fill="none" stroke="midnightblue" d="M484.02,-52.77C509.76,-42.63 545.69,-28.47 568.39,-19.52"/>
<polygon fill="midnightblue" stroke="midnightblue" points="482.73,-49.52 474.71,-56.44 485.29,-56.03 482.73,-49.52"/>
</g>
<!-- Node15&#45;&gt;Node8 -->
<g id="edge18" class="edge">
<title>Node15&#45;&gt;Node8</title>
<path fill="none" stroke="midnightblue" d="M1141.73,-48.14C1149.4,-38.74 1158.63,-27.4 1164.87,-19.75"/>
<polygon fill="midnightblue" stroke="midnightblue" points="1138.87,-46.12 1135.27,-56.08 1144.3,-50.54 1138.87,-46.12"/>
</g>
<!-- Node18 -->
<g id="node18" class="node">
<title>Node18</title>
<g id="a_node18"><a xlink:href="_o_m_sim_l_o_m18_8cc.html" target="_top" xlink:title=" ">
<polygon fill="none" stroke="black" points="113.5,-56.5 113.5,-75.5 212.5,-75.5 212.5,-56.5 113.5,-56.5"/>
<text text-anchor="middle" x="163" y="-63.5" font-family="Helvetica,sans-Serif" font-size="10.00">OMSimLOM18.cc</text>
</a>
</g>
</g>
<!-- Node17&#45;&gt;Node18 -->
<g id="edge21" class="edge">
<title>Node17&#45;&gt;Node18</title>
<path fill="none" stroke="midnightblue" d="M350,-110.15C305.78,-99.95 240.48,-84.88 199.9,-75.52"/>
<polygon fill="midnightblue" stroke="midnightblue" points="349.39,-113.61 359.92,-112.44 350.97,-106.78 349.39,-113.61"/>
</g>
<!-- Node21&#45;&gt;Node7 -->
<g id="edge25" class="edge">
<title>Node21&#45;&gt;Node7</title>
<path fill="none" stroke="midnightblue" d="M349.39,-54.6C405.71,-44.4 490.56,-29.02 543,-19.52"/>
<polygon fill="midnightblue" stroke="midnightblue" points="348.43,-51.22 339.22,-56.44 349.68,-58.1 348.43,-51.22"/>
</g>
<!-- Node22&#45;&gt;Node6 -->
<g id="edge28" class="edge">
<title>Node22&#45;&gt;Node6</title>
<path fill="none" stroke="midnightblue" d="M800.49,-165.62C844.32,-152.29 906.75,-125.44 935,-76 946.69,-55.55 922.96,-31.92 907.63,-19.55"/>
<polygon fill="midnightblue" stroke="midnightblue" points="799.51,-162.26 790.89,-168.41 801.47,-168.98 799.51,-162.26"/>
</g>
<!-- Node24&#45;&gt;Node8 -->
<g id="edge32" class="edge">
<title>Node24&#45;&gt;Node8</title>
<path fill="none" stroke="midnightblue" d="M1167.22,-160.48C1173.53,-152.38 1180.52,-142.18 1185,-132 1195.25,-108.7 1194.32,-101.31 1197,-76 1197.94,-67.16 1199.23,-64.6 1197,-56 1193.46,-42.33 1184.77,-28.39 1178.63,-19.73"/>
<polygon fill="midnightblue" stroke="midnightblue" points="1164.4,-158.4 1160.8,-168.36 1169.83,-162.82 1164.4,-158.4"/>
</g>
<!-- Node24&#45;&gt;Node25 -->
<g id="edge33" class="edge">
<title>Node24&#45;&gt;Node25</title>
<path fill="none" stroke="midnightblue" d="M1141.05,-159.57C1134.69,-150.27 1127.13,-139.25 1122,-131.75"/>
<polygon fill="midnightblue" stroke="midnightblue" points="1138.35,-161.81 1146.89,-168.08 1144.13,-157.86 1138.35,-161.81"/>
</g>
<!-- Node27&#45;&gt;Node9 -->
<g id="edge42" class="edge">
<title>Node27&#45;&gt;Node9</title>
<path fill="none" stroke="midnightblue" d="M403.34,-219.45C421.24,-209.48 445.05,-196.23 460.45,-187.65"/>
<polygon fill="midnightblue" stroke="midnightblue" points="401.62,-216.4 394.58,-224.32 405.02,-222.52 401.62,-216.4"/>
</g>
<!-- Node27&#45;&gt;Node10 -->
<g id="edge38" class="edge">
<title>Node27&#45;&gt;Node10</title>
<path fill="none" stroke="midnightblue" d="M353.31,-219.73C309.07,-196.88 219.66,-150.71 182.64,-131.59"/>
<polygon fill="midnightblue" stroke="midnightblue" points="351.8,-222.89 362.29,-224.37 355.01,-216.67 351.8,-222.89"/>
</g>
<!-- Node27&#45;&gt;Node16 -->
<g id="edge39" class="edge">
<title>Node27&#45;&gt;Node16</title>
<path fill="none" stroke="midnightblue" d="M423.03,-221.93C458.26,-213 508.88,-199.99 553,-188 624.69,-168.51 708.63,-144.19 751.91,-131.54"/>
<polygon fill="midnightblue" stroke="midnightblue" points="421.91,-218.61 413.07,-224.45 423.63,-225.39 421.91,-218.61"/>
</g>
<!-- Node27&#45;&gt;Node17 -->
<g id="edge40" class="edge">
<title>Node27&#45;&gt;Node17</title>
<path fill="none" stroke="midnightblue" d="M382.05,-214.35C385.99,-190.25 392.7,-149.31 395.59,-131.59"/>
<polygon fill="midnightblue" stroke="midnightblue" points="378.57,-213.93 380.41,-224.37 385.48,-215.06 378.57,-213.93"/>
</g>
<!-- Node27&#45;&gt;Node19 -->
<g id="edge41" class="edge">
<title>Node27&#45;&gt;Node19</title>
<path fill="none" stroke="midnightblue" d="M343.83,-221.24C277.26,-198.98 134.26,-151.17 75.75,-131.61"/>
<polygon fill="midnightblue" stroke="midnightblue" points="342.86,-224.61 353.46,-224.46 345.08,-217.97 342.86,-224.61"/>
</g>
<!-- Node27&#45;&gt;Node20 -->
<g id="edge43" class="edge">
<title>Node27&#45;&gt;Node20</title>
<path fill="none" stroke="midnightblue" d="M364.51,-216.9C343.22,-193.25 304.25,-149.95 287.73,-131.59"/>
<polygon fill="midnightblue" stroke="midnightblue" points="361.94,-219.28 371.23,-224.37 367.14,-214.59 361.94,-219.28"/>
</g>
<!-- Node27&#45;&gt;Node27 -->
<g id="edge44" class="edge">
<title>Node27&#45;&gt;Node27</title>
<path fill="none" stroke="midnightblue" d="M428.43,-244.29C451.41,-245.42 471.5,-241.99 471.5,-234 471.5,-224.87 445.26,-221.69 418.45,-224.47"/>
<polygon fill="midnightblue" stroke="midnightblue" points="428.69,-240.8 418.45,-243.53 428.15,-247.78 428.69,-240.8"/>
</g>
</g>
</svg>
