<?xml version="1.0" encoding="UTF-8" standalone="no"?>
<!DOCTYPE svg PUBLIC "-//W3C//DTD SVG 1.1//EN"
 "http://www.w3.org/Graphics/SVG/1.1/DTD/svg11.dtd">
<!-- Generated by graphviz version 2.43.0 (0)
 -->
<!-- Title: OMSim_effective_area.cc Pages: 1 -->
<svg width="2115pt" height="375pt"
 viewBox="0.00 0.00 2115.14 375.00" xmlns="http://www.w3.org/2000/svg" xmlns:xlink="http://www.w3.org/1999/xlink">
<g id="graph0" class="graph" transform="scale(1 1) rotate(0) translate(4 371)">
<title>OMSim_effective_area.cc</title>
<!-- Node1 -->
<g id="node1" class="node">
<title>Node1</title>
<g id="a_node1"><a xlink:title="Main for the calculation of effective areas.">
<polygon fill="#bfbfbf" stroke="black" points="305.64,-347.5 305.64,-366.5 445.64,-366.5 445.64,-347.5 305.64,-347.5"/>
<text text-anchor="middle" x="375.64" y="-354.5" font-family="Helvetica,sans-Serif" font-size="10.00">OMSim_effective_area.cc</text>
</a>
</g>
</g>
<!-- Node2 -->
<g id="node2" class="node">
<title>Node2</title>
<g id="a_node2"><a xlink:href="_o_m_sim_8hh.html" target="_top" xlink:title="Main simulation class for the Optical Module (OM) simulation. This file defines the OMSim class,...">
<polygon fill="none" stroke="black" points="1074.14,-291.5 1074.14,-310.5 1141.14,-310.5 1141.14,-291.5 1074.14,-291.5"/>
<text text-anchor="middle" x="1107.64" y="-298.5" font-family="Helvetica,sans-Serif" font-size="10.00">OMSim.hh</text>
</a>
</g>
</g>
<!-- Node1&#45;&gt;Node2 -->
<g id="edge1" class="edge">
<title>Node1&#45;&gt;Node2</title>
<path fill="none" stroke="midnightblue" d="M445.83,-350.82C595.34,-339.79 941.57,-314.25 1063.88,-305.23"/>
<polygon fill="midnightblue" stroke="midnightblue" points="1064.28,-308.71 1073.99,-304.48 1063.76,-301.73 1064.28,-308.71"/>
</g>
<!-- Node59 -->
<g id="node45" class="node">
<title>Node59</title>
<g id="a_node45"><a xlink:href="_o_m_sim_angular_scan_8hh.html" target="_top" xlink:title="Defines the AngularScan class for configuring and running GPS beam with angular scans.">
<polygon fill="none" stroke="black" points="195.64,-291.5 195.64,-310.5 323.64,-310.5 323.64,-291.5 195.64,-291.5"/>
<text text-anchor="middle" x="259.64" y="-298.5" font-family="Helvetica,sans-Serif" font-size="10.00">OMSimAngularScan.hh</text>
</a>
</g>
</g>
<!-- Node1&#45;&gt;Node59 -->
<g id="edge51" class="edge">
<title>Node1&#45;&gt;Node59</title>
<path fill="none" stroke="midnightblue" d="M357.26,-347.44C338.42,-338.68 308.91,-324.94 287.26,-314.86"/>
<polygon fill="midnightblue" stroke="midnightblue" points="288.48,-311.56 277.93,-310.52 285.52,-317.91 288.48,-311.56"/>
</g>
<!-- Node61 -->
<g id="node47" class="node">
<title>Node61</title>
<g id="a_node47"><a xlink:href="_o_m_sim_effective_area_analyisis_8hh_source.html" target="_top" xlink:title=" ">
<polygon fill="none" stroke="black" points="392.64,-179.5 392.64,-198.5 568.64,-198.5 568.64,-179.5 392.64,-179.5"/>
<text text-anchor="middle" x="480.64" y="-186.5" font-family="Helvetica,sans-Serif" font-size="10.00">OMSimEffectiveAreaAnalyisis.hh</text>
</a>
</g>
</g>
<!-- Node1&#45;&gt;Node61 -->
<g id="edge53" class="edge">
<title>Node1&#45;&gt;Node61</title>
<path fill="none" stroke="midnightblue" d="M374.74,-347.42C372.96,-326.16 371.18,-270.26 396.64,-235 407.57,-219.86 425.19,-209.33 441.47,-202.28"/>
<polygon fill="midnightblue" stroke="midnightblue" points="442.86,-205.49 450.85,-198.52 440.26,-198.99 442.86,-205.49"/>
</g>
<!-- Node62 -->
<g id="node48" class="node">
<title>Node62</title>
<g id="a_node48"><a xlink:href="_o_m_sim_effective_area_detector_8hh.html" target="_top" xlink:title="Defines the OMSimEffectiveAreaDetector class for effective area simulation detector construction.">
<polygon fill="none" stroke="black" points="404.14,-291.5 404.14,-310.5 577.14,-310.5 577.14,-291.5 404.14,-291.5"/>
<text text-anchor="middle" x="490.64" y="-298.5" font-family="Helvetica,sans-Serif" font-size="10.00">OMSimEffectiveAreaDetector.hh</text>
</a>
</g>
</g>
<!-- Node1&#45;&gt;Node62 -->
<g id="edge58" class="edge">
<title>Node1&#45;&gt;Node62</title>
<path fill="none" stroke="midnightblue" d="M393.86,-347.44C412.54,-338.68 441.8,-324.94 463.26,-314.86"/>
<polygon fill="midnightblue" stroke="midnightblue" points="464.94,-317.93 472.5,-310.52 461.96,-311.6 464.94,-317.93"/>
</g>
<!-- Node63 -->
<g id="node49" class="node">
<title>Node63</title>
<g id="a_node49"><a xlink:href="_o_m_sim_tools_8hh.html" target="_top" xlink:title="Definition of Tools namespace, a collection of helper methods.">
<polygon fill="none" stroke="black" points="49.64,-179.5 49.64,-198.5 141.64,-198.5 141.64,-179.5 49.64,-179.5"/>
<text text-anchor="middle" x="95.64" y="-186.5" font-family="Helvetica,sans-Serif" font-size="10.00">OMSimTools.hh</text>
</a>
</g>
</g>
<!-- Node1&#45;&gt;Node63 -->
<g id="edge60" class="edge">
<title>Node1&#45;&gt;Node63</title>
<path fill="none" stroke="midnightblue" d="M305.53,-350.86C267.8,-345.37 221.91,-334.1 186.64,-311 146.65,-284.81 117.55,-234.77 104.05,-207.98"/>
<polygon fill="midnightblue" stroke="midnightblue" points="107.04,-206.11 99.51,-198.65 100.74,-209.17 107.04,-206.11"/>
</g>
<!-- Node3 -->
<g id="node3" class="node">
<title>Node3</title>
<g id="a_node3"><a xlink:href="_o_m_sim_detector_construction_8hh_source.html" target="_top" xlink:title=" ">
<polygon fill="none" stroke="black" points="405.64,-235.5 405.64,-254.5 575.64,-254.5 575.64,-235.5 405.64,-235.5"/>
<text text-anchor="middle" x="490.64" y="-242.5" font-family="Helvetica,sans-Serif" font-size="10.00">OMSimDetectorConstruction.hh</text>
</a>
</g>
</g>
<!-- Node2&#45;&gt;Node3 -->
<g id="edge2" class="edge">
<title>Node2&#45;&gt;Node3</title>
<path fill="none" stroke="midnightblue" d="M1073.98,-297.22C992.34,-290.44 777.08,-272.44 585.93,-255.11"/>
<polygon fill="midnightblue" stroke="midnightblue" points="585.97,-251.6 575.69,-254.18 585.33,-258.57 585.97,-251.6"/>
</g>
<!-- Node39 -->
<g id="node20" class="node">
<title>Node39</title>
<g id="a_node20"><a xlink:title=" ">
<polygon fill="none" stroke="#bfbfbf" points="1186.14,-235.5 1186.14,-254.5 1307.14,-254.5 1307.14,-235.5 1186.14,-235.5"/>
<text text-anchor="middle" x="1246.64" y="-242.5" font-family="Helvetica,sans-Serif" font-size="10.00">OMSimPhysicsList.hh</text>
</a>
</g>
</g>
<!-- Node2&#45;&gt;Node39 -->
<g id="edge22" class="edge">
<title>Node2&#45;&gt;Node39</title>
<path fill="none" stroke="midnightblue" d="M1129.66,-291.44C1152.74,-282.48 1189.2,-268.31 1215.28,-258.18"/>
<polygon fill="midnightblue" stroke="midnightblue" points="1216.66,-261.4 1224.72,-254.52 1214.13,-254.88 1216.66,-261.4"/>
</g>
<!-- Node40 -->
<g id="node21" class="node">
<title>Node40</title>
<g id="a_node21"><a xlink:title=" ">
<polygon fill="none" stroke="#bfbfbf" points="1325.14,-235.5 1325.14,-254.5 1510.14,-254.5 1510.14,-235.5 1325.14,-235.5"/>
<text text-anchor="middle" x="1417.64" y="-242.5" font-family="Helvetica,sans-Serif" font-size="10.00">OMSimPrimaryGeneratorAction.hh</text>
</a>
</g>
</g>
<!-- Node2&#45;&gt;Node40 -->
<g id="edge23" class="edge">
<title>Node2&#45;&gt;Node40</title>
<path fill="none" stroke="midnightblue" d="M1141.41,-294.12C1193.54,-285.04 1294.32,-267.48 1358.67,-256.27"/>
<polygon fill="midnightblue" stroke="midnightblue" points="1359.42,-259.69 1368.67,-254.53 1358.22,-252.8 1359.42,-259.69"/>
</g>
<!-- Node41 -->
<g id="node22" class="node">
<title>Node41</title>
<g id="a_node22"><a xlink:href="_o_m_sim_run_action_8hh_source.html" target="_top" xlink:title=" ">
<polygon fill="none" stroke="black" points="881.64,-179.5 881.64,-198.5 997.64,-198.5 997.64,-179.5 881.64,-179.5"/>
<text text-anchor="middle" x="939.64" y="-186.5" font-family="Helvetica,sans-Serif" font-size="10.00">OMSimRunAction.hh</text>
</a>
</g>
</g>
<!-- Node2&#45;&gt;Node41 -->
<g id="edge24" class="edge">
<title>Node2&#45;&gt;Node41</title>
<path fill="none" stroke="midnightblue" d="M1094.18,-291.43C1080.06,-282.42 1057.24,-267.8 1037.64,-255 1011.22,-237.75 980.99,-217.64 961.17,-204.41"/>
<polygon fill="midnightblue" stroke="midnightblue" points="962.86,-201.33 952.6,-198.68 958.97,-207.15 962.86,-201.33"/>
</g>
<!-- Node45 -->
<g id="node31" class="node">
<title>Node45</title>
<g id="a_node31"><a xlink:title=" ">
<polygon fill="none" stroke="#bfbfbf" points="1528.14,-235.5 1528.14,-254.5 1653.14,-254.5 1653.14,-235.5 1528.14,-235.5"/>
<text text-anchor="middle" x="1590.64" y="-242.5" font-family="Helvetica,sans-Serif" font-size="10.00">OMSimEventAction.hh</text>
</a>
</g>
</g>
<!-- Node2&#45;&gt;Node45 -->
<g id="edge34" class="edge">
<title>Node2&#45;&gt;Node45</title>
<path fill="none" stroke="midnightblue" d="M1141.22,-296.5C1209.79,-289.31 1371.09,-272.21 1517.73,-255.09"/>
<polygon fill="midnightblue" stroke="midnightblue" points="1518.29,-258.55 1527.82,-253.91 1517.48,-251.6 1518.29,-258.55"/>
</g>
<!-- Node46 -->
<g id="node32" class="node">
<title>Node46</title>
<g id="a_node32"><a xlink:href="_o_m_sim_tracking_action_8hh_source.html" target="_top" xlink:title=" ">
<polygon fill="none" stroke="black" points="1671.64,-235.5 1671.64,-254.5 1809.64,-254.5 1809.64,-235.5 1671.64,-235.5"/>
<text text-anchor="middle" x="1740.64" y="-242.5" font-family="Helvetica,sans-Serif" font-size="10.00">OMSimTrackingAction.hh</text>
</a>
</g>
</g>
<!-- Node2&#45;&gt;Node46 -->
<g id="edge35" class="edge">
<title>Node2&#45;&gt;Node46</title>
<path fill="none" stroke="midnightblue" d="M1141.4,-297.64C1226.55,-291.61 1457.16,-274.76 1661.28,-255"/>
<polygon fill="midnightblue" stroke="midnightblue" points="1661.68,-258.48 1671.29,-254.03 1661,-251.51 1661.68,-258.48"/>
</g>
<!-- Node48 -->
<g id="node34" class="node">
<title>Node48</title>
<g id="a_node34"><a xlink:href="_o_m_sim_stepping_action_8hh.html" target="_top" xlink:title="Defines OMSimSteppingAction.Currently it only checks for trapped photons.">
<polygon fill="none" stroke="black" points="1827.64,-235.5 1827.64,-254.5 1967.64,-254.5 1967.64,-235.5 1827.64,-235.5"/>
<text text-anchor="middle" x="1897.64" y="-242.5" font-family="Helvetica,sans-Serif" font-size="10.00">OMSimSteppingAction.hh</text>
</a>
</g>
</g>
<!-- Node2&#45;&gt;Node48 -->
<g id="edge37" class="edge">
<title>Node2&#45;&gt;Node48</title>
<path fill="none" stroke="midnightblue" d="M1141.36,-298.47C1242.2,-293.76 1550.41,-278.44 1817.18,-255.09"/>
<polygon fill="midnightblue" stroke="midnightblue" points="1817.79,-258.55 1827.45,-254.18 1817.18,-251.57 1817.79,-258.55"/>
</g>
<!-- Node50 -->
<g id="node36" class="node">
<title>Node50</title>
<g id="a_node36"><a xlink:href="_o_m_sim_u_iinterface_8hh.html" target="_top" xlink:title=" ">
<polygon fill="none" stroke="black" points="1047.14,-235.5 1047.14,-254.5 1168.14,-254.5 1168.14,-235.5 1047.14,-235.5"/>
<text text-anchor="middle" x="1107.64" y="-242.5" font-family="Helvetica,sans-Serif" font-size="10.00">OMSimUIinterface.hh</text>
</a>
</g>
</g>
<!-- Node2&#45;&gt;Node50 -->
<g id="edge39" class="edge">
<title>Node2&#45;&gt;Node50</title>
<path fill="none" stroke="midnightblue" d="M1107.64,-291.08C1107.64,-284.01 1107.64,-273.86 1107.64,-264.99"/>
<polygon fill="midnightblue" stroke="midnightblue" points="1111.14,-264.75 1107.64,-254.75 1104.14,-264.75 1111.14,-264.75"/>
</g>
<!-- Node55 -->
<g id="node41" class="node">
<title>Node55</title>
<g id="a_node41"><a xlink:title=" ">
<polygon fill="none" stroke="#bfbfbf" points="1986.14,-235.5 1986.14,-254.5 2107.14,-254.5 2107.14,-235.5 1986.14,-235.5"/>
<text text-anchor="middle" x="2046.64" y="-242.5" font-family="Helvetica,sans-Serif" font-size="10.00">G4MTRunManager.hh</text>
</a>
</g>
</g>
<!-- Node2&#45;&gt;Node55 -->
<g id="edge47" class="edge">
<title>Node2&#45;&gt;Node55</title>
<path fill="none" stroke="midnightblue" d="M1141.26,-299.18C1256.15,-296.18 1643.95,-284.47 1975.67,-255.01"/>
<polygon fill="midnightblue" stroke="midnightblue" points="1976.32,-258.47 1985.96,-254.09 1975.69,-251.49 1976.32,-258.47"/>
</g>
<!-- Node56 -->
<g id="node42" class="node">
<title>Node56</title>
<g id="a_node42"><a xlink:title=" ">
<polygon fill="none" stroke="#bfbfbf" points="594.14,-235.5 594.14,-254.5 701.14,-254.5 701.14,-235.5 594.14,-235.5"/>
<text text-anchor="middle" x="647.64" y="-242.5" font-family="Helvetica,sans-Serif" font-size="10.00">G4VisExecutive.hh</text>
</a>
</g>
</g>
<!-- Node2&#45;&gt;Node56 -->
<g id="edge48" class="edge">
<title>Node2&#45;&gt;Node56</title>
<path fill="none" stroke="midnightblue" d="M1074.05,-296.56C1007.09,-289.64 851.96,-273.2 711.48,-255.21"/>
<polygon fill="midnightblue" stroke="midnightblue" points="711.76,-251.71 701.39,-253.91 710.87,-258.66 711.76,-251.71"/>
</g>
<!-- Node57 -->
<g id="node43" class="node">
<title>Node57</title>
<g id="a_node43"><a xlink:title=" ">
<polygon fill="none" stroke="#bfbfbf" points="719.14,-235.5 719.14,-254.5 822.14,-254.5 822.14,-235.5 719.14,-235.5"/>
<text text-anchor="middle" x="770.64" y="-242.5" font-family="Helvetica,sans-Serif" font-size="10.00">G4UIExecutive.hh</text>
</a>
</g>
</g>
<!-- Node2&#45;&gt;Node57 -->
<g id="edge49" class="edge">
<title>Node2&#45;&gt;Node57</title>
<path fill="none" stroke="midnightblue" d="M1074.09,-294.62C1017.84,-285.61 903.68,-267.32 832.54,-255.92"/>
<polygon fill="midnightblue" stroke="midnightblue" points="832.79,-252.41 822.36,-254.29 831.69,-259.33 832.79,-252.41"/>
</g>
<!-- Node58 -->
<g id="node44" class="node">
<title>Node58</title>
<g id="a_node44"><a xlink:title=" ">
<polygon fill="none" stroke="#bfbfbf" points="840.64,-235.5 840.64,-254.5 990.64,-254.5 990.64,-235.5 840.64,-235.5"/>
<text text-anchor="middle" x="915.64" y="-242.5" font-family="Helvetica,sans-Serif" font-size="10.00">boost/program_options.hpp</text>
</a>
</g>
</g>
<!-- Node2&#45;&gt;Node58 -->
<g id="edge50" class="edge">
<title>Node2&#45;&gt;Node58</title>
<path fill="none" stroke="midnightblue" d="M1077.22,-291.44C1044.35,-282.2 991.86,-267.44 955.67,-257.26"/>
<polygon fill="midnightblue" stroke="midnightblue" points="956.49,-253.85 945.92,-254.52 954.6,-260.59 956.49,-253.85"/>
</g>
<!-- Node4 -->
<g id="node4" class="node">
<title>Node4</title>
<g id="a_node4"><a xlink:href="_o_m_sim_optical_module_8hh_source.html" target="_top" xlink:title=" ">
<polygon fill="none" stroke="black" points="237.14,-179.5 237.14,-198.5 374.14,-198.5 374.14,-179.5 237.14,-179.5"/>
<text text-anchor="middle" x="305.64" y="-186.5" font-family="Helvetica,sans-Serif" font-size="10.00">OMSimOpticalModule.hh</text>
</a>
</g>
</g>
<!-- Node3&#45;&gt;Node4 -->
<g id="edge3" class="edge">
<title>Node3&#45;&gt;Node4</title>
<path fill="none" stroke="midnightblue" d="M461.33,-235.44C429.8,-226.24 379.51,-211.56 344.65,-201.39"/>
<polygon fill="midnightblue" stroke="midnightblue" points="345.4,-197.96 334.82,-198.52 343.44,-204.68 345.4,-197.96"/>
</g>
<!-- Node37 -->
<g id="node18" class="node">
<title>Node37</title>
<g id="a_node18"><a xlink:title=" ">
<polygon fill="none" stroke="#bfbfbf" points="782.64,-179.5 782.64,-198.5 844.64,-198.5 844.64,-179.5 782.64,-179.5"/>
<text text-anchor="middle" x="813.64" y="-186.5" font-family="Helvetica,sans-Serif" font-size="10.00">G4Orb.hh</text>
</a>
</g>
</g>
<!-- Node3&#45;&gt;Node37 -->
<g id="edge20" class="edge">
<title>Node3&#45;&gt;Node37</title>
<path fill="none" stroke="midnightblue" d="M551.28,-235.5C606.48,-227.5 690.43,-214.69 772.27,-199.17"/>
<polygon fill="midnightblue" stroke="midnightblue" points="773.07,-202.58 782.24,-197.26 771.76,-195.7 773.07,-202.58"/>
</g>
<!-- Node38 -->
<g id="node19" class="node">
<title>Node38</title>
<g id="a_node19"><a xlink:title=" ">
<polygon fill="none" stroke="#bfbfbf" points="586.64,-179.5 586.64,-198.5 764.64,-198.5 764.64,-179.5 586.64,-179.5"/>
<text text-anchor="middle" x="675.64" y="-186.5" font-family="Helvetica,sans-Serif" font-size="10.00">G4VUserDetectorConstruction.hh</text>
</a>
</g>
</g>
<!-- Node3&#45;&gt;Node38 -->
<g id="edge21" class="edge">
<title>Node3&#45;&gt;Node38</title>
<path fill="none" stroke="midnightblue" d="M519.95,-235.44C551.48,-226.24 601.77,-211.56 636.63,-201.39"/>
<polygon fill="midnightblue" stroke="midnightblue" points="637.84,-204.68 646.46,-198.52 635.88,-197.96 637.84,-204.68"/>
</g>
<!-- Node5 -->
<g id="node5" class="node">
<title>Node5</title>
<g id="a_node5"><a xlink:href="_o_m_sim_detector_component_8hh.html" target="_top" xlink:title="Provides helper base class OMSimDetectorComponent for constructing and managing detector components i...">
<polygon fill="none" stroke="red" points="82.14,-62 82.14,-81 247.14,-81 247.14,-62 82.14,-62"/>
<text text-anchor="middle" x="164.64" y="-69" font-family="Helvetica,sans-Serif" font-size="10.00">OMSimDetectorComponent.hh</text>
</a>
</g>
</g>
<!-- Node4&#45;&gt;Node5 -->
<g id="edge4" class="edge">
<title>Node4&#45;&gt;Node5</title>
<path fill="none" stroke="midnightblue" d="M291.29,-179.36C277.38,-170.75 255.91,-156.86 238.64,-143 217.16,-125.76 194.51,-103.5 180.02,-88.65"/>
<polygon fill="midnightblue" stroke="midnightblue" points="182.33,-86.01 172.87,-81.24 177.29,-90.87 182.33,-86.01"/>
</g>
<!-- Node26 -->
<g id="node6" class="node">
<title>Node26</title>
<g id="a_node6"><a xlink:href="_o_m_sim_hit_manager_8hh.html" target="_top" xlink:title="Defines structures and classes related to optical module photon hit management.">
<polygon fill="none" stroke="black" points="509.14,-123.5 509.14,-142.5 632.14,-142.5 632.14,-123.5 509.14,-123.5"/>
<text text-anchor="middle" x="570.64" y="-130.5" font-family="Helvetica,sans-Serif" font-size="10.00">OMSimHitManager.hh</text>
</a>
</g>
</g>
<!-- Node4&#45;&gt;Node26 -->
<g id="edge5" class="edge">
<title>Node4&#45;&gt;Node26</title>
<path fill="none" stroke="midnightblue" d="M347.63,-179.44C394.05,-169.98 468.87,-154.74 518.88,-144.55"/>
<polygon fill="midnightblue" stroke="midnightblue" points="519.75,-147.94 528.85,-142.52 518.35,-141.08 519.75,-147.94"/>
</g>
<!-- Node34 -->
<g id="node17" class="node">
<title>Node34</title>
<g id="a_node17"><a xlink:href="_o_m_sim_p_m_t_construction_8hh.html" target="_top" xlink:title="Construction of the PMTs.">
<polygon fill="none" stroke="red" points="248.14,-123.5 248.14,-142.5 397.14,-142.5 397.14,-123.5 248.14,-123.5"/>
<text text-anchor="middle" x="322.64" y="-130.5" font-family="Helvetica,sans-Serif" font-size="10.00">OMSimPMTConstruction.hh</text>
</a>
</g>
</g>
<!-- Node4&#45;&gt;Node34 -->
<g id="edge16" class="edge">
<title>Node4&#45;&gt;Node34</title>
<path fill="none" stroke="midnightblue" d="M308.45,-179.08C310.72,-171.85 314.01,-161.41 316.85,-152.4"/>
<polygon fill="midnightblue" stroke="midnightblue" points="320.22,-153.34 319.88,-142.75 313.54,-151.24 320.22,-153.34"/>
</g>
<!-- Node27 -->
<g id="node7" class="node">
<title>Node27</title>
<g id="a_node7"><a xlink:href="_o_m_sim_p_m_t_response_8hh.html" target="_top" xlink:title="Simulation of PMT response.">
<polygon fill="none" stroke="black" points="265.14,-62 265.14,-81 400.14,-81 400.14,-62 265.14,-62"/>
<text text-anchor="middle" x="332.64" y="-69" font-family="Helvetica,sans-Serif" font-size="10.00">OMSimPMTResponse.hh</text>
</a>
</g>
</g>
<!-- Node26&#45;&gt;Node27 -->
<g id="edge6" class="edge">
<title>Node26&#45;&gt;Node27</title>
<path fill="none" stroke="midnightblue" d="M536.54,-123.48C494.39,-112.94 422.59,-94.99 376.41,-83.44"/>
<polygon fill="midnightblue" stroke="midnightblue" points="377.23,-80.04 366.68,-81.01 375.53,-86.83 377.23,-80.04"/>
</g>
<!-- Node32 -->
<g id="node13" class="node">
<title>Node32</title>
<g id="a_node13"><a xlink:title=" ">
<polygon fill="none" stroke="#bfbfbf" points="418.14,-62 418.14,-81 521.14,-81 521.14,-62 418.14,-62"/>
<text text-anchor="middle" x="469.64" y="-69" font-family="Helvetica,sans-Serif" font-size="10.00">G4ThreeVector.hh</text>
</a>
</g>
</g>
<!-- Node26&#45;&gt;Node32 -->
<g id="edge12" class="edge">
<title>Node26&#45;&gt;Node32</title>
<path fill="none" stroke="midnightblue" d="M556.17,-123.48C539.67,-113.75 512.46,-97.73 492.96,-86.24"/>
<polygon fill="midnightblue" stroke="midnightblue" points="494.48,-83.07 484.08,-81.01 490.92,-89.1 494.48,-83.07"/>
</g>
<!-- Node33 -->
<g id="node14" class="node">
<title>Node33</title>
<g id="a_node14"><a xlink:title=" ">
<polygon fill="none" stroke="#bfbfbf" points="760.14,-62 760.14,-81 815.14,-81 815.14,-62 760.14,-62"/>
<text text-anchor="middle" x="787.64" y="-69" font-family="Helvetica,sans-Serif" font-size="10.00">fstream</text>
</a>
</g>
</g>
<!-- Node26&#45;&gt;Node33 -->
<g id="edge13" class="edge">
<title>Node26&#45;&gt;Node33</title>
<path fill="none" stroke="midnightblue" d="M611.09,-123.45C647.85,-115.31 703.39,-102.1 750.64,-87 752.91,-86.27 755.25,-85.48 757.59,-84.65"/>
<polygon fill="midnightblue" stroke="midnightblue" points="758.92,-87.88 767.07,-81.1 756.47,-81.33 758.92,-87.88"/>
</g>
<!-- Node18 -->
<g id="node15" class="node">
<title>Node18</title>
<g id="a_node15"><a xlink:title=" ">
<polygon fill="none" stroke="#bfbfbf" points="539.64,-62 539.64,-81 629.64,-81 629.64,-62 539.64,-62"/>
<text text-anchor="middle" x="584.64" y="-69" font-family="Helvetica,sans-Serif" font-size="10.00">G4AutoLock.hh</text>
</a>
</g>
</g>
<!-- Node26&#45;&gt;Node18 -->
<g id="edge14" class="edge">
<title>Node26&#45;&gt;Node18</title>
<path fill="none" stroke="midnightblue" d="M572.65,-123.48C574.64,-114.99 577.77,-101.7 580.33,-90.82"/>
<polygon fill="midnightblue" stroke="midnightblue" points="583.75,-91.54 582.64,-81.01 576.94,-89.94 583.75,-91.54"/>
</g>
<!-- Node19 -->
<g id="node16" class="node">
<title>Node19</title>
<g id="a_node16"><a xlink:title=" ">
<polygon fill="none" stroke="#bfbfbf" points="647.64,-62 647.64,-81 741.64,-81 741.64,-62 647.64,-62"/>
<text text-anchor="middle" x="694.64" y="-69" font-family="Helvetica,sans-Serif" font-size="10.00">G4Threading.hh</text>
</a>
</g>
</g>
<!-- Node26&#45;&gt;Node19 -->
<g id="edge15" class="edge">
<title>Node26&#45;&gt;Node19</title>
<path fill="none" stroke="midnightblue" d="M588.41,-123.48C609.12,-113.53 643.59,-96.99 667.63,-85.46"/>
<polygon fill="midnightblue" stroke="midnightblue" points="669.4,-88.49 676.91,-81.01 666.38,-82.18 669.4,-88.49"/>
</g>
<!-- Node20 -->
<g id="node8" class="node">
<title>Node20</title>
<g id="a_node8"><a xlink:title=" ">
<polygon fill="none" stroke="#bfbfbf" points="216.14,-0.5 216.14,-19.5 335.14,-19.5 335.14,-0.5 216.14,-0.5"/>
<text text-anchor="middle" x="275.64" y="-7.5" font-family="Helvetica,sans-Serif" font-size="10.00">G4SystemOfUnits.hh</text>
</a>
</g>
</g>
<!-- Node27&#45;&gt;Node20 -->
<g id="edge7" class="edge">
<title>Node27&#45;&gt;Node20</title>
<path fill="none" stroke="midnightblue" d="M324.47,-61.98C315.75,-52.87 301.74,-38.24 290.95,-26.98"/>
<polygon fill="midnightblue" stroke="midnightblue" points="293.24,-24.31 283.79,-19.51 288.18,-29.15 293.24,-24.31"/>
</g>
<!-- Node28 -->
<g id="node9" class="node">
<title>Node28</title>
<g id="a_node9"><a xlink:title=" ">
<polygon fill="none" stroke="#bfbfbf" points="353.14,-0.5 353.14,-19.5 426.14,-19.5 426.14,-0.5 353.14,-0.5"/>
<text text-anchor="middle" x="389.64" y="-7.5" font-family="Helvetica,sans-Serif" font-size="10.00">G4Types.hh</text>
</a>
</g>
</g>
<!-- Node27&#45;&gt;Node28 -->
<g id="edge8" class="edge">
<title>Node27&#45;&gt;Node28</title>
<path fill="none" stroke="midnightblue" d="M340.81,-61.98C349.53,-52.87 363.54,-38.24 374.33,-26.98"/>
<polygon fill="midnightblue" stroke="midnightblue" points="377.1,-29.15 381.49,-19.51 372.04,-24.31 377.1,-29.15"/>
</g>
<!-- Node29 -->
<g id="node10" class="node">
<title>Node29</title>
<g id="a_node10"><a xlink:title=" ">
<polygon fill="none" stroke="#bfbfbf" points="879.64,-0.5 879.64,-19.5 917.64,-19.5 917.64,-0.5 879.64,-0.5"/>
<text text-anchor="middle" x="898.64" y="-7.5" font-family="Helvetica,sans-Serif" font-size="10.00">map</text>
</a>
</g>
</g>
<!-- Node27&#45;&gt;Node29 -->
<g id="edge9" class="edge">
<title>Node27&#45;&gt;Node29</title>
<path fill="none" stroke="midnightblue" d="M373.54,-61.94C384.87,-59.78 397.2,-57.61 408.64,-56 582.39,-31.51 792.76,-17.35 869.14,-12.71"/>
<polygon fill="midnightblue" stroke="midnightblue" points="869.64,-16.18 879.42,-12.09 869.22,-9.2 869.64,-16.18"/>
</g>
<!-- Node30 -->
<g id="node11" class="node">
<title>Node30</title>
<g id="a_node11"><a xlink:title=" ">
<polygon fill="none" stroke="#bfbfbf" points="128.14,-0.5 128.14,-19.5 189.14,-19.5 189.14,-0.5 128.14,-0.5"/>
<text text-anchor="middle" x="158.64" y="-7.5" font-family="Helvetica,sans-Serif" font-size="10.00">TGraph.h</text>
</a>
</g>
</g>
<!-- Node27&#45;&gt;Node30 -->
<g id="edge10" class="edge">
<title>Node27&#45;&gt;Node30</title>
<path fill="none" stroke="midnightblue" d="M307.71,-61.98C277.6,-51.68 226.81,-34.31 193,-22.75"/>
<polygon fill="midnightblue" stroke="midnightblue" points="194.12,-19.43 183.52,-19.51 191.85,-26.06 194.12,-19.43"/>
</g>
<!-- Node31 -->
<g id="node12" class="node">
<title>Node31</title>
<g id="a_node12"><a xlink:title=" ">
<polygon fill="none" stroke="#bfbfbf" points="39.14,-0.5 39.14,-19.5 92.14,-19.5 92.14,-0.5 39.14,-0.5"/>
<text text-anchor="middle" x="65.64" y="-7.5" font-family="Helvetica,sans-Serif" font-size="10.00">TH2D.h</text>
</a>
</g>
</g>
<!-- Node27&#45;&gt;Node31 -->
<g id="edge11" class="edge">
<title>Node27&#45;&gt;Node31</title>
<path fill="none" stroke="midnightblue" d="M294.39,-61.98C243.12,-50.55 152.77,-30.42 102.32,-19.17"/>
<polygon fill="midnightblue" stroke="midnightblue" points="103.01,-15.74 92.49,-16.98 101.49,-22.57 103.01,-15.74"/>
</g>
<!-- Node34&#45;&gt;Node5 -->
<g id="edge17" class="edge">
<title>Node34&#45;&gt;Node5</title>
<path fill="none" stroke="midnightblue" d="M300,-123.48C272.9,-113.27 227.33,-96.11 196.64,-84.55"/>
<polygon fill="midnightblue" stroke="midnightblue" points="197.83,-81.26 187.24,-81.01 195.36,-87.81 197.83,-81.26"/>
</g>
<!-- Node34&#45;&gt;Node27 -->
<g id="edge19" class="edge">
<title>Node34&#45;&gt;Node27</title>
<path fill="none" stroke="midnightblue" d="M324.07,-123.48C325.48,-115.08 327.69,-101.98 329.5,-91.16"/>
<polygon fill="midnightblue" stroke="midnightblue" points="333,-91.45 331.21,-81.01 326.1,-90.29 333,-91.45"/>
</g>
<!-- Node34&#45;&gt;Node34 -->
<g id="edge18" class="edge">
<title>Node34&#45;&gt;Node34</title>
<path fill="none" stroke="midnightblue" d="M362.09,-142.53C388.9,-145.31 415.14,-142.13 415.14,-133 415.14,-125.01 395.05,-121.58 372.07,-122.71"/>
<polygon fill="midnightblue" stroke="midnightblue" points="371.79,-119.22 362.09,-123.47 372.33,-126.2 371.79,-119.22"/>
</g>
<!-- Node41&#45;&gt;Node26 -->
<g id="edge26" class="edge">
<title>Node41&#45;&gt;Node26</title>
<path fill="none" stroke="midnightblue" d="M881.58,-179.5C815.81,-169.88 708.73,-154.21 638.98,-144"/>
<polygon fill="midnightblue" stroke="midnightblue" points="639.37,-140.52 628.97,-142.54 638.36,-147.45 639.37,-140.52"/>
</g>
<!-- Node42 -->
<g id="node23" class="node">
<title>Node42</title>
<g id="a_node23"><a xlink:title=" ">
<polygon fill="none" stroke="#bfbfbf" points="771.14,-123.5 771.14,-142.5 888.14,-142.5 888.14,-123.5 771.14,-123.5"/>
<text text-anchor="middle" x="829.64" y="-130.5" font-family="Helvetica,sans-Serif" font-size="10.00">G4UserRunAction.hh</text>
</a>
</g>
</g>
<!-- Node41&#45;&gt;Node42 -->
<g id="edge25" class="edge">
<title>Node41&#45;&gt;Node42</title>
<path fill="none" stroke="midnightblue" d="M921.97,-179.32C904.25,-170.62 876.74,-157.12 856.35,-147.11"/>
<polygon fill="midnightblue" stroke="midnightblue" points="857.79,-143.92 847.27,-142.65 854.7,-150.2 857.79,-143.92"/>
</g>
<!-- Node7 -->
<g id="node24" class="node">
<title>Node7</title>
<g id="a_node24"><a xlink:href="_o_m_sim_logger_8hh_source.html" target="_top" xlink:title=" ">
<polygon fill="none" stroke="black" points="1049.14,-123.5 1049.14,-142.5 1148.14,-142.5 1148.14,-123.5 1049.14,-123.5"/>
<text text-anchor="middle" x="1098.64" y="-130.5" font-family="Helvetica,sans-Serif" font-size="10.00">OMSimLogger.hh</text>
</a>
</g>
</g>
<!-- Node41&#45;&gt;Node7 -->
<g id="edge27" class="edge">
<title>Node41&#45;&gt;Node7</title>
<path fill="none" stroke="midnightblue" d="M964.83,-179.44C991.58,-170.36 1034.04,-155.94 1063.95,-145.78"/>
<polygon fill="midnightblue" stroke="midnightblue" points="1065.22,-149.05 1073.56,-142.52 1062.97,-142.42 1065.22,-149.05"/>
</g>
<!-- Node43 -->
<g id="node29" class="node">
<title>Node43</title>
<g id="a_node29"><a xlink:title=" ">
<polygon fill="none" stroke="#bfbfbf" points="906.64,-123.5 906.64,-142.5 992.64,-142.5 992.64,-123.5 906.64,-123.5"/>
<text text-anchor="middle" x="949.64" y="-130.5" font-family="Helvetica,sans-Serif" font-size="10.00">Randomize.hh</text>
</a>
</g>
</g>
<!-- Node41&#45;&gt;Node43 -->
<g id="edge32" class="edge">
<title>Node41&#45;&gt;Node43</title>
<path fill="none" stroke="midnightblue" d="M941.29,-179.08C942.62,-171.93 944.52,-161.64 946.18,-152.69"/>
<polygon fill="midnightblue" stroke="midnightblue" points="949.64,-153.22 948.02,-142.75 942.76,-151.95 949.64,-153.22"/>
</g>
<!-- Node44 -->
<g id="node30" class="node">
<title>Node44</title>
<g id="a_node30"><a xlink:title=" ">
<polygon fill="none" stroke="#bfbfbf" points="688.64,-123.5 688.64,-142.5 752.64,-142.5 752.64,-123.5 688.64,-123.5"/>
<text text-anchor="middle" x="720.64" y="-130.5" font-family="Helvetica,sans-Serif" font-size="10.00">G4Run.hh</text>
</a>
</g>
</g>
<!-- Node41&#45;&gt;Node44 -->
<g id="edge33" class="edge">
<title>Node41&#45;&gt;Node44</title>
<path fill="none" stroke="midnightblue" d="M904.94,-179.44C866.28,-169.91 803.78,-154.5 762.45,-144.31"/>
<polygon fill="midnightblue" stroke="midnightblue" points="763.23,-140.9 752.68,-141.9 761.56,-147.69 763.23,-140.9"/>
</g>
<!-- Node8 -->
<g id="node25" class="node">
<title>Node8</title>
<g id="a_node25"><a xlink:title=" ">
<polygon fill="none" stroke="#bfbfbf" points="1155.14,-62 1155.14,-81 1248.14,-81 1248.14,-62 1155.14,-62"/>
<text text-anchor="middle" x="1201.64" y="-69" font-family="Helvetica,sans-Serif" font-size="10.00">spdlog/spdlog.h</text>
</a>
</g>
</g>
<!-- Node7&#45;&gt;Node8 -->
<g id="edge28" class="edge">
<title>Node7&#45;&gt;Node8</title>
<path fill="none" stroke="midnightblue" d="M1113.4,-123.48C1130.3,-113.71 1158.22,-97.58 1178.13,-86.08"/>
<polygon fill="midnightblue" stroke="midnightblue" points="1180,-89.04 1186.91,-81.01 1176.5,-82.98 1180,-89.04"/>
</g>
<!-- Node9 -->
<g id="node26" class="node">
<title>Node9</title>
<g id="a_node26"><a xlink:title=" ">
<polygon fill="none" stroke="#bfbfbf" points="833.14,-56.5 833.14,-86.5 944.14,-86.5 944.14,-56.5 833.14,-56.5"/>
<text text-anchor="start" x="841.14" y="-74.5" font-family="Helvetica,sans-Serif" font-size="10.00">spdlog/sinks/stdout</text>
<text text-anchor="middle" x="888.64" y="-63.5" font-family="Helvetica,sans-Serif" font-size="10.00">_color_sinks.h</text>
</a>
</g>
</g>
<!-- Node7&#45;&gt;Node9 -->
<g id="edge29" class="edge">
<title>Node7&#45;&gt;Node9</title>
<path fill="none" stroke="midnightblue" d="M1068.55,-123.48C1037.19,-114.59 987.21,-100.43 947.88,-89.29"/>
<polygon fill="midnightblue" stroke="midnightblue" points="948.71,-85.88 938.13,-86.52 946.8,-92.62 948.71,-85.88"/>
</g>
<!-- Node10 -->
<g id="node27" class="node">
<title>Node10</title>
<g id="a_node27"><a xlink:title=" ">
<polygon fill="none" stroke="#bfbfbf" points="962.64,-62 962.64,-81 1020.64,-81 1020.64,-62 962.64,-62"/>
<text text-anchor="middle" x="991.64" y="-69" font-family="Helvetica,sans-Serif" font-size="10.00">memory</text>
</a>
</g>
</g>
<!-- Node7&#45;&gt;Node10 -->
<g id="edge30" class="edge">
<title>Node7&#45;&gt;Node10</title>
<path fill="none" stroke="midnightblue" d="M1083.31,-123.48C1065.67,-113.67 1036.48,-97.43 1015.78,-85.92"/>
<polygon fill="midnightblue" stroke="midnightblue" points="1017.38,-82.81 1006.94,-81.01 1013.98,-88.93 1017.38,-82.81"/>
</g>
<!-- Node11 -->
<g id="node28" class="node">
<title>Node11</title>
<g id="a_node28"><a xlink:title=" ">
<polygon fill="none" stroke="#bfbfbf" points="1038.64,-62 1038.64,-81 1136.64,-81 1136.64,-62 1038.64,-62"/>
<text text-anchor="middle" x="1087.64" y="-69" font-family="Helvetica,sans-Serif" font-size="10.00">spdlog/fmt/fmt.h</text>
</a>
</g>
</g>
<!-- Node7&#45;&gt;Node11 -->
<g id="edge31" class="edge">
<title>Node7&#45;&gt;Node11</title>
<path fill="none" stroke="midnightblue" d="M1097.06,-123.48C1095.51,-115.08 1093.09,-101.98 1091.09,-91.16"/>
<polygon fill="midnightblue" stroke="midnightblue" points="1094.47,-90.21 1089.21,-81.01 1087.59,-91.48 1094.47,-90.21"/>
</g>
<!-- Node47 -->
<g id="node33" class="node">
<title>Node47</title>
<g id="a_node33"><a xlink:title=" ">
<polygon fill="none" stroke="#bfbfbf" points="1670.14,-179.5 1670.14,-198.5 1809.14,-198.5 1809.14,-179.5 1670.14,-179.5"/>
<text text-anchor="middle" x="1739.64" y="-186.5" font-family="Helvetica,sans-Serif" font-size="10.00">G4UserTrackingAction.hh</text>
</a>
</g>
</g>
<!-- Node46&#45;&gt;Node47 -->
<g id="edge36" class="edge">
<title>Node46&#45;&gt;Node47</title>
<path fill="none" stroke="midnightblue" d="M1740.47,-235.08C1740.34,-228.01 1740.16,-217.86 1739.99,-208.99"/>
<polygon fill="midnightblue" stroke="midnightblue" points="1743.49,-208.68 1739.8,-198.75 1736.49,-208.81 1743.49,-208.68"/>
</g>
<!-- Node49 -->
<g id="node35" class="node">
<title>Node49</title>
<g id="a_node35"><a xlink:title=" ">
<polygon fill="none" stroke="#bfbfbf" points="1827.14,-179.5 1827.14,-198.5 1968.14,-198.5 1968.14,-179.5 1827.14,-179.5"/>
<text text-anchor="middle" x="1897.64" y="-186.5" font-family="Helvetica,sans-Serif" font-size="10.00">G4UserSteppingAction.hh</text>
</a>
</g>
</g>
<!-- Node48&#45;&gt;Node49 -->
<g id="edge38" class="edge">
<title>Node48&#45;&gt;Node49</title>
<path fill="none" stroke="midnightblue" d="M1897.64,-235.08C1897.64,-228.01 1897.64,-217.86 1897.64,-208.99"/>
<polygon fill="midnightblue" stroke="midnightblue" points="1901.14,-208.75 1897.64,-198.75 1894.14,-208.75 1901.14,-208.75"/>
</g>
<!-- Node51 -->
<g id="node37" class="node">
<title>Node51</title>
<g id="a_node37"><a xlink:href="_o_m_sim_command_args_table_8hh.html" target="_top" xlink:title="Definition of the OMSimCommandArgsTable singleton class, which controls user args.">
<polygon fill="none" stroke="black" points="1025.64,-179.5 1025.64,-198.5 1189.64,-198.5 1189.64,-179.5 1025.64,-179.5"/>
<text text-anchor="middle" x="1107.64" y="-186.5" font-family="Helvetica,sans-Serif" font-size="10.00">OMSimCommandArgsTable.hh</text>
</a>
</g>
</g>
<!-- Node50&#45;&gt;Node51 -->
<g id="edge40" class="edge">
<title>Node50&#45;&gt;Node51</title>
<path fill="none" stroke="midnightblue" d="M1107.64,-235.08C1107.64,-228.01 1107.64,-217.86 1107.64,-208.99"/>
<polygon fill="midnightblue" stroke="midnightblue" points="1111.14,-208.75 1107.64,-198.75 1104.14,-208.75 1111.14,-208.75"/>
</g>
<!-- Node54 -->
<g id="node40" class="node">
<title>Node54</title>
<g id="a_node40"><a xlink:title=" ">
<polygon fill="none" stroke="#bfbfbf" points="1207.64,-179.5 1207.64,-198.5 1305.64,-198.5 1305.64,-179.5 1207.64,-179.5"/>
<text text-anchor="middle" x="1256.64" y="-186.5" font-family="Helvetica,sans-Serif" font-size="10.00">G4UImanager.hh</text>
</a>
</g>
</g>
<!-- Node50&#45;&gt;Node54 -->
<g id="edge46" class="edge">
<title>Node50&#45;&gt;Node54</title>
<path fill="none" stroke="midnightblue" d="M1131.25,-235.44C1156.1,-226.44 1195.41,-212.19 1223.39,-202.05"/>
<polygon fill="midnightblue" stroke="midnightblue" points="1224.93,-205.21 1233.14,-198.52 1222.55,-198.63 1224.93,-205.21"/>
</g>
<!-- Node51&#45;&gt;Node29 -->
<g id="edge45" class="edge">
<title>Node51&#45;&gt;Node29</title>
<path fill="none" stroke="midnightblue" d="M1176.1,-179.45C1200.49,-173.12 1226.21,-162.11 1243.64,-143 1269.99,-114.12 1282.5,-85.32 1256.64,-56 1234.98,-31.44 1009.84,-16.98 928.09,-12.5"/>
<polygon fill="midnightblue" stroke="midnightblue" points="928.15,-9 917.98,-11.96 927.78,-15.99 928.15,-9"/>
</g>
<!-- Node51&#45;&gt;Node33 -->
<g id="edge42" class="edge">
<title>Node51&#45;&gt;Node33</title>
<path fill="none" stroke="midnightblue" d="M1094.69,-179.27C1070.91,-163.36 1020.92,-130.59 1001.64,-123 926.53,-93.45 900.95,-110.17 823.64,-87 821.35,-86.31 819.01,-85.54 816.67,-84.72"/>
<polygon fill="midnightblue" stroke="midnightblue" points="817.8,-81.4 807.21,-81.14 815.33,-87.95 817.8,-81.4"/>
</g>
<!-- Node51&#45;&gt;Node7 -->
<g id="edge41" class="edge">
<title>Node51&#45;&gt;Node7</title>
<path fill="none" stroke="midnightblue" d="M1106.15,-179.08C1104.96,-171.93 1103.25,-161.64 1101.76,-152.69"/>
<polygon fill="midnightblue" stroke="midnightblue" points="1105.19,-152.04 1100.1,-142.75 1098.29,-153.19 1105.19,-152.04"/>
</g>
<!-- Node52 -->
<g id="node38" class="node">
<title>Node52</title>
<g id="a_node38"><a xlink:title=" ">
<polygon fill="none" stroke="#bfbfbf" points="1304.64,-123.5 1304.64,-142.5 1388.64,-142.5 1388.64,-123.5 1304.64,-123.5"/>
<text text-anchor="middle" x="1346.64" y="-130.5" font-family="Helvetica,sans-Serif" font-size="10.00">boost/any.hpp</text>
</a>
</g>
</g>
<!-- Node51&#45;&gt;Node52 -->
<g id="edge43" class="edge">
<title>Node51&#45;&gt;Node52</title>
<path fill="none" stroke="midnightblue" d="M1145.51,-179.44C1187.12,-170.04 1254.01,-154.93 1299.11,-144.74"/>
<polygon fill="midnightblue" stroke="midnightblue" points="1299.96,-148.13 1308.95,-142.52 1298.42,-141.31 1299.96,-148.13"/>
</g>
<!-- Node53 -->
<g id="node39" class="node">
<title>Node53</title>
<g id="a_node39"><a xlink:title=" ">
<polygon fill="none" stroke="#bfbfbf" points="1166.64,-123.5 1166.64,-142.5 1234.64,-142.5 1234.64,-123.5 1166.64,-123.5"/>
<text text-anchor="middle" x="1200.64" y="-130.5" font-family="Helvetica,sans-Serif" font-size="10.00">sys/time.h</text>
</a>
</g>
</g>
<!-- Node51&#45;&gt;Node53 -->
<g id="edge44" class="edge">
<title>Node51&#45;&gt;Node53</title>
<path fill="none" stroke="midnightblue" d="M1122.58,-179.32C1137.23,-170.82 1159.77,-157.73 1176.88,-147.8"/>
<polygon fill="midnightblue" stroke="midnightblue" points="1178.84,-150.7 1185.73,-142.65 1175.33,-144.65 1178.84,-150.7"/>
</g>
<!-- Node60 -->
<g id="node46" class="node">
<title>Node60</title>
<g id="a_node46"><a xlink:title=" ">
<polygon fill="none" stroke="#bfbfbf" points="125.14,-123.5 125.14,-142.5 192.14,-142.5 192.14,-123.5 125.14,-123.5"/>
<text text-anchor="middle" x="158.64" y="-130.5" font-family="Helvetica,sans-Serif" font-size="10.00">globals.hh</text>
</a>
</g>
</g>
<!-- Node59&#45;&gt;Node60 -->
<g id="edge52" class="edge">
<title>Node59&#45;&gt;Node60</title>
<path fill="none" stroke="midnightblue" d="M254.21,-291.08C238.1,-264.61 190.41,-186.21 169.11,-151.21"/>
<polygon fill="midnightblue" stroke="midnightblue" points="172.04,-149.29 163.85,-142.57 166.06,-152.93 172.04,-149.29"/>
</g>
<!-- Node61&#45;&gt;Node26 -->
<g id="edge55" class="edge">
<title>Node61&#45;&gt;Node26</title>
<path fill="none" stroke="midnightblue" d="M495.1,-179.32C509.14,-170.9 530.69,-157.97 547.18,-148.07"/>
<polygon fill="midnightblue" stroke="midnightblue" points="549.44,-150.8 556.22,-142.65 545.84,-144.8 549.44,-150.8"/>
</g>
<!-- Node61&#45;&gt;Node27 -->
<g id="edge54" class="edge">
<title>Node61&#45;&gt;Node27</title>
<path fill="none" stroke="midnightblue" d="M474.43,-179.15C464.74,-165.77 444.9,-140.15 423.64,-123 404.72,-107.74 380.55,-94.57 361.88,-85.51"/>
<polygon fill="midnightblue" stroke="midnightblue" points="363.2,-82.27 352.67,-81.16 360.21,-88.59 363.2,-82.27"/>
</g>
<!-- Node61&#45;&gt;Node32 -->
<g id="edge56" class="edge">
<title>Node61&#45;&gt;Node32</title>
<path fill="none" stroke="midnightblue" d="M479.81,-179.32C478.05,-160.76 473.86,-116.84 471.45,-91.47"/>
<polygon fill="midnightblue" stroke="midnightblue" points="474.91,-90.91 470.48,-81.28 467.94,-91.57 474.91,-90.91"/>
</g>
<!-- Node61&#45;&gt;Node33 -->
<g id="edge57" class="edge">
<title>Node61&#45;&gt;Node33</title>
<path fill="none" stroke="midnightblue" d="M519.17,-179.46C552.02,-171.63 600.21,-158.87 640.64,-143 658.77,-135.88 662.15,-131.57 679.64,-123 706.56,-109.81 737.58,-95.38 759.45,-85.34"/>
<polygon fill="midnightblue" stroke="midnightblue" points="761.18,-88.4 768.81,-81.05 758.26,-82.03 761.18,-88.4"/>
</g>
<!-- Node62&#45;&gt;Node3 -->
<g id="edge59" class="edge">
<title>Node62&#45;&gt;Node3</title>
<path fill="none" stroke="midnightblue" d="M490.64,-291.08C490.64,-284.01 490.64,-273.86 490.64,-264.99"/>
<polygon fill="midnightblue" stroke="midnightblue" points="494.14,-264.75 490.64,-254.75 487.14,-264.75 494.14,-264.75"/>
</g>
<!-- Node63&#45;&gt;Node30 -->
<g id="edge63" class="edge">
<title>Node63&#45;&gt;Node30</title>
<path fill="none" stroke="midnightblue" d="M80.98,-179.4C69.23,-171.58 53.61,-158.86 46.64,-143 43.06,-134.86 45,-131.74 46.64,-123 52.52,-91.6 51.35,-79.81 72.64,-56 85.78,-41.3 104.88,-30.63 121.75,-23.39"/>
<polygon fill="midnightblue" stroke="midnightblue" points="123.39,-26.5 131.35,-19.51 120.77,-20.01 123.39,-26.5"/>
</g>
<!-- Node63&#45;&gt;Node31 -->
<g id="edge64" class="edge">
<title>Node63&#45;&gt;Node31</title>
<path fill="none" stroke="midnightblue" d="M63.83,-179.38C45.69,-172.66 24.48,-161.31 13.64,-143 -6.06,-109.73 -2.43,-91.17 13.64,-56 19.42,-43.36 30.69,-32.91 41.27,-25.27"/>
<polygon fill="midnightblue" stroke="midnightblue" points="43.49,-28 49.86,-19.53 39.6,-22.18 43.49,-28"/>
</g>
<!-- Node63&#45;&gt;Node7 -->
<g id="edge61" class="edge">
<title>Node63&#45;&gt;Node7</title>
<path fill="none" stroke="midnightblue" d="M141.75,-184.61C167.09,-182.81 199.09,-180.64 227.64,-179 571.45,-159.29 658.1,-166.91 1001.64,-143 1013.63,-142.17 1026.45,-141.1 1038.7,-140"/>
<polygon fill="midnightblue" stroke="midnightblue" points="1039.19,-143.47 1048.83,-139.06 1038.55,-136.5 1039.19,-143.47"/>
</g>
<!-- Node63&#45;&gt;Node60 -->
<g id="edge62" class="edge">
<title>Node63&#45;&gt;Node60</title>
<path fill="none" stroke="midnightblue" d="M105.76,-179.32C115.17,-171.26 129.38,-159.08 140.71,-149.37"/>
<polygon fill="midnightblue" stroke="midnightblue" points="143.02,-152 148.33,-142.83 138.46,-146.68 143.02,-152"/>
</g>
<!-- Node64 -->
<g id="node50" class="node">
<title>Node64</title>
<g id="a_node50"><a xlink:title=" ">
<polygon fill="none" stroke="#bfbfbf" points="56.14,-123.5 56.14,-142.5 107.14,-142.5 107.14,-123.5 56.14,-123.5"/>
<text text-anchor="middle" x="81.64" y="-130.5" font-family="Helvetica,sans-Serif" font-size="10.00">variant</text>
</a>
</g>
</g>
<!-- Node63&#45;&gt;Node64 -->
<g id="edge65" class="edge">
<title>Node63&#45;&gt;Node64</title>
<path fill="none" stroke="midnightblue" d="M93.33,-179.08C91.47,-171.93 88.8,-161.64 86.49,-152.69"/>
<polygon fill="midnightblue" stroke="midnightblue" points="89.81,-151.55 83.91,-142.75 83.03,-153.31 89.81,-151.55"/>
</g>
</g>
</svg>
