<?xml version="1.0" encoding="UTF-8" standalone="no"?>
<!DOCTYPE svg PUBLIC "-//W3C//DTD SVG 1.1//EN"
 "http://www.w3.org/Graphics/SVG/1.1/DTD/svg11.dtd">
<!-- Generated by graphviz version 2.43.0 (0)
 -->
<!-- Title: OMSimCommandArgsTable.hh Pages: 1 -->
<svg width="4209pt" height="196pt"
 viewBox="0.00 0.00 4209.00 196.00" xmlns="http://www.w3.org/2000/svg" xmlns:xlink="http://www.w3.org/1999/xlink">
<g id="graph0" class="graph" transform="scale(1 1) rotate(0) translate(4 192)">
<title>OMSimCommandArgsTable.hh</title>
<polygon fill="white" stroke="transparent" points="-4,4 -4,-192 4205,-192 4205,4 -4,4"/>
<!-- Node1 -->
<g id="node1" class="node">
<title>Node1</title>
<g id="a_node1"><a xlink:title="Definition of the OMSimCommandArgsTable singleton class, which controls user args.">
<polygon fill="#bfbfbf" stroke="black" points="1866,-168.5 1866,-187.5 2030,-187.5 2030,-168.5 1866,-168.5"/>
<text text-anchor="middle" x="1948" y="-175.5" font-family="Helvetica,sans-Serif" font-size="10.00">OMSimCommandArgsTable.hh</text>
</a>
</g>
</g>
<!-- Node2 -->
<g id="node2" class="node">
<title>Node2</title>
<g id="a_node2"><a xlink:href="_o_m_sim_data_file_types_8hh.html" target="_top" xlink:title="Collection of classes and methods to handle material creation from user data in json files.">
<polygon fill="white" stroke="black" points="141.5,-112.5 141.5,-131.5 276.5,-131.5 276.5,-112.5 141.5,-112.5"/>
<text text-anchor="middle" x="209" y="-119.5" font-family="Helvetica,sans-Serif" font-size="10.00">OMSimDataFileTypes.hh</text>
</a>
</g>
</g>
<!-- Node1&#45;&gt;Node2 -->
<g id="edge1" class="edge">
<title>Node1&#45;&gt;Node2</title>
<path fill="none" stroke="midnightblue" d="M1855.6,-176.98C1604.51,-176.38 888.71,-171.09 295,-132 289.01,-131.61 282.79,-131.11 276.56,-130.57"/>
<polygon fill="midnightblue" stroke="midnightblue" points="1855.76,-180.48 1865.77,-177 1855.78,-173.48 1855.76,-180.48"/>
</g>
<!-- Node4 -->
<g id="node4" class="node">
<title>Node4</title>
<g id="a_node4"><a xlink:href="_o_m_sim_input_data_8cc.html" target="_top" xlink:title=" ">
<polygon fill="white" stroke="black" points="152.5,-56.5 152.5,-75.5 265.5,-75.5 265.5,-56.5 152.5,-56.5"/>
<text text-anchor="middle" x="209" y="-63.5" font-family="Helvetica,sans-Serif" font-size="10.00">OMSimInputData.cc</text>
</a>
</g>
</g>
<!-- Node1&#45;&gt;Node4 -->
<g id="edge14" class="edge">
<title>Node1&#45;&gt;Node4</title>
<path fill="none" stroke="midnightblue" d="M1855.8,-176.51C1537.9,-174.55 499.05,-165.6 353,-132 302.48,-120.38 248.07,-90.49 223.05,-75.64"/>
<polygon fill="midnightblue" stroke="midnightblue" points="1855.87,-180.02 1865.89,-176.58 1855.92,-173.02 1855.87,-180.02"/>
</g>
<!-- Node5 -->
<g id="node5" class="node">
<title>Node5</title>
<g id="a_node5"><a xlink:href="_o_m_sim_u_iinterface_8hh.html" target="_top" xlink:title="The OMSimUIinterface class provides a singleton interface to Geant4&#39;s UI manager.">
<polygon fill="white" stroke="black" points="379.5,-112.5 379.5,-131.5 500.5,-131.5 500.5,-112.5 379.5,-112.5"/>
<text text-anchor="middle" x="440" y="-119.5" font-family="Helvetica,sans-Serif" font-size="10.00">OMSimUIinterface.hh</text>
</a>
</g>
</g>
<!-- Node1&#45;&gt;Node5 -->
<g id="edge4" class="edge">
<title>Node1&#45;&gt;Node5</title>
<path fill="none" stroke="midnightblue" d="M1855.71,-177.2C1627.21,-177.01 1016.98,-172.43 510,-132 506.95,-131.76 503.82,-131.47 500.67,-131.16"/>
<polygon fill="midnightblue" stroke="midnightblue" points="1855.97,-180.7 1865.97,-177.2 1855.97,-173.7 1855.97,-180.7"/>
</g>
<!-- Node11 -->
<g id="node11" class="node">
<title>Node11</title>
<g id="a_node11"><a xlink:href="_o_m_sim_m_d_o_m_flasher_8cc.html" target="_top" xlink:title=" ">
<polygon fill="white" stroke="black" points="284,-56.5 284,-75.5 418,-75.5 418,-56.5 284,-56.5"/>
<text text-anchor="middle" x="351" y="-63.5" font-family="Helvetica,sans-Serif" font-size="10.00">OMSimMDOMFlasher.cc</text>
</a>
</g>
</g>
<!-- Node1&#45;&gt;Node11 -->
<g id="edge24" class="edge">
<title>Node1&#45;&gt;Node11</title>
<path fill="none" stroke="midnightblue" d="M1855.45,-177.34C1526.31,-178.18 428.97,-177.53 370,-132 352.69,-118.64 350.5,-90.38 350.6,-75.92"/>
<polygon fill="midnightblue" stroke="midnightblue" points="1855.9,-180.84 1865.89,-177.32 1855.88,-173.84 1855.9,-180.84"/>
</g>
<!-- Node14 -->
<g id="node14" class="node">
<title>Node14</title>
<g id="a_node14"><a xlink:href="_o_m_sim_hit_manager_8cc.html" target="_top" xlink:title=" ">
<polygon fill="white" stroke="black" points="519,-112.5 519,-131.5 641,-131.5 641,-112.5 519,-112.5"/>
<text text-anchor="middle" x="580" y="-119.5" font-family="Helvetica,sans-Serif" font-size="10.00">OMSimHitManager.cc</text>
</a>
</g>
</g>
<!-- Node1&#45;&gt;Node14 -->
<g id="edge13" class="edge">
<title>Node1&#45;&gt;Node14</title>
<path fill="none" stroke="midnightblue" d="M1855.65,-176.75C1642.73,-175.53 1101.08,-168.74 650,-132 647.07,-131.76 644.07,-131.49 641.05,-131.19"/>
<polygon fill="midnightblue" stroke="midnightblue" points="1855.82,-180.25 1865.84,-176.81 1855.86,-173.25 1855.82,-180.25"/>
</g>
<!-- Node15 -->
<g id="node15" class="node">
<title>Node15</title>
<g id="a_node15"><a xlink:href="_o_m_sim_p_m_t_response_8cc.html" target="_top" xlink:title=" ">
<polygon fill="white" stroke="black" points="659,-112.5 659,-131.5 793,-131.5 793,-112.5 659,-112.5"/>
<text text-anchor="middle" x="726" y="-119.5" font-family="Helvetica,sans-Serif" font-size="10.00">OMSimPMTResponse.cc</text>
</a>
</g>
</g>
<!-- Node1&#45;&gt;Node15 -->
<g id="edge15" class="edge">
<title>Node1&#45;&gt;Node15</title>
<path fill="none" stroke="midnightblue" d="M1855.68,-175.84C1660.77,-172.83 1192.99,-162.78 802,-132 799.09,-131.77 796.11,-131.51 793.11,-131.24"/>
<polygon fill="midnightblue" stroke="midnightblue" points="1855.83,-179.34 1865.88,-175.99 1855.94,-172.34 1855.83,-179.34"/>
</g>
<!-- Node16 -->
<g id="node16" class="node">
<title>Node16</title>
<g id="a_node16"><a xlink:href="_o_m_sim_sensitive_detector_8cc.html" target="_top" xlink:title=" ">
<polygon fill="white" stroke="black" points="811,-112.5 811,-131.5 963,-131.5 963,-112.5 811,-112.5"/>
<text text-anchor="middle" x="887" y="-119.5" font-family="Helvetica,sans-Serif" font-size="10.00">OMSimSensitiveDetector.cc</text>
</a>
</g>
</g>
<!-- Node1&#45;&gt;Node16 -->
<g id="edge16" class="edge">
<title>Node1&#45;&gt;Node16</title>
<path fill="none" stroke="midnightblue" d="M1855.86,-174.58C1682.58,-169.61 1296.41,-156.63 972,-132 969.19,-131.79 966.33,-131.56 963.44,-131.31"/>
<polygon fill="midnightblue" stroke="midnightblue" points="1855.86,-178.08 1865.96,-174.86 1856.06,-171.08 1855.86,-178.08"/>
</g>
<!-- Node17 -->
<g id="node17" class="node">
<title>Node17</title>
<g id="a_node17"><a xlink:href="abc_detector_component_8cc.html" target="_top" xlink:title=" ">
<polygon fill="white" stroke="black" points="981,-112.5 981,-131.5 1127,-131.5 1127,-112.5 981,-112.5"/>
<text text-anchor="middle" x="1054" y="-119.5" font-family="Helvetica,sans-Serif" font-size="10.00">abcDetectorComponent.cc</text>
</a>
</g>
</g>
<!-- Node1&#45;&gt;Node17 -->
<g id="edge17" class="edge">
<title>Node1&#45;&gt;Node17</title>
<path fill="none" stroke="midnightblue" d="M1855.64,-173.51C1704.85,-167.44 1396.48,-153.5 1136,-132 1133.15,-131.76 1130.24,-131.51 1127.3,-131.24"/>
<polygon fill="midnightblue" stroke="midnightblue" points="1855.65,-177.01 1865.78,-173.91 1855.93,-170.01 1855.65,-177.01"/>
</g>
<!-- Node18 -->
<g id="node18" class="node">
<title>Node18</title>
<g id="a_node18"><a xlink:href="_o_m_sim_d_e_g_g_8cc.html" target="_top" xlink:title=" ">
<polygon fill="white" stroke="black" points="1145,-112.5 1145,-131.5 1239,-131.5 1239,-112.5 1145,-112.5"/>
<text text-anchor="middle" x="1192" y="-119.5" font-family="Helvetica,sans-Serif" font-size="10.00">OMSimDEGG.cc</text>
</a>
</g>
</g>
<!-- Node1&#45;&gt;Node18 -->
<g id="edge18" class="edge">
<title>Node1&#45;&gt;Node18</title>
<path fill="none" stroke="midnightblue" d="M1855.64,-173.86C1721.49,-168.67 1465.02,-156.36 1248,-132 1245.06,-131.67 1242.05,-131.29 1239.01,-130.89"/>
<polygon fill="midnightblue" stroke="midnightblue" points="1855.75,-177.37 1865.87,-174.25 1856.02,-170.37 1855.75,-177.37"/>
</g>
<!-- Node19 -->
<g id="node19" class="node">
<title>Node19</title>
<g id="a_node19"><a xlink:href="_o_m_sim_d_e_g_g_harness_8cc.html" target="_top" xlink:title=" ">
<polygon fill="white" stroke="black" points="1257,-112.5 1257,-131.5 1391,-131.5 1391,-112.5 1257,-112.5"/>
<text text-anchor="middle" x="1324" y="-119.5" font-family="Helvetica,sans-Serif" font-size="10.00">OMSimDEGGHarness.cc</text>
</a>
</g>
</g>
<!-- Node1&#45;&gt;Node19 -->
<g id="edge19" class="edge">
<title>Node1&#45;&gt;Node19</title>
<path fill="none" stroke="midnightblue" d="M1855.62,-170.37C1746.8,-162.34 1560.6,-147.89 1401,-132 1397.79,-131.68 1394.5,-131.34 1391.18,-130.99"/>
<polygon fill="midnightblue" stroke="midnightblue" points="1855.68,-173.88 1865.91,-171.13 1856.19,-166.9 1855.68,-173.88"/>
</g>
<!-- Node20 -->
<g id="node20" class="node">
<title>Node20</title>
<g id="a_node20"><a xlink:href="_o_m_sim_detector_construction_8cc.html" target="_top" xlink:title=" ">
<polygon fill="white" stroke="black" points="1409.5,-112.5 1409.5,-131.5 1578.5,-131.5 1578.5,-112.5 1409.5,-112.5"/>
<text text-anchor="middle" x="1494" y="-119.5" font-family="Helvetica,sans-Serif" font-size="10.00">OMSimDetectorConstruction.cc</text>
</a>
</g>
</g>
<!-- Node1&#45;&gt;Node20 -->
<g id="edge20" class="edge">
<title>Node1&#45;&gt;Node20</title>
<path fill="none" stroke="midnightblue" d="M1866.37,-167.29C1780.72,-157.1 1647.41,-141.25 1565.69,-131.53"/>
<polygon fill="midnightblue" stroke="midnightblue" points="1865.97,-170.77 1876.31,-168.47 1866.8,-163.82 1865.97,-170.77"/>
</g>
<!-- Node21 -->
<g id="node21" class="node">
<title>Node21</title>
<g id="a_node21"><a xlink:href="_o_m_sim_l_o_m16_8cc.html" target="_top" xlink:title=" ">
<polygon fill="white" stroke="black" points="1596.5,-112.5 1596.5,-131.5 1695.5,-131.5 1695.5,-112.5 1596.5,-112.5"/>
<text text-anchor="middle" x="1646" y="-119.5" font-family="Helvetica,sans-Serif" font-size="10.00">OMSimLOM16.cc</text>
</a>
</g>
</g>
<!-- Node1&#45;&gt;Node21 -->
<g id="edge21" class="edge">
<title>Node1&#45;&gt;Node21</title>
<path fill="none" stroke="midnightblue" d="M1890.2,-166.66C1833.12,-156.46 1746.88,-141.04 1693.63,-131.52"/>
<polygon fill="midnightblue" stroke="midnightblue" points="1889.69,-170.13 1900.15,-168.44 1890.92,-163.24 1889.69,-170.13"/>
</g>
<!-- Node22 -->
<g id="node22" class="node">
<title>Node22</title>
<g id="a_node22"><a xlink:href="_o_m_sim_l_o_m18_8cc.html" target="_top" xlink:title=" ">
<polygon fill="white" stroke="black" points="1713.5,-112.5 1713.5,-131.5 1812.5,-131.5 1812.5,-112.5 1713.5,-112.5"/>
<text text-anchor="middle" x="1763" y="-119.5" font-family="Helvetica,sans-Serif" font-size="10.00">OMSimLOM18.cc</text>
</a>
</g>
</g>
<!-- Node1&#45;&gt;Node22 -->
<g id="edge22" class="edge">
<title>Node1&#45;&gt;Node22</title>
<path fill="none" stroke="midnightblue" d="M1908.83,-165.57C1873.93,-155.38 1823.65,-140.7 1792.18,-131.52"/>
<polygon fill="midnightblue" stroke="midnightblue" points="1908.11,-169 1918.69,-168.44 1910.07,-162.28 1908.11,-169"/>
</g>
<!-- Node23 -->
<g id="node23" class="node">
<title>Node23</title>
<g id="a_node23"><a xlink:href="_o_m_sim_m_d_o_m_8cc.html" target="_top" xlink:title=" ">
<polygon fill="white" stroke="black" points="1831,-112.5 1831,-131.5 1929,-131.5 1929,-112.5 1831,-112.5"/>
<text text-anchor="middle" x="1880" y="-119.5" font-family="Helvetica,sans-Serif" font-size="10.00">OMSimMDOM.cc</text>
</a>
</g>
</g>
<!-- Node1&#45;&gt;Node23 -->
<g id="edge23" class="edge">
<title>Node1&#45;&gt;Node23</title>
<path fill="none" stroke="midnightblue" d="M1929.24,-162.1C1917,-152.38 1901.44,-140.03 1891.12,-131.83"/>
<polygon fill="midnightblue" stroke="midnightblue" points="1927.07,-164.85 1937.07,-168.32 1931.42,-159.36 1927.07,-164.85"/>
</g>
<!-- Node24 -->
<g id="node24" class="node">
<title>Node24</title>
<g id="a_node24"><a xlink:href="_o_m_sim_m_d_o_m_harness_8cc.html" target="_top" xlink:title=" ">
<polygon fill="white" stroke="black" points="1947,-112.5 1947,-131.5 2085,-131.5 2085,-112.5 1947,-112.5"/>
<text text-anchor="middle" x="2016" y="-119.5" font-family="Helvetica,sans-Serif" font-size="10.00">OMSimMDOMHarness.cc</text>
</a>
</g>
</g>
<!-- Node1&#45;&gt;Node24 -->
<g id="edge25" class="edge">
<title>Node1&#45;&gt;Node24</title>
<path fill="none" stroke="midnightblue" d="M1966.76,-162.1C1979,-152.38 1994.56,-140.03 2004.88,-131.83"/>
<polygon fill="midnightblue" stroke="midnightblue" points="1964.58,-159.36 1958.93,-168.32 1968.93,-164.85 1964.58,-159.36"/>
</g>
<!-- Node25 -->
<g id="node25" class="node">
<title>Node25</title>
<g id="a_node25"><a xlink:href="_o_m_sim_p_d_o_m_8cc.html" target="_top" xlink:title=" ">
<polygon fill="white" stroke="black" points="2103.5,-112.5 2103.5,-131.5 2198.5,-131.5 2198.5,-112.5 2103.5,-112.5"/>
<text text-anchor="middle" x="2151" y="-119.5" font-family="Helvetica,sans-Serif" font-size="10.00">OMSimPDOM.cc</text>
</a>
</g>
</g>
<!-- Node1&#45;&gt;Node25 -->
<g id="edge26" class="edge">
<title>Node1&#45;&gt;Node25</title>
<path fill="none" stroke="midnightblue" d="M1989.99,-165.83C2028.32,-155.63 2084.15,-140.78 2118.98,-131.52"/>
<polygon fill="midnightblue" stroke="midnightblue" points="1988.93,-162.49 1980.17,-168.44 1990.73,-169.26 1988.93,-162.49"/>
</g>
<!-- Node26 -->
<g id="node26" class="node">
<title>Node26</title>
<g id="a_node26"><a xlink:href="_o_m_sim_p_m_t_construction_8cc.html" target="_top" xlink:title=" ">
<polygon fill="white" stroke="black" points="2216.5,-112.5 2216.5,-131.5 2363.5,-131.5 2363.5,-112.5 2216.5,-112.5"/>
<text text-anchor="middle" x="2290" y="-119.5" font-family="Helvetica,sans-Serif" font-size="10.00">OMSimPMTConstruction.cc</text>
</a>
</g>
</g>
<!-- Node1&#45;&gt;Node26 -->
<g id="edge27" class="edge">
<title>Node1&#45;&gt;Node26</title>
<path fill="none" stroke="midnightblue" d="M2012.26,-166.85C2076.88,-156.65 2175.38,-141.1 2236.06,-131.52"/>
<polygon fill="midnightblue" stroke="midnightblue" points="2011.52,-163.43 2002.19,-168.44 2012.61,-170.34 2011.52,-163.43"/>
</g>
<!-- Node27 -->
<g id="node27" class="node">
<title>Node27</title>
<g id="a_node27"><a xlink:href="_o_m_sim_effective_area_analyisis_8cc.html" target="_top" xlink:title=" ">
<polygon fill="white" stroke="black" points="2381.5,-112.5 2381.5,-131.5 2556.5,-131.5 2556.5,-112.5 2381.5,-112.5"/>
<text text-anchor="middle" x="2469" y="-119.5" font-family="Helvetica,sans-Serif" font-size="10.00">OMSimEffectiveAreaAnalyisis.cc</text>
</a>
</g>
</g>
<!-- Node1&#45;&gt;Node27 -->
<g id="edge28" class="edge">
<title>Node1&#45;&gt;Node27</title>
<path fill="none" stroke="midnightblue" d="M2040.48,-167.41C2138.72,-157.23 2292.57,-141.29 2386.74,-131.53"/>
<polygon fill="midnightblue" stroke="midnightblue" points="2039.85,-163.96 2030.27,-168.47 2040.57,-170.92 2039.85,-163.96"/>
</g>
<!-- Node28 -->
<g id="node28" class="node">
<title>Node28</title>
<g id="a_node28"><a xlink:href="_o_m_sim_effective_area_detector_8cc.html" target="_top" xlink:title=" ">
<polygon fill="white" stroke="black" points="2575,-112.5 2575,-131.5 2747,-131.5 2747,-112.5 2575,-112.5"/>
<text text-anchor="middle" x="2661" y="-119.5" font-family="Helvetica,sans-Serif" font-size="10.00">OMSimEffectiveAreaDetector.cc</text>
</a>
</g>
</g>
<!-- Node1&#45;&gt;Node28 -->
<g id="edge29" class="edge">
<title>Node1&#45;&gt;Node28</title>
<path fill="none" stroke="midnightblue" d="M2040.33,-170.91C2161.18,-162.79 2379.55,-147.62 2566,-132 2568.89,-131.76 2571.83,-131.51 2574.79,-131.25"/>
<polygon fill="midnightblue" stroke="midnightblue" points="2039.76,-167.44 2030.02,-171.6 2040.23,-174.42 2039.76,-167.44"/>
</g>
<!-- Node29 -->
<g id="node29" class="node">
<title>Node29</title>
<g id="a_node29"><a xlink:href="_o_m_sim_decays_analysis_8cc.html" target="_top" xlink:title=" ">
<polygon fill="white" stroke="black" points="2765.5,-112.5 2765.5,-131.5 2908.5,-131.5 2908.5,-112.5 2765.5,-112.5"/>
<text text-anchor="middle" x="2837" y="-119.5" font-family="Helvetica,sans-Serif" font-size="10.00">OMSimDecaysAnalysis.cc</text>
</a>
</g>
</g>
<!-- Node1&#45;&gt;Node29 -->
<g id="edge30" class="edge">
<title>Node1&#45;&gt;Node29</title>
<path fill="none" stroke="midnightblue" d="M2040.21,-173.52C2190.36,-167.47 2496.98,-153.59 2756,-132 2759.1,-131.74 2762.27,-131.46 2765.47,-131.16"/>
<polygon fill="midnightblue" stroke="midnightblue" points="2039.96,-170.02 2030.11,-173.92 2040.24,-177.02 2039.96,-170.02"/>
</g>
<!-- Node30 -->
<g id="node30" class="node">
<title>Node30</title>
<g id="a_node30"><a xlink:href="radioactive__decays_2src_2_o_m_sim_event_action_8cc.html" target="_top" xlink:title=" ">
<polygon fill="white" stroke="black" points="2927,-112.5 2927,-131.5 3051,-131.5 3051,-112.5 2927,-112.5"/>
<text text-anchor="middle" x="2989" y="-119.5" font-family="Helvetica,sans-Serif" font-size="10.00">OMSimEventAction.cc</text>
</a>
</g>
</g>
<!-- Node1&#45;&gt;Node30 -->
<g id="edge31" class="edge">
<title>Node1&#45;&gt;Node30</title>
<path fill="none" stroke="midnightblue" d="M2040.29,-175.17C2212.9,-171.2 2596.26,-159.81 2918,-132 2920.85,-131.75 2923.76,-131.48 2926.69,-131.18"/>
<polygon fill="midnightblue" stroke="midnightblue" points="2040.14,-171.67 2030.22,-175.4 2040.3,-178.67 2040.14,-171.67"/>
</g>
<!-- Node31 -->
<g id="node31" class="node">
<title>Node31</title>
<g id="a_node31"><a xlink:href="_o_m_sim_g4_radioactive_decay_8cc.html" target="_top" xlink:title=" ">
<polygon fill="white" stroke="black" points="3069,-112.5 3069,-131.5 3235,-131.5 3235,-112.5 3069,-112.5"/>
<text text-anchor="middle" x="3152" y="-119.5" font-family="Helvetica,sans-Serif" font-size="10.00">OMSimG4RadioactiveDecay.cc</text>
</a>
</g>
</g>
<!-- Node1&#45;&gt;Node31 -->
<g id="edge32" class="edge">
<title>Node1&#45;&gt;Node31</title>
<path fill="none" stroke="midnightblue" d="M2040.31,-175.05C2230.99,-170.62 2682.17,-158.1 3060,-132 3062.88,-131.8 3065.81,-131.59 3068.77,-131.36"/>
<polygon fill="midnightblue" stroke="midnightblue" points="2039.96,-171.55 2030.05,-175.28 2040.13,-178.55 2039.96,-171.55"/>
</g>
<!-- Node32 -->
<g id="node32" class="node">
<title>Node32</title>
<g id="a_node32"><a xlink:href="_o_m_sim_rad_decays_detector_8cc.html" target="_top" xlink:title=" ">
<polygon fill="white" stroke="black" points="3253.5,-112.5 3253.5,-131.5 3414.5,-131.5 3414.5,-112.5 3253.5,-112.5"/>
<text text-anchor="middle" x="3334" y="-119.5" font-family="Helvetica,sans-Serif" font-size="10.00">OMSimRadDecaysDetector.cc</text>
</a>
</g>
</g>
<!-- Node1&#45;&gt;Node32 -->
<g id="edge33" class="edge">
<title>Node1&#45;&gt;Node32</title>
<path fill="none" stroke="midnightblue" d="M2040.54,-175.85C2253.26,-172.75 2793.42,-162.32 3244,-132 3246.98,-131.8 3250.01,-131.58 3253.07,-131.34"/>
<polygon fill="midnightblue" stroke="midnightblue" points="2040.3,-172.35 2030.35,-176 2040.4,-179.35 2040.3,-172.35"/>
</g>
<!-- Node33 -->
<g id="node33" class="node">
<title>Node33</title>
<g id="a_node33"><a xlink:href="supernova_2src_2_o_m_sim_primary_generator_action_8cc.html" target="_top" xlink:title=" ">
<polygon fill="white" stroke="black" points="3432.5,-112.5 3432.5,-131.5 3615.5,-131.5 3615.5,-112.5 3432.5,-112.5"/>
<text text-anchor="middle" x="3524" y="-119.5" font-family="Helvetica,sans-Serif" font-size="10.00">OMSimPrimaryGeneratorAction.cc</text>
</a>
</g>
</g>
<!-- Node1&#45;&gt;Node33 -->
<g id="edge34" class="edge">
<title>Node1&#45;&gt;Node33</title>
<path fill="none" stroke="midnightblue" d="M2040.19,-176.09C2272.57,-173.37 2901.09,-163.47 3424,-132 3426.78,-131.83 3429.61,-131.65 3432.46,-131.46"/>
<polygon fill="midnightblue" stroke="midnightblue" points="2040.04,-172.59 2030.09,-176.2 2040.13,-179.59 2040.04,-172.59"/>
</g>
<!-- Node34 -->
<g id="node34" class="node">
<title>Node34</title>
<g id="a_node34"><a xlink:href="_o_m_sim_s_n_analysis_8cc.html" target="_top" xlink:title="Analyze data and write output files.">
<polygon fill="white" stroke="black" points="3634,-112.5 3634,-131.5 3754,-131.5 3754,-112.5 3634,-112.5"/>
<text text-anchor="middle" x="3694" y="-119.5" font-family="Helvetica,sans-Serif" font-size="10.00">OMSimSNAnalysis.cc</text>
</a>
</g>
</g>
<!-- Node1&#45;&gt;Node34 -->
<g id="edge35" class="edge">
<title>Node1&#45;&gt;Node34</title>
<path fill="none" stroke="midnightblue" d="M2040.31,-175.78C2344.44,-171.55 3313.23,-156.45 3625,-132 3627.89,-131.77 3630.85,-131.51 3633.83,-131.22"/>
<polygon fill="midnightblue" stroke="midnightblue" points="2040.16,-172.28 2030.21,-175.92 2040.26,-179.28 2040.16,-172.28"/>
</g>
<!-- Node35 -->
<g id="node35" class="node">
<title>Node35</title>
<g id="a_node35"><a xlink:href="_o_m_sim_s_ndetector_8cc.html" target="_top" xlink:title=" ">
<polygon fill="white" stroke="black" points="3772.5,-112.5 3772.5,-131.5 3891.5,-131.5 3891.5,-112.5 3772.5,-112.5"/>
<text text-anchor="middle" x="3832" y="-119.5" font-family="Helvetica,sans-Serif" font-size="10.00">OMSimSNdetector.cc</text>
</a>
</g>
</g>
<!-- Node1&#45;&gt;Node35 -->
<g id="edge36" class="edge">
<title>Node1&#45;&gt;Node35</title>
<path fill="none" stroke="midnightblue" d="M2040.17,-176C2360.28,-172.31 3422.87,-158.33 3763,-132 3766.01,-131.77 3769.09,-131.49 3772.2,-131.19"/>
<polygon fill="midnightblue" stroke="midnightblue" points="2039.96,-172.5 2030.01,-176.11 2040.04,-179.5 2039.96,-172.5"/>
</g>
<!-- Node36 -->
<g id="node36" class="node">
<title>Node36</title>
<g id="a_node36"><a xlink:href="_o_m_sim_s_n_particle_generators_8cc.html" target="_top" xlink:title=" ">
<polygon fill="white" stroke="black" points="3909.5,-112.5 3909.5,-131.5 4078.5,-131.5 4078.5,-112.5 3909.5,-112.5"/>
<text text-anchor="middle" x="3994" y="-119.5" font-family="Helvetica,sans-Serif" font-size="10.00">OMSimSNParticleGenerators.cc</text>
</a>
</g>
</g>
<!-- Node1&#45;&gt;Node36 -->
<g id="edge37" class="edge">
<title>Node1&#45;&gt;Node36</title>
<path fill="none" stroke="midnightblue" d="M2040.55,-177.28C2320.96,-177.6 3185.77,-174.79 3901,-132 3903.75,-131.84 3906.55,-131.65 3909.37,-131.46"/>
<polygon fill="midnightblue" stroke="midnightblue" points="2040.43,-173.78 2030.42,-177.26 2040.42,-180.78 2040.43,-173.78"/>
</g>
<!-- Node37 -->
<g id="node37" class="node">
<title>Node37</title>
<g id="a_node37"><a xlink:href="_o_m_sim_s_n_tools_8cc.html" target="_top" xlink:title=" ">
<polygon fill="white" stroke="black" points="4097,-112.5 4097,-131.5 4201,-131.5 4201,-112.5 4097,-112.5"/>
<text text-anchor="middle" x="4149" y="-119.5" font-family="Helvetica,sans-Serif" font-size="10.00">OMSimSNTools.cc</text>
</a>
</g>
</g>
<!-- Node1&#45;&gt;Node37 -->
<g id="edge38" class="edge">
<title>Node1&#45;&gt;Node37</title>
<path fill="none" stroke="midnightblue" d="M2040.3,-176.6C2396.41,-174.83 3681.2,-166.15 4088,-132 4090.88,-131.76 4093.83,-131.47 4096.81,-131.14"/>
<polygon fill="midnightblue" stroke="midnightblue" points="2040.02,-173.1 2030.04,-176.65 2040.06,-180.1 2040.02,-173.1"/>
</g>
<!-- Node3 -->
<g id="node3" class="node">
<title>Node3</title>
<g id="a_node3"><a xlink:href="_o_m_sim_data_file_types_8cc.html" target="_top" xlink:title=" ">
<polygon fill="white" stroke="black" points="0,-56.5 0,-75.5 134,-75.5 134,-56.5 0,-56.5"/>
<text text-anchor="middle" x="67" y="-63.5" font-family="Helvetica,sans-Serif" font-size="10.00">OMSimDataFileTypes.cc</text>
</a>
</g>
</g>
<!-- Node2&#45;&gt;Node3 -->
<g id="edge2" class="edge">
<title>Node2&#45;&gt;Node3</title>
<path fill="none" stroke="midnightblue" d="M176.84,-108.77C150.17,-98.63 112.93,-84.47 89.4,-75.52"/>
<polygon fill="midnightblue" stroke="midnightblue" points="175.91,-112.16 186.5,-112.44 178.4,-105.62 175.91,-112.16"/>
</g>
<!-- Node2&#45;&gt;Node4 -->
<g id="edge3" class="edge">
<title>Node2&#45;&gt;Node4</title>
<path fill="none" stroke="midnightblue" d="M209,-101.8C209,-92.91 209,-82.78 209,-75.75"/>
<polygon fill="midnightblue" stroke="midnightblue" points="205.5,-102.08 209,-112.08 212.5,-102.08 205.5,-102.08"/>
</g>
<!-- Node6 -->
<g id="node6" class="node">
<title>Node6</title>
<g id="a_node6"><a xlink:href="_o_m_sim_8hh.html" target="_top" xlink:title="Main simulation class for the Optical Module (OM) simulation. This file defines the OMSim class,...">
<polygon fill="white" stroke="black" points="436.5,-56.5 436.5,-75.5 503.5,-75.5 503.5,-56.5 436.5,-56.5"/>
<text text-anchor="middle" x="470" y="-63.5" font-family="Helvetica,sans-Serif" font-size="10.00">OMSim.hh</text>
</a>
</g>
</g>
<!-- Node5&#45;&gt;Node6 -->
<g id="edge5" class="edge">
<title>Node5&#45;&gt;Node6</title>
<path fill="none" stroke="midnightblue" d="M449.85,-103.27C454.97,-94.05 461.02,-83.17 465.14,-75.75"/>
<polygon fill="midnightblue" stroke="midnightblue" points="446.75,-101.64 444.95,-112.08 452.87,-105.04 446.75,-101.64"/>
</g>
<!-- Node5&#45;&gt;Node11 -->
<g id="edge10" class="edge">
<title>Node5&#45;&gt;Node11</title>
<path fill="none" stroke="midnightblue" d="M416.76,-106.9C400.44,-97 379.13,-84.07 365.26,-75.65"/>
<polygon fill="midnightblue" stroke="midnightblue" points="415.34,-110.13 425.7,-112.32 418.97,-104.14 415.34,-110.13"/>
</g>
<!-- Node12 -->
<g id="node12" class="node">
<title>Node12</title>
<g id="a_node12"><a xlink:href="_o_m_sim_angular_scan_8cc.html" target="_top" xlink:title=" ">
<polygon fill="white" stroke="black" points="522,-56.5 522,-75.5 648,-75.5 648,-56.5 522,-56.5"/>
<text text-anchor="middle" x="585" y="-63.5" font-family="Helvetica,sans-Serif" font-size="10.00">OMSimAngularScan.cc</text>
</a>
</g>
</g>
<!-- Node5&#45;&gt;Node12 -->
<g id="edge11" class="edge">
<title>Node5&#45;&gt;Node12</title>
<path fill="none" stroke="midnightblue" d="M472.48,-108.91C499.74,-98.75 537.99,-84.51 562.13,-75.52"/>
<polygon fill="midnightblue" stroke="midnightblue" points="471.13,-105.67 462.98,-112.44 473.57,-112.23 471.13,-105.67"/>
</g>
<!-- Node13 -->
<g id="node13" class="node">
<title>Node13</title>
<g id="a_node13"><a xlink:href="_o_m_sim_decays_g_p_s_8cc.html" target="_top" xlink:title=" ">
<polygon fill="white" stroke="black" points="666.5,-56.5 666.5,-75.5 787.5,-75.5 787.5,-56.5 666.5,-56.5"/>
<text text-anchor="middle" x="727" y="-63.5" font-family="Helvetica,sans-Serif" font-size="10.00">OMSimDecaysGPS.cc</text>
</a>
</g>
</g>
<!-- Node5&#45;&gt;Node13 -->
<g id="edge12" class="edge">
<title>Node5&#45;&gt;Node13</title>
<path fill="none" stroke="midnightblue" d="M495.61,-110.54C549.85,-100.33 631.34,-85 681.74,-75.52"/>
<polygon fill="midnightblue" stroke="midnightblue" points="494.66,-107.15 485.48,-112.44 495.95,-114.03 494.66,-107.15"/>
</g>
<!-- Node7 -->
<g id="node7" class="node">
<title>Node7</title>
<g id="a_node7"><a xlink:href="_o_m_sim_8cc.html" target="_top" xlink:title="Implementation of the OMSim class.">
<polygon fill="white" stroke="black" points="231.5,-0.5 231.5,-19.5 296.5,-19.5 296.5,-0.5 231.5,-0.5"/>
<text text-anchor="middle" x="264" y="-7.5" font-family="Helvetica,sans-Serif" font-size="10.00">OMSim.cc</text>
</a>
</g>
</g>
<!-- Node6&#45;&gt;Node7 -->
<g id="edge6" class="edge">
<title>Node6&#45;&gt;Node7</title>
<path fill="none" stroke="midnightblue" d="M427.38,-53.83C388.49,-43.63 331.84,-28.78 296.49,-19.52"/>
<polygon fill="midnightblue" stroke="midnightblue" points="426.8,-57.29 437.36,-56.44 428.57,-50.52 426.8,-57.29"/>
</g>
<!-- Node8 -->
<g id="node8" class="node">
<title>Node8</title>
<g id="a_node8"><a xlink:href="_o_m_sim__effective__area_8cc.html" target="_top" xlink:title="Main for the calculation of effective areas.">
<polygon fill="white" stroke="black" points="315,-0.5 315,-19.5 455,-19.5 455,-0.5 315,-0.5"/>
<text text-anchor="middle" x="385" y="-7.5" font-family="Helvetica,sans-Serif" font-size="10.00">OMSim_effective_area.cc</text>
</a>
</g>
</g>
<!-- Node6&#45;&gt;Node8 -->
<g id="edge7" class="edge">
<title>Node6&#45;&gt;Node8</title>
<path fill="none" stroke="midnightblue" d="M447.81,-50.9C432.22,-41 411.87,-28.07 398.62,-19.65"/>
<polygon fill="midnightblue" stroke="midnightblue" points="446.03,-53.92 456.34,-56.32 449.78,-48.01 446.03,-53.92"/>
</g>
<!-- Node9 -->
<g id="node9" class="node">
<title>Node9</title>
<g id="a_node9"><a xlink:href="_o_m_sim__radioactive__decays_8cc.html" target="_top" xlink:title="Main of the radioactive decay study.">
<polygon fill="white" stroke="black" points="473.5,-0.5 473.5,-19.5 638.5,-19.5 638.5,-0.5 473.5,-0.5"/>
<text text-anchor="middle" x="556" y="-7.5" font-family="Helvetica,sans-Serif" font-size="10.00">OMSim_radioactive_decays.cc</text>
</a>
</g>
</g>
<!-- Node6&#45;&gt;Node9 -->
<g id="edge8" class="edge">
<title>Node6&#45;&gt;Node9</title>
<path fill="none" stroke="midnightblue" d="M492.45,-50.9C508.22,-41 528.81,-28.07 542.22,-19.65"/>
<polygon fill="midnightblue" stroke="midnightblue" points="490.43,-48.04 483.82,-56.32 494.15,-53.97 490.43,-48.04"/>
</g>
<!-- Node10 -->
<g id="node10" class="node">
<title>Node10</title>
<g id="a_node10"><a xlink:href="_o_m_sim__supernova_8cc.html" target="_top" xlink:title="Main of the supernova study.">
<polygon fill="white" stroke="black" points="657,-0.5 657,-19.5 779,-19.5 779,-0.5 657,-0.5"/>
<text text-anchor="middle" x="718" y="-7.5" font-family="Helvetica,sans-Serif" font-size="10.00">OMSim_supernova.cc</text>
</a>
</g>
</g>
<!-- Node6&#45;&gt;Node10 -->
<g id="edge9" class="edge">
<title>Node6&#45;&gt;Node10</title>
<path fill="none" stroke="midnightblue" d="M513.52,-55.52C560.19,-45.36 633.64,-29.37 678.64,-19.57"/>
<polygon fill="midnightblue" stroke="midnightblue" points="512.73,-52.11 503.7,-57.66 514.22,-58.95 512.73,-52.11"/>
</g>
</g>
</svg>
