<?xml version="1.0" encoding="UTF-8" standalone="no"?>
<!DOCTYPE svg PUBLIC "-//W3C//DTD SVG 1.1//EN"
 "http://www.w3.org/Graphics/SVG/1.1/DTD/svg11.dtd">
<!-- Generated by graphviz version 2.43.0 (0)
 -->
<!-- Title: OMSimDEGG.hh Pages: 1 -->
<svg width="1558pt" height="386pt"
 viewBox="0.00 0.00 1557.50 386.00" xmlns="http://www.w3.org/2000/svg" xmlns:xlink="http://www.w3.org/1999/xlink">
<g id="graph0" class="graph" transform="scale(1 1) rotate(0) translate(4 382)">
<title>OMSimDEGG.hh</title>
<polygon fill="white" stroke="transparent" points="-4,4 -4,-382 1553.5,-382 1553.5,4 -4,4"/>
<!-- Node1 -->
<g id="node1" class="node">
<title>Node1</title>
<g id="a_node1"><a xlink:title="Construction of the DEGG class. From DOUMEKI.">
<polygon fill="#bfbfbf" stroke="black" points="849,-358.5 849,-377.5 944,-377.5 944,-358.5 849,-358.5"/>
<text text-anchor="middle" x="896.5" y="-365.5" font-family="Helvetica,sans-Serif" font-size="10.00">OMSimDEGG.hh</text>
</a>
</g>
</g>
<!-- Node2 -->
<g id="node2" class="node">
<title>Node2</title>
<g id="a_node2"><a xlink:href="_o_m_sim_p_m_t_construction_8hh.html" target="_top" xlink:title="Construction of the PMTs.">
<polygon fill="white" stroke="black" points="823,-246.5 823,-265.5 972,-265.5 972,-246.5 823,-246.5"/>
<text text-anchor="middle" x="897.5" y="-253.5" font-family="Helvetica,sans-Serif" font-size="10.00">OMSimPMTConstruction.hh</text>
</a>
</g>
</g>
<!-- Node1&#45;&gt;Node2 -->
<g id="edge1" class="edge">
<title>Node1&#45;&gt;Node2</title>
<path fill="none" stroke="midnightblue" d="M888.57,-358.42C878.27,-346.21 862.32,-322.98 868.5,-302 871.51,-291.76 877.65,-281.66 883.51,-273.63"/>
<polygon fill="midnightblue" stroke="midnightblue" points="886.43,-275.58 889.83,-265.54 880.91,-271.27 886.43,-275.58"/>
</g>
<!-- Node24 -->
<g id="node24" class="node">
<title>Node24</title>
<g id="a_node24"><a xlink:href="_o_m_sim_optical_module_8hh.html" target="_top" xlink:title=" ">
<polygon fill="white" stroke="black" points="877,-302.5 877,-321.5 1014,-321.5 1014,-302.5 877,-302.5"/>
<text text-anchor="middle" x="945.5" y="-309.5" font-family="Helvetica,sans-Serif" font-size="10.00">OMSimOpticalModule.hh</text>
</a>
</g>
</g>
<!-- Node1&#45;&gt;Node24 -->
<g id="edge25" class="edge">
<title>Node1&#45;&gt;Node24</title>
<path fill="none" stroke="midnightblue" d="M904.59,-358.08C911.66,-350.3 922.09,-338.8 930.65,-329.37"/>
<polygon fill="midnightblue" stroke="midnightblue" points="933.43,-331.51 937.56,-321.75 928.25,-326.8 933.43,-331.51"/>
</g>
<!-- Node2&#45;&gt;Node2 -->
<g id="edge16" class="edge">
<title>Node2&#45;&gt;Node2</title>
<path fill="none" stroke="midnightblue" d="M936.95,-265.53C963.76,-268.31 990,-265.13 990,-256 990,-248.01 969.91,-244.58 946.93,-245.71"/>
<polygon fill="midnightblue" stroke="midnightblue" points="946.65,-242.22 936.95,-246.47 947.19,-249.2 946.65,-242.22"/>
</g>
<!-- Node3 -->
<g id="node3" class="node">
<title>Node3</title>
<g id="a_node3"><a xlink:href="abc_detector_component_8hh.html" target="_top" xlink:title="Provides helper base class abcDetectorComponent for constructing and managing detector components in ...">
<polygon fill="white" stroke="black" points="633,-190.5 633,-209.5 780,-209.5 780,-190.5 633,-190.5"/>
<text text-anchor="middle" x="706.5" y="-197.5" font-family="Helvetica,sans-Serif" font-size="10.00">abcDetectorComponent.hh</text>
</a>
</g>
</g>
<!-- Node2&#45;&gt;Node3 -->
<g id="edge2" class="edge">
<title>Node2&#45;&gt;Node3</title>
<path fill="none" stroke="midnightblue" d="M867.24,-246.44C834.54,-237.2 782.32,-222.44 746.32,-212.26"/>
<polygon fill="midnightblue" stroke="midnightblue" points="747.2,-208.87 736.62,-209.52 745.29,-215.61 747.2,-208.87"/>
</g>
<!-- Node17 -->
<g id="node17" class="node">
<title>Node17</title>
<g id="a_node17"><a xlink:href="_o_m_sim_p_m_t_response_8hh.html" target="_top" xlink:title="Simulation of PMT response.">
<polygon fill="white" stroke="black" points="1000,-190.5 1000,-209.5 1135,-209.5 1135,-190.5 1000,-190.5"/>
<text text-anchor="middle" x="1067.5" y="-197.5" font-family="Helvetica,sans-Serif" font-size="10.00">OMSimPMTResponse.hh</text>
</a>
</g>
</g>
<!-- Node2&#45;&gt;Node17 -->
<g id="edge17" class="edge">
<title>Node2&#45;&gt;Node17</title>
<path fill="none" stroke="midnightblue" d="M924.44,-246.44C953.16,-237.32 998.83,-222.81 1030.82,-212.65"/>
<polygon fill="midnightblue" stroke="midnightblue" points="1032.22,-215.88 1040.69,-209.52 1030.1,-209.21 1032.22,-215.88"/>
</g>
<!-- Node22 -->
<g id="node22" class="node">
<title>Node22</title>
<g id="a_node22"><a xlink:title=" ">
<polygon fill="white" stroke="#bfbfbf" points="798.5,-190.5 798.5,-209.5 896.5,-209.5 896.5,-190.5 798.5,-190.5"/>
<text text-anchor="middle" x="847.5" y="-197.5" font-family="Helvetica,sans-Serif" font-size="10.00">G4UnionSolid.hh</text>
</a>
</g>
</g>
<!-- Node2&#45;&gt;Node22 -->
<g id="edge23" class="edge">
<title>Node2&#45;&gt;Node22</title>
<path fill="none" stroke="midnightblue" d="M889.24,-246.08C882.04,-238.3 871.39,-226.8 862.65,-217.37"/>
<polygon fill="midnightblue" stroke="midnightblue" points="864.97,-214.71 855.6,-209.75 859.83,-219.47 864.97,-214.71"/>
</g>
<!-- Node23 -->
<g id="node23" class="node">
<title>Node23</title>
<g id="a_node23"><a xlink:title=" ">
<polygon fill="white" stroke="#bfbfbf" points="915,-190.5 915,-209.5 982,-209.5 982,-190.5 915,-190.5"/>
<text text-anchor="middle" x="948.5" y="-197.5" font-family="Helvetica,sans-Serif" font-size="10.00">G4Tubs.hh</text>
</a>
</g>
</g>
<!-- Node2&#45;&gt;Node23 -->
<g id="edge24" class="edge">
<title>Node2&#45;&gt;Node23</title>
<path fill="none" stroke="midnightblue" d="M905.92,-246.08C913.35,-238.22 924.35,-226.57 933.31,-217.08"/>
<polygon fill="midnightblue" stroke="midnightblue" points="935.91,-219.42 940.24,-209.75 930.82,-214.62 935.91,-219.42"/>
</g>
<!-- Node4 -->
<g id="node4" class="node">
<title>Node4</title>
<g id="a_node4"><a xlink:href="_o_m_sim_input_data_8hh.html" target="_top" xlink:title="Definition of ParameterTable and InputDataManager.">
<polygon fill="white" stroke="black" points="299,-134.5 299,-153.5 414,-153.5 414,-134.5 299,-134.5"/>
<text text-anchor="middle" x="356.5" y="-141.5" font-family="Helvetica,sans-Serif" font-size="10.00">OMSimInputData.hh</text>
</a>
</g>
</g>
<!-- Node3&#45;&gt;Node4 -->
<g id="edge3" class="edge">
<title>Node3&#45;&gt;Node4</title>
<path fill="none" stroke="midnightblue" d="M651.04,-190.44C588.83,-180.85 488.02,-165.29 421.99,-155.1"/>
<polygon fill="midnightblue" stroke="midnightblue" points="422.12,-151.58 411.7,-153.52 421.05,-158.5 422.12,-151.58"/>
</g>
<!-- Node13 -->
<g id="node13" class="node">
<title>Node13</title>
<g id="a_node13"><a xlink:title=" ">
<polygon fill="white" stroke="#bfbfbf" points="432,-134.5 432,-153.5 539,-153.5 539,-134.5 432,-134.5"/>
<text text-anchor="middle" x="485.5" y="-141.5" font-family="Helvetica,sans-Serif" font-size="10.00">G4Transform3D.hh</text>
</a>
</g>
</g>
<!-- Node3&#45;&gt;Node13 -->
<g id="edge12" class="edge">
<title>Node3&#45;&gt;Node13</title>
<path fill="none" stroke="midnightblue" d="M671.48,-190.44C633.25,-181.1 571.93,-166.12 530.24,-155.93"/>
<polygon fill="midnightblue" stroke="midnightblue" points="530.9,-152.49 520.35,-153.52 529.24,-159.29 530.9,-152.49"/>
</g>
<!-- Node14 -->
<g id="node14" class="node">
<title>Node14</title>
<g id="a_node14"><a xlink:title=" ">
<polygon fill="white" stroke="#bfbfbf" points="557.5,-134.5 557.5,-153.5 665.5,-153.5 665.5,-134.5 557.5,-134.5"/>
<text text-anchor="middle" x="611.5" y="-141.5" font-family="Helvetica,sans-Serif" font-size="10.00">G4VisAttributes.hh</text>
</a>
</g>
</g>
<!-- Node3&#45;&gt;Node14 -->
<g id="edge13" class="edge">
<title>Node3&#45;&gt;Node14</title>
<path fill="none" stroke="midnightblue" d="M691.24,-190.32C676.28,-181.82 653.25,-168.73 635.77,-158.8"/>
<polygon fill="midnightblue" stroke="midnightblue" points="637.15,-155.55 626.73,-153.65 633.69,-161.64 637.15,-155.55"/>
</g>
<!-- Node15 -->
<g id="node15" class="node">
<title>Node15</title>
<g id="a_node15"><a xlink:title=" ">
<polygon fill="white" stroke="#bfbfbf" points="684,-134.5 684,-153.5 809,-153.5 809,-134.5 684,-134.5"/>
<text text-anchor="middle" x="746.5" y="-141.5" font-family="Helvetica,sans-Serif" font-size="10.00">G4SubtractionSolid.hh</text>
</a>
</g>
</g>
<!-- Node3&#45;&gt;Node15 -->
<g id="edge14" class="edge">
<title>Node3&#45;&gt;Node15</title>
<path fill="none" stroke="midnightblue" d="M713.11,-190.08C718.76,-182.46 727.04,-171.26 733.95,-161.94"/>
<polygon fill="midnightblue" stroke="midnightblue" points="736.88,-163.87 740.02,-153.75 731.25,-159.7 736.88,-163.87"/>
</g>
<!-- Node16 -->
<g id="node16" class="node">
<title>Node16</title>
<g id="a_node16"><a xlink:title=" ">
<polygon fill="white" stroke="#bfbfbf" points="827.5,-134.5 827.5,-153.5 937.5,-153.5 937.5,-134.5 827.5,-134.5"/>
<text text-anchor="middle" x="882.5" y="-141.5" font-family="Helvetica,sans-Serif" font-size="10.00">G4PVPlacement.hh</text>
</a>
</g>
</g>
<!-- Node3&#45;&gt;Node16 -->
<g id="edge15" class="edge">
<title>Node3&#45;&gt;Node16</title>
<path fill="none" stroke="midnightblue" d="M734.39,-190.44C764.25,-181.28 811.81,-166.69 844.96,-156.52"/>
<polygon fill="midnightblue" stroke="midnightblue" points="846.21,-159.8 854.74,-153.52 844.16,-153.1 846.21,-159.8"/>
</g>
<!-- Node5 -->
<g id="node5" class="node">
<title>Node5</title>
<g id="a_node5"><a xlink:href="_o_m_sim_logger_8hh.html" target="_top" xlink:title=" ">
<polygon fill="white" stroke="black" points="168,-73 168,-92 267,-92 267,-73 168,-73"/>
<text text-anchor="middle" x="217.5" y="-80" font-family="Helvetica,sans-Serif" font-size="10.00">OMSimLogger.hh</text>
</a>
</g>
</g>
<!-- Node4&#45;&gt;Node5 -->
<g id="edge4" class="edge">
<title>Node4&#45;&gt;Node5</title>
<path fill="none" stroke="midnightblue" d="M336.58,-134.48C313.05,-124.4 273.69,-107.55 246.71,-96"/>
<polygon fill="midnightblue" stroke="midnightblue" points="247.95,-92.73 237.38,-92.01 245.19,-99.16 247.95,-92.73"/>
</g>
<!-- Node10 -->
<g id="node10" class="node">
<title>Node10</title>
<g id="a_node10"><a xlink:title=" ">
<polygon fill="white" stroke="#bfbfbf" points="285,-73 285,-92 428,-92 428,-73 285,-73"/>
<text text-anchor="middle" x="356.5" y="-80" font-family="Helvetica,sans-Serif" font-size="10.00">G4OpBoundaryProcess.hh</text>
</a>
</g>
</g>
<!-- Node4&#45;&gt;Node10 -->
<g id="edge9" class="edge">
<title>Node4&#45;&gt;Node10</title>
<path fill="none" stroke="midnightblue" d="M356.5,-134.48C356.5,-126.08 356.5,-112.98 356.5,-102.16"/>
<polygon fill="midnightblue" stroke="midnightblue" points="360,-102.01 356.5,-92.01 353,-102.01 360,-102.01"/>
</g>
<!-- Node11 -->
<g id="node11" class="node">
<title>Node11</title>
<g id="a_node11"><a xlink:title=" ">
<polygon fill="white" stroke="#bfbfbf" points="741,-73 741,-92 860,-92 860,-73 741,-73"/>
<text text-anchor="middle" x="800.5" y="-80" font-family="Helvetica,sans-Serif" font-size="10.00">G4SystemOfUnits.hh</text>
</a>
</g>
</g>
<!-- Node4&#45;&gt;Node11 -->
<g id="edge10" class="edge">
<title>Node4&#45;&gt;Node11</title>
<path fill="none" stroke="midnightblue" d="M414.09,-135.14C416.93,-134.75 419.75,-134.37 422.5,-134 529.97,-119.49 654.66,-102.88 730.54,-92.79"/>
<polygon fill="midnightblue" stroke="midnightblue" points="731.46,-96.2 740.92,-91.41 730.54,-89.26 731.46,-96.2"/>
</g>
<!-- Node12 -->
<g id="node12" class="node">
<title>Node12</title>
<g id="a_node12"><a xlink:title=" ">
<polygon fill="white" stroke="#bfbfbf" points="446,-67.5 446,-97.5 559,-97.5 559,-67.5 446,-67.5"/>
<text text-anchor="start" x="454" y="-85.5" font-family="Helvetica,sans-Serif" font-size="10.00">boost/property_tree</text>
<text text-anchor="middle" x="502.5" y="-74.5" font-family="Helvetica,sans-Serif" font-size="10.00">/json_parser.hpp</text>
</a>
</g>
</g>
<!-- Node4&#45;&gt;Node12 -->
<g id="edge11" class="edge">
<title>Node4&#45;&gt;Node12</title>
<path fill="none" stroke="midnightblue" d="M377.42,-134.48C398.49,-125.89 431.63,-112.38 458.51,-101.43"/>
<polygon fill="midnightblue" stroke="midnightblue" points="460.15,-104.54 468.09,-97.52 457.51,-98.06 460.15,-104.54"/>
</g>
<!-- Node6 -->
<g id="node6" class="node">
<title>Node6</title>
<g id="a_node6"><a xlink:title=" ">
<polygon fill="white" stroke="#bfbfbf" points="0,-6 0,-25 93,-25 93,-6 0,-6"/>
<text text-anchor="middle" x="46.5" y="-13" font-family="Helvetica,sans-Serif" font-size="10.00">spdlog/spdlog.h</text>
</a>
</g>
</g>
<!-- Node5&#45;&gt;Node6 -->
<g id="edge5" class="edge">
<title>Node5&#45;&gt;Node6</title>
<path fill="none" stroke="midnightblue" d="M194.79,-72.87C164.94,-61.52 112.33,-41.52 78.47,-28.65"/>
<polygon fill="midnightblue" stroke="midnightblue" points="79.62,-25.35 69.03,-25.06 77.13,-31.89 79.62,-25.35"/>
</g>
<!-- Node7 -->
<g id="node7" class="node">
<title>Node7</title>
<g id="a_node7"><a xlink:title=" ">
<polygon fill="white" stroke="#bfbfbf" points="111,-0.5 111,-30.5 222,-30.5 222,-0.5 111,-0.5"/>
<text text-anchor="start" x="119" y="-18.5" font-family="Helvetica,sans-Serif" font-size="10.00">spdlog/sinks/stdout</text>
<text text-anchor="middle" x="166.5" y="-7.5" font-family="Helvetica,sans-Serif" font-size="10.00">_color_sinks.h</text>
</a>
</g>
</g>
<!-- Node5&#45;&gt;Node7 -->
<g id="edge6" class="edge">
<title>Node5&#45;&gt;Node7</title>
<path fill="none" stroke="midnightblue" d="M210.62,-72.73C203.8,-64.03 193.06,-50.34 183.88,-38.65"/>
<polygon fill="midnightblue" stroke="midnightblue" points="186.48,-36.3 177.55,-30.59 180.97,-40.62 186.48,-36.3"/>
</g>
<!-- Node8 -->
<g id="node8" class="node">
<title>Node8</title>
<g id="a_node8"><a xlink:title=" ">
<polygon fill="white" stroke="#bfbfbf" points="240.5,-6 240.5,-25 298.5,-25 298.5,-6 240.5,-6"/>
<text text-anchor="middle" x="269.5" y="-13" font-family="Helvetica,sans-Serif" font-size="10.00">memory</text>
</a>
</g>
</g>
<!-- Node5&#45;&gt;Node8 -->
<g id="edge7" class="edge">
<title>Node5&#45;&gt;Node8</title>
<path fill="none" stroke="midnightblue" d="M224.51,-72.73C232.62,-62.6 246.15,-45.69 256.26,-33.06"/>
<polygon fill="midnightblue" stroke="midnightblue" points="259.08,-35.12 262.6,-25.13 253.62,-30.75 259.08,-35.12"/>
</g>
<!-- Node9 -->
<g id="node9" class="node">
<title>Node9</title>
<g id="a_node9"><a xlink:title=" ">
<polygon fill="white" stroke="#bfbfbf" points="316.5,-6 316.5,-25 414.5,-25 414.5,-6 316.5,-6"/>
<text text-anchor="middle" x="365.5" y="-13" font-family="Helvetica,sans-Serif" font-size="10.00">spdlog/fmt/fmt.h</text>
</a>
</g>
</g>
<!-- Node5&#45;&gt;Node9 -->
<g id="edge8" class="edge">
<title>Node5&#45;&gt;Node9</title>
<path fill="none" stroke="midnightblue" d="M237.15,-72.87C262.59,-61.7 307.1,-42.15 336.45,-29.26"/>
<polygon fill="midnightblue" stroke="midnightblue" points="338.02,-32.39 345.77,-25.17 335.2,-25.98 338.02,-32.39"/>
</g>
<!-- Node17&#45;&gt;Node11 -->
<g id="edge18" class="edge">
<title>Node17&#45;&gt;Node11</title>
<path fill="none" stroke="midnightblue" d="M1051.98,-190.48C1021.78,-173.94 957.15,-138.67 946.5,-134 910.97,-118.43 868.98,-104.33 839.17,-95.01"/>
<polygon fill="midnightblue" stroke="midnightblue" points="840.14,-91.65 829.56,-92.04 838.08,-98.34 840.14,-91.65"/>
</g>
<!-- Node18 -->
<g id="node18" class="node">
<title>Node18</title>
<g id="a_node18"><a xlink:title=" ">
<polygon fill="white" stroke="#bfbfbf" points="994,-134.5 994,-153.5 1067,-153.5 1067,-134.5 994,-134.5"/>
<text text-anchor="middle" x="1030.5" y="-141.5" font-family="Helvetica,sans-Serif" font-size="10.00">G4Types.hh</text>
</a>
</g>
</g>
<!-- Node17&#45;&gt;Node18 -->
<g id="edge19" class="edge">
<title>Node17&#45;&gt;Node18</title>
<path fill="none" stroke="midnightblue" d="M1061.39,-190.08C1056.22,-182.53 1048.65,-171.49 1042.31,-162.23"/>
<polygon fill="midnightblue" stroke="midnightblue" points="1045.04,-160.02 1036.5,-153.75 1039.26,-163.98 1045.04,-160.02"/>
</g>
<!-- Node19 -->
<g id="node19" class="node">
<title>Node19</title>
<g id="a_node19"><a xlink:title=" ">
<polygon fill="white" stroke="#bfbfbf" points="1085.5,-134.5 1085.5,-153.5 1123.5,-153.5 1123.5,-134.5 1085.5,-134.5"/>
<text text-anchor="middle" x="1104.5" y="-141.5" font-family="Helvetica,sans-Serif" font-size="10.00">map</text>
</a>
</g>
</g>
<!-- Node17&#45;&gt;Node19 -->
<g id="edge20" class="edge">
<title>Node17&#45;&gt;Node19</title>
<path fill="none" stroke="midnightblue" d="M1073.61,-190.08C1078.78,-182.53 1086.35,-171.49 1092.69,-162.23"/>
<polygon fill="midnightblue" stroke="midnightblue" points="1095.74,-163.98 1098.5,-153.75 1089.96,-160.02 1095.74,-163.98"/>
</g>
<!-- Node20 -->
<g id="node20" class="node">
<title>Node20</title>
<g id="a_node20"><a xlink:title=" ">
<polygon fill="white" stroke="#bfbfbf" points="1142,-134.5 1142,-153.5 1203,-153.5 1203,-134.5 1142,-134.5"/>
<text text-anchor="middle" x="1172.5" y="-141.5" font-family="Helvetica,sans-Serif" font-size="10.00">TGraph.h</text>
</a>
</g>
</g>
<!-- Node17&#45;&gt;Node20 -->
<g id="edge21" class="edge">
<title>Node17&#45;&gt;Node20</title>
<path fill="none" stroke="midnightblue" d="M1084.37,-190.32C1101.21,-181.66 1127.31,-168.24 1146.74,-158.25"/>
<polygon fill="midnightblue" stroke="midnightblue" points="1148.38,-161.34 1155.67,-153.65 1145.18,-155.12 1148.38,-161.34"/>
</g>
<!-- Node21 -->
<g id="node21" class="node">
<title>Node21</title>
<g id="a_node21"><a xlink:title=" ">
<polygon fill="white" stroke="#bfbfbf" points="1221,-134.5 1221,-153.5 1274,-153.5 1274,-134.5 1221,-134.5"/>
<text text-anchor="middle" x="1247.5" y="-141.5" font-family="Helvetica,sans-Serif" font-size="10.00">TH2D.h</text>
</a>
</g>
</g>
<!-- Node17&#45;&gt;Node21 -->
<g id="edge22" class="edge">
<title>Node17&#45;&gt;Node21</title>
<path fill="none" stroke="midnightblue" d="M1096.02,-190.44C1127.11,-181.12 1176.93,-166.17 1210.88,-155.99"/>
<polygon fill="midnightblue" stroke="midnightblue" points="1212.3,-159.21 1220.87,-152.99 1210.29,-152.51 1212.3,-159.21"/>
</g>
<!-- Node24&#45;&gt;Node2 -->
<g id="edge33" class="edge">
<title>Node24&#45;&gt;Node2</title>
<path fill="none" stroke="midnightblue" d="M937.57,-302.08C930.65,-294.3 920.43,-282.8 912.05,-273.37"/>
<polygon fill="midnightblue" stroke="midnightblue" points="914.54,-270.9 905.28,-265.75 909.31,-275.55 914.54,-270.9"/>
</g>
<!-- Node24&#45;&gt;Node3 -->
<g id="edge26" class="edge">
<title>Node24&#45;&gt;Node3</title>
<path fill="none" stroke="midnightblue" d="M914.87,-302.48C887.86,-294.5 847.74,-281.5 814.5,-266 782.88,-251.26 748.76,-229.67 727.52,-215.48"/>
<polygon fill="midnightblue" stroke="midnightblue" points="729.23,-212.41 718.98,-209.71 725.31,-218.21 729.23,-212.41"/>
</g>
<!-- Node25 -->
<g id="node25" class="node">
<title>Node25</title>
<g id="a_node25"><a xlink:href="_o_m_sim_hit_manager_8hh.html" target="_top" xlink:title="Defines structures and classes related to optical module photon hit management.">
<polygon fill="white" stroke="black" points="1191,-246.5 1191,-265.5 1314,-265.5 1314,-246.5 1191,-246.5"/>
<text text-anchor="middle" x="1252.5" y="-253.5" font-family="Helvetica,sans-Serif" font-size="10.00">OMSimHitManager.hh</text>
</a>
</g>
</g>
<!-- Node24&#45;&gt;Node25 -->
<g id="edge27" class="edge">
<title>Node24&#45;&gt;Node25</title>
<path fill="none" stroke="midnightblue" d="M994.15,-302.44C1048.37,-292.9 1136.05,-277.48 1193.98,-267.29"/>
<polygon fill="midnightblue" stroke="midnightblue" points="1194.84,-270.7 1204.08,-265.52 1193.63,-263.8 1194.84,-270.7"/>
</g>
<!-- Node25&#45;&gt;Node17 -->
<g id="edge28" class="edge">
<title>Node25&#45;&gt;Node17</title>
<path fill="none" stroke="midnightblue" d="M1223.19,-246.44C1191.66,-237.24 1141.37,-222.56 1106.51,-212.39"/>
<polygon fill="midnightblue" stroke="midnightblue" points="1107.26,-208.96 1096.68,-209.52 1105.3,-215.68 1107.26,-208.96"/>
</g>
<!-- Node26 -->
<g id="node26" class="node">
<title>Node26</title>
<g id="a_node26"><a xlink:title=" ">
<polygon fill="white" stroke="#bfbfbf" points="1153,-190.5 1153,-209.5 1256,-209.5 1256,-190.5 1153,-190.5"/>
<text text-anchor="middle" x="1204.5" y="-197.5" font-family="Helvetica,sans-Serif" font-size="10.00">G4ThreeVector.hh</text>
</a>
</g>
</g>
<!-- Node25&#45;&gt;Node26 -->
<g id="edge29" class="edge">
<title>Node25&#45;&gt;Node26</title>
<path fill="none" stroke="midnightblue" d="M1244.57,-246.08C1237.65,-238.3 1227.43,-226.8 1219.05,-217.37"/>
<polygon fill="midnightblue" stroke="midnightblue" points="1221.54,-214.9 1212.28,-209.75 1216.31,-219.55 1221.54,-214.9"/>
</g>
<!-- Node27 -->
<g id="node27" class="node">
<title>Node27</title>
<g id="a_node27"><a xlink:title=" ">
<polygon fill="white" stroke="#bfbfbf" points="1274,-190.5 1274,-209.5 1329,-209.5 1329,-190.5 1274,-190.5"/>
<text text-anchor="middle" x="1301.5" y="-197.5" font-family="Helvetica,sans-Serif" font-size="10.00">fstream</text>
</a>
</g>
</g>
<!-- Node25&#45;&gt;Node27 -->
<g id="edge30" class="edge">
<title>Node25&#45;&gt;Node27</title>
<path fill="none" stroke="midnightblue" d="M1260.59,-246.08C1267.66,-238.3 1278.09,-226.8 1286.65,-217.37"/>
<polygon fill="midnightblue" stroke="midnightblue" points="1289.43,-219.51 1293.56,-209.75 1284.25,-214.8 1289.43,-219.51"/>
</g>
<!-- Node28 -->
<g id="node28" class="node">
<title>Node28</title>
<g id="a_node28"><a xlink:title=" ">
<polygon fill="white" stroke="#bfbfbf" points="1347.5,-190.5 1347.5,-209.5 1437.5,-209.5 1437.5,-190.5 1347.5,-190.5"/>
<text text-anchor="middle" x="1392.5" y="-197.5" font-family="Helvetica,sans-Serif" font-size="10.00">G4AutoLock.hh</text>
</a>
</g>
</g>
<!-- Node25&#45;&gt;Node28 -->
<g id="edge31" class="edge">
<title>Node25&#45;&gt;Node28</title>
<path fill="none" stroke="midnightblue" d="M1274.68,-246.44C1297.93,-237.48 1334.65,-223.31 1360.92,-213.18"/>
<polygon fill="midnightblue" stroke="midnightblue" points="1362.35,-216.38 1370.42,-209.52 1359.83,-209.85 1362.35,-216.38"/>
</g>
<!-- Node29 -->
<g id="node29" class="node">
<title>Node29</title>
<g id="a_node29"><a xlink:title=" ">
<polygon fill="white" stroke="#bfbfbf" points="1455.5,-190.5 1455.5,-209.5 1549.5,-209.5 1549.5,-190.5 1455.5,-190.5"/>
<text text-anchor="middle" x="1502.5" y="-197.5" font-family="Helvetica,sans-Serif" font-size="10.00">G4Threading.hh</text>
</a>
</g>
</g>
<!-- Node25&#45;&gt;Node29 -->
<g id="edge32" class="edge">
<title>Node25&#45;&gt;Node29</title>
<path fill="none" stroke="midnightblue" d="M1292.11,-246.44C1335.73,-237.02 1405.9,-221.87 1453.08,-211.68"/>
<polygon fill="midnightblue" stroke="midnightblue" points="1454.04,-215.05 1463.07,-209.52 1452.56,-208.21 1454.04,-215.05"/>
</g>
</g>
</svg>
