<?xml version="1.0" encoding="UTF-8" standalone="no"?>
<!DOCTYPE svg PUBLIC "-//W3C//DTD SVG 1.1//EN"
 "http://www.w3.org/Graphics/SVG/1.1/DTD/svg11.dtd">
<!-- Generated by graphviz version 2.43.0 (0)
 -->
<!-- Title: OMSimDetectorConstruction.cc Pages: 1 -->
<svg width="1501pt" height="442pt"
 viewBox="0.00 0.00 1501.00 442.00" xmlns="http://www.w3.org/2000/svg" xmlns:xlink="http://www.w3.org/1999/xlink">
<g id="graph0" class="graph" transform="scale(1 1) rotate(0) translate(4 438)">
<title>OMSimDetectorConstruction.cc</title>
<polygon fill="white" stroke="transparent" points="-4,4 -4,-438 1497,-438 1497,4 -4,4"/>
<!-- Node1 -->
<g id="node1" class="node">
<title>Node1</title>
<g id="a_node1"><a xlink:title=" ">
<polygon fill="#bfbfbf" stroke="black" points="832.5,-414.5 832.5,-433.5 1001.5,-433.5 1001.5,-414.5 832.5,-414.5"/>
<text text-anchor="middle" x="917" y="-421.5" font-family="Helvetica,sans-Serif" font-size="10.00">OMSimDetectorConstruction.cc</text>
</a>
</g>
</g>
<!-- Node2 -->
<g id="node2" class="node">
<title>Node2</title>
<g id="a_node2"><a xlink:href="_o_m_sim_detector_construction_8hh.html" target="_top" xlink:title=" ">
<polygon fill="white" stroke="black" points="350,-358.5 350,-377.5 520,-377.5 520,-358.5 350,-358.5"/>
<text text-anchor="middle" x="435" y="-365.5" font-family="Helvetica,sans-Serif" font-size="10.00">OMSimDetectorConstruction.hh</text>
</a>
</g>
</g>
<!-- Node1&#45;&gt;Node2 -->
<g id="edge1" class="edge">
<title>Node1&#45;&gt;Node2</title>
<path fill="none" stroke="midnightblue" d="M840.89,-414.47C753.95,-404.73 612.02,-388.83 521.11,-378.65"/>
<polygon fill="midnightblue" stroke="midnightblue" points="521.43,-375.16 511.11,-377.53 520.65,-382.12 521.43,-375.16"/>
</g>
<!-- Node6 -->
<g id="node6" class="node">
<title>Node6</title>
<g id="a_node6"><a xlink:href="_o_m_sim_logger_8hh.html" target="_top" xlink:title=" ">
<polygon fill="white" stroke="black" points="1207.5,-73 1207.5,-92 1306.5,-92 1306.5,-73 1207.5,-73"/>
<text text-anchor="middle" x="1257" y="-80" font-family="Helvetica,sans-Serif" font-size="10.00">OMSimLogger.hh</text>
</a>
</g>
</g>
<!-- Node1&#45;&gt;Node6 -->
<g id="edge67" class="edge">
<title>Node1&#45;&gt;Node6</title>
<path fill="none" stroke="midnightblue" d="M1001.68,-415.47C1048.01,-409.27 1105.65,-398.07 1154,-378 1194.76,-361.08 1213.7,-360.08 1236,-322 1278.13,-250.04 1267.13,-144.41 1260.39,-102.06"/>
<polygon fill="midnightblue" stroke="midnightblue" points="1263.82,-101.35 1258.69,-92.08 1256.92,-102.53 1263.82,-101.35"/>
</g>
<!-- Node18 -->
<g id="node18" class="node">
<title>Node18</title>
<g id="a_node18"><a xlink:href="_o_m_sim_hit_manager_8hh.html" target="_top" xlink:title="Defines structures and classes related to optical module photon hit management.">
<polygon fill="white" stroke="black" points="480.5,-246.5 480.5,-265.5 603.5,-265.5 603.5,-246.5 480.5,-246.5"/>
<text text-anchor="middle" x="542" y="-253.5" font-family="Helvetica,sans-Serif" font-size="10.00">OMSimHitManager.hh</text>
</a>
</g>
</g>
<!-- Node1&#45;&gt;Node18 -->
<g id="edge66" class="edge">
<title>Node1&#45;&gt;Node18</title>
<path fill="none" stroke="midnightblue" d="M832.46,-422.87C741.99,-420.92 606.4,-412.14 569,-378 540.35,-351.84 538.66,-302.53 540.17,-275.64"/>
<polygon fill="midnightblue" stroke="midnightblue" points="543.66,-275.86 540.94,-265.62 536.68,-275.32 543.66,-275.86"/>
</g>
<!-- Node34 -->
<g id="node34" class="node">
<title>Node34</title>
<g id="a_node34"><a xlink:href="_o_m_sim_p_d_o_m_8hh.html" target="_top" xlink:title="Implementation of the pDOM/Gen1 DOM class.">
<polygon fill="white" stroke="black" points="810.5,-358.5 810.5,-377.5 907.5,-377.5 907.5,-358.5 810.5,-358.5"/>
<text text-anchor="middle" x="859" y="-365.5" font-family="Helvetica,sans-Serif" font-size="10.00">OMSimPDOM.hh</text>
</a>
</g>
</g>
<!-- Node1&#45;&gt;Node34 -->
<g id="edge40" class="edge">
<title>Node1&#45;&gt;Node34</title>
<path fill="none" stroke="midnightblue" d="M907.68,-414.32C899.11,-406.34 886.19,-394.31 875.81,-384.65"/>
<polygon fill="midnightblue" stroke="midnightblue" points="878.19,-382.09 868.49,-377.83 873.42,-387.21 878.19,-382.09"/>
</g>
<!-- Node35 -->
<g id="node35" class="node">
<title>Node35</title>
<g id="a_node35"><a xlink:href="_o_m_sim_l_o_m16_8hh.html" target="_top" xlink:title="Construction of LOM16.">
<polygon fill="white" stroke="black" points="578.5,-358.5 578.5,-377.5 679.5,-377.5 679.5,-358.5 578.5,-358.5"/>
<text text-anchor="middle" x="629" y="-365.5" font-family="Helvetica,sans-Serif" font-size="10.00">OMSimLOM16.hh</text>
</a>
</g>
</g>
<!-- Node1&#45;&gt;Node35 -->
<g id="edge43" class="edge">
<title>Node1&#45;&gt;Node35</title>
<path fill="none" stroke="midnightblue" d="M871.37,-414.44C820.7,-404.94 738.93,-389.61 684.57,-379.42"/>
<polygon fill="midnightblue" stroke="midnightblue" points="684.89,-375.92 674.42,-377.52 683.6,-382.8 684.89,-375.92"/>
</g>
<!-- Node36 -->
<g id="node36" class="node">
<title>Node36</title>
<g id="a_node36"><a xlink:href="_o_m_sim_l_o_m18_8hh.html" target="_top" xlink:title="Construction of LOM18.">
<polygon fill="white" stroke="black" points="1044.5,-358.5 1044.5,-377.5 1145.5,-377.5 1145.5,-358.5 1044.5,-358.5"/>
<text text-anchor="middle" x="1095" y="-365.5" font-family="Helvetica,sans-Serif" font-size="10.00">OMSimLOM18.hh</text>
</a>
</g>
</g>
<!-- Node1&#45;&gt;Node36 -->
<g id="edge46" class="edge">
<title>Node1&#45;&gt;Node36</title>
<path fill="none" stroke="midnightblue" d="M945.2,-414.44C975.41,-405.28 1023.51,-390.69 1057.03,-380.52"/>
<polygon fill="midnightblue" stroke="midnightblue" points="1058.37,-383.77 1066.93,-377.52 1056.34,-377.07 1058.37,-383.77"/>
</g>
<!-- Node39 -->
<g id="node39" class="node">
<title>Node39</title>
<g id="a_node39"><a xlink:href="_o_m_sim_d_e_g_g_8hh.html" target="_top" xlink:title="Construction of the DEGG class.">
<polygon fill="white" stroke="black" points="697.5,-358.5 697.5,-377.5 792.5,-377.5 792.5,-358.5 697.5,-358.5"/>
<text text-anchor="middle" x="745" y="-365.5" font-family="Helvetica,sans-Serif" font-size="10.00">OMSimDEGG.hh</text>
</a>
</g>
</g>
<!-- Node1&#45;&gt;Node39 -->
<g id="edge51" class="edge">
<title>Node1&#45;&gt;Node39</title>
<path fill="none" stroke="midnightblue" d="M889.75,-414.44C860.56,-405.28 814.08,-390.69 781.69,-380.52"/>
<polygon fill="midnightblue" stroke="midnightblue" points="782.72,-377.17 772.13,-377.52 780.62,-383.85 782.72,-377.17"/>
</g>
<!-- Node40 -->
<g id="node40" class="node">
<title>Node40</title>
<g id="a_node40"><a xlink:href="_o_m_sim_m_d_o_m_8hh.html" target="_top" xlink:title="Construction of mDOM.">
<polygon fill="white" stroke="black" points="926,-358.5 926,-377.5 1026,-377.5 1026,-358.5 926,-358.5"/>
<text text-anchor="middle" x="976" y="-365.5" font-family="Helvetica,sans-Serif" font-size="10.00">OMSimMDOM.hh</text>
</a>
</g>
</g>
<!-- Node1&#45;&gt;Node40 -->
<g id="edge54" class="edge">
<title>Node1&#45;&gt;Node40</title>
<path fill="none" stroke="midnightblue" d="M926.48,-414.32C935.2,-406.34 948.34,-394.31 958.9,-384.65"/>
<polygon fill="midnightblue" stroke="midnightblue" points="961.33,-387.17 966.35,-377.83 956.61,-382 961.33,-387.17"/>
</g>
<!-- Node43 -->
<g id="node43" class="node">
<title>Node43</title>
<g id="a_node43"><a xlink:href="_o_m_sim_command_args_table_8hh.html" target="_top" xlink:title="Definition of the OMSimCommandArgsTable singleton class, which controls user args.">
<polygon fill="white" stroke="black" points="1283,-246.5 1283,-265.5 1447,-265.5 1447,-246.5 1283,-246.5"/>
<text text-anchor="middle" x="1365" y="-253.5" font-family="Helvetica,sans-Serif" font-size="10.00">OMSimCommandArgsTable.hh</text>
</a>
</g>
</g>
<!-- Node1&#45;&gt;Node43 -->
<g id="edge61" class="edge">
<title>Node1&#45;&gt;Node43</title>
<path fill="none" stroke="midnightblue" d="M1001.63,-419.47C1090.9,-414.48 1224.66,-403.01 1269,-378 1311.87,-353.82 1342.62,-302.11 1356.59,-274.78"/>
<polygon fill="midnightblue" stroke="midnightblue" points="1359.83,-276.12 1361.11,-265.6 1353.55,-273.03 1359.83,-276.12"/>
</g>
<!-- Node46 -->
<g id="node46" class="node">
<title>Node46</title>
<g id="a_node46"><a xlink:title=" ">
<polygon fill="white" stroke="#bfbfbf" points="1321.5,-358.5 1321.5,-377.5 1422.5,-377.5 1422.5,-358.5 1321.5,-358.5"/>
<text text-anchor="middle" x="1372" y="-365.5" font-family="Helvetica,sans-Serif" font-size="10.00">G4SDManager.hh</text>
</a>
</g>
</g>
<!-- Node1&#45;&gt;Node46 -->
<g id="edge68" class="edge">
<title>Node1&#45;&gt;Node46</title>
<path fill="none" stroke="midnightblue" d="M995.5,-414.47C1074.3,-405.79 1199.15,-391.69 1307,-378 1308.3,-377.83 1309.62,-377.67 1310.95,-377.49"/>
<polygon fill="midnightblue" stroke="midnightblue" points="1311.81,-380.91 1321.27,-376.14 1310.9,-373.97 1311.81,-380.91"/>
</g>
<!-- Node3 -->
<g id="node3" class="node">
<title>Node3</title>
<g id="a_node3"><a xlink:href="_o_m_sim_optical_module_8hh.html" target="_top" xlink:title=" ">
<polygon fill="white" stroke="black" points="657.5,-302.5 657.5,-321.5 794.5,-321.5 794.5,-302.5 657.5,-302.5"/>
<text text-anchor="middle" x="726" y="-309.5" font-family="Helvetica,sans-Serif" font-size="10.00">OMSimOpticalModule.hh</text>
</a>
</g>
</g>
<!-- Node2&#45;&gt;Node3 -->
<g id="edge2" class="edge">
<title>Node2&#45;&gt;Node3</title>
<path fill="none" stroke="midnightblue" d="M481.11,-358.44C532.41,-348.92 615.27,-333.55 670.19,-323.36"/>
<polygon fill="midnightblue" stroke="midnightblue" points="670.91,-326.78 680.11,-321.52 669.64,-319.9 670.91,-326.78"/>
</g>
<!-- Node32 -->
<g id="node32" class="node">
<title>Node32</title>
<g id="a_node32"><a xlink:title=" ">
<polygon fill="white" stroke="#bfbfbf" points="264,-302.5 264,-321.5 326,-321.5 326,-302.5 264,-302.5"/>
<text text-anchor="middle" x="295" y="-309.5" font-family="Helvetica,sans-Serif" font-size="10.00">G4Orb.hh</text>
</a>
</g>
</g>
<!-- Node2&#45;&gt;Node32 -->
<g id="edge38" class="edge">
<title>Node2&#45;&gt;Node32</title>
<path fill="none" stroke="midnightblue" d="M412.82,-358.44C389.57,-349.48 352.85,-335.31 326.58,-325.18"/>
<polygon fill="midnightblue" stroke="midnightblue" points="327.67,-321.85 317.08,-321.52 325.15,-328.38 327.67,-321.85"/>
</g>
<!-- Node33 -->
<g id="node33" class="node">
<title>Node33</title>
<g id="a_node33"><a xlink:title=" ">
<polygon fill="white" stroke="#bfbfbf" points="344,-302.5 344,-321.5 522,-321.5 522,-302.5 344,-302.5"/>
<text text-anchor="middle" x="433" y="-309.5" font-family="Helvetica,sans-Serif" font-size="10.00">G4VUserDetectorConstruction.hh</text>
</a>
</g>
</g>
<!-- Node2&#45;&gt;Node33 -->
<g id="edge39" class="edge">
<title>Node2&#45;&gt;Node33</title>
<path fill="none" stroke="midnightblue" d="M434.67,-358.08C434.41,-351.01 434.03,-340.86 433.7,-331.99"/>
<polygon fill="midnightblue" stroke="midnightblue" points="437.19,-331.61 433.32,-321.75 430.2,-331.87 437.19,-331.61"/>
</g>
<!-- Node4 -->
<g id="node4" class="node">
<title>Node4</title>
<g id="a_node4"><a xlink:href="abc_detector_component_8hh.html" target="_top" xlink:title="Provides helper base class abcDetectorComponent for constructing and managing detector components in ...">
<polygon fill="white" stroke="black" points="757.5,-190.5 757.5,-209.5 904.5,-209.5 904.5,-190.5 757.5,-190.5"/>
<text text-anchor="middle" x="831" y="-197.5" font-family="Helvetica,sans-Serif" font-size="10.00">abcDetectorComponent.hh</text>
</a>
</g>
</g>
<!-- Node3&#45;&gt;Node4 -->
<g id="edge3" class="edge">
<title>Node3&#45;&gt;Node4</title>
<path fill="none" stroke="midnightblue" d="M725.76,-302.44C725.84,-289 727.82,-262.74 741,-246 753.13,-230.6 771.92,-220.05 789.2,-213.06"/>
<polygon fill="midnightblue" stroke="midnightblue" points="790.46,-216.33 798.59,-209.54 788,-209.78 790.46,-216.33"/>
</g>
<!-- Node3&#45;&gt;Node18 -->
<g id="edge17" class="edge">
<title>Node3&#45;&gt;Node18</title>
<path fill="none" stroke="midnightblue" d="M696.84,-302.44C665.49,-293.24 615.47,-278.56 580.8,-268.39"/>
<polygon fill="midnightblue" stroke="midnightblue" points="581.6,-264.97 571.02,-265.52 579.63,-271.69 581.6,-264.97"/>
</g>
<!-- Node29 -->
<g id="node29" class="node">
<title>Node29</title>
<g id="a_node29"><a xlink:href="_o_m_sim_p_m_t_construction_8hh.html" target="_top" xlink:title="Construction of the PMTs.">
<polygon fill="white" stroke="black" points="750.5,-246.5 750.5,-265.5 899.5,-265.5 899.5,-246.5 750.5,-246.5"/>
<text text-anchor="middle" x="825" y="-253.5" font-family="Helvetica,sans-Serif" font-size="10.00">OMSimPMTConstruction.hh</text>
</a>
</g>
</g>
<!-- Node3&#45;&gt;Node29 -->
<g id="edge32" class="edge">
<title>Node3&#45;&gt;Node29</title>
<path fill="none" stroke="midnightblue" d="M741.91,-302.32C757.64,-293.74 781.94,-280.49 800.21,-270.52"/>
<polygon fill="midnightblue" stroke="midnightblue" points="802.03,-273.52 809.13,-265.65 798.68,-267.37 802.03,-273.52"/>
</g>
<!-- Node5 -->
<g id="node5" class="node">
<title>Node5</title>
<g id="a_node5"><a xlink:href="_o_m_sim_input_data_8hh.html" target="_top" xlink:title="Definition of ParameterTable and InputDataManager.">
<polygon fill="white" stroke="black" points="715.5,-134.5 715.5,-153.5 830.5,-153.5 830.5,-134.5 715.5,-134.5"/>
<text text-anchor="middle" x="773" y="-141.5" font-family="Helvetica,sans-Serif" font-size="10.00">OMSimInputData.hh</text>
</a>
</g>
</g>
<!-- Node4&#45;&gt;Node5 -->
<g id="edge4" class="edge">
<title>Node4&#45;&gt;Node5</title>
<path fill="none" stroke="midnightblue" d="M821.68,-190.32C813.11,-182.34 800.19,-170.31 789.81,-160.65"/>
<polygon fill="midnightblue" stroke="midnightblue" points="792.19,-158.09 782.49,-153.83 787.42,-163.21 792.19,-158.09"/>
</g>
<!-- Node14 -->
<g id="node14" class="node">
<title>Node14</title>
<g id="a_node14"><a xlink:title=" ">
<polygon fill="white" stroke="#bfbfbf" points="590.5,-134.5 590.5,-153.5 697.5,-153.5 697.5,-134.5 590.5,-134.5"/>
<text text-anchor="middle" x="644" y="-141.5" font-family="Helvetica,sans-Serif" font-size="10.00">G4Transform3D.hh</text>
</a>
</g>
</g>
<!-- Node4&#45;&gt;Node14 -->
<g id="edge13" class="edge">
<title>Node4&#45;&gt;Node14</title>
<path fill="none" stroke="midnightblue" d="M801.37,-190.44C769.5,-181.24 718.67,-166.56 683.44,-156.39"/>
<polygon fill="midnightblue" stroke="midnightblue" points="684.07,-152.93 673.49,-153.52 682.13,-159.65 684.07,-152.93"/>
</g>
<!-- Node15 -->
<g id="node15" class="node">
<title>Node15</title>
<g id="a_node15"><a xlink:title=" ">
<polygon fill="white" stroke="#bfbfbf" points="849,-134.5 849,-153.5 957,-153.5 957,-134.5 849,-134.5"/>
<text text-anchor="middle" x="903" y="-141.5" font-family="Helvetica,sans-Serif" font-size="10.00">G4VisAttributes.hh</text>
</a>
</g>
</g>
<!-- Node4&#45;&gt;Node15 -->
<g id="edge14" class="edge">
<title>Node4&#45;&gt;Node15</title>
<path fill="none" stroke="midnightblue" d="M842.57,-190.32C853.42,-182.18 869.88,-169.84 882.88,-160.09"/>
<polygon fill="midnightblue" stroke="midnightblue" points="885.32,-162.63 891.22,-153.83 881.12,-157.03 885.32,-162.63"/>
</g>
<!-- Node16 -->
<g id="node16" class="node">
<title>Node16</title>
<g id="a_node16"><a xlink:title=" ">
<polygon fill="white" stroke="#bfbfbf" points="975.5,-134.5 975.5,-153.5 1100.5,-153.5 1100.5,-134.5 975.5,-134.5"/>
<text text-anchor="middle" x="1038" y="-141.5" font-family="Helvetica,sans-Serif" font-size="10.00">G4SubtractionSolid.hh</text>
</a>
</g>
</g>
<!-- Node4&#45;&gt;Node16 -->
<g id="edge15" class="edge">
<title>Node4&#45;&gt;Node16</title>
<path fill="none" stroke="midnightblue" d="M863.8,-190.44C899.38,-181.16 956.31,-166.31 995.35,-156.13"/>
<polygon fill="midnightblue" stroke="midnightblue" points="996.56,-159.43 1005.35,-153.52 994.79,-152.65 996.56,-159.43"/>
</g>
<!-- Node17 -->
<g id="node17" class="node">
<title>Node17</title>
<g id="a_node17"><a xlink:title=" ">
<polygon fill="white" stroke="#bfbfbf" points="1119,-134.5 1119,-153.5 1229,-153.5 1229,-134.5 1119,-134.5"/>
<text text-anchor="middle" x="1174" y="-141.5" font-family="Helvetica,sans-Serif" font-size="10.00">G4PVPlacement.hh</text>
</a>
</g>
</g>
<!-- Node4&#45;&gt;Node17 -->
<g id="edge16" class="edge">
<title>Node4&#45;&gt;Node17</title>
<path fill="none" stroke="midnightblue" d="M885.35,-190.44C946.31,-180.85 1045.11,-165.29 1109.82,-155.1"/>
<polygon fill="midnightblue" stroke="midnightblue" points="1110.57,-158.53 1119.9,-153.52 1109.48,-151.61 1110.57,-158.53"/>
</g>
<!-- Node5&#45;&gt;Node6 -->
<g id="edge5" class="edge">
<title>Node5&#45;&gt;Node6</title>
<path fill="none" stroke="midnightblue" d="M830.74,-135.2C833.87,-134.79 836.97,-134.39 840,-134 967.12,-117.77 1116.22,-100.02 1197.22,-90.49"/>
<polygon fill="midnightblue" stroke="midnightblue" points="1197.7,-93.96 1207.23,-89.32 1196.89,-87.01 1197.7,-93.96"/>
</g>
<!-- Node11 -->
<g id="node11" class="node">
<title>Node11</title>
<g id="a_node11"><a xlink:title=" ">
<polygon fill="white" stroke="#bfbfbf" points="534.5,-73 534.5,-92 677.5,-92 677.5,-73 534.5,-73"/>
<text text-anchor="middle" x="606" y="-80" font-family="Helvetica,sans-Serif" font-size="10.00">G4OpBoundaryProcess.hh</text>
</a>
</g>
</g>
<!-- Node5&#45;&gt;Node11 -->
<g id="edge10" class="edge">
<title>Node5&#45;&gt;Node11</title>
<path fill="none" stroke="midnightblue" d="M749.07,-134.48C720.3,-124.22 671.84,-106.96 639.4,-95.4"/>
<polygon fill="midnightblue" stroke="midnightblue" points="640.48,-92.07 629.88,-92.01 638.13,-98.66 640.48,-92.07"/>
</g>
<!-- Node12 -->
<g id="node12" class="node">
<title>Node12</title>
<g id="a_node12"><a xlink:title=" ">
<polygon fill="white" stroke="#bfbfbf" points="355.5,-73 355.5,-92 474.5,-92 474.5,-73 355.5,-73"/>
<text text-anchor="middle" x="415" y="-80" font-family="Helvetica,sans-Serif" font-size="10.00">G4SystemOfUnits.hh</text>
</a>
</g>
</g>
<!-- Node5&#45;&gt;Node12 -->
<g id="edge11" class="edge">
<title>Node5&#45;&gt;Node12</title>
<path fill="none" stroke="midnightblue" d="M721.71,-134.48C656.84,-123.69 545.29,-105.15 476.09,-93.65"/>
<polygon fill="midnightblue" stroke="midnightblue" points="476.64,-90.2 466.2,-92.01 475.49,-97.1 476.64,-90.2"/>
</g>
<!-- Node13 -->
<g id="node13" class="node">
<title>Node13</title>
<g id="a_node13"><a xlink:title=" ">
<polygon fill="white" stroke="#bfbfbf" points="716.5,-67.5 716.5,-97.5 829.5,-97.5 829.5,-67.5 716.5,-67.5"/>
<text text-anchor="start" x="724.5" y="-85.5" font-family="Helvetica,sans-Serif" font-size="10.00">boost/property_tree</text>
<text text-anchor="middle" x="773" y="-74.5" font-family="Helvetica,sans-Serif" font-size="10.00">/json_parser.hpp</text>
</a>
</g>
</g>
<!-- Node5&#45;&gt;Node13 -->
<g id="edge12" class="edge">
<title>Node5&#45;&gt;Node13</title>
<path fill="none" stroke="midnightblue" d="M773,-134.48C773,-127.47 773,-117.19 773,-107.7"/>
<polygon fill="midnightblue" stroke="midnightblue" points="776.5,-107.52 773,-97.52 769.5,-107.52 776.5,-107.52"/>
</g>
<!-- Node7 -->
<g id="node7" class="node">
<title>Node7</title>
<g id="a_node7"><a xlink:title=" ">
<polygon fill="white" stroke="#bfbfbf" points="1038.5,-6 1038.5,-25 1131.5,-25 1131.5,-6 1038.5,-6"/>
<text text-anchor="middle" x="1085" y="-13" font-family="Helvetica,sans-Serif" font-size="10.00">spdlog/spdlog.h</text>
</a>
</g>
</g>
<!-- Node6&#45;&gt;Node7 -->
<g id="edge6" class="edge">
<title>Node6&#45;&gt;Node7</title>
<path fill="none" stroke="midnightblue" d="M1234.16,-72.87C1204.13,-61.52 1151.22,-41.52 1117.16,-28.65"/>
<polygon fill="midnightblue" stroke="midnightblue" points="1118.25,-25.32 1107.66,-25.06 1115.78,-31.87 1118.25,-25.32"/>
</g>
<!-- Node8 -->
<g id="node8" class="node">
<title>Node8</title>
<g id="a_node8"><a xlink:title=" ">
<polygon fill="white" stroke="#bfbfbf" points="1149.5,-0.5 1149.5,-30.5 1260.5,-30.5 1260.5,-0.5 1149.5,-0.5"/>
<text text-anchor="start" x="1157.5" y="-18.5" font-family="Helvetica,sans-Serif" font-size="10.00">spdlog/sinks/stdout</text>
<text text-anchor="middle" x="1205" y="-7.5" font-family="Helvetica,sans-Serif" font-size="10.00">_color_sinks.h</text>
</a>
</g>
</g>
<!-- Node6&#45;&gt;Node8 -->
<g id="edge7" class="edge">
<title>Node6&#45;&gt;Node8</title>
<path fill="none" stroke="midnightblue" d="M1249.99,-72.73C1243.03,-64.03 1232.08,-50.34 1222.72,-38.65"/>
<polygon fill="midnightblue" stroke="midnightblue" points="1225.25,-36.21 1216.27,-30.59 1219.79,-40.58 1225.25,-36.21"/>
</g>
<!-- Node9 -->
<g id="node9" class="node">
<title>Node9</title>
<g id="a_node9"><a xlink:title=" ">
<polygon fill="white" stroke="#bfbfbf" points="1279,-6 1279,-25 1337,-25 1337,-6 1279,-6"/>
<text text-anchor="middle" x="1308" y="-13" font-family="Helvetica,sans-Serif" font-size="10.00">memory</text>
</a>
</g>
</g>
<!-- Node6&#45;&gt;Node9 -->
<g id="edge8" class="edge">
<title>Node6&#45;&gt;Node9</title>
<path fill="none" stroke="midnightblue" d="M1263.88,-72.73C1271.83,-62.6 1285.1,-45.69 1295.01,-33.06"/>
<polygon fill="midnightblue" stroke="midnightblue" points="1297.81,-35.16 1301.23,-25.13 1292.3,-30.83 1297.81,-35.16"/>
</g>
<!-- Node10 -->
<g id="node10" class="node">
<title>Node10</title>
<g id="a_node10"><a xlink:title=" ">
<polygon fill="white" stroke="#bfbfbf" points="1355,-6 1355,-25 1453,-25 1453,-6 1355,-6"/>
<text text-anchor="middle" x="1404" y="-13" font-family="Helvetica,sans-Serif" font-size="10.00">spdlog/fmt/fmt.h</text>
</a>
</g>
</g>
<!-- Node6&#45;&gt;Node10 -->
<g id="edge9" class="edge">
<title>Node6&#45;&gt;Node10</title>
<path fill="none" stroke="midnightblue" d="M1276.52,-72.87C1301.78,-61.7 1346,-42.15 1375.14,-29.26"/>
<polygon fill="midnightblue" stroke="midnightblue" points="1376.67,-32.41 1384.4,-25.17 1373.84,-26.01 1376.67,-32.41"/>
</g>
<!-- Node19 -->
<g id="node19" class="node">
<title>Node19</title>
<g id="a_node19"><a xlink:href="_o_m_sim_p_m_t_response_8hh.html" target="_top" xlink:title="Provides simulation for PMT response. This class is responsible for transforming hits on photocathode...">
<polygon fill="white" stroke="black" points="56.5,-134.5 56.5,-153.5 191.5,-153.5 191.5,-134.5 56.5,-134.5"/>
<text text-anchor="middle" x="124" y="-141.5" font-family="Helvetica,sans-Serif" font-size="10.00">OMSimPMTResponse.hh</text>
</a>
</g>
</g>
<!-- Node18&#45;&gt;Node19 -->
<g id="edge18" class="edge">
<title>Node18&#45;&gt;Node19</title>
<path fill="none" stroke="midnightblue" d="M480.26,-250.39C398.08,-243.62 257.59,-229.62 210,-210 182.59,-198.7 156.18,-176.5 140.02,-161.22"/>
<polygon fill="midnightblue" stroke="midnightblue" points="142.16,-158.42 132.55,-153.95 137.28,-163.43 142.16,-158.42"/>
</g>
<!-- Node24 -->
<g id="node24" class="node">
<title>Node24</title>
<g id="a_node24"><a xlink:href="_o_m_sim_sensitive_detector_8hh.html" target="_top" xlink:title=" ">
<polygon fill="white" stroke="black" points="256.5,-190.5 256.5,-209.5 409.5,-209.5 409.5,-190.5 256.5,-190.5"/>
<text text-anchor="middle" x="333" y="-197.5" font-family="Helvetica,sans-Serif" font-size="10.00">OMSimSensitiveDetector.hh</text>
</a>
</g>
</g>
<!-- Node18&#45;&gt;Node24 -->
<g id="edge24" class="edge">
<title>Node18&#45;&gt;Node24</title>
<path fill="none" stroke="midnightblue" d="M508.88,-246.44C472.88,-237.14 415.23,-222.25 375.81,-212.06"/>
<polygon fill="midnightblue" stroke="midnightblue" points="376.52,-208.63 365.96,-209.52 374.77,-215.41 376.52,-208.63"/>
</g>
<!-- Node26 -->
<g id="node26" class="node">
<title>Node26</title>
<g id="a_node26"><a xlink:title=" ">
<polygon fill="white" stroke="#bfbfbf" points="469.5,-134.5 469.5,-153.5 572.5,-153.5 572.5,-134.5 469.5,-134.5"/>
<text text-anchor="middle" x="521" y="-141.5" font-family="Helvetica,sans-Serif" font-size="10.00">G4ThreeVector.hh</text>
</a>
</g>
</g>
<!-- Node18&#45;&gt;Node26 -->
<g id="edge30" class="edge">
<title>Node18&#45;&gt;Node26</title>
<path fill="none" stroke="midnightblue" d="M540.35,-246.37C536.96,-228.62 529.15,-187.67 524.55,-163.6"/>
<polygon fill="midnightblue" stroke="midnightblue" points="527.95,-162.76 522.64,-153.59 521.08,-164.07 527.95,-162.76"/>
</g>
<!-- Node28 -->
<g id="node28" class="node">
<title>Node28</title>
<g id="a_node28"><a xlink:title=" ">
<polygon fill="white" stroke="#bfbfbf" points="1156.5,-190.5 1156.5,-209.5 1211.5,-209.5 1211.5,-190.5 1156.5,-190.5"/>
<text text-anchor="middle" x="1184" y="-197.5" font-family="Helvetica,sans-Serif" font-size="10.00">fstream</text>
</a>
</g>
</g>
<!-- Node18&#45;&gt;Node28 -->
<g id="edge31" class="edge">
<title>Node18&#45;&gt;Node28</title>
<path fill="none" stroke="midnightblue" d="M603.96,-251.34C735.25,-243.41 1037.79,-224.24 1140,-210 1142.05,-209.71 1144.15,-209.39 1146.27,-209.04"/>
<polygon fill="midnightblue" stroke="midnightblue" points="1146.94,-212.47 1156.16,-207.25 1145.7,-205.59 1146.94,-212.47"/>
</g>
<!-- Node19&#45;&gt;Node12 -->
<g id="edge19" class="edge">
<title>Node19&#45;&gt;Node12</title>
<path fill="none" stroke="midnightblue" d="M165.69,-134.48C217.77,-123.83 306.87,-105.61 363.25,-94.08"/>
<polygon fill="midnightblue" stroke="midnightblue" points="364.29,-97.44 373.38,-92.01 362.89,-90.58 364.29,-97.44"/>
</g>
<!-- Node20 -->
<g id="node20" class="node">
<title>Node20</title>
<g id="a_node20"><a xlink:title=" ">
<polygon fill="white" stroke="#bfbfbf" points="206.5,-73 206.5,-92 279.5,-92 279.5,-73 206.5,-73"/>
<text text-anchor="middle" x="243" y="-80" font-family="Helvetica,sans-Serif" font-size="10.00">G4Types.hh</text>
</a>
</g>
</g>
<!-- Node19&#45;&gt;Node20 -->
<g id="edge20" class="edge">
<title>Node19&#45;&gt;Node20</title>
<path fill="none" stroke="midnightblue" d="M141.05,-134.48C160.84,-124.58 193.72,-108.14 216.77,-96.62"/>
<polygon fill="midnightblue" stroke="midnightblue" points="218.6,-99.61 225.98,-92.01 215.47,-93.35 218.6,-99.61"/>
</g>
<!-- Node21 -->
<g id="node21" class="node">
<title>Node21</title>
<g id="a_node21"><a xlink:title=" ">
<polygon fill="white" stroke="#bfbfbf" points="0,-73 0,-92 38,-92 38,-73 0,-73"/>
<text text-anchor="middle" x="19" y="-80" font-family="Helvetica,sans-Serif" font-size="10.00">map</text>
</a>
</g>
</g>
<!-- Node19&#45;&gt;Node21 -->
<g id="edge21" class="edge">
<title>Node19&#45;&gt;Node21</title>
<path fill="none" stroke="midnightblue" d="M108.96,-134.48C91.72,-124.71 63.26,-108.58 42.97,-97.08"/>
<polygon fill="midnightblue" stroke="midnightblue" points="44.44,-93.89 34.02,-92.01 40.99,-99.98 44.44,-93.89"/>
</g>
<!-- Node22 -->
<g id="node22" class="node">
<title>Node22</title>
<g id="a_node22"><a xlink:title=" ">
<polygon fill="white" stroke="#bfbfbf" points="56.5,-73 56.5,-92 117.5,-92 117.5,-73 56.5,-73"/>
<text text-anchor="middle" x="87" y="-80" font-family="Helvetica,sans-Serif" font-size="10.00">TGraph.h</text>
</a>
</g>
</g>
<!-- Node19&#45;&gt;Node22 -->
<g id="edge22" class="edge">
<title>Node19&#45;&gt;Node22</title>
<path fill="none" stroke="midnightblue" d="M118.7,-134.48C113.26,-125.73 104.64,-111.87 97.76,-100.81"/>
<polygon fill="midnightblue" stroke="midnightblue" points="100.54,-98.65 92.29,-92.01 94.6,-102.35 100.54,-98.65"/>
</g>
<!-- Node23 -->
<g id="node23" class="node">
<title>Node23</title>
<g id="a_node23"><a xlink:title=" ">
<polygon fill="white" stroke="#bfbfbf" points="135.5,-73 135.5,-92 188.5,-92 188.5,-73 135.5,-73"/>
<text text-anchor="middle" x="162" y="-80" font-family="Helvetica,sans-Serif" font-size="10.00">TH2D.h</text>
</a>
</g>
</g>
<!-- Node19&#45;&gt;Node23 -->
<g id="edge23" class="edge">
<title>Node19&#45;&gt;Node23</title>
<path fill="none" stroke="midnightblue" d="M129.44,-134.48C135.09,-125.64 144.06,-111.59 151.16,-100.48"/>
<polygon fill="midnightblue" stroke="midnightblue" points="154.13,-102.32 156.57,-92.01 148.23,-98.55 154.13,-102.32"/>
</g>
<!-- Node24&#45;&gt;Node11 -->
<g id="edge28" class="edge">
<title>Node24&#45;&gt;Node11</title>
<path fill="none" stroke="midnightblue" d="M323.49,-190.15C310.26,-176.78 289.47,-151.16 304,-134 311.38,-125.28 445.08,-105.49 532.09,-93.44"/>
<polygon fill="midnightblue" stroke="midnightblue" points="532.77,-96.88 542.19,-92.04 531.81,-89.94 532.77,-96.88"/>
</g>
<!-- Node24&#45;&gt;Node19 -->
<g id="edge27" class="edge">
<title>Node24&#45;&gt;Node19</title>
<path fill="none" stroke="midnightblue" d="M299.88,-190.44C263.88,-181.14 206.23,-166.25 166.81,-156.06"/>
<polygon fill="midnightblue" stroke="midnightblue" points="167.52,-152.63 156.96,-153.52 165.77,-159.41 167.52,-152.63"/>
</g>
<!-- Node25 -->
<g id="node25" class="node">
<title>Node25</title>
<g id="a_node25"><a xlink:title=" ">
<polygon fill="white" stroke="#bfbfbf" points="313,-134.5 313,-153.5 451,-153.5 451,-134.5 313,-134.5"/>
<text text-anchor="middle" x="382" y="-141.5" font-family="Helvetica,sans-Serif" font-size="10.00">G4VSensitiveDetector.hh</text>
</a>
</g>
</g>
<!-- Node24&#45;&gt;Node25 -->
<g id="edge25" class="edge">
<title>Node24&#45;&gt;Node25</title>
<path fill="none" stroke="midnightblue" d="M341.09,-190.08C348.16,-182.3 358.59,-170.8 367.15,-161.37"/>
<polygon fill="midnightblue" stroke="midnightblue" points="369.93,-163.51 374.06,-153.75 364.75,-158.8 369.93,-163.51"/>
</g>
<!-- Node24&#45;&gt;Node26 -->
<g id="edge26" class="edge">
<title>Node24&#45;&gt;Node26</title>
<path fill="none" stroke="midnightblue" d="M362.79,-190.44C394.83,-181.24 445.93,-166.56 481.35,-156.39"/>
<polygon fill="midnightblue" stroke="midnightblue" points="482.71,-159.64 491.35,-153.52 480.77,-152.91 482.71,-159.64"/>
</g>
<!-- Node27 -->
<g id="node27" class="node">
<title>Node27</title>
<g id="a_node27"><a xlink:title=" ">
<polygon fill="white" stroke="#bfbfbf" points="209.5,-134.5 209.5,-153.5 256.5,-153.5 256.5,-134.5 209.5,-134.5"/>
<text text-anchor="middle" x="233" y="-141.5" font-family="Helvetica,sans-Serif" font-size="10.00">vector</text>
</a>
</g>
</g>
<!-- Node24&#45;&gt;Node27 -->
<g id="edge29" class="edge">
<title>Node24&#45;&gt;Node27</title>
<path fill="none" stroke="midnightblue" d="M316.93,-190.32C301.04,-181.74 276.49,-168.49 258.04,-158.52"/>
<polygon fill="midnightblue" stroke="midnightblue" points="259.49,-155.33 249.03,-153.65 256.16,-161.49 259.49,-155.33"/>
</g>
<!-- Node29&#45;&gt;Node4 -->
<g id="edge33" class="edge">
<title>Node29&#45;&gt;Node4</title>
<path fill="none" stroke="midnightblue" d="M825.99,-246.08C826.79,-238.93 827.93,-228.64 828.92,-219.69"/>
<polygon fill="midnightblue" stroke="midnightblue" points="832.4,-220.08 830.03,-209.75 825.44,-219.3 832.4,-220.08"/>
</g>
<!-- Node29&#45;&gt;Node19 -->
<g id="edge35" class="edge">
<title>Node29&#45;&gt;Node19</title>
<path fill="none" stroke="midnightblue" d="M750.49,-250.89C605.22,-242.64 294.16,-223.66 247,-210 244.39,-209.24 184.59,-177.39 149.35,-158.56"/>
<polygon fill="midnightblue" stroke="midnightblue" points="150.6,-155.26 140.13,-153.63 147.3,-161.44 150.6,-155.26"/>
</g>
<!-- Node29&#45;&gt;Node29 -->
<g id="edge34" class="edge">
<title>Node29&#45;&gt;Node29</title>
<path fill="none" stroke="midnightblue" d="M864.45,-265.53C891.26,-268.31 917.5,-265.13 917.5,-256 917.5,-248.01 897.41,-244.58 874.43,-245.71"/>
<polygon fill="midnightblue" stroke="midnightblue" points="874.15,-242.22 864.45,-246.47 874.69,-249.2 874.15,-242.22"/>
</g>
<!-- Node30 -->
<g id="node30" class="node">
<title>Node30</title>
<g id="a_node30"><a xlink:title=" ">
<polygon fill="white" stroke="#bfbfbf" points="923,-190.5 923,-209.5 1021,-209.5 1021,-190.5 923,-190.5"/>
<text text-anchor="middle" x="972" y="-197.5" font-family="Helvetica,sans-Serif" font-size="10.00">G4UnionSolid.hh</text>
</a>
</g>
</g>
<!-- Node29&#45;&gt;Node30 -->
<g id="edge36" class="edge">
<title>Node29&#45;&gt;Node30</title>
<path fill="none" stroke="midnightblue" d="M848.29,-246.44C872.81,-237.44 911.6,-223.19 939.2,-213.05"/>
<polygon fill="midnightblue" stroke="midnightblue" points="940.64,-216.25 948.82,-209.52 938.22,-209.68 940.64,-216.25"/>
</g>
<!-- Node31 -->
<g id="node31" class="node">
<title>Node31</title>
<g id="a_node31"><a xlink:title=" ">
<polygon fill="white" stroke="#bfbfbf" points="672.5,-190.5 672.5,-209.5 739.5,-209.5 739.5,-190.5 672.5,-190.5"/>
<text text-anchor="middle" x="706" y="-197.5" font-family="Helvetica,sans-Serif" font-size="10.00">G4Tubs.hh</text>
</a>
</g>
</g>
<!-- Node29&#45;&gt;Node31 -->
<g id="edge37" class="edge">
<title>Node29&#45;&gt;Node31</title>
<path fill="none" stroke="midnightblue" d="M806.14,-246.44C786.73,-237.64 756.27,-223.81 734.04,-213.72"/>
<polygon fill="midnightblue" stroke="midnightblue" points="735.32,-210.46 724.77,-209.52 732.43,-216.84 735.32,-210.46"/>
</g>
<!-- Node34&#45;&gt;Node3 -->
<g id="edge42" class="edge">
<title>Node34&#45;&gt;Node3</title>
<path fill="none" stroke="midnightblue" d="M837.93,-358.44C815.94,-349.52 781.27,-335.44 756.34,-325.32"/>
<polygon fill="midnightblue" stroke="midnightblue" points="757.56,-322.04 746.98,-321.52 754.92,-328.52 757.56,-322.04"/>
</g>
<!-- Node34&#45;&gt;Node29 -->
<g id="edge41" class="edge">
<title>Node34&#45;&gt;Node29</title>
<path fill="none" stroke="midnightblue" d="M856.33,-358.37C850.82,-340.54 838.07,-299.3 830.65,-275.27"/>
<polygon fill="midnightblue" stroke="midnightblue" points="833.95,-274.11 827.66,-265.59 827.26,-276.18 833.95,-274.11"/>
</g>
<!-- Node35&#45;&gt;Node3 -->
<g id="edge45" class="edge">
<title>Node35&#45;&gt;Node3</title>
<path fill="none" stroke="midnightblue" d="M644.58,-358.32C660,-349.74 683.81,-336.49 701.71,-326.52"/>
<polygon fill="midnightblue" stroke="midnightblue" points="703.42,-329.58 710.45,-321.65 700.01,-323.46 703.42,-329.58"/>
</g>
<!-- Node35&#45;&gt;Node29 -->
<g id="edge44" class="edge">
<title>Node35&#45;&gt;Node29</title>
<path fill="none" stroke="midnightblue" d="M628.96,-358.48C629.37,-344.62 632.27,-317.19 648,-302 672.5,-278.35 707.59,-266.63 740.08,-260.98"/>
<polygon fill="midnightblue" stroke="midnightblue" points="740.72,-264.42 750.06,-259.42 739.64,-257.51 740.72,-264.42"/>
</g>
<!-- Node36&#45;&gt;Node3 -->
<g id="edge48" class="edge">
<title>Node36&#45;&gt;Node3</title>
<path fill="none" stroke="midnightblue" d="M1044.26,-359.37C1041.13,-358.91 1038.02,-358.45 1035,-358 952.58,-345.82 857.74,-332.04 795.11,-322.98"/>
<polygon fill="midnightblue" stroke="midnightblue" points="795.36,-319.48 784.96,-321.51 794.36,-326.41 795.36,-319.48"/>
</g>
<!-- Node36&#45;&gt;Node29 -->
<g id="edge47" class="edge">
<title>Node36&#45;&gt;Node29</title>
<path fill="none" stroke="midnightblue" d="M1073.81,-358.37C1026.2,-338.97 910.59,-291.87 855.36,-269.37"/>
<polygon fill="midnightblue" stroke="midnightblue" points="856.67,-266.12 846.09,-265.59 854.03,-272.61 856.67,-266.12"/>
</g>
<!-- Node37 -->
<g id="node37" class="node">
<title>Node37</title>
<g id="a_node37"><a xlink:title=" ">
<polygon fill="white" stroke="#bfbfbf" points="1111,-302.5 1111,-321.5 1227,-321.5 1227,-302.5 1111,-302.5"/>
<text text-anchor="middle" x="1169" y="-309.5" font-family="Helvetica,sans-Serif" font-size="10.00">G4LogicalVolume.hh</text>
</a>
</g>
</g>
<!-- Node36&#45;&gt;Node37 -->
<g id="edge49" class="edge">
<title>Node36&#45;&gt;Node37</title>
<path fill="none" stroke="midnightblue" d="M1106.89,-358.32C1118.15,-350.11 1135.29,-337.6 1148.71,-327.81"/>
<polygon fill="midnightblue" stroke="midnightblue" points="1150.88,-330.56 1156.89,-321.83 1146.75,-324.9 1150.88,-330.56"/>
</g>
<!-- Node38 -->
<g id="node38" class="node">
<title>Node38</title>
<g id="a_node38"><a xlink:title=" ">
<polygon fill="white" stroke="#bfbfbf" points="1004.5,-302.5 1004.5,-321.5 1093.5,-321.5 1093.5,-302.5 1004.5,-302.5"/>
<text text-anchor="middle" x="1049" y="-309.5" font-family="Helvetica,sans-Serif" font-size="10.00">G4Polycone.hh</text>
</a>
</g>
</g>
<!-- Node36&#45;&gt;Node38 -->
<g id="edge50" class="edge">
<title>Node36&#45;&gt;Node38</title>
<path fill="none" stroke="midnightblue" d="M1087.4,-358.08C1080.77,-350.3 1070.98,-338.8 1062.94,-329.37"/>
<polygon fill="midnightblue" stroke="midnightblue" points="1065.6,-327.09 1056.45,-321.75 1060.27,-331.63 1065.6,-327.09"/>
</g>
<!-- Node39&#45;&gt;Node3 -->
<g id="edge53" class="edge">
<title>Node39&#45;&gt;Node3</title>
<path fill="none" stroke="midnightblue" d="M741.86,-358.08C739.32,-350.85 735.64,-340.41 732.47,-331.4"/>
<polygon fill="midnightblue" stroke="midnightblue" points="735.7,-330.02 729.08,-321.75 729.1,-332.35 735.7,-330.02"/>
</g>
<!-- Node39&#45;&gt;Node29 -->
<g id="edge52" class="edge">
<title>Node39&#45;&gt;Node29</title>
<path fill="none" stroke="midnightblue" d="M760.64,-358.41C773.67,-350.52 791.84,-337.68 803,-322 812.82,-308.2 818.52,-289.68 821.65,-275.94"/>
<polygon fill="midnightblue" stroke="midnightblue" points="825.16,-276.22 823.7,-265.73 818.3,-274.84 825.16,-276.22"/>
</g>
<!-- Node40&#45;&gt;Node3 -->
<g id="edge60" class="edge">
<title>Node40&#45;&gt;Node3</title>
<path fill="none" stroke="midnightblue" d="M936.39,-358.44C892.77,-349.02 822.6,-333.87 775.42,-323.68"/>
<polygon fill="midnightblue" stroke="midnightblue" points="775.94,-320.21 765.43,-321.52 774.46,-327.05 775.94,-320.21"/>
</g>
<!-- Node40&#45;&gt;Node29 -->
<g id="edge59" class="edge">
<title>Node40&#45;&gt;Node29</title>
<path fill="none" stroke="midnightblue" d="M964.15,-358.37C938.35,-339.57 876.85,-294.77 844.95,-271.53"/>
<polygon fill="midnightblue" stroke="midnightblue" points="846.94,-268.65 836.79,-265.59 842.82,-274.31 846.94,-268.65"/>
</g>
<!-- Node41 -->
<g id="node41" class="node">
<title>Node41</title>
<g id="a_node41"><a xlink:href="_o_m_sim_m_d_o_m_flasher_8hh.html" target="_top" xlink:title="Defines the mDOMFlasher class for simulating the 10 flashers in an mDOM optical module.">
<polygon fill="white" stroke="black" points="935.5,-246.5 935.5,-265.5 1070.5,-265.5 1070.5,-246.5 935.5,-246.5"/>
<text text-anchor="middle" x="1003" y="-253.5" font-family="Helvetica,sans-Serif" font-size="10.00">OMSimMDOMFlasher.hh</text>
</a>
</g>
</g>
<!-- Node40&#45;&gt;Node41 -->
<g id="edge55" class="edge">
<title>Node40&#45;&gt;Node41</title>
<path fill="none" stroke="midnightblue" d="M978.12,-358.37C982.48,-340.62 992.53,-299.67 998.44,-275.6"/>
<polygon fill="midnightblue" stroke="midnightblue" points="1001.91,-276.14 1000.89,-265.59 995.11,-274.47 1001.91,-276.14"/>
</g>
<!-- Node41&#45;&gt;Node4 -->
<g id="edge56" class="edge">
<title>Node41&#45;&gt;Node4</title>
<path fill="none" stroke="midnightblue" d="M975.75,-246.44C946.56,-237.28 900.08,-222.69 867.69,-212.52"/>
<polygon fill="midnightblue" stroke="midnightblue" points="868.72,-209.17 858.13,-209.52 866.62,-215.85 868.72,-209.17"/>
</g>
<!-- Node41&#45;&gt;Node30 -->
<g id="edge57" class="edge">
<title>Node41&#45;&gt;Node30</title>
<path fill="none" stroke="midnightblue" d="M997.88,-246.08C993.59,-238.61 987.34,-227.72 982.06,-218.52"/>
<polygon fill="midnightblue" stroke="midnightblue" points="985.04,-216.68 977.02,-209.75 978.97,-220.17 985.04,-216.68"/>
</g>
<!-- Node42 -->
<g id="node42" class="node">
<title>Node42</title>
<g id="a_node42"><a xlink:title=" ">
<polygon fill="white" stroke="#bfbfbf" points="1039,-190.5 1039,-209.5 1131,-209.5 1131,-190.5 1039,-190.5"/>
<text text-anchor="middle" x="1085" y="-197.5" font-family="Helvetica,sans-Serif" font-size="10.00">G4Navigator.hh</text>
</a>
</g>
</g>
<!-- Node41&#45;&gt;Node42 -->
<g id="edge58" class="edge">
<title>Node41&#45;&gt;Node42</title>
<path fill="none" stroke="midnightblue" d="M1016.17,-246.32C1028.85,-237.98 1048.23,-225.21 1063.21,-215.35"/>
<polygon fill="midnightblue" stroke="midnightblue" points="1065.43,-218.08 1071.86,-209.65 1061.58,-212.23 1065.43,-218.08"/>
</g>
<!-- Node43&#45;&gt;Node6 -->
<g id="edge62" class="edge">
<title>Node43&#45;&gt;Node6</title>
<path fill="none" stroke="midnightblue" d="M1352.3,-246.23C1341.06,-237.95 1324.8,-224.63 1314,-210 1288.47,-175.4 1270.83,-127.55 1262.49,-101.75"/>
<polygon fill="midnightblue" stroke="midnightblue" points="1265.81,-100.64 1259.49,-92.14 1259.13,-102.73 1265.81,-100.64"/>
</g>
<!-- Node43&#45;&gt;Node28 -->
<g id="edge63" class="edge">
<title>Node43&#45;&gt;Node28</title>
<path fill="none" stroke="midnightblue" d="M1336.32,-246.44C1305.2,-237.16 1255.4,-222.3 1221.27,-212.12"/>
<polygon fill="midnightblue" stroke="midnightblue" points="1222.24,-208.76 1211.66,-209.25 1220.24,-215.46 1222.24,-208.76"/>
</g>
<!-- Node44 -->
<g id="node44" class="node">
<title>Node44</title>
<g id="a_node44"><a xlink:title=" ">
<polygon fill="white" stroke="#bfbfbf" points="1323,-190.5 1323,-209.5 1407,-209.5 1407,-190.5 1323,-190.5"/>
<text text-anchor="middle" x="1365" y="-197.5" font-family="Helvetica,sans-Serif" font-size="10.00">boost/any.hpp</text>
</a>
</g>
</g>
<!-- Node43&#45;&gt;Node44 -->
<g id="edge64" class="edge">
<title>Node43&#45;&gt;Node44</title>
<path fill="none" stroke="midnightblue" d="M1365,-246.08C1365,-239.01 1365,-228.86 1365,-219.99"/>
<polygon fill="midnightblue" stroke="midnightblue" points="1368.5,-219.75 1365,-209.75 1361.5,-219.75 1368.5,-219.75"/>
</g>
<!-- Node45 -->
<g id="node45" class="node">
<title>Node45</title>
<g id="a_node45"><a xlink:title=" ">
<polygon fill="white" stroke="#bfbfbf" points="1425,-190.5 1425,-209.5 1493,-209.5 1493,-190.5 1425,-190.5"/>
<text text-anchor="middle" x="1459" y="-197.5" font-family="Helvetica,sans-Serif" font-size="10.00">sys/time.h</text>
</a>
</g>
</g>
<!-- Node43&#45;&gt;Node45 -->
<g id="edge65" class="edge">
<title>Node43&#45;&gt;Node45</title>
<path fill="none" stroke="midnightblue" d="M1380.1,-246.32C1394.9,-237.82 1417.69,-224.73 1434.98,-214.8"/>
<polygon fill="midnightblue" stroke="midnightblue" points="1437.01,-217.67 1443.93,-209.65 1433.52,-211.6 1437.01,-217.67"/>
</g>
</g>
</svg>
