<?xml version="1.0" encoding="UTF-8" standalone="no"?>
<!DOCTYPE svg PUBLIC "-//W3C//DTD SVG 1.1//EN"
 "http://www.w3.org/Graphics/SVG/1.1/DTD/svg11.dtd">
<!-- Generated by graphviz version 2.43.0 (0)
 -->
<!-- Title: OMSimSNAnalysis.cc Pages: 1 -->
<svg width="1193pt" height="263pt"
 viewBox="0.00 0.00 1193.00 263.00" xmlns="http://www.w3.org/2000/svg" xmlns:xlink="http://www.w3.org/1999/xlink">
<g id="graph0" class="graph" transform="scale(1 1) rotate(0) translate(4 259)">
<title>OMSimSNAnalysis.cc</title>
<!-- Node1 -->
<g id="node1" class="node">
<title>Node1</title>
<g id="a_node1"><a xlink:title="Analyze data and write output files.">
<polygon fill="#bfbfbf" stroke="black" points="418.5,-235.5 418.5,-254.5 538.5,-254.5 538.5,-235.5 418.5,-235.5"/>
<text text-anchor="middle" x="478.5" y="-242.5" font-family="Helvetica,sans-Serif" font-size="10.00">OMSimSNAnalysis.cc</text>
</a>
</g>
</g>
<!-- Node2 -->
<g id="node2" class="node">
<title>Node2</title>
<g id="a_node2"><a xlink:href="_o_m_sim_s_n_analysis_8hh_source.html" target="_top" xlink:title=" ">
<polygon fill="none" stroke="black" points="373.5,-179.5 373.5,-198.5 495.5,-198.5 495.5,-179.5 373.5,-179.5"/>
<text text-anchor="middle" x="434.5" y="-186.5" font-family="Helvetica,sans-Serif" font-size="10.00">OMSimSNAnalysis.hh</text>
</a>
</g>
</g>
<!-- Node1&#45;&gt;Node2 -->
<g id="edge1" class="edge">
<title>Node1&#45;&gt;Node2</title>
<path fill="none" stroke="midnightblue" d="M471.23,-235.08C464.96,-227.38 455.71,-216.03 448.07,-206.65"/>
<polygon fill="midnightblue" stroke="midnightblue" points="450.66,-204.29 441.63,-198.75 445.23,-208.71 450.66,-204.29"/>
</g>
<!-- Node6 -->
<g id="node6" class="node">
<title>Node6</title>
<g id="a_node6"><a xlink:href="_o_m_sim_hit_manager_8hh.html" target="_top" xlink:title="Defines structures and classes related to optical module photon hit management.">
<polygon fill="none" stroke="black" points="177,-123.5 177,-142.5 300,-142.5 300,-123.5 177,-123.5"/>
<text text-anchor="middle" x="238.5" y="-130.5" font-family="Helvetica,sans-Serif" font-size="10.00">OMSimHitManager.hh</text>
</a>
</g>
</g>
<!-- Node1&#45;&gt;Node6 -->
<g id="edge31" class="edge">
<title>Node1&#45;&gt;Node6</title>
<path fill="none" stroke="midnightblue" d="M454.63,-235.37C431.36,-226.78 395.11,-212.9 364.5,-199 328.33,-182.58 287.69,-161.03 262.59,-147.35"/>
<polygon fill="midnightblue" stroke="midnightblue" points="264.22,-144.25 253.77,-142.51 260.86,-150.39 264.22,-144.25"/>
</g>
<!-- Node8 -->
<g id="node8" class="node">
<title>Node8</title>
<g id="a_node8"><a xlink:title=" ">
<polygon fill="none" stroke="#bfbfbf" points="0,-6 0,-25 119,-25 119,-6 0,-6"/>
<text text-anchor="middle" x="59.5" y="-13" font-family="Helvetica,sans-Serif" font-size="10.00">G4SystemOfUnits.hh</text>
</a>
</g>
</g>
<!-- Node1&#45;&gt;Node8 -->
<g id="edge19" class="edge">
<title>Node1&#45;&gt;Node8</title>
<path fill="none" stroke="midnightblue" d="M418.43,-237.87C340.54,-227.79 202.61,-202.52 100.5,-143 70.36,-125.43 58.7,-119.29 45.5,-87 38.51,-69.9 44.29,-49 50.4,-34.41"/>
<polygon fill="midnightblue" stroke="midnightblue" points="53.71,-35.59 54.74,-25.05 47.36,-32.65 53.71,-35.59"/>
</g>
<!-- Node17 -->
<g id="node17" class="node">
<title>Node17</title>
<g id="a_node17"><a xlink:title=" ">
<polygon fill="none" stroke="#bfbfbf" points="590,-179.5 590,-198.5 649,-198.5 649,-179.5 590,-179.5"/>
<text text-anchor="middle" x="619.5" y="-186.5" font-family="Helvetica,sans-Serif" font-size="10.00">G4ios.hh</text>
</a>
</g>
</g>
<!-- Node1&#45;&gt;Node17 -->
<g id="edge20" class="edge">
<title>Node1&#45;&gt;Node17</title>
<path fill="none" stroke="midnightblue" d="M500.84,-235.44C524.25,-226.48 561.24,-212.31 587.69,-202.18"/>
<polygon fill="midnightblue" stroke="midnightblue" points="589.18,-205.36 597.26,-198.52 586.67,-198.82 589.18,-205.36"/>
</g>
<!-- Node18 -->
<g id="node18" class="node">
<title>Node18</title>
<g id="a_node18"><a xlink:href="_o_m_sim_command_args_table_8hh.html" target="_top" xlink:title="Definition of the OMSimCommandArgsTable singleton class, which controls user args.">
<polygon fill="none" stroke="black" points="619.5,-123.5 619.5,-142.5 783.5,-142.5 783.5,-123.5 619.5,-123.5"/>
<text text-anchor="middle" x="701.5" y="-130.5" font-family="Helvetica,sans-Serif" font-size="10.00">OMSimCommandArgsTable.hh</text>
</a>
</g>
</g>
<!-- Node1&#45;&gt;Node18 -->
<g id="edge21" class="edge">
<title>Node1&#45;&gt;Node18</title>
<path fill="none" stroke="midnightblue" d="M485.2,-235.49C496.55,-221.63 520.93,-194.21 547.5,-179 576.28,-162.53 611.59,-151.64 641.14,-144.71"/>
<polygon fill="midnightblue" stroke="midnightblue" points="641.93,-148.12 650.92,-142.51 640.4,-141.29 641.93,-148.12"/>
</g>
<!-- Node26 -->
<g id="node26" class="node">
<title>Node26</title>
<g id="a_node26"><a xlink:href="_o_m_sim_tools_8hh.html" target="_top" xlink:title="Definition of Tools namespace, a collection of helper methods.">
<polygon fill="none" stroke="black" points="896.5,-123.5 896.5,-142.5 988.5,-142.5 988.5,-123.5 896.5,-123.5"/>
<text text-anchor="middle" x="942.5" y="-130.5" font-family="Helvetica,sans-Serif" font-size="10.00">OMSimTools.hh</text>
</a>
</g>
</g>
<!-- Node1&#45;&gt;Node26 -->
<g id="edge32" class="edge">
<title>Node1&#45;&gt;Node26</title>
<path fill="none" stroke="midnightblue" d="M492.02,-235.25C518.84,-217.92 576.62,-180.74 581.5,-179 636.29,-159.4 799.23,-144.7 886.25,-138"/>
<polygon fill="midnightblue" stroke="midnightblue" points="886.76,-141.48 896.47,-137.23 886.23,-134.5 886.76,-141.48"/>
</g>
<!-- Node3 -->
<g id="node3" class="node">
<title>Node3</title>
<g id="a_node3"><a xlink:title=" ">
<polygon fill="none" stroke="#bfbfbf" points="220,-6 220,-25 293,-25 293,-6 220,-6"/>
<text text-anchor="middle" x="256.5" y="-13" font-family="Helvetica,sans-Serif" font-size="10.00">G4Types.hh</text>
</a>
</g>
</g>
<!-- Node2&#45;&gt;Node3 -->
<g id="edge2" class="edge">
<title>Node2&#45;&gt;Node3</title>
<path fill="none" stroke="midnightblue" d="M373.22,-181.75C274.16,-170.13 86.46,-141.31 52.5,-87 47.79,-79.46 47.02,-74 52.5,-67 71.67,-42.5 155.81,-28.24 209.86,-21.44"/>
<polygon fill="midnightblue" stroke="midnightblue" points="210.41,-24.9 219.91,-20.22 209.56,-17.95 210.41,-24.9"/>
</g>
<!-- Node4 -->
<g id="node4" class="node">
<title>Node4</title>
<g id="a_node4"><a xlink:title=" ">
<polygon fill="none" stroke="#bfbfbf" points="318.5,-123.5 318.5,-142.5 392.5,-142.5 392.5,-123.5 318.5,-123.5"/>
<text text-anchor="middle" x="355.5" y="-130.5" font-family="Helvetica,sans-Serif" font-size="10.00">G4String.hh</text>
</a>
</g>
</g>
<!-- Node2&#45;&gt;Node4 -->
<g id="edge3" class="edge">
<title>Node2&#45;&gt;Node4</title>
<path fill="none" stroke="midnightblue" d="M421.81,-179.32C409.6,-170.98 390.92,-158.21 376.5,-148.35"/>
<polygon fill="midnightblue" stroke="midnightblue" points="378.39,-145.41 368.16,-142.65 374.44,-151.19 378.39,-145.41"/>
</g>
<!-- Node5 -->
<g id="node5" class="node">
<title>Node5</title>
<g id="a_node5"><a xlink:title=" ">
<polygon fill="none" stroke="#bfbfbf" points="435,-67.5 435,-86.5 538,-86.5 538,-67.5 435,-67.5"/>
<text text-anchor="middle" x="486.5" y="-74.5" font-family="Helvetica,sans-Serif" font-size="10.00">G4ThreeVector.hh</text>
</a>
</g>
</g>
<!-- Node2&#45;&gt;Node5 -->
<g id="edge4" class="edge">
<title>Node2&#45;&gt;Node5</title>
<path fill="none" stroke="midnightblue" d="M472.47,-179.41C491.91,-172.88 513.88,-161.72 525.5,-143 535.99,-126.12 520.53,-106.53 506.08,-93.31"/>
<polygon fill="midnightblue" stroke="midnightblue" points="508.21,-90.52 498.34,-86.67 503.66,-95.84 508.21,-90.52"/>
</g>
<!-- Node2&#45;&gt;Node6 -->
<g id="edge5" class="edge">
<title>Node2&#45;&gt;Node6</title>
<path fill="none" stroke="midnightblue" d="M403.44,-179.44C369.9,-170.2 316.3,-155.44 279.36,-145.26"/>
<polygon fill="midnightblue" stroke="midnightblue" points="279.98,-141.8 269.41,-142.52 278.12,-148.55 279.98,-141.8"/>
</g>
<!-- Node12 -->
<g id="node12" class="node">
<title>Node12</title>
<g id="a_node12"><a xlink:title=" ">
<polygon fill="none" stroke="#bfbfbf" points="556,-67.5 556,-86.5 611,-86.5 611,-67.5 556,-67.5"/>
<text text-anchor="middle" x="583.5" y="-74.5" font-family="Helvetica,sans-Serif" font-size="10.00">fstream</text>
</a>
</g>
</g>
<!-- Node2&#45;&gt;Node12 -->
<g id="edge17" class="edge">
<title>Node2&#45;&gt;Node12</title>
<path fill="none" stroke="midnightblue" d="M468.65,-179.37C491.19,-172.38 520.34,-160.74 541.5,-143 556.75,-130.22 568.41,-110.48 575.53,-96.11"/>
<polygon fill="midnightblue" stroke="midnightblue" points="578.83,-97.31 579.9,-86.76 572.49,-94.34 578.83,-97.31"/>
</g>
<!-- Node15 -->
<g id="node15" class="node">
<title>Node15</title>
<g id="a_node15"><a xlink:title=" ">
<polygon fill="none" stroke="#bfbfbf" points="411,-123.5 411,-142.5 458,-142.5 458,-123.5 411,-123.5"/>
<text text-anchor="middle" x="434.5" y="-130.5" font-family="Helvetica,sans-Serif" font-size="10.00">vector</text>
</a>
</g>
</g>
<!-- Node2&#45;&gt;Node15 -->
<g id="edge16" class="edge">
<title>Node2&#45;&gt;Node15</title>
<path fill="none" stroke="midnightblue" d="M434.5,-179.08C434.5,-172.01 434.5,-161.86 434.5,-152.99"/>
<polygon fill="midnightblue" stroke="midnightblue" points="438,-152.75 434.5,-142.75 431,-152.75 438,-152.75"/>
</g>
<!-- Node16 -->
<g id="node16" class="node">
<title>Node16</title>
<g id="a_node16"><a xlink:title=" ">
<polygon fill="none" stroke="#bfbfbf" points="476,-123.5 476,-142.5 517,-142.5 517,-123.5 476,-123.5"/>
<text text-anchor="middle" x="496.5" y="-130.5" font-family="Helvetica,sans-Serif" font-size="10.00">tuple</text>
</a>
</g>
</g>
<!-- Node2&#45;&gt;Node16 -->
<g id="edge18" class="edge">
<title>Node2&#45;&gt;Node16</title>
<path fill="none" stroke="midnightblue" d="M444.46,-179.32C453.63,-171.34 467.44,-159.31 478.53,-149.65"/>
<polygon fill="midnightblue" stroke="midnightblue" points="481.12,-152.04 486.36,-142.83 476.52,-146.76 481.12,-152.04"/>
</g>
<!-- Node6&#45;&gt;Node5 -->
<g id="edge12" class="edge">
<title>Node6&#45;&gt;Node5</title>
<path fill="none" stroke="midnightblue" d="M277.8,-123.44C321.06,-114.02 390.67,-98.87 437.47,-88.68"/>
<polygon fill="midnightblue" stroke="midnightblue" points="438.36,-92.06 447.39,-86.52 436.87,-85.22 438.36,-92.06"/>
</g>
<!-- Node7 -->
<g id="node7" class="node">
<title>Node7</title>
<g id="a_node7"><a xlink:href="_o_m_sim_p_m_t_response_8hh.html" target="_top" xlink:title="Simulation of PMT response.">
<polygon fill="none" stroke="black" points="282,-67.5 282,-86.5 417,-86.5 417,-67.5 282,-67.5"/>
<text text-anchor="middle" x="349.5" y="-74.5" font-family="Helvetica,sans-Serif" font-size="10.00">OMSimPMTResponse.hh</text>
</a>
</g>
</g>
<!-- Node6&#45;&gt;Node7 -->
<g id="edge6" class="edge">
<title>Node6&#45;&gt;Node7</title>
<path fill="none" stroke="midnightblue" d="M256.33,-123.32C274.22,-114.62 301.98,-101.12 322.55,-91.11"/>
<polygon fill="midnightblue" stroke="midnightblue" points="324.25,-94.18 331.71,-86.65 321.19,-87.88 324.25,-94.18"/>
</g>
<!-- Node6&#45;&gt;Node12 -->
<g id="edge13" class="edge">
<title>Node6&#45;&gt;Node12</title>
<path fill="none" stroke="midnightblue" d="M300.16,-123.69C371.79,-113.92 486.66,-97.86 545.68,-86.97"/>
<polygon fill="midnightblue" stroke="midnightblue" points="546.51,-90.37 555.68,-85.06 545.2,-83.49 546.51,-90.37"/>
</g>
<!-- Node13 -->
<g id="node13" class="node">
<title>Node13</title>
<g id="a_node13"><a xlink:title=" ">
<polygon fill="none" stroke="#bfbfbf" points="61.5,-67.5 61.5,-86.5 151.5,-86.5 151.5,-67.5 61.5,-67.5"/>
<text text-anchor="middle" x="106.5" y="-74.5" font-family="Helvetica,sans-Serif" font-size="10.00">G4AutoLock.hh</text>
</a>
</g>
</g>
<!-- Node6&#45;&gt;Node13 -->
<g id="edge14" class="edge">
<title>Node6&#45;&gt;Node13</title>
<path fill="none" stroke="midnightblue" d="M217.58,-123.44C195.76,-114.52 161.35,-100.44 136.61,-90.32"/>
<polygon fill="midnightblue" stroke="midnightblue" points="137.9,-87.06 127.32,-86.52 135.25,-93.54 137.9,-87.06"/>
</g>
<!-- Node14 -->
<g id="node14" class="node">
<title>Node14</title>
<g id="a_node14"><a xlink:title=" ">
<polygon fill="none" stroke="#bfbfbf" points="169.5,-67.5 169.5,-86.5 263.5,-86.5 263.5,-67.5 169.5,-67.5"/>
<text text-anchor="middle" x="216.5" y="-74.5" font-family="Helvetica,sans-Serif" font-size="10.00">G4Threading.hh</text>
</a>
</g>
</g>
<!-- Node6&#45;&gt;Node14 -->
<g id="edge15" class="edge">
<title>Node6&#45;&gt;Node14</title>
<path fill="none" stroke="midnightblue" d="M234.87,-123.08C231.89,-115.77 227.57,-105.18 223.88,-96.1"/>
<polygon fill="midnightblue" stroke="midnightblue" points="227.08,-94.69 220.07,-86.75 220.6,-97.33 227.08,-94.69"/>
</g>
<!-- Node7&#45;&gt;Node3 -->
<g id="edge8" class="edge">
<title>Node7&#45;&gt;Node3</title>
<path fill="none" stroke="midnightblue" d="M336.18,-67.48C321.12,-57.84 296.38,-42.02 278.46,-30.55"/>
<polygon fill="midnightblue" stroke="midnightblue" points="280.11,-27.45 269.8,-25.01 276.34,-33.35 280.11,-27.45"/>
</g>
<!-- Node7&#45;&gt;Node8 -->
<g id="edge7" class="edge">
<title>Node7&#45;&gt;Node8</title>
<path fill="none" stroke="midnightblue" d="M307.95,-67.48C256.05,-56.83 167.26,-38.61 111.07,-27.08"/>
<polygon fill="midnightblue" stroke="midnightblue" points="111.47,-23.59 100.97,-25.01 110.07,-30.45 111.47,-23.59"/>
</g>
<!-- Node9 -->
<g id="node9" class="node">
<title>Node9</title>
<g id="a_node9"><a xlink:title=" ">
<polygon fill="none" stroke="#bfbfbf" points="352.5,-6 352.5,-25 390.5,-25 390.5,-6 352.5,-6"/>
<text text-anchor="middle" x="371.5" y="-13" font-family="Helvetica,sans-Serif" font-size="10.00">map</text>
</a>
</g>
</g>
<!-- Node7&#45;&gt;Node9 -->
<g id="edge9" class="edge">
<title>Node7&#45;&gt;Node9</title>
<path fill="none" stroke="midnightblue" d="M352.65,-67.48C355.82,-58.9 360.8,-45.43 364.85,-34.48"/>
<polygon fill="midnightblue" stroke="midnightblue" points="368.17,-35.6 368.35,-25.01 361.6,-33.17 368.17,-35.6"/>
</g>
<!-- Node10 -->
<g id="node10" class="node">
<title>Node10</title>
<g id="a_node10"><a xlink:title=" ">
<polygon fill="none" stroke="#bfbfbf" points="482,-6 482,-25 543,-25 543,-6 482,-6"/>
<text text-anchor="middle" x="512.5" y="-13" font-family="Helvetica,sans-Serif" font-size="10.00">TGraph.h</text>
</a>
</g>
</g>
<!-- Node7&#45;&gt;Node10 -->
<g id="edge10" class="edge">
<title>Node7&#45;&gt;Node10</title>
<path fill="none" stroke="midnightblue" d="M372.85,-67.48C400.81,-57.27 447.83,-40.11 479.49,-28.55"/>
<polygon fill="midnightblue" stroke="midnightblue" points="481,-31.73 489.19,-25.01 478.6,-25.15 481,-31.73"/>
</g>
<!-- Node11 -->
<g id="node11" class="node">
<title>Node11</title>
<g id="a_node11"><a xlink:title=" ">
<polygon fill="none" stroke="#bfbfbf" points="648,-6 648,-25 701,-25 701,-6 648,-6"/>
<text text-anchor="middle" x="674.5" y="-13" font-family="Helvetica,sans-Serif" font-size="10.00">TH2D.h</text>
</a>
</g>
</g>
<!-- Node7&#45;&gt;Node11 -->
<g id="edge11" class="edge">
<title>Node7&#45;&gt;Node11</title>
<path fill="none" stroke="midnightblue" d="M396.06,-67.48C461.3,-55.53 578.56,-34.07 637.92,-23.2"/>
<polygon fill="midnightblue" stroke="midnightblue" points="638.76,-26.6 647.97,-21.36 637.5,-19.72 638.76,-26.6"/>
</g>
<!-- Node18&#45;&gt;Node9 -->
<g id="edge30" class="edge">
<title>Node18&#45;&gt;Node9</title>
<path fill="none" stroke="midnightblue" d="M693.46,-123.27C679.87,-109.09 650.87,-81.23 620.5,-67 581.66,-48.8 458.15,-29.11 401.01,-20.7"/>
<polygon fill="midnightblue" stroke="midnightblue" points="401.23,-17.19 390.83,-19.21 400.22,-24.12 401.23,-17.19"/>
</g>
<!-- Node18&#45;&gt;Node12 -->
<g id="edge27" class="edge">
<title>Node18&#45;&gt;Node12</title>
<path fill="none" stroke="midnightblue" d="M682.8,-123.44C663.56,-114.64 633.35,-100.81 611.3,-90.72"/>
<polygon fill="midnightblue" stroke="midnightblue" points="612.66,-87.5 602.11,-86.52 609.75,-93.86 612.66,-87.5"/>
</g>
<!-- Node19 -->
<g id="node19" class="node">
<title>Node19</title>
<g id="a_node19"><a xlink:href="_o_m_sim_logger_8hh_source.html" target="_top" xlink:title=" ">
<polygon fill="none" stroke="black" points="932,-67.5 932,-86.5 1031,-86.5 1031,-67.5 932,-67.5"/>
<text text-anchor="middle" x="981.5" y="-74.5" font-family="Helvetica,sans-Serif" font-size="10.00">OMSimLogger.hh</text>
</a>
</g>
</g>
<!-- Node18&#45;&gt;Node19 -->
<g id="edge22" class="edge">
<title>Node18&#45;&gt;Node19</title>
<path fill="none" stroke="midnightblue" d="M745.87,-123.44C795.12,-113.94 874.63,-98.61 927.47,-88.42"/>
<polygon fill="midnightblue" stroke="midnightblue" points="928.18,-91.85 937.34,-86.52 926.86,-84.97 928.18,-91.85"/>
</g>
<!-- Node24 -->
<g id="node24" class="node">
<title>Node24</title>
<g id="a_node24"><a xlink:title=" ">
<polygon fill="none" stroke="#bfbfbf" points="667.5,-67.5 667.5,-86.5 751.5,-86.5 751.5,-67.5 667.5,-67.5"/>
<text text-anchor="middle" x="709.5" y="-74.5" font-family="Helvetica,sans-Serif" font-size="10.00">boost/any.hpp</text>
</a>
</g>
</g>
<!-- Node18&#45;&gt;Node24 -->
<g id="edge28" class="edge">
<title>Node18&#45;&gt;Node24</title>
<path fill="none" stroke="midnightblue" d="M702.82,-123.08C703.88,-115.93 705.41,-105.64 706.73,-96.69"/>
<polygon fill="midnightblue" stroke="midnightblue" points="710.2,-97.16 708.2,-86.75 703.28,-96.13 710.2,-97.16"/>
</g>
<!-- Node25 -->
<g id="node25" class="node">
<title>Node25</title>
<g id="a_node25"><a xlink:title=" ">
<polygon fill="none" stroke="#bfbfbf" points="769.5,-67.5 769.5,-86.5 837.5,-86.5 837.5,-67.5 769.5,-67.5"/>
<text text-anchor="middle" x="803.5" y="-74.5" font-family="Helvetica,sans-Serif" font-size="10.00">sys/time.h</text>
</a>
</g>
</g>
<!-- Node18&#45;&gt;Node25 -->
<g id="edge29" class="edge">
<title>Node18&#45;&gt;Node25</title>
<path fill="none" stroke="midnightblue" d="M717.89,-123.32C734.17,-114.7 759.37,-101.36 778.22,-91.39"/>
<polygon fill="midnightblue" stroke="midnightblue" points="779.95,-94.43 787.15,-86.65 776.68,-88.24 779.95,-94.43"/>
</g>
<!-- Node20 -->
<g id="node20" class="node">
<title>Node20</title>
<g id="a_node20"><a xlink:title=" ">
<polygon fill="none" stroke="#bfbfbf" points="763,-6 763,-25 856,-25 856,-6 763,-6"/>
<text text-anchor="middle" x="809.5" y="-13" font-family="Helvetica,sans-Serif" font-size="10.00">spdlog/spdlog.h</text>
</a>
</g>
</g>
<!-- Node19&#45;&gt;Node20 -->
<g id="edge23" class="edge">
<title>Node19&#45;&gt;Node20</title>
<path fill="none" stroke="midnightblue" d="M956.86,-67.48C927.22,-57.22 877.32,-39.96 843.9,-28.4"/>
<polygon fill="midnightblue" stroke="midnightblue" points="844.69,-24.97 834.1,-25.01 842.4,-31.59 844.69,-24.97"/>
</g>
<!-- Node21 -->
<g id="node21" class="node">
<title>Node21</title>
<g id="a_node21"><a xlink:title=" ">
<polygon fill="none" stroke="#bfbfbf" points="874,-0.5 874,-30.5 985,-30.5 985,-0.5 874,-0.5"/>
<text text-anchor="start" x="882" y="-18.5" font-family="Helvetica,sans-Serif" font-size="10.00">spdlog/sinks/stdout</text>
<text text-anchor="middle" x="929.5" y="-7.5" font-family="Helvetica,sans-Serif" font-size="10.00">_color_sinks.h</text>
</a>
</g>
</g>
<!-- Node19&#45;&gt;Node21 -->
<g id="edge24" class="edge">
<title>Node19&#45;&gt;Node21</title>
<path fill="none" stroke="midnightblue" d="M974.05,-67.48C967.4,-59.87 957.38,-48.4 948.52,-38.26"/>
<polygon fill="midnightblue" stroke="midnightblue" points="950.97,-35.75 941.76,-30.52 945.7,-40.36 950.97,-35.75"/>
</g>
<!-- Node22 -->
<g id="node22" class="node">
<title>Node22</title>
<g id="a_node22"><a xlink:title=" ">
<polygon fill="none" stroke="#bfbfbf" points="1003.5,-6 1003.5,-25 1061.5,-25 1061.5,-6 1003.5,-6"/>
<text text-anchor="middle" x="1032.5" y="-13" font-family="Helvetica,sans-Serif" font-size="10.00">memory</text>
</a>
</g>
</g>
<!-- Node19&#45;&gt;Node22 -->
<g id="edge25" class="edge">
<title>Node19&#45;&gt;Node22</title>
<path fill="none" stroke="midnightblue" d="M988.81,-67.48C996.53,-58.46 1008.91,-44.02 1018.52,-32.81"/>
<polygon fill="midnightblue" stroke="midnightblue" points="1021.36,-34.88 1025.21,-25.01 1016.04,-30.32 1021.36,-34.88"/>
</g>
<!-- Node23 -->
<g id="node23" class="node">
<title>Node23</title>
<g id="a_node23"><a xlink:title=" ">
<polygon fill="none" stroke="#bfbfbf" points="1079.5,-6 1079.5,-25 1177.5,-25 1177.5,-6 1079.5,-6"/>
<text text-anchor="middle" x="1128.5" y="-13" font-family="Helvetica,sans-Serif" font-size="10.00">spdlog/fmt/fmt.h</text>
</a>
</g>
</g>
<!-- Node19&#45;&gt;Node23 -->
<g id="edge26" class="edge">
<title>Node19&#45;&gt;Node23</title>
<path fill="none" stroke="midnightblue" d="M1002.56,-67.48C1027.56,-57.36 1069.44,-40.4 1097.99,-28.85"/>
<polygon fill="midnightblue" stroke="midnightblue" points="1099.52,-32.01 1107.48,-25.01 1096.89,-25.52 1099.52,-32.01"/>
</g>
<!-- Node26&#45;&gt;Node10 -->
<g id="edge35" class="edge">
<title>Node26&#45;&gt;Node10</title>
<path fill="none" stroke="midnightblue" d="M930.3,-123.3C906.56,-106.42 855.64,-70.57 846.5,-67 819.59,-56.48 636.18,-32.23 553.17,-21.62"/>
<polygon fill="midnightblue" stroke="midnightblue" points="553.45,-18.13 543.09,-20.34 552.57,-25.08 553.45,-18.13"/>
</g>
<!-- Node26&#45;&gt;Node11 -->
<g id="edge36" class="edge">
<title>Node26&#45;&gt;Node11</title>
<path fill="none" stroke="midnightblue" d="M936.63,-123.34C926.62,-109.27 904.85,-81.56 879.5,-67 851.03,-50.65 762,-32.45 711.13,-23"/>
<polygon fill="midnightblue" stroke="midnightblue" points="711.65,-19.54 701.19,-21.17 710.39,-26.42 711.65,-19.54"/>
</g>
<!-- Node26&#45;&gt;Node19 -->
<g id="edge33" class="edge">
<title>Node26&#45;&gt;Node19</title>
<path fill="none" stroke="midnightblue" d="M948.94,-123.08C954.45,-115.46 962.53,-104.26 969.26,-94.94"/>
<polygon fill="midnightblue" stroke="midnightblue" points="972.16,-96.91 975.18,-86.75 966.49,-92.81 972.16,-96.91"/>
</g>
<!-- Node27 -->
<g id="node27" class="node">
<title>Node27</title>
<g id="a_node27"><a xlink:title=" ">
<polygon fill="none" stroke="#bfbfbf" points="1049,-67.5 1049,-86.5 1116,-86.5 1116,-67.5 1049,-67.5"/>
<text text-anchor="middle" x="1082.5" y="-74.5" font-family="Helvetica,sans-Serif" font-size="10.00">globals.hh</text>
</a>
</g>
</g>
<!-- Node26&#45;&gt;Node27 -->
<g id="edge34" class="edge">
<title>Node26&#45;&gt;Node27</title>
<path fill="none" stroke="midnightblue" d="M964.68,-123.44C987.93,-114.48 1024.65,-100.31 1050.92,-90.18"/>
<polygon fill="midnightblue" stroke="midnightblue" points="1052.35,-93.38 1060.42,-86.52 1049.83,-86.85 1052.35,-93.38"/>
</g>
<!-- Node28 -->
<g id="node28" class="node">
<title>Node28</title>
<g id="a_node28"><a xlink:title=" ">
<polygon fill="none" stroke="#bfbfbf" points="1134,-67.5 1134,-86.5 1185,-86.5 1185,-67.5 1134,-67.5"/>
<text text-anchor="middle" x="1159.5" y="-74.5" font-family="Helvetica,sans-Serif" font-size="10.00">variant</text>
</a>
</g>
</g>
<!-- Node26&#45;&gt;Node28 -->
<g id="edge37" class="edge">
<title>Node26&#45;&gt;Node28</title>
<path fill="none" stroke="midnightblue" d="M977.97,-123.47C1012.85,-115.05 1067.87,-101.64 1124.12,-87.32"/>
<polygon fill="midnightblue" stroke="midnightblue" points="1125.07,-90.69 1133.89,-84.83 1123.34,-83.91 1125.07,-90.69"/>
</g>
</g>
</svg>
