<?xml version="1.0" encoding="UTF-8" standalone="no"?>
<!DOCTYPE svg PUBLIC "-//W3C//DTD SVG 1.1//EN"
 "http://www.w3.org/Graphics/SVG/1.1/DTD/svg11.dtd">
<!-- Generated by graphviz version 2.43.0 (0)
 -->
<!-- Title: OMSimOpticalModule.hh Pages: 1 -->
<svg width="2134pt" height="196pt"
 viewBox="0.00 0.00 2133.50 196.00" xmlns="http://www.w3.org/2000/svg" xmlns:xlink="http://www.w3.org/1999/xlink">
<g id="graph0" class="graph" transform="scale(1 1) rotate(0) translate(4 192)">
<title>OMSimOpticalModule.hh</title>
<polygon fill="white" stroke="transparent" points="-4,4 -4,-192 2129.5,-192 2129.5,4 -4,4"/>
<!-- Node1 -->
<g id="node1" class="node">
<title>Node1</title>
<g id="a_node1"><a xlink:title=" ">
<polygon fill="#bfbfbf" stroke="black" points="1020,-168.5 1020,-187.5 1157,-187.5 1157,-168.5 1020,-168.5"/>
<text text-anchor="middle" x="1088.5" y="-175.5" font-family="Helvetica,sans-Serif" font-size="10.00">OMSimOpticalModule.hh</text>
</a>
</g>
</g>
<!-- Node2 -->
<g id="node2" class="node">
<title>Node2</title>
<g id="a_node2"><a xlink:href="_o_m_sim_d_e_g_g_8hh.html" target="_top" xlink:title="Construction of the DEGG class.">
<polygon fill="white" stroke="black" points="945,-56.5 945,-75.5 1040,-75.5 1040,-56.5 945,-56.5"/>
<text text-anchor="middle" x="992.5" y="-63.5" font-family="Helvetica,sans-Serif" font-size="10.00">OMSimDEGG.hh</text>
</a>
</g>
</g>
<!-- Node1&#45;&gt;Node2 -->
<g id="edge1" class="edge">
<title>Node1&#45;&gt;Node2</title>
<path fill="none" stroke="midnightblue" d="M1074.17,-160.59C1053.48,-136.87 1015.95,-93.87 1000,-75.59"/>
<polygon fill="midnightblue" stroke="midnightblue" points="1071.75,-163.14 1080.97,-168.37 1077.03,-158.53 1071.75,-163.14"/>
</g>
<!-- Node8 -->
<g id="node8" class="node">
<title>Node8</title>
<g id="a_node8"><a xlink:href="_o_m_sim_detector_construction_8hh.html" target="_top" xlink:title=" ">
<polygon fill="white" stroke="black" points="396.5,-112.5 396.5,-131.5 566.5,-131.5 566.5,-112.5 396.5,-112.5"/>
<text text-anchor="middle" x="481.5" y="-119.5" font-family="Helvetica,sans-Serif" font-size="10.00">OMSimDetectorConstruction.hh</text>
</a>
</g>
</g>
<!-- Node1&#45;&gt;Node8 -->
<g id="edge7" class="edge">
<title>Node1&#45;&gt;Node8</title>
<path fill="none" stroke="midnightblue" d="M1009.67,-169.99C895.35,-159.82 684.36,-141.05 566.61,-130.57"/>
<polygon fill="midnightblue" stroke="midnightblue" points="1009.48,-173.48 1019.76,-170.88 1010.1,-166.51 1009.48,-173.48"/>
</g>
<!-- Node16 -->
<g id="node16" class="node">
<title>Node16</title>
<g id="a_node16"><a xlink:href="_o_m_sim_rad_decays_detector_8hh.html" target="_top" xlink:title="Defines the OMSimRadDecaysDetector class for the radioactive decays simulation.">
<polygon fill="white" stroke="black" points="586,-56.5 586,-75.5 749,-75.5 749,-56.5 586,-56.5"/>
<text text-anchor="middle" x="667.5" y="-63.5" font-family="Helvetica,sans-Serif" font-size="10.00">OMSimRadDecaysDetector.hh</text>
</a>
</g>
</g>
<!-- Node1&#45;&gt;Node16 -->
<g id="edge54" class="edge">
<title>Node1&#45;&gt;Node16</title>
<path fill="none" stroke="midnightblue" d="M1009.74,-171.59C950.08,-165.89 866.69,-154.47 796.5,-132 751.84,-117.7 703.59,-89.61 680.83,-75.5"/>
<polygon fill="midnightblue" stroke="midnightblue" points="1009.57,-175.09 1019.85,-172.52 1010.21,-168.12 1009.57,-175.09"/>
</g>
<!-- Node18 -->
<g id="node18" class="node">
<title>Node18</title>
<g id="a_node18"><a xlink:href="_o_m_sim_l_o_m16_8hh.html" target="_top" xlink:title="Construction of LOM16.">
<polygon fill="white" stroke="black" points="1058,-56.5 1058,-75.5 1159,-75.5 1159,-56.5 1058,-56.5"/>
<text text-anchor="middle" x="1108.5" y="-63.5" font-family="Helvetica,sans-Serif" font-size="10.00">OMSimLOM16.hh</text>
</a>
</g>
</g>
<!-- Node1&#45;&gt;Node18 -->
<g id="edge24" class="edge">
<title>Node1&#45;&gt;Node18</title>
<path fill="none" stroke="midnightblue" d="M1091.89,-158.35C1096.27,-134.25 1103.72,-93.31 1106.94,-75.59"/>
<polygon fill="midnightblue" stroke="midnightblue" points="1088.41,-157.9 1090.07,-168.37 1095.3,-159.16 1088.41,-157.9"/>
</g>
<!-- Node20 -->
<g id="node20" class="node">
<title>Node20</title>
<g id="a_node20"><a xlink:href="_o_m_sim_l_o_m18_8hh.html" target="_top" xlink:title="Construction of LOM18.">
<polygon fill="white" stroke="black" points="1292,-56.5 1292,-75.5 1393,-75.5 1393,-56.5 1292,-56.5"/>
<text text-anchor="middle" x="1342.5" y="-63.5" font-family="Helvetica,sans-Serif" font-size="10.00">OMSimLOM18.hh</text>
</a>
</g>
</g>
<!-- Node1&#45;&gt;Node20 -->
<g id="edge30" class="edge">
<title>Node1&#45;&gt;Node20</title>
<path fill="none" stroke="midnightblue" d="M1108.15,-162.44C1131.16,-145.58 1168.09,-119.21 1183.5,-112 1220.39,-94.72 1265.28,-82.77 1297.94,-75.55"/>
<polygon fill="midnightblue" stroke="midnightblue" points="1106.07,-159.62 1100.09,-168.37 1110.21,-165.26 1106.07,-159.62"/>
</g>
<!-- Node22 -->
<g id="node22" class="node">
<title>Node22</title>
<g id="a_node22"><a xlink:href="_o_m_sim_m_d_o_m_8hh.html" target="_top" xlink:title="Construction of mDOM.">
<polygon fill="white" stroke="black" points="1449.5,-56.5 1449.5,-75.5 1549.5,-75.5 1549.5,-56.5 1449.5,-56.5"/>
<text text-anchor="middle" x="1499.5" y="-63.5" font-family="Helvetica,sans-Serif" font-size="10.00">OMSimMDOM.hh</text>
</a>
</g>
</g>
<!-- Node1&#45;&gt;Node22 -->
<g id="edge36" class="edge">
<title>Node1&#45;&gt;Node22</title>
<path fill="none" stroke="midnightblue" d="M1166.73,-167.02C1216.26,-159.69 1281.32,-148.17 1337.5,-132 1391.38,-116.5 1451.99,-89.46 1481.46,-75.65"/>
<polygon fill="midnightblue" stroke="midnightblue" points="1166.12,-163.57 1156.73,-168.48 1167.13,-170.5 1166.12,-163.57"/>
</g>
<!-- Node26 -->
<g id="node26" class="node">
<title>Node26</title>
<g id="a_node26"><a xlink:href="_o_m_sim_p_d_o_m_8hh.html" target="_top" xlink:title="Implementation of the pDOM/Gen1 DOM class.">
<polygon fill="white" stroke="black" points="1177,-56.5 1177,-75.5 1274,-75.5 1274,-56.5 1177,-56.5"/>
<text text-anchor="middle" x="1225.5" y="-63.5" font-family="Helvetica,sans-Serif" font-size="10.00">OMSimPDOM.hh</text>
</a>
</g>
</g>
<!-- Node1&#45;&gt;Node26 -->
<g id="edge44" class="edge">
<title>Node1&#45;&gt;Node26</title>
<path fill="none" stroke="midnightblue" d="M1102.02,-160.51C1113.91,-146.61 1132.15,-126.68 1150.5,-112 1168.88,-97.3 1192.5,-83.9 1208.27,-75.62"/>
<polygon fill="midnightblue" stroke="midnightblue" points="1099.24,-158.38 1095.49,-168.29 1104.6,-162.88 1099.24,-158.38"/>
</g>
<!-- Node28 -->
<g id="node28" class="node">
<title>Node28</title>
<g id="a_node28"><a xlink:href="_o_m_sim_optical_module_8cc.html" target="_top" xlink:title=" ">
<polygon fill="white" stroke="black" points="1192.5,-112.5 1192.5,-131.5 1328.5,-131.5 1328.5,-112.5 1192.5,-112.5"/>
<text text-anchor="middle" x="1260.5" y="-119.5" font-family="Helvetica,sans-Serif" font-size="10.00">OMSimOpticalModule.cc</text>
</a>
</g>
</g>
<!-- Node1&#45;&gt;Node28 -->
<g id="edge50" class="edge">
<title>Node1&#45;&gt;Node28</title>
<path fill="none" stroke="midnightblue" d="M1125.33,-165.44C1157.76,-155.26 1204.24,-140.66 1233.37,-131.52"/>
<polygon fill="midnightblue" stroke="midnightblue" points="1124.25,-162.11 1115.75,-168.44 1126.34,-168.79 1124.25,-162.11"/>
</g>
<!-- Node29 -->
<g id="node29" class="node">
<title>Node29</title>
<g id="a_node29"><a xlink:href="_o_m_sim_decays_g_p_s_8hh.html" target="_top" xlink:title="Defines the IsotopeDecays class for the radioactive decays simulation.">
<polygon fill="white" stroke="black" points="805.5,-112.5 805.5,-131.5 927.5,-131.5 927.5,-112.5 805.5,-112.5"/>
<text text-anchor="middle" x="866.5" y="-119.5" font-family="Helvetica,sans-Serif" font-size="10.00">OMSimDecaysGPS.hh</text>
</a>
</g>
</g>
<!-- Node1&#45;&gt;Node29 -->
<g id="edge51" class="edge">
<title>Node1&#45;&gt;Node29</title>
<path fill="none" stroke="midnightblue" d="M1043.38,-166.02C1001.44,-155.82 939.85,-140.84 901.51,-131.52"/>
<polygon fill="midnightblue" stroke="midnightblue" points="1042.78,-169.48 1053.32,-168.44 1044.43,-162.68 1042.78,-169.48"/>
</g>
<!-- Node3 -->
<g id="node3" class="node">
<title>Node3</title>
<g id="a_node3"><a xlink:href="_o_m_sim_d_e_g_g_8cc.html" target="_top" xlink:title=" ">
<polygon fill="white" stroke="black" points="565.5,-0.5 565.5,-19.5 659.5,-19.5 659.5,-0.5 565.5,-0.5"/>
<text text-anchor="middle" x="612.5" y="-7.5" font-family="Helvetica,sans-Serif" font-size="10.00">OMSimDEGG.cc</text>
</a>
</g>
</g>
<!-- Node2&#45;&gt;Node3 -->
<g id="edge2" class="edge">
<title>Node2&#45;&gt;Node3</title>
<path fill="none" stroke="midnightblue" d="M935.01,-55.96C815.37,-38.59 783.83,-37.04 668.5,-20 665.58,-19.57 662.57,-19.11 659.54,-18.65"/>
<polygon fill="midnightblue" stroke="midnightblue" points="934.53,-59.43 944.93,-57.41 935.54,-52.5 934.53,-59.43"/>
</g>
<!-- Node4 -->
<g id="node4" class="node">
<title>Node4</title>
<g id="a_node4"><a xlink:href="_o_m_sim_detector_construction_8cc.html" target="_top" xlink:title=" ">
<polygon fill="white" stroke="black" points="1415,-0.5 1415,-19.5 1584,-19.5 1584,-0.5 1415,-0.5"/>
<text text-anchor="middle" x="1499.5" y="-7.5" font-family="Helvetica,sans-Serif" font-size="10.00">OMSimDetectorConstruction.cc</text>
</a>
</g>
</g>
<!-- Node2&#45;&gt;Node4 -->
<g id="edge3" class="edge">
<title>Node2&#45;&gt;Node4</title>
<path fill="none" stroke="midnightblue" d="M1050.39,-55.93C1102.25,-50.13 1299.45,-30.67 1414.75,-19.32"/>
<polygon fill="midnightblue" stroke="midnightblue" points="1049.65,-52.5 1040.13,-57.15 1050.47,-59.45 1049.65,-52.5"/>
</g>
<!-- Node5 -->
<g id="node5" class="node">
<title>Node5</title>
<g id="a_node5"><a xlink:href="_o_m_sim_effective_area_detector_8cc.html" target="_top" xlink:title=" ">
<polygon fill="white" stroke="black" points="932.5,-0.5 932.5,-19.5 1104.5,-19.5 1104.5,-0.5 932.5,-0.5"/>
<text text-anchor="middle" x="1018.5" y="-7.5" font-family="Helvetica,sans-Serif" font-size="10.00">OMSimEffectiveAreaDetector.cc</text>
</a>
</g>
</g>
<!-- Node2&#45;&gt;Node5 -->
<g id="edge4" class="edge">
<title>Node2&#45;&gt;Node5</title>
<path fill="none" stroke="midnightblue" d="M1001.17,-46.98C1005.59,-37.82 1010.75,-27.09 1014.29,-19.75"/>
<polygon fill="midnightblue" stroke="midnightblue" points="997.98,-45.55 996.79,-56.08 1004.29,-48.59 997.98,-45.55"/>
</g>
<!-- Node6 -->
<g id="node6" class="node">
<title>Node6</title>
<g id="a_node6"><a xlink:href="_o_m_sim_rad_decays_detector_8cc.html" target="_top" xlink:title=" ">
<polygon fill="white" stroke="black" points="1123,-0.5 1123,-19.5 1284,-19.5 1284,-0.5 1123,-0.5"/>
<text text-anchor="middle" x="1203.5" y="-7.5" font-family="Helvetica,sans-Serif" font-size="10.00">OMSimRadDecaysDetector.cc</text>
</a>
</g>
</g>
<!-- Node2&#45;&gt;Node6 -->
<g id="edge5" class="edge">
<title>Node2&#45;&gt;Node6</title>
<path fill="none" stroke="midnightblue" d="M1035.64,-53.96C1075.49,-43.76 1133.86,-28.82 1170.22,-19.52"/>
<polygon fill="midnightblue" stroke="midnightblue" points="1034.75,-50.57 1025.93,-56.44 1036.49,-57.35 1034.75,-50.57"/>
</g>
<!-- Node7 -->
<g id="node7" class="node">
<title>Node7</title>
<g id="a_node7"><a xlink:href="_o_m_sim_s_ndetector_8cc.html" target="_top" xlink:title=" ">
<polygon fill="white" stroke="black" points="795,-0.5 795,-19.5 914,-19.5 914,-0.5 795,-0.5"/>
<text text-anchor="middle" x="854.5" y="-7.5" font-family="Helvetica,sans-Serif" font-size="10.00">OMSimSNdetector.cc</text>
</a>
</g>
</g>
<!-- Node2&#45;&gt;Node7 -->
<g id="edge6" class="edge">
<title>Node2&#45;&gt;Node7</title>
<path fill="none" stroke="midnightblue" d="M961.25,-52.77C935.33,-42.63 899.14,-28.47 876.26,-19.52"/>
<polygon fill="midnightblue" stroke="midnightblue" points="960.05,-56.06 970.63,-56.44 962.6,-49.54 960.05,-56.06"/>
</g>
<!-- Node8&#45;&gt;Node4 -->
<g id="edge13" class="edge">
<title>Node8&#45;&gt;Node4</title>
<path fill="none" stroke="midnightblue" d="M576.95,-117.71C804.68,-109.68 1363.84,-88.79 1402.5,-76 1421.17,-69.82 1467.25,-35.68 1488.47,-19.5"/>
<polygon fill="midnightblue" stroke="midnightblue" points="576.56,-114.22 566.69,-118.07 576.8,-121.22 576.56,-114.22"/>
</g>
<!-- Node9 -->
<g id="node9" class="node">
<title>Node9</title>
<g id="a_node9"><a xlink:href="_o_m_sim_8hh.html" target="_top" xlink:title="Main simulation class for the Optical Module (OM) simulation. This file defines the OMSim class,...">
<polygon fill="white" stroke="black" points="6,-56.5 6,-75.5 73,-75.5 73,-56.5 6,-56.5"/>
<text text-anchor="middle" x="39.5" y="-63.5" font-family="Helvetica,sans-Serif" font-size="10.00">OMSim.hh</text>
</a>
</g>
</g>
<!-- Node8&#45;&gt;Node9 -->
<g id="edge8" class="edge">
<title>Node8&#45;&gt;Node9</title>
<path fill="none" stroke="midnightblue" d="M385.9,-112.93C304.64,-105.43 185.01,-92.87 81.5,-76 78.85,-75.57 76.12,-75.08 73.37,-74.56"/>
<polygon fill="midnightblue" stroke="midnightblue" points="385.83,-116.44 396.11,-113.86 386.47,-109.47 385.83,-116.44"/>
</g>
<!-- Node14 -->
<g id="node14" class="node">
<title>Node14</title>
<g id="a_node14"><a xlink:href="_o_m_sim_p_m_t_construction_8cc.html" target="_top" xlink:title=" ">
<polygon fill="white" stroke="black" points="91,-56.5 91,-75.5 238,-75.5 238,-56.5 91,-56.5"/>
<text text-anchor="middle" x="164.5" y="-63.5" font-family="Helvetica,sans-Serif" font-size="10.00">OMSimPMTConstruction.cc</text>
</a>
</g>
</g>
<!-- Node8&#45;&gt;Node14 -->
<g id="edge14" class="edge">
<title>Node8&#45;&gt;Node14</title>
<path fill="none" stroke="midnightblue" d="M421.2,-110.73C361.29,-100.52 270.51,-85.06 214.49,-75.52"/>
<polygon fill="midnightblue" stroke="midnightblue" points="420.82,-114.21 431.27,-112.44 422,-107.31 420.82,-114.21"/>
</g>
<!-- Node15 -->
<g id="node15" class="node">
<title>Node15</title>
<g id="a_node15"><a xlink:href="_o_m_sim_effective_area_detector_8hh.html" target="_top" xlink:title="Defines the OMSimEffectiveAreaDetector class for effective area simulation detector construction.">
<polygon fill="white" stroke="black" points="395,-56.5 395,-75.5 568,-75.5 568,-56.5 395,-56.5"/>
<text text-anchor="middle" x="481.5" y="-63.5" font-family="Helvetica,sans-Serif" font-size="10.00">OMSimEffectiveAreaDetector.hh</text>
</a>
</g>
</g>
<!-- Node8&#45;&gt;Node15 -->
<g id="edge15" class="edge">
<title>Node8&#45;&gt;Node15</title>
<path fill="none" stroke="midnightblue" d="M481.5,-101.8C481.5,-92.91 481.5,-82.78 481.5,-75.75"/>
<polygon fill="midnightblue" stroke="midnightblue" points="478,-102.08 481.5,-112.08 485,-102.08 478,-102.08"/>
</g>
<!-- Node8&#45;&gt;Node16 -->
<g id="edge18" class="edge">
<title>Node8&#45;&gt;Node16</title>
<path fill="none" stroke="midnightblue" d="M520.88,-109.57C555.97,-99.38 606.52,-84.7 638.17,-75.52"/>
<polygon fill="midnightblue" stroke="midnightblue" points="519.6,-106.29 510.97,-112.44 521.55,-113.02 519.6,-106.29"/>
</g>
<!-- Node17 -->
<g id="node17" class="node">
<title>Node17</title>
<g id="a_node17"><a xlink:href="_o_m_sim_s_ndetector_8hh.html" target="_top" xlink:title=" ">
<polygon fill="white" stroke="black" points="256.5,-56.5 256.5,-75.5 376.5,-75.5 376.5,-56.5 256.5,-56.5"/>
<text text-anchor="middle" x="316.5" y="-63.5" font-family="Helvetica,sans-Serif" font-size="10.00">OMSimSNdetector.hh</text>
</a>
</g>
</g>
<!-- Node8&#45;&gt;Node17 -->
<g id="edge21" class="edge">
<title>Node8&#45;&gt;Node17</title>
<path fill="none" stroke="midnightblue" d="M445.76,-109.3C414.67,-99.13 370.35,-84.62 342.52,-75.52"/>
<polygon fill="midnightblue" stroke="midnightblue" points="444.76,-112.66 455.36,-112.44 446.94,-106.01 444.76,-112.66"/>
</g>
<!-- Node10 -->
<g id="node10" class="node">
<title>Node10</title>
<g id="a_node10"><a xlink:href="_o_m_sim_8cc.html" target="_top" xlink:title="Implementation of the OMSim class.">
<polygon fill="white" stroke="black" points="0,-0.5 0,-19.5 65,-19.5 65,-0.5 0,-0.5"/>
<text text-anchor="middle" x="32.5" y="-7.5" font-family="Helvetica,sans-Serif" font-size="10.00">OMSim.cc</text>
</a>
</g>
</g>
<!-- Node9&#45;&gt;Node10 -->
<g id="edge9" class="edge">
<title>Node9&#45;&gt;Node10</title>
<path fill="none" stroke="midnightblue" d="M37.05,-46.1C35.89,-37.14 34.56,-26.86 33.63,-19.75"/>
<polygon fill="midnightblue" stroke="midnightblue" points="33.59,-46.62 38.34,-56.08 40.53,-45.72 33.59,-46.62"/>
</g>
<!-- Node11 -->
<g id="node11" class="node">
<title>Node11</title>
<g id="a_node11"><a xlink:href="_o_m_sim__effective__area_8cc.html" target="_top" xlink:title="Main for the calculation of effective areas.">
<polygon fill="white" stroke="black" points="223.5,-0.5 223.5,-19.5 363.5,-19.5 363.5,-0.5 223.5,-0.5"/>
<text text-anchor="middle" x="293.5" y="-7.5" font-family="Helvetica,sans-Serif" font-size="10.00">OMSim_effective_area.cc</text>
</a>
</g>
</g>
<!-- Node9&#45;&gt;Node11 -->
<g id="edge10" class="edge">
<title>Node9&#45;&gt;Node11</title>
<path fill="none" stroke="midnightblue" d="M83.37,-55.6C148,-41.83 212.68,-28.11 253.25,-19.52"/>
<polygon fill="midnightblue" stroke="midnightblue" points="82.47,-52.22 73.42,-57.72 83.93,-59.06 82.47,-52.22"/>
</g>
<!-- Node12 -->
<g id="node12" class="node">
<title>Node12</title>
<g id="a_node12"><a xlink:href="_o_m_sim__radioactive__decays_8cc.html" target="_top" xlink:title="Main of the radioactive decay study.">
<polygon fill="white" stroke="black" points="382,-0.5 382,-19.5 547,-19.5 547,-0.5 382,-0.5"/>
<text text-anchor="middle" x="464.5" y="-7.5" font-family="Helvetica,sans-Serif" font-size="10.00">OMSim_radioactive_decays.cc</text>
</a>
</g>
</g>
<!-- Node9&#45;&gt;Node12 -->
<g id="edge11" class="edge">
<title>Node9&#45;&gt;Node12</title>
<path fill="none" stroke="midnightblue" d="M83.43,-55.83C152.56,-45.03 294.07,-29.27 384.13,-19.54"/>
<polygon fill="midnightblue" stroke="midnightblue" points="82.69,-52.41 73.37,-57.46 83.8,-59.32 82.69,-52.41"/>
</g>
<!-- Node13 -->
<g id="node13" class="node">
<title>Node13</title>
<g id="a_node13"><a xlink:href="_o_m_sim__supernova_8cc.html" target="_top" xlink:title="Main of the supernova study.">
<polygon fill="white" stroke="black" points="83.5,-0.5 83.5,-19.5 205.5,-19.5 205.5,-0.5 83.5,-0.5"/>
<text text-anchor="middle" x="144.5" y="-7.5" font-family="Helvetica,sans-Serif" font-size="10.00">OMSim_supernova.cc</text>
</a>
</g>
</g>
<!-- Node9&#45;&gt;Node13 -->
<g id="edge12" class="edge">
<title>Node9&#45;&gt;Node13</title>
<path fill="none" stroke="midnightblue" d="M65.31,-51.73C84.75,-41.73 110.85,-28.31 127.67,-19.65"/>
<polygon fill="midnightblue" stroke="midnightblue" points="63.66,-48.64 56.37,-56.32 66.86,-54.86 63.66,-48.64"/>
</g>
<!-- Node15&#45;&gt;Node5 -->
<g id="edge17" class="edge">
<title>Node15&#45;&gt;Node5</title>
<path fill="none" stroke="midnightblue" d="M576.52,-55.45C677.76,-45.26 836.56,-29.3 933.71,-19.53"/>
<polygon fill="midnightblue" stroke="midnightblue" points="575.89,-51.99 566.29,-56.47 576.59,-58.96 575.89,-51.99"/>
</g>
<!-- Node15&#45;&gt;Node11 -->
<g id="edge16" class="edge">
<title>Node15&#45;&gt;Node11</title>
<path fill="none" stroke="midnightblue" d="M441.7,-53.57C406.23,-43.38 355.13,-28.7 323.15,-19.52"/>
<polygon fill="midnightblue" stroke="midnightblue" points="441.13,-57.05 451.71,-56.44 443.07,-50.32 441.13,-57.05"/>
</g>
<!-- Node16&#45;&gt;Node6 -->
<g id="edge20" class="edge">
<title>Node16&#45;&gt;Node6</title>
<path fill="none" stroke="midnightblue" d="M759.2,-55.76C861.43,-45.46 1025.17,-28.97 1122.74,-19.14"/>
<polygon fill="midnightblue" stroke="midnightblue" points="758.8,-52.28 749.2,-56.77 759.5,-59.25 758.8,-52.28"/>
</g>
<!-- Node16&#45;&gt;Node12 -->
<g id="edge19" class="edge">
<title>Node16&#45;&gt;Node12</title>
<path fill="none" stroke="midnightblue" d="M625.51,-53.83C587.18,-43.63 531.35,-28.78 496.52,-19.52"/>
<polygon fill="midnightblue" stroke="midnightblue" points="624.77,-57.26 635.33,-56.44 626.57,-50.49 624.77,-57.26"/>
</g>
<!-- Node17&#45;&gt;Node7 -->
<g id="edge23" class="edge">
<title>Node17&#45;&gt;Node7</title>
<path fill="none" stroke="midnightblue" d="M386.65,-55.91C564.6,-36.56 611.28,-39.19 785.5,-20 788.5,-19.67 791.58,-19.32 794.68,-18.95"/>
<polygon fill="midnightblue" stroke="midnightblue" points="386.25,-52.44 376.69,-57 387.02,-59.39 386.25,-52.44"/>
</g>
<!-- Node17&#45;&gt;Node13 -->
<g id="edge22" class="edge">
<title>Node17&#45;&gt;Node13</title>
<path fill="none" stroke="midnightblue" d="M279.67,-53.44C247.24,-43.26 200.76,-28.66 171.63,-19.52"/>
<polygon fill="midnightblue" stroke="midnightblue" points="278.66,-56.79 289.25,-56.44 280.75,-50.11 278.66,-56.79"/>
</g>
<!-- Node18&#45;&gt;Node4 -->
<g id="edge25" class="edge">
<title>Node18&#45;&gt;Node4</title>
<path fill="none" stroke="midnightblue" d="M1169.38,-55.89C1268,-41.84 1370.24,-28.1 1434.77,-19.53"/>
<polygon fill="midnightblue" stroke="midnightblue" points="1168.64,-52.46 1159.23,-57.34 1169.63,-59.39 1168.64,-52.46"/>
</g>
<!-- Node18&#45;&gt;Node5 -->
<g id="edge27" class="edge">
<title>Node18&#45;&gt;Node5</title>
<path fill="none" stroke="midnightblue" d="M1085.46,-51.18C1068.9,-41.24 1047.08,-28.15 1032.92,-19.65"/>
<polygon fill="midnightblue" stroke="midnightblue" points="1083.66,-54.18 1094.04,-56.32 1087.27,-48.18 1083.66,-54.18"/>
</g>
<!-- Node18&#45;&gt;Node6 -->
<g id="edge28" class="edge">
<title>Node18&#45;&gt;Node6</title>
<path fill="none" stroke="midnightblue" d="M1132.82,-51.18C1150.3,-41.24 1173.33,-28.15 1188.27,-19.65"/>
<polygon fill="midnightblue" stroke="midnightblue" points="1130.73,-48.34 1123.76,-56.32 1134.19,-54.43 1130.73,-48.34"/>
</g>
<!-- Node18&#45;&gt;Node7 -->
<g id="edge29" class="edge">
<title>Node18&#45;&gt;Node7</title>
<path fill="none" stroke="midnightblue" d="M1058.38,-54.35C1010.38,-44.14 938.88,-28.94 894.56,-19.52"/>
<polygon fill="midnightblue" stroke="midnightblue" points="1057.74,-57.79 1068.25,-56.44 1059.2,-50.94 1057.74,-57.79"/>
</g>
<!-- Node19 -->
<g id="node19" class="node">
<title>Node19</title>
<g id="a_node19"><a xlink:href="_o_m_sim_l_o_m16_8cc.html" target="_top" xlink:title=" ">
<polygon fill="white" stroke="black" points="678,-0.5 678,-19.5 777,-19.5 777,-0.5 678,-0.5"/>
<text text-anchor="middle" x="727.5" y="-7.5" font-family="Helvetica,sans-Serif" font-size="10.00">OMSimLOM16.cc</text>
</a>
</g>
</g>
<!-- Node18&#45;&gt;Node19 -->
<g id="edge26" class="edge">
<title>Node18&#45;&gt;Node19</title>
<path fill="none" stroke="midnightblue" d="M1047.64,-55.89C930.04,-39.12 899.05,-36.58 785.5,-20 782.78,-19.6 779.98,-19.19 777.17,-18.77"/>
<polygon fill="midnightblue" stroke="midnightblue" points="1047.37,-59.39 1057.77,-57.34 1048.36,-52.46 1047.37,-59.39"/>
</g>
<!-- Node20&#45;&gt;Node4 -->
<g id="edge31" class="edge">
<title>Node20&#45;&gt;Node4</title>
<path fill="none" stroke="midnightblue" d="M1376.89,-53.17C1406.45,-43 1448.37,-28.59 1474.74,-19.52"/>
<polygon fill="midnightblue" stroke="midnightblue" points="1375.7,-49.88 1367.38,-56.44 1377.97,-56.5 1375.7,-49.88"/>
</g>
<!-- Node20&#45;&gt;Node5 -->
<g id="edge33" class="edge">
<title>Node20&#45;&gt;Node5</title>
<path fill="none" stroke="midnightblue" d="M1281.96,-54.91C1220.74,-44.71 1127.16,-29.11 1069.57,-19.51"/>
<polygon fill="midnightblue" stroke="midnightblue" points="1281.44,-58.37 1291.88,-56.56 1282.59,-51.47 1281.44,-58.37"/>
</g>
<!-- Node20&#45;&gt;Node6 -->
<g id="edge34" class="edge">
<title>Node20&#45;&gt;Node6</title>
<path fill="none" stroke="midnightblue" d="M1311.02,-52.77C1284.91,-42.63 1248.46,-28.47 1225.42,-19.52"/>
<polygon fill="midnightblue" stroke="midnightblue" points="1309.89,-56.08 1320.48,-56.44 1312.42,-49.56 1309.89,-56.08"/>
</g>
<!-- Node20&#45;&gt;Node7 -->
<g id="edge35" class="edge">
<title>Node20&#45;&gt;Node7</title>
<path fill="none" stroke="midnightblue" d="M1281.81,-55.84C1122.25,-35.96 1079.97,-38.02 923.5,-20 920.5,-19.65 917.43,-19.29 914.33,-18.92"/>
<polygon fill="midnightblue" stroke="midnightblue" points="1281.64,-59.35 1291.99,-57.12 1282.51,-52.4 1281.64,-59.35"/>
</g>
<!-- Node21 -->
<g id="node21" class="node">
<title>Node21</title>
<g id="a_node21"><a xlink:href="_o_m_sim_l_o_m18_8cc.html" target="_top" xlink:title=" ">
<polygon fill="white" stroke="black" points="1602,-0.5 1602,-19.5 1701,-19.5 1701,-0.5 1602,-0.5"/>
<text text-anchor="middle" x="1651.5" y="-7.5" font-family="Helvetica,sans-Serif" font-size="10.00">OMSimLOM18.cc</text>
</a>
</g>
</g>
<!-- Node20&#45;&gt;Node21 -->
<g id="edge32" class="edge">
<title>Node20&#45;&gt;Node21</title>
<path fill="none" stroke="midnightblue" d="M1401.64,-54.66C1460.04,-44.46 1548.28,-29.04 1602.77,-19.52"/>
<polygon fill="midnightblue" stroke="midnightblue" points="1400.71,-51.27 1391.46,-56.44 1401.92,-58.17 1400.71,-51.27"/>
</g>
<!-- Node22&#45;&gt;Node4 -->
<g id="edge37" class="edge">
<title>Node22&#45;&gt;Node4</title>
<path fill="none" stroke="midnightblue" d="M1499.5,-45.8C1499.5,-36.91 1499.5,-26.78 1499.5,-19.75"/>
<polygon fill="midnightblue" stroke="midnightblue" points="1496,-46.08 1499.5,-56.08 1503,-46.08 1496,-46.08"/>
</g>
<!-- Node22&#45;&gt;Node5 -->
<g id="edge41" class="edge">
<title>Node22&#45;&gt;Node5</title>
<path fill="none" stroke="midnightblue" d="M1439.37,-58.25C1352,-48.44 1189.98,-30.25 1094.47,-19.53"/>
<polygon fill="midnightblue" stroke="midnightblue" points="1439.06,-61.74 1449.39,-59.37 1439.84,-54.78 1439.06,-61.74"/>
</g>
<!-- Node22&#45;&gt;Node6 -->
<g id="edge42" class="edge">
<title>Node22&#45;&gt;Node6</title>
<path fill="none" stroke="midnightblue" d="M1442.5,-54.6C1386.56,-44.4 1302.27,-29.02 1250.18,-19.52"/>
<polygon fill="midnightblue" stroke="midnightblue" points="1442.13,-58.09 1452.6,-56.44 1443.39,-51.21 1442.13,-58.09"/>
</g>
<!-- Node22&#45;&gt;Node7 -->
<g id="edge43" class="edge">
<title>Node22&#45;&gt;Node7</title>
<path fill="none" stroke="midnightblue" d="M1439.14,-59.23C1427.01,-58.12 1414.35,-56.99 1402.5,-56 1189.76,-38.14 1135.87,-41.81 923.5,-20 920.5,-19.69 917.42,-19.36 914.32,-19.01"/>
<polygon fill="midnightblue" stroke="midnightblue" points="1438.89,-62.73 1449.17,-60.16 1439.53,-55.76 1438.89,-62.73"/>
</g>
<!-- Node23 -->
<g id="node23" class="node">
<title>Node23</title>
<g id="a_node23"><a xlink:href="_o_m_sim_m_d_o_m_8cc.html" target="_top" xlink:title=" ">
<polygon fill="white" stroke="black" points="1719.5,-0.5 1719.5,-19.5 1817.5,-19.5 1817.5,-0.5 1719.5,-0.5"/>
<text text-anchor="middle" x="1768.5" y="-7.5" font-family="Helvetica,sans-Serif" font-size="10.00">OMSimMDOM.cc</text>
</a>
</g>
</g>
<!-- Node22&#45;&gt;Node23 -->
<g id="edge38" class="edge">
<title>Node22&#45;&gt;Node23</title>
<path fill="none" stroke="midnightblue" d="M1551.94,-54.47C1602.78,-44.27 1678.94,-28.98 1726.08,-19.52"/>
<polygon fill="midnightblue" stroke="midnightblue" points="1551.24,-51.04 1542.12,-56.44 1552.62,-57.91 1551.24,-51.04"/>
</g>
<!-- Node24 -->
<g id="node24" class="node">
<title>Node24</title>
<g id="a_node24"><a xlink:href="_o_m_sim_m_d_o_m_flasher_8cc.html" target="_top" xlink:title=" ">
<polygon fill="white" stroke="black" points="1835.5,-0.5 1835.5,-19.5 1969.5,-19.5 1969.5,-0.5 1835.5,-0.5"/>
<text text-anchor="middle" x="1902.5" y="-7.5" font-family="Helvetica,sans-Serif" font-size="10.00">OMSimMDOMFlasher.cc</text>
</a>
</g>
</g>
<!-- Node22&#45;&gt;Node24 -->
<g id="edge39" class="edge">
<title>Node22&#45;&gt;Node24</title>
<path fill="none" stroke="midnightblue" d="M1559.96,-56.9C1635.05,-46.84 1762.55,-29.75 1839.01,-19.51"/>
<polygon fill="midnightblue" stroke="midnightblue" points="1559.17,-53.47 1549.73,-58.27 1560.1,-60.41 1559.17,-53.47"/>
</g>
<!-- Node25 -->
<g id="node25" class="node">
<title>Node25</title>
<g id="a_node25"><a xlink:href="_o_m_sim_m_d_o_m_harness_8cc.html" target="_top" xlink:title=" ">
<polygon fill="white" stroke="black" points="1987.5,-0.5 1987.5,-19.5 2125.5,-19.5 2125.5,-0.5 1987.5,-0.5"/>
<text text-anchor="middle" x="2056.5" y="-7.5" font-family="Helvetica,sans-Serif" font-size="10.00">OMSimMDOMHarness.cc</text>
</a>
</g>
</g>
<!-- Node22&#45;&gt;Node25 -->
<g id="edge40" class="edge">
<title>Node22&#45;&gt;Node25</title>
<path fill="none" stroke="midnightblue" d="M1559.63,-59.76C1650.43,-51.76 1827.92,-35.76 1978.5,-20 1981.35,-19.7 1984.25,-19.39 1987.19,-19.08"/>
<polygon fill="midnightblue" stroke="midnightblue" points="1559.18,-56.29 1549.53,-60.65 1559.8,-63.26 1559.18,-56.29"/>
</g>
<!-- Node26&#45;&gt;Node4 -->
<g id="edge45" class="edge">
<title>Node26&#45;&gt;Node4</title>
<path fill="none" stroke="midnightblue" d="M1278.91,-54.47C1330.7,-44.27 1408.27,-28.98 1456.29,-19.52"/>
<polygon fill="midnightblue" stroke="midnightblue" points="1278.05,-51.08 1268.92,-56.44 1279.4,-57.94 1278.05,-51.08"/>
</g>
<!-- Node26&#45;&gt;Node5 -->
<g id="edge47" class="edge">
<title>Node26&#45;&gt;Node5</title>
<path fill="none" stroke="midnightblue" d="M1182.68,-53.83C1143.59,-43.63 1086.67,-28.78 1051.15,-19.52"/>
<polygon fill="midnightblue" stroke="midnightblue" points="1182.14,-57.31 1192.7,-56.44 1183.91,-50.53 1182.14,-57.31"/>
</g>
<!-- Node26&#45;&gt;Node6 -->
<g id="edge48" class="edge">
<title>Node26&#45;&gt;Node6</title>
<path fill="none" stroke="midnightblue" d="M1218.04,-46.69C1214.33,-37.59 1210.02,-27.01 1207.07,-19.75"/>
<polygon fill="midnightblue" stroke="midnightblue" points="1214.85,-48.14 1221.87,-56.08 1221.34,-45.5 1214.85,-48.14"/>
</g>
<!-- Node26&#45;&gt;Node7 -->
<g id="edge49" class="edge">
<title>Node26&#45;&gt;Node7</title>
<path fill="none" stroke="midnightblue" d="M1167.03,-55.79C1073.04,-41.69 975.18,-27.83 914.15,-19.29"/>
<polygon fill="midnightblue" stroke="midnightblue" points="1166.59,-59.27 1177,-57.29 1167.63,-52.34 1166.59,-59.27"/>
</g>
<!-- Node27 -->
<g id="node27" class="node">
<title>Node27</title>
<g id="a_node27"><a xlink:href="_o_m_sim_p_d_o_m_8cc.html" target="_top" xlink:title=" ">
<polygon fill="white" stroke="black" points="1302,-0.5 1302,-19.5 1397,-19.5 1397,-0.5 1302,-0.5"/>
<text text-anchor="middle" x="1349.5" y="-7.5" font-family="Helvetica,sans-Serif" font-size="10.00">OMSimPDOM.cc</text>
</a>
</g>
</g>
<!-- Node26&#45;&gt;Node27 -->
<g id="edge46" class="edge">
<title>Node26&#45;&gt;Node27</title>
<path fill="none" stroke="midnightblue" d="M1254.51,-52.37C1277.73,-42.26 1309.66,-28.35 1329.94,-19.52"/>
<polygon fill="midnightblue" stroke="midnightblue" points="1252.92,-49.24 1245.15,-56.44 1255.71,-55.66 1252.92,-49.24"/>
</g>
<!-- Node29&#45;&gt;Node12 -->
<g id="edge52" class="edge">
<title>Node29&#45;&gt;Node12</title>
<path fill="none" stroke="midnightblue" d="M845.05,-106.86C818.73,-89.75 775.4,-62.43 757.5,-56 719,-42.16 615.3,-28.15 542.24,-19.53"/>
<polygon fill="midnightblue" stroke="midnightblue" points="843.29,-109.89 853.58,-112.43 847.12,-104.03 843.29,-109.89"/>
</g>
<!-- Node30 -->
<g id="node30" class="node">
<title>Node30</title>
<g id="a_node30"><a xlink:href="_o_m_sim_decays_g_p_s_8cc.html" target="_top" xlink:title=" ">
<polygon fill="white" stroke="black" points="806,-56.5 806,-75.5 927,-75.5 927,-56.5 806,-56.5"/>
<text text-anchor="middle" x="866.5" y="-63.5" font-family="Helvetica,sans-Serif" font-size="10.00">OMSimDecaysGPS.cc</text>
</a>
</g>
</g>
<!-- Node29&#45;&gt;Node30 -->
<g id="edge53" class="edge">
<title>Node29&#45;&gt;Node30</title>
<path fill="none" stroke="midnightblue" d="M866.5,-101.8C866.5,-92.91 866.5,-82.78 866.5,-75.75"/>
<polygon fill="midnightblue" stroke="midnightblue" points="863,-102.08 866.5,-112.08 870,-102.08 863,-102.08"/>
</g>
</g>
</svg>
