<?xml version="1.0" encoding="UTF-8" standalone="no"?>
<!DOCTYPE svg PUBLIC "-//W3C//DTD SVG 1.1//EN"
 "http://www.w3.org/Graphics/SVG/1.1/DTD/svg11.dtd">
<!-- Generated by graphviz version 2.43.0 (0)
 -->
<!-- Title: OMSimOpticalModule.hh Pages: 1 -->
<svg width="2211pt" height="196pt"
 viewBox="0.00 0.00 2211.00 196.00" xmlns="http://www.w3.org/2000/svg" xmlns:xlink="http://www.w3.org/1999/xlink">
<g id="graph0" class="graph" transform="scale(1 1) rotate(0) translate(4 192)">
<title>OMSimOpticalModule.hh</title>
<polygon fill="white" stroke="transparent" points="-4,4 -4,-192 2207,-192 2207,4 -4,4"/>
<!-- Node1 -->
<g id="node1" class="node">
<title>Node1</title>
<g id="a_node1"><a xlink:title=" ">
<polygon fill="#bfbfbf" stroke="black" points="922.5,-168.5 922.5,-187.5 1059.5,-187.5 1059.5,-168.5 922.5,-168.5"/>
<text text-anchor="middle" x="991" y="-175.5" font-family="Helvetica,sans-Serif" font-size="10.00">OMSimOpticalModule.hh</text>
</a>
</g>
</g>
<!-- Node2 -->
<g id="node2" class="node">
<title>Node2</title>
<g id="a_node2"><a xlink:href="_o_m_sim_d_e_g_g_8hh.html" target="_top" xlink:title="Construction of the DEGG class.">
<polygon fill="white" stroke="black" points="474.5,-56.5 474.5,-75.5 569.5,-75.5 569.5,-56.5 474.5,-56.5"/>
<text text-anchor="middle" x="522" y="-63.5" font-family="Helvetica,sans-Serif" font-size="10.00">OMSimDEGG.hh</text>
</a>
</g>
</g>
<!-- Node1&#45;&gt;Node2 -->
<g id="edge1" class="edge">
<title>Node1&#45;&gt;Node2</title>
<path fill="none" stroke="midnightblue" d="M938.05,-166.43C894.88,-157.67 832.36,-144.64 778,-132 696.94,-113.15 602.14,-88.36 553.83,-75.52"/>
<polygon fill="midnightblue" stroke="midnightblue" points="937.55,-169.9 948.05,-168.46 938.94,-163.04 937.55,-169.9"/>
</g>
<!-- Node8 -->
<g id="node8" class="node">
<title>Node8</title>
<g id="a_node8"><a xlink:href="_o_m_sim_detector_construction_8hh.html" target="_top" xlink:title=" ">
<polygon fill="white" stroke="black" points="1225,-112.5 1225,-131.5 1395,-131.5 1395,-112.5 1225,-112.5"/>
<text text-anchor="middle" x="1310" y="-119.5" font-family="Helvetica,sans-Serif" font-size="10.00">OMSimDetectorConstruction.hh</text>
</a>
</g>
</g>
<!-- Node1&#45;&gt;Node8 -->
<g id="edge7" class="edge">
<title>Node1&#45;&gt;Node8</title>
<path fill="none" stroke="midnightblue" d="M1051.68,-166.73C1111.97,-156.52 1203.32,-141.06 1259.69,-131.52"/>
<polygon fill="midnightblue" stroke="midnightblue" points="1050.82,-163.32 1041.55,-168.44 1051.99,-170.23 1050.82,-163.32"/>
</g>
<!-- Node16 -->
<g id="node16" class="node">
<title>Node16</title>
<g id="a_node16"><a xlink:href="_o_m_sim_rad_decays_detector_8hh.html" target="_top" xlink:title="Defines the OMSimRadDecaysDetector class for the radioactive decays simulation.">
<polygon fill="white" stroke="black" points="1677.5,-56.5 1677.5,-75.5 1840.5,-75.5 1840.5,-56.5 1677.5,-56.5"/>
<text text-anchor="middle" x="1759" y="-63.5" font-family="Helvetica,sans-Serif" font-size="10.00">OMSimRadDecaysDetector.hh</text>
</a>
</g>
</g>
<!-- Node1&#45;&gt;Node16 -->
<g id="edge55" class="edge">
<title>Node1&#45;&gt;Node16</title>
<path fill="none" stroke="midnightblue" d="M1069.66,-170.14C1152.92,-162.48 1288.04,-148.91 1404,-132 1518.24,-115.34 1651.93,-88.99 1717.89,-75.53"/>
<polygon fill="midnightblue" stroke="midnightblue" points="1069.16,-166.67 1059.52,-171.07 1069.8,-173.64 1069.16,-166.67"/>
</g>
<!-- Node18 -->
<g id="node18" class="node">
<title>Node18</title>
<g id="a_node18"><a xlink:href="_o_m_sim_l_o_m16_8hh.html" target="_top" xlink:title="Construction of LOM16.">
<polygon fill="white" stroke="black" points="587.5,-56.5 587.5,-75.5 688.5,-75.5 688.5,-56.5 587.5,-56.5"/>
<text text-anchor="middle" x="638" y="-63.5" font-family="Helvetica,sans-Serif" font-size="10.00">OMSimLOM16.hh</text>
</a>
</g>
</g>
<!-- Node1&#45;&gt;Node18 -->
<g id="edge24" class="edge">
<title>Node1&#45;&gt;Node18</title>
<path fill="none" stroke="midnightblue" d="M953.7,-165.38C882.47,-143.18 728.54,-95.21 665.63,-75.61"/>
<polygon fill="midnightblue" stroke="midnightblue" points="953.01,-168.83 963.59,-168.46 955.09,-162.14 953.01,-168.83"/>
</g>
<!-- Node20 -->
<g id="node20" class="node">
<title>Node20</title>
<g id="a_node20"><a xlink:href="_o_m_sim_l_o_m18_8hh.html" target="_top" xlink:title="Construction of LOM18.">
<polygon fill="white" stroke="black" points="706.5,-56.5 706.5,-75.5 807.5,-75.5 807.5,-56.5 706.5,-56.5"/>
<text text-anchor="middle" x="757" y="-63.5" font-family="Helvetica,sans-Serif" font-size="10.00">OMSimLOM18.hh</text>
</a>
</g>
</g>
<!-- Node1&#45;&gt;Node20 -->
<g id="edge30" class="edge">
<title>Node1&#45;&gt;Node20</title>
<path fill="none" stroke="midnightblue" d="M963.39,-164.02C915,-141.27 816.12,-94.79 775.28,-75.59"/>
<polygon fill="midnightblue" stroke="midnightblue" points="962.1,-167.28 972.64,-168.37 965.08,-160.95 962.1,-167.28"/>
</g>
<!-- Node22 -->
<g id="node22" class="node">
<title>Node22</title>
<g id="a_node22"><a xlink:href="_o_m_sim_m_d_o_m_8hh.html" target="_top" xlink:title="Construction of mDOM.">
<polygon fill="white" stroke="black" points="941,-56.5 941,-75.5 1041,-75.5 1041,-56.5 941,-56.5"/>
<text text-anchor="middle" x="991" y="-63.5" font-family="Helvetica,sans-Serif" font-size="10.00">OMSimMDOM.hh</text>
</a>
</g>
</g>
<!-- Node1&#45;&gt;Node22 -->
<g id="edge36" class="edge">
<title>Node1&#45;&gt;Node22</title>
<path fill="none" stroke="midnightblue" d="M991,-158.35C991,-134.25 991,-93.31 991,-75.59"/>
<polygon fill="midnightblue" stroke="midnightblue" points="987.5,-158.37 991,-168.37 994.5,-158.37 987.5,-158.37"/>
</g>
<!-- Node26 -->
<g id="node26" class="node">
<title>Node26</title>
<g id="a_node26"><a xlink:href="_o_m_sim_p_d_o_m_8hh.html" target="_top" xlink:title="Implementation of the pDOM/Gen1 DOM class.">
<polygon fill="white" stroke="black" points="825.5,-56.5 825.5,-75.5 922.5,-75.5 922.5,-56.5 825.5,-56.5"/>
<text text-anchor="middle" x="874" y="-63.5" font-family="Helvetica,sans-Serif" font-size="10.00">OMSimPDOM.hh</text>
</a>
</g>
</g>
<!-- Node1&#45;&gt;Node26 -->
<g id="edge44" class="edge">
<title>Node1&#45;&gt;Node26</title>
<path fill="none" stroke="midnightblue" d="M974.53,-161.51C949.53,-138.01 902.83,-94.11 883.14,-75.59"/>
<polygon fill="midnightblue" stroke="midnightblue" points="972.14,-164.07 981.82,-168.37 976.93,-158.97 972.14,-164.07"/>
</g>
<!-- Node28 -->
<g id="node28" class="node">
<title>Node28</title>
<g id="a_node28"><a xlink:href="_o_m_sim_optical_module_8cc.html" target="_top" xlink:title=" ">
<polygon fill="white" stroke="black" points="1948,-112.5 1948,-131.5 2084,-131.5 2084,-112.5 1948,-112.5"/>
<text text-anchor="middle" x="2016" y="-119.5" font-family="Helvetica,sans-Serif" font-size="10.00">OMSimOpticalModule.cc</text>
</a>
</g>
</g>
<!-- Node1&#45;&gt;Node28 -->
<g id="edge50" class="edge">
<title>Node1&#45;&gt;Node28</title>
<path fill="none" stroke="midnightblue" d="M1069.9,-175.09C1232.63,-170.75 1617.22,-158.41 1939,-132 1941.82,-131.77 1944.69,-131.51 1947.59,-131.24"/>
<polygon fill="midnightblue" stroke="midnightblue" points="1069.41,-171.6 1059.51,-175.37 1069.6,-178.6 1069.41,-171.6"/>
</g>
<!-- Node29 -->
<g id="node29" class="node">
<title>Node29</title>
<g id="a_node29"><a xlink:href="_o_m_sim_decays_g_p_s_8hh.html" target="_top" xlink:title="Defines the OMSimDecaysGPS class for the radioactive decays simulation.">
<polygon fill="white" stroke="black" points="1808,-112.5 1808,-131.5 1930,-131.5 1930,-112.5 1808,-112.5"/>
<text text-anchor="middle" x="1869" y="-119.5" font-family="Helvetica,sans-Serif" font-size="10.00">OMSimDecaysGPS.hh</text>
</a>
</g>
</g>
<!-- Node1&#45;&gt;Node29 -->
<g id="edge51" class="edge">
<title>Node1&#45;&gt;Node29</title>
<path fill="none" stroke="midnightblue" d="M1069.57,-172.17C1242.34,-161.54 1652.24,-136.33 1807.74,-126.77"/>
<polygon fill="midnightblue" stroke="midnightblue" points="1069.3,-168.68 1059.53,-172.79 1069.73,-175.66 1069.3,-168.68"/>
</g>
<!-- Node3 -->
<g id="node3" class="node">
<title>Node3</title>
<g id="a_node3"><a xlink:href="_o_m_sim_d_e_g_g_8cc.html" target="_top" xlink:title=" ">
<polygon fill="white" stroke="black" points="0,-0.5 0,-19.5 94,-19.5 94,-0.5 0,-0.5"/>
<text text-anchor="middle" x="47" y="-7.5" font-family="Helvetica,sans-Serif" font-size="10.00">OMSimDEGG.cc</text>
</a>
</g>
</g>
<!-- Node2&#45;&gt;Node3 -->
<g id="edge2" class="edge">
<title>Node2&#45;&gt;Node3</title>
<path fill="none" stroke="midnightblue" d="M464.48,-59.78C383.63,-52.23 231.82,-37.26 103,-20 100.07,-19.61 97.06,-19.18 94.03,-18.74"/>
<polygon fill="midnightblue" stroke="midnightblue" points="464.18,-63.27 474.46,-60.71 464.83,-56.3 464.18,-63.27"/>
</g>
<!-- Node4 -->
<g id="node4" class="node">
<title>Node4</title>
<g id="a_node4"><a xlink:href="_o_m_sim_detector_construction_8cc.html" target="_top" xlink:title=" ">
<polygon fill="white" stroke="black" points="229.5,-0.5 229.5,-19.5 398.5,-19.5 398.5,-0.5 229.5,-0.5"/>
<text text-anchor="middle" x="314" y="-7.5" font-family="Helvetica,sans-Serif" font-size="10.00">OMSimDetectorConstruction.cc</text>
</a>
</g>
</g>
<!-- Node2&#45;&gt;Node4 -->
<g id="edge3" class="edge">
<title>Node2&#45;&gt;Node4</title>
<path fill="none" stroke="midnightblue" d="M479.22,-53.89C439.94,-43.7 382.57,-28.8 346.8,-19.52"/>
<polygon fill="midnightblue" stroke="midnightblue" points="478.48,-57.32 489.04,-56.44 480.24,-50.54 478.48,-57.32"/>
</g>
<!-- Node5 -->
<g id="node5" class="node">
<title>Node5</title>
<g id="a_node5"><a xlink:href="_o_m_sim_effective_area_detector_8cc.html" target="_top" xlink:title=" ">
<polygon fill="white" stroke="black" points="671,-0.5 671,-19.5 843,-19.5 843,-0.5 671,-0.5"/>
<text text-anchor="middle" x="757" y="-7.5" font-family="Helvetica,sans-Serif" font-size="10.00">OMSimEffectiveAreaDetector.cc</text>
</a>
</g>
</g>
<!-- Node2&#45;&gt;Node5 -->
<g id="edge4" class="edge">
<title>Node2&#45;&gt;Node5</title>
<path fill="none" stroke="midnightblue" d="M569.21,-54.15C613.61,-43.95 679.19,-28.88 719.94,-19.52"/>
<polygon fill="midnightblue" stroke="midnightblue" points="568.2,-50.79 559.24,-56.44 569.77,-57.62 568.2,-50.79"/>
</g>
<!-- Node6 -->
<g id="node6" class="node">
<title>Node6</title>
<g id="a_node6"><a xlink:href="_o_m_sim_rad_decays_detector_8cc.html" target="_top" xlink:title=" ">
<polygon fill="white" stroke="black" points="861.5,-0.5 861.5,-19.5 1022.5,-19.5 1022.5,-0.5 861.5,-0.5"/>
<text text-anchor="middle" x="942" y="-7.5" font-family="Helvetica,sans-Serif" font-size="10.00">OMSimRadDecaysDetector.cc</text>
</a>
</g>
</g>
<!-- Node2&#45;&gt;Node6 -->
<g id="edge5" class="edge">
<title>Node2&#45;&gt;Node6</title>
<path fill="none" stroke="midnightblue" d="M579.78,-55.79C684.77,-40.98 795.22,-27.75 866.6,-19.51"/>
<polygon fill="midnightblue" stroke="midnightblue" points="579.05,-52.35 569.64,-57.22 580.03,-59.28 579.05,-52.35"/>
</g>
<!-- Node7 -->
<g id="node7" class="node">
<title>Node7</title>
<g id="a_node7"><a xlink:href="_o_m_sim_s_ndetector_8cc.html" target="_top" xlink:title=" ">
<polygon fill="white" stroke="black" points="533.5,-0.5 533.5,-19.5 652.5,-19.5 652.5,-0.5 533.5,-0.5"/>
<text text-anchor="middle" x="593" y="-7.5" font-family="Helvetica,sans-Serif" font-size="10.00">OMSimSNdetector.cc</text>
</a>
</g>
</g>
<!-- Node2&#45;&gt;Node7 -->
<g id="edge6" class="edge">
<title>Node2&#45;&gt;Node7</title>
<path fill="none" stroke="midnightblue" d="M541.59,-50.1C554.37,-40.38 570.61,-28.03 581.39,-19.83"/>
<polygon fill="midnightblue" stroke="midnightblue" points="539.25,-47.48 533.41,-56.32 543.49,-53.06 539.25,-47.48"/>
</g>
<!-- Node8&#45;&gt;Node4 -->
<g id="edge13" class="edge">
<title>Node8&#45;&gt;Node4</title>
<path fill="none" stroke="midnightblue" d="M1214.59,-120.14C1024.53,-117.72 604.93,-108.74 465,-76 412.48,-63.71 355.2,-34.14 328.82,-19.5"/>
<polygon fill="midnightblue" stroke="midnightblue" points="1214.8,-123.64 1224.85,-120.26 1214.89,-116.64 1214.8,-123.64"/>
</g>
<!-- Node9 -->
<g id="node9" class="node">
<title>Node9</title>
<g id="a_node9"><a xlink:href="_o_m_sim_8hh.html" target="_top" xlink:title="Main simulation class for the Optical Module (OM) simulation. This file defines the OMSim class,...">
<polygon fill="white" stroke="black" points="1592.5,-56.5 1592.5,-75.5 1659.5,-75.5 1659.5,-56.5 1592.5,-56.5"/>
<text text-anchor="middle" x="1626" y="-63.5" font-family="Helvetica,sans-Serif" font-size="10.00">OMSim.hh</text>
</a>
</g>
</g>
<!-- Node8&#45;&gt;Node9 -->
<g id="edge8" class="edge">
<title>Node8&#45;&gt;Node9</title>
<path fill="none" stroke="midnightblue" d="M1370.31,-110.69C1436.16,-99.44 1539.29,-81.82 1592.2,-72.78"/>
<polygon fill="midnightblue" stroke="midnightblue" points="1369.34,-107.31 1360.07,-112.44 1370.52,-114.21 1369.34,-107.31"/>
</g>
<!-- Node14 -->
<g id="node14" class="node">
<title>Node14</title>
<g id="a_node14"><a xlink:href="_o_m_sim_p_m_t_construction_8cc.html" target="_top" xlink:title=" ">
<polygon fill="white" stroke="black" points="1414.5,-56.5 1414.5,-75.5 1561.5,-75.5 1561.5,-56.5 1414.5,-56.5"/>
<text text-anchor="middle" x="1488" y="-63.5" font-family="Helvetica,sans-Serif" font-size="10.00">OMSimPMTConstruction.cc</text>
</a>
</g>
</g>
<!-- Node8&#45;&gt;Node14 -->
<g id="edge14" class="edge">
<title>Node8&#45;&gt;Node14</title>
<path fill="none" stroke="midnightblue" d="M1348.12,-109.44C1381.68,-99.26 1429.77,-84.66 1459.93,-75.52"/>
<polygon fill="midnightblue" stroke="midnightblue" points="1346.76,-106.19 1338.2,-112.44 1348.79,-112.89 1346.76,-106.19"/>
</g>
<!-- Node15 -->
<g id="node15" class="node">
<title>Node15</title>
<g id="a_node15"><a xlink:href="_o_m_sim_effective_area_detector_8hh.html" target="_top" xlink:title="Defines the OMSimEffectiveAreaDetector class for effective area simulation detector construction.">
<polygon fill="white" stroke="black" points="1223.5,-56.5 1223.5,-75.5 1396.5,-75.5 1396.5,-56.5 1223.5,-56.5"/>
<text text-anchor="middle" x="1310" y="-63.5" font-family="Helvetica,sans-Serif" font-size="10.00">OMSimEffectiveAreaDetector.hh</text>
</a>
</g>
</g>
<!-- Node8&#45;&gt;Node15 -->
<g id="edge15" class="edge">
<title>Node8&#45;&gt;Node15</title>
<path fill="none" stroke="midnightblue" d="M1310,-101.8C1310,-92.91 1310,-82.78 1310,-75.75"/>
<polygon fill="midnightblue" stroke="midnightblue" points="1306.5,-102.08 1310,-112.08 1313.5,-102.08 1306.5,-102.08"/>
</g>
<!-- Node8&#45;&gt;Node16 -->
<g id="edge18" class="edge">
<title>Node8&#45;&gt;Node16</title>
<path fill="none" stroke="midnightblue" d="M1391.24,-111.23C1476,-101.04 1607.54,-85.22 1688.19,-75.52"/>
<polygon fill="midnightblue" stroke="midnightblue" points="1390.66,-107.77 1381.15,-112.44 1391.49,-114.72 1390.66,-107.77"/>
</g>
<!-- Node17 -->
<g id="node17" class="node">
<title>Node17</title>
<g id="a_node17"><a xlink:href="_o_m_sim_s_ndetector_8hh.html" target="_top" xlink:title=" ">
<polygon fill="white" stroke="black" points="1085,-56.5 1085,-75.5 1205,-75.5 1205,-56.5 1085,-56.5"/>
<text text-anchor="middle" x="1145" y="-63.5" font-family="Helvetica,sans-Serif" font-size="10.00">OMSimSNdetector.hh</text>
</a>
</g>
</g>
<!-- Node8&#45;&gt;Node17 -->
<g id="edge21" class="edge">
<title>Node8&#45;&gt;Node17</title>
<path fill="none" stroke="midnightblue" d="M1274.26,-109.3C1243.17,-99.13 1198.85,-84.62 1171.02,-75.52"/>
<polygon fill="midnightblue" stroke="midnightblue" points="1273.26,-112.66 1283.86,-112.44 1275.44,-106.01 1273.26,-112.66"/>
</g>
<!-- Node10 -->
<g id="node10" class="node">
<title>Node10</title>
<g id="a_node10"><a xlink:href="_o_m_sim_8cc.html" target="_top" xlink:title="Implementation of the OMSim class.">
<polygon fill="white" stroke="black" points="1876.5,-0.5 1876.5,-19.5 1941.5,-19.5 1941.5,-0.5 1876.5,-0.5"/>
<text text-anchor="middle" x="1909" y="-7.5" font-family="Helvetica,sans-Serif" font-size="10.00">OMSim.cc</text>
</a>
</g>
</g>
<!-- Node9&#45;&gt;Node10 -->
<g id="edge9" class="edge">
<title>Node9&#45;&gt;Node10</title>
<path fill="none" stroke="midnightblue" d="M1669.74,-55.9C1758.44,-38.71 1782.35,-36.76 1867,-20 1870.07,-19.39 1873.27,-18.74 1876.46,-18.08"/>
<polygon fill="midnightblue" stroke="midnightblue" points="1668.93,-52.49 1659.78,-57.84 1670.27,-59.36 1668.93,-52.49"/>
</g>
<!-- Node11 -->
<g id="node11" class="node">
<title>Node11</title>
<g id="a_node11"><a xlink:href="_o_m_sim__effective__area_8cc.html" target="_top" xlink:title="Main for the calculation of effective areas.">
<polygon fill="white" stroke="black" points="1718,-0.5 1718,-19.5 1858,-19.5 1858,-0.5 1718,-0.5"/>
<text text-anchor="middle" x="1788" y="-7.5" font-family="Helvetica,sans-Serif" font-size="10.00">OMSim_effective_area.cc</text>
</a>
</g>
</g>
<!-- Node9&#45;&gt;Node11 -->
<g id="edge10" class="edge">
<title>Node9&#45;&gt;Node11</title>
<path fill="none" stroke="midnightblue" d="M1661.48,-53.17C1691.99,-43 1735.24,-28.59 1762.45,-19.52"/>
<polygon fill="midnightblue" stroke="midnightblue" points="1660.05,-49.96 1651.67,-56.44 1662.26,-56.6 1660.05,-49.96"/>
</g>
<!-- Node12 -->
<g id="node12" class="node">
<title>Node12</title>
<g id="a_node12"><a xlink:href="_o_m_sim__radioactive__decays_8cc.html" target="_top" xlink:title="Main of the radioactive decay study.">
<polygon fill="white" stroke="black" points="1959.5,-0.5 1959.5,-19.5 2124.5,-19.5 2124.5,-0.5 1959.5,-0.5"/>
<text text-anchor="middle" x="2042" y="-7.5" font-family="Helvetica,sans-Serif" font-size="10.00">OMSim_radioactive_decays.cc</text>
</a>
</g>
</g>
<!-- Node9&#45;&gt;Node12 -->
<g id="edge11" class="edge">
<title>Node9&#45;&gt;Node12</title>
<path fill="none" stroke="midnightblue" d="M1669.77,-56.03C1738.57,-45.26 1877.33,-29.3 1964.95,-19.5"/>
<polygon fill="midnightblue" stroke="midnightblue" points="1669.06,-52.6 1659.75,-57.65 1670.18,-59.51 1669.06,-52.6"/>
</g>
<!-- Node13 -->
<g id="node13" class="node">
<title>Node13</title>
<g id="a_node13"><a xlink:href="_o_m_sim__supernova_8cc.html" target="_top" xlink:title="Main of the supernova study.">
<polygon fill="white" stroke="black" points="1578,-0.5 1578,-19.5 1700,-19.5 1700,-0.5 1578,-0.5"/>
<text text-anchor="middle" x="1639" y="-7.5" font-family="Helvetica,sans-Serif" font-size="10.00">OMSim_supernova.cc</text>
</a>
</g>
</g>
<!-- Node9&#45;&gt;Node13 -->
<g id="edge12" class="edge">
<title>Node9&#45;&gt;Node13</title>
<path fill="none" stroke="midnightblue" d="M1630.55,-46.1C1632.71,-37.14 1635.18,-26.86 1636.89,-19.75"/>
<polygon fill="midnightblue" stroke="midnightblue" points="1627.08,-45.54 1628.15,-56.08 1633.89,-47.18 1627.08,-45.54"/>
</g>
<!-- Node15&#45;&gt;Node5 -->
<g id="edge17" class="edge">
<title>Node15&#45;&gt;Node5</title>
<path fill="none" stroke="midnightblue" d="M1213.04,-55.53C1108.42,-45.32 943.37,-29.2 843.15,-19.41"/>
<polygon fill="midnightblue" stroke="midnightblue" points="1213,-59.04 1223.29,-56.53 1213.68,-52.08 1213,-59.04"/>
</g>
<!-- Node15&#45;&gt;Node11 -->
<g id="edge16" class="edge">
<title>Node15&#45;&gt;Node11</title>
<path fill="none" stroke="midnightblue" d="M1395.88,-55.34C1476.68,-46.25 1601.06,-32.24 1709,-20 1711.88,-19.67 1714.82,-19.34 1717.79,-19"/>
<polygon fill="midnightblue" stroke="midnightblue" points="1395.3,-51.89 1385.75,-56.48 1396.08,-58.84 1395.3,-51.89"/>
</g>
<!-- Node16&#45;&gt;Node6 -->
<g id="edge20" class="edge">
<title>Node16&#45;&gt;Node6</title>
<path fill="none" stroke="midnightblue" d="M1666.96,-55.87C1384.59,-34.08 1311.39,-41.85 1032,-20 1029.03,-19.77 1026,-19.52 1022.94,-19.26"/>
<polygon fill="midnightblue" stroke="midnightblue" points="1666.86,-59.37 1677.1,-56.66 1667.4,-52.39 1666.86,-59.37"/>
</g>
<!-- Node16&#45;&gt;Node12 -->
<g id="edge19" class="edge">
<title>Node16&#45;&gt;Node12</title>
<path fill="none" stroke="midnightblue" d="M1813.83,-54.54C1867.32,-44.33 1947.67,-29 1997.37,-19.52"/>
<polygon fill="midnightblue" stroke="midnightblue" points="1813.01,-51.13 1803.84,-56.44 1814.32,-58.01 1813.01,-51.13"/>
</g>
<!-- Node17&#45;&gt;Node7 -->
<g id="edge23" class="edge">
<title>Node17&#45;&gt;Node7</title>
<path fill="none" stroke="midnightblue" d="M1074.81,-58.33C1066.45,-57.55 1058.03,-56.75 1050,-56 877.57,-39.83 834.12,-39.2 662,-20 659,-19.67 655.93,-19.31 652.82,-18.94"/>
<polygon fill="midnightblue" stroke="midnightblue" points="1074.66,-61.84 1084.95,-59.29 1075.32,-54.87 1074.66,-61.84"/>
</g>
<!-- Node17&#45;&gt;Node13 -->
<g id="edge22" class="edge">
<title>Node17&#45;&gt;Node13</title>
<path fill="none" stroke="midnightblue" d="M1215.42,-55.98C1373.79,-37.91 1415.11,-37.71 1569,-20 1571.92,-19.66 1574.91,-19.31 1577.93,-18.95"/>
<polygon fill="midnightblue" stroke="midnightblue" points="1214.85,-52.53 1205.32,-57.14 1215.65,-59.48 1214.85,-52.53"/>
</g>
<!-- Node18&#45;&gt;Node4 -->
<g id="edge25" class="edge">
<title>Node18&#45;&gt;Node4</title>
<path fill="none" stroke="midnightblue" d="M577.46,-54.91C516.24,-44.71 422.66,-29.11 365.07,-19.51"/>
<polygon fill="midnightblue" stroke="midnightblue" points="576.94,-58.37 587.38,-56.56 578.09,-51.47 576.94,-58.37"/>
</g>
<!-- Node18&#45;&gt;Node5 -->
<g id="edge27" class="edge">
<title>Node18&#45;&gt;Node5</title>
<path fill="none" stroke="midnightblue" d="M666.14,-52.23C688.4,-42.13 718.86,-28.31 738.23,-19.52"/>
<polygon fill="midnightblue" stroke="midnightblue" points="664.52,-49.12 656.86,-56.44 667.41,-55.5 664.52,-49.12"/>
</g>
<!-- Node18&#45;&gt;Node6 -->
<g id="edge28" class="edge">
<title>Node18&#45;&gt;Node6</title>
<path fill="none" stroke="midnightblue" d="M696.19,-54.66C753.64,-44.46 840.45,-29.04 894.06,-19.52"/>
<polygon fill="midnightblue" stroke="midnightblue" points="695.4,-51.25 686.17,-56.44 696.63,-58.14 695.4,-51.25"/>
</g>
<!-- Node18&#45;&gt;Node7 -->
<g id="edge29" class="edge">
<title>Node18&#45;&gt;Node7</title>
<path fill="none" stroke="midnightblue" d="M623.95,-48.14C616.11,-38.74 606.67,-27.4 600.29,-19.75"/>
<polygon fill="midnightblue" stroke="midnightblue" points="621.48,-50.64 630.57,-56.08 626.86,-46.16 621.48,-50.64"/>
</g>
<!-- Node19 -->
<g id="node19" class="node">
<title>Node19</title>
<g id="a_node19"><a xlink:href="_o_m_sim_l_o_m16_8cc.html" target="_top" xlink:title=" ">
<polygon fill="white" stroke="black" points="112.5,-0.5 112.5,-19.5 211.5,-19.5 211.5,-0.5 112.5,-0.5"/>
<text text-anchor="middle" x="162" y="-7.5" font-family="Helvetica,sans-Serif" font-size="10.00">OMSimLOM16.cc</text>
</a>
</g>
</g>
<!-- Node18&#45;&gt;Node19 -->
<g id="edge26" class="edge">
<title>Node18&#45;&gt;Node19</title>
<path fill="none" stroke="midnightblue" d="M577.11,-55.95C417.61,-36.29 375.37,-39.85 220,-20 217.27,-19.65 214.47,-19.28 211.65,-18.88"/>
<polygon fill="midnightblue" stroke="midnightblue" points="576.93,-59.45 587.28,-57.22 577.79,-52.51 576.93,-59.45"/>
</g>
<!-- Node20&#45;&gt;Node4 -->
<g id="edge31" class="edge">
<title>Node20&#45;&gt;Node4</title>
<path fill="none" stroke="midnightblue" d="M696.48,-55.83C585.81,-41.02 468.98,-27.76 393.53,-19.5"/>
<polygon fill="midnightblue" stroke="midnightblue" points="696.11,-59.31 706.49,-57.18 697.04,-52.38 696.11,-59.31"/>
</g>
<!-- Node20&#45;&gt;Node5 -->
<g id="edge33" class="edge">
<title>Node20&#45;&gt;Node5</title>
<path fill="none" stroke="midnightblue" d="M757,-45.8C757,-36.91 757,-26.78 757,-19.75"/>
<polygon fill="midnightblue" stroke="midnightblue" points="753.5,-46.08 757,-56.08 760.5,-46.08 753.5,-46.08"/>
</g>
<!-- Node20&#45;&gt;Node6 -->
<g id="edge34" class="edge">
<title>Node20&#45;&gt;Node6</title>
<path fill="none" stroke="midnightblue" d="M796.17,-53.57C831.07,-43.38 881.35,-28.7 912.82,-19.52"/>
<polygon fill="midnightblue" stroke="midnightblue" points="794.93,-50.28 786.31,-56.44 796.89,-57 794.93,-50.28"/>
</g>
<!-- Node20&#45;&gt;Node7 -->
<g id="edge35" class="edge">
<title>Node20&#45;&gt;Node7</title>
<path fill="none" stroke="midnightblue" d="M721.48,-53.3C690.58,-43.13 646.53,-28.62 618.86,-19.52"/>
<polygon fill="midnightblue" stroke="midnightblue" points="720.42,-56.64 731.01,-56.44 722.61,-49.99 720.42,-56.64"/>
</g>
<!-- Node21 -->
<g id="node21" class="node">
<title>Node21</title>
<g id="a_node21"><a xlink:href="_o_m_sim_l_o_m18_8cc.html" target="_top" xlink:title=" ">
<polygon fill="white" stroke="black" points="416.5,-0.5 416.5,-19.5 515.5,-19.5 515.5,-0.5 416.5,-0.5"/>
<text text-anchor="middle" x="466" y="-7.5" font-family="Helvetica,sans-Serif" font-size="10.00">OMSimLOM18.cc</text>
</a>
</g>
</g>
<!-- Node20&#45;&gt;Node21 -->
<g id="edge32" class="edge">
<title>Node20&#45;&gt;Node21</title>
<path fill="none" stroke="midnightblue" d="M700.96,-54.6C645.96,-44.4 563.1,-29.02 511.89,-19.52"/>
<polygon fill="midnightblue" stroke="midnightblue" points="700.42,-58.06 710.89,-56.44 701.7,-51.18 700.42,-58.06"/>
</g>
<!-- Node22&#45;&gt;Node4 -->
<g id="edge37" class="edge">
<title>Node22&#45;&gt;Node4</title>
<path fill="none" stroke="midnightblue" d="M930.68,-55.94C697.81,-30.59 636.79,-38.99 407,-20 404.25,-19.77 401.46,-19.54 398.64,-19.29"/>
<polygon fill="midnightblue" stroke="midnightblue" points="930.5,-59.44 940.83,-57.06 931.27,-52.49 930.5,-59.44"/>
</g>
<!-- Node22&#45;&gt;Node5 -->
<g id="edge41" class="edge">
<title>Node22&#45;&gt;Node5</title>
<path fill="none" stroke="midnightblue" d="M944,-54.15C899.78,-43.95 834.48,-28.88 793.9,-19.52"/>
<polygon fill="midnightblue" stroke="midnightblue" points="943.39,-57.61 953.92,-56.44 944.97,-50.78 943.39,-57.61"/>
</g>
<!-- Node22&#45;&gt;Node6 -->
<g id="edge42" class="edge">
<title>Node22&#45;&gt;Node6</title>
<path fill="none" stroke="midnightblue" d="M975.97,-48.43C967.38,-38.97 956.96,-27.48 949.94,-19.75"/>
<polygon fill="midnightblue" stroke="midnightblue" points="973.6,-51.03 982.91,-56.08 978.78,-46.33 973.6,-51.03"/>
</g>
<!-- Node22&#45;&gt;Node7 -->
<g id="edge43" class="edge">
<title>Node22&#45;&gt;Node7</title>
<path fill="none" stroke="midnightblue" d="M930.83,-55.86C864.96,-46.6 730.84,-28.99 652.63,-18.77"/>
<polygon fill="midnightblue" stroke="midnightblue" points="930.41,-59.34 940.8,-57.27 931.39,-52.41 930.41,-59.34"/>
</g>
<!-- Node23 -->
<g id="node23" class="node">
<title>Node23</title>
<g id="a_node23"><a xlink:href="_o_m_sim_m_d_o_m_8cc.html" target="_top" xlink:title=" ">
<polygon fill="white" stroke="black" points="1310,-0.5 1310,-19.5 1408,-19.5 1408,-0.5 1310,-0.5"/>
<text text-anchor="middle" x="1359" y="-7.5" font-family="Helvetica,sans-Serif" font-size="10.00">OMSimMDOM.cc</text>
</a>
</g>
</g>
<!-- Node22&#45;&gt;Node23 -->
<g id="edge38" class="edge">
<title>Node22&#45;&gt;Node23</title>
<path fill="none" stroke="midnightblue" d="M1051.3,-56.43C1113.79,-47.5 1214.27,-33.02 1301,-20 1303.92,-19.56 1306.93,-19.11 1309.96,-18.64"/>
<polygon fill="midnightblue" stroke="midnightblue" points="1050.63,-52.99 1041.22,-57.86 1051.62,-59.91 1050.63,-52.99"/>
</g>
<!-- Node24 -->
<g id="node24" class="node">
<title>Node24</title>
<g id="a_node24"><a xlink:href="_o_m_sim_m_d_o_m_flasher_8cc.html" target="_top" xlink:title=" ">
<polygon fill="white" stroke="black" points="1426,-0.5 1426,-19.5 1560,-19.5 1560,-0.5 1426,-0.5"/>
<text text-anchor="middle" x="1493" y="-7.5" font-family="Helvetica,sans-Serif" font-size="10.00">OMSimMDOMFlasher.cc</text>
</a>
</g>
</g>
<!-- Node22&#45;&gt;Node24 -->
<g id="edge39" class="edge">
<title>Node22&#45;&gt;Node24</title>
<path fill="none" stroke="midnightblue" d="M1051.35,-58.61C1059.63,-57.73 1068.03,-56.84 1076,-56 1227.55,-39.98 1265.55,-36.96 1417,-20 1419.9,-19.67 1422.87,-19.34 1425.87,-19"/>
<polygon fill="midnightblue" stroke="midnightblue" points="1050.92,-55.13 1041.34,-59.67 1051.65,-62.1 1050.92,-55.13"/>
</g>
<!-- Node25 -->
<g id="node25" class="node">
<title>Node25</title>
<g id="a_node25"><a xlink:href="_o_m_sim_m_d_o_m_harness_8cc.html" target="_top" xlink:title=" ">
<polygon fill="white" stroke="black" points="1154,-0.5 1154,-19.5 1292,-19.5 1292,-0.5 1154,-0.5"/>
<text text-anchor="middle" x="1223" y="-7.5" font-family="Helvetica,sans-Serif" font-size="10.00">OMSimMDOMHarness.cc</text>
</a>
</g>
</g>
<!-- Node22&#45;&gt;Node25 -->
<g id="edge40" class="edge">
<title>Node22&#45;&gt;Node25</title>
<path fill="none" stroke="midnightblue" d="M1037.6,-54.15C1081.44,-43.95 1146.18,-28.88 1186.41,-19.52"/>
<polygon fill="midnightblue" stroke="midnightblue" points="1036.71,-50.77 1027.76,-56.44 1038.29,-57.59 1036.71,-50.77"/>
</g>
<!-- Node26&#45;&gt;Node4 -->
<g id="edge45" class="edge">
<title>Node26&#45;&gt;Node4</title>
<path fill="none" stroke="midnightblue" d="M815.07,-55.83C633.72,-33.83 585.86,-36.51 407,-20 404.25,-19.75 401.46,-19.49 398.64,-19.22"/>
<polygon fill="midnightblue" stroke="midnightblue" points="814.86,-59.33 825.21,-57.07 815.71,-52.38 814.86,-59.33"/>
</g>
<!-- Node26&#45;&gt;Node5 -->
<g id="edge47" class="edge">
<title>Node26&#45;&gt;Node5</title>
<path fill="none" stroke="midnightblue" d="M846.34,-52.23C824.45,-42.13 794.5,-28.31 775.45,-19.52"/>
<polygon fill="midnightblue" stroke="midnightblue" points="844.91,-55.43 855.46,-56.44 847.85,-49.08 844.91,-55.43"/>
</g>
<!-- Node26&#45;&gt;Node6 -->
<g id="edge48" class="edge">
<title>Node26&#45;&gt;Node6</title>
<path fill="none" stroke="midnightblue" d="M892.76,-50.1C905,-40.38 920.56,-28.03 930.88,-19.83"/>
<polygon fill="midnightblue" stroke="midnightblue" points="890.58,-47.36 884.93,-56.32 894.93,-52.85 890.58,-47.36"/>
</g>
<!-- Node26&#45;&gt;Node7 -->
<g id="edge49" class="edge">
<title>Node26&#45;&gt;Node7</title>
<path fill="none" stroke="midnightblue" d="M819.55,-54.54C766.45,-44.33 686.66,-29 637.32,-19.52"/>
<polygon fill="midnightblue" stroke="midnightblue" points="818.99,-57.99 829.47,-56.44 820.31,-51.12 818.99,-57.99"/>
</g>
<!-- Node27 -->
<g id="node27" class="node">
<title>Node27</title>
<g id="a_node27"><a xlink:href="_o_m_sim_p_d_o_m_8cc.html" target="_top" xlink:title=" ">
<polygon fill="white" stroke="black" points="1040.5,-0.5 1040.5,-19.5 1135.5,-19.5 1135.5,-0.5 1040.5,-0.5"/>
<text text-anchor="middle" x="1088" y="-7.5" font-family="Helvetica,sans-Serif" font-size="10.00">OMSimPDOM.cc</text>
</a>
</g>
</g>
<!-- Node26&#45;&gt;Node27 -->
<g id="edge46" class="edge">
<title>Node26&#45;&gt;Node27</title>
<path fill="none" stroke="midnightblue" d="M917.76,-53.96C958.17,-43.76 1017.37,-28.82 1054.25,-19.52"/>
<polygon fill="midnightblue" stroke="midnightblue" points="916.75,-50.6 907.91,-56.44 918.46,-57.39 916.75,-50.6"/>
</g>
<!-- Node29&#45;&gt;Node12 -->
<g id="edge52" class="edge">
<title>Node29&#45;&gt;Node12</title>
<path fill="none" stroke="midnightblue" d="M1870.14,-101.78C1872.01,-87.34 1876.8,-68.05 1889,-56 1908.21,-37.03 1934.98,-25.98 1960.76,-19.57"/>
<polygon fill="midnightblue" stroke="midnightblue" points="1866.62,-101.81 1869.19,-112.09 1873.59,-102.45 1866.62,-101.81"/>
</g>
<!-- Node30 -->
<g id="node30" class="node">
<title>Node30</title>
<g id="a_node30"><a xlink:href="_o_m_sim_decays_g_p_s_8cc.html" target="_top" xlink:title=" ">
<polygon fill="white" stroke="black" points="1897.5,-56.5 1897.5,-75.5 2018.5,-75.5 2018.5,-56.5 1897.5,-56.5"/>
<text text-anchor="middle" x="1958" y="-63.5" font-family="Helvetica,sans-Serif" font-size="10.00">OMSimDecaysGPS.cc</text>
</a>
</g>
</g>
<!-- Node29&#45;&gt;Node30 -->
<g id="edge53" class="edge">
<title>Node29&#45;&gt;Node30</title>
<path fill="none" stroke="midnightblue" d="M1892.24,-106.9C1908.56,-97 1929.87,-84.07 1943.74,-75.65"/>
<polygon fill="midnightblue" stroke="midnightblue" points="1890.03,-104.14 1883.3,-112.32 1893.66,-110.13 1890.03,-104.14"/>
</g>
<!-- Node31 -->
<g id="node31" class="node">
<title>Node31</title>
<g id="a_node31"><a xlink:href="_o_m_sim_g4_radioactive_decay_8cc.html" target="_top" xlink:title=" ">
<polygon fill="white" stroke="black" points="2037,-56.5 2037,-75.5 2203,-75.5 2203,-56.5 2037,-56.5"/>
<text text-anchor="middle" x="2120" y="-63.5" font-family="Helvetica,sans-Serif" font-size="10.00">OMSimG4RadioactiveDecay.cc</text>
</a>
</g>
</g>
<!-- Node29&#45;&gt;Node31 -->
<g id="edge54" class="edge">
<title>Node29&#45;&gt;Node31</title>
<path fill="none" stroke="midnightblue" d="M1918.82,-110.28C1966.25,-100.08 2036.7,-84.92 2080.41,-75.52"/>
<polygon fill="midnightblue" stroke="midnightblue" points="1917.81,-106.92 1908.77,-112.44 1919.28,-113.76 1917.81,-106.92"/>
</g>
</g>
</svg>
