<?xml version="1.0" encoding="UTF-8" standalone="no"?>
<!DOCTYPE svg PUBLIC "-//W3C//DTD SVG 1.1//EN"
 "http://www.w3.org/Graphics/SVG/1.1/DTD/svg11.dtd">
<!-- Generated by graphviz version 2.43.0 (0)
 -->
<!-- Title: OMSimMaterialHandler.hh Pages: 1 -->
<svg width="943pt" height="218pt"
 viewBox="0.00 0.00 942.50 218.00" xmlns="http://www.w3.org/2000/svg" xmlns:xlink="http://www.w3.org/1999/xlink">
<g id="graph0" class="graph" transform="scale(1 1) rotate(0) translate(4 214)">
<title>OMSimMaterialHandler.hh</title>
<!-- Node1 -->
<g id="node1" class="node">
<title>Node1</title>
<g id="a_node1"><a xlink:title="Definition of OMSimMaterialHandler and the namespaces IceProcessor and ScintillationProcessor.">
<polygon fill="#bfbfbf" stroke="black" points="319,-190.5 319,-209.5 464,-209.5 464,-190.5 319,-190.5"/>
<text text-anchor="middle" x="391.5" y="-197.5" font-family="Helvetica,sans-Serif" font-size="10.00">OMSimMaterialHandler.hh</text>
</a>
</g>
</g>
<!-- Node2 -->
<g id="node2" class="node">
<title>Node2</title>
<g id="a_node2"><a xlink:title=" ">
<polygon fill="none" stroke="#bfbfbf" points="0,-129 0,-148 107,-148 107,-129 0,-129"/>
<text text-anchor="middle" x="53.5" y="-136" font-family="Helvetica,sans-Serif" font-size="10.00">G4NistManager.hh</text>
</a>
</g>
</g>
<!-- Node1&#45;&gt;Node2 -->
<g id="edge1" class="edge">
<title>Node1&#45;&gt;Node2</title>
<path fill="none" stroke="midnightblue" d="M331.8,-190.47C275.75,-182.17 189.67,-168.7 115.5,-154 109.8,-152.87 103.83,-151.59 97.94,-150.28"/>
<polygon fill="midnightblue" stroke="midnightblue" points="98.7,-146.86 88.17,-148.05 97.14,-153.69 98.7,-146.86"/>
</g>
<!-- Node3 -->
<g id="node3" class="node">
<title>Node3</title>
<g id="a_node3"><a xlink:title=" ">
<polygon fill="none" stroke="#bfbfbf" points="125,-129 125,-148 244,-148 244,-129 125,-129"/>
<text text-anchor="middle" x="184.5" y="-136" font-family="Helvetica,sans-Serif" font-size="10.00">G4SystemOfUnits.hh</text>
</a>
</g>
</g>
<!-- Node1&#45;&gt;Node3 -->
<g id="edge2" class="edge">
<title>Node1&#45;&gt;Node3</title>
<path fill="none" stroke="midnightblue" d="M361.84,-190.48C325.57,-180.05 264.04,-162.36 223.84,-150.81"/>
<polygon fill="midnightblue" stroke="midnightblue" points="224.68,-147.41 214.1,-148.01 222.75,-154.14 224.68,-147.41"/>
</g>
<!-- Node4 -->
<g id="node4" class="node">
<title>Node4</title>
<g id="a_node4"><a xlink:title=" ">
<polygon fill="none" stroke="#bfbfbf" points="262.5,-129 262.5,-148 378.5,-148 378.5,-129 262.5,-129"/>
<text text-anchor="middle" x="320.5" y="-136" font-family="Helvetica,sans-Serif" font-size="10.00">G4OpticalSurface.hh</text>
</a>
</g>
</g>
<!-- Node1&#45;&gt;Node4 -->
<g id="edge3" class="edge">
<title>Node1&#45;&gt;Node4</title>
<path fill="none" stroke="midnightblue" d="M381.33,-190.48C370.15,-181.11 351.98,-165.88 338.41,-154.51"/>
<polygon fill="midnightblue" stroke="midnightblue" points="340.57,-151.75 330.65,-148.01 336.07,-157.11 340.57,-151.75"/>
</g>
<!-- Node5 -->
<g id="node5" class="node">
<title>Node5</title>
<g id="a_node5"><a xlink:title=" ">
<polygon fill="none" stroke="#bfbfbf" points="396.5,-129 396.5,-148 530.5,-148 530.5,-129 396.5,-129"/>
<text text-anchor="middle" x="463.5" y="-136" font-family="Helvetica,sans-Serif" font-size="10.00">G4PhysicalConstants.hh</text>
</a>
</g>
</g>
<!-- Node1&#45;&gt;Node5 -->
<g id="edge4" class="edge">
<title>Node1&#45;&gt;Node5</title>
<path fill="none" stroke="midnightblue" d="M401.82,-190.48C413.15,-181.11 431.57,-165.88 445.34,-154.51"/>
<polygon fill="midnightblue" stroke="midnightblue" points="447.72,-157.08 453.2,-148.01 443.27,-151.68 447.72,-157.08"/>
</g>
<!-- Node6 -->
<g id="node6" class="node">
<title>Node6</title>
<g id="a_node6"><a xlink:title=" ">
<polygon fill="none" stroke="#bfbfbf" points="549,-123.5 549,-153.5 662,-153.5 662,-123.5 549,-123.5"/>
<text text-anchor="start" x="557" y="-141.5" font-family="Helvetica,sans-Serif" font-size="10.00">boost/property_tree</text>
<text text-anchor="middle" x="605.5" y="-130.5" font-family="Helvetica,sans-Serif" font-size="10.00">/json_parser.hpp</text>
</a>
</g>
</g>
<!-- Node1&#45;&gt;Node6 -->
<g id="edge5" class="edge">
<title>Node1&#45;&gt;Node6</title>
<path fill="none" stroke="midnightblue" d="M422.16,-190.48C454.19,-181.57 505.27,-167.37 545.38,-156.22"/>
<polygon fill="midnightblue" stroke="midnightblue" points="546.37,-159.57 555.06,-153.52 544.49,-152.83 546.37,-159.57"/>
</g>
<!-- Node7 -->
<g id="node7" class="node">
<title>Node7</title>
<g id="a_node7"><a xlink:href="_o_m_sim_command_args_table_8hh.html" target="_top" xlink:title="Definition of the OMSimCommandArgsTable singleton class, which controls user args.">
<polygon fill="none" stroke="black" points="680.5,-129 680.5,-148 844.5,-148 844.5,-129 680.5,-129"/>
<text text-anchor="middle" x="762.5" y="-136" font-family="Helvetica,sans-Serif" font-size="10.00">OMSimCommandArgsTable.hh</text>
</a>
</g>
</g>
<!-- Node1&#45;&gt;Node7 -->
<g id="edge6" class="edge">
<title>Node1&#45;&gt;Node7</title>
<path fill="none" stroke="midnightblue" d="M444.66,-190.48C511.88,-179.69 627.48,-161.15 699.19,-149.65"/>
<polygon fill="midnightblue" stroke="midnightblue" points="700.12,-153.05 709.44,-148.01 699.02,-146.14 700.12,-153.05"/>
</g>
<!-- Node8 -->
<g id="node8" class="node">
<title>Node8</title>
<g id="a_node8"><a xlink:href="_o_m_sim_logger_8hh_source.html" target="_top" xlink:title=" ">
<polygon fill="none" stroke="black" points="574,-67.5 574,-86.5 673,-86.5 673,-67.5 574,-67.5"/>
<text text-anchor="middle" x="623.5" y="-74.5" font-family="Helvetica,sans-Serif" font-size="10.00">OMSimLogger.hh</text>
</a>
</g>
</g>
<!-- Node7&#45;&gt;Node8 -->
<g id="edge7" class="edge">
<title>Node7&#45;&gt;Node8</title>
<path fill="none" stroke="midnightblue" d="M742.58,-128.98C719.05,-118.9 679.69,-102.05 652.71,-90.5"/>
<polygon fill="midnightblue" stroke="midnightblue" points="653.95,-87.23 643.38,-86.51 651.19,-93.66 653.95,-87.23"/>
</g>
<!-- Node13 -->
<g id="node13" class="node">
<title>Node13</title>
<g id="a_node13"><a xlink:title=" ">
<polygon fill="none" stroke="#bfbfbf" points="691,-67.5 691,-86.5 746,-86.5 746,-67.5 691,-67.5"/>
<text text-anchor="middle" x="718.5" y="-74.5" font-family="Helvetica,sans-Serif" font-size="10.00">fstream</text>
</a>
</g>
</g>
<!-- Node7&#45;&gt;Node13 -->
<g id="edge12" class="edge">
<title>Node7&#45;&gt;Node13</title>
<path fill="none" stroke="midnightblue" d="M756.2,-128.98C749.6,-120.05 739.06,-105.81 730.81,-94.64"/>
<polygon fill="midnightblue" stroke="midnightblue" points="733.55,-92.47 724.79,-86.51 727.92,-96.63 733.55,-92.47"/>
</g>
<!-- Node14 -->
<g id="node14" class="node">
<title>Node14</title>
<g id="a_node14"><a xlink:title=" ">
<polygon fill="none" stroke="#bfbfbf" points="764.5,-67.5 764.5,-86.5 848.5,-86.5 848.5,-67.5 764.5,-67.5"/>
<text text-anchor="middle" x="806.5" y="-74.5" font-family="Helvetica,sans-Serif" font-size="10.00">boost/any.hpp</text>
</a>
</g>
</g>
<!-- Node7&#45;&gt;Node14 -->
<g id="edge13" class="edge">
<title>Node7&#45;&gt;Node14</title>
<path fill="none" stroke="midnightblue" d="M768.8,-128.98C775.4,-120.05 785.94,-105.81 794.19,-94.64"/>
<polygon fill="midnightblue" stroke="midnightblue" points="797.08,-96.63 800.21,-86.51 791.45,-92.47 797.08,-96.63"/>
</g>
<!-- Node15 -->
<g id="node15" class="node">
<title>Node15</title>
<g id="a_node15"><a xlink:title=" ">
<polygon fill="none" stroke="#bfbfbf" points="866.5,-67.5 866.5,-86.5 934.5,-86.5 934.5,-67.5 866.5,-67.5"/>
<text text-anchor="middle" x="900.5" y="-74.5" font-family="Helvetica,sans-Serif" font-size="10.00">sys/time.h</text>
</a>
</g>
</g>
<!-- Node7&#45;&gt;Node15 -->
<g id="edge14" class="edge">
<title>Node7&#45;&gt;Node15</title>
<path fill="none" stroke="midnightblue" d="M782.27,-128.98C805.64,-118.9 844.71,-102.05 871.5,-90.5"/>
<polygon fill="midnightblue" stroke="midnightblue" points="872.97,-93.68 880.76,-86.51 870.2,-87.25 872.97,-93.68"/>
</g>
<!-- Node9 -->
<g id="node9" class="node">
<title>Node9</title>
<g id="a_node9"><a xlink:title=" ">
<polygon fill="none" stroke="#bfbfbf" points="406,-6 406,-25 499,-25 499,-6 406,-6"/>
<text text-anchor="middle" x="452.5" y="-13" font-family="Helvetica,sans-Serif" font-size="10.00">spdlog/spdlog.h</text>
</a>
</g>
</g>
<!-- Node8&#45;&gt;Node9 -->
<g id="edge8" class="edge">
<title>Node8&#45;&gt;Node9</title>
<path fill="none" stroke="midnightblue" d="M599,-67.48C569.54,-57.22 519.92,-39.96 486.7,-28.4"/>
<polygon fill="midnightblue" stroke="midnightblue" points="487.55,-24.99 476.95,-25.01 485.25,-31.6 487.55,-24.99"/>
</g>
<!-- Node10 -->
<g id="node10" class="node">
<title>Node10</title>
<g id="a_node10"><a xlink:title=" ">
<polygon fill="none" stroke="#bfbfbf" points="517,-0.5 517,-30.5 628,-30.5 628,-0.5 517,-0.5"/>
<text text-anchor="start" x="525" y="-18.5" font-family="Helvetica,sans-Serif" font-size="10.00">spdlog/sinks/stdout</text>
<text text-anchor="middle" x="572.5" y="-7.5" font-family="Helvetica,sans-Serif" font-size="10.00">_color_sinks.h</text>
</a>
</g>
</g>
<!-- Node8&#45;&gt;Node10 -->
<g id="edge9" class="edge">
<title>Node8&#45;&gt;Node10</title>
<path fill="none" stroke="midnightblue" d="M616.19,-67.48C609.67,-59.87 599.84,-48.4 591.16,-38.26"/>
<polygon fill="midnightblue" stroke="midnightblue" points="593.69,-35.84 584.52,-30.52 588.37,-40.39 593.69,-35.84"/>
</g>
<!-- Node11 -->
<g id="node11" class="node">
<title>Node11</title>
<g id="a_node11"><a xlink:title=" ">
<polygon fill="none" stroke="#bfbfbf" points="646.5,-6 646.5,-25 704.5,-25 704.5,-6 646.5,-6"/>
<text text-anchor="middle" x="675.5" y="-13" font-family="Helvetica,sans-Serif" font-size="10.00">memory</text>
</a>
</g>
</g>
<!-- Node8&#45;&gt;Node11 -->
<g id="edge10" class="edge">
<title>Node8&#45;&gt;Node11</title>
<path fill="none" stroke="midnightblue" d="M630.95,-67.48C638.83,-58.46 651.44,-44.02 661.24,-32.81"/>
<polygon fill="midnightblue" stroke="midnightblue" points="664.12,-34.84 668.06,-25.01 658.85,-30.24 664.12,-34.84"/>
</g>
<!-- Node12 -->
<g id="node12" class="node">
<title>Node12</title>
<g id="a_node12"><a xlink:title=" ">
<polygon fill="none" stroke="#bfbfbf" points="722.5,-6 722.5,-25 820.5,-25 820.5,-6 722.5,-6"/>
<text text-anchor="middle" x="771.5" y="-13" font-family="Helvetica,sans-Serif" font-size="10.00">spdlog/fmt/fmt.h</text>
</a>
</g>
</g>
<!-- Node8&#45;&gt;Node12 -->
<g id="edge11" class="edge">
<title>Node8&#45;&gt;Node12</title>
<path fill="none" stroke="midnightblue" d="M644.7,-67.48C669.87,-57.36 712.04,-40.4 740.78,-28.85"/>
<polygon fill="midnightblue" stroke="midnightblue" points="742.36,-31.99 750.33,-25.01 739.75,-25.49 742.36,-31.99"/>
</g>
</g>
</svg>
