<?xml version="1.0" encoding="UTF-8" standalone="no"?>
<!DOCTYPE svg PUBLIC "-//W3C//DTD SVG 1.1//EN"
 "http://www.w3.org/Graphics/SVG/1.1/DTD/svg11.dtd">
<!-- Generated by graphviz version 2.43.0 (0)
 -->
<!-- Title: OMSimDecaysGPS.cc Pages: 1 -->
<svg width="1460pt" height="442pt"
 viewBox="0.00 0.00 1460.00 442.00" xmlns="http://www.w3.org/2000/svg" xmlns:xlink="http://www.w3.org/1999/xlink">
<g id="graph0" class="graph" transform="scale(1 1) rotate(0) translate(4 438)">
<title>OMSimDecaysGPS.cc</title>
<polygon fill="white" stroke="transparent" points="-4,4 -4,-438 1456,-438 1456,4 -4,4"/>
<!-- Node1 -->
<g id="node1" class="node">
<title>Node1</title>
<g id="a_node1"><a xlink:title=" ">
<polygon fill="#bfbfbf" stroke="black" points="1099,-414.5 1099,-433.5 1220,-433.5 1220,-414.5 1099,-414.5"/>
<text text-anchor="middle" x="1159.5" y="-421.5" font-family="Helvetica,sans-Serif" font-size="10.00">OMSimDecaysGPS.cc</text>
</a>
</g>
</g>
<!-- Node2 -->
<g id="node2" class="node">
<title>Node2</title>
<g id="a_node2"><a xlink:href="_o_m_sim_decays_g_p_s_8hh.html" target="_top" xlink:title="Defines the OMSimDecaysGPS class for the radioactive decays simulation.">
<polygon fill="white" stroke="black" points="781.5,-358.5 781.5,-377.5 903.5,-377.5 903.5,-358.5 781.5,-358.5"/>
<text text-anchor="middle" x="842.5" y="-365.5" font-family="Helvetica,sans-Serif" font-size="10.00">OMSimDecaysGPS.hh</text>
</a>
</g>
</g>
<!-- Node1&#45;&gt;Node2 -->
<g id="edge1" class="edge">
<title>Node1&#45;&gt;Node2</title>
<path fill="none" stroke="midnightblue" d="M1109.27,-414.44C1053.16,-404.89 962.37,-389.42 902.55,-379.23"/>
<polygon fill="midnightblue" stroke="midnightblue" points="902.94,-375.75 892.49,-377.52 901.76,-382.65 902.94,-375.75"/>
</g>
<!-- Node6 -->
<g id="node6" class="node">
<title>Node6</title>
<g id="a_node6"><a xlink:href="_o_m_sim_logger_8hh.html" target="_top" xlink:title=" ">
<polygon fill="white" stroke="black" points="1151,-73 1151,-92 1250,-92 1250,-73 1151,-73"/>
<text text-anchor="middle" x="1200.5" y="-80" font-family="Helvetica,sans-Serif" font-size="10.00">OMSimLogger.hh</text>
</a>
</g>
</g>
<!-- Node1&#45;&gt;Node6 -->
<g id="edge33" class="edge">
<title>Node1&#45;&gt;Node6</title>
<path fill="none" stroke="midnightblue" d="M1210.88,-414.41C1264.39,-402.17 1340.5,-374.04 1340.5,-313 1340.5,-313 1340.5,-313 1340.5,-199 1340.5,-145.33 1278.51,-111.94 1237.03,-95.61"/>
<polygon fill="midnightblue" stroke="midnightblue" points="1238.09,-92.27 1227.49,-92.01 1235.61,-98.82 1238.09,-92.27"/>
</g>
<!-- Node12 -->
<g id="node12" class="node">
<title>Node12</title>
<g id="a_node12"><a xlink:title=" ">
<polygon fill="white" stroke="#bfbfbf" points="849,-73 849,-92 968,-92 968,-73 849,-73"/>
<text text-anchor="middle" x="908.5" y="-80" font-family="Helvetica,sans-Serif" font-size="10.00">G4SystemOfUnits.hh</text>
</a>
</g>
</g>
<!-- Node1&#45;&gt;Node12 -->
<g id="edge41" class="edge">
<title>Node1&#45;&gt;Node12</title>
<path fill="none" stroke="midnightblue" d="M1122.29,-414.42C1075.87,-401.26 1002.5,-371.24 1002.5,-313 1002.5,-313 1002.5,-313 1002.5,-199 1002.5,-168.9 1001.26,-158.3 983.5,-134 971.76,-117.94 953.27,-105.41 937.59,-96.85"/>
<polygon fill="midnightblue" stroke="midnightblue" points="938.76,-93.51 928.27,-92.03 935.55,-99.73 938.76,-93.51"/>
</g>
<!-- Node30 -->
<g id="node30" class="node">
<title>Node30</title>
<g id="a_node30"><a xlink:href="_o_m_sim_u_iinterface_8hh.html" target="_top" xlink:title="The OMSimUIinterface class provides a singleton interface to Geant4&#39;s UI manager.">
<polygon fill="white" stroke="black" points="1099,-302.5 1099,-321.5 1220,-321.5 1220,-302.5 1099,-302.5"/>
<text text-anchor="middle" x="1159.5" y="-309.5" font-family="Helvetica,sans-Serif" font-size="10.00">OMSimUIinterface.hh</text>
</a>
</g>
</g>
<!-- Node1&#45;&gt;Node30 -->
<g id="edge34" class="edge">
<title>Node1&#45;&gt;Node30</title>
<path fill="none" stroke="midnightblue" d="M1159.5,-414.37C1159.5,-396.62 1159.5,-355.67 1159.5,-331.6"/>
<polygon fill="midnightblue" stroke="midnightblue" points="1163,-331.59 1159.5,-321.59 1156,-331.59 1163,-331.59"/>
</g>
<!-- Node35 -->
<g id="node35" class="node">
<title>Node35</title>
<g id="a_node35"><a xlink:title=" ">
<polygon fill="white" stroke="#bfbfbf" points="1369,-358.5 1369,-377.5 1452,-377.5 1452,-358.5 1369,-358.5"/>
<text text-anchor="middle" x="1410.5" y="-365.5" font-family="Helvetica,sans-Serif" font-size="10.00">G4Poisson.hh</text>
</a>
</g>
</g>
<!-- Node1&#45;&gt;Node35 -->
<g id="edge42" class="edge">
<title>Node1&#45;&gt;Node35</title>
<path fill="none" stroke="midnightblue" d="M1199.27,-414.44C1243.06,-405.02 1313.51,-389.87 1360.88,-379.68"/>
<polygon fill="midnightblue" stroke="midnightblue" points="1361.87,-383.04 1370.91,-377.52 1360.4,-376.2 1361.87,-383.04"/>
</g>
<!-- Node3 -->
<g id="node3" class="node">
<title>Node3</title>
<g id="a_node3"><a xlink:href="_o_m_sim_optical_module_8hh.html" target="_top" xlink:title=" ">
<polygon fill="white" stroke="black" points="618,-302.5 618,-321.5 755,-321.5 755,-302.5 618,-302.5"/>
<text text-anchor="middle" x="686.5" y="-309.5" font-family="Helvetica,sans-Serif" font-size="10.00">OMSimOpticalModule.hh</text>
</a>
</g>
</g>
<!-- Node2&#45;&gt;Node3 -->
<g id="edge2" class="edge">
<title>Node2&#45;&gt;Node3</title>
<path fill="none" stroke="midnightblue" d="M817.78,-358.44C791.65,-349.4 750.24,-335.06 720.92,-324.92"/>
<polygon fill="midnightblue" stroke="midnightblue" points="721.7,-321.48 711.1,-321.52 719.41,-328.1 721.7,-321.48"/>
</g>
<!-- Node29 -->
<g id="node29" class="node">
<title>Node29</title>
<g id="a_node29"><a xlink:title=" ">
<polygon fill="white" stroke="#bfbfbf" points="809,-302.5 809,-321.5 876,-321.5 876,-302.5 809,-302.5"/>
<text text-anchor="middle" x="842.5" y="-309.5" font-family="Helvetica,sans-Serif" font-size="10.00">globals.hh</text>
</a>
</g>
</g>
<!-- Node2&#45;&gt;Node29 -->
<g id="edge32" class="edge">
<title>Node2&#45;&gt;Node29</title>
<path fill="none" stroke="midnightblue" d="M842.5,-358.08C842.5,-351.01 842.5,-340.86 842.5,-331.99"/>
<polygon fill="midnightblue" stroke="midnightblue" points="846,-331.75 842.5,-321.75 839,-331.75 846,-331.75"/>
</g>
<!-- Node4 -->
<g id="node4" class="node">
<title>Node4</title>
<g id="a_node4"><a xlink:href="abc_detector_component_8hh.html" target="_top" xlink:title="Provides helper base class abcDetectorComponent for constructing and managing detector components in ...">
<polygon fill="white" stroke="black" points="351,-190.5 351,-209.5 498,-209.5 498,-190.5 351,-190.5"/>
<text text-anchor="middle" x="424.5" y="-197.5" font-family="Helvetica,sans-Serif" font-size="10.00">abcDetectorComponent.hh</text>
</a>
</g>
</g>
<!-- Node3&#45;&gt;Node4 -->
<g id="edge3" class="edge">
<title>Node3&#45;&gt;Node4</title>
<path fill="none" stroke="midnightblue" d="M661.94,-302.36C637.55,-293.65 599.17,-279.58 566.5,-266 525.97,-249.15 479.9,-227.61 451.52,-214.06"/>
<polygon fill="midnightblue" stroke="midnightblue" points="452.79,-210.78 442.25,-209.62 449.76,-217.1 452.79,-210.78"/>
</g>
<!-- Node18 -->
<g id="node18" class="node">
<title>Node18</title>
<g id="a_node18"><a xlink:href="_o_m_sim_hit_manager_8hh.html" target="_top" xlink:title="Defines structures and classes related to optical module photon hit management.">
<polygon fill="white" stroke="black" points="806,-246.5 806,-265.5 929,-265.5 929,-246.5 806,-246.5"/>
<text text-anchor="middle" x="867.5" y="-253.5" font-family="Helvetica,sans-Serif" font-size="10.00">OMSimHitManager.hh</text>
</a>
</g>
</g>
<!-- Node3&#45;&gt;Node18 -->
<g id="edge17" class="edge">
<title>Node3&#45;&gt;Node18</title>
<path fill="none" stroke="midnightblue" d="M715.18,-302.44C746.03,-293.24 795.23,-278.56 829.33,-268.39"/>
<polygon fill="midnightblue" stroke="midnightblue" points="830.37,-271.73 838.95,-265.52 828.37,-265.02 830.37,-271.73"/>
</g>
<!-- Node26 -->
<g id="node26" class="node">
<title>Node26</title>
<g id="a_node26"><a xlink:href="_o_m_sim_p_m_t_construction_8hh.html" target="_top" xlink:title="Construction of the PMTs.">
<polygon fill="white" stroke="black" points="576,-246.5 576,-265.5 725,-265.5 725,-246.5 576,-246.5"/>
<text text-anchor="middle" x="650.5" y="-253.5" font-family="Helvetica,sans-Serif" font-size="10.00">OMSimPMTConstruction.hh</text>
</a>
</g>
</g>
<!-- Node3&#45;&gt;Node26 -->
<g id="edge26" class="edge">
<title>Node3&#45;&gt;Node26</title>
<path fill="none" stroke="midnightblue" d="M680.56,-302.08C675.52,-294.53 668.16,-283.49 661.99,-274.23"/>
<polygon fill="midnightblue" stroke="midnightblue" points="664.79,-272.13 656.33,-265.75 658.97,-276.01 664.79,-272.13"/>
</g>
<!-- Node5 -->
<g id="node5" class="node">
<title>Node5</title>
<g id="a_node5"><a xlink:href="_o_m_sim_input_data_8hh.html" target="_top" xlink:title="Definition of ParameterTable and InputDataManager.">
<polygon fill="white" stroke="black" points="272,-134.5 272,-153.5 387,-153.5 387,-134.5 272,-134.5"/>
<text text-anchor="middle" x="329.5" y="-141.5" font-family="Helvetica,sans-Serif" font-size="10.00">OMSimInputData.hh</text>
</a>
</g>
</g>
<!-- Node4&#45;&gt;Node5 -->
<g id="edge4" class="edge">
<title>Node4&#45;&gt;Node5</title>
<path fill="none" stroke="midnightblue" d="M409.24,-190.32C394.28,-181.82 371.25,-168.73 353.77,-158.8"/>
<polygon fill="midnightblue" stroke="midnightblue" points="355.15,-155.55 344.73,-153.65 351.69,-161.64 355.15,-155.55"/>
</g>
<!-- Node14 -->
<g id="node14" class="node">
<title>Node14</title>
<g id="a_node14"><a xlink:title=" ">
<polygon fill="white" stroke="#bfbfbf" points="405,-134.5 405,-153.5 512,-153.5 512,-134.5 405,-134.5"/>
<text text-anchor="middle" x="458.5" y="-141.5" font-family="Helvetica,sans-Serif" font-size="10.00">G4Transform3D.hh</text>
</a>
</g>
</g>
<!-- Node4&#45;&gt;Node14 -->
<g id="edge13" class="edge">
<title>Node4&#45;&gt;Node14</title>
<path fill="none" stroke="midnightblue" d="M430.11,-190.08C434.87,-182.53 441.82,-171.49 447.65,-162.23"/>
<polygon fill="midnightblue" stroke="midnightblue" points="450.62,-164.08 452.99,-153.75 444.7,-160.35 450.62,-164.08"/>
</g>
<!-- Node15 -->
<g id="node15" class="node">
<title>Node15</title>
<g id="a_node15"><a xlink:title=" ">
<polygon fill="white" stroke="#bfbfbf" points="530.5,-134.5 530.5,-153.5 638.5,-153.5 638.5,-134.5 530.5,-134.5"/>
<text text-anchor="middle" x="584.5" y="-141.5" font-family="Helvetica,sans-Serif" font-size="10.00">G4VisAttributes.hh</text>
</a>
</g>
</g>
<!-- Node4&#45;&gt;Node15 -->
<g id="edge14" class="edge">
<title>Node4&#45;&gt;Node15</title>
<path fill="none" stroke="midnightblue" d="M449.85,-190.44C476.77,-181.36 519.5,-166.94 549.59,-156.78"/>
<polygon fill="midnightblue" stroke="midnightblue" points="550.91,-160.03 559.27,-153.52 548.67,-153.4 550.91,-160.03"/>
</g>
<!-- Node16 -->
<g id="node16" class="node">
<title>Node16</title>
<g id="a_node16"><a xlink:title=" ">
<polygon fill="white" stroke="#bfbfbf" points="0,-134.5 0,-153.5 125,-153.5 125,-134.5 0,-134.5"/>
<text text-anchor="middle" x="62.5" y="-141.5" font-family="Helvetica,sans-Serif" font-size="10.00">G4SubtractionSolid.hh</text>
</a>
</g>
</g>
<!-- Node4&#45;&gt;Node16 -->
<g id="edge15" class="edge">
<title>Node4&#45;&gt;Node16</title>
<path fill="none" stroke="midnightblue" d="M367.14,-190.44C302.67,-180.83 198.1,-165.23 129.81,-155.04"/>
<polygon fill="midnightblue" stroke="midnightblue" points="130,-151.53 119.59,-153.52 128.97,-158.45 130,-151.53"/>
</g>
<!-- Node17 -->
<g id="node17" class="node">
<title>Node17</title>
<g id="a_node17"><a xlink:title=" ">
<polygon fill="white" stroke="#bfbfbf" points="143.5,-134.5 143.5,-153.5 253.5,-153.5 253.5,-134.5 143.5,-134.5"/>
<text text-anchor="middle" x="198.5" y="-141.5" font-family="Helvetica,sans-Serif" font-size="10.00">G4PVPlacement.hh</text>
</a>
</g>
</g>
<!-- Node4&#45;&gt;Node17 -->
<g id="edge16" class="edge">
<title>Node4&#45;&gt;Node17</title>
<path fill="none" stroke="midnightblue" d="M388.69,-190.44C349.51,-181.08 286.62,-166.06 243.98,-155.87"/>
<polygon fill="midnightblue" stroke="midnightblue" points="244.68,-152.44 234.14,-153.52 243.06,-159.24 244.68,-152.44"/>
</g>
<!-- Node5&#45;&gt;Node6 -->
<g id="edge5" class="edge">
<title>Node5&#45;&gt;Node6</title>
<path fill="none" stroke="midnightblue" d="M387.06,-134.9C389.91,-134.57 392.74,-134.27 395.5,-134 652.96,-108.5 718.3,-114.36 976.5,-98 1032.07,-94.48 1095.38,-90.37 1140.48,-87.43"/>
<polygon fill="midnightblue" stroke="midnightblue" points="1140.93,-90.91 1150.68,-86.76 1140.47,-83.92 1140.93,-90.91"/>
</g>
<!-- Node11 -->
<g id="node11" class="node">
<title>Node11</title>
<g id="a_node11"><a xlink:title=" ">
<polygon fill="white" stroke="#bfbfbf" points="185,-73 185,-92 328,-92 328,-73 185,-73"/>
<text text-anchor="middle" x="256.5" y="-80" font-family="Helvetica,sans-Serif" font-size="10.00">G4OpBoundaryProcess.hh</text>
</a>
</g>
</g>
<!-- Node5&#45;&gt;Node11 -->
<g id="edge10" class="edge">
<title>Node5&#45;&gt;Node11</title>
<path fill="none" stroke="midnightblue" d="M319.04,-134.48C307.55,-125.11 288.87,-109.88 274.91,-98.51"/>
<polygon fill="midnightblue" stroke="midnightblue" points="276.9,-95.61 266.94,-92.01 272.48,-101.04 276.9,-95.61"/>
</g>
<!-- Node5&#45;&gt;Node12 -->
<g id="edge11" class="edge">
<title>Node5&#45;&gt;Node12</title>
<path fill="none" stroke="midnightblue" d="M387.08,-135.02C389.92,-134.67 392.74,-134.32 395.5,-134 553.67,-115.44 739.83,-98.28 838.63,-89.54"/>
<polygon fill="midnightblue" stroke="midnightblue" points="839.13,-93.01 848.79,-88.65 838.52,-86.04 839.13,-93.01"/>
</g>
<!-- Node13 -->
<g id="node13" class="node">
<title>Node13</title>
<g id="a_node13"><a xlink:title=" ">
<polygon fill="white" stroke="#bfbfbf" points="346,-67.5 346,-97.5 459,-97.5 459,-67.5 346,-67.5"/>
<text text-anchor="start" x="354" y="-85.5" font-family="Helvetica,sans-Serif" font-size="10.00">boost/property_tree</text>
<text text-anchor="middle" x="402.5" y="-74.5" font-family="Helvetica,sans-Serif" font-size="10.00">/json_parser.hpp</text>
</a>
</g>
</g>
<!-- Node5&#45;&gt;Node13 -->
<g id="edge12" class="edge">
<title>Node5&#45;&gt;Node13</title>
<path fill="none" stroke="midnightblue" d="M339.96,-134.48C349.66,-126.57 364.49,-114.48 377.27,-104.07"/>
<polygon fill="midnightblue" stroke="midnightblue" points="379.76,-106.55 385.3,-97.52 375.33,-101.13 379.76,-106.55"/>
</g>
<!-- Node7 -->
<g id="node7" class="node">
<title>Node7</title>
<g id="a_node7"><a xlink:title=" ">
<polygon fill="white" stroke="#bfbfbf" points="982,-6 982,-25 1075,-25 1075,-6 982,-6"/>
<text text-anchor="middle" x="1028.5" y="-13" font-family="Helvetica,sans-Serif" font-size="10.00">spdlog/spdlog.h</text>
</a>
</g>
</g>
<!-- Node6&#45;&gt;Node7 -->
<g id="edge6" class="edge">
<title>Node6&#45;&gt;Node7</title>
<path fill="none" stroke="midnightblue" d="M1177.66,-72.87C1147.63,-61.52 1094.72,-41.52 1060.66,-28.65"/>
<polygon fill="midnightblue" stroke="midnightblue" points="1061.75,-25.32 1051.16,-25.06 1059.28,-31.87 1061.75,-25.32"/>
</g>
<!-- Node8 -->
<g id="node8" class="node">
<title>Node8</title>
<g id="a_node8"><a xlink:title=" ">
<polygon fill="white" stroke="#bfbfbf" points="1093,-0.5 1093,-30.5 1204,-30.5 1204,-0.5 1093,-0.5"/>
<text text-anchor="start" x="1101" y="-18.5" font-family="Helvetica,sans-Serif" font-size="10.00">spdlog/sinks/stdout</text>
<text text-anchor="middle" x="1148.5" y="-7.5" font-family="Helvetica,sans-Serif" font-size="10.00">_color_sinks.h</text>
</a>
</g>
</g>
<!-- Node6&#45;&gt;Node8 -->
<g id="edge7" class="edge">
<title>Node6&#45;&gt;Node8</title>
<path fill="none" stroke="midnightblue" d="M1193.49,-72.73C1186.53,-64.03 1175.58,-50.34 1166.22,-38.65"/>
<polygon fill="midnightblue" stroke="midnightblue" points="1168.75,-36.21 1159.77,-30.59 1163.29,-40.58 1168.75,-36.21"/>
</g>
<!-- Node9 -->
<g id="node9" class="node">
<title>Node9</title>
<g id="a_node9"><a xlink:title=" ">
<polygon fill="white" stroke="#bfbfbf" points="1222.5,-6 1222.5,-25 1280.5,-25 1280.5,-6 1222.5,-6"/>
<text text-anchor="middle" x="1251.5" y="-13" font-family="Helvetica,sans-Serif" font-size="10.00">memory</text>
</a>
</g>
</g>
<!-- Node6&#45;&gt;Node9 -->
<g id="edge8" class="edge">
<title>Node6&#45;&gt;Node9</title>
<path fill="none" stroke="midnightblue" d="M1207.38,-72.73C1215.33,-62.6 1228.6,-45.69 1238.51,-33.06"/>
<polygon fill="midnightblue" stroke="midnightblue" points="1241.31,-35.16 1244.73,-25.13 1235.8,-30.83 1241.31,-35.16"/>
</g>
<!-- Node10 -->
<g id="node10" class="node">
<title>Node10</title>
<g id="a_node10"><a xlink:title=" ">
<polygon fill="white" stroke="#bfbfbf" points="1298.5,-6 1298.5,-25 1396.5,-25 1396.5,-6 1298.5,-6"/>
<text text-anchor="middle" x="1347.5" y="-13" font-family="Helvetica,sans-Serif" font-size="10.00">spdlog/fmt/fmt.h</text>
</a>
</g>
</g>
<!-- Node6&#45;&gt;Node10 -->
<g id="edge9" class="edge">
<title>Node6&#45;&gt;Node10</title>
<path fill="none" stroke="midnightblue" d="M1220.02,-72.87C1245.28,-61.7 1289.5,-42.15 1318.64,-29.26"/>
<polygon fill="midnightblue" stroke="midnightblue" points="1320.17,-32.41 1327.9,-25.17 1317.34,-26.01 1320.17,-32.41"/>
</g>
<!-- Node19 -->
<g id="node19" class="node">
<title>Node19</title>
<g id="a_node19"><a xlink:href="_o_m_sim_p_m_t_response_8hh.html" target="_top" xlink:title="Provides simulation for PMT response. This class is responsible for transforming hits on photocathode...">
<polygon fill="white" stroke="black" points="718,-190.5 718,-209.5 853,-209.5 853,-190.5 718,-190.5"/>
<text text-anchor="middle" x="785.5" y="-197.5" font-family="Helvetica,sans-Serif" font-size="10.00">OMSimPMTResponse.hh</text>
</a>
</g>
</g>
<!-- Node18&#45;&gt;Node19 -->
<g id="edge18" class="edge">
<title>Node18&#45;&gt;Node19</title>
<path fill="none" stroke="midnightblue" d="M854.33,-246.32C841.65,-237.98 822.27,-225.21 807.29,-215.35"/>
<polygon fill="midnightblue" stroke="midnightblue" points="808.92,-212.23 798.64,-209.65 805.07,-218.08 808.92,-212.23"/>
</g>
<!-- Node24 -->
<g id="node24" class="node">
<title>Node24</title>
<g id="a_node24"><a xlink:title=" ">
<polygon fill="white" stroke="#bfbfbf" points="871,-190.5 871,-209.5 974,-209.5 974,-190.5 871,-190.5"/>
<text text-anchor="middle" x="922.5" y="-197.5" font-family="Helvetica,sans-Serif" font-size="10.00">G4ThreeVector.hh</text>
</a>
</g>
</g>
<!-- Node18&#45;&gt;Node24 -->
<g id="edge24" class="edge">
<title>Node18&#45;&gt;Node24</title>
<path fill="none" stroke="midnightblue" d="M876.58,-246.08C884.67,-238.14 896.7,-226.34 906.41,-216.8"/>
<polygon fill="midnightblue" stroke="midnightblue" points="908.9,-219.25 913.59,-209.75 904,-214.26 908.9,-219.25"/>
</g>
<!-- Node25 -->
<g id="node25" class="node">
<title>Node25</title>
<g id="a_node25"><a xlink:title=" ">
<polygon fill="white" stroke="#bfbfbf" points="1031,-190.5 1031,-209.5 1086,-209.5 1086,-190.5 1031,-190.5"/>
<text text-anchor="middle" x="1058.5" y="-197.5" font-family="Helvetica,sans-Serif" font-size="10.00">fstream</text>
</a>
</g>
</g>
<!-- Node18&#45;&gt;Node25 -->
<g id="edge25" class="edge">
<title>Node18&#45;&gt;Node25</title>
<path fill="none" stroke="midnightblue" d="M897.76,-246.44C931.22,-236.98 985.15,-221.74 1021.2,-211.55"/>
<polygon fill="midnightblue" stroke="midnightblue" points="1022.19,-214.9 1030.86,-208.82 1020.28,-208.17 1022.19,-214.9"/>
</g>
<!-- Node19&#45;&gt;Node12 -->
<g id="edge19" class="edge">
<title>Node19&#45;&gt;Node12</title>
<path fill="none" stroke="midnightblue" d="M825.19,-190.46C846.73,-183.89 872.2,-172.67 888.5,-154 901.02,-139.65 905.74,-117.99 907.5,-102.46"/>
<polygon fill="midnightblue" stroke="midnightblue" points="910.99,-102.69 908.32,-92.43 904.01,-102.11 910.99,-102.69"/>
</g>
<!-- Node20 -->
<g id="node20" class="node">
<title>Node20</title>
<g id="a_node20"><a xlink:title=" ">
<polygon fill="white" stroke="#bfbfbf" points="807,-134.5 807,-153.5 880,-153.5 880,-134.5 807,-134.5"/>
<text text-anchor="middle" x="843.5" y="-141.5" font-family="Helvetica,sans-Serif" font-size="10.00">G4Types.hh</text>
</a>
</g>
</g>
<!-- Node19&#45;&gt;Node20 -->
<g id="edge20" class="edge">
<title>Node19&#45;&gt;Node20</title>
<path fill="none" stroke="midnightblue" d="M794.82,-190.32C803.39,-182.34 816.31,-170.31 826.69,-160.65"/>
<polygon fill="midnightblue" stroke="midnightblue" points="829.08,-163.21 834.01,-153.83 824.31,-158.09 829.08,-163.21"/>
</g>
<!-- Node21 -->
<g id="node21" class="node">
<title>Node21</title>
<g id="a_node21"><a xlink:title=" ">
<polygon fill="white" stroke="#bfbfbf" points="936.5,-134.5 936.5,-153.5 974.5,-153.5 974.5,-134.5 936.5,-134.5"/>
<text text-anchor="middle" x="955.5" y="-141.5" font-family="Helvetica,sans-Serif" font-size="10.00">map</text>
</a>
</g>
</g>
<!-- Node19&#45;&gt;Node21 -->
<g id="edge21" class="edge">
<title>Node19&#45;&gt;Node21</title>
<path fill="none" stroke="midnightblue" d="M812.44,-190.44C843.53,-180.57 894.47,-164.39 926.43,-154.23"/>
<polygon fill="midnightblue" stroke="midnightblue" points="927.62,-157.53 936.09,-151.16 925.5,-150.86 927.62,-157.53"/>
</g>
<!-- Node22 -->
<g id="node22" class="node">
<title>Node22</title>
<g id="a_node22"><a xlink:title=" ">
<polygon fill="white" stroke="#bfbfbf" points="657,-134.5 657,-153.5 718,-153.5 718,-134.5 657,-134.5"/>
<text text-anchor="middle" x="687.5" y="-141.5" font-family="Helvetica,sans-Serif" font-size="10.00">TGraph.h</text>
</a>
</g>
</g>
<!-- Node19&#45;&gt;Node22 -->
<g id="edge22" class="edge">
<title>Node19&#45;&gt;Node22</title>
<path fill="none" stroke="midnightblue" d="M769.75,-190.32C754.18,-181.74 730.12,-168.49 712.04,-158.52"/>
<polygon fill="midnightblue" stroke="midnightblue" points="713.65,-155.42 703.21,-153.65 710.28,-161.55 713.65,-155.42"/>
</g>
<!-- Node23 -->
<g id="node23" class="node">
<title>Node23</title>
<g id="a_node23"><a xlink:title=" ">
<polygon fill="white" stroke="#bfbfbf" points="736,-134.5 736,-153.5 789,-153.5 789,-134.5 736,-134.5"/>
<text text-anchor="middle" x="762.5" y="-141.5" font-family="Helvetica,sans-Serif" font-size="10.00">TH2D.h</text>
</a>
</g>
</g>
<!-- Node19&#45;&gt;Node23 -->
<g id="edge23" class="edge">
<title>Node19&#45;&gt;Node23</title>
<path fill="none" stroke="midnightblue" d="M781.7,-190.08C778.59,-182.77 774.08,-172.18 770.21,-163.1"/>
<polygon fill="midnightblue" stroke="midnightblue" points="773.37,-161.58 766.23,-153.75 766.93,-164.32 773.37,-161.58"/>
</g>
<!-- Node26&#45;&gt;Node4 -->
<g id="edge27" class="edge">
<title>Node26&#45;&gt;Node4</title>
<path fill="none" stroke="midnightblue" d="M614.69,-246.44C575.51,-237.08 512.62,-222.06 469.98,-211.87"/>
<polygon fill="midnightblue" stroke="midnightblue" points="470.68,-208.44 460.14,-209.52 469.06,-215.24 470.68,-208.44"/>
</g>
<!-- Node26&#45;&gt;Node19 -->
<g id="edge29" class="edge">
<title>Node26&#45;&gt;Node19</title>
<path fill="none" stroke="midnightblue" d="M671.89,-246.44C694.21,-237.52 729.4,-223.44 754.71,-213.32"/>
<polygon fill="midnightblue" stroke="midnightblue" points="756.22,-216.48 764.21,-209.52 753.62,-209.98 756.22,-216.48"/>
</g>
<!-- Node26&#45;&gt;Node26 -->
<g id="edge28" class="edge">
<title>Node26&#45;&gt;Node26</title>
<path fill="none" stroke="midnightblue" d="M689.95,-265.53C716.76,-268.31 743,-265.13 743,-256 743,-248.01 722.91,-244.58 699.93,-245.71"/>
<polygon fill="midnightblue" stroke="midnightblue" points="699.65,-242.22 689.95,-246.47 700.19,-249.2 699.65,-242.22"/>
</g>
<!-- Node27 -->
<g id="node27" class="node">
<title>Node27</title>
<g id="a_node27"><a xlink:title=" ">
<polygon fill="white" stroke="#bfbfbf" points="601.5,-190.5 601.5,-209.5 699.5,-209.5 699.5,-190.5 601.5,-190.5"/>
<text text-anchor="middle" x="650.5" y="-197.5" font-family="Helvetica,sans-Serif" font-size="10.00">G4UnionSolid.hh</text>
</a>
</g>
</g>
<!-- Node26&#45;&gt;Node27 -->
<g id="edge30" class="edge">
<title>Node26&#45;&gt;Node27</title>
<path fill="none" stroke="midnightblue" d="M650.5,-246.08C650.5,-239.01 650.5,-228.86 650.5,-219.99"/>
<polygon fill="midnightblue" stroke="midnightblue" points="654,-219.75 650.5,-209.75 647,-219.75 654,-219.75"/>
</g>
<!-- Node28 -->
<g id="node28" class="node">
<title>Node28</title>
<g id="a_node28"><a xlink:title=" ">
<polygon fill="white" stroke="#bfbfbf" points="516,-190.5 516,-209.5 583,-209.5 583,-190.5 516,-190.5"/>
<text text-anchor="middle" x="549.5" y="-197.5" font-family="Helvetica,sans-Serif" font-size="10.00">G4Tubs.hh</text>
</a>
</g>
</g>
<!-- Node26&#45;&gt;Node28 -->
<g id="edge31" class="edge">
<title>Node26&#45;&gt;Node28</title>
<path fill="none" stroke="midnightblue" d="M634.27,-246.32C618.15,-237.7 593.2,-224.36 574.54,-214.39"/>
<polygon fill="midnightblue" stroke="midnightblue" points="576.16,-211.28 565.69,-209.65 572.86,-217.46 576.16,-211.28"/>
</g>
<!-- Node31 -->
<g id="node31" class="node">
<title>Node31</title>
<g id="a_node31"><a xlink:href="_o_m_sim_command_args_table_8hh.html" target="_top" xlink:title="Definition of the OMSimCommandArgsTable singleton class, which controls user args.">
<polygon fill="white" stroke="black" points="1146.5,-246.5 1146.5,-265.5 1310.5,-265.5 1310.5,-246.5 1146.5,-246.5"/>
<text text-anchor="middle" x="1228.5" y="-253.5" font-family="Helvetica,sans-Serif" font-size="10.00">OMSimCommandArgsTable.hh</text>
</a>
</g>
</g>
<!-- Node30&#45;&gt;Node31 -->
<g id="edge35" class="edge">
<title>Node30&#45;&gt;Node31</title>
<path fill="none" stroke="midnightblue" d="M1170.59,-302.32C1180.99,-294.18 1196.76,-281.84 1209.22,-272.09"/>
<polygon fill="midnightblue" stroke="midnightblue" points="1211.49,-274.75 1217.21,-265.83 1207.18,-269.24 1211.49,-274.75"/>
</g>
<!-- Node34 -->
<g id="node34" class="node">
<title>Node34</title>
<g id="a_node34"><a xlink:title=" ">
<polygon fill="white" stroke="#bfbfbf" points="1030.5,-246.5 1030.5,-265.5 1128.5,-265.5 1128.5,-246.5 1030.5,-246.5"/>
<text text-anchor="middle" x="1079.5" y="-253.5" font-family="Helvetica,sans-Serif" font-size="10.00">G4UImanager.hh</text>
</a>
</g>
</g>
<!-- Node30&#45;&gt;Node34 -->
<g id="edge40" class="edge">
<title>Node30&#45;&gt;Node34</title>
<path fill="none" stroke="midnightblue" d="M1146.65,-302.32C1134.28,-293.98 1115.37,-281.21 1100.76,-271.35"/>
<polygon fill="midnightblue" stroke="midnightblue" points="1102.57,-268.35 1092.32,-265.65 1098.65,-274.15 1102.57,-268.35"/>
</g>
<!-- Node31&#45;&gt;Node6 -->
<g id="edge36" class="edge">
<title>Node31&#45;&gt;Node6</title>
<path fill="none" stroke="midnightblue" d="M1226.65,-246.4C1224.74,-237.36 1221.72,-222.71 1219.5,-210 1212.82,-171.85 1206.43,-126.98 1203.03,-102.24"/>
<polygon fill="midnightblue" stroke="midnightblue" points="1206.46,-101.55 1201.65,-92.11 1199.53,-102.49 1206.46,-101.55"/>
</g>
<!-- Node31&#45;&gt;Node25 -->
<g id="edge37" class="edge">
<title>Node31&#45;&gt;Node25</title>
<path fill="none" stroke="midnightblue" d="M1201.56,-246.44C1172.84,-237.32 1127.17,-222.81 1095.18,-212.65"/>
<polygon fill="midnightblue" stroke="midnightblue" points="1095.9,-209.21 1085.31,-209.52 1093.78,-215.88 1095.9,-209.21"/>
</g>
<!-- Node32 -->
<g id="node32" class="node">
<title>Node32</title>
<g id="a_node32"><a xlink:title=" ">
<polygon fill="white" stroke="#bfbfbf" points="1228.5,-190.5 1228.5,-209.5 1312.5,-209.5 1312.5,-190.5 1228.5,-190.5"/>
<text text-anchor="middle" x="1270.5" y="-197.5" font-family="Helvetica,sans-Serif" font-size="10.00">boost/any.hpp</text>
</a>
</g>
</g>
<!-- Node31&#45;&gt;Node32 -->
<g id="edge38" class="edge">
<title>Node31&#45;&gt;Node32</title>
<path fill="none" stroke="midnightblue" d="M1235.44,-246.08C1241.43,-238.38 1250.25,-227.03 1257.55,-217.65"/>
<polygon fill="midnightblue" stroke="midnightblue" points="1260.32,-219.79 1263.69,-209.75 1254.79,-215.5 1260.32,-219.79"/>
</g>
<!-- Node33 -->
<g id="node33" class="node">
<title>Node33</title>
<g id="a_node33"><a xlink:title=" ">
<polygon fill="white" stroke="#bfbfbf" points="1104.5,-190.5 1104.5,-209.5 1172.5,-209.5 1172.5,-190.5 1104.5,-190.5"/>
<text text-anchor="middle" x="1138.5" y="-197.5" font-family="Helvetica,sans-Serif" font-size="10.00">sys/time.h</text>
</a>
</g>
</g>
<!-- Node31&#45;&gt;Node33 -->
<g id="edge39" class="edge">
<title>Node31&#45;&gt;Node33</title>
<path fill="none" stroke="midnightblue" d="M1214.04,-246.32C1200,-237.9 1178.45,-224.97 1161.96,-215.07"/>
<polygon fill="midnightblue" stroke="midnightblue" points="1163.3,-211.8 1152.92,-209.65 1159.7,-217.8 1163.3,-211.8"/>
</g>
</g>
</svg>
