<?xml version="1.0" encoding="UTF-8" standalone="no"?>
<!DOCTYPE svg PUBLIC "-//W3C//DTD SVG 1.1//EN"
 "http://www.w3.org/Graphics/SVG/1.1/DTD/svg11.dtd">
<!-- Generated by graphviz version 2.43.0 (0)
 -->
<!-- Title: OMSimMDOM.hh Pages: 1 -->
<svg width="1025pt" height="386pt"
 viewBox="0.00 0.00 1024.50 386.00" xmlns="http://www.w3.org/2000/svg" xmlns:xlink="http://www.w3.org/1999/xlink">
<g id="graph0" class="graph" transform="scale(1 1) rotate(0) translate(4 382)">
<title>OMSimMDOM.hh</title>
<polygon fill="white" stroke="transparent" points="-4,4 -4,-382 1020.5,-382 1020.5,4 -4,4"/>
<!-- Node1 -->
<g id="node1" class="node">
<title>Node1</title>
<g id="a_node1"><a xlink:title="Construction of mDOM.">
<polygon fill="#bfbfbf" stroke="black" points="491.5,-358.5 491.5,-377.5 591.5,-377.5 591.5,-358.5 491.5,-358.5"/>
<text text-anchor="middle" x="541.5" y="-365.5" font-family="Helvetica,sans-Serif" font-size="10.00">OMSimMDOM.hh</text>
</a>
</g>
</g>
<!-- Node2 -->
<g id="node2" class="node">
<title>Node2</title>
<g id="a_node2"><a xlink:href="_o_m_sim_m_d_o_m_flasher_8hh.html" target="_top" xlink:title="Defines the mDOMFlasher class for simulating the 10 flashers in an mDOM optical module.">
<polygon fill="white" stroke="black" points="615,-246.5 615,-265.5 750,-265.5 750,-246.5 615,-246.5"/>
<text text-anchor="middle" x="682.5" y="-253.5" font-family="Helvetica,sans-Serif" font-size="10.00">OMSimMDOMFlasher.hh</text>
</a>
</g>
</g>
<!-- Node1&#45;&gt;Node2 -->
<g id="edge1" class="edge">
<title>Node1&#45;&gt;Node2</title>
<path fill="none" stroke="midnightblue" d="M559.42,-358.47C575.83,-350.25 600.39,-336.9 619.5,-322 638.18,-307.44 656.7,-287.49 668.78,-273.55"/>
<polygon fill="midnightblue" stroke="midnightblue" points="671.6,-275.63 675.41,-265.75 666.26,-271.1 671.6,-275.63"/>
</g>
<!-- Node19 -->
<g id="node19" class="node">
<title>Node19</title>
<g id="a_node19"><a xlink:href="_o_m_sim_p_m_t_construction_8hh.html" target="_top" xlink:title="Construction of the PMTs.">
<polygon fill="white" stroke="black" points="370,-246.5 370,-265.5 519,-265.5 519,-246.5 370,-246.5"/>
<text text-anchor="middle" x="444.5" y="-253.5" font-family="Helvetica,sans-Serif" font-size="10.00">OMSimPMTConstruction.hh</text>
</a>
</g>
</g>
<!-- Node1&#45;&gt;Node19 -->
<g id="edge18" class="edge">
<title>Node1&#45;&gt;Node19</title>
<path fill="none" stroke="midnightblue" d="M517.42,-358.43C500.35,-351.19 478.16,-339.23 464.5,-322 453.97,-308.71 448.96,-289.88 446.59,-275.9"/>
<polygon fill="midnightblue" stroke="midnightblue" points="450.05,-275.35 445.2,-265.93 443.11,-276.32 450.05,-275.35"/>
</g>
<!-- Node26 -->
<g id="node26" class="node">
<title>Node26</title>
<g id="a_node26"><a xlink:href="_o_m_sim_optical_module_8hh.html" target="_top" xlink:title=" ">
<polygon fill="white" stroke="black" points="473,-302.5 473,-321.5 610,-321.5 610,-302.5 473,-302.5"/>
<text text-anchor="middle" x="541.5" y="-309.5" font-family="Helvetica,sans-Serif" font-size="10.00">OMSimOpticalModule.hh</text>
</a>
</g>
</g>
<!-- Node1&#45;&gt;Node26 -->
<g id="edge29" class="edge">
<title>Node1&#45;&gt;Node26</title>
<path fill="none" stroke="midnightblue" d="M541.5,-358.08C541.5,-351.01 541.5,-340.86 541.5,-331.99"/>
<polygon fill="midnightblue" stroke="midnightblue" points="545,-331.75 541.5,-321.75 538,-331.75 545,-331.75"/>
</g>
<!-- Node3 -->
<g id="node3" class="node">
<title>Node3</title>
<g id="a_node3"><a xlink:href="abc_detector_component_8hh.html" target="_top" xlink:title="Provides helper base class abcDetectorComponent for constructing and managing detector components in ...">
<polygon fill="white" stroke="black" points="491,-190.5 491,-209.5 638,-209.5 638,-190.5 491,-190.5"/>
<text text-anchor="middle" x="564.5" y="-197.5" font-family="Helvetica,sans-Serif" font-size="10.00">abcDetectorComponent.hh</text>
</a>
</g>
</g>
<!-- Node2&#45;&gt;Node3 -->
<g id="edge2" class="edge">
<title>Node2&#45;&gt;Node3</title>
<path fill="none" stroke="midnightblue" d="M663.8,-246.44C644.56,-237.64 614.35,-223.81 592.3,-213.72"/>
<polygon fill="midnightblue" stroke="midnightblue" points="593.66,-210.5 583.11,-209.52 590.75,-216.86 593.66,-210.5"/>
</g>
<!-- Node17 -->
<g id="node17" class="node">
<title>Node17</title>
<g id="a_node17"><a xlink:title=" ">
<polygon fill="white" stroke="#bfbfbf" points="656.5,-190.5 656.5,-209.5 754.5,-209.5 754.5,-190.5 656.5,-190.5"/>
<text text-anchor="middle" x="705.5" y="-197.5" font-family="Helvetica,sans-Serif" font-size="10.00">G4UnionSolid.hh</text>
</a>
</g>
</g>
<!-- Node2&#45;&gt;Node17 -->
<g id="edge16" class="edge">
<title>Node2&#45;&gt;Node17</title>
<path fill="none" stroke="midnightblue" d="M686.3,-246.08C689.41,-238.77 693.92,-228.18 697.79,-219.1"/>
<polygon fill="midnightblue" stroke="midnightblue" points="701.07,-220.32 701.77,-209.75 694.63,-217.58 701.07,-220.32"/>
</g>
<!-- Node18 -->
<g id="node18" class="node">
<title>Node18</title>
<g id="a_node18"><a xlink:title=" ">
<polygon fill="white" stroke="#bfbfbf" points="772.5,-190.5 772.5,-209.5 864.5,-209.5 864.5,-190.5 772.5,-190.5"/>
<text text-anchor="middle" x="818.5" y="-197.5" font-family="Helvetica,sans-Serif" font-size="10.00">G4Navigator.hh</text>
</a>
</g>
</g>
<!-- Node2&#45;&gt;Node18 -->
<g id="edge17" class="edge">
<title>Node2&#45;&gt;Node18</title>
<path fill="none" stroke="midnightblue" d="M704.05,-246.44C726.53,-237.52 761.99,-223.44 787.48,-213.32"/>
<polygon fill="midnightblue" stroke="midnightblue" points="789.05,-216.46 797.05,-209.52 786.47,-209.95 789.05,-216.46"/>
</g>
<!-- Node4 -->
<g id="node4" class="node">
<title>Node4</title>
<g id="a_node4"><a xlink:href="_o_m_sim_input_data_8hh.html" target="_top" xlink:title="Definition of ParameterTable and InputDataManager.">
<polygon fill="white" stroke="black" points="378,-134.5 378,-153.5 493,-153.5 493,-134.5 378,-134.5"/>
<text text-anchor="middle" x="435.5" y="-141.5" font-family="Helvetica,sans-Serif" font-size="10.00">OMSimInputData.hh</text>
</a>
</g>
</g>
<!-- Node3&#45;&gt;Node4 -->
<g id="edge3" class="edge">
<title>Node3&#45;&gt;Node4</title>
<path fill="none" stroke="midnightblue" d="M544.06,-190.44C522.83,-181.56 489.4,-167.56 465.25,-157.45"/>
<polygon fill="midnightblue" stroke="midnightblue" points="466.42,-154.15 455.84,-153.52 463.72,-160.61 466.42,-154.15"/>
</g>
<!-- Node13 -->
<g id="node13" class="node">
<title>Node13</title>
<g id="a_node13"><a xlink:title=" ">
<polygon fill="white" stroke="#bfbfbf" points="511,-134.5 511,-153.5 618,-153.5 618,-134.5 511,-134.5"/>
<text text-anchor="middle" x="564.5" y="-141.5" font-family="Helvetica,sans-Serif" font-size="10.00">G4Transform3D.hh</text>
</a>
</g>
</g>
<!-- Node3&#45;&gt;Node13 -->
<g id="edge12" class="edge">
<title>Node3&#45;&gt;Node13</title>
<path fill="none" stroke="midnightblue" d="M564.5,-190.08C564.5,-183.01 564.5,-172.86 564.5,-163.99"/>
<polygon fill="midnightblue" stroke="midnightblue" points="568,-163.75 564.5,-153.75 561,-163.75 568,-163.75"/>
</g>
<!-- Node14 -->
<g id="node14" class="node">
<title>Node14</title>
<g id="a_node14"><a xlink:title=" ">
<polygon fill="white" stroke="#bfbfbf" points="636.5,-134.5 636.5,-153.5 744.5,-153.5 744.5,-134.5 636.5,-134.5"/>
<text text-anchor="middle" x="690.5" y="-141.5" font-family="Helvetica,sans-Serif" font-size="10.00">G4VisAttributes.hh</text>
</a>
</g>
</g>
<!-- Node3&#45;&gt;Node14 -->
<g id="edge13" class="edge">
<title>Node3&#45;&gt;Node14</title>
<path fill="none" stroke="midnightblue" d="M584.47,-190.44C605.11,-181.6 637.56,-167.69 661.13,-157.59"/>
<polygon fill="midnightblue" stroke="midnightblue" points="662.82,-160.67 670.63,-153.52 660.06,-154.24 662.82,-160.67"/>
</g>
<!-- Node15 -->
<g id="node15" class="node">
<title>Node15</title>
<g id="a_node15"><a xlink:title=" ">
<polygon fill="white" stroke="#bfbfbf" points="763,-134.5 763,-153.5 888,-153.5 888,-134.5 763,-134.5"/>
<text text-anchor="middle" x="825.5" y="-141.5" font-family="Helvetica,sans-Serif" font-size="10.00">G4SubtractionSolid.hh</text>
</a>
</g>
</g>
<!-- Node3&#45;&gt;Node15 -->
<g id="edge14" class="edge">
<title>Node3&#45;&gt;Node15</title>
<path fill="none" stroke="midnightblue" d="M605.86,-190.44C651.58,-180.98 725.26,-165.74 774.52,-155.55"/>
<polygon fill="midnightblue" stroke="midnightblue" points="775.25,-158.97 784.34,-153.52 773.84,-152.12 775.25,-158.97"/>
</g>
<!-- Node16 -->
<g id="node16" class="node">
<title>Node16</title>
<g id="a_node16"><a xlink:title=" ">
<polygon fill="white" stroke="#bfbfbf" points="906.5,-134.5 906.5,-153.5 1016.5,-153.5 1016.5,-134.5 906.5,-134.5"/>
<text text-anchor="middle" x="961.5" y="-141.5" font-family="Helvetica,sans-Serif" font-size="10.00">G4PVPlacement.hh</text>
</a>
</g>
</g>
<!-- Node3&#45;&gt;Node16 -->
<g id="edge15" class="edge">
<title>Node3&#45;&gt;Node16</title>
<path fill="none" stroke="midnightblue" d="M628.35,-190.48C693.24,-181.79 796.93,-167.84 896.42,-154.14"/>
<polygon fill="midnightblue" stroke="midnightblue" points="896.92,-157.61 906.34,-152.78 895.96,-150.67 896.92,-157.61"/>
</g>
<!-- Node5 -->
<g id="node5" class="node">
<title>Node5</title>
<g id="a_node5"><a xlink:href="_o_m_sim_logger_8hh.html" target="_top" xlink:title=" ">
<polygon fill="white" stroke="black" points="247,-73 247,-92 346,-92 346,-73 247,-73"/>
<text text-anchor="middle" x="296.5" y="-80" font-family="Helvetica,sans-Serif" font-size="10.00">OMSimLogger.hh</text>
</a>
</g>
</g>
<!-- Node4&#45;&gt;Node5 -->
<g id="edge4" class="edge">
<title>Node4&#45;&gt;Node5</title>
<path fill="none" stroke="midnightblue" d="M415.58,-134.48C392.05,-124.4 352.69,-107.55 325.71,-96"/>
<polygon fill="midnightblue" stroke="midnightblue" points="326.95,-92.73 316.38,-92.01 324.19,-99.16 326.95,-92.73"/>
</g>
<!-- Node10 -->
<g id="node10" class="node">
<title>Node10</title>
<g id="a_node10"><a xlink:title=" ">
<polygon fill="white" stroke="#bfbfbf" points="364,-73 364,-92 507,-92 507,-73 364,-73"/>
<text text-anchor="middle" x="435.5" y="-80" font-family="Helvetica,sans-Serif" font-size="10.00">G4OpBoundaryProcess.hh</text>
</a>
</g>
</g>
<!-- Node4&#45;&gt;Node10 -->
<g id="edge9" class="edge">
<title>Node4&#45;&gt;Node10</title>
<path fill="none" stroke="midnightblue" d="M435.5,-134.48C435.5,-126.08 435.5,-112.98 435.5,-102.16"/>
<polygon fill="midnightblue" stroke="midnightblue" points="439,-102.01 435.5,-92.01 432,-102.01 439,-102.01"/>
</g>
<!-- Node11 -->
<g id="node11" class="node">
<title>Node11</title>
<g id="a_node11"><a xlink:title=" ">
<polygon fill="white" stroke="#bfbfbf" points="87,-73 87,-92 206,-92 206,-73 87,-73"/>
<text text-anchor="middle" x="146.5" y="-80" font-family="Helvetica,sans-Serif" font-size="10.00">G4SystemOfUnits.hh</text>
</a>
</g>
</g>
<!-- Node4&#45;&gt;Node11 -->
<g id="edge10" class="edge">
<title>Node4&#45;&gt;Node11</title>
<path fill="none" stroke="midnightblue" d="M394.09,-134.48C342.37,-123.83 253.89,-105.61 197.89,-94.08"/>
<polygon fill="midnightblue" stroke="midnightblue" points="198.33,-90.6 187.83,-92.01 196.92,-97.45 198.33,-90.6"/>
</g>
<!-- Node12 -->
<g id="node12" class="node">
<title>Node12</title>
<g id="a_node12"><a xlink:title=" ">
<polygon fill="white" stroke="#bfbfbf" points="525,-67.5 525,-97.5 638,-97.5 638,-67.5 525,-67.5"/>
<text text-anchor="start" x="533" y="-85.5" font-family="Helvetica,sans-Serif" font-size="10.00">boost/property_tree</text>
<text text-anchor="middle" x="581.5" y="-74.5" font-family="Helvetica,sans-Serif" font-size="10.00">/json_parser.hpp</text>
</a>
</g>
</g>
<!-- Node4&#45;&gt;Node12 -->
<g id="edge11" class="edge">
<title>Node4&#45;&gt;Node12</title>
<path fill="none" stroke="midnightblue" d="M456.42,-134.48C477.49,-125.89 510.63,-112.38 537.51,-101.43"/>
<polygon fill="midnightblue" stroke="midnightblue" points="539.15,-104.54 547.09,-97.52 536.51,-98.06 539.15,-104.54"/>
</g>
<!-- Node6 -->
<g id="node6" class="node">
<title>Node6</title>
<g id="a_node6"><a xlink:title=" ">
<polygon fill="white" stroke="#bfbfbf" points="78,-6 78,-25 171,-25 171,-6 78,-6"/>
<text text-anchor="middle" x="124.5" y="-13" font-family="Helvetica,sans-Serif" font-size="10.00">spdlog/spdlog.h</text>
</a>
</g>
</g>
<!-- Node5&#45;&gt;Node6 -->
<g id="edge5" class="edge">
<title>Node5&#45;&gt;Node6</title>
<path fill="none" stroke="midnightblue" d="M273.66,-72.87C243.63,-61.52 190.72,-41.52 156.66,-28.65"/>
<polygon fill="midnightblue" stroke="midnightblue" points="157.75,-25.32 147.16,-25.06 155.28,-31.87 157.75,-25.32"/>
</g>
<!-- Node7 -->
<g id="node7" class="node">
<title>Node7</title>
<g id="a_node7"><a xlink:title=" ">
<polygon fill="white" stroke="#bfbfbf" points="189,-0.5 189,-30.5 300,-30.5 300,-0.5 189,-0.5"/>
<text text-anchor="start" x="197" y="-18.5" font-family="Helvetica,sans-Serif" font-size="10.00">spdlog/sinks/stdout</text>
<text text-anchor="middle" x="244.5" y="-7.5" font-family="Helvetica,sans-Serif" font-size="10.00">_color_sinks.h</text>
</a>
</g>
</g>
<!-- Node5&#45;&gt;Node7 -->
<g id="edge6" class="edge">
<title>Node5&#45;&gt;Node7</title>
<path fill="none" stroke="midnightblue" d="M289.49,-72.73C282.53,-64.03 271.58,-50.34 262.22,-38.65"/>
<polygon fill="midnightblue" stroke="midnightblue" points="264.75,-36.21 255.77,-30.59 259.29,-40.58 264.75,-36.21"/>
</g>
<!-- Node8 -->
<g id="node8" class="node">
<title>Node8</title>
<g id="a_node8"><a xlink:title=" ">
<polygon fill="white" stroke="#bfbfbf" points="318.5,-6 318.5,-25 376.5,-25 376.5,-6 318.5,-6"/>
<text text-anchor="middle" x="347.5" y="-13" font-family="Helvetica,sans-Serif" font-size="10.00">memory</text>
</a>
</g>
</g>
<!-- Node5&#45;&gt;Node8 -->
<g id="edge7" class="edge">
<title>Node5&#45;&gt;Node8</title>
<path fill="none" stroke="midnightblue" d="M303.38,-72.73C311.33,-62.6 324.6,-45.69 334.51,-33.06"/>
<polygon fill="midnightblue" stroke="midnightblue" points="337.31,-35.16 340.73,-25.13 331.8,-30.83 337.31,-35.16"/>
</g>
<!-- Node9 -->
<g id="node9" class="node">
<title>Node9</title>
<g id="a_node9"><a xlink:title=" ">
<polygon fill="white" stroke="#bfbfbf" points="394.5,-6 394.5,-25 492.5,-25 492.5,-6 394.5,-6"/>
<text text-anchor="middle" x="443.5" y="-13" font-family="Helvetica,sans-Serif" font-size="10.00">spdlog/fmt/fmt.h</text>
</a>
</g>
</g>
<!-- Node5&#45;&gt;Node9 -->
<g id="edge8" class="edge">
<title>Node5&#45;&gt;Node9</title>
<path fill="none" stroke="midnightblue" d="M316.02,-72.87C341.28,-61.7 385.5,-42.15 414.64,-29.26"/>
<polygon fill="midnightblue" stroke="midnightblue" points="416.17,-32.41 423.9,-25.17 413.34,-26.01 416.17,-32.41"/>
</g>
<!-- Node19&#45;&gt;Node3 -->
<g id="edge19" class="edge">
<title>Node19&#45;&gt;Node3</title>
<path fill="none" stroke="midnightblue" d="M463.51,-246.44C483.09,-237.64 513.81,-223.81 536.23,-213.72"/>
<polygon fill="midnightblue" stroke="midnightblue" points="537.89,-216.81 545.57,-209.52 535.02,-210.43 537.89,-216.81"/>
</g>
<!-- Node19&#45;&gt;Node17 -->
<g id="edge27" class="edge">
<title>Node19&#45;&gt;Node17</title>
<path fill="none" stroke="midnightblue" d="M485.86,-246.44C531.58,-236.98 605.26,-221.74 654.52,-211.55"/>
<polygon fill="midnightblue" stroke="midnightblue" points="655.25,-214.97 664.34,-209.52 653.84,-208.12 655.25,-214.97"/>
</g>
<!-- Node19&#45;&gt;Node19 -->
<g id="edge20" class="edge">
<title>Node19&#45;&gt;Node19</title>
<path fill="none" stroke="midnightblue" d="M483.95,-265.53C510.76,-268.31 537,-265.13 537,-256 537,-248.01 516.91,-244.58 493.93,-245.71"/>
<polygon fill="midnightblue" stroke="midnightblue" points="493.65,-242.22 483.95,-246.47 494.19,-249.2 493.65,-242.22"/>
</g>
<!-- Node20 -->
<g id="node20" class="node">
<title>Node20</title>
<g id="a_node20"><a xlink:href="_o_m_sim_p_m_t_response_8hh.html" target="_top" xlink:title="Provides simulation for PMT response. This class is responsible for transforming hits on photocathode...">
<polygon fill="white" stroke="black" points="194,-190.5 194,-209.5 329,-209.5 329,-190.5 194,-190.5"/>
<text text-anchor="middle" x="261.5" y="-197.5" font-family="Helvetica,sans-Serif" font-size="10.00">OMSimPMTResponse.hh</text>
</a>
</g>
</g>
<!-- Node19&#45;&gt;Node20 -->
<g id="edge21" class="edge">
<title>Node19&#45;&gt;Node20</title>
<path fill="none" stroke="midnightblue" d="M415.5,-246.44C384.32,-237.24 334.57,-222.56 300.09,-212.39"/>
<polygon fill="midnightblue" stroke="midnightblue" points="300.94,-208.99 290.36,-209.52 298.96,-215.7 300.94,-208.99"/>
</g>
<!-- Node25 -->
<g id="node25" class="node">
<title>Node25</title>
<g id="a_node25"><a xlink:title=" ">
<polygon fill="white" stroke="#bfbfbf" points="406,-190.5 406,-209.5 473,-209.5 473,-190.5 406,-190.5"/>
<text text-anchor="middle" x="439.5" y="-197.5" font-family="Helvetica,sans-Serif" font-size="10.00">G4Tubs.hh</text>
</a>
</g>
</g>
<!-- Node19&#45;&gt;Node25 -->
<g id="edge28" class="edge">
<title>Node19&#45;&gt;Node25</title>
<path fill="none" stroke="midnightblue" d="M443.67,-246.08C443.02,-239.01 442.08,-228.86 441.26,-219.99"/>
<polygon fill="midnightblue" stroke="midnightblue" points="444.72,-219.39 440.31,-209.75 437.75,-220.03 444.72,-219.39"/>
</g>
<!-- Node20&#45;&gt;Node11 -->
<g id="edge22" class="edge">
<title>Node20&#45;&gt;Node11</title>
<path fill="none" stroke="midnightblue" d="M199.08,-190.45C177.17,-184.12 154.74,-173.11 141.5,-154 131.04,-138.91 134.52,-117.36 139.22,-102.07"/>
<polygon fill="midnightblue" stroke="midnightblue" points="142.66,-102.82 142.67,-92.22 136.06,-100.5 142.66,-102.82"/>
</g>
<!-- Node21 -->
<g id="node21" class="node">
<title>Node21</title>
<g id="a_node21"><a xlink:title=" ">
<polygon fill="white" stroke="#bfbfbf" points="151,-134.5 151,-153.5 224,-153.5 224,-134.5 151,-134.5"/>
<text text-anchor="middle" x="187.5" y="-141.5" font-family="Helvetica,sans-Serif" font-size="10.00">G4Types.hh</text>
</a>
</g>
</g>
<!-- Node20&#45;&gt;Node21 -->
<g id="edge23" class="edge">
<title>Node20&#45;&gt;Node21</title>
<path fill="none" stroke="midnightblue" d="M249.61,-190.32C238.35,-182.11 221.21,-169.6 207.79,-159.81"/>
<polygon fill="midnightblue" stroke="midnightblue" points="209.75,-156.9 199.61,-153.83 205.62,-162.56 209.75,-156.9"/>
</g>
<!-- Node22 -->
<g id="node22" class="node">
<title>Node22</title>
<g id="a_node22"><a xlink:title=" ">
<polygon fill="white" stroke="#bfbfbf" points="242.5,-134.5 242.5,-153.5 280.5,-153.5 280.5,-134.5 242.5,-134.5"/>
<text text-anchor="middle" x="261.5" y="-141.5" font-family="Helvetica,sans-Serif" font-size="10.00">map</text>
</a>
</g>
</g>
<!-- Node20&#45;&gt;Node22 -->
<g id="edge24" class="edge">
<title>Node20&#45;&gt;Node22</title>
<path fill="none" stroke="midnightblue" d="M261.5,-190.08C261.5,-183.01 261.5,-172.86 261.5,-163.99"/>
<polygon fill="midnightblue" stroke="midnightblue" points="265,-163.75 261.5,-153.75 258,-163.75 265,-163.75"/>
</g>
<!-- Node23 -->
<g id="node23" class="node">
<title>Node23</title>
<g id="a_node23"><a xlink:title=" ">
<polygon fill="white" stroke="#bfbfbf" points="299,-134.5 299,-153.5 360,-153.5 360,-134.5 299,-134.5"/>
<text text-anchor="middle" x="329.5" y="-141.5" font-family="Helvetica,sans-Serif" font-size="10.00">TGraph.h</text>
</a>
</g>
</g>
<!-- Node20&#45;&gt;Node23 -->
<g id="edge25" class="edge">
<title>Node20&#45;&gt;Node23</title>
<path fill="none" stroke="midnightblue" d="M272.43,-190.32C282.67,-182.18 298.22,-169.84 310.5,-160.09"/>
<polygon fill="midnightblue" stroke="midnightblue" points="312.72,-162.79 318.38,-153.83 308.37,-157.31 312.72,-162.79"/>
</g>
<!-- Node24 -->
<g id="node24" class="node">
<title>Node24</title>
<g id="a_node24"><a xlink:title=" ">
<polygon fill="white" stroke="#bfbfbf" points="41,-134.5 41,-153.5 94,-153.5 94,-134.5 41,-134.5"/>
<text text-anchor="middle" x="67.5" y="-141.5" font-family="Helvetica,sans-Serif" font-size="10.00">TH2D.h</text>
</a>
</g>
</g>
<!-- Node20&#45;&gt;Node24 -->
<g id="edge26" class="edge">
<title>Node20&#45;&gt;Node24</title>
<path fill="none" stroke="midnightblue" d="M230.76,-190.44C196.29,-180.85 140.42,-165.3 103.82,-155.11"/>
<polygon fill="midnightblue" stroke="midnightblue" points="104.62,-151.7 94.04,-152.39 102.74,-158.44 104.62,-151.7"/>
</g>
<!-- Node26&#45;&gt;Node3 -->
<g id="edge30" class="edge">
<title>Node26&#45;&gt;Node3</title>
<path fill="none" stroke="midnightblue" d="M543.3,-302.37C547.02,-284.62 555.58,-243.67 560.61,-219.6"/>
<polygon fill="midnightblue" stroke="midnightblue" points="564.08,-220.1 562.7,-209.59 557.23,-218.66 564.08,-220.1"/>
</g>
<!-- Node26&#45;&gt;Node19 -->
<g id="edge35" class="edge">
<title>Node26&#45;&gt;Node19</title>
<path fill="none" stroke="midnightblue" d="M525.92,-302.32C510.5,-293.74 486.69,-280.49 468.79,-270.52"/>
<polygon fill="midnightblue" stroke="midnightblue" points="470.49,-267.46 460.05,-265.65 467.08,-273.58 470.49,-267.46"/>
</g>
<!-- Node27 -->
<g id="node27" class="node">
<title>Node27</title>
<g id="a_node27"><a xlink:href="_o_m_sim_hit_manager_8hh.html" target="_top" xlink:title="Defines structures and classes related to optical module photon hit management.">
<polygon fill="white" stroke="black" points="144,-246.5 144,-265.5 267,-265.5 267,-246.5 144,-246.5"/>
<text text-anchor="middle" x="205.5" y="-253.5" font-family="Helvetica,sans-Serif" font-size="10.00">OMSimHitManager.hh</text>
</a>
</g>
</g>
<!-- Node26&#45;&gt;Node27 -->
<g id="edge31" class="edge">
<title>Node26&#45;&gt;Node27</title>
<path fill="none" stroke="midnightblue" d="M488.26,-302.44C428.54,-292.85 331.76,-277.29 268.37,-267.1"/>
<polygon fill="midnightblue" stroke="midnightblue" points="268.92,-263.65 258.49,-265.52 267.81,-270.56 268.92,-263.65"/>
</g>
<!-- Node27&#45;&gt;Node20 -->
<g id="edge32" class="edge">
<title>Node27&#45;&gt;Node20</title>
<path fill="none" stroke="midnightblue" d="M214.5,-246.32C222.69,-238.42 235.01,-226.55 244.97,-216.94"/>
<polygon fill="midnightblue" stroke="midnightblue" points="247.57,-219.29 252.34,-209.83 242.71,-214.26 247.57,-219.29"/>
</g>
<!-- Node28 -->
<g id="node28" class="node">
<title>Node28</title>
<g id="a_node28"><a xlink:title=" ">
<polygon fill="white" stroke="#bfbfbf" points="0,-190.5 0,-209.5 103,-209.5 103,-190.5 0,-190.5"/>
<text text-anchor="middle" x="51.5" y="-197.5" font-family="Helvetica,sans-Serif" font-size="10.00">G4ThreeVector.hh</text>
</a>
</g>
</g>
<!-- Node27&#45;&gt;Node28 -->
<g id="edge33" class="edge">
<title>Node27&#45;&gt;Node28</title>
<path fill="none" stroke="midnightblue" d="M181.1,-246.44C155.3,-237.4 114.42,-223.06 85.48,-212.92"/>
<polygon fill="midnightblue" stroke="midnightblue" points="86.38,-209.52 75.79,-209.52 84.07,-216.13 86.38,-209.52"/>
</g>
<!-- Node29 -->
<g id="node29" class="node">
<title>Node29</title>
<g id="a_node29"><a xlink:title=" ">
<polygon fill="white" stroke="#bfbfbf" points="121,-190.5 121,-209.5 176,-209.5 176,-190.5 121,-190.5"/>
<text text-anchor="middle" x="148.5" y="-197.5" font-family="Helvetica,sans-Serif" font-size="10.00">fstream</text>
</a>
</g>
</g>
<!-- Node27&#45;&gt;Node29 -->
<g id="edge34" class="edge">
<title>Node27&#45;&gt;Node29</title>
<path fill="none" stroke="midnightblue" d="M196.34,-246.32C188,-238.42 175.47,-226.55 165.32,-216.94"/>
<polygon fill="midnightblue" stroke="midnightblue" points="167.49,-214.17 157.82,-209.83 162.68,-219.25 167.49,-214.17"/>
</g>
</g>
</svg>
