<?xml version="1.0" encoding="UTF-8" standalone="no"?>
<!DOCTYPE svg PUBLIC "-//W3C//DTD SVG 1.1//EN"
 "http://www.w3.org/Graphics/SVG/1.1/DTD/svg11.dtd">
<!-- Generated by graphviz version 2.43.0 (0)
 -->
<!-- Title: OMSimMDOMFlasher.hh Pages: 1 -->
<svg width="1020pt" height="274pt"
 viewBox="0.00 0.00 1019.50 274.00" xmlns="http://www.w3.org/2000/svg" xmlns:xlink="http://www.w3.org/1999/xlink">
<g id="graph0" class="graph" transform="scale(1 1) rotate(0) translate(4 270)">
<title>OMSimMDOMFlasher.hh</title>
<polygon fill="white" stroke="transparent" points="-4,4 -4,-270 1015.5,-270 1015.5,4 -4,4"/>
<!-- Node1 -->
<g id="node1" class="node">
<title>Node1</title>
<g id="a_node1"><a xlink:title="Defines the mDOMFlasher class for simulating the 10 flashers in an mDOM optical module.">
<polygon fill="#bfbfbf" stroke="black" points="759,-246.5 759,-265.5 894,-265.5 894,-246.5 759,-246.5"/>
<text text-anchor="middle" x="826.5" y="-253.5" font-family="Helvetica,sans-Serif" font-size="10.00">OMSimMDOMFlasher.hh</text>
</a>
</g>
</g>
<!-- Node2 -->
<g id="node2" class="node">
<title>Node2</title>
<g id="a_node2"><a xlink:href="abc_detector_component_8hh.html" target="_top" xlink:title="Provides helper base class abcDetectorComponent for constructing and managing detector components in ...">
<polygon fill="white" stroke="black" points="612,-190.5 612,-209.5 759,-209.5 759,-190.5 612,-190.5"/>
<text text-anchor="middle" x="685.5" y="-197.5" font-family="Helvetica,sans-Serif" font-size="10.00">abcDetectorComponent.hh</text>
</a>
</g>
</g>
<!-- Node1&#45;&gt;Node2 -->
<g id="edge1" class="edge">
<title>Node1&#45;&gt;Node2</title>
<path fill="none" stroke="midnightblue" d="M804.16,-246.44C780.75,-237.48 743.76,-223.31 717.31,-213.18"/>
<polygon fill="midnightblue" stroke="midnightblue" points="718.33,-209.82 707.74,-209.52 715.82,-216.36 718.33,-209.82"/>
</g>
<!-- Node16 -->
<g id="node16" class="node">
<title>Node16</title>
<g id="a_node16"><a xlink:title=" ">
<polygon fill="white" stroke="#bfbfbf" points="777.5,-190.5 777.5,-209.5 875.5,-209.5 875.5,-190.5 777.5,-190.5"/>
<text text-anchor="middle" x="826.5" y="-197.5" font-family="Helvetica,sans-Serif" font-size="10.00">G4UnionSolid.hh</text>
</a>
</g>
</g>
<!-- Node1&#45;&gt;Node16 -->
<g id="edge15" class="edge">
<title>Node1&#45;&gt;Node16</title>
<path fill="none" stroke="midnightblue" d="M826.5,-246.08C826.5,-239.01 826.5,-228.86 826.5,-219.99"/>
<polygon fill="midnightblue" stroke="midnightblue" points="830,-219.75 826.5,-209.75 823,-219.75 830,-219.75"/>
</g>
<!-- Node17 -->
<g id="node17" class="node">
<title>Node17</title>
<g id="a_node17"><a xlink:title=" ">
<polygon fill="white" stroke="#bfbfbf" points="893.5,-190.5 893.5,-209.5 985.5,-209.5 985.5,-190.5 893.5,-190.5"/>
<text text-anchor="middle" x="939.5" y="-197.5" font-family="Helvetica,sans-Serif" font-size="10.00">G4Navigator.hh</text>
</a>
</g>
</g>
<!-- Node1&#45;&gt;Node17 -->
<g id="edge16" class="edge">
<title>Node1&#45;&gt;Node17</title>
<path fill="none" stroke="midnightblue" d="M844.41,-246.44C862.75,-237.68 891.51,-223.94 912.59,-213.86"/>
<polygon fill="midnightblue" stroke="midnightblue" points="914.17,-216.99 921.68,-209.52 911.15,-210.67 914.17,-216.99"/>
</g>
<!-- Node3 -->
<g id="node3" class="node">
<title>Node3</title>
<g id="a_node3"><a xlink:href="_o_m_sim_input_data_8hh.html" target="_top" xlink:title="Definition of ParameterTable and InputDataManager.">
<polygon fill="white" stroke="black" points="373,-134.5 373,-153.5 488,-153.5 488,-134.5 373,-134.5"/>
<text text-anchor="middle" x="430.5" y="-141.5" font-family="Helvetica,sans-Serif" font-size="10.00">OMSimInputData.hh</text>
</a>
</g>
</g>
<!-- Node2&#45;&gt;Node3 -->
<g id="edge2" class="edge">
<title>Node2&#45;&gt;Node3</title>
<path fill="none" stroke="midnightblue" d="M645.09,-190.44C600.52,-181 528.73,-165.8 480.61,-155.61"/>
<polygon fill="midnightblue" stroke="midnightblue" points="481.22,-152.16 470.72,-153.52 479.77,-159.01 481.22,-152.16"/>
</g>
<!-- Node12 -->
<g id="node12" class="node">
<title>Node12</title>
<g id="a_node12"><a xlink:title=" ">
<polygon fill="white" stroke="#bfbfbf" points="506,-134.5 506,-153.5 613,-153.5 613,-134.5 506,-134.5"/>
<text text-anchor="middle" x="559.5" y="-141.5" font-family="Helvetica,sans-Serif" font-size="10.00">G4Transform3D.hh</text>
</a>
</g>
</g>
<!-- Node2&#45;&gt;Node12 -->
<g id="edge11" class="edge">
<title>Node2&#45;&gt;Node12</title>
<path fill="none" stroke="midnightblue" d="M665.53,-190.44C644.89,-181.6 612.44,-167.69 588.87,-157.59"/>
<polygon fill="midnightblue" stroke="midnightblue" points="589.94,-154.24 579.37,-153.52 587.18,-160.67 589.94,-154.24"/>
</g>
<!-- Node13 -->
<g id="node13" class="node">
<title>Node13</title>
<g id="a_node13"><a xlink:title=" ">
<polygon fill="white" stroke="#bfbfbf" points="631.5,-134.5 631.5,-153.5 739.5,-153.5 739.5,-134.5 631.5,-134.5"/>
<text text-anchor="middle" x="685.5" y="-141.5" font-family="Helvetica,sans-Serif" font-size="10.00">G4VisAttributes.hh</text>
</a>
</g>
</g>
<!-- Node2&#45;&gt;Node13 -->
<g id="edge12" class="edge">
<title>Node2&#45;&gt;Node13</title>
<path fill="none" stroke="midnightblue" d="M685.5,-190.08C685.5,-183.01 685.5,-172.86 685.5,-163.99"/>
<polygon fill="midnightblue" stroke="midnightblue" points="689,-163.75 685.5,-153.75 682,-163.75 689,-163.75"/>
</g>
<!-- Node14 -->
<g id="node14" class="node">
<title>Node14</title>
<g id="a_node14"><a xlink:title=" ">
<polygon fill="white" stroke="#bfbfbf" points="758,-134.5 758,-153.5 883,-153.5 883,-134.5 758,-134.5"/>
<text text-anchor="middle" x="820.5" y="-141.5" font-family="Helvetica,sans-Serif" font-size="10.00">G4SubtractionSolid.hh</text>
</a>
</g>
</g>
<!-- Node2&#45;&gt;Node14 -->
<g id="edge13" class="edge">
<title>Node2&#45;&gt;Node14</title>
<path fill="none" stroke="midnightblue" d="M706.89,-190.44C729.21,-181.52 764.4,-167.44 789.71,-157.32"/>
<polygon fill="midnightblue" stroke="midnightblue" points="791.22,-160.48 799.21,-153.52 788.62,-153.98 791.22,-160.48"/>
</g>
<!-- Node15 -->
<g id="node15" class="node">
<title>Node15</title>
<g id="a_node15"><a xlink:title=" ">
<polygon fill="white" stroke="#bfbfbf" points="901.5,-134.5 901.5,-153.5 1011.5,-153.5 1011.5,-134.5 901.5,-134.5"/>
<text text-anchor="middle" x="956.5" y="-141.5" font-family="Helvetica,sans-Serif" font-size="10.00">G4PVPlacement.hh</text>
</a>
</g>
</g>
<!-- Node2&#45;&gt;Node15 -->
<g id="edge14" class="edge">
<title>Node2&#45;&gt;Node15</title>
<path fill="none" stroke="midnightblue" d="M728.44,-190.44C776.01,-180.96 852.74,-165.67 903.89,-155.48"/>
<polygon fill="midnightblue" stroke="midnightblue" points="904.64,-158.9 913.76,-153.52 903.27,-152.04 904.64,-158.9"/>
</g>
<!-- Node4 -->
<g id="node4" class="node">
<title>Node4</title>
<g id="a_node4"><a xlink:href="_o_m_sim_logger_8hh_source.html" target="_top" xlink:title=" ">
<polygon fill="white" stroke="black" points="168,-73 168,-92 267,-92 267,-73 168,-73"/>
<text text-anchor="middle" x="217.5" y="-80" font-family="Helvetica,sans-Serif" font-size="10.00">OMSimLogger.hh</text>
</a>
</g>
</g>
<!-- Node3&#45;&gt;Node4 -->
<g id="edge3" class="edge">
<title>Node3&#45;&gt;Node4</title>
<path fill="none" stroke="midnightblue" d="M399.98,-134.48C362.58,-124.03 299.07,-106.29 257.71,-94.73"/>
<polygon fill="midnightblue" stroke="midnightblue" points="258.53,-91.33 247.96,-92.01 256.65,-98.07 258.53,-91.33"/>
</g>
<!-- Node9 -->
<g id="node9" class="node">
<title>Node9</title>
<g id="a_node9"><a xlink:title=" ">
<polygon fill="white" stroke="#bfbfbf" points="285,-73 285,-92 428,-92 428,-73 285,-73"/>
<text text-anchor="middle" x="356.5" y="-80" font-family="Helvetica,sans-Serif" font-size="10.00">G4OpBoundaryProcess.hh</text>
</a>
</g>
</g>
<!-- Node3&#45;&gt;Node9 -->
<g id="edge8" class="edge">
<title>Node3&#45;&gt;Node9</title>
<path fill="none" stroke="midnightblue" d="M419.9,-134.48C408.25,-125.11 389.31,-109.88 375.17,-98.51"/>
<polygon fill="midnightblue" stroke="midnightblue" points="377.07,-95.55 367.08,-92.01 372.68,-101 377.07,-95.55"/>
</g>
<!-- Node10 -->
<g id="node10" class="node">
<title>Node10</title>
<g id="a_node10"><a xlink:title=" ">
<polygon fill="white" stroke="#bfbfbf" points="446,-73 446,-92 565,-92 565,-73 446,-73"/>
<text text-anchor="middle" x="505.5" y="-80" font-family="Helvetica,sans-Serif" font-size="10.00">G4SystemOfUnits.hh</text>
</a>
</g>
</g>
<!-- Node3&#45;&gt;Node10 -->
<g id="edge9" class="edge">
<title>Node3&#45;&gt;Node10</title>
<path fill="none" stroke="midnightblue" d="M441.25,-134.48C453.05,-125.11 472.24,-109.88 486.58,-98.51"/>
<polygon fill="midnightblue" stroke="midnightblue" points="489.12,-100.97 494.77,-92.01 484.76,-95.48 489.12,-100.97"/>
</g>
<!-- Node11 -->
<g id="node11" class="node">
<title>Node11</title>
<g id="a_node11"><a xlink:title=" ">
<polygon fill="white" stroke="#bfbfbf" points="583,-67.5 583,-97.5 696,-97.5 696,-67.5 583,-67.5"/>
<text text-anchor="start" x="591" y="-85.5" font-family="Helvetica,sans-Serif" font-size="10.00">boost/property_tree</text>
<text text-anchor="middle" x="639.5" y="-74.5" font-family="Helvetica,sans-Serif" font-size="10.00">/json_parser.hpp</text>
</a>
</g>
</g>
<!-- Node3&#45;&gt;Node11 -->
<g id="edge10" class="edge">
<title>Node3&#45;&gt;Node11</title>
<path fill="none" stroke="midnightblue" d="M460.44,-134.48C491.66,-125.59 541.4,-111.43 580.54,-100.29"/>
<polygon fill="midnightblue" stroke="midnightblue" points="581.58,-103.63 590.24,-97.52 579.67,-96.89 581.58,-103.63"/>
</g>
<!-- Node5 -->
<g id="node5" class="node">
<title>Node5</title>
<g id="a_node5"><a xlink:title=" ">
<polygon fill="white" stroke="#bfbfbf" points="0,-6 0,-25 93,-25 93,-6 0,-6"/>
<text text-anchor="middle" x="46.5" y="-13" font-family="Helvetica,sans-Serif" font-size="10.00">spdlog/spdlog.h</text>
</a>
</g>
</g>
<!-- Node4&#45;&gt;Node5 -->
<g id="edge4" class="edge">
<title>Node4&#45;&gt;Node5</title>
<path fill="none" stroke="midnightblue" d="M194.79,-72.87C164.94,-61.52 112.33,-41.52 78.47,-28.65"/>
<polygon fill="midnightblue" stroke="midnightblue" points="79.62,-25.35 69.03,-25.06 77.13,-31.89 79.62,-25.35"/>
</g>
<!-- Node6 -->
<g id="node6" class="node">
<title>Node6</title>
<g id="a_node6"><a xlink:title=" ">
<polygon fill="white" stroke="#bfbfbf" points="111,-0.5 111,-30.5 222,-30.5 222,-0.5 111,-0.5"/>
<text text-anchor="start" x="119" y="-18.5" font-family="Helvetica,sans-Serif" font-size="10.00">spdlog/sinks/stdout</text>
<text text-anchor="middle" x="166.5" y="-7.5" font-family="Helvetica,sans-Serif" font-size="10.00">_color_sinks.h</text>
</a>
</g>
</g>
<!-- Node4&#45;&gt;Node6 -->
<g id="edge5" class="edge">
<title>Node4&#45;&gt;Node6</title>
<path fill="none" stroke="midnightblue" d="M210.62,-72.73C203.8,-64.03 193.06,-50.34 183.88,-38.65"/>
<polygon fill="midnightblue" stroke="midnightblue" points="186.48,-36.3 177.55,-30.59 180.97,-40.62 186.48,-36.3"/>
</g>
<!-- Node7 -->
<g id="node7" class="node">
<title>Node7</title>
<g id="a_node7"><a xlink:title=" ">
<polygon fill="white" stroke="#bfbfbf" points="240.5,-6 240.5,-25 298.5,-25 298.5,-6 240.5,-6"/>
<text text-anchor="middle" x="269.5" y="-13" font-family="Helvetica,sans-Serif" font-size="10.00">memory</text>
</a>
</g>
</g>
<!-- Node4&#45;&gt;Node7 -->
<g id="edge6" class="edge">
<title>Node4&#45;&gt;Node7</title>
<path fill="none" stroke="midnightblue" d="M224.51,-72.73C232.62,-62.6 246.15,-45.69 256.26,-33.06"/>
<polygon fill="midnightblue" stroke="midnightblue" points="259.08,-35.12 262.6,-25.13 253.62,-30.75 259.08,-35.12"/>
</g>
<!-- Node8 -->
<g id="node8" class="node">
<title>Node8</title>
<g id="a_node8"><a xlink:title=" ">
<polygon fill="white" stroke="#bfbfbf" points="316.5,-6 316.5,-25 414.5,-25 414.5,-6 316.5,-6"/>
<text text-anchor="middle" x="365.5" y="-13" font-family="Helvetica,sans-Serif" font-size="10.00">spdlog/fmt/fmt.h</text>
</a>
</g>
</g>
<!-- Node4&#45;&gt;Node8 -->
<g id="edge7" class="edge">
<title>Node4&#45;&gt;Node8</title>
<path fill="none" stroke="midnightblue" d="M237.15,-72.87C262.59,-61.7 307.1,-42.15 336.45,-29.26"/>
<polygon fill="midnightblue" stroke="midnightblue" points="338.02,-32.39 345.77,-25.17 335.2,-25.98 338.02,-32.39"/>
</g>
</g>
</svg>
