<?xml version="1.0" encoding="UTF-8" standalone="no"?>
<!DOCTYPE svg PUBLIC "-//W3C//DTD SVG 1.1//EN"
 "http://www.w3.org/Graphics/SVG/1.1/DTD/svg11.dtd">
<!-- Generated by graphviz version 2.43.0 (0)
 -->
<!-- Title: OMSimMDOM.cc Pages: 1 -->
<svg width="1421pt" height="442pt"
 viewBox="0.00 0.00 1421.00 442.00" xmlns="http://www.w3.org/2000/svg" xmlns:xlink="http://www.w3.org/1999/xlink">
<g id="graph0" class="graph" transform="scale(1 1) rotate(0) translate(4 438)">
<title>OMSimMDOM.cc</title>
<polygon fill="white" stroke="transparent" points="-4,4 -4,-438 1417,-438 1417,4 -4,4"/>
<!-- Node1 -->
<g id="node1" class="node">
<title>Node1</title>
<g id="a_node1"><a xlink:title=" ">
<polygon fill="#bfbfbf" stroke="black" points="987.5,-414.5 987.5,-433.5 1085.5,-433.5 1085.5,-414.5 987.5,-414.5"/>
<text text-anchor="middle" x="1036.5" y="-421.5" font-family="Helvetica,sans-Serif" font-size="10.00">OMSimMDOM.cc</text>
</a>
</g>
</g>
<!-- Node2 -->
<g id="node2" class="node">
<title>Node2</title>
<g id="a_node2"><a xlink:href="_o_m_sim_m_d_o_m_8hh.html" target="_top" xlink:title="Construction of mDOM.">
<polygon fill="white" stroke="black" points="524.5,-358.5 524.5,-377.5 624.5,-377.5 624.5,-358.5 524.5,-358.5"/>
<text text-anchor="middle" x="574.5" y="-365.5" font-family="Helvetica,sans-Serif" font-size="10.00">OMSimMDOM.hh</text>
</a>
</g>
</g>
<!-- Node1&#45;&gt;Node2 -->
<g id="edge1" class="edge">
<title>Node1&#45;&gt;Node2</title>
<path fill="none" stroke="midnightblue" d="M987.5,-417.27C902.32,-407.32 727.26,-386.86 634.79,-376.05"/>
<polygon fill="midnightblue" stroke="midnightblue" points="635.09,-372.56 624.75,-374.87 634.27,-379.51 635.09,-372.56"/>
</g>
<!-- Node6 -->
<g id="node6" class="node">
<title>Node6</title>
<g id="a_node6"><a xlink:href="_o_m_sim_logger_8hh.html" target="_top" xlink:title=" ">
<polygon fill="white" stroke="black" points="954,-73 954,-92 1053,-92 1053,-73 954,-73"/>
<text text-anchor="middle" x="1003.5" y="-80" font-family="Helvetica,sans-Serif" font-size="10.00">OMSimLogger.hh</text>
</a>
</g>
</g>
<!-- Node1&#45;&gt;Node6 -->
<g id="edge46" class="edge">
<title>Node1&#45;&gt;Node6</title>
<path fill="none" stroke="midnightblue" d="M1031.22,-414.23C1020.77,-396.04 998.5,-352.6 998.5,-313 998.5,-313 998.5,-313 998.5,-255 998.5,-199.53 1001.15,-134.02 1002.59,-102.42"/>
<polygon fill="midnightblue" stroke="midnightblue" points="1006.1,-102.22 1003.07,-92.06 999.11,-101.89 1006.1,-102.22"/>
</g>
<!-- Node31 -->
<g id="node31" class="node">
<title>Node31</title>
<g id="a_node31"><a xlink:href="_o_m_sim_m_d_o_m_harness_8hh.html" target="_top" xlink:title="Construction of mDOM harness.">
<polygon fill="white" stroke="black" points="790.5,-358.5 790.5,-377.5 930.5,-377.5 930.5,-358.5 790.5,-358.5"/>
<text text-anchor="middle" x="860.5" y="-365.5" font-family="Helvetica,sans-Serif" font-size="10.00">OMSimMDOMHarness.hh</text>
</a>
</g>
</g>
<!-- Node1&#45;&gt;Node31 -->
<g id="edge37" class="edge">
<title>Node1&#45;&gt;Node31</title>
<path fill="none" stroke="midnightblue" d="M1008.61,-414.44C978.75,-405.28 931.19,-390.69 898.04,-380.52"/>
<polygon fill="midnightblue" stroke="midnightblue" points="898.84,-377.1 888.26,-377.52 896.79,-383.8 898.84,-377.1"/>
</g>
<!-- Node34 -->
<g id="node34" class="node">
<title>Node34</title>
<g id="a_node34"><a xlink:href="_o_m_sim_command_args_table_8hh.html" target="_top" xlink:title="Definition of the OMSimCommandArgsTable singleton class, which controls user args.">
<polygon fill="white" stroke="black" points="1052.5,-246.5 1052.5,-265.5 1216.5,-265.5 1216.5,-246.5 1052.5,-246.5"/>
<text text-anchor="middle" x="1134.5" y="-253.5" font-family="Helvetica,sans-Serif" font-size="10.00">OMSimCommandArgsTable.hh</text>
</a>
</g>
</g>
<!-- Node1&#45;&gt;Node34 -->
<g id="edge41" class="edge">
<title>Node1&#45;&gt;Node34</title>
<path fill="none" stroke="midnightblue" d="M1037.97,-414.19C1040.37,-401.31 1045.84,-376.83 1055.5,-358 1072.5,-324.87 1101,-291.92 1118.73,-273.06"/>
<polygon fill="midnightblue" stroke="midnightblue" points="1121.43,-275.3 1125.81,-265.65 1116.37,-270.46 1121.43,-275.3"/>
</g>
<!-- Node37 -->
<g id="node37" class="node">
<title>Node37</title>
<g id="a_node37"><a xlink:title=" ">
<polygon fill="white" stroke="#bfbfbf" points="1064.5,-358.5 1064.5,-377.5 1150.5,-377.5 1150.5,-358.5 1064.5,-358.5"/>
<text text-anchor="middle" x="1107.5" y="-365.5" font-family="Helvetica,sans-Serif" font-size="10.00">G4Ellipsoid.hh</text>
</a>
</g>
</g>
<!-- Node1&#45;&gt;Node37 -->
<g id="edge47" class="edge">
<title>Node1&#45;&gt;Node37</title>
<path fill="none" stroke="midnightblue" d="M1047.91,-414.32C1058.61,-406.18 1074.84,-393.84 1087.66,-384.09"/>
<polygon fill="midnightblue" stroke="midnightblue" points="1090.04,-386.67 1095.89,-377.83 1085.81,-381.1 1090.04,-386.67"/>
</g>
<!-- Node38 -->
<g id="node38" class="node">
<title>Node38</title>
<g id="a_node38"><a xlink:title=" ">
<polygon fill="white" stroke="#bfbfbf" points="1169,-358.5 1169,-377.5 1306,-377.5 1306,-358.5 1169,-358.5"/>
<text text-anchor="middle" x="1237.5" y="-365.5" font-family="Helvetica,sans-Serif" font-size="10.00">G4LogicalSkinSurface.hh</text>
</a>
</g>
</g>
<!-- Node1&#45;&gt;Node38 -->
<g id="edge48" class="edge">
<title>Node1&#45;&gt;Node38</title>
<path fill="none" stroke="midnightblue" d="M1068.35,-414.44C1102.9,-405.16 1158.18,-390.31 1196.08,-380.13"/>
<polygon fill="midnightblue" stroke="midnightblue" points="1197.05,-383.49 1205.8,-377.52 1195.23,-376.73 1197.05,-383.49"/>
</g>
<!-- Node39 -->
<g id="node39" class="node">
<title>Node39</title>
<g id="a_node39"><a xlink:title=" ">
<polygon fill="white" stroke="#bfbfbf" points="1324,-358.5 1324,-377.5 1413,-377.5 1413,-358.5 1324,-358.5"/>
<text text-anchor="middle" x="1368.5" y="-365.5" font-family="Helvetica,sans-Serif" font-size="10.00">G4Polycone.hh</text>
</a>
</g>
</g>
<!-- Node1&#45;&gt;Node39 -->
<g id="edge49" class="edge">
<title>Node1&#45;&gt;Node39</title>
<path fill="none" stroke="midnightblue" d="M1085.66,-415.2C1139.34,-406.65 1228.13,-392.43 1314.05,-378.23"/>
<polygon fill="midnightblue" stroke="midnightblue" points="1314.68,-381.67 1323.97,-376.59 1313.53,-374.77 1314.68,-381.67"/>
</g>
<!-- Node3 -->
<g id="node3" class="node">
<title>Node3</title>
<g id="a_node3"><a xlink:href="_o_m_sim_m_d_o_m_flasher_8hh.html" target="_top" xlink:title="Defines the mDOMFlasher class for simulating the 10 flashers in an mDOM optical module.">
<polygon fill="white" stroke="black" points="288,-246.5 288,-265.5 423,-265.5 423,-246.5 288,-246.5"/>
<text text-anchor="middle" x="355.5" y="-253.5" font-family="Helvetica,sans-Serif" font-size="10.00">OMSimMDOMFlasher.hh</text>
</a>
</g>
</g>
<!-- Node2&#45;&gt;Node3 -->
<g id="edge2" class="edge">
<title>Node2&#45;&gt;Node3</title>
<path fill="none" stroke="midnightblue" d="M557.32,-358.37C519.18,-339.21 427.24,-293.04 381.81,-270.22"/>
<polygon fill="midnightblue" stroke="midnightblue" points="383.11,-266.95 372.6,-265.59 379.97,-273.21 383.11,-266.95"/>
</g>
<!-- Node20 -->
<g id="node20" class="node">
<title>Node20</title>
<g id="a_node20"><a xlink:href="_o_m_sim_p_m_t_construction_8hh.html" target="_top" xlink:title="Construction of the PMTs.">
<polygon fill="white" stroke="black" points="441,-246.5 441,-265.5 590,-265.5 590,-246.5 441,-246.5"/>
<text text-anchor="middle" x="515.5" y="-253.5" font-family="Helvetica,sans-Serif" font-size="10.00">OMSimPMTConstruction.hh</text>
</a>
</g>
</g>
<!-- Node2&#45;&gt;Node20 -->
<g id="edge19" class="edge">
<title>Node2&#45;&gt;Node20</title>
<path fill="none" stroke="midnightblue" d="M569.64,-358.41C564.56,-349.38 556.37,-334.74 549.5,-322 540.93,-306.1 531.42,-287.86 524.64,-274.76"/>
<polygon fill="midnightblue" stroke="midnightblue" points="527.74,-273.15 520.05,-265.87 521.52,-276.36 527.74,-273.15"/>
</g>
<!-- Node27 -->
<g id="node27" class="node">
<title>Node27</title>
<g id="a_node27"><a xlink:href="_o_m_sim_optical_module_8hh.html" target="_top" xlink:title=" ">
<polygon fill="white" stroke="black" points="559,-302.5 559,-321.5 696,-321.5 696,-302.5 559,-302.5"/>
<text text-anchor="middle" x="627.5" y="-309.5" font-family="Helvetica,sans-Serif" font-size="10.00">OMSimOpticalModule.hh</text>
</a>
</g>
</g>
<!-- Node2&#45;&gt;Node27 -->
<g id="edge30" class="edge">
<title>Node2&#45;&gt;Node27</title>
<path fill="none" stroke="midnightblue" d="M583.25,-358.08C590.97,-350.22 602.4,-338.57 611.72,-329.08"/>
<polygon fill="midnightblue" stroke="midnightblue" points="614.4,-331.34 618.91,-321.75 609.41,-326.44 614.4,-331.34"/>
</g>
<!-- Node4 -->
<g id="node4" class="node">
<title>Node4</title>
<g id="a_node4"><a xlink:href="abc_detector_component_8hh.html" target="_top" xlink:title="Provides helper base class abcDetectorComponent for constructing and managing detector components in ...">
<polygon fill="white" stroke="black" points="508,-190.5 508,-209.5 655,-209.5 655,-190.5 508,-190.5"/>
<text text-anchor="middle" x="581.5" y="-197.5" font-family="Helvetica,sans-Serif" font-size="10.00">abcDetectorComponent.hh</text>
</a>
</g>
</g>
<!-- Node3&#45;&gt;Node4 -->
<g id="edge3" class="edge">
<title>Node3&#45;&gt;Node4</title>
<path fill="none" stroke="midnightblue" d="M391.31,-246.44C430.49,-237.08 493.38,-222.06 536.02,-211.87"/>
<polygon fill="midnightblue" stroke="midnightblue" points="536.94,-215.24 545.86,-209.52 535.32,-208.44 536.94,-215.24"/>
</g>
<!-- Node18 -->
<g id="node18" class="node">
<title>Node18</title>
<g id="a_node18"><a xlink:title=" ">
<polygon fill="white" stroke="#bfbfbf" points="306.5,-190.5 306.5,-209.5 404.5,-209.5 404.5,-190.5 306.5,-190.5"/>
<text text-anchor="middle" x="355.5" y="-197.5" font-family="Helvetica,sans-Serif" font-size="10.00">G4UnionSolid.hh</text>
</a>
</g>
</g>
<!-- Node3&#45;&gt;Node18 -->
<g id="edge17" class="edge">
<title>Node3&#45;&gt;Node18</title>
<path fill="none" stroke="midnightblue" d="M355.5,-246.08C355.5,-239.01 355.5,-228.86 355.5,-219.99"/>
<polygon fill="midnightblue" stroke="midnightblue" points="359,-219.75 355.5,-209.75 352,-219.75 359,-219.75"/>
</g>
<!-- Node19 -->
<g id="node19" class="node">
<title>Node19</title>
<g id="a_node19"><a xlink:title=" ">
<polygon fill="white" stroke="#bfbfbf" points="196.5,-190.5 196.5,-209.5 288.5,-209.5 288.5,-190.5 196.5,-190.5"/>
<text text-anchor="middle" x="242.5" y="-197.5" font-family="Helvetica,sans-Serif" font-size="10.00">G4Navigator.hh</text>
</a>
</g>
</g>
<!-- Node3&#45;&gt;Node19 -->
<g id="edge18" class="edge">
<title>Node3&#45;&gt;Node19</title>
<path fill="none" stroke="midnightblue" d="M337.59,-246.44C319.25,-237.68 290.49,-223.94 269.41,-213.86"/>
<polygon fill="midnightblue" stroke="midnightblue" points="270.85,-210.67 260.32,-209.52 267.83,-216.99 270.85,-210.67"/>
</g>
<!-- Node5 -->
<g id="node5" class="node">
<title>Node5</title>
<g id="a_node5"><a xlink:href="_o_m_sim_input_data_8hh.html" target="_top" xlink:title="Definition of ParameterTable and InputDataManager.">
<polygon fill="white" stroke="black" points="524,-134.5 524,-153.5 639,-153.5 639,-134.5 524,-134.5"/>
<text text-anchor="middle" x="581.5" y="-141.5" font-family="Helvetica,sans-Serif" font-size="10.00">OMSimInputData.hh</text>
</a>
</g>
</g>
<!-- Node4&#45;&gt;Node5 -->
<g id="edge4" class="edge">
<title>Node4&#45;&gt;Node5</title>
<path fill="none" stroke="midnightblue" d="M581.5,-190.08C581.5,-183.01 581.5,-172.86 581.5,-163.99"/>
<polygon fill="midnightblue" stroke="midnightblue" points="585,-163.75 581.5,-153.75 578,-163.75 585,-163.75"/>
</g>
<!-- Node14 -->
<g id="node14" class="node">
<title>Node14</title>
<g id="a_node14"><a xlink:title=" ">
<polygon fill="white" stroke="#bfbfbf" points="0,-134.5 0,-153.5 107,-153.5 107,-134.5 0,-134.5"/>
<text text-anchor="middle" x="53.5" y="-141.5" font-family="Helvetica,sans-Serif" font-size="10.00">G4Transform3D.hh</text>
</a>
</g>
</g>
<!-- Node4&#45;&gt;Node14 -->
<g id="edge13" class="edge">
<title>Node4&#45;&gt;Node14</title>
<path fill="none" stroke="midnightblue" d="M507.74,-190.95C504.62,-190.62 501.53,-190.31 498.5,-190 332.07,-173.14 287.53,-174.02 117.16,-154.02"/>
<polygon fill="midnightblue" stroke="midnightblue" points="117.43,-150.53 107.09,-152.83 116.61,-157.48 117.43,-150.53"/>
</g>
<!-- Node15 -->
<g id="node15" class="node">
<title>Node15</title>
<g id="a_node15"><a xlink:title=" ">
<polygon fill="white" stroke="#bfbfbf" points="125.5,-134.5 125.5,-153.5 233.5,-153.5 233.5,-134.5 125.5,-134.5"/>
<text text-anchor="middle" x="179.5" y="-141.5" font-family="Helvetica,sans-Serif" font-size="10.00">G4VisAttributes.hh</text>
</a>
</g>
</g>
<!-- Node4&#45;&gt;Node15 -->
<g id="edge14" class="edge">
<title>Node4&#45;&gt;Node15</title>
<path fill="none" stroke="midnightblue" d="M515.85,-190.48C449.74,-181.86 344.54,-168.02 243.83,-154.17"/>
<polygon fill="midnightblue" stroke="midnightblue" points="244.18,-150.69 233.79,-152.79 243.22,-157.62 244.18,-150.69"/>
</g>
<!-- Node16 -->
<g id="node16" class="node">
<title>Node16</title>
<g id="a_node16"><a xlink:title=" ">
<polygon fill="white" stroke="#bfbfbf" points="252,-134.5 252,-153.5 377,-153.5 377,-134.5 252,-134.5"/>
<text text-anchor="middle" x="314.5" y="-141.5" font-family="Helvetica,sans-Serif" font-size="10.00">G4SubtractionSolid.hh</text>
</a>
</g>
</g>
<!-- Node4&#45;&gt;Node16 -->
<g id="edge15" class="edge">
<title>Node4&#45;&gt;Node16</title>
<path fill="none" stroke="midnightblue" d="M539.19,-190.44C492.42,-180.98 417.04,-165.74 366.65,-155.55"/>
<polygon fill="midnightblue" stroke="midnightblue" points="367.1,-152.07 356.61,-153.52 365.72,-158.93 367.1,-152.07"/>
</g>
<!-- Node17 -->
<g id="node17" class="node">
<title>Node17</title>
<g id="a_node17"><a xlink:title=" ">
<polygon fill="white" stroke="#bfbfbf" points="395.5,-134.5 395.5,-153.5 505.5,-153.5 505.5,-134.5 395.5,-134.5"/>
<text text-anchor="middle" x="450.5" y="-141.5" font-family="Helvetica,sans-Serif" font-size="10.00">G4PVPlacement.hh</text>
</a>
</g>
</g>
<!-- Node4&#45;&gt;Node17 -->
<g id="edge16" class="edge">
<title>Node4&#45;&gt;Node17</title>
<path fill="none" stroke="midnightblue" d="M560.74,-190.44C539.18,-181.56 505.24,-167.56 480.71,-157.45"/>
<polygon fill="midnightblue" stroke="midnightblue" points="481.74,-154.09 471.16,-153.52 479.07,-160.56 481.74,-154.09"/>
</g>
<!-- Node5&#45;&gt;Node6 -->
<g id="edge5" class="edge">
<title>Node5&#45;&gt;Node6</title>
<path fill="none" stroke="midnightblue" d="M639.29,-134.85C719.28,-123.57 863,-103.31 943.92,-91.9"/>
<polygon fill="midnightblue" stroke="midnightblue" points="944.54,-95.35 953.95,-90.49 943.56,-88.42 944.54,-95.35"/>
</g>
<!-- Node11 -->
<g id="node11" class="node">
<title>Node11</title>
<g id="a_node11"><a xlink:title=" ">
<polygon fill="white" stroke="#bfbfbf" points="546,-73 546,-92 689,-92 689,-73 546,-73"/>
<text text-anchor="middle" x="617.5" y="-80" font-family="Helvetica,sans-Serif" font-size="10.00">G4OpBoundaryProcess.hh</text>
</a>
</g>
</g>
<!-- Node5&#45;&gt;Node11 -->
<g id="edge10" class="edge">
<title>Node5&#45;&gt;Node11</title>
<path fill="none" stroke="midnightblue" d="M586.66,-134.48C591.95,-125.73 600.34,-111.87 607.03,-100.81"/>
<polygon fill="midnightblue" stroke="midnightblue" points="610.17,-102.38 612.35,-92.01 604.18,-98.75 610.17,-102.38"/>
</g>
<!-- Node12 -->
<g id="node12" class="node">
<title>Node12</title>
<g id="a_node12"><a xlink:title=" ">
<polygon fill="white" stroke="#bfbfbf" points="744,-73 744,-92 863,-92 863,-73 744,-73"/>
<text text-anchor="middle" x="803.5" y="-80" font-family="Helvetica,sans-Serif" font-size="10.00">G4SystemOfUnits.hh</text>
</a>
</g>
</g>
<!-- Node5&#45;&gt;Node12 -->
<g id="edge11" class="edge">
<title>Node5&#45;&gt;Node12</title>
<path fill="none" stroke="midnightblue" d="M613.31,-134.48C652.38,-124 718.76,-106.21 761.86,-94.66"/>
<polygon fill="midnightblue" stroke="midnightblue" points="763,-97.98 771.75,-92.01 761.19,-91.22 763,-97.98"/>
</g>
<!-- Node13 -->
<g id="node13" class="node">
<title>Node13</title>
<g id="a_node13"><a xlink:title=" ">
<polygon fill="white" stroke="#bfbfbf" points="415,-67.5 415,-97.5 528,-97.5 528,-67.5 415,-67.5"/>
<text text-anchor="start" x="423" y="-85.5" font-family="Helvetica,sans-Serif" font-size="10.00">boost/property_tree</text>
<text text-anchor="middle" x="471.5" y="-74.5" font-family="Helvetica,sans-Serif" font-size="10.00">/json_parser.hpp</text>
</a>
</g>
</g>
<!-- Node5&#45;&gt;Node13 -->
<g id="edge12" class="edge">
<title>Node5&#45;&gt;Node13</title>
<path fill="none" stroke="midnightblue" d="M565.74,-134.48C550.28,-126.12 526.2,-113.09 506.25,-102.3"/>
<polygon fill="midnightblue" stroke="midnightblue" points="507.89,-99.2 497.42,-97.52 504.56,-105.36 507.89,-99.2"/>
</g>
<!-- Node7 -->
<g id="node7" class="node">
<title>Node7</title>
<g id="a_node7"><a xlink:title=" ">
<polygon fill="white" stroke="#bfbfbf" points="785,-6 785,-25 878,-25 878,-6 785,-6"/>
<text text-anchor="middle" x="831.5" y="-13" font-family="Helvetica,sans-Serif" font-size="10.00">spdlog/spdlog.h</text>
</a>
</g>
</g>
<!-- Node6&#45;&gt;Node7 -->
<g id="edge6" class="edge">
<title>Node6&#45;&gt;Node7</title>
<path fill="none" stroke="midnightblue" d="M980.66,-72.87C950.63,-61.52 897.72,-41.52 863.66,-28.65"/>
<polygon fill="midnightblue" stroke="midnightblue" points="864.75,-25.32 854.16,-25.06 862.28,-31.87 864.75,-25.32"/>
</g>
<!-- Node8 -->
<g id="node8" class="node">
<title>Node8</title>
<g id="a_node8"><a xlink:title=" ">
<polygon fill="white" stroke="#bfbfbf" points="896,-0.5 896,-30.5 1007,-30.5 1007,-0.5 896,-0.5"/>
<text text-anchor="start" x="904" y="-18.5" font-family="Helvetica,sans-Serif" font-size="10.00">spdlog/sinks/stdout</text>
<text text-anchor="middle" x="951.5" y="-7.5" font-family="Helvetica,sans-Serif" font-size="10.00">_color_sinks.h</text>
</a>
</g>
</g>
<!-- Node6&#45;&gt;Node8 -->
<g id="edge7" class="edge">
<title>Node6&#45;&gt;Node8</title>
<path fill="none" stroke="midnightblue" d="M996.49,-72.73C989.53,-64.03 978.58,-50.34 969.22,-38.65"/>
<polygon fill="midnightblue" stroke="midnightblue" points="971.75,-36.21 962.77,-30.59 966.29,-40.58 971.75,-36.21"/>
</g>
<!-- Node9 -->
<g id="node9" class="node">
<title>Node9</title>
<g id="a_node9"><a xlink:title=" ">
<polygon fill="white" stroke="#bfbfbf" points="1025.5,-6 1025.5,-25 1083.5,-25 1083.5,-6 1025.5,-6"/>
<text text-anchor="middle" x="1054.5" y="-13" font-family="Helvetica,sans-Serif" font-size="10.00">memory</text>
</a>
</g>
</g>
<!-- Node6&#45;&gt;Node9 -->
<g id="edge8" class="edge">
<title>Node6&#45;&gt;Node9</title>
<path fill="none" stroke="midnightblue" d="M1010.38,-72.73C1018.33,-62.6 1031.6,-45.69 1041.51,-33.06"/>
<polygon fill="midnightblue" stroke="midnightblue" points="1044.31,-35.16 1047.73,-25.13 1038.8,-30.83 1044.31,-35.16"/>
</g>
<!-- Node10 -->
<g id="node10" class="node">
<title>Node10</title>
<g id="a_node10"><a xlink:title=" ">
<polygon fill="white" stroke="#bfbfbf" points="1101.5,-6 1101.5,-25 1199.5,-25 1199.5,-6 1101.5,-6"/>
<text text-anchor="middle" x="1150.5" y="-13" font-family="Helvetica,sans-Serif" font-size="10.00">spdlog/fmt/fmt.h</text>
</a>
</g>
</g>
<!-- Node6&#45;&gt;Node10 -->
<g id="edge9" class="edge">
<title>Node6&#45;&gt;Node10</title>
<path fill="none" stroke="midnightblue" d="M1023.02,-72.87C1048.28,-61.7 1092.5,-42.15 1121.64,-29.26"/>
<polygon fill="midnightblue" stroke="midnightblue" points="1123.17,-32.41 1130.9,-25.17 1120.34,-26.01 1123.17,-32.41"/>
</g>
<!-- Node20&#45;&gt;Node4 -->
<g id="edge20" class="edge">
<title>Node20&#45;&gt;Node4</title>
<path fill="none" stroke="midnightblue" d="M526.1,-246.32C535.96,-238.26 550.85,-226.08 562.72,-216.37"/>
<polygon fill="midnightblue" stroke="midnightblue" points="565.18,-218.88 570.7,-209.83 560.75,-213.46 565.18,-218.88"/>
</g>
<!-- Node20&#45;&gt;Node18 -->
<g id="edge28" class="edge">
<title>Node20&#45;&gt;Node18</title>
<path fill="none" stroke="midnightblue" d="M490.15,-246.44C463.23,-237.36 420.5,-222.94 390.41,-212.78"/>
<polygon fill="midnightblue" stroke="midnightblue" points="391.33,-209.4 380.73,-209.52 389.09,-216.03 391.33,-209.4"/>
</g>
<!-- Node20&#45;&gt;Node20 -->
<g id="edge21" class="edge">
<title>Node20&#45;&gt;Node20</title>
<path fill="none" stroke="midnightblue" d="M554.95,-265.53C581.76,-268.31 608,-265.13 608,-256 608,-248.01 587.91,-244.58 564.93,-245.71"/>
<polygon fill="midnightblue" stroke="midnightblue" points="564.65,-242.22 554.95,-246.47 565.19,-249.2 564.65,-242.22"/>
</g>
<!-- Node21 -->
<g id="node21" class="node">
<title>Node21</title>
<g id="a_node21"><a xlink:href="_o_m_sim_p_m_t_response_8hh.html" target="_top" xlink:title="Simulation of PMT response.">
<polygon fill="white" stroke="black" points="705,-190.5 705,-209.5 840,-209.5 840,-190.5 705,-190.5"/>
<text text-anchor="middle" x="772.5" y="-197.5" font-family="Helvetica,sans-Serif" font-size="10.00">OMSimPMTResponse.hh</text>
</a>
</g>
</g>
<!-- Node20&#45;&gt;Node21 -->
<g id="edge22" class="edge">
<title>Node20&#45;&gt;Node21</title>
<path fill="none" stroke="midnightblue" d="M556.22,-246.44C601.15,-237 673.5,-221.8 722,-211.61"/>
<polygon fill="midnightblue" stroke="midnightblue" points="722.9,-215 731.97,-209.52 721.46,-208.15 722.9,-215"/>
</g>
<!-- Node26 -->
<g id="node26" class="node">
<title>Node26</title>
<g id="a_node26"><a xlink:title=" ">
<polygon fill="white" stroke="#bfbfbf" points="423,-190.5 423,-209.5 490,-209.5 490,-190.5 423,-190.5"/>
<text text-anchor="middle" x="456.5" y="-197.5" font-family="Helvetica,sans-Serif" font-size="10.00">G4Tubs.hh</text>
</a>
</g>
</g>
<!-- Node20&#45;&gt;Node26 -->
<g id="edge29" class="edge">
<title>Node20&#45;&gt;Node26</title>
<path fill="none" stroke="midnightblue" d="M506.02,-246.32C497.3,-238.34 484.16,-226.31 473.6,-216.65"/>
<polygon fill="midnightblue" stroke="midnightblue" points="475.89,-214 466.15,-209.83 471.17,-219.17 475.89,-214"/>
</g>
<!-- Node21&#45;&gt;Node12 -->
<g id="edge23" class="edge">
<title>Node21&#45;&gt;Node12</title>
<path fill="none" stroke="midnightblue" d="M838.14,-190.45C881.62,-183.28 933.03,-171.39 946.5,-154 971.34,-121.92 920.86,-103.46 873.16,-93.55"/>
<polygon fill="midnightblue" stroke="midnightblue" points="873.54,-90.06 863.05,-91.56 872.19,-96.92 873.54,-90.06"/>
</g>
<!-- Node22 -->
<g id="node22" class="node">
<title>Node22</title>
<g id="a_node22"><a xlink:title=" ">
<polygon fill="white" stroke="#bfbfbf" points="657,-134.5 657,-153.5 730,-153.5 730,-134.5 657,-134.5"/>
<text text-anchor="middle" x="693.5" y="-141.5" font-family="Helvetica,sans-Serif" font-size="10.00">G4Types.hh</text>
</a>
</g>
</g>
<!-- Node21&#45;&gt;Node22 -->
<g id="edge24" class="edge">
<title>Node21&#45;&gt;Node22</title>
<path fill="none" stroke="midnightblue" d="M759.81,-190.32C747.6,-181.98 728.92,-169.21 714.5,-159.35"/>
<polygon fill="midnightblue" stroke="midnightblue" points="716.39,-156.41 706.16,-153.65 712.44,-162.19 716.39,-156.41"/>
</g>
<!-- Node23 -->
<g id="node23" class="node">
<title>Node23</title>
<g id="a_node23"><a xlink:title=" ">
<polygon fill="white" stroke="#bfbfbf" points="748.5,-134.5 748.5,-153.5 786.5,-153.5 786.5,-134.5 748.5,-134.5"/>
<text text-anchor="middle" x="767.5" y="-141.5" font-family="Helvetica,sans-Serif" font-size="10.00">map</text>
</a>
</g>
</g>
<!-- Node21&#45;&gt;Node23 -->
<g id="edge25" class="edge">
<title>Node21&#45;&gt;Node23</title>
<path fill="none" stroke="midnightblue" d="M771.67,-190.08C771.02,-183.01 770.08,-172.86 769.26,-163.99"/>
<polygon fill="midnightblue" stroke="midnightblue" points="772.72,-163.39 768.31,-153.75 765.75,-164.03 772.72,-163.39"/>
</g>
<!-- Node24 -->
<g id="node24" class="node">
<title>Node24</title>
<g id="a_node24"><a xlink:title=" ">
<polygon fill="white" stroke="#bfbfbf" points="805,-134.5 805,-153.5 866,-153.5 866,-134.5 805,-134.5"/>
<text text-anchor="middle" x="835.5" y="-141.5" font-family="Helvetica,sans-Serif" font-size="10.00">TGraph.h</text>
</a>
</g>
</g>
<!-- Node21&#45;&gt;Node24 -->
<g id="edge26" class="edge">
<title>Node21&#45;&gt;Node24</title>
<path fill="none" stroke="midnightblue" d="M782.62,-190.32C792.03,-182.26 806.24,-170.08 817.57,-160.37"/>
<polygon fill="midnightblue" stroke="midnightblue" points="819.88,-163 825.19,-153.83 815.32,-157.68 819.88,-163"/>
</g>
<!-- Node25 -->
<g id="node25" class="node">
<title>Node25</title>
<g id="a_node25"><a xlink:title=" ">
<polygon fill="white" stroke="#bfbfbf" points="884,-134.5 884,-153.5 937,-153.5 937,-134.5 884,-134.5"/>
<text text-anchor="middle" x="910.5" y="-141.5" font-family="Helvetica,sans-Serif" font-size="10.00">TH2D.h</text>
</a>
</g>
</g>
<!-- Node21&#45;&gt;Node25 -->
<g id="edge27" class="edge">
<title>Node21&#45;&gt;Node25</title>
<path fill="none" stroke="midnightblue" d="M794.37,-190.44C817.28,-181.48 853.48,-167.31 879.37,-157.18"/>
<polygon fill="midnightblue" stroke="midnightblue" points="880.7,-160.42 888.74,-153.52 878.15,-153.9 880.7,-160.42"/>
</g>
<!-- Node27&#45;&gt;Node4 -->
<g id="edge31" class="edge">
<title>Node27&#45;&gt;Node4</title>
<path fill="none" stroke="midnightblue" d="M627.36,-302.2C626.86,-289.33 624.79,-264.86 616.5,-246 611.89,-235.51 604.29,-225.3 597.35,-217.27"/>
<polygon fill="midnightblue" stroke="midnightblue" points="599.83,-214.8 590.5,-209.77 594.65,-219.51 599.83,-214.8"/>
</g>
<!-- Node27&#45;&gt;Node20 -->
<g id="edge36" class="edge">
<title>Node27&#45;&gt;Node20</title>
<path fill="none" stroke="midnightblue" d="M609.51,-302.32C591.46,-293.62 563.45,-280.12 542.7,-270.11"/>
<polygon fill="midnightblue" stroke="midnightblue" points="543.98,-266.84 533.45,-265.65 540.94,-273.15 543.98,-266.84"/>
</g>
<!-- Node28 -->
<g id="node28" class="node">
<title>Node28</title>
<g id="a_node28"><a xlink:href="_o_m_sim_hit_manager_8hh.html" target="_top" xlink:title="Defines structures and classes related to optical module photon hit management.">
<polygon fill="white" stroke="black" points="801,-246.5 801,-265.5 924,-265.5 924,-246.5 801,-246.5"/>
<text text-anchor="middle" x="862.5" y="-253.5" font-family="Helvetica,sans-Serif" font-size="10.00">OMSimHitManager.hh</text>
</a>
</g>
</g>
<!-- Node27&#45;&gt;Node28 -->
<g id="edge32" class="edge">
<title>Node27&#45;&gt;Node28</title>
<path fill="none" stroke="midnightblue" d="M664.74,-302.44C705.56,-293.06 771.14,-277.99 815.48,-267.8"/>
<polygon fill="midnightblue" stroke="midnightblue" points="816.48,-271.17 825.44,-265.52 814.91,-264.34 816.48,-271.17"/>
</g>
<!-- Node28&#45;&gt;Node21 -->
<g id="edge33" class="edge">
<title>Node28&#45;&gt;Node21</title>
<path fill="none" stroke="midnightblue" d="M848.04,-246.32C834,-237.9 812.45,-224.97 795.96,-215.07"/>
<polygon fill="midnightblue" stroke="midnightblue" points="797.3,-211.8 786.92,-209.65 793.7,-217.8 797.3,-211.8"/>
</g>
<!-- Node29 -->
<g id="node29" class="node">
<title>Node29</title>
<g id="a_node29"><a xlink:title=" ">
<polygon fill="white" stroke="#bfbfbf" points="858,-190.5 858,-209.5 961,-209.5 961,-190.5 858,-190.5"/>
<text text-anchor="middle" x="909.5" y="-197.5" font-family="Helvetica,sans-Serif" font-size="10.00">G4ThreeVector.hh</text>
</a>
</g>
</g>
<!-- Node28&#45;&gt;Node29 -->
<g id="edge34" class="edge">
<title>Node28&#45;&gt;Node29</title>
<path fill="none" stroke="midnightblue" d="M870.26,-246.08C877.04,-238.3 887.04,-226.8 895.26,-217.37"/>
<polygon fill="midnightblue" stroke="midnightblue" points="897.96,-219.59 901.88,-209.75 892.68,-215 897.96,-219.59"/>
</g>
<!-- Node30 -->
<g id="node30" class="node">
<title>Node30</title>
<g id="a_node30"><a xlink:title=" ">
<polygon fill="white" stroke="#bfbfbf" points="1027,-190.5 1027,-209.5 1082,-209.5 1082,-190.5 1027,-190.5"/>
<text text-anchor="middle" x="1054.5" y="-197.5" font-family="Helvetica,sans-Serif" font-size="10.00">fstream</text>
</a>
</g>
</g>
<!-- Node28&#45;&gt;Node30 -->
<g id="edge35" class="edge">
<title>Node28&#45;&gt;Node30</title>
<path fill="none" stroke="midnightblue" d="M892.92,-246.44C926.56,-236.98 980.77,-221.74 1017,-211.55"/>
<polygon fill="midnightblue" stroke="midnightblue" points="1018.03,-214.89 1026.71,-208.82 1016.14,-208.15 1018.03,-214.89"/>
</g>
<!-- Node31&#45;&gt;Node4 -->
<g id="edge38" class="edge">
<title>Node31&#45;&gt;Node4</title>
<path fill="none" stroke="midnightblue" d="M833.36,-358.49C809.7,-350.56 774.82,-337.63 746.5,-322 688.76,-290.13 627.98,-240.84 598.94,-216.16"/>
<polygon fill="midnightblue" stroke="midnightblue" points="601.17,-213.47 591.3,-209.61 596.62,-218.78 601.17,-213.47"/>
</g>
<!-- Node32 -->
<g id="node32" class="node">
<title>Node32</title>
<g id="a_node32"><a xlink:title=" ">
<polygon fill="white" stroke="#bfbfbf" points="756,-302.5 756,-321.5 883,-321.5 883,-302.5 756,-302.5"/>
<text text-anchor="middle" x="819.5" y="-309.5" font-family="Helvetica,sans-Serif" font-size="10.00">G4IntersectionSolid.hh</text>
</a>
</g>
</g>
<!-- Node31&#45;&gt;Node32 -->
<g id="edge39" class="edge">
<title>Node31&#45;&gt;Node32</title>
<path fill="none" stroke="midnightblue" d="M853.73,-358.08C847.94,-350.46 839.44,-339.26 832.36,-329.94"/>
<polygon fill="midnightblue" stroke="midnightblue" points="834.98,-327.6 826.14,-321.75 829.4,-331.83 834.98,-327.6"/>
</g>
<!-- Node33 -->
<g id="node33" class="node">
<title>Node33</title>
<g id="a_node33"><a xlink:title=" ">
<polygon fill="white" stroke="#bfbfbf" points="901,-302.5 901,-321.5 970,-321.5 970,-302.5 901,-302.5"/>
<text text-anchor="middle" x="935.5" y="-309.5" font-family="Helvetica,sans-Serif" font-size="10.00">G4Cons.hh</text>
</a>
</g>
</g>
<!-- Node31&#45;&gt;Node33 -->
<g id="edge40" class="edge">
<title>Node31&#45;&gt;Node33</title>
<path fill="none" stroke="midnightblue" d="M872.55,-358.32C883.96,-350.11 901.33,-337.6 914.93,-327.81"/>
<polygon fill="midnightblue" stroke="midnightblue" points="917.16,-330.52 923.23,-321.83 913.07,-324.84 917.16,-330.52"/>
</g>
<!-- Node34&#45;&gt;Node6 -->
<g id="edge42" class="edge">
<title>Node34&#45;&gt;Node6</title>
<path fill="none" stroke="midnightblue" d="M1147.32,-246.43C1163.89,-234.23 1189.27,-211.01 1177.5,-190 1149.13,-139.37 1085.79,-109.92 1043.87,-95.28"/>
<polygon fill="midnightblue" stroke="midnightblue" points="1044.82,-91.91 1034.23,-92.04 1042.59,-98.55 1044.82,-91.91"/>
</g>
<!-- Node34&#45;&gt;Node30 -->
<g id="edge43" class="edge">
<title>Node34&#45;&gt;Node30</title>
<path fill="none" stroke="midnightblue" d="M1121.65,-246.32C1109.28,-237.98 1090.37,-225.21 1075.76,-215.35"/>
<polygon fill="midnightblue" stroke="midnightblue" points="1077.57,-212.35 1067.32,-209.65 1073.65,-218.15 1077.57,-212.35"/>
</g>
<!-- Node35 -->
<g id="node35" class="node">
<title>Node35</title>
<g id="a_node35"><a xlink:title=" ">
<polygon fill="white" stroke="#bfbfbf" points="1224.5,-190.5 1224.5,-209.5 1308.5,-209.5 1308.5,-190.5 1224.5,-190.5"/>
<text text-anchor="middle" x="1266.5" y="-197.5" font-family="Helvetica,sans-Serif" font-size="10.00">boost/any.hpp</text>
</a>
</g>
</g>
<!-- Node34&#45;&gt;Node35 -->
<g id="edge44" class="edge">
<title>Node34&#45;&gt;Node35</title>
<path fill="none" stroke="midnightblue" d="M1155.42,-246.44C1177.24,-237.52 1211.65,-223.44 1236.39,-213.32"/>
<polygon fill="midnightblue" stroke="midnightblue" points="1237.75,-216.54 1245.68,-209.52 1235.1,-210.06 1237.75,-216.54"/>
</g>
<!-- Node36 -->
<g id="node36" class="node">
<title>Node36</title>
<g id="a_node36"><a xlink:title=" ">
<polygon fill="white" stroke="#bfbfbf" points="1100.5,-190.5 1100.5,-209.5 1168.5,-209.5 1168.5,-190.5 1100.5,-190.5"/>
<text text-anchor="middle" x="1134.5" y="-197.5" font-family="Helvetica,sans-Serif" font-size="10.00">sys/time.h</text>
</a>
</g>
</g>
<!-- Node34&#45;&gt;Node36 -->
<g id="edge45" class="edge">
<title>Node34&#45;&gt;Node36</title>
<path fill="none" stroke="midnightblue" d="M1134.5,-246.08C1134.5,-239.01 1134.5,-228.86 1134.5,-219.99"/>
<polygon fill="midnightblue" stroke="midnightblue" points="1138,-219.75 1134.5,-209.75 1131,-219.75 1138,-219.75"/>
</g>
</g>
</svg>
