<?xml version="1.0" encoding="UTF-8" standalone="no"?>
<!DOCTYPE svg PUBLIC "-//W3C//DTD SVG 1.1//EN"
 "http://www.w3.org/Graphics/SVG/1.1/DTD/svg11.dtd">
<!-- Generated by graphviz version 2.43.0 (0)
 -->
<!-- Title: OMSim.cc Pages: 1 -->
<svg width="2193pt" height="487pt"
 viewBox="0.00 0.00 2192.50 487.00" xmlns="http://www.w3.org/2000/svg" xmlns:xlink="http://www.w3.org/1999/xlink">
<g id="graph0" class="graph" transform="scale(1 1) rotate(0) translate(4 483)">
<title>OMSim.cc</title>
<!-- Node1 -->
<g id="node1" class="node">
<title>Node1</title>
<g id="a_node1"><a xlink:title="Implementation of the OMSim class.">
<polygon fill="#bfbfbf" stroke="black" points="1855,-459.5 1855,-478.5 1920,-478.5 1920,-459.5 1855,-459.5"/>
<text text-anchor="middle" x="1887.5" y="-466.5" font-family="Helvetica,sans-Serif" font-size="10.00">OMSim.cc</text>
</a>
</g>
</g>
<!-- Node2 -->
<g id="node2" class="node">
<title>Node2</title>
<g id="a_node2"><a xlink:href="_o_m_sim_8hh.html" target="_top" xlink:title="Main simulation class for the Optical Module (OM) simulation. This file defines the OMSim class,...">
<polygon fill="none" stroke="black" points="1148,-403.5 1148,-422.5 1215,-422.5 1215,-403.5 1148,-403.5"/>
<text text-anchor="middle" x="1181.5" y="-410.5" font-family="Helvetica,sans-Serif" font-size="10.00">OMSim.hh</text>
</a>
</g>
</g>
<!-- Node1&#45;&gt;Node2 -->
<g id="edge1" class="edge">
<title>Node1&#45;&gt;Node2</title>
<path fill="none" stroke="midnightblue" d="M1854.86,-465.5C1740.14,-456.73 1355.29,-427.29 1225.03,-417.33"/>
<polygon fill="midnightblue" stroke="midnightblue" points="1225.25,-413.84 1215.01,-416.56 1224.72,-420.82 1225.25,-413.84"/>
</g>
<!-- Node7 -->
<g id="node7" class="node">
<title>Node7</title>
<g id="a_node7"><a xlink:href="_o_m_sim_logger_8hh_source.html" target="_top" xlink:title=" ">
<polygon fill="none" stroke="black" points="759,-67.5 759,-86.5 858,-86.5 858,-67.5 759,-67.5"/>
<text text-anchor="middle" x="808.5" y="-74.5" font-family="Helvetica,sans-Serif" font-size="10.00">OMSimLogger.hh</text>
</a>
</g>
</g>
<!-- Node1&#45;&gt;Node7 -->
<g id="edge59" class="edge">
<title>Node1&#45;&gt;Node7</title>
<path fill="none" stroke="midnightblue" d="M1905.44,-459.25C1934.95,-443.45 1990.5,-407.19 1990.5,-358 1990.5,-358 1990.5,-358 1990.5,-188 1990.5,-131.04 1108.91,-90.42 868.45,-80.4"/>
<polygon fill="midnightblue" stroke="midnightblue" points="868.29,-76.89 858.16,-79.97 868.01,-83.89 868.29,-76.89"/>
</g>
<!-- Node58 -->
<g id="node45" class="node">
<title>Node58</title>
<g id="a_node45"><a xlink:title=" ">
<polygon fill="none" stroke="#bfbfbf" points="1812.5,-347.5 1812.5,-366.5 1962.5,-366.5 1962.5,-347.5 1812.5,-347.5"/>
<text text-anchor="middle" x="1887.5" y="-354.5" font-family="Helvetica,sans-Serif" font-size="10.00">boost/program_options.hpp</text>
</a>
</g>
</g>
<!-- Node1&#45;&gt;Node58 -->
<g id="edge62" class="edge">
<title>Node1&#45;&gt;Node58</title>
<path fill="none" stroke="midnightblue" d="M1887.5,-459.37C1887.5,-441.62 1887.5,-400.67 1887.5,-376.6"/>
<polygon fill="midnightblue" stroke="midnightblue" points="1891,-376.59 1887.5,-366.59 1884,-376.59 1891,-376.59"/>
</g>
<!-- Node59 -->
<g id="node46" class="node">
<title>Node59</title>
<g id="a_node46"><a xlink:href="_o_m_sim_tools_8hh.html" target="_top" xlink:title="Definition of Tools namespace, a collection of helper methods.">
<polygon fill="none" stroke="black" points="73.5,-179.5 73.5,-198.5 165.5,-198.5 165.5,-179.5 73.5,-179.5"/>
<text text-anchor="middle" x="119.5" y="-186.5" font-family="Helvetica,sans-Serif" font-size="10.00">OMSimTools.hh</text>
</a>
</g>
</g>
<!-- Node1&#45;&gt;Node59 -->
<g id="edge53" class="edge">
<title>Node1&#45;&gt;Node59</title>
<path fill="none" stroke="midnightblue" d="M1854.86,-467.83C1606.86,-466.36 29.5,-453.27 29.5,-358 29.5,-358 29.5,-358 29.5,-300 29.5,-269.9 30.4,-259.05 48.5,-235 58.94,-221.13 75,-210.43 89.21,-202.96"/>
<polygon fill="midnightblue" stroke="midnightblue" points="90.8,-206.08 98.21,-198.51 87.69,-199.81 90.8,-206.08"/>
</g>
<!-- Node62 -->
<g id="node49" class="node">
<title>Node62</title>
<g id="a_node49"><a xlink:href="_o_m_sim_action_initialization_8hh_source.html" target="_top" xlink:title=" ">
<polygon fill="none" stroke="black" points="2020.5,-403.5 2020.5,-422.5 2178.5,-422.5 2178.5,-403.5 2020.5,-403.5"/>
<text text-anchor="middle" x="2099.5" y="-410.5" font-family="Helvetica,sans-Serif" font-size="10.00">OMSimActionInitialization.hh</text>
</a>
</g>
</g>
<!-- Node1&#45;&gt;Node62 -->
<g id="edge60" class="edge">
<title>Node1&#45;&gt;Node62</title>
<path fill="none" stroke="midnightblue" d="M1920.16,-459.68C1956.67,-450.38 2015.96,-435.28 2056.28,-425.01"/>
<polygon fill="midnightblue" stroke="midnightblue" points="2057.28,-428.37 2066.1,-422.51 2055.55,-421.58 2057.28,-428.37"/>
</g>
<!-- Node3 -->
<g id="node3" class="node">
<title>Node3</title>
<g id="a_node3"><a xlink:href="_o_m_sim_detector_construction_8hh_source.html" target="_top" xlink:title=" ">
<polygon fill="none" stroke="black" points="400.5,-347.5 400.5,-366.5 570.5,-366.5 570.5,-347.5 400.5,-347.5"/>
<text text-anchor="middle" x="485.5" y="-354.5" font-family="Helvetica,sans-Serif" font-size="10.00">OMSimDetectorConstruction.hh</text>
</a>
</g>
</g>
<!-- Node2&#45;&gt;Node3 -->
<g id="edge2" class="edge">
<title>Node2&#45;&gt;Node3</title>
<path fill="none" stroke="midnightblue" d="M1147.87,-409.73C1057.86,-403.61 803.77,-385.99 580.81,-367.1"/>
<polygon fill="midnightblue" stroke="midnightblue" points="580.81,-363.58 570.55,-366.22 580.21,-370.56 580.81,-363.58"/>
</g>
<!-- Node39 -->
<g id="node26" class="node">
<title>Node39</title>
<g id="a_node26"><a xlink:title=" ">
<polygon fill="none" stroke="#bfbfbf" points="589,-347.5 589,-366.5 710,-366.5 710,-347.5 589,-347.5"/>
<text text-anchor="middle" x="649.5" y="-354.5" font-family="Helvetica,sans-Serif" font-size="10.00">OMSimPhysicsList.hh</text>
</a>
</g>
</g>
<!-- Node2&#45;&gt;Node39 -->
<g id="edge28" class="edge">
<title>Node2&#45;&gt;Node39</title>
<path fill="none" stroke="midnightblue" d="M1147.93,-408.94C1072.3,-402 882.81,-384.29 724.5,-367 723.03,-366.84 721.55,-366.68 720.06,-366.51"/>
<polygon fill="midnightblue" stroke="midnightblue" points="720.4,-363.03 710.07,-365.38 719.61,-369.98 720.4,-363.03"/>
</g>
<!-- Node40 -->
<g id="node27" class="node">
<title>Node40</title>
<g id="a_node27"><a xlink:title=" ">
<polygon fill="none" stroke="#bfbfbf" points="766,-347.5 766,-366.5 951,-366.5 951,-347.5 766,-347.5"/>
<text text-anchor="middle" x="858.5" y="-354.5" font-family="Helvetica,sans-Serif" font-size="10.00">OMSimPrimaryGeneratorAction.hh</text>
</a>
</g>
</g>
<!-- Node2&#45;&gt;Node40 -->
<g id="edge29" class="edge">
<title>Node2&#45;&gt;Node40</title>
<path fill="none" stroke="midnightblue" d="M1147.85,-406.37C1093.9,-397.36 987.28,-379.53 919.62,-368.22"/>
<polygon fill="midnightblue" stroke="midnightblue" points="919.96,-364.73 909.52,-366.53 918.8,-371.63 919.96,-364.73"/>
</g>
<!-- Node41 -->
<g id="node28" class="node">
<title>Node41</title>
<g id="a_node28"><a xlink:href="_o_m_sim_run_action_8hh_source.html" target="_top" xlink:title=" ">
<polygon fill="none" stroke="black" points="251.5,-291.5 251.5,-310.5 367.5,-310.5 367.5,-291.5 251.5,-291.5"/>
<text text-anchor="middle" x="309.5" y="-298.5" font-family="Helvetica,sans-Serif" font-size="10.00">OMSimRunAction.hh</text>
</a>
</g>
</g>
<!-- Node2&#45;&gt;Node41 -->
<g id="edge30" class="edge">
<title>Node2&#45;&gt;Node41</title>
<path fill="none" stroke="midnightblue" d="M1147.65,-411.28C1005.74,-408.07 462.84,-394.14 391.5,-367 364.32,-356.66 339.06,-333.83 323.96,-318.18"/>
<polygon fill="midnightblue" stroke="midnightblue" points="326.41,-315.67 317.03,-310.75 321.29,-320.45 326.41,-315.67"/>
</g>
<!-- Node45 -->
<g id="node32" class="node">
<title>Node45</title>
<g id="a_node32"><a xlink:title=" ">
<polygon fill="none" stroke="#bfbfbf" points="969,-347.5 969,-366.5 1094,-366.5 1094,-347.5 969,-347.5"/>
<text text-anchor="middle" x="1031.5" y="-354.5" font-family="Helvetica,sans-Serif" font-size="10.00">OMSimEventAction.hh</text>
</a>
</g>
</g>
<!-- Node2&#45;&gt;Node45 -->
<g id="edge36" class="edge">
<title>Node2&#45;&gt;Node45</title>
<path fill="none" stroke="midnightblue" d="M1157.73,-403.44C1132.61,-394.4 1092.79,-380.06 1064.6,-369.92"/>
<polygon fill="midnightblue" stroke="midnightblue" points="1065.75,-366.61 1055.16,-366.52 1063.38,-373.2 1065.75,-366.61"/>
</g>
<!-- Node46 -->
<g id="node33" class="node">
<title>Node46</title>
<g id="a_node33"><a xlink:href="_o_m_sim_tracking_action_8hh_source.html" target="_top" xlink:title=" ">
<polygon fill="none" stroke="black" points="1112.5,-347.5 1112.5,-366.5 1250.5,-366.5 1250.5,-347.5 1112.5,-347.5"/>
<text text-anchor="middle" x="1181.5" y="-354.5" font-family="Helvetica,sans-Serif" font-size="10.00">OMSimTrackingAction.hh</text>
</a>
</g>
</g>
<!-- Node2&#45;&gt;Node46 -->
<g id="edge37" class="edge">
<title>Node2&#45;&gt;Node46</title>
<path fill="none" stroke="midnightblue" d="M1181.5,-403.08C1181.5,-396.01 1181.5,-385.86 1181.5,-376.99"/>
<polygon fill="midnightblue" stroke="midnightblue" points="1185,-376.75 1181.5,-366.75 1178,-376.75 1185,-376.75"/>
</g>
<!-- Node48 -->
<g id="node35" class="node">
<title>Node48</title>
<g id="a_node35"><a xlink:href="_o_m_sim_stepping_action_8hh.html" target="_top" xlink:title="Defines OMSimSteppingAction.Currently it only checks for trapped photons.">
<polygon fill="none" stroke="black" points="1268.5,-347.5 1268.5,-366.5 1408.5,-366.5 1408.5,-347.5 1268.5,-347.5"/>
<text text-anchor="middle" x="1338.5" y="-354.5" font-family="Helvetica,sans-Serif" font-size="10.00">OMSimSteppingAction.hh</text>
</a>
</g>
</g>
<!-- Node2&#45;&gt;Node48 -->
<g id="edge39" class="edge">
<title>Node2&#45;&gt;Node48</title>
<path fill="none" stroke="midnightblue" d="M1206.38,-403.44C1232.79,-394.36 1274.72,-379.94 1304.24,-369.78"/>
<polygon fill="midnightblue" stroke="midnightblue" points="1305.42,-373.08 1313.74,-366.52 1303.14,-366.46 1305.42,-373.08"/>
</g>
<!-- Node50 -->
<g id="node37" class="node">
<title>Node50</title>
<g id="a_node37"><a xlink:href="_o_m_sim_u_iinterface_8hh.html" target="_top" xlink:title=" ">
<polygon fill="none" stroke="black" points="864,-291.5 864,-310.5 985,-310.5 985,-291.5 864,-291.5"/>
<text text-anchor="middle" x="924.5" y="-298.5" font-family="Helvetica,sans-Serif" font-size="10.00">OMSimUIinterface.hh</text>
</a>
</g>
</g>
<!-- Node2&#45;&gt;Node50 -->
<g id="edge41" class="edge">
<title>Node2&#45;&gt;Node50</title>
<path fill="none" stroke="midnightblue" d="M1147.79,-410.97C1051.85,-407.69 782.55,-395.96 756.5,-367 750.55,-360.39 751.09,-354.05 756.5,-347 768.73,-331.07 813.61,-319.54 853.91,-312.14"/>
<polygon fill="midnightblue" stroke="midnightblue" points="854.53,-315.59 863.77,-310.4 853.31,-308.7 854.53,-315.59"/>
</g>
<!-- Node55 -->
<g id="node42" class="node">
<title>Node55</title>
<g id="a_node42"><a xlink:title=" ">
<polygon fill="none" stroke="#bfbfbf" points="1427,-347.5 1427,-366.5 1548,-366.5 1548,-347.5 1427,-347.5"/>
<text text-anchor="middle" x="1487.5" y="-354.5" font-family="Helvetica,sans-Serif" font-size="10.00">G4MTRunManager.hh</text>
</a>
</g>
</g>
<!-- Node2&#45;&gt;Node55 -->
<g id="edge49" class="edge">
<title>Node2&#45;&gt;Node55</title>
<path fill="none" stroke="midnightblue" d="M1215.12,-406.07C1266.7,-396.96 1366.03,-379.44 1429.42,-368.25"/>
<polygon fill="midnightblue" stroke="midnightblue" points="1430.03,-371.7 1439.27,-366.51 1428.81,-364.8 1430.03,-371.7"/>
</g>
<!-- Node56 -->
<g id="node43" class="node">
<title>Node56</title>
<g id="a_node43"><a xlink:title=" ">
<polygon fill="none" stroke="#bfbfbf" points="1566,-347.5 1566,-366.5 1673,-366.5 1673,-347.5 1566,-347.5"/>
<text text-anchor="middle" x="1619.5" y="-354.5" font-family="Helvetica,sans-Serif" font-size="10.00">G4VisExecutive.hh</text>
</a>
</g>
</g>
<!-- Node2&#45;&gt;Node56 -->
<g id="edge50" class="edge">
<title>Node2&#45;&gt;Node56</title>
<path fill="none" stroke="midnightblue" d="M1215.15,-408.22C1279.22,-400.96 1423.43,-384.37 1555.97,-367.04"/>
<polygon fill="midnightblue" stroke="midnightblue" points="1556.44,-370.51 1565.9,-365.74 1555.52,-363.57 1556.44,-370.51"/>
</g>
<!-- Node57 -->
<g id="node44" class="node">
<title>Node57</title>
<g id="a_node44"><a xlink:title=" ">
<polygon fill="none" stroke="#bfbfbf" points="1691,-347.5 1691,-366.5 1794,-366.5 1794,-347.5 1691,-347.5"/>
<text text-anchor="middle" x="1742.5" y="-354.5" font-family="Helvetica,sans-Serif" font-size="10.00">G4UIExecutive.hh</text>
</a>
</g>
</g>
<!-- Node2&#45;&gt;Node57 -->
<g id="edge51" class="edge">
<title>Node2&#45;&gt;Node57</title>
<path fill="none" stroke="midnightblue" d="M1215.22,-409.63C1294.46,-403.92 1498.89,-388.35 1680.92,-367"/>
<polygon fill="midnightblue" stroke="midnightblue" points="1681.42,-370.47 1690.94,-365.82 1680.6,-363.51 1681.42,-370.47"/>
</g>
<!-- Node2&#45;&gt;Node58 -->
<g id="edge52" class="edge">
<title>Node2&#45;&gt;Node58</title>
<path fill="none" stroke="midnightblue" d="M1215.19,-409.95C1307.19,-404.28 1570.68,-387.47 1802.13,-367"/>
<polygon fill="midnightblue" stroke="midnightblue" points="1802.78,-370.46 1812.43,-366.09 1802.16,-363.48 1802.78,-370.46"/>
</g>
<!-- Node4 -->
<g id="node4" class="node">
<title>Node4</title>
<g id="a_node4"><a xlink:href="_o_m_sim_optical_module_8hh_source.html" target="_top" xlink:title=" ">
<polygon fill="none" stroke="black" points="417,-291.5 417,-310.5 554,-310.5 554,-291.5 417,-291.5"/>
<text text-anchor="middle" x="485.5" y="-298.5" font-family="Helvetica,sans-Serif" font-size="10.00">OMSimOpticalModule.hh</text>
</a>
</g>
</g>
<!-- Node3&#45;&gt;Node4 -->
<g id="edge3" class="edge">
<title>Node3&#45;&gt;Node4</title>
<path fill="none" stroke="midnightblue" d="M485.5,-347.08C485.5,-340.01 485.5,-329.86 485.5,-320.99"/>
<polygon fill="midnightblue" stroke="midnightblue" points="489,-320.75 485.5,-310.75 482,-320.75 489,-320.75"/>
</g>
<!-- Node37 -->
<g id="node24" class="node">
<title>Node37</title>
<g id="a_node24"><a xlink:title=" ">
<polygon fill="none" stroke="#bfbfbf" points="572.5,-291.5 572.5,-310.5 634.5,-310.5 634.5,-291.5 572.5,-291.5"/>
<text text-anchor="middle" x="603.5" y="-298.5" font-family="Helvetica,sans-Serif" font-size="10.00">G4Orb.hh</text>
</a>
</g>
</g>
<!-- Node3&#45;&gt;Node37 -->
<g id="edge26" class="edge">
<title>Node3&#45;&gt;Node37</title>
<path fill="none" stroke="midnightblue" d="M504.2,-347.44C523.44,-338.64 553.65,-324.81 575.7,-314.72"/>
<polygon fill="midnightblue" stroke="midnightblue" points="577.25,-317.86 584.89,-310.52 574.34,-311.5 577.25,-317.86"/>
</g>
<!-- Node38 -->
<g id="node25" class="node">
<title>Node38</title>
<g id="a_node25"><a xlink:title=" ">
<polygon fill="none" stroke="#bfbfbf" points="652.5,-291.5 652.5,-310.5 830.5,-310.5 830.5,-291.5 652.5,-291.5"/>
<text text-anchor="middle" x="741.5" y="-298.5" font-family="Helvetica,sans-Serif" font-size="10.00">G4VUserDetectorConstruction.hh</text>
</a>
</g>
</g>
<!-- Node3&#45;&gt;Node38 -->
<g id="edge27" class="edge">
<title>Node3&#45;&gt;Node38</title>
<path fill="none" stroke="midnightblue" d="M526.06,-347.44C570.82,-338 642.88,-322.8 691.2,-312.61"/>
<polygon fill="midnightblue" stroke="midnightblue" points="692.06,-316.01 701.13,-310.52 690.62,-309.16 692.06,-316.01"/>
</g>
<!-- Node5 -->
<g id="node5" class="node">
<title>Node5</title>
<g id="a_node5"><a xlink:href="_o_m_sim_detector_component_8hh.html" target="_top" xlink:title="Provides helper base class OMSimDetectorComponent for constructing and managing detector components i...">
<polygon fill="none" stroke="red" points="726,-179.5 726,-198.5 891,-198.5 891,-179.5 726,-179.5"/>
<text text-anchor="middle" x="808.5" y="-186.5" font-family="Helvetica,sans-Serif" font-size="10.00">OMSimDetectorComponent.hh</text>
</a>
</g>
</g>
<!-- Node4&#45;&gt;Node5 -->
<g id="edge4" class="edge">
<title>Node4&#45;&gt;Node5</title>
<path fill="none" stroke="midnightblue" d="M544.52,-291.49C614.6,-281.1 724.22,-263.82 741.5,-255 763.94,-243.54 783.84,-222.02 796,-206.89"/>
<polygon fill="midnightblue" stroke="midnightblue" points="798.88,-208.9 802.23,-198.85 793.34,-204.61 798.88,-208.9"/>
</g>
<!-- Node26 -->
<g id="node14" class="node">
<title>Node26</title>
<g id="a_node14"><a xlink:href="_o_m_sim_hit_manager_8hh.html" target="_top" xlink:title="Defines structures and classes related to optical module photon hit management.">
<polygon fill="none" stroke="black" points="424,-235.5 424,-254.5 547,-254.5 547,-235.5 424,-235.5"/>
<text text-anchor="middle" x="485.5" y="-242.5" font-family="Helvetica,sans-Serif" font-size="10.00">OMSimHitManager.hh</text>
</a>
</g>
</g>
<!-- Node4&#45;&gt;Node26 -->
<g id="edge13" class="edge">
<title>Node4&#45;&gt;Node26</title>
<path fill="none" stroke="midnightblue" d="M485.5,-291.08C485.5,-284.01 485.5,-273.86 485.5,-264.99"/>
<polygon fill="midnightblue" stroke="midnightblue" points="489,-264.75 485.5,-254.75 482,-264.75 489,-264.75"/>
</g>
<!-- Node34 -->
<g id="node23" class="node">
<title>Node34</title>
<g id="a_node23"><a xlink:href="_o_m_sim_p_m_t_construction_8hh.html" target="_top" xlink:title="Construction of the PMTs.">
<polygon fill="none" stroke="red" points="566,-235.5 566,-254.5 715,-254.5 715,-235.5 566,-235.5"/>
<text text-anchor="middle" x="640.5" y="-242.5" font-family="Helvetica,sans-Serif" font-size="10.00">OMSimPMTConstruction.hh</text>
</a>
</g>
</g>
<!-- Node4&#45;&gt;Node34 -->
<g id="edge22" class="edge">
<title>Node4&#45;&gt;Node34</title>
<path fill="none" stroke="midnightblue" d="M510.06,-291.44C536.02,-282.4 577.17,-268.06 606.3,-257.92"/>
<polygon fill="midnightblue" stroke="midnightblue" points="607.76,-261.11 616.05,-254.52 605.46,-254.5 607.76,-261.11"/>
</g>
<!-- Node6 -->
<g id="node6" class="node">
<title>Node6</title>
<g id="a_node6"><a xlink:href="_o_m_sim_input_data_8hh.html" target="_top" xlink:title="Definition of ParameterTable and OMSimInputData.">
<polygon fill="none" stroke="red" points="751,-123.5 751,-142.5 866,-142.5 866,-123.5 751,-123.5"/>
<text text-anchor="middle" x="808.5" y="-130.5" font-family="Helvetica,sans-Serif" font-size="10.00">OMSimInputData.hh</text>
</a>
</g>
</g>
<!-- Node5&#45;&gt;Node6 -->
<g id="edge5" class="edge">
<title>Node5&#45;&gt;Node6</title>
<path fill="none" stroke="midnightblue" d="M808.5,-179.08C808.5,-172.01 808.5,-161.86 808.5,-152.99"/>
<polygon fill="midnightblue" stroke="midnightblue" points="812,-152.75 808.5,-142.75 805,-152.75 812,-152.75"/>
</g>
<!-- Node22 -->
<g id="node12" class="node">
<title>Node22</title>
<g id="a_node12"><a xlink:title=" ">
<polygon fill="none" stroke="#bfbfbf" points="884,-123.5 884,-142.5 991,-142.5 991,-123.5 884,-123.5"/>
<text text-anchor="middle" x="937.5" y="-130.5" font-family="Helvetica,sans-Serif" font-size="10.00">G4Transform3D.hh</text>
</a>
</g>
</g>
<!-- Node5&#45;&gt;Node22 -->
<g id="edge11" class="edge">
<title>Node5&#45;&gt;Node22</title>
<path fill="none" stroke="midnightblue" d="M828.94,-179.44C850.17,-170.56 883.6,-156.56 907.75,-146.45"/>
<polygon fill="midnightblue" stroke="midnightblue" points="909.28,-149.61 917.16,-142.52 906.58,-143.15 909.28,-149.61"/>
</g>
<!-- Node23 -->
<g id="node13" class="node">
<title>Node23</title>
<g id="a_node13"><a xlink:title=" ">
<polygon fill="none" stroke="#bfbfbf" points="624.5,-123.5 624.5,-142.5 732.5,-142.5 732.5,-123.5 624.5,-123.5"/>
<text text-anchor="middle" x="678.5" y="-130.5" font-family="Helvetica,sans-Serif" font-size="10.00">G4VisAttributes.hh</text>
</a>
</g>
</g>
<!-- Node5&#45;&gt;Node23 -->
<g id="edge12" class="edge">
<title>Node5&#45;&gt;Node23</title>
<path fill="none" stroke="midnightblue" d="M787.9,-179.44C766.51,-170.56 732.82,-156.56 708.48,-146.45"/>
<polygon fill="midnightblue" stroke="midnightblue" points="709.58,-143.12 699,-142.52 706.89,-149.58 709.58,-143.12"/>
</g>
<!-- Node6&#45;&gt;Node7 -->
<g id="edge6" class="edge">
<title>Node6&#45;&gt;Node7</title>
<path fill="none" stroke="midnightblue" d="M808.5,-123.08C808.5,-116.01 808.5,-105.86 808.5,-96.99"/>
<polygon fill="midnightblue" stroke="midnightblue" points="812,-96.75 808.5,-86.75 805,-96.75 812,-96.75"/>
</g>
<!-- Node8 -->
<g id="node8" class="node">
<title>Node8</title>
<g id="a_node8"><a xlink:title=" ">
<polygon fill="none" stroke="#bfbfbf" points="591,-6 591,-25 684,-25 684,-6 591,-6"/>
<text text-anchor="middle" x="637.5" y="-13" font-family="Helvetica,sans-Serif" font-size="10.00">spdlog/spdlog.h</text>
</a>
</g>
</g>
<!-- Node7&#45;&gt;Node8 -->
<g id="edge7" class="edge">
<title>Node7&#45;&gt;Node8</title>
<path fill="none" stroke="midnightblue" d="M784,-67.48C754.54,-57.22 704.92,-39.96 671.7,-28.4"/>
<polygon fill="midnightblue" stroke="midnightblue" points="672.55,-24.99 661.95,-25.01 670.25,-31.6 672.55,-24.99"/>
</g>
<!-- Node9 -->
<g id="node9" class="node">
<title>Node9</title>
<g id="a_node9"><a xlink:title=" ">
<polygon fill="none" stroke="#bfbfbf" points="702,-0.5 702,-30.5 813,-30.5 813,-0.5 702,-0.5"/>
<text text-anchor="start" x="710" y="-18.5" font-family="Helvetica,sans-Serif" font-size="10.00">spdlog/sinks/stdout</text>
<text text-anchor="middle" x="757.5" y="-7.5" font-family="Helvetica,sans-Serif" font-size="10.00">_color_sinks.h</text>
</a>
</g>
</g>
<!-- Node7&#45;&gt;Node9 -->
<g id="edge8" class="edge">
<title>Node7&#45;&gt;Node9</title>
<path fill="none" stroke="midnightblue" d="M801.19,-67.48C794.67,-59.87 784.84,-48.4 776.16,-38.26"/>
<polygon fill="midnightblue" stroke="midnightblue" points="778.69,-35.84 769.52,-30.52 773.37,-40.39 778.69,-35.84"/>
</g>
<!-- Node10 -->
<g id="node10" class="node">
<title>Node10</title>
<g id="a_node10"><a xlink:title=" ">
<polygon fill="none" stroke="#bfbfbf" points="831.5,-6 831.5,-25 889.5,-25 889.5,-6 831.5,-6"/>
<text text-anchor="middle" x="860.5" y="-13" font-family="Helvetica,sans-Serif" font-size="10.00">memory</text>
</a>
</g>
</g>
<!-- Node7&#45;&gt;Node10 -->
<g id="edge9" class="edge">
<title>Node7&#45;&gt;Node10</title>
<path fill="none" stroke="midnightblue" d="M815.95,-67.48C823.83,-58.46 836.44,-44.02 846.24,-32.81"/>
<polygon fill="midnightblue" stroke="midnightblue" points="849.12,-34.84 853.06,-25.01 843.85,-30.24 849.12,-34.84"/>
</g>
<!-- Node11 -->
<g id="node11" class="node">
<title>Node11</title>
<g id="a_node11"><a xlink:title=" ">
<polygon fill="none" stroke="#bfbfbf" points="907.5,-6 907.5,-25 1005.5,-25 1005.5,-6 907.5,-6"/>
<text text-anchor="middle" x="956.5" y="-13" font-family="Helvetica,sans-Serif" font-size="10.00">spdlog/fmt/fmt.h</text>
</a>
</g>
</g>
<!-- Node7&#45;&gt;Node11 -->
<g id="edge10" class="edge">
<title>Node7&#45;&gt;Node11</title>
<path fill="none" stroke="midnightblue" d="M829.7,-67.48C854.87,-57.36 897.04,-40.4 925.78,-28.85"/>
<polygon fill="midnightblue" stroke="midnightblue" points="927.36,-31.99 935.33,-25.01 924.75,-25.49 927.36,-31.99"/>
</g>
<!-- Node27 -->
<g id="node15" class="node">
<title>Node27</title>
<g id="a_node15"><a xlink:href="_o_m_sim_p_m_t_response_8hh.html" target="_top" xlink:title="Simulation of PMT response.">
<polygon fill="none" stroke="red" points="573,-179.5 573,-198.5 708,-198.5 708,-179.5 573,-179.5"/>
<text text-anchor="middle" x="640.5" y="-186.5" font-family="Helvetica,sans-Serif" font-size="10.00">OMSimPMTResponse.hh</text>
</a>
</g>
</g>
<!-- Node26&#45;&gt;Node27 -->
<g id="edge14" class="edge">
<title>Node26&#45;&gt;Node27</title>
<path fill="none" stroke="midnightblue" d="M510.06,-235.44C536.02,-226.4 577.17,-212.06 606.3,-201.92"/>
<polygon fill="midnightblue" stroke="midnightblue" points="607.76,-205.11 616.05,-198.52 605.46,-198.5 607.76,-205.11"/>
</g>
<!-- Node32 -->
<g id="node19" class="node">
<title>Node32</title>
<g id="a_node19"><a xlink:title=" ">
<polygon fill="none" stroke="#bfbfbf" points="343,-179.5 343,-198.5 446,-198.5 446,-179.5 343,-179.5"/>
<text text-anchor="middle" x="394.5" y="-186.5" font-family="Helvetica,sans-Serif" font-size="10.00">G4ThreeVector.hh</text>
</a>
</g>
</g>
<!-- Node26&#45;&gt;Node32 -->
<g id="edge18" class="edge">
<title>Node26&#45;&gt;Node32</title>
<path fill="none" stroke="midnightblue" d="M470.88,-235.32C456.55,-226.82 434.49,-213.73 417.75,-203.8"/>
<polygon fill="midnightblue" stroke="midnightblue" points="419.47,-200.75 409.08,-198.65 415.9,-206.77 419.47,-200.75"/>
</g>
<!-- Node33 -->
<g id="node20" class="node">
<title>Node33</title>
<g id="a_node20"><a xlink:title=" ">
<polygon fill="none" stroke="#bfbfbf" points="909,-179.5 909,-198.5 964,-198.5 964,-179.5 909,-179.5"/>
<text text-anchor="middle" x="936.5" y="-186.5" font-family="Helvetica,sans-Serif" font-size="10.00">fstream</text>
</a>
</g>
</g>
<!-- Node26&#45;&gt;Node33 -->
<g id="edge19" class="edge">
<title>Node26&#45;&gt;Node33</title>
<path fill="none" stroke="midnightblue" d="M547.06,-236.11C550.25,-235.73 553.41,-235.36 556.5,-235 705.49,-217.74 746.71,-224.85 898.54,-198.94"/>
<polygon fill="midnightblue" stroke="midnightblue" points="899.44,-202.34 908.7,-197.18 898.25,-195.44 899.44,-202.34"/>
</g>
<!-- Node18 -->
<g id="node21" class="node">
<title>Node18</title>
<g id="a_node21"><a xlink:title=" ">
<polygon fill="none" stroke="#bfbfbf" points="464.5,-179.5 464.5,-198.5 554.5,-198.5 554.5,-179.5 464.5,-179.5"/>
<text text-anchor="middle" x="509.5" y="-186.5" font-family="Helvetica,sans-Serif" font-size="10.00">G4AutoLock.hh</text>
</a>
</g>
</g>
<!-- Node26&#45;&gt;Node18 -->
<g id="edge20" class="edge">
<title>Node26&#45;&gt;Node18</title>
<path fill="none" stroke="midnightblue" d="M489.46,-235.08C492.71,-227.77 497.42,-217.18 501.45,-208.1"/>
<polygon fill="midnightblue" stroke="midnightblue" points="504.75,-209.31 505.61,-198.75 498.35,-206.47 504.75,-209.31"/>
</g>
<!-- Node19 -->
<g id="node22" class="node">
<title>Node19</title>
<g id="a_node22"><a xlink:title=" ">
<polygon fill="none" stroke="#bfbfbf" points="230.5,-179.5 230.5,-198.5 324.5,-198.5 324.5,-179.5 230.5,-179.5"/>
<text text-anchor="middle" x="277.5" y="-186.5" font-family="Helvetica,sans-Serif" font-size="10.00">G4Threading.hh</text>
</a>
</g>
</g>
<!-- Node26&#45;&gt;Node19 -->
<g id="edge21" class="edge">
<title>Node26&#45;&gt;Node19</title>
<path fill="none" stroke="midnightblue" d="M452.54,-235.44C416.71,-226.14 359.34,-211.25 320.11,-201.06"/>
<polygon fill="midnightblue" stroke="midnightblue" points="320.86,-197.64 310.3,-198.52 319.1,-204.42 320.86,-197.64"/>
</g>
<!-- Node29 -->
<g id="node16" class="node">
<title>Node29</title>
<g id="a_node16"><a xlink:title=" ">
<polygon fill="none" stroke="#bfbfbf" points="1081.5,-123.5 1081.5,-142.5 1119.5,-142.5 1119.5,-123.5 1081.5,-123.5"/>
<text text-anchor="middle" x="1100.5" y="-130.5" font-family="Helvetica,sans-Serif" font-size="10.00">map</text>
</a>
</g>
</g>
<!-- Node27&#45;&gt;Node29 -->
<g id="edge15" class="edge">
<title>Node27&#45;&gt;Node29</title>
<path fill="none" stroke="midnightblue" d="M708.04,-180C710.9,-179.66 713.73,-179.33 716.5,-179 848.83,-163.41 1006.84,-144.94 1071.13,-137.43"/>
<polygon fill="midnightblue" stroke="midnightblue" points="1071.79,-140.88 1081.32,-136.24 1070.98,-133.92 1071.79,-140.88"/>
</g>
<!-- Node30 -->
<g id="node17" class="node">
<title>Node30</title>
<g id="a_node17"><a xlink:title=" ">
<polygon fill="none" stroke="#bfbfbf" points="484,-123.5 484,-142.5 545,-142.5 545,-123.5 484,-123.5"/>
<text text-anchor="middle" x="514.5" y="-130.5" font-family="Helvetica,sans-Serif" font-size="10.00">TGraph.h</text>
</a>
</g>
</g>
<!-- Node27&#45;&gt;Node30 -->
<g id="edge16" class="edge">
<title>Node27&#45;&gt;Node30</title>
<path fill="none" stroke="midnightblue" d="M620.53,-179.44C599.89,-170.6 567.44,-156.69 543.87,-146.59"/>
<polygon fill="midnightblue" stroke="midnightblue" points="544.94,-143.24 534.37,-142.52 542.18,-149.67 544.94,-143.24"/>
</g>
<!-- Node31 -->
<g id="node18" class="node">
<title>Node31</title>
<g id="a_node18"><a xlink:title=" ">
<polygon fill="none" stroke="#bfbfbf" points="292,-123.5 292,-142.5 345,-142.5 345,-123.5 292,-123.5"/>
<text text-anchor="middle" x="318.5" y="-130.5" font-family="Helvetica,sans-Serif" font-size="10.00">TH2D.h</text>
</a>
</g>
</g>
<!-- Node27&#45;&gt;Node31 -->
<g id="edge17" class="edge">
<title>Node27&#45;&gt;Node31</title>
<path fill="none" stroke="midnightblue" d="M589.48,-179.44C524.2,-168.5 412.73,-149.8 355.22,-140.16"/>
<polygon fill="midnightblue" stroke="midnightblue" points="355.57,-136.67 345.13,-138.47 354.42,-143.57 355.57,-136.67"/>
</g>
<!-- Node34&#45;&gt;Node5 -->
<g id="edge23" class="edge">
<title>Node34&#45;&gt;Node5</title>
<path fill="none" stroke="midnightblue" d="M667.12,-235.44C695.51,-226.32 740.64,-211.81 772.25,-201.65"/>
<polygon fill="midnightblue" stroke="midnightblue" points="773.56,-204.91 782,-198.52 771.41,-198.24 773.56,-204.91"/>
</g>
<!-- Node34&#45;&gt;Node27 -->
<g id="edge25" class="edge">
<title>Node34&#45;&gt;Node27</title>
<path fill="none" stroke="midnightblue" d="M640.5,-235.08C640.5,-228.01 640.5,-217.86 640.5,-208.99"/>
<polygon fill="midnightblue" stroke="midnightblue" points="644,-208.75 640.5,-198.75 637,-208.75 644,-208.75"/>
</g>
<!-- Node34&#45;&gt;Node34 -->
<g id="edge24" class="edge">
<title>Node34&#45;&gt;Node34</title>
<path fill="none" stroke="midnightblue" d="M679.95,-254.53C706.76,-257.31 733,-254.13 733,-245 733,-237.01 712.91,-233.58 689.93,-234.71"/>
<polygon fill="midnightblue" stroke="midnightblue" points="689.65,-231.22 679.95,-235.47 690.19,-238.2 689.65,-231.22"/>
</g>
<!-- Node41&#45;&gt;Node7 -->
<g id="edge33" class="edge">
<title>Node41&#45;&gt;Node7</title>
<path fill="none" stroke="midnightblue" d="M278.72,-291.43C260.41,-284.65 238.47,-273.22 226.5,-255 191.49,-201.75 224.16,-148.64 282.5,-123 364.64,-86.9 628.82,-79.7 748.53,-78.31"/>
<polygon fill="midnightblue" stroke="midnightblue" points="748.66,-81.81 758.63,-78.2 748.59,-74.81 748.66,-81.81"/>
</g>
<!-- Node41&#45;&gt;Node26 -->
<g id="edge32" class="edge">
<title>Node41&#45;&gt;Node26</title>
<path fill="none" stroke="midnightblue" d="M337.39,-291.44C367.25,-282.28 414.81,-267.69 447.96,-257.52"/>
<polygon fill="midnightblue" stroke="midnightblue" points="449.21,-260.8 457.74,-254.52 447.16,-254.1 449.21,-260.8"/>
</g>
<!-- Node42 -->
<g id="node29" class="node">
<title>Node42</title>
<g id="a_node29"><a xlink:title=" ">
<polygon fill="none" stroke="#bfbfbf" points="58,-235.5 58,-254.5 175,-254.5 175,-235.5 58,-235.5"/>
<text text-anchor="middle" x="116.5" y="-242.5" font-family="Helvetica,sans-Serif" font-size="10.00">G4UserRunAction.hh</text>
</a>
</g>
</g>
<!-- Node41&#45;&gt;Node42 -->
<g id="edge31" class="edge">
<title>Node41&#45;&gt;Node42</title>
<path fill="none" stroke="midnightblue" d="M278.92,-291.44C245.89,-282.2 193.11,-267.44 156.73,-257.26"/>
<polygon fill="midnightblue" stroke="midnightblue" points="157.51,-253.84 146.94,-254.52 155.63,-260.58 157.51,-253.84"/>
</g>
<!-- Node43 -->
<g id="node30" class="node">
<title>Node43</title>
<g id="a_node30"><a xlink:title=" ">
<polygon fill="none" stroke="#bfbfbf" points="235.5,-235.5 235.5,-254.5 321.5,-254.5 321.5,-235.5 235.5,-235.5"/>
<text text-anchor="middle" x="278.5" y="-242.5" font-family="Helvetica,sans-Serif" font-size="10.00">Randomize.hh</text>
</a>
</g>
</g>
<!-- Node41&#45;&gt;Node43 -->
<g id="edge34" class="edge">
<title>Node41&#45;&gt;Node43</title>
<path fill="none" stroke="midnightblue" d="M304.38,-291.08C300.09,-283.61 293.84,-272.72 288.56,-263.52"/>
<polygon fill="midnightblue" stroke="midnightblue" points="291.54,-261.68 283.52,-254.75 285.47,-265.17 291.54,-261.68"/>
</g>
<!-- Node44 -->
<g id="node31" class="node">
<title>Node44</title>
<g id="a_node31"><a xlink:title=" ">
<polygon fill="none" stroke="#bfbfbf" points="339.5,-235.5 339.5,-254.5 403.5,-254.5 403.5,-235.5 339.5,-235.5"/>
<text text-anchor="middle" x="371.5" y="-242.5" font-family="Helvetica,sans-Serif" font-size="10.00">G4Run.hh</text>
</a>
</g>
</g>
<!-- Node41&#45;&gt;Node44 -->
<g id="edge35" class="edge">
<title>Node41&#45;&gt;Node44</title>
<path fill="none" stroke="midnightblue" d="M319.46,-291.32C328.63,-283.34 342.44,-271.31 353.53,-261.65"/>
<polygon fill="midnightblue" stroke="midnightblue" points="356.12,-264.04 361.36,-254.83 351.52,-258.76 356.12,-264.04"/>
</g>
<!-- Node47 -->
<g id="node34" class="node">
<title>Node47</title>
<g id="a_node34"><a xlink:title=" ">
<polygon fill="none" stroke="#bfbfbf" points="1112,-291.5 1112,-310.5 1251,-310.5 1251,-291.5 1112,-291.5"/>
<text text-anchor="middle" x="1181.5" y="-298.5" font-family="Helvetica,sans-Serif" font-size="10.00">G4UserTrackingAction.hh</text>
</a>
</g>
</g>
<!-- Node46&#45;&gt;Node47 -->
<g id="edge38" class="edge">
<title>Node46&#45;&gt;Node47</title>
<path fill="none" stroke="midnightblue" d="M1181.5,-347.08C1181.5,-340.01 1181.5,-329.86 1181.5,-320.99"/>
<polygon fill="midnightblue" stroke="midnightblue" points="1185,-320.75 1181.5,-310.75 1178,-320.75 1185,-320.75"/>
</g>
<!-- Node49 -->
<g id="node36" class="node">
<title>Node49</title>
<g id="a_node36"><a xlink:title=" ">
<polygon fill="none" stroke="#bfbfbf" points="1269,-291.5 1269,-310.5 1410,-310.5 1410,-291.5 1269,-291.5"/>
<text text-anchor="middle" x="1339.5" y="-298.5" font-family="Helvetica,sans-Serif" font-size="10.00">G4UserSteppingAction.hh</text>
</a>
</g>
</g>
<!-- Node48&#45;&gt;Node49 -->
<g id="edge40" class="edge">
<title>Node48&#45;&gt;Node49</title>
<path fill="none" stroke="midnightblue" d="M1338.67,-347.08C1338.8,-340.01 1338.98,-329.86 1339.15,-320.99"/>
<polygon fill="midnightblue" stroke="midnightblue" points="1342.65,-320.81 1339.34,-310.75 1335.65,-320.68 1342.65,-320.81"/>
</g>
<!-- Node51 -->
<g id="node38" class="node">
<title>Node51</title>
<g id="a_node38"><a xlink:href="_o_m_sim_command_args_table_8hh.html" target="_top" xlink:title="Definition of the OMSimCommandArgsTable singleton class, which controls user args.">
<polygon fill="none" stroke="black" points="1021.5,-235.5 1021.5,-254.5 1185.5,-254.5 1185.5,-235.5 1021.5,-235.5"/>
<text text-anchor="middle" x="1103.5" y="-242.5" font-family="Helvetica,sans-Serif" font-size="10.00">OMSimCommandArgsTable.hh</text>
</a>
</g>
</g>
<!-- Node50&#45;&gt;Node51 -->
<g id="edge42" class="edge">
<title>Node50&#45;&gt;Node51</title>
<path fill="none" stroke="midnightblue" d="M952.86,-291.44C983.24,-282.28 1031.61,-267.69 1065.32,-257.52"/>
<polygon fill="midnightblue" stroke="midnightblue" points="1066.71,-260.76 1075.27,-254.52 1064.68,-254.05 1066.71,-260.76"/>
</g>
<!-- Node54 -->
<g id="node41" class="node">
<title>Node54</title>
<g id="a_node41"><a xlink:title=" ">
<polygon fill="none" stroke="#bfbfbf" points="875.5,-235.5 875.5,-254.5 973.5,-254.5 973.5,-235.5 875.5,-235.5"/>
<text text-anchor="middle" x="924.5" y="-242.5" font-family="Helvetica,sans-Serif" font-size="10.00">G4UImanager.hh</text>
</a>
</g>
</g>
<!-- Node50&#45;&gt;Node54 -->
<g id="edge48" class="edge">
<title>Node50&#45;&gt;Node54</title>
<path fill="none" stroke="midnightblue" d="M924.5,-291.08C924.5,-284.01 924.5,-273.86 924.5,-264.99"/>
<polygon fill="midnightblue" stroke="midnightblue" points="928,-264.75 924.5,-254.75 921,-264.75 928,-264.75"/>
</g>
<!-- Node51&#45;&gt;Node7 -->
<g id="edge43" class="edge">
<title>Node51&#45;&gt;Node7</title>
<path fill="none" stroke="midnightblue" d="M1130.43,-235.36C1147.22,-228.41 1167.48,-216.82 1177.5,-199 1198.29,-162.02 1134.66,-126.33 1128.5,-123 1084.82,-99.37 948.49,-86.9 868.57,-81.46"/>
<polygon fill="midnightblue" stroke="midnightblue" points="868.37,-77.94 858.16,-80.77 867.9,-84.92 868.37,-77.94"/>
</g>
<!-- Node51&#45;&gt;Node29 -->
<g id="edge47" class="edge">
<title>Node51&#45;&gt;Node29</title>
<path fill="none" stroke="midnightblue" d="M1121.19,-235.5C1142.3,-224.08 1173.36,-202.49 1161.5,-179 1154.48,-165.1 1140.93,-154.44 1128.37,-146.99"/>
<polygon fill="midnightblue" stroke="midnightblue" points="1129.97,-143.88 1119.52,-142.14 1126.6,-150.01 1129.97,-143.88"/>
</g>
<!-- Node51&#45;&gt;Node33 -->
<g id="edge44" class="edge">
<title>Node51&#45;&gt;Node33</title>
<path fill="none" stroke="midnightblue" d="M1077.04,-235.44C1048.82,-226.32 1003.96,-211.81 972.53,-201.65"/>
<polygon fill="midnightblue" stroke="midnightblue" points="973.43,-198.26 962.84,-198.52 971.28,-204.92 973.43,-198.26"/>
</g>
<!-- Node52 -->
<g id="node39" class="node">
<title>Node52</title>
<g id="a_node39"><a xlink:title=" ">
<polygon fill="none" stroke="#bfbfbf" points="982.5,-179.5 982.5,-198.5 1066.5,-198.5 1066.5,-179.5 982.5,-179.5"/>
<text text-anchor="middle" x="1024.5" y="-186.5" font-family="Helvetica,sans-Serif" font-size="10.00">boost/any.hpp</text>
</a>
</g>
</g>
<!-- Node51&#45;&gt;Node52 -->
<g id="edge45" class="edge">
<title>Node51&#45;&gt;Node52</title>
<path fill="none" stroke="midnightblue" d="M1090.81,-235.32C1078.6,-226.98 1059.92,-214.21 1045.5,-204.35"/>
<polygon fill="midnightblue" stroke="midnightblue" points="1047.39,-201.41 1037.16,-198.65 1043.44,-207.19 1047.39,-201.41"/>
</g>
<!-- Node53 -->
<g id="node40" class="node">
<title>Node53</title>
<g id="a_node40"><a xlink:title=" ">
<polygon fill="none" stroke="#bfbfbf" points="1084.5,-179.5 1084.5,-198.5 1152.5,-198.5 1152.5,-179.5 1084.5,-179.5"/>
<text text-anchor="middle" x="1118.5" y="-186.5" font-family="Helvetica,sans-Serif" font-size="10.00">sys/time.h</text>
</a>
</g>
</g>
<!-- Node51&#45;&gt;Node53 -->
<g id="edge46" class="edge">
<title>Node51&#45;&gt;Node53</title>
<path fill="none" stroke="midnightblue" d="M1105.98,-235.08C1107.99,-227.85 1110.89,-217.41 1113.39,-208.4"/>
<polygon fill="midnightblue" stroke="midnightblue" points="1116.76,-209.32 1116.07,-198.75 1110.02,-207.45 1116.76,-209.32"/>
</g>
<!-- Node59&#45;&gt;Node7 -->
<g id="edge54" class="edge">
<title>Node59&#45;&gt;Node7</title>
<path fill="none" stroke="midnightblue" d="M125.52,-179.31C136.24,-164.67 160.17,-135.45 188.5,-123 287.8,-79.37 613.42,-76.51 748.72,-77.3"/>
<polygon fill="midnightblue" stroke="midnightblue" points="748.88,-80.8 758.9,-77.37 748.92,-73.8 748.88,-80.8"/>
</g>
<!-- Node59&#45;&gt;Node30 -->
<g id="edge56" class="edge">
<title>Node59&#45;&gt;Node30</title>
<path fill="none" stroke="midnightblue" d="M165.58,-181.7C243.37,-171.07 399.45,-149.73 473.59,-139.59"/>
<polygon fill="midnightblue" stroke="midnightblue" points="474.49,-143 483.92,-138.18 473.54,-136.07 474.49,-143"/>
</g>
<!-- Node59&#45;&gt;Node31 -->
<g id="edge57" class="edge">
<title>Node59&#45;&gt;Node31</title>
<path fill="none" stroke="midnightblue" d="M151.03,-179.44C186.59,-169.79 244.35,-154.12 281.88,-143.94"/>
<polygon fill="midnightblue" stroke="midnightblue" points="283.16,-147.22 291.89,-141.22 281.32,-140.46 283.16,-147.22"/>
</g>
<!-- Node60 -->
<g id="node47" class="node">
<title>Node60</title>
<g id="a_node47"><a xlink:title=" ">
<polygon fill="none" stroke="#bfbfbf" points="0,-123.5 0,-142.5 67,-142.5 67,-123.5 0,-123.5"/>
<text text-anchor="middle" x="33.5" y="-130.5" font-family="Helvetica,sans-Serif" font-size="10.00">globals.hh</text>
</a>
</g>
</g>
<!-- Node59&#45;&gt;Node60 -->
<g id="edge55" class="edge">
<title>Node59&#45;&gt;Node60</title>
<path fill="none" stroke="midnightblue" d="M105.68,-179.32C92.27,-170.9 71.68,-157.97 55.91,-148.07"/>
<polygon fill="midnightblue" stroke="midnightblue" points="57.61,-145.01 47.28,-142.65 53.89,-150.94 57.61,-145.01"/>
</g>
<!-- Node61 -->
<g id="node48" class="node">
<title>Node61</title>
<g id="a_node48"><a xlink:title=" ">
<polygon fill="none" stroke="#bfbfbf" points="85,-123.5 85,-142.5 136,-142.5 136,-123.5 85,-123.5"/>
<text text-anchor="middle" x="110.5" y="-130.5" font-family="Helvetica,sans-Serif" font-size="10.00">variant</text>
</a>
</g>
</g>
<!-- Node59&#45;&gt;Node61 -->
<g id="edge58" class="edge">
<title>Node59&#45;&gt;Node61</title>
<path fill="none" stroke="midnightblue" d="M118.01,-179.08C116.82,-171.93 115.11,-161.64 113.62,-152.69"/>
<polygon fill="midnightblue" stroke="midnightblue" points="117.05,-152.04 111.96,-142.75 110.15,-153.19 117.05,-152.04"/>
</g>
<!-- Node63 -->
<g id="node50" class="node">
<title>Node63</title>
<g id="a_node50"><a xlink:title=" ">
<polygon fill="none" stroke="#bfbfbf" points="2018.5,-347.5 2018.5,-366.5 2184.5,-366.5 2184.5,-347.5 2018.5,-347.5"/>
<text text-anchor="middle" x="2101.5" y="-354.5" font-family="Helvetica,sans-Serif" font-size="10.00">G4VUserActionInitialization.hh</text>
</a>
</g>
</g>
<!-- Node62&#45;&gt;Node63 -->
<g id="edge61" class="edge">
<title>Node62&#45;&gt;Node63</title>
<path fill="none" stroke="midnightblue" d="M2099.83,-403.08C2100.09,-396.01 2100.47,-385.86 2100.8,-376.99"/>
<polygon fill="midnightblue" stroke="midnightblue" points="2104.3,-376.87 2101.18,-366.75 2097.31,-376.61 2104.3,-376.87"/>
</g>
</g>
</svg>
