<?xml version="1.0" encoding="UTF-8" standalone="no"?>
<!DOCTYPE svg PUBLIC "-//W3C//DTD SVG 1.1//EN"
 "http://www.w3.org/Graphics/SVG/1.1/DTD/svg11.dtd">
<!-- Generated by graphviz version 2.43.0 (0)
 -->
<!-- Title: OMSim_WavePID_study.cc Pages: 1 -->
<svg width="1476pt" height="489pt"
 viewBox="0.00 0.00 1476.00 489.00" xmlns="http://www.w3.org/2000/svg" xmlns:xlink="http://www.w3.org/1999/xlink">
<g id="graph0" class="graph" transform="scale(1 1) rotate(0) translate(4 485)">
<title>OMSim_WavePID_study.cc</title>
<!-- Node1 -->
<g id="Node000001" class="node">
<title>Node1</title>
<g id="a_Node000001"><a xlink:title="Main executable for WavePID photon origin tracking study.">
<polygon fill="#999999" stroke="#666666" points="1141.5,-481 996.5,-481 996.5,-462 1141.5,-462 1141.5,-481"/>
<text text-anchor="middle" x="1069" y="-469" font-family="Helvetica,sans-Serif" font-size="10.00">OMSim_WavePID_study.cc</text>
</a>
</g>
</g>
<!-- Node2 -->
<g id="Node000002" class="node">
<title>Node2</title>
<g id="a_Node000002"><a xlink:title=" ">
<polygon fill="#e0e0e0" stroke="#999999" points="676.5,-426 609.5,-426 609.5,-407 676.5,-407 676.5,-426"/>
<text text-anchor="middle" x="643" y="-414" font-family="Helvetica,sans-Serif" font-size="10.00">OMSim.hh</text>
</a>
</g>
</g>
<!-- Node1&#45;&gt;Node2 -->
<g id="edge1_Node000001_Node000002" class="edge">
<title>Node1&#45;&gt;Node2</title>
<g id="a_edge1_Node000001_Node000002"><a xlink:title=" ">
<path fill="none" stroke="#63b8ff" d="M996.41,-463.8C921.39,-456.48 800.71,-443.62 686.71,-425.99"/>
<polygon fill="#63b8ff" stroke="#63b8ff" points="687.18,-422.52 676.76,-424.44 686.1,-429.44 687.18,-422.52"/>
</a>
</g>
</g>
<!-- Node3 -->
<g id="Node000003" class="node">
<title>Node3</title>
<g id="a_Node000003"><a xlink:href="_o_m_sim_wave_p_i_d_detector_8hh.html" target="_top" xlink:title="Detector construction for WavePID simulation study.">
<polygon fill="white" stroke="#666666" points="847,-426 695,-426 695,-407 847,-407 847,-426"/>
<text text-anchor="middle" x="771" y="-414" font-family="Helvetica,sans-Serif" font-size="10.00">OMSimWavePIDDetector.hh</text>
</a>
</g>
</g>
<!-- Node1&#45;&gt;Node3 -->
<g id="edge2_Node000001_Node000003" class="edge">
<title>Node1&#45;&gt;Node3</title>
<g id="a_edge2_Node000001_Node000003"><a xlink:title=" ">
<path fill="none" stroke="#63b8ff" d="M1021.12,-461.98C968.92,-452.7 885.38,-437.84 829.38,-427.88"/>
<polygon fill="#63b8ff" stroke="#63b8ff" points="829.71,-424.39 819.25,-426.08 828.49,-431.28 829.71,-424.39"/>
</a>
</g>
</g>
<!-- Node8 -->
<g id="Node000008" class="node">
<title>Node8</title>
<g id="a_Node000008"><a xlink:href="_o_m_sim_logger_8hh_source.html" target="_top" xlink:title=" ">
<polygon fill="white" stroke="#666666" points="1261.5,-90.5 1162.5,-90.5 1162.5,-71.5 1261.5,-71.5 1261.5,-90.5"/>
<text text-anchor="middle" x="1212" y="-78.5" font-family="Helvetica,sans-Serif" font-size="10.00">OMSimLogger.hh</text>
</a>
</g>
</g>
<!-- Node1&#45;&gt;Node8 -->
<g id="edge50_Node000001_Node000008" class="edge">
<title>Node1&#45;&gt;Node8</title>
<g id="a_edge50_Node000001_Node000008"><a xlink:title=" ">
<path fill="none" stroke="#63b8ff" d="M1123.11,-461.92C1176.76,-449.97 1251,-422.57 1251,-362.5 1251,-362.5 1251,-362.5 1251,-195.5 1251,-160.07 1233.79,-121.62 1222.23,-99.8"/>
<polygon fill="#63b8ff" stroke="#63b8ff" points="1225.15,-97.84 1217.26,-90.77 1219.02,-101.21 1225.15,-97.84"/>
</a>
</g>
</g>
<!-- Node11 -->
<g id="Node000011" class="node">
<title>Node11</title>
<g id="a_Node000011"><a xlink:title=" ">
<polygon fill="#e0e0e0" stroke="#999999" points="1353,-24.5 1295,-24.5 1295,-5.5 1353,-5.5 1353,-24.5"/>
<text text-anchor="middle" x="1324" y="-12.5" font-family="Helvetica,sans-Serif" font-size="10.00">memory</text>
</a>
</g>
</g>
<!-- Node1&#45;&gt;Node11 -->
<g id="edge52_Node000001_Node000011" class="edge">
<title>Node1&#45;&gt;Node11</title>
<g id="a_edge52_Node000001_Node000011"><a xlink:title=" ">
<path fill="none" stroke="#63b8ff" d="M1141.67,-464.76C1206.08,-455.22 1290,-429.87 1290,-362.5 1290,-362.5 1290,-362.5 1290,-140.5 1290,-101.45 1305.76,-57.86 1315.82,-34.01"/>
<polygon fill="#63b8ff" stroke="#63b8ff" points="1319.17,-35.1 1319.97,-24.53 1312.75,-32.29 1319.17,-35.1"/>
</a>
</g>
</g>
<!-- Node27 -->
<g id="Node000027" class="node">
<title>Node27</title>
<g id="a_Node000027"><a xlink:title=" ">
<polygon fill="#e0e0e0" stroke="#999999" points="936.5,-261 813.5,-261 813.5,-242 936.5,-242 936.5,-261"/>
<text text-anchor="middle" x="875" y="-249" font-family="Helvetica,sans-Serif" font-size="10.00">OMSimHitManager.hh</text>
</a>
</g>
</g>
<!-- Node1&#45;&gt;Node27 -->
<g id="edge40_Node000001_Node000027" class="edge">
<title>Node1&#45;&gt;Node27</title>
<g id="a_edge40_Node000001_Node000027"><a xlink:title=" ">
<path fill="none" stroke="#63b8ff" d="M1052.82,-461.94C1016.92,-441.96 930.94,-388.36 895,-316 887.84,-301.59 882.55,-284.07 879.22,-271.09"/>
<polygon fill="#63b8ff" stroke="#63b8ff" points="882.54,-269.94 876.79,-261.04 875.74,-271.58 882.54,-269.94"/>
</a>
</g>
</g>
<!-- Node38 -->
<g id="Node000038" class="node">
<title>Node38</title>
<g id="a_Node000038"><a xlink:href="_o_m_sim_command_args_table_8hh.html" target="_top" xlink:title="Definition of the OMSimCommandArgsTable singleton class, which controls user args.">
<polygon fill="white" stroke="#666666" points="1107,-371 943,-371 943,-352 1107,-352 1107,-371"/>
<text text-anchor="middle" x="1025" y="-359" font-family="Helvetica,sans-Serif" font-size="10.00">OMSimCommandArgsTable.hh</text>
</a>
</g>
</g>
<!-- Node1&#45;&gt;Node38 -->
<g id="edge41_Node000001_Node000038" class="edge">
<title>Node1&#45;&gt;Node38</title>
<g id="a_edge41_Node000001_Node000038"><a xlink:title=" ">
<path fill="none" stroke="#63b8ff" d="M1063.71,-461.88C1058.48,-453.09 1050.47,-438.94 1045,-426 1038.81,-411.34 1033.49,-394.09 1029.9,-381.26"/>
<polygon fill="#63b8ff" stroke="#63b8ff" points="1033.2,-380.05 1027.21,-371.31 1026.44,-381.88 1033.2,-380.05"/>
</a>
</g>
</g>
<!-- Node42 -->
<g id="Node000042" class="node">
<title>Node42</title>
<g id="a_Node000042"><a xlink:href="_o_m_sim_u_iinterface_8hh.html" target="_top" xlink:title=" ">
<polygon fill="white" stroke="#666666" points="1174.5,-426 1053.5,-426 1053.5,-407 1174.5,-407 1174.5,-426"/>
<text text-anchor="middle" x="1114" y="-414" font-family="Helvetica,sans-Serif" font-size="10.00">OMSimUIinterface.hh</text>
</a>
</g>
</g>
<!-- Node1&#45;&gt;Node42 -->
<g id="edge47_Node000001_Node000042" class="edge">
<title>Node1&#45;&gt;Node42</title>
<g id="a_edge47_Node000001_Node000042"><a xlink:title=" ">
<path fill="none" stroke="#63b8ff" d="M1076.43,-461.75C1082.85,-454.18 1092.31,-443.05 1100.12,-433.84"/>
<polygon fill="#63b8ff" stroke="#63b8ff" points="1102.9,-435.98 1106.71,-426.09 1097.57,-431.45 1102.9,-435.98"/>
</a>
</g>
</g>
<!-- Node44 -->
<g id="Node000044" class="node">
<title>Node44</title>
<g id="a_Node000044"><a xlink:title=" ">
<polygon fill="#e0e0e0" stroke="#999999" points="1468,-426 1318,-426 1318,-407 1468,-407 1468,-426"/>
<text text-anchor="middle" x="1393" y="-414" font-family="Helvetica,sans-Serif" font-size="10.00">boost/program_options.hpp</text>
</a>
</g>
</g>
<!-- Node1&#45;&gt;Node44 -->
<g id="edge51_Node000001_Node000044" class="edge">
<title>Node1&#45;&gt;Node44</title>
<g id="a_edge51_Node000001_Node000044"><a xlink:title=" ">
<path fill="none" stroke="#63b8ff" d="M1121.06,-461.98C1178.24,-452.63 1270.04,-437.61 1330.93,-427.65"/>
<polygon fill="#63b8ff" stroke="#63b8ff" points="1331.5,-431.11 1340.8,-426.04 1330.37,-424.2 1331.5,-431.11"/>
</a>
</g>
</g>
<!-- Node4 -->
<g id="Node000004" class="node">
<title>Node4</title>
<g id="a_Node000004"><a xlink:href="_o_m_sim_detector_construction_8hh_source.html" target="_top" xlink:title=" ">
<polygon fill="white" stroke="#666666" points="815,-371 645,-371 645,-352 815,-352 815,-371"/>
<text text-anchor="middle" x="730" y="-359" font-family="Helvetica,sans-Serif" font-size="10.00">OMSimDetectorConstruction.hh</text>
</a>
</g>
</g>
<!-- Node3&#45;&gt;Node4 -->
<g id="edge3_Node000003_Node000004" class="edge">
<title>Node3&#45;&gt;Node4</title>
<g id="a_edge3_Node000003_Node000004"><a xlink:title=" ">
<path fill="none" stroke="#63b8ff" d="M764.23,-406.75C758.44,-399.26 749.94,-388.28 742.86,-379.13"/>
<polygon fill="#63b8ff" stroke="#63b8ff" points="745.53,-376.86 736.64,-371.09 739.99,-381.14 745.53,-376.86"/>
</a>
</g>
</g>
<!-- Node5 -->
<g id="Node000005" class="node">
<title>Node5</title>
<g id="a_Node000005"><a xlink:href="_o_m_sim_optical_module_8hh_source.html" target="_top" xlink:title=" ">
<polygon fill="white" stroke="#666666" points="766.5,-316 629.5,-316 629.5,-297 766.5,-297 766.5,-316"/>
<text text-anchor="middle" x="698" y="-304" font-family="Helvetica,sans-Serif" font-size="10.00">OMSimOpticalModule.hh</text>
</a>
</g>
</g>
<!-- Node4&#45;&gt;Node5 -->
<g id="edge4_Node000004_Node000005" class="edge">
<title>Node4&#45;&gt;Node5</title>
<g id="a_edge4_Node000004_Node000005"><a xlink:title=" ">
<path fill="none" stroke="#63b8ff" d="M724.72,-351.75C720.29,-344.42 713.84,-333.73 708.38,-324.7"/>
<polygon fill="#63b8ff" stroke="#63b8ff" points="711.35,-322.84 703.19,-316.09 705.36,-326.46 711.35,-322.84"/>
</a>
</g>
</g>
<!-- Node36 -->
<g id="Node000036" class="node">
<title>Node36</title>
<g id="a_Node000036"><a xlink:title=" ">
<polygon fill="#e0e0e0" stroke="#999999" points="847,-316 785,-316 785,-297 847,-297 847,-316"/>
<text text-anchor="middle" x="816" y="-304" font-family="Helvetica,sans-Serif" font-size="10.00">G4Orb.hh</text>
</a>
</g>
</g>
<!-- Node4&#45;&gt;Node36 -->
<g id="edge38_Node000004_Node000036" class="edge">
<title>Node4&#45;&gt;Node36</title>
<g id="a_edge38_Node000004_Node000036"><a xlink:title=" ">
<path fill="none" stroke="#63b8ff" d="M743.82,-351.98C757.15,-343.77 777.58,-331.18 793.31,-321.49"/>
<polygon fill="#63b8ff" stroke="#63b8ff" points="795.25,-324.4 801.93,-316.17 791.58,-318.44 795.25,-324.4"/>
</a>
</g>
</g>
<!-- Node37 -->
<g id="Node000037" class="node">
<title>Node37</title>
<g id="a_Node000037"><a xlink:title=" ">
<polygon fill="#e0e0e0" stroke="#999999" points="611,-316 433,-316 433,-297 611,-297 611,-316"/>
<text text-anchor="middle" x="522" y="-304" font-family="Helvetica,sans-Serif" font-size="10.00">G4VUserDetectorConstruction.hh</text>
</a>
</g>
</g>
<!-- Node4&#45;&gt;Node37 -->
<g id="edge39_Node000004_Node000037" class="edge">
<title>Node4&#45;&gt;Node37</title>
<g id="a_edge39_Node000004_Node000037"><a xlink:title=" ">
<path fill="none" stroke="#63b8ff" d="M696.58,-351.98C661.06,-342.93 604.73,-328.58 565.7,-318.64"/>
<polygon fill="#63b8ff" stroke="#63b8ff" points="566.24,-315.16 555.68,-316.08 564.51,-321.94 566.24,-315.16"/>
</a>
</g>
</g>
<!-- Node6 -->
<g id="Node000006" class="node">
<title>Node6</title>
<g id="a_Node000006"><a xlink:href="_o_m_sim_detector_component_8hh.html" target="_top" xlink:title="Provides helper base class OMSimDetectorComponent for constructing and managing detector components i...">
<polygon fill="white" stroke="#666666" points="629.5,-206 464.5,-206 464.5,-187 629.5,-187 629.5,-206"/>
<text text-anchor="middle" x="547" y="-194" font-family="Helvetica,sans-Serif" font-size="10.00">OMSimDetectorComponent.hh</text>
</a>
</g>
</g>
<!-- Node5&#45;&gt;Node6 -->
<g id="edge5_Node000005_Node000006" class="edge">
<title>Node5&#45;&gt;Node6</title>
<g id="a_edge5_Node000005_Node000006"><a xlink:title=" ">
<path fill="none" stroke="#63b8ff" d="M680.42,-296.95C663.97,-288.64 639.02,-275.23 619,-261 598.56,-246.47 577.27,-227.08 563.2,-213.57"/>
<polygon fill="#63b8ff" stroke="#63b8ff" points="565.41,-210.84 555.8,-206.37 560.53,-215.86 565.41,-210.84"/>
</a>
</g>
</g>
<!-- Node5&#45;&gt;Node27 -->
<g id="edge26_Node000005_Node000027" class="edge">
<title>Node5&#45;&gt;Node27</title>
<g id="a_edge26_Node000005_Node000027"><a xlink:title=" ">
<path fill="none" stroke="#63b8ff" d="M726.44,-296.98C756.28,-288.05 803.38,-273.94 836.53,-264.02"/>
<polygon fill="#63b8ff" stroke="#63b8ff" points="837.76,-267.3 846.34,-261.08 835.76,-260.6 837.76,-267.3"/>
</a>
</g>
</g>
<!-- Node28 -->
<g id="Node000028" class="node">
<title>Node28</title>
<g id="a_Node000028"><a xlink:href="_o_m_sim_p_m_t_construction_8hh.html" target="_top" xlink:title="Construction of the PMTs.">
<polygon fill="white" stroke="#666666" points="777.5,-261 628.5,-261 628.5,-242 777.5,-242 777.5,-261"/>
<text text-anchor="middle" x="703" y="-249" font-family="Helvetica,sans-Serif" font-size="10.00">OMSimPMTConstruction.hh</text>
</a>
</g>
</g>
<!-- Node5&#45;&gt;Node28 -->
<g id="edge27_Node000005_Node000028" class="edge">
<title>Node5&#45;&gt;Node28</title>
<g id="a_edge27_Node000005_Node000028"><a xlink:title=" ">
<path fill="none" stroke="#63b8ff" d="M698.83,-296.75C699.48,-289.8 700.42,-279.85 701.24,-271.13"/>
<polygon fill="#63b8ff" stroke="#63b8ff" points="704.73,-271.37 702.19,-261.09 697.77,-270.72 704.73,-271.37"/>
</a>
</g>
</g>
<!-- Node7 -->
<g id="Node000007" class="node">
<title>Node7</title>
<g id="a_Node000007"><a xlink:href="_o_m_sim_input_data_8hh.html" target="_top" xlink:title="Definition of ParameterTable and OMSimInputData.">
<polygon fill="white" stroke="#666666" points="475.5,-151 360.5,-151 360.5,-132 475.5,-132 475.5,-151"/>
<text text-anchor="middle" x="418" y="-139" font-family="Helvetica,sans-Serif" font-size="10.00">OMSimInputData.hh</text>
</a>
</g>
</g>
<!-- Node6&#45;&gt;Node7 -->
<g id="edge6_Node000006_Node000007" class="edge">
<title>Node6&#45;&gt;Node7</title>
<g id="a_edge6_Node000006_Node000007"><a xlink:title=" ">
<path fill="none" stroke="#63b8ff" d="M526.27,-186.98C505.24,-178.34 472.45,-164.87 448.46,-155.02"/>
<polygon fill="#63b8ff" stroke="#63b8ff" points="449.68,-151.73 439.1,-151.17 447.02,-158.21 449.68,-151.73"/>
</a>
</g>
</g>
<!-- Node23 -->
<g id="Node000023" class="node">
<title>Node23</title>
<g id="a_Node000023"><a xlink:title=" ">
<polygon fill="#e0e0e0" stroke="#999999" points="600.5,-151 493.5,-151 493.5,-132 600.5,-132 600.5,-151"/>
<text text-anchor="middle" x="547" y="-139" font-family="Helvetica,sans-Serif" font-size="10.00">G4Transform3D.hh</text>
</a>
</g>
</g>
<!-- Node6&#45;&gt;Node23 -->
<g id="edge22_Node000006_Node000023" class="edge">
<title>Node6&#45;&gt;Node23</title>
<g id="a_edge22_Node000006_Node000023"><a xlink:title=" ">
<path fill="none" stroke="#63b8ff" d="M547,-186.75C547,-179.8 547,-169.85 547,-161.13"/>
<polygon fill="#63b8ff" stroke="#63b8ff" points="550.5,-161.09 547,-151.09 543.5,-161.09 550.5,-161.09"/>
</a>
</g>
</g>
<!-- Node24 -->
<g id="Node000024" class="node">
<title>Node24</title>
<g id="a_Node000024"><a xlink:title=" ">
<polygon fill="#e0e0e0" stroke="#999999" points="214,-151 106,-151 106,-132 214,-132 214,-151"/>
<text text-anchor="middle" x="160" y="-139" font-family="Helvetica,sans-Serif" font-size="10.00">G4VisAttributes.hh</text>
</a>
</g>
</g>
<!-- Node6&#45;&gt;Node24 -->
<g id="edge23_Node000006_Node000024" class="edge">
<title>Node6&#45;&gt;Node24</title>
<g id="a_edge23_Node000006_Node000024"><a xlink:title=" ">
<path fill="none" stroke="#63b8ff" d="M484.82,-186.98C413.44,-177.21 296.92,-161.25 224.56,-151.34"/>
<polygon fill="#63b8ff" stroke="#63b8ff" points="224.6,-147.81 214.21,-149.92 223.65,-154.75 224.6,-147.81"/>
</a>
</g>
</g>
<!-- Node25 -->
<g id="Node000025" class="node">
<title>Node25</title>
<g id="a_Node000025"><a xlink:title=" ">
<polygon fill="#e0e0e0" stroke="#999999" points="743.5,-151 618.5,-151 618.5,-132 743.5,-132 743.5,-151"/>
<text text-anchor="middle" x="681" y="-139" font-family="Helvetica,sans-Serif" font-size="10.00">G4SubtractionSolid.hh</text>
</a>
</g>
</g>
<!-- Node6&#45;&gt;Node25 -->
<g id="edge24_Node000006_Node000025" class="edge">
<title>Node6&#45;&gt;Node25</title>
<g id="a_edge24_Node000006_Node000025"><a xlink:title=" ">
<path fill="none" stroke="#63b8ff" d="M568.53,-186.98C590.47,-178.3 624.74,-164.75 649.69,-154.88"/>
<polygon fill="#63b8ff" stroke="#63b8ff" points="651.07,-158.1 659.08,-151.17 648.49,-151.59 651.07,-158.1"/>
</a>
</g>
</g>
<!-- Node26 -->
<g id="Node000026" class="node">
<title>Node26</title>
<g id="a_Node000026"><a xlink:title=" ">
<polygon fill="#e0e0e0" stroke="#999999" points="342,-151 232,-151 232,-132 342,-132 342,-151"/>
<text text-anchor="middle" x="287" y="-139" font-family="Helvetica,sans-Serif" font-size="10.00">G4PVPlacement.hh</text>
</a>
</g>
</g>
<!-- Node6&#45;&gt;Node26 -->
<g id="edge25_Node000006_Node000026" class="edge">
<title>Node6&#45;&gt;Node26</title>
<g id="a_edge25_Node000006_Node000026"><a xlink:title=" ">
<path fill="none" stroke="#63b8ff" d="M505.23,-186.98C460.06,-177.78 388,-163.09 339.15,-153.13"/>
<polygon fill="#63b8ff" stroke="#63b8ff" points="339.6,-149.65 329.1,-151.08 338.2,-156.51 339.6,-149.65"/>
</a>
</g>
</g>
<!-- Node7&#45;&gt;Node8 -->
<g id="edge7_Node000007_Node000008" class="edge">
<title>Node7&#45;&gt;Node8</title>
<g id="a_edge7_Node000007_Node000008"><a xlink:title=" ">
<path fill="none" stroke="#63b8ff" d="M475.57,-132.88C478.42,-132.57 481.24,-132.27 484,-132 731.71,-107.56 1028.01,-91.19 1152.4,-84.89"/>
<polygon fill="#63b8ff" stroke="#63b8ff" points="1152.67,-88.38 1162.48,-84.38 1152.32,-81.39 1152.67,-88.38"/>
</a>
</g>
</g>
<!-- Node13 -->
<g id="Node000013" class="node">
<title>Node13</title>
<g id="a_Node000013"><a xlink:href="_o_m_sim_op_boundary_process_8hh_source.html" target="_top" xlink:title=" ">
<polygon fill="white" stroke="#666666" points="500,-90.5 336,-90.5 336,-71.5 500,-71.5 500,-90.5"/>
<text text-anchor="middle" x="418" y="-78.5" font-family="Helvetica,sans-Serif" font-size="10.00">OMSimOpBoundaryProcess.hh</text>
</a>
</g>
</g>
<!-- Node7&#45;&gt;Node13 -->
<g id="edge12_Node000007_Node000013" class="edge">
<title>Node7&#45;&gt;Node13</title>
<g id="a_edge12_Node000007_Node000013"><a xlink:title=" ">
<path fill="none" stroke="#63b8ff" d="M418,-131.87C418,-123.75 418,-111.31 418,-100.89"/>
<polygon fill="#63b8ff" stroke="#63b8ff" points="421.5,-100.67 418,-90.67 414.5,-100.67 421.5,-100.67"/>
</a>
</g>
</g>
<!-- Node21 -->
<g id="Node000021" class="node">
<title>Node21</title>
<g id="a_Node000021"><a xlink:title=" ">
<polygon fill="#e0e0e0" stroke="#999999" points="809.5,-90.5 690.5,-90.5 690.5,-71.5 809.5,-71.5 809.5,-90.5"/>
<text text-anchor="middle" x="750" y="-78.5" font-family="Helvetica,sans-Serif" font-size="10.00">G4SystemOfUnits.hh</text>
</a>
</g>
</g>
<!-- Node7&#45;&gt;Node21 -->
<g id="edge20_Node000007_Node000021" class="edge">
<title>Node7&#45;&gt;Node21</title>
<g id="a_edge20_Node000007_Node000021"><a xlink:title=" ">
<path fill="none" stroke="#63b8ff" d="M466.28,-131.99C526.02,-121.47 627.69,-103.55 691.72,-92.27"/>
<polygon fill="#63b8ff" stroke="#63b8ff" points="692.43,-95.7 701.67,-90.52 691.21,-88.81 692.43,-95.7"/>
</a>
</g>
</g>
<!-- Node22 -->
<g id="Node000022" class="node">
<title>Node22</title>
<g id="a_Node000022"><a xlink:title=" ">
<polygon fill="#e0e0e0" stroke="#999999" points="317.5,-96 204.5,-96 204.5,-66 317.5,-66 317.5,-96"/>
<text text-anchor="start" x="212.5" y="-84" font-family="Helvetica,sans-Serif" font-size="10.00">boost/property_tree</text>
<text text-anchor="middle" x="261" y="-73" font-family="Helvetica,sans-Serif" font-size="10.00">/json_parser.hpp</text>
</a>
</g>
</g>
<!-- Node7&#45;&gt;Node22 -->
<g id="edge21_Node000007_Node000022" class="edge">
<title>Node7&#45;&gt;Node22</title>
<g id="a_edge21_Node000007_Node000022"><a xlink:title=" ">
<path fill="none" stroke="#63b8ff" d="M395.17,-131.99C372.48,-123.54 337,-110.32 308.22,-99.59"/>
<polygon fill="#63b8ff" stroke="#63b8ff" points="309.34,-96.28 298.75,-96.06 306.89,-102.84 309.34,-96.28"/>
</a>
</g>
</g>
<!-- Node9 -->
<g id="Node000009" class="node">
<title>Node9</title>
<g id="a_Node000009"><a xlink:title=" ">
<polygon fill="#e0e0e0" stroke="#999999" points="1147.5,-24.5 1054.5,-24.5 1054.5,-5.5 1147.5,-5.5 1147.5,-24.5"/>
<text text-anchor="middle" x="1101" y="-12.5" font-family="Helvetica,sans-Serif" font-size="10.00">spdlog/spdlog.h</text>
</a>
</g>
</g>
<!-- Node8&#45;&gt;Node9 -->
<g id="edge8_Node000008_Node000009" class="edge">
<title>Node8&#45;&gt;Node9</title>
<g id="a_edge8_Node000008_Node000009"><a xlink:title=" ">
<path fill="none" stroke="#63b8ff" d="M1197.03,-71.37C1178.49,-60.68 1146.69,-42.35 1124.8,-29.72"/>
<polygon fill="#63b8ff" stroke="#63b8ff" points="1126.5,-26.66 1116.09,-24.7 1123,-32.73 1126.5,-26.66"/>
</a>
</g>
</g>
<!-- Node10 -->
<g id="Node000010" class="node">
<title>Node10</title>
<g id="a_Node000010"><a xlink:title=" ">
<polygon fill="#e0e0e0" stroke="#999999" points="1276.5,-30 1165.5,-30 1165.5,0 1276.5,0 1276.5,-30"/>
<text text-anchor="start" x="1173.5" y="-18" font-family="Helvetica,sans-Serif" font-size="10.00">spdlog/sinks/stdout</text>
<text text-anchor="middle" x="1221" y="-7" font-family="Helvetica,sans-Serif" font-size="10.00">_color_sinks.h</text>
</a>
</g>
</g>
<!-- Node8&#45;&gt;Node10 -->
<g id="edge9_Node000008_Node000010" class="edge">
<title>Node8&#45;&gt;Node10</title>
<g id="a_edge9_Node000008_Node000010"><a xlink:title=" ">
<path fill="none" stroke="#63b8ff" d="M1213.21,-71.37C1214.33,-63.4 1216.05,-51.2 1217.59,-40.27"/>
<polygon fill="#63b8ff" stroke="#63b8ff" points="1221.05,-40.75 1218.98,-30.36 1214.12,-39.78 1221.05,-40.75"/>
</a>
</g>
</g>
<!-- Node8&#45;&gt;Node11 -->
<g id="edge10_Node000008_Node000011" class="edge">
<title>Node8&#45;&gt;Node11</title>
<g id="a_edge10_Node000008_Node000011"><a xlink:title=" ">
<path fill="none" stroke="#63b8ff" d="M1227.1,-71.37C1245.81,-60.68 1277.9,-42.35 1299.99,-29.72"/>
<polygon fill="#63b8ff" stroke="#63b8ff" points="1301.83,-32.7 1308.78,-24.7 1298.36,-26.62 1301.83,-32.7"/>
</a>
</g>
</g>
<!-- Node12 -->
<g id="Node000012" class="node">
<title>Node12</title>
<g id="a_Node000012"><a xlink:title=" ">
<polygon fill="#e0e0e0" stroke="#999999" points="1036,-24.5 938,-24.5 938,-5.5 1036,-5.5 1036,-24.5"/>
<text text-anchor="middle" x="987" y="-12.5" font-family="Helvetica,sans-Serif" font-size="10.00">spdlog/fmt/fmt.h</text>
</a>
</g>
</g>
<!-- Node8&#45;&gt;Node12 -->
<g id="edge11_Node000008_Node000012" class="edge">
<title>Node8&#45;&gt;Node12</title>
<g id="a_edge11_Node000008_Node000012"><a xlink:title=" ">
<path fill="none" stroke="#63b8ff" d="M1181.66,-71.37C1141.7,-60 1071.36,-40 1027.07,-27.4"/>
<polygon fill="#63b8ff" stroke="#63b8ff" points="1027.8,-23.97 1017.22,-24.6 1025.88,-30.7 1027.8,-23.97"/>
</a>
</g>
</g>
<!-- Node14 -->
<g id="Node000014" class="node">
<title>Node14</title>
<g id="a_Node000014"><a xlink:title=" ">
<polygon fill="#e0e0e0" stroke="#999999" points="333.5,-24.5 220.5,-24.5 220.5,-5.5 333.5,-5.5 333.5,-24.5"/>
<text text-anchor="middle" x="277" y="-12.5" font-family="Helvetica,sans-Serif" font-size="10.00">G4OpticalPhoton.hh</text>
</a>
</g>
</g>
<!-- Node13&#45;&gt;Node14 -->
<g id="edge13_Node000013_Node000014" class="edge">
<title>Node13&#45;&gt;Node14</title>
<g id="a_edge13_Node000013_Node000014"><a xlink:title=" ">
<path fill="none" stroke="#63b8ff" d="M398.98,-71.37C374.91,-60.44 333.23,-41.52 305.39,-28.88"/>
<polygon fill="#63b8ff" stroke="#63b8ff" points="306.72,-25.65 296.16,-24.7 303.82,-32.02 306.72,-25.65"/>
</a>
</g>
</g>
<!-- Node15 -->
<g id="Node000015" class="node">
<title>Node15</title>
<g id="a_Node000015"><a xlink:title=" ">
<polygon fill="#e0e0e0" stroke="#999999" points="468,-24.5 352,-24.5 352,-5.5 468,-5.5 468,-24.5"/>
<text text-anchor="middle" x="410" y="-12.5" font-family="Helvetica,sans-Serif" font-size="10.00">G4OpticalSurface.hh</text>
</a>
</g>
</g>
<!-- Node13&#45;&gt;Node15 -->
<g id="edge14_Node000013_Node000015" class="edge">
<title>Node13&#45;&gt;Node15</title>
<g id="a_edge14_Node000013_Node000015"><a xlink:title=" ">
<path fill="none" stroke="#63b8ff" d="M416.92,-71.37C415.76,-62.07 413.87,-46.98 412.36,-34.9"/>
<polygon fill="#63b8ff" stroke="#63b8ff" points="415.83,-34.39 411.11,-24.91 408.88,-35.26 415.83,-34.39"/>
</a>
</g>
</g>
<!-- Node16 -->
<g id="Node000016" class="node">
<title>Node16</title>
<g id="a_Node000016"><a xlink:title=" ">
<polygon fill="#e0e0e0" stroke="#999999" points="596,-24.5 486,-24.5 486,-5.5 596,-5.5 596,-24.5"/>
<text text-anchor="middle" x="541" y="-12.5" font-family="Helvetica,sans-Serif" font-size="10.00">G4RandomTools.hh</text>
</a>
</g>
</g>
<!-- Node13&#45;&gt;Node16 -->
<g id="edge15_Node000013_Node000016" class="edge">
<title>Node13&#45;&gt;Node16</title>
<g id="a_edge15_Node000013_Node000016"><a xlink:title=" ">
<path fill="none" stroke="#63b8ff" d="M434.59,-71.37C455.31,-60.59 491,-42.02 515.28,-29.38"/>
<polygon fill="#63b8ff" stroke="#63b8ff" points="517.03,-32.42 524.28,-24.7 513.8,-26.21 517.03,-32.42"/>
</a>
</g>
</g>
<!-- Node17 -->
<g id="Node000017" class="node">
<title>Node17</title>
<g id="a_Node000017"><a xlink:title=" ">
<polygon fill="#e0e0e0" stroke="#999999" points="744,-24.5 614,-24.5 614,-5.5 744,-5.5 744,-24.5"/>
<text text-anchor="middle" x="679" y="-12.5" font-family="Helvetica,sans-Serif" font-size="10.00">G4VDiscreteProcess.hh</text>
</a>
</g>
</g>
<!-- Node13&#45;&gt;Node17 -->
<g id="edge16_Node000013_Node000017" class="edge">
<title>Node13&#45;&gt;Node17</title>
<g id="a_edge16_Node000013_Node000017"><a xlink:title=" ">
<path fill="none" stroke="#63b8ff" d="M452.93,-71.44C499.81,-59.94 583.12,-39.51 634.46,-26.92"/>
<polygon fill="#63b8ff" stroke="#63b8ff" points="635.4,-30.3 644.28,-24.51 633.73,-23.5 635.4,-30.3"/>
</a>
</g>
</g>
<!-- Node18 -->
<g id="Node000018" class="node">
<title>Node18</title>
<g id="a_Node000018"><a xlink:title=" ">
<polygon fill="#e0e0e0" stroke="#999999" points="919.5,-24.5 762.5,-24.5 762.5,-5.5 919.5,-5.5 919.5,-24.5"/>
<text text-anchor="middle" x="841" y="-12.5" font-family="Helvetica,sans-Serif" font-size="10.00">G4VUserTrackInformation.hh</text>
</a>
</g>
</g>
<!-- Node13&#45;&gt;Node18 -->
<g id="edge17_Node000013_Node000018" class="edge">
<title>Node13&#45;&gt;Node18</title>
<g id="a_edge17_Node000013_Node000018"><a xlink:title=" ">
<path fill="none" stroke="#63b8ff" d="M476.12,-71.5C542.96,-61.68 655.94,-44.96 753,-30 761.04,-28.76 769.5,-27.44 777.85,-26.12"/>
<polygon fill="#63b8ff" stroke="#63b8ff" points="778.63,-29.54 787.96,-24.52 777.54,-22.63 778.63,-29.54"/>
</a>
</g>
</g>
<!-- Node19 -->
<g id="Node000019" class="node">
<title>Node19</title>
<g id="a_Node000019"><a xlink:title=" ">
<polygon fill="#e0e0e0" stroke="#999999" points="90,-24.5 0,-24.5 0,-5.5 90,-5.5 90,-24.5"/>
<text text-anchor="middle" x="45" y="-12.5" font-family="Helvetica,sans-Serif" font-size="10.00">G4AutoLock.hh</text>
</a>
</g>
</g>
<!-- Node13&#45;&gt;Node19 -->
<g id="edge18_Node000013_Node000019" class="edge">
<title>Node13&#45;&gt;Node19</title>
<g id="a_edge18_Node000013_Node000019"><a xlink:title=" ">
<path fill="none" stroke="#63b8ff" d="M362.71,-71.48C274.81,-57.91 111.78,-32.65 99,-30 94.61,-29.09 90.05,-28.05 85.52,-26.96"/>
<polygon fill="#63b8ff" stroke="#63b8ff" points="86.27,-23.54 75.72,-24.52 84.58,-30.33 86.27,-23.54"/>
</a>
</g>
</g>
<!-- Node20 -->
<g id="Node000020" class="node">
<title>Node20</title>
<g id="a_Node000020"><a xlink:title=" ">
<polygon fill="#e0e0e0" stroke="#999999" points="202,-24.5 108,-24.5 108,-5.5 202,-5.5 202,-24.5"/>
<text text-anchor="middle" x="155" y="-12.5" font-family="Helvetica,sans-Serif" font-size="10.00">G4Threading.hh</text>
</a>
</g>
</g>
<!-- Node13&#45;&gt;Node20 -->
<g id="edge19_Node000013_Node000020" class="edge">
<title>Node13&#45;&gt;Node20</title>
<g id="a_edge19_Node000013_Node000020"><a xlink:title=" ">
<path fill="none" stroke="#63b8ff" d="M382.08,-71.42C340.78,-61.52 270.96,-44.74 211,-30 207.11,-29.05 203.08,-28.05 199.04,-27.04"/>
<polygon fill="#63b8ff" stroke="#63b8ff" points="199.59,-23.58 189.05,-24.56 197.9,-30.37 199.59,-23.58"/>
</a>
</g>
</g>
<!-- Node28&#45;&gt;Node6 -->
<g id="edge28_Node000028_Node000006" class="edge">
<title>Node28&#45;&gt;Node6</title>
<g id="a_edge28_Node000028_Node000006"><a xlink:title=" ">
<path fill="none" stroke="#63b8ff" d="M677.94,-241.98C651.97,-233.16 611.19,-219.31 582.04,-209.41"/>
<polygon fill="#63b8ff" stroke="#63b8ff" points="582.85,-205.99 572.26,-206.08 580.6,-212.61 582.85,-205.99"/>
</a>
</g>
</g>
<!-- Node28&#45;&gt;Node28 -->
<g id="edge29_Node000028_Node000028" class="edge">
<title>Node28&#45;&gt;Node28</title>
<g id="a_edge29_Node000028_Node000028"><a xlink:title=" ">
<path fill="none" stroke="#63b8ff" d="M746.3,-261.03C771.71,-263.06 795.5,-259.88 795.5,-251.5 795.5,-244.23 777.61,-240.87 756.29,-241.44"/>
<polygon fill="#63b8ff" stroke="#63b8ff" points="756.1,-237.94 746.3,-241.97 756.47,-244.93 756.1,-237.94"/>
</a>
</g>
</g>
<!-- Node29 -->
<g id="Node000029" class="node">
<title>Node29</title>
<g id="a_Node000029"><a xlink:href="_o_m_sim_p_m_t_response_8hh.html" target="_top" xlink:title="Simulation of PMT response.">
<polygon fill="white" stroke="#666666" points="896.5,-206 761.5,-206 761.5,-187 896.5,-187 896.5,-206"/>
<text text-anchor="middle" x="829" y="-194" font-family="Helvetica,sans-Serif" font-size="10.00">OMSimPMTResponse.hh</text>
</a>
</g>
</g>
<!-- Node28&#45;&gt;Node29 -->
<g id="edge30_Node000028_Node000029" class="edge">
<title>Node28&#45;&gt;Node29</title>
<g id="a_edge30_Node000028_Node000029"><a xlink:title=" ">
<path fill="none" stroke="#63b8ff" d="M723.24,-241.98C743.7,-233.38 775.53,-219.99 798.93,-210.15"/>
<polygon fill="#63b8ff" stroke="#63b8ff" points="800.53,-213.27 808.39,-206.17 797.81,-206.82 800.53,-213.27"/>
</a>
</g>
</g>
<!-- Node34 -->
<g id="Node000034" class="node">
<title>Node34</title>
<g id="a_Node000034"><a xlink:title=" ">
<polygon fill="#e0e0e0" stroke="#999999" points="1013,-206 915,-206 915,-187 1013,-187 1013,-206"/>
<text text-anchor="middle" x="964" y="-194" font-family="Helvetica,sans-Serif" font-size="10.00">G4UnionSolid.hh</text>
</a>
</g>
</g>
<!-- Node28&#45;&gt;Node34 -->
<g id="edge36_Node000028_Node000034" class="edge">
<title>Node28&#45;&gt;Node34</title>
<g id="a_edge36_Node000028_Node000034"><a xlink:title=" ">
<path fill="none" stroke="#63b8ff" d="M744.93,-241.98C790.27,-232.78 862.61,-218.09 911.65,-208.13"/>
<polygon fill="#63b8ff" stroke="#63b8ff" points="912.63,-211.5 921.74,-206.08 911.24,-204.64 912.63,-211.5"/>
</a>
</g>
</g>
<!-- Node35 -->
<g id="Node000035" class="node">
<title>Node35</title>
<g id="a_Node000035"><a xlink:title=" ">
<polygon fill="#e0e0e0" stroke="#999999" points="1098.5,-206 1031.5,-206 1031.5,-187 1098.5,-187 1098.5,-206"/>
<text text-anchor="middle" x="1065" y="-194" font-family="Helvetica,sans-Serif" font-size="10.00">G4Tubs.hh</text>
</a>
</g>
</g>
<!-- Node28&#45;&gt;Node35 -->
<g id="edge37_Node000028_Node000035" class="edge">
<title>Node28&#45;&gt;Node35</title>
<g id="a_edge37_Node000028_Node000035"><a xlink:title=" ">
<path fill="none" stroke="#63b8ff" d="M772.25,-241.99C834.7,-234.05 929.32,-221.37 1021.2,-206.05"/>
<polygon fill="#63b8ff" stroke="#63b8ff" points="1021.95,-209.47 1031.23,-204.36 1020.79,-202.57 1021.95,-209.47"/>
</a>
</g>
</g>
<!-- Node29&#45;&gt;Node21 -->
<g id="edge31_Node000029_Node000021" class="edge">
<title>Node29&#45;&gt;Node21</title>
<g id="a_edge31_Node000029_Node000021"><a xlink:title=" ">
<path fill="none" stroke="#63b8ff" d="M853.37,-186.84C880.61,-175.78 918.84,-155.27 902,-132 883.12,-105.92 850.18,-93.2 819.78,-87.1"/>
<polygon fill="#63b8ff" stroke="#63b8ff" points="820.06,-83.59 809.6,-85.27 818.82,-90.48 820.06,-83.59"/>
</a>
</g>
</g>
<!-- Node30 -->
<g id="Node000030" class="node">
<title>Node30</title>
<g id="a_Node000030"><a xlink:title=" ">
<polygon fill="#e0e0e0" stroke="#999999" points="1023.5,-151 950.5,-151 950.5,-132 1023.5,-132 1023.5,-151"/>
<text text-anchor="middle" x="987" y="-139" font-family="Helvetica,sans-Serif" font-size="10.00">G4Types.hh</text>
</a>
</g>
</g>
<!-- Node29&#45;&gt;Node30 -->
<g id="edge32_Node000029_Node000030" class="edge">
<title>Node29&#45;&gt;Node30</title>
<g id="a_edge32_Node000029_Node000030"><a xlink:title=" ">
<path fill="none" stroke="#63b8ff" d="M854.39,-186.98C880.8,-178.13 922.35,-164.19 951.89,-154.28"/>
<polygon fill="#63b8ff" stroke="#63b8ff" points="953.05,-157.58 961.42,-151.08 950.82,-150.94 953.05,-157.58"/>
</a>
</g>
</g>
<!-- Node31 -->
<g id="Node000031" class="node">
<title>Node31</title>
<g id="a_Node000031"><a xlink:title=" ">
<polygon fill="#e0e0e0" stroke="#999999" points="1133,-151 1095,-151 1095,-132 1133,-132 1133,-151"/>
<text text-anchor="middle" x="1114" y="-139" font-family="Helvetica,sans-Serif" font-size="10.00">map</text>
</a>
</g>
</g>
<!-- Node29&#45;&gt;Node31 -->
<g id="edge33_Node000029_Node000031" class="edge">
<title>Node29&#45;&gt;Node31</title>
<g id="a_edge33_Node000029_Node000031"><a xlink:title=" ">
<path fill="none" stroke="#63b8ff" d="M874.79,-186.98C933.87,-176 1034.93,-157.2 1084.64,-147.96"/>
<polygon fill="#63b8ff" stroke="#63b8ff" points="1085.52,-151.36 1094.71,-146.09 1084.24,-144.47 1085.52,-151.36"/>
</a>
</g>
</g>
<!-- Node32 -->
<g id="Node000032" class="node">
<title>Node32</title>
<g id="a_Node000032"><a xlink:title=" ">
<polygon fill="#e0e0e0" stroke="#999999" points="822.5,-151 761.5,-151 761.5,-132 822.5,-132 822.5,-151"/>
<text text-anchor="middle" x="792" y="-139" font-family="Helvetica,sans-Serif" font-size="10.00">TGraph.h</text>
</a>
</g>
</g>
<!-- Node29&#45;&gt;Node32 -->
<g id="edge34_Node000029_Node000032" class="edge">
<title>Node29&#45;&gt;Node32</title>
<g id="a_edge34_Node000029_Node000032"><a xlink:title=" ">
<path fill="none" stroke="#63b8ff" d="M822.89,-186.75C817.72,-179.34 810.15,-168.5 803.81,-159.41"/>
<polygon fill="#63b8ff" stroke="#63b8ff" points="806.59,-157.29 798,-151.09 800.85,-161.29 806.59,-157.29"/>
</a>
</g>
</g>
<!-- Node33 -->
<g id="Node000033" class="node">
<title>Node33</title>
<g id="a_Node000033"><a xlink:title=" ">
<polygon fill="#e0e0e0" stroke="#999999" points="893.5,-151 840.5,-151 840.5,-132 893.5,-132 893.5,-151"/>
<text text-anchor="middle" x="867" y="-139" font-family="Helvetica,sans-Serif" font-size="10.00">TH2D.h</text>
</a>
</g>
</g>
<!-- Node29&#45;&gt;Node33 -->
<g id="edge35_Node000029_Node000033" class="edge">
<title>Node29&#45;&gt;Node33</title>
<g id="a_edge35_Node000029_Node000033"><a xlink:title=" ">
<path fill="none" stroke="#63b8ff" d="M835.27,-186.75C840.59,-179.34 848.36,-168.5 854.88,-159.41"/>
<polygon fill="#63b8ff" stroke="#63b8ff" points="857.86,-161.26 860.84,-151.09 852.17,-157.18 857.86,-161.26"/>
</a>
</g>
</g>
<!-- Node38&#45;&gt;Node8 -->
<g id="edge42_Node000038_Node000008" class="edge">
<title>Node38&#45;&gt;Node8</title>
<g id="a_edge42_Node000038_Node000008"><a xlink:title=" ">
<path fill="none" stroke="#63b8ff" d="M1083.45,-351.96C1138.64,-340.19 1213,-313.1 1213,-252.5 1213,-252.5 1213,-252.5 1213,-195.5 1213,-162.11 1212.56,-123.19 1212.27,-100.69"/>
<polygon fill="#63b8ff" stroke="#63b8ff" points="1215.76,-100.49 1212.13,-90.54 1208.76,-100.59 1215.76,-100.49"/>
</a>
</g>
</g>
<!-- Node38&#45;&gt;Node31 -->
<g id="edge46_Node000038_Node000031" class="edge">
<title>Node38&#45;&gt;Node31</title>
<g id="a_edge46_Node000038_Node000031"><a xlink:title=" ">
<path fill="none" stroke="#63b8ff" d="M1099.16,-351.95C1121.02,-345.57 1142.64,-334.65 1156,-316 1190.98,-267.18 1148.94,-192.86 1126.43,-159.61"/>
<polygon fill="#63b8ff" stroke="#63b8ff" points="1129.28,-157.58 1120.69,-151.38 1123.54,-161.58 1129.28,-157.58"/>
</a>
</g>
</g>
<!-- Node39 -->
<g id="Node000039" class="node">
<title>Node39</title>
<g id="a_Node000039"><a xlink:title=" ">
<polygon fill="#e0e0e0" stroke="#999999" points="958.5,-316 903.5,-316 903.5,-297 958.5,-297 958.5,-316"/>
<text text-anchor="middle" x="931" y="-304" font-family="Helvetica,sans-Serif" font-size="10.00">fstream</text>
</a>
</g>
</g>
<!-- Node38&#45;&gt;Node39 -->
<g id="edge43_Node000038_Node000039" class="edge">
<title>Node38&#45;&gt;Node39</title>
<g id="a_edge43_Node000038_Node000039"><a xlink:title=" ">
<path fill="none" stroke="#63b8ff" d="M1009.9,-351.98C995.18,-343.69 972.58,-330.94 955.33,-321.22"/>
<polygon fill="#63b8ff" stroke="#63b8ff" points="956.81,-318.03 946.38,-316.17 953.37,-324.13 956.81,-318.03"/>
</a>
</g>
</g>
<!-- Node40 -->
<g id="Node000040" class="node">
<title>Node40</title>
<g id="a_Node000040"><a xlink:title=" ">
<polygon fill="#e0e0e0" stroke="#999999" points="1061,-316 977,-316 977,-297 1061,-297 1061,-316"/>
<text text-anchor="middle" x="1019" y="-304" font-family="Helvetica,sans-Serif" font-size="10.00">boost/any.hpp</text>
</a>
</g>
</g>
<!-- Node38&#45;&gt;Node40 -->
<g id="edge44_Node000038_Node000040" class="edge">
<title>Node38&#45;&gt;Node40</title>
<g id="a_edge44_Node000038_Node000040"><a xlink:title=" ">
<path fill="none" stroke="#63b8ff" d="M1024.01,-351.75C1023.22,-344.8 1022.1,-334.85 1021.11,-326.13"/>
<polygon fill="#63b8ff" stroke="#63b8ff" points="1024.58,-325.63 1019.97,-316.09 1017.62,-326.42 1024.58,-325.63"/>
</a>
</g>
</g>
<!-- Node41 -->
<g id="Node000041" class="node">
<title>Node41</title>
<g id="a_Node000041"><a xlink:title=" ">
<polygon fill="#e0e0e0" stroke="#999999" points="1147,-316 1079,-316 1079,-297 1147,-297 1147,-316"/>
<text text-anchor="middle" x="1113" y="-304" font-family="Helvetica,sans-Serif" font-size="10.00">sys/time.h</text>
</a>
</g>
</g>
<!-- Node38&#45;&gt;Node41 -->
<g id="edge45_Node000038_Node000041" class="edge">
<title>Node38&#45;&gt;Node41</title>
<g id="a_edge45_Node000038_Node000041"><a xlink:title=" ">
<path fill="none" stroke="#63b8ff" d="M1039.14,-351.98C1052.79,-343.77 1073.69,-331.18 1089.78,-321.49"/>
<polygon fill="#63b8ff" stroke="#63b8ff" points="1091.84,-324.33 1098.6,-316.17 1088.23,-318.33 1091.84,-324.33"/>
</a>
</g>
</g>
<!-- Node42&#45;&gt;Node38 -->
<g id="edge48_Node000042_Node000038" class="edge">
<title>Node42&#45;&gt;Node38</title>
<g id="a_edge48_Node000042_Node000038"><a xlink:title=" ">
<path fill="none" stroke="#63b8ff" d="M1099.7,-406.98C1085.9,-398.77 1064.76,-386.18 1048.49,-376.49"/>
<polygon fill="#63b8ff" stroke="#63b8ff" points="1049.94,-373.28 1039.56,-371.17 1046.36,-379.29 1049.94,-373.28"/>
</a>
</g>
</g>
<!-- Node43 -->
<g id="Node000043" class="node">
<title>Node43</title>
<g id="a_Node000043"><a xlink:title=" ">
<polygon fill="#e0e0e0" stroke="#999999" points="1223,-371 1125,-371 1125,-352 1223,-352 1223,-371"/>
<text text-anchor="middle" x="1174" y="-359" font-family="Helvetica,sans-Serif" font-size="10.00">G4UImanager.hh</text>
</a>
</g>
</g>
<!-- Node42&#45;&gt;Node43 -->
<g id="edge49_Node000042_Node000043" class="edge">
<title>Node42&#45;&gt;Node43</title>
<g id="a_edge49_Node000042_Node000043"><a xlink:title=" ">
<path fill="none" stroke="#63b8ff" d="M1123.64,-406.98C1132.51,-399.15 1145.87,-387.34 1156.61,-377.86"/>
<polygon fill="#63b8ff" stroke="#63b8ff" points="1159.01,-380.41 1164.18,-371.17 1154.37,-375.17 1159.01,-380.41"/>
</a>
</g>
</g>
</g>
</svg>
