<?xml version="1.0" encoding="UTF-8" standalone="no"?>
<!DOCTYPE svg PUBLIC "-//W3C//DTD SVG 1.1//EN"
 "http://www.w3.org/Graphics/SVG/1.1/DTD/svg11.dtd">
<!-- Generated by graphviz version 2.43.0 (0)
 -->
<!-- Title: OMSimLOM18.hh Pages: 1 -->
<svg width="1615pt" height="379pt"
 viewBox="0.00 0.00 1615.00 379.00" xmlns="http://www.w3.org/2000/svg" xmlns:xlink="http://www.w3.org/1999/xlink">
<g id="graph0" class="graph" transform="scale(1 1) rotate(0) translate(4 375)">
<title>OMSimLOM18.hh</title>
<!-- Node1 -->
<g id="Node000001" class="node">
<title>Node1</title>
<g id="a_Node000001"><a xlink:title="Construction of LOM18.">
<polygon fill="#999999" stroke="#666666" points="1315,-371 1214,-371 1214,-352 1315,-352 1315,-371"/>
<text text-anchor="middle" x="1264.5" y="-359" font-family="Helvetica,sans-Serif" font-size="10.00">OMSimLOM18.hh</text>
</a>
</g>
</g>
<!-- Node2 -->
<g id="Node000002" class="node">
<title>Node2</title>
<g id="a_Node000002"><a xlink:href="_o_m_sim_p_m_t_construction_8hh.html" target="_top" xlink:title="Construction of the PMTs.">
<polygon fill="white" stroke="#666666" points="1219,-261 1070,-261 1070,-242 1219,-242 1219,-261"/>
<text text-anchor="middle" x="1144.5" y="-249" font-family="Helvetica,sans-Serif" font-size="10.00">OMSimPMTConstruction.hh</text>
</a>
</g>
</g>
<!-- Node1&#45;&gt;Node2 -->
<g id="edge1_Node000001_Node000002" class="edge">
<title>Node1&#45;&gt;Node2</title>
<g id="a_edge1_Node000001_Node000002"><a xlink:title=" ">
<path fill="none" stroke="#63b8ff" d="M1213.99,-360C1180.22,-356.7 1138,-346.2 1115.5,-316 1104.71,-301.51 1116.32,-282.37 1127.9,-268.9"/>
<polygon fill="#63b8ff" stroke="#63b8ff" points="1130.67,-271.05 1134.9,-261.34 1125.54,-266.3 1130.67,-271.05"/>
</a>
</g>
</g>
<!-- Node31 -->
<g id="Node000031" class="node">
<title>Node31</title>
<g id="a_Node000031"><a xlink:href="_o_m_sim_optical_module_8hh_source.html" target="_top" xlink:title=" ">
<polygon fill="white" stroke="#666666" points="1261,-316 1124,-316 1124,-297 1261,-297 1261,-316"/>
<text text-anchor="middle" x="1192.5" y="-304" font-family="Helvetica,sans-Serif" font-size="10.00">OMSimOpticalModule.hh</text>
</a>
</g>
</g>
<!-- Node1&#45;&gt;Node31 -->
<g id="edge32_Node000001_Node000031" class="edge">
<title>Node1&#45;&gt;Node31</title>
<g id="a_edge32_Node000001_Node000031"><a xlink:title=" ">
<path fill="none" stroke="#63b8ff" d="M1252.93,-351.98C1242.08,-344 1225.62,-331.88 1212.62,-322.31"/>
<polygon fill="#63b8ff" stroke="#63b8ff" points="1214.41,-319.28 1204.28,-316.17 1210.26,-324.92 1214.41,-319.28"/>
</a>
</g>
</g>
<!-- Node35 -->
<g id="Node000035" class="node">
<title>Node35</title>
<g id="a_Node000035"><a xlink:title=" ">
<polygon fill="#e0e0e0" stroke="#999999" points="1395.5,-316 1279.5,-316 1279.5,-297 1395.5,-297 1395.5,-316"/>
<text text-anchor="middle" x="1337.5" y="-304" font-family="Helvetica,sans-Serif" font-size="10.00">G4LogicalVolume.hh</text>
</a>
</g>
</g>
<!-- Node1&#45;&gt;Node35 -->
<g id="edge41_Node000001_Node000035" class="edge">
<title>Node1&#45;&gt;Node35</title>
<g id="a_edge41_Node000001_Node000035"><a xlink:title=" ">
<path fill="none" stroke="#63b8ff" d="M1276.23,-351.98C1287.23,-344 1303.92,-331.88 1317.1,-322.31"/>
<polygon fill="#63b8ff" stroke="#63b8ff" points="1319.52,-324.88 1325.56,-316.17 1315.41,-319.21 1319.52,-324.88"/>
</a>
</g>
</g>
<!-- Node36 -->
<g id="Node000036" class="node">
<title>Node36</title>
<g id="a_Node000036"><a xlink:title=" ">
<polygon fill="#e0e0e0" stroke="#999999" points="1503,-316 1414,-316 1414,-297 1503,-297 1503,-316"/>
<text text-anchor="middle" x="1458.5" y="-304" font-family="Helvetica,sans-Serif" font-size="10.00">G4Polycone.hh</text>
</a>
</g>
</g>
<!-- Node1&#45;&gt;Node36 -->
<g id="edge42_Node000001_Node000036" class="edge">
<title>Node1&#45;&gt;Node36</title>
<g id="a_edge42_Node000001_Node000036"><a xlink:title=" ">
<path fill="none" stroke="#63b8ff" d="M1295.67,-351.98C1328.66,-342.97 1380.9,-328.7 1417.27,-318.76"/>
<polygon fill="#63b8ff" stroke="#63b8ff" points="1418.36,-322.09 1427.09,-316.08 1416.52,-315.34 1418.36,-322.09"/>
</a>
</g>
</g>
<!-- Node2&#45;&gt;Node2 -->
<g id="edge23_Node000002_Node000002" class="edge">
<title>Node2&#45;&gt;Node2</title>
<g id="a_edge23_Node000002_Node000002"><a xlink:title=" ">
<path fill="none" stroke="#63b8ff" d="M1187.8,-261.03C1213.21,-263.06 1237,-259.88 1237,-251.5 1237,-244.23 1219.11,-240.87 1197.79,-241.44"/>
<polygon fill="#63b8ff" stroke="#63b8ff" points="1197.6,-237.94 1187.8,-241.97 1197.97,-244.93 1197.6,-237.94"/>
</a>
</g>
</g>
<!-- Node3 -->
<g id="Node000003" class="node">
<title>Node3</title>
<g id="a_Node000003"><a xlink:href="_o_m_sim_detector_component_8hh.html" target="_top" xlink:title="Provides helper base class OMSimDetectorComponent for constructing and managing detector components i...">
<polygon fill="white" stroke="#666666" points="1074,-206 909,-206 909,-187 1074,-187 1074,-206"/>
<text text-anchor="middle" x="991.5" y="-194" font-family="Helvetica,sans-Serif" font-size="10.00">OMSimDetectorComponent.hh</text>
</a>
</g>
</g>
<!-- Node2&#45;&gt;Node3 -->
<g id="edge2_Node000002_Node000003" class="edge">
<title>Node2&#45;&gt;Node3</title>
<g id="a_edge2_Node000002_Node000003"><a xlink:title=" ">
<path fill="none" stroke="#63b8ff" d="M1119.92,-241.98C1094.45,-233.16 1054.46,-219.31 1025.87,-209.41"/>
<polygon fill="#63b8ff" stroke="#63b8ff" points="1026.87,-206.05 1016.27,-206.08 1024.58,-212.66 1026.87,-206.05"/>
</a>
</g>
</g>
<!-- Node24 -->
<g id="Node000024" class="node">
<title>Node24</title>
<g id="a_Node000024"><a xlink:href="_o_m_sim_p_m_t_response_8hh.html" target="_top" xlink:title="Simulation of PMT response.">
<polygon fill="white" stroke="#666666" points="1336,-151 1201,-151 1201,-132 1336,-132 1336,-151"/>
<text text-anchor="middle" x="1268.5" y="-139" font-family="Helvetica,sans-Serif" font-size="10.00">OMSimPMTResponse.hh</text>
</a>
</g>
</g>
<!-- Node2&#45;&gt;Node24 -->
<g id="edge24_Node000002_Node000024" class="edge">
<title>Node2&#45;&gt;Node24</title>
<g id="a_edge24_Node000002_Node000024"><a xlink:title=" ">
<path fill="none" stroke="#63b8ff" d="M1137.54,-241.88C1127.93,-228.85 1113.08,-203.87 1125.5,-187 1135.99,-172.75 1175.72,-161.08 1210.66,-153.27"/>
<polygon fill="#63b8ff" stroke="#63b8ff" points="1211.79,-156.6 1220.83,-151.07 1210.31,-149.76 1211.79,-156.6"/>
</a>
</g>
</g>
<!-- Node29 -->
<g id="Node000029" class="node">
<title>Node29</title>
<g id="a_Node000029"><a xlink:title=" ">
<polygon fill="#e0e0e0" stroke="#999999" points="1232.5,-206 1134.5,-206 1134.5,-187 1232.5,-187 1232.5,-206"/>
<text text-anchor="middle" x="1183.5" y="-194" font-family="Helvetica,sans-Serif" font-size="10.00">G4UnionSolid.hh</text>
</a>
</g>
</g>
<!-- Node2&#45;&gt;Node29 -->
<g id="edge30_Node000002_Node000029" class="edge">
<title>Node2&#45;&gt;Node29</title>
<g id="a_edge30_Node000002_Node000029"><a xlink:title=" ">
<path fill="none" stroke="#63b8ff" d="M1150.94,-241.75C1156.39,-234.34 1164.36,-223.5 1171.06,-214.41"/>
<polygon fill="#63b8ff" stroke="#63b8ff" points="1174.07,-216.22 1177.18,-206.09 1168.43,-212.07 1174.07,-216.22"/>
</a>
</g>
</g>
<!-- Node30 -->
<g id="Node000030" class="node">
<title>Node30</title>
<g id="a_Node000030"><a xlink:title=" ">
<polygon fill="#e0e0e0" stroke="#999999" points="1318,-206 1251,-206 1251,-187 1318,-187 1318,-206"/>
<text text-anchor="middle" x="1284.5" y="-194" font-family="Helvetica,sans-Serif" font-size="10.00">G4Tubs.hh</text>
</a>
</g>
</g>
<!-- Node2&#45;&gt;Node30 -->
<g id="edge31_Node000002_Node000030" class="edge">
<title>Node2&#45;&gt;Node30</title>
<g id="a_edge31_Node000002_Node000030"><a xlink:title=" ">
<path fill="none" stroke="#63b8ff" d="M1166.99,-241.98C1190.02,-233.27 1226.04,-219.63 1252.13,-209.75"/>
<polygon fill="#63b8ff" stroke="#63b8ff" points="1253.48,-212.98 1261.6,-206.17 1251.01,-206.44 1253.48,-212.98"/>
</a>
</g>
</g>
<!-- Node4 -->
<g id="Node000004" class="node">
<title>Node4</title>
<g id="a_Node000004"><a xlink:href="_o_m_sim_input_data_8hh.html" target="_top" xlink:title="Definition of ParameterTable and OMSimInputData.">
<polygon fill="white" stroke="#666666" points="659,-151 544,-151 544,-132 659,-132 659,-151"/>
<text text-anchor="middle" x="601.5" y="-139" font-family="Helvetica,sans-Serif" font-size="10.00">OMSimInputData.hh</text>
</a>
</g>
</g>
<!-- Node3&#45;&gt;Node4 -->
<g id="edge3_Node000003_Node000004" class="edge">
<title>Node3&#45;&gt;Node4</title>
<g id="a_edge3_Node000003_Node000004"><a xlink:title=" ">
<path fill="none" stroke="#63b8ff" d="M928.84,-186.98C857.79,-177.33 742.35,-161.64 669.26,-151.71"/>
<polygon fill="#63b8ff" stroke="#63b8ff" points="669.61,-148.22 659.23,-150.35 668.67,-155.16 669.61,-148.22"/>
</a>
</g>
</g>
<!-- Node20 -->
<g id="Node000020" class="node">
<title>Node20</title>
<g id="a_Node000020"><a xlink:title=" ">
<polygon fill="#e0e0e0" stroke="#999999" points="784,-151 677,-151 677,-132 784,-132 784,-151"/>
<text text-anchor="middle" x="730.5" y="-139" font-family="Helvetica,sans-Serif" font-size="10.00">G4Transform3D.hh</text>
</a>
</g>
</g>
<!-- Node3&#45;&gt;Node20 -->
<g id="edge19_Node000003_Node000020" class="edge">
<title>Node3&#45;&gt;Node20</title>
<g id="a_edge19_Node000003_Node000020"><a xlink:title=" ">
<path fill="none" stroke="#63b8ff" d="M949.57,-186.98C904.23,-177.78 831.89,-163.09 782.85,-153.13"/>
<polygon fill="#63b8ff" stroke="#63b8ff" points="783.26,-149.64 772.76,-151.08 781.87,-156.5 783.26,-149.64"/>
</a>
</g>
</g>
<!-- Node21 -->
<g id="Node000021" class="node">
<title>Node21</title>
<g id="a_Node000021"><a xlink:title=" ">
<polygon fill="#e0e0e0" stroke="#999999" points="910.5,-151 802.5,-151 802.5,-132 910.5,-132 910.5,-151"/>
<text text-anchor="middle" x="856.5" y="-139" font-family="Helvetica,sans-Serif" font-size="10.00">G4VisAttributes.hh</text>
</a>
</g>
</g>
<!-- Node3&#45;&gt;Node21 -->
<g id="edge20_Node000003_Node000021" class="edge">
<title>Node3&#45;&gt;Node21</title>
<g id="a_edge20_Node000003_Node000021"><a xlink:title=" ">
<path fill="none" stroke="#63b8ff" d="M969.81,-186.98C947.7,-178.3 913.18,-164.75 888.05,-154.88"/>
<polygon fill="#63b8ff" stroke="#63b8ff" points="889.17,-151.57 878.58,-151.17 886.61,-158.08 889.17,-151.57"/>
</a>
</g>
</g>
<!-- Node22 -->
<g id="Node000022" class="node">
<title>Node22</title>
<g id="a_Node000022"><a xlink:title=" ">
<polygon fill="#e0e0e0" stroke="#999999" points="1054,-151 929,-151 929,-132 1054,-132 1054,-151"/>
<text text-anchor="middle" x="991.5" y="-139" font-family="Helvetica,sans-Serif" font-size="10.00">G4SubtractionSolid.hh</text>
</a>
</g>
</g>
<!-- Node3&#45;&gt;Node22 -->
<g id="edge21_Node000003_Node000022" class="edge">
<title>Node3&#45;&gt;Node22</title>
<g id="a_edge21_Node000003_Node000022"><a xlink:title=" ">
<path fill="none" stroke="#63b8ff" d="M991.5,-186.75C991.5,-179.8 991.5,-169.85 991.5,-161.13"/>
<polygon fill="#63b8ff" stroke="#63b8ff" points="995,-161.09 991.5,-151.09 988,-161.09 995,-161.09"/>
</a>
</g>
</g>
<!-- Node23 -->
<g id="Node000023" class="node">
<title>Node23</title>
<g id="a_Node000023"><a xlink:title=" ">
<polygon fill="#e0e0e0" stroke="#999999" points="1182.5,-151 1072.5,-151 1072.5,-132 1182.5,-132 1182.5,-151"/>
<text text-anchor="middle" x="1127.5" y="-139" font-family="Helvetica,sans-Serif" font-size="10.00">G4PVPlacement.hh</text>
</a>
</g>
</g>
<!-- Node3&#45;&gt;Node23 -->
<g id="edge22_Node000003_Node000023" class="edge">
<title>Node3&#45;&gt;Node23</title>
<g id="a_edge22_Node000003_Node000023"><a xlink:title=" ">
<path fill="none" stroke="#63b8ff" d="M1013.35,-186.98C1035.62,-178.3 1070.4,-164.75 1095.72,-154.88"/>
<polygon fill="#63b8ff" stroke="#63b8ff" points="1097.21,-158.06 1105.25,-151.17 1094.66,-151.54 1097.21,-158.06"/>
</a>
</g>
</g>
<!-- Node5 -->
<g id="Node000005" class="node">
<title>Node5</title>
<g id="a_Node000005"><a xlink:href="_o_m_sim_logger_8hh_source.html" target="_top" xlink:title=" ">
<polygon fill="white" stroke="#666666" points="319,-90.5 220,-90.5 220,-71.5 319,-71.5 319,-90.5"/>
<text text-anchor="middle" x="269.5" y="-78.5" font-family="Helvetica,sans-Serif" font-size="10.00">OMSimLogger.hh</text>
</a>
</g>
</g>
<!-- Node4&#45;&gt;Node5 -->
<g id="edge4_Node000004_Node000005" class="edge">
<title>Node4&#45;&gt;Node5</title>
<g id="a_edge4_Node000004_Node000005"><a xlink:title=" ">
<path fill="none" stroke="#63b8ff" d="M553.22,-131.99C493.48,-121.47 391.81,-103.55 327.78,-92.27"/>
<polygon fill="#63b8ff" stroke="#63b8ff" points="328.29,-88.81 317.83,-90.52 327.07,-95.7 328.29,-88.81"/>
</a>
</g>
</g>
<!-- Node10 -->
<g id="Node000010" class="node">
<title>Node10</title>
<g id="a_Node000010"><a xlink:href="_o_m_sim_op_boundary_process_8hh_source.html" target="_top" xlink:title=" ">
<polygon fill="white" stroke="#666666" points="769.5,-90.5 605.5,-90.5 605.5,-71.5 769.5,-71.5 769.5,-90.5"/>
<text text-anchor="middle" x="687.5" y="-78.5" font-family="Helvetica,sans-Serif" font-size="10.00">OMSimOpBoundaryProcess.hh</text>
</a>
</g>
</g>
<!-- Node4&#45;&gt;Node10 -->
<g id="edge9_Node000004_Node000010" class="edge">
<title>Node4&#45;&gt;Node10</title>
<g id="a_edge9_Node000004_Node000010"><a xlink:title=" ">
<path fill="none" stroke="#63b8ff" d="M614.19,-131.87C627.91,-122.54 650,-107.51 666.35,-96.38"/>
<polygon fill="#63b8ff" stroke="#63b8ff" points="668.46,-99.19 674.76,-90.67 664.52,-93.4 668.46,-99.19"/>
</a>
</g>
</g>
<!-- Node18 -->
<g id="Node000018" class="node">
<title>Node18</title>
<g id="a_Node000018"><a xlink:title=" ">
<polygon fill="#e0e0e0" stroke="#999999" points="1038,-90.5 919,-90.5 919,-71.5 1038,-71.5 1038,-90.5"/>
<text text-anchor="middle" x="978.5" y="-78.5" font-family="Helvetica,sans-Serif" font-size="10.00">G4SystemOfUnits.hh</text>
</a>
</g>
</g>
<!-- Node4&#45;&gt;Node18 -->
<g id="edge17_Node000004_Node000018" class="edge">
<title>Node4&#45;&gt;Node18</title>
<g id="a_edge17_Node000004_Node000018"><a xlink:title=" ">
<path fill="none" stroke="#63b8ff" d="M659.21,-132.56C734.64,-122.11 862.66,-104.13 909.5,-96 915.66,-94.93 922.12,-93.73 928.51,-92.49"/>
<polygon fill="#63b8ff" stroke="#63b8ff" points="929.31,-95.9 938.44,-90.53 927.95,-89.03 929.31,-95.9"/>
</a>
</g>
</g>
<!-- Node19 -->
<g id="Node000019" class="node">
<title>Node19</title>
<g id="a_Node000019"><a xlink:title=" ">
<polygon fill="#e0e0e0" stroke="#999999" points="901,-96 788,-96 788,-66 901,-66 901,-96"/>
<text text-anchor="start" x="796" y="-84" font-family="Helvetica,sans-Serif" font-size="10.00">boost/property_tree</text>
<text text-anchor="middle" x="844.5" y="-73" font-family="Helvetica,sans-Serif" font-size="10.00">/json_parser.hpp</text>
</a>
</g>
</g>
<!-- Node4&#45;&gt;Node19 -->
<g id="edge18_Node000004_Node000019" class="edge">
<title>Node4&#45;&gt;Node19</title>
<g id="a_edge18_Node000004_Node000019"><a xlink:title=" ">
<path fill="none" stroke="#63b8ff" d="M636.83,-131.99C673.75,-123.11 732.52,-108.96 778.14,-97.98"/>
<polygon fill="#63b8ff" stroke="#63b8ff" points="779.05,-101.36 787.95,-95.61 777.41,-94.55 779.05,-101.36"/>
</a>
</g>
</g>
<!-- Node6 -->
<g id="Node000006" class="node">
<title>Node6</title>
<g id="a_Node000006"><a xlink:title=" ">
<polygon fill="#e0e0e0" stroke="#999999" points="93,-24.5 0,-24.5 0,-5.5 93,-5.5 93,-24.5"/>
<text text-anchor="middle" x="46.5" y="-12.5" font-family="Helvetica,sans-Serif" font-size="10.00">spdlog/spdlog.h</text>
</a>
</g>
</g>
<!-- Node5&#45;&gt;Node6 -->
<g id="edge5_Node000005_Node000006" class="edge">
<title>Node5&#45;&gt;Node6</title>
<g id="a_edge5_Node000005_Node000006"><a xlink:title=" ">
<path fill="none" stroke="#63b8ff" d="M239.43,-71.37C199.83,-60 130.11,-40 86.21,-27.4"/>
<polygon fill="#63b8ff" stroke="#63b8ff" points="87.03,-23.99 76.45,-24.6 85.1,-30.72 87.03,-23.99"/>
</a>
</g>
</g>
<!-- Node7 -->
<g id="Node000007" class="node">
<title>Node7</title>
<g id="a_Node000007"><a xlink:title=" ">
<polygon fill="#e0e0e0" stroke="#999999" points="222,-30 111,-30 111,0 222,0 222,-30"/>
<text text-anchor="start" x="119" y="-18" font-family="Helvetica,sans-Serif" font-size="10.00">spdlog/sinks/stdout</text>
<text text-anchor="middle" x="166.5" y="-7" font-family="Helvetica,sans-Serif" font-size="10.00">_color_sinks.h</text>
</a>
</g>
</g>
<!-- Node5&#45;&gt;Node7 -->
<g id="edge6_Node000005_Node000007" class="edge">
<title>Node5&#45;&gt;Node7</title>
<g id="a_edge6_Node000005_Node000007"><a xlink:title=" ">
<path fill="none" stroke="#63b8ff" d="M255.61,-71.37C240.85,-62.2 217.02,-47.39 197.72,-35.4"/>
<polygon fill="#63b8ff" stroke="#63b8ff" points="199.56,-32.42 189.22,-30.12 195.86,-38.37 199.56,-32.42"/>
</a>
</g>
</g>
<!-- Node8 -->
<g id="Node000008" class="node">
<title>Node8</title>
<g id="a_Node000008"><a xlink:title=" ">
<polygon fill="#e0e0e0" stroke="#999999" points="298.5,-24.5 240.5,-24.5 240.5,-5.5 298.5,-5.5 298.5,-24.5"/>
<text text-anchor="middle" x="269.5" y="-12.5" font-family="Helvetica,sans-Serif" font-size="10.00">memory</text>
</a>
</g>
</g>
<!-- Node5&#45;&gt;Node8 -->
<g id="edge7_Node000005_Node000008" class="edge">
<title>Node5&#45;&gt;Node8</title>
<g id="a_edge7_Node000005_Node000008"><a xlink:title=" ">
<path fill="none" stroke="#63b8ff" d="M269.5,-71.37C269.5,-62.16 269.5,-47.29 269.5,-35.27"/>
<polygon fill="#63b8ff" stroke="#63b8ff" points="273,-34.91 269.5,-24.91 266,-34.91 273,-34.91"/>
</a>
</g>
</g>
<!-- Node9 -->
<g id="Node000009" class="node">
<title>Node9</title>
<g id="a_Node000009"><a xlink:title=" ">
<polygon fill="#e0e0e0" stroke="#999999" points="414.5,-24.5 316.5,-24.5 316.5,-5.5 414.5,-5.5 414.5,-24.5"/>
<text text-anchor="middle" x="365.5" y="-12.5" font-family="Helvetica,sans-Serif" font-size="10.00">spdlog/fmt/fmt.h</text>
</a>
</g>
</g>
<!-- Node5&#45;&gt;Node9 -->
<g id="edge8_Node000005_Node000009" class="edge">
<title>Node5&#45;&gt;Node9</title>
<g id="a_edge8_Node000005_Node000009"><a xlink:title=" ">
<path fill="none" stroke="#63b8ff" d="M282.45,-71.37C298.19,-60.87 325,-43 343.9,-30.4"/>
<polygon fill="#63b8ff" stroke="#63b8ff" points="346.07,-33.16 352.45,-24.7 342.19,-27.33 346.07,-33.16"/>
</a>
</g>
</g>
<!-- Node11 -->
<g id="Node000011" class="node">
<title>Node11</title>
<g id="a_Node000011"><a xlink:title=" ">
<polygon fill="#e0e0e0" stroke="#999999" points="546,-24.5 433,-24.5 433,-5.5 546,-5.5 546,-24.5"/>
<text text-anchor="middle" x="489.5" y="-12.5" font-family="Helvetica,sans-Serif" font-size="10.00">G4OpticalPhoton.hh</text>
</a>
</g>
</g>
<!-- Node10&#45;&gt;Node11 -->
<g id="edge10_Node000010_Node000011" class="edge">
<title>Node10&#45;&gt;Node11</title>
<g id="a_edge10_Node000010_Node000011"><a xlink:title=" ">
<path fill="none" stroke="#63b8ff" d="M660.8,-71.37C626.01,-60.12 565.04,-40.42 526,-27.8"/>
<polygon fill="#63b8ff" stroke="#63b8ff" points="526.69,-24.34 516.1,-24.6 524.53,-31 526.69,-24.34"/>
</a>
</g>
</g>
<!-- Node12 -->
<g id="Node000012" class="node">
<title>Node12</title>
<g id="a_Node000012"><a xlink:title=" ">
<polygon fill="#e0e0e0" stroke="#999999" points="680.5,-24.5 564.5,-24.5 564.5,-5.5 680.5,-5.5 680.5,-24.5"/>
<text text-anchor="middle" x="622.5" y="-12.5" font-family="Helvetica,sans-Serif" font-size="10.00">G4OpticalSurface.hh</text>
</a>
</g>
</g>
<!-- Node10&#45;&gt;Node12 -->
<g id="edge11_Node000010_Node000012" class="edge">
<title>Node10&#45;&gt;Node12</title>
<g id="a_edge11_Node000010_Node000012"><a xlink:title=" ">
<path fill="none" stroke="#63b8ff" d="M678.73,-71.37C668.52,-61.31 651.42,-44.48 638.76,-32.01"/>
<polygon fill="#63b8ff" stroke="#63b8ff" points="641.13,-29.43 631.54,-24.91 636.21,-34.42 641.13,-29.43"/>
</a>
</g>
</g>
<!-- Node13 -->
<g id="Node000013" class="node">
<title>Node13</title>
<g id="a_Node000013"><a xlink:title=" ">
<polygon fill="#e0e0e0" stroke="#999999" points="808.5,-24.5 698.5,-24.5 698.5,-5.5 808.5,-5.5 808.5,-24.5"/>
<text text-anchor="middle" x="753.5" y="-12.5" font-family="Helvetica,sans-Serif" font-size="10.00">G4RandomTools.hh</text>
</a>
</g>
</g>
<!-- Node10&#45;&gt;Node13 -->
<g id="edge12_Node000010_Node000013" class="edge">
<title>Node10&#45;&gt;Node13</title>
<g id="a_edge12_Node000010_Node000013"><a xlink:title=" ">
<path fill="none" stroke="#63b8ff" d="M696.4,-71.37C706.77,-61.31 724.13,-44.48 736.99,-32.01"/>
<polygon fill="#63b8ff" stroke="#63b8ff" points="739.57,-34.38 744.32,-24.91 734.7,-29.35 739.57,-34.38"/>
</a>
</g>
</g>
<!-- Node14 -->
<g id="Node000014" class="node">
<title>Node14</title>
<g id="a_Node000014"><a xlink:title=" ">
<polygon fill="#e0e0e0" stroke="#999999" points="956.5,-24.5 826.5,-24.5 826.5,-5.5 956.5,-5.5 956.5,-24.5"/>
<text text-anchor="middle" x="891.5" y="-12.5" font-family="Helvetica,sans-Serif" font-size="10.00">G4VDiscreteProcess.hh</text>
</a>
</g>
</g>
<!-- Node10&#45;&gt;Node14 -->
<g id="edge13_Node000010_Node000014" class="edge">
<title>Node10&#45;&gt;Node14</title>
<g id="a_edge13_Node000010_Node000014"><a xlink:title=" ">
<path fill="none" stroke="#63b8ff" d="M715.01,-71.37C751.01,-60.08 814.21,-40.25 854.41,-27.64"/>
<polygon fill="#63b8ff" stroke="#63b8ff" points="855.6,-30.93 864.1,-24.6 853.51,-24.25 855.6,-30.93"/>
</a>
</g>
</g>
<!-- Node15 -->
<g id="Node000015" class="node">
<title>Node15</title>
<g id="a_Node000015"><a xlink:title=" ">
<polygon fill="#e0e0e0" stroke="#999999" points="1132,-24.5 975,-24.5 975,-5.5 1132,-5.5 1132,-24.5"/>
<text text-anchor="middle" x="1053.5" y="-12.5" font-family="Helvetica,sans-Serif" font-size="10.00">G4VUserTrackInformation.hh</text>
</a>
</g>
</g>
<!-- Node10&#45;&gt;Node15 -->
<g id="edge14_Node000010_Node000015" class="edge">
<title>Node10&#45;&gt;Node15</title>
<g id="a_edge14_Node000010_Node000015"><a xlink:title=" ">
<path fill="none" stroke="#63b8ff" d="M736.48,-71.44C803.32,-59.75 922.95,-38.83 994.6,-26.3"/>
<polygon fill="#63b8ff" stroke="#63b8ff" points="995.56,-29.68 1004.81,-24.51 994.36,-22.79 995.56,-29.68"/>
</a>
</g>
</g>
<!-- Node16 -->
<g id="Node000016" class="node">
<title>Node16</title>
<g id="a_Node000016"><a xlink:title=" ">
<polygon fill="#e0e0e0" stroke="#999999" points="1281.5,-24.5 1191.5,-24.5 1191.5,-5.5 1281.5,-5.5 1281.5,-24.5"/>
<text text-anchor="middle" x="1236.5" y="-12.5" font-family="Helvetica,sans-Serif" font-size="10.00">G4AutoLock.hh</text>
</a>
</g>
</g>
<!-- Node10&#45;&gt;Node16 -->
<g id="edge15_Node000010_Node000016" class="edge">
<title>Node10&#45;&gt;Node16</title>
<g id="a_edge15_Node000010_Node000016"><a xlink:title=" ">
<path fill="none" stroke="#63b8ff" d="M739.88,-71.45C752.51,-69.52 765.97,-67.58 778.5,-66 939.34,-45.67 980.59,-49.82 1141.5,-30 1154.29,-28.42 1168.03,-26.52 1180.97,-24.64"/>
<polygon fill="#63b8ff" stroke="#63b8ff" points="1181.76,-28.06 1191.14,-23.13 1180.73,-21.13 1181.76,-28.06"/>
</a>
</g>
</g>
<!-- Node17 -->
<g id="Node000017" class="node">
<title>Node17</title>
<g id="a_Node000017"><a xlink:title=" ">
<polygon fill="#e0e0e0" stroke="#999999" points="1409.5,-24.5 1315.5,-24.5 1315.5,-5.5 1409.5,-5.5 1409.5,-24.5"/>
<text text-anchor="middle" x="1362.5" y="-12.5" font-family="Helvetica,sans-Serif" font-size="10.00">G4Threading.hh</text>
</a>
</g>
</g>
<!-- Node10&#45;&gt;Node17 -->
<g id="edge16_Node000010_Node000017" class="edge">
<title>Node10&#45;&gt;Node17</title>
<g id="a_edge16_Node000010_Node000017"><a xlink:title=" ">
<path fill="none" stroke="#63b8ff" d="M737.94,-71.48C751.11,-69.47 765.32,-67.48 778.5,-66 1005.2,-40.64 1064.34,-59.83 1290.5,-30 1297.96,-29.02 1305.82,-27.74 1313.48,-26.36"/>
<polygon fill="#63b8ff" stroke="#63b8ff" points="1314.22,-29.78 1323.41,-24.5 1312.93,-22.9 1314.22,-29.78"/>
</a>
</g>
</g>
<!-- Node24&#45;&gt;Node18 -->
<g id="edge25_Node000024_Node000018" class="edge">
<title>Node24&#45;&gt;Node18</title>
<g id="a_edge25_Node000024_Node000018"><a xlink:title=" ">
<path fill="none" stroke="#63b8ff" d="M1226.13,-131.99C1181.64,-123.05 1109.65,-108.56 1047.5,-96 1042.03,-94.9 1036.32,-93.74 1030.63,-92.59"/>
<polygon fill="#63b8ff" stroke="#63b8ff" points="1030.96,-89.08 1020.46,-90.52 1029.57,-95.94 1030.96,-89.08"/>
</a>
</g>
</g>
<!-- Node25 -->
<g id="Node000025" class="node">
<title>Node25</title>
<g id="a_Node000025"><a xlink:title=" ">
<polygon fill="#e0e0e0" stroke="#999999" points="1129,-90.5 1056,-90.5 1056,-71.5 1129,-71.5 1129,-90.5"/>
<text text-anchor="middle" x="1092.5" y="-78.5" font-family="Helvetica,sans-Serif" font-size="10.00">G4Types.hh</text>
</a>
</g>
</g>
<!-- Node24&#45;&gt;Node25 -->
<g id="edge26_Node000024_Node000025" class="edge">
<title>Node24&#45;&gt;Node25</title>
<g id="a_edge26_Node000024_Node000025"><a xlink:title=" ">
<path fill="none" stroke="#63b8ff" d="M1242.91,-131.99C1212.54,-121.9 1161.74,-105.01 1127.68,-93.69"/>
<polygon fill="#63b8ff" stroke="#63b8ff" points="1128.72,-90.35 1118.12,-90.52 1126.51,-96.99 1128.72,-90.35"/>
</a>
</g>
</g>
<!-- Node26 -->
<g id="Node000026" class="node">
<title>Node26</title>
<g id="a_Node000026"><a xlink:title=" ">
<polygon fill="#e0e0e0" stroke="#999999" points="1185.5,-90.5 1147.5,-90.5 1147.5,-71.5 1185.5,-71.5 1185.5,-90.5"/>
<text text-anchor="middle" x="1166.5" y="-78.5" font-family="Helvetica,sans-Serif" font-size="10.00">map</text>
</a>
</g>
</g>
<!-- Node24&#45;&gt;Node26 -->
<g id="edge27_Node000024_Node000026" class="edge">
<title>Node24&#45;&gt;Node26</title>
<g id="a_edge27_Node000024_Node000026"><a xlink:title=" ">
<path fill="none" stroke="#63b8ff" d="M1253.45,-131.87C1236.88,-122.36 1210,-106.95 1190.51,-95.77"/>
<polygon fill="#63b8ff" stroke="#63b8ff" points="1192.03,-92.61 1181.61,-90.67 1188.55,-98.68 1192.03,-92.61"/>
</a>
</g>
</g>
<!-- Node27 -->
<g id="Node000027" class="node">
<title>Node27</title>
<g id="a_Node000027"><a xlink:title=" ">
<polygon fill="#e0e0e0" stroke="#999999" points="1265,-90.5 1204,-90.5 1204,-71.5 1265,-71.5 1265,-90.5"/>
<text text-anchor="middle" x="1234.5" y="-78.5" font-family="Helvetica,sans-Serif" font-size="10.00">TGraph.h</text>
</a>
</g>
</g>
<!-- Node24&#45;&gt;Node27 -->
<g id="edge28_Node000024_Node000027" class="edge">
<title>Node24&#45;&gt;Node27</title>
<g id="a_edge28_Node000024_Node000027"><a xlink:title=" ">
<path fill="none" stroke="#63b8ff" d="M1263.48,-131.87C1258.56,-123.4 1250.91,-110.24 1244.71,-99.57"/>
<polygon fill="#63b8ff" stroke="#63b8ff" points="1247.59,-97.55 1239.54,-90.67 1241.54,-101.07 1247.59,-97.55"/>
</a>
</g>
</g>
<!-- Node28 -->
<g id="Node000028" class="node">
<title>Node28</title>
<g id="a_Node000028"><a xlink:title=" ">
<polygon fill="#e0e0e0" stroke="#999999" points="1336,-90.5 1283,-90.5 1283,-71.5 1336,-71.5 1336,-90.5"/>
<text text-anchor="middle" x="1309.5" y="-78.5" font-family="Helvetica,sans-Serif" font-size="10.00">TH2D.h</text>
</a>
</g>
</g>
<!-- Node24&#45;&gt;Node28 -->
<g id="edge29_Node000024_Node000028" class="edge">
<title>Node24&#45;&gt;Node28</title>
<g id="a_edge29_Node000024_Node000028"><a xlink:title=" ">
<path fill="none" stroke="#63b8ff" d="M1274.55,-131.87C1280.61,-123.23 1290.09,-109.7 1297.64,-98.92"/>
<polygon fill="#63b8ff" stroke="#63b8ff" points="1300.55,-100.87 1303.43,-90.67 1294.82,-96.85 1300.55,-100.87"/>
</a>
</g>
</g>
<!-- Node31&#45;&gt;Node2 -->
<g id="edge40_Node000031_Node000002" class="edge">
<title>Node31&#45;&gt;Node2</title>
<g id="a_edge40_Node000031_Node000002"><a xlink:title=" ">
<path fill="none" stroke="#63b8ff" d="M1184.57,-296.75C1177.65,-289.11 1167.43,-277.82 1159.05,-268.56"/>
<polygon fill="#63b8ff" stroke="#63b8ff" points="1161.59,-266.15 1152.28,-261.09 1156.4,-270.85 1161.59,-266.15"/>
</a>
</g>
</g>
<!-- Node31&#45;&gt;Node3 -->
<g id="edge33_Node000031_Node000003" class="edge">
<title>Node31&#45;&gt;Node3</title>
<g id="a_edge33_Node000031_Node000003"><a xlink:title=" ">
<path fill="none" stroke="#63b8ff" d="M1154.32,-296.95C1127.2,-289.85 1090.58,-278.12 1061.5,-261 1039.75,-248.2 1018.87,-227.85 1005.66,-213.66"/>
<polygon fill="#63b8ff" stroke="#63b8ff" points="1008.13,-211.17 998.82,-206.11 1002.94,-215.87 1008.13,-211.17"/>
</a>
</g>
</g>
<!-- Node32 -->
<g id="Node000032" class="node">
<title>Node32</title>
<g id="a_Node000032"><a xlink:href="_o_m_sim_hit_manager_8hh.html" target="_top" xlink:title="Defines structures and classes related to optical module photon hit management.">
<polygon fill="white" stroke="#666666" points="1461,-206 1338,-206 1338,-187 1461,-187 1461,-206"/>
<text text-anchor="middle" x="1399.5" y="-194" font-family="Helvetica,sans-Serif" font-size="10.00">OMSimHitManager.hh</text>
</a>
</g>
</g>
<!-- Node31&#45;&gt;Node32 -->
<g id="edge34_Node000031_Node000032" class="edge">
<title>Node31&#45;&gt;Node32</title>
<g id="a_edge34_Node000031_Node000032"><a xlink:title=" ">
<path fill="none" stroke="#63b8ff" d="M1209.09,-296.84C1245.21,-278 1331.18,-233.14 1374.15,-210.73"/>
<polygon fill="#63b8ff" stroke="#63b8ff" points="1375.87,-213.78 1383.12,-206.05 1372.63,-207.57 1375.87,-213.78"/>
</a>
</g>
</g>
<!-- Node32&#45;&gt;Node16 -->
<g id="edge38_Node000032_Node000016" class="edge">
<title>Node32&#45;&gt;Node16</title>
<g id="a_edge38_Node000032_Node000016"><a xlink:title=" ">
<path fill="none" stroke="#63b8ff" d="M1396.85,-186.98C1388.7,-161.19 1363.44,-84.57 1345.5,-66 1327.94,-47.82 1302.52,-35.63 1280.65,-27.85"/>
<polygon fill="#63b8ff" stroke="#63b8ff" points="1281.48,-24.44 1270.89,-24.58 1279.26,-31.08 1281.48,-24.44"/>
</a>
</g>
</g>
<!-- Node32&#45;&gt;Node17 -->
<g id="edge39_Node000032_Node000017" class="edge">
<title>Node32&#45;&gt;Node17</title>
<g id="a_edge39_Node000032_Node000017"><a xlink:title=" ">
<path fill="none" stroke="#63b8ff" d="M1398.56,-186.93C1396.17,-166.05 1389.28,-110.96 1378.5,-66 1375.94,-55.31 1372.24,-43.59 1369.04,-34.19"/>
<polygon fill="#63b8ff" stroke="#63b8ff" points="1372.34,-33.02 1365.73,-24.74 1365.73,-35.33 1372.34,-33.02"/>
</a>
</g>
</g>
<!-- Node32&#45;&gt;Node24 -->
<g id="edge35_Node000032_Node000024" class="edge">
<title>Node32&#45;&gt;Node24</title>
<g id="a_edge35_Node000032_Node000024"><a xlink:title=" ">
<path fill="none" stroke="#63b8ff" d="M1378.45,-186.98C1357.09,-178.34 1323.8,-164.87 1299.44,-155.02"/>
<polygon fill="#63b8ff" stroke="#63b8ff" points="1300.51,-151.68 1289.93,-151.17 1297.89,-158.17 1300.51,-151.68"/>
</a>
</g>
</g>
<!-- Node33 -->
<g id="Node000033" class="node">
<title>Node33</title>
<g id="a_Node000033"><a xlink:title=" ">
<polygon fill="#e0e0e0" stroke="#999999" points="1534,-151 1431,-151 1431,-132 1534,-132 1534,-151"/>
<text text-anchor="middle" x="1482.5" y="-139" font-family="Helvetica,sans-Serif" font-size="10.00">G4ThreeVector.hh</text>
</a>
</g>
</g>
<!-- Node32&#45;&gt;Node33 -->
<g id="edge36_Node000032_Node000033" class="edge">
<title>Node32&#45;&gt;Node33</title>
<g id="a_edge36_Node000032_Node000033"><a xlink:title=" ">
<path fill="none" stroke="#63b8ff" d="M1412.84,-186.98C1425.59,-178.84 1445.05,-166.41 1460.17,-156.76"/>
<polygon fill="#63b8ff" stroke="#63b8ff" points="1462.38,-159.5 1468.92,-151.17 1458.61,-153.6 1462.38,-159.5"/>
</a>
</g>
</g>
<!-- Node34 -->
<g id="Node000034" class="node">
<title>Node34</title>
<g id="a_Node000034"><a xlink:title=" ">
<polygon fill="#e0e0e0" stroke="#999999" points="1607,-151 1552,-151 1552,-132 1607,-132 1607,-151"/>
<text text-anchor="middle" x="1579.5" y="-139" font-family="Helvetica,sans-Serif" font-size="10.00">fstream</text>
</a>
</g>
</g>
<!-- Node32&#45;&gt;Node34 -->
<g id="edge37_Node000032_Node000034" class="edge">
<title>Node32&#45;&gt;Node34</title>
<g id="a_edge37_Node000032_Node000034"><a xlink:title=" ">
<path fill="none" stroke="#63b8ff" d="M1428.42,-186.98C1459.22,-177.92 1508.09,-163.53 1541.87,-153.58"/>
<polygon fill="#63b8ff" stroke="#63b8ff" points="1543.23,-156.83 1551.83,-150.65 1541.25,-150.11 1543.23,-156.83"/>
</a>
</g>
</g>
</g>
</svg>
