<?xml version="1.0" encoding="UTF-8" standalone="no"?>
<!DOCTYPE svg PUBLIC "-//W3C//DTD SVG 1.1//EN"
 "http://www.w3.org/Graphics/SVG/1.1/DTD/svg11.dtd">
<!-- Generated by graphviz version 2.43.0 (0)
 -->
<!-- Title: OMSimLOM16.hh Pages: 1 -->
<svg width="1073pt" height="319pt"
 viewBox="0.00 0.00 1073.00 319.00" xmlns="http://www.w3.org/2000/svg" xmlns:xlink="http://www.w3.org/1999/xlink">
<g id="graph0" class="graph" transform="scale(1 1) rotate(0) translate(4 315)">
<title>OMSimLOM16.hh</title>
<polygon fill="white" stroke="transparent" points="-4,4 -4,-315 1069,-315 1069,4 -4,4"/>
<!-- Node1 -->
<g id="node1" class="node">
<title>Node1</title>
<g id="a_node1"><a xlink:title="Construction of LOM16.">
<polygon fill="#bfbfbf" stroke="black" points="468,-291.5 468,-310.5 569,-310.5 569,-291.5 468,-291.5"/>
<text text-anchor="middle" x="518.5" y="-298.5" font-family="Helvetica,sans-Serif" font-size="10.00">OMSimLOM16.hh</text>
</a>
</g>
</g>
<!-- Node2 -->
<g id="node2" class="node">
<title>Node2</title>
<g id="a_node2"><a xlink:href="_o_m_sim_p_m_t_construction_8hh.html" target="_top" xlink:title="Construction of the PMTs.">
<polygon fill="white" stroke="black" points="385,-179.5 385,-198.5 534,-198.5 534,-179.5 385,-179.5"/>
<text text-anchor="middle" x="459.5" y="-186.5" font-family="Helvetica,sans-Serif" font-size="10.00">OMSimPMTConstruction.hh</text>
</a>
</g>
</g>
<!-- Node1&#45;&gt;Node2 -->
<g id="edge1" class="edge">
<title>Node1&#45;&gt;Node2</title>
<path fill="none" stroke="midnightblue" d="M513.87,-291.37C504.22,-273.38 481.79,-231.55 468.95,-207.63"/>
<polygon fill="midnightblue" stroke="midnightblue" points="471.92,-205.75 464.11,-198.59 465.75,-209.06 471.92,-205.75"/>
</g>
<!-- Node19 -->
<g id="node19" class="node">
<title>Node19</title>
<g id="a_node19"><a xlink:href="_o_m_sim_optical_module_8hh.html" target="_top" xlink:title=" ">
<polygon fill="white" stroke="black" points="505,-235.5 505,-254.5 642,-254.5 642,-235.5 505,-235.5"/>
<text text-anchor="middle" x="573.5" y="-242.5" font-family="Helvetica,sans-Serif" font-size="10.00">OMSimOpticalModule.hh</text>
</a>
</g>
</g>
<!-- Node1&#45;&gt;Node19 -->
<g id="edge20" class="edge">
<title>Node1&#45;&gt;Node19</title>
<path fill="none" stroke="midnightblue" d="M527.58,-291.08C535.67,-283.14 547.7,-271.34 557.41,-261.8"/>
<polygon fill="midnightblue" stroke="midnightblue" points="559.9,-264.25 564.59,-254.75 555,-259.26 559.9,-264.25"/>
</g>
<!-- Node2&#45;&gt;Node2 -->
<g id="edge11" class="edge">
<title>Node2&#45;&gt;Node2</title>
<path fill="none" stroke="midnightblue" d="M498.95,-198.53C525.76,-201.31 552,-198.13 552,-189 552,-181.01 531.91,-177.58 508.93,-178.71"/>
<polygon fill="midnightblue" stroke="midnightblue" points="508.65,-175.22 498.95,-179.47 509.19,-182.2 508.65,-175.22"/>
</g>
<!-- Node3 -->
<g id="node3" class="node">
<title>Node3</title>
<g id="a_node3"><a xlink:href="abc_detector_component_8hh.html" target="_top" xlink:title="Provides helper base class abcDetectorComponent for constructing and managing detector components in ...">
<polygon fill="white" stroke="black" points="446,-123.5 446,-142.5 593,-142.5 593,-123.5 446,-123.5"/>
<text text-anchor="middle" x="519.5" y="-130.5" font-family="Helvetica,sans-Serif" font-size="10.00">abcDetectorComponent.hh</text>
</a>
</g>
</g>
<!-- Node2&#45;&gt;Node3 -->
<g id="edge2" class="edge">
<title>Node2&#45;&gt;Node3</title>
<path fill="none" stroke="midnightblue" d="M469.14,-179.32C478.01,-171.34 491.37,-159.31 502.11,-149.65"/>
<polygon fill="midnightblue" stroke="midnightblue" points="504.59,-152.13 509.68,-142.83 499.91,-146.92 504.59,-152.13"/>
</g>
<!-- Node12 -->
<g id="node12" class="node">
<title>Node12</title>
<g id="a_node12"><a xlink:href="_o_m_sim_p_m_t_response_8hh.html" target="_top" xlink:title="Provides simulation for PMT response. This class is responsible for transforming hits on photocathode...">
<polygon fill="white" stroke="black" points="736,-123.5 736,-142.5 871,-142.5 871,-123.5 736,-123.5"/>
<text text-anchor="middle" x="803.5" y="-130.5" font-family="Helvetica,sans-Serif" font-size="10.00">OMSimPMTResponse.hh</text>
</a>
</g>
</g>
<!-- Node2&#45;&gt;Node12 -->
<g id="edge12" class="edge">
<title>Node2&#45;&gt;Node12</title>
<path fill="none" stroke="midnightblue" d="M514.01,-179.44C575.15,-169.85 674.24,-154.29 739.14,-144.1"/>
<polygon fill="midnightblue" stroke="midnightblue" points="739.91,-147.52 749.25,-142.52 738.83,-140.61 739.91,-147.52"/>
</g>
<!-- Node17 -->
<g id="node17" class="node">
<title>Node17</title>
<g id="a_node17"><a xlink:title=" ">
<polygon fill="white" stroke="#bfbfbf" points="244.5,-123.5 244.5,-142.5 342.5,-142.5 342.5,-123.5 244.5,-123.5"/>
<text text-anchor="middle" x="293.5" y="-130.5" font-family="Helvetica,sans-Serif" font-size="10.00">G4UnionSolid.hh</text>
</a>
</g>
</g>
<!-- Node2&#45;&gt;Node17 -->
<g id="edge18" class="edge">
<title>Node2&#45;&gt;Node17</title>
<path fill="none" stroke="midnightblue" d="M433.2,-179.44C405.15,-170.32 360.56,-155.81 329.32,-145.65"/>
<polygon fill="midnightblue" stroke="midnightblue" points="330.27,-142.28 319.68,-142.52 328.11,-148.94 330.27,-142.28"/>
</g>
<!-- Node18 -->
<g id="node18" class="node">
<title>Node18</title>
<g id="a_node18"><a xlink:title=" ">
<polygon fill="white" stroke="#bfbfbf" points="361,-123.5 361,-142.5 428,-142.5 428,-123.5 361,-123.5"/>
<text text-anchor="middle" x="394.5" y="-130.5" font-family="Helvetica,sans-Serif" font-size="10.00">G4Tubs.hh</text>
</a>
</g>
</g>
<!-- Node2&#45;&gt;Node18 -->
<g id="edge19" class="edge">
<title>Node2&#45;&gt;Node18</title>
<path fill="none" stroke="midnightblue" d="M449.06,-179.32C439.35,-171.26 424.68,-159.08 413,-149.37"/>
<polygon fill="midnightblue" stroke="midnightblue" points="415.06,-146.53 405.13,-142.83 410.59,-151.92 415.06,-146.53"/>
</g>
<!-- Node4 -->
<g id="node4" class="node">
<title>Node4</title>
<g id="a_node4"><a xlink:href="_o_m_sim_input_data_8hh.html" target="_top" xlink:title="Definition of ParameterTable and InputDataManager.">
<polygon fill="white" stroke="black" points="72,-67.5 72,-86.5 187,-86.5 187,-67.5 72,-67.5"/>
<text text-anchor="middle" x="129.5" y="-74.5" font-family="Helvetica,sans-Serif" font-size="10.00">OMSimInputData.hh</text>
</a>
</g>
</g>
<!-- Node3&#45;&gt;Node4 -->
<g id="edge3" class="edge">
<title>Node3&#45;&gt;Node4</title>
<path fill="none" stroke="midnightblue" d="M457.7,-123.44C386.73,-113.62 270.65,-97.54 197.26,-87.38"/>
<polygon fill="midnightblue" stroke="midnightblue" points="197.58,-83.89 187.19,-85.99 196.62,-90.83 197.58,-83.89"/>
</g>
<!-- Node8 -->
<g id="node8" class="node">
<title>Node8</title>
<g id="a_node8"><a xlink:title=" ">
<polygon fill="white" stroke="#bfbfbf" points="205,-67.5 205,-86.5 312,-86.5 312,-67.5 205,-67.5"/>
<text text-anchor="middle" x="258.5" y="-74.5" font-family="Helvetica,sans-Serif" font-size="10.00">G4Transform3D.hh</text>
</a>
</g>
</g>
<!-- Node3&#45;&gt;Node8 -->
<g id="edge7" class="edge">
<title>Node3&#45;&gt;Node8</title>
<path fill="none" stroke="midnightblue" d="M478.14,-123.44C432.42,-113.98 358.74,-98.74 309.48,-88.55"/>
<polygon fill="midnightblue" stroke="midnightblue" points="310.16,-85.12 299.66,-86.52 308.75,-91.97 310.16,-85.12"/>
</g>
<!-- Node9 -->
<g id="node9" class="node">
<title>Node9</title>
<g id="a_node9"><a xlink:title=" ">
<polygon fill="white" stroke="#bfbfbf" points="330.5,-67.5 330.5,-86.5 438.5,-86.5 438.5,-67.5 330.5,-67.5"/>
<text text-anchor="middle" x="384.5" y="-74.5" font-family="Helvetica,sans-Serif" font-size="10.00">G4VisAttributes.hh</text>
</a>
</g>
</g>
<!-- Node3&#45;&gt;Node9 -->
<g id="edge8" class="edge">
<title>Node3&#45;&gt;Node9</title>
<path fill="none" stroke="midnightblue" d="M498.11,-123.44C475.79,-114.52 440.6,-100.44 415.29,-90.32"/>
<polygon fill="midnightblue" stroke="midnightblue" points="416.38,-86.98 405.79,-86.52 413.78,-93.48 416.38,-86.98"/>
</g>
<!-- Node10 -->
<g id="node10" class="node">
<title>Node10</title>
<g id="a_node10"><a xlink:title=" ">
<polygon fill="white" stroke="#bfbfbf" points="457,-67.5 457,-86.5 582,-86.5 582,-67.5 457,-67.5"/>
<text text-anchor="middle" x="519.5" y="-74.5" font-family="Helvetica,sans-Serif" font-size="10.00">G4SubtractionSolid.hh</text>
</a>
</g>
</g>
<!-- Node3&#45;&gt;Node10 -->
<g id="edge9" class="edge">
<title>Node3&#45;&gt;Node10</title>
<path fill="none" stroke="midnightblue" d="M519.5,-123.08C519.5,-116.01 519.5,-105.86 519.5,-96.99"/>
<polygon fill="midnightblue" stroke="midnightblue" points="523,-96.75 519.5,-86.75 516,-96.75 523,-96.75"/>
</g>
<!-- Node11 -->
<g id="node11" class="node">
<title>Node11</title>
<g id="a_node11"><a xlink:title=" ">
<polygon fill="white" stroke="#bfbfbf" points="600.5,-67.5 600.5,-86.5 710.5,-86.5 710.5,-67.5 600.5,-67.5"/>
<text text-anchor="middle" x="655.5" y="-74.5" font-family="Helvetica,sans-Serif" font-size="10.00">G4PVPlacement.hh</text>
</a>
</g>
</g>
<!-- Node3&#45;&gt;Node11 -->
<g id="edge10" class="edge">
<title>Node3&#45;&gt;Node11</title>
<path fill="none" stroke="midnightblue" d="M541.05,-123.44C563.53,-114.52 598.99,-100.44 624.48,-90.32"/>
<polygon fill="midnightblue" stroke="midnightblue" points="626.05,-93.46 634.05,-86.52 623.47,-86.95 626.05,-93.46"/>
</g>
<!-- Node5 -->
<g id="node5" class="node">
<title>Node5</title>
<g id="a_node5"><a xlink:title=" ">
<polygon fill="white" stroke="#bfbfbf" points="131,-6 131,-25 274,-25 274,-6 131,-6"/>
<text text-anchor="middle" x="202.5" y="-13" font-family="Helvetica,sans-Serif" font-size="10.00">G4OpBoundaryProcess.hh</text>
</a>
</g>
</g>
<!-- Node4&#45;&gt;Node5 -->
<g id="edge4" class="edge">
<title>Node4&#45;&gt;Node5</title>
<path fill="none" stroke="midnightblue" d="M139.96,-67.48C151.45,-58.11 170.13,-42.88 184.09,-31.51"/>
<polygon fill="midnightblue" stroke="midnightblue" points="186.52,-34.04 192.06,-25.01 182.1,-28.61 186.52,-34.04"/>
</g>
<!-- Node6 -->
<g id="node6" class="node">
<title>Node6</title>
<g id="a_node6"><a xlink:title=" ">
<polygon fill="white" stroke="#bfbfbf" points="485,-6 485,-25 604,-25 604,-6 485,-6"/>
<text text-anchor="middle" x="544.5" y="-13" font-family="Helvetica,sans-Serif" font-size="10.00">G4SystemOfUnits.hh</text>
</a>
</g>
</g>
<!-- Node4&#45;&gt;Node6 -->
<g id="edge5" class="edge">
<title>Node4&#45;&gt;Node6</title>
<path fill="none" stroke="midnightblue" d="M187.2,-67.73C262.49,-56.93 394.11,-38.06 474.86,-26.48"/>
<polygon fill="midnightblue" stroke="midnightblue" points="475.54,-29.92 484.94,-25.04 474.54,-22.99 475.54,-29.92"/>
</g>
<!-- Node7 -->
<g id="node7" class="node">
<title>Node7</title>
<g id="a_node7"><a xlink:title=" ">
<polygon fill="white" stroke="#bfbfbf" points="0,-0.5 0,-30.5 113,-30.5 113,-0.5 0,-0.5"/>
<text text-anchor="start" x="8" y="-18.5" font-family="Helvetica,sans-Serif" font-size="10.00">boost/property_tree</text>
<text text-anchor="middle" x="56.5" y="-7.5" font-family="Helvetica,sans-Serif" font-size="10.00">/json_parser.hpp</text>
</a>
</g>
</g>
<!-- Node4&#45;&gt;Node7 -->
<g id="edge6" class="edge">
<title>Node4&#45;&gt;Node7</title>
<path fill="none" stroke="midnightblue" d="M119.04,-67.48C109.34,-59.57 94.51,-47.48 81.73,-37.07"/>
<polygon fill="midnightblue" stroke="midnightblue" points="83.67,-34.13 73.7,-30.52 79.24,-39.55 83.67,-34.13"/>
</g>
<!-- Node12&#45;&gt;Node6 -->
<g id="edge13" class="edge">
<title>Node12&#45;&gt;Node6</title>
<path fill="none" stroke="midnightblue" d="M794.48,-123.11C779.91,-109.22 749.75,-82.36 719.5,-67 682.29,-48.11 636.94,-35.27 601.72,-27.27"/>
<polygon fill="midnightblue" stroke="midnightblue" points="602.13,-23.78 591.61,-25.04 600.62,-30.61 602.13,-23.78"/>
</g>
<!-- Node13 -->
<g id="node13" class="node">
<title>Node13</title>
<g id="a_node13"><a xlink:title=" ">
<polygon fill="white" stroke="#bfbfbf" points="767,-67.5 767,-86.5 840,-86.5 840,-67.5 767,-67.5"/>
<text text-anchor="middle" x="803.5" y="-74.5" font-family="Helvetica,sans-Serif" font-size="10.00">G4Types.hh</text>
</a>
</g>
</g>
<!-- Node12&#45;&gt;Node13 -->
<g id="edge14" class="edge">
<title>Node12&#45;&gt;Node13</title>
<path fill="none" stroke="midnightblue" d="M803.5,-123.08C803.5,-116.01 803.5,-105.86 803.5,-96.99"/>
<polygon fill="midnightblue" stroke="midnightblue" points="807,-96.75 803.5,-86.75 800,-96.75 807,-96.75"/>
</g>
<!-- Node14 -->
<g id="node14" class="node">
<title>Node14</title>
<g id="a_node14"><a xlink:title=" ">
<polygon fill="white" stroke="#bfbfbf" points="858.5,-67.5 858.5,-86.5 896.5,-86.5 896.5,-67.5 858.5,-67.5"/>
<text text-anchor="middle" x="877.5" y="-74.5" font-family="Helvetica,sans-Serif" font-size="10.00">map</text>
</a>
</g>
</g>
<!-- Node12&#45;&gt;Node14 -->
<g id="edge15" class="edge">
<title>Node12&#45;&gt;Node14</title>
<path fill="none" stroke="midnightblue" d="M815.39,-123.32C826.65,-115.11 843.79,-102.6 857.21,-92.81"/>
<polygon fill="midnightblue" stroke="midnightblue" points="859.38,-95.56 865.39,-86.83 855.25,-89.9 859.38,-95.56"/>
</g>
<!-- Node15 -->
<g id="node15" class="node">
<title>Node15</title>
<g id="a_node15"><a xlink:title=" ">
<polygon fill="white" stroke="#bfbfbf" points="915,-67.5 915,-86.5 976,-86.5 976,-67.5 915,-67.5"/>
<text text-anchor="middle" x="945.5" y="-74.5" font-family="Helvetica,sans-Serif" font-size="10.00">TGraph.h</text>
</a>
</g>
</g>
<!-- Node12&#45;&gt;Node15 -->
<g id="edge16" class="edge">
<title>Node12&#45;&gt;Node15</title>
<path fill="none" stroke="midnightblue" d="M826,-123.44C849.58,-114.48 886.82,-100.31 913.46,-90.18"/>
<polygon fill="midnightblue" stroke="midnightblue" points="915,-93.34 923.1,-86.52 912.51,-86.8 915,-93.34"/>
</g>
<!-- Node16 -->
<g id="node16" class="node">
<title>Node16</title>
<g id="a_node16"><a xlink:title=" ">
<polygon fill="white" stroke="#bfbfbf" points="994,-67.5 994,-86.5 1047,-86.5 1047,-67.5 994,-67.5"/>
<text text-anchor="middle" x="1020.5" y="-74.5" font-family="Helvetica,sans-Serif" font-size="10.00">TH2D.h</text>
</a>
</g>
</g>
<!-- Node12&#45;&gt;Node16 -->
<g id="edge17" class="edge">
<title>Node12&#45;&gt;Node16</title>
<path fill="none" stroke="midnightblue" d="M838.41,-123.47C873.07,-114.98 927.95,-101.47 984.02,-87.36"/>
<polygon fill="midnightblue" stroke="midnightblue" points="984.91,-90.74 993.75,-84.9 983.2,-83.96 984.91,-90.74"/>
</g>
<!-- Node19&#45;&gt;Node2 -->
<g id="edge26" class="edge">
<title>Node19&#45;&gt;Node2</title>
<path fill="none" stroke="midnightblue" d="M555.44,-235.44C536.93,-226.68 507.92,-212.94 486.64,-202.86"/>
<polygon fill="midnightblue" stroke="midnightblue" points="488.01,-199.63 477.48,-198.52 485.02,-205.96 488.01,-199.63"/>
</g>
<!-- Node19&#45;&gt;Node3 -->
<g id="edge21" class="edge">
<title>Node19&#45;&gt;Node3</title>
<path fill="none" stroke="midnightblue" d="M573.21,-235.1C572.48,-222.11 569.85,-197.49 560.5,-179 554.93,-167.99 545.92,-157.67 537.76,-149.69"/>
<polygon fill="midnightblue" stroke="midnightblue" points="540.06,-147.05 530.34,-142.82 535.3,-152.18 540.06,-147.05"/>
</g>
<!-- Node20 -->
<g id="node20" class="node">
<title>Node20</title>
<g id="a_node20"><a xlink:href="_o_m_sim_hit_manager_8hh.html" target="_top" xlink:title="Defines structures and classes related to optical module photon hit management.">
<polygon fill="white" stroke="black" points="810,-179.5 810,-198.5 933,-198.5 933,-179.5 810,-179.5"/>
<text text-anchor="middle" x="871.5" y="-186.5" font-family="Helvetica,sans-Serif" font-size="10.00">OMSimHitManager.hh</text>
</a>
</g>
</g>
<!-- Node19&#45;&gt;Node20 -->
<g id="edge22" class="edge">
<title>Node19&#45;&gt;Node20</title>
<path fill="none" stroke="midnightblue" d="M620.72,-235.44C673.25,-225.92 758.11,-210.55 814.35,-200.36"/>
<polygon fill="midnightblue" stroke="midnightblue" points="815.29,-203.74 824.5,-198.52 814.04,-196.86 815.29,-203.74"/>
</g>
<!-- Node20&#45;&gt;Node12 -->
<g id="edge23" class="edge">
<title>Node20&#45;&gt;Node12</title>
<path fill="none" stroke="midnightblue" d="M860.57,-179.32C850.33,-171.18 834.78,-158.84 822.5,-149.09"/>
<polygon fill="midnightblue" stroke="midnightblue" points="824.63,-146.31 814.62,-142.83 820.28,-151.79 824.63,-146.31"/>
</g>
<!-- Node21 -->
<g id="node21" class="node">
<title>Node21</title>
<g id="a_node21"><a xlink:title=" ">
<polygon fill="white" stroke="#bfbfbf" points="889,-123.5 889,-142.5 992,-142.5 992,-123.5 889,-123.5"/>
<text text-anchor="middle" x="940.5" y="-130.5" font-family="Helvetica,sans-Serif" font-size="10.00">G4ThreeVector.hh</text>
</a>
</g>
</g>
<!-- Node20&#45;&gt;Node21 -->
<g id="edge24" class="edge">
<title>Node20&#45;&gt;Node21</title>
<path fill="none" stroke="midnightblue" d="M882.59,-179.32C892.99,-171.18 908.76,-158.84 921.22,-149.09"/>
<polygon fill="midnightblue" stroke="midnightblue" points="923.49,-151.75 929.21,-142.83 919.18,-146.24 923.49,-151.75"/>
</g>
<!-- Node22 -->
<g id="node22" class="node">
<title>Node22</title>
<g id="a_node22"><a xlink:title=" ">
<polygon fill="white" stroke="#bfbfbf" points="1010,-123.5 1010,-142.5 1065,-142.5 1065,-123.5 1010,-123.5"/>
<text text-anchor="middle" x="1037.5" y="-130.5" font-family="Helvetica,sans-Serif" font-size="10.00">fstream</text>
</a>
</g>
</g>
<!-- Node20&#45;&gt;Node22 -->
<g id="edge25" class="edge">
<title>Node20&#45;&gt;Node22</title>
<path fill="none" stroke="midnightblue" d="M897.8,-179.44C925.85,-170.32 970.44,-155.81 1001.68,-145.65"/>
<polygon fill="midnightblue" stroke="midnightblue" points="1002.89,-148.94 1011.32,-142.52 1000.73,-142.28 1002.89,-148.94"/>
</g>
</g>
</svg>
