<?xml version="1.0" encoding="UTF-8" standalone="no"?>
<!DOCTYPE svg PUBLIC "-//W3C//DTD SVG 1.1//EN"
 "http://www.w3.org/Graphics/SVG/1.1/DTD/svg11.dtd">
<!-- Generated by graphviz version 2.43.0 (0)
 -->
<!-- Title: OMSimPMTResponse.hh Pages: 1 -->
<svg width="1286pt" height="308pt"
 viewBox="0.00 0.00 1285.50 308.00" xmlns="http://www.w3.org/2000/svg" xmlns:xlink="http://www.w3.org/1999/xlink">
<g id="graph0" class="graph" transform="scale(1 1) rotate(0) translate(4 304)">
<title>OMSimPMTResponse.hh</title>
<polygon fill="white" stroke="transparent" points="-4,4 -4,-304 1281.5,-304 1281.5,4 -4,4"/>
<!-- Node1 -->
<g id="node1" class="node">
<title>Node1</title>
<g id="a_node1"><a xlink:title="Simulation of PMT response.">
<polygon fill="#bfbfbf" stroke="black" points="693.5,-280.5 693.5,-299.5 828.5,-299.5 828.5,-280.5 693.5,-280.5"/>
<text text-anchor="middle" x="761" y="-287.5" font-family="Helvetica,sans-Serif" font-size="10.00">OMSimPMTResponse.hh</text>
</a>
</g>
</g>
<!-- Node2 -->
<g id="node2" class="node">
<title>Node2</title>
<g id="a_node2"><a xlink:href="_o_m_sim_hit_manager_8hh.html" target="_top" xlink:title="Defines structures and classes related to optical module photon hit management.">
<polygon fill="white" stroke="black" points="381.5,-224.5 381.5,-243.5 504.5,-243.5 504.5,-224.5 381.5,-224.5"/>
<text text-anchor="middle" x="443" y="-231.5" font-family="Helvetica,sans-Serif" font-size="10.00">OMSimHitManager.hh</text>
</a>
</g>
</g>
<!-- Node1&#45;&gt;Node2 -->
<g id="edge1" class="edge">
<title>Node1&#45;&gt;Node2</title>
<path fill="none" stroke="midnightblue" d="M700.51,-278.73C640.41,-268.52 549.34,-253.06 493.15,-243.52"/>
<polygon fill="midnightblue" stroke="midnightblue" points="700.17,-282.22 710.61,-280.44 701.34,-275.32 700.17,-282.22"/>
</g>
<!-- Node21 -->
<g id="node21" class="node">
<title>Node21</title>
<g id="a_node21"><a xlink:href="_o_m_sim_effective_area_analyisis_8hh_source.html" target="_top" xlink:title=" ">
<polygon fill="white" stroke="black" points="514,-168.5 514,-187.5 690,-187.5 690,-168.5 514,-168.5"/>
<text text-anchor="middle" x="602" y="-175.5" font-family="Helvetica,sans-Serif" font-size="10.00">OMSimEffectiveAreaAnalyisis.hh</text>
</a>
</g>
</g>
<!-- Node1&#45;&gt;Node21 -->
<g id="edge43" class="edge">
<title>Node1&#45;&gt;Node21</title>
<path fill="none" stroke="midnightblue" d="M739.92,-274.42C706.29,-251.15 641.53,-206.35 614.42,-187.59"/>
<polygon fill="midnightblue" stroke="midnightblue" points="738.31,-277.56 748.52,-280.37 742.29,-271.8 738.31,-277.56"/>
</g>
<!-- Node24 -->
<g id="node24" class="node">
<title>Node24</title>
<g id="a_node24"><a xlink:href="_o_m_sim_sensitive_detector_8hh_source.html" target="_top" xlink:title=" ">
<polygon fill="white" stroke="black" points="973.5,-224.5 973.5,-243.5 1126.5,-243.5 1126.5,-224.5 973.5,-224.5"/>
<text text-anchor="middle" x="1050" y="-231.5" font-family="Helvetica,sans-Serif" font-size="10.00">OMSimSensitiveDetector.hh</text>
</a>
</g>
</g>
<!-- Node1&#45;&gt;Node24 -->
<g id="edge34" class="edge">
<title>Node1&#45;&gt;Node24</title>
<path fill="none" stroke="midnightblue" d="M816.66,-278.6C871.27,-268.4 953.57,-253.02 1004.42,-243.52"/>
<polygon fill="midnightblue" stroke="midnightblue" points="815.98,-275.17 806.79,-280.44 817.27,-282.05 815.98,-275.17"/>
</g>
<!-- Node25 -->
<g id="node25" class="node">
<title>Node25</title>
<g id="a_node25"><a xlink:href="_o_m_sim_p_m_t_construction_8hh.html" target="_top" xlink:title="Construction of the PMTs.">
<polygon fill="white" stroke="black" points="788.5,-224.5 788.5,-243.5 937.5,-243.5 937.5,-224.5 788.5,-224.5"/>
<text text-anchor="middle" x="863" y="-231.5" font-family="Helvetica,sans-Serif" font-size="10.00">OMSimPMTConstruction.hh</text>
</a>
</g>
</g>
<!-- Node1&#45;&gt;Node25 -->
<g id="edge35" class="edge">
<title>Node1&#45;&gt;Node25</title>
<path fill="none" stroke="midnightblue" d="M786.33,-275.59C805.19,-265.61 830.38,-252.27 846.65,-243.65"/>
<polygon fill="midnightblue" stroke="midnightblue" points="784.59,-272.55 777.39,-280.32 787.86,-278.74 784.59,-272.55"/>
</g>
<!-- Node3 -->
<g id="node3" class="node">
<title>Node3</title>
<g id="a_node3"><a xlink:href="_o_m_sim_run_action_8hh_source.html" target="_top" xlink:title=" ">
<polygon fill="white" stroke="black" points="309,-168.5 309,-187.5 425,-187.5 425,-168.5 309,-168.5"/>
<text text-anchor="middle" x="367" y="-175.5" font-family="Helvetica,sans-Serif" font-size="10.00">OMSimRunAction.hh</text>
</a>
</g>
</g>
<!-- Node2&#45;&gt;Node3 -->
<g id="edge2" class="edge">
<title>Node2&#45;&gt;Node3</title>
<path fill="none" stroke="midnightblue" d="M422.42,-218.38C408.69,-208.62 391.07,-196.11 379.43,-187.83"/>
<polygon fill="midnightblue" stroke="midnightblue" points="420.61,-221.38 430.79,-224.32 424.66,-215.68 420.61,-221.38"/>
</g>
<!-- Node7 -->
<g id="node7" class="node">
<title>Node7</title>
<g id="a_node7"><a xlink:href="_o_m_sim__radioactive__decays_8cc.html" target="_top" xlink:title="Main of the radioactive decay study.">
<polygon fill="white" stroke="black" points="654.5,-0.5 654.5,-19.5 819.5,-19.5 819.5,-0.5 654.5,-0.5"/>
<text text-anchor="middle" x="737" y="-7.5" font-family="Helvetica,sans-Serif" font-size="10.00">OMSim_radioactive_decays.cc</text>
</a>
</g>
</g>
<!-- Node2&#45;&gt;Node7 -->
<g id="edge28" class="edge">
<title>Node2&#45;&gt;Node7</title>
<path fill="none" stroke="midnightblue" d="M455.67,-216.35C467.26,-202.04 485.51,-181.6 505,-168 537.98,-144.99 551.74,-149.38 588,-132 605.21,-123.75 608.15,-118.76 626,-112 688.9,-88.16 731.48,-128.92 773,-76 787.49,-57.53 763.18,-32.47 747.92,-19.52"/>
<polygon fill="midnightblue" stroke="midnightblue" points="452.8,-214.34 449.37,-224.36 458.3,-218.67 452.8,-214.34"/>
</g>
<!-- Node8 -->
<g id="node8" class="node">
<title>Node8</title>
<g id="a_node8"><a xlink:href="_o_m_sim__supernova_8cc.html" target="_top" xlink:title="Main of the supernova study.">
<polygon fill="white" stroke="black" points="102,-0.5 102,-19.5 224,-19.5 224,-0.5 102,-0.5"/>
<text text-anchor="middle" x="163" y="-7.5" font-family="Helvetica,sans-Serif" font-size="10.00">OMSim_supernova.cc</text>
</a>
</g>
</g>
<!-- Node2&#45;&gt;Node8 -->
<g id="edge32" class="edge">
<title>Node2&#45;&gt;Node8</title>
<path fill="none" stroke="midnightblue" d="M395.66,-221.94C367.13,-214.34 330.53,-202.93 300,-188 260.68,-168.77 158.32,-114.76 138,-76 127.89,-56.73 144.36,-32.42 155.03,-19.69"/>
<polygon fill="midnightblue" stroke="midnightblue" points="394.83,-225.34 405.39,-224.46 396.59,-218.56 394.83,-225.34"/>
</g>
<!-- Node9 -->
<g id="node9" class="node">
<title>Node9</title>
<g id="a_node9"><a xlink:href="_o_m_sim_optical_module_8hh_source.html" target="_top" xlink:title=" ">
<polygon fill="white" stroke="black" points="746.5,-168.5 746.5,-187.5 883.5,-187.5 883.5,-168.5 746.5,-168.5"/>
<text text-anchor="middle" x="815" y="-175.5" font-family="Helvetica,sans-Serif" font-size="10.00">OMSimOpticalModule.hh</text>
</a>
</g>
</g>
<!-- Node2&#45;&gt;Node9 -->
<g id="edge8" class="edge">
<title>Node2&#45;&gt;Node9</title>
<path fill="none" stroke="midnightblue" d="M512.03,-222.98C582.3,-212.78 690.06,-197.14 756.33,-187.52"/>
<polygon fill="midnightblue" stroke="midnightblue" points="511.34,-219.54 501.94,-224.44 512.34,-226.47 511.34,-219.54"/>
</g>
<!-- Node2&#45;&gt;Node21 -->
<g id="edge26" class="edge">
<title>Node2&#45;&gt;Node21</title>
<path fill="none" stroke="midnightblue" d="M477.83,-221.17C507.77,-211 550.22,-196.59 576.92,-187.52"/>
<polygon fill="midnightblue" stroke="midnightblue" points="476.54,-217.91 468.19,-224.44 478.79,-224.54 476.54,-217.91"/>
</g>
<!-- Node22 -->
<g id="node22" class="node">
<title>Node22</title>
<g id="a_node22"><a xlink:href="_o_m_sim_s_n_analysis_8hh_source.html" target="_top" xlink:title=" ">
<polygon fill="white" stroke="black" points="0,-168.5 0,-187.5 122,-187.5 122,-168.5 0,-168.5"/>
<text text-anchor="middle" x="61" y="-175.5" font-family="Helvetica,sans-Serif" font-size="10.00">OMSimSNAnalysis.hh</text>
</a>
</g>
</g>
<!-- Node2&#45;&gt;Node22 -->
<g id="edge29" class="edge">
<title>Node2&#45;&gt;Node22</title>
<path fill="none" stroke="midnightblue" d="M372.56,-223.04C300.41,-212.84 189.44,-197.16 121.25,-187.52"/>
<polygon fill="midnightblue" stroke="midnightblue" points="372.08,-226.51 382.47,-224.44 373.06,-219.58 372.08,-226.51"/>
</g>
<!-- Node23 -->
<g id="node23" class="node">
<title>Node23</title>
<g id="a_node23"><a xlink:href="_o_m_sim_s_n_analysis_8cc.html" target="_top" xlink:title="Analyze data and write output files.">
<polygon fill="white" stroke="black" points="40,-112.5 40,-131.5 160,-131.5 160,-112.5 40,-112.5"/>
<text text-anchor="middle" x="100" y="-119.5" font-family="Helvetica,sans-Serif" font-size="10.00">OMSimSNAnalysis.cc</text>
</a>
</g>
</g>
<!-- Node2&#45;&gt;Node23 -->
<g id="edge33" class="edge">
<title>Node2&#45;&gt;Node23</title>
<path fill="none" stroke="midnightblue" d="M371.18,-231.63C315.07,-228.1 236.42,-217.63 174,-188 145.27,-174.36 119.22,-146.23 107.13,-131.86"/>
<polygon fill="midnightblue" stroke="midnightblue" points="371.2,-235.14 381.39,-232.21 371.6,-228.15 371.2,-235.14"/>
</g>
<!-- Node4 -->
<g id="node4" class="node">
<title>Node4</title>
<g id="a_node4"><a xlink:href="_o_m_sim_8hh.html" target="_top" xlink:title="Main simulation class for the Optical Module (OM) simulation. This file defines the OMSim class,...">
<polygon fill="white" stroke="black" points="285.5,-56.5 285.5,-75.5 352.5,-75.5 352.5,-56.5 285.5,-56.5"/>
<text text-anchor="middle" x="319" y="-63.5" font-family="Helvetica,sans-Serif" font-size="10.00">OMSim.hh</text>
</a>
</g>
</g>
<!-- Node3&#45;&gt;Node4 -->
<g id="edge3" class="edge">
<title>Node3&#45;&gt;Node4</title>
<path fill="none" stroke="midnightblue" d="M359.14,-159C348.67,-135 330.55,-93.47 322.75,-75.59"/>
<polygon fill="midnightblue" stroke="midnightblue" points="356.03,-160.6 363.23,-168.37 362.44,-157.8 356.03,-160.6"/>
</g>
<!-- Node5 -->
<g id="node5" class="node">
<title>Node5</title>
<g id="a_node5"><a xlink:href="_o_m_sim_8cc.html" target="_top" xlink:title="Implementation of the OMSim class.">
<polygon fill="white" stroke="black" points="256.5,-0.5 256.5,-19.5 321.5,-19.5 321.5,-0.5 256.5,-0.5"/>
<text text-anchor="middle" x="289" y="-7.5" font-family="Helvetica,sans-Serif" font-size="10.00">OMSim.cc</text>
</a>
</g>
</g>
<!-- Node4&#45;&gt;Node5 -->
<g id="edge4" class="edge">
<title>Node4&#45;&gt;Node5</title>
<path fill="none" stroke="midnightblue" d="M309.15,-47.27C304.03,-38.05 297.98,-27.17 293.86,-19.75"/>
<polygon fill="midnightblue" stroke="midnightblue" points="306.13,-49.04 314.05,-56.08 312.25,-45.64 306.13,-49.04"/>
</g>
<!-- Node6 -->
<g id="node6" class="node">
<title>Node6</title>
<g id="a_node6"><a xlink:href="_o_m_sim__effective__area_8cc.html" target="_top" xlink:title="Main for the calculation of effective areas.">
<polygon fill="white" stroke="black" points="340,-0.5 340,-19.5 480,-19.5 480,-0.5 340,-0.5"/>
<text text-anchor="middle" x="410" y="-7.5" font-family="Helvetica,sans-Serif" font-size="10.00">OMSim_effective_area.cc</text>
</a>
</g>
</g>
<!-- Node4&#45;&gt;Node6 -->
<g id="edge5" class="edge">
<title>Node4&#45;&gt;Node6</title>
<path fill="none" stroke="midnightblue" d="M342.29,-51.18C359.04,-41.24 381.1,-28.15 395.42,-19.65"/>
<polygon fill="midnightblue" stroke="midnightblue" points="340.43,-48.21 333.62,-56.32 344.01,-54.23 340.43,-48.21"/>
</g>
<!-- Node4&#45;&gt;Node7 -->
<g id="edge6" class="edge">
<title>Node4&#45;&gt;Node7</title>
<path fill="none" stroke="midnightblue" d="M362.78,-59.34C436.22,-49.86 584.66,-30.68 670.87,-19.54"/>
<polygon fill="midnightblue" stroke="midnightblue" points="361.97,-55.92 352.5,-60.67 362.87,-62.86 361.97,-55.92"/>
</g>
<!-- Node4&#45;&gt;Node8 -->
<g id="edge7" class="edge">
<title>Node4&#45;&gt;Node8</title>
<path fill="none" stroke="midnightblue" d="M284.83,-53.17C255.46,-43 213.8,-28.59 187.6,-19.52"/>
<polygon fill="midnightblue" stroke="midnightblue" points="283.69,-56.48 294.28,-56.44 285.98,-49.86 283.69,-56.48"/>
</g>
<!-- Node10 -->
<g id="node10" class="node">
<title>Node10</title>
<g id="a_node10"><a xlink:href="_o_m_sim_d_e_g_g_8hh.html" target="_top" xlink:title="Construction of the DEGG class. From DOUMEKI.">
<polygon fill="white" stroke="black" points="944.5,-112.5 944.5,-131.5 1039.5,-131.5 1039.5,-112.5 944.5,-112.5"/>
<text text-anchor="middle" x="992" y="-119.5" font-family="Helvetica,sans-Serif" font-size="10.00">OMSimDEGG.hh</text>
</a>
</g>
</g>
<!-- Node9&#45;&gt;Node10 -->
<g id="edge9" class="edge">
<title>Node9&#45;&gt;Node10</title>
<path fill="none" stroke="midnightblue" d="M852.9,-165.44C886.28,-155.26 934.1,-140.66 964.09,-131.52"/>
<polygon fill="midnightblue" stroke="midnightblue" points="851.59,-162.18 843.05,-168.44 853.63,-168.87 851.59,-162.18"/>
</g>
<!-- Node11 -->
<g id="node11" class="node">
<title>Node11</title>
<g id="a_node11"><a xlink:href="_o_m_sim_detector_construction_8hh_source.html" target="_top" xlink:title=" ">
<polygon fill="white" stroke="black" points="409,-112.5 409,-131.5 579,-131.5 579,-112.5 409,-112.5"/>
<text text-anchor="middle" x="494" y="-119.5" font-family="Helvetica,sans-Serif" font-size="10.00">OMSimDetectorConstruction.hh</text>
</a>
</g>
</g>
<!-- Node9&#45;&gt;Node11 -->
<g id="edge10" class="edge">
<title>Node9&#45;&gt;Node11</title>
<path fill="none" stroke="midnightblue" d="M753.94,-166.73C693.28,-156.52 601.35,-141.06 544.63,-131.52"/>
<polygon fill="midnightblue" stroke="midnightblue" points="753.69,-170.24 764.14,-168.44 754.86,-163.33 753.69,-170.24"/>
</g>
<!-- Node13 -->
<g id="node13" class="node">
<title>Node13</title>
<g id="a_node13"><a xlink:href="_o_m_sim_rad_decays_detector_8hh.html" target="_top" xlink:title="Defines the OMSimRadDecaysDetector class for the radioactive decays simulation.">
<polygon fill="white" stroke="black" points="600.5,-56.5 600.5,-75.5 763.5,-75.5 763.5,-56.5 600.5,-56.5"/>
<text text-anchor="middle" x="682" y="-63.5" font-family="Helvetica,sans-Serif" font-size="10.00">OMSimRadDecaysDetector.hh</text>
</a>
</g>
</g>
<!-- Node9&#45;&gt;Node13 -->
<g id="edge25" class="edge">
<title>Node9&#45;&gt;Node13</title>
<path fill="none" stroke="midnightblue" d="M798.68,-161.08C784.59,-147.57 763.48,-127.9 744,-112 727.51,-98.54 707.42,-84.33 694.66,-75.56"/>
<polygon fill="midnightblue" stroke="midnightblue" points="796.48,-163.81 806.1,-168.24 801.34,-158.78 796.48,-163.81"/>
</g>
<!-- Node15 -->
<g id="node15" class="node">
<title>Node15</title>
<g id="a_node15"><a xlink:href="_o_m_sim_l_o_m16_8hh.html" target="_top" xlink:title="Construction of LOM16.">
<polygon fill="white" stroke="black" points="1057.5,-112.5 1057.5,-131.5 1158.5,-131.5 1158.5,-112.5 1057.5,-112.5"/>
<text text-anchor="middle" x="1108" y="-119.5" font-family="Helvetica,sans-Serif" font-size="10.00">OMSimLOM16.hh</text>
</a>
</g>
</g>
<!-- Node9&#45;&gt;Node15 -->
<g id="edge18" class="edge">
<title>Node9&#45;&gt;Node15</title>
<path fill="none" stroke="midnightblue" d="M871.43,-166.6C926.8,-156.4 1010.23,-141.02 1061.79,-131.52"/>
<polygon fill="midnightblue" stroke="midnightblue" points="870.63,-163.19 861.43,-168.44 871.9,-170.07 870.63,-163.19"/>
</g>
<!-- Node16 -->
<g id="node16" class="node">
<title>Node16</title>
<g id="a_node16"><a xlink:href="_o_m_sim_l_o_m18_8hh.html" target="_top" xlink:title="Construction of LOM18.">
<polygon fill="white" stroke="black" points="1176.5,-112.5 1176.5,-131.5 1277.5,-131.5 1277.5,-112.5 1176.5,-112.5"/>
<text text-anchor="middle" x="1227" y="-119.5" font-family="Helvetica,sans-Serif" font-size="10.00">OMSimLOM18.hh</text>
</a>
</g>
</g>
<!-- Node9&#45;&gt;Node16 -->
<g id="edge19" class="edge">
<title>Node9&#45;&gt;Node16</title>
<path fill="none" stroke="midnightblue" d="M894.02,-167.49C965.61,-158.74 1073.97,-145.16 1168,-132 1170.77,-131.61 1173.61,-131.21 1176.48,-130.79"/>
<polygon fill="midnightblue" stroke="midnightblue" points="893.23,-164.06 883.73,-168.75 894.08,-171.01 893.23,-164.06"/>
</g>
<!-- Node18 -->
<g id="node18" class="node">
<title>Node18</title>
<g id="a_node18"><a xlink:href="_o_m_sim_m_d_o_m_8hh.html" target="_top" xlink:title="Construction of mDOM.">
<polygon fill="white" stroke="black" points="635,-112.5 635,-131.5 735,-131.5 735,-112.5 635,-112.5"/>
<text text-anchor="middle" x="685" y="-119.5" font-family="Helvetica,sans-Serif" font-size="10.00">OMSimMDOM.hh</text>
</a>
</g>
</g>
<!-- Node9&#45;&gt;Node18 -->
<g id="edge21" class="edge">
<title>Node9&#45;&gt;Node18</title>
<path fill="none" stroke="midnightblue" d="M784.91,-164.5C760.54,-154.38 726.86,-140.39 705.5,-131.52"/>
<polygon fill="midnightblue" stroke="midnightblue" points="783.82,-167.84 794.4,-168.44 786.51,-161.38 783.82,-167.84"/>
</g>
<!-- Node19 -->
<g id="node19" class="node">
<title>Node19</title>
<g id="a_node19"><a xlink:href="_o_m_sim_p_d_o_m_8hh.html" target="_top" xlink:title="Implementation of the pDOM/Gen1 DOM class.">
<polygon fill="white" stroke="black" points="829.5,-112.5 829.5,-131.5 926.5,-131.5 926.5,-112.5 829.5,-112.5"/>
<text text-anchor="middle" x="878" y="-119.5" font-family="Helvetica,sans-Serif" font-size="10.00">OMSimPDOM.hh</text>
</a>
</g>
</g>
<!-- Node9&#45;&gt;Node19 -->
<g id="edge22" class="edge">
<title>Node9&#45;&gt;Node19</title>
<path fill="none" stroke="midnightblue" d="M833.04,-161.54C844.27,-151.91 858.32,-139.87 867.69,-131.83"/>
<polygon fill="midnightblue" stroke="midnightblue" points="830.44,-159.16 825.12,-168.32 834.99,-164.47 830.44,-159.16"/>
</g>
<!-- Node20 -->
<g id="node20" class="node">
<title>Node20</title>
<g id="a_node20"><a xlink:href="_o_m_sim_decays_g_p_s_8hh.html" target="_top" xlink:title="Defines the OMSimDecaysGPS class for the radioactive decays simulation.">
<polygon fill="white" stroke="black" points="820,-56.5 820,-75.5 942,-75.5 942,-56.5 820,-56.5"/>
<text text-anchor="middle" x="881" y="-63.5" font-family="Helvetica,sans-Serif" font-size="10.00">OMSimDecaysGPS.hh</text>
</a>
</g>
</g>
<!-- Node9&#45;&gt;Node20 -->
<g id="edge23" class="edge">
<title>Node9&#45;&gt;Node20</title>
<path fill="none" stroke="midnightblue" d="M812.84,-158.22C812.16,-144.56 813.14,-126.07 821,-112 830.27,-95.41 848.49,-83.1 862.42,-75.59"/>
<polygon fill="midnightblue" stroke="midnightblue" points="809.37,-158.69 813.69,-168.36 816.34,-158.1 809.37,-158.69"/>
</g>
<!-- Node11&#45;&gt;Node4 -->
<g id="edge11" class="edge">
<title>Node11&#45;&gt;Node4</title>
<path fill="none" stroke="midnightblue" d="M456.53,-109.44C423.53,-99.26 376.24,-84.66 346.6,-75.52"/>
<polygon fill="midnightblue" stroke="midnightblue" points="455.68,-112.84 466.27,-112.44 457.75,-106.15 455.68,-112.84"/>
</g>
<!-- Node12 -->
<g id="node12" class="node">
<title>Node12</title>
<g id="a_node12"><a xlink:href="_o_m_sim_effective_area_detector_8hh.html" target="_top" xlink:title="Defines the OMSimEffectiveAreaDetector class for effective area simulation detector construction.">
<polygon fill="white" stroke="black" points="409.5,-56.5 409.5,-75.5 582.5,-75.5 582.5,-56.5 409.5,-56.5"/>
<text text-anchor="middle" x="496" y="-63.5" font-family="Helvetica,sans-Serif" font-size="10.00">OMSimEffectiveAreaDetector.hh</text>
</a>
</g>
</g>
<!-- Node11&#45;&gt;Node12 -->
<g id="edge12" class="edge">
<title>Node11&#45;&gt;Node12</title>
<path fill="none" stroke="midnightblue" d="M494.71,-101.8C495.04,-92.91 495.42,-82.78 495.68,-75.75"/>
<polygon fill="midnightblue" stroke="midnightblue" points="491.2,-101.96 494.33,-112.08 498.2,-102.22 491.2,-101.96"/>
</g>
<!-- Node11&#45;&gt;Node13 -->
<g id="edge14" class="edge">
<title>Node11&#45;&gt;Node13</title>
<path fill="none" stroke="midnightblue" d="M533.8,-109.57C569.27,-99.38 620.37,-84.7 652.35,-75.52"/>
<polygon fill="midnightblue" stroke="midnightblue" points="532.43,-106.32 523.79,-112.44 534.37,-113.05 532.43,-106.32"/>
</g>
<!-- Node14 -->
<g id="node14" class="node">
<title>Node14</title>
<g id="a_node14"><a xlink:href="_o_m_sim_s_ndetector_8hh_source.html" target="_top" xlink:title=" ">
<polygon fill="white" stroke="black" points="147,-56.5 147,-75.5 267,-75.5 267,-56.5 147,-56.5"/>
<text text-anchor="middle" x="207" y="-63.5" font-family="Helvetica,sans-Serif" font-size="10.00">OMSimSNdetector.hh</text>
</a>
</g>
</g>
<!-- Node11&#45;&gt;Node14 -->
<g id="edge16" class="edge">
<title>Node11&#45;&gt;Node14</title>
<path fill="none" stroke="midnightblue" d="M438.39,-110.54C384.15,-100.33 302.66,-85 252.26,-75.52"/>
<polygon fill="midnightblue" stroke="midnightblue" points="438.05,-114.03 448.52,-112.44 439.34,-107.15 438.05,-114.03"/>
</g>
<!-- Node12&#45;&gt;Node6 -->
<g id="edge13" class="edge">
<title>Node12&#45;&gt;Node6</title>
<path fill="none" stroke="midnightblue" d="M473.55,-50.9C457.78,-41 437.19,-28.07 423.78,-19.65"/>
<polygon fill="midnightblue" stroke="midnightblue" points="471.85,-53.97 482.18,-56.32 475.57,-48.04 471.85,-53.97"/>
</g>
<!-- Node13&#45;&gt;Node7 -->
<g id="edge15" class="edge">
<title>Node13&#45;&gt;Node7</title>
<path fill="none" stroke="midnightblue" d="M698.29,-49C708.04,-39.43 720.05,-27.64 728.09,-19.75"/>
<polygon fill="midnightblue" stroke="midnightblue" points="695.77,-46.58 691.08,-56.08 700.67,-51.57 695.77,-46.58"/>
</g>
<!-- Node14&#45;&gt;Node8 -->
<g id="edge17" class="edge">
<title>Node14&#45;&gt;Node8</title>
<path fill="none" stroke="midnightblue" d="M193.27,-48.14C185.6,-38.74 176.37,-27.4 170.13,-19.75"/>
<polygon fill="midnightblue" stroke="midnightblue" points="190.7,-50.54 199.73,-56.08 196.13,-46.12 190.7,-50.54"/>
</g>
<!-- Node17 -->
<g id="node17" class="node">
<title>Node17</title>
<g id="a_node17"><a xlink:href="_o_m_sim_l_o_m18_8cc.html" target="_top" xlink:title=" ">
<polygon fill="white" stroke="black" points="1177.5,-56.5 1177.5,-75.5 1276.5,-75.5 1276.5,-56.5 1177.5,-56.5"/>
<text text-anchor="middle" x="1227" y="-63.5" font-family="Helvetica,sans-Serif" font-size="10.00">OMSimLOM18.cc</text>
</a>
</g>
</g>
<!-- Node16&#45;&gt;Node17 -->
<g id="edge20" class="edge">
<title>Node16&#45;&gt;Node17</title>
<path fill="none" stroke="midnightblue" d="M1227,-101.8C1227,-92.91 1227,-82.78 1227,-75.75"/>
<polygon fill="midnightblue" stroke="midnightblue" points="1223.5,-102.08 1227,-112.08 1230.5,-102.08 1223.5,-102.08"/>
</g>
<!-- Node20&#45;&gt;Node7 -->
<g id="edge24" class="edge">
<title>Node20&#45;&gt;Node7</title>
<path fill="none" stroke="midnightblue" d="M848.75,-52.91C821.68,-42.75 783.68,-28.51 759.71,-19.52"/>
<polygon fill="midnightblue" stroke="midnightblue" points="847.59,-56.21 858.18,-56.44 850.05,-49.66 847.59,-56.21"/>
</g>
<!-- Node21&#45;&gt;Node6 -->
<g id="edge27" class="edge">
<title>Node21&#45;&gt;Node6</title>
<path fill="none" stroke="midnightblue" d="M505.2,-166.98C460.25,-160.13 413.71,-149.1 400,-132 373.1,-98.45 395.42,-41.53 405.6,-19.8"/>
<polygon fill="midnightblue" stroke="midnightblue" points="504.95,-170.48 515.35,-168.46 505.96,-163.55 504.95,-170.48"/>
</g>
<!-- Node22&#45;&gt;Node8 -->
<g id="edge30" class="edge">
<title>Node22&#45;&gt;Node8</title>
<path fill="none" stroke="midnightblue" d="M44.7,-160.33C33.85,-147.13 22.96,-128.27 31,-112 54.32,-64.79 111.48,-33.56 142.37,-19.52"/>
<polygon fill="midnightblue" stroke="midnightblue" points="42.35,-162.96 51.61,-168.1 47.58,-158.3 42.35,-162.96"/>
</g>
<!-- Node22&#45;&gt;Node23 -->
<g id="edge31" class="edge">
<title>Node22&#45;&gt;Node23</title>
<path fill="none" stroke="midnightblue" d="M73.38,-159.86C80.14,-150.5 88.21,-139.33 93.68,-131.75"/>
<polygon fill="midnightblue" stroke="midnightblue" points="70.46,-157.93 67.44,-168.08 76.13,-162.03 70.46,-157.93"/>
</g>
<!-- Node25&#45;&gt;Node9 -->
<g id="edge40" class="edge">
<title>Node25&#45;&gt;Node9</title>
<path fill="none" stroke="midnightblue" d="M848.27,-216.43C839.86,-206.97 829.65,-195.48 822.78,-187.75"/>
<polygon fill="midnightblue" stroke="midnightblue" points="845.81,-218.93 855.07,-224.08 851.05,-214.28 845.81,-218.93"/>
</g>
<!-- Node25&#45;&gt;Node10 -->
<g id="edge36" class="edge">
<title>Node25&#45;&gt;Node10</title>
<path fill="none" stroke="midnightblue" d="M880.81,-217.82C908.28,-194.39 960.11,-150.19 981.92,-131.59"/>
<polygon fill="midnightblue" stroke="midnightblue" points="878.46,-215.22 873.12,-224.37 883,-220.54 878.46,-215.22"/>
</g>
<!-- Node25&#45;&gt;Node15 -->
<g id="edge37" class="edge">
<title>Node25&#45;&gt;Node15</title>
<path fill="none" stroke="midnightblue" d="M891.59,-220.16C942.14,-197.47 1046.01,-150.83 1088.86,-131.59"/>
<polygon fill="midnightblue" stroke="midnightblue" points="889.91,-217.08 882.22,-224.37 892.78,-223.47 889.91,-217.08"/>
</g>
<!-- Node25&#45;&gt;Node16 -->
<g id="edge38" class="edge">
<title>Node25&#45;&gt;Node16</title>
<path fill="none" stroke="midnightblue" d="M901.02,-221.51C974.38,-199.34 1133.93,-151.13 1198.76,-131.53"/>
<polygon fill="midnightblue" stroke="midnightblue" points="899.82,-218.22 891.26,-224.46 901.84,-224.92 899.82,-218.22"/>
</g>
<!-- Node25&#45;&gt;Node18 -->
<g id="edge39" class="edge">
<title>Node25&#45;&gt;Node18</title>
<path fill="none" stroke="midnightblue" d="M812.22,-221.78C787.93,-214.76 759.36,-203.94 737,-188 715.35,-172.56 697.96,-145.74 689.89,-131.87"/>
<polygon fill="midnightblue" stroke="midnightblue" points="811.41,-225.19 821.98,-224.47 813.27,-218.44 811.41,-225.19"/>
</g>
<!-- Node25&#45;&gt;Node19 -->
<g id="edge41" class="edge">
<title>Node25&#45;&gt;Node19</title>
<path fill="none" stroke="midnightblue" d="M877.5,-216.4C883.55,-208.39 889.88,-198.3 893,-188 899.04,-168.05 889.17,-144.02 882.78,-131.51"/>
<polygon fill="midnightblue" stroke="midnightblue" points="874.77,-214.2 871.21,-224.18 880.22,-218.6 874.77,-214.2"/>
</g>
<!-- Node25&#45;&gt;Node25 -->
<g id="edge42" class="edge">
<title>Node25&#45;&gt;Node25</title>
<path fill="none" stroke="midnightblue" d="M912.43,-244.29C935.41,-245.42 955.5,-241.99 955.5,-234 955.5,-224.87 929.26,-221.69 902.45,-224.47"/>
<polygon fill="midnightblue" stroke="midnightblue" points="912.69,-240.8 902.45,-243.53 912.15,-247.78 912.69,-240.8"/>
</g>
</g>
</svg>
