<?xml version="1.0" encoding="UTF-8" standalone="no"?>
<!DOCTYPE svg PUBLIC "-//W3C//DTD SVG 1.1//EN"
 "http://www.w3.org/Graphics/SVG/1.1/DTD/svg11.dtd">
<!-- Generated by graphviz version 2.43.0 (0)
 -->
<!-- Title: OMSim_QE_calibration.cc Pages: 1 -->
<svg width="2160pt" height="487pt"
 viewBox="0.00 0.00 2159.50 487.00" xmlns="http://www.w3.org/2000/svg" xmlns:xlink="http://www.w3.org/1999/xlink">
<g id="graph0" class="graph" transform="scale(1 1) rotate(0) translate(4 483)">
<title>OMSim_QE_calibration.cc</title>
<!-- Node1 -->
<g id="node1" class="node">
<title>Node1</title>
<g id="a_node1"><a xlink:title="Main for the calculation of effective areas.">
<polygon fill="#bfbfbf" stroke="black" points="1691,-459.5 1691,-478.5 1832,-478.5 1832,-459.5 1691,-459.5"/>
<text text-anchor="middle" x="1761.5" y="-466.5" font-family="Helvetica,sans-Serif" font-size="10.00">OMSim_QE_calibration.cc</text>
</a>
</g>
</g>
<!-- Node2 -->
<g id="node2" class="node">
<title>Node2</title>
<g id="a_node2"><a xlink:href="_o_m_sim_8hh.html" target="_top" xlink:title="Main simulation class for the Optical Module (OM) simulation. This file defines the OMSim class,...">
<polygon fill="none" stroke="black" points="1328,-403.5 1328,-422.5 1395,-422.5 1395,-403.5 1328,-403.5"/>
<text text-anchor="middle" x="1361.5" y="-410.5" font-family="Helvetica,sans-Serif" font-size="10.00">OMSim.hh</text>
</a>
</g>
</g>
<!-- Node1&#45;&gt;Node2 -->
<g id="edge1" class="edge">
<title>Node1&#45;&gt;Node2</title>
<path fill="none" stroke="midnightblue" d="M1698.12,-459.44C1616.23,-448.39 1475.82,-429.43 1405.02,-419.88"/>
<polygon fill="midnightblue" stroke="midnightblue" points="1405.47,-416.4 1395.1,-418.54 1404.54,-423.34 1405.47,-416.4"/>
</g>
<!-- Node59 -->
<g id="node46" class="node">
<title>Node59</title>
<g id="a_node46"><a xlink:href="_o_m_sim_beam_8hh_source.html" target="_top" xlink:title=" ">
<polygon fill="none" stroke="black" points="1560,-403.5 1560,-422.5 1655,-422.5 1655,-403.5 1560,-403.5"/>
<text text-anchor="middle" x="1607.5" y="-410.5" font-family="Helvetica,sans-Serif" font-size="10.00">OMSimBeam.hh</text>
</a>
</g>
</g>
<!-- Node1&#45;&gt;Node59 -->
<g id="edge52" class="edge">
<title>Node1&#45;&gt;Node59</title>
<path fill="none" stroke="midnightblue" d="M1737.1,-459.44C1711.3,-450.4 1670.42,-436.06 1641.48,-425.92"/>
<polygon fill="midnightblue" stroke="midnightblue" points="1642.38,-422.52 1631.79,-422.52 1640.07,-429.13 1642.38,-422.52"/>
</g>
<!-- Node61 -->
<g id="node48" class="node">
<title>Node61</title>
<g id="a_node48"><a xlink:title=" ">
<polygon fill="none" stroke="#bfbfbf" points="1673.5,-403.5 1673.5,-422.5 1849.5,-422.5 1849.5,-403.5 1673.5,-403.5"/>
<text text-anchor="middle" x="1761.5" y="-410.5" font-family="Helvetica,sans-Serif" font-size="10.00">OMSimEffectiveAreaAnalyisis.hh</text>
</a>
</g>
</g>
<!-- Node1&#45;&gt;Node61 -->
<g id="edge54" class="edge">
<title>Node1&#45;&gt;Node61</title>
<path fill="none" stroke="midnightblue" d="M1761.5,-459.08C1761.5,-452.01 1761.5,-441.86 1761.5,-432.99"/>
<polygon fill="midnightblue" stroke="midnightblue" points="1765,-432.75 1761.5,-422.75 1758,-432.75 1765,-432.75"/>
</g>
<!-- Node62 -->
<g id="node49" class="node">
<title>Node62</title>
<g id="a_node49"><a xlink:title=" ">
<polygon fill="none" stroke="#bfbfbf" points="1868,-403.5 1868,-422.5 2041,-422.5 2041,-403.5 1868,-403.5"/>
<text text-anchor="middle" x="1954.5" y="-410.5" font-family="Helvetica,sans-Serif" font-size="10.00">OMSimEffectiveAreaDetector.hh</text>
</a>
</g>
</g>
<!-- Node1&#45;&gt;Node62 -->
<g id="edge55" class="edge">
<title>Node1&#45;&gt;Node62</title>
<path fill="none" stroke="midnightblue" d="M1792.08,-459.44C1825.11,-450.2 1877.89,-435.44 1914.27,-425.26"/>
<polygon fill="midnightblue" stroke="midnightblue" points="1915.37,-428.58 1924.06,-422.52 1913.49,-421.84 1915.37,-428.58"/>
</g>
<!-- Node63 -->
<g id="node50" class="node">
<title>Node63</title>
<g id="a_node50"><a xlink:href="_o_m_sim_tools_8hh.html" target="_top" xlink:title=" ">
<polygon fill="none" stroke="black" points="2059.5,-403.5 2059.5,-422.5 2151.5,-422.5 2151.5,-403.5 2059.5,-403.5"/>
<text text-anchor="middle" x="2105.5" y="-410.5" font-family="Helvetica,sans-Serif" font-size="10.00">OMSimTools.hh</text>
</a>
</g>
</g>
<!-- Node1&#45;&gt;Node63 -->
<g id="edge56" class="edge">
<title>Node1&#45;&gt;Node63</title>
<path fill="none" stroke="midnightblue" d="M1817.19,-459.46C1873.25,-450.83 1962.47,-437.02 2049.27,-423.19"/>
<polygon fill="midnightblue" stroke="midnightblue" points="2049.97,-426.62 2059.29,-421.59 2048.86,-419.71 2049.97,-426.62"/>
</g>
<!-- Node3 -->
<g id="node3" class="node">
<title>Node3</title>
<g id="a_node3"><a xlink:href="_o_m_sim_detector_construction_8hh_source.html" target="_top" xlink:title=" ">
<polygon fill="none" stroke="black" points="423.5,-347.5 423.5,-366.5 593.5,-366.5 593.5,-347.5 423.5,-347.5"/>
<text text-anchor="middle" x="508.5" y="-354.5" font-family="Helvetica,sans-Serif" font-size="10.00">OMSimDetectorConstruction.hh</text>
</a>
</g>
</g>
<!-- Node2&#45;&gt;Node3 -->
<g id="edge2" class="edge">
<title>Node2&#45;&gt;Node3</title>
<path fill="none" stroke="midnightblue" d="M1327.8,-410.44C1222.56,-405.47 890.4,-389.09 603.72,-367.07"/>
<polygon fill="midnightblue" stroke="midnightblue" points="603.78,-363.56 593.54,-366.28 603.24,-370.54 603.78,-363.56"/>
</g>
<!-- Node39 -->
<g id="node26" class="node">
<title>Node39</title>
<g id="a_node26"><a xlink:title=" ">
<polygon fill="none" stroke="#bfbfbf" points="612,-347.5 612,-366.5 733,-366.5 733,-347.5 612,-347.5"/>
<text text-anchor="middle" x="672.5" y="-354.5" font-family="Helvetica,sans-Serif" font-size="10.00">OMSimPhysicsList.hh</text>
</a>
</g>
</g>
<!-- Node2&#45;&gt;Node39 -->
<g id="edge28" class="edge">
<title>Node2&#45;&gt;Node39</title>
<path fill="none" stroke="midnightblue" d="M1327.84,-410.24C1235.91,-405.27 972.7,-390.1 743.27,-367.13"/>
<polygon fill="midnightblue" stroke="midnightblue" points="743.36,-363.62 733.06,-366.1 742.66,-370.58 743.36,-363.62"/>
</g>
<!-- Node40 -->
<g id="node27" class="node">
<title>Node40</title>
<g id="a_node27"><a xlink:title=" ">
<polygon fill="none" stroke="#bfbfbf" points="751,-347.5 751,-366.5 936,-366.5 936,-347.5 751,-347.5"/>
<text text-anchor="middle" x="843.5" y="-354.5" font-family="Helvetica,sans-Serif" font-size="10.00">OMSimPrimaryGeneratorAction.hh</text>
</a>
</g>
</g>
<!-- Node2&#45;&gt;Node40 -->
<g id="edge29" class="edge">
<title>Node2&#45;&gt;Node40</title>
<path fill="none" stroke="midnightblue" d="M1327.91,-408.5C1249.6,-400.33 1052.66,-379.8 935.42,-367.58"/>
<polygon fill="midnightblue" stroke="midnightblue" points="935.68,-364.09 925.37,-366.54 934.96,-371.05 935.68,-364.09"/>
</g>
<!-- Node41 -->
<g id="node28" class="node">
<title>Node41</title>
<g id="a_node28"><a xlink:href="_o_m_sim_run_action_8hh_source.html" target="_top" xlink:title=" ">
<polygon fill="none" stroke="black" points="972.5,-291.5 972.5,-310.5 1088.5,-310.5 1088.5,-291.5 972.5,-291.5"/>
<text text-anchor="middle" x="1030.5" y="-298.5" font-family="Helvetica,sans-Serif" font-size="10.00">OMSimRunAction.hh</text>
</a>
</g>
</g>
<!-- Node2&#45;&gt;Node41 -->
<g id="edge30" class="edge">
<title>Node2&#45;&gt;Node41</title>
<path fill="none" stroke="midnightblue" d="M1327.98,-410.52C1239.58,-406.27 1005.3,-392.67 982.5,-367 967.88,-350.54 989.23,-329.83 1007.94,-316.27"/>
<polygon fill="midnightblue" stroke="midnightblue" points="1009.95,-319.13 1016.21,-310.58 1005.99,-313.36 1009.95,-319.13"/>
</g>
<!-- Node45 -->
<g id="node32" class="node">
<title>Node45</title>
<g id="a_node32"><a xlink:title=" ">
<polygon fill="none" stroke="#bfbfbf" points="992,-347.5 992,-366.5 1117,-366.5 1117,-347.5 992,-347.5"/>
<text text-anchor="middle" x="1054.5" y="-354.5" font-family="Helvetica,sans-Serif" font-size="10.00">OMSimEventAction.hh</text>
</a>
</g>
</g>
<!-- Node2&#45;&gt;Node45 -->
<g id="edge36" class="edge">
<title>Node2&#45;&gt;Node45</title>
<path fill="none" stroke="midnightblue" d="M1327.77,-406.07C1276.02,-396.96 1176.37,-379.44 1112.77,-368.25"/>
<polygon fill="midnightblue" stroke="midnightblue" points="1113.34,-364.8 1102.89,-366.51 1112.13,-371.69 1113.34,-364.8"/>
</g>
<!-- Node46 -->
<g id="node33" class="node">
<title>Node46</title>
<g id="a_node33"><a xlink:href="_o_m_sim_tracking_action_8hh_source.html" target="_top" xlink:title=" ">
<polygon fill="none" stroke="black" points="1135.5,-347.5 1135.5,-366.5 1273.5,-366.5 1273.5,-347.5 1135.5,-347.5"/>
<text text-anchor="middle" x="1204.5" y="-354.5" font-family="Helvetica,sans-Serif" font-size="10.00">OMSimTrackingAction.hh</text>
</a>
</g>
</g>
<!-- Node2&#45;&gt;Node46 -->
<g id="edge37" class="edge">
<title>Node2&#45;&gt;Node46</title>
<path fill="none" stroke="midnightblue" d="M1336.62,-403.44C1310.21,-394.36 1268.28,-379.94 1238.76,-369.78"/>
<polygon fill="midnightblue" stroke="midnightblue" points="1239.86,-366.46 1229.26,-366.52 1237.58,-373.08 1239.86,-366.46"/>
</g>
<!-- Node48 -->
<g id="node35" class="node">
<title>Node48</title>
<g id="a_node35"><a xlink:href="_o_m_sim_stepping_action_8hh.html" target="_top" xlink:title="Defines OMSimSteppingAction.Currently it only checks for trapped photons.">
<polygon fill="none" stroke="black" points="1291.5,-347.5 1291.5,-366.5 1431.5,-366.5 1431.5,-347.5 1291.5,-347.5"/>
<text text-anchor="middle" x="1361.5" y="-354.5" font-family="Helvetica,sans-Serif" font-size="10.00">OMSimSteppingAction.hh</text>
</a>
</g>
</g>
<!-- Node2&#45;&gt;Node48 -->
<g id="edge39" class="edge">
<title>Node2&#45;&gt;Node48</title>
<path fill="none" stroke="midnightblue" d="M1361.5,-403.08C1361.5,-396.01 1361.5,-385.86 1361.5,-376.99"/>
<polygon fill="midnightblue" stroke="midnightblue" points="1365,-376.75 1361.5,-366.75 1358,-376.75 1365,-376.75"/>
</g>
<!-- Node50 -->
<g id="node37" class="node">
<title>Node50</title>
<g id="a_node37"><a xlink:href="_o_m_sim_u_iinterface_8hh.html" target="_top" xlink:title=" ">
<polygon fill="none" stroke="black" points="1450,-291.5 1450,-310.5 1571,-310.5 1571,-291.5 1450,-291.5"/>
<text text-anchor="middle" x="1510.5" y="-298.5" font-family="Helvetica,sans-Serif" font-size="10.00">OMSimUIinterface.hh</text>
</a>
</g>
</g>
<!-- Node2&#45;&gt;Node50 -->
<g id="edge41" class="edge">
<title>Node2&#45;&gt;Node50</title>
<path fill="none" stroke="midnightblue" d="M1379.16,-403.43C1395.66,-395.09 1420.65,-381.57 1440.5,-367 1460.84,-352.07 1481.73,-331.93 1495.33,-318.04"/>
<polygon fill="midnightblue" stroke="midnightblue" points="1498.01,-320.3 1502.43,-310.68 1492.97,-315.44 1498.01,-320.3"/>
</g>
<!-- Node55 -->
<g id="node42" class="node">
<title>Node55</title>
<g id="a_node42"><a xlink:title=" ">
<polygon fill="none" stroke="#bfbfbf" points="1488,-347.5 1488,-366.5 1609,-366.5 1609,-347.5 1488,-347.5"/>
<text text-anchor="middle" x="1548.5" y="-354.5" font-family="Helvetica,sans-Serif" font-size="10.00">G4MTRunManager.hh</text>
</a>
</g>
</g>
<!-- Node2&#45;&gt;Node55 -->
<g id="edge48" class="edge">
<title>Node2&#45;&gt;Node55</title>
<path fill="none" stroke="midnightblue" d="M1391.13,-403.44C1423,-394.24 1473.83,-379.56 1509.06,-369.39"/>
<polygon fill="midnightblue" stroke="midnightblue" points="1510.37,-372.65 1519.01,-366.52 1508.43,-365.93 1510.37,-372.65"/>
</g>
<!-- Node56 -->
<g id="node43" class="node">
<title>Node56</title>
<g id="a_node43"><a xlink:title=" ">
<polygon fill="none" stroke="#bfbfbf" points="1627,-347.5 1627,-366.5 1734,-366.5 1734,-347.5 1627,-347.5"/>
<text text-anchor="middle" x="1680.5" y="-354.5" font-family="Helvetica,sans-Serif" font-size="10.00">G4VisExecutive.hh</text>
</a>
</g>
</g>
<!-- Node2&#45;&gt;Node56 -->
<g id="edge49" class="edge">
<title>Node2&#45;&gt;Node56</title>
<path fill="none" stroke="midnightblue" d="M1395.04,-406.32C1448.44,-397.28 1553.58,-379.49 1620.27,-368.2"/>
<polygon fill="midnightblue" stroke="midnightblue" points="1620.95,-371.63 1630.23,-366.51 1619.78,-364.73 1620.95,-371.63"/>
</g>
<!-- Node57 -->
<g id="node44" class="node">
<title>Node57</title>
<g id="a_node44"><a xlink:title=" ">
<polygon fill="none" stroke="#bfbfbf" points="1752,-347.5 1752,-366.5 1855,-366.5 1855,-347.5 1752,-347.5"/>
<text text-anchor="middle" x="1803.5" y="-354.5" font-family="Helvetica,sans-Serif" font-size="10.00">G4UIExecutive.hh</text>
</a>
</g>
</g>
<!-- Node2&#45;&gt;Node57 -->
<g id="edge50" class="edge">
<title>Node2&#45;&gt;Node57</title>
<path fill="none" stroke="midnightblue" d="M1395.01,-408.41C1459.91,-401.39 1607.49,-385.04 1741.75,-367.2"/>
<polygon fill="midnightblue" stroke="midnightblue" points="1742.35,-370.65 1751.8,-365.86 1741.43,-363.71 1742.35,-370.65"/>
</g>
<!-- Node58 -->
<g id="node45" class="node">
<title>Node58</title>
<g id="a_node45"><a xlink:title=" ">
<polygon fill="none" stroke="#bfbfbf" points="1873.5,-347.5 1873.5,-366.5 2023.5,-366.5 2023.5,-347.5 1873.5,-347.5"/>
<text text-anchor="middle" x="1948.5" y="-354.5" font-family="Helvetica,sans-Serif" font-size="10.00">boost/program_options.hpp</text>
</a>
</g>
</g>
<!-- Node2&#45;&gt;Node58 -->
<g id="edge51" class="edge">
<title>Node2&#45;&gt;Node58</title>
<path fill="none" stroke="midnightblue" d="M1395.07,-409.2C1474.46,-402.54 1680.2,-385.02 1863.32,-367.1"/>
<polygon fill="midnightblue" stroke="midnightblue" points="1863.79,-370.57 1873.4,-366.11 1863.11,-363.61 1863.79,-370.57"/>
</g>
<!-- Node4 -->
<g id="node4" class="node">
<title>Node4</title>
<g id="a_node4"><a xlink:href="_o_m_sim_optical_module_8hh_source.html" target="_top" xlink:title=" ">
<polygon fill="none" stroke="black" points="322,-291.5 322,-310.5 459,-310.5 459,-291.5 322,-291.5"/>
<text text-anchor="middle" x="390.5" y="-298.5" font-family="Helvetica,sans-Serif" font-size="10.00">OMSimOpticalModule.hh</text>
</a>
</g>
</g>
<!-- Node3&#45;&gt;Node4 -->
<g id="edge3" class="edge">
<title>Node3&#45;&gt;Node4</title>
<path fill="none" stroke="midnightblue" d="M489.8,-347.44C470.56,-338.64 440.35,-324.81 418.3,-314.72"/>
<polygon fill="midnightblue" stroke="midnightblue" points="419.66,-311.5 409.11,-310.52 416.75,-317.86 419.66,-311.5"/>
</g>
<!-- Node37 -->
<g id="node24" class="node">
<title>Node37</title>
<g id="a_node24"><a xlink:title=" ">
<polygon fill="none" stroke="#bfbfbf" points="477.5,-291.5 477.5,-310.5 539.5,-310.5 539.5,-291.5 477.5,-291.5"/>
<text text-anchor="middle" x="508.5" y="-298.5" font-family="Helvetica,sans-Serif" font-size="10.00">G4Orb.hh</text>
</a>
</g>
</g>
<!-- Node3&#45;&gt;Node37 -->
<g id="edge26" class="edge">
<title>Node3&#45;&gt;Node37</title>
<path fill="none" stroke="midnightblue" d="M508.5,-347.08C508.5,-340.01 508.5,-329.86 508.5,-320.99"/>
<polygon fill="midnightblue" stroke="midnightblue" points="512,-320.75 508.5,-310.75 505,-320.75 512,-320.75"/>
</g>
<!-- Node38 -->
<g id="node25" class="node">
<title>Node38</title>
<g id="a_node25"><a xlink:title=" ">
<polygon fill="none" stroke="#bfbfbf" points="557.5,-291.5 557.5,-310.5 735.5,-310.5 735.5,-291.5 557.5,-291.5"/>
<text text-anchor="middle" x="646.5" y="-298.5" font-family="Helvetica,sans-Serif" font-size="10.00">G4VUserDetectorConstruction.hh</text>
</a>
</g>
</g>
<!-- Node3&#45;&gt;Node38 -->
<g id="edge27" class="edge">
<title>Node3&#45;&gt;Node38</title>
<path fill="none" stroke="midnightblue" d="M530.37,-347.44C553.28,-338.48 589.48,-324.31 615.37,-314.18"/>
<polygon fill="midnightblue" stroke="midnightblue" points="616.7,-317.42 624.74,-310.52 614.15,-310.9 616.7,-317.42"/>
</g>
<!-- Node5 -->
<g id="node5" class="node">
<title>Node5</title>
<g id="a_node5"><a xlink:href="abc_detector_component_8hh.html" target="_top" xlink:title="Provides helper base class abcDetectorComponent for constructing and managing detector components in ...">
<polygon fill="none" stroke="black" points="176,-179.5 176,-198.5 323,-198.5 323,-179.5 176,-179.5"/>
<text text-anchor="middle" x="249.5" y="-186.5" font-family="Helvetica,sans-Serif" font-size="10.00">abcDetectorComponent.hh</text>
</a>
</g>
</g>
<!-- Node4&#45;&gt;Node5 -->
<g id="edge4" class="edge">
<title>Node4&#45;&gt;Node5</title>
<path fill="none" stroke="midnightblue" d="M369.92,-291.5C352.11,-283.57 326.19,-270.64 306.5,-255 288.95,-241.06 272.49,-221.27 261.81,-207.2"/>
<polygon fill="midnightblue" stroke="midnightblue" points="264.43,-204.86 255.67,-198.89 258.8,-209.02 264.43,-204.86"/>
</g>
<!-- Node26 -->
<g id="node16" class="node">
<title>Node26</title>
<g id="a_node16"><a xlink:href="_o_m_sim_hit_manager_8hh.html" target="_top" xlink:title="Defines structures and classes related to optical module photon hit management.">
<polygon fill="none" stroke="black" points="716,-235.5 716,-254.5 839,-254.5 839,-235.5 716,-235.5"/>
<text text-anchor="middle" x="777.5" y="-242.5" font-family="Helvetica,sans-Serif" font-size="10.00">OMSimHitManager.hh</text>
</a>
</g>
</g>
<!-- Node4&#45;&gt;Node26 -->
<g id="edge15" class="edge">
<title>Node4&#45;&gt;Node26</title>
<path fill="none" stroke="midnightblue" d="M451.82,-291.44C521.03,-281.79 633.45,-266.1 706.44,-255.92"/>
<polygon fill="midnightblue" stroke="midnightblue" points="707.05,-259.36 716.47,-254.52 706.08,-252.43 707.05,-259.36"/>
</g>
<!-- Node34 -->
<g id="node22" class="node">
<title>Node34</title>
<g id="a_node22"><a xlink:href="_o_m_sim_p_m_t_construction_8hh.html" target="_top" xlink:title="Construction of the PMTs.">
<polygon fill="none" stroke="red" points="316,-235.5 316,-254.5 465,-254.5 465,-235.5 316,-235.5"/>
<text text-anchor="middle" x="390.5" y="-242.5" font-family="Helvetica,sans-Serif" font-size="10.00">OMSimPMTConstruction.hh</text>
</a>
</g>
</g>
<!-- Node4&#45;&gt;Node34 -->
<g id="edge21" class="edge">
<title>Node4&#45;&gt;Node34</title>
<path fill="none" stroke="midnightblue" d="M390.5,-291.08C390.5,-284.01 390.5,-273.86 390.5,-264.99"/>
<polygon fill="midnightblue" stroke="midnightblue" points="394,-264.75 390.5,-254.75 387,-264.75 394,-264.75"/>
</g>
<!-- Node6 -->
<g id="node6" class="node">
<title>Node6</title>
<g id="a_node6"><a xlink:href="_o_m_sim_input_data_8hh.html" target="_top" xlink:title="Definition of ParameterTable and OMSimInputData.">
<polygon fill="none" stroke="red" points="0,-123.5 0,-142.5 115,-142.5 115,-123.5 0,-123.5"/>
<text text-anchor="middle" x="57.5" y="-130.5" font-family="Helvetica,sans-Serif" font-size="10.00">OMSimInputData.hh</text>
</a>
</g>
</g>
<!-- Node5&#45;&gt;Node6 -->
<g id="edge5" class="edge">
<title>Node5&#45;&gt;Node6</title>
<path fill="none" stroke="midnightblue" d="M219.08,-179.44C186.22,-170.2 133.72,-155.44 97.53,-145.26"/>
<polygon fill="midnightblue" stroke="midnightblue" points="98.35,-141.85 87.78,-142.52 96.46,-148.59 98.35,-141.85"/>
</g>
<!-- Node22 -->
<g id="node12" class="node">
<title>Node22</title>
<g id="a_node12"><a xlink:title=" ">
<polygon fill="none" stroke="#bfbfbf" points="133,-123.5 133,-142.5 240,-142.5 240,-123.5 133,-123.5"/>
<text text-anchor="middle" x="186.5" y="-130.5" font-family="Helvetica,sans-Serif" font-size="10.00">G4Transform3D.hh</text>
</a>
</g>
</g>
<!-- Node5&#45;&gt;Node22 -->
<g id="edge11" class="edge">
<title>Node5&#45;&gt;Node22</title>
<path fill="none" stroke="midnightblue" d="M239.38,-179.32C229.97,-171.26 215.76,-159.08 204.43,-149.37"/>
<polygon fill="midnightblue" stroke="midnightblue" points="206.68,-146.68 196.81,-142.83 202.12,-152 206.68,-146.68"/>
</g>
<!-- Node23 -->
<g id="node13" class="node">
<title>Node23</title>
<g id="a_node13"><a xlink:title=" ">
<polygon fill="none" stroke="#bfbfbf" points="258.5,-123.5 258.5,-142.5 366.5,-142.5 366.5,-123.5 258.5,-123.5"/>
<text text-anchor="middle" x="312.5" y="-130.5" font-family="Helvetica,sans-Serif" font-size="10.00">G4VisAttributes.hh</text>
</a>
</g>
</g>
<!-- Node5&#45;&gt;Node23 -->
<g id="edge12" class="edge">
<title>Node5&#45;&gt;Node23</title>
<path fill="none" stroke="midnightblue" d="M259.62,-179.32C269.03,-171.26 283.24,-159.08 294.57,-149.37"/>
<polygon fill="midnightblue" stroke="midnightblue" points="296.88,-152 302.19,-142.83 292.32,-146.68 296.88,-152"/>
</g>
<!-- Node24 -->
<g id="node14" class="node">
<title>Node24</title>
<g id="a_node14"><a xlink:title=" ">
<polygon fill="none" stroke="#bfbfbf" points="385,-123.5 385,-142.5 510,-142.5 510,-123.5 385,-123.5"/>
<text text-anchor="middle" x="447.5" y="-130.5" font-family="Helvetica,sans-Serif" font-size="10.00">G4SubtractionSolid.hh</text>
</a>
</g>
</g>
<!-- Node5&#45;&gt;Node24 -->
<g id="edge13" class="edge">
<title>Node5&#45;&gt;Node24</title>
<path fill="none" stroke="midnightblue" d="M280.87,-179.44C314.76,-170.2 368.9,-155.44 406.22,-145.26"/>
<polygon fill="midnightblue" stroke="midnightblue" points="407.55,-148.52 416.27,-142.52 405.7,-141.77 407.55,-148.52"/>
</g>
<!-- Node25 -->
<g id="node15" class="node">
<title>Node25</title>
<g id="a_node15"><a xlink:title=" ">
<polygon fill="none" stroke="#bfbfbf" points="528.5,-123.5 528.5,-142.5 638.5,-142.5 638.5,-123.5 528.5,-123.5"/>
<text text-anchor="middle" x="583.5" y="-130.5" font-family="Helvetica,sans-Serif" font-size="10.00">G4PVPlacement.hh</text>
</a>
</g>
</g>
<!-- Node5&#45;&gt;Node25 -->
<g id="edge14" class="edge">
<title>Node5&#45;&gt;Node25</title>
<path fill="none" stroke="midnightblue" d="M302.42,-179.44C361.67,-169.87 457.6,-154.36 520.62,-144.17"/>
<polygon fill="midnightblue" stroke="midnightblue" points="521.51,-147.57 530.82,-142.52 520.39,-140.66 521.51,-147.57"/>
</g>
<!-- Node7 -->
<g id="node7" class="node">
<title>Node7</title>
<g id="a_node7"><a xlink:href="_o_m_sim_logger_8hh_source.html" target="_top" xlink:title=" ">
<polygon fill="none" stroke="black" points="1079,-67.5 1079,-86.5 1178,-86.5 1178,-67.5 1079,-67.5"/>
<text text-anchor="middle" x="1128.5" y="-74.5" font-family="Helvetica,sans-Serif" font-size="10.00">OMSimLogger.hh</text>
</a>
</g>
</g>
<!-- Node6&#45;&gt;Node7 -->
<g id="edge6" class="edge">
<title>Node6&#45;&gt;Node7</title>
<path fill="none" stroke="midnightblue" d="M115.06,-123.84C117.91,-123.53 120.74,-123.25 123.5,-123 481.22,-90.67 912.76,-81.24 1068.68,-78.79"/>
<polygon fill="midnightblue" stroke="midnightblue" points="1069.04,-82.28 1078.98,-78.63 1068.93,-75.28 1069.04,-82.28"/>
</g>
<!-- Node8 -->
<g id="node8" class="node">
<title>Node8</title>
<g id="a_node8"><a xlink:title=" ">
<polygon fill="none" stroke="#bfbfbf" points="911,-6 911,-25 1004,-25 1004,-6 911,-6"/>
<text text-anchor="middle" x="957.5" y="-13" font-family="Helvetica,sans-Serif" font-size="10.00">spdlog/spdlog.h</text>
</a>
</g>
</g>
<!-- Node7&#45;&gt;Node8 -->
<g id="edge7" class="edge">
<title>Node7&#45;&gt;Node8</title>
<path fill="none" stroke="midnightblue" d="M1104,-67.48C1074.54,-57.22 1024.92,-39.96 991.7,-28.4"/>
<polygon fill="midnightblue" stroke="midnightblue" points="992.55,-24.99 981.95,-25.01 990.25,-31.6 992.55,-24.99"/>
</g>
<!-- Node9 -->
<g id="node9" class="node">
<title>Node9</title>
<g id="a_node9"><a xlink:title=" ">
<polygon fill="none" stroke="#bfbfbf" points="1022,-0.5 1022,-30.5 1133,-30.5 1133,-0.5 1022,-0.5"/>
<text text-anchor="start" x="1030" y="-18.5" font-family="Helvetica,sans-Serif" font-size="10.00">spdlog/sinks/stdout</text>
<text text-anchor="middle" x="1077.5" y="-7.5" font-family="Helvetica,sans-Serif" font-size="10.00">_color_sinks.h</text>
</a>
</g>
</g>
<!-- Node7&#45;&gt;Node9 -->
<g id="edge8" class="edge">
<title>Node7&#45;&gt;Node9</title>
<path fill="none" stroke="midnightblue" d="M1121.19,-67.48C1114.67,-59.87 1104.84,-48.4 1096.16,-38.26"/>
<polygon fill="midnightblue" stroke="midnightblue" points="1098.69,-35.84 1089.52,-30.52 1093.37,-40.39 1098.69,-35.84"/>
</g>
<!-- Node10 -->
<g id="node10" class="node">
<title>Node10</title>
<g id="a_node10"><a xlink:title=" ">
<polygon fill="none" stroke="#bfbfbf" points="1151.5,-6 1151.5,-25 1209.5,-25 1209.5,-6 1151.5,-6"/>
<text text-anchor="middle" x="1180.5" y="-13" font-family="Helvetica,sans-Serif" font-size="10.00">memory</text>
</a>
</g>
</g>
<!-- Node7&#45;&gt;Node10 -->
<g id="edge9" class="edge">
<title>Node7&#45;&gt;Node10</title>
<path fill="none" stroke="midnightblue" d="M1135.95,-67.48C1143.83,-58.46 1156.44,-44.02 1166.24,-32.81"/>
<polygon fill="midnightblue" stroke="midnightblue" points="1169.12,-34.84 1173.06,-25.01 1163.85,-30.24 1169.12,-34.84"/>
</g>
<!-- Node11 -->
<g id="node11" class="node">
<title>Node11</title>
<g id="a_node11"><a xlink:title=" ">
<polygon fill="none" stroke="#bfbfbf" points="1227.5,-6 1227.5,-25 1325.5,-25 1325.5,-6 1227.5,-6"/>
<text text-anchor="middle" x="1276.5" y="-13" font-family="Helvetica,sans-Serif" font-size="10.00">spdlog/fmt/fmt.h</text>
</a>
</g>
</g>
<!-- Node7&#45;&gt;Node11 -->
<g id="edge10" class="edge">
<title>Node7&#45;&gt;Node11</title>
<path fill="none" stroke="midnightblue" d="M1149.7,-67.48C1174.87,-57.36 1217.04,-40.4 1245.78,-28.85"/>
<polygon fill="midnightblue" stroke="midnightblue" points="1247.36,-31.99 1255.33,-25.01 1244.75,-25.49 1247.36,-31.99"/>
</g>
<!-- Node27 -->
<g id="node17" class="node">
<title>Node27</title>
<g id="a_node17"><a xlink:href="_o_m_sim_p_m_t_response_8hh.html" target="_top" xlink:title="Simulation of PMT response.">
<polygon fill="none" stroke="red" points="458,-179.5 458,-198.5 593,-198.5 593,-179.5 458,-179.5"/>
<text text-anchor="middle" x="525.5" y="-186.5" font-family="Helvetica,sans-Serif" font-size="10.00">OMSimPMTResponse.hh</text>
</a>
</g>
</g>
<!-- Node26&#45;&gt;Node27 -->
<g id="edge16" class="edge">
<title>Node26&#45;&gt;Node27</title>
<path fill="none" stroke="midnightblue" d="M737.57,-235.44C693.61,-226.02 622.87,-210.87 575.32,-200.68"/>
<polygon fill="midnightblue" stroke="midnightblue" points="575.75,-197.19 565.24,-198.52 574.29,-204.03 575.75,-197.19"/>
</g>
<!-- Node32 -->
<g id="node18" class="node">
<title>Node32</title>
<g id="a_node18"><a xlink:title=" ">
<polygon fill="none" stroke="#bfbfbf" points="611,-179.5 611,-198.5 714,-198.5 714,-179.5 611,-179.5"/>
<text text-anchor="middle" x="662.5" y="-186.5" font-family="Helvetica,sans-Serif" font-size="10.00">G4ThreeVector.hh</text>
</a>
</g>
</g>
<!-- Node26&#45;&gt;Node32 -->
<g id="edge17" class="edge">
<title>Node26&#45;&gt;Node32</title>
<path fill="none" stroke="midnightblue" d="M759.28,-235.44C740.6,-226.68 711.34,-212.94 689.88,-202.86"/>
<polygon fill="midnightblue" stroke="midnightblue" points="691.18,-199.6 680.64,-198.52 688.2,-205.93 691.18,-199.6"/>
</g>
<!-- Node33 -->
<g id="node19" class="node">
<title>Node33</title>
<g id="a_node19"><a xlink:title=" ">
<polygon fill="none" stroke="#bfbfbf" points="953,-179.5 953,-198.5 1008,-198.5 1008,-179.5 953,-179.5"/>
<text text-anchor="middle" x="980.5" y="-186.5" font-family="Helvetica,sans-Serif" font-size="10.00">fstream</text>
</a>
</g>
</g>
<!-- Node26&#45;&gt;Node33 -->
<g id="edge18" class="edge">
<title>Node26&#45;&gt;Node33</title>
<path fill="none" stroke="midnightblue" d="M809.67,-235.44C845.89,-225.81 904.69,-210.17 942.98,-199.98"/>
<polygon fill="midnightblue" stroke="midnightblue" points="943.96,-203.34 952.73,-197.39 942.16,-196.58 943.96,-203.34"/>
</g>
<!-- Node18 -->
<g id="node20" class="node">
<title>Node18</title>
<g id="a_node20"><a xlink:title=" ">
<polygon fill="none" stroke="#bfbfbf" points="732.5,-179.5 732.5,-198.5 822.5,-198.5 822.5,-179.5 732.5,-179.5"/>
<text text-anchor="middle" x="777.5" y="-186.5" font-family="Helvetica,sans-Serif" font-size="10.00">G4AutoLock.hh</text>
</a>
</g>
</g>
<!-- Node26&#45;&gt;Node18 -->
<g id="edge19" class="edge">
<title>Node26&#45;&gt;Node18</title>
<path fill="none" stroke="midnightblue" d="M777.5,-235.08C777.5,-228.01 777.5,-217.86 777.5,-208.99"/>
<polygon fill="midnightblue" stroke="midnightblue" points="781,-208.75 777.5,-198.75 774,-208.75 781,-208.75"/>
</g>
<!-- Node19 -->
<g id="node21" class="node">
<title>Node19</title>
<g id="a_node21"><a xlink:title=" ">
<polygon fill="none" stroke="#bfbfbf" points="840.5,-179.5 840.5,-198.5 934.5,-198.5 934.5,-179.5 840.5,-179.5"/>
<text text-anchor="middle" x="887.5" y="-186.5" font-family="Helvetica,sans-Serif" font-size="10.00">G4Threading.hh</text>
</a>
</g>
</g>
<!-- Node26&#45;&gt;Node19 -->
<g id="edge20" class="edge">
<title>Node26&#45;&gt;Node19</title>
<path fill="none" stroke="midnightblue" d="M795.17,-235.32C812.89,-226.62 840.4,-213.12 860.79,-203.11"/>
<polygon fill="midnightblue" stroke="midnightblue" points="862.44,-206.2 869.87,-198.65 859.35,-199.92 862.44,-206.2"/>
</g>
<!-- Node34&#45;&gt;Node5 -->
<g id="edge22" class="edge">
<title>Node34&#45;&gt;Node5</title>
<path fill="none" stroke="midnightblue" d="M368.16,-235.44C344.75,-226.48 307.76,-212.31 281.31,-202.18"/>
<polygon fill="midnightblue" stroke="midnightblue" points="282.33,-198.82 271.74,-198.52 279.82,-205.36 282.33,-198.82"/>
</g>
<!-- Node34&#45;&gt;Node27 -->
<g id="edge24" class="edge">
<title>Node34&#45;&gt;Node27</title>
<path fill="none" stroke="midnightblue" d="M411.89,-235.44C434.21,-226.52 469.4,-212.44 494.71,-202.32"/>
<polygon fill="midnightblue" stroke="midnightblue" points="496.22,-205.48 504.21,-198.52 493.62,-198.98 496.22,-205.48"/>
</g>
<!-- Node34&#45;&gt;Node34 -->
<g id="edge23" class="edge">
<title>Node34&#45;&gt;Node34</title>
<path fill="none" stroke="midnightblue" d="M429.95,-254.53C456.76,-257.31 483,-254.13 483,-245 483,-237.01 462.91,-233.58 439.93,-234.71"/>
<polygon fill="midnightblue" stroke="midnightblue" points="439.65,-231.22 429.95,-235.47 440.19,-238.2 439.65,-231.22"/>
</g>
<!-- Node35 -->
<g id="node23" class="node">
<title>Node35</title>
<g id="a_node23"><a xlink:title=" ">
<polygon fill="none" stroke="#bfbfbf" points="341.5,-179.5 341.5,-198.5 439.5,-198.5 439.5,-179.5 341.5,-179.5"/>
<text text-anchor="middle" x="390.5" y="-186.5" font-family="Helvetica,sans-Serif" font-size="10.00">G4UnionSolid.hh</text>
</a>
</g>
</g>
<!-- Node34&#45;&gt;Node35 -->
<g id="edge25" class="edge">
<title>Node34&#45;&gt;Node35</title>
<path fill="none" stroke="midnightblue" d="M390.5,-235.08C390.5,-228.01 390.5,-217.86 390.5,-208.99"/>
<polygon fill="midnightblue" stroke="midnightblue" points="394,-208.75 390.5,-198.75 387,-208.75 394,-208.75"/>
</g>
<!-- Node41&#45;&gt;Node7 -->
<g id="edge33" class="edge">
<title>Node41&#45;&gt;Node7</title>
<path fill="none" stroke="midnightblue" d="M1027.22,-291.39C1022.9,-278.75 1016.51,-254.57 1022.5,-235 1040.38,-176.57 1088.13,-120.26 1112.98,-93.77"/>
<polygon fill="midnightblue" stroke="midnightblue" points="1115.52,-96.18 1119.9,-86.53 1110.46,-91.34 1115.52,-96.18"/>
</g>
<!-- Node41&#45;&gt;Node26 -->
<g id="edge32" class="edge">
<title>Node41&#45;&gt;Node26</title>
<path fill="none" stroke="midnightblue" d="M990.41,-291.44C946.18,-282 874.96,-266.8 827.22,-256.61"/>
<polygon fill="midnightblue" stroke="midnightblue" points="827.91,-253.18 817.4,-254.52 826.45,-260.03 827.91,-253.18"/>
</g>
<!-- Node42 -->
<g id="node29" class="node">
<title>Node42</title>
<g id="a_node29"><a xlink:title=" ">
<polygon fill="none" stroke="#bfbfbf" points="1032,-235.5 1032,-254.5 1149,-254.5 1149,-235.5 1032,-235.5"/>
<text text-anchor="middle" x="1090.5" y="-242.5" font-family="Helvetica,sans-Serif" font-size="10.00">G4UserRunAction.hh</text>
</a>
</g>
</g>
<!-- Node41&#45;&gt;Node42 -->
<g id="edge31" class="edge">
<title>Node41&#45;&gt;Node42</title>
<path fill="none" stroke="midnightblue" d="M1040.14,-291.32C1049.01,-283.34 1062.37,-271.31 1073.11,-261.65"/>
<polygon fill="midnightblue" stroke="midnightblue" points="1075.59,-264.13 1080.68,-254.83 1070.91,-258.92 1075.59,-264.13"/>
</g>
<!-- Node43 -->
<g id="node30" class="node">
<title>Node43</title>
<g id="a_node30"><a xlink:title=" ">
<polygon fill="none" stroke="#bfbfbf" points="1167.5,-235.5 1167.5,-254.5 1253.5,-254.5 1253.5,-235.5 1167.5,-235.5"/>
<text text-anchor="middle" x="1210.5" y="-242.5" font-family="Helvetica,sans-Serif" font-size="10.00">Randomize.hh</text>
</a>
</g>
</g>
<!-- Node41&#45;&gt;Node43 -->
<g id="edge34" class="edge">
<title>Node41&#45;&gt;Node43</title>
<path fill="none" stroke="midnightblue" d="M1059.02,-291.44C1089.57,-282.28 1138.21,-267.69 1172.1,-257.52"/>
<polygon fill="midnightblue" stroke="midnightblue" points="1173.54,-260.74 1182.11,-254.52 1171.53,-254.04 1173.54,-260.74"/>
</g>
<!-- Node44 -->
<g id="node31" class="node">
<title>Node44</title>
<g id="a_node31"><a xlink:title=" ">
<polygon fill="none" stroke="#bfbfbf" points="1271.5,-235.5 1271.5,-254.5 1335.5,-254.5 1335.5,-235.5 1271.5,-235.5"/>
<text text-anchor="middle" x="1303.5" y="-242.5" font-family="Helvetica,sans-Serif" font-size="10.00">G4Run.hh</text>
</a>
</g>
</g>
<!-- Node41&#45;&gt;Node44 -->
<g id="edge35" class="edge">
<title>Node41&#45;&gt;Node44</title>
<path fill="none" stroke="midnightblue" d="M1076.35,-291.45C1121.09,-283.03 1191.35,-269.6 1261.41,-255.19"/>
<polygon fill="midnightblue" stroke="midnightblue" points="1262.2,-258.6 1271.29,-253.15 1260.79,-251.74 1262.2,-258.6"/>
</g>
<!-- Node47 -->
<g id="node34" class="node">
<title>Node47</title>
<g id="a_node34"><a xlink:title=" ">
<polygon fill="none" stroke="#bfbfbf" points="1134,-291.5 1134,-310.5 1273,-310.5 1273,-291.5 1134,-291.5"/>
<text text-anchor="middle" x="1203.5" y="-298.5" font-family="Helvetica,sans-Serif" font-size="10.00">G4UserTrackingAction.hh</text>
</a>
</g>
</g>
<!-- Node46&#45;&gt;Node47 -->
<g id="edge38" class="edge">
<title>Node46&#45;&gt;Node47</title>
<path fill="none" stroke="midnightblue" d="M1204.33,-347.08C1204.2,-340.01 1204.02,-329.86 1203.85,-320.99"/>
<polygon fill="midnightblue" stroke="midnightblue" points="1207.35,-320.68 1203.66,-310.75 1200.35,-320.81 1207.35,-320.68"/>
</g>
<!-- Node49 -->
<g id="node36" class="node">
<title>Node49</title>
<g id="a_node36"><a xlink:title=" ">
<polygon fill="none" stroke="#bfbfbf" points="1291,-291.5 1291,-310.5 1432,-310.5 1432,-291.5 1291,-291.5"/>
<text text-anchor="middle" x="1361.5" y="-298.5" font-family="Helvetica,sans-Serif" font-size="10.00">G4UserSteppingAction.hh</text>
</a>
</g>
</g>
<!-- Node48&#45;&gt;Node49 -->
<g id="edge40" class="edge">
<title>Node48&#45;&gt;Node49</title>
<path fill="none" stroke="midnightblue" d="M1361.5,-347.08C1361.5,-340.01 1361.5,-329.86 1361.5,-320.99"/>
<polygon fill="midnightblue" stroke="midnightblue" points="1365,-320.75 1361.5,-310.75 1358,-320.75 1365,-320.75"/>
</g>
<!-- Node51 -->
<g id="node38" class="node">
<title>Node51</title>
<g id="a_node38"><a xlink:href="_o_m_sim_command_args_table_8hh.html" target="_top" xlink:title="Definition of the OMSimCommandArgsTable singleton class, which controls user args.">
<polygon fill="none" stroke="black" points="1353.5,-235.5 1353.5,-254.5 1517.5,-254.5 1517.5,-235.5 1353.5,-235.5"/>
<text text-anchor="middle" x="1435.5" y="-242.5" font-family="Helvetica,sans-Serif" font-size="10.00">OMSimCommandArgsTable.hh</text>
</a>
</g>
</g>
<!-- Node50&#45;&gt;Node51 -->
<g id="edge42" class="edge">
<title>Node50&#45;&gt;Node51</title>
<path fill="none" stroke="midnightblue" d="M1498.45,-291.32C1487.04,-283.11 1469.67,-270.6 1456.07,-260.81"/>
<polygon fill="midnightblue" stroke="midnightblue" points="1457.93,-257.84 1447.77,-254.83 1453.84,-263.52 1457.93,-257.84"/>
</g>
<!-- Node54 -->
<g id="node41" class="node">
<title>Node54</title>
<g id="a_node41"><a xlink:title=" ">
<polygon fill="none" stroke="#bfbfbf" points="1535.5,-235.5 1535.5,-254.5 1633.5,-254.5 1633.5,-235.5 1535.5,-235.5"/>
<text text-anchor="middle" x="1584.5" y="-242.5" font-family="Helvetica,sans-Serif" font-size="10.00">G4UImanager.hh</text>
</a>
</g>
</g>
<!-- Node50&#45;&gt;Node54 -->
<g id="edge47" class="edge">
<title>Node50&#45;&gt;Node54</title>
<path fill="none" stroke="midnightblue" d="M1522.39,-291.32C1533.65,-283.11 1550.79,-270.6 1564.21,-260.81"/>
<polygon fill="midnightblue" stroke="midnightblue" points="1566.38,-263.56 1572.39,-254.83 1562.25,-257.9 1566.38,-263.56"/>
</g>
<!-- Node51&#45;&gt;Node7 -->
<g id="edge43" class="edge">
<title>Node51&#45;&gt;Node7</title>
<path fill="none" stroke="midnightblue" d="M1415.56,-235.37C1395.77,-226.66 1364.7,-212.59 1338.5,-199 1268.95,-162.92 1189.46,-115.3 1151.3,-92.03"/>
<polygon fill="midnightblue" stroke="midnightblue" points="1152.88,-88.89 1142.52,-86.66 1149.22,-94.86 1152.88,-88.89"/>
</g>
<!-- Node51&#45;&gt;Node33 -->
<g id="edge44" class="edge">
<title>Node51&#45;&gt;Node33</title>
<path fill="none" stroke="midnightblue" d="M1363.65,-235.47C1265.71,-223.85 1093.83,-203.45 1018.12,-194.46"/>
<polygon fill="midnightblue" stroke="midnightblue" points="1018.43,-190.98 1008.09,-193.27 1017.61,-197.93 1018.43,-190.98"/>
</g>
<!-- Node52 -->
<g id="node39" class="node">
<title>Node52</title>
<g id="a_node39"><a xlink:title=" ">
<polygon fill="none" stroke="#bfbfbf" points="1347.5,-179.5 1347.5,-198.5 1431.5,-198.5 1431.5,-179.5 1347.5,-179.5"/>
<text text-anchor="middle" x="1389.5" y="-186.5" font-family="Helvetica,sans-Serif" font-size="10.00">boost/any.hpp</text>
</a>
</g>
</g>
<!-- Node51&#45;&gt;Node52 -->
<g id="edge45" class="edge">
<title>Node51&#45;&gt;Node52</title>
<path fill="none" stroke="midnightblue" d="M1427.9,-235.08C1421.27,-227.3 1411.48,-215.8 1403.44,-206.37"/>
<polygon fill="midnightblue" stroke="midnightblue" points="1406.1,-204.09 1396.95,-198.75 1400.77,-208.63 1406.1,-204.09"/>
</g>
<!-- Node53 -->
<g id="node40" class="node">
<title>Node53</title>
<g id="a_node40"><a xlink:title=" ">
<polygon fill="none" stroke="#bfbfbf" points="1449.5,-179.5 1449.5,-198.5 1517.5,-198.5 1517.5,-179.5 1449.5,-179.5"/>
<text text-anchor="middle" x="1483.5" y="-186.5" font-family="Helvetica,sans-Serif" font-size="10.00">sys/time.h</text>
</a>
</g>
</g>
<!-- Node51&#45;&gt;Node53 -->
<g id="edge46" class="edge">
<title>Node51&#45;&gt;Node53</title>
<path fill="none" stroke="midnightblue" d="M1443.43,-235.08C1450.35,-227.3 1460.57,-215.8 1468.95,-206.37"/>
<polygon fill="midnightblue" stroke="midnightblue" points="1471.69,-208.55 1475.72,-198.75 1466.46,-203.9 1471.69,-208.55"/>
</g>
<!-- Node60 -->
<g id="node47" class="node">
<title>Node60</title>
<g id="a_node47"><a xlink:title=" ">
<polygon fill="none" stroke="#bfbfbf" points="2041,-347.5 2041,-366.5 2108,-366.5 2108,-347.5 2041,-347.5"/>
<text text-anchor="middle" x="2074.5" y="-354.5" font-family="Helvetica,sans-Serif" font-size="10.00">globals.hh</text>
</a>
</g>
</g>
<!-- Node59&#45;&gt;Node60 -->
<g id="edge53" class="edge">
<title>Node59&#45;&gt;Node60</title>
<path fill="none" stroke="midnightblue" d="M1655.06,-404.28C1658.25,-403.82 1661.42,-403.39 1664.5,-403 1824.17,-382.6 1868.32,-391.86 2030.3,-367.2"/>
<polygon fill="midnightblue" stroke="midnightblue" points="2031.29,-370.59 2040.64,-365.6 2030.22,-363.67 2031.29,-370.59"/>
</g>
<!-- Node63&#45;&gt;Node7 -->
<g id="edge57" class="edge">
<title>Node63&#45;&gt;Node7</title>
<path fill="none" stroke="midnightblue" d="M2109.68,-403.39C2118.14,-385.16 2136.5,-341.09 2136.5,-302 2136.5,-302 2136.5,-302 2136.5,-188 2136.5,-92.04 1405.18,-79.74 1188.38,-78.21"/>
<polygon fill="midnightblue" stroke="midnightblue" points="1188.17,-74.71 1178.14,-78.14 1188.12,-81.71 1188.17,-74.71"/>
</g>
<!-- Node63&#45;&gt;Node60 -->
<g id="edge58" class="edge">
<title>Node63&#45;&gt;Node60</title>
<path fill="none" stroke="midnightblue" d="M2100.38,-403.08C2096.09,-395.61 2089.84,-384.72 2084.56,-375.52"/>
<polygon fill="midnightblue" stroke="midnightblue" points="2087.54,-373.68 2079.52,-366.75 2081.47,-377.17 2087.54,-373.68"/>
</g>
</g>
</svg>
