<?xml version="1.0" encoding="UTF-8" standalone="no"?>
<!DOCTYPE svg PUBLIC "-//W3C//DTD SVG 1.1//EN"
 "http://www.w3.org/Graphics/SVG/1.1/DTD/svg11.dtd">
<!-- Generated by graphviz version 2.43.0 (0)
 -->
<!-- Title: OMSimSNAnalysis.cc Pages: 1 -->
<svg width="998pt" height="263pt"
 viewBox="0.00 0.00 997.50 263.00" xmlns="http://www.w3.org/2000/svg" xmlns:xlink="http://www.w3.org/1999/xlink">
<g id="graph0" class="graph" transform="scale(1 1) rotate(0) translate(4 259)">
<title>OMSimSNAnalysis.cc</title>
<polygon fill="white" stroke="transparent" points="-4,4 -4,-259 993.5,-259 993.5,4 -4,4"/>
<!-- Node1 -->
<g id="node1" class="node">
<title>Node1</title>
<g id="a_node1"><a xlink:title="Analyze data and write output files.">
<polygon fill="#bfbfbf" stroke="black" points="358.5,-235.5 358.5,-254.5 478.5,-254.5 478.5,-235.5 358.5,-235.5"/>
<text text-anchor="middle" x="418.5" y="-242.5" font-family="Helvetica,sans-Serif" font-size="10.00">OMSimSNAnalysis.cc</text>
</a>
</g>
</g>
<!-- Node2 -->
<g id="node2" class="node">
<title>Node2</title>
<g id="a_node2"><a xlink:href="_o_m_sim_s_n_analysis_8hh.html" target="_top" xlink:title=" ">
<polygon fill="white" stroke="black" points="357.5,-179.5 357.5,-198.5 479.5,-198.5 479.5,-179.5 357.5,-179.5"/>
<text text-anchor="middle" x="418.5" y="-186.5" font-family="Helvetica,sans-Serif" font-size="10.00">OMSimSNAnalysis.hh</text>
</a>
</g>
</g>
<!-- Node1&#45;&gt;Node2 -->
<g id="edge1" class="edge">
<title>Node1&#45;&gt;Node2</title>
<path fill="none" stroke="midnightblue" d="M418.5,-235.08C418.5,-228.01 418.5,-217.86 418.5,-208.99"/>
<polygon fill="midnightblue" stroke="midnightblue" points="422,-208.75 418.5,-198.75 415,-208.75 422,-208.75"/>
</g>
<!-- Node6 -->
<g id="node6" class="node">
<title>Node6</title>
<g id="a_node6"><a xlink:href="_o_m_sim_hit_manager_8hh.html" target="_top" xlink:title="Defines structures and classes related to optical module photon hit management.">
<polygon fill="white" stroke="black" points="191,-123.5 191,-142.5 314,-142.5 314,-123.5 191,-123.5"/>
<text text-anchor="middle" x="252.5" y="-130.5" font-family="Helvetica,sans-Serif" font-size="10.00">OMSimHitManager.hh</text>
</a>
</g>
</g>
<!-- Node1&#45;&gt;Node6 -->
<g id="edge28" class="edge">
<title>Node1&#45;&gt;Node6</title>
<path fill="none" stroke="midnightblue" d="M405.02,-235.47C390.88,-226.49 368.04,-211.89 348.5,-199 322.39,-181.77 292.61,-161.51 273.23,-148.25"/>
<polygon fill="midnightblue" stroke="midnightblue" points="275.09,-145.28 264.86,-142.51 271.13,-151.05 275.09,-145.28"/>
</g>
<!-- Node8 -->
<g id="node8" class="node">
<title>Node8</title>
<g id="a_node8"><a xlink:title=" ">
<polygon fill="white" stroke="#bfbfbf" points="0,-0.5 0,-19.5 119,-19.5 119,-0.5 0,-0.5"/>
<text text-anchor="middle" x="59.5" y="-7.5" font-family="Helvetica,sans-Serif" font-size="10.00">G4SystemOfUnits.hh</text>
</a>
</g>
</g>
<!-- Node1&#45;&gt;Node8 -->
<g id="edge17" class="edge">
<title>Node1&#45;&gt;Node8</title>
<path fill="none" stroke="midnightblue" d="M373.37,-235.47C301.52,-219.46 161.56,-177.99 86.5,-87 72.89,-70.5 65.91,-46.63 62.49,-30.06"/>
<polygon fill="midnightblue" stroke="midnightblue" points="65.88,-29.16 60.66,-19.94 59,-30.4 65.88,-29.16"/>
</g>
<!-- Node15 -->
<g id="node15" class="node">
<title>Node15</title>
<g id="a_node15"><a xlink:title=" ">
<polygon fill="white" stroke="#bfbfbf" points="813,-179.5 813,-198.5 872,-198.5 872,-179.5 813,-179.5"/>
<text text-anchor="middle" x="842.5" y="-186.5" font-family="Helvetica,sans-Serif" font-size="10.00">G4ios.hh</text>
</a>
</g>
</g>
<!-- Node1&#45;&gt;Node15 -->
<g id="edge18" class="edge">
<title>Node1&#45;&gt;Node15</title>
<path fill="none" stroke="midnightblue" d="M478.81,-239.03C552.78,-232.47 682.13,-219.5 802.62,-198.97"/>
<polygon fill="midnightblue" stroke="midnightblue" points="803.5,-202.37 812.76,-197.22 802.31,-195.47 803.5,-202.37"/>
</g>
<!-- Node16 -->
<g id="node16" class="node">
<title>Node16</title>
<g id="a_node16"><a xlink:href="_o_m_sim_command_args_table_8hh.html" target="_top" xlink:title="Definition of the OMSimCommandArgsTable singleton class, which controls user args.">
<polygon fill="white" stroke="black" points="630.5,-179.5 630.5,-198.5 794.5,-198.5 794.5,-179.5 630.5,-179.5"/>
<text text-anchor="middle" x="712.5" y="-186.5" font-family="Helvetica,sans-Serif" font-size="10.00">OMSimCommandArgsTable.hh</text>
</a>
</g>
</g>
<!-- Node1&#45;&gt;Node16 -->
<g id="edge19" class="edge">
<title>Node1&#45;&gt;Node16</title>
<path fill="none" stroke="midnightblue" d="M465.09,-235.44C516.91,-225.92 600.63,-210.55 656.12,-200.36"/>
<polygon fill="midnightblue" stroke="midnightblue" points="656.93,-203.77 666.13,-198.52 655.66,-196.88 656.93,-203.77"/>
</g>
<!-- Node3 -->
<g id="node3" class="node">
<title>Node3</title>
<g id="a_node3"><a xlink:title=" ">
<polygon fill="white" stroke="#bfbfbf" points="344,-0.5 344,-19.5 417,-19.5 417,-0.5 344,-0.5"/>
<text text-anchor="middle" x="380.5" y="-7.5" font-family="Helvetica,sans-Serif" font-size="10.00">G4Types.hh</text>
</a>
</g>
</g>
<!-- Node2&#45;&gt;Node3 -->
<g id="edge2" class="edge">
<title>Node2&#45;&gt;Node3</title>
<path fill="none" stroke="midnightblue" d="M416.67,-179.46C410.86,-152.43 392.79,-68.24 384.6,-30.11"/>
<polygon fill="midnightblue" stroke="midnightblue" points="387.93,-28.91 382.4,-19.87 381.08,-30.38 387.93,-28.91"/>
</g>
<!-- Node4 -->
<g id="node4" class="node">
<title>Node4</title>
<g id="a_node4"><a xlink:title=" ">
<polygon fill="white" stroke="#bfbfbf" points="446.5,-123.5 446.5,-142.5 520.5,-142.5 520.5,-123.5 446.5,-123.5"/>
<text text-anchor="middle" x="483.5" y="-130.5" font-family="Helvetica,sans-Serif" font-size="10.00">G4String.hh</text>
</a>
</g>
</g>
<!-- Node2&#45;&gt;Node4 -->
<g id="edge3" class="edge">
<title>Node2&#45;&gt;Node4</title>
<path fill="none" stroke="midnightblue" d="M428.94,-179.32C438.65,-171.26 453.32,-159.08 465,-149.37"/>
<polygon fill="midnightblue" stroke="midnightblue" points="467.41,-151.92 472.87,-142.83 462.94,-146.53 467.41,-151.92"/>
</g>
<!-- Node5 -->
<g id="node5" class="node">
<title>Node5</title>
<g id="a_node5"><a xlink:title=" ">
<polygon fill="white" stroke="#bfbfbf" points="249,-62 249,-81 352,-81 352,-62 249,-62"/>
<text text-anchor="middle" x="300.5" y="-69" font-family="Helvetica,sans-Serif" font-size="10.00">G4ThreeVector.hh</text>
</a>
</g>
</g>
<!-- Node2&#45;&gt;Node5 -->
<g id="edge4" class="edge">
<title>Node2&#45;&gt;Node5</title>
<path fill="none" stroke="midnightblue" d="M407.86,-179.35C397.14,-170.51 380.27,-156.24 366.5,-143 347.91,-125.12 327.83,-103.28 314.77,-88.69"/>
<polygon fill="midnightblue" stroke="midnightblue" points="317.21,-86.17 307.95,-81.02 311.98,-90.82 317.21,-86.17"/>
</g>
<!-- Node2&#45;&gt;Node6 -->
<g id="edge5" class="edge">
<title>Node2&#45;&gt;Node6</title>
<path fill="none" stroke="midnightblue" d="M392.2,-179.44C364.15,-170.32 319.56,-155.81 288.32,-145.65"/>
<polygon fill="midnightblue" stroke="midnightblue" points="289.27,-142.28 278.68,-142.52 287.11,-148.94 289.27,-142.28"/>
</g>
<!-- Node12 -->
<g id="node12" class="node">
<title>Node12</title>
<g id="a_node12"><a xlink:title=" ">
<polygon fill="white" stroke="#bfbfbf" points="409,-62 409,-81 464,-81 464,-62 409,-62"/>
<text text-anchor="middle" x="436.5" y="-69" font-family="Helvetica,sans-Serif" font-size="10.00">fstream</text>
</a>
</g>
</g>
<!-- Node2&#45;&gt;Node12 -->
<g id="edge15" class="edge">
<title>Node2&#45;&gt;Node12</title>
<path fill="none" stroke="midnightblue" d="M419.85,-179.32C422.75,-160.76 429.59,-116.84 433.54,-91.47"/>
<polygon fill="midnightblue" stroke="midnightblue" points="437.05,-91.7 435.13,-81.28 430.13,-90.62 437.05,-91.7"/>
</g>
<!-- Node13 -->
<g id="node13" class="node">
<title>Node13</title>
<g id="a_node13"><a xlink:title=" ">
<polygon fill="white" stroke="#bfbfbf" points="539,-123.5 539,-142.5 586,-142.5 586,-123.5 539,-123.5"/>
<text text-anchor="middle" x="562.5" y="-130.5" font-family="Helvetica,sans-Serif" font-size="10.00">vector</text>
</a>
</g>
</g>
<!-- Node2&#45;&gt;Node13 -->
<g id="edge14" class="edge">
<title>Node2&#45;&gt;Node13</title>
<path fill="none" stroke="midnightblue" d="M441.32,-179.44C465.33,-170.44 503.33,-156.19 530.37,-146.05"/>
<polygon fill="midnightblue" stroke="midnightblue" points="531.66,-149.3 539.79,-142.52 529.2,-142.75 531.66,-149.3"/>
</g>
<!-- Node14 -->
<g id="node14" class="node">
<title>Node14</title>
<g id="a_node14"><a xlink:title=" ">
<polygon fill="white" stroke="#bfbfbf" points="604,-123.5 604,-142.5 645,-142.5 645,-123.5 604,-123.5"/>
<text text-anchor="middle" x="624.5" y="-130.5" font-family="Helvetica,sans-Serif" font-size="10.00">tuple</text>
</a>
</g>
</g>
<!-- Node2&#45;&gt;Node14 -->
<g id="edge16" class="edge">
<title>Node2&#45;&gt;Node14</title>
<path fill="none" stroke="midnightblue" d="M453.68,-179.46C487.27,-171.2 539.53,-158.09 594.04,-143.04"/>
<polygon fill="midnightblue" stroke="midnightblue" points="595.18,-146.36 603.88,-140.31 593.3,-139.61 595.18,-146.36"/>
</g>
<!-- Node6&#45;&gt;Node5 -->
<g id="edge12" class="edge">
<title>Node6&#45;&gt;Node5</title>
<path fill="none" stroke="midnightblue" d="M259.38,-123.48C266.65,-114.46 278.3,-100.02 287.34,-88.81"/>
<polygon fill="midnightblue" stroke="midnightblue" points="290.08,-90.99 293.64,-81.01 284.63,-86.59 290.08,-90.99"/>
</g>
<!-- Node7 -->
<g id="node7" class="node">
<title>Node7</title>
<g id="a_node7"><a xlink:href="_o_m_sim_p_m_t_response_8hh.html" target="_top" xlink:title="Provides simulation for PMT response. This class is responsible for transforming hits on photocathode...">
<polygon fill="white" stroke="black" points="96,-62 96,-81 231,-81 231,-62 96,-62"/>
<text text-anchor="middle" x="163.5" y="-69" font-family="Helvetica,sans-Serif" font-size="10.00">OMSimPMTResponse.hh</text>
</a>
</g>
</g>
<!-- Node6&#45;&gt;Node7 -->
<g id="edge6" class="edge">
<title>Node6&#45;&gt;Node7</title>
<path fill="none" stroke="midnightblue" d="M239.75,-123.48C225.47,-113.93 202.1,-98.31 184.99,-86.87"/>
<polygon fill="midnightblue" stroke="midnightblue" points="186.49,-83.66 176.23,-81.01 182.6,-89.48 186.49,-83.66"/>
</g>
<!-- Node6&#45;&gt;Node12 -->
<g id="edge13" class="edge">
<title>Node6&#45;&gt;Node12</title>
<path fill="none" stroke="midnightblue" d="M278.86,-123.48C310.84,-113.14 364.88,-95.66 400.62,-84.1"/>
<polygon fill="midnightblue" stroke="midnightblue" points="401.75,-87.42 410.19,-81.01 399.59,-80.76 401.75,-87.42"/>
</g>
<!-- Node7&#45;&gt;Node3 -->
<g id="edge8" class="edge">
<title>Node7&#45;&gt;Node3</title>
<path fill="none" stroke="midnightblue" d="M194.59,-61.98C232.78,-51.5 297.67,-33.71 339.8,-22.16"/>
<polygon fill="midnightblue" stroke="midnightblue" points="340.75,-25.53 349.47,-19.51 338.9,-18.78 340.75,-25.53"/>
</g>
<!-- Node7&#45;&gt;Node8 -->
<g id="edge7" class="edge">
<title>Node7&#45;&gt;Node8</title>
<path fill="none" stroke="midnightblue" d="M148.6,-61.98C131.53,-52.21 103.34,-36.08 83.24,-24.58"/>
<polygon fill="midnightblue" stroke="midnightblue" points="84.79,-21.44 74.37,-19.51 81.31,-27.51 84.79,-21.44"/>
</g>
<!-- Node9 -->
<g id="node9" class="node">
<title>Node9</title>
<g id="a_node9"><a xlink:title=" ">
<polygon fill="white" stroke="#bfbfbf" points="208.5,-0.5 208.5,-19.5 246.5,-19.5 246.5,-0.5 208.5,-0.5"/>
<text text-anchor="middle" x="227.5" y="-7.5" font-family="Helvetica,sans-Serif" font-size="10.00">map</text>
</a>
</g>
</g>
<!-- Node7&#45;&gt;Node9 -->
<g id="edge9" class="edge">
<title>Node7&#45;&gt;Node9</title>
<path fill="none" stroke="midnightblue" d="M172.67,-61.98C182.65,-52.7 198.81,-37.67 211.01,-26.33"/>
<polygon fill="midnightblue" stroke="midnightblue" points="213.41,-28.88 218.35,-19.51 208.64,-23.75 213.41,-28.88"/>
</g>
<!-- Node10 -->
<g id="node10" class="node">
<title>Node10</title>
<g id="a_node10"><a xlink:title=" ">
<polygon fill="white" stroke="#bfbfbf" points="265,-0.5 265,-19.5 326,-19.5 326,-0.5 265,-0.5"/>
<text text-anchor="middle" x="295.5" y="-7.5" font-family="Helvetica,sans-Serif" font-size="10.00">TGraph.h</text>
</a>
</g>
</g>
<!-- Node7&#45;&gt;Node10 -->
<g id="edge10" class="edge">
<title>Node7&#45;&gt;Node10</title>
<path fill="none" stroke="midnightblue" d="M182.41,-61.98C204.66,-51.95 241.81,-35.2 267.43,-23.65"/>
<polygon fill="midnightblue" stroke="midnightblue" points="268.94,-26.81 276.62,-19.51 266.07,-20.43 268.94,-26.81"/>
</g>
<!-- Node11 -->
<g id="node11" class="node">
<title>Node11</title>
<g id="a_node11"><a xlink:title=" ">
<polygon fill="white" stroke="#bfbfbf" points="137,-0.5 137,-19.5 190,-19.5 190,-0.5 137,-0.5"/>
<text text-anchor="middle" x="163.5" y="-7.5" font-family="Helvetica,sans-Serif" font-size="10.00">TH2D.h</text>
</a>
</g>
</g>
<!-- Node7&#45;&gt;Node11 -->
<g id="edge11" class="edge">
<title>Node7&#45;&gt;Node11</title>
<path fill="none" stroke="midnightblue" d="M163.5,-61.98C163.5,-53.58 163.5,-40.48 163.5,-29.66"/>
<polygon fill="midnightblue" stroke="midnightblue" points="167,-29.51 163.5,-19.51 160,-29.51 167,-29.51"/>
</g>
<!-- Node16&#45;&gt;Node12 -->
<g id="edge25" class="edge">
<title>Node16&#45;&gt;Node12</title>
<path fill="none" stroke="midnightblue" d="M707.16,-179.3C698.01,-165.17 677.94,-137.36 653.5,-123 623.41,-105.32 527.9,-87.47 474.16,-78.48"/>
<polygon fill="midnightblue" stroke="midnightblue" points="474.44,-74.98 464.01,-76.8 473.3,-81.88 474.44,-74.98"/>
</g>
<!-- Node17 -->
<g id="node17" class="node">
<title>Node17</title>
<g id="a_node17"><a xlink:href="_o_m_sim_logger_8hh.html" target="_top" xlink:title=" ">
<polygon fill="white" stroke="black" points="702,-123.5 702,-142.5 801,-142.5 801,-123.5 702,-123.5"/>
<text text-anchor="middle" x="751.5" y="-130.5" font-family="Helvetica,sans-Serif" font-size="10.00">OMSimLogger.hh</text>
</a>
</g>
</g>
<!-- Node16&#45;&gt;Node17 -->
<g id="edge20" class="edge">
<title>Node16&#45;&gt;Node17</title>
<path fill="none" stroke="midnightblue" d="M718.94,-179.08C724.45,-171.46 732.53,-160.26 739.26,-150.94"/>
<polygon fill="midnightblue" stroke="midnightblue" points="742.16,-152.91 745.18,-142.75 736.49,-148.81 742.16,-152.91"/>
</g>
<!-- Node22 -->
<g id="node22" class="node">
<title>Node22</title>
<g id="a_node22"><a xlink:title=" ">
<polygon fill="white" stroke="#bfbfbf" points="819.5,-123.5 819.5,-142.5 903.5,-142.5 903.5,-123.5 819.5,-123.5"/>
<text text-anchor="middle" x="861.5" y="-130.5" font-family="Helvetica,sans-Serif" font-size="10.00">boost/any.hpp</text>
</a>
</g>
</g>
<!-- Node16&#45;&gt;Node22 -->
<g id="edge26" class="edge">
<title>Node16&#45;&gt;Node22</title>
<path fill="none" stroke="midnightblue" d="M736.11,-179.44C760.96,-170.44 800.27,-156.19 828.25,-146.05"/>
<polygon fill="midnightblue" stroke="midnightblue" points="829.79,-149.21 838,-142.52 827.41,-142.63 829.79,-149.21"/>
</g>
<!-- Node23 -->
<g id="node23" class="node">
<title>Node23</title>
<g id="a_node23"><a xlink:title=" ">
<polygon fill="white" stroke="#bfbfbf" points="921.5,-123.5 921.5,-142.5 989.5,-142.5 989.5,-123.5 921.5,-123.5"/>
<text text-anchor="middle" x="955.5" y="-130.5" font-family="Helvetica,sans-Serif" font-size="10.00">sys/time.h</text>
</a>
</g>
</g>
<!-- Node16&#45;&gt;Node23 -->
<g id="edge27" class="edge">
<title>Node16&#45;&gt;Node23</title>
<path fill="none" stroke="midnightblue" d="M751,-179.44C794.67,-169.74 865.75,-153.95 911.55,-143.77"/>
<polygon fill="midnightblue" stroke="midnightblue" points="912.49,-147.14 921.49,-141.56 910.97,-140.31 912.49,-147.14"/>
</g>
<!-- Node18 -->
<g id="node18" class="node">
<title>Node18</title>
<g id="a_node18"><a xlink:title=" ">
<polygon fill="white" stroke="#bfbfbf" points="652,-62 652,-81 745,-81 745,-62 652,-62"/>
<text text-anchor="middle" x="698.5" y="-69" font-family="Helvetica,sans-Serif" font-size="10.00">spdlog/spdlog.h</text>
</a>
</g>
</g>
<!-- Node17&#45;&gt;Node18 -->
<g id="edge21" class="edge">
<title>Node17&#45;&gt;Node18</title>
<path fill="none" stroke="midnightblue" d="M743.91,-123.48C735.8,-114.37 722.77,-99.74 712.74,-88.48"/>
<polygon fill="midnightblue" stroke="midnightblue" points="715.34,-86.15 706.08,-81.01 710.12,-90.8 715.34,-86.15"/>
</g>
<!-- Node19 -->
<g id="node19" class="node">
<title>Node19</title>
<g id="a_node19"><a xlink:title=" ">
<polygon fill="white" stroke="#bfbfbf" points="763,-56.5 763,-86.5 874,-86.5 874,-56.5 763,-56.5"/>
<text text-anchor="start" x="771" y="-74.5" font-family="Helvetica,sans-Serif" font-size="10.00">spdlog/sinks/stdout</text>
<text text-anchor="middle" x="818.5" y="-63.5" font-family="Helvetica,sans-Serif" font-size="10.00">_color_sinks.h</text>
</a>
</g>
</g>
<!-- Node17&#45;&gt;Node19 -->
<g id="edge22" class="edge">
<title>Node17&#45;&gt;Node19</title>
<path fill="none" stroke="midnightblue" d="M761.1,-123.48C769.92,-115.64 783.35,-103.71 795,-93.37"/>
<polygon fill="midnightblue" stroke="midnightblue" points="797.56,-95.78 802.71,-86.52 792.91,-90.55 797.56,-95.78"/>
</g>
<!-- Node20 -->
<g id="node20" class="node">
<title>Node20</title>
<g id="a_node20"><a xlink:title=" ">
<polygon fill="white" stroke="#bfbfbf" points="892.5,-62 892.5,-81 950.5,-81 950.5,-62 892.5,-62"/>
<text text-anchor="middle" x="921.5" y="-69" font-family="Helvetica,sans-Serif" font-size="10.00">memory</text>
</a>
</g>
</g>
<!-- Node17&#45;&gt;Node20 -->
<g id="edge23" class="edge">
<title>Node17&#45;&gt;Node20</title>
<path fill="none" stroke="midnightblue" d="M777.4,-123.48C804.08,-114.62 846.84,-100.24 883.5,-87 885.6,-86.24 887.77,-85.45 889.95,-84.64"/>
<polygon fill="midnightblue" stroke="midnightblue" points="891.32,-87.86 899.45,-81.07 888.85,-81.31 891.32,-87.86"/>
</g>
<!-- Node21 -->
<g id="node21" class="node">
<title>Node21</title>
<g id="a_node21"><a xlink:title=" ">
<polygon fill="white" stroke="#bfbfbf" points="535.5,-62 535.5,-81 633.5,-81 633.5,-62 535.5,-62"/>
<text text-anchor="middle" x="584.5" y="-69" font-family="Helvetica,sans-Serif" font-size="10.00">spdlog/fmt/fmt.h</text>
</a>
</g>
</g>
<!-- Node17&#45;&gt;Node21 -->
<g id="edge24" class="edge">
<title>Node17&#45;&gt;Node21</title>
<path fill="none" stroke="midnightblue" d="M727.57,-123.48C698.8,-113.22 650.34,-95.96 617.9,-84.4"/>
<polygon fill="midnightblue" stroke="midnightblue" points="618.98,-81.07 608.38,-81.01 616.63,-87.66 618.98,-81.07"/>
</g>
</g>
</svg>
