<?xml version="1.0" encoding="UTF-8" standalone="no"?>
<!DOCTYPE svg PUBLIC "-//W3C//DTD SVG 1.1//EN"
 "http://www.w3.org/Graphics/SVG/1.1/DTD/svg11.dtd">
<!-- Generated by graphviz version 2.43.0 (0)
 -->
<!-- Title: OMSimMDOM.hh Pages: 1 -->
<svg width="1312pt" height="386pt"
 viewBox="0.00 0.00 1311.50 386.00" xmlns="http://www.w3.org/2000/svg" xmlns:xlink="http://www.w3.org/1999/xlink">
<g id="graph0" class="graph" transform="scale(1 1) rotate(0) translate(4 382)">
<title>OMSimMDOM.hh</title>
<!-- Node1 -->
<g id="node1" class="node">
<title>Node1</title>
<g id="a_node1"><a xlink:title="Construction of mDOM.">
<polygon fill="#bfbfbf" stroke="black" points="712.5,-358.5 712.5,-377.5 812.5,-377.5 812.5,-358.5 712.5,-358.5"/>
<text text-anchor="middle" x="762.5" y="-365.5" font-family="Helvetica,sans-Serif" font-size="10.00">OMSimMDOM.hh</text>
</a>
</g>
</g>
<!-- Node2 -->
<g id="node2" class="node">
<title>Node2</title>
<g id="a_node2"><a xlink:href="_o_m_sim_m_d_o_m_flasher_8hh.html" target="_top" xlink:title="Defines the mDOMFlasher class for simulating the 10 flashers in an mDOM optical module.">
<polygon fill="none" stroke="black" points="836,-246.5 836,-265.5 971,-265.5 971,-246.5 836,-246.5"/>
<text text-anchor="middle" x="903.5" y="-253.5" font-family="Helvetica,sans-Serif" font-size="10.00">OMSimMDOMFlasher.hh</text>
</a>
</g>
</g>
<!-- Node1&#45;&gt;Node2 -->
<g id="edge1" class="edge">
<title>Node1&#45;&gt;Node2</title>
<path fill="none" stroke="midnightblue" d="M780.42,-358.47C796.83,-350.25 821.39,-336.9 840.5,-322 859.18,-307.44 877.7,-287.49 889.78,-273.55"/>
<polygon fill="midnightblue" stroke="midnightblue" points="892.6,-275.63 896.41,-265.75 887.26,-271.1 892.6,-275.63"/>
</g>
<!-- Node24 -->
<g id="node24" class="node">
<title>Node24</title>
<g id="a_node24"><a xlink:href="_o_m_sim_p_m_t_construction_8hh.html" target="_top" xlink:title="Construction of the PMTs.">
<polygon fill="none" stroke="black" points="591,-246.5 591,-265.5 740,-265.5 740,-246.5 591,-246.5"/>
<text text-anchor="middle" x="665.5" y="-253.5" font-family="Helvetica,sans-Serif" font-size="10.00">OMSimPMTConstruction.hh</text>
</a>
</g>
</g>
<!-- Node1&#45;&gt;Node24 -->
<g id="edge23" class="edge">
<title>Node1&#45;&gt;Node24</title>
<path fill="none" stroke="midnightblue" d="M738.42,-358.43C721.35,-351.19 699.16,-339.23 685.5,-322 674.97,-308.71 669.96,-289.88 667.59,-275.9"/>
<polygon fill="midnightblue" stroke="midnightblue" points="671.05,-275.35 666.2,-265.93 664.11,-276.32 671.05,-275.35"/>
</g>
<!-- Node31 -->
<g id="node31" class="node">
<title>Node31</title>
<g id="a_node31"><a xlink:href="_o_m_sim_optical_module_8hh_source.html" target="_top" xlink:title=" ">
<polygon fill="none" stroke="black" points="694,-302.5 694,-321.5 831,-321.5 831,-302.5 694,-302.5"/>
<text text-anchor="middle" x="762.5" y="-309.5" font-family="Helvetica,sans-Serif" font-size="10.00">OMSimOpticalModule.hh</text>
</a>
</g>
</g>
<!-- Node1&#45;&gt;Node31 -->
<g id="edge34" class="edge">
<title>Node1&#45;&gt;Node31</title>
<path fill="none" stroke="midnightblue" d="M762.5,-358.08C762.5,-351.01 762.5,-340.86 762.5,-331.99"/>
<polygon fill="midnightblue" stroke="midnightblue" points="766,-331.75 762.5,-321.75 759,-331.75 766,-331.75"/>
</g>
<!-- Node3 -->
<g id="node3" class="node">
<title>Node3</title>
<g id="a_node3"><a xlink:href="abc_detector_component_8hh.html" target="_top" xlink:title="Provides helper base class abcDetectorComponent for constructing and managing detector components in ...">
<polygon fill="none" stroke="black" points="712,-190.5 712,-209.5 859,-209.5 859,-190.5 712,-190.5"/>
<text text-anchor="middle" x="785.5" y="-197.5" font-family="Helvetica,sans-Serif" font-size="10.00">abcDetectorComponent.hh</text>
</a>
</g>
</g>
<!-- Node2&#45;&gt;Node3 -->
<g id="edge2" class="edge">
<title>Node2&#45;&gt;Node3</title>
<path fill="none" stroke="midnightblue" d="M884.8,-246.44C865.56,-237.64 835.35,-223.81 813.3,-213.72"/>
<polygon fill="midnightblue" stroke="midnightblue" points="814.66,-210.5 804.11,-209.52 811.75,-216.86 814.66,-210.5"/>
</g>
<!-- Node22 -->
<g id="node22" class="node">
<title>Node22</title>
<g id="a_node22"><a xlink:title=" ">
<polygon fill="none" stroke="#bfbfbf" points="877.5,-190.5 877.5,-209.5 975.5,-209.5 975.5,-190.5 877.5,-190.5"/>
<text text-anchor="middle" x="926.5" y="-197.5" font-family="Helvetica,sans-Serif" font-size="10.00">G4UnionSolid.hh</text>
</a>
</g>
</g>
<!-- Node2&#45;&gt;Node22 -->
<g id="edge21" class="edge">
<title>Node2&#45;&gt;Node22</title>
<path fill="none" stroke="midnightblue" d="M907.3,-246.08C910.41,-238.77 914.92,-228.18 918.79,-219.1"/>
<polygon fill="midnightblue" stroke="midnightblue" points="922.07,-220.32 922.77,-209.75 915.63,-217.58 922.07,-220.32"/>
</g>
<!-- Node23 -->
<g id="node23" class="node">
<title>Node23</title>
<g id="a_node23"><a xlink:title=" ">
<polygon fill="none" stroke="#bfbfbf" points="993.5,-190.5 993.5,-209.5 1085.5,-209.5 1085.5,-190.5 993.5,-190.5"/>
<text text-anchor="middle" x="1039.5" y="-197.5" font-family="Helvetica,sans-Serif" font-size="10.00">G4Navigator.hh</text>
</a>
</g>
</g>
<!-- Node2&#45;&gt;Node23 -->
<g id="edge22" class="edge">
<title>Node2&#45;&gt;Node23</title>
<path fill="none" stroke="midnightblue" d="M925.05,-246.44C947.53,-237.52 982.99,-223.44 1008.48,-213.32"/>
<polygon fill="midnightblue" stroke="midnightblue" points="1010.05,-216.46 1018.05,-209.52 1007.47,-209.95 1010.05,-216.46"/>
</g>
<!-- Node4 -->
<g id="node4" class="node">
<title>Node4</title>
<g id="a_node4"><a xlink:href="_o_m_sim_input_data_8hh.html" target="_top" xlink:title="Definition of ParameterTable and InputDataManager.">
<polygon fill="none" stroke="black" points="599,-134.5 599,-153.5 714,-153.5 714,-134.5 599,-134.5"/>
<text text-anchor="middle" x="656.5" y="-141.5" font-family="Helvetica,sans-Serif" font-size="10.00">OMSimInputData.hh</text>
</a>
</g>
</g>
<!-- Node3&#45;&gt;Node4 -->
<g id="edge3" class="edge">
<title>Node3&#45;&gt;Node4</title>
<path fill="none" stroke="midnightblue" d="M765.06,-190.44C743.83,-181.56 710.4,-167.56 686.25,-157.45"/>
<polygon fill="midnightblue" stroke="midnightblue" points="687.42,-154.15 676.84,-153.52 684.72,-160.61 687.42,-154.15"/>
</g>
<!-- Node18 -->
<g id="node18" class="node">
<title>Node18</title>
<g id="a_node18"><a xlink:title=" ">
<polygon fill="none" stroke="#bfbfbf" points="732,-134.5 732,-153.5 839,-153.5 839,-134.5 732,-134.5"/>
<text text-anchor="middle" x="785.5" y="-141.5" font-family="Helvetica,sans-Serif" font-size="10.00">G4Transform3D.hh</text>
</a>
</g>
</g>
<!-- Node3&#45;&gt;Node18 -->
<g id="edge17" class="edge">
<title>Node3&#45;&gt;Node18</title>
<path fill="none" stroke="midnightblue" d="M785.5,-190.08C785.5,-183.01 785.5,-172.86 785.5,-163.99"/>
<polygon fill="midnightblue" stroke="midnightblue" points="789,-163.75 785.5,-153.75 782,-163.75 789,-163.75"/>
</g>
<!-- Node19 -->
<g id="node19" class="node">
<title>Node19</title>
<g id="a_node19"><a xlink:title=" ">
<polygon fill="none" stroke="#bfbfbf" points="857.5,-134.5 857.5,-153.5 965.5,-153.5 965.5,-134.5 857.5,-134.5"/>
<text text-anchor="middle" x="911.5" y="-141.5" font-family="Helvetica,sans-Serif" font-size="10.00">G4VisAttributes.hh</text>
</a>
</g>
</g>
<!-- Node3&#45;&gt;Node19 -->
<g id="edge18" class="edge">
<title>Node3&#45;&gt;Node19</title>
<path fill="none" stroke="midnightblue" d="M805.47,-190.44C826.11,-181.6 858.56,-167.69 882.13,-157.59"/>
<polygon fill="midnightblue" stroke="midnightblue" points="883.82,-160.67 891.63,-153.52 881.06,-154.24 883.82,-160.67"/>
</g>
<!-- Node20 -->
<g id="node20" class="node">
<title>Node20</title>
<g id="a_node20"><a xlink:title=" ">
<polygon fill="none" stroke="#bfbfbf" points="984,-134.5 984,-153.5 1109,-153.5 1109,-134.5 984,-134.5"/>
<text text-anchor="middle" x="1046.5" y="-141.5" font-family="Helvetica,sans-Serif" font-size="10.00">G4SubtractionSolid.hh</text>
</a>
</g>
</g>
<!-- Node3&#45;&gt;Node20 -->
<g id="edge19" class="edge">
<title>Node3&#45;&gt;Node20</title>
<path fill="none" stroke="midnightblue" d="M826.86,-190.44C872.58,-180.98 946.26,-165.74 995.52,-155.55"/>
<polygon fill="midnightblue" stroke="midnightblue" points="996.25,-158.97 1005.34,-153.52 994.84,-152.12 996.25,-158.97"/>
</g>
<!-- Node21 -->
<g id="node21" class="node">
<title>Node21</title>
<g id="a_node21"><a xlink:title=" ">
<polygon fill="none" stroke="#bfbfbf" points="1127.5,-134.5 1127.5,-153.5 1237.5,-153.5 1237.5,-134.5 1127.5,-134.5"/>
<text text-anchor="middle" x="1182.5" y="-141.5" font-family="Helvetica,sans-Serif" font-size="10.00">G4PVPlacement.hh</text>
</a>
</g>
</g>
<!-- Node3&#45;&gt;Node21 -->
<g id="edge20" class="edge">
<title>Node3&#45;&gt;Node21</title>
<path fill="none" stroke="midnightblue" d="M849.35,-190.48C914.24,-181.79 1017.93,-167.84 1117.42,-154.14"/>
<polygon fill="midnightblue" stroke="midnightblue" points="1117.92,-157.61 1127.34,-152.78 1116.96,-150.67 1117.92,-157.61"/>
</g>
<!-- Node5 -->
<g id="node5" class="node">
<title>Node5</title>
<g id="a_node5"><a xlink:href="_o_m_sim_logger_8hh_source.html" target="_top" xlink:title=" ">
<polygon fill="none" stroke="black" points="421,-73 421,-92 520,-92 520,-73 421,-73"/>
<text text-anchor="middle" x="470.5" y="-80" font-family="Helvetica,sans-Serif" font-size="10.00">OMSimLogger.hh</text>
</a>
</g>
</g>
<!-- Node4&#45;&gt;Node5 -->
<g id="edge4" class="edge">
<title>Node4&#45;&gt;Node5</title>
<path fill="none" stroke="midnightblue" d="M629.85,-134.48C597.53,-124.14 542.9,-106.66 506.77,-95.1"/>
<polygon fill="midnightblue" stroke="midnightblue" points="507.69,-91.72 497.1,-92.01 505.56,-98.39 507.69,-91.72"/>
</g>
<!-- Node10 -->
<g id="node10" class="node">
<title>Node10</title>
<g id="a_node10"><a xlink:href="_o_m_sim_op_boundary_process_8hh_source.html" target="_top" xlink:title=" ">
<polygon fill="none" stroke="black" points="749.5,-73 749.5,-92 913.5,-92 913.5,-73 749.5,-73"/>
<text text-anchor="middle" x="831.5" y="-80" font-family="Helvetica,sans-Serif" font-size="10.00">OMSimOpBoundaryProcess.hh</text>
</a>
</g>
</g>
<!-- Node4&#45;&gt;Node10 -->
<g id="edge9" class="edge">
<title>Node4&#45;&gt;Node10</title>
<path fill="none" stroke="midnightblue" d="M681.57,-134.48C711.85,-124.18 762.94,-106.81 796.94,-95.25"/>
<polygon fill="midnightblue" stroke="midnightblue" points="798.13,-98.54 806.47,-92.01 795.88,-91.91 798.13,-98.54"/>
</g>
<!-- Node16 -->
<g id="node16" class="node">
<title>Node16</title>
<g id="a_node16"><a xlink:title=" ">
<polygon fill="none" stroke="#bfbfbf" points="284,-73 284,-92 403,-92 403,-73 284,-73"/>
<text text-anchor="middle" x="343.5" y="-80" font-family="Helvetica,sans-Serif" font-size="10.00">G4SystemOfUnits.hh</text>
</a>
</g>
</g>
<!-- Node4&#45;&gt;Node16 -->
<g id="edge15" class="edge">
<title>Node4&#45;&gt;Node16</title>
<path fill="none" stroke="midnightblue" d="M607.61,-134.44C558.11,-125.68 479.37,-111.47 411.5,-98 405.36,-96.78 398.92,-95.46 392.55,-94.13"/>
<polygon fill="midnightblue" stroke="midnightblue" points="393.16,-90.68 382.66,-92.05 391.72,-97.53 393.16,-90.68"/>
</g>
<!-- Node17 -->
<g id="node17" class="node">
<title>Node17</title>
<g id="a_node17"><a xlink:title=" ">
<polygon fill="none" stroke="#bfbfbf" points="932,-67.5 932,-97.5 1045,-97.5 1045,-67.5 932,-67.5"/>
<text text-anchor="start" x="940" y="-85.5" font-family="Helvetica,sans-Serif" font-size="10.00">boost/property_tree</text>
<text text-anchor="middle" x="988.5" y="-74.5" font-family="Helvetica,sans-Serif" font-size="10.00">/json_parser.hpp</text>
</a>
</g>
</g>
<!-- Node4&#45;&gt;Node17 -->
<g id="edge16" class="edge">
<title>Node4&#45;&gt;Node17</title>
<path fill="none" stroke="midnightblue" d="M711.66,-134.47C763.35,-126.3 842.99,-113.24 921.58,-98.12"/>
<polygon fill="midnightblue" stroke="midnightblue" points="922.5,-101.51 931.65,-96.17 921.17,-94.64 922.5,-101.51"/>
</g>
<!-- Node6 -->
<g id="node6" class="node">
<title>Node6</title>
<g id="a_node6"><a xlink:title=" ">
<polygon fill="none" stroke="#bfbfbf" points="364,-6 364,-25 457,-25 457,-6 364,-6"/>
<text text-anchor="middle" x="410.5" y="-13" font-family="Helvetica,sans-Serif" font-size="10.00">spdlog/spdlog.h</text>
</a>
</g>
</g>
<!-- Node5&#45;&gt;Node6 -->
<g id="edge5" class="edge">
<title>Node5&#45;&gt;Node6</title>
<path fill="none" stroke="midnightblue" d="M462.41,-72.73C452.96,-62.5 437.14,-45.36 425.45,-32.69"/>
<polygon fill="midnightblue" stroke="midnightblue" points="427.82,-30.1 418.46,-25.13 422.67,-34.85 427.82,-30.1"/>
</g>
<!-- Node7 -->
<g id="node7" class="node">
<title>Node7</title>
<g id="a_node7"><a xlink:title=" ">
<polygon fill="none" stroke="#bfbfbf" points="475,-0.5 475,-30.5 586,-30.5 586,-0.5 475,-0.5"/>
<text text-anchor="start" x="483" y="-18.5" font-family="Helvetica,sans-Serif" font-size="10.00">spdlog/sinks/stdout</text>
<text text-anchor="middle" x="530.5" y="-7.5" font-family="Helvetica,sans-Serif" font-size="10.00">_color_sinks.h</text>
</a>
</g>
</g>
<!-- Node5&#45;&gt;Node7 -->
<g id="edge6" class="edge">
<title>Node5&#45;&gt;Node7</title>
<path fill="none" stroke="midnightblue" d="M478.59,-72.73C486.78,-63.86 499.75,-49.81 510.68,-37.97"/>
<polygon fill="midnightblue" stroke="midnightblue" points="513.28,-40.31 517.49,-30.59 508.14,-35.56 513.28,-40.31"/>
</g>
<!-- Node8 -->
<g id="node8" class="node">
<title>Node8</title>
<g id="a_node8"><a xlink:title=" ">
<polygon fill="none" stroke="#bfbfbf" points="171.5,-6 171.5,-25 229.5,-25 229.5,-6 171.5,-6"/>
<text text-anchor="middle" x="200.5" y="-13" font-family="Helvetica,sans-Serif" font-size="10.00">memory</text>
</a>
</g>
</g>
<!-- Node5&#45;&gt;Node8 -->
<g id="edge7" class="edge">
<title>Node5&#45;&gt;Node8</title>
<path fill="none" stroke="midnightblue" d="M436.54,-72.93C428.36,-70.93 419.63,-68.84 411.5,-67 334.91,-49.63 313.87,-53.07 238.5,-31 235.92,-30.24 233.27,-29.39 230.62,-28.49"/>
<polygon fill="midnightblue" stroke="midnightblue" points="231.8,-25.19 221.2,-25.08 229.41,-31.78 231.8,-25.19"/>
</g>
<!-- Node9 -->
<g id="node9" class="node">
<title>Node9</title>
<g id="a_node9"><a xlink:title=" ">
<polygon fill="none" stroke="#bfbfbf" points="247.5,-6 247.5,-25 345.5,-25 345.5,-6 247.5,-6"/>
<text text-anchor="middle" x="296.5" y="-13" font-family="Helvetica,sans-Serif" font-size="10.00">spdlog/fmt/fmt.h</text>
</a>
</g>
</g>
<!-- Node5&#45;&gt;Node9 -->
<g id="edge8" class="edge">
<title>Node5&#45;&gt;Node9</title>
<path fill="none" stroke="midnightblue" d="M447.39,-72.87C417.02,-61.52 363.49,-41.52 329.03,-28.65"/>
<polygon fill="midnightblue" stroke="midnightblue" points="330.02,-25.28 319.42,-25.06 327.57,-31.84 330.02,-25.28"/>
</g>
<!-- Node11 -->
<g id="node11" class="node">
<title>Node11</title>
<g id="a_node11"><a xlink:title=" ">
<polygon fill="none" stroke="#bfbfbf" points="928,-6 928,-25 1041,-25 1041,-6 928,-6"/>
<text text-anchor="middle" x="984.5" y="-13" font-family="Helvetica,sans-Serif" font-size="10.00">G4OpticalPhoton.hh</text>
</a>
</g>
</g>
<!-- Node10&#45;&gt;Node11 -->
<g id="edge10" class="edge">
<title>Node10&#45;&gt;Node11</title>
<path fill="none" stroke="midnightblue" d="M851.82,-72.87C878.22,-61.65 924.53,-41.98 954.86,-29.09"/>
<polygon fill="midnightblue" stroke="midnightblue" points="956.26,-32.3 964.1,-25.17 953.53,-25.86 956.26,-32.3"/>
</g>
<!-- Node12 -->
<g id="node12" class="node">
<title>Node12</title>
<g id="a_node12"><a xlink:title=" ">
<polygon fill="none" stroke="#bfbfbf" points="1059.5,-6 1059.5,-25 1175.5,-25 1175.5,-6 1059.5,-6"/>
<text text-anchor="middle" x="1117.5" y="-13" font-family="Helvetica,sans-Serif" font-size="10.00">G4OpticalSurface.hh</text>
</a>
</g>
</g>
<!-- Node10&#45;&gt;Node12 -->
<g id="edge11" class="edge">
<title>Node10&#45;&gt;Node12</title>
<path fill="none" stroke="midnightblue" d="M869.18,-72.94C920.73,-61.22 1013.25,-40.19 1069.64,-27.38"/>
<polygon fill="midnightblue" stroke="midnightblue" points="1070.76,-30.71 1079.73,-25.08 1069.21,-23.89 1070.76,-30.71"/>
</g>
<!-- Node13 -->
<g id="node13" class="node">
<title>Node13</title>
<g id="a_node13"><a xlink:title=" ">
<polygon fill="none" stroke="#bfbfbf" points="1193.5,-6 1193.5,-25 1303.5,-25 1303.5,-6 1193.5,-6"/>
<text text-anchor="middle" x="1248.5" y="-13" font-family="Helvetica,sans-Serif" font-size="10.00">G4RandomTools.hh</text>
</a>
</g>
</g>
<!-- Node10&#45;&gt;Node13 -->
<g id="edge12" class="edge">
<title>Node10&#45;&gt;Node13</title>
<path fill="none" stroke="midnightblue" d="M884.5,-72.97C897.26,-70.96 910.86,-68.87 923.5,-67 1039.34,-49.88 1069.29,-51.96 1184.5,-31 1190.68,-29.88 1197.16,-28.56 1203.54,-27.2"/>
<polygon fill="midnightblue" stroke="midnightblue" points="1204.39,-30.59 1213.4,-25.02 1202.88,-23.76 1204.39,-30.59"/>
</g>
<!-- Node14 -->
<g id="node14" class="node">
<title>Node14</title>
<g id="a_node14"><a xlink:title=" ">
<polygon fill="none" stroke="#bfbfbf" points="604.5,-6 604.5,-25 734.5,-25 734.5,-6 604.5,-6"/>
<text text-anchor="middle" x="669.5" y="-13" font-family="Helvetica,sans-Serif" font-size="10.00">G4VDiscreteProcess.hh</text>
</a>
</g>
</g>
<!-- Node10&#45;&gt;Node14 -->
<g id="edge13" class="edge">
<title>Node10&#45;&gt;Node14</title>
<path fill="none" stroke="midnightblue" d="M809.99,-72.87C781.83,-61.57 732.3,-41.7 700.2,-28.82"/>
<polygon fill="midnightblue" stroke="midnightblue" points="701.43,-25.54 690.84,-25.06 698.82,-32.04 701.43,-25.54"/>
</g>
<!-- Node15 -->
<g id="node15" class="node">
<title>Node15</title>
<g id="a_node15"><a xlink:title=" ">
<polygon fill="none" stroke="#bfbfbf" points="753,-6 753,-25 910,-25 910,-6 753,-6"/>
<text text-anchor="middle" x="831.5" y="-13" font-family="Helvetica,sans-Serif" font-size="10.00">G4VUserTrackInformation.hh</text>
</a>
</g>
</g>
<!-- Node10&#45;&gt;Node15 -->
<g id="edge14" class="edge">
<title>Node10&#45;&gt;Node15</title>
<path fill="none" stroke="midnightblue" d="M831.5,-72.73C831.5,-63.18 831.5,-47.62 831.5,-35.28"/>
<polygon fill="midnightblue" stroke="midnightblue" points="835,-35.13 831.5,-25.13 828,-35.13 835,-35.13"/>
</g>
<!-- Node24&#45;&gt;Node3 -->
<g id="edge24" class="edge">
<title>Node24&#45;&gt;Node3</title>
<path fill="none" stroke="midnightblue" d="M684.51,-246.44C704.09,-237.64 734.81,-223.81 757.23,-213.72"/>
<polygon fill="midnightblue" stroke="midnightblue" points="758.89,-216.81 766.57,-209.52 756.02,-210.43 758.89,-216.81"/>
</g>
<!-- Node24&#45;&gt;Node22 -->
<g id="edge32" class="edge">
<title>Node24&#45;&gt;Node22</title>
<path fill="none" stroke="midnightblue" d="M706.86,-246.44C752.58,-236.98 826.26,-221.74 875.52,-211.55"/>
<polygon fill="midnightblue" stroke="midnightblue" points="876.25,-214.97 885.34,-209.52 874.84,-208.12 876.25,-214.97"/>
</g>
<!-- Node24&#45;&gt;Node24 -->
<g id="edge25" class="edge">
<title>Node24&#45;&gt;Node24</title>
<path fill="none" stroke="midnightblue" d="M704.95,-265.53C731.76,-268.31 758,-265.13 758,-256 758,-248.01 737.91,-244.58 714.93,-245.71"/>
<polygon fill="midnightblue" stroke="midnightblue" points="714.65,-242.22 704.95,-246.47 715.19,-249.2 714.65,-242.22"/>
</g>
<!-- Node25 -->
<g id="node25" class="node">
<title>Node25</title>
<g id="a_node25"><a xlink:href="_o_m_sim_p_m_t_response_8hh.html" target="_top" xlink:title="Simulation of PMT response.">
<polygon fill="none" stroke="black" points="415,-190.5 415,-209.5 550,-209.5 550,-190.5 415,-190.5"/>
<text text-anchor="middle" x="482.5" y="-197.5" font-family="Helvetica,sans-Serif" font-size="10.00">OMSimPMTResponse.hh</text>
</a>
</g>
</g>
<!-- Node24&#45;&gt;Node25 -->
<g id="edge26" class="edge">
<title>Node24&#45;&gt;Node25</title>
<path fill="none" stroke="midnightblue" d="M636.5,-246.44C605.32,-237.24 555.57,-222.56 521.09,-212.39"/>
<polygon fill="midnightblue" stroke="midnightblue" points="521.94,-208.99 511.36,-209.52 519.96,-215.7 521.94,-208.99"/>
</g>
<!-- Node30 -->
<g id="node30" class="node">
<title>Node30</title>
<g id="a_node30"><a xlink:title=" ">
<polygon fill="none" stroke="#bfbfbf" points="627,-190.5 627,-209.5 694,-209.5 694,-190.5 627,-190.5"/>
<text text-anchor="middle" x="660.5" y="-197.5" font-family="Helvetica,sans-Serif" font-size="10.00">G4Tubs.hh</text>
</a>
</g>
</g>
<!-- Node24&#45;&gt;Node30 -->
<g id="edge33" class="edge">
<title>Node24&#45;&gt;Node30</title>
<path fill="none" stroke="midnightblue" d="M664.67,-246.08C664.02,-239.01 663.08,-228.86 662.26,-219.99"/>
<polygon fill="midnightblue" stroke="midnightblue" points="665.72,-219.39 661.31,-209.75 658.75,-220.03 665.72,-219.39"/>
</g>
<!-- Node25&#45;&gt;Node16 -->
<g id="edge27" class="edge">
<title>Node25&#45;&gt;Node16</title>
<path fill="none" stroke="midnightblue" d="M429.66,-190.48C406.12,-184.13 379.86,-173.1 362.5,-154 349.6,-139.81 345.31,-117.77 343.96,-102.11"/>
<polygon fill="midnightblue" stroke="midnightblue" points="347.45,-101.84 343.42,-92.05 340.46,-102.22 347.45,-101.84"/>
</g>
<!-- Node26 -->
<g id="node26" class="node">
<title>Node26</title>
<g id="a_node26"><a xlink:title=" ">
<polygon fill="none" stroke="#bfbfbf" points="372,-134.5 372,-153.5 445,-153.5 445,-134.5 372,-134.5"/>
<text text-anchor="middle" x="408.5" y="-141.5" font-family="Helvetica,sans-Serif" font-size="10.00">G4Types.hh</text>
</a>
</g>
</g>
<!-- Node25&#45;&gt;Node26 -->
<g id="edge28" class="edge">
<title>Node25&#45;&gt;Node26</title>
<path fill="none" stroke="midnightblue" d="M470.61,-190.32C459.35,-182.11 442.21,-169.6 428.79,-159.81"/>
<polygon fill="midnightblue" stroke="midnightblue" points="430.75,-156.9 420.61,-153.83 426.62,-162.56 430.75,-156.9"/>
</g>
<!-- Node27 -->
<g id="node27" class="node">
<title>Node27</title>
<g id="a_node27"><a xlink:title=" ">
<polygon fill="none" stroke="#bfbfbf" points="463.5,-134.5 463.5,-153.5 501.5,-153.5 501.5,-134.5 463.5,-134.5"/>
<text text-anchor="middle" x="482.5" y="-141.5" font-family="Helvetica,sans-Serif" font-size="10.00">map</text>
</a>
</g>
</g>
<!-- Node25&#45;&gt;Node27 -->
<g id="edge29" class="edge">
<title>Node25&#45;&gt;Node27</title>
<path fill="none" stroke="midnightblue" d="M482.5,-190.08C482.5,-183.01 482.5,-172.86 482.5,-163.99"/>
<polygon fill="midnightblue" stroke="midnightblue" points="486,-163.75 482.5,-153.75 479,-163.75 486,-163.75"/>
</g>
<!-- Node28 -->
<g id="node28" class="node">
<title>Node28</title>
<g id="a_node28"><a xlink:title=" ">
<polygon fill="none" stroke="#bfbfbf" points="520,-134.5 520,-153.5 581,-153.5 581,-134.5 520,-134.5"/>
<text text-anchor="middle" x="550.5" y="-141.5" font-family="Helvetica,sans-Serif" font-size="10.00">TGraph.h</text>
</a>
</g>
</g>
<!-- Node25&#45;&gt;Node28 -->
<g id="edge30" class="edge">
<title>Node25&#45;&gt;Node28</title>
<path fill="none" stroke="midnightblue" d="M493.43,-190.32C503.67,-182.18 519.22,-169.84 531.5,-160.09"/>
<polygon fill="midnightblue" stroke="midnightblue" points="533.72,-162.79 539.38,-153.83 529.37,-157.31 533.72,-162.79"/>
</g>
<!-- Node29 -->
<g id="node29" class="node">
<title>Node29</title>
<g id="a_node29"><a xlink:title=" ">
<polygon fill="none" stroke="#bfbfbf" points="262,-134.5 262,-153.5 315,-153.5 315,-134.5 262,-134.5"/>
<text text-anchor="middle" x="288.5" y="-141.5" font-family="Helvetica,sans-Serif" font-size="10.00">TH2D.h</text>
</a>
</g>
</g>
<!-- Node25&#45;&gt;Node29 -->
<g id="edge31" class="edge">
<title>Node25&#45;&gt;Node29</title>
<path fill="none" stroke="midnightblue" d="M451.76,-190.44C417.29,-180.85 361.42,-165.3 324.82,-155.11"/>
<polygon fill="midnightblue" stroke="midnightblue" points="325.62,-151.7 315.04,-152.39 323.74,-158.44 325.62,-151.7"/>
</g>
<!-- Node31&#45;&gt;Node3 -->
<g id="edge35" class="edge">
<title>Node31&#45;&gt;Node3</title>
<path fill="none" stroke="midnightblue" d="M764.3,-302.37C768.02,-284.62 776.58,-243.67 781.61,-219.6"/>
<polygon fill="midnightblue" stroke="midnightblue" points="785.08,-220.1 783.7,-209.59 778.23,-218.66 785.08,-220.1"/>
</g>
<!-- Node31&#45;&gt;Node24 -->
<g id="edge42" class="edge">
<title>Node31&#45;&gt;Node24</title>
<path fill="none" stroke="midnightblue" d="M746.92,-302.32C731.5,-293.74 707.69,-280.49 689.79,-270.52"/>
<polygon fill="midnightblue" stroke="midnightblue" points="691.49,-267.46 681.05,-265.65 688.08,-273.58 691.49,-267.46"/>
</g>
<!-- Node32 -->
<g id="node32" class="node">
<title>Node32</title>
<g id="a_node32"><a xlink:href="_o_m_sim_hit_manager_8hh.html" target="_top" xlink:title="Defines structures and classes related to optical module photon hit management.">
<polygon fill="none" stroke="black" points="233,-246.5 233,-265.5 356,-265.5 356,-246.5 233,-246.5"/>
<text text-anchor="middle" x="294.5" y="-253.5" font-family="Helvetica,sans-Serif" font-size="10.00">OMSimHitManager.hh</text>
</a>
</g>
</g>
<!-- Node31&#45;&gt;Node32 -->
<g id="edge36" class="edge">
<title>Node31&#45;&gt;Node32</title>
<path fill="none" stroke="midnightblue" d="M693.95,-303.09C606.31,-292.98 455.27,-275.55 366.16,-265.27"/>
<polygon fill="midnightblue" stroke="midnightblue" points="366.47,-261.78 356.14,-264.11 365.67,-268.74 366.47,-261.78"/>
</g>
<!-- Node32&#45;&gt;Node25 -->
<g id="edge37" class="edge">
<title>Node32&#45;&gt;Node25</title>
<path fill="none" stroke="midnightblue" d="M324.29,-246.44C356.33,-237.24 407.43,-222.56 442.85,-212.39"/>
<polygon fill="midnightblue" stroke="midnightblue" points="444.21,-215.64 452.85,-209.52 442.27,-208.91 444.21,-215.64"/>
</g>
<!-- Node33 -->
<g id="node33" class="node">
<title>Node33</title>
<g id="a_node33"><a xlink:title=" ">
<polygon fill="none" stroke="#bfbfbf" points="0,-190.5 0,-209.5 103,-209.5 103,-190.5 0,-190.5"/>
<text text-anchor="middle" x="51.5" y="-197.5" font-family="Helvetica,sans-Serif" font-size="10.00">G4ThreeVector.hh</text>
</a>
</g>
</g>
<!-- Node32&#45;&gt;Node33 -->
<g id="edge38" class="edge">
<title>Node32&#45;&gt;Node33</title>
<path fill="none" stroke="midnightblue" d="M256,-246.44C213.69,-237.04 145.68,-221.93 99.83,-211.74"/>
<polygon fill="midnightblue" stroke="midnightblue" points="100.35,-208.27 89.82,-209.52 98.83,-215.1 100.35,-208.27"/>
</g>
<!-- Node34 -->
<g id="node34" class="node">
<title>Node34</title>
<g id="a_node34"><a xlink:title=" ">
<polygon fill="none" stroke="#bfbfbf" points="121,-190.5 121,-209.5 176,-209.5 176,-190.5 121,-190.5"/>
<text text-anchor="middle" x="148.5" y="-197.5" font-family="Helvetica,sans-Serif" font-size="10.00">fstream</text>
</a>
</g>
</g>
<!-- Node32&#45;&gt;Node34 -->
<g id="edge39" class="edge">
<title>Node32&#45;&gt;Node34</title>
<path fill="none" stroke="midnightblue" d="M271.37,-246.44C247.02,-237.44 208.49,-223.19 181.08,-213.05"/>
<polygon fill="midnightblue" stroke="midnightblue" points="182.12,-209.7 171.53,-209.52 179.69,-216.27 182.12,-209.7"/>
</g>
<!-- Node35 -->
<g id="node35" class="node">
<title>Node35</title>
<g id="a_node35"><a xlink:title=" ">
<polygon fill="none" stroke="#bfbfbf" points="194.5,-190.5 194.5,-209.5 284.5,-209.5 284.5,-190.5 194.5,-190.5"/>
<text text-anchor="middle" x="239.5" y="-197.5" font-family="Helvetica,sans-Serif" font-size="10.00">G4AutoLock.hh</text>
</a>
</g>
</g>
<!-- Node32&#45;&gt;Node35 -->
<g id="edge40" class="edge">
<title>Node32&#45;&gt;Node35</title>
<path fill="none" stroke="midnightblue" d="M285.42,-246.08C277.33,-238.14 265.3,-226.34 255.59,-216.8"/>
<polygon fill="midnightblue" stroke="midnightblue" points="258,-214.26 248.41,-209.75 253.1,-219.25 258,-214.26"/>
</g>
<!-- Node36 -->
<g id="node36" class="node">
<title>Node36</title>
<g id="a_node36"><a xlink:title=" ">
<polygon fill="none" stroke="#bfbfbf" points="302.5,-190.5 302.5,-209.5 396.5,-209.5 396.5,-190.5 302.5,-190.5"/>
<text text-anchor="middle" x="349.5" y="-197.5" font-family="Helvetica,sans-Serif" font-size="10.00">G4Threading.hh</text>
</a>
</g>
</g>
<!-- Node32&#45;&gt;Node36 -->
<g id="edge41" class="edge">
<title>Node32&#45;&gt;Node36</title>
<path fill="none" stroke="midnightblue" d="M303.58,-246.08C311.67,-238.14 323.7,-226.34 333.41,-216.8"/>
<polygon fill="midnightblue" stroke="midnightblue" points="335.9,-219.25 340.59,-209.75 331,-214.26 335.9,-219.25"/>
</g>
</g>
</svg>
