<?xml version="1.0" encoding="UTF-8" standalone="no"?>
<!DOCTYPE svg PUBLIC "-//W3C//DTD SVG 1.1//EN"
 "http://www.w3.org/Graphics/SVG/1.1/DTD/svg11.dtd">
<!-- Generated by graphviz version 2.43.0 (0)
 -->
<!-- Title: OMSimLOM16.cc Pages: 1 -->
<svg width="2913pt" height="431pt"
 viewBox="0.00 0.00 2913.00 431.00" xmlns="http://www.w3.org/2000/svg" xmlns:xlink="http://www.w3.org/1999/xlink">
<g id="graph0" class="graph" transform="scale(1 1) rotate(0) translate(4 427)">
<title>OMSimLOM16.cc</title>
<polygon fill="white" stroke="transparent" points="-4,4 -4,-427 2909,-427 2909,4 -4,4"/>
<!-- Node1 -->
<g id="node1" class="node">
<title>Node1</title>
<g id="a_node1"><a xlink:title=" ">
<polygon fill="#bfbfbf" stroke="black" points="1001.5,-403.5 1001.5,-422.5 1100.5,-422.5 1100.5,-403.5 1001.5,-403.5"/>
<text text-anchor="middle" x="1051" y="-410.5" font-family="Helvetica,sans-Serif" font-size="10.00">OMSimLOM16.cc</text>
</a>
</g>
</g>
<!-- Node2 -->
<g id="node2" class="node">
<title>Node2</title>
<g id="a_node2"><a xlink:href="_o_m_sim_l_o_m16_8hh.html" target="_top" xlink:title="Construction of LOM16.">
<polygon fill="white" stroke="black" points="530.5,-347.5 530.5,-366.5 631.5,-366.5 631.5,-347.5 530.5,-347.5"/>
<text text-anchor="middle" x="581" y="-354.5" font-family="Helvetica,sans-Serif" font-size="10.00">OMSimLOM16.hh</text>
</a>
</g>
</g>
<!-- Node1&#45;&gt;Node2 -->
<g id="edge1" class="edge">
<title>Node1&#45;&gt;Node2</title>
<path fill="none" stroke="midnightblue" d="M1001.15,-406.27C914.39,-396.3 735.94,-375.8 641.96,-365"/>
<polygon fill="midnightblue" stroke="midnightblue" points="642.1,-361.5 631.76,-363.83 641.3,-368.45 642.1,-361.5"/>
</g>
<!-- Node6 -->
<g id="node6" class="node">
<title>Node6</title>
<g id="a_node6"><a xlink:href="_o_m_sim_logger_8hh.html" target="_top" xlink:title=" ">
<polygon fill="white" stroke="black" points="1000.5,-67.5 1000.5,-86.5 1099.5,-86.5 1099.5,-67.5 1000.5,-67.5"/>
<text text-anchor="middle" x="1050" y="-74.5" font-family="Helvetica,sans-Serif" font-size="10.00">OMSimLogger.hh</text>
</a>
</g>
</g>
<!-- Node1&#45;&gt;Node6 -->
<g id="edge30" class="edge">
<title>Node1&#45;&gt;Node6</title>
<path fill="none" stroke="midnightblue" d="M1001.41,-411.26C929.04,-407.26 803,-387.96 803,-302 803,-302 803,-302 803,-244 803,-213.9 802.17,-201.65 822,-179 866.51,-128.15 941.51,-101.76 993.27,-88.91"/>
<polygon fill="midnightblue" stroke="midnightblue" points="994.38,-92.24 1003.29,-86.52 992.75,-85.43 994.38,-92.24"/>
</g>
<!-- Node31 -->
<g id="node26" class="node">
<title>Node31</title>
<g id="a_node26"><a xlink:href="_c_a_d_mesh_8hh.html" target="_top" xlink:title=" ">
<polygon fill="white" stroke="black" points="1881.5,-235.5 1881.5,-254.5 1960.5,-254.5 1960.5,-235.5 1881.5,-235.5"/>
<text text-anchor="middle" x="1921" y="-242.5" font-family="Helvetica,sans-Serif" font-size="10.00">CADMesh.hh</text>
</a>
</g>
</g>
<!-- Node1&#45;&gt;Node31 -->
<g id="edge31" class="edge">
<title>Node1&#45;&gt;Node31</title>
<path fill="none" stroke="midnightblue" d="M1038.18,-403.44C1020.24,-390.46 991.57,-365.35 1008,-347 1066.05,-282.17 1688.78,-254.47 1871.12,-247.71"/>
<polygon fill="midnightblue" stroke="midnightblue" points="1871.36,-251.2 1881.23,-247.34 1871.11,-244.21 1871.36,-251.2"/>
</g>
<!-- Node48 -->
<g id="node43" class="node">
<title>Node48</title>
<g id="a_node43"><a xlink:href="_o_m_sim_command_args_table_8hh.html" target="_top" xlink:title="Definition of the OMSimCommandArgsTable singleton class, which controls user args.">
<polygon fill="white" stroke="black" points="978,-235.5 978,-254.5 1142,-254.5 1142,-235.5 978,-235.5"/>
<text text-anchor="middle" x="1060" y="-242.5" font-family="Helvetica,sans-Serif" font-size="10.00">OMSimCommandArgsTable.hh</text>
</a>
</g>
</g>
<!-- Node1&#45;&gt;Node48 -->
<g id="edge52" class="edge">
<title>Node1&#45;&gt;Node48</title>
<path fill="none" stroke="midnightblue" d="M1022.63,-403.49C1005.25,-396.65 984.4,-385.13 974,-367 957.19,-337.7 956.51,-319.9 974,-291 983.41,-275.46 1000.15,-265.02 1016.38,-258.15"/>
<polygon fill="midnightblue" stroke="midnightblue" points="1017.75,-261.37 1025.82,-254.51 1015.23,-254.85 1017.75,-261.37"/>
</g>
<!-- Node51 -->
<g id="node46" class="node">
<title>Node51</title>
<g id="a_node46"><a xlink:title=" ">
<polygon fill="white" stroke="#bfbfbf" points="1016.5,-347.5 1016.5,-366.5 1085.5,-366.5 1085.5,-347.5 1016.5,-347.5"/>
<text text-anchor="middle" x="1051" y="-354.5" font-family="Helvetica,sans-Serif" font-size="10.00">G4Cons.hh</text>
</a>
</g>
</g>
<!-- Node1&#45;&gt;Node51 -->
<g id="edge57" class="edge">
<title>Node1&#45;&gt;Node51</title>
<path fill="none" stroke="midnightblue" d="M1051,-403.08C1051,-396.01 1051,-385.86 1051,-376.99"/>
<polygon fill="midnightblue" stroke="midnightblue" points="1054.5,-376.75 1051,-366.75 1047.5,-376.75 1054.5,-376.75"/>
</g>
<!-- Node52 -->
<g id="node47" class="node">
<title>Node52</title>
<g id="a_node47"><a xlink:title=" ">
<polygon fill="white" stroke="#bfbfbf" points="1104,-347.5 1104,-366.5 1190,-366.5 1190,-347.5 1104,-347.5"/>
<text text-anchor="middle" x="1147" y="-354.5" font-family="Helvetica,sans-Serif" font-size="10.00">G4Ellipsoid.hh</text>
</a>
</g>
</g>
<!-- Node1&#45;&gt;Node52 -->
<g id="edge58" class="edge">
<title>Node1&#45;&gt;Node52</title>
<path fill="none" stroke="midnightblue" d="M1066.42,-403.32C1081.54,-394.82 1104.82,-381.73 1122.47,-371.8"/>
<polygon fill="midnightblue" stroke="midnightblue" points="1124.61,-374.61 1131.61,-366.65 1121.18,-368.51 1124.61,-374.61"/>
</g>
<!-- Node53 -->
<g id="node48" class="node">
<title>Node53</title>
<g id="a_node48"><a xlink:title=" ">
<polygon fill="white" stroke="#bfbfbf" points="1208.5,-347.5 1208.5,-366.5 1335.5,-366.5 1335.5,-347.5 1208.5,-347.5"/>
<text text-anchor="middle" x="1272" y="-354.5" font-family="Helvetica,sans-Serif" font-size="10.00">G4IntersectionSolid.hh</text>
</a>
</g>
</g>
<!-- Node1&#45;&gt;Node53 -->
<g id="edge59" class="edge">
<title>Node1&#45;&gt;Node53</title>
<path fill="none" stroke="midnightblue" d="M1086.02,-403.44C1124.25,-394.1 1185.57,-379.12 1227.26,-368.93"/>
<polygon fill="midnightblue" stroke="midnightblue" points="1228.26,-372.29 1237.15,-366.52 1226.6,-365.49 1228.26,-372.29"/>
</g>
<!-- Node54 -->
<g id="node49" class="node">
<title>Node54</title>
<g id="a_node49"><a xlink:title=" ">
<polygon fill="white" stroke="#bfbfbf" points="1353.5,-347.5 1353.5,-366.5 1442.5,-366.5 1442.5,-347.5 1353.5,-347.5"/>
<text text-anchor="middle" x="1398" y="-354.5" font-family="Helvetica,sans-Serif" font-size="10.00">G4Polycone.hh</text>
</a>
</g>
</g>
<!-- Node1&#45;&gt;Node54 -->
<g id="edge60" class="edge">
<title>Node1&#45;&gt;Node54</title>
<path fill="none" stroke="midnightblue" d="M1100.72,-404.64C1157.15,-396.24 1252.25,-381.9 1343.52,-367.22"/>
<polygon fill="midnightblue" stroke="midnightblue" points="1344.16,-370.66 1353.48,-365.61 1343.05,-363.75 1344.16,-370.66"/>
</g>
<!-- Node55 -->
<g id="node50" class="node">
<title>Node55</title>
<g id="a_node50"><a xlink:title=" ">
<polygon fill="white" stroke="#bfbfbf" points="1460,-347.5 1460,-366.5 1572,-366.5 1572,-347.5 1460,-347.5"/>
<text text-anchor="middle" x="1516" y="-354.5" font-family="Helvetica,sans-Serif" font-size="10.00">G4EllipticalCone.hh</text>
</a>
</g>
</g>
<!-- Node1&#45;&gt;Node55 -->
<g id="edge61" class="edge">
<title>Node1&#45;&gt;Node55</title>
<path fill="none" stroke="midnightblue" d="M1100.75,-406.87C1174.68,-399.15 1318.16,-383.77 1449.57,-367.28"/>
<polygon fill="midnightblue" stroke="midnightblue" points="1450.34,-370.71 1459.82,-365.99 1449.46,-363.77 1450.34,-370.71"/>
</g>
<!-- Node3 -->
<g id="node3" class="node">
<title>Node3</title>
<g id="a_node3"><a xlink:href="_o_m_sim_p_m_t_construction_8hh.html" target="_top" xlink:title="Construction of the PMTs.">
<polygon fill="white" stroke="black" points="386.5,-235.5 386.5,-254.5 535.5,-254.5 535.5,-235.5 386.5,-235.5"/>
<text text-anchor="middle" x="461" y="-242.5" font-family="Helvetica,sans-Serif" font-size="10.00">OMSimPMTConstruction.hh</text>
</a>
</g>
</g>
<!-- Node2&#45;&gt;Node3 -->
<g id="edge2" class="edge">
<title>Node2&#45;&gt;Node3</title>
<path fill="none" stroke="midnightblue" d="M560.36,-347.4C543.53,-339.66 519.88,-327.05 503,-311 488.74,-297.44 477.05,-278.12 469.66,-264.07"/>
<polygon fill="midnightblue" stroke="midnightblue" points="472.68,-262.29 465.06,-254.93 466.43,-265.44 472.68,-262.29"/>
</g>
<!-- Node25 -->
<g id="node22" class="node">
<title>Node25</title>
<g id="a_node22"><a xlink:href="_o_m_sim_optical_module_8hh.html" target="_top" xlink:title=" ">
<polygon fill="white" stroke="black" points="512.5,-291.5 512.5,-310.5 649.5,-310.5 649.5,-291.5 512.5,-291.5"/>
<text text-anchor="middle" x="581" y="-298.5" font-family="Helvetica,sans-Serif" font-size="10.00">OMSimOpticalModule.hh</text>
</a>
</g>
</g>
<!-- Node2&#45;&gt;Node25 -->
<g id="edge23" class="edge">
<title>Node2&#45;&gt;Node25</title>
<path fill="none" stroke="midnightblue" d="M581,-347.08C581,-340.01 581,-329.86 581,-320.99"/>
<polygon fill="midnightblue" stroke="midnightblue" points="584.5,-320.75 581,-310.75 577.5,-320.75 584.5,-320.75"/>
</g>
<!-- Node3&#45;&gt;Node3 -->
<g id="edge15" class="edge">
<title>Node3&#45;&gt;Node3</title>
<path fill="none" stroke="midnightblue" d="M500.45,-254.53C527.26,-257.31 553.5,-254.13 553.5,-245 553.5,-237.01 533.41,-233.58 510.43,-234.71"/>
<polygon fill="midnightblue" stroke="midnightblue" points="510.15,-231.22 500.45,-235.47 510.69,-238.2 510.15,-231.22"/>
</g>
<!-- Node4 -->
<g id="node4" class="node">
<title>Node4</title>
<g id="a_node4"><a xlink:href="abc_detector_component_8hh.html" target="_top" xlink:title="Provides helper base class abcDetectorComponent for constructing and managing detector components in ...">
<polygon fill="white" stroke="black" points="387.5,-179.5 387.5,-198.5 534.5,-198.5 534.5,-179.5 387.5,-179.5"/>
<text text-anchor="middle" x="461" y="-186.5" font-family="Helvetica,sans-Serif" font-size="10.00">abcDetectorComponent.hh</text>
</a>
</g>
</g>
<!-- Node3&#45;&gt;Node4 -->
<g id="edge3" class="edge">
<title>Node3&#45;&gt;Node4</title>
<path fill="none" stroke="midnightblue" d="M461,-235.08C461,-228.01 461,-217.86 461,-208.99"/>
<polygon fill="midnightblue" stroke="midnightblue" points="464.5,-208.75 461,-198.75 457.5,-208.75 464.5,-208.75"/>
</g>
<!-- Node18 -->
<g id="node16" class="node">
<title>Node18</title>
<g id="a_node16"><a xlink:href="_o_m_sim_p_m_t_response_8hh.html" target="_top" xlink:title="Simulation of PMT response.">
<polygon fill="white" stroke="red" points="639.5,-179.5 639.5,-198.5 774.5,-198.5 774.5,-179.5 639.5,-179.5"/>
<text text-anchor="middle" x="707" y="-186.5" font-family="Helvetica,sans-Serif" font-size="10.00">OMSimPMTResponse.hh</text>
</a>
</g>
</g>
<!-- Node3&#45;&gt;Node18 -->
<g id="edge16" class="edge">
<title>Node3&#45;&gt;Node18</title>
<path fill="none" stroke="midnightblue" d="M499.98,-235.44C542.89,-226.02 611.95,-210.87 658.37,-200.68"/>
<polygon fill="midnightblue" stroke="midnightblue" points="659.19,-204.08 668.2,-198.52 657.69,-197.24 659.19,-204.08"/>
</g>
<!-- Node23 -->
<g id="node20" class="node">
<title>Node23</title>
<g id="a_node20"><a xlink:title=" ">
<polygon fill="white" stroke="#bfbfbf" points="271,-179.5 271,-198.5 369,-198.5 369,-179.5 271,-179.5"/>
<text text-anchor="middle" x="320" y="-186.5" font-family="Helvetica,sans-Serif" font-size="10.00">G4UnionSolid.hh</text>
</a>
</g>
</g>
<!-- Node3&#45;&gt;Node23 -->
<g id="edge21" class="edge">
<title>Node3&#45;&gt;Node23</title>
<path fill="none" stroke="midnightblue" d="M438.66,-235.44C415.25,-226.48 378.26,-212.31 351.81,-202.18"/>
<polygon fill="midnightblue" stroke="midnightblue" points="352.83,-198.82 342.24,-198.52 350.32,-205.36 352.83,-198.82"/>
</g>
<!-- Node24 -->
<g id="node21" class="node">
<title>Node24</title>
<g id="a_node21"><a xlink:title=" ">
<polygon fill="white" stroke="#bfbfbf" points="185.5,-179.5 185.5,-198.5 252.5,-198.5 252.5,-179.5 185.5,-179.5"/>
<text text-anchor="middle" x="219" y="-186.5" font-family="Helvetica,sans-Serif" font-size="10.00">G4Tubs.hh</text>
</a>
</g>
</g>
<!-- Node3&#45;&gt;Node24 -->
<g id="edge22" class="edge">
<title>Node3&#45;&gt;Node24</title>
<path fill="none" stroke="midnightblue" d="M422.65,-235.44C379.16,-225.74 308.38,-209.95 262.77,-199.77"/>
<polygon fill="midnightblue" stroke="midnightblue" points="263.39,-196.32 252.87,-197.56 261.87,-203.15 263.39,-196.32"/>
</g>
<!-- Node5 -->
<g id="node5" class="node">
<title>Node5</title>
<g id="a_node5"><a xlink:href="_o_m_sim_input_data_8hh.html" target="_top" xlink:title="Definition of ParameterTable and InputDataManager.">
<polygon fill="white" stroke="red" points="562.5,-123.5 562.5,-142.5 677.5,-142.5 677.5,-123.5 562.5,-123.5"/>
<text text-anchor="middle" x="620" y="-130.5" font-family="Helvetica,sans-Serif" font-size="10.00">OMSimInputData.hh</text>
</a>
</g>
</g>
<!-- Node4&#45;&gt;Node5 -->
<g id="edge4" class="edge">
<title>Node4&#45;&gt;Node5</title>
<path fill="none" stroke="midnightblue" d="M486.19,-179.44C512.94,-170.36 555.4,-155.94 585.31,-145.78"/>
<polygon fill="midnightblue" stroke="midnightblue" points="586.58,-149.05 594.92,-142.52 584.33,-142.42 586.58,-149.05"/>
</g>
<!-- Node14 -->
<g id="node12" class="node">
<title>Node14</title>
<g id="a_node12"><a xlink:title=" ">
<polygon fill="white" stroke="#bfbfbf" points="128.5,-123.5 128.5,-142.5 235.5,-142.5 235.5,-123.5 128.5,-123.5"/>
<text text-anchor="middle" x="182" y="-130.5" font-family="Helvetica,sans-Serif" font-size="10.00">G4Transform3D.hh</text>
</a>
</g>
</g>
<!-- Node4&#45;&gt;Node14 -->
<g id="edge11" class="edge">
<title>Node4&#45;&gt;Node14</title>
<path fill="none" stroke="midnightblue" d="M416.79,-179.44C367.71,-169.94 288.49,-154.61 235.84,-144.42"/>
<polygon fill="midnightblue" stroke="midnightblue" points="236.48,-140.98 226,-142.52 235.15,-147.85 236.48,-140.98"/>
</g>
<!-- Node15 -->
<g id="node13" class="node">
<title>Node15</title>
<g id="a_node13"><a xlink:title=" ">
<polygon fill="white" stroke="#bfbfbf" points="254,-123.5 254,-142.5 362,-142.5 362,-123.5 254,-123.5"/>
<text text-anchor="middle" x="308" y="-130.5" font-family="Helvetica,sans-Serif" font-size="10.00">G4VisAttributes.hh</text>
</a>
</g>
</g>
<!-- Node4&#45;&gt;Node15 -->
<g id="edge12" class="edge">
<title>Node4&#45;&gt;Node15</title>
<path fill="none" stroke="midnightblue" d="M436.76,-179.44C411.13,-170.4 370.51,-156.06 341.76,-145.92"/>
<polygon fill="midnightblue" stroke="midnightblue" points="342.72,-142.54 332.13,-142.52 340.39,-149.15 342.72,-142.54"/>
</g>
<!-- Node16 -->
<g id="node14" class="node">
<title>Node16</title>
<g id="a_node14"><a xlink:title=" ">
<polygon fill="white" stroke="#bfbfbf" points="380.5,-123.5 380.5,-142.5 505.5,-142.5 505.5,-123.5 380.5,-123.5"/>
<text text-anchor="middle" x="443" y="-130.5" font-family="Helvetica,sans-Serif" font-size="10.00">G4SubtractionSolid.hh</text>
</a>
</g>
</g>
<!-- Node4&#45;&gt;Node16 -->
<g id="edge13" class="edge">
<title>Node4&#45;&gt;Node16</title>
<path fill="none" stroke="midnightblue" d="M458.03,-179.08C455.62,-171.85 452.14,-161.41 449.13,-152.4"/>
<polygon fill="midnightblue" stroke="midnightblue" points="452.4,-151.13 445.92,-142.75 445.76,-153.34 452.4,-151.13"/>
</g>
<!-- Node17 -->
<g id="node15" class="node">
<title>Node17</title>
<g id="a_node15"><a xlink:title=" ">
<polygon fill="white" stroke="#bfbfbf" points="0,-123.5 0,-142.5 110,-142.5 110,-123.5 0,-123.5"/>
<text text-anchor="middle" x="55" y="-130.5" font-family="Helvetica,sans-Serif" font-size="10.00">G4PVPlacement.hh</text>
</a>
</g>
</g>
<!-- Node4&#45;&gt;Node17 -->
<g id="edge14" class="edge">
<title>Node4&#45;&gt;Node17</title>
<path fill="none" stroke="midnightblue" d="M394.77,-179.46C328.08,-170.83 221.95,-156.97 120.29,-143.17"/>
<polygon fill="midnightblue" stroke="midnightblue" points="120.53,-139.67 110.15,-141.79 119.59,-146.6 120.53,-139.67"/>
</g>
<!-- Node5&#45;&gt;Node6 -->
<g id="edge5" class="edge">
<title>Node5&#45;&gt;Node6</title>
<path fill="none" stroke="midnightblue" d="M677.59,-124.1C680.43,-123.73 683.25,-123.36 686,-123 792.98,-109.09 917.78,-93.89 989.96,-85.19"/>
<polygon fill="midnightblue" stroke="midnightblue" points="990.71,-88.62 1000.22,-83.95 989.88,-81.67 990.71,-88.62"/>
</g>
<!-- Node12 -->
<g id="node11" class="node">
<title>Node12</title>
<g id="a_node11"><a xlink:title=" ">
<polygon fill="white" stroke="#bfbfbf" points="517.5,-67.5 517.5,-86.5 636.5,-86.5 636.5,-67.5 517.5,-67.5"/>
<text text-anchor="middle" x="577" y="-74.5" font-family="Helvetica,sans-Serif" font-size="10.00">G4SystemOfUnits.hh</text>
</a>
</g>
</g>
<!-- Node5&#45;&gt;Node12 -->
<g id="edge10" class="edge">
<title>Node5&#45;&gt;Node12</title>
<path fill="none" stroke="midnightblue" d="M612.9,-123.08C606.76,-115.38 597.73,-104.03 590.26,-94.65"/>
<polygon fill="midnightblue" stroke="midnightblue" points="592.94,-92.39 583.97,-86.75 587.46,-96.75 592.94,-92.39"/>
</g>
<!-- Node7 -->
<g id="node7" class="node">
<title>Node7</title>
<g id="a_node7"><a xlink:title=" ">
<polygon fill="white" stroke="#bfbfbf" points="883.5,-6 883.5,-25 976.5,-25 976.5,-6 883.5,-6"/>
<text text-anchor="middle" x="930" y="-13" font-family="Helvetica,sans-Serif" font-size="10.00">spdlog/spdlog.h</text>
</a>
</g>
</g>
<!-- Node6&#45;&gt;Node7 -->
<g id="edge6" class="edge">
<title>Node6&#45;&gt;Node7</title>
<path fill="none" stroke="midnightblue" d="M1032.81,-67.48C1012.76,-57.53 979.4,-40.99 956.14,-29.46"/>
<polygon fill="midnightblue" stroke="midnightblue" points="957.68,-26.32 947.16,-25.01 954.57,-32.59 957.68,-26.32"/>
</g>
<!-- Node8 -->
<g id="node8" class="node">
<title>Node8</title>
<g id="a_node8"><a xlink:title=" ">
<polygon fill="white" stroke="#bfbfbf" points="994.5,-0.5 994.5,-30.5 1105.5,-30.5 1105.5,-0.5 994.5,-0.5"/>
<text text-anchor="start" x="1002.5" y="-18.5" font-family="Helvetica,sans-Serif" font-size="10.00">spdlog/sinks/stdout</text>
<text text-anchor="middle" x="1050" y="-7.5" font-family="Helvetica,sans-Serif" font-size="10.00">_color_sinks.h</text>
</a>
</g>
</g>
<!-- Node6&#45;&gt;Node8 -->
<g id="edge7" class="edge">
<title>Node6&#45;&gt;Node8</title>
<path fill="none" stroke="midnightblue" d="M1050,-67.48C1050,-60.47 1050,-50.19 1050,-40.7"/>
<polygon fill="midnightblue" stroke="midnightblue" points="1053.5,-40.52 1050,-30.52 1046.5,-40.52 1053.5,-40.52"/>
</g>
<!-- Node9 -->
<g id="node9" class="node">
<title>Node9</title>
<g id="a_node9"><a xlink:title=" ">
<polygon fill="white" stroke="#bfbfbf" points="1679,-6 1679,-25 1737,-25 1737,-6 1679,-6"/>
<text text-anchor="middle" x="1708" y="-13" font-family="Helvetica,sans-Serif" font-size="10.00">memory</text>
</a>
</g>
</g>
<!-- Node6&#45;&gt;Node9 -->
<g id="edge8" class="edge">
<title>Node6&#45;&gt;Node9</title>
<path fill="none" stroke="midnightblue" d="M1099.73,-71.5C1225.73,-60.11 1555.58,-30.28 1669.02,-20.02"/>
<polygon fill="midnightblue" stroke="midnightblue" points="1669.35,-23.51 1679,-19.12 1668.72,-16.54 1669.35,-23.51"/>
</g>
<!-- Node10 -->
<g id="node10" class="node">
<title>Node10</title>
<g id="a_node10"><a xlink:title=" ">
<polygon fill="white" stroke="#bfbfbf" points="1124,-6 1124,-25 1222,-25 1222,-6 1124,-6"/>
<text text-anchor="middle" x="1173" y="-13" font-family="Helvetica,sans-Serif" font-size="10.00">spdlog/fmt/fmt.h</text>
</a>
</g>
</g>
<!-- Node6&#45;&gt;Node10 -->
<g id="edge9" class="edge">
<title>Node6&#45;&gt;Node10</title>
<path fill="none" stroke="midnightblue" d="M1067.62,-67.48C1088.17,-57.53 1122.36,-40.99 1146.21,-29.46"/>
<polygon fill="midnightblue" stroke="midnightblue" points="1147.93,-32.51 1155.41,-25.01 1144.88,-26.21 1147.93,-32.51"/>
</g>
<!-- Node18&#45;&gt;Node12 -->
<g id="edge17" class="edge">
<title>Node18&#45;&gt;Node12</title>
<path fill="none" stroke="midnightblue" d="M654.1,-179.46C614.57,-171.87 565.32,-159.44 553,-143 542.23,-128.63 552.18,-108.91 562.35,-94.97"/>
<polygon fill="midnightblue" stroke="midnightblue" points="565.39,-96.78 568.85,-86.76 559.9,-92.43 565.39,-96.78"/>
</g>
<!-- Node19 -->
<g id="node17" class="node">
<title>Node19</title>
<g id="a_node17"><a xlink:title=" ">
<polygon fill="white" stroke="#bfbfbf" points="774.5,-123.5 774.5,-142.5 847.5,-142.5 847.5,-123.5 774.5,-123.5"/>
<text text-anchor="middle" x="811" y="-130.5" font-family="Helvetica,sans-Serif" font-size="10.00">G4Types.hh</text>
</a>
</g>
</g>
<!-- Node18&#45;&gt;Node19 -->
<g id="edge18" class="edge">
<title>Node18&#45;&gt;Node19</title>
<path fill="none" stroke="midnightblue" d="M723.71,-179.32C740.31,-170.7 766,-157.36 785.22,-147.39"/>
<polygon fill="midnightblue" stroke="midnightblue" points="787.07,-150.37 794.33,-142.65 783.84,-144.16 787.07,-150.37"/>
</g>
<!-- Node20 -->
<g id="node18" class="node">
<title>Node20</title>
<g id="a_node18"><a xlink:title=" ">
<polygon fill="white" stroke="#bfbfbf" points="1252,-123.5 1252,-142.5 1290,-142.5 1290,-123.5 1252,-123.5"/>
<text text-anchor="middle" x="1271" y="-130.5" font-family="Helvetica,sans-Serif" font-size="10.00">map</text>
</a>
</g>
</g>
<!-- Node18&#45;&gt;Node20 -->
<g id="edge19" class="edge">
<title>Node18&#45;&gt;Node20</title>
<path fill="none" stroke="midnightblue" d="M774.75,-181.51C898.25,-169.69 1155.24,-145.08 1241.81,-136.79"/>
<polygon fill="midnightblue" stroke="midnightblue" points="1242.34,-140.26 1251.96,-135.82 1241.67,-133.29 1242.34,-140.26"/>
</g>
<!-- Node21 -->
<g id="node19" class="node">
<title>Node21</title>
<g id="a_node19"><a xlink:title=" ">
<polygon fill="white" stroke="#bfbfbf" points="695.5,-123.5 695.5,-142.5 756.5,-142.5 756.5,-123.5 695.5,-123.5"/>
<text text-anchor="middle" x="726" y="-130.5" font-family="Helvetica,sans-Serif" font-size="10.00">TGraph.h</text>
</a>
</g>
</g>
<!-- Node18&#45;&gt;Node21 -->
<g id="edge20" class="edge">
<title>Node18&#45;&gt;Node21</title>
<path fill="none" stroke="midnightblue" d="M710.14,-179.08C712.68,-171.85 716.36,-161.41 719.53,-152.4"/>
<polygon fill="midnightblue" stroke="midnightblue" points="722.9,-153.35 722.92,-142.75 716.3,-151.02 722.9,-153.35"/>
</g>
<!-- Node25&#45;&gt;Node3 -->
<g id="edge29" class="edge">
<title>Node25&#45;&gt;Node3</title>
<path fill="none" stroke="midnightblue" d="M561.99,-291.44C542.41,-282.64 511.69,-268.81 489.27,-258.72"/>
<polygon fill="midnightblue" stroke="midnightblue" points="490.48,-255.43 479.93,-254.52 487.61,-261.81 490.48,-255.43"/>
</g>
<!-- Node25&#45;&gt;Node4 -->
<g id="edge24" class="edge">
<title>Node25&#45;&gt;Node4</title>
<path fill="none" stroke="midnightblue" d="M580.71,-291.33C579.82,-277.74 576.23,-251.29 562,-235 548.23,-219.24 527.88,-208.74 509.04,-201.89"/>
<polygon fill="midnightblue" stroke="midnightblue" points="509.97,-198.5 499.38,-198.62 507.73,-205.14 509.97,-198.5"/>
</g>
<!-- Node26 -->
<g id="node23" class="node">
<title>Node26</title>
<g id="a_node23"><a xlink:href="_o_m_sim_hit_manager_8hh.html" target="_top" xlink:title="Defines structures and classes related to optical module photon hit management.">
<polygon fill="white" stroke="red" points="648.5,-235.5 648.5,-254.5 771.5,-254.5 771.5,-235.5 648.5,-235.5"/>
<text text-anchor="middle" x="710" y="-242.5" font-family="Helvetica,sans-Serif" font-size="10.00">OMSimHitManager.hh</text>
</a>
</g>
</g>
<!-- Node25&#45;&gt;Node26 -->
<g id="edge25" class="edge">
<title>Node25&#45;&gt;Node26</title>
<path fill="none" stroke="midnightblue" d="M601.44,-291.44C622.67,-282.56 656.1,-268.56 680.25,-258.45"/>
<polygon fill="midnightblue" stroke="midnightblue" points="681.78,-261.61 689.66,-254.52 679.08,-255.15 681.78,-261.61"/>
</g>
<!-- Node26&#45;&gt;Node18 -->
<g id="edge26" class="edge">
<title>Node26&#45;&gt;Node18</title>
<path fill="none" stroke="midnightblue" d="M709.5,-235.08C709.11,-228.01 708.55,-217.86 708.05,-208.99"/>
<polygon fill="midnightblue" stroke="midnightblue" points="711.54,-208.54 707.49,-198.75 704.55,-208.93 711.54,-208.54"/>
</g>
<!-- Node27 -->
<g id="node24" class="node">
<title>Node27</title>
<g id="a_node24"><a xlink:title=" ">
<polygon fill="white" stroke="#bfbfbf" points="904.5,-179.5 904.5,-198.5 1007.5,-198.5 1007.5,-179.5 904.5,-179.5"/>
<text text-anchor="middle" x="956" y="-186.5" font-family="Helvetica,sans-Serif" font-size="10.00">G4ThreeVector.hh</text>
</a>
</g>
</g>
<!-- Node26&#45;&gt;Node27 -->
<g id="edge27" class="edge">
<title>Node26&#45;&gt;Node27</title>
<path fill="none" stroke="midnightblue" d="M748.98,-235.44C791.89,-226.02 860.95,-210.87 907.37,-200.68"/>
<polygon fill="midnightblue" stroke="midnightblue" points="908.19,-204.08 917.2,-198.52 906.69,-197.24 908.19,-204.08"/>
</g>
<!-- Node28 -->
<g id="node25" class="node">
<title>Node28</title>
<g id="a_node25"><a xlink:title=" ">
<polygon fill="white" stroke="#bfbfbf" points="831.5,-179.5 831.5,-198.5 886.5,-198.5 886.5,-179.5 831.5,-179.5"/>
<text text-anchor="middle" x="859" y="-186.5" font-family="Helvetica,sans-Serif" font-size="10.00">fstream</text>
</a>
</g>
</g>
<!-- Node26&#45;&gt;Node28 -->
<g id="edge28" class="edge">
<title>Node26&#45;&gt;Node28</title>
<path fill="none" stroke="midnightblue" d="M733.61,-235.44C758.46,-226.44 797.77,-212.19 825.75,-202.05"/>
<polygon fill="midnightblue" stroke="midnightblue" points="827.29,-205.21 835.5,-198.52 824.91,-198.63 827.29,-205.21"/>
</g>
<!-- Node31&#45;&gt;Node9 -->
<g id="edge37" class="edge">
<title>Node31&#45;&gt;Node9</title>
<path fill="none" stroke="midnightblue" d="M1936.7,-235.43C1956.19,-223.59 1985.42,-201.19 1973,-179 1924.3,-92.02 1807.91,-45.96 1746.87,-27.05"/>
<polygon fill="midnightblue" stroke="midnightblue" points="1747.8,-23.67 1737.21,-24.14 1745.78,-30.38 1747.8,-23.67"/>
</g>
<!-- Node31&#45;&gt;Node20 -->
<g id="edge34" class="edge">
<title>Node31&#45;&gt;Node20</title>
<path fill="none" stroke="midnightblue" d="M1881.33,-244.03C1748.49,-243.75 1325.15,-239.65 1281,-199 1268.55,-187.54 1267.17,-167.56 1268.2,-152.77"/>
<polygon fill="midnightblue" stroke="midnightblue" points="1271.7,-153.02 1269.33,-142.7 1264.74,-152.25 1271.7,-153.02"/>
</g>
<!-- Node31&#45;&gt;Node27 -->
<g id="edge35" class="edge">
<title>Node31&#45;&gt;Node27</title>
<path fill="none" stroke="midnightblue" d="M1881.25,-243.39C1755.95,-241.19 1357.97,-231.97 1017.59,-198.95"/>
<polygon fill="midnightblue" stroke="midnightblue" points="1017.83,-195.45 1007.54,-197.96 1017.15,-202.42 1017.83,-195.45"/>
</g>
<!-- Node31&#45;&gt;Node28 -->
<g id="edge48" class="edge">
<title>Node31&#45;&gt;Node28</title>
<path fill="none" stroke="midnightblue" d="M1881.32,-243.33C1719.82,-240.42 1110.7,-227.86 896.98,-198.97"/>
<polygon fill="midnightblue" stroke="midnightblue" points="897.19,-195.46 886.8,-197.54 896.21,-202.4 897.19,-195.46"/>
</g>
<!-- Node32 -->
<g id="node27" class="node">
<title>Node32</title>
<g id="a_node27"><a xlink:title=" ">
<polygon fill="white" stroke="#bfbfbf" points="2020,-179.5 2020,-198.5 2094,-198.5 2094,-179.5 2020,-179.5"/>
<text text-anchor="middle" x="2057" y="-186.5" font-family="Helvetica,sans-Serif" font-size="10.00">G4String.hh</text>
</a>
</g>
</g>
<!-- Node31&#45;&gt;Node32 -->
<g id="edge32" class="edge">
<title>Node31&#45;&gt;Node32</title>
<path fill="none" stroke="midnightblue" d="M1942.55,-235.44C1965.03,-226.52 2000.49,-212.44 2025.98,-202.32"/>
<polygon fill="midnightblue" stroke="midnightblue" points="2027.55,-205.46 2035.55,-198.52 2024.97,-198.95 2027.55,-205.46"/>
</g>
<!-- Node33 -->
<g id="node28" class="node">
<title>Node33</title>
<g id="a_node28"><a xlink:title=" ">
<polygon fill="white" stroke="#bfbfbf" points="2112,-179.5 2112,-198.5 2176,-198.5 2176,-179.5 2112,-179.5"/>
<text text-anchor="middle" x="2144" y="-186.5" font-family="Helvetica,sans-Serif" font-size="10.00">algorithm</text>
</a>
</g>
</g>
<!-- Node31&#45;&gt;Node33 -->
<g id="edge33" class="edge">
<title>Node31&#45;&gt;Node33</title>
<path fill="none" stroke="midnightblue" d="M1956.34,-235.44C1995.82,-225.88 2059.71,-210.41 2101.79,-200.22"/>
<polygon fill="midnightblue" stroke="midnightblue" points="2102.83,-203.57 2111.73,-197.82 2101.18,-196.77 2102.83,-203.57"/>
</g>
<!-- Node34 -->
<g id="node29" class="node">
<title>Node34</title>
<g id="a_node29"><a xlink:title=" ">
<polygon fill="white" stroke="#bfbfbf" points="2194.5,-179.5 2194.5,-198.5 2313.5,-198.5 2313.5,-179.5 2194.5,-179.5"/>
<text text-anchor="middle" x="2254" y="-186.5" font-family="Helvetica,sans-Serif" font-size="10.00">G4TriangularFacet.hh</text>
</a>
</g>
</g>
<!-- Node31&#45;&gt;Node34 -->
<g id="edge36" class="edge">
<title>Node31&#45;&gt;Node34</title>
<path fill="none" stroke="midnightblue" d="M1960.51,-237.59C2017.53,-228.35 2123.49,-211.16 2191.28,-200.17"/>
<polygon fill="midnightblue" stroke="midnightblue" points="2192.1,-203.58 2201.41,-198.53 2190.98,-196.67 2192.1,-203.58"/>
</g>
<!-- Node35 -->
<g id="node30" class="node">
<title>Node35</title>
<g id="a_node30"><a xlink:title=" ">
<polygon fill="white" stroke="#bfbfbf" points="2331.5,-179.5 2331.5,-198.5 2378.5,-198.5 2378.5,-179.5 2331.5,-179.5"/>
<text text-anchor="middle" x="2355" y="-186.5" font-family="Helvetica,sans-Serif" font-size="10.00">vector</text>
</a>
</g>
</g>
<!-- Node31&#45;&gt;Node35 -->
<g id="edge38" class="edge">
<title>Node31&#45;&gt;Node35</title>
<path fill="none" stroke="midnightblue" d="M1960.7,-241.7C2031.5,-237.15 2184.31,-225.21 2321.49,-199.03"/>
<polygon fill="midnightblue" stroke="midnightblue" points="2322.19,-202.46 2331.34,-197.12 2320.85,-195.59 2322.19,-202.46"/>
</g>
<!-- Node36 -->
<g id="node31" class="node">
<title>Node36</title>
<g id="a_node31"><a xlink:title=" ">
<polygon fill="white" stroke="#bfbfbf" points="2397,-179.5 2397,-198.5 2457,-198.5 2457,-179.5 2397,-179.5"/>
<text text-anchor="middle" x="2427" y="-186.5" font-family="Helvetica,sans-Serif" font-size="10.00">iostream</text>
</a>
</g>
</g>
<!-- Node31&#45;&gt;Node36 -->
<g id="edge39" class="edge">
<title>Node31&#45;&gt;Node36</title>
<path fill="none" stroke="midnightblue" d="M1960.59,-241.94C2039.71,-237.44 2223.11,-225.11 2386.6,-199.03"/>
<polygon fill="midnightblue" stroke="midnightblue" points="2387.53,-202.42 2396.84,-197.37 2386.41,-195.51 2387.53,-202.42"/>
</g>
<!-- Node37 -->
<g id="node32" class="node">
<title>Node37</title>
<g id="a_node32"><a xlink:title=" ">
<polygon fill="white" stroke="#bfbfbf" points="2475,-179.5 2475,-198.5 2519,-198.5 2519,-179.5 2475,-179.5"/>
<text text-anchor="middle" x="2497" y="-186.5" font-family="Helvetica,sans-Serif" font-size="10.00">string</text>
</a>
</g>
</g>
<!-- Node31&#45;&gt;Node37 -->
<g id="edge40" class="edge">
<title>Node31&#45;&gt;Node37</title>
<path fill="none" stroke="midnightblue" d="M1960.68,-243.44C2049.55,-241.59 2271.29,-233.77 2464.71,-198.87"/>
<polygon fill="midnightblue" stroke="midnightblue" points="2465.57,-202.28 2474.78,-197.03 2464.31,-195.39 2465.57,-202.28"/>
</g>
<!-- Node38 -->
<g id="node33" class="node">
<title>Node38</title>
<g id="a_node33"><a xlink:title=" ">
<polygon fill="white" stroke="#bfbfbf" points="2537,-179.5 2537,-198.5 2667,-198.5 2667,-179.5 2537,-179.5"/>
<text text-anchor="middle" x="2602" y="-186.5" font-family="Helvetica,sans-Serif" font-size="10.00">G4AssemblyVolume.hh</text>
</a>
</g>
</g>
<!-- Node31&#45;&gt;Node38 -->
<g id="edge41" class="edge">
<title>Node31&#45;&gt;Node38</title>
<path fill="none" stroke="midnightblue" d="M1960.83,-241.7C2056.45,-236.03 2306.78,-220.37 2526.54,-199.1"/>
<polygon fill="midnightblue" stroke="midnightblue" points="2527.03,-202.57 2536.65,-198.12 2526.36,-195.6 2527.03,-202.57"/>
</g>
<!-- Node39 -->
<g id="node34" class="node">
<title>Node39</title>
<g id="a_node34"><a xlink:title=" ">
<polygon fill="white" stroke="#bfbfbf" points="2685,-179.5 2685,-198.5 2801,-198.5 2801,-179.5 2685,-179.5"/>
<text text-anchor="middle" x="2743" y="-186.5" font-family="Helvetica,sans-Serif" font-size="10.00">G4LogicalVolume.hh</text>
</a>
</g>
</g>
<!-- Node31&#45;&gt;Node39 -->
<g id="edge42" class="edge">
<title>Node31&#45;&gt;Node39</title>
<path fill="none" stroke="midnightblue" d="M1960.78,-242.67C2071.89,-238.72 2395.15,-225.74 2674.59,-199.06"/>
<polygon fill="midnightblue" stroke="midnightblue" points="2675.31,-202.51 2684.93,-198.07 2674.64,-195.54 2675.31,-202.51"/>
</g>
<!-- Node40 -->
<g id="node35" class="node">
<title>Node40</title>
<g id="a_node35"><a xlink:title=" ">
<polygon fill="white" stroke="#bfbfbf" points="2819,-179.5 2819,-198.5 2905,-198.5 2905,-179.5 2819,-179.5"/>
<text text-anchor="middle" x="2862" y="-186.5" font-family="Helvetica,sans-Serif" font-size="10.00">G4Material.hh</text>
</a>
</g>
</g>
<!-- Node31&#45;&gt;Node40 -->
<g id="edge43" class="edge">
<title>Node31&#45;&gt;Node40</title>
<path fill="none" stroke="midnightblue" d="M1960.57,-243.7C2084.32,-242.4 2475.12,-235.55 2808.58,-199.01"/>
<polygon fill="midnightblue" stroke="midnightblue" points="2809.37,-202.45 2818.93,-197.87 2808.6,-195.49 2809.37,-202.45"/>
</g>
<!-- Node41 -->
<g id="node36" class="node">
<title>Node41</title>
<g id="a_node36"><a xlink:title=" ">
<polygon fill="white" stroke="#bfbfbf" points="1290,-179.5 1290,-198.5 1414,-198.5 1414,-179.5 1290,-179.5"/>
<text text-anchor="middle" x="1352" y="-186.5" font-family="Helvetica,sans-Serif" font-size="10.00">G4TessellatedSolid.hh</text>
</a>
</g>
</g>
<!-- Node31&#45;&gt;Node41 -->
<g id="edge44" class="edge">
<title>Node31&#45;&gt;Node41</title>
<path fill="none" stroke="midnightblue" d="M1881.33,-240.87C1797.05,-234.12 1593.91,-217.31 1424,-199 1423.9,-198.99 1423.8,-198.98 1423.69,-198.97"/>
<polygon fill="midnightblue" stroke="midnightblue" points="1424.36,-195.52 1414.04,-197.89 1423.59,-202.48 1424.36,-195.52"/>
</g>
<!-- Node42 -->
<g id="node37" class="node">
<title>Node42</title>
<g id="a_node37"><a xlink:title=" ">
<polygon fill="white" stroke="#bfbfbf" points="1432.5,-179.5 1432.5,-198.5 1491.5,-198.5 1491.5,-179.5 1432.5,-179.5"/>
<text text-anchor="middle" x="1462" y="-186.5" font-family="Helvetica,sans-Serif" font-size="10.00">G4Tet.hh</text>
</a>
</g>
</g>
<!-- Node31&#45;&gt;Node42 -->
<g id="edge45" class="edge">
<title>Node31&#45;&gt;Node42</title>
<path fill="none" stroke="midnightblue" d="M1881.41,-241.35C1808.35,-236.12 1647.3,-222.98 1501.74,-198.93"/>
<polygon fill="midnightblue" stroke="midnightblue" points="1502.18,-195.45 1491.74,-197.25 1501.02,-202.35 1502.18,-195.45"/>
</g>
<!-- Node43 -->
<g id="node38" class="node">
<title>Node43</title>
<g id="a_node38"><a xlink:title=" ">
<polygon fill="white" stroke="#bfbfbf" points="1510,-179.5 1510,-198.5 1614,-198.5 1614,-179.5 1510,-179.5"/>
<text text-anchor="middle" x="1562" y="-186.5" font-family="Helvetica,sans-Serif" font-size="10.00">G4UIcommand.hh</text>
</a>
</g>
</g>
<!-- Node31&#45;&gt;Node43 -->
<g id="edge46" class="edge">
<title>Node31&#45;&gt;Node43</title>
<path fill="none" stroke="midnightblue" d="M1881.21,-238.01C1818.96,-228.65 1698.06,-210.47 1624.23,-199.36"/>
<polygon fill="midnightblue" stroke="midnightblue" points="1624.54,-195.87 1614.13,-197.84 1623.5,-202.79 1624.54,-195.87"/>
</g>
<!-- Node44 -->
<g id="node39" class="node">
<title>Node44</title>
<g id="a_node39"><a xlink:title=" ">
<polygon fill="white" stroke="#bfbfbf" points="1632.5,-179.5 1632.5,-198.5 1699.5,-198.5 1699.5,-179.5 1632.5,-179.5"/>
<text text-anchor="middle" x="1666" y="-186.5" font-family="Helvetica,sans-Serif" font-size="10.00">globals.hh</text>
</a>
</g>
</g>
<!-- Node31&#45;&gt;Node44 -->
<g id="edge47" class="edge">
<title>Node31&#45;&gt;Node44</title>
<path fill="none" stroke="midnightblue" d="M1881.44,-235.62C1834.81,-225.75 1757.6,-209.4 1709.38,-199.19"/>
<polygon fill="midnightblue" stroke="midnightblue" points="1710.06,-195.75 1699.55,-197.1 1708.61,-202.6 1710.06,-195.75"/>
</g>
<!-- Node45 -->
<g id="node40" class="node">
<title>Node45</title>
<g id="a_node40"><a xlink:title=" ">
<polygon fill="white" stroke="#bfbfbf" points="1718,-179.5 1718,-198.5 1774,-198.5 1774,-179.5 1718,-179.5"/>
<text text-anchor="middle" x="1746" y="-186.5" font-family="Helvetica,sans-Serif" font-size="10.00">sstream</text>
</a>
</g>
</g>
<!-- Node31&#45;&gt;Node45 -->
<g id="edge49" class="edge">
<title>Node31&#45;&gt;Node45</title>
<path fill="none" stroke="midnightblue" d="M1893.27,-235.44C1863.57,-226.28 1816.28,-211.69 1783.33,-201.52"/>
<polygon fill="midnightblue" stroke="midnightblue" points="1784.19,-198.12 1773.6,-198.52 1782.12,-204.81 1784.19,-198.12"/>
</g>
<!-- Node46 -->
<g id="node41" class="node">
<title>Node46</title>
<g id="a_node41"><a xlink:title=" ">
<polygon fill="white" stroke="#bfbfbf" points="1792.5,-179.5 1792.5,-198.5 1859.5,-198.5 1859.5,-179.5 1792.5,-179.5"/>
<text text-anchor="middle" x="1826" y="-186.5" font-family="Helvetica,sans-Serif" font-size="10.00">streambuf</text>
</a>
</g>
</g>
<!-- Node31&#45;&gt;Node46 -->
<g id="edge50" class="edge">
<title>Node31&#45;&gt;Node46</title>
<path fill="none" stroke="midnightblue" d="M1905.74,-235.32C1890.78,-226.82 1867.75,-213.73 1850.27,-203.8"/>
<polygon fill="midnightblue" stroke="midnightblue" points="1851.65,-200.55 1841.23,-198.65 1848.19,-206.64 1851.65,-200.55"/>
</g>
<!-- Node47 -->
<g id="node42" class="node">
<title>Node47</title>
<g id="a_node42"><a xlink:title=" ">
<polygon fill="white" stroke="#bfbfbf" points="1878,-179.5 1878,-198.5 1964,-198.5 1964,-179.5 1878,-179.5"/>
<text text-anchor="middle" x="1921" y="-186.5" font-family="Helvetica,sans-Serif" font-size="10.00">Randomize.hh</text>
</a>
</g>
</g>
<!-- Node31&#45;&gt;Node47 -->
<g id="edge51" class="edge">
<title>Node31&#45;&gt;Node47</title>
<path fill="none" stroke="midnightblue" d="M1921,-235.08C1921,-228.01 1921,-217.86 1921,-208.99"/>
<polygon fill="midnightblue" stroke="midnightblue" points="1924.5,-208.75 1921,-198.75 1917.5,-208.75 1924.5,-208.75"/>
</g>
<!-- Node48&#45;&gt;Node6 -->
<g id="edge53" class="edge">
<title>Node48&#45;&gt;Node6</title>
<path fill="none" stroke="midnightblue" d="M1141.79,-235.46C1183.55,-227.17 1222.29,-210.89 1205,-179 1180.06,-132.99 1124.08,-104.63 1086.67,-90.1"/>
<polygon fill="midnightblue" stroke="midnightblue" points="1087.71,-86.75 1077.12,-86.53 1085.26,-93.31 1087.71,-86.75"/>
</g>
<!-- Node48&#45;&gt;Node28 -->
<g id="edge54" class="edge">
<title>Node48&#45;&gt;Node28</title>
<path fill="none" stroke="midnightblue" d="M1028.15,-235.44C992.43,-225.85 934.56,-210.3 896.63,-200.11"/>
<polygon fill="midnightblue" stroke="midnightblue" points="897.07,-196.6 886.5,-197.39 895.25,-203.36 897.07,-196.6"/>
</g>
<!-- Node49 -->
<g id="node44" class="node">
<title>Node49</title>
<g id="a_node44"><a xlink:title=" ">
<polygon fill="white" stroke="#bfbfbf" points="1112,-179.5 1112,-198.5 1196,-198.5 1196,-179.5 1112,-179.5"/>
<text text-anchor="middle" x="1154" y="-186.5" font-family="Helvetica,sans-Serif" font-size="10.00">boost/any.hpp</text>
</a>
</g>
</g>
<!-- Node48&#45;&gt;Node49 -->
<g id="edge55" class="edge">
<title>Node48&#45;&gt;Node49</title>
<path fill="none" stroke="midnightblue" d="M1075.1,-235.32C1089.9,-226.82 1112.69,-213.73 1129.98,-203.8"/>
<polygon fill="midnightblue" stroke="midnightblue" points="1132.01,-206.67 1138.93,-198.65 1128.52,-200.6 1132.01,-206.67"/>
</g>
<!-- Node50 -->
<g id="node45" class="node">
<title>Node50</title>
<g id="a_node45"><a xlink:title=" ">
<polygon fill="white" stroke="#bfbfbf" points="1026,-179.5 1026,-198.5 1094,-198.5 1094,-179.5 1026,-179.5"/>
<text text-anchor="middle" x="1060" y="-186.5" font-family="Helvetica,sans-Serif" font-size="10.00">sys/time.h</text>
</a>
</g>
</g>
<!-- Node48&#45;&gt;Node50 -->
<g id="edge56" class="edge">
<title>Node48&#45;&gt;Node50</title>
<path fill="none" stroke="midnightblue" d="M1060,-235.08C1060,-228.01 1060,-217.86 1060,-208.99"/>
<polygon fill="midnightblue" stroke="midnightblue" points="1063.5,-208.75 1060,-198.75 1056.5,-208.75 1063.5,-208.75"/>
</g>
</g>
</svg>
