<?xml version="1.0" encoding="UTF-8" standalone="no"?>
<!DOCTYPE svg PUBLIC "-//W3C//DTD SVG 1.1//EN"
 "http://www.w3.org/Graphics/SVG/1.1/DTD/svg11.dtd">
<!-- Generated by graphviz version 2.43.0 (0)
 -->
<!-- Title: OMSimOpticalModule.hh Pages: 1 -->
<svg width="1028pt" height="330pt"
 viewBox="0.00 0.00 1027.50 330.00" xmlns="http://www.w3.org/2000/svg" xmlns:xlink="http://www.w3.org/1999/xlink">
<g id="graph0" class="graph" transform="scale(1 1) rotate(0) translate(4 326)">
<title>OMSimOpticalModule.hh</title>
<polygon fill="white" stroke="transparent" points="-4,4 -4,-326 1023.5,-326 1023.5,4 -4,4"/>
<!-- Node1 -->
<g id="node1" class="node">
<title>Node1</title>
<g id="a_node1"><a xlink:title=" ">
<polygon fill="#bfbfbf" stroke="black" points="448,-302.5 448,-321.5 585,-321.5 585,-302.5 448,-302.5"/>
<text text-anchor="middle" x="516.5" y="-309.5" font-family="Helvetica,sans-Serif" font-size="10.00">OMSimOpticalModule.hh</text>
</a>
</g>
</g>
<!-- Node2 -->
<g id="node2" class="node">
<title>Node2</title>
<g id="a_node2"><a xlink:href="abc_detector_component_8hh.html" target="_top" xlink:title="Provides helper base class abcDetectorComponent for constructing and managing detector components in ...">
<polygon fill="white" stroke="black" points="494,-190.5 494,-209.5 641,-209.5 641,-190.5 494,-190.5"/>
<text text-anchor="middle" x="567.5" y="-197.5" font-family="Helvetica,sans-Serif" font-size="10.00">abcDetectorComponent.hh</text>
</a>
</g>
</g>
<!-- Node1&#45;&gt;Node2 -->
<g id="edge1" class="edge">
<title>Node1&#45;&gt;Node2</title>
<path fill="none" stroke="midnightblue" d="M518.09,-302.25C520.63,-289.44 526.27,-265.04 535.5,-246 540.35,-235.99 547.38,-225.81 553.61,-217.67"/>
<polygon fill="midnightblue" stroke="midnightblue" points="556.43,-219.75 559.93,-209.74 550.96,-215.38 556.43,-219.75"/>
</g>
<!-- Node16 -->
<g id="node16" class="node">
<title>Node16</title>
<g id="a_node16"><a xlink:href="_o_m_sim_hit_manager_8hh.html" target="_top" xlink:title="Defines structures and classes related to optical module photon hit management.">
<polygon fill="white" stroke="black" points="144,-246.5 144,-265.5 267,-265.5 267,-246.5 144,-246.5"/>
<text text-anchor="middle" x="205.5" y="-253.5" font-family="Helvetica,sans-Serif" font-size="10.00">OMSimHitManager.hh</text>
</a>
</g>
</g>
<!-- Node1&#45;&gt;Node16 -->
<g id="edge15" class="edge">
<title>Node1&#45;&gt;Node16</title>
<path fill="none" stroke="midnightblue" d="M467.22,-302.44C412.17,-292.89 323.1,-277.42 264.42,-267.23"/>
<polygon fill="midnightblue" stroke="midnightblue" points="265,-263.78 254.55,-265.52 263.8,-270.68 265,-263.78"/>
</g>
<!-- Node24 -->
<g id="node24" class="node">
<title>Node24</title>
<g id="a_node24"><a xlink:href="_o_m_sim_p_m_t_construction_8hh.html" target="_top" xlink:title="Construction of the PMTs.">
<polygon fill="white" stroke="black" points="544,-246.5 544,-265.5 693,-265.5 693,-246.5 544,-246.5"/>
<text text-anchor="middle" x="618.5" y="-253.5" font-family="Helvetica,sans-Serif" font-size="10.00">OMSimPMTConstruction.hh</text>
</a>
</g>
</g>
<!-- Node1&#45;&gt;Node24 -->
<g id="edge24" class="edge">
<title>Node1&#45;&gt;Node24</title>
<path fill="none" stroke="midnightblue" d="M532.89,-302.32C549.17,-293.7 574.37,-280.36 593.22,-270.39"/>
<polygon fill="midnightblue" stroke="midnightblue" points="594.95,-273.43 602.15,-265.65 591.68,-267.24 594.95,-273.43"/>
</g>
<!-- Node3 -->
<g id="node3" class="node">
<title>Node3</title>
<g id="a_node3"><a xlink:href="_o_m_sim_input_data_8hh.html" target="_top" xlink:title="Definition of ParameterTable and InputDataManager.">
<polygon fill="white" stroke="black" points="381,-134.5 381,-153.5 496,-153.5 496,-134.5 381,-134.5"/>
<text text-anchor="middle" x="438.5" y="-141.5" font-family="Helvetica,sans-Serif" font-size="10.00">OMSimInputData.hh</text>
</a>
</g>
</g>
<!-- Node2&#45;&gt;Node3 -->
<g id="edge2" class="edge">
<title>Node2&#45;&gt;Node3</title>
<path fill="none" stroke="midnightblue" d="M547.06,-190.44C525.83,-181.56 492.4,-167.56 468.25,-157.45"/>
<polygon fill="midnightblue" stroke="midnightblue" points="469.42,-154.15 458.84,-153.52 466.72,-160.61 469.42,-154.15"/>
</g>
<!-- Node12 -->
<g id="node12" class="node">
<title>Node12</title>
<g id="a_node12"><a xlink:title=" ">
<polygon fill="white" stroke="#bfbfbf" points="514,-134.5 514,-153.5 621,-153.5 621,-134.5 514,-134.5"/>
<text text-anchor="middle" x="567.5" y="-141.5" font-family="Helvetica,sans-Serif" font-size="10.00">G4Transform3D.hh</text>
</a>
</g>
</g>
<!-- Node2&#45;&gt;Node12 -->
<g id="edge11" class="edge">
<title>Node2&#45;&gt;Node12</title>
<path fill="none" stroke="midnightblue" d="M567.5,-190.08C567.5,-183.01 567.5,-172.86 567.5,-163.99"/>
<polygon fill="midnightblue" stroke="midnightblue" points="571,-163.75 567.5,-153.75 564,-163.75 571,-163.75"/>
</g>
<!-- Node13 -->
<g id="node13" class="node">
<title>Node13</title>
<g id="a_node13"><a xlink:title=" ">
<polygon fill="white" stroke="#bfbfbf" points="639.5,-134.5 639.5,-153.5 747.5,-153.5 747.5,-134.5 639.5,-134.5"/>
<text text-anchor="middle" x="693.5" y="-141.5" font-family="Helvetica,sans-Serif" font-size="10.00">G4VisAttributes.hh</text>
</a>
</g>
</g>
<!-- Node2&#45;&gt;Node13 -->
<g id="edge12" class="edge">
<title>Node2&#45;&gt;Node13</title>
<path fill="none" stroke="midnightblue" d="M587.47,-190.44C608.11,-181.6 640.56,-167.69 664.13,-157.59"/>
<polygon fill="midnightblue" stroke="midnightblue" points="665.82,-160.67 673.63,-153.52 663.06,-154.24 665.82,-160.67"/>
</g>
<!-- Node14 -->
<g id="node14" class="node">
<title>Node14</title>
<g id="a_node14"><a xlink:title=" ">
<polygon fill="white" stroke="#bfbfbf" points="766,-134.5 766,-153.5 891,-153.5 891,-134.5 766,-134.5"/>
<text text-anchor="middle" x="828.5" y="-141.5" font-family="Helvetica,sans-Serif" font-size="10.00">G4SubtractionSolid.hh</text>
</a>
</g>
</g>
<!-- Node2&#45;&gt;Node14 -->
<g id="edge13" class="edge">
<title>Node2&#45;&gt;Node14</title>
<path fill="none" stroke="midnightblue" d="M608.86,-190.44C654.58,-180.98 728.26,-165.74 777.52,-155.55"/>
<polygon fill="midnightblue" stroke="midnightblue" points="778.25,-158.97 787.34,-153.52 776.84,-152.12 778.25,-158.97"/>
</g>
<!-- Node15 -->
<g id="node15" class="node">
<title>Node15</title>
<g id="a_node15"><a xlink:title=" ">
<polygon fill="white" stroke="#bfbfbf" points="909.5,-134.5 909.5,-153.5 1019.5,-153.5 1019.5,-134.5 909.5,-134.5"/>
<text text-anchor="middle" x="964.5" y="-141.5" font-family="Helvetica,sans-Serif" font-size="10.00">G4PVPlacement.hh</text>
</a>
</g>
</g>
<!-- Node2&#45;&gt;Node15 -->
<g id="edge14" class="edge">
<title>Node2&#45;&gt;Node15</title>
<path fill="none" stroke="midnightblue" d="M631.35,-190.48C696.24,-181.79 799.93,-167.84 899.42,-154.14"/>
<polygon fill="midnightblue" stroke="midnightblue" points="899.92,-157.61 909.34,-152.78 898.96,-150.67 899.92,-157.61"/>
</g>
<!-- Node4 -->
<g id="node4" class="node">
<title>Node4</title>
<g id="a_node4"><a xlink:href="_o_m_sim_logger_8hh.html" target="_top" xlink:title=" ">
<polygon fill="white" stroke="black" points="513,-73 513,-92 612,-92 612,-73 513,-73"/>
<text text-anchor="middle" x="562.5" y="-80" font-family="Helvetica,sans-Serif" font-size="10.00">OMSimLogger.hh</text>
</a>
</g>
</g>
<!-- Node3&#45;&gt;Node4 -->
<g id="edge3" class="edge">
<title>Node3&#45;&gt;Node4</title>
<path fill="none" stroke="midnightblue" d="M456.27,-134.48C476.98,-124.53 511.45,-107.99 535.49,-96.46"/>
<polygon fill="midnightblue" stroke="midnightblue" points="537.27,-99.49 544.77,-92.01 534.24,-93.18 537.27,-99.49"/>
</g>
<!-- Node9 -->
<g id="node9" class="node">
<title>Node9</title>
<g id="a_node9"><a xlink:title=" ">
<polygon fill="white" stroke="#bfbfbf" points="221,-73 221,-92 364,-92 364,-73 221,-73"/>
<text text-anchor="middle" x="292.5" y="-80" font-family="Helvetica,sans-Serif" font-size="10.00">G4OpBoundaryProcess.hh</text>
</a>
</g>
</g>
<!-- Node3&#45;&gt;Node9 -->
<g id="edge8" class="edge">
<title>Node3&#45;&gt;Node9</title>
<path fill="none" stroke="midnightblue" d="M417.58,-134.48C392.75,-124.36 351.16,-107.4 322.81,-95.85"/>
<polygon fill="midnightblue" stroke="midnightblue" points="323.96,-92.54 313.38,-92.01 321.32,-99.02 323.96,-92.54"/>
</g>
<!-- Node10 -->
<g id="node10" class="node">
<title>Node10</title>
<g id="a_node10"><a xlink:title=" ">
<polygon fill="white" stroke="#bfbfbf" points="40,-73 40,-92 159,-92 159,-73 40,-73"/>
<text text-anchor="middle" x="99.5" y="-80" font-family="Helvetica,sans-Serif" font-size="10.00">G4SystemOfUnits.hh</text>
</a>
</g>
</g>
<!-- Node3&#45;&gt;Node10 -->
<g id="edge9" class="edge">
<title>Node3&#45;&gt;Node10</title>
<path fill="none" stroke="midnightblue" d="M389.93,-134.48C328.76,-123.74 223.74,-105.31 158.16,-93.79"/>
<polygon fill="midnightblue" stroke="midnightblue" points="158.43,-90.29 147.98,-92.01 157.22,-97.19 158.43,-90.29"/>
</g>
<!-- Node11 -->
<g id="node11" class="node">
<title>Node11</title>
<g id="a_node11"><a xlink:title=" ">
<polygon fill="white" stroke="#bfbfbf" points="382,-67.5 382,-97.5 495,-97.5 495,-67.5 382,-67.5"/>
<text text-anchor="start" x="390" y="-85.5" font-family="Helvetica,sans-Serif" font-size="10.00">boost/property_tree</text>
<text text-anchor="middle" x="438.5" y="-74.5" font-family="Helvetica,sans-Serif" font-size="10.00">/json_parser.hpp</text>
</a>
</g>
</g>
<!-- Node3&#45;&gt;Node11 -->
<g id="edge10" class="edge">
<title>Node3&#45;&gt;Node11</title>
<path fill="none" stroke="midnightblue" d="M438.5,-134.48C438.5,-127.47 438.5,-117.19 438.5,-107.7"/>
<polygon fill="midnightblue" stroke="midnightblue" points="442,-107.52 438.5,-97.52 435,-107.52 442,-107.52"/>
</g>
<!-- Node5 -->
<g id="node5" class="node">
<title>Node5</title>
<g id="a_node5"><a xlink:title=" ">
<polygon fill="white" stroke="#bfbfbf" points="344,-6 344,-25 437,-25 437,-6 344,-6"/>
<text text-anchor="middle" x="390.5" y="-13" font-family="Helvetica,sans-Serif" font-size="10.00">spdlog/spdlog.h</text>
</a>
</g>
</g>
<!-- Node4&#45;&gt;Node5 -->
<g id="edge4" class="edge">
<title>Node4&#45;&gt;Node5</title>
<path fill="none" stroke="midnightblue" d="M539.66,-72.87C509.63,-61.52 456.72,-41.52 422.66,-28.65"/>
<polygon fill="midnightblue" stroke="midnightblue" points="423.75,-25.32 413.16,-25.06 421.28,-31.87 423.75,-25.32"/>
</g>
<!-- Node6 -->
<g id="node6" class="node">
<title>Node6</title>
<g id="a_node6"><a xlink:title=" ">
<polygon fill="white" stroke="#bfbfbf" points="455,-0.5 455,-30.5 566,-30.5 566,-0.5 455,-0.5"/>
<text text-anchor="start" x="463" y="-18.5" font-family="Helvetica,sans-Serif" font-size="10.00">spdlog/sinks/stdout</text>
<text text-anchor="middle" x="510.5" y="-7.5" font-family="Helvetica,sans-Serif" font-size="10.00">_color_sinks.h</text>
</a>
</g>
</g>
<!-- Node4&#45;&gt;Node6 -->
<g id="edge5" class="edge">
<title>Node4&#45;&gt;Node6</title>
<path fill="none" stroke="midnightblue" d="M555.49,-72.73C548.53,-64.03 537.58,-50.34 528.22,-38.65"/>
<polygon fill="midnightblue" stroke="midnightblue" points="530.75,-36.21 521.77,-30.59 525.29,-40.58 530.75,-36.21"/>
</g>
<!-- Node7 -->
<g id="node7" class="node">
<title>Node7</title>
<g id="a_node7"><a xlink:title=" ">
<polygon fill="white" stroke="#bfbfbf" points="584.5,-6 584.5,-25 642.5,-25 642.5,-6 584.5,-6"/>
<text text-anchor="middle" x="613.5" y="-13" font-family="Helvetica,sans-Serif" font-size="10.00">memory</text>
</a>
</g>
</g>
<!-- Node4&#45;&gt;Node7 -->
<g id="edge6" class="edge">
<title>Node4&#45;&gt;Node7</title>
<path fill="none" stroke="midnightblue" d="M569.38,-72.73C577.33,-62.6 590.6,-45.69 600.51,-33.06"/>
<polygon fill="midnightblue" stroke="midnightblue" points="603.31,-35.16 606.73,-25.13 597.8,-30.83 603.31,-35.16"/>
</g>
<!-- Node8 -->
<g id="node8" class="node">
<title>Node8</title>
<g id="a_node8"><a xlink:title=" ">
<polygon fill="white" stroke="#bfbfbf" points="660.5,-6 660.5,-25 758.5,-25 758.5,-6 660.5,-6"/>
<text text-anchor="middle" x="709.5" y="-13" font-family="Helvetica,sans-Serif" font-size="10.00">spdlog/fmt/fmt.h</text>
</a>
</g>
</g>
<!-- Node4&#45;&gt;Node8 -->
<g id="edge7" class="edge">
<title>Node4&#45;&gt;Node8</title>
<path fill="none" stroke="midnightblue" d="M582.02,-72.87C607.28,-61.7 651.5,-42.15 680.64,-29.26"/>
<polygon fill="midnightblue" stroke="midnightblue" points="682.17,-32.41 689.9,-25.17 679.34,-26.01 682.17,-32.41"/>
</g>
<!-- Node17 -->
<g id="node17" class="node">
<title>Node17</title>
<g id="a_node17"><a xlink:href="_o_m_sim_p_m_t_response_8hh.html" target="_top" xlink:title="Provides simulation for PMT response. This class is responsible for transforming hits on photocathode...">
<polygon fill="white" stroke="black" points="194,-190.5 194,-209.5 329,-209.5 329,-190.5 194,-190.5"/>
<text text-anchor="middle" x="261.5" y="-197.5" font-family="Helvetica,sans-Serif" font-size="10.00">OMSimPMTResponse.hh</text>
</a>
</g>
</g>
<!-- Node16&#45;&gt;Node17 -->
<g id="edge16" class="edge">
<title>Node16&#45;&gt;Node17</title>
<path fill="none" stroke="midnightblue" d="M214.5,-246.32C222.69,-238.42 235.01,-226.55 244.97,-216.94"/>
<polygon fill="midnightblue" stroke="midnightblue" points="247.57,-219.29 252.34,-209.83 242.71,-214.26 247.57,-219.29"/>
</g>
<!-- Node22 -->
<g id="node22" class="node">
<title>Node22</title>
<g id="a_node22"><a xlink:title=" ">
<polygon fill="white" stroke="#bfbfbf" points="0,-190.5 0,-209.5 103,-209.5 103,-190.5 0,-190.5"/>
<text text-anchor="middle" x="51.5" y="-197.5" font-family="Helvetica,sans-Serif" font-size="10.00">G4ThreeVector.hh</text>
</a>
</g>
</g>
<!-- Node16&#45;&gt;Node22 -->
<g id="edge22" class="edge">
<title>Node16&#45;&gt;Node22</title>
<path fill="none" stroke="midnightblue" d="M181.1,-246.44C155.3,-237.4 114.42,-223.06 85.48,-212.92"/>
<polygon fill="midnightblue" stroke="midnightblue" points="86.38,-209.52 75.79,-209.52 84.07,-216.13 86.38,-209.52"/>
</g>
<!-- Node23 -->
<g id="node23" class="node">
<title>Node23</title>
<g id="a_node23"><a xlink:title=" ">
<polygon fill="white" stroke="#bfbfbf" points="121,-190.5 121,-209.5 176,-209.5 176,-190.5 121,-190.5"/>
<text text-anchor="middle" x="148.5" y="-197.5" font-family="Helvetica,sans-Serif" font-size="10.00">fstream</text>
</a>
</g>
</g>
<!-- Node16&#45;&gt;Node23 -->
<g id="edge23" class="edge">
<title>Node16&#45;&gt;Node23</title>
<path fill="none" stroke="midnightblue" d="M196.34,-246.32C188,-238.42 175.47,-226.55 165.32,-216.94"/>
<polygon fill="midnightblue" stroke="midnightblue" points="167.49,-214.17 157.82,-209.83 162.68,-219.25 167.49,-214.17"/>
</g>
<!-- Node17&#45;&gt;Node10 -->
<g id="edge17" class="edge">
<title>Node17&#45;&gt;Node10</title>
<path fill="none" stroke="midnightblue" d="M212.28,-190.45C159.54,-180.8 82.18,-165 73.5,-154 60.94,-138.08 73.23,-115.49 84.81,-100.21"/>
<polygon fill="midnightblue" stroke="midnightblue" points="87.76,-102.12 91.36,-92.16 82.33,-97.71 87.76,-102.12"/>
</g>
<!-- Node18 -->
<g id="node18" class="node">
<title>Node18</title>
<g id="a_node18"><a xlink:title=" ">
<polygon fill="white" stroke="#bfbfbf" points="83,-134.5 83,-153.5 156,-153.5 156,-134.5 83,-134.5"/>
<text text-anchor="middle" x="119.5" y="-141.5" font-family="Helvetica,sans-Serif" font-size="10.00">G4Types.hh</text>
</a>
</g>
</g>
<!-- Node17&#45;&gt;Node18 -->
<g id="edge18" class="edge">
<title>Node17&#45;&gt;Node18</title>
<path fill="none" stroke="midnightblue" d="M239,-190.44C215.42,-181.48 178.18,-167.31 151.54,-157.18"/>
<polygon fill="midnightblue" stroke="midnightblue" points="152.49,-153.8 141.9,-153.52 150,-160.34 152.49,-153.8"/>
</g>
<!-- Node19 -->
<g id="node19" class="node">
<title>Node19</title>
<g id="a_node19"><a xlink:title=" ">
<polygon fill="white" stroke="#bfbfbf" points="174.5,-134.5 174.5,-153.5 212.5,-153.5 212.5,-134.5 174.5,-134.5"/>
<text text-anchor="middle" x="193.5" y="-141.5" font-family="Helvetica,sans-Serif" font-size="10.00">map</text>
</a>
</g>
</g>
<!-- Node17&#45;&gt;Node19 -->
<g id="edge19" class="edge">
<title>Node17&#45;&gt;Node19</title>
<path fill="none" stroke="midnightblue" d="M250.57,-190.32C240.33,-182.18 224.78,-169.84 212.5,-160.09"/>
<polygon fill="midnightblue" stroke="midnightblue" points="214.63,-157.31 204.62,-153.83 210.28,-162.79 214.63,-157.31"/>
</g>
<!-- Node20 -->
<g id="node20" class="node">
<title>Node20</title>
<g id="a_node20"><a xlink:title=" ">
<polygon fill="white" stroke="#bfbfbf" points="231,-134.5 231,-153.5 292,-153.5 292,-134.5 231,-134.5"/>
<text text-anchor="middle" x="261.5" y="-141.5" font-family="Helvetica,sans-Serif" font-size="10.00">TGraph.h</text>
</a>
</g>
</g>
<!-- Node17&#45;&gt;Node20 -->
<g id="edge20" class="edge">
<title>Node17&#45;&gt;Node20</title>
<path fill="none" stroke="midnightblue" d="M261.5,-190.08C261.5,-183.01 261.5,-172.86 261.5,-163.99"/>
<polygon fill="midnightblue" stroke="midnightblue" points="265,-163.75 261.5,-153.75 258,-163.75 265,-163.75"/>
</g>
<!-- Node21 -->
<g id="node21" class="node">
<title>Node21</title>
<g id="a_node21"><a xlink:title=" ">
<polygon fill="white" stroke="#bfbfbf" points="310,-134.5 310,-153.5 363,-153.5 363,-134.5 310,-134.5"/>
<text text-anchor="middle" x="336.5" y="-141.5" font-family="Helvetica,sans-Serif" font-size="10.00">TH2D.h</text>
</a>
</g>
</g>
<!-- Node17&#45;&gt;Node21 -->
<g id="edge21" class="edge">
<title>Node17&#45;&gt;Node21</title>
<path fill="none" stroke="midnightblue" d="M273.55,-190.32C284.96,-182.11 302.33,-169.6 315.93,-159.81"/>
<polygon fill="midnightblue" stroke="midnightblue" points="318.16,-162.52 324.23,-153.83 314.07,-156.84 318.16,-162.52"/>
</g>
<!-- Node24&#45;&gt;Node2 -->
<g id="edge25" class="edge">
<title>Node24&#45;&gt;Node2</title>
<path fill="none" stroke="midnightblue" d="M610.08,-246.08C602.65,-238.22 591.65,-226.57 582.69,-217.08"/>
<polygon fill="midnightblue" stroke="midnightblue" points="585.18,-214.62 575.76,-209.75 580.09,-219.42 585.18,-214.62"/>
</g>
<!-- Node24&#45;&gt;Node17 -->
<g id="edge27" class="edge">
<title>Node24&#45;&gt;Node17</title>
<path fill="none" stroke="midnightblue" d="M561.93,-246.44C498.35,-236.83 395.23,-221.23 327.88,-211.04"/>
<polygon fill="midnightblue" stroke="midnightblue" points="328.21,-207.55 317.8,-209.52 327.17,-214.47 328.21,-207.55"/>
</g>
<!-- Node24&#45;&gt;Node24 -->
<g id="edge26" class="edge">
<title>Node24&#45;&gt;Node24</title>
<path fill="none" stroke="midnightblue" d="M657.95,-265.53C684.76,-268.31 711,-265.13 711,-256 711,-248.01 690.91,-244.58 667.93,-245.71"/>
<polygon fill="midnightblue" stroke="midnightblue" points="667.65,-242.22 657.95,-246.47 668.19,-249.2 667.65,-242.22"/>
</g>
<!-- Node25 -->
<g id="node25" class="node">
<title>Node25</title>
<g id="a_node25"><a xlink:title=" ">
<polygon fill="white" stroke="#bfbfbf" points="659.5,-190.5 659.5,-209.5 757.5,-209.5 757.5,-190.5 659.5,-190.5"/>
<text text-anchor="middle" x="708.5" y="-197.5" font-family="Helvetica,sans-Serif" font-size="10.00">G4UnionSolid.hh</text>
</a>
</g>
</g>
<!-- Node24&#45;&gt;Node25 -->
<g id="edge28" class="edge">
<title>Node24&#45;&gt;Node25</title>
<path fill="none" stroke="midnightblue" d="M632.96,-246.32C647,-237.9 668.55,-224.97 685.04,-215.07"/>
<polygon fill="midnightblue" stroke="midnightblue" points="687.3,-217.8 694.08,-209.65 683.7,-211.8 687.3,-217.8"/>
</g>
<!-- Node26 -->
<g id="node26" class="node">
<title>Node26</title>
<g id="a_node26"><a xlink:title=" ">
<polygon fill="white" stroke="#bfbfbf" points="776,-190.5 776,-209.5 843,-209.5 843,-190.5 776,-190.5"/>
<text text-anchor="middle" x="809.5" y="-197.5" font-family="Helvetica,sans-Serif" font-size="10.00">G4Tubs.hh</text>
</a>
</g>
</g>
<!-- Node24&#45;&gt;Node26 -->
<g id="edge29" class="edge">
<title>Node24&#45;&gt;Node26</title>
<path fill="none" stroke="midnightblue" d="M648.76,-246.44C681.46,-237.2 733.68,-222.44 769.68,-212.26"/>
<polygon fill="midnightblue" stroke="midnightblue" points="770.71,-215.61 779.38,-209.52 768.8,-208.87 770.71,-215.61"/>
</g>
</g>
</svg>
