<?xml version="1.0" encoding="UTF-8" standalone="no"?>
<!DOCTYPE svg PUBLIC "-//W3C//DTD SVG 1.1//EN"
 "http://www.w3.org/Graphics/SVG/1.1/DTD/svg11.dtd">
<!-- Generated by graphviz version 2.43.0 (0)
 -->
<!-- Title: OMSimMDOMHarness.cc Pages: 1 -->
<svg width="1525pt" height="442pt"
 viewBox="0.00 0.00 1525.00 442.00" xmlns="http://www.w3.org/2000/svg" xmlns:xlink="http://www.w3.org/1999/xlink">
<g id="graph0" class="graph" transform="scale(1 1) rotate(0) translate(4 438)">
<title>OMSimMDOMHarness.cc</title>
<polygon fill="white" stroke="transparent" points="-4,4 -4,-438 1521,-438 1521,4 -4,4"/>
<!-- Node1 -->
<g id="node1" class="node">
<title>Node1</title>
<g id="a_node1"><a xlink:title=" ">
<polygon fill="#bfbfbf" stroke="black" points="1000.5,-414.5 1000.5,-433.5 1138.5,-433.5 1138.5,-414.5 1000.5,-414.5"/>
<text text-anchor="middle" x="1069.5" y="-421.5" font-family="Helvetica,sans-Serif" font-size="10.00">OMSimMDOMHarness.cc</text>
</a>
</g>
</g>
<!-- Node2 -->
<g id="node2" class="node">
<title>Node2</title>
<g id="a_node2"><a xlink:href="_o_m_sim_m_d_o_m_harness_8hh.html" target="_top" xlink:title="Construction of mDOM harness.">
<polygon fill="white" stroke="black" points="527.5,-358.5 527.5,-377.5 667.5,-377.5 667.5,-358.5 527.5,-358.5"/>
<text text-anchor="middle" x="597.5" y="-365.5" font-family="Helvetica,sans-Serif" font-size="10.00">OMSimMDOMHarness.hh</text>
</a>
</g>
</g>
<!-- Node1&#45;&gt;Node2 -->
<g id="edge1" class="edge">
<title>Node1&#45;&gt;Node2</title>
<path fill="none" stroke="midnightblue" d="M1000.36,-415.09C914.47,-405.26 768.21,-388.53 677.55,-378.16"/>
<polygon fill="midnightblue" stroke="midnightblue" points="677.93,-374.68 667.59,-377.02 677.13,-381.63 677.93,-374.68"/>
</g>
<!-- Node19 -->
<g id="node19" class="node">
<title>Node19</title>
<g id="a_node19"><a xlink:href="_o_m_sim_m_d_o_m_8hh.html" target="_top" xlink:title="Construction of mDOM.">
<polygon fill="white" stroke="black" points="724.5,-358.5 724.5,-377.5 824.5,-377.5 824.5,-358.5 724.5,-358.5"/>
<text text-anchor="middle" x="774.5" y="-365.5" font-family="Helvetica,sans-Serif" font-size="10.00">OMSimMDOM.hh</text>
</a>
</g>
</g>
<!-- Node1&#45;&gt;Node19 -->
<g id="edge18" class="edge">
<title>Node1&#45;&gt;Node19</title>
<path fill="none" stroke="midnightblue" d="M1022.76,-414.44C970.75,-404.92 886.75,-389.55 831.08,-379.36"/>
<polygon fill="midnightblue" stroke="midnightblue" points="831.49,-375.87 821.02,-377.52 830.23,-382.76 831.49,-375.87"/>
</g>
<!-- Node37 -->
<g id="node37" class="node">
<title>Node37</title>
<g id="a_node37"><a xlink:href="_o_m_sim_command_args_table_8hh.html" target="_top" xlink:title="Definition of the OMSimCommandArgsTable singleton class, which controls user args.">
<polygon fill="white" stroke="black" points="1119.5,-246.5 1119.5,-265.5 1283.5,-265.5 1283.5,-246.5 1119.5,-246.5"/>
<text text-anchor="middle" x="1201.5" y="-253.5" font-family="Helvetica,sans-Serif" font-size="10.00">OMSimCommandArgsTable.hh</text>
</a>
</g>
</g>
<!-- Node1&#45;&gt;Node37 -->
<g id="edge47" class="edge">
<title>Node1&#45;&gt;Node37</title>
<path fill="none" stroke="midnightblue" d="M1016.99,-414.48C976.02,-405.38 929.19,-388.03 949.5,-358 985.69,-304.51 1055.33,-279.34 1112.25,-267.51"/>
<polygon fill="midnightblue" stroke="midnightblue" points="1113.22,-270.88 1122.36,-265.52 1111.87,-264.02 1113.22,-270.88"/>
</g>
<!-- Node40 -->
<g id="node40" class="node">
<title>Node40</title>
<g id="a_node40"><a xlink:title=" ">
<polygon fill="white" stroke="#bfbfbf" points="958.5,-358.5 958.5,-377.5 1068.5,-377.5 1068.5,-358.5 958.5,-358.5"/>
<text text-anchor="middle" x="1013.5" y="-365.5" font-family="Helvetica,sans-Serif" font-size="10.00">G4EllipticalTube.hh</text>
</a>
</g>
</g>
<!-- Node1&#45;&gt;Node40 -->
<g id="edge52" class="edge">
<title>Node1&#45;&gt;Node40</title>
<path fill="none" stroke="midnightblue" d="M1060.5,-414.32C1052.31,-406.42 1039.99,-394.55 1030.03,-384.94"/>
<polygon fill="midnightblue" stroke="midnightblue" points="1032.29,-382.26 1022.66,-377.83 1027.43,-387.29 1032.29,-382.26"/>
</g>
<!-- Node41 -->
<g id="node41" class="node">
<title>Node41</title>
<g id="a_node41"><a xlink:title=" ">
<polygon fill="white" stroke="#bfbfbf" points="1087,-358.5 1087,-377.5 1166,-377.5 1166,-358.5 1087,-358.5"/>
<text text-anchor="middle" x="1126.5" y="-365.5" font-family="Helvetica,sans-Serif" font-size="10.00">G4Sphere.hh</text>
</a>
</g>
</g>
<!-- Node1&#45;&gt;Node41 -->
<g id="edge53" class="edge">
<title>Node1&#45;&gt;Node41</title>
<path fill="none" stroke="midnightblue" d="M1078.66,-414.32C1087,-406.42 1099.53,-394.55 1109.68,-384.94"/>
<polygon fill="midnightblue" stroke="midnightblue" points="1112.32,-387.25 1117.18,-377.83 1107.51,-382.17 1112.32,-387.25"/>
</g>
<!-- Node42 -->
<g id="node42" class="node">
<title>Node42</title>
<g id="a_node42"><a xlink:title=" ">
<polygon fill="white" stroke="#bfbfbf" points="1184,-358.5 1184,-377.5 1321,-377.5 1321,-358.5 1184,-358.5"/>
<text text-anchor="middle" x="1252.5" y="-365.5" font-family="Helvetica,sans-Serif" font-size="10.00">G4LogicalSkinSurface.hh</text>
</a>
</g>
</g>
<!-- Node1&#45;&gt;Node42 -->
<g id="edge54" class="edge">
<title>Node1&#45;&gt;Node42</title>
<path fill="none" stroke="midnightblue" d="M1098.5,-414.44C1129.68,-405.24 1179.43,-390.56 1213.91,-380.39"/>
<polygon fill="midnightblue" stroke="midnightblue" points="1215.04,-383.7 1223.64,-377.52 1213.06,-376.99 1215.04,-383.7"/>
</g>
<!-- Node43 -->
<g id="node43" class="node">
<title>Node43</title>
<g id="a_node43"><a xlink:title=" ">
<polygon fill="white" stroke="#bfbfbf" points="1339,-358.5 1339,-377.5 1428,-377.5 1428,-358.5 1339,-358.5"/>
<text text-anchor="middle" x="1383.5" y="-365.5" font-family="Helvetica,sans-Serif" font-size="10.00">G4Polycone.hh</text>
</a>
</g>
</g>
<!-- Node1&#45;&gt;Node43 -->
<g id="edge55" class="edge">
<title>Node1&#45;&gt;Node43</title>
<path fill="none" stroke="midnightblue" d="M1119.25,-414.44C1176.31,-404.63 1269.55,-388.6 1328.66,-378.43"/>
<polygon fill="midnightblue" stroke="midnightblue" points="1329.3,-381.87 1338.56,-376.73 1328.11,-374.97 1329.3,-381.87"/>
</g>
<!-- Node44 -->
<g id="node44" class="node">
<title>Node44</title>
<g id="a_node44"><a xlink:title=" ">
<polygon fill="white" stroke="#bfbfbf" points="1446,-358.5 1446,-377.5 1517,-377.5 1517,-358.5 1446,-358.5"/>
<text text-anchor="middle" x="1481.5" y="-365.5" font-family="Helvetica,sans-Serif" font-size="10.00">G4Torus.hh</text>
</a>
</g>
</g>
<!-- Node1&#45;&gt;Node44 -->
<g id="edge56" class="edge">
<title>Node1&#45;&gt;Node44</title>
<path fill="none" stroke="midnightblue" d="M1138.58,-416.22C1210.46,-408.79 1326.51,-395.74 1435.35,-378.25"/>
<polygon fill="midnightblue" stroke="midnightblue" points="1436.21,-381.66 1445.52,-376.6 1435.09,-374.75 1436.21,-381.66"/>
</g>
<!-- Node3 -->
<g id="node3" class="node">
<title>Node3</title>
<g id="a_node3"><a xlink:href="abc_detector_component_8hh.html" target="_top" xlink:title="Provides helper base class abcDetectorComponent for constructing and managing detector components in ...">
<polygon fill="white" stroke="black" points="354,-190.5 354,-209.5 501,-209.5 501,-190.5 354,-190.5"/>
<text text-anchor="middle" x="427.5" y="-197.5" font-family="Helvetica,sans-Serif" font-size="10.00">abcDetectorComponent.hh</text>
</a>
</g>
</g>
<!-- Node2&#45;&gt;Node3 -->
<g id="edge2" class="edge">
<title>Node2&#45;&gt;Node3</title>
<path fill="none" stroke="midnightblue" d="M527.45,-362.27C498.37,-356.66 466.76,-345.17 446.5,-322 421.51,-293.41 422.14,-245.83 424.8,-219.66"/>
<polygon fill="midnightblue" stroke="midnightblue" points="428.3,-219.94 426.05,-209.59 421.35,-219.08 428.3,-219.94"/>
</g>
<!-- Node17 -->
<g id="node17" class="node">
<title>Node17</title>
<g id="a_node17"><a xlink:title=" ">
<polygon fill="white" stroke="#bfbfbf" points="456,-302.5 456,-321.5 583,-321.5 583,-302.5 456,-302.5"/>
<text text-anchor="middle" x="519.5" y="-309.5" font-family="Helvetica,sans-Serif" font-size="10.00">G4IntersectionSolid.hh</text>
</a>
</g>
</g>
<!-- Node2&#45;&gt;Node17 -->
<g id="edge16" class="edge">
<title>Node2&#45;&gt;Node17</title>
<path fill="none" stroke="midnightblue" d="M584.97,-358.32C572.91,-349.98 554.47,-337.21 540.23,-327.35"/>
<polygon fill="midnightblue" stroke="midnightblue" points="542.22,-324.47 532,-321.65 538.23,-330.22 542.22,-324.47"/>
</g>
<!-- Node18 -->
<g id="node18" class="node">
<title>Node18</title>
<g id="a_node18"><a xlink:title=" ">
<polygon fill="white" stroke="#bfbfbf" points="601,-302.5 601,-321.5 670,-321.5 670,-302.5 601,-302.5"/>
<text text-anchor="middle" x="635.5" y="-309.5" font-family="Helvetica,sans-Serif" font-size="10.00">G4Cons.hh</text>
</a>
</g>
</g>
<!-- Node2&#45;&gt;Node18 -->
<g id="edge17" class="edge">
<title>Node2&#45;&gt;Node18</title>
<path fill="none" stroke="midnightblue" d="M603.77,-358.08C609.14,-350.46 617.02,-339.26 623.58,-329.94"/>
<polygon fill="midnightblue" stroke="midnightblue" points="626.45,-331.94 629.34,-321.75 620.72,-327.91 626.45,-331.94"/>
</g>
<!-- Node4 -->
<g id="node4" class="node">
<title>Node4</title>
<g id="a_node4"><a xlink:href="_o_m_sim_input_data_8hh.html" target="_top" xlink:title="Definition of ParameterTable and InputDataManager.">
<polygon fill="white" stroke="black" points="0,-134.5 0,-153.5 115,-153.5 115,-134.5 0,-134.5"/>
<text text-anchor="middle" x="57.5" y="-141.5" font-family="Helvetica,sans-Serif" font-size="10.00">OMSimInputData.hh</text>
</a>
</g>
</g>
<!-- Node3&#45;&gt;Node4 -->
<g id="edge3" class="edge">
<title>Node3&#45;&gt;Node4</title>
<path fill="none" stroke="midnightblue" d="M368.87,-190.44C302.64,-180.78 195.03,-165.07 125.25,-154.89"/>
<polygon fill="midnightblue" stroke="midnightblue" points="125.64,-151.41 115.24,-153.43 124.63,-158.34 125.64,-151.41"/>
</g>
<!-- Node13 -->
<g id="node13" class="node">
<title>Node13</title>
<g id="a_node13"><a xlink:title=" ">
<polygon fill="white" stroke="#bfbfbf" points="133,-134.5 133,-153.5 240,-153.5 240,-134.5 133,-134.5"/>
<text text-anchor="middle" x="186.5" y="-141.5" font-family="Helvetica,sans-Serif" font-size="10.00">G4Transform3D.hh</text>
</a>
</g>
</g>
<!-- Node3&#45;&gt;Node13 -->
<g id="edge12" class="edge">
<title>Node3&#45;&gt;Node13</title>
<path fill="none" stroke="midnightblue" d="M389.31,-190.44C347.36,-181.04 279.91,-165.93 234.43,-155.74"/>
<polygon fill="midnightblue" stroke="midnightblue" points="235.03,-152.29 224.51,-153.52 233.5,-159.12 235.03,-152.29"/>
</g>
<!-- Node14 -->
<g id="node14" class="node">
<title>Node14</title>
<g id="a_node14"><a xlink:title=" ">
<polygon fill="white" stroke="#bfbfbf" points="258.5,-134.5 258.5,-153.5 366.5,-153.5 366.5,-134.5 258.5,-134.5"/>
<text text-anchor="middle" x="312.5" y="-141.5" font-family="Helvetica,sans-Serif" font-size="10.00">G4VisAttributes.hh</text>
</a>
</g>
</g>
<!-- Node3&#45;&gt;Node14 -->
<g id="edge13" class="edge">
<title>Node3&#45;&gt;Node14</title>
<path fill="none" stroke="midnightblue" d="M409.28,-190.44C390.6,-181.68 361.34,-167.94 339.88,-157.86"/>
<polygon fill="midnightblue" stroke="midnightblue" points="341.18,-154.6 330.64,-153.52 338.2,-160.93 341.18,-154.6"/>
</g>
<!-- Node15 -->
<g id="node15" class="node">
<title>Node15</title>
<g id="a_node15"><a xlink:title=" ">
<polygon fill="white" stroke="#bfbfbf" points="385,-134.5 385,-153.5 510,-153.5 510,-134.5 385,-134.5"/>
<text text-anchor="middle" x="447.5" y="-141.5" font-family="Helvetica,sans-Serif" font-size="10.00">G4SubtractionSolid.hh</text>
</a>
</g>
</g>
<!-- Node3&#45;&gt;Node15 -->
<g id="edge14" class="edge">
<title>Node3&#45;&gt;Node15</title>
<path fill="none" stroke="midnightblue" d="M430.8,-190.08C433.48,-182.85 437.35,-172.41 440.69,-163.4"/>
<polygon fill="midnightblue" stroke="midnightblue" points="444.07,-164.34 444.26,-153.75 437.5,-161.91 444.07,-164.34"/>
</g>
<!-- Node16 -->
<g id="node16" class="node">
<title>Node16</title>
<g id="a_node16"><a xlink:title=" ">
<polygon fill="white" stroke="#bfbfbf" points="528.5,-134.5 528.5,-153.5 638.5,-153.5 638.5,-134.5 528.5,-134.5"/>
<text text-anchor="middle" x="583.5" y="-141.5" font-family="Helvetica,sans-Serif" font-size="10.00">G4PVPlacement.hh</text>
</a>
</g>
</g>
<!-- Node3&#45;&gt;Node16 -->
<g id="edge15" class="edge">
<title>Node3&#45;&gt;Node16</title>
<path fill="none" stroke="midnightblue" d="M452.22,-190.44C478.35,-181.4 519.76,-167.06 549.08,-156.92"/>
<polygon fill="midnightblue" stroke="midnightblue" points="550.59,-160.1 558.9,-153.52 548.3,-153.48 550.59,-160.1"/>
</g>
<!-- Node5 -->
<g id="node5" class="node">
<title>Node5</title>
<g id="a_node5"><a xlink:href="_o_m_sim_logger_8hh.html" target="_top" xlink:title=" ">
<polygon fill="white" stroke="black" points="496,-73 496,-92 595,-92 595,-73 496,-73"/>
<text text-anchor="middle" x="545.5" y="-80" font-family="Helvetica,sans-Serif" font-size="10.00">OMSimLogger.hh</text>
</a>
</g>
</g>
<!-- Node4&#45;&gt;Node5 -->
<g id="edge4" class="edge">
<title>Node4&#45;&gt;Node5</title>
<path fill="none" stroke="midnightblue" d="M115.08,-135.03C117.92,-134.67 120.74,-134.33 123.5,-134 280.54,-115.31 321.27,-122.53 477.5,-98 484.39,-96.92 491.63,-95.59 498.72,-94.17"/>
<polygon fill="midnightblue" stroke="midnightblue" points="499.85,-97.51 508.93,-92.06 498.43,-90.66 499.85,-97.51"/>
</g>
<!-- Node10 -->
<g id="node10" class="node">
<title>Node10</title>
<g id="a_node10"><a xlink:title=" ">
<polygon fill="white" stroke="#bfbfbf" points="171,-73 171,-92 314,-92 314,-73 171,-73"/>
<text text-anchor="middle" x="242.5" y="-80" font-family="Helvetica,sans-Serif" font-size="10.00">G4OpBoundaryProcess.hh</text>
</a>
</g>
</g>
<!-- Node4&#45;&gt;Node10 -->
<g id="edge9" class="edge">
<title>Node4&#45;&gt;Node10</title>
<path fill="none" stroke="midnightblue" d="M84.01,-134.48C116.15,-124.14 170.49,-106.66 206.43,-95.1"/>
<polygon fill="midnightblue" stroke="midnightblue" points="207.6,-98.4 216.04,-92.01 205.45,-91.74 207.6,-98.4"/>
</g>
<!-- Node11 -->
<g id="node11" class="node">
<title>Node11</title>
<g id="a_node11"><a xlink:title=" ">
<polygon fill="white" stroke="#bfbfbf" points="350,-73 350,-92 469,-92 469,-73 350,-73"/>
<text text-anchor="middle" x="409.5" y="-80" font-family="Helvetica,sans-Serif" font-size="10.00">G4SystemOfUnits.hh</text>
</a>
</g>
</g>
<!-- Node4&#45;&gt;Node11 -->
<g id="edge10" class="edge">
<title>Node4&#45;&gt;Node11</title>
<path fill="none" stroke="midnightblue" d="M107.93,-134.48C171.58,-123.72 280.94,-105.23 349.02,-93.72"/>
<polygon fill="midnightblue" stroke="midnightblue" points="349.88,-97.13 359.16,-92.01 348.72,-90.22 349.88,-97.13"/>
</g>
<!-- Node12 -->
<g id="node12" class="node">
<title>Node12</title>
<g id="a_node12"><a xlink:title=" ">
<polygon fill="white" stroke="#bfbfbf" points="1,-67.5 1,-97.5 114,-97.5 114,-67.5 1,-67.5"/>
<text text-anchor="start" x="9" y="-85.5" font-family="Helvetica,sans-Serif" font-size="10.00">boost/property_tree</text>
<text text-anchor="middle" x="57.5" y="-74.5" font-family="Helvetica,sans-Serif" font-size="10.00">/json_parser.hpp</text>
</a>
</g>
</g>
<!-- Node4&#45;&gt;Node12 -->
<g id="edge11" class="edge">
<title>Node4&#45;&gt;Node12</title>
<path fill="none" stroke="midnightblue" d="M57.5,-134.48C57.5,-127.47 57.5,-117.19 57.5,-107.7"/>
<polygon fill="midnightblue" stroke="midnightblue" points="61,-107.52 57.5,-97.52 54,-107.52 61,-107.52"/>
</g>
<!-- Node6 -->
<g id="node6" class="node">
<title>Node6</title>
<g id="a_node6"><a xlink:title=" ">
<polygon fill="white" stroke="#bfbfbf" points="327,-6 327,-25 420,-25 420,-6 327,-6"/>
<text text-anchor="middle" x="373.5" y="-13" font-family="Helvetica,sans-Serif" font-size="10.00">spdlog/spdlog.h</text>
</a>
</g>
</g>
<!-- Node5&#45;&gt;Node6 -->
<g id="edge5" class="edge">
<title>Node5&#45;&gt;Node6</title>
<path fill="none" stroke="midnightblue" d="M522.66,-72.87C492.63,-61.52 439.72,-41.52 405.66,-28.65"/>
<polygon fill="midnightblue" stroke="midnightblue" points="406.75,-25.32 396.16,-25.06 404.28,-31.87 406.75,-25.32"/>
</g>
<!-- Node7 -->
<g id="node7" class="node">
<title>Node7</title>
<g id="a_node7"><a xlink:title=" ">
<polygon fill="white" stroke="#bfbfbf" points="438,-0.5 438,-30.5 549,-30.5 549,-0.5 438,-0.5"/>
<text text-anchor="start" x="446" y="-18.5" font-family="Helvetica,sans-Serif" font-size="10.00">spdlog/sinks/stdout</text>
<text text-anchor="middle" x="493.5" y="-7.5" font-family="Helvetica,sans-Serif" font-size="10.00">_color_sinks.h</text>
</a>
</g>
</g>
<!-- Node5&#45;&gt;Node7 -->
<g id="edge6" class="edge">
<title>Node5&#45;&gt;Node7</title>
<path fill="none" stroke="midnightblue" d="M538.49,-72.73C531.53,-64.03 520.58,-50.34 511.22,-38.65"/>
<polygon fill="midnightblue" stroke="midnightblue" points="513.75,-36.21 504.77,-30.59 508.29,-40.58 513.75,-36.21"/>
</g>
<!-- Node8 -->
<g id="node8" class="node">
<title>Node8</title>
<g id="a_node8"><a xlink:title=" ">
<polygon fill="white" stroke="#bfbfbf" points="567.5,-6 567.5,-25 625.5,-25 625.5,-6 567.5,-6"/>
<text text-anchor="middle" x="596.5" y="-13" font-family="Helvetica,sans-Serif" font-size="10.00">memory</text>
</a>
</g>
</g>
<!-- Node5&#45;&gt;Node8 -->
<g id="edge7" class="edge">
<title>Node5&#45;&gt;Node8</title>
<path fill="none" stroke="midnightblue" d="M552.38,-72.73C560.33,-62.6 573.6,-45.69 583.51,-33.06"/>
<polygon fill="midnightblue" stroke="midnightblue" points="586.31,-35.16 589.73,-25.13 580.8,-30.83 586.31,-35.16"/>
</g>
<!-- Node9 -->
<g id="node9" class="node">
<title>Node9</title>
<g id="a_node9"><a xlink:title=" ">
<polygon fill="white" stroke="#bfbfbf" points="643.5,-6 643.5,-25 741.5,-25 741.5,-6 643.5,-6"/>
<text text-anchor="middle" x="692.5" y="-13" font-family="Helvetica,sans-Serif" font-size="10.00">spdlog/fmt/fmt.h</text>
</a>
</g>
</g>
<!-- Node5&#45;&gt;Node9 -->
<g id="edge8" class="edge">
<title>Node5&#45;&gt;Node9</title>
<path fill="none" stroke="midnightblue" d="M565.02,-72.87C590.28,-61.7 634.5,-42.15 663.64,-29.26"/>
<polygon fill="midnightblue" stroke="midnightblue" points="665.17,-32.41 672.9,-25.17 662.34,-26.01 665.17,-32.41"/>
</g>
<!-- Node20 -->
<g id="node20" class="node">
<title>Node20</title>
<g id="a_node20"><a xlink:href="_o_m_sim_m_d_o_m_flasher_8hh.html" target="_top" xlink:title="Defines the mDOMFlasher class for simulating the 10 flashers in an mDOM optical module.">
<polygon fill="white" stroke="black" points="503,-246.5 503,-265.5 638,-265.5 638,-246.5 503,-246.5"/>
<text text-anchor="middle" x="570.5" y="-253.5" font-family="Helvetica,sans-Serif" font-size="10.00">OMSimMDOMFlasher.hh</text>
</a>
</g>
</g>
<!-- Node19&#45;&gt;Node20 -->
<g id="edge19" class="edge">
<title>Node19&#45;&gt;Node20</title>
<path fill="none" stroke="midnightblue" d="M763.44,-358.43C746.04,-345.19 710.91,-319.5 678.5,-302 654.47,-289.03 625.9,-277.27 604.19,-269.03"/>
<polygon fill="midnightblue" stroke="midnightblue" points="605.32,-265.72 594.73,-265.5 602.87,-272.28 605.32,-265.72"/>
</g>
<!-- Node23 -->
<g id="node23" class="node">
<title>Node23</title>
<g id="a_node23"><a xlink:href="_o_m_sim_p_m_t_construction_8hh.html" target="_top" xlink:title="Construction of the PMTs.">
<polygon fill="white" stroke="black" points="671,-246.5 671,-265.5 820,-265.5 820,-246.5 671,-246.5"/>
<text text-anchor="middle" x="745.5" y="-253.5" font-family="Helvetica,sans-Serif" font-size="10.00">OMSimPMTConstruction.hh</text>
</a>
</g>
</g>
<!-- Node19&#45;&gt;Node23 -->
<g id="edge23" class="edge">
<title>Node19&#45;&gt;Node23</title>
<path fill="none" stroke="midnightblue" d="M770.05,-358.27C765.7,-349.37 759.2,-335.05 755.5,-322 751.17,-306.71 748.59,-288.82 747.14,-275.69"/>
<polygon fill="midnightblue" stroke="midnightblue" points="750.6,-275.16 746.14,-265.56 743.64,-275.85 750.6,-275.16"/>
</g>
<!-- Node30 -->
<g id="node30" class="node">
<title>Node30</title>
<g id="a_node30"><a xlink:href="_o_m_sim_optical_module_8hh.html" target="_top" xlink:title=" ">
<polygon fill="white" stroke="black" points="765,-302.5 765,-321.5 902,-321.5 902,-302.5 765,-302.5"/>
<text text-anchor="middle" x="833.5" y="-309.5" font-family="Helvetica,sans-Serif" font-size="10.00">OMSimOpticalModule.hh</text>
</a>
</g>
</g>
<!-- Node19&#45;&gt;Node30 -->
<g id="edge34" class="edge">
<title>Node19&#45;&gt;Node30</title>
<path fill="none" stroke="midnightblue" d="M783.98,-358.32C792.7,-350.34 805.84,-338.31 816.4,-328.65"/>
<polygon fill="midnightblue" stroke="midnightblue" points="818.83,-331.17 823.85,-321.83 814.11,-326 818.83,-331.17"/>
</g>
<!-- Node20&#45;&gt;Node3 -->
<g id="edge20" class="edge">
<title>Node20&#45;&gt;Node3</title>
<path fill="none" stroke="midnightblue" d="M547.84,-246.44C524.1,-237.48 486.59,-223.31 459.76,-213.18"/>
<polygon fill="midnightblue" stroke="midnightblue" points="460.64,-209.77 450.05,-209.52 458.17,-216.32 460.64,-209.77"/>
</g>
<!-- Node21 -->
<g id="node21" class="node">
<title>Node21</title>
<g id="a_node21"><a xlink:title=" ">
<polygon fill="white" stroke="#bfbfbf" points="629.5,-190.5 629.5,-209.5 727.5,-209.5 727.5,-190.5 629.5,-190.5"/>
<text text-anchor="middle" x="678.5" y="-197.5" font-family="Helvetica,sans-Serif" font-size="10.00">G4UnionSolid.hh</text>
</a>
</g>
</g>
<!-- Node20&#45;&gt;Node21 -->
<g id="edge21" class="edge">
<title>Node20&#45;&gt;Node21</title>
<path fill="none" stroke="midnightblue" d="M587.85,-246.32C605.17,-237.66 632.02,-224.24 652,-214.25"/>
<polygon fill="midnightblue" stroke="midnightblue" points="653.81,-217.26 661.19,-209.65 650.68,-211 653.81,-217.26"/>
</g>
<!-- Node22 -->
<g id="node22" class="node">
<title>Node22</title>
<g id="a_node22"><a xlink:title=" ">
<polygon fill="white" stroke="#bfbfbf" points="519.5,-190.5 519.5,-209.5 611.5,-209.5 611.5,-190.5 519.5,-190.5"/>
<text text-anchor="middle" x="565.5" y="-197.5" font-family="Helvetica,sans-Serif" font-size="10.00">G4Navigator.hh</text>
</a>
</g>
</g>
<!-- Node20&#45;&gt;Node22 -->
<g id="edge22" class="edge">
<title>Node20&#45;&gt;Node22</title>
<path fill="none" stroke="midnightblue" d="M569.67,-246.08C569.02,-239.01 568.08,-228.86 567.26,-219.99"/>
<polygon fill="midnightblue" stroke="midnightblue" points="570.72,-219.39 566.31,-209.75 563.75,-220.03 570.72,-219.39"/>
</g>
<!-- Node23&#45;&gt;Node3 -->
<g id="edge24" class="edge">
<title>Node23&#45;&gt;Node3</title>
<path fill="none" stroke="midnightblue" d="M695.11,-246.44C638.82,-236.89 547.75,-221.42 487.74,-211.23"/>
<polygon fill="midnightblue" stroke="midnightblue" points="488.1,-207.74 477.65,-209.52 486.93,-214.64 488.1,-207.74"/>
</g>
<!-- Node23&#45;&gt;Node21 -->
<g id="edge32" class="edge">
<title>Node23&#45;&gt;Node21</title>
<path fill="none" stroke="midnightblue" d="M734.74,-246.32C724.73,-238.26 709.61,-226.08 697.57,-216.37"/>
<polygon fill="midnightblue" stroke="midnightblue" points="699.44,-213.38 689.46,-209.83 695.05,-218.83 699.44,-213.38"/>
</g>
<!-- Node23&#45;&gt;Node23 -->
<g id="edge25" class="edge">
<title>Node23&#45;&gt;Node23</title>
<path fill="none" stroke="midnightblue" d="M784.95,-265.53C811.76,-268.31 838,-265.13 838,-256 838,-248.01 817.91,-244.58 794.93,-245.71"/>
<polygon fill="midnightblue" stroke="midnightblue" points="794.65,-242.22 784.95,-246.47 795.19,-249.2 794.65,-242.22"/>
</g>
<!-- Node24 -->
<g id="node24" class="node">
<title>Node24</title>
<g id="a_node24"><a xlink:href="_o_m_sim_p_m_t_response_8hh.html" target="_top" xlink:title="Provides simulation for PMT response. This class is responsible for transforming hits on photocathode...">
<polygon fill="white" stroke="black" points="695,-134.5 695,-153.5 830,-153.5 830,-134.5 695,-134.5"/>
<text text-anchor="middle" x="762.5" y="-141.5" font-family="Helvetica,sans-Serif" font-size="10.00">OMSimPMTResponse.hh</text>
</a>
</g>
</g>
<!-- Node23&#45;&gt;Node24 -->
<g id="edge26" class="edge">
<title>Node23&#45;&gt;Node24</title>
<path fill="none" stroke="midnightblue" d="M746.83,-246.37C749.58,-228.62 755.91,-187.67 759.63,-163.6"/>
<polygon fill="midnightblue" stroke="midnightblue" points="763.1,-164.01 761.17,-153.59 756.19,-162.94 763.1,-164.01"/>
</g>
<!-- Node29 -->
<g id="node29" class="node">
<title>Node29</title>
<g id="a_node29"><a xlink:title=" ">
<polygon fill="white" stroke="#bfbfbf" points="784,-190.5 784,-209.5 851,-209.5 851,-190.5 784,-190.5"/>
<text text-anchor="middle" x="817.5" y="-197.5" font-family="Helvetica,sans-Serif" font-size="10.00">G4Tubs.hh</text>
</a>
</g>
</g>
<!-- Node23&#45;&gt;Node29 -->
<g id="edge33" class="edge">
<title>Node23&#45;&gt;Node29</title>
<path fill="none" stroke="midnightblue" d="M757.07,-246.32C767.92,-238.18 784.38,-225.84 797.38,-216.09"/>
<polygon fill="midnightblue" stroke="midnightblue" points="799.82,-218.63 805.72,-209.83 795.62,-213.03 799.82,-218.63"/>
</g>
<!-- Node24&#45;&gt;Node11 -->
<g id="edge27" class="edge">
<title>Node24&#45;&gt;Node11</title>
<path fill="none" stroke="midnightblue" d="M707.71,-134.47C651.97,-125.7 563.13,-111.46 486.5,-98 479.14,-96.71 471.39,-95.3 463.77,-93.89"/>
<polygon fill="midnightblue" stroke="midnightblue" points="464.32,-90.43 453.85,-92.04 463.04,-97.32 464.32,-90.43"/>
</g>
<!-- Node25 -->
<g id="node25" class="node">
<title>Node25</title>
<g id="a_node25"><a xlink:title=" ">
<polygon fill="white" stroke="#bfbfbf" points="618,-73 618,-92 691,-92 691,-73 618,-73"/>
<text text-anchor="middle" x="654.5" y="-80" font-family="Helvetica,sans-Serif" font-size="10.00">G4Types.hh</text>
</a>
</g>
</g>
<!-- Node24&#45;&gt;Node25 -->
<g id="edge28" class="edge">
<title>Node24&#45;&gt;Node25</title>
<path fill="none" stroke="midnightblue" d="M747.03,-134.48C729.22,-124.67 699.76,-108.43 678.87,-96.92"/>
<polygon fill="midnightblue" stroke="midnightblue" points="680.39,-93.77 669.95,-92.01 677.01,-99.9 680.39,-93.77"/>
</g>
<!-- Node26 -->
<g id="node26" class="node">
<title>Node26</title>
<g id="a_node26"><a xlink:title=" ">
<polygon fill="white" stroke="#bfbfbf" points="709.5,-73 709.5,-92 747.5,-92 747.5,-73 709.5,-73"/>
<text text-anchor="middle" x="728.5" y="-80" font-family="Helvetica,sans-Serif" font-size="10.00">map</text>
</a>
</g>
</g>
<!-- Node24&#45;&gt;Node26 -->
<g id="edge29" class="edge">
<title>Node24&#45;&gt;Node26</title>
<path fill="none" stroke="midnightblue" d="M757.63,-134.48C752.63,-125.73 744.71,-111.87 738.39,-100.81"/>
<polygon fill="midnightblue" stroke="midnightblue" points="741.36,-98.96 733.36,-92.01 735.28,-102.43 741.36,-98.96"/>
</g>
<!-- Node27 -->
<g id="node27" class="node">
<title>Node27</title>
<g id="a_node27"><a xlink:title=" ">
<polygon fill="white" stroke="#bfbfbf" points="766,-73 766,-92 827,-92 827,-73 766,-73"/>
<text text-anchor="middle" x="796.5" y="-80" font-family="Helvetica,sans-Serif" font-size="10.00">TGraph.h</text>
</a>
</g>
</g>
<!-- Node24&#45;&gt;Node27 -->
<g id="edge30" class="edge">
<title>Node24&#45;&gt;Node27</title>
<path fill="none" stroke="midnightblue" d="M767.37,-134.48C772.37,-125.73 780.29,-111.87 786.61,-100.81"/>
<polygon fill="midnightblue" stroke="midnightblue" points="789.72,-102.43 791.64,-92.01 783.64,-98.96 789.72,-102.43"/>
</g>
<!-- Node28 -->
<g id="node28" class="node">
<title>Node28</title>
<g id="a_node28"><a xlink:title=" ">
<polygon fill="white" stroke="#bfbfbf" points="845,-73 845,-92 898,-92 898,-73 845,-73"/>
<text text-anchor="middle" x="871.5" y="-80" font-family="Helvetica,sans-Serif" font-size="10.00">TH2D.h</text>
</a>
</g>
</g>
<!-- Node24&#45;&gt;Node28 -->
<g id="edge31" class="edge">
<title>Node24&#45;&gt;Node28</title>
<path fill="none" stroke="midnightblue" d="M778.12,-134.48C796.09,-124.67 825.82,-108.43 846.91,-96.92"/>
<polygon fill="midnightblue" stroke="midnightblue" points="848.81,-99.87 855.91,-92.01 845.46,-93.73 848.81,-99.87"/>
</g>
<!-- Node30&#45;&gt;Node3 -->
<g id="edge35" class="edge">
<title>Node30&#45;&gt;Node3</title>
<path fill="none" stroke="midnightblue" d="M764.78,-307.06C679.58,-301.29 539.91,-288.68 493.5,-266 470.79,-254.9 451.09,-232.93 439.26,-217.62"/>
<polygon fill="midnightblue" stroke="midnightblue" points="442.02,-215.46 433.25,-209.51 436.39,-219.63 442.02,-215.46"/>
</g>
<!-- Node30&#45;&gt;Node23 -->
<g id="edge46" class="edge">
<title>Node30&#45;&gt;Node23</title>
<path fill="none" stroke="midnightblue" d="M819.36,-302.32C805.63,-293.9 784.56,-280.97 768.44,-271.07"/>
<polygon fill="midnightblue" stroke="midnightblue" points="769.96,-267.9 759.6,-265.65 766.3,-273.87 769.96,-267.9"/>
</g>
<!-- Node31 -->
<g id="node31" class="node">
<title>Node31</title>
<g id="a_node31"><a xlink:href="_o_m_sim_hit_manager_8hh.html" target="_top" xlink:title="Defines structures and classes related to optical module photon hit management.">
<polygon fill="white" stroke="black" points="923,-246.5 923,-265.5 1046,-265.5 1046,-246.5 923,-246.5"/>
<text text-anchor="middle" x="984.5" y="-253.5" font-family="Helvetica,sans-Serif" font-size="10.00">OMSimHitManager.hh</text>
</a>
</g>
</g>
<!-- Node30&#45;&gt;Node31 -->
<g id="edge36" class="edge">
<title>Node30&#45;&gt;Node31</title>
<path fill="none" stroke="midnightblue" d="M857.43,-302.44C882.72,-293.4 922.8,-279.06 951.18,-268.92"/>
<polygon fill="midnightblue" stroke="midnightblue" points="952.45,-272.18 960.69,-265.52 950.09,-265.59 952.45,-272.18"/>
</g>
<!-- Node31&#45;&gt;Node24 -->
<g id="edge37" class="edge">
<title>Node31&#45;&gt;Node24</title>
<path fill="none" stroke="midnightblue" d="M967.93,-246.33C936.44,-229.86 870.15,-195.23 859.5,-190 836.55,-178.72 810.22,-166.55 790.79,-157.72"/>
<polygon fill="midnightblue" stroke="midnightblue" points="792.13,-154.48 781.58,-153.54 789.24,-160.86 792.13,-154.48"/>
</g>
<!-- Node32 -->
<g id="node32" class="node">
<title>Node32</title>
<g id="a_node32"><a xlink:href="_o_m_sim_sensitive_detector_8hh.html" target="_top" xlink:title=" ">
<polygon fill="white" stroke="black" points="908,-190.5 908,-209.5 1061,-209.5 1061,-190.5 908,-190.5"/>
<text text-anchor="middle" x="984.5" y="-197.5" font-family="Helvetica,sans-Serif" font-size="10.00">OMSimSensitiveDetector.hh</text>
</a>
</g>
</g>
<!-- Node31&#45;&gt;Node32 -->
<g id="edge38" class="edge">
<title>Node31&#45;&gt;Node32</title>
<path fill="none" stroke="midnightblue" d="M984.5,-246.08C984.5,-239.01 984.5,-228.86 984.5,-219.99"/>
<polygon fill="midnightblue" stroke="midnightblue" points="988,-219.75 984.5,-209.75 981,-219.75 988,-219.75"/>
</g>
<!-- Node34 -->
<g id="node34" class="node">
<title>Node34</title>
<g id="a_node34"><a xlink:title=" ">
<polygon fill="white" stroke="#bfbfbf" points="1070,-134.5 1070,-153.5 1173,-153.5 1173,-134.5 1070,-134.5"/>
<text text-anchor="middle" x="1121.5" y="-141.5" font-family="Helvetica,sans-Serif" font-size="10.00">G4ThreeVector.hh</text>
</a>
</g>
</g>
<!-- Node31&#45;&gt;Node34 -->
<g id="edge44" class="edge">
<title>Node31&#45;&gt;Node34</title>
<path fill="none" stroke="midnightblue" d="M1006.23,-246.46C1024.34,-238.68 1050.21,-225.97 1069.5,-210 1086.14,-196.22 1101.08,-176.37 1110.63,-162.24"/>
<polygon fill="midnightblue" stroke="midnightblue" points="1113.79,-163.79 1116.33,-153.51 1107.93,-159.96 1113.79,-163.79"/>
</g>
<!-- Node36 -->
<g id="node36" class="node">
<title>Node36</title>
<g id="a_node36"><a xlink:title=" ">
<polygon fill="white" stroke="#bfbfbf" points="1118,-190.5 1118,-209.5 1173,-209.5 1173,-190.5 1118,-190.5"/>
<text text-anchor="middle" x="1145.5" y="-197.5" font-family="Helvetica,sans-Serif" font-size="10.00">fstream</text>
</a>
</g>
</g>
<!-- Node31&#45;&gt;Node36 -->
<g id="edge45" class="edge">
<title>Node31&#45;&gt;Node36</title>
<path fill="none" stroke="midnightblue" d="M1010.01,-246.44C1037.1,-237.36 1080.09,-222.94 1110.37,-212.78"/>
<polygon fill="midnightblue" stroke="midnightblue" points="1111.74,-216.01 1120.11,-209.52 1109.51,-209.38 1111.74,-216.01"/>
</g>
<!-- Node32&#45;&gt;Node10 -->
<g id="edge42" class="edge">
<title>Node32&#45;&gt;Node10</title>
<path fill="none" stroke="midnightblue" d="M907.92,-194.55C846.53,-189.32 758.82,-178.05 685.5,-154 667.37,-148.05 665.73,-139.65 647.5,-134 516.28,-93.32 476.69,-116.06 340.5,-98 330.1,-96.62 319.09,-95.08 308.35,-93.52"/>
<polygon fill="midnightblue" stroke="midnightblue" points="308.57,-90.02 298.17,-92.03 307.56,-96.94 308.57,-90.02"/>
</g>
<!-- Node32&#45;&gt;Node24 -->
<g id="edge41" class="edge">
<title>Node32&#45;&gt;Node24</title>
<path fill="none" stroke="midnightblue" d="M949.32,-190.44C910.92,-181.1 849.32,-166.12 807.44,-155.93"/>
<polygon fill="midnightblue" stroke="midnightblue" points="808.06,-152.48 797.51,-153.52 806.4,-159.28 808.06,-152.48"/>
</g>
<!-- Node33 -->
<g id="node33" class="node">
<title>Node33</title>
<g id="a_node33"><a xlink:title=" ">
<polygon fill="white" stroke="#bfbfbf" points="848.5,-134.5 848.5,-153.5 986.5,-153.5 986.5,-134.5 848.5,-134.5"/>
<text text-anchor="middle" x="917.5" y="-141.5" font-family="Helvetica,sans-Serif" font-size="10.00">G4VSensitiveDetector.hh</text>
</a>
</g>
</g>
<!-- Node32&#45;&gt;Node33 -->
<g id="edge39" class="edge">
<title>Node32&#45;&gt;Node33</title>
<path fill="none" stroke="midnightblue" d="M973.74,-190.32C963.73,-182.26 948.61,-170.08 936.57,-160.37"/>
<polygon fill="midnightblue" stroke="midnightblue" points="938.44,-157.38 928.46,-153.83 934.05,-162.83 938.44,-157.38"/>
</g>
<!-- Node32&#45;&gt;Node34 -->
<g id="edge40" class="edge">
<title>Node32&#45;&gt;Node34</title>
<path fill="none" stroke="midnightblue" d="M1006.21,-190.44C1028.85,-181.52 1064.57,-167.44 1090.25,-157.32"/>
<polygon fill="midnightblue" stroke="midnightblue" points="1091.87,-160.44 1099.89,-153.52 1089.31,-153.93 1091.87,-160.44"/>
</g>
<!-- Node35 -->
<g id="node35" class="node">
<title>Node35</title>
<g id="a_node35"><a xlink:title=" ">
<polygon fill="white" stroke="#bfbfbf" points="1005,-134.5 1005,-153.5 1052,-153.5 1052,-134.5 1005,-134.5"/>
<text text-anchor="middle" x="1028.5" y="-141.5" font-family="Helvetica,sans-Serif" font-size="10.00">vector</text>
</a>
</g>
</g>
<!-- Node32&#45;&gt;Node35 -->
<g id="edge43" class="edge">
<title>Node32&#45;&gt;Node35</title>
<path fill="none" stroke="midnightblue" d="M991.77,-190.08C998.04,-182.38 1007.29,-171.03 1014.93,-161.65"/>
<polygon fill="midnightblue" stroke="midnightblue" points="1017.77,-163.71 1021.37,-153.75 1012.34,-159.29 1017.77,-163.71"/>
</g>
<!-- Node37&#45;&gt;Node5 -->
<g id="edge48" class="edge">
<title>Node37&#45;&gt;Node5</title>
<path fill="none" stroke="midnightblue" d="M1203.23,-246.32C1207.16,-223.84 1214.04,-163.41 1181.5,-134 1134.17,-91.23 671.63,-107.18 608.5,-98 601.78,-97.02 594.73,-95.7 587.86,-94.25"/>
<polygon fill="midnightblue" stroke="midnightblue" points="588.53,-90.81 578.01,-92.05 587.01,-97.64 588.53,-90.81"/>
</g>
<!-- Node37&#45;&gt;Node36 -->
<g id="edge49" class="edge">
<title>Node37&#45;&gt;Node36</title>
<path fill="none" stroke="midnightblue" d="M1192.5,-246.32C1184.31,-238.42 1171.99,-226.55 1162.03,-216.94"/>
<polygon fill="midnightblue" stroke="midnightblue" points="1164.29,-214.26 1154.66,-209.83 1159.43,-219.29 1164.29,-214.26"/>
</g>
<!-- Node38 -->
<g id="node38" class="node">
<title>Node38</title>
<g id="a_node38"><a xlink:title=" ">
<polygon fill="white" stroke="#bfbfbf" points="1229.5,-190.5 1229.5,-209.5 1313.5,-209.5 1313.5,-190.5 1229.5,-190.5"/>
<text text-anchor="middle" x="1271.5" y="-197.5" font-family="Helvetica,sans-Serif" font-size="10.00">boost/any.hpp</text>
</a>
</g>
</g>
<!-- Node37&#45;&gt;Node38 -->
<g id="edge50" class="edge">
<title>Node37&#45;&gt;Node38</title>
<path fill="none" stroke="midnightblue" d="M1212.75,-246.32C1223.3,-238.18 1239.3,-225.84 1251.94,-216.09"/>
<polygon fill="midnightblue" stroke="midnightblue" points="1254.27,-218.71 1260.05,-209.83 1249.99,-213.17 1254.27,-218.71"/>
</g>
<!-- Node39 -->
<g id="node39" class="node">
<title>Node39</title>
<g id="a_node39"><a xlink:title=" ">
<polygon fill="white" stroke="#bfbfbf" points="1331.5,-190.5 1331.5,-209.5 1399.5,-209.5 1399.5,-190.5 1331.5,-190.5"/>
<text text-anchor="middle" x="1365.5" y="-197.5" font-family="Helvetica,sans-Serif" font-size="10.00">sys/time.h</text>
</a>
</g>
</g>
<!-- Node37&#45;&gt;Node39 -->
<g id="edge51" class="edge">
<title>Node37&#45;&gt;Node39</title>
<path fill="none" stroke="midnightblue" d="M1227.49,-246.44C1255.2,-237.32 1299.25,-222.81 1330.12,-212.65"/>
<polygon fill="midnightblue" stroke="midnightblue" points="1331.23,-215.97 1339.64,-209.52 1329.04,-209.32 1331.23,-215.97"/>
</g>
</g>
</svg>
