<?xml version="1.0" encoding="UTF-8" standalone="no"?>
<!DOCTYPE svg PUBLIC "-//W3C//DTD SVG 1.1//EN"
 "http://www.w3.org/Graphics/SVG/1.1/DTD/svg11.dtd">
<!-- Generated by graphviz version 2.43.0 (0)
 -->
<!-- Title: OMSim_supernova.cc Pages: 1 -->
<svg width="1982pt" height="375pt"
 viewBox="0.00 0.00 1982.00 375.00" xmlns="http://www.w3.org/2000/svg" xmlns:xlink="http://www.w3.org/1999/xlink">
<g id="graph0" class="graph" transform="scale(1 1) rotate(0) translate(4 371)">
<title>OMSim_supernova.cc</title>
<!-- Node1 -->
<g id="node1" class="node">
<title>Node1</title>
<g id="a_node1"><a xlink:title="Main of the supernova study.">
<polygon fill="#bfbfbf" stroke="black" points="418.5,-347.5 418.5,-366.5 540.5,-366.5 540.5,-347.5 418.5,-347.5"/>
<text text-anchor="middle" x="479.5" y="-354.5" font-family="Helvetica,sans-Serif" font-size="10.00">OMSim_supernova.cc</text>
</a>
</g>
</g>
<!-- Node2 -->
<g id="node2" class="node">
<title>Node2</title>
<g id="a_node2"><a xlink:href="_o_m_sim_8hh.html" target="_top" xlink:title="Main simulation class for the Optical Module (OM) simulation. This file defines the OMSim class,...">
<polygon fill="none" stroke="black" points="1018,-291.5 1018,-310.5 1085,-310.5 1085,-291.5 1018,-291.5"/>
<text text-anchor="middle" x="1051.5" y="-298.5" font-family="Helvetica,sans-Serif" font-size="10.00">OMSim.hh</text>
</a>
</g>
</g>
<!-- Node1&#45;&gt;Node2 -->
<g id="edge1" class="edge">
<title>Node1&#45;&gt;Node2</title>
<path fill="none" stroke="midnightblue" d="M540.71,-350.22C656.79,-339.26 906.31,-315.71 1007.51,-306.15"/>
<polygon fill="midnightblue" stroke="midnightblue" points="1008.06,-309.62 1017.68,-305.19 1007.4,-302.65 1008.06,-309.62"/>
</g>
<!-- Node26 -->
<g id="node6" class="node">
<title>Node26</title>
<g id="a_node6"><a xlink:href="_o_m_sim_hit_manager_8hh.html" target="_top" xlink:title="Defines structures and classes related to optical module photon hit management.">
<polygon fill="none" stroke="black" points="332,-123.5 332,-142.5 455,-142.5 455,-123.5 332,-123.5"/>
<text text-anchor="middle" x="393.5" y="-130.5" font-family="Helvetica,sans-Serif" font-size="10.00">OMSimHitManager.hh</text>
</a>
</g>
</g>
<!-- Node1&#45;&gt;Node26 -->
<g id="edge59" class="edge">
<title>Node1&#45;&gt;Node26</title>
<path fill="none" stroke="midnightblue" d="M418.36,-349.76C362.91,-340.2 286.43,-316.03 263.5,-255 251.62,-223.38 243.91,-206.52 263.5,-179 273.2,-165.38 311.18,-153.2 343.6,-144.95"/>
<polygon fill="midnightblue" stroke="midnightblue" points="344.57,-148.32 353.44,-142.52 342.9,-141.52 344.57,-148.32"/>
</g>
<!-- Node40 -->
<g id="node21" class="node">
<title>Node40</title>
<g id="a_node21"><a xlink:title=" ">
<polygon fill="none" stroke="#bfbfbf" points="461,-235.5 461,-254.5 646,-254.5 646,-235.5 461,-235.5"/>
<text text-anchor="middle" x="553.5" y="-242.5" font-family="Helvetica,sans-Serif" font-size="10.00">OMSimPrimaryGeneratorAction.hh</text>
</a>
</g>
</g>
<!-- Node1&#45;&gt;Node40 -->
<g id="edge58" class="edge">
<title>Node1&#45;&gt;Node40</title>
<path fill="none" stroke="midnightblue" d="M485.31,-347.37C497.52,-329.22 526.05,-286.8 542.07,-262.99"/>
<polygon fill="midnightblue" stroke="midnightblue" points="545.04,-264.84 547.72,-254.59 539.23,-260.94 545.04,-264.84"/>
</g>
<!-- Node59 -->
<g id="node45" class="node">
<title>Node59</title>
<g id="a_node45"><a xlink:href="_o_m_sim_s_n_analysis_8hh_source.html" target="_top" xlink:title=" ">
<polygon fill="none" stroke="black" points="94.5,-179.5 94.5,-198.5 216.5,-198.5 216.5,-179.5 94.5,-179.5"/>
<text text-anchor="middle" x="155.5" y="-186.5" font-family="Helvetica,sans-Serif" font-size="10.00">OMSimSNAnalysis.hh</text>
</a>
</g>
</g>
<!-- Node1&#45;&gt;Node59 -->
<g id="edge50" class="edge">
<title>Node1&#45;&gt;Node59</title>
<path fill="none" stroke="midnightblue" d="M418.26,-350.65C354.67,-344.11 260.37,-331.32 230.5,-311 193.5,-285.83 171.32,-235.74 161.51,-208.57"/>
<polygon fill="midnightblue" stroke="midnightblue" points="164.7,-207.09 158.15,-198.77 158.08,-209.36 164.7,-207.09"/>
</g>
<!-- Node63 -->
<g id="node49" class="node">
<title>Node63</title>
<g id="a_node49"><a xlink:title=" ">
<polygon fill="none" stroke="#bfbfbf" points="1103.5,-291.5 1103.5,-310.5 1195.5,-310.5 1195.5,-291.5 1103.5,-291.5"/>
<text text-anchor="middle" x="1149.5" y="-298.5" font-family="Helvetica,sans-Serif" font-size="10.00">G4Navigator.hh</text>
</a>
</g>
</g>
<!-- Node1&#45;&gt;Node63 -->
<g id="edge60" class="edge">
<title>Node1&#45;&gt;Node63</title>
<path fill="none" stroke="midnightblue" d="M540.67,-353.27C649.55,-348.02 884.31,-334.97 1093.46,-310.89"/>
<polygon fill="midnightblue" stroke="midnightblue" points="1093.87,-314.36 1103.4,-309.73 1093.06,-307.41 1093.87,-314.36"/>
</g>
<!-- Node64 -->
<g id="node50" class="node">
<title>Node64</title>
<g id="a_node50"><a xlink:href="_o_m_sim_s_ndetector_8hh_source.html" target="_top" xlink:title=" ">
<polygon fill="none" stroke="black" points="321.5,-291.5 321.5,-310.5 441.5,-310.5 441.5,-291.5 321.5,-291.5"/>
<text text-anchor="middle" x="381.5" y="-298.5" font-family="Helvetica,sans-Serif" font-size="10.00">OMSimSNdetector.hh</text>
</a>
</g>
</g>
<!-- Node1&#45;&gt;Node64 -->
<g id="edge61" class="edge">
<title>Node1&#45;&gt;Node64</title>
<path fill="none" stroke="midnightblue" d="M463.75,-347.32C448.18,-338.74 424.12,-325.49 406.04,-315.52"/>
<polygon fill="midnightblue" stroke="midnightblue" points="407.65,-312.42 397.21,-310.65 404.28,-318.55 407.65,-312.42"/>
</g>
<!-- Node3 -->
<g id="node3" class="node">
<title>Node3</title>
<g id="a_node3"><a xlink:href="_o_m_sim_detector_construction_8hh_source.html" target="_top" xlink:title=" ">
<polygon fill="none" stroke="black" points="272.5,-235.5 272.5,-254.5 442.5,-254.5 442.5,-235.5 272.5,-235.5"/>
<text text-anchor="middle" x="357.5" y="-242.5" font-family="Helvetica,sans-Serif" font-size="10.00">OMSimDetectorConstruction.hh</text>
</a>
</g>
</g>
<!-- Node2&#45;&gt;Node3 -->
<g id="edge2" class="edge">
<title>Node2&#45;&gt;Node3</title>
<path fill="none" stroke="midnightblue" d="M1017.98,-297.73C928.28,-291.6 675.03,-273.96 452.77,-255.09"/>
<polygon fill="midnightblue" stroke="midnightblue" points="452.81,-251.58 442.55,-254.22 452.21,-258.56 452.81,-251.58"/>
</g>
<!-- Node39 -->
<g id="node20" class="node">
<title>Node39</title>
<g id="a_node20"><a xlink:title=" ">
<polygon fill="none" stroke="#bfbfbf" points="1395,-235.5 1395,-254.5 1516,-254.5 1516,-235.5 1395,-235.5"/>
<text text-anchor="middle" x="1455.5" y="-242.5" font-family="Helvetica,sans-Serif" font-size="10.00">OMSimPhysicsList.hh</text>
</a>
</g>
</g>
<!-- Node2&#45;&gt;Node39 -->
<g id="edge22" class="edge">
<title>Node2&#45;&gt;Node39</title>
<path fill="none" stroke="midnightblue" d="M1085.25,-292.66C1088.37,-292.06 1091.49,-291.5 1094.5,-291 1219.92,-270.15 1254.53,-271.24 1384.83,-255.07"/>
<polygon fill="midnightblue" stroke="midnightblue" points="1385.31,-258.54 1394.8,-253.82 1384.44,-251.59 1385.31,-258.54"/>
</g>
<!-- Node2&#45;&gt;Node40 -->
<g id="edge23" class="edge">
<title>Node2&#45;&gt;Node40</title>
<path fill="none" stroke="midnightblue" d="M1017.66,-296.33C941.45,-288.07 754.28,-267.77 642.28,-255.63"/>
<polygon fill="midnightblue" stroke="midnightblue" points="642.34,-252.11 632.02,-254.51 641.58,-259.07 642.34,-252.11"/>
</g>
<!-- Node41 -->
<g id="node22" class="node">
<title>Node41</title>
<g id="a_node22"><a xlink:href="_o_m_sim_run_action_8hh_source.html" target="_top" xlink:title=" ">
<polygon fill="none" stroke="black" points="904.5,-179.5 904.5,-198.5 1020.5,-198.5 1020.5,-179.5 904.5,-179.5"/>
<text text-anchor="middle" x="962.5" y="-186.5" font-family="Helvetica,sans-Serif" font-size="10.00">OMSimRunAction.hh</text>
</a>
</g>
</g>
<!-- Node2&#45;&gt;Node41 -->
<g id="edge24" class="edge">
<title>Node2&#45;&gt;Node41</title>
<path fill="none" stroke="midnightblue" d="M1085.34,-292.57C1129.19,-282.6 1200.97,-264.99 1208.5,-255 1213.85,-247.9 1214.19,-241.83 1208.5,-235 1186.23,-208.29 1095.52,-197.39 1030.73,-192.97"/>
<polygon fill="midnightblue" stroke="midnightblue" points="1030.78,-189.46 1020.57,-192.31 1030.33,-196.45 1030.78,-189.46"/>
</g>
<!-- Node45 -->
<g id="node31" class="node">
<title>Node45</title>
<g id="a_node31"><a xlink:title=" ">
<polygon fill="none" stroke="#bfbfbf" points="1534,-235.5 1534,-254.5 1659,-254.5 1659,-235.5 1534,-235.5"/>
<text text-anchor="middle" x="1596.5" y="-242.5" font-family="Helvetica,sans-Serif" font-size="10.00">OMSimEventAction.hh</text>
</a>
</g>
</g>
<!-- Node2&#45;&gt;Node45 -->
<g id="edge34" class="edge">
<title>Node2&#45;&gt;Node45</title>
<path fill="none" stroke="midnightblue" d="M1085.23,-292.53C1088.36,-291.96 1091.48,-291.44 1094.5,-291 1281.03,-263.78 1332.02,-274.51 1523.57,-255.05"/>
<polygon fill="midnightblue" stroke="midnightblue" points="1524.1,-258.51 1533.69,-254 1523.38,-251.55 1524.1,-258.51"/>
</g>
<!-- Node46 -->
<g id="node32" class="node">
<title>Node46</title>
<g id="a_node32"><a xlink:href="_o_m_sim_tracking_action_8hh_source.html" target="_top" xlink:title=" ">
<polygon fill="none" stroke="black" points="1677.5,-235.5 1677.5,-254.5 1815.5,-254.5 1815.5,-235.5 1677.5,-235.5"/>
<text text-anchor="middle" x="1746.5" y="-242.5" font-family="Helvetica,sans-Serif" font-size="10.00">OMSimTrackingAction.hh</text>
</a>
</g>
</g>
<!-- Node2&#45;&gt;Node46 -->
<g id="edge35" class="edge">
<title>Node2&#45;&gt;Node46</title>
<path fill="none" stroke="midnightblue" d="M1085.22,-292.46C1088.35,-291.91 1091.48,-291.41 1094.5,-291 1344.03,-257.23 1411.55,-276.91 1666.83,-255"/>
<polygon fill="midnightblue" stroke="midnightblue" points="1667.5,-258.46 1677.16,-254.1 1666.89,-251.48 1667.5,-258.46"/>
</g>
<!-- Node48 -->
<g id="node34" class="node">
<title>Node48</title>
<g id="a_node34"><a xlink:href="_o_m_sim_stepping_action_8hh.html" target="_top" xlink:title="Defines OMSimSteppingAction.Currently it only checks for trapped photons.">
<polygon fill="none" stroke="black" points="1833.5,-235.5 1833.5,-254.5 1973.5,-254.5 1973.5,-235.5 1833.5,-235.5"/>
<text text-anchor="middle" x="1903.5" y="-242.5" font-family="Helvetica,sans-Serif" font-size="10.00">OMSimSteppingAction.hh</text>
</a>
</g>
</g>
<!-- Node2&#45;&gt;Node48 -->
<g id="edge37" class="edge">
<title>Node2&#45;&gt;Node48</title>
<path fill="none" stroke="midnightblue" d="M1085.22,-292.42C1088.34,-291.88 1091.47,-291.39 1094.5,-291 1413.39,-250.02 1498.99,-280.75 1823.16,-255.05"/>
<polygon fill="midnightblue" stroke="midnightblue" points="1823.62,-258.52 1833.31,-254.23 1823.06,-251.55 1823.62,-258.52"/>
</g>
<!-- Node50 -->
<g id="node36" class="node">
<title>Node50</title>
<g id="a_node36"><a xlink:href="_o_m_sim_u_iinterface_8hh.html" target="_top" xlink:title=" ">
<polygon fill="none" stroke="black" points="1256,-235.5 1256,-254.5 1377,-254.5 1377,-235.5 1256,-235.5"/>
<text text-anchor="middle" x="1316.5" y="-242.5" font-family="Helvetica,sans-Serif" font-size="10.00">OMSimUIinterface.hh</text>
</a>
</g>
</g>
<!-- Node2&#45;&gt;Node50 -->
<g id="edge39" class="edge">
<title>Node2&#45;&gt;Node50</title>
<path fill="none" stroke="midnightblue" d="M1085.3,-292.91C1088.41,-292.26 1091.51,-291.62 1094.5,-291 1152.51,-279.05 1219.1,-265.59 1264.1,-256.52"/>
<polygon fill="midnightblue" stroke="midnightblue" points="1264.81,-259.95 1273.92,-254.55 1263.43,-253.09 1264.81,-259.95"/>
</g>
<!-- Node55 -->
<g id="node41" class="node">
<title>Node55</title>
<g id="a_node41"><a xlink:title=" ">
<polygon fill="none" stroke="#bfbfbf" points="664,-235.5 664,-254.5 785,-254.5 785,-235.5 664,-235.5"/>
<text text-anchor="middle" x="724.5" y="-242.5" font-family="Helvetica,sans-Serif" font-size="10.00">G4MTRunManager.hh</text>
</a>
</g>
</g>
<!-- Node2&#45;&gt;Node55 -->
<g id="edge46" class="edge">
<title>Node2&#45;&gt;Node55</title>
<path fill="none" stroke="midnightblue" d="M1017.74,-294.42C963.26,-285.43 855.14,-267.57 786.51,-256.24"/>
<polygon fill="midnightblue" stroke="midnightblue" points="786.7,-252.72 776.26,-254.55 785.56,-259.63 786.7,-252.72"/>
</g>
<!-- Node56 -->
<g id="node42" class="node">
<title>Node56</title>
<g id="a_node42"><a xlink:title=" ">
<polygon fill="none" stroke="#bfbfbf" points="803,-235.5 803,-254.5 910,-254.5 910,-235.5 803,-235.5"/>
<text text-anchor="middle" x="856.5" y="-242.5" font-family="Helvetica,sans-Serif" font-size="10.00">G4VisExecutive.hh</text>
</a>
</g>
</g>
<!-- Node2&#45;&gt;Node56 -->
<g id="edge47" class="edge">
<title>Node2&#45;&gt;Node56</title>
<path fill="none" stroke="midnightblue" d="M1020.6,-291.44C987.23,-282.2 933.91,-267.44 897.15,-257.26"/>
<polygon fill="midnightblue" stroke="midnightblue" points="897.83,-253.81 887.25,-254.52 895.96,-260.56 897.83,-253.81"/>
</g>
<!-- Node57 -->
<g id="node43" class="node">
<title>Node57</title>
<g id="a_node43"><a xlink:title=" ">
<polygon fill="none" stroke="#bfbfbf" points="928,-235.5 928,-254.5 1031,-254.5 1031,-235.5 928,-235.5"/>
<text text-anchor="middle" x="979.5" y="-242.5" font-family="Helvetica,sans-Serif" font-size="10.00">G4UIExecutive.hh</text>
</a>
</g>
</g>
<!-- Node2&#45;&gt;Node57 -->
<g id="edge48" class="edge">
<title>Node2&#45;&gt;Node57</title>
<path fill="none" stroke="midnightblue" d="M1039.93,-291.32C1029.08,-283.18 1012.62,-270.84 999.62,-261.09"/>
<polygon fill="midnightblue" stroke="midnightblue" points="1001.38,-258.03 991.28,-254.83 997.18,-263.63 1001.38,-258.03"/>
</g>
<!-- Node58 -->
<g id="node44" class="node">
<title>Node58</title>
<g id="a_node44"><a xlink:title=" ">
<polygon fill="none" stroke="#bfbfbf" points="1049.5,-235.5 1049.5,-254.5 1199.5,-254.5 1199.5,-235.5 1049.5,-235.5"/>
<text text-anchor="middle" x="1124.5" y="-242.5" font-family="Helvetica,sans-Serif" font-size="10.00">boost/program_options.hpp</text>
</a>
</g>
</g>
<!-- Node2&#45;&gt;Node58 -->
<g id="edge49" class="edge">
<title>Node2&#45;&gt;Node58</title>
<path fill="none" stroke="midnightblue" d="M1063.23,-291.32C1074.34,-283.11 1091.24,-270.6 1104.48,-260.81"/>
<polygon fill="midnightblue" stroke="midnightblue" points="1106.6,-263.59 1112.56,-254.83 1102.44,-257.97 1106.6,-263.59"/>
</g>
<!-- Node4 -->
<g id="node4" class="node">
<title>Node4</title>
<g id="a_node4"><a xlink:href="_o_m_sim_optical_module_8hh_source.html" target="_top" xlink:title=" ">
<polygon fill="none" stroke="black" points="549,-179.5 549,-198.5 686,-198.5 686,-179.5 549,-179.5"/>
<text text-anchor="middle" x="617.5" y="-186.5" font-family="Helvetica,sans-Serif" font-size="10.00">OMSimOpticalModule.hh</text>
</a>
</g>
</g>
<!-- Node3&#45;&gt;Node4 -->
<g id="edge3" class="edge">
<title>Node3&#45;&gt;Node4</title>
<path fill="none" stroke="midnightblue" d="M398.7,-235.44C444.15,-226 517.34,-210.8 566.41,-200.61"/>
<polygon fill="midnightblue" stroke="midnightblue" points="567.42,-203.98 576.49,-198.52 565.99,-197.12 567.42,-203.98"/>
</g>
<!-- Node37 -->
<g id="node18" class="node">
<title>Node37</title>
<g id="a_node18"><a xlink:title=" ">
<polygon fill="none" stroke="#bfbfbf" points="272.5,-179.5 272.5,-198.5 334.5,-198.5 334.5,-179.5 272.5,-179.5"/>
<text text-anchor="middle" x="303.5" y="-186.5" font-family="Helvetica,sans-Serif" font-size="10.00">G4Orb.hh</text>
</a>
</g>
</g>
<!-- Node3&#45;&gt;Node37 -->
<g id="edge20" class="edge">
<title>Node3&#45;&gt;Node37</title>
<path fill="none" stroke="midnightblue" d="M348.58,-235.08C340.72,-227.22 329.07,-215.57 319.58,-206.08"/>
<polygon fill="midnightblue" stroke="midnightblue" points="321.8,-203.35 312.25,-198.75 316.85,-208.3 321.8,-203.35"/>
</g>
<!-- Node38 -->
<g id="node19" class="node">
<title>Node38</title>
<g id="a_node19"><a xlink:title=" ">
<polygon fill="none" stroke="#bfbfbf" points="352.5,-179.5 352.5,-198.5 530.5,-198.5 530.5,-179.5 352.5,-179.5"/>
<text text-anchor="middle" x="441.5" y="-186.5" font-family="Helvetica,sans-Serif" font-size="10.00">G4VUserDetectorConstruction.hh</text>
</a>
</g>
</g>
<!-- Node3&#45;&gt;Node38 -->
<g id="edge21" class="edge">
<title>Node3&#45;&gt;Node38</title>
<path fill="none" stroke="midnightblue" d="M371,-235.32C384.1,-226.9 404.21,-213.97 419.61,-204.07"/>
<polygon fill="midnightblue" stroke="midnightblue" points="421.52,-207.01 428.04,-198.65 417.73,-201.12 421.52,-207.01"/>
</g>
<!-- Node5 -->
<g id="node5" class="node">
<title>Node5</title>
<g id="a_node5"><a xlink:href="abc_detector_component_8hh.html" target="_top" xlink:title="Provides helper base class abcDetectorComponent for constructing and managing detector components in ...">
<polygon fill="none" stroke="red" points="682,-62 682,-81 829,-81 829,-62 682,-62"/>
<text text-anchor="middle" x="755.5" y="-69" font-family="Helvetica,sans-Serif" font-size="10.00">abcDetectorComponent.hh</text>
</a>
</g>
</g>
<!-- Node4&#45;&gt;Node5 -->
<g id="edge4" class="edge">
<title>Node4&#45;&gt;Node5</title>
<path fill="none" stroke="midnightblue" d="M647.37,-179.44C668.08,-172.33 695.29,-160.51 714.5,-143 730.31,-128.58 741.74,-106.62 748.46,-91.04"/>
<polygon fill="midnightblue" stroke="midnightblue" points="751.83,-92.03 752.35,-81.45 745.34,-89.4 751.83,-92.03"/>
</g>
<!-- Node4&#45;&gt;Node26 -->
<g id="edge5" class="edge">
<title>Node4&#45;&gt;Node26</title>
<path fill="none" stroke="midnightblue" d="M582.01,-179.44C543.18,-170.08 480.84,-155.06 438.58,-144.87"/>
<polygon fill="midnightblue" stroke="midnightblue" points="439.37,-141.46 428.83,-142.52 437.73,-148.26 439.37,-141.46"/>
</g>
<!-- Node34 -->
<g id="node17" class="node">
<title>Node34</title>
<g id="a_node17"><a xlink:href="_o_m_sim_p_m_t_construction_8hh.html" target="_top" xlink:title="Construction of the PMTs.">
<polygon fill="none" stroke="red" points="539,-123.5 539,-142.5 688,-142.5 688,-123.5 539,-123.5"/>
<text text-anchor="middle" x="613.5" y="-130.5" font-family="Helvetica,sans-Serif" font-size="10.00">OMSimPMTConstruction.hh</text>
</a>
</g>
</g>
<!-- Node4&#45;&gt;Node34 -->
<g id="edge16" class="edge">
<title>Node4&#45;&gt;Node34</title>
<path fill="none" stroke="midnightblue" d="M616.84,-179.08C616.32,-172.01 615.56,-161.86 614.91,-152.99"/>
<polygon fill="midnightblue" stroke="midnightblue" points="618.38,-152.47 614.15,-142.75 611.4,-152.98 618.38,-152.47"/>
</g>
<!-- Node27 -->
<g id="node7" class="node">
<title>Node27</title>
<g id="a_node7"><a xlink:href="_o_m_sim_p_m_t_response_8hh.html" target="_top" xlink:title="Simulation of PMT response.">
<polygon fill="none" stroke="black" points="529,-62 529,-81 664,-81 664,-62 529,-62"/>
<text text-anchor="middle" x="596.5" y="-69" font-family="Helvetica,sans-Serif" font-size="10.00">OMSimPMTResponse.hh</text>
</a>
</g>
</g>
<!-- Node26&#45;&gt;Node27 -->
<g id="edge6" class="edge">
<title>Node26&#45;&gt;Node27</title>
<path fill="none" stroke="midnightblue" d="M422.58,-123.48C458.08,-113.07 518.25,-95.44 557.67,-83.88"/>
<polygon fill="midnightblue" stroke="midnightblue" points="558.86,-87.18 567.47,-81.01 556.89,-80.46 558.86,-87.18"/>
</g>
<!-- Node32 -->
<g id="node13" class="node">
<title>Node32</title>
<g id="a_node13"><a xlink:title=" ">
<polygon fill="none" stroke="#bfbfbf" points="113,-62 113,-81 216,-81 216,-62 113,-62"/>
<text text-anchor="middle" x="164.5" y="-69" font-family="Helvetica,sans-Serif" font-size="10.00">G4ThreeVector.hh</text>
</a>
</g>
</g>
<!-- Node26&#45;&gt;Node32 -->
<g id="edge12" class="edge">
<title>Node26&#45;&gt;Node32</title>
<path fill="none" stroke="midnightblue" d="M360.69,-123.48C320.3,-112.98 251.62,-95.14 207.17,-83.59"/>
<polygon fill="midnightblue" stroke="midnightblue" points="207.81,-80.14 197.25,-81.01 206.05,-86.91 207.81,-80.14"/>
</g>
<!-- Node33 -->
<g id="node14" class="node">
<title>Node33</title>
<g id="a_node14"><a xlink:title=" ">
<polygon fill="none" stroke="#bfbfbf" points="343,-62 343,-81 398,-81 398,-62 343,-62"/>
<text text-anchor="middle" x="370.5" y="-69" font-family="Helvetica,sans-Serif" font-size="10.00">fstream</text>
</a>
</g>
</g>
<!-- Node26&#45;&gt;Node33 -->
<g id="edge13" class="edge">
<title>Node26&#45;&gt;Node33</title>
<path fill="none" stroke="midnightblue" d="M390.2,-123.48C386.89,-114.9 381.68,-101.43 377.45,-90.48"/>
<polygon fill="midnightblue" stroke="midnightblue" points="380.66,-89.07 373.79,-81.01 374.13,-91.6 380.66,-89.07"/>
</g>
<!-- Node18 -->
<g id="node15" class="node">
<title>Node18</title>
<g id="a_node15"><a xlink:title=" ">
<polygon fill="none" stroke="#bfbfbf" points="234.5,-62 234.5,-81 324.5,-81 324.5,-62 234.5,-62"/>
<text text-anchor="middle" x="279.5" y="-69" font-family="Helvetica,sans-Serif" font-size="10.00">G4AutoLock.hh</text>
</a>
</g>
</g>
<!-- Node26&#45;&gt;Node18 -->
<g id="edge14" class="edge">
<title>Node26&#45;&gt;Node18</title>
<path fill="none" stroke="midnightblue" d="M377.17,-123.48C358.29,-113.62 326.99,-97.29 304.92,-85.77"/>
<polygon fill="midnightblue" stroke="midnightblue" points="306.29,-82.53 295.8,-81.01 303.05,-88.74 306.29,-82.53"/>
</g>
<!-- Node19 -->
<g id="node16" class="node">
<title>Node19</title>
<g id="a_node16"><a xlink:title=" ">
<polygon fill="none" stroke="#bfbfbf" points="416.5,-62 416.5,-81 510.5,-81 510.5,-62 416.5,-62"/>
<text text-anchor="middle" x="463.5" y="-69" font-family="Helvetica,sans-Serif" font-size="10.00">G4Threading.hh</text>
</a>
</g>
</g>
<!-- Node26&#45;&gt;Node19 -->
<g id="edge15" class="edge">
<title>Node26&#45;&gt;Node19</title>
<path fill="none" stroke="midnightblue" d="M403.53,-123.48C414.55,-114.11 432.46,-98.88 445.84,-87.51"/>
<polygon fill="midnightblue" stroke="midnightblue" points="448.14,-90.15 453.49,-81.01 443.6,-84.82 448.14,-90.15"/>
</g>
<!-- Node20 -->
<g id="node8" class="node">
<title>Node20</title>
<g id="a_node8"><a xlink:title=" ">
<polygon fill="none" stroke="#bfbfbf" points="406,-0.5 406,-19.5 525,-19.5 525,-0.5 406,-0.5"/>
<text text-anchor="middle" x="465.5" y="-7.5" font-family="Helvetica,sans-Serif" font-size="10.00">G4SystemOfUnits.hh</text>
</a>
</g>
</g>
<!-- Node27&#45;&gt;Node20 -->
<g id="edge7" class="edge">
<title>Node27&#45;&gt;Node20</title>
<path fill="none" stroke="midnightblue" d="M577.73,-61.98C555.65,-51.95 518.78,-35.2 493.36,-23.65"/>
<polygon fill="midnightblue" stroke="midnightblue" points="494.79,-20.46 484.23,-19.51 491.89,-26.83 494.79,-20.46"/>
</g>
<!-- Node28 -->
<g id="node9" class="node">
<title>Node28</title>
<g id="a_node9"><a xlink:title=" ">
<polygon fill="none" stroke="#bfbfbf" points="199,-0.5 199,-19.5 272,-19.5 272,-0.5 199,-0.5"/>
<text text-anchor="middle" x="235.5" y="-7.5" font-family="Helvetica,sans-Serif" font-size="10.00">G4Types.hh</text>
</a>
</g>
</g>
<!-- Node27&#45;&gt;Node28 -->
<g id="edge8" class="edge">
<title>Node27&#45;&gt;Node28</title>
<path fill="none" stroke="midnightblue" d="M552.56,-62C541.76,-59.97 530.22,-57.86 519.5,-56 436.15,-41.55 338.71,-26.51 282.35,-18"/>
<polygon fill="midnightblue" stroke="midnightblue" points="282.73,-14.52 272.32,-16.49 281.69,-21.44 282.73,-14.52"/>
</g>
<!-- Node29 -->
<g id="node10" class="node">
<title>Node29</title>
<g id="a_node10"><a xlink:title=" ">
<polygon fill="none" stroke="#bfbfbf" points="543.5,-0.5 543.5,-19.5 581.5,-19.5 581.5,-0.5 543.5,-0.5"/>
<text text-anchor="middle" x="562.5" y="-7.5" font-family="Helvetica,sans-Serif" font-size="10.00">map</text>
</a>
</g>
</g>
<!-- Node27&#45;&gt;Node29 -->
<g id="edge9" class="edge">
<title>Node27&#45;&gt;Node29</title>
<path fill="none" stroke="midnightblue" d="M591.63,-61.98C586.63,-53.23 578.71,-39.37 572.39,-28.31"/>
<polygon fill="midnightblue" stroke="midnightblue" points="575.36,-26.46 567.36,-19.51 569.28,-29.93 575.36,-26.46"/>
</g>
<!-- Node30 -->
<g id="node11" class="node">
<title>Node30</title>
<g id="a_node11"><a xlink:title=" ">
<polygon fill="none" stroke="#bfbfbf" points="600,-0.5 600,-19.5 661,-19.5 661,-0.5 600,-0.5"/>
<text text-anchor="middle" x="630.5" y="-7.5" font-family="Helvetica,sans-Serif" font-size="10.00">TGraph.h</text>
</a>
</g>
</g>
<!-- Node27&#45;&gt;Node30 -->
<g id="edge10" class="edge">
<title>Node27&#45;&gt;Node30</title>
<path fill="none" stroke="midnightblue" d="M601.37,-61.98C606.37,-53.23 614.29,-39.37 620.61,-28.31"/>
<polygon fill="midnightblue" stroke="midnightblue" points="623.72,-29.93 625.64,-19.51 617.64,-26.46 623.72,-29.93"/>
</g>
<!-- Node31 -->
<g id="node12" class="node">
<title>Node31</title>
<g id="a_node12"><a xlink:title=" ">
<polygon fill="none" stroke="#bfbfbf" points="679,-0.5 679,-19.5 732,-19.5 732,-0.5 679,-0.5"/>
<text text-anchor="middle" x="705.5" y="-7.5" font-family="Helvetica,sans-Serif" font-size="10.00">TH2D.h</text>
</a>
</g>
</g>
<!-- Node27&#45;&gt;Node31 -->
<g id="edge11" class="edge">
<title>Node27&#45;&gt;Node31</title>
<path fill="none" stroke="midnightblue" d="M612.12,-61.98C630.09,-52.17 659.82,-35.93 680.91,-24.42"/>
<polygon fill="midnightblue" stroke="midnightblue" points="682.81,-27.37 689.91,-19.51 679.46,-21.23 682.81,-27.37"/>
</g>
<!-- Node34&#45;&gt;Node5 -->
<g id="edge17" class="edge">
<title>Node34&#45;&gt;Node5</title>
<path fill="none" stroke="midnightblue" d="M633.85,-123.48C657.89,-113.4 698.1,-96.55 725.66,-85"/>
<polygon fill="midnightblue" stroke="midnightblue" points="727.32,-88.1 735.19,-81.01 724.62,-81.65 727.32,-88.1"/>
</g>
<!-- Node34&#45;&gt;Node27 -->
<g id="edge19" class="edge">
<title>Node34&#45;&gt;Node27</title>
<path fill="none" stroke="midnightblue" d="M611.06,-123.48C608.64,-114.99 604.84,-101.7 601.73,-90.82"/>
<polygon fill="midnightblue" stroke="midnightblue" points="605.04,-89.66 598.93,-81.01 598.31,-91.59 605.04,-89.66"/>
</g>
<!-- Node34&#45;&gt;Node34 -->
<g id="edge18" class="edge">
<title>Node34&#45;&gt;Node34</title>
<path fill="none" stroke="midnightblue" d="M652.95,-142.53C679.76,-145.31 706,-142.13 706,-133 706,-125.01 685.91,-121.58 662.93,-122.71"/>
<polygon fill="midnightblue" stroke="midnightblue" points="662.65,-119.22 652.95,-123.47 663.19,-126.2 662.65,-119.22"/>
</g>
<!-- Node41&#45;&gt;Node26 -->
<g id="edge26" class="edge">
<title>Node41&#45;&gt;Node26</title>
<path fill="none" stroke="midnightblue" d="M904.28,-182.47C799.39,-172.52 579.02,-151.61 465.09,-140.79"/>
<polygon fill="midnightblue" stroke="midnightblue" points="465.36,-137.3 455.07,-139.84 464.7,-144.27 465.36,-137.3"/>
</g>
<!-- Node42 -->
<g id="node23" class="node">
<title>Node42</title>
<g id="a_node23"><a xlink:title=" ">
<polygon fill="none" stroke="#bfbfbf" points="844,-123.5 844,-142.5 961,-142.5 961,-123.5 844,-123.5"/>
<text text-anchor="middle" x="902.5" y="-130.5" font-family="Helvetica,sans-Serif" font-size="10.00">G4UserRunAction.hh</text>
</a>
</g>
</g>
<!-- Node41&#45;&gt;Node42 -->
<g id="edge25" class="edge">
<title>Node41&#45;&gt;Node42</title>
<path fill="none" stroke="midnightblue" d="M952.86,-179.32C943.99,-171.34 930.63,-159.31 919.89,-149.65"/>
<polygon fill="midnightblue" stroke="midnightblue" points="922.09,-146.92 912.32,-142.83 917.41,-152.13 922.09,-146.92"/>
</g>
<!-- Node7 -->
<g id="node24" class="node">
<title>Node7</title>
<g id="a_node24"><a xlink:href="_o_m_sim_logger_8hh_source.html" target="_top" xlink:title=" ">
<polygon fill="none" stroke="black" points="1122,-123.5 1122,-142.5 1221,-142.5 1221,-123.5 1122,-123.5"/>
<text text-anchor="middle" x="1171.5" y="-130.5" font-family="Helvetica,sans-Serif" font-size="10.00">OMSimLogger.hh</text>
</a>
</g>
</g>
<!-- Node41&#45;&gt;Node7 -->
<g id="edge27" class="edge">
<title>Node41&#45;&gt;Node7</title>
<path fill="none" stroke="midnightblue" d="M995.62,-179.44C1031.62,-170.14 1089.27,-155.25 1128.69,-145.06"/>
<polygon fill="midnightblue" stroke="midnightblue" points="1129.73,-148.41 1138.54,-142.52 1127.98,-141.63 1129.73,-148.41"/>
</g>
<!-- Node43 -->
<g id="node29" class="node">
<title>Node43</title>
<g id="a_node29"><a xlink:title=" ">
<polygon fill="none" stroke="#bfbfbf" points="979.5,-123.5 979.5,-142.5 1065.5,-142.5 1065.5,-123.5 979.5,-123.5"/>
<text text-anchor="middle" x="1022.5" y="-130.5" font-family="Helvetica,sans-Serif" font-size="10.00">Randomize.hh</text>
</a>
</g>
</g>
<!-- Node41&#45;&gt;Node43 -->
<g id="edge32" class="edge">
<title>Node41&#45;&gt;Node43</title>
<path fill="none" stroke="midnightblue" d="M972.14,-179.32C981.01,-171.34 994.37,-159.31 1005.11,-149.65"/>
<polygon fill="midnightblue" stroke="midnightblue" points="1007.59,-152.13 1012.68,-142.83 1002.91,-146.92 1007.59,-152.13"/>
</g>
<!-- Node44 -->
<g id="node30" class="node">
<title>Node44</title>
<g id="a_node30"><a xlink:title=" ">
<polygon fill="none" stroke="#bfbfbf" points="761.5,-123.5 761.5,-142.5 825.5,-142.5 825.5,-123.5 761.5,-123.5"/>
<text text-anchor="middle" x="793.5" y="-130.5" font-family="Helvetica,sans-Serif" font-size="10.00">G4Run.hh</text>
</a>
</g>
</g>
<!-- Node41&#45;&gt;Node44 -->
<g id="edge33" class="edge">
<title>Node41&#45;&gt;Node44</title>
<path fill="none" stroke="midnightblue" d="M935.72,-179.44C907.17,-170.32 861.77,-155.81 829.96,-145.65"/>
<polygon fill="midnightblue" stroke="midnightblue" points="830.74,-142.23 820.15,-142.52 828.61,-148.89 830.74,-142.23"/>
</g>
<!-- Node8 -->
<g id="node25" class="node">
<title>Node8</title>
<g id="a_node25"><a xlink:title=" ">
<polygon fill="none" stroke="#bfbfbf" points="953,-62 953,-81 1046,-81 1046,-62 953,-62"/>
<text text-anchor="middle" x="999.5" y="-69" font-family="Helvetica,sans-Serif" font-size="10.00">spdlog/spdlog.h</text>
</a>
</g>
</g>
<!-- Node7&#45;&gt;Node8 -->
<g id="edge28" class="edge">
<title>Node7&#45;&gt;Node8</title>
<path fill="none" stroke="midnightblue" d="M1146.86,-123.48C1117.22,-113.22 1067.32,-95.96 1033.9,-84.4"/>
<polygon fill="midnightblue" stroke="midnightblue" points="1034.69,-80.97 1024.1,-81.01 1032.4,-87.59 1034.69,-80.97"/>
</g>
<!-- Node9 -->
<g id="node26" class="node">
<title>Node9</title>
<g id="a_node26"><a xlink:title=" ">
<polygon fill="none" stroke="#bfbfbf" points="1064,-56.5 1064,-86.5 1175,-86.5 1175,-56.5 1064,-56.5"/>
<text text-anchor="start" x="1072" y="-74.5" font-family="Helvetica,sans-Serif" font-size="10.00">spdlog/sinks/stdout</text>
<text text-anchor="middle" x="1119.5" y="-63.5" font-family="Helvetica,sans-Serif" font-size="10.00">_color_sinks.h</text>
</a>
</g>
</g>
<!-- Node7&#45;&gt;Node9 -->
<g id="edge29" class="edge">
<title>Node7&#45;&gt;Node9</title>
<path fill="none" stroke="midnightblue" d="M1164.05,-123.48C1157.4,-115.87 1147.38,-104.4 1138.52,-94.26"/>
<polygon fill="midnightblue" stroke="midnightblue" points="1140.97,-91.75 1131.76,-86.52 1135.7,-96.36 1140.97,-91.75"/>
</g>
<!-- Node10 -->
<g id="node27" class="node">
<title>Node10</title>
<g id="a_node27"><a xlink:title=" ">
<polygon fill="none" stroke="#bfbfbf" points="1193.5,-62 1193.5,-81 1251.5,-81 1251.5,-62 1193.5,-62"/>
<text text-anchor="middle" x="1222.5" y="-69" font-family="Helvetica,sans-Serif" font-size="10.00">memory</text>
</a>
</g>
</g>
<!-- Node7&#45;&gt;Node10 -->
<g id="edge30" class="edge">
<title>Node7&#45;&gt;Node10</title>
<path fill="none" stroke="midnightblue" d="M1178.81,-123.48C1186.53,-114.46 1198.91,-100.02 1208.52,-88.81"/>
<polygon fill="midnightblue" stroke="midnightblue" points="1211.36,-90.88 1215.21,-81.01 1206.04,-86.32 1211.36,-90.88"/>
</g>
<!-- Node11 -->
<g id="node28" class="node">
<title>Node11</title>
<g id="a_node28"><a xlink:title=" ">
<polygon fill="none" stroke="#bfbfbf" points="1269.5,-62 1269.5,-81 1367.5,-81 1367.5,-62 1269.5,-62"/>
<text text-anchor="middle" x="1318.5" y="-69" font-family="Helvetica,sans-Serif" font-size="10.00">spdlog/fmt/fmt.h</text>
</a>
</g>
</g>
<!-- Node7&#45;&gt;Node11 -->
<g id="edge31" class="edge">
<title>Node7&#45;&gt;Node11</title>
<path fill="none" stroke="midnightblue" d="M1192.56,-123.48C1217.56,-113.36 1259.44,-96.4 1287.99,-84.85"/>
<polygon fill="midnightblue" stroke="midnightblue" points="1289.52,-88.01 1297.48,-81.01 1286.89,-81.52 1289.52,-88.01"/>
</g>
<!-- Node47 -->
<g id="node33" class="node">
<title>Node47</title>
<g id="a_node33"><a xlink:title=" ">
<polygon fill="none" stroke="#bfbfbf" points="1676,-179.5 1676,-198.5 1815,-198.5 1815,-179.5 1676,-179.5"/>
<text text-anchor="middle" x="1745.5" y="-186.5" font-family="Helvetica,sans-Serif" font-size="10.00">G4UserTrackingAction.hh</text>
</a>
</g>
</g>
<!-- Node46&#45;&gt;Node47 -->
<g id="edge36" class="edge">
<title>Node46&#45;&gt;Node47</title>
<path fill="none" stroke="midnightblue" d="M1746.33,-235.08C1746.2,-228.01 1746.02,-217.86 1745.85,-208.99"/>
<polygon fill="midnightblue" stroke="midnightblue" points="1749.35,-208.68 1745.66,-198.75 1742.35,-208.81 1749.35,-208.68"/>
</g>
<!-- Node49 -->
<g id="node35" class="node">
<title>Node49</title>
<g id="a_node35"><a xlink:title=" ">
<polygon fill="none" stroke="#bfbfbf" points="1833,-179.5 1833,-198.5 1974,-198.5 1974,-179.5 1833,-179.5"/>
<text text-anchor="middle" x="1903.5" y="-186.5" font-family="Helvetica,sans-Serif" font-size="10.00">G4UserSteppingAction.hh</text>
</a>
</g>
</g>
<!-- Node48&#45;&gt;Node49 -->
<g id="edge38" class="edge">
<title>Node48&#45;&gt;Node49</title>
<path fill="none" stroke="midnightblue" d="M1903.5,-235.08C1903.5,-228.01 1903.5,-217.86 1903.5,-208.99"/>
<polygon fill="midnightblue" stroke="midnightblue" points="1907,-208.75 1903.5,-198.75 1900,-208.75 1907,-208.75"/>
</g>
<!-- Node51 -->
<g id="node37" class="node">
<title>Node51</title>
<g id="a_node37"><a xlink:href="_o_m_sim_command_args_table_8hh.html" target="_top" xlink:title="Definition of the OMSimCommandArgsTable singleton class, which controls user args.">
<polygon fill="none" stroke="black" points="1144.5,-179.5 1144.5,-198.5 1308.5,-198.5 1308.5,-179.5 1144.5,-179.5"/>
<text text-anchor="middle" x="1226.5" y="-186.5" font-family="Helvetica,sans-Serif" font-size="10.00">OMSimCommandArgsTable.hh</text>
</a>
</g>
</g>
<!-- Node50&#45;&gt;Node51 -->
<g id="edge40" class="edge">
<title>Node50&#45;&gt;Node51</title>
<path fill="none" stroke="midnightblue" d="M1302.04,-235.32C1288,-226.9 1266.45,-213.97 1249.96,-204.07"/>
<polygon fill="midnightblue" stroke="midnightblue" points="1251.3,-200.8 1240.92,-198.65 1247.7,-206.8 1251.3,-200.8"/>
</g>
<!-- Node54 -->
<g id="node40" class="node">
<title>Node54</title>
<g id="a_node40"><a xlink:title=" ">
<polygon fill="none" stroke="#bfbfbf" points="1326.5,-179.5 1326.5,-198.5 1424.5,-198.5 1424.5,-179.5 1326.5,-179.5"/>
<text text-anchor="middle" x="1375.5" y="-186.5" font-family="Helvetica,sans-Serif" font-size="10.00">G4UImanager.hh</text>
</a>
</g>
</g>
<!-- Node50&#45;&gt;Node54 -->
<g id="edge45" class="edge">
<title>Node50&#45;&gt;Node54</title>
<path fill="none" stroke="midnightblue" d="M1325.98,-235.32C1334.7,-227.34 1347.84,-215.31 1358.4,-205.65"/>
<polygon fill="midnightblue" stroke="midnightblue" points="1360.83,-208.17 1365.85,-198.83 1356.11,-203 1360.83,-208.17"/>
</g>
<!-- Node51&#45;&gt;Node33 -->
<g id="edge42" class="edge">
<title>Node51&#45;&gt;Node33</title>
<path fill="none" stroke="midnightblue" d="M1202.61,-179.43C1179.32,-170.88 1143.06,-157.02 1112.5,-143 1095.15,-135.04 1092.9,-128.08 1074.5,-123 788.32,-44.04 697.62,-149.96 407.5,-87 404.5,-86.35 401.42,-85.48 398.38,-84.5"/>
<polygon fill="midnightblue" stroke="midnightblue" points="399.56,-81.2 388.96,-81.07 397.16,-87.78 399.56,-81.2"/>
</g>
<!-- Node51&#45;&gt;Node7 -->
<g id="edge41" class="edge">
<title>Node51&#45;&gt;Node7</title>
<path fill="none" stroke="midnightblue" d="M1217.42,-179.08C1209.33,-171.14 1197.3,-159.34 1187.59,-149.8"/>
<polygon fill="midnightblue" stroke="midnightblue" points="1190,-147.26 1180.41,-142.75 1185.1,-152.25 1190,-147.26"/>
</g>
<!-- Node52 -->
<g id="node38" class="node">
<title>Node52</title>
<g id="a_node38"><a xlink:title=" ">
<polygon fill="none" stroke="#bfbfbf" points="1239.5,-123.5 1239.5,-142.5 1323.5,-142.5 1323.5,-123.5 1239.5,-123.5"/>
<text text-anchor="middle" x="1281.5" y="-130.5" font-family="Helvetica,sans-Serif" font-size="10.00">boost/any.hpp</text>
</a>
</g>
</g>
<!-- Node51&#45;&gt;Node52 -->
<g id="edge43" class="edge">
<title>Node51&#45;&gt;Node52</title>
<path fill="none" stroke="midnightblue" d="M1235.58,-179.08C1243.67,-171.14 1255.7,-159.34 1265.41,-149.8"/>
<polygon fill="midnightblue" stroke="midnightblue" points="1267.9,-152.25 1272.59,-142.75 1263,-147.26 1267.9,-152.25"/>
</g>
<!-- Node53 -->
<g id="node39" class="node">
<title>Node53</title>
<g id="a_node39"><a xlink:title=" ">
<polygon fill="none" stroke="#bfbfbf" points="1341.5,-123.5 1341.5,-142.5 1409.5,-142.5 1409.5,-123.5 1341.5,-123.5"/>
<text text-anchor="middle" x="1375.5" y="-130.5" font-family="Helvetica,sans-Serif" font-size="10.00">sys/time.h</text>
</a>
</g>
</g>
<!-- Node51&#45;&gt;Node53 -->
<g id="edge44" class="edge">
<title>Node51&#45;&gt;Node53</title>
<path fill="none" stroke="midnightblue" d="M1250.11,-179.44C1274.96,-170.44 1314.27,-156.19 1342.25,-146.05"/>
<polygon fill="midnightblue" stroke="midnightblue" points="1343.79,-149.21 1352,-142.52 1341.41,-142.63 1343.79,-149.21"/>
</g>
<!-- Node59&#45;&gt;Node26 -->
<g id="edge54" class="edge">
<title>Node59&#45;&gt;Node26</title>
<path fill="none" stroke="midnightblue" d="M193.21,-179.44C234.64,-170.04 301.26,-154.93 346.17,-144.74"/>
<polygon fill="midnightblue" stroke="midnightblue" points="346.99,-148.14 355.96,-142.52 345.44,-141.32 346.99,-148.14"/>
</g>
<!-- Node59&#45;&gt;Node28 -->
<g id="edge51" class="edge">
<title>Node59&#45;&gt;Node28</title>
<path fill="none" stroke="midnightblue" d="M135.59,-179.41C121.28,-172.04 103.04,-159.92 94.5,-143 84.36,-122.92 82.41,-81.67 103.5,-56 124.26,-30.73 159.86,-19.6 188.86,-14.72"/>
<polygon fill="midnightblue" stroke="midnightblue" points="189.44,-18.18 198.81,-13.25 188.41,-11.25 189.44,-18.18"/>
</g>
<!-- Node59&#45;&gt;Node32 -->
<g id="edge53" class="edge">
<title>Node59&#45;&gt;Node32</title>
<path fill="none" stroke="midnightblue" d="M156.18,-179.32C157.62,-160.76 161.05,-116.84 163.02,-91.47"/>
<polygon fill="midnightblue" stroke="midnightblue" points="166.53,-91.52 163.82,-81.28 159.55,-90.98 166.53,-91.52"/>
</g>
<!-- Node59&#45;&gt;Node33 -->
<g id="edge56" class="edge">
<title>Node59&#45;&gt;Node33</title>
<path fill="none" stroke="midnightblue" d="M163.45,-179.24C176.32,-165.52 203.07,-138.9 230.5,-123 272.46,-98.69 288.03,-103.85 333.5,-87 335.39,-86.3 337.34,-85.57 339.29,-84.83"/>
<polygon fill="midnightblue" stroke="midnightblue" points="340.96,-87.93 349.03,-81.07 338.44,-81.4 340.96,-87.93"/>
</g>
<!-- Node60 -->
<g id="node46" class="node">
<title>Node60</title>
<g id="a_node46"><a xlink:title=" ">
<polygon fill="none" stroke="#bfbfbf" points="239.5,-123.5 239.5,-142.5 313.5,-142.5 313.5,-123.5 239.5,-123.5"/>
<text text-anchor="middle" x="276.5" y="-130.5" font-family="Helvetica,sans-Serif" font-size="10.00">G4String.hh</text>
</a>
</g>
</g>
<!-- Node59&#45;&gt;Node60 -->
<g id="edge52" class="edge">
<title>Node59&#45;&gt;Node60</title>
<path fill="none" stroke="midnightblue" d="M174.67,-179.44C194.41,-170.64 225.39,-156.81 247.99,-146.72"/>
<polygon fill="midnightblue" stroke="midnightblue" points="249.71,-149.79 257.42,-142.52 246.86,-143.4 249.71,-149.79"/>
</g>
<!-- Node61 -->
<g id="node47" class="node">
<title>Node61</title>
<g id="a_node47"><a xlink:title=" ">
<polygon fill="none" stroke="#bfbfbf" points="0,-123.5 0,-142.5 47,-142.5 47,-123.5 0,-123.5"/>
<text text-anchor="middle" x="23.5" y="-130.5" font-family="Helvetica,sans-Serif" font-size="10.00">vector</text>
</a>
</g>
</g>
<!-- Node59&#45;&gt;Node61 -->
<g id="edge55" class="edge">
<title>Node59&#45;&gt;Node61</title>
<path fill="none" stroke="midnightblue" d="M134.58,-179.44C112.76,-170.52 78.35,-156.44 53.61,-146.32"/>
<polygon fill="midnightblue" stroke="midnightblue" points="54.9,-143.06 44.32,-142.52 52.25,-149.54 54.9,-143.06"/>
</g>
<!-- Node62 -->
<g id="node48" class="node">
<title>Node62</title>
<g id="a_node48"><a xlink:title=" ">
<polygon fill="none" stroke="#bfbfbf" points="104,-123.5 104,-142.5 145,-142.5 145,-123.5 104,-123.5"/>
<text text-anchor="middle" x="124.5" y="-130.5" font-family="Helvetica,sans-Serif" font-size="10.00">tuple</text>
</a>
</g>
</g>
<!-- Node59&#45;&gt;Node62 -->
<g id="edge57" class="edge">
<title>Node59&#45;&gt;Node62</title>
<path fill="none" stroke="midnightblue" d="M150.38,-179.08C146.09,-171.61 139.84,-160.72 134.56,-151.52"/>
<polygon fill="midnightblue" stroke="midnightblue" points="137.54,-149.68 129.52,-142.75 131.47,-153.17 137.54,-149.68"/>
</g>
<!-- Node64&#45;&gt;Node3 -->
<g id="edge62" class="edge">
<title>Node64&#45;&gt;Node3</title>
<path fill="none" stroke="midnightblue" d="M377.54,-291.08C374.29,-283.77 369.58,-273.18 365.55,-264.1"/>
<polygon fill="midnightblue" stroke="midnightblue" points="368.65,-262.47 361.39,-254.75 362.25,-265.31 368.65,-262.47"/>
</g>
</g>
</svg>
