<?xml version="1.0" encoding="UTF-8" standalone="no"?>
<!DOCTYPE svg PUBLIC "-//W3C//DTD SVG 1.1//EN"
 "http://www.w3.org/Graphics/SVG/1.1/DTD/svg11.dtd">
<!-- Generated by graphviz version 2.43.0 (0)
 -->
<!-- Title: OMSimDEGG.cc Pages: 1 -->
<svg width="3080pt" height="431pt"
 viewBox="0.00 0.00 3079.50 431.00" xmlns="http://www.w3.org/2000/svg" xmlns:xlink="http://www.w3.org/1999/xlink">
<g id="graph0" class="graph" transform="scale(1 1) rotate(0) translate(4 427)">
<title>OMSimDEGG.cc</title>
<polygon fill="white" stroke="transparent" points="-4,4 -4,-427 3075.5,-427 3075.5,4 -4,4"/>
<!-- Node1 -->
<g id="node1" class="node">
<title>Node1</title>
<g id="a_node1"><a xlink:title=" ">
<polygon fill="#bfbfbf" stroke="black" points="1163.5,-403.5 1163.5,-422.5 1257.5,-422.5 1257.5,-403.5 1163.5,-403.5"/>
<text text-anchor="middle" x="1210.5" y="-410.5" font-family="Helvetica,sans-Serif" font-size="10.00">OMSimDEGG.cc</text>
</a>
</g>
</g>
<!-- Node2 -->
<g id="node2" class="node">
<title>Node2</title>
<g id="a_node2"><a xlink:href="_o_m_sim_d_e_g_g_8hh.html" target="_top" xlink:title="Construction of the DEGG class. From DOUMEKI.">
<polygon fill="white" stroke="black" points="537,-347.5 537,-366.5 632,-366.5 632,-347.5 537,-347.5"/>
<text text-anchor="middle" x="584.5" y="-354.5" font-family="Helvetica,sans-Serif" font-size="10.00">OMSimDEGG.hh</text>
</a>
</g>
</g>
<!-- Node1&#45;&gt;Node2 -->
<g id="edge1" class="edge">
<title>Node1&#45;&gt;Node2</title>
<path fill="none" stroke="midnightblue" d="M1163.45,-407.94C1050.61,-398.21 764.88,-373.56 642.06,-362.97"/>
<polygon fill="midnightblue" stroke="midnightblue" points="642.36,-359.48 632.1,-362.11 641.76,-366.45 642.36,-359.48"/>
</g>
<!-- Node6 -->
<g id="node6" class="node">
<title>Node6</title>
<g id="a_node6"><a xlink:href="_o_m_sim_logger_8hh.html" target="_top" xlink:title=" ">
<polygon fill="white" stroke="black" points="1191,-67.5 1191,-86.5 1290,-86.5 1290,-67.5 1191,-67.5"/>
<text text-anchor="middle" x="1240.5" y="-74.5" font-family="Helvetica,sans-Serif" font-size="10.00">OMSimLogger.hh</text>
</a>
</g>
</g>
<!-- Node1&#45;&gt;Node6 -->
<g id="edge54" class="edge">
<title>Node1&#45;&gt;Node6</title>
<path fill="none" stroke="midnightblue" d="M1188.21,-403.5C1153.51,-388.63 1090.5,-354.43 1090.5,-302 1090.5,-302 1090.5,-302 1090.5,-188 1090.5,-134.71 1152.83,-104.41 1197.13,-89.61"/>
<polygon fill="midnightblue" stroke="midnightblue" points="1198.37,-92.89 1206.84,-86.52 1196.25,-86.22 1198.37,-92.89"/>
</g>
<!-- Node31 -->
<g id="node29" class="node">
<title>Node31</title>
<g id="a_node29"><a xlink:href="_c_a_d_mesh_8hh.html" target="_top" xlink:title=" ">
<polygon fill="white" stroke="black" points="1977,-235.5 1977,-254.5 2056,-254.5 2056,-235.5 1977,-235.5"/>
<text text-anchor="middle" x="2016.5" y="-242.5" font-family="Helvetica,sans-Serif" font-size="10.00">CADMesh.hh</text>
</a>
</g>
</g>
<!-- Node1&#45;&gt;Node31 -->
<g id="edge33" class="edge">
<title>Node1&#45;&gt;Node31</title>
<path fill="none" stroke="midnightblue" d="M1213.06,-403.09C1217.72,-388.66 1229.03,-360.43 1249.5,-347 1368.35,-269.02 1815.03,-250.94 1966.16,-247.02"/>
<polygon fill="midnightblue" stroke="midnightblue" points="1966.61,-250.51 1976.52,-246.76 1966.44,-243.51 1966.61,-250.51"/>
</g>
<!-- Node48 -->
<g id="node46" class="node">
<title>Node48</title>
<g id="a_node46"><a xlink:href="_o_m_sim_command_args_table_8hh.html" target="_top" xlink:title="Definition of the OMSimCommandArgsTable singleton class, which controls user args.">
<polygon fill="white" stroke="black" points="1172.5,-235.5 1172.5,-254.5 1336.5,-254.5 1336.5,-235.5 1172.5,-235.5"/>
<text text-anchor="middle" x="1254.5" y="-242.5" font-family="Helvetica,sans-Serif" font-size="10.00">OMSimCommandArgsTable.hh</text>
</a>
</g>
</g>
<!-- Node1&#45;&gt;Node48 -->
<g id="edge55" class="edge">
<title>Node1&#45;&gt;Node48</title>
<path fill="none" stroke="midnightblue" d="M1208.98,-403.39C1205.78,-382.99 1199.84,-330.48 1215.5,-291 1219.9,-279.9 1228.27,-269.66 1236.13,-261.76"/>
<polygon fill="midnightblue" stroke="midnightblue" points="1238.76,-264.09 1243.66,-254.69 1233.97,-258.98 1238.76,-264.09"/>
</g>
<!-- Node51 -->
<g id="node49" class="node">
<title>Node51</title>
<g id="a_node49"><a xlink:title=" ">
<polygon fill="white" stroke="#bfbfbf" points="1258,-347.5 1258,-366.5 1337,-366.5 1337,-347.5 1258,-347.5"/>
<text text-anchor="middle" x="1297.5" y="-354.5" font-family="Helvetica,sans-Serif" font-size="10.00">G4Sphere.hh</text>
</a>
</g>
</g>
<!-- Node1&#45;&gt;Node51 -->
<g id="edge60" class="edge">
<title>Node1&#45;&gt;Node51</title>
<path fill="none" stroke="midnightblue" d="M1224.48,-403.32C1238.05,-394.9 1258.88,-381.97 1274.82,-372.07"/>
<polygon fill="midnightblue" stroke="midnightblue" points="1276.91,-374.9 1283.56,-366.65 1273.21,-368.95 1276.91,-374.9"/>
</g>
<!-- Node52 -->
<g id="node50" class="node">
<title>Node52</title>
<g id="a_node50"><a xlink:title=" ">
<polygon fill="white" stroke="#bfbfbf" points="1355,-347.5 1355,-366.5 1444,-366.5 1444,-347.5 1355,-347.5"/>
<text text-anchor="middle" x="1399.5" y="-354.5" font-family="Helvetica,sans-Serif" font-size="10.00">G4Polycone.hh</text>
</a>
</g>
</g>
<!-- Node1&#45;&gt;Node52 -->
<g id="edge61" class="edge">
<title>Node1&#45;&gt;Node52</title>
<path fill="none" stroke="midnightblue" d="M1240.45,-403.44C1272.66,-394.24 1324.03,-379.56 1359.64,-369.39"/>
<polygon fill="midnightblue" stroke="midnightblue" points="1361.04,-372.63 1369.69,-366.52 1359.12,-365.9 1361.04,-372.63"/>
</g>
<!-- Node3 -->
<g id="node3" class="node">
<title>Node3</title>
<g id="a_node3"><a xlink:href="_o_m_sim_p_m_t_construction_8hh.html" target="_top" xlink:title="Construction of the PMTs.">
<polygon fill="white" stroke="black" points="390,-235.5 390,-254.5 539,-254.5 539,-235.5 390,-235.5"/>
<text text-anchor="middle" x="464.5" y="-242.5" font-family="Helvetica,sans-Serif" font-size="10.00">OMSimPMTConstruction.hh</text>
</a>
</g>
</g>
<!-- Node2&#45;&gt;Node3 -->
<g id="edge2" class="edge">
<title>Node2&#45;&gt;Node3</title>
<path fill="none" stroke="midnightblue" d="M563.86,-347.4C547.03,-339.66 523.38,-327.05 506.5,-311 492.24,-297.44 480.55,-278.12 473.16,-264.07"/>
<polygon fill="midnightblue" stroke="midnightblue" points="476.18,-262.29 468.56,-254.93 469.93,-265.44 476.18,-262.29"/>
</g>
<!-- Node25 -->
<g id="node23" class="node">
<title>Node25</title>
<g id="a_node23"><a xlink:href="_o_m_sim_optical_module_8hh.html" target="_top" xlink:title=" ">
<polygon fill="white" stroke="black" points="516,-291.5 516,-310.5 653,-310.5 653,-291.5 516,-291.5"/>
<text text-anchor="middle" x="584.5" y="-298.5" font-family="Helvetica,sans-Serif" font-size="10.00">OMSimOpticalModule.hh</text>
</a>
</g>
</g>
<!-- Node2&#45;&gt;Node25 -->
<g id="edge24" class="edge">
<title>Node2&#45;&gt;Node25</title>
<path fill="none" stroke="midnightblue" d="M584.5,-347.08C584.5,-340.01 584.5,-329.86 584.5,-320.99"/>
<polygon fill="midnightblue" stroke="midnightblue" points="588,-320.75 584.5,-310.75 581,-320.75 588,-320.75"/>
</g>
<!-- Node3&#45;&gt;Node3 -->
<g id="edge15" class="edge">
<title>Node3&#45;&gt;Node3</title>
<path fill="none" stroke="midnightblue" d="M503.95,-254.53C530.76,-257.31 557,-254.13 557,-245 557,-237.01 536.91,-233.58 513.93,-234.71"/>
<polygon fill="midnightblue" stroke="midnightblue" points="513.65,-231.22 503.95,-235.47 514.19,-238.2 513.65,-231.22"/>
</g>
<!-- Node4 -->
<g id="node4" class="node">
<title>Node4</title>
<g id="a_node4"><a xlink:href="abc_detector_component_8hh.html" target="_top" xlink:title="Provides helper base class abcDetectorComponent for constructing and managing detector components in ...">
<polygon fill="white" stroke="black" points="391,-179.5 391,-198.5 538,-198.5 538,-179.5 391,-179.5"/>
<text text-anchor="middle" x="464.5" y="-186.5" font-family="Helvetica,sans-Serif" font-size="10.00">abcDetectorComponent.hh</text>
</a>
</g>
</g>
<!-- Node3&#45;&gt;Node4 -->
<g id="edge3" class="edge">
<title>Node3&#45;&gt;Node4</title>
<path fill="none" stroke="midnightblue" d="M464.5,-235.08C464.5,-228.01 464.5,-217.86 464.5,-208.99"/>
<polygon fill="midnightblue" stroke="midnightblue" points="468,-208.75 464.5,-198.75 461,-208.75 468,-208.75"/>
</g>
<!-- Node18 -->
<g id="node16" class="node">
<title>Node18</title>
<g id="a_node16"><a xlink:href="_o_m_sim_p_m_t_response_8hh.html" target="_top" xlink:title="Simulation of PMT response.">
<polygon fill="white" stroke="black" points="585,-179.5 585,-198.5 720,-198.5 720,-179.5 585,-179.5"/>
<text text-anchor="middle" x="652.5" y="-186.5" font-family="Helvetica,sans-Serif" font-size="10.00">OMSimPMTResponse.hh</text>
</a>
</g>
</g>
<!-- Node3&#45;&gt;Node18 -->
<g id="edge16" class="edge">
<title>Node3&#45;&gt;Node18</title>
<path fill="none" stroke="midnightblue" d="M494.29,-235.44C526.33,-226.24 577.43,-211.56 612.85,-201.39"/>
<polygon fill="midnightblue" stroke="midnightblue" points="614.21,-204.64 622.85,-198.52 612.27,-197.91 614.21,-204.64"/>
</g>
<!-- Node23 -->
<g id="node21" class="node">
<title>Node23</title>
<g id="a_node21"><a xlink:title=" ">
<polygon fill="white" stroke="#bfbfbf" points="274.5,-179.5 274.5,-198.5 372.5,-198.5 372.5,-179.5 274.5,-179.5"/>
<text text-anchor="middle" x="323.5" y="-186.5" font-family="Helvetica,sans-Serif" font-size="10.00">G4UnionSolid.hh</text>
</a>
</g>
</g>
<!-- Node3&#45;&gt;Node23 -->
<g id="edge22" class="edge">
<title>Node3&#45;&gt;Node23</title>
<path fill="none" stroke="midnightblue" d="M442.16,-235.44C418.75,-226.48 381.76,-212.31 355.31,-202.18"/>
<polygon fill="midnightblue" stroke="midnightblue" points="356.33,-198.82 345.74,-198.52 353.82,-205.36 356.33,-198.82"/>
</g>
<!-- Node24 -->
<g id="node22" class="node">
<title>Node24</title>
<g id="a_node22"><a xlink:title=" ">
<polygon fill="white" stroke="#bfbfbf" points="189,-179.5 189,-198.5 256,-198.5 256,-179.5 189,-179.5"/>
<text text-anchor="middle" x="222.5" y="-186.5" font-family="Helvetica,sans-Serif" font-size="10.00">G4Tubs.hh</text>
</a>
</g>
</g>
<!-- Node3&#45;&gt;Node24 -->
<g id="edge23" class="edge">
<title>Node3&#45;&gt;Node24</title>
<path fill="none" stroke="midnightblue" d="M426.15,-235.44C382.66,-225.74 311.88,-209.95 266.27,-199.77"/>
<polygon fill="midnightblue" stroke="midnightblue" points="266.89,-196.32 256.37,-197.56 265.37,-203.15 266.89,-196.32"/>
</g>
<!-- Node5 -->
<g id="node5" class="node">
<title>Node5</title>
<g id="a_node5"><a xlink:href="_o_m_sim_input_data_8hh.html" target="_top" xlink:title="Definition of ParameterTable and InputDataManager.">
<polygon fill="white" stroke="red" points="524,-123.5 524,-142.5 639,-142.5 639,-123.5 524,-123.5"/>
<text text-anchor="middle" x="581.5" y="-130.5" font-family="Helvetica,sans-Serif" font-size="10.00">OMSimInputData.hh</text>
</a>
</g>
</g>
<!-- Node4&#45;&gt;Node5 -->
<g id="edge4" class="edge">
<title>Node4&#45;&gt;Node5</title>
<path fill="none" stroke="midnightblue" d="M483.04,-179.44C502.12,-170.64 532.07,-156.81 553.94,-146.72"/>
<polygon fill="midnightblue" stroke="midnightblue" points="555.43,-149.88 563.05,-142.52 552.5,-143.53 555.43,-149.88"/>
</g>
<!-- Node14 -->
<g id="node12" class="node">
<title>Node14</title>
<g id="a_node12"><a xlink:title=" ">
<polygon fill="white" stroke="#bfbfbf" points="0,-123.5 0,-142.5 107,-142.5 107,-123.5 0,-123.5"/>
<text text-anchor="middle" x="53.5" y="-130.5" font-family="Helvetica,sans-Serif" font-size="10.00">G4Transform3D.hh</text>
</a>
</g>
</g>
<!-- Node4&#45;&gt;Node14 -->
<g id="edge11" class="edge">
<title>Node4&#45;&gt;Node14</title>
<path fill="none" stroke="midnightblue" d="M396.45,-179.47C328.46,-170.89 220.68,-157.12 117.12,-143.07"/>
<polygon fill="midnightblue" stroke="midnightblue" points="117.49,-139.59 107.11,-141.71 116.55,-146.52 117.49,-139.59"/>
</g>
<!-- Node15 -->
<g id="node13" class="node">
<title>Node15</title>
<g id="a_node13"><a xlink:title=" ">
<polygon fill="white" stroke="#bfbfbf" points="125.5,-123.5 125.5,-142.5 233.5,-142.5 233.5,-123.5 125.5,-123.5"/>
<text text-anchor="middle" x="179.5" y="-130.5" font-family="Helvetica,sans-Serif" font-size="10.00">G4VisAttributes.hh</text>
</a>
</g>
</g>
<!-- Node4&#45;&gt;Node15 -->
<g id="edge12" class="edge">
<title>Node4&#45;&gt;Node15</title>
<path fill="none" stroke="midnightblue" d="M419.34,-179.44C369.21,-169.94 288.28,-154.61 234.49,-144.42"/>
<polygon fill="midnightblue" stroke="midnightblue" points="234.92,-140.94 224.45,-142.52 233.62,-147.82 234.92,-140.94"/>
</g>
<!-- Node16 -->
<g id="node14" class="node">
<title>Node16</title>
<g id="a_node14"><a xlink:title=" ">
<polygon fill="white" stroke="#bfbfbf" points="252,-123.5 252,-142.5 377,-142.5 377,-123.5 252,-123.5"/>
<text text-anchor="middle" x="314.5" y="-130.5" font-family="Helvetica,sans-Serif" font-size="10.00">G4SubtractionSolid.hh</text>
</a>
</g>
</g>
<!-- Node4&#45;&gt;Node16 -->
<g id="edge13" class="edge">
<title>Node4&#45;&gt;Node16</title>
<path fill="none" stroke="midnightblue" d="M440.73,-179.44C415.61,-170.4 375.79,-156.06 347.6,-145.92"/>
<polygon fill="midnightblue" stroke="midnightblue" points="348.75,-142.61 338.16,-142.52 346.38,-149.2 348.75,-142.61"/>
</g>
<!-- Node17 -->
<g id="node15" class="node">
<title>Node17</title>
<g id="a_node15"><a xlink:title=" ">
<polygon fill="white" stroke="#bfbfbf" points="395.5,-123.5 395.5,-142.5 505.5,-142.5 505.5,-123.5 395.5,-123.5"/>
<text text-anchor="middle" x="450.5" y="-130.5" font-family="Helvetica,sans-Serif" font-size="10.00">G4PVPlacement.hh</text>
</a>
</g>
</g>
<!-- Node4&#45;&gt;Node17 -->
<g id="edge14" class="edge">
<title>Node4&#45;&gt;Node17</title>
<path fill="none" stroke="midnightblue" d="M462.19,-179.08C460.33,-171.93 457.66,-161.64 455.35,-152.69"/>
<polygon fill="midnightblue" stroke="midnightblue" points="458.67,-151.55 452.77,-142.75 451.89,-153.31 458.67,-151.55"/>
</g>
<!-- Node5&#45;&gt;Node6 -->
<g id="edge5" class="edge">
<title>Node5&#45;&gt;Node6</title>
<path fill="none" stroke="midnightblue" d="M639.26,-127C654.62,-125.69 671.18,-124.28 686.5,-123 866.4,-107.98 1079.21,-90.88 1180.77,-82.76"/>
<polygon fill="midnightblue" stroke="midnightblue" points="1181.14,-86.25 1190.83,-81.96 1180.59,-79.27 1181.14,-86.25"/>
</g>
<!-- Node12 -->
<g id="node11" class="node">
<title>Node12</title>
<g id="a_node11"><a xlink:title=" ">
<polygon fill="white" stroke="#bfbfbf" points="565,-67.5 565,-86.5 684,-86.5 684,-67.5 565,-67.5"/>
<text text-anchor="middle" x="624.5" y="-74.5" font-family="Helvetica,sans-Serif" font-size="10.00">G4SystemOfUnits.hh</text>
</a>
</g>
</g>
<!-- Node5&#45;&gt;Node12 -->
<g id="edge10" class="edge">
<title>Node5&#45;&gt;Node12</title>
<path fill="none" stroke="midnightblue" d="M588.6,-123.08C594.74,-115.38 603.77,-104.03 611.24,-94.65"/>
<polygon fill="midnightblue" stroke="midnightblue" points="614.04,-96.75 617.53,-86.75 608.56,-92.39 614.04,-96.75"/>
</g>
<!-- Node7 -->
<g id="node7" class="node">
<title>Node7</title>
<g id="a_node7"><a xlink:title=" ">
<polygon fill="white" stroke="#bfbfbf" points="1308,-6 1308,-25 1401,-25 1401,-6 1308,-6"/>
<text text-anchor="middle" x="1354.5" y="-13" font-family="Helvetica,sans-Serif" font-size="10.00">spdlog/spdlog.h</text>
</a>
</g>
</g>
<!-- Node6&#45;&gt;Node7 -->
<g id="edge6" class="edge">
<title>Node6&#45;&gt;Node7</title>
<path fill="none" stroke="midnightblue" d="M1256.83,-67.48C1275.71,-57.62 1307.01,-41.29 1329.08,-29.77"/>
<polygon fill="midnightblue" stroke="midnightblue" points="1330.95,-32.74 1338.2,-25.01 1327.71,-26.53 1330.95,-32.74"/>
</g>
<!-- Node8 -->
<g id="node8" class="node">
<title>Node8</title>
<g id="a_node8"><a xlink:title=" ">
<polygon fill="white" stroke="#bfbfbf" points="1062,-0.5 1062,-30.5 1173,-30.5 1173,-0.5 1062,-0.5"/>
<text text-anchor="start" x="1070" y="-18.5" font-family="Helvetica,sans-Serif" font-size="10.00">spdlog/sinks/stdout</text>
<text text-anchor="middle" x="1117.5" y="-7.5" font-family="Helvetica,sans-Serif" font-size="10.00">_color_sinks.h</text>
</a>
</g>
</g>
<!-- Node6&#45;&gt;Node8 -->
<g id="edge7" class="edge">
<title>Node6&#45;&gt;Node8</title>
<path fill="none" stroke="midnightblue" d="M1222.88,-67.48C1205.44,-59.04 1178.18,-45.86 1155.76,-35.01"/>
<polygon fill="midnightblue" stroke="midnightblue" points="1157.01,-31.73 1146.49,-30.52 1153.97,-38.03 1157.01,-31.73"/>
</g>
<!-- Node9 -->
<g id="node9" class="node">
<title>Node9</title>
<g id="a_node9"><a xlink:title=" ">
<polygon fill="white" stroke="#bfbfbf" points="1628.5,-6 1628.5,-25 1686.5,-25 1686.5,-6 1628.5,-6"/>
<text text-anchor="middle" x="1657.5" y="-13" font-family="Helvetica,sans-Serif" font-size="10.00">memory</text>
</a>
</g>
</g>
<!-- Node6&#45;&gt;Node9 -->
<g id="edge8" class="edge">
<title>Node6&#45;&gt;Node9</title>
<path fill="none" stroke="midnightblue" d="M1290.39,-68.88C1374.32,-56.91 1542.05,-32.97 1618.23,-22.1"/>
<polygon fill="midnightblue" stroke="midnightblue" points="1618.95,-25.54 1628.36,-20.66 1617.96,-18.61 1618.95,-25.54"/>
</g>
<!-- Node10 -->
<g id="node10" class="node">
<title>Node10</title>
<g id="a_node10"><a xlink:title=" ">
<polygon fill="white" stroke="#bfbfbf" points="1191.5,-6 1191.5,-25 1289.5,-25 1289.5,-6 1191.5,-6"/>
<text text-anchor="middle" x="1240.5" y="-13" font-family="Helvetica,sans-Serif" font-size="10.00">spdlog/fmt/fmt.h</text>
</a>
</g>
</g>
<!-- Node6&#45;&gt;Node10 -->
<g id="edge9" class="edge">
<title>Node6&#45;&gt;Node10</title>
<path fill="none" stroke="midnightblue" d="M1240.5,-67.48C1240.5,-59.08 1240.5,-45.98 1240.5,-35.16"/>
<polygon fill="midnightblue" stroke="midnightblue" points="1244,-35.01 1240.5,-25.01 1237,-35.01 1244,-35.01"/>
</g>
<!-- Node18&#45;&gt;Node12 -->
<g id="edge17" class="edge">
<title>Node18&#45;&gt;Node12</title>
<path fill="none" stroke="midnightblue" d="M652.9,-179.4C653.25,-166.78 653.02,-142.61 647.5,-123 644.79,-113.39 639.95,-103.44 635.41,-95.34"/>
<polygon fill="midnightblue" stroke="midnightblue" points="638.29,-93.35 630.17,-86.54 632.27,-96.92 638.29,-93.35"/>
</g>
<!-- Node19 -->
<g id="node17" class="node">
<title>Node19</title>
<g id="a_node17"><a xlink:title=" ">
<polygon fill="white" stroke="#bfbfbf" points="696,-123.5 696,-142.5 769,-142.5 769,-123.5 696,-123.5"/>
<text text-anchor="middle" x="732.5" y="-130.5" font-family="Helvetica,sans-Serif" font-size="10.00">G4Types.hh</text>
</a>
</g>
</g>
<!-- Node18&#45;&gt;Node19 -->
<g id="edge18" class="edge">
<title>Node18&#45;&gt;Node19</title>
<path fill="none" stroke="midnightblue" d="M665.35,-179.32C677.72,-170.98 696.63,-158.21 711.24,-148.35"/>
<polygon fill="midnightblue" stroke="midnightblue" points="713.35,-151.15 719.68,-142.65 709.43,-145.35 713.35,-151.15"/>
</g>
<!-- Node20 -->
<g id="node18" class="node">
<title>Node20</title>
<g id="a_node18"><a xlink:title=" ">
<polygon fill="white" stroke="#bfbfbf" points="988.5,-123.5 988.5,-142.5 1026.5,-142.5 1026.5,-123.5 988.5,-123.5"/>
<text text-anchor="middle" x="1007.5" y="-130.5" font-family="Helvetica,sans-Serif" font-size="10.00">map</text>
</a>
</g>
</g>
<!-- Node18&#45;&gt;Node20 -->
<g id="edge19" class="edge">
<title>Node18&#45;&gt;Node20</title>
<path fill="none" stroke="midnightblue" d="M708.75,-179.44C785.13,-167.82 918.89,-147.48 978,-138.49"/>
<polygon fill="midnightblue" stroke="midnightblue" points="978.77,-141.91 988.13,-136.95 977.72,-134.99 978.77,-141.91"/>
</g>
<!-- Node21 -->
<g id="node19" class="node">
<title>Node21</title>
<g id="a_node19"><a xlink:title=" ">
<polygon fill="white" stroke="#bfbfbf" points="787,-123.5 787,-142.5 848,-142.5 848,-123.5 787,-123.5"/>
<text text-anchor="middle" x="817.5" y="-130.5" font-family="Helvetica,sans-Serif" font-size="10.00">TGraph.h</text>
</a>
</g>
</g>
<!-- Node18&#45;&gt;Node21 -->
<g id="edge20" class="edge">
<title>Node18&#45;&gt;Node21</title>
<path fill="none" stroke="midnightblue" d="M678.64,-179.44C706.52,-170.32 750.85,-155.81 781.9,-145.65"/>
<polygon fill="midnightblue" stroke="midnightblue" points="783.06,-148.95 791.48,-142.52 780.88,-142.3 783.06,-148.95"/>
</g>
<!-- Node22 -->
<g id="node20" class="node">
<title>Node22</title>
<g id="a_node20"><a xlink:title=" ">
<polygon fill="white" stroke="#bfbfbf" points="866,-123.5 866,-142.5 919,-142.5 919,-123.5 866,-123.5"/>
<text text-anchor="middle" x="892.5" y="-130.5" font-family="Helvetica,sans-Serif" font-size="10.00">TH2D.h</text>
</a>
</g>
</g>
<!-- Node18&#45;&gt;Node22 -->
<g id="edge21" class="edge">
<title>Node18&#45;&gt;Node22</title>
<path fill="none" stroke="midnightblue" d="M692.83,-179.45C731.94,-171.08 793.22,-157.77 855.74,-143.13"/>
<polygon fill="midnightblue" stroke="midnightblue" points="856.85,-146.46 865.78,-140.77 855.25,-139.65 856.85,-146.46"/>
</g>
<!-- Node25&#45;&gt;Node3 -->
<g id="edge32" class="edge">
<title>Node25&#45;&gt;Node3</title>
<path fill="none" stroke="midnightblue" d="M565.49,-291.44C545.91,-282.64 515.19,-268.81 492.77,-258.72"/>
<polygon fill="midnightblue" stroke="midnightblue" points="493.98,-255.43 483.43,-254.52 491.11,-261.81 493.98,-255.43"/>
</g>
<!-- Node25&#45;&gt;Node4 -->
<g id="edge25" class="edge">
<title>Node25&#45;&gt;Node4</title>
<path fill="none" stroke="midnightblue" d="M584.21,-291.33C583.32,-277.74 579.73,-251.29 565.5,-235 551.73,-219.24 531.38,-208.74 512.54,-201.89"/>
<polygon fill="midnightblue" stroke="midnightblue" points="513.47,-198.5 502.88,-198.62 511.23,-205.14 513.47,-198.5"/>
</g>
<!-- Node26 -->
<g id="node24" class="node">
<title>Node26</title>
<g id="a_node24"><a xlink:href="_o_m_sim_hit_manager_8hh.html" target="_top" xlink:title="Defines structures and classes related to optical module photon hit management.">
<polygon fill="white" stroke="black" points="777,-235.5 777,-254.5 900,-254.5 900,-235.5 777,-235.5"/>
<text text-anchor="middle" x="838.5" y="-242.5" font-family="Helvetica,sans-Serif" font-size="10.00">OMSimHitManager.hh</text>
</a>
</g>
</g>
<!-- Node25&#45;&gt;Node26 -->
<g id="edge26" class="edge">
<title>Node25&#45;&gt;Node26</title>
<path fill="none" stroke="midnightblue" d="M624.75,-291.44C669.15,-282 740.65,-266.8 788.59,-256.61"/>
<polygon fill="midnightblue" stroke="midnightblue" points="789.39,-260.02 798.44,-254.52 787.93,-253.17 789.39,-260.02"/>
</g>
<!-- Node26&#45;&gt;Node18 -->
<g id="edge27" class="edge">
<title>Node26&#45;&gt;Node18</title>
<path fill="none" stroke="midnightblue" d="M809.03,-235.44C777.33,-226.24 726.77,-211.56 691.73,-201.39"/>
<polygon fill="midnightblue" stroke="midnightblue" points="692.41,-197.94 681.83,-198.52 690.46,-204.67 692.41,-197.94"/>
</g>
<!-- Node27 -->
<g id="node25" class="node">
<title>Node27</title>
<g id="a_node25"><a xlink:title=" ">
<polygon fill="white" stroke="#bfbfbf" points="959,-179.5 959,-198.5 1062,-198.5 1062,-179.5 959,-179.5"/>
<text text-anchor="middle" x="1010.5" y="-186.5" font-family="Helvetica,sans-Serif" font-size="10.00">G4ThreeVector.hh</text>
</a>
</g>
</g>
<!-- Node26&#45;&gt;Node27 -->
<g id="edge28" class="edge">
<title>Node26&#45;&gt;Node27</title>
<path fill="none" stroke="midnightblue" d="M865.75,-235.44C894.94,-226.28 941.42,-211.69 973.81,-201.52"/>
<polygon fill="midnightblue" stroke="midnightblue" points="974.88,-204.85 983.37,-198.52 972.78,-198.17 974.88,-204.85"/>
</g>
<!-- Node28 -->
<g id="node26" class="node">
<title>Node28</title>
<g id="a_node26"><a xlink:title=" ">
<polygon fill="white" stroke="#bfbfbf" points="1307,-179.5 1307,-198.5 1362,-198.5 1362,-179.5 1307,-179.5"/>
<text text-anchor="middle" x="1334.5" y="-186.5" font-family="Helvetica,sans-Serif" font-size="10.00">fstream</text>
</a>
</g>
</g>
<!-- Node26&#45;&gt;Node28 -->
<g id="edge29" class="edge">
<title>Node26&#45;&gt;Node28</title>
<path fill="none" stroke="midnightblue" d="M900.12,-240.72C986.57,-235.52 1148.9,-223.51 1296.55,-198.92"/>
<polygon fill="midnightblue" stroke="midnightblue" points="1297.43,-202.32 1306.71,-197.21 1296.26,-195.42 1297.43,-202.32"/>
</g>
<!-- Node29 -->
<g id="node27" class="node">
<title>Node29</title>
<g id="a_node27"><a xlink:title=" ">
<polygon fill="white" stroke="#bfbfbf" points="738.5,-179.5 738.5,-198.5 828.5,-198.5 828.5,-179.5 738.5,-179.5"/>
<text text-anchor="middle" x="783.5" y="-186.5" font-family="Helvetica,sans-Serif" font-size="10.00">G4AutoLock.hh</text>
</a>
</g>
</g>
<!-- Node26&#45;&gt;Node29 -->
<g id="edge30" class="edge">
<title>Node26&#45;&gt;Node29</title>
<path fill="none" stroke="midnightblue" d="M829.42,-235.08C821.33,-227.14 809.3,-215.34 799.59,-205.8"/>
<polygon fill="midnightblue" stroke="midnightblue" points="802,-203.26 792.41,-198.75 797.1,-208.25 802,-203.26"/>
</g>
<!-- Node30 -->
<g id="node28" class="node">
<title>Node30</title>
<g id="a_node28"><a xlink:title=" ">
<polygon fill="white" stroke="#bfbfbf" points="846.5,-179.5 846.5,-198.5 940.5,-198.5 940.5,-179.5 846.5,-179.5"/>
<text text-anchor="middle" x="893.5" y="-186.5" font-family="Helvetica,sans-Serif" font-size="10.00">G4Threading.hh</text>
</a>
</g>
</g>
<!-- Node26&#45;&gt;Node30 -->
<g id="edge31" class="edge">
<title>Node26&#45;&gt;Node30</title>
<path fill="none" stroke="midnightblue" d="M847.58,-235.08C855.67,-227.14 867.7,-215.34 877.41,-205.8"/>
<polygon fill="midnightblue" stroke="midnightblue" points="879.9,-208.25 884.59,-198.75 875,-203.26 879.9,-208.25"/>
</g>
<!-- Node31&#45;&gt;Node9 -->
<g id="edge39" class="edge">
<title>Node31&#45;&gt;Node9</title>
<path fill="none" stroke="midnightblue" d="M2016.16,-235.38C2015.2,-221.85 2011.51,-195.48 1997.5,-179 1916.51,-83.75 1766.97,-40.16 1696.36,-24.17"/>
<polygon fill="midnightblue" stroke="midnightblue" points="1697.05,-20.74 1686.53,-22.01 1695.55,-27.58 1697.05,-20.74"/>
</g>
<!-- Node31&#45;&gt;Node20 -->
<g id="edge36" class="edge">
<title>Node31&#45;&gt;Node20</title>
<path fill="none" stroke="midnightblue" d="M1976.96,-243.24C1884.09,-240.95 1645.06,-232.05 1448.5,-199 1413.63,-193.14 1406.23,-185.63 1371.5,-179 1248.18,-155.47 1098.91,-141.49 1036.8,-136.31"/>
<polygon fill="midnightblue" stroke="midnightblue" points="1036.84,-132.8 1026.58,-135.47 1036.26,-139.78 1036.84,-132.8"/>
</g>
<!-- Node31&#45;&gt;Node27 -->
<g id="edge37" class="edge">
<title>Node31&#45;&gt;Node27</title>
<path fill="none" stroke="midnightblue" d="M1976.68,-242.61C1849.93,-238.06 1444.49,-222.53 1109.5,-199 1097.46,-198.15 1084.61,-197.1 1072.3,-196.01"/>
<polygon fill="midnightblue" stroke="midnightblue" points="1072.38,-192.51 1062.11,-195.1 1071.75,-199.48 1072.38,-192.51"/>
</g>
<!-- Node31&#45;&gt;Node28 -->
<g id="edge50" class="edge">
<title>Node31&#45;&gt;Node28</title>
<path fill="none" stroke="midnightblue" d="M1976.66,-241.54C1880.12,-235.46 1626.07,-218.8 1414.5,-199 1400.77,-197.72 1385.75,-196.08 1372.46,-194.57"/>
<polygon fill="midnightblue" stroke="midnightblue" points="1372.58,-191.05 1362.24,-193.38 1371.77,-198.01 1372.58,-191.05"/>
</g>
<!-- Node32 -->
<g id="node30" class="node">
<title>Node32</title>
<g id="a_node30"><a xlink:title=" ">
<polygon fill="white" stroke="#bfbfbf" points="2044.5,-179.5 2044.5,-198.5 2118.5,-198.5 2118.5,-179.5 2044.5,-179.5"/>
<text text-anchor="middle" x="2081.5" y="-186.5" font-family="Helvetica,sans-Serif" font-size="10.00">G4String.hh</text>
</a>
</g>
</g>
<!-- Node31&#45;&gt;Node32 -->
<g id="edge34" class="edge">
<title>Node31&#45;&gt;Node32</title>
<path fill="none" stroke="midnightblue" d="M2026.94,-235.32C2036.65,-227.26 2051.32,-215.08 2063,-205.37"/>
<polygon fill="midnightblue" stroke="midnightblue" points="2065.41,-207.92 2070.87,-198.83 2060.94,-202.53 2065.41,-207.92"/>
</g>
<!-- Node33 -->
<g id="node31" class="node">
<title>Node33</title>
<g id="a_node31"><a xlink:title=" ">
<polygon fill="white" stroke="#bfbfbf" points="2136.5,-179.5 2136.5,-198.5 2200.5,-198.5 2200.5,-179.5 2136.5,-179.5"/>
<text text-anchor="middle" x="2168.5" y="-186.5" font-family="Helvetica,sans-Serif" font-size="10.00">algorithm</text>
</a>
</g>
</g>
<!-- Node31&#45;&gt;Node33 -->
<g id="edge35" class="edge">
<title>Node31&#45;&gt;Node33</title>
<path fill="none" stroke="midnightblue" d="M2040.58,-235.44C2066.04,-226.4 2106.39,-212.06 2134.96,-201.92"/>
<polygon fill="midnightblue" stroke="midnightblue" points="2136.28,-205.16 2144.53,-198.52 2133.93,-198.57 2136.28,-205.16"/>
</g>
<!-- Node34 -->
<g id="node32" class="node">
<title>Node34</title>
<g id="a_node32"><a xlink:title=" ">
<polygon fill="white" stroke="#bfbfbf" points="2219,-179.5 2219,-198.5 2338,-198.5 2338,-179.5 2219,-179.5"/>
<text text-anchor="middle" x="2278.5" y="-186.5" font-family="Helvetica,sans-Serif" font-size="10.00">G4TriangularFacet.hh</text>
</a>
</g>
</g>
<!-- Node31&#45;&gt;Node34 -->
<g id="edge38" class="edge">
<title>Node31&#45;&gt;Node34</title>
<path fill="none" stroke="midnightblue" d="M2056.01,-235.86C2101.61,-226.46 2176.77,-210.97 2226.94,-200.63"/>
<polygon fill="midnightblue" stroke="midnightblue" points="2227.85,-204.01 2236.94,-198.57 2226.44,-197.16 2227.85,-204.01"/>
</g>
<!-- Node35 -->
<g id="node33" class="node">
<title>Node35</title>
<g id="a_node33"><a xlink:title=" ">
<polygon fill="white" stroke="#bfbfbf" points="2356,-179.5 2356,-198.5 2403,-198.5 2403,-179.5 2356,-179.5"/>
<text text-anchor="middle" x="2379.5" y="-186.5" font-family="Helvetica,sans-Serif" font-size="10.00">vector</text>
</a>
</g>
</g>
<!-- Node31&#45;&gt;Node35 -->
<g id="edge40" class="edge">
<title>Node31&#45;&gt;Node35</title>
<path fill="none" stroke="midnightblue" d="M2056.03,-240.42C2116.59,-234.55 2236.04,-221.43 2345.91,-199.1"/>
<polygon fill="midnightblue" stroke="midnightblue" points="2346.74,-202.5 2355.82,-197.05 2345.32,-195.65 2346.74,-202.5"/>
</g>
<!-- Node36 -->
<g id="node34" class="node">
<title>Node36</title>
<g id="a_node34"><a xlink:title=" ">
<polygon fill="white" stroke="#bfbfbf" points="2421.5,-179.5 2421.5,-198.5 2481.5,-198.5 2481.5,-179.5 2421.5,-179.5"/>
<text text-anchor="middle" x="2451.5" y="-186.5" font-family="Helvetica,sans-Serif" font-size="10.00">iostream</text>
</a>
</g>
</g>
<!-- Node31&#45;&gt;Node36 -->
<g id="edge41" class="edge">
<title>Node31&#45;&gt;Node36</title>
<path fill="none" stroke="midnightblue" d="M2056.05,-241C2125.81,-235.39 2275.39,-221.92 2411.17,-199.05"/>
<polygon fill="midnightblue" stroke="midnightblue" points="2412.07,-202.45 2421.33,-197.32 2410.89,-195.55 2412.07,-202.45"/>
</g>
<!-- Node37 -->
<g id="node35" class="node">
<title>Node37</title>
<g id="a_node35"><a xlink:title=" ">
<polygon fill="white" stroke="#bfbfbf" points="2499.5,-179.5 2499.5,-198.5 2543.5,-198.5 2543.5,-179.5 2499.5,-179.5"/>
<text text-anchor="middle" x="2521.5" y="-186.5" font-family="Helvetica,sans-Serif" font-size="10.00">string</text>
</a>
</g>
</g>
<!-- Node31&#45;&gt;Node37 -->
<g id="edge42" class="edge">
<title>Node31&#45;&gt;Node37</title>
<path fill="none" stroke="midnightblue" d="M2056.18,-242.75C2136.45,-239.68 2323.85,-229.77 2489.4,-198.87"/>
<polygon fill="midnightblue" stroke="midnightblue" points="2490.1,-202.3 2499.27,-197 2488.79,-195.42 2490.1,-202.3"/>
</g>
<!-- Node38 -->
<g id="node36" class="node">
<title>Node38</title>
<g id="a_node36"><a xlink:title=" ">
<polygon fill="white" stroke="#bfbfbf" points="2561.5,-179.5 2561.5,-198.5 2691.5,-198.5 2691.5,-179.5 2561.5,-179.5"/>
<text text-anchor="middle" x="2626.5" y="-186.5" font-family="Helvetica,sans-Serif" font-size="10.00">G4AssemblyVolume.hh</text>
</a>
</g>
</g>
<!-- Node31&#45;&gt;Node38 -->
<g id="edge43" class="edge">
<title>Node31&#45;&gt;Node38</title>
<path fill="none" stroke="midnightblue" d="M2056.22,-241.17C2143.66,-234.84 2359.63,-218.61 2551.18,-199.1"/>
<polygon fill="midnightblue" stroke="midnightblue" points="2551.55,-202.58 2561.14,-198.08 2550.84,-195.62 2551.55,-202.58"/>
</g>
<!-- Node39 -->
<g id="node37" class="node">
<title>Node39</title>
<g id="a_node37"><a xlink:title=" ">
<polygon fill="white" stroke="#bfbfbf" points="2709.5,-179.5 2709.5,-198.5 2825.5,-198.5 2825.5,-179.5 2709.5,-179.5"/>
<text text-anchor="middle" x="2767.5" y="-186.5" font-family="Helvetica,sans-Serif" font-size="10.00">G4LogicalVolume.hh</text>
</a>
</g>
</g>
<!-- Node31&#45;&gt;Node39 -->
<g id="edge44" class="edge">
<title>Node31&#45;&gt;Node39</title>
<path fill="none" stroke="midnightblue" d="M2056.28,-242.33C2160.2,-237.76 2448.53,-223.78 2699.39,-199.04"/>
<polygon fill="midnightblue" stroke="midnightblue" points="2699.82,-202.52 2709.42,-198.05 2699.13,-195.55 2699.82,-202.52"/>
</g>
<!-- Node40 -->
<g id="node38" class="node">
<title>Node40</title>
<g id="a_node38"><a xlink:title=" ">
<polygon fill="white" stroke="#bfbfbf" points="2843.5,-179.5 2843.5,-198.5 2929.5,-198.5 2929.5,-179.5 2843.5,-179.5"/>
<text text-anchor="middle" x="2886.5" y="-186.5" font-family="Helvetica,sans-Serif" font-size="10.00">G4Material.hh</text>
</a>
</g>
</g>
<!-- Node31&#45;&gt;Node40 -->
<g id="edge45" class="edge">
<title>Node31&#45;&gt;Node40</title>
<path fill="none" stroke="midnightblue" d="M2056.22,-243.45C2173.5,-241.49 2528.57,-233.04 2833.07,-199.02"/>
<polygon fill="midnightblue" stroke="midnightblue" points="2833.88,-202.45 2843.43,-197.85 2833.1,-195.5 2833.88,-202.45"/>
</g>
<!-- Node41 -->
<g id="node39" class="node">
<title>Node41</title>
<g id="a_node39"><a xlink:title=" ">
<polygon fill="white" stroke="#bfbfbf" points="2947.5,-179.5 2947.5,-198.5 3071.5,-198.5 3071.5,-179.5 2947.5,-179.5"/>
<text text-anchor="middle" x="3009.5" y="-186.5" font-family="Helvetica,sans-Serif" font-size="10.00">G4TessellatedSolid.hh</text>
</a>
</g>
</g>
<!-- Node31&#45;&gt;Node41 -->
<g id="edge46" class="edge">
<title>Node31&#45;&gt;Node41</title>
<path fill="none" stroke="midnightblue" d="M2056.11,-243.16C2182.83,-240.25 2589.8,-229.09 2937.19,-199.05"/>
<polygon fill="midnightblue" stroke="midnightblue" points="2937.53,-202.53 2947.19,-198.17 2936.93,-195.56 2937.53,-202.53"/>
</g>
<!-- Node42 -->
<g id="node40" class="node">
<title>Node42</title>
<g id="a_node40"><a xlink:title=" ">
<polygon fill="white" stroke="#bfbfbf" points="1457,-179.5 1457,-198.5 1516,-198.5 1516,-179.5 1457,-179.5"/>
<text text-anchor="middle" x="1486.5" y="-186.5" font-family="Helvetica,sans-Serif" font-size="10.00">G4Tet.hh</text>
</a>
</g>
</g>
<!-- Node31&#45;&gt;Node42 -->
<g id="edge47" class="edge">
<title>Node31&#45;&gt;Node42</title>
<path fill="none" stroke="midnightblue" d="M1976.81,-242.19C1894.6,-238.04 1699.62,-226.18 1526.3,-198.9"/>
<polygon fill="midnightblue" stroke="midnightblue" points="1526.66,-195.42 1516.23,-197.3 1525.55,-202.33 1526.66,-195.42"/>
</g>
<!-- Node43 -->
<g id="node41" class="node">
<title>Node43</title>
<g id="a_node41"><a xlink:title=" ">
<polygon fill="white" stroke="#bfbfbf" points="1534.5,-179.5 1534.5,-198.5 1638.5,-198.5 1638.5,-179.5 1534.5,-179.5"/>
<text text-anchor="middle" x="1586.5" y="-186.5" font-family="Helvetica,sans-Serif" font-size="10.00">G4UIcommand.hh</text>
</a>
</g>
</g>
<!-- Node31&#45;&gt;Node43 -->
<g id="edge48" class="edge">
<title>Node31&#45;&gt;Node43</title>
<path fill="none" stroke="midnightblue" d="M1976.98,-239.46C1909.55,-231.65 1767.96,-214.97 1648.5,-199 1648.4,-198.99 1648.3,-198.97 1648.2,-198.96"/>
<polygon fill="midnightblue" stroke="midnightblue" points="1648.96,-195.53 1638.58,-197.65 1648.02,-202.47 1648.96,-195.53"/>
</g>
<!-- Node44 -->
<g id="node42" class="node">
<title>Node44</title>
<g id="a_node42"><a xlink:title=" ">
<polygon fill="white" stroke="#bfbfbf" points="1657,-179.5 1657,-198.5 1724,-198.5 1724,-179.5 1657,-179.5"/>
<text text-anchor="middle" x="1690.5" y="-186.5" font-family="Helvetica,sans-Serif" font-size="10.00">globals.hh</text>
</a>
</g>
</g>
<!-- Node31&#45;&gt;Node44 -->
<g id="edge49" class="edge">
<title>Node31&#45;&gt;Node44</title>
<path fill="none" stroke="midnightblue" d="M1976.56,-238.27C1923.59,-230.54 1826.96,-215.96 1734.37,-199.08"/>
<polygon fill="midnightblue" stroke="midnightblue" points="1734.74,-195.59 1724.27,-197.23 1733.47,-202.48 1734.74,-195.59"/>
</g>
<!-- Node45 -->
<g id="node43" class="node">
<title>Node45</title>
<g id="a_node43"><a xlink:title=" ">
<polygon fill="white" stroke="#bfbfbf" points="1742.5,-179.5 1742.5,-198.5 1798.5,-198.5 1798.5,-179.5 1742.5,-179.5"/>
<text text-anchor="middle" x="1770.5" y="-186.5" font-family="Helvetica,sans-Serif" font-size="10.00">sstream</text>
</a>
</g>
</g>
<!-- Node31&#45;&gt;Node45 -->
<g id="edge51" class="edge">
<title>Node31&#45;&gt;Node45</title>
<path fill="none" stroke="midnightblue" d="M1976.96,-235.69C1935.08,-226.82 1867.05,-212.27 1808.5,-199 1808.4,-198.98 1808.3,-198.96 1808.2,-198.93"/>
<polygon fill="midnightblue" stroke="midnightblue" points="1809.24,-195.58 1798.71,-196.75 1807.67,-202.4 1809.24,-195.58"/>
</g>
<!-- Node46 -->
<g id="node44" class="node">
<title>Node46</title>
<g id="a_node44"><a xlink:title=" ">
<polygon fill="white" stroke="#bfbfbf" points="1817,-179.5 1817,-198.5 1884,-198.5 1884,-179.5 1817,-179.5"/>
<text text-anchor="middle" x="1850.5" y="-186.5" font-family="Helvetica,sans-Serif" font-size="10.00">streambuf</text>
</a>
</g>
</g>
<!-- Node31&#45;&gt;Node46 -->
<g id="edge52" class="edge">
<title>Node31&#45;&gt;Node46</title>
<path fill="none" stroke="midnightblue" d="M1990.2,-235.44C1962.15,-226.32 1917.56,-211.81 1886.32,-201.65"/>
<polygon fill="midnightblue" stroke="midnightblue" points="1887.27,-198.28 1876.68,-198.52 1885.11,-204.94 1887.27,-198.28"/>
</g>
<!-- Node47 -->
<g id="node45" class="node">
<title>Node47</title>
<g id="a_node45"><a xlink:title=" ">
<polygon fill="white" stroke="#bfbfbf" points="1902.5,-179.5 1902.5,-198.5 1988.5,-198.5 1988.5,-179.5 1902.5,-179.5"/>
<text text-anchor="middle" x="1945.5" y="-186.5" font-family="Helvetica,sans-Serif" font-size="10.00">Randomize.hh</text>
</a>
</g>
</g>
<!-- Node31&#45;&gt;Node47 -->
<g id="edge53" class="edge">
<title>Node31&#45;&gt;Node47</title>
<path fill="none" stroke="midnightblue" d="M2005.09,-235.32C1994.39,-227.18 1978.16,-214.84 1965.34,-205.09"/>
<polygon fill="midnightblue" stroke="midnightblue" points="1967.19,-202.1 1957.11,-198.83 1962.96,-207.67 1967.19,-202.1"/>
</g>
<!-- Node48&#45;&gt;Node6 -->
<g id="edge56" class="edge">
<title>Node48&#45;&gt;Node6</title>
<path fill="none" stroke="midnightblue" d="M1307.89,-235.44C1345.48,-226.65 1386.62,-209.76 1371.5,-179 1350.54,-136.38 1301.99,-106.67 1270.24,-90.98"/>
<polygon fill="midnightblue" stroke="midnightblue" points="1271.51,-87.71 1260.98,-86.57 1268.5,-94.03 1271.51,-87.71"/>
</g>
<!-- Node48&#45;&gt;Node28 -->
<g id="edge57" class="edge">
<title>Node48&#45;&gt;Node28</title>
<path fill="none" stroke="midnightblue" d="M1267.35,-235.32C1279.72,-226.98 1298.63,-214.21 1313.24,-204.35"/>
<polygon fill="midnightblue" stroke="midnightblue" points="1315.35,-207.15 1321.68,-198.65 1311.43,-201.35 1315.35,-207.15"/>
</g>
<!-- Node49 -->
<g id="node47" class="node">
<title>Node49</title>
<g id="a_node47"><a xlink:title=" ">
<polygon fill="white" stroke="#bfbfbf" points="1118.5,-179.5 1118.5,-198.5 1202.5,-198.5 1202.5,-179.5 1118.5,-179.5"/>
<text text-anchor="middle" x="1160.5" y="-186.5" font-family="Helvetica,sans-Serif" font-size="10.00">boost/any.hpp</text>
</a>
</g>
</g>
<!-- Node48&#45;&gt;Node49 -->
<g id="edge58" class="edge">
<title>Node48&#45;&gt;Node49</title>
<path fill="none" stroke="midnightblue" d="M1239.4,-235.32C1224.6,-226.82 1201.81,-213.73 1184.52,-203.8"/>
<polygon fill="midnightblue" stroke="midnightblue" points="1185.98,-200.6 1175.57,-198.65 1182.49,-206.67 1185.98,-200.6"/>
</g>
<!-- Node50 -->
<g id="node48" class="node">
<title>Node50</title>
<g id="a_node48"><a xlink:title=" ">
<polygon fill="white" stroke="#bfbfbf" points="1220.5,-179.5 1220.5,-198.5 1288.5,-198.5 1288.5,-179.5 1220.5,-179.5"/>
<text text-anchor="middle" x="1254.5" y="-186.5" font-family="Helvetica,sans-Serif" font-size="10.00">sys/time.h</text>
</a>
</g>
</g>
<!-- Node48&#45;&gt;Node50 -->
<g id="edge59" class="edge">
<title>Node48&#45;&gt;Node50</title>
<path fill="none" stroke="midnightblue" d="M1254.5,-235.08C1254.5,-228.01 1254.5,-217.86 1254.5,-208.99"/>
<polygon fill="midnightblue" stroke="midnightblue" points="1258,-208.75 1254.5,-198.75 1251,-208.75 1258,-208.75"/>
</g>
</g>
</svg>
