<?xml version="1.0" encoding="UTF-8" standalone="no"?>
<!DOCTYPE svg PUBLIC "-//W3C//DTD SVG 1.1//EN"
 "http://www.w3.org/Graphics/SVG/1.1/DTD/svg11.dtd">
<!-- Generated by graphviz version 2.43.0 (0)
 -->
<!-- Title: OMSimRadDecaysDetector.hh Pages: 1 -->
<svg width="1280pt" height="442pt"
 viewBox="0.00 0.00 1280.00 442.00" xmlns="http://www.w3.org/2000/svg" xmlns:xlink="http://www.w3.org/1999/xlink">
<g id="graph0" class="graph" transform="scale(1 1) rotate(0) translate(4 438)">
<title>OMSimRadDecaysDetector.hh</title>
<polygon fill="white" stroke="transparent" points="-4,4 -4,-438 1276,-438 1276,4 -4,4"/>
<!-- Node1 -->
<g id="node1" class="node">
<title>Node1</title>
<g id="a_node1"><a xlink:title="Defines the OMSimRadDecaysDetector class for the radioactive decays simulation.">
<polygon fill="#bfbfbf" stroke="black" points="654,-414.5 654,-433.5 817,-433.5 817,-414.5 654,-414.5"/>
<text text-anchor="middle" x="735.5" y="-421.5" font-family="Helvetica,sans-Serif" font-size="10.00">OMSimRadDecaysDetector.hh</text>
</a>
</g>
</g>
<!-- Node2 -->
<g id="node2" class="node">
<title>Node2</title>
<g id="a_node2"><a xlink:href="_o_m_sim_optical_module_8hh.html" target="_top" xlink:title=" ">
<polygon fill="white" stroke="black" points="597,-302.5 597,-321.5 734,-321.5 734,-302.5 597,-302.5"/>
<text text-anchor="middle" x="665.5" y="-309.5" font-family="Helvetica,sans-Serif" font-size="10.00">OMSimOpticalModule.hh</text>
</a>
</g>
</g>
<!-- Node1&#45;&gt;Node2 -->
<g id="edge1" class="edge">
<title>Node1&#45;&gt;Node2</title>
<path fill="none" stroke="midnightblue" d="M730.01,-414.37C718.51,-396.3 691.7,-354.18 676.51,-330.31"/>
<polygon fill="midnightblue" stroke="midnightblue" points="679.29,-328.15 670.97,-321.59 673.38,-331.91 679.29,-328.15"/>
</g>
<!-- Node3 -->
<g id="node3" class="node">
<title>Node3</title>
<g id="a_node3"><a xlink:href="abc_detector_component_8hh.html" target="_top" xlink:title="Provides helper base class abcDetectorComponent for constructing and managing detector components in ...">
<polygon fill="white" stroke="black" points="473,-190.5 473,-209.5 620,-209.5 620,-190.5 473,-190.5"/>
<text text-anchor="middle" x="546.5" y="-197.5" font-family="Helvetica,sans-Serif" font-size="10.00">abcDetectorComponent.hh</text>
</a>
</g>
</g>
<!-- Node1&#45;&gt;Node3 -->
<g id="edge37" class="edge">
<title>Node1&#45;&gt;Node3</title>
<path fill="none" stroke="midnightblue" d="M715.44,-414.46C683.76,-400 622.2,-367.71 587.5,-322 563.89,-290.9 553.36,-245.36 549.09,-219.94"/>
<polygon fill="midnightblue" stroke="midnightblue" points="552.51,-219.16 547.54,-209.8 545.59,-220.21 552.51,-219.16"/>
</g>
<!-- Node31 -->
<g id="node31" class="node">
<title>Node31</title>
<g id="a_node31"><a xlink:href="_o_m_sim_detector_construction_8hh.html" target="_top" xlink:title=" ">
<polygon fill="white" stroke="black" points="738.5,-358.5 738.5,-377.5 908.5,-377.5 908.5,-358.5 738.5,-358.5"/>
<text text-anchor="middle" x="823.5" y="-365.5" font-family="Helvetica,sans-Serif" font-size="10.00">OMSimDetectorConstruction.hh</text>
</a>
</g>
</g>
<!-- Node1&#45;&gt;Node31 -->
<g id="edge38" class="edge">
<title>Node1&#45;&gt;Node31</title>
<path fill="none" stroke="midnightblue" d="M749.64,-414.32C763.37,-405.9 784.44,-392.97 800.56,-383.07"/>
<polygon fill="midnightblue" stroke="midnightblue" points="802.7,-385.87 809.4,-377.65 799.04,-379.9 802.7,-385.87"/>
</g>
<!-- Node32 -->
<g id="node32" class="node">
<title>Node32</title>
<g id="a_node32"><a xlink:title=" ">
<polygon fill="white" stroke="#bfbfbf" points="948.5,-302.5 948.5,-321.5 1010.5,-321.5 1010.5,-302.5 948.5,-302.5"/>
<text text-anchor="middle" x="979.5" y="-309.5" font-family="Helvetica,sans-Serif" font-size="10.00">G4Orb.hh</text>
</a>
</g>
</g>
<!-- Node1&#45;&gt;Node32 -->
<g id="edge42" class="edge">
<title>Node1&#45;&gt;Node32</title>
<path fill="none" stroke="midnightblue" d="M809.51,-414.43C844.06,-408.06 884.7,-397.03 917.5,-378 938.28,-365.95 956.5,-344.87 967.72,-329.98"/>
<polygon fill="midnightblue" stroke="midnightblue" points="970.72,-331.81 973.76,-321.66 965.05,-327.7 970.72,-331.81"/>
</g>
<!-- Node2&#45;&gt;Node3 -->
<g id="edge2" class="edge">
<title>Node2&#45;&gt;Node3</title>
<path fill="none" stroke="midnightblue" d="M652.03,-302.49C639.01,-293.98 619.03,-280.16 603.5,-266 586.94,-250.9 570.31,-231.31 559.32,-217.59"/>
<polygon fill="midnightblue" stroke="midnightblue" points="561.91,-215.23 552.98,-209.54 556.42,-219.56 561.91,-215.23"/>
</g>
<!-- Node17 -->
<g id="node17" class="node">
<title>Node17</title>
<g id="a_node17"><a xlink:href="_o_m_sim_hit_manager_8hh.html" target="_top" xlink:title="Defines structures and classes related to optical module photon hit management.">
<polygon fill="white" stroke="black" points="950,-246.5 950,-265.5 1073,-265.5 1073,-246.5 950,-246.5"/>
<text text-anchor="middle" x="1011.5" y="-253.5" font-family="Helvetica,sans-Serif" font-size="10.00">OMSimHitManager.hh</text>
</a>
</g>
</g>
<!-- Node2&#45;&gt;Node17 -->
<g id="edge16" class="edge">
<title>Node2&#45;&gt;Node17</title>
<path fill="none" stroke="midnightblue" d="M720.32,-302.44C781.82,-292.85 881.48,-277.29 946.76,-267.1"/>
<polygon fill="midnightblue" stroke="midnightblue" points="947.59,-270.52 956.93,-265.52 946.51,-263.6 947.59,-270.52"/>
</g>
<!-- Node28 -->
<g id="node28" class="node">
<title>Node28</title>
<g id="a_node28"><a xlink:href="_o_m_sim_p_m_t_construction_8hh.html" target="_top" xlink:title="Construction of the PMTs.">
<polygon fill="white" stroke="black" points="613,-246.5 613,-265.5 762,-265.5 762,-246.5 613,-246.5"/>
<text text-anchor="middle" x="687.5" y="-253.5" font-family="Helvetica,sans-Serif" font-size="10.00">OMSimPMTConstruction.hh</text>
</a>
</g>
</g>
<!-- Node2&#45;&gt;Node28 -->
<g id="edge31" class="edge">
<title>Node2&#45;&gt;Node28</title>
<path fill="none" stroke="midnightblue" d="M669.13,-302.08C672.11,-294.77 676.43,-284.18 680.12,-275.1"/>
<polygon fill="midnightblue" stroke="midnightblue" points="683.4,-276.33 683.93,-265.75 676.92,-273.69 683.4,-276.33"/>
</g>
<!-- Node4 -->
<g id="node4" class="node">
<title>Node4</title>
<g id="a_node4"><a xlink:href="_o_m_sim_input_data_8hh.html" target="_top" xlink:title="Definition of ParameterTable and InputDataManager.">
<polygon fill="white" stroke="black" points="99,-134.5 99,-153.5 214,-153.5 214,-134.5 99,-134.5"/>
<text text-anchor="middle" x="156.5" y="-141.5" font-family="Helvetica,sans-Serif" font-size="10.00">OMSimInputData.hh</text>
</a>
</g>
</g>
<!-- Node3&#45;&gt;Node4 -->
<g id="edge3" class="edge">
<title>Node3&#45;&gt;Node4</title>
<path fill="none" stroke="midnightblue" d="M484.7,-190.44C413.73,-180.62 297.65,-164.54 224.26,-154.38"/>
<polygon fill="midnightblue" stroke="midnightblue" points="224.58,-150.89 214.19,-152.99 223.62,-157.83 224.58,-150.89"/>
</g>
<!-- Node13 -->
<g id="node13" class="node">
<title>Node13</title>
<g id="a_node13"><a xlink:title=" ">
<polygon fill="white" stroke="#bfbfbf" points="232,-134.5 232,-153.5 339,-153.5 339,-134.5 232,-134.5"/>
<text text-anchor="middle" x="285.5" y="-141.5" font-family="Helvetica,sans-Serif" font-size="10.00">G4Transform3D.hh</text>
</a>
</g>
</g>
<!-- Node3&#45;&gt;Node13 -->
<g id="edge12" class="edge">
<title>Node3&#45;&gt;Node13</title>
<path fill="none" stroke="midnightblue" d="M505.14,-190.44C459.42,-180.98 385.74,-165.74 336.48,-155.55"/>
<polygon fill="midnightblue" stroke="midnightblue" points="337.16,-152.12 326.66,-153.52 335.75,-158.97 337.16,-152.12"/>
</g>
<!-- Node14 -->
<g id="node14" class="node">
<title>Node14</title>
<g id="a_node14"><a xlink:title=" ">
<polygon fill="white" stroke="#bfbfbf" points="357.5,-134.5 357.5,-153.5 465.5,-153.5 465.5,-134.5 357.5,-134.5"/>
<text text-anchor="middle" x="411.5" y="-141.5" font-family="Helvetica,sans-Serif" font-size="10.00">G4VisAttributes.hh</text>
</a>
</g>
</g>
<!-- Node3&#45;&gt;Node14 -->
<g id="edge13" class="edge">
<title>Node3&#45;&gt;Node14</title>
<path fill="none" stroke="midnightblue" d="M525.11,-190.44C502.79,-181.52 467.6,-167.44 442.29,-157.32"/>
<polygon fill="midnightblue" stroke="midnightblue" points="443.38,-153.98 432.79,-153.52 440.78,-160.48 443.38,-153.98"/>
</g>
<!-- Node15 -->
<g id="node15" class="node">
<title>Node15</title>
<g id="a_node15"><a xlink:title=" ">
<polygon fill="white" stroke="#bfbfbf" points="484,-134.5 484,-153.5 609,-153.5 609,-134.5 484,-134.5"/>
<text text-anchor="middle" x="546.5" y="-141.5" font-family="Helvetica,sans-Serif" font-size="10.00">G4SubtractionSolid.hh</text>
</a>
</g>
</g>
<!-- Node3&#45;&gt;Node15 -->
<g id="edge14" class="edge">
<title>Node3&#45;&gt;Node15</title>
<path fill="none" stroke="midnightblue" d="M546.5,-190.08C546.5,-183.01 546.5,-172.86 546.5,-163.99"/>
<polygon fill="midnightblue" stroke="midnightblue" points="550,-163.75 546.5,-153.75 543,-163.75 550,-163.75"/>
</g>
<!-- Node16 -->
<g id="node16" class="node">
<title>Node16</title>
<g id="a_node16"><a xlink:title=" ">
<polygon fill="white" stroke="#bfbfbf" points="627.5,-134.5 627.5,-153.5 737.5,-153.5 737.5,-134.5 627.5,-134.5"/>
<text text-anchor="middle" x="682.5" y="-141.5" font-family="Helvetica,sans-Serif" font-size="10.00">G4PVPlacement.hh</text>
</a>
</g>
</g>
<!-- Node3&#45;&gt;Node16 -->
<g id="edge15" class="edge">
<title>Node3&#45;&gt;Node16</title>
<path fill="none" stroke="midnightblue" d="M568.05,-190.44C590.53,-181.52 625.99,-167.44 651.48,-157.32"/>
<polygon fill="midnightblue" stroke="midnightblue" points="653.05,-160.46 661.05,-153.52 650.47,-153.95 653.05,-160.46"/>
</g>
<!-- Node5 -->
<g id="node5" class="node">
<title>Node5</title>
<g id="a_node5"><a xlink:href="_o_m_sim_logger_8hh.html" target="_top" xlink:title=" ">
<polygon fill="white" stroke="black" points="169,-73 169,-92 268,-92 268,-73 169,-73"/>
<text text-anchor="middle" x="218.5" y="-80" font-family="Helvetica,sans-Serif" font-size="10.00">OMSimLogger.hh</text>
</a>
</g>
</g>
<!-- Node4&#45;&gt;Node5 -->
<g id="edge4" class="edge">
<title>Node4&#45;&gt;Node5</title>
<path fill="none" stroke="midnightblue" d="M165.38,-134.48C174.96,-125.28 190.41,-110.46 202.19,-99.16"/>
<polygon fill="midnightblue" stroke="midnightblue" points="204.84,-101.46 209.63,-92.01 199.99,-96.41 204.84,-101.46"/>
</g>
<!-- Node10 -->
<g id="node10" class="node">
<title>Node10</title>
<g id="a_node10"><a xlink:title=" ">
<polygon fill="white" stroke="#bfbfbf" points="345,-73 345,-92 488,-92 488,-73 345,-73"/>
<text text-anchor="middle" x="416.5" y="-80" font-family="Helvetica,sans-Serif" font-size="10.00">G4OpBoundaryProcess.hh</text>
</a>
</g>
</g>
<!-- Node4&#45;&gt;Node10 -->
<g id="edge9" class="edge">
<title>Node4&#45;&gt;Node10</title>
<path fill="none" stroke="midnightblue" d="M193.75,-134.48C239.99,-123.89 318.9,-105.84 369.32,-94.3"/>
<polygon fill="midnightblue" stroke="midnightblue" points="370.35,-97.65 379.32,-92.01 368.79,-90.83 370.35,-97.65"/>
</g>
<!-- Node11 -->
<g id="node11" class="node">
<title>Node11</title>
<g id="a_node11"><a xlink:title=" ">
<polygon fill="white" stroke="#bfbfbf" points="555,-73 555,-92 674,-92 674,-73 555,-73"/>
<text text-anchor="middle" x="614.5" y="-80" font-family="Helvetica,sans-Serif" font-size="10.00">G4SystemOfUnits.hh</text>
</a>
</g>
</g>
<!-- Node4&#45;&gt;Node11 -->
<g id="edge10" class="edge">
<title>Node4&#45;&gt;Node11</title>
<path fill="none" stroke="midnightblue" d="M214.09,-135.12C216.93,-134.74 219.75,-134.36 222.5,-134 335.12,-119.07 466.03,-102.33 544.47,-92.36"/>
<polygon fill="midnightblue" stroke="midnightblue" points="545.23,-95.79 554.71,-91.06 544.35,-88.85 545.23,-95.79"/>
</g>
<!-- Node12 -->
<g id="node12" class="node">
<title>Node12</title>
<g id="a_node12"><a xlink:title=" ">
<polygon fill="white" stroke="#bfbfbf" points="38,-67.5 38,-97.5 151,-97.5 151,-67.5 38,-67.5"/>
<text text-anchor="start" x="46" y="-85.5" font-family="Helvetica,sans-Serif" font-size="10.00">boost/property_tree</text>
<text text-anchor="middle" x="94.5" y="-74.5" font-family="Helvetica,sans-Serif" font-size="10.00">/json_parser.hpp</text>
</a>
</g>
</g>
<!-- Node4&#45;&gt;Node12 -->
<g id="edge11" class="edge">
<title>Node4&#45;&gt;Node12</title>
<path fill="none" stroke="midnightblue" d="M147.62,-134.48C139.53,-126.72 127.26,-114.94 116.55,-104.66"/>
<polygon fill="midnightblue" stroke="midnightblue" points="118.75,-101.92 109.11,-97.52 113.9,-106.97 118.75,-101.92"/>
</g>
<!-- Node6 -->
<g id="node6" class="node">
<title>Node6</title>
<g id="a_node6"><a xlink:title=" ">
<polygon fill="white" stroke="#bfbfbf" points="0,-6 0,-25 93,-25 93,-6 0,-6"/>
<text text-anchor="middle" x="46.5" y="-13" font-family="Helvetica,sans-Serif" font-size="10.00">spdlog/spdlog.h</text>
</a>
</g>
</g>
<!-- Node5&#45;&gt;Node6 -->
<g id="edge5" class="edge">
<title>Node5&#45;&gt;Node6</title>
<path fill="none" stroke="midnightblue" d="M195.66,-72.87C165.63,-61.52 112.72,-41.52 78.66,-28.65"/>
<polygon fill="midnightblue" stroke="midnightblue" points="79.75,-25.32 69.16,-25.06 77.28,-31.87 79.75,-25.32"/>
</g>
<!-- Node7 -->
<g id="node7" class="node">
<title>Node7</title>
<g id="a_node7"><a xlink:title=" ">
<polygon fill="white" stroke="#bfbfbf" points="111,-0.5 111,-30.5 222,-30.5 222,-0.5 111,-0.5"/>
<text text-anchor="start" x="119" y="-18.5" font-family="Helvetica,sans-Serif" font-size="10.00">spdlog/sinks/stdout</text>
<text text-anchor="middle" x="166.5" y="-7.5" font-family="Helvetica,sans-Serif" font-size="10.00">_color_sinks.h</text>
</a>
</g>
</g>
<!-- Node5&#45;&gt;Node7 -->
<g id="edge6" class="edge">
<title>Node5&#45;&gt;Node7</title>
<path fill="none" stroke="midnightblue" d="M211.49,-72.73C204.53,-64.03 193.58,-50.34 184.22,-38.65"/>
<polygon fill="midnightblue" stroke="midnightblue" points="186.75,-36.21 177.77,-30.59 181.29,-40.58 186.75,-36.21"/>
</g>
<!-- Node8 -->
<g id="node8" class="node">
<title>Node8</title>
<g id="a_node8"><a xlink:title=" ">
<polygon fill="white" stroke="#bfbfbf" points="240.5,-6 240.5,-25 298.5,-25 298.5,-6 240.5,-6"/>
<text text-anchor="middle" x="269.5" y="-13" font-family="Helvetica,sans-Serif" font-size="10.00">memory</text>
</a>
</g>
</g>
<!-- Node5&#45;&gt;Node8 -->
<g id="edge7" class="edge">
<title>Node5&#45;&gt;Node8</title>
<path fill="none" stroke="midnightblue" d="M225.38,-72.73C233.33,-62.6 246.6,-45.69 256.51,-33.06"/>
<polygon fill="midnightblue" stroke="midnightblue" points="259.31,-35.16 262.73,-25.13 253.8,-30.83 259.31,-35.16"/>
</g>
<!-- Node9 -->
<g id="node9" class="node">
<title>Node9</title>
<g id="a_node9"><a xlink:title=" ">
<polygon fill="white" stroke="#bfbfbf" points="316.5,-6 316.5,-25 414.5,-25 414.5,-6 316.5,-6"/>
<text text-anchor="middle" x="365.5" y="-13" font-family="Helvetica,sans-Serif" font-size="10.00">spdlog/fmt/fmt.h</text>
</a>
</g>
</g>
<!-- Node5&#45;&gt;Node9 -->
<g id="edge8" class="edge">
<title>Node5&#45;&gt;Node9</title>
<path fill="none" stroke="midnightblue" d="M238.02,-72.87C263.28,-61.7 307.5,-42.15 336.64,-29.26"/>
<polygon fill="midnightblue" stroke="midnightblue" points="338.17,-32.41 345.9,-25.17 335.34,-26.01 338.17,-32.41"/>
</g>
<!-- Node18 -->
<g id="node18" class="node">
<title>Node18</title>
<g id="a_node18"><a xlink:href="_o_m_sim_p_m_t_response_8hh.html" target="_top" xlink:title="Provides simulation for PMT response. This class is responsible for transforming hits on photocathode...">
<polygon fill="white" stroke="black" points="794,-134.5 794,-153.5 929,-153.5 929,-134.5 794,-134.5"/>
<text text-anchor="middle" x="861.5" y="-141.5" font-family="Helvetica,sans-Serif" font-size="10.00">OMSimPMTResponse.hh</text>
</a>
</g>
</g>
<!-- Node17&#45;&gt;Node18 -->
<g id="edge17" class="edge">
<title>Node17&#45;&gt;Node18</title>
<path fill="none" stroke="midnightblue" d="M991.27,-246.38C973.4,-238.29 947.05,-225.18 926.5,-210 907.15,-195.71 888.06,-175.72 875.62,-161.69"/>
<polygon fill="midnightblue" stroke="midnightblue" points="878,-159.08 868.8,-153.83 872.71,-163.67 878,-159.08"/>
</g>
<!-- Node23 -->
<g id="node23" class="node">
<title>Node23</title>
<g id="a_node23"><a xlink:href="_o_m_sim_sensitive_detector_8hh.html" target="_top" xlink:title=" ">
<polygon fill="white" stroke="black" points="935,-190.5 935,-209.5 1088,-209.5 1088,-190.5 935,-190.5"/>
<text text-anchor="middle" x="1011.5" y="-197.5" font-family="Helvetica,sans-Serif" font-size="10.00">OMSimSensitiveDetector.hh</text>
</a>
</g>
</g>
<!-- Node17&#45;&gt;Node23 -->
<g id="edge23" class="edge">
<title>Node17&#45;&gt;Node23</title>
<path fill="none" stroke="midnightblue" d="M1011.5,-246.08C1011.5,-239.01 1011.5,-228.86 1011.5,-219.99"/>
<polygon fill="midnightblue" stroke="midnightblue" points="1015,-219.75 1011.5,-209.75 1008,-219.75 1015,-219.75"/>
</g>
<!-- Node25 -->
<g id="node25" class="node">
<title>Node25</title>
<g id="a_node25"><a xlink:title=" ">
<polygon fill="white" stroke="#bfbfbf" points="1169,-134.5 1169,-153.5 1272,-153.5 1272,-134.5 1169,-134.5"/>
<text text-anchor="middle" x="1220.5" y="-141.5" font-family="Helvetica,sans-Serif" font-size="10.00">G4ThreeVector.hh</text>
</a>
</g>
</g>
<!-- Node17&#45;&gt;Node25 -->
<g id="edge29" class="edge">
<title>Node17&#45;&gt;Node25</title>
<path fill="none" stroke="midnightblue" d="M1028,-246.39C1045.32,-237.35 1073.34,-222.71 1097.5,-210 1131.28,-192.24 1170.22,-171.64 1195.09,-158.47"/>
<polygon fill="midnightblue" stroke="midnightblue" points="1197,-161.42 1204.2,-153.64 1193.72,-155.23 1197,-161.42"/>
</g>
<!-- Node27 -->
<g id="node27" class="node">
<title>Node27</title>
<g id="a_node27"><a xlink:title=" ">
<polygon fill="white" stroke="#bfbfbf" points="1145,-190.5 1145,-209.5 1200,-209.5 1200,-190.5 1145,-190.5"/>
<text text-anchor="middle" x="1172.5" y="-197.5" font-family="Helvetica,sans-Serif" font-size="10.00">fstream</text>
</a>
</g>
</g>
<!-- Node17&#45;&gt;Node27 -->
<g id="edge30" class="edge">
<title>Node17&#45;&gt;Node27</title>
<path fill="none" stroke="midnightblue" d="M1037.01,-246.44C1064.1,-237.36 1107.09,-222.94 1137.37,-212.78"/>
<polygon fill="midnightblue" stroke="midnightblue" points="1138.74,-216.01 1147.11,-209.52 1136.51,-209.38 1138.74,-216.01"/>
</g>
<!-- Node18&#45;&gt;Node11 -->
<g id="edge18" class="edge">
<title>Node18&#45;&gt;Node11</title>
<path fill="none" stroke="midnightblue" d="M826.11,-134.48C782.27,-123.92 707.53,-105.91 659.62,-94.37"/>
<polygon fill="midnightblue" stroke="midnightblue" points="660.37,-90.95 649.82,-92.01 658.73,-97.75 660.37,-90.95"/>
</g>
<!-- Node19 -->
<g id="node19" class="node">
<title>Node19</title>
<g id="a_node19"><a xlink:title=" ">
<polygon fill="white" stroke="#bfbfbf" points="717,-73 717,-92 790,-92 790,-73 717,-73"/>
<text text-anchor="middle" x="753.5" y="-80" font-family="Helvetica,sans-Serif" font-size="10.00">G4Types.hh</text>
</a>
</g>
</g>
<!-- Node18&#45;&gt;Node19 -->
<g id="edge19" class="edge">
<title>Node18&#45;&gt;Node19</title>
<path fill="none" stroke="midnightblue" d="M846.03,-134.48C828.22,-124.67 798.76,-108.43 777.87,-96.92"/>
<polygon fill="midnightblue" stroke="midnightblue" points="779.39,-93.77 768.95,-92.01 776.01,-99.9 779.39,-93.77"/>
</g>
<!-- Node20 -->
<g id="node20" class="node">
<title>Node20</title>
<g id="a_node20"><a xlink:title=" ">
<polygon fill="white" stroke="#bfbfbf" points="808.5,-73 808.5,-92 846.5,-92 846.5,-73 808.5,-73"/>
<text text-anchor="middle" x="827.5" y="-80" font-family="Helvetica,sans-Serif" font-size="10.00">map</text>
</a>
</g>
</g>
<!-- Node18&#45;&gt;Node20 -->
<g id="edge20" class="edge">
<title>Node18&#45;&gt;Node20</title>
<path fill="none" stroke="midnightblue" d="M856.63,-134.48C851.63,-125.73 843.71,-111.87 837.39,-100.81"/>
<polygon fill="midnightblue" stroke="midnightblue" points="840.36,-98.96 832.36,-92.01 834.28,-102.43 840.36,-98.96"/>
</g>
<!-- Node21 -->
<g id="node21" class="node">
<title>Node21</title>
<g id="a_node21"><a xlink:title=" ">
<polygon fill="white" stroke="#bfbfbf" points="865,-73 865,-92 926,-92 926,-73 865,-73"/>
<text text-anchor="middle" x="895.5" y="-80" font-family="Helvetica,sans-Serif" font-size="10.00">TGraph.h</text>
</a>
</g>
</g>
<!-- Node18&#45;&gt;Node21 -->
<g id="edge21" class="edge">
<title>Node18&#45;&gt;Node21</title>
<path fill="none" stroke="midnightblue" d="M866.37,-134.48C871.37,-125.73 879.29,-111.87 885.61,-100.81"/>
<polygon fill="midnightblue" stroke="midnightblue" points="888.72,-102.43 890.64,-92.01 882.64,-98.96 888.72,-102.43"/>
</g>
<!-- Node22 -->
<g id="node22" class="node">
<title>Node22</title>
<g id="a_node22"><a xlink:title=" ">
<polygon fill="white" stroke="#bfbfbf" points="944,-73 944,-92 997,-92 997,-73 944,-73"/>
<text text-anchor="middle" x="970.5" y="-80" font-family="Helvetica,sans-Serif" font-size="10.00">TH2D.h</text>
</a>
</g>
</g>
<!-- Node18&#45;&gt;Node22 -->
<g id="edge22" class="edge">
<title>Node18&#45;&gt;Node22</title>
<path fill="none" stroke="midnightblue" d="M877.12,-134.48C895.09,-124.67 924.82,-108.43 945.91,-96.92"/>
<polygon fill="midnightblue" stroke="midnightblue" points="947.81,-99.87 954.91,-92.01 944.46,-93.73 947.81,-99.87"/>
</g>
<!-- Node23&#45;&gt;Node10 -->
<g id="edge27" class="edge">
<title>Node23&#45;&gt;Node10</title>
<path fill="none" stroke="midnightblue" d="M941.57,-190.47C895.96,-183.62 835.63,-172.09 784.5,-154 766.51,-147.63 764.63,-139.97 746.5,-134 701.71,-119.25 580.54,-102.85 498.18,-92.85"/>
<polygon fill="midnightblue" stroke="midnightblue" points="498.43,-89.36 488.09,-91.64 497.6,-96.31 498.43,-89.36"/>
</g>
<!-- Node23&#45;&gt;Node18 -->
<g id="edge26" class="edge">
<title>Node23&#45;&gt;Node18</title>
<path fill="none" stroke="midnightblue" d="M987.73,-190.44C962.61,-181.4 922.79,-167.06 894.6,-156.92"/>
<polygon fill="midnightblue" stroke="midnightblue" points="895.75,-153.61 885.16,-153.52 893.38,-160.2 895.75,-153.61"/>
</g>
<!-- Node24 -->
<g id="node24" class="node">
<title>Node24</title>
<g id="a_node24"><a xlink:title=" ">
<polygon fill="white" stroke="#bfbfbf" points="947.5,-134.5 947.5,-153.5 1085.5,-153.5 1085.5,-134.5 947.5,-134.5"/>
<text text-anchor="middle" x="1016.5" y="-141.5" font-family="Helvetica,sans-Serif" font-size="10.00">G4VSensitiveDetector.hh</text>
</a>
</g>
</g>
<!-- Node23&#45;&gt;Node24 -->
<g id="edge24" class="edge">
<title>Node23&#45;&gt;Node24</title>
<path fill="none" stroke="midnightblue" d="M1012.33,-190.08C1012.98,-183.01 1013.92,-172.86 1014.74,-163.99"/>
<polygon fill="midnightblue" stroke="midnightblue" points="1018.25,-164.03 1015.69,-153.75 1011.28,-163.39 1018.25,-164.03"/>
</g>
<!-- Node23&#45;&gt;Node25 -->
<g id="edge25" class="edge">
<title>Node23&#45;&gt;Node25</title>
<path fill="none" stroke="midnightblue" d="M1044.62,-190.44C1080.62,-181.14 1138.27,-166.25 1177.69,-156.06"/>
<polygon fill="midnightblue" stroke="midnightblue" points="1178.73,-159.41 1187.54,-153.52 1176.98,-152.63 1178.73,-159.41"/>
</g>
<!-- Node26 -->
<g id="node26" class="node">
<title>Node26</title>
<g id="a_node26"><a xlink:title=" ">
<polygon fill="white" stroke="#bfbfbf" points="1104,-134.5 1104,-153.5 1151,-153.5 1151,-134.5 1104,-134.5"/>
<text text-anchor="middle" x="1127.5" y="-141.5" font-family="Helvetica,sans-Serif" font-size="10.00">vector</text>
</a>
</g>
</g>
<!-- Node23&#45;&gt;Node26 -->
<g id="edge28" class="edge">
<title>Node23&#45;&gt;Node26</title>
<path fill="none" stroke="midnightblue" d="M1029.88,-190.44C1048.72,-181.68 1078.23,-167.94 1099.88,-157.86"/>
<polygon fill="midnightblue" stroke="midnightblue" points="1101.62,-160.91 1109.21,-153.52 1098.66,-154.56 1101.62,-160.91"/>
</g>
<!-- Node28&#45;&gt;Node3 -->
<g id="edge32" class="edge">
<title>Node28&#45;&gt;Node3</title>
<path fill="none" stroke="midnightblue" d="M665.16,-246.44C641.75,-237.48 604.76,-223.31 578.31,-213.18"/>
<polygon fill="midnightblue" stroke="midnightblue" points="579.33,-209.82 568.74,-209.52 576.82,-216.36 579.33,-209.82"/>
</g>
<!-- Node28&#45;&gt;Node18 -->
<g id="edge34" class="edge">
<title>Node28&#45;&gt;Node18</title>
<path fill="none" stroke="midnightblue" d="M751.45,-246.45C778.37,-240.12 808.5,-229.12 830.5,-210 844.49,-197.85 852.67,-177.98 857.08,-163.4"/>
<polygon fill="midnightblue" stroke="midnightblue" points="860.53,-164.07 859.75,-153.5 853.77,-162.24 860.53,-164.07"/>
</g>
<!-- Node28&#45;&gt;Node28 -->
<g id="edge33" class="edge">
<title>Node28&#45;&gt;Node28</title>
<path fill="none" stroke="midnightblue" d="M726.95,-265.53C753.76,-268.31 780,-265.13 780,-256 780,-248.01 759.91,-244.58 736.93,-245.71"/>
<polygon fill="midnightblue" stroke="midnightblue" points="736.65,-242.22 726.95,-246.47 737.19,-249.2 736.65,-242.22"/>
</g>
<!-- Node29 -->
<g id="node29" class="node">
<title>Node29</title>
<g id="a_node29"><a xlink:title=" ">
<polygon fill="white" stroke="#bfbfbf" points="638.5,-190.5 638.5,-209.5 736.5,-209.5 736.5,-190.5 638.5,-190.5"/>
<text text-anchor="middle" x="687.5" y="-197.5" font-family="Helvetica,sans-Serif" font-size="10.00">G4UnionSolid.hh</text>
</a>
</g>
</g>
<!-- Node28&#45;&gt;Node29 -->
<g id="edge35" class="edge">
<title>Node28&#45;&gt;Node29</title>
<path fill="none" stroke="midnightblue" d="M687.5,-246.08C687.5,-239.01 687.5,-228.86 687.5,-219.99"/>
<polygon fill="midnightblue" stroke="midnightblue" points="691,-219.75 687.5,-209.75 684,-219.75 691,-219.75"/>
</g>
<!-- Node30 -->
<g id="node30" class="node">
<title>Node30</title>
<g id="a_node30"><a xlink:title=" ">
<polygon fill="white" stroke="#bfbfbf" points="755,-190.5 755,-209.5 822,-209.5 822,-190.5 755,-190.5"/>
<text text-anchor="middle" x="788.5" y="-197.5" font-family="Helvetica,sans-Serif" font-size="10.00">G4Tubs.hh</text>
</a>
</g>
</g>
<!-- Node28&#45;&gt;Node30 -->
<g id="edge36" class="edge">
<title>Node28&#45;&gt;Node30</title>
<path fill="none" stroke="midnightblue" d="M703.73,-246.32C719.85,-237.7 744.8,-224.36 763.46,-214.39"/>
<polygon fill="midnightblue" stroke="midnightblue" points="765.14,-217.46 772.31,-209.65 761.84,-211.28 765.14,-217.46"/>
</g>
<!-- Node31&#45;&gt;Node2 -->
<g id="edge39" class="edge">
<title>Node31&#45;&gt;Node2</title>
<path fill="none" stroke="midnightblue" d="M798.46,-358.44C771.88,-349.36 729.69,-334.94 699.98,-324.78"/>
<polygon fill="midnightblue" stroke="midnightblue" points="701.01,-321.44 690.42,-321.52 698.75,-328.06 701.01,-321.44"/>
</g>
<!-- Node31&#45;&gt;Node32 -->
<g id="edge40" class="edge">
<title>Node31&#45;&gt;Node32</title>
<path fill="none" stroke="midnightblue" d="M848.22,-358.44C874.35,-349.4 915.76,-335.06 945.08,-324.92"/>
<polygon fill="midnightblue" stroke="midnightblue" points="946.59,-328.1 954.9,-321.52 944.3,-321.48 946.59,-328.1"/>
</g>
<!-- Node33 -->
<g id="node33" class="node">
<title>Node33</title>
<g id="a_node33"><a xlink:title=" ">
<polygon fill="white" stroke="#bfbfbf" points="752.5,-302.5 752.5,-321.5 930.5,-321.5 930.5,-302.5 752.5,-302.5"/>
<text text-anchor="middle" x="841.5" y="-309.5" font-family="Helvetica,sans-Serif" font-size="10.00">G4VUserDetectorConstruction.hh</text>
</a>
</g>
</g>
<!-- Node31&#45;&gt;Node33 -->
<g id="edge41" class="edge">
<title>Node31&#45;&gt;Node33</title>
<path fill="none" stroke="midnightblue" d="M826.47,-358.08C828.88,-350.85 832.36,-340.41 835.37,-331.4"/>
<polygon fill="midnightblue" stroke="midnightblue" points="838.74,-332.34 838.58,-321.75 832.1,-330.13 838.74,-332.34"/>
</g>
</g>
</svg>
