<?xml version="1.0" encoding="UTF-8" standalone="no"?>
<!DOCTYPE svg PUBLIC "-//W3C//DTD SVG 1.1//EN"
 "http://www.w3.org/Graphics/SVG/1.1/DTD/svg11.dtd">
<!-- Generated by graphviz version 2.43.0 (0)
 -->
<!-- Title: OMSimDetectorConstruction.cc Pages: 1 -->
<svg width="1366pt" height="442pt"
 viewBox="0.00 0.00 1365.50 442.00" xmlns="http://www.w3.org/2000/svg" xmlns:xlink="http://www.w3.org/1999/xlink">
<g id="graph0" class="graph" transform="scale(1 1) rotate(0) translate(4 438)">
<title>OMSimDetectorConstruction.cc</title>
<polygon fill="white" stroke="transparent" points="-4,4 -4,-438 1361.5,-438 1361.5,4 -4,4"/>
<!-- Node1 -->
<g id="node1" class="node">
<title>Node1</title>
<g id="a_node1"><a xlink:title=" ">
<polygon fill="#bfbfbf" stroke="black" points="698,-414.5 698,-433.5 867,-433.5 867,-414.5 698,-414.5"/>
<text text-anchor="middle" x="782.5" y="-421.5" font-family="Helvetica,sans-Serif" font-size="10.00">OMSimDetectorConstruction.cc</text>
</a>
</g>
</g>
<!-- Node2 -->
<g id="node2" class="node">
<title>Node2</title>
<g id="a_node2"><a xlink:href="_o_m_sim_detector_construction_8hh.html" target="_top" xlink:title=" ">
<polygon fill="white" stroke="black" points="214.5,-358.5 214.5,-377.5 384.5,-377.5 384.5,-358.5 214.5,-358.5"/>
<text text-anchor="middle" x="299.5" y="-365.5" font-family="Helvetica,sans-Serif" font-size="10.00">OMSimDetectorConstruction.hh</text>
</a>
</g>
</g>
<!-- Node1&#45;&gt;Node2 -->
<g id="edge1" class="edge">
<title>Node1&#45;&gt;Node2</title>
<path fill="none" stroke="midnightblue" d="M706.23,-414.47C619.12,-404.73 476.89,-388.83 385.79,-378.65"/>
<polygon fill="midnightblue" stroke="midnightblue" points="386.09,-375.16 375.76,-377.53 385.31,-382.12 386.09,-375.16"/>
</g>
<!-- Node6 -->
<g id="node6" class="node">
<title>Node6</title>
<g id="a_node6"><a xlink:href="_o_m_sim_logger_8hh.html" target="_top" xlink:title=" ">
<polygon fill="white" stroke="black" points="1071,-73 1071,-92 1170,-92 1170,-73 1071,-73"/>
<text text-anchor="middle" x="1120.5" y="-80" font-family="Helvetica,sans-Serif" font-size="10.00">OMSimLogger.hh</text>
</a>
</g>
</g>
<!-- Node1&#45;&gt;Node6 -->
<g id="edge63" class="edge">
<title>Node1&#45;&gt;Node6</title>
<path fill="none" stroke="midnightblue" d="M867.1,-415.39C913.19,-409.16 970.45,-397.97 1018.5,-378 1059.25,-361.07 1078.28,-360.13 1100.5,-322 1142.47,-249.98 1130.94,-144.38 1123.99,-102.05"/>
<polygon fill="midnightblue" stroke="midnightblue" points="1127.42,-101.32 1122.24,-92.08 1120.52,-102.53 1127.42,-101.32"/>
</g>
<!-- Node18 -->
<g id="node18" class="node">
<title>Node18</title>
<g id="a_node18"><a xlink:href="_o_m_sim_hit_manager_8hh.html" target="_top" xlink:title="Defines structures and classes related to optical module photon hit management.">
<polygon fill="white" stroke="black" points="348,-246.5 348,-265.5 471,-265.5 471,-246.5 348,-246.5"/>
<text text-anchor="middle" x="409.5" y="-253.5" font-family="Helvetica,sans-Serif" font-size="10.00">OMSimHitManager.hh</text>
</a>
</g>
</g>
<!-- Node1&#45;&gt;Node18 -->
<g id="edge62" class="edge">
<title>Node1&#45;&gt;Node18</title>
<path fill="none" stroke="midnightblue" d="M697.98,-423.08C607.11,-421.32 470.66,-412.73 433.5,-378 405.3,-351.64 404.91,-302.41 407.15,-275.59"/>
<polygon fill="midnightblue" stroke="midnightblue" points="410.64,-275.91 408.2,-265.6 403.68,-275.18 410.64,-275.91"/>
</g>
<!-- Node33 -->
<g id="node33" class="node">
<title>Node33</title>
<g id="a_node33"><a xlink:href="_o_m_sim_p_d_o_m_8hh.html" target="_top" xlink:title="Implementation of the pDOM/Gen1 DOM class.">
<polygon fill="white" stroke="black" points="443,-358.5 443,-377.5 540,-377.5 540,-358.5 443,-358.5"/>
<text text-anchor="middle" x="491.5" y="-365.5" font-family="Helvetica,sans-Serif" font-size="10.00">OMSimPDOM.hh</text>
</a>
</g>
</g>
<!-- Node1&#45;&gt;Node33 -->
<g id="edge36" class="edge">
<title>Node1&#45;&gt;Node33</title>
<path fill="none" stroke="midnightblue" d="M736.39,-414.44C685.09,-404.92 602.23,-389.55 547.31,-379.36"/>
<polygon fill="midnightblue" stroke="midnightblue" points="547.86,-375.9 537.39,-377.52 546.59,-382.78 547.86,-375.9"/>
</g>
<!-- Node34 -->
<g id="node34" class="node">
<title>Node34</title>
<g id="a_node34"><a xlink:href="_o_m_sim_l_o_m16_8hh.html" target="_top" xlink:title="Construction of LOM16.">
<polygon fill="white" stroke="black" points="558,-358.5 558,-377.5 659,-377.5 659,-358.5 558,-358.5"/>
<text text-anchor="middle" x="608.5" y="-365.5" font-family="Helvetica,sans-Serif" font-size="10.00">OMSimLOM16.hh</text>
</a>
</g>
</g>
<!-- Node1&#45;&gt;Node34 -->
<g id="edge39" class="edge">
<title>Node1&#45;&gt;Node34</title>
<path fill="none" stroke="midnightblue" d="M754.93,-414.44C725.4,-405.28 678.38,-390.69 645.62,-380.52"/>
<polygon fill="midnightblue" stroke="midnightblue" points="646.53,-377.14 635.94,-377.52 644.46,-383.82 646.53,-377.14"/>
</g>
<!-- Node35 -->
<g id="node35" class="node">
<title>Node35</title>
<g id="a_node35"><a xlink:href="_o_m_sim_l_o_m18_8hh.html" target="_top" xlink:title="Construction of LOM18.">
<polygon fill="white" stroke="black" points="909,-358.5 909,-377.5 1010,-377.5 1010,-358.5 909,-358.5"/>
<text text-anchor="middle" x="959.5" y="-365.5" font-family="Helvetica,sans-Serif" font-size="10.00">OMSimLOM18.hh</text>
</a>
</g>
</g>
<!-- Node1&#45;&gt;Node35 -->
<g id="edge42" class="edge">
<title>Node1&#45;&gt;Node35</title>
<path fill="none" stroke="midnightblue" d="M810.55,-414.44C840.58,-405.28 888.41,-390.69 921.74,-380.52"/>
<polygon fill="midnightblue" stroke="midnightblue" points="923.04,-383.78 931.59,-377.52 921,-377.09 923.04,-383.78"/>
</g>
<!-- Node38 -->
<g id="node38" class="node">
<title>Node38</title>
<g id="a_node38"><a xlink:href="_o_m_sim_d_e_g_g_8hh.html" target="_top" xlink:title="Construction of the DEGG class. From DOUMEKI.">
<polygon fill="white" stroke="black" points="677,-358.5 677,-377.5 772,-377.5 772,-358.5 677,-358.5"/>
<text text-anchor="middle" x="724.5" y="-365.5" font-family="Helvetica,sans-Serif" font-size="10.00">OMSimDEGG.hh</text>
</a>
</g>
</g>
<!-- Node1&#45;&gt;Node38 -->
<g id="edge47" class="edge">
<title>Node1&#45;&gt;Node38</title>
<path fill="none" stroke="midnightblue" d="M773.18,-414.32C764.61,-406.34 751.69,-394.31 741.31,-384.65"/>
<polygon fill="midnightblue" stroke="midnightblue" points="743.69,-382.09 733.99,-377.83 738.92,-387.21 743.69,-382.09"/>
</g>
<!-- Node39 -->
<g id="node39" class="node">
<title>Node39</title>
<g id="a_node39"><a xlink:href="_o_m_sim_m_d_o_m_8hh.html" target="_top" xlink:title="Construction of mDOM.">
<polygon fill="white" stroke="black" points="790.5,-358.5 790.5,-377.5 890.5,-377.5 890.5,-358.5 790.5,-358.5"/>
<text text-anchor="middle" x="840.5" y="-365.5" font-family="Helvetica,sans-Serif" font-size="10.00">OMSimMDOM.hh</text>
</a>
</g>
</g>
<!-- Node1&#45;&gt;Node39 -->
<g id="edge50" class="edge">
<title>Node1&#45;&gt;Node39</title>
<path fill="none" stroke="midnightblue" d="M791.82,-414.32C800.39,-406.34 813.31,-394.31 823.69,-384.65"/>
<polygon fill="midnightblue" stroke="midnightblue" points="826.08,-387.21 831.01,-377.83 821.31,-382.09 826.08,-387.21"/>
</g>
<!-- Node42 -->
<g id="node42" class="node">
<title>Node42</title>
<g id="a_node42"><a xlink:href="_o_m_sim_command_args_table_8hh.html" target="_top" xlink:title="Definition of the OMSimCommandArgsTable singleton class, which controls user args.">
<polygon fill="white" stroke="black" points="1147.5,-246.5 1147.5,-265.5 1311.5,-265.5 1311.5,-246.5 1147.5,-246.5"/>
<text text-anchor="middle" x="1229.5" y="-253.5" font-family="Helvetica,sans-Serif" font-size="10.00">OMSimCommandArgsTable.hh</text>
</a>
</g>
</g>
<!-- Node1&#45;&gt;Node42 -->
<g id="edge57" class="edge">
<title>Node1&#45;&gt;Node42</title>
<path fill="none" stroke="midnightblue" d="M867.29,-419.43C956.31,-414.4 1089.36,-402.91 1133.5,-378 1176.36,-353.81 1207.11,-302.1 1221.08,-274.78"/>
<polygon fill="midnightblue" stroke="midnightblue" points="1224.32,-276.12 1225.61,-265.6 1218.05,-273.02 1224.32,-276.12"/>
</g>
<!-- Node45 -->
<g id="node45" class="node">
<title>Node45</title>
<g id="a_node45"><a xlink:title=" ">
<polygon fill="white" stroke="#bfbfbf" points="1186,-358.5 1186,-377.5 1287,-377.5 1287,-358.5 1186,-358.5"/>
<text text-anchor="middle" x="1236.5" y="-365.5" font-family="Helvetica,sans-Serif" font-size="10.00">G4SDManager.hh</text>
</a>
</g>
</g>
<!-- Node1&#45;&gt;Node45 -->
<g id="edge64" class="edge">
<title>Node1&#45;&gt;Node45</title>
<path fill="none" stroke="midnightblue" d="M860.8,-414.46C939.4,-405.77 1063.93,-391.67 1171.5,-378 1172.8,-377.83 1174.12,-377.67 1175.45,-377.49"/>
<polygon fill="midnightblue" stroke="midnightblue" points="1176.31,-380.91 1185.77,-376.14 1175.4,-373.97 1176.31,-380.91"/>
</g>
<!-- Node3 -->
<g id="node3" class="node">
<title>Node3</title>
<g id="a_node3"><a xlink:href="_o_m_sim_optical_module_8hh.html" target="_top" xlink:title=" ">
<polygon fill="white" stroke="black" points="521,-302.5 521,-321.5 658,-321.5 658,-302.5 521,-302.5"/>
<text text-anchor="middle" x="589.5" y="-309.5" font-family="Helvetica,sans-Serif" font-size="10.00">OMSimOpticalModule.hh</text>
</a>
</g>
</g>
<!-- Node2&#45;&gt;Node3 -->
<g id="edge2" class="edge">
<title>Node2&#45;&gt;Node3</title>
<path fill="none" stroke="midnightblue" d="M345.45,-358.44C396.57,-348.92 479.15,-333.55 533.88,-323.36"/>
<polygon fill="midnightblue" stroke="midnightblue" points="534.57,-326.79 543.76,-321.52 533.29,-319.91 534.57,-326.79"/>
</g>
<!-- Node31 -->
<g id="node31" class="node">
<title>Node31</title>
<g id="a_node31"><a xlink:title=" ">
<polygon fill="white" stroke="#bfbfbf" points="128.5,-302.5 128.5,-321.5 190.5,-321.5 190.5,-302.5 128.5,-302.5"/>
<text text-anchor="middle" x="159.5" y="-309.5" font-family="Helvetica,sans-Serif" font-size="10.00">G4Orb.hh</text>
</a>
</g>
</g>
<!-- Node2&#45;&gt;Node31 -->
<g id="edge34" class="edge">
<title>Node2&#45;&gt;Node31</title>
<path fill="none" stroke="midnightblue" d="M277.32,-358.44C254.07,-349.48 217.35,-335.31 191.08,-325.18"/>
<polygon fill="midnightblue" stroke="midnightblue" points="192.17,-321.85 181.58,-321.52 189.65,-328.38 192.17,-321.85"/>
</g>
<!-- Node32 -->
<g id="node32" class="node">
<title>Node32</title>
<g id="a_node32"><a xlink:title=" ">
<polygon fill="white" stroke="#bfbfbf" points="208.5,-302.5 208.5,-321.5 386.5,-321.5 386.5,-302.5 208.5,-302.5"/>
<text text-anchor="middle" x="297.5" y="-309.5" font-family="Helvetica,sans-Serif" font-size="10.00">G4VUserDetectorConstruction.hh</text>
</a>
</g>
</g>
<!-- Node2&#45;&gt;Node32 -->
<g id="edge35" class="edge">
<title>Node2&#45;&gt;Node32</title>
<path fill="none" stroke="midnightblue" d="M299.17,-358.08C298.91,-351.01 298.53,-340.86 298.2,-331.99"/>
<polygon fill="midnightblue" stroke="midnightblue" points="301.69,-331.61 297.82,-321.75 294.7,-331.87 301.69,-331.61"/>
</g>
<!-- Node4 -->
<g id="node4" class="node">
<title>Node4</title>
<g id="a_node4"><a xlink:href="abc_detector_component_8hh.html" target="_top" xlink:title="Provides helper base class abcDetectorComponent for constructing and managing detector components in ...">
<polygon fill="white" stroke="black" points="621,-190.5 621,-209.5 768,-209.5 768,-190.5 621,-190.5"/>
<text text-anchor="middle" x="694.5" y="-197.5" font-family="Helvetica,sans-Serif" font-size="10.00">abcDetectorComponent.hh</text>
</a>
</g>
</g>
<!-- Node3&#45;&gt;Node4 -->
<g id="edge3" class="edge">
<title>Node3&#45;&gt;Node4</title>
<path fill="none" stroke="midnightblue" d="M589.26,-302.44C589.34,-289 591.32,-262.74 604.5,-246 616.63,-230.6 635.42,-220.05 652.7,-213.06"/>
<polygon fill="midnightblue" stroke="midnightblue" points="653.96,-216.33 662.09,-209.54 651.5,-209.78 653.96,-216.33"/>
</g>
<!-- Node3&#45;&gt;Node18 -->
<g id="edge17" class="edge">
<title>Node3&#45;&gt;Node18</title>
<path fill="none" stroke="midnightblue" d="M560.98,-302.44C530.43,-293.28 481.79,-278.69 447.9,-268.52"/>
<polygon fill="midnightblue" stroke="midnightblue" points="448.47,-265.04 437.89,-265.52 446.46,-271.74 448.47,-265.04"/>
</g>
<!-- Node28 -->
<g id="node28" class="node">
<title>Node28</title>
<g id="a_node28"><a xlink:href="_o_m_sim_p_m_t_construction_8hh.html" target="_top" xlink:title="Construction of the PMTs.">
<polygon fill="white" stroke="black" points="614,-246.5 614,-265.5 763,-265.5 763,-246.5 614,-246.5"/>
<text text-anchor="middle" x="688.5" y="-253.5" font-family="Helvetica,sans-Serif" font-size="10.00">OMSimPMTConstruction.hh</text>
</a>
</g>
</g>
<!-- Node3&#45;&gt;Node28 -->
<g id="edge28" class="edge">
<title>Node3&#45;&gt;Node28</title>
<path fill="none" stroke="midnightblue" d="M605.41,-302.32C621.14,-293.74 645.44,-280.49 663.71,-270.52"/>
<polygon fill="midnightblue" stroke="midnightblue" points="665.53,-273.52 672.63,-265.65 662.18,-267.37 665.53,-273.52"/>
</g>
<!-- Node5 -->
<g id="node5" class="node">
<title>Node5</title>
<g id="a_node5"><a xlink:href="_o_m_sim_input_data_8hh.html" target="_top" xlink:title="Definition of ParameterTable and InputDataManager.">
<polygon fill="white" stroke="black" points="579,-134.5 579,-153.5 694,-153.5 694,-134.5 579,-134.5"/>
<text text-anchor="middle" x="636.5" y="-141.5" font-family="Helvetica,sans-Serif" font-size="10.00">OMSimInputData.hh</text>
</a>
</g>
</g>
<!-- Node4&#45;&gt;Node5 -->
<g id="edge4" class="edge">
<title>Node4&#45;&gt;Node5</title>
<path fill="none" stroke="midnightblue" d="M685.18,-190.32C676.61,-182.34 663.69,-170.31 653.31,-160.65"/>
<polygon fill="midnightblue" stroke="midnightblue" points="655.69,-158.09 645.99,-153.83 650.92,-163.21 655.69,-158.09"/>
</g>
<!-- Node14 -->
<g id="node14" class="node">
<title>Node14</title>
<g id="a_node14"><a xlink:title=" ">
<polygon fill="white" stroke="#bfbfbf" points="454,-134.5 454,-153.5 561,-153.5 561,-134.5 454,-134.5"/>
<text text-anchor="middle" x="507.5" y="-141.5" font-family="Helvetica,sans-Serif" font-size="10.00">G4Transform3D.hh</text>
</a>
</g>
</g>
<!-- Node4&#45;&gt;Node14 -->
<g id="edge13" class="edge">
<title>Node4&#45;&gt;Node14</title>
<path fill="none" stroke="midnightblue" d="M664.87,-190.44C633,-181.24 582.17,-166.56 546.94,-156.39"/>
<polygon fill="midnightblue" stroke="midnightblue" points="547.57,-152.93 536.99,-153.52 545.63,-159.65 547.57,-152.93"/>
</g>
<!-- Node15 -->
<g id="node15" class="node">
<title>Node15</title>
<g id="a_node15"><a xlink:title=" ">
<polygon fill="white" stroke="#bfbfbf" points="712.5,-134.5 712.5,-153.5 820.5,-153.5 820.5,-134.5 712.5,-134.5"/>
<text text-anchor="middle" x="766.5" y="-141.5" font-family="Helvetica,sans-Serif" font-size="10.00">G4VisAttributes.hh</text>
</a>
</g>
</g>
<!-- Node4&#45;&gt;Node15 -->
<g id="edge14" class="edge">
<title>Node4&#45;&gt;Node15</title>
<path fill="none" stroke="midnightblue" d="M706.07,-190.32C716.92,-182.18 733.38,-169.84 746.38,-160.09"/>
<polygon fill="midnightblue" stroke="midnightblue" points="748.82,-162.63 754.72,-153.83 744.62,-157.03 748.82,-162.63"/>
</g>
<!-- Node16 -->
<g id="node16" class="node">
<title>Node16</title>
<g id="a_node16"><a xlink:title=" ">
<polygon fill="white" stroke="#bfbfbf" points="839,-134.5 839,-153.5 964,-153.5 964,-134.5 839,-134.5"/>
<text text-anchor="middle" x="901.5" y="-141.5" font-family="Helvetica,sans-Serif" font-size="10.00">G4SubtractionSolid.hh</text>
</a>
</g>
</g>
<!-- Node4&#45;&gt;Node16 -->
<g id="edge15" class="edge">
<title>Node4&#45;&gt;Node16</title>
<path fill="none" stroke="midnightblue" d="M727.3,-190.44C762.88,-181.16 819.81,-166.31 858.85,-156.13"/>
<polygon fill="midnightblue" stroke="midnightblue" points="860.06,-159.43 868.85,-153.52 858.29,-152.65 860.06,-159.43"/>
</g>
<!-- Node17 -->
<g id="node17" class="node">
<title>Node17</title>
<g id="a_node17"><a xlink:title=" ">
<polygon fill="white" stroke="#bfbfbf" points="982.5,-134.5 982.5,-153.5 1092.5,-153.5 1092.5,-134.5 982.5,-134.5"/>
<text text-anchor="middle" x="1037.5" y="-141.5" font-family="Helvetica,sans-Serif" font-size="10.00">G4PVPlacement.hh</text>
</a>
</g>
</g>
<!-- Node4&#45;&gt;Node17 -->
<g id="edge16" class="edge">
<title>Node4&#45;&gt;Node17</title>
<path fill="none" stroke="midnightblue" d="M748.85,-190.44C809.81,-180.85 908.61,-165.29 973.32,-155.1"/>
<polygon fill="midnightblue" stroke="midnightblue" points="974.07,-158.53 983.4,-153.52 972.98,-151.61 974.07,-158.53"/>
</g>
<!-- Node5&#45;&gt;Node6 -->
<g id="edge5" class="edge">
<title>Node5&#45;&gt;Node6</title>
<path fill="none" stroke="midnightblue" d="M694.24,-135.2C697.37,-134.79 700.47,-134.39 703.5,-134 830.62,-117.77 979.72,-100.02 1060.72,-90.49"/>
<polygon fill="midnightblue" stroke="midnightblue" points="1061.2,-93.96 1070.73,-89.32 1060.39,-87.01 1061.2,-93.96"/>
</g>
<!-- Node11 -->
<g id="node11" class="node">
<title>Node11</title>
<g id="a_node11"><a xlink:title=" ">
<polygon fill="white" stroke="#bfbfbf" points="638,-73 638,-92 781,-92 781,-73 638,-73"/>
<text text-anchor="middle" x="709.5" y="-80" font-family="Helvetica,sans-Serif" font-size="10.00">G4OpBoundaryProcess.hh</text>
</a>
</g>
</g>
<!-- Node5&#45;&gt;Node11 -->
<g id="edge10" class="edge">
<title>Node5&#45;&gt;Node11</title>
<path fill="none" stroke="midnightblue" d="M646.96,-134.48C658.45,-125.11 677.13,-109.88 691.09,-98.51"/>
<polygon fill="midnightblue" stroke="midnightblue" points="693.52,-101.04 699.06,-92.01 689.1,-95.61 693.52,-101.04"/>
</g>
<!-- Node12 -->
<g id="node12" class="node">
<title>Node12</title>
<g id="a_node12"><a xlink:title=" ">
<polygon fill="white" stroke="#bfbfbf" points="302,-73 302,-92 421,-92 421,-73 302,-73"/>
<text text-anchor="middle" x="361.5" y="-80" font-family="Helvetica,sans-Serif" font-size="10.00">G4SystemOfUnits.hh</text>
</a>
</g>
</g>
<!-- Node5&#45;&gt;Node12 -->
<g id="edge11" class="edge">
<title>Node5&#45;&gt;Node12</title>
<path fill="none" stroke="midnightblue" d="M597.1,-134.48C547.99,-123.85 464.03,-105.68 410.73,-94.15"/>
<polygon fill="midnightblue" stroke="midnightblue" points="411.34,-90.7 400.83,-92.01 409.86,-97.54 411.34,-90.7"/>
</g>
<!-- Node13 -->
<g id="node13" class="node">
<title>Node13</title>
<g id="a_node13"><a xlink:title=" ">
<polygon fill="white" stroke="#bfbfbf" points="507,-67.5 507,-97.5 620,-97.5 620,-67.5 507,-67.5"/>
<text text-anchor="start" x="515" y="-85.5" font-family="Helvetica,sans-Serif" font-size="10.00">boost/property_tree</text>
<text text-anchor="middle" x="563.5" y="-74.5" font-family="Helvetica,sans-Serif" font-size="10.00">/json_parser.hpp</text>
</a>
</g>
</g>
<!-- Node5&#45;&gt;Node13 -->
<g id="edge12" class="edge">
<title>Node5&#45;&gt;Node13</title>
<path fill="none" stroke="midnightblue" d="M626.04,-134.48C616.34,-126.57 601.51,-114.48 588.73,-104.07"/>
<polygon fill="midnightblue" stroke="midnightblue" points="590.67,-101.13 580.7,-97.52 586.24,-106.55 590.67,-101.13"/>
</g>
<!-- Node7 -->
<g id="node7" class="node">
<title>Node7</title>
<g id="a_node7"><a xlink:title=" ">
<polygon fill="white" stroke="#bfbfbf" points="902,-6 902,-25 995,-25 995,-6 902,-6"/>
<text text-anchor="middle" x="948.5" y="-13" font-family="Helvetica,sans-Serif" font-size="10.00">spdlog/spdlog.h</text>
</a>
</g>
</g>
<!-- Node6&#45;&gt;Node7 -->
<g id="edge6" class="edge">
<title>Node6&#45;&gt;Node7</title>
<path fill="none" stroke="midnightblue" d="M1097.66,-72.87C1067.63,-61.52 1014.72,-41.52 980.66,-28.65"/>
<polygon fill="midnightblue" stroke="midnightblue" points="981.75,-25.32 971.16,-25.06 979.28,-31.87 981.75,-25.32"/>
</g>
<!-- Node8 -->
<g id="node8" class="node">
<title>Node8</title>
<g id="a_node8"><a xlink:title=" ">
<polygon fill="white" stroke="#bfbfbf" points="1013,-0.5 1013,-30.5 1124,-30.5 1124,-0.5 1013,-0.5"/>
<text text-anchor="start" x="1021" y="-18.5" font-family="Helvetica,sans-Serif" font-size="10.00">spdlog/sinks/stdout</text>
<text text-anchor="middle" x="1068.5" y="-7.5" font-family="Helvetica,sans-Serif" font-size="10.00">_color_sinks.h</text>
</a>
</g>
</g>
<!-- Node6&#45;&gt;Node8 -->
<g id="edge7" class="edge">
<title>Node6&#45;&gt;Node8</title>
<path fill="none" stroke="midnightblue" d="M1113.49,-72.73C1106.53,-64.03 1095.58,-50.34 1086.22,-38.65"/>
<polygon fill="midnightblue" stroke="midnightblue" points="1088.75,-36.21 1079.77,-30.59 1083.29,-40.58 1088.75,-36.21"/>
</g>
<!-- Node9 -->
<g id="node9" class="node">
<title>Node9</title>
<g id="a_node9"><a xlink:title=" ">
<polygon fill="white" stroke="#bfbfbf" points="1142.5,-6 1142.5,-25 1200.5,-25 1200.5,-6 1142.5,-6"/>
<text text-anchor="middle" x="1171.5" y="-13" font-family="Helvetica,sans-Serif" font-size="10.00">memory</text>
</a>
</g>
</g>
<!-- Node6&#45;&gt;Node9 -->
<g id="edge8" class="edge">
<title>Node6&#45;&gt;Node9</title>
<path fill="none" stroke="midnightblue" d="M1127.38,-72.73C1135.33,-62.6 1148.6,-45.69 1158.51,-33.06"/>
<polygon fill="midnightblue" stroke="midnightblue" points="1161.31,-35.16 1164.73,-25.13 1155.8,-30.83 1161.31,-35.16"/>
</g>
<!-- Node10 -->
<g id="node10" class="node">
<title>Node10</title>
<g id="a_node10"><a xlink:title=" ">
<polygon fill="white" stroke="#bfbfbf" points="1218.5,-6 1218.5,-25 1316.5,-25 1316.5,-6 1218.5,-6"/>
<text text-anchor="middle" x="1267.5" y="-13" font-family="Helvetica,sans-Serif" font-size="10.00">spdlog/fmt/fmt.h</text>
</a>
</g>
</g>
<!-- Node6&#45;&gt;Node10 -->
<g id="edge9" class="edge">
<title>Node6&#45;&gt;Node10</title>
<path fill="none" stroke="midnightblue" d="M1140.02,-72.87C1165.28,-61.7 1209.5,-42.15 1238.64,-29.26"/>
<polygon fill="midnightblue" stroke="midnightblue" points="1240.17,-32.41 1247.9,-25.17 1237.34,-26.01 1240.17,-32.41"/>
</g>
<!-- Node19 -->
<g id="node19" class="node">
<title>Node19</title>
<g id="a_node19"><a xlink:href="_o_m_sim_p_m_t_response_8hh.html" target="_top" xlink:title="Simulation of PMT response.">
<polygon fill="white" stroke="black" points="342,-190.5 342,-209.5 477,-209.5 477,-190.5 342,-190.5"/>
<text text-anchor="middle" x="409.5" y="-197.5" font-family="Helvetica,sans-Serif" font-size="10.00">OMSimPMTResponse.hh</text>
</a>
</g>
</g>
<!-- Node18&#45;&gt;Node19 -->
<g id="edge18" class="edge">
<title>Node18&#45;&gt;Node19</title>
<path fill="none" stroke="midnightblue" d="M409.5,-246.08C409.5,-239.01 409.5,-228.86 409.5,-219.99"/>
<polygon fill="midnightblue" stroke="midnightblue" points="413,-219.75 409.5,-209.75 406,-219.75 413,-219.75"/>
</g>
<!-- Node24 -->
<g id="node24" class="node">
<title>Node24</title>
<g id="a_node24"><a xlink:title=" ">
<polygon fill="white" stroke="#bfbfbf" points="0,-190.5 0,-209.5 103,-209.5 103,-190.5 0,-190.5"/>
<text text-anchor="middle" x="51.5" y="-197.5" font-family="Helvetica,sans-Serif" font-size="10.00">G4ThreeVector.hh</text>
</a>
</g>
</g>
<!-- Node18&#45;&gt;Node24 -->
<g id="edge24" class="edge">
<title>Node18&#45;&gt;Node24</title>
<path fill="none" stroke="midnightblue" d="M352.77,-246.44C287.42,-236.59 180.41,-220.44 113.07,-210.29"/>
<polygon fill="midnightblue" stroke="midnightblue" points="113.44,-206.8 103.03,-208.77 112.39,-213.72 113.44,-206.8"/>
</g>
<!-- Node25 -->
<g id="node25" class="node">
<title>Node25</title>
<g id="a_node25"><a xlink:title=" ">
<polygon fill="white" stroke="#bfbfbf" points="1021,-190.5 1021,-209.5 1076,-209.5 1076,-190.5 1021,-190.5"/>
<text text-anchor="middle" x="1048.5" y="-197.5" font-family="Helvetica,sans-Serif" font-size="10.00">fstream</text>
</a>
</g>
</g>
<!-- Node18&#45;&gt;Node25 -->
<g id="edge25" class="edge">
<title>Node18&#45;&gt;Node25</title>
<path fill="none" stroke="midnightblue" d="M471.04,-251.29C601.45,-243.28 901.94,-223.95 1003.5,-210 1005.99,-209.66 1008.54,-209.26 1011.11,-208.84"/>
<polygon fill="midnightblue" stroke="midnightblue" points="1011.76,-212.28 1020.98,-207.05 1010.52,-205.39 1011.76,-212.28"/>
</g>
<!-- Node26 -->
<g id="node26" class="node">
<title>Node26</title>
<g id="a_node26"><a xlink:title=" ">
<polygon fill="white" stroke="#bfbfbf" points="121.5,-190.5 121.5,-209.5 211.5,-209.5 211.5,-190.5 121.5,-190.5"/>
<text text-anchor="middle" x="166.5" y="-197.5" font-family="Helvetica,sans-Serif" font-size="10.00">G4AutoLock.hh</text>
</a>
</g>
</g>
<!-- Node18&#45;&gt;Node26 -->
<g id="edge26" class="edge">
<title>Node18&#45;&gt;Node26</title>
<path fill="none" stroke="midnightblue" d="M371,-246.44C328.69,-237.04 260.68,-221.93 214.83,-211.74"/>
<polygon fill="midnightblue" stroke="midnightblue" points="215.35,-208.27 204.82,-209.52 213.83,-215.1 215.35,-208.27"/>
</g>
<!-- Node27 -->
<g id="node27" class="node">
<title>Node27</title>
<g id="a_node27"><a xlink:title=" ">
<polygon fill="white" stroke="#bfbfbf" points="229.5,-190.5 229.5,-209.5 323.5,-209.5 323.5,-190.5 229.5,-190.5"/>
<text text-anchor="middle" x="276.5" y="-197.5" font-family="Helvetica,sans-Serif" font-size="10.00">G4Threading.hh</text>
</a>
</g>
</g>
<!-- Node18&#45;&gt;Node27 -->
<g id="edge27" class="edge">
<title>Node18&#45;&gt;Node27</title>
<path fill="none" stroke="midnightblue" d="M388.43,-246.44C366.44,-237.52 331.77,-223.44 306.84,-213.32"/>
<polygon fill="midnightblue" stroke="midnightblue" points="308.06,-210.04 297.48,-209.52 305.42,-216.52 308.06,-210.04"/>
</g>
<!-- Node19&#45;&gt;Node12 -->
<g id="edge19" class="edge">
<title>Node19&#45;&gt;Node12</title>
<path fill="none" stroke="midnightblue" d="M345.89,-190.45C302.96,-183.22 251.81,-171.26 238.5,-154 215.78,-124.52 262.82,-105.27 305.13,-94.45"/>
<polygon fill="midnightblue" stroke="midnightblue" points="306.01,-97.84 314.9,-92.07 304.35,-91.04 306.01,-97.84"/>
</g>
<!-- Node20 -->
<g id="node20" class="node">
<title>Node20</title>
<g id="a_node20"><a xlink:title=" ">
<polygon fill="white" stroke="#bfbfbf" points="118,-134.5 118,-153.5 191,-153.5 191,-134.5 118,-134.5"/>
<text text-anchor="middle" x="154.5" y="-141.5" font-family="Helvetica,sans-Serif" font-size="10.00">G4Types.hh</text>
</a>
</g>
</g>
<!-- Node19&#45;&gt;Node20 -->
<g id="edge20" class="edge">
<title>Node19&#45;&gt;Node20</title>
<path fill="none" stroke="midnightblue" d="M369.09,-190.44C323.47,-180.78 249.34,-165.08 201.25,-154.9"/>
<polygon fill="midnightblue" stroke="midnightblue" points="201.91,-151.46 191.4,-152.82 200.46,-158.31 201.91,-151.46"/>
</g>
<!-- Node21 -->
<g id="node21" class="node">
<title>Node21</title>
<g id="a_node21"><a xlink:title=" ">
<polygon fill="white" stroke="#bfbfbf" points="247.5,-134.5 247.5,-153.5 285.5,-153.5 285.5,-134.5 247.5,-134.5"/>
<text text-anchor="middle" x="266.5" y="-141.5" font-family="Helvetica,sans-Serif" font-size="10.00">map</text>
</a>
</g>
</g>
<!-- Node19&#45;&gt;Node21 -->
<g id="edge21" class="edge">
<title>Node19&#45;&gt;Node21</title>
<path fill="none" stroke="midnightblue" d="M386.84,-190.44C362.12,-181.11 322.48,-166.14 295.5,-155.95"/>
<polygon fill="midnightblue" stroke="midnightblue" points="296.43,-152.56 285.84,-152.3 293.96,-159.11 296.43,-152.56"/>
</g>
<!-- Node22 -->
<g id="node22" class="node">
<title>Node22</title>
<g id="a_node22"><a xlink:title=" ">
<polygon fill="white" stroke="#bfbfbf" points="304,-134.5 304,-153.5 365,-153.5 365,-134.5 304,-134.5"/>
<text text-anchor="middle" x="334.5" y="-141.5" font-family="Helvetica,sans-Serif" font-size="10.00">TGraph.h</text>
</a>
</g>
</g>
<!-- Node19&#45;&gt;Node22 -->
<g id="edge22" class="edge">
<title>Node19&#45;&gt;Node22</title>
<path fill="none" stroke="midnightblue" d="M397.45,-190.32C386.04,-182.11 368.67,-169.6 355.07,-159.81"/>
<polygon fill="midnightblue" stroke="midnightblue" points="356.93,-156.84 346.77,-153.83 352.84,-162.52 356.93,-156.84"/>
</g>
<!-- Node23 -->
<g id="node23" class="node">
<title>Node23</title>
<g id="a_node23"><a xlink:title=" ">
<polygon fill="white" stroke="#bfbfbf" points="383,-134.5 383,-153.5 436,-153.5 436,-134.5 383,-134.5"/>
<text text-anchor="middle" x="409.5" y="-141.5" font-family="Helvetica,sans-Serif" font-size="10.00">TH2D.h</text>
</a>
</g>
</g>
<!-- Node19&#45;&gt;Node23 -->
<g id="edge23" class="edge">
<title>Node19&#45;&gt;Node23</title>
<path fill="none" stroke="midnightblue" d="M409.5,-190.08C409.5,-183.01 409.5,-172.86 409.5,-163.99"/>
<polygon fill="midnightblue" stroke="midnightblue" points="413,-163.75 409.5,-153.75 406,-163.75 413,-163.75"/>
</g>
<!-- Node28&#45;&gt;Node4 -->
<g id="edge29" class="edge">
<title>Node28&#45;&gt;Node4</title>
<path fill="none" stroke="midnightblue" d="M689.49,-246.08C690.29,-238.93 691.43,-228.64 692.42,-219.69"/>
<polygon fill="midnightblue" stroke="midnightblue" points="695.9,-220.08 693.53,-209.75 688.94,-219.3 695.9,-220.08"/>
</g>
<!-- Node28&#45;&gt;Node19 -->
<g id="edge31" class="edge">
<title>Node28&#45;&gt;Node19</title>
<path fill="none" stroke="midnightblue" d="M644.29,-246.44C595.21,-236.94 515.99,-221.61 463.34,-211.42"/>
<polygon fill="midnightblue" stroke="midnightblue" points="463.98,-207.98 453.5,-209.52 462.65,-214.85 463.98,-207.98"/>
</g>
<!-- Node28&#45;&gt;Node28 -->
<g id="edge30" class="edge">
<title>Node28&#45;&gt;Node28</title>
<path fill="none" stroke="midnightblue" d="M727.95,-265.53C754.76,-268.31 781,-265.13 781,-256 781,-248.01 760.91,-244.58 737.93,-245.71"/>
<polygon fill="midnightblue" stroke="midnightblue" points="737.65,-242.22 727.95,-246.47 738.19,-249.2 737.65,-242.22"/>
</g>
<!-- Node29 -->
<g id="node29" class="node">
<title>Node29</title>
<g id="a_node29"><a xlink:title=" ">
<polygon fill="white" stroke="#bfbfbf" points="786.5,-190.5 786.5,-209.5 884.5,-209.5 884.5,-190.5 786.5,-190.5"/>
<text text-anchor="middle" x="835.5" y="-197.5" font-family="Helvetica,sans-Serif" font-size="10.00">G4UnionSolid.hh</text>
</a>
</g>
</g>
<!-- Node28&#45;&gt;Node29 -->
<g id="edge32" class="edge">
<title>Node28&#45;&gt;Node29</title>
<path fill="none" stroke="midnightblue" d="M711.79,-246.44C736.31,-237.44 775.1,-223.19 802.7,-213.05"/>
<polygon fill="midnightblue" stroke="midnightblue" points="804.14,-216.25 812.32,-209.52 801.72,-209.68 804.14,-216.25"/>
</g>
<!-- Node30 -->
<g id="node30" class="node">
<title>Node30</title>
<g id="a_node30"><a xlink:title=" ">
<polygon fill="white" stroke="#bfbfbf" points="536,-190.5 536,-209.5 603,-209.5 603,-190.5 536,-190.5"/>
<text text-anchor="middle" x="569.5" y="-197.5" font-family="Helvetica,sans-Serif" font-size="10.00">G4Tubs.hh</text>
</a>
</g>
</g>
<!-- Node28&#45;&gt;Node30 -->
<g id="edge33" class="edge">
<title>Node28&#45;&gt;Node30</title>
<path fill="none" stroke="midnightblue" d="M669.64,-246.44C650.23,-237.64 619.77,-223.81 597.54,-213.72"/>
<polygon fill="midnightblue" stroke="midnightblue" points="598.82,-210.46 588.27,-209.52 595.93,-216.84 598.82,-210.46"/>
</g>
<!-- Node33&#45;&gt;Node3 -->
<g id="edge38" class="edge">
<title>Node33&#45;&gt;Node3</title>
<path fill="none" stroke="midnightblue" d="M507.25,-358.32C522.82,-349.74 546.88,-336.49 564.96,-326.52"/>
<polygon fill="midnightblue" stroke="midnightblue" points="566.72,-329.55 573.79,-321.65 563.35,-323.42 566.72,-329.55"/>
</g>
<!-- Node33&#45;&gt;Node28 -->
<g id="edge37" class="edge">
<title>Node33&#45;&gt;Node28</title>
<path fill="none" stroke="midnightblue" d="M491.6,-358.47C492.24,-344.59 495.59,-317.14 511.5,-302 536.17,-278.53 571.29,-266.83 603.75,-261.16"/>
<polygon fill="midnightblue" stroke="midnightblue" points="604.39,-264.6 613.72,-259.58 603.3,-257.68 604.39,-264.6"/>
</g>
<!-- Node34&#45;&gt;Node3 -->
<g id="edge41" class="edge">
<title>Node34&#45;&gt;Node3</title>
<path fill="none" stroke="midnightblue" d="M605.36,-358.08C602.82,-350.85 599.14,-340.41 595.97,-331.4"/>
<polygon fill="midnightblue" stroke="midnightblue" points="599.2,-330.02 592.58,-321.75 592.6,-332.35 599.2,-330.02"/>
</g>
<!-- Node34&#45;&gt;Node28 -->
<g id="edge40" class="edge">
<title>Node34&#45;&gt;Node28</title>
<path fill="none" stroke="midnightblue" d="M624.14,-358.41C637.17,-350.52 655.34,-337.68 666.5,-322 676.32,-308.2 682.02,-289.68 685.15,-275.94"/>
<polygon fill="midnightblue" stroke="midnightblue" points="688.66,-276.22 687.2,-265.73 681.8,-274.84 688.66,-276.22"/>
</g>
<!-- Node35&#45;&gt;Node3 -->
<g id="edge44" class="edge">
<title>Node35&#45;&gt;Node3</title>
<path fill="none" stroke="midnightblue" d="M908.76,-359.37C905.63,-358.91 902.52,-358.45 899.5,-358 816.81,-345.8 721.67,-332.03 658.84,-322.97"/>
<polygon fill="midnightblue" stroke="midnightblue" points="659.05,-319.46 648.65,-321.5 658.05,-326.39 659.05,-319.46"/>
</g>
<!-- Node35&#45;&gt;Node28 -->
<g id="edge43" class="edge">
<title>Node35&#45;&gt;Node28</title>
<path fill="none" stroke="midnightblue" d="M938.24,-358.37C890.45,-338.97 774.41,-291.87 718.97,-269.37"/>
<polygon fill="midnightblue" stroke="midnightblue" points="720.25,-266.11 709.67,-265.59 717.62,-272.6 720.25,-266.11"/>
</g>
<!-- Node36 -->
<g id="node36" class="node">
<title>Node36</title>
<g id="a_node36"><a xlink:title=" ">
<polygon fill="white" stroke="#bfbfbf" points="975.5,-302.5 975.5,-321.5 1091.5,-321.5 1091.5,-302.5 975.5,-302.5"/>
<text text-anchor="middle" x="1033.5" y="-309.5" font-family="Helvetica,sans-Serif" font-size="10.00">G4LogicalVolume.hh</text>
</a>
</g>
</g>
<!-- Node35&#45;&gt;Node36 -->
<g id="edge45" class="edge">
<title>Node35&#45;&gt;Node36</title>
<path fill="none" stroke="midnightblue" d="M971.39,-358.32C982.65,-350.11 999.79,-337.6 1013.21,-327.81"/>
<polygon fill="midnightblue" stroke="midnightblue" points="1015.38,-330.56 1021.39,-321.83 1011.25,-324.9 1015.38,-330.56"/>
</g>
<!-- Node37 -->
<g id="node37" class="node">
<title>Node37</title>
<g id="a_node37"><a xlink:title=" ">
<polygon fill="white" stroke="#bfbfbf" points="869,-302.5 869,-321.5 958,-321.5 958,-302.5 869,-302.5"/>
<text text-anchor="middle" x="913.5" y="-309.5" font-family="Helvetica,sans-Serif" font-size="10.00">G4Polycone.hh</text>
</a>
</g>
</g>
<!-- Node35&#45;&gt;Node37 -->
<g id="edge46" class="edge">
<title>Node35&#45;&gt;Node37</title>
<path fill="none" stroke="midnightblue" d="M951.9,-358.08C945.27,-350.3 935.48,-338.8 927.44,-329.37"/>
<polygon fill="midnightblue" stroke="midnightblue" points="930.1,-327.09 920.95,-321.75 924.77,-331.63 930.1,-327.09"/>
</g>
<!-- Node38&#45;&gt;Node3 -->
<g id="edge49" class="edge">
<title>Node38&#45;&gt;Node3</title>
<path fill="none" stroke="midnightblue" d="M703.11,-358.44C680.79,-349.52 645.6,-335.44 620.29,-325.32"/>
<polygon fill="midnightblue" stroke="midnightblue" points="621.38,-321.98 610.79,-321.52 618.78,-328.48 621.38,-321.98"/>
</g>
<!-- Node38&#45;&gt;Node28 -->
<g id="edge48" class="edge">
<title>Node38&#45;&gt;Node28</title>
<path fill="none" stroke="midnightblue" d="M721.68,-358.37C715.84,-340.54 702.34,-299.3 694.48,-275.27"/>
<polygon fill="midnightblue" stroke="midnightblue" points="697.75,-274.01 691.31,-265.59 691.1,-276.18 697.75,-274.01"/>
</g>
<!-- Node39&#45;&gt;Node3 -->
<g id="edge56" class="edge">
<title>Node39&#45;&gt;Node3</title>
<path fill="none" stroke="midnightblue" d="M800.73,-358.44C756.94,-349.02 686.49,-333.87 639.12,-323.68"/>
<polygon fill="midnightblue" stroke="midnightblue" points="639.6,-320.2 629.09,-321.52 638.13,-327.04 639.6,-320.2"/>
</g>
<!-- Node39&#45;&gt;Node28 -->
<g id="edge55" class="edge">
<title>Node39&#45;&gt;Node28</title>
<path fill="none" stroke="midnightblue" d="M828.57,-358.37C802.6,-339.57 740.69,-294.77 708.58,-271.53"/>
<polygon fill="midnightblue" stroke="midnightblue" points="710.52,-268.62 700.37,-265.59 706.42,-274.29 710.52,-268.62"/>
</g>
<!-- Node40 -->
<g id="node40" class="node">
<title>Node40</title>
<g id="a_node40"><a xlink:href="_o_m_sim_m_d_o_m_flasher_8hh.html" target="_top" xlink:title="Defines the mDOMFlasher class for simulating the 10 flashers in an mDOM optical module.">
<polygon fill="white" stroke="black" points="799,-246.5 799,-265.5 934,-265.5 934,-246.5 799,-246.5"/>
<text text-anchor="middle" x="866.5" y="-253.5" font-family="Helvetica,sans-Serif" font-size="10.00">OMSimMDOMFlasher.hh</text>
</a>
</g>
</g>
<!-- Node39&#45;&gt;Node40 -->
<g id="edge51" class="edge">
<title>Node39&#45;&gt;Node40</title>
<path fill="none" stroke="midnightblue" d="M842.54,-358.37C846.74,-340.62 856.42,-299.67 862.1,-275.6"/>
<polygon fill="midnightblue" stroke="midnightblue" points="865.58,-276.13 864.47,-265.59 858.76,-274.52 865.58,-276.13"/>
</g>
<!-- Node40&#45;&gt;Node4 -->
<g id="edge52" class="edge">
<title>Node40&#45;&gt;Node4</title>
<path fill="none" stroke="midnightblue" d="M839.25,-246.44C810.06,-237.28 763.58,-222.69 731.19,-212.52"/>
<polygon fill="midnightblue" stroke="midnightblue" points="732.22,-209.17 721.63,-209.52 730.12,-215.85 732.22,-209.17"/>
</g>
<!-- Node40&#45;&gt;Node29 -->
<g id="edge53" class="edge">
<title>Node40&#45;&gt;Node29</title>
<path fill="none" stroke="midnightblue" d="M861.38,-246.08C857.09,-238.61 850.84,-227.72 845.56,-218.52"/>
<polygon fill="midnightblue" stroke="midnightblue" points="848.54,-216.68 840.52,-209.75 842.47,-220.17 848.54,-216.68"/>
</g>
<!-- Node41 -->
<g id="node41" class="node">
<title>Node41</title>
<g id="a_node41"><a xlink:title=" ">
<polygon fill="white" stroke="#bfbfbf" points="902.5,-190.5 902.5,-209.5 994.5,-209.5 994.5,-190.5 902.5,-190.5"/>
<text text-anchor="middle" x="948.5" y="-197.5" font-family="Helvetica,sans-Serif" font-size="10.00">G4Navigator.hh</text>
</a>
</g>
</g>
<!-- Node40&#45;&gt;Node41 -->
<g id="edge54" class="edge">
<title>Node40&#45;&gt;Node41</title>
<path fill="none" stroke="midnightblue" d="M879.67,-246.32C892.35,-237.98 911.73,-225.21 926.71,-215.35"/>
<polygon fill="midnightblue" stroke="midnightblue" points="928.93,-218.08 935.36,-209.65 925.08,-212.23 928.93,-218.08"/>
</g>
<!-- Node42&#45;&gt;Node6 -->
<g id="edge58" class="edge">
<title>Node42&#45;&gt;Node6</title>
<path fill="none" stroke="midnightblue" d="M1216.83,-246.21C1205.6,-237.92 1189.34,-224.6 1178.5,-210 1152.78,-175.38 1134.73,-127.54 1126.16,-101.74"/>
<polygon fill="midnightblue" stroke="midnightblue" points="1129.46,-100.59 1123.07,-92.14 1122.8,-102.73 1129.46,-100.59"/>
</g>
<!-- Node42&#45;&gt;Node25 -->
<g id="edge59" class="edge">
<title>Node42&#45;&gt;Node25</title>
<path fill="none" stroke="midnightblue" d="M1200.82,-246.44C1169.7,-237.16 1119.9,-222.3 1085.77,-212.12"/>
<polygon fill="midnightblue" stroke="midnightblue" points="1086.74,-208.76 1076.16,-209.25 1084.74,-215.46 1086.74,-208.76"/>
</g>
<!-- Node43 -->
<g id="node43" class="node">
<title>Node43</title>
<g id="a_node43"><a xlink:title=" ">
<polygon fill="white" stroke="#bfbfbf" points="1187.5,-190.5 1187.5,-209.5 1271.5,-209.5 1271.5,-190.5 1187.5,-190.5"/>
<text text-anchor="middle" x="1229.5" y="-197.5" font-family="Helvetica,sans-Serif" font-size="10.00">boost/any.hpp</text>
</a>
</g>
</g>
<!-- Node42&#45;&gt;Node43 -->
<g id="edge60" class="edge">
<title>Node42&#45;&gt;Node43</title>
<path fill="none" stroke="midnightblue" d="M1229.5,-246.08C1229.5,-239.01 1229.5,-228.86 1229.5,-219.99"/>
<polygon fill="midnightblue" stroke="midnightblue" points="1233,-219.75 1229.5,-209.75 1226,-219.75 1233,-219.75"/>
</g>
<!-- Node44 -->
<g id="node44" class="node">
<title>Node44</title>
<g id="a_node44"><a xlink:title=" ">
<polygon fill="white" stroke="#bfbfbf" points="1289.5,-190.5 1289.5,-209.5 1357.5,-209.5 1357.5,-190.5 1289.5,-190.5"/>
<text text-anchor="middle" x="1323.5" y="-197.5" font-family="Helvetica,sans-Serif" font-size="10.00">sys/time.h</text>
</a>
</g>
</g>
<!-- Node42&#45;&gt;Node44 -->
<g id="edge61" class="edge">
<title>Node42&#45;&gt;Node44</title>
<path fill="none" stroke="midnightblue" d="M1244.6,-246.32C1259.4,-237.82 1282.19,-224.73 1299.48,-214.8"/>
<polygon fill="midnightblue" stroke="midnightblue" points="1301.51,-217.67 1308.43,-209.65 1298.02,-211.6 1301.51,-217.67"/>
</g>
</g>
</svg>
