<?xml version="1.0" encoding="UTF-8" standalone="no"?>
<!DOCTYPE svg PUBLIC "-//W3C//DTD SVG 1.1//EN"
 "http://www.w3.org/Graphics/SVG/1.1/DTD/svg11.dtd">
<!-- Generated by graphviz version 2.43.0 (0)
 -->
<!-- Title: OMSim.cc Pages: 1 -->
<svg width="1804pt" height="498pt"
 viewBox="0.00 0.00 1804.00 498.00" xmlns="http://www.w3.org/2000/svg" xmlns:xlink="http://www.w3.org/1999/xlink">
<g id="graph0" class="graph" transform="scale(1 1) rotate(0) translate(4 494)">
<title>OMSim.cc</title>
<polygon fill="white" stroke="transparent" points="-4,4 -4,-494 1800,-494 1800,4 -4,4"/>
<!-- Node1 -->
<g id="node1" class="node">
<title>Node1</title>
<g id="a_node1"><a xlink:title="Implementation of the OMSim class.">
<polygon fill="#bfbfbf" stroke="black" points="709.5,-470.5 709.5,-489.5 774.5,-489.5 774.5,-470.5 709.5,-470.5"/>
<text text-anchor="middle" x="742" y="-477.5" font-family="Helvetica,sans-Serif" font-size="10.00">OMSim.cc</text>
</a>
</g>
</g>
<!-- Node2 -->
<g id="node2" class="node">
<title>Node2</title>
<g id="a_node2"><a xlink:href="_o_m_sim_8hh.html" target="_top" xlink:title="Main simulation class for the Optical Module (OM) simulation. This file defines the OMSim class,...">
<polygon fill="white" stroke="black" points="708.5,-414.5 708.5,-433.5 775.5,-433.5 775.5,-414.5 708.5,-414.5"/>
<text text-anchor="middle" x="742" y="-421.5" font-family="Helvetica,sans-Serif" font-size="10.00">OMSim.hh</text>
</a>
</g>
</g>
<!-- Node1&#45;&gt;Node2 -->
<g id="edge1" class="edge">
<title>Node1&#45;&gt;Node2</title>
<path fill="none" stroke="midnightblue" d="M742,-470.08C742,-463.01 742,-452.86 742,-443.99"/>
<polygon fill="midnightblue" stroke="midnightblue" points="745.5,-443.75 742,-433.75 738.5,-443.75 745.5,-443.75"/>
</g>
<!-- Node7 -->
<g id="node7" class="node">
<title>Node7</title>
<g id="a_node7"><a xlink:href="_o_m_sim_logger_8hh.html" target="_top" xlink:title=" ">
<polygon fill="white" stroke="black" points="187.5,-73 187.5,-92 286.5,-92 286.5,-73 187.5,-73"/>
<text text-anchor="middle" x="237" y="-80" font-family="Helvetica,sans-Serif" font-size="10.00">OMSimLogger.hh</text>
</a>
</g>
</g>
<!-- Node1&#45;&gt;Node7 -->
<g id="edge59" class="edge">
<title>Node1&#45;&gt;Node7</title>
<path fill="none" stroke="midnightblue" d="M709.16,-477.65C565.56,-471.32 0,-441.76 0,-369 0,-369 0,-369 0,-199 0,-120.25 107.03,-95.19 177.24,-87.21"/>
<polygon fill="midnightblue" stroke="midnightblue" points="177.74,-90.68 187.32,-86.15 177.01,-83.72 177.74,-90.68"/>
</g>
<!-- Node53 -->
<g id="node50" class="node">
<title>Node53</title>
<g id="a_node50"><a xlink:title=" ">
<polygon fill="white" stroke="#bfbfbf" points="1646,-358.5 1646,-377.5 1796,-377.5 1796,-358.5 1646,-358.5"/>
<text text-anchor="middle" x="1721" y="-365.5" font-family="Helvetica,sans-Serif" font-size="10.00">boost/program_options.hpp</text>
</a>
</g>
</g>
<!-- Node1&#45;&gt;Node53 -->
<g id="edge60" class="edge">
<title>Node1&#45;&gt;Node53</title>
<path fill="none" stroke="midnightblue" d="M774.57,-475.34C909.73,-460.15 1428.96,-401.81 1635.52,-378.6"/>
<polygon fill="midnightblue" stroke="midnightblue" points="1636.16,-382.05 1645.71,-377.46 1635.38,-375.1 1636.16,-382.05"/>
</g>
<!-- Node3 -->
<g id="node3" class="node">
<title>Node3</title>
<g id="a_node3"><a xlink:href="_o_m_sim_detector_construction_8hh.html" target="_top" xlink:title=" ">
<polygon fill="white" stroke="black" points="821,-358.5 821,-377.5 991,-377.5 991,-358.5 821,-358.5"/>
<text text-anchor="middle" x="906" y="-365.5" font-family="Helvetica,sans-Serif" font-size="10.00">OMSimDetectorConstruction.hh</text>
</a>
</g>
</g>
<!-- Node2&#45;&gt;Node3 -->
<g id="edge2" class="edge">
<title>Node2&#45;&gt;Node3</title>
<path fill="none" stroke="midnightblue" d="M767.99,-414.44C795.7,-405.32 839.75,-390.81 870.62,-380.65"/>
<polygon fill="midnightblue" stroke="midnightblue" points="871.73,-383.97 880.14,-377.52 869.54,-377.32 871.73,-383.97"/>
</g>
<!-- Node35 -->
<g id="node32" class="node">
<title>Node35</title>
<g id="a_node32"><a xlink:title=" ">
<polygon fill="white" stroke="#bfbfbf" points="681.5,-358.5 681.5,-377.5 802.5,-377.5 802.5,-358.5 681.5,-358.5"/>
<text text-anchor="middle" x="742" y="-365.5" font-family="Helvetica,sans-Serif" font-size="10.00">OMSimPhysicsList.hh</text>
</a>
</g>
</g>
<!-- Node2&#45;&gt;Node35 -->
<g id="edge38" class="edge">
<title>Node2&#45;&gt;Node35</title>
<path fill="none" stroke="midnightblue" d="M742,-414.08C742,-407.01 742,-396.86 742,-387.99"/>
<polygon fill="midnightblue" stroke="midnightblue" points="745.5,-387.75 742,-377.75 738.5,-387.75 745.5,-387.75"/>
</g>
<!-- Node36 -->
<g id="node33" class="node">
<title>Node36</title>
<g id="a_node33"><a xlink:title=" ">
<polygon fill="white" stroke="#bfbfbf" points="1009.5,-358.5 1009.5,-377.5 1194.5,-377.5 1194.5,-358.5 1009.5,-358.5"/>
<text text-anchor="middle" x="1102" y="-365.5" font-family="Helvetica,sans-Serif" font-size="10.00">OMSimPrimaryGeneratorAction.hh</text>
</a>
</g>
</g>
<!-- Node2&#45;&gt;Node36 -->
<g id="edge39" class="edge">
<title>Node2&#45;&gt;Node36</title>
<path fill="none" stroke="midnightblue" d="M775.54,-417.97C834.6,-409.11 958.14,-390.58 1035.17,-379.02"/>
<polygon fill="midnightblue" stroke="midnightblue" points="1035.88,-382.46 1045.25,-377.51 1034.85,-375.53 1035.88,-382.46"/>
</g>
<!-- Node37 -->
<g id="node34" class="node">
<title>Node37</title>
<g id="a_node34"><a xlink:href="_o_m_sim_run_action_8hh.html" target="_top" xlink:title=" ">
<polygon fill="white" stroke="black" points="1212,-358.5 1212,-377.5 1328,-377.5 1328,-358.5 1212,-358.5"/>
<text text-anchor="middle" x="1270" y="-365.5" font-family="Helvetica,sans-Serif" font-size="10.00">OMSimRunAction.hh</text>
</a>
</g>
</g>
<!-- Node2&#45;&gt;Node37 -->
<g id="edge40" class="edge">
<title>Node2&#45;&gt;Node37</title>
<path fill="none" stroke="midnightblue" d="M775.59,-420.14C850.17,-413.7 1035.43,-397.22 1201.51,-378.14"/>
<polygon fill="midnightblue" stroke="midnightblue" points="1202.38,-381.56 1211.91,-376.93 1201.58,-374.6 1202.38,-381.56"/>
</g>
<!-- Node39 -->
<g id="node36" class="node">
<title>Node39</title>
<g id="a_node36"><a xlink:title=" ">
<polygon fill="white" stroke="#bfbfbf" points="1346.5,-358.5 1346.5,-377.5 1471.5,-377.5 1471.5,-358.5 1346.5,-358.5"/>
<text text-anchor="middle" x="1409" y="-365.5" font-family="Helvetica,sans-Serif" font-size="10.00">OMSimEventAction.hh</text>
</a>
</g>
</g>
<!-- Node2&#45;&gt;Node39 -->
<g id="edge42" class="edge">
<title>Node2&#45;&gt;Node39</title>
<path fill="none" stroke="midnightblue" d="M775.6,-421.04C864.92,-415.69 1115.88,-399.88 1336.06,-378.05"/>
<polygon fill="midnightblue" stroke="midnightblue" points="1336.59,-381.51 1346.19,-377.03 1335.89,-374.54 1336.59,-381.51"/>
</g>
<!-- Node40 -->
<g id="node37" class="node">
<title>Node40</title>
<g id="a_node37"><a xlink:href="_o_m_sim_tracking_action_8hh.html" target="_top" xlink:title=" ">
<polygon fill="white" stroke="black" points="1490,-358.5 1490,-377.5 1628,-377.5 1628,-358.5 1490,-358.5"/>
<text text-anchor="middle" x="1559" y="-365.5" font-family="Helvetica,sans-Serif" font-size="10.00">OMSimTrackingAction.hh</text>
</a>
</g>
</g>
<!-- Node2&#45;&gt;Node40 -->
<g id="edge43" class="edge">
<title>Node2&#45;&gt;Node40</title>
<path fill="none" stroke="midnightblue" d="M775.56,-421.6C878.84,-417.17 1201.23,-402.3 1479.41,-378.1"/>
<polygon fill="midnightblue" stroke="midnightblue" points="1480.04,-381.55 1489.7,-377.19 1479.43,-374.58 1480.04,-381.55"/>
</g>
<!-- Node42 -->
<g id="node39" class="node">
<title>Node42</title>
<g id="a_node39"><a xlink:href="_o_m_sim_stepping_action_8hh.html" target="_top" xlink:title="Defines OMSimSteppingAction.Currently it only checks for trapped photons.">
<polygon fill="white" stroke="black" points="28,-358.5 28,-377.5 168,-377.5 168,-358.5 28,-358.5"/>
<text text-anchor="middle" x="98" y="-365.5" font-family="Helvetica,sans-Serif" font-size="10.00">OMSimSteppingAction.hh</text>
</a>
</g>
</g>
<!-- Node2&#45;&gt;Node42 -->
<g id="edge45" class="edge">
<title>Node2&#45;&gt;Node42</title>
<path fill="none" stroke="midnightblue" d="M708.21,-420.71C621.9,-414.78 386.04,-398.03 178.38,-378.1"/>
<polygon fill="midnightblue" stroke="midnightblue" points="178.49,-374.6 168.2,-377.12 177.82,-381.57 178.49,-374.6"/>
</g>
<!-- Node44 -->
<g id="node41" class="node">
<title>Node44</title>
<g id="a_node41"><a xlink:href="_o_m_sim_u_iinterface_8hh.html" target="_top" xlink:title="The OMSimUIinterface class provides a singleton interface to Geant4&#39;s UI manager.">
<polygon fill="white" stroke="black" points="187.5,-302.5 187.5,-321.5 308.5,-321.5 308.5,-302.5 187.5,-302.5"/>
<text text-anchor="middle" x="248" y="-309.5" font-family="Helvetica,sans-Serif" font-size="10.00">OMSimUIinterface.hh</text>
</a>
</g>
</g>
<!-- Node2&#45;&gt;Node44 -->
<g id="edge47" class="edge">
<title>Node2&#45;&gt;Node44</title>
<path fill="none" stroke="midnightblue" d="M728.25,-414.27C701.47,-397.36 644.1,-361.45 634,-358 528.28,-321.92 397.86,-313.68 318.9,-312.37"/>
<polygon fill="midnightblue" stroke="midnightblue" points="318.63,-308.87 308.58,-312.23 318.53,-315.87 318.63,-308.87"/>
</g>
<!-- Node49 -->
<g id="node46" class="node">
<title>Node49</title>
<g id="a_node46"><a xlink:title=" ">
<polygon fill="white" stroke="#bfbfbf" points="186,-358.5 186,-377.5 292,-377.5 292,-358.5 186,-358.5"/>
<text text-anchor="middle" x="239" y="-365.5" font-family="Helvetica,sans-Serif" font-size="10.00">G4RunManager.hh</text>
</a>
</g>
</g>
<!-- Node2&#45;&gt;Node49 -->
<g id="edge54" class="edge">
<title>Node2&#45;&gt;Node49</title>
<path fill="none" stroke="midnightblue" d="M708.48,-420.07C636.29,-413.65 460.57,-397.47 302.47,-378.13"/>
<polygon fill="midnightblue" stroke="midnightblue" points="302.43,-374.6 292.08,-376.86 301.58,-381.55 302.43,-374.6"/>
</g>
<!-- Node50 -->
<g id="node47" class="node">
<title>Node50</title>
<g id="a_node47"><a xlink:title=" ">
<polygon fill="white" stroke="#bfbfbf" points="310.5,-358.5 310.5,-377.5 417.5,-377.5 417.5,-358.5 310.5,-358.5"/>
<text text-anchor="middle" x="364" y="-365.5" font-family="Helvetica,sans-Serif" font-size="10.00">G4VisExecutive.hh</text>
</a>
</g>
</g>
<!-- Node2&#45;&gt;Node50 -->
<g id="edge55" class="edge">
<title>Node2&#45;&gt;Node50</title>
<path fill="none" stroke="midnightblue" d="M708.32,-418.23C652.3,-410.3 536.16,-393.82 427.88,-378.27"/>
<polygon fill="midnightblue" stroke="midnightblue" points="428.16,-374.77 417.77,-376.81 427.17,-381.7 428.16,-374.77"/>
</g>
<!-- Node51 -->
<g id="node48" class="node">
<title>Node51</title>
<g id="a_node48"><a xlink:title=" ">
<polygon fill="white" stroke="#bfbfbf" points="435.5,-358.5 435.5,-377.5 538.5,-377.5 538.5,-358.5 435.5,-358.5"/>
<text text-anchor="middle" x="487" y="-365.5" font-family="Helvetica,sans-Serif" font-size="10.00">G4UIExecutive.hh</text>
</a>
</g>
</g>
<!-- Node2&#45;&gt;Node51 -->
<g id="edge56" class="edge">
<title>Node2&#45;&gt;Node51</title>
<path fill="none" stroke="midnightblue" d="M708.4,-415.88C664.75,-406.64 588.15,-390.42 537.49,-379.69"/>
<polygon fill="midnightblue" stroke="midnightblue" points="537.91,-376.2 527.41,-377.56 536.46,-383.05 537.91,-376.2"/>
</g>
<!-- Node52 -->
<g id="node49" class="node">
<title>Node52</title>
<g id="a_node49"><a xlink:title=" ">
<polygon fill="white" stroke="#bfbfbf" points="557,-358.5 557,-377.5 625,-377.5 625,-358.5 557,-358.5"/>
<text text-anchor="middle" x="591" y="-365.5" font-family="Helvetica,sans-Serif" font-size="10.00">filesystem</text>
</a>
</g>
</g>
<!-- Node2&#45;&gt;Node52 -->
<g id="edge57" class="edge">
<title>Node2&#45;&gt;Node52</title>
<path fill="none" stroke="midnightblue" d="M718.07,-414.44C692.78,-405.4 652.7,-391.06 624.32,-380.92"/>
<polygon fill="midnightblue" stroke="midnightblue" points="625.41,-377.59 614.81,-377.52 623.05,-384.18 625.41,-377.59"/>
</g>
<!-- Node2&#45;&gt;Node53 -->
<g id="edge58" class="edge">
<title>Node2&#45;&gt;Node53</title>
<path fill="none" stroke="midnightblue" d="M775.77,-421.99C893.05,-418.34 1293.67,-404.65 1635.81,-378.05"/>
<polygon fill="midnightblue" stroke="midnightblue" points="1636.22,-381.53 1645.91,-377.26 1635.67,-374.55 1636.22,-381.53"/>
</g>
<!-- Node4 -->
<g id="node4" class="node">
<title>Node4</title>
<g id="a_node4"><a xlink:href="_o_m_sim_optical_module_8hh.html" target="_top" xlink:title=" ">
<polygon fill="white" stroke="black" points="736.5,-302.5 736.5,-321.5 873.5,-321.5 873.5,-302.5 736.5,-302.5"/>
<text text-anchor="middle" x="805" y="-309.5" font-family="Helvetica,sans-Serif" font-size="10.00">OMSimOpticalModule.hh</text>
</a>
</g>
</g>
<!-- Node3&#45;&gt;Node4 -->
<g id="edge3" class="edge">
<title>Node3&#45;&gt;Node4</title>
<path fill="none" stroke="midnightblue" d="M889.77,-358.32C873.65,-349.7 848.7,-336.36 830.04,-326.39"/>
<polygon fill="midnightblue" stroke="midnightblue" points="831.66,-323.28 821.19,-321.65 828.36,-329.46 831.66,-323.28"/>
</g>
<!-- Node33 -->
<g id="node30" class="node">
<title>Node33</title>
<g id="a_node30"><a xlink:title=" ">
<polygon fill="white" stroke="#bfbfbf" points="1088,-302.5 1088,-321.5 1150,-321.5 1150,-302.5 1088,-302.5"/>
<text text-anchor="middle" x="1119" y="-309.5" font-family="Helvetica,sans-Serif" font-size="10.00">G4Orb.hh</text>
</a>
</g>
</g>
<!-- Node3&#45;&gt;Node33 -->
<g id="edge36" class="edge">
<title>Node3&#45;&gt;Node33</title>
<path fill="none" stroke="midnightblue" d="M939.75,-358.44C977.28,-348.93 1037.88,-333.57 1078.08,-323.37"/>
<polygon fill="midnightblue" stroke="midnightblue" points="1079,-326.75 1087.83,-320.9 1077.28,-319.97 1079,-326.75"/>
</g>
<!-- Node34 -->
<g id="node31" class="node">
<title>Node34</title>
<g id="a_node31"><a xlink:title=" ">
<polygon fill="white" stroke="#bfbfbf" points="892,-302.5 892,-321.5 1070,-321.5 1070,-302.5 892,-302.5"/>
<text text-anchor="middle" x="981" y="-309.5" font-family="Helvetica,sans-Serif" font-size="10.00">G4VUserDetectorConstruction.hh</text>
</a>
</g>
</g>
<!-- Node3&#45;&gt;Node34 -->
<g id="edge37" class="edge">
<title>Node3&#45;&gt;Node34</title>
<path fill="none" stroke="midnightblue" d="M918.05,-358.32C929.46,-350.11 946.83,-337.6 960.43,-327.81"/>
<polygon fill="midnightblue" stroke="midnightblue" points="962.66,-330.52 968.73,-321.83 958.57,-324.84 962.66,-330.52"/>
</g>
<!-- Node5 -->
<g id="node5" class="node">
<title>Node5</title>
<g id="a_node5"><a xlink:href="abc_detector_component_8hh.html" target="_top" xlink:title="Provides helper base class abcDetectorComponent for constructing and managing detector components in ...">
<polygon fill="white" stroke="black" points="642.5,-190.5 642.5,-209.5 789.5,-209.5 789.5,-190.5 642.5,-190.5"/>
<text text-anchor="middle" x="716" y="-197.5" font-family="Helvetica,sans-Serif" font-size="10.00">abcDetectorComponent.hh</text>
</a>
</g>
</g>
<!-- Node4&#45;&gt;Node5 -->
<g id="edge4" class="edge">
<title>Node4&#45;&gt;Node5</title>
<path fill="none" stroke="midnightblue" d="M798.02,-302.37C783.26,-284.14 748.71,-241.43 729.49,-217.68"/>
<polygon fill="midnightblue" stroke="midnightblue" points="731.96,-215.16 722.95,-209.59 726.52,-219.57 731.96,-215.16"/>
</g>
<!-- Node19 -->
<g id="node19" class="node">
<title>Node19</title>
<g id="a_node19"><a xlink:href="_o_m_sim_hit_manager_8hh.html" target="_top" xlink:title="Defines structures and classes related to optical module photon hit management.">
<polygon fill="white" stroke="black" points="781.5,-246.5 781.5,-265.5 904.5,-265.5 904.5,-246.5 781.5,-246.5"/>
<text text-anchor="middle" x="843" y="-253.5" font-family="Helvetica,sans-Serif" font-size="10.00">OMSimHitManager.hh</text>
</a>
</g>
</g>
<!-- Node4&#45;&gt;Node19 -->
<g id="edge18" class="edge">
<title>Node4&#45;&gt;Node19</title>
<path fill="none" stroke="midnightblue" d="M811.27,-302.08C816.64,-294.46 824.52,-283.26 831.08,-273.94"/>
<polygon fill="midnightblue" stroke="midnightblue" points="833.95,-275.94 836.84,-265.75 828.22,-271.91 833.95,-275.94"/>
</g>
<!-- Node30 -->
<g id="node27" class="node">
<title>Node30</title>
<g id="a_node27"><a xlink:href="_o_m_sim_p_m_t_construction_8hh.html" target="_top" xlink:title="Construction of the PMTs.">
<polygon fill="white" stroke="black" points="1055.5,-246.5 1055.5,-265.5 1204.5,-265.5 1204.5,-246.5 1055.5,-246.5"/>
<text text-anchor="middle" x="1130" y="-253.5" font-family="Helvetica,sans-Serif" font-size="10.00">OMSimPMTConstruction.hh</text>
</a>
</g>
</g>
<!-- Node4&#45;&gt;Node30 -->
<g id="edge30" class="edge">
<title>Node4&#45;&gt;Node30</title>
<path fill="none" stroke="midnightblue" d="M856.5,-302.44C914.14,-292.87 1007.49,-277.36 1068.81,-267.17"/>
<polygon fill="midnightblue" stroke="midnightblue" points="1069.45,-270.61 1078.74,-265.52 1068.31,-263.7 1069.45,-270.61"/>
</g>
<!-- Node6 -->
<g id="node6" class="node">
<title>Node6</title>
<g id="a_node6"><a xlink:href="_o_m_sim_input_data_8hh.html" target="_top" xlink:title="Definition of ParameterTable and InputDataManager.">
<polygon fill="white" stroke="black" points="789.5,-134.5 789.5,-153.5 904.5,-153.5 904.5,-134.5 789.5,-134.5"/>
<text text-anchor="middle" x="847" y="-141.5" font-family="Helvetica,sans-Serif" font-size="10.00">OMSimInputData.hh</text>
</a>
</g>
</g>
<!-- Node5&#45;&gt;Node6 -->
<g id="edge5" class="edge">
<title>Node5&#45;&gt;Node6</title>
<path fill="none" stroke="midnightblue" d="M736.76,-190.44C758.32,-181.56 792.26,-167.56 816.79,-157.45"/>
<polygon fill="midnightblue" stroke="midnightblue" points="818.43,-160.56 826.34,-153.52 815.76,-154.09 818.43,-160.56"/>
</g>
<!-- Node15 -->
<g id="node15" class="node">
<title>Node15</title>
<g id="a_node15"><a xlink:title=" ">
<polygon fill="white" stroke="#bfbfbf" points="265.5,-134.5 265.5,-153.5 372.5,-153.5 372.5,-134.5 265.5,-134.5"/>
<text text-anchor="middle" x="319" y="-141.5" font-family="Helvetica,sans-Serif" font-size="10.00">G4Transform3D.hh</text>
</a>
</g>
</g>
<!-- Node5&#45;&gt;Node15 -->
<g id="edge14" class="edge">
<title>Node5&#45;&gt;Node15</title>
<path fill="none" stroke="midnightblue" d="M651.64,-190.48C586.53,-181.83 482.7,-167.94 382.6,-154.07"/>
<polygon fill="midnightblue" stroke="midnightblue" points="383,-150.6 372.61,-152.69 382.04,-157.53 383,-150.6"/>
</g>
<!-- Node16 -->
<g id="node16" class="node">
<title>Node16</title>
<g id="a_node16"><a xlink:title=" ">
<polygon fill="white" stroke="#bfbfbf" points="391,-134.5 391,-153.5 499,-153.5 499,-134.5 391,-134.5"/>
<text text-anchor="middle" x="445" y="-141.5" font-family="Helvetica,sans-Serif" font-size="10.00">G4VisAttributes.hh</text>
</a>
</g>
</g>
<!-- Node5&#45;&gt;Node16 -->
<g id="edge15" class="edge">
<title>Node5&#45;&gt;Node16</title>
<path fill="none" stroke="midnightblue" d="M673.06,-190.44C625.49,-180.96 548.76,-165.67 497.61,-155.48"/>
<polygon fill="midnightblue" stroke="midnightblue" points="498.23,-152.04 487.74,-153.52 496.86,-158.9 498.23,-152.04"/>
</g>
<!-- Node17 -->
<g id="node17" class="node">
<title>Node17</title>
<g id="a_node17"><a xlink:title=" ">
<polygon fill="white" stroke="#bfbfbf" points="517.5,-134.5 517.5,-153.5 642.5,-153.5 642.5,-134.5 517.5,-134.5"/>
<text text-anchor="middle" x="580" y="-141.5" font-family="Helvetica,sans-Serif" font-size="10.00">G4SubtractionSolid.hh</text>
</a>
</g>
</g>
<!-- Node5&#45;&gt;Node17 -->
<g id="edge16" class="edge">
<title>Node5&#45;&gt;Node17</title>
<path fill="none" stroke="midnightblue" d="M694.45,-190.44C671.97,-181.52 636.51,-167.44 611.02,-157.32"/>
<polygon fill="midnightblue" stroke="midnightblue" points="612.03,-153.95 601.45,-153.52 609.45,-160.46 612.03,-153.95"/>
</g>
<!-- Node18 -->
<g id="node18" class="node">
<title>Node18</title>
<g id="a_node18"><a xlink:title=" ">
<polygon fill="white" stroke="#bfbfbf" points="661,-134.5 661,-153.5 771,-153.5 771,-134.5 661,-134.5"/>
<text text-anchor="middle" x="716" y="-141.5" font-family="Helvetica,sans-Serif" font-size="10.00">G4PVPlacement.hh</text>
</a>
</g>
</g>
<!-- Node5&#45;&gt;Node18 -->
<g id="edge17" class="edge">
<title>Node5&#45;&gt;Node18</title>
<path fill="none" stroke="midnightblue" d="M716,-190.08C716,-183.01 716,-172.86 716,-163.99"/>
<polygon fill="midnightblue" stroke="midnightblue" points="719.5,-163.75 716,-153.75 712.5,-163.75 719.5,-163.75"/>
</g>
<!-- Node6&#45;&gt;Node7 -->
<g id="edge6" class="edge">
<title>Node6&#45;&gt;Node7</title>
<path fill="none" stroke="midnightblue" d="M789.28,-135.09C786.14,-134.71 783.03,-134.34 780,-134 604.87,-114.1 397.3,-96.44 297.09,-88.28"/>
<polygon fill="midnightblue" stroke="midnightblue" points="297.11,-84.77 286.85,-87.45 296.54,-91.75 297.11,-84.77"/>
</g>
<!-- Node12 -->
<g id="node12" class="node">
<title>Node12</title>
<g id="a_node12"><a xlink:title=" ">
<polygon fill="white" stroke="#bfbfbf" points="795.5,-73 795.5,-92 938.5,-92 938.5,-73 795.5,-73"/>
<text text-anchor="middle" x="867" y="-80" font-family="Helvetica,sans-Serif" font-size="10.00">G4OpBoundaryProcess.hh</text>
</a>
</g>
</g>
<!-- Node6&#45;&gt;Node12 -->
<g id="edge11" class="edge">
<title>Node6&#45;&gt;Node12</title>
<path fill="none" stroke="midnightblue" d="M849.87,-134.48C852.72,-125.99 857.18,-112.7 860.84,-101.82"/>
<polygon fill="midnightblue" stroke="midnightblue" points="864.27,-102.6 864.14,-92.01 857.64,-100.37 864.27,-102.6"/>
</g>
<!-- Node13 -->
<g id="node13" class="node">
<title>Node13</title>
<g id="a_node13"><a xlink:title=" ">
<polygon fill="white" stroke="#bfbfbf" points="956.5,-73 956.5,-92 1075.5,-92 1075.5,-73 956.5,-73"/>
<text text-anchor="middle" x="1016" y="-80" font-family="Helvetica,sans-Serif" font-size="10.00">G4SystemOfUnits.hh</text>
</a>
</g>
</g>
<!-- Node6&#45;&gt;Node13 -->
<g id="edge12" class="edge">
<title>Node6&#45;&gt;Node13</title>
<path fill="none" stroke="midnightblue" d="M871.21,-134.48C900.33,-124.22 949.37,-106.96 982.2,-95.4"/>
<polygon fill="midnightblue" stroke="midnightblue" points="983.56,-98.63 991.83,-92.01 981.24,-92.03 983.56,-98.63"/>
</g>
<!-- Node14 -->
<g id="node14" class="node">
<title>Node14</title>
<g id="a_node14"><a xlink:title=" ">
<polygon fill="white" stroke="#bfbfbf" points="664.5,-67.5 664.5,-97.5 777.5,-97.5 777.5,-67.5 664.5,-67.5"/>
<text text-anchor="start" x="672.5" y="-85.5" font-family="Helvetica,sans-Serif" font-size="10.00">boost/property_tree</text>
<text text-anchor="middle" x="721" y="-74.5" font-family="Helvetica,sans-Serif" font-size="10.00">/json_parser.hpp</text>
</a>
</g>
</g>
<!-- Node6&#45;&gt;Node14 -->
<g id="edge13" class="edge">
<title>Node6&#45;&gt;Node14</title>
<path fill="none" stroke="midnightblue" d="M828.95,-134.48C811.01,-126 782.91,-112.74 759.89,-101.86"/>
<polygon fill="midnightblue" stroke="midnightblue" points="761.23,-98.63 750.7,-97.52 758.24,-104.96 761.23,-98.63"/>
</g>
<!-- Node8 -->
<g id="node8" class="node">
<title>Node8</title>
<g id="a_node8"><a xlink:title=" ">
<polygon fill="white" stroke="#bfbfbf" points="19.5,-6 19.5,-25 112.5,-25 112.5,-6 19.5,-6"/>
<text text-anchor="middle" x="66" y="-13" font-family="Helvetica,sans-Serif" font-size="10.00">spdlog/spdlog.h</text>
</a>
</g>
</g>
<!-- Node7&#45;&gt;Node8 -->
<g id="edge7" class="edge">
<title>Node7&#45;&gt;Node8</title>
<path fill="none" stroke="midnightblue" d="M214.29,-72.87C184.44,-61.52 131.83,-41.52 97.97,-28.65"/>
<polygon fill="midnightblue" stroke="midnightblue" points="99.12,-25.35 88.53,-25.06 96.63,-31.89 99.12,-25.35"/>
</g>
<!-- Node9 -->
<g id="node9" class="node">
<title>Node9</title>
<g id="a_node9"><a xlink:title=" ">
<polygon fill="white" stroke="#bfbfbf" points="130.5,-0.5 130.5,-30.5 241.5,-30.5 241.5,-0.5 130.5,-0.5"/>
<text text-anchor="start" x="138.5" y="-18.5" font-family="Helvetica,sans-Serif" font-size="10.00">spdlog/sinks/stdout</text>
<text text-anchor="middle" x="186" y="-7.5" font-family="Helvetica,sans-Serif" font-size="10.00">_color_sinks.h</text>
</a>
</g>
</g>
<!-- Node7&#45;&gt;Node9 -->
<g id="edge8" class="edge">
<title>Node7&#45;&gt;Node9</title>
<path fill="none" stroke="midnightblue" d="M230.12,-72.73C223.3,-64.03 212.56,-50.34 203.38,-38.65"/>
<polygon fill="midnightblue" stroke="midnightblue" points="205.98,-36.3 197.05,-30.59 200.47,-40.62 205.98,-36.3"/>
</g>
<!-- Node10 -->
<g id="node10" class="node">
<title>Node10</title>
<g id="a_node10"><a xlink:title=" ">
<polygon fill="white" stroke="#bfbfbf" points="260,-6 260,-25 318,-25 318,-6 260,-6"/>
<text text-anchor="middle" x="289" y="-13" font-family="Helvetica,sans-Serif" font-size="10.00">memory</text>
</a>
</g>
</g>
<!-- Node7&#45;&gt;Node10 -->
<g id="edge9" class="edge">
<title>Node7&#45;&gt;Node10</title>
<path fill="none" stroke="midnightblue" d="M244.01,-72.73C252.12,-62.6 265.65,-45.69 275.76,-33.06"/>
<polygon fill="midnightblue" stroke="midnightblue" points="278.58,-35.12 282.1,-25.13 273.12,-30.75 278.58,-35.12"/>
</g>
<!-- Node11 -->
<g id="node11" class="node">
<title>Node11</title>
<g id="a_node11"><a xlink:title=" ">
<polygon fill="white" stroke="#bfbfbf" points="336,-6 336,-25 434,-25 434,-6 336,-6"/>
<text text-anchor="middle" x="385" y="-13" font-family="Helvetica,sans-Serif" font-size="10.00">spdlog/fmt/fmt.h</text>
</a>
</g>
</g>
<!-- Node7&#45;&gt;Node11 -->
<g id="edge10" class="edge">
<title>Node7&#45;&gt;Node11</title>
<path fill="none" stroke="midnightblue" d="M256.65,-72.87C282.09,-61.7 326.6,-42.15 355.95,-29.26"/>
<polygon fill="midnightblue" stroke="midnightblue" points="357.52,-32.39 365.27,-25.17 354.7,-25.98 357.52,-32.39"/>
</g>
<!-- Node20 -->
<g id="node20" class="node">
<title>Node20</title>
<g id="a_node20"><a xlink:href="_o_m_sim_p_m_t_response_8hh.html" target="_top" xlink:title="Provides simulation for PMT response. This class is responsible for transforming hits on photocathode...">
<polygon fill="white" stroke="red" points="1082.5,-134.5 1082.5,-153.5 1217.5,-153.5 1217.5,-134.5 1082.5,-134.5"/>
<text text-anchor="middle" x="1150" y="-141.5" font-family="Helvetica,sans-Serif" font-size="10.00">OMSimPMTResponse.hh</text>
</a>
</g>
</g>
<!-- Node19&#45;&gt;Node20 -->
<g id="edge19" class="edge">
<title>Node19&#45;&gt;Node20</title>
<path fill="none" stroke="midnightblue" d="M896.19,-246.45C934.95,-239.26 988.28,-227.34 1033,-210 1042.57,-206.29 1094.68,-176.73 1126.04,-158.77"/>
<polygon fill="midnightblue" stroke="midnightblue" points="1128.1,-161.63 1135.04,-153.62 1124.62,-155.55 1128.1,-161.63"/>
</g>
<!-- Node25 -->
<g id="node24" class="node">
<title>Node25</title>
<g id="a_node24"><a xlink:href="_o_m_sim_sensitive_detector_8hh.html" target="_top" xlink:title=" ">
<polygon fill="white" stroke="red" points="871.5,-190.5 871.5,-209.5 1024.5,-209.5 1024.5,-190.5 871.5,-190.5"/>
<text text-anchor="middle" x="948" y="-197.5" font-family="Helvetica,sans-Serif" font-size="10.00">OMSimSensitiveDetector.hh</text>
</a>
</g>
</g>
<!-- Node19&#45;&gt;Node25 -->
<g id="edge24" class="edge">
<title>Node19&#45;&gt;Node25</title>
<path fill="none" stroke="midnightblue" d="M859.87,-246.32C876.71,-237.66 902.81,-224.24 922.24,-214.25"/>
<polygon fill="midnightblue" stroke="midnightblue" points="923.88,-217.34 931.17,-209.65 920.68,-211.12 923.88,-217.34"/>
</g>
<!-- Node27 -->
<g id="node25" class="node">
<title>Node27</title>
<g id="a_node25"><a xlink:title=" ">
<polygon fill="white" stroke="#bfbfbf" points="922.5,-134.5 922.5,-153.5 1025.5,-153.5 1025.5,-134.5 922.5,-134.5"/>
<text text-anchor="middle" x="974" y="-141.5" font-family="Helvetica,sans-Serif" font-size="10.00">G4ThreeVector.hh</text>
</a>
</g>
</g>
<!-- Node19&#45;&gt;Node27 -->
<g id="edge28" class="edge">
<title>Node19&#45;&gt;Node27</title>
<path fill="none" stroke="midnightblue" d="M843.21,-246.27C844.01,-232.59 847.47,-206.03 862,-190 876.76,-173.72 898.21,-163.23 918.41,-156.52"/>
<polygon fill="midnightblue" stroke="midnightblue" points="919.65,-159.8 928.18,-153.51 917.59,-153.1 919.65,-159.8"/>
</g>
<!-- Node29 -->
<g id="node26" class="node">
<title>Node29</title>
<g id="a_node26"><a xlink:title=" ">
<polygon fill="white" stroke="#bfbfbf" points="417.5,-190.5 417.5,-209.5 472.5,-209.5 472.5,-190.5 417.5,-190.5"/>
<text text-anchor="middle" x="445" y="-197.5" font-family="Helvetica,sans-Serif" font-size="10.00">fstream</text>
</a>
</g>
</g>
<!-- Node19&#45;&gt;Node29 -->
<g id="edge29" class="edge">
<title>Node19&#45;&gt;Node29</title>
<path fill="none" stroke="midnightblue" d="M781.25,-246.62C697.76,-235.29 551.44,-215.44 482.69,-206.11"/>
<polygon fill="midnightblue" stroke="midnightblue" points="483.12,-202.64 472.74,-204.76 482.18,-209.58 483.12,-202.64"/>
</g>
<!-- Node20&#45;&gt;Node13 -->
<g id="edge20" class="edge">
<title>Node20&#45;&gt;Node13</title>
<path fill="none" stroke="midnightblue" d="M1130.8,-134.48C1108.21,-124.45 1070.5,-107.7 1044.5,-96.15"/>
<polygon fill="midnightblue" stroke="midnightblue" points="1045.72,-92.87 1035.16,-92.01 1042.88,-99.27 1045.72,-92.87"/>
</g>
<!-- Node21 -->
<g id="node21" class="node">
<title>Node21</title>
<g id="a_node21"><a xlink:title=" ">
<polygon fill="white" stroke="#bfbfbf" points="1093.5,-73 1093.5,-92 1166.5,-92 1166.5,-73 1093.5,-73"/>
<text text-anchor="middle" x="1130" y="-80" font-family="Helvetica,sans-Serif" font-size="10.00">G4Types.hh</text>
</a>
</g>
</g>
<!-- Node20&#45;&gt;Node21 -->
<g id="edge21" class="edge">
<title>Node20&#45;&gt;Node21</title>
<path fill="none" stroke="midnightblue" d="M1147.13,-134.48C1144.28,-125.99 1139.82,-112.7 1136.16,-101.82"/>
<polygon fill="midnightblue" stroke="midnightblue" points="1139.36,-100.37 1132.86,-92.01 1132.73,-102.6 1139.36,-100.37"/>
</g>
<!-- Node22 -->
<g id="node22" class="node">
<title>Node22</title>
<g id="a_node22"><a xlink:title=" ">
<polygon fill="white" stroke="#bfbfbf" points="1185,-73 1185,-92 1223,-92 1223,-73 1185,-73"/>
<text text-anchor="middle" x="1204" y="-80" font-family="Helvetica,sans-Serif" font-size="10.00">map</text>
</a>
</g>
</g>
<!-- Node20&#45;&gt;Node22 -->
<g id="edge22" class="edge">
<title>Node20&#45;&gt;Node22</title>
<path fill="none" stroke="midnightblue" d="M1157.74,-134.48C1166,-125.37 1179.28,-110.74 1189.49,-99.48"/>
<polygon fill="midnightblue" stroke="midnightblue" points="1192.15,-101.77 1196.28,-92.01 1186.97,-97.06 1192.15,-101.77"/>
</g>
<!-- Node23 -->
<g id="node23" class="node">
<title>Node23</title>
<g id="a_node23"><a xlink:title=" ">
<polygon fill="white" stroke="#bfbfbf" points="1241.5,-73 1241.5,-92 1302.5,-92 1302.5,-73 1241.5,-73"/>
<text text-anchor="middle" x="1272" y="-80" font-family="Helvetica,sans-Serif" font-size="10.00">TGraph.h</text>
</a>
</g>
</g>
<!-- Node20&#45;&gt;Node23 -->
<g id="edge23" class="edge">
<title>Node20&#45;&gt;Node23</title>
<path fill="none" stroke="midnightblue" d="M1167.48,-134.48C1187.86,-124.53 1221.78,-107.99 1245.42,-96.46"/>
<polygon fill="midnightblue" stroke="midnightblue" points="1247.1,-99.54 1254.55,-92.01 1244.03,-93.25 1247.1,-99.54"/>
</g>
<!-- Node25&#45;&gt;Node12 -->
<g id="edge27" class="edge">
<title>Node25&#45;&gt;Node12</title>
<path fill="none" stroke="midnightblue" d="M977.3,-190.48C1009.08,-179.71 1052.91,-159.47 1034,-134 1021.05,-116.55 970.14,-102.8 927.91,-94.08"/>
<polygon fill="midnightblue" stroke="midnightblue" points="928.43,-90.61 917.94,-92.08 927.05,-97.48 928.43,-90.61"/>
</g>
<!-- Node25&#45;&gt;Node20 -->
<g id="edge26" class="edge">
<title>Node25&#45;&gt;Node20</title>
<path fill="none" stroke="midnightblue" d="M980.01,-190.44C1014.73,-181.16 1070.29,-166.31 1108.38,-156.13"/>
<polygon fill="midnightblue" stroke="midnightblue" points="1109.39,-159.48 1118.14,-153.52 1107.58,-152.72 1109.39,-159.48"/>
</g>
<!-- Node25&#45;&gt;Node27 -->
<g id="edge25" class="edge">
<title>Node25&#45;&gt;Node27</title>
<path fill="none" stroke="midnightblue" d="M952.29,-190.08C955.85,-182.69 961.02,-171.95 965.42,-162.81"/>
<polygon fill="midnightblue" stroke="midnightblue" points="968.6,-164.28 969.79,-153.75 962.29,-161.24 968.6,-164.28"/>
</g>
<!-- Node30&#45;&gt;Node5 -->
<g id="edge31" class="edge">
<title>Node30&#45;&gt;Node5</title>
<path fill="none" stroke="midnightblue" d="M1064.4,-246.44C990.21,-236.77 869.6,-221.04 791.54,-210.85"/>
<polygon fill="midnightblue" stroke="midnightblue" points="791.66,-207.34 781.29,-209.52 790.76,-214.28 791.66,-207.34"/>
</g>
<!-- Node30&#45;&gt;Node20 -->
<g id="edge33" class="edge">
<title>Node30&#45;&gt;Node20</title>
<path fill="none" stroke="midnightblue" d="M1204.57,-249.54C1230.82,-243.6 1257.79,-232.05 1274,-210 1294.35,-182.32 1254.43,-165.39 1214.58,-155.78"/>
<polygon fill="midnightblue" stroke="midnightblue" points="1215.29,-152.35 1204.76,-153.55 1213.74,-159.18 1215.29,-152.35"/>
</g>
<!-- Node30&#45;&gt;Node30 -->
<g id="edge32" class="edge">
<title>Node30&#45;&gt;Node30</title>
<path fill="none" stroke="midnightblue" d="M1169.45,-265.53C1196.26,-268.31 1222.5,-265.13 1222.5,-256 1222.5,-248.01 1202.41,-244.58 1179.43,-245.71"/>
<polygon fill="midnightblue" stroke="midnightblue" points="1179.15,-242.22 1169.45,-246.47 1179.69,-249.2 1179.15,-242.22"/>
</g>
<!-- Node31 -->
<g id="node28" class="node">
<title>Node31</title>
<g id="a_node28"><a xlink:title=" ">
<polygon fill="white" stroke="#bfbfbf" points="1081,-190.5 1081,-209.5 1179,-209.5 1179,-190.5 1081,-190.5"/>
<text text-anchor="middle" x="1130" y="-197.5" font-family="Helvetica,sans-Serif" font-size="10.00">G4UnionSolid.hh</text>
</a>
</g>
</g>
<!-- Node30&#45;&gt;Node31 -->
<g id="edge34" class="edge">
<title>Node30&#45;&gt;Node31</title>
<path fill="none" stroke="midnightblue" d="M1130,-246.08C1130,-239.01 1130,-228.86 1130,-219.99"/>
<polygon fill="midnightblue" stroke="midnightblue" points="1133.5,-219.75 1130,-209.75 1126.5,-219.75 1133.5,-219.75"/>
</g>
<!-- Node32 -->
<g id="node29" class="node">
<title>Node32</title>
<g id="a_node29"><a xlink:title=" ">
<polygon fill="white" stroke="#bfbfbf" points="1197.5,-190.5 1197.5,-209.5 1264.5,-209.5 1264.5,-190.5 1197.5,-190.5"/>
<text text-anchor="middle" x="1231" y="-197.5" font-family="Helvetica,sans-Serif" font-size="10.00">G4Tubs.hh</text>
</a>
</g>
</g>
<!-- Node30&#45;&gt;Node32 -->
<g id="edge35" class="edge">
<title>Node30&#45;&gt;Node32</title>
<path fill="none" stroke="midnightblue" d="M1146.23,-246.32C1162.35,-237.7 1187.3,-224.36 1205.96,-214.39"/>
<polygon fill="midnightblue" stroke="midnightblue" points="1207.64,-217.46 1214.81,-209.65 1204.34,-211.28 1207.64,-217.46"/>
</g>
<!-- Node38 -->
<g id="node35" class="node">
<title>Node38</title>
<g id="a_node35"><a xlink:title=" ">
<polygon fill="white" stroke="#bfbfbf" points="1211.5,-302.5 1211.5,-321.5 1328.5,-321.5 1328.5,-302.5 1211.5,-302.5"/>
<text text-anchor="middle" x="1270" y="-309.5" font-family="Helvetica,sans-Serif" font-size="10.00">G4UserRunAction.hh</text>
</a>
</g>
</g>
<!-- Node37&#45;&gt;Node38 -->
<g id="edge41" class="edge">
<title>Node37&#45;&gt;Node38</title>
<path fill="none" stroke="midnightblue" d="M1270,-358.08C1270,-351.01 1270,-340.86 1270,-331.99"/>
<polygon fill="midnightblue" stroke="midnightblue" points="1273.5,-331.75 1270,-321.75 1266.5,-331.75 1273.5,-331.75"/>
</g>
<!-- Node41 -->
<g id="node38" class="node">
<title>Node41</title>
<g id="a_node38"><a xlink:title=" ">
<polygon fill="white" stroke="#bfbfbf" points="1489.5,-302.5 1489.5,-321.5 1628.5,-321.5 1628.5,-302.5 1489.5,-302.5"/>
<text text-anchor="middle" x="1559" y="-309.5" font-family="Helvetica,sans-Serif" font-size="10.00">G4UserTrackingAction.hh</text>
</a>
</g>
</g>
<!-- Node40&#45;&gt;Node41 -->
<g id="edge44" class="edge">
<title>Node40&#45;&gt;Node41</title>
<path fill="none" stroke="midnightblue" d="M1559,-358.08C1559,-351.01 1559,-340.86 1559,-331.99"/>
<polygon fill="midnightblue" stroke="midnightblue" points="1562.5,-331.75 1559,-321.75 1555.5,-331.75 1562.5,-331.75"/>
</g>
<!-- Node43 -->
<g id="node40" class="node">
<title>Node43</title>
<g id="a_node40"><a xlink:title=" ">
<polygon fill="white" stroke="#bfbfbf" points="28.5,-302.5 28.5,-321.5 169.5,-321.5 169.5,-302.5 28.5,-302.5"/>
<text text-anchor="middle" x="99" y="-309.5" font-family="Helvetica,sans-Serif" font-size="10.00">G4UserSteppingAction.hh</text>
</a>
</g>
</g>
<!-- Node42&#45;&gt;Node43 -->
<g id="edge46" class="edge">
<title>Node42&#45;&gt;Node43</title>
<path fill="none" stroke="midnightblue" d="M98.17,-358.08C98.3,-351.01 98.48,-340.86 98.65,-331.99"/>
<polygon fill="midnightblue" stroke="midnightblue" points="102.15,-331.81 98.84,-321.75 95.15,-331.68 102.15,-331.81"/>
</g>
<!-- Node45 -->
<g id="node42" class="node">
<title>Node45</title>
<g id="a_node42"><a xlink:href="_o_m_sim_command_args_table_8hh.html" target="_top" xlink:title="Definition of the OMSimCommandArgsTable singleton class, which controls user args.">
<polygon fill="white" stroke="black" points="160,-246.5 160,-265.5 324,-265.5 324,-246.5 160,-246.5"/>
<text text-anchor="middle" x="242" y="-253.5" font-family="Helvetica,sans-Serif" font-size="10.00">OMSimCommandArgsTable.hh</text>
</a>
</g>
</g>
<!-- Node44&#45;&gt;Node45 -->
<g id="edge48" class="edge">
<title>Node44&#45;&gt;Node45</title>
<path fill="none" stroke="midnightblue" d="M247.01,-302.08C246.21,-294.93 245.07,-284.64 244.08,-275.69"/>
<polygon fill="midnightblue" stroke="midnightblue" points="247.56,-275.3 242.97,-265.75 240.6,-276.08 247.56,-275.3"/>
</g>
<!-- Node48 -->
<g id="node45" class="node">
<title>Node48</title>
<g id="a_node45"><a xlink:title=" ">
<polygon fill="white" stroke="#bfbfbf" points="44,-246.5 44,-265.5 142,-265.5 142,-246.5 44,-246.5"/>
<text text-anchor="middle" x="93" y="-253.5" font-family="Helvetica,sans-Serif" font-size="10.00">G4UImanager.hh</text>
</a>
</g>
</g>
<!-- Node44&#45;&gt;Node48 -->
<g id="edge53" class="edge">
<title>Node44&#45;&gt;Node48</title>
<path fill="none" stroke="midnightblue" d="M223.44,-302.44C197.48,-293.4 156.33,-279.06 127.2,-268.92"/>
<polygon fill="midnightblue" stroke="midnightblue" points="128.04,-265.5 117.45,-265.52 125.74,-272.11 128.04,-265.5"/>
</g>
<!-- Node45&#45;&gt;Node7 -->
<g id="edge49" class="edge">
<title>Node45&#45;&gt;Node7</title>
<path fill="none" stroke="midnightblue" d="M241.75,-246.26C240.97,-219.65 238.62,-139.21 237.55,-102.34"/>
<polygon fill="midnightblue" stroke="midnightblue" points="241.04,-101.91 237.25,-92.02 234.04,-102.12 241.04,-101.91"/>
</g>
<!-- Node45&#45;&gt;Node29 -->
<g id="edge50" class="edge">
<title>Node45&#45;&gt;Node29</title>
<path fill="none" stroke="midnightblue" d="M274.17,-246.44C310.39,-236.81 369.19,-221.17 407.48,-210.98"/>
<polygon fill="midnightblue" stroke="midnightblue" points="408.46,-214.34 417.23,-208.39 406.66,-207.58 408.46,-214.34"/>
</g>
<!-- Node46 -->
<g id="node43" class="node">
<title>Node46</title>
<g id="a_node43"><a xlink:title=" ">
<polygon fill="white" stroke="#bfbfbf" points="39,-190.5 39,-209.5 123,-209.5 123,-190.5 39,-190.5"/>
<text text-anchor="middle" x="81" y="-197.5" font-family="Helvetica,sans-Serif" font-size="10.00">boost/any.hpp</text>
</a>
</g>
</g>
<!-- Node45&#45;&gt;Node46 -->
<g id="edge51" class="edge">
<title>Node45&#45;&gt;Node46</title>
<path fill="none" stroke="midnightblue" d="M216.49,-246.44C189.4,-237.36 146.41,-222.94 116.13,-212.78"/>
<polygon fill="midnightblue" stroke="midnightblue" points="116.99,-209.38 106.39,-209.52 114.76,-216.01 116.99,-209.38"/>
</g>
<!-- Node47 -->
<g id="node44" class="node">
<title>Node47</title>
<g id="a_node44"><a xlink:title=" ">
<polygon fill="white" stroke="#bfbfbf" points="141,-190.5 141,-209.5 209,-209.5 209,-190.5 141,-190.5"/>
<text text-anchor="middle" x="175" y="-197.5" font-family="Helvetica,sans-Serif" font-size="10.00">sys/time.h</text>
</a>
</g>
</g>
<!-- Node45&#45;&gt;Node47 -->
<g id="edge52" class="edge">
<title>Node45&#45;&gt;Node47</title>
<path fill="none" stroke="midnightblue" d="M231.24,-246.32C221.23,-238.26 206.11,-226.08 194.07,-216.37"/>
<polygon fill="midnightblue" stroke="midnightblue" points="195.94,-213.38 185.96,-209.83 191.55,-218.83 195.94,-213.38"/>
</g>
</g>
</svg>
