<?xml version="1.0" encoding="UTF-8" standalone="no"?>
<!DOCTYPE svg PUBLIC "-//W3C//DTD SVG 1.1//EN"
 "http://www.w3.org/Graphics/SVG/1.1/DTD/svg11.dtd">
<!-- Generated by graphviz version 2.43.0 (0)
 -->
<!-- Title: OMSimSNAnalysis.cc Pages: 1 -->
<svg width="1121pt" height="263pt"
 viewBox="0.00 0.00 1121.30 263.00" xmlns="http://www.w3.org/2000/svg" xmlns:xlink="http://www.w3.org/1999/xlink">
<g id="graph0" class="graph" transform="scale(1 1) rotate(0) translate(4 259)">
<title>OMSimSNAnalysis.cc</title>
<!-- Node1 -->
<g id="node1" class="node">
<title>Node1</title>
<g id="a_node1"><a xlink:title="Analyze data and write output files.">
<polygon fill="#bfbfbf" stroke="black" points="530.3,-235.5 530.3,-254.5 650.3,-254.5 650.3,-235.5 530.3,-235.5"/>
<text text-anchor="middle" x="590.3" y="-242.5" font-family="Helvetica,sans-Serif" font-size="10.00">OMSimSNAnalysis.cc</text>
</a>
</g>
</g>
<!-- Node2 -->
<g id="node2" class="node">
<title>Node2</title>
<g id="a_node2"><a xlink:href="_o_m_sim_s_n_analysis_8hh_source.html" target="_top" xlink:title=" ">
<polygon fill="none" stroke="black" points="165.3,-179.5 165.3,-198.5 287.3,-198.5 287.3,-179.5 165.3,-179.5"/>
<text text-anchor="middle" x="226.3" y="-186.5" font-family="Helvetica,sans-Serif" font-size="10.00">OMSimSNAnalysis.hh</text>
</a>
</g>
</g>
<!-- Node1&#45;&gt;Node2 -->
<g id="edge1" class="edge">
<title>Node1&#45;&gt;Node2</title>
<path fill="none" stroke="midnightblue" d="M532.62,-235.44C467.79,-225.83 362.65,-210.23 293.98,-200.04"/>
<polygon fill="midnightblue" stroke="midnightblue" points="294.11,-196.52 283.7,-198.52 293.08,-203.45 294.11,-196.52"/>
</g>
<!-- Node6 -->
<g id="node6" class="node">
<title>Node6</title>
<g id="a_node6"><a xlink:href="_o_m_sim_hit_manager_8hh.html" target="_top" xlink:title="Defines structures and classes related to optical module photon hit management.">
<polygon fill="none" stroke="black" points="313.8,-123.5 313.8,-142.5 436.8,-142.5 436.8,-123.5 313.8,-123.5"/>
<text text-anchor="middle" x="375.3" y="-130.5" font-family="Helvetica,sans-Serif" font-size="10.00">OMSimHitManager.hh</text>
</a>
</g>
</g>
<!-- Node1&#45;&gt;Node6 -->
<g id="edge31" class="edge">
<title>Node1&#45;&gt;Node6</title>
<path fill="none" stroke="midnightblue" d="M573.43,-235.37C535.98,-216.21 445.73,-170.04 401.13,-147.22"/>
<polygon fill="midnightblue" stroke="midnightblue" points="402.59,-144.03 392.09,-142.59 399.4,-150.26 402.59,-144.03"/>
</g>
<!-- Node8 -->
<g id="node8" class="node">
<title>Node8</title>
<g id="a_node8"><a xlink:title=" ">
<polygon fill="none" stroke="#bfbfbf" points="469.8,-6 469.8,-25 588.8,-25 588.8,-6 469.8,-6"/>
<text text-anchor="middle" x="529.3" y="-13" font-family="Helvetica,sans-Serif" font-size="10.00">G4SystemOfUnits.hh</text>
</a>
</g>
</g>
<!-- Node1&#45;&gt;Node8 -->
<g id="edge19" class="edge">
<title>Node1&#45;&gt;Node8</title>
<path fill="none" stroke="midnightblue" d="M590.98,-235.47C592.73,-209.17 595.66,-127.46 570.3,-67 564.82,-53.95 554.89,-41.58 546.17,-32.35"/>
<polygon fill="midnightblue" stroke="midnightblue" points="548.49,-29.72 538.96,-25.1 543.53,-34.66 548.49,-29.72"/>
</g>
<!-- Node17 -->
<g id="node17" class="node">
<title>Node17</title>
<g id="a_node17"><a xlink:title=" ">
<polygon fill="none" stroke="#bfbfbf" points="618.8,-179.5 618.8,-198.5 677.8,-198.5 677.8,-179.5 618.8,-179.5"/>
<text text-anchor="middle" x="648.3" y="-186.5" font-family="Helvetica,sans-Serif" font-size="10.00">G4ios.hh</text>
</a>
</g>
</g>
<!-- Node1&#45;&gt;Node17 -->
<g id="edge20" class="edge">
<title>Node1&#45;&gt;Node17</title>
<path fill="none" stroke="midnightblue" d="M599.62,-235.32C608.19,-227.34 621.11,-215.31 631.49,-205.65"/>
<polygon fill="midnightblue" stroke="midnightblue" points="633.88,-208.21 638.81,-198.83 629.11,-203.09 633.88,-208.21"/>
</g>
<!-- Node18 -->
<g id="node18" class="node">
<title>Node18</title>
<g id="a_node18"><a xlink:href="_o_m_sim_command_args_table_8hh.html" target="_top" xlink:title="Definition of the OMSimCommandArgsTable singleton class, which controls user args.">
<polygon fill="none" stroke="black" points="621.3,-123.5 621.3,-142.5 785.3,-142.5 785.3,-123.5 621.3,-123.5"/>
<text text-anchor="middle" x="703.3" y="-130.5" font-family="Helvetica,sans-Serif" font-size="10.00">OMSimCommandArgsTable.hh</text>
</a>
</g>
</g>
<!-- Node1&#45;&gt;Node18 -->
<g id="edge21" class="edge">
<title>Node1&#45;&gt;Node18</title>
<path fill="none" stroke="midnightblue" d="M626.05,-235.39C646.47,-228.71 670.99,-217.39 686.3,-199 697.13,-185.98 701.14,-166.82 702.59,-152.68"/>
<polygon fill="midnightblue" stroke="midnightblue" points="706.09,-152.83 703.28,-142.62 699.1,-152.36 706.09,-152.83"/>
</g>
<!-- Node3 -->
<g id="node3" class="node">
<title>Node3</title>
<g id="a_node3"><a xlink:title=" ">
<polygon fill="none" stroke="#bfbfbf" points="86.8,-6 86.8,-25 159.8,-25 159.8,-6 86.8,-6"/>
<text text-anchor="middle" x="123.3" y="-13" font-family="Helvetica,sans-Serif" font-size="10.00">G4Types.hh</text>
</a>
</g>
</g>
<!-- Node2&#45;&gt;Node3 -->
<g id="edge2" class="edge">
<title>Node2&#45;&gt;Node3</title>
<path fill="none" stroke="midnightblue" d="M165.27,-183.1C107.31,-174.56 25.65,-151.14 2.3,-87 -10.71,-51.27 37.33,-32.89 76.69,-23.99"/>
<polygon fill="midnightblue" stroke="midnightblue" points="77.66,-27.36 86.72,-21.87 76.21,-20.51 77.66,-27.36"/>
</g>
<!-- Node4 -->
<g id="node4" class="node">
<title>Node4</title>
<g id="a_node4"><a xlink:title=" ">
<polygon fill="none" stroke="#bfbfbf" points="221.3,-123.5 221.3,-142.5 295.3,-142.5 295.3,-123.5 221.3,-123.5"/>
<text text-anchor="middle" x="258.3" y="-130.5" font-family="Helvetica,sans-Serif" font-size="10.00">G4String.hh</text>
</a>
</g>
</g>
<!-- Node2&#45;&gt;Node4 -->
<g id="edge3" class="edge">
<title>Node2&#45;&gt;Node4</title>
<path fill="none" stroke="midnightblue" d="M231.58,-179.08C236.01,-171.61 242.46,-160.72 247.92,-151.52"/>
<polygon fill="midnightblue" stroke="midnightblue" points="251.02,-153.14 253.11,-142.75 245,-149.57 251.02,-153.14"/>
</g>
<!-- Node5 -->
<g id="node5" class="node">
<title>Node5</title>
<g id="a_node5"><a xlink:title=" ">
<polygon fill="none" stroke="#bfbfbf" points="11.8,-67.5 11.8,-86.5 114.8,-86.5 114.8,-67.5 11.8,-67.5"/>
<text text-anchor="middle" x="63.3" y="-74.5" font-family="Helvetica,sans-Serif" font-size="10.00">G4ThreeVector.hh</text>
</a>
</g>
</g>
<!-- Node2&#45;&gt;Node5 -->
<g id="edge4" class="edge">
<title>Node2&#45;&gt;Node5</title>
<path fill="none" stroke="midnightblue" d="M221.19,-179.25C212.79,-165.55 194.83,-138.95 173.3,-123 153.02,-107.98 127.02,-97.05 105.39,-89.72"/>
<polygon fill="midnightblue" stroke="midnightblue" points="106.39,-86.36 95.79,-86.6 104.23,-93.02 106.39,-86.36"/>
</g>
<!-- Node2&#45;&gt;Node6 -->
<g id="edge5" class="edge">
<title>Node2&#45;&gt;Node6</title>
<path fill="none" stroke="midnightblue" d="M249.91,-179.44C274.76,-170.44 314.07,-156.19 342.05,-146.05"/>
<polygon fill="midnightblue" stroke="midnightblue" points="343.59,-149.21 351.8,-142.52 341.2,-142.63 343.59,-149.21"/>
</g>
<!-- Node12 -->
<g id="node12" class="node">
<title>Node12</title>
<g id="a_node12"><a xlink:title=" ">
<polygon fill="none" stroke="#bfbfbf" points="506.8,-67.5 506.8,-86.5 561.8,-86.5 561.8,-67.5 506.8,-67.5"/>
<text text-anchor="middle" x="534.3" y="-74.5" font-family="Helvetica,sans-Serif" font-size="10.00">fstream</text>
</a>
</g>
</g>
<!-- Node2&#45;&gt;Node12 -->
<g id="edge17" class="edge">
<title>Node2&#45;&gt;Node12</title>
<path fill="none" stroke="midnightblue" d="M287.44,-182.51C332.59,-176.8 394.72,-165.39 445.3,-143 473.01,-130.73 500.5,-108.76 517.43,-93.79"/>
<polygon fill="midnightblue" stroke="midnightblue" points="520.21,-96 525.27,-86.69 515.51,-90.81 520.21,-96"/>
</g>
<!-- Node15 -->
<g id="node15" class="node">
<title>Node15</title>
<g id="a_node15"><a xlink:title=" ">
<polygon fill="none" stroke="#bfbfbf" points="58.8,-123.5 58.8,-142.5 105.8,-142.5 105.8,-123.5 58.8,-123.5"/>
<text text-anchor="middle" x="82.3" y="-130.5" font-family="Helvetica,sans-Serif" font-size="10.00">vector</text>
</a>
</g>
</g>
<!-- Node2&#45;&gt;Node15 -->
<g id="edge16" class="edge">
<title>Node2&#45;&gt;Node15</title>
<path fill="none" stroke="midnightblue" d="M203.48,-179.44C179.47,-170.44 141.47,-156.19 114.43,-146.05"/>
<polygon fill="midnightblue" stroke="midnightblue" points="115.6,-142.75 105.01,-142.52 113.14,-149.3 115.6,-142.75"/>
</g>
<!-- Node16 -->
<g id="node16" class="node">
<title>Node16</title>
<g id="a_node16"><a xlink:title=" ">
<polygon fill="none" stroke="#bfbfbf" points="123.8,-123.5 123.8,-142.5 164.8,-142.5 164.8,-123.5 123.8,-123.5"/>
<text text-anchor="middle" x="144.3" y="-130.5" font-family="Helvetica,sans-Serif" font-size="10.00">tuple</text>
</a>
</g>
</g>
<!-- Node2&#45;&gt;Node16 -->
<g id="edge18" class="edge">
<title>Node2&#45;&gt;Node16</title>
<path fill="none" stroke="midnightblue" d="M213.12,-179.32C200.45,-170.98 181.06,-158.21 166.09,-148.35"/>
<polygon fill="midnightblue" stroke="midnightblue" points="167.72,-145.23 157.44,-142.65 163.87,-151.08 167.72,-145.23"/>
</g>
<!-- Node6&#45;&gt;Node5 -->
<g id="edge12" class="edge">
<title>Node6&#45;&gt;Node5</title>
<path fill="none" stroke="midnightblue" d="M325.86,-123.44C270.63,-113.89 181.28,-98.42 122.4,-88.23"/>
<polygon fill="midnightblue" stroke="midnightblue" points="122.95,-84.77 112.5,-86.52 121.76,-91.67 122.95,-84.77"/>
</g>
<!-- Node7 -->
<g id="node7" class="node">
<title>Node7</title>
<g id="a_node7"><a xlink:href="_o_m_sim_p_m_t_response_8hh.html" target="_top" xlink:title="Simulation of PMT response.">
<polygon fill="none" stroke="black" points="353.8,-67.5 353.8,-86.5 488.8,-86.5 488.8,-67.5 353.8,-67.5"/>
<text text-anchor="middle" x="421.3" y="-74.5" font-family="Helvetica,sans-Serif" font-size="10.00">OMSimPMTResponse.hh</text>
</a>
</g>
</g>
<!-- Node6&#45;&gt;Node7 -->
<g id="edge6" class="edge">
<title>Node6&#45;&gt;Node7</title>
<path fill="none" stroke="midnightblue" d="M382.89,-123.08C389.53,-115.3 399.32,-103.8 407.36,-94.37"/>
<polygon fill="midnightblue" stroke="midnightblue" points="410.02,-96.63 413.84,-86.75 404.69,-92.09 410.02,-96.63"/>
</g>
<!-- Node6&#45;&gt;Node12 -->
<g id="edge13" class="edge">
<title>Node6&#45;&gt;Node12</title>
<path fill="none" stroke="midnightblue" d="M400.49,-123.44C427.24,-114.36 469.7,-99.94 499.6,-89.78"/>
<polygon fill="midnightblue" stroke="midnightblue" points="500.88,-93.05 509.22,-86.52 498.63,-86.42 500.88,-93.05"/>
</g>
<!-- Node13 -->
<g id="node13" class="node">
<title>Node13</title>
<g id="a_node13"><a xlink:title=" ">
<polygon fill="none" stroke="#bfbfbf" points="245.3,-67.5 245.3,-86.5 335.3,-86.5 335.3,-67.5 245.3,-67.5"/>
<text text-anchor="middle" x="290.3" y="-74.5" font-family="Helvetica,sans-Serif" font-size="10.00">G4AutoLock.hh</text>
</a>
</g>
</g>
<!-- Node6&#45;&gt;Node13 -->
<g id="edge14" class="edge">
<title>Node6&#45;&gt;Node13</title>
<path fill="none" stroke="midnightblue" d="M361.64,-123.32C348.38,-114.9 328.03,-101.97 312.45,-92.07"/>
<polygon fill="midnightblue" stroke="midnightblue" points="314.24,-89.06 303.92,-86.65 310.48,-94.97 314.24,-89.06"/>
</g>
<!-- Node14 -->
<g id="node14" class="node">
<title>Node14</title>
<g id="a_node14"><a xlink:title=" ">
<polygon fill="none" stroke="#bfbfbf" points="133.3,-67.5 133.3,-86.5 227.3,-86.5 227.3,-67.5 133.3,-67.5"/>
<text text-anchor="middle" x="180.3" y="-74.5" font-family="Helvetica,sans-Serif" font-size="10.00">G4Threading.hh</text>
</a>
</g>
</g>
<!-- Node6&#45;&gt;Node14 -->
<g id="edge15" class="edge">
<title>Node6&#45;&gt;Node14</title>
<path fill="none" stroke="midnightblue" d="M344.4,-123.44C311.02,-114.2 257.7,-99.44 220.95,-89.26"/>
<polygon fill="midnightblue" stroke="midnightblue" points="221.62,-85.81 211.05,-86.52 219.75,-92.56 221.62,-85.81"/>
</g>
<!-- Node7&#45;&gt;Node3 -->
<g id="edge8" class="edge">
<title>Node7&#45;&gt;Node3</title>
<path fill="none" stroke="midnightblue" d="M378.6,-67.48C323.19,-56.41 226.84,-37.17 169.68,-25.76"/>
<polygon fill="midnightblue" stroke="midnightblue" points="170.31,-22.32 159.82,-23.79 168.94,-29.18 170.31,-22.32"/>
</g>
<!-- Node7&#45;&gt;Node8 -->
<g id="edge7" class="edge">
<title>Node7&#45;&gt;Node8</title>
<path fill="none" stroke="midnightblue" d="M436.77,-67.48C454.58,-57.67 484.04,-41.43 504.93,-29.92"/>
<polygon fill="midnightblue" stroke="midnightblue" points="506.78,-32.9 513.85,-25.01 503.4,-26.77 506.78,-32.9"/>
</g>
<!-- Node9 -->
<g id="node9" class="node">
<title>Node9</title>
<g id="a_node9"><a xlink:title=" ">
<polygon fill="none" stroke="#bfbfbf" points="608.3,-6 608.3,-25 646.3,-25 646.3,-6 608.3,-6"/>
<text text-anchor="middle" x="627.3" y="-13" font-family="Helvetica,sans-Serif" font-size="10.00">map</text>
</a>
</g>
</g>
<!-- Node7&#45;&gt;Node9 -->
<g id="edge9" class="edge">
<title>Node7&#45;&gt;Node9</title>
<path fill="none" stroke="midnightblue" d="M464.7,-67.44C500.78,-59.72 553.16,-47.13 597.3,-31 598.72,-30.48 600.17,-29.91 601.63,-29.31"/>
<polygon fill="midnightblue" stroke="midnightblue" points="603.36,-32.37 611.05,-25.08 600.49,-25.99 603.36,-32.37"/>
</g>
<!-- Node10 -->
<g id="node10" class="node">
<title>Node10</title>
<g id="a_node10"><a xlink:title=" ">
<polygon fill="none" stroke="#bfbfbf" points="316.8,-6 316.8,-25 377.8,-25 377.8,-6 316.8,-6"/>
<text text-anchor="middle" x="347.3" y="-13" font-family="Helvetica,sans-Serif" font-size="10.00">TGraph.h</text>
</a>
</g>
</g>
<!-- Node7&#45;&gt;Node10 -->
<g id="edge10" class="edge">
<title>Node7&#45;&gt;Node10</title>
<path fill="none" stroke="midnightblue" d="M410.7,-67.48C399.05,-58.11 380.11,-42.88 365.96,-31.51"/>
<polygon fill="midnightblue" stroke="midnightblue" points="367.87,-28.55 357.88,-25.01 363.48,-34 367.87,-28.55"/>
</g>
<!-- Node11 -->
<g id="node11" class="node">
<title>Node11</title>
<g id="a_node11"><a xlink:title=" ">
<polygon fill="none" stroke="#bfbfbf" points="395.8,-6 395.8,-25 448.8,-25 448.8,-6 395.8,-6"/>
<text text-anchor="middle" x="422.3" y="-13" font-family="Helvetica,sans-Serif" font-size="10.00">TH2D.h</text>
</a>
</g>
</g>
<!-- Node7&#45;&gt;Node11 -->
<g id="edge11" class="edge">
<title>Node7&#45;&gt;Node11</title>
<path fill="none" stroke="midnightblue" d="M421.44,-67.48C421.58,-59.08 421.8,-45.98 421.98,-35.16"/>
<polygon fill="midnightblue" stroke="midnightblue" points="425.49,-35.07 422.15,-25.01 418.49,-34.95 425.49,-35.07"/>
</g>
<!-- Node18&#45;&gt;Node9 -->
<g id="edge30" class="edge">
<title>Node18&#45;&gt;Node9</title>
<path fill="none" stroke="midnightblue" d="M688.01,-123.42C675.31,-115.53 657.7,-102.7 647.3,-87 636.88,-71.28 631.82,-50.13 629.41,-35.11"/>
<polygon fill="midnightblue" stroke="midnightblue" points="632.85,-34.44 628.03,-25.01 625.92,-35.39 632.85,-34.44"/>
</g>
<!-- Node18&#45;&gt;Node12 -->
<g id="edge27" class="edge">
<title>Node18&#45;&gt;Node12</title>
<path fill="none" stroke="midnightblue" d="M676.52,-123.44C647.96,-114.32 602.57,-99.81 570.76,-89.65"/>
<polygon fill="midnightblue" stroke="midnightblue" points="571.54,-86.23 560.95,-86.52 569.41,-92.89 571.54,-86.23"/>
</g>
<!-- Node19 -->
<g id="node19" class="node">
<title>Node19</title>
<g id="a_node19"><a xlink:href="_o_m_sim_logger_8hh_source.html" target="_top" xlink:title=" ">
<polygon fill="none" stroke="black" points="844.8,-67.5 844.8,-86.5 943.8,-86.5 943.8,-67.5 844.8,-67.5"/>
<text text-anchor="middle" x="894.3" y="-74.5" font-family="Helvetica,sans-Serif" font-size="10.00">OMSimLogger.hh</text>
</a>
</g>
</g>
<!-- Node18&#45;&gt;Node19 -->
<g id="edge22" class="edge">
<title>Node18&#45;&gt;Node19</title>
<path fill="none" stroke="midnightblue" d="M733.56,-123.44C766.25,-114.2 818.48,-99.44 854.48,-89.26"/>
<polygon fill="midnightblue" stroke="midnightblue" points="855.5,-92.61 864.17,-86.52 853.6,-85.87 855.5,-92.61"/>
</g>
<!-- Node24 -->
<g id="node24" class="node">
<title>Node24</title>
<g id="a_node24"><a xlink:title=" ">
<polygon fill="none" stroke="#bfbfbf" points="656.3,-67.5 656.3,-86.5 740.3,-86.5 740.3,-67.5 656.3,-67.5"/>
<text text-anchor="middle" x="698.3" y="-74.5" font-family="Helvetica,sans-Serif" font-size="10.00">boost/any.hpp</text>
</a>
</g>
</g>
<!-- Node18&#45;&gt;Node24 -->
<g id="edge28" class="edge">
<title>Node18&#45;&gt;Node24</title>
<path fill="none" stroke="midnightblue" d="M702.47,-123.08C701.82,-116.01 700.88,-105.86 700.06,-96.99"/>
<polygon fill="midnightblue" stroke="midnightblue" points="703.52,-96.39 699.11,-86.75 696.54,-97.03 703.52,-96.39"/>
</g>
<!-- Node25 -->
<g id="node25" class="node">
<title>Node25</title>
<g id="a_node25"><a xlink:title=" ">
<polygon fill="none" stroke="#bfbfbf" points="758.3,-67.5 758.3,-86.5 826.3,-86.5 826.3,-67.5 758.3,-67.5"/>
<text text-anchor="middle" x="792.3" y="-74.5" font-family="Helvetica,sans-Serif" font-size="10.00">sys/time.h</text>
</a>
</g>
</g>
<!-- Node18&#45;&gt;Node25 -->
<g id="edge29" class="edge">
<title>Node18&#45;&gt;Node25</title>
<path fill="none" stroke="midnightblue" d="M717.6,-123.32C731.48,-114.9 752.79,-101.97 769.1,-92.07"/>
<polygon fill="midnightblue" stroke="midnightblue" points="771.3,-94.83 778.03,-86.65 767.67,-88.85 771.3,-94.83"/>
</g>
<!-- Node20 -->
<g id="node20" class="node">
<title>Node20</title>
<g id="a_node20"><a xlink:title=" ">
<polygon fill="none" stroke="#bfbfbf" points="814.8,-6 814.8,-25 907.8,-25 907.8,-6 814.8,-6"/>
<text text-anchor="middle" x="861.3" y="-13" font-family="Helvetica,sans-Serif" font-size="10.00">spdlog/spdlog.h</text>
</a>
</g>
</g>
<!-- Node19&#45;&gt;Node20 -->
<g id="edge23" class="edge">
<title>Node19&#45;&gt;Node20</title>
<path fill="none" stroke="midnightblue" d="M889.57,-67.48C884.72,-58.73 877.03,-44.87 870.9,-33.81"/>
<polygon fill="midnightblue" stroke="midnightblue" points="873.93,-32.06 866.02,-25.01 867.81,-35.45 873.93,-32.06"/>
</g>
<!-- Node21 -->
<g id="node21" class="node">
<title>Node21</title>
<g id="a_node21"><a xlink:title=" ">
<polygon fill="none" stroke="#bfbfbf" points="925.8,-0.5 925.8,-30.5 1036.8,-30.5 1036.8,-0.5 925.8,-0.5"/>
<text text-anchor="start" x="933.8" y="-18.5" font-family="Helvetica,sans-Serif" font-size="10.00">spdlog/sinks/stdout</text>
<text text-anchor="middle" x="981.3" y="-7.5" font-family="Helvetica,sans-Serif" font-size="10.00">_color_sinks.h</text>
</a>
</g>
</g>
<!-- Node19&#45;&gt;Node21 -->
<g id="edge24" class="edge">
<title>Node19&#45;&gt;Node21</title>
<path fill="none" stroke="midnightblue" d="M906.76,-67.48C918.66,-59.34 937.01,-46.79 952.52,-36.18"/>
<polygon fill="midnightblue" stroke="midnightblue" points="954.52,-39.06 960.79,-30.52 950.56,-33.28 954.52,-39.06"/>
</g>
<!-- Node22 -->
<g id="node22" class="node">
<title>Node22</title>
<g id="a_node22"><a xlink:title=" ">
<polygon fill="none" stroke="#bfbfbf" points="1055.3,-6 1055.3,-25 1113.3,-25 1113.3,-6 1055.3,-6"/>
<text text-anchor="middle" x="1084.3" y="-13" font-family="Helvetica,sans-Serif" font-size="10.00">memory</text>
</a>
</g>
</g>
<!-- Node19&#45;&gt;Node22 -->
<g id="edge25" class="edge">
<title>Node19&#45;&gt;Node22</title>
<path fill="none" stroke="midnightblue" d="M925.67,-67.47C956.56,-58.9 1004.98,-44.98 1046.3,-31 1048.56,-30.24 1050.88,-29.42 1053.21,-28.58"/>
<polygon fill="midnightblue" stroke="midnightblue" points="1054.54,-31.82 1062.7,-25.07 1052.11,-25.26 1054.54,-31.82"/>
</g>
<!-- Node23 -->
<g id="node23" class="node">
<title>Node23</title>
<g id="a_node23"><a xlink:title=" ">
<polygon fill="none" stroke="#bfbfbf" points="698.3,-6 698.3,-25 796.3,-25 796.3,-6 698.3,-6"/>
<text text-anchor="middle" x="747.3" y="-13" font-family="Helvetica,sans-Serif" font-size="10.00">spdlog/fmt/fmt.h</text>
</a>
</g>
</g>
<!-- Node19&#45;&gt;Node23 -->
<g id="edge26" class="edge">
<title>Node19&#45;&gt;Node23</title>
<path fill="none" stroke="midnightblue" d="M873.24,-67.48C848.24,-57.36 806.36,-40.4 777.81,-28.85"/>
<polygon fill="midnightblue" stroke="midnightblue" points="778.9,-25.52 768.32,-25.01 776.28,-32.01 778.9,-25.52"/>
</g>
</g>
</svg>
