<?xml version="1.0" encoding="UTF-8" standalone="no"?>
<!DOCTYPE svg PUBLIC "-//W3C//DTD SVG 1.1//EN"
 "http://www.w3.org/Graphics/SVG/1.1/DTD/svg11.dtd">
<!-- Generated by graphviz version 2.43.0 (0)
 -->
<!-- Title: OMSimSupernova.cc Pages: 1 -->
<svg width="1561pt" height="489pt"
 viewBox="0.00 0.00 1560.50 489.00" xmlns="http://www.w3.org/2000/svg" xmlns:xlink="http://www.w3.org/1999/xlink">
<g id="graph0" class="graph" transform="scale(1 1) rotate(0) translate(4 485)">
<title>OMSimSupernova.cc</title>
<!-- Node1 -->
<g id="Node000001" class="node">
<title>Node1</title>
<g id="a_Node000001"><a xlink:title="Main of the supernova study.">
<polygon fill="#999999" stroke="#666666" points="415,-481 298,-481 298,-462 415,-462 415,-481"/>
<text text-anchor="middle" x="356.5" y="-469" font-family="Helvetica,sans-Serif" font-size="10.00">OMSimSupernova.cc</text>
</a>
</g>
</g>
<!-- Node2 -->
<g id="Node000002" class="node">
<title>Node2</title>
<g id="a_Node000002"><a xlink:title=" ">
<polygon fill="#e0e0e0" stroke="#999999" points="230,-426 163,-426 163,-407 230,-407 230,-426"/>
<text text-anchor="middle" x="196.5" y="-414" font-family="Helvetica,sans-Serif" font-size="10.00">OMSim.hh</text>
</a>
</g>
</g>
<!-- Node1&#45;&gt;Node2 -->
<g id="edge1_Node000001_Node000002" class="edge">
<title>Node1&#45;&gt;Node2</title>
<g id="a_edge1_Node000001_Node000002"><a xlink:title=" ">
<path fill="none" stroke="#63b8ff" d="M330.79,-461.98C304.05,-453.13 261.97,-439.19 232.05,-429.28"/>
<polygon fill="#63b8ff" stroke="#63b8ff" points="233,-425.9 222.41,-426.08 230.8,-432.55 233,-425.9"/>
</a>
</g>
</g>
<!-- Node3 -->
<g id="Node000003" class="node">
<title>Node3</title>
<g id="a_Node000003"><a xlink:href="_o_m_sim_s_n_analysis_8hh_source.html" target="_top" xlink:title=" ">
<polygon fill="white" stroke="#666666" points="268.5,-316 146.5,-316 146.5,-297 268.5,-297 268.5,-316"/>
<text text-anchor="middle" x="207.5" y="-304" font-family="Helvetica,sans-Serif" font-size="10.00">OMSimSNAnalysis.hh</text>
</a>
</g>
</g>
<!-- Node1&#45;&gt;Node3 -->
<g id="edge2_Node000001_Node000003" class="edge">
<title>Node1&#45;&gt;Node3</title>
<g id="a_edge2_Node000001_Node000003"><a xlink:title=" ">
<path fill="none" stroke="#63b8ff" d="M336.9,-461.86C320.92,-454.13 298.47,-441.61 282.5,-426 251.57,-395.77 227.46,-350.44 215.59,-325.52"/>
<polygon fill="#63b8ff" stroke="#63b8ff" points="218.65,-323.8 211.27,-316.19 212.29,-326.74 218.65,-323.8"/>
</a>
</g>
</g>
<!-- Node7 -->
<g id="Node000007" class="node">
<title>Node7</title>
<g id="a_Node000007"><a xlink:title=" ">
<polygon fill="#e0e0e0" stroke="#999999" points="572,-261 449,-261 449,-242 572,-242 572,-261"/>
<text text-anchor="middle" x="510.5" y="-249" font-family="Helvetica,sans-Serif" font-size="10.00">OMSimHitManager.hh</text>
</a>
</g>
</g>
<!-- Node1&#45;&gt;Node7 -->
<g id="edge11_Node000001_Node000007" class="edge">
<title>Node1&#45;&gt;Node7</title>
<g id="a_edge11_Node000001_Node000007"><a xlink:title=" ">
<path fill="none" stroke="#63b8ff" d="M344.18,-461.98C329.13,-450.43 306.61,-428.74 314.5,-407 336.25,-347.09 355.35,-335.03 406.5,-297 425.87,-282.6 450.61,-271.77 471.1,-264.4"/>
<polygon fill="#63b8ff" stroke="#63b8ff" points="472.46,-267.63 480.77,-261.06 470.18,-261.02 472.46,-267.63"/>
</a>
</g>
</g>
<!-- Node11 -->
<g id="Node000011" class="node">
<title>Node11</title>
<g id="a_Node000011"><a xlink:title=" ">
<polygon fill="#e0e0e0" stroke="#999999" points="509,-426 324,-426 324,-407 509,-407 509,-426"/>
<text text-anchor="middle" x="416.5" y="-414" font-family="Helvetica,sans-Serif" font-size="10.00">OMSimPrimaryGeneratorAction.hh</text>
</a>
</g>
</g>
<!-- Node1&#45;&gt;Node11 -->
<g id="edge10_Node000001_Node000011" class="edge">
<title>Node1&#45;&gt;Node11</title>
<g id="a_edge10_Node000001_Node000011"><a xlink:title=" ">
<path fill="none" stroke="#63b8ff" d="M366.14,-461.98C375.01,-454.15 388.37,-442.34 399.11,-432.86"/>
<polygon fill="#63b8ff" stroke="#63b8ff" points="401.51,-435.41 406.68,-426.17 396.87,-430.17 401.51,-435.41"/>
</a>
</g>
</g>
<!-- Node12 -->
<g id="Node000012" class="node">
<title>Node12</title>
<g id="a_Node000012"><a xlink:title=" ">
<polygon fill="#e0e0e0" stroke="#999999" points="619.5,-426 527.5,-426 527.5,-407 619.5,-407 619.5,-426"/>
<text text-anchor="middle" x="573.5" y="-414" font-family="Helvetica,sans-Serif" font-size="10.00">G4Navigator.hh</text>
</a>
</g>
</g>
<!-- Node1&#45;&gt;Node12 -->
<g id="edge12_Node000001_Node000012" class="edge">
<title>Node1&#45;&gt;Node12</title>
<g id="a_edge12_Node000001_Node000012"><a xlink:title=" ">
<path fill="none" stroke="#63b8ff" d="M391.36,-461.98C428.59,-452.89 487.7,-438.46 528.43,-428.51"/>
<polygon fill="#63b8ff" stroke="#63b8ff" points="529.48,-431.85 538.36,-426.08 527.82,-425.05 529.48,-431.85"/>
</a>
</g>
</g>
<!-- Node13 -->
<g id="Node000013" class="node">
<title>Node13</title>
<g id="a_Node000013"><a xlink:href="_o_m_sim_s_ndetector_8hh_source.html" target="_top" xlink:title=" ">
<polygon fill="white" stroke="#666666" points="757.5,-426 637.5,-426 637.5,-407 757.5,-407 757.5,-426"/>
<text text-anchor="middle" x="697.5" y="-414" font-family="Helvetica,sans-Serif" font-size="10.00">OMSimSNdetector.hh</text>
</a>
</g>
</g>
<!-- Node1&#45;&gt;Node13 -->
<g id="edge13_Node000001_Node000013" class="edge">
<title>Node1&#45;&gt;Node13</title>
<g id="a_edge13_Node000001_Node000013"><a xlink:title=" ">
<path fill="none" stroke="#63b8ff" d="M411.29,-461.98C471.6,-452.61 568.49,-437.55 632.57,-427.59"/>
<polygon fill="#63b8ff" stroke="#63b8ff" points="633.22,-431.03 642.57,-426.04 632.15,-424.12 633.22,-431.03"/>
</a>
</g>
</g>
<!-- Node4 -->
<g id="Node000004" class="node">
<title>Node4</title>
<g id="a_Node000004"><a xlink:title=" ">
<polygon fill="#e0e0e0" stroke="#999999" points="373,-151 300,-151 300,-132 373,-132 373,-151"/>
<text text-anchor="middle" x="336.5" y="-139" font-family="Helvetica,sans-Serif" font-size="10.00">G4Types.hh</text>
</a>
</g>
</g>
<!-- Node3&#45;&gt;Node4 -->
<g id="edge3_Node000003_Node000004" class="edge">
<title>Node3&#45;&gt;Node4</title>
<g id="a_edge3_Node000003_Node000004"><a xlink:title=" ">
<path fill="none" stroke="#63b8ff" d="M208.61,-296.66C210.54,-283.79 215.44,-259.51 226.5,-242 249.52,-205.54 289.48,-174.21 314.38,-156.89"/>
<polygon fill="#63b8ff" stroke="#63b8ff" points="316.5,-159.68 322.81,-151.17 312.57,-153.89 316.5,-159.68"/>
</a>
</g>
</g>
<!-- Node5 -->
<g id="Node000005" class="node">
<title>Node5</title>
<g id="a_Node000005"><a xlink:title=" ">
<polygon fill="#e0e0e0" stroke="#999999" points="309.5,-261 235.5,-261 235.5,-242 309.5,-242 309.5,-261"/>
<text text-anchor="middle" x="272.5" y="-249" font-family="Helvetica,sans-Serif" font-size="10.00">G4String.hh</text>
</a>
</g>
</g>
<!-- Node3&#45;&gt;Node5 -->
<g id="edge4_Node000003_Node000005" class="edge">
<title>Node3&#45;&gt;Node5</title>
<g id="a_edge4_Node000003_Node000005"><a xlink:title=" ">
<path fill="none" stroke="#63b8ff" d="M217.94,-296.98C227.65,-289.07 242.32,-277.11 254,-267.58"/>
<polygon fill="#63b8ff" stroke="#63b8ff" points="256.33,-270.2 261.87,-261.17 251.9,-264.78 256.33,-270.2"/>
</a>
</g>
</g>
<!-- Node6 -->
<g id="Node000006" class="node">
<title>Node6</title>
<g id="a_Node000006"><a xlink:title=" ">
<polygon fill="#e0e0e0" stroke="#999999" points="431,-261 328,-261 328,-242 431,-242 431,-261"/>
<text text-anchor="middle" x="379.5" y="-249" font-family="Helvetica,sans-Serif" font-size="10.00">G4ThreeVector.hh</text>
</a>
</g>
</g>
<!-- Node3&#45;&gt;Node6 -->
<g id="edge5_Node000003_Node000006" class="edge">
<title>Node3&#45;&gt;Node6</title>
<g id="a_edge5_Node000003_Node000006"><a xlink:title=" ">
<path fill="none" stroke="#63b8ff" d="M235.13,-296.98C264.01,-288.09 309.51,-274.07 341.7,-264.15"/>
<polygon fill="#63b8ff" stroke="#63b8ff" points="343.12,-267.37 351.65,-261.08 341.06,-260.68 343.12,-267.37"/>
</a>
</g>
</g>
<!-- Node3&#45;&gt;Node7 -->
<g id="edge6_Node000003_Node000007" class="edge">
<title>Node3&#45;&gt;Node7</title>
<g id="a_edge6_Node000003_Node000007"><a xlink:title=" ">
<path fill="none" stroke="#63b8ff" d="M256.18,-296.98C309.44,-287.67 394.81,-272.74 451.75,-262.78"/>
<polygon fill="#63b8ff" stroke="#63b8ff" points="452.44,-266.21 461.69,-261.04 451.23,-259.31 452.44,-266.21"/>
</a>
</g>
</g>
<!-- Node8 -->
<g id="Node000008" class="node">
<title>Node8</title>
<g id="a_Node000008"><a xlink:title=" ">
<polygon fill="#e0e0e0" stroke="#999999" points="47,-261 0,-261 0,-242 47,-242 47,-261"/>
<text text-anchor="middle" x="23.5" y="-249" font-family="Helvetica,sans-Serif" font-size="10.00">vector</text>
</a>
</g>
</g>
<!-- Node3&#45;&gt;Node8 -->
<g id="edge7_Node000003_Node000008" class="edge">
<title>Node3&#45;&gt;Node8</title>
<g id="a_edge7_Node000003_Node000008"><a xlink:title=" ">
<path fill="none" stroke="#63b8ff" d="M177.94,-296.98C144.84,-287.45 91.32,-272.03 56.78,-262.09"/>
<polygon fill="#63b8ff" stroke="#63b8ff" points="57.72,-258.71 47.14,-259.31 55.78,-265.44 57.72,-258.71"/>
</a>
</g>
</g>
<!-- Node9 -->
<g id="Node000009" class="node">
<title>Node9</title>
<g id="a_Node000009"><a xlink:title=" ">
<polygon fill="#e0e0e0" stroke="#999999" points="120,-261 65,-261 65,-242 120,-242 120,-261"/>
<text text-anchor="middle" x="92.5" y="-249" font-family="Helvetica,sans-Serif" font-size="10.00">fstream</text>
</a>
</g>
</g>
<!-- Node3&#45;&gt;Node9 -->
<g id="edge8_Node000003_Node000009" class="edge">
<title>Node3&#45;&gt;Node9</title>
<g id="a_edge8_Node000003_Node000009"><a xlink:title=" ">
<path fill="none" stroke="#63b8ff" d="M189.02,-296.98C170.52,-288.46 141.82,-275.23 120.52,-265.41"/>
<polygon fill="#63b8ff" stroke="#63b8ff" points="121.86,-262.18 111.31,-261.17 118.93,-268.53 121.86,-262.18"/>
</a>
</g>
</g>
<!-- Node10 -->
<g id="Node000010" class="node">
<title>Node10</title>
<g id="a_Node000010"><a xlink:title=" ">
<polygon fill="#e0e0e0" stroke="#999999" points="179,-261 138,-261 138,-242 179,-242 179,-261"/>
<text text-anchor="middle" x="158.5" y="-249" font-family="Helvetica,sans-Serif" font-size="10.00">tuple</text>
</a>
</g>
</g>
<!-- Node3&#45;&gt;Node10 -->
<g id="edge9_Node000003_Node000010" class="edge">
<title>Node3&#45;&gt;Node10</title>
<g id="a_edge9_Node000003_Node000010"><a xlink:title=" ">
<path fill="none" stroke="#63b8ff" d="M199.41,-296.75C192.34,-289.11 181.91,-277.82 173.35,-268.56"/>
<polygon fill="#63b8ff" stroke="#63b8ff" points="175.8,-266.06 166.44,-261.09 170.66,-270.81 175.8,-266.06"/>
</a>
</g>
</g>
<!-- Node14 -->
<g id="Node000014" class="node">
<title>Node14</title>
<g id="a_Node000014"><a xlink:href="_o_m_sim_detector_construction_8hh_source.html" target="_top" xlink:title=" ">
<polygon fill="white" stroke="#666666" points="773.5,-371 603.5,-371 603.5,-352 773.5,-352 773.5,-371"/>
<text text-anchor="middle" x="688.5" y="-359" font-family="Helvetica,sans-Serif" font-size="10.00">OMSimDetectorConstruction.hh</text>
</a>
</g>
</g>
<!-- Node13&#45;&gt;Node14 -->
<g id="edge14_Node000013_Node000014" class="edge">
<title>Node13&#45;&gt;Node14</title>
<g id="a_edge14_Node000013_Node000014"><a xlink:title=" ">
<path fill="none" stroke="#63b8ff" d="M696.01,-406.75C694.83,-399.8 693.14,-389.85 691.66,-381.13"/>
<polygon fill="#63b8ff" stroke="#63b8ff" points="695.08,-380.36 689.96,-371.09 688.18,-381.53 695.08,-380.36"/>
</a>
</g>
</g>
<!-- Node15 -->
<g id="Node000015" class="node">
<title>Node15</title>
<g id="a_Node000015"><a xlink:href="_o_m_sim_optical_module_8hh_source.html" target="_top" xlink:title=" ">
<polygon fill="white" stroke="#666666" points="749,-316 612,-316 612,-297 749,-297 749,-316"/>
<text text-anchor="middle" x="680.5" y="-304" font-family="Helvetica,sans-Serif" font-size="10.00">OMSimOpticalModule.hh</text>
</a>
</g>
</g>
<!-- Node14&#45;&gt;Node15 -->
<g id="edge15_Node000014_Node000015" class="edge">
<title>Node14&#45;&gt;Node15</title>
<g id="a_edge15_Node000014_Node000015"><a xlink:title=" ">
<path fill="none" stroke="#63b8ff" d="M687.18,-351.75C686.13,-344.8 684.63,-334.85 683.31,-326.13"/>
<polygon fill="#63b8ff" stroke="#63b8ff" points="686.75,-325.45 681.8,-316.09 679.83,-326.5 686.75,-325.45"/>
</a>
</g>
</g>
<!-- Node44 -->
<g id="Node000044" class="node">
<title>Node44</title>
<g id="a_Node000044"><a xlink:title=" ">
<polygon fill="#e0e0e0" stroke="#999999" points="829.5,-316 767.5,-316 767.5,-297 829.5,-297 829.5,-316"/>
<text text-anchor="middle" x="798.5" y="-304" font-family="Helvetica,sans-Serif" font-size="10.00">G4Orb.hh</text>
</a>
</g>
</g>
<!-- Node14&#45;&gt;Node44 -->
<g id="edge49_Node000014_Node000044" class="edge">
<title>Node14&#45;&gt;Node44</title>
<g id="a_edge49_Node000014_Node000044"><a xlink:title=" ">
<path fill="none" stroke="#63b8ff" d="M706.17,-351.98C723.79,-343.5 751.08,-330.35 771.43,-320.54"/>
<polygon fill="#63b8ff" stroke="#63b8ff" points="773.02,-323.66 780.51,-316.17 769.98,-317.36 773.02,-323.66"/>
</a>
</g>
</g>
<!-- Node45 -->
<g id="Node000045" class="node">
<title>Node45</title>
<g id="a_Node000045"><a xlink:title=" ">
<polygon fill="#e0e0e0" stroke="#999999" points="593.5,-316 415.5,-316 415.5,-297 593.5,-297 593.5,-316"/>
<text text-anchor="middle" x="504.5" y="-304" font-family="Helvetica,sans-Serif" font-size="10.00">G4VUserDetectorConstruction.hh</text>
</a>
</g>
</g>
<!-- Node14&#45;&gt;Node45 -->
<g id="edge50_Node000014_Node000045" class="edge">
<title>Node14&#45;&gt;Node45</title>
<g id="a_edge50_Node000014_Node000045"><a xlink:title=" ">
<path fill="none" stroke="#63b8ff" d="M658.94,-351.98C627.78,-343.01 578.53,-328.82 544.04,-318.89"/>
<polygon fill="#63b8ff" stroke="#63b8ff" points="544.87,-315.49 534.29,-316.08 542.93,-322.21 544.87,-315.49"/>
</a>
</g>
</g>
<!-- Node15&#45;&gt;Node7 -->
<g id="edge37_Node000015_Node000007" class="edge">
<title>Node15&#45;&gt;Node7</title>
<g id="a_edge37_Node000015_Node000007"><a xlink:title=" ">
<path fill="none" stroke="#63b8ff" d="M653.19,-296.98C624.65,-288.09 579.67,-274.07 547.86,-264.15"/>
<polygon fill="#63b8ff" stroke="#63b8ff" points="548.62,-260.72 538.03,-261.08 546.53,-267.4 548.62,-260.72"/>
</a>
</g>
</g>
<!-- Node16 -->
<g id="Node000016" class="node">
<title>Node16</title>
<g id="a_Node000016"><a xlink:href="_o_m_sim_detector_component_8hh.html" target="_top" xlink:title="Provides helper base class OMSimDetectorComponent for constructing and managing detector components i...">
<polygon fill="white" stroke="#666666" points="951,-206 786,-206 786,-187 951,-187 951,-206"/>
<text text-anchor="middle" x="868.5" y="-194" font-family="Helvetica,sans-Serif" font-size="10.00">OMSimDetectorComponent.hh</text>
</a>
</g>
</g>
<!-- Node15&#45;&gt;Node16 -->
<g id="edge16_Node000015_Node000016" class="edge">
<title>Node15&#45;&gt;Node16</title>
<g id="a_edge16_Node000015_Node000016"><a xlink:title=" ">
<path fill="none" stroke="#63b8ff" d="M697.62,-296.98C714.92,-288.27 742.34,-274.18 765.5,-261 794,-244.78 826.04,-224.73 846.7,-211.55"/>
<polygon fill="#63b8ff" stroke="#63b8ff" points="848.81,-214.36 855.35,-206.02 845.04,-208.47 848.81,-214.36"/>
</a>
</g>
</g>
<!-- Node37 -->
<g id="Node000037" class="node">
<title>Node37</title>
<g id="a_Node000037"><a xlink:href="_o_m_sim_p_m_t_construction_8hh.html" target="_top" xlink:title="Construction of the PMTs.">
<polygon fill="white" stroke="#666666" points="739,-261 590,-261 590,-242 739,-242 739,-261"/>
<text text-anchor="middle" x="664.5" y="-249" font-family="Helvetica,sans-Serif" font-size="10.00">OMSimPMTConstruction.hh</text>
</a>
</g>
</g>
<!-- Node15&#45;&gt;Node37 -->
<g id="edge38_Node000015_Node000037" class="edge">
<title>Node15&#45;&gt;Node37</title>
<g id="a_edge38_Node000015_Node000037"><a xlink:title=" ">
<path fill="none" stroke="#63b8ff" d="M677.86,-296.75C675.74,-289.72 672.69,-279.62 670.04,-270.84"/>
<polygon fill="#63b8ff" stroke="#63b8ff" points="673.33,-269.65 667.09,-261.09 666.63,-271.67 673.33,-269.65"/>
</a>
</g>
</g>
<!-- Node17 -->
<g id="Node000017" class="node">
<title>Node17</title>
<g id="a_Node000017"><a xlink:href="_o_m_sim_input_data_8hh.html" target="_top" xlink:title="Definition of ParameterTable and OMSimInputData.">
<polygon fill="white" stroke="#666666" points="797,-151 682,-151 682,-132 797,-132 797,-151"/>
<text text-anchor="middle" x="739.5" y="-139" font-family="Helvetica,sans-Serif" font-size="10.00">OMSimInputData.hh</text>
</a>
</g>
</g>
<!-- Node16&#45;&gt;Node17 -->
<g id="edge17_Node000016_Node000017" class="edge">
<title>Node16&#45;&gt;Node17</title>
<g id="a_edge17_Node000016_Node000017"><a xlink:title=" ">
<path fill="none" stroke="#63b8ff" d="M847.77,-186.98C826.74,-178.34 793.95,-164.87 769.96,-155.02"/>
<polygon fill="#63b8ff" stroke="#63b8ff" points="771.18,-151.73 760.6,-151.17 768.52,-158.21 771.18,-151.73"/>
</a>
</g>
</g>
<!-- Node33 -->
<g id="Node000033" class="node">
<title>Node33</title>
<g id="a_Node000033"><a xlink:title=" ">
<polygon fill="#e0e0e0" stroke="#999999" points="922,-151 815,-151 815,-132 922,-132 922,-151"/>
<text text-anchor="middle" x="868.5" y="-139" font-family="Helvetica,sans-Serif" font-size="10.00">G4Transform3D.hh</text>
</a>
</g>
</g>
<!-- Node16&#45;&gt;Node33 -->
<g id="edge33_Node000016_Node000033" class="edge">
<title>Node16&#45;&gt;Node33</title>
<g id="a_edge33_Node000016_Node000033"><a xlink:title=" ">
<path fill="none" stroke="#63b8ff" d="M868.5,-186.75C868.5,-179.8 868.5,-169.85 868.5,-161.13"/>
<polygon fill="#63b8ff" stroke="#63b8ff" points="872,-161.09 868.5,-151.09 865,-161.09 872,-161.09"/>
</a>
</g>
</g>
<!-- Node34 -->
<g id="Node000034" class="node">
<title>Node34</title>
<g id="a_Node000034"><a xlink:title=" ">
<polygon fill="#e0e0e0" stroke="#999999" points="1048.5,-151 940.5,-151 940.5,-132 1048.5,-132 1048.5,-151"/>
<text text-anchor="middle" x="994.5" y="-139" font-family="Helvetica,sans-Serif" font-size="10.00">G4VisAttributes.hh</text>
</a>
</g>
</g>
<!-- Node16&#45;&gt;Node34 -->
<g id="edge34_Node000016_Node000034" class="edge">
<title>Node16&#45;&gt;Node34</title>
<g id="a_edge34_Node000016_Node000034"><a xlink:title=" ">
<path fill="none" stroke="#63b8ff" d="M888.74,-186.98C909.2,-178.38 941.03,-164.99 964.43,-155.15"/>
<polygon fill="#63b8ff" stroke="#63b8ff" points="966.03,-158.27 973.89,-151.17 963.31,-151.82 966.03,-158.27"/>
</a>
</g>
</g>
<!-- Node35 -->
<g id="Node000035" class="node">
<title>Node35</title>
<g id="a_Node000035"><a xlink:title=" ">
<polygon fill="#e0e0e0" stroke="#999999" points="1192,-151 1067,-151 1067,-132 1192,-132 1192,-151"/>
<text text-anchor="middle" x="1129.5" y="-139" font-family="Helvetica,sans-Serif" font-size="10.00">G4SubtractionSolid.hh</text>
</a>
</g>
</g>
<!-- Node16&#45;&gt;Node35 -->
<g id="edge35_Node000016_Node000035" class="edge">
<title>Node16&#45;&gt;Node35</title>
<g id="a_edge35_Node000016_Node000035"><a xlink:title=" ">
<path fill="none" stroke="#63b8ff" d="M910.43,-186.98C955.77,-177.78 1028.11,-163.09 1077.15,-153.13"/>
<polygon fill="#63b8ff" stroke="#63b8ff" points="1078.13,-156.5 1087.24,-151.08 1076.74,-149.64 1078.13,-156.5"/>
</a>
</g>
</g>
<!-- Node36 -->
<g id="Node000036" class="node">
<title>Node36</title>
<g id="a_Node000036"><a xlink:title=" ">
<polygon fill="#e0e0e0" stroke="#999999" points="1320.5,-151 1210.5,-151 1210.5,-132 1320.5,-132 1320.5,-151"/>
<text text-anchor="middle" x="1265.5" y="-139" font-family="Helvetica,sans-Serif" font-size="10.00">G4PVPlacement.hh</text>
</a>
</g>
</g>
<!-- Node16&#45;&gt;Node36 -->
<g id="edge36_Node000016_Node000036" class="edge">
<title>Node16&#45;&gt;Node36</title>
<g id="a_edge36_Node000016_Node000036"><a xlink:title=" ">
<path fill="none" stroke="#63b8ff" d="M932.28,-186.98C1005.76,-177.18 1125.87,-161.14 1200.05,-151.24"/>
<polygon fill="#63b8ff" stroke="#63b8ff" points="1200.75,-154.68 1210.2,-149.88 1199.82,-147.74 1200.75,-154.68"/>
</a>
</g>
</g>
<!-- Node18 -->
<g id="Node000018" class="node">
<title>Node18</title>
<g id="a_Node000018"><a xlink:href="_o_m_sim_logger_8hh_source.html" target="_top" xlink:title=" ">
<polygon fill="white" stroke="#666666" points="1350,-90.5 1251,-90.5 1251,-71.5 1350,-71.5 1350,-90.5"/>
<text text-anchor="middle" x="1300.5" y="-78.5" font-family="Helvetica,sans-Serif" font-size="10.00">OMSimLogger.hh</text>
</a>
</g>
</g>
<!-- Node17&#45;&gt;Node18 -->
<g id="edge18_Node000017_Node000018" class="edge">
<title>Node17&#45;&gt;Node18</title>
<g id="a_edge18_Node000017_Node000018"><a xlink:title=" ">
<path fill="none" stroke="#63b8ff" d="M797.23,-133.08C800.37,-132.71 803.47,-132.35 806.5,-132 962.94,-114.16 1147.62,-96.33 1240.61,-87.57"/>
<polygon fill="#63b8ff" stroke="#63b8ff" points="1241.04,-91.04 1250.67,-86.62 1240.39,-84.07 1241.04,-91.04"/>
</a>
</g>
</g>
<!-- Node23 -->
<g id="Node000023" class="node">
<title>Node23</title>
<g id="a_Node000023"><a xlink:href="_o_m_sim_op_boundary_process_8hh_source.html" target="_top" xlink:title=" ">
<polygon fill="white" stroke="#666666" points="821.5,-90.5 657.5,-90.5 657.5,-71.5 821.5,-71.5 821.5,-90.5"/>
<text text-anchor="middle" x="739.5" y="-78.5" font-family="Helvetica,sans-Serif" font-size="10.00">OMSimOpBoundaryProcess.hh</text>
</a>
</g>
</g>
<!-- Node17&#45;&gt;Node23 -->
<g id="edge23_Node000017_Node000023" class="edge">
<title>Node17&#45;&gt;Node23</title>
<g id="a_edge23_Node000017_Node000023"><a xlink:title=" ">
<path fill="none" stroke="#63b8ff" d="M739.5,-131.87C739.5,-123.75 739.5,-111.31 739.5,-100.89"/>
<polygon fill="#63b8ff" stroke="#63b8ff" points="743,-100.67 739.5,-90.67 736,-100.67 743,-100.67"/>
</a>
</g>
</g>
<!-- Node31 -->
<g id="Node000031" class="node">
<title>Node31</title>
<g id="a_Node000031"><a xlink:title=" ">
<polygon fill="#e0e0e0" stroke="#999999" points="639,-90.5 520,-90.5 520,-71.5 639,-71.5 639,-90.5"/>
<text text-anchor="middle" x="579.5" y="-78.5" font-family="Helvetica,sans-Serif" font-size="10.00">G4SystemOfUnits.hh</text>
</a>
</g>
</g>
<!-- Node17&#45;&gt;Node31 -->
<g id="edge31_Node000017_Node000031" class="edge">
<title>Node17&#45;&gt;Node31</title>
<g id="a_edge31_Node000017_Node000031"><a xlink:title=" ">
<path fill="none" stroke="#63b8ff" d="M716.23,-131.99C688.86,-121.99 643.23,-105.3 612.28,-93.99"/>
<polygon fill="#63b8ff" stroke="#63b8ff" points="613.39,-90.66 602.79,-90.52 610.98,-97.24 613.39,-90.66"/>
</a>
</g>
</g>
<!-- Node32 -->
<g id="Node000032" class="node">
<title>Node32</title>
<g id="a_Node000032"><a xlink:title=" ">
<polygon fill="#e0e0e0" stroke="#999999" points="953,-96 840,-96 840,-66 953,-66 953,-96"/>
<text text-anchor="start" x="848" y="-84" font-family="Helvetica,sans-Serif" font-size="10.00">boost/property_tree</text>
<text text-anchor="middle" x="896.5" y="-73" font-family="Helvetica,sans-Serif" font-size="10.00">/json_parser.hpp</text>
</a>
</g>
</g>
<!-- Node17&#45;&gt;Node32 -->
<g id="edge32_Node000017_Node000032" class="edge">
<title>Node17&#45;&gt;Node32</title>
<g id="a_edge32_Node000017_Node000032"><a xlink:title=" ">
<path fill="none" stroke="#63b8ff" d="M762.33,-131.99C785.02,-123.54 820.5,-110.32 849.28,-99.59"/>
<polygon fill="#63b8ff" stroke="#63b8ff" points="850.61,-102.84 858.75,-96.06 848.16,-96.28 850.61,-102.84"/>
</a>
</g>
</g>
<!-- Node19 -->
<g id="Node000019" class="node">
<title>Node19</title>
<g id="a_Node000019"><a xlink:title=" ">
<polygon fill="#e0e0e0" stroke="#999999" points="1347,-24.5 1254,-24.5 1254,-5.5 1347,-5.5 1347,-24.5"/>
<text text-anchor="middle" x="1300.5" y="-12.5" font-family="Helvetica,sans-Serif" font-size="10.00">spdlog/spdlog.h</text>
</a>
</g>
</g>
<!-- Node18&#45;&gt;Node19 -->
<g id="edge19_Node000018_Node000019" class="edge">
<title>Node18&#45;&gt;Node19</title>
<g id="a_edge19_Node000018_Node000019"><a xlink:title=" ">
<path fill="none" stroke="#63b8ff" d="M1300.5,-71.37C1300.5,-62.16 1300.5,-47.29 1300.5,-35.27"/>
<polygon fill="#63b8ff" stroke="#63b8ff" points="1304,-34.91 1300.5,-24.91 1297,-34.91 1304,-34.91"/>
</a>
</g>
</g>
<!-- Node20 -->
<g id="Node000020" class="node">
<title>Node20</title>
<g id="a_Node000020"><a xlink:title=" ">
<polygon fill="#e0e0e0" stroke="#999999" points="1476,-30 1365,-30 1365,0 1476,0 1476,-30"/>
<text text-anchor="start" x="1373" y="-18" font-family="Helvetica,sans-Serif" font-size="10.00">spdlog/sinks/stdout</text>
<text text-anchor="middle" x="1420.5" y="-7" font-family="Helvetica,sans-Serif" font-size="10.00">_color_sinks.h</text>
</a>
</g>
</g>
<!-- Node18&#45;&gt;Node20 -->
<g id="edge20_Node000018_Node000020" class="edge">
<title>Node18&#45;&gt;Node20</title>
<g id="a_edge20_Node000018_Node000020"><a xlink:title=" ">
<path fill="none" stroke="#63b8ff" d="M1316.68,-71.37C1334.11,-62.07 1362.39,-46.99 1385.04,-34.91"/>
<polygon fill="#63b8ff" stroke="#63b8ff" points="1386.86,-37.91 1394.03,-30.12 1383.56,-31.73 1386.86,-37.91"/>
</a>
</g>
</g>
<!-- Node21 -->
<g id="Node000021" class="node">
<title>Node21</title>
<g id="a_Node000021"><a xlink:title=" ">
<polygon fill="#e0e0e0" stroke="#999999" points="1552.5,-24.5 1494.5,-24.5 1494.5,-5.5 1552.5,-5.5 1552.5,-24.5"/>
<text text-anchor="middle" x="1523.5" y="-12.5" font-family="Helvetica,sans-Serif" font-size="10.00">memory</text>
</a>
</g>
</g>
<!-- Node18&#45;&gt;Node21 -->
<g id="edge21_Node000018_Node000021" class="edge">
<title>Node18&#45;&gt;Node21</title>
<g id="a_edge21_Node000018_Node000021"><a xlink:title=" ">
<path fill="none" stroke="#63b8ff" d="M1335.89,-71.43C1373.33,-62.14 1433.99,-46.41 1485.5,-30 1487.41,-29.39 1489.36,-28.75 1491.33,-28.08"/>
<polygon fill="#63b8ff" stroke="#63b8ff" points="1492.85,-31.25 1501.11,-24.62 1490.51,-24.65 1492.85,-31.25"/>
</a>
</g>
</g>
<!-- Node22 -->
<g id="Node000022" class="node">
<title>Node22</title>
<g id="a_Node000022"><a xlink:title=" ">
<polygon fill="#e0e0e0" stroke="#999999" points="1235.5,-24.5 1137.5,-24.5 1137.5,-5.5 1235.5,-5.5 1235.5,-24.5"/>
<text text-anchor="middle" x="1186.5" y="-12.5" font-family="Helvetica,sans-Serif" font-size="10.00">spdlog/fmt/fmt.h</text>
</a>
</g>
</g>
<!-- Node18&#45;&gt;Node22 -->
<g id="edge22_Node000018_Node000022" class="edge">
<title>Node18&#45;&gt;Node22</title>
<g id="a_edge22_Node000018_Node000022"><a xlink:title=" ">
<path fill="none" stroke="#63b8ff" d="M1285.13,-71.37C1266.09,-60.68 1233.43,-42.35 1210.94,-29.72"/>
<polygon fill="#63b8ff" stroke="#63b8ff" points="1212.43,-26.54 1202,-24.7 1209,-32.65 1212.43,-26.54"/>
</a>
</g>
</g>
<!-- Node24 -->
<g id="Node000024" class="node">
<title>Node24</title>
<g id="a_Node000024"><a xlink:title=" ">
<polygon fill="#e0e0e0" stroke="#999999" points="313,-24.5 200,-24.5 200,-5.5 313,-5.5 313,-24.5"/>
<text text-anchor="middle" x="256.5" y="-12.5" font-family="Helvetica,sans-Serif" font-size="10.00">G4OpticalPhoton.hh</text>
</a>
</g>
</g>
<!-- Node23&#45;&gt;Node24 -->
<g id="edge24_Node000023_Node000024" class="edge">
<title>Node23&#45;&gt;Node24</title>
<g id="a_edge24_Node000023_Node000024"><a xlink:title=" ">
<path fill="none" stroke="#63b8ff" d="M686.04,-71.49C673.42,-69.58 659.99,-67.64 647.5,-66 503.41,-47.06 465.98,-53.11 322.5,-30 316.35,-29.01 309.91,-27.83 303.57,-26.58"/>
<polygon fill="#63b8ff" stroke="#63b8ff" points="304.23,-23.14 293.73,-24.57 302.83,-30 304.23,-23.14"/>
</a>
</g>
</g>
<!-- Node25 -->
<g id="Node000025" class="node">
<title>Node25</title>
<g id="a_Node000025"><a xlink:title=" ">
<polygon fill="#e0e0e0" stroke="#999999" points="447.5,-24.5 331.5,-24.5 331.5,-5.5 447.5,-5.5 447.5,-24.5"/>
<text text-anchor="middle" x="389.5" y="-12.5" font-family="Helvetica,sans-Serif" font-size="10.00">G4OpticalSurface.hh</text>
</a>
</g>
</g>
<!-- Node23&#45;&gt;Node25 -->
<g id="edge25_Node000023_Node000025" class="edge">
<title>Node23&#45;&gt;Node25</title>
<g id="a_edge25_Node000023_Node000025"><a xlink:title=" ">
<path fill="none" stroke="#63b8ff" d="M688.54,-71.49C631.82,-61.9 537.46,-45.61 456.5,-30 451.03,-28.95 445.32,-27.81 439.63,-26.65"/>
<polygon fill="#63b8ff" stroke="#63b8ff" points="439.99,-23.15 429.49,-24.57 438.58,-30.01 439.99,-23.15"/>
</a>
</g>
</g>
<!-- Node26 -->
<g id="Node000026" class="node">
<title>Node26</title>
<g id="a_Node000026"><a xlink:title=" ">
<polygon fill="#e0e0e0" stroke="#999999" points="575.5,-24.5 465.5,-24.5 465.5,-5.5 575.5,-5.5 575.5,-24.5"/>
<text text-anchor="middle" x="520.5" y="-12.5" font-family="Helvetica,sans-Serif" font-size="10.00">G4RandomTools.hh</text>
</a>
</g>
</g>
<!-- Node23&#45;&gt;Node26 -->
<g id="edge26_Node000023_Node000026" class="edge">
<title>Node23&#45;&gt;Node26</title>
<g id="a_edge26_Node000023_Node000026"><a xlink:title=" ">
<path fill="none" stroke="#63b8ff" d="M709.96,-71.37C671.16,-60.03 602.9,-40.08 559.78,-27.48"/>
<polygon fill="#63b8ff" stroke="#63b8ff" points="560.5,-24.04 549.92,-24.6 558.53,-30.76 560.5,-24.04"/>
</a>
</g>
</g>
<!-- Node27 -->
<g id="Node000027" class="node">
<title>Node27</title>
<g id="a_Node000027"><a xlink:title=" ">
<polygon fill="#e0e0e0" stroke="#999999" points="723.5,-24.5 593.5,-24.5 593.5,-5.5 723.5,-5.5 723.5,-24.5"/>
<text text-anchor="middle" x="658.5" y="-12.5" font-family="Helvetica,sans-Serif" font-size="10.00">G4VDiscreteProcess.hh</text>
</a>
</g>
</g>
<!-- Node23&#45;&gt;Node27 -->
<g id="edge27_Node000023_Node000027" class="edge">
<title>Node23&#45;&gt;Node27</title>
<g id="a_edge27_Node000023_Node000027"><a xlink:title=" ">
<path fill="none" stroke="#63b8ff" d="M728.58,-71.37C715.53,-61.06 693.49,-43.65 677.6,-31.09"/>
<polygon fill="#63b8ff" stroke="#63b8ff" points="679.53,-28.15 669.51,-24.7 675.19,-33.64 679.53,-28.15"/>
</a>
</g>
</g>
<!-- Node28 -->
<g id="Node000028" class="node">
<title>Node28</title>
<g id="a_Node000028"><a xlink:title=" ">
<polygon fill="#e0e0e0" stroke="#999999" points="899,-24.5 742,-24.5 742,-5.5 899,-5.5 899,-24.5"/>
<text text-anchor="middle" x="820.5" y="-12.5" font-family="Helvetica,sans-Serif" font-size="10.00">G4VUserTrackInformation.hh</text>
</a>
</g>
</g>
<!-- Node23&#45;&gt;Node28 -->
<g id="edge28_Node000023_Node000028" class="edge">
<title>Node23&#45;&gt;Node28</title>
<g id="a_edge28_Node000023_Node000028"><a xlink:title=" ">
<path fill="none" stroke="#63b8ff" d="M750.42,-71.37C763.47,-61.06 785.51,-43.65 801.4,-31.09"/>
<polygon fill="#63b8ff" stroke="#63b8ff" points="803.81,-33.64 809.49,-24.7 799.47,-28.15 803.81,-33.64"/>
</a>
</g>
</g>
<!-- Node29 -->
<g id="Node000029" class="node">
<title>Node29</title>
<g id="a_Node000029"><a xlink:title=" ">
<polygon fill="#e0e0e0" stroke="#999999" points="1007.5,-24.5 917.5,-24.5 917.5,-5.5 1007.5,-5.5 1007.5,-24.5"/>
<text text-anchor="middle" x="962.5" y="-12.5" font-family="Helvetica,sans-Serif" font-size="10.00">G4AutoLock.hh</text>
</a>
</g>
</g>
<!-- Node23&#45;&gt;Node29 -->
<g id="edge29_Node000023_Node000029" class="edge">
<title>Node23&#45;&gt;Node29</title>
<g id="a_edge29_Node000023_Node000029"><a xlink:title=" ">
<path fill="none" stroke="#63b8ff" d="M769.57,-71.37C809.17,-60 878.89,-40 922.79,-27.4"/>
<polygon fill="#63b8ff" stroke="#63b8ff" points="923.9,-30.72 932.55,-24.6 921.97,-23.99 923.9,-30.72"/>
</a>
</g>
</g>
<!-- Node30 -->
<g id="Node000030" class="node">
<title>Node30</title>
<g id="a_Node000030"><a xlink:title=" ">
<polygon fill="#e0e0e0" stroke="#999999" points="1119.5,-24.5 1025.5,-24.5 1025.5,-5.5 1119.5,-5.5 1119.5,-24.5"/>
<text text-anchor="middle" x="1072.5" y="-12.5" font-family="Helvetica,sans-Serif" font-size="10.00">G4Threading.hh</text>
</a>
</g>
</g>
<!-- Node23&#45;&gt;Node30 -->
<g id="edge30_Node000023_Node000030" class="edge">
<title>Node23&#45;&gt;Node30</title>
<g id="a_edge30_Node000023_Node000030"><a xlink:title=" ">
<path fill="none" stroke="#63b8ff" d="M792.81,-71.46C848.74,-62.24 939.1,-46.64 1016.5,-30 1020.92,-29.05 1025.52,-28 1030.1,-26.92"/>
<polygon fill="#63b8ff" stroke="#63b8ff" points="1031.12,-30.27 1040.01,-24.51 1029.47,-23.47 1031.12,-30.27"/>
</a>
</g>
</g>
<!-- Node37&#45;&gt;Node16 -->
<g id="edge39_Node000037_Node000016" class="edge">
<title>Node37&#45;&gt;Node16</title>
<g id="a_edge39_Node000037_Node000016"><a xlink:title=" ">
<path fill="none" stroke="#63b8ff" d="M697.28,-241.98C732.12,-232.93 787.37,-218.58 825.64,-208.64"/>
<polygon fill="#63b8ff" stroke="#63b8ff" points="826.67,-211.98 835.47,-206.08 824.91,-205.21 826.67,-211.98"/>
</a>
</g>
</g>
<!-- Node37&#45;&gt;Node37 -->
<g id="edge40_Node000037_Node000037" class="edge">
<title>Node37&#45;&gt;Node37</title>
<g id="a_edge40_Node000037_Node000037"><a xlink:title=" ">
<path fill="none" stroke="#63b8ff" d="M707.8,-261.03C733.21,-263.06 757,-259.88 757,-251.5 757,-244.23 739.11,-240.87 717.79,-241.44"/>
<polygon fill="#63b8ff" stroke="#63b8ff" points="717.6,-237.94 707.8,-241.97 717.97,-244.93 717.6,-237.94"/>
</a>
</g>
</g>
<!-- Node38 -->
<g id="Node000038" class="node">
<title>Node38</title>
<g id="a_Node000038"><a xlink:href="_o_m_sim_p_m_t_response_8hh.html" target="_top" xlink:title="Simulation of PMT response.">
<polygon fill="white" stroke="#666666" points="694,-206 559,-206 559,-187 694,-187 694,-206"/>
<text text-anchor="middle" x="626.5" y="-194" font-family="Helvetica,sans-Serif" font-size="10.00">OMSimPMTResponse.hh</text>
</a>
</g>
</g>
<!-- Node37&#45;&gt;Node38 -->
<g id="edge41_Node000037_Node000038" class="edge">
<title>Node37&#45;&gt;Node38</title>
<g id="a_edge41_Node000037_Node000038"><a xlink:title=" ">
<path fill="none" stroke="#63b8ff" d="M658.23,-241.75C652.91,-234.34 645.14,-223.5 638.62,-214.41"/>
<polygon fill="#63b8ff" stroke="#63b8ff" points="641.33,-212.18 632.66,-206.09 635.64,-216.26 641.33,-212.18"/>
</a>
</g>
</g>
<!-- Node42 -->
<g id="Node000042" class="node">
<title>Node42</title>
<g id="a_Node000042"><a xlink:title=" ">
<polygon fill="#e0e0e0" stroke="#999999" points="455.5,-206 357.5,-206 357.5,-187 455.5,-187 455.5,-206"/>
<text text-anchor="middle" x="406.5" y="-194" font-family="Helvetica,sans-Serif" font-size="10.00">G4UnionSolid.hh</text>
</a>
</g>
</g>
<!-- Node37&#45;&gt;Node42 -->
<g id="edge47_Node000037_Node000042" class="edge">
<title>Node37&#45;&gt;Node42</title>
<g id="a_edge47_Node000037_Node000042"><a xlink:title=" ">
<path fill="none" stroke="#63b8ff" d="M623.05,-241.98C578.23,-232.78 506.73,-218.09 458.25,-208.13"/>
<polygon fill="#63b8ff" stroke="#63b8ff" points="458.78,-204.67 448.28,-206.08 457.37,-211.52 458.78,-204.67"/>
</a>
</g>
</g>
<!-- Node43 -->
<g id="Node000043" class="node">
<title>Node43</title>
<g id="a_Node000043"><a xlink:title=" ">
<polygon fill="#e0e0e0" stroke="#999999" points="541,-206 474,-206 474,-187 541,-187 541,-206"/>
<text text-anchor="middle" x="507.5" y="-194" font-family="Helvetica,sans-Serif" font-size="10.00">G4Tubs.hh</text>
</a>
</g>
</g>
<!-- Node37&#45;&gt;Node43 -->
<g id="edge48_Node000037_Node000043" class="edge">
<title>Node37&#45;&gt;Node43</title>
<g id="a_edge48_Node000037_Node000043"><a xlink:title=" ">
<path fill="none" stroke="#63b8ff" d="M639.28,-241.98C613.14,-233.16 572.1,-219.31 542.77,-209.41"/>
<polygon fill="#63b8ff" stroke="#63b8ff" points="543.52,-205.96 532.92,-206.08 541.28,-212.6 543.52,-205.96"/>
</a>
</g>
</g>
<!-- Node38&#45;&gt;Node4 -->
<g id="edge43_Node000038_Node000004" class="edge">
<title>Node38&#45;&gt;Node4</title>
<g id="a_edge43_Node000038_Node000004"><a xlink:title=" ">
<path fill="none" stroke="#63b8ff" d="M579.91,-186.98C525.91,-177.12 437.43,-160.95 383.33,-151.06"/>
<polygon fill="#63b8ff" stroke="#63b8ff" points="383.78,-147.58 373.32,-149.23 382.53,-154.47 383.78,-147.58"/>
</a>
</g>
</g>
<!-- Node38&#45;&gt;Node31 -->
<g id="edge42_Node000038_Node000031" class="edge">
<title>Node38&#45;&gt;Node31</title>
<g id="a_edge42_Node000038_Node000031"><a xlink:title=" ">
<path fill="none" stroke="#63b8ff" d="M630.1,-186.87C634.79,-174.26 641.49,-150.29 633.5,-132 627.14,-117.45 614.22,-105.24 602.62,-96.53"/>
<polygon fill="#63b8ff" stroke="#63b8ff" points="604.32,-93.45 594.13,-90.57 600.3,-99.18 604.32,-93.45"/>
</a>
</g>
</g>
<!-- Node39 -->
<g id="Node000039" class="node">
<title>Node39</title>
<g id="a_Node000039"><a xlink:title=" ">
<polygon fill="#e0e0e0" stroke="#999999" points="474.5,-151 436.5,-151 436.5,-132 474.5,-132 474.5,-151"/>
<text text-anchor="middle" x="455.5" y="-139" font-family="Helvetica,sans-Serif" font-size="10.00">map</text>
</a>
</g>
</g>
<!-- Node38&#45;&gt;Node39 -->
<g id="edge44_Node000038_Node000039" class="edge">
<title>Node38&#45;&gt;Node39</title>
<g id="a_edge44_Node000038_Node000039"><a xlink:title=" ">
<path fill="none" stroke="#63b8ff" d="M599.03,-186.98C567.68,-177.27 516.62,-161.44 484.6,-151.52"/>
<polygon fill="#63b8ff" stroke="#63b8ff" points="485.52,-148.14 474.93,-148.52 483.44,-154.83 485.52,-148.14"/>
</a>
</g>
</g>
<!-- Node40 -->
<g id="Node000040" class="node">
<title>Node40</title>
<g id="a_Node000040"><a xlink:title=" ">
<polygon fill="#e0e0e0" stroke="#999999" points="554,-151 493,-151 493,-132 554,-132 554,-151"/>
<text text-anchor="middle" x="523.5" y="-139" font-family="Helvetica,sans-Serif" font-size="10.00">TGraph.h</text>
</a>
</g>
</g>
<!-- Node38&#45;&gt;Node40 -->
<g id="edge45_Node000038_Node000040" class="edge">
<title>Node38&#45;&gt;Node40</title>
<g id="a_edge45_Node000038_Node000040"><a xlink:title=" ">
<path fill="none" stroke="#63b8ff" d="M609.95,-186.98C593.61,-178.57 568.37,-165.59 549.37,-155.81"/>
<polygon fill="#63b8ff" stroke="#63b8ff" points="550.84,-152.63 540.35,-151.17 547.64,-158.86 550.84,-152.63"/>
</a>
</g>
</g>
<!-- Node41 -->
<g id="Node000041" class="node">
<title>Node41</title>
<g id="a_Node000041"><a xlink:title=" ">
<polygon fill="#e0e0e0" stroke="#999999" points="625,-151 572,-151 572,-132 625,-132 625,-151"/>
<text text-anchor="middle" x="598.5" y="-139" font-family="Helvetica,sans-Serif" font-size="10.00">TH2D.h</text>
</a>
</g>
</g>
<!-- Node38&#45;&gt;Node41 -->
<g id="edge46_Node000038_Node000041" class="edge">
<title>Node38&#45;&gt;Node41</title>
<g id="a_edge46_Node000038_Node000041"><a xlink:title=" ">
<path fill="none" stroke="#63b8ff" d="M621.88,-186.75C618.04,-179.49 612.48,-168.95 607.74,-159.98"/>
<polygon fill="#63b8ff" stroke="#63b8ff" points="610.8,-158.3 603.04,-151.09 604.61,-161.57 610.8,-158.3"/>
</a>
</g>
</g>
</g>
</svg>
