<?xml version="1.0" encoding="UTF-8" standalone="no"?>
<!DOCTYPE svg PUBLIC "-//W3C//DTD SVG 1.1//EN"
 "http://www.w3.org/Graphics/SVG/1.1/DTD/svg11.dtd">
<!-- Generated by graphviz version 2.43.0 (0)
 -->
<!-- Title: OMSimHitManager.hh Pages: 1 -->
<svg width="1626pt" height="252pt"
 viewBox="0.00 0.00 1626.05 252.00" xmlns="http://www.w3.org/2000/svg" xmlns:xlink="http://www.w3.org/1999/xlink">
<g id="graph0" class="graph" transform="scale(1 1) rotate(0) translate(4 248)">
<title>OMSimHitManager.hh</title>
<!-- Node1 -->
<g id="node1" class="node">
<title>Node1</title>
<g id="a_node1"><a xlink:title="Defines structures and classes related to optical module photon hit management.">
<polygon fill="#bfbfbf" stroke="black" points="1024.55,-224.5 1024.55,-243.5 1147.55,-243.5 1147.55,-224.5 1024.55,-224.5"/>
<text text-anchor="middle" x="1086.05" y="-231.5" font-family="Helvetica,sans-Serif" font-size="10.00">OMSimHitManager.hh</text>
</a>
</g>
</g>
<!-- Node2 -->
<g id="node2" class="node">
<title>Node2</title>
<g id="a_node2"><a xlink:href="_o_m_sim_run_action_8hh_source.html" target="_top" xlink:title=" ">
<polygon fill="none" stroke="black" points="301.05,-168.5 301.05,-187.5 417.05,-187.5 417.05,-168.5 301.05,-168.5"/>
<text text-anchor="middle" x="359.05" y="-175.5" font-family="Helvetica,sans-Serif" font-size="10.00">OMSimRunAction.hh</text>
</a>
</g>
</g>
<!-- Node1&#45;&gt;Node2 -->
<g id="edge1" class="edge">
<title>Node1&#45;&gt;Node2</title>
<path fill="none" stroke="midnightblue" d="M1014.44,-227.93C899.72,-219.76 667.66,-203.09 471.05,-188 453.54,-186.66 434.5,-185.14 417.17,-183.75"/>
<polygon fill="midnightblue" stroke="midnightblue" points="1014.27,-231.42 1024.5,-228.64 1014.77,-224.44 1014.27,-231.42"/>
</g>
<!-- Node7 -->
<g id="node7" class="node">
<title>Node7</title>
<g id="a_node7"><a xlink:href="_o_m_sim__radioactive__decays_8cc.html" target="_top" xlink:title="Main of the radioactive decay study.">
<polygon fill="none" stroke="black" points="52.55,-0.5 52.55,-19.5 217.55,-19.5 217.55,-0.5 52.55,-0.5"/>
<text text-anchor="middle" x="135.05" y="-7.5" font-family="Helvetica,sans-Serif" font-size="10.00">OMSim_radioactive_decays.cc</text>
</a>
</g>
</g>
<!-- Node1&#45;&gt;Node7 -->
<g id="edge28" class="edge">
<title>Node1&#45;&gt;Node7</title>
<path fill="none" stroke="midnightblue" d="M1014.22,-231.35C845.79,-227.08 429.3,-214.15 292.05,-188 157.54,-162.37 78.23,-191.73 5.05,-76 -14.57,-44.97 30.1,-28.21 72.33,-19.53"/>
<polygon fill="midnightblue" stroke="midnightblue" points="1014.39,-234.85 1024.47,-231.6 1014.56,-227.85 1014.39,-234.85"/>
</g>
<!-- Node8 -->
<g id="node8" class="node">
<title>Node8</title>
<g id="a_node8"><a xlink:href="_o_m_sim__supernova_8cc.html" target="_top" xlink:title="Main of the supernova study.">
<polygon fill="none" stroke="black" points="963.05,-0.5 963.05,-19.5 1085.05,-19.5 1085.05,-0.5 963.05,-0.5"/>
<text text-anchor="middle" x="1024.05" y="-7.5" font-family="Helvetica,sans-Serif" font-size="10.00">OMSim_supernova.cc</text>
</a>
</g>
</g>
<!-- Node1&#45;&gt;Node8 -->
<g id="edge32" class="edge">
<title>Node1&#45;&gt;Node8</title>
<path fill="none" stroke="midnightblue" d="M1074.22,-215.72C1069.29,-207.65 1064.04,-197.7 1061.05,-188 1043.7,-131.7 1066.39,-112.3 1049.05,-56 1044.89,-42.51 1036.34,-28.53 1030.41,-19.8"/>
<polygon fill="midnightblue" stroke="midnightblue" points="1071.33,-217.69 1079.69,-224.2 1077.21,-213.9 1071.33,-217.69"/>
</g>
<!-- Node9 -->
<g id="node9" class="node">
<title>Node9</title>
<g id="a_node9"><a xlink:href="_o_m_sim_optical_module_8hh_source.html" target="_top" xlink:title=" ">
<polygon fill="none" stroke="black" points="479.55,-168.5 479.55,-187.5 616.55,-187.5 616.55,-168.5 479.55,-168.5"/>
<text text-anchor="middle" x="548.05" y="-175.5" font-family="Helvetica,sans-Serif" font-size="10.00">OMSimOpticalModule.hh</text>
</a>
</g>
</g>
<!-- Node1&#45;&gt;Node9 -->
<g id="edge8" class="edge">
<title>Node1&#45;&gt;Node9</title>
<path fill="none" stroke="midnightblue" d="M1014.24,-225.79C910.2,-215.35 718.84,-196.14 616.64,-185.88"/>
<polygon fill="midnightblue" stroke="midnightblue" points="1014.03,-229.29 1024.33,-226.81 1014.73,-222.32 1014.03,-229.29"/>
</g>
<!-- Node22 -->
<g id="node22" class="node">
<title>Node22</title>
<g id="a_node22"><a xlink:href="effective__area_2include_2_o_m_sim_effective_area_analyisis_8hh_source.html" target="_top" xlink:title=" ">
<polygon fill="none" stroke="black" points="1248.05,-168.5 1248.05,-187.5 1424.05,-187.5 1424.05,-168.5 1248.05,-168.5"/>
<text text-anchor="middle" x="1336.05" y="-175.5" font-family="Helvetica,sans-Serif" font-size="10.00">OMSimEffectiveAreaAnalyisis.hh</text>
</a>
</g>
</g>
<!-- Node1&#45;&gt;Node22 -->
<g id="edge26" class="edge">
<title>Node1&#45;&gt;Node22</title>
<path fill="none" stroke="midnightblue" d="M1135.67,-222.28C1182.91,-212.08 1253.08,-196.92 1296.62,-187.52"/>
<polygon fill="midnightblue" stroke="midnightblue" points="1134.7,-218.91 1125.66,-224.44 1136.18,-225.75 1134.7,-218.91"/>
</g>
<!-- Node23 -->
<g id="node23" class="node">
<title>Node23</title>
<g id="a_node23"><a xlink:href="_q_e__calibration_2include_2_o_m_sim_effective_area_analyisis_8hh_source.html" target="_top" xlink:title=" ">
<polygon fill="none" stroke="black" points="1442.05,-168.5 1442.05,-187.5 1618.05,-187.5 1618.05,-168.5 1442.05,-168.5"/>
<text text-anchor="middle" x="1530.05" y="-175.5" font-family="Helvetica,sans-Serif" font-size="10.00">OMSimEffectiveAreaAnalyisis.hh</text>
</a>
</g>
</g>
<!-- Node1&#45;&gt;Node23 -->
<g id="edge27" class="edge">
<title>Node1&#45;&gt;Node23</title>
<path fill="none" stroke="midnightblue" d="M1157.92,-224.26C1241.22,-214.13 1377.58,-197.54 1460.06,-187.51"/>
<polygon fill="midnightblue" stroke="midnightblue" points="1157.29,-220.81 1147.78,-225.49 1158.13,-227.76 1157.29,-220.81"/>
</g>
<!-- Node24 -->
<g id="node24" class="node">
<title>Node24</title>
<g id="a_node24"><a xlink:href="_o_m_sim_s_n_analysis_8hh_source.html" target="_top" xlink:title=" ">
<polygon fill="none" stroke="black" points="1070.05,-168.5 1070.05,-187.5 1192.05,-187.5 1192.05,-168.5 1070.05,-168.5"/>
<text text-anchor="middle" x="1131.05" y="-175.5" font-family="Helvetica,sans-Serif" font-size="10.00">OMSimSNAnalysis.hh</text>
</a>
</g>
</g>
<!-- Node1&#45;&gt;Node24 -->
<g id="edge29" class="edge">
<title>Node1&#45;&gt;Node24</title>
<path fill="none" stroke="midnightblue" d="M1100.09,-216.14C1107.94,-206.74 1117.38,-195.4 1123.76,-187.75"/>
<polygon fill="midnightblue" stroke="midnightblue" points="1097.19,-214.16 1093.48,-224.08 1102.57,-218.64 1097.19,-214.16"/>
</g>
<!-- Node25 -->
<g id="node25" class="node">
<title>Node25</title>
<g id="a_node25"><a xlink:href="_o_m_sim_s_n_analysis_8cc.html" target="_top" xlink:title="Analyze data and write output files.">
<polygon fill="none" stroke="black" points="1150.05,-112.5 1150.05,-131.5 1270.05,-131.5 1270.05,-112.5 1150.05,-112.5"/>
<text text-anchor="middle" x="1210.05" y="-119.5" font-family="Helvetica,sans-Serif" font-size="10.00">OMSimSNAnalysis.cc</text>
</a>
</g>
</g>
<!-- Node1&#45;&gt;Node25 -->
<g id="edge33" class="edge">
<title>Node1&#45;&gt;Node25</title>
<path fill="none" stroke="midnightblue" d="M1149.07,-221.4C1168.5,-214.77 1188.16,-204.35 1201.05,-188 1214.03,-171.54 1213,-145.16 1211.39,-131.63"/>
<polygon fill="midnightblue" stroke="midnightblue" points="1147.78,-218.14 1139.27,-224.45 1149.86,-224.82 1147.78,-218.14"/>
</g>
<!-- Node3 -->
<g id="node3" class="node">
<title>Node3</title>
<g id="a_node3"><a xlink:href="_o_m_sim_8hh.html" target="_top" xlink:title="Main simulation class for the Optical Module (OM) simulation. This file defines the OMSim class,...">
<polygon fill="none" stroke="black" points="452.55,-56.5 452.55,-75.5 519.55,-75.5 519.55,-56.5 452.55,-56.5"/>
<text text-anchor="middle" x="486.05" y="-63.5" font-family="Helvetica,sans-Serif" font-size="10.00">OMSim.hh</text>
</a>
</g>
</g>
<!-- Node2&#45;&gt;Node3 -->
<g id="edge2" class="edge">
<title>Node2&#45;&gt;Node3</title>
<path fill="none" stroke="midnightblue" d="M358.22,-158.21C358.59,-144.01 361.33,-124.82 372.05,-112 383.03,-98.86 425.29,-84.45 455.14,-75.56"/>
<polygon fill="midnightblue" stroke="midnightblue" points="354.73,-158.36 358.33,-168.32 361.73,-158.29 354.73,-158.36"/>
</g>
<!-- Node4 -->
<g id="node4" class="node">
<title>Node4</title>
<g id="a_node4"><a xlink:href="_o_m_sim_8cc.html" target="_top" xlink:title="Implementation of the OMSim class.">
<polygon fill="none" stroke="black" points="453.55,-0.5 453.55,-19.5 518.55,-19.5 518.55,-0.5 453.55,-0.5"/>
<text text-anchor="middle" x="486.05" y="-7.5" font-family="Helvetica,sans-Serif" font-size="10.00">OMSim.cc</text>
</a>
</g>
</g>
<!-- Node3&#45;&gt;Node4 -->
<g id="edge3" class="edge">
<title>Node3&#45;&gt;Node4</title>
<path fill="none" stroke="midnightblue" d="M486.05,-45.8C486.05,-36.91 486.05,-26.78 486.05,-19.75"/>
<polygon fill="midnightblue" stroke="midnightblue" points="482.55,-46.08 486.05,-56.08 489.55,-46.08 482.55,-46.08"/>
</g>
<!-- Node5 -->
<g id="node5" class="node">
<title>Node5</title>
<g id="a_node5"><a xlink:href="_o_m_sim__effective__area_8cc.html" target="_top" xlink:title="Main for the calculation of effective areas.">
<polygon fill="none" stroke="black" points="537.05,-0.5 537.05,-19.5 677.05,-19.5 677.05,-0.5 537.05,-0.5"/>
<text text-anchor="middle" x="607.05" y="-7.5" font-family="Helvetica,sans-Serif" font-size="10.00">OMSim_effective_area.cc</text>
</a>
</g>
</g>
<!-- Node3&#45;&gt;Node5 -->
<g id="edge4" class="edge">
<title>Node3&#45;&gt;Node5</title>
<path fill="none" stroke="midnightblue" d="M514.35,-52.37C537.01,-42.26 568.17,-28.35 587.97,-19.52"/>
<polygon fill="midnightblue" stroke="midnightblue" points="512.93,-49.17 505.22,-56.44 515.78,-55.56 512.93,-49.17"/>
</g>
<!-- Node6 -->
<g id="node6" class="node">
<title>Node6</title>
<g id="a_node6"><a xlink:href="_o_m_sim___q_e__calibration_8cc.html" target="_top" xlink:title="Main for the calculation of effective areas.">
<polygon fill="none" stroke="black" points="294.55,-0.5 294.55,-19.5 435.55,-19.5 435.55,-0.5 294.55,-0.5"/>
<text text-anchor="middle" x="365.05" y="-7.5" font-family="Helvetica,sans-Serif" font-size="10.00">OMSim_QE_calibration.cc</text>
</a>
</g>
</g>
<!-- Node3&#45;&gt;Node6 -->
<g id="edge5" class="edge">
<title>Node3&#45;&gt;Node6</title>
<path fill="none" stroke="midnightblue" d="M457.74,-52.37C435.08,-42.26 403.92,-28.35 384.13,-19.52"/>
<polygon fill="midnightblue" stroke="midnightblue" points="456.32,-55.56 466.88,-56.44 459.17,-49.17 456.32,-55.56"/>
</g>
<!-- Node3&#45;&gt;Node7 -->
<g id="edge6" class="edge">
<title>Node3&#45;&gt;Node7</title>
<path fill="none" stroke="midnightblue" d="M442.28,-55.77C354.32,-40.15 262.94,-27.43 202.47,-19.5"/>
<polygon fill="midnightblue" stroke="midnightblue" points="441.7,-59.22 452.16,-57.54 442.93,-52.33 441.7,-59.22"/>
</g>
<!-- Node3&#45;&gt;Node8 -->
<g id="edge7" class="edge">
<title>Node3&#45;&gt;Node8</title>
<path fill="none" stroke="midnightblue" d="M529.93,-56.04C691.91,-32.24 870.96,-19.71 962.81,-14.28"/>
<polygon fill="midnightblue" stroke="midnightblue" points="529.16,-52.62 519.78,-57.55 530.19,-59.54 529.16,-52.62"/>
</g>
<!-- Node10 -->
<g id="node10" class="node">
<title>Node10</title>
<g id="a_node10"><a xlink:href="_o_m_sim_d_e_g_g_8hh.html" target="_top" xlink:title="Construction of the DEGG class. From DOUMEKI.">
<polygon fill="none" stroke="black" points="803.55,-112.5 803.55,-131.5 898.55,-131.5 898.55,-112.5 803.55,-112.5"/>
<text text-anchor="middle" x="851.05" y="-119.5" font-family="Helvetica,sans-Serif" font-size="10.00">OMSimDEGG.hh</text>
</a>
</g>
</g>
<!-- Node9&#45;&gt;Node10 -->
<g id="edge9" class="edge">
<title>Node9&#45;&gt;Node10</title>
<path fill="none" stroke="midnightblue" d="M606.04,-166.66C663.31,-156.46 749.83,-141.04 803.26,-131.52"/>
<polygon fill="midnightblue" stroke="midnightblue" points="605.29,-163.24 596.06,-168.44 606.52,-170.13 605.29,-163.24"/>
</g>
<!-- Node11 -->
<g id="node11" class="node">
<title>Node11</title>
<g id="a_node11"><a xlink:href="_o_m_sim_detector_construction_8hh_source.html" target="_top" xlink:title=" ">
<polygon fill="none" stroke="black" points="615.05,-112.5 615.05,-131.5 785.05,-131.5 785.05,-112.5 615.05,-112.5"/>
<text text-anchor="middle" x="700.05" y="-119.5" font-family="Helvetica,sans-Serif" font-size="10.00">OMSimDetectorConstruction.hh</text>
</a>
</g>
</g>
<!-- Node9&#45;&gt;Node11 -->
<g id="edge10" class="edge">
<title>Node9&#45;&gt;Node11</title>
<path fill="none" stroke="midnightblue" d="M581.72,-165.04C610.32,-154.88 650.66,-140.55 676.08,-131.52"/>
<polygon fill="midnightblue" stroke="midnightblue" points="580.38,-161.8 572.13,-168.44 582.73,-168.39 580.38,-161.8"/>
</g>
<!-- Node14 -->
<g id="node14" class="node">
<title>Node14</title>
<g id="a_node14"><a xlink:href="_o_m_sim_rad_decays_detector_8hh.html" target="_top" xlink:title="Defines the OMSimRadDecaysDetector class for the radioactive decays simulation.">
<polygon fill="none" stroke="black" points="271.55,-56.5 271.55,-75.5 434.55,-75.5 434.55,-56.5 271.55,-56.5"/>
<text text-anchor="middle" x="353.05" y="-63.5" font-family="Helvetica,sans-Serif" font-size="10.00">OMSimRadDecaysDetector.hh</text>
</a>
</g>
</g>
<!-- Node9&#45;&gt;Node14 -->
<g id="edge25" class="edge">
<title>Node9&#45;&gt;Node14</title>
<path fill="none" stroke="midnightblue" d="M468.89,-173.79C435.15,-168.5 397.74,-156.83 372.05,-132 356.32,-116.8 353.42,-89.38 353.01,-75.51"/>
<polygon fill="midnightblue" stroke="midnightblue" points="468.84,-177.31 479.22,-175.23 469.8,-170.38 468.84,-177.31"/>
</g>
<!-- Node16 -->
<g id="node16" class="node">
<title>Node16</title>
<g id="a_node16"><a xlink:href="_o_m_sim_l_o_m16_8hh.html" target="_top" xlink:title="Construction of LOM16.">
<polygon fill="none" stroke="black" points="916.55,-112.5 916.55,-131.5 1017.55,-131.5 1017.55,-112.5 916.55,-112.5"/>
<text text-anchor="middle" x="967.05" y="-119.5" font-family="Helvetica,sans-Serif" font-size="10.00">OMSimLOM16.hh</text>
</a>
</g>
</g>
<!-- Node9&#45;&gt;Node16 -->
<g id="edge18" class="edge">
<title>Node9&#45;&gt;Node16</title>
<path fill="none" stroke="midnightblue" d="M626.84,-167.77C699.83,-159.08 811.37,-145.41 908.05,-132 910.82,-131.62 913.66,-131.21 916.53,-130.8"/>
<polygon fill="midnightblue" stroke="midnightblue" points="626.32,-164.31 616.8,-168.97 627.14,-171.26 626.32,-164.31"/>
</g>
<!-- Node17 -->
<g id="node17" class="node">
<title>Node17</title>
<g id="a_node17"><a xlink:href="_o_m_sim_l_o_m18_8hh.html" target="_top" xlink:title="Construction of LOM18.">
<polygon fill="none" stroke="black" points="169.55,-112.5 169.55,-131.5 270.55,-131.5 270.55,-112.5 169.55,-112.5"/>
<text text-anchor="middle" x="220.05" y="-119.5" font-family="Helvetica,sans-Serif" font-size="10.00">OMSimLOM18.hh</text>
</a>
</g>
</g>
<!-- Node9&#45;&gt;Node17 -->
<g id="edge19" class="edge">
<title>Node9&#45;&gt;Node17</title>
<path fill="none" stroke="midnightblue" d="M485.98,-166.78C423.61,-156.51 328.67,-140.88 270.7,-131.34"/>
<polygon fill="midnightblue" stroke="midnightblue" points="485.64,-170.27 496.08,-168.44 486.78,-163.37 485.64,-170.27"/>
</g>
<!-- Node19 -->
<g id="node19" class="node">
<title>Node19</title>
<g id="a_node19"><a xlink:href="_o_m_sim_m_d_o_m_8hh.html" target="_top" xlink:title="Construction of mDOM.">
<polygon fill="none" stroke="black" points="381.05,-112.5 381.05,-131.5 481.05,-131.5 481.05,-112.5 381.05,-112.5"/>
<text text-anchor="middle" x="431.05" y="-119.5" font-family="Helvetica,sans-Serif" font-size="10.00">OMSimMDOM.hh</text>
</a>
</g>
</g>
<!-- Node9&#45;&gt;Node19 -->
<g id="edge21" class="edge">
<title>Node9&#45;&gt;Node19</title>
<path fill="none" stroke="midnightblue" d="M520.38,-164.23C498.5,-154.13 468.55,-140.31 449.5,-131.52"/>
<polygon fill="midnightblue" stroke="midnightblue" points="518.96,-167.43 529.51,-168.44 521.9,-161.08 518.96,-167.43"/>
</g>
<!-- Node20 -->
<g id="node20" class="node">
<title>Node20</title>
<g id="a_node20"><a xlink:href="_o_m_sim_p_d_o_m_8hh.html" target="_top" xlink:title="Implementation of the pDOM/Gen1 DOM class.">
<polygon fill="none" stroke="black" points="499.55,-112.5 499.55,-131.5 596.55,-131.5 596.55,-112.5 499.55,-112.5"/>
<text text-anchor="middle" x="548.05" y="-119.5" font-family="Helvetica,sans-Serif" font-size="10.00">OMSimPDOM.hh</text>
</a>
</g>
</g>
<!-- Node9&#45;&gt;Node20 -->
<g id="edge22" class="edge">
<title>Node9&#45;&gt;Node20</title>
<path fill="none" stroke="midnightblue" d="M548.05,-157.8C548.05,-148.91 548.05,-138.78 548.05,-131.75"/>
<polygon fill="midnightblue" stroke="midnightblue" points="544.55,-158.08 548.05,-168.08 551.55,-158.08 544.55,-158.08"/>
</g>
<!-- Node21 -->
<g id="node21" class="node">
<title>Node21</title>
<g id="a_node21"><a xlink:href="_o_m_sim_decays_g_p_s_8hh.html" target="_top" xlink:title="Defines the OMSimDecaysGPS class for the radioactive decays simulation.">
<polygon fill="none" stroke="black" points="14.05,-56.5 14.05,-75.5 136.05,-75.5 136.05,-56.5 14.05,-56.5"/>
<text text-anchor="middle" x="75.05" y="-63.5" font-family="Helvetica,sans-Serif" font-size="10.00">OMSimDecaysGPS.hh</text>
</a>
</g>
</g>
<!-- Node9&#45;&gt;Node21 -->
<g id="edge23" class="edge">
<title>Node9&#45;&gt;Node21</title>
<path fill="none" stroke="midnightblue" d="M469.21,-170.07C364.35,-160.5 188.92,-143.18 161.05,-132 128.39,-118.9 97.32,-89.99 83.12,-75.55"/>
<polygon fill="midnightblue" stroke="midnightblue" points="469.17,-173.58 479.44,-171 469.8,-166.61 469.17,-173.58"/>
</g>
<!-- Node11&#45;&gt;Node3 -->
<g id="edge11" class="edge">
<title>Node11&#45;&gt;Node3</title>
<path fill="none" stroke="midnightblue" d="M656.29,-109.96C615.87,-99.76 556.68,-84.82 519.8,-75.52"/>
<polygon fill="midnightblue" stroke="midnightblue" points="655.59,-113.39 666.14,-112.44 657.3,-106.6 655.59,-113.39"/>
</g>
<!-- Node12 -->
<g id="node12" class="node">
<title>Node12</title>
<g id="a_node12"><a xlink:href="effective__area_2include_2_o_m_sim_effective_area_detector_8hh.html" target="_top" xlink:title="Defines the OMSimEffectiveAreaDetector class for effective area simulation detector construction.">
<polygon fill="none" stroke="black" points="728.55,-56.5 728.55,-75.5 901.55,-75.5 901.55,-56.5 728.55,-56.5"/>
<text text-anchor="middle" x="815.05" y="-63.5" font-family="Helvetica,sans-Serif" font-size="10.00">OMSimEffectiveAreaDetector.hh</text>
</a>
</g>
</g>
<!-- Node11&#45;&gt;Node12 -->
<g id="edge12" class="edge">
<title>Node11&#45;&gt;Node12</title>
<path fill="none" stroke="midnightblue" d="M727.53,-108.1C749.01,-98.01 778.27,-84.27 796.91,-75.52"/>
<polygon fill="midnightblue" stroke="midnightblue" points="725.83,-105.02 718.27,-112.44 728.81,-111.36 725.83,-105.02"/>
</g>
<!-- Node13 -->
<g id="node13" class="node">
<title>Node13</title>
<g id="a_node13"><a xlink:href="_q_e__calibration_2include_2_o_m_sim_effective_area_detector_8hh.html" target="_top" xlink:title="Defines the OMSimEffectiveAreaDetector class for effective area simulation detector construction.">
<polygon fill="none" stroke="black" points="537.55,-56.5 537.55,-75.5 710.55,-75.5 710.55,-56.5 537.55,-56.5"/>
<text text-anchor="middle" x="624.05" y="-63.5" font-family="Helvetica,sans-Serif" font-size="10.00">OMSimEffectiveAreaDetector.hh</text>
</a>
</g>
</g>
<!-- Node11&#45;&gt;Node13 -->
<g id="edge13" class="edge">
<title>Node11&#45;&gt;Node13</title>
<path fill="none" stroke="midnightblue" d="M679.47,-106.38C665.74,-96.62 648.12,-84.11 636.48,-75.83"/>
<polygon fill="midnightblue" stroke="midnightblue" points="677.66,-109.38 687.84,-112.32 681.71,-103.68 677.66,-109.38"/>
</g>
<!-- Node11&#45;&gt;Node14 -->
<g id="edge14" class="edge">
<title>Node11&#45;&gt;Node14</title>
<path fill="none" stroke="midnightblue" d="M634.85,-110.85C569.29,-100.65 469.34,-85.1 407.77,-75.52"/>
<polygon fill="midnightblue" stroke="midnightblue" points="634.65,-114.36 645.07,-112.44 635.72,-107.45 634.65,-114.36"/>
</g>
<!-- Node15 -->
<g id="node15" class="node">
<title>Node15</title>
<g id="a_node15"><a xlink:href="_o_m_sim_s_ndetector_8hh_source.html" target="_top" xlink:title=" ">
<polygon fill="none" stroke="black" points="920.05,-56.5 920.05,-75.5 1040.05,-75.5 1040.05,-56.5 920.05,-56.5"/>
<text text-anchor="middle" x="980.05" y="-63.5" font-family="Helvetica,sans-Serif" font-size="10.00">OMSimSNdetector.hh</text>
</a>
</g>
</g>
<!-- Node11&#45;&gt;Node15 -->
<g id="edge16" class="edge">
<title>Node11&#45;&gt;Node15</title>
<path fill="none" stroke="midnightblue" d="M754.3,-110.54C807.22,-100.33 886.72,-85 935.89,-75.52"/>
<polygon fill="midnightblue" stroke="midnightblue" points="753.57,-107.11 744.42,-112.44 754.9,-113.99 753.57,-107.11"/>
</g>
<!-- Node14&#45;&gt;Node7 -->
<g id="edge15" class="edge">
<title>Node14&#45;&gt;Node7</title>
<path fill="none" stroke="midnightblue" d="M308.74,-54.02C267.56,-43.82 207.07,-28.84 169.43,-19.52"/>
<polygon fill="midnightblue" stroke="midnightblue" points="307.96,-57.44 318.51,-56.44 309.64,-50.64 307.96,-57.44"/>
</g>
<!-- Node15&#45;&gt;Node8 -->
<g id="edge17" class="edge">
<title>Node15&#45;&gt;Node8</title>
<path fill="none" stroke="midnightblue" d="M993.78,-48.14C1001.45,-38.74 1010.68,-27.4 1016.92,-19.75"/>
<polygon fill="midnightblue" stroke="midnightblue" points="990.92,-46.12 987.31,-56.08 996.34,-50.54 990.92,-46.12"/>
</g>
<!-- Node18 -->
<g id="node18" class="node">
<title>Node18</title>
<g id="a_node18"><a xlink:href="_o_m_sim_l_o_m18_8cc.html" target="_top" xlink:title=" ">
<polygon fill="none" stroke="black" points="154.55,-56.5 154.55,-75.5 253.55,-75.5 253.55,-56.5 154.55,-56.5"/>
<text text-anchor="middle" x="204.05" y="-63.5" font-family="Helvetica,sans-Serif" font-size="10.00">OMSimLOM18.cc</text>
</a>
</g>
</g>
<!-- Node17&#45;&gt;Node18 -->
<g id="edge20" class="edge">
<title>Node17&#45;&gt;Node18</title>
<path fill="none" stroke="midnightblue" d="M214.54,-102.4C211.86,-93.36 208.77,-82.94 206.64,-75.75"/>
<polygon fill="midnightblue" stroke="midnightblue" points="211.21,-103.49 217.41,-112.08 217.92,-101.5 211.21,-103.49"/>
</g>
<!-- Node21&#45;&gt;Node7 -->
<g id="edge24" class="edge">
<title>Node21&#45;&gt;Node7</title>
<path fill="none" stroke="midnightblue" d="M92.23,-49.54C102.93,-39.91 116.3,-27.87 125.23,-19.83"/>
<polygon fill="midnightblue" stroke="midnightblue" points="89.78,-47.03 84.69,-56.32 94.46,-52.24 89.78,-47.03"/>
</g>
<!-- Node24&#45;&gt;Node8 -->
<g id="edge30" class="edge">
<title>Node24&#45;&gt;Node8</title>
<path fill="none" stroke="midnightblue" d="M1126.74,-158.27C1120.26,-133.09 1106.13,-87.81 1082.05,-56 1070.36,-40.55 1052.1,-27.59 1039.2,-19.6"/>
<polygon fill="midnightblue" stroke="midnightblue" points="1123.42,-159.42 1129.19,-168.31 1130.22,-157.76 1123.42,-159.42"/>
</g>
<!-- Node24&#45;&gt;Node25 -->
<g id="edge31" class="edge">
<title>Node24&#45;&gt;Node25</title>
<path fill="none" stroke="midnightblue" d="M1152.08,-162.62C1166.51,-152.76 1185.19,-139.99 1197.39,-131.65"/>
<polygon fill="midnightblue" stroke="midnightblue" points="1150.02,-159.79 1143.74,-168.32 1153.97,-165.57 1150.02,-159.79"/>
</g>
</g>
</svg>
