<?xml version="1.0" encoding="UTF-8" standalone="no"?>
<!DOCTYPE svg PUBLIC "-//W3C//DTD SVG 1.1//EN"
 "http://www.w3.org/Graphics/SVG/1.1/DTD/svg11.dtd">
<!-- Generated by graphviz version 2.43.0 (0)
 -->
<!-- Title: OMSimDecaysAnalysis.cc Pages: 1 -->
<svg width="975pt" height="207pt"
 viewBox="0.00 0.00 974.50 207.00" xmlns="http://www.w3.org/2000/svg" xmlns:xlink="http://www.w3.org/1999/xlink">
<g id="graph0" class="graph" transform="scale(1 1) rotate(0) translate(4 203)">
<title>OMSimDecaysAnalysis.cc</title>
<polygon fill="white" stroke="transparent" points="-4,4 -4,-203 970.5,-203 970.5,4 -4,4"/>
<!-- Node1 -->
<g id="node1" class="node">
<title>Node1</title>
<g id="a_node1"><a xlink:title=" ">
<polygon fill="#bfbfbf" stroke="black" points="595,-179.5 595,-198.5 738,-198.5 738,-179.5 595,-179.5"/>
<text text-anchor="middle" x="666.5" y="-186.5" font-family="Helvetica,sans-Serif" font-size="10.00">OMSimDecaysAnalysis.cc</text>
</a>
</g>
</g>
<!-- Node2 -->
<g id="node2" class="node">
<title>Node2</title>
<g id="a_node2"><a xlink:href="_o_m_sim_decays_analysis_8hh.html" target="_top" xlink:title="Defines the OMSimDecaysAnalysis class and DecayStats struct for the radioactive decays simulation.">
<polygon fill="white" stroke="black" points="422.5,-123.5 422.5,-142.5 566.5,-142.5 566.5,-123.5 422.5,-123.5"/>
<text text-anchor="middle" x="494.5" y="-130.5" font-family="Helvetica,sans-Serif" font-size="10.00">OMSimDecaysAnalysis.hh</text>
</a>
</g>
</g>
<!-- Node1&#45;&gt;Node2 -->
<g id="edge1" class="edge">
<title>Node1&#45;&gt;Node2</title>
<path fill="none" stroke="midnightblue" d="M639.25,-179.44C610.06,-170.28 563.58,-155.69 531.19,-145.52"/>
<polygon fill="midnightblue" stroke="midnightblue" points="532.22,-142.17 521.63,-142.52 530.12,-148.85 532.22,-142.17"/>
</g>
<!-- Node5 -->
<g id="node5" class="node">
<title>Node5</title>
<g id="a_node5"><a xlink:href="_o_m_sim_command_args_table_8hh.html" target="_top" xlink:title="Definition of the OMSimCommandArgsTable singleton class, which controls user args.">
<polygon fill="white" stroke="black" points="584.5,-123.5 584.5,-142.5 748.5,-142.5 748.5,-123.5 584.5,-123.5"/>
<text text-anchor="middle" x="666.5" y="-130.5" font-family="Helvetica,sans-Serif" font-size="10.00">OMSimCommandArgsTable.hh</text>
</a>
</g>
</g>
<!-- Node1&#45;&gt;Node5 -->
<g id="edge4" class="edge">
<title>Node1&#45;&gt;Node5</title>
<path fill="none" stroke="midnightblue" d="M666.5,-179.08C666.5,-172.01 666.5,-161.86 666.5,-152.99"/>
<polygon fill="midnightblue" stroke="midnightblue" points="670,-152.75 666.5,-142.75 663,-152.75 670,-152.75"/>
</g>
<!-- Node13 -->
<g id="node13" class="node">
<title>Node13</title>
<g id="a_node13"><a xlink:title=" ">
<polygon fill="white" stroke="#bfbfbf" points="767,-123.5 767,-142.5 892,-142.5 892,-123.5 767,-123.5"/>
<text text-anchor="middle" x="829.5" y="-130.5" font-family="Helvetica,sans-Serif" font-size="10.00">OMSimEventAction.hh</text>
</a>
</g>
</g>
<!-- Node1&#45;&gt;Node13 -->
<g id="edge13" class="edge">
<title>Node1&#45;&gt;Node13</title>
<path fill="none" stroke="midnightblue" d="M692.33,-179.44C719.75,-170.36 763.28,-155.94 793.93,-145.78"/>
<polygon fill="midnightblue" stroke="midnightblue" points="795.4,-148.98 803.79,-142.52 793.2,-142.34 795.4,-148.98"/>
</g>
<!-- Node14 -->
<g id="node14" class="node">
<title>Node14</title>
<g id="a_node14"><a xlink:href="_o_m_sim_hit_manager_8hh.html" target="_top" xlink:title="Defines structures and classes related to optical module photon hit management.">
<polygon fill="white" stroke="black" points="281,-123.5 281,-142.5 404,-142.5 404,-123.5 281,-123.5"/>
<text text-anchor="middle" x="342.5" y="-130.5" font-family="Helvetica,sans-Serif" font-size="10.00">OMSimHitManager.hh</text>
</a>
</g>
</g>
<!-- Node1&#45;&gt;Node14 -->
<g id="edge14" class="edge">
<title>Node1&#45;&gt;Node14</title>
<path fill="none" stroke="midnightblue" d="M615.16,-179.44C557.69,-169.87 464.63,-154.36 403.5,-144.17"/>
<polygon fill="midnightblue" stroke="midnightblue" points="404.04,-140.71 393.6,-142.52 402.89,-147.61 404.04,-140.71"/>
</g>
<!-- Node21 -->
<g id="node21" class="node">
<title>Node21</title>
<g id="a_node21"><a xlink:title=" ">
<polygon fill="white" stroke="#bfbfbf" points="910.5,-123.5 910.5,-142.5 966.5,-142.5 966.5,-123.5 910.5,-123.5"/>
<text text-anchor="middle" x="938.5" y="-130.5" font-family="Helvetica,sans-Serif" font-size="10.00">numeric</text>
</a>
</g>
</g>
<!-- Node1&#45;&gt;Node21 -->
<g id="edge23" class="edge">
<title>Node1&#45;&gt;Node21</title>
<path fill="none" stroke="midnightblue" d="M714.8,-179.47C760.27,-171.28 830.5,-158.22 900.39,-143.16"/>
<polygon fill="midnightblue" stroke="midnightblue" points="901.22,-146.56 910.25,-141.02 899.74,-139.72 901.22,-146.56"/>
</g>
<!-- Node3 -->
<g id="node3" class="node">
<title>Node3</title>
<g id="a_node3"><a xlink:title=" ">
<polygon fill="white" stroke="#bfbfbf" points="339,-67.5 339,-86.5 442,-86.5 442,-67.5 339,-67.5"/>
<text text-anchor="middle" x="390.5" y="-74.5" font-family="Helvetica,sans-Serif" font-size="10.00">G4ThreeVector.hh</text>
</a>
</g>
</g>
<!-- Node2&#45;&gt;Node3 -->
<g id="edge2" class="edge">
<title>Node2&#45;&gt;Node3</title>
<path fill="none" stroke="midnightblue" d="M477.79,-123.32C461.19,-114.7 435.5,-101.36 416.28,-91.39"/>
<polygon fill="midnightblue" stroke="midnightblue" points="417.66,-88.16 407.17,-86.65 414.43,-94.37 417.66,-88.16"/>
</g>
<!-- Node4 -->
<g id="node4" class="node">
<title>Node4</title>
<g id="a_node4"><a xlink:title=" ">
<polygon fill="white" stroke="#bfbfbf" points="467,-67.5 467,-86.5 522,-86.5 522,-67.5 467,-67.5"/>
<text text-anchor="middle" x="494.5" y="-74.5" font-family="Helvetica,sans-Serif" font-size="10.00">fstream</text>
</a>
</g>
</g>
<!-- Node2&#45;&gt;Node4 -->
<g id="edge3" class="edge">
<title>Node2&#45;&gt;Node4</title>
<path fill="none" stroke="midnightblue" d="M494.5,-123.08C494.5,-116.01 494.5,-105.86 494.5,-96.99"/>
<polygon fill="midnightblue" stroke="midnightblue" points="498,-96.75 494.5,-86.75 491,-96.75 498,-96.75"/>
</g>
<!-- Node5&#45;&gt;Node4 -->
<g id="edge10" class="edge">
<title>Node5&#45;&gt;Node4</title>
<path fill="none" stroke="midnightblue" d="M639.25,-123.44C610.06,-114.28 563.58,-99.69 531.19,-89.52"/>
<polygon fill="midnightblue" stroke="midnightblue" points="532.22,-86.17 521.63,-86.52 530.12,-92.85 532.22,-86.17"/>
</g>
<!-- Node6 -->
<g id="node6" class="node">
<title>Node6</title>
<g id="a_node6"><a xlink:href="_o_m_sim_logger_8hh.html" target="_top" xlink:title=" ">
<polygon fill="white" stroke="black" points="548,-67.5 548,-86.5 647,-86.5 647,-67.5 548,-67.5"/>
<text text-anchor="middle" x="597.5" y="-74.5" font-family="Helvetica,sans-Serif" font-size="10.00">OMSimLogger.hh</text>
</a>
</g>
</g>
<!-- Node5&#45;&gt;Node6 -->
<g id="edge5" class="edge">
<title>Node5&#45;&gt;Node6</title>
<path fill="none" stroke="midnightblue" d="M655.41,-123.32C645.01,-115.18 629.24,-102.84 616.78,-93.09"/>
<polygon fill="midnightblue" stroke="midnightblue" points="618.82,-90.24 608.79,-86.83 614.51,-95.75 618.82,-90.24"/>
</g>
<!-- Node11 -->
<g id="node11" class="node">
<title>Node11</title>
<g id="a_node11"><a xlink:title=" ">
<polygon fill="white" stroke="#bfbfbf" points="665.5,-67.5 665.5,-86.5 749.5,-86.5 749.5,-67.5 665.5,-67.5"/>
<text text-anchor="middle" x="707.5" y="-74.5" font-family="Helvetica,sans-Serif" font-size="10.00">boost/any.hpp</text>
</a>
</g>
</g>
<!-- Node5&#45;&gt;Node11 -->
<g id="edge11" class="edge">
<title>Node5&#45;&gt;Node11</title>
<path fill="none" stroke="midnightblue" d="M673.27,-123.08C679.06,-115.46 687.56,-104.26 694.64,-94.94"/>
<polygon fill="midnightblue" stroke="midnightblue" points="697.6,-96.83 700.86,-86.75 692.02,-92.6 697.6,-96.83"/>
</g>
<!-- Node12 -->
<g id="node12" class="node">
<title>Node12</title>
<g id="a_node12"><a xlink:title=" ">
<polygon fill="white" stroke="#bfbfbf" points="767.5,-67.5 767.5,-86.5 835.5,-86.5 835.5,-67.5 767.5,-67.5"/>
<text text-anchor="middle" x="801.5" y="-74.5" font-family="Helvetica,sans-Serif" font-size="10.00">sys/time.h</text>
</a>
</g>
</g>
<!-- Node5&#45;&gt;Node12 -->
<g id="edge12" class="edge">
<title>Node5&#45;&gt;Node12</title>
<path fill="none" stroke="midnightblue" d="M687.89,-123.44C710.21,-114.52 745.4,-100.44 770.71,-90.32"/>
<polygon fill="midnightblue" stroke="midnightblue" points="772.22,-93.48 780.21,-86.52 769.62,-86.98 772.22,-93.48"/>
</g>
<!-- Node7 -->
<g id="node7" class="node">
<title>Node7</title>
<g id="a_node7"><a xlink:title=" ">
<polygon fill="white" stroke="#bfbfbf" points="551,-6 551,-25 644,-25 644,-6 551,-6"/>
<text text-anchor="middle" x="597.5" y="-13" font-family="Helvetica,sans-Serif" font-size="10.00">spdlog/spdlog.h</text>
</a>
</g>
</g>
<!-- Node6&#45;&gt;Node7 -->
<g id="edge6" class="edge">
<title>Node6&#45;&gt;Node7</title>
<path fill="none" stroke="midnightblue" d="M597.5,-67.48C597.5,-59.08 597.5,-45.98 597.5,-35.16"/>
<polygon fill="midnightblue" stroke="midnightblue" points="601,-35.01 597.5,-25.01 594,-35.01 601,-35.01"/>
</g>
<!-- Node8 -->
<g id="node8" class="node">
<title>Node8</title>
<g id="a_node8"><a xlink:title=" ">
<polygon fill="white" stroke="#bfbfbf" points="662,-0.5 662,-30.5 773,-30.5 773,-0.5 662,-0.5"/>
<text text-anchor="start" x="670" y="-18.5" font-family="Helvetica,sans-Serif" font-size="10.00">spdlog/sinks/stdout</text>
<text text-anchor="middle" x="717.5" y="-7.5" font-family="Helvetica,sans-Serif" font-size="10.00">_color_sinks.h</text>
</a>
</g>
</g>
<!-- Node6&#45;&gt;Node8 -->
<g id="edge7" class="edge">
<title>Node6&#45;&gt;Node8</title>
<path fill="none" stroke="midnightblue" d="M614.69,-67.48C631.7,-59.04 658.3,-45.86 680.17,-35.01"/>
<polygon fill="midnightblue" stroke="midnightblue" points="681.81,-38.1 689.22,-30.52 678.7,-31.83 681.81,-38.1"/>
</g>
<!-- Node9 -->
<g id="node9" class="node">
<title>Node9</title>
<g id="a_node9"><a xlink:title=" ">
<polygon fill="white" stroke="#bfbfbf" points="791.5,-6 791.5,-25 849.5,-25 849.5,-6 791.5,-6"/>
<text text-anchor="middle" x="820.5" y="-13" font-family="Helvetica,sans-Serif" font-size="10.00">memory</text>
</a>
</g>
</g>
<!-- Node6&#45;&gt;Node9 -->
<g id="edge8" class="edge">
<title>Node6&#45;&gt;Node9</title>
<path fill="none" stroke="midnightblue" d="M639.05,-67.46C676.82,-59.33 733.89,-46.12 782.5,-31 784.92,-30.25 787.41,-29.42 789.89,-28.56"/>
<polygon fill="midnightblue" stroke="midnightblue" points="791.16,-31.82 799.36,-25.11 788.77,-25.24 791.16,-31.82"/>
</g>
<!-- Node10 -->
<g id="node10" class="node">
<title>Node10</title>
<g id="a_node10"><a xlink:title=" ">
<polygon fill="white" stroke="#bfbfbf" points="434.5,-6 434.5,-25 532.5,-25 532.5,-6 434.5,-6"/>
<text text-anchor="middle" x="483.5" y="-13" font-family="Helvetica,sans-Serif" font-size="10.00">spdlog/fmt/fmt.h</text>
</a>
</g>
</g>
<!-- Node6&#45;&gt;Node10 -->
<g id="edge9" class="edge">
<title>Node6&#45;&gt;Node10</title>
<path fill="none" stroke="midnightblue" d="M581.17,-67.48C562.29,-57.62 530.99,-41.29 508.92,-29.77"/>
<polygon fill="midnightblue" stroke="midnightblue" points="510.29,-26.53 499.8,-25.01 507.05,-32.74 510.29,-26.53"/>
</g>
<!-- Node14&#45;&gt;Node3 -->
<g id="edge21" class="edge">
<title>Node14&#45;&gt;Node3</title>
<path fill="none" stroke="midnightblue" d="M350.43,-123.08C357.35,-115.3 367.57,-103.8 375.95,-94.37"/>
<polygon fill="midnightblue" stroke="midnightblue" points="378.69,-96.55 382.72,-86.75 373.46,-91.9 378.69,-96.55"/>
</g>
<!-- Node14&#45;&gt;Node4 -->
<g id="edge22" class="edge">
<title>Node14&#45;&gt;Node4</title>
<path fill="none" stroke="midnightblue" d="M366.58,-123.44C392.04,-114.4 432.39,-100.06 460.96,-89.92"/>
<polygon fill="midnightblue" stroke="midnightblue" points="462.28,-93.16 470.53,-86.52 459.93,-86.57 462.28,-93.16"/>
</g>
<!-- Node15 -->
<g id="node15" class="node">
<title>Node15</title>
<g id="a_node15"><a xlink:href="_o_m_sim_p_m_t_response_8hh.html" target="_top" xlink:title="Provides simulation for PMT response. This class is responsible for transforming hits on photocathode...">
<polygon fill="white" stroke="black" points="171,-67.5 171,-86.5 306,-86.5 306,-67.5 171,-67.5"/>
<text text-anchor="middle" x="238.5" y="-74.5" font-family="Helvetica,sans-Serif" font-size="10.00">OMSimPMTResponse.hh</text>
</a>
</g>
</g>
<!-- Node14&#45;&gt;Node15 -->
<g id="edge15" class="edge">
<title>Node14&#45;&gt;Node15</title>
<path fill="none" stroke="midnightblue" d="M325.79,-123.32C309.19,-114.7 283.5,-101.36 264.28,-91.39"/>
<polygon fill="midnightblue" stroke="midnightblue" points="265.66,-88.16 255.17,-86.65 262.43,-94.37 265.66,-88.16"/>
</g>
<!-- Node16 -->
<g id="node16" class="node">
<title>Node16</title>
<g id="a_node16"><a xlink:title=" ">
<polygon fill="white" stroke="#bfbfbf" points="150,-6 150,-25 269,-25 269,-6 150,-6"/>
<text text-anchor="middle" x="209.5" y="-13" font-family="Helvetica,sans-Serif" font-size="10.00">G4SystemOfUnits.hh</text>
</a>
</g>
</g>
<!-- Node15&#45;&gt;Node16 -->
<g id="edge16" class="edge">
<title>Node15&#45;&gt;Node16</title>
<path fill="none" stroke="midnightblue" d="M234.35,-67.48C230.12,-58.82 223.46,-45.15 218.1,-34.15"/>
<polygon fill="midnightblue" stroke="midnightblue" points="221.17,-32.46 213.65,-25.01 214.88,-35.53 221.17,-32.46"/>
</g>
<!-- Node17 -->
<g id="node17" class="node">
<title>Node17</title>
<g id="a_node17"><a xlink:title=" ">
<polygon fill="white" stroke="#bfbfbf" points="287,-6 287,-25 360,-25 360,-6 287,-6"/>
<text text-anchor="middle" x="323.5" y="-13" font-family="Helvetica,sans-Serif" font-size="10.00">G4Types.hh</text>
</a>
</g>
</g>
<!-- Node15&#45;&gt;Node17 -->
<g id="edge17" class="edge">
<title>Node15&#45;&gt;Node17</title>
<path fill="none" stroke="midnightblue" d="M250.68,-67.48C264.31,-57.93 286.63,-42.31 302.97,-30.87"/>
<polygon fill="midnightblue" stroke="midnightblue" points="305.16,-33.61 311.34,-25.01 301.14,-27.88 305.16,-33.61"/>
</g>
<!-- Node18 -->
<g id="node18" class="node">
<title>Node18</title>
<g id="a_node18"><a xlink:title=" ">
<polygon fill="white" stroke="#bfbfbf" points="378.5,-6 378.5,-25 416.5,-25 416.5,-6 378.5,-6"/>
<text text-anchor="middle" x="397.5" y="-13" font-family="Helvetica,sans-Serif" font-size="10.00">map</text>
</a>
</g>
</g>
<!-- Node15&#45;&gt;Node18 -->
<g id="edge18" class="edge">
<title>Node15&#45;&gt;Node18</title>
<path fill="none" stroke="midnightblue" d="M266.54,-67.46C293.14,-59.09 334.05,-45.5 368.5,-31 369.7,-30.5 370.91,-29.97 372.14,-29.42"/>
<polygon fill="midnightblue" stroke="midnightblue" points="373.89,-32.46 381.42,-25.01 370.88,-26.14 373.89,-32.46"/>
</g>
<!-- Node19 -->
<g id="node19" class="node">
<title>Node19</title>
<g id="a_node19"><a xlink:title=" ">
<polygon fill="white" stroke="#bfbfbf" points="0,-6 0,-25 61,-25 61,-6 0,-6"/>
<text text-anchor="middle" x="30.5" y="-13" font-family="Helvetica,sans-Serif" font-size="10.00">TGraph.h</text>
</a>
</g>
</g>
<!-- Node15&#45;&gt;Node19 -->
<g id="edge19" class="edge">
<title>Node15&#45;&gt;Node19</title>
<path fill="none" stroke="midnightblue" d="M202.28,-67.42C167.86,-59.02 114.78,-45.41 69.5,-31 66.94,-30.19 64.31,-29.3 61.67,-28.39"/>
<polygon fill="midnightblue" stroke="midnightblue" points="62.83,-25.09 52.24,-25 60.46,-31.68 62.83,-25.09"/>
</g>
<!-- Node20 -->
<g id="node20" class="node">
<title>Node20</title>
<g id="a_node20"><a xlink:title=" ">
<polygon fill="white" stroke="#bfbfbf" points="79,-6 79,-25 132,-25 132,-6 79,-6"/>
<text text-anchor="middle" x="105.5" y="-13" font-family="Helvetica,sans-Serif" font-size="10.00">TH2D.h</text>
</a>
</g>
</g>
<!-- Node15&#45;&gt;Node20 -->
<g id="edge20" class="edge">
<title>Node15&#45;&gt;Node20</title>
<path fill="none" stroke="midnightblue" d="M219.44,-67.48C197.03,-57.45 159.59,-40.7 133.79,-29.15"/>
<polygon fill="midnightblue" stroke="midnightblue" points="135.08,-25.9 124.52,-25.01 132.22,-32.29 135.08,-25.9"/>
</g>
</g>
</svg>
