<?xml version="1.0" encoding="UTF-8" standalone="no"?>
<!DOCTYPE svg PUBLIC "-//W3C//DTD SVG 1.1//EN"
 "http://www.w3.org/Graphics/SVG/1.1/DTD/svg11.dtd">
<!-- Generated by graphviz version 2.43.0 (0)
 -->
<!-- Title: OMSim_radioactive_decays.cc Pages: 1 -->
<svg width="2363pt" height="487pt"
 viewBox="0.00 0.00 2362.50 487.00" xmlns="http://www.w3.org/2000/svg" xmlns:xlink="http://www.w3.org/1999/xlink">
<g id="graph0" class="graph" transform="scale(1 1) rotate(0) translate(4 483)">
<title>OMSim_radioactive_decays.cc</title>
<!-- Node1 -->
<g id="node1" class="node">
<title>Node1</title>
<g id="a_node1"><a xlink:title="Main of the radioactive decay study.">
<polygon fill="#bfbfbf" stroke="black" points="793.5,-459.5 793.5,-478.5 958.5,-478.5 958.5,-459.5 793.5,-459.5"/>
<text text-anchor="middle" x="876" y="-466.5" font-family="Helvetica,sans-Serif" font-size="10.00">OMSim_radioactive_decays.cc</text>
</a>
</g>
</g>
<!-- Node2 -->
<g id="node2" class="node">
<title>Node2</title>
<g id="a_node2"><a xlink:href="_o_m_sim_8hh.html" target="_top" xlink:title="Main simulation class for the Optical Module (OM) simulation. This file defines the OMSim class,...">
<polygon fill="none" stroke="black" points="1472.5,-403.5 1472.5,-422.5 1539.5,-422.5 1539.5,-403.5 1472.5,-403.5"/>
<text text-anchor="middle" x="1506" y="-410.5" font-family="Helvetica,sans-Serif" font-size="10.00">OMSim.hh</text>
</a>
</g>
</g>
<!-- Node1&#45;&gt;Node2 -->
<g id="edge1" class="edge">
<title>Node1&#45;&gt;Node2</title>
<path fill="none" stroke="midnightblue" d="M958.69,-460.91C1093.92,-449.32 1357.77,-426.71 1462.06,-417.77"/>
<polygon fill="midnightblue" stroke="midnightblue" points="1462.57,-421.24 1472.23,-416.89 1461.97,-414.26 1462.57,-421.24"/>
</g>
<!-- Node26 -->
<g id="node16" class="node">
<title>Node26</title>
<g id="a_node16"><a xlink:href="_o_m_sim_hit_manager_8hh.html" target="_top" xlink:title="Defines structures and classes related to optical module photon hit management.">
<polygon fill="none" stroke="black" points="814.5,-235.5 814.5,-254.5 937.5,-254.5 937.5,-235.5 814.5,-235.5"/>
<text text-anchor="middle" x="876" y="-242.5" font-family="Helvetica,sans-Serif" font-size="10.00">OMSimHitManager.hh</text>
</a>
</g>
</g>
<!-- Node1&#45;&gt;Node26 -->
<g id="edge58" class="edge">
<title>Node1&#45;&gt;Node26</title>
<path fill="none" stroke="midnightblue" d="M876,-459.3C876,-426.63 876,-310.87 876,-264.96"/>
<polygon fill="midnightblue" stroke="midnightblue" points="879.5,-264.88 876,-254.88 872.5,-264.88 879.5,-264.88"/>
</g>
<!-- Node59 -->
<g id="node47" class="node">
<title>Node59</title>
<g id="a_node47"><a xlink:href="_o_m_sim_decays_g_p_s_8hh.html" target="_top" xlink:title="Defines the OMSimDecaysGPS class for the radioactive decays simulation.">
<polygon fill="none" stroke="black" points="307,-403.5 307,-422.5 429,-422.5 429,-403.5 307,-403.5"/>
<text text-anchor="middle" x="368" y="-410.5" font-family="Helvetica,sans-Serif" font-size="10.00">OMSimDecaysGPS.hh</text>
</a>
</g>
</g>
<!-- Node1&#45;&gt;Node59 -->
<g id="edge55" class="edge">
<title>Node1&#45;&gt;Node59</title>
<path fill="none" stroke="midnightblue" d="M795.79,-459.47C697.59,-449.04 532.83,-431.52 439.02,-421.55"/>
<polygon fill="midnightblue" stroke="midnightblue" points="439.37,-418.07 429.06,-420.49 438.63,-425.03 439.37,-418.07"/>
</g>
<!-- Node61 -->
<g id="node49" class="node">
<title>Node61</title>
<g id="a_node49"><a xlink:href="_o_m_sim_decays_analysis_8hh.html" target="_top" xlink:title="Defines the OMSimDecaysAnalysis class and DecayStats struct for the radioactive decays simulation.">
<polygon fill="none" stroke="black" points="956,-235.5 956,-254.5 1100,-254.5 1100,-235.5 956,-235.5"/>
<text text-anchor="middle" x="1028" y="-242.5" font-family="Helvetica,sans-Serif" font-size="10.00">OMSimDecaysAnalysis.hh</text>
</a>
</g>
</g>
<!-- Node1&#45;&gt;Node61 -->
<g id="edge59" class="edge">
<title>Node1&#45;&gt;Node61</title>
<path fill="none" stroke="midnightblue" d="M879.02,-459.3C886.38,-438.7 906.61,-385.78 933,-347 955.85,-313.42 989.86,-280.22 1010.38,-261.5"/>
<polygon fill="midnightblue" stroke="midnightblue" points="1012.94,-263.91 1018.03,-254.62 1008.26,-258.7 1012.94,-263.91"/>
</g>
<!-- Node62 -->
<g id="node50" class="node">
<title>Node62</title>
<g id="a_node50"><a xlink:href="_o_m_sim_rad_decays_detector_8hh.html" target="_top" xlink:title="Defines the OMSimRadDecaysDetector class for the radioactive decays simulation.">
<polygon fill="none" stroke="black" points="519.5,-403.5 519.5,-422.5 682.5,-422.5 682.5,-403.5 519.5,-403.5"/>
<text text-anchor="middle" x="601" y="-410.5" font-family="Helvetica,sans-Serif" font-size="10.00">OMSimRadDecaysDetector.hh</text>
</a>
</g>
</g>
<!-- Node1&#45;&gt;Node62 -->
<g id="edge63" class="edge">
<title>Node1&#45;&gt;Node62</title>
<path fill="none" stroke="midnightblue" d="M832.43,-459.44C784.15,-449.96 706.29,-434.67 654.39,-424.48"/>
<polygon fill="midnightblue" stroke="midnightblue" points="654.86,-421.01 644.37,-422.52 653.51,-427.88 654.86,-421.01"/>
</g>
<!-- Node3 -->
<g id="node3" class="node">
<title>Node3</title>
<g id="a_node3"><a xlink:href="_o_m_sim_detector_construction_8hh_source.html" target="_top" xlink:title=" ">
<polygon fill="none" stroke="black" points="629,-347.5 629,-366.5 799,-366.5 799,-347.5 629,-347.5"/>
<text text-anchor="middle" x="714" y="-354.5" font-family="Helvetica,sans-Serif" font-size="10.00">OMSimDetectorConstruction.hh</text>
</a>
</g>
</g>
<!-- Node2&#45;&gt;Node3 -->
<g id="edge2" class="edge">
<title>Node2&#45;&gt;Node3</title>
<path fill="none" stroke="midnightblue" d="M1472.47,-409.71C1358.97,-401.98 986.38,-376.57 809.21,-364.49"/>
<polygon fill="midnightblue" stroke="midnightblue" points="809.34,-360.99 799.12,-363.8 808.86,-367.98 809.34,-360.99"/>
</g>
<!-- Node39 -->
<g id="node29" class="node">
<title>Node39</title>
<g id="a_node29"><a xlink:title=" ">
<polygon fill="none" stroke="#bfbfbf" points="1572.5,-347.5 1572.5,-366.5 1693.5,-366.5 1693.5,-347.5 1572.5,-347.5"/>
<text text-anchor="middle" x="1633" y="-354.5" font-family="Helvetica,sans-Serif" font-size="10.00">OMSimPhysicsList.hh</text>
</a>
</g>
</g>
<!-- Node2&#45;&gt;Node39 -->
<g id="edge32" class="edge">
<title>Node2&#45;&gt;Node39</title>
<path fill="none" stroke="midnightblue" d="M1526.12,-403.44C1547.02,-394.56 1579.93,-380.56 1603.72,-370.45"/>
<polygon fill="midnightblue" stroke="midnightblue" points="1605.14,-373.65 1612.97,-366.52 1602.4,-367.21 1605.14,-373.65"/>
</g>
<!-- Node40 -->
<g id="node30" class="node">
<title>Node40</title>
<g id="a_node30"><a xlink:title=" ">
<polygon fill="none" stroke="#bfbfbf" points="1711.5,-347.5 1711.5,-366.5 1896.5,-366.5 1896.5,-347.5 1711.5,-347.5"/>
<text text-anchor="middle" x="1804" y="-354.5" font-family="Helvetica,sans-Serif" font-size="10.00">OMSimPrimaryGeneratorAction.hh</text>
</a>
</g>
</g>
<!-- Node2&#45;&gt;Node40 -->
<g id="edge33" class="edge">
<title>Node2&#45;&gt;Node40</title>
<path fill="none" stroke="midnightblue" d="M1539.61,-405.91C1590,-396.78 1685.77,-379.42 1747.16,-368.3"/>
<polygon fill="midnightblue" stroke="midnightblue" points="1747.87,-371.73 1757.08,-366.5 1746.62,-364.84 1747.87,-371.73"/>
</g>
<!-- Node41 -->
<g id="node31" class="node">
<title>Node41</title>
<g id="a_node31"><a xlink:href="_o_m_sim_run_action_8hh_source.html" target="_top" xlink:title=" ">
<polygon fill="none" stroke="black" points="1468,-291.5 1468,-310.5 1584,-310.5 1584,-291.5 1468,-291.5"/>
<text text-anchor="middle" x="1526" y="-298.5" font-family="Helvetica,sans-Serif" font-size="10.00">OMSimRunAction.hh</text>
</a>
</g>
</g>
<!-- Node2&#45;&gt;Node41 -->
<g id="edge34" class="edge">
<title>Node2&#45;&gt;Node41</title>
<path fill="none" stroke="midnightblue" d="M1509.35,-403.18C1512.61,-394.21 1517.44,-379.84 1520,-367 1523.05,-351.7 1524.56,-334.06 1525.3,-321.02"/>
<polygon fill="midnightblue" stroke="midnightblue" points="1528.8,-321.07 1525.77,-310.92 1521.8,-320.74 1528.8,-321.07"/>
</g>
<!-- Node45 -->
<g id="node35" class="node">
<title>Node45</title>
<g id="a_node35"><a xlink:title=" ">
<polygon fill="none" stroke="#bfbfbf" points="1914.5,-347.5 1914.5,-366.5 2039.5,-366.5 2039.5,-347.5 1914.5,-347.5"/>
<text text-anchor="middle" x="1977" y="-354.5" font-family="Helvetica,sans-Serif" font-size="10.00">OMSimEventAction.hh</text>
</a>
</g>
</g>
<!-- Node2&#45;&gt;Node45 -->
<g id="edge40" class="edge">
<title>Node2&#45;&gt;Node45</title>
<path fill="none" stroke="midnightblue" d="M1539.65,-408.34C1606.73,-401.02 1762.16,-383.92 1903.99,-367.11"/>
<polygon fill="midnightblue" stroke="midnightblue" points="1904.66,-370.55 1914.18,-365.9 1903.83,-363.6 1904.66,-370.55"/>
</g>
<!-- Node46 -->
<g id="node36" class="node">
<title>Node46</title>
<g id="a_node36"><a xlink:href="_o_m_sim_tracking_action_8hh_source.html" target="_top" xlink:title=" ">
<polygon fill="none" stroke="black" points="2058,-347.5 2058,-366.5 2196,-366.5 2196,-347.5 2058,-347.5"/>
<text text-anchor="middle" x="2127" y="-354.5" font-family="Helvetica,sans-Serif" font-size="10.00">OMSimTrackingAction.hh</text>
</a>
</g>
</g>
<!-- Node2&#45;&gt;Node46 -->
<g id="edge41" class="edge">
<title>Node2&#45;&gt;Node46</title>
<path fill="none" stroke="midnightblue" d="M1539.65,-409.57C1623.41,-403.43 1848.21,-386.49 2047.58,-367.01"/>
<polygon fill="midnightblue" stroke="midnightblue" points="2048.04,-370.48 2057.65,-366.02 2047.36,-363.52 2048.04,-370.48"/>
</g>
<!-- Node48 -->
<g id="node38" class="node">
<title>Node48</title>
<g id="a_node38"><a xlink:href="_o_m_sim_stepping_action_8hh.html" target="_top" xlink:title="Defines OMSimSteppingAction.Currently it only checks for trapped photons.">
<polygon fill="none" stroke="black" points="2214,-347.5 2214,-366.5 2354,-366.5 2354,-347.5 2214,-347.5"/>
<text text-anchor="middle" x="2284" y="-354.5" font-family="Helvetica,sans-Serif" font-size="10.00">OMSimSteppingAction.hh</text>
</a>
</g>
</g>
<!-- Node2&#45;&gt;Node48 -->
<g id="edge43" class="edge">
<title>Node2&#45;&gt;Node48</title>
<path fill="none" stroke="midnightblue" d="M1539.51,-410.43C1639.01,-405.64 1941.61,-390.17 2203.72,-367.07"/>
<polygon fill="midnightblue" stroke="midnightblue" points="2204.16,-370.55 2213.81,-366.18 2203.54,-363.57 2204.16,-370.55"/>
</g>
<!-- Node50 -->
<g id="node40" class="node">
<title>Node50</title>
<g id="a_node40"><a xlink:href="_o_m_sim_u_iinterface_8hh.html" target="_top" xlink:title=" ">
<polygon fill="none" stroke="black" points="1288.5,-291.5 1288.5,-310.5 1409.5,-310.5 1409.5,-291.5 1288.5,-291.5"/>
<text text-anchor="middle" x="1349" y="-298.5" font-family="Helvetica,sans-Serif" font-size="10.00">OMSimUIinterface.hh</text>
</a>
</g>
</g>
<!-- Node2&#45;&gt;Node50 -->
<g id="edge45" class="edge">
<title>Node2&#45;&gt;Node50</title>
<path fill="none" stroke="midnightblue" d="M1505.91,-403.15C1505.29,-389.32 1502.06,-362.53 1487,-347 1469.19,-328.63 1443.81,-317.76 1419.66,-311.32"/>
<polygon fill="midnightblue" stroke="midnightblue" points="1420.31,-307.88 1409.77,-308.9 1418.65,-314.68 1420.31,-307.88"/>
</g>
<!-- Node55 -->
<g id="node43" class="node">
<title>Node55</title>
<g id="a_node43"><a xlink:title=" ">
<polygon fill="none" stroke="#bfbfbf" points="942.5,-347.5 942.5,-366.5 1063.5,-366.5 1063.5,-347.5 942.5,-347.5"/>
<text text-anchor="middle" x="1003" y="-354.5" font-family="Helvetica,sans-Serif" font-size="10.00">G4MTRunManager.hh</text>
</a>
</g>
</g>
<!-- Node2&#45;&gt;Node55 -->
<g id="edge51" class="edge">
<title>Node2&#45;&gt;Node55</title>
<path fill="none" stroke="midnightblue" d="M1472.48,-408.83C1401.14,-402.01 1228.78,-385.2 1073.76,-367.18"/>
<polygon fill="midnightblue" stroke="midnightblue" points="1073.91,-363.68 1063.57,-365.99 1073.1,-370.63 1073.91,-363.68"/>
</g>
<!-- Node56 -->
<g id="node44" class="node">
<title>Node56</title>
<g id="a_node44"><a xlink:title=" ">
<polygon fill="none" stroke="#bfbfbf" points="1081.5,-347.5 1081.5,-366.5 1188.5,-366.5 1188.5,-347.5 1081.5,-347.5"/>
<text text-anchor="middle" x="1135" y="-354.5" font-family="Helvetica,sans-Serif" font-size="10.00">G4VisExecutive.hh</text>
</a>
</g>
</g>
<!-- Node2&#45;&gt;Node56 -->
<g id="edge52" class="edge">
<title>Node2&#45;&gt;Node56</title>
<path fill="none" stroke="midnightblue" d="M1472.42,-407.11C1410.71,-398.13 1278.33,-378.86 1198.97,-367.31"/>
<polygon fill="midnightblue" stroke="midnightblue" points="1199.01,-363.78 1188.61,-365.8 1198,-370.71 1199.01,-363.78"/>
</g>
<!-- Node57 -->
<g id="node45" class="node">
<title>Node57</title>
<g id="a_node45"><a xlink:title=" ">
<polygon fill="none" stroke="#bfbfbf" points="1206.5,-347.5 1206.5,-366.5 1309.5,-366.5 1309.5,-347.5 1206.5,-347.5"/>
<text text-anchor="middle" x="1258" y="-354.5" font-family="Helvetica,sans-Serif" font-size="10.00">G4UIExecutive.hh</text>
</a>
</g>
</g>
<!-- Node2&#45;&gt;Node57 -->
<g id="edge53" class="edge">
<title>Node2&#45;&gt;Node57</title>
<path fill="none" stroke="midnightblue" d="M1472.3,-404.66C1429.76,-395.4 1356.27,-379.4 1307.4,-368.76"/>
<polygon fill="midnightblue" stroke="midnightblue" points="1307.88,-365.28 1297.36,-366.57 1306.39,-372.12 1307.88,-365.28"/>
</g>
<!-- Node58 -->
<g id="node46" class="node">
<title>Node58</title>
<g id="a_node46"><a xlink:title=" ">
<polygon fill="none" stroke="#bfbfbf" points="1328,-347.5 1328,-366.5 1478,-366.5 1478,-347.5 1328,-347.5"/>
<text text-anchor="middle" x="1403" y="-354.5" font-family="Helvetica,sans-Serif" font-size="10.00">boost/program_options.hpp</text>
</a>
</g>
</g>
<!-- Node2&#45;&gt;Node58 -->
<g id="edge54" class="edge">
<title>Node2&#45;&gt;Node58</title>
<path fill="none" stroke="midnightblue" d="M1489.45,-403.32C1473.01,-394.7 1447.57,-381.36 1428.53,-371.39"/>
<polygon fill="midnightblue" stroke="midnightblue" points="1429.99,-368.2 1419.51,-366.65 1426.74,-374.4 1429.99,-368.2"/>
</g>
<!-- Node4 -->
<g id="node4" class="node">
<title>Node4</title>
<g id="a_node4"><a xlink:href="_o_m_sim_optical_module_8hh_source.html" target="_top" xlink:title=" ">
<polygon fill="none" stroke="black" points="434.5,-291.5 434.5,-310.5 571.5,-310.5 571.5,-291.5 434.5,-291.5"/>
<text text-anchor="middle" x="503" y="-298.5" font-family="Helvetica,sans-Serif" font-size="10.00">OMSimOpticalModule.hh</text>
</a>
</g>
</g>
<!-- Node3&#45;&gt;Node4 -->
<g id="edge3" class="edge">
<title>Node3&#45;&gt;Node4</title>
<path fill="none" stroke="midnightblue" d="M680.57,-347.44C644.14,-338.12 585.77,-323.18 545.97,-313"/>
<polygon fill="midnightblue" stroke="midnightblue" points="546.83,-309.61 536.28,-310.52 545.1,-316.39 546.83,-309.61"/>
</g>
<!-- Node37 -->
<g id="node27" class="node">
<title>Node37</title>
<g id="a_node27"><a xlink:title=" ">
<polygon fill="none" stroke="#bfbfbf" points="590,-291.5 590,-310.5 652,-310.5 652,-291.5 590,-291.5"/>
<text text-anchor="middle" x="621" y="-298.5" font-family="Helvetica,sans-Serif" font-size="10.00">G4Orb.hh</text>
</a>
</g>
</g>
<!-- Node3&#45;&gt;Node37 -->
<g id="edge30" class="edge">
<title>Node3&#45;&gt;Node37</title>
<path fill="none" stroke="midnightblue" d="M699.06,-347.32C684.41,-338.82 661.87,-325.73 644.76,-315.8"/>
<polygon fill="midnightblue" stroke="midnightblue" points="646.31,-312.65 635.9,-310.65 642.8,-318.7 646.31,-312.65"/>
</g>
<!-- Node38 -->
<g id="node28" class="node">
<title>Node38</title>
<g id="a_node28"><a xlink:title=" ">
<polygon fill="none" stroke="#bfbfbf" points="670,-291.5 670,-310.5 848,-310.5 848,-291.5 670,-291.5"/>
<text text-anchor="middle" x="759" y="-298.5" font-family="Helvetica,sans-Serif" font-size="10.00">G4VUserDetectorConstruction.hh</text>
</a>
</g>
</g>
<!-- Node3&#45;&gt;Node38 -->
<g id="edge31" class="edge">
<title>Node3&#45;&gt;Node38</title>
<path fill="none" stroke="midnightblue" d="M721.43,-347.08C727.85,-339.38 737.31,-328.03 745.12,-318.65"/>
<polygon fill="midnightblue" stroke="midnightblue" points="747.99,-320.67 751.71,-310.75 742.62,-316.19 747.99,-320.67"/>
</g>
<!-- Node5 -->
<g id="node5" class="node">
<title>Node5</title>
<g id="a_node5"><a xlink:href="abc_detector_component_8hh.html" target="_top" xlink:title="Provides helper base class abcDetectorComponent for constructing and managing detector components in ...">
<polygon fill="none" stroke="black" points="351.5,-179.5 351.5,-198.5 498.5,-198.5 498.5,-179.5 351.5,-179.5"/>
<text text-anchor="middle" x="425" y="-186.5" font-family="Helvetica,sans-Serif" font-size="10.00">abcDetectorComponent.hh</text>
</a>
</g>
</g>
<!-- Node4&#45;&gt;Node5 -->
<g id="edge4" class="edge">
<title>Node4&#45;&gt;Node5</title>
<path fill="none" stroke="midnightblue" d="M493.89,-291.21C485.13,-282.49 471.81,-268.51 462,-255 451.05,-239.93 440.76,-221.34 433.82,-207.91"/>
<polygon fill="midnightblue" stroke="midnightblue" points="436.85,-206.13 429.21,-198.78 430.6,-209.29 436.85,-206.13"/>
</g>
<!-- Node4&#45;&gt;Node26 -->
<g id="edge15" class="edge">
<title>Node4&#45;&gt;Node26</title>
<path fill="none" stroke="midnightblue" d="M562.1,-291.44C628.67,-281.81 736.72,-266.16 807.08,-255.98"/>
<polygon fill="midnightblue" stroke="midnightblue" points="807.78,-259.41 817.17,-254.52 806.78,-252.49 807.78,-259.41"/>
</g>
<!-- Node34 -->
<g id="node26" class="node">
<title>Node34</title>
<g id="a_node26"><a xlink:href="_o_m_sim_p_m_t_construction_8hh.html" target="_top" xlink:title="Construction of the PMTs.">
<polygon fill="none" stroke="red" points="471.5,-235.5 471.5,-254.5 620.5,-254.5 620.5,-235.5 471.5,-235.5"/>
<text text-anchor="middle" x="546" y="-242.5" font-family="Helvetica,sans-Serif" font-size="10.00">OMSimPMTConstruction.hh</text>
</a>
</g>
</g>
<!-- Node4&#45;&gt;Node34 -->
<g id="edge26" class="edge">
<title>Node4&#45;&gt;Node34</title>
<path fill="none" stroke="midnightblue" d="M510.1,-291.08C516.24,-283.38 525.27,-272.03 532.74,-262.65"/>
<polygon fill="midnightblue" stroke="midnightblue" points="535.54,-264.75 539.03,-254.75 530.06,-260.39 535.54,-264.75"/>
</g>
<!-- Node6 -->
<g id="node6" class="node">
<title>Node6</title>
<g id="a_node6"><a xlink:href="_o_m_sim_input_data_8hh.html" target="_top" xlink:title="Definition of ParameterTable and OMSimInputData.">
<polygon fill="none" stroke="red" points="523.5,-123.5 523.5,-142.5 638.5,-142.5 638.5,-123.5 523.5,-123.5"/>
<text text-anchor="middle" x="581" y="-130.5" font-family="Helvetica,sans-Serif" font-size="10.00">OMSimInputData.hh</text>
</a>
</g>
</g>
<!-- Node5&#45;&gt;Node6 -->
<g id="edge5" class="edge">
<title>Node5&#45;&gt;Node6</title>
<path fill="none" stroke="midnightblue" d="M449.72,-179.44C475.85,-170.4 517.26,-156.06 546.58,-145.92"/>
<polygon fill="midnightblue" stroke="midnightblue" points="548.09,-149.1 556.4,-142.52 545.8,-142.48 548.09,-149.1"/>
</g>
<!-- Node22 -->
<g id="node12" class="node">
<title>Node22</title>
<g id="a_node12"><a xlink:title=" ">
<polygon fill="none" stroke="#bfbfbf" points="398.5,-123.5 398.5,-142.5 505.5,-142.5 505.5,-123.5 398.5,-123.5"/>
<text text-anchor="middle" x="452" y="-130.5" font-family="Helvetica,sans-Serif" font-size="10.00">G4Transform3D.hh</text>
</a>
</g>
</g>
<!-- Node5&#45;&gt;Node22 -->
<g id="edge11" class="edge">
<title>Node5&#45;&gt;Node22</title>
<path fill="none" stroke="midnightblue" d="M429.46,-179.08C433.15,-171.69 438.52,-160.95 443.09,-151.81"/>
<polygon fill="midnightblue" stroke="midnightblue" points="446.28,-153.26 447.62,-142.75 440.02,-150.13 446.28,-153.26"/>
</g>
<!-- Node23 -->
<g id="node13" class="node">
<title>Node23</title>
<g id="a_node13"><a xlink:title=" ">
<polygon fill="none" stroke="#bfbfbf" points="0,-123.5 0,-142.5 108,-142.5 108,-123.5 0,-123.5"/>
<text text-anchor="middle" x="54" y="-130.5" font-family="Helvetica,sans-Serif" font-size="10.00">G4VisAttributes.hh</text>
</a>
</g>
</g>
<!-- Node5&#45;&gt;Node23 -->
<g id="edge12" class="edge">
<title>Node5&#45;&gt;Node23</title>
<path fill="none" stroke="midnightblue" d="M366.21,-179.44C298.64,-169.61 188.09,-153.52 118.28,-143.36"/>
<polygon fill="midnightblue" stroke="midnightblue" points="118.69,-139.88 108.29,-141.9 117.68,-146.81 118.69,-139.88"/>
</g>
<!-- Node24 -->
<g id="node14" class="node">
<title>Node24</title>
<g id="a_node14"><a xlink:title=" ">
<polygon fill="none" stroke="#bfbfbf" points="126.5,-123.5 126.5,-142.5 251.5,-142.5 251.5,-123.5 126.5,-123.5"/>
<text text-anchor="middle" x="189" y="-130.5" font-family="Helvetica,sans-Serif" font-size="10.00">G4SubtractionSolid.hh</text>
</a>
</g>
</g>
<!-- Node5&#45;&gt;Node24 -->
<g id="edge13" class="edge">
<title>Node5&#45;&gt;Node24</title>
<path fill="none" stroke="midnightblue" d="M387.61,-179.44C346.61,-170.06 280.75,-154.99 236.22,-144.8"/>
<polygon fill="midnightblue" stroke="midnightblue" points="236.75,-141.34 226.22,-142.52 235.19,-148.16 236.75,-141.34"/>
</g>
<!-- Node25 -->
<g id="node15" class="node">
<title>Node25</title>
<g id="a_node15"><a xlink:title=" ">
<polygon fill="none" stroke="#bfbfbf" points="270,-123.5 270,-142.5 380,-142.5 380,-123.5 270,-123.5"/>
<text text-anchor="middle" x="325" y="-130.5" font-family="Helvetica,sans-Serif" font-size="10.00">G4PVPlacement.hh</text>
</a>
</g>
</g>
<!-- Node5&#45;&gt;Node25 -->
<g id="edge14" class="edge">
<title>Node5&#45;&gt;Node25</title>
<path fill="none" stroke="midnightblue" d="M408.93,-179.32C393.04,-170.74 368.49,-157.49 350.04,-147.52"/>
<polygon fill="midnightblue" stroke="midnightblue" points="351.49,-144.33 341.03,-142.65 348.16,-150.49 351.49,-144.33"/>
</g>
<!-- Node7 -->
<g id="node7" class="node">
<title>Node7</title>
<g id="a_node7"><a xlink:href="_o_m_sim_logger_8hh_source.html" target="_top" xlink:title=" ">
<polygon fill="none" stroke="red" points="1181.5,-67.5 1181.5,-86.5 1280.5,-86.5 1280.5,-67.5 1181.5,-67.5"/>
<text text-anchor="middle" x="1231" y="-74.5" font-family="Helvetica,sans-Serif" font-size="10.00">OMSimLogger.hh</text>
</a>
</g>
</g>
<!-- Node6&#45;&gt;Node7 -->
<g id="edge6" class="edge">
<title>Node6&#45;&gt;Node7</title>
<path fill="none" stroke="midnightblue" d="M638.76,-127.02C654.12,-125.7 670.69,-124.29 686,-123 862.35,-108.16 1070.84,-91.07 1171.16,-82.88"/>
<polygon fill="midnightblue" stroke="midnightblue" points="1171.72,-86.35 1181.4,-82.04 1171.15,-79.37 1171.72,-86.35"/>
</g>
<!-- Node20 -->
<g id="node11" class="node">
<title>Node20</title>
<g id="a_node11"><a xlink:title=" ">
<polygon fill="none" stroke="#bfbfbf" points="564.5,-67.5 564.5,-86.5 683.5,-86.5 683.5,-67.5 564.5,-67.5"/>
<text text-anchor="middle" x="624" y="-74.5" font-family="Helvetica,sans-Serif" font-size="10.00">G4SystemOfUnits.hh</text>
</a>
</g>
</g>
<!-- Node6&#45;&gt;Node20 -->
<g id="edge10" class="edge">
<title>Node6&#45;&gt;Node20</title>
<path fill="none" stroke="midnightblue" d="M588.1,-123.08C594.24,-115.38 603.27,-104.03 610.74,-94.65"/>
<polygon fill="midnightblue" stroke="midnightblue" points="613.54,-96.75 617.03,-86.75 608.06,-92.39 613.54,-96.75"/>
</g>
<!-- Node8 -->
<g id="node8" class="node">
<title>Node8</title>
<g id="a_node8"><a xlink:title=" ">
<polygon fill="none" stroke="#bfbfbf" points="1064.5,-6 1064.5,-25 1157.5,-25 1157.5,-6 1064.5,-6"/>
<text text-anchor="middle" x="1111" y="-13" font-family="Helvetica,sans-Serif" font-size="10.00">spdlog/spdlog.h</text>
</a>
</g>
</g>
<!-- Node7&#45;&gt;Node8 -->
<g id="edge7" class="edge">
<title>Node7&#45;&gt;Node8</title>
<path fill="none" stroke="midnightblue" d="M1213.81,-67.48C1193.76,-57.53 1160.4,-40.99 1137.14,-29.46"/>
<polygon fill="midnightblue" stroke="midnightblue" points="1138.68,-26.32 1128.16,-25.01 1135.57,-32.59 1138.68,-26.32"/>
</g>
<!-- Node9 -->
<g id="node9" class="node">
<title>Node9</title>
<g id="a_node9"><a xlink:title=" ">
<polygon fill="none" stroke="#bfbfbf" points="1175.5,-0.5 1175.5,-30.5 1286.5,-30.5 1286.5,-0.5 1175.5,-0.5"/>
<text text-anchor="start" x="1183.5" y="-18.5" font-family="Helvetica,sans-Serif" font-size="10.00">spdlog/sinks/stdout</text>
<text text-anchor="middle" x="1231" y="-7.5" font-family="Helvetica,sans-Serif" font-size="10.00">_color_sinks.h</text>
</a>
</g>
</g>
<!-- Node7&#45;&gt;Node9 -->
<g id="edge8" class="edge">
<title>Node7&#45;&gt;Node9</title>
<path fill="none" stroke="midnightblue" d="M1231,-67.48C1231,-60.47 1231,-50.19 1231,-40.7"/>
<polygon fill="midnightblue" stroke="midnightblue" points="1234.5,-40.52 1231,-30.52 1227.5,-40.52 1234.5,-40.52"/>
</g>
<!-- Node10 -->
<g id="node10" class="node">
<title>Node10</title>
<g id="a_node10"><a xlink:title=" ">
<polygon fill="none" stroke="#bfbfbf" points="1305,-6 1305,-25 1363,-25 1363,-6 1305,-6"/>
<text text-anchor="middle" x="1334" y="-13" font-family="Helvetica,sans-Serif" font-size="10.00">memory</text>
</a>
</g>
</g>
<!-- Node7&#45;&gt;Node10 -->
<g id="edge9" class="edge">
<title>Node7&#45;&gt;Node10</title>
<path fill="none" stroke="midnightblue" d="M1245.76,-67.48C1262.66,-57.71 1290.58,-41.58 1310.49,-30.08"/>
<polygon fill="midnightblue" stroke="midnightblue" points="1312.36,-33.04 1319.27,-25.01 1308.86,-26.98 1312.36,-33.04"/>
</g>
<!-- Node27 -->
<g id="node17" class="node">
<title>Node27</title>
<g id="a_node17"><a xlink:href="_o_m_sim_p_m_t_response_8hh.html" target="_top" xlink:title="Simulation of PMT response.">
<polygon fill="none" stroke="black" points="613.5,-179.5 613.5,-198.5 748.5,-198.5 748.5,-179.5 613.5,-179.5"/>
<text text-anchor="middle" x="681" y="-186.5" font-family="Helvetica,sans-Serif" font-size="10.00">OMSimPMTResponse.hh</text>
</a>
</g>
</g>
<!-- Node26&#45;&gt;Node27 -->
<g id="edge16" class="edge">
<title>Node26&#45;&gt;Node27</title>
<path fill="none" stroke="midnightblue" d="M845.1,-235.44C811.73,-226.2 758.41,-211.44 721.65,-201.26"/>
<polygon fill="midnightblue" stroke="midnightblue" points="722.33,-197.81 711.75,-198.52 720.46,-204.56 722.33,-197.81"/>
</g>
<!-- Node32 -->
<g id="node22" class="node">
<title>Node32</title>
<g id="a_node22"><a xlink:title=" ">
<polygon fill="none" stroke="#bfbfbf" points="879.5,-179.5 879.5,-198.5 982.5,-198.5 982.5,-179.5 879.5,-179.5"/>
<text text-anchor="middle" x="931" y="-186.5" font-family="Helvetica,sans-Serif" font-size="10.00">G4ThreeVector.hh</text>
</a>
</g>
</g>
<!-- Node26&#45;&gt;Node32 -->
<g id="edge22" class="edge">
<title>Node26&#45;&gt;Node32</title>
<path fill="none" stroke="midnightblue" d="M885.08,-235.08C893.17,-227.14 905.2,-215.34 914.91,-205.8"/>
<polygon fill="midnightblue" stroke="midnightblue" points="917.4,-208.25 922.09,-198.75 912.5,-203.26 917.4,-208.25"/>
</g>
<!-- Node33 -->
<g id="node23" class="node">
<title>Node33</title>
<g id="a_node23"><a xlink:title=" ">
<polygon fill="none" stroke="#bfbfbf" points="1109.5,-179.5 1109.5,-198.5 1164.5,-198.5 1164.5,-179.5 1109.5,-179.5"/>
<text text-anchor="middle" x="1137" y="-186.5" font-family="Helvetica,sans-Serif" font-size="10.00">fstream</text>
</a>
</g>
</g>
<!-- Node26&#45;&gt;Node33 -->
<g id="edge23" class="edge">
<title>Node26&#45;&gt;Node33</title>
<path fill="none" stroke="midnightblue" d="M921.16,-235.48C964.36,-227.21 1031.57,-214.02 1099.17,-199.11"/>
<polygon fill="midnightblue" stroke="midnightblue" points="1100.14,-202.48 1109.15,-196.9 1098.63,-195.65 1100.14,-202.48"/>
</g>
<!-- Node18 -->
<g id="node24" class="node">
<title>Node18</title>
<g id="a_node24"><a xlink:title=" ">
<polygon fill="none" stroke="#bfbfbf" points="1001,-179.5 1001,-198.5 1091,-198.5 1091,-179.5 1001,-179.5"/>
<text text-anchor="middle" x="1046" y="-186.5" font-family="Helvetica,sans-Serif" font-size="10.00">G4AutoLock.hh</text>
</a>
</g>
</g>
<!-- Node26&#45;&gt;Node18 -->
<g id="edge24" class="edge">
<title>Node26&#45;&gt;Node18</title>
<path fill="none" stroke="midnightblue" d="M902.94,-235.44C931.66,-226.32 977.33,-211.81 1009.32,-201.65"/>
<polygon fill="midnightblue" stroke="midnightblue" points="1010.72,-204.88 1019.19,-198.52 1008.6,-198.21 1010.72,-204.88"/>
</g>
<!-- Node19 -->
<g id="node25" class="node">
<title>Node19</title>
<g id="a_node25"><a xlink:title=" ">
<polygon fill="none" stroke="#bfbfbf" points="767,-179.5 767,-198.5 861,-198.5 861,-179.5 767,-179.5"/>
<text text-anchor="middle" x="814" y="-186.5" font-family="Helvetica,sans-Serif" font-size="10.00">G4Threading.hh</text>
</a>
</g>
</g>
<!-- Node26&#45;&gt;Node19 -->
<g id="edge25" class="edge">
<title>Node26&#45;&gt;Node19</title>
<path fill="none" stroke="midnightblue" d="M866.04,-235.32C856.87,-227.34 843.06,-215.31 831.97,-205.65"/>
<polygon fill="midnightblue" stroke="midnightblue" points="833.98,-202.76 824.14,-198.83 829.38,-208.04 833.98,-202.76"/>
</g>
<!-- Node27&#45;&gt;Node20 -->
<g id="edge17" class="edge">
<title>Node27&#45;&gt;Node20</title>
<path fill="none" stroke="midnightblue" d="M676.53,-179.37C667.2,-161.38 645.53,-119.55 633.13,-95.63"/>
<polygon fill="midnightblue" stroke="midnightblue" points="636.16,-93.86 628.45,-86.59 629.95,-97.08 636.16,-93.86"/>
</g>
<!-- Node28 -->
<g id="node18" class="node">
<title>Node28</title>
<g id="a_node18"><a xlink:title=" ">
<polygon fill="none" stroke="#bfbfbf" points="845.5,-123.5 845.5,-142.5 918.5,-142.5 918.5,-123.5 845.5,-123.5"/>
<text text-anchor="middle" x="882" y="-130.5" font-family="Helvetica,sans-Serif" font-size="10.00">G4Types.hh</text>
</a>
</g>
</g>
<!-- Node27&#45;&gt;Node28 -->
<g id="edge18" class="edge">
<title>Node27&#45;&gt;Node28</title>
<path fill="none" stroke="midnightblue" d="M712.85,-179.44C747.4,-170.16 802.68,-155.31 840.58,-145.13"/>
<polygon fill="midnightblue" stroke="midnightblue" points="841.55,-148.49 850.3,-142.52 839.73,-141.73 841.55,-148.49"/>
</g>
<!-- Node29 -->
<g id="node19" class="node">
<title>Node29</title>
<g id="a_node19"><a xlink:title=" ">
<polygon fill="none" stroke="#bfbfbf" points="1058,-123.5 1058,-142.5 1096,-142.5 1096,-123.5 1058,-123.5"/>
<text text-anchor="middle" x="1077" y="-130.5" font-family="Helvetica,sans-Serif" font-size="10.00">map</text>
</a>
</g>
</g>
<!-- Node27&#45;&gt;Node29 -->
<g id="edge19" class="edge">
<title>Node27&#45;&gt;Node29</title>
<path fill="none" stroke="midnightblue" d="M743.75,-179.44C830.54,-167.61 983.75,-146.72 1047.69,-138"/>
<polygon fill="midnightblue" stroke="midnightblue" points="1048.43,-141.43 1057.86,-136.61 1047.48,-134.49 1048.43,-141.43"/>
</g>
<!-- Node30 -->
<g id="node20" class="node">
<title>Node30</title>
<g id="a_node20"><a xlink:title=" ">
<polygon fill="none" stroke="#bfbfbf" points="695.5,-123.5 695.5,-142.5 756.5,-142.5 756.5,-123.5 695.5,-123.5"/>
<text text-anchor="middle" x="726" y="-130.5" font-family="Helvetica,sans-Serif" font-size="10.00">TGraph.h</text>
</a>
</g>
</g>
<!-- Node27&#45;&gt;Node30 -->
<g id="edge20" class="edge">
<title>Node27&#45;&gt;Node30</title>
<path fill="none" stroke="midnightblue" d="M688.43,-179.08C694.85,-171.38 704.31,-160.03 712.12,-150.65"/>
<polygon fill="midnightblue" stroke="midnightblue" points="714.99,-152.67 718.71,-142.75 709.62,-148.19 714.99,-152.67"/>
</g>
<!-- Node31 -->
<g id="node21" class="node">
<title>Node31</title>
<g id="a_node21"><a xlink:title=" ">
<polygon fill="none" stroke="#bfbfbf" points="774.5,-123.5 774.5,-142.5 827.5,-142.5 827.5,-123.5 774.5,-123.5"/>
<text text-anchor="middle" x="801" y="-130.5" font-family="Helvetica,sans-Serif" font-size="10.00">TH2D.h</text>
</a>
</g>
</g>
<!-- Node27&#45;&gt;Node31 -->
<g id="edge21" class="edge">
<title>Node27&#45;&gt;Node31</title>
<path fill="none" stroke="midnightblue" d="M700.01,-179.44C719.59,-170.64 750.31,-156.81 772.73,-146.72"/>
<polygon fill="midnightblue" stroke="midnightblue" points="774.39,-149.81 782.07,-142.52 771.52,-143.43 774.39,-149.81"/>
</g>
<!-- Node34&#45;&gt;Node5 -->
<g id="edge27" class="edge">
<title>Node34&#45;&gt;Node5</title>
<path fill="none" stroke="midnightblue" d="M526.83,-235.44C507.09,-226.64 476.11,-212.81 453.51,-202.72"/>
<polygon fill="midnightblue" stroke="midnightblue" points="454.64,-199.4 444.08,-198.52 451.79,-205.79 454.64,-199.4"/>
</g>
<!-- Node34&#45;&gt;Node27 -->
<g id="edge29" class="edge">
<title>Node34&#45;&gt;Node27</title>
<path fill="none" stroke="midnightblue" d="M567.39,-235.44C589.71,-226.52 624.9,-212.44 650.21,-202.32"/>
<polygon fill="midnightblue" stroke="midnightblue" points="651.72,-205.48 659.71,-198.52 649.12,-198.98 651.72,-205.48"/>
</g>
<!-- Node34&#45;&gt;Node34 -->
<g id="edge28" class="edge">
<title>Node34&#45;&gt;Node34</title>
<path fill="none" stroke="midnightblue" d="M585.45,-254.53C612.26,-257.31 638.5,-254.13 638.5,-245 638.5,-237.01 618.41,-233.58 595.43,-234.71"/>
<polygon fill="midnightblue" stroke="midnightblue" points="595.15,-231.22 585.45,-235.47 595.69,-238.2 595.15,-231.22"/>
</g>
<!-- Node41&#45;&gt;Node7 -->
<g id="edge37" class="edge">
<title>Node41&#45;&gt;Node7</title>
<path fill="none" stroke="midnightblue" d="M1522.64,-291.1C1517.22,-277.65 1505.47,-251.95 1489,-235 1420.53,-164.51 1314.03,-113.08 1261.88,-90.59"/>
<polygon fill="midnightblue" stroke="midnightblue" points="1263.08,-87.29 1252.5,-86.6 1260.34,-93.73 1263.08,-87.29"/>
</g>
<!-- Node41&#45;&gt;Node26 -->
<g id="edge36" class="edge">
<title>Node41&#45;&gt;Node26</title>
<path fill="none" stroke="midnightblue" d="M1467.99,-295.09C1451.81,-293.74 1434.22,-292.3 1418,-291 1211.99,-274.54 1157.56,-276.15 947.67,-255.02"/>
<polygon fill="midnightblue" stroke="midnightblue" points="947.85,-251.52 937.55,-253.99 947.15,-258.48 947.85,-251.52"/>
</g>
<!-- Node42 -->
<g id="node32" class="node">
<title>Node42</title>
<g id="a_node32"><a xlink:title=" ">
<polygon fill="none" stroke="#bfbfbf" points="1536.5,-235.5 1536.5,-254.5 1653.5,-254.5 1653.5,-235.5 1536.5,-235.5"/>
<text text-anchor="middle" x="1595" y="-242.5" font-family="Helvetica,sans-Serif" font-size="10.00">G4UserRunAction.hh</text>
</a>
</g>
</g>
<!-- Node41&#45;&gt;Node42 -->
<g id="edge35" class="edge">
<title>Node41&#45;&gt;Node42</title>
<path fill="none" stroke="midnightblue" d="M1537.09,-291.32C1547.49,-283.18 1563.26,-270.84 1575.72,-261.09"/>
<polygon fill="midnightblue" stroke="midnightblue" points="1577.99,-263.75 1583.71,-254.83 1573.68,-258.24 1577.99,-263.75"/>
</g>
<!-- Node43 -->
<g id="node33" class="node">
<title>Node43</title>
<g id="a_node33"><a xlink:title=" ">
<polygon fill="none" stroke="#bfbfbf" points="1672,-235.5 1672,-254.5 1758,-254.5 1758,-235.5 1672,-235.5"/>
<text text-anchor="middle" x="1715" y="-242.5" font-family="Helvetica,sans-Serif" font-size="10.00">Randomize.hh</text>
</a>
</g>
</g>
<!-- Node41&#45;&gt;Node43 -->
<g id="edge38" class="edge">
<title>Node41&#45;&gt;Node43</title>
<path fill="none" stroke="midnightblue" d="M1555.95,-291.44C1588.16,-282.24 1639.53,-267.56 1675.14,-257.39"/>
<polygon fill="midnightblue" stroke="midnightblue" points="1676.54,-260.63 1685.19,-254.52 1674.62,-253.9 1676.54,-260.63"/>
</g>
<!-- Node44 -->
<g id="node34" class="node">
<title>Node44</title>
<g id="a_node34"><a xlink:title=" ">
<polygon fill="none" stroke="#bfbfbf" points="1416,-235.5 1416,-254.5 1480,-254.5 1480,-235.5 1416,-235.5"/>
<text text-anchor="middle" x="1448" y="-242.5" font-family="Helvetica,sans-Serif" font-size="10.00">G4Run.hh</text>
</a>
</g>
</g>
<!-- Node41&#45;&gt;Node44 -->
<g id="edge39" class="edge">
<title>Node41&#45;&gt;Node44</title>
<path fill="none" stroke="midnightblue" d="M1513.47,-291.32C1501.41,-282.98 1482.97,-270.21 1468.73,-260.35"/>
<polygon fill="midnightblue" stroke="midnightblue" points="1470.72,-257.47 1460.5,-254.65 1466.73,-263.22 1470.72,-257.47"/>
</g>
<!-- Node47 -->
<g id="node37" class="node">
<title>Node47</title>
<g id="a_node37"><a xlink:title=" ">
<polygon fill="none" stroke="#bfbfbf" points="2056.5,-291.5 2056.5,-310.5 2195.5,-310.5 2195.5,-291.5 2056.5,-291.5"/>
<text text-anchor="middle" x="2126" y="-298.5" font-family="Helvetica,sans-Serif" font-size="10.00">G4UserTrackingAction.hh</text>
</a>
</g>
</g>
<!-- Node46&#45;&gt;Node47 -->
<g id="edge42" class="edge">
<title>Node46&#45;&gt;Node47</title>
<path fill="none" stroke="midnightblue" d="M2126.83,-347.08C2126.7,-340.01 2126.52,-329.86 2126.35,-320.99"/>
<polygon fill="midnightblue" stroke="midnightblue" points="2129.85,-320.68 2126.16,-310.75 2122.85,-320.81 2129.85,-320.68"/>
</g>
<!-- Node49 -->
<g id="node39" class="node">
<title>Node49</title>
<g id="a_node39"><a xlink:title=" ">
<polygon fill="none" stroke="#bfbfbf" points="2213.5,-291.5 2213.5,-310.5 2354.5,-310.5 2354.5,-291.5 2213.5,-291.5"/>
<text text-anchor="middle" x="2284" y="-298.5" font-family="Helvetica,sans-Serif" font-size="10.00">G4UserSteppingAction.hh</text>
</a>
</g>
</g>
<!-- Node48&#45;&gt;Node49 -->
<g id="edge44" class="edge">
<title>Node48&#45;&gt;Node49</title>
<path fill="none" stroke="midnightblue" d="M2284,-347.08C2284,-340.01 2284,-329.86 2284,-320.99"/>
<polygon fill="midnightblue" stroke="midnightblue" points="2287.5,-320.75 2284,-310.75 2280.5,-320.75 2287.5,-320.75"/>
</g>
<!-- Node51 -->
<g id="node41" class="node">
<title>Node51</title>
<g id="a_node41"><a xlink:href="_o_m_sim_command_args_table_8hh.html" target="_top" xlink:title="Definition of the OMSimCommandArgsTable singleton class, which controls user args.">
<polygon fill="none" stroke="red" points="1118,-235.5 1118,-254.5 1282,-254.5 1282,-235.5 1118,-235.5"/>
<text text-anchor="middle" x="1200" y="-242.5" font-family="Helvetica,sans-Serif" font-size="10.00">OMSimCommandArgsTable.hh</text>
</a>
</g>
</g>
<!-- Node50&#45;&gt;Node51 -->
<g id="edge46" class="edge">
<title>Node50&#45;&gt;Node51</title>
<path fill="none" stroke="midnightblue" d="M1325.39,-291.44C1300.54,-282.44 1261.23,-268.19 1233.25,-258.05"/>
<polygon fill="midnightblue" stroke="midnightblue" points="1234.09,-254.63 1223.5,-254.52 1231.71,-261.21 1234.09,-254.63"/>
</g>
<!-- Node54 -->
<g id="node42" class="node">
<title>Node54</title>
<g id="a_node42"><a xlink:title=" ">
<polygon fill="none" stroke="#bfbfbf" points="1300,-235.5 1300,-254.5 1398,-254.5 1398,-235.5 1300,-235.5"/>
<text text-anchor="middle" x="1349" y="-242.5" font-family="Helvetica,sans-Serif" font-size="10.00">G4UImanager.hh</text>
</a>
</g>
</g>
<!-- Node50&#45;&gt;Node54 -->
<g id="edge50" class="edge">
<title>Node50&#45;&gt;Node54</title>
<path fill="none" stroke="midnightblue" d="M1349,-291.08C1349,-284.01 1349,-273.86 1349,-264.99"/>
<polygon fill="midnightblue" stroke="midnightblue" points="1352.5,-264.75 1349,-254.75 1345.5,-264.75 1352.5,-264.75"/>
</g>
<!-- Node51&#45;&gt;Node7 -->
<g id="edge47" class="edge">
<title>Node51&#45;&gt;Node7</title>
<path fill="none" stroke="midnightblue" d="M1201.67,-235.08C1206.55,-208.95 1220.88,-132.21 1227.53,-96.58"/>
<polygon fill="midnightblue" stroke="midnightblue" points="1231,-97.04 1229.4,-86.57 1224.12,-95.76 1231,-97.04"/>
</g>
<!-- Node51&#45;&gt;Node29 -->
<g id="edge49" class="edge">
<title>Node51&#45;&gt;Node29</title>
<path fill="none" stroke="midnightblue" d="M1198.48,-235.32C1195.69,-221.72 1188.54,-195.25 1173,-179 1154.74,-159.91 1126.78,-148.08 1105.74,-141.37"/>
<polygon fill="midnightblue" stroke="midnightblue" points="1106.62,-137.98 1096.04,-138.48 1104.62,-144.69 1106.62,-137.98"/>
</g>
<!-- Node51&#45;&gt;Node33 -->
<g id="edge48" class="edge">
<title>Node51&#45;&gt;Node33</title>
<path fill="none" stroke="midnightblue" d="M1189.88,-235.32C1180.47,-227.26 1166.26,-215.08 1154.93,-205.37"/>
<polygon fill="midnightblue" stroke="midnightblue" points="1157.18,-202.68 1147.31,-198.83 1152.62,-208 1157.18,-202.68"/>
</g>
<!-- Node59&#45;&gt;Node4 -->
<g id="edge56" class="edge">
<title>Node59&#45;&gt;Node4</title>
<path fill="none" stroke="midnightblue" d="M378.59,-403.37C401.46,-384.73 455.71,-340.53 484.43,-317.13"/>
<polygon fill="midnightblue" stroke="midnightblue" points="486.91,-319.62 492.46,-310.59 482.49,-314.19 486.91,-319.62"/>
</g>
<!-- Node60 -->
<g id="node48" class="node">
<title>Node60</title>
<g id="a_node48"><a xlink:title=" ">
<polygon fill="none" stroke="#bfbfbf" points="272.5,-347.5 272.5,-366.5 339.5,-366.5 339.5,-347.5 272.5,-347.5"/>
<text text-anchor="middle" x="306" y="-354.5" font-family="Helvetica,sans-Serif" font-size="10.00">globals.hh</text>
</a>
</g>
</g>
<!-- Node59&#45;&gt;Node60 -->
<g id="edge57" class="edge">
<title>Node59&#45;&gt;Node60</title>
<path fill="none" stroke="midnightblue" d="M358.04,-403.32C348.87,-395.34 335.06,-383.31 323.97,-373.65"/>
<polygon fill="midnightblue" stroke="midnightblue" points="325.98,-370.76 316.14,-366.83 321.38,-376.04 325.98,-370.76"/>
</g>
<!-- Node61&#45;&gt;Node32 -->
<g id="edge60" class="edge">
<title>Node61&#45;&gt;Node32</title>
<path fill="none" stroke="midnightblue" d="M1012.42,-235.32C997,-226.74 973.19,-213.49 955.29,-203.52"/>
<polygon fill="midnightblue" stroke="midnightblue" points="956.99,-200.46 946.55,-198.65 953.58,-206.58 956.99,-200.46"/>
</g>
<!-- Node61&#45;&gt;Node33 -->
<g id="edge61" class="edge">
<title>Node61&#45;&gt;Node33</title>
<path fill="none" stroke="midnightblue" d="M1045.51,-235.32C1063.07,-226.62 1090.33,-213.12 1110.53,-203.11"/>
<polygon fill="midnightblue" stroke="midnightblue" points="1112.12,-206.23 1119.53,-198.65 1109.02,-199.96 1112.12,-206.23"/>
</g>
<!-- Node61&#45;&gt;Node18 -->
<g id="edge62" class="edge">
<title>Node61&#45;&gt;Node18</title>
<path fill="none" stroke="midnightblue" d="M1030.97,-235.08C1033.38,-227.85 1036.86,-217.41 1039.87,-208.4"/>
<polygon fill="midnightblue" stroke="midnightblue" points="1043.24,-209.34 1043.08,-198.75 1036.6,-207.13 1043.24,-209.34"/>
</g>
<!-- Node62&#45;&gt;Node3 -->
<g id="edge66" class="edge">
<title>Node62&#45;&gt;Node3</title>
<path fill="none" stroke="midnightblue" d="M618.91,-403.44C637.25,-394.68 666.01,-380.94 687.09,-370.86"/>
<polygon fill="midnightblue" stroke="midnightblue" points="688.67,-373.99 696.18,-366.52 685.65,-367.67 688.67,-373.99"/>
</g>
<!-- Node62&#45;&gt;Node4 -->
<g id="edge64" class="edge">
<title>Node62&#45;&gt;Node4</title>
<path fill="none" stroke="midnightblue" d="M593.31,-403.37C576.99,-385.05 538.68,-342.05 517.58,-318.36"/>
<polygon fill="midnightblue" stroke="midnightblue" points="519.92,-315.73 510.65,-310.59 514.69,-320.39 519.92,-315.73"/>
</g>
<!-- Node62&#45;&gt;Node5 -->
<g id="edge65" class="edge">
<title>Node62&#45;&gt;Node5</title>
<path fill="none" stroke="midnightblue" d="M566.4,-403.45C524.38,-391 455.37,-363.44 425,-311 406.38,-278.85 413.49,-233.38 419.66,-208.34"/>
<polygon fill="midnightblue" stroke="midnightblue" points="423.04,-209.23 422.25,-198.67 416.28,-207.42 423.04,-209.23"/>
</g>
<!-- Node62&#45;&gt;Node37 -->
<g id="edge67" class="edge">
<title>Node62&#45;&gt;Node37</title>
<path fill="none" stroke="midnightblue" d="M602.57,-403.37C605.8,-385.62 613.24,-344.67 617.62,-320.6"/>
<polygon fill="midnightblue" stroke="midnightblue" points="621.09,-321.06 619.44,-310.59 614.21,-319.8 621.09,-321.06"/>
</g>
</g>
</svg>
