<?xml version="1.0" encoding="UTF-8" standalone="no"?>
<!DOCTYPE svg PUBLIC "-//W3C//DTD SVG 1.1//EN"
 "http://www.w3.org/Graphics/SVG/1.1/DTD/svg11.dtd">
<!-- Generated by graphviz version 2.43.0 (0)
 -->
<!-- Title: OMSim.hh Pages: 1 -->
<svg width="556pt" height="84pt"
 viewBox="0.00 0.00 555.50 84.00" xmlns="http://www.w3.org/2000/svg" xmlns:xlink="http://www.w3.org/1999/xlink">
<g id="graph0" class="graph" transform="scale(1 1) rotate(0) translate(4 80)">
<title>OMSim.hh</title>
<!-- Node1 -->
<g id="node1" class="node">
<title>Node1</title>
<g id="a_node1"><a xlink:title="Main simulation class for the Optical Module (OM) simulation. This file defines the OMSim class,...">
<polygon fill="#bfbfbf" stroke="black" points="205,-56.5 205,-75.5 272,-75.5 272,-56.5 205,-56.5"/>
<text text-anchor="middle" x="238.5" y="-63.5" font-family="Helvetica,sans-Serif" font-size="10.00">OMSim.hh</text>
</a>
</g>
</g>
<!-- Node2 -->
<g id="node2" class="node">
<title>Node2</title>
<g id="a_node2"><a xlink:href="_o_m_sim_8cc.html" target="_top" xlink:title="Implementation of the OMSim class.">
<polygon fill="none" stroke="black" points="0,-0.5 0,-19.5 65,-19.5 65,-0.5 0,-0.5"/>
<text text-anchor="middle" x="32.5" y="-7.5" font-family="Helvetica,sans-Serif" font-size="10.00">OMSim.cc</text>
</a>
</g>
</g>
<!-- Node1&#45;&gt;Node2 -->
<g id="edge1" class="edge">
<title>Node1&#45;&gt;Node2</title>
<path fill="none" stroke="midnightblue" d="M195.88,-53.83C156.99,-43.63 100.34,-28.78 64.99,-19.52"/>
<polygon fill="midnightblue" stroke="midnightblue" points="195.3,-57.29 205.86,-56.44 197.07,-50.52 195.3,-57.29"/>
</g>
<!-- Node3 -->
<g id="node3" class="node">
<title>Node3</title>
<g id="a_node3"><a xlink:href="_o_m_sim__effective__area_8cc.html" target="_top" xlink:title="Main for the calculation of effective areas.">
<polygon fill="none" stroke="black" points="83.5,-0.5 83.5,-19.5 223.5,-19.5 223.5,-0.5 83.5,-0.5"/>
<text text-anchor="middle" x="153.5" y="-7.5" font-family="Helvetica,sans-Serif" font-size="10.00">OMSim_effective_area.cc</text>
</a>
</g>
</g>
<!-- Node1&#45;&gt;Node3 -->
<g id="edge2" class="edge">
<title>Node1&#45;&gt;Node3</title>
<path fill="none" stroke="midnightblue" d="M216.31,-50.9C200.72,-41 180.37,-28.07 167.12,-19.65"/>
<polygon fill="midnightblue" stroke="midnightblue" points="214.53,-53.92 224.84,-56.32 218.28,-48.01 214.53,-53.92"/>
</g>
<!-- Node4 -->
<g id="node4" class="node">
<title>Node4</title>
<g id="a_node4"><a xlink:href="_o_m_sim__radioactive__decays_8cc.html" target="_top" xlink:title="Main of the radioactive decay study.">
<polygon fill="none" stroke="black" points="242,-0.5 242,-19.5 407,-19.5 407,-0.5 242,-0.5"/>
<text text-anchor="middle" x="324.5" y="-7.5" font-family="Helvetica,sans-Serif" font-size="10.00">OMSim_radioactive_decays.cc</text>
</a>
</g>
</g>
<!-- Node1&#45;&gt;Node4 -->
<g id="edge3" class="edge">
<title>Node1&#45;&gt;Node4</title>
<path fill="none" stroke="midnightblue" d="M260.95,-50.9C276.72,-41 297.31,-28.07 310.72,-19.65"/>
<polygon fill="midnightblue" stroke="midnightblue" points="258.93,-48.04 252.32,-56.32 262.65,-53.97 258.93,-48.04"/>
</g>
<!-- Node5 -->
<g id="node5" class="node">
<title>Node5</title>
<g id="a_node5"><a xlink:href="_o_m_sim__supernova_8cc.html" target="_top" xlink:title="Main of the supernova study.">
<polygon fill="none" stroke="black" points="425.5,-0.5 425.5,-19.5 547.5,-19.5 547.5,-0.5 425.5,-0.5"/>
<text text-anchor="middle" x="486.5" y="-7.5" font-family="Helvetica,sans-Serif" font-size="10.00">OMSim_supernova.cc</text>
</a>
</g>
</g>
<!-- Node1&#45;&gt;Node5 -->
<g id="edge4" class="edge">
<title>Node1&#45;&gt;Node5</title>
<path fill="none" stroke="midnightblue" d="M282.02,-55.52C328.69,-45.36 402.14,-29.37 447.14,-19.57"/>
<polygon fill="midnightblue" stroke="midnightblue" points="281.23,-52.11 272.2,-57.66 282.72,-58.95 281.23,-52.11"/>
</g>
</g>
</svg>
