<?xml version="1.0" encoding="UTF-8" standalone="no"?>
<!DOCTYPE svg PUBLIC "-//W3C//DTD SVG 1.1//EN"
 "http://www.w3.org/Graphics/SVG/1.1/DTD/svg11.dtd">
<!-- Generated by graphviz version 2.43.0 (0)
 -->
<!-- Title: OMSimLOM18.cc Pages: 1 -->
<svg width="2922pt" height="431pt"
 viewBox="0.00 0.00 2922.06 431.00" xmlns="http://www.w3.org/2000/svg" xmlns:xlink="http://www.w3.org/1999/xlink">
<g id="graph0" class="graph" transform="scale(1 1) rotate(0) translate(4 427)">
<title>OMSimLOM18.cc</title>
<polygon fill="white" stroke="transparent" points="-4,4 -4,-427 2918.06,-427 2918.06,4 -4,4"/>
<!-- Node1 -->
<g id="node1" class="node">
<title>Node1</title>
<g id="a_node1"><a xlink:title=" ">
<polygon fill="#bfbfbf" stroke="black" points="1172.56,-403.5 1172.56,-422.5 1271.56,-422.5 1271.56,-403.5 1172.56,-403.5"/>
<text text-anchor="middle" x="1222.06" y="-410.5" font-family="Helvetica,sans-Serif" font-size="10.00">OMSimLOM18.cc</text>
</a>
</g>
</g>
<!-- Node2 -->
<g id="node2" class="node">
<title>Node2</title>
<g id="a_node2"><a xlink:href="_o_m_sim_l_o_m18_8hh.html" target="_top" xlink:title="Construction of LOM18.">
<polygon fill="white" stroke="black" points="926.56,-347.5 926.56,-366.5 1027.56,-366.5 1027.56,-347.5 926.56,-347.5"/>
<text text-anchor="middle" x="977.06" y="-354.5" font-family="Helvetica,sans-Serif" font-size="10.00">OMSimLOM18.hh</text>
</a>
</g>
</g>
<!-- Node1&#45;&gt;Node2 -->
<g id="edge1" class="edge">
<title>Node1&#45;&gt;Node2</title>
<path fill="none" stroke="midnightblue" d="M1183.24,-403.44C1140.5,-394.02 1071.73,-378.87 1025.49,-368.68"/>
<polygon fill="midnightblue" stroke="midnightblue" points="1026.22,-365.25 1015.7,-366.52 1024.71,-372.09 1026.22,-365.25"/>
</g>
<!-- Node6 -->
<g id="node6" class="node">
<title>Node6</title>
<g id="a_node6"><a xlink:href="_o_m_sim_logger_8hh.html" target="_top" xlink:title=" ">
<polygon fill="white" stroke="black" points="463.56,-67.5 463.56,-86.5 562.56,-86.5 562.56,-67.5 463.56,-67.5"/>
<text text-anchor="middle" x="513.06" y="-74.5" font-family="Helvetica,sans-Serif" font-size="10.00">OMSimLogger.hh</text>
</a>
</g>
</g>
<!-- Node1&#45;&gt;Node6 -->
<g id="edge58" class="edge">
<title>Node1&#45;&gt;Node6</title>
<path fill="none" stroke="midnightblue" d="M1172.3,-410.17C943.21,-401.43 1.06,-361.83 1.06,-302 1.06,-302 1.06,-302 1.06,-188 1.06,-157.9 -3.18,-142.13 20.06,-123 52.85,-96 329,-83.87 453.09,-79.74"/>
<polygon fill="midnightblue" stroke="midnightblue" points="453.3,-83.23 463.18,-79.41 453.08,-76.24 453.3,-83.23"/>
</g>
<!-- Node34 -->
<g id="node31" class="node">
<title>Node34</title>
<g id="a_node31"><a xlink:href="_c_a_d_mesh_8hh.html" target="_top" xlink:title=" ">
<polygon fill="white" stroke="black" points="1810.56,-179.5 1810.56,-198.5 1889.56,-198.5 1889.56,-179.5 1810.56,-179.5"/>
<text text-anchor="middle" x="1850.06" y="-186.5" font-family="Helvetica,sans-Serif" font-size="10.00">CADMesh.hh</text>
</a>
</g>
</g>
<!-- Node1&#45;&gt;Node34 -->
<g id="edge37" class="edge">
<title>Node1&#45;&gt;Node34</title>
<path fill="none" stroke="midnightblue" d="M1227.34,-403.41C1236.37,-389.43 1256.16,-361.84 1280.06,-347 1451.64,-240.5 1696.15,-204.97 1800.16,-194.22"/>
<polygon fill="midnightblue" stroke="midnightblue" points="1800.76,-197.68 1810.37,-193.2 1800.07,-190.71 1800.76,-197.68"/>
</g>
<!-- Node49 -->
<g id="node46" class="node">
<title>Node49</title>
<g id="a_node46"><a xlink:href="_o_m_sim_command_args_table_8hh.html" target="_top" xlink:title="Definition of the OMSimCommandArgsTable singleton class, which controls user args.">
<polygon fill="white" stroke="black" points="992.06,-179.5 992.06,-198.5 1156.06,-198.5 1156.06,-179.5 992.06,-179.5"/>
<text text-anchor="middle" x="1074.06" y="-186.5" font-family="Helvetica,sans-Serif" font-size="10.00">OMSimCommandArgsTable.hh</text>
</a>
</g>
</g>
<!-- Node1&#45;&gt;Node49 -->
<g id="edge59" class="edge">
<title>Node1&#45;&gt;Node49</title>
<path fill="none" stroke="midnightblue" d="M1216.26,-403.3C1194.2,-370.22 1115.33,-251.91 1085.55,-207.24"/>
<polygon fill="midnightblue" stroke="midnightblue" points="1088.44,-205.26 1079.98,-198.88 1082.62,-209.15 1088.44,-205.26"/>
</g>
<!-- Node52 -->
<g id="node49" class="node">
<title>Node52</title>
<g id="a_node49"><a xlink:title=" ">
<polygon fill="white" stroke="#bfbfbf" points="1288.56,-347.5 1288.56,-366.5 1357.56,-366.5 1357.56,-347.5 1288.56,-347.5"/>
<text text-anchor="middle" x="1323.06" y="-354.5" font-family="Helvetica,sans-Serif" font-size="10.00">G4Cons.hh</text>
</a>
</g>
</g>
<!-- Node1&#45;&gt;Node52 -->
<g id="edge64" class="edge">
<title>Node1&#45;&gt;Node52</title>
<path fill="none" stroke="midnightblue" d="M1238.29,-403.32C1254.41,-394.7 1279.36,-381.36 1298.02,-371.39"/>
<polygon fill="midnightblue" stroke="midnightblue" points="1299.7,-374.46 1306.87,-366.65 1296.4,-368.28 1299.7,-374.46"/>
</g>
<!-- Node53 -->
<g id="node50" class="node">
<title>Node53</title>
<g id="a_node50"><a xlink:title=" ">
<polygon fill="white" stroke="#bfbfbf" points="1375.56,-347.5 1375.56,-366.5 1502.56,-366.5 1502.56,-347.5 1375.56,-347.5"/>
<text text-anchor="middle" x="1439.06" y="-354.5" font-family="Helvetica,sans-Serif" font-size="10.00">G4IntersectionSolid.hh</text>
</a>
</g>
</g>
<!-- Node1&#45;&gt;Node53 -->
<g id="edge65" class="edge">
<title>Node1&#45;&gt;Node53</title>
<path fill="none" stroke="midnightblue" d="M1256.44,-403.44C1293.98,-394.1 1354.19,-379.12 1395.13,-368.93"/>
<polygon fill="midnightblue" stroke="midnightblue" points="1395.98,-372.33 1404.84,-366.52 1394.29,-365.53 1395.98,-372.33"/>
</g>
<!-- Node3 -->
<g id="node3" class="node">
<title>Node3</title>
<g id="a_node3"><a xlink:href="_o_m_sim_p_m_t_construction_8hh.html" target="_top" xlink:title="Construction of the PMTs.">
<polygon fill="white" stroke="black" points="522.56,-235.5 522.56,-254.5 671.56,-254.5 671.56,-235.5 522.56,-235.5"/>
<text text-anchor="middle" x="597.06" y="-242.5" font-family="Helvetica,sans-Serif" font-size="10.00">OMSimPMTConstruction.hh</text>
</a>
</g>
</g>
<!-- Node2&#45;&gt;Node3 -->
<g id="edge2" class="edge">
<title>Node2&#45;&gt;Node3</title>
<path fill="none" stroke="midnightblue" d="M926.54,-355.49C866.71,-353.26 765.08,-344.32 685.06,-311 657.29,-299.44 630.19,-277.3 613.57,-262.1"/>
<polygon fill="midnightblue" stroke="midnightblue" points="615.57,-259.17 605.88,-254.88 610.77,-264.27 615.57,-259.17"/>
</g>
<!-- Node25 -->
<g id="node23" class="node">
<title>Node25</title>
<g id="a_node23"><a xlink:href="_o_m_sim_optical_module_8hh.html" target="_top" xlink:title=" ">
<polygon fill="white" stroke="black" points="693.56,-291.5 693.56,-310.5 830.56,-310.5 830.56,-291.5 693.56,-291.5"/>
<text text-anchor="middle" x="762.06" y="-298.5" font-family="Helvetica,sans-Serif" font-size="10.00">OMSimOpticalModule.hh</text>
</a>
</g>
</g>
<!-- Node2&#45;&gt;Node25 -->
<g id="edge24" class="edge">
<title>Node2&#45;&gt;Node25</title>
<path fill="none" stroke="midnightblue" d="M942.99,-347.44C905.88,-338.12 846.4,-323.18 805.84,-313"/>
<polygon fill="midnightblue" stroke="midnightblue" points="806.52,-309.56 795.97,-310.52 804.81,-316.35 806.52,-309.56"/>
</g>
<!-- Node32 -->
<g id="node29" class="node">
<title>Node32</title>
<g id="a_node29"><a xlink:title=" ">
<polygon fill="white" stroke="#bfbfbf" points="1326.06,-123.5 1326.06,-142.5 1442.06,-142.5 1442.06,-123.5 1326.06,-123.5"/>
<text text-anchor="middle" x="1384.06" y="-130.5" font-family="Helvetica,sans-Serif" font-size="10.00">G4LogicalVolume.hh</text>
</a>
</g>
</g>
<!-- Node2&#45;&gt;Node32 -->
<g id="edge35" class="edge">
<title>Node2&#45;&gt;Node32</title>
<path fill="none" stroke="midnightblue" d="M992.76,-347.43C1054.83,-313.58 1283.3,-188.96 1359.29,-147.51"/>
<polygon fill="midnightblue" stroke="midnightblue" points="1361.08,-150.52 1368.18,-142.66 1357.73,-144.38 1361.08,-150.52"/>
</g>
<!-- Node33 -->
<g id="node30" class="node">
<title>Node33</title>
<g id="a_node30"><a xlink:title=" ">
<polygon fill="white" stroke="#bfbfbf" points="932.56,-291.5 932.56,-310.5 1021.56,-310.5 1021.56,-291.5 932.56,-291.5"/>
<text text-anchor="middle" x="977.06" y="-298.5" font-family="Helvetica,sans-Serif" font-size="10.00">G4Polycone.hh</text>
</a>
</g>
</g>
<!-- Node2&#45;&gt;Node33 -->
<g id="edge36" class="edge">
<title>Node2&#45;&gt;Node33</title>
<path fill="none" stroke="midnightblue" d="M977.06,-347.08C977.06,-340.01 977.06,-329.86 977.06,-320.99"/>
<polygon fill="midnightblue" stroke="midnightblue" points="980.56,-320.75 977.06,-310.75 973.56,-320.75 980.56,-320.75"/>
</g>
<!-- Node3&#45;&gt;Node3 -->
<g id="edge15" class="edge">
<title>Node3&#45;&gt;Node3</title>
<path fill="none" stroke="midnightblue" d="M636.51,-254.53C663.32,-257.31 689.56,-254.13 689.56,-245 689.56,-237.01 669.47,-233.58 646.49,-234.71"/>
<polygon fill="midnightblue" stroke="midnightblue" points="646.21,-231.22 636.51,-235.47 646.75,-238.2 646.21,-231.22"/>
</g>
<!-- Node4 -->
<g id="node4" class="node">
<title>Node4</title>
<g id="a_node4"><a xlink:href="abc_detector_component_8hh.html" target="_top" xlink:title="Provides helper base class abcDetectorComponent for constructing and managing detector components in ...">
<polygon fill="white" stroke="black" points="523.56,-179.5 523.56,-198.5 670.56,-198.5 670.56,-179.5 523.56,-179.5"/>
<text text-anchor="middle" x="597.06" y="-186.5" font-family="Helvetica,sans-Serif" font-size="10.00">abcDetectorComponent.hh</text>
</a>
</g>
</g>
<!-- Node3&#45;&gt;Node4 -->
<g id="edge3" class="edge">
<title>Node3&#45;&gt;Node4</title>
<path fill="none" stroke="midnightblue" d="M597.06,-235.08C597.06,-228.01 597.06,-217.86 597.06,-208.99"/>
<polygon fill="midnightblue" stroke="midnightblue" points="600.56,-208.75 597.06,-198.75 593.56,-208.75 600.56,-208.75"/>
</g>
<!-- Node18 -->
<g id="node16" class="node">
<title>Node18</title>
<g id="a_node16"><a xlink:href="_o_m_sim_p_m_t_response_8hh.html" target="_top" xlink:title="Provides simulation for PMT response. This class is responsible for transforming hits on photocathode...">
<polygon fill="white" stroke="black" points="686.56,-123.5 686.56,-142.5 821.56,-142.5 821.56,-123.5 686.56,-123.5"/>
<text text-anchor="middle" x="754.06" y="-130.5" font-family="Helvetica,sans-Serif" font-size="10.00">OMSimPMTResponse.hh</text>
</a>
</g>
</g>
<!-- Node3&#45;&gt;Node18 -->
<g id="edge16" class="edge">
<title>Node3&#45;&gt;Node18</title>
<path fill="none" stroke="midnightblue" d="M615.56,-235.46C632.85,-227.13 659.08,-213.62 680.06,-199 701.4,-184.12 723.51,-163.97 737.94,-150.07"/>
<polygon fill="midnightblue" stroke="midnightblue" points="740.78,-152.19 745.48,-142.69 735.89,-147.18 740.78,-152.19"/>
</g>
<!-- Node23 -->
<g id="node21" class="node">
<title>Node23</title>
<g id="a_node21"><a xlink:title=" ">
<polygon fill="white" stroke="#bfbfbf" points="407.06,-179.5 407.06,-198.5 505.06,-198.5 505.06,-179.5 407.06,-179.5"/>
<text text-anchor="middle" x="456.06" y="-186.5" font-family="Helvetica,sans-Serif" font-size="10.00">G4UnionSolid.hh</text>
</a>
</g>
</g>
<!-- Node3&#45;&gt;Node23 -->
<g id="edge22" class="edge">
<title>Node3&#45;&gt;Node23</title>
<path fill="none" stroke="midnightblue" d="M574.72,-235.44C551.31,-226.48 514.32,-212.31 487.87,-202.18"/>
<polygon fill="midnightblue" stroke="midnightblue" points="488.89,-198.82 478.3,-198.52 486.38,-205.36 488.89,-198.82"/>
</g>
<!-- Node24 -->
<g id="node22" class="node">
<title>Node24</title>
<g id="a_node22"><a xlink:title=" ">
<polygon fill="white" stroke="#bfbfbf" points="321.56,-179.5 321.56,-198.5 388.56,-198.5 388.56,-179.5 321.56,-179.5"/>
<text text-anchor="middle" x="355.06" y="-186.5" font-family="Helvetica,sans-Serif" font-size="10.00">G4Tubs.hh</text>
</a>
</g>
</g>
<!-- Node3&#45;&gt;Node24 -->
<g id="edge23" class="edge">
<title>Node3&#45;&gt;Node24</title>
<path fill="none" stroke="midnightblue" d="M558.71,-235.44C515.22,-225.74 444.44,-209.95 398.83,-199.77"/>
<polygon fill="midnightblue" stroke="midnightblue" points="399.45,-196.32 388.93,-197.56 397.93,-203.15 399.45,-196.32"/>
</g>
<!-- Node5 -->
<g id="node5" class="node">
<title>Node5</title>
<g id="a_node5"><a xlink:href="_o_m_sim_input_data_8hh.html" target="_top" xlink:title="Definition of ParameterTable and InputDataManager.">
<polygon fill="white" stroke="red" points="553.56,-123.5 553.56,-142.5 668.56,-142.5 668.56,-123.5 553.56,-123.5"/>
<text text-anchor="middle" x="611.06" y="-130.5" font-family="Helvetica,sans-Serif" font-size="10.00">OMSimInputData.hh</text>
</a>
</g>
</g>
<!-- Node4&#45;&gt;Node5 -->
<g id="edge4" class="edge">
<title>Node4&#45;&gt;Node5</title>
<path fill="none" stroke="midnightblue" d="M599.37,-179.08C601.23,-171.93 603.89,-161.64 606.21,-152.69"/>
<polygon fill="midnightblue" stroke="midnightblue" points="609.67,-153.31 608.79,-142.75 602.89,-151.55 609.67,-153.31"/>
</g>
<!-- Node14 -->
<g id="node12" class="node">
<title>Node14</title>
<g id="a_node12"><a xlink:title=" ">
<polygon fill="white" stroke="#bfbfbf" points="29.56,-123.5 29.56,-142.5 136.56,-142.5 136.56,-123.5 29.56,-123.5"/>
<text text-anchor="middle" x="83.06" y="-130.5" font-family="Helvetica,sans-Serif" font-size="10.00">G4Transform3D.hh</text>
</a>
</g>
</g>
<!-- Node4&#45;&gt;Node14 -->
<g id="edge11" class="edge">
<title>Node4&#45;&gt;Node14</title>
<path fill="none" stroke="midnightblue" d="M523.3,-179.96C520.18,-179.63 517.09,-179.31 514.06,-179 353.78,-162.47 310.88,-162.61 146.62,-143.02"/>
<polygon fill="midnightblue" stroke="midnightblue" points="147,-139.54 136.65,-141.82 146.17,-146.49 147,-139.54"/>
</g>
<!-- Node15 -->
<g id="node13" class="node">
<title>Node15</title>
<g id="a_node13"><a xlink:title=" ">
<polygon fill="white" stroke="#bfbfbf" points="155.06,-123.5 155.06,-142.5 263.06,-142.5 263.06,-123.5 155.06,-123.5"/>
<text text-anchor="middle" x="209.06" y="-130.5" font-family="Helvetica,sans-Serif" font-size="10.00">G4VisAttributes.hh</text>
</a>
</g>
</g>
<!-- Node4&#45;&gt;Node15 -->
<g id="edge12" class="edge">
<title>Node4&#45;&gt;Node15</title>
<path fill="none" stroke="midnightblue" d="M535.54,-179.49C472.53,-170.76 371.44,-156.74 273.28,-143.03"/>
<polygon fill="midnightblue" stroke="midnightblue" points="273.57,-139.54 263.18,-141.62 272.6,-146.47 273.57,-139.54"/>
</g>
<!-- Node16 -->
<g id="node14" class="node">
<title>Node16</title>
<g id="a_node14"><a xlink:title=" ">
<polygon fill="white" stroke="#bfbfbf" points="281.56,-123.5 281.56,-142.5 406.56,-142.5 406.56,-123.5 281.56,-123.5"/>
<text text-anchor="middle" x="344.06" y="-130.5" font-family="Helvetica,sans-Serif" font-size="10.00">G4SubtractionSolid.hh</text>
</a>
</g>
</g>
<!-- Node4&#45;&gt;Node16 -->
<g id="edge13" class="edge">
<title>Node4&#45;&gt;Node16</title>
<path fill="none" stroke="midnightblue" d="M556.97,-179.44C512.74,-170 441.52,-154.8 393.77,-144.61"/>
<polygon fill="midnightblue" stroke="midnightblue" points="394.47,-141.18 383.96,-142.52 393.01,-148.03 394.47,-141.18"/>
</g>
<!-- Node17 -->
<g id="node15" class="node">
<title>Node17</title>
<g id="a_node15"><a xlink:title=" ">
<polygon fill="white" stroke="#bfbfbf" points="425.06,-123.5 425.06,-142.5 535.06,-142.5 535.06,-123.5 425.06,-123.5"/>
<text text-anchor="middle" x="480.06" y="-130.5" font-family="Helvetica,sans-Serif" font-size="10.00">G4PVPlacement.hh</text>
</a>
</g>
</g>
<!-- Node4&#45;&gt;Node17 -->
<g id="edge14" class="edge">
<title>Node4&#45;&gt;Node17</title>
<path fill="none" stroke="midnightblue" d="M578.52,-179.44C559.44,-170.64 529.48,-156.81 507.62,-146.72"/>
<polygon fill="midnightblue" stroke="midnightblue" points="509.06,-143.53 498.51,-142.52 506.12,-149.88 509.06,-143.53"/>
</g>
<!-- Node5&#45;&gt;Node6 -->
<g id="edge5" class="edge">
<title>Node5&#45;&gt;Node6</title>
<path fill="none" stroke="midnightblue" d="M595.31,-123.32C579.74,-114.74 555.68,-101.49 537.6,-91.52"/>
<polygon fill="midnightblue" stroke="midnightblue" points="539.21,-88.42 528.77,-86.65 535.83,-94.55 539.21,-88.42"/>
</g>
<!-- Node12 -->
<g id="node11" class="node">
<title>Node12</title>
<g id="a_node11"><a xlink:title=" ">
<polygon fill="white" stroke="#bfbfbf" points="580.56,-67.5 580.56,-86.5 699.56,-86.5 699.56,-67.5 580.56,-67.5"/>
<text text-anchor="middle" x="640.06" y="-74.5" font-family="Helvetica,sans-Serif" font-size="10.00">G4SystemOfUnits.hh</text>
</a>
</g>
</g>
<!-- Node5&#45;&gt;Node12 -->
<g id="edge10" class="edge">
<title>Node5&#45;&gt;Node12</title>
<path fill="none" stroke="midnightblue" d="M615.85,-123.08C619.82,-115.69 625.58,-104.95 630.49,-95.81"/>
<polygon fill="midnightblue" stroke="midnightblue" points="633.71,-97.22 635.36,-86.75 627.54,-93.91 633.71,-97.22"/>
</g>
<!-- Node7 -->
<g id="node7" class="node">
<title>Node7</title>
<g id="a_node7"><a xlink:title=" ">
<polygon fill="white" stroke="#bfbfbf" points="580.56,-6 580.56,-25 673.56,-25 673.56,-6 580.56,-6"/>
<text text-anchor="middle" x="627.06" y="-13" font-family="Helvetica,sans-Serif" font-size="10.00">spdlog/spdlog.h</text>
</a>
</g>
</g>
<!-- Node6&#45;&gt;Node7 -->
<g id="edge6" class="edge">
<title>Node6&#45;&gt;Node7</title>
<path fill="none" stroke="midnightblue" d="M529.39,-67.48C548.27,-57.62 579.57,-41.29 601.63,-29.77"/>
<polygon fill="midnightblue" stroke="midnightblue" points="603.51,-32.74 610.76,-25.01 600.27,-26.53 603.51,-32.74"/>
</g>
<!-- Node8 -->
<g id="node8" class="node">
<title>Node8</title>
<g id="a_node8"><a xlink:title=" ">
<polygon fill="white" stroke="#bfbfbf" points="334.56,-0.5 334.56,-30.5 445.56,-30.5 445.56,-0.5 334.56,-0.5"/>
<text text-anchor="start" x="342.56" y="-18.5" font-family="Helvetica,sans-Serif" font-size="10.00">spdlog/sinks/stdout</text>
<text text-anchor="middle" x="390.06" y="-7.5" font-family="Helvetica,sans-Serif" font-size="10.00">_color_sinks.h</text>
</a>
</g>
</g>
<!-- Node6&#45;&gt;Node8 -->
<g id="edge7" class="edge">
<title>Node6&#45;&gt;Node8</title>
<path fill="none" stroke="midnightblue" d="M495.44,-67.48C478,-59.04 450.74,-45.86 428.32,-35.01"/>
<polygon fill="midnightblue" stroke="midnightblue" points="429.57,-31.73 419.05,-30.52 426.53,-38.03 429.57,-31.73"/>
</g>
<!-- Node9 -->
<g id="node9" class="node">
<title>Node9</title>
<g id="a_node9"><a xlink:title=" ">
<polygon fill="white" stroke="#bfbfbf" points="1180.06,-6 1180.06,-25 1238.06,-25 1238.06,-6 1180.06,-6"/>
<text text-anchor="middle" x="1209.06" y="-13" font-family="Helvetica,sans-Serif" font-size="10.00">memory</text>
</a>
</g>
</g>
<!-- Node6&#45;&gt;Node9 -->
<g id="edge8" class="edge">
<title>Node6&#45;&gt;Node9</title>
<path fill="none" stroke="midnightblue" d="M562.6,-68.18C565.8,-67.75 568.97,-67.36 572.06,-67 797.47,-40.91 1069.34,-24.27 1169.52,-18.64"/>
<polygon fill="midnightblue" stroke="midnightblue" points="1169.99,-22.12 1179.78,-18.07 1169.6,-15.13 1169.99,-22.12"/>
</g>
<!-- Node10 -->
<g id="node10" class="node">
<title>Node10</title>
<g id="a_node10"><a xlink:title=" ">
<polygon fill="white" stroke="#bfbfbf" points="464.06,-6 464.06,-25 562.06,-25 562.06,-6 464.06,-6"/>
<text text-anchor="middle" x="513.06" y="-13" font-family="Helvetica,sans-Serif" font-size="10.00">spdlog/fmt/fmt.h</text>
</a>
</g>
</g>
<!-- Node6&#45;&gt;Node10 -->
<g id="edge9" class="edge">
<title>Node6&#45;&gt;Node10</title>
<path fill="none" stroke="midnightblue" d="M513.06,-67.48C513.06,-59.08 513.06,-45.98 513.06,-35.16"/>
<polygon fill="midnightblue" stroke="midnightblue" points="516.56,-35.01 513.06,-25.01 509.56,-35.01 516.56,-35.01"/>
</g>
<!-- Node18&#45;&gt;Node12 -->
<g id="edge17" class="edge">
<title>Node18&#45;&gt;Node12</title>
<path fill="none" stroke="midnightblue" d="M736,-123.44C717.48,-114.68 688.48,-100.94 667.2,-90.86"/>
<polygon fill="midnightblue" stroke="midnightblue" points="668.57,-87.63 658.04,-86.52 665.58,-93.96 668.57,-87.63"/>
</g>
<!-- Node19 -->
<g id="node17" class="node">
<title>Node19</title>
<g id="a_node17"><a xlink:title=" ">
<polygon fill="white" stroke="#bfbfbf" points="717.56,-67.5 717.56,-86.5 790.56,-86.5 790.56,-67.5 717.56,-67.5"/>
<text text-anchor="middle" x="754.06" y="-74.5" font-family="Helvetica,sans-Serif" font-size="10.00">G4Types.hh</text>
</a>
</g>
</g>
<!-- Node18&#45;&gt;Node19 -->
<g id="edge18" class="edge">
<title>Node18&#45;&gt;Node19</title>
<path fill="none" stroke="midnightblue" d="M754.06,-123.08C754.06,-116.01 754.06,-105.86 754.06,-96.99"/>
<polygon fill="midnightblue" stroke="midnightblue" points="757.56,-96.75 754.06,-86.75 750.56,-96.75 757.56,-96.75"/>
</g>
<!-- Node20 -->
<g id="node18" class="node">
<title>Node20</title>
<g id="a_node18"><a xlink:title=" ">
<polygon fill="white" stroke="#bfbfbf" points="1296.06,-67.5 1296.06,-86.5 1334.06,-86.5 1334.06,-67.5 1296.06,-67.5"/>
<text text-anchor="middle" x="1315.06" y="-74.5" font-family="Helvetica,sans-Serif" font-size="10.00">map</text>
</a>
</g>
</g>
<!-- Node18&#45;&gt;Node20 -->
<g id="edge19" class="edge">
<title>Node18&#45;&gt;Node20</title>
<path fill="none" stroke="midnightblue" d="M821.66,-124.01C824.83,-123.66 827.98,-123.32 831.06,-123 1003.05,-104.96 1209.82,-86.97 1285.48,-80.5"/>
<polygon fill="midnightblue" stroke="midnightblue" points="1286.01,-83.97 1295.68,-79.64 1285.42,-77 1286.01,-83.97"/>
</g>
<!-- Node21 -->
<g id="node19" class="node">
<title>Node21</title>
<g id="a_node19"><a xlink:title=" ">
<polygon fill="white" stroke="#bfbfbf" points="808.56,-67.5 808.56,-86.5 869.56,-86.5 869.56,-67.5 808.56,-67.5"/>
<text text-anchor="middle" x="839.06" y="-74.5" font-family="Helvetica,sans-Serif" font-size="10.00">TGraph.h</text>
</a>
</g>
</g>
<!-- Node18&#45;&gt;Node21 -->
<g id="edge20" class="edge">
<title>Node18&#45;&gt;Node21</title>
<path fill="none" stroke="midnightblue" d="M767.72,-123.32C780.98,-114.9 801.33,-101.97 816.91,-92.07"/>
<polygon fill="midnightblue" stroke="midnightblue" points="818.87,-94.97 825.44,-86.65 815.12,-89.06 818.87,-94.97"/>
</g>
<!-- Node22 -->
<g id="node20" class="node">
<title>Node22</title>
<g id="a_node20"><a xlink:title=" ">
<polygon fill="white" stroke="#bfbfbf" points="887.56,-67.5 887.56,-86.5 940.56,-86.5 940.56,-67.5 887.56,-67.5"/>
<text text-anchor="middle" x="914.06" y="-74.5" font-family="Helvetica,sans-Serif" font-size="10.00">TH2D.h</text>
</a>
</g>
</g>
<!-- Node18&#45;&gt;Node22 -->
<g id="edge21" class="edge">
<title>Node18&#45;&gt;Node22</title>
<path fill="none" stroke="midnightblue" d="M779.41,-123.44C806.33,-114.36 849.06,-99.94 879.15,-89.78"/>
<polygon fill="midnightblue" stroke="midnightblue" points="880.47,-93.03 888.83,-86.52 878.23,-86.4 880.47,-93.03"/>
</g>
<!-- Node25&#45;&gt;Node3 -->
<g id="edge34" class="edge">
<title>Node25&#45;&gt;Node3</title>
<path fill="none" stroke="midnightblue" d="M735.91,-291.44C708.04,-282.32 663.71,-267.81 632.66,-257.65"/>
<polygon fill="midnightblue" stroke="midnightblue" points="633.67,-254.3 623.08,-254.52 631.5,-260.95 633.67,-254.3"/>
</g>
<!-- Node25&#45;&gt;Node4 -->
<g id="edge25" class="edge">
<title>Node25&#45;&gt;Node4</title>
<path fill="none" stroke="midnightblue" d="M755.54,-291.39C744.95,-277.87 722.79,-251.52 699.06,-235 678.86,-220.93 653.55,-209.74 633.2,-202.03"/>
<polygon fill="midnightblue" stroke="midnightblue" points="634.25,-198.68 623.65,-198.53 631.84,-205.26 634.25,-198.68"/>
</g>
<!-- Node26 -->
<g id="node24" class="node">
<title>Node26</title>
<g id="a_node24"><a xlink:href="_o_m_sim_hit_manager_8hh.html" target="_top" xlink:title="Defines structures and classes related to optical module photon hit management.">
<polygon fill="white" stroke="black" points="745.56,-235.5 745.56,-254.5 868.56,-254.5 868.56,-235.5 745.56,-235.5"/>
<text text-anchor="middle" x="807.06" y="-242.5" font-family="Helvetica,sans-Serif" font-size="10.00">OMSimHitManager.hh</text>
</a>
</g>
</g>
<!-- Node25&#45;&gt;Node26 -->
<g id="edge26" class="edge">
<title>Node25&#45;&gt;Node26</title>
<path fill="none" stroke="midnightblue" d="M769.49,-291.08C775.91,-283.38 785.36,-272.03 793.18,-262.65"/>
<polygon fill="midnightblue" stroke="midnightblue" points="796.05,-264.67 799.77,-254.75 790.68,-260.19 796.05,-264.67"/>
</g>
<!-- Node26&#45;&gt;Node18 -->
<g id="edge27" class="edge">
<title>Node26&#45;&gt;Node18</title>
<path fill="none" stroke="midnightblue" d="M800.69,-235.37C794.37,-226.56 784.7,-212.3 778.06,-199 770.5,-183.87 764.01,-165.74 759.69,-152.48"/>
<polygon fill="midnightblue" stroke="midnightblue" points="762.93,-151.15 756.59,-142.66 756.26,-153.25 762.93,-151.15"/>
</g>
<!-- Node27 -->
<g id="node25" class="node">
<title>Node27</title>
<g id="a_node25"><a xlink:href="_o_m_sim_sensitive_detector_8hh.html" target="_top" xlink:title=" ">
<polygon fill="white" stroke="red" points="820.56,-179.5 820.56,-198.5 973.56,-198.5 973.56,-179.5 820.56,-179.5"/>
<text text-anchor="middle" x="897.06" y="-186.5" font-family="Helvetica,sans-Serif" font-size="10.00">OMSimSensitiveDetector.hh</text>
</a>
</g>
</g>
<!-- Node26&#45;&gt;Node27 -->
<g id="edge28" class="edge">
<title>Node26&#45;&gt;Node27</title>
<path fill="none" stroke="midnightblue" d="M821.52,-235.32C835.56,-226.9 857.11,-213.97 873.6,-204.07"/>
<polygon fill="midnightblue" stroke="midnightblue" points="875.86,-206.8 882.64,-198.65 872.26,-200.8 875.86,-206.8"/>
</g>
<!-- Node29 -->
<g id="node26" class="node">
<title>Node29</title>
<g id="a_node26"><a xlink:title=" ">
<polygon fill="white" stroke="#bfbfbf" points="839.56,-123.5 839.56,-142.5 942.56,-142.5 942.56,-123.5 839.56,-123.5"/>
<text text-anchor="middle" x="891.06" y="-130.5" font-family="Helvetica,sans-Serif" font-size="10.00">G4ThreeVector.hh</text>
</a>
</g>
</g>
<!-- Node26&#45;&gt;Node29 -->
<g id="edge32" class="edge">
<title>Node26&#45;&gt;Node29</title>
<path fill="none" stroke="midnightblue" d="M805.31,-235.21C803.16,-221.91 801.03,-196.4 812.06,-179 821.51,-164.1 837.77,-153.63 853.09,-146.56"/>
<polygon fill="midnightblue" stroke="midnightblue" points="854.6,-149.72 862.44,-142.59 851.87,-143.28 854.6,-149.72"/>
</g>
<!-- Node31 -->
<g id="node28" class="node">
<title>Node31</title>
<g id="a_node28"><a xlink:title=" ">
<polygon fill="white" stroke="#bfbfbf" points="1252.56,-123.5 1252.56,-142.5 1307.56,-142.5 1307.56,-123.5 1252.56,-123.5"/>
<text text-anchor="middle" x="1280.06" y="-130.5" font-family="Helvetica,sans-Serif" font-size="10.00">fstream</text>
</a>
</g>
</g>
<!-- Node26&#45;&gt;Node31 -->
<g id="edge33" class="edge">
<title>Node26&#45;&gt;Node31</title>
<path fill="none" stroke="midnightblue" d="M868.82,-243.45C941.47,-241.18 1064.86,-232.18 1165.06,-199 1183.93,-192.75 1230,-165.15 1257.76,-147.98"/>
<polygon fill="midnightblue" stroke="midnightblue" points="1259.76,-150.86 1266.41,-142.61 1256.07,-144.91 1259.76,-150.86"/>
</g>
<!-- Node27&#45;&gt;Node18 -->
<g id="edge30" class="edge">
<title>Node27&#45;&gt;Node18</title>
<path fill="none" stroke="midnightblue" d="M874.4,-179.44C850.66,-170.48 813.15,-156.31 786.32,-146.18"/>
<polygon fill="midnightblue" stroke="midnightblue" points="787.2,-142.77 776.61,-142.52 784.73,-149.32 787.2,-142.77"/>
</g>
<!-- Node27&#45;&gt;Node29 -->
<g id="edge29" class="edge">
<title>Node27&#45;&gt;Node29</title>
<path fill="none" stroke="midnightblue" d="M896.07,-179.08C895.27,-171.93 894.13,-161.64 893.14,-152.69"/>
<polygon fill="midnightblue" stroke="midnightblue" points="896.61,-152.3 892.03,-142.75 889.66,-153.08 896.61,-152.3"/>
</g>
<!-- Node30 -->
<g id="node27" class="node">
<title>Node30</title>
<g id="a_node27"><a xlink:title=" ">
<polygon fill="white" stroke="#bfbfbf" points="1187.56,-123.5 1187.56,-142.5 1234.56,-142.5 1234.56,-123.5 1187.56,-123.5"/>
<text text-anchor="middle" x="1211.06" y="-130.5" font-family="Helvetica,sans-Serif" font-size="10.00">vector</text>
</a>
</g>
</g>
<!-- Node27&#45;&gt;Node30 -->
<g id="edge31" class="edge">
<title>Node27&#45;&gt;Node30</title>
<path fill="none" stroke="midnightblue" d="M963.01,-179.48C1017.85,-171.93 1098.1,-159.81 1177.2,-142.98"/>
<polygon fill="midnightblue" stroke="midnightblue" points="1178.3,-146.32 1187.34,-140.8 1176.83,-139.48 1178.3,-146.32"/>
</g>
<!-- Node34&#45;&gt;Node9 -->
<g id="edge43" class="edge">
<title>Node34&#45;&gt;Node9</title>
<path fill="none" stroke="midnightblue" d="M1821.39,-179.46C1794.19,-171.09 1752.34,-157.51 1717.06,-143 1698.31,-135.29 1695.18,-129.74 1676.06,-123 1522.2,-68.74 1329.88,-35.1 1248.42,-22.34"/>
<polygon fill="midnightblue" stroke="midnightblue" points="1248.55,-18.82 1238.14,-20.75 1247.48,-25.73 1248.55,-18.82"/>
</g>
<!-- Node34&#45;&gt;Node20 -->
<g id="edge40" class="edge">
<title>Node34&#45;&gt;Node20</title>
<path fill="none" stroke="midnightblue" d="M1811.24,-179.46C1777.22,-171.51 1726.69,-158.56 1684.06,-143 1664.26,-135.77 1661.28,-128.95 1641.06,-123 1534.73,-91.7 1402.34,-82 1344.45,-79.13"/>
<polygon fill="midnightblue" stroke="midnightblue" points="1344.37,-75.63 1334.22,-78.66 1344.04,-82.62 1344.37,-75.63"/>
</g>
<!-- Node34&#45;&gt;Node29 -->
<g id="edge41" class="edge">
<title>Node34&#45;&gt;Node29</title>
<path fill="none" stroke="midnightblue" d="M1810.16,-186.46C1687.62,-181.6 1305.84,-165.61 990.06,-143 978.02,-142.14 965.18,-141.08 952.86,-139.99"/>
<polygon fill="midnightblue" stroke="midnightblue" points="952.94,-136.48 942.67,-139.07 952.31,-143.45 952.94,-136.48"/>
</g>
<!-- Node34&#45;&gt;Node30 -->
<g id="edge44" class="edge">
<title>Node34&#45;&gt;Node30</title>
<path fill="none" stroke="midnightblue" d="M1810.39,-187.68C1714.61,-186.35 1463.15,-179.53 1244.77,-142.76"/>
<polygon fill="midnightblue" stroke="midnightblue" points="1245.18,-139.28 1234.73,-141.04 1244,-146.18 1245.18,-139.28"/>
</g>
<!-- Node34&#45;&gt;Node31 -->
<g id="edge54" class="edge">
<title>Node34&#45;&gt;Node31</title>
<path fill="none" stroke="midnightblue" d="M1810.35,-186.74C1722.98,-183.53 1507.45,-173.14 1317.72,-142.84"/>
<polygon fill="midnightblue" stroke="midnightblue" points="1318.28,-139.39 1307.85,-141.25 1317.16,-146.3 1318.28,-139.39"/>
</g>
<!-- Node34&#45;&gt;Node32 -->
<g id="edge48" class="edge">
<title>Node34&#45;&gt;Node32</title>
<path fill="none" stroke="midnightblue" d="M1810.49,-183.78C1740.59,-176.26 1590.45,-159.88 1452.22,-143"/>
<polygon fill="midnightblue" stroke="midnightblue" points="1452.64,-139.52 1442.29,-141.78 1451.79,-146.47 1452.64,-139.52"/>
</g>
<!-- Node35 -->
<g id="node32" class="node">
<title>Node35</title>
<g id="a_node32"><a xlink:title=" ">
<polygon fill="white" stroke="#bfbfbf" points="1726.06,-123.5 1726.06,-142.5 1800.06,-142.5 1800.06,-123.5 1726.06,-123.5"/>
<text text-anchor="middle" x="1763.06" y="-130.5" font-family="Helvetica,sans-Serif" font-size="10.00">G4String.hh</text>
</a>
</g>
</g>
<!-- Node34&#45;&gt;Node35 -->
<g id="edge38" class="edge">
<title>Node34&#45;&gt;Node35</title>
<path fill="none" stroke="midnightblue" d="M1836.08,-179.32C1822.51,-170.9 1801.68,-157.97 1785.73,-148.07"/>
<polygon fill="midnightblue" stroke="midnightblue" points="1787.34,-144.95 1777,-142.65 1783.65,-150.9 1787.34,-144.95"/>
</g>
<!-- Node36 -->
<g id="node33" class="node">
<title>Node36</title>
<g id="a_node33"><a xlink:title=" ">
<polygon fill="white" stroke="#bfbfbf" points="1818.06,-123.5 1818.06,-142.5 1882.06,-142.5 1882.06,-123.5 1818.06,-123.5"/>
<text text-anchor="middle" x="1850.06" y="-130.5" font-family="Helvetica,sans-Serif" font-size="10.00">algorithm</text>
</a>
</g>
</g>
<!-- Node34&#45;&gt;Node36 -->
<g id="edge39" class="edge">
<title>Node34&#45;&gt;Node36</title>
<path fill="none" stroke="midnightblue" d="M1850.06,-179.08C1850.06,-172.01 1850.06,-161.86 1850.06,-152.99"/>
<polygon fill="midnightblue" stroke="midnightblue" points="1853.56,-152.75 1850.06,-142.75 1846.56,-152.75 1853.56,-152.75"/>
</g>
<!-- Node37 -->
<g id="node34" class="node">
<title>Node37</title>
<g id="a_node34"><a xlink:title=" ">
<polygon fill="white" stroke="#bfbfbf" points="1900.56,-123.5 1900.56,-142.5 2019.56,-142.5 2019.56,-123.5 1900.56,-123.5"/>
<text text-anchor="middle" x="1960.06" y="-130.5" font-family="Helvetica,sans-Serif" font-size="10.00">G4TriangularFacet.hh</text>
</a>
</g>
</g>
<!-- Node34&#45;&gt;Node37 -->
<g id="edge42" class="edge">
<title>Node34&#45;&gt;Node37</title>
<path fill="none" stroke="midnightblue" d="M1867.73,-179.32C1885.45,-170.62 1912.96,-157.12 1933.35,-147.11"/>
<polygon fill="midnightblue" stroke="midnightblue" points="1935,-150.2 1942.43,-142.65 1931.91,-143.92 1935,-150.2"/>
</g>
<!-- Node38 -->
<g id="node35" class="node">
<title>Node38</title>
<g id="a_node35"><a xlink:title=" ">
<polygon fill="white" stroke="#bfbfbf" points="2038.06,-123.5 2038.06,-142.5 2098.06,-142.5 2098.06,-123.5 2038.06,-123.5"/>
<text text-anchor="middle" x="2068.06" y="-130.5" font-family="Helvetica,sans-Serif" font-size="10.00">iostream</text>
</a>
</g>
</g>
<!-- Node34&#45;&gt;Node38 -->
<g id="edge45" class="edge">
<title>Node34&#45;&gt;Node38</title>
<path fill="none" stroke="midnightblue" d="M1884.6,-179.44C1923.56,-169.79 1986.83,-154.12 2027.94,-143.94"/>
<polygon fill="midnightblue" stroke="midnightblue" points="2029.03,-147.27 2037.89,-141.47 2027.34,-140.48 2029.03,-147.27"/>
</g>
<!-- Node39 -->
<g id="node36" class="node">
<title>Node39</title>
<g id="a_node36"><a xlink:title=" ">
<polygon fill="white" stroke="#bfbfbf" points="2116.06,-123.5 2116.06,-142.5 2160.06,-142.5 2160.06,-123.5 2116.06,-123.5"/>
<text text-anchor="middle" x="2138.06" y="-130.5" font-family="Helvetica,sans-Serif" font-size="10.00">string</text>
</a>
</g>
</g>
<!-- Node34&#45;&gt;Node39 -->
<g id="edge46" class="edge">
<title>Node34&#45;&gt;Node39</title>
<path fill="none" stroke="midnightblue" d="M1889.95,-182.4C1938.73,-175.24 2023.95,-161.76 2105.82,-143.09"/>
<polygon fill="midnightblue" stroke="midnightblue" points="2106.83,-146.44 2115.78,-140.78 2105.25,-139.62 2106.83,-146.44"/>
</g>
<!-- Node40 -->
<g id="node37" class="node">
<title>Node40</title>
<g id="a_node37"><a xlink:title=" ">
<polygon fill="white" stroke="#bfbfbf" points="2178.06,-123.5 2178.06,-142.5 2308.06,-142.5 2308.06,-123.5 2178.06,-123.5"/>
<text text-anchor="middle" x="2243.06" y="-130.5" font-family="Helvetica,sans-Serif" font-size="10.00">G4AssemblyVolume.hh</text>
</a>
</g>
</g>
<!-- Node34&#45;&gt;Node40 -->
<g id="edge47" class="edge">
<title>Node34&#45;&gt;Node40</title>
<path fill="none" stroke="midnightblue" d="M1889.91,-182.53C1955.75,-173.48 2088.19,-155.28 2170.85,-143.92"/>
<polygon fill="midnightblue" stroke="midnightblue" points="2171.5,-147.37 2180.93,-142.54 2170.54,-140.43 2171.5,-147.37"/>
</g>
<!-- Node41 -->
<g id="node38" class="node">
<title>Node41</title>
<g id="a_node38"><a xlink:title=" ">
<polygon fill="white" stroke="#bfbfbf" points="2326.06,-123.5 2326.06,-142.5 2412.06,-142.5 2412.06,-123.5 2326.06,-123.5"/>
<text text-anchor="middle" x="2369.06" y="-130.5" font-family="Helvetica,sans-Serif" font-size="10.00">G4Material.hh</text>
</a>
</g>
</g>
<!-- Node34&#45;&gt;Node41 -->
<g id="edge49" class="edge">
<title>Node34&#45;&gt;Node41</title>
<path fill="none" stroke="midnightblue" d="M1889.85,-185.18C1968.94,-179.36 2151.74,-164.82 2315.7,-143.09"/>
<polygon fill="midnightblue" stroke="midnightblue" points="2316.52,-146.51 2325.97,-141.72 2315.59,-139.57 2316.52,-146.51"/>
</g>
<!-- Node42 -->
<g id="node39" class="node">
<title>Node42</title>
<g id="a_node39"><a xlink:title=" ">
<polygon fill="white" stroke="#bfbfbf" points="2430.06,-123.5 2430.06,-142.5 2554.06,-142.5 2554.06,-123.5 2430.06,-123.5"/>
<text text-anchor="middle" x="2492.06" y="-130.5" font-family="Helvetica,sans-Serif" font-size="10.00">G4TessellatedSolid.hh</text>
</a>
</g>
</g>
<!-- Node34&#45;&gt;Node42 -->
<g id="edge50" class="edge">
<title>Node34&#45;&gt;Node42</title>
<path fill="none" stroke="midnightblue" d="M1889.58,-185.53C1980.94,-179.69 2214.06,-163.99 2419.66,-143.1"/>
<polygon fill="midnightblue" stroke="midnightblue" points="2420.15,-146.57 2429.74,-142.07 2419.44,-139.6 2420.15,-146.57"/>
</g>
<!-- Node43 -->
<g id="node40" class="node">
<title>Node43</title>
<g id="a_node40"><a xlink:title=" ">
<polygon fill="white" stroke="#bfbfbf" points="2572.56,-123.5 2572.56,-142.5 2631.56,-142.5 2631.56,-123.5 2572.56,-123.5"/>
<text text-anchor="middle" x="2602.06" y="-130.5" font-family="Helvetica,sans-Serif" font-size="10.00">G4Tet.hh</text>
</a>
</g>
</g>
<!-- Node34&#45;&gt;Node43 -->
<g id="edge51" class="edge">
<title>Node34&#45;&gt;Node43</title>
<path fill="none" stroke="midnightblue" d="M1889.71,-187.77C1996.76,-186.66 2300.55,-180.33 2562.27,-142.85"/>
<polygon fill="midnightblue" stroke="midnightblue" points="2562.95,-146.28 2572.34,-141.39 2561.95,-139.36 2562.95,-146.28"/>
</g>
<!-- Node44 -->
<g id="node41" class="node">
<title>Node44</title>
<g id="a_node41"><a xlink:title=" ">
<polygon fill="white" stroke="#bfbfbf" points="2650.06,-123.5 2650.06,-142.5 2754.06,-142.5 2754.06,-123.5 2650.06,-123.5"/>
<text text-anchor="middle" x="2702.06" y="-130.5" font-family="Helvetica,sans-Serif" font-size="10.00">G4UIcommand.hh</text>
</a>
</g>
</g>
<!-- Node34&#45;&gt;Node44 -->
<g id="edge52" class="edge">
<title>Node34&#45;&gt;Node44</title>
<path fill="none" stroke="midnightblue" d="M1889.67,-187C2004.21,-183.85 2345.91,-172.57 2639.86,-143.03"/>
<polygon fill="midnightblue" stroke="midnightblue" points="2640.26,-146.51 2649.85,-142.02 2639.55,-139.54 2640.26,-146.51"/>
</g>
<!-- Node45 -->
<g id="node42" class="node">
<title>Node45</title>
<g id="a_node42"><a xlink:title=" ">
<polygon fill="white" stroke="#bfbfbf" points="2772.56,-123.5 2772.56,-142.5 2839.56,-142.5 2839.56,-123.5 2772.56,-123.5"/>
<text text-anchor="middle" x="2806.06" y="-130.5" font-family="Helvetica,sans-Serif" font-size="10.00">globals.hh</text>
</a>
</g>
</g>
<!-- Node34&#45;&gt;Node45 -->
<g id="edge53" class="edge">
<title>Node34&#45;&gt;Node45</title>
<path fill="none" stroke="midnightblue" d="M1889.86,-188.26C2016.17,-188.63 2419.41,-186.18 2762.22,-142.87"/>
<polygon fill="midnightblue" stroke="midnightblue" points="2762.87,-146.32 2772.34,-141.58 2761.98,-139.37 2762.87,-146.32"/>
</g>
<!-- Node46 -->
<g id="node43" class="node">
<title>Node46</title>
<g id="a_node43"><a xlink:title=" ">
<polygon fill="white" stroke="#bfbfbf" points="2858.06,-123.5 2858.06,-142.5 2914.06,-142.5 2914.06,-123.5 2858.06,-123.5"/>
<text text-anchor="middle" x="2886.06" y="-130.5" font-family="Helvetica,sans-Serif" font-size="10.00">sstream</text>
</a>
</g>
</g>
<!-- Node34&#45;&gt;Node46 -->
<g id="edge55" class="edge">
<title>Node34&#45;&gt;Node46</title>
<path fill="none" stroke="midnightblue" d="M1889.77,-187.24C2048.65,-184.03 2639.46,-170.59 2847.95,-142.82"/>
<polygon fill="midnightblue" stroke="midnightblue" points="2848.46,-146.29 2857.89,-141.45 2847.5,-139.35 2848.46,-146.29"/>
</g>
<!-- Node47 -->
<g id="node44" class="node">
<title>Node47</title>
<g id="a_node44"><a xlink:title=" ">
<polygon fill="white" stroke="#bfbfbf" points="1460.56,-123.5 1460.56,-142.5 1527.56,-142.5 1527.56,-123.5 1460.56,-123.5"/>
<text text-anchor="middle" x="1494.06" y="-130.5" font-family="Helvetica,sans-Serif" font-size="10.00">streambuf</text>
</a>
</g>
</g>
<!-- Node34&#45;&gt;Node47 -->
<g id="edge56" class="edge">
<title>Node34&#45;&gt;Node47</title>
<path fill="none" stroke="midnightblue" d="M1810.4,-183.12C1752.72,-175.84 1642.11,-161.21 1537.89,-143.05"/>
<polygon fill="midnightblue" stroke="midnightblue" points="1538.28,-139.56 1527.82,-141.28 1537.06,-146.46 1538.28,-139.56"/>
</g>
<!-- Node48 -->
<g id="node45" class="node">
<title>Node48</title>
<g id="a_node45"><a xlink:title=" ">
<polygon fill="white" stroke="#bfbfbf" points="1546.06,-123.5 1546.06,-142.5 1632.06,-142.5 1632.06,-123.5 1546.06,-123.5"/>
<text text-anchor="middle" x="1589.06" y="-130.5" font-family="Helvetica,sans-Serif" font-size="10.00">Randomize.hh</text>
</a>
</g>
</g>
<!-- Node34&#45;&gt;Node48 -->
<g id="edge57" class="edge">
<title>Node34&#45;&gt;Node48</title>
<path fill="none" stroke="midnightblue" d="M1810.42,-179.8C1764.92,-170.39 1690.18,-154.92 1640.31,-144.6"/>
<polygon fill="midnightblue" stroke="midnightblue" points="1640.87,-141.15 1630.37,-142.55 1639.45,-148 1640.87,-141.15"/>
</g>
<!-- Node49&#45;&gt;Node6 -->
<g id="edge60" class="edge">
<title>Node49&#45;&gt;Node6</title>
<path fill="none" stroke="midnightblue" d="M1057.83,-179.3C1024.96,-161.69 953.47,-123.43 952.06,-123 792.69,-75.1 742.34,-106.55 572.63,-86.97"/>
<polygon fill="midnightblue" stroke="midnightblue" points="572.95,-83.48 562.61,-85.77 572.12,-90.43 572.95,-83.48"/>
</g>
<!-- Node49&#45;&gt;Node31 -->
<g id="edge61" class="edge">
<title>Node49&#45;&gt;Node31</title>
<path fill="none" stroke="midnightblue" d="M1106.7,-179.44C1143.67,-169.75 1203.81,-153.99 1242.65,-143.81"/>
<polygon fill="midnightblue" stroke="midnightblue" points="1243.73,-147.14 1252.52,-141.22 1241.95,-140.37 1243.73,-147.14"/>
</g>
<!-- Node50 -->
<g id="node47" class="node">
<title>Node50</title>
<g id="a_node47"><a xlink:title=" ">
<polygon fill="white" stroke="#bfbfbf" points="999.06,-123.5 999.06,-142.5 1083.06,-142.5 1083.06,-123.5 999.06,-123.5"/>
<text text-anchor="middle" x="1041.06" y="-130.5" font-family="Helvetica,sans-Serif" font-size="10.00">boost/any.hpp</text>
</a>
</g>
</g>
<!-- Node49&#45;&gt;Node50 -->
<g id="edge62" class="edge">
<title>Node49&#45;&gt;Node50</title>
<path fill="none" stroke="midnightblue" d="M1068.61,-179.08C1064.04,-171.61 1057.39,-160.72 1051.77,-151.52"/>
<polygon fill="midnightblue" stroke="midnightblue" points="1054.61,-149.46 1046.41,-142.75 1048.64,-153.11 1054.61,-149.46"/>
</g>
<!-- Node51 -->
<g id="node48" class="node">
<title>Node51</title>
<g id="a_node48"><a xlink:title=" ">
<polygon fill="white" stroke="#bfbfbf" points="1101.06,-123.5 1101.06,-142.5 1169.06,-142.5 1169.06,-123.5 1101.06,-123.5"/>
<text text-anchor="middle" x="1135.06" y="-130.5" font-family="Helvetica,sans-Serif" font-size="10.00">sys/time.h</text>
</a>
</g>
</g>
<!-- Node49&#45;&gt;Node51 -->
<g id="edge63" class="edge">
<title>Node49&#45;&gt;Node51</title>
<path fill="none" stroke="midnightblue" d="M1083.86,-179.32C1092.88,-171.34 1106.47,-159.31 1117.38,-149.65"/>
<polygon fill="midnightblue" stroke="midnightblue" points="1119.91,-152.08 1125.08,-142.83 1115.27,-146.84 1119.91,-152.08"/>
</g>
</g>
</svg>
