<?xml version="1.0" encoding="UTF-8" standalone="no"?>
<!DOCTYPE svg PUBLIC "-//W3C//DTD SVG 1.1//EN"
 "http://www.w3.org/Graphics/SVG/1.1/DTD/svg11.dtd">
<!-- Generated by graphviz version 2.43.0 (0)
 -->
<!-- Title: OMSimDecaysGPS.hh Pages: 1 -->
<svg width="1028pt" height="319pt"
 viewBox="0.00 0.00 1027.50 319.00" xmlns="http://www.w3.org/2000/svg" xmlns:xlink="http://www.w3.org/1999/xlink">
<g id="graph0" class="graph" transform="scale(1 1) rotate(0) translate(4 315)">
<title>OMSimDecaysGPS.hh</title>
<polygon fill="white" stroke="transparent" points="-4,4 -4,-315 1023.5,-315 1023.5,4 -4,4"/>
<!-- Node1 -->
<g id="node1" class="node">
<title>Node1</title>
<g id="a_node1"><a xlink:title="Defines the OMSimDecaysGPS class for the radioactive decays simulation.">
<polygon fill="#bfbfbf" stroke="black" points="515.5,-291.5 515.5,-310.5 637.5,-310.5 637.5,-291.5 515.5,-291.5"/>
<text text-anchor="middle" x="576.5" y="-298.5" font-family="Helvetica,sans-Serif" font-size="10.00">OMSimDecaysGPS.hh</text>
</a>
</g>
</g>
<!-- Node2 -->
<g id="node2" class="node">
<title>Node2</title>
<g id="a_node2"><a xlink:href="_o_m_sim_optical_module_8hh.html" target="_top" xlink:title=" ">
<polygon fill="white" stroke="black" points="448,-235.5 448,-254.5 585,-254.5 585,-235.5 448,-235.5"/>
<text text-anchor="middle" x="516.5" y="-242.5" font-family="Helvetica,sans-Serif" font-size="10.00">OMSimOpticalModule.hh</text>
</a>
</g>
</g>
<!-- Node1&#45;&gt;Node2 -->
<g id="edge1" class="edge">
<title>Node1&#45;&gt;Node2</title>
<path fill="none" stroke="midnightblue" d="M566.86,-291.32C557.99,-283.34 544.63,-271.31 533.89,-261.65"/>
<polygon fill="midnightblue" stroke="midnightblue" points="536.09,-258.92 526.32,-254.83 531.41,-264.13 536.09,-258.92"/>
</g>
<!-- Node23 -->
<g id="node23" class="node">
<title>Node23</title>
<g id="a_node23"><a xlink:title=" ">
<polygon fill="white" stroke="#bfbfbf" points="603,-235.5 603,-254.5 670,-254.5 670,-235.5 603,-235.5"/>
<text text-anchor="middle" x="636.5" y="-242.5" font-family="Helvetica,sans-Serif" font-size="10.00">globals.hh</text>
</a>
</g>
</g>
<!-- Node1&#45;&gt;Node23 -->
<g id="edge26" class="edge">
<title>Node1&#45;&gt;Node23</title>
<path fill="none" stroke="midnightblue" d="M586.14,-291.32C595.01,-283.34 608.37,-271.31 619.11,-261.65"/>
<polygon fill="midnightblue" stroke="midnightblue" points="621.59,-264.13 626.68,-254.83 616.91,-258.92 621.59,-264.13"/>
</g>
<!-- Node3 -->
<g id="node3" class="node">
<title>Node3</title>
<g id="a_node3"><a xlink:href="abc_detector_component_8hh.html" target="_top" xlink:title="Provides helper base class abcDetectorComponent for constructing and managing detector components in ...">
<polygon fill="white" stroke="black" points="494,-123.5 494,-142.5 641,-142.5 641,-123.5 494,-123.5"/>
<text text-anchor="middle" x="567.5" y="-130.5" font-family="Helvetica,sans-Serif" font-size="10.00">abcDetectorComponent.hh</text>
</a>
</g>
</g>
<!-- Node2&#45;&gt;Node3 -->
<g id="edge2" class="edge">
<title>Node2&#45;&gt;Node3</title>
<path fill="none" stroke="midnightblue" d="M518.09,-235.25C520.63,-222.44 526.27,-198.04 535.5,-179 540.35,-168.99 547.38,-158.81 553.61,-150.67"/>
<polygon fill="midnightblue" stroke="midnightblue" points="556.43,-152.75 559.93,-142.74 550.96,-148.38 556.43,-152.75"/>
</g>
<!-- Node12 -->
<g id="node12" class="node">
<title>Node12</title>
<g id="a_node12"><a xlink:href="_o_m_sim_hit_manager_8hh.html" target="_top" xlink:title="Defines structures and classes related to optical module photon hit management.">
<polygon fill="white" stroke="black" points="144,-179.5 144,-198.5 267,-198.5 267,-179.5 144,-179.5"/>
<text text-anchor="middle" x="205.5" y="-186.5" font-family="Helvetica,sans-Serif" font-size="10.00">OMSimHitManager.hh</text>
</a>
</g>
</g>
<!-- Node2&#45;&gt;Node12 -->
<g id="edge11" class="edge">
<title>Node2&#45;&gt;Node12</title>
<path fill="none" stroke="midnightblue" d="M467.22,-235.44C412.17,-225.89 323.1,-210.42 264.42,-200.23"/>
<polygon fill="midnightblue" stroke="midnightblue" points="265,-196.78 254.55,-198.52 263.8,-203.68 265,-196.78"/>
</g>
<!-- Node20 -->
<g id="node20" class="node">
<title>Node20</title>
<g id="a_node20"><a xlink:href="_o_m_sim_p_m_t_construction_8hh.html" target="_top" xlink:title="Construction of the PMTs.">
<polygon fill="white" stroke="black" points="544,-179.5 544,-198.5 693,-198.5 693,-179.5 544,-179.5"/>
<text text-anchor="middle" x="618.5" y="-186.5" font-family="Helvetica,sans-Serif" font-size="10.00">OMSimPMTConstruction.hh</text>
</a>
</g>
</g>
<!-- Node2&#45;&gt;Node20 -->
<g id="edge20" class="edge">
<title>Node2&#45;&gt;Node20</title>
<path fill="none" stroke="midnightblue" d="M532.89,-235.32C549.17,-226.7 574.37,-213.36 593.22,-203.39"/>
<polygon fill="midnightblue" stroke="midnightblue" points="594.95,-206.43 602.15,-198.65 591.68,-200.24 594.95,-206.43"/>
</g>
<!-- Node4 -->
<g id="node4" class="node">
<title>Node4</title>
<g id="a_node4"><a xlink:href="_o_m_sim_input_data_8hh.html" target="_top" xlink:title="Definition of ParameterTable and InputDataManager.">
<polygon fill="white" stroke="black" points="381,-67.5 381,-86.5 496,-86.5 496,-67.5 381,-67.5"/>
<text text-anchor="middle" x="438.5" y="-74.5" font-family="Helvetica,sans-Serif" font-size="10.00">OMSimInputData.hh</text>
</a>
</g>
</g>
<!-- Node3&#45;&gt;Node4 -->
<g id="edge3" class="edge">
<title>Node3&#45;&gt;Node4</title>
<path fill="none" stroke="midnightblue" d="M547.06,-123.44C525.83,-114.56 492.4,-100.56 468.25,-90.45"/>
<polygon fill="midnightblue" stroke="midnightblue" points="469.42,-87.15 458.84,-86.52 466.72,-93.61 469.42,-87.15"/>
</g>
<!-- Node8 -->
<g id="node8" class="node">
<title>Node8</title>
<g id="a_node8"><a xlink:title=" ">
<polygon fill="white" stroke="#bfbfbf" points="514,-67.5 514,-86.5 621,-86.5 621,-67.5 514,-67.5"/>
<text text-anchor="middle" x="567.5" y="-74.5" font-family="Helvetica,sans-Serif" font-size="10.00">G4Transform3D.hh</text>
</a>
</g>
</g>
<!-- Node3&#45;&gt;Node8 -->
<g id="edge7" class="edge">
<title>Node3&#45;&gt;Node8</title>
<path fill="none" stroke="midnightblue" d="M567.5,-123.08C567.5,-116.01 567.5,-105.86 567.5,-96.99"/>
<polygon fill="midnightblue" stroke="midnightblue" points="571,-96.75 567.5,-86.75 564,-96.75 571,-96.75"/>
</g>
<!-- Node9 -->
<g id="node9" class="node">
<title>Node9</title>
<g id="a_node9"><a xlink:title=" ">
<polygon fill="white" stroke="#bfbfbf" points="639.5,-67.5 639.5,-86.5 747.5,-86.5 747.5,-67.5 639.5,-67.5"/>
<text text-anchor="middle" x="693.5" y="-74.5" font-family="Helvetica,sans-Serif" font-size="10.00">G4VisAttributes.hh</text>
</a>
</g>
</g>
<!-- Node3&#45;&gt;Node9 -->
<g id="edge8" class="edge">
<title>Node3&#45;&gt;Node9</title>
<path fill="none" stroke="midnightblue" d="M587.47,-123.44C608.11,-114.6 640.56,-100.69 664.13,-90.59"/>
<polygon fill="midnightblue" stroke="midnightblue" points="665.82,-93.67 673.63,-86.52 663.06,-87.24 665.82,-93.67"/>
</g>
<!-- Node10 -->
<g id="node10" class="node">
<title>Node10</title>
<g id="a_node10"><a xlink:title=" ">
<polygon fill="white" stroke="#bfbfbf" points="766,-67.5 766,-86.5 891,-86.5 891,-67.5 766,-67.5"/>
<text text-anchor="middle" x="828.5" y="-74.5" font-family="Helvetica,sans-Serif" font-size="10.00">G4SubtractionSolid.hh</text>
</a>
</g>
</g>
<!-- Node3&#45;&gt;Node10 -->
<g id="edge9" class="edge">
<title>Node3&#45;&gt;Node10</title>
<path fill="none" stroke="midnightblue" d="M608.86,-123.44C654.58,-113.98 728.26,-98.74 777.52,-88.55"/>
<polygon fill="midnightblue" stroke="midnightblue" points="778.25,-91.97 787.34,-86.52 776.84,-85.12 778.25,-91.97"/>
</g>
<!-- Node11 -->
<g id="node11" class="node">
<title>Node11</title>
<g id="a_node11"><a xlink:title=" ">
<polygon fill="white" stroke="#bfbfbf" points="909.5,-67.5 909.5,-86.5 1019.5,-86.5 1019.5,-67.5 909.5,-67.5"/>
<text text-anchor="middle" x="964.5" y="-74.5" font-family="Helvetica,sans-Serif" font-size="10.00">G4PVPlacement.hh</text>
</a>
</g>
</g>
<!-- Node3&#45;&gt;Node11 -->
<g id="edge10" class="edge">
<title>Node3&#45;&gt;Node11</title>
<path fill="none" stroke="midnightblue" d="M631.35,-123.48C696.24,-114.79 799.93,-100.84 899.42,-87.14"/>
<polygon fill="midnightblue" stroke="midnightblue" points="899.92,-90.61 909.34,-85.78 898.96,-83.67 899.92,-90.61"/>
</g>
<!-- Node5 -->
<g id="node5" class="node">
<title>Node5</title>
<g id="a_node5"><a xlink:title=" ">
<polygon fill="white" stroke="#bfbfbf" points="294,-6 294,-25 437,-25 437,-6 294,-6"/>
<text text-anchor="middle" x="365.5" y="-13" font-family="Helvetica,sans-Serif" font-size="10.00">G4OpBoundaryProcess.hh</text>
</a>
</g>
</g>
<!-- Node4&#45;&gt;Node5 -->
<g id="edge4" class="edge">
<title>Node4&#45;&gt;Node5</title>
<path fill="none" stroke="midnightblue" d="M428.04,-67.48C416.55,-58.11 397.87,-42.88 383.91,-31.51"/>
<polygon fill="midnightblue" stroke="midnightblue" points="385.9,-28.61 375.94,-25.01 381.48,-34.04 385.9,-28.61"/>
</g>
<!-- Node6 -->
<g id="node6" class="node">
<title>Node6</title>
<g id="a_node6"><a xlink:title=" ">
<polygon fill="white" stroke="#bfbfbf" points="113,-6 113,-25 232,-25 232,-6 113,-6"/>
<text text-anchor="middle" x="172.5" y="-13" font-family="Helvetica,sans-Serif" font-size="10.00">G4SystemOfUnits.hh</text>
</a>
</g>
</g>
<!-- Node4&#45;&gt;Node6 -->
<g id="edge5" class="edge">
<title>Node4&#45;&gt;Node6</title>
<path fill="none" stroke="midnightblue" d="M400.39,-67.48C352.98,-56.87 272.02,-38.76 220.44,-27.22"/>
<polygon fill="midnightblue" stroke="midnightblue" points="221.06,-23.78 210.54,-25.01 219.54,-30.61 221.06,-23.78"/>
</g>
<!-- Node7 -->
<g id="node7" class="node">
<title>Node7</title>
<g id="a_node7"><a xlink:title=" ">
<polygon fill="white" stroke="#bfbfbf" points="455,-0.5 455,-30.5 568,-30.5 568,-0.5 455,-0.5"/>
<text text-anchor="start" x="463" y="-18.5" font-family="Helvetica,sans-Serif" font-size="10.00">boost/property_tree</text>
<text text-anchor="middle" x="511.5" y="-7.5" font-family="Helvetica,sans-Serif" font-size="10.00">/json_parser.hpp</text>
</a>
</g>
</g>
<!-- Node4&#45;&gt;Node7 -->
<g id="edge6" class="edge">
<title>Node4&#45;&gt;Node7</title>
<path fill="none" stroke="midnightblue" d="M448.96,-67.48C458.66,-59.57 473.49,-47.48 486.27,-37.07"/>
<polygon fill="midnightblue" stroke="midnightblue" points="488.76,-39.55 494.3,-30.52 484.33,-34.13 488.76,-39.55"/>
</g>
<!-- Node13 -->
<g id="node13" class="node">
<title>Node13</title>
<g id="a_node13"><a xlink:href="_o_m_sim_p_m_t_response_8hh.html" target="_top" xlink:title="Provides simulation for PMT response. This class is responsible for transforming hits on photocathode...">
<polygon fill="white" stroke="black" points="194,-123.5 194,-142.5 329,-142.5 329,-123.5 194,-123.5"/>
<text text-anchor="middle" x="261.5" y="-130.5" font-family="Helvetica,sans-Serif" font-size="10.00">OMSimPMTResponse.hh</text>
</a>
</g>
</g>
<!-- Node12&#45;&gt;Node13 -->
<g id="edge12" class="edge">
<title>Node12&#45;&gt;Node13</title>
<path fill="none" stroke="midnightblue" d="M214.5,-179.32C222.69,-171.42 235.01,-159.55 244.97,-149.94"/>
<polygon fill="midnightblue" stroke="midnightblue" points="247.57,-152.29 252.34,-142.83 242.71,-147.26 247.57,-152.29"/>
</g>
<!-- Node18 -->
<g id="node18" class="node">
<title>Node18</title>
<g id="a_node18"><a xlink:title=" ">
<polygon fill="white" stroke="#bfbfbf" points="0,-123.5 0,-142.5 103,-142.5 103,-123.5 0,-123.5"/>
<text text-anchor="middle" x="51.5" y="-130.5" font-family="Helvetica,sans-Serif" font-size="10.00">G4ThreeVector.hh</text>
</a>
</g>
</g>
<!-- Node12&#45;&gt;Node18 -->
<g id="edge18" class="edge">
<title>Node12&#45;&gt;Node18</title>
<path fill="none" stroke="midnightblue" d="M181.1,-179.44C155.3,-170.4 114.42,-156.06 85.48,-145.92"/>
<polygon fill="midnightblue" stroke="midnightblue" points="86.38,-142.52 75.79,-142.52 84.07,-149.13 86.38,-142.52"/>
</g>
<!-- Node19 -->
<g id="node19" class="node">
<title>Node19</title>
<g id="a_node19"><a xlink:title=" ">
<polygon fill="white" stroke="#bfbfbf" points="121,-123.5 121,-142.5 176,-142.5 176,-123.5 121,-123.5"/>
<text text-anchor="middle" x="148.5" y="-130.5" font-family="Helvetica,sans-Serif" font-size="10.00">fstream</text>
</a>
</g>
</g>
<!-- Node12&#45;&gt;Node19 -->
<g id="edge19" class="edge">
<title>Node12&#45;&gt;Node19</title>
<path fill="none" stroke="midnightblue" d="M196.34,-179.32C188,-171.42 175.47,-159.55 165.32,-149.94"/>
<polygon fill="midnightblue" stroke="midnightblue" points="167.49,-147.17 157.82,-142.83 162.68,-152.25 167.49,-147.17"/>
</g>
<!-- Node13&#45;&gt;Node6 -->
<g id="edge13" class="edge">
<title>Node13&#45;&gt;Node6</title>
<path fill="none" stroke="midnightblue" d="M212.28,-123.45C159.54,-113.8 82.18,-98 73.5,-87 52.95,-60.96 94.98,-40.31 130.48,-28.26"/>
<polygon fill="midnightblue" stroke="midnightblue" points="131.82,-31.5 140.26,-25.09 129.67,-24.84 131.82,-31.5"/>
</g>
<!-- Node14 -->
<g id="node14" class="node">
<title>Node14</title>
<g id="a_node14"><a xlink:title=" ">
<polygon fill="white" stroke="#bfbfbf" points="83,-67.5 83,-86.5 156,-86.5 156,-67.5 83,-67.5"/>
<text text-anchor="middle" x="119.5" y="-74.5" font-family="Helvetica,sans-Serif" font-size="10.00">G4Types.hh</text>
</a>
</g>
</g>
<!-- Node13&#45;&gt;Node14 -->
<g id="edge14" class="edge">
<title>Node13&#45;&gt;Node14</title>
<path fill="none" stroke="midnightblue" d="M239,-123.44C215.42,-114.48 178.18,-100.31 151.54,-90.18"/>
<polygon fill="midnightblue" stroke="midnightblue" points="152.49,-86.8 141.9,-86.52 150,-93.34 152.49,-86.8"/>
</g>
<!-- Node15 -->
<g id="node15" class="node">
<title>Node15</title>
<g id="a_node15"><a xlink:title=" ">
<polygon fill="white" stroke="#bfbfbf" points="174.5,-67.5 174.5,-86.5 212.5,-86.5 212.5,-67.5 174.5,-67.5"/>
<text text-anchor="middle" x="193.5" y="-74.5" font-family="Helvetica,sans-Serif" font-size="10.00">map</text>
</a>
</g>
</g>
<!-- Node13&#45;&gt;Node15 -->
<g id="edge15" class="edge">
<title>Node13&#45;&gt;Node15</title>
<path fill="none" stroke="midnightblue" d="M250.57,-123.32C240.33,-115.18 224.78,-102.84 212.5,-93.09"/>
<polygon fill="midnightblue" stroke="midnightblue" points="214.63,-90.31 204.62,-86.83 210.28,-95.79 214.63,-90.31"/>
</g>
<!-- Node16 -->
<g id="node16" class="node">
<title>Node16</title>
<g id="a_node16"><a xlink:title=" ">
<polygon fill="white" stroke="#bfbfbf" points="231,-67.5 231,-86.5 292,-86.5 292,-67.5 231,-67.5"/>
<text text-anchor="middle" x="261.5" y="-74.5" font-family="Helvetica,sans-Serif" font-size="10.00">TGraph.h</text>
</a>
</g>
</g>
<!-- Node13&#45;&gt;Node16 -->
<g id="edge16" class="edge">
<title>Node13&#45;&gt;Node16</title>
<path fill="none" stroke="midnightblue" d="M261.5,-123.08C261.5,-116.01 261.5,-105.86 261.5,-96.99"/>
<polygon fill="midnightblue" stroke="midnightblue" points="265,-96.75 261.5,-86.75 258,-96.75 265,-96.75"/>
</g>
<!-- Node17 -->
<g id="node17" class="node">
<title>Node17</title>
<g id="a_node17"><a xlink:title=" ">
<polygon fill="white" stroke="#bfbfbf" points="310,-67.5 310,-86.5 363,-86.5 363,-67.5 310,-67.5"/>
<text text-anchor="middle" x="336.5" y="-74.5" font-family="Helvetica,sans-Serif" font-size="10.00">TH2D.h</text>
</a>
</g>
</g>
<!-- Node13&#45;&gt;Node17 -->
<g id="edge17" class="edge">
<title>Node13&#45;&gt;Node17</title>
<path fill="none" stroke="midnightblue" d="M273.55,-123.32C284.96,-115.11 302.33,-102.6 315.93,-92.81"/>
<polygon fill="midnightblue" stroke="midnightblue" points="318.16,-95.52 324.23,-86.83 314.07,-89.84 318.16,-95.52"/>
</g>
<!-- Node20&#45;&gt;Node3 -->
<g id="edge21" class="edge">
<title>Node20&#45;&gt;Node3</title>
<path fill="none" stroke="midnightblue" d="M610.08,-179.08C602.65,-171.22 591.65,-159.57 582.69,-150.08"/>
<polygon fill="midnightblue" stroke="midnightblue" points="585.18,-147.62 575.76,-142.75 580.09,-152.42 585.18,-147.62"/>
</g>
<!-- Node20&#45;&gt;Node13 -->
<g id="edge23" class="edge">
<title>Node20&#45;&gt;Node13</title>
<path fill="none" stroke="midnightblue" d="M561.93,-179.44C498.35,-169.83 395.23,-154.23 327.88,-144.04"/>
<polygon fill="midnightblue" stroke="midnightblue" points="328.21,-140.55 317.8,-142.52 327.17,-147.47 328.21,-140.55"/>
</g>
<!-- Node20&#45;&gt;Node20 -->
<g id="edge22" class="edge">
<title>Node20&#45;&gt;Node20</title>
<path fill="none" stroke="midnightblue" d="M657.95,-198.53C684.76,-201.31 711,-198.13 711,-189 711,-181.01 690.91,-177.58 667.93,-178.71"/>
<polygon fill="midnightblue" stroke="midnightblue" points="667.65,-175.22 657.95,-179.47 668.19,-182.2 667.65,-175.22"/>
</g>
<!-- Node21 -->
<g id="node21" class="node">
<title>Node21</title>
<g id="a_node21"><a xlink:title=" ">
<polygon fill="white" stroke="#bfbfbf" points="659.5,-123.5 659.5,-142.5 757.5,-142.5 757.5,-123.5 659.5,-123.5"/>
<text text-anchor="middle" x="708.5" y="-130.5" font-family="Helvetica,sans-Serif" font-size="10.00">G4UnionSolid.hh</text>
</a>
</g>
</g>
<!-- Node20&#45;&gt;Node21 -->
<g id="edge24" class="edge">
<title>Node20&#45;&gt;Node21</title>
<path fill="none" stroke="midnightblue" d="M632.96,-179.32C647,-170.9 668.55,-157.97 685.04,-148.07"/>
<polygon fill="midnightblue" stroke="midnightblue" points="687.3,-150.8 694.08,-142.65 683.7,-144.8 687.3,-150.8"/>
</g>
<!-- Node22 -->
<g id="node22" class="node">
<title>Node22</title>
<g id="a_node22"><a xlink:title=" ">
<polygon fill="white" stroke="#bfbfbf" points="776,-123.5 776,-142.5 843,-142.5 843,-123.5 776,-123.5"/>
<text text-anchor="middle" x="809.5" y="-130.5" font-family="Helvetica,sans-Serif" font-size="10.00">G4Tubs.hh</text>
</a>
</g>
</g>
<!-- Node20&#45;&gt;Node22 -->
<g id="edge25" class="edge">
<title>Node20&#45;&gt;Node22</title>
<path fill="none" stroke="midnightblue" d="M648.76,-179.44C681.46,-170.2 733.68,-155.44 769.68,-145.26"/>
<polygon fill="midnightblue" stroke="midnightblue" points="770.71,-148.61 779.38,-142.52 768.8,-141.87 770.71,-148.61"/>
</g>
</g>
</svg>
