<?xml version="1.0" encoding="UTF-8" standalone="no"?>
<!DOCTYPE svg PUBLIC "-//W3C//DTD SVG 1.1//EN"
 "http://www.w3.org/Graphics/SVG/1.1/DTD/svg11.dtd">
<!-- Generated by graphviz version 2.43.0 (0)
 -->
<!-- Title: OMSimPMTConstruction.cc Pages: 1 -->
<svg width="2984pt" height="420pt"
 viewBox="0.00 0.00 2984.35 420.00" xmlns="http://www.w3.org/2000/svg" xmlns:xlink="http://www.w3.org/1999/xlink">
<g id="graph0" class="graph" transform="scale(1 1) rotate(0) translate(4 416)">
<title>OMSimPMTConstruction.cc</title>
<polygon fill="white" stroke="transparent" points="-4,4 -4,-416 2980.35,-416 2980.35,4 -4,4"/>
<!-- Node1 -->
<g id="node1" class="node">
<title>Node1</title>
<g id="a_node1"><a xlink:title=" ">
<polygon fill="#bfbfbf" stroke="black" points="2215.85,-392.5 2215.85,-411.5 2362.85,-411.5 2362.85,-392.5 2215.85,-392.5"/>
<text text-anchor="middle" x="2289.35" y="-399.5" font-family="Helvetica,sans-Serif" font-size="10.00">OMSimPMTConstruction.cc</text>
</a>
</g>
</g>
<!-- Node2 -->
<g id="node2" class="node">
<title>Node2</title>
<g id="a_node2"><a xlink:href="_o_m_sim_p_m_t_construction_8hh.html" target="_top" xlink:title="Construction of the PMTs.">
<polygon fill="white" stroke="black" points="2338.85,-224.5 2338.85,-243.5 2487.85,-243.5 2487.85,-224.5 2338.85,-224.5"/>
<text text-anchor="middle" x="2413.35" y="-231.5" font-family="Helvetica,sans-Serif" font-size="10.00">OMSimPMTConstruction.hh</text>
</a>
</g>
</g>
<!-- Node1&#45;&gt;Node2 -->
<g id="edge1" class="edge">
<title>Node1&#45;&gt;Node2</title>
<path fill="none" stroke="midnightblue" d="M2215.71,-396.69C2155.52,-391.45 2077.22,-380.1 2057.35,-356 2047.76,-344.37 2032.99,-308.27 2058.35,-280 2076.13,-260.19 2229.17,-246.74 2328.43,-240.01"/>
<polygon fill="midnightblue" stroke="midnightblue" points="2328.71,-243.5 2338.46,-239.34 2328.25,-236.51 2328.71,-243.5"/>
</g>
<!-- Node24 -->
<g id="node17" class="node">
<title>Node24</title>
<g id="a_node17"><a xlink:href="_o_m_sim_command_args_table_8hh.html" target="_top" xlink:title="Definition of the OMSimCommandArgsTable singleton class, which controls user args.">
<polygon fill="white" stroke="black" points="61.35,-224.5 61.35,-243.5 225.35,-243.5 225.35,-224.5 61.35,-224.5"/>
<text text-anchor="middle" x="143.35" y="-231.5" font-family="Helvetica,sans-Serif" font-size="10.00">OMSimCommandArgsTable.hh</text>
</a>
</g>
</g>
<!-- Node1&#45;&gt;Node24 -->
<g id="edge18" class="edge">
<title>Node1&#45;&gt;Node24</title>
<path fill="none" stroke="midnightblue" d="M2215.79,-395.31C1892.02,-370.27 594.07,-269.86 235.52,-242.13"/>
<polygon fill="midnightblue" stroke="midnightblue" points="235.68,-238.63 225.44,-241.35 235.14,-245.61 235.68,-238.63"/>
</g>
<!-- Node28 -->
<g id="node21" class="node">
<title>Node28</title>
<g id="a_node21"><a xlink:href="_o_m_sim_detector_construction_8hh.html" target="_top" xlink:title=" ">
<polygon fill="white" stroke="black" points="2066.35,-336.5 2066.35,-355.5 2236.35,-355.5 2236.35,-336.5 2066.35,-336.5"/>
<text text-anchor="middle" x="2151.35" y="-343.5" font-family="Helvetica,sans-Serif" font-size="10.00">OMSimDetectorConstruction.hh</text>
</a>
</g>
</g>
<!-- Node1&#45;&gt;Node28 -->
<g id="edge23" class="edge">
<title>Node1&#45;&gt;Node28</title>
<path fill="none" stroke="midnightblue" d="M2267.48,-392.44C2244.57,-383.48 2208.38,-369.31 2182.48,-359.18"/>
<polygon fill="midnightblue" stroke="midnightblue" points="2183.7,-355.9 2173.12,-355.52 2181.15,-362.42 2183.7,-355.9"/>
</g>
<!-- Node34 -->
<g id="node25" class="node">
<title>Node34</title>
<g id="a_node25"><a xlink:href="_o_m_sim_sensitive_detector_8hh.html" target="_top" xlink:title=" ">
<polygon fill="white" stroke="black" points="1923.85,-224.5 1923.85,-243.5 2076.85,-243.5 2076.85,-224.5 1923.85,-224.5"/>
<text text-anchor="middle" x="2000.35" y="-231.5" font-family="Helvetica,sans-Serif" font-size="10.00">OMSimSensitiveDetector.hh</text>
</a>
</g>
</g>
<!-- Node1&#45;&gt;Node34 -->
<g id="edge29" class="edge">
<title>Node1&#45;&gt;Node34</title>
<path fill="none" stroke="midnightblue" d="M2215.77,-395.5C2153.27,-389.42 2069.78,-377.5 2044.35,-356 2013.58,-329.99 2004.33,-280.62 2001.55,-253.68"/>
<polygon fill="midnightblue" stroke="midnightblue" points="2005.03,-253.32 2000.71,-243.64 1998.05,-253.9 2005.03,-253.32"/>
</g>
<!-- Node37 -->
<g id="node29" class="node">
<title>Node37</title>
<g id="a_node29"><a xlink:href="_c_a_d_mesh_8hh.html" target="_top" xlink:title=" ">
<polygon fill="white" stroke="black" points="1149.85,-224.5 1149.85,-243.5 1228.85,-243.5 1228.85,-224.5 1149.85,-224.5"/>
<text text-anchor="middle" x="1189.35" y="-231.5" font-family="Helvetica,sans-Serif" font-size="10.00">CADMesh.hh</text>
</a>
</g>
</g>
<!-- Node1&#45;&gt;Node37 -->
<g id="edge34" class="edge">
<title>Node1&#45;&gt;Node37</title>
<path fill="none" stroke="midnightblue" d="M2232.91,-392.48C2041.65,-363.62 1419.96,-269.8 1239.12,-242.51"/>
<polygon fill="midnightblue" stroke="midnightblue" points="1239.5,-239.03 1229.09,-241 1238.46,-245.95 1239.5,-239.03"/>
</g>
<!-- Node53 -->
<g id="node45" class="node">
<title>Node53</title>
<g id="a_node45"><a xlink:title=" ">
<polygon fill="white" stroke="#bfbfbf" points="2254.85,-336.5 2254.85,-355.5 2323.85,-355.5 2323.85,-336.5 2254.85,-336.5"/>
<text text-anchor="middle" x="2289.35" y="-343.5" font-family="Helvetica,sans-Serif" font-size="10.00">G4Cons.hh</text>
</a>
</g>
</g>
<!-- Node1&#45;&gt;Node53 -->
<g id="edge55" class="edge">
<title>Node1&#45;&gt;Node53</title>
<path fill="none" stroke="midnightblue" d="M2289.35,-392.08C2289.35,-385.01 2289.35,-374.86 2289.35,-365.99"/>
<polygon fill="midnightblue" stroke="midnightblue" points="2292.85,-365.75 2289.35,-355.75 2285.85,-365.75 2292.85,-365.75"/>
</g>
<!-- Node54 -->
<g id="node46" class="node">
<title>Node54</title>
<g id="a_node46"><a xlink:title=" ">
<polygon fill="white" stroke="#bfbfbf" points="2342.35,-336.5 2342.35,-355.5 2428.35,-355.5 2428.35,-336.5 2342.35,-336.5"/>
<text text-anchor="middle" x="2385.35" y="-343.5" font-family="Helvetica,sans-Serif" font-size="10.00">G4Ellipsoid.hh</text>
</a>
</g>
</g>
<!-- Node1&#45;&gt;Node54 -->
<g id="edge56" class="edge">
<title>Node1&#45;&gt;Node54</title>
<path fill="none" stroke="midnightblue" d="M2304.77,-392.32C2319.89,-383.82 2343.17,-370.73 2360.82,-360.8"/>
<polygon fill="midnightblue" stroke="midnightblue" points="2362.97,-363.61 2369.97,-355.65 2359.53,-357.51 2362.97,-363.61"/>
</g>
<!-- Node55 -->
<g id="node47" class="node">
<title>Node55</title>
<g id="a_node47"><a xlink:title=" ">
<polygon fill="white" stroke="#bfbfbf" points="2446.85,-336.5 2446.85,-355.5 2595.85,-355.5 2595.85,-336.5 2446.85,-336.5"/>
<text text-anchor="middle" x="2521.35" y="-343.5" font-family="Helvetica,sans-Serif" font-size="10.00">G4LogicalBorderSurface.hh</text>
</a>
</g>
</g>
<!-- Node1&#45;&gt;Node55 -->
<g id="edge57" class="edge">
<title>Node1&#45;&gt;Node55</title>
<path fill="none" stroke="midnightblue" d="M2326.11,-392.44C2366.41,-383.06 2431.16,-367.99 2474.94,-357.8"/>
<polygon fill="midnightblue" stroke="midnightblue" points="2475.82,-361.19 2484.76,-355.52 2474.23,-354.37 2475.82,-361.19"/>
</g>
<!-- Node56 -->
<g id="node48" class="node">
<title>Node56</title>
<g id="a_node48"><a xlink:title=" ">
<polygon fill="white" stroke="#bfbfbf" points="2613.85,-336.5 2613.85,-355.5 2750.85,-355.5 2750.85,-336.5 2613.85,-336.5"/>
<text text-anchor="middle" x="2682.35" y="-343.5" font-family="Helvetica,sans-Serif" font-size="10.00">G4LogicalSkinSurface.hh</text>
</a>
</g>
</g>
<!-- Node1&#45;&gt;Node56 -->
<g id="edge58" class="edge">
<title>Node1&#45;&gt;Node56</title>
<path fill="none" stroke="midnightblue" d="M2351.62,-392.44C2421.91,-382.79 2536.07,-367.1 2610.19,-356.92"/>
<polygon fill="midnightblue" stroke="midnightblue" points="2610.94,-360.35 2620.37,-355.52 2609.99,-353.41 2610.94,-360.35"/>
</g>
<!-- Node57 -->
<g id="node49" class="node">
<title>Node57</title>
<g id="a_node49"><a xlink:title=" ">
<polygon fill="white" stroke="#bfbfbf" points="2768.85,-336.5 2768.85,-355.5 2847.85,-355.5 2847.85,-336.5 2768.85,-336.5"/>
<text text-anchor="middle" x="2808.35" y="-343.5" font-family="Helvetica,sans-Serif" font-size="10.00">G4Sphere.hh</text>
</a>
</g>
</g>
<!-- Node1&#45;&gt;Node57 -->
<g id="edge59" class="edge">
<title>Node1&#45;&gt;Node57</title>
<path fill="none" stroke="midnightblue" d="M2363.02,-396.03C2453.84,-389.43 2613.1,-376.36 2758.82,-356.11"/>
<polygon fill="midnightblue" stroke="midnightblue" points="2759.43,-359.56 2768.84,-354.7 2758.46,-352.62 2759.43,-359.56"/>
</g>
<!-- Node58 -->
<g id="node50" class="node">
<title>Node58</title>
<g id="a_node50"><a xlink:title=" ">
<polygon fill="white" stroke="#bfbfbf" points="2865.85,-336.5 2865.85,-355.5 2936.85,-355.5 2936.85,-336.5 2865.85,-336.5"/>
<text text-anchor="middle" x="2901.35" y="-343.5" font-family="Helvetica,sans-Serif" font-size="10.00">G4Torus.hh</text>
</a>
</g>
</g>
<!-- Node1&#45;&gt;Node58 -->
<g id="edge60" class="edge">
<title>Node1&#45;&gt;Node58</title>
<path fill="none" stroke="midnightblue" d="M2363.19,-398.05C2469.9,-393.13 2673.52,-381.35 2855.38,-356.13"/>
<polygon fill="midnightblue" stroke="midnightblue" points="2855.98,-359.59 2865.39,-354.73 2855.01,-352.65 2855.98,-359.59"/>
</g>
<!-- Node2&#45;&gt;Node2 -->
<g id="edge11" class="edge">
<title>Node2&#45;&gt;Node2</title>
<path fill="none" stroke="midnightblue" d="M2452.8,-243.53C2479.61,-246.31 2505.85,-243.13 2505.85,-234 2505.85,-226.01 2485.76,-222.58 2462.78,-223.71"/>
<polygon fill="midnightblue" stroke="midnightblue" points="2462.51,-220.22 2452.8,-224.47 2463.04,-227.2 2462.51,-220.22"/>
</g>
<!-- Node3 -->
<g id="node3" class="node">
<title>Node3</title>
<g id="a_node3"><a xlink:href="abc_detector_component_8hh.html" target="_top" xlink:title="Provides helper base class abcDetectorComponent for constructing and managing detector components in ...">
<polygon fill="white" stroke="black" points="2581.85,-168.5 2581.85,-187.5 2728.85,-187.5 2728.85,-168.5 2581.85,-168.5"/>
<text text-anchor="middle" x="2655.35" y="-175.5" font-family="Helvetica,sans-Serif" font-size="10.00">abcDetectorComponent.hh</text>
</a>
</g>
</g>
<!-- Node2&#45;&gt;Node3 -->
<g id="edge2" class="edge">
<title>Node2&#45;&gt;Node3</title>
<path fill="none" stroke="midnightblue" d="M2451.7,-224.44C2493.82,-215.04 2561.56,-199.93 2607.22,-189.74"/>
<polygon fill="midnightblue" stroke="midnightblue" points="2608.19,-193.11 2617.18,-187.52 2606.66,-186.28 2608.19,-193.11"/>
</g>
<!-- Node17 -->
<g id="node12" class="node">
<title>Node17</title>
<g id="a_node12"><a xlink:href="_o_m_sim_p_m_t_response_8hh.html" target="_top" xlink:title="Provides simulation for PMT response. This class is responsible for transforming hits on photocathode...">
<polygon fill="white" stroke="red" points="2226.85,-168.5 2226.85,-187.5 2361.85,-187.5 2361.85,-168.5 2226.85,-168.5"/>
<text text-anchor="middle" x="2294.35" y="-175.5" font-family="Helvetica,sans-Serif" font-size="10.00">OMSimPMTResponse.hh</text>
</a>
</g>
</g>
<!-- Node2&#45;&gt;Node17 -->
<g id="edge12" class="edge">
<title>Node2&#45;&gt;Node17</title>
<path fill="none" stroke="midnightblue" d="M2394.49,-224.44C2375.08,-215.64 2344.62,-201.81 2322.39,-191.72"/>
<polygon fill="midnightblue" stroke="midnightblue" points="2323.67,-188.46 2313.12,-187.52 2320.78,-194.84 2323.67,-188.46"/>
</g>
<!-- Node22 -->
<g id="node15" class="node">
<title>Node22</title>
<g id="a_node15"><a xlink:title=" ">
<polygon fill="white" stroke="#bfbfbf" points="2465.35,-168.5 2465.35,-187.5 2563.35,-187.5 2563.35,-168.5 2465.35,-168.5"/>
<text text-anchor="middle" x="2514.35" y="-175.5" font-family="Helvetica,sans-Serif" font-size="10.00">G4UnionSolid.hh</text>
</a>
</g>
</g>
<!-- Node2&#45;&gt;Node22 -->
<g id="edge16" class="edge">
<title>Node2&#45;&gt;Node22</title>
<path fill="none" stroke="midnightblue" d="M2429.58,-224.32C2445.7,-215.7 2470.65,-202.36 2489.31,-192.39"/>
<polygon fill="midnightblue" stroke="midnightblue" points="2491,-195.46 2498.16,-187.65 2487.69,-189.28 2491,-195.46"/>
</g>
<!-- Node23 -->
<g id="node16" class="node">
<title>Node23</title>
<g id="a_node16"><a xlink:title=" ">
<polygon fill="white" stroke="#bfbfbf" points="2379.85,-168.5 2379.85,-187.5 2446.85,-187.5 2446.85,-168.5 2379.85,-168.5"/>
<text text-anchor="middle" x="2413.35" y="-175.5" font-family="Helvetica,sans-Serif" font-size="10.00">G4Tubs.hh</text>
</a>
</g>
</g>
<!-- Node2&#45;&gt;Node23 -->
<g id="edge17" class="edge">
<title>Node2&#45;&gt;Node23</title>
<path fill="none" stroke="midnightblue" d="M2413.35,-224.08C2413.35,-217.01 2413.35,-206.86 2413.35,-197.99"/>
<polygon fill="midnightblue" stroke="midnightblue" points="2416.85,-197.75 2413.35,-187.75 2409.85,-197.75 2416.85,-197.75"/>
</g>
<!-- Node4 -->
<g id="node4" class="node">
<title>Node4</title>
<g id="a_node4"><a xlink:href="_o_m_sim_input_data_8hh.html" target="_top" xlink:title="Definition of ParameterTable and InputDataManager.">
<polygon fill="white" stroke="red" points="2327.85,-112.5 2327.85,-131.5 2442.85,-131.5 2442.85,-112.5 2327.85,-112.5"/>
<text text-anchor="middle" x="2385.35" y="-119.5" font-family="Helvetica,sans-Serif" font-size="10.00">OMSimInputData.hh</text>
</a>
</g>
</g>
<!-- Node3&#45;&gt;Node4 -->
<g id="edge3" class="edge">
<title>Node3&#45;&gt;Node4</title>
<path fill="none" stroke="midnightblue" d="M2612.57,-168.44C2565.17,-158.96 2488.72,-143.67 2437.77,-133.48"/>
<polygon fill="midnightblue" stroke="midnightblue" points="2438.43,-130.05 2427.93,-131.52 2437.05,-136.91 2438.43,-130.05"/>
</g>
<!-- Node13 -->
<g id="node8" class="node">
<title>Node13</title>
<g id="a_node8"><a xlink:title=" ">
<polygon fill="white" stroke="#bfbfbf" points="2470.85,-112.5 2470.85,-131.5 2577.85,-131.5 2577.85,-112.5 2470.85,-112.5"/>
<text text-anchor="middle" x="2524.35" y="-119.5" font-family="Helvetica,sans-Serif" font-size="10.00">G4Transform3D.hh</text>
</a>
</g>
</g>
<!-- Node3&#45;&gt;Node13 -->
<g id="edge7" class="edge">
<title>Node3&#45;&gt;Node13</title>
<path fill="none" stroke="midnightblue" d="M2634.59,-168.44C2613.03,-159.56 2579.09,-145.56 2554.56,-135.45"/>
<polygon fill="midnightblue" stroke="midnightblue" points="2555.59,-132.09 2545.01,-131.52 2552.92,-138.56 2555.59,-132.09"/>
</g>
<!-- Node14 -->
<g id="node9" class="node">
<title>Node14</title>
<g id="a_node9"><a xlink:title=" ">
<polygon fill="white" stroke="#bfbfbf" points="2596.35,-112.5 2596.35,-131.5 2704.35,-131.5 2704.35,-112.5 2596.35,-112.5"/>
<text text-anchor="middle" x="2650.35" y="-119.5" font-family="Helvetica,sans-Serif" font-size="10.00">G4VisAttributes.hh</text>
</a>
</g>
</g>
<!-- Node3&#45;&gt;Node14 -->
<g id="edge8" class="edge">
<title>Node3&#45;&gt;Node14</title>
<path fill="none" stroke="midnightblue" d="M2654.53,-168.08C2653.87,-161.01 2652.93,-150.86 2652.11,-141.99"/>
<polygon fill="midnightblue" stroke="midnightblue" points="2655.57,-141.39 2651.16,-131.75 2648.6,-142.03 2655.57,-141.39"/>
</g>
<!-- Node15 -->
<g id="node10" class="node">
<title>Node15</title>
<g id="a_node10"><a xlink:title=" ">
<polygon fill="white" stroke="#bfbfbf" points="2722.85,-112.5 2722.85,-131.5 2847.85,-131.5 2847.85,-112.5 2722.85,-112.5"/>
<text text-anchor="middle" x="2785.35" y="-119.5" font-family="Helvetica,sans-Serif" font-size="10.00">G4SubtractionSolid.hh</text>
</a>
</g>
</g>
<!-- Node3&#45;&gt;Node15 -->
<g id="edge9" class="edge">
<title>Node3&#45;&gt;Node15</title>
<path fill="none" stroke="midnightblue" d="M2675.95,-168.44C2697.34,-159.56 2731.03,-145.56 2755.38,-135.45"/>
<polygon fill="midnightblue" stroke="midnightblue" points="2756.96,-138.58 2764.85,-131.52 2754.27,-132.12 2756.96,-138.58"/>
</g>
<!-- Node16 -->
<g id="node11" class="node">
<title>Node16</title>
<g id="a_node11"><a xlink:title=" ">
<polygon fill="white" stroke="#bfbfbf" points="2866.35,-112.5 2866.35,-131.5 2976.35,-131.5 2976.35,-112.5 2866.35,-112.5"/>
<text text-anchor="middle" x="2921.35" y="-119.5" font-family="Helvetica,sans-Serif" font-size="10.00">G4PVPlacement.hh</text>
</a>
</g>
</g>
<!-- Node3&#45;&gt;Node16 -->
<g id="edge10" class="edge">
<title>Node3&#45;&gt;Node16</title>
<path fill="none" stroke="midnightblue" d="M2697.5,-168.44C2744.1,-158.98 2819.19,-143.74 2869.4,-133.55"/>
<polygon fill="midnightblue" stroke="midnightblue" points="2870.3,-136.94 2879.4,-131.52 2868.9,-130.08 2870.3,-136.94"/>
</g>
<!-- Node5 -->
<g id="node5" class="node">
<title>Node5</title>
<g id="a_node5"><a xlink:href="_o_m_sim_logger_8hh.html" target="_top" xlink:title=" ">
<polygon fill="white" stroke="red" points="315.85,-56.5 315.85,-75.5 414.85,-75.5 414.85,-56.5 315.85,-56.5"/>
<text text-anchor="middle" x="365.35" y="-63.5" font-family="Helvetica,sans-Serif" font-size="10.00">OMSimLogger.hh</text>
</a>
</g>
</g>
<!-- Node4&#45;&gt;Node5 -->
<g id="edge4" class="edge">
<title>Node4&#45;&gt;Node5</title>
<path fill="none" stroke="midnightblue" d="M2327.63,-115.4C2312.28,-114.09 2295.7,-112.84 2280.35,-112 1549.88,-72.15 660.77,-67.56 425.03,-67.06"/>
<polygon fill="midnightblue" stroke="midnightblue" points="424.96,-63.56 414.96,-67.04 424.95,-70.56 424.96,-63.56"/>
</g>
<!-- Node11 -->
<g id="node7" class="node">
<title>Node11</title>
<g id="a_node7"><a xlink:title=" ">
<polygon fill="white" stroke="#bfbfbf" points="2282.85,-56.5 2282.85,-75.5 2401.85,-75.5 2401.85,-56.5 2282.85,-56.5"/>
<text text-anchor="middle" x="2342.35" y="-63.5" font-family="Helvetica,sans-Serif" font-size="10.00">G4SystemOfUnits.hh</text>
</a>
</g>
</g>
<!-- Node4&#45;&gt;Node11 -->
<g id="edge6" class="edge">
<title>Node4&#45;&gt;Node11</title>
<path fill="none" stroke="midnightblue" d="M2378.25,-112.08C2372.11,-104.38 2363.08,-93.03 2355.61,-83.65"/>
<polygon fill="midnightblue" stroke="midnightblue" points="2358.29,-81.39 2349.32,-75.75 2352.81,-85.75 2358.29,-81.39"/>
</g>
<!-- Node8 -->
<g id="node6" class="node">
<title>Node8</title>
<g id="a_node6"><a xlink:title=" ">
<polygon fill="white" stroke="#bfbfbf" points="297.35,-0.5 297.35,-19.5 355.35,-19.5 355.35,-0.5 297.35,-0.5"/>
<text text-anchor="middle" x="326.35" y="-7.5" font-family="Helvetica,sans-Serif" font-size="10.00">memory</text>
</a>
</g>
</g>
<!-- Node5&#45;&gt;Node8 -->
<g id="edge5" class="edge">
<title>Node5&#45;&gt;Node8</title>
<path fill="none" stroke="midnightblue" d="M358.91,-56.08C353.4,-48.46 345.32,-37.26 338.59,-27.94"/>
<polygon fill="midnightblue" stroke="midnightblue" points="341.36,-25.81 332.67,-19.75 335.69,-29.91 341.36,-25.81"/>
</g>
<!-- Node17&#45;&gt;Node11 -->
<g id="edge13" class="edge">
<title>Node17&#45;&gt;Node11</title>
<path fill="none" stroke="midnightblue" d="M2297.31,-168.47C2301.72,-155.93 2310.48,-131.87 2319.35,-112 2323.42,-102.89 2328.41,-92.99 2332.71,-84.8"/>
<polygon fill="midnightblue" stroke="midnightblue" points="2335.87,-86.3 2337.49,-75.83 2329.7,-83.01 2335.87,-86.3"/>
</g>
<!-- Node18 -->
<g id="node13" class="node">
<title>Node18</title>
<g id="a_node13"><a xlink:title=" ">
<polygon fill="white" stroke="#bfbfbf" points="2197.85,-112.5 2197.85,-131.5 2270.85,-131.5 2270.85,-112.5 2197.85,-112.5"/>
<text text-anchor="middle" x="2234.35" y="-119.5" font-family="Helvetica,sans-Serif" font-size="10.00">G4Types.hh</text>
</a>
</g>
</g>
<!-- Node17&#45;&gt;Node18 -->
<g id="edge14" class="edge">
<title>Node17&#45;&gt;Node18</title>
<path fill="none" stroke="midnightblue" d="M2284.71,-168.32C2275.84,-160.34 2262.48,-148.31 2251.74,-138.65"/>
<polygon fill="midnightblue" stroke="midnightblue" points="2253.94,-135.92 2244.17,-131.83 2249.26,-141.13 2253.94,-135.92"/>
</g>
<!-- Node19 -->
<g id="node14" class="node">
<title>Node19</title>
<g id="a_node14"><a xlink:title=" ">
<polygon fill="white" stroke="#bfbfbf" points="1434.35,-112.5 1434.35,-131.5 1472.35,-131.5 1472.35,-112.5 1434.35,-112.5"/>
<text text-anchor="middle" x="1453.35" y="-119.5" font-family="Helvetica,sans-Serif" font-size="10.00">map</text>
</a>
</g>
</g>
<!-- Node17&#45;&gt;Node19 -->
<g id="edge15" class="edge">
<title>Node17&#45;&gt;Node19</title>
<path fill="none" stroke="midnightblue" d="M2226.77,-168.88C2223.59,-168.57 2220.43,-168.27 2217.35,-168 1931.61,-142.91 1584.48,-128.13 1482.7,-124.12"/>
<polygon fill="midnightblue" stroke="midnightblue" points="1482.7,-120.62 1472.57,-123.72 1482.43,-127.61 1482.7,-120.62"/>
</g>
<!-- Node24&#45;&gt;Node5 -->
<g id="edge19" class="edge">
<title>Node24&#45;&gt;Node5</title>
<path fill="none" stroke="midnightblue" d="M77.28,-224.46C31.62,-215.7 -17.02,-198.85 6.35,-168 42.43,-120.37 213.11,-88.92 305.54,-75.07"/>
<polygon fill="midnightblue" stroke="midnightblue" points="306.21,-78.51 315.59,-73.59 305.19,-71.59 306.21,-78.51"/>
</g>
<!-- Node25 -->
<g id="node18" class="node">
<title>Node25</title>
<g id="a_node18"><a xlink:title=" ">
<polygon fill="white" stroke="#bfbfbf" points="203.85,-168.5 203.85,-187.5 258.85,-187.5 258.85,-168.5 203.85,-168.5"/>
<text text-anchor="middle" x="231.35" y="-175.5" font-family="Helvetica,sans-Serif" font-size="10.00">fstream</text>
</a>
</g>
</g>
<!-- Node24&#45;&gt;Node25 -->
<g id="edge20" class="edge">
<title>Node24&#45;&gt;Node25</title>
<path fill="none" stroke="midnightblue" d="M157.49,-224.32C171.22,-215.9 192.29,-202.97 208.42,-193.07"/>
<polygon fill="midnightblue" stroke="midnightblue" points="210.55,-195.87 217.25,-187.65 206.89,-189.9 210.55,-195.87"/>
</g>
<!-- Node26 -->
<g id="node19" class="node">
<title>Node26</title>
<g id="a_node19"><a xlink:title=" ">
<polygon fill="white" stroke="#bfbfbf" points="101.35,-168.5 101.35,-187.5 185.35,-187.5 185.35,-168.5 101.35,-168.5"/>
<text text-anchor="middle" x="143.35" y="-175.5" font-family="Helvetica,sans-Serif" font-size="10.00">boost/any.hpp</text>
</a>
</g>
</g>
<!-- Node24&#45;&gt;Node26 -->
<g id="edge21" class="edge">
<title>Node24&#45;&gt;Node26</title>
<path fill="none" stroke="midnightblue" d="M143.35,-224.08C143.35,-217.01 143.35,-206.86 143.35,-197.99"/>
<polygon fill="midnightblue" stroke="midnightblue" points="146.85,-197.75 143.35,-187.75 139.85,-197.75 146.85,-197.75"/>
</g>
<!-- Node27 -->
<g id="node20" class="node">
<title>Node27</title>
<g id="a_node20"><a xlink:title=" ">
<polygon fill="white" stroke="#bfbfbf" points="15.35,-168.5 15.35,-187.5 83.35,-187.5 83.35,-168.5 15.35,-168.5"/>
<text text-anchor="middle" x="49.35" y="-175.5" font-family="Helvetica,sans-Serif" font-size="10.00">sys/time.h</text>
</a>
</g>
</g>
<!-- Node24&#45;&gt;Node27 -->
<g id="edge22" class="edge">
<title>Node24&#45;&gt;Node27</title>
<path fill="none" stroke="midnightblue" d="M128.25,-224.32C113.45,-215.82 90.66,-202.73 73.37,-192.8"/>
<polygon fill="midnightblue" stroke="midnightblue" points="74.83,-189.6 64.42,-187.65 71.34,-195.67 74.83,-189.6"/>
</g>
<!-- Node29 -->
<g id="node22" class="node">
<title>Node29</title>
<g id="a_node22"><a xlink:href="_o_m_sim_optical_module_8hh.html" target="_top" xlink:title=" ">
<polygon fill="white" stroke="red" points="2344.85,-280.5 2344.85,-299.5 2481.85,-299.5 2481.85,-280.5 2344.85,-280.5"/>
<text text-anchor="middle" x="2413.35" y="-287.5" font-family="Helvetica,sans-Serif" font-size="10.00">OMSimOpticalModule.hh</text>
</a>
</g>
</g>
<!-- Node28&#45;&gt;Node29 -->
<g id="edge24" class="edge">
<title>Node28&#45;&gt;Node29</title>
<path fill="none" stroke="midnightblue" d="M2192.87,-336.44C2238.76,-326.98 2312.73,-311.74 2362.18,-301.55"/>
<polygon fill="midnightblue" stroke="midnightblue" points="2362.94,-304.96 2372.03,-299.52 2361.53,-298.11 2362.94,-304.96"/>
</g>
<!-- Node32 -->
<g id="node23" class="node">
<title>Node32</title>
<g id="a_node23"><a xlink:title=" ">
<polygon fill="white" stroke="#bfbfbf" points="2067.35,-280.5 2067.35,-299.5 2129.35,-299.5 2129.35,-280.5 2067.35,-280.5"/>
<text text-anchor="middle" x="2098.35" y="-287.5" font-family="Helvetica,sans-Serif" font-size="10.00">G4Orb.hh</text>
</a>
</g>
</g>
<!-- Node28&#45;&gt;Node32 -->
<g id="edge27" class="edge">
<title>Node28&#45;&gt;Node32</title>
<path fill="none" stroke="midnightblue" d="M2142.6,-336.08C2134.88,-328.22 2123.45,-316.57 2114.13,-307.08"/>
<polygon fill="midnightblue" stroke="midnightblue" points="2116.44,-304.44 2106.94,-299.75 2111.45,-309.34 2116.44,-304.44"/>
</g>
<!-- Node33 -->
<g id="node24" class="node">
<title>Node33</title>
<g id="a_node24"><a xlink:title=" ">
<polygon fill="white" stroke="#bfbfbf" points="2147.35,-280.5 2147.35,-299.5 2325.35,-299.5 2325.35,-280.5 2147.35,-280.5"/>
<text text-anchor="middle" x="2236.35" y="-287.5" font-family="Helvetica,sans-Serif" font-size="10.00">G4VUserDetectorConstruction.hh</text>
</a>
</g>
</g>
<!-- Node28&#45;&gt;Node33 -->
<g id="edge28" class="edge">
<title>Node28&#45;&gt;Node33</title>
<path fill="none" stroke="midnightblue" d="M2165.01,-336.32C2178.27,-327.9 2198.62,-314.97 2214.2,-305.07"/>
<polygon fill="midnightblue" stroke="midnightblue" points="2216.16,-307.97 2222.73,-299.65 2212.41,-302.06 2216.16,-307.97"/>
</g>
<!-- Node29&#45;&gt;Node2 -->
<g id="edge26" class="edge">
<title>Node29&#45;&gt;Node2</title>
<path fill="none" stroke="midnightblue" d="M2413.35,-280.08C2413.35,-273.01 2413.35,-262.86 2413.35,-253.99"/>
<polygon fill="midnightblue" stroke="midnightblue" points="2416.85,-253.75 2413.35,-243.75 2409.85,-253.75 2416.85,-253.75"/>
</g>
<!-- Node29&#45;&gt;Node3 -->
<g id="edge25" class="edge">
<title>Node29&#45;&gt;Node3</title>
<path fill="none" stroke="midnightblue" d="M2432.95,-280.48C2453.53,-271.52 2486.79,-256.93 2515.35,-244 2554.66,-226.21 2599.9,-205.08 2628.07,-191.86"/>
<polygon fill="midnightblue" stroke="midnightblue" points="2629.72,-194.95 2637.28,-187.53 2626.74,-188.61 2629.72,-194.95"/>
</g>
<!-- Node34&#45;&gt;Node17 -->
<g id="edge32" class="edge">
<title>Node34&#45;&gt;Node17</title>
<path fill="none" stroke="midnightblue" d="M2046.94,-224.44C2098.76,-214.92 2182.48,-199.55 2237.97,-189.36"/>
<polygon fill="midnightblue" stroke="midnightblue" points="2238.78,-192.77 2247.98,-187.52 2237.52,-185.88 2238.78,-192.77"/>
</g>
<!-- Node35 -->
<g id="node26" class="node">
<title>Node35</title>
<g id="a_node26"><a xlink:title=" ">
<polygon fill="white" stroke="#bfbfbf" points="2070.35,-168.5 2070.35,-187.5 2208.35,-187.5 2208.35,-168.5 2070.35,-168.5"/>
<text text-anchor="middle" x="2139.35" y="-175.5" font-family="Helvetica,sans-Serif" font-size="10.00">G4VSensitiveDetector.hh</text>
</a>
</g>
</g>
<!-- Node34&#45;&gt;Node35 -->
<g id="edge30" class="edge">
<title>Node34&#45;&gt;Node35</title>
<path fill="none" stroke="midnightblue" d="M2022.38,-224.44C2045.45,-215.48 2081.91,-201.31 2107.99,-191.18"/>
<polygon fill="midnightblue" stroke="midnightblue" points="2109.38,-194.4 2117.43,-187.52 2106.84,-187.88 2109.38,-194.4"/>
</g>
<!-- Node31 -->
<g id="node27" class="node">
<title>Node31</title>
<g id="a_node27"><a xlink:title=" ">
<polygon fill="white" stroke="#bfbfbf" points="1948.85,-168.5 1948.85,-187.5 2051.85,-187.5 2051.85,-168.5 1948.85,-168.5"/>
<text text-anchor="middle" x="2000.35" y="-175.5" font-family="Helvetica,sans-Serif" font-size="10.00">G4ThreeVector.hh</text>
</a>
</g>
</g>
<!-- Node34&#45;&gt;Node31 -->
<g id="edge31" class="edge">
<title>Node34&#45;&gt;Node31</title>
<path fill="none" stroke="midnightblue" d="M2000.35,-224.08C2000.35,-217.01 2000.35,-206.86 2000.35,-197.99"/>
<polygon fill="midnightblue" stroke="midnightblue" points="2003.85,-197.75 2000.35,-187.75 1996.85,-197.75 2003.85,-197.75"/>
</g>
<!-- Node36 -->
<g id="node28" class="node">
<title>Node36</title>
<g id="a_node28"><a xlink:title=" ">
<polygon fill="white" stroke="#bfbfbf" points="1883.85,-168.5 1883.85,-187.5 1930.85,-187.5 1930.85,-168.5 1883.85,-168.5"/>
<text text-anchor="middle" x="1907.35" y="-175.5" font-family="Helvetica,sans-Serif" font-size="10.00">vector</text>
</a>
</g>
</g>
<!-- Node34&#45;&gt;Node36 -->
<g id="edge33" class="edge">
<title>Node34&#45;&gt;Node36</title>
<path fill="none" stroke="midnightblue" d="M1985.41,-224.32C1970.77,-215.82 1948.22,-202.73 1931.11,-192.8"/>
<polygon fill="midnightblue" stroke="midnightblue" points="1932.66,-189.65 1922.26,-187.65 1929.15,-195.7 1932.66,-189.65"/>
</g>
<!-- Node37&#45;&gt;Node8 -->
<g id="edge40" class="edge">
<title>Node37&#45;&gt;Node8</title>
<path fill="none" stroke="midnightblue" d="M1149.74,-232.48C981.8,-230.1 335.78,-218.96 306.35,-188 264.86,-144.34 298.08,-64.66 316.35,-29.04"/>
<polygon fill="midnightblue" stroke="midnightblue" points="319.62,-30.33 321.23,-19.86 313.44,-27.04 319.62,-30.33"/>
</g>
<!-- Node37&#45;&gt;Node19 -->
<g id="edge37" class="edge">
<title>Node37&#45;&gt;Node19</title>
<path fill="none" stroke="midnightblue" d="M1149.74,-232.93C1035.58,-232.07 717.33,-224.62 770.35,-168 815.54,-119.74 1298.26,-121.38 1423.7,-122.63"/>
<polygon fill="midnightblue" stroke="midnightblue" points="1424.02,-126.14 1434.06,-122.74 1424.1,-119.14 1424.02,-126.14"/>
</g>
<!-- Node37&#45;&gt;Node25 -->
<g id="edge51" class="edge">
<title>Node37&#45;&gt;Node25</title>
<path fill="none" stroke="midnightblue" d="M1149.42,-233.34C1021.41,-233.94 610.02,-232.05 273.35,-188 272.06,-187.83 270.75,-187.64 269.43,-187.44"/>
<polygon fill="midnightblue" stroke="midnightblue" points="269.71,-183.94 259.26,-185.64 268.49,-190.83 269.71,-183.94"/>
</g>
<!-- Node37&#45;&gt;Node31 -->
<g id="edge38" class="edge">
<title>Node37&#45;&gt;Node31</title>
<path fill="none" stroke="midnightblue" d="M1228.89,-231.83C1339.31,-228.32 1660.53,-216.35 1938.52,-187.98"/>
<polygon fill="midnightblue" stroke="midnightblue" points="1939.22,-191.43 1948.81,-186.93 1938.5,-184.47 1939.22,-191.43"/>
</g>
<!-- Node37&#45;&gt;Node36 -->
<g id="edge41" class="edge">
<title>Node37&#45;&gt;Node36</title>
<path fill="none" stroke="midnightblue" d="M1229.05,-233.16C1333.38,-233 1623.83,-228.76 1873.69,-187.73"/>
<polygon fill="midnightblue" stroke="midnightblue" points="1874.4,-191.16 1883.68,-186.07 1873.25,-184.26 1874.4,-191.16"/>
</g>
<!-- Node38 -->
<g id="node30" class="node">
<title>Node38</title>
<g id="a_node30"><a xlink:title=" ">
<polygon fill="white" stroke="#bfbfbf" points="1709.35,-168.5 1709.35,-187.5 1783.35,-187.5 1783.35,-168.5 1709.35,-168.5"/>
<text text-anchor="middle" x="1746.35" y="-175.5" font-family="Helvetica,sans-Serif" font-size="10.00">G4String.hh</text>
</a>
</g>
</g>
<!-- Node37&#45;&gt;Node38 -->
<g id="edge35" class="edge">
<title>Node37&#45;&gt;Node38</title>
<path fill="none" stroke="midnightblue" d="M1228.94,-230.94C1313.47,-226.23 1517.97,-213.21 1699.27,-188.01"/>
<polygon fill="midnightblue" stroke="midnightblue" points="1699.84,-191.47 1709.25,-186.61 1698.86,-184.53 1699.84,-191.47"/>
</g>
<!-- Node39 -->
<g id="node31" class="node">
<title>Node39</title>
<g id="a_node31"><a xlink:title=" ">
<polygon fill="white" stroke="#bfbfbf" points="1801.35,-168.5 1801.35,-187.5 1865.35,-187.5 1865.35,-168.5 1801.35,-168.5"/>
<text text-anchor="middle" x="1833.35" y="-175.5" font-family="Helvetica,sans-Serif" font-size="10.00">algorithm</text>
</a>
</g>
</g>
<!-- Node37&#45;&gt;Node39 -->
<g id="edge36" class="edge">
<title>Node37&#45;&gt;Node39</title>
<path fill="none" stroke="midnightblue" d="M1229.07,-231.98C1324.41,-229.11 1573.79,-219.16 1791.2,-187.96"/>
<polygon fill="midnightblue" stroke="midnightblue" points="1791.81,-191.41 1801.2,-186.51 1790.8,-184.48 1791.81,-191.41"/>
</g>
<!-- Node40 -->
<g id="node32" class="node">
<title>Node40</title>
<g id="a_node32"><a xlink:title=" ">
<polygon fill="white" stroke="#bfbfbf" points="315.85,-168.5 315.85,-187.5 434.85,-187.5 434.85,-168.5 315.85,-168.5"/>
<text text-anchor="middle" x="375.35" y="-175.5" font-family="Helvetica,sans-Serif" font-size="10.00">G4TriangularFacet.hh</text>
</a>
</g>
</g>
<!-- Node37&#45;&gt;Node40 -->
<g id="edge39" class="edge">
<title>Node37&#45;&gt;Node40</title>
<path fill="none" stroke="midnightblue" d="M1149.7,-231.57C1039.7,-227.41 721.2,-213.97 445.37,-188.03"/>
<polygon fill="midnightblue" stroke="midnightblue" points="445.45,-184.52 435.16,-187.06 444.79,-191.49 445.45,-184.52"/>
</g>
<!-- Node41 -->
<g id="node33" class="node">
<title>Node41</title>
<g id="a_node33"><a xlink:title=" ">
<polygon fill="white" stroke="#bfbfbf" points="453.35,-168.5 453.35,-187.5 513.35,-187.5 513.35,-168.5 453.35,-168.5"/>
<text text-anchor="middle" x="483.35" y="-175.5" font-family="Helvetica,sans-Serif" font-size="10.00">iostream</text>
</a>
</g>
</g>
<!-- Node37&#45;&gt;Node41 -->
<g id="edge42" class="edge">
<title>Node37&#45;&gt;Node41</title>
<path fill="none" stroke="midnightblue" d="M1149.65,-232.52C1047.35,-230.83 766.39,-223.21 523.57,-187.94"/>
<polygon fill="midnightblue" stroke="midnightblue" points="523.9,-184.45 513.49,-186.46 522.88,-191.37 523.9,-184.45"/>
</g>
<!-- Node42 -->
<g id="node34" class="node">
<title>Node42</title>
<g id="a_node34"><a xlink:title=" ">
<polygon fill="white" stroke="#bfbfbf" points="531.35,-168.5 531.35,-187.5 575.35,-187.5 575.35,-168.5 531.35,-168.5"/>
<text text-anchor="middle" x="553.35" y="-175.5" font-family="Helvetica,sans-Serif" font-size="10.00">string</text>
</a>
</g>
</g>
<!-- Node37&#45;&gt;Node42 -->
<g id="edge43" class="edge">
<title>Node37&#45;&gt;Node42</title>
<path fill="none" stroke="midnightblue" d="M1149.71,-232.89C1054,-232.03 802.78,-226.17 585.56,-187.84"/>
<polygon fill="midnightblue" stroke="midnightblue" points="586.03,-184.37 575.57,-186.05 584.8,-191.26 586.03,-184.37"/>
</g>
<!-- Node43 -->
<g id="node35" class="node">
<title>Node43</title>
<g id="a_node35"><a xlink:title=" ">
<polygon fill="white" stroke="#bfbfbf" points="593.35,-168.5 593.35,-187.5 723.35,-187.5 723.35,-168.5 593.35,-168.5"/>
<text text-anchor="middle" x="658.35" y="-175.5" font-family="Helvetica,sans-Serif" font-size="10.00">G4AssemblyVolume.hh</text>
</a>
</g>
</g>
<!-- Node37&#45;&gt;Node43 -->
<g id="edge44" class="edge">
<title>Node37&#45;&gt;Node43</title>
<path fill="none" stroke="midnightblue" d="M1149.73,-229.25C1071.08,-221.75 889.67,-204.26 737.35,-188 736.08,-187.86 734.79,-187.73 733.5,-187.59"/>
<polygon fill="midnightblue" stroke="midnightblue" points="733.76,-184.09 723.44,-186.49 733,-191.05 733.76,-184.09"/>
</g>
<!-- Node44 -->
<g id="node36" class="node">
<title>Node44</title>
<g id="a_node36"><a xlink:title=" ">
<polygon fill="white" stroke="#bfbfbf" points="779.35,-168.5 779.35,-187.5 895.35,-187.5 895.35,-168.5 779.35,-168.5"/>
<text text-anchor="middle" x="837.35" y="-175.5" font-family="Helvetica,sans-Serif" font-size="10.00">G4LogicalVolume.hh</text>
</a>
</g>
</g>
<!-- Node37&#45;&gt;Node44 -->
<g id="edge45" class="edge">
<title>Node37&#45;&gt;Node44</title>
<path fill="none" stroke="midnightblue" d="M1149.66,-226.91C1089.64,-217.7 975.14,-200.14 902.7,-189.03"/>
<polygon fill="midnightblue" stroke="midnightblue" points="903.18,-185.56 892.77,-187.5 902.12,-192.48 903.18,-185.56"/>
</g>
<!-- Node45 -->
<g id="node37" class="node">
<title>Node45</title>
<g id="a_node37"><a xlink:title=" ">
<polygon fill="white" stroke="#bfbfbf" points="913.35,-168.5 913.35,-187.5 999.35,-187.5 999.35,-168.5 913.35,-168.5"/>
<text text-anchor="middle" x="956.35" y="-175.5" font-family="Helvetica,sans-Serif" font-size="10.00">G4Material.hh</text>
</a>
</g>
</g>
<!-- Node37&#45;&gt;Node45 -->
<g id="edge46" class="edge">
<title>Node37&#45;&gt;Node45</title>
<path fill="none" stroke="midnightblue" d="M1152.43,-224.44C1111.96,-215.06 1046.93,-199.99 1002.97,-189.8"/>
<polygon fill="midnightblue" stroke="midnightblue" points="1003.63,-186.36 993.1,-187.52 1002.05,-193.18 1003.63,-186.36"/>
</g>
<!-- Node46 -->
<g id="node38" class="node">
<title>Node46</title>
<g id="a_node38"><a xlink:title=" ">
<polygon fill="white" stroke="#bfbfbf" points="1017.35,-168.5 1017.35,-187.5 1141.35,-187.5 1141.35,-168.5 1017.35,-168.5"/>
<text text-anchor="middle" x="1079.35" y="-175.5" font-family="Helvetica,sans-Serif" font-size="10.00">G4TessellatedSolid.hh</text>
</a>
</g>
</g>
<!-- Node37&#45;&gt;Node46 -->
<g id="edge47" class="edge">
<title>Node37&#45;&gt;Node46</title>
<path fill="none" stroke="midnightblue" d="M1171.68,-224.32C1153.96,-215.62 1126.45,-202.12 1106.06,-192.11"/>
<polygon fill="midnightblue" stroke="midnightblue" points="1107.5,-188.92 1096.98,-187.65 1104.41,-195.2 1107.5,-188.92"/>
</g>
<!-- Node47 -->
<g id="node39" class="node">
<title>Node47</title>
<g id="a_node39"><a xlink:title=" ">
<polygon fill="white" stroke="#bfbfbf" points="1159.85,-168.5 1159.85,-187.5 1218.85,-187.5 1218.85,-168.5 1159.85,-168.5"/>
<text text-anchor="middle" x="1189.35" y="-175.5" font-family="Helvetica,sans-Serif" font-size="10.00">G4Tet.hh</text>
</a>
</g>
</g>
<!-- Node37&#45;&gt;Node47 -->
<g id="edge48" class="edge">
<title>Node37&#45;&gt;Node47</title>
<path fill="none" stroke="midnightblue" d="M1189.35,-224.08C1189.35,-217.01 1189.35,-206.86 1189.35,-197.99"/>
<polygon fill="midnightblue" stroke="midnightblue" points="1192.85,-197.75 1189.35,-187.75 1185.85,-197.75 1192.85,-197.75"/>
</g>
<!-- Node48 -->
<g id="node40" class="node">
<title>Node48</title>
<g id="a_node40"><a xlink:title=" ">
<polygon fill="white" stroke="#bfbfbf" points="1237.35,-168.5 1237.35,-187.5 1341.35,-187.5 1341.35,-168.5 1237.35,-168.5"/>
<text text-anchor="middle" x="1289.35" y="-175.5" font-family="Helvetica,sans-Serif" font-size="10.00">G4UIcommand.hh</text>
</a>
</g>
</g>
<!-- Node37&#45;&gt;Node48 -->
<g id="edge49" class="edge">
<title>Node37&#45;&gt;Node48</title>
<path fill="none" stroke="midnightblue" d="M1205.42,-224.32C1221.31,-215.74 1245.86,-202.49 1264.31,-192.52"/>
<polygon fill="midnightblue" stroke="midnightblue" points="1266.19,-195.49 1273.32,-187.65 1262.86,-189.33 1266.19,-195.49"/>
</g>
<!-- Node49 -->
<g id="node41" class="node">
<title>Node49</title>
<g id="a_node41"><a xlink:title=" ">
<polygon fill="white" stroke="#bfbfbf" points="1359.85,-168.5 1359.85,-187.5 1426.85,-187.5 1426.85,-168.5 1359.85,-168.5"/>
<text text-anchor="middle" x="1393.35" y="-175.5" font-family="Helvetica,sans-Serif" font-size="10.00">globals.hh</text>
</a>
</g>
</g>
<!-- Node37&#45;&gt;Node49 -->
<g id="edge50" class="edge">
<title>Node37&#45;&gt;Node49</title>
<path fill="none" stroke="midnightblue" d="M1221.68,-224.44C1256.74,-215.16 1312.85,-200.31 1351.32,-190.13"/>
<polygon fill="midnightblue" stroke="midnightblue" points="1352.41,-193.46 1361.18,-187.52 1350.61,-186.69 1352.41,-193.46"/>
</g>
<!-- Node50 -->
<g id="node42" class="node">
<title>Node50</title>
<g id="a_node42"><a xlink:title=" ">
<polygon fill="white" stroke="#bfbfbf" points="1445.35,-168.5 1445.35,-187.5 1501.35,-187.5 1501.35,-168.5 1445.35,-168.5"/>
<text text-anchor="middle" x="1473.35" y="-175.5" font-family="Helvetica,sans-Serif" font-size="10.00">sstream</text>
</a>
</g>
</g>
<!-- Node37&#45;&gt;Node50 -->
<g id="edge52" class="edge">
<title>Node37&#45;&gt;Node50</title>
<path fill="none" stroke="midnightblue" d="M1229.1,-226.38C1277.84,-218.11 1362.9,-203.2 1435.35,-188 1435.45,-187.98 1435.55,-187.96 1435.65,-187.94"/>
<polygon fill="midnightblue" stroke="midnightblue" points="1436.15,-191.41 1445.17,-185.85 1434.65,-184.57 1436.15,-191.41"/>
</g>
<!-- Node51 -->
<g id="node43" class="node">
<title>Node51</title>
<g id="a_node43"><a xlink:title=" ">
<polygon fill="white" stroke="#bfbfbf" points="1519.85,-168.5 1519.85,-187.5 1586.85,-187.5 1586.85,-168.5 1519.85,-168.5"/>
<text text-anchor="middle" x="1553.35" y="-175.5" font-family="Helvetica,sans-Serif" font-size="10.00">streambuf</text>
</a>
</g>
</g>
<!-- Node37&#45;&gt;Node51 -->
<g id="edge53" class="edge">
<title>Node37&#45;&gt;Node51</title>
<path fill="none" stroke="midnightblue" d="M1229.02,-228.31C1287.94,-221.15 1402.27,-206.53 1509.56,-188.03"/>
<polygon fill="midnightblue" stroke="midnightblue" points="1510.34,-191.45 1519.59,-186.29 1509.14,-184.55 1510.34,-191.45"/>
</g>
<!-- Node52 -->
<g id="node44" class="node">
<title>Node52</title>
<g id="a_node44"><a xlink:title=" ">
<polygon fill="white" stroke="#bfbfbf" points="1605.35,-168.5 1605.35,-187.5 1691.35,-187.5 1691.35,-168.5 1605.35,-168.5"/>
<text text-anchor="middle" x="1648.35" y="-175.5" font-family="Helvetica,sans-Serif" font-size="10.00">Randomize.hh</text>
</a>
</g>
</g>
<!-- Node37&#45;&gt;Node52 -->
<g id="edge54" class="edge">
<title>Node37&#45;&gt;Node52</title>
<path fill="none" stroke="midnightblue" d="M1228.92,-229.38C1301.65,-222.56 1461.39,-206.78 1595.35,-188 1595.45,-187.99 1595.55,-187.97 1595.65,-187.96"/>
<polygon fill="midnightblue" stroke="midnightblue" points="1595.91,-191.46 1605.28,-186.53 1594.88,-184.53 1595.91,-191.46"/>
</g>
</g>
</svg>
