<?xml version="1.0" encoding="UTF-8" standalone="no"?>
<!DOCTYPE svg PUBLIC "-//W3C//DTD SVG 1.1//EN"
 "http://www.w3.org/Graphics/SVG/1.1/DTD/svg11.dtd">
<!-- Generated by graphviz version 2.43.0 (0)
 -->
<!-- Title: OMSim_effective_area.cc Pages: 1 -->
<svg width="2461pt" height="420pt"
 viewBox="0.00 0.00 2461.00 420.00" xmlns="http://www.w3.org/2000/svg" xmlns:xlink="http://www.w3.org/1999/xlink">
<g id="graph0" class="graph" transform="scale(1 1) rotate(0) translate(4 416)">
<title>OMSim_effective_area.cc</title>
<polygon fill="white" stroke="transparent" points="-4,4 -4,-416 2457,-416 2457,4 -4,4"/>
<!-- Node1 -->
<g id="node1" class="node">
<title>Node1</title>
<g id="a_node1"><a xlink:title="Main for the calculation of effective areas.">
<polygon fill="#bfbfbf" stroke="black" points="1026.5,-392.5 1026.5,-411.5 1166.5,-411.5 1166.5,-392.5 1026.5,-392.5"/>
<text text-anchor="middle" x="1096.5" y="-399.5" font-family="Helvetica,sans-Serif" font-size="10.00">OMSim_effective_area.cc</text>
</a>
</g>
</g>
<!-- Node2 -->
<g id="node2" class="node">
<title>Node2</title>
<g id="a_node2"><a xlink:href="_o_m_sim_8hh.html" target="_top" xlink:title="Main simulation class for the Optical Module (OM) simulation. This file defines the OMSim class,...">
<polygon fill="white" stroke="black" points="1462,-336.5 1462,-355.5 1529,-355.5 1529,-336.5 1462,-336.5"/>
<text text-anchor="middle" x="1495.5" y="-343.5" font-family="Helvetica,sans-Serif" font-size="10.00">OMSim.hh</text>
</a>
</g>
</g>
<!-- Node1&#45;&gt;Node2 -->
<g id="edge1" class="edge">
<title>Node1&#45;&gt;Node2</title>
<path fill="none" stroke="midnightblue" d="M1159.72,-392.44C1241.24,-381.41 1380.89,-362.51 1451.65,-352.93"/>
<polygon fill="midnightblue" stroke="midnightblue" points="1452.55,-356.34 1461.99,-351.54 1451.61,-349.41 1452.55,-356.34"/>
</g>
<!-- Node53 -->
<g id="node47" class="node">
<title>Node53</title>
<g id="a_node47"><a xlink:href="_o_m_sim_angular_scan_8hh.html" target="_top" xlink:title="Defines the AngularScan class for configuring and running GPS beam with angular scans.">
<polygon fill="white" stroke="black" points="1982.5,-336.5 1982.5,-355.5 2110.5,-355.5 2110.5,-336.5 1982.5,-336.5"/>
<text text-anchor="middle" x="2046.5" y="-343.5" font-family="Helvetica,sans-Serif" font-size="10.00">OMSimAngularScan.hh</text>
</a>
</g>
</g>
<!-- Node1&#45;&gt;Node53 -->
<g id="edge52" class="edge">
<title>Node1&#45;&gt;Node53</title>
<path fill="none" stroke="midnightblue" d="M1166.74,-397.01C1341.28,-387.09 1793.44,-361.38 1972.2,-351.22"/>
<polygon fill="midnightblue" stroke="midnightblue" points="1972.51,-354.71 1982.3,-350.65 1972.12,-347.72 1972.51,-354.71"/>
</g>
<!-- Node55 -->
<g id="node49" class="node">
<title>Node55</title>
<g id="a_node49"><a xlink:href="_o_m_sim_effective_area_analyisis_8hh.html" target="_top" xlink:title=" ">
<polygon fill="white" stroke="black" points="715.5,-224.5 715.5,-243.5 891.5,-243.5 891.5,-224.5 715.5,-224.5"/>
<text text-anchor="middle" x="803.5" y="-231.5" font-family="Helvetica,sans-Serif" font-size="10.00">OMSimEffectiveAreaAnalyisis.hh</text>
</a>
</g>
</g>
<!-- Node1&#45;&gt;Node55 -->
<g id="edge54" class="edge">
<title>Node1&#45;&gt;Node55</title>
<path fill="none" stroke="midnightblue" d="M1046.77,-392.45C965.83,-377.4 811.37,-343.6 779.5,-300 768.9,-285.5 778.83,-265.81 788.94,-251.91"/>
<polygon fill="midnightblue" stroke="midnightblue" points="791.96,-253.74 795.4,-243.72 786.46,-249.4 791.96,-253.74"/>
</g>
<!-- Node56 -->
<g id="node50" class="node">
<title>Node56</title>
<g id="a_node50"><a xlink:href="_o_m_sim_effective_area_detector_8hh.html" target="_top" xlink:title="Defines the OMSimEffectiveAreaDetector class for effective area simulation detector construction.">
<polygon fill="white" stroke="black" points="559,-336.5 559,-355.5 732,-355.5 732,-336.5 559,-336.5"/>
<text text-anchor="middle" x="645.5" y="-343.5" font-family="Helvetica,sans-Serif" font-size="10.00">OMSimEffectiveAreaDetector.hh</text>
</a>
</g>
</g>
<!-- Node1&#45;&gt;Node56 -->
<g id="edge59" class="edge">
<title>Node1&#45;&gt;Node56</title>
<path fill="none" stroke="midnightblue" d="M1026.03,-392.56C944.97,-382.86 812.11,-366.95 726.76,-356.73"/>
<polygon fill="midnightblue" stroke="midnightblue" points="726.93,-353.23 716.59,-355.51 726.1,-360.18 726.93,-353.23"/>
</g>
<!-- Node3 -->
<g id="node3" class="node">
<title>Node3</title>
<g id="a_node3"><a xlink:href="_o_m_sim_detector_construction_8hh.html" target="_top" xlink:title=" ">
<polygon fill="white" stroke="black" points="560.5,-280.5 560.5,-299.5 730.5,-299.5 730.5,-280.5 560.5,-280.5"/>
<text text-anchor="middle" x="645.5" y="-287.5" font-family="Helvetica,sans-Serif" font-size="10.00">OMSimDetectorConstruction.hh</text>
</a>
</g>
</g>
<!-- Node2&#45;&gt;Node3 -->
<g id="edge2" class="edge">
<title>Node2&#45;&gt;Node3</title>
<path fill="none" stroke="midnightblue" d="M1461.95,-342.94C1359.6,-336.66 1042.37,-317.09 779.5,-300 767.02,-299.19 753.88,-298.32 740.91,-297.46"/>
<polygon fill="midnightblue" stroke="midnightblue" points="740.77,-293.94 730.56,-296.77 740.31,-300.93 740.77,-293.94"/>
</g>
<!-- Node34 -->
<g id="node28" class="node">
<title>Node34</title>
<g id="a_node28"><a xlink:title=" ">
<polygon fill="white" stroke="#bfbfbf" points="2044,-280.5 2044,-299.5 2165,-299.5 2165,-280.5 2044,-280.5"/>
<text text-anchor="middle" x="2104.5" y="-287.5" font-family="Helvetica,sans-Serif" font-size="10.00">OMSimPhysicsList.hh</text>
</a>
</g>
</g>
<!-- Node2&#45;&gt;Node34 -->
<g id="edge31" class="edge">
<title>Node2&#45;&gt;Node34</title>
<path fill="none" stroke="midnightblue" d="M1529.28,-342.57C1613.7,-336.41 1840.69,-319.28 2029.5,-300 2030.97,-299.85 2032.45,-299.7 2033.95,-299.54"/>
<polygon fill="midnightblue" stroke="midnightblue" points="2034.37,-303.01 2043.94,-298.45 2033.62,-296.05 2034.37,-303.01"/>
</g>
<!-- Node35 -->
<g id="node29" class="node">
<title>Node35</title>
<g id="a_node29"><a xlink:title=" ">
<polygon fill="white" stroke="#bfbfbf" points="2183,-280.5 2183,-299.5 2368,-299.5 2368,-280.5 2183,-280.5"/>
<text text-anchor="middle" x="2275.5" y="-287.5" font-family="Helvetica,sans-Serif" font-size="10.00">OMSimPrimaryGeneratorAction.hh</text>
</a>
</g>
</g>
<!-- Node2&#45;&gt;Node35 -->
<g id="edge32" class="edge">
<title>Node2&#45;&gt;Node35</title>
<path fill="none" stroke="midnightblue" d="M1529.03,-343.03C1626.49,-337.26 1918.38,-319.59 2172.77,-300.04"/>
<polygon fill="midnightblue" stroke="midnightblue" points="2173.24,-303.51 2182.94,-299.26 2172.7,-296.53 2173.24,-303.51"/>
</g>
<!-- Node36 -->
<g id="node30" class="node">
<title>Node36</title>
<g id="a_node30"><a xlink:href="_o_m_sim_run_action_8hh.html" target="_top" xlink:title=" ">
<polygon fill="white" stroke="black" points="788.5,-280.5 788.5,-299.5 904.5,-299.5 904.5,-280.5 788.5,-280.5"/>
<text text-anchor="middle" x="846.5" y="-287.5" font-family="Helvetica,sans-Serif" font-size="10.00">OMSimRunAction.hh</text>
</a>
</g>
</g>
<!-- Node2&#45;&gt;Node36 -->
<g id="edge33" class="edge">
<title>Node2&#45;&gt;Node36</title>
<path fill="none" stroke="midnightblue" d="M1461.98,-343.07C1374.07,-337.87 1129.42,-322.5 914.78,-300.08"/>
<polygon fill="midnightblue" stroke="midnightblue" points="914.89,-296.57 904.58,-299.01 914.16,-303.53 914.89,-296.57"/>
</g>
<!-- Node38 -->
<g id="node32" class="node">
<title>Node38</title>
<g id="a_node32"><a xlink:title=" ">
<polygon fill="white" stroke="#bfbfbf" points="923,-280.5 923,-299.5 1048,-299.5 1048,-280.5 923,-280.5"/>
<text text-anchor="middle" x="985.5" y="-287.5" font-family="Helvetica,sans-Serif" font-size="10.00">OMSimEventAction.hh</text>
</a>
</g>
</g>
<!-- Node2&#45;&gt;Node38 -->
<g id="edge35" class="edge">
<title>Node2&#45;&gt;Node38</title>
<path fill="none" stroke="midnightblue" d="M1461.95,-341.81C1390.14,-334.92 1215.96,-317.92 1058.65,-300.11"/>
<polygon fill="midnightblue" stroke="midnightblue" points="1058.65,-296.59 1048.32,-298.93 1057.86,-303.54 1058.65,-296.59"/>
</g>
<!-- Node39 -->
<g id="node33" class="node">
<title>Node39</title>
<g id="a_node33"><a xlink:href="_o_m_sim_tracking_action_8hh.html" target="_top" xlink:title=" ">
<polygon fill="white" stroke="black" points="1066.5,-280.5 1066.5,-299.5 1204.5,-299.5 1204.5,-280.5 1066.5,-280.5"/>
<text text-anchor="middle" x="1135.5" y="-287.5" font-family="Helvetica,sans-Serif" font-size="10.00">OMSimTrackingAction.hh</text>
</a>
</g>
</g>
<!-- Node2&#45;&gt;Node39 -->
<g id="edge36" class="edge">
<title>Node2&#45;&gt;Node39</title>
<path fill="none" stroke="midnightblue" d="M1461.96,-339.97C1402.9,-331.11 1279.36,-312.58 1202.33,-301.02"/>
<polygon fill="midnightblue" stroke="midnightblue" points="1202.65,-297.53 1192.25,-299.51 1201.62,-304.46 1202.65,-297.53"/>
</g>
<!-- Node41 -->
<g id="node35" class="node">
<title>Node41</title>
<g id="a_node35"><a xlink:href="_o_m_sim_stepping_action_8hh.html" target="_top" xlink:title="Defines OMSimSteppingAction.Currently it only checks for trapped photons.">
<polygon fill="white" stroke="black" points="1222.5,-280.5 1222.5,-299.5 1362.5,-299.5 1362.5,-280.5 1222.5,-280.5"/>
<text text-anchor="middle" x="1292.5" y="-287.5" font-family="Helvetica,sans-Serif" font-size="10.00">OMSimSteppingAction.hh</text>
</a>
</g>
</g>
<!-- Node2&#45;&gt;Node41 -->
<g id="edge38" class="edge">
<title>Node2&#45;&gt;Node41</title>
<path fill="none" stroke="midnightblue" d="M1463.33,-336.44C1428.44,-327.16 1372.61,-312.31 1334.33,-302.13"/>
<polygon fill="midnightblue" stroke="midnightblue" points="1335.08,-298.7 1324.52,-299.52 1333.28,-305.47 1335.08,-298.7"/>
</g>
<!-- Node43 -->
<g id="node37" class="node">
<title>Node43</title>
<g id="a_node37"><a xlink:href="_o_m_sim_u_iinterface_8hh.html" target="_top" xlink:title=" ">
<polygon fill="white" stroke="black" points="1668,-224.5 1668,-243.5 1789,-243.5 1789,-224.5 1668,-224.5"/>
<text text-anchor="middle" x="1728.5" y="-231.5" font-family="Helvetica,sans-Serif" font-size="10.00">OMSimUIinterface.hh</text>
</a>
</g>
</g>
<!-- Node2&#45;&gt;Node43 -->
<g id="edge40" class="edge">
<title>Node2&#45;&gt;Node43</title>
<path fill="none" stroke="midnightblue" d="M1529.36,-344.54C1636.83,-342.74 1965.01,-334.44 1996.5,-300 2002.5,-293.44 2002.24,-286.79 1996.5,-280 1971.7,-250.69 1870.12,-240.46 1799.41,-236.9"/>
<polygon fill="midnightblue" stroke="midnightblue" points="1799.36,-233.39 1789.21,-236.42 1799.03,-240.38 1799.36,-233.39"/>
</g>
<!-- Node48 -->
<g id="node42" class="node">
<title>Node48</title>
<g id="a_node42"><a xlink:title=" ">
<polygon fill="white" stroke="#bfbfbf" points="1380.5,-280.5 1380.5,-299.5 1486.5,-299.5 1486.5,-280.5 1380.5,-280.5"/>
<text text-anchor="middle" x="1433.5" y="-287.5" font-family="Helvetica,sans-Serif" font-size="10.00">G4RunManager.hh</text>
</a>
</g>
</g>
<!-- Node2&#45;&gt;Node48 -->
<g id="edge47" class="edge">
<title>Node2&#45;&gt;Node48</title>
<path fill="none" stroke="midnightblue" d="M1485.54,-336.32C1476.37,-328.34 1462.56,-316.31 1451.47,-306.65"/>
<polygon fill="midnightblue" stroke="midnightblue" points="1453.48,-303.76 1443.64,-299.83 1448.88,-309.04 1453.48,-303.76"/>
</g>
<!-- Node49 -->
<g id="node43" class="node">
<title>Node49</title>
<g id="a_node43"><a xlink:title=" ">
<polygon fill="white" stroke="#bfbfbf" points="1505,-280.5 1505,-299.5 1612,-299.5 1612,-280.5 1505,-280.5"/>
<text text-anchor="middle" x="1558.5" y="-287.5" font-family="Helvetica,sans-Serif" font-size="10.00">G4VisExecutive.hh</text>
</a>
</g>
</g>
<!-- Node2&#45;&gt;Node49 -->
<g id="edge48" class="edge">
<title>Node2&#45;&gt;Node49</title>
<path fill="none" stroke="midnightblue" d="M1505.62,-336.32C1515.03,-328.26 1529.24,-316.08 1540.57,-306.37"/>
<polygon fill="midnightblue" stroke="midnightblue" points="1542.88,-309 1548.19,-299.83 1538.32,-303.68 1542.88,-309"/>
</g>
<!-- Node50 -->
<g id="node44" class="node">
<title>Node50</title>
<g id="a_node44"><a xlink:title=" ">
<polygon fill="white" stroke="#bfbfbf" points="1630,-280.5 1630,-299.5 1733,-299.5 1733,-280.5 1630,-280.5"/>
<text text-anchor="middle" x="1681.5" y="-287.5" font-family="Helvetica,sans-Serif" font-size="10.00">G4UIExecutive.hh</text>
</a>
</g>
</g>
<!-- Node2&#45;&gt;Node50 -->
<g id="edge49" class="edge">
<title>Node2&#45;&gt;Node50</title>
<path fill="none" stroke="midnightblue" d="M1524.97,-336.44C1556.67,-327.24 1607.23,-312.56 1642.27,-302.39"/>
<polygon fill="midnightblue" stroke="midnightblue" points="1643.54,-305.67 1652.17,-299.52 1641.59,-298.94 1643.54,-305.67"/>
</g>
<!-- Node51 -->
<g id="node45" class="node">
<title>Node51</title>
<g id="a_node45"><a xlink:title=" ">
<polygon fill="white" stroke="#bfbfbf" points="1751.5,-280.5 1751.5,-299.5 1819.5,-299.5 1819.5,-280.5 1751.5,-280.5"/>
<text text-anchor="middle" x="1785.5" y="-287.5" font-family="Helvetica,sans-Serif" font-size="10.00">filesystem</text>
</a>
</g>
</g>
<!-- Node2&#45;&gt;Node51 -->
<g id="edge50" class="edge">
<title>Node2&#45;&gt;Node51</title>
<path fill="none" stroke="midnightblue" d="M1529.36,-339.04C1576.84,-330.62 1665.84,-314.66 1741.5,-300 1741.6,-299.98 1741.7,-299.96 1741.8,-299.94"/>
<polygon fill="midnightblue" stroke="midnightblue" points="1742.27,-303.42 1751.4,-298.05 1740.92,-296.55 1742.27,-303.42"/>
</g>
<!-- Node52 -->
<g id="node46" class="node">
<title>Node52</title>
<g id="a_node46"><a xlink:title=" ">
<polygon fill="white" stroke="#bfbfbf" points="1837.5,-280.5 1837.5,-299.5 1987.5,-299.5 1987.5,-280.5 1837.5,-280.5"/>
<text text-anchor="middle" x="1912.5" y="-287.5" font-family="Helvetica,sans-Serif" font-size="10.00">boost/program_options.hpp</text>
</a>
</g>
</g>
<!-- Node2&#45;&gt;Node52 -->
<g id="edge51" class="edge">
<title>Node2&#45;&gt;Node52</title>
<path fill="none" stroke="midnightblue" d="M1529.27,-340.63C1595.8,-332.01 1745.29,-312.65 1836.65,-300.82"/>
<polygon fill="midnightblue" stroke="midnightblue" points="1837.21,-304.28 1846.67,-299.52 1836.31,-297.34 1837.21,-304.28"/>
</g>
<!-- Node4 -->
<g id="node4" class="node">
<title>Node4</title>
<g id="a_node4"><a xlink:href="_o_m_sim_optical_module_8hh.html" target="_top" xlink:title=" ">
<polygon fill="white" stroke="black" points="480,-224.5 480,-243.5 617,-243.5 617,-224.5 480,-224.5"/>
<text text-anchor="middle" x="548.5" y="-231.5" font-family="Helvetica,sans-Serif" font-size="10.00">OMSimOpticalModule.hh</text>
</a>
</g>
</g>
<!-- Node3&#45;&gt;Node4 -->
<g id="edge3" class="edge">
<title>Node3&#45;&gt;Node4</title>
<path fill="none" stroke="midnightblue" d="M629.92,-280.32C614.5,-271.74 590.69,-258.49 572.79,-248.52"/>
<polygon fill="midnightblue" stroke="midnightblue" points="574.49,-245.46 564.05,-243.65 571.08,-251.58 574.49,-245.46"/>
</g>
<!-- Node32 -->
<g id="node26" class="node">
<title>Node32</title>
<g id="a_node26"><a xlink:title=" ">
<polygon fill="white" stroke="#bfbfbf" points="635.5,-224.5 635.5,-243.5 697.5,-243.5 697.5,-224.5 635.5,-224.5"/>
<text text-anchor="middle" x="666.5" y="-231.5" font-family="Helvetica,sans-Serif" font-size="10.00">G4Orb.hh</text>
</a>
</g>
</g>
<!-- Node3&#45;&gt;Node32 -->
<g id="edge29" class="edge">
<title>Node3&#45;&gt;Node32</title>
<path fill="none" stroke="midnightblue" d="M648.97,-280.08C651.81,-272.77 655.93,-262.18 659.46,-253.1"/>
<polygon fill="midnightblue" stroke="midnightblue" points="662.73,-254.34 663.1,-243.75 656.21,-251.8 662.73,-254.34"/>
</g>
<!-- Node33 -->
<g id="node27" class="node">
<title>Node33</title>
<g id="a_node27"><a xlink:title=" ">
<polygon fill="white" stroke="#bfbfbf" points="283.5,-224.5 283.5,-243.5 461.5,-243.5 461.5,-224.5 283.5,-224.5"/>
<text text-anchor="middle" x="372.5" y="-231.5" font-family="Helvetica,sans-Serif" font-size="10.00">G4VUserDetectorConstruction.hh</text>
</a>
</g>
</g>
<!-- Node3&#45;&gt;Node33 -->
<g id="edge30" class="edge">
<title>Node3&#45;&gt;Node33</title>
<path fill="none" stroke="midnightblue" d="M602.24,-280.44C554.32,-270.96 477.02,-255.67 425.5,-245.48"/>
<polygon fill="midnightblue" stroke="midnightblue" points="426.04,-242.02 415.56,-243.52 424.69,-248.89 426.04,-242.02"/>
</g>
<!-- Node5 -->
<g id="node5" class="node">
<title>Node5</title>
<g id="a_node5"><a xlink:href="abc_detector_component_8hh.html" target="_top" xlink:title="Provides helper base class abcDetectorComponent for constructing and managing detector components in ...">
<polygon fill="white" stroke="black" points="377,-112.5 377,-131.5 524,-131.5 524,-112.5 377,-112.5"/>
<text text-anchor="middle" x="450.5" y="-119.5" font-family="Helvetica,sans-Serif" font-size="10.00">abcDetectorComponent.hh</text>
</a>
</g>
</g>
<!-- Node4&#45;&gt;Node5 -->
<g id="edge4" class="edge">
<title>Node4&#45;&gt;Node5</title>
<path fill="none" stroke="midnightblue" d="M548.02,-224.5C546.86,-211.13 542.91,-184.97 529.5,-168 518.07,-153.54 500.64,-142.91 485.05,-135.62"/>
<polygon fill="midnightblue" stroke="midnightblue" points="486.21,-132.31 475.65,-131.51 483.41,-138.73 486.21,-132.31"/>
</g>
<!-- Node19 -->
<g id="node13" class="node">
<title>Node19</title>
<g id="a_node13"><a xlink:href="_o_m_sim_hit_manager_8hh.html" target="_top" xlink:title="Defines structures and classes related to optical module photon hit management.">
<polygon fill="white" stroke="black" points="742,-168.5 742,-187.5 865,-187.5 865,-168.5 742,-168.5"/>
<text text-anchor="middle" x="803.5" y="-175.5" font-family="Helvetica,sans-Serif" font-size="10.00">OMSimHitManager.hh</text>
</a>
</g>
</g>
<!-- Node4&#45;&gt;Node19 -->
<g id="edge12" class="edge">
<title>Node4&#45;&gt;Node19</title>
<path fill="none" stroke="midnightblue" d="M588.91,-224.44C633.48,-215 705.27,-199.8 753.39,-189.61"/>
<polygon fill="midnightblue" stroke="midnightblue" points="754.23,-193.01 763.28,-187.52 752.78,-186.16 754.23,-193.01"/>
</g>
<!-- Node29 -->
<g id="node23" class="node">
<title>Node29</title>
<g id="a_node23"><a xlink:href="_o_m_sim_p_m_t_construction_8hh.html" target="_top" xlink:title="Construction of the PMTs.">
<polygon fill="white" stroke="black" points="354,-168.5 354,-187.5 503,-187.5 503,-168.5 354,-168.5"/>
<text text-anchor="middle" x="428.5" y="-175.5" font-family="Helvetica,sans-Serif" font-size="10.00">OMSimPMTConstruction.hh</text>
</a>
</g>
</g>
<!-- Node4&#45;&gt;Node29 -->
<g id="edge23" class="edge">
<title>Node4&#45;&gt;Node29</title>
<path fill="none" stroke="midnightblue" d="M529.49,-224.44C509.91,-215.64 479.19,-201.81 456.77,-191.72"/>
<polygon fill="midnightblue" stroke="midnightblue" points="457.98,-188.43 447.43,-187.52 455.11,-194.81 457.98,-188.43"/>
</g>
<!-- Node6 -->
<g id="node6" class="node">
<title>Node6</title>
<g id="a_node6"><a xlink:href="_o_m_sim_input_data_8hh.html" target="_top" xlink:title="Definition of ParameterTable and InputDataManager.">
<polygon fill="white" stroke="red" points="562,-56.5 562,-75.5 677,-75.5 677,-56.5 562,-56.5"/>
<text text-anchor="middle" x="619.5" y="-63.5" font-family="Helvetica,sans-Serif" font-size="10.00">OMSimInputData.hh</text>
</a>
</g>
</g>
<!-- Node5&#45;&gt;Node6 -->
<g id="edge5" class="edge">
<title>Node5&#45;&gt;Node6</title>
<path fill="none" stroke="midnightblue" d="M477.28,-112.44C505.83,-103.32 551.23,-88.81 583.04,-78.65"/>
<polygon fill="midnightblue" stroke="midnightblue" points="584.39,-81.89 592.85,-75.52 582.26,-75.23 584.39,-81.89"/>
</g>
<!-- Node15 -->
<g id="node9" class="node">
<title>Node15</title>
<g id="a_node9"><a xlink:title=" ">
<polygon fill="white" stroke="#bfbfbf" points="0,-56.5 0,-75.5 107,-75.5 107,-56.5 0,-56.5"/>
<text text-anchor="middle" x="53.5" y="-63.5" font-family="Helvetica,sans-Serif" font-size="10.00">G4Transform3D.hh</text>
</a>
</g>
</g>
<!-- Node5&#45;&gt;Node15 -->
<g id="edge8" class="edge">
<title>Node5&#45;&gt;Node15</title>
<path fill="none" stroke="midnightblue" d="M386.14,-112.48C321.03,-103.83 217.2,-89.94 117.1,-76.07"/>
<polygon fill="midnightblue" stroke="midnightblue" points="117.5,-72.6 107.11,-74.69 116.54,-79.53 117.5,-72.6"/>
</g>
<!-- Node16 -->
<g id="node10" class="node">
<title>Node16</title>
<g id="a_node10"><a xlink:title=" ">
<polygon fill="white" stroke="#bfbfbf" points="125.5,-56.5 125.5,-75.5 233.5,-75.5 233.5,-56.5 125.5,-56.5"/>
<text text-anchor="middle" x="179.5" y="-63.5" font-family="Helvetica,sans-Serif" font-size="10.00">G4VisAttributes.hh</text>
</a>
</g>
</g>
<!-- Node5&#45;&gt;Node16 -->
<g id="edge9" class="edge">
<title>Node5&#45;&gt;Node16</title>
<path fill="none" stroke="midnightblue" d="M407.56,-112.44C359.99,-102.96 283.26,-87.67 232.11,-77.48"/>
<polygon fill="midnightblue" stroke="midnightblue" points="232.73,-74.04 222.24,-75.52 231.36,-80.9 232.73,-74.04"/>
</g>
<!-- Node17 -->
<g id="node11" class="node">
<title>Node17</title>
<g id="a_node11"><a xlink:title=" ">
<polygon fill="white" stroke="#bfbfbf" points="252,-56.5 252,-75.5 377,-75.5 377,-56.5 252,-56.5"/>
<text text-anchor="middle" x="314.5" y="-63.5" font-family="Helvetica,sans-Serif" font-size="10.00">G4SubtractionSolid.hh</text>
</a>
</g>
</g>
<!-- Node5&#45;&gt;Node17 -->
<g id="edge10" class="edge">
<title>Node5&#45;&gt;Node17</title>
<path fill="none" stroke="midnightblue" d="M428.95,-112.44C406.47,-103.52 371.01,-89.44 345.52,-79.32"/>
<polygon fill="midnightblue" stroke="midnightblue" points="346.53,-75.95 335.95,-75.52 343.95,-82.46 346.53,-75.95"/>
</g>
<!-- Node18 -->
<g id="node12" class="node">
<title>Node18</title>
<g id="a_node12"><a xlink:title=" ">
<polygon fill="white" stroke="#bfbfbf" points="395.5,-56.5 395.5,-75.5 505.5,-75.5 505.5,-56.5 395.5,-56.5"/>
<text text-anchor="middle" x="450.5" y="-63.5" font-family="Helvetica,sans-Serif" font-size="10.00">G4PVPlacement.hh</text>
</a>
</g>
</g>
<!-- Node5&#45;&gt;Node18 -->
<g id="edge11" class="edge">
<title>Node5&#45;&gt;Node18</title>
<path fill="none" stroke="midnightblue" d="M450.5,-112.08C450.5,-105.01 450.5,-94.86 450.5,-85.99"/>
<polygon fill="midnightblue" stroke="midnightblue" points="454,-85.75 450.5,-75.75 447,-85.75 454,-85.75"/>
</g>
<!-- Node7 -->
<g id="node7" class="node">
<title>Node7</title>
<g id="a_node7"><a xlink:href="_o_m_sim_logger_8hh.html" target="_top" xlink:title=" ">
<polygon fill="white" stroke="red" points="926,-0.5 926,-19.5 1025,-19.5 1025,-0.5 926,-0.5"/>
<text text-anchor="middle" x="975.5" y="-7.5" font-family="Helvetica,sans-Serif" font-size="10.00">OMSimLogger.hh</text>
</a>
</g>
</g>
<!-- Node6&#45;&gt;Node7 -->
<g id="edge6" class="edge">
<title>Node6&#45;&gt;Node7</title>
<path fill="none" stroke="midnightblue" d="M675.91,-56.44C741.46,-46.5 849.15,-30.17 915.99,-20.03"/>
<polygon fill="midnightblue" stroke="midnightblue" points="916.59,-23.48 925.95,-18.52 915.54,-16.55 916.59,-23.48"/>
</g>
<!-- Node13 -->
<g id="node8" class="node">
<title>Node13</title>
<g id="a_node8"><a xlink:title=" ">
<polygon fill="white" stroke="#bfbfbf" points="517,-0.5 517,-19.5 636,-19.5 636,-0.5 517,-0.5"/>
<text text-anchor="middle" x="576.5" y="-7.5" font-family="Helvetica,sans-Serif" font-size="10.00">G4SystemOfUnits.hh</text>
</a>
</g>
</g>
<!-- Node6&#45;&gt;Node13 -->
<g id="edge7" class="edge">
<title>Node6&#45;&gt;Node13</title>
<path fill="none" stroke="midnightblue" d="M612.4,-56.08C606.26,-48.38 597.23,-37.03 589.76,-27.65"/>
<polygon fill="midnightblue" stroke="midnightblue" points="592.44,-25.39 583.47,-19.75 586.96,-29.75 592.44,-25.39"/>
</g>
<!-- Node20 -->
<g id="node14" class="node">
<title>Node20</title>
<g id="a_node14"><a xlink:href="_o_m_sim_p_m_t_response_8hh.html" target="_top" xlink:title="Simulation of PMT response.">
<polygon fill="white" stroke="black" points="584,-112.5 584,-131.5 719,-131.5 719,-112.5 584,-112.5"/>
<text text-anchor="middle" x="651.5" y="-119.5" font-family="Helvetica,sans-Serif" font-size="10.00">OMSimPMTResponse.hh</text>
</a>
</g>
</g>
<!-- Node19&#45;&gt;Node20 -->
<g id="edge13" class="edge">
<title>Node19&#45;&gt;Node20</title>
<path fill="none" stroke="midnightblue" d="M779.42,-168.44C753.96,-159.4 713.61,-145.06 685.04,-134.92"/>
<polygon fill="midnightblue" stroke="midnightblue" points="686.07,-131.57 675.47,-131.52 683.72,-138.16 686.07,-131.57"/>
</g>
<!-- Node25 -->
<g id="node19" class="node">
<title>Node25</title>
<g id="a_node19"><a xlink:title=" ">
<polygon fill="white" stroke="#bfbfbf" points="958,-112.5 958,-131.5 1061,-131.5 1061,-112.5 958,-112.5"/>
<text text-anchor="middle" x="1009.5" y="-119.5" font-family="Helvetica,sans-Serif" font-size="10.00">G4ThreeVector.hh</text>
</a>
</g>
</g>
<!-- Node19&#45;&gt;Node25 -->
<g id="edge19" class="edge">
<title>Node19&#45;&gt;Node25</title>
<path fill="none" stroke="midnightblue" d="M836.14,-168.44C871.55,-159.16 928.21,-144.31 967.05,-134.13"/>
<polygon fill="midnightblue" stroke="midnightblue" points="968.23,-137.44 977.01,-131.52 966.45,-130.67 968.23,-137.44"/>
</g>
<!-- Node26 -->
<g id="node20" class="node">
<title>Node26</title>
<g id="a_node20"><a xlink:title=" ">
<polygon fill="white" stroke="#bfbfbf" points="1079,-112.5 1079,-131.5 1134,-131.5 1134,-112.5 1079,-112.5"/>
<text text-anchor="middle" x="1106.5" y="-119.5" font-family="Helvetica,sans-Serif" font-size="10.00">fstream</text>
</a>
</g>
</g>
<!-- Node19&#45;&gt;Node26 -->
<g id="edge20" class="edge">
<title>Node19&#45;&gt;Node26</title>
<path fill="none" stroke="midnightblue" d="M861.06,-168.47C912.87,-160.52 991.29,-147.81 1068.74,-132.04"/>
<polygon fill="midnightblue" stroke="midnightblue" points="1069.58,-135.44 1078.67,-129.99 1068.17,-128.58 1069.58,-135.44"/>
</g>
<!-- Node27 -->
<g id="node21" class="node">
<title>Node27</title>
<g id="a_node21"><a xlink:title=" ">
<polygon fill="white" stroke="#bfbfbf" points="737.5,-112.5 737.5,-131.5 827.5,-131.5 827.5,-112.5 737.5,-112.5"/>
<text text-anchor="middle" x="782.5" y="-119.5" font-family="Helvetica,sans-Serif" font-size="10.00">G4AutoLock.hh</text>
</a>
</g>
</g>
<!-- Node19&#45;&gt;Node27 -->
<g id="edge21" class="edge">
<title>Node19&#45;&gt;Node27</title>
<path fill="none" stroke="midnightblue" d="M800.03,-168.08C797.19,-160.77 793.07,-150.18 789.54,-141.1"/>
<polygon fill="midnightblue" stroke="midnightblue" points="792.79,-139.8 785.9,-131.75 786.27,-142.34 792.79,-139.8"/>
</g>
<!-- Node28 -->
<g id="node22" class="node">
<title>Node28</title>
<g id="a_node22"><a xlink:title=" ">
<polygon fill="white" stroke="#bfbfbf" points="845.5,-112.5 845.5,-131.5 939.5,-131.5 939.5,-112.5 845.5,-112.5"/>
<text text-anchor="middle" x="892.5" y="-119.5" font-family="Helvetica,sans-Serif" font-size="10.00">G4Threading.hh</text>
</a>
</g>
</g>
<!-- Node19&#45;&gt;Node28 -->
<g id="edge22" class="edge">
<title>Node19&#45;&gt;Node28</title>
<path fill="none" stroke="midnightblue" d="M817.8,-168.32C831.68,-159.9 852.99,-146.97 869.3,-137.07"/>
<polygon fill="midnightblue" stroke="midnightblue" points="871.5,-139.83 878.24,-131.65 867.87,-133.85 871.5,-139.83"/>
</g>
<!-- Node20&#45;&gt;Node13 -->
<g id="edge14" class="edge">
<title>Node20&#45;&gt;Node13</title>
<path fill="none" stroke="midnightblue" d="M607.49,-112.44C587.1,-106.03 564.71,-94.97 552.5,-76 542.78,-60.9 552.56,-41.31 562.4,-27.59"/>
<polygon fill="midnightblue" stroke="midnightblue" points="565.29,-29.58 568.67,-19.54 559.77,-25.28 565.29,-29.58"/>
</g>
<!-- Node21 -->
<g id="node15" class="node">
<title>Node21</title>
<g id="a_node15"><a xlink:title=" ">
<polygon fill="white" stroke="#bfbfbf" points="695,-56.5 695,-75.5 768,-75.5 768,-56.5 695,-56.5"/>
<text text-anchor="middle" x="731.5" y="-63.5" font-family="Helvetica,sans-Serif" font-size="10.00">G4Types.hh</text>
</a>
</g>
</g>
<!-- Node20&#45;&gt;Node21 -->
<g id="edge15" class="edge">
<title>Node20&#45;&gt;Node21</title>
<path fill="none" stroke="midnightblue" d="M664.35,-112.32C676.72,-103.98 695.63,-91.21 710.24,-81.35"/>
<polygon fill="midnightblue" stroke="midnightblue" points="712.35,-84.15 718.68,-75.65 708.43,-78.35 712.35,-84.15"/>
</g>
<!-- Node22 -->
<g id="node16" class="node">
<title>Node22</title>
<g id="a_node16"><a xlink:title=" ">
<polygon fill="white" stroke="#bfbfbf" points="786.5,-56.5 786.5,-75.5 824.5,-75.5 824.5,-56.5 786.5,-56.5"/>
<text text-anchor="middle" x="805.5" y="-63.5" font-family="Helvetica,sans-Serif" font-size="10.00">map</text>
</a>
</g>
</g>
<!-- Node20&#45;&gt;Node22 -->
<g id="edge16" class="edge">
<title>Node20&#45;&gt;Node22</title>
<path fill="none" stroke="midnightblue" d="M675.9,-112.44C703.21,-102.87 747.44,-87.36 776.5,-77.17"/>
<polygon fill="midnightblue" stroke="midnightblue" points="777.81,-80.42 786.09,-73.81 775.49,-73.81 777.81,-80.42"/>
</g>
<!-- Node23 -->
<g id="node17" class="node">
<title>Node23</title>
<g id="a_node17"><a xlink:title=" ">
<polygon fill="white" stroke="#bfbfbf" points="843,-56.5 843,-75.5 904,-75.5 904,-56.5 843,-56.5"/>
<text text-anchor="middle" x="873.5" y="-63.5" font-family="Helvetica,sans-Serif" font-size="10.00">TGraph.h</text>
</a>
</g>
</g>
<!-- Node20&#45;&gt;Node23 -->
<g id="edge17" class="edge">
<title>Node20&#45;&gt;Node23</title>
<path fill="none" stroke="midnightblue" d="M686.68,-112.44C726.43,-102.77 791.05,-87.05 832.91,-76.87"/>
<polygon fill="midnightblue" stroke="midnightblue" points="833.89,-80.24 842.78,-74.47 832.23,-73.44 833.89,-80.24"/>
</g>
<!-- Node24 -->
<g id="node18" class="node">
<title>Node24</title>
<g id="a_node18"><a xlink:title=" ">
<polygon fill="white" stroke="#bfbfbf" points="922,-56.5 922,-75.5 975,-75.5 975,-56.5 922,-56.5"/>
<text text-anchor="middle" x="948.5" y="-63.5" font-family="Helvetica,sans-Serif" font-size="10.00">TH2D.h</text>
</a>
</g>
</g>
<!-- Node20&#45;&gt;Node24 -->
<g id="edge18" class="edge">
<title>Node20&#45;&gt;Node24</title>
<path fill="none" stroke="midnightblue" d="M708.24,-112.46C758.99,-104.54 835.61,-91.9 911.59,-76.06"/>
<polygon fill="midnightblue" stroke="midnightblue" points="912.75,-79.39 921.81,-73.91 911.31,-72.54 912.75,-79.39"/>
</g>
<!-- Node29&#45;&gt;Node5 -->
<g id="edge24" class="edge">
<title>Node29&#45;&gt;Node5</title>
<path fill="none" stroke="midnightblue" d="M432.13,-168.08C435.11,-160.77 439.43,-150.18 443.12,-141.1"/>
<polygon fill="midnightblue" stroke="midnightblue" points="446.4,-142.33 446.93,-131.75 439.92,-139.69 446.4,-142.33"/>
</g>
<!-- Node29&#45;&gt;Node20 -->
<g id="edge26" class="edge">
<title>Node29&#45;&gt;Node20</title>
<path fill="none" stroke="midnightblue" d="M463.84,-168.44C502.41,-159.1 564.28,-144.12 606.35,-133.93"/>
<polygon fill="midnightblue" stroke="midnightblue" points="607.43,-137.27 616.33,-131.52 605.79,-130.47 607.43,-137.27"/>
</g>
<!-- Node29&#45;&gt;Node29 -->
<g id="edge25" class="edge">
<title>Node29&#45;&gt;Node29</title>
<path fill="none" stroke="midnightblue" d="M467.95,-187.53C494.76,-190.31 521,-187.13 521,-178 521,-170.01 500.91,-166.58 477.93,-167.71"/>
<polygon fill="midnightblue" stroke="midnightblue" points="477.65,-164.22 467.95,-168.47 478.19,-171.2 477.65,-164.22"/>
</g>
<!-- Node30 -->
<g id="node24" class="node">
<title>Node30</title>
<g id="a_node24"><a xlink:title=" ">
<polygon fill="white" stroke="#bfbfbf" points="175.5,-112.5 175.5,-131.5 273.5,-131.5 273.5,-112.5 175.5,-112.5"/>
<text text-anchor="middle" x="224.5" y="-119.5" font-family="Helvetica,sans-Serif" font-size="10.00">G4UnionSolid.hh</text>
</a>
</g>
</g>
<!-- Node29&#45;&gt;Node30 -->
<g id="edge27" class="edge">
<title>Node29&#45;&gt;Node30</title>
<path fill="none" stroke="midnightblue" d="M396.18,-168.44C361.11,-159.16 305,-144.31 266.54,-134.13"/>
<polygon fill="midnightblue" stroke="midnightblue" points="267.24,-130.69 256.67,-131.52 265.44,-137.46 267.24,-130.69"/>
</g>
<!-- Node31 -->
<g id="node25" class="node">
<title>Node31</title>
<g id="a_node25"><a xlink:title=" ">
<polygon fill="white" stroke="#bfbfbf" points="292,-112.5 292,-131.5 359,-131.5 359,-112.5 292,-112.5"/>
<text text-anchor="middle" x="325.5" y="-119.5" font-family="Helvetica,sans-Serif" font-size="10.00">G4Tubs.hh</text>
</a>
</g>
</g>
<!-- Node29&#45;&gt;Node31 -->
<g id="edge28" class="edge">
<title>Node29&#45;&gt;Node31</title>
<path fill="none" stroke="midnightblue" d="M411.95,-168.32C395.51,-159.7 370.07,-146.36 351.03,-136.39"/>
<polygon fill="midnightblue" stroke="midnightblue" points="352.49,-133.2 342.01,-131.65 349.24,-139.4 352.49,-133.2"/>
</g>
<!-- Node37 -->
<g id="node31" class="node">
<title>Node37</title>
<g id="a_node31"><a xlink:title=" ">
<polygon fill="white" stroke="#bfbfbf" points="910,-224.5 910,-243.5 1027,-243.5 1027,-224.5 910,-224.5"/>
<text text-anchor="middle" x="968.5" y="-231.5" font-family="Helvetica,sans-Serif" font-size="10.00">G4UserRunAction.hh</text>
</a>
</g>
</g>
<!-- Node36&#45;&gt;Node37 -->
<g id="edge34" class="edge">
<title>Node36&#45;&gt;Node37</title>
<path fill="none" stroke="midnightblue" d="M865.83,-280.44C885.82,-271.6 917.24,-257.69 940.06,-247.59"/>
<polygon fill="midnightblue" stroke="midnightblue" points="941.53,-250.76 949.26,-243.52 938.7,-244.36 941.53,-250.76"/>
</g>
<!-- Node40 -->
<g id="node34" class="node">
<title>Node40</title>
<g id="a_node34"><a xlink:title=" ">
<polygon fill="white" stroke="#bfbfbf" points="1066,-224.5 1066,-243.5 1205,-243.5 1205,-224.5 1066,-224.5"/>
<text text-anchor="middle" x="1135.5" y="-231.5" font-family="Helvetica,sans-Serif" font-size="10.00">G4UserTrackingAction.hh</text>
</a>
</g>
</g>
<!-- Node39&#45;&gt;Node40 -->
<g id="edge37" class="edge">
<title>Node39&#45;&gt;Node40</title>
<path fill="none" stroke="midnightblue" d="M1135.5,-280.08C1135.5,-273.01 1135.5,-262.86 1135.5,-253.99"/>
<polygon fill="midnightblue" stroke="midnightblue" points="1139,-253.75 1135.5,-243.75 1132,-253.75 1139,-253.75"/>
</g>
<!-- Node42 -->
<g id="node36" class="node">
<title>Node42</title>
<g id="a_node36"><a xlink:title=" ">
<polygon fill="white" stroke="#bfbfbf" points="1223,-224.5 1223,-243.5 1364,-243.5 1364,-224.5 1223,-224.5"/>
<text text-anchor="middle" x="1293.5" y="-231.5" font-family="Helvetica,sans-Serif" font-size="10.00">G4UserSteppingAction.hh</text>
</a>
</g>
</g>
<!-- Node41&#45;&gt;Node42 -->
<g id="edge39" class="edge">
<title>Node41&#45;&gt;Node42</title>
<path fill="none" stroke="midnightblue" d="M1292.67,-280.08C1292.8,-273.01 1292.98,-262.86 1293.15,-253.99"/>
<polygon fill="midnightblue" stroke="midnightblue" points="1296.65,-253.81 1293.34,-243.75 1289.65,-253.68 1296.65,-253.81"/>
</g>
<!-- Node44 -->
<g id="node38" class="node">
<title>Node44</title>
<g id="a_node38"><a xlink:href="_o_m_sim_command_args_table_8hh.html" target="_top" xlink:title="Definition of the OMSimCommandArgsTable singleton class, which controls user args.">
<polygon fill="white" stroke="black" points="1166.5,-168.5 1166.5,-187.5 1330.5,-187.5 1330.5,-168.5 1166.5,-168.5"/>
<text text-anchor="middle" x="1248.5" y="-175.5" font-family="Helvetica,sans-Serif" font-size="10.00">OMSimCommandArgsTable.hh</text>
</a>
</g>
</g>
<!-- Node43&#45;&gt;Node44 -->
<g id="edge41" class="edge">
<title>Node43&#45;&gt;Node44</title>
<path fill="none" stroke="midnightblue" d="M1667.71,-226.16C1583.28,-216.66 1430.13,-199.43 1334.16,-188.64"/>
<polygon fill="midnightblue" stroke="midnightblue" points="1334.52,-185.15 1324.19,-187.51 1333.73,-192.11 1334.52,-185.15"/>
</g>
<!-- Node47 -->
<g id="node41" class="node">
<title>Node47</title>
<g id="a_node41"><a xlink:title=" ">
<polygon fill="white" stroke="#bfbfbf" points="1679.5,-168.5 1679.5,-187.5 1777.5,-187.5 1777.5,-168.5 1679.5,-168.5"/>
<text text-anchor="middle" x="1728.5" y="-175.5" font-family="Helvetica,sans-Serif" font-size="10.00">G4UImanager.hh</text>
</a>
</g>
</g>
<!-- Node43&#45;&gt;Node47 -->
<g id="edge46" class="edge">
<title>Node43&#45;&gt;Node47</title>
<path fill="none" stroke="midnightblue" d="M1728.5,-224.08C1728.5,-217.01 1728.5,-206.86 1728.5,-197.99"/>
<polygon fill="midnightblue" stroke="midnightblue" points="1732,-197.75 1728.5,-187.75 1725,-197.75 1732,-197.75"/>
</g>
<!-- Node44&#45;&gt;Node7 -->
<g id="edge42" class="edge">
<title>Node44&#45;&gt;Node7</title>
<path fill="none" stroke="midnightblue" d="M1248.29,-168.26C1247.51,-154.58 1244.06,-128 1229.5,-112 1178.65,-56.13 1092.82,-30.69 1035.18,-19.44"/>
<polygon fill="midnightblue" stroke="midnightblue" points="1035.59,-15.95 1025.12,-17.56 1034.31,-22.83 1035.59,-15.95"/>
</g>
<!-- Node44&#45;&gt;Node26 -->
<g id="edge43" class="edge">
<title>Node44&#45;&gt;Node26</title>
<path fill="none" stroke="midnightblue" d="M1226,-168.44C1202.42,-159.48 1165.18,-145.31 1138.54,-135.18"/>
<polygon fill="midnightblue" stroke="midnightblue" points="1139.49,-131.8 1128.9,-131.52 1137,-138.34 1139.49,-131.8"/>
</g>
<!-- Node45 -->
<g id="node39" class="node">
<title>Node45</title>
<g id="a_node39"><a xlink:title=" ">
<polygon fill="white" stroke="#bfbfbf" points="1276.5,-112.5 1276.5,-131.5 1360.5,-131.5 1360.5,-112.5 1276.5,-112.5"/>
<text text-anchor="middle" x="1318.5" y="-119.5" font-family="Helvetica,sans-Serif" font-size="10.00">boost/any.hpp</text>
</a>
</g>
</g>
<!-- Node44&#45;&gt;Node45 -->
<g id="edge44" class="edge">
<title>Node44&#45;&gt;Node45</title>
<path fill="none" stroke="midnightblue" d="M1259.75,-168.32C1270.3,-160.18 1286.3,-147.84 1298.94,-138.09"/>
<polygon fill="midnightblue" stroke="midnightblue" points="1301.27,-140.71 1307.05,-131.83 1296.99,-135.17 1301.27,-140.71"/>
</g>
<!-- Node46 -->
<g id="node40" class="node">
<title>Node46</title>
<g id="a_node40"><a xlink:title=" ">
<polygon fill="white" stroke="#bfbfbf" points="1152.5,-112.5 1152.5,-131.5 1220.5,-131.5 1220.5,-112.5 1152.5,-112.5"/>
<text text-anchor="middle" x="1186.5" y="-119.5" font-family="Helvetica,sans-Serif" font-size="10.00">sys/time.h</text>
</a>
</g>
</g>
<!-- Node44&#45;&gt;Node46 -->
<g id="edge45" class="edge">
<title>Node44&#45;&gt;Node46</title>
<path fill="none" stroke="midnightblue" d="M1238.54,-168.32C1229.37,-160.34 1215.56,-148.31 1204.47,-138.65"/>
<polygon fill="midnightblue" stroke="midnightblue" points="1206.48,-135.76 1196.64,-131.83 1201.88,-141.04 1206.48,-135.76"/>
</g>
<!-- Node54 -->
<g id="node48" class="node">
<title>Node54</title>
<g id="a_node48"><a xlink:title=" ">
<polygon fill="white" stroke="#bfbfbf" points="2386,-280.5 2386,-299.5 2453,-299.5 2453,-280.5 2386,-280.5"/>
<text text-anchor="middle" x="2419.5" y="-287.5" font-family="Helvetica,sans-Serif" font-size="10.00">globals.hh</text>
</a>
</g>
</g>
<!-- Node53&#45;&gt;Node54 -->
<g id="edge53" class="edge">
<title>Node53&#45;&gt;Node54</title>
<path fill="none" stroke="midnightblue" d="M2110.59,-337.62C2175.01,-329.9 2277.4,-316.79 2375.64,-300.04"/>
<polygon fill="midnightblue" stroke="midnightblue" points="2376.48,-303.45 2385.74,-298.3 2375.29,-296.55 2376.48,-303.45"/>
</g>
<!-- Node55&#45;&gt;Node19 -->
<g id="edge56" class="edge">
<title>Node55&#45;&gt;Node19</title>
<path fill="none" stroke="midnightblue" d="M803.5,-224.08C803.5,-217.01 803.5,-206.86 803.5,-197.99"/>
<polygon fill="midnightblue" stroke="midnightblue" points="807,-197.75 803.5,-187.75 800,-197.75 807,-197.75"/>
</g>
<!-- Node55&#45;&gt;Node20 -->
<g id="edge55" class="edge">
<title>Node55&#45;&gt;Node20</title>
<path fill="none" stroke="midnightblue" d="M789.05,-224.49C774.48,-215.76 751.5,-201.58 732.5,-188 710.22,-172.08 685.87,-152.17 669.74,-138.61"/>
<polygon fill="midnightblue" stroke="midnightblue" points="671.59,-135.59 661.7,-131.79 667.07,-140.93 671.59,-135.59"/>
</g>
<!-- Node55&#45;&gt;Node25 -->
<g id="edge57" class="edge">
<title>Node55&#45;&gt;Node25</title>
<path fill="none" stroke="midnightblue" d="M819.66,-224.37C855.47,-205.25 941.65,-159.23 984.48,-136.36"/>
<polygon fill="midnightblue" stroke="midnightblue" points="986.24,-139.39 993.41,-131.59 982.94,-133.21 986.24,-139.39"/>
</g>
<!-- Node55&#45;&gt;Node26 -->
<g id="edge58" class="edge">
<title>Node55&#45;&gt;Node26</title>
<path fill="none" stroke="midnightblue" d="M827.28,-224.37C880.93,-204.89 1011.53,-157.48 1073.2,-135.09"/>
<polygon fill="midnightblue" stroke="midnightblue" points="1074.63,-138.29 1082.83,-131.59 1072.24,-131.71 1074.63,-138.29"/>
</g>
<!-- Node56&#45;&gt;Node3 -->
<g id="edge60" class="edge">
<title>Node56&#45;&gt;Node3</title>
<path fill="none" stroke="midnightblue" d="M645.5,-336.08C645.5,-329.01 645.5,-318.86 645.5,-309.99"/>
<polygon fill="midnightblue" stroke="midnightblue" points="649,-309.75 645.5,-299.75 642,-309.75 649,-309.75"/>
</g>
</g>
</svg>
