<?xml version="1.0" encoding="UTF-8" standalone="no"?>
<!DOCTYPE svg PUBLIC "-//W3C//DTD SVG 1.1//EN"
 "http://www.w3.org/Graphics/SVG/1.1/DTD/svg11.dtd">
<!-- Generated by graphviz version 2.43.0 (0)
 -->
<!-- Title: OMSimHitManager.hh Pages: 1 -->
<svg width="1478pt" height="247pt"
 viewBox="0.00 0.00 1478.40 247.00" xmlns="http://www.w3.org/2000/svg" xmlns:xlink="http://www.w3.org/1999/xlink">
<g id="graph0" class="graph" transform="scale(1 1) rotate(0) translate(4 243)">
<title>OMSimHitManager.hh</title>
<!-- Node1 -->
<g id="Node000001" class="node">
<title>Node1</title>
<g id="a_Node000001"><a xlink:title="Defines structures and classes related to optical module photon hit management.">
<polygon fill="#999999" stroke="#666666" points="1160.9,-239 1037.9,-239 1037.9,-220 1160.9,-220 1160.9,-239"/>
<text text-anchor="middle" x="1099.4" y="-227" font-family="Helvetica,sans-Serif" font-size="10.00">OMSimHitManager.hh</text>
</a>
</g>
</g>
<!-- Node2 -->
<g id="Node000002" class="node">
<title>Node2</title>
<g id="a_Node000002"><a xlink:href="_o_m_sim_effective_area_analyisis_8hh_source.html" target="_top" xlink:title=" ">
<polygon fill="white" stroke="#666666" points="194.4,-184 18.4,-184 18.4,-165 194.4,-165 194.4,-184"/>
<text text-anchor="middle" x="106.4" y="-172" font-family="Helvetica,sans-Serif" font-size="10.00">OMSimEffectiveAreaAnalyisis.hh</text>
</a>
</g>
</g>
<!-- Node1&#45;&gt;Node2 -->
<g id="edge1_Node000001_Node000002" class="edge">
<title>Node1&#45;&gt;Node2</title>
<g id="a_edge1_Node000001_Node000002"><a xlink:title=" ">
<path fill="none" stroke="#63b8ff" d="M1027.62,-224.67C849.63,-215.17 388.39,-190.55 194.41,-180.2"/>
<polygon fill="#63b8ff" stroke="#63b8ff" points="1027.49,-228.17 1037.66,-225.2 1027.86,-221.18 1027.49,-228.17"/>
</a>
</g>
</g>
<!-- Node4 -->
<g id="Node000004" class="node">
<title>Node4</title>
<g id="a_Node000004"><a xlink:href="_o_m_sim_effi_cali_analyisis_8hh_source.html" target="_top" xlink:title=" ">
<polygon fill="white" stroke="#666666" points="1470.4,-184 1324.4,-184 1324.4,-165 1470.4,-165 1470.4,-184"/>
<text text-anchor="middle" x="1397.4" y="-172" font-family="Helvetica,sans-Serif" font-size="10.00">OMSimEffiCaliAnalyisis.hh</text>
</a>
</g>
</g>
<!-- Node1&#45;&gt;Node4 -->
<g id="edge3_Node000001_Node000004" class="edge">
<title>Node1&#45;&gt;Node4</title>
<g id="a_edge3_Node000001_Node000004"><a xlink:title=" ">
<path fill="none" stroke="#63b8ff" d="M1157.38,-218.19C1213.25,-208.25 1296.8,-193.39 1349.15,-184.08"/>
<polygon fill="#63b8ff" stroke="#63b8ff" points="1156.51,-214.79 1147.28,-219.98 1157.74,-221.68 1156.51,-214.79"/>
</a>
</g>
</g>
<!-- Node5 -->
<g id="Node000005" class="node">
<title>Node5</title>
<g id="a_Node000005"><a xlink:href="_o_m_sim_optical_module_8hh_source.html" target="_top" xlink:title=" ">
<polygon fill="white" stroke="#666666" points="720.9,-184 583.9,-184 583.9,-165 720.9,-165 720.9,-184"/>
<text text-anchor="middle" x="652.4" y="-172" font-family="Helvetica,sans-Serif" font-size="10.00">OMSimOpticalModule.hh</text>
</a>
</g>
</g>
<!-- Node1&#45;&gt;Node5 -->
<g id="edge4_Node000001_Node000005" class="edge">
<title>Node1&#45;&gt;Node5</title>
<g id="a_edge4_Node000001_Node000005"><a xlink:title=" ">
<path fill="none" stroke="#63b8ff" d="M1027.71,-220C943.33,-209.99 804.22,-193.5 721.14,-183.65"/>
<polygon fill="#63b8ff" stroke="#63b8ff" points="1027.38,-223.48 1037.72,-221.19 1028.2,-216.53 1027.38,-223.48"/>
</a>
</g>
</g>
<!-- Node8 -->
<g id="Node000008" class="node">
<title>Node8</title>
<g id="a_Node000008"><a xlink:href="_o_m_sim__radioactive__decays_8cc.html" target="_top" xlink:title="Main of the radioactive decay study.">
<polygon fill="white" stroke="#666666" points="612.9,-19 447.9,-19 447.9,0 612.9,0 612.9,-19"/>
<text text-anchor="middle" x="530.4" y="-7" font-family="Helvetica,sans-Serif" font-size="10.00">OMSim_radioactive_decays.cc</text>
</a>
</g>
</g>
<!-- Node1&#45;&gt;Node8 -->
<g id="edge34_Node000001_Node000008" class="edge">
<title>Node1&#45;&gt;Node8</title>
<g id="a_edge34_Node000001_Node000008"><a xlink:title=" ">
<path fill="none" stroke="#63b8ff" d="M1101.59,-209.83C1104.67,-173.7 1105.56,-94.35 1060.4,-55 1027.46,-26.3 753.58,-15.71 612.99,-12.15"/>
<polygon fill="#63b8ff" stroke="#63b8ff" points="1098.1,-209.63 1100.57,-219.93 1105.06,-210.33 1098.1,-209.63"/>
</a>
</g>
</g>
<!-- Node12 -->
<g id="Node000012" class="node">
<title>Node12</title>
<g id="a_Node000012"><a xlink:href="_o_m_sim_supernova_8cc.html" target="_top" xlink:title="Main of the supernova study.">
<polygon fill="white" stroke="#666666" points="962.9,-19 845.9,-19 845.9,0 962.9,0 962.9,-19"/>
<text text-anchor="middle" x="904.4" y="-7" font-family="Helvetica,sans-Serif" font-size="10.00">OMSimSupernova.cc</text>
</a>
</g>
</g>
<!-- Node1&#45;&gt;Node12 -->
<g id="edge33_Node000001_Node000012" class="edge">
<title>Node1&#45;&gt;Node12</title>
<g id="a_edge33_Node000001_Node000012"><a xlink:title=" ">
<path fill="none" stroke="#63b8ff" d="M1105.45,-209.9C1115.48,-175.16 1131.03,-99.86 1094.4,-55 1077.9,-34.79 1012.5,-22.79 963,-16.44"/>
<polygon fill="#63b8ff" stroke="#63b8ff" points="1102.04,-209.08 1102.46,-219.67 1108.74,-211.13 1102.04,-209.08"/>
</a>
</g>
</g>
<!-- Node22 -->
<g id="Node000022" class="node">
<title>Node22</title>
<g id="a_Node000022"><a xlink:href="_o_m_sim_run_action_8hh_source.html" target="_top" xlink:title=" ">
<polygon fill="white" stroke="#666666" points="486.4,-184 370.4,-184 370.4,-165 486.4,-165 486.4,-184"/>
<text text-anchor="middle" x="428.4" y="-172" font-family="Helvetica,sans-Serif" font-size="10.00">OMSimRunAction.hh</text>
</a>
</g>
</g>
<!-- Node1&#45;&gt;Node22 -->
<g id="edge27_Node000001_Node000022" class="edge">
<title>Node1&#45;&gt;Node22</title>
<g id="a_edge27_Node000001_Node000022"><a xlink:title=" ">
<path fill="none" stroke="#63b8ff" d="M1027.64,-222.83C893.88,-212.27 608.94,-189.76 486.4,-180.08"/>
<polygon fill="#63b8ff" stroke="#63b8ff" points="1027.53,-226.33 1037.78,-223.63 1028.08,-219.36 1027.53,-226.33"/>
</a>
</g>
</g>
<!-- Node23 -->
<g id="Node000023" class="node">
<title>Node23</title>
<g id="a_Node000023"><a xlink:href="_o_m_sim_s_n_analysis_8cc.html" target="_top" xlink:title="Analyze data and write output files.">
<polygon fill="white" stroke="#666666" points="1343.4,-129 1223.4,-129 1223.4,-110 1343.4,-110 1343.4,-129"/>
<text text-anchor="middle" x="1283.4" y="-117" font-family="Helvetica,sans-Serif" font-size="10.00">OMSimSNAnalysis.cc</text>
</a>
</g>
</g>
<!-- Node1&#45;&gt;Node23 -->
<g id="edge29_Node000001_Node000023" class="edge">
<title>Node1&#45;&gt;Node23</title>
<g id="a_edge29_Node000001_Node000023"><a xlink:title=" ">
<path fill="none" stroke="#63b8ff" d="M1171.29,-219.07C1214.33,-211.87 1263.34,-200.36 1277.4,-184 1290.68,-168.55 1287.97,-142.5 1285.4,-129.08"/>
<polygon fill="#63b8ff" stroke="#63b8ff" points="1170.67,-215.63 1161.36,-220.68 1171.79,-222.54 1170.67,-215.63"/>
</a>
</g>
</g>
<!-- Node24 -->
<g id="Node000024" class="node">
<title>Node24</title>
<g id="a_Node000024"><a xlink:href="_o_m_sim_s_n_analysis_8hh_source.html" target="_top" xlink:title=" ">
<polygon fill="white" stroke="#666666" points="1268.4,-184 1146.4,-184 1146.4,-165 1268.4,-165 1268.4,-184"/>
<text text-anchor="middle" x="1207.4" y="-172" font-family="Helvetica,sans-Serif" font-size="10.00">OMSimSNAnalysis.hh</text>
</a>
</g>
</g>
<!-- Node1&#45;&gt;Node24 -->
<g id="edge30_Node000001_Node000024" class="edge">
<title>Node1&#45;&gt;Node24</title>
<g id="a_edge30_Node000001_Node000024"><a xlink:title=" ">
<path fill="none" stroke="#63b8ff" d="M1125.89,-215.5C1145.76,-205.75 1172.4,-192.68 1189.73,-184.17"/>
<polygon fill="#63b8ff" stroke="#63b8ff" points="1124.19,-212.44 1116.75,-219.98 1127.27,-218.72 1124.19,-212.44"/>
</a>
</g>
</g>
<!-- Node3 -->
<g id="Node000003" class="node">
<title>Node3</title>
<g id="a_Node000003"><a xlink:href="_o_m_sim__effective__area_8cc.html" target="_top" xlink:title="Main for the calculation of effective areas.">
<polygon fill="white" stroke="#666666" points="168.4,-19 28.4,-19 28.4,0 168.4,0 168.4,-19"/>
<text text-anchor="middle" x="98.4" y="-7" font-family="Helvetica,sans-Serif" font-size="10.00">OMSim_effective_area.cc</text>
</a>
</g>
</g>
<!-- Node2&#45;&gt;Node3 -->
<g id="edge2_Node000002_Node000003" class="edge">
<title>Node2&#45;&gt;Node3</title>
<g id="a_edge2_Node000002_Node000003"><a xlink:title=" ">
<path fill="none" stroke="#63b8ff" d="M82.76,-159.29C57.43,-142.53 18.67,-112.07 2.4,-74 -9.77,-45.52 27.99,-28.25 59.68,-19.05"/>
<polygon fill="#63b8ff" stroke="#63b8ff" points="81.11,-162.39 91.42,-164.84 84.89,-156.5 81.11,-162.39"/>
</a>
</g>
</g>
<!-- Node6 -->
<g id="Node000006" class="node">
<title>Node6</title>
<g id="a_Node000006"><a xlink:href="_o_m_sim_d_e_g_g_8hh.html" target="_top" xlink:title="Construction of the DEGG class. From DOUMEKI.">
<polygon fill="white" stroke="#666666" points="813.9,-129 718.9,-129 718.9,-110 813.9,-110 813.9,-129"/>
<text text-anchor="middle" x="766.4" y="-117" font-family="Helvetica,sans-Serif" font-size="10.00">OMSimDEGG.hh</text>
</a>
</g>
</g>
<!-- Node5&#45;&gt;Node6 -->
<g id="edge5_Node000005_Node000006" class="edge">
<title>Node5&#45;&gt;Node6</title>
<g id="a_edge5_Node000005_Node000006"><a xlink:title=" ">
<path fill="none" stroke="#63b8ff" d="M679.79,-160.77C700.82,-150.99 729.29,-137.75 747.75,-129.17"/>
<polygon fill="#63b8ff" stroke="#63b8ff" points="678.31,-157.6 670.72,-164.98 681.26,-163.94 678.31,-157.6"/>
</a>
</g>
</g>
<!-- Node7 -->
<g id="Node000007" class="node">
<title>Node7</title>
<g id="a_Node000007"><a xlink:href="_o_m_sim_decays_g_p_s_8hh.html" target="_top" xlink:title="Defines the OMSimDecaysGPS class for the radioactive decays simulation.">
<polygon fill="white" stroke="#666666" points="890.4,-74 768.4,-74 768.4,-55 890.4,-55 890.4,-74"/>
<text text-anchor="middle" x="829.4" y="-62" font-family="Helvetica,sans-Serif" font-size="10.00">OMSimDecaysGPS.hh</text>
</a>
</g>
</g>
<!-- Node5&#45;&gt;Node7 -->
<g id="edge6_Node000005_Node000007" class="edge">
<title>Node5&#45;&gt;Node7</title>
<g id="a_edge6_Node000005_Node000007"><a xlink:title=" ">
<path fill="none" stroke="#63b8ff" d="M573.59,-169C512.59,-162.63 443.58,-147.21 476.4,-110 477.6,-108.64 667.42,-85.28 768.17,-72.96"/>
<polygon fill="#63b8ff" stroke="#63b8ff" points="573.39,-172.5 583.68,-169.99 574.07,-165.53 573.39,-172.5"/>
</a>
</g>
</g>
<!-- Node9 -->
<g id="Node000009" class="node">
<title>Node9</title>
<g id="a_Node000009"><a xlink:href="_o_m_sim_detector_construction_8hh_source.html" target="_top" xlink:title=" ">
<polygon fill="white" stroke="#666666" points="391.4,-129 221.4,-129 221.4,-110 391.4,-110 391.4,-129"/>
<text text-anchor="middle" x="306.4" y="-117" font-family="Helvetica,sans-Serif" font-size="10.00">OMSimDetectorConstruction.hh</text>
</a>
</g>
</g>
<!-- Node5&#45;&gt;Node9 -->
<g id="edge8_Node000005_Node000009" class="edge">
<title>Node5&#45;&gt;Node9</title>
<g id="a_edge8_Node000005_Node000009"><a xlink:title=" ">
<path fill="none" stroke="#63b8ff" d="M586.68,-163.43C521.71,-153.48 423.4,-138.42 362.14,-129.04"/>
<polygon fill="#63b8ff" stroke="#63b8ff" points="586.4,-166.93 596.81,-164.98 587.46,-160.01 586.4,-166.93"/>
</a>
</g>
</g>
<!-- Node15 -->
<g id="Node000015" class="node">
<title>Node15</title>
<g id="a_Node000015"><a xlink:href="_o_m_sim_rad_decays_detector_8hh.html" target="_top" xlink:title="Defines the OMSimRadDecaysDetector class for the radioactive decays simulation.">
<polygon fill="white" stroke="#666666" points="611.9,-74 448.9,-74 448.9,-55 611.9,-55 611.9,-74"/>
<text text-anchor="middle" x="530.4" y="-62" font-family="Helvetica,sans-Serif" font-size="10.00">OMSimRadDecaysDetector.hh</text>
</a>
</g>
</g>
<!-- Node5&#45;&gt;Node15 -->
<g id="edge26_Node000005_Node000015" class="edge">
<title>Node5&#45;&gt;Node15</title>
<g id="a_edge26_Node000005_Node000015"><a xlink:title=" ">
<path fill="none" stroke="#63b8ff" d="M573.9,-166.95C521.72,-160.79 459.88,-149.35 443.4,-129 423.52,-104.44 467.8,-84.63 500.2,-74.01"/>
<polygon fill="#63b8ff" stroke="#63b8ff" points="573.52,-170.43 583.85,-168.08 574.31,-163.48 573.52,-170.43"/>
</a>
</g>
</g>
<!-- Node17 -->
<g id="Node000017" class="node">
<title>Node17</title>
<g id="a_Node000017"><a xlink:href="_o_m_sim_l_o_m16_8hh.html" target="_top" xlink:title="Construction of LOM16.">
<polygon fill="white" stroke="#666666" points="932.9,-129 831.9,-129 831.9,-110 932.9,-110 932.9,-129"/>
<text text-anchor="middle" x="882.4" y="-117" font-family="Helvetica,sans-Serif" font-size="10.00">OMSimLOM16.hh</text>
</a>
</g>
</g>
<!-- Node5&#45;&gt;Node17 -->
<g id="edge21_Node000005_Node000017" class="edge">
<title>Node5&#45;&gt;Node17</title>
<g id="a_edge21_Node000005_Node000017"><a xlink:title=" ">
<path fill="none" stroke="#63b8ff" d="M699.31,-162.69C742.4,-152.76 805.43,-138.24 845.16,-129.08"/>
<polygon fill="#63b8ff" stroke="#63b8ff" points="698.31,-159.33 689.36,-164.98 699.89,-166.15 698.31,-159.33"/>
</a>
</g>
</g>
<!-- Node18 -->
<g id="Node000018" class="node">
<title>Node18</title>
<g id="a_Node000018"><a xlink:href="_o_m_sim_l_o_m18_8hh.html" target="_top" xlink:title="Construction of LOM18.">
<polygon fill="white" stroke="#666666" points="1051.9,-129 950.9,-129 950.9,-110 1051.9,-110 1051.9,-129"/>
<text text-anchor="middle" x="1001.4" y="-117" font-family="Helvetica,sans-Serif" font-size="10.00">OMSimLOM18.hh</text>
</a>
</g>
</g>
<!-- Node5&#45;&gt;Node18 -->
<g id="edge22_Node000005_Node000018" class="edge">
<title>Node5&#45;&gt;Node18</title>
<g id="a_edge22_Node000005_Node000018"><a xlink:title=" ">
<path fill="none" stroke="#63b8ff" d="M718.59,-163.45C786.16,-153.19 889.58,-137.48 950.85,-128.18"/>
<polygon fill="#63b8ff" stroke="#63b8ff" points="717.84,-160.02 708.48,-164.98 718.89,-166.94 717.84,-160.02"/>
</a>
</g>
</g>
<!-- Node20 -->
<g id="Node000020" class="node">
<title>Node20</title>
<g id="a_Node000020"><a xlink:href="_o_m_sim_m_d_o_m_8hh.html" target="_top" xlink:title="Construction of mDOM.">
<polygon fill="white" stroke="#666666" points="585.4,-129 485.4,-129 485.4,-110 585.4,-110 585.4,-129"/>
<text text-anchor="middle" x="535.4" y="-117" font-family="Helvetica,sans-Serif" font-size="10.00">OMSimMDOM.hh</text>
</a>
</g>
</g>
<!-- Node5&#45;&gt;Node20 -->
<g id="edge24_Node000005_Node000020" class="edge">
<title>Node5&#45;&gt;Node20</title>
<g id="a_edge24_Node000005_Node000020"><a xlink:title=" ">
<path fill="none" stroke="#63b8ff" d="M624.29,-160.77C602.71,-150.99 573.49,-137.75 554.54,-129.17"/>
<polygon fill="#63b8ff" stroke="#63b8ff" points="623.05,-164.05 633.6,-164.98 625.94,-157.67 623.05,-164.05"/>
</a>
</g>
</g>
<!-- Node21 -->
<g id="Node000021" class="node">
<title>Node21</title>
<g id="a_Node000021"><a xlink:href="_o_m_sim_p_d_o_m_8hh.html" target="_top" xlink:title="Implementation of the pDOM (deepcore) or Gen1 DOM..">
<polygon fill="white" stroke="#666666" points="700.9,-129 603.9,-129 603.9,-110 700.9,-110 700.9,-129"/>
<text text-anchor="middle" x="652.4" y="-117" font-family="Helvetica,sans-Serif" font-size="10.00">OMSimPDOM.hh</text>
</a>
</g>
</g>
<!-- Node5&#45;&gt;Node21 -->
<g id="edge25_Node000005_Node000021" class="edge">
<title>Node5&#45;&gt;Node21</title>
<g id="a_edge25_Node000005_Node000021"><a xlink:title=" ">
<path fill="none" stroke="#63b8ff" d="M652.4,-154.66C652.4,-145.93 652.4,-135.99 652.4,-129.09"/>
<polygon fill="#63b8ff" stroke="#63b8ff" points="648.9,-154.75 652.4,-164.75 655.9,-154.75 648.9,-154.75"/>
</a>
</g>
</g>
<!-- Node7&#45;&gt;Node8 -->
<g id="edge7_Node000007_Node000008" class="edge">
<title>Node7&#45;&gt;Node8</title>
<g id="a_edge7_Node000007_Node000008"><a xlink:title=" ">
<path fill="none" stroke="#63b8ff" d="M771.23,-53.19C715.17,-43.25 631.34,-28.39 578.82,-19.08"/>
<polygon fill="#63b8ff" stroke="#63b8ff" points="770.91,-56.69 781.36,-54.98 772.13,-49.79 770.91,-56.69"/>
</a>
</g>
</g>
<!-- Node10 -->
<g id="Node000010" class="node">
<title>Node10</title>
<g id="a_Node000010"><a xlink:href="_o_m_sim_8hh.html" target="_top" xlink:title="Main simulation class for the Optical Module (OM) simulation. This file defines the OMSim class,...">
<polygon fill="white" stroke="#666666" points="269.9,-74 202.9,-74 202.9,-55 269.9,-55 269.9,-74"/>
<text text-anchor="middle" x="236.4" y="-62" font-family="Helvetica,sans-Serif" font-size="10.00">OMSim.hh</text>
</a>
</g>
</g>
<!-- Node9&#45;&gt;Node10 -->
<g id="edge9_Node000009_Node000010" class="edge">
<title>Node9&#45;&gt;Node10</title>
<g id="a_edge9_Node000009_Node000010"><a xlink:title=" ">
<path fill="none" stroke="#63b8ff" d="M287.09,-103.88C274.49,-94.34 258.47,-82.21 247.85,-74.17"/>
<polygon fill="#63b8ff" stroke="#63b8ff" points="285.07,-106.74 295.16,-109.98 289.3,-101.16 285.07,-106.74"/>
</a>
</g>
</g>
<!-- Node13 -->
<g id="Node000013" class="node">
<title>Node13</title>
<g id="a_Node000013"><a xlink:href="_o_m_sim_effective_area_detector_8hh.html" target="_top" xlink:title="Defines the OMSimEffectiveAreaDetector class for effective area simulation detector construction.">
<polygon fill="white" stroke="#666666" points="184.9,-74 11.9,-74 11.9,-55 184.9,-55 184.9,-74"/>
<text text-anchor="middle" x="98.4" y="-62" font-family="Helvetica,sans-Serif" font-size="10.00">OMSimEffectiveAreaDetector.hh</text>
</a>
</g>
</g>
<!-- Node9&#45;&gt;Node13 -->
<g id="edge14_Node000009_Node000013" class="edge">
<title>Node9&#45;&gt;Node13</title>
<g id="a_edge14_Node000009_Node000013"><a xlink:title=" ">
<path fill="none" stroke="#63b8ff" d="M262.99,-107.44C224.05,-97.52 167.71,-83.16 132.08,-74.08"/>
<polygon fill="#63b8ff" stroke="#63b8ff" points="262.43,-110.91 272.98,-109.98 264.16,-104.12 262.43,-110.91"/>
</a>
</g>
</g>
<!-- Node14 -->
<g id="Node000014" class="node">
<title>Node14</title>
<g id="a_Node000014"><a xlink:href="_o_m_sim_effi_cali_detector_8hh_source.html" target="_top" xlink:title=" ">
<polygon fill="white" stroke="#666666" points="430.9,-74 287.9,-74 287.9,-55 430.9,-55 430.9,-74"/>
<text text-anchor="middle" x="359.4" y="-62" font-family="Helvetica,sans-Serif" font-size="10.00">OMSimEffiCaliDetector.hh</text>
</a>
</g>
</g>
<!-- Node9&#45;&gt;Node14 -->
<g id="edge16_Node000009_Node000014" class="edge">
<title>Node9&#45;&gt;Node14</title>
<g id="a_edge16_Node000009_Node000014"><a xlink:title=" ">
<path fill="none" stroke="#63b8ff" d="M322.38,-102.52C331.72,-93.18 343.15,-81.75 350.81,-74.09"/>
<polygon fill="#63b8ff" stroke="#63b8ff" points="319.75,-100.2 315.15,-109.75 324.7,-105.15 319.75,-100.2"/>
</a>
</g>
</g>
<!-- Node9&#45;&gt;Node15 -->
<g id="edge17_Node000009_Node000015" class="edge">
<title>Node9&#45;&gt;Node15</title>
<g id="a_edge17_Node000009_Node000015"><a xlink:title=" ">
<path fill="none" stroke="#63b8ff" d="M352.36,-107.63C394.32,-97.7 455.52,-83.22 494.13,-74.08"/>
<polygon fill="#63b8ff" stroke="#63b8ff" points="351.32,-104.28 342.39,-109.98 352.93,-111.09 351.32,-104.28"/>
</a>
</g>
</g>
<!-- Node16 -->
<g id="Node000016" class="node">
<title>Node16</title>
<g id="a_Node000016"><a xlink:href="_o_m_sim_s_ndetector_8hh_source.html" target="_top" xlink:title=" ">
<polygon fill="white" stroke="#666666" points="750.4,-74 630.4,-74 630.4,-55 750.4,-55 750.4,-74"/>
<text text-anchor="middle" x="690.4" y="-62" font-family="Helvetica,sans-Serif" font-size="10.00">OMSimSNdetector.hh</text>
</a>
</g>
</g>
<!-- Node9&#45;&gt;Node16 -->
<g id="edge19_Node000009_Node000016" class="edge">
<title>Node9&#45;&gt;Node16</title>
<g id="a_edge19_Node000009_Node000016"><a xlink:title=" ">
<path fill="none" stroke="#63b8ff" d="M378.09,-108.61C450.73,-98.58 561.87,-83.24 630.13,-73.82"/>
<polygon fill="#63b8ff" stroke="#63b8ff" points="377.53,-105.15 368.1,-109.98 378.48,-112.08 377.53,-105.15"/>
</a>
</g>
</g>
<!-- Node10&#45;&gt;Node3 -->
<g id="edge12_Node000010_Node000003" class="edge">
<title>Node10&#45;&gt;Node3</title>
<g id="a_edge12_Node000010_Node000003"><a xlink:title=" ">
<path fill="none" stroke="#63b8ff" d="M204.61,-51.29C179.04,-41.47 143.73,-27.91 120.98,-19.17"/>
<polygon fill="#63b8ff" stroke="#63b8ff" points="203.64,-54.67 214.23,-54.98 206.15,-48.13 203.64,-54.67"/>
</a>
</g>
</g>
<!-- Node10&#45;&gt;Node8 -->
<g id="edge13_Node000010_Node000008" class="edge">
<title>Node10&#45;&gt;Node8</title>
<g id="a_edge13_Node000010_Node000008"><a xlink:title=" ">
<path fill="none" stroke="#63b8ff" d="M280.36,-54.85C355.87,-40.75 431.83,-27.46 480.35,-19.08"/>
<polygon fill="#63b8ff" stroke="#63b8ff" points="279.38,-51.47 270.19,-56.76 280.66,-58.35 279.38,-51.47"/>
</a>
</g>
</g>
<!-- Node11 -->
<g id="Node000011" class="node">
<title>Node11</title>
<g id="a_Node000011"><a xlink:href="_o_m_sim_8cc.html" target="_top" xlink:title="Implementation of the OMSim class.">
<polygon fill="white" stroke="#666666" points="268.9,-19 203.9,-19 203.9,0 268.9,0 268.9,-19"/>
<text text-anchor="middle" x="236.4" y="-7" font-family="Helvetica,sans-Serif" font-size="10.00">OMSim.cc</text>
</a>
</g>
</g>
<!-- Node10&#45;&gt;Node11 -->
<g id="edge10_Node000010_Node000011" class="edge">
<title>Node10&#45;&gt;Node11</title>
<g id="a_edge10_Node000010_Node000011"><a xlink:title=" ">
<path fill="none" stroke="#63b8ff" d="M236.4,-44.66C236.4,-35.93 236.4,-25.99 236.4,-19.09"/>
<polygon fill="#63b8ff" stroke="#63b8ff" points="232.9,-44.75 236.4,-54.75 239.9,-44.75 232.9,-44.75"/>
</a>
</g>
</g>
<!-- Node10&#45;&gt;Node12 -->
<g id="edge11_Node000010_Node000012" class="edge">
<title>Node10&#45;&gt;Node12</title>
<g id="a_edge11_Node000010_Node000012"><a xlink:title=" ">
<path fill="none" stroke="#63b8ff" d="M280.3,-55.07C494.13,-26.93 736.21,-16.05 845.56,-12.26"/>
<polygon fill="#63b8ff" stroke="#63b8ff" points="279.59,-51.63 270.14,-56.42 280.51,-58.57 279.59,-51.63"/>
</a>
</g>
</g>
<!-- Node13&#45;&gt;Node3 -->
<g id="edge15_Node000013_Node000003" class="edge">
<title>Node13&#45;&gt;Node3</title>
<g id="a_edge15_Node000013_Node000003"><a xlink:title=" ">
<path fill="none" stroke="#63b8ff" d="M98.4,-44.66C98.4,-35.93 98.4,-25.99 98.4,-19.09"/>
<polygon fill="#63b8ff" stroke="#63b8ff" points="94.9,-44.75 98.4,-54.75 101.9,-44.75 94.9,-44.75"/>
</a>
</g>
</g>
<!-- Node15&#45;&gt;Node8 -->
<g id="edge18_Node000015_Node000008" class="edge">
<title>Node15&#45;&gt;Node8</title>
<g id="a_edge18_Node000015_Node000008"><a xlink:title=" ">
<path fill="none" stroke="#63b8ff" d="M530.4,-44.66C530.4,-35.93 530.4,-25.99 530.4,-19.09"/>
<polygon fill="#63b8ff" stroke="#63b8ff" points="526.9,-44.75 530.4,-54.75 533.9,-44.75 526.9,-44.75"/>
</a>
</g>
</g>
<!-- Node16&#45;&gt;Node12 -->
<g id="edge20_Node000016_Node000012" class="edge">
<title>Node16&#45;&gt;Node12</title>
<g id="a_edge20_Node000016_Node000012"><a xlink:title=" ">
<path fill="none" stroke="#63b8ff" d="M734.56,-52.56C774.64,-42.64 832.94,-28.2 869.75,-19.08"/>
<polygon fill="#63b8ff" stroke="#63b8ff" points="733.65,-49.18 724.79,-54.98 735.33,-55.98 733.65,-49.18"/>
</a>
</g>
</g>
<!-- Node19 -->
<g id="Node000019" class="node">
<title>Node19</title>
<g id="a_Node000019"><a xlink:href="_o_m_sim_l_o_m18_8cc.html" target="_top" xlink:title=" ">
<polygon fill="white" stroke="#666666" points="1050.9,-74 951.9,-74 951.9,-55 1050.9,-55 1050.9,-74"/>
<text text-anchor="middle" x="1001.4" y="-62" font-family="Helvetica,sans-Serif" font-size="10.00">OMSimLOM18.cc</text>
</a>
</g>
</g>
<!-- Node18&#45;&gt;Node19 -->
<g id="edge23_Node000018_Node000019" class="edge">
<title>Node18&#45;&gt;Node19</title>
<g id="a_edge23_Node000018_Node000019"><a xlink:title=" ">
<path fill="none" stroke="#63b8ff" d="M1001.4,-99.66C1001.4,-90.93 1001.4,-80.99 1001.4,-74.09"/>
<polygon fill="#63b8ff" stroke="#63b8ff" points="997.9,-99.75 1001.4,-109.75 1004.9,-99.75 997.9,-99.75"/>
</a>
</g>
</g>
<!-- Node22&#45;&gt;Node10 -->
<g id="edge28_Node000022_Node000010" class="edge">
<title>Node22&#45;&gt;Node10</title>
<g id="a_edge28_Node000022_Node000010"><a xlink:title=" ">
<path fill="none" stroke="#63b8ff" d="M360.08,-168.66C303.97,-163.09 230.85,-151.63 212.4,-129 198.85,-112.37 216.7,-87.29 228.15,-74.18"/>
<polygon fill="#63b8ff" stroke="#63b8ff" points="360.06,-172.17 370.35,-169.63 360.72,-165.2 360.06,-172.17"/>
</a>
</g>
</g>
<!-- Node24&#45;&gt;Node12 -->
<g id="edge32_Node000024_Node000012" class="edge">
<title>Node24&#45;&gt;Node12</title>
<g id="a_edge32_Node000024_Node000012"><a xlink:title=" ">
<path fill="none" stroke="#63b8ff" d="M1201.24,-155.37C1191.22,-128.84 1168.79,-79.88 1132.4,-55 1105.43,-36.56 1021.29,-23.64 963.14,-16.64"/>
<polygon fill="#63b8ff" stroke="#63b8ff" points="1198,-156.72 1204.68,-164.94 1204.59,-154.35 1198,-156.72"/>
</a>
</g>
</g>
<!-- Node24&#45;&gt;Node23 -->
<g id="edge31_Node000024_Node000023" class="edge">
<title>Node24&#45;&gt;Node23</title>
<g id="a_edge31_Node000024_Node000023"><a xlink:title=" ">
<path fill="none" stroke="#63b8ff" d="M1227.98,-159.15C1241.71,-149.57 1259.33,-137.29 1270.97,-129.17"/>
<polygon fill="#63b8ff" stroke="#63b8ff" points="1225.81,-156.39 1219.61,-164.98 1229.82,-162.14 1225.81,-156.39"/>
</a>
</g>
</g>
</g>
</svg>
