<?xml version="1.0" encoding="UTF-8" standalone="no"?>
<!DOCTYPE svg PUBLIC "-//W3C//DTD SVG 1.1//EN"
 "http://www.w3.org/Graphics/SVG/1.1/DTD/svg11.dtd">
<!-- Generated by graphviz version 2.43.0 (0)
 -->
<!-- Title: OMSimPMTResponse.hh Pages: 1 -->
<svg width="1460pt" height="308pt"
 viewBox="0.00 0.00 1460.00 308.00" xmlns="http://www.w3.org/2000/svg" xmlns:xlink="http://www.w3.org/1999/xlink">
<g id="graph0" class="graph" transform="scale(1 1) rotate(0) translate(4 304)">
<title>OMSimPMTResponse.hh</title>
<!-- Node1 -->
<g id="node1" class="node">
<title>Node1</title>
<g id="a_node1"><a xlink:title="Simulation of PMT response.">
<polygon fill="#bfbfbf" stroke="black" points="546.5,-280.5 546.5,-299.5 681.5,-299.5 681.5,-280.5 546.5,-280.5"/>
<text text-anchor="middle" x="614" y="-287.5" font-family="Helvetica,sans-Serif" font-size="10.00">OMSimPMTResponse.hh</text>
</a>
</g>
</g>
<!-- Node2 -->
<g id="node2" class="node">
<title>Node2</title>
<g id="a_node2"><a xlink:href="_o_m_sim_hit_manager_8hh.html" target="_top" xlink:title="Defines structures and classes related to optical module photon hit management.">
<polygon fill="none" stroke="black" points="406.5,-224.5 406.5,-243.5 529.5,-243.5 529.5,-224.5 406.5,-224.5"/>
<text text-anchor="middle" x="468" y="-231.5" font-family="Helvetica,sans-Serif" font-size="10.00">OMSimHitManager.hh</text>
</a>
</g>
</g>
<!-- Node1&#45;&gt;Node2 -->
<g id="edge1" class="edge">
<title>Node1&#45;&gt;Node2</title>
<path fill="none" stroke="midnightblue" d="M581.3,-276.91C553.85,-266.75 515.33,-252.51 491.03,-243.52"/>
<polygon fill="midnightblue" stroke="midnightblue" points="580.27,-280.26 590.87,-280.44 582.7,-273.69 580.27,-280.26"/>
</g>
<!-- Node23 -->
<g id="node23" class="node">
<title>Node23</title>
<g id="a_node23"><a xlink:href="effective__area_2include_2_o_m_sim_effective_area_analyisis_8hh_source.html" target="_top" xlink:title=" ">
<polygon fill="none" stroke="black" points="0,-168.5 0,-187.5 176,-187.5 176,-168.5 0,-168.5"/>
<text text-anchor="middle" x="88" y="-175.5" font-family="Helvetica,sans-Serif" font-size="10.00">OMSimEffectiveAreaAnalyisis.hh</text>
</a>
</g>
</g>
<!-- Node1&#45;&gt;Node23 -->
<g id="edge44" class="edge">
<title>Node1&#45;&gt;Node23</title>
<path fill="none" stroke="midnightblue" d="M562.92,-278.45C518.94,-269.36 453.78,-255.86 397,-244 300.68,-223.88 187.51,-200.02 128.48,-187.55"/>
<polygon fill="midnightblue" stroke="midnightblue" points="562.29,-281.89 572.8,-280.49 563.71,-275.04 562.29,-281.89"/>
</g>
<!-- Node24 -->
<g id="node24" class="node">
<title>Node24</title>
<g id="a_node24"><a xlink:href="_q_e__calibration_2include_2_o_m_sim_effective_area_analyisis_8hh_source.html" target="_top" xlink:title=" ">
<polygon fill="none" stroke="black" points="582,-168.5 582,-187.5 758,-187.5 758,-168.5 582,-168.5"/>
<text text-anchor="middle" x="670" y="-175.5" font-family="Helvetica,sans-Serif" font-size="10.00">OMSimEffectiveAreaAnalyisis.hh</text>
</a>
</g>
</g>
<!-- Node1&#45;&gt;Node24 -->
<g id="edge45" class="edge">
<title>Node1&#45;&gt;Node24</title>
<path fill="none" stroke="midnightblue" d="M617.79,-270.24C620.97,-256.84 626.24,-238.68 634,-224 641.39,-210.03 653.37,-196.16 661.46,-187.59"/>
<polygon fill="midnightblue" stroke="midnightblue" points="614.34,-269.66 615.61,-280.18 621.17,-271.16 614.34,-269.66"/>
</g>
<!-- Node27 -->
<g id="node27" class="node">
<title>Node27</title>
<g id="a_node27"><a xlink:href="_o_m_sim_sensitive_detector_8hh_source.html" target="_top" xlink:title=" ">
<polygon fill="none" stroke="black" points="642.5,-224.5 642.5,-243.5 795.5,-243.5 795.5,-224.5 642.5,-224.5"/>
<text text-anchor="middle" x="719" y="-231.5" font-family="Helvetica,sans-Serif" font-size="10.00">OMSimSensitiveDetector.hh</text>
</a>
</g>
</g>
<!-- Node1&#45;&gt;Node27 -->
<g id="edge35" class="edge">
<title>Node1&#45;&gt;Node27</title>
<path fill="none" stroke="midnightblue" d="M639.81,-275.73C659.25,-265.73 685.35,-252.31 702.17,-243.65"/>
<polygon fill="midnightblue" stroke="midnightblue" points="638.16,-272.64 630.87,-280.32 641.36,-278.86 638.16,-272.64"/>
</g>
<!-- Node28 -->
<g id="node28" class="node">
<title>Node28</title>
<g id="a_node28"><a xlink:href="_o_m_sim_p_m_t_construction_8hh.html" target="_top" xlink:title="Construction of the PMTs.">
<polygon fill="none" stroke="black" points="994.5,-224.5 994.5,-243.5 1143.5,-243.5 1143.5,-224.5 994.5,-224.5"/>
<text text-anchor="middle" x="1069" y="-231.5" font-family="Helvetica,sans-Serif" font-size="10.00">OMSimPMTConstruction.hh</text>
</a>
</g>
</g>
<!-- Node1&#45;&gt;Node28 -->
<g id="edge36" class="edge">
<title>Node1&#45;&gt;Node28</title>
<path fill="none" stroke="midnightblue" d="M691.81,-279.76C777.48,-269.6 914.07,-253.39 997.24,-243.52"/>
<polygon fill="midnightblue" stroke="midnightblue" points="691.14,-276.32 681.63,-280.97 691.97,-283.27 691.14,-276.32"/>
</g>
<!-- Node3 -->
<g id="node3" class="node">
<title>Node3</title>
<g id="a_node3"><a xlink:href="_o_m_sim_run_action_8hh_source.html" target="_top" xlink:title=" ">
<polygon fill="none" stroke="black" points="410,-168.5 410,-187.5 526,-187.5 526,-168.5 410,-168.5"/>
<text text-anchor="middle" x="468" y="-175.5" font-family="Helvetica,sans-Serif" font-size="10.00">OMSimRunAction.hh</text>
</a>
</g>
</g>
<!-- Node2&#45;&gt;Node3 -->
<g id="edge2" class="edge">
<title>Node2&#45;&gt;Node3</title>
<path fill="none" stroke="midnightblue" d="M468,-213.8C468,-204.91 468,-194.78 468,-187.75"/>
<polygon fill="midnightblue" stroke="midnightblue" points="464.5,-214.08 468,-224.08 471.5,-214.08 464.5,-214.08"/>
</g>
<!-- Node8 -->
<g id="node8" class="node">
<title>Node8</title>
<g id="a_node8"><a xlink:href="_o_m_sim__radioactive__decays_8cc.html" target="_top" xlink:title="Main of the radioactive decay study.">
<polygon fill="none" stroke="black" points="867.5,-0.5 867.5,-19.5 1032.5,-19.5 1032.5,-0.5 867.5,-0.5"/>
<text text-anchor="middle" x="950" y="-7.5" font-family="Helvetica,sans-Serif" font-size="10.00">OMSim_radioactive_decays.cc</text>
</a>
</g>
</g>
<!-- Node2&#45;&gt;Node8 -->
<g id="edge29" class="edge">
<title>Node2&#45;&gt;Node8</title>
<path fill="none" stroke="midnightblue" d="M496.68,-219.61C510.06,-212.04 525.16,-201.4 535,-188 571.2,-138.69 527.26,-95.47 574,-56 595.97,-37.44 763.61,-23.23 867.49,-16.09"/>
<polygon fill="midnightblue" stroke="midnightblue" points="494.95,-216.56 487.77,-224.35 498.25,-222.74 494.95,-216.56"/>
</g>
<!-- Node9 -->
<g id="node9" class="node">
<title>Node9</title>
<g id="a_node9"><a xlink:href="_o_m_sim__supernova_8cc.html" target="_top" xlink:title="Main of the supernova study.">
<polygon fill="none" stroke="black" points="231,-0.5 231,-19.5 353,-19.5 353,-0.5 231,-0.5"/>
<text text-anchor="middle" x="292" y="-7.5" font-family="Helvetica,sans-Serif" font-size="10.00">OMSim_supernova.cc</text>
</a>
</g>
</g>
<!-- Node2&#45;&gt;Node9 -->
<g id="edge33" class="edge">
<title>Node2&#45;&gt;Node9</title>
<path fill="none" stroke="midnightblue" d="M396.11,-224.49C327.88,-215.68 234.12,-201.35 223,-188 178.04,-134.02 255.66,-47.33 283.01,-19.74"/>
<polygon fill="midnightblue" stroke="midnightblue" points="396.03,-228.01 406.4,-225.8 396.92,-221.07 396.03,-228.01"/>
</g>
<!-- Node10 -->
<g id="node10" class="node">
<title>Node10</title>
<g id="a_node10"><a xlink:href="_o_m_sim_optical_module_8hh_source.html" target="_top" xlink:title=" ">
<polygon fill="none" stroke="black" points="903.5,-168.5 903.5,-187.5 1040.5,-187.5 1040.5,-168.5 903.5,-168.5"/>
<text text-anchor="middle" x="972" y="-175.5" font-family="Helvetica,sans-Serif" font-size="10.00">OMSimOpticalModule.hh</text>
</a>
</g>
</g>
<!-- Node2&#45;&gt;Node10 -->
<g id="edge9" class="edge">
<title>Node2&#45;&gt;Node10</title>
<path fill="none" stroke="midnightblue" d="M539.54,-225.34C636.32,-214.97 807.79,-196.59 903.16,-186.38"/>
<polygon fill="midnightblue" stroke="midnightblue" points="539.12,-221.86 529.55,-226.41 539.86,-228.82 539.12,-221.86"/>
</g>
<!-- Node2&#45;&gt;Node23 -->
<g id="edge27" class="edge">
<title>Node2&#45;&gt;Node23</title>
<path fill="none" stroke="midnightblue" d="M397.48,-222.98C325.7,-212.78 215.63,-197.14 147.93,-187.52"/>
<polygon fill="midnightblue" stroke="midnightblue" points="397.39,-226.5 407.79,-224.44 398.38,-219.57 397.39,-226.5"/>
</g>
<!-- Node2&#45;&gt;Node24 -->
<g id="edge28" class="edge">
<title>Node2&#45;&gt;Node24</title>
<path fill="none" stroke="midnightblue" d="M509.79,-221.83C547.93,-211.63 603.48,-196.78 638.14,-187.52"/>
<polygon fill="midnightblue" stroke="midnightblue" points="508.76,-218.48 500.01,-224.44 510.57,-225.24 508.76,-218.48"/>
</g>
<!-- Node25 -->
<g id="node25" class="node">
<title>Node25</title>
<g id="a_node25"><a xlink:href="_o_m_sim_s_n_analysis_8hh_source.html" target="_top" xlink:title=" ">
<polygon fill="none" stroke="black" points="232,-168.5 232,-187.5 354,-187.5 354,-168.5 232,-168.5"/>
<text text-anchor="middle" x="293" y="-175.5" font-family="Helvetica,sans-Serif" font-size="10.00">OMSimSNAnalysis.hh</text>
</a>
</g>
</g>
<!-- Node2&#45;&gt;Node25 -->
<g id="edge30" class="edge">
<title>Node2&#45;&gt;Node25</title>
<path fill="none" stroke="midnightblue" d="M430.53,-221.44C397.53,-211.26 350.24,-196.66 320.6,-187.52"/>
<polygon fill="midnightblue" stroke="midnightblue" points="429.68,-224.84 440.27,-224.44 431.75,-218.15 429.68,-224.84"/>
</g>
<!-- Node26 -->
<g id="node26" class="node">
<title>Node26</title>
<g id="a_node26"><a xlink:href="_o_m_sim_s_n_analysis_8cc.html" target="_top" xlink:title="Analyze data and write output files.">
<polygon fill="none" stroke="black" points="321,-112.5 321,-131.5 441,-131.5 441,-112.5 321,-112.5"/>
<text text-anchor="middle" x="381" y="-119.5" font-family="Helvetica,sans-Serif" font-size="10.00">OMSimSNAnalysis.cc</text>
</a>
</g>
</g>
<!-- Node2&#45;&gt;Node26 -->
<g id="edge34" class="edge">
<title>Node2&#45;&gt;Node26</title>
<path fill="none" stroke="midnightblue" d="M439.66,-219.71C426.23,-212.13 410.98,-201.43 401,-188 388.19,-170.75 383.48,-145.17 381.84,-131.83"/>
<polygon fill="midnightblue" stroke="midnightblue" points="438.11,-222.85 448.58,-224.47 441.4,-216.68 438.11,-222.85"/>
</g>
<!-- Node4 -->
<g id="node4" class="node">
<title>Node4</title>
<g id="a_node4"><a xlink:href="_o_m_sim_8hh.html" target="_top" xlink:title="Main simulation class for the Optical Module (OM) simulation. This file defines the OMSim class,...">
<polygon fill="none" stroke="black" points="458.5,-56.5 458.5,-75.5 525.5,-75.5 525.5,-56.5 458.5,-56.5"/>
<text text-anchor="middle" x="492" y="-63.5" font-family="Helvetica,sans-Serif" font-size="10.00">OMSim.hh</text>
</a>
</g>
</g>
<!-- Node3&#45;&gt;Node4 -->
<g id="edge3" class="edge">
<title>Node3&#45;&gt;Node4</title>
<path fill="none" stroke="midnightblue" d="M472.07,-158.35C477.33,-134.25 486.26,-93.31 490.13,-75.59"/>
<polygon fill="midnightblue" stroke="midnightblue" points="468.6,-157.85 469.88,-168.37 475.43,-159.34 468.6,-157.85"/>
</g>
<!-- Node5 -->
<g id="node5" class="node">
<title>Node5</title>
<g id="a_node5"><a xlink:href="_o_m_sim_8cc.html" target="_top" xlink:title="Implementation of the OMSim class.">
<polygon fill="none" stroke="black" points="688.5,-0.5 688.5,-19.5 753.5,-19.5 753.5,-0.5 688.5,-0.5"/>
<text text-anchor="middle" x="721" y="-7.5" font-family="Helvetica,sans-Serif" font-size="10.00">OMSim.cc</text>
</a>
</g>
</g>
<!-- Node4&#45;&gt;Node5 -->
<g id="edge4" class="edge">
<title>Node4&#45;&gt;Node5</title>
<path fill="none" stroke="midnightblue" d="M535.73,-54.69C580.21,-44.2 648.12,-28.19 688.19,-18.74"/>
<polygon fill="midnightblue" stroke="midnightblue" points="534.72,-51.33 525.79,-57.03 536.33,-58.14 534.72,-51.33"/>
</g>
<!-- Node6 -->
<g id="node6" class="node">
<title>Node6</title>
<g id="a_node6"><a xlink:href="_o_m_sim__effective__area_8cc.html" target="_top" xlink:title="Main for the calculation of effective areas.">
<polygon fill="none" stroke="black" points="371,-0.5 371,-19.5 511,-19.5 511,-0.5 371,-0.5"/>
<text text-anchor="middle" x="441" y="-7.5" font-family="Helvetica,sans-Serif" font-size="10.00">OMSim_effective_area.cc</text>
</a>
</g>
</g>
<!-- Node4&#45;&gt;Node6 -->
<g id="edge5" class="edge">
<title>Node4&#45;&gt;Node6</title>
<path fill="none" stroke="midnightblue" d="M476.62,-48.72C467.63,-39.2 456.64,-27.56 449.26,-19.75"/>
<polygon fill="midnightblue" stroke="midnightblue" points="474.17,-51.22 483.58,-56.08 479.26,-46.41 474.17,-51.22"/>
</g>
<!-- Node7 -->
<g id="node7" class="node">
<title>Node7</title>
<g id="a_node7"><a xlink:href="_o_m_sim___q_e__calibration_8cc.html" target="_top" xlink:title="Main for the calculation of effective areas.">
<polygon fill="none" stroke="black" points="529.5,-0.5 529.5,-19.5 670.5,-19.5 670.5,-0.5 529.5,-0.5"/>
<text text-anchor="middle" x="600" y="-7.5" font-family="Helvetica,sans-Serif" font-size="10.00">OMSim_QE_calibration.cc</text>
</a>
</g>
</g>
<!-- Node4&#45;&gt;Node7 -->
<g id="edge6" class="edge">
<title>Node4&#45;&gt;Node7</title>
<path fill="none" stroke="midnightblue" d="M518.55,-51.73C538.55,-41.73 565.39,-28.31 582.69,-19.65"/>
<polygon fill="midnightblue" stroke="midnightblue" points="516.73,-48.72 509.35,-56.32 519.86,-54.98 516.73,-48.72"/>
</g>
<!-- Node4&#45;&gt;Node8 -->
<g id="edge7" class="edge">
<title>Node4&#45;&gt;Node8</title>
<path fill="none" stroke="midnightblue" d="M535.54,-56.69C537.04,-56.45 538.53,-56.22 540,-56 652.98,-39.23 784.33,-25.89 867.31,-18.21"/>
<polygon fill="midnightblue" stroke="midnightblue" points="534.79,-53.26 525.51,-58.38 535.96,-60.17 534.79,-53.26"/>
</g>
<!-- Node4&#45;&gt;Node9 -->
<g id="edge8" class="edge">
<title>Node4&#45;&gt;Node9</title>
<path fill="none" stroke="midnightblue" d="M450.63,-53.83C412.86,-43.63 357.86,-28.78 323.54,-19.52"/>
<polygon fill="midnightblue" stroke="midnightblue" points="449.74,-57.22 460.31,-56.44 451.57,-50.46 449.74,-57.22"/>
</g>
<!-- Node11 -->
<g id="node11" class="node">
<title>Node11</title>
<g id="a_node11"><a xlink:href="_o_m_sim_d_e_g_g_8hh.html" target="_top" xlink:title="Construction of the DEGG class. From DOUMEKI.">
<polygon fill="none" stroke="black" points="1000.5,-112.5 1000.5,-131.5 1095.5,-131.5 1095.5,-112.5 1000.5,-112.5"/>
<text text-anchor="middle" x="1048" y="-119.5" font-family="Helvetica,sans-Serif" font-size="10.00">OMSimDEGG.hh</text>
</a>
</g>
</g>
<!-- Node10&#45;&gt;Node11 -->
<g id="edge10" class="edge">
<title>Node10&#45;&gt;Node11</title>
<path fill="none" stroke="midnightblue" d="M992.58,-162.38C1006.31,-152.62 1023.93,-140.11 1035.57,-131.83"/>
<polygon fill="midnightblue" stroke="midnightblue" points="990.34,-159.68 984.21,-168.32 994.39,-165.38 990.34,-159.68"/>
</g>
<!-- Node12 -->
<g id="node12" class="node">
<title>Node12</title>
<g id="a_node12"><a xlink:href="_o_m_sim_detector_construction_8hh_source.html" target="_top" xlink:title=" ">
<polygon fill="none" stroke="black" points="736,-112.5 736,-131.5 906,-131.5 906,-112.5 736,-112.5"/>
<text text-anchor="middle" x="821" y="-119.5" font-family="Helvetica,sans-Serif" font-size="10.00">OMSimDetectorConstruction.hh</text>
</a>
</g>
</g>
<!-- Node10&#45;&gt;Node12 -->
<g id="edge11" class="edge">
<title>Node10&#45;&gt;Node12</title>
<path fill="none" stroke="midnightblue" d="M938.55,-165.04C910.14,-154.88 870.06,-140.55 844.81,-131.52"/>
<polygon fill="midnightblue" stroke="midnightblue" points="937.48,-168.37 948.07,-168.44 939.84,-161.78 937.48,-168.37"/>
</g>
<!-- Node15 -->
<g id="node15" class="node">
<title>Node15</title>
<g id="a_node15"><a xlink:href="_o_m_sim_rad_decays_detector_8hh.html" target="_top" xlink:title="Defines the OMSimRadDecaysDetector class for the radioactive decays simulation.">
<polygon fill="none" stroke="black" points="964.5,-56.5 964.5,-75.5 1127.5,-75.5 1127.5,-56.5 964.5,-56.5"/>
<text text-anchor="middle" x="1046" y="-63.5" font-family="Helvetica,sans-Serif" font-size="10.00">OMSimRadDecaysDetector.hh</text>
</a>
</g>
</g>
<!-- Node10&#45;&gt;Node15 -->
<g id="edge26" class="edge">
<title>Node10&#45;&gt;Node15</title>
<path fill="none" stroke="midnightblue" d="M961.66,-159.4C955.03,-145.62 949.18,-126.42 958,-112 969.37,-93.41 991.12,-82.19 1010.15,-75.6"/>
<polygon fill="midnightblue" stroke="midnightblue" points="958.63,-161.16 966.42,-168.34 964.8,-157.87 958.63,-161.16"/>
</g>
<!-- Node17 -->
<g id="node17" class="node">
<title>Node17</title>
<g id="a_node17"><a xlink:href="_o_m_sim_l_o_m16_8hh.html" target="_top" xlink:title="Construction of LOM16.">
<polygon fill="none" stroke="black" points="1113.5,-112.5 1113.5,-131.5 1214.5,-131.5 1214.5,-112.5 1113.5,-112.5"/>
<text text-anchor="middle" x="1164" y="-119.5" font-family="Helvetica,sans-Serif" font-size="10.00">OMSimLOM16.hh</text>
</a>
</g>
</g>
<!-- Node10&#45;&gt;Node17 -->
<g id="edge19" class="edge">
<title>Node10&#45;&gt;Node17</title>
<path fill="none" stroke="midnightblue" d="M1012.18,-165.7C1048.42,-155.51 1100.91,-140.74 1133.72,-131.52"/>
<polygon fill="midnightblue" stroke="midnightblue" points="1011.1,-162.37 1002.42,-168.44 1013,-169.11 1011.1,-162.37"/>
</g>
<!-- Node18 -->
<g id="node18" class="node">
<title>Node18</title>
<g id="a_node18"><a xlink:href="_o_m_sim_l_o_m18_8hh.html" target="_top" xlink:title="Construction of LOM18.">
<polygon fill="none" stroke="black" points="1232.5,-112.5 1232.5,-131.5 1333.5,-131.5 1333.5,-112.5 1232.5,-112.5"/>
<text text-anchor="middle" x="1283" y="-119.5" font-family="Helvetica,sans-Serif" font-size="10.00">OMSimLOM18.hh</text>
</a>
</g>
</g>
<!-- Node10&#45;&gt;Node18 -->
<g id="edge20" class="edge">
<title>Node10&#45;&gt;Node18</title>
<path fill="none" stroke="midnightblue" d="M1031.16,-166.73C1089.93,-156.52 1179,-141.06 1233.95,-131.52"/>
<polygon fill="midnightblue" stroke="midnightblue" points="1030.53,-163.28 1021.28,-168.44 1031.73,-170.18 1030.53,-163.28"/>
</g>
<!-- Node20 -->
<g id="node20" class="node">
<title>Node20</title>
<g id="a_node20"><a xlink:href="_o_m_sim_m_d_o_m_8hh.html" target="_top" xlink:title="Construction of mDOM.">
<polygon fill="none" stroke="black" points="1352,-112.5 1352,-131.5 1452,-131.5 1452,-112.5 1352,-112.5"/>
<text text-anchor="middle" x="1402" y="-119.5" font-family="Helvetica,sans-Serif" font-size="10.00">OMSimMDOM.hh</text>
</a>
</g>
</g>
<!-- Node10&#45;&gt;Node20 -->
<g id="edge22" class="edge">
<title>Node10&#45;&gt;Node20</title>
<path fill="none" stroke="midnightblue" d="M1051.13,-168.11C1126.3,-159.5 1242.47,-145.76 1343,-132 1345.87,-131.61 1348.83,-131.19 1351.8,-130.76"/>
<polygon fill="midnightblue" stroke="midnightblue" points="1050.34,-164.68 1040.8,-169.29 1051.13,-171.64 1050.34,-164.68"/>
</g>
<!-- Node21 -->
<g id="node21" class="node">
<title>Node21</title>
<g id="a_node21"><a xlink:href="_o_m_sim_p_d_o_m_8hh.html" target="_top" xlink:title="Implementation of the pDOM/Gen1 DOM class.">
<polygon fill="none" stroke="black" points="620.5,-112.5 620.5,-131.5 717.5,-131.5 717.5,-112.5 620.5,-112.5"/>
<text text-anchor="middle" x="669" y="-119.5" font-family="Helvetica,sans-Serif" font-size="10.00">OMSimPDOM.hh</text>
</a>
</g>
</g>
<!-- Node10&#45;&gt;Node21 -->
<g id="edge23" class="edge">
<title>Node10&#45;&gt;Node21</title>
<path fill="none" stroke="midnightblue" d="M914,-166.66C856.74,-156.46 770.22,-141.04 716.79,-131.52"/>
<polygon fill="midnightblue" stroke="midnightblue" points="913.53,-170.13 923.99,-168.44 914.76,-163.24 913.53,-170.13"/>
</g>
<!-- Node22 -->
<g id="node22" class="node">
<title>Node22</title>
<g id="a_node22"><a xlink:href="_o_m_sim_decays_g_p_s_8hh.html" target="_top" xlink:title="Defines the OMSimDecaysGPS class for the radioactive decays simulation.">
<polygon fill="none" stroke="black" points="1146,-56.5 1146,-75.5 1268,-75.5 1268,-56.5 1146,-56.5"/>
<text text-anchor="middle" x="1207" y="-63.5" font-family="Helvetica,sans-Serif" font-size="10.00">OMSimDecaysGPS.hh</text>
</a>
</g>
</g>
<!-- Node10&#45;&gt;Node22 -->
<g id="edge24" class="edge">
<title>Node10&#45;&gt;Node22</title>
<path fill="none" stroke="midnightblue" d="M972.77,-158.41C974.41,-143.72 979.07,-123.79 992,-112 1003.82,-101.22 1092.47,-85.25 1152.18,-75.51"/>
<polygon fill="midnightblue" stroke="midnightblue" points="969.28,-158.16 972.03,-168.4 976.26,-158.69 969.28,-158.16"/>
</g>
<!-- Node12&#45;&gt;Node4 -->
<g id="edge12" class="edge">
<title>Node12&#45;&gt;Node4</title>
<path fill="none" stroke="midnightblue" d="M758.98,-110.82C689.87,-99.48 580.66,-81.55 525.81,-72.55"/>
<polygon fill="midnightblue" stroke="midnightblue" points="758.43,-114.28 768.87,-112.44 759.57,-107.37 758.43,-114.28"/>
</g>
<!-- Node13 -->
<g id="node13" class="node">
<title>Node13</title>
<g id="a_node13"><a xlink:href="effective__area_2include_2_o_m_sim_effective_area_detector_8hh.html" target="_top" xlink:title="Defines the OMSimEffectiveAreaDetector class for effective area simulation detector construction.">
<polygon fill="none" stroke="black" points="773.5,-56.5 773.5,-75.5 946.5,-75.5 946.5,-56.5 773.5,-56.5"/>
<text text-anchor="middle" x="860" y="-63.5" font-family="Helvetica,sans-Serif" font-size="10.00">OMSimEffectiveAreaDetector.hh</text>
</a>
</g>
</g>
<!-- Node12&#45;&gt;Node13 -->
<g id="edge13" class="edge">
<title>Node12&#45;&gt;Node13</title>
<path fill="none" stroke="midnightblue" d="M833.38,-103.86C840.14,-94.5 848.21,-83.33 853.68,-75.75"/>
<polygon fill="midnightblue" stroke="midnightblue" points="830.46,-101.93 827.44,-112.08 836.13,-106.03 830.46,-101.93"/>
</g>
<!-- Node14 -->
<g id="node14" class="node">
<title>Node14</title>
<g id="a_node14"><a xlink:href="_q_e__calibration_2include_2_o_m_sim_effective_area_detector_8hh.html" target="_top" xlink:title="Defines the OMSimEffectiveAreaDetector class for effective area simulation detector construction.">
<polygon fill="none" stroke="black" points="582.5,-56.5 582.5,-75.5 755.5,-75.5 755.5,-56.5 582.5,-56.5"/>
<text text-anchor="middle" x="669" y="-63.5" font-family="Helvetica,sans-Serif" font-size="10.00">OMSimEffectiveAreaDetector.hh</text>
</a>
</g>
</g>
<!-- Node12&#45;&gt;Node14 -->
<g id="edge14" class="edge">
<title>Node12&#45;&gt;Node14</title>
<path fill="none" stroke="midnightblue" d="M787.33,-109.04C758.73,-98.88 718.39,-84.55 692.97,-75.52"/>
<polygon fill="midnightblue" stroke="midnightblue" points="786.32,-112.39 796.92,-112.44 788.66,-105.8 786.32,-112.39"/>
</g>
<!-- Node12&#45;&gt;Node15 -->
<g id="edge15" class="edge">
<title>Node12&#45;&gt;Node15</title>
<path fill="none" stroke="midnightblue" d="M866.47,-110.09C908.97,-99.89 971.58,-84.86 1010.51,-75.52"/>
<polygon fill="midnightblue" stroke="midnightblue" points="865.56,-106.71 856.65,-112.44 867.19,-113.51 865.56,-106.71"/>
</g>
<!-- Node16 -->
<g id="node16" class="node">
<title>Node16</title>
<g id="a_node16"><a xlink:href="_o_m_sim_s_ndetector_8hh_source.html" target="_top" xlink:title=" ">
<polygon fill="none" stroke="black" points="320,-56.5 320,-75.5 440,-75.5 440,-56.5 320,-56.5"/>
<text text-anchor="middle" x="380" y="-63.5" font-family="Helvetica,sans-Serif" font-size="10.00">OMSimSNdetector.hh</text>
</a>
</g>
</g>
<!-- Node12&#45;&gt;Node16 -->
<g id="edge17" class="edge">
<title>Node12&#45;&gt;Node16</title>
<path fill="none" stroke="midnightblue" d="M739.17,-111.25C663.98,-102.24 549.46,-88.43 450,-76 446.84,-75.61 443.6,-75.2 440.33,-74.78"/>
<polygon fill="midnightblue" stroke="midnightblue" points="739.17,-114.77 749.51,-112.48 740,-107.82 739.17,-114.77"/>
</g>
<!-- Node15&#45;&gt;Node8 -->
<g id="edge16" class="edge">
<title>Node15&#45;&gt;Node8</title>
<path fill="none" stroke="midnightblue" d="M1021.43,-51.18C1003.76,-41.24 980.49,-28.15 965.39,-19.65"/>
<polygon fill="midnightblue" stroke="midnightblue" points="1020.14,-54.47 1030.58,-56.32 1023.58,-48.37 1020.14,-54.47"/>
</g>
<!-- Node16&#45;&gt;Node9 -->
<g id="edge18" class="edge">
<title>Node16&#45;&gt;Node9</title>
<path fill="none" stroke="midnightblue" d="M357.02,-50.9C340.89,-41 319.82,-28.07 306.1,-19.65"/>
<polygon fill="midnightblue" stroke="midnightblue" points="355.51,-54.08 365.86,-56.32 359.17,-48.11 355.51,-54.08"/>
</g>
<!-- Node19 -->
<g id="node19" class="node">
<title>Node19</title>
<g id="a_node19"><a xlink:href="_o_m_sim_l_o_m18_8cc.html" target="_top" xlink:title=" ">
<polygon fill="none" stroke="black" points="1286.5,-56.5 1286.5,-75.5 1385.5,-75.5 1385.5,-56.5 1286.5,-56.5"/>
<text text-anchor="middle" x="1336" y="-63.5" font-family="Helvetica,sans-Serif" font-size="10.00">OMSimLOM18.cc</text>
</a>
</g>
</g>
<!-- Node18&#45;&gt;Node19 -->
<g id="edge21" class="edge">
<title>Node18&#45;&gt;Node19</title>
<path fill="none" stroke="midnightblue" d="M1298.98,-104.72C1308.32,-95.2 1319.75,-83.56 1327.41,-75.75"/>
<polygon fill="midnightblue" stroke="midnightblue" points="1296.26,-102.49 1291.75,-112.08 1301.25,-107.4 1296.26,-102.49"/>
</g>
<!-- Node22&#45;&gt;Node8 -->
<g id="edge25" class="edge">
<title>Node22&#45;&gt;Node8</title>
<path fill="none" stroke="midnightblue" d="M1156.29,-54.35C1107.72,-44.14 1035.38,-28.94 990.53,-19.52"/>
<polygon fill="midnightblue" stroke="midnightblue" points="1155.77,-57.81 1166.28,-56.44 1157.21,-50.96 1155.77,-57.81"/>
</g>
<!-- Node25&#45;&gt;Node9 -->
<g id="edge31" class="edge">
<title>Node25&#45;&gt;Node9</title>
<path fill="none" stroke="midnightblue" d="M292.89,-157.93C292.67,-121.92 292.21,-45.23 292.05,-19.57"/>
<polygon fill="midnightblue" stroke="midnightblue" points="289.39,-158.1 292.95,-168.08 296.39,-158.05 289.39,-158.1"/>
</g>
<!-- Node25&#45;&gt;Node26 -->
<g id="edge32" class="edge">
<title>Node25&#45;&gt;Node26</title>
<path fill="none" stroke="midnightblue" d="M315.98,-162.9C332.11,-153 353.18,-140.07 366.9,-131.65"/>
<polygon fill="midnightblue" stroke="midnightblue" points="313.83,-160.11 307.14,-168.32 317.49,-166.08 313.83,-160.11"/>
</g>
<!-- Node28&#45;&gt;Node10 -->
<g id="edge41" class="edge">
<title>Node28&#45;&gt;Node10</title>
<path fill="none" stroke="midnightblue" d="M1044.66,-219.45C1026.76,-209.48 1002.95,-196.23 987.55,-187.65"/>
<polygon fill="midnightblue" stroke="midnightblue" points="1042.98,-222.52 1053.42,-224.32 1046.38,-216.4 1042.98,-222.52"/>
</g>
<!-- Node28&#45;&gt;Node11 -->
<g id="edge37" class="edge">
<title>Node28&#45;&gt;Node11</title>
<path fill="none" stroke="midnightblue" d="M1065.44,-214.35C1060.84,-190.25 1053.02,-149.31 1049.64,-131.59"/>
<polygon fill="midnightblue" stroke="midnightblue" points="1062.04,-215.2 1067.35,-224.37 1068.91,-213.89 1062.04,-215.2"/>
</g>
<!-- Node28&#45;&gt;Node17 -->
<g id="edge38" class="edge">
<title>Node28&#45;&gt;Node17</title>
<path fill="none" stroke="midnightblue" d="M1083.18,-216.59C1103.66,-192.87 1140.79,-149.87 1156.58,-131.59"/>
<polygon fill="midnightblue" stroke="midnightblue" points="1080.34,-214.51 1076.45,-224.37 1085.64,-219.09 1080.34,-214.51"/>
</g>
<!-- Node28&#45;&gt;Node18 -->
<g id="edge39" class="edge">
<title>Node28&#45;&gt;Node18</title>
<path fill="none" stroke="midnightblue" d="M1094.81,-219.73C1139.26,-196.88 1229.09,-150.71 1266.29,-131.59"/>
<polygon fill="midnightblue" stroke="midnightblue" points="1093.09,-216.68 1085.79,-224.37 1096.29,-222.91 1093.09,-216.68"/>
</g>
<!-- Node28&#45;&gt;Node20 -->
<g id="edge40" class="edge">
<title>Node28&#45;&gt;Node20</title>
<path fill="none" stroke="midnightblue" d="M1104.6,-221.24C1171.98,-198.98 1316.72,-151.17 1375.93,-131.61"/>
<polygon fill="midnightblue" stroke="midnightblue" points="1103.25,-218 1094.85,-224.46 1105.45,-224.65 1103.25,-218"/>
</g>
<!-- Node28&#45;&gt;Node21 -->
<g id="edge42" class="edge">
<title>Node28&#45;&gt;Node21</title>
<path fill="none" stroke="midnightblue" d="M1024.96,-221.96C989.73,-213.04 939.11,-200.04 895,-188 823.91,-168.59 740.72,-144.24 697.83,-131.56"/>
<polygon fill="midnightblue" stroke="midnightblue" points="1024.37,-225.42 1034.92,-224.48 1026.08,-218.63 1024.37,-225.42"/>
</g>
<!-- Node28&#45;&gt;Node28 -->
<g id="edge43" class="edge">
<title>Node28&#45;&gt;Node28</title>
<path fill="none" stroke="midnightblue" d="M1118.43,-244.29C1141.41,-245.42 1161.5,-241.99 1161.5,-234 1161.5,-224.87 1135.26,-221.69 1108.45,-224.47"/>
<polygon fill="midnightblue" stroke="midnightblue" points="1118.69,-240.8 1108.45,-243.53 1118.15,-247.78 1118.69,-240.8"/>
</g>
</g>
</svg>
