<?xml version="1.0" encoding="UTF-8" standalone="no"?>
<!DOCTYPE svg PUBLIC "-//W3C//DTD SVG 1.1//EN"
 "http://www.w3.org/Graphics/SVG/1.1/DTD/svg11.dtd">
<!-- Generated by graphviz version 2.43.0 (0)
 -->
<!-- Title: OMSimSteppingAction.cc Pages: 1 -->
<svg width="1105pt" height="151pt"
 viewBox="0.00 0.00 1105.00 151.00" xmlns="http://www.w3.org/2000/svg" xmlns:xlink="http://www.w3.org/1999/xlink">
<g id="graph0" class="graph" transform="scale(1 1) rotate(0) translate(4 147)">
<title>OMSimSteppingAction.cc</title>
<polygon fill="white" stroke="transparent" points="-4,4 -4,-147 1101,-147 1101,4 -4,4"/>
<!-- Node1 -->
<g id="node1" class="node">
<title>Node1</title>
<g id="a_node1"><a xlink:title=" ">
<polygon fill="#bfbfbf" stroke="black" points="551,-123.5 551,-142.5 690,-142.5 690,-123.5 551,-123.5"/>
<text text-anchor="middle" x="620.5" y="-130.5" font-family="Helvetica,sans-Serif" font-size="10.00">OMSimSteppingAction.cc</text>
</a>
</g>
</g>
<!-- Node2 -->
<g id="node2" class="node">
<title>Node2</title>
<g id="a_node2"><a xlink:href="_o_m_sim_stepping_action_8hh.html" target="_top" xlink:title="Defines OMSimSteppingAction.Currently it only checks for trapped photons.">
<polygon fill="white" stroke="black" points="59.5,-67.5 59.5,-86.5 199.5,-86.5 199.5,-67.5 59.5,-67.5"/>
<text text-anchor="middle" x="129.5" y="-74.5" font-family="Helvetica,sans-Serif" font-size="10.00">OMSimSteppingAction.hh</text>
</a>
</g>
</g>
<!-- Node1&#45;&gt;Node2 -->
<g id="edge1" class="edge">
<title>Node1&#45;&gt;Node2</title>
<path fill="none" stroke="midnightblue" d="M550.93,-124.35C460.96,-114.45 304.56,-97.25 209.68,-86.82"/>
<polygon fill="midnightblue" stroke="midnightblue" points="209.89,-83.32 199.56,-85.71 209.12,-90.28 209.89,-83.32"/>
</g>
<!-- Node4 -->
<g id="node4" class="node">
<title>Node4</title>
<g id="a_node4"><a xlink:href="_o_m_sim_logger_8hh.html" target="_top" xlink:title=" ">
<polygon fill="white" stroke="black" points="276,-67.5 276,-86.5 375,-86.5 375,-67.5 276,-67.5"/>
<text text-anchor="middle" x="325.5" y="-74.5" font-family="Helvetica,sans-Serif" font-size="10.00">OMSimLogger.hh</text>
</a>
</g>
</g>
<!-- Node1&#45;&gt;Node4 -->
<g id="edge3" class="edge">
<title>Node1&#45;&gt;Node4</title>
<path fill="none" stroke="midnightblue" d="M573.76,-123.44C521.75,-113.92 437.75,-98.55 382.08,-88.36"/>
<polygon fill="midnightblue" stroke="midnightblue" points="382.49,-84.87 372.02,-86.52 381.23,-91.76 382.49,-84.87"/>
</g>
<!-- Node9 -->
<g id="node9" class="node">
<title>Node9</title>
<g id="a_node9"><a xlink:title=" ">
<polygon fill="white" stroke="#bfbfbf" points="393,-67.5 393,-86.5 482,-86.5 482,-67.5 393,-67.5"/>
<text text-anchor="middle" x="437.5" y="-74.5" font-family="Helvetica,sans-Serif" font-size="10.00">G4VProcess.hh</text>
</a>
</g>
</g>
<!-- Node1&#45;&gt;Node9 -->
<g id="edge8" class="edge">
<title>Node1&#45;&gt;Node9</title>
<path fill="none" stroke="midnightblue" d="M591.5,-123.44C560.32,-114.24 510.57,-99.56 476.09,-89.39"/>
<polygon fill="midnightblue" stroke="midnightblue" points="476.94,-85.99 466.36,-86.52 474.96,-92.7 476.94,-85.99"/>
</g>
<!-- Node10 -->
<g id="node10" class="node">
<title>Node10</title>
<g id="a_node10"><a xlink:title=" ">
<polygon fill="white" stroke="#bfbfbf" points="499.5,-67.5 499.5,-86.5 605.5,-86.5 605.5,-67.5 499.5,-67.5"/>
<text text-anchor="middle" x="552.5" y="-74.5" font-family="Helvetica,sans-Serif" font-size="10.00">G4RunManager.hh</text>
</a>
</g>
</g>
<!-- Node1&#45;&gt;Node10 -->
<g id="edge9" class="edge">
<title>Node1&#45;&gt;Node10</title>
<path fill="none" stroke="midnightblue" d="M609.57,-123.32C599.33,-115.18 583.78,-102.84 571.5,-93.09"/>
<polygon fill="midnightblue" stroke="midnightblue" points="573.63,-90.31 563.62,-86.83 569.28,-95.79 573.63,-90.31"/>
</g>
<!-- Node11 -->
<g id="node11" class="node">
<title>Node11</title>
<g id="a_node11"><a xlink:title=" ">
<polygon fill="white" stroke="#bfbfbf" points="623.5,-67.5 623.5,-86.5 753.5,-86.5 753.5,-67.5 623.5,-67.5"/>
<text text-anchor="middle" x="688.5" y="-74.5" font-family="Helvetica,sans-Serif" font-size="10.00">G4SteppingManager.hh</text>
</a>
</g>
</g>
<!-- Node1&#45;&gt;Node11 -->
<g id="edge10" class="edge">
<title>Node1&#45;&gt;Node11</title>
<path fill="none" stroke="midnightblue" d="M631.43,-123.32C641.67,-115.18 657.22,-102.84 669.5,-93.09"/>
<polygon fill="midnightblue" stroke="midnightblue" points="671.72,-95.79 677.38,-86.83 667.37,-90.31 671.72,-95.79"/>
</g>
<!-- Node12 -->
<g id="node12" class="node">
<title>Node12</title>
<g id="a_node12"><a xlink:title=" ">
<polygon fill="white" stroke="#bfbfbf" points="772,-67.5 772,-86.5 839,-86.5 839,-67.5 772,-67.5"/>
<text text-anchor="middle" x="805.5" y="-74.5" font-family="Helvetica,sans-Serif" font-size="10.00">G4Step.hh</text>
</a>
</g>
</g>
<!-- Node1&#45;&gt;Node12 -->
<g id="edge11" class="edge">
<title>Node1&#45;&gt;Node12</title>
<path fill="none" stroke="midnightblue" d="M649.81,-123.44C681.34,-114.24 731.63,-99.56 766.49,-89.39"/>
<polygon fill="midnightblue" stroke="midnightblue" points="767.7,-92.68 776.32,-86.52 765.74,-85.96 767.7,-92.68"/>
</g>
<!-- Node13 -->
<g id="node13" class="node">
<title>Node13</title>
<g id="a_node13"><a xlink:title=" ">
<polygon fill="white" stroke="#bfbfbf" points="857,-67.5 857,-86.5 960,-86.5 960,-67.5 857,-67.5"/>
<text text-anchor="middle" x="908.5" y="-74.5" font-family="Helvetica,sans-Serif" font-size="10.00">G4ThreeVector.hh</text>
</a>
</g>
</g>
<!-- Node1&#45;&gt;Node13 -->
<g id="edge12" class="edge">
<title>Node1&#45;&gt;Node13</title>
<path fill="none" stroke="midnightblue" d="M666.13,-123.44C716.8,-113.94 798.57,-98.61 852.93,-88.42"/>
<polygon fill="midnightblue" stroke="midnightblue" points="853.9,-91.8 863.08,-86.52 852.61,-84.92 853.9,-91.8"/>
</g>
<!-- Node14 -->
<g id="node14" class="node">
<title>Node14</title>
<g id="a_node14"><a xlink:title=" ">
<polygon fill="white" stroke="#bfbfbf" points="978,-67.5 978,-86.5 1097,-86.5 1097,-67.5 978,-67.5"/>
<text text-anchor="middle" x="1037.5" y="-74.5" font-family="Helvetica,sans-Serif" font-size="10.00">G4SystemOfUnits.hh</text>
</a>
</g>
</g>
<!-- Node1&#45;&gt;Node14 -->
<g id="edge13" class="edge">
<title>Node1&#45;&gt;Node14</title>
<path fill="none" stroke="midnightblue" d="M687.09,-123.48C755.13,-114.76 864.14,-100.75 967.79,-87.22"/>
<polygon fill="midnightblue" stroke="midnightblue" points="968.33,-90.68 977.8,-85.91 967.43,-83.74 968.33,-90.68"/>
</g>
<!-- Node3 -->
<g id="node3" class="node">
<title>Node3</title>
<g id="a_node3"><a xlink:title=" ">
<polygon fill="white" stroke="#bfbfbf" points="0,-6 0,-25 141,-25 141,-6 0,-6"/>
<text text-anchor="middle" x="70.5" y="-13" font-family="Helvetica,sans-Serif" font-size="10.00">G4UserSteppingAction.hh</text>
</a>
</g>
</g>
<!-- Node2&#45;&gt;Node3 -->
<g id="edge2" class="edge">
<title>Node2&#45;&gt;Node3</title>
<path fill="none" stroke="midnightblue" d="M121.05,-67.48C111.93,-58.28 97.23,-43.46 86.02,-32.16"/>
<polygon fill="midnightblue" stroke="midnightblue" points="88.46,-29.65 78.94,-25.01 83.49,-34.57 88.46,-29.65"/>
</g>
<!-- Node5 -->
<g id="node5" class="node">
<title>Node5</title>
<g id="a_node5"><a xlink:title=" ">
<polygon fill="white" stroke="#bfbfbf" points="159,-6 159,-25 252,-25 252,-6 159,-6"/>
<text text-anchor="middle" x="205.5" y="-13" font-family="Helvetica,sans-Serif" font-size="10.00">spdlog/spdlog.h</text>
</a>
</g>
</g>
<!-- Node4&#45;&gt;Node5 -->
<g id="edge4" class="edge">
<title>Node4&#45;&gt;Node5</title>
<path fill="none" stroke="midnightblue" d="M308.31,-67.48C288.26,-57.53 254.9,-40.99 231.64,-29.46"/>
<polygon fill="midnightblue" stroke="midnightblue" points="233.18,-26.32 222.66,-25.01 230.07,-32.59 233.18,-26.32"/>
</g>
<!-- Node6 -->
<g id="node6" class="node">
<title>Node6</title>
<g id="a_node6"><a xlink:title=" ">
<polygon fill="white" stroke="#bfbfbf" points="270,-0.5 270,-30.5 381,-30.5 381,-0.5 270,-0.5"/>
<text text-anchor="start" x="278" y="-18.5" font-family="Helvetica,sans-Serif" font-size="10.00">spdlog/sinks/stdout</text>
<text text-anchor="middle" x="325.5" y="-7.5" font-family="Helvetica,sans-Serif" font-size="10.00">_color_sinks.h</text>
</a>
</g>
</g>
<!-- Node4&#45;&gt;Node6 -->
<g id="edge5" class="edge">
<title>Node4&#45;&gt;Node6</title>
<path fill="none" stroke="midnightblue" d="M325.5,-67.48C325.5,-60.47 325.5,-50.19 325.5,-40.7"/>
<polygon fill="midnightblue" stroke="midnightblue" points="329,-40.52 325.5,-30.52 322,-40.52 329,-40.52"/>
</g>
<!-- Node7 -->
<g id="node7" class="node">
<title>Node7</title>
<g id="a_node7"><a xlink:title=" ">
<polygon fill="white" stroke="#bfbfbf" points="399.5,-6 399.5,-25 457.5,-25 457.5,-6 399.5,-6"/>
<text text-anchor="middle" x="428.5" y="-13" font-family="Helvetica,sans-Serif" font-size="10.00">memory</text>
</a>
</g>
</g>
<!-- Node4&#45;&gt;Node7 -->
<g id="edge6" class="edge">
<title>Node4&#45;&gt;Node7</title>
<path fill="none" stroke="midnightblue" d="M340.26,-67.48C357.16,-57.71 385.08,-41.58 404.99,-30.08"/>
<polygon fill="midnightblue" stroke="midnightblue" points="406.86,-33.04 413.77,-25.01 403.36,-26.98 406.86,-33.04"/>
</g>
<!-- Node8 -->
<g id="node8" class="node">
<title>Node8</title>
<g id="a_node8"><a xlink:title=" ">
<polygon fill="white" stroke="#bfbfbf" points="475.5,-6 475.5,-25 573.5,-25 573.5,-6 475.5,-6"/>
<text text-anchor="middle" x="524.5" y="-13" font-family="Helvetica,sans-Serif" font-size="10.00">spdlog/fmt/fmt.h</text>
</a>
</g>
</g>
<!-- Node4&#45;&gt;Node8 -->
<g id="edge7" class="edge">
<title>Node4&#45;&gt;Node8</title>
<path fill="none" stroke="midnightblue" d="M354.01,-67.48C388.74,-57.09 447.54,-39.51 486.19,-27.95"/>
<polygon fill="midnightblue" stroke="midnightblue" points="487.46,-31.23 496.04,-25.01 485.46,-24.52 487.46,-31.23"/>
</g>
</g>
</svg>
