<?xml version="1.0" encoding="UTF-8" standalone="no"?>
<!DOCTYPE svg PUBLIC "-//W3C//DTD SVG 1.1//EN"
 "http://www.w3.org/Graphics/SVG/1.1/DTD/svg11.dtd">
<!-- Generated by graphviz version 2.43.0 (0)
 -->
<!-- Title: OMSimMaterialHandler.hh Pages: 1 -->
<svg width="955pt" height="214pt"
 viewBox="0.00 0.00 954.50 214.00" xmlns="http://www.w3.org/2000/svg" xmlns:xlink="http://www.w3.org/1999/xlink">
<g id="graph0" class="graph" transform="scale(1 1) rotate(0) translate(4 210)">
<title>OMSimMaterialHandler.hh</title>
<!-- Node1 -->
<g id="Node000001" class="node">
<title>Node1</title>
<g id="a_Node000001"><a xlink:title="Definition of OMSimMaterialHandler and the namespaces IceProcessor and ScintillationProcessor.">
<polygon fill="#999999" stroke="#666666" points="464,-206 319,-206 319,-187 464,-187 464,-206"/>
<text text-anchor="middle" x="391.5" y="-194" font-family="Helvetica,sans-Serif" font-size="10.00">OMSimMaterialHandler.hh</text>
</a>
</g>
</g>
<!-- Node2 -->
<g id="Node000002" class="node">
<title>Node2</title>
<g id="a_Node000002"><a xlink:title=" ">
<polygon fill="#e0e0e0" stroke="#999999" points="107,-145.5 0,-145.5 0,-126.5 107,-126.5 107,-145.5"/>
<text text-anchor="middle" x="53.5" y="-133.5" font-family="Helvetica,sans-Serif" font-size="10.00">G4NistManager.hh</text>
</a>
</g>
</g>
<!-- Node1&#45;&gt;Node2 -->
<g id="edge1_Node000001_Node000002" class="edge">
<title>Node1&#45;&gt;Node2</title>
<g id="a_edge1_Node000001_Node000002"><a xlink:title=" ">
<path fill="none" stroke="#63b8ff" d="M331.82,-186.97C275.79,-178.71 189.72,-165.35 115.5,-151 110.35,-150 104.98,-148.9 99.64,-147.75"/>
<polygon fill="#63b8ff" stroke="#63b8ff" points="100,-144.25 89.48,-145.52 98.5,-151.08 100,-144.25"/>
</a>
</g>
</g>
<!-- Node3 -->
<g id="Node000003" class="node">
<title>Node3</title>
<g id="a_Node000003"><a xlink:title=" ">
<polygon fill="#e0e0e0" stroke="#999999" points="244,-145.5 125,-145.5 125,-126.5 244,-126.5 244,-145.5"/>
<text text-anchor="middle" x="184.5" y="-133.5" font-family="Helvetica,sans-Serif" font-size="10.00">G4SystemOfUnits.hh</text>
</a>
</g>
</g>
<!-- Node1&#45;&gt;Node3 -->
<g id="edge2_Node000001_Node000003" class="edge">
<title>Node1&#45;&gt;Node3</title>
<g id="a_edge2_Node000001_Node000003"><a xlink:title=" ">
<path fill="none" stroke="#63b8ff" d="M361.4,-186.99C325.22,-176.77 264.39,-159.58 224.34,-148.26"/>
<polygon fill="#63b8ff" stroke="#63b8ff" points="225.21,-144.87 214.64,-145.52 223.31,-151.6 225.21,-144.87"/>
</a>
</g>
</g>
<!-- Node4 -->
<g id="Node000004" class="node">
<title>Node4</title>
<g id="a_Node000004"><a xlink:title=" ">
<polygon fill="#e0e0e0" stroke="#999999" points="378.5,-145.5 262.5,-145.5 262.5,-126.5 378.5,-126.5 378.5,-145.5"/>
<text text-anchor="middle" x="320.5" y="-133.5" font-family="Helvetica,sans-Serif" font-size="10.00">G4OpticalSurface.hh</text>
</a>
</g>
</g>
<!-- Node1&#45;&gt;Node4 -->
<g id="edge3_Node000001_Node000004" class="edge">
<title>Node1&#45;&gt;Node4</title>
<g id="a_edge3_Node000001_Node000004"><a xlink:title=" ">
<path fill="none" stroke="#63b8ff" d="M381.02,-186.87C370.01,-177.8 352.46,-163.34 339.09,-152.32"/>
<polygon fill="#63b8ff" stroke="#63b8ff" points="340.96,-149.33 331.02,-145.67 336.51,-154.73 340.96,-149.33"/>
</a>
</g>
</g>
<!-- Node5 -->
<g id="Node000005" class="node">
<title>Node5</title>
<g id="a_Node000005"><a xlink:title=" ">
<polygon fill="#e0e0e0" stroke="#999999" points="530.5,-145.5 396.5,-145.5 396.5,-126.5 530.5,-126.5 530.5,-145.5"/>
<text text-anchor="middle" x="463.5" y="-133.5" font-family="Helvetica,sans-Serif" font-size="10.00">G4PhysicalConstants.hh</text>
</a>
</g>
</g>
<!-- Node1&#45;&gt;Node5 -->
<g id="edge4_Node000001_Node000005" class="edge">
<title>Node1&#45;&gt;Node5</title>
<g id="a_edge4_Node000001_Node000005"><a xlink:title=" ">
<path fill="none" stroke="#63b8ff" d="M402.12,-186.87C413.4,-177.71 431.42,-163.06 445.03,-152.01"/>
<polygon fill="#63b8ff" stroke="#63b8ff" points="447.28,-154.69 452.83,-145.67 442.86,-149.26 447.28,-154.69"/>
</a>
</g>
</g>
<!-- Node6 -->
<g id="Node000006" class="node">
<title>Node6</title>
<g id="a_Node000006"><a xlink:title=" ">
<polygon fill="#e0e0e0" stroke="#999999" points="662,-151 549,-151 549,-121 662,-121 662,-151"/>
<text text-anchor="start" x="557" y="-139" font-family="Helvetica,sans-Serif" font-size="10.00">boost/property_tree</text>
<text text-anchor="middle" x="605.5" y="-128" font-family="Helvetica,sans-Serif" font-size="10.00">/json_parser.hpp</text>
</a>
</g>
</g>
<!-- Node1&#45;&gt;Node6 -->
<g id="edge5_Node000001_Node000006" class="edge">
<title>Node1&#45;&gt;Node6</title>
<g id="a_edge5_Node000001_Node000006"><a xlink:title=" ">
<path fill="none" stroke="#63b8ff" d="M422.62,-186.99C454.36,-178.32 504.45,-164.62 544.19,-153.76"/>
<polygon fill="#63b8ff" stroke="#63b8ff" points="545.33,-157.08 554.05,-151.06 543.48,-150.33 545.33,-157.08"/>
</a>
</g>
</g>
<!-- Node7 -->
<g id="Node000007" class="node">
<title>Node7</title>
<g id="a_Node000007"><a xlink:href="_o_m_sim_command_args_table_8hh.html" target="_top" xlink:title="Definition of the OMSimCommandArgsTable singleton class, which controls user args.">
<polygon fill="white" stroke="#666666" points="844.5,-145.5 680.5,-145.5 680.5,-126.5 844.5,-126.5 844.5,-145.5"/>
<text text-anchor="middle" x="762.5" y="-133.5" font-family="Helvetica,sans-Serif" font-size="10.00">OMSimCommandArgsTable.hh</text>
</a>
</g>
</g>
<!-- Node1&#45;&gt;Node7 -->
<g id="edge6_Node000001_Node000007" class="edge">
<title>Node1&#45;&gt;Node7</title>
<g id="a_edge6_Node000001_Node000007"><a xlink:title=" ">
<path fill="none" stroke="#63b8ff" d="M445.45,-186.99C512.49,-176.42 626.76,-158.4 698.26,-147.13"/>
<polygon fill="#63b8ff" stroke="#63b8ff" points="699.16,-150.53 708.49,-145.52 698.07,-143.62 699.16,-150.53"/>
</a>
</g>
</g>
<!-- Node8 -->
<g id="Node000008" class="node">
<title>Node8</title>
<g id="a_Node000008"><a xlink:href="_o_m_sim_logger_8hh_source.html" target="_top" xlink:title=" ">
<polygon fill="white" stroke="#666666" points="629,-85 530,-85 530,-66 629,-66 629,-85"/>
<text text-anchor="middle" x="579.5" y="-73" font-family="Helvetica,sans-Serif" font-size="10.00">OMSimLogger.hh</text>
</a>
</g>
</g>
<!-- Node7&#45;&gt;Node8 -->
<g id="edge7_Node000007_Node000008" class="edge">
<title>Node7&#45;&gt;Node8</title>
<g id="a_edge7_Node000007_Node000008"><a xlink:title=" ">
<path fill="none" stroke="#63b8ff" d="M735.89,-126.49C704.31,-116.4 651.49,-99.51 616.08,-88.19"/>
<polygon fill="#63b8ff" stroke="#63b8ff" points="616.73,-84.73 606.14,-85.02 614.6,-91.4 616.73,-84.73"/>
</a>
</g>
</g>
<!-- Node13 -->
<g id="Node000013" class="node">
<title>Node13</title>
<g id="a_Node000013"><a xlink:title=" ">
<polygon fill="#e0e0e0" stroke="#999999" points="702,-85 647,-85 647,-66 702,-66 702,-85"/>
<text text-anchor="middle" x="674.5" y="-73" font-family="Helvetica,sans-Serif" font-size="10.00">fstream</text>
</a>
</g>
</g>
<!-- Node7&#45;&gt;Node13 -->
<g id="edge12_Node000007_Node000013" class="edge">
<title>Node7&#45;&gt;Node13</title>
<g id="a_edge12_Node000007_Node000013"><a xlink:title=" ">
<path fill="none" stroke="#63b8ff" d="M749.52,-126.37C735.48,-117.04 712.87,-102.01 696.14,-90.88"/>
<polygon fill="#63b8ff" stroke="#63b8ff" points="697.8,-87.79 687.54,-85.17 693.93,-93.62 697.8,-87.79"/>
</a>
</g>
</g>
<!-- Node14 -->
<g id="Node000014" class="node">
<title>Node14</title>
<g id="a_Node000014"><a xlink:title=" ">
<polygon fill="#e0e0e0" stroke="#999999" points="804.5,-85 720.5,-85 720.5,-66 804.5,-66 804.5,-85"/>
<text text-anchor="middle" x="762.5" y="-73" font-family="Helvetica,sans-Serif" font-size="10.00">boost/any.hpp</text>
</a>
</g>
</g>
<!-- Node7&#45;&gt;Node14 -->
<g id="edge13_Node000007_Node000014" class="edge">
<title>Node7&#45;&gt;Node14</title>
<g id="a_edge13_Node000007_Node000014"><a xlink:title=" ">
<path fill="none" stroke="#63b8ff" d="M762.5,-126.37C762.5,-118.25 762.5,-105.81 762.5,-95.39"/>
<polygon fill="#63b8ff" stroke="#63b8ff" points="766,-95.17 762.5,-85.17 759,-95.17 766,-95.17"/>
</a>
</g>
</g>
<!-- Node15 -->
<g id="Node000015" class="node">
<title>Node15</title>
<g id="a_Node000015"><a xlink:title=" ">
<polygon fill="#e0e0e0" stroke="#999999" points="890.5,-85 822.5,-85 822.5,-66 890.5,-66 890.5,-85"/>
<text text-anchor="middle" x="856.5" y="-73" font-family="Helvetica,sans-Serif" font-size="10.00">sys/time.h</text>
</a>
</g>
</g>
<!-- Node7&#45;&gt;Node15 -->
<g id="edge14_Node000007_Node000015" class="edge">
<title>Node7&#45;&gt;Node15</title>
<g id="a_edge14_Node000007_Node000015"><a xlink:title=" ">
<path fill="none" stroke="#63b8ff" d="M776.37,-126.37C791.5,-116.95 815.96,-101.73 833.88,-90.58"/>
<polygon fill="#63b8ff" stroke="#63b8ff" points="835.93,-93.42 842.57,-85.17 832.23,-87.48 835.93,-93.42"/>
</a>
</g>
</g>
<!-- Node16 -->
<g id="Node000016" class="node">
<title>Node16</title>
<g id="a_Node000016"><a xlink:title=" ">
<polygon fill="#e0e0e0" stroke="#999999" points="946.5,-85 908.5,-85 908.5,-66 946.5,-66 946.5,-85"/>
<text text-anchor="middle" x="927.5" y="-73" font-family="Helvetica,sans-Serif" font-size="10.00">map</text>
</a>
</g>
</g>
<!-- Node7&#45;&gt;Node16 -->
<g id="edge15_Node000007_Node000016" class="edge">
<title>Node7&#45;&gt;Node16</title>
<g id="a_edge15_Node000007_Node000016"><a xlink:title=" ">
<path fill="none" stroke="#63b8ff" d="M786.49,-126.49C816.17,-115.97 866.67,-98.07 898.49,-86.79"/>
<polygon fill="#63b8ff" stroke="#63b8ff" points="899.86,-90.01 908.12,-83.37 897.52,-83.41 899.86,-90.01"/>
</a>
</g>
</g>
<!-- Node9 -->
<g id="Node000009" class="node">
<title>Node9</title>
<g id="a_Node000009"><a xlink:title=" ">
<polygon fill="#e0e0e0" stroke="#999999" points="455,-24.5 362,-24.5 362,-5.5 455,-5.5 455,-24.5"/>
<text text-anchor="middle" x="408.5" y="-12.5" font-family="Helvetica,sans-Serif" font-size="10.00">spdlog/spdlog.h</text>
</a>
</g>
</g>
<!-- Node8&#45;&gt;Node9 -->
<g id="edge8_Node000008_Node000009" class="edge">
<title>Node8&#45;&gt;Node9</title>
<g id="a_edge8_Node000008_Node000009"><a xlink:title=" ">
<path fill="none" stroke="#63b8ff" d="M554.64,-65.99C525.25,-55.94 476.19,-39.16 443.11,-27.84"/>
<polygon fill="#63b8ff" stroke="#63b8ff" points="443.99,-24.44 433.39,-24.52 441.72,-31.07 443.99,-24.44"/>
</a>
</g>
</g>
<!-- Node10 -->
<g id="Node000010" class="node">
<title>Node10</title>
<g id="a_Node000010"><a xlink:title=" ">
<polygon fill="#e0e0e0" stroke="#999999" points="584,-30 473,-30 473,0 584,0 584,-30"/>
<text text-anchor="start" x="481" y="-18" font-family="Helvetica,sans-Serif" font-size="10.00">spdlog/sinks/stdout</text>
<text text-anchor="middle" x="528.5" y="-7" font-family="Helvetica,sans-Serif" font-size="10.00">_color_sinks.h</text>
</a>
</g>
</g>
<!-- Node8&#45;&gt;Node10 -->
<g id="edge9_Node000008_Node000010" class="edge">
<title>Node8&#45;&gt;Node10</title>
<g id="a_edge9_Node000008_Node000010"><a xlink:title=" ">
<path fill="none" stroke="#63b8ff" d="M571.97,-65.87C565.57,-58.52 556.08,-47.63 547.6,-37.91"/>
<polygon fill="#63b8ff" stroke="#63b8ff" points="550.01,-35.35 540.81,-30.11 544.74,-39.95 550.01,-35.35"/>
</a>
</g>
</g>
<!-- Node11 -->
<g id="Node000011" class="node">
<title>Node11</title>
<g id="a_Node000011"><a xlink:title=" ">
<polygon fill="#e0e0e0" stroke="#999999" points="660.5,-24.5 602.5,-24.5 602.5,-5.5 660.5,-5.5 660.5,-24.5"/>
<text text-anchor="middle" x="631.5" y="-12.5" font-family="Helvetica,sans-Serif" font-size="10.00">memory</text>
</a>
</g>
</g>
<!-- Node8&#45;&gt;Node11 -->
<g id="edge10_Node000008_Node000011" class="edge">
<title>Node8&#45;&gt;Node11</title>
<g id="a_edge10_Node000008_Node000011"><a xlink:title=" ">
<path fill="none" stroke="#63b8ff" d="M587.17,-65.87C595.01,-57.05 607.36,-43.16 617.04,-32.27"/>
<polygon fill="#63b8ff" stroke="#63b8ff" points="619.77,-34.47 623.8,-24.67 614.54,-29.82 619.77,-34.47"/>
</a>
</g>
</g>
<!-- Node12 -->
<g id="Node000012" class="node">
<title>Node12</title>
<g id="a_Node000012"><a xlink:title=" ">
<polygon fill="#e0e0e0" stroke="#999999" points="776.5,-24.5 678.5,-24.5 678.5,-5.5 776.5,-5.5 776.5,-24.5"/>
<text text-anchor="middle" x="727.5" y="-12.5" font-family="Helvetica,sans-Serif" font-size="10.00">spdlog/fmt/fmt.h</text>
</a>
</g>
</g>
<!-- Node8&#45;&gt;Node12 -->
<g id="edge11_Node000008_Node000012" class="edge">
<title>Node8&#45;&gt;Node12</title>
<g id="a_edge11_Node000008_Node000012"><a xlink:title=" ">
<path fill="none" stroke="#63b8ff" d="M601.02,-65.99C626.12,-56.07 667.82,-39.59 696.43,-28.28"/>
<polygon fill="#63b8ff" stroke="#63b8ff" points="697.94,-31.45 705.95,-24.52 695.37,-24.94 697.94,-31.45"/>
</a>
</g>
</g>
</g>
</svg>
