<?xml version="1.0" encoding="UTF-8" standalone="no"?>
<!DOCTYPE svg PUBLIC "-//W3C//DTD SVG 1.1//EN"
 "http://www.w3.org/Graphics/SVG/1.1/DTD/svg11.dtd">
<!-- Generated by graphviz version 2.43.0 (0)
 -->
<!-- Title: OMSim_effective_area.cc Pages: 1 -->
<svg width="2224pt" height="375pt"
 viewBox="0.00 0.00 2224.00 375.00" xmlns="http://www.w3.org/2000/svg" xmlns:xlink="http://www.w3.org/1999/xlink">
<g id="graph0" class="graph" transform="scale(1 1) rotate(0) translate(4 371)">
<title>OMSim_effective_area.cc</title>
<!-- Node1 -->
<g id="node1" class="node">
<title>Node1</title>
<g id="a_node1"><a xlink:title="Main for the calculation of effective areas.">
<polygon fill="#bfbfbf" stroke="black" points="318.5,-347.5 318.5,-366.5 458.5,-366.5 458.5,-347.5 318.5,-347.5"/>
<text text-anchor="middle" x="388.5" y="-354.5" font-family="Helvetica,sans-Serif" font-size="10.00">OMSim_effective_area.cc</text>
</a>
</g>
</g>
<!-- Node2 -->
<g id="node2" class="node">
<title>Node2</title>
<g id="a_node2"><a xlink:href="_o_m_sim_8hh.html" target="_top" xlink:title="Main simulation class for the Optical Module (OM) simulation. This file defines the OMSim class,...">
<polygon fill="none" stroke="black" points="1183,-291.5 1183,-310.5 1250,-310.5 1250,-291.5 1183,-291.5"/>
<text text-anchor="middle" x="1216.5" y="-298.5" font-family="Helvetica,sans-Serif" font-size="10.00">OMSim.hh</text>
</a>
</g>
</g>
<!-- Node1&#45;&gt;Node2 -->
<g id="edge1" class="edge">
<title>Node1&#45;&gt;Node2</title>
<path fill="none" stroke="midnightblue" d="M458.74,-351.42C624.67,-340.6 1037.12,-313.7 1172.61,-304.86"/>
<polygon fill="midnightblue" stroke="midnightblue" points="1172.87,-308.35 1182.62,-304.21 1172.41,-301.37 1172.87,-308.35"/>
</g>
<!-- Node59 -->
<g id="node44" class="node">
<title>Node59</title>
<g id="a_node44"><a xlink:href="_o_m_sim_angular_scan_8hh.html" target="_top" xlink:title="Defines the AngularScan class for configuring and running GPS beam with angular scans.">
<polygon fill="none" stroke="black" points="230.5,-291.5 230.5,-310.5 358.5,-310.5 358.5,-291.5 230.5,-291.5"/>
<text text-anchor="middle" x="294.5" y="-298.5" font-family="Helvetica,sans-Serif" font-size="10.00">OMSimAngularScan.hh</text>
</a>
</g>
</g>
<!-- Node1&#45;&gt;Node59 -->
<g id="edge50" class="edge">
<title>Node1&#45;&gt;Node59</title>
<path fill="none" stroke="midnightblue" d="M373.4,-347.32C358.6,-338.82 335.81,-325.73 318.52,-315.8"/>
<polygon fill="midnightblue" stroke="midnightblue" points="319.98,-312.6 309.57,-310.65 316.49,-318.67 319.98,-312.6"/>
</g>
<!-- Node61 -->
<g id="node46" class="node">
<title>Node61</title>
<g id="a_node46"><a xlink:href="_o_m_sim_effective_area_analyisis_8hh_source.html" target="_top" xlink:title=" ">
<polygon fill="none" stroke="black" points="300.5,-179.5 300.5,-198.5 476.5,-198.5 476.5,-179.5 300.5,-179.5"/>
<text text-anchor="middle" x="388.5" y="-186.5" font-family="Helvetica,sans-Serif" font-size="10.00">OMSimEffectiveAreaAnalyisis.hh</text>
</a>
</g>
</g>
<!-- Node1&#45;&gt;Node61 -->
<g id="edge52" class="edge">
<title>Node1&#45;&gt;Node61</title>
<path fill="none" stroke="midnightblue" d="M388.5,-347.08C388.5,-320.95 388.5,-244.21 388.5,-208.58"/>
<polygon fill="midnightblue" stroke="midnightblue" points="392,-208.57 388.5,-198.57 385,-208.57 392,-208.57"/>
</g>
<!-- Node62 -->
<g id="node47" class="node">
<title>Node62</title>
<g id="a_node47"><a xlink:href="_o_m_sim_effective_area_detector_8hh.html" target="_top" xlink:title="Defines the OMSimEffectiveAreaDetector class for effective area simulation detector construction.">
<polygon fill="none" stroke="black" points="465,-291.5 465,-310.5 638,-310.5 638,-291.5 465,-291.5"/>
<text text-anchor="middle" x="551.5" y="-298.5" font-family="Helvetica,sans-Serif" font-size="10.00">OMSimEffectiveAreaDetector.hh</text>
</a>
</g>
</g>
<!-- Node1&#45;&gt;Node62 -->
<g id="edge57" class="edge">
<title>Node1&#45;&gt;Node62</title>
<path fill="none" stroke="midnightblue" d="M414.33,-347.44C441.75,-338.36 485.28,-323.94 515.93,-313.78"/>
<polygon fill="midnightblue" stroke="midnightblue" points="517.4,-316.98 525.79,-310.52 515.2,-310.34 517.4,-316.98"/>
</g>
<!-- Node63 -->
<g id="node48" class="node">
<title>Node63</title>
<g id="a_node48"><a xlink:href="_o_m_sim_tools_8hh.html" target="_top" xlink:title="Definition of Tools namespace, a collection of helper methods.">
<polygon fill="none" stroke="black" points="145.5,-179.5 145.5,-198.5 237.5,-198.5 237.5,-179.5 145.5,-179.5"/>
<text text-anchor="middle" x="191.5" y="-186.5" font-family="Helvetica,sans-Serif" font-size="10.00">OMSimTools.hh</text>
</a>
</g>
</g>
<!-- Node1&#45;&gt;Node63 -->
<g id="edge59" class="edge">
<title>Node1&#45;&gt;Node63</title>
<path fill="none" stroke="midnightblue" d="M318.12,-353.12C284.67,-348.13 246.62,-336.63 221.5,-311 194.45,-283.4 190.54,-235.43 190.65,-208.93"/>
<polygon fill="midnightblue" stroke="midnightblue" points="194.15,-208.8 190.9,-198.72 187.16,-208.63 194.15,-208.8"/>
</g>
<!-- Node3 -->
<g id="node3" class="node">
<title>Node3</title>
<g id="a_node3"><a xlink:href="_o_m_sim_detector_construction_8hh_source.html" target="_top" xlink:title=" ">
<polygon fill="none" stroke="black" points="514.5,-235.5 514.5,-254.5 684.5,-254.5 684.5,-235.5 514.5,-235.5"/>
<text text-anchor="middle" x="599.5" y="-242.5" font-family="Helvetica,sans-Serif" font-size="10.00">OMSimDetectorConstruction.hh</text>
</a>
</g>
</g>
<!-- Node2&#45;&gt;Node3 -->
<g id="edge2" class="edge">
<title>Node2&#45;&gt;Node3</title>
<path fill="none" stroke="midnightblue" d="M1182.84,-297.22C1101.2,-290.44 885.94,-272.44 694.79,-255.11"/>
<polygon fill="midnightblue" stroke="midnightblue" points="694.83,-251.6 684.55,-254.18 694.19,-258.57 694.83,-251.6"/>
</g>
<!-- Node39 -->
<g id="node20" class="node">
<title>Node39</title>
<g id="a_node20"><a xlink:title=" ">
<polygon fill="none" stroke="#bfbfbf" points="1295,-235.5 1295,-254.5 1416,-254.5 1416,-235.5 1295,-235.5"/>
<text text-anchor="middle" x="1355.5" y="-242.5" font-family="Helvetica,sans-Serif" font-size="10.00">OMSimPhysicsList.hh</text>
</a>
</g>
</g>
<!-- Node2&#45;&gt;Node39 -->
<g id="edge22" class="edge">
<title>Node2&#45;&gt;Node39</title>
<path fill="none" stroke="midnightblue" d="M1238.52,-291.44C1261.6,-282.48 1298.06,-268.31 1324.14,-258.18"/>
<polygon fill="midnightblue" stroke="midnightblue" points="1325.52,-261.4 1333.58,-254.52 1322.99,-254.88 1325.52,-261.4"/>
</g>
<!-- Node40 -->
<g id="node21" class="node">
<title>Node40</title>
<g id="a_node21"><a xlink:title=" ">
<polygon fill="none" stroke="#bfbfbf" points="1434,-235.5 1434,-254.5 1619,-254.5 1619,-235.5 1434,-235.5"/>
<text text-anchor="middle" x="1526.5" y="-242.5" font-family="Helvetica,sans-Serif" font-size="10.00">OMSimPrimaryGeneratorAction.hh</text>
</a>
</g>
</g>
<!-- Node2&#45;&gt;Node40 -->
<g id="edge23" class="edge">
<title>Node2&#45;&gt;Node40</title>
<path fill="none" stroke="midnightblue" d="M1250.27,-294.12C1302.4,-285.04 1403.18,-267.48 1467.53,-256.27"/>
<polygon fill="midnightblue" stroke="midnightblue" points="1468.28,-259.69 1477.53,-254.53 1467.08,-252.8 1468.28,-259.69"/>
</g>
<!-- Node41 -->
<g id="node22" class="node">
<title>Node41</title>
<g id="a_node22"><a xlink:href="_o_m_sim_run_action_8hh_source.html" target="_top" xlink:title=" ">
<polygon fill="none" stroke="black" points="972.5,-179.5 972.5,-198.5 1088.5,-198.5 1088.5,-179.5 972.5,-179.5"/>
<text text-anchor="middle" x="1030.5" y="-186.5" font-family="Helvetica,sans-Serif" font-size="10.00">OMSimRunAction.hh</text>
</a>
</g>
</g>
<!-- Node2&#45;&gt;Node41 -->
<g id="edge24" class="edge">
<title>Node2&#45;&gt;Node41</title>
<path fill="none" stroke="midnightblue" d="M1202.23,-291.29C1181.6,-278.74 1142.25,-254.89 1108.5,-235 1090.43,-224.35 1069.88,-212.51 1054.41,-203.64"/>
<polygon fill="midnightblue" stroke="midnightblue" points="1055.92,-200.47 1045.5,-198.54 1052.44,-206.55 1055.92,-200.47"/>
</g>
<!-- Node45 -->
<g id="node31" class="node">
<title>Node45</title>
<g id="a_node31"><a xlink:title=" ">
<polygon fill="none" stroke="#bfbfbf" points="1637,-235.5 1637,-254.5 1762,-254.5 1762,-235.5 1637,-235.5"/>
<text text-anchor="middle" x="1699.5" y="-242.5" font-family="Helvetica,sans-Serif" font-size="10.00">OMSimEventAction.hh</text>
</a>
</g>
</g>
<!-- Node2&#45;&gt;Node45 -->
<g id="edge34" class="edge">
<title>Node2&#45;&gt;Node45</title>
<path fill="none" stroke="midnightblue" d="M1250.08,-296.5C1318.65,-289.31 1479.95,-272.21 1626.59,-255.09"/>
<polygon fill="midnightblue" stroke="midnightblue" points="1627.15,-258.55 1636.68,-253.91 1626.34,-251.6 1627.15,-258.55"/>
</g>
<!-- Node46 -->
<g id="node32" class="node">
<title>Node46</title>
<g id="a_node32"><a xlink:href="_o_m_sim_tracking_action_8hh_source.html" target="_top" xlink:title=" ">
<polygon fill="none" stroke="black" points="1780.5,-235.5 1780.5,-254.5 1918.5,-254.5 1918.5,-235.5 1780.5,-235.5"/>
<text text-anchor="middle" x="1849.5" y="-242.5" font-family="Helvetica,sans-Serif" font-size="10.00">OMSimTrackingAction.hh</text>
</a>
</g>
</g>
<!-- Node2&#45;&gt;Node46 -->
<g id="edge35" class="edge">
<title>Node2&#45;&gt;Node46</title>
<path fill="none" stroke="midnightblue" d="M1250.26,-297.64C1335.41,-291.61 1566.02,-274.76 1770.14,-255"/>
<polygon fill="midnightblue" stroke="midnightblue" points="1770.54,-258.48 1780.15,-254.03 1769.86,-251.51 1770.54,-258.48"/>
</g>
<!-- Node48 -->
<g id="node34" class="node">
<title>Node48</title>
<g id="a_node34"><a xlink:href="_o_m_sim_stepping_action_8hh.html" target="_top" xlink:title="Defines OMSimSteppingAction.Currently it only checks for trapped photons.">
<polygon fill="none" stroke="black" points="1936.5,-235.5 1936.5,-254.5 2076.5,-254.5 2076.5,-235.5 1936.5,-235.5"/>
<text text-anchor="middle" x="2006.5" y="-242.5" font-family="Helvetica,sans-Serif" font-size="10.00">OMSimSteppingAction.hh</text>
</a>
</g>
</g>
<!-- Node2&#45;&gt;Node48 -->
<g id="edge37" class="edge">
<title>Node2&#45;&gt;Node48</title>
<path fill="none" stroke="midnightblue" d="M1250.22,-298.47C1351.06,-293.76 1659.27,-278.44 1926.04,-255.09"/>
<polygon fill="midnightblue" stroke="midnightblue" points="1926.65,-258.55 1936.31,-254.18 1926.04,-251.57 1926.65,-258.55"/>
</g>
<!-- Node50 -->
<g id="node36" class="node">
<title>Node50</title>
<g id="a_node36"><a xlink:href="_o_m_sim_u_iinterface_8hh.html" target="_top" xlink:title=" ">
<polygon fill="none" stroke="black" points="1156,-235.5 1156,-254.5 1277,-254.5 1277,-235.5 1156,-235.5"/>
<text text-anchor="middle" x="1216.5" y="-242.5" font-family="Helvetica,sans-Serif" font-size="10.00">OMSimUIinterface.hh</text>
</a>
</g>
</g>
<!-- Node2&#45;&gt;Node50 -->
<g id="edge39" class="edge">
<title>Node2&#45;&gt;Node50</title>
<path fill="none" stroke="midnightblue" d="M1216.5,-291.08C1216.5,-284.01 1216.5,-273.86 1216.5,-264.99"/>
<polygon fill="midnightblue" stroke="midnightblue" points="1220,-264.75 1216.5,-254.75 1213,-264.75 1220,-264.75"/>
</g>
<!-- Node55 -->
<g id="node40" class="node">
<title>Node55</title>
<g id="a_node40"><a xlink:title=" ">
<polygon fill="none" stroke="#bfbfbf" points="2095,-235.5 2095,-254.5 2216,-254.5 2216,-235.5 2095,-235.5"/>
<text text-anchor="middle" x="2155.5" y="-242.5" font-family="Helvetica,sans-Serif" font-size="10.00">G4MTRunManager.hh</text>
</a>
</g>
</g>
<!-- Node2&#45;&gt;Node55 -->
<g id="edge46" class="edge">
<title>Node2&#45;&gt;Node55</title>
<path fill="none" stroke="midnightblue" d="M1250.12,-299.18C1365.01,-296.18 1752.81,-284.47 2084.53,-255.01"/>
<polygon fill="midnightblue" stroke="midnightblue" points="2085.18,-258.47 2094.82,-254.09 2084.55,-251.49 2085.18,-258.47"/>
</g>
<!-- Node56 -->
<g id="node41" class="node">
<title>Node56</title>
<g id="a_node41"><a xlink:title=" ">
<polygon fill="none" stroke="#bfbfbf" points="703,-235.5 703,-254.5 810,-254.5 810,-235.5 703,-235.5"/>
<text text-anchor="middle" x="756.5" y="-242.5" font-family="Helvetica,sans-Serif" font-size="10.00">G4VisExecutive.hh</text>
</a>
</g>
</g>
<!-- Node2&#45;&gt;Node56 -->
<g id="edge47" class="edge">
<title>Node2&#45;&gt;Node56</title>
<path fill="none" stroke="midnightblue" d="M1182.91,-296.56C1115.95,-289.64 960.82,-273.2 820.34,-255.21"/>
<polygon fill="midnightblue" stroke="midnightblue" points="820.62,-251.71 810.25,-253.91 819.73,-258.66 820.62,-251.71"/>
</g>
<!-- Node57 -->
<g id="node42" class="node">
<title>Node57</title>
<g id="a_node42"><a xlink:title=" ">
<polygon fill="none" stroke="#bfbfbf" points="828,-235.5 828,-254.5 931,-254.5 931,-235.5 828,-235.5"/>
<text text-anchor="middle" x="879.5" y="-242.5" font-family="Helvetica,sans-Serif" font-size="10.00">G4UIExecutive.hh</text>
</a>
</g>
</g>
<!-- Node2&#45;&gt;Node57 -->
<g id="edge48" class="edge">
<title>Node2&#45;&gt;Node57</title>
<path fill="none" stroke="midnightblue" d="M1182.96,-294.62C1126.7,-285.61 1012.54,-267.32 941.4,-255.92"/>
<polygon fill="midnightblue" stroke="midnightblue" points="941.65,-252.41 931.23,-254.29 940.55,-259.33 941.65,-252.41"/>
</g>
<!-- Node58 -->
<g id="node43" class="node">
<title>Node58</title>
<g id="a_node43"><a xlink:title=" ">
<polygon fill="none" stroke="#bfbfbf" points="949.5,-235.5 949.5,-254.5 1099.5,-254.5 1099.5,-235.5 949.5,-235.5"/>
<text text-anchor="middle" x="1024.5" y="-242.5" font-family="Helvetica,sans-Serif" font-size="10.00">boost/program_options.hpp</text>
</a>
</g>
</g>
<!-- Node2&#45;&gt;Node58 -->
<g id="edge49" class="edge">
<title>Node2&#45;&gt;Node58</title>
<path fill="none" stroke="midnightblue" d="M1186.08,-291.44C1153.22,-282.2 1100.72,-267.44 1064.53,-257.26"/>
<polygon fill="midnightblue" stroke="midnightblue" points="1065.35,-253.85 1054.78,-254.52 1063.46,-260.59 1065.35,-253.85"/>
</g>
<!-- Node4 -->
<g id="node4" class="node">
<title>Node4</title>
<g id="a_node4"><a xlink:href="_o_m_sim_optical_module_8hh_source.html" target="_top" xlink:title=" ">
<polygon fill="none" stroke="black" points="519,-179.5 519,-198.5 656,-198.5 656,-179.5 519,-179.5"/>
<text text-anchor="middle" x="587.5" y="-186.5" font-family="Helvetica,sans-Serif" font-size="10.00">OMSimOpticalModule.hh</text>
</a>
</g>
</g>
<!-- Node3&#45;&gt;Node4 -->
<g id="edge3" class="edge">
<title>Node3&#45;&gt;Node4</title>
<path fill="none" stroke="midnightblue" d="M597.52,-235.08C595.93,-227.93 593.64,-217.64 591.65,-208.69"/>
<polygon fill="midnightblue" stroke="midnightblue" points="595.03,-207.75 589.44,-198.75 588.2,-209.27 595.03,-207.75"/>
</g>
<!-- Node37 -->
<g id="node18" class="node">
<title>Node37</title>
<g id="a_node18"><a xlink:title=" ">
<polygon fill="none" stroke="#bfbfbf" points="870.5,-179.5 870.5,-198.5 932.5,-198.5 932.5,-179.5 870.5,-179.5"/>
<text text-anchor="middle" x="901.5" y="-186.5" font-family="Helvetica,sans-Serif" font-size="10.00">G4Orb.hh</text>
</a>
</g>
</g>
<!-- Node3&#45;&gt;Node37 -->
<g id="edge20" class="edge">
<title>Node3&#45;&gt;Node37</title>
<path fill="none" stroke="midnightblue" d="M653.84,-235.5C704.76,-227.35 783.21,-214.3 860.22,-199.18"/>
<polygon fill="midnightblue" stroke="midnightblue" points="860.96,-202.6 870.09,-197.23 859.6,-195.73 860.96,-202.6"/>
</g>
<!-- Node38 -->
<g id="node19" class="node">
<title>Node38</title>
<g id="a_node19"><a xlink:title=" ">
<polygon fill="none" stroke="#bfbfbf" points="674.5,-179.5 674.5,-198.5 852.5,-198.5 852.5,-179.5 674.5,-179.5"/>
<text text-anchor="middle" x="763.5" y="-186.5" font-family="Helvetica,sans-Serif" font-size="10.00">G4VUserDetectorConstruction.hh</text>
</a>
</g>
</g>
<!-- Node3&#45;&gt;Node38 -->
<g id="edge21" class="edge">
<title>Node3&#45;&gt;Node38</title>
<path fill="none" stroke="midnightblue" d="M625.49,-235.44C653.2,-226.32 697.25,-211.81 728.12,-201.65"/>
<polygon fill="midnightblue" stroke="midnightblue" points="729.23,-204.97 737.64,-198.52 727.04,-198.32 729.23,-204.97"/>
</g>
<!-- Node5 -->
<g id="node5" class="node">
<title>Node5</title>
<g id="a_node5"><a xlink:href="_o_m_sim_detector_component_8hh.html" target="_top" xlink:title="Provides helper base class OMSimDetectorComponent for constructing and managing detector components i...">
<polygon fill="none" stroke="red" points="788,-62 788,-81 953,-81 953,-62 788,-62"/>
<text text-anchor="middle" x="870.5" y="-69" font-family="Helvetica,sans-Serif" font-size="10.00">OMSimDetectorComponent.hh</text>
</a>
</g>
</g>
<!-- Node4&#45;&gt;Node5 -->
<g id="edge4" class="edge">
<title>Node4&#45;&gt;Node5</title>
<path fill="none" stroke="midnightblue" d="M643.48,-179.48C680.15,-172.61 728.51,-161.06 768.5,-143 800.8,-128.41 833.74,-103.43 853.14,-87.45"/>
<polygon fill="midnightblue" stroke="midnightblue" points="855.4,-90.13 860.82,-81.02 850.9,-84.76 855.4,-90.13"/>
</g>
<!-- Node26 -->
<g id="node6" class="node">
<title>Node26</title>
<g id="a_node6"><a xlink:href="_o_m_sim_hit_manager_8hh.html" target="_top" xlink:title="Defines structures and classes related to optical module photon hit management.">
<polygon fill="none" stroke="black" points="414,-123.5 414,-142.5 537,-142.5 537,-123.5 414,-123.5"/>
<text text-anchor="middle" x="475.5" y="-130.5" font-family="Helvetica,sans-Serif" font-size="10.00">OMSimHitManager.hh</text>
</a>
</g>
</g>
<!-- Node4&#45;&gt;Node26 -->
<g id="edge5" class="edge">
<title>Node4&#45;&gt;Node26</title>
<path fill="none" stroke="midnightblue" d="M569.51,-179.32C551.46,-170.62 523.45,-157.12 502.7,-147.11"/>
<polygon fill="midnightblue" stroke="midnightblue" points="503.98,-143.84 493.45,-142.65 500.94,-150.15 503.98,-143.84"/>
</g>
<!-- Node34 -->
<g id="node17" class="node">
<title>Node34</title>
<g id="a_node17"><a xlink:href="_o_m_sim_p_m_t_construction_8hh.html" target="_top" xlink:title="Construction of the PMTs.">
<polygon fill="none" stroke="red" points="593,-123.5 593,-142.5 742,-142.5 742,-123.5 593,-123.5"/>
<text text-anchor="middle" x="667.5" y="-130.5" font-family="Helvetica,sans-Serif" font-size="10.00">OMSimPMTConstruction.hh</text>
</a>
</g>
</g>
<!-- Node4&#45;&gt;Node34 -->
<g id="edge16" class="edge">
<title>Node4&#45;&gt;Node34</title>
<path fill="none" stroke="midnightblue" d="M600.35,-179.32C612.72,-170.98 631.63,-158.21 646.24,-148.35"/>
<polygon fill="midnightblue" stroke="midnightblue" points="648.35,-151.15 654.68,-142.65 644.43,-145.35 648.35,-151.15"/>
</g>
<!-- Node27 -->
<g id="node7" class="node">
<title>Node27</title>
<g id="a_node7"><a xlink:href="_o_m_sim_p_m_t_response_8hh.html" target="_top" xlink:title="Simulation of PMT response.">
<polygon fill="none" stroke="black" points="562,-62 562,-81 697,-81 697,-62 562,-62"/>
<text text-anchor="middle" x="629.5" y="-69" font-family="Helvetica,sans-Serif" font-size="10.00">OMSimPMTResponse.hh</text>
</a>
</g>
</g>
<!-- Node26&#45;&gt;Node27 -->
<g id="edge6" class="edge">
<title>Node26&#45;&gt;Node27</title>
<path fill="none" stroke="midnightblue" d="M497.56,-123.48C523.87,-113.31 568.01,-96.26 597.92,-84.7"/>
<polygon fill="midnightblue" stroke="midnightblue" points="599.41,-87.88 607.48,-81.01 596.89,-81.35 599.41,-87.88"/>
</g>
<!-- Node32 -->
<g id="node13" class="node">
<title>Node32</title>
<g id="a_node13"><a xlink:title=" ">
<polygon fill="none" stroke="#bfbfbf" points="220,-62 220,-81 323,-81 323,-62 220,-62"/>
<text text-anchor="middle" x="271.5" y="-69" font-family="Helvetica,sans-Serif" font-size="10.00">G4ThreeVector.hh</text>
</a>
</g>
</g>
<!-- Node26&#45;&gt;Node32 -->
<g id="edge12" class="edge">
<title>Node26&#45;&gt;Node32</title>
<path fill="none" stroke="midnightblue" d="M446.27,-123.48C410.6,-113.07 350.14,-95.44 310.52,-83.88"/>
<polygon fill="midnightblue" stroke="midnightblue" points="311.25,-80.45 300.67,-81.01 309.29,-87.17 311.25,-80.45"/>
</g>
<!-- Node33 -->
<g id="node14" class="node">
<title>Node33</title>
<g id="a_node14"><a xlink:title=" ">
<polygon fill="none" stroke="#bfbfbf" points="715,-62 715,-81 770,-81 770,-62 715,-62"/>
<text text-anchor="middle" x="742.5" y="-69" font-family="Helvetica,sans-Serif" font-size="10.00">fstream</text>
</a>
</g>
</g>
<!-- Node26&#45;&gt;Node33 -->
<g id="edge13" class="edge">
<title>Node26&#45;&gt;Node33</title>
<path fill="none" stroke="midnightblue" d="M534.33,-123.49C581.22,-115.99 648.27,-103.66 705.5,-87 707.93,-86.29 710.43,-85.49 712.93,-84.63"/>
<polygon fill="midnightblue" stroke="midnightblue" points="714.2,-87.89 722.37,-81.15 711.78,-81.32 714.2,-87.89"/>
</g>
<!-- Node18 -->
<g id="node15" class="node">
<title>Node18</title>
<g id="a_node15"><a xlink:title=" ">
<polygon fill="none" stroke="#bfbfbf" points="453.5,-62 453.5,-81 543.5,-81 543.5,-62 453.5,-62"/>
<text text-anchor="middle" x="498.5" y="-69" font-family="Helvetica,sans-Serif" font-size="10.00">G4AutoLock.hh</text>
</a>
</g>
</g>
<!-- Node26&#45;&gt;Node18 -->
<g id="edge14" class="edge">
<title>Node26&#45;&gt;Node18</title>
<path fill="none" stroke="midnightblue" d="M478.8,-123.48C482.11,-114.9 487.32,-101.43 491.55,-90.48"/>
<polygon fill="midnightblue" stroke="midnightblue" points="494.87,-91.6 495.21,-81.01 488.34,-89.07 494.87,-91.6"/>
</g>
<!-- Node19 -->
<g id="node16" class="node">
<title>Node19</title>
<g id="a_node16"><a xlink:title=" ">
<polygon fill="none" stroke="#bfbfbf" points="341.5,-62 341.5,-81 435.5,-81 435.5,-62 341.5,-62"/>
<text text-anchor="middle" x="388.5" y="-69" font-family="Helvetica,sans-Serif" font-size="10.00">G4Threading.hh</text>
</a>
</g>
</g>
<!-- Node26&#45;&gt;Node19 -->
<g id="edge15" class="edge">
<title>Node26&#45;&gt;Node19</title>
<path fill="none" stroke="midnightblue" d="M463.04,-123.48C449.08,-113.93 426.24,-98.31 409.51,-86.87"/>
<polygon fill="midnightblue" stroke="midnightblue" points="411.17,-83.77 400.94,-81.01 407.22,-89.54 411.17,-83.77"/>
</g>
<!-- Node20 -->
<g id="node8" class="node">
<title>Node20</title>
<g id="a_node8"><a xlink:title=" ">
<polygon fill="none" stroke="#bfbfbf" points="513,-0.5 513,-19.5 632,-19.5 632,-0.5 513,-0.5"/>
<text text-anchor="middle" x="572.5" y="-7.5" font-family="Helvetica,sans-Serif" font-size="10.00">G4SystemOfUnits.hh</text>
</a>
</g>
</g>
<!-- Node27&#45;&gt;Node20 -->
<g id="edge7" class="edge">
<title>Node27&#45;&gt;Node20</title>
<path fill="none" stroke="midnightblue" d="M621.33,-61.98C612.61,-52.87 598.6,-38.24 587.81,-26.98"/>
<polygon fill="midnightblue" stroke="midnightblue" points="590.1,-24.31 580.65,-19.51 585.04,-29.15 590.1,-24.31"/>
</g>
<!-- Node28 -->
<g id="node9" class="node">
<title>Node28</title>
<g id="a_node9"><a xlink:title=" ">
<polygon fill="none" stroke="#bfbfbf" points="650,-0.5 650,-19.5 723,-19.5 723,-0.5 650,-0.5"/>
<text text-anchor="middle" x="686.5" y="-7.5" font-family="Helvetica,sans-Serif" font-size="10.00">G4Types.hh</text>
</a>
</g>
</g>
<!-- Node27&#45;&gt;Node28 -->
<g id="edge8" class="edge">
<title>Node27&#45;&gt;Node28</title>
<path fill="none" stroke="midnightblue" d="M637.67,-61.98C646.39,-52.87 660.4,-38.24 671.19,-26.98"/>
<polygon fill="midnightblue" stroke="midnightblue" points="673.96,-29.15 678.35,-19.51 668.9,-24.31 673.96,-29.15"/>
</g>
<!-- Node29 -->
<g id="node10" class="node">
<title>Node29</title>
<g id="a_node10"><a xlink:title=" ">
<polygon fill="none" stroke="#bfbfbf" points="1096.5,-0.5 1096.5,-19.5 1134.5,-19.5 1134.5,-0.5 1096.5,-0.5"/>
<text text-anchor="middle" x="1115.5" y="-7.5" font-family="Helvetica,sans-Serif" font-size="10.00">map</text>
</a>
</g>
</g>
<!-- Node27&#45;&gt;Node29 -->
<g id="edge9" class="edge">
<title>Node27&#45;&gt;Node29</title>
<path fill="none" stroke="midnightblue" d="M671.21,-61.93C682.32,-59.81 694.34,-57.67 705.5,-56 847.38,-34.71 1018.3,-19.18 1085.91,-13.44"/>
<polygon fill="midnightblue" stroke="midnightblue" points="1086.55,-16.9 1096.22,-12.57 1085.96,-9.92 1086.55,-16.9"/>
</g>
<!-- Node30 -->
<g id="node11" class="node">
<title>Node30</title>
<g id="a_node11"><a xlink:title=" ">
<polygon fill="none" stroke="#bfbfbf" points="226,-0.5 226,-19.5 287,-19.5 287,-0.5 226,-0.5"/>
<text text-anchor="middle" x="256.5" y="-7.5" font-family="Helvetica,sans-Serif" font-size="10.00">TGraph.h</text>
</a>
</g>
</g>
<!-- Node27&#45;&gt;Node30 -->
<g id="edge10" class="edge">
<title>Node27&#45;&gt;Node30</title>
<path fill="none" stroke="midnightblue" d="M585.57,-61.95C574.77,-59.93 563.23,-57.83 552.5,-56 461.57,-40.53 354.47,-24.88 297.31,-16.74"/>
<polygon fill="midnightblue" stroke="midnightblue" points="297.63,-13.25 287.24,-15.31 296.65,-20.18 297.63,-13.25"/>
</g>
<!-- Node31 -->
<g id="node12" class="node">
<title>Node31</title>
<g id="a_node12"><a xlink:title=" ">
<polygon fill="none" stroke="#bfbfbf" points="396,-0.5 396,-19.5 449,-19.5 449,-0.5 396,-0.5"/>
<text text-anchor="middle" x="422.5" y="-7.5" font-family="Helvetica,sans-Serif" font-size="10.00">TH2D.h</text>
</a>
</g>
</g>
<!-- Node27&#45;&gt;Node31 -->
<g id="edge11" class="edge">
<title>Node27&#45;&gt;Node31</title>
<path fill="none" stroke="midnightblue" d="M599.84,-61.98C562.64,-51.28 498.87,-32.95 458.79,-21.43"/>
<polygon fill="midnightblue" stroke="midnightblue" points="459.72,-18.06 449.15,-18.66 457.79,-24.79 459.72,-18.06"/>
</g>
<!-- Node34&#45;&gt;Node5 -->
<g id="edge17" class="edge">
<title>Node34&#45;&gt;Node5</title>
<path fill="none" stroke="midnightblue" d="M696.58,-123.48C732.08,-113.07 792.25,-95.44 831.67,-83.88"/>
<polygon fill="midnightblue" stroke="midnightblue" points="832.86,-87.18 841.47,-81.01 830.89,-80.46 832.86,-87.18"/>
</g>
<!-- Node34&#45;&gt;Node27 -->
<g id="edge19" class="edge">
<title>Node34&#45;&gt;Node27</title>
<path fill="none" stroke="midnightblue" d="M662.06,-123.48C656.41,-114.64 647.44,-100.59 640.34,-89.48"/>
<polygon fill="midnightblue" stroke="midnightblue" points="643.27,-87.55 634.93,-81.01 637.37,-91.32 643.27,-87.55"/>
</g>
<!-- Node34&#45;&gt;Node34 -->
<g id="edge18" class="edge">
<title>Node34&#45;&gt;Node34</title>
<path fill="none" stroke="midnightblue" d="M706.95,-142.53C733.76,-145.31 760,-142.13 760,-133 760,-125.01 739.91,-121.58 716.93,-122.71"/>
<polygon fill="midnightblue" stroke="midnightblue" points="716.65,-119.22 706.95,-123.47 717.19,-126.2 716.65,-119.22"/>
</g>
<!-- Node41&#45;&gt;Node26 -->
<g id="edge26" class="edge">
<title>Node41&#45;&gt;Node26</title>
<path fill="none" stroke="midnightblue" d="M972.1,-182.06C961.9,-181.03 951.39,-179.98 941.5,-179 801.95,-165.21 638.84,-149.57 547.31,-140.83"/>
<polygon fill="midnightblue" stroke="midnightblue" points="547.61,-137.35 537.32,-139.88 546.94,-144.31 547.61,-137.35"/>
</g>
<!-- Node42 -->
<g id="node23" class="node">
<title>Node42</title>
<g id="a_node23"><a xlink:title=" ">
<polygon fill="none" stroke="#bfbfbf" points="898,-123.5 898,-142.5 1015,-142.5 1015,-123.5 898,-123.5"/>
<text text-anchor="middle" x="956.5" y="-130.5" font-family="Helvetica,sans-Serif" font-size="10.00">G4UserRunAction.hh</text>
</a>
</g>
</g>
<!-- Node41&#45;&gt;Node42 -->
<g id="edge25" class="edge">
<title>Node41&#45;&gt;Node42</title>
<path fill="none" stroke="midnightblue" d="M1018.61,-179.32C1007.35,-171.11 990.21,-158.6 976.79,-148.81"/>
<polygon fill="midnightblue" stroke="midnightblue" points="978.75,-145.9 968.61,-142.83 974.62,-151.56 978.75,-145.9"/>
</g>
<!-- Node7 -->
<g id="node24" class="node">
<title>Node7</title>
<g id="a_node24"><a xlink:href="_o_m_sim_logger_8hh_source.html" target="_top" xlink:title=" ">
<polygon fill="none" stroke="black" points="1176,-123.5 1176,-142.5 1275,-142.5 1275,-123.5 1176,-123.5"/>
<text text-anchor="middle" x="1225.5" y="-130.5" font-family="Helvetica,sans-Serif" font-size="10.00">OMSimLogger.hh</text>
</a>
</g>
</g>
<!-- Node41&#45;&gt;Node7 -->
<g id="edge27" class="edge">
<title>Node41&#45;&gt;Node7</title>
<path fill="none" stroke="midnightblue" d="M1061.4,-179.44C1094.77,-170.2 1148.09,-155.44 1184.85,-145.26"/>
<polygon fill="midnightblue" stroke="midnightblue" points="1186.04,-148.56 1194.75,-142.52 1184.17,-141.81 1186.04,-148.56"/>
</g>
<!-- Node43 -->
<g id="node29" class="node">
<title>Node43</title>
<g id="a_node29"><a xlink:title=" ">
<polygon fill="none" stroke="#bfbfbf" points="1033.5,-123.5 1033.5,-142.5 1119.5,-142.5 1119.5,-123.5 1033.5,-123.5"/>
<text text-anchor="middle" x="1076.5" y="-130.5" font-family="Helvetica,sans-Serif" font-size="10.00">Randomize.hh</text>
</a>
</g>
</g>
<!-- Node41&#45;&gt;Node43 -->
<g id="edge32" class="edge">
<title>Node41&#45;&gt;Node43</title>
<path fill="none" stroke="midnightblue" d="M1038.1,-179.08C1044.73,-171.3 1054.52,-159.8 1062.56,-150.37"/>
<polygon fill="midnightblue" stroke="midnightblue" points="1065.23,-152.63 1069.05,-142.75 1059.9,-148.09 1065.23,-152.63"/>
</g>
<!-- Node44 -->
<g id="node30" class="node">
<title>Node44</title>
<g id="a_node30"><a xlink:title=" ">
<polygon fill="none" stroke="#bfbfbf" points="815.5,-123.5 815.5,-142.5 879.5,-142.5 879.5,-123.5 815.5,-123.5"/>
<text text-anchor="middle" x="847.5" y="-130.5" font-family="Helvetica,sans-Serif" font-size="10.00">G4Run.hh</text>
</a>
</g>
</g>
<!-- Node41&#45;&gt;Node44 -->
<g id="edge33" class="edge">
<title>Node41&#45;&gt;Node44</title>
<path fill="none" stroke="midnightblue" d="M1001.5,-179.44C970.32,-170.24 920.57,-155.56 886.09,-145.39"/>
<polygon fill="midnightblue" stroke="midnightblue" points="886.94,-141.99 876.36,-142.52 884.96,-148.7 886.94,-141.99"/>
</g>
<!-- Node8 -->
<g id="node25" class="node">
<title>Node8</title>
<g id="a_node25"><a xlink:title=" ">
<polygon fill="none" stroke="#bfbfbf" points="1293,-62 1293,-81 1386,-81 1386,-62 1293,-62"/>
<text text-anchor="middle" x="1339.5" y="-69" font-family="Helvetica,sans-Serif" font-size="10.00">spdlog/spdlog.h</text>
</a>
</g>
</g>
<!-- Node7&#45;&gt;Node8 -->
<g id="edge28" class="edge">
<title>Node7&#45;&gt;Node8</title>
<path fill="none" stroke="midnightblue" d="M1241.83,-123.48C1260.71,-113.62 1292.01,-97.29 1314.08,-85.77"/>
<polygon fill="midnightblue" stroke="midnightblue" points="1315.95,-88.74 1323.2,-81.01 1312.71,-82.53 1315.95,-88.74"/>
</g>
<!-- Node9 -->
<g id="node26" class="node">
<title>Node9</title>
<g id="a_node26"><a xlink:title=" ">
<polygon fill="none" stroke="#bfbfbf" points="971,-56.5 971,-86.5 1082,-86.5 1082,-56.5 971,-56.5"/>
<text text-anchor="start" x="979" y="-74.5" font-family="Helvetica,sans-Serif" font-size="10.00">spdlog/sinks/stdout</text>
<text text-anchor="middle" x="1026.5" y="-63.5" font-family="Helvetica,sans-Serif" font-size="10.00">_color_sinks.h</text>
</a>
</g>
</g>
<!-- Node7&#45;&gt;Node9 -->
<g id="edge29" class="edge">
<title>Node7&#45;&gt;Node9</title>
<path fill="none" stroke="midnightblue" d="M1196.99,-123.48C1167.39,-114.63 1120.31,-100.55 1083.12,-89.43"/>
<polygon fill="midnightblue" stroke="midnightblue" points="1083.98,-86.03 1073.4,-86.52 1081.98,-92.74 1083.98,-86.03"/>
</g>
<!-- Node10 -->
<g id="node27" class="node">
<title>Node10</title>
<g id="a_node27"><a xlink:title=" ">
<polygon fill="none" stroke="#bfbfbf" points="1100.5,-62 1100.5,-81 1158.5,-81 1158.5,-62 1100.5,-62"/>
<text text-anchor="middle" x="1129.5" y="-69" font-family="Helvetica,sans-Serif" font-size="10.00">memory</text>
</a>
</g>
</g>
<!-- Node7&#45;&gt;Node10 -->
<g id="edge30" class="edge">
<title>Node7&#45;&gt;Node10</title>
<path fill="none" stroke="midnightblue" d="M1211.75,-123.48C1196.13,-113.8 1170.44,-97.87 1151.92,-86.39"/>
<polygon fill="midnightblue" stroke="midnightblue" points="1153.57,-83.3 1143.23,-81.01 1149.88,-89.25 1153.57,-83.3"/>
</g>
<!-- Node11 -->
<g id="node28" class="node">
<title>Node11</title>
<g id="a_node28"><a xlink:title=" ">
<polygon fill="none" stroke="#bfbfbf" points="1176.5,-62 1176.5,-81 1274.5,-81 1274.5,-62 1176.5,-62"/>
<text text-anchor="middle" x="1225.5" y="-69" font-family="Helvetica,sans-Serif" font-size="10.00">spdlog/fmt/fmt.h</text>
</a>
</g>
</g>
<!-- Node7&#45;&gt;Node11 -->
<g id="edge31" class="edge">
<title>Node7&#45;&gt;Node11</title>
<path fill="none" stroke="midnightblue" d="M1225.5,-123.48C1225.5,-115.08 1225.5,-101.98 1225.5,-91.16"/>
<polygon fill="midnightblue" stroke="midnightblue" points="1229,-91.01 1225.5,-81.01 1222,-91.01 1229,-91.01"/>
</g>
<!-- Node47 -->
<g id="node33" class="node">
<title>Node47</title>
<g id="a_node33"><a xlink:title=" ">
<polygon fill="none" stroke="#bfbfbf" points="1779,-179.5 1779,-198.5 1918,-198.5 1918,-179.5 1779,-179.5"/>
<text text-anchor="middle" x="1848.5" y="-186.5" font-family="Helvetica,sans-Serif" font-size="10.00">G4UserTrackingAction.hh</text>
</a>
</g>
</g>
<!-- Node46&#45;&gt;Node47 -->
<g id="edge36" class="edge">
<title>Node46&#45;&gt;Node47</title>
<path fill="none" stroke="midnightblue" d="M1849.33,-235.08C1849.2,-228.01 1849.02,-217.86 1848.85,-208.99"/>
<polygon fill="midnightblue" stroke="midnightblue" points="1852.35,-208.68 1848.66,-198.75 1845.35,-208.81 1852.35,-208.68"/>
</g>
<!-- Node49 -->
<g id="node35" class="node">
<title>Node49</title>
<g id="a_node35"><a xlink:title=" ">
<polygon fill="none" stroke="#bfbfbf" points="1936,-179.5 1936,-198.5 2077,-198.5 2077,-179.5 1936,-179.5"/>
<text text-anchor="middle" x="2006.5" y="-186.5" font-family="Helvetica,sans-Serif" font-size="10.00">G4UserSteppingAction.hh</text>
</a>
</g>
</g>
<!-- Node48&#45;&gt;Node49 -->
<g id="edge38" class="edge">
<title>Node48&#45;&gt;Node49</title>
<path fill="none" stroke="midnightblue" d="M2006.5,-235.08C2006.5,-228.01 2006.5,-217.86 2006.5,-208.99"/>
<polygon fill="midnightblue" stroke="midnightblue" points="2010,-208.75 2006.5,-198.75 2003,-208.75 2010,-208.75"/>
</g>
<!-- Node51 -->
<g id="node37" class="node">
<title>Node51</title>
<g id="a_node37"><a xlink:href="_o_m_sim_command_args_table_8hh.html" target="_top" xlink:title="Definition of the OMSimCommandArgsTable singleton class, which controls user args.">
<polygon fill="none" stroke="red" points="1137.5,-179.5 1137.5,-198.5 1301.5,-198.5 1301.5,-179.5 1137.5,-179.5"/>
<text text-anchor="middle" x="1219.5" y="-186.5" font-family="Helvetica,sans-Serif" font-size="10.00">OMSimCommandArgsTable.hh</text>
</a>
</g>
</g>
<!-- Node50&#45;&gt;Node51 -->
<g id="edge40" class="edge">
<title>Node50&#45;&gt;Node51</title>
<path fill="none" stroke="midnightblue" d="M1217,-235.08C1217.39,-228.01 1217.95,-217.86 1218.45,-208.99"/>
<polygon fill="midnightblue" stroke="midnightblue" points="1221.95,-208.93 1219.01,-198.75 1214.96,-208.54 1221.95,-208.93"/>
</g>
<!-- Node54 -->
<g id="node39" class="node">
<title>Node54</title>
<g id="a_node39"><a xlink:title=" ">
<polygon fill="none" stroke="#bfbfbf" points="1319.5,-179.5 1319.5,-198.5 1417.5,-198.5 1417.5,-179.5 1319.5,-179.5"/>
<text text-anchor="middle" x="1368.5" y="-186.5" font-family="Helvetica,sans-Serif" font-size="10.00">G4UImanager.hh</text>
</a>
</g>
</g>
<!-- Node50&#45;&gt;Node54 -->
<g id="edge45" class="edge">
<title>Node50&#45;&gt;Node54</title>
<path fill="none" stroke="midnightblue" d="M1240.58,-235.44C1266.04,-226.4 1306.39,-212.06 1334.96,-201.92"/>
<polygon fill="midnightblue" stroke="midnightblue" points="1336.28,-205.16 1344.53,-198.52 1333.93,-198.57 1336.28,-205.16"/>
</g>
<!-- Node51&#45;&gt;Node29 -->
<g id="edge44" class="edge">
<title>Node51&#45;&gt;Node29</title>
<path fill="none" stroke="midnightblue" d="M1250.37,-179.44C1312.61,-160.72 1443.23,-113.22 1394.5,-56 1362.7,-18.66 1210.4,-12.2 1145.21,-11.16"/>
<polygon fill="midnightblue" stroke="midnightblue" points="1144.85,-7.65 1134.81,-11.03 1144.77,-14.65 1144.85,-7.65"/>
</g>
<!-- Node51&#45;&gt;Node33 -->
<g id="edge42" class="edge">
<title>Node51&#45;&gt;Node33</title>
<path fill="none" stroke="midnightblue" d="M1210.88,-179.41C1195.72,-164.91 1162.64,-135.9 1128.5,-123 982.22,-67.71 930.29,-124.58 778.5,-87 775.83,-86.34 773.1,-85.52 770.39,-84.61"/>
<polygon fill="midnightblue" stroke="midnightblue" points="771.45,-81.27 760.85,-81.05 769,-87.83 771.45,-81.27"/>
</g>
<!-- Node51&#45;&gt;Node7 -->
<g id="edge41" class="edge">
<title>Node51&#45;&gt;Node7</title>
<path fill="none" stroke="midnightblue" d="M1220.49,-179.08C1221.29,-171.93 1222.43,-161.64 1223.42,-152.69"/>
<polygon fill="midnightblue" stroke="midnightblue" points="1226.9,-153.08 1224.53,-142.75 1219.94,-152.3 1226.9,-153.08"/>
</g>
<!-- Node52 -->
<g id="node38" class="node">
<title>Node52</title>
<g id="a_node38"><a xlink:title=" ">
<polygon fill="none" stroke="#bfbfbf" points="1442.5,-123.5 1442.5,-142.5 1526.5,-142.5 1526.5,-123.5 1442.5,-123.5"/>
<text text-anchor="middle" x="1484.5" y="-130.5" font-family="Helvetica,sans-Serif" font-size="10.00">boost/any.hpp</text>
</a>
</g>
</g>
<!-- Node51&#45;&gt;Node52 -->
<g id="edge43" class="edge">
<title>Node51&#45;&gt;Node52</title>
<path fill="none" stroke="midnightblue" d="M1261.49,-179.44C1307.91,-169.98 1382.73,-154.74 1432.74,-144.55"/>
<polygon fill="midnightblue" stroke="midnightblue" points="1433.61,-147.94 1442.71,-142.52 1432.21,-141.08 1433.61,-147.94"/>
</g>
<!-- Node60 -->
<g id="node45" class="node">
<title>Node60</title>
<g id="a_node45"><a xlink:title=" ">
<polygon fill="none" stroke="#bfbfbf" points="227,-123.5 227,-142.5 294,-142.5 294,-123.5 227,-123.5"/>
<text text-anchor="middle" x="260.5" y="-130.5" font-family="Helvetica,sans-Serif" font-size="10.00">globals.hh</text>
</a>
</g>
</g>
<!-- Node59&#45;&gt;Node60 -->
<g id="edge51" class="edge">
<title>Node59&#45;&gt;Node60</title>
<path fill="none" stroke="midnightblue" d="M292.67,-291.08C287.32,-264.95 271.6,-188.21 264.3,-152.58"/>
<polygon fill="midnightblue" stroke="midnightblue" points="267.69,-151.66 262.25,-142.57 260.83,-153.07 267.69,-151.66"/>
</g>
<!-- Node61&#45;&gt;Node26 -->
<g id="edge54" class="edge">
<title>Node61&#45;&gt;Node26</title>
<path fill="none" stroke="midnightblue" d="M402.48,-179.32C416.05,-170.9 436.88,-157.97 452.82,-148.07"/>
<polygon fill="midnightblue" stroke="midnightblue" points="454.91,-150.9 461.56,-142.65 451.21,-144.95 454.91,-150.9"/>
</g>
<!-- Node61&#45;&gt;Node27 -->
<g id="edge53" class="edge">
<title>Node61&#45;&gt;Node27</title>
<path fill="none" stroke="midnightblue" d="M387.97,-179.47C387.61,-165.59 389.06,-138.13 404.5,-123 410.69,-116.93 511.53,-95.95 576.09,-83.02"/>
<polygon fill="midnightblue" stroke="midnightblue" points="577,-86.41 586.12,-81.02 575.63,-79.54 577,-86.41"/>
</g>
<!-- Node61&#45;&gt;Node32 -->
<g id="edge55" class="edge">
<title>Node61&#45;&gt;Node32</title>
<path fill="none" stroke="midnightblue" d="M379.71,-179.32C360.14,-160 312.77,-113.24 287.69,-88.48"/>
<polygon fill="midnightblue" stroke="midnightblue" points="289.97,-85.82 280.4,-81.28 285.05,-90.8 289.97,-85.82"/>
</g>
<!-- Node61&#45;&gt;Node33 -->
<g id="edge56" class="edge">
<title>Node61&#45;&gt;Node33</title>
<path fill="none" stroke="midnightblue" d="M426.34,-179.47C458.6,-171.66 505.9,-158.9 545.5,-143 563.21,-135.89 565.82,-130.18 583.5,-123 635.88,-101.73 652.02,-105.33 705.5,-87 707.62,-86.27 709.8,-85.5 711.99,-84.7"/>
<polygon fill="midnightblue" stroke="midnightblue" points="713.37,-87.91 721.49,-81.1 710.89,-81.37 713.37,-87.91"/>
</g>
<!-- Node62&#45;&gt;Node3 -->
<g id="edge58" class="edge">
<title>Node62&#45;&gt;Node3</title>
<path fill="none" stroke="midnightblue" d="M559.43,-291.08C566.35,-283.3 576.57,-271.8 584.95,-262.37"/>
<polygon fill="midnightblue" stroke="midnightblue" points="587.69,-264.55 591.72,-254.75 582.46,-259.9 587.69,-264.55"/>
</g>
<!-- Node63&#45;&gt;Node30 -->
<g id="edge62" class="edge">
<title>Node63&#45;&gt;Node30</title>
<path fill="none" stroke="midnightblue" d="M187.23,-179.23C177.02,-156.92 153.76,-96.84 177.5,-56 186.24,-40.97 202.08,-30.54 217.29,-23.54"/>
<polygon fill="midnightblue" stroke="midnightblue" points="218.76,-26.72 226.62,-19.61 216.04,-20.27 218.76,-26.72"/>
</g>
<!-- Node63&#45;&gt;Node31 -->
<g id="edge63" class="edge">
<title>Node63&#45;&gt;Node31</title>
<path fill="none" stroke="midnightblue" d="M189.72,-179.19C185.54,-155.7 177.75,-90.99 210.5,-56 233.88,-31.02 331.04,-18.82 385.35,-13.85"/>
<polygon fill="midnightblue" stroke="midnightblue" points="385.95,-17.31 395.61,-12.95 385.34,-10.34 385.95,-17.31"/>
</g>
<!-- Node63&#45;&gt;Node7 -->
<g id="edge60" class="edge">
<title>Node63&#45;&gt;Node7</title>
<path fill="none" stroke="midnightblue" d="M237.52,-183.4C254.47,-181.83 273.85,-180.17 291.5,-179 663.02,-154.31 757.01,-168.21 1128.5,-143 1140.5,-142.19 1153.31,-141.13 1165.56,-140.03"/>
<polygon fill="midnightblue" stroke="midnightblue" points="1166.06,-143.5 1175.69,-139.1 1165.41,-136.53 1166.06,-143.5"/>
</g>
<!-- Node63&#45;&gt;Node60 -->
<g id="edge61" class="edge">
<title>Node63&#45;&gt;Node60</title>
<path fill="none" stroke="midnightblue" d="M202.59,-179.32C212.99,-171.18 228.76,-158.84 241.22,-149.09"/>
<polygon fill="midnightblue" stroke="midnightblue" points="243.49,-151.75 249.21,-142.83 239.18,-146.24 243.49,-151.75"/>
</g>
<!-- Node64 -->
<g id="node49" class="node">
<title>Node64</title>
<g id="a_node49"><a xlink:title=" ">
<polygon fill="none" stroke="#bfbfbf" points="0,-123.5 0,-142.5 51,-142.5 51,-123.5 0,-123.5"/>
<text text-anchor="middle" x="25.5" y="-130.5" font-family="Helvetica,sans-Serif" font-size="10.00">variant</text>
</a>
</g>
</g>
<!-- Node63&#45;&gt;Node64 -->
<g id="edge64" class="edge">
<title>Node63&#45;&gt;Node64</title>
<path fill="none" stroke="midnightblue" d="M165.2,-179.44C136.98,-170.27 92.03,-155.64 60.77,-145.47"/>
<polygon fill="midnightblue" stroke="midnightblue" points="61.73,-142.1 51.13,-142.34 59.56,-148.76 61.73,-142.1"/>
</g>
<!-- Node65 -->
<g id="node50" class="node">
<title>Node65</title>
<g id="a_node50"><a xlink:title=" ">
<polygon fill="none" stroke="#bfbfbf" points="69.5,-123.5 69.5,-142.5 125.5,-142.5 125.5,-123.5 69.5,-123.5"/>
<text text-anchor="middle" x="97.5" y="-130.5" font-family="Helvetica,sans-Serif" font-size="10.00">optional</text>
</a>
</g>
</g>
<!-- Node63&#45;&gt;Node65 -->
<g id="edge65" class="edge">
<title>Node63&#45;&gt;Node65</title>
<path fill="none" stroke="midnightblue" d="M176.4,-179.32C161.6,-170.82 138.81,-157.73 121.52,-147.8"/>
<polygon fill="midnightblue" stroke="midnightblue" points="122.98,-144.6 112.57,-142.65 119.49,-150.67 122.98,-144.6"/>
</g>
</g>
</svg>
