<?xml version="1.0" encoding="UTF-8" standalone="no"?>
<!DOCTYPE svg PUBLIC "-//W3C//DTD SVG 1.1//EN"
 "http://www.w3.org/Graphics/SVG/1.1/DTD/svg11.dtd">
<!-- Generated by graphviz version 2.43.0 (0)
 -->
<!-- Title: OMSimSensitiveDetector.cc Pages: 1 -->
<svg width="2266pt" height="207pt"
 viewBox="0.00 0.00 2265.50 207.00" xmlns="http://www.w3.org/2000/svg" xmlns:xlink="http://www.w3.org/1999/xlink">
<g id="graph0" class="graph" transform="scale(1 1) rotate(0) translate(4 203)">
<title>OMSimSensitiveDetector.cc</title>
<polygon fill="white" stroke="transparent" points="-4,4 -4,-203 2261.5,-203 2261.5,4 -4,4"/>
<!-- Node1 -->
<g id="node1" class="node">
<title>Node1</title>
<g id="a_node1"><a xlink:title=" ">
<polygon fill="#bfbfbf" stroke="black" points="1163,-179.5 1163,-198.5 1315,-198.5 1315,-179.5 1163,-179.5"/>
<text text-anchor="middle" x="1239" y="-186.5" font-family="Helvetica,sans-Serif" font-size="10.00">OMSimSensitiveDetector.cc</text>
</a>
</g>
</g>
<!-- Node2 -->
<g id="node2" class="node">
<title>Node2</title>
<g id="a_node2"><a xlink:href="_o_m_sim_sensitive_detector_8hh.html" target="_top" xlink:title=" ">
<polygon fill="white" stroke="black" points="169.5,-123.5 169.5,-142.5 322.5,-142.5 322.5,-123.5 169.5,-123.5"/>
<text text-anchor="middle" x="246" y="-130.5" font-family="Helvetica,sans-Serif" font-size="10.00">OMSimSensitiveDetector.hh</text>
</a>
</g>
</g>
<!-- Node1&#45;&gt;Node2 -->
<g id="edge1" class="edge">
<title>Node1&#45;&gt;Node2</title>
<path fill="none" stroke="midnightblue" d="M1162.9,-185.46C1007.53,-179.99 642.68,-165.73 337,-143 335.71,-142.9 334.41,-142.8 333.1,-142.7"/>
<polygon fill="midnightblue" stroke="midnightblue" points="333.18,-139.2 322.93,-141.87 332.61,-146.18 333.18,-139.2"/>
</g>
<!-- Node5 -->
<g id="node5" class="node">
<title>Node5</title>
<g id="a_node5"><a xlink:href="_o_m_sim_p_m_t_response_8hh.html" target="_top" xlink:title="Provides simulation for PMT response. This class is responsible for transforming hits on photocathode...">
<polygon fill="white" stroke="black" points="221.5,-67.5 221.5,-86.5 356.5,-86.5 356.5,-67.5 221.5,-67.5"/>
<text text-anchor="middle" x="289" y="-74.5" font-family="Helvetica,sans-Serif" font-size="10.00">OMSimPMTResponse.hh</text>
</a>
</g>
</g>
<!-- Node1&#45;&gt;Node5 -->
<g id="edge23" class="edge">
<title>Node1&#45;&gt;Node5</title>
<path fill="none" stroke="midnightblue" d="M1162.99,-186.73C964.88,-183.05 442.97,-170.8 370,-143 343.03,-132.72 318.11,-109.88 303.23,-94.21"/>
<polygon fill="midnightblue" stroke="midnightblue" points="305.74,-91.77 296.4,-86.77 300.59,-96.5 305.74,-91.77"/>
</g>
<!-- Node12 -->
<g id="node12" class="node">
<title>Node12</title>
<g id="a_node12"><a xlink:title=" ">
<polygon fill="white" stroke="#bfbfbf" points="703.5,-123.5 703.5,-142.5 762.5,-142.5 762.5,-123.5 703.5,-123.5"/>
<text text-anchor="middle" x="733" y="-130.5" font-family="Helvetica,sans-Serif" font-size="10.00">G4ios.hh</text>
</a>
</g>
</g>
<!-- Node1&#45;&gt;Node12 -->
<g id="edge11" class="edge">
<title>Node1&#45;&gt;Node12</title>
<path fill="none" stroke="midnightblue" d="M1162.98,-183.74C1072.41,-177.97 916.4,-165.87 773.03,-142.95"/>
<polygon fill="midnightblue" stroke="midnightblue" points="773.16,-139.43 762.73,-141.28 772.04,-146.34 773.16,-139.43"/>
</g>
<!-- Node13 -->
<g id="node13" class="node">
<title>Node13</title>
<g id="a_node13"><a xlink:title=" ">
<polygon fill="white" stroke="#bfbfbf" points="781,-123.5 781,-142.5 897,-142.5 897,-123.5 781,-123.5"/>
<text text-anchor="middle" x="839" y="-130.5" font-family="Helvetica,sans-Serif" font-size="10.00">G4LogicalVolume.hh</text>
</a>
</g>
</g>
<!-- Node1&#45;&gt;Node13 -->
<g id="edge12" class="edge">
<title>Node1&#45;&gt;Node13</title>
<path fill="none" stroke="midnightblue" d="M1175.62,-179.44C1102.51,-169.57 982.74,-153.4 907.52,-143.25"/>
<polygon fill="midnightblue" stroke="midnightblue" points="907.59,-139.73 897.21,-141.86 906.65,-146.66 907.59,-139.73"/>
</g>
<!-- Node14 -->
<g id="node14" class="node">
<title>Node14</title>
<g id="a_node14"><a xlink:title=" ">
<polygon fill="white" stroke="#bfbfbf" points="915,-123.5 915,-142.5 1043,-142.5 1043,-123.5 915,-123.5"/>
<text text-anchor="middle" x="979" y="-130.5" font-family="Helvetica,sans-Serif" font-size="10.00">G4ParticleDefinition.hh</text>
</a>
</g>
</g>
<!-- Node1&#45;&gt;Node14 -->
<g id="edge13" class="edge">
<title>Node1&#45;&gt;Node14</title>
<path fill="none" stroke="midnightblue" d="M1197.8,-179.44C1152.35,-170 1079.16,-154.8 1030.09,-144.61"/>
<polygon fill="midnightblue" stroke="midnightblue" points="1030.51,-141.12 1020.01,-142.52 1029.08,-147.98 1030.51,-141.12"/>
</g>
<!-- Node15 -->
<g id="node15" class="node">
<title>Node15</title>
<g id="a_node15"><a xlink:title=" ">
<polygon fill="white" stroke="#bfbfbf" points="1061.5,-123.5 1061.5,-142.5 1170.5,-142.5 1170.5,-123.5 1061.5,-123.5"/>
<text text-anchor="middle" x="1116" y="-130.5" font-family="Helvetica,sans-Serif" font-size="10.00">G4ParticleTypes.hh</text>
</a>
</g>
</g>
<!-- Node1&#45;&gt;Node15 -->
<g id="edge14" class="edge">
<title>Node1&#45;&gt;Node15</title>
<path fill="none" stroke="midnightblue" d="M1219.51,-179.44C1199.36,-170.6 1167.68,-156.69 1144.67,-146.59"/>
<polygon fill="midnightblue" stroke="midnightblue" points="1145.96,-143.33 1135.4,-142.52 1143.15,-149.74 1145.96,-143.33"/>
</g>
<!-- Node16 -->
<g id="node16" class="node">
<title>Node16</title>
<g id="a_node16"><a xlink:title=" ">
<polygon fill="white" stroke="#bfbfbf" points="1188.5,-123.5 1188.5,-142.5 1289.5,-142.5 1289.5,-123.5 1188.5,-123.5"/>
<text text-anchor="middle" x="1239" y="-130.5" font-family="Helvetica,sans-Serif" font-size="10.00">G4SDManager.hh</text>
</a>
</g>
</g>
<!-- Node1&#45;&gt;Node16 -->
<g id="edge15" class="edge">
<title>Node1&#45;&gt;Node16</title>
<path fill="none" stroke="midnightblue" d="M1239,-179.08C1239,-172.01 1239,-161.86 1239,-152.99"/>
<polygon fill="midnightblue" stroke="midnightblue" points="1242.5,-152.75 1239,-142.75 1235.5,-152.75 1242.5,-152.75"/>
</g>
<!-- Node17 -->
<g id="node17" class="node">
<title>Node17</title>
<g id="a_node17"><a xlink:title=" ">
<polygon fill="white" stroke="#bfbfbf" points="1307.5,-123.5 1307.5,-142.5 1374.5,-142.5 1374.5,-123.5 1307.5,-123.5"/>
<text text-anchor="middle" x="1341" y="-130.5" font-family="Helvetica,sans-Serif" font-size="10.00">G4Step.hh</text>
</a>
</g>
</g>
<!-- Node1&#45;&gt;Node17 -->
<g id="edge16" class="edge">
<title>Node1&#45;&gt;Node17</title>
<path fill="none" stroke="midnightblue" d="M1255.39,-179.32C1271.67,-170.7 1296.87,-157.36 1315.72,-147.39"/>
<polygon fill="midnightblue" stroke="midnightblue" points="1317.45,-150.43 1324.65,-142.65 1314.18,-144.24 1317.45,-150.43"/>
</g>
<!-- Node18 -->
<g id="node18" class="node">
<title>Node18</title>
<g id="a_node18"><a xlink:title=" ">
<polygon fill="white" stroke="#bfbfbf" points="1393,-123.5 1393,-142.5 1521,-142.5 1521,-123.5 1393,-123.5"/>
<text text-anchor="middle" x="1457" y="-130.5" font-family="Helvetica,sans-Serif" font-size="10.00">G4TouchableHistory.hh</text>
</a>
</g>
</g>
<!-- Node1&#45;&gt;Node18 -->
<g id="edge17" class="edge">
<title>Node1&#45;&gt;Node18</title>
<path fill="none" stroke="midnightblue" d="M1273.54,-179.44C1311.25,-170.1 1371.74,-155.12 1412.86,-144.93"/>
<polygon fill="midnightblue" stroke="midnightblue" points="1413.75,-148.32 1422.62,-142.52 1412.07,-141.52 1413.75,-148.32"/>
</g>
<!-- Node19 -->
<g id="node19" class="node">
<title>Node19</title>
<g id="a_node19"><a xlink:title=" ">
<polygon fill="white" stroke="#bfbfbf" points="1539.5,-123.5 1539.5,-142.5 1610.5,-142.5 1610.5,-123.5 1539.5,-123.5"/>
<text text-anchor="middle" x="1575" y="-130.5" font-family="Helvetica,sans-Serif" font-size="10.00">G4Track.hh</text>
</a>
</g>
</g>
<!-- Node1&#45;&gt;Node19 -->
<g id="edge18" class="edge">
<title>Node1&#45;&gt;Node19</title>
<path fill="none" stroke="midnightblue" d="M1299.32,-179.46C1356.07,-171.25 1443.67,-158.12 1529.28,-143.06"/>
<polygon fill="midnightblue" stroke="midnightblue" points="1529.93,-146.5 1539.17,-141.31 1528.71,-139.61 1529.93,-146.5"/>
</g>
<!-- Node20 -->
<g id="node20" class="node">
<title>Node20</title>
<g id="a_node20"><a xlink:title=" ">
<polygon fill="white" stroke="#bfbfbf" points="1628.5,-123.5 1628.5,-142.5 1757.5,-142.5 1757.5,-123.5 1628.5,-123.5"/>
<text text-anchor="middle" x="1693" y="-130.5" font-family="Helvetica,sans-Serif" font-size="10.00">G4VPhysicalVolume.hh</text>
</a>
</g>
</g>
<!-- Node1&#45;&gt;Node20 -->
<g id="edge19" class="edge">
<title>Node1&#45;&gt;Node20</title>
<path fill="none" stroke="midnightblue" d="M1312.05,-179.48C1386.51,-170.78 1505.64,-156.78 1617.97,-143.24"/>
<polygon fill="midnightblue" stroke="midnightblue" points="1618.61,-146.69 1628.12,-142.02 1617.78,-139.74 1618.61,-146.69"/>
</g>
<!-- Node21 -->
<g id="node21" class="node">
<title>Node21</title>
<g id="a_node21"><a xlink:title=" ">
<polygon fill="white" stroke="#bfbfbf" points="1775.5,-123.5 1775.5,-142.5 1876.5,-142.5 1876.5,-123.5 1775.5,-123.5"/>
<text text-anchor="middle" x="1826" y="-130.5" font-family="Helvetica,sans-Serif" font-size="10.00">G4VTouchable.hh</text>
</a>
</g>
</g>
<!-- Node1&#45;&gt;Node21 -->
<g id="edge20" class="edge">
<title>Node1&#45;&gt;Node21</title>
<path fill="none" stroke="midnightblue" d="M1315.23,-183.1C1415.91,-176.27 1598.97,-162.61 1765.09,-143.16"/>
<polygon fill="midnightblue" stroke="midnightblue" points="1765.98,-146.58 1775.5,-141.93 1765.16,-139.63 1765.98,-146.58"/>
</g>
<!-- Node22 -->
<g id="node22" class="node">
<title>Node22</title>
<g id="a_node22"><a xlink:title=" ">
<polygon fill="white" stroke="#bfbfbf" points="1894.5,-123.5 1894.5,-142.5 2019.5,-142.5 2019.5,-123.5 1894.5,-123.5"/>
<text text-anchor="middle" x="1957" y="-130.5" font-family="Helvetica,sans-Serif" font-size="10.00">OMSimEventAction.hh</text>
</a>
</g>
</g>
<!-- Node1&#45;&gt;Node22 -->
<g id="edge21" class="edge">
<title>Node1&#45;&gt;Node22</title>
<path fill="none" stroke="midnightblue" d="M1315.31,-184.1C1434.55,-177.68 1672.51,-163.64 1884.24,-143.13"/>
<polygon fill="midnightblue" stroke="midnightblue" points="1884.69,-146.6 1894.3,-142.14 1884.01,-139.63 1884.69,-146.6"/>
</g>
<!-- Node23 -->
<g id="node23" class="node">
<title>Node23</title>
<g id="a_node23"><a xlink:title=" ">
<polygon fill="white" stroke="#bfbfbf" points="2037.5,-123.5 2037.5,-142.5 2150.5,-142.5 2150.5,-123.5 2037.5,-123.5"/>
<text text-anchor="middle" x="2094" y="-130.5" font-family="Helvetica,sans-Serif" font-size="10.00">G4OpticalPhoton.hh</text>
</a>
</g>
</g>
<!-- Node1&#45;&gt;Node23 -->
<g id="edge22" class="edge">
<title>Node1&#45;&gt;Node23</title>
<path fill="none" stroke="midnightblue" d="M1315.14,-185.71C1454.43,-181.06 1759.8,-168.81 2027.02,-143.12"/>
<polygon fill="midnightblue" stroke="midnightblue" points="2027.7,-146.57 2037.31,-142.12 2027.02,-139.6 2027.7,-146.57"/>
</g>
<!-- Node24 -->
<g id="node24" class="node">
<title>Node24</title>
<g id="a_node24"><a xlink:href="_o_m_sim_command_args_table_8hh.html" target="_top" xlink:title="Definition of the OMSimCommandArgsTable singleton class, which controls user args.">
<polygon fill="white" stroke="black" points="521,-123.5 521,-142.5 685,-142.5 685,-123.5 521,-123.5"/>
<text text-anchor="middle" x="603" y="-130.5" font-family="Helvetica,sans-Serif" font-size="10.00">OMSimCommandArgsTable.hh</text>
</a>
</g>
</g>
<!-- Node1&#45;&gt;Node24 -->
<g id="edge24" class="edge">
<title>Node1&#45;&gt;Node24</title>
<path fill="none" stroke="midnightblue" d="M1162.84,-182.06C1059.61,-173.93 869.25,-158.65 695.36,-143.02"/>
<polygon fill="midnightblue" stroke="midnightblue" points="695.53,-139.52 685.25,-142.11 694.9,-146.49 695.53,-139.52"/>
</g>
<!-- Node33 -->
<g id="node33" class="node">
<title>Node33</title>
<g id="a_node33"><a xlink:href="_o_m_sim_hit_manager_8hh.html" target="_top" xlink:title="Defines structures and classes related to optical module photon hit management.">
<polygon fill="white" stroke="black" points="379.5,-123.5 379.5,-142.5 502.5,-142.5 502.5,-123.5 379.5,-123.5"/>
<text text-anchor="middle" x="441" y="-130.5" font-family="Helvetica,sans-Serif" font-size="10.00">OMSimHitManager.hh</text>
</a>
</g>
</g>
<!-- Node1&#45;&gt;Node33 -->
<g id="edge33" class="edge">
<title>Node1&#45;&gt;Node33</title>
<path fill="none" stroke="midnightblue" d="M1162.99,-184.91C1032.38,-179.23 756.68,-165.71 512.67,-143"/>
<polygon fill="midnightblue" stroke="midnightblue" points="512.83,-139.5 502.55,-142.05 512.18,-146.47 512.83,-139.5"/>
</g>
<!-- Node34 -->
<g id="node34" class="node">
<title>Node34</title>
<g id="a_node34"><a xlink:title=" ">
<polygon fill="white" stroke="#bfbfbf" points="2168.5,-123.5 2168.5,-142.5 2257.5,-142.5 2257.5,-123.5 2168.5,-123.5"/>
<text text-anchor="middle" x="2213" y="-130.5" font-family="Helvetica,sans-Serif" font-size="10.00">G4VProcess.hh</text>
</a>
</g>
</g>
<!-- Node1&#45;&gt;Node34 -->
<g id="edge37" class="edge">
<title>Node1&#45;&gt;Node34</title>
<path fill="none" stroke="midnightblue" d="M1315.05,-187.35C1471.26,-185.35 1839.65,-177.2 2157.88,-143.11"/>
<polygon fill="midnightblue" stroke="midnightblue" points="2158.67,-146.54 2168.23,-141.99 2157.91,-139.58 2158.67,-146.54"/>
</g>
<!-- Node3 -->
<g id="node3" class="node">
<title>Node3</title>
<g id="a_node3"><a xlink:title=" ">
<polygon fill="white" stroke="#bfbfbf" points="0,-67.5 0,-86.5 138,-86.5 138,-67.5 0,-67.5"/>
<text text-anchor="middle" x="69" y="-74.5" font-family="Helvetica,sans-Serif" font-size="10.00">G4VSensitiveDetector.hh</text>
</a>
</g>
</g>
<!-- Node2&#45;&gt;Node3 -->
<g id="edge2" class="edge">
<title>Node2&#45;&gt;Node3</title>
<path fill="none" stroke="midnightblue" d="M217.95,-123.44C187.92,-114.28 140.09,-99.69 106.76,-89.52"/>
<polygon fill="midnightblue" stroke="midnightblue" points="107.5,-86.09 96.91,-86.52 105.46,-92.78 107.5,-86.09"/>
</g>
<!-- Node4 -->
<g id="node4" class="node">
<title>Node4</title>
<g id="a_node4"><a xlink:title=" ">
<polygon fill="white" stroke="#bfbfbf" points="374.5,-67.5 374.5,-86.5 477.5,-86.5 477.5,-67.5 374.5,-67.5"/>
<text text-anchor="middle" x="426" y="-74.5" font-family="Helvetica,sans-Serif" font-size="10.00">G4ThreeVector.hh</text>
</a>
</g>
</g>
<!-- Node2&#45;&gt;Node4 -->
<g id="edge3" class="edge">
<title>Node2&#45;&gt;Node4</title>
<path fill="none" stroke="midnightblue" d="M274.52,-123.44C305.07,-114.28 353.71,-99.69 387.6,-89.52"/>
<polygon fill="midnightblue" stroke="midnightblue" points="389.04,-92.74 397.61,-86.52 387.03,-86.04 389.04,-92.74"/>
</g>
<!-- Node2&#45;&gt;Node5 -->
<g id="edge4" class="edge">
<title>Node2&#45;&gt;Node5</title>
<path fill="none" stroke="midnightblue" d="M253.1,-123.08C259.24,-115.38 268.27,-104.03 275.74,-94.65"/>
<polygon fill="midnightblue" stroke="midnightblue" points="278.54,-96.75 282.03,-86.75 273.06,-92.39 278.54,-96.75"/>
</g>
<!-- Node11 -->
<g id="node11" class="node">
<title>Node11</title>
<g id="a_node11"><a xlink:title=" ">
<polygon fill="white" stroke="#bfbfbf" points="156.5,-67.5 156.5,-86.5 203.5,-86.5 203.5,-67.5 156.5,-67.5"/>
<text text-anchor="middle" x="180" y="-74.5" font-family="Helvetica,sans-Serif" font-size="10.00">vector</text>
</a>
</g>
</g>
<!-- Node2&#45;&gt;Node11 -->
<g id="edge10" class="edge">
<title>Node2&#45;&gt;Node11</title>
<path fill="none" stroke="midnightblue" d="M235.4,-123.32C225.54,-115.26 210.65,-103.08 198.78,-93.37"/>
<polygon fill="midnightblue" stroke="midnightblue" points="200.75,-90.46 190.8,-86.83 196.32,-95.88 200.75,-90.46"/>
</g>
<!-- Node6 -->
<g id="node6" class="node">
<title>Node6</title>
<g id="a_node6"><a xlink:title=" ">
<polygon fill="white" stroke="#bfbfbf" points="229.5,-6 229.5,-25 348.5,-25 348.5,-6 229.5,-6"/>
<text text-anchor="middle" x="289" y="-13" font-family="Helvetica,sans-Serif" font-size="10.00">G4SystemOfUnits.hh</text>
</a>
</g>
</g>
<!-- Node5&#45;&gt;Node6 -->
<g id="edge5" class="edge">
<title>Node5&#45;&gt;Node6</title>
<path fill="none" stroke="midnightblue" d="M289,-67.48C289,-59.08 289,-45.98 289,-35.16"/>
<polygon fill="midnightblue" stroke="midnightblue" points="292.5,-35.01 289,-25.01 285.5,-35.01 292.5,-35.01"/>
</g>
<!-- Node7 -->
<g id="node7" class="node">
<title>Node7</title>
<g id="a_node7"><a xlink:title=" ">
<polygon fill="white" stroke="#bfbfbf" points="366.5,-6 366.5,-25 439.5,-25 439.5,-6 366.5,-6"/>
<text text-anchor="middle" x="403" y="-13" font-family="Helvetica,sans-Serif" font-size="10.00">G4Types.hh</text>
</a>
</g>
</g>
<!-- Node5&#45;&gt;Node7 -->
<g id="edge6" class="edge">
<title>Node5&#45;&gt;Node7</title>
<path fill="none" stroke="midnightblue" d="M305.33,-67.48C324.21,-57.62 355.51,-41.29 377.58,-29.77"/>
<polygon fill="midnightblue" stroke="midnightblue" points="379.45,-32.74 386.7,-25.01 376.21,-26.53 379.45,-32.74"/>
</g>
<!-- Node8 -->
<g id="node8" class="node">
<title>Node8</title>
<g id="a_node8"><a xlink:title=" ">
<polygon fill="white" stroke="#bfbfbf" points="23,-6 23,-25 61,-25 61,-6 23,-6"/>
<text text-anchor="middle" x="42" y="-13" font-family="Helvetica,sans-Serif" font-size="10.00">map</text>
</a>
</g>
</g>
<!-- Node5&#45;&gt;Node8 -->
<g id="edge7" class="edge">
<title>Node5&#45;&gt;Node8</title>
<path fill="none" stroke="midnightblue" d="M224.01,-67.45C179.76,-60.47 120.31,-48.81 70,-31 68.75,-30.56 67.49,-30.07 66.23,-29.55"/>
<polygon fill="midnightblue" stroke="midnightblue" points="67.31,-26.19 56.77,-25.11 64.34,-32.53 67.31,-26.19"/>
</g>
<!-- Node9 -->
<g id="node9" class="node">
<title>Node9</title>
<g id="a_node9"><a xlink:title=" ">
<polygon fill="white" stroke="#bfbfbf" points="79.5,-6 79.5,-25 140.5,-25 140.5,-6 79.5,-6"/>
<text text-anchor="middle" x="110" y="-13" font-family="Helvetica,sans-Serif" font-size="10.00">TGraph.h</text>
</a>
</g>
</g>
<!-- Node5&#45;&gt;Node9 -->
<g id="edge8" class="edge">
<title>Node5&#45;&gt;Node9</title>
<path fill="none" stroke="midnightblue" d="M261.25,-67.48C232.92,-58.7 187.72,-44.41 149,-31 146.75,-30.22 144.44,-29.4 142.12,-28.57"/>
<polygon fill="midnightblue" stroke="midnightblue" points="143.22,-25.25 132.62,-25.11 140.82,-31.82 143.22,-25.25"/>
</g>
<!-- Node10 -->
<g id="node10" class="node">
<title>Node10</title>
<g id="a_node10"><a xlink:title=" ">
<polygon fill="white" stroke="#bfbfbf" points="158.5,-6 158.5,-25 211.5,-25 211.5,-6 158.5,-6"/>
<text text-anchor="middle" x="185" y="-13" font-family="Helvetica,sans-Serif" font-size="10.00">TH2D.h</text>
</a>
</g>
</g>
<!-- Node5&#45;&gt;Node10 -->
<g id="edge9" class="edge">
<title>Node5&#45;&gt;Node10</title>
<path fill="none" stroke="midnightblue" d="M274.1,-67.48C257.03,-57.71 228.84,-41.58 208.74,-30.08"/>
<polygon fill="midnightblue" stroke="midnightblue" points="210.29,-26.94 199.87,-25.01 206.81,-33.01 210.29,-26.94"/>
</g>
<!-- Node25 -->
<g id="node25" class="node">
<title>Node25</title>
<g id="a_node25"><a xlink:href="_o_m_sim_logger_8hh.html" target="_top" xlink:title=" ">
<polygon fill="white" stroke="black" points="568.5,-67.5 568.5,-86.5 667.5,-86.5 667.5,-67.5 568.5,-67.5"/>
<text text-anchor="middle" x="618" y="-74.5" font-family="Helvetica,sans-Serif" font-size="10.00">OMSimLogger.hh</text>
</a>
</g>
</g>
<!-- Node24&#45;&gt;Node25 -->
<g id="edge25" class="edge">
<title>Node24&#45;&gt;Node25</title>
<path fill="none" stroke="midnightblue" d="M605.48,-123.08C607.49,-115.85 610.39,-105.41 612.89,-96.4"/>
<polygon fill="midnightblue" stroke="midnightblue" points="616.26,-97.32 615.57,-86.75 609.52,-95.45 616.26,-97.32"/>
</g>
<!-- Node30 -->
<g id="node30" class="node">
<title>Node30</title>
<g id="a_node30"><a xlink:title=" ">
<polygon fill="white" stroke="#bfbfbf" points="495.5,-67.5 495.5,-86.5 550.5,-86.5 550.5,-67.5 495.5,-67.5"/>
<text text-anchor="middle" x="523" y="-74.5" font-family="Helvetica,sans-Serif" font-size="10.00">fstream</text>
</a>
</g>
</g>
<!-- Node24&#45;&gt;Node30 -->
<g id="edge30" class="edge">
<title>Node24&#45;&gt;Node30</title>
<path fill="none" stroke="midnightblue" d="M590.15,-123.32C577.78,-114.98 558.87,-102.21 544.26,-92.35"/>
<polygon fill="midnightblue" stroke="midnightblue" points="546.07,-89.35 535.82,-86.65 542.15,-95.15 546.07,-89.35"/>
</g>
<!-- Node31 -->
<g id="node31" class="node">
<title>Node31</title>
<g id="a_node31"><a xlink:title=" ">
<polygon fill="white" stroke="#bfbfbf" points="686,-67.5 686,-86.5 770,-86.5 770,-67.5 686,-67.5"/>
<text text-anchor="middle" x="728" y="-74.5" font-family="Helvetica,sans-Serif" font-size="10.00">boost/any.hpp</text>
</a>
</g>
</g>
<!-- Node24&#45;&gt;Node31 -->
<g id="edge31" class="edge">
<title>Node24&#45;&gt;Node31</title>
<path fill="none" stroke="midnightblue" d="M622.81,-123.44C643.29,-114.6 675.48,-100.69 698.86,-90.59"/>
<polygon fill="midnightblue" stroke="midnightblue" points="700.49,-93.7 708.29,-86.52 697.72,-87.27 700.49,-93.7"/>
</g>
<!-- Node32 -->
<g id="node32" class="node">
<title>Node32</title>
<g id="a_node32"><a xlink:title=" ">
<polygon fill="white" stroke="#bfbfbf" points="788,-67.5 788,-86.5 856,-86.5 856,-67.5 788,-67.5"/>
<text text-anchor="middle" x="822" y="-74.5" font-family="Helvetica,sans-Serif" font-size="10.00">sys/time.h</text>
</a>
</g>
</g>
<!-- Node24&#45;&gt;Node32 -->
<g id="edge32" class="edge">
<title>Node24&#45;&gt;Node32</title>
<path fill="none" stroke="midnightblue" d="M637.7,-123.44C675.7,-114.07 736.71,-99.03 778.03,-88.84"/>
<polygon fill="midnightblue" stroke="midnightblue" points="778.95,-92.22 787.82,-86.43 777.27,-85.42 778.95,-92.22"/>
</g>
<!-- Node26 -->
<g id="node26" class="node">
<title>Node26</title>
<g id="a_node26"><a xlink:title=" ">
<polygon fill="white" stroke="#bfbfbf" points="574.5,-6 574.5,-25 667.5,-25 667.5,-6 574.5,-6"/>
<text text-anchor="middle" x="621" y="-13" font-family="Helvetica,sans-Serif" font-size="10.00">spdlog/spdlog.h</text>
</a>
</g>
</g>
<!-- Node25&#45;&gt;Node26 -->
<g id="edge26" class="edge">
<title>Node25&#45;&gt;Node26</title>
<path fill="none" stroke="midnightblue" d="M618.43,-67.48C618.85,-59.08 619.51,-45.98 620.06,-35.16"/>
<polygon fill="midnightblue" stroke="midnightblue" points="623.56,-35.17 620.57,-25.01 616.57,-34.82 623.56,-35.17"/>
</g>
<!-- Node27 -->
<g id="node27" class="node">
<title>Node27</title>
<g id="a_node27"><a xlink:title=" ">
<polygon fill="white" stroke="#bfbfbf" points="685.5,-0.5 685.5,-30.5 796.5,-30.5 796.5,-0.5 685.5,-0.5"/>
<text text-anchor="start" x="693.5" y="-18.5" font-family="Helvetica,sans-Serif" font-size="10.00">spdlog/sinks/stdout</text>
<text text-anchor="middle" x="741" y="-7.5" font-family="Helvetica,sans-Serif" font-size="10.00">_color_sinks.h</text>
</a>
</g>
</g>
<!-- Node25&#45;&gt;Node27 -->
<g id="edge27" class="edge">
<title>Node25&#45;&gt;Node27</title>
<path fill="none" stroke="midnightblue" d="M635.62,-67.48C653.06,-59.04 680.32,-45.86 702.74,-35.01"/>
<polygon fill="midnightblue" stroke="midnightblue" points="704.53,-38.03 712.01,-30.52 701.49,-31.73 704.53,-38.03"/>
</g>
<!-- Node28 -->
<g id="node28" class="node">
<title>Node28</title>
<g id="a_node28"><a xlink:title=" ">
<polygon fill="white" stroke="#bfbfbf" points="815,-6 815,-25 873,-25 873,-6 815,-6"/>
<text text-anchor="middle" x="844" y="-13" font-family="Helvetica,sans-Serif" font-size="10.00">memory</text>
</a>
</g>
</g>
<!-- Node25&#45;&gt;Node28 -->
<g id="edge28" class="edge">
<title>Node25&#45;&gt;Node28</title>
<path fill="none" stroke="midnightblue" d="M660.61,-67.45C698.99,-59.36 756.78,-46.21 806,-31 808.42,-30.25 810.91,-29.43 813.4,-28.57"/>
<polygon fill="midnightblue" stroke="midnightblue" points="814.67,-31.83 822.87,-25.12 812.27,-25.25 814.67,-31.83"/>
</g>
<!-- Node29 -->
<g id="node29" class="node">
<title>Node29</title>
<g id="a_node29"><a xlink:title=" ">
<polygon fill="white" stroke="#bfbfbf" points="458,-6 458,-25 556,-25 556,-6 458,-6"/>
<text text-anchor="middle" x="507" y="-13" font-family="Helvetica,sans-Serif" font-size="10.00">spdlog/fmt/fmt.h</text>
</a>
</g>
</g>
<!-- Node25&#45;&gt;Node29 -->
<g id="edge29" class="edge">
<title>Node25&#45;&gt;Node29</title>
<path fill="none" stroke="midnightblue" d="M602.1,-67.48C583.72,-57.62 553.24,-41.29 531.76,-29.77"/>
<polygon fill="midnightblue" stroke="midnightblue" points="533.34,-26.65 522.87,-25.01 530.03,-32.82 533.34,-26.65"/>
</g>
<!-- Node33&#45;&gt;Node4 -->
<g id="edge35" class="edge">
<title>Node33&#45;&gt;Node4</title>
<path fill="none" stroke="midnightblue" d="M438.52,-123.08C436.51,-115.85 433.61,-105.41 431.11,-96.4"/>
<polygon fill="midnightblue" stroke="midnightblue" points="434.48,-95.45 428.43,-86.75 427.74,-97.32 434.48,-95.45"/>
</g>
<!-- Node33&#45;&gt;Node5 -->
<g id="edge34" class="edge">
<title>Node33&#45;&gt;Node5</title>
<path fill="none" stroke="midnightblue" d="M416.92,-123.44C391.46,-114.4 351.11,-100.06 322.54,-89.92"/>
<polygon fill="midnightblue" stroke="midnightblue" points="323.57,-86.57 312.97,-86.52 321.22,-93.16 323.57,-86.57"/>
</g>
<!-- Node33&#45;&gt;Node30 -->
<g id="edge36" class="edge">
<title>Node33&#45;&gt;Node30</title>
<path fill="none" stroke="midnightblue" d="M454.17,-123.32C466.85,-114.98 486.23,-102.21 501.21,-92.35"/>
<polygon fill="midnightblue" stroke="midnightblue" points="503.43,-95.08 509.86,-86.65 499.58,-89.23 503.43,-95.08"/>
</g>
</g>
</svg>
