<?xml version="1.0" encoding="UTF-8" standalone="no"?>
<!DOCTYPE svg PUBLIC "-//W3C//DTD SVG 1.1//EN"
 "http://www.w3.org/Graphics/SVG/1.1/DTD/svg11.dtd">
<!-- Generated by graphviz version 2.43.0 (0)
 -->
<!-- Title: OMSim_QE_calibration.cc Pages: 1 -->
<svg width="2225pt" height="487pt"
 viewBox="0.00 0.00 2224.50 487.00" xmlns="http://www.w3.org/2000/svg" xmlns:xlink="http://www.w3.org/1999/xlink">
<g id="graph0" class="graph" transform="scale(1 1) rotate(0) translate(4 483)">
<title>OMSim_QE_calibration.cc</title>
<!-- Node1 -->
<g id="node1" class="node">
<title>Node1</title>
<g id="a_node1"><a xlink:title="Main for the calculation of effective areas.">
<polygon fill="#bfbfbf" stroke="black" points="1756,-459.5 1756,-478.5 1897,-478.5 1897,-459.5 1756,-459.5"/>
<text text-anchor="middle" x="1826.5" y="-466.5" font-family="Helvetica,sans-Serif" font-size="10.00">OMSim_QE_calibration.cc</text>
</a>
</g>
</g>
<!-- Node2 -->
<g id="node2" class="node">
<title>Node2</title>
<g id="a_node2"><a xlink:href="_o_m_sim_8hh.html" target="_top" xlink:title="Main simulation class for the Optical Module (OM) simulation. This file defines the OMSim class,...">
<polygon fill="none" stroke="black" points="1356,-403.5 1356,-422.5 1423,-422.5 1423,-403.5 1356,-403.5"/>
<text text-anchor="middle" x="1389.5" y="-410.5" font-family="Helvetica,sans-Serif" font-size="10.00">OMSim.hh</text>
</a>
</g>
</g>
<!-- Node1&#45;&gt;Node2 -->
<g id="edge1" class="edge">
<title>Node1&#45;&gt;Node2</title>
<path fill="none" stroke="midnightblue" d="M1757.26,-459.44C1666.35,-448.21 1509.41,-428.82 1433.35,-419.42"/>
<polygon fill="midnightblue" stroke="midnightblue" points="1433.53,-415.91 1423.17,-418.16 1432.67,-422.86 1433.53,-415.91"/>
</g>
<!-- Node60 -->
<g id="node46" class="node">
<title>Node60</title>
<g id="a_node46"><a xlink:href="_o_m_sim_beam_8hh_source.html" target="_top" xlink:title=" ">
<polygon fill="none" stroke="black" points="1625,-403.5 1625,-422.5 1720,-422.5 1720,-403.5 1625,-403.5"/>
<text text-anchor="middle" x="1672.5" y="-410.5" font-family="Helvetica,sans-Serif" font-size="10.00">OMSimBeam.hh</text>
</a>
</g>
</g>
<!-- Node1&#45;&gt;Node60 -->
<g id="edge52" class="edge">
<title>Node1&#45;&gt;Node60</title>
<path fill="none" stroke="midnightblue" d="M1802.1,-459.44C1776.3,-450.4 1735.42,-436.06 1706.48,-425.92"/>
<polygon fill="midnightblue" stroke="midnightblue" points="1707.38,-422.52 1696.79,-422.52 1705.07,-429.13 1707.38,-422.52"/>
</g>
<!-- Node62 -->
<g id="node48" class="node">
<title>Node62</title>
<g id="a_node48"><a xlink:title=" ">
<polygon fill="none" stroke="#bfbfbf" points="1738.5,-403.5 1738.5,-422.5 1914.5,-422.5 1914.5,-403.5 1738.5,-403.5"/>
<text text-anchor="middle" x="1826.5" y="-410.5" font-family="Helvetica,sans-Serif" font-size="10.00">OMSimEffectiveAreaAnalyisis.hh</text>
</a>
</g>
</g>
<!-- Node1&#45;&gt;Node62 -->
<g id="edge54" class="edge">
<title>Node1&#45;&gt;Node62</title>
<path fill="none" stroke="midnightblue" d="M1826.5,-459.08C1826.5,-452.01 1826.5,-441.86 1826.5,-432.99"/>
<polygon fill="midnightblue" stroke="midnightblue" points="1830,-432.75 1826.5,-422.75 1823,-432.75 1830,-432.75"/>
</g>
<!-- Node63 -->
<g id="node49" class="node">
<title>Node63</title>
<g id="a_node49"><a xlink:title=" ">
<polygon fill="none" stroke="#bfbfbf" points="1933,-403.5 1933,-422.5 2106,-422.5 2106,-403.5 1933,-403.5"/>
<text text-anchor="middle" x="2019.5" y="-410.5" font-family="Helvetica,sans-Serif" font-size="10.00">OMSimEffectiveAreaDetector.hh</text>
</a>
</g>
</g>
<!-- Node1&#45;&gt;Node63 -->
<g id="edge55" class="edge">
<title>Node1&#45;&gt;Node63</title>
<path fill="none" stroke="midnightblue" d="M1857.08,-459.44C1890.11,-450.2 1942.89,-435.44 1979.27,-425.26"/>
<polygon fill="midnightblue" stroke="midnightblue" points="1980.37,-428.58 1989.06,-422.52 1978.49,-421.84 1980.37,-428.58"/>
</g>
<!-- Node64 -->
<g id="node50" class="node">
<title>Node64</title>
<g id="a_node50"><a xlink:href="_o_m_sim_tools_8hh.html" target="_top" xlink:title=" ">
<polygon fill="none" stroke="black" points="2124.5,-403.5 2124.5,-422.5 2216.5,-422.5 2216.5,-403.5 2124.5,-403.5"/>
<text text-anchor="middle" x="2170.5" y="-410.5" font-family="Helvetica,sans-Serif" font-size="10.00">OMSimTools.hh</text>
</a>
</g>
</g>
<!-- Node1&#45;&gt;Node64 -->
<g id="edge56" class="edge">
<title>Node1&#45;&gt;Node64</title>
<path fill="none" stroke="midnightblue" d="M1882.19,-459.46C1938.25,-450.83 2027.47,-437.02 2114.27,-423.19"/>
<polygon fill="midnightblue" stroke="midnightblue" points="2114.97,-426.62 2124.29,-421.59 2113.86,-419.71 2114.97,-426.62"/>
</g>
<!-- Node3 -->
<g id="node3" class="node">
<title>Node3</title>
<g id="a_node3"><a xlink:href="_o_m_sim_detector_construction_8hh_source.html" target="_top" xlink:title=" ">
<polygon fill="none" stroke="black" points="402.5,-347.5 402.5,-366.5 572.5,-366.5 572.5,-347.5 402.5,-347.5"/>
<text text-anchor="middle" x="487.5" y="-354.5" font-family="Helvetica,sans-Serif" font-size="10.00">OMSimDetectorConstruction.hh</text>
</a>
</g>
</g>
<!-- Node2&#45;&gt;Node3 -->
<g id="edge2" class="edge">
<title>Node2&#45;&gt;Node3</title>
<path fill="none" stroke="midnightblue" d="M1355.99,-410.61C1246.53,-405.98 889.44,-390.07 582.52,-367.05"/>
<polygon fill="midnightblue" stroke="midnightblue" points="582.78,-363.56 572.54,-366.3 582.25,-370.54 582.78,-363.56"/>
</g>
<!-- Node39 -->
<g id="node25" class="node">
<title>Node39</title>
<g id="a_node25"><a xlink:title=" ">
<polygon fill="none" stroke="#bfbfbf" points="591,-347.5 591,-366.5 712,-366.5 712,-347.5 591,-347.5"/>
<text text-anchor="middle" x="651.5" y="-354.5" font-family="Helvetica,sans-Serif" font-size="10.00">OMSimPhysicsList.hh</text>
</a>
</g>
</g>
<!-- Node2&#45;&gt;Node39 -->
<g id="edge27" class="edge">
<title>Node2&#45;&gt;Node39</title>
<path fill="none" stroke="midnightblue" d="M1355.68,-410.47C1258.7,-405.94 971.2,-391.39 722.02,-367.1"/>
<polygon fill="midnightblue" stroke="midnightblue" points="722.35,-363.61 712.06,-366.12 721.67,-370.58 722.35,-363.61"/>
</g>
<!-- Node40 -->
<g id="node26" class="node">
<title>Node40</title>
<g id="a_node26"><a xlink:title=" ">
<polygon fill="none" stroke="#bfbfbf" points="730,-347.5 730,-366.5 915,-366.5 915,-347.5 730,-347.5"/>
<text text-anchor="middle" x="822.5" y="-354.5" font-family="Helvetica,sans-Serif" font-size="10.00">OMSimPrimaryGeneratorAction.hh</text>
</a>
</g>
</g>
<!-- Node2&#45;&gt;Node40 -->
<g id="edge28" class="edge">
<title>Node2&#45;&gt;Node40</title>
<path fill="none" stroke="midnightblue" d="M1355.73,-408.78C1271.93,-400.8 1051.9,-379.85 922.16,-367.49"/>
<polygon fill="midnightblue" stroke="midnightblue" points="922.11,-363.97 911.82,-366.51 921.45,-370.94 922.11,-363.97"/>
</g>
<!-- Node41 -->
<g id="node27" class="node">
<title>Node41</title>
<g id="a_node27"><a xlink:href="_o_m_sim_run_action_8hh_source.html" target="_top" xlink:title=" ">
<polygon fill="none" stroke="black" points="911.5,-291.5 911.5,-310.5 1027.5,-310.5 1027.5,-291.5 911.5,-291.5"/>
<text text-anchor="middle" x="969.5" y="-298.5" font-family="Helvetica,sans-Serif" font-size="10.00">OMSimRunAction.hh</text>
</a>
</g>
</g>
<!-- Node2&#45;&gt;Node41 -->
<g id="edge29" class="edge">
<title>Node2&#45;&gt;Node41</title>
<path fill="none" stroke="midnightblue" d="M1355.9,-411C1259.58,-407.78 987.78,-396.19 961.5,-367 950.24,-354.49 954.68,-334.71 960.43,-320.25"/>
<polygon fill="midnightblue" stroke="midnightblue" points="963.74,-321.4 964.64,-310.84 957.36,-318.54 963.74,-321.4"/>
</g>
<!-- Node45 -->
<g id="node31" class="node">
<title>Node45</title>
<g id="a_node31"><a xlink:title=" ">
<polygon fill="none" stroke="#bfbfbf" points="971,-347.5 971,-366.5 1096,-366.5 1096,-347.5 971,-347.5"/>
<text text-anchor="middle" x="1033.5" y="-354.5" font-family="Helvetica,sans-Serif" font-size="10.00">OMSimEventAction.hh</text>
</a>
</g>
</g>
<!-- Node2&#45;&gt;Node45 -->
<g id="edge35" class="edge">
<title>Node2&#45;&gt;Node45</title>
<path fill="none" stroke="midnightblue" d="M1355.69,-406.87C1297.05,-397.98 1175.52,-379.54 1099.63,-368.03"/>
<polygon fill="midnightblue" stroke="midnightblue" points="1100.1,-364.56 1089.69,-366.52 1099.05,-371.48 1100.1,-364.56"/>
</g>
<!-- Node46 -->
<g id="node32" class="node">
<title>Node46</title>
<g id="a_node32"><a xlink:href="_o_m_sim_tracking_action_8hh_source.html" target="_top" xlink:title=" ">
<polygon fill="none" stroke="black" points="1114.5,-347.5 1114.5,-366.5 1252.5,-366.5 1252.5,-347.5 1114.5,-347.5"/>
<text text-anchor="middle" x="1183.5" y="-354.5" font-family="Helvetica,sans-Serif" font-size="10.00">OMSimTrackingAction.hh</text>
</a>
</g>
</g>
<!-- Node2&#45;&gt;Node46 -->
<g id="edge36" class="edge">
<title>Node2&#45;&gt;Node46</title>
<path fill="none" stroke="midnightblue" d="M1356.86,-403.44C1321.45,-394.16 1264.79,-379.31 1225.95,-369.13"/>
<polygon fill="midnightblue" stroke="midnightblue" points="1226.55,-365.67 1215.99,-366.52 1224.77,-372.44 1226.55,-365.67"/>
</g>
<!-- Node48 -->
<g id="node34" class="node">
<title>Node48</title>
<g id="a_node34"><a xlink:href="_o_m_sim_stepping_action_8hh.html" target="_top" xlink:title="Defines OMSimSteppingAction.Currently it only checks for trapped photons.">
<polygon fill="none" stroke="black" points="1270.5,-347.5 1270.5,-366.5 1410.5,-366.5 1410.5,-347.5 1270.5,-347.5"/>
<text text-anchor="middle" x="1340.5" y="-354.5" font-family="Helvetica,sans-Serif" font-size="10.00">OMSimSteppingAction.hh</text>
</a>
</g>
</g>
<!-- Node2&#45;&gt;Node48 -->
<g id="edge38" class="edge">
<title>Node2&#45;&gt;Node48</title>
<path fill="none" stroke="midnightblue" d="M1381.41,-403.08C1374.34,-395.3 1363.91,-383.8 1355.35,-374.37"/>
<polygon fill="midnightblue" stroke="midnightblue" points="1357.75,-371.8 1348.44,-366.75 1352.57,-376.51 1357.75,-371.8"/>
</g>
<!-- Node50 -->
<g id="node36" class="node">
<title>Node50</title>
<g id="a_node36"><a xlink:href="_o_m_sim_u_iinterface_8hh.html" target="_top" xlink:title=" ">
<polygon fill="none" stroke="black" points="1429,-291.5 1429,-310.5 1550,-310.5 1550,-291.5 1429,-291.5"/>
<text text-anchor="middle" x="1489.5" y="-298.5" font-family="Helvetica,sans-Serif" font-size="10.00">OMSimUIinterface.hh</text>
</a>
</g>
</g>
<!-- Node2&#45;&gt;Node50 -->
<g id="edge40" class="edge">
<title>Node2&#45;&gt;Node50</title>
<path fill="none" stroke="midnightblue" d="M1397.35,-403.37C1414.07,-384.97 1453.44,-341.67 1474.91,-318.05"/>
<polygon fill="midnightblue" stroke="midnightblue" points="1477.55,-320.35 1481.69,-310.59 1472.37,-315.64 1477.55,-320.35"/>
</g>
<!-- Node55 -->
<g id="node41" class="node">
<title>Node55</title>
<g id="a_node41"><a xlink:title=" ">
<polygon fill="none" stroke="#bfbfbf" points="1467,-347.5 1467,-366.5 1588,-366.5 1588,-347.5 1467,-347.5"/>
<text text-anchor="middle" x="1527.5" y="-354.5" font-family="Helvetica,sans-Serif" font-size="10.00">G4MTRunManager.hh</text>
</a>
</g>
</g>
<!-- Node2&#45;&gt;Node55 -->
<g id="edge47" class="edge">
<title>Node2&#45;&gt;Node55</title>
<path fill="none" stroke="midnightblue" d="M1411.37,-403.44C1434.28,-394.48 1470.48,-380.31 1496.37,-370.18"/>
<polygon fill="midnightblue" stroke="midnightblue" points="1497.7,-373.42 1505.74,-366.52 1495.15,-366.9 1497.7,-373.42"/>
</g>
<!-- Node56 -->
<g id="node42" class="node">
<title>Node56</title>
<g id="a_node42"><a xlink:title=" ">
<polygon fill="none" stroke="#bfbfbf" points="1606,-347.5 1606,-366.5 1713,-366.5 1713,-347.5 1606,-347.5"/>
<text text-anchor="middle" x="1659.5" y="-354.5" font-family="Helvetica,sans-Serif" font-size="10.00">G4VisExecutive.hh</text>
</a>
</g>
</g>
<!-- Node2&#45;&gt;Node56 -->
<g id="edge48" class="edge">
<title>Node2&#45;&gt;Node56</title>
<path fill="none" stroke="midnightblue" d="M1423.15,-405.27C1469.23,-396.05 1552.45,-379.41 1606.83,-368.53"/>
<polygon fill="midnightblue" stroke="midnightblue" points="1607.85,-371.9 1616.97,-366.51 1606.47,-365.04 1607.85,-371.9"/>
</g>
<!-- Node57 -->
<g id="node43" class="node">
<title>Node57</title>
<g id="a_node43"><a xlink:title=" ">
<polygon fill="none" stroke="#bfbfbf" points="1731,-347.5 1731,-366.5 1834,-366.5 1834,-347.5 1731,-347.5"/>
<text text-anchor="middle" x="1782.5" y="-354.5" font-family="Helvetica,sans-Serif" font-size="10.00">G4UIExecutive.hh</text>
</a>
</g>
</g>
<!-- Node2&#45;&gt;Node57 -->
<g id="edge49" class="edge">
<title>Node2&#45;&gt;Node57</title>
<path fill="none" stroke="midnightblue" d="M1423.08,-407.63C1481.47,-399.99 1605.76,-383.57 1720.77,-367.23"/>
<polygon fill="midnightblue" stroke="midnightblue" points="1721.39,-370.68 1730.8,-365.8 1720.4,-363.75 1721.39,-370.68"/>
</g>
<!-- Node58 -->
<g id="node44" class="node">
<title>Node58</title>
<g id="a_node44"><a xlink:title=" ">
<polygon fill="none" stroke="#bfbfbf" points="1852.5,-347.5 1852.5,-366.5 1920.5,-366.5 1920.5,-347.5 1852.5,-347.5"/>
<text text-anchor="middle" x="1886.5" y="-354.5" font-family="Helvetica,sans-Serif" font-size="10.00">filesystem</text>
</a>
</g>
</g>
<!-- Node2&#45;&gt;Node58 -->
<g id="edge50" class="edge">
<title>Node2&#45;&gt;Node58</title>
<path fill="none" stroke="midnightblue" d="M1423.26,-409.9C1497.3,-405.03 1679.64,-391.58 1842.11,-367.06"/>
<polygon fill="midnightblue" stroke="midnightblue" points="1842.94,-370.48 1852.29,-365.51 1841.88,-363.56 1842.94,-370.48"/>
</g>
<!-- Node59 -->
<g id="node45" class="node">
<title>Node59</title>
<g id="a_node45"><a xlink:title=" ">
<polygon fill="none" stroke="#bfbfbf" points="1938.5,-347.5 1938.5,-366.5 2088.5,-366.5 2088.5,-347.5 1938.5,-347.5"/>
<text text-anchor="middle" x="2013.5" y="-354.5" font-family="Helvetica,sans-Serif" font-size="10.00">boost/program_options.hpp</text>
</a>
</g>
</g>
<!-- Node2&#45;&gt;Node59 -->
<g id="edge51" class="edge">
<title>Node2&#45;&gt;Node59</title>
<path fill="none" stroke="midnightblue" d="M1423.02,-409.48C1506.45,-403.16 1730.38,-385.83 1928.4,-367.09"/>
<polygon fill="midnightblue" stroke="midnightblue" points="1928.78,-370.56 1938.4,-366.13 1928.12,-363.6 1928.78,-370.56"/>
</g>
<!-- Node4 -->
<g id="node4" class="node">
<title>Node4</title>
<g id="a_node4"><a xlink:href="_o_m_sim_optical_module_8hh_source.html" target="_top" xlink:title=" ">
<polygon fill="none" stroke="black" points="301,-291.5 301,-310.5 438,-310.5 438,-291.5 301,-291.5"/>
<text text-anchor="middle" x="369.5" y="-298.5" font-family="Helvetica,sans-Serif" font-size="10.00">OMSimOpticalModule.hh</text>
</a>
</g>
</g>
<!-- Node3&#45;&gt;Node4 -->
<g id="edge3" class="edge">
<title>Node3&#45;&gt;Node4</title>
<path fill="none" stroke="midnightblue" d="M468.8,-347.44C449.56,-338.64 419.35,-324.81 397.3,-314.72"/>
<polygon fill="midnightblue" stroke="midnightblue" points="398.66,-311.5 388.11,-310.52 395.75,-317.86 398.66,-311.5"/>
</g>
<!-- Node37 -->
<g id="node23" class="node">
<title>Node37</title>
<g id="a_node23"><a xlink:title=" ">
<polygon fill="none" stroke="#bfbfbf" points="456.5,-291.5 456.5,-310.5 518.5,-310.5 518.5,-291.5 456.5,-291.5"/>
<text text-anchor="middle" x="487.5" y="-298.5" font-family="Helvetica,sans-Serif" font-size="10.00">G4Orb.hh</text>
</a>
</g>
</g>
<!-- Node3&#45;&gt;Node37 -->
<g id="edge25" class="edge">
<title>Node3&#45;&gt;Node37</title>
<path fill="none" stroke="midnightblue" d="M487.5,-347.08C487.5,-340.01 487.5,-329.86 487.5,-320.99"/>
<polygon fill="midnightblue" stroke="midnightblue" points="491,-320.75 487.5,-310.75 484,-320.75 491,-320.75"/>
</g>
<!-- Node38 -->
<g id="node24" class="node">
<title>Node38</title>
<g id="a_node24"><a xlink:title=" ">
<polygon fill="none" stroke="#bfbfbf" points="536.5,-291.5 536.5,-310.5 714.5,-310.5 714.5,-291.5 536.5,-291.5"/>
<text text-anchor="middle" x="625.5" y="-298.5" font-family="Helvetica,sans-Serif" font-size="10.00">G4VUserDetectorConstruction.hh</text>
</a>
</g>
</g>
<!-- Node3&#45;&gt;Node38 -->
<g id="edge26" class="edge">
<title>Node3&#45;&gt;Node38</title>
<path fill="none" stroke="midnightblue" d="M509.37,-347.44C532.28,-338.48 568.48,-324.31 594.37,-314.18"/>
<polygon fill="midnightblue" stroke="midnightblue" points="595.7,-317.42 603.74,-310.52 593.15,-310.9 595.7,-317.42"/>
</g>
<!-- Node5 -->
<g id="node5" class="node">
<title>Node5</title>
<g id="a_node5"><a xlink:href="abc_detector_component_8hh.html" target="_top" xlink:title="Provides helper base class abcDetectorComponent for constructing and managing detector components in ...">
<polygon fill="none" stroke="black" points="176,-179.5 176,-198.5 323,-198.5 323,-179.5 176,-179.5"/>
<text text-anchor="middle" x="249.5" y="-186.5" font-family="Helvetica,sans-Serif" font-size="10.00">abcDetectorComponent.hh</text>
</a>
</g>
</g>
<!-- Node4&#45;&gt;Node5 -->
<g id="edge4" class="edge">
<title>Node4&#45;&gt;Node5</title>
<path fill="none" stroke="midnightblue" d="M345.45,-291.46C327.26,-284.04 302.58,-271.84 285.5,-255 272.03,-241.72 262.18,-222.33 256.22,-208.18"/>
<polygon fill="midnightblue" stroke="midnightblue" points="259.36,-206.59 252.43,-198.58 252.85,-209.16 259.36,-206.59"/>
</g>
<!-- Node26 -->
<g id="node16" class="node">
<title>Node26</title>
<g id="a_node16"><a xlink:href="_o_m_sim_hit_manager_8hh.html" target="_top" xlink:title="Defines structures and classes related to optical module photon hit management.">
<polygon fill="none" stroke="black" points="599,-235.5 599,-254.5 722,-254.5 722,-235.5 599,-235.5"/>
<text text-anchor="middle" x="660.5" y="-242.5" font-family="Helvetica,sans-Serif" font-size="10.00">OMSimHitManager.hh</text>
</a>
</g>
</g>
<!-- Node4&#45;&gt;Node26 -->
<g id="edge15" class="edge">
<title>Node4&#45;&gt;Node26</title>
<path fill="none" stroke="midnightblue" d="M415.61,-291.44C466.91,-281.92 549.77,-266.55 604.69,-256.36"/>
<polygon fill="midnightblue" stroke="midnightblue" points="605.41,-259.78 614.61,-254.52 604.14,-252.9 605.41,-259.78"/>
</g>
<!-- Node34 -->
<g id="node22" class="node">
<title>Node34</title>
<g id="a_node22"><a xlink:href="_o_m_sim_p_m_t_construction_8hh.html" target="_top" xlink:title="Construction of the PMTs.">
<polygon fill="none" stroke="red" points="295,-235.5 295,-254.5 444,-254.5 444,-235.5 295,-235.5"/>
<text text-anchor="middle" x="369.5" y="-242.5" font-family="Helvetica,sans-Serif" font-size="10.00">OMSimPMTConstruction.hh</text>
</a>
</g>
</g>
<!-- Node4&#45;&gt;Node34 -->
<g id="edge21" class="edge">
<title>Node4&#45;&gt;Node34</title>
<path fill="none" stroke="midnightblue" d="M369.5,-291.08C369.5,-284.01 369.5,-273.86 369.5,-264.99"/>
<polygon fill="midnightblue" stroke="midnightblue" points="373,-264.75 369.5,-254.75 366,-264.75 373,-264.75"/>
</g>
<!-- Node6 -->
<g id="node6" class="node">
<title>Node6</title>
<g id="a_node6"><a xlink:href="_o_m_sim_input_data_8hh.html" target="_top" xlink:title="Definition of ParameterTable and OMSimInputData.">
<polygon fill="none" stroke="red" points="0,-123.5 0,-142.5 115,-142.5 115,-123.5 0,-123.5"/>
<text text-anchor="middle" x="57.5" y="-130.5" font-family="Helvetica,sans-Serif" font-size="10.00">OMSimInputData.hh</text>
</a>
</g>
</g>
<!-- Node5&#45;&gt;Node6 -->
<g id="edge5" class="edge">
<title>Node5&#45;&gt;Node6</title>
<path fill="none" stroke="midnightblue" d="M219.08,-179.44C186.22,-170.2 133.72,-155.44 97.53,-145.26"/>
<polygon fill="midnightblue" stroke="midnightblue" points="98.35,-141.85 87.78,-142.52 96.46,-148.59 98.35,-141.85"/>
</g>
<!-- Node22 -->
<g id="node12" class="node">
<title>Node22</title>
<g id="a_node12"><a xlink:title=" ">
<polygon fill="none" stroke="#bfbfbf" points="133,-123.5 133,-142.5 240,-142.5 240,-123.5 133,-123.5"/>
<text text-anchor="middle" x="186.5" y="-130.5" font-family="Helvetica,sans-Serif" font-size="10.00">G4Transform3D.hh</text>
</a>
</g>
</g>
<!-- Node5&#45;&gt;Node22 -->
<g id="edge11" class="edge">
<title>Node5&#45;&gt;Node22</title>
<path fill="none" stroke="midnightblue" d="M239.38,-179.32C229.97,-171.26 215.76,-159.08 204.43,-149.37"/>
<polygon fill="midnightblue" stroke="midnightblue" points="206.68,-146.68 196.81,-142.83 202.12,-152 206.68,-146.68"/>
</g>
<!-- Node23 -->
<g id="node13" class="node">
<title>Node23</title>
<g id="a_node13"><a xlink:title=" ">
<polygon fill="none" stroke="#bfbfbf" points="258.5,-123.5 258.5,-142.5 366.5,-142.5 366.5,-123.5 258.5,-123.5"/>
<text text-anchor="middle" x="312.5" y="-130.5" font-family="Helvetica,sans-Serif" font-size="10.00">G4VisAttributes.hh</text>
</a>
</g>
</g>
<!-- Node5&#45;&gt;Node23 -->
<g id="edge12" class="edge">
<title>Node5&#45;&gt;Node23</title>
<path fill="none" stroke="midnightblue" d="M259.62,-179.32C269.03,-171.26 283.24,-159.08 294.57,-149.37"/>
<polygon fill="midnightblue" stroke="midnightblue" points="296.88,-152 302.19,-142.83 292.32,-146.68 296.88,-152"/>
</g>
<!-- Node24 -->
<g id="node14" class="node">
<title>Node24</title>
<g id="a_node14"><a xlink:title=" ">
<polygon fill="none" stroke="#bfbfbf" points="385,-123.5 385,-142.5 510,-142.5 510,-123.5 385,-123.5"/>
<text text-anchor="middle" x="447.5" y="-130.5" font-family="Helvetica,sans-Serif" font-size="10.00">G4SubtractionSolid.hh</text>
</a>
</g>
</g>
<!-- Node5&#45;&gt;Node24 -->
<g id="edge13" class="edge">
<title>Node5&#45;&gt;Node24</title>
<path fill="none" stroke="midnightblue" d="M280.87,-179.44C314.76,-170.2 368.9,-155.44 406.22,-145.26"/>
<polygon fill="midnightblue" stroke="midnightblue" points="407.55,-148.52 416.27,-142.52 405.7,-141.77 407.55,-148.52"/>
</g>
<!-- Node25 -->
<g id="node15" class="node">
<title>Node25</title>
<g id="a_node15"><a xlink:title=" ">
<polygon fill="none" stroke="#bfbfbf" points="528.5,-123.5 528.5,-142.5 638.5,-142.5 638.5,-123.5 528.5,-123.5"/>
<text text-anchor="middle" x="583.5" y="-130.5" font-family="Helvetica,sans-Serif" font-size="10.00">G4PVPlacement.hh</text>
</a>
</g>
</g>
<!-- Node5&#45;&gt;Node25 -->
<g id="edge14" class="edge">
<title>Node5&#45;&gt;Node25</title>
<path fill="none" stroke="midnightblue" d="M302.42,-179.44C361.67,-169.87 457.6,-154.36 520.62,-144.17"/>
<polygon fill="midnightblue" stroke="midnightblue" points="521.51,-147.57 530.82,-142.52 520.39,-140.66 521.51,-147.57"/>
</g>
<!-- Node7 -->
<g id="node7" class="node">
<title>Node7</title>
<g id="a_node7"><a xlink:href="_o_m_sim_logger_8hh_source.html" target="_top" xlink:title=" ">
<polygon fill="none" stroke="black" points="945,-67.5 945,-86.5 1044,-86.5 1044,-67.5 945,-67.5"/>
<text text-anchor="middle" x="994.5" y="-74.5" font-family="Helvetica,sans-Serif" font-size="10.00">OMSimLogger.hh</text>
</a>
</g>
</g>
<!-- Node6&#45;&gt;Node7 -->
<g id="edge6" class="edge">
<title>Node6&#45;&gt;Node7</title>
<path fill="none" stroke="midnightblue" d="M115.06,-123.86C117.91,-123.55 120.74,-123.26 123.5,-123 427.58,-94.46 793.19,-82.96 934.61,-79.36"/>
<polygon fill="midnightblue" stroke="midnightblue" points="934.89,-82.86 944.8,-79.11 934.72,-75.86 934.89,-82.86"/>
</g>
<!-- Node8 -->
<g id="node8" class="node">
<title>Node8</title>
<g id="a_node8"><a xlink:title=" ">
<polygon fill="none" stroke="#bfbfbf" points="777,-6 777,-25 870,-25 870,-6 777,-6"/>
<text text-anchor="middle" x="823.5" y="-13" font-family="Helvetica,sans-Serif" font-size="10.00">spdlog/spdlog.h</text>
</a>
</g>
</g>
<!-- Node7&#45;&gt;Node8 -->
<g id="edge7" class="edge">
<title>Node7&#45;&gt;Node8</title>
<path fill="none" stroke="midnightblue" d="M970,-67.48C940.54,-57.22 890.92,-39.96 857.7,-28.4"/>
<polygon fill="midnightblue" stroke="midnightblue" points="858.55,-24.99 847.95,-25.01 856.25,-31.6 858.55,-24.99"/>
</g>
<!-- Node9 -->
<g id="node9" class="node">
<title>Node9</title>
<g id="a_node9"><a xlink:title=" ">
<polygon fill="none" stroke="#bfbfbf" points="888,-0.5 888,-30.5 999,-30.5 999,-0.5 888,-0.5"/>
<text text-anchor="start" x="896" y="-18.5" font-family="Helvetica,sans-Serif" font-size="10.00">spdlog/sinks/stdout</text>
<text text-anchor="middle" x="943.5" y="-7.5" font-family="Helvetica,sans-Serif" font-size="10.00">_color_sinks.h</text>
</a>
</g>
</g>
<!-- Node7&#45;&gt;Node9 -->
<g id="edge8" class="edge">
<title>Node7&#45;&gt;Node9</title>
<path fill="none" stroke="midnightblue" d="M987.19,-67.48C980.67,-59.87 970.84,-48.4 962.16,-38.26"/>
<polygon fill="midnightblue" stroke="midnightblue" points="964.69,-35.84 955.52,-30.52 959.37,-40.39 964.69,-35.84"/>
</g>
<!-- Node10 -->
<g id="node10" class="node">
<title>Node10</title>
<g id="a_node10"><a xlink:title=" ">
<polygon fill="none" stroke="#bfbfbf" points="1017.5,-6 1017.5,-25 1075.5,-25 1075.5,-6 1017.5,-6"/>
<text text-anchor="middle" x="1046.5" y="-13" font-family="Helvetica,sans-Serif" font-size="10.00">memory</text>
</a>
</g>
</g>
<!-- Node7&#45;&gt;Node10 -->
<g id="edge9" class="edge">
<title>Node7&#45;&gt;Node10</title>
<path fill="none" stroke="midnightblue" d="M1001.95,-67.48C1009.83,-58.46 1022.44,-44.02 1032.24,-32.81"/>
<polygon fill="midnightblue" stroke="midnightblue" points="1035.12,-34.84 1039.06,-25.01 1029.85,-30.24 1035.12,-34.84"/>
</g>
<!-- Node11 -->
<g id="node11" class="node">
<title>Node11</title>
<g id="a_node11"><a xlink:title=" ">
<polygon fill="none" stroke="#bfbfbf" points="1093.5,-6 1093.5,-25 1191.5,-25 1191.5,-6 1093.5,-6"/>
<text text-anchor="middle" x="1142.5" y="-13" font-family="Helvetica,sans-Serif" font-size="10.00">spdlog/fmt/fmt.h</text>
</a>
</g>
</g>
<!-- Node7&#45;&gt;Node11 -->
<g id="edge10" class="edge">
<title>Node7&#45;&gt;Node11</title>
<path fill="none" stroke="midnightblue" d="M1015.7,-67.48C1040.87,-57.36 1083.04,-40.4 1111.78,-28.85"/>
<polygon fill="midnightblue" stroke="midnightblue" points="1113.36,-31.99 1121.33,-25.01 1110.75,-25.49 1113.36,-31.99"/>
</g>
<!-- Node27 -->
<g id="node17" class="node">
<title>Node27</title>
<g id="a_node17"><a xlink:href="_o_m_sim_p_m_t_response_8hh.html" target="_top" xlink:title="Simulation of PMT response.">
<polygon fill="none" stroke="red" points="341,-179.5 341,-198.5 476,-198.5 476,-179.5 341,-179.5"/>
<text text-anchor="middle" x="408.5" y="-186.5" font-family="Helvetica,sans-Serif" font-size="10.00">OMSimPMTResponse.hh</text>
</a>
</g>
</g>
<!-- Node26&#45;&gt;Node27 -->
<g id="edge16" class="edge">
<title>Node26&#45;&gt;Node27</title>
<path fill="none" stroke="midnightblue" d="M620.57,-235.44C576.61,-226.02 505.87,-210.87 458.32,-200.68"/>
<polygon fill="midnightblue" stroke="midnightblue" points="458.75,-197.19 448.24,-198.52 457.29,-204.03 458.75,-197.19"/>
</g>
<!-- Node32 -->
<g id="node18" class="node">
<title>Node32</title>
<g id="a_node18"><a xlink:title=" ">
<polygon fill="none" stroke="#bfbfbf" points="494,-179.5 494,-198.5 597,-198.5 597,-179.5 494,-179.5"/>
<text text-anchor="middle" x="545.5" y="-186.5" font-family="Helvetica,sans-Serif" font-size="10.00">G4ThreeVector.hh</text>
</a>
</g>
</g>
<!-- Node26&#45;&gt;Node32 -->
<g id="edge17" class="edge">
<title>Node26&#45;&gt;Node32</title>
<path fill="none" stroke="midnightblue" d="M642.28,-235.44C623.6,-226.68 594.34,-212.94 572.88,-202.86"/>
<polygon fill="midnightblue" stroke="midnightblue" points="574.18,-199.6 563.64,-198.52 571.2,-205.93 574.18,-199.6"/>
</g>
<!-- Node33 -->
<g id="node19" class="node">
<title>Node33</title>
<g id="a_node19"><a xlink:title=" ">
<polygon fill="none" stroke="#bfbfbf" points="836,-179.5 836,-198.5 891,-198.5 891,-179.5 836,-179.5"/>
<text text-anchor="middle" x="863.5" y="-186.5" font-family="Helvetica,sans-Serif" font-size="10.00">fstream</text>
</a>
</g>
</g>
<!-- Node26&#45;&gt;Node33 -->
<g id="edge18" class="edge">
<title>Node26&#45;&gt;Node33</title>
<path fill="none" stroke="midnightblue" d="M692.67,-235.44C728.89,-225.81 787.69,-210.17 825.98,-199.98"/>
<polygon fill="midnightblue" stroke="midnightblue" points="826.96,-203.34 835.73,-197.39 825.16,-196.58 826.96,-203.34"/>
</g>
<!-- Node18 -->
<g id="node20" class="node">
<title>Node18</title>
<g id="a_node20"><a xlink:title=" ">
<polygon fill="none" stroke="#bfbfbf" points="615.5,-179.5 615.5,-198.5 705.5,-198.5 705.5,-179.5 615.5,-179.5"/>
<text text-anchor="middle" x="660.5" y="-186.5" font-family="Helvetica,sans-Serif" font-size="10.00">G4AutoLock.hh</text>
</a>
</g>
</g>
<!-- Node26&#45;&gt;Node18 -->
<g id="edge19" class="edge">
<title>Node26&#45;&gt;Node18</title>
<path fill="none" stroke="midnightblue" d="M660.5,-235.08C660.5,-228.01 660.5,-217.86 660.5,-208.99"/>
<polygon fill="midnightblue" stroke="midnightblue" points="664,-208.75 660.5,-198.75 657,-208.75 664,-208.75"/>
</g>
<!-- Node19 -->
<g id="node21" class="node">
<title>Node19</title>
<g id="a_node21"><a xlink:title=" ">
<polygon fill="none" stroke="#bfbfbf" points="723.5,-179.5 723.5,-198.5 817.5,-198.5 817.5,-179.5 723.5,-179.5"/>
<text text-anchor="middle" x="770.5" y="-186.5" font-family="Helvetica,sans-Serif" font-size="10.00">G4Threading.hh</text>
</a>
</g>
</g>
<!-- Node26&#45;&gt;Node19 -->
<g id="edge20" class="edge">
<title>Node26&#45;&gt;Node19</title>
<path fill="none" stroke="midnightblue" d="M678.17,-235.32C695.89,-226.62 723.4,-213.12 743.79,-203.11"/>
<polygon fill="midnightblue" stroke="midnightblue" points="745.44,-206.2 752.87,-198.65 742.35,-199.92 745.44,-206.2"/>
</g>
<!-- Node34&#45;&gt;Node5 -->
<g id="edge22" class="edge">
<title>Node34&#45;&gt;Node5</title>
<path fill="none" stroke="midnightblue" d="M350.49,-235.44C330.91,-226.64 300.19,-212.81 277.77,-202.72"/>
<polygon fill="midnightblue" stroke="midnightblue" points="278.98,-199.43 268.43,-198.52 276.11,-205.81 278.98,-199.43"/>
</g>
<!-- Node34&#45;&gt;Node27 -->
<g id="edge24" class="edge">
<title>Node34&#45;&gt;Node27</title>
<path fill="none" stroke="midnightblue" d="M375.94,-235.08C381.45,-227.46 389.53,-216.26 396.26,-206.94"/>
<polygon fill="midnightblue" stroke="midnightblue" points="399.16,-208.91 402.18,-198.75 393.49,-204.81 399.16,-208.91"/>
</g>
<!-- Node34&#45;&gt;Node34 -->
<g id="edge23" class="edge">
<title>Node34&#45;&gt;Node34</title>
<path fill="none" stroke="midnightblue" d="M408.95,-254.53C435.76,-257.31 462,-254.13 462,-245 462,-237.01 441.91,-233.58 418.93,-234.71"/>
<polygon fill="midnightblue" stroke="midnightblue" points="418.65,-231.22 408.95,-235.47 419.19,-238.2 418.65,-231.22"/>
</g>
<!-- Node41&#45;&gt;Node7 -->
<g id="edge32" class="edge">
<title>Node41&#45;&gt;Node7</title>
<path fill="none" stroke="midnightblue" d="M958.79,-291.3C949.56,-283.07 936.91,-269.79 931.5,-255 928.45,-246.65 929.81,-243.73 931.5,-235 941.72,-182.09 969.65,-124.38 984.65,-95.93"/>
<polygon fill="midnightblue" stroke="midnightblue" points="987.89,-97.3 989.54,-86.83 981.73,-93.98 987.89,-97.3"/>
</g>
<!-- Node41&#45;&gt;Node26 -->
<g id="edge31" class="edge">
<title>Node41&#45;&gt;Node26</title>
<path fill="none" stroke="midnightblue" d="M920.54,-291.44C865.96,-281.9 777.71,-266.48 719.4,-256.29"/>
<polygon fill="midnightblue" stroke="midnightblue" points="719.69,-252.79 709.23,-254.52 718.48,-259.69 719.69,-252.79"/>
</g>
<!-- Node42 -->
<g id="node28" class="node">
<title>Node42</title>
<g id="a_node28"><a xlink:title=" ">
<polygon fill="none" stroke="#bfbfbf" points="941,-235.5 941,-254.5 1058,-254.5 1058,-235.5 941,-235.5"/>
<text text-anchor="middle" x="999.5" y="-242.5" font-family="Helvetica,sans-Serif" font-size="10.00">G4UserRunAction.hh</text>
</a>
</g>
</g>
<!-- Node41&#45;&gt;Node42 -->
<g id="edge30" class="edge">
<title>Node41&#45;&gt;Node42</title>
<path fill="none" stroke="midnightblue" d="M974.45,-291.08C978.6,-283.61 984.65,-272.72 989.77,-263.52"/>
<polygon fill="midnightblue" stroke="midnightblue" points="992.84,-265.19 994.64,-254.75 986.72,-261.79 992.84,-265.19"/>
</g>
<!-- Node43 -->
<g id="node29" class="node">
<title>Node43</title>
<g id="a_node29"><a xlink:title=" ">
<polygon fill="none" stroke="#bfbfbf" points="1076.5,-235.5 1076.5,-254.5 1162.5,-254.5 1162.5,-235.5 1076.5,-235.5"/>
<text text-anchor="middle" x="1119.5" y="-242.5" font-family="Helvetica,sans-Serif" font-size="10.00">Randomize.hh</text>
</a>
</g>
</g>
<!-- Node41&#45;&gt;Node43 -->
<g id="edge33" class="edge">
<title>Node41&#45;&gt;Node43</title>
<path fill="none" stroke="midnightblue" d="M993.27,-291.44C1018.39,-282.4 1058.21,-268.06 1086.4,-257.92"/>
<polygon fill="midnightblue" stroke="midnightblue" points="1087.62,-261.2 1095.84,-254.52 1085.25,-254.61 1087.62,-261.2"/>
</g>
<!-- Node44 -->
<g id="node30" class="node">
<title>Node44</title>
<g id="a_node30"><a xlink:title=" ">
<polygon fill="none" stroke="#bfbfbf" points="1180.5,-235.5 1180.5,-254.5 1244.5,-254.5 1244.5,-235.5 1180.5,-235.5"/>
<text text-anchor="middle" x="1212.5" y="-242.5" font-family="Helvetica,sans-Serif" font-size="10.00">G4Run.hh</text>
</a>
</g>
</g>
<!-- Node41&#45;&gt;Node44 -->
<g id="edge34" class="edge">
<title>Node41&#45;&gt;Node44</title>
<path fill="none" stroke="midnightblue" d="M1008,-291.44C1052.3,-281.6 1124.78,-265.49 1170.49,-255.33"/>
<polygon fill="midnightblue" stroke="midnightblue" points="1171.38,-258.72 1180.38,-253.14 1169.86,-251.89 1171.38,-258.72"/>
</g>
<!-- Node47 -->
<g id="node33" class="node">
<title>Node47</title>
<g id="a_node33"><a xlink:title=" ">
<polygon fill="none" stroke="#bfbfbf" points="1113,-291.5 1113,-310.5 1252,-310.5 1252,-291.5 1113,-291.5"/>
<text text-anchor="middle" x="1182.5" y="-298.5" font-family="Helvetica,sans-Serif" font-size="10.00">G4UserTrackingAction.hh</text>
</a>
</g>
</g>
<!-- Node46&#45;&gt;Node47 -->
<g id="edge37" class="edge">
<title>Node46&#45;&gt;Node47</title>
<path fill="none" stroke="midnightblue" d="M1183.33,-347.08C1183.2,-340.01 1183.02,-329.86 1182.85,-320.99"/>
<polygon fill="midnightblue" stroke="midnightblue" points="1186.35,-320.68 1182.66,-310.75 1179.35,-320.81 1186.35,-320.68"/>
</g>
<!-- Node49 -->
<g id="node35" class="node">
<title>Node49</title>
<g id="a_node35"><a xlink:title=" ">
<polygon fill="none" stroke="#bfbfbf" points="1270,-291.5 1270,-310.5 1411,-310.5 1411,-291.5 1270,-291.5"/>
<text text-anchor="middle" x="1340.5" y="-298.5" font-family="Helvetica,sans-Serif" font-size="10.00">G4UserSteppingAction.hh</text>
</a>
</g>
</g>
<!-- Node48&#45;&gt;Node49 -->
<g id="edge39" class="edge">
<title>Node48&#45;&gt;Node49</title>
<path fill="none" stroke="midnightblue" d="M1340.5,-347.08C1340.5,-340.01 1340.5,-329.86 1340.5,-320.99"/>
<polygon fill="midnightblue" stroke="midnightblue" points="1344,-320.75 1340.5,-310.75 1337,-320.75 1344,-320.75"/>
</g>
<!-- Node51 -->
<g id="node37" class="node">
<title>Node51</title>
<g id="a_node37"><a xlink:href="_o_m_sim_command_args_table_8hh.html" target="_top" xlink:title="Definition of the OMSimCommandArgsTable singleton class, which controls user args.">
<polygon fill="none" stroke="black" points="1262.5,-235.5 1262.5,-254.5 1426.5,-254.5 1426.5,-235.5 1262.5,-235.5"/>
<text text-anchor="middle" x="1344.5" y="-242.5" font-family="Helvetica,sans-Serif" font-size="10.00">OMSimCommandArgsTable.hh</text>
</a>
</g>
</g>
<!-- Node50&#45;&gt;Node51 -->
<g id="edge41" class="edge">
<title>Node50&#45;&gt;Node51</title>
<path fill="none" stroke="midnightblue" d="M1466.52,-291.44C1442.34,-282.44 1404.08,-268.19 1376.85,-258.05"/>
<polygon fill="midnightblue" stroke="midnightblue" points="1377.96,-254.73 1367.37,-254.52 1375.52,-261.29 1377.96,-254.73"/>
</g>
<!-- Node54 -->
<g id="node40" class="node">
<title>Node54</title>
<g id="a_node40"><a xlink:title=" ">
<polygon fill="none" stroke="#bfbfbf" points="1444.5,-235.5 1444.5,-254.5 1542.5,-254.5 1542.5,-235.5 1444.5,-235.5"/>
<text text-anchor="middle" x="1493.5" y="-242.5" font-family="Helvetica,sans-Serif" font-size="10.00">G4UImanager.hh</text>
</a>
</g>
</g>
<!-- Node50&#45;&gt;Node54 -->
<g id="edge46" class="edge">
<title>Node50&#45;&gt;Node54</title>
<path fill="none" stroke="midnightblue" d="M1490.16,-291.08C1490.68,-284.01 1491.44,-273.86 1492.09,-264.99"/>
<polygon fill="midnightblue" stroke="midnightblue" points="1495.6,-264.98 1492.85,-254.75 1488.62,-264.47 1495.6,-264.98"/>
</g>
<!-- Node51&#45;&gt;Node7 -->
<g id="edge42" class="edge">
<title>Node51&#45;&gt;Node7</title>
<path fill="none" stroke="midnightblue" d="M1325.67,-235.47C1305.9,-226.49 1273.95,-211.89 1246.5,-199 1164.07,-160.29 1067.08,-113.31 1021.17,-90.99"/>
<polygon fill="midnightblue" stroke="midnightblue" points="1022.69,-87.84 1012.17,-86.61 1019.63,-94.14 1022.69,-87.84"/>
</g>
<!-- Node51&#45;&gt;Node33 -->
<g id="edge43" class="edge">
<title>Node51&#45;&gt;Node33</title>
<path fill="none" stroke="midnightblue" d="M1268.55,-235.47C1164.04,-223.74 979.89,-203.07 901.04,-194.21"/>
<polygon fill="midnightblue" stroke="midnightblue" points="901.4,-190.73 891.07,-193.1 900.62,-197.69 901.4,-190.73"/>
</g>
<!-- Node52 -->
<g id="node38" class="node">
<title>Node52</title>
<g id="a_node38"><a xlink:title=" ">
<polygon fill="none" stroke="#bfbfbf" points="1255.5,-179.5 1255.5,-198.5 1339.5,-198.5 1339.5,-179.5 1255.5,-179.5"/>
<text text-anchor="middle" x="1297.5" y="-186.5" font-family="Helvetica,sans-Serif" font-size="10.00">boost/any.hpp</text>
</a>
</g>
</g>
<!-- Node51&#45;&gt;Node52 -->
<g id="edge44" class="edge">
<title>Node51&#45;&gt;Node52</title>
<path fill="none" stroke="midnightblue" d="M1336.74,-235.08C1329.96,-227.3 1319.96,-215.8 1311.74,-206.37"/>
<polygon fill="midnightblue" stroke="midnightblue" points="1314.32,-204 1305.12,-198.75 1309.04,-208.59 1314.32,-204"/>
</g>
<!-- Node53 -->
<g id="node39" class="node">
<title>Node53</title>
<g id="a_node39"><a xlink:title=" ">
<polygon fill="none" stroke="#bfbfbf" points="1357.5,-179.5 1357.5,-198.5 1425.5,-198.5 1425.5,-179.5 1357.5,-179.5"/>
<text text-anchor="middle" x="1391.5" y="-186.5" font-family="Helvetica,sans-Serif" font-size="10.00">sys/time.h</text>
</a>
</g>
</g>
<!-- Node51&#45;&gt;Node53 -->
<g id="edge45" class="edge">
<title>Node51&#45;&gt;Node53</title>
<path fill="none" stroke="midnightblue" d="M1352.26,-235.08C1359.04,-227.3 1369.04,-215.8 1377.26,-206.37"/>
<polygon fill="midnightblue" stroke="midnightblue" points="1379.96,-208.59 1383.88,-198.75 1374.68,-204 1379.96,-208.59"/>
</g>
<!-- Node61 -->
<g id="node47" class="node">
<title>Node61</title>
<g id="a_node47"><a xlink:title=" ">
<polygon fill="none" stroke="#bfbfbf" points="2106,-347.5 2106,-366.5 2173,-366.5 2173,-347.5 2106,-347.5"/>
<text text-anchor="middle" x="2139.5" y="-354.5" font-family="Helvetica,sans-Serif" font-size="10.00">globals.hh</text>
</a>
</g>
</g>
<!-- Node60&#45;&gt;Node61 -->
<g id="edge53" class="edge">
<title>Node60&#45;&gt;Node61</title>
<path fill="none" stroke="midnightblue" d="M1720.06,-404.28C1723.25,-403.82 1726.42,-403.39 1729.5,-403 1889.17,-382.6 1933.32,-391.86 2095.3,-367.2"/>
<polygon fill="midnightblue" stroke="midnightblue" points="2096.29,-370.59 2105.64,-365.6 2095.22,-363.67 2096.29,-370.59"/>
</g>
<!-- Node64&#45;&gt;Node7 -->
<g id="edge57" class="edge">
<title>Node64&#45;&gt;Node7</title>
<path fill="none" stroke="midnightblue" d="M2174.68,-403.39C2183.14,-385.16 2201.5,-341.09 2201.5,-302 2201.5,-302 2201.5,-302 2201.5,-188 2201.5,-129.72 1297.35,-89.92 1054.13,-80.27"/>
<polygon fill="midnightblue" stroke="midnightblue" points="1054.2,-76.77 1044.07,-79.87 1053.92,-83.77 1054.2,-76.77"/>
</g>
<!-- Node64&#45;&gt;Node61 -->
<g id="edge58" class="edge">
<title>Node64&#45;&gt;Node61</title>
<path fill="none" stroke="midnightblue" d="M2165.38,-403.08C2161.09,-395.61 2154.84,-384.72 2149.56,-375.52"/>
<polygon fill="midnightblue" stroke="midnightblue" points="2152.54,-373.68 2144.52,-366.75 2146.47,-377.17 2152.54,-373.68"/>
</g>
</g>
</svg>
