<?xml version="1.0" encoding="UTF-8" standalone="no"?>
<!DOCTYPE svg PUBLIC "-//W3C//DTD SVG 1.1//EN"
 "http://www.w3.org/Graphics/SVG/1.1/DTD/svg11.dtd">
<!-- Generated by graphviz version 2.43.0 (0)
 -->
<!-- Title: OMSimLOM18.cc Pages: 1 -->
<svg width="3148pt" height="431pt"
 viewBox="0.00 0.00 3148.00 431.00" xmlns="http://www.w3.org/2000/svg" xmlns:xlink="http://www.w3.org/1999/xlink">
<g id="graph0" class="graph" transform="scale(1 1) rotate(0) translate(4 427)">
<title>OMSimLOM18.cc</title>
<!-- Node1 -->
<g id="node1" class="node">
<title>Node1</title>
<g id="a_node1"><a xlink:title=" ">
<polygon fill="#bfbfbf" stroke="black" points="2625,-403.5 2625,-422.5 2724,-422.5 2724,-403.5 2625,-403.5"/>
<text text-anchor="middle" x="2674.5" y="-410.5" font-family="Helvetica,sans-Serif" font-size="10.00">OMSimLOM18.cc</text>
</a>
</g>
</g>
<!-- Node2 -->
<g id="node2" class="node">
<title>Node2</title>
<g id="a_node2"><a xlink:href="_o_m_sim_l_o_m18_8hh.html" target="_top" xlink:title="Construction of LOM18.">
<polygon fill="none" stroke="black" points="879,-347.5 879,-366.5 980,-366.5 980,-347.5 879,-347.5"/>
<text text-anchor="middle" x="929.5" y="-354.5" font-family="Helvetica,sans-Serif" font-size="10.00">OMSimLOM18.hh</text>
</a>
</g>
</g>
<!-- Node1&#45;&gt;Node2 -->
<g id="edge1" class="edge">
<title>Node1&#45;&gt;Node2</title>
<path fill="none" stroke="midnightblue" d="M2624.72,-410.58C2436.63,-405.2 1751.24,-385.43 1186.5,-367 1119.36,-364.81 1042.36,-362.08 990.28,-360.21"/>
<polygon fill="midnightblue" stroke="midnightblue" points="990.33,-356.71 980.21,-359.85 990.08,-363.71 990.33,-356.71"/>
</g>
<!-- Node6 -->
<g id="node6" class="node">
<title>Node6</title>
<g id="a_node6"><a xlink:href="_o_m_sim_logger_8hh_source.html" target="_top" xlink:title=" ">
<polygon fill="none" stroke="black" points="1549,-67.5 1549,-86.5 1648,-86.5 1648,-67.5 1549,-67.5"/>
<text text-anchor="middle" x="1598.5" y="-74.5" font-family="Helvetica,sans-Serif" font-size="10.00">OMSimLogger.hh</text>
</a>
</g>
</g>
<!-- Node1&#45;&gt;Node6 -->
<g id="edge55" class="edge">
<title>Node1&#45;&gt;Node6</title>
<path fill="none" stroke="midnightblue" d="M2724.27,-408.96C2789.99,-401.94 2897.5,-378.73 2897.5,-302 2897.5,-302 2897.5,-302 2897.5,-188 2897.5,-124.97 1913.7,-88.34 1658.42,-79.89"/>
<polygon fill="midnightblue" stroke="midnightblue" points="1658.34,-76.39 1648.23,-79.56 1658.11,-83.38 1658.34,-76.39"/>
</g>
<!-- Node38 -->
<g id="node30" class="node">
<title>Node38</title>
<g id="a_node30"><a xlink:href="_c_a_d_mesh_8hh_source.html" target="_top" xlink:title=" ">
<polygon fill="none" stroke="black" points="1969,-235.5 1969,-254.5 2048,-254.5 2048,-235.5 1969,-235.5"/>
<text text-anchor="middle" x="2008.5" y="-242.5" font-family="Helvetica,sans-Serif" font-size="10.00">CADMesh.hh</text>
</a>
</g>
</g>
<!-- Node1&#45;&gt;Node38 -->
<g id="edge34" class="edge">
<title>Node1&#45;&gt;Node38</title>
<path fill="none" stroke="midnightblue" d="M2640.1,-403.42C2528.56,-375.62 2177.02,-288 2052.64,-257"/>
<polygon fill="midnightblue" stroke="midnightblue" points="2053.25,-253.55 2042.7,-254.52 2051.56,-260.34 2053.25,-253.55"/>
</g>
<!-- Node54 -->
<g id="node46" class="node">
<title>Node54</title>
<g id="a_node46"><a xlink:href="_o_m_sim_command_args_table_8hh.html" target="_top" xlink:title="Definition of the OMSimCommandArgsTable singleton class, which controls user args.">
<polygon fill="none" stroke="black" points="1082.5,-235.5 1082.5,-254.5 1246.5,-254.5 1246.5,-235.5 1082.5,-235.5"/>
<text text-anchor="middle" x="1164.5" y="-242.5" font-family="Helvetica,sans-Serif" font-size="10.00">OMSimCommandArgsTable.hh</text>
</a>
</g>
</g>
<!-- Node1&#45;&gt;Node54 -->
<g id="edge56" class="edge">
<title>Node1&#45;&gt;Node54</title>
<path fill="none" stroke="midnightblue" d="M2624.69,-406.52C2406.43,-382.53 1532.86,-286.49 1251.96,-255.62"/>
<polygon fill="midnightblue" stroke="midnightblue" points="1252.15,-252.11 1241.82,-254.5 1251.38,-259.07 1252.15,-252.11"/>
</g>
<!-- Node57 -->
<g id="node49" class="node">
<title>Node57</title>
<g id="a_node49"><a xlink:title=" ">
<polygon fill="none" stroke="#bfbfbf" points="2926,-347.5 2926,-366.5 2995,-366.5 2995,-347.5 2926,-347.5"/>
<text text-anchor="middle" x="2960.5" y="-354.5" font-family="Helvetica,sans-Serif" font-size="10.00">G4Cons.hh</text>
</a>
</g>
</g>
<!-- Node1&#45;&gt;Node57 -->
<g id="edge61" class="edge">
<title>Node1&#45;&gt;Node57</title>
<path fill="none" stroke="midnightblue" d="M2719.82,-403.44C2773.53,-393.3 2862.47,-376.51 2915.88,-366.43"/>
<polygon fill="midnightblue" stroke="midnightblue" points="2916.56,-369.86 2925.74,-364.56 2915.26,-362.98 2916.56,-369.86"/>
</g>
<!-- Node58 -->
<g id="node50" class="node">
<title>Node58</title>
<g id="a_node50"><a xlink:title=" ">
<polygon fill="none" stroke="#bfbfbf" points="3013,-347.5 3013,-366.5 3140,-366.5 3140,-347.5 3013,-347.5"/>
<text text-anchor="middle" x="3076.5" y="-354.5" font-family="Helvetica,sans-Serif" font-size="10.00">G4IntersectionSolid.hh</text>
</a>
</g>
</g>
<!-- Node1&#45;&gt;Node58 -->
<g id="edge62" class="edge">
<title>Node1&#45;&gt;Node58</title>
<path fill="none" stroke="midnightblue" d="M2724.2,-405.32C2794.1,-395.93 2921.96,-378.76 3002.91,-367.89"/>
<polygon fill="midnightblue" stroke="midnightblue" points="3003.58,-371.33 3013.03,-366.53 3002.65,-364.39 3003.58,-371.33"/>
</g>
<!-- Node3 -->
<g id="node3" class="node">
<title>Node3</title>
<g id="a_node3"><a xlink:href="_o_m_sim_p_m_t_construction_8hh.html" target="_top" xlink:title="Construction of the PMTs.">
<polygon fill="none" stroke="black" points="425,-235.5 425,-254.5 574,-254.5 574,-235.5 425,-235.5"/>
<text text-anchor="middle" x="499.5" y="-242.5" font-family="Helvetica,sans-Serif" font-size="10.00">OMSimPMTConstruction.hh</text>
</a>
</g>
</g>
<!-- Node2&#45;&gt;Node3 -->
<g id="edge2" class="edge">
<title>Node2&#45;&gt;Node3</title>
<path fill="none" stroke="midnightblue" d="M878.74,-352.69C819.51,-347.82 719.16,-336.36 636.5,-311 594.81,-298.21 549.71,-274.75 523.07,-259.79"/>
<polygon fill="midnightblue" stroke="midnightblue" points="524.55,-256.61 514.13,-254.7 521.08,-262.69 524.55,-256.61"/>
</g>
<!-- Node32 -->
<g id="node23" class="node">
<title>Node32</title>
<g id="a_node23"><a xlink:href="_o_m_sim_optical_module_8hh_source.html" target="_top" xlink:title=" ">
<polygon fill="none" stroke="black" points="646,-291.5 646,-310.5 783,-310.5 783,-291.5 646,-291.5"/>
<text text-anchor="middle" x="714.5" y="-298.5" font-family="Helvetica,sans-Serif" font-size="10.00">OMSimOpticalModule.hh</text>
</a>
</g>
</g>
<!-- Node2&#45;&gt;Node32 -->
<g id="edge24" class="edge">
<title>Node2&#45;&gt;Node32</title>
<path fill="none" stroke="midnightblue" d="M895.43,-347.44C858.32,-338.12 798.84,-323.18 758.29,-313"/>
<polygon fill="midnightblue" stroke="midnightblue" points="758.96,-309.56 748.41,-310.52 757.25,-316.35 758.96,-309.56"/>
</g>
<!-- Node36 -->
<g id="node28" class="node">
<title>Node36</title>
<g id="a_node28"><a xlink:title=" ">
<polygon fill="none" stroke="#bfbfbf" points="1254.5,-179.5 1254.5,-198.5 1370.5,-198.5 1370.5,-179.5 1254.5,-179.5"/>
<text text-anchor="middle" x="1312.5" y="-186.5" font-family="Helvetica,sans-Serif" font-size="10.00">G4LogicalVolume.hh</text>
</a>
</g>
</g>
<!-- Node2&#45;&gt;Node36 -->
<g id="edge32" class="edge">
<title>Node2&#45;&gt;Node36</title>
<path fill="none" stroke="midnightblue" d="M980.06,-349.11C1047.43,-338.07 1168.27,-311.61 1255.5,-255 1274.71,-242.53 1291.27,-221.84 1301.51,-207.15"/>
<polygon fill="midnightblue" stroke="midnightblue" points="1304.64,-208.77 1307.3,-198.51 1298.83,-204.87 1304.64,-208.77"/>
</g>
<!-- Node37 -->
<g id="node29" class="node">
<title>Node37</title>
<g id="a_node29"><a xlink:title=" ">
<polygon fill="none" stroke="#bfbfbf" points="885,-291.5 885,-310.5 974,-310.5 974,-291.5 885,-291.5"/>
<text text-anchor="middle" x="929.5" y="-298.5" font-family="Helvetica,sans-Serif" font-size="10.00">G4Polycone.hh</text>
</a>
</g>
</g>
<!-- Node2&#45;&gt;Node37 -->
<g id="edge33" class="edge">
<title>Node2&#45;&gt;Node37</title>
<path fill="none" stroke="midnightblue" d="M929.5,-347.08C929.5,-340.01 929.5,-329.86 929.5,-320.99"/>
<polygon fill="midnightblue" stroke="midnightblue" points="933,-320.75 929.5,-310.75 926,-320.75 933,-320.75"/>
</g>
<!-- Node3&#45;&gt;Node3 -->
<g id="edge15" class="edge">
<title>Node3&#45;&gt;Node3</title>
<path fill="none" stroke="midnightblue" d="M538.95,-254.53C565.76,-257.31 592,-254.13 592,-245 592,-237.01 571.91,-233.58 548.93,-234.71"/>
<polygon fill="midnightblue" stroke="midnightblue" points="548.65,-231.22 538.95,-235.47 549.19,-238.2 548.65,-231.22"/>
</g>
<!-- Node4 -->
<g id="node4" class="node">
<title>Node4</title>
<g id="a_node4"><a xlink:href="abc_detector_component_8hh.html" target="_top" xlink:title="Provides helper base class abcDetectorComponent for constructing and managing detector components in ...">
<polygon fill="none" stroke="black" points="406,-179.5 406,-198.5 553,-198.5 553,-179.5 406,-179.5"/>
<text text-anchor="middle" x="479.5" y="-186.5" font-family="Helvetica,sans-Serif" font-size="10.00">abcDetectorComponent.hh</text>
</a>
</g>
</g>
<!-- Node3&#45;&gt;Node4 -->
<g id="edge3" class="edge">
<title>Node3&#45;&gt;Node4</title>
<path fill="none" stroke="midnightblue" d="M496.2,-235.08C493.52,-227.85 489.65,-217.41 486.31,-208.4"/>
<polygon fill="midnightblue" stroke="midnightblue" points="489.5,-206.91 482.74,-198.75 482.93,-209.34 489.5,-206.91"/>
</g>
<!-- Node25 -->
<g id="node16" class="node">
<title>Node25</title>
<g id="a_node16"><a xlink:href="_o_m_sim_p_m_t_response_8hh.html" target="_top" xlink:title="Simulation of PMT response.">
<polygon fill="none" stroke="black" points="571,-179.5 571,-198.5 706,-198.5 706,-179.5 571,-179.5"/>
<text text-anchor="middle" x="638.5" y="-186.5" font-family="Helvetica,sans-Serif" font-size="10.00">OMSimPMTResponse.hh</text>
</a>
</g>
</g>
<!-- Node3&#45;&gt;Node25 -->
<g id="edge16" class="edge">
<title>Node3&#45;&gt;Node25</title>
<path fill="none" stroke="midnightblue" d="M521.52,-235.44C544.6,-226.48 581.06,-212.31 607.14,-202.18"/>
<polygon fill="midnightblue" stroke="midnightblue" points="608.52,-205.4 616.58,-198.52 605.99,-198.88 608.52,-205.4"/>
</g>
<!-- Node30 -->
<g id="node21" class="node">
<title>Node30</title>
<g id="a_node21"><a xlink:title=" ">
<polygon fill="none" stroke="#bfbfbf" points="289.5,-179.5 289.5,-198.5 387.5,-198.5 387.5,-179.5 289.5,-179.5"/>
<text text-anchor="middle" x="338.5" y="-186.5" font-family="Helvetica,sans-Serif" font-size="10.00">G4UnionSolid.hh</text>
</a>
</g>
</g>
<!-- Node3&#45;&gt;Node30 -->
<g id="edge22" class="edge">
<title>Node3&#45;&gt;Node30</title>
<path fill="none" stroke="midnightblue" d="M473.99,-235.44C446.9,-226.36 403.91,-211.94 373.63,-201.78"/>
<polygon fill="midnightblue" stroke="midnightblue" points="374.49,-198.38 363.89,-198.52 372.26,-205.01 374.49,-198.38"/>
</g>
<!-- Node31 -->
<g id="node22" class="node">
<title>Node31</title>
<g id="a_node22"><a xlink:title=" ">
<polygon fill="none" stroke="#bfbfbf" points="204,-179.5 204,-198.5 271,-198.5 271,-179.5 204,-179.5"/>
<text text-anchor="middle" x="237.5" y="-186.5" font-family="Helvetica,sans-Serif" font-size="10.00">G4Tubs.hh</text>
</a>
</g>
</g>
<!-- Node3&#45;&gt;Node31 -->
<g id="edge23" class="edge">
<title>Node3&#45;&gt;Node31</title>
<path fill="none" stroke="midnightblue" d="M457.51,-235.42C415.48,-226.82 348.7,-213.13 281.25,-199.15"/>
<polygon fill="midnightblue" stroke="midnightblue" points="281.8,-195.69 271.3,-197.09 280.38,-202.54 281.8,-195.69"/>
</g>
<!-- Node5 -->
<g id="node5" class="node">
<title>Node5</title>
<g id="a_node5"><a xlink:href="_o_m_sim_input_data_8hh.html" target="_top" xlink:title="Definition of ParameterTable and OMSimInputData.">
<polygon fill="none" stroke="red" points="524,-123.5 524,-142.5 639,-142.5 639,-123.5 524,-123.5"/>
<text text-anchor="middle" x="581.5" y="-130.5" font-family="Helvetica,sans-Serif" font-size="10.00">OMSimInputData.hh</text>
</a>
</g>
</g>
<!-- Node4&#45;&gt;Node5 -->
<g id="edge4" class="edge">
<title>Node4&#45;&gt;Node5</title>
<path fill="none" stroke="midnightblue" d="M495.89,-179.32C512.17,-170.7 537.37,-157.36 556.22,-147.39"/>
<polygon fill="midnightblue" stroke="midnightblue" points="557.95,-150.43 565.15,-142.65 554.68,-144.24 557.95,-150.43"/>
</g>
<!-- Node21 -->
<g id="node12" class="node">
<title>Node21</title>
<g id="a_node12"><a xlink:title=" ">
<polygon fill="none" stroke="#bfbfbf" points="272,-123.5 272,-142.5 379,-142.5 379,-123.5 272,-123.5"/>
<text text-anchor="middle" x="325.5" y="-130.5" font-family="Helvetica,sans-Serif" font-size="10.00">G4Transform3D.hh</text>
</a>
</g>
</g>
<!-- Node4&#45;&gt;Node21 -->
<g id="edge11" class="edge">
<title>Node4&#45;&gt;Node21</title>
<path fill="none" stroke="midnightblue" d="M455.1,-179.44C429.3,-170.4 388.42,-156.06 359.48,-145.92"/>
<polygon fill="midnightblue" stroke="midnightblue" points="360.38,-142.52 349.79,-142.52 358.07,-149.13 360.38,-142.52"/>
</g>
<!-- Node22 -->
<g id="node13" class="node">
<title>Node22</title>
<g id="a_node13"><a xlink:title=" ">
<polygon fill="none" stroke="#bfbfbf" points="397.5,-123.5 397.5,-142.5 505.5,-142.5 505.5,-123.5 397.5,-123.5"/>
<text text-anchor="middle" x="451.5" y="-130.5" font-family="Helvetica,sans-Serif" font-size="10.00">G4VisAttributes.hh</text>
</a>
</g>
</g>
<!-- Node4&#45;&gt;Node22 -->
<g id="edge12" class="edge">
<title>Node4&#45;&gt;Node22</title>
<path fill="none" stroke="midnightblue" d="M474.88,-179.08C471.04,-171.69 465.48,-160.95 460.74,-151.81"/>
<polygon fill="midnightblue" stroke="midnightblue" points="463.75,-150.02 456.04,-142.75 457.53,-153.24 463.75,-150.02"/>
</g>
<!-- Node23 -->
<g id="node14" class="node">
<title>Node23</title>
<g id="a_node14"><a xlink:title=" ">
<polygon fill="none" stroke="#bfbfbf" points="0,-123.5 0,-142.5 125,-142.5 125,-123.5 0,-123.5"/>
<text text-anchor="middle" x="62.5" y="-130.5" font-family="Helvetica,sans-Serif" font-size="10.00">G4SubtractionSolid.hh</text>
</a>
</g>
</g>
<!-- Node4&#45;&gt;Node23 -->
<g id="edge13" class="edge">
<title>Node4&#45;&gt;Node23</title>
<path fill="none" stroke="midnightblue" d="M413.43,-179.44C337.71,-169.64 213.99,-153.62 135.49,-143.45"/>
<polygon fill="midnightblue" stroke="midnightblue" points="135.56,-139.93 125.2,-142.12 134.67,-146.87 135.56,-139.93"/>
</g>
<!-- Node24 -->
<g id="node15" class="node">
<title>Node24</title>
<g id="a_node15"><a xlink:title=" ">
<polygon fill="none" stroke="#bfbfbf" points="143.5,-123.5 143.5,-142.5 253.5,-142.5 253.5,-123.5 143.5,-123.5"/>
<text text-anchor="middle" x="198.5" y="-130.5" font-family="Helvetica,sans-Serif" font-size="10.00">G4PVPlacement.hh</text>
</a>
</g>
</g>
<!-- Node4&#45;&gt;Node24 -->
<g id="edge14" class="edge">
<title>Node4&#45;&gt;Node24</title>
<path fill="none" stroke="midnightblue" d="M434.97,-179.44C385.54,-169.94 305.75,-154.61 252.72,-144.42"/>
<polygon fill="midnightblue" stroke="midnightblue" points="253.3,-140.97 242.82,-142.52 251.98,-147.84 253.3,-140.97"/>
</g>
<!-- Node5&#45;&gt;Node6 -->
<g id="edge5" class="edge">
<title>Node5&#45;&gt;Node6</title>
<path fill="none" stroke="midnightblue" d="M639.24,-126.67C654.59,-125.36 671.17,-124.04 686.5,-123 1007.39,-101.34 1392.46,-85.75 1538.44,-80.21"/>
<polygon fill="midnightblue" stroke="midnightblue" points="1538.68,-83.7 1548.54,-79.83 1538.41,-76.71 1538.68,-83.7"/>
</g>
<!-- Node19 -->
<g id="node11" class="node">
<title>Node19</title>
<g id="a_node11"><a xlink:title=" ">
<polygon fill="none" stroke="#bfbfbf" points="565,-67.5 565,-86.5 684,-86.5 684,-67.5 565,-67.5"/>
<text text-anchor="middle" x="624.5" y="-74.5" font-family="Helvetica,sans-Serif" font-size="10.00">G4SystemOfUnits.hh</text>
</a>
</g>
</g>
<!-- Node5&#45;&gt;Node19 -->
<g id="edge10" class="edge">
<title>Node5&#45;&gt;Node19</title>
<path fill="none" stroke="midnightblue" d="M588.6,-123.08C594.74,-115.38 603.77,-104.03 611.24,-94.65"/>
<polygon fill="midnightblue" stroke="midnightblue" points="614.04,-96.75 617.53,-86.75 608.56,-92.39 614.04,-96.75"/>
</g>
<!-- Node7 -->
<g id="node7" class="node">
<title>Node7</title>
<g id="a_node7"><a xlink:title=" ">
<polygon fill="none" stroke="#bfbfbf" points="1432,-6 1432,-25 1525,-25 1525,-6 1432,-6"/>
<text text-anchor="middle" x="1478.5" y="-13" font-family="Helvetica,sans-Serif" font-size="10.00">spdlog/spdlog.h</text>
</a>
</g>
</g>
<!-- Node6&#45;&gt;Node7 -->
<g id="edge6" class="edge">
<title>Node6&#45;&gt;Node7</title>
<path fill="none" stroke="midnightblue" d="M1581.31,-67.48C1561.26,-57.53 1527.9,-40.99 1504.64,-29.46"/>
<polygon fill="midnightblue" stroke="midnightblue" points="1506.18,-26.32 1495.66,-25.01 1503.07,-32.59 1506.18,-26.32"/>
</g>
<!-- Node8 -->
<g id="node8" class="node">
<title>Node8</title>
<g id="a_node8"><a xlink:title=" ">
<polygon fill="none" stroke="#bfbfbf" points="1543,-0.5 1543,-30.5 1654,-30.5 1654,-0.5 1543,-0.5"/>
<text text-anchor="start" x="1551" y="-18.5" font-family="Helvetica,sans-Serif" font-size="10.00">spdlog/sinks/stdout</text>
<text text-anchor="middle" x="1598.5" y="-7.5" font-family="Helvetica,sans-Serif" font-size="10.00">_color_sinks.h</text>
</a>
</g>
</g>
<!-- Node6&#45;&gt;Node8 -->
<g id="edge7" class="edge">
<title>Node6&#45;&gt;Node8</title>
<path fill="none" stroke="midnightblue" d="M1598.5,-67.48C1598.5,-60.47 1598.5,-50.19 1598.5,-40.7"/>
<polygon fill="midnightblue" stroke="midnightblue" points="1602,-40.52 1598.5,-30.52 1595,-40.52 1602,-40.52"/>
</g>
<!-- Node9 -->
<g id="node9" class="node">
<title>Node9</title>
<g id="a_node9"><a xlink:title=" ">
<polygon fill="none" stroke="#bfbfbf" points="2533.5,-6 2533.5,-25 2591.5,-25 2591.5,-6 2533.5,-6"/>
<text text-anchor="middle" x="2562.5" y="-13" font-family="Helvetica,sans-Serif" font-size="10.00">memory</text>
</a>
</g>
</g>
<!-- Node6&#45;&gt;Node9 -->
<g id="edge8" class="edge">
<title>Node6&#45;&gt;Node9</title>
<path fill="none" stroke="midnightblue" d="M1648.3,-72.93C1817.73,-62.47 2369.8,-28.39 2522.84,-18.95"/>
<polygon fill="midnightblue" stroke="midnightblue" points="2523.4,-22.42 2533.16,-18.31 2522.97,-15.43 2523.4,-22.42"/>
</g>
<!-- Node10 -->
<g id="node10" class="node">
<title>Node10</title>
<g id="a_node10"><a xlink:title=" ">
<polygon fill="none" stroke="#bfbfbf" points="1672.5,-6 1672.5,-25 1770.5,-25 1770.5,-6 1672.5,-6"/>
<text text-anchor="middle" x="1721.5" y="-13" font-family="Helvetica,sans-Serif" font-size="10.00">spdlog/fmt/fmt.h</text>
</a>
</g>
</g>
<!-- Node6&#45;&gt;Node10 -->
<g id="edge9" class="edge">
<title>Node6&#45;&gt;Node10</title>
<path fill="none" stroke="midnightblue" d="M1616.12,-67.48C1636.67,-57.53 1670.86,-40.99 1694.71,-29.46"/>
<polygon fill="midnightblue" stroke="midnightblue" points="1696.43,-32.51 1703.91,-25.01 1693.38,-26.21 1696.43,-32.51"/>
</g>
<!-- Node25&#45;&gt;Node19 -->
<g id="edge17" class="edge">
<title>Node25&#45;&gt;Node19</title>
<path fill="none" stroke="midnightblue" d="M641.68,-179.49C645.9,-166.97 652.3,-142.94 647.5,-123 645.19,-113.42 640.48,-103.58 635.92,-95.56"/>
<polygon fill="midnightblue" stroke="midnightblue" points="638.79,-93.54 630.6,-86.81 632.81,-97.17 638.79,-93.54"/>
</g>
<!-- Node26 -->
<g id="node17" class="node">
<title>Node26</title>
<g id="a_node17"><a xlink:title=" ">
<polygon fill="none" stroke="#bfbfbf" points="846,-123.5 846,-142.5 919,-142.5 919,-123.5 846,-123.5"/>
<text text-anchor="middle" x="882.5" y="-130.5" font-family="Helvetica,sans-Serif" font-size="10.00">G4Types.hh</text>
</a>
</g>
</g>
<!-- Node25&#45;&gt;Node26 -->
<g id="edge18" class="edge">
<title>Node25&#45;&gt;Node26</title>
<path fill="none" stroke="midnightblue" d="M677.16,-179.44C720.14,-169.93 789.54,-154.57 835.59,-144.38"/>
<polygon fill="midnightblue" stroke="midnightblue" points="836.61,-147.74 845.62,-142.16 835.1,-140.91 836.61,-147.74"/>
</g>
<!-- Node27 -->
<g id="node18" class="node">
<title>Node27</title>
<g id="a_node18"><a xlink:title=" ">
<polygon fill="none" stroke="#bfbfbf" points="1063.5,-123.5 1063.5,-142.5 1101.5,-142.5 1101.5,-123.5 1063.5,-123.5"/>
<text text-anchor="middle" x="1082.5" y="-130.5" font-family="Helvetica,sans-Serif" font-size="10.00">map</text>
</a>
</g>
</g>
<!-- Node25&#45;&gt;Node27 -->
<g id="edge19" class="edge">
<title>Node25&#45;&gt;Node27</title>
<path fill="none" stroke="midnightblue" d="M706.42,-179.74C804.88,-167.76 983.13,-146.09 1053.14,-137.57"/>
<polygon fill="midnightblue" stroke="midnightblue" points="1053.92,-141 1063.42,-136.32 1053.07,-134.05 1053.92,-141"/>
</g>
<!-- Node28 -->
<g id="node19" class="node">
<title>Node28</title>
<g id="a_node19"><a xlink:title=" ">
<polygon fill="none" stroke="#bfbfbf" points="696,-123.5 696,-142.5 757,-142.5 757,-123.5 696,-123.5"/>
<text text-anchor="middle" x="726.5" y="-130.5" font-family="Helvetica,sans-Serif" font-size="10.00">TGraph.h</text>
</a>
</g>
</g>
<!-- Node25&#45;&gt;Node28 -->
<g id="edge20" class="edge">
<title>Node25&#45;&gt;Node28</title>
<path fill="none" stroke="midnightblue" d="M652.64,-179.32C666.37,-170.9 687.44,-157.97 703.56,-148.07"/>
<polygon fill="midnightblue" stroke="midnightblue" points="705.7,-150.87 712.4,-142.65 702.04,-144.9 705.7,-150.87"/>
</g>
<!-- Node29 -->
<g id="node20" class="node">
<title>Node29</title>
<g id="a_node20"><a xlink:title=" ">
<polygon fill="none" stroke="#bfbfbf" points="775,-123.5 775,-142.5 828,-142.5 828,-123.5 775,-123.5"/>
<text text-anchor="middle" x="801.5" y="-130.5" font-family="Helvetica,sans-Serif" font-size="10.00">TH2D.h</text>
</a>
</g>
</g>
<!-- Node25&#45;&gt;Node29 -->
<g id="edge21" class="edge">
<title>Node25&#45;&gt;Node29</title>
<path fill="none" stroke="midnightblue" d="M664.33,-179.44C691.75,-170.36 735.28,-155.94 765.93,-145.78"/>
<polygon fill="midnightblue" stroke="midnightblue" points="767.4,-148.98 775.79,-142.52 765.2,-142.34 767.4,-148.98"/>
</g>
<!-- Node32&#45;&gt;Node3 -->
<g id="edge31" class="edge">
<title>Node32&#45;&gt;Node3</title>
<path fill="none" stroke="midnightblue" d="M680.43,-291.44C643.32,-282.12 583.84,-267.18 543.29,-257"/>
<polygon fill="midnightblue" stroke="midnightblue" points="543.96,-253.56 533.41,-254.52 542.25,-260.35 543.96,-253.56"/>
</g>
<!-- Node32&#45;&gt;Node4 -->
<g id="edge25" class="edge">
<title>Node32&#45;&gt;Node4</title>
<path fill="none" stroke="midnightblue" d="M701.19,-291.46C680.3,-278.28 638.27,-252.65 600.5,-235 572.84,-222.07 540.35,-210.16 516.01,-201.85"/>
<polygon fill="midnightblue" stroke="midnightblue" points="517.04,-198.5 506.44,-198.62 514.8,-205.13 517.04,-198.5"/>
</g>
<!-- Node33 -->
<g id="node24" class="node">
<title>Node33</title>
<g id="a_node24"><a xlink:href="_o_m_sim_hit_manager_8hh.html" target="_top" xlink:title="Defines structures and classes related to optical module photon hit management.">
<polygon fill="none" stroke="red" points="708,-235.5 708,-254.5 831,-254.5 831,-235.5 708,-235.5"/>
<text text-anchor="middle" x="769.5" y="-242.5" font-family="Helvetica,sans-Serif" font-size="10.00">OMSimHitManager.hh</text>
</a>
</g>
</g>
<!-- Node32&#45;&gt;Node33 -->
<g id="edge26" class="edge">
<title>Node32&#45;&gt;Node33</title>
<path fill="none" stroke="midnightblue" d="M723.58,-291.08C731.67,-283.14 743.7,-271.34 753.41,-261.8"/>
<polygon fill="midnightblue" stroke="midnightblue" points="755.9,-264.25 760.59,-254.75 751,-259.26 755.9,-264.25"/>
</g>
<!-- Node33&#45;&gt;Node25 -->
<g id="edge27" class="edge">
<title>Node33&#45;&gt;Node25</title>
<path fill="none" stroke="midnightblue" d="M748.74,-235.44C727.18,-226.56 693.24,-212.56 668.71,-202.45"/>
<polygon fill="midnightblue" stroke="midnightblue" points="669.74,-199.09 659.16,-198.52 667.07,-205.56 669.74,-199.09"/>
</g>
<!-- Node34 -->
<g id="node25" class="node">
<title>Node34</title>
<g id="a_node25"><a xlink:title=" ">
<polygon fill="none" stroke="#bfbfbf" points="833,-179.5 833,-198.5 936,-198.5 936,-179.5 833,-179.5"/>
<text text-anchor="middle" x="884.5" y="-186.5" font-family="Helvetica,sans-Serif" font-size="10.00">G4ThreeVector.hh</text>
</a>
</g>
</g>
<!-- Node33&#45;&gt;Node34 -->
<g id="edge28" class="edge">
<title>Node33&#45;&gt;Node34</title>
<path fill="none" stroke="midnightblue" d="M787.72,-235.44C806.4,-226.68 835.66,-212.94 857.12,-202.86"/>
<polygon fill="midnightblue" stroke="midnightblue" points="858.8,-205.93 866.36,-198.52 855.82,-199.6 858.8,-205.93"/>
</g>
<!-- Node35 -->
<g id="node26" class="node">
<title>Node35</title>
<g id="a_node26"><a xlink:title=" ">
<polygon fill="none" stroke="#bfbfbf" points="1057,-179.5 1057,-198.5 1112,-198.5 1112,-179.5 1057,-179.5"/>
<text text-anchor="middle" x="1084.5" y="-186.5" font-family="Helvetica,sans-Serif" font-size="10.00">fstream</text>
</a>
</g>
</g>
<!-- Node33&#45;&gt;Node35 -->
<g id="edge29" class="edge">
<title>Node33&#45;&gt;Node35</title>
<path fill="none" stroke="midnightblue" d="M830.76,-235.49C884.94,-227.64 966.33,-215.08 1046.41,-199.09"/>
<polygon fill="midnightblue" stroke="midnightblue" points="1047.56,-202.42 1056.67,-197.02 1046.18,-195.56 1047.56,-202.42"/>
</g>
<!-- Node17 -->
<g id="node27" class="node">
<title>Node17</title>
<g id="a_node27"><a xlink:title=" ">
<polygon fill="none" stroke="#bfbfbf" points="724.5,-179.5 724.5,-198.5 814.5,-198.5 814.5,-179.5 724.5,-179.5"/>
<text text-anchor="middle" x="769.5" y="-186.5" font-family="Helvetica,sans-Serif" font-size="10.00">G4AutoLock.hh</text>
</a>
</g>
</g>
<!-- Node33&#45;&gt;Node17 -->
<g id="edge30" class="edge">
<title>Node33&#45;&gt;Node17</title>
<path fill="none" stroke="midnightblue" d="M769.5,-235.08C769.5,-228.01 769.5,-217.86 769.5,-208.99"/>
<polygon fill="midnightblue" stroke="midnightblue" points="773,-208.75 769.5,-198.75 766,-208.75 773,-208.75"/>
</g>
<!-- Node38&#45;&gt;Node9 -->
<g id="edge40" class="edge">
<title>Node38&#45;&gt;Node9</title>
<path fill="none" stroke="midnightblue" d="M2048.09,-243.45C2214.43,-240.96 2849.55,-229.49 2878.5,-199 2969.07,-103.62 2704.89,-42.91 2601.8,-23.37"/>
<polygon fill="midnightblue" stroke="midnightblue" points="2602.24,-19.89 2591.77,-21.5 2600.96,-26.77 2602.24,-19.89"/>
</g>
<!-- Node38&#45;&gt;Node27 -->
<g id="edge37" class="edge">
<title>Node38&#45;&gt;Node27</title>
<path fill="none" stroke="midnightblue" d="M1968.99,-243.08C1854.08,-240.07 1521.58,-228.95 1417.5,-199 1399.16,-193.72 1397.63,-184.96 1379.5,-179 1284.94,-147.93 1166.3,-138.18 1112.04,-135.22"/>
<polygon fill="midnightblue" stroke="midnightblue" points="1111.94,-131.71 1101.77,-134.71 1111.58,-138.71 1111.94,-131.71"/>
</g>
<!-- Node38&#45;&gt;Node34 -->
<g id="edge38" class="edge">
<title>Node38&#45;&gt;Node34</title>
<path fill="none" stroke="midnightblue" d="M1968.82,-243.81C1829.79,-242.82 1351.65,-236.79 946.2,-198.95"/>
<polygon fill="midnightblue" stroke="midnightblue" points="946.32,-195.44 936.04,-197.99 945.67,-202.41 946.32,-195.44"/>
</g>
<!-- Node38&#45;&gt;Node35 -->
<g id="edge51" class="edge">
<title>Node38&#45;&gt;Node35</title>
<path fill="none" stroke="midnightblue" d="M1969,-242.98C1822.23,-239.06 1307.73,-223.91 1122.17,-198.75"/>
<polygon fill="midnightblue" stroke="midnightblue" points="1122.66,-195.28 1112.27,-197.35 1121.68,-202.21 1122.66,-195.28"/>
</g>
<!-- Node38&#45;&gt;Node36 -->
<g id="edge45" class="edge">
<title>Node38&#45;&gt;Node36</title>
<path fill="none" stroke="midnightblue" d="M1968.65,-241.85C1869.68,-236.36 1604.74,-220.69 1384.5,-199 1383.23,-198.87 1381.95,-198.75 1380.66,-198.61"/>
<polygon fill="midnightblue" stroke="midnightblue" points="1380.95,-195.12 1370.63,-197.53 1380.2,-202.08 1380.95,-195.12"/>
</g>
<!-- Node39 -->
<g id="node31" class="node">
<title>Node39</title>
<g id="a_node31"><a xlink:title=" ">
<polygon fill="none" stroke="#bfbfbf" points="1426.5,-179.5 1426.5,-198.5 1500.5,-198.5 1500.5,-179.5 1426.5,-179.5"/>
<text text-anchor="middle" x="1463.5" y="-186.5" font-family="Helvetica,sans-Serif" font-size="10.00">G4String.hh</text>
</a>
</g>
</g>
<!-- Node38&#45;&gt;Node39 -->
<g id="edge35" class="edge">
<title>Node38&#45;&gt;Node39</title>
<path fill="none" stroke="midnightblue" d="M1968.88,-241.82C1885.8,-236.95 1687.13,-223.74 1510.59,-199.02"/>
<polygon fill="midnightblue" stroke="midnightblue" points="1510.99,-195.54 1500.6,-197.6 1510.01,-202.47 1510.99,-195.54"/>
</g>
<!-- Node40 -->
<g id="node32" class="node">
<title>Node40</title>
<g id="a_node32"><a xlink:title=" ">
<polygon fill="none" stroke="#bfbfbf" points="1518.5,-179.5 1518.5,-198.5 1582.5,-198.5 1582.5,-179.5 1518.5,-179.5"/>
<text text-anchor="middle" x="1550.5" y="-186.5" font-family="Helvetica,sans-Serif" font-size="10.00">algorithm</text>
</a>
</g>
</g>
<!-- Node38&#45;&gt;Node40 -->
<g id="edge36" class="edge">
<title>Node38&#45;&gt;Node40</title>
<path fill="none" stroke="midnightblue" d="M1968.93,-241.17C1896.29,-235.66 1736.68,-222.12 1592.57,-199.01"/>
<polygon fill="midnightblue" stroke="midnightblue" points="1593.1,-195.55 1582.67,-197.41 1591.98,-202.46 1593.1,-195.55"/>
</g>
<!-- Node41 -->
<g id="node33" class="node">
<title>Node41</title>
<g id="a_node33"><a xlink:title=" ">
<polygon fill="none" stroke="#bfbfbf" points="1601,-179.5 1601,-198.5 1720,-198.5 1720,-179.5 1601,-179.5"/>
<text text-anchor="middle" x="1660.5" y="-186.5" font-family="Helvetica,sans-Serif" font-size="10.00">G4TriangularFacet.hh</text>
</a>
</g>
</g>
<!-- Node38&#45;&gt;Node41 -->
<g id="edge39" class="edge">
<title>Node38&#45;&gt;Node41</title>
<path fill="none" stroke="midnightblue" d="M1968.92,-237.86C1909.66,-228.66 1797.22,-211.21 1725.71,-200.12"/>
<polygon fill="midnightblue" stroke="midnightblue" points="1725.89,-196.6 1715.47,-198.53 1724.81,-203.52 1725.89,-196.6"/>
</g>
<!-- Node42 -->
<g id="node34" class="node">
<title>Node42</title>
<g id="a_node34"><a xlink:title=" ">
<polygon fill="none" stroke="#bfbfbf" points="1738,-179.5 1738,-198.5 1785,-198.5 1785,-179.5 1738,-179.5"/>
<text text-anchor="middle" x="1761.5" y="-186.5" font-family="Helvetica,sans-Serif" font-size="10.00">vector</text>
</a>
</g>
</g>
<!-- Node38&#45;&gt;Node42 -->
<g id="edge41" class="edge">
<title>Node38&#45;&gt;Node42</title>
<path fill="none" stroke="midnightblue" d="M1968.9,-236.4C1927.85,-228.36 1861.6,-214.94 1795.07,-199.02"/>
<polygon fill="midnightblue" stroke="midnightblue" points="1795.79,-195.6 1785.25,-196.66 1794.15,-202.4 1795.79,-195.6"/>
</g>
<!-- Node43 -->
<g id="node35" class="node">
<title>Node43</title>
<g id="a_node35"><a xlink:title=" ">
<polygon fill="none" stroke="#bfbfbf" points="1803.5,-179.5 1803.5,-198.5 1863.5,-198.5 1863.5,-179.5 1803.5,-179.5"/>
<text text-anchor="middle" x="1833.5" y="-186.5" font-family="Helvetica,sans-Serif" font-size="10.00">iostream</text>
</a>
</g>
</g>
<!-- Node38&#45;&gt;Node43 -->
<g id="edge42" class="edge">
<title>Node38&#45;&gt;Node43</title>
<path fill="none" stroke="midnightblue" d="M1980.77,-235.44C1951.07,-226.28 1903.78,-211.69 1870.83,-201.52"/>
<polygon fill="midnightblue" stroke="midnightblue" points="1871.69,-198.12 1861.1,-198.52 1869.62,-204.81 1871.69,-198.12"/>
</g>
<!-- Node44 -->
<g id="node36" class="node">
<title>Node44</title>
<g id="a_node36"><a xlink:title=" ">
<polygon fill="none" stroke="#bfbfbf" points="1881.5,-179.5 1881.5,-198.5 1925.5,-198.5 1925.5,-179.5 1881.5,-179.5"/>
<text text-anchor="middle" x="1903.5" y="-186.5" font-family="Helvetica,sans-Serif" font-size="10.00">string</text>
</a>
</g>
</g>
<!-- Node38&#45;&gt;Node44 -->
<g id="edge43" class="edge">
<title>Node38&#45;&gt;Node44</title>
<path fill="none" stroke="midnightblue" d="M1991.63,-235.32C1974.79,-226.66 1948.69,-213.24 1929.26,-203.25"/>
<polygon fill="midnightblue" stroke="midnightblue" points="1930.82,-200.12 1920.33,-198.65 1927.62,-206.34 1930.82,-200.12"/>
</g>
<!-- Node45 -->
<g id="node37" class="node">
<title>Node45</title>
<g id="a_node37"><a xlink:title=" ">
<polygon fill="none" stroke="#bfbfbf" points="1943.5,-179.5 1943.5,-198.5 2073.5,-198.5 2073.5,-179.5 1943.5,-179.5"/>
<text text-anchor="middle" x="2008.5" y="-186.5" font-family="Helvetica,sans-Serif" font-size="10.00">G4AssemblyVolume.hh</text>
</a>
</g>
</g>
<!-- Node38&#45;&gt;Node45 -->
<g id="edge44" class="edge">
<title>Node38&#45;&gt;Node45</title>
<path fill="none" stroke="midnightblue" d="M2008.5,-235.08C2008.5,-228.01 2008.5,-217.86 2008.5,-208.99"/>
<polygon fill="midnightblue" stroke="midnightblue" points="2012,-208.75 2008.5,-198.75 2005,-208.75 2012,-208.75"/>
</g>
<!-- Node46 -->
<g id="node38" class="node">
<title>Node46</title>
<g id="a_node38"><a xlink:title=" ">
<polygon fill="none" stroke="#bfbfbf" points="2091.5,-179.5 2091.5,-198.5 2177.5,-198.5 2177.5,-179.5 2091.5,-179.5"/>
<text text-anchor="middle" x="2134.5" y="-186.5" font-family="Helvetica,sans-Serif" font-size="10.00">G4Material.hh</text>
</a>
</g>
</g>
<!-- Node38&#45;&gt;Node46 -->
<g id="edge46" class="edge">
<title>Node38&#45;&gt;Node46</title>
<path fill="none" stroke="midnightblue" d="M2028.47,-235.44C2049.11,-226.6 2081.56,-212.69 2105.13,-202.59"/>
<polygon fill="midnightblue" stroke="midnightblue" points="2106.82,-205.67 2114.63,-198.52 2104.06,-199.24 2106.82,-205.67"/>
</g>
<!-- Node47 -->
<g id="node39" class="node">
<title>Node47</title>
<g id="a_node39"><a xlink:title=" ">
<polygon fill="none" stroke="#bfbfbf" points="2195.5,-179.5 2195.5,-198.5 2319.5,-198.5 2319.5,-179.5 2195.5,-179.5"/>
<text text-anchor="middle" x="2257.5" y="-186.5" font-family="Helvetica,sans-Serif" font-size="10.00">G4TessellatedSolid.hh</text>
</a>
</g>
</g>
<!-- Node38&#45;&gt;Node47 -->
<g id="edge47" class="edge">
<title>Node38&#45;&gt;Node47</title>
<path fill="none" stroke="midnightblue" d="M2047.95,-235.44C2091.39,-226.02 2161.29,-210.87 2208.28,-200.68"/>
<polygon fill="midnightblue" stroke="midnightblue" points="2209.2,-204.06 2218.23,-198.52 2207.72,-197.22 2209.2,-204.06"/>
</g>
<!-- Node48 -->
<g id="node40" class="node">
<title>Node48</title>
<g id="a_node40"><a xlink:title=" ">
<polygon fill="none" stroke="#bfbfbf" points="2338,-179.5 2338,-198.5 2397,-198.5 2397,-179.5 2338,-179.5"/>
<text text-anchor="middle" x="2367.5" y="-186.5" font-family="Helvetica,sans-Serif" font-size="10.00">G4Tet.hh</text>
</a>
</g>
</g>
<!-- Node38&#45;&gt;Node48 -->
<g id="edge48" class="edge">
<title>Node38&#45;&gt;Node48</title>
<path fill="none" stroke="midnightblue" d="M2048.09,-239.56C2106.88,-232.72 2220.93,-218.5 2327.76,-198.99"/>
<polygon fill="midnightblue" stroke="midnightblue" points="2328.55,-202.4 2337.75,-197.15 2327.28,-195.52 2328.55,-202.4"/>
</g>
<!-- Node49 -->
<g id="node41" class="node">
<title>Node49</title>
<g id="a_node41"><a xlink:title=" ">
<polygon fill="none" stroke="#bfbfbf" points="2415.5,-179.5 2415.5,-198.5 2519.5,-198.5 2519.5,-179.5 2415.5,-179.5"/>
<text text-anchor="middle" x="2467.5" y="-186.5" font-family="Helvetica,sans-Serif" font-size="10.00">G4UIcommand.hh</text>
</a>
</g>
</g>
<!-- Node38&#45;&gt;Node49 -->
<g id="edge49" class="edge">
<title>Node38&#45;&gt;Node49</title>
<path fill="none" stroke="midnightblue" d="M2048.28,-239.91C2119.83,-232.45 2274.97,-215.87 2405.5,-199 2405.6,-198.99 2405.7,-198.97 2405.8,-198.96"/>
<polygon fill="midnightblue" stroke="midnightblue" points="2405.97,-202.47 2415.42,-197.68 2405.05,-195.53 2405.97,-202.47"/>
</g>
<!-- Node50 -->
<g id="node42" class="node">
<title>Node50</title>
<g id="a_node42"><a xlink:title=" ">
<polygon fill="none" stroke="#bfbfbf" points="2538,-179.5 2538,-198.5 2605,-198.5 2605,-179.5 2538,-179.5"/>
<text text-anchor="middle" x="2571.5" y="-186.5" font-family="Helvetica,sans-Serif" font-size="10.00">globals.hh</text>
</a>
</g>
</g>
<!-- Node38&#45;&gt;Node50 -->
<g id="edge50" class="edge">
<title>Node38&#45;&gt;Node50</title>
<path fill="none" stroke="midnightblue" d="M2048.15,-242.19C2133.85,-237.94 2342.81,-225.7 2527.86,-198.91"/>
<polygon fill="midnightblue" stroke="midnightblue" points="2528.38,-202.37 2537.77,-197.46 2527.37,-195.45 2528.38,-202.37"/>
</g>
<!-- Node51 -->
<g id="node43" class="node">
<title>Node51</title>
<g id="a_node43"><a xlink:title=" ">
<polygon fill="none" stroke="#bfbfbf" points="2623.5,-179.5 2623.5,-198.5 2679.5,-198.5 2679.5,-179.5 2623.5,-179.5"/>
<text text-anchor="middle" x="2651.5" y="-186.5" font-family="Helvetica,sans-Serif" font-size="10.00">sstream</text>
</a>
</g>
</g>
<!-- Node38&#45;&gt;Node51 -->
<g id="edge52" class="edge">
<title>Node38&#45;&gt;Node51</title>
<path fill="none" stroke="midnightblue" d="M2048.03,-243.22C2144.95,-240.85 2401.94,-231.71 2613.5,-199 2613.6,-198.98 2613.7,-198.97 2613.8,-198.95"/>
<polygon fill="midnightblue" stroke="midnightblue" points="2614.18,-202.44 2623.38,-197.18 2612.91,-195.56 2614.18,-202.44"/>
</g>
<!-- Node52 -->
<g id="node44" class="node">
<title>Node52</title>
<g id="a_node44"><a xlink:title=" ">
<polygon fill="none" stroke="#bfbfbf" points="2698,-179.5 2698,-198.5 2765,-198.5 2765,-179.5 2698,-179.5"/>
<text text-anchor="middle" x="2731.5" y="-186.5" font-family="Helvetica,sans-Serif" font-size="10.00">streambuf</text>
</a>
</g>
</g>
<!-- Node38&#45;&gt;Node52 -->
<g id="edge53" class="edge">
<title>Node38&#45;&gt;Node52</title>
<path fill="none" stroke="midnightblue" d="M2048.17,-243.32C2151.77,-241.12 2439.03,-232.37 2687.83,-198.88"/>
<polygon fill="midnightblue" stroke="midnightblue" points="2688.34,-202.34 2697.78,-197.52 2687.4,-195.41 2688.34,-202.34"/>
</g>
<!-- Node53 -->
<g id="node45" class="node">
<title>Node53</title>
<g id="a_node45"><a xlink:title=" ">
<polygon fill="none" stroke="#bfbfbf" points="2783.5,-179.5 2783.5,-198.5 2869.5,-198.5 2869.5,-179.5 2783.5,-179.5"/>
<text text-anchor="middle" x="2826.5" y="-186.5" font-family="Helvetica,sans-Serif" font-size="10.00">Randomize.hh</text>
</a>
</g>
</g>
<!-- Node38&#45;&gt;Node53 -->
<g id="edge54" class="edge">
<title>Node38&#45;&gt;Node53</title>
<path fill="none" stroke="midnightblue" d="M2048.05,-243.2C2161.37,-240.58 2496.9,-230.52 2773.5,-199 2773.6,-198.99 2773.7,-198.98 2773.8,-198.97"/>
<polygon fill="midnightblue" stroke="midnightblue" points="2773.99,-202.47 2783.46,-197.71 2773.09,-195.53 2773.99,-202.47"/>
</g>
<!-- Node54&#45;&gt;Node6 -->
<g id="edge57" class="edge">
<title>Node54&#45;&gt;Node6</title>
<path fill="none" stroke="midnightblue" d="M1173.13,-235.09C1187.08,-221.15 1216.03,-194.25 1245.5,-179 1342.02,-129.06 1466.53,-100.84 1538.95,-87.56"/>
<polygon fill="midnightblue" stroke="midnightblue" points="1539.6,-91.01 1548.82,-85.79 1538.36,-84.12 1539.6,-91.01"/>
</g>
<!-- Node54&#45;&gt;Node35 -->
<g id="edge58" class="edge">
<title>Node54&#45;&gt;Node35</title>
<path fill="none" stroke="midnightblue" d="M1151.65,-235.32C1139.28,-226.98 1120.37,-214.21 1105.76,-204.35"/>
<polygon fill="midnightblue" stroke="midnightblue" points="1107.57,-201.35 1097.32,-198.65 1103.65,-207.15 1107.57,-201.35"/>
</g>
<!-- Node55 -->
<g id="node47" class="node">
<title>Node55</title>
<g id="a_node47"><a xlink:title=" ">
<polygon fill="none" stroke="#bfbfbf" points="954.5,-179.5 954.5,-198.5 1038.5,-198.5 1038.5,-179.5 954.5,-179.5"/>
<text text-anchor="middle" x="996.5" y="-186.5" font-family="Helvetica,sans-Serif" font-size="10.00">boost/any.hpp</text>
</a>
</g>
</g>
<!-- Node54&#45;&gt;Node55 -->
<g id="edge59" class="edge">
<title>Node54&#45;&gt;Node55</title>
<path fill="none" stroke="midnightblue" d="M1137.88,-235.44C1109.49,-226.32 1064.36,-211.81 1032.75,-201.65"/>
<polygon fill="midnightblue" stroke="midnightblue" points="1033.59,-198.24 1023,-198.52 1031.44,-204.91 1033.59,-198.24"/>
</g>
<!-- Node56 -->
<g id="node48" class="node">
<title>Node56</title>
<g id="a_node48"><a xlink:title=" ">
<polygon fill="none" stroke="#bfbfbf" points="1130.5,-179.5 1130.5,-198.5 1198.5,-198.5 1198.5,-179.5 1130.5,-179.5"/>
<text text-anchor="middle" x="1164.5" y="-186.5" font-family="Helvetica,sans-Serif" font-size="10.00">sys/time.h</text>
</a>
</g>
</g>
<!-- Node54&#45;&gt;Node56 -->
<g id="edge60" class="edge">
<title>Node54&#45;&gt;Node56</title>
<path fill="none" stroke="midnightblue" d="M1164.5,-235.08C1164.5,-228.01 1164.5,-217.86 1164.5,-208.99"/>
<polygon fill="midnightblue" stroke="midnightblue" points="1168,-208.75 1164.5,-198.75 1161,-208.75 1168,-208.75"/>
</g>
</g>
</svg>
