<?xml version="1.0" encoding="UTF-8" standalone="no"?>
<!DOCTYPE svg PUBLIC "-//W3C//DTD SVG 1.1//EN"
 "http://www.w3.org/Graphics/SVG/1.1/DTD/svg11.dtd">
<!-- Generated by graphviz version 2.43.0 (0)
 -->
<!-- Title: OMSim_QE_calibration.cc Pages: 1 -->
<svg width="1801pt" height="487pt"
 viewBox="0.00 0.00 1801.00 487.00" xmlns="http://www.w3.org/2000/svg" xmlns:xlink="http://www.w3.org/1999/xlink">
<g id="graph0" class="graph" transform="scale(1 1) rotate(0) translate(4 483)">
<title>OMSim_QE_calibration.cc</title>
<!-- Node1 -->
<g id="node1" class="node">
<title>Node1</title>
<g id="a_node1"><a xlink:title="Main for the calculation of effective areas.">
<polygon fill="#bfbfbf" stroke="black" points="641,-459.5 641,-478.5 782,-478.5 782,-459.5 641,-459.5"/>
<text text-anchor="middle" x="711.5" y="-466.5" font-family="Helvetica,sans-Serif" font-size="10.00">OMSim_QE_calibration.cc</text>
</a>
</g>
</g>
<!-- Node2 -->
<g id="node2" class="node">
<title>Node2</title>
<g id="a_node2"><a xlink:href="_o_m_sim_8hh.html" target="_top" xlink:title="Main simulation class for the Optical Module (OM) simulation. This file defines the OMSim class,...">
<polygon fill="none" stroke="black" points="678,-403.5 678,-422.5 745,-422.5 745,-403.5 678,-403.5"/>
<text text-anchor="middle" x="711.5" y="-410.5" font-family="Helvetica,sans-Serif" font-size="10.00">OMSim.hh</text>
</a>
</g>
</g>
<!-- Node1&#45;&gt;Node2 -->
<g id="edge1" class="edge">
<title>Node1&#45;&gt;Node2</title>
<path fill="none" stroke="midnightblue" d="M711.5,-459.08C711.5,-452.01 711.5,-441.86 711.5,-432.99"/>
<polygon fill="midnightblue" stroke="midnightblue" points="715,-432.75 711.5,-422.75 708,-432.75 715,-432.75"/>
</g>
<!-- Node59 -->
<g id="node45" class="node">
<title>Node59</title>
<g id="a_node45"><a xlink:href="_o_m_sim_beam_8hh_source.html" target="_top" xlink:title=" ">
<polygon fill="none" stroke="black" points="342,-403.5 342,-422.5 437,-422.5 437,-403.5 342,-403.5"/>
<text text-anchor="middle" x="389.5" y="-410.5" font-family="Helvetica,sans-Serif" font-size="10.00">OMSimBeam.hh</text>
</a>
</g>
</g>
<!-- Node1&#45;&gt;Node59 -->
<g id="edge51" class="edge">
<title>Node1&#45;&gt;Node59</title>
<path fill="none" stroke="midnightblue" d="M660.48,-459.44C602.48,-449.72 507.99,-433.87 447.31,-423.7"/>
<polygon fill="midnightblue" stroke="midnightblue" points="447.58,-420.19 437.13,-421.99 446.42,-427.09 447.58,-420.19"/>
</g>
<!-- Node61 -->
<g id="node47" class="node">
<title>Node61</title>
<g id="a_node47"><a xlink:title=" ">
<polygon fill="none" stroke="#bfbfbf" points="763.5,-403.5 763.5,-422.5 939.5,-422.5 939.5,-403.5 763.5,-403.5"/>
<text text-anchor="middle" x="851.5" y="-410.5" font-family="Helvetica,sans-Serif" font-size="10.00">OMSimEffectiveAreaAnalyisis.hh</text>
</a>
</g>
</g>
<!-- Node1&#45;&gt;Node61 -->
<g id="edge53" class="edge">
<title>Node1&#45;&gt;Node61</title>
<path fill="none" stroke="midnightblue" d="M733.68,-459.44C756.93,-450.48 793.65,-436.31 819.92,-426.18"/>
<polygon fill="midnightblue" stroke="midnightblue" points="821.35,-429.38 829.42,-422.52 818.83,-422.85 821.35,-429.38"/>
</g>
<!-- Node62 -->
<g id="node48" class="node">
<title>Node62</title>
<g id="a_node48"><a xlink:title=" ">
<polygon fill="none" stroke="#bfbfbf" points="958,-403.5 958,-422.5 1131,-422.5 1131,-403.5 958,-403.5"/>
<text text-anchor="middle" x="1044.5" y="-410.5" font-family="Helvetica,sans-Serif" font-size="10.00">OMSimEffectiveAreaDetector.hh</text>
</a>
</g>
</g>
<!-- Node1&#45;&gt;Node62 -->
<g id="edge54" class="edge">
<title>Node1&#45;&gt;Node62</title>
<path fill="none" stroke="midnightblue" d="M764.26,-459.44C823.33,-449.87 918.97,-434.36 981.81,-424.17"/>
<polygon fill="midnightblue" stroke="midnightblue" points="982.67,-427.57 991.98,-422.52 981.55,-420.66 982.67,-427.57"/>
</g>
<!-- Node63 -->
<g id="node49" class="node">
<title>Node63</title>
<g id="a_node49"><a xlink:href="_o_m_sim_tools_8hh.html" target="_top" xlink:title=" ">
<polygon fill="none" stroke="black" points="64.5,-403.5 64.5,-422.5 156.5,-422.5 156.5,-403.5 64.5,-403.5"/>
<text text-anchor="middle" x="110.5" y="-410.5" font-family="Helvetica,sans-Serif" font-size="10.00">OMSimTools.hh</text>
</a>
</g>
</g>
<!-- Node1&#45;&gt;Node63 -->
<g id="edge55" class="edge">
<title>Node1&#45;&gt;Node63</title>
<path fill="none" stroke="midnightblue" d="M640.79,-461.65C520.1,-450.8 276.75,-428.94 166.75,-419.05"/>
<polygon fill="midnightblue" stroke="midnightblue" points="166.8,-415.54 156.53,-418.14 166.18,-422.52 166.8,-415.54"/>
</g>
<!-- Node3 -->
<g id="node3" class="node">
<title>Node3</title>
<g id="a_node3"><a xlink:href="_o_m_sim_detector_construction_8hh_source.html" target="_top" xlink:title=" ">
<polygon fill="none" stroke="black" points="683.5,-347.5 683.5,-366.5 853.5,-366.5 853.5,-347.5 683.5,-347.5"/>
<text text-anchor="middle" x="768.5" y="-354.5" font-family="Helvetica,sans-Serif" font-size="10.00">OMSimDetectorConstruction.hh</text>
</a>
</g>
</g>
<!-- Node2&#45;&gt;Node3 -->
<g id="edge2" class="edge">
<title>Node2&#45;&gt;Node3</title>
<path fill="none" stroke="midnightblue" d="M720.66,-403.32C729,-395.42 741.53,-383.55 751.68,-373.94"/>
<polygon fill="midnightblue" stroke="midnightblue" points="754.32,-376.25 759.18,-366.83 749.51,-371.17 754.32,-376.25"/>
</g>
<!-- Node39 -->
<g id="node25" class="node">
<title>Node39</title>
<g id="a_node25"><a xlink:title=" ">
<polygon fill="none" stroke="#bfbfbf" points="872,-347.5 872,-366.5 993,-366.5 993,-347.5 872,-347.5"/>
<text text-anchor="middle" x="932.5" y="-354.5" font-family="Helvetica,sans-Serif" font-size="10.00">OMSimPhysicsList.hh</text>
</a>
</g>
</g>
<!-- Node2&#45;&gt;Node39 -->
<g id="edge27" class="edge">
<title>Node2&#45;&gt;Node39</title>
<path fill="none" stroke="midnightblue" d="M745.07,-403.8C783.18,-394.48 845.55,-379.24 887.78,-368.93"/>
<polygon fill="midnightblue" stroke="midnightblue" points="888.64,-372.32 897.52,-366.55 886.98,-365.52 888.64,-372.32"/>
</g>
<!-- Node40 -->
<g id="node26" class="node">
<title>Node40</title>
<g id="a_node26"><a xlink:title=" ">
<polygon fill="none" stroke="#bfbfbf" points="1011,-347.5 1011,-366.5 1196,-366.5 1196,-347.5 1011,-347.5"/>
<text text-anchor="middle" x="1103.5" y="-354.5" font-family="Helvetica,sans-Serif" font-size="10.00">OMSimPrimaryGeneratorAction.hh</text>
</a>
</g>
</g>
<!-- Node2&#45;&gt;Node40 -->
<g id="edge28" class="edge">
<title>Node2&#45;&gt;Node40</title>
<path fill="none" stroke="midnightblue" d="M745.25,-404.68C748.37,-404.08 751.49,-403.51 754.5,-403 842.06,-388.22 942.7,-375.71 1013.34,-367.67"/>
<polygon fill="midnightblue" stroke="midnightblue" points="1013.99,-371.11 1023.54,-366.51 1013.21,-364.16 1013.99,-371.11"/>
</g>
<!-- Node41 -->
<g id="node27" class="node">
<title>Node41</title>
<g id="a_node27"><a xlink:href="_o_m_sim_run_action_8hh_source.html" target="_top" xlink:title=" ">
<polygon fill="none" stroke="black" points="562.5,-291.5 562.5,-310.5 678.5,-310.5 678.5,-291.5 562.5,-291.5"/>
<text text-anchor="middle" x="620.5" y="-298.5" font-family="Helvetica,sans-Serif" font-size="10.00">OMSimRunAction.hh</text>
</a>
</g>
</g>
<!-- Node2&#45;&gt;Node41 -->
<g id="edge29" class="edge">
<title>Node2&#45;&gt;Node41</title>
<path fill="none" stroke="midnightblue" d="M704.36,-403.37C689.21,-385.05 653.63,-342.05 634.04,-318.36"/>
<polygon fill="midnightblue" stroke="midnightblue" points="636.68,-316.07 627.61,-310.59 631.28,-320.53 636.68,-316.07"/>
</g>
<!-- Node45 -->
<g id="node31" class="node">
<title>Node45</title>
<g id="a_node31"><a xlink:title=" ">
<polygon fill="none" stroke="#bfbfbf" points="1214,-347.5 1214,-366.5 1339,-366.5 1339,-347.5 1214,-347.5"/>
<text text-anchor="middle" x="1276.5" y="-354.5" font-family="Helvetica,sans-Serif" font-size="10.00">OMSimEventAction.hh</text>
</a>
</g>
</g>
<!-- Node2&#45;&gt;Node45 -->
<g id="edge35" class="edge">
<title>Node2&#45;&gt;Node45</title>
<path fill="none" stroke="midnightblue" d="M745.23,-404.52C748.35,-403.95 751.48,-403.44 754.5,-403 949.89,-374.85 1003.2,-387.04 1203.72,-367.03"/>
<polygon fill="midnightblue" stroke="midnightblue" points="1204.09,-370.51 1213.69,-366.02 1203.39,-363.54 1204.09,-370.51"/>
</g>
<!-- Node46 -->
<g id="node32" class="node">
<title>Node46</title>
<g id="a_node32"><a xlink:href="_o_m_sim_tracking_action_8hh_source.html" target="_top" xlink:title=" ">
<polygon fill="none" stroke="black" points="1357.5,-347.5 1357.5,-366.5 1495.5,-366.5 1495.5,-347.5 1357.5,-347.5"/>
<text text-anchor="middle" x="1426.5" y="-354.5" font-family="Helvetica,sans-Serif" font-size="10.00">OMSimTrackingAction.hh</text>
</a>
</g>
</g>
<!-- Node2&#45;&gt;Node46 -->
<g id="edge36" class="edge">
<title>Node2&#45;&gt;Node46</title>
<path fill="none" stroke="midnightblue" d="M745.22,-404.46C748.35,-403.9 751.48,-403.41 754.5,-403 1012.87,-368.31 1082.69,-389.4 1346.87,-367"/>
<polygon fill="midnightblue" stroke="midnightblue" points="1347.5,-370.45 1357.16,-366.11 1346.9,-363.48 1347.5,-370.45"/>
</g>
<!-- Node48 -->
<g id="node34" class="node">
<title>Node48</title>
<g id="a_node34"><a xlink:href="_o_m_sim_stepping_action_8hh.html" target="_top" xlink:title="Defines OMSimSteppingAction.Currently it only checks for trapped photons.">
<polygon fill="none" stroke="black" points="1513.5,-347.5 1513.5,-366.5 1653.5,-366.5 1653.5,-347.5 1513.5,-347.5"/>
<text text-anchor="middle" x="1583.5" y="-354.5" font-family="Helvetica,sans-Serif" font-size="10.00">OMSimSteppingAction.hh</text>
</a>
</g>
</g>
<!-- Node2&#45;&gt;Node48 -->
<g id="edge38" class="edge">
<title>Node2&#45;&gt;Node48</title>
<path fill="none" stroke="midnightblue" d="M745.22,-404.42C748.34,-403.87 751.47,-403.39 754.5,-403 1082.13,-361.12 1170.07,-393.23 1502.89,-367.07"/>
<polygon fill="midnightblue" stroke="midnightblue" points="1503.62,-370.52 1513.31,-366.24 1503.07,-363.54 1503.62,-370.52"/>
</g>
<!-- Node50 -->
<g id="node36" class="node">
<title>Node50</title>
<g id="a_node36"><a xlink:href="_o_m_sim_u_iinterface_8hh.html" target="_top" xlink:title=" ">
<polygon fill="none" stroke="black" points="314,-291.5 314,-310.5 435,-310.5 435,-291.5 314,-291.5"/>
<text text-anchor="middle" x="374.5" y="-298.5" font-family="Helvetica,sans-Serif" font-size="10.00">OMSimUIinterface.hh</text>
</a>
</g>
</g>
<!-- Node2&#45;&gt;Node50 -->
<g id="edge40" class="edge">
<title>Node2&#45;&gt;Node50</title>
<path fill="none" stroke="midnightblue" d="M699.61,-403.41C679.7,-389.43 637.9,-361.83 598.5,-347 548.98,-328.35 490.24,-316.92 445.33,-310.25"/>
<polygon fill="midnightblue" stroke="midnightblue" points="445.79,-306.78 435.39,-308.81 444.79,-313.7 445.79,-306.78"/>
</g>
<!-- Node55 -->
<g id="node41" class="node">
<title>Node55</title>
<g id="a_node41"><a xlink:title=" ">
<polygon fill="none" stroke="#bfbfbf" points="1672,-347.5 1672,-366.5 1793,-366.5 1793,-347.5 1672,-347.5"/>
<text text-anchor="middle" x="1732.5" y="-354.5" font-family="Helvetica,sans-Serif" font-size="10.00">G4MTRunManager.hh</text>
</a>
</g>
</g>
<!-- Node2&#45;&gt;Node55 -->
<g id="edge47" class="edge">
<title>Node2&#45;&gt;Node55</title>
<path fill="none" stroke="midnightblue" d="M745.21,-404.39C748.34,-403.85 751.47,-403.37 754.5,-403 1152,-353.87 1258.28,-400.01 1661.64,-366.98"/>
<polygon fill="midnightblue" stroke="midnightblue" points="1662.15,-370.45 1671.83,-366.13 1661.57,-363.47 1662.15,-370.45"/>
</g>
<!-- Node56 -->
<g id="node42" class="node">
<title>Node56</title>
<g id="a_node42"><a xlink:title=" ">
<polygon fill="none" stroke="#bfbfbf" points="193,-347.5 193,-366.5 300,-366.5 300,-347.5 193,-347.5"/>
<text text-anchor="middle" x="246.5" y="-354.5" font-family="Helvetica,sans-Serif" font-size="10.00">G4VisExecutive.hh</text>
</a>
</g>
</g>
<!-- Node2&#45;&gt;Node56 -->
<g id="edge48" class="edge">
<title>Node2&#45;&gt;Node56</title>
<path fill="none" stroke="midnightblue" d="M677.75,-408.61C610.09,-401.74 452.79,-385.34 310.47,-367.22"/>
<polygon fill="midnightblue" stroke="midnightblue" points="310.62,-363.71 300.25,-365.91 309.73,-370.65 310.62,-363.71"/>
</g>
<!-- Node57 -->
<g id="node43" class="node">
<title>Node57</title>
<g id="a_node43"><a xlink:title=" ">
<polygon fill="none" stroke="#bfbfbf" points="318,-347.5 318,-366.5 421,-366.5 421,-347.5 318,-347.5"/>
<text text-anchor="middle" x="369.5" y="-354.5" font-family="Helvetica,sans-Serif" font-size="10.00">G4UIExecutive.hh</text>
</a>
</g>
</g>
<!-- Node2&#45;&gt;Node57 -->
<g id="edge49" class="edge">
<title>Node2&#45;&gt;Node57</title>
<path fill="none" stroke="midnightblue" d="M677.77,-406.67C620.47,-397.63 503.33,-379.13 431.09,-367.72"/>
<polygon fill="midnightblue" stroke="midnightblue" points="431.63,-364.27 421.21,-366.16 430.54,-371.18 431.63,-364.27"/>
</g>
<!-- Node58 -->
<g id="node44" class="node">
<title>Node58</title>
<g id="a_node44"><a xlink:title=" ">
<polygon fill="none" stroke="#bfbfbf" points="439.5,-347.5 439.5,-366.5 589.5,-366.5 589.5,-347.5 439.5,-347.5"/>
<text text-anchor="middle" x="514.5" y="-354.5" font-family="Helvetica,sans-Serif" font-size="10.00">boost/program_options.hpp</text>
</a>
</g>
</g>
<!-- Node2&#45;&gt;Node58 -->
<g id="edge50" class="edge">
<title>Node2&#45;&gt;Node58</title>
<path fill="none" stroke="midnightblue" d="M680.28,-403.44C646.57,-394.2 592.7,-379.44 555.57,-369.26"/>
<polygon fill="midnightblue" stroke="midnightblue" points="556.14,-365.78 545.57,-366.52 554.29,-372.54 556.14,-365.78"/>
</g>
<!-- Node4 -->
<g id="node4" class="node">
<title>Node4</title>
<g id="a_node4"><a xlink:href="_o_m_sim_optical_module_8hh_source.html" target="_top" xlink:title=" ">
<polygon fill="none" stroke="black" points="975,-291.5 975,-310.5 1112,-310.5 1112,-291.5 975,-291.5"/>
<text text-anchor="middle" x="1043.5" y="-298.5" font-family="Helvetica,sans-Serif" font-size="10.00">OMSimOpticalModule.hh</text>
</a>
</g>
</g>
<!-- Node3&#45;&gt;Node4 -->
<g id="edge3" class="edge">
<title>Node3&#45;&gt;Node4</title>
<path fill="none" stroke="midnightblue" d="M812.07,-347.44C860.35,-337.96 938.21,-322.67 990.11,-312.48"/>
<polygon fill="midnightblue" stroke="midnightblue" points="990.99,-315.88 1000.13,-310.52 989.64,-309.01 990.99,-315.88"/>
</g>
<!-- Node37 -->
<g id="node23" class="node">
<title>Node37</title>
<g id="a_node23"><a xlink:title=" ">
<polygon fill="none" stroke="#bfbfbf" points="697.5,-291.5 697.5,-310.5 759.5,-310.5 759.5,-291.5 697.5,-291.5"/>
<text text-anchor="middle" x="728.5" y="-298.5" font-family="Helvetica,sans-Serif" font-size="10.00">G4Orb.hh</text>
</a>
</g>
</g>
<!-- Node3&#45;&gt;Node37 -->
<g id="edge25" class="edge">
<title>Node3&#45;&gt;Node37</title>
<path fill="none" stroke="midnightblue" d="M761.89,-347.08C756.24,-339.46 747.96,-328.26 741.05,-318.94"/>
<polygon fill="midnightblue" stroke="midnightblue" points="743.75,-316.7 734.98,-310.75 738.12,-320.87 743.75,-316.7"/>
</g>
<!-- Node38 -->
<g id="node24" class="node">
<title>Node38</title>
<g id="a_node24"><a xlink:title=" ">
<polygon fill="none" stroke="#bfbfbf" points="777.5,-291.5 777.5,-310.5 955.5,-310.5 955.5,-291.5 777.5,-291.5"/>
<text text-anchor="middle" x="866.5" y="-298.5" font-family="Helvetica,sans-Serif" font-size="10.00">G4VUserDetectorConstruction.hh</text>
</a>
</g>
</g>
<!-- Node3&#45;&gt;Node38 -->
<g id="edge26" class="edge">
<title>Node3&#45;&gt;Node38</title>
<path fill="none" stroke="midnightblue" d="M784.25,-347.32C799.82,-338.74 823.88,-325.49 841.96,-315.52"/>
<polygon fill="midnightblue" stroke="midnightblue" points="843.72,-318.55 850.79,-310.65 840.35,-312.42 843.72,-318.55"/>
</g>
<!-- Node5 -->
<g id="node5" class="node">
<title>Node5</title>
<g id="a_node5"><a xlink:href="abc_detector_component_8hh.html" target="_top" xlink:title="Provides helper base class abcDetectorComponent for constructing and managing detector components in ...">
<polygon fill="none" stroke="black" points="1129,-179.5 1129,-198.5 1276,-198.5 1276,-179.5 1129,-179.5"/>
<text text-anchor="middle" x="1202.5" y="-186.5" font-family="Helvetica,sans-Serif" font-size="10.00">abcDetectorComponent.hh</text>
</a>
</g>
</g>
<!-- Node4&#45;&gt;Node5 -->
<g id="edge4" class="edge">
<title>Node4&#45;&gt;Node5</title>
<path fill="none" stroke="midnightblue" d="M1070.88,-291.37C1092.2,-283.84 1121.87,-271.53 1144.5,-255 1162.94,-241.54 1179.79,-221.35 1190.53,-207.06"/>
<polygon fill="midnightblue" stroke="midnightblue" points="1193.6,-208.78 1196.65,-198.64 1187.94,-204.67 1193.6,-208.78"/>
</g>
<!-- Node26 -->
<g id="node16" class="node">
<title>Node26</title>
<g id="a_node16"><a xlink:href="_o_m_sim_hit_manager_8hh.html" target="_top" xlink:title="Defines structures and classes related to optical module photon hit management.">
<polygon fill="none" stroke="black" points="802,-235.5 802,-254.5 925,-254.5 925,-235.5 802,-235.5"/>
<text text-anchor="middle" x="863.5" y="-242.5" font-family="Helvetica,sans-Serif" font-size="10.00">OMSimHitManager.hh</text>
</a>
</g>
</g>
<!-- Node4&#45;&gt;Node26 -->
<g id="edge15" class="edge">
<title>Node4&#45;&gt;Node26</title>
<path fill="none" stroke="midnightblue" d="M1014.98,-291.44C984.43,-282.28 935.79,-267.69 901.9,-257.52"/>
<polygon fill="midnightblue" stroke="midnightblue" points="902.47,-254.04 891.89,-254.52 900.46,-260.74 902.47,-254.04"/>
</g>
<!-- Node34 -->
<g id="node22" class="node">
<title>Node34</title>
<g id="a_node22"><a xlink:href="_o_m_sim_p_m_t_construction_8hh.html" target="_top" xlink:title="Construction of the PMTs.">
<polygon fill="none" stroke="red" points="969,-235.5 969,-254.5 1118,-254.5 1118,-235.5 969,-235.5"/>
<text text-anchor="middle" x="1043.5" y="-242.5" font-family="Helvetica,sans-Serif" font-size="10.00">OMSimPMTConstruction.hh</text>
</a>
</g>
</g>
<!-- Node4&#45;&gt;Node34 -->
<g id="edge21" class="edge">
<title>Node4&#45;&gt;Node34</title>
<path fill="none" stroke="midnightblue" d="M1043.5,-291.08C1043.5,-284.01 1043.5,-273.86 1043.5,-264.99"/>
<polygon fill="midnightblue" stroke="midnightblue" points="1047,-264.75 1043.5,-254.75 1040,-264.75 1047,-264.75"/>
</g>
<!-- Node6 -->
<g id="node6" class="node">
<title>Node6</title>
<g id="a_node6"><a xlink:href="_o_m_sim_input_data_8hh.html" target="_top" xlink:title="Definition of ParameterTable and OMSimInputData.">
<polygon fill="none" stroke="red" points="953,-123.5 953,-142.5 1068,-142.5 1068,-123.5 953,-123.5"/>
<text text-anchor="middle" x="1010.5" y="-130.5" font-family="Helvetica,sans-Serif" font-size="10.00">OMSimInputData.hh</text>
</a>
</g>
</g>
<!-- Node5&#45;&gt;Node6 -->
<g id="edge5" class="edge">
<title>Node5&#45;&gt;Node6</title>
<path fill="none" stroke="midnightblue" d="M1172.08,-179.44C1139.22,-170.2 1086.72,-155.44 1050.53,-145.26"/>
<polygon fill="midnightblue" stroke="midnightblue" points="1051.35,-141.85 1040.78,-142.52 1049.46,-148.59 1051.35,-141.85"/>
</g>
<!-- Node22 -->
<g id="node12" class="node">
<title>Node22</title>
<g id="a_node12"><a xlink:title=" ">
<polygon fill="none" stroke="#bfbfbf" points="1086,-123.5 1086,-142.5 1193,-142.5 1193,-123.5 1086,-123.5"/>
<text text-anchor="middle" x="1139.5" y="-130.5" font-family="Helvetica,sans-Serif" font-size="10.00">G4Transform3D.hh</text>
</a>
</g>
</g>
<!-- Node5&#45;&gt;Node22 -->
<g id="edge11" class="edge">
<title>Node5&#45;&gt;Node22</title>
<path fill="none" stroke="midnightblue" d="M1192.38,-179.32C1182.97,-171.26 1168.76,-159.08 1157.43,-149.37"/>
<polygon fill="midnightblue" stroke="midnightblue" points="1159.68,-146.68 1149.81,-142.83 1155.12,-152 1159.68,-146.68"/>
</g>
<!-- Node23 -->
<g id="node13" class="node">
<title>Node23</title>
<g id="a_node13"><a xlink:title=" ">
<polygon fill="none" stroke="#bfbfbf" points="1211.5,-123.5 1211.5,-142.5 1319.5,-142.5 1319.5,-123.5 1211.5,-123.5"/>
<text text-anchor="middle" x="1265.5" y="-130.5" font-family="Helvetica,sans-Serif" font-size="10.00">G4VisAttributes.hh</text>
</a>
</g>
</g>
<!-- Node5&#45;&gt;Node23 -->
<g id="edge12" class="edge">
<title>Node5&#45;&gt;Node23</title>
<path fill="none" stroke="midnightblue" d="M1212.62,-179.32C1222.03,-171.26 1236.24,-159.08 1247.57,-149.37"/>
<polygon fill="midnightblue" stroke="midnightblue" points="1249.88,-152 1255.19,-142.83 1245.32,-146.68 1249.88,-152"/>
</g>
<!-- Node24 -->
<g id="node14" class="node">
<title>Node24</title>
<g id="a_node14"><a xlink:title=" ">
<polygon fill="none" stroke="#bfbfbf" points="1338,-123.5 1338,-142.5 1463,-142.5 1463,-123.5 1338,-123.5"/>
<text text-anchor="middle" x="1400.5" y="-130.5" font-family="Helvetica,sans-Serif" font-size="10.00">G4SubtractionSolid.hh</text>
</a>
</g>
</g>
<!-- Node5&#45;&gt;Node24 -->
<g id="edge13" class="edge">
<title>Node5&#45;&gt;Node24</title>
<path fill="none" stroke="midnightblue" d="M1233.87,-179.44C1267.76,-170.2 1321.9,-155.44 1359.22,-145.26"/>
<polygon fill="midnightblue" stroke="midnightblue" points="1360.55,-148.52 1369.27,-142.52 1358.7,-141.77 1360.55,-148.52"/>
</g>
<!-- Node25 -->
<g id="node15" class="node">
<title>Node25</title>
<g id="a_node15"><a xlink:title=" ">
<polygon fill="none" stroke="#bfbfbf" points="824.5,-123.5 824.5,-142.5 934.5,-142.5 934.5,-123.5 824.5,-123.5"/>
<text text-anchor="middle" x="879.5" y="-130.5" font-family="Helvetica,sans-Serif" font-size="10.00">G4PVPlacement.hh</text>
</a>
</g>
</g>
<!-- Node5&#45;&gt;Node25 -->
<g id="edge14" class="edge">
<title>Node5&#45;&gt;Node25</title>
<path fill="none" stroke="midnightblue" d="M1151.32,-179.44C1094.03,-169.87 1001.26,-154.36 940.31,-144.17"/>
<polygon fill="midnightblue" stroke="midnightblue" points="940.88,-140.71 930.44,-142.52 939.73,-147.62 940.88,-140.71"/>
</g>
<!-- Node7 -->
<g id="node7" class="node">
<title>Node7</title>
<g id="a_node7"><a xlink:href="_o_m_sim_logger_8hh_source.html" target="_top" xlink:title=" ">
<polygon fill="none" stroke="black" points="330,-67.5 330,-86.5 429,-86.5 429,-67.5 330,-67.5"/>
<text text-anchor="middle" x="379.5" y="-74.5" font-family="Helvetica,sans-Serif" font-size="10.00">OMSimLogger.hh</text>
</a>
</g>
</g>
<!-- Node6&#45;&gt;Node7 -->
<g id="edge6" class="edge">
<title>Node6&#45;&gt;Node7</title>
<path fill="none" stroke="midnightblue" d="M952.78,-124.05C949.64,-123.68 946.53,-123.32 943.5,-123 760.31,-103.4 542.81,-88.37 439.6,-81.73"/>
<polygon fill="midnightblue" stroke="midnightblue" points="439.58,-78.22 429.38,-81.07 439.13,-85.2 439.58,-78.22"/>
</g>
<!-- Node8 -->
<g id="node8" class="node">
<title>Node8</title>
<g id="a_node8"><a xlink:title=" ">
<polygon fill="none" stroke="#bfbfbf" points="162,-6 162,-25 255,-25 255,-6 162,-6"/>
<text text-anchor="middle" x="208.5" y="-13" font-family="Helvetica,sans-Serif" font-size="10.00">spdlog/spdlog.h</text>
</a>
</g>
</g>
<!-- Node7&#45;&gt;Node8 -->
<g id="edge7" class="edge">
<title>Node7&#45;&gt;Node8</title>
<path fill="none" stroke="midnightblue" d="M355,-67.48C325.54,-57.22 275.92,-39.96 242.7,-28.4"/>
<polygon fill="midnightblue" stroke="midnightblue" points="243.55,-24.99 232.95,-25.01 241.25,-31.6 243.55,-24.99"/>
</g>
<!-- Node9 -->
<g id="node9" class="node">
<title>Node9</title>
<g id="a_node9"><a xlink:title=" ">
<polygon fill="none" stroke="#bfbfbf" points="273,-0.5 273,-30.5 384,-30.5 384,-0.5 273,-0.5"/>
<text text-anchor="start" x="281" y="-18.5" font-family="Helvetica,sans-Serif" font-size="10.00">spdlog/sinks/stdout</text>
<text text-anchor="middle" x="328.5" y="-7.5" font-family="Helvetica,sans-Serif" font-size="10.00">_color_sinks.h</text>
</a>
</g>
</g>
<!-- Node7&#45;&gt;Node9 -->
<g id="edge8" class="edge">
<title>Node7&#45;&gt;Node9</title>
<path fill="none" stroke="midnightblue" d="M372.19,-67.48C365.67,-59.87 355.84,-48.4 347.16,-38.26"/>
<polygon fill="midnightblue" stroke="midnightblue" points="349.69,-35.84 340.52,-30.52 344.37,-40.39 349.69,-35.84"/>
</g>
<!-- Node10 -->
<g id="node10" class="node">
<title>Node10</title>
<g id="a_node10"><a xlink:title=" ">
<polygon fill="none" stroke="#bfbfbf" points="402.5,-6 402.5,-25 460.5,-25 460.5,-6 402.5,-6"/>
<text text-anchor="middle" x="431.5" y="-13" font-family="Helvetica,sans-Serif" font-size="10.00">memory</text>
</a>
</g>
</g>
<!-- Node7&#45;&gt;Node10 -->
<g id="edge9" class="edge">
<title>Node7&#45;&gt;Node10</title>
<path fill="none" stroke="midnightblue" d="M386.95,-67.48C394.83,-58.46 407.44,-44.02 417.24,-32.81"/>
<polygon fill="midnightblue" stroke="midnightblue" points="420.12,-34.84 424.06,-25.01 414.85,-30.24 420.12,-34.84"/>
</g>
<!-- Node11 -->
<g id="node11" class="node">
<title>Node11</title>
<g id="a_node11"><a xlink:title=" ">
<polygon fill="none" stroke="#bfbfbf" points="478.5,-6 478.5,-25 576.5,-25 576.5,-6 478.5,-6"/>
<text text-anchor="middle" x="527.5" y="-13" font-family="Helvetica,sans-Serif" font-size="10.00">spdlog/fmt/fmt.h</text>
</a>
</g>
</g>
<!-- Node7&#45;&gt;Node11 -->
<g id="edge10" class="edge">
<title>Node7&#45;&gt;Node11</title>
<path fill="none" stroke="midnightblue" d="M400.7,-67.48C425.87,-57.36 468.04,-40.4 496.78,-28.85"/>
<polygon fill="midnightblue" stroke="midnightblue" points="498.36,-31.99 506.33,-25.01 495.75,-25.49 498.36,-31.99"/>
</g>
<!-- Node27 -->
<g id="node17" class="node">
<title>Node27</title>
<g id="a_node17"><a xlink:href="_o_m_sim_p_m_t_response_8hh.html" target="_top" xlink:title="Simulation of PMT response.">
<polygon fill="none" stroke="red" points="976,-179.5 976,-198.5 1111,-198.5 1111,-179.5 976,-179.5"/>
<text text-anchor="middle" x="1043.5" y="-186.5" font-family="Helvetica,sans-Serif" font-size="10.00">OMSimPMTResponse.hh</text>
</a>
</g>
</g>
<!-- Node26&#45;&gt;Node27 -->
<g id="edge16" class="edge">
<title>Node26&#45;&gt;Node27</title>
<path fill="none" stroke="midnightblue" d="M892.02,-235.44C922.57,-226.28 971.21,-211.69 1005.1,-201.52"/>
<polygon fill="midnightblue" stroke="midnightblue" points="1006.54,-204.74 1015.11,-198.52 1004.53,-198.04 1006.54,-204.74"/>
</g>
<!-- Node32 -->
<g id="node18" class="node">
<title>Node32</title>
<g id="a_node18"><a xlink:title=" ">
<polygon fill="none" stroke="#bfbfbf" points="855,-179.5 855,-198.5 958,-198.5 958,-179.5 855,-179.5"/>
<text text-anchor="middle" x="906.5" y="-186.5" font-family="Helvetica,sans-Serif" font-size="10.00">G4ThreeVector.hh</text>
</a>
</g>
</g>
<!-- Node26&#45;&gt;Node32 -->
<g id="edge17" class="edge">
<title>Node26&#45;&gt;Node32</title>
<path fill="none" stroke="midnightblue" d="M870.6,-235.08C876.74,-227.38 885.77,-216.03 893.24,-206.65"/>
<polygon fill="midnightblue" stroke="midnightblue" points="896.04,-208.75 899.53,-198.75 890.56,-204.39 896.04,-208.75"/>
</g>
<!-- Node33 -->
<g id="node19" class="node">
<title>Node33</title>
<g id="a_node19"><a xlink:title=" ">
<polygon fill="none" stroke="#bfbfbf" points="561,-179.5 561,-198.5 616,-198.5 616,-179.5 561,-179.5"/>
<text text-anchor="middle" x="588.5" y="-186.5" font-family="Helvetica,sans-Serif" font-size="10.00">fstream</text>
</a>
</g>
</g>
<!-- Node26&#45;&gt;Node33 -->
<g id="edge18" class="edge">
<title>Node26&#45;&gt;Node33</title>
<path fill="none" stroke="midnightblue" d="M814.12,-235.43C768.05,-227.27 697.17,-214.26 626.34,-199.09"/>
<polygon fill="midnightblue" stroke="midnightblue" points="626.86,-195.62 616.34,-196.94 625.38,-202.47 626.86,-195.62"/>
</g>
<!-- Node18 -->
<g id="node20" class="node">
<title>Node18</title>
<g id="a_node20"><a xlink:title=" ">
<polygon fill="none" stroke="#bfbfbf" points="634.5,-179.5 634.5,-198.5 724.5,-198.5 724.5,-179.5 634.5,-179.5"/>
<text text-anchor="middle" x="679.5" y="-186.5" font-family="Helvetica,sans-Serif" font-size="10.00">G4AutoLock.hh</text>
</a>
</g>
</g>
<!-- Node26&#45;&gt;Node18 -->
<g id="edge19" class="edge">
<title>Node26&#45;&gt;Node18</title>
<path fill="none" stroke="midnightblue" d="M834.34,-235.44C802.99,-226.24 752.97,-211.56 718.3,-201.39"/>
<polygon fill="midnightblue" stroke="midnightblue" points="719.1,-197.97 708.52,-198.52 717.13,-204.69 719.1,-197.97"/>
</g>
<!-- Node19 -->
<g id="node21" class="node">
<title>Node19</title>
<g id="a_node21"><a xlink:title=" ">
<polygon fill="none" stroke="#bfbfbf" points="742.5,-179.5 742.5,-198.5 836.5,-198.5 836.5,-179.5 742.5,-179.5"/>
<text text-anchor="middle" x="789.5" y="-186.5" font-family="Helvetica,sans-Serif" font-size="10.00">G4Threading.hh</text>
</a>
</g>
</g>
<!-- Node26&#45;&gt;Node19 -->
<g id="edge20" class="edge">
<title>Node26&#45;&gt;Node19</title>
<path fill="none" stroke="midnightblue" d="M851.61,-235.32C840.35,-227.11 823.21,-214.6 809.79,-204.81"/>
<polygon fill="midnightblue" stroke="midnightblue" points="811.75,-201.9 801.61,-198.83 807.62,-207.56 811.75,-201.9"/>
</g>
<!-- Node34&#45;&gt;Node5 -->
<g id="edge22" class="edge">
<title>Node34&#45;&gt;Node5</title>
<path fill="none" stroke="midnightblue" d="M1068.69,-235.44C1095.44,-226.36 1137.9,-211.94 1167.81,-201.78"/>
<polygon fill="midnightblue" stroke="midnightblue" points="1169.08,-205.05 1177.42,-198.52 1166.83,-198.42 1169.08,-205.05"/>
</g>
<!-- Node34&#45;&gt;Node27 -->
<g id="edge24" class="edge">
<title>Node34&#45;&gt;Node27</title>
<path fill="none" stroke="midnightblue" d="M1043.5,-235.08C1043.5,-228.01 1043.5,-217.86 1043.5,-208.99"/>
<polygon fill="midnightblue" stroke="midnightblue" points="1047,-208.75 1043.5,-198.75 1040,-208.75 1047,-208.75"/>
</g>
<!-- Node34&#45;&gt;Node34 -->
<g id="edge23" class="edge">
<title>Node34&#45;&gt;Node34</title>
<path fill="none" stroke="midnightblue" d="M1082.95,-254.53C1109.76,-257.31 1136,-254.13 1136,-245 1136,-237.01 1115.91,-233.58 1092.93,-234.71"/>
<polygon fill="midnightblue" stroke="midnightblue" points="1092.65,-231.22 1082.95,-235.47 1093.19,-238.2 1092.65,-231.22"/>
</g>
<!-- Node41&#45;&gt;Node7 -->
<g id="edge32" class="edge">
<title>Node41&#45;&gt;Node7</title>
<path fill="none" stroke="midnightblue" d="M605.54,-291.37C591.33,-282.88 569.63,-269.16 552.5,-255 488.04,-201.73 421.61,-127.16 393.45,-94.46"/>
<polygon fill="midnightblue" stroke="midnightblue" points="396.01,-92.07 386.85,-86.75 390.69,-96.62 396.01,-92.07"/>
</g>
<!-- Node41&#45;&gt;Node26 -->
<g id="edge31" class="edge">
<title>Node41&#45;&gt;Node26</title>
<path fill="none" stroke="midnightblue" d="M659,-291.44C701.31,-282.04 769.32,-266.93 815.17,-256.74"/>
<polygon fill="midnightblue" stroke="midnightblue" points="816.17,-260.1 825.18,-254.52 814.65,-253.27 816.17,-260.1"/>
</g>
<!-- Node42 -->
<g id="node28" class="node">
<title>Node42</title>
<g id="a_node28"><a xlink:title=" ">
<polygon fill="none" stroke="#bfbfbf" points="562,-235.5 562,-254.5 679,-254.5 679,-235.5 562,-235.5"/>
<text text-anchor="middle" x="620.5" y="-242.5" font-family="Helvetica,sans-Serif" font-size="10.00">G4UserRunAction.hh</text>
</a>
</g>
</g>
<!-- Node41&#45;&gt;Node42 -->
<g id="edge30" class="edge">
<title>Node41&#45;&gt;Node42</title>
<path fill="none" stroke="midnightblue" d="M620.5,-291.08C620.5,-284.01 620.5,-273.86 620.5,-264.99"/>
<polygon fill="midnightblue" stroke="midnightblue" points="624,-264.75 620.5,-254.75 617,-264.75 624,-264.75"/>
</g>
<!-- Node43 -->
<g id="node29" class="node">
<title>Node43</title>
<g id="a_node29"><a xlink:title=" ">
<polygon fill="none" stroke="#bfbfbf" points="697.5,-235.5 697.5,-254.5 783.5,-254.5 783.5,-235.5 697.5,-235.5"/>
<text text-anchor="middle" x="740.5" y="-242.5" font-family="Helvetica,sans-Serif" font-size="10.00">Randomize.hh</text>
</a>
</g>
</g>
<!-- Node41&#45;&gt;Node43 -->
<g id="edge33" class="edge">
<title>Node41&#45;&gt;Node43</title>
<path fill="none" stroke="midnightblue" d="M639.51,-291.44C659.09,-282.64 689.81,-268.81 712.23,-258.72"/>
<polygon fill="midnightblue" stroke="midnightblue" points="713.89,-261.81 721.57,-254.52 711.02,-255.43 713.89,-261.81"/>
</g>
<!-- Node44 -->
<g id="node30" class="node">
<title>Node44</title>
<g id="a_node30"><a xlink:title=" ">
<polygon fill="none" stroke="#bfbfbf" points="441.5,-235.5 441.5,-254.5 505.5,-254.5 505.5,-235.5 441.5,-235.5"/>
<text text-anchor="middle" x="473.5" y="-242.5" font-family="Helvetica,sans-Serif" font-size="10.00">G4Run.hh</text>
</a>
</g>
</g>
<!-- Node41&#45;&gt;Node44 -->
<g id="edge34" class="edge">
<title>Node41&#45;&gt;Node44</title>
<path fill="none" stroke="midnightblue" d="M597.21,-291.44C572.69,-282.44 533.9,-268.19 506.3,-258.05"/>
<polygon fill="midnightblue" stroke="midnightblue" points="507.28,-254.68 496.68,-254.52 504.86,-261.25 507.28,-254.68"/>
</g>
<!-- Node47 -->
<g id="node33" class="node">
<title>Node47</title>
<g id="a_node33"><a xlink:title=" ">
<polygon fill="none" stroke="#bfbfbf" points="1356,-291.5 1356,-310.5 1495,-310.5 1495,-291.5 1356,-291.5"/>
<text text-anchor="middle" x="1425.5" y="-298.5" font-family="Helvetica,sans-Serif" font-size="10.00">G4UserTrackingAction.hh</text>
</a>
</g>
</g>
<!-- Node46&#45;&gt;Node47 -->
<g id="edge37" class="edge">
<title>Node46&#45;&gt;Node47</title>
<path fill="none" stroke="midnightblue" d="M1426.33,-347.08C1426.2,-340.01 1426.02,-329.86 1425.85,-320.99"/>
<polygon fill="midnightblue" stroke="midnightblue" points="1429.35,-320.68 1425.66,-310.75 1422.35,-320.81 1429.35,-320.68"/>
</g>
<!-- Node49 -->
<g id="node35" class="node">
<title>Node49</title>
<g id="a_node35"><a xlink:title=" ">
<polygon fill="none" stroke="#bfbfbf" points="1513,-291.5 1513,-310.5 1654,-310.5 1654,-291.5 1513,-291.5"/>
<text text-anchor="middle" x="1583.5" y="-298.5" font-family="Helvetica,sans-Serif" font-size="10.00">G4UserSteppingAction.hh</text>
</a>
</g>
</g>
<!-- Node48&#45;&gt;Node49 -->
<g id="edge39" class="edge">
<title>Node48&#45;&gt;Node49</title>
<path fill="none" stroke="midnightblue" d="M1583.5,-347.08C1583.5,-340.01 1583.5,-329.86 1583.5,-320.99"/>
<polygon fill="midnightblue" stroke="midnightblue" points="1587,-320.75 1583.5,-310.75 1580,-320.75 1587,-320.75"/>
</g>
<!-- Node51 -->
<g id="node37" class="node">
<title>Node51</title>
<g id="a_node37"><a xlink:href="_o_m_sim_command_args_table_8hh.html" target="_top" xlink:title="Definition of the OMSimCommandArgsTable singleton class, which controls user args.">
<polygon fill="none" stroke="black" points="143.5,-235.5 143.5,-254.5 307.5,-254.5 307.5,-235.5 143.5,-235.5"/>
<text text-anchor="middle" x="225.5" y="-242.5" font-family="Helvetica,sans-Serif" font-size="10.00">OMSimCommandArgsTable.hh</text>
</a>
</g>
</g>
<!-- Node50&#45;&gt;Node51 -->
<g id="edge41" class="edge">
<title>Node50&#45;&gt;Node51</title>
<path fill="none" stroke="midnightblue" d="M350.89,-291.44C326.04,-282.44 286.73,-268.19 258.75,-258.05"/>
<polygon fill="midnightblue" stroke="midnightblue" points="259.59,-254.63 249,-254.52 257.21,-261.21 259.59,-254.63"/>
</g>
<!-- Node54 -->
<g id="node40" class="node">
<title>Node54</title>
<g id="a_node40"><a xlink:title=" ">
<polygon fill="none" stroke="#bfbfbf" points="325.5,-235.5 325.5,-254.5 423.5,-254.5 423.5,-235.5 325.5,-235.5"/>
<text text-anchor="middle" x="374.5" y="-242.5" font-family="Helvetica,sans-Serif" font-size="10.00">G4UImanager.hh</text>
</a>
</g>
</g>
<!-- Node50&#45;&gt;Node54 -->
<g id="edge46" class="edge">
<title>Node50&#45;&gt;Node54</title>
<path fill="none" stroke="midnightblue" d="M374.5,-291.08C374.5,-284.01 374.5,-273.86 374.5,-264.99"/>
<polygon fill="midnightblue" stroke="midnightblue" points="378,-264.75 374.5,-254.75 371,-264.75 378,-264.75"/>
</g>
<!-- Node51&#45;&gt;Node7 -->
<g id="edge42" class="edge">
<title>Node51&#45;&gt;Node7</title>
<path fill="none" stroke="midnightblue" d="M219.64,-235.45C211.54,-222.48 199.04,-197.38 209.5,-179 236.71,-131.18 296.49,-103.64 337.39,-89.74"/>
<polygon fill="midnightblue" stroke="midnightblue" points="338.67,-93.01 347.09,-86.58 336.5,-86.35 338.67,-93.01"/>
</g>
<!-- Node51&#45;&gt;Node33 -->
<g id="edge43" class="edge">
<title>Node51&#45;&gt;Node33</title>
<path fill="none" stroke="midnightblue" d="M283.02,-235.44C358.01,-224.29 487.09,-205.09 550.75,-195.62"/>
<polygon fill="midnightblue" stroke="midnightblue" points="551.38,-199.06 560.75,-194.13 550.35,-192.14 551.38,-199.06"/>
</g>
<!-- Node52 -->
<g id="node38" class="node">
<title>Node52</title>
<g id="a_node38"><a xlink:title=" ">
<polygon fill="none" stroke="#bfbfbf" points="218.5,-179.5 218.5,-198.5 302.5,-198.5 302.5,-179.5 218.5,-179.5"/>
<text text-anchor="middle" x="260.5" y="-186.5" font-family="Helvetica,sans-Serif" font-size="10.00">boost/any.hpp</text>
</a>
</g>
</g>
<!-- Node51&#45;&gt;Node52 -->
<g id="edge44" class="edge">
<title>Node51&#45;&gt;Node52</title>
<path fill="none" stroke="midnightblue" d="M231.28,-235.08C236.17,-227.53 243.33,-216.49 249.33,-207.23"/>
<polygon fill="midnightblue" stroke="midnightblue" points="252.33,-209.05 254.83,-198.75 246.45,-205.24 252.33,-209.05"/>
</g>
<!-- Node53 -->
<g id="node39" class="node">
<title>Node53</title>
<g id="a_node39"><a xlink:title=" ">
<polygon fill="none" stroke="#bfbfbf" points="320.5,-179.5 320.5,-198.5 388.5,-198.5 388.5,-179.5 320.5,-179.5"/>
<text text-anchor="middle" x="354.5" y="-186.5" font-family="Helvetica,sans-Serif" font-size="10.00">sys/time.h</text>
</a>
</g>
</g>
<!-- Node51&#45;&gt;Node53 -->
<g id="edge45" class="edge">
<title>Node51&#45;&gt;Node53</title>
<path fill="none" stroke="midnightblue" d="M245.94,-235.44C267.17,-226.56 300.6,-212.56 324.75,-202.45"/>
<polygon fill="midnightblue" stroke="midnightblue" points="326.28,-205.61 334.16,-198.52 323.58,-199.15 326.28,-205.61"/>
</g>
<!-- Node60 -->
<g id="node46" class="node">
<title>Node60</title>
<g id="a_node46"><a xlink:title=" ">
<polygon fill="none" stroke="#bfbfbf" points="108,-347.5 108,-366.5 175,-366.5 175,-347.5 108,-347.5"/>
<text text-anchor="middle" x="141.5" y="-354.5" font-family="Helvetica,sans-Serif" font-size="10.00">globals.hh</text>
</a>
</g>
</g>
<!-- Node59&#45;&gt;Node60 -->
<g id="edge52" class="edge">
<title>Node59&#45;&gt;Node60</title>
<path fill="none" stroke="midnightblue" d="M350.2,-403.44C305.16,-393.64 231.55,-377.61 184.86,-367.44"/>
<polygon fill="midnightblue" stroke="midnightblue" points="185.56,-364.01 175.05,-365.3 184.07,-370.85 185.56,-364.01"/>
</g>
<!-- Node63&#45;&gt;Node7 -->
<g id="edge56" class="edge">
<title>Node63&#45;&gt;Node7</title>
<path fill="none" stroke="midnightblue" d="M106.32,-403.39C97.86,-385.16 79.5,-341.09 79.5,-302 79.5,-302 79.5,-302 79.5,-188 79.5,-137.31 232.4,-102.93 319.89,-87.41"/>
<polygon fill="midnightblue" stroke="midnightblue" points="320.71,-90.82 329.96,-85.66 319.51,-83.92 320.71,-90.82"/>
</g>
<!-- Node63&#45;&gt;Node60 -->
<g id="edge57" class="edge">
<title>Node63&#45;&gt;Node60</title>
<path fill="none" stroke="midnightblue" d="M115.62,-403.08C119.91,-395.61 126.16,-384.72 131.44,-375.52"/>
<polygon fill="midnightblue" stroke="midnightblue" points="134.53,-377.17 136.48,-366.75 128.46,-373.68 134.53,-377.17"/>
</g>
<!-- Node64 -->
<g id="node50" class="node">
<title>Node64</title>
<g id="a_node50"><a xlink:title=" ">
<polygon fill="none" stroke="#bfbfbf" points="0,-347.5 0,-366.5 51,-366.5 51,-347.5 0,-347.5"/>
<text text-anchor="middle" x="25.5" y="-354.5" font-family="Helvetica,sans-Serif" font-size="10.00">variant</text>
</a>
</g>
</g>
<!-- Node63&#45;&gt;Node64 -->
<g id="edge58" class="edge">
<title>Node63&#45;&gt;Node64</title>
<path fill="none" stroke="midnightblue" d="M96.84,-403.32C83.58,-394.9 63.23,-381.97 47.65,-372.07"/>
<polygon fill="midnightblue" stroke="midnightblue" points="49.44,-369.06 39.12,-366.65 45.69,-374.97 49.44,-369.06"/>
</g>
</g>
</svg>
