<?xml version="1.0" encoding="UTF-8" standalone="no"?>
<!DOCTYPE svg PUBLIC "-//W3C//DTD SVG 1.1//EN"
 "http://www.w3.org/Graphics/SVG/1.1/DTD/svg11.dtd">
<!-- Generated by graphviz version 2.43.0 (0)
 -->
<!-- Title: OMSimRadDecaysDetector.hh Pages: 1 -->
<svg width="1795pt" height="434pt"
 viewBox="0.00 0.00 1795.00 434.00" xmlns="http://www.w3.org/2000/svg" xmlns:xlink="http://www.w3.org/1999/xlink">
<g id="graph0" class="graph" transform="scale(1 1) rotate(0) translate(4 430)">
<title>OMSimRadDecaysDetector.hh</title>
<!-- Node1 -->
<g id="Node000001" class="node">
<title>Node1</title>
<g id="a_Node000001"><a xlink:title="Defines the OMSimRadDecaysDetector class for the radioactive decays simulation.">
<polygon fill="#999999" stroke="#666666" points="1490,-426 1327,-426 1327,-407 1490,-407 1490,-426"/>
<text text-anchor="middle" x="1408.5" y="-414" font-family="Helvetica,sans-Serif" font-size="10.00">OMSimRadDecaysDetector.hh</text>
</a>
</g>
</g>
<!-- Node2 -->
<g id="Node000002" class="node">
<title>Node2</title>
<g id="a_Node000002"><a xlink:href="_o_m_sim_optical_module_8hh_source.html" target="_top" xlink:title=" ">
<polygon fill="white" stroke="#666666" points="1407,-316 1270,-316 1270,-297 1407,-297 1407,-316"/>
<text text-anchor="middle" x="1338.5" y="-304" font-family="Helvetica,sans-Serif" font-size="10.00">OMSimOpticalModule.hh</text>
</a>
</g>
</g>
<!-- Node1&#45;&gt;Node2 -->
<g id="edge1_Node000001_Node000002" class="edge">
<title>Node1&#45;&gt;Node2</title>
<g id="a_edge1_Node000001_Node000002"><a xlink:title=" ">
<path fill="none" stroke="#63b8ff" d="M1402.77,-406.66C1391.18,-388.77 1364.75,-348 1349.64,-324.69"/>
<polygon fill="#63b8ff" stroke="#63b8ff" points="1352.49,-322.65 1344.11,-316.16 1346.61,-326.45 1352.49,-322.65"/>
</a>
</g>
</g>
<!-- Node3 -->
<g id="Node000003" class="node">
<title>Node3</title>
<g id="a_Node000003"><a xlink:href="_o_m_sim_detector_component_8hh.html" target="_top" xlink:title="Provides helper base class OMSimDetectorComponent for constructing and managing detector components i...">
<polygon fill="white" stroke="#666666" points="1309,-206 1144,-206 1144,-187 1309,-187 1309,-206"/>
<text text-anchor="middle" x="1226.5" y="-194" font-family="Helvetica,sans-Serif" font-size="10.00">OMSimDetectorComponent.hh</text>
</a>
</g>
</g>
<!-- Node1&#45;&gt;Node3 -->
<g id="edge35_Node000001_Node000003" class="edge">
<title>Node1&#45;&gt;Node3</title>
<g id="a_edge35_Node000001_Node000003"><a xlink:title=" ">
<path fill="none" stroke="#63b8ff" d="M1387.13,-406.9C1354.81,-392.8 1293.75,-361.69 1260.5,-316 1238.43,-285.67 1230.64,-241.34 1227.93,-216.38"/>
<polygon fill="#63b8ff" stroke="#63b8ff" points="1231.38,-215.75 1226.98,-206.12 1224.41,-216.4 1231.38,-215.75"/>
</a>
</g>
</g>
<!-- Node33 -->
<g id="Node000033" class="node">
<title>Node33</title>
<g id="a_Node000033"><a xlink:href="_o_m_sim_detector_construction_8hh_source.html" target="_top" xlink:title=" ">
<polygon fill="white" stroke="#666666" points="1581.5,-371 1411.5,-371 1411.5,-352 1581.5,-352 1581.5,-371"/>
<text text-anchor="middle" x="1496.5" y="-359" font-family="Helvetica,sans-Serif" font-size="10.00">OMSimDetectorConstruction.hh</text>
</a>
</g>
</g>
<!-- Node1&#45;&gt;Node33 -->
<g id="edge36_Node000001_Node000033" class="edge">
<title>Node1&#45;&gt;Node33</title>
<g id="a_edge36_Node000001_Node000033"><a xlink:title=" ">
<path fill="none" stroke="#63b8ff" d="M1422.64,-406.98C1436.29,-398.77 1457.19,-386.18 1473.28,-376.49"/>
<polygon fill="#63b8ff" stroke="#63b8ff" points="1475.34,-379.33 1482.1,-371.17 1471.73,-373.33 1475.34,-379.33"/>
</a>
</g>
</g>
<!-- Node34 -->
<g id="Node000034" class="node">
<title>Node34</title>
<g id="a_Node000034"><a xlink:title=" ">
<polygon fill="#e0e0e0" stroke="#999999" points="1683.5,-316 1621.5,-316 1621.5,-297 1683.5,-297 1683.5,-316"/>
<text text-anchor="middle" x="1652.5" y="-304" font-family="Helvetica,sans-Serif" font-size="10.00">G4Orb.hh</text>
</a>
</g>
</g>
<!-- Node1&#45;&gt;Node34 -->
<g id="edge40_Node000001_Node000034" class="edge">
<title>Node1&#45;&gt;Node34</title>
<g id="a_edge40_Node000001_Node000034"><a xlink:title=" ">
<path fill="none" stroke="#63b8ff" d="M1482.41,-406.99C1516.94,-400.69 1557.59,-389.78 1590.5,-371 1610.89,-359.36 1628.97,-339.08 1640.27,-324.57"/>
<polygon fill="#63b8ff" stroke="#63b8ff" points="1643.19,-326.51 1646.39,-316.41 1637.59,-322.31 1643.19,-326.51"/>
</a>
</g>
</g>
<!-- Node2&#45;&gt;Node3 -->
<g id="edge2_Node000002_Node000003" class="edge">
<title>Node2&#45;&gt;Node3</title>
<g id="a_edge2_Node000002_Node000003"><a xlink:title=" ">
<path fill="none" stroke="#63b8ff" d="M1326.68,-296.81C1315.22,-288.18 1297.57,-274.37 1283.5,-261 1267.64,-245.93 1251.11,-227.12 1239.97,-213.9"/>
<polygon fill="#63b8ff" stroke="#63b8ff" points="1242.57,-211.55 1233.48,-206.11 1237.19,-216.03 1242.57,-211.55"/>
</a>
</g>
</g>
<!-- Node24 -->
<g id="Node000024" class="node">
<title>Node24</title>
<g id="a_Node000024"><a xlink:title=" ">
<polygon fill="#e0e0e0" stroke="#999999" points="1416,-261 1293,-261 1293,-242 1416,-242 1416,-261"/>
<text text-anchor="middle" x="1354.5" y="-249" font-family="Helvetica,sans-Serif" font-size="10.00">OMSimHitManager.hh</text>
</a>
</g>
</g>
<!-- Node2&#45;&gt;Node24 -->
<g id="edge23_Node000002_Node000024" class="edge">
<title>Node2&#45;&gt;Node24</title>
<g id="a_edge23_Node000002_Node000024"><a xlink:title=" ">
<path fill="none" stroke="#63b8ff" d="M1341.14,-296.75C1343.26,-289.72 1346.31,-279.62 1348.96,-270.84"/>
<polygon fill="#63b8ff" stroke="#63b8ff" points="1352.37,-271.67 1351.91,-261.09 1345.67,-269.65 1352.37,-271.67"/>
</a>
</g>
</g>
<!-- Node25 -->
<g id="Node000025" class="node">
<title>Node25</title>
<g id="a_Node000025"><a xlink:href="_o_m_sim_p_m_t_construction_8hh.html" target="_top" xlink:title="Construction of the PMTs.">
<polygon fill="white" stroke="#666666" points="1592,-261 1443,-261 1443,-242 1592,-242 1592,-261"/>
<text text-anchor="middle" x="1517.5" y="-249" font-family="Helvetica,sans-Serif" font-size="10.00">OMSimPMTConstruction.hh</text>
</a>
</g>
</g>
<!-- Node2&#45;&gt;Node25 -->
<g id="edge24_Node000002_Node000025" class="edge">
<title>Node2&#45;&gt;Node25</title>
<g id="a_edge24_Node000002_Node000025"><a xlink:title=" ">
<path fill="none" stroke="#63b8ff" d="M1367.26,-296.98C1397.44,-288.05 1445.07,-273.94 1478.6,-264.02"/>
<polygon fill="#63b8ff" stroke="#63b8ff" points="1479.92,-267.28 1488.52,-261.08 1477.93,-260.57 1479.92,-267.28"/>
</a>
</g>
</g>
<!-- Node4 -->
<g id="Node000004" class="node">
<title>Node4</title>
<g id="a_Node000004"><a xlink:href="_o_m_sim_input_data_8hh.html" target="_top" xlink:title="Definition of ParameterTable and OMSimInputData.">
<polygon fill="white" stroke="#666666" points="894,-151 779,-151 779,-132 894,-132 894,-151"/>
<text text-anchor="middle" x="836.5" y="-139" font-family="Helvetica,sans-Serif" font-size="10.00">OMSimInputData.hh</text>
</a>
</g>
</g>
<!-- Node3&#45;&gt;Node4 -->
<g id="edge3_Node000003_Node000004" class="edge">
<title>Node3&#45;&gt;Node4</title>
<g id="a_edge3_Node000003_Node000004"><a xlink:title=" ">
<path fill="none" stroke="#63b8ff" d="M1163.84,-186.98C1092.79,-177.33 977.35,-161.64 904.26,-151.71"/>
<polygon fill="#63b8ff" stroke="#63b8ff" points="904.61,-148.22 894.23,-150.35 903.67,-155.16 904.61,-148.22"/>
</a>
</g>
</g>
<!-- Node20 -->
<g id="Node000020" class="node">
<title>Node20</title>
<g id="a_Node000020"><a xlink:title=" ">
<polygon fill="#e0e0e0" stroke="#999999" points="1019,-151 912,-151 912,-132 1019,-132 1019,-151"/>
<text text-anchor="middle" x="965.5" y="-139" font-family="Helvetica,sans-Serif" font-size="10.00">G4Transform3D.hh</text>
</a>
</g>
</g>
<!-- Node3&#45;&gt;Node20 -->
<g id="edge19_Node000003_Node000020" class="edge">
<title>Node3&#45;&gt;Node20</title>
<g id="a_edge19_Node000003_Node000020"><a xlink:title=" ">
<path fill="none" stroke="#63b8ff" d="M1184.57,-186.98C1139.23,-177.78 1066.89,-163.09 1017.85,-153.13"/>
<polygon fill="#63b8ff" stroke="#63b8ff" points="1018.26,-149.64 1007.76,-151.08 1016.87,-156.5 1018.26,-149.64"/>
</a>
</g>
</g>
<!-- Node21 -->
<g id="Node000021" class="node">
<title>Node21</title>
<g id="a_Node000021"><a xlink:title=" ">
<polygon fill="#e0e0e0" stroke="#999999" points="1145.5,-151 1037.5,-151 1037.5,-132 1145.5,-132 1145.5,-151"/>
<text text-anchor="middle" x="1091.5" y="-139" font-family="Helvetica,sans-Serif" font-size="10.00">G4VisAttributes.hh</text>
</a>
</g>
</g>
<!-- Node3&#45;&gt;Node21 -->
<g id="edge20_Node000003_Node000021" class="edge">
<title>Node3&#45;&gt;Node21</title>
<g id="a_edge20_Node000003_Node000021"><a xlink:title=" ">
<path fill="none" stroke="#63b8ff" d="M1204.81,-186.98C1182.7,-178.3 1148.18,-164.75 1123.05,-154.88"/>
<polygon fill="#63b8ff" stroke="#63b8ff" points="1124.17,-151.57 1113.58,-151.17 1121.61,-158.08 1124.17,-151.57"/>
</a>
</g>
</g>
<!-- Node22 -->
<g id="Node000022" class="node">
<title>Node22</title>
<g id="a_Node000022"><a xlink:title=" ">
<polygon fill="#e0e0e0" stroke="#999999" points="1289,-151 1164,-151 1164,-132 1289,-132 1289,-151"/>
<text text-anchor="middle" x="1226.5" y="-139" font-family="Helvetica,sans-Serif" font-size="10.00">G4SubtractionSolid.hh</text>
</a>
</g>
</g>
<!-- Node3&#45;&gt;Node22 -->
<g id="edge21_Node000003_Node000022" class="edge">
<title>Node3&#45;&gt;Node22</title>
<g id="a_edge21_Node000003_Node000022"><a xlink:title=" ">
<path fill="none" stroke="#63b8ff" d="M1226.5,-186.75C1226.5,-179.8 1226.5,-169.85 1226.5,-161.13"/>
<polygon fill="#63b8ff" stroke="#63b8ff" points="1230,-161.09 1226.5,-151.09 1223,-161.09 1230,-161.09"/>
</a>
</g>
</g>
<!-- Node23 -->
<g id="Node000023" class="node">
<title>Node23</title>
<g id="a_Node000023"><a xlink:title=" ">
<polygon fill="#e0e0e0" stroke="#999999" points="1417.5,-151 1307.5,-151 1307.5,-132 1417.5,-132 1417.5,-151"/>
<text text-anchor="middle" x="1362.5" y="-139" font-family="Helvetica,sans-Serif" font-size="10.00">G4PVPlacement.hh</text>
</a>
</g>
</g>
<!-- Node3&#45;&gt;Node23 -->
<g id="edge22_Node000003_Node000023" class="edge">
<title>Node3&#45;&gt;Node23</title>
<g id="a_edge22_Node000003_Node000023"><a xlink:title=" ">
<path fill="none" stroke="#63b8ff" d="M1248.35,-186.98C1270.62,-178.3 1305.4,-164.75 1330.72,-154.88"/>
<polygon fill="#63b8ff" stroke="#63b8ff" points="1332.21,-158.06 1340.25,-151.17 1329.66,-151.54 1332.21,-158.06"/>
</a>
</g>
</g>
<!-- Node5 -->
<g id="Node000005" class="node">
<title>Node5</title>
<g id="a_Node000005"><a xlink:href="_o_m_sim_logger_8hh_source.html" target="_top" xlink:title=" ">
<polygon fill="white" stroke="#666666" points="1150,-90.5 1051,-90.5 1051,-71.5 1150,-71.5 1150,-90.5"/>
<text text-anchor="middle" x="1100.5" y="-78.5" font-family="Helvetica,sans-Serif" font-size="10.00">OMSimLogger.hh</text>
</a>
</g>
</g>
<!-- Node4&#45;&gt;Node5 -->
<g id="edge4_Node000004_Node000005" class="edge">
<title>Node4&#45;&gt;Node5</title>
<g id="a_edge4_Node000004_Node000005"><a xlink:title=" ">
<path fill="none" stroke="#63b8ff" d="M874.89,-131.99C921.81,-121.6 1001.25,-103.99 1052.26,-92.69"/>
<polygon fill="#63b8ff" stroke="#63b8ff" points="1053.06,-96.1 1062.07,-90.52 1051.55,-89.26 1053.06,-96.1"/>
</a>
</g>
</g>
<!-- Node10 -->
<g id="Node000010" class="node">
<title>Node10</title>
<g id="a_Node000010"><a xlink:href="_o_m_sim_op_boundary_process_8hh_source.html" target="_top" xlink:title=" ">
<polygon fill="white" stroke="#666666" points="621.5,-90.5 457.5,-90.5 457.5,-71.5 621.5,-71.5 621.5,-90.5"/>
<text text-anchor="middle" x="539.5" y="-78.5" font-family="Helvetica,sans-Serif" font-size="10.00">OMSimOpBoundaryProcess.hh</text>
</a>
</g>
</g>
<!-- Node4&#45;&gt;Node10 -->
<g id="edge9_Node000004_Node000010" class="edge">
<title>Node4&#45;&gt;Node10</title>
<g id="a_edge9_Node000004_Node000010"><a xlink:title=" ">
<path fill="none" stroke="#63b8ff" d="M793.31,-131.99C740.19,-121.53 650.03,-103.77 592.7,-92.48"/>
<polygon fill="#63b8ff" stroke="#63b8ff" points="593.23,-89.02 582.74,-90.52 591.87,-95.88 593.23,-89.02"/>
</a>
</g>
</g>
<!-- Node18 -->
<g id="Node000018" class="node">
<title>Node18</title>
<g id="a_Node000018"><a xlink:title=" ">
<polygon fill="#e0e0e0" stroke="#999999" points="1432,-90.5 1313,-90.5 1313,-71.5 1432,-71.5 1432,-90.5"/>
<text text-anchor="middle" x="1372.5" y="-78.5" font-family="Helvetica,sans-Serif" font-size="10.00">G4SystemOfUnits.hh</text>
</a>
</g>
</g>
<!-- Node4&#45;&gt;Node18 -->
<g id="edge17_Node000004_Node000018" class="edge">
<title>Node4&#45;&gt;Node18</title>
<g id="a_edge17_Node000004_Node000018"><a xlink:title=" ">
<path fill="none" stroke="#63b8ff" d="M894.08,-133.01C896.93,-132.66 899.75,-132.32 902.5,-132 1044.48,-115.31 1210.89,-98.18 1302.72,-88.94"/>
<polygon fill="#63b8ff" stroke="#63b8ff" points="1303.13,-92.41 1312.73,-87.93 1302.43,-85.45 1303.13,-92.41"/>
</a>
</g>
</g>
<!-- Node19 -->
<g id="Node000019" class="node">
<title>Node19</title>
<g id="a_Node000019"><a xlink:title=" ">
<polygon fill="#e0e0e0" stroke="#999999" points="893,-96 780,-96 780,-66 893,-66 893,-96"/>
<text text-anchor="start" x="788" y="-84" font-family="Helvetica,sans-Serif" font-size="10.00">boost/property_tree</text>
<text text-anchor="middle" x="836.5" y="-73" font-family="Helvetica,sans-Serif" font-size="10.00">/json_parser.hpp</text>
</a>
</g>
</g>
<!-- Node4&#45;&gt;Node19 -->
<g id="edge18_Node000004_Node000019" class="edge">
<title>Node4&#45;&gt;Node19</title>
<g id="a_edge18_Node000004_Node000019"><a xlink:title=" ">
<path fill="none" stroke="#63b8ff" d="M836.5,-131.87C836.5,-125.11 836.5,-115.35 836.5,-106.26"/>
<polygon fill="#63b8ff" stroke="#63b8ff" points="840,-106.11 836.5,-96.11 833,-106.11 840,-106.11"/>
</a>
</g>
</g>
<!-- Node6 -->
<g id="Node000006" class="node">
<title>Node6</title>
<g id="a_Node000006"><a xlink:title=" ">
<polygon fill="#e0e0e0" stroke="#999999" points="1147,-24.5 1054,-24.5 1054,-5.5 1147,-5.5 1147,-24.5"/>
<text text-anchor="middle" x="1100.5" y="-12.5" font-family="Helvetica,sans-Serif" font-size="10.00">spdlog/spdlog.h</text>
</a>
</g>
</g>
<!-- Node5&#45;&gt;Node6 -->
<g id="edge5_Node000005_Node000006" class="edge">
<title>Node5&#45;&gt;Node6</title>
<g id="a_edge5_Node000005_Node000006"><a xlink:title=" ">
<path fill="none" stroke="#63b8ff" d="M1100.5,-71.37C1100.5,-62.16 1100.5,-47.29 1100.5,-35.27"/>
<polygon fill="#63b8ff" stroke="#63b8ff" points="1104,-34.91 1100.5,-24.91 1097,-34.91 1104,-34.91"/>
</a>
</g>
</g>
<!-- Node7 -->
<g id="Node000007" class="node">
<title>Node7</title>
<g id="a_Node000007"><a xlink:title=" ">
<polygon fill="#e0e0e0" stroke="#999999" points="1276,-30 1165,-30 1165,0 1276,0 1276,-30"/>
<text text-anchor="start" x="1173" y="-18" font-family="Helvetica,sans-Serif" font-size="10.00">spdlog/sinks/stdout</text>
<text text-anchor="middle" x="1220.5" y="-7" font-family="Helvetica,sans-Serif" font-size="10.00">_color_sinks.h</text>
</a>
</g>
</g>
<!-- Node5&#45;&gt;Node7 -->
<g id="edge6_Node000005_Node000007" class="edge">
<title>Node5&#45;&gt;Node7</title>
<g id="a_edge6_Node000005_Node000007"><a xlink:title=" ">
<path fill="none" stroke="#63b8ff" d="M1116.68,-71.37C1134.11,-62.07 1162.39,-46.99 1185.04,-34.91"/>
<polygon fill="#63b8ff" stroke="#63b8ff" points="1186.86,-37.91 1194.03,-30.12 1183.56,-31.73 1186.86,-37.91"/>
</a>
</g>
</g>
<!-- Node8 -->
<g id="Node000008" class="node">
<title>Node8</title>
<g id="a_Node000008"><a xlink:title=" ">
<polygon fill="#e0e0e0" stroke="#999999" points="1352.5,-24.5 1294.5,-24.5 1294.5,-5.5 1352.5,-5.5 1352.5,-24.5"/>
<text text-anchor="middle" x="1323.5" y="-12.5" font-family="Helvetica,sans-Serif" font-size="10.00">memory</text>
</a>
</g>
</g>
<!-- Node5&#45;&gt;Node8 -->
<g id="edge7_Node000005_Node000008" class="edge">
<title>Node5&#45;&gt;Node8</title>
<g id="a_edge7_Node000005_Node000008"><a xlink:title=" ">
<path fill="none" stroke="#63b8ff" d="M1134.99,-71.5C1172.14,-62.14 1232.87,-46.25 1284.5,-30 1286.62,-29.33 1288.79,-28.62 1290.98,-27.89"/>
<polygon fill="#63b8ff" stroke="#63b8ff" points="1292.2,-31.17 1300.51,-24.6 1289.91,-24.56 1292.2,-31.17"/>
</a>
</g>
</g>
<!-- Node9 -->
<g id="Node000009" class="node">
<title>Node9</title>
<g id="a_Node000009"><a xlink:title=" ">
<polygon fill="#e0e0e0" stroke="#999999" points="1035.5,-24.5 937.5,-24.5 937.5,-5.5 1035.5,-5.5 1035.5,-24.5"/>
<text text-anchor="middle" x="986.5" y="-12.5" font-family="Helvetica,sans-Serif" font-size="10.00">spdlog/fmt/fmt.h</text>
</a>
</g>
</g>
<!-- Node5&#45;&gt;Node9 -->
<g id="edge8_Node000005_Node000009" class="edge">
<title>Node5&#45;&gt;Node9</title>
<g id="a_edge8_Node000005_Node000009"><a xlink:title=" ">
<path fill="none" stroke="#63b8ff" d="M1085.13,-71.37C1066.09,-60.68 1033.43,-42.35 1010.94,-29.72"/>
<polygon fill="#63b8ff" stroke="#63b8ff" points="1012.43,-26.54 1002,-24.7 1009,-32.65 1012.43,-26.54"/>
</a>
</g>
</g>
<!-- Node11 -->
<g id="Node000011" class="node">
<title>Node11</title>
<g id="a_Node000011"><a xlink:title=" ">
<polygon fill="#e0e0e0" stroke="#999999" points="113,-24.5 0,-24.5 0,-5.5 113,-5.5 113,-24.5"/>
<text text-anchor="middle" x="56.5" y="-12.5" font-family="Helvetica,sans-Serif" font-size="10.00">G4OpticalPhoton.hh</text>
</a>
</g>
</g>
<!-- Node10&#45;&gt;Node11 -->
<g id="edge10_Node000010_Node000011" class="edge">
<title>Node10&#45;&gt;Node11</title>
<g id="a_edge10_Node000010_Node000011"><a xlink:title=" ">
<path fill="none" stroke="#63b8ff" d="M457.3,-72.34C372.97,-63.97 238.13,-49.16 122.5,-30 116.36,-28.98 109.92,-27.78 103.58,-26.52"/>
<polygon fill="#63b8ff" stroke="#63b8ff" points="104.24,-23.09 93.74,-24.51 102.83,-29.94 104.24,-23.09"/>
</a>
</g>
</g>
<!-- Node12 -->
<g id="Node000012" class="node">
<title>Node12</title>
<g id="a_Node000012"><a xlink:title=" ">
<polygon fill="#e0e0e0" stroke="#999999" points="247.5,-24.5 131.5,-24.5 131.5,-5.5 247.5,-5.5 247.5,-24.5"/>
<text text-anchor="middle" x="189.5" y="-12.5" font-family="Helvetica,sans-Serif" font-size="10.00">G4OpticalSurface.hh</text>
</a>
</g>
</g>
<!-- Node10&#45;&gt;Node12 -->
<g id="edge11_Node000010_Node000012" class="edge">
<title>Node10&#45;&gt;Node12</title>
<g id="a_edge11_Node000010_Node000012"><a xlink:title=" ">
<path fill="none" stroke="#63b8ff" d="M488.54,-71.49C431.82,-61.9 337.46,-45.61 256.5,-30 251.03,-28.95 245.32,-27.81 239.63,-26.65"/>
<polygon fill="#63b8ff" stroke="#63b8ff" points="239.99,-23.15 229.49,-24.57 238.58,-30.01 239.99,-23.15"/>
</a>
</g>
</g>
<!-- Node13 -->
<g id="Node000013" class="node">
<title>Node13</title>
<g id="a_Node000013"><a xlink:title=" ">
<polygon fill="#e0e0e0" stroke="#999999" points="375.5,-24.5 265.5,-24.5 265.5,-5.5 375.5,-5.5 375.5,-24.5"/>
<text text-anchor="middle" x="320.5" y="-12.5" font-family="Helvetica,sans-Serif" font-size="10.00">G4RandomTools.hh</text>
</a>
</g>
</g>
<!-- Node10&#45;&gt;Node13 -->
<g id="edge12_Node000010_Node000013" class="edge">
<title>Node10&#45;&gt;Node13</title>
<g id="a_edge12_Node000010_Node000013"><a xlink:title=" ">
<path fill="none" stroke="#63b8ff" d="M509.96,-71.37C471.16,-60.03 402.9,-40.08 359.78,-27.48"/>
<polygon fill="#63b8ff" stroke="#63b8ff" points="360.5,-24.04 349.92,-24.6 358.53,-30.76 360.5,-24.04"/>
</a>
</g>
</g>
<!-- Node14 -->
<g id="Node000014" class="node">
<title>Node14</title>
<g id="a_Node000014"><a xlink:title=" ">
<polygon fill="#e0e0e0" stroke="#999999" points="523.5,-24.5 393.5,-24.5 393.5,-5.5 523.5,-5.5 523.5,-24.5"/>
<text text-anchor="middle" x="458.5" y="-12.5" font-family="Helvetica,sans-Serif" font-size="10.00">G4VDiscreteProcess.hh</text>
</a>
</g>
</g>
<!-- Node10&#45;&gt;Node14 -->
<g id="edge13_Node000010_Node000014" class="edge">
<title>Node10&#45;&gt;Node14</title>
<g id="a_edge13_Node000010_Node000014"><a xlink:title=" ">
<path fill="none" stroke="#63b8ff" d="M528.58,-71.37C515.53,-61.06 493.49,-43.65 477.6,-31.09"/>
<polygon fill="#63b8ff" stroke="#63b8ff" points="479.53,-28.15 469.51,-24.7 475.19,-33.64 479.53,-28.15"/>
</a>
</g>
</g>
<!-- Node15 -->
<g id="Node000015" class="node">
<title>Node15</title>
<g id="a_Node000015"><a xlink:title=" ">
<polygon fill="#e0e0e0" stroke="#999999" points="699,-24.5 542,-24.5 542,-5.5 699,-5.5 699,-24.5"/>
<text text-anchor="middle" x="620.5" y="-12.5" font-family="Helvetica,sans-Serif" font-size="10.00">G4VUserTrackInformation.hh</text>
</a>
</g>
</g>
<!-- Node10&#45;&gt;Node15 -->
<g id="edge14_Node000010_Node000015" class="edge">
<title>Node10&#45;&gt;Node15</title>
<g id="a_edge14_Node000010_Node000015"><a xlink:title=" ">
<path fill="none" stroke="#63b8ff" d="M550.42,-71.37C563.47,-61.06 585.51,-43.65 601.4,-31.09"/>
<polygon fill="#63b8ff" stroke="#63b8ff" points="603.81,-33.64 609.49,-24.7 599.47,-28.15 603.81,-33.64"/>
</a>
</g>
</g>
<!-- Node16 -->
<g id="Node000016" class="node">
<title>Node16</title>
<g id="a_Node000016"><a xlink:title=" ">
<polygon fill="#e0e0e0" stroke="#999999" points="807.5,-24.5 717.5,-24.5 717.5,-5.5 807.5,-5.5 807.5,-24.5"/>
<text text-anchor="middle" x="762.5" y="-12.5" font-family="Helvetica,sans-Serif" font-size="10.00">G4AutoLock.hh</text>
</a>
</g>
</g>
<!-- Node10&#45;&gt;Node16 -->
<g id="edge15_Node000010_Node000016" class="edge">
<title>Node10&#45;&gt;Node16</title>
<g id="a_edge15_Node000010_Node000016"><a xlink:title=" ">
<path fill="none" stroke="#63b8ff" d="M569.57,-71.37C609.17,-60 678.89,-40 722.79,-27.4"/>
<polygon fill="#63b8ff" stroke="#63b8ff" points="723.9,-30.72 732.55,-24.6 721.97,-23.99 723.9,-30.72"/>
</a>
</g>
</g>
<!-- Node17 -->
<g id="Node000017" class="node">
<title>Node17</title>
<g id="a_Node000017"><a xlink:title=" ">
<polygon fill="#e0e0e0" stroke="#999999" points="919.5,-24.5 825.5,-24.5 825.5,-5.5 919.5,-5.5 919.5,-24.5"/>
<text text-anchor="middle" x="872.5" y="-12.5" font-family="Helvetica,sans-Serif" font-size="10.00">G4Threading.hh</text>
</a>
</g>
</g>
<!-- Node10&#45;&gt;Node17 -->
<g id="edge16_Node000010_Node000017" class="edge">
<title>Node10&#45;&gt;Node17</title>
<g id="a_edge16_Node000010_Node000017"><a xlink:title=" ">
<path fill="none" stroke="#63b8ff" d="M592.81,-71.46C648.74,-62.24 739.1,-46.64 816.5,-30 820.92,-29.05 825.52,-28 830.1,-26.92"/>
<polygon fill="#63b8ff" stroke="#63b8ff" points="831.12,-30.27 840.01,-24.51 829.47,-23.47 831.12,-30.27"/>
</a>
</g>
</g>
<!-- Node25&#45;&gt;Node3 -->
<g id="edge25_Node000025_Node000003" class="edge">
<title>Node25&#45;&gt;Node3</title>
<g id="a_edge25_Node000025_Node000003"><a xlink:title=" ">
<path fill="none" stroke="#63b8ff" d="M1470.75,-241.98C1419.78,-232.7 1338.19,-217.84 1283.51,-207.88"/>
<polygon fill="#63b8ff" stroke="#63b8ff" points="1284.09,-204.43 1273.62,-206.08 1282.83,-211.32 1284.09,-204.43"/>
</a>
</g>
</g>
<!-- Node25&#45;&gt;Node25 -->
<g id="edge26_Node000025_Node000025" class="edge">
<title>Node25&#45;&gt;Node25</title>
<g id="a_edge26_Node000025_Node000025"><a xlink:title=" ">
<path fill="none" stroke="#63b8ff" d="M1560.8,-261.03C1586.21,-263.06 1610,-259.88 1610,-251.5 1610,-244.23 1592.11,-240.87 1570.79,-241.44"/>
<polygon fill="#63b8ff" stroke="#63b8ff" points="1570.6,-237.94 1560.8,-241.97 1570.97,-244.93 1570.6,-237.94"/>
</a>
</g>
</g>
<!-- Node26 -->
<g id="Node000026" class="node">
<title>Node26</title>
<g id="a_Node000026"><a xlink:href="_o_m_sim_p_m_t_response_8hh.html" target="_top" xlink:title="Simulation of PMT response.">
<polygon fill="white" stroke="#666666" points="1585,-206 1450,-206 1450,-187 1585,-187 1585,-206"/>
<text text-anchor="middle" x="1517.5" y="-194" font-family="Helvetica,sans-Serif" font-size="10.00">OMSimPMTResponse.hh</text>
</a>
</g>
</g>
<!-- Node25&#45;&gt;Node26 -->
<g id="edge27_Node000025_Node000026" class="edge">
<title>Node25&#45;&gt;Node26</title>
<g id="a_edge27_Node000025_Node000026"><a xlink:title=" ">
<path fill="none" stroke="#63b8ff" d="M1517.5,-241.75C1517.5,-234.8 1517.5,-224.85 1517.5,-216.13"/>
<polygon fill="#63b8ff" stroke="#63b8ff" points="1521,-216.09 1517.5,-206.09 1514,-216.09 1521,-216.09"/>
</a>
</g>
</g>
<!-- Node31 -->
<g id="Node000031" class="node">
<title>Node31</title>
<g id="a_Node000031"><a xlink:title=" ">
<polygon fill="#e0e0e0" stroke="#999999" points="1701.5,-206 1603.5,-206 1603.5,-187 1701.5,-187 1701.5,-206"/>
<text text-anchor="middle" x="1652.5" y="-194" font-family="Helvetica,sans-Serif" font-size="10.00">G4UnionSolid.hh</text>
</a>
</g>
</g>
<!-- Node25&#45;&gt;Node31 -->
<g id="edge33_Node000025_Node000031" class="edge">
<title>Node25&#45;&gt;Node31</title>
<g id="a_edge33_Node000025_Node000031"><a xlink:title=" ">
<path fill="none" stroke="#63b8ff" d="M1539.19,-241.98C1561.3,-233.3 1595.82,-219.75 1620.95,-209.88"/>
<polygon fill="#63b8ff" stroke="#63b8ff" points="1622.39,-213.08 1630.42,-206.17 1619.83,-206.57 1622.39,-213.08"/>
</a>
</g>
</g>
<!-- Node32 -->
<g id="Node000032" class="node">
<title>Node32</title>
<g id="a_Node000032"><a xlink:title=" ">
<polygon fill="#e0e0e0" stroke="#999999" points="1787,-206 1720,-206 1720,-187 1787,-187 1787,-206"/>
<text text-anchor="middle" x="1753.5" y="-194" font-family="Helvetica,sans-Serif" font-size="10.00">G4Tubs.hh</text>
</a>
</g>
</g>
<!-- Node25&#45;&gt;Node32 -->
<g id="edge34_Node000025_Node000032" class="edge">
<title>Node25&#45;&gt;Node32</title>
<g id="a_edge34_Node000025_Node000032"><a xlink:title=" ">
<path fill="none" stroke="#63b8ff" d="M1555.42,-241.98C1597.6,-232.51 1665.65,-217.23 1709.98,-207.27"/>
<polygon fill="#63b8ff" stroke="#63b8ff" points="1710.89,-210.66 1719.88,-205.05 1709.36,-203.83 1710.89,-210.66"/>
</a>
</g>
</g>
<!-- Node26&#45;&gt;Node18 -->
<g id="edge28_Node000026_Node000018" class="edge">
<title>Node26&#45;&gt;Node18</title>
<g id="a_edge28_Node000026_Node000018"><a xlink:title=" ">
<path fill="none" stroke="#63b8ff" d="M1517.08,-186.96C1515.97,-173.58 1511.96,-147.59 1497.5,-132 1479.62,-112.72 1453.32,-100.73 1429.44,-93.34"/>
<polygon fill="#63b8ff" stroke="#63b8ff" points="1430.32,-89.95 1419.74,-90.55 1428.38,-96.68 1430.32,-89.95"/>
</a>
</g>
</g>
<!-- Node27 -->
<g id="Node000027" class="node">
<title>Node27</title>
<g id="a_Node000027"><a xlink:title=" ">
<polygon fill="#e0e0e0" stroke="#999999" points="1619,-151 1546,-151 1546,-132 1619,-132 1619,-151"/>
<text text-anchor="middle" x="1582.5" y="-139" font-family="Helvetica,sans-Serif" font-size="10.00">G4Types.hh</text>
</a>
</g>
</g>
<!-- Node26&#45;&gt;Node27 -->
<g id="edge29_Node000026_Node000027" class="edge">
<title>Node26&#45;&gt;Node27</title>
<g id="a_edge29_Node000026_Node000027"><a xlink:title=" ">
<path fill="none" stroke="#63b8ff" d="M1527.94,-186.98C1537.65,-179.07 1552.32,-167.11 1564,-157.58"/>
<polygon fill="#63b8ff" stroke="#63b8ff" points="1566.33,-160.2 1571.87,-151.17 1561.9,-154.78 1566.33,-160.2"/>
</a>
</g>
</g>
<!-- Node28 -->
<g id="Node000028" class="node">
<title>Node28</title>
<g id="a_Node000028"><a xlink:title=" ">
<polygon fill="#e0e0e0" stroke="#999999" points="1675.5,-151 1637.5,-151 1637.5,-132 1675.5,-132 1675.5,-151"/>
<text text-anchor="middle" x="1656.5" y="-139" font-family="Helvetica,sans-Serif" font-size="10.00">map</text>
</a>
</g>
</g>
<!-- Node26&#45;&gt;Node28 -->
<g id="edge30_Node000026_Node000028" class="edge">
<title>Node26&#45;&gt;Node28</title>
<g id="a_edge30_Node000026_Node000028"><a xlink:title=" ">
<path fill="none" stroke="#63b8ff" d="M1539.83,-186.98C1563.79,-177.85 1601.89,-163.32 1627.99,-153.37"/>
<polygon fill="#63b8ff" stroke="#63b8ff" points="1629.26,-156.63 1637.36,-149.8 1626.76,-150.09 1629.26,-156.63"/>
</a>
</g>
</g>
<!-- Node29 -->
<g id="Node000029" class="node">
<title>Node29</title>
<g id="a_Node000029"><a xlink:title=" ">
<polygon fill="#e0e0e0" stroke="#999999" points="1755,-151 1694,-151 1694,-132 1755,-132 1755,-151"/>
<text text-anchor="middle" x="1724.5" y="-139" font-family="Helvetica,sans-Serif" font-size="10.00">TGraph.h</text>
</a>
</g>
</g>
<!-- Node26&#45;&gt;Node29 -->
<g id="edge31_Node000026_Node000029" class="edge">
<title>Node26&#45;&gt;Node29</title>
<g id="a_edge31_Node000026_Node000029"><a xlink:title=" ">
<path fill="none" stroke="#63b8ff" d="M1550.76,-186.98C1586.95,-177.72 1644.85,-162.89 1683.75,-152.93"/>
<polygon fill="#63b8ff" stroke="#63b8ff" points="1684.87,-156.26 1693.69,-150.39 1683.13,-149.48 1684.87,-156.26"/>
</a>
</g>
</g>
<!-- Node30 -->
<g id="Node000030" class="node">
<title>Node30</title>
<g id="a_Node000030"><a xlink:title=" ">
<polygon fill="#e0e0e0" stroke="#999999" points="1489,-151 1436,-151 1436,-132 1489,-132 1489,-151"/>
<text text-anchor="middle" x="1462.5" y="-139" font-family="Helvetica,sans-Serif" font-size="10.00">TH2D.h</text>
</a>
</g>
</g>
<!-- Node26&#45;&gt;Node30 -->
<g id="edge32_Node000026_Node000030" class="edge">
<title>Node26&#45;&gt;Node30</title>
<g id="a_edge32_Node000026_Node000030"><a xlink:title=" ">
<path fill="none" stroke="#63b8ff" d="M1508.42,-186.75C1500.41,-179.03 1488.54,-167.6 1478.88,-158.28"/>
<polygon fill="#63b8ff" stroke="#63b8ff" points="1481.04,-155.51 1471.41,-151.09 1476.19,-160.55 1481.04,-155.51"/>
</a>
</g>
</g>
<!-- Node33&#45;&gt;Node2 -->
<g id="edge37_Node000033_Node000002" class="edge">
<title>Node33&#45;&gt;Node2</title>
<g id="a_edge37_Node000033_Node000002"><a xlink:title=" ">
<path fill="none" stroke="#63b8ff" d="M1471.11,-351.98C1444.7,-343.13 1403.15,-329.19 1373.61,-319.28"/>
<polygon fill="#63b8ff" stroke="#63b8ff" points="1374.68,-315.94 1364.08,-316.08 1372.45,-322.58 1374.68,-315.94"/>
</a>
</g>
</g>
<!-- Node33&#45;&gt;Node34 -->
<g id="edge38_Node000033_Node000034" class="edge">
<title>Node33&#45;&gt;Node34</title>
<g id="a_edge38_Node000033_Node000034"><a xlink:title=" ">
<path fill="none" stroke="#63b8ff" d="M1521.56,-351.98C1547.53,-343.16 1588.31,-329.31 1617.46,-319.41"/>
<polygon fill="#63b8ff" stroke="#63b8ff" points="1618.9,-322.61 1627.24,-316.08 1616.65,-315.99 1618.9,-322.61"/>
</a>
</g>
</g>
<!-- Node35 -->
<g id="Node000035" class="node">
<title>Node35</title>
<g id="a_Node000035"><a xlink:title=" ">
<polygon fill="#e0e0e0" stroke="#999999" points="1603.5,-316 1425.5,-316 1425.5,-297 1603.5,-297 1603.5,-316"/>
<text text-anchor="middle" x="1514.5" y="-304" font-family="Helvetica,sans-Serif" font-size="10.00">G4VUserDetectorConstruction.hh</text>
</a>
</g>
</g>
<!-- Node33&#45;&gt;Node35 -->
<g id="edge39_Node000033_Node000035" class="edge">
<title>Node33&#45;&gt;Node35</title>
<g id="a_edge39_Node000033_Node000035"><a xlink:title=" ">
<path fill="none" stroke="#63b8ff" d="M1499.47,-351.75C1501.86,-344.72 1505.29,-334.62 1508.27,-325.84"/>
<polygon fill="#63b8ff" stroke="#63b8ff" points="1511.68,-326.68 1511.58,-316.09 1505.05,-324.43 1511.68,-326.68"/>
</a>
</g>
</g>
</g>
</svg>
