<?xml version="1.0" encoding="UTF-8" standalone="no"?>
<!DOCTYPE svg PUBLIC "-//W3C//DTD SVG 1.1//EN"
 "http://www.w3.org/Graphics/SVG/1.1/DTD/svg11.dtd">
<!-- Generated by graphviz version 2.43.0 (0)
 -->
<!-- Title: OMSimMDOMFlasher.cc Pages: 1 -->
<svg width="1308pt" height="442pt"
 viewBox="0.00 0.00 1308.00 442.00" xmlns="http://www.w3.org/2000/svg" xmlns:xlink="http://www.w3.org/1999/xlink">
<g id="graph0" class="graph" transform="scale(1 1) rotate(0) translate(4 438)">
<title>OMSimMDOMFlasher.cc</title>
<polygon fill="white" stroke="transparent" points="-4,4 -4,-438 1304,-438 1304,4 -4,4"/>
<!-- Node1 -->
<g id="node1" class="node">
<title>Node1</title>
<g id="a_node1"><a xlink:title=" ">
<polygon fill="#bfbfbf" stroke="black" points="981,-414.5 981,-433.5 1115,-433.5 1115,-414.5 981,-414.5"/>
<text text-anchor="middle" x="1048" y="-421.5" font-family="Helvetica,sans-Serif" font-size="10.00">OMSimMDOMFlasher.cc</text>
</a>
</g>
</g>
<!-- Node2 -->
<g id="node2" class="node">
<title>Node2</title>
<g id="a_node2"><a xlink:href="_o_m_sim_m_d_o_m_8hh.html" target="_top" xlink:title="Construction of mDOM.">
<polygon fill="white" stroke="black" points="506,-358.5 506,-377.5 606,-377.5 606,-358.5 506,-358.5"/>
<text text-anchor="middle" x="556" y="-365.5" font-family="Helvetica,sans-Serif" font-size="10.00">OMSimMDOM.hh</text>
</a>
</g>
</g>
<!-- Node1&#45;&gt;Node2 -->
<g id="edge1" class="edge">
<title>Node1&#45;&gt;Node2</title>
<path fill="none" stroke="midnightblue" d="M980.88,-415.63C884.56,-405.06 708.62,-385.75 616.26,-375.61"/>
<polygon fill="midnightblue" stroke="midnightblue" points="616.56,-372.13 606.23,-374.51 615.79,-379.08 616.56,-372.13"/>
</g>
<!-- Node31 -->
<g id="node31" class="node">
<title>Node31</title>
<g id="a_node31"><a xlink:href="_o_m_sim_u_iinterface_8hh.html" target="_top" xlink:title=" ">
<polygon fill="white" stroke="black" points="987.5,-358.5 987.5,-377.5 1108.5,-377.5 1108.5,-358.5 987.5,-358.5"/>
<text text-anchor="middle" x="1048" y="-365.5" font-family="Helvetica,sans-Serif" font-size="10.00">OMSimUIinterface.hh</text>
</a>
</g>
</g>
<!-- Node1&#45;&gt;Node31 -->
<g id="edge37" class="edge">
<title>Node1&#45;&gt;Node31</title>
<path fill="none" stroke="midnightblue" d="M1048,-414.08C1048,-407.01 1048,-396.86 1048,-387.99"/>
<polygon fill="midnightblue" stroke="midnightblue" points="1051.5,-387.75 1048,-377.75 1044.5,-387.75 1051.5,-387.75"/>
</g>
<!-- Node32 -->
<g id="node32" class="node">
<title>Node32</title>
<g id="a_node32"><a xlink:href="_o_m_sim_command_args_table_8hh.html" target="_top" xlink:title="Definition of the OMSimCommandArgsTable singleton class, which controls user args.">
<polygon fill="white" stroke="black" points="922,-302.5 922,-321.5 1086,-321.5 1086,-302.5 922,-302.5"/>
<text text-anchor="middle" x="1004" y="-309.5" font-family="Helvetica,sans-Serif" font-size="10.00">OMSimCommandArgsTable.hh</text>
</a>
</g>
</g>
<!-- Node1&#45;&gt;Node32 -->
<g id="edge44" class="edge">
<title>Node1&#45;&gt;Node32</title>
<path fill="none" stroke="midnightblue" d="M1023.53,-414.44C1007.43,-407.38 987.62,-395.63 978,-378 969.4,-362.25 979.37,-343.04 989.35,-329.61"/>
<polygon fill="midnightblue" stroke="midnightblue" points="992.17,-331.69 995.71,-321.71 986.72,-327.3 992.17,-331.69"/>
</g>
<!-- Node36 -->
<g id="node36" class="node">
<title>Node36</title>
<g id="a_node36"><a xlink:title=" ">
<polygon fill="white" stroke="#bfbfbf" points="1126.5,-358.5 1126.5,-377.5 1195.5,-377.5 1195.5,-358.5 1126.5,-358.5"/>
<text text-anchor="middle" x="1161" y="-365.5" font-family="Helvetica,sans-Serif" font-size="10.00">G4Cons.hh</text>
</a>
</g>
</g>
<!-- Node1&#45;&gt;Node36 -->
<g id="edge45" class="edge">
<title>Node1&#45;&gt;Node36</title>
<path fill="none" stroke="midnightblue" d="M1065.91,-414.44C1084.25,-405.68 1113.01,-391.94 1134.09,-381.86"/>
<polygon fill="midnightblue" stroke="midnightblue" points="1135.67,-384.99 1143.18,-377.52 1132.65,-378.67 1135.67,-384.99"/>
</g>
<!-- Node37 -->
<g id="node37" class="node">
<title>Node37</title>
<g id="a_node37"><a xlink:title=" ">
<polygon fill="white" stroke="#bfbfbf" points="1214,-358.5 1214,-377.5 1300,-377.5 1300,-358.5 1214,-358.5"/>
<text text-anchor="middle" x="1257" y="-365.5" font-family="Helvetica,sans-Serif" font-size="10.00">G4Ellipsoid.hh</text>
</a>
</g>
</g>
<!-- Node1&#45;&gt;Node37 -->
<g id="edge46" class="edge">
<title>Node1&#45;&gt;Node37</title>
<path fill="none" stroke="midnightblue" d="M1081.12,-414.44C1117.12,-405.14 1174.77,-390.25 1214.19,-380.06"/>
<polygon fill="midnightblue" stroke="midnightblue" points="1215.23,-383.41 1224.04,-377.52 1213.48,-376.63 1215.23,-383.41"/>
</g>
<!-- Node3 -->
<g id="node3" class="node">
<title>Node3</title>
<g id="a_node3"><a xlink:href="_o_m_sim_m_d_o_m_flasher_8hh.html" target="_top" xlink:title="Defines the mDOMFlasher class for simulating the 10 flashers in an mDOM optical module.">
<polygon fill="white" stroke="black" points="229.5,-246.5 229.5,-265.5 364.5,-265.5 364.5,-246.5 229.5,-246.5"/>
<text text-anchor="middle" x="297" y="-253.5" font-family="Helvetica,sans-Serif" font-size="10.00">OMSimMDOMFlasher.hh</text>
</a>
</g>
</g>
<!-- Node2&#45;&gt;Node3 -->
<g id="edge2" class="edge">
<title>Node2&#45;&gt;Node3</title>
<path fill="none" stroke="midnightblue" d="M535.68,-358.37C490.1,-339.01 379.56,-292.06 326.45,-269.51"/>
<polygon fill="midnightblue" stroke="midnightblue" points="327.8,-266.28 317.23,-265.59 325.06,-272.72 327.8,-266.28"/>
</g>
<!-- Node20 -->
<g id="node20" class="node">
<title>Node20</title>
<g id="a_node20"><a xlink:href="_o_m_sim_p_m_t_construction_8hh.html" target="_top" xlink:title="Construction of the PMTs.">
<polygon fill="white" stroke="black" points="415.5,-246.5 415.5,-265.5 564.5,-265.5 564.5,-246.5 415.5,-246.5"/>
<text text-anchor="middle" x="490" y="-253.5" font-family="Helvetica,sans-Serif" font-size="10.00">OMSimPMTConstruction.hh</text>
</a>
</g>
</g>
<!-- Node2&#45;&gt;Node20 -->
<g id="edge19" class="edge">
<title>Node2&#45;&gt;Node20</title>
<path fill="none" stroke="midnightblue" d="M549.8,-358.18C543.58,-349.2 533.81,-334.83 526,-322 516.38,-306.2 506.24,-287.7 499.18,-274.48"/>
<polygon fill="midnightblue" stroke="midnightblue" points="502.22,-272.74 494.44,-265.54 496.03,-276.02 502.22,-272.74"/>
</g>
<!-- Node27 -->
<g id="node27" class="node">
<title>Node27</title>
<g id="a_node27"><a xlink:href="_o_m_sim_optical_module_8hh.html" target="_top" xlink:title=" ">
<polygon fill="white" stroke="black" points="535.5,-302.5 535.5,-321.5 672.5,-321.5 672.5,-302.5 535.5,-302.5"/>
<text text-anchor="middle" x="604" y="-309.5" font-family="Helvetica,sans-Serif" font-size="10.00">OMSimOpticalModule.hh</text>
</a>
</g>
</g>
<!-- Node2&#45;&gt;Node27 -->
<g id="edge30" class="edge">
<title>Node2&#45;&gt;Node27</title>
<path fill="none" stroke="midnightblue" d="M563.93,-358.08C570.85,-350.3 581.07,-338.8 589.45,-329.37"/>
<polygon fill="midnightblue" stroke="midnightblue" points="592.19,-331.55 596.22,-321.75 586.96,-326.9 592.19,-331.55"/>
</g>
<!-- Node4 -->
<g id="node4" class="node">
<title>Node4</title>
<g id="a_node4"><a xlink:href="abc_detector_component_8hh.html" target="_top" xlink:title="Provides helper base class abcDetectorComponent for constructing and managing detector components in ...">
<polygon fill="white" stroke="black" points="432.5,-190.5 432.5,-209.5 579.5,-209.5 579.5,-190.5 432.5,-190.5"/>
<text text-anchor="middle" x="506" y="-197.5" font-family="Helvetica,sans-Serif" font-size="10.00">abcDetectorComponent.hh</text>
</a>
</g>
</g>
<!-- Node3&#45;&gt;Node4 -->
<g id="edge3" class="edge">
<title>Node3&#45;&gt;Node4</title>
<path fill="none" stroke="midnightblue" d="M330.12,-246.44C366.12,-237.14 423.77,-222.25 463.19,-212.06"/>
<polygon fill="midnightblue" stroke="midnightblue" points="464.23,-215.41 473.04,-209.52 462.48,-208.63 464.23,-215.41"/>
</g>
<!-- Node18 -->
<g id="node18" class="node">
<title>Node18</title>
<g id="a_node18"><a xlink:title=" ">
<polygon fill="white" stroke="#bfbfbf" points="231,-190.5 231,-209.5 329,-209.5 329,-190.5 231,-190.5"/>
<text text-anchor="middle" x="280" y="-197.5" font-family="Helvetica,sans-Serif" font-size="10.00">G4UnionSolid.hh</text>
</a>
</g>
</g>
<!-- Node3&#45;&gt;Node18 -->
<g id="edge17" class="edge">
<title>Node3&#45;&gt;Node18</title>
<path fill="none" stroke="midnightblue" d="M294.19,-246.08C291.92,-238.85 288.63,-228.41 285.79,-219.4"/>
<polygon fill="midnightblue" stroke="midnightblue" points="289.1,-218.24 282.75,-209.75 282.42,-220.34 289.1,-218.24"/>
</g>
<!-- Node19 -->
<g id="node19" class="node">
<title>Node19</title>
<g id="a_node19"><a xlink:title=" ">
<polygon fill="white" stroke="#bfbfbf" points="121,-190.5 121,-209.5 213,-209.5 213,-190.5 121,-190.5"/>
<text text-anchor="middle" x="167" y="-197.5" font-family="Helvetica,sans-Serif" font-size="10.00">G4Navigator.hh</text>
</a>
</g>
</g>
<!-- Node3&#45;&gt;Node19 -->
<g id="edge18" class="edge">
<title>Node3&#45;&gt;Node19</title>
<path fill="none" stroke="midnightblue" d="M276.4,-246.44C255.01,-237.56 221.32,-223.56 196.98,-213.45"/>
<polygon fill="midnightblue" stroke="midnightblue" points="198.08,-210.12 187.5,-209.52 195.39,-216.58 198.08,-210.12"/>
</g>
<!-- Node5 -->
<g id="node5" class="node">
<title>Node5</title>
<g id="a_node5"><a xlink:href="_o_m_sim_input_data_8hh.html" target="_top" xlink:title="Definition of ParameterTable and InputDataManager.">
<polygon fill="white" stroke="black" points="398.5,-134.5 398.5,-153.5 513.5,-153.5 513.5,-134.5 398.5,-134.5"/>
<text text-anchor="middle" x="456" y="-141.5" font-family="Helvetica,sans-Serif" font-size="10.00">OMSimInputData.hh</text>
</a>
</g>
</g>
<!-- Node4&#45;&gt;Node5 -->
<g id="edge4" class="edge">
<title>Node4&#45;&gt;Node5</title>
<path fill="none" stroke="midnightblue" d="M497.74,-190.08C490.54,-182.3 479.89,-170.8 471.15,-161.37"/>
<polygon fill="midnightblue" stroke="midnightblue" points="473.47,-158.71 464.1,-153.75 468.33,-163.47 473.47,-158.71"/>
</g>
<!-- Node14 -->
<g id="node14" class="node">
<title>Node14</title>
<g id="a_node14"><a xlink:title=" ">
<polygon fill="white" stroke="#bfbfbf" points="531.5,-134.5 531.5,-153.5 638.5,-153.5 638.5,-134.5 531.5,-134.5"/>
<text text-anchor="middle" x="585" y="-141.5" font-family="Helvetica,sans-Serif" font-size="10.00">G4Transform3D.hh</text>
</a>
</g>
</g>
<!-- Node4&#45;&gt;Node14 -->
<g id="edge13" class="edge">
<title>Node4&#45;&gt;Node14</title>
<path fill="none" stroke="midnightblue" d="M518.69,-190.32C530.9,-181.98 549.58,-169.21 564,-159.35"/>
<polygon fill="midnightblue" stroke="midnightblue" points="566.06,-162.19 572.34,-153.65 562.11,-156.41 566.06,-162.19"/>
</g>
<!-- Node15 -->
<g id="node15" class="node">
<title>Node15</title>
<g id="a_node15"><a xlink:title=" ">
<polygon fill="white" stroke="#bfbfbf" points="0,-134.5 0,-153.5 108,-153.5 108,-134.5 0,-134.5"/>
<text text-anchor="middle" x="54" y="-141.5" font-family="Helvetica,sans-Serif" font-size="10.00">G4VisAttributes.hh</text>
</a>
</g>
</g>
<!-- Node4&#45;&gt;Node15 -->
<g id="edge14" class="edge">
<title>Node4&#45;&gt;Node15</title>
<path fill="none" stroke="midnightblue" d="M432.35,-190.72C341.5,-180.46 191.1,-163.35 118.43,-154.15"/>
<polygon fill="midnightblue" stroke="midnightblue" points="118.65,-150.65 108.28,-152.85 117.76,-157.59 118.65,-150.65"/>
</g>
<!-- Node16 -->
<g id="node16" class="node">
<title>Node16</title>
<g id="a_node16"><a xlink:title=" ">
<polygon fill="white" stroke="#bfbfbf" points="126.5,-134.5 126.5,-153.5 251.5,-153.5 251.5,-134.5 126.5,-134.5"/>
<text text-anchor="middle" x="189" y="-141.5" font-family="Helvetica,sans-Serif" font-size="10.00">G4SubtractionSolid.hh</text>
</a>
</g>
</g>
<!-- Node4&#45;&gt;Node16 -->
<g id="edge15" class="edge">
<title>Node4&#45;&gt;Node16</title>
<path fill="none" stroke="midnightblue" d="M455.77,-190.44C399.66,-180.89 308.87,-165.42 249.05,-155.23"/>
<polygon fill="midnightblue" stroke="midnightblue" points="249.44,-151.75 238.99,-153.52 248.26,-158.65 249.44,-151.75"/>
</g>
<!-- Node17 -->
<g id="node17" class="node">
<title>Node17</title>
<g id="a_node17"><a xlink:title=" ">
<polygon fill="white" stroke="#bfbfbf" points="270,-134.5 270,-153.5 380,-153.5 380,-134.5 270,-134.5"/>
<text text-anchor="middle" x="325" y="-141.5" font-family="Helvetica,sans-Serif" font-size="10.00">G4PVPlacement.hh</text>
</a>
</g>
</g>
<!-- Node4&#45;&gt;Node17 -->
<g id="edge16" class="edge">
<title>Node4&#45;&gt;Node17</title>
<path fill="none" stroke="midnightblue" d="M477.32,-190.44C446.47,-181.24 397.27,-166.56 363.17,-156.39"/>
<polygon fill="midnightblue" stroke="midnightblue" points="364.13,-153.02 353.55,-153.52 362.13,-159.73 364.13,-153.02"/>
</g>
<!-- Node6 -->
<g id="node6" class="node">
<title>Node6</title>
<g id="a_node6"><a xlink:href="_o_m_sim_logger_8hh.html" target="_top" xlink:title=" ">
<polygon fill="white" stroke="black" points="919.5,-73 919.5,-92 1018.5,-92 1018.5,-73 919.5,-73"/>
<text text-anchor="middle" x="969" y="-80" font-family="Helvetica,sans-Serif" font-size="10.00">OMSimLogger.hh</text>
</a>
</g>
</g>
<!-- Node5&#45;&gt;Node6 -->
<g id="edge5" class="edge">
<title>Node5&#45;&gt;Node6</title>
<path fill="none" stroke="midnightblue" d="M513.58,-135.07C516.43,-134.7 519.25,-134.34 522,-134 663.58,-116.36 699.23,-114.03 841,-98 863.35,-95.47 887.89,-92.69 909.46,-90.25"/>
<polygon fill="midnightblue" stroke="midnightblue" points="909.92,-93.72 919.46,-89.12 909.13,-86.77 909.92,-93.72"/>
</g>
<!-- Node11 -->
<g id="node11" class="node">
<title>Node11</title>
<g id="a_node11"><a xlink:title=" ">
<polygon fill="white" stroke="#bfbfbf" points="418.5,-73 418.5,-92 561.5,-92 561.5,-73 418.5,-73"/>
<text text-anchor="middle" x="490" y="-80" font-family="Helvetica,sans-Serif" font-size="10.00">G4OpBoundaryProcess.hh</text>
</a>
</g>
</g>
<!-- Node5&#45;&gt;Node11 -->
<g id="edge10" class="edge">
<title>Node5&#45;&gt;Node11</title>
<path fill="none" stroke="midnightblue" d="M460.87,-134.48C465.87,-125.73 473.79,-111.87 480.11,-100.81"/>
<polygon fill="midnightblue" stroke="midnightblue" points="483.22,-102.43 485.14,-92.01 477.14,-98.96 483.22,-102.43"/>
</g>
<!-- Node12 -->
<g id="node12" class="node">
<title>Node12</title>
<g id="a_node12"><a xlink:title=" ">
<polygon fill="white" stroke="#bfbfbf" points="713.5,-73 713.5,-92 832.5,-92 832.5,-73 713.5,-73"/>
<text text-anchor="middle" x="773" y="-80" font-family="Helvetica,sans-Serif" font-size="10.00">G4SystemOfUnits.hh</text>
</a>
</g>
</g>
<!-- Node5&#45;&gt;Node12 -->
<g id="edge11" class="edge">
<title>Node5&#45;&gt;Node12</title>
<path fill="none" stroke="midnightblue" d="M501.42,-134.48C558.5,-123.76 656.42,-105.38 717.77,-93.87"/>
<polygon fill="midnightblue" stroke="midnightblue" points="718.48,-97.29 727.67,-92.01 717.19,-90.41 718.48,-97.29"/>
</g>
<!-- Node13 -->
<g id="node13" class="node">
<title>Node13</title>
<g id="a_node13"><a xlink:title=" ">
<polygon fill="white" stroke="#bfbfbf" points="287.5,-67.5 287.5,-97.5 400.5,-97.5 400.5,-67.5 287.5,-67.5"/>
<text text-anchor="start" x="295.5" y="-85.5" font-family="Helvetica,sans-Serif" font-size="10.00">boost/property_tree</text>
<text text-anchor="middle" x="344" y="-74.5" font-family="Helvetica,sans-Serif" font-size="10.00">/json_parser.hpp</text>
</a>
</g>
</g>
<!-- Node5&#45;&gt;Node13 -->
<g id="edge12" class="edge">
<title>Node5&#45;&gt;Node13</title>
<path fill="none" stroke="midnightblue" d="M439.95,-134.48C424.22,-126.12 399.7,-113.09 379.39,-102.3"/>
<polygon fill="midnightblue" stroke="midnightblue" points="380.87,-99.12 370.4,-97.52 377.59,-105.31 380.87,-99.12"/>
</g>
<!-- Node7 -->
<g id="node7" class="node">
<title>Node7</title>
<g id="a_node7"><a xlink:title=" ">
<polygon fill="white" stroke="#bfbfbf" points="750.5,-6 750.5,-25 843.5,-25 843.5,-6 750.5,-6"/>
<text text-anchor="middle" x="797" y="-13" font-family="Helvetica,sans-Serif" font-size="10.00">spdlog/spdlog.h</text>
</a>
</g>
</g>
<!-- Node6&#45;&gt;Node7 -->
<g id="edge6" class="edge">
<title>Node6&#45;&gt;Node7</title>
<path fill="none" stroke="midnightblue" d="M946.16,-72.87C916.13,-61.52 863.22,-41.52 829.16,-28.65"/>
<polygon fill="midnightblue" stroke="midnightblue" points="830.25,-25.32 819.66,-25.06 827.78,-31.87 830.25,-25.32"/>
</g>
<!-- Node8 -->
<g id="node8" class="node">
<title>Node8</title>
<g id="a_node8"><a xlink:title=" ">
<polygon fill="white" stroke="#bfbfbf" points="861.5,-0.5 861.5,-30.5 972.5,-30.5 972.5,-0.5 861.5,-0.5"/>
<text text-anchor="start" x="869.5" y="-18.5" font-family="Helvetica,sans-Serif" font-size="10.00">spdlog/sinks/stdout</text>
<text text-anchor="middle" x="917" y="-7.5" font-family="Helvetica,sans-Serif" font-size="10.00">_color_sinks.h</text>
</a>
</g>
</g>
<!-- Node6&#45;&gt;Node8 -->
<g id="edge7" class="edge">
<title>Node6&#45;&gt;Node8</title>
<path fill="none" stroke="midnightblue" d="M961.99,-72.73C955.03,-64.03 944.08,-50.34 934.72,-38.65"/>
<polygon fill="midnightblue" stroke="midnightblue" points="937.25,-36.21 928.27,-30.59 931.79,-40.58 937.25,-36.21"/>
</g>
<!-- Node9 -->
<g id="node9" class="node">
<title>Node9</title>
<g id="a_node9"><a xlink:title=" ">
<polygon fill="white" stroke="#bfbfbf" points="991,-6 991,-25 1049,-25 1049,-6 991,-6"/>
<text text-anchor="middle" x="1020" y="-13" font-family="Helvetica,sans-Serif" font-size="10.00">memory</text>
</a>
</g>
</g>
<!-- Node6&#45;&gt;Node9 -->
<g id="edge8" class="edge">
<title>Node6&#45;&gt;Node9</title>
<path fill="none" stroke="midnightblue" d="M975.88,-72.73C983.83,-62.6 997.1,-45.69 1007.01,-33.06"/>
<polygon fill="midnightblue" stroke="midnightblue" points="1009.81,-35.16 1013.23,-25.13 1004.3,-30.83 1009.81,-35.16"/>
</g>
<!-- Node10 -->
<g id="node10" class="node">
<title>Node10</title>
<g id="a_node10"><a xlink:title=" ">
<polygon fill="white" stroke="#bfbfbf" points="1067,-6 1067,-25 1165,-25 1165,-6 1067,-6"/>
<text text-anchor="middle" x="1116" y="-13" font-family="Helvetica,sans-Serif" font-size="10.00">spdlog/fmt/fmt.h</text>
</a>
</g>
</g>
<!-- Node6&#45;&gt;Node10 -->
<g id="edge9" class="edge">
<title>Node6&#45;&gt;Node10</title>
<path fill="none" stroke="midnightblue" d="M988.52,-72.87C1013.78,-61.7 1058,-42.15 1087.14,-29.26"/>
<polygon fill="midnightblue" stroke="midnightblue" points="1088.67,-32.41 1096.4,-25.17 1085.84,-26.01 1088.67,-32.41"/>
</g>
<!-- Node20&#45;&gt;Node4 -->
<g id="edge20" class="edge">
<title>Node20&#45;&gt;Node4</title>
<path fill="none" stroke="midnightblue" d="M492.64,-246.08C494.79,-238.85 497.88,-228.41 500.55,-219.4"/>
<polygon fill="midnightblue" stroke="midnightblue" points="503.92,-220.33 503.41,-209.75 497.21,-218.34 503.92,-220.33"/>
</g>
<!-- Node20&#45;&gt;Node18 -->
<g id="edge28" class="edge">
<title>Node20&#45;&gt;Node18</title>
<path fill="none" stroke="midnightblue" d="M456.72,-246.44C420.55,-237.14 362.62,-222.25 323.02,-212.06"/>
<polygon fill="midnightblue" stroke="midnightblue" points="323.68,-208.62 313.12,-209.52 321.93,-215.4 323.68,-208.62"/>
</g>
<!-- Node20&#45;&gt;Node20 -->
<g id="edge21" class="edge">
<title>Node20&#45;&gt;Node20</title>
<path fill="none" stroke="midnightblue" d="M529.45,-265.53C556.26,-268.31 582.5,-265.13 582.5,-256 582.5,-248.01 562.41,-244.58 539.43,-245.71"/>
<polygon fill="midnightblue" stroke="midnightblue" points="539.15,-242.22 529.45,-246.47 539.69,-249.2 539.15,-242.22"/>
</g>
<!-- Node21 -->
<g id="node21" class="node">
<title>Node21</title>
<g id="a_node21"><a xlink:href="_o_m_sim_p_m_t_response_8hh.html" target="_top" xlink:title="Simulation of PMT response.">
<polygon fill="white" stroke="black" points="646.5,-190.5 646.5,-209.5 781.5,-209.5 781.5,-190.5 646.5,-190.5"/>
<text text-anchor="middle" x="714" y="-197.5" font-family="Helvetica,sans-Serif" font-size="10.00">OMSimPMTResponse.hh</text>
</a>
</g>
</g>
<!-- Node20&#45;&gt;Node21 -->
<g id="edge22" class="edge">
<title>Node20&#45;&gt;Node21</title>
<path fill="none" stroke="midnightblue" d="M525.49,-246.44C564.32,-237.08 626.66,-222.06 668.92,-211.87"/>
<polygon fill="midnightblue" stroke="midnightblue" points="669.77,-215.26 678.67,-209.52 668.13,-208.46 669.77,-215.26"/>
</g>
<!-- Node26 -->
<g id="node26" class="node">
<title>Node26</title>
<g id="a_node26"><a xlink:title=" ">
<polygon fill="white" stroke="#bfbfbf" points="347.5,-190.5 347.5,-209.5 414.5,-209.5 414.5,-190.5 347.5,-190.5"/>
<text text-anchor="middle" x="381" y="-197.5" font-family="Helvetica,sans-Serif" font-size="10.00">G4Tubs.hh</text>
</a>
</g>
</g>
<!-- Node20&#45;&gt;Node26 -->
<g id="edge29" class="edge">
<title>Node20&#45;&gt;Node26</title>
<path fill="none" stroke="midnightblue" d="M472.49,-246.32C454.93,-237.62 427.67,-224.12 407.47,-214.11"/>
<polygon fill="midnightblue" stroke="midnightblue" points="408.98,-210.96 398.47,-209.65 405.88,-217.23 408.98,-210.96"/>
</g>
<!-- Node21&#45;&gt;Node12 -->
<g id="edge23" class="edge">
<title>Node21&#45;&gt;Node12</title>
<path fill="none" stroke="midnightblue" d="M759.24,-190.44C795.67,-182.52 842.61,-169.63 854,-154 871.44,-130.07 836.07,-108.7 806.7,-95.92"/>
<polygon fill="midnightblue" stroke="midnightblue" points="808.03,-92.68 797.45,-92.08 805.34,-99.15 808.03,-92.68"/>
</g>
<!-- Node22 -->
<g id="node22" class="node">
<title>Node22</title>
<g id="a_node22"><a xlink:title=" ">
<polygon fill="white" stroke="#bfbfbf" points="902.5,-134.5 902.5,-153.5 975.5,-153.5 975.5,-134.5 902.5,-134.5"/>
<text text-anchor="middle" x="939" y="-141.5" font-family="Helvetica,sans-Serif" font-size="10.00">G4Types.hh</text>
</a>
</g>
</g>
<!-- Node21&#45;&gt;Node22 -->
<g id="edge24" class="edge">
<title>Node21&#45;&gt;Node22</title>
<path fill="none" stroke="midnightblue" d="M749.65,-190.44C788.66,-181.08 851.27,-166.06 893.72,-155.87"/>
<polygon fill="midnightblue" stroke="midnightblue" points="894.61,-159.25 903.51,-153.52 892.97,-152.45 894.61,-159.25"/>
</g>
<!-- Node23 -->
<g id="node23" class="node">
<title>Node23</title>
<g id="a_node23"><a xlink:title=" ">
<polygon fill="white" stroke="#bfbfbf" points="657,-134.5 657,-153.5 695,-153.5 695,-134.5 657,-134.5"/>
<text text-anchor="middle" x="676" y="-141.5" font-family="Helvetica,sans-Serif" font-size="10.00">map</text>
</a>
</g>
</g>
<!-- Node21&#45;&gt;Node23 -->
<g id="edge25" class="edge">
<title>Node21&#45;&gt;Node23</title>
<path fill="none" stroke="midnightblue" d="M707.73,-190.08C702.36,-182.46 694.48,-171.26 687.92,-161.94"/>
<polygon fill="midnightblue" stroke="midnightblue" points="690.78,-159.91 682.16,-153.75 685.05,-163.94 690.78,-159.91"/>
</g>
<!-- Node24 -->
<g id="node24" class="node">
<title>Node24</title>
<g id="a_node24"><a xlink:title=" ">
<polygon fill="white" stroke="#bfbfbf" points="713.5,-134.5 713.5,-153.5 774.5,-153.5 774.5,-134.5 713.5,-134.5"/>
<text text-anchor="middle" x="744" y="-141.5" font-family="Helvetica,sans-Serif" font-size="10.00">TGraph.h</text>
</a>
</g>
</g>
<!-- Node21&#45;&gt;Node24 -->
<g id="edge26" class="edge">
<title>Node21&#45;&gt;Node24</title>
<path fill="none" stroke="midnightblue" d="M718.95,-190.08C723.1,-182.61 729.15,-171.72 734.27,-162.52"/>
<polygon fill="midnightblue" stroke="midnightblue" points="737.34,-164.19 739.14,-153.75 731.22,-160.79 737.34,-164.19"/>
</g>
<!-- Node25 -->
<g id="node25" class="node">
<title>Node25</title>
<g id="a_node25"><a xlink:title=" ">
<polygon fill="white" stroke="#bfbfbf" points="792.5,-134.5 792.5,-153.5 845.5,-153.5 845.5,-134.5 792.5,-134.5"/>
<text text-anchor="middle" x="819" y="-141.5" font-family="Helvetica,sans-Serif" font-size="10.00">TH2D.h</text>
</a>
</g>
</g>
<!-- Node21&#45;&gt;Node25 -->
<g id="edge27" class="edge">
<title>Node21&#45;&gt;Node25</title>
<path fill="none" stroke="midnightblue" d="M730.87,-190.32C747.71,-181.66 773.81,-168.24 793.24,-158.25"/>
<polygon fill="midnightblue" stroke="midnightblue" points="794.88,-161.34 802.17,-153.65 791.68,-155.12 794.88,-161.34"/>
</g>
<!-- Node27&#45;&gt;Node4 -->
<g id="edge31" class="edge">
<title>Node27&#45;&gt;Node4</title>
<path fill="none" stroke="midnightblue" d="M604.5,-302.5C604.84,-289.13 603.66,-262.98 591,-246 579.74,-230.89 561.89,-220.36 545.44,-213.3"/>
<polygon fill="midnightblue" stroke="midnightblue" points="546.57,-209.99 535.99,-209.54 543.99,-216.49 546.57,-209.99"/>
</g>
<!-- Node27&#45;&gt;Node20 -->
<g id="edge36" class="edge">
<title>Node27&#45;&gt;Node20</title>
<path fill="none" stroke="midnightblue" d="M585.94,-302.44C567.43,-293.68 538.42,-279.94 517.14,-269.86"/>
<polygon fill="midnightblue" stroke="midnightblue" points="518.51,-266.63 507.98,-265.52 515.52,-272.96 518.51,-266.63"/>
</g>
<!-- Node28 -->
<g id="node28" class="node">
<title>Node28</title>
<g id="a_node28"><a xlink:href="_o_m_sim_hit_manager_8hh.html" target="_top" xlink:title="Defines structures and classes related to optical module photon hit management.">
<polygon fill="white" stroke="black" points="746.5,-246.5 746.5,-265.5 869.5,-265.5 869.5,-246.5 746.5,-246.5"/>
<text text-anchor="middle" x="808" y="-253.5" font-family="Helvetica,sans-Serif" font-size="10.00">OMSimHitManager.hh</text>
</a>
</g>
</g>
<!-- Node27&#45;&gt;Node28 -->
<g id="edge32" class="edge">
<title>Node27&#45;&gt;Node28</title>
<path fill="none" stroke="midnightblue" d="M636.32,-302.44C671.39,-293.16 727.5,-278.31 765.96,-268.13"/>
<polygon fill="midnightblue" stroke="midnightblue" points="767.06,-271.46 775.83,-265.52 765.26,-264.69 767.06,-271.46"/>
</g>
<!-- Node28&#45;&gt;Node21 -->
<g id="edge33" class="edge">
<title>Node28&#45;&gt;Node21</title>
<path fill="none" stroke="midnightblue" d="M792.9,-246.32C778.1,-237.82 755.31,-224.73 738.02,-214.8"/>
<polygon fill="midnightblue" stroke="midnightblue" points="739.48,-211.6 729.07,-209.65 735.99,-217.67 739.48,-211.6"/>
</g>
<!-- Node29 -->
<g id="node29" class="node">
<title>Node29</title>
<g id="a_node29"><a xlink:title=" ">
<polygon fill="white" stroke="#bfbfbf" points="799.5,-190.5 799.5,-209.5 902.5,-209.5 902.5,-190.5 799.5,-190.5"/>
<text text-anchor="middle" x="851" y="-197.5" font-family="Helvetica,sans-Serif" font-size="10.00">G4ThreeVector.hh</text>
</a>
</g>
</g>
<!-- Node28&#45;&gt;Node29 -->
<g id="edge34" class="edge">
<title>Node28&#45;&gt;Node29</title>
<path fill="none" stroke="midnightblue" d="M815.1,-246.08C821.24,-238.38 830.27,-227.03 837.74,-217.65"/>
<polygon fill="midnightblue" stroke="midnightblue" points="840.54,-219.75 844.03,-209.75 835.06,-215.39 840.54,-219.75"/>
</g>
<!-- Node30 -->
<g id="node30" class="node">
<title>Node30</title>
<g id="a_node30"><a xlink:title=" ">
<polygon fill="white" stroke="#bfbfbf" points="920.5,-190.5 920.5,-209.5 975.5,-209.5 975.5,-190.5 920.5,-190.5"/>
<text text-anchor="middle" x="948" y="-197.5" font-family="Helvetica,sans-Serif" font-size="10.00">fstream</text>
</a>
</g>
</g>
<!-- Node28&#45;&gt;Node30 -->
<g id="edge35" class="edge">
<title>Node28&#45;&gt;Node30</title>
<path fill="none" stroke="midnightblue" d="M830.18,-246.44C853.43,-237.48 890.15,-223.31 916.42,-213.18"/>
<polygon fill="midnightblue" stroke="midnightblue" points="917.85,-216.38 925.92,-209.52 915.33,-209.85 917.85,-216.38"/>
</g>
<!-- Node31&#45;&gt;Node32 -->
<g id="edge38" class="edge">
<title>Node31&#45;&gt;Node32</title>
<path fill="none" stroke="midnightblue" d="M1040.73,-358.08C1034.46,-350.38 1025.21,-339.03 1017.57,-329.65"/>
<polygon fill="midnightblue" stroke="midnightblue" points="1020.16,-327.29 1011.13,-321.75 1014.73,-331.71 1020.16,-327.29"/>
</g>
<!-- Node35 -->
<g id="node35" class="node">
<title>Node35</title>
<g id="a_node35"><a xlink:title=" ">
<polygon fill="white" stroke="#bfbfbf" points="1104,-302.5 1104,-321.5 1202,-321.5 1202,-302.5 1104,-302.5"/>
<text text-anchor="middle" x="1153" y="-309.5" font-family="Helvetica,sans-Serif" font-size="10.00">G4UImanager.hh</text>
</a>
</g>
</g>
<!-- Node31&#45;&gt;Node35 -->
<g id="edge43" class="edge">
<title>Node31&#45;&gt;Node35</title>
<path fill="none" stroke="midnightblue" d="M1064.87,-358.32C1081.71,-349.66 1107.81,-336.24 1127.24,-326.25"/>
<polygon fill="midnightblue" stroke="midnightblue" points="1128.88,-329.34 1136.17,-321.65 1125.68,-323.12 1128.88,-329.34"/>
</g>
<!-- Node32&#45;&gt;Node6 -->
<g id="edge39" class="edge">
<title>Node32&#45;&gt;Node6</title>
<path fill="none" stroke="midnightblue" d="M1003.57,-302.44C1002.16,-276.72 997,-197.94 984,-134 981.8,-123.19 978.35,-111.36 975.3,-101.86"/>
<polygon fill="midnightblue" stroke="midnightblue" points="978.61,-100.71 972.14,-92.32 971.96,-102.91 978.61,-100.71"/>
</g>
<!-- Node32&#45;&gt;Node30 -->
<g id="edge40" class="edge">
<title>Node32&#45;&gt;Node30</title>
<path fill="none" stroke="midnightblue" d="M999.61,-302.37C990.45,-284.38 969.15,-242.55 956.97,-218.63"/>
<polygon fill="midnightblue" stroke="midnightblue" points="960.03,-216.92 952.37,-209.59 953.79,-220.09 960.03,-216.92"/>
</g>
<!-- Node33 -->
<g id="node33" class="node">
<title>Node33</title>
<g id="a_node33"><a xlink:title=" ">
<polygon fill="white" stroke="#bfbfbf" points="1032,-246.5 1032,-265.5 1116,-265.5 1116,-246.5 1032,-246.5"/>
<text text-anchor="middle" x="1074" y="-253.5" font-family="Helvetica,sans-Serif" font-size="10.00">boost/any.hpp</text>
</a>
</g>
</g>
<!-- Node32&#45;&gt;Node33 -->
<g id="edge41" class="edge">
<title>Node32&#45;&gt;Node33</title>
<path fill="none" stroke="midnightblue" d="M1015.25,-302.32C1025.8,-294.18 1041.8,-281.84 1054.44,-272.09"/>
<polygon fill="midnightblue" stroke="midnightblue" points="1056.77,-274.71 1062.55,-265.83 1052.49,-269.17 1056.77,-274.71"/>
</g>
<!-- Node34 -->
<g id="node34" class="node">
<title>Node34</title>
<g id="a_node34"><a xlink:title=" ">
<polygon fill="white" stroke="#bfbfbf" points="1134,-246.5 1134,-265.5 1202,-265.5 1202,-246.5 1134,-246.5"/>
<text text-anchor="middle" x="1168" y="-253.5" font-family="Helvetica,sans-Serif" font-size="10.00">sys/time.h</text>
</a>
</g>
</g>
<!-- Node32&#45;&gt;Node34 -->
<g id="edge42" class="edge">
<title>Node32&#45;&gt;Node34</title>
<path fill="none" stroke="midnightblue" d="M1029.99,-302.44C1057.7,-293.32 1101.75,-278.81 1132.62,-268.65"/>
<polygon fill="midnightblue" stroke="midnightblue" points="1133.73,-271.97 1142.14,-265.52 1131.54,-265.32 1133.73,-271.97"/>
</g>
</g>
</svg>
