<?xml version="1.0" encoding="UTF-8" standalone="no"?>
<!DOCTYPE svg PUBLIC "-//W3C//DTD SVG 1.1//EN"
 "http://www.w3.org/Graphics/SVG/1.1/DTD/svg11.dtd">
<!-- Generated by graphviz version 2.43.0 (0)
 -->
<!-- Title: OMSimMDOM.cc Pages: 1 -->
<svg width="1603pt" height="442pt"
 viewBox="0.00 0.00 1602.50 442.00" xmlns="http://www.w3.org/2000/svg" xmlns:xlink="http://www.w3.org/1999/xlink">
<g id="graph0" class="graph" transform="scale(1 1) rotate(0) translate(4 438)">
<title>OMSimMDOM.cc</title>
<polygon fill="white" stroke="transparent" points="-4,4 -4,-438 1598.5,-438 1598.5,4 -4,4"/>
<!-- Node1 -->
<g id="node1" class="node">
<title>Node1</title>
<g id="a_node1"><a xlink:title=" ">
<polygon fill="#bfbfbf" stroke="black" points="1169,-414.5 1169,-433.5 1267,-433.5 1267,-414.5 1169,-414.5"/>
<text text-anchor="middle" x="1218" y="-421.5" font-family="Helvetica,sans-Serif" font-size="10.00">OMSimMDOM.cc</text>
</a>
</g>
</g>
<!-- Node2 -->
<g id="node2" class="node">
<title>Node2</title>
<g id="a_node2"><a xlink:href="_o_m_sim_m_d_o_m_8hh.html" target="_top" xlink:title="Construction of mDOM.">
<polygon fill="white" stroke="black" points="556,-358.5 556,-377.5 656,-377.5 656,-358.5 556,-358.5"/>
<text text-anchor="middle" x="606" y="-365.5" font-family="Helvetica,sans-Serif" font-size="10.00">OMSimMDOM.hh</text>
</a>
</g>
</g>
<!-- Node1&#45;&gt;Node2 -->
<g id="edge1" class="edge">
<title>Node1&#45;&gt;Node2</title>
<path fill="none" stroke="midnightblue" d="M1168.95,-418.67C1057.88,-408.87 787.41,-385.01 666.34,-374.32"/>
<polygon fill="midnightblue" stroke="midnightblue" points="666.41,-370.82 656.14,-373.42 665.79,-377.79 666.41,-370.82"/>
</g>
<!-- Node6 -->
<g id="node6" class="node">
<title>Node6</title>
<g id="a_node6"><a xlink:href="_o_m_sim_logger_8hh.html" target="_top" xlink:title=" ">
<polygon fill="white" stroke="black" points="1152.5,-73 1152.5,-92 1251.5,-92 1251.5,-73 1152.5,-73"/>
<text text-anchor="middle" x="1202" y="-80" font-family="Helvetica,sans-Serif" font-size="10.00">OMSimLogger.hh</text>
</a>
</g>
</g>
<!-- Node1&#45;&gt;Node6 -->
<g id="edge52" class="edge">
<title>Node1&#45;&gt;Node6</title>
<path fill="none" stroke="midnightblue" d="M1212.72,-414.23C1202.27,-396.04 1180,-352.6 1180,-313 1180,-313 1180,-313 1180,-255 1180,-198.86 1191.74,-133.21 1198.07,-101.91"/>
<polygon fill="midnightblue" stroke="midnightblue" points="1201.52,-102.52 1200.12,-92.02 1194.66,-101.1 1201.52,-102.52"/>
</g>
<!-- Node34 -->
<g id="node34" class="node">
<title>Node34</title>
<g id="a_node34"><a xlink:href="_o_m_sim_m_d_o_m_harness_8hh.html" target="_top" xlink:title="Construction of mDOM harness.">
<polygon fill="white" stroke="black" points="972,-358.5 972,-377.5 1112,-377.5 1112,-358.5 972,-358.5"/>
<text text-anchor="middle" x="1042" y="-365.5" font-family="Helvetica,sans-Serif" font-size="10.00">OMSimMDOMHarness.hh</text>
</a>
</g>
</g>
<!-- Node1&#45;&gt;Node34 -->
<g id="edge43" class="edge">
<title>Node1&#45;&gt;Node34</title>
<path fill="none" stroke="midnightblue" d="M1190.11,-414.44C1160.25,-405.28 1112.69,-390.69 1079.54,-380.52"/>
<polygon fill="midnightblue" stroke="midnightblue" points="1080.34,-377.1 1069.76,-377.52 1078.29,-383.8 1080.34,-377.1"/>
</g>
<!-- Node37 -->
<g id="node37" class="node">
<title>Node37</title>
<g id="a_node37"><a xlink:href="_o_m_sim_command_args_table_8hh.html" target="_top" xlink:title="Definition of the OMSimCommandArgsTable singleton class, which controls user args.">
<polygon fill="white" stroke="black" points="1234,-246.5 1234,-265.5 1398,-265.5 1398,-246.5 1234,-246.5"/>
<text text-anchor="middle" x="1316" y="-253.5" font-family="Helvetica,sans-Serif" font-size="10.00">OMSimCommandArgsTable.hh</text>
</a>
</g>
</g>
<!-- Node1&#45;&gt;Node37 -->
<g id="edge47" class="edge">
<title>Node1&#45;&gt;Node37</title>
<path fill="none" stroke="midnightblue" d="M1219.47,-414.19C1221.87,-401.31 1227.34,-376.83 1237,-358 1254,-324.87 1282.5,-291.92 1300.23,-273.06"/>
<polygon fill="midnightblue" stroke="midnightblue" points="1302.93,-275.3 1307.31,-265.65 1297.87,-270.46 1302.93,-275.3"/>
</g>
<!-- Node40 -->
<g id="node40" class="node">
<title>Node40</title>
<g id="a_node40"><a xlink:title=" ">
<polygon fill="white" stroke="#bfbfbf" points="1246,-358.5 1246,-377.5 1332,-377.5 1332,-358.5 1246,-358.5"/>
<text text-anchor="middle" x="1289" y="-365.5" font-family="Helvetica,sans-Serif" font-size="10.00">G4Ellipsoid.hh</text>
</a>
</g>
</g>
<!-- Node1&#45;&gt;Node40 -->
<g id="edge53" class="edge">
<title>Node1&#45;&gt;Node40</title>
<path fill="none" stroke="midnightblue" d="M1229.41,-414.32C1240.11,-406.18 1256.34,-393.84 1269.16,-384.09"/>
<polygon fill="midnightblue" stroke="midnightblue" points="1271.54,-386.67 1277.39,-377.83 1267.31,-381.1 1271.54,-386.67"/>
</g>
<!-- Node41 -->
<g id="node41" class="node">
<title>Node41</title>
<g id="a_node41"><a xlink:title=" ">
<polygon fill="white" stroke="#bfbfbf" points="1350.5,-358.5 1350.5,-377.5 1487.5,-377.5 1487.5,-358.5 1350.5,-358.5"/>
<text text-anchor="middle" x="1419" y="-365.5" font-family="Helvetica,sans-Serif" font-size="10.00">G4LogicalSkinSurface.hh</text>
</a>
</g>
</g>
<!-- Node1&#45;&gt;Node41 -->
<g id="edge54" class="edge">
<title>Node1&#45;&gt;Node41</title>
<path fill="none" stroke="midnightblue" d="M1249.85,-414.44C1284.4,-405.16 1339.68,-390.31 1377.58,-380.13"/>
<polygon fill="midnightblue" stroke="midnightblue" points="1378.55,-383.49 1387.3,-377.52 1376.73,-376.73 1378.55,-383.49"/>
</g>
<!-- Node42 -->
<g id="node42" class="node">
<title>Node42</title>
<g id="a_node42"><a xlink:title=" ">
<polygon fill="white" stroke="#bfbfbf" points="1505.5,-358.5 1505.5,-377.5 1594.5,-377.5 1594.5,-358.5 1505.5,-358.5"/>
<text text-anchor="middle" x="1550" y="-365.5" font-family="Helvetica,sans-Serif" font-size="10.00">G4Polycone.hh</text>
</a>
</g>
</g>
<!-- Node1&#45;&gt;Node42 -->
<g id="edge55" class="edge">
<title>Node1&#45;&gt;Node42</title>
<path fill="none" stroke="midnightblue" d="M1267.16,-415.2C1320.84,-406.65 1409.63,-392.43 1495.55,-378.23"/>
<polygon fill="midnightblue" stroke="midnightblue" points="1496.18,-381.67 1505.47,-376.59 1495.03,-374.77 1496.18,-381.67"/>
</g>
<!-- Node3 -->
<g id="node3" class="node">
<title>Node3</title>
<g id="a_node3"><a xlink:href="_o_m_sim_m_d_o_m_flasher_8hh.html" target="_top" xlink:title="Defines the mDOMFlasher class for simulating the 10 flashers in an mDOM optical module.">
<polygon fill="white" stroke="black" points="304.5,-246.5 304.5,-265.5 439.5,-265.5 439.5,-246.5 304.5,-246.5"/>
<text text-anchor="middle" x="372" y="-253.5" font-family="Helvetica,sans-Serif" font-size="10.00">OMSimMDOMFlasher.hh</text>
</a>
</g>
</g>
<!-- Node2&#45;&gt;Node3 -->
<g id="edge2" class="edge">
<title>Node2&#45;&gt;Node3</title>
<path fill="none" stroke="midnightblue" d="M587.64,-358.37C546.71,-339.13 447.83,-292.65 399.51,-269.93"/>
<polygon fill="midnightblue" stroke="midnightblue" points="400.82,-266.68 390.28,-265.59 397.84,-273.01 400.82,-266.68"/>
</g>
<!-- Node20 -->
<g id="node20" class="node">
<title>Node20</title>
<g id="a_node20"><a xlink:href="_o_m_sim_p_m_t_construction_8hh.html" target="_top" xlink:title="Construction of the PMTs.">
<polygon fill="white" stroke="black" points="473.5,-246.5 473.5,-265.5 622.5,-265.5 622.5,-246.5 473.5,-246.5"/>
<text text-anchor="middle" x="548" y="-253.5" font-family="Helvetica,sans-Serif" font-size="10.00">OMSimPMTConstruction.hh</text>
</a>
</g>
</g>
<!-- Node2&#45;&gt;Node20 -->
<g id="edge19" class="edge">
<title>Node2&#45;&gt;Node20</title>
<path fill="none" stroke="midnightblue" d="M600.37,-358.18C594.72,-349.21 585.9,-334.84 579,-322 570.6,-306.35 561.98,-288.06 555.97,-274.88"/>
<polygon fill="midnightblue" stroke="midnightblue" points="559.06,-273.22 551.76,-265.54 552.68,-276.1 559.06,-273.22"/>
</g>
<!-- Node27 -->
<g id="node27" class="node">
<title>Node27</title>
<g id="a_node27"><a xlink:href="_o_m_sim_optical_module_8hh.html" target="_top" xlink:title=" ">
<polygon fill="white" stroke="black" points="588.5,-302.5 588.5,-321.5 725.5,-321.5 725.5,-302.5 588.5,-302.5"/>
<text text-anchor="middle" x="657" y="-309.5" font-family="Helvetica,sans-Serif" font-size="10.00">OMSimOpticalModule.hh</text>
</a>
</g>
</g>
<!-- Node2&#45;&gt;Node27 -->
<g id="edge30" class="edge">
<title>Node2&#45;&gt;Node27</title>
<path fill="none" stroke="midnightblue" d="M614.42,-358.08C621.85,-350.22 632.85,-338.57 641.81,-329.08"/>
<polygon fill="midnightblue" stroke="midnightblue" points="644.41,-331.42 648.74,-321.75 639.32,-326.62 644.41,-331.42"/>
</g>
<!-- Node4 -->
<g id="node4" class="node">
<title>Node4</title>
<g id="a_node4"><a xlink:href="abc_detector_component_8hh.html" target="_top" xlink:title="Provides helper base class abcDetectorComponent for constructing and managing detector components in ...">
<polygon fill="white" stroke="black" points="507.5,-190.5 507.5,-209.5 654.5,-209.5 654.5,-190.5 507.5,-190.5"/>
<text text-anchor="middle" x="581" y="-197.5" font-family="Helvetica,sans-Serif" font-size="10.00">abcDetectorComponent.hh</text>
</a>
</g>
</g>
<!-- Node3&#45;&gt;Node4 -->
<g id="edge3" class="edge">
<title>Node3&#45;&gt;Node4</title>
<path fill="none" stroke="midnightblue" d="M405.12,-246.44C441.12,-237.14 498.77,-222.25 538.19,-212.06"/>
<polygon fill="midnightblue" stroke="midnightblue" points="539.23,-215.41 548.04,-209.52 537.48,-208.63 539.23,-215.41"/>
</g>
<!-- Node18 -->
<g id="node18" class="node">
<title>Node18</title>
<g id="a_node18"><a xlink:title=" ">
<polygon fill="white" stroke="#bfbfbf" points="306,-190.5 306,-209.5 404,-209.5 404,-190.5 306,-190.5"/>
<text text-anchor="middle" x="355" y="-197.5" font-family="Helvetica,sans-Serif" font-size="10.00">G4UnionSolid.hh</text>
</a>
</g>
</g>
<!-- Node3&#45;&gt;Node18 -->
<g id="edge17" class="edge">
<title>Node3&#45;&gt;Node18</title>
<path fill="none" stroke="midnightblue" d="M369.19,-246.08C366.92,-238.85 363.63,-228.41 360.79,-219.4"/>
<polygon fill="midnightblue" stroke="midnightblue" points="364.1,-218.24 357.75,-209.75 357.42,-220.34 364.1,-218.24"/>
</g>
<!-- Node19 -->
<g id="node19" class="node">
<title>Node19</title>
<g id="a_node19"><a xlink:title=" ">
<polygon fill="white" stroke="#bfbfbf" points="196,-190.5 196,-209.5 288,-209.5 288,-190.5 196,-190.5"/>
<text text-anchor="middle" x="242" y="-197.5" font-family="Helvetica,sans-Serif" font-size="10.00">G4Navigator.hh</text>
</a>
</g>
</g>
<!-- Node3&#45;&gt;Node19 -->
<g id="edge18" class="edge">
<title>Node3&#45;&gt;Node19</title>
<path fill="none" stroke="midnightblue" d="M351.4,-246.44C330.01,-237.56 296.32,-223.56 271.98,-213.45"/>
<polygon fill="midnightblue" stroke="midnightblue" points="273.08,-210.12 262.5,-209.52 270.39,-216.58 273.08,-210.12"/>
</g>
<!-- Node5 -->
<g id="node5" class="node">
<title>Node5</title>
<g id="a_node5"><a xlink:href="_o_m_sim_input_data_8hh.html" target="_top" xlink:title="Definition of ParameterTable and InputDataManager.">
<polygon fill="white" stroke="black" points="523.5,-134.5 523.5,-153.5 638.5,-153.5 638.5,-134.5 523.5,-134.5"/>
<text text-anchor="middle" x="581" y="-141.5" font-family="Helvetica,sans-Serif" font-size="10.00">OMSimInputData.hh</text>
</a>
</g>
</g>
<!-- Node4&#45;&gt;Node5 -->
<g id="edge4" class="edge">
<title>Node4&#45;&gt;Node5</title>
<path fill="none" stroke="midnightblue" d="M581,-190.08C581,-183.01 581,-172.86 581,-163.99"/>
<polygon fill="midnightblue" stroke="midnightblue" points="584.5,-163.75 581,-153.75 577.5,-163.75 584.5,-163.75"/>
</g>
<!-- Node14 -->
<g id="node14" class="node">
<title>Node14</title>
<g id="a_node14"><a xlink:title=" ">
<polygon fill="white" stroke="#bfbfbf" points="398.5,-134.5 398.5,-153.5 505.5,-153.5 505.5,-134.5 398.5,-134.5"/>
<text text-anchor="middle" x="452" y="-141.5" font-family="Helvetica,sans-Serif" font-size="10.00">G4Transform3D.hh</text>
</a>
</g>
</g>
<!-- Node4&#45;&gt;Node14 -->
<g id="edge13" class="edge">
<title>Node4&#45;&gt;Node14</title>
<path fill="none" stroke="midnightblue" d="M560.56,-190.44C539.33,-181.56 505.9,-167.56 481.75,-157.45"/>
<polygon fill="midnightblue" stroke="midnightblue" points="482.92,-154.15 472.34,-153.52 480.22,-160.61 482.92,-154.15"/>
</g>
<!-- Node15 -->
<g id="node15" class="node">
<title>Node15</title>
<g id="a_node15"><a xlink:title=" ">
<polygon fill="white" stroke="#bfbfbf" points="0,-134.5 0,-153.5 108,-153.5 108,-134.5 0,-134.5"/>
<text text-anchor="middle" x="54" y="-141.5" font-family="Helvetica,sans-Serif" font-size="10.00">G4VisAttributes.hh</text>
</a>
</g>
</g>
<!-- Node4&#45;&gt;Node15 -->
<g id="edge14" class="edge">
<title>Node4&#45;&gt;Node15</title>
<path fill="none" stroke="midnightblue" d="M507.24,-190.95C504.12,-190.62 501.03,-190.31 498,-190 332,-173.16 287.58,-173.99 118.28,-154.1"/>
<polygon fill="midnightblue" stroke="midnightblue" points="118.62,-150.62 108.27,-152.92 117.79,-157.57 118.62,-150.62"/>
</g>
<!-- Node16 -->
<g id="node16" class="node">
<title>Node16</title>
<g id="a_node16"><a xlink:title=" ">
<polygon fill="white" stroke="#bfbfbf" points="126.5,-134.5 126.5,-153.5 251.5,-153.5 251.5,-134.5 126.5,-134.5"/>
<text text-anchor="middle" x="189" y="-141.5" font-family="Helvetica,sans-Serif" font-size="10.00">G4SubtractionSolid.hh</text>
</a>
</g>
</g>
<!-- Node4&#45;&gt;Node16 -->
<g id="edge15" class="edge">
<title>Node4&#45;&gt;Node16</title>
<path fill="none" stroke="midnightblue" d="M518.89,-190.44C448.78,-180.79 334.91,-165.1 260.98,-154.92"/>
<polygon fill="midnightblue" stroke="midnightblue" points="261.21,-151.41 250.82,-153.52 260.25,-158.35 261.21,-151.41"/>
</g>
<!-- Node17 -->
<g id="node17" class="node">
<title>Node17</title>
<g id="a_node17"><a xlink:title=" ">
<polygon fill="white" stroke="#bfbfbf" points="270,-134.5 270,-153.5 380,-153.5 380,-134.5 270,-134.5"/>
<text text-anchor="middle" x="325" y="-141.5" font-family="Helvetica,sans-Serif" font-size="10.00">G4PVPlacement.hh</text>
</a>
</g>
</g>
<!-- Node4&#45;&gt;Node17 -->
<g id="edge16" class="edge">
<title>Node4&#45;&gt;Node17</title>
<path fill="none" stroke="midnightblue" d="M540.44,-190.44C495.68,-181 423.62,-165.8 375.3,-155.61"/>
<polygon fill="midnightblue" stroke="midnightblue" points="375.88,-152.16 365.37,-153.52 374.44,-159.01 375.88,-152.16"/>
</g>
<!-- Node5&#45;&gt;Node6 -->
<g id="edge5" class="edge">
<title>Node5&#45;&gt;Node6</title>
<path fill="none" stroke="midnightblue" d="M638.57,-134.95C641.42,-134.61 644.24,-134.3 647,-134 851.79,-112.08 904.43,-121.88 1109,-98 1119.81,-96.74 1131.29,-95.15 1142.36,-93.49"/>
<polygon fill="midnightblue" stroke="midnightblue" points="1143.03,-96.93 1152.38,-91.96 1141.97,-90.01 1143.03,-96.93"/>
</g>
<!-- Node11 -->
<g id="node11" class="node">
<title>Node11</title>
<g id="a_node11"><a xlink:title=" ">
<polygon fill="white" stroke="#bfbfbf" points="749.5,-73 749.5,-92 892.5,-92 892.5,-73 749.5,-73"/>
<text text-anchor="middle" x="821" y="-80" font-family="Helvetica,sans-Serif" font-size="10.00">G4OpBoundaryProcess.hh</text>
</a>
</g>
</g>
<!-- Node5&#45;&gt;Node11 -->
<g id="edge10" class="edge">
<title>Node5&#45;&gt;Node11</title>
<path fill="none" stroke="midnightblue" d="M615.39,-134.48C657.89,-123.94 730.3,-105.99 776.87,-94.44"/>
<polygon fill="midnightblue" stroke="midnightblue" points="777.81,-97.81 786.68,-92.01 776.13,-91.02 777.81,-97.81"/>
</g>
<!-- Node12 -->
<g id="node12" class="node">
<title>Node12</title>
<g id="a_node12"><a xlink:title=" ">
<polygon fill="white" stroke="#bfbfbf" points="521.5,-73 521.5,-92 640.5,-92 640.5,-73 521.5,-73"/>
<text text-anchor="middle" x="581" y="-80" font-family="Helvetica,sans-Serif" font-size="10.00">G4SystemOfUnits.hh</text>
</a>
</g>
</g>
<!-- Node5&#45;&gt;Node12 -->
<g id="edge11" class="edge">
<title>Node5&#45;&gt;Node12</title>
<path fill="none" stroke="midnightblue" d="M581,-134.48C581,-126.08 581,-112.98 581,-102.16"/>
<polygon fill="midnightblue" stroke="midnightblue" points="584.5,-102.01 581,-92.01 577.5,-102.01 584.5,-102.01"/>
</g>
<!-- Node13 -->
<g id="node13" class="node">
<title>Node13</title>
<g id="a_node13"><a xlink:title=" ">
<polygon fill="white" stroke="#bfbfbf" points="390.5,-67.5 390.5,-97.5 503.5,-97.5 503.5,-67.5 390.5,-67.5"/>
<text text-anchor="start" x="398.5" y="-85.5" font-family="Helvetica,sans-Serif" font-size="10.00">boost/property_tree</text>
<text text-anchor="middle" x="447" y="-74.5" font-family="Helvetica,sans-Serif" font-size="10.00">/json_parser.hpp</text>
</a>
</g>
</g>
<!-- Node5&#45;&gt;Node13 -->
<g id="edge12" class="edge">
<title>Node5&#45;&gt;Node13</title>
<path fill="none" stroke="midnightblue" d="M561.8,-134.48C542.63,-125.96 512.58,-112.62 488.03,-101.72"/>
<polygon fill="midnightblue" stroke="midnightblue" points="489.14,-98.38 478.58,-97.52 486.3,-104.78 489.14,-98.38"/>
</g>
<!-- Node7 -->
<g id="node7" class="node">
<title>Node7</title>
<g id="a_node7"><a xlink:title=" ">
<polygon fill="white" stroke="#bfbfbf" points="983.5,-6 983.5,-25 1076.5,-25 1076.5,-6 983.5,-6"/>
<text text-anchor="middle" x="1030" y="-13" font-family="Helvetica,sans-Serif" font-size="10.00">spdlog/spdlog.h</text>
</a>
</g>
</g>
<!-- Node6&#45;&gt;Node7 -->
<g id="edge6" class="edge">
<title>Node6&#45;&gt;Node7</title>
<path fill="none" stroke="midnightblue" d="M1179.16,-72.87C1149.13,-61.52 1096.22,-41.52 1062.16,-28.65"/>
<polygon fill="midnightblue" stroke="midnightblue" points="1063.25,-25.32 1052.66,-25.06 1060.78,-31.87 1063.25,-25.32"/>
</g>
<!-- Node8 -->
<g id="node8" class="node">
<title>Node8</title>
<g id="a_node8"><a xlink:title=" ">
<polygon fill="white" stroke="#bfbfbf" points="1094.5,-0.5 1094.5,-30.5 1205.5,-30.5 1205.5,-0.5 1094.5,-0.5"/>
<text text-anchor="start" x="1102.5" y="-18.5" font-family="Helvetica,sans-Serif" font-size="10.00">spdlog/sinks/stdout</text>
<text text-anchor="middle" x="1150" y="-7.5" font-family="Helvetica,sans-Serif" font-size="10.00">_color_sinks.h</text>
</a>
</g>
</g>
<!-- Node6&#45;&gt;Node8 -->
<g id="edge7" class="edge">
<title>Node6&#45;&gt;Node8</title>
<path fill="none" stroke="midnightblue" d="M1194.99,-72.73C1188.03,-64.03 1177.08,-50.34 1167.72,-38.65"/>
<polygon fill="midnightblue" stroke="midnightblue" points="1170.25,-36.21 1161.27,-30.59 1164.79,-40.58 1170.25,-36.21"/>
</g>
<!-- Node9 -->
<g id="node9" class="node">
<title>Node9</title>
<g id="a_node9"><a xlink:title=" ">
<polygon fill="white" stroke="#bfbfbf" points="1224,-6 1224,-25 1282,-25 1282,-6 1224,-6"/>
<text text-anchor="middle" x="1253" y="-13" font-family="Helvetica,sans-Serif" font-size="10.00">memory</text>
</a>
</g>
</g>
<!-- Node6&#45;&gt;Node9 -->
<g id="edge8" class="edge">
<title>Node6&#45;&gt;Node9</title>
<path fill="none" stroke="midnightblue" d="M1208.88,-72.73C1216.83,-62.6 1230.1,-45.69 1240.01,-33.06"/>
<polygon fill="midnightblue" stroke="midnightblue" points="1242.81,-35.16 1246.23,-25.13 1237.3,-30.83 1242.81,-35.16"/>
</g>
<!-- Node10 -->
<g id="node10" class="node">
<title>Node10</title>
<g id="a_node10"><a xlink:title=" ">
<polygon fill="white" stroke="#bfbfbf" points="1300,-6 1300,-25 1398,-25 1398,-6 1300,-6"/>
<text text-anchor="middle" x="1349" y="-13" font-family="Helvetica,sans-Serif" font-size="10.00">spdlog/fmt/fmt.h</text>
</a>
</g>
</g>
<!-- Node6&#45;&gt;Node10 -->
<g id="edge9" class="edge">
<title>Node6&#45;&gt;Node10</title>
<path fill="none" stroke="midnightblue" d="M1221.52,-72.87C1246.78,-61.7 1291,-42.15 1320.14,-29.26"/>
<polygon fill="midnightblue" stroke="midnightblue" points="1321.67,-32.41 1329.4,-25.17 1318.84,-26.01 1321.67,-32.41"/>
</g>
<!-- Node20&#45;&gt;Node4 -->
<g id="edge20" class="edge">
<title>Node20&#45;&gt;Node4</title>
<path fill="none" stroke="midnightblue" d="M553.45,-246.08C558.01,-238.61 564.67,-227.72 570.29,-218.52"/>
<polygon fill="midnightblue" stroke="midnightblue" points="573.42,-220.11 575.65,-209.75 567.45,-216.46 573.42,-220.11"/>
</g>
<!-- Node20&#45;&gt;Node18 -->
<g id="edge28" class="edge">
<title>Node20&#45;&gt;Node18</title>
<path fill="none" stroke="midnightblue" d="M517.42,-246.44C484.39,-237.2 431.61,-222.44 395.23,-212.26"/>
<polygon fill="midnightblue" stroke="midnightblue" points="396.01,-208.84 385.44,-209.52 394.13,-215.58 396.01,-208.84"/>
</g>
<!-- Node20&#45;&gt;Node20 -->
<g id="edge21" class="edge">
<title>Node20&#45;&gt;Node20</title>
<path fill="none" stroke="midnightblue" d="M587.45,-265.53C614.26,-268.31 640.5,-265.13 640.5,-256 640.5,-248.01 620.41,-244.58 597.43,-245.71"/>
<polygon fill="midnightblue" stroke="midnightblue" points="597.15,-242.22 587.45,-246.47 597.69,-249.2 597.15,-242.22"/>
</g>
<!-- Node21 -->
<g id="node21" class="node">
<title>Node21</title>
<g id="a_node21"><a xlink:href="_o_m_sim_p_m_t_response_8hh.html" target="_top" xlink:title="Provides simulation for PMT response. This class is responsible for transforming hits on photocathode...">
<polygon fill="white" stroke="black" points="656.5,-134.5 656.5,-153.5 791.5,-153.5 791.5,-134.5 656.5,-134.5"/>
<text text-anchor="middle" x="724" y="-141.5" font-family="Helvetica,sans-Serif" font-size="10.00">OMSimPMTResponse.hh</text>
</a>
</g>
</g>
<!-- Node20&#45;&gt;Node21 -->
<g id="edge22" class="edge">
<title>Node20&#45;&gt;Node21</title>
<path fill="none" stroke="midnightblue" d="M580.6,-246.48C604.7,-239.21 637.61,-227.19 663,-210 682.53,-196.78 700.42,-176.27 711.71,-161.83"/>
<polygon fill="midnightblue" stroke="midnightblue" points="714.58,-163.83 717.83,-153.74 709,-159.6 714.58,-163.83"/>
</g>
<!-- Node26 -->
<g id="node26" class="node">
<title>Node26</title>
<g id="a_node26"><a xlink:title=" ">
<polygon fill="white" stroke="#bfbfbf" points="422.5,-190.5 422.5,-209.5 489.5,-209.5 489.5,-190.5 422.5,-190.5"/>
<text text-anchor="middle" x="456" y="-197.5" font-family="Helvetica,sans-Serif" font-size="10.00">G4Tubs.hh</text>
</a>
</g>
</g>
<!-- Node20&#45;&gt;Node26 -->
<g id="edge29" class="edge">
<title>Node20&#45;&gt;Node26</title>
<path fill="none" stroke="midnightblue" d="M533.22,-246.32C518.73,-237.82 496.43,-224.73 479.51,-214.8"/>
<polygon fill="midnightblue" stroke="midnightblue" points="481.14,-211.7 470.74,-209.65 477.6,-217.74 481.14,-211.7"/>
</g>
<!-- Node21&#45;&gt;Node12 -->
<g id="edge23" class="edge">
<title>Node21&#45;&gt;Node12</title>
<path fill="none" stroke="midnightblue" d="M703.51,-134.48C679.19,-124.36 638.45,-107.4 610.68,-95.85"/>
<polygon fill="midnightblue" stroke="midnightblue" points="612.03,-92.62 601.45,-92.01 609.34,-99.08 612.03,-92.62"/>
</g>
<!-- Node22 -->
<g id="node22" class="node">
<title>Node22</title>
<g id="a_node22"><a xlink:title=" ">
<polygon fill="white" stroke="#bfbfbf" points="658.5,-73 658.5,-92 731.5,-92 731.5,-73 658.5,-73"/>
<text text-anchor="middle" x="695" y="-80" font-family="Helvetica,sans-Serif" font-size="10.00">G4Types.hh</text>
</a>
</g>
</g>
<!-- Node21&#45;&gt;Node22 -->
<g id="edge24" class="edge">
<title>Node21&#45;&gt;Node22</title>
<path fill="none" stroke="midnightblue" d="M719.85,-134.48C715.62,-125.82 708.96,-112.15 703.6,-101.15"/>
<polygon fill="midnightblue" stroke="midnightblue" points="706.67,-99.46 699.15,-92.01 700.38,-102.53 706.67,-99.46"/>
</g>
<!-- Node23 -->
<g id="node23" class="node">
<title>Node23</title>
<g id="a_node23"><a xlink:title=" ">
<polygon fill="white" stroke="#bfbfbf" points="911,-73 911,-92 949,-92 949,-73 911,-73"/>
<text text-anchor="middle" x="930" y="-80" font-family="Helvetica,sans-Serif" font-size="10.00">map</text>
</a>
</g>
</g>
<!-- Node21&#45;&gt;Node23 -->
<g id="edge25" class="edge">
<title>Node21&#45;&gt;Node23</title>
<path fill="none" stroke="midnightblue" d="M768.44,-134.47C804.73,-126.85 857.02,-114.37 901,-98 902.38,-97.48 903.79,-96.92 905.2,-96.33"/>
<polygon fill="midnightblue" stroke="midnightblue" points="906.71,-99.48 914.32,-92.11 903.77,-93.13 906.71,-99.48"/>
</g>
<!-- Node24 -->
<g id="node24" class="node">
<title>Node24</title>
<g id="a_node24"><a xlink:title=" ">
<polygon fill="white" stroke="#bfbfbf" points="967.5,-73 967.5,-92 1028.5,-92 1028.5,-73 967.5,-73"/>
<text text-anchor="middle" x="998" y="-80" font-family="Helvetica,sans-Serif" font-size="10.00">TGraph.h</text>
</a>
</g>
</g>
<!-- Node21&#45;&gt;Node24 -->
<g id="edge26" class="edge">
<title>Node21&#45;&gt;Node24</title>
<path fill="none" stroke="midnightblue" d="M781.8,-134.49C829.52,-126.85 898.77,-114.32 958,-98 960.8,-97.23 963.69,-96.35 966.57,-95.42"/>
<polygon fill="midnightblue" stroke="midnightblue" points="967.88,-98.67 976.19,-92.11 965.6,-92.05 967.88,-98.67"/>
</g>
<!-- Node25 -->
<g id="node25" class="node">
<title>Node25</title>
<g id="a_node25"><a xlink:title=" ">
<polygon fill="white" stroke="#bfbfbf" points="1046.5,-73 1046.5,-92 1099.5,-92 1099.5,-73 1046.5,-73"/>
<text text-anchor="middle" x="1073" y="-80" font-family="Helvetica,sans-Serif" font-size="10.00">TH2D.h</text>
</a>
</g>
</g>
<!-- Node21&#45;&gt;Node25 -->
<g id="edge27" class="edge">
<title>Node21&#45;&gt;Node25</title>
<path fill="none" stroke="midnightblue" d="M789.04,-134.5C873.69,-123.3 1013.61,-104.29 1037,-98 1039.51,-97.33 1042.07,-96.53 1044.62,-95.66"/>
<polygon fill="midnightblue" stroke="midnightblue" points="1046.1,-98.84 1054.23,-92.05 1043.64,-92.28 1046.1,-98.84"/>
</g>
<!-- Node27&#45;&gt;Node4 -->
<g id="edge31" class="edge">
<title>Node27&#45;&gt;Node4</title>
<path fill="none" stroke="midnightblue" d="M658.11,-302.26C659.34,-289.02 659.89,-263.59 649,-246 640.34,-232.01 625.54,-221.45 611.95,-214.09"/>
<polygon fill="midnightblue" stroke="midnightblue" points="613.33,-210.87 602.82,-209.5 610.18,-217.12 613.33,-210.87"/>
</g>
<!-- Node27&#45;&gt;Node20 -->
<g id="edge42" class="edge">
<title>Node27&#45;&gt;Node20</title>
<path fill="none" stroke="midnightblue" d="M639.49,-302.32C621.93,-293.62 594.67,-280.12 574.47,-270.11"/>
<polygon fill="midnightblue" stroke="midnightblue" points="575.98,-266.96 565.47,-265.65 572.88,-273.23 575.98,-266.96"/>
</g>
<!-- Node28 -->
<g id="node28" class="node">
<title>Node28</title>
<g id="a_node28"><a xlink:href="_o_m_sim_hit_manager_8hh.html" target="_top" xlink:title="Defines structures and classes related to optical module photon hit management.">
<polygon fill="white" stroke="black" points="928.5,-246.5 928.5,-265.5 1051.5,-265.5 1051.5,-246.5 928.5,-246.5"/>
<text text-anchor="middle" x="990" y="-253.5" font-family="Helvetica,sans-Serif" font-size="10.00">OMSimHitManager.hh</text>
</a>
</g>
</g>
<!-- Node27&#45;&gt;Node28 -->
<g id="edge32" class="edge">
<title>Node27&#45;&gt;Node28</title>
<path fill="none" stroke="midnightblue" d="M709.76,-302.44C768.83,-292.87 864.47,-277.36 927.31,-267.17"/>
<polygon fill="midnightblue" stroke="midnightblue" points="928.17,-270.57 937.48,-265.52 927.05,-263.66 928.17,-270.57"/>
</g>
<!-- Node28&#45;&gt;Node21 -->
<g id="edge33" class="edge">
<title>Node28&#45;&gt;Node21</title>
<path fill="none" stroke="midnightblue" d="M969.13,-246.37C922.32,-227.01 808.79,-180.06 754.25,-157.51"/>
<polygon fill="midnightblue" stroke="midnightblue" points="755.35,-154.18 744.78,-153.59 752.68,-160.65 755.35,-154.18"/>
</g>
<!-- Node29 -->
<g id="node29" class="node">
<title>Node29</title>
<g id="a_node29"><a xlink:href="_o_m_sim_sensitive_detector_8hh.html" target="_top" xlink:title=" ">
<polygon fill="white" stroke="black" points="913.5,-190.5 913.5,-209.5 1066.5,-209.5 1066.5,-190.5 913.5,-190.5"/>
<text text-anchor="middle" x="990" y="-197.5" font-family="Helvetica,sans-Serif" font-size="10.00">OMSimSensitiveDetector.hh</text>
</a>
</g>
</g>
<!-- Node28&#45;&gt;Node29 -->
<g id="edge34" class="edge">
<title>Node28&#45;&gt;Node29</title>
<path fill="none" stroke="midnightblue" d="M990,-246.08C990,-239.01 990,-228.86 990,-219.99"/>
<polygon fill="midnightblue" stroke="midnightblue" points="993.5,-219.75 990,-209.75 986.5,-219.75 993.5,-219.75"/>
</g>
<!-- Node31 -->
<g id="node31" class="node">
<title>Node31</title>
<g id="a_node31"><a xlink:title=" ">
<polygon fill="white" stroke="#bfbfbf" points="1070.5,-134.5 1070.5,-153.5 1173.5,-153.5 1173.5,-134.5 1070.5,-134.5"/>
<text text-anchor="middle" x="1122" y="-141.5" font-family="Helvetica,sans-Serif" font-size="10.00">G4ThreeVector.hh</text>
</a>
</g>
</g>
<!-- Node28&#45;&gt;Node31 -->
<g id="edge40" class="edge">
<title>Node28&#45;&gt;Node31</title>
<path fill="none" stroke="midnightblue" d="M1012.98,-246.5C1031.42,-238.89 1057.23,-226.42 1076,-210 1091.56,-196.4 1104.63,-176.51 1112.82,-162.32"/>
<polygon fill="midnightblue" stroke="midnightblue" points="1115.89,-164 1117.67,-153.56 1109.77,-160.61 1115.89,-164"/>
</g>
<!-- Node33 -->
<g id="node33" class="node">
<title>Node33</title>
<g id="a_node33"><a xlink:title=" ">
<polygon fill="white" stroke="#bfbfbf" points="1208.5,-190.5 1208.5,-209.5 1263.5,-209.5 1263.5,-190.5 1208.5,-190.5"/>
<text text-anchor="middle" x="1236" y="-197.5" font-family="Helvetica,sans-Serif" font-size="10.00">fstream</text>
</a>
</g>
</g>
<!-- Node28&#45;&gt;Node33 -->
<g id="edge41" class="edge">
<title>Node28&#45;&gt;Node33</title>
<path fill="none" stroke="midnightblue" d="M1028.98,-246.44C1075.46,-236.24 1152.59,-219.31 1198.43,-209.25"/>
<polygon fill="midnightblue" stroke="midnightblue" points="1199.26,-212.65 1208.27,-207.09 1197.75,-205.81 1199.26,-212.65"/>
</g>
<!-- Node29&#45;&gt;Node11 -->
<g id="edge38" class="edge">
<title>Node29&#45;&gt;Node11</title>
<path fill="none" stroke="midnightblue" d="M1000,-190.37C1013.96,-177.29 1036.08,-152.05 1022,-134 1012.95,-122.39 933.31,-104.98 877.04,-93.94"/>
<polygon fill="midnightblue" stroke="midnightblue" points="877.66,-90.49 867.18,-92.02 876.33,-97.36 877.66,-90.49"/>
</g>
<!-- Node29&#45;&gt;Node21 -->
<g id="edge37" class="edge">
<title>Node29&#45;&gt;Node21</title>
<path fill="none" stroke="midnightblue" d="M947.85,-190.44C901.25,-180.98 826.16,-165.74 775.95,-155.55"/>
<polygon fill="midnightblue" stroke="midnightblue" points="776.45,-152.08 765.95,-153.52 775.06,-158.94 776.45,-152.08"/>
</g>
<!-- Node30 -->
<g id="node30" class="node">
<title>Node30</title>
<g id="a_node30"><a xlink:title=" ">
<polygon fill="white" stroke="#bfbfbf" points="810,-134.5 810,-153.5 948,-153.5 948,-134.5 810,-134.5"/>
<text text-anchor="middle" x="879" y="-141.5" font-family="Helvetica,sans-Serif" font-size="10.00">G4VSensitiveDetector.hh</text>
</a>
</g>
</g>
<!-- Node29&#45;&gt;Node30 -->
<g id="edge35" class="edge">
<title>Node29&#45;&gt;Node30</title>
<path fill="none" stroke="midnightblue" d="M972.17,-190.32C954.28,-181.62 926.52,-168.12 905.95,-158.11"/>
<polygon fill="midnightblue" stroke="midnightblue" points="907.31,-154.88 896.79,-153.65 904.25,-161.18 907.31,-154.88"/>
</g>
<!-- Node29&#45;&gt;Node31 -->
<g id="edge36" class="edge">
<title>Node29&#45;&gt;Node31</title>
<path fill="none" stroke="midnightblue" d="M1010.92,-190.44C1032.74,-181.52 1067.15,-167.44 1091.89,-157.32"/>
<polygon fill="midnightblue" stroke="midnightblue" points="1093.25,-160.54 1101.18,-153.52 1090.6,-154.06 1093.25,-160.54"/>
</g>
<!-- Node32 -->
<g id="node32" class="node">
<title>Node32</title>
<g id="a_node32"><a xlink:title=" ">
<polygon fill="white" stroke="#bfbfbf" points="966.5,-134.5 966.5,-153.5 1013.5,-153.5 1013.5,-134.5 966.5,-134.5"/>
<text text-anchor="middle" x="990" y="-141.5" font-family="Helvetica,sans-Serif" font-size="10.00">vector</text>
</a>
</g>
</g>
<!-- Node29&#45;&gt;Node32 -->
<g id="edge39" class="edge">
<title>Node29&#45;&gt;Node32</title>
<path fill="none" stroke="midnightblue" d="M990,-190.08C990,-183.01 990,-172.86 990,-163.99"/>
<polygon fill="midnightblue" stroke="midnightblue" points="993.5,-163.75 990,-153.75 986.5,-163.75 993.5,-163.75"/>
</g>
<!-- Node34&#45;&gt;Node4 -->
<g id="edge44" class="edge">
<title>Node34&#45;&gt;Node4</title>
<path fill="none" stroke="midnightblue" d="M1014.65,-358.47C986.72,-349.66 942.17,-335.37 904,-322 796.3,-284.29 669.97,-235.67 612.42,-213.29"/>
<polygon fill="midnightblue" stroke="midnightblue" points="613.4,-209.91 602.81,-209.54 610.86,-216.44 613.4,-209.91"/>
</g>
<!-- Node35 -->
<g id="node35" class="node">
<title>Node35</title>
<g id="a_node35"><a xlink:title=" ">
<polygon fill="white" stroke="#bfbfbf" points="913.5,-302.5 913.5,-321.5 1040.5,-321.5 1040.5,-302.5 913.5,-302.5"/>
<text text-anchor="middle" x="977" y="-309.5" font-family="Helvetica,sans-Serif" font-size="10.00">G4IntersectionSolid.hh</text>
</a>
</g>
</g>
<!-- Node34&#45;&gt;Node35 -->
<g id="edge45" class="edge">
<title>Node34&#45;&gt;Node35</title>
<path fill="none" stroke="midnightblue" d="M1031.56,-358.32C1021.85,-350.26 1007.18,-338.08 995.5,-328.37"/>
<polygon fill="midnightblue" stroke="midnightblue" points="997.56,-325.53 987.63,-321.83 993.09,-330.92 997.56,-325.53"/>
</g>
<!-- Node36 -->
<g id="node36" class="node">
<title>Node36</title>
<g id="a_node36"><a xlink:title=" ">
<polygon fill="white" stroke="#bfbfbf" points="1058.5,-302.5 1058.5,-321.5 1127.5,-321.5 1127.5,-302.5 1058.5,-302.5"/>
<text text-anchor="middle" x="1093" y="-309.5" font-family="Helvetica,sans-Serif" font-size="10.00">G4Cons.hh</text>
</a>
</g>
</g>
<!-- Node34&#45;&gt;Node36 -->
<g id="edge46" class="edge">
<title>Node34&#45;&gt;Node36</title>
<path fill="none" stroke="midnightblue" d="M1050.42,-358.08C1057.85,-350.22 1068.85,-338.57 1077.81,-329.08"/>
<polygon fill="midnightblue" stroke="midnightblue" points="1080.41,-331.42 1084.74,-321.75 1075.32,-326.62 1080.41,-331.42"/>
</g>
<!-- Node37&#45;&gt;Node6 -->
<g id="edge48" class="edge">
<title>Node37&#45;&gt;Node6</title>
<path fill="none" stroke="midnightblue" d="M1328.96,-246.3C1345.37,-234.13 1370.22,-211.16 1359,-190 1333.37,-141.65 1274.88,-111.2 1236.97,-95.78"/>
<polygon fill="midnightblue" stroke="midnightblue" points="1237.93,-92.4 1227.34,-92 1235.37,-98.91 1237.93,-92.4"/>
</g>
<!-- Node37&#45;&gt;Node33 -->
<g id="edge49" class="edge">
<title>Node37&#45;&gt;Node33</title>
<path fill="none" stroke="midnightblue" d="M1303.15,-246.32C1290.78,-237.98 1271.87,-225.21 1257.26,-215.35"/>
<polygon fill="midnightblue" stroke="midnightblue" points="1259.07,-212.35 1248.82,-209.65 1255.15,-218.15 1259.07,-212.35"/>
</g>
<!-- Node38 -->
<g id="node38" class="node">
<title>Node38</title>
<g id="a_node38"><a xlink:title=" ">
<polygon fill="white" stroke="#bfbfbf" points="1406,-190.5 1406,-209.5 1490,-209.5 1490,-190.5 1406,-190.5"/>
<text text-anchor="middle" x="1448" y="-197.5" font-family="Helvetica,sans-Serif" font-size="10.00">boost/any.hpp</text>
</a>
</g>
</g>
<!-- Node37&#45;&gt;Node38 -->
<g id="edge50" class="edge">
<title>Node37&#45;&gt;Node38</title>
<path fill="none" stroke="midnightblue" d="M1336.92,-246.44C1358.74,-237.52 1393.15,-223.44 1417.89,-213.32"/>
<polygon fill="midnightblue" stroke="midnightblue" points="1419.25,-216.54 1427.18,-209.52 1416.6,-210.06 1419.25,-216.54"/>
</g>
<!-- Node39 -->
<g id="node39" class="node">
<title>Node39</title>
<g id="a_node39"><a xlink:title=" ">
<polygon fill="white" stroke="#bfbfbf" points="1282,-190.5 1282,-209.5 1350,-209.5 1350,-190.5 1282,-190.5"/>
<text text-anchor="middle" x="1316" y="-197.5" font-family="Helvetica,sans-Serif" font-size="10.00">sys/time.h</text>
</a>
</g>
</g>
<!-- Node37&#45;&gt;Node39 -->
<g id="edge51" class="edge">
<title>Node37&#45;&gt;Node39</title>
<path fill="none" stroke="midnightblue" d="M1316,-246.08C1316,-239.01 1316,-228.86 1316,-219.99"/>
<polygon fill="midnightblue" stroke="midnightblue" points="1319.5,-219.75 1316,-209.75 1312.5,-219.75 1319.5,-219.75"/>
</g>
</g>
</svg>
