<?xml version="1.0" encoding="UTF-8" standalone="no"?>
<!DOCTYPE svg PUBLIC "-//W3C//DTD SVG 1.1//EN"
 "http://www.w3.org/Graphics/SVG/1.1/DTD/svg11.dtd">
<!-- Generated by graphviz version 2.43.0 (0)
 -->
<!-- Title: OMSimSNParticleGenerators.hh Pages: 1 -->
<svg width="914pt" height="137pt"
 viewBox="0.00 0.00 913.50 137.00" xmlns="http://www.w3.org/2000/svg" xmlns:xlink="http://www.w3.org/1999/xlink">
<g id="graph0" class="graph" transform="scale(1 1) rotate(0) translate(4 133)">
<title>OMSimSNParticleGenerators.hh</title>
<!-- Node1 -->
<g id="Node000001" class="node">
<title>Node1</title>
<g id="a_Node000001"><a xlink:title="This file contains the classes in charge of particle generation.">
<polygon fill="#999999" stroke="#666666" points="567,-129 397,-129 397,-110 567,-110 567,-129"/>
<text text-anchor="middle" x="482" y="-117" font-family="Helvetica,sans-Serif" font-size="10.00">OMSimSNParticleGenerators.hh</text>
</a>
</g>
</g>
<!-- Node2 -->
<g id="Node000002" class="node">
<title>Node2</title>
<g id="a_Node000002"><a xlink:title=" ">
<polygon fill="#e0e0e0" stroke="#999999" points="192,-74 0,-74 0,-55 192,-55 192,-74"/>
<text text-anchor="middle" x="96" y="-62" font-family="Helvetica,sans-Serif" font-size="10.00">G4VUserPrimaryGeneratorAction.hh</text>
</a>
</g>
</g>
<!-- Node1&#45;&gt;Node2 -->
<g id="edge1_Node000001_Node000002" class="edge">
<title>Node1&#45;&gt;Node2</title>
<g id="a_edge1_Node000001_Node000002"><a xlink:title=" ">
<path fill="none" stroke="#63b8ff" d="M419.98,-109.98C351.29,-100.55 240.68,-85.36 168.16,-75.41"/>
<polygon fill="#63b8ff" stroke="#63b8ff" points="168.57,-71.93 158.18,-74.04 167.61,-78.87 168.57,-71.93"/>
</a>
</g>
</g>
<!-- Node3 -->
<g id="Node000003" class="node">
<title>Node3</title>
<g id="a_Node000003"><a xlink:href="_o_m_sim_primary_generator_messenger_8hh_source.html" target="_top" xlink:title=" ">
<polygon fill="white" stroke="#666666" points="416,-74 210,-74 210,-55 416,-55 416,-74"/>
<text text-anchor="middle" x="313" y="-62" font-family="Helvetica,sans-Serif" font-size="10.00">OMSimPrimaryGeneratorMessenger.hh</text>
</a>
</g>
</g>
<!-- Node1&#45;&gt;Node3 -->
<g id="edge2_Node000001_Node000003" class="edge">
<title>Node1&#45;&gt;Node3</title>
<g id="a_edge2_Node000001_Node000003"><a xlink:title=" ">
<path fill="none" stroke="#63b8ff" d="M454.85,-109.98C426.47,-101.09 381.77,-87.07 350.14,-77.15"/>
<polygon fill="#63b8ff" stroke="#63b8ff" points="350.95,-73.73 340.37,-74.08 348.86,-80.41 350.95,-73.73"/>
</a>
</g>
</g>
<!-- Node5 -->
<g id="Node000005" class="node">
<title>Node5</title>
<g id="a_Node000005"><a xlink:title=" ">
<polygon fill="#e0e0e0" stroke="#999999" points="450.5,-19 383.5,-19 383.5,0 450.5,0 450.5,-19"/>
<text text-anchor="middle" x="417" y="-7" font-family="Helvetica,sans-Serif" font-size="10.00">globals.hh</text>
</a>
</g>
</g>
<!-- Node1&#45;&gt;Node5 -->
<g id="edge10_Node000001_Node000005" class="edge">
<title>Node1&#45;&gt;Node5</title>
<g id="a_edge10_Node000001_Node000005"><a xlink:title=" ">
<path fill="none" stroke="#63b8ff" d="M476.68,-109.66C465.96,-91.85 441.6,-51.37 427.54,-28.01"/>
<polygon fill="#63b8ff" stroke="#63b8ff" points="430.37,-25.92 422.21,-19.16 424.37,-29.53 430.37,-25.92"/>
</a>
</g>
</g>
<!-- Node6 -->
<g id="Node000006" class="node">
<title>Node6</title>
<g id="a_Node000006"><a xlink:href="_o_m_sim_s_n_tools_8hh.html" target="_top" xlink:title="Provides the definition for the OMSimSNTools class, centralizing utility methods for Supernova (SN) n...">
<polygon fill="white" stroke="#666666" points="615.5,-74 510.5,-74 510.5,-55 615.5,-55 615.5,-74"/>
<text text-anchor="middle" x="563" y="-62" font-family="Helvetica,sans-Serif" font-size="10.00">OMSimSNTools.hh</text>
</a>
</g>
</g>
<!-- Node1&#45;&gt;Node6 -->
<g id="edge5_Node000001_Node000006" class="edge">
<title>Node1&#45;&gt;Node6</title>
<g id="a_edge5_Node000001_Node000006"><a xlink:title=" ">
<path fill="none" stroke="#63b8ff" d="M495.01,-109.98C507.46,-101.84 526.46,-89.41 541.21,-79.76"/>
<polygon fill="#63b8ff" stroke="#63b8ff" points="543.3,-82.57 549.75,-74.17 539.46,-76.72 543.3,-82.57"/>
</a>
</g>
</g>
<!-- Node7 -->
<g id="Node000007" class="node">
<title>Node7</title>
<g id="a_Node000007"><a xlink:title=" ">
<polygon fill="#e0e0e0" stroke="#999999" points="515.5,-19 468.5,-19 468.5,0 515.5,0 515.5,-19"/>
<text text-anchor="middle" x="492" y="-7" font-family="Helvetica,sans-Serif" font-size="10.00">vector</text>
</a>
</g>
</g>
<!-- Node1&#45;&gt;Node7 -->
<g id="edge11_Node000001_Node000007" class="edge">
<title>Node1&#45;&gt;Node7</title>
<g id="a_edge11_Node000001_Node000007"><a xlink:title=" ">
<path fill="none" stroke="#63b8ff" d="M482.82,-109.66C484.44,-92.17 488.08,-52.8 490.26,-29.27"/>
<polygon fill="#63b8ff" stroke="#63b8ff" points="493.76,-29.44 491.2,-19.16 486.79,-28.79 493.76,-29.44"/>
</a>
</g>
</g>
<!-- Node10 -->
<g id="Node000010" class="node">
<title>Node10</title>
<g id="a_Node000010"><a xlink:title=" ">
<polygon fill="#e0e0e0" stroke="#999999" points="768,-74 634,-74 634,-55 768,-55 768,-74"/>
<text text-anchor="middle" x="701" y="-62" font-family="Helvetica,sans-Serif" font-size="10.00">G4PhysicalConstants.hh</text>
</a>
</g>
</g>
<!-- Node1&#45;&gt;Node10 -->
<g id="edge12_Node000001_Node000010" class="edge">
<title>Node1&#45;&gt;Node10</title>
<g id="a_edge12_Node000001_Node000010"><a xlink:title=" ">
<path fill="none" stroke="#63b8ff" d="M517.19,-109.98C554.83,-100.87 614.66,-86.4 655.77,-76.45"/>
<polygon fill="#63b8ff" stroke="#63b8ff" points="656.64,-79.84 665.54,-74.08 655,-73.03 656.64,-79.84"/>
</a>
</g>
</g>
<!-- Node11 -->
<g id="Node000011" class="node">
<title>Node11</title>
<g id="a_Node000011"><a xlink:title=" ">
<polygon fill="#e0e0e0" stroke="#999999" points="905.5,-74 786.5,-74 786.5,-55 905.5,-55 905.5,-74"/>
<text text-anchor="middle" x="846" y="-62" font-family="Helvetica,sans-Serif" font-size="10.00">G4SystemOfUnits.hh</text>
</a>
</g>
</g>
<!-- Node1&#45;&gt;Node11 -->
<g id="edge13_Node000001_Node000011" class="edge">
<title>Node1&#45;&gt;Node11</title>
<g id="a_edge13_Node000001_Node000011"><a xlink:title=" ">
<path fill="none" stroke="#63b8ff" d="M540.48,-109.98C605,-100.59 708.72,-85.49 777.12,-75.53"/>
<polygon fill="#63b8ff" stroke="#63b8ff" points="777.97,-78.94 787.36,-74.04 776.96,-72.02 777.97,-78.94"/>
</a>
</g>
</g>
<!-- Node4 -->
<g id="Node000004" class="node">
<title>Node4</title>
<g id="a_Node000004"><a xlink:title=" ">
<polygon fill="#e0e0e0" stroke="#999999" points="365.5,-19 256.5,-19 256.5,0 365.5,0 365.5,-19"/>
<text text-anchor="middle" x="311" y="-7" font-family="Helvetica,sans-Serif" font-size="10.00">G4UImessenger.hh</text>
</a>
</g>
</g>
<!-- Node3&#45;&gt;Node4 -->
<g id="edge3_Node000003_Node000004" class="edge">
<title>Node3&#45;&gt;Node4</title>
<g id="a_edge3_Node000003_Node000004"><a xlink:title=" ">
<path fill="none" stroke="#63b8ff" d="M312.67,-54.75C312.41,-47.8 312.03,-37.85 311.7,-29.13"/>
<polygon fill="#63b8ff" stroke="#63b8ff" points="315.2,-28.95 311.32,-19.09 308.2,-29.21 315.2,-28.95"/>
</a>
</g>
</g>
<!-- Node3&#45;&gt;Node5 -->
<g id="edge4_Node000003_Node000005" class="edge">
<title>Node3&#45;&gt;Node5</title>
<g id="a_edge4_Node000003_Node000005"><a xlink:title=" ">
<path fill="none" stroke="#63b8ff" d="M329.71,-54.98C346.21,-46.57 371.7,-33.59 390.88,-23.81"/>
<polygon fill="#63b8ff" stroke="#63b8ff" points="392.67,-26.83 399.99,-19.17 389.49,-20.59 392.67,-26.83"/>
</a>
</g>
</g>
<!-- Node6&#45;&gt;Node5 -->
<g id="edge6_Node000006_Node000005" class="edge">
<title>Node6&#45;&gt;Node5</title>
<g id="a_edge6_Node000006_Node000005"><a xlink:title=" ">
<path fill="none" stroke="#63b8ff" d="M539.54,-54.98C515.42,-46.23 477.63,-32.51 450.4,-22.62"/>
<polygon fill="#63b8ff" stroke="#63b8ff" points="451.48,-19.29 440.88,-19.17 449.09,-25.87 451.48,-19.29"/>
</a>
</g>
</g>
<!-- Node6&#45;&gt;Node7 -->
<g id="edge7_Node000006_Node000007" class="edge">
<title>Node6&#45;&gt;Node7</title>
<g id="a_edge7_Node000006_Node000007"><a xlink:title=" ">
<path fill="none" stroke="#63b8ff" d="M551.59,-54.98C540.89,-47 524.66,-34.88 511.84,-25.31"/>
<polygon fill="#63b8ff" stroke="#63b8ff" points="513.72,-22.35 503.61,-19.17 509.53,-27.96 513.72,-22.35"/>
</a>
</g>
</g>
<!-- Node8 -->
<g id="Node000008" class="node">
<title>Node8</title>
<g id="a_Node000008"><a xlink:title=" ">
<polygon fill="#e0e0e0" stroke="#999999" points="715.5,-19 612.5,-19 612.5,0 715.5,0 715.5,-19"/>
<text text-anchor="middle" x="664" y="-7" font-family="Helvetica,sans-Serif" font-size="10.00">G4ThreeVector.hh</text>
</a>
</g>
</g>
<!-- Node6&#45;&gt;Node8 -->
<g id="edge8_Node000006_Node000008" class="edge">
<title>Node6&#45;&gt;Node8</title>
<g id="a_edge8_Node000006_Node000008"><a xlink:title=" ">
<path fill="none" stroke="#63b8ff" d="M579.23,-54.98C595.18,-46.61 619.78,-33.7 638.38,-23.95"/>
<polygon fill="#63b8ff" stroke="#63b8ff" points="640.25,-26.92 647.48,-19.17 637,-20.72 640.25,-26.92"/>
</a>
</g>
</g>
<!-- Node9 -->
<g id="Node000009" class="node">
<title>Node9</title>
<g id="a_Node000009"><a xlink:title=" ">
<polygon fill="#e0e0e0" stroke="#999999" points="594.5,-19 533.5,-19 533.5,0 594.5,0 594.5,-19"/>
<text text-anchor="middle" x="564" y="-7" font-family="Helvetica,sans-Serif" font-size="10.00">TGraph.h</text>
</a>
</g>
</g>
<!-- Node6&#45;&gt;Node9 -->
<g id="edge9_Node000006_Node000009" class="edge">
<title>Node6&#45;&gt;Node9</title>
<g id="a_edge9_Node000006_Node000009"><a xlink:title=" ">
<path fill="none" stroke="#63b8ff" d="M563.17,-54.75C563.3,-47.8 563.48,-37.85 563.65,-29.13"/>
<polygon fill="#63b8ff" stroke="#63b8ff" points="567.15,-29.15 563.84,-19.09 560.15,-29.02 567.15,-29.15"/>
</a>
</g>
</g>
</g>
</svg>
