<?xml version="1.0" encoding="UTF-8" standalone="no"?>
<!DOCTYPE svg PUBLIC "-//W3C//DTD SVG 1.1//EN"
 "http://www.w3.org/Graphics/SVG/1.1/DTD/svg11.dtd">
<!-- Generated by graphviz version 2.43.0 (0)
 -->
<!-- Title: OMSim_effective_area.cc Pages: 1 -->
<svg width="2363pt" height="487pt"
 viewBox="0.00 0.00 2363.00 487.00" xmlns="http://www.w3.org/2000/svg" xmlns:xlink="http://www.w3.org/1999/xlink">
<g id="graph0" class="graph" transform="scale(1 1) rotate(0) translate(4 483)">
<title>OMSim_effective_area.cc</title>
<polygon fill="white" stroke="transparent" points="-4,4 -4,-483 2359,-483 2359,4 -4,4"/>
<!-- Node1 -->
<g id="node1" class="node">
<title>Node1</title>
<g id="a_node1"><a xlink:title="Main for the calculation of effective areas.">
<polygon fill="#bfbfbf" stroke="black" points="925.5,-459.5 925.5,-478.5 1065.5,-478.5 1065.5,-459.5 925.5,-459.5"/>
<text text-anchor="middle" x="995.5" y="-466.5" font-family="Helvetica,sans-Serif" font-size="10.00">OMSim_effective_area.cc</text>
</a>
</g>
</g>
<!-- Node2 -->
<g id="node2" class="node">
<title>Node2</title>
<g id="a_node2"><a xlink:href="_o_m_sim_8hh.html" target="_top" xlink:title="Main simulation class for the Optical Module (OM) simulation. This file defines the OMSim class,...">
<polygon fill="white" stroke="black" points="1355,-403.5 1355,-422.5 1422,-422.5 1422,-403.5 1355,-403.5"/>
<text text-anchor="middle" x="1388.5" y="-410.5" font-family="Helvetica,sans-Serif" font-size="10.00">OMSim.hh</text>
</a>
</g>
</g>
<!-- Node1&#45;&gt;Node2 -->
<g id="edge1" class="edge">
<title>Node1&#45;&gt;Node2</title>
<path fill="none" stroke="midnightblue" d="M1057.77,-459.44C1137.85,-448.44 1274.91,-429.61 1344.78,-420.01"/>
<polygon fill="midnightblue" stroke="midnightblue" points="1345.56,-423.43 1354.99,-418.6 1344.6,-416.5 1345.56,-423.43"/>
</g>
<!-- Node51 -->
<g id="node47" class="node">
<title>Node51</title>
<g id="a_node47"><a xlink:href="_o_m_sim_angular_scan_8hh.html" target="_top" xlink:title="Defines the AngularScan class for configuring and running GPS beam with angular scans.">
<polygon fill="white" stroke="black" points="1879.5,-403.5 1879.5,-422.5 2007.5,-422.5 2007.5,-403.5 1879.5,-403.5"/>
<text text-anchor="middle" x="1943.5" y="-410.5" font-family="Helvetica,sans-Serif" font-size="10.00">OMSimAngularScan.hh</text>
</a>
</g>
</g>
<!-- Node1&#45;&gt;Node51 -->
<g id="edge52" class="edge">
<title>Node1&#45;&gt;Node51</title>
<path fill="none" stroke="midnightblue" d="M1065.59,-464.01C1239.76,-454.09 1690.98,-428.38 1869.36,-418.22"/>
<polygon fill="midnightblue" stroke="midnightblue" points="1869.65,-421.71 1879.43,-417.65 1869.25,-414.72 1869.65,-421.71"/>
</g>
<!-- Node53 -->
<g id="node49" class="node">
<title>Node53</title>
<g id="a_node49"><a xlink:href="_o_m_sim_effective_area_analyisis_8hh.html" target="_top" xlink:title=" ">
<polygon fill="white" stroke="black" points="678.5,-291.5 678.5,-310.5 854.5,-310.5 854.5,-291.5 678.5,-291.5"/>
<text text-anchor="middle" x="766.5" y="-298.5" font-family="Helvetica,sans-Serif" font-size="10.00">OMSimEffectiveAreaAnalyisis.hh</text>
</a>
</g>
</g>
<!-- Node1&#45;&gt;Node53 -->
<g id="edge54" class="edge">
<title>Node1&#45;&gt;Node53</title>
<path fill="none" stroke="midnightblue" d="M925.31,-467.62C851.26,-462.98 737.79,-442.93 682.5,-367 665.97,-344.3 698.83,-325.6 728.17,-314.18"/>
<polygon fill="midnightblue" stroke="midnightblue" points="729.74,-317.34 737.91,-310.59 727.32,-310.77 729.74,-317.34"/>
</g>
<!-- Node54 -->
<g id="node50" class="node">
<title>Node54</title>
<g id="a_node50"><a xlink:href="_o_m_sim_effective_area_detector_8hh.html" target="_top" xlink:title="Defines the OMSimEffectiveAreaDetector class for effective area simulation detector construction.">
<polygon fill="white" stroke="black" points="462,-403.5 462,-422.5 635,-422.5 635,-403.5 462,-403.5"/>
<text text-anchor="middle" x="548.5" y="-410.5" font-family="Helvetica,sans-Serif" font-size="10.00">OMSimEffectiveAreaDetector.hh</text>
</a>
</g>
</g>
<!-- Node1&#45;&gt;Node54 -->
<g id="edge59" class="edge">
<title>Node1&#45;&gt;Node54</title>
<path fill="none" stroke="midnightblue" d="M925.16,-459.5C844.84,-449.8 713.65,-433.95 629.22,-423.75"/>
<polygon fill="midnightblue" stroke="midnightblue" points="629.51,-420.26 619.16,-422.54 628.67,-427.21 629.51,-420.26"/>
</g>
<!-- Node3 -->
<g id="node3" class="node">
<title>Node3</title>
<g id="a_node3"><a xlink:href="_o_m_sim_detector_construction_8hh.html" target="_top" xlink:title=" ">
<polygon fill="white" stroke="black" points="463.5,-347.5 463.5,-366.5 633.5,-366.5 633.5,-347.5 463.5,-347.5"/>
<text text-anchor="middle" x="548.5" y="-354.5" font-family="Helvetica,sans-Serif" font-size="10.00">OMSimDetectorConstruction.hh</text>
</a>
</g>
</g>
<!-- Node2&#45;&gt;Node3 -->
<g id="edge2" class="edge">
<title>Node2&#45;&gt;Node3</title>
<path fill="none" stroke="midnightblue" d="M1354.7,-409.89C1253.02,-403.52 941.09,-383.93 682.5,-367 670.02,-366.18 656.88,-365.31 643.91,-364.45"/>
<polygon fill="midnightblue" stroke="midnightblue" points="643.77,-360.93 633.56,-363.76 643.31,-367.92 643.77,-360.93"/>
</g>
<!-- Node32 -->
<g id="node28" class="node">
<title>Node32</title>
<g id="a_node28"><a xlink:title=" ">
<polygon fill="white" stroke="#bfbfbf" points="1774,-347.5 1774,-366.5 1895,-366.5 1895,-347.5 1774,-347.5"/>
<text text-anchor="middle" x="1834.5" y="-354.5" font-family="Helvetica,sans-Serif" font-size="10.00">OMSimPhysicsList.hh</text>
</a>
</g>
</g>
<!-- Node2&#45;&gt;Node32 -->
<g id="edge31" class="edge">
<title>Node2&#45;&gt;Node32</title>
<path fill="none" stroke="midnightblue" d="M1422.05,-408.12C1486.31,-400.66 1631.46,-383.68 1764,-367.18"/>
<polygon fill="midnightblue" stroke="midnightblue" points="1764.43,-370.65 1773.92,-365.94 1763.57,-363.7 1764.43,-370.65"/>
</g>
<!-- Node33 -->
<g id="node29" class="node">
<title>Node33</title>
<g id="a_node29"><a xlink:title=" ">
<polygon fill="white" stroke="#bfbfbf" points="1913,-347.5 1913,-366.5 2098,-366.5 2098,-347.5 1913,-347.5"/>
<text text-anchor="middle" x="2005.5" y="-354.5" font-family="Helvetica,sans-Serif" font-size="10.00">OMSimPrimaryGeneratorAction.hh</text>
</a>
</g>
</g>
<!-- Node2&#45;&gt;Node33 -->
<g id="edge32" class="edge">
<title>Node2&#45;&gt;Node33</title>
<path fill="none" stroke="midnightblue" d="M1422.24,-409.06C1503.07,-402.02 1714.4,-383.6 1902.84,-367.06"/>
<polygon fill="midnightblue" stroke="midnightblue" points="1903.28,-370.53 1912.93,-366.17 1902.67,-363.56 1903.28,-370.53"/>
</g>
<!-- Node34 -->
<g id="node30" class="node">
<title>Node34</title>
<g id="a_node30"><a xlink:href="_o_m_sim_run_action_8hh.html" target="_top" xlink:title=" ">
<polygon fill="white" stroke="black" points="2115.5,-347.5 2115.5,-366.5 2231.5,-366.5 2231.5,-347.5 2115.5,-347.5"/>
<text text-anchor="middle" x="2173.5" y="-354.5" font-family="Helvetica,sans-Serif" font-size="10.00">OMSimRunAction.hh</text>
</a>
</g>
</g>
<!-- Node2&#45;&gt;Node34 -->
<g id="edge33" class="edge">
<title>Node2&#45;&gt;Node34</title>
<path fill="none" stroke="midnightblue" d="M1422.21,-410.74C1523.77,-406.76 1835.87,-393.2 2105.45,-367.03"/>
<polygon fill="midnightblue" stroke="midnightblue" points="2105.81,-370.51 2115.42,-366.06 2105.13,-363.55 2105.81,-370.51"/>
</g>
<!-- Node36 -->
<g id="node32" class="node">
<title>Node36</title>
<g id="a_node32"><a xlink:title=" ">
<polygon fill="white" stroke="#bfbfbf" points="692,-347.5 692,-366.5 817,-366.5 817,-347.5 692,-347.5"/>
<text text-anchor="middle" x="754.5" y="-354.5" font-family="Helvetica,sans-Serif" font-size="10.00">OMSimEventAction.hh</text>
</a>
</g>
</g>
<!-- Node2&#45;&gt;Node36 -->
<g id="edge35" class="edge">
<title>Node2&#45;&gt;Node36</title>
<path fill="none" stroke="midnightblue" d="M1354.88,-409.83C1268.99,-404.18 1034.33,-388.04 827.45,-367.05"/>
<polygon fill="midnightblue" stroke="midnightblue" points="827.61,-363.55 817.31,-366.02 826.9,-370.52 827.61,-363.55"/>
</g>
<!-- Node37 -->
<g id="node33" class="node">
<title>Node37</title>
<g id="a_node33"><a xlink:href="_o_m_sim_tracking_action_8hh.html" target="_top" xlink:title=" ">
<polygon fill="white" stroke="black" points="835.5,-347.5 835.5,-366.5 973.5,-366.5 973.5,-347.5 835.5,-347.5"/>
<text text-anchor="middle" x="904.5" y="-354.5" font-family="Helvetica,sans-Serif" font-size="10.00">OMSimTrackingAction.hh</text>
</a>
</g>
</g>
<!-- Node2&#45;&gt;Node37 -->
<g id="edge36" class="edge">
<title>Node2&#45;&gt;Node37</title>
<path fill="none" stroke="midnightblue" d="M1354.81,-408.32C1286.86,-400.88 1128.28,-383.46 984.17,-367.18"/>
<polygon fill="midnightblue" stroke="midnightblue" points="984.15,-363.66 973.82,-366.01 983.36,-370.62 984.15,-363.66"/>
</g>
<!-- Node39 -->
<g id="node35" class="node">
<title>Node39</title>
<g id="a_node35"><a xlink:href="_o_m_sim_stepping_action_8hh.html" target="_top" xlink:title="Defines OMSimSteppingAction.Currently it only checks for trapped photons.">
<polygon fill="white" stroke="black" points="991.5,-347.5 991.5,-366.5 1131.5,-366.5 1131.5,-347.5 991.5,-347.5"/>
<text text-anchor="middle" x="1061.5" y="-354.5" font-family="Helvetica,sans-Serif" font-size="10.00">OMSimSteppingAction.hh</text>
</a>
</g>
</g>
<!-- Node2&#45;&gt;Node39 -->
<g id="edge38" class="edge">
<title>Node2&#45;&gt;Node39</title>
<path fill="none" stroke="midnightblue" d="M1354.74,-406.42C1300.26,-397.43 1192.14,-379.57 1123.51,-368.24"/>
<polygon fill="midnightblue" stroke="midnightblue" points="1123.7,-364.72 1113.26,-366.55 1122.56,-371.63 1123.7,-364.72"/>
</g>
<!-- Node41 -->
<g id="node37" class="node">
<title>Node41</title>
<g id="a_node37"><a xlink:href="_o_m_sim_u_iinterface_8hh.html" target="_top" xlink:title=" ">
<polygon fill="white" stroke="black" points="1761,-291.5 1761,-310.5 1882,-310.5 1882,-291.5 1761,-291.5"/>
<text text-anchor="middle" x="1821.5" y="-298.5" font-family="Helvetica,sans-Serif" font-size="10.00">OMSimUIinterface.hh</text>
</a>
</g>
</g>
<!-- Node2&#45;&gt;Node41 -->
<g id="edge40" class="edge">
<title>Node2&#45;&gt;Node41</title>
<path fill="none" stroke="midnightblue" d="M1422.21,-411.5C1576.82,-409.06 2211.86,-397.19 2240.5,-367 2289.63,-315.21 2023.82,-304.58 1892.08,-302.48"/>
<polygon fill="midnightblue" stroke="midnightblue" points="1892.11,-298.98 1882.06,-302.33 1892.01,-305.98 1892.11,-298.98"/>
</g>
<!-- Node46 -->
<g id="node42" class="node">
<title>Node46</title>
<g id="a_node42"><a xlink:title=" ">
<polygon fill="white" stroke="#bfbfbf" points="1149.5,-347.5 1149.5,-366.5 1255.5,-366.5 1255.5,-347.5 1149.5,-347.5"/>
<text text-anchor="middle" x="1202.5" y="-354.5" font-family="Helvetica,sans-Serif" font-size="10.00">G4RunManager.hh</text>
</a>
</g>
</g>
<!-- Node2&#45;&gt;Node46 -->
<g id="edge47" class="edge">
<title>Node2&#45;&gt;Node46</title>
<path fill="none" stroke="midnightblue" d="M1359.03,-403.44C1327.33,-394.24 1276.77,-379.56 1241.73,-369.39"/>
<polygon fill="midnightblue" stroke="midnightblue" points="1242.41,-365.94 1231.83,-366.52 1240.46,-372.67 1242.41,-365.94"/>
</g>
<!-- Node47 -->
<g id="node43" class="node">
<title>Node47</title>
<g id="a_node43"><a xlink:title=" ">
<polygon fill="white" stroke="#bfbfbf" points="1274,-347.5 1274,-366.5 1381,-366.5 1381,-347.5 1274,-347.5"/>
<text text-anchor="middle" x="1327.5" y="-354.5" font-family="Helvetica,sans-Serif" font-size="10.00">G4VisExecutive.hh</text>
</a>
</g>
</g>
<!-- Node2&#45;&gt;Node47 -->
<g id="edge48" class="edge">
<title>Node2&#45;&gt;Node47</title>
<path fill="none" stroke="midnightblue" d="M1378.7,-403.32C1369.68,-395.34 1356.09,-383.31 1345.18,-373.65"/>
<polygon fill="midnightblue" stroke="midnightblue" points="1347.29,-370.84 1337.48,-366.83 1342.65,-376.08 1347.29,-370.84"/>
</g>
<!-- Node48 -->
<g id="node44" class="node">
<title>Node48</title>
<g id="a_node44"><a xlink:title=" ">
<polygon fill="white" stroke="#bfbfbf" points="1399,-347.5 1399,-366.5 1502,-366.5 1502,-347.5 1399,-347.5"/>
<text text-anchor="middle" x="1450.5" y="-354.5" font-family="Helvetica,sans-Serif" font-size="10.00">G4UIExecutive.hh</text>
</a>
</g>
</g>
<!-- Node2&#45;&gt;Node48 -->
<g id="edge49" class="edge">
<title>Node2&#45;&gt;Node48</title>
<path fill="none" stroke="midnightblue" d="M1398.46,-403.32C1407.63,-395.34 1421.44,-383.31 1432.53,-373.65"/>
<polygon fill="midnightblue" stroke="midnightblue" points="1435.12,-376.04 1440.36,-366.83 1430.52,-370.76 1435.12,-376.04"/>
</g>
<!-- Node49 -->
<g id="node45" class="node">
<title>Node49</title>
<g id="a_node45"><a xlink:title=" ">
<polygon fill="white" stroke="#bfbfbf" points="1520.5,-347.5 1520.5,-366.5 1588.5,-366.5 1588.5,-347.5 1520.5,-347.5"/>
<text text-anchor="middle" x="1554.5" y="-354.5" font-family="Helvetica,sans-Serif" font-size="10.00">filesystem</text>
</a>
</g>
</g>
<!-- Node2&#45;&gt;Node49 -->
<g id="edge50" class="edge">
<title>Node2&#45;&gt;Node49</title>
<path fill="none" stroke="midnightblue" d="M1414.8,-403.44C1442.85,-394.32 1487.44,-379.81 1518.68,-369.65"/>
<polygon fill="midnightblue" stroke="midnightblue" points="1519.89,-372.94 1528.32,-366.52 1517.73,-366.28 1519.89,-372.94"/>
</g>
<!-- Node50 -->
<g id="node46" class="node">
<title>Node50</title>
<g id="a_node46"><a xlink:title=" ">
<polygon fill="white" stroke="#bfbfbf" points="1606.5,-347.5 1606.5,-366.5 1756.5,-366.5 1756.5,-347.5 1606.5,-347.5"/>
<text text-anchor="middle" x="1681.5" y="-354.5" font-family="Helvetica,sans-Serif" font-size="10.00">boost/program_options.hpp</text>
</a>
</g>
</g>
<!-- Node2&#45;&gt;Node50 -->
<g id="edge51" class="edge">
<title>Node2&#45;&gt;Node50</title>
<path fill="none" stroke="midnightblue" d="M1422.11,-405.81C1471.7,-396.67 1565.08,-379.46 1625.23,-368.37"/>
<polygon fill="midnightblue" stroke="midnightblue" points="1626.12,-371.77 1635.32,-366.51 1624.85,-364.88 1626.12,-371.77"/>
</g>
<!-- Node4 -->
<g id="node4" class="node">
<title>Node4</title>
<g id="a_node4"><a xlink:href="_o_m_sim_optical_module_8hh.html" target="_top" xlink:title=" ">
<polygon fill="white" stroke="black" points="443,-291.5 443,-310.5 580,-310.5 580,-291.5 443,-291.5"/>
<text text-anchor="middle" x="511.5" y="-298.5" font-family="Helvetica,sans-Serif" font-size="10.00">OMSimOpticalModule.hh</text>
</a>
</g>
</g>
<!-- Node3&#45;&gt;Node4 -->
<g id="edge3" class="edge">
<title>Node3&#45;&gt;Node4</title>
<path fill="none" stroke="midnightblue" d="M542.39,-347.08C537.22,-339.53 529.65,-328.49 523.31,-319.23"/>
<polygon fill="midnightblue" stroke="midnightblue" points="526.04,-317.02 517.5,-310.75 520.26,-320.98 526.04,-317.02"/>
</g>
<!-- Node30 -->
<g id="node26" class="node">
<title>Node30</title>
<g id="a_node26"><a xlink:title=" ">
<polygon fill="white" stroke="#bfbfbf" points="598.5,-291.5 598.5,-310.5 660.5,-310.5 660.5,-291.5 598.5,-291.5"/>
<text text-anchor="middle" x="629.5" y="-298.5" font-family="Helvetica,sans-Serif" font-size="10.00">G4Orb.hh</text>
</a>
</g>
</g>
<!-- Node3&#45;&gt;Node30 -->
<g id="edge29" class="edge">
<title>Node3&#45;&gt;Node30</title>
<path fill="none" stroke="midnightblue" d="M561.51,-347.32C574.03,-338.98 593.18,-326.21 607.97,-316.35"/>
<polygon fill="midnightblue" stroke="midnightblue" points="610.14,-319.11 616.52,-310.65 606.26,-313.29 610.14,-319.11"/>
</g>
<!-- Node31 -->
<g id="node27" class="node">
<title>Node31</title>
<g id="a_node27"><a xlink:title=" ">
<polygon fill="white" stroke="#bfbfbf" points="246.5,-291.5 246.5,-310.5 424.5,-310.5 424.5,-291.5 246.5,-291.5"/>
<text text-anchor="middle" x="335.5" y="-298.5" font-family="Helvetica,sans-Serif" font-size="10.00">G4VUserDetectorConstruction.hh</text>
</a>
</g>
</g>
<!-- Node3&#45;&gt;Node31 -->
<g id="edge30" class="edge">
<title>Node3&#45;&gt;Node31</title>
<path fill="none" stroke="midnightblue" d="M514.75,-347.44C477.98,-338.12 419.05,-323.18 378.88,-313"/>
<polygon fill="midnightblue" stroke="midnightblue" points="379.65,-309.58 369.09,-310.52 377.93,-316.37 379.65,-309.58"/>
</g>
<!-- Node5 -->
<g id="node5" class="node">
<title>Node5</title>
<g id="a_node5"><a xlink:href="abc_detector_component_8hh.html" target="_top" xlink:title="Provides helper base class abcDetectorComponent for constructing and managing detector components in ...">
<polygon fill="white" stroke="black" points="298,-179.5 298,-198.5 445,-198.5 445,-179.5 298,-179.5"/>
<text text-anchor="middle" x="371.5" y="-186.5" font-family="Helvetica,sans-Serif" font-size="10.00">abcDetectorComponent.hh</text>
</a>
</g>
</g>
<!-- Node4&#45;&gt;Node5 -->
<g id="edge4" class="edge">
<title>Node4&#45;&gt;Node5</title>
<path fill="none" stroke="midnightblue" d="M490.54,-291.38C472.71,-283.47 446.99,-270.63 427.5,-255 410.15,-241.09 393.99,-221.3 383.53,-207.21"/>
<polygon fill="midnightblue" stroke="midnightblue" points="386.22,-204.96 377.53,-198.9 380.55,-209.06 386.22,-204.96"/>
</g>
<!-- Node19 -->
<g id="node15" class="node">
<title>Node19</title>
<g id="a_node15"><a xlink:href="_o_m_sim_hit_manager_8hh.html" target="_top" xlink:title="Defines structures and classes related to optical module photon hit management.">
<polygon fill="white" stroke="black" points="718,-235.5 718,-254.5 841,-254.5 841,-235.5 718,-235.5"/>
<text text-anchor="middle" x="779.5" y="-242.5" font-family="Helvetica,sans-Serif" font-size="10.00">OMSimHitManager.hh</text>
</a>
</g>
</g>
<!-- Node4&#45;&gt;Node19 -->
<g id="edge14" class="edge">
<title>Node4&#45;&gt;Node19</title>
<path fill="none" stroke="midnightblue" d="M553.97,-291.44C600.91,-281.98 676.58,-266.74 727.15,-256.55"/>
<polygon fill="midnightblue" stroke="midnightblue" points="728.12,-259.92 737.23,-254.52 726.74,-253.06 728.12,-259.92"/>
</g>
<!-- Node27 -->
<g id="node23" class="node">
<title>Node27</title>
<g id="a_node23"><a xlink:href="_o_m_sim_p_m_t_construction_8hh.html" target="_top" xlink:title="Construction of the PMTs.">
<polygon fill="white" stroke="black" points="437,-235.5 437,-254.5 586,-254.5 586,-235.5 437,-235.5"/>
<text text-anchor="middle" x="511.5" y="-242.5" font-family="Helvetica,sans-Serif" font-size="10.00">OMSimPMTConstruction.hh</text>
</a>
</g>
</g>
<!-- Node4&#45;&gt;Node27 -->
<g id="edge23" class="edge">
<title>Node4&#45;&gt;Node27</title>
<path fill="none" stroke="midnightblue" d="M511.5,-291.08C511.5,-284.01 511.5,-273.86 511.5,-264.99"/>
<polygon fill="midnightblue" stroke="midnightblue" points="515,-264.75 511.5,-254.75 508,-264.75 515,-264.75"/>
</g>
<!-- Node6 -->
<g id="node6" class="node">
<title>Node6</title>
<g id="a_node6"><a xlink:href="_o_m_sim_input_data_8hh.html" target="_top" xlink:title="Definition of ParameterTable and InputDataManager.">
<polygon fill="white" stroke="red" points="524,-123.5 524,-142.5 639,-142.5 639,-123.5 524,-123.5"/>
<text text-anchor="middle" x="581.5" y="-130.5" font-family="Helvetica,sans-Serif" font-size="10.00">OMSimInputData.hh</text>
</a>
</g>
</g>
<!-- Node5&#45;&gt;Node6 -->
<g id="edge5" class="edge">
<title>Node5&#45;&gt;Node6</title>
<path fill="none" stroke="midnightblue" d="M404.78,-179.44C440.95,-170.14 498.88,-155.25 538.48,-145.06"/>
<polygon fill="midnightblue" stroke="midnightblue" points="539.57,-148.4 548.38,-142.52 537.82,-141.62 539.57,-148.4"/>
</g>
<!-- Node15 -->
<g id="node11" class="node">
<title>Node15</title>
<g id="a_node11"><a xlink:title=" ">
<polygon fill="white" stroke="#bfbfbf" points="0,-123.5 0,-142.5 107,-142.5 107,-123.5 0,-123.5"/>
<text text-anchor="middle" x="53.5" y="-130.5" font-family="Helvetica,sans-Serif" font-size="10.00">G4Transform3D.hh</text>
</a>
</g>
</g>
<!-- Node5&#45;&gt;Node15 -->
<g id="edge10" class="edge">
<title>Node5&#45;&gt;Node15</title>
<path fill="none" stroke="midnightblue" d="M321.11,-179.44C264.82,-169.89 173.75,-154.42 113.74,-144.23"/>
<polygon fill="midnightblue" stroke="midnightblue" points="114.1,-140.74 103.65,-142.52 112.93,-147.64 114.1,-140.74"/>
</g>
<!-- Node16 -->
<g id="node12" class="node">
<title>Node16</title>
<g id="a_node12"><a xlink:title=" ">
<polygon fill="white" stroke="#bfbfbf" points="125.5,-123.5 125.5,-142.5 233.5,-142.5 233.5,-123.5 125.5,-123.5"/>
<text text-anchor="middle" x="179.5" y="-130.5" font-family="Helvetica,sans-Serif" font-size="10.00">G4VisAttributes.hh</text>
</a>
</g>
</g>
<!-- Node5&#45;&gt;Node16 -->
<g id="edge11" class="edge">
<title>Node5&#45;&gt;Node16</title>
<path fill="none" stroke="midnightblue" d="M341.08,-179.44C308.22,-170.2 255.72,-155.44 219.53,-145.26"/>
<polygon fill="midnightblue" stroke="midnightblue" points="220.35,-141.85 209.78,-142.52 218.46,-148.59 220.35,-141.85"/>
</g>
<!-- Node17 -->
<g id="node13" class="node">
<title>Node17</title>
<g id="a_node13"><a xlink:title=" ">
<polygon fill="white" stroke="#bfbfbf" points="252,-123.5 252,-142.5 377,-142.5 377,-123.5 252,-123.5"/>
<text text-anchor="middle" x="314.5" y="-130.5" font-family="Helvetica,sans-Serif" font-size="10.00">G4SubtractionSolid.hh</text>
</a>
</g>
</g>
<!-- Node5&#45;&gt;Node17 -->
<g id="edge12" class="edge">
<title>Node5&#45;&gt;Node17</title>
<path fill="none" stroke="midnightblue" d="M362.34,-179.32C354,-171.42 341.47,-159.55 331.32,-149.94"/>
<polygon fill="midnightblue" stroke="midnightblue" points="333.49,-147.17 323.82,-142.83 328.68,-152.25 333.49,-147.17"/>
</g>
<!-- Node18 -->
<g id="node14" class="node">
<title>Node18</title>
<g id="a_node14"><a xlink:title=" ">
<polygon fill="white" stroke="#bfbfbf" points="395.5,-123.5 395.5,-142.5 505.5,-142.5 505.5,-123.5 395.5,-123.5"/>
<text text-anchor="middle" x="450.5" y="-130.5" font-family="Helvetica,sans-Serif" font-size="10.00">G4PVPlacement.hh</text>
</a>
</g>
</g>
<!-- Node5&#45;&gt;Node18 -->
<g id="edge13" class="edge">
<title>Node5&#45;&gt;Node18</title>
<path fill="none" stroke="midnightblue" d="M384.19,-179.32C396.4,-170.98 415.08,-158.21 429.5,-148.35"/>
<polygon fill="midnightblue" stroke="midnightblue" points="431.56,-151.19 437.84,-142.65 427.61,-145.41 431.56,-151.19"/>
</g>
<!-- Node7 -->
<g id="node7" class="node">
<title>Node7</title>
<g id="a_node7"><a xlink:href="_o_m_sim_logger_8hh.html" target="_top" xlink:title=" ">
<polygon fill="white" stroke="red" points="939,-67.5 939,-86.5 1038,-86.5 1038,-67.5 939,-67.5"/>
<text text-anchor="middle" x="988.5" y="-74.5" font-family="Helvetica,sans-Serif" font-size="10.00">OMSimLogger.hh</text>
</a>
</g>
</g>
<!-- Node6&#45;&gt;Node7 -->
<g id="edge6" class="edge">
<title>Node6&#45;&gt;Node7</title>
<path fill="none" stroke="midnightblue" d="M639.38,-124.32C716.15,-114.14 850.97,-96.25 928.7,-85.93"/>
<polygon fill="midnightblue" stroke="midnightblue" points="929.36,-89.38 938.81,-84.59 928.44,-82.44 929.36,-89.38"/>
</g>
<!-- Node13 -->
<g id="node10" class="node">
<title>Node13</title>
<g id="a_node10"><a xlink:title=" ">
<polygon fill="white" stroke="#bfbfbf" points="565,-67.5 565,-86.5 684,-86.5 684,-67.5 565,-67.5"/>
<text text-anchor="middle" x="624.5" y="-74.5" font-family="Helvetica,sans-Serif" font-size="10.00">G4SystemOfUnits.hh</text>
</a>
</g>
</g>
<!-- Node6&#45;&gt;Node13 -->
<g id="edge9" class="edge">
<title>Node6&#45;&gt;Node13</title>
<path fill="none" stroke="midnightblue" d="M588.6,-123.08C594.74,-115.38 603.77,-104.03 611.24,-94.65"/>
<polygon fill="midnightblue" stroke="midnightblue" points="614.04,-96.75 617.53,-86.75 608.56,-92.39 614.04,-96.75"/>
</g>
<!-- Node8 -->
<g id="node8" class="node">
<title>Node8</title>
<g id="a_node8"><a xlink:title=" ">
<polygon fill="white" stroke="#bfbfbf" points="882,-6 882,-25 975,-25 975,-6 882,-6"/>
<text text-anchor="middle" x="928.5" y="-13" font-family="Helvetica,sans-Serif" font-size="10.00">spdlog/spdlog.h</text>
</a>
</g>
</g>
<!-- Node7&#45;&gt;Node8 -->
<g id="edge7" class="edge">
<title>Node7&#45;&gt;Node8</title>
<path fill="none" stroke="midnightblue" d="M979.9,-67.48C970.64,-58.28 955.68,-43.46 944.29,-32.16"/>
<polygon fill="midnightblue" stroke="midnightblue" points="946.65,-29.57 937.08,-25.01 941.72,-34.54 946.65,-29.57"/>
</g>
<!-- Node9 -->
<g id="node9" class="node">
<title>Node9</title>
<g id="a_node9"><a xlink:title=" ">
<polygon fill="white" stroke="#bfbfbf" points="993,-0.5 993,-30.5 1104,-30.5 1104,-0.5 993,-0.5"/>
<text text-anchor="start" x="1001" y="-18.5" font-family="Helvetica,sans-Serif" font-size="10.00">spdlog/sinks/stdout</text>
<text text-anchor="middle" x="1048.5" y="-7.5" font-family="Helvetica,sans-Serif" font-size="10.00">_color_sinks.h</text>
</a>
</g>
</g>
<!-- Node7&#45;&gt;Node9 -->
<g id="edge8" class="edge">
<title>Node7&#45;&gt;Node9</title>
<path fill="none" stroke="midnightblue" d="M997.1,-67.48C1004.92,-59.72 1016.79,-47.94 1027.16,-37.66"/>
<polygon fill="midnightblue" stroke="midnightblue" points="1029.72,-40.05 1034.36,-30.52 1024.79,-35.08 1029.72,-40.05"/>
</g>
<!-- Node20 -->
<g id="node16" class="node">
<title>Node20</title>
<g id="a_node16"><a xlink:href="_o_m_sim_p_m_t_response_8hh.html" target="_top" xlink:title="Simulation of PMT response.">
<polygon fill="white" stroke="black" points="665,-179.5 665,-198.5 800,-198.5 800,-179.5 665,-179.5"/>
<text text-anchor="middle" x="732.5" y="-186.5" font-family="Helvetica,sans-Serif" font-size="10.00">OMSimPMTResponse.hh</text>
</a>
</g>
</g>
<!-- Node19&#45;&gt;Node20 -->
<g id="edge15" class="edge">
<title>Node19&#45;&gt;Node20</title>
<path fill="none" stroke="midnightblue" d="M771.74,-235.08C764.96,-227.3 754.96,-215.8 746.74,-206.37"/>
<polygon fill="midnightblue" stroke="midnightblue" points="749.32,-204 740.12,-198.75 744.04,-208.59 749.32,-204"/>
</g>
<!-- Node25 -->
<g id="node21" class="node">
<title>Node25</title>
<g id="a_node21"><a xlink:title=" ">
<polygon fill="white" stroke="#bfbfbf" points="818,-179.5 818,-198.5 921,-198.5 921,-179.5 818,-179.5"/>
<text text-anchor="middle" x="869.5" y="-186.5" font-family="Helvetica,sans-Serif" font-size="10.00">G4ThreeVector.hh</text>
</a>
</g>
</g>
<!-- Node19&#45;&gt;Node25 -->
<g id="edge21" class="edge">
<title>Node19&#45;&gt;Node25</title>
<path fill="none" stroke="midnightblue" d="M793.96,-235.32C808,-226.9 829.55,-213.97 846.04,-204.07"/>
<polygon fill="midnightblue" stroke="midnightblue" points="848.3,-206.8 855.08,-198.65 844.7,-200.8 848.3,-206.8"/>
</g>
<!-- Node26 -->
<g id="node22" class="node">
<title>Node26</title>
<g id="a_node22"><a xlink:title=" ">
<polygon fill="white" stroke="#bfbfbf" points="939,-179.5 939,-198.5 994,-198.5 994,-179.5 939,-179.5"/>
<text text-anchor="middle" x="966.5" y="-186.5" font-family="Helvetica,sans-Serif" font-size="10.00">fstream</text>
</a>
</g>
</g>
<!-- Node19&#45;&gt;Node26 -->
<g id="edge22" class="edge">
<title>Node19&#45;&gt;Node26</title>
<path fill="none" stroke="midnightblue" d="M809.13,-235.44C841.56,-226.08 893.63,-211.04 928.91,-200.85"/>
<polygon fill="midnightblue" stroke="midnightblue" points="930.2,-204.13 938.84,-197.99 928.26,-197.4 930.2,-204.13"/>
</g>
<!-- Node20&#45;&gt;Node13 -->
<g id="edge16" class="edge">
<title>Node20&#45;&gt;Node13</title>
<path fill="none" stroke="midnightblue" d="M723.59,-179.46C714.26,-170.48 699.22,-155.88 686.5,-143 670.17,-126.46 651.83,-107.14 639.37,-93.89"/>
<polygon fill="midnightblue" stroke="midnightblue" points="641.83,-91.4 632.43,-86.5 636.72,-96.19 641.83,-91.4"/>
</g>
<!-- Node21 -->
<g id="node17" class="node">
<title>Node21</title>
<g id="a_node17"><a xlink:title=" ">
<polygon fill="white" stroke="#bfbfbf" points="696,-123.5 696,-142.5 769,-142.5 769,-123.5 696,-123.5"/>
<text text-anchor="middle" x="732.5" y="-130.5" font-family="Helvetica,sans-Serif" font-size="10.00">G4Types.hh</text>
</a>
</g>
</g>
<!-- Node20&#45;&gt;Node21 -->
<g id="edge17" class="edge">
<title>Node20&#45;&gt;Node21</title>
<path fill="none" stroke="midnightblue" d="M732.5,-179.08C732.5,-172.01 732.5,-161.86 732.5,-152.99"/>
<polygon fill="midnightblue" stroke="midnightblue" points="736,-152.75 732.5,-142.75 729,-152.75 736,-152.75"/>
</g>
<!-- Node22 -->
<g id="node18" class="node">
<title>Node22</title>
<g id="a_node18"><a xlink:title=" ">
<polygon fill="white" stroke="#bfbfbf" points="787.5,-123.5 787.5,-142.5 825.5,-142.5 825.5,-123.5 787.5,-123.5"/>
<text text-anchor="middle" x="806.5" y="-130.5" font-family="Helvetica,sans-Serif" font-size="10.00">map</text>
</a>
</g>
</g>
<!-- Node20&#45;&gt;Node22 -->
<g id="edge18" class="edge">
<title>Node20&#45;&gt;Node22</title>
<path fill="none" stroke="midnightblue" d="M744.39,-179.32C755.65,-171.11 772.79,-158.6 786.21,-148.81"/>
<polygon fill="midnightblue" stroke="midnightblue" points="788.38,-151.56 794.39,-142.83 784.25,-145.9 788.38,-151.56"/>
</g>
<!-- Node23 -->
<g id="node19" class="node">
<title>Node23</title>
<g id="a_node19"><a xlink:title=" ">
<polygon fill="white" stroke="#bfbfbf" points="844,-123.5 844,-142.5 905,-142.5 905,-123.5 844,-123.5"/>
<text text-anchor="middle" x="874.5" y="-130.5" font-family="Helvetica,sans-Serif" font-size="10.00">TGraph.h</text>
</a>
</g>
</g>
<!-- Node20&#45;&gt;Node23 -->
<g id="edge19" class="edge">
<title>Node20&#45;&gt;Node23</title>
<path fill="none" stroke="midnightblue" d="M755,-179.44C778.58,-170.48 815.82,-156.31 842.46,-146.18"/>
<polygon fill="midnightblue" stroke="midnightblue" points="844,-149.34 852.1,-142.52 841.51,-142.8 844,-149.34"/>
</g>
<!-- Node24 -->
<g id="node20" class="node">
<title>Node24</title>
<g id="a_node20"><a xlink:title=" ">
<polygon fill="white" stroke="#bfbfbf" points="923,-123.5 923,-142.5 976,-142.5 976,-123.5 923,-123.5"/>
<text text-anchor="middle" x="949.5" y="-130.5" font-family="Helvetica,sans-Serif" font-size="10.00">TH2D.h</text>
</a>
</g>
</g>
<!-- Node20&#45;&gt;Node24 -->
<g id="edge20" class="edge">
<title>Node20&#45;&gt;Node24</title>
<path fill="none" stroke="midnightblue" d="M766.87,-179.47C801.28,-170.92 856.04,-157.32 912.88,-143.15"/>
<polygon fill="midnightblue" stroke="midnightblue" points="913.91,-146.5 922.76,-140.69 912.21,-139.71 913.91,-146.5"/>
</g>
<!-- Node27&#45;&gt;Node5 -->
<g id="edge24" class="edge">
<title>Node27&#45;&gt;Node5</title>
<path fill="none" stroke="midnightblue" d="M489.32,-235.44C466.07,-226.48 429.35,-212.31 403.08,-202.18"/>
<polygon fill="midnightblue" stroke="midnightblue" points="404.17,-198.85 393.58,-198.52 401.65,-205.38 404.17,-198.85"/>
</g>
<!-- Node27&#45;&gt;Node20 -->
<g id="edge26" class="edge">
<title>Node27&#45;&gt;Node20</title>
<path fill="none" stroke="midnightblue" d="M546.52,-235.44C584.75,-226.1 646.07,-211.12 687.76,-200.93"/>
<polygon fill="midnightblue" stroke="midnightblue" points="688.76,-204.29 697.65,-198.52 687.1,-197.49 688.76,-204.29"/>
</g>
<!-- Node27&#45;&gt;Node27 -->
<g id="edge25" class="edge">
<title>Node27&#45;&gt;Node27</title>
<path fill="none" stroke="midnightblue" d="M550.95,-254.53C577.76,-257.31 604,-254.13 604,-245 604,-237.01 583.91,-233.58 560.93,-234.71"/>
<polygon fill="midnightblue" stroke="midnightblue" points="560.65,-231.22 550.95,-235.47 561.19,-238.2 560.65,-231.22"/>
</g>
<!-- Node28 -->
<g id="node24" class="node">
<title>Node28</title>
<g id="a_node24"><a xlink:title=" ">
<polygon fill="white" stroke="#bfbfbf" points="548.5,-179.5 548.5,-198.5 646.5,-198.5 646.5,-179.5 548.5,-179.5"/>
<text text-anchor="middle" x="597.5" y="-186.5" font-family="Helvetica,sans-Serif" font-size="10.00">G4UnionSolid.hh</text>
</a>
</g>
</g>
<!-- Node27&#45;&gt;Node28 -->
<g id="edge27" class="edge">
<title>Node27&#45;&gt;Node28</title>
<path fill="none" stroke="midnightblue" d="M525.32,-235.32C538.73,-226.9 559.32,-213.97 575.09,-204.07"/>
<polygon fill="midnightblue" stroke="midnightblue" points="577.11,-206.94 583.72,-198.65 573.39,-201.01 577.11,-206.94"/>
</g>
<!-- Node29 -->
<g id="node25" class="node">
<title>Node29</title>
<g id="a_node25"><a xlink:title=" ">
<polygon fill="white" stroke="#bfbfbf" points="463,-179.5 463,-198.5 530,-198.5 530,-179.5 463,-179.5"/>
<text text-anchor="middle" x="496.5" y="-186.5" font-family="Helvetica,sans-Serif" font-size="10.00">G4Tubs.hh</text>
</a>
</g>
</g>
<!-- Node27&#45;&gt;Node29 -->
<g id="edge28" class="edge">
<title>Node27&#45;&gt;Node29</title>
<path fill="none" stroke="midnightblue" d="M509.02,-235.08C507.01,-227.85 504.11,-217.41 501.61,-208.4"/>
<polygon fill="midnightblue" stroke="midnightblue" points="504.98,-207.45 498.93,-198.75 498.24,-209.32 504.98,-207.45"/>
</g>
<!-- Node35 -->
<g id="node31" class="node">
<title>Node35</title>
<g id="a_node31"><a xlink:title=" ">
<polygon fill="white" stroke="#bfbfbf" points="1626,-291.5 1626,-310.5 1743,-310.5 1743,-291.5 1626,-291.5"/>
<text text-anchor="middle" x="1684.5" y="-298.5" font-family="Helvetica,sans-Serif" font-size="10.00">G4UserRunAction.hh</text>
</a>
</g>
</g>
<!-- Node34&#45;&gt;Node35 -->
<g id="edge34" class="edge">
<title>Node34&#45;&gt;Node35</title>
<path fill="none" stroke="midnightblue" d="M2115.41,-348.08C2112.4,-347.71 2109.41,-347.34 2106.5,-347 1952.23,-328.82 1910.69,-329.52 1753.35,-311.19"/>
<polygon fill="midnightblue" stroke="midnightblue" points="1753.65,-307.7 1743.31,-310.01 1752.84,-314.65 1753.65,-307.7"/>
</g>
<!-- Node38 -->
<g id="node34" class="node">
<title>Node38</title>
<g id="a_node34"><a xlink:title=" ">
<polygon fill="white" stroke="#bfbfbf" points="873,-291.5 873,-310.5 1012,-310.5 1012,-291.5 873,-291.5"/>
<text text-anchor="middle" x="942.5" y="-298.5" font-family="Helvetica,sans-Serif" font-size="10.00">G4UserTrackingAction.hh</text>
</a>
</g>
</g>
<!-- Node37&#45;&gt;Node38 -->
<g id="edge37" class="edge">
<title>Node37&#45;&gt;Node38</title>
<path fill="none" stroke="midnightblue" d="M910.77,-347.08C916.14,-339.46 924.02,-328.26 930.58,-318.94"/>
<polygon fill="midnightblue" stroke="midnightblue" points="933.45,-320.94 936.34,-310.75 927.72,-316.91 933.45,-320.94"/>
</g>
<!-- Node40 -->
<g id="node36" class="node">
<title>Node40</title>
<g id="a_node36"><a xlink:title=" ">
<polygon fill="white" stroke="#bfbfbf" points="1030,-291.5 1030,-310.5 1171,-310.5 1171,-291.5 1030,-291.5"/>
<text text-anchor="middle" x="1100.5" y="-298.5" font-family="Helvetica,sans-Serif" font-size="10.00">G4UserSteppingAction.hh</text>
</a>
</g>
</g>
<!-- Node39&#45;&gt;Node40 -->
<g id="edge39" class="edge">
<title>Node39&#45;&gt;Node40</title>
<path fill="none" stroke="midnightblue" d="M1067.94,-347.08C1073.45,-339.46 1081.53,-328.26 1088.26,-318.94"/>
<polygon fill="midnightblue" stroke="midnightblue" points="1091.16,-320.91 1094.18,-310.75 1085.49,-316.81 1091.16,-320.91"/>
</g>
<!-- Node42 -->
<g id="node38" class="node">
<title>Node42</title>
<g id="a_node38"><a xlink:href="_o_m_sim_command_args_table_8hh.html" target="_top" xlink:title="Definition of the OMSimCommandArgsTable singleton class, which controls user args.">
<polygon fill="white" stroke="black" points="1416.5,-235.5 1416.5,-254.5 1580.5,-254.5 1580.5,-235.5 1416.5,-235.5"/>
<text text-anchor="middle" x="1498.5" y="-242.5" font-family="Helvetica,sans-Serif" font-size="10.00">OMSimCommandArgsTable.hh</text>
</a>
</g>
</g>
<!-- Node41&#45;&gt;Node42 -->
<g id="edge41" class="edge">
<title>Node41&#45;&gt;Node42</title>
<path fill="none" stroke="midnightblue" d="M1770.32,-291.44C1713.03,-281.87 1620.26,-266.36 1559.31,-256.17"/>
<polygon fill="midnightblue" stroke="midnightblue" points="1559.88,-252.71 1549.44,-254.52 1558.73,-259.62 1559.88,-252.71"/>
</g>
<!-- Node45 -->
<g id="node41" class="node">
<title>Node45</title>
<g id="a_node41"><a xlink:title=" ">
<polygon fill="white" stroke="#bfbfbf" points="1300.5,-235.5 1300.5,-254.5 1398.5,-254.5 1398.5,-235.5 1300.5,-235.5"/>
<text text-anchor="middle" x="1349.5" y="-242.5" font-family="Helvetica,sans-Serif" font-size="10.00">G4UImanager.hh</text>
</a>
</g>
</g>
<!-- Node41&#45;&gt;Node45 -->
<g id="edge46" class="edge">
<title>Node41&#45;&gt;Node45</title>
<path fill="none" stroke="midnightblue" d="M1760.8,-292.11C1757.66,-291.73 1754.54,-291.35 1751.5,-291 1602.09,-273.58 1561.67,-274.73 1408.76,-255.11"/>
<polygon fill="midnightblue" stroke="midnightblue" points="1408.89,-251.59 1398.52,-253.78 1407.99,-258.54 1408.89,-251.59"/>
</g>
<!-- Node42&#45;&gt;Node7 -->
<g id="edge42" class="edge">
<title>Node42&#45;&gt;Node7</title>
<path fill="none" stroke="midnightblue" d="M1472.15,-235.42C1387.35,-207.82 1121.32,-121.23 1024.33,-89.66"/>
<polygon fill="midnightblue" stroke="midnightblue" points="1025.28,-86.29 1014.69,-86.52 1023.11,-92.95 1025.28,-86.29"/>
</g>
<!-- Node42&#45;&gt;Node26 -->
<g id="edge43" class="edge">
<title>Node42&#45;&gt;Node26</title>
<path fill="none" stroke="midnightblue" d="M1416.25,-235.65C1299.22,-223.77 1089.38,-202.47 1004.09,-193.82"/>
<polygon fill="midnightblue" stroke="midnightblue" points="1004.39,-190.33 994.08,-192.8 1003.68,-197.29 1004.39,-190.33"/>
</g>
<!-- Node43 -->
<g id="node39" class="node">
<title>Node43</title>
<g id="a_node39"><a xlink:title=" ">
<polygon fill="white" stroke="#bfbfbf" points="1409.5,-179.5 1409.5,-198.5 1493.5,-198.5 1493.5,-179.5 1409.5,-179.5"/>
<text text-anchor="middle" x="1451.5" y="-186.5" font-family="Helvetica,sans-Serif" font-size="10.00">boost/any.hpp</text>
</a>
</g>
</g>
<!-- Node42&#45;&gt;Node43 -->
<g id="edge44" class="edge">
<title>Node42&#45;&gt;Node43</title>
<path fill="none" stroke="midnightblue" d="M1490.74,-235.08C1483.96,-227.3 1473.96,-215.8 1465.74,-206.37"/>
<polygon fill="midnightblue" stroke="midnightblue" points="1468.32,-204 1459.12,-198.75 1463.04,-208.59 1468.32,-204"/>
</g>
<!-- Node44 -->
<g id="node40" class="node">
<title>Node44</title>
<g id="a_node40"><a xlink:title=" ">
<polygon fill="white" stroke="#bfbfbf" points="1511.5,-179.5 1511.5,-198.5 1579.5,-198.5 1579.5,-179.5 1511.5,-179.5"/>
<text text-anchor="middle" x="1545.5" y="-186.5" font-family="Helvetica,sans-Serif" font-size="10.00">sys/time.h</text>
</a>
</g>
</g>
<!-- Node42&#45;&gt;Node44 -->
<g id="edge45" class="edge">
<title>Node42&#45;&gt;Node44</title>
<path fill="none" stroke="midnightblue" d="M1506.26,-235.08C1513.04,-227.3 1523.04,-215.8 1531.26,-206.37"/>
<polygon fill="midnightblue" stroke="midnightblue" points="1533.96,-208.59 1537.88,-198.75 1528.68,-204 1533.96,-208.59"/>
</g>
<!-- Node52 -->
<g id="node48" class="node">
<title>Node52</title>
<g id="a_node48"><a xlink:title=" ">
<polygon fill="white" stroke="#bfbfbf" points="2288,-347.5 2288,-366.5 2355,-366.5 2355,-347.5 2288,-347.5"/>
<text text-anchor="middle" x="2321.5" y="-354.5" font-family="Helvetica,sans-Serif" font-size="10.00">globals.hh</text>
</a>
</g>
</g>
<!-- Node51&#45;&gt;Node52 -->
<g id="edge53" class="edge">
<title>Node51&#45;&gt;Node52</title>
<path fill="none" stroke="midnightblue" d="M2007.52,-404.23C2074.11,-395.92 2181.32,-381.92 2273.5,-367 2274.96,-366.76 2276.45,-366.52 2277.96,-366.26"/>
<polygon fill="midnightblue" stroke="midnightblue" points="2278.72,-369.68 2287.97,-364.51 2277.51,-362.79 2278.72,-369.68"/>
</g>
<!-- Node53&#45;&gt;Node19 -->
<g id="edge56" class="edge">
<title>Node53&#45;&gt;Node19</title>
<path fill="none" stroke="midnightblue" d="M768.65,-291.08C770.37,-283.93 772.85,-273.64 775,-264.69"/>
<polygon fill="midnightblue" stroke="midnightblue" points="778.46,-265.29 777.39,-254.75 771.65,-263.65 778.46,-265.29"/>
</g>
<!-- Node53&#45;&gt;Node20 -->
<g id="edge55" class="edge">
<title>Node53&#45;&gt;Node20</title>
<path fill="none" stroke="midnightblue" d="M748.11,-291.47C734.4,-284 716.69,-271.71 708.5,-255 700.76,-239.2 709.7,-220.24 718.78,-206.88"/>
<polygon fill="midnightblue" stroke="midnightblue" points="721.75,-208.76 724.89,-198.64 716.12,-204.59 721.75,-208.76"/>
</g>
<!-- Node53&#45;&gt;Node25 -->
<g id="edge57" class="edge">
<title>Node53&#45;&gt;Node25</title>
<path fill="none" stroke="midnightblue" d="M793.62,-291.44C811.83,-284.38 835.06,-272.63 849.5,-255 860.36,-241.74 865.34,-222.61 867.61,-208.54"/>
<polygon fill="midnightblue" stroke="midnightblue" points="871.09,-208.91 868.91,-198.54 864.15,-208.01 871.09,-208.91"/>
</g>
<!-- Node53&#45;&gt;Node26 -->
<g id="edge58" class="edge">
<title>Node53&#45;&gt;Node26</title>
<path fill="none" stroke="midnightblue" d="M789.15,-291.46C810.39,-283.14 842.8,-269.63 869.5,-255 897.43,-239.7 927.62,-218.7 946.77,-204.75"/>
<polygon fill="midnightblue" stroke="midnightblue" points="949,-207.46 954.98,-198.71 944.85,-201.82 949,-207.46"/>
</g>
<!-- Node54&#45;&gt;Node3 -->
<g id="edge60" class="edge">
<title>Node54&#45;&gt;Node3</title>
<path fill="none" stroke="midnightblue" d="M548.5,-403.08C548.5,-396.01 548.5,-385.86 548.5,-376.99"/>
<polygon fill="midnightblue" stroke="midnightblue" points="552,-376.75 548.5,-366.75 545,-376.75 552,-376.75"/>
</g>
</g>
</svg>
