<?xml version="1.0" encoding="UTF-8" standalone="no"?>
<!DOCTYPE svg PUBLIC "-//W3C//DTD SVG 1.1//EN"
 "http://www.w3.org/Graphics/SVG/1.1/DTD/svg11.dtd">
<!-- Generated by graphviz version 2.43.0 (0)
 -->
<!-- Title: OMSimHitManager.hh Pages: 1 -->
<svg width="2949pt" height="252pt"
 viewBox="0.00 0.00 2949.11 252.00" xmlns="http://www.w3.org/2000/svg" xmlns:xlink="http://www.w3.org/1999/xlink">
<g id="graph0" class="graph" transform="scale(1 1) rotate(0) translate(4 248)">
<title>OMSimHitManager.hh</title>
<polygon fill="white" stroke="transparent" points="-4,4 -4,-248 2945.11,-248 2945.11,4 -4,4"/>
<!-- Node1 -->
<g id="node1" class="node">
<title>Node1</title>
<g id="a_node1"><a xlink:title="Defines structures and classes related to optical module photon hit management.">
<polygon fill="#bfbfbf" stroke="black" points="1650.5,-224.5 1650.5,-243.5 1773.5,-243.5 1773.5,-224.5 1650.5,-224.5"/>
<text text-anchor="middle" x="1712" y="-231.5" font-family="Helvetica,sans-Serif" font-size="10.00">OMSimHitManager.hh</text>
</a>
</g>
</g>
<!-- Node2 -->
<g id="node2" class="node">
<title>Node2</title>
<g id="a_node2"><a xlink:href="_o_m_sim_hit_manager_8cc.html" target="_top" xlink:title=" ">
<polygon fill="white" stroke="black" points="111,-168.5 111,-187.5 233,-187.5 233,-168.5 111,-168.5"/>
<text text-anchor="middle" x="172" y="-175.5" font-family="Helvetica,sans-Serif" font-size="10.00">OMSimHitManager.cc</text>
</a>
</g>
</g>
<!-- Node1&#45;&gt;Node2 -->
<g id="edge1" class="edge">
<title>Node1&#45;&gt;Node2</title>
<path fill="none" stroke="midnightblue" d="M1640.13,-233.27C1426.67,-233.55 777.91,-230.55 242,-188 239.07,-187.77 236.07,-187.5 233.05,-187.2"/>
<polygon fill="midnightblue" stroke="midnightblue" points="1640.27,-236.77 1650.26,-233.26 1640.26,-229.77 1640.27,-236.77"/>
</g>
<!-- Node3 -->
<g id="node3" class="node">
<title>Node3</title>
<g id="a_node3"><a xlink:href="_o_m_sim_sensitive_detector_8cc.html" target="_top" xlink:title=" ">
<polygon fill="white" stroke="black" points="251,-168.5 251,-187.5 403,-187.5 403,-168.5 251,-168.5"/>
<text text-anchor="middle" x="327" y="-175.5" font-family="Helvetica,sans-Serif" font-size="10.00">OMSimSensitiveDetector.cc</text>
</a>
</g>
</g>
<!-- Node1&#45;&gt;Node3 -->
<g id="edge2" class="edge">
<title>Node1&#45;&gt;Node3</title>
<path fill="none" stroke="midnightblue" d="M1640.08,-232.14C1443.8,-229.43 882.55,-219.33 417,-188 412.46,-187.69 407.79,-187.34 403.08,-186.96"/>
<polygon fill="midnightblue" stroke="midnightblue" points="1640.21,-235.64 1650.26,-232.28 1640.31,-228.64 1640.21,-235.64"/>
</g>
<!-- Node4 -->
<g id="node4" class="node">
<title>Node4</title>
<g id="a_node4"><a xlink:href="_o_m_sim_optical_module_8hh.html" target="_top" xlink:title=" ">
<polygon fill="white" stroke="black" points="964.5,-168.5 964.5,-187.5 1101.5,-187.5 1101.5,-168.5 964.5,-168.5"/>
<text text-anchor="middle" x="1033" y="-175.5" font-family="Helvetica,sans-Serif" font-size="10.00">OMSimOpticalModule.hh</text>
</a>
</g>
</g>
<!-- Node1&#45;&gt;Node4 -->
<g id="edge3" class="edge">
<title>Node1&#45;&gt;Node4</title>
<path fill="none" stroke="midnightblue" d="M1640,-228.33C1527.9,-220.88 1304.88,-205.37 1116,-188 1111.38,-187.58 1106.62,-187.12 1101.83,-186.64"/>
<polygon fill="midnightblue" stroke="midnightblue" points="1639.96,-231.83 1650.17,-229 1640.42,-224.85 1639.96,-231.83"/>
</g>
<!-- Node7 -->
<g id="node7" class="node">
<title>Node7</title>
<g id="a_node7"><a xlink:href="_o_m_sim_detector_construction_8cc.html" target="_top" xlink:title=" ">
<polygon fill="white" stroke="black" points="424.5,-0.5 424.5,-19.5 593.5,-19.5 593.5,-0.5 424.5,-0.5"/>
<text text-anchor="middle" x="509" y="-7.5" font-family="Helvetica,sans-Serif" font-size="10.00">OMSimDetectorConstruction.cc</text>
</a>
</g>
</g>
<!-- Node1&#45;&gt;Node7 -->
<g id="edge58" class="edge">
<title>Node1&#45;&gt;Node7</title>
<path fill="none" stroke="midnightblue" d="M1640.46,-232.03C1452.93,-229.09 950.34,-218.52 787,-188 631.85,-159.01 542.34,-204 450,-76 434.31,-54.25 468.08,-31.68 490.72,-19.7"/>
<polygon fill="midnightblue" stroke="midnightblue" points="1640.44,-235.53 1650.49,-232.19 1640.55,-228.53 1640.44,-235.53"/>
</g>
<!-- Node8 -->
<g id="node8" class="node">
<title>Node8</title>
<g id="a_node8"><a xlink:href="_o_m_sim_effective_area_detector_8cc.html" target="_top" xlink:title=" ">
<polygon fill="white" stroke="black" points="729,-0.5 729,-19.5 901,-19.5 901,-0.5 729,-0.5"/>
<text text-anchor="middle" x="815" y="-7.5" font-family="Helvetica,sans-Serif" font-size="10.00">OMSimEffectiveAreaDetector.cc</text>
</a>
</g>
</g>
<!-- Node1&#45;&gt;Node8 -->
<g id="edge64" class="edge">
<title>Node1&#45;&gt;Node8</title>
<path fill="none" stroke="midnightblue" d="M1640.05,-231.34C1477.21,-227.17 1084.59,-214.61 955,-188 811.09,-158.45 728.47,-196.2 644,-76 638.89,-68.73 638.57,-63.04 644,-56 657.31,-38.74 708.46,-26.78 751.39,-19.55"/>
<polygon fill="midnightblue" stroke="midnightblue" points="1640.35,-234.85 1650.43,-231.61 1640.53,-227.86 1640.35,-234.85"/>
</g>
<!-- Node9 -->
<g id="node9" class="node">
<title>Node9</title>
<g id="a_node9"><a xlink:href="_o_m_sim_rad_decays_detector_8cc.html" target="_top" xlink:title=" ">
<polygon fill="white" stroke="black" points="1031.5,-0.5 1031.5,-19.5 1192.5,-19.5 1192.5,-0.5 1031.5,-0.5"/>
<text text-anchor="middle" x="1112" y="-7.5" font-family="Helvetica,sans-Serif" font-size="10.00">OMSimRadDecaysDetector.cc</text>
</a>
</g>
</g>
<!-- Node1&#45;&gt;Node9 -->
<g id="edge68" class="edge">
<title>Node1&#45;&gt;Node9</title>
<path fill="none" stroke="midnightblue" d="M1640.48,-229.99C1540.27,-223.29 1354.61,-201.68 1214,-132 1179.83,-115.07 1173.23,-105.44 1149,-76 1133.98,-57.75 1121.62,-32.6 1115.72,-19.58"/>
<polygon fill="midnightblue" stroke="midnightblue" points="1640.29,-233.49 1650.49,-230.63 1640.74,-226.5 1640.29,-233.49"/>
</g>
<!-- Node10 -->
<g id="node10" class="node">
<title>Node10</title>
<g id="a_node10"><a xlink:href="_o_m_sim_s_ndetector_8cc.html" target="_top" xlink:title=" ">
<polygon fill="white" stroke="black" points="1210.5,-0.5 1210.5,-19.5 1329.5,-19.5 1329.5,-0.5 1210.5,-0.5"/>
<text text-anchor="middle" x="1270" y="-7.5" font-family="Helvetica,sans-Serif" font-size="10.00">OMSimSNdetector.cc</text>
</a>
</g>
</g>
<!-- Node1&#45;&gt;Node10 -->
<g id="edge77" class="edge">
<title>Node1&#45;&gt;Node10</title>
<path fill="none" stroke="midnightblue" d="M1685.97,-219.62C1652.22,-201.73 1592.23,-168.08 1546,-132 1508.09,-102.42 1511.18,-79.08 1469,-56 1444.14,-42.4 1372.62,-28.22 1322.48,-19.5"/>
<polygon fill="midnightblue" stroke="midnightblue" points="1684.67,-222.89 1695.15,-224.44 1687.93,-216.69 1684.67,-222.89"/>
</g>
<!-- Node15 -->
<g id="node15" class="node">
<title>Node15</title>
<g id="a_node15"><a xlink:href="_o_m_sim__radioactive__decays_8cc.html" target="_top" xlink:title="Main of the radioactive decay study.">
<polygon fill="white" stroke="black" points="1693.5,-0.5 1693.5,-19.5 1858.5,-19.5 1858.5,-0.5 1693.5,-0.5"/>
<text text-anchor="middle" x="1776" y="-7.5" font-family="Helvetica,sans-Serif" font-size="10.00">OMSim_radioactive_decays.cc</text>
</a>
</g>
</g>
<!-- Node1&#45;&gt;Node15 -->
<g id="edge65" class="edge">
<title>Node1&#45;&gt;Node15</title>
<path fill="none" stroke="midnightblue" d="M1748.31,-221.16C1826.69,-194.78 2007.35,-129.34 2041,-76 2045.74,-68.48 2046.74,-62.79 2041,-56 2017.93,-28.68 1927.51,-17.94 1858.65,-13.73"/>
<polygon fill="midnightblue" stroke="midnightblue" points="1746.78,-217.98 1738.4,-224.47 1748.99,-224.62 1746.78,-217.98"/>
</g>
<!-- Node16 -->
<g id="node16" class="node">
<title>Node16</title>
<g id="a_node16"><a xlink:href="_o_m_sim__supernova_8cc.html" target="_top" xlink:title="Main of the supernova study.">
<polygon fill="white" stroke="black" points="2197,-0.5 2197,-19.5 2319,-19.5 2319,-0.5 2197,-0.5"/>
<text text-anchor="middle" x="2258" y="-7.5" font-family="Helvetica,sans-Serif" font-size="10.00">OMSim_supernova.cc</text>
</a>
</g>
</g>
<!-- Node1&#45;&gt;Node16 -->
<g id="edge75" class="edge">
<title>Node1&#45;&gt;Node16</title>
<path fill="none" stroke="midnightblue" d="M1783.95,-233.06C2035.32,-232.48 2862.91,-223.58 2933,-132 3009.52,-32.02 2498.88,-14.65 2319.03,-11.63"/>
<polygon fill="midnightblue" stroke="midnightblue" points="1783.83,-229.56 1773.83,-233.08 1783.84,-236.56 1783.83,-229.56"/>
</g>
<!-- Node31 -->
<g id="node31" class="node">
<title>Node31</title>
<g id="a_node31"><a xlink:href="_o_m_sim_optical_module_8cc.html" target="_top" xlink:title=" ">
<polygon fill="white" stroke="black" points="1363,-112.5 1363,-131.5 1499,-131.5 1499,-112.5 1363,-112.5"/>
<text text-anchor="middle" x="1431" y="-119.5" font-family="Helvetica,sans-Serif" font-size="10.00">OMSimOpticalModule.cc</text>
</a>
</g>
</g>
<!-- Node1&#45;&gt;Node31 -->
<g id="edge59" class="edge">
<title>Node1&#45;&gt;Node31</title>
<path fill="none" stroke="midnightblue" d="M1640.23,-224.7C1601.2,-218.26 1552.89,-207.09 1513,-188 1482.52,-173.41 1453.04,-145.71 1439.2,-131.65"/>
<polygon fill="midnightblue" stroke="midnightblue" points="1640.04,-228.21 1650.46,-226.31 1641.13,-221.3 1640.04,-228.21"/>
</g>
<!-- Node34 -->
<g id="node34" class="node">
<title>Node34</title>
<g id="a_node34"><a xlink:href="_o_m_sim_effective_area_analyisis_8hh.html" target="_top" xlink:title=" ">
<polygon fill="white" stroke="black" points="1945,-168.5 1945,-187.5 2121,-187.5 2121,-168.5 1945,-168.5"/>
<text text-anchor="middle" x="2033" y="-175.5" font-family="Helvetica,sans-Serif" font-size="10.00">OMSimEffectiveAreaAnalyisis.hh</text>
</a>
</g>
</g>
<!-- Node1&#45;&gt;Node34 -->
<g id="edge60" class="edge">
<title>Node1&#45;&gt;Node34</title>
<path fill="none" stroke="midnightblue" d="M1773.06,-222.73C1833.72,-212.52 1925.65,-197.06 1982.37,-187.52"/>
<polygon fill="midnightblue" stroke="midnightblue" points="1772.14,-219.33 1762.86,-224.44 1773.31,-226.24 1772.14,-219.33"/>
</g>
<!-- Node35 -->
<g id="node35" class="node">
<title>Node35</title>
<g id="a_node35"><a xlink:href="_o_m_sim_effective_area_analyisis_8cc.html" target="_top" xlink:title=" ">
<polygon fill="white" stroke="black" points="2042.5,-112.5 2042.5,-131.5 2217.5,-131.5 2217.5,-112.5 2042.5,-112.5"/>
<text text-anchor="middle" x="2130" y="-119.5" font-family="Helvetica,sans-Serif" font-size="10.00">OMSimEffectiveAreaAnalyisis.cc</text>
</a>
</g>
</g>
<!-- Node1&#45;&gt;Node35 -->
<g id="edge63" class="edge">
<title>Node1&#45;&gt;Node35</title>
<path fill="none" stroke="midnightblue" d="M1783.78,-230.4C1897.19,-225.55 2107.34,-213.24 2130,-188 2143.87,-172.55 2137.8,-145.73 2133.29,-131.87"/>
<polygon fill="midnightblue" stroke="midnightblue" points="1783.63,-226.9 1773.79,-230.82 1783.92,-233.9 1783.63,-226.9"/>
</g>
<!-- Node36 -->
<g id="node36" class="node">
<title>Node36</title>
<g id="a_node36"><a xlink:href="_o_m_sim_decays_analysis_8cc.html" target="_top" xlink:title=" ">
<polygon fill="white" stroke="black" points="2381.5,-168.5 2381.5,-187.5 2524.5,-187.5 2524.5,-168.5 2381.5,-168.5"/>
<text text-anchor="middle" x="2453" y="-175.5" font-family="Helvetica,sans-Serif" font-size="10.00">OMSimDecaysAnalysis.cc</text>
</a>
</g>
</g>
<!-- Node1&#45;&gt;Node36 -->
<g id="edge66" class="edge">
<title>Node1&#45;&gt;Node36</title>
<path fill="none" stroke="midnightblue" d="M1784.23,-229.08C1905.71,-222.27 2158.59,-207.12 2372,-188 2375.1,-187.72 2378.27,-187.43 2381.46,-187.12"/>
<polygon fill="midnightblue" stroke="midnightblue" points="1783.73,-225.61 1773.94,-229.66 1784.12,-232.6 1783.73,-225.61"/>
</g>
<!-- Node37 -->
<g id="node37" class="node">
<title>Node37</title>
<g id="a_node37"><a xlink:href="radioactive__decays_2src_2_o_m_sim_event_action_8cc.html" target="_top" xlink:title=" ">
<polygon fill="white" stroke="black" points="2543,-168.5 2543,-187.5 2667,-187.5 2667,-168.5 2543,-168.5"/>
<text text-anchor="middle" x="2605" y="-175.5" font-family="Helvetica,sans-Serif" font-size="10.00">OMSimEventAction.cc</text>
</a>
</g>
</g>
<!-- Node1&#45;&gt;Node37 -->
<g id="edge67" class="edge">
<title>Node1&#45;&gt;Node37</title>
<path fill="none" stroke="midnightblue" d="M1784.11,-230.78C1927.29,-226 2257.49,-213.06 2534,-188 2536.85,-187.74 2539.75,-187.46 2542.69,-187.15"/>
<polygon fill="midnightblue" stroke="midnightblue" points="1783.6,-227.3 1773.72,-231.13 1783.83,-234.29 1783.6,-227.3"/>
</g>
<!-- Node38 -->
<g id="node38" class="node">
<title>Node38</title>
<g id="a_node38"><a xlink:href="_o_m_sim_s_n_analysis_8hh.html" target="_top" xlink:title=" ">
<polygon fill="white" stroke="black" points="2241,-168.5 2241,-187.5 2363,-187.5 2363,-168.5 2241,-168.5"/>
<text text-anchor="middle" x="2302" y="-175.5" font-family="Helvetica,sans-Serif" font-size="10.00">OMSimSNAnalysis.hh</text>
</a>
</g>
</g>
<!-- Node1&#45;&gt;Node38 -->
<g id="edge69" class="edge">
<title>Node1&#45;&gt;Node38</title>
<path fill="none" stroke="midnightblue" d="M1784.04,-226.41C1901.2,-215.68 2130.94,-194.66 2240.74,-184.61"/>
<polygon fill="midnightblue" stroke="midnightblue" points="1783.39,-222.95 1773.75,-227.35 1784.03,-229.92 1783.39,-222.95"/>
</g>
<!-- Node41 -->
<g id="node41" class="node">
<title>Node41</title>
<g id="a_node41"><a xlink:href="_o_m_sim_s_n_analysis_8cc.html" target="_top" xlink:title="Analyze data and write output files.">
<polygon fill="white" stroke="black" points="2804,-112.5 2804,-131.5 2924,-131.5 2924,-112.5 2804,-112.5"/>
<text text-anchor="middle" x="2864" y="-119.5" font-family="Helvetica,sans-Serif" font-size="10.00">OMSimSNAnalysis.cc</text>
</a>
</g>
</g>
<!-- Node1&#45;&gt;Node41 -->
<g id="edge76" class="edge">
<title>Node1&#45;&gt;Node41</title>
<path fill="none" stroke="midnightblue" d="M1783.86,-232.3C1977.17,-230 2505.16,-220.81 2676,-188 2739.93,-175.72 2811.64,-146.28 2845.02,-131.61"/>
<polygon fill="midnightblue" stroke="midnightblue" points="1783.77,-228.8 1773.81,-232.42 1783.85,-235.8 1783.77,-228.8"/>
</g>
<!-- Node5 -->
<g id="node5" class="node">
<title>Node5</title>
<g id="a_node5"><a xlink:href="_o_m_sim_d_e_g_g_8hh.html" target="_top" xlink:title="Construction of the DEGG class.">
<polygon fill="white" stroke="black" points="772.5,-56.5 772.5,-75.5 867.5,-75.5 867.5,-56.5 772.5,-56.5"/>
<text text-anchor="middle" x="820" y="-63.5" font-family="Helvetica,sans-Serif" font-size="10.00">OMSimDEGG.hh</text>
</a>
</g>
</g>
<!-- Node4&#45;&gt;Node5 -->
<g id="edge4" class="edge">
<title>Node4&#45;&gt;Node5</title>
<path fill="none" stroke="midnightblue" d="M1007.31,-163.73C963.07,-140.88 873.66,-94.71 836.64,-75.59"/>
<polygon fill="midnightblue" stroke="midnightblue" points="1005.8,-166.89 1016.29,-168.37 1009.01,-160.67 1005.8,-166.89"/>
</g>
<!-- Node11 -->
<g id="node11" class="node">
<title>Node11</title>
<g id="a_node11"><a xlink:href="_o_m_sim_detector_construction_8hh.html" target="_top" xlink:title=" ">
<polygon fill="white" stroke="black" points="1555,-112.5 1555,-131.5 1725,-131.5 1725,-112.5 1555,-112.5"/>
<text text-anchor="middle" x="1640" y="-119.5" font-family="Helvetica,sans-Serif" font-size="10.00">OMSimDetectorConstruction.hh</text>
</a>
</g>
</g>
<!-- Node4&#45;&gt;Node11 -->
<g id="edge10" class="edge">
<title>Node4&#45;&gt;Node11</title>
<path fill="none" stroke="midnightblue" d="M1111.83,-169.99C1226.15,-159.82 1437.14,-141.05 1554.89,-130.57"/>
<polygon fill="midnightblue" stroke="midnightblue" points="1111.4,-166.51 1101.74,-170.88 1112.02,-173.48 1111.4,-166.51"/>
</g>
<!-- Node19 -->
<g id="node19" class="node">
<title>Node19</title>
<g id="a_node19"><a xlink:href="_o_m_sim_rad_decays_detector_8hh.html" target="_top" xlink:title="Defines the OMSimRadDecaysDetector class for the radioactive decays simulation.">
<polygon fill="white" stroke="black" points="1158.5,-56.5 1158.5,-75.5 1321.5,-75.5 1321.5,-56.5 1158.5,-56.5"/>
<text text-anchor="middle" x="1240" y="-63.5" font-family="Helvetica,sans-Serif" font-size="10.00">OMSimRadDecaysDetector.hh</text>
</a>
</g>
</g>
<!-- Node4&#45;&gt;Node19 -->
<g id="edge57" class="edge">
<title>Node4&#45;&gt;Node19</title>
<path fill="none" stroke="midnightblue" d="M1058.23,-163.59C1101.33,-140.69 1187.93,-94.67 1223.83,-75.59"/>
<polygon fill="midnightblue" stroke="midnightblue" points="1056.43,-160.59 1049.24,-168.37 1059.72,-166.77 1056.43,-160.59"/>
</g>
<!-- Node21 -->
<g id="node21" class="node">
<title>Node21</title>
<g id="a_node21"><a xlink:href="_o_m_sim_l_o_m16_8hh.html" target="_top" xlink:title="Construction of LOM16.">
<polygon fill="white" stroke="black" points="653.5,-56.5 653.5,-75.5 754.5,-75.5 754.5,-56.5 653.5,-56.5"/>
<text text-anchor="middle" x="704" y="-63.5" font-family="Helvetica,sans-Serif" font-size="10.00">OMSimLOM16.hh</text>
</a>
</g>
</g>
<!-- Node4&#45;&gt;Node21 -->
<g id="edge27" class="edge">
<title>Node4&#45;&gt;Node21</title>
<path fill="none" stroke="midnightblue" d="M997.83,-165.24C931.26,-142.98 788.26,-95.17 729.75,-75.61"/>
<polygon fill="midnightblue" stroke="midnightblue" points="996.86,-168.61 1007.46,-168.46 999.08,-161.97 996.86,-168.61"/>
</g>
<!-- Node23 -->
<g id="node23" class="node">
<title>Node23</title>
<g id="a_node23"><a xlink:href="_o_m_sim_l_o_m18_8hh.html" target="_top" xlink:title="Construction of LOM18.">
<polygon fill="white" stroke="black" points="1000.5,-56.5 1000.5,-75.5 1101.5,-75.5 1101.5,-56.5 1000.5,-56.5"/>
<text text-anchor="middle" x="1051" y="-63.5" font-family="Helvetica,sans-Serif" font-size="10.00">OMSimLOM18.hh</text>
</a>
</g>
</g>
<!-- Node4&#45;&gt;Node23 -->
<g id="edge33" class="edge">
<title>Node4&#45;&gt;Node23</title>
<path fill="none" stroke="midnightblue" d="M1036.05,-158.35C1039.99,-134.25 1046.7,-93.31 1049.59,-75.59"/>
<polygon fill="midnightblue" stroke="midnightblue" points="1032.57,-157.93 1034.41,-168.37 1039.48,-159.06 1032.57,-157.93"/>
</g>
<!-- Node25 -->
<g id="node25" class="node">
<title>Node25</title>
<g id="a_node25"><a xlink:href="_o_m_sim_m_d_o_m_8hh.html" target="_top" xlink:title="Construction of mDOM.">
<polygon fill="white" stroke="black" points="459,-56.5 459,-75.5 559,-75.5 559,-56.5 459,-56.5"/>
<text text-anchor="middle" x="509" y="-63.5" font-family="Helvetica,sans-Serif" font-size="10.00">OMSimMDOM.hh</text>
</a>
</g>
</g>
<!-- Node4&#45;&gt;Node25 -->
<g id="edge39" class="edge">
<title>Node4&#45;&gt;Node25</title>
<path fill="none" stroke="midnightblue" d="M982.41,-166.38C878.79,-144.63 644.23,-95.39 549.66,-75.53"/>
<polygon fill="midnightblue" stroke="midnightblue" points="981.81,-169.83 992.32,-168.46 983.25,-162.98 981.81,-169.83"/>
</g>
<!-- Node29 -->
<g id="node29" class="node">
<title>Node29</title>
<g id="a_node29"><a xlink:href="_o_m_sim_p_d_o_m_8hh.html" target="_top" xlink:title="Implementation of the pDOM/Gen1 DOM class.">
<polygon fill="white" stroke="black" points="885.5,-56.5 885.5,-75.5 982.5,-75.5 982.5,-56.5 885.5,-56.5"/>
<text text-anchor="middle" x="934" y="-63.5" font-family="Helvetica,sans-Serif" font-size="10.00">OMSimPDOM.hh</text>
</a>
</g>
</g>
<!-- Node4&#45;&gt;Node29 -->
<g id="edge47" class="edge">
<title>Node4&#45;&gt;Node29</title>
<path fill="none" stroke="midnightblue" d="M1018.51,-160.9C997.22,-137.25 958.25,-93.95 941.73,-75.59"/>
<polygon fill="midnightblue" stroke="midnightblue" points="1015.94,-163.28 1025.23,-168.37 1021.14,-158.59 1015.94,-163.28"/>
</g>
<!-- Node4&#45;&gt;Node31 -->
<g id="edge53" class="edge">
<title>Node4&#45;&gt;Node31</title>
<path fill="none" stroke="midnightblue" d="M1106.39,-167.04C1181.56,-156.84 1297.18,-141.16 1368.23,-131.52"/>
<polygon fill="midnightblue" stroke="midnightblue" points="1105.5,-163.63 1096.06,-168.44 1106.44,-170.57 1105.5,-163.63"/>
</g>
<!-- Node32 -->
<g id="node32" class="node">
<title>Node32</title>
<g id="a_node32"><a xlink:href="_o_m_sim_decays_g_p_s_8hh.html" target="_top" xlink:title="Defines the IsotopeDecays class for the radioactive decays simulation.">
<polygon fill="white" stroke="black" points="1223,-112.5 1223,-131.5 1345,-131.5 1345,-112.5 1223,-112.5"/>
<text text-anchor="middle" x="1284" y="-119.5" font-family="Helvetica,sans-Serif" font-size="10.00">OMSimDecaysGPS.hh</text>
</a>
</g>
</g>
<!-- Node4&#45;&gt;Node32 -->
<g id="edge54" class="edge">
<title>Node4&#45;&gt;Node32</title>
<path fill="none" stroke="midnightblue" d="M1082.82,-166.28C1130.25,-156.08 1200.7,-140.92 1244.41,-131.52"/>
<polygon fill="midnightblue" stroke="midnightblue" points="1081.81,-162.92 1072.77,-168.44 1083.28,-169.76 1081.81,-162.92"/>
</g>
<!-- Node6 -->
<g id="node6" class="node">
<title>Node6</title>
<g id="a_node6"><a xlink:href="_o_m_sim_d_e_g_g_8cc.html" target="_top" xlink:title=" ">
<polygon fill="white" stroke="black" points="919,-0.5 919,-19.5 1013,-19.5 1013,-0.5 919,-0.5"/>
<text text-anchor="middle" x="966" y="-7.5" font-family="Helvetica,sans-Serif" font-size="10.00">OMSimDEGG.cc</text>
</a>
</g>
</g>
<!-- Node5&#45;&gt;Node6 -->
<g id="edge5" class="edge">
<title>Node5&#45;&gt;Node6</title>
<path fill="none" stroke="midnightblue" d="M852.7,-52.91C880.15,-42.75 918.67,-28.51 942.97,-19.52"/>
<polygon fill="midnightblue" stroke="midnightblue" points="851.3,-49.69 843.13,-56.44 853.73,-56.26 851.3,-49.69"/>
</g>
<!-- Node5&#45;&gt;Node7 -->
<g id="edge6" class="edge">
<title>Node5&#45;&gt;Node7</title>
<path fill="none" stroke="midnightblue" d="M762.57,-55.03C703.85,-44.83 613.61,-29.16 558.11,-19.53"/>
<polygon fill="midnightblue" stroke="midnightblue" points="761.98,-58.48 772.43,-56.74 763.17,-51.58 761.98,-58.48"/>
</g>
<!-- Node5&#45;&gt;Node8 -->
<g id="edge7" class="edge">
<title>Node5&#45;&gt;Node8</title>
<path fill="none" stroke="midnightblue" d="M818.25,-46.1C817.42,-37.14 816.47,-26.86 815.81,-19.75"/>
<polygon fill="midnightblue" stroke="midnightblue" points="814.77,-46.45 819.17,-56.08 821.74,-45.8 814.77,-46.45"/>
</g>
<!-- Node5&#45;&gt;Node9 -->
<g id="edge8" class="edge">
<title>Node5&#45;&gt;Node9</title>
<path fill="none" stroke="midnightblue" d="M876.23,-54.6C931.42,-44.4 1014.56,-29.02 1065.95,-19.52"/>
<polygon fill="midnightblue" stroke="midnightblue" points="875.47,-51.18 866.27,-56.44 876.74,-58.07 875.47,-51.18"/>
</g>
<!-- Node5&#45;&gt;Node10 -->
<g id="edge9" class="edge">
<title>Node5&#45;&gt;Node10</title>
<path fill="none" stroke="midnightblue" d="M877.73,-55.82C1021.71,-36.5 1059.96,-37.01 1201,-20 1204,-19.64 1207.07,-19.26 1210.17,-18.88"/>
<polygon fill="midnightblue" stroke="midnightblue" points="877.08,-52.37 867.64,-57.18 878.01,-59.31 877.08,-52.37"/>
</g>
<!-- Node11&#45;&gt;Node7 -->
<g id="edge16" class="edge">
<title>Node11&#45;&gt;Node7</title>
<path fill="none" stroke="midnightblue" d="M1544.53,-114.19C1532.24,-113.4 1519.83,-112.65 1508,-112 1316.12,-101.46 830.42,-122.65 644,-76 596.31,-64.07 545.45,-34.32 522.1,-19.57"/>
<polygon fill="midnightblue" stroke="midnightblue" points="1544.61,-117.7 1554.81,-114.86 1545.06,-110.72 1544.61,-117.7"/>
</g>
<!-- Node12 -->
<g id="node12" class="node">
<title>Node12</title>
<g id="a_node12"><a xlink:href="_o_m_sim_8hh.html" target="_top" xlink:title="Main simulation class for the Optical Module (OM) simulation. This file defines the OMSim class,...">
<polygon fill="white" stroke="black" points="2088.5,-56.5 2088.5,-75.5 2155.5,-75.5 2155.5,-56.5 2088.5,-56.5"/>
<text text-anchor="middle" x="2122" y="-63.5" font-family="Helvetica,sans-Serif" font-size="10.00">OMSim.hh</text>
</a>
</g>
</g>
<!-- Node11&#45;&gt;Node12 -->
<g id="edge11" class="edge">
<title>Node11&#45;&gt;Node12</title>
<path fill="none" stroke="midnightblue" d="M1726.33,-111.33C1834.33,-99.23 2014.08,-79.09 2088.33,-70.77"/>
<polygon fill="midnightblue" stroke="midnightblue" points="1725.66,-107.88 1716.11,-112.47 1726.44,-114.84 1725.66,-107.88"/>
</g>
<!-- Node17 -->
<g id="node17" class="node">
<title>Node17</title>
<g id="a_node17"><a xlink:href="_o_m_sim_p_m_t_construction_8cc.html" target="_top" xlink:title=" ">
<polygon fill="white" stroke="black" points="1555.5,-56.5 1555.5,-75.5 1702.5,-75.5 1702.5,-56.5 1555.5,-56.5"/>
<text text-anchor="middle" x="1629" y="-63.5" font-family="Helvetica,sans-Serif" font-size="10.00">OMSimPMTConstruction.cc</text>
</a>
</g>
</g>
<!-- Node11&#45;&gt;Node17 -->
<g id="edge17" class="edge">
<title>Node11&#45;&gt;Node17</title>
<path fill="none" stroke="midnightblue" d="M1636.15,-102.1C1634.32,-93.14 1632.23,-82.86 1630.78,-75.75"/>
<polygon fill="midnightblue" stroke="midnightblue" points="1632.76,-102.98 1638.18,-112.08 1639.62,-101.59 1632.76,-102.98"/>
</g>
<!-- Node18 -->
<g id="node18" class="node">
<title>Node18</title>
<g id="a_node18"><a xlink:href="_o_m_sim_effective_area_detector_8hh.html" target="_top" xlink:title="Defines the OMSimEffectiveAreaDetector class for effective area simulation detector construction.">
<polygon fill="white" stroke="black" points="1720.5,-56.5 1720.5,-75.5 1893.5,-75.5 1893.5,-56.5 1720.5,-56.5"/>
<text text-anchor="middle" x="1807" y="-63.5" font-family="Helvetica,sans-Serif" font-size="10.00">OMSimEffectiveAreaDetector.hh</text>
</a>
</g>
</g>
<!-- Node11&#45;&gt;Node18 -->
<g id="edge18" class="edge">
<title>Node11&#45;&gt;Node18</title>
<path fill="none" stroke="midnightblue" d="M1676.17,-109.3C1707.64,-99.13 1752.49,-84.62 1780.66,-75.52"/>
<polygon fill="midnightblue" stroke="midnightblue" points="1674.9,-106.04 1666.46,-112.44 1677.05,-112.7 1674.9,-106.04"/>
</g>
<!-- Node11&#45;&gt;Node19 -->
<g id="edge21" class="edge">
<title>Node11&#45;&gt;Node19</title>
<path fill="none" stroke="midnightblue" d="M1566.7,-111.1C1491.17,-100.91 1374.64,-85.18 1303.08,-75.52"/>
<polygon fill="midnightblue" stroke="midnightblue" points="1566.24,-114.57 1576.62,-112.44 1567.18,-107.64 1566.24,-114.57"/>
</g>
<!-- Node20 -->
<g id="node20" class="node">
<title>Node20</title>
<g id="a_node20"><a xlink:href="_o_m_sim_s_ndetector_8hh.html" target="_top" xlink:title=" ">
<polygon fill="white" stroke="black" points="1912,-56.5 1912,-75.5 2032,-75.5 2032,-56.5 1912,-56.5"/>
<text text-anchor="middle" x="1972" y="-63.5" font-family="Helvetica,sans-Serif" font-size="10.00">OMSimSNdetector.hh</text>
</a>
</g>
</g>
<!-- Node11&#45;&gt;Node20 -->
<g id="edge24" class="edge">
<title>Node11&#45;&gt;Node20</title>
<path fill="none" stroke="midnightblue" d="M1702.77,-110.79C1765.5,-100.59 1860.85,-85.08 1919.64,-75.52"/>
<polygon fill="midnightblue" stroke="midnightblue" points="1701.91,-107.38 1692.61,-112.44 1703.04,-114.29 1701.91,-107.38"/>
</g>
<!-- Node13 -->
<g id="node13" class="node">
<title>Node13</title>
<g id="a_node13"><a xlink:href="_o_m_sim_8cc.html" target="_top" xlink:title="Implementation of the OMSim class.">
<polygon fill="white" stroke="black" points="1955.5,-0.5 1955.5,-19.5 2020.5,-19.5 2020.5,-0.5 1955.5,-0.5"/>
<text text-anchor="middle" x="1988" y="-7.5" font-family="Helvetica,sans-Serif" font-size="10.00">OMSim.cc</text>
</a>
</g>
</g>
<!-- Node12&#45;&gt;Node13 -->
<g id="edge12" class="edge">
<title>Node12&#45;&gt;Node13</title>
<path fill="none" stroke="midnightblue" d="M2091.32,-52.64C2066.18,-42.5 2031.25,-28.43 2009.13,-19.52"/>
<polygon fill="midnightblue" stroke="midnightblue" points="2090.18,-55.95 2100.77,-56.44 2092.8,-49.46 2090.18,-55.95"/>
</g>
<!-- Node14 -->
<g id="node14" class="node">
<title>Node14</title>
<g id="a_node14"><a xlink:href="_o_m_sim__effective__area_8cc.html" target="_top" xlink:title="Main for the calculation of effective areas.">
<polygon fill="white" stroke="black" points="2039,-0.5 2039,-19.5 2179,-19.5 2179,-0.5 2039,-0.5"/>
<text text-anchor="middle" x="2109" y="-7.5" font-family="Helvetica,sans-Serif" font-size="10.00">OMSim_effective_area.cc</text>
</a>
</g>
</g>
<!-- Node12&#45;&gt;Node14 -->
<g id="edge13" class="edge">
<title>Node12&#45;&gt;Node14</title>
<path fill="none" stroke="midnightblue" d="M2117.45,-46.1C2115.29,-37.14 2112.82,-26.86 2111.11,-19.75"/>
<polygon fill="midnightblue" stroke="midnightblue" points="2114.11,-47.18 2119.85,-56.08 2120.92,-45.54 2114.11,-47.18"/>
</g>
<!-- Node12&#45;&gt;Node15 -->
<g id="edge14" class="edge">
<title>Node12&#45;&gt;Node15</title>
<path fill="none" stroke="midnightblue" d="M2078.45,-56.76C2076.95,-56.5 2075.46,-56.25 2074,-56 1991.97,-42.12 1896.88,-28.12 1836.6,-19.51"/>
<polygon fill="midnightblue" stroke="midnightblue" points="2078,-60.24 2088.46,-58.55 2079.23,-53.35 2078,-60.24"/>
</g>
<!-- Node12&#45;&gt;Node16 -->
<g id="edge15" class="edge">
<title>Node12&#45;&gt;Node16</title>
<path fill="none" stroke="midnightblue" d="M2153.13,-52.64C2178.66,-42.5 2214.11,-28.43 2236.55,-19.52"/>
<polygon fill="midnightblue" stroke="midnightblue" points="2151.55,-49.5 2143.55,-56.44 2154.14,-56.01 2151.55,-49.5"/>
</g>
<!-- Node18&#45;&gt;Node8 -->
<g id="edge20" class="edge">
<title>Node18&#45;&gt;Node8</title>
<path fill="none" stroke="midnightblue" d="M1710.32,-55.99C1353.8,-31.61 1262.2,-44.58 910,-20 907.11,-19.8 904.17,-19.58 901.2,-19.35"/>
<polygon fill="midnightblue" stroke="midnightblue" points="1710.19,-59.49 1720.41,-56.69 1710.67,-52.51 1710.19,-59.49"/>
</g>
<!-- Node18&#45;&gt;Node14 -->
<g id="edge19" class="edge">
<title>Node18&#45;&gt;Node14</title>
<path fill="none" stroke="midnightblue" d="M1864.8,-54.66C1921.88,-44.46 2008.12,-29.04 2061.37,-19.52"/>
<polygon fill="midnightblue" stroke="midnightblue" points="1864.08,-51.24 1854.85,-56.44 1865.31,-58.13 1864.08,-51.24"/>
</g>
<!-- Node19&#45;&gt;Node9 -->
<g id="edge23" class="edge">
<title>Node19&#45;&gt;Node9</title>
<path fill="none" stroke="midnightblue" d="M1210.38,-52.5C1186.38,-42.38 1153.22,-28.39 1132.19,-19.52"/>
<polygon fill="midnightblue" stroke="midnightblue" points="1209.14,-55.78 1219.72,-56.44 1211.86,-49.33 1209.14,-55.78"/>
</g>
<!-- Node19&#45;&gt;Node15 -->
<g id="edge22" class="edge">
<title>Node19&#45;&gt;Node15</title>
<path fill="none" stroke="midnightblue" d="M1331.95,-55.74C1433.58,-45.5 1595.8,-29.15 1693.48,-19.31"/>
<polygon fill="midnightblue" stroke="midnightblue" points="1331.3,-52.28 1321.7,-56.77 1332,-59.25 1331.3,-52.28"/>
</g>
<!-- Node20&#45;&gt;Node10 -->
<g id="edge26" class="edge">
<title>Node20&#45;&gt;Node10</title>
<path fill="none" stroke="midnightblue" d="M1901.66,-55.94C1650.83,-32.05 1585.12,-44.2 1338,-20 1335.27,-19.73 1332.49,-19.44 1329.68,-19.13"/>
<polygon fill="midnightblue" stroke="midnightblue" points="1901.53,-59.44 1911.82,-56.91 1902.2,-52.47 1901.53,-59.44"/>
</g>
<!-- Node20&#45;&gt;Node16 -->
<g id="edge25" class="edge">
<title>Node20&#45;&gt;Node16</title>
<path fill="none" stroke="midnightblue" d="M2027.41,-54.54C2081.47,-44.33 2162.67,-29 2212.89,-19.52"/>
<polygon fill="midnightblue" stroke="midnightblue" points="2026.49,-51.15 2017.32,-56.44 2027.79,-58.03 2026.49,-51.15"/>
</g>
<!-- Node21&#45;&gt;Node7 -->
<g id="edge28" class="edge">
<title>Node21&#45;&gt;Node7</title>
<path fill="none" stroke="midnightblue" d="M663.19,-53.7C626.39,-43.51 573.07,-28.74 539.75,-19.52"/>
<polygon fill="midnightblue" stroke="midnightblue" points="662.53,-57.15 673.1,-56.44 664.4,-50.4 662.53,-57.15"/>
</g>
<!-- Node21&#45;&gt;Node8 -->
<g id="edge30" class="edge">
<title>Node21&#45;&gt;Node8</title>
<path fill="none" stroke="midnightblue" d="M731.01,-51.86C751.59,-41.85 779.34,-28.35 797.21,-19.65"/>
<polygon fill="midnightblue" stroke="midnightblue" points="729.3,-48.8 721.83,-56.32 732.36,-55.1 729.3,-48.8"/>
</g>
<!-- Node21&#45;&gt;Node9 -->
<g id="edge31" class="edge">
<title>Node21&#45;&gt;Node9</title>
<path fill="none" stroke="midnightblue" d="M764.7,-55.79C866.81,-41.49 973.84,-27.97 1042.08,-19.53"/>
<polygon fill="midnightblue" stroke="midnightblue" points="763.94,-52.36 754.52,-57.22 764.91,-59.29 763.94,-52.36"/>
</g>
<!-- Node21&#45;&gt;Node10 -->
<g id="edge32" class="edge">
<title>Node21&#45;&gt;Node10</title>
<path fill="none" stroke="midnightblue" d="M764.76,-55.86C958.69,-33.5 1009.99,-40.29 1201,-20 1204,-19.68 1207.08,-19.34 1210.18,-18.98"/>
<polygon fill="midnightblue" stroke="midnightblue" points="764.35,-52.39 754.82,-57.02 765.16,-59.34 764.35,-52.39"/>
</g>
<!-- Node22 -->
<g id="node22" class="node">
<title>Node22</title>
<g id="a_node22"><a xlink:href="_o_m_sim_l_o_m16_8cc.html" target="_top" xlink:title=" ">
<polygon fill="white" stroke="black" points="611.5,-0.5 611.5,-19.5 710.5,-19.5 710.5,-0.5 611.5,-0.5"/>
<text text-anchor="middle" x="661" y="-7.5" font-family="Helvetica,sans-Serif" font-size="10.00">OMSimLOM16.cc</text>
</a>
</g>
</g>
<!-- Node21&#45;&gt;Node22 -->
<g id="edge29" class="edge">
<title>Node21&#45;&gt;Node22</title>
<path fill="none" stroke="midnightblue" d="M690.58,-48.14C683.09,-38.74 674.06,-27.4 667.97,-19.75"/>
<polygon fill="midnightblue" stroke="midnightblue" points="687.93,-50.44 696.9,-56.08 693.41,-46.08 687.93,-50.44"/>
</g>
<!-- Node23&#45;&gt;Node7 -->
<g id="edge34" class="edge">
<title>Node23&#45;&gt;Node7</title>
<path fill="none" stroke="midnightblue" d="M990.32,-55.98C816.96,-35.15 771.65,-36.06 602,-20 599.25,-19.74 596.46,-19.48 593.65,-19.21"/>
<polygon fill="midnightblue" stroke="midnightblue" points="989.94,-59.46 1000.29,-57.19 990.78,-52.51 989.94,-59.46"/>
</g>
<!-- Node23&#45;&gt;Node8 -->
<g id="edge36" class="edge">
<title>Node23&#45;&gt;Node8</title>
<path fill="none" stroke="midnightblue" d="M1003.59,-54.15C959,-43.95 893.15,-28.88 852.22,-19.52"/>
<polygon fill="midnightblue" stroke="midnightblue" points="1003.08,-57.62 1013.61,-56.44 1004.64,-50.8 1003.08,-57.62"/>
</g>
<!-- Node23&#45;&gt;Node9 -->
<g id="edge37" class="edge">
<title>Node23&#45;&gt;Node9</title>
<path fill="none" stroke="midnightblue" d="M1068.47,-49.54C1079.34,-39.91 1092.94,-27.87 1102.02,-19.83"/>
<polygon fill="midnightblue" stroke="midnightblue" points="1065.97,-47.07 1060.8,-56.32 1070.61,-52.32 1065.97,-47.07"/>
</g>
<!-- Node23&#45;&gt;Node10 -->
<g id="edge38" class="edge">
<title>Node23&#45;&gt;Node10</title>
<path fill="none" stroke="midnightblue" d="M1095.51,-54.02C1136.88,-43.82 1197.64,-28.84 1235.46,-19.52"/>
<polygon fill="midnightblue" stroke="midnightblue" points="1094.57,-50.65 1085.7,-56.44 1096.25,-57.45 1094.57,-50.65"/>
</g>
<!-- Node24 -->
<g id="node24" class="node">
<title>Node24</title>
<g id="a_node24"><a xlink:href="_o_m_sim_l_o_m18_8cc.html" target="_top" xlink:title=" ">
<polygon fill="white" stroke="black" points="1460.5,-0.5 1460.5,-19.5 1559.5,-19.5 1559.5,-0.5 1460.5,-0.5"/>
<text text-anchor="middle" x="1510" y="-7.5" font-family="Helvetica,sans-Serif" font-size="10.00">OMSimLOM18.cc</text>
</a>
</g>
</g>
<!-- Node23&#45;&gt;Node24 -->
<g id="edge35" class="edge">
<title>Node23&#45;&gt;Node24</title>
<path fill="none" stroke="midnightblue" d="M1111.78,-58.91C1190.25,-50.88 1331,-35.9 1451,-20 1454.08,-19.59 1457.25,-19.16 1460.45,-18.7"/>
<polygon fill="midnightblue" stroke="midnightblue" points="1111.19,-55.46 1101.59,-59.95 1111.9,-62.42 1111.19,-55.46"/>
</g>
<!-- Node25&#45;&gt;Node7 -->
<g id="edge40" class="edge">
<title>Node25&#45;&gt;Node7</title>
<path fill="none" stroke="midnightblue" d="M509,-45.8C509,-36.91 509,-26.78 509,-19.75"/>
<polygon fill="midnightblue" stroke="midnightblue" points="505.5,-46.08 509,-56.08 512.5,-46.08 505.5,-46.08"/>
</g>
<!-- Node25&#45;&gt;Node8 -->
<g id="edge44" class="edge">
<title>Node25&#45;&gt;Node8</title>
<path fill="none" stroke="midnightblue" d="M567.57,-54.66C625.4,-44.46 712.78,-29.04 766.74,-19.52"/>
<polygon fill="midnightblue" stroke="midnightblue" points="566.73,-51.26 557.49,-56.44 567.94,-58.15 566.73,-51.26"/>
</g>
<!-- Node25&#45;&gt;Node9 -->
<g id="edge45" class="edge">
<title>Node25&#45;&gt;Node9</title>
<path fill="none" stroke="midnightblue" d="M569.35,-59.95C665.27,-51.86 858.39,-35.36 1022,-20 1024.97,-19.72 1028,-19.43 1031.05,-19.14"/>
<polygon fill="midnightblue" stroke="midnightblue" points="568.93,-56.47 559.26,-60.8 569.52,-63.44 568.93,-56.47"/>
</g>
<!-- Node25&#45;&gt;Node10 -->
<g id="edge46" class="edge">
<title>Node25&#45;&gt;Node10</title>
<path fill="none" stroke="midnightblue" d="M569.12,-60.97C592.5,-59.4 619.5,-57.61 644,-56 891.54,-39.75 954.1,-44.06 1201,-20 1204.01,-19.71 1207.08,-19.39 1210.19,-19.04"/>
<polygon fill="midnightblue" stroke="midnightblue" points="568.75,-57.48 559.01,-61.64 569.22,-64.47 568.75,-57.48"/>
</g>
<!-- Node26 -->
<g id="node26" class="node">
<title>Node26</title>
<g id="a_node26"><a xlink:href="_o_m_sim_m_d_o_m_8cc.html" target="_top" xlink:title=" ">
<polygon fill="white" stroke="black" points="0,-0.5 0,-19.5 98,-19.5 98,-0.5 0,-0.5"/>
<text text-anchor="middle" x="49" y="-7.5" font-family="Helvetica,sans-Serif" font-size="10.00">OMSimMDOM.cc</text>
</a>
</g>
</g>
<!-- Node25&#45;&gt;Node26 -->
<g id="edge41" class="edge">
<title>Node25&#45;&gt;Node26</title>
<path fill="none" stroke="midnightblue" d="M448.56,-59.04C369.82,-51.1 227.91,-36.14 107,-20 104.07,-19.61 101.06,-19.19 98.03,-18.76"/>
<polygon fill="midnightblue" stroke="midnightblue" points="448.48,-62.55 458.78,-60.07 449.18,-55.59 448.48,-62.55"/>
</g>
<!-- Node27 -->
<g id="node27" class="node">
<title>Node27</title>
<g id="a_node27"><a xlink:href="_o_m_sim_m_d_o_m_flasher_8cc.html" target="_top" xlink:title=" ">
<polygon fill="white" stroke="black" points="116,-0.5 116,-19.5 250,-19.5 250,-0.5 116,-0.5"/>
<text text-anchor="middle" x="183" y="-7.5" font-family="Helvetica,sans-Serif" font-size="10.00">OMSimMDOMFlasher.cc</text>
</a>
</g>
</g>
<!-- Node25&#45;&gt;Node27 -->
<g id="edge42" class="edge">
<title>Node25&#45;&gt;Node27</title>
<path fill="none" stroke="midnightblue" d="M448.81,-55.03C387.22,-44.83 292.53,-29.14 234.36,-19.51"/>
<polygon fill="midnightblue" stroke="midnightblue" points="448.34,-58.5 458.78,-56.68 449.48,-51.59 448.34,-58.5"/>
</g>
<!-- Node28 -->
<g id="node28" class="node">
<title>Node28</title>
<g id="a_node28"><a xlink:href="_o_m_sim_m_d_o_m_harness_8cc.html" target="_top" xlink:title=" ">
<polygon fill="white" stroke="black" points="268,-0.5 268,-19.5 406,-19.5 406,-0.5 268,-0.5"/>
<text text-anchor="middle" x="337" y="-7.5" font-family="Helvetica,sans-Serif" font-size="10.00">OMSimMDOMHarness.cc</text>
</a>
</g>
</g>
<!-- Node25&#45;&gt;Node28 -->
<g id="edge43" class="edge">
<title>Node25&#45;&gt;Node28</title>
<path fill="none" stroke="midnightblue" d="M472.17,-53.44C439.74,-43.26 393.26,-28.66 364.13,-19.52"/>
<polygon fill="midnightblue" stroke="midnightblue" points="471.16,-56.79 481.75,-56.44 473.25,-50.11 471.16,-56.79"/>
</g>
<!-- Node29&#45;&gt;Node7 -->
<g id="edge48" class="edge">
<title>Node29&#45;&gt;Node7</title>
<path fill="none" stroke="midnightblue" d="M875.27,-55.94C768.2,-41.17 656.3,-27.83 584.3,-19.52"/>
<polygon fill="midnightblue" stroke="midnightblue" points="874.9,-59.42 885.28,-57.32 875.86,-52.49 874.9,-59.42"/>
</g>
<!-- Node29&#45;&gt;Node8 -->
<g id="edge50" class="edge">
<title>Node29&#45;&gt;Node8</title>
<path fill="none" stroke="midnightblue" d="M905.86,-52.23C883.6,-42.13 853.14,-28.31 833.77,-19.52"/>
<polygon fill="midnightblue" stroke="midnightblue" points="904.59,-55.5 915.14,-56.44 907.48,-49.12 904.59,-55.5"/>
</g>
<!-- Node29&#45;&gt;Node9 -->
<g id="edge51" class="edge">
<title>Node29&#45;&gt;Node9</title>
<path fill="none" stroke="midnightblue" d="M972.12,-53.44C1005.68,-43.26 1053.77,-28.66 1083.93,-19.52"/>
<polygon fill="midnightblue" stroke="midnightblue" points="970.76,-50.19 962.2,-56.44 972.79,-56.89 970.76,-50.19"/>
</g>
<!-- Node29&#45;&gt;Node10 -->
<g id="edge52" class="edge">
<title>Node29&#45;&gt;Node10</title>
<path fill="none" stroke="midnightblue" d="M993.08,-55.5C1056.41,-45.33 1156.02,-29.32 1216.92,-19.53"/>
<polygon fill="midnightblue" stroke="midnightblue" points="992.18,-52.11 982.86,-57.15 993.29,-59.02 992.18,-52.11"/>
</g>
<!-- Node30 -->
<g id="node30" class="node">
<title>Node30</title>
<g id="a_node30"><a xlink:href="_o_m_sim_p_d_o_m_8cc.html" target="_top" xlink:title=" ">
<polygon fill="white" stroke="black" points="1347.5,-0.5 1347.5,-19.5 1442.5,-19.5 1442.5,-0.5 1347.5,-0.5"/>
<text text-anchor="middle" x="1395" y="-7.5" font-family="Helvetica,sans-Serif" font-size="10.00">OMSimPDOM.cc</text>
</a>
</g>
</g>
<!-- Node29&#45;&gt;Node30 -->
<g id="edge49" class="edge">
<title>Node29&#45;&gt;Node30</title>
<path fill="none" stroke="midnightblue" d="M993.06,-55.79C1146.49,-36.07 1187.56,-39.67 1338,-20 1341.08,-19.6 1344.25,-19.16 1347.44,-18.7"/>
<polygon fill="midnightblue" stroke="midnightblue" points="992.26,-52.36 982.79,-57.12 993.16,-59.3 992.26,-52.36"/>
</g>
<!-- Node32&#45;&gt;Node15 -->
<g id="edge55" class="edge">
<title>Node32&#45;&gt;Node15</title>
<path fill="none" stroke="midnightblue" d="M1329.95,-110.03C1367.42,-101.04 1421.68,-87.9 1469,-76 1503.29,-67.38 1511.52,-63.84 1546,-56 1608.49,-41.79 1681.14,-28.03 1727.8,-19.55"/>
<polygon fill="midnightblue" stroke="midnightblue" points="1328.76,-106.72 1319.85,-112.45 1330.39,-113.53 1328.76,-106.72"/>
</g>
<!-- Node33 -->
<g id="node33" class="node">
<title>Node33</title>
<g id="a_node33"><a xlink:href="_o_m_sim_decays_g_p_s_8cc.html" target="_top" xlink:title=" ">
<polygon fill="white" stroke="black" points="1339.5,-56.5 1339.5,-75.5 1460.5,-75.5 1460.5,-56.5 1339.5,-56.5"/>
<text text-anchor="middle" x="1400" y="-63.5" font-family="Helvetica,sans-Serif" font-size="10.00">OMSimDecaysGPS.cc</text>
</a>
</g>
</g>
<!-- Node32&#45;&gt;Node33 -->
<g id="edge56" class="edge">
<title>Node32&#45;&gt;Node33</title>
<path fill="none" stroke="midnightblue" d="M1311.72,-108.1C1333.39,-98.01 1362.9,-84.27 1381.71,-75.52"/>
<polygon fill="midnightblue" stroke="midnightblue" points="1309.97,-105.05 1302.38,-112.44 1312.92,-111.4 1309.97,-105.05"/>
</g>
<!-- Node34&#45;&gt;Node14 -->
<g id="edge61" class="edge">
<title>Node34&#45;&gt;Node14</title>
<path fill="none" stroke="midnightblue" d="M2027.76,-158.29C2024.99,-144.12 2023.97,-124.95 2034,-112 2070.97,-64.26 2128.4,-124.02 2165,-76 2181.07,-54.91 2147.72,-31.73 2125.9,-19.55"/>
<polygon fill="midnightblue" stroke="midnightblue" points="2024.44,-159.45 2030.18,-168.36 2031.25,-157.82 2024.44,-159.45"/>
</g>
<!-- Node34&#45;&gt;Node35 -->
<g id="edge62" class="edge">
<title>Node34&#45;&gt;Node35</title>
<path fill="none" stroke="midnightblue" d="M2057.34,-163.45C2075.24,-153.48 2099.05,-140.23 2114.45,-131.65"/>
<polygon fill="midnightblue" stroke="midnightblue" points="2055.62,-160.4 2048.58,-168.32 2059.02,-166.52 2055.62,-160.4"/>
</g>
<!-- Node38&#45;&gt;Node16 -->
<g id="edge70" class="edge">
<title>Node38&#45;&gt;Node16</title>
<path fill="none" stroke="midnightblue" d="M2285.2,-161.01C2277.96,-153.03 2270.19,-142.8 2266,-132 2250.61,-92.36 2254.52,-39.94 2256.86,-19.59"/>
<polygon fill="midnightblue" stroke="midnightblue" points="2282.92,-163.68 2292.4,-168.43 2287.95,-158.81 2282.92,-163.68"/>
</g>
<!-- Node39 -->
<g id="node39" class="node">
<title>Node39</title>
<g id="a_node39"><a xlink:href="supernova_2src_2_o_m_sim_event_action_8cc.html" target="_top" xlink:title=" ">
<polygon fill="white" stroke="black" points="2662,-112.5 2662,-131.5 2786,-131.5 2786,-112.5 2662,-112.5"/>
<text text-anchor="middle" x="2724" y="-119.5" font-family="Helvetica,sans-Serif" font-size="10.00">OMSimEventAction.cc</text>
</a>
</g>
</g>
<!-- Node38&#45;&gt;Node39 -->
<g id="edge71" class="edge">
<title>Node38&#45;&gt;Node39</title>
<path fill="none" stroke="midnightblue" d="M2373.23,-167.91C2444.34,-158.83 2556.73,-144.47 2654,-132 2656.55,-131.67 2659.16,-131.34 2661.79,-131"/>
<polygon fill="midnightblue" stroke="midnightblue" points="2372.52,-164.47 2363.05,-169.21 2373.41,-171.41 2372.52,-164.47"/>
</g>
<!-- Node40 -->
<g id="node40" class="node">
<title>Node40</title>
<g id="a_node40"><a xlink:href="supernova_2src_2_o_m_sim_primary_generator_action_8cc.html" target="_top" xlink:title=" ">
<polygon fill="white" stroke="black" points="2274.5,-112.5 2274.5,-131.5 2457.5,-131.5 2457.5,-112.5 2274.5,-112.5"/>
<text text-anchor="middle" x="2366" y="-119.5" font-family="Helvetica,sans-Serif" font-size="10.00">OMSimPrimaryGeneratorAction.cc</text>
</a>
</g>
</g>
<!-- Node38&#45;&gt;Node40 -->
<g id="edge72" class="edge">
<title>Node38&#45;&gt;Node40</title>
<path fill="none" stroke="midnightblue" d="M2319.99,-161.82C2331.46,-152.15 2345.91,-139.95 2355.53,-131.83"/>
<polygon fill="midnightblue" stroke="midnightblue" points="2317.67,-159.2 2312.28,-168.32 2322.18,-164.55 2317.67,-159.2"/>
</g>
<!-- Node38&#45;&gt;Node41 -->
<g id="edge73" class="edge">
<title>Node38&#45;&gt;Node41</title>
<path fill="none" stroke="midnightblue" d="M2373.14,-168.03C2561.86,-148.29 2611.05,-151.83 2795,-132 2797.88,-131.69 2800.83,-131.36 2803.81,-131.01"/>
<polygon fill="midnightblue" stroke="midnightblue" points="2372.75,-164.56 2363.17,-169.08 2373.48,-171.52 2372.75,-164.56"/>
</g>
<!-- Node42 -->
<g id="node42" class="node">
<title>Node42</title>
<g id="a_node42"><a xlink:href="_o_m_sim_s_n_particle_generators_8cc.html" target="_top" xlink:title=" ">
<polygon fill="white" stroke="black" points="2475.5,-112.5 2475.5,-131.5 2644.5,-131.5 2644.5,-112.5 2475.5,-112.5"/>
<text text-anchor="middle" x="2560" y="-119.5" font-family="Helvetica,sans-Serif" font-size="10.00">OMSimSNParticleGenerators.cc</text>
</a>
</g>
</g>
<!-- Node38&#45;&gt;Node42 -->
<g id="edge74" class="edge">
<title>Node38&#45;&gt;Node42</title>
<path fill="none" stroke="midnightblue" d="M2352.9,-166.35C2401.66,-156.14 2474.29,-140.94 2519.31,-131.52"/>
<polygon fill="midnightblue" stroke="midnightblue" points="2351.95,-162.97 2342.88,-168.44 2353.39,-169.82 2351.95,-162.97"/>
</g>
</g>
</svg>
