<?xml version="1.0" encoding="UTF-8" standalone="no"?>
<!DOCTYPE svg PUBLIC "-//W3C//DTD SVG 1.1//EN"
 "http://www.w3.org/Graphics/SVG/1.1/DTD/svg11.dtd">
<!-- Generated by graphviz version 2.43.0 (0)
 -->
<!-- Title: OMSimEffectiveAreaDetector.cc Pages: 1 -->
<svg width="1574pt" height="498pt"
 viewBox="0.00 0.00 1574.00 498.00" xmlns="http://www.w3.org/2000/svg" xmlns:xlink="http://www.w3.org/1999/xlink">
<g id="graph0" class="graph" transform="scale(1 1) rotate(0) translate(4 494)">
<title>OMSimEffectiveAreaDetector.cc</title>
<polygon fill="white" stroke="transparent" points="-4,4 -4,-494 1570,-494 1570,4 -4,4"/>
<!-- Node1 -->
<g id="node1" class="node">
<title>Node1</title>
<g id="a_node1"><a xlink:title=" ">
<polygon fill="#bfbfbf" stroke="black" points="763.5,-470.5 763.5,-489.5 935.5,-489.5 935.5,-470.5 763.5,-470.5"/>
<text text-anchor="middle" x="849.5" y="-477.5" font-family="Helvetica,sans-Serif" font-size="10.00">OMSimEffectiveAreaDetector.cc</text>
</a>
</g>
</g>
<!-- Node2 -->
<g id="node2" class="node">
<title>Node2</title>
<g id="a_node2"><a xlink:href="_o_m_sim_effective_area_detector_8hh.html" target="_top" xlink:title="Defines the OMSimEffectiveAreaDetector class for effective area simulation detector construction.">
<polygon fill="white" stroke="black" points="245,-414.5 245,-433.5 418,-433.5 418,-414.5 245,-414.5"/>
<text text-anchor="middle" x="331.5" y="-421.5" font-family="Helvetica,sans-Serif" font-size="10.00">OMSimEffectiveAreaDetector.hh</text>
</a>
</g>
</g>
<!-- Node1&#45;&gt;Node2 -->
<g id="edge1" class="edge">
<title>Node1&#45;&gt;Node2</title>
<path fill="none" stroke="midnightblue" d="M767.71,-470.47C674.09,-460.71 521.12,-444.77 423.45,-434.59"/>
<polygon fill="midnightblue" stroke="midnightblue" points="423.6,-431.08 413.29,-433.53 422.87,-438.04 423.6,-431.08"/>
</g>
<!-- Node19 -->
<g id="node19" class="node">
<title>Node19</title>
<g id="a_node19"><a xlink:href="_o_m_sim_hit_manager_8hh.html" target="_top" xlink:title="Defines structures and classes related to optical module photon hit management.">
<polygon fill="white" stroke="black" points="387,-246.5 387,-265.5 510,-265.5 510,-246.5 387,-246.5"/>
<text text-anchor="middle" x="448.5" y="-253.5" font-family="Helvetica,sans-Serif" font-size="10.00">OMSimHitManager.hh</text>
</a>
</g>
</g>
<!-- Node1&#45;&gt;Node19 -->
<g id="edge70" class="edge">
<title>Node1&#45;&gt;Node19</title>
<path fill="none" stroke="midnightblue" d="M780.76,-470.48C681.68,-456.68 506.21,-426.03 466.5,-378 442.45,-348.91 443.12,-301.9 445.77,-275.87"/>
<polygon fill="midnightblue" stroke="midnightblue" points="449.26,-276.17 447.01,-265.82 442.31,-275.31 449.26,-276.17"/>
</g>
<!-- Node25 -->
<g id="node25" class="node">
<title>Node25</title>
<g id="a_node25"><a xlink:href="_o_m_sim_sensitive_detector_8hh.html" target="_top" xlink:title=" ">
<polygon fill="white" stroke="black" points="96,-190.5 96,-209.5 249,-209.5 249,-190.5 96,-190.5"/>
<text text-anchor="middle" x="172.5" y="-197.5" font-family="Helvetica,sans-Serif" font-size="10.00">OMSimSensitiveDetector.hh</text>
</a>
</g>
</g>
<!-- Node1&#45;&gt;Node25 -->
<g id="edge69" class="edge">
<title>Node1&#45;&gt;Node25</title>
<path fill="none" stroke="midnightblue" d="M763.36,-479.34C613.4,-478.86 311.05,-472.91 213.5,-434 171.27,-417.15 134.5,-414.47 134.5,-369 134.5,-369 134.5,-369 134.5,-311 134.5,-276.81 151.1,-239.76 162.36,-218.57"/>
<polygon fill="midnightblue" stroke="midnightblue" points="165.45,-220.22 167.22,-209.77 159.32,-216.83 165.45,-220.22"/>
</g>
<!-- Node33 -->
<g id="node33" class="node">
<title>Node33</title>
<g id="a_node33"><a xlink:title=" ">
<polygon fill="white" stroke="#bfbfbf" points="162.5,-302.5 162.5,-321.5 224.5,-321.5 224.5,-302.5 162.5,-302.5"/>
<text text-anchor="middle" x="193.5" y="-309.5" font-family="Helvetica,sans-Serif" font-size="10.00">G4Orb.hh</text>
</a>
</g>
</g>
<!-- Node1&#45;&gt;Node33 -->
<g id="edge72" class="edge">
<title>Node1&#45;&gt;Node33</title>
<path fill="none" stroke="midnightblue" d="M763.22,-477.83C604.22,-474.91 277.39,-465.17 236.5,-434 204.39,-409.52 196.19,-359.11 194.14,-331.72"/>
<polygon fill="midnightblue" stroke="midnightblue" points="197.63,-331.32 193.59,-321.53 190.64,-331.7 197.63,-331.32"/>
</g>
<!-- Node35 -->
<g id="node35" class="node">
<title>Node35</title>
<g id="a_node35"><a xlink:href="_o_m_sim_p_d_o_m_8hh.html" target="_top" xlink:title="Implementation of the pDOM/Gen1 DOM class.">
<polygon fill="white" stroke="black" points="907,-358.5 907,-377.5 1004,-377.5 1004,-358.5 907,-358.5"/>
<text text-anchor="middle" x="955.5" y="-365.5" font-family="Helvetica,sans-Serif" font-size="10.00">OMSimPDOM.hh</text>
</a>
</g>
</g>
<!-- Node1&#45;&gt;Node35 -->
<g id="edge41" class="edge">
<title>Node1&#45;&gt;Node35</title>
<path fill="none" stroke="midnightblue" d="M853.92,-470.29C860.88,-457.1 875.4,-431.72 892.5,-414 904.07,-402.01 919.2,-391.09 931.73,-383"/>
<polygon fill="midnightblue" stroke="midnightblue" points="933.68,-385.91 940.31,-377.64 929.97,-379.97 933.68,-385.91"/>
</g>
<!-- Node36 -->
<g id="node36" class="node">
<title>Node36</title>
<g id="a_node36"><a xlink:href="_o_m_sim_l_o_m16_8hh.html" target="_top" xlink:title="Construction of LOM16.">
<polygon fill="white" stroke="black" points="1022,-358.5 1022,-377.5 1123,-377.5 1123,-358.5 1022,-358.5"/>
<text text-anchor="middle" x="1072.5" y="-365.5" font-family="Helvetica,sans-Serif" font-size="10.00">OMSimLOM16.hh</text>
</a>
</g>
</g>
<!-- Node1&#45;&gt;Node36 -->
<g id="edge44" class="edge">
<title>Node1&#45;&gt;Node36</title>
<path fill="none" stroke="midnightblue" d="M857.51,-470.12C870.49,-456.23 897.5,-429.38 925.5,-414 954.38,-398.14 989.59,-387.11 1018.31,-379.94"/>
<polygon fill="midnightblue" stroke="midnightblue" points="1019.27,-383.31 1028.17,-377.57 1017.63,-376.5 1019.27,-383.31"/>
</g>
<!-- Node37 -->
<g id="node37" class="node">
<title>Node37</title>
<g id="a_node37"><a xlink:href="_o_m_sim_l_o_m18_8hh.html" target="_top" xlink:title="Construction of LOM18.">
<polygon fill="white" stroke="black" points="694,-414.5 694,-433.5 795,-433.5 795,-414.5 694,-414.5"/>
<text text-anchor="middle" x="744.5" y="-421.5" font-family="Helvetica,sans-Serif" font-size="10.00">OMSimLOM18.hh</text>
</a>
</g>
</g>
<!-- Node1&#45;&gt;Node37 -->
<g id="edge47" class="edge">
<title>Node1&#45;&gt;Node37</title>
<path fill="none" stroke="midnightblue" d="M832.63,-470.32C815.79,-461.66 789.69,-448.24 770.26,-438.25"/>
<polygon fill="midnightblue" stroke="midnightblue" points="771.82,-435.12 761.33,-433.65 768.62,-441.34 771.82,-435.12"/>
</g>
<!-- Node38 -->
<g id="node38" class="node">
<title>Node38</title>
<g id="a_node38"><a xlink:title=" ">
<polygon fill="white" stroke="#bfbfbf" points="772.5,-358.5 772.5,-377.5 888.5,-377.5 888.5,-358.5 772.5,-358.5"/>
<text text-anchor="middle" x="830.5" y="-365.5" font-family="Helvetica,sans-Serif" font-size="10.00">G4LogicalVolume.hh</text>
</a>
</g>
</g>
<!-- Node1&#45;&gt;Node38 -->
<g id="edge56" class="edge">
<title>Node1&#45;&gt;Node38</title>
<path fill="none" stroke="midnightblue" d="M848.01,-470.37C844.94,-452.62 837.87,-411.67 833.71,-387.6"/>
<polygon fill="midnightblue" stroke="midnightblue" points="837.14,-386.85 831.98,-377.59 830.24,-388.04 837.14,-386.85"/>
</g>
<!-- Node40 -->
<g id="node40" class="node">
<title>Node40</title>
<g id="a_node40"><a xlink:href="_o_m_sim_d_e_g_g_8hh.html" target="_top" xlink:title="Construction of the DEGG class.">
<polygon fill="white" stroke="black" points="475,-358.5 475,-377.5 570,-377.5 570,-358.5 475,-358.5"/>
<text text-anchor="middle" x="522.5" y="-365.5" font-family="Helvetica,sans-Serif" font-size="10.00">OMSimDEGG.hh</text>
</a>
</g>
</g>
<!-- Node1&#45;&gt;Node40 -->
<g id="edge52" class="edge">
<title>Node1&#45;&gt;Node40</title>
<path fill="none" stroke="midnightblue" d="M813.97,-470.47C780.51,-462.15 729.17,-448.65 685.5,-434 637.6,-417.93 583.35,-395.4 551.09,-381.53"/>
<polygon fill="midnightblue" stroke="midnightblue" points="552.38,-378.27 541.81,-377.52 549.6,-384.7 552.38,-378.27"/>
</g>
<!-- Node41 -->
<g id="node41" class="node">
<title>Node41</title>
<g id="a_node41"><a xlink:title=" ">
<polygon fill="white" stroke="#bfbfbf" points="934.5,-414.5 934.5,-433.5 998.5,-433.5 998.5,-414.5 934.5,-414.5"/>
<text text-anchor="middle" x="966.5" y="-421.5" font-family="Helvetica,sans-Serif" font-size="10.00">G4Box.hh</text>
</a>
</g>
</g>
<!-- Node1&#45;&gt;Node41 -->
<g id="edge55" class="edge">
<title>Node1&#45;&gt;Node41</title>
<path fill="none" stroke="midnightblue" d="M868.04,-470.44C887.12,-461.64 917.07,-447.81 938.94,-437.72"/>
<polygon fill="midnightblue" stroke="midnightblue" points="940.43,-440.88 948.05,-433.52 937.5,-434.53 940.43,-440.88"/>
</g>
<!-- Node42 -->
<g id="node42" class="node">
<title>Node42</title>
<g id="a_node42"><a xlink:href="_o_m_sim_m_d_o_m_8hh.html" target="_top" xlink:title="Construction of mDOM.">
<polygon fill="white" stroke="black" points="1141.5,-358.5 1141.5,-377.5 1241.5,-377.5 1241.5,-358.5 1141.5,-358.5"/>
<text text-anchor="middle" x="1191.5" y="-365.5" font-family="Helvetica,sans-Serif" font-size="10.00">OMSimMDOM.hh</text>
</a>
</g>
</g>
<!-- Node1&#45;&gt;Node42 -->
<g id="edge57" class="edge">
<title>Node1&#45;&gt;Node42</title>
<path fill="none" stroke="midnightblue" d="M881.75,-470.44C913.81,-461.79 964.29,-447.77 1007.5,-434 1061.05,-416.93 1122.47,-394.69 1159.07,-381.14"/>
<polygon fill="midnightblue" stroke="midnightblue" points="1160.55,-384.33 1168.71,-377.57 1158.11,-377.77 1160.55,-384.33"/>
</g>
<!-- Node45 -->
<g id="node45" class="node">
<title>Node45</title>
<g id="a_node45"><a xlink:href="_o_m_sim_command_args_table_8hh.html" target="_top" xlink:title="Definition of the OMSimCommandArgsTable singleton class, which controls user args.">
<polygon fill="white" stroke="black" points="1187.5,-246.5 1187.5,-265.5 1351.5,-265.5 1351.5,-246.5 1187.5,-246.5"/>
<text text-anchor="middle" x="1269.5" y="-253.5" font-family="Helvetica,sans-Serif" font-size="10.00">OMSimCommandArgsTable.hh</text>
</a>
</g>
</g>
<!-- Node1&#45;&gt;Node45 -->
<g id="edge64" class="edge">
<title>Node1&#45;&gt;Node45</title>
<path fill="none" stroke="midnightblue" d="M922.31,-470.45C1025.72,-456.74 1207.39,-426.37 1250.5,-378 1275.77,-349.65 1275.03,-301.98 1272.27,-275.73"/>
<polygon fill="midnightblue" stroke="midnightblue" points="1275.72,-275.1 1270.99,-265.62 1268.77,-275.98 1275.72,-275.1"/>
</g>
<!-- Node48 -->
<g id="node48" class="node">
<title>Node48</title>
<g id="a_node48"><a xlink:title=" ">
<polygon fill="white" stroke="#bfbfbf" points="1298,-414.5 1298,-433.5 1399,-433.5 1399,-414.5 1298,-414.5"/>
<text text-anchor="middle" x="1348.5" y="-421.5" font-family="Helvetica,sans-Serif" font-size="10.00">G4SDManager.hh</text>
</a>
</g>
</g>
<!-- Node1&#45;&gt;Node48 -->
<g id="edge71" class="edge">
<title>Node1&#45;&gt;Node48</title>
<path fill="none" stroke="midnightblue" d="M935.65,-470.95C1023.29,-462.54 1162.99,-448.59 1283.5,-434 1284.8,-433.84 1286.12,-433.68 1287.45,-433.52"/>
<polygon fill="midnightblue" stroke="midnightblue" points="1288.3,-436.93 1297.78,-432.19 1287.42,-429.99 1288.3,-436.93"/>
</g>
<!-- Node49 -->
<g id="node49" class="node">
<title>Node49</title>
<g id="a_node49"><a xlink:title=" ">
<polygon fill="white" stroke="#bfbfbf" points="1417,-414.5 1417,-433.5 1566,-433.5 1566,-414.5 1417,-414.5"/>
<text text-anchor="middle" x="1491.5" y="-421.5" font-family="Helvetica,sans-Serif" font-size="10.00">G4LogicalBorderSurface.hh</text>
</a>
</g>
</g>
<!-- Node1&#45;&gt;Node49 -->
<g id="edge73" class="edge">
<title>Node1&#45;&gt;Node49</title>
<path fill="none" stroke="midnightblue" d="M935.75,-472.8C1043.52,-464.89 1233.87,-450.36 1406.8,-434.14"/>
<polygon fill="midnightblue" stroke="midnightblue" points="1407.23,-437.62 1416.85,-433.19 1406.57,-430.65 1407.23,-437.62"/>
</g>
<!-- Node3 -->
<g id="node3" class="node">
<title>Node3</title>
<g id="a_node3"><a xlink:href="_o_m_sim_detector_construction_8hh.html" target="_top" xlink:title=" ">
<polygon fill="white" stroke="black" points="246.5,-358.5 246.5,-377.5 416.5,-377.5 416.5,-358.5 246.5,-358.5"/>
<text text-anchor="middle" x="331.5" y="-365.5" font-family="Helvetica,sans-Serif" font-size="10.00">OMSimDetectorConstruction.hh</text>
</a>
</g>
</g>
<!-- Node2&#45;&gt;Node3 -->
<g id="edge2" class="edge">
<title>Node2&#45;&gt;Node3</title>
<path fill="none" stroke="midnightblue" d="M331.5,-414.08C331.5,-407.01 331.5,-396.86 331.5,-387.99"/>
<polygon fill="midnightblue" stroke="midnightblue" points="335,-387.75 331.5,-377.75 328,-387.75 335,-387.75"/>
</g>
<!-- Node4 -->
<g id="node4" class="node">
<title>Node4</title>
<g id="a_node4"><a xlink:href="_o_m_sim_optical_module_8hh.html" target="_top" xlink:title=" ">
<polygon fill="white" stroke="black" points="579,-302.5 579,-321.5 716,-321.5 716,-302.5 579,-302.5"/>
<text text-anchor="middle" x="647.5" y="-309.5" font-family="Helvetica,sans-Serif" font-size="10.00">OMSimOpticalModule.hh</text>
</a>
</g>
</g>
<!-- Node3&#45;&gt;Node4 -->
<g id="edge3" class="edge">
<title>Node3&#45;&gt;Node4</title>
<path fill="none" stroke="midnightblue" d="M381.57,-358.44C437.51,-348.89 528.01,-333.42 587.64,-323.23"/>
<polygon fill="midnightblue" stroke="midnightblue" points="588.4,-326.65 597.66,-321.52 587.22,-319.75 588.4,-326.65"/>
</g>
<!-- Node3&#45;&gt;Node33 -->
<g id="edge39" class="edge">
<title>Node3&#45;&gt;Node33</title>
<path fill="none" stroke="midnightblue" d="M309.63,-358.44C286.72,-349.48 250.52,-335.31 224.63,-325.18"/>
<polygon fill="midnightblue" stroke="midnightblue" points="225.85,-321.9 215.26,-321.52 223.3,-328.42 225.85,-321.9"/>
</g>
<!-- Node34 -->
<g id="node34" class="node">
<title>Node34</title>
<g id="a_node34"><a xlink:title=" ">
<polygon fill="white" stroke="#bfbfbf" points="242.5,-302.5 242.5,-321.5 420.5,-321.5 420.5,-302.5 242.5,-302.5"/>
<text text-anchor="middle" x="331.5" y="-309.5" font-family="Helvetica,sans-Serif" font-size="10.00">G4VUserDetectorConstruction.hh</text>
</a>
</g>
</g>
<!-- Node3&#45;&gt;Node34 -->
<g id="edge40" class="edge">
<title>Node3&#45;&gt;Node34</title>
<path fill="none" stroke="midnightblue" d="M331.5,-358.08C331.5,-351.01 331.5,-340.86 331.5,-331.99"/>
<polygon fill="midnightblue" stroke="midnightblue" points="335,-331.75 331.5,-321.75 328,-331.75 335,-331.75"/>
</g>
<!-- Node5 -->
<g id="node5" class="node">
<title>Node5</title>
<g id="a_node5"><a xlink:href="abc_detector_component_8hh.html" target="_top" xlink:title="Provides helper base class abcDetectorComponent for constructing and managing detector components in ...">
<polygon fill="white" stroke="black" points="649,-190.5 649,-209.5 796,-209.5 796,-190.5 649,-190.5"/>
<text text-anchor="middle" x="722.5" y="-197.5" font-family="Helvetica,sans-Serif" font-size="10.00">abcDetectorComponent.hh</text>
</a>
</g>
</g>
<!-- Node4&#45;&gt;Node5 -->
<g id="edge4" class="edge">
<title>Node4&#45;&gt;Node5</title>
<path fill="none" stroke="midnightblue" d="M653.39,-302.37C665.76,-284.22 694.68,-241.8 710.92,-217.99"/>
<polygon fill="midnightblue" stroke="midnightblue" points="713.9,-219.83 716.64,-209.59 708.12,-215.88 713.9,-219.83"/>
</g>
<!-- Node4&#45;&gt;Node19 -->
<g id="edge18" class="edge">
<title>Node4&#45;&gt;Node19</title>
<path fill="none" stroke="midnightblue" d="M615.97,-302.44C581.91,-293.2 527.49,-278.44 489.98,-268.26"/>
<polygon fill="midnightblue" stroke="midnightblue" points="490.45,-264.76 479.88,-265.52 488.62,-271.51 490.45,-264.76"/>
</g>
<!-- Node30 -->
<g id="node30" class="node">
<title>Node30</title>
<g id="a_node30"><a xlink:href="_o_m_sim_p_m_t_construction_8hh.html" target="_top" xlink:title="Construction of the PMTs.">
<polygon fill="white" stroke="black" points="743,-246.5 743,-265.5 892,-265.5 892,-246.5 743,-246.5"/>
<text text-anchor="middle" x="817.5" y="-253.5" font-family="Helvetica,sans-Serif" font-size="10.00">OMSimPMTConstruction.hh</text>
</a>
</g>
</g>
<!-- Node4&#45;&gt;Node30 -->
<g id="edge33" class="edge">
<title>Node4&#45;&gt;Node30</title>
<path fill="none" stroke="midnightblue" d="M674.44,-302.44C703.16,-293.32 748.83,-278.81 780.82,-268.65"/>
<polygon fill="midnightblue" stroke="midnightblue" points="782.22,-271.88 790.69,-265.52 780.1,-265.21 782.22,-271.88"/>
</g>
<!-- Node6 -->
<g id="node6" class="node">
<title>Node6</title>
<g id="a_node6"><a xlink:href="_o_m_sim_input_data_8hh.html" target="_top" xlink:title="Definition of ParameterTable and InputDataManager.">
<polygon fill="white" stroke="black" points="806,-134.5 806,-153.5 921,-153.5 921,-134.5 806,-134.5"/>
<text text-anchor="middle" x="863.5" y="-141.5" font-family="Helvetica,sans-Serif" font-size="10.00">OMSimInputData.hh</text>
</a>
</g>
</g>
<!-- Node5&#45;&gt;Node6 -->
<g id="edge5" class="edge">
<title>Node5&#45;&gt;Node6</title>
<path fill="none" stroke="midnightblue" d="M744.84,-190.44C768.25,-181.48 805.24,-167.31 831.69,-157.18"/>
<polygon fill="midnightblue" stroke="midnightblue" points="833.18,-160.36 841.26,-153.52 830.67,-153.82 833.18,-160.36"/>
</g>
<!-- Node15 -->
<g id="node15" class="node">
<title>Node15</title>
<g id="a_node15"><a xlink:title=" ">
<polygon fill="white" stroke="#bfbfbf" points="939,-134.5 939,-153.5 1046,-153.5 1046,-134.5 939,-134.5"/>
<text text-anchor="middle" x="992.5" y="-141.5" font-family="Helvetica,sans-Serif" font-size="10.00">G4Transform3D.hh</text>
</a>
</g>
</g>
<!-- Node5&#45;&gt;Node15 -->
<g id="edge14" class="edge">
<title>Node5&#45;&gt;Node15</title>
<path fill="none" stroke="midnightblue" d="M765.28,-190.44C812.68,-180.96 889.13,-165.67 940.08,-155.48"/>
<polygon fill="midnightblue" stroke="midnightblue" points="940.8,-158.91 949.92,-153.52 939.43,-152.05 940.8,-158.91"/>
</g>
<!-- Node16 -->
<g id="node16" class="node">
<title>Node16</title>
<g id="a_node16"><a xlink:title=" ">
<polygon fill="white" stroke="#bfbfbf" points="1064.5,-134.5 1064.5,-153.5 1172.5,-153.5 1172.5,-134.5 1064.5,-134.5"/>
<text text-anchor="middle" x="1118.5" y="-141.5" font-family="Helvetica,sans-Serif" font-size="10.00">G4VisAttributes.hh</text>
</a>
</g>
</g>
<!-- Node5&#45;&gt;Node16 -->
<g id="edge15" class="edge">
<title>Node5&#45;&gt;Node16</title>
<path fill="none" stroke="midnightblue" d="M786.67,-190.48C851.51,-181.83 954.89,-167.95 1054.01,-154.2"/>
<polygon fill="midnightblue" stroke="midnightblue" points="1054.78,-157.63 1064.21,-152.78 1053.82,-150.69 1054.78,-157.63"/>
</g>
<!-- Node17 -->
<g id="node17" class="node">
<title>Node17</title>
<g id="a_node17"><a xlink:title=" ">
<polygon fill="white" stroke="#bfbfbf" points="534,-134.5 534,-153.5 659,-153.5 659,-134.5 534,-134.5"/>
<text text-anchor="middle" x="596.5" y="-141.5" font-family="Helvetica,sans-Serif" font-size="10.00">G4SubtractionSolid.hh</text>
</a>
</g>
</g>
<!-- Node5&#45;&gt;Node17 -->
<g id="edge16" class="edge">
<title>Node5&#45;&gt;Node17</title>
<path fill="none" stroke="midnightblue" d="M702.53,-190.44C681.89,-181.6 649.44,-167.69 625.87,-157.59"/>
<polygon fill="midnightblue" stroke="midnightblue" points="626.94,-154.24 616.37,-153.52 624.18,-160.67 626.94,-154.24"/>
</g>
<!-- Node18 -->
<g id="node18" class="node">
<title>Node18</title>
<g id="a_node18"><a xlink:title=" ">
<polygon fill="white" stroke="#bfbfbf" points="677.5,-134.5 677.5,-153.5 787.5,-153.5 787.5,-134.5 677.5,-134.5"/>
<text text-anchor="middle" x="732.5" y="-141.5" font-family="Helvetica,sans-Serif" font-size="10.00">G4PVPlacement.hh</text>
</a>
</g>
</g>
<!-- Node5&#45;&gt;Node18 -->
<g id="edge17" class="edge">
<title>Node5&#45;&gt;Node18</title>
<path fill="none" stroke="midnightblue" d="M724.15,-190.08C725.48,-182.93 727.38,-172.64 729.04,-163.69"/>
<polygon fill="midnightblue" stroke="midnightblue" points="732.5,-164.22 730.88,-153.75 725.62,-162.95 732.5,-164.22"/>
</g>
<!-- Node7 -->
<g id="node7" class="node">
<title>Node7</title>
<g id="a_node7"><a xlink:href="_o_m_sim_logger_8hh.html" target="_top" xlink:title=" ">
<polygon fill="white" stroke="black" points="1077,-73 1077,-92 1176,-92 1176,-73 1077,-73"/>
<text text-anchor="middle" x="1126.5" y="-80" font-family="Helvetica,sans-Serif" font-size="10.00">OMSimLogger.hh</text>
</a>
</g>
</g>
<!-- Node6&#45;&gt;Node7 -->
<g id="edge6" class="edge">
<title>Node6&#45;&gt;Node7</title>
<path fill="none" stroke="midnightblue" d="M901.18,-134.48C948.05,-123.87 1028.11,-105.76 1079.1,-94.22"/>
<polygon fill="midnightblue" stroke="midnightblue" points="1079.91,-97.63 1088.89,-92.01 1078.36,-90.8 1079.91,-97.63"/>
</g>
<!-- Node12 -->
<g id="node12" class="node">
<title>Node12</title>
<g id="a_node12"><a xlink:title=" ">
<polygon fill="white" stroke="#bfbfbf" points="486,-73 486,-92 629,-92 629,-73 486,-73"/>
<text text-anchor="middle" x="557.5" y="-80" font-family="Helvetica,sans-Serif" font-size="10.00">G4OpBoundaryProcess.hh</text>
</a>
</g>
</g>
<!-- Node6&#45;&gt;Node12 -->
<g id="edge11" class="edge">
<title>Node6&#45;&gt;Node12</title>
<path fill="none" stroke="midnightblue" d="M819.66,-134.48C764.67,-123.78 670.43,-105.46 611.18,-93.94"/>
<polygon fill="midnightblue" stroke="midnightblue" points="611.75,-90.48 601.26,-92.01 610.41,-97.35 611.75,-90.48"/>
</g>
<!-- Node13 -->
<g id="node13" class="node">
<title>Node13</title>
<g id="a_node13"><a xlink:title=" ">
<polygon fill="white" stroke="#bfbfbf" points="726,-73 726,-92 845,-92 845,-73 726,-73"/>
<text text-anchor="middle" x="785.5" y="-80" font-family="Helvetica,sans-Serif" font-size="10.00">G4SystemOfUnits.hh</text>
</a>
</g>
</g>
<!-- Node6&#45;&gt;Node13 -->
<g id="edge12" class="edge">
<title>Node6&#45;&gt;Node13</title>
<path fill="none" stroke="midnightblue" d="M852.32,-134.48C839.93,-125.02 819.71,-109.6 804.75,-98.19"/>
<polygon fill="midnightblue" stroke="midnightblue" points="806.73,-95.29 796.65,-92.01 802.48,-100.86 806.73,-95.29"/>
</g>
<!-- Node14 -->
<g id="node14" class="node">
<title>Node14</title>
<g id="a_node14"><a xlink:title=" ">
<polygon fill="white" stroke="#bfbfbf" points="863,-67.5 863,-97.5 976,-97.5 976,-67.5 863,-67.5"/>
<text text-anchor="start" x="871" y="-85.5" font-family="Helvetica,sans-Serif" font-size="10.00">boost/property_tree</text>
<text text-anchor="middle" x="919.5" y="-74.5" font-family="Helvetica,sans-Serif" font-size="10.00">/json_parser.hpp</text>
</a>
</g>
</g>
<!-- Node6&#45;&gt;Node14 -->
<g id="edge13" class="edge">
<title>Node6&#45;&gt;Node14</title>
<path fill="none" stroke="midnightblue" d="M871.52,-134.48C878.75,-126.79 889.69,-115.17 899.3,-104.96"/>
<polygon fill="midnightblue" stroke="midnightblue" points="902,-107.2 906.3,-97.52 896.9,-102.41 902,-107.2"/>
</g>
<!-- Node8 -->
<g id="node8" class="node">
<title>Node8</title>
<g id="a_node8"><a xlink:title=" ">
<polygon fill="white" stroke="#bfbfbf" points="908,-6 908,-25 1001,-25 1001,-6 908,-6"/>
<text text-anchor="middle" x="954.5" y="-13" font-family="Helvetica,sans-Serif" font-size="10.00">spdlog/spdlog.h</text>
</a>
</g>
</g>
<!-- Node7&#45;&gt;Node8 -->
<g id="edge7" class="edge">
<title>Node7&#45;&gt;Node8</title>
<path fill="none" stroke="midnightblue" d="M1103.66,-72.87C1073.63,-61.52 1020.72,-41.52 986.66,-28.65"/>
<polygon fill="midnightblue" stroke="midnightblue" points="987.75,-25.32 977.16,-25.06 985.28,-31.87 987.75,-25.32"/>
</g>
<!-- Node9 -->
<g id="node9" class="node">
<title>Node9</title>
<g id="a_node9"><a xlink:title=" ">
<polygon fill="white" stroke="#bfbfbf" points="1019,-0.5 1019,-30.5 1130,-30.5 1130,-0.5 1019,-0.5"/>
<text text-anchor="start" x="1027" y="-18.5" font-family="Helvetica,sans-Serif" font-size="10.00">spdlog/sinks/stdout</text>
<text text-anchor="middle" x="1074.5" y="-7.5" font-family="Helvetica,sans-Serif" font-size="10.00">_color_sinks.h</text>
</a>
</g>
</g>
<!-- Node7&#45;&gt;Node9 -->
<g id="edge8" class="edge">
<title>Node7&#45;&gt;Node9</title>
<path fill="none" stroke="midnightblue" d="M1119.49,-72.73C1112.53,-64.03 1101.58,-50.34 1092.22,-38.65"/>
<polygon fill="midnightblue" stroke="midnightblue" points="1094.75,-36.21 1085.77,-30.59 1089.29,-40.58 1094.75,-36.21"/>
</g>
<!-- Node10 -->
<g id="node10" class="node">
<title>Node10</title>
<g id="a_node10"><a xlink:title=" ">
<polygon fill="white" stroke="#bfbfbf" points="1148.5,-6 1148.5,-25 1206.5,-25 1206.5,-6 1148.5,-6"/>
<text text-anchor="middle" x="1177.5" y="-13" font-family="Helvetica,sans-Serif" font-size="10.00">memory</text>
</a>
</g>
</g>
<!-- Node7&#45;&gt;Node10 -->
<g id="edge9" class="edge">
<title>Node7&#45;&gt;Node10</title>
<path fill="none" stroke="midnightblue" d="M1133.38,-72.73C1141.33,-62.6 1154.6,-45.69 1164.51,-33.06"/>
<polygon fill="midnightblue" stroke="midnightblue" points="1167.31,-35.16 1170.73,-25.13 1161.8,-30.83 1167.31,-35.16"/>
</g>
<!-- Node11 -->
<g id="node11" class="node">
<title>Node11</title>
<g id="a_node11"><a xlink:title=" ">
<polygon fill="white" stroke="#bfbfbf" points="1224.5,-6 1224.5,-25 1322.5,-25 1322.5,-6 1224.5,-6"/>
<text text-anchor="middle" x="1273.5" y="-13" font-family="Helvetica,sans-Serif" font-size="10.00">spdlog/fmt/fmt.h</text>
</a>
</g>
</g>
<!-- Node7&#45;&gt;Node11 -->
<g id="edge10" class="edge">
<title>Node7&#45;&gt;Node11</title>
<path fill="none" stroke="midnightblue" d="M1146.02,-72.87C1171.28,-61.7 1215.5,-42.15 1244.64,-29.26"/>
<polygon fill="midnightblue" stroke="midnightblue" points="1246.17,-32.41 1253.9,-25.17 1243.34,-26.01 1246.17,-32.41"/>
</g>
<!-- Node20 -->
<g id="node20" class="node">
<title>Node20</title>
<g id="a_node20"><a xlink:href="_o_m_sim_p_m_t_response_8hh.html" target="_top" xlink:title="Provides simulation for PMT response. This class is responsible for transforming hits on photocathode...">
<polygon fill="white" stroke="black" points="381,-134.5 381,-153.5 516,-153.5 516,-134.5 381,-134.5"/>
<text text-anchor="middle" x="448.5" y="-141.5" font-family="Helvetica,sans-Serif" font-size="10.00">OMSimPMTResponse.hh</text>
</a>
</g>
</g>
<!-- Node19&#45;&gt;Node20 -->
<g id="edge19" class="edge">
<title>Node19&#45;&gt;Node20</title>
<path fill="none" stroke="midnightblue" d="M448.5,-246.37C448.5,-228.62 448.5,-187.67 448.5,-163.6"/>
<polygon fill="midnightblue" stroke="midnightblue" points="452,-163.59 448.5,-153.59 445,-163.59 452,-163.59"/>
</g>
<!-- Node19&#45;&gt;Node25 -->
<g id="edge25" class="edge">
<title>Node19&#45;&gt;Node25</title>
<path fill="none" stroke="midnightblue" d="M404.77,-246.44C356.32,-236.96 278.17,-221.67 226.08,-211.48"/>
<polygon fill="midnightblue" stroke="midnightblue" points="226.51,-208 216.03,-209.52 225.17,-214.87 226.51,-208"/>
</g>
<!-- Node27 -->
<g id="node27" class="node">
<title>Node27</title>
<g id="a_node27"><a xlink:title=" ">
<polygon fill="white" stroke="#bfbfbf" points="260,-134.5 260,-153.5 363,-153.5 363,-134.5 260,-134.5"/>
<text text-anchor="middle" x="311.5" y="-141.5" font-family="Helvetica,sans-Serif" font-size="10.00">G4ThreeVector.hh</text>
</a>
</g>
</g>
<!-- Node19&#45;&gt;Node27 -->
<g id="edge31" class="edge">
<title>Node19&#45;&gt;Node27</title>
<path fill="none" stroke="midnightblue" d="M437.75,-246.37C414.54,-227.73 359.49,-183.53 330.35,-160.13"/>
<polygon fill="midnightblue" stroke="midnightblue" points="332.19,-157.12 322.2,-153.59 327.81,-162.58 332.19,-157.12"/>
</g>
<!-- Node29 -->
<g id="node29" class="node">
<title>Node29</title>
<g id="a_node29"><a xlink:title=" ">
<polygon fill="white" stroke="#bfbfbf" points="1016,-190.5 1016,-209.5 1071,-209.5 1071,-190.5 1016,-190.5"/>
<text text-anchor="middle" x="1043.5" y="-197.5" font-family="Helvetica,sans-Serif" font-size="10.00">fstream</text>
</a>
</g>
</g>
<!-- Node19&#45;&gt;Node29 -->
<g id="edge32" class="edge">
<title>Node19&#45;&gt;Node29</title>
<path fill="none" stroke="midnightblue" d="M510.4,-253.2C611.94,-249.55 820.29,-239.13 1005.78,-209.85"/>
<polygon fill="midnightblue" stroke="midnightblue" points="1006.39,-213.29 1015.72,-208.26 1005.29,-206.38 1006.39,-213.29"/>
</g>
<!-- Node20&#45;&gt;Node13 -->
<g id="edge20" class="edge">
<title>Node20&#45;&gt;Node13</title>
<path fill="none" stroke="midnightblue" d="M503.75,-134.49C558.22,-125.93 643.77,-112.02 717.5,-98 723.8,-96.8 730.42,-95.48 736.95,-94.13"/>
<polygon fill="midnightblue" stroke="midnightblue" points="738.01,-97.48 747.08,-92 736.58,-90.63 738.01,-97.48"/>
</g>
<!-- Node21 -->
<g id="node21" class="node">
<title>Node21</title>
<g id="a_node21"><a xlink:title=" ">
<polygon fill="white" stroke="#bfbfbf" points="338,-73 338,-92 411,-92 411,-73 338,-73"/>
<text text-anchor="middle" x="374.5" y="-80" font-family="Helvetica,sans-Serif" font-size="10.00">G4Types.hh</text>
</a>
</g>
</g>
<!-- Node20&#45;&gt;Node21 -->
<g id="edge21" class="edge">
<title>Node20&#45;&gt;Node21</title>
<path fill="none" stroke="midnightblue" d="M437.9,-134.48C426.25,-125.11 407.31,-109.88 393.17,-98.51"/>
<polygon fill="midnightblue" stroke="midnightblue" points="395.07,-95.55 385.08,-92.01 390.68,-101 395.07,-95.55"/>
</g>
<!-- Node22 -->
<g id="node22" class="node">
<title>Node22</title>
<g id="a_node22"><a xlink:title=" ">
<polygon fill="white" stroke="#bfbfbf" points="429.5,-73 429.5,-92 467.5,-92 467.5,-73 429.5,-73"/>
<text text-anchor="middle" x="448.5" y="-80" font-family="Helvetica,sans-Serif" font-size="10.00">map</text>
</a>
</g>
</g>
<!-- Node20&#45;&gt;Node22 -->
<g id="edge22" class="edge">
<title>Node20&#45;&gt;Node22</title>
<path fill="none" stroke="midnightblue" d="M448.5,-134.48C448.5,-126.08 448.5,-112.98 448.5,-102.16"/>
<polygon fill="midnightblue" stroke="midnightblue" points="452,-102.01 448.5,-92.01 445,-102.01 452,-102.01"/>
</g>
<!-- Node23 -->
<g id="node23" class="node">
<title>Node23</title>
<g id="a_node23"><a xlink:title=" ">
<polygon fill="white" stroke="#bfbfbf" points="647,-73 647,-92 708,-92 708,-73 647,-73"/>
<text text-anchor="middle" x="677.5" y="-80" font-family="Helvetica,sans-Serif" font-size="10.00">TGraph.h</text>
</a>
</g>
</g>
<!-- Node20&#45;&gt;Node23 -->
<g id="edge23" class="edge">
<title>Node20&#45;&gt;Node23</title>
<path fill="none" stroke="midnightblue" d="M491.16,-134.47C529.93,-126.35 588.54,-113.14 638.5,-98 641.07,-97.22 643.71,-96.36 646.36,-95.47"/>
<polygon fill="midnightblue" stroke="midnightblue" points="647.55,-98.76 655.8,-92.11 645.2,-92.16 647.55,-98.76"/>
</g>
<!-- Node24 -->
<g id="node24" class="node">
<title>Node24</title>
<g id="a_node24"><a xlink:title=" ">
<polygon fill="white" stroke="#bfbfbf" points="267,-73 267,-92 320,-92 320,-73 267,-73"/>
<text text-anchor="middle" x="293.5" y="-80" font-family="Helvetica,sans-Serif" font-size="10.00">TH2D.h</text>
</a>
</g>
</g>
<!-- Node20&#45;&gt;Node24 -->
<g id="edge24" class="edge">
<title>Node20&#45;&gt;Node24</title>
<path fill="none" stroke="midnightblue" d="M425.19,-134.35C401.15,-125.4 362.63,-110.93 329.5,-98 327.66,-97.28 325.78,-96.54 323.88,-95.79"/>
<polygon fill="midnightblue" stroke="midnightblue" points="324.99,-92.47 314.41,-92.01 322.4,-98.97 324.99,-92.47"/>
</g>
<!-- Node25&#45;&gt;Node12 -->
<g id="edge29" class="edge">
<title>Node25&#45;&gt;Node12</title>
<path fill="none" stroke="midnightblue" d="M147.78,-190.45C117.81,-178.81 73.74,-156.81 94.5,-134 123.2,-102.47 434.26,-103.76 476.5,-98 485.24,-96.81 494.48,-95.35 503.47,-93.82"/>
<polygon fill="midnightblue" stroke="midnightblue" points="504.22,-97.24 513.46,-92.07 503.01,-90.34 504.22,-97.24"/>
</g>
<!-- Node25&#45;&gt;Node20 -->
<g id="edge28" class="edge">
<title>Node25&#45;&gt;Node20</title>
<path fill="none" stroke="midnightblue" d="M216.23,-190.44C264.68,-180.96 342.83,-165.67 394.92,-155.48"/>
<polygon fill="midnightblue" stroke="midnightblue" points="395.83,-158.87 404.97,-153.52 394.49,-152 395.83,-158.87"/>
</g>
<!-- Node26 -->
<g id="node26" class="node">
<title>Node26</title>
<g id="a_node26"><a xlink:title=" ">
<polygon fill="white" stroke="#bfbfbf" points="103.5,-134.5 103.5,-153.5 241.5,-153.5 241.5,-134.5 103.5,-134.5"/>
<text text-anchor="middle" x="172.5" y="-141.5" font-family="Helvetica,sans-Serif" font-size="10.00">G4VSensitiveDetector.hh</text>
</a>
</g>
</g>
<!-- Node25&#45;&gt;Node26 -->
<g id="edge26" class="edge">
<title>Node25&#45;&gt;Node26</title>
<path fill="none" stroke="midnightblue" d="M172.5,-190.08C172.5,-183.01 172.5,-172.86 172.5,-163.99"/>
<polygon fill="midnightblue" stroke="midnightblue" points="176,-163.75 172.5,-153.75 169,-163.75 176,-163.75"/>
</g>
<!-- Node25&#45;&gt;Node27 -->
<g id="edge27" class="edge">
<title>Node25&#45;&gt;Node27</title>
<path fill="none" stroke="midnightblue" d="M194.52,-190.44C217.6,-181.48 254.06,-167.31 280.14,-157.18"/>
<polygon fill="midnightblue" stroke="midnightblue" points="281.52,-160.4 289.58,-153.52 278.99,-153.88 281.52,-160.4"/>
</g>
<!-- Node28 -->
<g id="node28" class="node">
<title>Node28</title>
<g id="a_node28"><a xlink:title=" ">
<polygon fill="white" stroke="#bfbfbf" points="0,-134.5 0,-153.5 47,-153.5 47,-134.5 0,-134.5"/>
<text text-anchor="middle" x="23.5" y="-141.5" font-family="Helvetica,sans-Serif" font-size="10.00">vector</text>
</a>
</g>
</g>
<!-- Node25&#45;&gt;Node28 -->
<g id="edge30" class="edge">
<title>Node25&#45;&gt;Node28</title>
<path fill="none" stroke="midnightblue" d="M148.89,-190.44C124.04,-181.44 84.73,-167.19 56.75,-157.05"/>
<polygon fill="midnightblue" stroke="midnightblue" points="57.59,-153.63 47,-153.52 55.21,-160.21 57.59,-153.63"/>
</g>
<!-- Node30&#45;&gt;Node5 -->
<g id="edge34" class="edge">
<title>Node30&#45;&gt;Node5</title>
<path fill="none" stroke="midnightblue" d="M802.24,-246.32C787.28,-237.82 764.25,-224.73 746.77,-214.8"/>
<polygon fill="midnightblue" stroke="midnightblue" points="748.15,-211.55 737.73,-209.65 744.69,-217.64 748.15,-211.55"/>
</g>
<!-- Node30&#45;&gt;Node20 -->
<g id="edge36" class="edge">
<title>Node30&#45;&gt;Node20</title>
<path fill="none" stroke="midnightblue" d="M780.32,-246.43C744.35,-237.94 688.39,-224.17 640.5,-210 584.12,-193.32 519.56,-170.73 481.5,-157.04"/>
<polygon fill="midnightblue" stroke="midnightblue" points="482.55,-153.7 471.96,-153.6 480.18,-160.29 482.55,-153.7"/>
</g>
<!-- Node30&#45;&gt;Node30 -->
<g id="edge35" class="edge">
<title>Node30&#45;&gt;Node30</title>
<path fill="none" stroke="midnightblue" d="M856.95,-265.53C883.76,-268.31 910,-265.13 910,-256 910,-248.01 889.91,-244.58 866.93,-245.71"/>
<polygon fill="midnightblue" stroke="midnightblue" points="866.65,-242.22 856.95,-246.47 867.19,-249.2 866.65,-242.22"/>
</g>
<!-- Node31 -->
<g id="node31" class="node">
<title>Node31</title>
<g id="a_node31"><a xlink:title=" ">
<polygon fill="white" stroke="#bfbfbf" points="899.5,-190.5 899.5,-209.5 997.5,-209.5 997.5,-190.5 899.5,-190.5"/>
<text text-anchor="middle" x="948.5" y="-197.5" font-family="Helvetica,sans-Serif" font-size="10.00">G4UnionSolid.hh</text>
</a>
</g>
</g>
<!-- Node30&#45;&gt;Node31 -->
<g id="edge37" class="edge">
<title>Node30&#45;&gt;Node31</title>
<path fill="none" stroke="midnightblue" d="M838.26,-246.44C859.82,-237.56 893.76,-223.56 918.29,-213.45"/>
<polygon fill="midnightblue" stroke="midnightblue" points="919.93,-216.56 927.84,-209.52 917.26,-210.09 919.93,-216.56"/>
</g>
<!-- Node32 -->
<g id="node32" class="node">
<title>Node32</title>
<g id="a_node32"><a xlink:title=" ">
<polygon fill="white" stroke="#bfbfbf" points="814,-190.5 814,-209.5 881,-209.5 881,-190.5 814,-190.5"/>
<text text-anchor="middle" x="847.5" y="-197.5" font-family="Helvetica,sans-Serif" font-size="10.00">G4Tubs.hh</text>
</a>
</g>
</g>
<!-- Node30&#45;&gt;Node32 -->
<g id="edge38" class="edge">
<title>Node30&#45;&gt;Node32</title>
<path fill="none" stroke="midnightblue" d="M822.45,-246.08C826.6,-238.61 832.65,-227.72 837.77,-218.52"/>
<polygon fill="midnightblue" stroke="midnightblue" points="840.84,-220.19 842.64,-209.75 834.72,-216.79 840.84,-220.19"/>
</g>
<!-- Node35&#45;&gt;Node4 -->
<g id="edge43" class="edge">
<title>Node35&#45;&gt;Node4</title>
<path fill="none" stroke="midnightblue" d="M906.7,-358.44C852.29,-348.9 764.33,-333.48 706.21,-323.29"/>
<polygon fill="midnightblue" stroke="midnightblue" points="706.53,-319.8 696.08,-321.52 705.32,-326.69 706.53,-319.8"/>
</g>
<!-- Node35&#45;&gt;Node30 -->
<g id="edge42" class="edge">
<title>Node35&#45;&gt;Node30</title>
<path fill="none" stroke="midnightblue" d="M944.67,-358.37C921.19,-339.65 865.36,-295.15 836.11,-271.83"/>
<polygon fill="midnightblue" stroke="midnightblue" points="838.28,-269.09 828.28,-265.59 833.92,-274.56 838.28,-269.09"/>
</g>
<!-- Node36&#45;&gt;Node4 -->
<g id="edge46" class="edge">
<title>Node36&#45;&gt;Node4</title>
<path fill="none" stroke="midnightblue" d="M1021.98,-359.2C1019.11,-358.78 1016.27,-358.38 1013.5,-358 914.62,-344.38 800.42,-330.66 726.24,-322.01"/>
<polygon fill="midnightblue" stroke="midnightblue" points="726.38,-318.5 716.04,-320.83 725.57,-325.46 726.38,-318.5"/>
</g>
<!-- Node36&#45;&gt;Node30 -->
<g id="edge45" class="edge">
<title>Node36&#45;&gt;Node30</title>
<path fill="none" stroke="midnightblue" d="M1052.49,-358.37C1007.71,-339.05 899.24,-292.26 846.82,-269.65"/>
<polygon fill="midnightblue" stroke="midnightblue" points="847.98,-266.34 837.42,-265.59 845.21,-272.77 847.98,-266.34"/>
</g>
<!-- Node37&#45;&gt;Node4 -->
<g id="edge49" class="edge">
<title>Node37&#45;&gt;Node4</title>
<path fill="none" stroke="midnightblue" d="M693.71,-418.61C666.64,-413.38 635.49,-402.11 618.5,-378 607.77,-362.78 619.73,-342.95 631.38,-329.21"/>
<polygon fill="midnightblue" stroke="midnightblue" points="634.22,-331.29 638.38,-321.55 629.05,-326.57 634.22,-331.29"/>
</g>
<!-- Node37&#45;&gt;Node30 -->
<g id="edge48" class="edge">
<title>Node37&#45;&gt;Node30</title>
<path fill="none" stroke="midnightblue" d="M746.41,-414.4C749.36,-401.77 755.5,-377.59 763.5,-358 775.98,-327.45 794.97,-294.06 806.79,-274.36"/>
<polygon fill="midnightblue" stroke="midnightblue" points="809.9,-275.98 812.1,-265.62 803.91,-272.35 809.9,-275.98"/>
</g>
<!-- Node37&#45;&gt;Node38 -->
<g id="edge50" class="edge">
<title>Node37&#45;&gt;Node38</title>
<path fill="none" stroke="midnightblue" d="M758.32,-414.32C771.73,-405.9 792.32,-392.97 808.09,-383.07"/>
<polygon fill="midnightblue" stroke="midnightblue" points="810.11,-385.94 816.72,-377.65 806.39,-380.01 810.11,-385.94"/>
</g>
<!-- Node39 -->
<g id="node39" class="node">
<title>Node39</title>
<g id="a_node39"><a xlink:title=" ">
<polygon fill="white" stroke="#bfbfbf" points="627,-358.5 627,-377.5 716,-377.5 716,-358.5 627,-358.5"/>
<text text-anchor="middle" x="671.5" y="-365.5" font-family="Helvetica,sans-Serif" font-size="10.00">G4Polycone.hh</text>
</a>
</g>
</g>
<!-- Node37&#45;&gt;Node39 -->
<g id="edge51" class="edge">
<title>Node37&#45;&gt;Node39</title>
<path fill="none" stroke="midnightblue" d="M732.77,-414.32C721.66,-406.11 704.76,-393.6 691.52,-383.81"/>
<polygon fill="midnightblue" stroke="midnightblue" points="693.56,-380.97 683.44,-377.83 689.4,-386.59 693.56,-380.97"/>
</g>
<!-- Node40&#45;&gt;Node4 -->
<g id="edge54" class="edge">
<title>Node40&#45;&gt;Node4</title>
<path fill="none" stroke="midnightblue" d="M542.31,-358.44C562.79,-349.6 594.98,-335.69 618.36,-325.59"/>
<polygon fill="midnightblue" stroke="midnightblue" points="619.99,-328.7 627.79,-321.52 617.22,-322.27 619.99,-328.7"/>
</g>
<!-- Node40&#45;&gt;Node30 -->
<g id="edge53" class="edge">
<title>Node40&#45;&gt;Node30</title>
<path fill="none" stroke="midnightblue" d="M526.34,-358.17C533.05,-343.86 548.36,-315.8 570.5,-302 597.22,-285.34 672.43,-273.16 732.9,-265.7"/>
<polygon fill="midnightblue" stroke="midnightblue" points="733.35,-269.17 742.86,-264.5 732.51,-262.22 733.35,-269.17"/>
</g>
<!-- Node42&#45;&gt;Node4 -->
<g id="edge63" class="edge">
<title>Node42&#45;&gt;Node4</title>
<path fill="none" stroke="midnightblue" d="M1141.32,-359.14C1138.34,-358.74 1135.38,-358.35 1132.5,-358 989.77,-340.51 822.65,-326.4 726.53,-318.9"/>
<polygon fill="midnightblue" stroke="midnightblue" points="726.55,-315.39 716.31,-318.1 726.01,-322.37 726.55,-315.39"/>
</g>
<!-- Node42&#45;&gt;Node30 -->
<g id="edge62" class="edge">
<title>Node42&#45;&gt;Node30</title>
<path fill="none" stroke="midnightblue" d="M1162.46,-358.46C1095.83,-338.86 931.9,-290.65 856.54,-268.48"/>
<polygon fill="midnightblue" stroke="midnightblue" points="857.1,-265 846.52,-265.53 855.12,-271.71 857.1,-265"/>
</g>
<!-- Node43 -->
<g id="node43" class="node">
<title>Node43</title>
<g id="a_node43"><a xlink:href="_o_m_sim_m_d_o_m_flasher_8hh.html" target="_top" xlink:title="Defines the mDOMFlasher class for simulating the 10 flashers in an mDOM optical module.">
<polygon fill="white" stroke="black" points="996,-246.5 996,-265.5 1131,-265.5 1131,-246.5 996,-246.5"/>
<text text-anchor="middle" x="1063.5" y="-253.5" font-family="Helvetica,sans-Serif" font-size="10.00">OMSimMDOMFlasher.hh</text>
</a>
</g>
</g>
<!-- Node42&#45;&gt;Node43 -->
<g id="edge58" class="edge">
<title>Node42&#45;&gt;Node43</title>
<path fill="none" stroke="midnightblue" d="M1181.46,-358.37C1159.77,-339.73 1108.34,-295.53 1081.11,-272.13"/>
<polygon fill="midnightblue" stroke="midnightblue" points="1083.36,-269.45 1073.5,-265.59 1078.8,-274.76 1083.36,-269.45"/>
</g>
<!-- Node43&#45;&gt;Node5 -->
<g id="edge59" class="edge">
<title>Node43&#45;&gt;Node5</title>
<path fill="none" stroke="midnightblue" d="M1009.47,-246.44C948.86,-236.85 850.64,-221.29 786.3,-211.1"/>
<polygon fill="midnightblue" stroke="midnightblue" points="786.7,-207.62 776.28,-209.52 785.61,-214.54 786.7,-207.62"/>
</g>
<!-- Node43&#45;&gt;Node31 -->
<g id="edge60" class="edge">
<title>Node43&#45;&gt;Node31</title>
<path fill="none" stroke="midnightblue" d="M1045.28,-246.44C1026.6,-237.68 997.34,-223.94 975.88,-213.86"/>
<polygon fill="midnightblue" stroke="midnightblue" points="977.18,-210.6 966.64,-209.52 974.2,-216.93 977.18,-210.6"/>
</g>
<!-- Node44 -->
<g id="node44" class="node">
<title>Node44</title>
<g id="a_node44"><a xlink:title=" ">
<polygon fill="white" stroke="#bfbfbf" points="1089.5,-190.5 1089.5,-209.5 1181.5,-209.5 1181.5,-190.5 1089.5,-190.5"/>
<text text-anchor="middle" x="1135.5" y="-197.5" font-family="Helvetica,sans-Serif" font-size="10.00">G4Navigator.hh</text>
</a>
</g>
</g>
<!-- Node43&#45;&gt;Node44 -->
<g id="edge61" class="edge">
<title>Node43&#45;&gt;Node44</title>
<path fill="none" stroke="midnightblue" d="M1075.07,-246.32C1085.92,-238.18 1102.38,-225.84 1115.38,-216.09"/>
<polygon fill="midnightblue" stroke="midnightblue" points="1117.82,-218.63 1123.72,-209.83 1113.62,-213.03 1117.82,-218.63"/>
</g>
<!-- Node45&#45;&gt;Node7 -->
<g id="edge65" class="edge">
<title>Node45&#45;&gt;Node7</title>
<path fill="none" stroke="midnightblue" d="M1260.82,-246.46C1252.15,-237.7 1238.69,-223.5 1228.5,-210 1204.58,-178.3 1206.81,-164.61 1181.5,-134 1170.7,-120.94 1156.6,-108.06 1145.37,-98.57"/>
<polygon fill="midnightblue" stroke="midnightblue" points="1147.39,-95.7 1137.46,-92.03 1142.94,-101.1 1147.39,-95.7"/>
</g>
<!-- Node45&#45;&gt;Node29 -->
<g id="edge66" class="edge">
<title>Node45&#45;&gt;Node29</title>
<path fill="none" stroke="midnightblue" d="M1233.25,-246.43C1197.21,-237.89 1140.05,-224.31 1081.22,-210.16"/>
<polygon fill="midnightblue" stroke="midnightblue" points="1081.92,-206.73 1071.38,-207.8 1080.28,-213.54 1081.92,-206.73"/>
</g>
<!-- Node46 -->
<g id="node46" class="node">
<title>Node46</title>
<g id="a_node46"><a xlink:title=" ">
<polygon fill="white" stroke="#bfbfbf" points="1237.5,-190.5 1237.5,-209.5 1321.5,-209.5 1321.5,-190.5 1237.5,-190.5"/>
<text text-anchor="middle" x="1279.5" y="-197.5" font-family="Helvetica,sans-Serif" font-size="10.00">boost/any.hpp</text>
</a>
</g>
</g>
<!-- Node45&#45;&gt;Node46 -->
<g id="edge67" class="edge">
<title>Node45&#45;&gt;Node46</title>
<path fill="none" stroke="midnightblue" d="M1271.15,-246.08C1272.48,-238.93 1274.38,-228.64 1276.04,-219.69"/>
<polygon fill="midnightblue" stroke="midnightblue" points="1279.5,-220.22 1277.88,-209.75 1272.62,-218.95 1279.5,-220.22"/>
</g>
<!-- Node47 -->
<g id="node47" class="node">
<title>Node47</title>
<g id="a_node47"><a xlink:title=" ">
<polygon fill="white" stroke="#bfbfbf" points="1339.5,-190.5 1339.5,-209.5 1407.5,-209.5 1407.5,-190.5 1339.5,-190.5"/>
<text text-anchor="middle" x="1373.5" y="-197.5" font-family="Helvetica,sans-Serif" font-size="10.00">sys/time.h</text>
</a>
</g>
</g>
<!-- Node45&#45;&gt;Node47 -->
<g id="edge68" class="edge">
<title>Node45&#45;&gt;Node47</title>
<path fill="none" stroke="midnightblue" d="M1286.21,-246.32C1302.81,-237.7 1328.5,-224.36 1347.72,-214.39"/>
<polygon fill="midnightblue" stroke="midnightblue" points="1349.57,-217.37 1356.83,-209.65 1346.34,-211.16 1349.57,-217.37"/>
</g>
</g>
</svg>
