<?xml version="1.0" encoding="UTF-8" standalone="no"?>
<!DOCTYPE svg PUBLIC "-//W3C//DTD SVG 1.1//EN"
 "http://www.w3.org/Graphics/SVG/1.1/DTD/svg11.dtd">
<!-- Generated by graphviz version 2.43.0 (0)
 -->
<!-- Title: OMSimInputData.hh Pages: 1 -->
<svg width="1458pt" height="357pt"
 viewBox="0.00 0.00 1457.50 357.00" xmlns="http://www.w3.org/2000/svg" xmlns:xlink="http://www.w3.org/1999/xlink">
<g id="graph0" class="graph" transform="scale(1 1) rotate(0) translate(4 353)">
<title>OMSimInputData.hh</title>
<!-- Node1 -->
<g id="Node000001" class="node">
<title>Node1</title>
<g id="a_Node000001"><a xlink:title="Definition of ParameterTable and OMSimInputData.">
<polygon fill="#999999" stroke="#666666" points="689,-349 574,-349 574,-330 689,-330 689,-349"/>
<text text-anchor="middle" x="631.5" y="-337" font-family="Helvetica,sans-Serif" font-size="10.00">OMSimInputData.hh</text>
</a>
</g>
</g>
<!-- Node2 -->
<g id="Node000002" class="node">
<title>Node2</title>
<g id="a_Node000002"><a xlink:href="_o_m_sim_detector_component_8hh.html" target="_top" xlink:title="Provides helper base class OMSimDetectorComponent for constructing and managing detector components i...">
<polygon fill="white" stroke="#666666" points="714,-294 549,-294 549,-275 714,-275 714,-294"/>
<text text-anchor="middle" x="631.5" y="-282" font-family="Helvetica,sans-Serif" font-size="10.00">OMSimDetectorComponent.hh</text>
</a>
</g>
</g>
<!-- Node1&#45;&gt;Node2 -->
<g id="edge1_Node000001_Node000002" class="edge">
<title>Node1&#45;&gt;Node2</title>
<g id="a_edge1_Node000001_Node000002"><a xlink:title=" ">
<path fill="none" stroke="#63b8ff" d="M631.5,-319.66C631.5,-310.93 631.5,-300.99 631.5,-294.09"/>
<polygon fill="#63b8ff" stroke="#63b8ff" points="628,-319.75 631.5,-329.75 635,-319.75 628,-319.75"/>
</a>
</g>
</g>
<!-- Node3 -->
<g id="Node000003" class="node">
<title>Node3</title>
<g id="a_Node000003"><a xlink:href="_o_m_sim_d_e_g_g_harness_8hh.html" target="_top" xlink:title="Construction of the DEGG harness.">
<polygon fill="white" stroke="#666666" points="135,-239 0,-239 0,-220 135,-220 135,-239"/>
<text text-anchor="middle" x="67.5" y="-227" font-family="Helvetica,sans-Serif" font-size="10.00">OMSimDEGGHarness.hh</text>
</a>
</g>
</g>
<!-- Node2&#45;&gt;Node3 -->
<g id="edge2_Node000002_Node000003" class="edge">
<title>Node2&#45;&gt;Node3</title>
<g id="a_edge2_Node000002_Node000003"><a xlink:title=" ">
<path fill="none" stroke="#63b8ff" d="M538.56,-275.53C440.52,-267 281.56,-252.83 144.5,-239 141.42,-238.69 138.28,-238.37 135.1,-238.03"/>
<polygon fill="#63b8ff" stroke="#63b8ff" points="538.47,-279.04 548.73,-276.41 539.07,-272.06 538.47,-279.04"/>
</a>
</g>
</g>
<!-- Node4 -->
<g id="Node000004" class="node">
<title>Node4</title>
<g id="a_Node000004"><a xlink:href="_o_m_sim_l_o_m16_harness_8hh.html" target="_top" xlink:title="Construction of the LOM16 harness.">
<polygon fill="white" stroke="#666666" points="293.5,-239 153.5,-239 153.5,-220 293.5,-220 293.5,-239"/>
<text text-anchor="middle" x="223.5" y="-227" font-family="Helvetica,sans-Serif" font-size="10.00">OMSimLOM16Harness.hh</text>
</a>
</g>
</g>
<!-- Node2&#45;&gt;Node4 -->
<g id="edge3_Node000002_Node000004" class="edge">
<title>Node2&#45;&gt;Node4</title>
<g id="a_edge3_Node000002_Node000004"><a xlink:title=" ">
<path fill="none" stroke="#63b8ff" d="M555.89,-273.68C479.31,-263.73 362.06,-248.5 289.23,-239.04"/>
<polygon fill="#63b8ff" stroke="#63b8ff" points="555.58,-277.17 565.95,-274.98 556.48,-270.23 555.58,-277.17"/>
</a>
</g>
</g>
<!-- Node5 -->
<g id="Node000005" class="node">
<title>Node5</title>
<g id="a_Node000005"><a xlink:href="_o_m_sim_l_o_m18_harness_8hh.html" target="_top" xlink:title="Construction of the LOM18 harness.">
<polygon fill="white" stroke="#666666" points="1175.5,-184 1035.5,-184 1035.5,-165 1175.5,-165 1175.5,-184"/>
<text text-anchor="middle" x="1105.5" y="-172" font-family="Helvetica,sans-Serif" font-size="10.00">OMSimLOM18Harness.hh</text>
</a>
</g>
</g>
<!-- Node2&#45;&gt;Node5 -->
<g id="edge4_Node000002_Node000005" class="edge">
<title>Node2&#45;&gt;Node5</title>
<g id="a_edge4_Node000002_Node000005"><a xlink:title=" ">
<path fill="none" stroke="#63b8ff" d="M724.12,-280.21C826.6,-275.37 984.43,-264.04 1038.5,-239 1065.55,-226.47 1088.66,-198.63 1099.28,-184.34"/>
<polygon fill="#63b8ff" stroke="#63b8ff" points="723.9,-276.71 714.07,-280.67 724.22,-283.71 723.9,-276.71"/>
</a>
</g>
</g>
<!-- Node7 -->
<g id="Node000007" class="node">
<title>Node7</title>
<g id="a_Node000007"><a xlink:href="_o_m_sim_m_d_o_m_flasher_8hh.html" target="_top" xlink:title="Defines the mDOMFlasher class for simulating the 10 flashers in an mDOM optical module.">
<polygon fill="white" stroke="#666666" points="502,-184 367,-184 367,-165 502,-165 502,-184"/>
<text text-anchor="middle" x="434.5" y="-172" font-family="Helvetica,sans-Serif" font-size="10.00">OMSimMDOMFlasher.hh</text>
</a>
</g>
</g>
<!-- Node2&#45;&gt;Node7 -->
<g id="edge6_Node000002_Node000007" class="edge">
<title>Node2&#45;&gt;Node7</title>
<g id="a_edge6_Node000002_Node000007"><a xlink:title=" ">
<path fill="none" stroke="#63b8ff" d="M584.76,-272.24C559.58,-264.97 528.63,-254.04 503.5,-239 477.8,-223.62 453.4,-197.54 441.7,-184.09"/>
<polygon fill="#63b8ff" stroke="#63b8ff" points="583.88,-275.63 594.45,-274.94 585.76,-268.88 583.88,-275.63"/>
</a>
</g>
</g>
<!-- Node9 -->
<g id="Node000009" class="node">
<title>Node9</title>
<g id="a_Node000009"><a xlink:href="_o_m_sim_m_d_o_m_harness_8hh.html" target="_top" xlink:title="Construction of mDOM harness.">
<polygon fill="white" stroke="#666666" points="652.5,-239 512.5,-239 512.5,-220 652.5,-220 652.5,-239"/>
<text text-anchor="middle" x="582.5" y="-227" font-family="Helvetica,sans-Serif" font-size="10.00">OMSimMDOMHarness.hh</text>
</a>
</g>
</g>
<!-- Node2&#45;&gt;Node9 -->
<g id="edge8_Node000002_Node000009" class="edge">
<title>Node2&#45;&gt;Node9</title>
<g id="a_edge8_Node000002_Node000009"><a xlink:title=" ">
<path fill="none" stroke="#63b8ff" d="M616.47,-267.24C607.88,-257.95 597.46,-246.68 590.44,-239.09"/>
<polygon fill="#63b8ff" stroke="#63b8ff" points="614.05,-269.78 623.41,-274.75 619.19,-265.03 614.05,-269.78"/>
</a>
</g>
</g>
<!-- Node10 -->
<g id="Node000010" class="node">
<title>Node10</title>
<g id="a_Node000010"><a xlink:href="_o_m_sim_optical_module_8hh_source.html" target="_top" xlink:title=" ">
<polygon fill="white" stroke="#666666" points="751,-184 614,-184 614,-165 751,-165 751,-184"/>
<text text-anchor="middle" x="682.5" y="-172" font-family="Helvetica,sans-Serif" font-size="10.00">OMSimOpticalModule.hh</text>
</a>
</g>
</g>
<!-- Node2&#45;&gt;Node10 -->
<g id="edge9_Node000002_Node000010" class="edge">
<title>Node2&#45;&gt;Node10</title>
<g id="a_edge9_Node000002_Node000010"><a xlink:title=" ">
<path fill="none" stroke="#63b8ff" d="M644.51,-266.58C650.27,-258.54 656.79,-248.6 661.5,-239 670.71,-220.24 677.35,-196.47 680.48,-184.01"/>
<polygon fill="#63b8ff" stroke="#63b8ff" points="641.61,-264.62 638.47,-274.74 647.24,-268.79 641.61,-264.62"/>
</a>
</g>
</g>
<!-- Node21 -->
<g id="Node000021" class="node">
<title>Node21</title>
<g id="a_Node000021"><a xlink:href="_o_m_sim_rad_decays_detector_8hh.html" target="_top" xlink:title="Defines the OMSimRadDecaysDetector class for the radioactive decays simulation.">
<polygon fill="white" stroke="#666666" points="401,-74 238,-74 238,-55 401,-55 401,-74"/>
<text text-anchor="middle" x="319.5" y="-62" font-family="Helvetica,sans-Serif" font-size="10.00">OMSimRadDecaysDetector.hh</text>
</a>
</g>
</g>
<!-- Node2&#45;&gt;Node21 -->
<g id="edge41_Node000002_Node000021" class="edge">
<title>Node2&#45;&gt;Node21</title>
<g id="a_edge41_Node000002_Node000021"><a xlink:title=" ">
<path fill="none" stroke="#63b8ff" d="M540.97,-273.16C480.55,-261.49 403.94,-236.69 357.5,-184 328.36,-150.94 321.53,-95.32 319.96,-74.09"/>
<polygon fill="#63b8ff" stroke="#63b8ff" points="540.43,-276.62 550.9,-274.99 541.7,-269.73 540.43,-276.62"/>
</a>
</g>
</g>
<!-- Node26 -->
<g id="Node000026" class="node">
<title>Node26</title>
<g id="a_Node000026"><a xlink:href="_o_m_sim_p_d_o_m_harness_8hh_source.html" target="_top" xlink:title=" ">
<polygon fill="white" stroke="#666666" points="1030,-239 893,-239 893,-220 1030,-220 1030,-239"/>
<text text-anchor="middle" x="961.5" y="-227" font-family="Helvetica,sans-Serif" font-size="10.00">OMSimPDOMHarness.hh</text>
</a>
</g>
</g>
<!-- Node2&#45;&gt;Node26 -->
<g id="edge32_Node000002_Node000026" class="edge">
<title>Node2&#45;&gt;Node26</title>
<g id="a_edge32_Node000002_Node000026"><a xlink:title=" ">
<path fill="none" stroke="#63b8ff" d="M694.56,-273.37C756.53,-263.42 850.03,-248.4 908.34,-239.04"/>
<polygon fill="#63b8ff" stroke="#63b8ff" points="693.84,-269.94 684.52,-274.98 694.95,-276.85 693.84,-269.94"/>
</a>
</g>
</g>
<!-- Node27 -->
<g id="Node000027" class="node">
<title>Node27</title>
<g id="a_Node000027"><a xlink:href="_o_m_sim_p_m_t_construction_8hh.html" target="_top" xlink:title="Construction of the PMTs.">
<polygon fill="white" stroke="#666666" points="857,-239 708,-239 708,-220 857,-220 857,-239"/>
<text text-anchor="middle" x="782.5" y="-227" font-family="Helvetica,sans-Serif" font-size="10.00">OMSimPMTConstruction.hh</text>
</a>
</g>
</g>
<!-- Node2&#45;&gt;Node27 -->
<g id="edge33_Node000002_Node000027" class="edge">
<title>Node2&#45;&gt;Node27</title>
<g id="a_edge33_Node000002_Node000027"><a xlink:title=" ">
<path fill="none" stroke="#63b8ff" d="M665.55,-271.55C693.59,-261.71 732.68,-247.98 757.8,-239.17"/>
<polygon fill="#63b8ff" stroke="#63b8ff" points="664.04,-268.37 655.76,-274.98 666.36,-274.98 664.04,-268.37"/>
</a>
</g>
</g>
<!-- Node28 -->
<g id="Node000028" class="node">
<title>Node28</title>
<g id="a_Node000028"><a xlink:href="_o_m_sim_tools_8hh.html" target="_top" xlink:title="Definition of Tools namespace, a collection of helper methods.">
<polygon fill="white" stroke="#666666" points="1328.5,-129 1236.5,-129 1236.5,-110 1328.5,-110 1328.5,-129"/>
<text text-anchor="middle" x="1282.5" y="-117" font-family="Helvetica,sans-Serif" font-size="10.00">OMSimTools.hh</text>
</a>
</g>
</g>
<!-- Node2&#45;&gt;Node28 -->
<g id="edge42_Node000002_Node000028" class="edge">
<title>Node2&#45;&gt;Node28</title>
<g id="a_edge42_Node000002_Node000028"><a xlink:title=" ">
<path fill="none" stroke="#63b8ff" d="M724.47,-282.91C813.69,-280.26 951.46,-270.72 1066.5,-239 1151.85,-215.46 1240.4,-152.51 1271.17,-129.28"/>
<polygon fill="#63b8ff" stroke="#63b8ff" points="724.28,-279.41 714.38,-283.18 724.47,-286.41 724.28,-279.41"/>
</a>
</g>
</g>
<!-- Node6 -->
<g id="Node000006" class="node">
<title>Node6</title>
<g id="a_Node000006"><a xlink:href="_o_m_sim_l_o_m18_8cc.html" target="_top" xlink:title=" ">
<polygon fill="white" stroke="#666666" points="1235,-74 1136,-74 1136,-55 1235,-55 1235,-74"/>
<text text-anchor="middle" x="1185.5" y="-62" font-family="Helvetica,sans-Serif" font-size="10.00">OMSimLOM18.cc</text>
</a>
</g>
</g>
<!-- Node5&#45;&gt;Node6 -->
<g id="edge5_Node000005_Node000006" class="edge">
<title>Node5&#45;&gt;Node6</title>
<g id="a_edge5_Node000005_Node000006"><a xlink:title=" ">
<path fill="none" stroke="#63b8ff" d="M1148.56,-161.17C1164.28,-154.35 1180.41,-144.11 1189.5,-129 1199.87,-111.78 1193.47,-86.95 1188.91,-74.03"/>
<polygon fill="#63b8ff" stroke="#63b8ff" points="1146.92,-158.05 1138.9,-164.98 1149.49,-164.56 1146.92,-158.05"/>
</a>
</g>
</g>
<!-- Node8 -->
<g id="Node000008" class="node">
<title>Node8</title>
<g id="a_Node000008"><a xlink:href="_o_m_sim_m_d_o_m_8hh.html" target="_top" xlink:title="Construction of mDOM.">
<polygon fill="white" stroke="#666666" points="449.5,-129 349.5,-129 349.5,-110 449.5,-110 449.5,-129"/>
<text text-anchor="middle" x="399.5" y="-117" font-family="Helvetica,sans-Serif" font-size="10.00">OMSimMDOM.hh</text>
</a>
</g>
</g>
<!-- Node7&#45;&gt;Node8 -->
<g id="edge7_Node000007_Node000008" class="edge">
<title>Node7&#45;&gt;Node8</title>
<g id="a_edge7_Node000007_Node000008"><a xlink:title=" ">
<path fill="none" stroke="#63b8ff" d="M423.2,-156.39C417.18,-147.27 410.03,-136.45 405.17,-129.09"/>
<polygon fill="#63b8ff" stroke="#63b8ff" points="420.29,-158.33 428.72,-164.75 426.13,-154.47 420.29,-158.33"/>
</a>
</g>
</g>
<!-- Node10&#45;&gt;Node8 -->
<g id="edge29_Node000010_Node000008" class="edge">
<title>Node10&#45;&gt;Node8</title>
<g id="a_edge29_Node000010_Node000008"><a xlink:title=" ">
<path fill="none" stroke="#63b8ff" d="M627.11,-163.13C574.06,-153.19 494.93,-138.37 445.33,-129.08"/>
<polygon fill="#63b8ff" stroke="#63b8ff" points="626.56,-166.58 637.03,-164.98 627.85,-159.7 626.56,-166.58"/>
</a>
</g>
</g>
<!-- Node11 -->
<g id="Node000011" class="node">
<title>Node11</title>
<g id="a_Node000011"><a xlink:href="_o_m_sim_d_e_g_g_8hh.html" target="_top" xlink:title="Construction of the DEGG class.">
<polygon fill="white" stroke="#666666" points="946,-129 851,-129 851,-110 946,-110 946,-129"/>
<text text-anchor="middle" x="898.5" y="-117" font-family="Helvetica,sans-Serif" font-size="10.00">OMSimDEGG.hh</text>
</a>
</g>
</g>
<!-- Node10&#45;&gt;Node11 -->
<g id="edge10_Node000010_Node000011" class="edge">
<title>Node10&#45;&gt;Node11</title>
<g id="a_edge10_Node000010_Node000011"><a xlink:title=" ">
<path fill="none" stroke="#63b8ff" d="M727.07,-162.56C767.52,-152.64 826.37,-138.2 863.52,-129.08"/>
<polygon fill="#63b8ff" stroke="#63b8ff" points="726.08,-159.2 717.2,-164.98 727.75,-166 726.08,-159.2"/>
</a>
</g>
</g>
<!-- Node12 -->
<g id="Node000012" class="node">
<title>Node12</title>
<g id="a_Node000012"><a xlink:href="_o_m_sim_decays_g_p_s_8hh.html" target="_top" xlink:title="Defines the OMSimDecaysGPS class for the radioactive decays simulation.">
<polygon fill="white" stroke="#666666" points="541.5,-74 419.5,-74 419.5,-55 541.5,-55 541.5,-74"/>
<text text-anchor="middle" x="480.5" y="-62" font-family="Helvetica,sans-Serif" font-size="10.00">OMSimDecaysGPS.hh</text>
</a>
</g>
</g>
<!-- Node10&#45;&gt;Node12 -->
<g id="edge11_Node000010_Node000012" class="edge">
<title>Node10&#45;&gt;Node12</title>
<g id="a_edge11_Node000010_Node000012"><a xlink:title=" ">
<path fill="none" stroke="#63b8ff" d="M618.4,-162.67C591,-155.98 559.6,-145.41 534.5,-129 512.21,-114.43 494.07,-88 485.62,-74.29"/>
<polygon fill="#63b8ff" stroke="#63b8ff" points="617.77,-166.12 628.3,-164.96 619.35,-159.3 617.77,-166.12"/>
</a>
</g>
</g>
<!-- Node14 -->
<g id="Node000014" class="node">
<title>Node14</title>
<g id="a_Node000014"><a xlink:href="_o_m_sim_detector_construction_8hh_source.html" target="_top" xlink:title=" ">
<polygon fill="white" stroke="#666666" points="713.5,-129 543.5,-129 543.5,-110 713.5,-110 713.5,-129"/>
<text text-anchor="middle" x="628.5" y="-117" font-family="Helvetica,sans-Serif" font-size="10.00">OMSimDetectorConstruction.hh</text>
</a>
</g>
</g>
<!-- Node10&#45;&gt;Node14 -->
<g id="edge13_Node000010_Node000014" class="edge">
<title>Node10&#45;&gt;Node14</title>
<g id="a_edge13_Node000010_Node000014"><a xlink:title=" ">
<path fill="none" stroke="#63b8ff" d="M666.22,-157.52C656.7,-148.18 645.06,-136.75 637.25,-129.09"/>
<polygon fill="#63b8ff" stroke="#63b8ff" points="663.99,-160.24 673.58,-164.75 668.9,-155.25 663.99,-160.24"/>
</a>
</g>
</g>
<!-- Node10&#45;&gt;Node21 -->
<g id="edge31_Node000010_Node000021" class="edge">
<title>Node10&#45;&gt;Node21</title>
<g id="a_edge31_Node000010_Node000021"><a xlink:title=" ">
<path fill="none" stroke="#63b8ff" d="M635.42,-162.63C600.66,-154.28 552.32,-142.01 510.5,-129 487.01,-121.69 481.78,-117.97 458.5,-110 420.15,-96.86 375.44,-82.76 347.3,-74.04"/>
<polygon fill="#63b8ff" stroke="#63b8ff" points="634.76,-166.07 645.3,-164.98 636.38,-159.26 634.76,-166.07"/>
</a>
</g>
</g>
<!-- Node23 -->
<g id="Node000023" class="node">
<title>Node23</title>
<g id="a_Node000023"><a xlink:href="_o_m_sim_l_o_m16_8hh.html" target="_top" xlink:title="Construction of LOM16.">
<polygon fill="white" stroke="#666666" points="1065,-129 964,-129 964,-110 1065,-110 1065,-129"/>
<text text-anchor="middle" x="1014.5" y="-117" font-family="Helvetica,sans-Serif" font-size="10.00">OMSimLOM16.hh</text>
</a>
</g>
</g>
<!-- Node10&#45;&gt;Node23 -->
<g id="edge26_Node000010_Node000023" class="edge">
<title>Node10&#45;&gt;Node23</title>
<g id="a_edge26_Node000010_Node000023"><a xlink:title=" ">
<path fill="none" stroke="#63b8ff" d="M746.1,-163.35C809.42,-153.24 905.36,-137.92 963.74,-128.6"/>
<polygon fill="#63b8ff" stroke="#63b8ff" points="745.16,-159.95 735.84,-164.98 746.27,-166.86 745.16,-159.95"/>
</a>
</g>
</g>
<!-- Node24 -->
<g id="Node000024" class="node">
<title>Node24</title>
<g id="a_Node000024"><a xlink:href="_o_m_sim_l_o_m18_8hh.html" target="_top" xlink:title="Construction of LOM18.">
<polygon fill="white" stroke="#666666" points="833,-129 732,-129 732,-110 833,-110 833,-129"/>
<text text-anchor="middle" x="782.5" y="-117" font-family="Helvetica,sans-Serif" font-size="10.00">OMSimLOM18.hh</text>
</a>
</g>
</g>
<!-- Node10&#45;&gt;Node24 -->
<g id="edge27_Node000010_Node000024" class="edge">
<title>Node10&#45;&gt;Node24</title>
<g id="a_edge27_Node000010_Node000024"><a xlink:title=" ">
<path fill="none" stroke="#63b8ff" d="M707.53,-160.23C725.87,-150.51 750.24,-137.6 766.14,-129.17"/>
<polygon fill="#63b8ff" stroke="#63b8ff" points="705.76,-157.21 698.57,-164.98 709.04,-163.39 705.76,-157.21"/>
</a>
</g>
</g>
<!-- Node25 -->
<g id="Node000025" class="node">
<title>Node25</title>
<g id="a_Node000025"><a xlink:href="_o_m_sim_p_d_o_m_8hh.html" target="_top" xlink:title="Implementation of the pDOM (deepcore) or Gen1 DOM..">
<polygon fill="white" stroke="#666666" points="1180,-129 1083,-129 1083,-110 1180,-110 1180,-129"/>
<text text-anchor="middle" x="1131.5" y="-117" font-family="Helvetica,sans-Serif" font-size="10.00">OMSimPDOM.hh</text>
</a>
</g>
</g>
<!-- Node10&#45;&gt;Node25 -->
<g id="edge30_Node000010_Node000025" class="edge">
<title>Node10&#45;&gt;Node25</title>
<g id="a_edge30_Node000010_Node000025"><a xlink:title=" ">
<path fill="none" stroke="#63b8ff" d="M761.46,-165.27C840.49,-156.85 965.55,-143.05 1073.5,-129 1076.53,-128.61 1079.64,-128.19 1082.78,-127.76"/>
<polygon fill="#63b8ff" stroke="#63b8ff" points="760.67,-161.83 751.09,-166.37 761.41,-168.79 760.67,-161.83"/>
</a>
</g>
</g>
<!-- Node13 -->
<g id="Node000013" class="node">
<title>Node13</title>
<g id="a_Node000013"><a xlink:href="_o_m_sim__radioactive__decays_8cc.html" target="_top" xlink:title="Main of the radioactive decay study.">
<polygon fill="white" stroke="#666666" points="563,-19 398,-19 398,0 563,0 563,-19"/>
<text text-anchor="middle" x="480.5" y="-7" font-family="Helvetica,sans-Serif" font-size="10.00">OMSim_radioactive_decays.cc</text>
</a>
</g>
</g>
<!-- Node12&#45;&gt;Node13 -->
<g id="edge12_Node000012_Node000013" class="edge">
<title>Node12&#45;&gt;Node13</title>
<g id="a_edge12_Node000012_Node000013"><a xlink:title=" ">
<path fill="none" stroke="#63b8ff" d="M480.5,-44.66C480.5,-35.93 480.5,-25.99 480.5,-19.09"/>
<polygon fill="#63b8ff" stroke="#63b8ff" points="477,-44.75 480.5,-54.75 484,-44.75 477,-44.75"/>
</a>
</g>
</g>
<!-- Node15 -->
<g id="Node000015" class="node">
<title>Node15</title>
<g id="a_Node000015"><a xlink:href="_o_m_sim_8hh.html" target="_top" xlink:title="Main simulation class for the Optical Module (OM) simulation. This file defines the OMSim class,...">
<polygon fill="white" stroke="#666666" points="927,-74 860,-74 860,-55 927,-55 927,-74"/>
<text text-anchor="middle" x="893.5" y="-62" font-family="Helvetica,sans-Serif" font-size="10.00">OMSim.hh</text>
</a>
</g>
</g>
<!-- Node14&#45;&gt;Node15 -->
<g id="edge14_Node000014_Node000015" class="edge">
<title>Node14&#45;&gt;Node15</title>
<g id="a_edge14_Node000014_Node000015"><a xlink:title=" ">
<path fill="none" stroke="#63b8ff" d="M680.99,-108C734.14,-97.37 814.73,-81.25 859.86,-72.23"/>
<polygon fill="#63b8ff" stroke="#63b8ff" points="680.2,-104.59 671.08,-109.98 681.57,-111.46 680.2,-104.59"/>
</a>
</g>
</g>
<!-- Node19 -->
<g id="Node000019" class="node">
<title>Node19</title>
<g id="a_Node000019"><a xlink:href="_o_m_sim_effective_area_detector_8hh.html" target="_top" xlink:title="Defines the OMSimEffectiveAreaDetector class for effective area simulation detector construction.">
<polygon fill="white" stroke="#666666" points="1118,-74 945,-74 945,-55 1118,-55 1118,-74"/>
<text text-anchor="middle" x="1031.5" y="-62" font-family="Helvetica,sans-Serif" font-size="10.00">OMSimEffectiveAreaDetector.hh</text>
</a>
</g>
</g>
<!-- Node14&#45;&gt;Node19 -->
<g id="edge19_Node000014_Node000019" class="edge">
<title>Node14&#45;&gt;Node19</title>
<g id="a_edge19_Node000014_Node000019"><a xlink:title=" ">
<path fill="none" stroke="#63b8ff" d="M703.19,-108.68C778.83,-98.73 894.64,-83.5 966.58,-74.04"/>
<polygon fill="#63b8ff" stroke="#63b8ff" points="702.71,-105.21 693.25,-109.98 703.62,-112.15 702.71,-105.21"/>
</a>
</g>
</g>
<!-- Node20 -->
<g id="Node000020" class="node">
<title>Node20</title>
<g id="a_Node000020"><a xlink:href="_o_m_sim_effi_cali_detector_8hh_source.html" target="_top" xlink:title=" ">
<polygon fill="white" stroke="#666666" points="703,-74 560,-74 560,-55 703,-55 703,-74"/>
<text text-anchor="middle" x="631.5" y="-62" font-family="Helvetica,sans-Serif" font-size="10.00">OMSimEffiCaliDetector.hh</text>
</a>
</g>
</g>
<!-- Node14&#45;&gt;Node20 -->
<g id="edge21_Node000014_Node000020" class="edge">
<title>Node14&#45;&gt;Node20</title>
<g id="a_edge21_Node000014_Node000020"><a xlink:title=" ">
<path fill="none" stroke="#63b8ff" d="M629.57,-99.66C630.06,-90.93 630.62,-80.99 631.01,-74.09"/>
<polygon fill="#63b8ff" stroke="#63b8ff" points="626.07,-99.57 629,-109.75 633.06,-99.96 626.07,-99.57"/>
</a>
</g>
</g>
<!-- Node14&#45;&gt;Node21 -->
<g id="edge22_Node000014_Node000021" class="edge">
<title>Node14&#45;&gt;Node21</title>
<g id="a_edge22_Node000014_Node000021"><a xlink:title=" ">
<path fill="none" stroke="#63b8ff" d="M568.73,-108.25C510.7,-98.3 423.65,-83.36 369.28,-74.04"/>
<polygon fill="#63b8ff" stroke="#63b8ff" points="568.41,-111.74 578.85,-109.98 569.59,-104.84 568.41,-111.74"/>
</a>
</g>
</g>
<!-- Node22 -->
<g id="Node000022" class="node">
<title>Node22</title>
<g id="a_Node000022"><a xlink:href="_o_m_sim_s_ndetector_8hh_source.html" target="_top" xlink:title=" ">
<polygon fill="white" stroke="#666666" points="841.5,-74 721.5,-74 721.5,-55 841.5,-55 841.5,-74"/>
<text text-anchor="middle" x="781.5" y="-62" font-family="Helvetica,sans-Serif" font-size="10.00">OMSimSNdetector.hh</text>
</a>
</g>
</g>
<!-- Node14&#45;&gt;Node22 -->
<g id="edge24_Node000014_Node000022" class="edge">
<title>Node14&#45;&gt;Node22</title>
<g id="a_edge24_Node000014_Node000022"><a xlink:title=" ">
<path fill="none" stroke="#63b8ff" d="M662.65,-106.67C691.18,-96.79 731.19,-82.93 756.73,-74.08"/>
<polygon fill="#63b8ff" stroke="#63b8ff" points="661.39,-103.4 653.08,-109.98 663.68,-110.02 661.39,-103.4"/>
</a>
</g>
</g>
<!-- Node15&#45;&gt;Node13 -->
<g id="edge18_Node000015_Node000013" class="edge">
<title>Node15&#45;&gt;Node13</title>
<g id="a_edge18_Node000015_Node000013"><a xlink:title=" ">
<path fill="none" stroke="#63b8ff" d="M849.63,-54.98C745.01,-38.58 635.84,-26.2 563.04,-18.62"/>
<polygon fill="#63b8ff" stroke="#63b8ff" points="849.32,-58.47 859.74,-56.58 850.41,-51.56 849.32,-58.47"/>
</a>
</g>
</g>
<!-- Node16 -->
<g id="Node000016" class="node">
<title>Node16</title>
<g id="a_Node000016"><a xlink:href="_o_m_sim_8cc.html" target="_top" xlink:title="Implementation of the OMSim class.">
<polygon fill="white" stroke="#666666" points="1259,-19 1194,-19 1194,0 1259,0 1259,-19"/>
<text text-anchor="middle" x="1226.5" y="-7" font-family="Helvetica,sans-Serif" font-size="10.00">OMSim.cc</text>
</a>
</g>
</g>
<!-- Node15&#45;&gt;Node16 -->
<g id="edge15_Node000015_Node000016" class="edge">
<title>Node15&#45;&gt;Node16</title>
<g id="a_edge15_Node000015_Node000016"><a xlink:title=" ">
<path fill="none" stroke="#63b8ff" d="M937.53,-54.7C1036.14,-37.38 1141.5,-22.26 1193.69,-15"/>
<polygon fill="#63b8ff" stroke="#63b8ff" points="936.64,-51.31 927.4,-56.49 937.86,-58.2 936.64,-51.31"/>
</a>
</g>
</g>
<!-- Node17 -->
<g id="Node000017" class="node">
<title>Node17</title>
<g id="a_Node000017"><a xlink:href="_o_m_sim_supernova_8cc.html" target="_top" xlink:title="Main of the supernova study.">
<polygon fill="white" stroke="#666666" points="891,-19 774,-19 774,0 891,0 891,-19"/>
<text text-anchor="middle" x="832.5" y="-7" font-family="Helvetica,sans-Serif" font-size="10.00">OMSimSupernova.cc</text>
</a>
</g>
</g>
<!-- Node15&#45;&gt;Node17 -->
<g id="edge16_Node000015_Node000017" class="edge">
<title>Node15&#45;&gt;Node17</title>
<g id="a_edge16_Node000015_Node000017"><a xlink:title=" ">
<path fill="none" stroke="#63b8ff" d="M876.03,-48.32C865.16,-38.87 851.56,-27.06 842.48,-19.17"/>
<polygon fill="#63b8ff" stroke="#63b8ff" points="873.85,-51.07 883.7,-54.98 878.45,-45.78 873.85,-51.07"/>
</a>
</g>
</g>
<!-- Node18 -->
<g id="Node000018" class="node">
<title>Node18</title>
<g id="a_Node000018"><a xlink:href="_o_m_sim__effective__area_8cc.html" target="_top" xlink:title="Main for the calculation of effective areas.">
<polygon fill="white" stroke="#666666" points="1101.5,-19 961.5,-19 961.5,0 1101.5,0 1101.5,-19"/>
<text text-anchor="middle" x="1031.5" y="-7" font-family="Helvetica,sans-Serif" font-size="10.00">OMSim_effective_area.cc</text>
</a>
</g>
</g>
<!-- Node15&#45;&gt;Node18 -->
<g id="edge17_Node000015_Node000018" class="edge">
<title>Node15&#45;&gt;Node18</title>
<g id="a_edge17_Node000015_Node000018"><a xlink:title=" ">
<path fill="none" stroke="#63b8ff" d="M925.29,-51.29C950.87,-41.47 986.17,-27.91 1008.92,-19.17"/>
<polygon fill="#63b8ff" stroke="#63b8ff" points="923.75,-48.13 915.67,-54.98 926.26,-54.67 923.75,-48.13"/>
</a>
</g>
</g>
<!-- Node19&#45;&gt;Node18 -->
<g id="edge20_Node000019_Node000018" class="edge">
<title>Node19&#45;&gt;Node18</title>
<g id="a_edge20_Node000019_Node000018"><a xlink:title=" ">
<path fill="none" stroke="#63b8ff" d="M1031.5,-44.66C1031.5,-35.93 1031.5,-25.99 1031.5,-19.09"/>
<polygon fill="#63b8ff" stroke="#63b8ff" points="1028,-44.75 1031.5,-54.75 1035,-44.75 1028,-44.75"/>
</a>
</g>
</g>
<!-- Node21&#45;&gt;Node13 -->
<g id="edge23_Node000021_Node000013" class="edge">
<title>Node21&#45;&gt;Node13</title>
<g id="a_edge23_Node000021_Node000013"><a xlink:title=" ">
<path fill="none" stroke="#63b8ff" d="M355.05,-51.8C385.09,-41.91 427.44,-27.97 454.43,-19.08"/>
<polygon fill="#63b8ff" stroke="#63b8ff" points="353.77,-48.53 345.37,-54.98 355.96,-55.18 353.77,-48.53"/>
</a>
</g>
</g>
<!-- Node22&#45;&gt;Node17 -->
<g id="edge25_Node000022_Node000017" class="edge">
<title>Node22&#45;&gt;Node17</title>
<g id="a_edge25_Node000022_Node000017"><a xlink:title=" ">
<path fill="none" stroke="#63b8ff" d="M796.88,-47.52C805.87,-38.18 816.86,-26.75 824.24,-19.09"/>
<polygon fill="#63b8ff" stroke="#63b8ff" points="794.33,-45.12 789.92,-54.75 799.38,-49.97 794.33,-45.12"/>
</a>
</g>
</g>
<!-- Node24&#45;&gt;Node6 -->
<g id="edge28_Node000024_Node000006" class="edge">
<title>Node24&#45;&gt;Node6</title>
<g id="a_edge28_Node000024_Node000006"><a xlink:title=" ">
<path fill="none" stroke="#63b8ff" d="M843.14,-109.8C970.15,-92.77 1003.78,-90.85 1127.5,-74 1130.22,-73.63 1133.02,-73.24 1135.84,-72.85"/>
<polygon fill="#63b8ff" stroke="#63b8ff" points="842.47,-106.36 833.02,-111.16 843.4,-113.3 842.47,-106.36"/>
</a>
</g>
</g>
<!-- Node27&#45;&gt;Node8 -->
<g id="edge37_Node000027_Node000008" class="edge">
<title>Node27&#45;&gt;Node8</title>
<g id="a_edge37_Node000027_Node000008"><a xlink:title=" ">
<path fill="none" stroke="#63b8ff" d="M736.12,-217.65C700.09,-209.04 648.94,-196.43 604.5,-184 539.73,-165.89 464.38,-141.75 425.57,-129.09"/>
<polygon fill="#63b8ff" stroke="#63b8ff" points="735.33,-221.06 745.87,-219.97 736.95,-214.25 735.33,-221.06"/>
</a>
</g>
</g>
<!-- Node27&#45;&gt;Node10 -->
<g id="edge38_Node000027_Node000010" class="edge">
<title>Node27&#45;&gt;Node10</title>
<g id="a_edge38_Node000027_Node000010"><a xlink:title=" ">
<path fill="none" stroke="#63b8ff" d="M757.47,-215.23C739.13,-205.51 714.76,-192.6 698.86,-184.17"/>
<polygon fill="#63b8ff" stroke="#63b8ff" points="755.96,-218.39 766.43,-219.98 759.24,-212.21 755.96,-218.39"/>
</a>
</g>
</g>
<!-- Node27&#45;&gt;Node11 -->
<g id="edge34_Node000027_Node000011" class="edge">
<title>Node27&#45;&gt;Node11</title>
<g id="a_edge34_Node000027_Node000011"><a xlink:title=" ">
<path fill="none" stroke="#63b8ff" d="M799.57,-212.61C824.43,-189.47 869.73,-147.29 889.2,-129.16"/>
<polygon fill="#63b8ff" stroke="#63b8ff" points="796.93,-210.29 791.99,-219.66 801.7,-215.41 796.93,-210.29"/>
</a>
</g>
</g>
<!-- Node27&#45;&gt;Node23 -->
<g id="edge35_Node000027_Node000023" class="edge">
<title>Node27&#45;&gt;Node23</title>
<g id="a_edge35_Node000027_Node000023"><a xlink:title=" ">
<path fill="none" stroke="#63b8ff" d="M810.28,-215.57C858.32,-193.21 955.62,-147.91 996.14,-129.05"/>
<polygon fill="#63b8ff" stroke="#63b8ff" points="808.68,-212.45 801.09,-219.84 811.64,-218.8 808.68,-212.45"/>
</a>
</g>
</g>
<!-- Node27&#45;&gt;Node24 -->
<g id="edge36_Node000027_Node000024" class="edge">
<title>Node27&#45;&gt;Node24</title>
<g id="a_edge36_Node000027_Node000024"><a xlink:title=" ">
<path fill="none" stroke="#63b8ff" d="M782.5,-209.48C782.5,-185.84 782.5,-146.5 782.5,-129.16"/>
<polygon fill="#63b8ff" stroke="#63b8ff" points="779,-209.66 782.5,-219.66 786,-209.66 779,-209.66"/>
</a>
</g>
</g>
<!-- Node27&#45;&gt;Node25 -->
<g id="edge39_Node000027_Node000025" class="edge">
<title>Node27&#45;&gt;Node25</title>
<g id="a_edge39_Node000027_Node000025"><a xlink:title=" ">
<path fill="none" stroke="#63b8ff" d="M819.98,-216.9C890.54,-195.07 1041.58,-148.33 1103.82,-129.07"/>
<polygon fill="#63b8ff" stroke="#63b8ff" points="818.7,-213.64 810.18,-219.94 820.76,-220.32 818.7,-213.64"/>
</a>
</g>
</g>
<!-- Node27&#45;&gt;Node27 -->
<g id="edge40_Node000027_Node000027" class="edge">
<title>Node27&#45;&gt;Node27</title>
<g id="a_edge40_Node000027_Node000027"><a xlink:title=" ">
<path fill="none" stroke="#63b8ff" d="M835.79,-239.56C857.11,-240.13 875,-236.77 875,-229.5 875,-221.12 851.21,-217.94 825.8,-219.97"/>
<polygon fill="#63b8ff" stroke="#63b8ff" points="835.97,-236.07 825.8,-239.03 835.6,-243.06 835.97,-236.07"/>
</a>
</g>
</g>
<!-- Node28&#45;&gt;Node6 -->
<g id="edge44_Node000028_Node000006" class="edge">
<title>Node28&#45;&gt;Node6</title>
<g id="a_edge44_Node000028_Node000006"><a xlink:title=" ">
<path fill="none" stroke="#63b8ff" d="M1257.73,-104.97C1240,-95.28 1216.65,-82.52 1201.37,-74.17"/>
<polygon fill="#63b8ff" stroke="#63b8ff" points="1256.46,-108.26 1266.92,-109.98 1259.82,-102.12 1256.46,-108.26"/>
</a>
</g>
</g>
<!-- Node28&#45;&gt;Node16 -->
<g id="edge43_Node000028_Node000016" class="edge">
<title>Node28&#45;&gt;Node16</title>
<g id="a_edge43_Node000028_Node000016"><a xlink:title=" ">
<path fill="none" stroke="#63b8ff" d="M1284.65,-99.5C1285.29,-86.33 1284.42,-68.75 1277.5,-55 1269.69,-39.46 1253.86,-27.02 1241.9,-19.28"/>
<polygon fill="#63b8ff" stroke="#63b8ff" points="1281.14,-99.48 1283.8,-109.74 1288.11,-100.06 1281.14,-99.48"/>
</a>
</g>
</g>
<!-- Node28&#45;&gt;Node18 -->
<g id="edge46_Node000028_Node000018" class="edge">
<title>Node28&#45;&gt;Node18</title>
<g id="a_edge46_Node000028_Node000018"><a xlink:title=" ">
<path fill="none" stroke="#63b8ff" d="M1276.39,-100.51C1270.5,-85.97 1260.16,-66.15 1244.5,-55 1203.11,-25.53 1146.42,-14.74 1101.92,-11.14"/>
<polygon fill="#63b8ff" stroke="#63b8ff" points="1273.13,-101.81 1279.9,-109.96 1279.7,-99.37 1273.13,-101.81"/>
</a>
</g>
</g>
<!-- Node29 -->
<g id="Node000029" class="node">
<title>Node29</title>
<g id="a_Node000029"><a xlink:href="_o_m_sim_s_n_analysis_8cc.html" target="_top" xlink:title="Analyze data and write output files.">
<polygon fill="white" stroke="#666666" points="1449.5,-74 1329.5,-74 1329.5,-55 1449.5,-55 1449.5,-74"/>
<text text-anchor="middle" x="1389.5" y="-62" font-family="Helvetica,sans-Serif" font-size="10.00">OMSimSNAnalysis.cc</text>
</a>
</g>
</g>
<!-- Node28&#45;&gt;Node29 -->
<g id="edge45_Node000028_Node000029" class="edge">
<title>Node28&#45;&gt;Node29</title>
<g id="a_edge45_Node000028_Node000029"><a xlink:title=" ">
<path fill="none" stroke="#63b8ff" d="M1308.74,-105.5C1328.43,-95.75 1354.82,-82.68 1372,-74.17"/>
<polygon fill="#63b8ff" stroke="#63b8ff" points="1307.1,-102.41 1299.69,-109.98 1310.21,-108.68 1307.1,-102.41"/>
</a>
</g>
</g>
</g>
</svg>
