<?xml version="1.0" encoding="UTF-8" standalone="no"?>
<!DOCTYPE svg PUBLIC "-//W3C//DTD SVG 1.1//EN"
 "http://www.w3.org/Graphics/SVG/1.1/DTD/svg11.dtd">
<!-- Generated by graphviz version 2.43.0 (0)
 -->
<!-- Title: OMSimPMTResponse.hh Pages: 1 -->
<svg width="1430pt" height="302pt"
 viewBox="0.00 0.00 1430.00 302.00" xmlns="http://www.w3.org/2000/svg" xmlns:xlink="http://www.w3.org/1999/xlink">
<g id="graph0" class="graph" transform="scale(1 1) rotate(0) translate(4 298)">
<title>OMSimPMTResponse.hh</title>
<!-- Node1 -->
<g id="Node000001" class="node">
<title>Node1</title>
<g id="a_Node000001"><a xlink:title="Simulation of PMT response.">
<polygon fill="#999999" stroke="#666666" points="707.5,-294 572.5,-294 572.5,-275 707.5,-275 707.5,-294"/>
<text text-anchor="middle" x="640" y="-282" font-family="Helvetica,sans-Serif" font-size="10.00">OMSimPMTResponse.hh</text>
</a>
</g>
</g>
<!-- Node2 -->
<g id="Node000002" class="node">
<title>Node2</title>
<g id="a_Node000002"><a xlink:href="_o_m_sim_effective_area_analyisis_8hh_source.html" target="_top" xlink:title=" ">
<polygon fill="white" stroke="#666666" points="728,-184 552,-184 552,-165 728,-165 728,-184"/>
<text text-anchor="middle" x="640" y="-172" font-family="Helvetica,sans-Serif" font-size="10.00">OMSimEffectiveAreaAnalyisis.hh</text>
</a>
</g>
</g>
<!-- Node1&#45;&gt;Node2 -->
<g id="edge1_Node000001_Node000002" class="edge">
<title>Node1&#45;&gt;Node2</title>
<g id="a_edge1_Node000001_Node000002"><a xlink:title=" ">
<path fill="none" stroke="#63b8ff" d="M640,-264.48C640,-240.84 640,-201.5 640,-184.16"/>
<polygon fill="#63b8ff" stroke="#63b8ff" points="636.5,-264.66 640,-274.66 643.5,-264.66 636.5,-264.66"/>
</a>
</g>
</g>
<!-- Node4 -->
<g id="Node000004" class="node">
<title>Node4</title>
<g id="a_Node000004"><a xlink:href="_o_m_sim_effi_cali_analyisis_8hh_source.html" target="_top" xlink:title=" ">
<polygon fill="white" stroke="#666666" points="146,-184 0,-184 0,-165 146,-165 146,-184"/>
<text text-anchor="middle" x="73" y="-172" font-family="Helvetica,sans-Serif" font-size="10.00">OMSimEffiCaliAnalyisis.hh</text>
</a>
</g>
</g>
<!-- Node1&#45;&gt;Node4 -->
<g id="edge3_Node000001_Node000004" class="edge">
<title>Node1&#45;&gt;Node4</title>
<g id="a_edge3_Node000001_Node000004"><a xlink:title=" ">
<path fill="none" stroke="#63b8ff" d="M572.29,-273.45C516.95,-265 436.74,-252.21 367,-239 273.88,-221.37 165.02,-196.82 109.55,-184.02"/>
<polygon fill="#63b8ff" stroke="#63b8ff" points="571.92,-276.93 582.33,-274.98 572.97,-270.01 571.92,-276.93"/>
</a>
</g>
</g>
<!-- Node5 -->
<g id="Node000005" class="node">
<title>Node5</title>
<g id="a_Node000005"><a xlink:href="_o_m_sim_hit_manager_8hh.html" target="_top" xlink:title="Defines structures and classes related to optical module photon hit management.">
<polygon fill="white" stroke="#666666" points="499.5,-239 376.5,-239 376.5,-220 499.5,-220 499.5,-239"/>
<text text-anchor="middle" x="438" y="-227" font-family="Helvetica,sans-Serif" font-size="10.00">OMSimHitManager.hh</text>
</a>
</g>
</g>
<!-- Node1&#45;&gt;Node5 -->
<g id="edge4_Node000001_Node000005" class="edge">
<title>Node1&#45;&gt;Node5</title>
<g id="a_edge4_Node000001_Node000005"><a xlink:title=" ">
<path fill="none" stroke="#63b8ff" d="M597.84,-272.44C560.02,-262.52 505.31,-248.16 470.71,-239.08"/>
<polygon fill="#63b8ff" stroke="#63b8ff" points="596.98,-275.83 607.55,-274.98 598.76,-269.06 596.98,-275.83"/>
</a>
</g>
</g>
<!-- Node26 -->
<g id="Node000026" class="node">
<title>Node26</title>
<g id="a_Node000026"><a xlink:href="_o_m_sim_p_m_t_construction_8hh.html" target="_top" xlink:title="Construction of the PMTs.">
<polygon fill="white" stroke="#666666" points="1053.5,-239 904.5,-239 904.5,-220 1053.5,-220 1053.5,-239"/>
<text text-anchor="middle" x="979" y="-227" font-family="Helvetica,sans-Serif" font-size="10.00">OMSimPMTConstruction.hh</text>
</a>
</g>
</g>
<!-- Node1&#45;&gt;Node26 -->
<g id="edge38_Node000001_Node000026" class="edge">
<title>Node1&#45;&gt;Node26</title>
<g id="a_edge38_Node000001_Node000026"><a xlink:title=" ">
<path fill="none" stroke="#63b8ff" d="M704.39,-273.43C768.04,-263.48 864.37,-248.42 924.39,-239.04"/>
<polygon fill="#63b8ff" stroke="#63b8ff" points="703.81,-269.98 694.47,-274.98 704.89,-276.9 703.81,-269.98"/>
</a>
</g>
</g>
<!-- Node27 -->
<g id="Node000027" class="node">
<title>Node27</title>
<g id="a_Node000027"><a xlink:href="_o_m_sim_sensitive_detector_8hh_source.html" target="_top" xlink:title=" ">
<polygon fill="white" stroke="#666666" points="1242.5,-239 1089.5,-239 1089.5,-220 1242.5,-220 1242.5,-239"/>
<text text-anchor="middle" x="1166" y="-227" font-family="Helvetica,sans-Serif" font-size="10.00">OMSimSensitiveDetector.hh</text>
</a>
</g>
</g>
<!-- Node1&#45;&gt;Node27 -->
<g id="edge46_Node000001_Node000027" class="edge">
<title>Node1&#45;&gt;Node27</title>
<g id="a_edge46_Node000001_Node000027"><a xlink:title=" ">
<path fill="none" stroke="#63b8ff" d="M717.71,-275.67C817.55,-265.61 989.79,-248.25 1089.19,-238.24"/>
<polygon fill="#63b8ff" stroke="#63b8ff" points="717.29,-272.19 707.69,-276.68 717.99,-279.16 717.29,-272.19"/>
</a>
</g>
</g>
<!-- Node3 -->
<g id="Node000003" class="node">
<title>Node3</title>
<g id="a_Node000003"><a xlink:href="_o_m_sim__effective__area_8cc.html" target="_top" xlink:title="Main for the calculation of effective areas.">
<polygon fill="white" stroke="#666666" points="642,-19 502,-19 502,0 642,0 642,-19"/>
<text text-anchor="middle" x="572" y="-7" font-family="Helvetica,sans-Serif" font-size="10.00">OMSim_effective_area.cc</text>
</a>
</g>
</g>
<!-- Node2&#45;&gt;Node3 -->
<g id="edge2_Node000002_Node000003" class="edge">
<title>Node2&#45;&gt;Node3</title>
<g id="a_edge2_Node000002_Node000003"><a xlink:title=" ">
<path fill="none" stroke="#63b8ff" d="M613.37,-159.79C601.71,-152.33 589.08,-141.96 582,-129 562,-92.41 567.33,-39.78 570.48,-19.21"/>
<polygon fill="#63b8ff" stroke="#63b8ff" points="611.62,-162.81 622,-164.92 615.19,-156.8 611.62,-162.81"/>
</a>
</g>
</g>
<!-- Node5&#45;&gt;Node2 -->
<g id="edge5_Node000005_Node000002" class="edge">
<title>Node5&#45;&gt;Node2</title>
<g id="a_edge5_Node000005_Node000002"><a xlink:title=" ">
<path fill="none" stroke="#63b8ff" d="M480.16,-217.44C517.98,-207.52 572.69,-193.16 607.29,-184.08"/>
<polygon fill="#63b8ff" stroke="#63b8ff" points="479.24,-214.06 470.45,-219.98 481.02,-220.83 479.24,-214.06"/>
</a>
</g>
</g>
<!-- Node5&#45;&gt;Node4 -->
<g id="edge6_Node000005_Node000004" class="edge">
<title>Node5&#45;&gt;Node4</title>
<g id="a_edge6_Node000005_Node000004"><a xlink:title=" ">
<path fill="none" stroke="#63b8ff" d="M369.09,-218.49C300.56,-208.54 196.56,-193.44 131.8,-184.04"/>
<polygon fill="#63b8ff" stroke="#63b8ff" points="368.96,-222.01 379.36,-219.98 369.96,-215.08 368.96,-222.01"/>
</a>
</g>
</g>
<!-- Node6 -->
<g id="Node000006" class="node">
<title>Node6</title>
<g id="a_Node000006"><a xlink:href="_o_m_sim_optical_module_8hh_source.html" target="_top" xlink:title=" ">
<polygon fill="white" stroke="#666666" points="999.5,-184 862.5,-184 862.5,-165 999.5,-165 999.5,-184"/>
<text text-anchor="middle" x="931" y="-172" font-family="Helvetica,sans-Serif" font-size="10.00">OMSimOpticalModule.hh</text>
</a>
</g>
</g>
<!-- Node5&#45;&gt;Node6 -->
<g id="edge7_Node000005_Node000006" class="edge">
<title>Node5&#45;&gt;Node6</title>
<g id="a_edge7_Node000005_Node000006"><a xlink:title=" ">
<path fill="none" stroke="#63b8ff" d="M509.98,-220.76C604.5,-210.6 769.28,-192.89 862.19,-182.9"/>
<polygon fill="#63b8ff" stroke="#63b8ff" points="509.51,-217.29 499.94,-221.84 510.26,-224.25 509.51,-217.29"/>
</a>
</g>
</g>
<!-- Node9 -->
<g id="Node000009" class="node">
<title>Node9</title>
<g id="a_Node000009"><a xlink:href="_o_m_sim__radioactive__decays_8cc.html" target="_top" xlink:title="Main of the radioactive decay study.">
<polygon fill="white" stroke="#666666" points="970.5,-19 805.5,-19 805.5,0 970.5,0 970.5,-19"/>
<text text-anchor="middle" x="888" y="-7" font-family="Helvetica,sans-Serif" font-size="10.00">OMSim_radioactive_decays.cc</text>
</a>
</g>
</g>
<!-- Node5&#45;&gt;Node9 -->
<g id="edge37_Node000005_Node000009" class="edge">
<title>Node5&#45;&gt;Node9</title>
<g id="a_edge37_Node000005_Node000009"><a xlink:title=" ">
<path fill="none" stroke="#63b8ff" d="M463.97,-214.96C477.3,-207.14 493.18,-196.4 505,-184 551.06,-135.66 526.46,-92.07 582,-55 617.55,-31.27 727.29,-19.84 805.15,-14.6"/>
<polygon fill="#63b8ff" stroke="#63b8ff" points="462.22,-211.92 455.23,-219.89 465.66,-218.02 462.22,-211.92"/>
</a>
</g>
</g>
<!-- Node13 -->
<g id="Node000013" class="node">
<title>Node13</title>
<g id="a_Node000013"><a xlink:href="_o_m_sim_supernova_8cc.html" target="_top" xlink:title="Main of the supernova study.">
<polygon fill="white" stroke="#666666" points="365.5,-19 248.5,-19 248.5,0 365.5,0 365.5,-19"/>
<text text-anchor="middle" x="307" y="-7" font-family="Helvetica,sans-Serif" font-size="10.00">OMSimSupernova.cc</text>
</a>
</g>
</g>
<!-- Node5&#45;&gt;Node13 -->
<g id="edge36_Node000005_Node000013" class="edge">
<title>Node5&#45;&gt;Node13</title>
<g id="a_edge36_Node000005_Node000013"><a xlink:title=" ">
<path fill="none" stroke="#63b8ff" d="M366.11,-220.14C297.88,-211.47 204.13,-197.34 193,-184 144.15,-125.48 253.83,-45.23 293.44,-19.1"/>
<polygon fill="#63b8ff" stroke="#63b8ff" points="366.04,-223.66 376.4,-221.43 366.91,-216.72 366.04,-223.66"/>
</a>
</g>
</g>
<!-- Node23 -->
<g id="Node000023" class="node">
<title>Node23</title>
<g id="a_Node000023"><a xlink:href="_o_m_sim_run_action_8hh_source.html" target="_top" xlink:title=" ">
<polygon fill="white" stroke="#666666" points="496,-184 380,-184 380,-165 496,-165 496,-184"/>
<text text-anchor="middle" x="438" y="-172" font-family="Helvetica,sans-Serif" font-size="10.00">OMSimRunAction.hh</text>
</a>
</g>
</g>
<!-- Node5&#45;&gt;Node23 -->
<g id="edge30_Node000005_Node000023" class="edge">
<title>Node5&#45;&gt;Node23</title>
<g id="a_edge30_Node000005_Node000023"><a xlink:title=" ">
<path fill="none" stroke="#63b8ff" d="M438,-209.66C438,-200.93 438,-190.99 438,-184.09"/>
<polygon fill="#63b8ff" stroke="#63b8ff" points="434.5,-209.75 438,-219.75 441.5,-209.75 434.5,-209.75"/>
</a>
</g>
</g>
<!-- Node24 -->
<g id="Node000024" class="node">
<title>Node24</title>
<g id="a_Node000024"><a xlink:href="_o_m_sim_s_n_analysis_8cc.html" target="_top" xlink:title="Analyze data and write output files.">
<polygon fill="white" stroke="#666666" points="411,-129 291,-129 291,-110 411,-110 411,-129"/>
<text text-anchor="middle" x="351" y="-117" font-family="Helvetica,sans-Serif" font-size="10.00">OMSimSNAnalysis.cc</text>
</a>
</g>
</g>
<!-- Node5&#45;&gt;Node24 -->
<g id="edge32_Node000005_Node000024" class="edge">
<title>Node5&#45;&gt;Node24</title>
<g id="a_edge32_Node000005_Node000024"><a xlink:title=" ">
<path fill="none" stroke="#63b8ff" d="M409.43,-215.25C396.07,-207.76 380.96,-197.24 371,-184 358.36,-167.19 353.58,-142.19 351.88,-129.14"/>
<polygon fill="#63b8ff" stroke="#63b8ff" points="407.83,-218.36 418.31,-219.94 411.1,-212.17 407.83,-218.36"/>
</a>
</g>
</g>
<!-- Node25 -->
<g id="Node000025" class="node">
<title>Node25</title>
<g id="a_Node000025"><a xlink:href="_o_m_sim_s_n_analysis_8hh_source.html" target="_top" xlink:title=" ">
<polygon fill="white" stroke="#666666" points="324,-184 202,-184 202,-165 324,-165 324,-184"/>
<text text-anchor="middle" x="263" y="-172" font-family="Helvetica,sans-Serif" font-size="10.00">OMSimSNAnalysis.hh</text>
</a>
</g>
</g>
<!-- Node5&#45;&gt;Node25 -->
<g id="edge33_Node000005_Node000025" class="edge">
<title>Node5&#45;&gt;Node25</title>
<g id="a_edge33_Node000005_Node000025"><a xlink:title=" ">
<path fill="none" stroke="#63b8ff" d="M400.21,-217.06C367.5,-207.15 320.93,-193.04 291.34,-184.08"/>
<polygon fill="#63b8ff" stroke="#63b8ff" points="399.3,-220.44 409.88,-219.98 401.33,-213.74 399.3,-220.44"/>
</a>
</g>
</g>
<!-- Node7 -->
<g id="Node000007" class="node">
<title>Node7</title>
<g id="a_Node000007"><a xlink:href="_o_m_sim_d_e_g_g_8hh.html" target="_top" xlink:title="Construction of the DEGG class. From DOUMEKI.">
<polygon fill="white" stroke="#666666" points="1065.5,-129 970.5,-129 970.5,-110 1065.5,-110 1065.5,-129"/>
<text text-anchor="middle" x="1018" y="-117" font-family="Helvetica,sans-Serif" font-size="10.00">OMSimDEGG.hh</text>
</a>
</g>
</g>
<!-- Node6&#45;&gt;Node7 -->
<g id="edge8_Node000006_Node000007" class="edge">
<title>Node6&#45;&gt;Node7</title>
<g id="a_edge8_Node000006_Node000007"><a xlink:title=" ">
<path fill="none" stroke="#63b8ff" d="M953.66,-159.7C969.51,-150.04 990.19,-137.44 1003.77,-129.17"/>
<polygon fill="#63b8ff" stroke="#63b8ff" points="951.7,-156.79 944.98,-164.98 955.34,-162.77 951.7,-156.79"/>
</a>
</g>
</g>
<!-- Node8 -->
<g id="Node000008" class="node">
<title>Node8</title>
<g id="a_Node000008"><a xlink:href="_o_m_sim_decays_g_p_s_8hh.html" target="_top" xlink:title="Defines the OMSimDecaysGPS class for the radioactive decays simulation.">
<polygon fill="white" stroke="#666666" points="1246,-74 1124,-74 1124,-55 1246,-55 1246,-74"/>
<text text-anchor="middle" x="1185" y="-62" font-family="Helvetica,sans-Serif" font-size="10.00">OMSimDecaysGPS.hh</text>
</a>
</g>
</g>
<!-- Node6&#45;&gt;Node8 -->
<g id="edge9_Node000006_Node000008" class="edge">
<title>Node6&#45;&gt;Node8</title>
<g id="a_edge9_Node000006_Node000008"><a xlink:title=" ">
<path fill="none" stroke="#63b8ff" d="M935.2,-155.11C939.48,-140.64 947.6,-121.1 962,-110 975.15,-99.86 1067.34,-83.83 1128.99,-74.03"/>
<polygon fill="#63b8ff" stroke="#63b8ff" points="931.76,-154.42 932.63,-164.98 938.54,-156.18 931.76,-154.42"/>
</a>
</g>
</g>
<!-- Node10 -->
<g id="Node000010" class="node">
<title>Node10</title>
<g id="a_Node000010"><a xlink:href="_o_m_sim_detector_construction_8hh_source.html" target="_top" xlink:title=" ">
<polygon fill="white" stroke="#666666" points="876,-129 706,-129 706,-110 876,-110 876,-129"/>
<text text-anchor="middle" x="791" y="-117" font-family="Helvetica,sans-Serif" font-size="10.00">OMSimDetectorConstruction.hh</text>
</a>
</g>
</g>
<!-- Node6&#45;&gt;Node10 -->
<g id="edge11_Node000006_Node000010" class="edge">
<title>Node6&#45;&gt;Node10</title>
<g id="a_edge11_Node000006_Node000010"><a xlink:title=" ">
<path fill="none" stroke="#63b8ff" d="M899.09,-161.42C873.12,-151.59 837.08,-137.95 813.9,-129.17"/>
<polygon fill="#63b8ff" stroke="#63b8ff" points="897.92,-164.72 908.51,-164.98 900.39,-158.17 897.92,-164.72"/>
</a>
</g>
</g>
<!-- Node16 -->
<g id="Node000016" class="node">
<title>Node16</title>
<g id="a_Node000016"><a xlink:href="_o_m_sim_rad_decays_detector_8hh.html" target="_top" xlink:title="Defines the OMSimRadDecaysDetector class for the radioactive decays simulation.">
<polygon fill="white" stroke="#666666" points="1105.5,-74 942.5,-74 942.5,-55 1105.5,-55 1105.5,-74"/>
<text text-anchor="middle" x="1024" y="-62" font-family="Helvetica,sans-Serif" font-size="10.00">OMSimRadDecaysDetector.hh</text>
</a>
</g>
</g>
<!-- Node6&#45;&gt;Node16 -->
<g id="edge29_Node000006_Node000016" class="edge">
<title>Node6&#45;&gt;Node16</title>
<g id="a_edge29_Node000006_Node000016"><a xlink:title=" ">
<path fill="none" stroke="#63b8ff" d="M924.84,-155.25C921.45,-141.71 919.47,-123.36 928,-110 939.87,-91.42 961.7,-80.48 981.55,-74.1"/>
<polygon fill="#63b8ff" stroke="#63b8ff" points="921.5,-156.29 927.68,-164.89 928.21,-154.31 921.5,-156.29"/>
</a>
</g>
</g>
<!-- Node18 -->
<g id="Node000018" class="node">
<title>Node18</title>
<g id="a_Node000018"><a xlink:href="_o_m_sim_l_o_m16_8hh.html" target="_top" xlink:title="Construction of LOM16.">
<polygon fill="white" stroke="#666666" points="1184.5,-129 1083.5,-129 1083.5,-110 1184.5,-110 1184.5,-129"/>
<text text-anchor="middle" x="1134" y="-117" font-family="Helvetica,sans-Serif" font-size="10.00">OMSimLOM16.hh</text>
</a>
</g>
</g>
<!-- Node6&#45;&gt;Node18 -->
<g id="edge24_Node000006_Node000018" class="edge">
<title>Node6&#45;&gt;Node18</title>
<g id="a_edge24_Node000006_Node000018"><a xlink:title=" ">
<path fill="none" stroke="#63b8ff" d="M973.37,-162.44C1011.37,-152.52 1066.36,-138.16 1101.13,-129.08"/>
<polygon fill="#63b8ff" stroke="#63b8ff" points="972.41,-159.07 963.62,-164.98 974.18,-165.84 972.41,-159.07"/>
</a>
</g>
</g>
<!-- Node19 -->
<g id="Node000019" class="node">
<title>Node19</title>
<g id="a_Node000019"><a xlink:href="_o_m_sim_l_o_m18_8hh.html" target="_top" xlink:title="Construction of LOM18.">
<polygon fill="white" stroke="#666666" points="1303.5,-129 1202.5,-129 1202.5,-110 1303.5,-110 1303.5,-129"/>
<text text-anchor="middle" x="1253" y="-117" font-family="Helvetica,sans-Serif" font-size="10.00">OMSimLOM18.hh</text>
</a>
</g>
</g>
<!-- Node6&#45;&gt;Node19 -->
<g id="edge25_Node000006_Node000019" class="edge">
<title>Node6&#45;&gt;Node19</title>
<g id="a_edge25_Node000006_Node000019"><a xlink:title=" ">
<path fill="none" stroke="#63b8ff" d="M992.61,-163.36C1053.55,-153.33 1145.69,-138.16 1202.46,-128.82"/>
<polygon fill="#63b8ff" stroke="#63b8ff" points="992.03,-159.91 982.73,-164.98 993.17,-166.81 992.03,-159.91"/>
</a>
</g>
</g>
<!-- Node21 -->
<g id="Node000021" class="node">
<title>Node21</title>
<g id="a_Node000021"><a xlink:href="_o_m_sim_m_d_o_m_8hh.html" target="_top" xlink:title="Construction of mDOM.">
<polygon fill="white" stroke="#666666" points="1422,-129 1322,-129 1322,-110 1422,-110 1422,-129"/>
<text text-anchor="middle" x="1372" y="-117" font-family="Helvetica,sans-Serif" font-size="10.00">OMSimMDOM.hh</text>
</a>
</g>
</g>
<!-- Node6&#45;&gt;Node21 -->
<g id="edge27_Node000006_Node000021" class="edge">
<title>Node6&#45;&gt;Node21</title>
<g id="a_edge27_Node000006_Node000021"><a xlink:title=" ">
<path fill="none" stroke="#63b8ff" d="M1009.87,-164.94C1087.17,-156.41 1208.29,-142.64 1313,-129 1315.87,-128.63 1318.82,-128.23 1321.8,-127.83"/>
<polygon fill="#63b8ff" stroke="#63b8ff" points="1009.29,-161.49 999.73,-166.06 1010.05,-168.44 1009.29,-161.49"/>
</a>
</g>
</g>
<!-- Node22 -->
<g id="Node000022" class="node">
<title>Node22</title>
<g id="a_Node000022"><a xlink:href="_o_m_sim_p_d_o_m_8hh.html" target="_top" xlink:title="Implementation of the pDOM (deepcore) or Gen1 DOM..">
<polygon fill="white" stroke="#666666" points="687.5,-129 590.5,-129 590.5,-110 687.5,-110 687.5,-129"/>
<text text-anchor="middle" x="639" y="-117" font-family="Helvetica,sans-Serif" font-size="10.00">OMSimPDOM.hh</text>
</a>
</g>
</g>
<!-- Node6&#45;&gt;Node22 -->
<g id="edge28_Node000006_Node000022" class="edge">
<title>Node6&#45;&gt;Node22</title>
<g id="a_edge28_Node000006_Node000022"><a xlink:title=" ">
<path fill="none" stroke="#63b8ff" d="M874.19,-163.19C819.45,-153.25 737.58,-138.39 686.28,-129.08"/>
<polygon fill="#63b8ff" stroke="#63b8ff" points="873.62,-166.64 884.09,-164.98 874.87,-159.75 873.62,-166.64"/>
</a>
</g>
</g>
<!-- Node8&#45;&gt;Node9 -->
<g id="edge10_Node000008_Node000009" class="edge">
<title>Node8&#45;&gt;Node9</title>
<g id="a_edge10_Node000008_Node000009"><a xlink:title=" ">
<path fill="none" stroke="#63b8ff" d="M1127.22,-53.19C1071.54,-43.25 988.26,-28.39 936.09,-19.08"/>
<polygon fill="#63b8ff" stroke="#63b8ff" points="1126.82,-56.67 1137.28,-54.98 1128.05,-49.78 1126.82,-56.67"/>
</a>
</g>
</g>
<!-- Node11 -->
<g id="Node000011" class="node">
<title>Node11</title>
<g id="a_Node000011"><a xlink:href="_o_m_sim_8hh.html" target="_top" xlink:title="Main simulation class for the Optical Module (OM) simulation. This file defines the OMSim class,...">
<polygon fill="white" stroke="#666666" points="495.5,-74 428.5,-74 428.5,-55 495.5,-55 495.5,-74"/>
<text text-anchor="middle" x="462" y="-62" font-family="Helvetica,sans-Serif" font-size="10.00">OMSim.hh</text>
</a>
</g>
</g>
<!-- Node10&#45;&gt;Node11 -->
<g id="edge12_Node000010_Node000011" class="edge">
<title>Node10&#45;&gt;Node11</title>
<g id="a_edge12_Node000010_Node000011"><a xlink:title=" ">
<path fill="none" stroke="#63b8ff" d="M728.23,-108.39C659.01,-97.24 550.25,-79.72 495.64,-70.92"/>
<polygon fill="#63b8ff" stroke="#63b8ff" points="727.71,-111.85 738.14,-109.98 728.82,-104.94 727.71,-111.85"/>
</a>
</g>
</g>
<!-- Node14 -->
<g id="Node000014" class="node">
<title>Node14</title>
<g id="a_Node000014"><a xlink:href="_o_m_sim_effective_area_detector_8hh.html" target="_top" xlink:title="Defines the OMSimEffectiveAreaDetector class for effective area simulation detector construction.">
<polygon fill="white" stroke="#666666" points="924.5,-74 751.5,-74 751.5,-55 924.5,-55 924.5,-74"/>
<text text-anchor="middle" x="838" y="-62" font-family="Helvetica,sans-Serif" font-size="10.00">OMSimEffectiveAreaDetector.hh</text>
</a>
</g>
</g>
<!-- Node10&#45;&gt;Node14 -->
<g id="edge17_Node000010_Node000014" class="edge">
<title>Node10&#45;&gt;Node14</title>
<g id="a_edge17_Node000010_Node000014"><a xlink:title=" ">
<path fill="none" stroke="#63b8ff" d="M805.42,-102.24C813.66,-92.95 823.65,-81.68 830.38,-74.09"/>
<polygon fill="#63b8ff" stroke="#63b8ff" points="802.78,-99.94 798.76,-109.75 808.01,-104.59 802.78,-99.94"/>
</a>
</g>
</g>
<!-- Node15 -->
<g id="Node000015" class="node">
<title>Node15</title>
<g id="a_Node000015"><a xlink:href="_o_m_sim_effi_cali_detector_8hh_source.html" target="_top" xlink:title=" ">
<polygon fill="white" stroke="#666666" points="733.5,-74 590.5,-74 590.5,-55 733.5,-55 733.5,-74"/>
<text text-anchor="middle" x="662" y="-62" font-family="Helvetica,sans-Serif" font-size="10.00">OMSimEffiCaliDetector.hh</text>
</a>
</g>
</g>
<!-- Node10&#45;&gt;Node15 -->
<g id="edge19_Node000010_Node000015" class="edge">
<title>Node10&#45;&gt;Node15</title>
<g id="a_edge19_Node000010_Node000015"><a xlink:title=" ">
<path fill="none" stroke="#63b8ff" d="M760.96,-106.16C737.08,-96.35 704.28,-82.87 683.1,-74.17"/>
<polygon fill="#63b8ff" stroke="#63b8ff" points="759.69,-109.42 770.27,-109.98 762.35,-102.95 759.69,-109.42"/>
</a>
</g>
</g>
<!-- Node10&#45;&gt;Node16 -->
<g id="edge20_Node000010_Node000016" class="edge">
<title>Node10&#45;&gt;Node16</title>
<g id="a_edge20_Node000010_Node000016"><a xlink:title=" ">
<path fill="none" stroke="#63b8ff" d="M838.25,-107.75C881.91,-97.82 945.94,-83.26 986.27,-74.08"/>
<polygon fill="#63b8ff" stroke="#63b8ff" points="837.41,-104.35 828.44,-109.98 838.96,-111.18 837.41,-104.35"/>
</a>
</g>
</g>
<!-- Node17 -->
<g id="Node000017" class="node">
<title>Node17</title>
<g id="a_Node000017"><a xlink:href="_o_m_sim_s_ndetector_8hh_source.html" target="_top" xlink:title=" ">
<polygon fill="white" stroke="#666666" points="410,-74 290,-74 290,-55 410,-55 410,-74"/>
<text text-anchor="middle" x="350" y="-62" font-family="Helvetica,sans-Serif" font-size="10.00">OMSimSNdetector.hh</text>
</a>
</g>
</g>
<!-- Node10&#45;&gt;Node17 -->
<g id="edge22_Node000010_Node000017" class="edge">
<title>Node10&#45;&gt;Node17</title>
<g id="a_edge22_Node000010_Node000017"><a xlink:title=" ">
<path fill="none" stroke="#63b8ff" d="M708.61,-108.73C633.22,-99.77 518.6,-86.09 419,-74 416.12,-73.65 413.18,-73.29 410.21,-72.93"/>
<polygon fill="#63b8ff" stroke="#63b8ff" points="708.64,-112.26 718.98,-109.96 709.46,-105.31 708.64,-112.26"/>
</a>
</g>
</g>
<!-- Node11&#45;&gt;Node3 -->
<g id="edge15_Node000011_Node000003" class="edge">
<title>Node11&#45;&gt;Node3</title>
<g id="a_edge15_Node000011_Node000003"><a xlink:title=" ">
<path fill="none" stroke="#63b8ff" d="M488.7,-50.63C508.97,-40.87 536.27,-27.71 554.01,-19.17"/>
<polygon fill="#63b8ff" stroke="#63b8ff" points="487.16,-47.49 479.67,-54.98 490.2,-53.8 487.16,-47.49"/>
</a>
</g>
</g>
<!-- Node11&#45;&gt;Node9 -->
<g id="edge16_Node000011_Node000009" class="edge">
<title>Node11&#45;&gt;Node9</title>
<g id="a_edge16_Node000011_Node000009"><a xlink:title=" ">
<path fill="none" stroke="#63b8ff" d="M505.54,-55.68C507.05,-55.44 508.53,-55.22 510,-55 611.33,-40.08 728.53,-26.91 805.23,-18.85"/>
<polygon fill="#63b8ff" stroke="#63b8ff" points="504.84,-52.24 495.53,-57.31 505.96,-59.15 504.84,-52.24"/>
</a>
</g>
</g>
<!-- Node12 -->
<g id="Node000012" class="node">
<title>Node12</title>
<g id="a_Node000012"><a xlink:href="_o_m_sim_8cc.html" target="_top" xlink:title="Implementation of the OMSim class.">
<polygon fill="white" stroke="#666666" points="483.5,-19 418.5,-19 418.5,0 483.5,0 483.5,-19"/>
<text text-anchor="middle" x="451" y="-7" font-family="Helvetica,sans-Serif" font-size="10.00">OMSim.cc</text>
</a>
</g>
</g>
<!-- Node11&#45;&gt;Node12 -->
<g id="edge13_Node000011_Node000012" class="edge">
<title>Node11&#45;&gt;Node12</title>
<g id="a_edge13_Node000011_Node000012"><a xlink:title=" ">
<path fill="none" stroke="#63b8ff" d="M458.15,-44.95C456.32,-36.15 454.23,-26.06 452.78,-19.09"/>
<polygon fill="#63b8ff" stroke="#63b8ff" points="454.72,-45.67 460.18,-54.75 461.58,-44.25 454.72,-45.67"/>
</a>
</g>
</g>
<!-- Node11&#45;&gt;Node13 -->
<g id="edge14_Node000011_Node000013" class="edge">
<title>Node11&#45;&gt;Node13</title>
<g id="a_edge14_Node000011_Node000013"><a xlink:title=" ">
<path fill="none" stroke="#63b8ff" d="M427.4,-51.67C398.5,-41.79 357.97,-27.93 332.1,-19.08"/>
<polygon fill="#63b8ff" stroke="#63b8ff" points="426.5,-55.06 437.1,-54.98 428.77,-48.44 426.5,-55.06"/>
</a>
</g>
</g>
<!-- Node14&#45;&gt;Node3 -->
<g id="edge18_Node000014_Node000003" class="edge">
<title>Node14&#45;&gt;Node3</title>
<g id="a_edge18_Node000014_Node000003"><a xlink:title=" ">
<path fill="none" stroke="#63b8ff" d="M785.32,-53C735.45,-43.07 661.51,-28.33 615.07,-19.08"/>
<polygon fill="#63b8ff" stroke="#63b8ff" points="784.77,-56.46 795.26,-54.98 786.14,-49.6 784.77,-56.46"/>
</a>
</g>
</g>
<!-- Node16&#45;&gt;Node9 -->
<g id="edge21_Node000016_Node000009" class="edge">
<title>Node16&#45;&gt;Node9</title>
<g id="a_edge21_Node000016_Node000009"><a xlink:title=" ">
<path fill="none" stroke="#63b8ff" d="M992.67,-51.29C967.46,-41.47 932.67,-27.91 910.25,-19.17"/>
<polygon fill="#63b8ff" stroke="#63b8ff" points="991.56,-54.61 1002.15,-54.98 994.1,-48.09 991.56,-54.61"/>
</a>
</g>
</g>
<!-- Node17&#45;&gt;Node13 -->
<g id="edge23_Node000017_Node000013" class="edge">
<title>Node17&#45;&gt;Node13</title>
<g id="a_edge23_Node000017_Node000013"><a xlink:title=" ">
<path fill="none" stroke="#63b8ff" d="M336.58,-46.96C329.09,-37.72 320.06,-26.6 313.97,-19.09"/>
<polygon fill="#63b8ff" stroke="#63b8ff" points="333.88,-49.19 342.9,-54.75 339.32,-44.78 333.88,-49.19"/>
</a>
</g>
</g>
<!-- Node20 -->
<g id="Node000020" class="node">
<title>Node20</title>
<g id="a_Node000020"><a xlink:href="_o_m_sim_l_o_m18_8cc.html" target="_top" xlink:title=" ">
<polygon fill="white" stroke="#666666" points="1363.5,-74 1264.5,-74 1264.5,-55 1363.5,-55 1363.5,-74"/>
<text text-anchor="middle" x="1314" y="-62" font-family="Helvetica,sans-Serif" font-size="10.00">OMSimLOM18.cc</text>
</a>
</g>
</g>
<!-- Node19&#45;&gt;Node20 -->
<g id="edge26_Node000019_Node000020" class="edge">
<title>Node19&#45;&gt;Node20</title>
<g id="a_edge26_Node000019_Node000020"><a xlink:title=" ">
<path fill="none" stroke="#63b8ff" d="M1270.47,-103.32C1281.34,-93.87 1294.94,-82.06 1304.02,-74.17"/>
<polygon fill="#63b8ff" stroke="#63b8ff" points="1268.05,-100.78 1262.8,-109.98 1272.65,-106.07 1268.05,-100.78"/>
</a>
</g>
</g>
<!-- Node23&#45;&gt;Node11 -->
<g id="edge31_Node000023_Node000011" class="edge">
<title>Node23&#45;&gt;Node11</title>
<g id="a_edge31_Node000023_Node000011"><a xlink:title=" ">
<path fill="none" stroke="#63b8ff" d="M442.15,-154.8C447.4,-131.2 456.21,-91.58 460.08,-74.16"/>
<polygon fill="#63b8ff" stroke="#63b8ff" points="438.72,-154.14 439.96,-164.66 445.55,-155.66 438.72,-154.14"/>
</a>
</g>
</g>
<!-- Node25&#45;&gt;Node13 -->
<g id="edge35_Node000025_Node000013" class="edge">
<title>Node25&#45;&gt;Node13</title>
<g id="a_edge35_Node000025_Node000013"><a xlink:title=" ">
<path fill="none" stroke="#63b8ff" d="M263.67,-154.8C265.01,-131 269.02,-88.89 281,-55 285.71,-41.67 294.51,-27.84 300.56,-19.21"/>
<polygon fill="#63b8ff" stroke="#63b8ff" points="260.17,-154.75 263.21,-164.9 267.16,-155.07 260.17,-154.75"/>
</a>
</g>
</g>
<!-- Node25&#45;&gt;Node24 -->
<g id="edge34_Node000025_Node000024" class="edge">
<title>Node25&#45;&gt;Node24</title>
<g id="a_edge34_Node000025_Node000024"><a xlink:title=" ">
<path fill="none" stroke="#63b8ff" d="M285.92,-159.7C301.95,-150.04 322.87,-137.44 336.6,-129.17"/>
<polygon fill="#63b8ff" stroke="#63b8ff" points="283.9,-156.83 277.14,-164.98 287.51,-162.82 283.9,-156.83"/>
</a>
</g>
</g>
<!-- Node26&#45;&gt;Node6 -->
<g id="edge43_Node000026_Node000006" class="edge">
<title>Node26&#45;&gt;Node6</title>
<g id="a_edge43_Node000026_Node000006"><a xlink:title=" ">
<path fill="none" stroke="#63b8ff" d="M964.27,-212.24C955.86,-202.95 945.65,-191.68 938.78,-184.09"/>
<polygon fill="#63b8ff" stroke="#63b8ff" points="961.77,-214.69 971.07,-219.75 966.96,-209.99 961.77,-214.69"/>
</a>
</g>
</g>
<!-- Node26&#45;&gt;Node7 -->
<g id="edge39_Node000026_Node000007" class="edge">
<title>Node26&#45;&gt;Node7</title>
<g id="a_edge39_Node000026_Node000007"><a xlink:title=" ">
<path fill="none" stroke="#63b8ff" d="M992.81,-211.93C998.73,-203.96 1005.16,-193.98 1009,-184 1016.19,-165.29 1017.72,-141.5 1017.99,-129.02"/>
<polygon fill="#63b8ff" stroke="#63b8ff" points="989.92,-209.94 986.5,-219.97 995.43,-214.26 989.92,-209.94"/>
</a>
</g>
</g>
<!-- Node26&#45;&gt;Node18 -->
<g id="edge40_Node000026_Node000018" class="edge">
<title>Node26&#45;&gt;Node18</title>
<g id="a_edge40_Node000026_Node000018"><a xlink:title=" ">
<path fill="none" stroke="#63b8ff" d="M999.8,-214.01C1032.5,-191.22 1094.94,-147.72 1121.52,-129.2"/>
<polygon fill="#63b8ff" stroke="#63b8ff" points="997.63,-211.26 991.42,-219.84 1001.63,-217 997.63,-211.26"/>
</a>
</g>
</g>
<!-- Node26&#45;&gt;Node19 -->
<g id="edge41_Node000026_Node000019" class="edge">
<title>Node26&#45;&gt;Node19</title>
<g id="a_edge41_Node000026_Node000019"><a xlink:title=" ">
<path fill="none" stroke="#63b8ff" d="M1010.41,-216.12C1066.62,-193.96 1183.06,-148.07 1231.32,-129.05"/>
<polygon fill="#63b8ff" stroke="#63b8ff" points="1008.98,-212.92 1000.96,-219.84 1011.55,-219.43 1008.98,-212.92"/>
</a>
</g>
</g>
<!-- Node26&#45;&gt;Node21 -->
<g id="edge42_Node000026_Node000021" class="edge">
<title>Node26&#45;&gt;Node21</title>
<g id="a_edge42_Node000026_Node000021"><a xlink:title=" ">
<path fill="none" stroke="#63b8ff" d="M1020.24,-217.17C1099.27,-195.45 1270.46,-148.4 1340.83,-129.07"/>
<polygon fill="#63b8ff" stroke="#63b8ff" points="1018.88,-213.91 1010.17,-219.94 1020.74,-220.66 1018.88,-213.91"/>
</a>
</g>
</g>
<!-- Node26&#45;&gt;Node22 -->
<g id="edge44_Node000026_Node000022" class="edge">
<title>Node26&#45;&gt;Node22</title>
<g id="a_edge44_Node000026_Node000022"><a xlink:title=" ">
<path fill="none" stroke="#63b8ff" d="M942.48,-216.9C873.74,-195.07 726.6,-148.33 665.97,-129.07"/>
<polygon fill="#63b8ff" stroke="#63b8ff" points="941.45,-220.24 952.04,-219.94 943.57,-213.57 941.45,-220.24"/>
</a>
</g>
</g>
<!-- Node26&#45;&gt;Node26 -->
<g id="edge45_Node000026_Node000026" class="edge">
<title>Node26&#45;&gt;Node26</title>
<g id="a_edge45_Node000026_Node000026"><a xlink:title=" ">
<path fill="none" stroke="#63b8ff" d="M1032.29,-239.56C1053.61,-240.13 1071.5,-236.77 1071.5,-229.5 1071.5,-221.12 1047.71,-217.94 1022.3,-219.97"/>
<polygon fill="#63b8ff" stroke="#63b8ff" points="1032.47,-236.07 1022.3,-239.03 1032.1,-243.06 1032.47,-236.07"/>
</a>
</g>
</g>
</g>
</svg>
