<?xml version="1.0" encoding="UTF-8" standalone="no"?>
<!DOCTYPE svg PUBLIC "-//W3C//DTD SVG 1.1//EN"
 "http://www.w3.org/Graphics/SVG/1.1/DTD/svg11.dtd">
<!-- Generated by graphviz version 2.43.0 (0)
 -->
<!-- Title: OMSimSensitiveDetector.cc Pages: 1 -->
<svg width="2842pt" height="207pt"
 viewBox="0.00 0.00 2841.50 207.00" xmlns="http://www.w3.org/2000/svg" xmlns:xlink="http://www.w3.org/1999/xlink">
<g id="graph0" class="graph" transform="scale(1 1) rotate(0) translate(4 203)">
<title>OMSimSensitiveDetector.cc</title>
<polygon fill="white" stroke="transparent" points="-4,4 -4,-203 2837.5,-203 2837.5,4 -4,4"/>
<!-- Node1 -->
<g id="node1" class="node">
<title>Node1</title>
<g id="a_node1"><a xlink:title=" ">
<polygon fill="#bfbfbf" stroke="black" points="1567,-179.5 1567,-198.5 1719,-198.5 1719,-179.5 1567,-179.5"/>
<text text-anchor="middle" x="1643" y="-186.5" font-family="Helvetica,sans-Serif" font-size="10.00">OMSimSensitiveDetector.cc</text>
</a>
</g>
</g>
<!-- Node2 -->
<g id="node2" class="node">
<title>Node2</title>
<g id="a_node2"><a xlink:href="_o_m_sim_sensitive_detector_8hh.html" target="_top" xlink:title=" ">
<polygon fill="white" stroke="black" points="319.5,-123.5 319.5,-142.5 472.5,-142.5 472.5,-123.5 319.5,-123.5"/>
<text text-anchor="middle" x="396" y="-130.5" font-family="Helvetica,sans-Serif" font-size="10.00">OMSimSensitiveDetector.hh</text>
</a>
</g>
</g>
<!-- Node1&#45;&gt;Node2 -->
<g id="edge1" class="edge">
<title>Node1&#45;&gt;Node2</title>
<path fill="none" stroke="midnightblue" d="M1566.97,-186.55C1382.18,-182.69 894.83,-170.53 489,-143 486.91,-142.86 484.8,-142.71 482.67,-142.55"/>
<polygon fill="midnightblue" stroke="midnightblue" points="482.85,-139.05 472.6,-141.77 482.3,-146.03 482.85,-139.05"/>
</g>
<!-- Node5 -->
<g id="node5" class="node">
<title>Node5</title>
<g id="a_node5"><a xlink:href="_o_m_sim_p_m_t_response_8hh.html" target="_top" xlink:title="Simulation of PMT response.">
<polygon fill="white" stroke="black" points="382.5,-67.5 382.5,-86.5 517.5,-86.5 517.5,-67.5 382.5,-67.5"/>
<text text-anchor="middle" x="450" y="-74.5" font-family="Helvetica,sans-Serif" font-size="10.00">OMSimPMTResponse.hh</text>
</a>
</g>
</g>
<!-- Node1&#45;&gt;Node5 -->
<g id="edge24" class="edge">
<title>Node1&#45;&gt;Node5</title>
<path fill="none" stroke="midnightblue" d="M1566.9,-187.16C1366.44,-184.52 827.32,-174.6 652,-143 589.26,-131.69 519.05,-105.97 480.13,-90.49"/>
<polygon fill="midnightblue" stroke="midnightblue" points="481.05,-87.09 470.47,-86.6 478.44,-93.59 481.05,-87.09"/>
</g>
<!-- Node13 -->
<g id="node13" class="node">
<title>Node13</title>
<g id="a_node13"><a xlink:title=" ">
<polygon fill="white" stroke="#bfbfbf" points="1005.5,-123.5 1005.5,-142.5 1064.5,-142.5 1064.5,-123.5 1005.5,-123.5"/>
<text text-anchor="middle" x="1035" y="-130.5" font-family="Helvetica,sans-Serif" font-size="10.00">G4ios.hh</text>
</a>
</g>
</g>
<!-- Node1&#45;&gt;Node13 -->
<g id="edge12" class="edge">
<title>Node1&#45;&gt;Node13</title>
<path fill="none" stroke="midnightblue" d="M1566.66,-185.55C1459.05,-181.29 1256.55,-170.37 1074.74,-142.87"/>
<polygon fill="midnightblue" stroke="midnightblue" points="1075.14,-139.39 1064.72,-141.34 1074.08,-146.31 1075.14,-139.39"/>
</g>
<!-- Node14 -->
<g id="node14" class="node">
<title>Node14</title>
<g id="a_node14"><a xlink:title=" ">
<polygon fill="white" stroke="#bfbfbf" points="1083,-123.5 1083,-142.5 1199,-142.5 1199,-123.5 1083,-123.5"/>
<text text-anchor="middle" x="1141" y="-130.5" font-family="Helvetica,sans-Serif" font-size="10.00">G4LogicalVolume.hh</text>
</a>
</g>
</g>
<!-- Node1&#45;&gt;Node14 -->
<g id="edge13" class="edge">
<title>Node1&#45;&gt;Node14</title>
<path fill="none" stroke="midnightblue" d="M1566.7,-180.82C1481.99,-172.68 1340.92,-158.66 1209.35,-143.13"/>
<polygon fill="midnightblue" stroke="midnightblue" points="1209.43,-139.61 1199.09,-141.91 1208.61,-146.57 1209.43,-139.61"/>
</g>
<!-- Node15 -->
<g id="node15" class="node">
<title>Node15</title>
<g id="a_node15"><a xlink:title=" ">
<polygon fill="white" stroke="#bfbfbf" points="1217,-123.5 1217,-142.5 1345,-142.5 1345,-123.5 1217,-123.5"/>
<text text-anchor="middle" x="1281" y="-130.5" font-family="Helvetica,sans-Serif" font-size="10.00">G4ParticleDefinition.hh</text>
</a>
</g>
</g>
<!-- Node1&#45;&gt;Node15 -->
<g id="edge14" class="edge">
<title>Node1&#45;&gt;Node15</title>
<path fill="none" stroke="midnightblue" d="M1585.64,-179.44C1521.17,-169.83 1416.6,-154.23 1348.31,-144.04"/>
<polygon fill="midnightblue" stroke="midnightblue" points="1348.5,-140.53 1338.09,-142.52 1347.47,-147.45 1348.5,-140.53"/>
</g>
<!-- Node16 -->
<g id="node16" class="node">
<title>Node16</title>
<g id="a_node16"><a xlink:title=" ">
<polygon fill="white" stroke="#bfbfbf" points="1363.5,-123.5 1363.5,-142.5 1472.5,-142.5 1472.5,-123.5 1363.5,-123.5"/>
<text text-anchor="middle" x="1418" y="-130.5" font-family="Helvetica,sans-Serif" font-size="10.00">G4ParticleTypes.hh</text>
</a>
</g>
</g>
<!-- Node1&#45;&gt;Node16 -->
<g id="edge15" class="edge">
<title>Node1&#45;&gt;Node16</title>
<path fill="none" stroke="midnightblue" d="M1607.35,-179.44C1568.34,-170.08 1505.73,-155.06 1463.28,-144.87"/>
<polygon fill="midnightblue" stroke="midnightblue" points="1464.03,-141.45 1453.49,-142.52 1462.39,-148.25 1464.03,-141.45"/>
</g>
<!-- Node17 -->
<g id="node17" class="node">
<title>Node17</title>
<g id="a_node17"><a xlink:title=" ">
<polygon fill="white" stroke="#bfbfbf" points="1490.5,-123.5 1490.5,-142.5 1591.5,-142.5 1591.5,-123.5 1490.5,-123.5"/>
<text text-anchor="middle" x="1541" y="-130.5" font-family="Helvetica,sans-Serif" font-size="10.00">G4SDManager.hh</text>
</a>
</g>
</g>
<!-- Node1&#45;&gt;Node17 -->
<g id="edge16" class="edge">
<title>Node1&#45;&gt;Node17</title>
<path fill="none" stroke="midnightblue" d="M1626.61,-179.32C1610.33,-170.7 1585.13,-157.36 1566.28,-147.39"/>
<polygon fill="midnightblue" stroke="midnightblue" points="1567.82,-144.24 1557.35,-142.65 1564.55,-150.43 1567.82,-144.24"/>
</g>
<!-- Node18 -->
<g id="node18" class="node">
<title>Node18</title>
<g id="a_node18"><a xlink:title=" ">
<polygon fill="white" stroke="#bfbfbf" points="1609.5,-123.5 1609.5,-142.5 1676.5,-142.5 1676.5,-123.5 1609.5,-123.5"/>
<text text-anchor="middle" x="1643" y="-130.5" font-family="Helvetica,sans-Serif" font-size="10.00">G4Step.hh</text>
</a>
</g>
</g>
<!-- Node1&#45;&gt;Node18 -->
<g id="edge17" class="edge">
<title>Node1&#45;&gt;Node18</title>
<path fill="none" stroke="midnightblue" d="M1643,-179.08C1643,-172.01 1643,-161.86 1643,-152.99"/>
<polygon fill="midnightblue" stroke="midnightblue" points="1646.5,-152.75 1643,-142.75 1639.5,-152.75 1646.5,-152.75"/>
</g>
<!-- Node19 -->
<g id="node19" class="node">
<title>Node19</title>
<g id="a_node19"><a xlink:title=" ">
<polygon fill="white" stroke="#bfbfbf" points="1695,-123.5 1695,-142.5 1823,-142.5 1823,-123.5 1695,-123.5"/>
<text text-anchor="middle" x="1759" y="-130.5" font-family="Helvetica,sans-Serif" font-size="10.00">G4TouchableHistory.hh</text>
</a>
</g>
</g>
<!-- Node1&#45;&gt;Node19 -->
<g id="edge18" class="edge">
<title>Node1&#45;&gt;Node19</title>
<path fill="none" stroke="midnightblue" d="M1661.38,-179.44C1680.22,-170.68 1709.73,-156.94 1731.38,-146.86"/>
<polygon fill="midnightblue" stroke="midnightblue" points="1733.12,-149.91 1740.71,-142.52 1730.16,-143.56 1733.12,-149.91"/>
</g>
<!-- Node20 -->
<g id="node20" class="node">
<title>Node20</title>
<g id="a_node20"><a xlink:title=" ">
<polygon fill="white" stroke="#bfbfbf" points="1841.5,-123.5 1841.5,-142.5 1912.5,-142.5 1912.5,-123.5 1841.5,-123.5"/>
<text text-anchor="middle" x="1877" y="-130.5" font-family="Helvetica,sans-Serif" font-size="10.00">G4Track.hh</text>
</a>
</g>
</g>
<!-- Node1&#45;&gt;Node20 -->
<g id="edge19" class="edge">
<title>Node1&#45;&gt;Node20</title>
<path fill="none" stroke="midnightblue" d="M1680.08,-179.44C1721.09,-169.98 1787.19,-154.73 1831.35,-144.54"/>
<polygon fill="midnightblue" stroke="midnightblue" points="1832.29,-147.91 1841.25,-142.25 1830.72,-141.09 1832.29,-147.91"/>
</g>
<!-- Node21 -->
<g id="node21" class="node">
<title>Node21</title>
<g id="a_node21"><a xlink:title=" ">
<polygon fill="white" stroke="#bfbfbf" points="1930.5,-123.5 1930.5,-142.5 2059.5,-142.5 2059.5,-123.5 1930.5,-123.5"/>
<text text-anchor="middle" x="1995" y="-130.5" font-family="Helvetica,sans-Serif" font-size="10.00">G4VPhysicalVolume.hh</text>
</a>
</g>
</g>
<!-- Node1&#45;&gt;Node21 -->
<g id="edge20" class="edge">
<title>Node1&#45;&gt;Node21</title>
<path fill="none" stroke="midnightblue" d="M1698.78,-179.44C1761.47,-169.83 1863.15,-154.23 1929.55,-144.04"/>
<polygon fill="midnightblue" stroke="midnightblue" points="1930.13,-147.49 1939.49,-142.52 1929.07,-140.57 1930.13,-147.49"/>
</g>
<!-- Node22 -->
<g id="node22" class="node">
<title>Node22</title>
<g id="a_node22"><a xlink:title=" ">
<polygon fill="white" stroke="#bfbfbf" points="2077.5,-123.5 2077.5,-142.5 2178.5,-142.5 2178.5,-123.5 2077.5,-123.5"/>
<text text-anchor="middle" x="2128" y="-130.5" font-family="Helvetica,sans-Serif" font-size="10.00">G4VTouchable.hh</text>
</a>
</g>
</g>
<!-- Node1&#45;&gt;Node22 -->
<g id="edge21" class="edge">
<title>Node1&#45;&gt;Node22</title>
<path fill="none" stroke="midnightblue" d="M1719.31,-181.01C1802.48,-173.15 1939.74,-159.47 2067.52,-143.14"/>
<polygon fill="midnightblue" stroke="midnightblue" points="2068.02,-146.61 2077.49,-141.86 2067.13,-139.66 2068.02,-146.61"/>
</g>
<!-- Node23 -->
<g id="node23" class="node">
<title>Node23</title>
<g id="a_node23"><a xlink:title=" ">
<polygon fill="white" stroke="#bfbfbf" points="2196.5,-123.5 2196.5,-142.5 2321.5,-142.5 2321.5,-123.5 2196.5,-123.5"/>
<text text-anchor="middle" x="2259" y="-130.5" font-family="Helvetica,sans-Serif" font-size="10.00">OMSimEventAction.hh</text>
</a>
</g>
</g>
<!-- Node1&#45;&gt;Node23 -->
<g id="edge22" class="edge">
<title>Node1&#45;&gt;Node23</title>
<path fill="none" stroke="midnightblue" d="M1719.37,-182.75C1822.86,-175.4 2013.66,-161.02 2186.27,-143.14"/>
<polygon fill="midnightblue" stroke="midnightblue" points="2186.71,-146.62 2196.3,-142.1 2185.99,-139.65 2186.71,-146.62"/>
</g>
<!-- Node24 -->
<g id="node24" class="node">
<title>Node24</title>
<g id="a_node24"><a xlink:title=" ">
<polygon fill="white" stroke="#bfbfbf" points="2339.5,-123.5 2339.5,-142.5 2452.5,-142.5 2452.5,-123.5 2339.5,-123.5"/>
<text text-anchor="middle" x="2396" y="-130.5" font-family="Helvetica,sans-Serif" font-size="10.00">G4OpticalPhoton.hh</text>
</a>
</g>
</g>
<!-- Node1&#45;&gt;Node24 -->
<g id="edge23" class="edge">
<title>Node1&#45;&gt;Node24</title>
<path fill="none" stroke="midnightblue" d="M1719.25,-184.82C1844.46,-179.19 2101.68,-165.96 2329.18,-143.12"/>
<polygon fill="midnightblue" stroke="midnightblue" points="2329.71,-146.58 2339.31,-142.1 2329.01,-139.62 2329.71,-146.58"/>
</g>
<!-- Node25 -->
<g id="node25" class="node">
<title>Node25</title>
<g id="a_node25"><a xlink:href="_o_m_sim_command_args_table_8hh.html" target="_top" xlink:title="Definition of the OMSimCommandArgsTable singleton class, which controls user args.">
<polygon fill="white" stroke="black" points="823,-123.5 823,-142.5 987,-142.5 987,-123.5 823,-123.5"/>
<text text-anchor="middle" x="905" y="-130.5" font-family="Helvetica,sans-Serif" font-size="10.00">OMSimCommandArgsTable.hh</text>
</a>
</g>
</g>
<!-- Node1&#45;&gt;Node25 -->
<g id="edge25" class="edge">
<title>Node1&#45;&gt;Node25</title>
<path fill="none" stroke="midnightblue" d="M1566.75,-183.42C1447.6,-176.1 1209.75,-160.85 997.42,-143.1"/>
<polygon fill="midnightblue" stroke="midnightblue" points="997.59,-139.6 987.33,-142.25 997,-146.58 997.59,-139.6"/>
</g>
<!-- Node34 -->
<g id="node34" class="node">
<title>Node34</title>
<g id="a_node34"><a xlink:href="_o_m_sim_hit_manager_8hh.html" target="_top" xlink:title="Defines structures and classes related to optical module photon hit management.">
<polygon fill="white" stroke="black" points="661.5,-123.5 661.5,-142.5 784.5,-142.5 784.5,-123.5 661.5,-123.5"/>
<text text-anchor="middle" x="723" y="-130.5" font-family="Helvetica,sans-Serif" font-size="10.00">OMSimHitManager.hh</text>
</a>
</g>
</g>
<!-- Node1&#45;&gt;Node34 -->
<g id="edge34" class="edge">
<title>Node1&#45;&gt;Node34</title>
<path fill="none" stroke="midnightblue" d="M1566.92,-185C1420.84,-178.99 1091.01,-164.21 814,-143 807.77,-142.52 801.3,-141.98 794.82,-141.4"/>
<polygon fill="midnightblue" stroke="midnightblue" points="794.92,-137.9 784.64,-140.47 794.28,-144.87 794.92,-137.9"/>
</g>
<!-- Node37 -->
<g id="node37" class="node">
<title>Node37</title>
<g id="a_node37"><a xlink:title=" ">
<polygon fill="white" stroke="#bfbfbf" points="2470.5,-123.5 2470.5,-142.5 2559.5,-142.5 2559.5,-123.5 2470.5,-123.5"/>
<text text-anchor="middle" x="2515" y="-130.5" font-family="Helvetica,sans-Serif" font-size="10.00">G4VProcess.hh</text>
</a>
</g>
</g>
<!-- Node1&#45;&gt;Node37 -->
<g id="edge40" class="edge">
<title>Node1&#45;&gt;Node37</title>
<path fill="none" stroke="midnightblue" d="M1719.17,-186.69C1862.42,-183.61 2181.84,-173.74 2459.94,-143.11"/>
<polygon fill="midnightblue" stroke="midnightblue" points="2460.68,-146.55 2470.23,-141.97 2459.91,-139.6 2460.68,-146.55"/>
</g>
<!-- Node38 -->
<g id="node38" class="node">
<title>Node38</title>
<g id="a_node38"><a xlink:title=" ">
<polygon fill="white" stroke="#bfbfbf" points="2577.5,-123.5 2577.5,-142.5 2690.5,-142.5 2690.5,-123.5 2577.5,-123.5"/>
<text text-anchor="middle" x="2634" y="-130.5" font-family="Helvetica,sans-Serif" font-size="10.00">G4ProcessVector.hh</text>
</a>
</g>
</g>
<!-- Node1&#45;&gt;Node38 -->
<g id="edge41" class="edge">
<title>Node1&#45;&gt;Node38</title>
<path fill="none" stroke="midnightblue" d="M1719.08,-186.59C1875.82,-183.2 2246.23,-172.61 2566.89,-143.12"/>
<polygon fill="midnightblue" stroke="midnightblue" points="2567.68,-146.56 2577.31,-142.15 2567.03,-139.59 2567.68,-146.56"/>
</g>
<!-- Node39 -->
<g id="node39" class="node">
<title>Node39</title>
<g id="a_node39"><a xlink:title=" ">
<polygon fill="white" stroke="#bfbfbf" points="2708.5,-123.5 2708.5,-142.5 2833.5,-142.5 2833.5,-123.5 2708.5,-123.5"/>
<text text-anchor="middle" x="2771" y="-130.5" font-family="Helvetica,sans-Serif" font-size="10.00">G4ProcessManager.hh</text>
</a>
</g>
</g>
<!-- Node1&#45;&gt;Node39 -->
<g id="edge42" class="edge">
<title>Node1&#45;&gt;Node39</title>
<path fill="none" stroke="midnightblue" d="M1719.08,-186.94C1891.5,-184.06 2325.34,-174.18 2698.13,-143.09"/>
<polygon fill="midnightblue" stroke="midnightblue" points="2698.64,-146.56 2708.31,-142.23 2698.05,-139.58 2698.64,-146.56"/>
</g>
<!-- Node3 -->
<g id="node3" class="node">
<title>Node3</title>
<g id="a_node3"><a xlink:title=" ">
<polygon fill="white" stroke="#bfbfbf" points="0,-67.5 0,-86.5 138,-86.5 138,-67.5 0,-67.5"/>
<text text-anchor="middle" x="69" y="-74.5" font-family="Helvetica,sans-Serif" font-size="10.00">G4VSensitiveDetector.hh</text>
</a>
</g>
</g>
<!-- Node2&#45;&gt;Node3 -->
<g id="edge2" class="edge">
<title>Node2&#45;&gt;Node3</title>
<path fill="none" stroke="midnightblue" d="M344.19,-123.44C286.18,-113.87 192.26,-98.36 130.56,-88.17"/>
<polygon fill="midnightblue" stroke="midnightblue" points="131.01,-84.69 120.57,-86.52 129.87,-91.6 131.01,-84.69"/>
</g>
<!-- Node4 -->
<g id="node4" class="node">
<title>Node4</title>
<g id="a_node4"><a xlink:title=" ">
<polygon fill="white" stroke="#bfbfbf" points="535.5,-67.5 535.5,-86.5 638.5,-86.5 638.5,-67.5 535.5,-67.5"/>
<text text-anchor="middle" x="587" y="-74.5" font-family="Helvetica,sans-Serif" font-size="10.00">G4ThreeVector.hh</text>
</a>
</g>
</g>
<!-- Node2&#45;&gt;Node4 -->
<g id="edge3" class="edge">
<title>Node2&#45;&gt;Node4</title>
<path fill="none" stroke="midnightblue" d="M426.26,-123.44C458.96,-114.2 511.18,-99.44 547.18,-89.26"/>
<polygon fill="midnightblue" stroke="midnightblue" points="548.21,-92.61 556.88,-86.52 546.3,-85.87 548.21,-92.61"/>
</g>
<!-- Node2&#45;&gt;Node5 -->
<g id="edge4" class="edge">
<title>Node2&#45;&gt;Node5</title>
<path fill="none" stroke="midnightblue" d="M404.92,-123.08C412.78,-115.22 424.43,-103.57 433.92,-94.08"/>
<polygon fill="midnightblue" stroke="midnightblue" points="436.65,-96.3 441.25,-86.75 431.7,-91.35 436.65,-96.3"/>
</g>
<!-- Node11 -->
<g id="node11" class="node">
<title>Node11</title>
<g id="a_node11"><a xlink:title=" ">
<polygon fill="white" stroke="#bfbfbf" points="156.5,-67.5 156.5,-86.5 299.5,-86.5 299.5,-67.5 156.5,-67.5"/>
<text text-anchor="middle" x="228" y="-74.5" font-family="Helvetica,sans-Serif" font-size="10.00">G4OpBoundaryProcess.hh</text>
</a>
</g>
</g>
<!-- Node2&#45;&gt;Node11 -->
<g id="edge10" class="edge">
<title>Node2&#45;&gt;Node11</title>
<path fill="none" stroke="midnightblue" d="M369.38,-123.44C340.99,-114.32 295.86,-99.81 264.25,-89.65"/>
<polygon fill="midnightblue" stroke="midnightblue" points="265.09,-86.24 254.5,-86.52 262.94,-92.91 265.09,-86.24"/>
</g>
<!-- Node12 -->
<g id="node12" class="node">
<title>Node12</title>
<g id="a_node12"><a xlink:title=" ">
<polygon fill="white" stroke="#bfbfbf" points="317.5,-67.5 317.5,-86.5 364.5,-86.5 364.5,-67.5 317.5,-67.5"/>
<text text-anchor="middle" x="341" y="-74.5" font-family="Helvetica,sans-Serif" font-size="10.00">vector</text>
</a>
</g>
</g>
<!-- Node2&#45;&gt;Node12 -->
<g id="edge11" class="edge">
<title>Node2&#45;&gt;Node12</title>
<path fill="none" stroke="midnightblue" d="M386.92,-123.08C378.83,-115.14 366.8,-103.34 357.09,-93.8"/>
<polygon fill="midnightblue" stroke="midnightblue" points="359.5,-91.26 349.91,-86.75 354.6,-96.25 359.5,-91.26"/>
</g>
<!-- Node6 -->
<g id="node6" class="node">
<title>Node6</title>
<g id="a_node6"><a xlink:title=" ">
<polygon fill="white" stroke="#bfbfbf" points="494.5,-6 494.5,-25 613.5,-25 613.5,-6 494.5,-6"/>
<text text-anchor="middle" x="554" y="-13" font-family="Helvetica,sans-Serif" font-size="10.00">G4SystemOfUnits.hh</text>
</a>
</g>
</g>
<!-- Node5&#45;&gt;Node6 -->
<g id="edge5" class="edge">
<title>Node5&#45;&gt;Node6</title>
<path fill="none" stroke="midnightblue" d="M464.9,-67.48C481.97,-57.71 510.16,-41.58 530.26,-30.08"/>
<polygon fill="midnightblue" stroke="midnightblue" points="532.19,-33.01 539.13,-25.01 528.71,-26.94 532.19,-33.01"/>
</g>
<!-- Node7 -->
<g id="node7" class="node">
<title>Node7</title>
<g id="a_node7"><a xlink:title=" ">
<polygon fill="white" stroke="#bfbfbf" points="631.5,-6 631.5,-25 704.5,-25 704.5,-6 631.5,-6"/>
<text text-anchor="middle" x="668" y="-13" font-family="Helvetica,sans-Serif" font-size="10.00">G4Types.hh</text>
</a>
</g>
</g>
<!-- Node5&#45;&gt;Node7 -->
<g id="edge6" class="edge">
<title>Node5&#45;&gt;Node7</title>
<path fill="none" stroke="midnightblue" d="M484.73,-67.45C519.57,-58.75 574.69,-44.64 622,-31 625.32,-30.04 628.76,-29.02 632.2,-27.97"/>
<polygon fill="midnightblue" stroke="midnightblue" points="633.28,-31.3 641.8,-25.01 631.21,-24.62 633.28,-31.3"/>
</g>
<!-- Node8 -->
<g id="node8" class="node">
<title>Node8</title>
<g id="a_node8"><a xlink:title=" ">
<polygon fill="white" stroke="#bfbfbf" points="288,-6 288,-25 326,-25 326,-6 288,-6"/>
<text text-anchor="middle" x="307" y="-13" font-family="Helvetica,sans-Serif" font-size="10.00">map</text>
</a>
</g>
</g>
<!-- Node5&#45;&gt;Node8 -->
<g id="edge7" class="edge">
<title>Node5&#45;&gt;Node8</title>
<path fill="none" stroke="midnightblue" d="M425.91,-67.41C402.43,-58.84 365.86,-44.98 335,-31 334,-30.55 332.99,-30.08 331.97,-29.6"/>
<polygon fill="midnightblue" stroke="midnightblue" points="333.36,-26.38 322.85,-25.07 330.25,-32.65 333.36,-26.38"/>
</g>
<!-- Node9 -->
<g id="node9" class="node">
<title>Node9</title>
<g id="a_node9"><a xlink:title=" ">
<polygon fill="white" stroke="#bfbfbf" points="344.5,-6 344.5,-25 405.5,-25 405.5,-6 344.5,-6"/>
<text text-anchor="middle" x="375" y="-13" font-family="Helvetica,sans-Serif" font-size="10.00">TGraph.h</text>
</a>
</g>
</g>
<!-- Node5&#45;&gt;Node9 -->
<g id="edge8" class="edge">
<title>Node5&#45;&gt;Node9</title>
<path fill="none" stroke="midnightblue" d="M439.25,-67.48C427.45,-58.11 408.26,-42.88 393.92,-31.51"/>
<polygon fill="midnightblue" stroke="midnightblue" points="395.74,-28.48 385.73,-25.01 391.38,-33.97 395.74,-28.48"/>
</g>
<!-- Node10 -->
<g id="node10" class="node">
<title>Node10</title>
<g id="a_node10"><a xlink:title=" ">
<polygon fill="white" stroke="#bfbfbf" points="423.5,-6 423.5,-25 476.5,-25 476.5,-6 423.5,-6"/>
<text text-anchor="middle" x="450" y="-13" font-family="Helvetica,sans-Serif" font-size="10.00">TH2D.h</text>
</a>
</g>
</g>
<!-- Node5&#45;&gt;Node10 -->
<g id="edge9" class="edge">
<title>Node5&#45;&gt;Node10</title>
<path fill="none" stroke="midnightblue" d="M450,-67.48C450,-59.08 450,-45.98 450,-35.16"/>
<polygon fill="midnightblue" stroke="midnightblue" points="453.5,-35.01 450,-25.01 446.5,-35.01 453.5,-35.01"/>
</g>
<!-- Node26 -->
<g id="node26" class="node">
<title>Node26</title>
<g id="a_node26"><a xlink:href="_o_m_sim_logger_8hh.html" target="_top" xlink:title=" ">
<polygon fill="white" stroke="black" points="950.5,-67.5 950.5,-86.5 1049.5,-86.5 1049.5,-67.5 950.5,-67.5"/>
<text text-anchor="middle" x="1000" y="-74.5" font-family="Helvetica,sans-Serif" font-size="10.00">OMSimLogger.hh</text>
</a>
</g>
</g>
<!-- Node25&#45;&gt;Node26 -->
<g id="edge26" class="edge">
<title>Node25&#45;&gt;Node26</title>
<path fill="none" stroke="midnightblue" d="M920.26,-123.32C935.22,-114.82 958.25,-101.73 975.73,-91.8"/>
<polygon fill="midnightblue" stroke="midnightblue" points="977.81,-94.64 984.77,-86.65 974.35,-88.55 977.81,-94.64"/>
</g>
<!-- Node31 -->
<g id="node31" class="node">
<title>Node31</title>
<g id="a_node31"><a xlink:title=" ">
<polygon fill="white" stroke="#bfbfbf" points="877.5,-67.5 877.5,-86.5 932.5,-86.5 932.5,-67.5 877.5,-67.5"/>
<text text-anchor="middle" x="905" y="-74.5" font-family="Helvetica,sans-Serif" font-size="10.00">fstream</text>
</a>
</g>
</g>
<!-- Node25&#45;&gt;Node31 -->
<g id="edge31" class="edge">
<title>Node25&#45;&gt;Node31</title>
<path fill="none" stroke="midnightblue" d="M905,-123.08C905,-116.01 905,-105.86 905,-96.99"/>
<polygon fill="midnightblue" stroke="midnightblue" points="908.5,-96.75 905,-86.75 901.5,-96.75 908.5,-96.75"/>
</g>
<!-- Node32 -->
<g id="node32" class="node">
<title>Node32</title>
<g id="a_node32"><a xlink:title=" ">
<polygon fill="white" stroke="#bfbfbf" points="1068,-67.5 1068,-86.5 1152,-86.5 1152,-67.5 1068,-67.5"/>
<text text-anchor="middle" x="1110" y="-74.5" font-family="Helvetica,sans-Serif" font-size="10.00">boost/any.hpp</text>
</a>
</g>
</g>
<!-- Node25&#45;&gt;Node32 -->
<g id="edge32" class="edge">
<title>Node25&#45;&gt;Node32</title>
<path fill="none" stroke="midnightblue" d="M937.48,-123.44C972.72,-114.16 1029.1,-99.31 1067.76,-89.13"/>
<polygon fill="midnightblue" stroke="midnightblue" points="1068.89,-92.45 1077.67,-86.52 1067.11,-85.68 1068.89,-92.45"/>
</g>
<!-- Node33 -->
<g id="node33" class="node">
<title>Node33</title>
<g id="a_node33"><a xlink:title=" ">
<polygon fill="white" stroke="#bfbfbf" points="1170,-67.5 1170,-86.5 1238,-86.5 1238,-67.5 1170,-67.5"/>
<text text-anchor="middle" x="1204" y="-74.5" font-family="Helvetica,sans-Serif" font-size="10.00">sys/time.h</text>
</a>
</g>
</g>
<!-- Node25&#45;&gt;Node33 -->
<g id="edge33" class="edge">
<title>Node25&#45;&gt;Node33</title>
<path fill="none" stroke="midnightblue" d="M956.58,-123.44C1006.11,-115.1 1083.33,-101.81 1159.5,-87.24"/>
<polygon fill="midnightblue" stroke="midnightblue" points="1160.59,-90.6 1169.75,-85.27 1159.27,-83.72 1160.59,-90.6"/>
</g>
<!-- Node27 -->
<g id="node27" class="node">
<title>Node27</title>
<g id="a_node27"><a xlink:title=" ">
<polygon fill="white" stroke="#bfbfbf" points="896.5,-6 896.5,-25 989.5,-25 989.5,-6 896.5,-6"/>
<text text-anchor="middle" x="943" y="-13" font-family="Helvetica,sans-Serif" font-size="10.00">spdlog/spdlog.h</text>
</a>
</g>
</g>
<!-- Node26&#45;&gt;Node27 -->
<g id="edge27" class="edge">
<title>Node26&#45;&gt;Node27</title>
<path fill="none" stroke="midnightblue" d="M991.83,-67.48C983.11,-58.37 969.1,-43.74 958.31,-32.48"/>
<polygon fill="midnightblue" stroke="midnightblue" points="960.6,-29.81 951.15,-25.01 955.54,-34.65 960.6,-29.81"/>
</g>
<!-- Node28 -->
<g id="node28" class="node">
<title>Node28</title>
<g id="a_node28"><a xlink:title=" ">
<polygon fill="white" stroke="#bfbfbf" points="1007.5,-0.5 1007.5,-30.5 1118.5,-30.5 1118.5,-0.5 1007.5,-0.5"/>
<text text-anchor="start" x="1015.5" y="-18.5" font-family="Helvetica,sans-Serif" font-size="10.00">spdlog/sinks/stdout</text>
<text text-anchor="middle" x="1063" y="-7.5" font-family="Helvetica,sans-Serif" font-size="10.00">_color_sinks.h</text>
</a>
</g>
</g>
<!-- Node26&#45;&gt;Node28 -->
<g id="edge28" class="edge">
<title>Node26&#45;&gt;Node28</title>
<path fill="none" stroke="midnightblue" d="M1009.03,-67.48C1017.24,-59.72 1029.71,-47.94 1040.59,-37.66"/>
<polygon fill="midnightblue" stroke="midnightblue" points="1043.29,-39.93 1048.15,-30.52 1038.48,-34.84 1043.29,-39.93"/>
</g>
<!-- Node29 -->
<g id="node29" class="node">
<title>Node29</title>
<g id="a_node29"><a xlink:title=" ">
<polygon fill="white" stroke="#bfbfbf" points="1137,-6 1137,-25 1195,-25 1195,-6 1137,-6"/>
<text text-anchor="middle" x="1166" y="-13" font-family="Helvetica,sans-Serif" font-size="10.00">memory</text>
</a>
</g>
</g>
<!-- Node26&#45;&gt;Node29 -->
<g id="edge29" class="edge">
<title>Node26&#45;&gt;Node29</title>
<path fill="none" stroke="midnightblue" d="M1024.39,-67.48C1049.98,-58.52 1091.38,-43.93 1127,-31 1129.1,-30.24 1131.25,-29.45 1133.43,-28.65"/>
<polygon fill="midnightblue" stroke="midnightblue" points="1134.76,-31.89 1142.92,-25.15 1132.33,-25.33 1134.76,-31.89"/>
</g>
<!-- Node30 -->
<g id="node30" class="node">
<title>Node30</title>
<g id="a_node30"><a xlink:title=" ">
<polygon fill="white" stroke="#bfbfbf" points="780,-6 780,-25 878,-25 878,-6 780,-6"/>
<text text-anchor="middle" x="829" y="-13" font-family="Helvetica,sans-Serif" font-size="10.00">spdlog/fmt/fmt.h</text>
</a>
</g>
</g>
<!-- Node26&#45;&gt;Node30 -->
<g id="edge30" class="edge">
<title>Node26&#45;&gt;Node30</title>
<path fill="none" stroke="midnightblue" d="M975.5,-67.48C946.04,-57.22 896.42,-39.96 863.2,-28.4"/>
<polygon fill="midnightblue" stroke="midnightblue" points="864.05,-24.99 853.45,-25.01 861.75,-31.6 864.05,-24.99"/>
</g>
<!-- Node34&#45;&gt;Node4 -->
<g id="edge36" class="edge">
<title>Node34&#45;&gt;Node4</title>
<path fill="none" stroke="midnightblue" d="M701.45,-123.44C678.97,-114.52 643.51,-100.44 618.02,-90.32"/>
<polygon fill="midnightblue" stroke="midnightblue" points="619.03,-86.95 608.45,-86.52 616.45,-93.46 619.03,-86.95"/>
</g>
<!-- Node34&#45;&gt;Node5 -->
<g id="edge35" class="edge">
<title>Node34&#45;&gt;Node5</title>
<path fill="none" stroke="midnightblue" d="M679.74,-123.44C631.82,-113.96 554.52,-98.67 503,-88.48"/>
<polygon fill="midnightblue" stroke="midnightblue" points="503.54,-85.02 493.06,-86.52 502.19,-91.89 503.54,-85.02"/>
</g>
<!-- Node34&#45;&gt;Node31 -->
<g id="edge37" class="edge">
<title>Node34&#45;&gt;Node31</title>
<path fill="none" stroke="midnightblue" d="M751.84,-123.44C783.22,-114.13 833.5,-99.22 867.82,-89.03"/>
<polygon fill="midnightblue" stroke="midnightblue" points="868.9,-92.36 877.49,-86.16 866.91,-85.65 868.9,-92.36"/>
</g>
<!-- Node35 -->
<g id="node35" class="node">
<title>Node35</title>
<g id="a_node35"><a xlink:title=" ">
<polygon fill="white" stroke="#bfbfbf" points="769,-67.5 769,-86.5 859,-86.5 859,-67.5 769,-67.5"/>
<text text-anchor="middle" x="814" y="-74.5" font-family="Helvetica,sans-Serif" font-size="10.00">G4AutoLock.hh</text>
</a>
</g>
</g>
<!-- Node34&#45;&gt;Node35 -->
<g id="edge38" class="edge">
<title>Node34&#45;&gt;Node35</title>
<path fill="none" stroke="midnightblue" d="M737.62,-123.32C751.95,-114.82 774.01,-101.73 790.75,-91.8"/>
<polygon fill="midnightblue" stroke="midnightblue" points="792.6,-94.77 799.42,-86.65 789.03,-88.75 792.6,-94.77"/>
</g>
<!-- Node36 -->
<g id="node36" class="node">
<title>Node36</title>
<g id="a_node36"><a xlink:title=" ">
<polygon fill="white" stroke="#bfbfbf" points="657,-67.5 657,-86.5 751,-86.5 751,-67.5 657,-67.5"/>
<text text-anchor="middle" x="704" y="-74.5" font-family="Helvetica,sans-Serif" font-size="10.00">G4Threading.hh</text>
</a>
</g>
</g>
<!-- Node34&#45;&gt;Node36 -->
<g id="edge39" class="edge">
<title>Node34&#45;&gt;Node36</title>
<path fill="none" stroke="midnightblue" d="M719.86,-123.08C717.32,-115.85 713.64,-105.41 710.47,-96.4"/>
<polygon fill="midnightblue" stroke="midnightblue" points="713.7,-95.02 707.08,-86.75 707.1,-97.35 713.7,-95.02"/>
</g>
</g>
</svg>
