<?xml version="1.0" encoding="UTF-8" standalone="no"?>
<!DOCTYPE svg PUBLIC "-//W3C//DTD SVG 1.1//EN"
 "http://www.w3.org/Graphics/SVG/1.1/DTD/svg11.dtd">
<!-- Generated by graphviz version 2.43.0 (0)
 -->
<!-- Title: OMSim.cc Pages: 1 -->
<svg width="1858pt" height="487pt"
 viewBox="0.00 0.00 1858.00 487.00" xmlns="http://www.w3.org/2000/svg" xmlns:xlink="http://www.w3.org/1999/xlink">
<g id="graph0" class="graph" transform="scale(1 1) rotate(0) translate(4 483)">
<title>OMSim.cc</title>
<!-- Node1 -->
<g id="node1" class="node">
<title>Node1</title>
<g id="a_node1"><a xlink:title="Implementation of the OMSim class.">
<polygon fill="#bfbfbf" stroke="black" points="1520.5,-459.5 1520.5,-478.5 1585.5,-478.5 1585.5,-459.5 1520.5,-459.5"/>
<text text-anchor="middle" x="1553" y="-466.5" font-family="Helvetica,sans-Serif" font-size="10.00">OMSim.cc</text>
</a>
</g>
</g>
<!-- Node2 -->
<g id="node2" class="node">
<title>Node2</title>
<g id="a_node2"><a xlink:href="_o_m_sim_8hh.html" target="_top" xlink:title="Main simulation class for the Optical Module (OM) simulation. This file defines the OMSim class,...">
<polygon fill="none" stroke="black" points="970.5,-403.5 970.5,-422.5 1037.5,-422.5 1037.5,-403.5 970.5,-403.5"/>
<text text-anchor="middle" x="1004" y="-410.5" font-family="Helvetica,sans-Serif" font-size="10.00">OMSim.hh</text>
</a>
</g>
</g>
<!-- Node1&#45;&gt;Node2 -->
<g id="edge1" class="edge">
<title>Node1&#45;&gt;Node2</title>
<path fill="none" stroke="midnightblue" d="M1520.3,-464.78C1426.14,-455.52 1154.29,-428.78 1047.66,-418.29"/>
<polygon fill="midnightblue" stroke="midnightblue" points="1047.87,-414.8 1037.57,-417.3 1047.18,-421.76 1047.87,-414.8"/>
</g>
<!-- Node7 -->
<g id="node7" class="node">
<title>Node7</title>
<g id="a_node7"><a xlink:href="_o_m_sim_logger_8hh_source.html" target="_top" xlink:title=" ">
<polygon fill="none" stroke="black" points="1210.5,-67.5 1210.5,-86.5 1309.5,-86.5 1309.5,-67.5 1210.5,-67.5"/>
<text text-anchor="middle" x="1260" y="-74.5" font-family="Helvetica,sans-Serif" font-size="10.00">OMSimLogger.hh</text>
</a>
</g>
</g>
<!-- Node1&#45;&gt;Node7 -->
<g id="edge59" class="edge">
<title>Node1&#45;&gt;Node7</title>
<path fill="none" stroke="midnightblue" d="M1570.94,-459.25C1600.45,-443.45 1656,-407.19 1656,-358 1656,-358 1656,-358 1656,-188 1656,-119.07 1430.41,-91.53 1319.77,-82.16"/>
<polygon fill="midnightblue" stroke="midnightblue" points="1320.01,-78.67 1309.75,-81.34 1319.43,-85.65 1320.01,-78.67"/>
</g>
<!-- Node58 -->
<g id="node44" class="node">
<title>Node58</title>
<g id="a_node44"><a xlink:title=" ">
<polygon fill="none" stroke="#bfbfbf" points="1478,-347.5 1478,-366.5 1628,-366.5 1628,-347.5 1478,-347.5"/>
<text text-anchor="middle" x="1553" y="-354.5" font-family="Helvetica,sans-Serif" font-size="10.00">boost/program_options.hpp</text>
</a>
</g>
</g>
<!-- Node1&#45;&gt;Node58 -->
<g id="edge62" class="edge">
<title>Node1&#45;&gt;Node58</title>
<path fill="none" stroke="midnightblue" d="M1553,-459.37C1553,-441.62 1553,-400.67 1553,-376.6"/>
<polygon fill="midnightblue" stroke="midnightblue" points="1556.5,-376.59 1553,-366.59 1549.5,-376.59 1556.5,-376.59"/>
</g>
<!-- Node59 -->
<g id="node45" class="node">
<title>Node59</title>
<g id="a_node45"><a xlink:href="_o_m_sim_tools_8hh.html" target="_top" xlink:title="Definition of Tools namespace, a collection of helper methods.">
<polygon fill="none" stroke="black" points="454,-179.5 454,-198.5 546,-198.5 546,-179.5 454,-179.5"/>
<text text-anchor="middle" x="500" y="-186.5" font-family="Helvetica,sans-Serif" font-size="10.00">OMSimTools.hh</text>
</a>
</g>
</g>
<!-- Node1&#45;&gt;Node59 -->
<g id="edge52" class="edge">
<title>Node1&#45;&gt;Node59</title>
<path fill="none" stroke="midnightblue" d="M1520.21,-467.45C1296.16,-463.47 0,-437.02 0,-358 0,-358 0,-358 0,-300 0,-210 312.9,-193.56 443.65,-190.61"/>
<polygon fill="midnightblue" stroke="midnightblue" points="443.93,-194.11 453.86,-190.4 443.79,-187.11 443.93,-194.11"/>
</g>
<!-- Node63 -->
<g id="node49" class="node">
<title>Node63</title>
<g id="a_node49"><a xlink:href="_o_m_sim_action_initialization_8hh_source.html" target="_top" xlink:title=" ">
<polygon fill="none" stroke="black" points="1686,-403.5 1686,-422.5 1844,-422.5 1844,-403.5 1686,-403.5"/>
<text text-anchor="middle" x="1765" y="-410.5" font-family="Helvetica,sans-Serif" font-size="10.00">OMSimActionInitialization.hh</text>
</a>
</g>
</g>
<!-- Node1&#45;&gt;Node63 -->
<g id="edge60" class="edge">
<title>Node1&#45;&gt;Node63</title>
<path fill="none" stroke="midnightblue" d="M1585.66,-459.68C1622.17,-450.38 1681.46,-435.28 1721.78,-425.01"/>
<polygon fill="midnightblue" stroke="midnightblue" points="1722.78,-428.37 1731.6,-422.51 1721.05,-421.58 1722.78,-428.37"/>
</g>
<!-- Node3 -->
<g id="node3" class="node">
<title>Node3</title>
<g id="a_node3"><a xlink:href="_o_m_sim_detector_construction_8hh_source.html" target="_top" xlink:title=" ">
<polygon fill="none" stroke="black" points="1112,-347.5 1112,-366.5 1282,-366.5 1282,-347.5 1112,-347.5"/>
<text text-anchor="middle" x="1197" y="-354.5" font-family="Helvetica,sans-Serif" font-size="10.00">OMSimDetectorConstruction.hh</text>
</a>
</g>
</g>
<!-- Node2&#45;&gt;Node3 -->
<g id="edge2" class="edge">
<title>Node2&#45;&gt;Node3</title>
<path fill="none" stroke="midnightblue" d="M1034.58,-403.44C1067.61,-394.2 1120.39,-379.44 1156.77,-369.26"/>
<polygon fill="midnightblue" stroke="midnightblue" points="1157.87,-372.58 1166.56,-366.52 1155.99,-365.84 1157.87,-372.58"/>
</g>
<!-- Node39 -->
<g id="node25" class="node">
<title>Node39</title>
<g id="a_node25"><a xlink:title=" ">
<polygon fill="none" stroke="#bfbfbf" points="1300.5,-347.5 1300.5,-366.5 1421.5,-366.5 1421.5,-347.5 1300.5,-347.5"/>
<text text-anchor="middle" x="1361" y="-354.5" font-family="Helvetica,sans-Serif" font-size="10.00">OMSimPhysicsList.hh</text>
</a>
</g>
</g>
<!-- Node2&#45;&gt;Node39 -->
<g id="edge27" class="edge">
<title>Node2&#45;&gt;Node39</title>
<path fill="none" stroke="midnightblue" d="M1037.59,-406.92C1096.22,-398.05 1218.29,-379.59 1294.54,-368.05"/>
<polygon fill="midnightblue" stroke="midnightblue" points="1295.17,-371.5 1304.53,-366.54 1294.12,-364.58 1295.17,-371.5"/>
</g>
<!-- Node40 -->
<g id="node26" class="node">
<title>Node40</title>
<g id="a_node26"><a xlink:title=" ">
<polygon fill="none" stroke="#bfbfbf" points="27.5,-347.5 27.5,-366.5 212.5,-366.5 212.5,-347.5 27.5,-347.5"/>
<text text-anchor="middle" x="120" y="-354.5" font-family="Helvetica,sans-Serif" font-size="10.00">OMSimPrimaryGeneratorAction.hh</text>
</a>
</g>
</g>
<!-- Node2&#45;&gt;Node40 -->
<g id="edge28" class="edge">
<title>Node2&#45;&gt;Node40</title>
<path fill="none" stroke="midnightblue" d="M970.4,-410.45C863.08,-405.41 518.78,-388.63 222.79,-367.11"/>
<polygon fill="midnightblue" stroke="midnightblue" points="222.96,-363.61 212.73,-366.38 222.45,-370.6 222.96,-363.61"/>
</g>
<!-- Node41 -->
<g id="node27" class="node">
<title>Node41</title>
<g id="a_node27"><a xlink:href="_o_m_sim_run_action_8hh_source.html" target="_top" xlink:title=" ">
<polygon fill="none" stroke="black" points="790,-291.5 790,-310.5 906,-310.5 906,-291.5 790,-291.5"/>
<text text-anchor="middle" x="848" y="-298.5" font-family="Helvetica,sans-Serif" font-size="10.00">OMSimRunAction.hh</text>
</a>
</g>
</g>
<!-- Node2&#45;&gt;Node41 -->
<g id="edge29" class="edge">
<title>Node2&#45;&gt;Node41</title>
<path fill="none" stroke="midnightblue" d="M1022.12,-403.48C1045.5,-391.35 1081.25,-368.21 1064,-347 1045.57,-324.34 972.44,-312.71 916.33,-307.01"/>
<polygon fill="midnightblue" stroke="midnightblue" points="916.35,-303.49 906.06,-306.01 915.68,-310.46 916.35,-303.49"/>
</g>
<!-- Node45 -->
<g id="node31" class="node">
<title>Node45</title>
<g id="a_node31"><a xlink:title=" ">
<polygon fill="none" stroke="#bfbfbf" points="230.5,-347.5 230.5,-366.5 355.5,-366.5 355.5,-347.5 230.5,-347.5"/>
<text text-anchor="middle" x="293" y="-354.5" font-family="Helvetica,sans-Serif" font-size="10.00">OMSimEventAction.hh</text>
</a>
</g>
</g>
<!-- Node2&#45;&gt;Node45 -->
<g id="edge35" class="edge">
<title>Node2&#45;&gt;Node45</title>
<path fill="none" stroke="midnightblue" d="M970.34,-410.27C876.53,-405.32 603.92,-390 366.04,-367.05"/>
<polygon fill="midnightblue" stroke="midnightblue" points="366.1,-363.54 355.81,-366.05 365.42,-370.5 366.1,-363.54"/>
</g>
<!-- Node46 -->
<g id="node32" class="node">
<title>Node46</title>
<g id="a_node32"><a xlink:href="_o_m_sim_tracking_action_8hh_source.html" target="_top" xlink:title=" ">
<polygon fill="none" stroke="black" points="374,-347.5 374,-366.5 512,-366.5 512,-347.5 374,-347.5"/>
<text text-anchor="middle" x="443" y="-354.5" font-family="Helvetica,sans-Serif" font-size="10.00">OMSimTrackingAction.hh</text>
</a>
</g>
</g>
<!-- Node2&#45;&gt;Node46 -->
<g id="edge36" class="edge">
<title>Node2&#45;&gt;Node46</title>
<path fill="none" stroke="midnightblue" d="M970.3,-409.12C893.1,-402.46 697.22,-385.25 522.47,-367.13"/>
<polygon fill="midnightblue" stroke="midnightblue" points="522.62,-363.63 512.31,-366.08 521.9,-370.59 522.62,-363.63"/>
</g>
<!-- Node48 -->
<g id="node34" class="node">
<title>Node48</title>
<g id="a_node34"><a xlink:href="_o_m_sim_stepping_action_8hh.html" target="_top" xlink:title="Defines OMSimSteppingAction.Currently it only checks for trapped photons.">
<polygon fill="none" stroke="black" points="530,-347.5 530,-366.5 670,-366.5 670,-347.5 530,-347.5"/>
<text text-anchor="middle" x="600" y="-354.5" font-family="Helvetica,sans-Serif" font-size="10.00">OMSimSteppingAction.hh</text>
</a>
</g>
</g>
<!-- Node2&#45;&gt;Node48 -->
<g id="edge38" class="edge">
<title>Node2&#45;&gt;Node48</title>
<path fill="none" stroke="midnightblue" d="M970.25,-407.49C905.33,-398.81 761.72,-379.62 673.66,-367.85"/>
<polygon fill="midnightblue" stroke="midnightblue" points="674.11,-364.37 663.73,-366.52 673.18,-371.31 674.11,-364.37"/>
</g>
<!-- Node50 -->
<g id="node36" class="node">
<title>Node50</title>
<g id="a_node36"><a xlink:href="_o_m_sim_u_iinterface_8hh.html" target="_top" xlink:title=" ">
<polygon fill="none" stroke="black" points="1441.5,-291.5 1441.5,-310.5 1562.5,-310.5 1562.5,-291.5 1441.5,-291.5"/>
<text text-anchor="middle" x="1502" y="-298.5" font-family="Helvetica,sans-Serif" font-size="10.00">OMSimUIinterface.hh</text>
</a>
</g>
</g>
<!-- Node2&#45;&gt;Node50 -->
<g id="edge40" class="edge">
<title>Node2&#45;&gt;Node50</title>
<path fill="none" stroke="midnightblue" d="M1037.76,-411.11C1125.7,-408.38 1359.88,-398.3 1430,-367 1454.17,-356.21 1475.8,-334.17 1488.9,-318.76"/>
<polygon fill="midnightblue" stroke="midnightblue" points="1491.96,-320.55 1495.58,-310.59 1486.54,-316.12 1491.96,-320.55"/>
</g>
<!-- Node55 -->
<g id="node41" class="node">
<title>Node55</title>
<g id="a_node41"><a xlink:title=" ">
<polygon fill="none" stroke="#bfbfbf" points="688.5,-347.5 688.5,-366.5 809.5,-366.5 809.5,-347.5 688.5,-347.5"/>
<text text-anchor="middle" x="749" y="-354.5" font-family="Helvetica,sans-Serif" font-size="10.00">G4MTRunManager.hh</text>
</a>
</g>
</g>
<!-- Node2&#45;&gt;Node55 -->
<g id="edge48" class="edge">
<title>Node2&#45;&gt;Node55</title>
<path fill="none" stroke="midnightblue" d="M970.4,-404.88C926.75,-395.64 850.15,-379.42 799.49,-368.69"/>
<polygon fill="midnightblue" stroke="midnightblue" points="799.91,-365.2 789.41,-366.56 798.46,-372.05 799.91,-365.2"/>
</g>
<!-- Node56 -->
<g id="node42" class="node">
<title>Node56</title>
<g id="a_node42"><a xlink:title=" ">
<polygon fill="none" stroke="#bfbfbf" points="827.5,-347.5 827.5,-366.5 934.5,-366.5 934.5,-347.5 827.5,-347.5"/>
<text text-anchor="middle" x="881" y="-354.5" font-family="Helvetica,sans-Serif" font-size="10.00">G4VisExecutive.hh</text>
</a>
</g>
</g>
<!-- Node2&#45;&gt;Node56 -->
<g id="edge49" class="edge">
<title>Node2&#45;&gt;Node56</title>
<path fill="none" stroke="midnightblue" d="M984.51,-403.44C964.36,-394.6 932.68,-380.69 909.67,-370.59"/>
<polygon fill="midnightblue" stroke="midnightblue" points="910.96,-367.33 900.4,-366.52 908.15,-373.74 910.96,-367.33"/>
</g>
<!-- Node57 -->
<g id="node43" class="node">
<title>Node57</title>
<g id="a_node43"><a xlink:title=" ">
<polygon fill="none" stroke="#bfbfbf" points="952.5,-347.5 952.5,-366.5 1055.5,-366.5 1055.5,-347.5 952.5,-347.5"/>
<text text-anchor="middle" x="1004" y="-354.5" font-family="Helvetica,sans-Serif" font-size="10.00">G4UIExecutive.hh</text>
</a>
</g>
</g>
<!-- Node2&#45;&gt;Node57 -->
<g id="edge50" class="edge">
<title>Node2&#45;&gt;Node57</title>
<path fill="none" stroke="midnightblue" d="M1004,-403.08C1004,-396.01 1004,-385.86 1004,-376.99"/>
<polygon fill="midnightblue" stroke="midnightblue" points="1007.5,-376.75 1004,-366.75 1000.5,-376.75 1007.5,-376.75"/>
</g>
<!-- Node2&#45;&gt;Node58 -->
<g id="edge51" class="edge">
<title>Node2&#45;&gt;Node58</title>
<path fill="none" stroke="midnightblue" d="M1037.76,-408.73C1113.85,-401.37 1304.5,-382.87 1464,-367 1465.12,-366.89 1466.25,-366.78 1467.38,-366.66"/>
<polygon fill="midnightblue" stroke="midnightblue" points="1468.14,-370.11 1477.74,-365.63 1467.44,-363.14 1468.14,-370.11"/>
</g>
<!-- Node4 -->
<g id="node4" class="node">
<title>Node4</title>
<g id="a_node4"><a xlink:href="_o_m_sim_optical_module_8hh_source.html" target="_top" xlink:title=" ">
<polygon fill="none" stroke="black" points="1010.5,-291.5 1010.5,-310.5 1147.5,-310.5 1147.5,-291.5 1010.5,-291.5"/>
<text text-anchor="middle" x="1079" y="-298.5" font-family="Helvetica,sans-Serif" font-size="10.00">OMSimOpticalModule.hh</text>
</a>
</g>
</g>
<!-- Node3&#45;&gt;Node4 -->
<g id="edge3" class="edge">
<title>Node3&#45;&gt;Node4</title>
<path fill="none" stroke="midnightblue" d="M1178.3,-347.44C1159.06,-338.64 1128.85,-324.81 1106.8,-314.72"/>
<polygon fill="midnightblue" stroke="midnightblue" points="1108.16,-311.5 1097.61,-310.52 1105.25,-317.86 1108.16,-311.5"/>
</g>
<!-- Node37 -->
<g id="node23" class="node">
<title>Node37</title>
<g id="a_node23"><a xlink:title=" ">
<polygon fill="none" stroke="#bfbfbf" points="1166,-291.5 1166,-310.5 1228,-310.5 1228,-291.5 1166,-291.5"/>
<text text-anchor="middle" x="1197" y="-298.5" font-family="Helvetica,sans-Serif" font-size="10.00">G4Orb.hh</text>
</a>
</g>
</g>
<!-- Node3&#45;&gt;Node37 -->
<g id="edge25" class="edge">
<title>Node3&#45;&gt;Node37</title>
<path fill="none" stroke="midnightblue" d="M1197,-347.08C1197,-340.01 1197,-329.86 1197,-320.99"/>
<polygon fill="midnightblue" stroke="midnightblue" points="1200.5,-320.75 1197,-310.75 1193.5,-320.75 1200.5,-320.75"/>
</g>
<!-- Node38 -->
<g id="node24" class="node">
<title>Node38</title>
<g id="a_node24"><a xlink:title=" ">
<polygon fill="none" stroke="#bfbfbf" points="1246,-291.5 1246,-310.5 1424,-310.5 1424,-291.5 1246,-291.5"/>
<text text-anchor="middle" x="1335" y="-298.5" font-family="Helvetica,sans-Serif" font-size="10.00">G4VUserDetectorConstruction.hh</text>
</a>
</g>
</g>
<!-- Node3&#45;&gt;Node38 -->
<g id="edge26" class="edge">
<title>Node3&#45;&gt;Node38</title>
<path fill="none" stroke="midnightblue" d="M1218.87,-347.44C1241.78,-338.48 1277.98,-324.31 1303.87,-314.18"/>
<polygon fill="midnightblue" stroke="midnightblue" points="1305.2,-317.42 1313.24,-310.52 1302.65,-310.9 1305.2,-317.42"/>
</g>
<!-- Node5 -->
<g id="node5" class="node">
<title>Node5</title>
<g id="a_node5"><a xlink:href="_o_m_sim_detector_component_8hh.html" target="_top" xlink:title="Provides helper base class OMSimDetectorComponent for constructing and managing detector components i...">
<polygon fill="none" stroke="red" points="1117.5,-179.5 1117.5,-198.5 1282.5,-198.5 1282.5,-179.5 1117.5,-179.5"/>
<text text-anchor="middle" x="1200" y="-186.5" font-family="Helvetica,sans-Serif" font-size="10.00">OMSimDetectorComponent.hh</text>
</a>
</g>
</g>
<!-- Node4&#45;&gt;Node5 -->
<g id="edge4" class="edge">
<title>Node4&#45;&gt;Node5</title>
<path fill="none" stroke="midnightblue" d="M1147.62,-291.85C1193.08,-284.88 1246.85,-273.07 1261,-255 1275.84,-236.04 1250.12,-216.12 1227.65,-203.41"/>
<polygon fill="midnightblue" stroke="midnightblue" points="1229.13,-200.23 1218.67,-198.59 1225.82,-206.4 1229.13,-200.23"/>
</g>
<!-- Node26 -->
<g id="node13" class="node">
<title>Node26</title>
<g id="a_node13"><a xlink:href="_o_m_sim_hit_manager_8hh.html" target="_top" xlink:title="Defines structures and classes related to optical module photon hit management.">
<polygon fill="none" stroke="black" points="944.5,-235.5 944.5,-254.5 1067.5,-254.5 1067.5,-235.5 944.5,-235.5"/>
<text text-anchor="middle" x="1006" y="-242.5" font-family="Helvetica,sans-Serif" font-size="10.00">OMSimHitManager.hh</text>
</a>
</g>
</g>
<!-- Node4&#45;&gt;Node26 -->
<g id="edge12" class="edge">
<title>Node4&#45;&gt;Node26</title>
<path fill="none" stroke="midnightblue" d="M1067.27,-291.32C1056.16,-283.11 1039.26,-270.6 1026.02,-260.81"/>
<polygon fill="midnightblue" stroke="midnightblue" points="1028.06,-257.97 1017.94,-254.83 1023.9,-263.59 1028.06,-257.97"/>
</g>
<!-- Node34 -->
<g id="node22" class="node">
<title>Node34</title>
<g id="a_node22"><a xlink:href="_o_m_sim_p_m_t_construction_8hh.html" target="_top" xlink:title="Construction of the PMTs.">
<polygon fill="none" stroke="red" points="1085.5,-235.5 1085.5,-254.5 1234.5,-254.5 1234.5,-235.5 1085.5,-235.5"/>
<text text-anchor="middle" x="1160" y="-242.5" font-family="Helvetica,sans-Serif" font-size="10.00">OMSimPMTConstruction.hh</text>
</a>
</g>
</g>
<!-- Node4&#45;&gt;Node34 -->
<g id="edge21" class="edge">
<title>Node4&#45;&gt;Node34</title>
<path fill="none" stroke="midnightblue" d="M1092.01,-291.32C1104.53,-282.98 1123.68,-270.21 1138.47,-260.35"/>
<polygon fill="midnightblue" stroke="midnightblue" points="1140.64,-263.11 1147.02,-254.65 1136.76,-257.29 1140.64,-263.11"/>
</g>
<!-- Node6 -->
<g id="node6" class="node">
<title>Node6</title>
<g id="a_node6"><a xlink:href="_o_m_sim_input_data_8hh.html" target="_top" xlink:title="Definition of ParameterTable and OMSimInputData.">
<polygon fill="none" stroke="red" points="1202.5,-123.5 1202.5,-142.5 1317.5,-142.5 1317.5,-123.5 1202.5,-123.5"/>
<text text-anchor="middle" x="1260" y="-130.5" font-family="Helvetica,sans-Serif" font-size="10.00">OMSimInputData.hh</text>
</a>
</g>
</g>
<!-- Node5&#45;&gt;Node6 -->
<g id="edge5" class="edge">
<title>Node5&#45;&gt;Node6</title>
<path fill="none" stroke="midnightblue" d="M1209.64,-179.32C1218.51,-171.34 1231.87,-159.31 1242.61,-149.65"/>
<polygon fill="midnightblue" stroke="midnightblue" points="1245.09,-152.13 1250.18,-142.83 1240.41,-146.92 1245.09,-152.13"/>
</g>
<!-- Node22 -->
<g id="node12" class="node">
<title>Node22</title>
<g id="a_node12"><a xlink:title=" ">
<polygon fill="none" stroke="#bfbfbf" points="1077.5,-123.5 1077.5,-142.5 1184.5,-142.5 1184.5,-123.5 1077.5,-123.5"/>
<text text-anchor="middle" x="1131" y="-130.5" font-family="Helvetica,sans-Serif" font-size="10.00">G4Transform3D.hh</text>
</a>
</g>
</g>
<!-- Node5&#45;&gt;Node22 -->
<g id="edge11" class="edge">
<title>Node5&#45;&gt;Node22</title>
<path fill="none" stroke="midnightblue" d="M1188.91,-179.32C1178.51,-171.18 1162.74,-158.84 1150.28,-149.09"/>
<polygon fill="midnightblue" stroke="midnightblue" points="1152.32,-146.24 1142.29,-142.83 1148.01,-151.75 1152.32,-146.24"/>
</g>
<!-- Node6&#45;&gt;Node7 -->
<g id="edge6" class="edge">
<title>Node6&#45;&gt;Node7</title>
<path fill="none" stroke="midnightblue" d="M1260,-123.08C1260,-116.01 1260,-105.86 1260,-96.99"/>
<polygon fill="midnightblue" stroke="midnightblue" points="1263.5,-96.75 1260,-86.75 1256.5,-96.75 1263.5,-96.75"/>
</g>
<!-- Node8 -->
<g id="node8" class="node">
<title>Node8</title>
<g id="a_node8"><a xlink:title=" ">
<polygon fill="none" stroke="#bfbfbf" points="1042.5,-6 1042.5,-25 1135.5,-25 1135.5,-6 1042.5,-6"/>
<text text-anchor="middle" x="1089" y="-13" font-family="Helvetica,sans-Serif" font-size="10.00">spdlog/spdlog.h</text>
</a>
</g>
</g>
<!-- Node7&#45;&gt;Node8 -->
<g id="edge7" class="edge">
<title>Node7&#45;&gt;Node8</title>
<path fill="none" stroke="midnightblue" d="M1235.5,-67.48C1206.04,-57.22 1156.42,-39.96 1123.2,-28.4"/>
<polygon fill="midnightblue" stroke="midnightblue" points="1124.05,-24.99 1113.45,-25.01 1121.75,-31.6 1124.05,-24.99"/>
</g>
<!-- Node9 -->
<g id="node9" class="node">
<title>Node9</title>
<g id="a_node9"><a xlink:title=" ">
<polygon fill="none" stroke="#bfbfbf" points="1153.5,-0.5 1153.5,-30.5 1264.5,-30.5 1264.5,-0.5 1153.5,-0.5"/>
<text text-anchor="start" x="1161.5" y="-18.5" font-family="Helvetica,sans-Serif" font-size="10.00">spdlog/sinks/stdout</text>
<text text-anchor="middle" x="1209" y="-7.5" font-family="Helvetica,sans-Serif" font-size="10.00">_color_sinks.h</text>
</a>
</g>
</g>
<!-- Node7&#45;&gt;Node9 -->
<g id="edge8" class="edge">
<title>Node7&#45;&gt;Node9</title>
<path fill="none" stroke="midnightblue" d="M1252.69,-67.48C1246.17,-59.87 1236.34,-48.4 1227.66,-38.26"/>
<polygon fill="midnightblue" stroke="midnightblue" points="1230.19,-35.84 1221.02,-30.52 1224.87,-40.39 1230.19,-35.84"/>
</g>
<!-- Node10 -->
<g id="node10" class="node">
<title>Node10</title>
<g id="a_node10"><a xlink:title=" ">
<polygon fill="none" stroke="#bfbfbf" points="1283,-6 1283,-25 1341,-25 1341,-6 1283,-6"/>
<text text-anchor="middle" x="1312" y="-13" font-family="Helvetica,sans-Serif" font-size="10.00">memory</text>
</a>
</g>
</g>
<!-- Node7&#45;&gt;Node10 -->
<g id="edge9" class="edge">
<title>Node7&#45;&gt;Node10</title>
<path fill="none" stroke="midnightblue" d="M1267.45,-67.48C1275.33,-58.46 1287.94,-44.02 1297.74,-32.81"/>
<polygon fill="midnightblue" stroke="midnightblue" points="1300.62,-34.84 1304.56,-25.01 1295.35,-30.24 1300.62,-34.84"/>
</g>
<!-- Node11 -->
<g id="node11" class="node">
<title>Node11</title>
<g id="a_node11"><a xlink:title=" ">
<polygon fill="none" stroke="#bfbfbf" points="1359,-6 1359,-25 1457,-25 1457,-6 1359,-6"/>
<text text-anchor="middle" x="1408" y="-13" font-family="Helvetica,sans-Serif" font-size="10.00">spdlog/fmt/fmt.h</text>
</a>
</g>
</g>
<!-- Node7&#45;&gt;Node11 -->
<g id="edge10" class="edge">
<title>Node7&#45;&gt;Node11</title>
<path fill="none" stroke="midnightblue" d="M1281.2,-67.48C1306.37,-57.36 1348.54,-40.4 1377.28,-28.85"/>
<polygon fill="midnightblue" stroke="midnightblue" points="1378.86,-31.99 1386.83,-25.01 1376.25,-25.49 1378.86,-31.99"/>
</g>
<!-- Node27 -->
<g id="node14" class="node">
<title>Node27</title>
<g id="a_node14"><a xlink:href="_o_m_sim_p_m_t_response_8hh.html" target="_top" xlink:title="Simulation of PMT response.">
<polygon fill="none" stroke="red" points="964.5,-179.5 964.5,-198.5 1099.5,-198.5 1099.5,-179.5 964.5,-179.5"/>
<text text-anchor="middle" x="1032" y="-186.5" font-family="Helvetica,sans-Serif" font-size="10.00">OMSimPMTResponse.hh</text>
</a>
</g>
</g>
<!-- Node26&#45;&gt;Node27 -->
<g id="edge13" class="edge">
<title>Node26&#45;&gt;Node27</title>
<path fill="none" stroke="midnightblue" d="M1010.29,-235.08C1013.85,-227.69 1019.02,-216.95 1023.42,-207.81"/>
<polygon fill="midnightblue" stroke="midnightblue" points="1026.6,-209.28 1027.79,-198.75 1020.29,-206.24 1026.6,-209.28"/>
</g>
<!-- Node32 -->
<g id="node18" class="node">
<title>Node32</title>
<g id="a_node18"><a xlink:title=" ">
<polygon fill="none" stroke="#bfbfbf" points="622.5,-179.5 622.5,-198.5 725.5,-198.5 725.5,-179.5 622.5,-179.5"/>
<text text-anchor="middle" x="674" y="-186.5" font-family="Helvetica,sans-Serif" font-size="10.00">G4ThreeVector.hh</text>
</a>
</g>
</g>
<!-- Node26&#45;&gt;Node32 -->
<g id="edge17" class="edge">
<title>Node26&#45;&gt;Node32</title>
<path fill="none" stroke="midnightblue" d="M953.39,-235.44C894.25,-225.82 798.31,-210.22 735.68,-200.03"/>
<polygon fill="midnightblue" stroke="midnightblue" points="735.97,-196.53 725.54,-198.38 734.85,-203.44 735.97,-196.53"/>
</g>
<!-- Node33 -->
<g id="node19" class="node">
<title>Node33</title>
<g id="a_node19"><a xlink:title=" ">
<polygon fill="none" stroke="#bfbfbf" points="1300.5,-179.5 1300.5,-198.5 1355.5,-198.5 1355.5,-179.5 1300.5,-179.5"/>
<text text-anchor="middle" x="1328" y="-186.5" font-family="Helvetica,sans-Serif" font-size="10.00">fstream</text>
</a>
</g>
</g>
<!-- Node26&#45;&gt;Node33 -->
<g id="edge18" class="edge">
<title>Node26&#45;&gt;Node33</title>
<path fill="none" stroke="midnightblue" d="M1067.69,-235.75C1123.33,-227.97 1207.6,-215.35 1290.12,-199.04"/>
<polygon fill="midnightblue" stroke="midnightblue" points="1291.05,-202.42 1300.17,-197.03 1289.68,-195.55 1291.05,-202.42"/>
</g>
<!-- Node18 -->
<g id="node20" class="node">
<title>Node18</title>
<g id="a_node20"><a xlink:title=" ">
<polygon fill="none" stroke="#bfbfbf" points="744,-179.5 744,-198.5 834,-198.5 834,-179.5 744,-179.5"/>
<text text-anchor="middle" x="789" y="-186.5" font-family="Helvetica,sans-Serif" font-size="10.00">G4AutoLock.hh</text>
</a>
</g>
</g>
<!-- Node26&#45;&gt;Node18 -->
<g id="edge19" class="edge">
<title>Node26&#45;&gt;Node18</title>
<path fill="none" stroke="midnightblue" d="M971.62,-235.44C934.08,-226.1 873.87,-211.12 832.93,-200.93"/>
<polygon fill="midnightblue" stroke="midnightblue" points="833.77,-197.53 823.22,-198.52 832.08,-204.33 833.77,-197.53"/>
</g>
<!-- Node19 -->
<g id="node21" class="node">
<title>Node19</title>
<g id="a_node21"><a xlink:title=" ">
<polygon fill="none" stroke="#bfbfbf" points="852,-179.5 852,-198.5 946,-198.5 946,-179.5 852,-179.5"/>
<text text-anchor="middle" x="899" y="-186.5" font-family="Helvetica,sans-Serif" font-size="10.00">G4Threading.hh</text>
</a>
</g>
</g>
<!-- Node26&#45;&gt;Node19 -->
<g id="edge20" class="edge">
<title>Node26&#45;&gt;Node19</title>
<path fill="none" stroke="midnightblue" d="M988.81,-235.32C971.65,-226.66 945.05,-213.24 925.25,-203.25"/>
<polygon fill="midnightblue" stroke="midnightblue" points="926.65,-200.04 916.15,-198.65 923.5,-206.28 926.65,-200.04"/>
</g>
<!-- Node29 -->
<g id="node15" class="node">
<title>Node29</title>
<g id="a_node15"><a xlink:title=" ">
<polygon fill="none" stroke="#bfbfbf" points="1410,-123.5 1410,-142.5 1448,-142.5 1448,-123.5 1410,-123.5"/>
<text text-anchor="middle" x="1429" y="-130.5" font-family="Helvetica,sans-Serif" font-size="10.00">map</text>
</a>
</g>
</g>
<!-- Node27&#45;&gt;Node29 -->
<g id="edge14" class="edge">
<title>Node27&#45;&gt;Node29</title>
<path fill="none" stroke="midnightblue" d="M1094.91,-179.44C1181.92,-167.61 1335.52,-146.72 1399.62,-138"/>
<polygon fill="midnightblue" stroke="midnightblue" points="1400.38,-141.43 1409.81,-136.61 1399.43,-134.49 1400.38,-141.43"/>
</g>
<!-- Node30 -->
<g id="node16" class="node">
<title>Node30</title>
<g id="a_node16"><a xlink:title=" ">
<polygon fill="none" stroke="#bfbfbf" points="744.5,-123.5 744.5,-142.5 805.5,-142.5 805.5,-123.5 744.5,-123.5"/>
<text text-anchor="middle" x="775" y="-130.5" font-family="Helvetica,sans-Serif" font-size="10.00">TGraph.h</text>
</a>
</g>
</g>
<!-- Node27&#45;&gt;Node30 -->
<g id="edge15" class="edge">
<title>Node27&#45;&gt;Node30</title>
<path fill="none" stroke="midnightblue" d="M991.28,-179.44C943.28,-169.36 863.98,-152.7 815.91,-142.6"/>
<polygon fill="midnightblue" stroke="midnightblue" points="816.36,-139.11 805.85,-140.48 814.92,-145.96 816.36,-139.11"/>
</g>
<!-- Node31 -->
<g id="node17" class="node">
<title>Node31</title>
<g id="a_node17"><a xlink:title=" ">
<polygon fill="none" stroke="#bfbfbf" points="945.5,-123.5 945.5,-142.5 998.5,-142.5 998.5,-123.5 945.5,-123.5"/>
<text text-anchor="middle" x="972" y="-130.5" font-family="Helvetica,sans-Serif" font-size="10.00">TH2D.h</text>
</a>
</g>
</g>
<!-- Node27&#45;&gt;Node31 -->
<g id="edge16" class="edge">
<title>Node27&#45;&gt;Node31</title>
<path fill="none" stroke="midnightblue" d="M1022.36,-179.32C1013.49,-171.34 1000.13,-159.31 989.39,-149.65"/>
<polygon fill="midnightblue" stroke="midnightblue" points="991.59,-146.92 981.82,-142.83 986.91,-152.13 991.59,-146.92"/>
</g>
<!-- Node34&#45;&gt;Node5 -->
<g id="edge22" class="edge">
<title>Node34&#45;&gt;Node5</title>
<path fill="none" stroke="midnightblue" d="M1166.61,-235.08C1172.26,-227.46 1180.54,-216.26 1187.45,-206.94"/>
<polygon fill="midnightblue" stroke="midnightblue" points="1190.38,-208.87 1193.52,-198.75 1184.75,-204.7 1190.38,-208.87"/>
</g>
<!-- Node34&#45;&gt;Node27 -->
<g id="edge24" class="edge">
<title>Node34&#45;&gt;Node27</title>
<path fill="none" stroke="midnightblue" d="M1139.72,-235.44C1118.65,-226.56 1085.48,-212.56 1061.51,-202.45"/>
<polygon fill="midnightblue" stroke="midnightblue" points="1062.76,-199.18 1052.19,-198.52 1060.04,-205.63 1062.76,-199.18"/>
</g>
<!-- Node34&#45;&gt;Node34 -->
<g id="edge23" class="edge">
<title>Node34&#45;&gt;Node34</title>
<path fill="none" stroke="midnightblue" d="M1199.45,-254.53C1226.26,-257.31 1252.5,-254.13 1252.5,-245 1252.5,-237.01 1232.41,-233.58 1209.43,-234.71"/>
<polygon fill="midnightblue" stroke="midnightblue" points="1209.15,-231.22 1199.45,-235.47 1209.69,-238.2 1209.15,-231.22"/>
</g>
<!-- Node41&#45;&gt;Node7 -->
<g id="edge32" class="edge">
<title>Node41&#45;&gt;Node7</title>
<path fill="none" stroke="midnightblue" d="M789.99,-297.12C727.81,-292.67 635.03,-281.65 613,-255 591.48,-228.97 594.77,-207.43 613,-179 645.21,-128.78 677.31,-138.22 735,-123 821.4,-100.21 1081.66,-86 1200.12,-80.54"/>
<polygon fill="midnightblue" stroke="midnightblue" points="1200.61,-84.02 1210.45,-80.07 1200.3,-77.03 1200.61,-84.02"/>
</g>
<!-- Node41&#45;&gt;Node26 -->
<g id="edge31" class="edge">
<title>Node41&#45;&gt;Node26</title>
<path fill="none" stroke="midnightblue" d="M873.04,-291.44C899.62,-282.36 941.81,-267.94 971.52,-257.78"/>
<polygon fill="midnightblue" stroke="midnightblue" points="972.75,-261.06 981.08,-254.52 970.49,-254.44 972.75,-261.06"/>
</g>
<!-- Node42 -->
<g id="node28" class="node">
<title>Node42</title>
<g id="a_node28"><a xlink:title=" ">
<polygon fill="none" stroke="#bfbfbf" points="622.5,-235.5 622.5,-254.5 739.5,-254.5 739.5,-235.5 622.5,-235.5"/>
<text text-anchor="middle" x="681" y="-242.5" font-family="Helvetica,sans-Serif" font-size="10.00">G4UserRunAction.hh</text>
</a>
</g>
</g>
<!-- Node41&#45;&gt;Node42 -->
<g id="edge30" class="edge">
<title>Node41&#45;&gt;Node42</title>
<path fill="none" stroke="midnightblue" d="M821.54,-291.44C793.32,-282.32 748.46,-267.81 717.03,-257.65"/>
<polygon fill="midnightblue" stroke="midnightblue" points="717.93,-254.26 707.34,-254.52 715.78,-260.92 717.93,-254.26"/>
</g>
<!-- Node43 -->
<g id="node29" class="node">
<title>Node43</title>
<g id="a_node29"><a xlink:title=" ">
<polygon fill="none" stroke="#bfbfbf" points="758,-235.5 758,-254.5 844,-254.5 844,-235.5 758,-235.5"/>
<text text-anchor="middle" x="801" y="-242.5" font-family="Helvetica,sans-Serif" font-size="10.00">Randomize.hh</text>
</a>
</g>
</g>
<!-- Node41&#45;&gt;Node43 -->
<g id="edge33" class="edge">
<title>Node41&#45;&gt;Node43</title>
<path fill="none" stroke="midnightblue" d="M840.24,-291.08C833.46,-283.3 823.46,-271.8 815.24,-262.37"/>
<polygon fill="midnightblue" stroke="midnightblue" points="817.82,-260 808.62,-254.75 812.54,-264.59 817.82,-260"/>
</g>
<!-- Node44 -->
<g id="node30" class="node">
<title>Node44</title>
<g id="a_node30"><a xlink:title=" ">
<polygon fill="none" stroke="#bfbfbf" points="862,-235.5 862,-254.5 926,-254.5 926,-235.5 862,-235.5"/>
<text text-anchor="middle" x="894" y="-242.5" font-family="Helvetica,sans-Serif" font-size="10.00">G4Run.hh</text>
</a>
</g>
</g>
<!-- Node41&#45;&gt;Node44 -->
<g id="edge34" class="edge">
<title>Node41&#45;&gt;Node44</title>
<path fill="none" stroke="midnightblue" d="M855.6,-291.08C862.23,-283.3 872.02,-271.8 880.06,-262.37"/>
<polygon fill="midnightblue" stroke="midnightblue" points="882.73,-264.63 886.55,-254.75 877.4,-260.09 882.73,-264.63"/>
</g>
<!-- Node47 -->
<g id="node33" class="node">
<title>Node47</title>
<g id="a_node33"><a xlink:title=" ">
<polygon fill="none" stroke="#bfbfbf" points="372.5,-291.5 372.5,-310.5 511.5,-310.5 511.5,-291.5 372.5,-291.5"/>
<text text-anchor="middle" x="442" y="-298.5" font-family="Helvetica,sans-Serif" font-size="10.00">G4UserTrackingAction.hh</text>
</a>
</g>
</g>
<!-- Node46&#45;&gt;Node47 -->
<g id="edge37" class="edge">
<title>Node46&#45;&gt;Node47</title>
<path fill="none" stroke="midnightblue" d="M442.83,-347.08C442.7,-340.01 442.52,-329.86 442.35,-320.99"/>
<polygon fill="midnightblue" stroke="midnightblue" points="445.85,-320.68 442.16,-310.75 438.85,-320.81 445.85,-320.68"/>
</g>
<!-- Node49 -->
<g id="node35" class="node">
<title>Node49</title>
<g id="a_node35"><a xlink:title=" ">
<polygon fill="none" stroke="#bfbfbf" points="529.5,-291.5 529.5,-310.5 670.5,-310.5 670.5,-291.5 529.5,-291.5"/>
<text text-anchor="middle" x="600" y="-298.5" font-family="Helvetica,sans-Serif" font-size="10.00">G4UserSteppingAction.hh</text>
</a>
</g>
</g>
<!-- Node48&#45;&gt;Node49 -->
<g id="edge39" class="edge">
<title>Node48&#45;&gt;Node49</title>
<path fill="none" stroke="midnightblue" d="M600,-347.08C600,-340.01 600,-329.86 600,-320.99"/>
<polygon fill="midnightblue" stroke="midnightblue" points="603.5,-320.75 600,-310.75 596.5,-320.75 603.5,-320.75"/>
</g>
<!-- Node51 -->
<g id="node37" class="node">
<title>Node51</title>
<g id="a_node37"><a xlink:href="_o_m_sim_command_args_table_8hh.html" target="_top" xlink:title="Definition of the OMSimCommandArgsTable singleton class, which controls user args.">
<polygon fill="none" stroke="black" points="1428,-235.5 1428,-254.5 1592,-254.5 1592,-235.5 1428,-235.5"/>
<text text-anchor="middle" x="1510" y="-242.5" font-family="Helvetica,sans-Serif" font-size="10.00">OMSimCommandArgsTable.hh</text>
</a>
</g>
</g>
<!-- Node50&#45;&gt;Node51 -->
<g id="edge41" class="edge">
<title>Node50&#45;&gt;Node51</title>
<path fill="none" stroke="midnightblue" d="M1503.32,-291.08C1504.38,-283.93 1505.91,-273.64 1507.23,-264.69"/>
<polygon fill="midnightblue" stroke="midnightblue" points="1510.7,-265.16 1508.7,-254.75 1503.78,-264.13 1510.7,-265.16"/>
</g>
<!-- Node54 -->
<g id="node40" class="node">
<title>Node54</title>
<g id="a_node40"><a xlink:title=" ">
<polygon fill="none" stroke="#bfbfbf" points="1312,-235.5 1312,-254.5 1410,-254.5 1410,-235.5 1312,-235.5"/>
<text text-anchor="middle" x="1361" y="-242.5" font-family="Helvetica,sans-Serif" font-size="10.00">G4UImanager.hh</text>
</a>
</g>
</g>
<!-- Node50&#45;&gt;Node54 -->
<g id="edge47" class="edge">
<title>Node50&#45;&gt;Node54</title>
<path fill="none" stroke="midnightblue" d="M1479.66,-291.44C1456.25,-282.48 1419.26,-268.31 1392.81,-258.18"/>
<polygon fill="midnightblue" stroke="midnightblue" points="1393.83,-254.82 1383.24,-254.52 1391.32,-261.36 1393.83,-254.82"/>
</g>
<!-- Node51&#45;&gt;Node7 -->
<g id="edge42" class="edge">
<title>Node51&#45;&gt;Node7</title>
<path fill="none" stroke="midnightblue" d="M1528.19,-235.41C1550.3,-223.73 1583.02,-201.69 1569,-179 1542.4,-135.97 1401.52,-103.67 1319.47,-88.18"/>
<polygon fill="midnightblue" stroke="midnightblue" points="1319.99,-84.72 1309.52,-86.33 1318.71,-91.6 1319.99,-84.72"/>
</g>
<!-- Node51&#45;&gt;Node29 -->
<g id="edge46" class="edge">
<title>Node51&#45;&gt;Node29</title>
<path fill="none" stroke="midnightblue" d="M1522.82,-235.49C1540.04,-222.98 1566.98,-198.94 1553,-179 1531.69,-148.6 1487.66,-138.66 1458.21,-135.45"/>
<polygon fill="midnightblue" stroke="midnightblue" points="1458.37,-131.95 1448.1,-134.55 1457.75,-138.92 1458.37,-131.95"/>
</g>
<!-- Node51&#45;&gt;Node33 -->
<g id="edge43" class="edge">
<title>Node51&#45;&gt;Node33</title>
<path fill="none" stroke="midnightblue" d="M1481.16,-235.44C1449.78,-226.13 1399.5,-211.22 1365.18,-201.03"/>
<polygon fill="midnightblue" stroke="midnightblue" points="1366.09,-197.65 1355.51,-198.16 1364.1,-204.36 1366.09,-197.65"/>
</g>
<!-- Node52 -->
<g id="node38" class="node">
<title>Node52</title>
<g id="a_node38"><a xlink:title=" ">
<polygon fill="none" stroke="#bfbfbf" points="1374,-179.5 1374,-198.5 1458,-198.5 1458,-179.5 1374,-179.5"/>
<text text-anchor="middle" x="1416" y="-186.5" font-family="Helvetica,sans-Serif" font-size="10.00">boost/any.hpp</text>
</a>
</g>
</g>
<!-- Node51&#45;&gt;Node52 -->
<g id="edge44" class="edge">
<title>Node51&#45;&gt;Node52</title>
<path fill="none" stroke="midnightblue" d="M1494.9,-235.32C1480.1,-226.82 1457.31,-213.73 1440.02,-203.8"/>
<polygon fill="midnightblue" stroke="midnightblue" points="1441.48,-200.6 1431.07,-198.65 1437.99,-206.67 1441.48,-200.6"/>
</g>
<!-- Node53 -->
<g id="node39" class="node">
<title>Node53</title>
<g id="a_node39"><a xlink:title=" ">
<polygon fill="none" stroke="#bfbfbf" points="1476,-179.5 1476,-198.5 1544,-198.5 1544,-179.5 1476,-179.5"/>
<text text-anchor="middle" x="1510" y="-186.5" font-family="Helvetica,sans-Serif" font-size="10.00">sys/time.h</text>
</a>
</g>
</g>
<!-- Node51&#45;&gt;Node53 -->
<g id="edge45" class="edge">
<title>Node51&#45;&gt;Node53</title>
<path fill="none" stroke="midnightblue" d="M1510,-235.08C1510,-228.01 1510,-217.86 1510,-208.99"/>
<polygon fill="midnightblue" stroke="midnightblue" points="1513.5,-208.75 1510,-198.75 1506.5,-208.75 1513.5,-208.75"/>
</g>
<!-- Node59&#45;&gt;Node7 -->
<g id="edge53" class="edge">
<title>Node59&#45;&gt;Node7</title>
<path fill="none" stroke="midnightblue" d="M507.31,-179.28C520.22,-164.59 548.68,-135.3 580,-123 692.12,-78.97 1056.06,-76.51 1200.31,-77.35"/>
<polygon fill="midnightblue" stroke="midnightblue" points="1200.29,-80.85 1210.31,-77.42 1200.34,-73.85 1200.29,-80.85"/>
</g>
<!-- Node59&#45;&gt;Node30 -->
<g id="edge55" class="edge">
<title>Node59&#45;&gt;Node30</title>
<path fill="none" stroke="midnightblue" d="M543.57,-179.44C596,-169.15 683.32,-152 734.39,-141.98"/>
<polygon fill="midnightblue" stroke="midnightblue" points="735.26,-145.37 744.4,-140.01 733.91,-138.5 735.26,-145.37"/>
</g>
<!-- Node59&#45;&gt;Node31 -->
<g id="edge56" class="edge">
<title>Node59&#45;&gt;Node31</title>
<path fill="none" stroke="midnightblue" d="M546.12,-182.72C639.75,-172.01 850.46,-147.9 935.44,-138.18"/>
<polygon fill="midnightblue" stroke="midnightblue" points="935.86,-141.66 945.4,-137.04 935.07,-134.7 935.86,-141.66"/>
</g>
<!-- Node60 -->
<g id="node46" class="node">
<title>Node60</title>
<g id="a_node46"><a xlink:title=" ">
<polygon fill="none" stroke="#bfbfbf" points="317.5,-123.5 317.5,-142.5 384.5,-142.5 384.5,-123.5 317.5,-123.5"/>
<text text-anchor="middle" x="351" y="-130.5" font-family="Helvetica,sans-Serif" font-size="10.00">globals.hh</text>
</a>
</g>
</g>
<!-- Node59&#45;&gt;Node60 -->
<g id="edge54" class="edge">
<title>Node59&#45;&gt;Node60</title>
<path fill="none" stroke="midnightblue" d="M476.39,-179.44C451.54,-170.44 412.23,-156.19 384.25,-146.05"/>
<polygon fill="midnightblue" stroke="midnightblue" points="385.09,-142.63 374.5,-142.52 382.71,-149.21 385.09,-142.63"/>
</g>
<!-- Node61 -->
<g id="node47" class="node">
<title>Node61</title>
<g id="a_node47"><a xlink:title=" ">
<polygon fill="none" stroke="#bfbfbf" points="402.5,-123.5 402.5,-142.5 453.5,-142.5 453.5,-123.5 402.5,-123.5"/>
<text text-anchor="middle" x="428" y="-130.5" font-family="Helvetica,sans-Serif" font-size="10.00">variant</text>
</a>
</g>
</g>
<!-- Node59&#45;&gt;Node61 -->
<g id="edge57" class="edge">
<title>Node59&#45;&gt;Node61</title>
<path fill="none" stroke="midnightblue" d="M488.43,-179.32C477.58,-171.18 461.12,-158.84 448.12,-149.09"/>
<polygon fill="midnightblue" stroke="midnightblue" points="449.88,-146.03 439.78,-142.83 445.68,-151.63 449.88,-146.03"/>
</g>
<!-- Node62 -->
<g id="node48" class="node">
<title>Node62</title>
<g id="a_node48"><a xlink:title=" ">
<polygon fill="none" stroke="#bfbfbf" points="472,-123.5 472,-142.5 528,-142.5 528,-123.5 472,-123.5"/>
<text text-anchor="middle" x="500" y="-130.5" font-family="Helvetica,sans-Serif" font-size="10.00">optional</text>
</a>
</g>
</g>
<!-- Node59&#45;&gt;Node62 -->
<g id="edge58" class="edge">
<title>Node59&#45;&gt;Node62</title>
<path fill="none" stroke="midnightblue" d="M500,-179.08C500,-172.01 500,-161.86 500,-152.99"/>
<polygon fill="midnightblue" stroke="midnightblue" points="503.5,-152.75 500,-142.75 496.5,-152.75 503.5,-152.75"/>
</g>
<!-- Node64 -->
<g id="node50" class="node">
<title>Node64</title>
<g id="a_node50"><a xlink:title=" ">
<polygon fill="none" stroke="#bfbfbf" points="1684,-347.5 1684,-366.5 1850,-366.5 1850,-347.5 1684,-347.5"/>
<text text-anchor="middle" x="1767" y="-354.5" font-family="Helvetica,sans-Serif" font-size="10.00">G4VUserActionInitialization.hh</text>
</a>
</g>
</g>
<!-- Node63&#45;&gt;Node64 -->
<g id="edge61" class="edge">
<title>Node63&#45;&gt;Node64</title>
<path fill="none" stroke="midnightblue" d="M1765.33,-403.08C1765.59,-396.01 1765.97,-385.86 1766.3,-376.99"/>
<polygon fill="midnightblue" stroke="midnightblue" points="1769.8,-376.87 1766.68,-366.75 1762.81,-376.61 1769.8,-376.87"/>
</g>
</g>
</svg>
