<?xml version="1.0" encoding="UTF-8" standalone="no"?>
<!DOCTYPE svg PUBLIC "-//W3C//DTD SVG 1.1//EN"
 "http://www.w3.org/Graphics/SVG/1.1/DTD/svg11.dtd">
<!-- Generated by graphviz version 2.43.0 (0)
 -->
<!-- Title: OMSimG4Scintillation.cc Pages: 1 -->
<svg width="3248pt" height="151pt"
 viewBox="0.00 0.00 3248.00 151.00" xmlns="http://www.w3.org/2000/svg" xmlns:xlink="http://www.w3.org/1999/xlink">
<g id="graph0" class="graph" transform="scale(1 1) rotate(0) translate(4 147)">
<title>OMSimG4Scintillation.cc</title>
<polygon fill="white" stroke="transparent" points="-4,4 -4,-147 3244,-147 3244,4 -4,4"/>
<!-- Node1 -->
<g id="node1" class="node">
<title>Node1</title>
<g id="a_node1"><a xlink:title=" ">
<polygon fill="#bfbfbf" stroke="black" points="1743,-123.5 1743,-142.5 1880,-142.5 1880,-123.5 1743,-123.5"/>
<text text-anchor="middle" x="1811.5" y="-130.5" font-family="Helvetica,sans-Serif" font-size="10.00">OMSimG4Scintillation.cc</text>
</a>
</g>
</g>
<!-- Node2 -->
<g id="node2" class="node">
<title>Node2</title>
<g id="a_node2"><a xlink:href="_o_m_sim_g4_scintillation_8hh.html" target="_top" xlink:title="Original Geant4 scintillation class modified to accept unlimited number of lifetimes.">
<polygon fill="white" stroke="black" points="201.5,-67.5 201.5,-86.5 339.5,-86.5 339.5,-67.5 201.5,-67.5"/>
<text text-anchor="middle" x="270.5" y="-74.5" font-family="Helvetica,sans-Serif" font-size="10.00">OMSimG4Scintillation.hh</text>
</a>
</g>
</g>
<!-- Node1&#45;&gt;Node2 -->
<g id="edge1" class="edge">
<title>Node1&#45;&gt;Node2</title>
<path fill="none" stroke="midnightblue" d="M1742.8,-129.59C1490.8,-120.76 618.02,-90.18 349.64,-80.77"/>
<polygon fill="midnightblue" stroke="midnightblue" points="349.71,-77.27 339.59,-80.42 349.46,-84.27 349.71,-77.27"/>
</g>
<!-- Node3 -->
<g id="node3" class="node">
<title>Node3</title>
<g id="a_node3"><a xlink:title=" ">
<polygon fill="white" stroke="#bfbfbf" points="0,-6 0,-25 67,-25 67,-6 0,-6"/>
<text text-anchor="middle" x="33.5" y="-13" font-family="Helvetica,sans-Serif" font-size="10.00">globals.hh</text>
</a>
</g>
</g>
<!-- Node1&#45;&gt;Node3 -->
<g id="edge11" class="edge">
<title>Node1&#45;&gt;Node3</title>
<path fill="none" stroke="midnightblue" d="M1742.93,-131.66C1454.18,-130.02 344.97,-121.51 192.5,-87 141.48,-75.45 86.69,-47.25 56.61,-30.22"/>
<polygon fill="midnightblue" stroke="midnightblue" points="58.15,-27.07 47.74,-25.12 54.66,-33.14 58.15,-27.07"/>
</g>
<!-- Node7 -->
<g id="node7" class="node">
<title>Node7</title>
<g id="a_node7"><a xlink:href="_o_m_sim_logger_8hh.html" target="_top" xlink:title=" ">
<polygon fill="white" stroke="black" points="573,-67.5 573,-86.5 672,-86.5 672,-67.5 573,-67.5"/>
<text text-anchor="middle" x="622.5" y="-74.5" font-family="Helvetica,sans-Serif" font-size="10.00">OMSimLogger.hh</text>
</a>
</g>
</g>
<!-- Node1&#45;&gt;Node7 -->
<g id="edge6" class="edge">
<title>Node1&#45;&gt;Node7</title>
<path fill="none" stroke="midnightblue" d="M1742.85,-131.93C1567.8,-131.18 1090.41,-125.53 682.26,-86.94"/>
<polygon fill="midnightblue" stroke="midnightblue" points="682.31,-83.43 672.02,-85.96 681.65,-90.4 682.31,-83.43"/>
</g>
<!-- Node12 -->
<g id="node12" class="node">
<title>Node12</title>
<g id="a_node12"><a xlink:title=" ">
<polygon fill="white" stroke="#bfbfbf" points="690,-67.5 690,-86.5 815,-86.5 815,-67.5 690,-67.5"/>
<text text-anchor="middle" x="752.5" y="-74.5" font-family="Helvetica,sans-Serif" font-size="10.00">G4DynamicParticle.hh</text>
</a>
</g>
</g>
<!-- Node1&#45;&gt;Node12 -->
<g id="edge12" class="edge">
<title>Node1&#45;&gt;Node12</title>
<path fill="none" stroke="midnightblue" d="M1742.87,-130.73C1583.64,-127.39 1176.53,-116.52 825.41,-87"/>
<polygon fill="midnightblue" stroke="midnightblue" points="825.56,-83.5 815.3,-86.15 824.97,-90.48 825.56,-83.5"/>
</g>
<!-- Node13 -->
<g id="node13" class="node">
<title>Node13</title>
<g id="a_node13"><a xlink:title=" ">
<polygon fill="white" stroke="#bfbfbf" points="833,-67.5 833,-86.5 972,-86.5 972,-67.5 833,-67.5"/>
<text text-anchor="middle" x="902.5" y="-74.5" font-family="Helvetica,sans-Serif" font-size="10.00">G4EmProcessSubType.hh</text>
</a>
</g>
</g>
<!-- Node1&#45;&gt;Node13 -->
<g id="edge13" class="edge">
<title>Node1&#45;&gt;Node13</title>
<path fill="none" stroke="midnightblue" d="M1742.81,-129.65C1602.25,-124.55 1271.41,-111.01 982.52,-87.03"/>
<polygon fill="midnightblue" stroke="midnightblue" points="982.52,-83.52 972.26,-86.17 981.94,-90.5 982.52,-83.52"/>
</g>
<!-- Node14 -->
<g id="node14" class="node">
<title>Node14</title>
<g id="a_node14"><a xlink:title=" ">
<polygon fill="white" stroke="#bfbfbf" points="990.5,-67.5 990.5,-86.5 1076.5,-86.5 1076.5,-67.5 990.5,-67.5"/>
<text text-anchor="middle" x="1033.5" y="-74.5" font-family="Helvetica,sans-Serif" font-size="10.00">G4Material.hh</text>
</a>
</g>
</g>
<!-- Node1&#45;&gt;Node14 -->
<g id="edge14" class="edge">
<title>Node1&#45;&gt;Node14</title>
<path fill="none" stroke="midnightblue" d="M1742.81,-130.17C1613.83,-126.19 1326.72,-114.77 1086.5,-87 1086.4,-86.99 1086.3,-86.98 1086.2,-86.96"/>
<polygon fill="midnightblue" stroke="midnightblue" points="1086.91,-83.53 1076.54,-85.7 1086.01,-90.47 1086.91,-83.53"/>
</g>
<!-- Node15 -->
<g id="node15" class="node">
<title>Node15</title>
<g id="a_node15"><a xlink:title=" ">
<polygon fill="white" stroke="#bfbfbf" points="1095,-67.5 1095,-86.5 1256,-86.5 1256,-67.5 1095,-67.5"/>
<text text-anchor="middle" x="1175.5" y="-74.5" font-family="Helvetica,sans-Serif" font-size="10.00">G4MaterialPropertiesTable.hh</text>
</a>
</g>
</g>
<!-- Node1&#45;&gt;Node15 -->
<g id="edge15" class="edge">
<title>Node1&#45;&gt;Node15</title>
<path fill="none" stroke="midnightblue" d="M1742.94,-126.74C1641.37,-118.85 1444.65,-103.25 1266.53,-87.08"/>
<polygon fill="midnightblue" stroke="midnightblue" points="1266.72,-83.58 1256.45,-86.16 1266.09,-90.55 1266.72,-83.58"/>
</g>
<!-- Node16 -->
<g id="node16" class="node">
<title>Node16</title>
<g id="a_node16"><a xlink:title=" ">
<polygon fill="white" stroke="#bfbfbf" points="1274,-67.5 1274,-86.5 1431,-86.5 1431,-67.5 1274,-67.5"/>
<text text-anchor="middle" x="1352.5" y="-74.5" font-family="Helvetica,sans-Serif" font-size="10.00">G4MaterialPropertyVector.hh</text>
</a>
</g>
</g>
<!-- Node1&#45;&gt;Node16 -->
<g id="edge16" class="edge">
<title>Node1&#45;&gt;Node16</title>
<path fill="none" stroke="midnightblue" d="M1742.78,-123.92C1660.55,-114.24 1522.96,-98.05 1435.04,-87.71"/>
<polygon fill="midnightblue" stroke="midnightblue" points="1435.44,-84.23 1425.1,-86.54 1434.62,-91.19 1435.44,-84.23"/>
</g>
<!-- Node17 -->
<g id="node17" class="node">
<title>Node17</title>
<g id="a_node17"><a xlink:title=" ">
<polygon fill="white" stroke="#bfbfbf" points="1449,-67.5 1449,-86.5 1584,-86.5 1584,-67.5 1449,-67.5"/>
<text text-anchor="middle" x="1516.5" y="-74.5" font-family="Helvetica,sans-Serif" font-size="10.00">G4OpticalParameters.hh</text>
</a>
</g>
</g>
<!-- Node1&#45;&gt;Node17 -->
<g id="edge17" class="edge">
<title>Node1&#45;&gt;Node17</title>
<path fill="none" stroke="midnightblue" d="M1764.76,-123.44C1712.75,-113.92 1628.75,-98.55 1573.08,-88.36"/>
<polygon fill="midnightblue" stroke="midnightblue" points="1573.49,-84.87 1563.02,-86.52 1572.23,-91.76 1573.49,-84.87"/>
</g>
<!-- Node18 -->
<g id="node18" class="node">
<title>Node18</title>
<g id="a_node18"><a xlink:title=" ">
<polygon fill="white" stroke="#bfbfbf" points="1602,-67.5 1602,-86.5 1739,-86.5 1739,-67.5 1602,-67.5"/>
<text text-anchor="middle" x="1670.5" y="-74.5" font-family="Helvetica,sans-Serif" font-size="10.00">G4ParticleMomentum.hh</text>
</a>
</g>
</g>
<!-- Node1&#45;&gt;Node18 -->
<g id="edge18" class="edge">
<title>Node1&#45;&gt;Node18</title>
<path fill="none" stroke="midnightblue" d="M1789.16,-123.44C1765.75,-114.48 1728.76,-100.31 1702.31,-90.18"/>
<polygon fill="midnightblue" stroke="midnightblue" points="1703.33,-86.82 1692.74,-86.52 1700.82,-93.36 1703.33,-86.82"/>
</g>
<!-- Node19 -->
<g id="node19" class="node">
<title>Node19</title>
<g id="a_node19"><a xlink:title=" ">
<polygon fill="white" stroke="#bfbfbf" points="1757,-67.5 1757,-86.5 1866,-86.5 1866,-67.5 1757,-67.5"/>
<text text-anchor="middle" x="1811.5" y="-74.5" font-family="Helvetica,sans-Serif" font-size="10.00">G4ParticleTypes.hh</text>
</a>
</g>
</g>
<!-- Node1&#45;&gt;Node19 -->
<g id="edge19" class="edge">
<title>Node1&#45;&gt;Node19</title>
<path fill="none" stroke="midnightblue" d="M1811.5,-123.08C1811.5,-116.01 1811.5,-105.86 1811.5,-96.99"/>
<polygon fill="midnightblue" stroke="midnightblue" points="1815,-96.75 1811.5,-86.75 1808,-96.75 1815,-96.75"/>
</g>
<!-- Node20 -->
<g id="node20" class="node">
<title>Node20</title>
<g id="a_node20"><a xlink:title=" ">
<polygon fill="white" stroke="#bfbfbf" points="1884.5,-67.5 1884.5,-86.5 2018.5,-86.5 2018.5,-67.5 1884.5,-67.5"/>
<text text-anchor="middle" x="1951.5" y="-74.5" font-family="Helvetica,sans-Serif" font-size="10.00">G4PhysicalConstants.hh</text>
</a>
</g>
</g>
<!-- Node1&#45;&gt;Node20 -->
<g id="edge20" class="edge">
<title>Node1&#45;&gt;Node20</title>
<path fill="none" stroke="midnightblue" d="M1833.68,-123.44C1856.93,-114.48 1893.65,-100.31 1919.92,-90.18"/>
<polygon fill="midnightblue" stroke="midnightblue" points="1921.35,-93.38 1929.42,-86.52 1918.83,-86.85 1921.35,-93.38"/>
</g>
<!-- Node21 -->
<g id="node21" class="node">
<title>Node21</title>
<g id="a_node21"><a xlink:title=" ">
<polygon fill="white" stroke="#bfbfbf" points="2037,-67.5 2037,-86.5 2170,-86.5 2170,-67.5 2037,-67.5"/>
<text text-anchor="middle" x="2103.5" y="-74.5" font-family="Helvetica,sans-Serif" font-size="10.00">G4PhysicsFreeVector.hh</text>
</a>
</g>
</g>
<!-- Node1&#45;&gt;Node21 -->
<g id="edge21" class="edge">
<title>Node1&#45;&gt;Node21</title>
<path fill="none" stroke="midnightblue" d="M1857.77,-123.44C1909.24,-113.92 1992.39,-98.55 2047.5,-88.36"/>
<polygon fill="midnightblue" stroke="midnightblue" points="2048.25,-91.78 2057.45,-86.52 2046.98,-84.89 2048.25,-91.78"/>
</g>
<!-- Node22 -->
<g id="node22" class="node">
<title>Node22</title>
<g id="a_node22"><a xlink:title=" ">
<polygon fill="white" stroke="#bfbfbf" points="2188,-67.5 2188,-86.5 2295,-86.5 2295,-67.5 2188,-67.5"/>
<text text-anchor="middle" x="2241.5" y="-74.5" font-family="Helvetica,sans-Serif" font-size="10.00">G4PhysicsTable.hh</text>
</a>
</g>
</g>
<!-- Node1&#45;&gt;Node22 -->
<g id="edge22" class="edge">
<title>Node1&#45;&gt;Node22</title>
<path fill="none" stroke="midnightblue" d="M1880.06,-124.08C1951.85,-115.69 2068.13,-101.79 2177.83,-87.2"/>
<polygon fill="midnightblue" stroke="midnightblue" points="2178.29,-90.67 2187.74,-85.88 2177.37,-83.73 2178.29,-90.67"/>
</g>
<!-- Node23 -->
<g id="node23" class="node">
<title>Node23</title>
<g id="a_node23"><a xlink:title=" ">
<polygon fill="white" stroke="#bfbfbf" points="2313,-67.5 2313,-86.5 2396,-86.5 2396,-67.5 2313,-67.5"/>
<text text-anchor="middle" x="2354.5" y="-74.5" font-family="Helvetica,sans-Serif" font-size="10.00">G4Poisson.hh</text>
</a>
</g>
</g>
<!-- Node1&#45;&gt;Node23 -->
<g id="edge23" class="edge">
<title>Node1&#45;&gt;Node23</title>
<path fill="none" stroke="midnightblue" d="M1880.3,-127.62C1973.73,-121.25 2146.14,-107.99 2302.52,-87.17"/>
<polygon fill="midnightblue" stroke="midnightblue" points="2303.36,-90.59 2312.8,-85.79 2302.42,-83.65 2303.36,-90.59"/>
</g>
<!-- Node24 -->
<g id="node24" class="node">
<title>Node24</title>
<g id="a_node24"><a xlink:title=" ">
<polygon fill="white" stroke="#bfbfbf" points="2414,-67.5 2414,-86.5 2599,-86.5 2599,-67.5 2414,-67.5"/>
<text text-anchor="middle" x="2506.5" y="-74.5" font-family="Helvetica,sans-Serif" font-size="10.00">G4ScintillationTrackInformation.hh</text>
</a>
</g>
</g>
<!-- Node1&#45;&gt;Node24 -->
<g id="edge24" class="edge">
<title>Node1&#45;&gt;Node24</title>
<path fill="none" stroke="midnightblue" d="M1880.12,-127.1C1988.85,-119.27 2207.69,-103.24 2403.57,-87.15"/>
<polygon fill="midnightblue" stroke="midnightblue" points="2404.09,-90.62 2413.77,-86.31 2403.51,-83.64 2404.09,-90.62"/>
</g>
<!-- Node25 -->
<g id="node25" class="node">
<title>Node25</title>
<g id="a_node25"><a xlink:title=" ">
<polygon fill="white" stroke="#bfbfbf" points="2617.5,-67.5 2617.5,-86.5 2709.5,-86.5 2709.5,-67.5 2617.5,-67.5"/>
<text text-anchor="middle" x="2663.5" y="-74.5" font-family="Helvetica,sans-Serif" font-size="10.00">G4StepPoint.hh</text>
</a>
</g>
</g>
<!-- Node1&#45;&gt;Node25 -->
<g id="edge25" class="edge">
<title>Node1&#45;&gt;Node25</title>
<path fill="none" stroke="midnightblue" d="M1880.2,-130.57C2016.77,-127.19 2332.21,-116.72 2607.16,-87.03"/>
<polygon fill="midnightblue" stroke="midnightblue" points="2607.77,-90.48 2617.34,-85.92 2607.01,-83.52 2607.77,-90.48"/>
</g>
<!-- Node26 -->
<g id="node26" class="node">
<title>Node26</title>
<g id="a_node26"><a xlink:title=" ">
<polygon fill="white" stroke="#bfbfbf" points="2728,-67.5 2728,-86.5 2847,-86.5 2847,-67.5 2728,-67.5"/>
<text text-anchor="middle" x="2787.5" y="-74.5" font-family="Helvetica,sans-Serif" font-size="10.00">G4SystemOfUnits.hh</text>
</a>
</g>
</g>
<!-- Node1&#45;&gt;Node26 -->
<g id="edge26" class="edge">
<title>Node1&#45;&gt;Node26</title>
<path fill="none" stroke="midnightblue" d="M1880.18,-130.47C2030.12,-126.72 2398.2,-115.32 2717.32,-87.03"/>
<polygon fill="midnightblue" stroke="midnightblue" points="2718.04,-90.48 2727.69,-86.1 2717.42,-83.5 2718.04,-90.48"/>
</g>
<!-- Node27 -->
<g id="node27" class="node">
<title>Node27</title>
<g id="a_node27"><a xlink:title=" ">
<polygon fill="white" stroke="#bfbfbf" points="2865,-67.5 2865,-86.5 2968,-86.5 2968,-67.5 2865,-67.5"/>
<text text-anchor="middle" x="2916.5" y="-74.5" font-family="Helvetica,sans-Serif" font-size="10.00">G4ThreeVector.hh</text>
</a>
</g>
</g>
<!-- Node1&#45;&gt;Node27 -->
<g id="edge27" class="edge">
<title>Node1&#45;&gt;Node27</title>
<path fill="none" stroke="midnightblue" d="M1880.14,-131.55C2045.96,-129.94 2481.6,-122.46 2854.65,-87.08"/>
<polygon fill="midnightblue" stroke="midnightblue" points="2855.21,-90.54 2864.83,-86.1 2854.54,-83.57 2855.21,-90.54"/>
</g>
<!-- Node28 -->
<g id="node28" class="node">
<title>Node28</title>
<g id="a_node28"><a xlink:title=" ">
<polygon fill="white" stroke="#bfbfbf" points="2986.5,-67.5 2986.5,-86.5 3072.5,-86.5 3072.5,-67.5 2986.5,-67.5"/>
<text text-anchor="middle" x="3029.5" y="-74.5" font-family="Helvetica,sans-Serif" font-size="10.00">Randomize.hh</text>
</a>
</g>
</g>
<!-- Node1&#45;&gt;Node28 -->
<g id="edge28" class="edge">
<title>Node1&#45;&gt;Node28</title>
<path fill="none" stroke="midnightblue" d="M1880.07,-132.53C2058.96,-133.21 2554.65,-130.77 2976.48,-86.95"/>
<polygon fill="midnightblue" stroke="midnightblue" points="2976.85,-90.43 2986.43,-85.91 2976.12,-83.47 2976.85,-90.43"/>
</g>
<!-- Node29 -->
<g id="node29" class="node">
<title>Node29</title>
<g id="a_node29"><a xlink:title=" ">
<polygon fill="white" stroke="#bfbfbf" points="3091,-67.5 3091,-86.5 3240,-86.5 3240,-67.5 3091,-67.5"/>
<text text-anchor="middle" x="3165.5" y="-74.5" font-family="Helvetica,sans-Serif" font-size="10.00">G4PhysicsModelCatalog.hh</text>
</a>
</g>
</g>
<!-- Node1&#45;&gt;Node29 -->
<g id="edge29" class="edge">
<title>Node1&#45;&gt;Node29</title>
<path fill="none" stroke="midnightblue" d="M1880.08,-131.29C2069.39,-128.96 2615.41,-119.75 3080.59,-87"/>
<polygon fill="midnightblue" stroke="midnightblue" points="3081.14,-90.47 3090.87,-86.28 3080.65,-83.49 3081.14,-90.47"/>
</g>
<!-- Node2&#45;&gt;Node3 -->
<g id="edge2" class="edge">
<title>Node2&#45;&gt;Node3</title>
<path fill="none" stroke="midnightblue" d="M227.56,-67.45C187.83,-59.22 127.26,-45.86 75.5,-31 72.56,-30.15 69.51,-29.22 66.47,-28.25"/>
<polygon fill="midnightblue" stroke="midnightblue" points="67.5,-24.9 56.91,-25.07 65.29,-31.55 67.5,-24.9"/>
</g>
<!-- Node4 -->
<g id="node4" class="node">
<title>Node4</title>
<g id="a_node4"><a xlink:title=" ">
<polygon fill="white" stroke="#bfbfbf" points="85,-6 85,-25 196,-25 196,-6 85,-6"/>
<text text-anchor="middle" x="140.5" y="-13" font-family="Helvetica,sans-Serif" font-size="10.00">G4EmSaturation.hh</text>
</a>
</g>
</g>
<!-- Node2&#45;&gt;Node4 -->
<g id="edge3" class="edge">
<title>Node2&#45;&gt;Node4</title>
<path fill="none" stroke="midnightblue" d="M251.87,-67.48C230.06,-57.49 193.7,-40.85 168.48,-29.31"/>
<polygon fill="midnightblue" stroke="midnightblue" points="169.64,-25.99 159.09,-25.01 166.73,-32.35 169.64,-25.99"/>
</g>
<!-- Node5 -->
<g id="node5" class="node">
<title>Node5</title>
<g id="a_node5"><a xlink:title=" ">
<polygon fill="white" stroke="#bfbfbf" points="214,-6 214,-25 327,-25 327,-6 214,-6"/>
<text text-anchor="middle" x="270.5" y="-13" font-family="Helvetica,sans-Serif" font-size="10.00">G4OpticalPhoton.hh</text>
</a>
</g>
</g>
<!-- Node2&#45;&gt;Node5 -->
<g id="edge4" class="edge">
<title>Node2&#45;&gt;Node5</title>
<path fill="none" stroke="midnightblue" d="M270.5,-67.48C270.5,-59.08 270.5,-45.98 270.5,-35.16"/>
<polygon fill="midnightblue" stroke="midnightblue" points="274,-35.01 270.5,-25.01 267,-35.01 274,-35.01"/>
</g>
<!-- Node6 -->
<g id="node6" class="node">
<title>Node6</title>
<g id="a_node6"><a xlink:title=" ">
<polygon fill="white" stroke="#bfbfbf" points="345.5,-6 345.5,-25 497.5,-25 497.5,-6 345.5,-6"/>
<text text-anchor="middle" x="421.5" y="-13" font-family="Helvetica,sans-Serif" font-size="10.00">G4VRestDiscreteProcess.hh</text>
</a>
</g>
</g>
<!-- Node2&#45;&gt;Node6 -->
<g id="edge5" class="edge">
<title>Node2&#45;&gt;Node6</title>
<path fill="none" stroke="midnightblue" d="M292.13,-67.48C317.92,-57.31 361.21,-40.26 390.54,-28.7"/>
<polygon fill="midnightblue" stroke="midnightblue" points="391.88,-31.93 399.91,-25.01 389.32,-25.42 391.88,-31.93"/>
</g>
<!-- Node8 -->
<g id="node8" class="node">
<title>Node8</title>
<g id="a_node8"><a xlink:title=" ">
<polygon fill="white" stroke="#bfbfbf" points="516,-6 516,-25 609,-25 609,-6 516,-6"/>
<text text-anchor="middle" x="562.5" y="-13" font-family="Helvetica,sans-Serif" font-size="10.00">spdlog/spdlog.h</text>
</a>
</g>
</g>
<!-- Node7&#45;&gt;Node8 -->
<g id="edge7" class="edge">
<title>Node7&#45;&gt;Node8</title>
<path fill="none" stroke="midnightblue" d="M613.9,-67.48C604.64,-58.28 589.68,-43.46 578.29,-32.16"/>
<polygon fill="midnightblue" stroke="midnightblue" points="580.65,-29.57 571.08,-25.01 575.72,-34.54 580.65,-29.57"/>
</g>
<!-- Node9 -->
<g id="node9" class="node">
<title>Node9</title>
<g id="a_node9"><a xlink:title=" ">
<polygon fill="white" stroke="#bfbfbf" points="627,-0.5 627,-30.5 738,-30.5 738,-0.5 627,-0.5"/>
<text text-anchor="start" x="635" y="-18.5" font-family="Helvetica,sans-Serif" font-size="10.00">spdlog/sinks/stdout</text>
<text text-anchor="middle" x="682.5" y="-7.5" font-family="Helvetica,sans-Serif" font-size="10.00">_color_sinks.h</text>
</a>
</g>
</g>
<!-- Node7&#45;&gt;Node9 -->
<g id="edge8" class="edge">
<title>Node7&#45;&gt;Node9</title>
<path fill="none" stroke="midnightblue" d="M631.1,-67.48C638.92,-59.72 650.79,-47.94 661.16,-37.66"/>
<polygon fill="midnightblue" stroke="midnightblue" points="663.72,-40.05 668.36,-30.52 658.79,-35.08 663.72,-40.05"/>
</g>
<!-- Node10 -->
<g id="node10" class="node">
<title>Node10</title>
<g id="a_node10"><a xlink:title=" ">
<polygon fill="white" stroke="#bfbfbf" points="756.5,-6 756.5,-25 814.5,-25 814.5,-6 756.5,-6"/>
<text text-anchor="middle" x="785.5" y="-13" font-family="Helvetica,sans-Serif" font-size="10.00">memory</text>
</a>
</g>
</g>
<!-- Node7&#45;&gt;Node10 -->
<g id="edge9" class="edge">
<title>Node7&#45;&gt;Node10</title>
<path fill="none" stroke="midnightblue" d="M646.98,-67.34C672.22,-58.38 712.68,-43.91 747.5,-31 749.6,-30.22 751.76,-29.41 753.93,-28.6"/>
<polygon fill="midnightblue" stroke="midnightblue" points="755.31,-31.82 763.42,-25.01 752.83,-25.27 755.31,-31.82"/>
</g>
<!-- Node11 -->
<g id="node11" class="node">
<title>Node11</title>
<g id="a_node11"><a xlink:title=" ">
<polygon fill="white" stroke="#bfbfbf" points="832.5,-6 832.5,-25 930.5,-25 930.5,-6 832.5,-6"/>
<text text-anchor="middle" x="881.5" y="-13" font-family="Helvetica,sans-Serif" font-size="10.00">spdlog/fmt/fmt.h</text>
</a>
</g>
</g>
<!-- Node7&#45;&gt;Node11 -->
<g id="edge10" class="edge">
<title>Node7&#45;&gt;Node11</title>
<path fill="none" stroke="midnightblue" d="M661.85,-67.49C702.42,-58.65 767.48,-44.27 823.5,-31 828.18,-29.89 833.06,-28.71 837.92,-27.52"/>
<polygon fill="midnightblue" stroke="midnightblue" points="838.93,-30.87 847.8,-25.08 837.25,-24.08 838.93,-30.87"/>
</g>
</g>
</svg>
