<?xml version="1.0" encoding="UTF-8" standalone="no"?>
<!DOCTYPE svg PUBLIC "-//W3C//DTD SVG 1.1//EN"
 "http://www.w3.org/Graphics/SVG/1.1/DTD/svg11.dtd">
<!-- Generated by graphviz version 2.43.0 (0)
 -->
<!-- Title: OMSimDataFileTypes.cc Pages: 1 -->
<svg width="1138pt" height="274pt"
 viewBox="0.00 0.00 1137.50 274.00" xmlns="http://www.w3.org/2000/svg" xmlns:xlink="http://www.w3.org/1999/xlink">
<g id="graph0" class="graph" transform="scale(1 1) rotate(0) translate(4 270)">
<title>OMSimDataFileTypes.cc</title>
<polygon fill="white" stroke="transparent" points="-4,4 -4,-270 1133.5,-270 1133.5,4 -4,4"/>
<!-- Node1 -->
<g id="node1" class="node">
<title>Node1</title>
<g id="a_node1"><a xlink:title=" ">
<polygon fill="#bfbfbf" stroke="black" points="772.5,-246.5 772.5,-265.5 906.5,-265.5 906.5,-246.5 772.5,-246.5"/>
<text text-anchor="middle" x="839.5" y="-253.5" font-family="Helvetica,sans-Serif" font-size="10.00">OMSimDataFileTypes.cc</text>
</a>
</g>
</g>
<!-- Node2 -->
<g id="node2" class="node">
<title>Node2</title>
<g id="a_node2"><a xlink:href="_o_m_sim_data_file_types_8hh.html" target="_top" xlink:title="Collection of classes and methods to handle material creation from user data in json files.">
<polygon fill="white" stroke="black" points="382,-190.5 382,-209.5 517,-209.5 517,-190.5 382,-190.5"/>
<text text-anchor="middle" x="449.5" y="-197.5" font-family="Helvetica,sans-Serif" font-size="10.00">OMSimDataFileTypes.hh</text>
</a>
</g>
</g>
<!-- Node1&#45;&gt;Node2 -->
<g id="edge1" class="edge">
<title>Node1&#45;&gt;Node2</title>
<path fill="none" stroke="midnightblue" d="M777.7,-246.44C707.96,-236.79 594.66,-221.1 521.11,-210.92"/>
<polygon fill="midnightblue" stroke="midnightblue" points="521.39,-207.42 511.01,-209.52 520.43,-214.35 521.39,-207.42"/>
</g>
<!-- Node8 -->
<g id="node8" class="node">
<title>Node8</title>
<g id="a_node8"><a xlink:href="_o_m_sim_logger_8hh.html" target="_top" xlink:title=" ">
<polygon fill="white" stroke="black" points="698,-67.5 698,-86.5 797,-86.5 797,-67.5 698,-67.5"/>
<text text-anchor="middle" x="747.5" y="-74.5" font-family="Helvetica,sans-Serif" font-size="10.00">OMSimLogger.hh</text>
</a>
</g>
</g>
<!-- Node1&#45;&gt;Node8 -->
<g id="edge20" class="edge">
<title>Node1&#45;&gt;Node8</title>
<path fill="none" stroke="midnightblue" d="M831.54,-246.18C823.93,-237.45 812.46,-223.46 804.5,-210 781.81,-171.65 763.05,-122.61 753.77,-96.42"/>
<polygon fill="midnightblue" stroke="midnightblue" points="756.98,-95 750.39,-86.7 750.37,-97.3 756.98,-95"/>
</g>
<!-- Node16 -->
<g id="node16" class="node">
<title>Node16</title>
<g id="a_node16"><a xlink:href="_o_m_sim_input_data_8hh.html" target="_top" xlink:title="Definition of ParameterTable and InputDataManager.">
<polygon fill="white" stroke="black" points="605,-190.5 605,-209.5 720,-209.5 720,-190.5 605,-190.5"/>
<text text-anchor="middle" x="662.5" y="-197.5" font-family="Helvetica,sans-Serif" font-size="10.00">OMSimInputData.hh</text>
</a>
</g>
</g>
<!-- Node1&#45;&gt;Node16 -->
<g id="edge15" class="edge">
<title>Node1&#45;&gt;Node16</title>
<path fill="none" stroke="midnightblue" d="M811.45,-246.44C781.42,-237.28 733.59,-222.69 700.26,-212.52"/>
<polygon fill="midnightblue" stroke="midnightblue" points="701,-209.09 690.41,-209.52 698.96,-215.78 701,-209.09"/>
</g>
<!-- Node17 -->
<g id="node17" class="node">
<title>Node17</title>
<g id="a_node17"><a xlink:title=" ">
<polygon fill="white" stroke="#bfbfbf" points="813.5,-190.5 813.5,-209.5 975.5,-209.5 975.5,-190.5 813.5,-190.5"/>
<text text-anchor="middle" x="894.5" y="-197.5" font-family="Helvetica,sans-Serif" font-size="10.00">G4MaterialPropertiesIndex.hh</text>
</a>
</g>
</g>
<!-- Node1&#45;&gt;Node17 -->
<g id="edge21" class="edge">
<title>Node1&#45;&gt;Node17</title>
<path fill="none" stroke="midnightblue" d="M848.58,-246.08C856.67,-238.14 868.7,-226.34 878.41,-216.8"/>
<polygon fill="midnightblue" stroke="midnightblue" points="880.9,-219.25 885.59,-209.75 876,-214.26 880.9,-219.25"/>
</g>
<!-- Node18 -->
<g id="node18" class="node">
<title>Node18</title>
<g id="a_node18"><a xlink:title=" ">
<polygon fill="white" stroke="#bfbfbf" points="994,-190.5 994,-209.5 1055,-209.5 1055,-190.5 994,-190.5"/>
<text text-anchor="middle" x="1024.5" y="-197.5" font-family="Helvetica,sans-Serif" font-size="10.00">TGraph.h</text>
</a>
</g>
</g>
<!-- Node1&#45;&gt;Node18 -->
<g id="edge22" class="edge">
<title>Node1&#45;&gt;Node18</title>
<path fill="none" stroke="midnightblue" d="M868.81,-246.44C900.34,-237.24 950.63,-222.56 985.49,-212.39"/>
<polygon fill="midnightblue" stroke="midnightblue" points="986.7,-215.68 995.32,-209.52 984.74,-208.96 986.7,-215.68"/>
</g>
<!-- Node19 -->
<g id="node19" class="node">
<title>Node19</title>
<g id="a_node19"><a xlink:title=" ">
<polygon fill="white" stroke="#bfbfbf" points="1073.5,-190.5 1073.5,-209.5 1129.5,-209.5 1129.5,-190.5 1073.5,-190.5"/>
<text text-anchor="middle" x="1101.5" y="-197.5" font-family="Helvetica,sans-Serif" font-size="10.00">numeric</text>
</a>
</g>
</g>
<!-- Node1&#45;&gt;Node19 -->
<g id="edge23" class="edge">
<title>Node1&#45;&gt;Node19</title>
<path fill="none" stroke="midnightblue" d="M884.87,-246.5C928.26,-238.23 995.77,-225.05 1063.29,-210.2"/>
<polygon fill="midnightblue" stroke="midnightblue" points="1064.24,-213.58 1073.25,-208 1062.73,-206.74 1064.24,-213.58"/>
</g>
<!-- Node3 -->
<g id="node3" class="node">
<title>Node3</title>
<g id="a_node3"><a xlink:title=" ">
<polygon fill="white" stroke="#bfbfbf" points="0,-129 0,-148 107,-148 107,-129 0,-129"/>
<text text-anchor="middle" x="53.5" y="-136" font-family="Helvetica,sans-Serif" font-size="10.00">G4NistManager.hh</text>
</a>
</g>
</g>
<!-- Node2&#45;&gt;Node3 -->
<g id="edge2" class="edge">
<title>Node2&#45;&gt;Node3</title>
<path fill="none" stroke="midnightblue" d="M381.93,-191.71C314.45,-184 207.9,-170.66 116.5,-154 110.56,-152.92 104.33,-151.65 98.2,-150.32"/>
<polygon fill="midnightblue" stroke="midnightblue" points="98.56,-146.82 88.04,-148.05 97.04,-153.65 98.56,-146.82"/>
</g>
<!-- Node4 -->
<g id="node4" class="node">
<title>Node4</title>
<g id="a_node4"><a xlink:title=" ">
<polygon fill="white" stroke="#bfbfbf" points="308,-129 308,-148 451,-148 451,-129 308,-129"/>
<text text-anchor="middle" x="379.5" y="-136" font-family="Helvetica,sans-Serif" font-size="10.00">G4OpBoundaryProcess.hh</text>
</a>
</g>
</g>
<!-- Node2&#45;&gt;Node4 -->
<g id="edge3" class="edge">
<title>Node2&#45;&gt;Node4</title>
<path fill="none" stroke="midnightblue" d="M439.47,-190.48C428.45,-181.11 410.54,-165.88 397.16,-154.51"/>
<polygon fill="midnightblue" stroke="midnightblue" points="399.4,-151.82 389.51,-148.01 394.86,-157.15 399.4,-151.82"/>
</g>
<!-- Node5 -->
<g id="node5" class="node">
<title>Node5</title>
<g id="a_node5"><a xlink:title=" ">
<polygon fill="white" stroke="#bfbfbf" points="469,-129 469,-148 588,-148 588,-129 469,-129"/>
<text text-anchor="middle" x="528.5" y="-136" font-family="Helvetica,sans-Serif" font-size="10.00">G4SystemOfUnits.hh</text>
</a>
</g>
</g>
<!-- Node2&#45;&gt;Node5 -->
<g id="edge4" class="edge">
<title>Node2&#45;&gt;Node5</title>
<path fill="none" stroke="midnightblue" d="M460.82,-190.48C473.37,-181.02 493.85,-165.6 509,-154.19"/>
<polygon fill="midnightblue" stroke="midnightblue" points="511.32,-156.82 517.2,-148.01 507.11,-151.23 511.32,-156.82"/>
</g>
<!-- Node6 -->
<g id="node6" class="node">
<title>Node6</title>
<g id="a_node6"><a xlink:title=" ">
<polygon fill="white" stroke="#bfbfbf" points="606,-123.5 606,-153.5 719,-153.5 719,-123.5 606,-123.5"/>
<text text-anchor="start" x="614" y="-141.5" font-family="Helvetica,sans-Serif" font-size="10.00">boost/property_tree</text>
<text text-anchor="middle" x="662.5" y="-130.5" font-family="Helvetica,sans-Serif" font-size="10.00">/json_parser.hpp</text>
</a>
</g>
</g>
<!-- Node2&#45;&gt;Node6 -->
<g id="edge5" class="edge">
<title>Node2&#45;&gt;Node6</title>
<path fill="none" stroke="midnightblue" d="M480.02,-190.48C511.9,-181.57 562.73,-167.37 602.66,-156.22"/>
<polygon fill="midnightblue" stroke="midnightblue" points="603.61,-159.58 612.3,-153.52 601.73,-152.84 603.61,-159.58"/>
</g>
<!-- Node7 -->
<g id="node7" class="node">
<title>Node7</title>
<g id="a_node7"><a xlink:href="_o_m_sim_command_args_table_8hh.html" target="_top" xlink:title="Definition of the OMSimCommandArgsTable singleton class, which controls user args.">
<polygon fill="white" stroke="black" points="125.5,-129 125.5,-148 289.5,-148 289.5,-129 125.5,-129"/>
<text text-anchor="middle" x="207.5" y="-136" font-family="Helvetica,sans-Serif" font-size="10.00">OMSimCommandArgsTable.hh</text>
</a>
</g>
</g>
<!-- Node2&#45;&gt;Node7 -->
<g id="edge6" class="edge">
<title>Node2&#45;&gt;Node7</title>
<path fill="none" stroke="midnightblue" d="M414.83,-190.48C371.97,-179.94 298.96,-161.99 252,-150.44"/>
<polygon fill="midnightblue" stroke="midnightblue" points="252.65,-147 242.11,-148.01 250.98,-153.8 252.65,-147"/>
</g>
<!-- Node7&#45;&gt;Node8 -->
<g id="edge7" class="edge">
<title>Node7&#45;&gt;Node8</title>
<path fill="none" stroke="midnightblue" d="M258.52,-128.94C271.84,-126.84 286.19,-124.72 299.5,-123 438.07,-105.14 601.53,-90.28 687.57,-82.94"/>
<polygon fill="midnightblue" stroke="midnightblue" points="688.01,-86.42 697.67,-82.08 687.41,-79.44 688.01,-86.42"/>
</g>
<!-- Node13 -->
<g id="node13" class="node">
<title>Node13</title>
<g id="a_node13"><a xlink:title=" ">
<polygon fill="white" stroke="#bfbfbf" points="180,-67.5 180,-86.5 235,-86.5 235,-67.5 180,-67.5"/>
<text text-anchor="middle" x="207.5" y="-74.5" font-family="Helvetica,sans-Serif" font-size="10.00">fstream</text>
</a>
</g>
</g>
<!-- Node7&#45;&gt;Node13 -->
<g id="edge12" class="edge">
<title>Node7&#45;&gt;Node13</title>
<path fill="none" stroke="midnightblue" d="M207.5,-128.98C207.5,-120.58 207.5,-107.48 207.5,-96.66"/>
<polygon fill="midnightblue" stroke="midnightblue" points="211,-96.51 207.5,-86.51 204,-96.51 211,-96.51"/>
</g>
<!-- Node14 -->
<g id="node14" class="node">
<title>Node14</title>
<g id="a_node14"><a xlink:title=" ">
<polygon fill="white" stroke="#bfbfbf" points="253.5,-67.5 253.5,-86.5 337.5,-86.5 337.5,-67.5 253.5,-67.5"/>
<text text-anchor="middle" x="295.5" y="-74.5" font-family="Helvetica,sans-Serif" font-size="10.00">boost/any.hpp</text>
</a>
</g>
</g>
<!-- Node7&#45;&gt;Node14 -->
<g id="edge13" class="edge">
<title>Node7&#45;&gt;Node14</title>
<path fill="none" stroke="midnightblue" d="M220.11,-128.98C234.22,-119.43 257.33,-103.81 274.25,-92.37"/>
<polygon fill="midnightblue" stroke="midnightblue" points="276.59,-95.01 282.92,-86.51 272.67,-89.21 276.59,-95.01"/>
</g>
<!-- Node15 -->
<g id="node15" class="node">
<title>Node15</title>
<g id="a_node15"><a xlink:title=" ">
<polygon fill="white" stroke="#bfbfbf" points="93.5,-67.5 93.5,-86.5 161.5,-86.5 161.5,-67.5 93.5,-67.5"/>
<text text-anchor="middle" x="127.5" y="-74.5" font-family="Helvetica,sans-Serif" font-size="10.00">sys/time.h</text>
</a>
</g>
</g>
<!-- Node7&#45;&gt;Node15 -->
<g id="edge14" class="edge">
<title>Node7&#45;&gt;Node15</title>
<path fill="none" stroke="midnightblue" d="M196.04,-128.98C183.33,-119.52 162.59,-104.1 147.25,-92.69"/>
<polygon fill="midnightblue" stroke="midnightblue" points="149.05,-89.67 138.94,-86.51 144.88,-95.29 149.05,-89.67"/>
</g>
<!-- Node9 -->
<g id="node9" class="node">
<title>Node9</title>
<g id="a_node9"><a xlink:title=" ">
<polygon fill="white" stroke="#bfbfbf" points="529,-6 529,-25 622,-25 622,-6 529,-6"/>
<text text-anchor="middle" x="575.5" y="-13" font-family="Helvetica,sans-Serif" font-size="10.00">spdlog/spdlog.h</text>
</a>
</g>
</g>
<!-- Node8&#45;&gt;Node9 -->
<g id="edge8" class="edge">
<title>Node8&#45;&gt;Node9</title>
<path fill="none" stroke="midnightblue" d="M722.86,-67.48C693.22,-57.22 643.32,-39.96 609.9,-28.4"/>
<polygon fill="midnightblue" stroke="midnightblue" points="610.69,-24.97 600.1,-25.01 608.4,-31.59 610.69,-24.97"/>
</g>
<!-- Node10 -->
<g id="node10" class="node">
<title>Node10</title>
<g id="a_node10"><a xlink:title=" ">
<polygon fill="white" stroke="#bfbfbf" points="640,-0.5 640,-30.5 751,-30.5 751,-0.5 640,-0.5"/>
<text text-anchor="start" x="648" y="-18.5" font-family="Helvetica,sans-Serif" font-size="10.00">spdlog/sinks/stdout</text>
<text text-anchor="middle" x="695.5" y="-7.5" font-family="Helvetica,sans-Serif" font-size="10.00">_color_sinks.h</text>
</a>
</g>
</g>
<!-- Node8&#45;&gt;Node10 -->
<g id="edge9" class="edge">
<title>Node8&#45;&gt;Node10</title>
<path fill="none" stroke="midnightblue" d="M740.05,-67.48C733.4,-59.87 723.38,-48.4 714.52,-38.26"/>
<polygon fill="midnightblue" stroke="midnightblue" points="716.97,-35.75 707.76,-30.52 711.7,-40.36 716.97,-35.75"/>
</g>
<!-- Node11 -->
<g id="node11" class="node">
<title>Node11</title>
<g id="a_node11"><a xlink:title=" ">
<polygon fill="white" stroke="#bfbfbf" points="769.5,-6 769.5,-25 827.5,-25 827.5,-6 769.5,-6"/>
<text text-anchor="middle" x="798.5" y="-13" font-family="Helvetica,sans-Serif" font-size="10.00">memory</text>
</a>
</g>
</g>
<!-- Node8&#45;&gt;Node11 -->
<g id="edge10" class="edge">
<title>Node8&#45;&gt;Node11</title>
<path fill="none" stroke="midnightblue" d="M754.81,-67.48C762.53,-58.46 774.91,-44.02 784.52,-32.81"/>
<polygon fill="midnightblue" stroke="midnightblue" points="787.36,-34.88 791.21,-25.01 782.04,-30.32 787.36,-34.88"/>
</g>
<!-- Node12 -->
<g id="node12" class="node">
<title>Node12</title>
<g id="a_node12"><a xlink:title=" ">
<polygon fill="white" stroke="#bfbfbf" points="845.5,-6 845.5,-25 943.5,-25 943.5,-6 845.5,-6"/>
<text text-anchor="middle" x="894.5" y="-13" font-family="Helvetica,sans-Serif" font-size="10.00">spdlog/fmt/fmt.h</text>
</a>
</g>
</g>
<!-- Node8&#45;&gt;Node12 -->
<g id="edge11" class="edge">
<title>Node8&#45;&gt;Node12</title>
<path fill="none" stroke="midnightblue" d="M768.56,-67.48C793.56,-57.36 835.44,-40.4 863.99,-28.85"/>
<polygon fill="midnightblue" stroke="midnightblue" points="865.52,-32.01 873.48,-25.01 862.89,-25.52 865.52,-32.01"/>
</g>
<!-- Node16&#45;&gt;Node4 -->
<g id="edge17" class="edge">
<title>Node16&#45;&gt;Node4</title>
<path fill="none" stroke="midnightblue" d="M621.95,-190.48C571.31,-179.83 484.66,-161.61 429.82,-150.08"/>
<polygon fill="midnightblue" stroke="midnightblue" points="430.48,-146.64 419.97,-148.01 429.04,-153.49 430.48,-146.64"/>
</g>
<!-- Node16&#45;&gt;Node5 -->
<g id="edge18" class="edge">
<title>Node16&#45;&gt;Node5</title>
<path fill="none" stroke="midnightblue" d="M643.3,-190.48C620.71,-180.45 583,-163.7 557,-152.15"/>
<polygon fill="midnightblue" stroke="midnightblue" points="558.22,-148.87 547.66,-148.01 555.38,-155.27 558.22,-148.87"/>
</g>
<!-- Node16&#45;&gt;Node6 -->
<g id="edge19" class="edge">
<title>Node16&#45;&gt;Node6</title>
<path fill="none" stroke="midnightblue" d="M662.5,-190.48C662.5,-183.47 662.5,-173.19 662.5,-163.7"/>
<polygon fill="midnightblue" stroke="midnightblue" points="666,-163.52 662.5,-153.52 659,-163.52 666,-163.52"/>
</g>
<!-- Node16&#45;&gt;Node8 -->
<g id="edge16" class="edge">
<title>Node16&#45;&gt;Node8</title>
<path fill="none" stroke="midnightblue" d="M682.17,-190.42C697.08,-182.91 716.92,-170.61 728.5,-154 740.38,-136.96 744.85,-113.19 746.52,-96.8"/>
<polygon fill="midnightblue" stroke="midnightblue" points="750.01,-97.04 747.29,-86.8 743.03,-96.5 750.01,-97.04"/>
</g>
</g>
</svg>
