<?xml version="1.0" encoding="UTF-8" standalone="no"?>
<!DOCTYPE svg PUBLIC "-//W3C//DTD SVG 1.1//EN"
 "http://www.w3.org/Graphics/SVG/1.1/DTD/svg11.dtd">
<!-- Generated by graphviz version 2.43.0 (0)
 -->
<!-- Title: OMSim_QE_calibration.cc Pages: 1 -->
<svg width="2260pt" height="487pt"
 viewBox="0.00 0.00 2260.00 487.00" xmlns="http://www.w3.org/2000/svg" xmlns:xlink="http://www.w3.org/1999/xlink">
<g id="graph0" class="graph" transform="scale(1 1) rotate(0) translate(4 483)">
<title>OMSim_QE_calibration.cc</title>
<!-- Node1 -->
<g id="node1" class="node">
<title>Node1</title>
<g id="a_node1"><a xlink:title="Main for the calculation of effective areas.">
<polygon fill="#bfbfbf" stroke="black" points="1515.5,-459.5 1515.5,-478.5 1656.5,-478.5 1656.5,-459.5 1515.5,-459.5"/>
<text text-anchor="middle" x="1586" y="-466.5" font-family="Helvetica,sans-Serif" font-size="10.00">OMSim_QE_calibration.cc</text>
</a>
</g>
</g>
<!-- Node2 -->
<g id="node2" class="node">
<title>Node2</title>
<g id="a_node2"><a xlink:href="_o_m_sim_8hh.html" target="_top" xlink:title="Main simulation class for the Optical Module (OM) simulation. This file defines the OMSim class,...">
<polygon fill="none" stroke="black" points="1351.5,-403.5 1351.5,-422.5 1418.5,-422.5 1418.5,-403.5 1351.5,-403.5"/>
<text text-anchor="middle" x="1385" y="-410.5" font-family="Helvetica,sans-Serif" font-size="10.00">OMSim.hh</text>
</a>
</g>
</g>
<!-- Node1&#45;&gt;Node2 -->
<g id="edge1" class="edge">
<title>Node1&#45;&gt;Node2</title>
<path fill="none" stroke="midnightblue" d="M1554.15,-459.44C1519.6,-450.16 1464.32,-435.31 1426.42,-425.13"/>
<polygon fill="midnightblue" stroke="midnightblue" points="1427.27,-421.73 1416.7,-422.52 1425.45,-428.49 1427.27,-421.73"/>
</g>
<!-- Node60 -->
<g id="node48" class="node">
<title>Node60</title>
<g id="a_node48"><a xlink:title=" ">
<polygon fill="none" stroke="#bfbfbf" points="1437,-403.5 1437,-422.5 1565,-422.5 1565,-403.5 1437,-403.5"/>
<text text-anchor="middle" x="1501" y="-410.5" font-family="Helvetica,sans-Serif" font-size="10.00">OMSimAngularScan.hh</text>
</a>
</g>
</g>
<!-- Node1&#45;&gt;Node60 -->
<g id="edge54" class="edge">
<title>Node1&#45;&gt;Node60</title>
<path fill="none" stroke="midnightblue" d="M1572.34,-459.32C1559.08,-450.9 1538.73,-437.97 1523.15,-428.07"/>
<polygon fill="midnightblue" stroke="midnightblue" points="1524.94,-425.06 1514.62,-422.65 1521.19,-430.97 1524.94,-425.06"/>
</g>
<!-- Node61 -->
<g id="node49" class="node">
<title>Node61</title>
<g id="a_node49"><a xlink:title=" ">
<polygon fill="none" stroke="#bfbfbf" points="1583,-403.5 1583,-422.5 1759,-422.5 1759,-403.5 1583,-403.5"/>
<text text-anchor="middle" x="1671" y="-410.5" font-family="Helvetica,sans-Serif" font-size="10.00">OMSimEffectiveAreaAnalyisis.hh</text>
</a>
</g>
</g>
<!-- Node1&#45;&gt;Node61 -->
<g id="edge55" class="edge">
<title>Node1&#45;&gt;Node61</title>
<path fill="none" stroke="midnightblue" d="M1599.66,-459.32C1612.92,-450.9 1633.27,-437.97 1648.85,-428.07"/>
<polygon fill="midnightblue" stroke="midnightblue" points="1650.81,-430.97 1657.38,-422.65 1647.06,-425.06 1650.81,-430.97"/>
</g>
<!-- Node62 -->
<g id="node50" class="node">
<title>Node62</title>
<g id="a_node50"><a xlink:title=" ">
<polygon fill="none" stroke="#bfbfbf" points="1777.5,-403.5 1777.5,-422.5 1950.5,-422.5 1950.5,-403.5 1777.5,-403.5"/>
<text text-anchor="middle" x="1864" y="-410.5" font-family="Helvetica,sans-Serif" font-size="10.00">OMSimEffectiveAreaDetector.hh</text>
</a>
</g>
</g>
<!-- Node1&#45;&gt;Node62 -->
<g id="edge56" class="edge">
<title>Node1&#45;&gt;Node62</title>
<path fill="none" stroke="midnightblue" d="M1630.05,-459.44C1678.85,-449.96 1757.56,-434.67 1810.03,-424.48"/>
<polygon fill="midnightblue" stroke="midnightblue" points="1811.01,-427.86 1820.16,-422.52 1809.67,-420.99 1811.01,-427.86"/>
</g>
<!-- Node3 -->
<g id="node3" class="node">
<title>Node3</title>
<g id="a_node3"><a xlink:href="_o_m_sim_detector_construction_8hh_source.html" target="_top" xlink:title=" ">
<polygon fill="none" stroke="black" points="642,-347.5 642,-366.5 812,-366.5 812,-347.5 642,-347.5"/>
<text text-anchor="middle" x="727" y="-354.5" font-family="Helvetica,sans-Serif" font-size="10.00">OMSimDetectorConstruction.hh</text>
</a>
</g>
</g>
<!-- Node2&#45;&gt;Node3 -->
<g id="edge2" class="edge">
<title>Node2&#45;&gt;Node3</title>
<path fill="none" stroke="midnightblue" d="M1351.29,-409.5C1265.18,-403.06 1029.83,-385.23 822.23,-367.1"/>
<polygon fill="midnightblue" stroke="midnightblue" points="822.32,-363.59 812.05,-366.2 821.71,-370.56 822.32,-363.59"/>
</g>
<!-- Node39 -->
<g id="node27" class="node">
<title>Node39</title>
<g id="a_node27"><a xlink:title=" ">
<polygon fill="none" stroke="#bfbfbf" points="830.5,-347.5 830.5,-366.5 951.5,-366.5 951.5,-347.5 830.5,-347.5"/>
<text text-anchor="middle" x="891" y="-354.5" font-family="Helvetica,sans-Serif" font-size="10.00">OMSimPhysicsList.hh</text>
</a>
</g>
</g>
<!-- Node2&#45;&gt;Node39 -->
<g id="edge29" class="edge">
<title>Node2&#45;&gt;Node39</title>
<path fill="none" stroke="midnightblue" d="M1351.36,-408.72C1281.01,-401.79 1112.95,-384.94 961.52,-367.16"/>
<polygon fill="midnightblue" stroke="midnightblue" points="961.91,-363.68 951.57,-365.98 961.09,-370.63 961.91,-363.68"/>
</g>
<!-- Node40 -->
<g id="node28" class="node">
<title>Node40</title>
<g id="a_node28"><a xlink:title=" ">
<polygon fill="none" stroke="#bfbfbf" points="969.5,-347.5 969.5,-366.5 1154.5,-366.5 1154.5,-347.5 969.5,-347.5"/>
<text text-anchor="middle" x="1062" y="-354.5" font-family="Helvetica,sans-Serif" font-size="10.00">OMSimPrimaryGeneratorAction.hh</text>
</a>
</g>
</g>
<!-- Node2&#45;&gt;Node40 -->
<g id="edge30" class="edge">
<title>Node2&#45;&gt;Node40</title>
<path fill="none" stroke="midnightblue" d="M1351.35,-406.37C1297.4,-397.36 1190.78,-379.53 1123.12,-368.22"/>
<polygon fill="midnightblue" stroke="midnightblue" points="1123.46,-364.73 1113.02,-366.53 1122.3,-371.63 1123.46,-364.73"/>
</g>
<!-- Node41 -->
<g id="node29" class="node">
<title>Node41</title>
<g id="a_node29"><a xlink:href="_o_m_sim_run_action_8hh_source.html" target="_top" xlink:title=" ">
<polygon fill="none" stroke="black" points="516,-291.5 516,-310.5 632,-310.5 632,-291.5 516,-291.5"/>
<text text-anchor="middle" x="574" y="-298.5" font-family="Helvetica,sans-Serif" font-size="10.00">OMSimRunAction.hh</text>
</a>
</g>
</g>
<!-- Node2&#45;&gt;Node41 -->
<g id="edge31" class="edge">
<title>Node2&#45;&gt;Node41</title>
<path fill="none" stroke="midnightblue" d="M1351.27,-411.47C1213.57,-409.12 698.32,-398.29 633,-367 611.6,-356.75 594.41,-334.93 584.22,-319.4"/>
<polygon fill="midnightblue" stroke="midnightblue" points="587.06,-317.34 578.81,-310.7 581.12,-321.04 587.06,-317.34"/>
</g>
<!-- Node45 -->
<g id="node33" class="node">
<title>Node45</title>
<g id="a_node33"><a xlink:title=" ">
<polygon fill="none" stroke="#bfbfbf" points="1172.5,-347.5 1172.5,-366.5 1297.5,-366.5 1297.5,-347.5 1172.5,-347.5"/>
<text text-anchor="middle" x="1235" y="-354.5" font-family="Helvetica,sans-Serif" font-size="10.00">OMSimEventAction.hh</text>
</a>
</g>
</g>
<!-- Node2&#45;&gt;Node45 -->
<g id="edge37" class="edge">
<title>Node2&#45;&gt;Node45</title>
<path fill="none" stroke="midnightblue" d="M1361.23,-403.44C1336.11,-394.4 1296.29,-380.06 1268.1,-369.92"/>
<polygon fill="midnightblue" stroke="midnightblue" points="1269.25,-366.61 1258.66,-366.52 1266.88,-373.2 1269.25,-366.61"/>
</g>
<!-- Node46 -->
<g id="node34" class="node">
<title>Node46</title>
<g id="a_node34"><a xlink:href="_o_m_sim_tracking_action_8hh_source.html" target="_top" xlink:title=" ">
<polygon fill="none" stroke="black" points="1316,-347.5 1316,-366.5 1454,-366.5 1454,-347.5 1316,-347.5"/>
<text text-anchor="middle" x="1385" y="-354.5" font-family="Helvetica,sans-Serif" font-size="10.00">OMSimTrackingAction.hh</text>
</a>
</g>
</g>
<!-- Node2&#45;&gt;Node46 -->
<g id="edge38" class="edge">
<title>Node2&#45;&gt;Node46</title>
<path fill="none" stroke="midnightblue" d="M1385,-403.08C1385,-396.01 1385,-385.86 1385,-376.99"/>
<polygon fill="midnightblue" stroke="midnightblue" points="1388.5,-376.75 1385,-366.75 1381.5,-376.75 1388.5,-376.75"/>
</g>
<!-- Node48 -->
<g id="node36" class="node">
<title>Node48</title>
<g id="a_node36"><a xlink:href="_o_m_sim_stepping_action_8hh.html" target="_top" xlink:title="Defines OMSimSteppingAction.Currently it only checks for trapped photons.">
<polygon fill="none" stroke="black" points="1472,-347.5 1472,-366.5 1612,-366.5 1612,-347.5 1472,-347.5"/>
<text text-anchor="middle" x="1542" y="-354.5" font-family="Helvetica,sans-Serif" font-size="10.00">OMSimSteppingAction.hh</text>
</a>
</g>
</g>
<!-- Node2&#45;&gt;Node48 -->
<g id="edge40" class="edge">
<title>Node2&#45;&gt;Node48</title>
<path fill="none" stroke="midnightblue" d="M1409.88,-403.44C1436.29,-394.36 1478.22,-379.94 1507.74,-369.78"/>
<polygon fill="midnightblue" stroke="midnightblue" points="1508.92,-373.08 1517.24,-366.52 1506.64,-366.46 1508.92,-373.08"/>
</g>
<!-- Node50 -->
<g id="node38" class="node">
<title>Node50</title>
<g id="a_node38"><a xlink:href="_o_m_sim_u_iinterface_8hh.html" target="_top" xlink:title=" ">
<polygon fill="none" stroke="black" points="177.5,-291.5 177.5,-310.5 298.5,-310.5 298.5,-291.5 177.5,-291.5"/>
<text text-anchor="middle" x="238" y="-298.5" font-family="Helvetica,sans-Serif" font-size="10.00">OMSimUIinterface.hh</text>
</a>
</g>
</g>
<!-- Node2&#45;&gt;Node50 -->
<g id="edge42" class="edge">
<title>Node2&#45;&gt;Node50</title>
<path fill="none" stroke="midnightblue" d="M1351.34,-411.49C1242.65,-409.54 891.36,-400.85 603,-367 488.91,-353.61 356.5,-327.3 286.76,-312.59"/>
<polygon fill="midnightblue" stroke="midnightblue" points="287.44,-309.16 276.93,-310.51 285.99,-316 287.44,-309.16"/>
</g>
<!-- Node55 -->
<g id="node43" class="node">
<title>Node55</title>
<g id="a_node43"><a xlink:title=" ">
<polygon fill="none" stroke="#bfbfbf" points="1630.5,-347.5 1630.5,-366.5 1751.5,-366.5 1751.5,-347.5 1630.5,-347.5"/>
<text text-anchor="middle" x="1691" y="-354.5" font-family="Helvetica,sans-Serif" font-size="10.00">G4MTRunManager.hh</text>
</a>
</g>
</g>
<!-- Node2&#45;&gt;Node55 -->
<g id="edge49" class="edge">
<title>Node2&#45;&gt;Node55</title>
<path fill="none" stroke="midnightblue" d="M1418.78,-404.81C1421.89,-404.18 1425,-403.57 1428,-403 1496.08,-390.05 1574.41,-376.87 1627.76,-368.15"/>
<polygon fill="midnightblue" stroke="midnightblue" points="1628.45,-371.58 1637.75,-366.52 1627.32,-364.67 1628.45,-371.58"/>
</g>
<!-- Node56 -->
<g id="node44" class="node">
<title>Node56</title>
<g id="a_node44"><a xlink:title=" ">
<polygon fill="none" stroke="#bfbfbf" points="1769.5,-347.5 1769.5,-366.5 1876.5,-366.5 1876.5,-347.5 1769.5,-347.5"/>
<text text-anchor="middle" x="1823" y="-354.5" font-family="Helvetica,sans-Serif" font-size="10.00">G4VisExecutive.hh</text>
</a>
</g>
</g>
<!-- Node2&#45;&gt;Node56 -->
<g id="edge50" class="edge">
<title>Node2&#45;&gt;Node56</title>
<path fill="none" stroke="midnightblue" d="M1418.74,-404.61C1421.87,-404.02 1424.99,-403.48 1428,-403 1571.73,-380.25 1611.54,-385.44 1758.92,-367.22"/>
<polygon fill="midnightblue" stroke="midnightblue" points="1759.76,-370.64 1769.25,-365.93 1758.89,-363.69 1759.76,-370.64"/>
</g>
<!-- Node57 -->
<g id="node45" class="node">
<title>Node57</title>
<g id="a_node45"><a xlink:title=" ">
<polygon fill="none" stroke="#bfbfbf" points="1894.5,-347.5 1894.5,-366.5 1997.5,-366.5 1997.5,-347.5 1894.5,-347.5"/>
<text text-anchor="middle" x="1946" y="-354.5" font-family="Helvetica,sans-Serif" font-size="10.00">G4UIExecutive.hh</text>
</a>
</g>
</g>
<!-- Node2&#45;&gt;Node57 -->
<g id="edge51" class="edge">
<title>Node2&#45;&gt;Node57</title>
<path fill="none" stroke="midnightblue" d="M1418.73,-404.52C1421.85,-403.95 1424.98,-403.43 1428,-403 1626.86,-374.49 1681.39,-389.65 1884.23,-367.13"/>
<polygon fill="midnightblue" stroke="midnightblue" points="1884.78,-370.59 1894.32,-365.99 1883.99,-363.63 1884.78,-370.59"/>
</g>
<!-- Node58 -->
<g id="node46" class="node">
<title>Node58</title>
<g id="a_node46"><a xlink:title=" ">
<polygon fill="none" stroke="#bfbfbf" points="2016,-347.5 2016,-366.5 2084,-366.5 2084,-347.5 2016,-347.5"/>
<text text-anchor="middle" x="2050" y="-354.5" font-family="Helvetica,sans-Serif" font-size="10.00">filesystem</text>
</a>
</g>
</g>
<!-- Node2&#45;&gt;Node58 -->
<g id="edge52" class="edge">
<title>Node2&#45;&gt;Node58</title>
<path fill="none" stroke="midnightblue" d="M1418.72,-404.46C1421.85,-403.91 1424.98,-403.41 1428,-403 1680.27,-368.94 1749.73,-400.67 2005.84,-366.95"/>
<polygon fill="midnightblue" stroke="midnightblue" points="2006.36,-370.41 2015.81,-365.62 2005.43,-363.48 2006.36,-370.41"/>
</g>
<!-- Node59 -->
<g id="node47" class="node">
<title>Node59</title>
<g id="a_node47"><a xlink:title=" ">
<polygon fill="none" stroke="#bfbfbf" points="2102,-347.5 2102,-366.5 2252,-366.5 2252,-347.5 2102,-347.5"/>
<text text-anchor="middle" x="2177" y="-354.5" font-family="Helvetica,sans-Serif" font-size="10.00">boost/program_options.hpp</text>
</a>
</g>
</g>
<!-- Node2&#45;&gt;Node59 -->
<g id="edge53" class="edge">
<title>Node2&#45;&gt;Node59</title>
<path fill="none" stroke="midnightblue" d="M1418.72,-404.44C1421.85,-403.89 1424.98,-403.4 1428,-403 1718.19,-365 1796.22,-390.19 2091.76,-367.05"/>
<polygon fill="midnightblue" stroke="midnightblue" points="2092.22,-370.52 2101.91,-366.24 2091.67,-363.55 2092.22,-370.52"/>
</g>
<!-- Node4 -->
<g id="node4" class="node">
<title>Node4</title>
<g id="a_node4"><a xlink:href="_o_m_sim_optical_module_8hh_source.html" target="_top" xlink:title=" ">
<polygon fill="none" stroke="black" points="658.5,-291.5 658.5,-310.5 795.5,-310.5 795.5,-291.5 658.5,-291.5"/>
<text text-anchor="middle" x="727" y="-298.5" font-family="Helvetica,sans-Serif" font-size="10.00">OMSimOpticalModule.hh</text>
</a>
</g>
</g>
<!-- Node3&#45;&gt;Node4 -->
<g id="edge3" class="edge">
<title>Node3&#45;&gt;Node4</title>
<path fill="none" stroke="midnightblue" d="M727,-347.08C727,-340.01 727,-329.86 727,-320.99"/>
<polygon fill="midnightblue" stroke="midnightblue" points="730.5,-320.75 727,-310.75 723.5,-320.75 730.5,-320.75"/>
</g>
<!-- Node37 -->
<g id="node25" class="node">
<title>Node37</title>
<g id="a_node25"><a xlink:title=" ">
<polygon fill="none" stroke="#bfbfbf" points="814,-291.5 814,-310.5 876,-310.5 876,-291.5 814,-291.5"/>
<text text-anchor="middle" x="845" y="-298.5" font-family="Helvetica,sans-Serif" font-size="10.00">G4Orb.hh</text>
</a>
</g>
</g>
<!-- Node3&#45;&gt;Node37 -->
<g id="edge27" class="edge">
<title>Node3&#45;&gt;Node37</title>
<path fill="none" stroke="midnightblue" d="M745.7,-347.44C764.94,-338.64 795.15,-324.81 817.2,-314.72"/>
<polygon fill="midnightblue" stroke="midnightblue" points="818.75,-317.86 826.39,-310.52 815.84,-311.5 818.75,-317.86"/>
</g>
<!-- Node38 -->
<g id="node26" class="node">
<title>Node38</title>
<g id="a_node26"><a xlink:title=" ">
<polygon fill="none" stroke="#bfbfbf" points="894,-291.5 894,-310.5 1072,-310.5 1072,-291.5 894,-291.5"/>
<text text-anchor="middle" x="983" y="-298.5" font-family="Helvetica,sans-Serif" font-size="10.00">G4VUserDetectorConstruction.hh</text>
</a>
</g>
</g>
<!-- Node3&#45;&gt;Node38 -->
<g id="edge28" class="edge">
<title>Node3&#45;&gt;Node38</title>
<path fill="none" stroke="midnightblue" d="M767.56,-347.44C812.32,-338 884.38,-322.8 932.7,-312.61"/>
<polygon fill="midnightblue" stroke="midnightblue" points="933.56,-316.01 942.63,-310.52 932.12,-309.16 933.56,-316.01"/>
</g>
<!-- Node5 -->
<g id="node5" class="node">
<title>Node5</title>
<g id="a_node5"><a xlink:href="abc_detector_component_8hh.html" target="_top" xlink:title="Provides helper base class abcDetectorComponent for constructing and managing detector components in ...">
<polygon fill="none" stroke="black" points="1260.5,-179.5 1260.5,-198.5 1407.5,-198.5 1407.5,-179.5 1260.5,-179.5"/>
<text text-anchor="middle" x="1334" y="-186.5" font-family="Helvetica,sans-Serif" font-size="10.00">abcDetectorComponent.hh</text>
</a>
</g>
</g>
<!-- Node4&#45;&gt;Node5 -->
<g id="edge4" class="edge">
<title>Node4&#45;&gt;Node5</title>
<path fill="none" stroke="midnightblue" d="M795.89,-291.95C798.97,-291.62 802.02,-291.3 805,-291 984.33,-272.67 1035.96,-305.54 1209,-255 1247.97,-243.62 1288.95,-219.67 1312.95,-204.24"/>
<polygon fill="midnightblue" stroke="midnightblue" points="1315.12,-207 1321.57,-198.59 1311.29,-201.15 1315.12,-207"/>
</g>
<!-- Node26 -->
<g id="node16" class="node">
<title>Node26</title>
<g id="a_node16"><a xlink:href="_o_m_sim_hit_manager_8hh.html" target="_top" xlink:title="Defines structures and classes related to optical module photon hit management.">
<polygon fill="none" stroke="black" points="665.5,-235.5 665.5,-254.5 788.5,-254.5 788.5,-235.5 665.5,-235.5"/>
<text text-anchor="middle" x="727" y="-242.5" font-family="Helvetica,sans-Serif" font-size="10.00">OMSimHitManager.hh</text>
</a>
</g>
</g>
<!-- Node4&#45;&gt;Node26 -->
<g id="edge15" class="edge">
<title>Node4&#45;&gt;Node26</title>
<path fill="none" stroke="midnightblue" d="M727,-291.08C727,-284.01 727,-273.86 727,-264.99"/>
<polygon fill="midnightblue" stroke="midnightblue" points="730.5,-264.75 727,-254.75 723.5,-264.75 730.5,-264.75"/>
</g>
<!-- Node34 -->
<g id="node22" class="node">
<title>Node34</title>
<g id="a_node22"><a xlink:href="_o_m_sim_p_m_t_construction_8hh.html" target="_top" xlink:title="Construction of the PMTs.">
<polygon fill="none" stroke="black" points="1033.5,-235.5 1033.5,-254.5 1182.5,-254.5 1182.5,-235.5 1033.5,-235.5"/>
<text text-anchor="middle" x="1108" y="-242.5" font-family="Helvetica,sans-Serif" font-size="10.00">OMSimPMTConstruction.hh</text>
</a>
</g>
</g>
<!-- Node4&#45;&gt;Node34 -->
<g id="edge21" class="edge">
<title>Node4&#45;&gt;Node34</title>
<path fill="none" stroke="midnightblue" d="M787.37,-291.44C855.37,-281.81 965.74,-266.16 1037.6,-255.98"/>
<polygon fill="midnightblue" stroke="midnightblue" points="1038.5,-259.39 1047.91,-254.52 1037.52,-252.45 1038.5,-259.39"/>
</g>
<!-- Node6 -->
<g id="node6" class="node">
<title>Node6</title>
<g id="a_node6"><a xlink:href="_o_m_sim_input_data_8hh.html" target="_top" xlink:title="Definition of ParameterTable and InputDataManager.">
<polygon fill="none" stroke="red" points="1345.5,-123.5 1345.5,-142.5 1460.5,-142.5 1460.5,-123.5 1345.5,-123.5"/>
<text text-anchor="middle" x="1403" y="-130.5" font-family="Helvetica,sans-Serif" font-size="10.00">OMSimInputData.hh</text>
</a>
</g>
</g>
<!-- Node5&#45;&gt;Node6 -->
<g id="edge5" class="edge">
<title>Node5&#45;&gt;Node6</title>
<path fill="none" stroke="midnightblue" d="M1345.09,-179.32C1355.49,-171.18 1371.26,-158.84 1383.72,-149.09"/>
<polygon fill="midnightblue" stroke="midnightblue" points="1385.99,-151.75 1391.71,-142.83 1381.68,-146.24 1385.99,-151.75"/>
</g>
<!-- Node22 -->
<g id="node12" class="node">
<title>Node22</title>
<g id="a_node12"><a xlink:title=" ">
<polygon fill="none" stroke="#bfbfbf" points="950.5,-123.5 950.5,-142.5 1057.5,-142.5 1057.5,-123.5 950.5,-123.5"/>
<text text-anchor="middle" x="1004" y="-130.5" font-family="Helvetica,sans-Serif" font-size="10.00">G4Transform3D.hh</text>
</a>
</g>
</g>
<!-- Node5&#45;&gt;Node22 -->
<g id="edge11" class="edge">
<title>Node5&#45;&gt;Node22</title>
<path fill="none" stroke="midnightblue" d="M1281.71,-179.44C1223.18,-169.87 1128.4,-154.36 1066.13,-144.17"/>
<polygon fill="midnightblue" stroke="midnightblue" points="1066.48,-140.68 1056.04,-142.52 1065.35,-147.59 1066.48,-140.68"/>
</g>
<!-- Node23 -->
<g id="node13" class="node">
<title>Node23</title>
<g id="a_node13"><a xlink:title=" ">
<polygon fill="none" stroke="#bfbfbf" points="1076,-123.5 1076,-142.5 1184,-142.5 1184,-123.5 1076,-123.5"/>
<text text-anchor="middle" x="1130" y="-130.5" font-family="Helvetica,sans-Serif" font-size="10.00">G4VisAttributes.hh</text>
</a>
</g>
</g>
<!-- Node5&#45;&gt;Node23 -->
<g id="edge12" class="edge">
<title>Node5&#45;&gt;Node23</title>
<path fill="none" stroke="midnightblue" d="M1301.68,-179.44C1266.61,-170.16 1210.5,-155.31 1172.04,-145.13"/>
<polygon fill="midnightblue" stroke="midnightblue" points="1172.74,-141.69 1162.17,-142.52 1170.94,-148.46 1172.74,-141.69"/>
</g>
<!-- Node24 -->
<g id="node14" class="node">
<title>Node24</title>
<g id="a_node14"><a xlink:title=" ">
<polygon fill="none" stroke="#bfbfbf" points="1202.5,-123.5 1202.5,-142.5 1327.5,-142.5 1327.5,-123.5 1202.5,-123.5"/>
<text text-anchor="middle" x="1265" y="-130.5" font-family="Helvetica,sans-Serif" font-size="10.00">G4SubtractionSolid.hh</text>
</a>
</g>
</g>
<!-- Node5&#45;&gt;Node24 -->
<g id="edge13" class="edge">
<title>Node5&#45;&gt;Node24</title>
<path fill="none" stroke="midnightblue" d="M1322.91,-179.32C1312.51,-171.18 1296.74,-158.84 1284.28,-149.09"/>
<polygon fill="midnightblue" stroke="midnightblue" points="1286.32,-146.24 1276.29,-142.83 1282.01,-151.75 1286.32,-146.24"/>
</g>
<!-- Node25 -->
<g id="node15" class="node">
<title>Node25</title>
<g id="a_node15"><a xlink:title=" ">
<polygon fill="none" stroke="#bfbfbf" points="1479,-123.5 1479,-142.5 1589,-142.5 1589,-123.5 1479,-123.5"/>
<text text-anchor="middle" x="1534" y="-130.5" font-family="Helvetica,sans-Serif" font-size="10.00">G4PVPlacement.hh</text>
</a>
</g>
</g>
<!-- Node5&#45;&gt;Node25 -->
<g id="edge14" class="edge">
<title>Node5&#45;&gt;Node25</title>
<path fill="none" stroke="midnightblue" d="M1365.69,-179.44C1400.07,-170.16 1455.08,-155.31 1492.79,-145.13"/>
<polygon fill="midnightblue" stroke="midnightblue" points="1493.72,-148.5 1502.46,-142.52 1491.89,-141.74 1493.72,-148.5"/>
</g>
<!-- Node7 -->
<g id="node7" class="node">
<title>Node7</title>
<g id="a_node7"><a xlink:href="_o_m_sim_logger_8hh_source.html" target="_top" xlink:title=" ">
<polygon fill="none" stroke="black" points="485.5,-67.5 485.5,-86.5 584.5,-86.5 584.5,-67.5 485.5,-67.5"/>
<text text-anchor="middle" x="535" y="-74.5" font-family="Helvetica,sans-Serif" font-size="10.00">OMSimLogger.hh</text>
</a>
</g>
</g>
<!-- Node6&#45;&gt;Node7 -->
<g id="edge6" class="edge">
<title>Node6&#45;&gt;Node7</title>
<path fill="none" stroke="midnightblue" d="M1345.29,-123.96C1342.15,-123.61 1339.04,-123.29 1336,-123 1059.65,-96.72 728.09,-84.08 594.79,-79.78"/>
<polygon fill="midnightblue" stroke="midnightblue" points="594.89,-76.28 584.78,-79.46 594.66,-83.27 594.89,-76.28"/>
</g>
<!-- Node8 -->
<g id="node8" class="node">
<title>Node8</title>
<g id="a_node8"><a xlink:title=" ">
<polygon fill="none" stroke="#bfbfbf" points="317.5,-6 317.5,-25 410.5,-25 410.5,-6 317.5,-6"/>
<text text-anchor="middle" x="364" y="-13" font-family="Helvetica,sans-Serif" font-size="10.00">spdlog/spdlog.h</text>
</a>
</g>
</g>
<!-- Node7&#45;&gt;Node8 -->
<g id="edge7" class="edge">
<title>Node7&#45;&gt;Node8</title>
<path fill="none" stroke="midnightblue" d="M510.5,-67.48C481.04,-57.22 431.42,-39.96 398.2,-28.4"/>
<polygon fill="midnightblue" stroke="midnightblue" points="399.05,-24.99 388.45,-25.01 396.75,-31.6 399.05,-24.99"/>
</g>
<!-- Node9 -->
<g id="node9" class="node">
<title>Node9</title>
<g id="a_node9"><a xlink:title=" ">
<polygon fill="none" stroke="#bfbfbf" points="428.5,-0.5 428.5,-30.5 539.5,-30.5 539.5,-0.5 428.5,-0.5"/>
<text text-anchor="start" x="436.5" y="-18.5" font-family="Helvetica,sans-Serif" font-size="10.00">spdlog/sinks/stdout</text>
<text text-anchor="middle" x="484" y="-7.5" font-family="Helvetica,sans-Serif" font-size="10.00">_color_sinks.h</text>
</a>
</g>
</g>
<!-- Node7&#45;&gt;Node9 -->
<g id="edge8" class="edge">
<title>Node7&#45;&gt;Node9</title>
<path fill="none" stroke="midnightblue" d="M527.69,-67.48C521.17,-59.87 511.34,-48.4 502.66,-38.26"/>
<polygon fill="midnightblue" stroke="midnightblue" points="505.19,-35.84 496.02,-30.52 499.87,-40.39 505.19,-35.84"/>
</g>
<!-- Node10 -->
<g id="node10" class="node">
<title>Node10</title>
<g id="a_node10"><a xlink:title=" ">
<polygon fill="none" stroke="#bfbfbf" points="558,-6 558,-25 616,-25 616,-6 558,-6"/>
<text text-anchor="middle" x="587" y="-13" font-family="Helvetica,sans-Serif" font-size="10.00">memory</text>
</a>
</g>
</g>
<!-- Node7&#45;&gt;Node10 -->
<g id="edge9" class="edge">
<title>Node7&#45;&gt;Node10</title>
<path fill="none" stroke="midnightblue" d="M542.45,-67.48C550.33,-58.46 562.94,-44.02 572.74,-32.81"/>
<polygon fill="midnightblue" stroke="midnightblue" points="575.62,-34.84 579.56,-25.01 570.35,-30.24 575.62,-34.84"/>
</g>
<!-- Node11 -->
<g id="node11" class="node">
<title>Node11</title>
<g id="a_node11"><a xlink:title=" ">
<polygon fill="none" stroke="#bfbfbf" points="634,-6 634,-25 732,-25 732,-6 634,-6"/>
<text text-anchor="middle" x="683" y="-13" font-family="Helvetica,sans-Serif" font-size="10.00">spdlog/fmt/fmt.h</text>
</a>
</g>
</g>
<!-- Node7&#45;&gt;Node11 -->
<g id="edge10" class="edge">
<title>Node7&#45;&gt;Node11</title>
<path fill="none" stroke="midnightblue" d="M556.2,-67.48C581.37,-57.36 623.54,-40.4 652.28,-28.85"/>
<polygon fill="midnightblue" stroke="midnightblue" points="653.86,-31.99 661.83,-25.01 651.25,-25.49 653.86,-31.99"/>
</g>
<!-- Node27 -->
<g id="node17" class="node">
<title>Node27</title>
<g id="a_node17"><a xlink:href="_o_m_sim_p_m_t_response_8hh.html" target="_top" xlink:title="Simulation of PMT response.">
<polygon fill="none" stroke="red" points="905.5,-179.5 905.5,-198.5 1040.5,-198.5 1040.5,-179.5 905.5,-179.5"/>
<text text-anchor="middle" x="973" y="-186.5" font-family="Helvetica,sans-Serif" font-size="10.00">OMSimPMTResponse.hh</text>
</a>
</g>
</g>
<!-- Node26&#45;&gt;Node27 -->
<g id="edge16" class="edge">
<title>Node26&#45;&gt;Node27</title>
<path fill="none" stroke="midnightblue" d="M765.98,-235.44C808.89,-226.02 877.95,-210.87 924.37,-200.68"/>
<polygon fill="midnightblue" stroke="midnightblue" points="925.19,-204.08 934.2,-198.52 923.69,-197.24 925.19,-204.08"/>
</g>
<!-- Node32 -->
<g id="node18" class="node">
<title>Node32</title>
<g id="a_node18"><a xlink:title=" ">
<polygon fill="none" stroke="#bfbfbf" points="675.5,-179.5 675.5,-198.5 778.5,-198.5 778.5,-179.5 675.5,-179.5"/>
<text text-anchor="middle" x="727" y="-186.5" font-family="Helvetica,sans-Serif" font-size="10.00">G4ThreeVector.hh</text>
</a>
</g>
</g>
<!-- Node26&#45;&gt;Node32 -->
<g id="edge17" class="edge">
<title>Node26&#45;&gt;Node32</title>
<path fill="none" stroke="midnightblue" d="M727,-235.08C727,-228.01 727,-217.86 727,-208.99"/>
<polygon fill="midnightblue" stroke="midnightblue" points="730.5,-208.75 727,-198.75 723.5,-208.75 730.5,-208.75"/>
</g>
<!-- Node33 -->
<g id="node19" class="node">
<title>Node33</title>
<g id="a_node19"><a xlink:title=" ">
<polygon fill="none" stroke="#bfbfbf" points="395.5,-179.5 395.5,-198.5 450.5,-198.5 450.5,-179.5 395.5,-179.5"/>
<text text-anchor="middle" x="423" y="-186.5" font-family="Helvetica,sans-Serif" font-size="10.00">fstream</text>
</a>
</g>
</g>
<!-- Node26&#45;&gt;Node33 -->
<g id="edge18" class="edge">
<title>Node26&#45;&gt;Node33</title>
<path fill="none" stroke="midnightblue" d="M678.83,-235.44C618.28,-224.69 515.61,-206.45 460.54,-196.67"/>
<polygon fill="midnightblue" stroke="midnightblue" points="460.97,-193.19 450.52,-194.89 459.75,-200.08 460.97,-193.19"/>
</g>
<!-- Node18 -->
<g id="node20" class="node">
<title>Node18</title>
<g id="a_node20"><a xlink:title=" ">
<polygon fill="none" stroke="#bfbfbf" points="797,-179.5 797,-198.5 887,-198.5 887,-179.5 797,-179.5"/>
<text text-anchor="middle" x="842" y="-186.5" font-family="Helvetica,sans-Serif" font-size="10.00">G4AutoLock.hh</text>
</a>
</g>
</g>
<!-- Node26&#45;&gt;Node18 -->
<g id="edge19" class="edge">
<title>Node26&#45;&gt;Node18</title>
<path fill="none" stroke="midnightblue" d="M745.22,-235.44C763.9,-226.68 793.16,-212.94 814.62,-202.86"/>
<polygon fill="midnightblue" stroke="midnightblue" points="816.3,-205.93 823.86,-198.52 813.32,-199.6 816.3,-205.93"/>
</g>
<!-- Node19 -->
<g id="node21" class="node">
<title>Node19</title>
<g id="a_node21"><a xlink:title=" ">
<polygon fill="none" stroke="#bfbfbf" points="563,-179.5 563,-198.5 657,-198.5 657,-179.5 563,-179.5"/>
<text text-anchor="middle" x="610" y="-186.5" font-family="Helvetica,sans-Serif" font-size="10.00">G4Threading.hh</text>
</a>
</g>
</g>
<!-- Node26&#45;&gt;Node19 -->
<g id="edge20" class="edge">
<title>Node26&#45;&gt;Node19</title>
<path fill="none" stroke="midnightblue" d="M708.46,-235.44C689.38,-226.64 659.43,-212.81 637.56,-202.72"/>
<polygon fill="midnightblue" stroke="midnightblue" points="639,-199.53 628.45,-198.52 636.07,-205.88 639,-199.53"/>
</g>
<!-- Node34&#45;&gt;Node5 -->
<g id="edge22" class="edge">
<title>Node34&#45;&gt;Node5</title>
<path fill="none" stroke="midnightblue" d="M1143.81,-235.44C1182.99,-226.08 1245.88,-211.06 1288.52,-200.87"/>
<polygon fill="midnightblue" stroke="midnightblue" points="1289.44,-204.24 1298.36,-198.52 1287.82,-197.44 1289.44,-204.24"/>
</g>
<!-- Node34&#45;&gt;Node27 -->
<g id="edge24" class="edge">
<title>Node34&#45;&gt;Node27</title>
<path fill="none" stroke="midnightblue" d="M1086.61,-235.44C1064.29,-226.52 1029.1,-212.44 1003.79,-202.32"/>
<polygon fill="midnightblue" stroke="midnightblue" points="1004.88,-198.98 994.29,-198.52 1002.28,-205.48 1004.88,-198.98"/>
</g>
<!-- Node34&#45;&gt;Node34 -->
<g id="edge23" class="edge">
<title>Node34&#45;&gt;Node34</title>
<path fill="none" stroke="midnightblue" d="M1147.45,-254.53C1174.26,-257.31 1200.5,-254.13 1200.5,-245 1200.5,-237.01 1180.41,-233.58 1157.43,-234.71"/>
<polygon fill="midnightblue" stroke="midnightblue" points="1157.15,-231.22 1147.45,-235.47 1157.69,-238.2 1157.15,-231.22"/>
</g>
<!-- Node35 -->
<g id="node23" class="node">
<title>Node35</title>
<g id="a_node23"><a xlink:title=" ">
<polygon fill="none" stroke="#bfbfbf" points="1059,-179.5 1059,-198.5 1157,-198.5 1157,-179.5 1059,-179.5"/>
<text text-anchor="middle" x="1108" y="-186.5" font-family="Helvetica,sans-Serif" font-size="10.00">G4UnionSolid.hh</text>
</a>
</g>
</g>
<!-- Node34&#45;&gt;Node35 -->
<g id="edge25" class="edge">
<title>Node34&#45;&gt;Node35</title>
<path fill="none" stroke="midnightblue" d="M1108,-235.08C1108,-228.01 1108,-217.86 1108,-208.99"/>
<polygon fill="midnightblue" stroke="midnightblue" points="1111.5,-208.75 1108,-198.75 1104.5,-208.75 1111.5,-208.75"/>
</g>
<!-- Node36 -->
<g id="node24" class="node">
<title>Node36</title>
<g id="a_node24"><a xlink:title=" ">
<polygon fill="none" stroke="#bfbfbf" points="1175.5,-179.5 1175.5,-198.5 1242.5,-198.5 1242.5,-179.5 1175.5,-179.5"/>
<text text-anchor="middle" x="1209" y="-186.5" font-family="Helvetica,sans-Serif" font-size="10.00">G4Tubs.hh</text>
</a>
</g>
</g>
<!-- Node34&#45;&gt;Node36 -->
<g id="edge26" class="edge">
<title>Node34&#45;&gt;Node36</title>
<path fill="none" stroke="midnightblue" d="M1124.23,-235.32C1140.35,-226.7 1165.3,-213.36 1183.96,-203.39"/>
<polygon fill="midnightblue" stroke="midnightblue" points="1185.64,-206.46 1192.81,-198.65 1182.34,-200.28 1185.64,-206.46"/>
</g>
<!-- Node41&#45;&gt;Node7 -->
<g id="edge34" class="edge">
<title>Node41&#45;&gt;Node7</title>
<path fill="none" stroke="midnightblue" d="M587.18,-291.41C604.19,-279.18 630.25,-255.94 618,-235 601.52,-206.83 572.62,-225.8 554,-199 532.54,-168.1 531.67,-122.13 533.17,-96.67"/>
<polygon fill="midnightblue" stroke="midnightblue" points="536.68,-96.78 533.97,-86.54 529.7,-96.23 536.68,-96.78"/>
</g>
<!-- Node41&#45;&gt;Node26 -->
<g id="edge33" class="edge">
<title>Node41&#45;&gt;Node26</title>
<path fill="none" stroke="midnightblue" d="M598.24,-291.44C623.87,-282.4 664.49,-268.06 693.24,-257.92"/>
<polygon fill="midnightblue" stroke="midnightblue" points="694.61,-261.15 702.87,-254.52 692.28,-254.54 694.61,-261.15"/>
</g>
<!-- Node42 -->
<g id="node30" class="node">
<title>Node42</title>
<g id="a_node30"><a xlink:title=" ">
<polygon fill="none" stroke="#bfbfbf" points="387.5,-235.5 387.5,-254.5 504.5,-254.5 504.5,-235.5 387.5,-235.5"/>
<text text-anchor="middle" x="446" y="-242.5" font-family="Helvetica,sans-Serif" font-size="10.00">G4UserRunAction.hh</text>
</a>
</g>
</g>
<!-- Node41&#45;&gt;Node42 -->
<g id="edge32" class="edge">
<title>Node41&#45;&gt;Node42</title>
<path fill="none" stroke="midnightblue" d="M553.72,-291.44C532.65,-282.56 499.48,-268.56 475.51,-258.45"/>
<polygon fill="midnightblue" stroke="midnightblue" points="476.76,-255.18 466.19,-254.52 474.04,-261.63 476.76,-255.18"/>
</g>
<!-- Node43 -->
<g id="node31" class="node">
<title>Node43</title>
<g id="a_node31"><a xlink:title=" ">
<polygon fill="none" stroke="#bfbfbf" points="523,-235.5 523,-254.5 609,-254.5 609,-235.5 523,-235.5"/>
<text text-anchor="middle" x="566" y="-242.5" font-family="Helvetica,sans-Serif" font-size="10.00">Randomize.hh</text>
</a>
</g>
</g>
<!-- Node41&#45;&gt;Node43 -->
<g id="edge35" class="edge">
<title>Node41&#45;&gt;Node43</title>
<path fill="none" stroke="midnightblue" d="M572.68,-291.08C571.62,-283.93 570.09,-273.64 568.77,-264.69"/>
<polygon fill="midnightblue" stroke="midnightblue" points="572.22,-264.13 567.3,-254.75 565.3,-265.16 572.22,-264.13"/>
</g>
<!-- Node44 -->
<g id="node32" class="node">
<title>Node44</title>
<g id="a_node32"><a xlink:title=" ">
<polygon fill="none" stroke="#bfbfbf" points="305,-235.5 305,-254.5 369,-254.5 369,-235.5 305,-235.5"/>
<text text-anchor="middle" x="337" y="-242.5" font-family="Helvetica,sans-Serif" font-size="10.00">G4Run.hh</text>
</a>
</g>
</g>
<!-- Node41&#45;&gt;Node44 -->
<g id="edge36" class="edge">
<title>Node41&#45;&gt;Node44</title>
<path fill="none" stroke="midnightblue" d="M536.45,-291.44C493.58,-281.68 423.64,-265.74 379,-255.57"/>
<polygon fill="midnightblue" stroke="midnightblue" points="379.58,-252.11 369.06,-253.3 378.03,-258.94 379.58,-252.11"/>
</g>
<!-- Node47 -->
<g id="node35" class="node">
<title>Node47</title>
<g id="a_node35"><a xlink:title=" ">
<polygon fill="none" stroke="#bfbfbf" points="1314.5,-291.5 1314.5,-310.5 1453.5,-310.5 1453.5,-291.5 1314.5,-291.5"/>
<text text-anchor="middle" x="1384" y="-298.5" font-family="Helvetica,sans-Serif" font-size="10.00">G4UserTrackingAction.hh</text>
</a>
</g>
</g>
<!-- Node46&#45;&gt;Node47 -->
<g id="edge39" class="edge">
<title>Node46&#45;&gt;Node47</title>
<path fill="none" stroke="midnightblue" d="M1384.83,-347.08C1384.7,-340.01 1384.52,-329.86 1384.35,-320.99"/>
<polygon fill="midnightblue" stroke="midnightblue" points="1387.85,-320.68 1384.16,-310.75 1380.85,-320.81 1387.85,-320.68"/>
</g>
<!-- Node49 -->
<g id="node37" class="node">
<title>Node49</title>
<g id="a_node37"><a xlink:title=" ">
<polygon fill="none" stroke="#bfbfbf" points="1471.5,-291.5 1471.5,-310.5 1612.5,-310.5 1612.5,-291.5 1471.5,-291.5"/>
<text text-anchor="middle" x="1542" y="-298.5" font-family="Helvetica,sans-Serif" font-size="10.00">G4UserSteppingAction.hh</text>
</a>
</g>
</g>
<!-- Node48&#45;&gt;Node49 -->
<g id="edge41" class="edge">
<title>Node48&#45;&gt;Node49</title>
<path fill="none" stroke="midnightblue" d="M1542,-347.08C1542,-340.01 1542,-329.86 1542,-320.99"/>
<polygon fill="midnightblue" stroke="midnightblue" points="1545.5,-320.75 1542,-310.75 1538.5,-320.75 1545.5,-320.75"/>
</g>
<!-- Node51 -->
<g id="node39" class="node">
<title>Node51</title>
<g id="a_node39"><a xlink:href="_o_m_sim_command_args_table_8hh.html" target="_top" xlink:title="Definition of the OMSimCommandArgsTable singleton class, which controls user args.">
<polygon fill="none" stroke="black" points="7,-235.5 7,-254.5 171,-254.5 171,-235.5 7,-235.5"/>
<text text-anchor="middle" x="89" y="-242.5" font-family="Helvetica,sans-Serif" font-size="10.00">OMSimCommandArgsTable.hh</text>
</a>
</g>
</g>
<!-- Node50&#45;&gt;Node51 -->
<g id="edge43" class="edge">
<title>Node50&#45;&gt;Node51</title>
<path fill="none" stroke="midnightblue" d="M214.39,-291.44C189.54,-282.44 150.23,-268.19 122.25,-258.05"/>
<polygon fill="midnightblue" stroke="midnightblue" points="123.09,-254.63 112.5,-254.52 120.71,-261.21 123.09,-254.63"/>
</g>
<!-- Node54 -->
<g id="node42" class="node">
<title>Node54</title>
<g id="a_node42"><a xlink:title=" ">
<polygon fill="none" stroke="#bfbfbf" points="189,-235.5 189,-254.5 287,-254.5 287,-235.5 189,-235.5"/>
<text text-anchor="middle" x="238" y="-242.5" font-family="Helvetica,sans-Serif" font-size="10.00">G4UImanager.hh</text>
</a>
</g>
</g>
<!-- Node50&#45;&gt;Node54 -->
<g id="edge48" class="edge">
<title>Node50&#45;&gt;Node54</title>
<path fill="none" stroke="midnightblue" d="M238,-291.08C238,-284.01 238,-273.86 238,-264.99"/>
<polygon fill="midnightblue" stroke="midnightblue" points="241.5,-264.75 238,-254.75 234.5,-264.75 241.5,-264.75"/>
</g>
<!-- Node51&#45;&gt;Node7 -->
<g id="edge44" class="edge">
<title>Node51&#45;&gt;Node7</title>
<path fill="none" stroke="midnightblue" d="M112.04,-235.42C185.91,-207.93 416.97,-121.93 502.63,-90.05"/>
<polygon fill="midnightblue" stroke="midnightblue" points="503.95,-93.29 512.1,-86.52 501.51,-86.73 503.95,-93.29"/>
</g>
<!-- Node51&#45;&gt;Node33 -->
<g id="edge45" class="edge">
<title>Node51&#45;&gt;Node33</title>
<path fill="none" stroke="midnightblue" d="M141.92,-235.44C209.77,-224.47 325.74,-205.72 385.28,-196.1"/>
<polygon fill="midnightblue" stroke="midnightblue" points="386.06,-199.52 395.38,-194.47 384.94,-192.61 386.06,-199.52"/>
</g>
<!-- Node52 -->
<g id="node40" class="node">
<title>Node52</title>
<g id="a_node40"><a xlink:title=" ">
<polygon fill="none" stroke="#bfbfbf" points="0,-179.5 0,-198.5 84,-198.5 84,-179.5 0,-179.5"/>
<text text-anchor="middle" x="42" y="-186.5" font-family="Helvetica,sans-Serif" font-size="10.00">boost/any.hpp</text>
</a>
</g>
</g>
<!-- Node51&#45;&gt;Node52 -->
<g id="edge46" class="edge">
<title>Node51&#45;&gt;Node52</title>
<path fill="none" stroke="midnightblue" d="M81.24,-235.08C74.46,-227.3 64.46,-215.8 56.24,-206.37"/>
<polygon fill="midnightblue" stroke="midnightblue" points="58.82,-204 49.62,-198.75 53.54,-208.59 58.82,-204"/>
</g>
<!-- Node53 -->
<g id="node41" class="node">
<title>Node53</title>
<g id="a_node41"><a xlink:title=" ">
<polygon fill="none" stroke="#bfbfbf" points="102,-179.5 102,-198.5 170,-198.5 170,-179.5 102,-179.5"/>
<text text-anchor="middle" x="136" y="-186.5" font-family="Helvetica,sans-Serif" font-size="10.00">sys/time.h</text>
</a>
</g>
</g>
<!-- Node51&#45;&gt;Node53 -->
<g id="edge47" class="edge">
<title>Node51&#45;&gt;Node53</title>
<path fill="none" stroke="midnightblue" d="M96.76,-235.08C103.54,-227.3 113.54,-215.8 121.76,-206.37"/>
<polygon fill="midnightblue" stroke="midnightblue" points="124.46,-208.59 128.38,-198.75 119.18,-204 124.46,-208.59"/>
</g>
</g>
</svg>
