<?xml version="1.0" encoding="UTF-8" standalone="no"?>
<!DOCTYPE svg PUBLIC "-//W3C//DTD SVG 1.1//EN"
 "http://www.w3.org/Graphics/SVG/1.1/DTD/svg11.dtd">
<!-- Generated by graphviz version 2.43.0 (0)
 -->
<!-- Title: OMSimPMTConstruction.hh Pages: 1 -->
<svg width="1035pt" height="253pt"
 viewBox="0.00 0.00 1034.50 252.86" xmlns="http://www.w3.org/2000/svg" xmlns:xlink="http://www.w3.org/1999/xlink">
<g id="graph0" class="graph" transform="scale(1 1) rotate(0) translate(4 248.86)">
<title>OMSimPMTConstruction.hh</title>
<!-- Node1 -->
<g id="node1" class="node">
<title>Node1</title>
<g id="a_node1"><a xlink:title="Construction of the PMTs.">
<polygon fill="#bfbfbf" stroke="black" points="288,-224.5 288,-243.5 437,-243.5 437,-224.5 288,-224.5"/>
<text text-anchor="middle" x="362.5" y="-231.5" font-family="Helvetica,sans-Serif" font-size="10.00">OMSimPMTConstruction.hh</text>
</a>
</g>
</g>
<!-- Node1&#45;&gt;Node1 -->
<g id="edge28" class="edge">
<title>Node1&#45;&gt;Node1</title>
<path fill="none" stroke="midnightblue" d="M411.93,-244.29C434.91,-245.42 455,-241.99 455,-234 455,-224.87 428.76,-221.69 401.95,-224.47"/>
<polygon fill="midnightblue" stroke="midnightblue" points="412.19,-240.8 401.95,-243.53 411.65,-247.78 412.19,-240.8"/>
</g>
<!-- Node2 -->
<g id="node2" class="node">
<title>Node2</title>
<g id="a_node2"><a xlink:href="_o_m_sim_d_e_g_g_8hh.html" target="_top" xlink:title="Construction of the DEGG class. From DOUMEKI.">
<polygon fill="none" stroke="black" points="61,-112.5 61,-131.5 156,-131.5 156,-112.5 61,-112.5"/>
<text text-anchor="middle" x="108.5" y="-119.5" font-family="Helvetica,sans-Serif" font-size="10.00">OMSimDEGG.hh</text>
</a>
</g>
</g>
<!-- Node1&#45;&gt;Node2 -->
<g id="edge1" class="edge">
<title>Node1&#45;&gt;Node2</title>
<path fill="none" stroke="midnightblue" d="M333.19,-220.3C280.9,-197.66 172.86,-150.87 128.34,-131.59"/>
<polygon fill="midnightblue" stroke="midnightblue" points="332,-223.61 342.57,-224.37 334.78,-217.18 332,-223.61"/>
</g>
<!-- Node3 -->
<g id="node3" class="node">
<title>Node3</title>
<g id="a_node3"><a xlink:href="_o_m_sim_l_o_m16_8hh.html" target="_top" xlink:title="Construction of LOM16.">
<polygon fill="none" stroke="black" points="174,-112.5 174,-131.5 275,-131.5 275,-112.5 174,-112.5"/>
<text text-anchor="middle" x="224.5" y="-119.5" font-family="Helvetica,sans-Serif" font-size="10.00">OMSimLOM16.hh</text>
</a>
</g>
</g>
<!-- Node1&#45;&gt;Node3 -->
<g id="edge2" class="edge">
<title>Node1&#45;&gt;Node3</title>
<path fill="none" stroke="midnightblue" d="M343.83,-218.12C314.54,-194.77 258.71,-150.27 235.28,-131.59"/>
<polygon fill="midnightblue" stroke="midnightblue" points="341.67,-220.87 351.67,-224.37 346.03,-215.4 341.67,-220.87"/>
</g>
<!-- Node4 -->
<g id="node4" class="node">
<title>Node4</title>
<g id="a_node4"><a xlink:href="_o_m_sim_l_o_m18_8hh.html" target="_top" xlink:title="Construction of LOM18.">
<polygon fill="none" stroke="black" points="293,-112.5 293,-131.5 394,-131.5 394,-112.5 293,-112.5"/>
<text text-anchor="middle" x="343.5" y="-119.5" font-family="Helvetica,sans-Serif" font-size="10.00">OMSimLOM18.hh</text>
</a>
</g>
</g>
<!-- Node1&#45;&gt;Node4 -->
<g id="edge3" class="edge">
<title>Node1&#45;&gt;Node4</title>
<path fill="none" stroke="midnightblue" d="M359.28,-214.35C355.12,-190.25 348.04,-149.31 344.98,-131.59"/>
<polygon fill="midnightblue" stroke="midnightblue" points="355.86,-215.11 361.01,-224.37 362.76,-213.92 355.86,-215.11"/>
</g>
<!-- Node6 -->
<g id="node6" class="node">
<title>Node6</title>
<g id="a_node6"><a xlink:href="_o_m_sim_m_d_o_m_8hh.html" target="_top" xlink:title="Construction of mDOM.">
<polygon fill="none" stroke="black" points="412.5,-112.5 412.5,-131.5 512.5,-131.5 512.5,-112.5 412.5,-112.5"/>
<text text-anchor="middle" x="462.5" y="-119.5" font-family="Helvetica,sans-Serif" font-size="10.00">OMSimMDOM.hh</text>
</a>
</g>
</g>
<!-- Node1&#45;&gt;Node6 -->
<g id="edge5" class="edge">
<title>Node1&#45;&gt;Node6</title>
<path fill="none" stroke="midnightblue" d="M370.56,-214.87C377.27,-201.04 387.77,-182.05 400.5,-168 414.25,-152.82 433.89,-139.62 447.36,-131.51"/>
<polygon fill="midnightblue" stroke="midnightblue" points="367.23,-213.72 366.19,-224.27 373.58,-216.67 367.23,-213.72"/>
</g>
<!-- Node7 -->
<g id="node7" class="node">
<title>Node7</title>
<g id="a_node7"><a xlink:href="_o_m_sim_optical_module_8hh_source.html" target="_top" xlink:title=" ">
<polygon fill="none" stroke="black" points="410,-168.5 410,-187.5 547,-187.5 547,-168.5 410,-168.5"/>
<text text-anchor="middle" x="478.5" y="-175.5" font-family="Helvetica,sans-Serif" font-size="10.00">OMSimOpticalModule.hh</text>
</a>
</g>
</g>
<!-- Node1&#45;&gt;Node7 -->
<g id="edge6" class="edge">
<title>Node1&#45;&gt;Node7</title>
<path fill="none" stroke="midnightblue" d="M390.22,-220.1C411.89,-210.01 441.4,-196.27 460.21,-187.52"/>
<polygon fill="midnightblue" stroke="midnightblue" points="388.47,-217.05 380.88,-224.44 391.42,-223.4 388.47,-217.05"/>
</g>
<!-- Node18 -->
<g id="node18" class="node">
<title>Node18</title>
<g id="a_node18"><a xlink:href="_o_m_sim_p_d_o_m_8hh.html" target="_top" xlink:title="Implementation of the pDOM/Gen1 DOM class.">
<polygon fill="none" stroke="black" points="795,-112.5 795,-131.5 892,-131.5 892,-112.5 795,-112.5"/>
<text text-anchor="middle" x="843.5" y="-119.5" font-family="Helvetica,sans-Serif" font-size="10.00">OMSimPDOM.hh</text>
</a>
</g>
</g>
<!-- Node1&#45;&gt;Node18 -->
<g id="edge27" class="edge">
<title>Node1&#45;&gt;Node18</title>
<path fill="none" stroke="midnightblue" d="M409.8,-222.18C505.35,-200.33 719.63,-151.33 806.18,-131.53"/>
<polygon fill="midnightblue" stroke="midnightblue" points="408.81,-218.82 399.84,-224.46 410.37,-225.64 408.81,-218.82"/>
</g>
<!-- Node5 -->
<g id="node5" class="node">
<title>Node5</title>
<g id="a_node5"><a xlink:href="_o_m_sim_l_o_m18_8cc.html" target="_top" xlink:title=" ">
<polygon fill="none" stroke="black" points="0,-56.5 0,-75.5 99,-75.5 99,-56.5 0,-56.5"/>
<text text-anchor="middle" x="49.5" y="-63.5" font-family="Helvetica,sans-Serif" font-size="10.00">OMSimLOM18.cc</text>
</a>
</g>
</g>
<!-- Node4&#45;&gt;Node5 -->
<g id="edge4" class="edge">
<title>Node4&#45;&gt;Node5</title>
<path fill="none" stroke="midnightblue" d="M286.88,-110.6C231.32,-100.4 147.6,-85.02 95.87,-75.52"/>
<polygon fill="midnightblue" stroke="midnightblue" points="286.45,-114.08 296.91,-112.44 287.71,-107.19 286.45,-114.08"/>
</g>
<!-- Node7&#45;&gt;Node2 -->
<g id="edge7" class="edge">
<title>Node7&#45;&gt;Node2</title>
<path fill="none" stroke="midnightblue" d="M406.85,-167.09C343.17,-158.19 247.58,-144.63 164.5,-132 161.77,-131.59 158.97,-131.15 156.15,-130.71"/>
<polygon fill="midnightblue" stroke="midnightblue" points="406.4,-170.56 416.79,-168.47 407.37,-163.62 406.4,-170.56"/>
</g>
<!-- Node7&#45;&gt;Node3 -->
<g id="edge20" class="edge">
<title>Node7&#45;&gt;Node3</title>
<path fill="none" stroke="midnightblue" d="M428.38,-166.35C380.38,-156.14 308.88,-140.94 264.56,-131.52"/>
<polygon fill="midnightblue" stroke="midnightblue" points="427.74,-169.79 438.25,-168.44 429.2,-162.94 427.74,-169.79"/>
</g>
<!-- Node7&#45;&gt;Node4 -->
<g id="edge21" class="edge">
<title>Node7&#45;&gt;Node4</title>
<path fill="none" stroke="midnightblue" d="M447.59,-164.64C422.26,-154.5 387.07,-140.43 364.79,-131.52"/>
<polygon fill="midnightblue" stroke="midnightblue" points="446.52,-167.98 457.11,-168.44 449.12,-161.48 446.52,-167.98"/>
</g>
<!-- Node7&#45;&gt;Node6 -->
<g id="edge22" class="edge">
<title>Node7&#45;&gt;Node6</title>
<path fill="none" stroke="midnightblue" d="M472.99,-158.4C470.31,-149.36 467.22,-138.94 465.09,-131.75"/>
<polygon fill="midnightblue" stroke="midnightblue" points="469.66,-159.49 475.86,-168.08 476.37,-157.5 469.66,-159.49"/>
</g>
<!-- Node8 -->
<g id="node8" class="node">
<title>Node8</title>
<g id="a_node8"><a xlink:href="_o_m_sim_detector_construction_8hh_source.html" target="_top" xlink:title=" ">
<polygon fill="none" stroke="black" points="530.5,-112.5 530.5,-131.5 700.5,-131.5 700.5,-112.5 530.5,-112.5"/>
<text text-anchor="middle" x="615.5" y="-119.5" font-family="Helvetica,sans-Serif" font-size="10.00">OMSimDetectorConstruction.hh</text>
</a>
</g>
</g>
<!-- Node7&#45;&gt;Node8 -->
<g id="edge8" class="edge">
<title>Node7&#45;&gt;Node8</title>
<path fill="none" stroke="midnightblue" d="M509.52,-164.77C535.26,-154.63 571.19,-140.47 593.89,-131.52"/>
<polygon fill="midnightblue" stroke="midnightblue" points="508.23,-161.52 500.21,-168.44 510.79,-168.03 508.23,-161.52"/>
</g>
<!-- Node16 -->
<g id="node16" class="node">
<title>Node16</title>
<g id="a_node16"><a xlink:href="_o_m_sim_rad_decays_detector_8hh.html" target="_top" xlink:title="Defines the OMSimRadDecaysDetector class for the radioactive decays simulation.">
<polygon fill="none" stroke="black" points="723,-56.5 723,-75.5 886,-75.5 886,-56.5 723,-56.5"/>
<text text-anchor="middle" x="804.5" y="-63.5" font-family="Helvetica,sans-Serif" font-size="10.00">OMSimRadDecaysDetector.hh</text>
</a>
</g>
</g>
<!-- Node7&#45;&gt;Node16 -->
<g id="edge26" class="edge">
<title>Node7&#45;&gt;Node16</title>
<path fill="none" stroke="midnightblue" d="M557.25,-169.71C603.03,-163.53 661.05,-152.27 709.5,-132 743.79,-117.65 778.4,-89.84 794.77,-75.7"/>
<polygon fill="midnightblue" stroke="midnightblue" points="556.55,-166.28 547.08,-171.03 557.45,-173.22 556.55,-166.28"/>
</g>
<!-- Node7&#45;&gt;Node18 -->
<g id="edge23" class="edge">
<title>Node7&#45;&gt;Node18</title>
<path fill="none" stroke="midnightblue" d="M546.25,-166.98C618.5,-156.29 731.11,-139.63 794.98,-130.18"/>
<polygon fill="midnightblue" stroke="midnightblue" points="545.72,-163.52 536.34,-168.44 546.74,-170.44 545.72,-163.52"/>
</g>
<!-- Node19 -->
<g id="node19" class="node">
<title>Node19</title>
<g id="a_node19"><a xlink:href="_o_m_sim_decays_g_p_s_8hh.html" target="_top" xlink:title="Defines the OMSimDecaysGPS class for the radioactive decays simulation.">
<polygon fill="none" stroke="black" points="904.5,-56.5 904.5,-75.5 1026.5,-75.5 1026.5,-56.5 904.5,-56.5"/>
<text text-anchor="middle" x="965.5" y="-63.5" font-family="Helvetica,sans-Serif" font-size="10.00">OMSimDecaysGPS.hh</text>
</a>
</g>
</g>
<!-- Node7&#45;&gt;Node19 -->
<g id="edge24" class="edge">
<title>Node7&#45;&gt;Node19</title>
<path fill="none" stroke="midnightblue" d="M548.87,-166.98C614.17,-157.31 706.41,-142.62 741.5,-132 762.45,-125.66 765.81,-119.14 786.5,-112 832.24,-96.22 886.3,-83.4 922.95,-75.54"/>
<polygon fill="midnightblue" stroke="midnightblue" points="548.01,-163.56 538.63,-168.48 549.03,-170.49 548.01,-163.56"/>
</g>
<!-- Node9 -->
<g id="node9" class="node">
<title>Node9</title>
<g id="a_node9"><a xlink:href="_o_m_sim_8hh.html" target="_top" xlink:title="Main simulation class for the Optical Module (OM) simulation. This file defines the OMSim class,...">
<polygon fill="none" stroke="black" points="638,-56.5 638,-75.5 705,-75.5 705,-56.5 638,-56.5"/>
<text text-anchor="middle" x="671.5" y="-63.5" font-family="Helvetica,sans-Serif" font-size="10.00">OMSim.hh</text>
</a>
</g>
</g>
<!-- Node8&#45;&gt;Node9 -->
<g id="edge9" class="edge">
<title>Node8&#45;&gt;Node9</title>
<path fill="none" stroke="midnightblue" d="M631.83,-105.25C641.76,-95.67 654.09,-83.79 662.34,-75.83"/>
<polygon fill="midnightblue" stroke="midnightblue" points="629.27,-102.86 624.5,-112.32 634.13,-107.9 629.27,-102.86"/>
</g>
<!-- Node14 -->
<g id="node14" class="node">
<title>Node14</title>
<g id="a_node14"><a xlink:href="effective__area_2include_2_o_m_sim_effective_area_detector_8hh.html" target="_top" xlink:title="Defines the OMSimEffectiveAreaDetector class for effective area simulation detector construction.">
<polygon fill="none" stroke="black" points="117,-56.5 117,-75.5 290,-75.5 290,-56.5 117,-56.5"/>
<text text-anchor="middle" x="203.5" y="-63.5" font-family="Helvetica,sans-Serif" font-size="10.00">OMSimEffectiveAreaDetector.hh</text>
</a>
</g>
</g>
<!-- Node8&#45;&gt;Node14 -->
<g id="edge14" class="edge">
<title>Node8&#45;&gt;Node14</title>
<path fill="none" stroke="midnightblue" d="M540,-111.1C462.2,-100.91 342.18,-85.18 268.48,-75.52"/>
<polygon fill="midnightblue" stroke="midnightblue" points="539.85,-114.61 550.22,-112.44 540.76,-107.67 539.85,-114.61"/>
</g>
<!-- Node15 -->
<g id="node15" class="node">
<title>Node15</title>
<g id="a_node15"><a xlink:href="efficiency__calibration_2include_2_o_m_sim_effective_area_detector_8hh.html" target="_top" xlink:title="Defines the OMSimEffectiveAreaDetector class for effective area simulation detector construction.">
<polygon fill="none" stroke="black" points="308,-56.5 308,-75.5 481,-75.5 481,-56.5 308,-56.5"/>
<text text-anchor="middle" x="394.5" y="-63.5" font-family="Helvetica,sans-Serif" font-size="10.00">OMSimEffectiveAreaDetector.hh</text>
</a>
</g>
</g>
<!-- Node8&#45;&gt;Node15 -->
<g id="edge15" class="edge">
<title>Node8&#45;&gt;Node15</title>
<path fill="none" stroke="midnightblue" d="M570.58,-110.02C528.83,-99.82 467.52,-84.84 429.35,-75.52"/>
<polygon fill="midnightblue" stroke="midnightblue" points="569.94,-113.47 580.48,-112.44 571.6,-106.67 569.94,-113.47"/>
</g>
<!-- Node8&#45;&gt;Node16 -->
<g id="edge16" class="edge">
<title>Node8&#45;&gt;Node16</title>
<path fill="none" stroke="midnightblue" d="M655.51,-109.57C691.17,-99.38 742.54,-84.7 774.69,-75.52"/>
<polygon fill="midnightblue" stroke="midnightblue" points="654.1,-106.33 645.45,-112.44 656.02,-113.06 654.1,-106.33"/>
</g>
<!-- Node17 -->
<g id="node17" class="node">
<title>Node17</title>
<g id="a_node17"><a xlink:href="_o_m_sim_s_ndetector_8hh_source.html" target="_top" xlink:title=" ">
<polygon fill="none" stroke="black" points="499.5,-56.5 499.5,-75.5 619.5,-75.5 619.5,-56.5 499.5,-56.5"/>
<text text-anchor="middle" x="559.5" y="-63.5" font-family="Helvetica,sans-Serif" font-size="10.00">OMSimSNdetector.hh</text>
</a>
</g>
</g>
<!-- Node8&#45;&gt;Node17 -->
<g id="edge18" class="edge">
<title>Node8&#45;&gt;Node17</title>
<path fill="none" stroke="midnightblue" d="M599.17,-105.25C589.24,-95.67 576.91,-83.79 568.66,-75.83"/>
<polygon fill="midnightblue" stroke="midnightblue" points="596.87,-107.9 606.5,-112.32 601.73,-102.86 596.87,-107.9"/>
</g>
<!-- Node10 -->
<g id="node10" class="node">
<title>Node10</title>
<g id="a_node10"><a xlink:href="_o_m_sim_8cc.html" target="_top" xlink:title="Implementation of the OMSim class.">
<polygon fill="none" stroke="black" points="760,-0.5 760,-19.5 825,-19.5 825,-0.5 760,-0.5"/>
<text text-anchor="middle" x="792.5" y="-7.5" font-family="Helvetica,sans-Serif" font-size="10.00">OMSim.cc</text>
</a>
</g>
</g>
<!-- Node9&#45;&gt;Node10 -->
<g id="edge10" class="edge">
<title>Node9&#45;&gt;Node10</title>
<path fill="none" stroke="midnightblue" d="M699.81,-52.37C722.47,-42.26 753.63,-28.35 773.42,-19.52"/>
<polygon fill="midnightblue" stroke="midnightblue" points="698.38,-49.17 690.67,-56.44 701.23,-55.56 698.38,-49.17"/>
</g>
<!-- Node11 -->
<g id="node11" class="node">
<title>Node11</title>
<g id="a_node11"><a xlink:href="_o_m_sim__effective__area_8cc.html" target="_top" xlink:title="Main for the calculation of effective areas.">
<polygon fill="none" stroke="black" points="601.5,-0.5 601.5,-19.5 741.5,-19.5 741.5,-0.5 601.5,-0.5"/>
<text text-anchor="middle" x="671.5" y="-7.5" font-family="Helvetica,sans-Serif" font-size="10.00">OMSim_effective_area.cc</text>
</a>
</g>
</g>
<!-- Node9&#45;&gt;Node11 -->
<g id="edge11" class="edge">
<title>Node9&#45;&gt;Node11</title>
<path fill="none" stroke="midnightblue" d="M671.5,-45.8C671.5,-36.91 671.5,-26.78 671.5,-19.75"/>
<polygon fill="midnightblue" stroke="midnightblue" points="668,-46.08 671.5,-56.08 675,-46.08 668,-46.08"/>
</g>
<!-- Node12 -->
<g id="node12" class="node">
<title>Node12</title>
<g id="a_node12"><a xlink:href="_o_m_sim__radioactive__decays_8cc.html" target="_top" xlink:title="Main of the radioactive decay study.">
<polygon fill="none" stroke="black" points="843,-0.5 843,-19.5 1008,-19.5 1008,-0.5 843,-0.5"/>
<text text-anchor="middle" x="925.5" y="-7.5" font-family="Helvetica,sans-Serif" font-size="10.00">OMSim_radioactive_decays.cc</text>
</a>
</g>
</g>
<!-- Node9&#45;&gt;Node12 -->
<g id="edge12" class="edge">
<title>Node9&#45;&gt;Node12</title>
<path fill="none" stroke="midnightblue" d="M715.28,-55.69C763.09,-45.53 839.01,-29.39 885.34,-19.54"/>
<polygon fill="midnightblue" stroke="midnightblue" points="714.28,-52.33 705.23,-57.83 715.74,-59.17 714.28,-52.33"/>
</g>
<!-- Node13 -->
<g id="node13" class="node">
<title>Node13</title>
<g id="a_node13"><a xlink:href="_o_m_sim__supernova_8cc.html" target="_top" xlink:title="Main of the supernova study.">
<polygon fill="none" stroke="black" points="461.5,-0.5 461.5,-19.5 583.5,-19.5 583.5,-0.5 461.5,-0.5"/>
<text text-anchor="middle" x="522.5" y="-7.5" font-family="Helvetica,sans-Serif" font-size="10.00">OMSim_supernova.cc</text>
</a>
</g>
</g>
<!-- Node9&#45;&gt;Node13 -->
<g id="edge13" class="edge">
<title>Node9&#45;&gt;Node13</title>
<path fill="none" stroke="midnightblue" d="M638.13,-52.91C610.12,-42.75 570.8,-28.51 546,-19.52"/>
<polygon fill="midnightblue" stroke="midnightblue" points="637.3,-56.33 647.89,-56.44 639.68,-49.75 637.3,-56.33"/>
</g>
<!-- Node16&#45;&gt;Node12 -->
<g id="edge17" class="edge">
<title>Node16&#45;&gt;Node12</title>
<path fill="none" stroke="midnightblue" d="M832.81,-52.37C855.47,-42.26 886.63,-28.35 906.42,-19.52"/>
<polygon fill="midnightblue" stroke="midnightblue" points="831.38,-49.17 823.67,-56.44 834.23,-55.56 831.38,-49.17"/>
</g>
<!-- Node17&#45;&gt;Node13 -->
<g id="edge19" class="edge">
<title>Node17&#45;&gt;Node13</title>
<path fill="none" stroke="midnightblue" d="M547.55,-47.57C541.19,-38.27 533.63,-27.25 528.5,-19.75"/>
<polygon fill="midnightblue" stroke="midnightblue" points="544.85,-49.81 553.39,-56.08 550.63,-45.86 544.85,-49.81"/>
</g>
<!-- Node19&#45;&gt;Node12 -->
<g id="edge25" class="edge">
<title>Node19&#45;&gt;Node12</title>
<path fill="none" stroke="midnightblue" d="M952.8,-47.86C945.87,-38.5 937.59,-27.33 931.98,-19.75"/>
<polygon fill="midnightblue" stroke="midnightblue" points="950.13,-50.13 958.89,-56.08 955.75,-45.96 950.13,-50.13"/>
</g>
</g>
</svg>
