<?xml version="1.0" encoding="UTF-8" standalone="no"?>
<!DOCTYPE svg PUBLIC "-//W3C//DTD SVG 1.1//EN"
 "http://www.w3.org/Graphics/SVG/1.1/DTD/svg11.dtd">
<!-- Generated by graphviz version 2.43.0 (0)
 -->
<!-- Title: OMSimG4Scintillation.hh Pages: 1 -->
<svg width="506pt" height="84pt"
 viewBox="0.00 0.00 505.50 84.00" xmlns="http://www.w3.org/2000/svg" xmlns:xlink="http://www.w3.org/1999/xlink">
<g id="graph0" class="graph" transform="scale(1 1) rotate(0) translate(4 80)">
<title>OMSimG4Scintillation.hh</title>
<!-- Node1 -->
<g id="node1" class="node">
<title>Node1</title>
<g id="a_node1"><a xlink:title="Original Geant4 scintillation class modified to accept unlimited number of lifetimes.">
<polygon fill="#bfbfbf" stroke="black" points="136.5,-56.5 136.5,-75.5 274.5,-75.5 274.5,-56.5 136.5,-56.5"/>
<text text-anchor="middle" x="205.5" y="-63.5" font-family="Helvetica,sans-Serif" font-size="10.00">OMSimG4Scintillation.hh</text>
</a>
</g>
</g>
<!-- Node2 -->
<g id="node2" class="node">
<title>Node2</title>
<g id="a_node2"><a xlink:title=" ">
<polygon fill="none" stroke="#bfbfbf" points="0,-0.5 0,-19.5 67,-19.5 67,-0.5 0,-0.5"/>
<text text-anchor="middle" x="33.5" y="-7.5" font-family="Helvetica,sans-Serif" font-size="10.00">globals.hh</text>
</a>
</g>
</g>
<!-- Node1&#45;&gt;Node2 -->
<g id="edge1" class="edge">
<title>Node1&#45;&gt;Node2</title>
<path fill="none" stroke="midnightblue" d="M178.25,-56.44C149.06,-47.28 102.58,-32.69 70.19,-22.52"/>
<polygon fill="midnightblue" stroke="midnightblue" points="71.22,-19.17 60.63,-19.52 69.12,-25.85 71.22,-19.17"/>
</g>
<!-- Node3 -->
<g id="node3" class="node">
<title>Node3</title>
<g id="a_node3"><a xlink:title=" ">
<polygon fill="none" stroke="#bfbfbf" points="85,-0.5 85,-19.5 196,-19.5 196,-0.5 85,-0.5"/>
<text text-anchor="middle" x="140.5" y="-7.5" font-family="Helvetica,sans-Serif" font-size="10.00">G4EmSaturation.hh</text>
</a>
</g>
</g>
<!-- Node1&#45;&gt;Node3 -->
<g id="edge2" class="edge">
<title>Node1&#45;&gt;Node3</title>
<path fill="none" stroke="midnightblue" d="M195.06,-56.32C185.35,-48.26 170.68,-36.08 159,-26.37"/>
<polygon fill="midnightblue" stroke="midnightblue" points="161.06,-23.53 151.13,-19.83 156.59,-28.92 161.06,-23.53"/>
</g>
<!-- Node4 -->
<g id="node4" class="node">
<title>Node4</title>
<g id="a_node4"><a xlink:title=" ">
<polygon fill="none" stroke="#bfbfbf" points="214,-0.5 214,-19.5 327,-19.5 327,-0.5 214,-0.5"/>
<text text-anchor="middle" x="270.5" y="-7.5" font-family="Helvetica,sans-Serif" font-size="10.00">G4OpticalPhoton.hh</text>
</a>
</g>
</g>
<!-- Node1&#45;&gt;Node4 -->
<g id="edge3" class="edge">
<title>Node1&#45;&gt;Node4</title>
<path fill="none" stroke="midnightblue" d="M215.94,-56.32C225.65,-48.26 240.32,-36.08 252,-26.37"/>
<polygon fill="midnightblue" stroke="midnightblue" points="254.41,-28.92 259.87,-19.83 249.94,-23.53 254.41,-28.92"/>
</g>
<!-- Node5 -->
<g id="node5" class="node">
<title>Node5</title>
<g id="a_node5"><a xlink:title=" ">
<polygon fill="none" stroke="#bfbfbf" points="345.5,-0.5 345.5,-19.5 497.5,-19.5 497.5,-0.5 345.5,-0.5"/>
<text text-anchor="middle" x="421.5" y="-7.5" font-family="Helvetica,sans-Serif" font-size="10.00">G4VRestDiscreteProcess.hh</text>
</a>
</g>
</g>
<!-- Node1&#45;&gt;Node5 -->
<g id="edge4" class="edge">
<title>Node1&#45;&gt;Node5</title>
<path fill="none" stroke="midnightblue" d="M239.73,-56.44C277.01,-47.12 336.77,-32.18 377.51,-22"/>
<polygon fill="midnightblue" stroke="midnightblue" points="378.58,-25.34 387.43,-19.52 376.88,-18.55 378.58,-25.34"/>
</g>
</g>
</svg>
