<?xml version="1.0" encoding="UTF-8" standalone="no"?>
<!DOCTYPE svg PUBLIC "-//W3C//DTD SVG 1.1//EN"
 "http://www.w3.org/Graphics/SVG/1.1/DTD/svg11.dtd">
<!-- Generated by graphviz version 2.43.0 (0)
 -->
<!-- Title: OMSim.hh Pages: 1 -->
<svg width="2167pt" height="431pt"
 viewBox="0.00 0.00 2167.00 431.00" xmlns="http://www.w3.org/2000/svg" xmlns:xlink="http://www.w3.org/1999/xlink">
<g id="graph0" class="graph" transform="scale(1 1) rotate(0) translate(4 427)">
<title>OMSim.hh</title>
<!-- Node1 -->
<g id="node1" class="node">
<title>Node1</title>
<g id="a_node1"><a xlink:title="Main simulation class for the Optical Module (OM) simulation. This file defines the OMSim class,...">
<polygon fill="#bfbfbf" stroke="black" points="1269.5,-403.5 1269.5,-422.5 1336.5,-422.5 1336.5,-403.5 1269.5,-403.5"/>
<text text-anchor="middle" x="1303" y="-410.5" font-family="Helvetica,sans-Serif" font-size="10.00">OMSim.hh</text>
</a>
</g>
</g>
<!-- Node2 -->
<g id="node2" class="node">
<title>Node2</title>
<g id="a_node2"><a xlink:href="_o_m_sim_detector_construction_8hh_source.html" target="_top" xlink:title=" ">
<polygon fill="none" stroke="black" points="635,-347.5 635,-366.5 805,-366.5 805,-347.5 635,-347.5"/>
<text text-anchor="middle" x="720" y="-354.5" font-family="Helvetica,sans-Serif" font-size="10.00">OMSimDetectorConstruction.hh</text>
</a>
</g>
</g>
<!-- Node1&#45;&gt;Node2 -->
<g id="edge1" class="edge">
<title>Node1&#45;&gt;Node2</title>
<path fill="none" stroke="midnightblue" d="M1269.5,-408.96C1191.76,-401.9 992.81,-383.77 815.11,-367.1"/>
<polygon fill="midnightblue" stroke="midnightblue" points="815.34,-363.61 805.05,-366.16 814.68,-370.58 815.34,-363.61"/>
</g>
<!-- Node38 -->
<g id="node31" class="node">
<title>Node38</title>
<g id="a_node31"><a xlink:title=" ">
<polygon fill="none" stroke="#bfbfbf" points="823.5,-347.5 823.5,-366.5 944.5,-366.5 944.5,-347.5 823.5,-347.5"/>
<text text-anchor="middle" x="884" y="-354.5" font-family="Helvetica,sans-Serif" font-size="10.00">OMSimPhysicsList.hh</text>
</a>
</g>
</g>
<!-- Node1&#45;&gt;Node38 -->
<g id="edge34" class="edge">
<title>Node1&#45;&gt;Node38</title>
<path fill="none" stroke="midnightblue" d="M1269.21,-407.68C1208.47,-399.9 1076.52,-382.99 954.82,-367.23"/>
<polygon fill="midnightblue" stroke="midnightblue" points="954.95,-363.72 944.58,-365.91 954.05,-370.66 954.95,-363.72"/>
</g>
<!-- Node39 -->
<g id="node32" class="node">
<title>Node39</title>
<g id="a_node32"><a xlink:title=" ">
<polygon fill="none" stroke="#bfbfbf" points="962.5,-347.5 962.5,-366.5 1147.5,-366.5 1147.5,-347.5 962.5,-347.5"/>
<text text-anchor="middle" x="1055" y="-354.5" font-family="Helvetica,sans-Serif" font-size="10.00">OMSimPrimaryGeneratorAction.hh</text>
</a>
</g>
</g>
<!-- Node1&#45;&gt;Node39 -->
<g id="edge35" class="edge">
<title>Node1&#45;&gt;Node39</title>
<path fill="none" stroke="midnightblue" d="M1269.3,-404.66C1226.76,-395.4 1153.27,-379.4 1104.4,-368.76"/>
<polygon fill="midnightblue" stroke="midnightblue" points="1104.88,-365.28 1094.36,-366.57 1103.39,-372.12 1104.88,-365.28"/>
</g>
<!-- Node40 -->
<g id="node33" class="node">
<title>Node40</title>
<g id="a_node33"><a xlink:href="_o_m_sim_run_action_8hh_source.html" target="_top" xlink:title=" ">
<polygon fill="none" stroke="black" points="487,-291.5 487,-310.5 603,-310.5 603,-291.5 487,-291.5"/>
<text text-anchor="middle" x="545" y="-298.5" font-family="Helvetica,sans-Serif" font-size="10.00">OMSimRunAction.hh</text>
</a>
</g>
</g>
<!-- Node1&#45;&gt;Node40 -->
<g id="edge36" class="edge">
<title>Node1&#45;&gt;Node40</title>
<path fill="none" stroke="midnightblue" d="M1269.36,-412.41C1149.66,-413.46 745.23,-413.43 626,-367 599.1,-356.53 574.17,-333.73 559.26,-318.12"/>
<polygon fill="midnightblue" stroke="midnightblue" points="561.78,-315.69 552.42,-310.72 556.64,-320.44 561.78,-315.69"/>
</g>
<!-- Node44 -->
<g id="node37" class="node">
<title>Node44</title>
<g id="a_node37"><a xlink:title=" ">
<polygon fill="none" stroke="#bfbfbf" points="1165.5,-347.5 1165.5,-366.5 1290.5,-366.5 1290.5,-347.5 1165.5,-347.5"/>
<text text-anchor="middle" x="1228" y="-354.5" font-family="Helvetica,sans-Serif" font-size="10.00">OMSimEventAction.hh</text>
</a>
</g>
</g>
<!-- Node1&#45;&gt;Node44 -->
<g id="edge42" class="edge">
<title>Node1&#45;&gt;Node44</title>
<path fill="none" stroke="midnightblue" d="M1290.95,-403.32C1279.54,-395.11 1262.17,-382.6 1248.57,-372.81"/>
<polygon fill="midnightblue" stroke="midnightblue" points="1250.43,-369.84 1240.27,-366.83 1246.34,-375.52 1250.43,-369.84"/>
</g>
<!-- Node45 -->
<g id="node38" class="node">
<title>Node45</title>
<g id="a_node38"><a xlink:href="_o_m_sim_tracking_action_8hh_source.html" target="_top" xlink:title=" ">
<polygon fill="none" stroke="black" points="1309,-347.5 1309,-366.5 1447,-366.5 1447,-347.5 1309,-347.5"/>
<text text-anchor="middle" x="1378" y="-354.5" font-family="Helvetica,sans-Serif" font-size="10.00">OMSimTrackingAction.hh</text>
</a>
</g>
</g>
<!-- Node1&#45;&gt;Node45 -->
<g id="edge43" class="edge">
<title>Node1&#45;&gt;Node45</title>
<path fill="none" stroke="midnightblue" d="M1315.05,-403.32C1326.46,-395.11 1343.83,-382.6 1357.43,-372.81"/>
<polygon fill="midnightblue" stroke="midnightblue" points="1359.66,-375.52 1365.73,-366.83 1355.57,-369.84 1359.66,-375.52"/>
</g>
<!-- Node47 -->
<g id="node40" class="node">
<title>Node47</title>
<g id="a_node40"><a xlink:href="_o_m_sim_stepping_action_8hh.html" target="_top" xlink:title="Defines OMSimSteppingAction.Currently it only checks for trapped photons.">
<polygon fill="none" stroke="black" points="1465,-347.5 1465,-366.5 1605,-366.5 1605,-347.5 1465,-347.5"/>
<text text-anchor="middle" x="1535" y="-354.5" font-family="Helvetica,sans-Serif" font-size="10.00">OMSimSteppingAction.hh</text>
</a>
</g>
</g>
<!-- Node1&#45;&gt;Node47 -->
<g id="edge45" class="edge">
<title>Node1&#45;&gt;Node47</title>
<path fill="none" stroke="midnightblue" d="M1336.73,-404.15C1376.69,-394.85 1443.48,-379.3 1488.37,-368.85"/>
<polygon fill="midnightblue" stroke="midnightblue" points="1489.21,-372.25 1498.16,-366.58 1487.62,-365.43 1489.21,-372.25"/>
</g>
<!-- Node49 -->
<g id="node42" class="node">
<title>Node49</title>
<g id="a_node42"><a xlink:href="_o_m_sim_u_iinterface_8hh.html" target="_top" xlink:title=" ">
<polygon fill="none" stroke="black" points="137.5,-291.5 137.5,-310.5 258.5,-310.5 258.5,-291.5 137.5,-291.5"/>
<text text-anchor="middle" x="198" y="-298.5" font-family="Helvetica,sans-Serif" font-size="10.00">OMSimUIinterface.hh</text>
</a>
</g>
</g>
<!-- Node1&#45;&gt;Node49 -->
<g id="edge47" class="edge">
<title>Node1&#45;&gt;Node49</title>
<path fill="none" stroke="midnightblue" d="M1269.39,-411.11C1166.89,-408.12 849.35,-396.92 588,-367 466.53,-353.09 325.29,-327.07 250.59,-312.52"/>
<polygon fill="midnightblue" stroke="midnightblue" points="250.99,-309.04 240.5,-310.55 249.65,-315.91 250.99,-309.04"/>
</g>
<!-- Node54 -->
<g id="node47" class="node">
<title>Node54</title>
<g id="a_node47"><a xlink:title=" ">
<polygon fill="none" stroke="#bfbfbf" points="1623.5,-347.5 1623.5,-366.5 1744.5,-366.5 1744.5,-347.5 1623.5,-347.5"/>
<text text-anchor="middle" x="1684" y="-354.5" font-family="Helvetica,sans-Serif" font-size="10.00">G4MTRunManager.hh</text>
</a>
</g>
</g>
<!-- Node1&#45;&gt;Node54 -->
<g id="edge54" class="edge">
<title>Node1&#45;&gt;Node54</title>
<path fill="none" stroke="midnightblue" d="M1336.81,-407.21C1398.79,-398.42 1531.76,-379.58 1613.97,-367.93"/>
<polygon fill="midnightblue" stroke="midnightblue" points="1614.57,-371.38 1623.98,-366.51 1613.59,-364.44 1614.57,-371.38"/>
</g>
<!-- Node55 -->
<g id="node48" class="node">
<title>Node55</title>
<g id="a_node48"><a xlink:title=" ">
<polygon fill="none" stroke="#bfbfbf" points="1762.5,-347.5 1762.5,-366.5 1869.5,-366.5 1869.5,-347.5 1762.5,-347.5"/>
<text text-anchor="middle" x="1816" y="-354.5" font-family="Helvetica,sans-Serif" font-size="10.00">G4VisExecutive.hh</text>
</a>
</g>
</g>
<!-- Node1&#45;&gt;Node55 -->
<g id="edge55" class="edge">
<title>Node1&#45;&gt;Node55</title>
<path fill="none" stroke="midnightblue" d="M1336.72,-409.15C1410.26,-402.84 1590.77,-386.73 1752.14,-367.18"/>
<polygon fill="midnightblue" stroke="midnightblue" points="1752.75,-370.64 1762.25,-365.95 1751.9,-363.69 1752.75,-370.64"/>
</g>
<!-- Node56 -->
<g id="node49" class="node">
<title>Node56</title>
<g id="a_node49"><a xlink:title=" ">
<polygon fill="none" stroke="#bfbfbf" points="1887.5,-347.5 1887.5,-366.5 1990.5,-366.5 1990.5,-347.5 1887.5,-347.5"/>
<text text-anchor="middle" x="1939" y="-354.5" font-family="Helvetica,sans-Serif" font-size="10.00">G4UIExecutive.hh</text>
</a>
</g>
</g>
<!-- Node1&#45;&gt;Node56 -->
<g id="edge56" class="edge">
<title>Node1&#45;&gt;Node56</title>
<path fill="none" stroke="midnightblue" d="M1336.52,-410.22C1423.84,-405.39 1665.73,-390.88 1877.27,-367.13"/>
<polygon fill="midnightblue" stroke="midnightblue" points="1877.78,-370.59 1887.32,-365.99 1876.99,-363.64 1877.78,-370.59"/>
</g>
<!-- Node57 -->
<g id="node50" class="node">
<title>Node57</title>
<g id="a_node50"><a xlink:title=" ">
<polygon fill="none" stroke="#bfbfbf" points="2009,-347.5 2009,-366.5 2159,-366.5 2159,-347.5 2009,-347.5"/>
<text text-anchor="middle" x="2084" y="-354.5" font-family="Helvetica,sans-Serif" font-size="10.00">boost/program_options.hpp</text>
</a>
</g>
</g>
<!-- Node1&#45;&gt;Node57 -->
<g id="edge57" class="edge">
<title>Node1&#45;&gt;Node57</title>
<path fill="none" stroke="midnightblue" d="M1336.77,-410.33C1436.33,-405.29 1737.6,-389.26 1998.85,-367.06"/>
<polygon fill="midnightblue" stroke="midnightblue" points="1999.24,-370.54 2008.91,-366.2 1998.65,-363.57 1999.24,-370.54"/>
</g>
<!-- Node3 -->
<g id="node3" class="node">
<title>Node3</title>
<g id="a_node3"><a xlink:href="_o_m_sim_optical_module_8hh_source.html" target="_top" xlink:title=" ">
<polygon fill="none" stroke="black" points="651.5,-291.5 651.5,-310.5 788.5,-310.5 788.5,-291.5 651.5,-291.5"/>
<text text-anchor="middle" x="720" y="-298.5" font-family="Helvetica,sans-Serif" font-size="10.00">OMSimOpticalModule.hh</text>
</a>
</g>
</g>
<!-- Node2&#45;&gt;Node3 -->
<g id="edge2" class="edge">
<title>Node2&#45;&gt;Node3</title>
<path fill="none" stroke="midnightblue" d="M720,-347.08C720,-340.01 720,-329.86 720,-320.99"/>
<polygon fill="midnightblue" stroke="midnightblue" points="723.5,-320.75 720,-310.75 716.5,-320.75 723.5,-320.75"/>
</g>
<!-- Node36 -->
<g id="node29" class="node">
<title>Node36</title>
<g id="a_node29"><a xlink:title=" ">
<polygon fill="none" stroke="#bfbfbf" points="807,-291.5 807,-310.5 869,-310.5 869,-291.5 807,-291.5"/>
<text text-anchor="middle" x="838" y="-298.5" font-family="Helvetica,sans-Serif" font-size="10.00">G4Orb.hh</text>
</a>
</g>
</g>
<!-- Node2&#45;&gt;Node36 -->
<g id="edge32" class="edge">
<title>Node2&#45;&gt;Node36</title>
<path fill="none" stroke="midnightblue" d="M738.7,-347.44C757.94,-338.64 788.15,-324.81 810.2,-314.72"/>
<polygon fill="midnightblue" stroke="midnightblue" points="811.75,-317.86 819.39,-310.52 808.84,-311.5 811.75,-317.86"/>
</g>
<!-- Node37 -->
<g id="node30" class="node">
<title>Node37</title>
<g id="a_node30"><a xlink:title=" ">
<polygon fill="none" stroke="#bfbfbf" points="887,-291.5 887,-310.5 1065,-310.5 1065,-291.5 887,-291.5"/>
<text text-anchor="middle" x="976" y="-298.5" font-family="Helvetica,sans-Serif" font-size="10.00">G4VUserDetectorConstruction.hh</text>
</a>
</g>
</g>
<!-- Node2&#45;&gt;Node37 -->
<g id="edge33" class="edge">
<title>Node2&#45;&gt;Node37</title>
<path fill="none" stroke="midnightblue" d="M760.56,-347.44C805.32,-338 877.38,-322.8 925.7,-312.61"/>
<polygon fill="midnightblue" stroke="midnightblue" points="926.56,-316.01 935.63,-310.52 925.12,-309.16 926.56,-316.01"/>
</g>
<!-- Node4 -->
<g id="node4" class="node">
<title>Node4</title>
<g id="a_node4"><a xlink:href="abc_detector_component_8hh.html" target="_top" xlink:title="Provides helper base class abcDetectorComponent for constructing and managing detector components in ...">
<polygon fill="none" stroke="black" points="1107.5,-179.5 1107.5,-198.5 1254.5,-198.5 1254.5,-179.5 1107.5,-179.5"/>
<text text-anchor="middle" x="1181" y="-186.5" font-family="Helvetica,sans-Serif" font-size="10.00">abcDetectorComponent.hh</text>
</a>
</g>
</g>
<!-- Node3&#45;&gt;Node4 -->
<g id="edge3" class="edge">
<title>Node3&#45;&gt;Node4</title>
<path fill="none" stroke="midnightblue" d="M788.76,-292.08C879.63,-281.41 1031.13,-262.86 1056,-255 1094.5,-242.82 1135.33,-219.32 1159.47,-204.16"/>
<polygon fill="midnightblue" stroke="midnightblue" points="1161.61,-206.95 1168.16,-198.61 1157.85,-201.05 1161.61,-206.95"/>
</g>
<!-- Node25 -->
<g id="node16" class="node">
<title>Node25</title>
<g id="a_node16"><a xlink:href="_o_m_sim_hit_manager_8hh.html" target="_top" xlink:title="Defines structures and classes related to optical module photon hit management.">
<polygon fill="none" stroke="black" points="658.5,-235.5 658.5,-254.5 781.5,-254.5 781.5,-235.5 658.5,-235.5"/>
<text text-anchor="middle" x="720" y="-242.5" font-family="Helvetica,sans-Serif" font-size="10.00">OMSimHitManager.hh</text>
</a>
</g>
</g>
<!-- Node3&#45;&gt;Node25 -->
<g id="edge15" class="edge">
<title>Node3&#45;&gt;Node25</title>
<path fill="none" stroke="midnightblue" d="M720,-291.08C720,-284.01 720,-273.86 720,-264.99"/>
<polygon fill="midnightblue" stroke="midnightblue" points="723.5,-264.75 720,-254.75 716.5,-264.75 723.5,-264.75"/>
</g>
<!-- Node33 -->
<g id="node26" class="node">
<title>Node33</title>
<g id="a_node26"><a xlink:href="_o_m_sim_p_m_t_construction_8hh.html" target="_top" xlink:title="Construction of the PMTs.">
<polygon fill="none" stroke="black" points="880.5,-235.5 880.5,-254.5 1029.5,-254.5 1029.5,-235.5 880.5,-235.5"/>
<text text-anchor="middle" x="955" y="-242.5" font-family="Helvetica,sans-Serif" font-size="10.00">OMSimPMTConstruction.hh</text>
</a>
</g>
</g>
<!-- Node3&#45;&gt;Node33 -->
<g id="edge26" class="edge">
<title>Node3&#45;&gt;Node33</title>
<path fill="none" stroke="midnightblue" d="M757.24,-291.44C798.06,-282.06 863.64,-266.99 907.98,-256.8"/>
<polygon fill="midnightblue" stroke="midnightblue" points="908.98,-260.17 917.94,-254.52 907.41,-253.34 908.98,-260.17"/>
</g>
<!-- Node5 -->
<g id="node5" class="node">
<title>Node5</title>
<g id="a_node5"><a xlink:href="_o_m_sim_input_data_8hh.html" target="_top" xlink:title="Definition of ParameterTable and OMSimInputData.">
<polygon fill="none" stroke="red" points="903.5,-123.5 903.5,-142.5 1018.5,-142.5 1018.5,-123.5 903.5,-123.5"/>
<text text-anchor="middle" x="961" y="-130.5" font-family="Helvetica,sans-Serif" font-size="10.00">OMSimInputData.hh</text>
</a>
</g>
</g>
<!-- Node4&#45;&gt;Node5 -->
<g id="edge4" class="edge">
<title>Node4&#45;&gt;Node5</title>
<path fill="none" stroke="midnightblue" d="M1146.14,-179.44C1108.08,-170.1 1047.04,-155.12 1005.54,-144.93"/>
<polygon fill="midnightblue" stroke="midnightblue" points="1006.24,-141.5 995.7,-142.52 1004.57,-148.3 1006.24,-141.5"/>
</g>
<!-- Node21 -->
<g id="node12" class="node">
<title>Node21</title>
<g id="a_node12"><a xlink:title=" ">
<polygon fill="none" stroke="#bfbfbf" points="1165.5,-123.5 1165.5,-142.5 1272.5,-142.5 1272.5,-123.5 1165.5,-123.5"/>
<text text-anchor="middle" x="1219" y="-130.5" font-family="Helvetica,sans-Serif" font-size="10.00">G4Transform3D.hh</text>
</a>
</g>
</g>
<!-- Node4&#45;&gt;Node21 -->
<g id="edge11" class="edge">
<title>Node4&#45;&gt;Node21</title>
<path fill="none" stroke="midnightblue" d="M1187.27,-179.08C1192.64,-171.46 1200.52,-160.26 1207.08,-150.94"/>
<polygon fill="midnightblue" stroke="midnightblue" points="1209.95,-152.94 1212.84,-142.75 1204.22,-148.91 1209.95,-152.94"/>
</g>
<!-- Node22 -->
<g id="node13" class="node">
<title>Node22</title>
<g id="a_node13"><a xlink:title=" ">
<polygon fill="none" stroke="#bfbfbf" points="1291,-123.5 1291,-142.5 1399,-142.5 1399,-123.5 1291,-123.5"/>
<text text-anchor="middle" x="1345" y="-130.5" font-family="Helvetica,sans-Serif" font-size="10.00">G4VisAttributes.hh</text>
</a>
</g>
</g>
<!-- Node4&#45;&gt;Node22 -->
<g id="edge12" class="edge">
<title>Node4&#45;&gt;Node22</title>
<path fill="none" stroke="midnightblue" d="M1206.99,-179.44C1234.7,-170.32 1278.75,-155.81 1309.62,-145.65"/>
<polygon fill="midnightblue" stroke="midnightblue" points="1310.73,-148.97 1319.14,-142.52 1308.54,-142.32 1310.73,-148.97"/>
</g>
<!-- Node23 -->
<g id="node14" class="node">
<title>Node23</title>
<g id="a_node14"><a xlink:title=" ">
<polygon fill="none" stroke="#bfbfbf" points="1417.5,-123.5 1417.5,-142.5 1542.5,-142.5 1542.5,-123.5 1417.5,-123.5"/>
<text text-anchor="middle" x="1480" y="-130.5" font-family="Helvetica,sans-Serif" font-size="10.00">G4SubtractionSolid.hh</text>
</a>
</g>
</g>
<!-- Node4&#45;&gt;Node23 -->
<g id="edge13" class="edge">
<title>Node4&#45;&gt;Node23</title>
<path fill="none" stroke="midnightblue" d="M1228.38,-179.44C1281.08,-169.92 1366.23,-154.55 1422.66,-144.36"/>
<polygon fill="midnightblue" stroke="midnightblue" points="1423.63,-147.74 1432.84,-142.52 1422.38,-140.85 1423.63,-147.74"/>
</g>
<!-- Node24 -->
<g id="node15" class="node">
<title>Node24</title>
<g id="a_node15"><a xlink:title=" ">
<polygon fill="none" stroke="#bfbfbf" points="1037,-123.5 1037,-142.5 1147,-142.5 1147,-123.5 1037,-123.5"/>
<text text-anchor="middle" x="1092" y="-130.5" font-family="Helvetica,sans-Serif" font-size="10.00">G4PVPlacement.hh</text>
</a>
</g>
</g>
<!-- Node4&#45;&gt;Node24 -->
<g id="edge14" class="edge">
<title>Node4&#45;&gt;Node24</title>
<path fill="none" stroke="midnightblue" d="M1166.7,-179.32C1152.82,-170.9 1131.51,-157.97 1115.2,-148.07"/>
<polygon fill="midnightblue" stroke="midnightblue" points="1116.63,-144.85 1106.26,-142.65 1113,-150.83 1116.63,-144.85"/>
</g>
<!-- Node6 -->
<g id="node6" class="node">
<title>Node6</title>
<g id="a_node6"><a xlink:href="_o_m_sim_logger_8hh_source.html" target="_top" xlink:title=" ">
<polygon fill="none" stroke="black" points="258.5,-67.5 258.5,-86.5 357.5,-86.5 357.5,-67.5 258.5,-67.5"/>
<text text-anchor="middle" x="308" y="-74.5" font-family="Helvetica,sans-Serif" font-size="10.00">OMSimLogger.hh</text>
</a>
</g>
</g>
<!-- Node5&#45;&gt;Node6 -->
<g id="edge5" class="edge">
<title>Node5&#45;&gt;Node6</title>
<path fill="none" stroke="midnightblue" d="M903.24,-127.07C887.59,-125.74 870.64,-124.31 855,-123 677.82,-108.19 468.33,-91.06 367.75,-82.86"/>
<polygon fill="midnightblue" stroke="midnightblue" points="368.03,-79.38 357.78,-82.05 367.46,-86.35 368.03,-79.38"/>
</g>
<!-- Node19 -->
<g id="node11" class="node">
<title>Node19</title>
<g id="a_node11"><a xlink:title=" ">
<polygon fill="none" stroke="#bfbfbf" points="858.5,-67.5 858.5,-86.5 977.5,-86.5 977.5,-67.5 858.5,-67.5"/>
<text text-anchor="middle" x="918" y="-74.5" font-family="Helvetica,sans-Serif" font-size="10.00">G4SystemOfUnits.hh</text>
</a>
</g>
</g>
<!-- Node5&#45;&gt;Node19 -->
<g id="edge10" class="edge">
<title>Node5&#45;&gt;Node19</title>
<path fill="none" stroke="midnightblue" d="M953.9,-123.08C947.76,-115.38 938.73,-104.03 931.26,-94.65"/>
<polygon fill="midnightblue" stroke="midnightblue" points="933.94,-92.39 924.97,-86.75 928.46,-96.75 933.94,-92.39"/>
</g>
<!-- Node7 -->
<g id="node7" class="node">
<title>Node7</title>
<g id="a_node7"><a xlink:title=" ">
<polygon fill="none" stroke="#bfbfbf" points="90.5,-6 90.5,-25 183.5,-25 183.5,-6 90.5,-6"/>
<text text-anchor="middle" x="137" y="-13" font-family="Helvetica,sans-Serif" font-size="10.00">spdlog/spdlog.h</text>
</a>
</g>
</g>
<!-- Node6&#45;&gt;Node7 -->
<g id="edge6" class="edge">
<title>Node6&#45;&gt;Node7</title>
<path fill="none" stroke="midnightblue" d="M283.5,-67.48C254.04,-57.22 204.42,-39.96 171.2,-28.4"/>
<polygon fill="midnightblue" stroke="midnightblue" points="172.05,-24.99 161.45,-25.01 169.75,-31.6 172.05,-24.99"/>
</g>
<!-- Node8 -->
<g id="node8" class="node">
<title>Node8</title>
<g id="a_node8"><a xlink:title=" ">
<polygon fill="none" stroke="#bfbfbf" points="201.5,-0.5 201.5,-30.5 312.5,-30.5 312.5,-0.5 201.5,-0.5"/>
<text text-anchor="start" x="209.5" y="-18.5" font-family="Helvetica,sans-Serif" font-size="10.00">spdlog/sinks/stdout</text>
<text text-anchor="middle" x="257" y="-7.5" font-family="Helvetica,sans-Serif" font-size="10.00">_color_sinks.h</text>
</a>
</g>
</g>
<!-- Node6&#45;&gt;Node8 -->
<g id="edge7" class="edge">
<title>Node6&#45;&gt;Node8</title>
<path fill="none" stroke="midnightblue" d="M300.69,-67.48C294.17,-59.87 284.34,-48.4 275.66,-38.26"/>
<polygon fill="midnightblue" stroke="midnightblue" points="278.19,-35.84 269.02,-30.52 272.87,-40.39 278.19,-35.84"/>
</g>
<!-- Node9 -->
<g id="node9" class="node">
<title>Node9</title>
<g id="a_node9"><a xlink:title=" ">
<polygon fill="none" stroke="#bfbfbf" points="331,-6 331,-25 389,-25 389,-6 331,-6"/>
<text text-anchor="middle" x="360" y="-13" font-family="Helvetica,sans-Serif" font-size="10.00">memory</text>
</a>
</g>
</g>
<!-- Node6&#45;&gt;Node9 -->
<g id="edge8" class="edge">
<title>Node6&#45;&gt;Node9</title>
<path fill="none" stroke="midnightblue" d="M315.45,-67.48C323.33,-58.46 335.94,-44.02 345.74,-32.81"/>
<polygon fill="midnightblue" stroke="midnightblue" points="348.62,-34.84 352.56,-25.01 343.35,-30.24 348.62,-34.84"/>
</g>
<!-- Node10 -->
<g id="node10" class="node">
<title>Node10</title>
<g id="a_node10"><a xlink:title=" ">
<polygon fill="none" stroke="#bfbfbf" points="407,-6 407,-25 505,-25 505,-6 407,-6"/>
<text text-anchor="middle" x="456" y="-13" font-family="Helvetica,sans-Serif" font-size="10.00">spdlog/fmt/fmt.h</text>
</a>
</g>
</g>
<!-- Node6&#45;&gt;Node10 -->
<g id="edge9" class="edge">
<title>Node6&#45;&gt;Node10</title>
<path fill="none" stroke="midnightblue" d="M329.2,-67.48C354.37,-57.36 396.54,-40.4 425.28,-28.85"/>
<polygon fill="midnightblue" stroke="midnightblue" points="426.86,-31.99 434.83,-25.01 424.25,-25.49 426.86,-31.99"/>
</g>
<!-- Node26 -->
<g id="node17" class="node">
<title>Node26</title>
<g id="a_node17"><a xlink:href="_o_m_sim_p_m_t_response_8hh.html" target="_top" xlink:title="Simulation of PMT response.">
<polygon fill="none" stroke="black" points="752.5,-179.5 752.5,-198.5 887.5,-198.5 887.5,-179.5 752.5,-179.5"/>
<text text-anchor="middle" x="820" y="-186.5" font-family="Helvetica,sans-Serif" font-size="10.00">OMSimPMTResponse.hh</text>
</a>
</g>
</g>
<!-- Node25&#45;&gt;Node26 -->
<g id="edge16" class="edge">
<title>Node25&#45;&gt;Node26</title>
<path fill="none" stroke="midnightblue" d="M736.07,-235.32C751.96,-226.74 776.51,-213.49 794.96,-203.52"/>
<polygon fill="midnightblue" stroke="midnightblue" points="796.84,-206.49 803.97,-198.65 793.51,-200.33 796.84,-206.49"/>
</g>
<!-- Node31 -->
<g id="node22" class="node">
<title>Node31</title>
<g id="a_node22"><a xlink:title=" ">
<polygon fill="none" stroke="#bfbfbf" points="522.5,-179.5 522.5,-198.5 625.5,-198.5 625.5,-179.5 522.5,-179.5"/>
<text text-anchor="middle" x="574" y="-186.5" font-family="Helvetica,sans-Serif" font-size="10.00">G4ThreeVector.hh</text>
</a>
</g>
</g>
<!-- Node25&#45;&gt;Node31 -->
<g id="edge22" class="edge">
<title>Node25&#45;&gt;Node31</title>
<path fill="none" stroke="midnightblue" d="M696.87,-235.44C672.52,-226.44 633.99,-212.19 606.58,-202.05"/>
<polygon fill="midnightblue" stroke="midnightblue" points="607.62,-198.7 597.03,-198.52 605.19,-205.27 607.62,-198.7"/>
</g>
<!-- Node32 -->
<g id="node23" class="node">
<title>Node32</title>
<g id="a_node23"><a xlink:title=" ">
<polygon fill="none" stroke="#bfbfbf" points="336.5,-179.5 336.5,-198.5 391.5,-198.5 391.5,-179.5 336.5,-179.5"/>
<text text-anchor="middle" x="364" y="-186.5" font-family="Helvetica,sans-Serif" font-size="10.00">fstream</text>
</a>
</g>
</g>
<!-- Node25&#45;&gt;Node32 -->
<g id="edge23" class="edge">
<title>Node25&#45;&gt;Node32</title>
<path fill="none" stroke="midnightblue" d="M658.16,-236.01C584.02,-226.32 463.08,-210.09 401.83,-198.96"/>
<polygon fill="midnightblue" stroke="midnightblue" points="402.29,-195.48 391.82,-197.08 401,-202.36 402.29,-195.48"/>
</g>
<!-- Node17 -->
<g id="node24" class="node">
<title>Node17</title>
<g id="a_node24"><a xlink:title=" ">
<polygon fill="none" stroke="#bfbfbf" points="644,-179.5 644,-198.5 734,-198.5 734,-179.5 644,-179.5"/>
<text text-anchor="middle" x="689" y="-186.5" font-family="Helvetica,sans-Serif" font-size="10.00">G4AutoLock.hh</text>
</a>
</g>
</g>
<!-- Node25&#45;&gt;Node17 -->
<g id="edge24" class="edge">
<title>Node25&#45;&gt;Node17</title>
<path fill="none" stroke="midnightblue" d="M714.88,-235.08C710.59,-227.61 704.34,-216.72 699.06,-207.52"/>
<polygon fill="midnightblue" stroke="midnightblue" points="702.04,-205.68 694.02,-198.75 695.97,-209.17 702.04,-205.68"/>
</g>
<!-- Node18 -->
<g id="node25" class="node">
<title>Node18</title>
<g id="a_node25"><a xlink:title=" ">
<polygon fill="none" stroke="#bfbfbf" points="410,-179.5 410,-198.5 504,-198.5 504,-179.5 410,-179.5"/>
<text text-anchor="middle" x="457" y="-186.5" font-family="Helvetica,sans-Serif" font-size="10.00">G4Threading.hh</text>
</a>
</g>
</g>
<!-- Node25&#45;&gt;Node18 -->
<g id="edge25" class="edge">
<title>Node25&#45;&gt;Node18</title>
<path fill="none" stroke="midnightblue" d="M678.33,-235.44C632.25,-225.98 558,-210.74 508.37,-200.55"/>
<polygon fill="midnightblue" stroke="midnightblue" points="508.98,-197.1 498.48,-198.52 507.57,-203.96 508.98,-197.1"/>
</g>
<!-- Node26&#45;&gt;Node19 -->
<g id="edge17" class="edge">
<title>Node26&#45;&gt;Node19</title>
<path fill="none" stroke="midnightblue" d="M827.69,-179.37C844.01,-161.05 882.32,-118.05 903.42,-94.36"/>
<polygon fill="midnightblue" stroke="midnightblue" points="906.31,-96.39 910.35,-86.59 901.08,-91.73 906.31,-96.39"/>
</g>
<!-- Node27 -->
<g id="node18" class="node">
<title>Node27</title>
<g id="a_node18"><a xlink:title=" ">
<polygon fill="none" stroke="#bfbfbf" points="566.5,-123.5 566.5,-142.5 639.5,-142.5 639.5,-123.5 566.5,-123.5"/>
<text text-anchor="middle" x="603" y="-130.5" font-family="Helvetica,sans-Serif" font-size="10.00">G4Types.hh</text>
</a>
</g>
</g>
<!-- Node26&#45;&gt;Node27 -->
<g id="edge18" class="edge">
<title>Node26&#45;&gt;Node27</title>
<path fill="none" stroke="midnightblue" d="M785.62,-179.44C748.08,-170.1 687.87,-155.12 646.93,-144.93"/>
<polygon fill="midnightblue" stroke="midnightblue" points="647.77,-141.53 637.22,-142.52 646.08,-148.33 647.77,-141.53"/>
</g>
<!-- Node28 -->
<g id="node19" class="node">
<title>Node28</title>
<g id="a_node19"><a xlink:title=" ">
<polygon fill="none" stroke="#bfbfbf" points="658,-123.5 658,-142.5 696,-142.5 696,-123.5 658,-123.5"/>
<text text-anchor="middle" x="677" y="-130.5" font-family="Helvetica,sans-Serif" font-size="10.00">map</text>
</a>
</g>
</g>
<!-- Node26&#45;&gt;Node28 -->
<g id="edge19" class="edge">
<title>Node26&#45;&gt;Node28</title>
<path fill="none" stroke="midnightblue" d="M797.34,-179.44C772.62,-170.11 732.98,-155.14 706,-144.95"/>
<polygon fill="midnightblue" stroke="midnightblue" points="706.93,-141.56 696.34,-141.3 704.46,-148.11 706.93,-141.56"/>
</g>
<!-- Node29 -->
<g id="node20" class="node">
<title>Node29</title>
<g id="a_node20"><a xlink:title=" ">
<polygon fill="none" stroke="#bfbfbf" points="714.5,-123.5 714.5,-142.5 775.5,-142.5 775.5,-123.5 714.5,-123.5"/>
<text text-anchor="middle" x="745" y="-130.5" font-family="Helvetica,sans-Serif" font-size="10.00">TGraph.h</text>
</a>
</g>
</g>
<!-- Node26&#45;&gt;Node29 -->
<g id="edge20" class="edge">
<title>Node26&#45;&gt;Node29</title>
<path fill="none" stroke="midnightblue" d="M807.95,-179.32C796.54,-171.11 779.17,-158.6 765.57,-148.81"/>
<polygon fill="midnightblue" stroke="midnightblue" points="767.43,-145.84 757.27,-142.83 763.34,-151.52 767.43,-145.84"/>
</g>
<!-- Node30 -->
<g id="node21" class="node">
<title>Node30</title>
<g id="a_node21"><a xlink:title=" ">
<polygon fill="none" stroke="#bfbfbf" points="793.5,-123.5 793.5,-142.5 846.5,-142.5 846.5,-123.5 793.5,-123.5"/>
<text text-anchor="middle" x="820" y="-130.5" font-family="Helvetica,sans-Serif" font-size="10.00">TH2D.h</text>
</a>
</g>
</g>
<!-- Node26&#45;&gt;Node30 -->
<g id="edge21" class="edge">
<title>Node26&#45;&gt;Node30</title>
<path fill="none" stroke="midnightblue" d="M820,-179.08C820,-172.01 820,-161.86 820,-152.99"/>
<polygon fill="midnightblue" stroke="midnightblue" points="823.5,-152.75 820,-142.75 816.5,-152.75 823.5,-152.75"/>
</g>
<!-- Node33&#45;&gt;Node4 -->
<g id="edge27" class="edge">
<title>Node33&#45;&gt;Node4</title>
<path fill="none" stroke="midnightblue" d="M990.81,-235.44C1029.99,-226.08 1092.88,-211.06 1135.52,-200.87"/>
<polygon fill="midnightblue" stroke="midnightblue" points="1136.44,-204.24 1145.36,-198.52 1134.82,-197.44 1136.44,-204.24"/>
</g>
<!-- Node33&#45;&gt;Node26 -->
<g id="edge29" class="edge">
<title>Node33&#45;&gt;Node26</title>
<path fill="none" stroke="midnightblue" d="M933.61,-235.44C911.29,-226.52 876.1,-212.44 850.79,-202.32"/>
<polygon fill="midnightblue" stroke="midnightblue" points="851.88,-198.98 841.29,-198.52 849.28,-205.48 851.88,-198.98"/>
</g>
<!-- Node33&#45;&gt;Node33 -->
<g id="edge28" class="edge">
<title>Node33&#45;&gt;Node33</title>
<path fill="none" stroke="midnightblue" d="M994.45,-254.53C1021.26,-257.31 1047.5,-254.13 1047.5,-245 1047.5,-237.01 1027.41,-233.58 1004.43,-234.71"/>
<polygon fill="midnightblue" stroke="midnightblue" points="1004.15,-231.22 994.45,-235.47 1004.69,-238.2 1004.15,-231.22"/>
</g>
<!-- Node34 -->
<g id="node27" class="node">
<title>Node34</title>
<g id="a_node27"><a xlink:title=" ">
<polygon fill="none" stroke="#bfbfbf" points="906,-179.5 906,-198.5 1004,-198.5 1004,-179.5 906,-179.5"/>
<text text-anchor="middle" x="955" y="-186.5" font-family="Helvetica,sans-Serif" font-size="10.00">G4UnionSolid.hh</text>
</a>
</g>
</g>
<!-- Node33&#45;&gt;Node34 -->
<g id="edge30" class="edge">
<title>Node33&#45;&gt;Node34</title>
<path fill="none" stroke="midnightblue" d="M955,-235.08C955,-228.01 955,-217.86 955,-208.99"/>
<polygon fill="midnightblue" stroke="midnightblue" points="958.5,-208.75 955,-198.75 951.5,-208.75 958.5,-208.75"/>
</g>
<!-- Node35 -->
<g id="node28" class="node">
<title>Node35</title>
<g id="a_node28"><a xlink:title=" ">
<polygon fill="none" stroke="#bfbfbf" points="1022.5,-179.5 1022.5,-198.5 1089.5,-198.5 1089.5,-179.5 1022.5,-179.5"/>
<text text-anchor="middle" x="1056" y="-186.5" font-family="Helvetica,sans-Serif" font-size="10.00">G4Tubs.hh</text>
</a>
</g>
</g>
<!-- Node33&#45;&gt;Node35 -->
<g id="edge31" class="edge">
<title>Node33&#45;&gt;Node35</title>
<path fill="none" stroke="midnightblue" d="M971.23,-235.32C987.35,-226.7 1012.3,-213.36 1030.96,-203.39"/>
<polygon fill="midnightblue" stroke="midnightblue" points="1032.64,-206.46 1039.81,-198.65 1029.34,-200.28 1032.64,-206.46"/>
</g>
<!-- Node40&#45;&gt;Node6 -->
<g id="edge39" class="edge">
<title>Node40&#45;&gt;Node6</title>
<path fill="none" stroke="midnightblue" d="M486.92,-295.63C429.75,-290.04 348.04,-278.18 327,-255 286.89,-210.81 296.48,-132.58 303.61,-96.8"/>
<polygon fill="midnightblue" stroke="midnightblue" points="307.09,-97.29 305.78,-86.78 300.25,-95.81 307.09,-97.29"/>
</g>
<!-- Node40&#45;&gt;Node25 -->
<g id="edge38" class="edge">
<title>Node40&#45;&gt;Node25</title>
<path fill="none" stroke="midnightblue" d="M572.73,-291.44C602.43,-282.28 649.72,-267.69 682.67,-257.52"/>
<polygon fill="midnightblue" stroke="midnightblue" points="683.88,-260.81 692.4,-254.52 681.81,-254.12 683.88,-260.81"/>
</g>
<!-- Node41 -->
<g id="node34" class="node">
<title>Node41</title>
<g id="a_node34"><a xlink:title=" ">
<polygon fill="none" stroke="#bfbfbf" points="336.5,-235.5 336.5,-254.5 453.5,-254.5 453.5,-235.5 336.5,-235.5"/>
<text text-anchor="middle" x="395" y="-242.5" font-family="Helvetica,sans-Serif" font-size="10.00">G4UserRunAction.hh</text>
</a>
</g>
</g>
<!-- Node40&#45;&gt;Node41 -->
<g id="edge37" class="edge">
<title>Node40&#45;&gt;Node41</title>
<path fill="none" stroke="midnightblue" d="M521.23,-291.44C496.11,-282.4 456.29,-268.06 428.1,-257.92"/>
<polygon fill="midnightblue" stroke="midnightblue" points="429.25,-254.61 418.66,-254.52 426.88,-261.2 429.25,-254.61"/>
</g>
<!-- Node42 -->
<g id="node35" class="node">
<title>Node42</title>
<g id="a_node35"><a xlink:title=" ">
<polygon fill="none" stroke="#bfbfbf" points="472,-235.5 472,-254.5 558,-254.5 558,-235.5 472,-235.5"/>
<text text-anchor="middle" x="515" y="-242.5" font-family="Helvetica,sans-Serif" font-size="10.00">Randomize.hh</text>
</a>
</g>
</g>
<!-- Node40&#45;&gt;Node42 -->
<g id="edge40" class="edge">
<title>Node40&#45;&gt;Node42</title>
<path fill="none" stroke="midnightblue" d="M540.05,-291.08C535.9,-283.61 529.85,-272.72 524.73,-263.52"/>
<polygon fill="midnightblue" stroke="midnightblue" points="527.78,-261.79 519.86,-254.75 521.66,-265.19 527.78,-261.79"/>
</g>
<!-- Node43 -->
<g id="node36" class="node">
<title>Node43</title>
<g id="a_node36"><a xlink:title=" ">
<polygon fill="none" stroke="#bfbfbf" points="576,-235.5 576,-254.5 640,-254.5 640,-235.5 576,-235.5"/>
<text text-anchor="middle" x="608" y="-242.5" font-family="Helvetica,sans-Serif" font-size="10.00">G4Run.hh</text>
</a>
</g>
</g>
<!-- Node40&#45;&gt;Node43 -->
<g id="edge41" class="edge">
<title>Node40&#45;&gt;Node43</title>
<path fill="none" stroke="midnightblue" d="M555.12,-291.32C564.53,-283.26 578.74,-271.08 590.07,-261.37"/>
<polygon fill="midnightblue" stroke="midnightblue" points="592.38,-264 597.69,-254.83 587.82,-258.68 592.38,-264"/>
</g>
<!-- Node46 -->
<g id="node39" class="node">
<title>Node46</title>
<g id="a_node39"><a xlink:title=" ">
<polygon fill="none" stroke="#bfbfbf" points="1307.5,-291.5 1307.5,-310.5 1446.5,-310.5 1446.5,-291.5 1307.5,-291.5"/>
<text text-anchor="middle" x="1377" y="-298.5" font-family="Helvetica,sans-Serif" font-size="10.00">G4UserTrackingAction.hh</text>
</a>
</g>
</g>
<!-- Node45&#45;&gt;Node46 -->
<g id="edge44" class="edge">
<title>Node45&#45;&gt;Node46</title>
<path fill="none" stroke="midnightblue" d="M1377.83,-347.08C1377.7,-340.01 1377.52,-329.86 1377.35,-320.99"/>
<polygon fill="midnightblue" stroke="midnightblue" points="1380.85,-320.68 1377.16,-310.75 1373.85,-320.81 1380.85,-320.68"/>
</g>
<!-- Node48 -->
<g id="node41" class="node">
<title>Node48</title>
<g id="a_node41"><a xlink:title=" ">
<polygon fill="none" stroke="#bfbfbf" points="1464.5,-291.5 1464.5,-310.5 1605.5,-310.5 1605.5,-291.5 1464.5,-291.5"/>
<text text-anchor="middle" x="1535" y="-298.5" font-family="Helvetica,sans-Serif" font-size="10.00">G4UserSteppingAction.hh</text>
</a>
</g>
</g>
<!-- Node47&#45;&gt;Node48 -->
<g id="edge46" class="edge">
<title>Node47&#45;&gt;Node48</title>
<path fill="none" stroke="midnightblue" d="M1535,-347.08C1535,-340.01 1535,-329.86 1535,-320.99"/>
<polygon fill="midnightblue" stroke="midnightblue" points="1538.5,-320.75 1535,-310.75 1531.5,-320.75 1538.5,-320.75"/>
</g>
<!-- Node50 -->
<g id="node43" class="node">
<title>Node50</title>
<g id="a_node43"><a xlink:href="_o_m_sim_command_args_table_8hh.html" target="_top" xlink:title="Definition of the OMSimCommandArgsTable singleton class, which controls user args.">
<polygon fill="none" stroke="black" points="116,-235.5 116,-254.5 280,-254.5 280,-235.5 116,-235.5"/>
<text text-anchor="middle" x="198" y="-242.5" font-family="Helvetica,sans-Serif" font-size="10.00">OMSimCommandArgsTable.hh</text>
</a>
</g>
</g>
<!-- Node49&#45;&gt;Node50 -->
<g id="edge48" class="edge">
<title>Node49&#45;&gt;Node50</title>
<path fill="none" stroke="midnightblue" d="M198,-291.08C198,-284.01 198,-273.86 198,-264.99"/>
<polygon fill="midnightblue" stroke="midnightblue" points="201.5,-264.75 198,-254.75 194.5,-264.75 201.5,-264.75"/>
</g>
<!-- Node53 -->
<g id="node46" class="node">
<title>Node53</title>
<g id="a_node46"><a xlink:title=" ">
<polygon fill="none" stroke="#bfbfbf" points="0,-235.5 0,-254.5 98,-254.5 98,-235.5 0,-235.5"/>
<text text-anchor="middle" x="49" y="-242.5" font-family="Helvetica,sans-Serif" font-size="10.00">G4UImanager.hh</text>
</a>
</g>
</g>
<!-- Node49&#45;&gt;Node53 -->
<g id="edge53" class="edge">
<title>Node49&#45;&gt;Node53</title>
<path fill="none" stroke="midnightblue" d="M174.39,-291.44C149.54,-282.44 110.23,-268.19 82.25,-258.05"/>
<polygon fill="midnightblue" stroke="midnightblue" points="83.09,-254.63 72.5,-254.52 80.71,-261.21 83.09,-254.63"/>
</g>
<!-- Node50&#45;&gt;Node6 -->
<g id="edge49" class="edge">
<title>Node50&#45;&gt;Node6</title>
<path fill="none" stroke="midnightblue" d="M208.16,-235.42C217.89,-226.87 232.59,-213.01 243,-199 268.03,-165.32 289.36,-120.78 300.25,-96.21"/>
<polygon fill="midnightblue" stroke="midnightblue" points="303.6,-97.29 304.38,-86.72 297.18,-94.49 303.6,-97.29"/>
</g>
<!-- Node50&#45;&gt;Node32 -->
<g id="edge50" class="edge">
<title>Node50&#45;&gt;Node32</title>
<path fill="none" stroke="midnightblue" d="M224.3,-235.44C252.35,-226.32 296.94,-211.81 328.18,-201.65"/>
<polygon fill="midnightblue" stroke="midnightblue" points="329.39,-204.94 337.82,-198.52 327.23,-198.28 329.39,-204.94"/>
</g>
<!-- Node51 -->
<g id="node44" class="node">
<title>Node51</title>
<g id="a_node44"><a xlink:title=" ">
<polygon fill="none" stroke="#bfbfbf" points="64,-179.5 64,-198.5 148,-198.5 148,-179.5 64,-179.5"/>
<text text-anchor="middle" x="106" y="-186.5" font-family="Helvetica,sans-Serif" font-size="10.00">boost/any.hpp</text>
</a>
</g>
</g>
<!-- Node50&#45;&gt;Node51 -->
<g id="edge51" class="edge">
<title>Node50&#45;&gt;Node51</title>
<path fill="none" stroke="midnightblue" d="M183.22,-235.32C168.73,-226.82 146.43,-213.73 129.51,-203.8"/>
<polygon fill="midnightblue" stroke="midnightblue" points="131.14,-200.7 120.74,-198.65 127.6,-206.74 131.14,-200.7"/>
</g>
<!-- Node52 -->
<g id="node45" class="node">
<title>Node52</title>
<g id="a_node45"><a xlink:title=" ">
<polygon fill="none" stroke="#bfbfbf" points="166,-179.5 166,-198.5 234,-198.5 234,-179.5 166,-179.5"/>
<text text-anchor="middle" x="200" y="-186.5" font-family="Helvetica,sans-Serif" font-size="10.00">sys/time.h</text>
</a>
</g>
</g>
<!-- Node50&#45;&gt;Node52 -->
<g id="edge52" class="edge">
<title>Node50&#45;&gt;Node52</title>
<path fill="none" stroke="midnightblue" d="M198.33,-235.08C198.59,-228.01 198.97,-217.86 199.3,-208.99"/>
<polygon fill="midnightblue" stroke="midnightblue" points="202.8,-208.87 199.68,-198.75 195.81,-208.61 202.8,-208.87"/>
</g>
</g>
</svg>
