<?xml version="1.0" encoding="UTF-8" standalone="no"?>
<!DOCTYPE svg PUBLIC "-//W3C//DTD SVG 1.1//EN"
 "http://www.w3.org/Graphics/SVG/1.1/DTD/svg11.dtd">
<!-- Generated by graphviz version 2.43.0 (0)
 -->
<!-- Title: OMSimHitManager.hh Pages: 1 -->
<svg width="1349pt" height="252pt"
 viewBox="0.00 0.00 1349.16 252.00" xmlns="http://www.w3.org/2000/svg" xmlns:xlink="http://www.w3.org/1999/xlink">
<g id="graph0" class="graph" transform="scale(1 1) rotate(0) translate(4 248)">
<title>OMSimHitManager.hh</title>
<!-- Node1 -->
<g id="node1" class="node">
<title>Node1</title>
<g id="a_node1"><a xlink:title="Defines structures and classes related to optical module photon hit management.">
<polygon fill="#bfbfbf" stroke="black" points="938.66,-224.5 938.66,-243.5 1061.66,-243.5 1061.66,-224.5 938.66,-224.5"/>
<text text-anchor="middle" x="1000.16" y="-231.5" font-family="Helvetica,sans-Serif" font-size="10.00">OMSimHitManager.hh</text>
</a>
</g>
</g>
<!-- Node2 -->
<g id="node2" class="node">
<title>Node2</title>
<g id="a_node2"><a xlink:href="_o_m_sim_run_action_8hh_source.html" target="_top" xlink:title=" ">
<polygon fill="none" stroke="black" points="778.16,-168.5 778.16,-187.5 894.16,-187.5 894.16,-168.5 778.16,-168.5"/>
<text text-anchor="middle" x="836.16" y="-175.5" font-family="Helvetica,sans-Serif" font-size="10.00">OMSimRunAction.hh</text>
</a>
</g>
</g>
<!-- Node1&#45;&gt;Node2 -->
<g id="edge1" class="edge">
<title>Node1&#45;&gt;Node2</title>
<path fill="none" stroke="midnightblue" d="M964.64,-221.3C933.74,-211.13 889.69,-196.62 862.03,-187.52"/>
<polygon fill="midnightblue" stroke="midnightblue" points="963.58,-224.64 974.18,-224.44 965.77,-217.99 963.58,-224.64"/>
</g>
<!-- Node6 -->
<g id="node6" class="node">
<title>Node6</title>
<g id="a_node6"><a xlink:href="_o_m_sim__radioactive__decays_8cc.html" target="_top" xlink:title="Main of the radioactive decay study.">
<polygon fill="none" stroke="black" points="134.66,-0.5 134.66,-19.5 299.66,-19.5 299.66,-0.5 134.66,-0.5"/>
<text text-anchor="middle" x="217.16" y="-7.5" font-family="Helvetica,sans-Serif" font-size="10.00">OMSim_radioactive_decays.cc</text>
</a>
</g>
</g>
<!-- Node1&#45;&gt;Node6 -->
<g id="edge27" class="edge">
<title>Node1&#45;&gt;Node6</title>
<path fill="none" stroke="midnightblue" d="M928.59,-232.45C735.75,-229.87 209.81,-215.19 61.16,-132 25.23,-111.89 -17.71,-88.04 8.16,-56 24.19,-36.15 83.3,-24.64 134.58,-18.24"/>
<polygon fill="midnightblue" stroke="midnightblue" points="928.58,-235.95 938.62,-232.58 928.67,-228.95 928.58,-235.95"/>
</g>
<!-- Node7 -->
<g id="node7" class="node">
<title>Node7</title>
<g id="a_node7"><a xlink:href="_o_m_sim__supernova_8cc.html" target="_top" xlink:title="Main of the supernova study.">
<polygon fill="none" stroke="black" points="1011.16,-0.5 1011.16,-19.5 1133.16,-19.5 1133.16,-0.5 1011.16,-0.5"/>
<text text-anchor="middle" x="1072.16" y="-7.5" font-family="Helvetica,sans-Serif" font-size="10.00">OMSim_supernova.cc</text>
</a>
</g>
</g>
<!-- Node1&#45;&gt;Node7 -->
<g id="edge31" class="edge">
<title>Node1&#45;&gt;Node7</title>
<path fill="none" stroke="midnightblue" d="M1052.13,-221.08C1069.47,-214.36 1086.96,-203.97 1097.16,-188 1128.73,-138.55 1111.88,-112.79 1097.16,-56 1093.62,-42.33 1084.93,-28.39 1078.79,-19.73"/>
<polygon fill="midnightblue" stroke="midnightblue" points="1050.82,-217.83 1042.55,-224.45 1053.15,-224.44 1050.82,-217.83"/>
</g>
<!-- Node8 -->
<g id="node8" class="node">
<title>Node8</title>
<g id="a_node8"><a xlink:href="_o_m_sim_optical_module_8hh_source.html" target="_top" xlink:title=" ">
<polygon fill="none" stroke="black" points="336.66,-168.5 336.66,-187.5 473.66,-187.5 473.66,-168.5 336.66,-168.5"/>
<text text-anchor="middle" x="405.16" y="-175.5" font-family="Helvetica,sans-Serif" font-size="10.00">OMSimOpticalModule.hh</text>
</a>
</g>
</g>
<!-- Node1&#45;&gt;Node8 -->
<g id="edge7" class="edge">
<title>Node1&#45;&gt;Node8</title>
<path fill="none" stroke="midnightblue" d="M928.3,-226.48C812.81,-216 587.41,-195.54 473.93,-185.24"/>
<polygon fill="midnightblue" stroke="midnightblue" points="928.17,-229.98 938.45,-227.4 928.81,-223.01 928.17,-229.98"/>
</g>
<!-- Node20 -->
<g id="node20" class="node">
<title>Node20</title>
<g id="a_node20"><a xlink:href="_o_m_sim_effective_area_analyisis_8hh_source.html" target="_top" xlink:title=" ">
<polygon fill="none" stroke="black" points="912.16,-168.5 912.16,-187.5 1088.16,-187.5 1088.16,-168.5 912.16,-168.5"/>
<text text-anchor="middle" x="1000.16" y="-175.5" font-family="Helvetica,sans-Serif" font-size="10.00">OMSimEffectiveAreaAnalyisis.hh</text>
</a>
</g>
</g>
<!-- Node1&#45;&gt;Node20 -->
<g id="edge25" class="edge">
<title>Node1&#45;&gt;Node20</title>
<path fill="none" stroke="midnightblue" d="M1000.16,-213.8C1000.16,-204.91 1000.16,-194.78 1000.16,-187.75"/>
<polygon fill="midnightblue" stroke="midnightblue" points="996.66,-214.08 1000.16,-224.08 1003.66,-214.08 996.66,-214.08"/>
</g>
<!-- Node21 -->
<g id="node21" class="node">
<title>Node21</title>
<g id="a_node21"><a xlink:href="_o_m_sim_s_n_analysis_8hh_source.html" target="_top" xlink:title=" ">
<polygon fill="none" stroke="black" points="1144.16,-168.5 1144.16,-187.5 1266.16,-187.5 1266.16,-168.5 1144.16,-168.5"/>
<text text-anchor="middle" x="1205.16" y="-175.5" font-family="Helvetica,sans-Serif" font-size="10.00">OMSimSNAnalysis.hh</text>
</a>
</g>
</g>
<!-- Node1&#45;&gt;Node21 -->
<g id="edge28" class="edge">
<title>Node1&#45;&gt;Node21</title>
<path fill="none" stroke="midnightblue" d="M1042.57,-221.83C1081.28,-211.63 1137.65,-196.78 1172.83,-187.52"/>
<polygon fill="midnightblue" stroke="midnightblue" points="1041.42,-218.51 1032.64,-224.44 1043.21,-225.28 1041.42,-218.51"/>
</g>
<!-- Node22 -->
<g id="node22" class="node">
<title>Node22</title>
<g id="a_node22"><a xlink:href="_o_m_sim_s_n_analysis_8cc.html" target="_top" xlink:title="Analyze data and write output files.">
<polygon fill="none" stroke="black" points="1221.16,-112.5 1221.16,-131.5 1341.16,-131.5 1341.16,-112.5 1221.16,-112.5"/>
<text text-anchor="middle" x="1281.16" y="-119.5" font-family="Helvetica,sans-Serif" font-size="10.00">OMSimSNAnalysis.cc</text>
</a>
</g>
</g>
<!-- Node1&#45;&gt;Node22 -->
<g id="edge32" class="edge">
<title>Node1&#45;&gt;Node22</title>
<path fill="none" stroke="midnightblue" d="M1072.36,-230.9C1144.46,-227.17 1248.32,-216.8 1275.16,-188 1289.38,-172.75 1286.26,-145.84 1283.38,-131.91"/>
<polygon fill="midnightblue" stroke="midnightblue" points="1071.79,-227.42 1061.97,-231.4 1072.13,-234.42 1071.79,-227.42"/>
</g>
<!-- Node3 -->
<g id="node3" class="node">
<title>Node3</title>
<g id="a_node3"><a xlink:href="_o_m_sim_8hh.html" target="_top" xlink:title="Main simulation class for the Optical Module (OM) simulation. This file defines the OMSim class,...">
<polygon fill="none" stroke="black" points="844.66,-56.5 844.66,-75.5 911.66,-75.5 911.66,-56.5 844.66,-56.5"/>
<text text-anchor="middle" x="878.16" y="-63.5" font-family="Helvetica,sans-Serif" font-size="10.00">OMSim.hh</text>
</a>
</g>
</g>
<!-- Node2&#45;&gt;Node3 -->
<g id="edge2" class="edge">
<title>Node2&#45;&gt;Node3</title>
<path fill="none" stroke="midnightblue" d="M858.34,-162.16C867.88,-154.42 878.02,-144.05 883.16,-132 891.16,-113.26 885.44,-88.74 881.34,-75.83"/>
<polygon fill="midnightblue" stroke="midnightblue" points="856.12,-159.45 850.24,-168.26 860.33,-165.04 856.12,-159.45"/>
</g>
<!-- Node4 -->
<g id="node4" class="node">
<title>Node4</title>
<g id="a_node4"><a xlink:href="_o_m_sim_8cc.html" target="_top" xlink:title="Implementation of the OMSim class.">
<polygon fill="none" stroke="black" points="724.66,-0.5 724.66,-19.5 789.66,-19.5 789.66,-0.5 724.66,-0.5"/>
<text text-anchor="middle" x="757.16" y="-7.5" font-family="Helvetica,sans-Serif" font-size="10.00">OMSim.cc</text>
</a>
</g>
</g>
<!-- Node3&#45;&gt;Node4 -->
<g id="edge3" class="edge">
<title>Node3&#45;&gt;Node4</title>
<path fill="none" stroke="midnightblue" d="M849.86,-52.37C827.2,-42.26 796.04,-28.35 776.24,-19.52"/>
<polygon fill="midnightblue" stroke="midnightblue" points="848.43,-55.56 858.99,-56.44 851.28,-49.17 848.43,-55.56"/>
</g>
<!-- Node5 -->
<g id="node5" class="node">
<title>Node5</title>
<g id="a_node5"><a xlink:href="_o_m_sim__effective__area_8cc.html" target="_top" xlink:title="Main for the calculation of effective areas.">
<polygon fill="none" stroke="black" points="808.16,-0.5 808.16,-19.5 948.16,-19.5 948.16,-0.5 808.16,-0.5"/>
<text text-anchor="middle" x="878.16" y="-7.5" font-family="Helvetica,sans-Serif" font-size="10.00">OMSim_effective_area.cc</text>
</a>
</g>
</g>
<!-- Node3&#45;&gt;Node5 -->
<g id="edge4" class="edge">
<title>Node3&#45;&gt;Node5</title>
<path fill="none" stroke="midnightblue" d="M878.16,-45.8C878.16,-36.91 878.16,-26.78 878.16,-19.75"/>
<polygon fill="midnightblue" stroke="midnightblue" points="874.66,-46.08 878.16,-56.08 881.66,-46.08 874.66,-46.08"/>
</g>
<!-- Node3&#45;&gt;Node6 -->
<g id="edge5" class="edge">
<title>Node3&#45;&gt;Node6</title>
<path fill="none" stroke="midnightblue" d="M834.47,-56.1C637.27,-28.89 416.96,-17.85 300,-13.52"/>
<polygon fill="midnightblue" stroke="midnightblue" points="834.05,-59.58 844.44,-57.5 835.02,-52.65 834.05,-59.58"/>
</g>
<!-- Node3&#45;&gt;Node7 -->
<g id="edge6" class="edge">
<title>Node3&#45;&gt;Node7</title>
<path fill="none" stroke="midnightblue" d="M918.76,-53.7C955.38,-43.51 1008.42,-28.74 1041.57,-19.52"/>
<polygon fill="midnightblue" stroke="midnightblue" points="917.6,-50.39 908.9,-56.44 919.47,-57.13 917.6,-50.39"/>
</g>
<!-- Node9 -->
<g id="node9" class="node">
<title>Node9</title>
<g id="a_node9"><a xlink:href="_o_m_sim_d_e_g_g_8hh.html" target="_top" xlink:title="Construction of the DEGG class. From DOUMEKI.">
<polygon fill="none" stroke="black" points="471.66,-112.5 471.66,-131.5 566.66,-131.5 566.66,-112.5 471.66,-112.5"/>
<text text-anchor="middle" x="519.16" y="-119.5" font-family="Helvetica,sans-Serif" font-size="10.00">OMSimDEGG.hh</text>
</a>
</g>
</g>
<!-- Node8&#45;&gt;Node9 -->
<g id="edge8" class="edge">
<title>Node8&#45;&gt;Node9</title>
<path fill="none" stroke="midnightblue" d="M432.4,-164.1C453.7,-154.01 482.7,-140.27 501.18,-131.52"/>
<polygon fill="midnightblue" stroke="midnightblue" points="430.76,-161 423.23,-168.44 433.76,-167.33 430.76,-161"/>
</g>
<!-- Node10 -->
<g id="node10" class="node">
<title>Node10</title>
<g id="a_node10"><a xlink:href="_o_m_sim_detector_construction_8hh_source.html" target="_top" xlink:title=" ">
<polygon fill="none" stroke="black" points="704.16,-112.5 704.16,-131.5 874.16,-131.5 874.16,-112.5 704.16,-112.5"/>
<text text-anchor="middle" x="789.16" y="-119.5" font-family="Helvetica,sans-Serif" font-size="10.00">OMSimDetectorConstruction.hh</text>
</a>
</g>
</g>
<!-- Node8&#45;&gt;Node10 -->
<g id="edge9" class="edge">
<title>Node8&#45;&gt;Node10</title>
<path fill="none" stroke="midnightblue" d="M475.97,-167.04C548.5,-156.84 660.05,-141.16 728.6,-131.52"/>
<polygon fill="midnightblue" stroke="midnightblue" points="475.42,-163.59 466.01,-168.44 476.4,-170.52 475.42,-163.59"/>
</g>
<!-- Node12 -->
<g id="node12" class="node">
<title>Node12</title>
<g id="a_node12"><a xlink:href="_o_m_sim_rad_decays_detector_8hh.html" target="_top" xlink:title="Defines the OMSimRadDecaysDetector class for the radioactive decays simulation.">
<polygon fill="none" stroke="black" points="274.66,-56.5 274.66,-75.5 437.66,-75.5 437.66,-56.5 274.66,-56.5"/>
<text text-anchor="middle" x="356.16" y="-63.5" font-family="Helvetica,sans-Serif" font-size="10.00">OMSimRadDecaysDetector.hh</text>
</a>
</g>
</g>
<!-- Node8&#45;&gt;Node12 -->
<g id="edge24" class="edge">
<title>Node8&#45;&gt;Node12</title>
<path fill="none" stroke="midnightblue" d="M378.03,-163.32C366.26,-155.82 353.68,-145.32 347.16,-132 338.14,-113.58 346.26,-88.93 351.87,-75.92"/>
<polygon fill="midnightblue" stroke="midnightblue" points="376.38,-166.41 386.77,-168.47 379.93,-160.38 376.38,-166.41"/>
</g>
<!-- Node14 -->
<g id="node14" class="node">
<title>Node14</title>
<g id="a_node14"><a xlink:href="_o_m_sim_l_o_m16_8hh.html" target="_top" xlink:title="Construction of LOM16.">
<polygon fill="none" stroke="black" points="584.66,-112.5 584.66,-131.5 685.66,-131.5 685.66,-112.5 584.66,-112.5"/>
<text text-anchor="middle" x="635.16" y="-119.5" font-family="Helvetica,sans-Serif" font-size="10.00">OMSimLOM16.hh</text>
</a>
</g>
</g>
<!-- Node8&#45;&gt;Node14 -->
<g id="edge17" class="edge">
<title>Node8&#45;&gt;Node14</title>
<path fill="none" stroke="midnightblue" d="M451.36,-166.15C494.82,-155.95 559,-140.88 598.89,-131.52"/>
<polygon fill="midnightblue" stroke="midnightblue" points="450.54,-162.75 441.61,-168.44 452.14,-169.57 450.54,-162.75"/>
</g>
<!-- Node15 -->
<g id="node15" class="node">
<title>Node15</title>
<g id="a_node15"><a xlink:href="_o_m_sim_l_o_m18_8hh.html" target="_top" xlink:title="Construction of LOM18.">
<polygon fill="none" stroke="black" points="80.66,-112.5 80.66,-131.5 181.66,-131.5 181.66,-112.5 80.66,-112.5"/>
<text text-anchor="middle" x="131.16" y="-119.5" font-family="Helvetica,sans-Serif" font-size="10.00">OMSimLOM18.hh</text>
</a>
</g>
</g>
<!-- Node8&#45;&gt;Node15 -->
<g id="edge18" class="edge">
<title>Node8&#45;&gt;Node15</title>
<path fill="none" stroke="midnightblue" d="M351.75,-166.47C299.97,-156.27 222.39,-140.98 174.37,-131.52"/>
<polygon fill="midnightblue" stroke="midnightblue" points="351.26,-169.94 361.75,-168.44 352.61,-163.08 351.26,-169.94"/>
</g>
<!-- Node17 -->
<g id="node17" class="node">
<title>Node17</title>
<g id="a_node17"><a xlink:href="_o_m_sim_m_d_o_m_8hh.html" target="_top" xlink:title="Construction of mDOM.">
<polygon fill="none" stroke="black" points="200.16,-112.5 200.16,-131.5 300.16,-131.5 300.16,-112.5 200.16,-112.5"/>
<text text-anchor="middle" x="250.16" y="-119.5" font-family="Helvetica,sans-Serif" font-size="10.00">OMSimMDOM.hh</text>
</a>
</g>
</g>
<!-- Node8&#45;&gt;Node17 -->
<g id="edge20" class="edge">
<title>Node8&#45;&gt;Node17</title>
<path fill="none" stroke="midnightblue" d="M370.83,-165.04C341.67,-154.88 300.52,-140.55 274.61,-131.52"/>
<polygon fill="midnightblue" stroke="midnightblue" points="370.01,-168.46 380.6,-168.44 372.31,-161.85 370.01,-168.46"/>
</g>
<!-- Node18 -->
<g id="node18" class="node">
<title>Node18</title>
<g id="a_node18"><a xlink:href="_o_m_sim_p_d_o_m_8hh.html" target="_top" xlink:title="Implementation of the pDOM/Gen1 DOM class.">
<polygon fill="none" stroke="black" points="356.66,-112.5 356.66,-131.5 453.66,-131.5 453.66,-112.5 356.66,-112.5"/>
<text text-anchor="middle" x="405.16" y="-119.5" font-family="Helvetica,sans-Serif" font-size="10.00">OMSimPDOM.hh</text>
</a>
</g>
</g>
<!-- Node8&#45;&gt;Node18 -->
<g id="edge21" class="edge">
<title>Node8&#45;&gt;Node18</title>
<path fill="none" stroke="midnightblue" d="M405.16,-157.8C405.16,-148.91 405.16,-138.78 405.16,-131.75"/>
<polygon fill="midnightblue" stroke="midnightblue" points="401.66,-158.08 405.16,-168.08 408.66,-158.08 401.66,-158.08"/>
</g>
<!-- Node19 -->
<g id="node19" class="node">
<title>Node19</title>
<g id="a_node19"><a xlink:href="_o_m_sim_decays_g_p_s_8hh.html" target="_top" xlink:title="Defines the OMSimDecaysGPS class for the radioactive decays simulation.">
<polygon fill="none" stroke="black" points="17.16,-56.5 17.16,-75.5 139.16,-75.5 139.16,-56.5 17.16,-56.5"/>
<text text-anchor="middle" x="78.16" y="-63.5" font-family="Helvetica,sans-Serif" font-size="10.00">OMSimDecaysGPS.hh</text>
</a>
</g>
</g>
<!-- Node8&#45;&gt;Node19 -->
<g id="edge22" class="edge">
<title>Node8&#45;&gt;Node19</title>
<path fill="none" stroke="midnightblue" d="M326.27,-177.83C238.16,-176.87 103.62,-169.13 71.16,-132 57.42,-116.28 67.05,-89.58 73.55,-75.8"/>
<polygon fill="midnightblue" stroke="midnightblue" points="326.48,-181.33 336.5,-177.91 326.53,-174.33 326.48,-181.33"/>
</g>
<!-- Node10&#45;&gt;Node3 -->
<g id="edge10" class="edge">
<title>Node10&#45;&gt;Node3</title>
<path fill="none" stroke="midnightblue" d="M812.4,-106.9C828.72,-97 850.03,-84.07 863.9,-75.65"/>
<polygon fill="midnightblue" stroke="midnightblue" points="810.19,-104.14 803.46,-112.32 813.83,-110.13 810.19,-104.14"/>
</g>
<!-- Node11 -->
<g id="node11" class="node">
<title>Node11</title>
<g id="a_node11"><a xlink:href="_o_m_sim_effective_area_detector_8hh.html" target="_top" xlink:title="Defines the OMSimEffectiveAreaDetector class for effective area simulation detector construction.">
<polygon fill="none" stroke="black" points="653.66,-56.5 653.66,-75.5 826.66,-75.5 826.66,-56.5 653.66,-56.5"/>
<text text-anchor="middle" x="740.16" y="-63.5" font-family="Helvetica,sans-Serif" font-size="10.00">OMSimEffectiveAreaDetector.hh</text>
</a>
</g>
</g>
<!-- Node10&#45;&gt;Node11 -->
<g id="edge11" class="edge">
<title>Node10&#45;&gt;Node11</title>
<path fill="none" stroke="midnightblue" d="M774.13,-104.43C765.54,-94.97 755.12,-83.48 748.1,-75.75"/>
<polygon fill="midnightblue" stroke="midnightblue" points="771.76,-107.03 781.07,-112.08 776.94,-102.33 771.76,-107.03"/>
</g>
<!-- Node10&#45;&gt;Node12 -->
<g id="edge13" class="edge">
<title>Node10&#45;&gt;Node12</title>
<path fill="none" stroke="midnightblue" d="M710.56,-111.2C628.82,-101 502.15,-85.21 424.45,-75.52"/>
<polygon fill="midnightblue" stroke="midnightblue" points="710.2,-114.68 720.55,-112.44 711.06,-107.73 710.2,-114.68"/>
</g>
<!-- Node13 -->
<g id="node13" class="node">
<title>Node13</title>
<g id="a_node13"><a xlink:href="_o_m_sim_s_ndetector_8hh_source.html" target="_top" xlink:title=" ">
<polygon fill="none" stroke="black" points="968.16,-56.5 968.16,-75.5 1088.16,-75.5 1088.16,-56.5 968.16,-56.5"/>
<text text-anchor="middle" x="1028.16" y="-63.5" font-family="Helvetica,sans-Serif" font-size="10.00">OMSimSNdetector.hh</text>
</a>
</g>
</g>
<!-- Node10&#45;&gt;Node13 -->
<g id="edge15" class="edge">
<title>Node10&#45;&gt;Node13</title>
<path fill="none" stroke="midnightblue" d="M836.89,-110.22C882.05,-100.01 948.94,-84.9 990.47,-75.52"/>
<polygon fill="midnightblue" stroke="midnightblue" points="836.01,-106.83 827.03,-112.44 837.56,-113.65 836.01,-106.83"/>
</g>
<!-- Node11&#45;&gt;Node5 -->
<g id="edge12" class="edge">
<title>Node11&#45;&gt;Node5</title>
<path fill="none" stroke="midnightblue" d="M771.41,-52.77C797.33,-42.63 833.52,-28.47 856.4,-19.52"/>
<polygon fill="midnightblue" stroke="midnightblue" points="770.07,-49.54 762.03,-56.44 772.62,-56.06 770.07,-49.54"/>
</g>
<!-- Node12&#45;&gt;Node6 -->
<g id="edge14" class="edge">
<title>Node12&#45;&gt;Node6</title>
<path fill="none" stroke="midnightblue" d="M324.69,-52.77C298.58,-42.63 262.12,-28.47 239.08,-19.52"/>
<polygon fill="midnightblue" stroke="midnightblue" points="323.55,-56.08 334.14,-56.44 326.08,-49.56 323.55,-56.08"/>
</g>
<!-- Node13&#45;&gt;Node7 -->
<g id="edge16" class="edge">
<title>Node13&#45;&gt;Node7</title>
<path fill="none" stroke="midnightblue" d="M1041.9,-48.14C1049.56,-38.74 1058.8,-27.4 1065.03,-19.75"/>
<polygon fill="midnightblue" stroke="midnightblue" points="1039.03,-46.12 1035.43,-56.08 1044.46,-50.54 1039.03,-46.12"/>
</g>
<!-- Node16 -->
<g id="node16" class="node">
<title>Node16</title>
<g id="a_node16"><a xlink:href="_o_m_sim_l_o_m18_8cc.html" target="_top" xlink:title=" ">
<polygon fill="none" stroke="black" points="157.66,-56.5 157.66,-75.5 256.66,-75.5 256.66,-56.5 157.66,-56.5"/>
<text text-anchor="middle" x="207.16" y="-63.5" font-family="Helvetica,sans-Serif" font-size="10.00">OMSimLOM18.cc</text>
</a>
</g>
</g>
<!-- Node15&#45;&gt;Node16 -->
<g id="edge19" class="edge">
<title>Node15&#45;&gt;Node16</title>
<path fill="none" stroke="midnightblue" d="M151.74,-106.38C165.47,-96.62 183.09,-84.11 194.73,-75.83"/>
<polygon fill="midnightblue" stroke="midnightblue" points="149.5,-103.68 143.37,-112.32 153.55,-109.38 149.5,-103.68"/>
</g>
<!-- Node19&#45;&gt;Node6 -->
<g id="edge23" class="edge">
<title>Node19&#45;&gt;Node6</title>
<path fill="none" stroke="midnightblue" d="M109.64,-52.77C135.75,-42.63 172.2,-28.47 195.24,-19.52"/>
<polygon fill="midnightblue" stroke="midnightblue" points="108.24,-49.56 100.19,-56.44 110.78,-56.08 108.24,-49.56"/>
</g>
<!-- Node20&#45;&gt;Node5 -->
<g id="edge26" class="edge">
<title>Node20&#45;&gt;Node5</title>
<path fill="none" stroke="midnightblue" d="M990.02,-159.76C975.6,-135.72 947.84,-91.11 920.16,-56 909.58,-42.57 895.82,-28.35 886.99,-19.57"/>
<polygon fill="midnightblue" stroke="midnightblue" points="987.07,-161.64 995.19,-168.45 993.09,-158.07 987.07,-161.64"/>
</g>
<!-- Node21&#45;&gt;Node7 -->
<g id="edge29" class="edge">
<title>Node21&#45;&gt;Node7</title>
<path fill="none" stroke="midnightblue" d="M1196.64,-159.1C1184.25,-134.23 1159.53,-88.63 1130.16,-56 1117.03,-41.41 1098.71,-28.09 1086.19,-19.79"/>
<polygon fill="midnightblue" stroke="midnightblue" points="1193.64,-160.93 1201.17,-168.38 1199.93,-157.86 1193.64,-160.93"/>
</g>
<!-- Node21&#45;&gt;Node22 -->
<g id="edge30" class="edge">
<title>Node21&#45;&gt;Node22</title>
<path fill="none" stroke="midnightblue" d="M1225.74,-162.38C1239.47,-152.62 1257.09,-140.11 1268.73,-131.83"/>
<polygon fill="midnightblue" stroke="midnightblue" points="1223.5,-159.68 1217.37,-168.32 1227.55,-165.38 1223.5,-159.68"/>
</g>
</g>
</svg>
