<?xml version="1.0" encoding="UTF-8" standalone="no"?>
<!DOCTYPE svg PUBLIC "-//W3C//DTD SVG 1.1//EN"
 "http://www.w3.org/Graphics/SVG/1.1/DTD/svg11.dtd">
<!-- Generated by graphviz version 2.43.0 (0)
 -->
<!-- Title: OMSimPMTConstruction.hh Pages: 1 -->
<svg width="1676pt" height="275pt"
 viewBox="0.00 0.00 1676.00 274.92" xmlns="http://www.w3.org/2000/svg" xmlns:xlink="http://www.w3.org/1999/xlink">
<g id="graph0" class="graph" transform="scale(1 1) rotate(0) translate(4 270.92)">
<title>OMSimPMTConstruction.hh</title>
<!-- Node1 -->
<g id="node1" class="node">
<title>Node1</title>
<g id="a_node1"><a xlink:title="Construction of the PMTs.">
<polygon fill="#bfbfbf" stroke="black" points="1391,-246.5 1391,-265.5 1540,-265.5 1540,-246.5 1391,-246.5"/>
<text text-anchor="middle" x="1465.5" y="-253.5" font-family="Helvetica,sans-Serif" font-size="10.00">OMSimPMTConstruction.hh</text>
</a>
</g>
</g>
<!-- Node1&#45;&gt;Node1 -->
<g id="edge20" class="edge">
<title>Node1&#45;&gt;Node1</title>
<path fill="none" stroke="midnightblue" d="M1504.95,-265.53C1531.76,-268.31 1558,-265.13 1558,-256 1558,-248.01 1537.91,-244.58 1514.93,-245.71"/>
<polygon fill="midnightblue" stroke="midnightblue" points="1514.65,-242.22 1504.95,-246.47 1515.19,-249.2 1514.65,-242.22"/>
</g>
<!-- Node2 -->
<g id="node2" class="node">
<title>Node2</title>
<g id="a_node2"><a xlink:href="abc_detector_component_8hh.html" target="_top" xlink:title="Provides helper base class abcDetectorComponent for constructing and managing detector components in ...">
<polygon fill="none" stroke="black" points="937,-190.5 937,-209.5 1084,-209.5 1084,-190.5 937,-190.5"/>
<text text-anchor="middle" x="1010.5" y="-197.5" font-family="Helvetica,sans-Serif" font-size="10.00">abcDetectorComponent.hh</text>
</a>
</g>
</g>
<!-- Node1&#45;&gt;Node2 -->
<g id="edge1" class="edge">
<title>Node1&#45;&gt;Node2</title>
<path fill="none" stroke="midnightblue" d="M1393.65,-246.47C1311.75,-236.75 1178.15,-220.9 1092.31,-210.71"/>
<polygon fill="midnightblue" stroke="midnightblue" points="1092.69,-207.23 1082.34,-209.53 1091.86,-214.18 1092.69,-207.23"/>
</g>
<!-- Node21 -->
<g id="node21" class="node">
<title>Node21</title>
<g id="a_node21"><a xlink:href="_o_m_sim_p_m_t_response_8hh.html" target="_top" xlink:title="Simulation of PMT response.">
<polygon fill="none" stroke="black" points="1331,-190.5 1331,-209.5 1466,-209.5 1466,-190.5 1331,-190.5"/>
<text text-anchor="middle" x="1398.5" y="-197.5" font-family="Helvetica,sans-Serif" font-size="10.00">OMSimPMTResponse.hh</text>
</a>
</g>
</g>
<!-- Node1&#45;&gt;Node21 -->
<g id="edge21" class="edge">
<title>Node1&#45;&gt;Node21</title>
<path fill="none" stroke="midnightblue" d="M1454.74,-246.32C1444.73,-238.26 1429.61,-226.08 1417.57,-216.37"/>
<polygon fill="midnightblue" stroke="midnightblue" points="1419.44,-213.38 1409.46,-209.83 1415.05,-218.83 1419.44,-213.38"/>
</g>
<!-- Node26 -->
<g id="node26" class="node">
<title>Node26</title>
<g id="a_node26"><a xlink:title=" ">
<polygon fill="none" stroke="#bfbfbf" points="1484.5,-190.5 1484.5,-209.5 1582.5,-209.5 1582.5,-190.5 1484.5,-190.5"/>
<text text-anchor="middle" x="1533.5" y="-197.5" font-family="Helvetica,sans-Serif" font-size="10.00">G4UnionSolid.hh</text>
</a>
</g>
</g>
<!-- Node1&#45;&gt;Node26 -->
<g id="edge27" class="edge">
<title>Node1&#45;&gt;Node26</title>
<path fill="none" stroke="midnightblue" d="M1476.43,-246.32C1486.67,-238.18 1502.22,-225.84 1514.5,-216.09"/>
<polygon fill="midnightblue" stroke="midnightblue" points="1516.72,-218.79 1522.38,-209.83 1512.37,-213.31 1516.72,-218.79"/>
</g>
<!-- Node27 -->
<g id="node27" class="node">
<title>Node27</title>
<g id="a_node27"><a xlink:title=" ">
<polygon fill="none" stroke="#bfbfbf" points="1601,-190.5 1601,-209.5 1668,-209.5 1668,-190.5 1601,-190.5"/>
<text text-anchor="middle" x="1634.5" y="-197.5" font-family="Helvetica,sans-Serif" font-size="10.00">G4Tubs.hh</text>
</a>
</g>
</g>
<!-- Node1&#45;&gt;Node27 -->
<g id="edge28" class="edge">
<title>Node1&#45;&gt;Node27</title>
<path fill="none" stroke="midnightblue" d="M1492.28,-246.44C1520.83,-237.32 1566.23,-222.81 1598.04,-212.65"/>
<polygon fill="midnightblue" stroke="midnightblue" points="1599.39,-215.89 1607.85,-209.52 1597.26,-209.23 1599.39,-215.89"/>
</g>
<!-- Node3 -->
<g id="node3" class="node">
<title>Node3</title>
<g id="a_node3"><a xlink:href="_o_m_sim_input_data_8hh.html" target="_top" xlink:title="Definition of ParameterTable and InputDataManager.">
<polygon fill="none" stroke="black" points="630,-134.5 630,-153.5 745,-153.5 745,-134.5 630,-134.5"/>
<text text-anchor="middle" x="687.5" y="-141.5" font-family="Helvetica,sans-Serif" font-size="10.00">OMSimInputData.hh</text>
</a>
</g>
</g>
<!-- Node2&#45;&gt;Node3 -->
<g id="edge2" class="edge">
<title>Node2&#45;&gt;Node3</title>
<path fill="none" stroke="midnightblue" d="M959.32,-190.44C902.03,-180.87 809.26,-165.36 748.31,-155.17"/>
<polygon fill="midnightblue" stroke="midnightblue" points="748.88,-151.71 738.44,-153.52 747.73,-158.62 748.88,-151.71"/>
</g>
<!-- Node17 -->
<g id="node17" class="node">
<title>Node17</title>
<g id="a_node17"><a xlink:title=" ">
<polygon fill="none" stroke="#bfbfbf" points="763,-134.5 763,-153.5 870,-153.5 870,-134.5 763,-134.5"/>
<text text-anchor="middle" x="816.5" y="-141.5" font-family="Helvetica,sans-Serif" font-size="10.00">G4Transform3D.hh</text>
</a>
</g>
</g>
<!-- Node2&#45;&gt;Node17 -->
<g id="edge16" class="edge">
<title>Node2&#45;&gt;Node17</title>
<path fill="none" stroke="midnightblue" d="M979.76,-190.44C946.56,-181.2 893.51,-166.44 856.94,-156.26"/>
<polygon fill="midnightblue" stroke="midnightblue" points="857.67,-152.83 847.1,-153.52 855.79,-159.57 857.67,-152.83"/>
</g>
<!-- Node18 -->
<g id="node18" class="node">
<title>Node18</title>
<g id="a_node18"><a xlink:title=" ">
<polygon fill="none" stroke="#bfbfbf" points="888.5,-134.5 888.5,-153.5 996.5,-153.5 996.5,-134.5 888.5,-134.5"/>
<text text-anchor="middle" x="942.5" y="-141.5" font-family="Helvetica,sans-Serif" font-size="10.00">G4VisAttributes.hh</text>
</a>
</g>
</g>
<!-- Node2&#45;&gt;Node18 -->
<g id="edge17" class="edge">
<title>Node2&#45;&gt;Node18</title>
<path fill="none" stroke="midnightblue" d="M999.57,-190.32C989.33,-182.18 973.78,-169.84 961.5,-160.09"/>
<polygon fill="midnightblue" stroke="midnightblue" points="963.63,-157.31 953.62,-153.83 959.28,-162.79 963.63,-157.31"/>
</g>
<!-- Node19 -->
<g id="node19" class="node">
<title>Node19</title>
<g id="a_node19"><a xlink:title=" ">
<polygon fill="none" stroke="#bfbfbf" points="1015,-134.5 1015,-153.5 1140,-153.5 1140,-134.5 1015,-134.5"/>
<text text-anchor="middle" x="1077.5" y="-141.5" font-family="Helvetica,sans-Serif" font-size="10.00">G4SubtractionSolid.hh</text>
</a>
</g>
</g>
<!-- Node2&#45;&gt;Node19 -->
<g id="edge18" class="edge">
<title>Node2&#45;&gt;Node19</title>
<path fill="none" stroke="midnightblue" d="M1021.26,-190.32C1031.27,-182.26 1046.39,-170.08 1058.43,-160.37"/>
<polygon fill="midnightblue" stroke="midnightblue" points="1060.95,-162.83 1066.54,-153.83 1056.56,-157.38 1060.95,-162.83"/>
</g>
<!-- Node20 -->
<g id="node20" class="node">
<title>Node20</title>
<g id="a_node20"><a xlink:title=" ">
<polygon fill="none" stroke="#bfbfbf" points="1158.5,-134.5 1158.5,-153.5 1268.5,-153.5 1268.5,-134.5 1158.5,-134.5"/>
<text text-anchor="middle" x="1213.5" y="-141.5" font-family="Helvetica,sans-Serif" font-size="10.00">G4PVPlacement.hh</text>
</a>
</g>
</g>
<!-- Node2&#45;&gt;Node20 -->
<g id="edge19" class="edge">
<title>Node2&#45;&gt;Node20</title>
<path fill="none" stroke="midnightblue" d="M1042.67,-190.44C1077.56,-181.16 1133.39,-166.31 1171.67,-156.13"/>
<polygon fill="midnightblue" stroke="midnightblue" points="1172.72,-159.47 1181.48,-153.52 1170.92,-152.7 1172.72,-159.47"/>
</g>
<!-- Node4 -->
<g id="node4" class="node">
<title>Node4</title>
<g id="a_node4"><a xlink:href="_o_m_sim_logger_8hh_source.html" target="_top" xlink:title=" ">
<polygon fill="none" stroke="black" points="220,-73 220,-92 319,-92 319,-73 220,-73"/>
<text text-anchor="middle" x="269.5" y="-80" font-family="Helvetica,sans-Serif" font-size="10.00">OMSimLogger.hh</text>
</a>
</g>
</g>
<!-- Node3&#45;&gt;Node4 -->
<g id="edge3" class="edge">
<title>Node3&#45;&gt;Node4</title>
<path fill="none" stroke="midnightblue" d="M629.82,-134.79C550.67,-123.52 409.13,-103.38 329.03,-91.97"/>
<polygon fill="midnightblue" stroke="midnightblue" points="329.49,-88.5 319.1,-90.56 328.5,-95.43 329.49,-88.5"/>
</g>
<!-- Node9 -->
<g id="node9" class="node">
<title>Node9</title>
<g id="a_node9"><a xlink:href="_o_m_sim_op_boundary_process_8hh_source.html" target="_top" xlink:title=" ">
<polygon fill="none" stroke="black" points="605.5,-73 605.5,-92 769.5,-92 769.5,-73 605.5,-73"/>
<text text-anchor="middle" x="687.5" y="-80" font-family="Helvetica,sans-Serif" font-size="10.00">OMSimOpBoundaryProcess.hh</text>
</a>
</g>
</g>
<!-- Node3&#45;&gt;Node9 -->
<g id="edge8" class="edge">
<title>Node3&#45;&gt;Node9</title>
<path fill="none" stroke="midnightblue" d="M687.5,-134.48C687.5,-126.08 687.5,-112.98 687.5,-102.16"/>
<polygon fill="midnightblue" stroke="midnightblue" points="691,-102.01 687.5,-92.01 684,-102.01 691,-102.01"/>
</g>
<!-- Node15 -->
<g id="node15" class="node">
<title>Node15</title>
<g id="a_node15"><a xlink:title=" ">
<polygon fill="none" stroke="#bfbfbf" points="1078,-73 1078,-92 1197,-92 1197,-73 1078,-73"/>
<text text-anchor="middle" x="1137.5" y="-80" font-family="Helvetica,sans-Serif" font-size="10.00">G4SystemOfUnits.hh</text>
</a>
</g>
</g>
<!-- Node3&#45;&gt;Node15 -->
<g id="edge14" class="edge">
<title>Node3&#45;&gt;Node15</title>
<path fill="none" stroke="midnightblue" d="M745.09,-135.13C747.93,-134.75 750.75,-134.37 753.5,-134 863.36,-119.29 990.97,-102.58 1067.9,-92.55"/>
<polygon fill="midnightblue" stroke="midnightblue" points="1068.49,-96 1077.96,-91.24 1067.59,-89.06 1068.49,-96"/>
</g>
<!-- Node16 -->
<g id="node16" class="node">
<title>Node16</title>
<g id="a_node16"><a xlink:title=" ">
<polygon fill="none" stroke="#bfbfbf" points="788,-67.5 788,-97.5 901,-97.5 901,-67.5 788,-67.5"/>
<text text-anchor="start" x="796" y="-85.5" font-family="Helvetica,sans-Serif" font-size="10.00">boost/property_tree</text>
<text text-anchor="middle" x="844.5" y="-74.5" font-family="Helvetica,sans-Serif" font-size="10.00">/json_parser.hpp</text>
</a>
</g>
</g>
<!-- Node3&#45;&gt;Node16 -->
<g id="edge15" class="edge">
<title>Node3&#45;&gt;Node16</title>
<path fill="none" stroke="midnightblue" d="M709.99,-134.48C732.85,-125.81 768.91,-112.15 797.95,-101.14"/>
<polygon fill="midnightblue" stroke="midnightblue" points="799.39,-104.34 807.5,-97.52 796.91,-97.79 799.39,-104.34"/>
</g>
<!-- Node5 -->
<g id="node5" class="node">
<title>Node5</title>
<g id="a_node5"><a xlink:title=" ">
<polygon fill="none" stroke="#bfbfbf" points="0,-6 0,-25 93,-25 93,-6 0,-6"/>
<text text-anchor="middle" x="46.5" y="-13" font-family="Helvetica,sans-Serif" font-size="10.00">spdlog/spdlog.h</text>
</a>
</g>
</g>
<!-- Node4&#45;&gt;Node5 -->
<g id="edge4" class="edge">
<title>Node4&#45;&gt;Node5</title>
<path fill="none" stroke="midnightblue" d="M239.89,-72.87C200.21,-61.3 129.69,-40.75 85.66,-27.91"/>
<polygon fill="midnightblue" stroke="midnightblue" points="86.46,-24.5 75.88,-25.06 84.5,-31.22 86.46,-24.5"/>
</g>
<!-- Node6 -->
<g id="node6" class="node">
<title>Node6</title>
<g id="a_node6"><a xlink:title=" ">
<polygon fill="none" stroke="#bfbfbf" points="111,-0.5 111,-30.5 222,-30.5 222,-0.5 111,-0.5"/>
<text text-anchor="start" x="119" y="-18.5" font-family="Helvetica,sans-Serif" font-size="10.00">spdlog/sinks/stdout</text>
<text text-anchor="middle" x="166.5" y="-7.5" font-family="Helvetica,sans-Serif" font-size="10.00">_color_sinks.h</text>
</a>
</g>
</g>
<!-- Node4&#45;&gt;Node6 -->
<g id="edge5" class="edge">
<title>Node4&#45;&gt;Node6</title>
<path fill="none" stroke="midnightblue" d="M255.61,-72.73C240.75,-63.36 216.71,-48.19 197.35,-35.97"/>
<polygon fill="midnightblue" stroke="midnightblue" points="199.15,-32.97 188.83,-30.59 195.41,-38.89 199.15,-32.97"/>
</g>
<!-- Node7 -->
<g id="node7" class="node">
<title>Node7</title>
<g id="a_node7"><a xlink:title=" ">
<polygon fill="none" stroke="#bfbfbf" points="240.5,-6 240.5,-25 298.5,-25 298.5,-6 240.5,-6"/>
<text text-anchor="middle" x="269.5" y="-13" font-family="Helvetica,sans-Serif" font-size="10.00">memory</text>
</a>
</g>
</g>
<!-- Node4&#45;&gt;Node7 -->
<g id="edge6" class="edge">
<title>Node4&#45;&gt;Node7</title>
<path fill="none" stroke="midnightblue" d="M269.5,-72.73C269.5,-63.18 269.5,-47.62 269.5,-35.28"/>
<polygon fill="midnightblue" stroke="midnightblue" points="273,-35.13 269.5,-25.13 266,-35.13 273,-35.13"/>
</g>
<!-- Node8 -->
<g id="node8" class="node">
<title>Node8</title>
<g id="a_node8"><a xlink:title=" ">
<polygon fill="none" stroke="#bfbfbf" points="316.5,-6 316.5,-25 414.5,-25 414.5,-6 316.5,-6"/>
<text text-anchor="middle" x="365.5" y="-13" font-family="Helvetica,sans-Serif" font-size="10.00">spdlog/fmt/fmt.h</text>
</a>
</g>
</g>
<!-- Node4&#45;&gt;Node8 -->
<g id="edge7" class="edge">
<title>Node4&#45;&gt;Node8</title>
<path fill="none" stroke="midnightblue" d="M282.45,-72.73C298.35,-61.96 325.55,-43.55 344.47,-30.74"/>
<polygon fill="midnightblue" stroke="midnightblue" points="346.44,-33.63 352.76,-25.13 342.52,-27.84 346.44,-33.63"/>
</g>
<!-- Node10 -->
<g id="node10" class="node">
<title>Node10</title>
<g id="a_node10"><a xlink:title=" ">
<polygon fill="none" stroke="#bfbfbf" points="433,-6 433,-25 546,-25 546,-6 433,-6"/>
<text text-anchor="middle" x="489.5" y="-13" font-family="Helvetica,sans-Serif" font-size="10.00">G4OpticalPhoton.hh</text>
</a>
</g>
</g>
<!-- Node9&#45;&gt;Node10 -->
<g id="edge9" class="edge">
<title>Node9&#45;&gt;Node10</title>
<path fill="none" stroke="midnightblue" d="M661.21,-72.87C626.27,-61.4 564.42,-41.09 525.26,-28.24"/>
<polygon fill="midnightblue" stroke="midnightblue" points="526.18,-24.86 515.59,-25.06 524,-31.51 526.18,-24.86"/>
</g>
<!-- Node11 -->
<g id="node11" class="node">
<title>Node11</title>
<g id="a_node11"><a xlink:title=" ">
<polygon fill="none" stroke="#bfbfbf" points="564.5,-6 564.5,-25 680.5,-25 680.5,-6 564.5,-6"/>
<text text-anchor="middle" x="622.5" y="-13" font-family="Helvetica,sans-Serif" font-size="10.00">G4OpticalSurface.hh</text>
</a>
</g>
</g>
<!-- Node9&#45;&gt;Node11 -->
<g id="edge10" class="edge">
<title>Node9&#45;&gt;Node11</title>
<path fill="none" stroke="midnightblue" d="M678.73,-72.73C668.4,-62.4 651.04,-45.04 638.33,-32.33"/>
<polygon fill="midnightblue" stroke="midnightblue" points="640.67,-29.72 631.13,-25.13 635.72,-34.67 640.67,-29.72"/>
</g>
<!-- Node12 -->
<g id="node12" class="node">
<title>Node12</title>
<g id="a_node12"><a xlink:title=" ">
<polygon fill="none" stroke="#bfbfbf" points="698.5,-6 698.5,-25 808.5,-25 808.5,-6 698.5,-6"/>
<text text-anchor="middle" x="753.5" y="-13" font-family="Helvetica,sans-Serif" font-size="10.00">G4RandomTools.hh</text>
</a>
</g>
</g>
<!-- Node9&#45;&gt;Node12 -->
<g id="edge11" class="edge">
<title>Node9&#45;&gt;Node12</title>
<path fill="none" stroke="midnightblue" d="M696.4,-72.73C706.89,-62.4 724.52,-45.04 737.42,-32.33"/>
<polygon fill="midnightblue" stroke="midnightblue" points="740.07,-34.64 744.74,-25.13 735.16,-29.65 740.07,-34.64"/>
</g>
<!-- Node13 -->
<g id="node13" class="node">
<title>Node13</title>
<g id="a_node13"><a xlink:title=" ">
<polygon fill="none" stroke="#bfbfbf" points="826.5,-6 826.5,-25 956.5,-25 956.5,-6 826.5,-6"/>
<text text-anchor="middle" x="891.5" y="-13" font-family="Helvetica,sans-Serif" font-size="10.00">G4VDiscreteProcess.hh</text>
</a>
</g>
</g>
<!-- Node9&#45;&gt;Node13 -->
<g id="edge12" class="edge">
<title>Node9&#45;&gt;Node13</title>
<path fill="none" stroke="midnightblue" d="M714.59,-72.87C750.66,-61.38 814.58,-41.01 854.91,-28.16"/>
<polygon fill="midnightblue" stroke="midnightblue" points="856.16,-31.43 864.62,-25.06 854.03,-24.76 856.16,-31.43"/>
</g>
<!-- Node14 -->
<g id="node14" class="node">
<title>Node14</title>
<g id="a_node14"><a xlink:title=" ">
<polygon fill="none" stroke="#bfbfbf" points="975,-6 975,-25 1132,-25 1132,-6 975,-6"/>
<text text-anchor="middle" x="1053.5" y="-13" font-family="Helvetica,sans-Serif" font-size="10.00">G4VUserTrackInformation.hh</text>
</a>
</g>
</g>
<!-- Node9&#45;&gt;Node14 -->
<g id="edge13" class="edge">
<title>Node9&#45;&gt;Node14</title>
<path fill="none" stroke="midnightblue" d="M735.72,-72.94C802.61,-61.06 923.38,-39.61 995.23,-26.85"/>
<polygon fill="midnightblue" stroke="midnightblue" points="996.23,-30.23 1005.46,-25.03 995,-23.33 996.23,-30.23"/>
</g>
<!-- Node21&#45;&gt;Node15 -->
<g id="edge22" class="edge">
<title>Node21&#45;&gt;Node15</title>
<path fill="none" stroke="midnightblue" d="M1382.55,-190.35C1350.93,-173.22 1282.84,-136.38 1277.5,-134 1243.3,-118.75 1202.96,-104.58 1174.39,-95.16"/>
<polygon fill="midnightblue" stroke="midnightblue" points="1175.4,-91.8 1164.8,-92.03 1173.22,-98.46 1175.4,-91.8"/>
</g>
<!-- Node22 -->
<g id="node22" class="node">
<title>Node22</title>
<g id="a_node22"><a xlink:title=" ">
<polygon fill="none" stroke="#bfbfbf" points="1325,-134.5 1325,-153.5 1398,-153.5 1398,-134.5 1325,-134.5"/>
<text text-anchor="middle" x="1361.5" y="-141.5" font-family="Helvetica,sans-Serif" font-size="10.00">G4Types.hh</text>
</a>
</g>
</g>
<!-- Node21&#45;&gt;Node22 -->
<g id="edge23" class="edge">
<title>Node21&#45;&gt;Node22</title>
<path fill="none" stroke="midnightblue" d="M1392.39,-190.08C1387.22,-182.53 1379.65,-171.49 1373.31,-162.23"/>
<polygon fill="midnightblue" stroke="midnightblue" points="1376.04,-160.02 1367.5,-153.75 1370.26,-163.98 1376.04,-160.02"/>
</g>
<!-- Node23 -->
<g id="node23" class="node">
<title>Node23</title>
<g id="a_node23"><a xlink:title=" ">
<polygon fill="none" stroke="#bfbfbf" points="1416.5,-134.5 1416.5,-153.5 1454.5,-153.5 1454.5,-134.5 1416.5,-134.5"/>
<text text-anchor="middle" x="1435.5" y="-141.5" font-family="Helvetica,sans-Serif" font-size="10.00">map</text>
</a>
</g>
</g>
<!-- Node21&#45;&gt;Node23 -->
<g id="edge24" class="edge">
<title>Node21&#45;&gt;Node23</title>
<path fill="none" stroke="midnightblue" d="M1404.61,-190.08C1409.78,-182.53 1417.35,-171.49 1423.69,-162.23"/>
<polygon fill="midnightblue" stroke="midnightblue" points="1426.74,-163.98 1429.5,-153.75 1420.96,-160.02 1426.74,-163.98"/>
</g>
<!-- Node24 -->
<g id="node24" class="node">
<title>Node24</title>
<g id="a_node24"><a xlink:title=" ">
<polygon fill="none" stroke="#bfbfbf" points="1473,-134.5 1473,-153.5 1534,-153.5 1534,-134.5 1473,-134.5"/>
<text text-anchor="middle" x="1503.5" y="-141.5" font-family="Helvetica,sans-Serif" font-size="10.00">TGraph.h</text>
</a>
</g>
</g>
<!-- Node21&#45;&gt;Node24 -->
<g id="edge25" class="edge">
<title>Node21&#45;&gt;Node24</title>
<path fill="none" stroke="midnightblue" d="M1415.37,-190.32C1432.21,-181.66 1458.31,-168.24 1477.74,-158.25"/>
<polygon fill="midnightblue" stroke="midnightblue" points="1479.38,-161.34 1486.67,-153.65 1476.18,-155.12 1479.38,-161.34"/>
</g>
<!-- Node25 -->
<g id="node25" class="node">
<title>Node25</title>
<g id="a_node25"><a xlink:title=" ">
<polygon fill="none" stroke="#bfbfbf" points="1552,-134.5 1552,-153.5 1605,-153.5 1605,-134.5 1552,-134.5"/>
<text text-anchor="middle" x="1578.5" y="-141.5" font-family="Helvetica,sans-Serif" font-size="10.00">TH2D.h</text>
</a>
</g>
</g>
<!-- Node21&#45;&gt;Node25 -->
<g id="edge26" class="edge">
<title>Node21&#45;&gt;Node25</title>
<path fill="none" stroke="midnightblue" d="M1427.02,-190.44C1458.11,-181.12 1507.93,-166.17 1541.88,-155.99"/>
<polygon fill="midnightblue" stroke="midnightblue" points="1543.3,-159.21 1551.87,-152.99 1541.29,-152.51 1543.3,-159.21"/>
</g>
</g>
</svg>
