<?xml version="1.0" encoding="UTF-8" standalone="no"?>
<!DOCTYPE svg PUBLIC "-//W3C//DTD SVG 1.1//EN"
 "http://www.w3.org/Graphics/SVG/1.1/DTD/svg11.dtd">
<!-- Generated by graphviz version 2.43.0 (0)
 -->
<!-- Title: OMSimHitManager.cc Pages: 1 -->
<svg width="1274pt" height="207pt"
 viewBox="0.00 0.00 1274.00 207.00" xmlns="http://www.w3.org/2000/svg" xmlns:xlink="http://www.w3.org/1999/xlink">
<g id="graph0" class="graph" transform="scale(1 1) rotate(0) translate(4 203)">
<title>OMSimHitManager.cc</title>
<polygon fill="white" stroke="transparent" points="-4,4 -4,-203 1270,-203 1270,4 -4,4"/>
<!-- Node1 -->
<g id="node1" class="node">
<title>Node1</title>
<g id="a_node1"><a xlink:title=" ">
<polygon fill="#bfbfbf" stroke="black" points="844,-179.5 844,-198.5 966,-198.5 966,-179.5 844,-179.5"/>
<text text-anchor="middle" x="905" y="-186.5" font-family="Helvetica,sans-Serif" font-size="10.00">OMSimHitManager.cc</text>
</a>
</g>
</g>
<!-- Node2 -->
<g id="node2" class="node">
<title>Node2</title>
<g id="a_node2"><a xlink:href="_o_m_sim_hit_manager_8hh.html" target="_top" xlink:title="Defines structures and classes related to optical module photon hit management.">
<polygon fill="white" stroke="black" points="431.5,-123.5 431.5,-142.5 554.5,-142.5 554.5,-123.5 431.5,-123.5"/>
<text text-anchor="middle" x="493" y="-130.5" font-family="Helvetica,sans-Serif" font-size="10.00">OMSimHitManager.hh</text>
</a>
</g>
</g>
<!-- Node1&#45;&gt;Node2 -->
<g id="edge1" class="edge">
<title>Node1&#45;&gt;Node2</title>
<path fill="none" stroke="midnightblue" d="M843.76,-179.97C769.32,-170.22 643.88,-153.78 564.92,-143.43"/>
<polygon fill="midnightblue" stroke="midnightblue" points="564.94,-139.9 554.57,-142.07 564.03,-146.84 564.94,-139.9"/>
</g>
<!-- Node13 -->
<g id="node13" class="node">
<title>Node13</title>
<g id="a_node13"><a xlink:href="_o_m_sim_command_args_table_8hh.html" target="_top" xlink:title="Definition of the OMSimCommandArgsTable singleton class, which controls user args.">
<polygon fill="white" stroke="black" points="660,-123.5 660,-142.5 824,-142.5 824,-123.5 660,-123.5"/>
<text text-anchor="middle" x="742" y="-130.5" font-family="Helvetica,sans-Serif" font-size="10.00">OMSimCommandArgsTable.hh</text>
</a>
</g>
</g>
<!-- Node1&#45;&gt;Node13 -->
<g id="edge12" class="edge">
<title>Node1&#45;&gt;Node13</title>
<path fill="none" stroke="midnightblue" d="M879.17,-179.44C851.75,-170.36 808.22,-155.94 777.57,-145.78"/>
<polygon fill="midnightblue" stroke="midnightblue" points="778.3,-142.34 767.71,-142.52 776.1,-148.98 778.3,-142.34"/>
</g>
<!-- Node14 -->
<g id="node14" class="node">
<title>Node14</title>
<g id="a_node14"><a xlink:href="_o_m_sim_logger_8hh.html" target="_top" xlink:title=" ">
<polygon fill="white" stroke="black" points="662.5,-67.5 662.5,-86.5 761.5,-86.5 761.5,-67.5 662.5,-67.5"/>
<text text-anchor="middle" x="712" y="-74.5" font-family="Helvetica,sans-Serif" font-size="10.00">OMSimLogger.hh</text>
</a>
</g>
</g>
<!-- Node1&#45;&gt;Node14 -->
<g id="edge22" class="edge">
<title>Node1&#45;&gt;Node14</title>
<path fill="none" stroke="midnightblue" d="M843.86,-185.91C776.7,-182.17 675.13,-171.78 651,-143 635.44,-124.45 661.68,-104.29 684.44,-91.43"/>
<polygon fill="midnightblue" stroke="midnightblue" points="686.38,-94.36 693.53,-86.55 683.07,-88.19 686.38,-94.36"/>
</g>
<!-- Node21 -->
<g id="node21" class="node">
<title>Node21</title>
<g id="a_node21"><a xlink:title=" ">
<polygon fill="white" stroke="#bfbfbf" points="842.5,-123.5 842.5,-142.5 967.5,-142.5 967.5,-123.5 842.5,-123.5"/>
<text text-anchor="middle" x="905" y="-130.5" font-family="Helvetica,sans-Serif" font-size="10.00">OMSimEventAction.hh</text>
</a>
</g>
</g>
<!-- Node1&#45;&gt;Node21 -->
<g id="edge21" class="edge">
<title>Node1&#45;&gt;Node21</title>
<path fill="none" stroke="midnightblue" d="M905,-179.08C905,-172.01 905,-161.86 905,-152.99"/>
<polygon fill="midnightblue" stroke="midnightblue" points="908.5,-152.75 905,-142.75 901.5,-152.75 908.5,-152.75"/>
</g>
<!-- Node22 -->
<g id="node22" class="node">
<title>Node22</title>
<g id="a_node22"><a xlink:title=" ">
<polygon fill="white" stroke="#bfbfbf" points="985.5,-123.5 985.5,-142.5 1100.5,-142.5 1100.5,-123.5 985.5,-123.5"/>
<text text-anchor="middle" x="1043" y="-130.5" font-family="Helvetica,sans-Serif" font-size="10.00">G4EventManager.hh</text>
</a>
</g>
</g>
<!-- Node1&#45;&gt;Node22 -->
<g id="edge23" class="edge">
<title>Node1&#45;&gt;Node22</title>
<path fill="none" stroke="midnightblue" d="M926.87,-179.44C949.78,-170.48 985.98,-156.31 1011.87,-146.18"/>
<polygon fill="midnightblue" stroke="midnightblue" points="1013.2,-149.42 1021.24,-142.52 1010.65,-142.9 1013.2,-149.42"/>
</g>
<!-- Node23 -->
<g id="node23" class="node">
<title>Node23</title>
<g id="a_node23"><a xlink:title=" ">
<polygon fill="white" stroke="#bfbfbf" points="1118.5,-123.5 1118.5,-142.5 1191.5,-142.5 1191.5,-123.5 1118.5,-123.5"/>
<text text-anchor="middle" x="1155" y="-130.5" font-family="Helvetica,sans-Serif" font-size="10.00">G4Event.hh</text>
</a>
</g>
</g>
<!-- Node1&#45;&gt;Node23 -->
<g id="edge24" class="edge">
<title>Node1&#45;&gt;Node23</title>
<path fill="none" stroke="midnightblue" d="M944.61,-179.44C989.12,-169.83 1061.3,-154.24 1108.46,-144.05"/>
<polygon fill="midnightblue" stroke="midnightblue" points="1109.38,-147.43 1118.42,-141.9 1107.91,-140.59 1109.38,-147.43"/>
</g>
<!-- Node24 -->
<g id="node24" class="node">
<title>Node24</title>
<g id="a_node24"><a xlink:title=" ">
<polygon fill="white" stroke="#bfbfbf" points="1210,-123.5 1210,-142.5 1266,-142.5 1266,-123.5 1210,-123.5"/>
<text text-anchor="middle" x="1238" y="-130.5" font-family="Helvetica,sans-Serif" font-size="10.00">numeric</text>
</a>
</g>
</g>
<!-- Node1&#45;&gt;Node24 -->
<g id="edge25" class="edge">
<title>Node1&#45;&gt;Node24</title>
<path fill="none" stroke="midnightblue" d="M966.21,-180.29C1024.03,-172.65 1113.36,-159.91 1199.8,-143.1"/>
<polygon fill="midnightblue" stroke="midnightblue" points="1200.64,-146.5 1209.77,-141.14 1199.29,-139.63 1200.64,-146.5"/>
</g>
<!-- Node3 -->
<g id="node3" class="node">
<title>Node3</title>
<g id="a_node3"><a xlink:href="_o_m_sim_p_m_t_response_8hh.html" target="_top" xlink:title="Simulation of PMT response.">
<polygon fill="white" stroke="black" points="94.5,-67.5 94.5,-86.5 229.5,-86.5 229.5,-67.5 94.5,-67.5"/>
<text text-anchor="middle" x="162" y="-74.5" font-family="Helvetica,sans-Serif" font-size="10.00">OMSimPMTResponse.hh</text>
</a>
</g>
</g>
<!-- Node2&#45;&gt;Node3 -->
<g id="edge2" class="edge">
<title>Node2&#45;&gt;Node3</title>
<path fill="none" stroke="midnightblue" d="M440.55,-123.44C381.84,-113.87 286.77,-98.36 224.32,-88.17"/>
<polygon fill="midnightblue" stroke="midnightblue" points="224.64,-84.67 214.2,-86.52 223.51,-91.58 224.64,-84.67"/>
</g>
<!-- Node9 -->
<g id="node9" class="node">
<title>Node9</title>
<g id="a_node9"><a xlink:title=" ">
<polygon fill="white" stroke="#bfbfbf" points="247.5,-67.5 247.5,-86.5 350.5,-86.5 350.5,-67.5 247.5,-67.5"/>
<text text-anchor="middle" x="299" y="-74.5" font-family="Helvetica,sans-Serif" font-size="10.00">G4ThreeVector.hh</text>
</a>
</g>
</g>
<!-- Node2&#45;&gt;Node9 -->
<g id="edge8" class="edge">
<title>Node2&#45;&gt;Node9</title>
<path fill="none" stroke="midnightblue" d="M462.26,-123.44C429.06,-114.2 376.01,-99.44 339.44,-89.26"/>
<polygon fill="midnightblue" stroke="midnightblue" points="340.17,-85.83 329.6,-86.52 338.29,-92.57 340.17,-85.83"/>
</g>
<!-- Node10 -->
<g id="node10" class="node">
<title>Node10</title>
<g id="a_node10"><a xlink:title=" ">
<polygon fill="white" stroke="#bfbfbf" points="589.5,-67.5 589.5,-86.5 644.5,-86.5 644.5,-67.5 589.5,-67.5"/>
<text text-anchor="middle" x="617" y="-74.5" font-family="Helvetica,sans-Serif" font-size="10.00">fstream</text>
</a>
</g>
</g>
<!-- Node2&#45;&gt;Node10 -->
<g id="edge9" class="edge">
<title>Node2&#45;&gt;Node10</title>
<path fill="none" stroke="midnightblue" d="M512.65,-123.44C532.96,-114.6 564.9,-100.69 588.1,-90.59"/>
<polygon fill="midnightblue" stroke="midnightblue" points="589.67,-93.72 597.44,-86.52 586.88,-87.3 589.67,-93.72"/>
</g>
<!-- Node11 -->
<g id="node11" class="node">
<title>Node11</title>
<g id="a_node11"><a xlink:title=" ">
<polygon fill="white" stroke="#bfbfbf" points="369,-67.5 369,-86.5 459,-86.5 459,-67.5 369,-67.5"/>
<text text-anchor="middle" x="414" y="-74.5" font-family="Helvetica,sans-Serif" font-size="10.00">G4AutoLock.hh</text>
</a>
</g>
</g>
<!-- Node2&#45;&gt;Node11 -->
<g id="edge10" class="edge">
<title>Node2&#45;&gt;Node11</title>
<path fill="none" stroke="midnightblue" d="M480.31,-123.32C468.1,-114.98 449.42,-102.21 435,-92.35"/>
<polygon fill="midnightblue" stroke="midnightblue" points="436.89,-89.41 426.66,-86.65 432.94,-95.19 436.89,-89.41"/>
</g>
<!-- Node12 -->
<g id="node12" class="node">
<title>Node12</title>
<g id="a_node12"><a xlink:title=" ">
<polygon fill="white" stroke="#bfbfbf" points="477,-67.5 477,-86.5 571,-86.5 571,-67.5 477,-67.5"/>
<text text-anchor="middle" x="524" y="-74.5" font-family="Helvetica,sans-Serif" font-size="10.00">G4Threading.hh</text>
</a>
</g>
</g>
<!-- Node2&#45;&gt;Node12 -->
<g id="edge11" class="edge">
<title>Node2&#45;&gt;Node12</title>
<path fill="none" stroke="midnightblue" d="M498.12,-123.08C502.41,-115.61 508.66,-104.72 513.94,-95.52"/>
<polygon fill="midnightblue" stroke="midnightblue" points="517.03,-97.17 518.98,-86.75 510.96,-93.68 517.03,-97.17"/>
</g>
<!-- Node4 -->
<g id="node4" class="node">
<title>Node4</title>
<g id="a_node4"><a xlink:title=" ">
<polygon fill="white" stroke="#bfbfbf" points="206.5,-6 206.5,-25 325.5,-25 325.5,-6 206.5,-6"/>
<text text-anchor="middle" x="266" y="-13" font-family="Helvetica,sans-Serif" font-size="10.00">G4SystemOfUnits.hh</text>
</a>
</g>
</g>
<!-- Node3&#45;&gt;Node4 -->
<g id="edge3" class="edge">
<title>Node3&#45;&gt;Node4</title>
<path fill="none" stroke="midnightblue" d="M176.9,-67.48C193.97,-57.71 222.16,-41.58 242.26,-30.08"/>
<polygon fill="midnightblue" stroke="midnightblue" points="244.19,-33.01 251.13,-25.01 240.71,-26.94 244.19,-33.01"/>
</g>
<!-- Node5 -->
<g id="node5" class="node">
<title>Node5</title>
<g id="a_node5"><a xlink:title=" ">
<polygon fill="white" stroke="#bfbfbf" points="343.5,-6 343.5,-25 416.5,-25 416.5,-6 343.5,-6"/>
<text text-anchor="middle" x="380" y="-13" font-family="Helvetica,sans-Serif" font-size="10.00">G4Types.hh</text>
</a>
</g>
</g>
<!-- Node3&#45;&gt;Node5 -->
<g id="edge4" class="edge">
<title>Node3&#45;&gt;Node5</title>
<path fill="none" stroke="midnightblue" d="M196.73,-67.45C231.57,-58.75 286.69,-44.64 334,-31 337.32,-30.04 340.76,-29.02 344.2,-27.97"/>
<polygon fill="midnightblue" stroke="midnightblue" points="345.28,-31.3 353.8,-25.01 343.21,-24.62 345.28,-31.3"/>
</g>
<!-- Node6 -->
<g id="node6" class="node">
<title>Node6</title>
<g id="a_node6"><a xlink:title=" ">
<polygon fill="white" stroke="#bfbfbf" points="0,-6 0,-25 38,-25 38,-6 0,-6"/>
<text text-anchor="middle" x="19" y="-13" font-family="Helvetica,sans-Serif" font-size="10.00">map</text>
</a>
</g>
</g>
<!-- Node3&#45;&gt;Node6 -->
<g id="edge5" class="edge">
<title>Node3&#45;&gt;Node6</title>
<path fill="none" stroke="midnightblue" d="M137.91,-67.41C114.43,-58.84 77.86,-44.98 47,-31 46,-30.55 44.99,-30.08 43.97,-29.6"/>
<polygon fill="midnightblue" stroke="midnightblue" points="45.36,-26.38 34.85,-25.07 42.25,-32.65 45.36,-26.38"/>
</g>
<!-- Node7 -->
<g id="node7" class="node">
<title>Node7</title>
<g id="a_node7"><a xlink:title=" ">
<polygon fill="white" stroke="#bfbfbf" points="56.5,-6 56.5,-25 117.5,-25 117.5,-6 56.5,-6"/>
<text text-anchor="middle" x="87" y="-13" font-family="Helvetica,sans-Serif" font-size="10.00">TGraph.h</text>
</a>
</g>
</g>
<!-- Node3&#45;&gt;Node7 -->
<g id="edge6" class="edge">
<title>Node3&#45;&gt;Node7</title>
<path fill="none" stroke="midnightblue" d="M151.25,-67.48C139.45,-58.11 120.26,-42.88 105.92,-31.51"/>
<polygon fill="midnightblue" stroke="midnightblue" points="107.74,-28.48 97.73,-25.01 103.38,-33.97 107.74,-28.48"/>
</g>
<!-- Node8 -->
<g id="node8" class="node">
<title>Node8</title>
<g id="a_node8"><a xlink:title=" ">
<polygon fill="white" stroke="#bfbfbf" points="135.5,-6 135.5,-25 188.5,-25 188.5,-6 135.5,-6"/>
<text text-anchor="middle" x="162" y="-13" font-family="Helvetica,sans-Serif" font-size="10.00">TH2D.h</text>
</a>
</g>
</g>
<!-- Node3&#45;&gt;Node8 -->
<g id="edge7" class="edge">
<title>Node3&#45;&gt;Node8</title>
<path fill="none" stroke="midnightblue" d="M162,-67.48C162,-59.08 162,-45.98 162,-35.16"/>
<polygon fill="midnightblue" stroke="midnightblue" points="165.5,-35.01 162,-25.01 158.5,-35.01 165.5,-35.01"/>
</g>
<!-- Node13&#45;&gt;Node10 -->
<g id="edge18" class="edge">
<title>Node13&#45;&gt;Node10</title>
<path fill="none" stroke="midnightblue" d="M722.19,-123.44C701.71,-114.6 669.52,-100.69 646.14,-90.59"/>
<polygon fill="midnightblue" stroke="midnightblue" points="647.28,-87.27 636.71,-86.52 644.51,-93.7 647.28,-87.27"/>
</g>
<!-- Node13&#45;&gt;Node14 -->
<g id="edge13" class="edge">
<title>Node13&#45;&gt;Node14</title>
<path fill="none" stroke="midnightblue" d="M737.05,-123.08C732.9,-115.61 726.85,-104.72 721.73,-95.52"/>
<polygon fill="midnightblue" stroke="midnightblue" points="724.78,-93.79 716.86,-86.75 718.66,-97.19 724.78,-93.79"/>
</g>
<!-- Node19 -->
<g id="node19" class="node">
<title>Node19</title>
<g id="a_node19"><a xlink:title=" ">
<polygon fill="white" stroke="#bfbfbf" points="780,-67.5 780,-86.5 864,-86.5 864,-67.5 780,-67.5"/>
<text text-anchor="middle" x="822" y="-74.5" font-family="Helvetica,sans-Serif" font-size="10.00">boost/any.hpp</text>
</a>
</g>
</g>
<!-- Node13&#45;&gt;Node19 -->
<g id="edge19" class="edge">
<title>Node13&#45;&gt;Node19</title>
<path fill="none" stroke="midnightblue" d="M754.85,-123.32C767.22,-114.98 786.13,-102.21 800.74,-92.35"/>
<polygon fill="midnightblue" stroke="midnightblue" points="802.85,-95.15 809.18,-86.65 798.93,-89.35 802.85,-95.15"/>
</g>
<!-- Node20 -->
<g id="node20" class="node">
<title>Node20</title>
<g id="a_node20"><a xlink:title=" ">
<polygon fill="white" stroke="#bfbfbf" points="882,-67.5 882,-86.5 950,-86.5 950,-67.5 882,-67.5"/>
<text text-anchor="middle" x="916" y="-74.5" font-family="Helvetica,sans-Serif" font-size="10.00">sys/time.h</text>
</a>
</g>
</g>
<!-- Node13&#45;&gt;Node20 -->
<g id="edge20" class="edge">
<title>Node13&#45;&gt;Node20</title>
<path fill="none" stroke="midnightblue" d="M769.57,-123.44C799.1,-114.28 846.12,-99.69 878.88,-89.52"/>
<polygon fill="midnightblue" stroke="midnightblue" points="880.04,-92.82 888.56,-86.52 877.97,-86.14 880.04,-92.82"/>
</g>
<!-- Node15 -->
<g id="node15" class="node">
<title>Node15</title>
<g id="a_node15"><a xlink:title=" ">
<polygon fill="white" stroke="#bfbfbf" points="608.5,-6 608.5,-25 701.5,-25 701.5,-6 608.5,-6"/>
<text text-anchor="middle" x="655" y="-13" font-family="Helvetica,sans-Serif" font-size="10.00">spdlog/spdlog.h</text>
</a>
</g>
</g>
<!-- Node14&#45;&gt;Node15 -->
<g id="edge14" class="edge">
<title>Node14&#45;&gt;Node15</title>
<path fill="none" stroke="midnightblue" d="M703.83,-67.48C695.11,-58.37 681.1,-43.74 670.31,-32.48"/>
<polygon fill="midnightblue" stroke="midnightblue" points="672.6,-29.81 663.15,-25.01 667.54,-34.65 672.6,-29.81"/>
</g>
<!-- Node16 -->
<g id="node16" class="node">
<title>Node16</title>
<g id="a_node16"><a xlink:title=" ">
<polygon fill="white" stroke="#bfbfbf" points="719.5,-0.5 719.5,-30.5 830.5,-30.5 830.5,-0.5 719.5,-0.5"/>
<text text-anchor="start" x="727.5" y="-18.5" font-family="Helvetica,sans-Serif" font-size="10.00">spdlog/sinks/stdout</text>
<text text-anchor="middle" x="775" y="-7.5" font-family="Helvetica,sans-Serif" font-size="10.00">_color_sinks.h</text>
</a>
</g>
</g>
<!-- Node14&#45;&gt;Node16 -->
<g id="edge15" class="edge">
<title>Node14&#45;&gt;Node16</title>
<path fill="none" stroke="midnightblue" d="M721.03,-67.48C729.24,-59.72 741.71,-47.94 752.59,-37.66"/>
<polygon fill="midnightblue" stroke="midnightblue" points="755.29,-39.93 760.15,-30.52 750.48,-34.84 755.29,-39.93"/>
</g>
<!-- Node17 -->
<g id="node17" class="node">
<title>Node17</title>
<g id="a_node17"><a xlink:title=" ">
<polygon fill="white" stroke="#bfbfbf" points="849,-6 849,-25 907,-25 907,-6 849,-6"/>
<text text-anchor="middle" x="878" y="-13" font-family="Helvetica,sans-Serif" font-size="10.00">memory</text>
</a>
</g>
</g>
<!-- Node14&#45;&gt;Node17 -->
<g id="edge16" class="edge">
<title>Node14&#45;&gt;Node17</title>
<path fill="none" stroke="midnightblue" d="M736.39,-67.48C761.98,-58.52 803.38,-43.93 839,-31 841.1,-30.24 843.25,-29.45 845.43,-28.65"/>
<polygon fill="midnightblue" stroke="midnightblue" points="846.76,-31.89 854.92,-25.15 844.33,-25.33 846.76,-31.89"/>
</g>
<!-- Node18 -->
<g id="node18" class="node">
<title>Node18</title>
<g id="a_node18"><a xlink:title=" ">
<polygon fill="white" stroke="#bfbfbf" points="492,-6 492,-25 590,-25 590,-6 492,-6"/>
<text text-anchor="middle" x="541" y="-13" font-family="Helvetica,sans-Serif" font-size="10.00">spdlog/fmt/fmt.h</text>
</a>
</g>
</g>
<!-- Node14&#45;&gt;Node18 -->
<g id="edge17" class="edge">
<title>Node14&#45;&gt;Node18</title>
<path fill="none" stroke="midnightblue" d="M687.5,-67.48C658.04,-57.22 608.42,-39.96 575.2,-28.4"/>
<polygon fill="midnightblue" stroke="midnightblue" points="576.05,-24.99 565.45,-25.01 573.75,-31.6 576.05,-24.99"/>
</g>
</g>
</svg>
