<?xml version="1.0" encoding="UTF-8" standalone="no"?>
<!DOCTYPE svg PUBLIC "-//W3C//DTD SVG 1.1//EN"
 "http://www.w3.org/Graphics/SVG/1.1/DTD/svg11.dtd">
<!-- Generated by graphviz version 2.43.0 (0)
 -->
<!-- Title: OMSimLOM18.hh Pages: 1 -->
<svg width="1361pt" height="379pt"
 viewBox="0.00 0.00 1360.50 379.00" xmlns="http://www.w3.org/2000/svg" xmlns:xlink="http://www.w3.org/1999/xlink">
<g id="graph0" class="graph" transform="scale(1 1) rotate(0) translate(4 375)">
<title>OMSimLOM18.hh</title>
<!-- Node1 -->
<g id="Node000001" class="node">
<title>Node1</title>
<g id="a_Node000001"><a xlink:title="Construction of LOM18.">
<polygon fill="#999999" stroke="#666666" points="964,-371 863,-371 863,-352 964,-352 964,-371"/>
<text text-anchor="middle" x="913.5" y="-359" font-family="Helvetica,sans-Serif" font-size="10.00">OMSimLOM18.hh</text>
</a>
</g>
</g>
<!-- Node2 -->
<g id="Node000002" class="node">
<title>Node2</title>
<g id="a_Node000002"><a xlink:href="_o_m_sim_p_m_t_construction_8hh.html" target="_top" xlink:title="Construction of the PMTs.">
<polygon fill="white" stroke="#666666" points="763,-261 614,-261 614,-242 763,-242 763,-261"/>
<text text-anchor="middle" x="688.5" y="-249" font-family="Helvetica,sans-Serif" font-size="10.00">OMSimPMTConstruction.hh</text>
</a>
</g>
</g>
<!-- Node1&#45;&gt;Node2 -->
<g id="edge1_Node000001_Node000002" class="edge">
<title>Node1&#45;&gt;Node2</title>
<g id="a_edge1_Node000001_Node000002"><a xlink:title=" ">
<path fill="none" stroke="#63b8ff" d="M867.28,-351.99C836.6,-345.11 796.12,-333.63 763.5,-316 740.2,-303.41 717.58,-282.73 703.38,-268.41"/>
<polygon fill="#63b8ff" stroke="#63b8ff" points="705.87,-265.96 696.41,-261.2 700.84,-270.82 705.87,-265.96"/>
</a>
</g>
</g>
<!-- Node31 -->
<g id="Node000031" class="node">
<title>Node31</title>
<g id="a_Node000031"><a xlink:href="_o_m_sim_optical_module_8hh_source.html" target="_top" xlink:title=" ">
<polygon fill="white" stroke="#666666" points="910,-316 773,-316 773,-297 910,-297 910,-316"/>
<text text-anchor="middle" x="841.5" y="-304" font-family="Helvetica,sans-Serif" font-size="10.00">OMSimOpticalModule.hh</text>
</a>
</g>
</g>
<!-- Node1&#45;&gt;Node31 -->
<g id="edge32_Node000001_Node000031" class="edge">
<title>Node1&#45;&gt;Node31</title>
<g id="a_edge32_Node000001_Node000031"><a xlink:title=" ">
<path fill="none" stroke="#63b8ff" d="M901.93,-351.98C891.08,-344 874.62,-331.88 861.62,-322.31"/>
<polygon fill="#63b8ff" stroke="#63b8ff" points="863.41,-319.28 853.28,-316.17 859.26,-324.92 863.41,-319.28"/>
</a>
</g>
</g>
<!-- Node33 -->
<g id="Node000033" class="node">
<title>Node33</title>
<g id="a_Node000033"><a xlink:title=" ">
<polygon fill="#e0e0e0" stroke="#999999" points="1044.5,-316 928.5,-316 928.5,-297 1044.5,-297 1044.5,-316"/>
<text text-anchor="middle" x="986.5" y="-304" font-family="Helvetica,sans-Serif" font-size="10.00">G4LogicalVolume.hh</text>
</a>
</g>
</g>
<!-- Node1&#45;&gt;Node33 -->
<g id="edge36_Node000001_Node000033" class="edge">
<title>Node1&#45;&gt;Node33</title>
<g id="a_edge36_Node000001_Node000033"><a xlink:title=" ">
<path fill="none" stroke="#63b8ff" d="M925.23,-351.98C936.23,-344 952.92,-331.88 966.1,-322.31"/>
<polygon fill="#63b8ff" stroke="#63b8ff" points="968.52,-324.88 974.56,-316.17 964.41,-319.21 968.52,-324.88"/>
</a>
</g>
</g>
<!-- Node34 -->
<g id="Node000034" class="node">
<title>Node34</title>
<g id="a_Node000034"><a xlink:title=" ">
<polygon fill="#e0e0e0" stroke="#999999" points="1152,-316 1063,-316 1063,-297 1152,-297 1152,-316"/>
<text text-anchor="middle" x="1107.5" y="-304" font-family="Helvetica,sans-Serif" font-size="10.00">G4Polycone.hh</text>
</a>
</g>
</g>
<!-- Node1&#45;&gt;Node34 -->
<g id="edge37_Node000001_Node000034" class="edge">
<title>Node1&#45;&gt;Node34</title>
<g id="a_edge37_Node000001_Node000034"><a xlink:title=" ">
<path fill="none" stroke="#63b8ff" d="M944.67,-351.98C977.66,-342.97 1029.9,-328.7 1066.27,-318.76"/>
<polygon fill="#63b8ff" stroke="#63b8ff" points="1067.36,-322.09 1076.09,-316.08 1065.52,-315.34 1067.36,-322.09"/>
</a>
</g>
</g>
<!-- Node2&#45;&gt;Node2 -->
<g id="edge23_Node000002_Node000002" class="edge">
<title>Node2&#45;&gt;Node2</title>
<g id="a_edge23_Node000002_Node000002"><a xlink:title=" ">
<path fill="none" stroke="#63b8ff" d="M731.8,-261.03C757.21,-263.06 781,-259.88 781,-251.5 781,-244.23 763.11,-240.87 741.79,-241.44"/>
<polygon fill="#63b8ff" stroke="#63b8ff" points="741.6,-237.94 731.8,-241.97 741.97,-244.93 741.6,-237.94"/>
</a>
</g>
</g>
<!-- Node3 -->
<g id="Node000003" class="node">
<title>Node3</title>
<g id="a_Node000003"><a xlink:href="_o_m_sim_detector_component_8hh.html" target="_top" xlink:title="Provides helper base class OMSimDetectorComponent for constructing and managing detector components i...">
<polygon fill="white" stroke="#666666" points="1033,-206 868,-206 868,-187 1033,-187 1033,-206"/>
<text text-anchor="middle" x="950.5" y="-194" font-family="Helvetica,sans-Serif" font-size="10.00">OMSimDetectorComponent.hh</text>
</a>
</g>
</g>
<!-- Node2&#45;&gt;Node3 -->
<g id="edge2_Node000002_Node000003" class="edge">
<title>Node2&#45;&gt;Node3</title>
<g id="a_edge2_Node000002_Node000003"><a xlink:title=" ">
<path fill="none" stroke="#63b8ff" d="M730.59,-241.98C776.2,-232.76 849.02,-218.03 898.25,-208.07"/>
<polygon fill="#63b8ff" stroke="#63b8ff" points="898.97,-211.5 908.08,-206.08 897.58,-204.63 898.97,-211.5"/>
</a>
</g>
</g>
<!-- Node24 -->
<g id="Node000024" class="node">
<title>Node24</title>
<g id="a_Node000024"><a xlink:href="_o_m_sim_p_m_t_response_8hh.html" target="_top" xlink:title="Simulation of PMT response.">
<polygon fill="white" stroke="#666666" points="570,-206 435,-206 435,-187 570,-187 570,-206"/>
<text text-anchor="middle" x="502.5" y="-194" font-family="Helvetica,sans-Serif" font-size="10.00">OMSimPMTResponse.hh</text>
</a>
</g>
</g>
<!-- Node2&#45;&gt;Node24 -->
<g id="edge24_Node000002_Node000024" class="edge">
<title>Node2&#45;&gt;Node24</title>
<g id="a_edge24_Node000002_Node000024"><a xlink:title=" ">
<path fill="none" stroke="#63b8ff" d="M658.62,-241.98C627.12,-233.01 577.33,-218.82 542.47,-208.89"/>
<polygon fill="#63b8ff" stroke="#63b8ff" points="543.19,-205.46 532.62,-206.08 541.28,-212.19 543.19,-205.46"/>
</a>
</g>
</g>
<!-- Node29 -->
<g id="Node000029" class="node">
<title>Node29</title>
<g id="a_Node000029"><a xlink:title=" ">
<polygon fill="#e0e0e0" stroke="#999999" points="720.5,-206 622.5,-206 622.5,-187 720.5,-187 720.5,-206"/>
<text text-anchor="middle" x="671.5" y="-194" font-family="Helvetica,sans-Serif" font-size="10.00">G4UnionSolid.hh</text>
</a>
</g>
</g>
<!-- Node2&#45;&gt;Node29 -->
<g id="edge30_Node000002_Node000029" class="edge">
<title>Node2&#45;&gt;Node29</title>
<g id="a_edge30_Node000002_Node000029"><a xlink:title=" ">
<path fill="none" stroke="#63b8ff" d="M685.69,-241.75C683.44,-234.72 680.2,-224.62 677.38,-215.84"/>
<polygon fill="#63b8ff" stroke="#63b8ff" points="680.64,-214.54 674.25,-206.09 673.98,-216.68 680.64,-214.54"/>
</a>
</g>
</g>
<!-- Node30 -->
<g id="Node000030" class="node">
<title>Node30</title>
<g id="a_Node000030"><a xlink:title=" ">
<polygon fill="#e0e0e0" stroke="#999999" points="806,-206 739,-206 739,-187 806,-187 806,-206"/>
<text text-anchor="middle" x="772.5" y="-194" font-family="Helvetica,sans-Serif" font-size="10.00">G4Tubs.hh</text>
</a>
</g>
</g>
<!-- Node2&#45;&gt;Node30 -->
<g id="edge31_Node000002_Node000030" class="edge">
<title>Node2&#45;&gt;Node30</title>
<g id="a_edge31_Node000002_Node000030"><a xlink:title=" ">
<path fill="none" stroke="#63b8ff" d="M702,-241.98C714.9,-233.84 734.6,-221.41 749.9,-211.76"/>
<polygon fill="#63b8ff" stroke="#63b8ff" points="752.17,-214.47 758.76,-206.17 748.43,-208.55 752.17,-214.47"/>
</a>
</g>
</g>
<!-- Node4 -->
<g id="Node000004" class="node">
<title>Node4</title>
<g id="a_Node000004"><a xlink:href="_o_m_sim_input_data_8hh.html" target="_top" xlink:title="Definition of ParameterTable and OMSimInputData.">
<polygon fill="white" stroke="#666666" points="771,-151 656,-151 656,-132 771,-132 771,-151"/>
<text text-anchor="middle" x="713.5" y="-139" font-family="Helvetica,sans-Serif" font-size="10.00">OMSimInputData.hh</text>
</a>
</g>
</g>
<!-- Node3&#45;&gt;Node4 -->
<g id="edge3_Node000003_Node000004" class="edge">
<title>Node3&#45;&gt;Node4</title>
<g id="a_edge3_Node000003_Node000004"><a xlink:title=" ">
<path fill="none" stroke="#63b8ff" d="M912.42,-186.98C871.51,-177.84 806.39,-163.27 761.88,-153.32"/>
<polygon fill="#63b8ff" stroke="#63b8ff" points="762.4,-149.85 751.88,-151.08 760.87,-156.68 762.4,-149.85"/>
</a>
</g>
</g>
<!-- Node20 -->
<g id="Node000020" class="node">
<title>Node20</title>
<g id="a_Node000020"><a xlink:title=" ">
<polygon fill="#e0e0e0" stroke="#999999" points="896,-151 789,-151 789,-132 896,-132 896,-151"/>
<text text-anchor="middle" x="842.5" y="-139" font-family="Helvetica,sans-Serif" font-size="10.00">G4Transform3D.hh</text>
</a>
</g>
</g>
<!-- Node3&#45;&gt;Node20 -->
<g id="edge19_Node000003_Node000020" class="edge">
<title>Node3&#45;&gt;Node20</title>
<g id="a_edge19_Node000003_Node000020"><a xlink:title=" ">
<path fill="none" stroke="#63b8ff" d="M933.15,-186.98C915.93,-178.54 889.3,-165.47 869.35,-155.68"/>
<polygon fill="#63b8ff" stroke="#63b8ff" points="870.69,-152.43 860.17,-151.17 867.6,-158.72 870.69,-152.43"/>
</a>
</g>
</g>
<!-- Node21 -->
<g id="Node000021" class="node">
<title>Node21</title>
<g id="a_Node000021"><a xlink:title=" ">
<polygon fill="#e0e0e0" stroke="#999999" points="1022.5,-151 914.5,-151 914.5,-132 1022.5,-132 1022.5,-151"/>
<text text-anchor="middle" x="968.5" y="-139" font-family="Helvetica,sans-Serif" font-size="10.00">G4VisAttributes.hh</text>
</a>
</g>
</g>
<!-- Node3&#45;&gt;Node21 -->
<g id="edge20_Node000003_Node000021" class="edge">
<title>Node3&#45;&gt;Node21</title>
<g id="a_edge20_Node000003_Node000021"><a xlink:title=" ">
<path fill="none" stroke="#63b8ff" d="M953.47,-186.75C955.86,-179.72 959.29,-169.62 962.27,-160.84"/>
<polygon fill="#63b8ff" stroke="#63b8ff" points="965.68,-161.68 965.58,-151.09 959.05,-159.43 965.68,-161.68"/>
</a>
</g>
</g>
<!-- Node22 -->
<g id="Node000022" class="node">
<title>Node22</title>
<g id="a_Node000022"><a xlink:title=" ">
<polygon fill="#e0e0e0" stroke="#999999" points="1166,-151 1041,-151 1041,-132 1166,-132 1166,-151"/>
<text text-anchor="middle" x="1103.5" y="-139" font-family="Helvetica,sans-Serif" font-size="10.00">G4SubtractionSolid.hh</text>
</a>
</g>
</g>
<!-- Node3&#45;&gt;Node22 -->
<g id="edge21_Node000003_Node000022" class="edge">
<title>Node3&#45;&gt;Node22</title>
<g id="a_edge21_Node000003_Node000022"><a xlink:title=" ">
<path fill="none" stroke="#63b8ff" d="M975.08,-186.98C1000.55,-178.16 1040.54,-164.31 1069.13,-154.41"/>
<polygon fill="#63b8ff" stroke="#63b8ff" points="1070.42,-157.66 1078.73,-151.08 1068.13,-151.05 1070.42,-157.66"/>
</a>
</g>
</g>
<!-- Node23 -->
<g id="Node000023" class="node">
<title>Node23</title>
<g id="a_Node000023"><a xlink:title=" ">
<polygon fill="#e0e0e0" stroke="#999999" points="1294.5,-151 1184.5,-151 1184.5,-132 1294.5,-132 1294.5,-151"/>
<text text-anchor="middle" x="1239.5" y="-139" font-family="Helvetica,sans-Serif" font-size="10.00">G4PVPlacement.hh</text>
</a>
</g>
</g>
<!-- Node3&#45;&gt;Node23 -->
<g id="edge22_Node000003_Node000023" class="edge">
<title>Node3&#45;&gt;Node23</title>
<g id="a_edge22_Node000003_Node000023"><a xlink:title=" ">
<path fill="none" stroke="#63b8ff" d="M996.93,-186.98C1047.45,-177.72 1128.24,-162.9 1182.55,-152.94"/>
<polygon fill="#63b8ff" stroke="#63b8ff" points="1183.5,-156.33 1192.7,-151.08 1182.24,-149.44 1183.5,-156.33"/>
</a>
</g>
</g>
<!-- Node5 -->
<g id="Node000005" class="node">
<title>Node5</title>
<g id="a_Node000005"><a xlink:href="_o_m_sim_logger_8hh_source.html" target="_top" xlink:title=" ">
<polygon fill="white" stroke="#666666" points="1150,-90.5 1051,-90.5 1051,-71.5 1150,-71.5 1150,-90.5"/>
<text text-anchor="middle" x="1100.5" y="-78.5" font-family="Helvetica,sans-Serif" font-size="10.00">OMSimLogger.hh</text>
</a>
</g>
</g>
<!-- Node4&#45;&gt;Node5 -->
<g id="edge4_Node000004_Node000005" class="edge">
<title>Node4&#45;&gt;Node5</title>
<g id="a_edge4_Node000004_Node000005"><a xlink:title=" ">
<path fill="none" stroke="#63b8ff" d="M769.77,-131.99C842.05,-121.07 966.96,-102.19 1040.84,-91.02"/>
<polygon fill="#63b8ff" stroke="#63b8ff" points="1041.55,-94.45 1050.92,-89.5 1040.51,-87.53 1041.55,-94.45"/>
</a>
</g>
</g>
<!-- Node10 -->
<g id="Node000010" class="node">
<title>Node10</title>
<g id="a_Node000010"><a xlink:href="_o_m_sim_op_boundary_process_8hh_source.html" target="_top" xlink:title=" ">
<polygon fill="white" stroke="#666666" points="621.5,-90.5 457.5,-90.5 457.5,-71.5 621.5,-71.5 621.5,-90.5"/>
<text text-anchor="middle" x="539.5" y="-78.5" font-family="Helvetica,sans-Serif" font-size="10.00">OMSimOpBoundaryProcess.hh</text>
</a>
</g>
</g>
<!-- Node4&#45;&gt;Node10 -->
<g id="edge9_Node000004_Node000010" class="edge">
<title>Node4&#45;&gt;Node10</title>
<g id="a_edge9_Node000004_Node000010"><a xlink:title=" ">
<path fill="none" stroke="#63b8ff" d="M688.2,-131.99C658.3,-121.94 608.38,-105.16 574.72,-93.84"/>
<polygon fill="#63b8ff" stroke="#63b8ff" points="575.43,-90.39 564.83,-90.52 573.19,-97.02 575.43,-90.39"/>
</a>
</g>
</g>
<!-- Node18 -->
<g id="Node000018" class="node">
<title>Node18</title>
<g id="a_Node000018"><a xlink:title=" ">
<polygon fill="#e0e0e0" stroke="#999999" points="422,-90.5 303,-90.5 303,-71.5 422,-71.5 422,-90.5"/>
<text text-anchor="middle" x="362.5" y="-78.5" font-family="Helvetica,sans-Serif" font-size="10.00">G4SystemOfUnits.hh</text>
</a>
</g>
</g>
<!-- Node4&#45;&gt;Node18 -->
<g id="edge17_Node000004_Node000018" class="edge">
<title>Node4&#45;&gt;Node18</title>
<g id="a_edge17_Node000004_Node000018"><a xlink:title=" ">
<path fill="none" stroke="#63b8ff" d="M662.46,-131.99C599.16,-121.44 491.36,-103.48 423.69,-92.2"/>
<polygon fill="#63b8ff" stroke="#63b8ff" points="424.04,-88.71 413.6,-90.52 422.89,-95.61 424.04,-88.71"/>
</a>
</g>
</g>
<!-- Node19 -->
<g id="Node000019" class="node">
<title>Node19</title>
<g id="a_Node000019"><a xlink:title=" ">
<polygon fill="#e0e0e0" stroke="#999999" points="770,-96 657,-96 657,-66 770,-66 770,-96"/>
<text text-anchor="start" x="665" y="-84" font-family="Helvetica,sans-Serif" font-size="10.00">boost/property_tree</text>
<text text-anchor="middle" x="713.5" y="-73" font-family="Helvetica,sans-Serif" font-size="10.00">/json_parser.hpp</text>
</a>
</g>
</g>
<!-- Node4&#45;&gt;Node19 -->
<g id="edge18_Node000004_Node000019" class="edge">
<title>Node4&#45;&gt;Node19</title>
<g id="a_edge18_Node000004_Node000019"><a xlink:title=" ">
<path fill="none" stroke="#63b8ff" d="M713.5,-131.87C713.5,-125.11 713.5,-115.35 713.5,-106.26"/>
<polygon fill="#63b8ff" stroke="#63b8ff" points="717,-106.11 713.5,-96.11 710,-106.11 717,-106.11"/>
</a>
</g>
</g>
<!-- Node6 -->
<g id="Node000006" class="node">
<title>Node6</title>
<g id="a_Node000006"><a xlink:title=" ">
<polygon fill="#e0e0e0" stroke="#999999" points="1147,-24.5 1054,-24.5 1054,-5.5 1147,-5.5 1147,-24.5"/>
<text text-anchor="middle" x="1100.5" y="-12.5" font-family="Helvetica,sans-Serif" font-size="10.00">spdlog/spdlog.h</text>
</a>
</g>
</g>
<!-- Node5&#45;&gt;Node6 -->
<g id="edge5_Node000005_Node000006" class="edge">
<title>Node5&#45;&gt;Node6</title>
<g id="a_edge5_Node000005_Node000006"><a xlink:title=" ">
<path fill="none" stroke="#63b8ff" d="M1100.5,-71.37C1100.5,-62.16 1100.5,-47.29 1100.5,-35.27"/>
<polygon fill="#63b8ff" stroke="#63b8ff" points="1104,-34.91 1100.5,-24.91 1097,-34.91 1104,-34.91"/>
</a>
</g>
</g>
<!-- Node7 -->
<g id="Node000007" class="node">
<title>Node7</title>
<g id="a_Node000007"><a xlink:title=" ">
<polygon fill="#e0e0e0" stroke="#999999" points="1276,-30 1165,-30 1165,0 1276,0 1276,-30"/>
<text text-anchor="start" x="1173" y="-18" font-family="Helvetica,sans-Serif" font-size="10.00">spdlog/sinks/stdout</text>
<text text-anchor="middle" x="1220.5" y="-7" font-family="Helvetica,sans-Serif" font-size="10.00">_color_sinks.h</text>
</a>
</g>
</g>
<!-- Node5&#45;&gt;Node7 -->
<g id="edge6_Node000005_Node000007" class="edge">
<title>Node5&#45;&gt;Node7</title>
<g id="a_edge6_Node000005_Node000007"><a xlink:title=" ">
<path fill="none" stroke="#63b8ff" d="M1116.68,-71.37C1134.11,-62.07 1162.39,-46.99 1185.04,-34.91"/>
<polygon fill="#63b8ff" stroke="#63b8ff" points="1186.86,-37.91 1194.03,-30.12 1183.56,-31.73 1186.86,-37.91"/>
</a>
</g>
</g>
<!-- Node8 -->
<g id="Node000008" class="node">
<title>Node8</title>
<g id="a_Node000008"><a xlink:title=" ">
<polygon fill="#e0e0e0" stroke="#999999" points="1352.5,-24.5 1294.5,-24.5 1294.5,-5.5 1352.5,-5.5 1352.5,-24.5"/>
<text text-anchor="middle" x="1323.5" y="-12.5" font-family="Helvetica,sans-Serif" font-size="10.00">memory</text>
</a>
</g>
</g>
<!-- Node5&#45;&gt;Node8 -->
<g id="edge7_Node000005_Node000008" class="edge">
<title>Node5&#45;&gt;Node8</title>
<g id="a_edge7_Node000005_Node000008"><a xlink:title=" ">
<path fill="none" stroke="#63b8ff" d="M1135.89,-71.43C1173.33,-62.14 1233.99,-46.41 1285.5,-30 1287.41,-29.39 1289.36,-28.75 1291.33,-28.08"/>
<polygon fill="#63b8ff" stroke="#63b8ff" points="1292.85,-31.25 1301.11,-24.62 1290.51,-24.65 1292.85,-31.25"/>
</a>
</g>
</g>
<!-- Node9 -->
<g id="Node000009" class="node">
<title>Node9</title>
<g id="a_Node000009"><a xlink:title=" ">
<polygon fill="#e0e0e0" stroke="#999999" points="1035.5,-24.5 937.5,-24.5 937.5,-5.5 1035.5,-5.5 1035.5,-24.5"/>
<text text-anchor="middle" x="986.5" y="-12.5" font-family="Helvetica,sans-Serif" font-size="10.00">spdlog/fmt/fmt.h</text>
</a>
</g>
</g>
<!-- Node5&#45;&gt;Node9 -->
<g id="edge8_Node000005_Node000009" class="edge">
<title>Node5&#45;&gt;Node9</title>
<g id="a_edge8_Node000005_Node000009"><a xlink:title=" ">
<path fill="none" stroke="#63b8ff" d="M1085.13,-71.37C1066.09,-60.68 1033.43,-42.35 1010.94,-29.72"/>
<polygon fill="#63b8ff" stroke="#63b8ff" points="1012.43,-26.54 1002,-24.7 1009,-32.65 1012.43,-26.54"/>
</a>
</g>
</g>
<!-- Node11 -->
<g id="Node000011" class="node">
<title>Node11</title>
<g id="a_Node000011"><a xlink:title=" ">
<polygon fill="#e0e0e0" stroke="#999999" points="113,-24.5 0,-24.5 0,-5.5 113,-5.5 113,-24.5"/>
<text text-anchor="middle" x="56.5" y="-12.5" font-family="Helvetica,sans-Serif" font-size="10.00">G4OpticalPhoton.hh</text>
</a>
</g>
</g>
<!-- Node10&#45;&gt;Node11 -->
<g id="edge10_Node000010_Node000011" class="edge">
<title>Node10&#45;&gt;Node11</title>
<g id="a_edge10_Node000010_Node000011"><a xlink:title=" ">
<path fill="none" stroke="#63b8ff" d="M474.1,-71.48C459.74,-69.64 444.61,-67.73 430.5,-66 293.7,-49.22 258.5,-52.32 122.5,-30 116.36,-28.99 109.92,-27.8 103.57,-26.54"/>
<polygon fill="#63b8ff" stroke="#63b8ff" points="104.23,-23.1 93.73,-24.53 102.83,-29.96 104.23,-23.1"/>
</a>
</g>
</g>
<!-- Node12 -->
<g id="Node000012" class="node">
<title>Node12</title>
<g id="a_Node000012"><a xlink:title=" ">
<polygon fill="#e0e0e0" stroke="#999999" points="247.5,-24.5 131.5,-24.5 131.5,-5.5 247.5,-5.5 247.5,-24.5"/>
<text text-anchor="middle" x="189.5" y="-12.5" font-family="Helvetica,sans-Serif" font-size="10.00">G4OpticalSurface.hh</text>
</a>
</g>
</g>
<!-- Node10&#45;&gt;Node12 -->
<g id="edge11_Node000010_Node000012" class="edge">
<title>Node10&#45;&gt;Node12</title>
<g id="a_edge11_Node000010_Node000012"><a xlink:title=" ">
<path fill="none" stroke="#63b8ff" d="M488.54,-71.49C431.82,-61.9 337.46,-45.61 256.5,-30 251.03,-28.95 245.32,-27.81 239.63,-26.65"/>
<polygon fill="#63b8ff" stroke="#63b8ff" points="239.99,-23.15 229.49,-24.57 238.58,-30.01 239.99,-23.15"/>
</a>
</g>
</g>
<!-- Node13 -->
<g id="Node000013" class="node">
<title>Node13</title>
<g id="a_Node000013"><a xlink:title=" ">
<polygon fill="#e0e0e0" stroke="#999999" points="375.5,-24.5 265.5,-24.5 265.5,-5.5 375.5,-5.5 375.5,-24.5"/>
<text text-anchor="middle" x="320.5" y="-12.5" font-family="Helvetica,sans-Serif" font-size="10.00">G4RandomTools.hh</text>
</a>
</g>
</g>
<!-- Node10&#45;&gt;Node13 -->
<g id="edge12_Node000010_Node000013" class="edge">
<title>Node10&#45;&gt;Node13</title>
<g id="a_edge12_Node000010_Node000013"><a xlink:title=" ">
<path fill="none" stroke="#63b8ff" d="M509.96,-71.37C471.16,-60.03 402.9,-40.08 359.78,-27.48"/>
<polygon fill="#63b8ff" stroke="#63b8ff" points="360.5,-24.04 349.92,-24.6 358.53,-30.76 360.5,-24.04"/>
</a>
</g>
</g>
<!-- Node14 -->
<g id="Node000014" class="node">
<title>Node14</title>
<g id="a_Node000014"><a xlink:title=" ">
<polygon fill="#e0e0e0" stroke="#999999" points="523.5,-24.5 393.5,-24.5 393.5,-5.5 523.5,-5.5 523.5,-24.5"/>
<text text-anchor="middle" x="458.5" y="-12.5" font-family="Helvetica,sans-Serif" font-size="10.00">G4VDiscreteProcess.hh</text>
</a>
</g>
</g>
<!-- Node10&#45;&gt;Node14 -->
<g id="edge13_Node000010_Node000014" class="edge">
<title>Node10&#45;&gt;Node14</title>
<g id="a_edge13_Node000010_Node000014"><a xlink:title=" ">
<path fill="none" stroke="#63b8ff" d="M528.58,-71.37C515.53,-61.06 493.49,-43.65 477.6,-31.09"/>
<polygon fill="#63b8ff" stroke="#63b8ff" points="479.53,-28.15 469.51,-24.7 475.19,-33.64 479.53,-28.15"/>
</a>
</g>
</g>
<!-- Node15 -->
<g id="Node000015" class="node">
<title>Node15</title>
<g id="a_Node000015"><a xlink:title=" ">
<polygon fill="#e0e0e0" stroke="#999999" points="699,-24.5 542,-24.5 542,-5.5 699,-5.5 699,-24.5"/>
<text text-anchor="middle" x="620.5" y="-12.5" font-family="Helvetica,sans-Serif" font-size="10.00">G4VUserTrackInformation.hh</text>
</a>
</g>
</g>
<!-- Node10&#45;&gt;Node15 -->
<g id="edge14_Node000010_Node000015" class="edge">
<title>Node10&#45;&gt;Node15</title>
<g id="a_edge14_Node000010_Node000015"><a xlink:title=" ">
<path fill="none" stroke="#63b8ff" d="M550.42,-71.37C563.47,-61.06 585.51,-43.65 601.4,-31.09"/>
<polygon fill="#63b8ff" stroke="#63b8ff" points="603.81,-33.64 609.49,-24.7 599.47,-28.15 603.81,-33.64"/>
</a>
</g>
</g>
<!-- Node16 -->
<g id="Node000016" class="node">
<title>Node16</title>
<g id="a_Node000016"><a xlink:title=" ">
<polygon fill="#e0e0e0" stroke="#999999" points="807.5,-24.5 717.5,-24.5 717.5,-5.5 807.5,-5.5 807.5,-24.5"/>
<text text-anchor="middle" x="762.5" y="-12.5" font-family="Helvetica,sans-Serif" font-size="10.00">G4AutoLock.hh</text>
</a>
</g>
</g>
<!-- Node10&#45;&gt;Node16 -->
<g id="edge15_Node000010_Node000016" class="edge">
<title>Node10&#45;&gt;Node16</title>
<g id="a_edge15_Node000010_Node000016"><a xlink:title=" ">
<path fill="none" stroke="#63b8ff" d="M569.57,-71.37C609.17,-60 678.89,-40 722.79,-27.4"/>
<polygon fill="#63b8ff" stroke="#63b8ff" points="723.9,-30.72 732.55,-24.6 721.97,-23.99 723.9,-30.72"/>
</a>
</g>
</g>
<!-- Node17 -->
<g id="Node000017" class="node">
<title>Node17</title>
<g id="a_Node000017"><a xlink:title=" ">
<polygon fill="#e0e0e0" stroke="#999999" points="919.5,-24.5 825.5,-24.5 825.5,-5.5 919.5,-5.5 919.5,-24.5"/>
<text text-anchor="middle" x="872.5" y="-12.5" font-family="Helvetica,sans-Serif" font-size="10.00">G4Threading.hh</text>
</a>
</g>
</g>
<!-- Node10&#45;&gt;Node17 -->
<g id="edge16_Node000010_Node000017" class="edge">
<title>Node10&#45;&gt;Node17</title>
<g id="a_edge16_Node000010_Node000017"><a xlink:title=" ">
<path fill="none" stroke="#63b8ff" d="M592.81,-71.46C648.74,-62.24 739.1,-46.64 816.5,-30 820.92,-29.05 825.52,-28 830.1,-26.92"/>
<polygon fill="#63b8ff" stroke="#63b8ff" points="831.12,-30.27 840.01,-24.51 829.47,-23.47 831.12,-30.27"/>
</a>
</g>
</g>
<!-- Node24&#45;&gt;Node18 -->
<g id="edge25_Node000024_Node000018" class="edge">
<title>Node24&#45;&gt;Node18</title>
<g id="a_edge25_Node000024_Node000018"><a xlink:title=" ">
<path fill="none" stroke="#63b8ff" d="M448.8,-186.98C409.41,-179.51 360.75,-167.29 348.5,-151 337.29,-136.09 344.42,-114.45 352,-99.39"/>
<polygon fill="#63b8ff" stroke="#63b8ff" points="355.1,-101.03 356.87,-90.58 348.97,-97.64 355.1,-101.03"/>
</a>
</g>
</g>
<!-- Node25 -->
<g id="Node000025" class="node">
<title>Node25</title>
<g id="a_Node000025"><a xlink:title=" ">
<polygon fill="#e0e0e0" stroke="#999999" points="431,-151 358,-151 358,-132 431,-132 431,-151"/>
<text text-anchor="middle" x="394.5" y="-139" font-family="Helvetica,sans-Serif" font-size="10.00">G4Types.hh</text>
</a>
</g>
</g>
<!-- Node24&#45;&gt;Node25 -->
<g id="edge26_Node000024_Node000025" class="edge">
<title>Node24&#45;&gt;Node25</title>
<g id="a_edge26_Node000024_Node000025"><a xlink:title=" ">
<path fill="none" stroke="#63b8ff" d="M485.15,-186.98C467.93,-178.54 441.3,-165.47 421.35,-155.68"/>
<polygon fill="#63b8ff" stroke="#63b8ff" points="422.69,-152.43 412.17,-151.17 419.6,-158.72 422.69,-152.43"/>
</a>
</g>
</g>
<!-- Node26 -->
<g id="Node000026" class="node">
<title>Node26</title>
<g id="a_Node000026"><a xlink:title=" ">
<polygon fill="#e0e0e0" stroke="#999999" points="487.5,-151 449.5,-151 449.5,-132 487.5,-132 487.5,-151"/>
<text text-anchor="middle" x="468.5" y="-139" font-family="Helvetica,sans-Serif" font-size="10.00">map</text>
</a>
</g>
</g>
<!-- Node24&#45;&gt;Node26 -->
<g id="edge27_Node000024_Node000026" class="edge">
<title>Node24&#45;&gt;Node26</title>
<g id="a_edge27_Node000024_Node000026"><a xlink:title=" ">
<path fill="none" stroke="#63b8ff" d="M496.89,-186.75C492.18,-179.42 485.33,-168.73 479.53,-159.7"/>
<polygon fill="#63b8ff" stroke="#63b8ff" points="482.36,-157.62 474.01,-151.09 476.46,-161.4 482.36,-157.62"/>
</a>
</g>
</g>
<!-- Node27 -->
<g id="Node000027" class="node">
<title>Node27</title>
<g id="a_Node000027"><a xlink:title=" ">
<polygon fill="#e0e0e0" stroke="#999999" points="567,-151 506,-151 506,-132 567,-132 567,-151"/>
<text text-anchor="middle" x="536.5" y="-139" font-family="Helvetica,sans-Serif" font-size="10.00">TGraph.h</text>
</a>
</g>
</g>
<!-- Node24&#45;&gt;Node27 -->
<g id="edge28_Node000024_Node000027" class="edge">
<title>Node24&#45;&gt;Node27</title>
<g id="a_edge28_Node000024_Node000027"><a xlink:title=" ">
<path fill="none" stroke="#63b8ff" d="M508.11,-186.75C512.82,-179.42 519.67,-168.73 525.47,-159.7"/>
<polygon fill="#63b8ff" stroke="#63b8ff" points="528.54,-161.4 530.99,-151.09 522.64,-157.62 528.54,-161.4"/>
</a>
</g>
</g>
<!-- Node28 -->
<g id="Node000028" class="node">
<title>Node28</title>
<g id="a_Node000028"><a xlink:title=" ">
<polygon fill="#e0e0e0" stroke="#999999" points="638,-151 585,-151 585,-132 638,-132 638,-151"/>
<text text-anchor="middle" x="611.5" y="-139" font-family="Helvetica,sans-Serif" font-size="10.00">TH2D.h</text>
</a>
</g>
</g>
<!-- Node24&#45;&gt;Node28 -->
<g id="edge29_Node000024_Node000028" class="edge">
<title>Node24&#45;&gt;Node28</title>
<g id="a_edge29_Node000024_Node000028"><a xlink:title=" ">
<path fill="none" stroke="#63b8ff" d="M520.01,-186.98C537.47,-178.5 564.51,-165.35 584.67,-155.54"/>
<polygon fill="#63b8ff" stroke="#63b8ff" points="586.21,-158.69 593.67,-151.17 583.14,-152.4 586.21,-158.69"/>
</a>
</g>
</g>
<!-- Node31&#45;&gt;Node2 -->
<g id="edge35_Node000031_Node000002" class="edge">
<title>Node31&#45;&gt;Node2</title>
<g id="a_edge35_Node000031_Node000002"><a xlink:title=" ">
<path fill="none" stroke="#63b8ff" d="M816.92,-296.98C791.45,-288.16 751.46,-274.31 722.87,-264.41"/>
<polygon fill="#63b8ff" stroke="#63b8ff" points="723.87,-261.05 713.27,-261.08 721.58,-267.66 723.87,-261.05"/>
</a>
</g>
</g>
<!-- Node31&#45;&gt;Node3 -->
<g id="edge33_Node000031_Node000003" class="edge">
<title>Node31&#45;&gt;Node3</title>
<g id="a_edge33_Node000031_Node000003"><a xlink:title=" ">
<path fill="none" stroke="#63b8ff" d="M873.07,-296.97C892.48,-290.2 916.43,-278.85 931.5,-261 942.06,-248.5 946.75,-230.29 948.83,-216.58"/>
<polygon fill="#63b8ff" stroke="#63b8ff" points="952.34,-216.68 950.04,-206.34 945.39,-215.86 952.34,-216.68"/>
</a>
</g>
</g>
<!-- Node32 -->
<g id="Node000032" class="node">
<title>Node32</title>
<g id="a_Node000032"><a xlink:title=" ">
<polygon fill="#e0e0e0" stroke="#999999" points="922,-261 799,-261 799,-242 922,-242 922,-261"/>
<text text-anchor="middle" x="860.5" y="-249" font-family="Helvetica,sans-Serif" font-size="10.00">OMSimHitManager.hh</text>
</a>
</g>
</g>
<!-- Node31&#45;&gt;Node32 -->
<g id="edge34_Node000031_Node000032" class="edge">
<title>Node31&#45;&gt;Node32</title>
<g id="a_edge34_Node000031_Node000032"><a xlink:title=" ">
<path fill="none" stroke="#63b8ff" d="M844.64,-296.75C847.18,-289.65 850.86,-279.4 854.03,-270.56"/>
<polygon fill="#63b8ff" stroke="#63b8ff" points="857.34,-271.68 857.42,-261.09 850.75,-269.32 857.34,-271.68"/>
</a>
</g>
</g>
</g>
</svg>
