<?xml version="1.0" encoding="UTF-8" standalone="no"?>
<!DOCTYPE svg PUBLIC "-//W3C//DTD SVG 1.1//EN"
 "http://www.w3.org/Graphics/SVG/1.1/DTD/svg11.dtd">
<!-- Generated by graphviz version 2.43.0 (0)
 -->
<!-- Title: OMSimMDOMHarness.cc Pages: 1 -->
<svg width="1317pt" height="442pt"
 viewBox="0.00 0.00 1316.50 442.00" xmlns="http://www.w3.org/2000/svg" xmlns:xlink="http://www.w3.org/1999/xlink">
<g id="graph0" class="graph" transform="scale(1 1) rotate(0) translate(4 438)">
<title>OMSimMDOMHarness.cc</title>
<polygon fill="white" stroke="transparent" points="-4,4 -4,-438 1312.5,-438 1312.5,4 -4,4"/>
<!-- Node1 -->
<g id="node1" class="node">
<title>Node1</title>
<g id="a_node1"><a xlink:title=" ">
<polygon fill="#bfbfbf" stroke="black" points="792,-414.5 792,-433.5 930,-433.5 930,-414.5 792,-414.5"/>
<text text-anchor="middle" x="861" y="-421.5" font-family="Helvetica,sans-Serif" font-size="10.00">OMSimMDOMHarness.cc</text>
</a>
</g>
</g>
<!-- Node2 -->
<g id="node2" class="node">
<title>Node2</title>
<g id="a_node2"><a xlink:href="_o_m_sim_m_d_o_m_harness_8hh.html" target="_top" xlink:title="Construction of mDOM harness.">
<polygon fill="white" stroke="black" points="215,-358.5 215,-377.5 355,-377.5 355,-358.5 215,-358.5"/>
<text text-anchor="middle" x="285" y="-365.5" font-family="Helvetica,sans-Serif" font-size="10.00">OMSimMDOMHarness.hh</text>
</a>
</g>
</g>
<!-- Node1&#45;&gt;Node2 -->
<g id="edge1" class="edge">
<title>Node1&#45;&gt;Node2</title>
<path fill="none" stroke="midnightblue" d="M791.81,-416.51C684.59,-406.46 478.88,-387.18 365.28,-376.53"/>
<polygon fill="midnightblue" stroke="midnightblue" points="365.54,-373.04 355.26,-375.59 364.89,-380 365.54,-373.04"/>
</g>
<!-- Node19 -->
<g id="node19" class="node">
<title>Node19</title>
<g id="a_node19"><a xlink:href="_o_m_sim_m_d_o_m_8hh.html" target="_top" xlink:title="Construction of mDOM.">
<polygon fill="white" stroke="black" points="526,-358.5 526,-377.5 626,-377.5 626,-358.5 526,-358.5"/>
<text text-anchor="middle" x="576" y="-365.5" font-family="Helvetica,sans-Serif" font-size="10.00">OMSimMDOM.hh</text>
</a>
</g>
</g>
<!-- Node1&#45;&gt;Node19 -->
<g id="edge18" class="edge">
<title>Node1&#45;&gt;Node19</title>
<path fill="none" stroke="midnightblue" d="M815.84,-414.44C765.71,-404.94 684.78,-389.61 630.99,-379.42"/>
<polygon fill="midnightblue" stroke="midnightblue" points="631.42,-375.94 620.95,-377.52 630.12,-382.82 631.42,-375.94"/>
</g>
<!-- Node34 -->
<g id="node34" class="node">
<title>Node34</title>
<g id="a_node34"><a xlink:href="_o_m_sim_command_args_table_8hh.html" target="_top" xlink:title="Definition of the OMSimCommandArgsTable singleton class, which controls user args.">
<polygon fill="white" stroke="black" points="976,-246.5 976,-265.5 1140,-265.5 1140,-246.5 976,-246.5"/>
<text text-anchor="middle" x="1058" y="-253.5" font-family="Helvetica,sans-Serif" font-size="10.00">OMSimCommandArgsTable.hh</text>
</a>
</g>
</g>
<!-- Node1&#45;&gt;Node34 -->
<g id="edge41" class="edge">
<title>Node1&#45;&gt;Node34</title>
<path fill="none" stroke="midnightblue" d="M809.58,-414.48C767.89,-405.22 719.33,-387.65 741,-358 771.59,-316.14 915.15,-283.33 998.21,-267.45"/>
<polygon fill="midnightblue" stroke="midnightblue" points="999.09,-270.85 1008.27,-265.55 997.8,-263.97 999.09,-270.85"/>
</g>
<!-- Node37 -->
<g id="node37" class="node">
<title>Node37</title>
<g id="a_node37"><a xlink:title=" ">
<polygon fill="white" stroke="#bfbfbf" points="750,-358.5 750,-377.5 860,-377.5 860,-358.5 750,-358.5"/>
<text text-anchor="middle" x="805" y="-365.5" font-family="Helvetica,sans-Serif" font-size="10.00">G4EllipticalTube.hh</text>
</a>
</g>
</g>
<!-- Node1&#45;&gt;Node37 -->
<g id="edge46" class="edge">
<title>Node1&#45;&gt;Node37</title>
<path fill="none" stroke="midnightblue" d="M852,-414.32C843.81,-406.42 831.49,-394.55 821.53,-384.94"/>
<polygon fill="midnightblue" stroke="midnightblue" points="823.79,-382.26 814.16,-377.83 818.93,-387.29 823.79,-382.26"/>
</g>
<!-- Node38 -->
<g id="node38" class="node">
<title>Node38</title>
<g id="a_node38"><a xlink:title=" ">
<polygon fill="white" stroke="#bfbfbf" points="878.5,-358.5 878.5,-377.5 957.5,-377.5 957.5,-358.5 878.5,-358.5"/>
<text text-anchor="middle" x="918" y="-365.5" font-family="Helvetica,sans-Serif" font-size="10.00">G4Sphere.hh</text>
</a>
</g>
</g>
<!-- Node1&#45;&gt;Node38 -->
<g id="edge47" class="edge">
<title>Node1&#45;&gt;Node38</title>
<path fill="none" stroke="midnightblue" d="M870.16,-414.32C878.5,-406.42 891.03,-394.55 901.18,-384.94"/>
<polygon fill="midnightblue" stroke="midnightblue" points="903.82,-387.25 908.68,-377.83 899.01,-382.17 903.82,-387.25"/>
</g>
<!-- Node39 -->
<g id="node39" class="node">
<title>Node39</title>
<g id="a_node39"><a xlink:title=" ">
<polygon fill="white" stroke="#bfbfbf" points="975.5,-358.5 975.5,-377.5 1112.5,-377.5 1112.5,-358.5 975.5,-358.5"/>
<text text-anchor="middle" x="1044" y="-365.5" font-family="Helvetica,sans-Serif" font-size="10.00">G4LogicalSkinSurface.hh</text>
</a>
</g>
</g>
<!-- Node1&#45;&gt;Node39 -->
<g id="edge48" class="edge">
<title>Node1&#45;&gt;Node39</title>
<path fill="none" stroke="midnightblue" d="M890,-414.44C921.18,-405.24 970.93,-390.56 1005.41,-380.39"/>
<polygon fill="midnightblue" stroke="midnightblue" points="1006.54,-383.7 1015.14,-377.52 1004.56,-376.99 1006.54,-383.7"/>
</g>
<!-- Node40 -->
<g id="node40" class="node">
<title>Node40</title>
<g id="a_node40"><a xlink:title=" ">
<polygon fill="white" stroke="#bfbfbf" points="1130.5,-358.5 1130.5,-377.5 1219.5,-377.5 1219.5,-358.5 1130.5,-358.5"/>
<text text-anchor="middle" x="1175" y="-365.5" font-family="Helvetica,sans-Serif" font-size="10.00">G4Polycone.hh</text>
</a>
</g>
</g>
<!-- Node1&#45;&gt;Node40 -->
<g id="edge49" class="edge">
<title>Node1&#45;&gt;Node40</title>
<path fill="none" stroke="midnightblue" d="M910.75,-414.44C967.81,-404.63 1061.05,-388.6 1120.16,-378.43"/>
<polygon fill="midnightblue" stroke="midnightblue" points="1120.8,-381.87 1130.06,-376.73 1119.61,-374.97 1120.8,-381.87"/>
</g>
<!-- Node41 -->
<g id="node41" class="node">
<title>Node41</title>
<g id="a_node41"><a xlink:title=" ">
<polygon fill="white" stroke="#bfbfbf" points="1237.5,-358.5 1237.5,-377.5 1308.5,-377.5 1308.5,-358.5 1237.5,-358.5"/>
<text text-anchor="middle" x="1273" y="-365.5" font-family="Helvetica,sans-Serif" font-size="10.00">G4Torus.hh</text>
</a>
</g>
</g>
<!-- Node1&#45;&gt;Node41 -->
<g id="edge50" class="edge">
<title>Node1&#45;&gt;Node41</title>
<path fill="none" stroke="midnightblue" d="M930.08,-416.22C1001.96,-408.79 1118.01,-395.74 1226.85,-378.25"/>
<polygon fill="midnightblue" stroke="midnightblue" points="1227.71,-381.66 1237.02,-376.6 1226.59,-374.75 1227.71,-381.66"/>
</g>
<!-- Node3 -->
<g id="node3" class="node">
<title>Node3</title>
<g id="a_node3"><a xlink:href="abc_detector_component_8hh.html" target="_top" xlink:title="Provides helper base class abcDetectorComponent for constructing and managing detector components in ...">
<polygon fill="white" stroke="black" points="309.5,-190.5 309.5,-209.5 456.5,-209.5 456.5,-190.5 309.5,-190.5"/>
<text text-anchor="middle" x="383" y="-197.5" font-family="Helvetica,sans-Serif" font-size="10.00">abcDetectorComponent.hh</text>
</a>
</g>
</g>
<!-- Node2&#45;&gt;Node3 -->
<g id="edge2" class="edge">
<title>Node2&#45;&gt;Node3</title>
<path fill="none" stroke="midnightblue" d="M290.11,-358.45C295.45,-349.45 304,-334.83 311,-322 329.17,-288.66 330.04,-278.3 350,-246 355.98,-236.32 363.43,-226.04 369.73,-217.76"/>
<polygon fill="midnightblue" stroke="midnightblue" points="372.63,-219.72 376,-209.68 367.1,-215.43 372.63,-219.72"/>
</g>
<!-- Node17 -->
<g id="node17" class="node">
<title>Node17</title>
<g id="a_node17"><a xlink:title=" ">
<polygon fill="white" stroke="#bfbfbf" points="175.5,-302.5 175.5,-321.5 302.5,-321.5 302.5,-302.5 175.5,-302.5"/>
<text text-anchor="middle" x="239" y="-309.5" font-family="Helvetica,sans-Serif" font-size="10.00">G4IntersectionSolid.hh</text>
</a>
</g>
</g>
<!-- Node2&#45;&gt;Node17 -->
<g id="edge16" class="edge">
<title>Node2&#45;&gt;Node17</title>
<path fill="none" stroke="midnightblue" d="M277.4,-358.08C270.77,-350.3 260.98,-338.8 252.94,-329.37"/>
<polygon fill="midnightblue" stroke="midnightblue" points="255.6,-327.09 246.45,-321.75 250.27,-331.63 255.6,-327.09"/>
</g>
<!-- Node18 -->
<g id="node18" class="node">
<title>Node18</title>
<g id="a_node18"><a xlink:title=" ">
<polygon fill="white" stroke="#bfbfbf" points="88.5,-302.5 88.5,-321.5 157.5,-321.5 157.5,-302.5 88.5,-302.5"/>
<text text-anchor="middle" x="123" y="-309.5" font-family="Helvetica,sans-Serif" font-size="10.00">G4Cons.hh</text>
</a>
</g>
</g>
<!-- Node2&#45;&gt;Node18 -->
<g id="edge17" class="edge">
<title>Node2&#45;&gt;Node18</title>
<path fill="none" stroke="midnightblue" d="M259.33,-358.44C232.08,-349.36 188.82,-334.94 158.35,-324.78"/>
<polygon fill="midnightblue" stroke="midnightblue" points="159.14,-321.36 148.55,-321.52 156.93,-328 159.14,-321.36"/>
</g>
<!-- Node4 -->
<g id="node4" class="node">
<title>Node4</title>
<g id="a_node4"><a xlink:href="_o_m_sim_input_data_8hh.html" target="_top" xlink:title="Definition of ParameterTable and InputDataManager.">
<polygon fill="white" stroke="black" points="398.5,-134.5 398.5,-153.5 513.5,-153.5 513.5,-134.5 398.5,-134.5"/>
<text text-anchor="middle" x="456" y="-141.5" font-family="Helvetica,sans-Serif" font-size="10.00">OMSimInputData.hh</text>
</a>
</g>
</g>
<!-- Node3&#45;&gt;Node4 -->
<g id="edge3" class="edge">
<title>Node3&#45;&gt;Node4</title>
<path fill="none" stroke="midnightblue" d="M394.73,-190.32C405.84,-182.11 422.74,-169.6 435.98,-159.81"/>
<polygon fill="midnightblue" stroke="midnightblue" points="438.1,-162.59 444.06,-153.83 433.94,-156.97 438.1,-162.59"/>
</g>
<!-- Node13 -->
<g id="node13" class="node">
<title>Node13</title>
<g id="a_node13"><a xlink:title=" ">
<polygon fill="white" stroke="#bfbfbf" points="531.5,-134.5 531.5,-153.5 638.5,-153.5 638.5,-134.5 531.5,-134.5"/>
<text text-anchor="middle" x="585" y="-141.5" font-family="Helvetica,sans-Serif" font-size="10.00">G4Transform3D.hh</text>
</a>
</g>
</g>
<!-- Node3&#45;&gt;Node13 -->
<g id="edge12" class="edge">
<title>Node3&#45;&gt;Node13</title>
<path fill="none" stroke="midnightblue" d="M415.01,-190.44C449.73,-181.16 505.29,-166.31 543.38,-156.13"/>
<polygon fill="midnightblue" stroke="midnightblue" points="544.39,-159.48 553.14,-153.52 542.58,-152.72 544.39,-159.48"/>
</g>
<!-- Node14 -->
<g id="node14" class="node">
<title>Node14</title>
<g id="a_node14"><a xlink:title=" ">
<polygon fill="white" stroke="#bfbfbf" points="0,-134.5 0,-153.5 108,-153.5 108,-134.5 0,-134.5"/>
<text text-anchor="middle" x="54" y="-141.5" font-family="Helvetica,sans-Serif" font-size="10.00">G4VisAttributes.hh</text>
</a>
</g>
</g>
<!-- Node3&#45;&gt;Node14 -->
<g id="edge13" class="edge">
<title>Node3&#45;&gt;Node14</title>
<path fill="none" stroke="midnightblue" d="M330.87,-190.44C272.51,-180.87 178.02,-165.36 115.94,-155.17"/>
<polygon fill="midnightblue" stroke="midnightblue" points="116.32,-151.68 105.89,-153.52 115.19,-158.59 116.32,-151.68"/>
</g>
<!-- Node15 -->
<g id="node15" class="node">
<title>Node15</title>
<g id="a_node15"><a xlink:title=" ">
<polygon fill="white" stroke="#bfbfbf" points="126.5,-134.5 126.5,-153.5 251.5,-153.5 251.5,-134.5 126.5,-134.5"/>
<text text-anchor="middle" x="189" y="-141.5" font-family="Helvetica,sans-Serif" font-size="10.00">G4SubtractionSolid.hh</text>
</a>
</g>
</g>
<!-- Node3&#45;&gt;Node15 -->
<g id="edge14" class="edge">
<title>Node3&#45;&gt;Node15</title>
<path fill="none" stroke="midnightblue" d="M352.26,-190.44C319.06,-181.2 266.01,-166.44 229.44,-156.26"/>
<polygon fill="midnightblue" stroke="midnightblue" points="230.17,-152.83 219.6,-153.52 228.29,-159.57 230.17,-152.83"/>
</g>
<!-- Node16 -->
<g id="node16" class="node">
<title>Node16</title>
<g id="a_node16"><a xlink:title=" ">
<polygon fill="white" stroke="#bfbfbf" points="270,-134.5 270,-153.5 380,-153.5 380,-134.5 270,-134.5"/>
<text text-anchor="middle" x="325" y="-141.5" font-family="Helvetica,sans-Serif" font-size="10.00">G4PVPlacement.hh</text>
</a>
</g>
</g>
<!-- Node3&#45;&gt;Node16 -->
<g id="edge15" class="edge">
<title>Node3&#45;&gt;Node16</title>
<path fill="none" stroke="midnightblue" d="M373.68,-190.32C365.11,-182.34 352.19,-170.31 341.81,-160.65"/>
<polygon fill="midnightblue" stroke="midnightblue" points="344.19,-158.09 334.49,-153.83 339.42,-163.21 344.19,-158.09"/>
</g>
<!-- Node5 -->
<g id="node5" class="node">
<title>Node5</title>
<g id="a_node5"><a xlink:href="_o_m_sim_logger_8hh.html" target="_top" xlink:title=" ">
<polygon fill="white" stroke="black" points="903.5,-73 903.5,-92 1002.5,-92 1002.5,-73 903.5,-73"/>
<text text-anchor="middle" x="953" y="-80" font-family="Helvetica,sans-Serif" font-size="10.00">OMSimLogger.hh</text>
</a>
</g>
</g>
<!-- Node4&#45;&gt;Node5 -->
<g id="edge4" class="edge">
<title>Node4&#45;&gt;Node5</title>
<path fill="none" stroke="midnightblue" d="M513.58,-135.08C516.43,-134.71 519.25,-134.35 522,-134 654.37,-117.22 809.88,-99.49 893.15,-90.15"/>
<polygon fill="midnightblue" stroke="midnightblue" points="893.64,-93.62 903.19,-89.03 892.86,-86.66 893.64,-93.62"/>
</g>
<!-- Node10 -->
<g id="node10" class="node">
<title>Node10</title>
<g id="a_node10"><a xlink:title=" ">
<polygon fill="white" stroke="#bfbfbf" points="311.5,-73 311.5,-92 454.5,-92 454.5,-73 311.5,-73"/>
<text text-anchor="middle" x="383" y="-80" font-family="Helvetica,sans-Serif" font-size="10.00">G4OpBoundaryProcess.hh</text>
</a>
</g>
</g>
<!-- Node4&#45;&gt;Node10 -->
<g id="edge9" class="edge">
<title>Node4&#45;&gt;Node10</title>
<path fill="none" stroke="midnightblue" d="M445.54,-134.48C434.05,-125.11 415.37,-109.88 401.41,-98.51"/>
<polygon fill="midnightblue" stroke="midnightblue" points="403.4,-95.61 393.44,-92.01 398.98,-101.04 403.4,-95.61"/>
</g>
<!-- Node11 -->
<g id="node11" class="node">
<title>Node11</title>
<g id="a_node11"><a xlink:title=" ">
<polygon fill="white" stroke="#bfbfbf" points="672.5,-73 672.5,-92 791.5,-92 791.5,-73 672.5,-73"/>
<text text-anchor="middle" x="732" y="-80" font-family="Helvetica,sans-Serif" font-size="10.00">G4SystemOfUnits.hh</text>
</a>
</g>
</g>
<!-- Node4&#45;&gt;Node11 -->
<g id="edge10" class="edge">
<title>Node4&#45;&gt;Node11</title>
<path fill="none" stroke="midnightblue" d="M495.54,-134.48C544.83,-123.85 629.09,-105.68 682.59,-94.15"/>
<polygon fill="midnightblue" stroke="midnightblue" points="683.49,-97.54 692.53,-92.01 682.02,-90.7 683.49,-97.54"/>
</g>
<!-- Node12 -->
<g id="node12" class="node">
<title>Node12</title>
<g id="a_node12"><a xlink:title=" ">
<polygon fill="white" stroke="#bfbfbf" points="472.5,-67.5 472.5,-97.5 585.5,-97.5 585.5,-67.5 472.5,-67.5"/>
<text text-anchor="start" x="480.5" y="-85.5" font-family="Helvetica,sans-Serif" font-size="10.00">boost/property_tree</text>
<text text-anchor="middle" x="529" y="-74.5" font-family="Helvetica,sans-Serif" font-size="10.00">/json_parser.hpp</text>
</a>
</g>
</g>
<!-- Node4&#45;&gt;Node12 -->
<g id="edge11" class="edge">
<title>Node4&#45;&gt;Node12</title>
<path fill="none" stroke="midnightblue" d="M466.46,-134.48C476.16,-126.57 490.99,-114.48 503.77,-104.07"/>
<polygon fill="midnightblue" stroke="midnightblue" points="506.26,-106.55 511.8,-97.52 501.83,-101.13 506.26,-106.55"/>
</g>
<!-- Node6 -->
<g id="node6" class="node">
<title>Node6</title>
<g id="a_node6"><a xlink:title=" ">
<polygon fill="white" stroke="#bfbfbf" points="734.5,-6 734.5,-25 827.5,-25 827.5,-6 734.5,-6"/>
<text text-anchor="middle" x="781" y="-13" font-family="Helvetica,sans-Serif" font-size="10.00">spdlog/spdlog.h</text>
</a>
</g>
</g>
<!-- Node5&#45;&gt;Node6 -->
<g id="edge5" class="edge">
<title>Node5&#45;&gt;Node6</title>
<path fill="none" stroke="midnightblue" d="M930.16,-72.87C900.13,-61.52 847.22,-41.52 813.16,-28.65"/>
<polygon fill="midnightblue" stroke="midnightblue" points="814.25,-25.32 803.66,-25.06 811.78,-31.87 814.25,-25.32"/>
</g>
<!-- Node7 -->
<g id="node7" class="node">
<title>Node7</title>
<g id="a_node7"><a xlink:title=" ">
<polygon fill="white" stroke="#bfbfbf" points="845.5,-0.5 845.5,-30.5 956.5,-30.5 956.5,-0.5 845.5,-0.5"/>
<text text-anchor="start" x="853.5" y="-18.5" font-family="Helvetica,sans-Serif" font-size="10.00">spdlog/sinks/stdout</text>
<text text-anchor="middle" x="901" y="-7.5" font-family="Helvetica,sans-Serif" font-size="10.00">_color_sinks.h</text>
</a>
</g>
</g>
<!-- Node5&#45;&gt;Node7 -->
<g id="edge6" class="edge">
<title>Node5&#45;&gt;Node7</title>
<path fill="none" stroke="midnightblue" d="M945.99,-72.73C939.03,-64.03 928.08,-50.34 918.72,-38.65"/>
<polygon fill="midnightblue" stroke="midnightblue" points="921.25,-36.21 912.27,-30.59 915.79,-40.58 921.25,-36.21"/>
</g>
<!-- Node8 -->
<g id="node8" class="node">
<title>Node8</title>
<g id="a_node8"><a xlink:title=" ">
<polygon fill="white" stroke="#bfbfbf" points="975,-6 975,-25 1033,-25 1033,-6 975,-6"/>
<text text-anchor="middle" x="1004" y="-13" font-family="Helvetica,sans-Serif" font-size="10.00">memory</text>
</a>
</g>
</g>
<!-- Node5&#45;&gt;Node8 -->
<g id="edge7" class="edge">
<title>Node5&#45;&gt;Node8</title>
<path fill="none" stroke="midnightblue" d="M959.88,-72.73C967.83,-62.6 981.1,-45.69 991.01,-33.06"/>
<polygon fill="midnightblue" stroke="midnightblue" points="993.81,-35.16 997.23,-25.13 988.3,-30.83 993.81,-35.16"/>
</g>
<!-- Node9 -->
<g id="node9" class="node">
<title>Node9</title>
<g id="a_node9"><a xlink:title=" ">
<polygon fill="white" stroke="#bfbfbf" points="1051,-6 1051,-25 1149,-25 1149,-6 1051,-6"/>
<text text-anchor="middle" x="1100" y="-13" font-family="Helvetica,sans-Serif" font-size="10.00">spdlog/fmt/fmt.h</text>
</a>
</g>
</g>
<!-- Node5&#45;&gt;Node9 -->
<g id="edge8" class="edge">
<title>Node5&#45;&gt;Node9</title>
<path fill="none" stroke="midnightblue" d="M972.52,-72.87C997.78,-61.7 1042,-42.15 1071.14,-29.26"/>
<polygon fill="midnightblue" stroke="midnightblue" points="1072.67,-32.41 1080.4,-25.17 1069.84,-26.01 1072.67,-32.41"/>
</g>
<!-- Node20 -->
<g id="node20" class="node">
<title>Node20</title>
<g id="a_node20"><a xlink:href="_o_m_sim_m_d_o_m_flasher_8hh.html" target="_top" xlink:title="Defines the mDOMFlasher class for simulating the 10 flashers in an mDOM optical module.">
<polygon fill="white" stroke="black" points="359.5,-246.5 359.5,-265.5 494.5,-265.5 494.5,-246.5 359.5,-246.5"/>
<text text-anchor="middle" x="427" y="-253.5" font-family="Helvetica,sans-Serif" font-size="10.00">OMSimMDOMFlasher.hh</text>
</a>
</g>
</g>
<!-- Node19&#45;&gt;Node20 -->
<g id="edge19" class="edge">
<title>Node19&#45;&gt;Node20</title>
<path fill="none" stroke="midnightblue" d="M564.31,-358.37C538.85,-339.57 478.16,-294.77 446.69,-271.53"/>
<polygon fill="midnightblue" stroke="midnightblue" points="448.76,-268.72 438.64,-265.59 444.6,-274.35 448.76,-268.72"/>
</g>
<!-- Node23 -->
<g id="node23" class="node">
<title>Node23</title>
<g id="a_node23"><a xlink:href="_o_m_sim_p_m_t_construction_8hh.html" target="_top" xlink:title="Construction of the PMTs.">
<polygon fill="white" stroke="black" points="550.5,-246.5 550.5,-265.5 699.5,-265.5 699.5,-246.5 550.5,-246.5"/>
<text text-anchor="middle" x="625" y="-253.5" font-family="Helvetica,sans-Serif" font-size="10.00">OMSimPMTConstruction.hh</text>
</a>
</g>
</g>
<!-- Node19&#45;&gt;Node23 -->
<g id="edge23" class="edge">
<title>Node19&#45;&gt;Node23</title>
<path fill="none" stroke="midnightblue" d="M566.91,-358.31C554.73,-345.57 535.88,-321.26 547,-302 555.68,-286.98 571.49,-276.52 586.62,-269.5"/>
<polygon fill="midnightblue" stroke="midnightblue" points="588.05,-272.69 595.88,-265.56 585.31,-266.25 588.05,-272.69"/>
</g>
<!-- Node30 -->
<g id="node30" class="node">
<title>Node30</title>
<g id="a_node30"><a xlink:href="_o_m_sim_optical_module_8hh.html" target="_top" xlink:title=" ">
<polygon fill="white" stroke="black" points="556.5,-302.5 556.5,-321.5 693.5,-321.5 693.5,-302.5 556.5,-302.5"/>
<text text-anchor="middle" x="625" y="-309.5" font-family="Helvetica,sans-Serif" font-size="10.00">OMSimOpticalModule.hh</text>
</a>
</g>
</g>
<!-- Node19&#45;&gt;Node30 -->
<g id="edge34" class="edge">
<title>Node19&#45;&gt;Node30</title>
<path fill="none" stroke="midnightblue" d="M584.09,-358.08C591.16,-350.3 601.59,-338.8 610.15,-329.37"/>
<polygon fill="midnightblue" stroke="midnightblue" points="612.93,-331.51 617.06,-321.75 607.75,-326.8 612.93,-331.51"/>
</g>
<!-- Node20&#45;&gt;Node3 -->
<g id="edge20" class="edge">
<title>Node20&#45;&gt;Node3</title>
<path fill="none" stroke="midnightblue" d="M419.73,-246.08C413.46,-238.38 404.21,-227.03 396.57,-217.65"/>
<polygon fill="midnightblue" stroke="midnightblue" points="399.16,-215.29 390.13,-209.75 393.73,-219.71 399.16,-215.29"/>
</g>
<!-- Node21 -->
<g id="node21" class="node">
<title>Node21</title>
<g id="a_node21"><a xlink:title=" ">
<polygon fill="white" stroke="#bfbfbf" points="475,-190.5 475,-209.5 573,-209.5 573,-190.5 475,-190.5"/>
<text text-anchor="middle" x="524" y="-197.5" font-family="Helvetica,sans-Serif" font-size="10.00">G4UnionSolid.hh</text>
</a>
</g>
</g>
<!-- Node20&#45;&gt;Node21 -->
<g id="edge21" class="edge">
<title>Node20&#45;&gt;Node21</title>
<path fill="none" stroke="midnightblue" d="M442.58,-246.32C458,-237.74 481.81,-224.49 499.71,-214.52"/>
<polygon fill="midnightblue" stroke="midnightblue" points="501.42,-217.58 508.45,-209.65 498.01,-211.46 501.42,-217.58"/>
</g>
<!-- Node22 -->
<g id="node22" class="node">
<title>Node22</title>
<g id="a_node22"><a xlink:title=" ">
<polygon fill="white" stroke="#bfbfbf" points="199,-190.5 199,-209.5 291,-209.5 291,-190.5 199,-190.5"/>
<text text-anchor="middle" x="245" y="-197.5" font-family="Helvetica,sans-Serif" font-size="10.00">G4Navigator.hh</text>
</a>
</g>
</g>
<!-- Node20&#45;&gt;Node22 -->
<g id="edge22" class="edge">
<title>Node20&#45;&gt;Node22</title>
<path fill="none" stroke="midnightblue" d="M398.16,-246.44C367.14,-237.24 317.67,-222.56 283.38,-212.39"/>
<polygon fill="midnightblue" stroke="midnightblue" points="284.29,-209.01 273.7,-209.52 282.29,-215.72 284.29,-209.01"/>
</g>
<!-- Node23&#45;&gt;Node3 -->
<g id="edge24" class="edge">
<title>Node23&#45;&gt;Node3</title>
<path fill="none" stroke="midnightblue" d="M586.65,-246.44C544.53,-237.04 476.79,-221.93 431.13,-211.74"/>
<polygon fill="midnightblue" stroke="midnightblue" points="431.69,-208.28 421.17,-209.52 430.16,-215.11 431.69,-208.28"/>
</g>
<!-- Node23&#45;&gt;Node21 -->
<g id="edge32" class="edge">
<title>Node23&#45;&gt;Node21</title>
<path fill="none" stroke="midnightblue" d="M608.77,-246.32C592.65,-237.7 567.7,-224.36 549.04,-214.39"/>
<polygon fill="midnightblue" stroke="midnightblue" points="550.66,-211.28 540.19,-209.65 547.36,-217.46 550.66,-211.28"/>
</g>
<!-- Node23&#45;&gt;Node23 -->
<g id="edge25" class="edge">
<title>Node23&#45;&gt;Node23</title>
<path fill="none" stroke="midnightblue" d="M664.45,-265.53C691.26,-268.31 717.5,-265.13 717.5,-256 717.5,-248.01 697.41,-244.58 674.43,-245.71"/>
<polygon fill="midnightblue" stroke="midnightblue" points="674.15,-242.22 664.45,-246.47 674.69,-249.2 674.15,-242.22"/>
</g>
<!-- Node24 -->
<g id="node24" class="node">
<title>Node24</title>
<g id="a_node24"><a xlink:href="_o_m_sim_p_m_t_response_8hh.html" target="_top" xlink:title="Simulation of PMT response.">
<polygon fill="white" stroke="black" points="676.5,-190.5 676.5,-209.5 811.5,-209.5 811.5,-190.5 676.5,-190.5"/>
<text text-anchor="middle" x="744" y="-197.5" font-family="Helvetica,sans-Serif" font-size="10.00">OMSimPMTResponse.hh</text>
</a>
</g>
</g>
<!-- Node23&#45;&gt;Node24 -->
<g id="edge26" class="edge">
<title>Node23&#45;&gt;Node24</title>
<path fill="none" stroke="midnightblue" d="M643.86,-246.44C663.27,-237.64 693.73,-223.81 715.96,-213.72"/>
<polygon fill="midnightblue" stroke="midnightblue" points="717.57,-216.84 725.23,-209.52 714.68,-210.46 717.57,-216.84"/>
</g>
<!-- Node29 -->
<g id="node29" class="node">
<title>Node29</title>
<g id="a_node29"><a xlink:title=" ">
<polygon fill="white" stroke="#bfbfbf" points="591.5,-190.5 591.5,-209.5 658.5,-209.5 658.5,-190.5 591.5,-190.5"/>
<text text-anchor="middle" x="625" y="-197.5" font-family="Helvetica,sans-Serif" font-size="10.00">G4Tubs.hh</text>
</a>
</g>
</g>
<!-- Node23&#45;&gt;Node29 -->
<g id="edge33" class="edge">
<title>Node23&#45;&gt;Node29</title>
<path fill="none" stroke="midnightblue" d="M625,-246.08C625,-239.01 625,-228.86 625,-219.99"/>
<polygon fill="midnightblue" stroke="midnightblue" points="628.5,-219.75 625,-209.75 621.5,-219.75 628.5,-219.75"/>
</g>
<!-- Node24&#45;&gt;Node11 -->
<g id="edge27" class="edge">
<title>Node24&#45;&gt;Node11</title>
<path fill="none" stroke="midnightblue" d="M788.95,-190.44C827.3,-180.96 873.41,-163.05 854,-134 840.85,-114.33 818.47,-102.31 796.44,-94.97"/>
<polygon fill="midnightblue" stroke="midnightblue" points="797.3,-91.57 786.72,-92.01 795.26,-98.27 797.3,-91.57"/>
</g>
<!-- Node25 -->
<g id="node25" class="node">
<title>Node25</title>
<g id="a_node25"><a xlink:title=" ">
<polygon fill="white" stroke="#bfbfbf" points="902.5,-134.5 902.5,-153.5 975.5,-153.5 975.5,-134.5 902.5,-134.5"/>
<text text-anchor="middle" x="939" y="-141.5" font-family="Helvetica,sans-Serif" font-size="10.00">G4Types.hh</text>
</a>
</g>
</g>
<!-- Node24&#45;&gt;Node25 -->
<g id="edge28" class="edge">
<title>Node24&#45;&gt;Node25</title>
<path fill="none" stroke="midnightblue" d="M774.9,-190.44C808.27,-181.2 861.59,-166.44 898.35,-156.26"/>
<polygon fill="midnightblue" stroke="midnightblue" points="899.54,-159.56 908.25,-153.52 897.67,-152.81 899.54,-159.56"/>
</g>
<!-- Node26 -->
<g id="node26" class="node">
<title>Node26</title>
<g id="a_node26"><a xlink:title=" ">
<polygon fill="white" stroke="#bfbfbf" points="657,-134.5 657,-153.5 695,-153.5 695,-134.5 657,-134.5"/>
<text text-anchor="middle" x="676" y="-141.5" font-family="Helvetica,sans-Serif" font-size="10.00">map</text>
</a>
</g>
</g>
<!-- Node24&#45;&gt;Node26 -->
<g id="edge29" class="edge">
<title>Node24&#45;&gt;Node26</title>
<path fill="none" stroke="midnightblue" d="M733.07,-190.32C722.83,-182.18 707.28,-169.84 695,-160.09"/>
<polygon fill="midnightblue" stroke="midnightblue" points="697.13,-157.31 687.12,-153.83 692.78,-162.79 697.13,-157.31"/>
</g>
<!-- Node27 -->
<g id="node27" class="node">
<title>Node27</title>
<g id="a_node27"><a xlink:title=" ">
<polygon fill="white" stroke="#bfbfbf" points="713.5,-134.5 713.5,-153.5 774.5,-153.5 774.5,-134.5 713.5,-134.5"/>
<text text-anchor="middle" x="744" y="-141.5" font-family="Helvetica,sans-Serif" font-size="10.00">TGraph.h</text>
</a>
</g>
</g>
<!-- Node24&#45;&gt;Node27 -->
<g id="edge30" class="edge">
<title>Node24&#45;&gt;Node27</title>
<path fill="none" stroke="midnightblue" d="M744,-190.08C744,-183.01 744,-172.86 744,-163.99"/>
<polygon fill="midnightblue" stroke="midnightblue" points="747.5,-163.75 744,-153.75 740.5,-163.75 747.5,-163.75"/>
</g>
<!-- Node28 -->
<g id="node28" class="node">
<title>Node28</title>
<g id="a_node28"><a xlink:title=" ">
<polygon fill="white" stroke="#bfbfbf" points="792.5,-134.5 792.5,-153.5 845.5,-153.5 845.5,-134.5 792.5,-134.5"/>
<text text-anchor="middle" x="819" y="-141.5" font-family="Helvetica,sans-Serif" font-size="10.00">TH2D.h</text>
</a>
</g>
</g>
<!-- Node24&#45;&gt;Node28 -->
<g id="edge31" class="edge">
<title>Node24&#45;&gt;Node28</title>
<path fill="none" stroke="midnightblue" d="M756.05,-190.32C767.46,-182.11 784.83,-169.6 798.43,-159.81"/>
<polygon fill="midnightblue" stroke="midnightblue" points="800.66,-162.52 806.73,-153.83 796.57,-156.84 800.66,-162.52"/>
</g>
<!-- Node30&#45;&gt;Node3 -->
<g id="edge35" class="edge">
<title>Node30&#45;&gt;Node3</title>
<path fill="none" stroke="midnightblue" d="M608.92,-302.36C577.03,-285.24 508.36,-248.42 503,-246 475.02,-233.36 442.34,-221.28 418.15,-212.82"/>
<polygon fill="midnightblue" stroke="midnightblue" points="419.27,-209.5 408.67,-209.53 416.98,-216.11 419.27,-209.5"/>
</g>
<!-- Node30&#45;&gt;Node23 -->
<g id="edge40" class="edge">
<title>Node30&#45;&gt;Node23</title>
<path fill="none" stroke="midnightblue" d="M625,-302.08C625,-295.01 625,-284.86 625,-275.99"/>
<polygon fill="midnightblue" stroke="midnightblue" points="628.5,-275.75 625,-265.75 621.5,-275.75 628.5,-275.75"/>
</g>
<!-- Node31 -->
<g id="node31" class="node">
<title>Node31</title>
<g id="a_node31"><a xlink:href="_o_m_sim_hit_manager_8hh.html" target="_top" xlink:title="Defines structures and classes related to optical module photon hit management.">
<polygon fill="white" stroke="black" points="777.5,-246.5 777.5,-265.5 900.5,-265.5 900.5,-246.5 777.5,-246.5"/>
<text text-anchor="middle" x="839" y="-253.5" font-family="Helvetica,sans-Serif" font-size="10.00">OMSimHitManager.hh</text>
</a>
</g>
</g>
<!-- Node30&#45;&gt;Node31 -->
<g id="edge36" class="edge">
<title>Node30&#45;&gt;Node31</title>
<path fill="none" stroke="midnightblue" d="M658.91,-302.44C695.85,-293.12 755.05,-278.18 795.42,-268"/>
<polygon fill="midnightblue" stroke="midnightblue" points="796.41,-271.36 805.25,-265.52 794.7,-264.57 796.41,-271.36"/>
</g>
<!-- Node31&#45;&gt;Node24 -->
<g id="edge37" class="edge">
<title>Node31&#45;&gt;Node24</title>
<path fill="none" stroke="midnightblue" d="M823.74,-246.32C808.78,-237.82 785.75,-224.73 768.27,-214.8"/>
<polygon fill="midnightblue" stroke="midnightblue" points="769.65,-211.55 759.23,-209.65 766.19,-217.64 769.65,-211.55"/>
</g>
<!-- Node32 -->
<g id="node32" class="node">
<title>Node32</title>
<g id="a_node32"><a xlink:title=" ">
<polygon fill="white" stroke="#bfbfbf" points="829.5,-190.5 829.5,-209.5 932.5,-209.5 932.5,-190.5 829.5,-190.5"/>
<text text-anchor="middle" x="881" y="-197.5" font-family="Helvetica,sans-Serif" font-size="10.00">G4ThreeVector.hh</text>
</a>
</g>
</g>
<!-- Node31&#45;&gt;Node32 -->
<g id="edge38" class="edge">
<title>Node31&#45;&gt;Node32</title>
<path fill="none" stroke="midnightblue" d="M845.94,-246.08C851.93,-238.38 860.75,-227.03 868.05,-217.65"/>
<polygon fill="midnightblue" stroke="midnightblue" points="870.82,-219.79 874.19,-209.75 865.29,-215.5 870.82,-219.79"/>
</g>
<!-- Node33 -->
<g id="node33" class="node">
<title>Node33</title>
<g id="a_node33"><a xlink:title=" ">
<polygon fill="white" stroke="#bfbfbf" points="950.5,-190.5 950.5,-209.5 1005.5,-209.5 1005.5,-190.5 950.5,-190.5"/>
<text text-anchor="middle" x="978" y="-197.5" font-family="Helvetica,sans-Serif" font-size="10.00">fstream</text>
</a>
</g>
</g>
<!-- Node31&#45;&gt;Node33 -->
<g id="edge39" class="edge">
<title>Node31&#45;&gt;Node33</title>
<path fill="none" stroke="midnightblue" d="M861.02,-246.44C884.1,-237.48 920.56,-223.31 946.64,-213.18"/>
<polygon fill="midnightblue" stroke="midnightblue" points="948.02,-216.4 956.08,-209.52 945.49,-209.88 948.02,-216.4"/>
</g>
<!-- Node34&#45;&gt;Node5 -->
<g id="edge42" class="edge">
<title>Node34&#45;&gt;Node5</title>
<path fill="none" stroke="midnightblue" d="M1070.88,-246.34C1087.18,-234.23 1111.92,-211.31 1101,-190 1076.92,-143 1021.38,-112.03 985.6,-96.16"/>
<polygon fill="midnightblue" stroke="midnightblue" points="986.65,-92.8 976.08,-92.08 983.89,-99.24 986.65,-92.8"/>
</g>
<!-- Node34&#45;&gt;Node33 -->
<g id="edge43" class="edge">
<title>Node34&#45;&gt;Node33</title>
<path fill="none" stroke="midnightblue" d="M1045.15,-246.32C1032.78,-237.98 1013.87,-225.21 999.26,-215.35"/>
<polygon fill="midnightblue" stroke="midnightblue" points="1001.07,-212.35 990.82,-209.65 997.15,-218.15 1001.07,-212.35"/>
</g>
<!-- Node35 -->
<g id="node35" class="node">
<title>Node35</title>
<g id="a_node35"><a xlink:title=" ">
<polygon fill="white" stroke="#bfbfbf" points="1148,-190.5 1148,-209.5 1232,-209.5 1232,-190.5 1148,-190.5"/>
<text text-anchor="middle" x="1190" y="-197.5" font-family="Helvetica,sans-Serif" font-size="10.00">boost/any.hpp</text>
</a>
</g>
</g>
<!-- Node34&#45;&gt;Node35 -->
<g id="edge44" class="edge">
<title>Node34&#45;&gt;Node35</title>
<path fill="none" stroke="midnightblue" d="M1078.92,-246.44C1100.74,-237.52 1135.15,-223.44 1159.89,-213.32"/>
<polygon fill="midnightblue" stroke="midnightblue" points="1161.25,-216.54 1169.18,-209.52 1158.6,-210.06 1161.25,-216.54"/>
</g>
<!-- Node36 -->
<g id="node36" class="node">
<title>Node36</title>
<g id="a_node36"><a xlink:title=" ">
<polygon fill="white" stroke="#bfbfbf" points="1024,-190.5 1024,-209.5 1092,-209.5 1092,-190.5 1024,-190.5"/>
<text text-anchor="middle" x="1058" y="-197.5" font-family="Helvetica,sans-Serif" font-size="10.00">sys/time.h</text>
</a>
</g>
</g>
<!-- Node34&#45;&gt;Node36 -->
<g id="edge45" class="edge">
<title>Node34&#45;&gt;Node36</title>
<path fill="none" stroke="midnightblue" d="M1058,-246.08C1058,-239.01 1058,-228.86 1058,-219.99"/>
<polygon fill="midnightblue" stroke="midnightblue" points="1061.5,-219.75 1058,-209.75 1054.5,-219.75 1061.5,-219.75"/>
</g>
</g>
</svg>
