<?xml version="1.0" encoding="UTF-8" standalone="no"?>
<!DOCTYPE svg PUBLIC "-//W3C//DTD SVG 1.1//EN"
 "http://www.w3.org/Graphics/SVG/1.1/DTD/svg11.dtd">
<!-- Generated by graphviz version 2.43.0 (0)
 -->
<!-- Title: OMSimLOM18.cc Pages: 1 -->
<svg width="3057pt" height="431pt"
 viewBox="0.00 0.00 3056.50 431.00" xmlns="http://www.w3.org/2000/svg" xmlns:xlink="http://www.w3.org/1999/xlink">
<g id="graph0" class="graph" transform="scale(1 1) rotate(0) translate(4 427)">
<title>OMSimLOM18.cc</title>
<polygon fill="white" stroke="transparent" points="-4,4 -4,-427 3052.5,-427 3052.5,4 -4,4"/>
<!-- Node1 -->
<g id="node1" class="node">
<title>Node1</title>
<g id="a_node1"><a xlink:title=" ">
<polygon fill="#bfbfbf" stroke="black" points="1224,-403.5 1224,-422.5 1323,-422.5 1323,-403.5 1224,-403.5"/>
<text text-anchor="middle" x="1273.5" y="-410.5" font-family="Helvetica,sans-Serif" font-size="10.00">OMSimLOM18.cc</text>
</a>
</g>
</g>
<!-- Node2 -->
<g id="node2" class="node">
<title>Node2</title>
<g id="a_node2"><a xlink:href="_o_m_sim_l_o_m18_8hh.html" target="_top" xlink:title="Construction of LOM18.">
<polygon fill="white" stroke="black" points="800,-347.5 800,-366.5 901,-366.5 901,-347.5 800,-347.5"/>
<text text-anchor="middle" x="850.5" y="-354.5" font-family="Helvetica,sans-Serif" font-size="10.00">OMSimLOM18.hh</text>
</a>
</g>
</g>
<!-- Node1&#45;&gt;Node2 -->
<g id="edge1" class="edge">
<title>Node1&#45;&gt;Node2</title>
<path fill="none" stroke="midnightblue" d="M1223.73,-405.65C1145.85,-395.7 995.38,-376.5 911.24,-365.75"/>
<polygon fill="midnightblue" stroke="midnightblue" points="911.43,-362.25 901.06,-364.45 910.54,-369.19 911.43,-362.25"/>
</g>
<!-- Node6 -->
<g id="node6" class="node">
<title>Node6</title>
<g id="a_node6"><a xlink:href="_o_m_sim_logger_8hh.html" target="_top" xlink:title=" ">
<polygon fill="white" stroke="black" points="944,-67.5 944,-86.5 1043,-86.5 1043,-67.5 944,-67.5"/>
<text text-anchor="middle" x="993.5" y="-74.5" font-family="Helvetica,sans-Serif" font-size="10.00">OMSimLogger.hh</text>
</a>
</g>
</g>
<!-- Node1&#45;&gt;Node6 -->
<g id="edge55" class="edge">
<title>Node1&#45;&gt;Node6</title>
<path fill="none" stroke="midnightblue" d="M1223.84,-405.79C1132.36,-392.97 946.5,-359.8 946.5,-302 946.5,-302 946.5,-302 946.5,-188 946.5,-152.7 967.22,-115.79 981.14,-94.96"/>
<polygon fill="midnightblue" stroke="midnightblue" points="984.13,-96.8 986.96,-86.59 978.38,-92.8 984.13,-96.8"/>
</g>
<!-- Node31 -->
<g id="node30" class="node">
<title>Node31</title>
<g id="a_node30"><a xlink:href="_c_a_d_mesh_8hh.html" target="_top" xlink:title=" ">
<polygon fill="white" stroke="black" points="2050,-235.5 2050,-254.5 2129,-254.5 2129,-235.5 2050,-235.5"/>
<text text-anchor="middle" x="2089.5" y="-242.5" font-family="Helvetica,sans-Serif" font-size="10.00">CADMesh.hh</text>
</a>
</g>
</g>
<!-- Node1&#45;&gt;Node31 -->
<g id="edge34" class="edge">
<title>Node1&#45;&gt;Node31</title>
<path fill="none" stroke="midnightblue" d="M1282.65,-403.32C1298.4,-388.95 1332.22,-360.47 1366.5,-347 1605.77,-252.98 1919.77,-244.54 2039.87,-245.09"/>
<polygon fill="midnightblue" stroke="midnightblue" points="2039.84,-248.59 2049.87,-245.16 2039.89,-241.59 2039.84,-248.59"/>
</g>
<!-- Node47 -->
<g id="node46" class="node">
<title>Node47</title>
<g id="a_node46"><a xlink:href="_o_m_sim_command_args_table_8hh.html" target="_top" xlink:title="Definition of the OMSimCommandArgsTable singleton class, which controls user args.">
<polygon fill="white" stroke="black" points="974.5,-235.5 974.5,-254.5 1138.5,-254.5 1138.5,-235.5 974.5,-235.5"/>
<text text-anchor="middle" x="1056.5" y="-242.5" font-family="Helvetica,sans-Serif" font-size="10.00">OMSimCommandArgsTable.hh</text>
</a>
</g>
</g>
<!-- Node1&#45;&gt;Node47 -->
<g id="edge56" class="edge">
<title>Node1&#45;&gt;Node47</title>
<path fill="none" stroke="midnightblue" d="M1262.14,-403.31C1227.06,-376.47 1120.15,-294.69 1075.95,-260.88"/>
<polygon fill="midnightblue" stroke="midnightblue" points="1077.82,-257.9 1067.75,-254.61 1073.56,-263.46 1077.82,-257.9"/>
</g>
<!-- Node50 -->
<g id="node49" class="node">
<title>Node50</title>
<g id="a_node49"><a xlink:title=" ">
<polygon fill="white" stroke="#bfbfbf" points="1375,-347.5 1375,-366.5 1444,-366.5 1444,-347.5 1375,-347.5"/>
<text text-anchor="middle" x="1409.5" y="-354.5" font-family="Helvetica,sans-Serif" font-size="10.00">G4Cons.hh</text>
</a>
</g>
</g>
<!-- Node1&#45;&gt;Node50 -->
<g id="edge61" class="edge">
<title>Node1&#45;&gt;Node50</title>
<path fill="none" stroke="midnightblue" d="M1295.05,-403.44C1317.53,-394.52 1352.99,-380.44 1378.48,-370.32"/>
<polygon fill="midnightblue" stroke="midnightblue" points="1380.05,-373.46 1388.05,-366.52 1377.47,-366.95 1380.05,-373.46"/>
</g>
<!-- Node51 -->
<g id="node50" class="node">
<title>Node51</title>
<g id="a_node50"><a xlink:title=" ">
<polygon fill="white" stroke="#bfbfbf" points="1462,-347.5 1462,-366.5 1589,-366.5 1589,-347.5 1462,-347.5"/>
<text text-anchor="middle" x="1525.5" y="-354.5" font-family="Helvetica,sans-Serif" font-size="10.00">G4IntersectionSolid.hh</text>
</a>
</g>
</g>
<!-- Node1&#45;&gt;Node51 -->
<g id="edge62" class="edge">
<title>Node1&#45;&gt;Node51</title>
<path fill="none" stroke="midnightblue" d="M1313.43,-403.44C1357.39,-394.02 1428.13,-378.87 1475.68,-368.68"/>
<polygon fill="midnightblue" stroke="midnightblue" points="1476.71,-372.03 1485.76,-366.52 1475.25,-365.19 1476.71,-372.03"/>
</g>
<!-- Node3 -->
<g id="node3" class="node">
<title>Node3</title>
<g id="a_node3"><a xlink:href="_o_m_sim_p_m_t_construction_8hh.html" target="_top" xlink:title="Construction of the PMTs.">
<polygon fill="white" stroke="black" points="510,-235.5 510,-254.5 659,-254.5 659,-235.5 510,-235.5"/>
<text text-anchor="middle" x="584.5" y="-242.5" font-family="Helvetica,sans-Serif" font-size="10.00">OMSimPMTConstruction.hh</text>
</a>
</g>
</g>
<!-- Node2&#45;&gt;Node3 -->
<g id="edge2" class="edge">
<title>Node2&#45;&gt;Node3</title>
<path fill="none" stroke="midnightblue" d="M799.94,-355.64C753.13,-353.09 683.28,-343.49 632.5,-311 614.64,-299.58 601.14,-278.99 593.08,-264.04"/>
<polygon fill="midnightblue" stroke="midnightblue" points="596.02,-262.1 588.37,-254.77 589.78,-265.27 596.02,-262.1"/>
</g>
<!-- Node25 -->
<g id="node24" class="node">
<title>Node25</title>
<g id="a_node24"><a xlink:href="_o_m_sim_optical_module_8hh.html" target="_top" xlink:title=" ">
<polygon fill="white" stroke="black" points="642,-291.5 642,-310.5 779,-310.5 779,-291.5 642,-291.5"/>
<text text-anchor="middle" x="710.5" y="-298.5" font-family="Helvetica,sans-Serif" font-size="10.00">OMSimOpticalModule.hh</text>
</a>
</g>
</g>
<!-- Node2&#45;&gt;Node25 -->
<g id="edge25" class="edge">
<title>Node2&#45;&gt;Node25</title>
<path fill="none" stroke="midnightblue" d="M828.32,-347.44C805.07,-338.48 768.35,-324.31 742.08,-314.18"/>
<polygon fill="midnightblue" stroke="midnightblue" points="743.17,-310.85 732.58,-310.52 740.65,-317.38 743.17,-310.85"/>
</g>
<!-- Node29 -->
<g id="node28" class="node">
<title>Node29</title>
<g id="a_node28"><a xlink:title=" ">
<polygon fill="white" stroke="#bfbfbf" points="1395.5,-179.5 1395.5,-198.5 1511.5,-198.5 1511.5,-179.5 1395.5,-179.5"/>
<text text-anchor="middle" x="1453.5" y="-186.5" font-family="Helvetica,sans-Serif" font-size="10.00">G4LogicalVolume.hh</text>
</a>
</g>
</g>
<!-- Node2&#45;&gt;Node29 -->
<g id="edge32" class="edge">
<title>Node2&#45;&gt;Node29</title>
<path fill="none" stroke="midnightblue" d="M898.23,-347.48C979.53,-332.41 1149.67,-298.52 1289.5,-255 1338.26,-239.82 1393.08,-216.84 1425.38,-202.66"/>
<polygon fill="midnightblue" stroke="midnightblue" points="1426.92,-205.8 1434.65,-198.56 1424.09,-199.4 1426.92,-205.8"/>
</g>
<!-- Node30 -->
<g id="node29" class="node">
<title>Node30</title>
<g id="a_node29"><a xlink:title=" ">
<polygon fill="white" stroke="#bfbfbf" points="806,-291.5 806,-310.5 895,-310.5 895,-291.5 806,-291.5"/>
<text text-anchor="middle" x="850.5" y="-298.5" font-family="Helvetica,sans-Serif" font-size="10.00">G4Polycone.hh</text>
</a>
</g>
</g>
<!-- Node2&#45;&gt;Node30 -->
<g id="edge33" class="edge">
<title>Node2&#45;&gt;Node30</title>
<path fill="none" stroke="midnightblue" d="M850.5,-347.08C850.5,-340.01 850.5,-329.86 850.5,-320.99"/>
<polygon fill="midnightblue" stroke="midnightblue" points="854,-320.75 850.5,-310.75 847,-320.75 854,-320.75"/>
</g>
<!-- Node3&#45;&gt;Node3 -->
<g id="edge16" class="edge">
<title>Node3&#45;&gt;Node3</title>
<path fill="none" stroke="midnightblue" d="M623.95,-254.53C650.76,-257.31 677,-254.13 677,-245 677,-237.01 656.91,-233.58 633.93,-234.71"/>
<polygon fill="midnightblue" stroke="midnightblue" points="633.65,-231.22 623.95,-235.47 634.19,-238.2 633.65,-231.22"/>
</g>
<!-- Node4 -->
<g id="node4" class="node">
<title>Node4</title>
<g id="a_node4"><a xlink:href="abc_detector_component_8hh.html" target="_top" xlink:title="Provides helper base class abcDetectorComponent for constructing and managing detector components in ...">
<polygon fill="white" stroke="black" points="508,-179.5 508,-198.5 655,-198.5 655,-179.5 508,-179.5"/>
<text text-anchor="middle" x="581.5" y="-186.5" font-family="Helvetica,sans-Serif" font-size="10.00">abcDetectorComponent.hh</text>
</a>
</g>
</g>
<!-- Node3&#45;&gt;Node4 -->
<g id="edge3" class="edge">
<title>Node3&#45;&gt;Node4</title>
<path fill="none" stroke="midnightblue" d="M584,-235.08C583.61,-228.01 583.05,-217.86 582.55,-208.99"/>
<polygon fill="midnightblue" stroke="midnightblue" points="586.04,-208.54 581.99,-198.75 579.05,-208.93 586.04,-208.54"/>
</g>
<!-- Node18 -->
<g id="node17" class="node">
<title>Node18</title>
<g id="a_node17"><a xlink:href="_o_m_sim_p_m_t_response_8hh.html" target="_top" xlink:title="Simulation of PMT response.">
<polygon fill="white" stroke="black" points="776,-179.5 776,-198.5 911,-198.5 911,-179.5 776,-179.5"/>
<text text-anchor="middle" x="843.5" y="-186.5" font-family="Helvetica,sans-Serif" font-size="10.00">OMSimPMTResponse.hh</text>
</a>
</g>
</g>
<!-- Node3&#45;&gt;Node18 -->
<g id="edge17" class="edge">
<title>Node3&#45;&gt;Node18</title>
<path fill="none" stroke="midnightblue" d="M625.54,-235.44C670.82,-226 743.73,-210.8 792.61,-200.61"/>
<polygon fill="midnightblue" stroke="midnightblue" points="793.58,-203.98 802.65,-198.52 792.15,-197.13 793.58,-203.98"/>
</g>
<!-- Node23 -->
<g id="node22" class="node">
<title>Node23</title>
<g id="a_node22"><a xlink:title=" ">
<polygon fill="white" stroke="#bfbfbf" points="391.5,-179.5 391.5,-198.5 489.5,-198.5 489.5,-179.5 391.5,-179.5"/>
<text text-anchor="middle" x="440.5" y="-186.5" font-family="Helvetica,sans-Serif" font-size="10.00">G4UnionSolid.hh</text>
</a>
</g>
</g>
<!-- Node3&#45;&gt;Node23 -->
<g id="edge23" class="edge">
<title>Node3&#45;&gt;Node23</title>
<path fill="none" stroke="midnightblue" d="M561.68,-235.44C537.67,-226.44 499.67,-212.19 472.63,-202.05"/>
<polygon fill="midnightblue" stroke="midnightblue" points="473.8,-198.75 463.21,-198.52 471.34,-205.3 473.8,-198.75"/>
</g>
<!-- Node24 -->
<g id="node23" class="node">
<title>Node24</title>
<g id="a_node23"><a xlink:title=" ">
<polygon fill="white" stroke="#bfbfbf" points="306,-179.5 306,-198.5 373,-198.5 373,-179.5 306,-179.5"/>
<text text-anchor="middle" x="339.5" y="-186.5" font-family="Helvetica,sans-Serif" font-size="10.00">G4Tubs.hh</text>
</a>
</g>
</g>
<!-- Node3&#45;&gt;Node24 -->
<g id="edge24" class="edge">
<title>Node3&#45;&gt;Node24</title>
<path fill="none" stroke="midnightblue" d="M545.68,-235.44C501.4,-225.68 429.17,-209.77 383.02,-199.59"/>
<polygon fill="midnightblue" stroke="midnightblue" points="383.54,-196.12 373.02,-197.39 382.03,-202.96 383.54,-196.12"/>
</g>
<!-- Node5 -->
<g id="node5" class="node">
<title>Node5</title>
<g id="a_node5"><a xlink:href="_o_m_sim_input_data_8hh.html" target="_top" xlink:title="Definition of ParameterTable and InputDataManager.">
<polygon fill="white" stroke="red" points="524,-123.5 524,-142.5 639,-142.5 639,-123.5 524,-123.5"/>
<text text-anchor="middle" x="581.5" y="-130.5" font-family="Helvetica,sans-Serif" font-size="10.00">OMSimInputData.hh</text>
</a>
</g>
</g>
<!-- Node4&#45;&gt;Node5 -->
<g id="edge4" class="edge">
<title>Node4&#45;&gt;Node5</title>
<path fill="none" stroke="midnightblue" d="M581.5,-179.08C581.5,-172.01 581.5,-161.86 581.5,-152.99"/>
<polygon fill="midnightblue" stroke="midnightblue" points="585,-152.75 581.5,-142.75 578,-152.75 585,-152.75"/>
</g>
<!-- Node14 -->
<g id="node13" class="node">
<title>Node14</title>
<g id="a_node13"><a xlink:title=" ">
<polygon fill="white" stroke="#bfbfbf" points="0,-123.5 0,-142.5 107,-142.5 107,-123.5 0,-123.5"/>
<text text-anchor="middle" x="53.5" y="-130.5" font-family="Helvetica,sans-Serif" font-size="10.00">G4Transform3D.hh</text>
</a>
</g>
</g>
<!-- Node4&#45;&gt;Node14 -->
<g id="edge12" class="edge">
<title>Node4&#45;&gt;Node14</title>
<path fill="none" stroke="midnightblue" d="M507.74,-179.95C504.62,-179.62 501.53,-179.31 498.5,-179 332.07,-162.14 287.53,-163.02 117.16,-143.02"/>
<polygon fill="midnightblue" stroke="midnightblue" points="117.43,-139.53 107.09,-141.83 116.61,-146.48 117.43,-139.53"/>
</g>
<!-- Node15 -->
<g id="node14" class="node">
<title>Node15</title>
<g id="a_node14"><a xlink:title=" ">
<polygon fill="white" stroke="#bfbfbf" points="125.5,-123.5 125.5,-142.5 233.5,-142.5 233.5,-123.5 125.5,-123.5"/>
<text text-anchor="middle" x="179.5" y="-130.5" font-family="Helvetica,sans-Serif" font-size="10.00">G4VisAttributes.hh</text>
</a>
</g>
</g>
<!-- Node4&#45;&gt;Node15 -->
<g id="edge13" class="edge">
<title>Node4&#45;&gt;Node15</title>
<path fill="none" stroke="midnightblue" d="M515.85,-179.48C449.74,-170.86 344.54,-157.02 243.83,-143.17"/>
<polygon fill="midnightblue" stroke="midnightblue" points="244.18,-139.69 233.79,-141.79 243.22,-146.62 244.18,-139.69"/>
</g>
<!-- Node16 -->
<g id="node15" class="node">
<title>Node16</title>
<g id="a_node15"><a xlink:title=" ">
<polygon fill="white" stroke="#bfbfbf" points="252,-123.5 252,-142.5 377,-142.5 377,-123.5 252,-123.5"/>
<text text-anchor="middle" x="314.5" y="-130.5" font-family="Helvetica,sans-Serif" font-size="10.00">G4SubtractionSolid.hh</text>
</a>
</g>
</g>
<!-- Node4&#45;&gt;Node16 -->
<g id="edge14" class="edge">
<title>Node4&#45;&gt;Node16</title>
<path fill="none" stroke="midnightblue" d="M539.19,-179.44C492.42,-169.98 417.04,-154.74 366.65,-144.55"/>
<polygon fill="midnightblue" stroke="midnightblue" points="367.1,-141.07 356.61,-142.52 365.72,-147.93 367.1,-141.07"/>
</g>
<!-- Node17 -->
<g id="node16" class="node">
<title>Node17</title>
<g id="a_node16"><a xlink:title=" ">
<polygon fill="white" stroke="#bfbfbf" points="395.5,-123.5 395.5,-142.5 505.5,-142.5 505.5,-123.5 395.5,-123.5"/>
<text text-anchor="middle" x="450.5" y="-130.5" font-family="Helvetica,sans-Serif" font-size="10.00">G4PVPlacement.hh</text>
</a>
</g>
</g>
<!-- Node4&#45;&gt;Node17 -->
<g id="edge15" class="edge">
<title>Node4&#45;&gt;Node17</title>
<path fill="none" stroke="midnightblue" d="M560.74,-179.44C539.18,-170.56 505.24,-156.56 480.71,-146.45"/>
<polygon fill="midnightblue" stroke="midnightblue" points="481.74,-143.09 471.16,-142.52 479.07,-149.56 481.74,-143.09"/>
</g>
<!-- Node5&#45;&gt;Node6 -->
<g id="edge5" class="edge">
<title>Node5&#45;&gt;Node6</title>
<path fill="none" stroke="midnightblue" d="M639.09,-124.13C641.93,-123.74 644.75,-123.37 647.5,-123 747.88,-109.63 864.7,-94.53 933.69,-85.66"/>
<polygon fill="midnightblue" stroke="midnightblue" points="934.45,-89.1 943.93,-84.35 933.56,-82.15 934.45,-89.1"/>
</g>
<!-- Node11 -->
<g id="node11" class="node">
<title>Node11</title>
<g id="a_node11"><a xlink:title=" ">
<polygon fill="white" stroke="#bfbfbf" points="510,-67.5 510,-86.5 653,-86.5 653,-67.5 510,-67.5"/>
<text text-anchor="middle" x="581.5" y="-74.5" font-family="Helvetica,sans-Serif" font-size="10.00">G4OpBoundaryProcess.hh</text>
</a>
</g>
</g>
<!-- Node5&#45;&gt;Node11 -->
<g id="edge10" class="edge">
<title>Node5&#45;&gt;Node11</title>
<path fill="none" stroke="midnightblue" d="M581.5,-123.08C581.5,-116.01 581.5,-105.86 581.5,-96.99"/>
<polygon fill="midnightblue" stroke="midnightblue" points="585,-96.75 581.5,-86.75 578,-96.75 585,-96.75"/>
</g>
<!-- Node12 -->
<g id="node12" class="node">
<title>Node12</title>
<g id="a_node12"><a xlink:title=" ">
<polygon fill="white" stroke="#bfbfbf" points="763,-67.5 763,-86.5 882,-86.5 882,-67.5 763,-67.5"/>
<text text-anchor="middle" x="822.5" y="-74.5" font-family="Helvetica,sans-Serif" font-size="10.00">G4SystemOfUnits.hh</text>
</a>
</g>
</g>
<!-- Node5&#45;&gt;Node12 -->
<g id="edge11" class="edge">
<title>Node5&#45;&gt;Node12</title>
<path fill="none" stroke="midnightblue" d="M619.69,-123.44C661.64,-114.04 729.09,-98.93 774.57,-88.74"/>
<polygon fill="midnightblue" stroke="midnightblue" points="775.5,-92.12 784.49,-86.52 773.97,-85.29 775.5,-92.12"/>
</g>
<!-- Node7 -->
<g id="node7" class="node">
<title>Node7</title>
<g id="a_node7"><a xlink:title=" ">
<polygon fill="white" stroke="#bfbfbf" points="1061,-6 1061,-25 1154,-25 1154,-6 1061,-6"/>
<text text-anchor="middle" x="1107.5" y="-13" font-family="Helvetica,sans-Serif" font-size="10.00">spdlog/spdlog.h</text>
</a>
</g>
</g>
<!-- Node6&#45;&gt;Node7 -->
<g id="edge6" class="edge">
<title>Node6&#45;&gt;Node7</title>
<path fill="none" stroke="midnightblue" d="M1009.83,-67.48C1028.71,-57.62 1060.01,-41.29 1082.08,-29.77"/>
<polygon fill="midnightblue" stroke="midnightblue" points="1083.95,-32.74 1091.2,-25.01 1080.71,-26.53 1083.95,-32.74"/>
</g>
<!-- Node8 -->
<g id="node8" class="node">
<title>Node8</title>
<g id="a_node8"><a xlink:title=" ">
<polygon fill="white" stroke="#bfbfbf" points="815,-0.5 815,-30.5 926,-30.5 926,-0.5 815,-0.5"/>
<text text-anchor="start" x="823" y="-18.5" font-family="Helvetica,sans-Serif" font-size="10.00">spdlog/sinks/stdout</text>
<text text-anchor="middle" x="870.5" y="-7.5" font-family="Helvetica,sans-Serif" font-size="10.00">_color_sinks.h</text>
</a>
</g>
</g>
<!-- Node6&#45;&gt;Node8 -->
<g id="edge7" class="edge">
<title>Node6&#45;&gt;Node8</title>
<path fill="none" stroke="midnightblue" d="M975.88,-67.48C958.44,-59.04 931.18,-45.86 908.76,-35.01"/>
<polygon fill="midnightblue" stroke="midnightblue" points="910.01,-31.73 899.49,-30.52 906.97,-38.03 910.01,-31.73"/>
</g>
<!-- Node9 -->
<g id="node9" class="node">
<title>Node9</title>
<g id="a_node9"><a xlink:title=" ">
<polygon fill="white" stroke="#bfbfbf" points="1612.5,-6 1612.5,-25 1670.5,-25 1670.5,-6 1612.5,-6"/>
<text text-anchor="middle" x="1641.5" y="-13" font-family="Helvetica,sans-Serif" font-size="10.00">memory</text>
</a>
</g>
</g>
<!-- Node6&#45;&gt;Node9 -->
<g id="edge8" class="edge">
<title>Node6&#45;&gt;Node9</title>
<path fill="none" stroke="midnightblue" d="M1043,-71.45C1167.11,-60.06 1489.58,-30.45 1602.08,-20.12"/>
<polygon fill="midnightblue" stroke="midnightblue" points="1602.66,-23.58 1612.3,-19.18 1602.02,-16.61 1602.66,-23.58"/>
</g>
<!-- Node10 -->
<g id="node10" class="node">
<title>Node10</title>
<g id="a_node10"><a xlink:title=" ">
<polygon fill="white" stroke="#bfbfbf" points="944.5,-6 944.5,-25 1042.5,-25 1042.5,-6 944.5,-6"/>
<text text-anchor="middle" x="993.5" y="-13" font-family="Helvetica,sans-Serif" font-size="10.00">spdlog/fmt/fmt.h</text>
</a>
</g>
</g>
<!-- Node6&#45;&gt;Node10 -->
<g id="edge9" class="edge">
<title>Node6&#45;&gt;Node10</title>
<path fill="none" stroke="midnightblue" d="M993.5,-67.48C993.5,-59.08 993.5,-45.98 993.5,-35.16"/>
<polygon fill="midnightblue" stroke="midnightblue" points="997,-35.01 993.5,-25.01 990,-35.01 997,-35.01"/>
</g>
<!-- Node18&#45;&gt;Node12 -->
<g id="edge18" class="edge">
<title>Node18&#45;&gt;Node12</title>
<path fill="none" stroke="midnightblue" d="M856.95,-179.39C873.99,-167.33 899.85,-144.48 888.5,-123 881.08,-108.95 867.08,-98.47 853.88,-91.17"/>
<polygon fill="midnightblue" stroke="midnightblue" points="855.46,-88.04 844.96,-86.62 852.28,-94.28 855.46,-88.04"/>
</g>
<!-- Node19 -->
<g id="node18" class="node">
<title>Node19</title>
<g id="a_node18"><a xlink:title=" ">
<polygon fill="white" stroke="#bfbfbf" points="807,-123.5 807,-142.5 880,-142.5 880,-123.5 807,-123.5"/>
<text text-anchor="middle" x="843.5" y="-130.5" font-family="Helvetica,sans-Serif" font-size="10.00">G4Types.hh</text>
</a>
</g>
</g>
<!-- Node18&#45;&gt;Node19 -->
<g id="edge19" class="edge">
<title>Node18&#45;&gt;Node19</title>
<path fill="none" stroke="midnightblue" d="M843.5,-179.08C843.5,-172.01 843.5,-161.86 843.5,-152.99"/>
<polygon fill="midnightblue" stroke="midnightblue" points="847,-152.75 843.5,-142.75 840,-152.75 847,-152.75"/>
</g>
<!-- Node20 -->
<g id="node19" class="node">
<title>Node20</title>
<g id="a_node19"><a xlink:title=" ">
<polygon fill="white" stroke="#bfbfbf" points="974.5,-123.5 974.5,-142.5 1012.5,-142.5 1012.5,-123.5 974.5,-123.5"/>
<text text-anchor="middle" x="993.5" y="-130.5" font-family="Helvetica,sans-Serif" font-size="10.00">map</text>
</a>
</g>
</g>
<!-- Node18&#45;&gt;Node20 -->
<g id="edge20" class="edge">
<title>Node18&#45;&gt;Node20</title>
<path fill="none" stroke="midnightblue" d="M867.27,-179.44C893.61,-169.96 936.1,-154.67 964.4,-144.47"/>
<polygon fill="midnightblue" stroke="midnightblue" points="965.91,-147.65 974.14,-140.97 963.54,-141.07 965.91,-147.65"/>
</g>
<!-- Node21 -->
<g id="node20" class="node">
<title>Node21</title>
<g id="a_node20"><a xlink:title=" ">
<polygon fill="white" stroke="#bfbfbf" points="657,-123.5 657,-142.5 718,-142.5 718,-123.5 657,-123.5"/>
<text text-anchor="middle" x="687.5" y="-130.5" font-family="Helvetica,sans-Serif" font-size="10.00">TGraph.h</text>
</a>
</g>
</g>
<!-- Node18&#45;&gt;Node21 -->
<g id="edge21" class="edge">
<title>Node18&#45;&gt;Node21</title>
<path fill="none" stroke="midnightblue" d="M818.78,-179.44C792.65,-170.4 751.24,-156.06 721.92,-145.92"/>
<polygon fill="midnightblue" stroke="midnightblue" points="722.7,-142.48 712.1,-142.52 720.41,-149.1 722.7,-142.48"/>
</g>
<!-- Node22 -->
<g id="node21" class="node">
<title>Node22</title>
<g id="a_node21"><a xlink:title=" ">
<polygon fill="white" stroke="#bfbfbf" points="736,-123.5 736,-142.5 789,-142.5 789,-123.5 736,-123.5"/>
<text text-anchor="middle" x="762.5" y="-130.5" font-family="Helvetica,sans-Serif" font-size="10.00">TH2D.h</text>
</a>
</g>
</g>
<!-- Node18&#45;&gt;Node22 -->
<g id="edge22" class="edge">
<title>Node18&#45;&gt;Node22</title>
<path fill="none" stroke="midnightblue" d="M830.49,-179.32C817.97,-170.98 798.82,-158.21 784.03,-148.35"/>
<polygon fill="midnightblue" stroke="midnightblue" points="785.74,-145.29 775.48,-142.65 781.86,-151.11 785.74,-145.29"/>
</g>
<!-- Node25&#45;&gt;Node3 -->
<g id="edge31" class="edge">
<title>Node25&#45;&gt;Node3</title>
<path fill="none" stroke="midnightblue" d="M690.53,-291.44C669.89,-282.6 637.44,-268.69 613.87,-258.59"/>
<polygon fill="midnightblue" stroke="midnightblue" points="614.94,-255.24 604.37,-254.52 612.18,-261.67 614.94,-255.24"/>
</g>
<!-- Node25&#45;&gt;Node4 -->
<g id="edge26" class="edge">
<title>Node25&#45;&gt;Node4</title>
<path fill="none" stroke="midnightblue" d="M709.34,-291.28C707.08,-277.61 700.9,-251.05 685.5,-235 670.35,-219.21 648.74,-208.65 629.13,-201.75"/>
<polygon fill="midnightblue" stroke="midnightblue" points="630,-198.35 619.41,-198.56 627.82,-205.01 630,-198.35"/>
</g>
<!-- Node26 -->
<g id="node25" class="node">
<title>Node26</title>
<g id="a_node25"><a xlink:href="_o_m_sim_hit_manager_8hh.html" target="_top" xlink:title="Defines structures and classes related to optical module photon hit management.">
<polygon fill="white" stroke="black" points="1157,-235.5 1157,-254.5 1280,-254.5 1280,-235.5 1157,-235.5"/>
<text text-anchor="middle" x="1218.5" y="-242.5" font-family="Helvetica,sans-Serif" font-size="10.00">OMSimHitManager.hh</text>
</a>
</g>
</g>
<!-- Node25&#45;&gt;Node26 -->
<g id="edge27" class="edge">
<title>Node25&#45;&gt;Node26</title>
<path fill="none" stroke="midnightblue" d="M779.03,-292.81C784.94,-292.2 790.83,-291.59 796.5,-291 949.28,-275.17 990.04,-272.95 1146.93,-255.04"/>
<polygon fill="midnightblue" stroke="midnightblue" points="1147.4,-258.51 1156.94,-253.9 1146.6,-251.56 1147.4,-258.51"/>
</g>
<!-- Node26&#45;&gt;Node18 -->
<g id="edge28" class="edge">
<title>Node26&#45;&gt;Node18</title>
<path fill="none" stroke="midnightblue" d="M1159.08,-235.44C1092.15,-225.81 983.52,-210.16 912.79,-199.98"/>
<polygon fill="midnightblue" stroke="midnightblue" points="913.04,-196.48 902.64,-198.52 912.04,-203.41 913.04,-196.48"/>
</g>
<!-- Node27 -->
<g id="node26" class="node">
<title>Node27</title>
<g id="a_node26"><a xlink:title=" ">
<polygon fill="white" stroke="#bfbfbf" points="1274,-179.5 1274,-198.5 1377,-198.5 1377,-179.5 1274,-179.5"/>
<text text-anchor="middle" x="1325.5" y="-186.5" font-family="Helvetica,sans-Serif" font-size="10.00">G4ThreeVector.hh</text>
</a>
</g>
</g>
<!-- Node26&#45;&gt;Node27 -->
<g id="edge29" class="edge">
<title>Node26&#45;&gt;Node27</title>
<path fill="none" stroke="midnightblue" d="M1235.69,-235.32C1252.85,-226.66 1279.45,-213.24 1299.25,-203.25"/>
<polygon fill="midnightblue" stroke="midnightblue" points="1301,-206.28 1308.35,-198.65 1297.85,-200.04 1301,-206.28"/>
</g>
<!-- Node28 -->
<g id="node27" class="node">
<title>Node28</title>
<g id="a_node27"><a xlink:title=" ">
<polygon fill="white" stroke="#bfbfbf" points="1201,-179.5 1201,-198.5 1256,-198.5 1256,-179.5 1201,-179.5"/>
<text text-anchor="middle" x="1228.5" y="-186.5" font-family="Helvetica,sans-Serif" font-size="10.00">fstream</text>
</a>
</g>
</g>
<!-- Node26&#45;&gt;Node28 -->
<g id="edge30" class="edge">
<title>Node26&#45;&gt;Node28</title>
<path fill="none" stroke="midnightblue" d="M1220.15,-235.08C1221.48,-227.93 1223.38,-217.64 1225.04,-208.69"/>
<polygon fill="midnightblue" stroke="midnightblue" points="1228.5,-209.22 1226.88,-198.75 1221.62,-207.95 1228.5,-209.22"/>
</g>
<!-- Node31&#45;&gt;Node9 -->
<g id="edge40" class="edge">
<title>Node31&#45;&gt;Node9</title>
<path fill="none" stroke="midnightblue" d="M2092.66,-235.06C2096.81,-221.57 2102.3,-195.82 2090.5,-179 1994.55,-42.24 1771.43,-20.1 1680.81,-16.86"/>
<polygon fill="midnightblue" stroke="midnightblue" points="1680.79,-13.36 1670.69,-16.56 1680.58,-20.36 1680.79,-13.36"/>
</g>
<!-- Node31&#45;&gt;Node20 -->
<g id="edge37" class="edge">
<title>Node31&#45;&gt;Node20</title>
<path fill="none" stroke="midnightblue" d="M2089.88,-235.1C2089.95,-220.68 2087.72,-192.48 2070.5,-179 2028.09,-145.81 1191.13,-135.92 1022.83,-134.27"/>
<polygon fill="midnightblue" stroke="midnightblue" points="1022.76,-130.77 1012.73,-134.17 1022.69,-137.77 1022.76,-130.77"/>
</g>
<!-- Node31&#45;&gt;Node27 -->
<g id="edge38" class="edge">
<title>Node31&#45;&gt;Node27</title>
<path fill="none" stroke="midnightblue" d="M2049.76,-242.61C1943.88,-238.65 1645.95,-225.91 1387.02,-198.96"/>
<polygon fill="midnightblue" stroke="midnightblue" points="1387.36,-195.47 1377.05,-197.91 1386.63,-202.44 1387.36,-195.47"/>
</g>
<!-- Node31&#45;&gt;Node28 -->
<g id="edge51" class="edge">
<title>Node31&#45;&gt;Node28</title>
<path fill="none" stroke="midnightblue" d="M2049.79,-244.41C1931.69,-245.09 1572.39,-243.19 1266.23,-198.8"/>
<polygon fill="midnightblue" stroke="midnightblue" points="1266.67,-195.33 1256.27,-197.34 1265.66,-202.25 1266.67,-195.33"/>
</g>
<!-- Node31&#45;&gt;Node29 -->
<g id="edge45" class="edge">
<title>Node31&#45;&gt;Node29</title>
<path fill="none" stroke="midnightblue" d="M2049.84,-241.58C1958.7,-235.86 1727.1,-220.44 1521.78,-198.97"/>
<polygon fill="midnightblue" stroke="midnightblue" points="1522.03,-195.48 1511.71,-197.91 1521.29,-202.44 1522.03,-195.48"/>
</g>
<!-- Node32 -->
<g id="node31" class="node">
<title>Node32</title>
<g id="a_node31"><a xlink:title=" ">
<polygon fill="white" stroke="#bfbfbf" points="2155.5,-179.5 2155.5,-198.5 2229.5,-198.5 2229.5,-179.5 2155.5,-179.5"/>
<text text-anchor="middle" x="2192.5" y="-186.5" font-family="Helvetica,sans-Serif" font-size="10.00">G4String.hh</text>
</a>
</g>
</g>
<!-- Node31&#45;&gt;Node32 -->
<g id="edge35" class="edge">
<title>Node31&#45;&gt;Node32</title>
<path fill="none" stroke="midnightblue" d="M2106.05,-235.32C2122.49,-226.7 2147.93,-213.36 2166.97,-203.39"/>
<polygon fill="midnightblue" stroke="midnightblue" points="2168.76,-206.4 2175.99,-198.65 2165.51,-200.2 2168.76,-206.4"/>
</g>
<!-- Node33 -->
<g id="node32" class="node">
<title>Node33</title>
<g id="a_node32"><a xlink:title=" ">
<polygon fill="white" stroke="#bfbfbf" points="2247.5,-179.5 2247.5,-198.5 2311.5,-198.5 2311.5,-179.5 2247.5,-179.5"/>
<text text-anchor="middle" x="2279.5" y="-186.5" font-family="Helvetica,sans-Serif" font-size="10.00">algorithm</text>
</a>
</g>
</g>
<!-- Node31&#45;&gt;Node33 -->
<g id="edge36" class="edge">
<title>Node31&#45;&gt;Node33</title>
<path fill="none" stroke="midnightblue" d="M2119.61,-235.44C2152.13,-226.2 2204.08,-211.44 2239.89,-201.26"/>
<polygon fill="midnightblue" stroke="midnightblue" points="2240.87,-204.62 2249.53,-198.52 2238.96,-197.88 2240.87,-204.62"/>
</g>
<!-- Node34 -->
<g id="node33" class="node">
<title>Node34</title>
<g id="a_node33"><a xlink:title=" ">
<polygon fill="white" stroke="#bfbfbf" points="2330,-179.5 2330,-198.5 2449,-198.5 2449,-179.5 2330,-179.5"/>
<text text-anchor="middle" x="2389.5" y="-186.5" font-family="Helvetica,sans-Serif" font-size="10.00">G4TriangularFacet.hh</text>
</a>
</g>
</g>
<!-- Node31&#45;&gt;Node34 -->
<g id="edge39" class="edge">
<title>Node31&#45;&gt;Node34</title>
<path fill="none" stroke="midnightblue" d="M2129.03,-236.88C2180.99,-227.53 2272.65,-211.03 2332.22,-200.31"/>
<polygon fill="midnightblue" stroke="midnightblue" points="2333,-203.73 2342.22,-198.51 2331.76,-196.84 2333,-203.73"/>
</g>
<!-- Node35 -->
<g id="node34" class="node">
<title>Node35</title>
<g id="a_node34"><a xlink:title=" ">
<polygon fill="white" stroke="#bfbfbf" points="2467,-179.5 2467,-198.5 2514,-198.5 2514,-179.5 2467,-179.5"/>
<text text-anchor="middle" x="2490.5" y="-186.5" font-family="Helvetica,sans-Serif" font-size="10.00">vector</text>
</a>
</g>
</g>
<!-- Node31&#45;&gt;Node35 -->
<g id="edge41" class="edge">
<title>Node31&#45;&gt;Node35</title>
<path fill="none" stroke="midnightblue" d="M2129.14,-241.17C2195.27,-236 2332.37,-223.46 2456.76,-199.1"/>
<polygon fill="midnightblue" stroke="midnightblue" points="2457.71,-202.48 2466.83,-197.09 2456.34,-195.61 2457.71,-202.48"/>
</g>
<!-- Node36 -->
<g id="node35" class="node">
<title>Node36</title>
<g id="a_node35"><a xlink:title=" ">
<polygon fill="white" stroke="#bfbfbf" points="2532.5,-179.5 2532.5,-198.5 2592.5,-198.5 2592.5,-179.5 2532.5,-179.5"/>
<text text-anchor="middle" x="2562.5" y="-186.5" font-family="Helvetica,sans-Serif" font-size="10.00">iostream</text>
</a>
</g>
</g>
<!-- Node31&#45;&gt;Node36 -->
<g id="edge42" class="edge">
<title>Node31&#45;&gt;Node36</title>
<path fill="none" stroke="midnightblue" d="M2129.21,-241.53C2204.2,-236.51 2371.88,-223.59 2522.45,-198.99"/>
<polygon fill="midnightblue" stroke="midnightblue" points="2523.05,-202.43 2532.34,-197.35 2521.9,-195.53 2523.05,-202.43"/>
</g>
<!-- Node37 -->
<g id="node36" class="node">
<title>Node37</title>
<g id="a_node36"><a xlink:title=" ">
<polygon fill="white" stroke="#bfbfbf" points="2610.5,-179.5 2610.5,-198.5 2654.5,-198.5 2654.5,-179.5 2610.5,-179.5"/>
<text text-anchor="middle" x="2632.5" y="-186.5" font-family="Helvetica,sans-Serif" font-size="10.00">string</text>
</a>
</g>
</g>
<!-- Node31&#45;&gt;Node37 -->
<g id="edge43" class="edge">
<title>Node31&#45;&gt;Node37</title>
<path fill="none" stroke="midnightblue" d="M2129.04,-243.14C2213.9,-240.74 2419.78,-231.93 2600.34,-198.86"/>
<polygon fill="midnightblue" stroke="midnightblue" points="2601.08,-202.29 2610.27,-197.02 2599.8,-195.4 2601.08,-202.29"/>
</g>
<!-- Node38 -->
<g id="node37" class="node">
<title>Node38</title>
<g id="a_node37"><a xlink:title=" ">
<polygon fill="white" stroke="#bfbfbf" points="2672.5,-179.5 2672.5,-198.5 2802.5,-198.5 2802.5,-179.5 2672.5,-179.5"/>
<text text-anchor="middle" x="2737.5" y="-186.5" font-family="Helvetica,sans-Serif" font-size="10.00">G4AssemblyVolume.hh</text>
</a>
</g>
</g>
<!-- Node31&#45;&gt;Node38 -->
<g id="edge44" class="edge">
<title>Node31&#45;&gt;Node38</title>
<path fill="none" stroke="midnightblue" d="M2129.22,-241.47C2221.05,-235.51 2455.37,-219.56 2662.02,-199.11"/>
<polygon fill="midnightblue" stroke="midnightblue" points="2662.54,-202.58 2672.15,-198.1 2661.85,-195.61 2662.54,-202.58"/>
</g>
<!-- Node39 -->
<g id="node38" class="node">
<title>Node39</title>
<g id="a_node38"><a xlink:title=" ">
<polygon fill="white" stroke="#bfbfbf" points="2820.5,-179.5 2820.5,-198.5 2906.5,-198.5 2906.5,-179.5 2820.5,-179.5"/>
<text text-anchor="middle" x="2863.5" y="-186.5" font-family="Helvetica,sans-Serif" font-size="10.00">G4Material.hh</text>
</a>
</g>
</g>
<!-- Node31&#45;&gt;Node39 -->
<g id="edge46" class="edge">
<title>Node31&#45;&gt;Node39</title>
<path fill="none" stroke="midnightblue" d="M2129.16,-243.05C2236.94,-240.14 2544.42,-229.68 2810.19,-199.02"/>
<polygon fill="midnightblue" stroke="midnightblue" points="2810.9,-202.46 2820.42,-197.83 2810.08,-195.51 2810.9,-202.46"/>
</g>
<!-- Node40 -->
<g id="node39" class="node">
<title>Node40</title>
<g id="a_node39"><a xlink:title=" ">
<polygon fill="white" stroke="#bfbfbf" points="2924.5,-179.5 2924.5,-198.5 3048.5,-198.5 3048.5,-179.5 2924.5,-179.5"/>
<text text-anchor="middle" x="2986.5" y="-186.5" font-family="Helvetica,sans-Serif" font-size="10.00">G4TessellatedSolid.hh</text>
</a>
</g>
</g>
<!-- Node31&#45;&gt;Node40 -->
<g id="edge47" class="edge">
<title>Node31&#45;&gt;Node40</title>
<path fill="none" stroke="midnightblue" d="M2129.12,-242.85C2246.99,-239.21 2605.88,-226.59 2914.16,-199.06"/>
<polygon fill="midnightblue" stroke="midnightblue" points="2914.54,-202.54 2924.19,-198.15 2913.92,-195.57 2914.54,-202.54"/>
</g>
<!-- Node41 -->
<g id="node40" class="node">
<title>Node41</title>
<g id="a_node40"><a xlink:title=" ">
<polygon fill="white" stroke="#bfbfbf" points="1530,-179.5 1530,-198.5 1589,-198.5 1589,-179.5 1530,-179.5"/>
<text text-anchor="middle" x="1559.5" y="-186.5" font-family="Helvetica,sans-Serif" font-size="10.00">G4Tet.hh</text>
</a>
</g>
</g>
<!-- Node31&#45;&gt;Node41 -->
<g id="edge48" class="edge">
<title>Node31&#45;&gt;Node41</title>
<path fill="none" stroke="midnightblue" d="M2049.81,-242.19C1967.6,-238.04 1772.62,-226.18 1599.3,-198.9"/>
<polygon fill="midnightblue" stroke="midnightblue" points="1599.66,-195.42 1589.23,-197.3 1598.55,-202.33 1599.66,-195.42"/>
</g>
<!-- Node42 -->
<g id="node41" class="node">
<title>Node42</title>
<g id="a_node41"><a xlink:title=" ">
<polygon fill="white" stroke="#bfbfbf" points="1607.5,-179.5 1607.5,-198.5 1711.5,-198.5 1711.5,-179.5 1607.5,-179.5"/>
<text text-anchor="middle" x="1659.5" y="-186.5" font-family="Helvetica,sans-Serif" font-size="10.00">G4UIcommand.hh</text>
</a>
</g>
</g>
<!-- Node31&#45;&gt;Node42 -->
<g id="edge49" class="edge">
<title>Node31&#45;&gt;Node42</title>
<path fill="none" stroke="midnightblue" d="M2049.98,-239.46C1982.55,-231.65 1840.96,-214.97 1721.5,-199 1721.4,-198.99 1721.3,-198.97 1721.2,-198.96"/>
<polygon fill="midnightblue" stroke="midnightblue" points="1721.96,-195.53 1711.58,-197.65 1721.02,-202.47 1721.96,-195.53"/>
</g>
<!-- Node43 -->
<g id="node42" class="node">
<title>Node43</title>
<g id="a_node42"><a xlink:title=" ">
<polygon fill="white" stroke="#bfbfbf" points="1730,-179.5 1730,-198.5 1797,-198.5 1797,-179.5 1730,-179.5"/>
<text text-anchor="middle" x="1763.5" y="-186.5" font-family="Helvetica,sans-Serif" font-size="10.00">globals.hh</text>
</a>
</g>
</g>
<!-- Node31&#45;&gt;Node43 -->
<g id="edge50" class="edge">
<title>Node31&#45;&gt;Node43</title>
<path fill="none" stroke="midnightblue" d="M2049.56,-238.27C1996.59,-230.54 1899.96,-215.96 1807.37,-199.08"/>
<polygon fill="midnightblue" stroke="midnightblue" points="1807.74,-195.59 1797.27,-197.23 1806.47,-202.48 1807.74,-195.59"/>
</g>
<!-- Node44 -->
<g id="node43" class="node">
<title>Node44</title>
<g id="a_node43"><a xlink:title=" ">
<polygon fill="white" stroke="#bfbfbf" points="1815.5,-179.5 1815.5,-198.5 1871.5,-198.5 1871.5,-179.5 1815.5,-179.5"/>
<text text-anchor="middle" x="1843.5" y="-186.5" font-family="Helvetica,sans-Serif" font-size="10.00">sstream</text>
</a>
</g>
</g>
<!-- Node31&#45;&gt;Node44 -->
<g id="edge52" class="edge">
<title>Node31&#45;&gt;Node44</title>
<path fill="none" stroke="midnightblue" d="M2049.96,-235.69C2008.08,-226.82 1940.05,-212.27 1881.5,-199 1881.4,-198.98 1881.3,-198.96 1881.2,-198.93"/>
<polygon fill="midnightblue" stroke="midnightblue" points="1882.24,-195.58 1871.71,-196.75 1880.67,-202.4 1882.24,-195.58"/>
</g>
<!-- Node45 -->
<g id="node44" class="node">
<title>Node45</title>
<g id="a_node44"><a xlink:title=" ">
<polygon fill="white" stroke="#bfbfbf" points="1890,-179.5 1890,-198.5 1957,-198.5 1957,-179.5 1890,-179.5"/>
<text text-anchor="middle" x="1923.5" y="-186.5" font-family="Helvetica,sans-Serif" font-size="10.00">streambuf</text>
</a>
</g>
</g>
<!-- Node31&#45;&gt;Node45 -->
<g id="edge53" class="edge">
<title>Node31&#45;&gt;Node45</title>
<path fill="none" stroke="midnightblue" d="M2063.2,-235.44C2035.15,-226.32 1990.56,-211.81 1959.32,-201.65"/>
<polygon fill="midnightblue" stroke="midnightblue" points="1960.27,-198.28 1949.68,-198.52 1958.11,-204.94 1960.27,-198.28"/>
</g>
<!-- Node46 -->
<g id="node45" class="node">
<title>Node46</title>
<g id="a_node45"><a xlink:title=" ">
<polygon fill="white" stroke="#bfbfbf" points="1975.5,-179.5 1975.5,-198.5 2061.5,-198.5 2061.5,-179.5 1975.5,-179.5"/>
<text text-anchor="middle" x="2018.5" y="-186.5" font-family="Helvetica,sans-Serif" font-size="10.00">Randomize.hh</text>
</a>
</g>
</g>
<!-- Node31&#45;&gt;Node46 -->
<g id="edge54" class="edge">
<title>Node31&#45;&gt;Node46</title>
<path fill="none" stroke="midnightblue" d="M2078.09,-235.32C2067.39,-227.18 2051.16,-214.84 2038.34,-205.09"/>
<polygon fill="midnightblue" stroke="midnightblue" points="2040.19,-202.1 2030.11,-198.83 2035.96,-207.67 2040.19,-202.1"/>
</g>
<!-- Node47&#45;&gt;Node6 -->
<g id="edge57" class="edge">
<title>Node47&#45;&gt;Node6</title>
<path fill="none" stroke="midnightblue" d="M1040.17,-235.39C1027.54,-227.72 1011,-215.21 1003.5,-199 999.77,-190.93 1001.46,-187.65 1003.5,-179 1007.61,-161.59 1017.39,-160.41 1021.5,-143 1023.54,-134.35 1023.94,-131.55 1021.5,-123 1018.6,-112.84 1012.67,-102.75 1007.01,-94.7"/>
<polygon fill="midnightblue" stroke="midnightblue" points="1009.72,-92.48 1000.91,-86.59 1004.12,-96.69 1009.72,-92.48"/>
</g>
<!-- Node47&#45;&gt;Node28 -->
<g id="edge58" class="edge">
<title>Node47&#45;&gt;Node28</title>
<path fill="none" stroke="midnightblue" d="M1083.75,-235.44C1112.94,-226.28 1159.42,-211.69 1191.81,-201.52"/>
<polygon fill="midnightblue" stroke="midnightblue" points="1192.88,-204.85 1201.37,-198.52 1190.78,-198.17 1192.88,-204.85"/>
</g>
<!-- Node48 -->
<g id="node47" class="node">
<title>Node48</title>
<g id="a_node47"><a xlink:title=" ">
<polygon fill="white" stroke="#bfbfbf" points="1012.5,-179.5 1012.5,-198.5 1096.5,-198.5 1096.5,-179.5 1012.5,-179.5"/>
<text text-anchor="middle" x="1054.5" y="-186.5" font-family="Helvetica,sans-Serif" font-size="10.00">boost/any.hpp</text>
</a>
</g>
</g>
<!-- Node47&#45;&gt;Node48 -->
<g id="edge59" class="edge">
<title>Node47&#45;&gt;Node48</title>
<path fill="none" stroke="midnightblue" d="M1056.17,-235.08C1055.91,-228.01 1055.53,-217.86 1055.2,-208.99"/>
<polygon fill="midnightblue" stroke="midnightblue" points="1058.69,-208.61 1054.82,-198.75 1051.7,-208.87 1058.69,-208.61"/>
</g>
<!-- Node49 -->
<g id="node48" class="node">
<title>Node49</title>
<g id="a_node48"><a xlink:title=" ">
<polygon fill="white" stroke="#bfbfbf" points="1114.5,-179.5 1114.5,-198.5 1182.5,-198.5 1182.5,-179.5 1114.5,-179.5"/>
<text text-anchor="middle" x="1148.5" y="-186.5" font-family="Helvetica,sans-Serif" font-size="10.00">sys/time.h</text>
</a>
</g>
</g>
<!-- Node47&#45;&gt;Node49 -->
<g id="edge60" class="edge">
<title>Node47&#45;&gt;Node49</title>
<path fill="none" stroke="midnightblue" d="M1071.28,-235.32C1085.77,-226.82 1108.07,-213.73 1124.99,-203.8"/>
<polygon fill="midnightblue" stroke="midnightblue" points="1126.9,-206.74 1133.76,-198.65 1123.36,-200.7 1126.9,-206.74"/>
</g>
</g>
</svg>
