<?xml version="1.0" encoding="UTF-8" standalone="no"?>
<!DOCTYPE svg PUBLIC "-//W3C//DTD SVG 1.1//EN"
 "http://www.w3.org/Graphics/SVG/1.1/DTD/svg11.dtd">
<!-- Generated by graphviz version 2.43.0 (0)
 -->
<!-- Title: OMSim_supernova.cc Pages: 1 -->
<svg width="2165pt" height="375pt"
 viewBox="0.00 0.00 2165.00 375.00" xmlns="http://www.w3.org/2000/svg" xmlns:xlink="http://www.w3.org/1999/xlink">
<g id="graph0" class="graph" transform="scale(1 1) rotate(0) translate(4 371)">
<title>OMSim_supernova.cc</title>
<!-- Node1 -->
<g id="node1" class="node">
<title>Node1</title>
<g id="a_node1"><a xlink:title="Main of the supernova study.">
<polygon fill="#bfbfbf" stroke="black" points="515.5,-347.5 515.5,-366.5 637.5,-366.5 637.5,-347.5 515.5,-347.5"/>
<text text-anchor="middle" x="576.5" y="-354.5" font-family="Helvetica,sans-Serif" font-size="10.00">OMSim_supernova.cc</text>
</a>
</g>
</g>
<!-- Node2 -->
<g id="node2" class="node">
<title>Node2</title>
<g id="a_node2"><a xlink:href="_o_m_sim_8hh.html" target="_top" xlink:title="Main simulation class for the Optical Module (OM) simulation. This file defines the OMSim class,...">
<polygon fill="none" stroke="black" points="1113,-291.5 1113,-310.5 1180,-310.5 1180,-291.5 1113,-291.5"/>
<text text-anchor="middle" x="1146.5" y="-298.5" font-family="Helvetica,sans-Serif" font-size="10.00">OMSim.hh</text>
</a>
</g>
</g>
<!-- Node1&#45;&gt;Node2 -->
<g id="edge1" class="edge">
<title>Node1&#45;&gt;Node2</title>
<path fill="none" stroke="midnightblue" d="M637.77,-350.2C753.57,-339.22 1001.98,-315.69 1102.71,-306.15"/>
<polygon fill="midnightblue" stroke="midnightblue" points="1103.21,-309.62 1112.84,-305.19 1102.55,-302.65 1103.21,-309.62"/>
</g>
<!-- Node26 -->
<g id="node6" class="node">
<title>Node26</title>
<g id="a_node6"><a xlink:href="_o_m_sim_hit_manager_8hh.html" target="_top" xlink:title="Defines structures and classes related to optical module photon hit management.">
<polygon fill="none" stroke="black" points="380,-123.5 380,-142.5 503,-142.5 503,-123.5 380,-123.5"/>
<text text-anchor="middle" x="441.5" y="-130.5" font-family="Helvetica,sans-Serif" font-size="10.00">OMSimHitManager.hh</text>
</a>
</g>
</g>
<!-- Node1&#45;&gt;Node26 -->
<g id="edge59" class="edge">
<title>Node1&#45;&gt;Node26</title>
<path fill="none" stroke="midnightblue" d="M515.32,-349.48C460.26,-339.72 384.44,-315.42 360.5,-255 348.05,-223.59 341.21,-208.03 358.5,-179 367.6,-163.72 383.89,-153.31 399.64,-146.39"/>
<polygon fill="midnightblue" stroke="midnightblue" points="401.33,-149.48 409.32,-142.51 398.73,-142.98 401.33,-149.48"/>
</g>
<!-- Node40 -->
<g id="node21" class="node">
<title>Node40</title>
<g id="a_node21"><a xlink:title=" ">
<polygon fill="none" stroke="#bfbfbf" points="558,-235.5 558,-254.5 743,-254.5 743,-235.5 558,-235.5"/>
<text text-anchor="middle" x="650.5" y="-242.5" font-family="Helvetica,sans-Serif" font-size="10.00">OMSimPrimaryGeneratorAction.hh</text>
</a>
</g>
</g>
<!-- Node1&#45;&gt;Node40 -->
<g id="edge58" class="edge">
<title>Node1&#45;&gt;Node40</title>
<path fill="none" stroke="midnightblue" d="M582.31,-347.37C594.52,-329.22 623.05,-286.8 639.07,-262.99"/>
<polygon fill="midnightblue" stroke="midnightblue" points="642.04,-264.84 644.72,-254.59 636.23,-260.94 642.04,-264.84"/>
</g>
<!-- Node60 -->
<g id="node45" class="node">
<title>Node60</title>
<g id="a_node45"><a xlink:href="_o_m_sim_s_n_analysis_8hh_source.html" target="_top" xlink:title=" ">
<polygon fill="none" stroke="black" points="177.5,-179.5 177.5,-198.5 299.5,-198.5 299.5,-179.5 177.5,-179.5"/>
<text text-anchor="middle" x="238.5" y="-186.5" font-family="Helvetica,sans-Serif" font-size="10.00">OMSimSNAnalysis.hh</text>
</a>
</g>
</g>
<!-- Node1&#45;&gt;Node60 -->
<g id="edge50" class="edge">
<title>Node1&#45;&gt;Node60</title>
<path fill="none" stroke="midnightblue" d="M515.32,-350.34C451.45,-343.5 356.35,-330.45 325.5,-311 285.69,-285.91 258.54,-235.4 246.15,-208.25"/>
<polygon fill="midnightblue" stroke="midnightblue" points="249.22,-206.54 242,-198.79 242.81,-209.36 249.22,-206.54"/>
</g>
<!-- Node64 -->
<g id="node49" class="node">
<title>Node64</title>
<g id="a_node49"><a xlink:title=" ">
<polygon fill="none" stroke="#bfbfbf" points="1198.5,-291.5 1198.5,-310.5 1290.5,-310.5 1290.5,-291.5 1198.5,-291.5"/>
<text text-anchor="middle" x="1244.5" y="-298.5" font-family="Helvetica,sans-Serif" font-size="10.00">G4Navigator.hh</text>
</a>
</g>
</g>
<!-- Node1&#45;&gt;Node64 -->
<g id="edge60" class="edge">
<title>Node1&#45;&gt;Node64</title>
<path fill="none" stroke="midnightblue" d="M637.91,-353.23C746.57,-347.96 980.03,-334.9 1188.19,-310.92"/>
<polygon fill="midnightblue" stroke="midnightblue" points="1188.87,-314.36 1198.4,-309.73 1188.06,-307.41 1188.87,-314.36"/>
</g>
<!-- Node65 -->
<g id="node50" class="node">
<title>Node65</title>
<g id="a_node50"><a xlink:href="_o_m_sim_s_ndetector_8hh_source.html" target="_top" xlink:title=" ">
<polygon fill="none" stroke="black" points="418.5,-291.5 418.5,-310.5 538.5,-310.5 538.5,-291.5 418.5,-291.5"/>
<text text-anchor="middle" x="478.5" y="-298.5" font-family="Helvetica,sans-Serif" font-size="10.00">OMSimSNdetector.hh</text>
</a>
</g>
</g>
<!-- Node1&#45;&gt;Node65 -->
<g id="edge61" class="edge">
<title>Node1&#45;&gt;Node65</title>
<path fill="none" stroke="midnightblue" d="M560.75,-347.32C545.18,-338.74 521.12,-325.49 503.04,-315.52"/>
<polygon fill="midnightblue" stroke="midnightblue" points="504.65,-312.42 494.21,-310.65 501.28,-318.55 504.65,-312.42"/>
</g>
<!-- Node3 -->
<g id="node3" class="node">
<title>Node3</title>
<g id="a_node3"><a xlink:href="_o_m_sim_detector_construction_8hh_source.html" target="_top" xlink:title=" ">
<polygon fill="none" stroke="black" points="369.5,-235.5 369.5,-254.5 539.5,-254.5 539.5,-235.5 369.5,-235.5"/>
<text text-anchor="middle" x="454.5" y="-242.5" font-family="Helvetica,sans-Serif" font-size="10.00">OMSimDetectorConstruction.hh</text>
</a>
</g>
</g>
<!-- Node2&#45;&gt;Node3 -->
<g id="edge2" class="edge">
<title>Node2&#45;&gt;Node3</title>
<path fill="none" stroke="midnightblue" d="M1112.76,-297.7C1023.07,-291.54 771.02,-273.9 549.73,-255.09"/>
<polygon fill="midnightblue" stroke="midnightblue" points="549.81,-251.58 539.55,-254.22 549.21,-258.56 549.81,-251.58"/>
</g>
<!-- Node39 -->
<g id="node20" class="node">
<title>Node39</title>
<g id="a_node20"><a xlink:title=" ">
<polygon fill="none" stroke="#bfbfbf" points="1314,-235.5 1314,-254.5 1435,-254.5 1435,-235.5 1314,-235.5"/>
<text text-anchor="middle" x="1374.5" y="-242.5" font-family="Helvetica,sans-Serif" font-size="10.00">OMSimPhysicsList.hh</text>
</a>
</g>
</g>
<!-- Node2&#45;&gt;Node39 -->
<g id="edge22" class="edge">
<title>Node2&#45;&gt;Node39</title>
<path fill="none" stroke="midnightblue" d="M1180.14,-292.03C1219.44,-282.72 1284.67,-267.27 1328.6,-256.87"/>
<polygon fill="midnightblue" stroke="midnightblue" points="1329.54,-260.25 1338.46,-254.54 1327.92,-253.43 1329.54,-260.25"/>
</g>
<!-- Node2&#45;&gt;Node40 -->
<g id="edge23" class="edge">
<title>Node2&#45;&gt;Node40</title>
<path fill="none" stroke="midnightblue" d="M1112.8,-296.33C1036.89,-288.07 850.48,-267.77 738.93,-255.63"/>
<polygon fill="midnightblue" stroke="midnightblue" points="739.02,-252.12 728.7,-254.51 738.27,-259.08 739.02,-252.12"/>
</g>
<!-- Node41 -->
<g id="node22" class="node">
<title>Node41</title>
<g id="a_node22"><a xlink:href="_o_m_sim_run_action_8hh_source.html" target="_top" xlink:title=" ">
<polygon fill="none" stroke="black" points="943.5,-179.5 943.5,-198.5 1059.5,-198.5 1059.5,-179.5 943.5,-179.5"/>
<text text-anchor="middle" x="1001.5" y="-186.5" font-family="Helvetica,sans-Serif" font-size="10.00">OMSimRunAction.hh</text>
</a>
</g>
</g>
<!-- Node2&#45;&gt;Node41 -->
<g id="edge24" class="edge">
<title>Node2&#45;&gt;Node41</title>
<path fill="none" stroke="midnightblue" d="M1146.36,-291.2C1145.66,-277.43 1142.34,-250.74 1127.5,-235 1111.88,-218.44 1089.76,-207.96 1068.4,-201.34"/>
<polygon fill="midnightblue" stroke="midnightblue" points="1069.24,-197.94 1058.67,-198.56 1067.32,-204.67 1069.24,-197.94"/>
</g>
<!-- Node45 -->
<g id="node31" class="node">
<title>Node45</title>
<g id="a_node31"><a xlink:title=" ">
<polygon fill="none" stroke="#bfbfbf" points="1453,-235.5 1453,-254.5 1578,-254.5 1578,-235.5 1453,-235.5"/>
<text text-anchor="middle" x="1515.5" y="-242.5" font-family="Helvetica,sans-Serif" font-size="10.00">OMSimEventAction.hh</text>
</a>
</g>
</g>
<!-- Node2&#45;&gt;Node45 -->
<g id="edge34" class="edge">
<title>Node2&#45;&gt;Node45</title>
<path fill="none" stroke="midnightblue" d="M1180.26,-292.7C1183.38,-292.1 1186.49,-291.52 1189.5,-291 1236.67,-282.82 1361.78,-266.06 1442.58,-255.47"/>
<polygon fill="midnightblue" stroke="midnightblue" points="1443.23,-258.91 1452.69,-254.14 1442.32,-251.97 1443.23,-258.91"/>
</g>
<!-- Node46 -->
<g id="node32" class="node">
<title>Node46</title>
<g id="a_node32"><a xlink:href="_o_m_sim_tracking_action_8hh_source.html" target="_top" xlink:title=" ">
<polygon fill="none" stroke="black" points="1596.5,-235.5 1596.5,-254.5 1734.5,-254.5 1734.5,-235.5 1596.5,-235.5"/>
<text text-anchor="middle" x="1665.5" y="-242.5" font-family="Helvetica,sans-Serif" font-size="10.00">OMSimTrackingAction.hh</text>
</a>
</g>
</g>
<!-- Node2&#45;&gt;Node46 -->
<g id="edge35" class="edge">
<title>Node2&#45;&gt;Node46</title>
<path fill="none" stroke="midnightblue" d="M1180.23,-292.55C1183.36,-291.98 1186.48,-291.45 1189.5,-291 1361.47,-265.29 1408.52,-272.74 1585.94,-255.02"/>
<polygon fill="midnightblue" stroke="midnightblue" points="1586.55,-258.48 1596.15,-253.99 1585.85,-251.52 1586.55,-258.48"/>
</g>
<!-- Node48 -->
<g id="node34" class="node">
<title>Node48</title>
<g id="a_node34"><a xlink:href="_o_m_sim_stepping_action_8hh.html" target="_top" xlink:title="Defines OMSimSteppingAction.Currently it only checks for trapped photons.">
<polygon fill="none" stroke="black" points="1752.5,-235.5 1752.5,-254.5 1892.5,-254.5 1892.5,-235.5 1752.5,-235.5"/>
<text text-anchor="middle" x="1822.5" y="-242.5" font-family="Helvetica,sans-Serif" font-size="10.00">OMSimSteppingAction.hh</text>
</a>
</g>
</g>
<!-- Node2&#45;&gt;Node48 -->
<g id="edge37" class="edge">
<title>Node2&#45;&gt;Node48</title>
<path fill="none" stroke="midnightblue" d="M1180.22,-292.47C1183.35,-291.92 1186.48,-291.41 1189.5,-291 1430.75,-258.08 1496.03,-276.47 1742.34,-255.06"/>
<polygon fill="midnightblue" stroke="midnightblue" points="1742.65,-258.54 1752.31,-254.18 1742.04,-251.57 1742.65,-258.54"/>
</g>
<!-- Node50 -->
<g id="node36" class="node">
<title>Node50</title>
<g id="a_node36"><a xlink:href="_o_m_sim_u_iinterface_8hh.html" target="_top" xlink:title=" ">
<polygon fill="none" stroke="black" points="1175,-235.5 1175,-254.5 1296,-254.5 1296,-235.5 1175,-235.5"/>
<text text-anchor="middle" x="1235.5" y="-242.5" font-family="Helvetica,sans-Serif" font-size="10.00">OMSimUIinterface.hh</text>
</a>
</g>
</g>
<!-- Node2&#45;&gt;Node50 -->
<g id="edge39" class="edge">
<title>Node2&#45;&gt;Node50</title>
<path fill="none" stroke="midnightblue" d="M1160.8,-291.32C1174.68,-282.9 1195.99,-269.97 1212.3,-260.07"/>
<polygon fill="midnightblue" stroke="midnightblue" points="1214.5,-262.83 1221.24,-254.65 1210.87,-256.85 1214.5,-262.83"/>
</g>
<!-- Node55 -->
<g id="node40" class="node">
<title>Node55</title>
<g id="a_node40"><a xlink:title=" ">
<polygon fill="none" stroke="#bfbfbf" points="1911,-235.5 1911,-254.5 2032,-254.5 2032,-235.5 1911,-235.5"/>
<text text-anchor="middle" x="1971.5" y="-242.5" font-family="Helvetica,sans-Serif" font-size="10.00">G4MTRunManager.hh</text>
</a>
</g>
</g>
<!-- Node2&#45;&gt;Node55 -->
<g id="edge45" class="edge">
<title>Node2&#45;&gt;Node55</title>
<path fill="none" stroke="midnightblue" d="M1180.22,-292.42C1183.34,-291.88 1186.47,-291.39 1189.5,-291 1500.36,-250.86 1584.12,-282.53 1900.44,-255.01"/>
<polygon fill="midnightblue" stroke="midnightblue" points="1901.17,-258.46 1910.82,-254.09 1900.56,-251.49 1901.17,-258.46"/>
</g>
<!-- Node56 -->
<g id="node41" class="node">
<title>Node56</title>
<g id="a_node41"><a xlink:title=" ">
<polygon fill="none" stroke="#bfbfbf" points="2050,-235.5 2050,-254.5 2157,-254.5 2157,-235.5 2050,-235.5"/>
<text text-anchor="middle" x="2103.5" y="-242.5" font-family="Helvetica,sans-Serif" font-size="10.00">G4VisExecutive.hh</text>
</a>
</g>
</g>
<!-- Node2&#45;&gt;Node56 -->
<g id="edge46" class="edge">
<title>Node2&#45;&gt;Node56</title>
<path fill="none" stroke="midnightblue" d="M1180.21,-292.4C1183.34,-291.86 1186.47,-291.38 1189.5,-291 1562.28,-244.43 1662.39,-289.46 2039.67,-255.07"/>
<polygon fill="midnightblue" stroke="midnightblue" points="2040.14,-258.55 2049.77,-254.14 2039.49,-251.58 2040.14,-258.55"/>
</g>
<!-- Node57 -->
<g id="node42" class="node">
<title>Node57</title>
<g id="a_node42"><a xlink:title=" ">
<polygon fill="none" stroke="#bfbfbf" points="761,-235.5 761,-254.5 864,-254.5 864,-235.5 761,-235.5"/>
<text text-anchor="middle" x="812.5" y="-242.5" font-family="Helvetica,sans-Serif" font-size="10.00">G4UIExecutive.hh</text>
</a>
</g>
</g>
<!-- Node2&#45;&gt;Node57 -->
<g id="edge47" class="edge">
<title>Node2&#45;&gt;Node57</title>
<path fill="none" stroke="midnightblue" d="M1112.95,-294.58C1057.21,-285.56 944.72,-267.38 874.31,-255.99"/>
<polygon fill="midnightblue" stroke="midnightblue" points="874.67,-252.51 864.24,-254.37 873.55,-259.42 874.67,-252.51"/>
</g>
<!-- Node58 -->
<g id="node43" class="node">
<title>Node58</title>
<g id="a_node43"><a xlink:title=" ">
<polygon fill="none" stroke="#bfbfbf" points="882.5,-235.5 882.5,-254.5 950.5,-254.5 950.5,-235.5 882.5,-235.5"/>
<text text-anchor="middle" x="916.5" y="-242.5" font-family="Helvetica,sans-Serif" font-size="10.00">filesystem</text>
</a>
</g>
</g>
<!-- Node2&#45;&gt;Node58 -->
<g id="edge48" class="edge">
<title>Node2&#45;&gt;Node58</title>
<path fill="none" stroke="midnightblue" d="M1112.56,-292.03C1072.22,-282.56 1004.8,-266.73 960.49,-256.33"/>
<polygon fill="midnightblue" stroke="midnightblue" points="961.11,-252.88 950.58,-254 959.51,-259.69 961.11,-252.88"/>
</g>
<!-- Node59 -->
<g id="node44" class="node">
<title>Node59</title>
<g id="a_node44"><a xlink:title=" ">
<polygon fill="none" stroke="#bfbfbf" points="968.5,-235.5 968.5,-254.5 1118.5,-254.5 1118.5,-235.5 968.5,-235.5"/>
<text text-anchor="middle" x="1043.5" y="-242.5" font-family="Helvetica,sans-Serif" font-size="10.00">boost/program_options.hpp</text>
</a>
</g>
</g>
<!-- Node2&#45;&gt;Node59 -->
<g id="edge49" class="edge">
<title>Node2&#45;&gt;Node59</title>
<path fill="none" stroke="midnightblue" d="M1129.95,-291.32C1113.51,-282.7 1088.07,-269.36 1069.03,-259.39"/>
<polygon fill="midnightblue" stroke="midnightblue" points="1070.49,-256.2 1060.01,-254.65 1067.24,-262.4 1070.49,-256.2"/>
</g>
<!-- Node4 -->
<g id="node4" class="node">
<title>Node4</title>
<g id="a_node4"><a xlink:href="_o_m_sim_optical_module_8hh_source.html" target="_top" xlink:title=" ">
<polygon fill="none" stroke="black" points="564,-179.5 564,-198.5 701,-198.5 701,-179.5 564,-179.5"/>
<text text-anchor="middle" x="632.5" y="-186.5" font-family="Helvetica,sans-Serif" font-size="10.00">OMSimOpticalModule.hh</text>
</a>
</g>
</g>
<!-- Node3&#45;&gt;Node4 -->
<g id="edge3" class="edge">
<title>Node3&#45;&gt;Node4</title>
<path fill="none" stroke="midnightblue" d="M482.7,-235.44C512.91,-226.28 561.01,-211.69 594.53,-201.52"/>
<polygon fill="midnightblue" stroke="midnightblue" points="595.87,-204.77 604.43,-198.52 593.84,-198.07 595.87,-204.77"/>
</g>
<!-- Node37 -->
<g id="node18" class="node">
<title>Node37</title>
<g id="a_node18"><a xlink:title=" ">
<polygon fill="none" stroke="#bfbfbf" points="719.5,-179.5 719.5,-198.5 781.5,-198.5 781.5,-179.5 719.5,-179.5"/>
<text text-anchor="middle" x="750.5" y="-186.5" font-family="Helvetica,sans-Serif" font-size="10.00">G4Orb.hh</text>
</a>
</g>
</g>
<!-- Node3&#45;&gt;Node37 -->
<g id="edge20" class="edge">
<title>Node3&#45;&gt;Node37</title>
<path fill="none" stroke="midnightblue" d="M506.39,-235.49C555.88,-227.23 632.76,-214.02 709.36,-198.96"/>
<polygon fill="midnightblue" stroke="midnightblue" points="710.06,-202.39 719.19,-197.01 708.7,-195.52 710.06,-202.39"/>
</g>
<!-- Node38 -->
<g id="node19" class="node">
<title>Node38</title>
<g id="a_node19"><a xlink:title=" ">
<polygon fill="none" stroke="#bfbfbf" points="367.5,-179.5 367.5,-198.5 545.5,-198.5 545.5,-179.5 367.5,-179.5"/>
<text text-anchor="middle" x="456.5" y="-186.5" font-family="Helvetica,sans-Serif" font-size="10.00">G4VUserDetectorConstruction.hh</text>
</a>
</g>
</g>
<!-- Node3&#45;&gt;Node38 -->
<g id="edge21" class="edge">
<title>Node3&#45;&gt;Node38</title>
<path fill="none" stroke="midnightblue" d="M454.83,-235.08C455.09,-228.01 455.47,-217.86 455.8,-208.99"/>
<polygon fill="midnightblue" stroke="midnightblue" points="459.3,-208.87 456.18,-198.75 452.31,-208.61 459.3,-208.87"/>
</g>
<!-- Node5 -->
<g id="node5" class="node">
<title>Node5</title>
<g id="a_node5"><a xlink:href="abc_detector_component_8hh.html" target="_top" xlink:title="Provides helper base class abcDetectorComponent for constructing and managing detector components in ...">
<polygon fill="none" stroke="red" points="731,-62 731,-81 878,-81 878,-62 731,-62"/>
<text text-anchor="middle" x="804.5" y="-69" font-family="Helvetica,sans-Serif" font-size="10.00">abcDetectorComponent.hh</text>
</a>
</g>
</g>
<!-- Node4&#45;&gt;Node5 -->
<g id="edge4" class="edge">
<title>Node4&#45;&gt;Node5</title>
<path fill="none" stroke="midnightblue" d="M661.92,-179.42C684.43,-172 715.58,-159.79 739.5,-143 760.69,-128.13 780.11,-105.31 792.11,-89.69"/>
<polygon fill="midnightblue" stroke="midnightblue" points="795.09,-91.55 798.26,-81.44 789.48,-87.36 795.09,-91.55"/>
</g>
<!-- Node4&#45;&gt;Node26 -->
<g id="edge5" class="edge">
<title>Node4&#45;&gt;Node26</title>
<path fill="none" stroke="midnightblue" d="M602.24,-179.44C569.54,-170.2 517.32,-155.44 481.32,-145.26"/>
<polygon fill="midnightblue" stroke="midnightblue" points="482.2,-141.87 471.62,-142.52 480.29,-148.61 482.2,-141.87"/>
</g>
<!-- Node34 -->
<g id="node17" class="node">
<title>Node34</title>
<g id="a_node17"><a xlink:href="_o_m_sim_p_m_t_construction_8hh.html" target="_top" xlink:title="Construction of the PMTs.">
<polygon fill="none" stroke="red" points="564,-123.5 564,-142.5 713,-142.5 713,-123.5 564,-123.5"/>
<text text-anchor="middle" x="638.5" y="-130.5" font-family="Helvetica,sans-Serif" font-size="10.00">OMSimPMTConstruction.hh</text>
</a>
</g>
</g>
<!-- Node4&#45;&gt;Node34 -->
<g id="edge16" class="edge">
<title>Node4&#45;&gt;Node34</title>
<path fill="none" stroke="midnightblue" d="M633.49,-179.08C634.29,-171.93 635.43,-161.64 636.42,-152.69"/>
<polygon fill="midnightblue" stroke="midnightblue" points="639.9,-153.08 637.53,-142.75 632.94,-152.3 639.9,-153.08"/>
</g>
<!-- Node27 -->
<g id="node7" class="node">
<title>Node27</title>
<g id="a_node7"><a xlink:href="_o_m_sim_p_m_t_response_8hh.html" target="_top" xlink:title="Simulation of PMT response.">
<polygon fill="none" stroke="black" points="578,-62 578,-81 713,-81 713,-62 578,-62"/>
<text text-anchor="middle" x="645.5" y="-69" font-family="Helvetica,sans-Serif" font-size="10.00">OMSimPMTResponse.hh</text>
</a>
</g>
</g>
<!-- Node26&#45;&gt;Node27 -->
<g id="edge6" class="edge">
<title>Node26&#45;&gt;Node27</title>
<path fill="none" stroke="midnightblue" d="M470.73,-123.48C506.4,-113.07 566.86,-95.44 606.48,-83.88"/>
<polygon fill="midnightblue" stroke="midnightblue" points="607.71,-87.17 616.33,-81.01 605.75,-80.45 607.71,-87.17"/>
</g>
<!-- Node32 -->
<g id="node13" class="node">
<title>Node32</title>
<g id="a_node13"><a xlink:title=" ">
<polygon fill="none" stroke="#bfbfbf" points="163,-62 163,-81 266,-81 266,-62 163,-62"/>
<text text-anchor="middle" x="214.5" y="-69" font-family="Helvetica,sans-Serif" font-size="10.00">G4ThreeVector.hh</text>
</a>
</g>
</g>
<!-- Node26&#45;&gt;Node32 -->
<g id="edge12" class="edge">
<title>Node26&#45;&gt;Node32</title>
<path fill="none" stroke="midnightblue" d="M408.98,-123.48C368.94,-112.98 300.86,-95.14 256.8,-83.59"/>
<polygon fill="midnightblue" stroke="midnightblue" points="257.52,-80.16 246.96,-81.01 255.75,-86.93 257.52,-80.16"/>
</g>
<!-- Node33 -->
<g id="node14" class="node">
<title>Node33</title>
<g id="a_node14"><a xlink:title=" ">
<polygon fill="none" stroke="#bfbfbf" points="505,-62 505,-81 560,-81 560,-62 505,-62"/>
<text text-anchor="middle" x="532.5" y="-69" font-family="Helvetica,sans-Serif" font-size="10.00">fstream</text>
</a>
</g>
</g>
<!-- Node26&#45;&gt;Node33 -->
<g id="edge13" class="edge">
<title>Node26&#45;&gt;Node33</title>
<path fill="none" stroke="midnightblue" d="M454.54,-123.48C469.27,-113.84 493.47,-98.02 511.01,-86.55"/>
<polygon fill="midnightblue" stroke="midnightblue" points="513.03,-89.41 519.49,-81.01 509.2,-83.55 513.03,-89.41"/>
</g>
<!-- Node18 -->
<g id="node15" class="node">
<title>Node18</title>
<g id="a_node15"><a xlink:title=" ">
<polygon fill="none" stroke="#bfbfbf" points="396.5,-62 396.5,-81 486.5,-81 486.5,-62 396.5,-62"/>
<text text-anchor="middle" x="441.5" y="-69" font-family="Helvetica,sans-Serif" font-size="10.00">G4AutoLock.hh</text>
</a>
</g>
</g>
<!-- Node26&#45;&gt;Node18 -->
<g id="edge14" class="edge">
<title>Node26&#45;&gt;Node18</title>
<path fill="none" stroke="midnightblue" d="M441.5,-123.48C441.5,-115.08 441.5,-101.98 441.5,-91.16"/>
<polygon fill="midnightblue" stroke="midnightblue" points="445,-91.01 441.5,-81.01 438,-91.01 445,-91.01"/>
</g>
<!-- Node19 -->
<g id="node16" class="node">
<title>Node19</title>
<g id="a_node16"><a xlink:title=" ">
<polygon fill="none" stroke="#bfbfbf" points="284.5,-62 284.5,-81 378.5,-81 378.5,-62 284.5,-62"/>
<text text-anchor="middle" x="331.5" y="-69" font-family="Helvetica,sans-Serif" font-size="10.00">G4Threading.hh</text>
</a>
</g>
</g>
<!-- Node26&#45;&gt;Node19 -->
<g id="edge15" class="edge">
<title>Node26&#45;&gt;Node19</title>
<path fill="none" stroke="midnightblue" d="M425.74,-123.48C407.52,-113.62 377.33,-97.29 356.03,-85.77"/>
<polygon fill="midnightblue" stroke="midnightblue" points="357.69,-82.69 347.23,-81.01 354.36,-88.85 357.69,-82.69"/>
</g>
<!-- Node20 -->
<g id="node8" class="node">
<title>Node20</title>
<g id="a_node8"><a xlink:title=" ">
<polygon fill="none" stroke="#bfbfbf" points="638,-0.5 638,-19.5 757,-19.5 757,-0.5 638,-0.5"/>
<text text-anchor="middle" x="697.5" y="-7.5" font-family="Helvetica,sans-Serif" font-size="10.00">G4SystemOfUnits.hh</text>
</a>
</g>
</g>
<!-- Node27&#45;&gt;Node20 -->
<g id="edge7" class="edge">
<title>Node27&#45;&gt;Node20</title>
<path fill="none" stroke="midnightblue" d="M652.95,-61.98C660.83,-52.96 673.44,-38.52 683.24,-27.31"/>
<polygon fill="midnightblue" stroke="midnightblue" points="686.12,-29.34 690.06,-19.51 680.85,-24.74 686.12,-29.34"/>
</g>
<!-- Node28 -->
<g id="node9" class="node">
<title>Node28</title>
<g id="a_node9"><a xlink:title=" ">
<polygon fill="none" stroke="#bfbfbf" points="274,-0.5 274,-19.5 347,-19.5 347,-0.5 274,-0.5"/>
<text text-anchor="middle" x="310.5" y="-7.5" font-family="Helvetica,sans-Serif" font-size="10.00">G4Types.hh</text>
</a>
</g>
</g>
<!-- Node27&#45;&gt;Node28 -->
<g id="edge8" class="edge">
<title>Node27&#45;&gt;Node28</title>
<path fill="none" stroke="midnightblue" d="M600.73,-61.96C590.17,-59.98 578.94,-57.89 568.5,-56 494.68,-42.61 408.84,-27.79 357.14,-18.94"/>
<polygon fill="midnightblue" stroke="midnightblue" points="357.72,-15.49 347.27,-17.25 356.54,-22.39 357.72,-15.49"/>
</g>
<!-- Node29 -->
<g id="node10" class="node">
<title>Node29</title>
<g id="a_node10"><a xlink:title=" ">
<polygon fill="none" stroke="#bfbfbf" points="775.5,-0.5 775.5,-19.5 813.5,-19.5 813.5,-0.5 775.5,-0.5"/>
<text text-anchor="middle" x="794.5" y="-7.5" font-family="Helvetica,sans-Serif" font-size="10.00">map</text>
</a>
</g>
</g>
<!-- Node27&#45;&gt;Node29 -->
<g id="edge9" class="edge">
<title>Node27&#45;&gt;Node29</title>
<path fill="none" stroke="midnightblue" d="M666.85,-61.98C692.76,-51.63 736.58,-34.13 765.52,-22.57"/>
<polygon fill="midnightblue" stroke="midnightblue" points="767.1,-25.71 775.09,-18.75 764.5,-19.21 767.1,-25.71"/>
</g>
<!-- Node30 -->
<g id="node11" class="node">
<title>Node30</title>
<g id="a_node11"><a xlink:title=" ">
<polygon fill="none" stroke="#bfbfbf" points="488,-0.5 488,-19.5 549,-19.5 549,-0.5 488,-0.5"/>
<text text-anchor="middle" x="518.5" y="-7.5" font-family="Helvetica,sans-Serif" font-size="10.00">TGraph.h</text>
</a>
</g>
</g>
<!-- Node27&#45;&gt;Node30 -->
<g id="edge10" class="edge">
<title>Node27&#45;&gt;Node30</title>
<path fill="none" stroke="midnightblue" d="M627.3,-61.98C605.99,-51.99 570.47,-35.35 545.84,-23.81"/>
<polygon fill="midnightblue" stroke="midnightblue" points="547.2,-20.58 536.66,-19.51 544.23,-26.92 547.2,-20.58"/>
</g>
<!-- Node31 -->
<g id="node12" class="node">
<title>Node31</title>
<g id="a_node12"><a xlink:title=" ">
<polygon fill="none" stroke="#bfbfbf" points="567,-0.5 567,-19.5 620,-19.5 620,-0.5 567,-0.5"/>
<text text-anchor="middle" x="593.5" y="-7.5" font-family="Helvetica,sans-Serif" font-size="10.00">TH2D.h</text>
</a>
</g>
</g>
<!-- Node27&#45;&gt;Node31 -->
<g id="edge11" class="edge">
<title>Node27&#45;&gt;Node31</title>
<path fill="none" stroke="midnightblue" d="M638.05,-61.98C630.17,-52.96 617.56,-38.52 607.76,-27.31"/>
<polygon fill="midnightblue" stroke="midnightblue" points="610.15,-24.74 600.94,-19.51 604.88,-29.34 610.15,-24.74"/>
</g>
<!-- Node34&#45;&gt;Node5 -->
<g id="edge17" class="edge">
<title>Node34&#45;&gt;Node5</title>
<path fill="none" stroke="midnightblue" d="M662.28,-123.48C690.88,-113.22 739.05,-95.96 771.3,-84.4"/>
<polygon fill="midnightblue" stroke="midnightblue" points="772.53,-87.68 780.76,-81.01 770.17,-81.09 772.53,-87.68"/>
</g>
<!-- Node34&#45;&gt;Node27 -->
<g id="edge19" class="edge">
<title>Node34&#45;&gt;Node27</title>
<path fill="none" stroke="midnightblue" d="M639.5,-123.48C640.49,-115.08 642.03,-101.98 643.3,-91.16"/>
<polygon fill="midnightblue" stroke="midnightblue" points="646.81,-91.35 644.5,-81.01 639.85,-90.53 646.81,-91.35"/>
</g>
<!-- Node34&#45;&gt;Node34 -->
<g id="edge18" class="edge">
<title>Node34&#45;&gt;Node34</title>
<path fill="none" stroke="midnightblue" d="M677.95,-142.53C704.76,-145.31 731,-142.13 731,-133 731,-125.01 710.91,-121.58 687.93,-122.71"/>
<polygon fill="midnightblue" stroke="midnightblue" points="687.65,-119.22 677.95,-123.47 688.19,-126.2 687.65,-119.22"/>
</g>
<!-- Node41&#45;&gt;Node26 -->
<g id="edge26" class="edge">
<title>Node41&#45;&gt;Node26</title>
<path fill="none" stroke="midnightblue" d="M943.42,-182.4C840.31,-172.46 625.63,-151.76 513.39,-140.93"/>
<polygon fill="midnightblue" stroke="midnightblue" points="513.47,-137.42 503.18,-139.95 512.8,-144.39 513.47,-137.42"/>
</g>
<!-- Node42 -->
<g id="node23" class="node">
<title>Node42</title>
<g id="a_node23"><a xlink:title=" ">
<polygon fill="none" stroke="#bfbfbf" points="787,-123.5 787,-142.5 904,-142.5 904,-123.5 787,-123.5"/>
<text text-anchor="middle" x="845.5" y="-130.5" font-family="Helvetica,sans-Serif" font-size="10.00">G4UserRunAction.hh</text>
</a>
</g>
</g>
<!-- Node41&#45;&gt;Node42 -->
<g id="edge25" class="edge">
<title>Node41&#45;&gt;Node42</title>
<path fill="none" stroke="midnightblue" d="M976.78,-179.44C950.65,-170.4 909.24,-156.06 879.92,-145.92"/>
<polygon fill="midnightblue" stroke="midnightblue" points="880.7,-142.48 870.1,-142.52 878.41,-149.1 880.7,-142.48"/>
</g>
<!-- Node7 -->
<g id="node24" class="node">
<title>Node7</title>
<g id="a_node24"><a xlink:href="_o_m_sim_logger_8hh_source.html" target="_top" xlink:title=" ">
<polygon fill="none" stroke="black" points="1147,-123.5 1147,-142.5 1246,-142.5 1246,-123.5 1147,-123.5"/>
<text text-anchor="middle" x="1196.5" y="-130.5" font-family="Helvetica,sans-Serif" font-size="10.00">OMSimLogger.hh</text>
</a>
</g>
</g>
<!-- Node41&#45;&gt;Node7 -->
<g id="edge27" class="edge">
<title>Node41&#45;&gt;Node7</title>
<path fill="none" stroke="midnightblue" d="M1032.4,-179.44C1065.77,-170.2 1119.09,-155.44 1155.85,-145.26"/>
<polygon fill="midnightblue" stroke="midnightblue" points="1157.04,-148.56 1165.75,-142.52 1155.17,-141.81 1157.04,-148.56"/>
</g>
<!-- Node43 -->
<g id="node29" class="node">
<title>Node43</title>
<g id="a_node29"><a xlink:title=" ">
<polygon fill="none" stroke="#bfbfbf" points="922.5,-123.5 922.5,-142.5 1008.5,-142.5 1008.5,-123.5 922.5,-123.5"/>
<text text-anchor="middle" x="965.5" y="-130.5" font-family="Helvetica,sans-Serif" font-size="10.00">Randomize.hh</text>
</a>
</g>
</g>
<!-- Node41&#45;&gt;Node43 -->
<g id="edge32" class="edge">
<title>Node41&#45;&gt;Node43</title>
<path fill="none" stroke="midnightblue" d="M995.56,-179.08C990.52,-171.53 983.16,-160.49 976.99,-151.23"/>
<polygon fill="midnightblue" stroke="midnightblue" points="979.79,-149.13 971.33,-142.75 973.97,-153.01 979.79,-149.13"/>
</g>
<!-- Node44 -->
<g id="node30" class="node">
<title>Node44</title>
<g id="a_node30"><a xlink:title=" ">
<polygon fill="none" stroke="#bfbfbf" points="1026.5,-123.5 1026.5,-142.5 1090.5,-142.5 1090.5,-123.5 1026.5,-123.5"/>
<text text-anchor="middle" x="1058.5" y="-130.5" font-family="Helvetica,sans-Serif" font-size="10.00">G4Run.hh</text>
</a>
</g>
</g>
<!-- Node41&#45;&gt;Node44 -->
<g id="edge33" class="edge">
<title>Node41&#45;&gt;Node44</title>
<path fill="none" stroke="midnightblue" d="M1010.66,-179.32C1019,-171.42 1031.53,-159.55 1041.68,-149.94"/>
<polygon fill="midnightblue" stroke="midnightblue" points="1044.32,-152.25 1049.18,-142.83 1039.51,-147.17 1044.32,-152.25"/>
</g>
<!-- Node8 -->
<g id="node25" class="node">
<title>Node8</title>
<g id="a_node25"><a xlink:title=" ">
<polygon fill="none" stroke="#bfbfbf" points="1207,-62 1207,-81 1300,-81 1300,-62 1207,-62"/>
<text text-anchor="middle" x="1253.5" y="-69" font-family="Helvetica,sans-Serif" font-size="10.00">spdlog/spdlog.h</text>
</a>
</g>
</g>
<!-- Node7&#45;&gt;Node8 -->
<g id="edge28" class="edge">
<title>Node7&#45;&gt;Node8</title>
<path fill="none" stroke="midnightblue" d="M1204.67,-123.48C1213.39,-114.37 1227.4,-99.74 1238.19,-88.48"/>
<polygon fill="midnightblue" stroke="midnightblue" points="1240.96,-90.65 1245.35,-81.01 1235.9,-85.81 1240.96,-90.65"/>
</g>
<!-- Node9 -->
<g id="node26" class="node">
<title>Node9</title>
<g id="a_node26"><a xlink:title=" ">
<polygon fill="none" stroke="#bfbfbf" points="1318,-56.5 1318,-86.5 1429,-86.5 1429,-56.5 1318,-56.5"/>
<text text-anchor="start" x="1326" y="-74.5" font-family="Helvetica,sans-Serif" font-size="10.00">spdlog/sinks/stdout</text>
<text text-anchor="middle" x="1373.5" y="-63.5" font-family="Helvetica,sans-Serif" font-size="10.00">_color_sinks.h</text>
</a>
</g>
</g>
<!-- Node7&#45;&gt;Node9 -->
<g id="edge29" class="edge">
<title>Node7&#45;&gt;Node9</title>
<path fill="none" stroke="midnightblue" d="M1221.86,-123.48C1247.96,-114.7 1289.35,-100.79 1322.3,-89.71"/>
<polygon fill="midnightblue" stroke="midnightblue" points="1323.42,-93.03 1331.78,-86.52 1321.19,-86.39 1323.42,-93.03"/>
</g>
<!-- Node10 -->
<g id="node27" class="node">
<title>Node10</title>
<g id="a_node27"><a xlink:title=" ">
<polygon fill="none" stroke="#bfbfbf" points="1014.5,-62 1014.5,-81 1072.5,-81 1072.5,-62 1014.5,-62"/>
<text text-anchor="middle" x="1043.5" y="-69" font-family="Helvetica,sans-Serif" font-size="10.00">memory</text>
</a>
</g>
</g>
<!-- Node7&#45;&gt;Node10 -->
<g id="edge30" class="edge">
<title>Node7&#45;&gt;Node10</title>
<path fill="none" stroke="midnightblue" d="M1174.58,-123.48C1148.45,-113.31 1104.59,-96.26 1074.87,-84.7"/>
<polygon fill="midnightblue" stroke="midnightblue" points="1075.97,-81.37 1065.38,-81.01 1073.43,-87.9 1075.97,-81.37"/>
</g>
<!-- Node11 -->
<g id="node28" class="node">
<title>Node11</title>
<g id="a_node28"><a xlink:title=" ">
<polygon fill="none" stroke="#bfbfbf" points="1090.5,-62 1090.5,-81 1188.5,-81 1188.5,-62 1090.5,-62"/>
<text text-anchor="middle" x="1139.5" y="-69" font-family="Helvetica,sans-Serif" font-size="10.00">spdlog/fmt/fmt.h</text>
</a>
</g>
</g>
<!-- Node7&#45;&gt;Node11 -->
<g id="edge31" class="edge">
<title>Node7&#45;&gt;Node11</title>
<path fill="none" stroke="midnightblue" d="M1188.33,-123.48C1179.61,-114.37 1165.6,-99.74 1154.81,-88.48"/>
<polygon fill="midnightblue" stroke="midnightblue" points="1157.1,-85.81 1147.65,-81.01 1152.04,-90.65 1157.1,-85.81"/>
</g>
<!-- Node47 -->
<g id="node33" class="node">
<title>Node47</title>
<g id="a_node33"><a xlink:title=" ">
<polygon fill="none" stroke="#bfbfbf" points="1595,-179.5 1595,-198.5 1734,-198.5 1734,-179.5 1595,-179.5"/>
<text text-anchor="middle" x="1664.5" y="-186.5" font-family="Helvetica,sans-Serif" font-size="10.00">G4UserTrackingAction.hh</text>
</a>
</g>
</g>
<!-- Node46&#45;&gt;Node47 -->
<g id="edge36" class="edge">
<title>Node46&#45;&gt;Node47</title>
<path fill="none" stroke="midnightblue" d="M1665.33,-235.08C1665.2,-228.01 1665.02,-217.86 1664.85,-208.99"/>
<polygon fill="midnightblue" stroke="midnightblue" points="1668.35,-208.68 1664.66,-198.75 1661.35,-208.81 1668.35,-208.68"/>
</g>
<!-- Node49 -->
<g id="node35" class="node">
<title>Node49</title>
<g id="a_node35"><a xlink:title=" ">
<polygon fill="none" stroke="#bfbfbf" points="1752,-179.5 1752,-198.5 1893,-198.5 1893,-179.5 1752,-179.5"/>
<text text-anchor="middle" x="1822.5" y="-186.5" font-family="Helvetica,sans-Serif" font-size="10.00">G4UserSteppingAction.hh</text>
</a>
</g>
</g>
<!-- Node48&#45;&gt;Node49 -->
<g id="edge38" class="edge">
<title>Node48&#45;&gt;Node49</title>
<path fill="none" stroke="midnightblue" d="M1822.5,-235.08C1822.5,-228.01 1822.5,-217.86 1822.5,-208.99"/>
<polygon fill="midnightblue" stroke="midnightblue" points="1826,-208.75 1822.5,-198.75 1819,-208.75 1826,-208.75"/>
</g>
<!-- Node51 -->
<g id="node37" class="node">
<title>Node51</title>
<g id="a_node37"><a xlink:href="_o_m_sim_command_args_table_8hh.html" target="_top" xlink:title="Definition of the OMSimCommandArgsTable singleton class, which controls user args.">
<polygon fill="none" stroke="red" points="1114.5,-179.5 1114.5,-198.5 1278.5,-198.5 1278.5,-179.5 1114.5,-179.5"/>
<text text-anchor="middle" x="1196.5" y="-186.5" font-family="Helvetica,sans-Serif" font-size="10.00">OMSimCommandArgsTable.hh</text>
</a>
</g>
</g>
<!-- Node50&#45;&gt;Node51 -->
<g id="edge40" class="edge">
<title>Node50&#45;&gt;Node51</title>
<path fill="none" stroke="midnightblue" d="M1229.06,-235.08C1223.55,-227.46 1215.47,-216.26 1208.74,-206.94"/>
<polygon fill="midnightblue" stroke="midnightblue" points="1211.51,-204.81 1202.82,-198.75 1205.84,-208.91 1211.51,-204.81"/>
</g>
<!-- Node54 -->
<g id="node39" class="node">
<title>Node54</title>
<g id="a_node39"><a xlink:title=" ">
<polygon fill="none" stroke="#bfbfbf" points="1296.5,-179.5 1296.5,-198.5 1394.5,-198.5 1394.5,-179.5 1296.5,-179.5"/>
<text text-anchor="middle" x="1345.5" y="-186.5" font-family="Helvetica,sans-Serif" font-size="10.00">G4UImanager.hh</text>
</a>
</g>
</g>
<!-- Node50&#45;&gt;Node54 -->
<g id="edge44" class="edge">
<title>Node50&#45;&gt;Node54</title>
<path fill="none" stroke="midnightblue" d="M1253.17,-235.32C1270.89,-226.62 1298.4,-213.12 1318.79,-203.11"/>
<polygon fill="midnightblue" stroke="midnightblue" points="1320.44,-206.2 1327.87,-198.65 1317.35,-199.92 1320.44,-206.2"/>
</g>
<!-- Node51&#45;&gt;Node33 -->
<g id="edge42" class="edge">
<title>Node51&#45;&gt;Node33</title>
<path fill="none" stroke="midnightblue" d="M1185.13,-179.28C1163.74,-163.06 1118.01,-129.32 1099.5,-123 875.65,-46.57 799.06,-139.84 568.5,-87 565.67,-86.35 562.77,-85.51 559.9,-84.56"/>
<polygon fill="midnightblue" stroke="midnightblue" points="561.05,-81.25 550.45,-81.02 558.59,-87.8 561.05,-81.25"/>
</g>
<!-- Node51&#45;&gt;Node7 -->
<g id="edge41" class="edge">
<title>Node51&#45;&gt;Node7</title>
<path fill="none" stroke="midnightblue" d="M1196.5,-179.08C1196.5,-172.01 1196.5,-161.86 1196.5,-152.99"/>
<polygon fill="midnightblue" stroke="midnightblue" points="1200,-152.75 1196.5,-142.75 1193,-152.75 1200,-152.75"/>
</g>
<!-- Node52 -->
<g id="node38" class="node">
<title>Node52</title>
<g id="a_node38"><a xlink:title=" ">
<polygon fill="none" stroke="#bfbfbf" points="1264.5,-123.5 1264.5,-142.5 1348.5,-142.5 1348.5,-123.5 1264.5,-123.5"/>
<text text-anchor="middle" x="1306.5" y="-130.5" font-family="Helvetica,sans-Serif" font-size="10.00">boost/any.hpp</text>
</a>
</g>
</g>
<!-- Node51&#45;&gt;Node52 -->
<g id="edge43" class="edge">
<title>Node51&#45;&gt;Node52</title>
<path fill="none" stroke="midnightblue" d="M1214.17,-179.32C1231.89,-170.62 1259.4,-157.12 1279.79,-147.11"/>
<polygon fill="midnightblue" stroke="midnightblue" points="1281.44,-150.2 1288.87,-142.65 1278.35,-143.92 1281.44,-150.2"/>
</g>
<!-- Node60&#45;&gt;Node26 -->
<g id="edge54" class="edge">
<title>Node60&#45;&gt;Node26</title>
<path fill="none" stroke="midnightblue" d="M270.67,-179.44C305.56,-170.16 361.39,-155.31 399.67,-145.13"/>
<polygon fill="midnightblue" stroke="midnightblue" points="400.72,-148.47 409.48,-142.52 398.92,-141.7 400.72,-148.47"/>
</g>
<!-- Node60&#45;&gt;Node28 -->
<g id="edge51" class="edge">
<title>Node60&#45;&gt;Node28</title>
<path fill="none" stroke="midnightblue" d="M225.26,-179.37C193.88,-157.86 120.03,-100.41 153.5,-56 166.86,-38.27 222.62,-25.39 263.91,-18.07"/>
<polygon fill="midnightblue" stroke="midnightblue" points="264.53,-21.51 273.79,-16.37 263.34,-14.61 264.53,-21.51"/>
</g>
<!-- Node60&#45;&gt;Node32 -->
<g id="edge53" class="edge">
<title>Node60&#45;&gt;Node32</title>
<path fill="none" stroke="midnightblue" d="M236.7,-179.32C232.82,-160.67 223.63,-116.44 218.37,-91.13"/>
<polygon fill="midnightblue" stroke="midnightblue" points="221.79,-90.36 216.32,-81.28 214.93,-91.78 221.79,-90.36"/>
</g>
<!-- Node60&#45;&gt;Node33 -->
<g id="edge56" class="edge">
<title>Node60&#45;&gt;Node33</title>
<path fill="none" stroke="midnightblue" d="M255.31,-179.26C285.47,-163.65 347.75,-131.8 370.5,-123 424.42,-102.15 440.75,-105.57 495.5,-87 497.62,-86.28 499.8,-85.51 501.99,-84.71"/>
<polygon fill="midnightblue" stroke="midnightblue" points="503.37,-87.93 511.49,-81.12 500.9,-81.38 503.37,-87.93"/>
</g>
<!-- Node61 -->
<g id="node46" class="node">
<title>Node61</title>
<g id="a_node46"><a xlink:title=" ">
<polygon fill="none" stroke="#bfbfbf" points="242.5,-123.5 242.5,-142.5 316.5,-142.5 316.5,-123.5 242.5,-123.5"/>
<text text-anchor="middle" x="279.5" y="-130.5" font-family="Helvetica,sans-Serif" font-size="10.00">G4String.hh</text>
</a>
</g>
</g>
<!-- Node60&#45;&gt;Node61 -->
<g id="edge52" class="edge">
<title>Node60&#45;&gt;Node61</title>
<path fill="none" stroke="midnightblue" d="M245.27,-179.08C251.06,-171.46 259.56,-160.26 266.64,-150.94"/>
<polygon fill="midnightblue" stroke="midnightblue" points="269.6,-152.83 272.86,-142.75 264.02,-148.6 269.6,-152.83"/>
</g>
<!-- Node62 -->
<g id="node47" class="node">
<title>Node62</title>
<g id="a_node47"><a xlink:title=" ">
<polygon fill="none" stroke="#bfbfbf" points="0,-123.5 0,-142.5 47,-142.5 47,-123.5 0,-123.5"/>
<text text-anchor="middle" x="23.5" y="-130.5" font-family="Helvetica,sans-Serif" font-size="10.00">vector</text>
</a>
</g>
</g>
<!-- Node60&#45;&gt;Node62 -->
<g id="edge55" class="edge">
<title>Node60&#45;&gt;Node62</title>
<path fill="none" stroke="midnightblue" d="M202.3,-179.47C167.34,-171.15 112.67,-157.93 56.92,-143.32"/>
<polygon fill="midnightblue" stroke="midnightblue" points="57.8,-139.93 47.24,-140.77 56.02,-146.7 57.8,-139.93"/>
</g>
<!-- Node63 -->
<g id="node48" class="node">
<title>Node63</title>
<g id="a_node48"><a xlink:title=" ">
<polygon fill="none" stroke="#bfbfbf" points="65,-123.5 65,-142.5 106,-142.5 106,-123.5 65,-123.5"/>
<text text-anchor="middle" x="85.5" y="-130.5" font-family="Helvetica,sans-Serif" font-size="10.00">tuple</text>
</a>
</g>
</g>
<!-- Node60&#45;&gt;Node63 -->
<g id="edge57" class="edge">
<title>Node60&#45;&gt;Node63</title>
<path fill="none" stroke="midnightblue" d="M214.26,-179.44C187.57,-170.03 144.64,-154.87 115.77,-144.68"/>
<polygon fill="midnightblue" stroke="midnightblue" points="116.79,-141.33 106.2,-141.3 114.46,-147.93 116.79,-141.33"/>
</g>
<!-- Node65&#45;&gt;Node3 -->
<g id="edge62" class="edge">
<title>Node65&#45;&gt;Node3</title>
<path fill="none" stroke="midnightblue" d="M474.54,-291.08C471.29,-283.77 466.58,-273.18 462.55,-264.1"/>
<polygon fill="midnightblue" stroke="midnightblue" points="465.65,-262.47 458.39,-254.75 459.25,-265.31 465.65,-262.47"/>
</g>
</g>
</svg>
