<?xml version="1.0" encoding="UTF-8" standalone="no"?>
<!DOCTYPE svg PUBLIC "-//W3C//DTD SVG 1.1//EN"
 "http://www.w3.org/Graphics/SVG/1.1/DTD/svg11.dtd">
<!-- Generated by graphviz version 2.43.0 (0)
 -->
<!-- Title: OMSimMDOM.cc Pages: 1 -->
<svg width="1492pt" height="375pt"
 viewBox="0.00 0.00 1492.00 375.00" xmlns="http://www.w3.org/2000/svg" xmlns:xlink="http://www.w3.org/1999/xlink">
<g id="graph0" class="graph" transform="scale(1 1) rotate(0) translate(4 371)">
<title>OMSimMDOM.cc</title>
<polygon fill="white" stroke="transparent" points="-4,4 -4,-371 1488,-371 1488,4 -4,4"/>
<!-- Node1 -->
<g id="node1" class="node">
<title>Node1</title>
<g id="a_node1"><a xlink:title=" ">
<polygon fill="#bfbfbf" stroke="black" points="986.5,-347.5 986.5,-366.5 1084.5,-366.5 1084.5,-347.5 986.5,-347.5"/>
<text text-anchor="middle" x="1035.5" y="-354.5" font-family="Helvetica,sans-Serif" font-size="10.00">OMSimMDOM.cc</text>
</a>
</g>
</g>
<!-- Node2 -->
<g id="node2" class="node">
<title>Node2</title>
<g id="a_node2"><a xlink:href="_o_m_sim_m_d_o_m_8hh.html" target="_top" xlink:title="Construction of mDOM.">
<polygon fill="white" stroke="black" points="452.5,-291.5 452.5,-310.5 552.5,-310.5 552.5,-291.5 452.5,-291.5"/>
<text text-anchor="middle" x="502.5" y="-298.5" font-family="Helvetica,sans-Serif" font-size="10.00">OMSimMDOM.hh</text>
</a>
</g>
</g>
<!-- Node1&#45;&gt;Node2 -->
<g id="edge1" class="edge">
<title>Node1&#45;&gt;Node2</title>
<path fill="none" stroke="midnightblue" d="M986.31,-351.02C888.42,-341.1 669.48,-318.92 562.99,-308.13"/>
<polygon fill="midnightblue" stroke="midnightblue" points="563.04,-304.62 552.73,-307.09 562.33,-311.58 563.04,-304.62"/>
</g>
<!-- Node26 -->
<g id="node26" class="node">
<title>Node26</title>
<g id="a_node26"><a xlink:href="_o_m_sim_m_d_o_m_harness_8hh.html" target="_top" xlink:title="Construction of mDOM harness.">
<polygon fill="white" stroke="black" points="713.5,-291.5 713.5,-310.5 853.5,-310.5 853.5,-291.5 713.5,-291.5"/>
<text text-anchor="middle" x="783.5" y="-298.5" font-family="Helvetica,sans-Serif" font-size="10.00">OMSimMDOMHarness.hh</text>
</a>
</g>
</g>
<!-- Node1&#45;&gt;Node26 -->
<g id="edge32" class="edge">
<title>Node1&#45;&gt;Node26</title>
<path fill="none" stroke="midnightblue" d="M995.57,-347.44C951.61,-338.02 880.87,-322.87 833.32,-312.68"/>
<polygon fill="midnightblue" stroke="midnightblue" points="833.75,-309.19 823.24,-310.52 832.29,-316.03 833.75,-309.19"/>
</g>
<!-- Node29 -->
<g id="node29" class="node">
<title>Node29</title>
<g id="a_node29"><a xlink:href="_o_m_sim_command_args_table_8hh.html" target="_top" xlink:title="Definition of the OMSimCommandArgsTable singleton class, which controls user args.">
<polygon fill="white" stroke="black" points="953.5,-291.5 953.5,-310.5 1117.5,-310.5 1117.5,-291.5 953.5,-291.5"/>
<text text-anchor="middle" x="1035.5" y="-298.5" font-family="Helvetica,sans-Serif" font-size="10.00">OMSimCommandArgsTable.hh</text>
</a>
</g>
</g>
<!-- Node1&#45;&gt;Node29 -->
<g id="edge36" class="edge">
<title>Node1&#45;&gt;Node29</title>
<path fill="none" stroke="midnightblue" d="M1035.5,-347.08C1035.5,-340.01 1035.5,-329.86 1035.5,-320.99"/>
<polygon fill="midnightblue" stroke="midnightblue" points="1039,-320.75 1035.5,-310.75 1032,-320.75 1039,-320.75"/>
</g>
<!-- Node30 -->
<g id="node30" class="node">
<title>Node30</title>
<g id="a_node30"><a xlink:href="_o_m_sim_logger_8hh.html" target="_top" xlink:title=" ">
<polygon fill="white" stroke="black" points="908,-235.5 908,-254.5 1007,-254.5 1007,-235.5 908,-235.5"/>
<text text-anchor="middle" x="957.5" y="-242.5" font-family="Helvetica,sans-Serif" font-size="10.00">OMSimLogger.hh</text>
</a>
</g>
</g>
<!-- Node1&#45;&gt;Node30 -->
<g id="edge43" class="edge">
<title>Node1&#45;&gt;Node30</title>
<path fill="none" stroke="midnightblue" d="M997.53,-347.41C978.09,-340.88 956.12,-329.72 944.5,-311 935.61,-296.68 941.14,-277.47 947.51,-263.66"/>
<polygon fill="midnightblue" stroke="midnightblue" points="950.66,-265.19 952.1,-254.69 944.43,-262 950.66,-265.19"/>
</g>
<!-- Node35 -->
<g id="node35" class="node">
<title>Node35</title>
<g id="a_node35"><a xlink:title=" ">
<polygon fill="white" stroke="#bfbfbf" points="1135.5,-291.5 1135.5,-310.5 1221.5,-310.5 1221.5,-291.5 1135.5,-291.5"/>
<text text-anchor="middle" x="1178.5" y="-298.5" font-family="Helvetica,sans-Serif" font-size="10.00">G4Ellipsoid.hh</text>
</a>
</g>
</g>
<!-- Node1&#45;&gt;Node35 -->
<g id="edge44" class="edge">
<title>Node1&#45;&gt;Node35</title>
<path fill="none" stroke="midnightblue" d="M1058.16,-347.44C1081.9,-338.48 1119.41,-324.31 1146.24,-314.18"/>
<polygon fill="midnightblue" stroke="midnightblue" points="1147.83,-317.32 1155.95,-310.52 1145.36,-310.77 1147.83,-317.32"/>
</g>
<!-- Node36 -->
<g id="node36" class="node">
<title>Node36</title>
<g id="a_node36"><a xlink:title=" ">
<polygon fill="white" stroke="#bfbfbf" points="1240,-291.5 1240,-310.5 1377,-310.5 1377,-291.5 1240,-291.5"/>
<text text-anchor="middle" x="1308.5" y="-298.5" font-family="Helvetica,sans-Serif" font-size="10.00">G4LogicalSkinSurface.hh</text>
</a>
</g>
</g>
<!-- Node1&#45;&gt;Node36 -->
<g id="edge45" class="edge">
<title>Node1&#45;&gt;Node36</title>
<path fill="none" stroke="midnightblue" d="M1078.76,-347.44C1126.68,-337.96 1203.98,-322.67 1255.5,-312.48"/>
<polygon fill="midnightblue" stroke="midnightblue" points="1256.31,-315.89 1265.44,-310.52 1254.96,-309.02 1256.31,-315.89"/>
</g>
<!-- Node37 -->
<g id="node37" class="node">
<title>Node37</title>
<g id="a_node37"><a xlink:title=" ">
<polygon fill="white" stroke="#bfbfbf" points="1395,-291.5 1395,-310.5 1484,-310.5 1484,-291.5 1395,-291.5"/>
<text text-anchor="middle" x="1439.5" y="-298.5" font-family="Helvetica,sans-Serif" font-size="10.00">G4Polycone.hh</text>
</a>
</g>
</g>
<!-- Node1&#45;&gt;Node37 -->
<g id="edge46" class="edge">
<title>Node1&#45;&gt;Node37</title>
<path fill="none" stroke="midnightblue" d="M1084.71,-350.33C1150.69,-342.59 1271.74,-327.89 1384.78,-311.21"/>
<polygon fill="midnightblue" stroke="midnightblue" points="1385.61,-314.62 1394.99,-309.69 1384.58,-307.7 1385.61,-314.62"/>
</g>
<!-- Node3 -->
<g id="node3" class="node">
<title>Node3</title>
<g id="a_node3"><a xlink:href="_o_m_sim_m_d_o_m_flasher_8hh.html" target="_top" xlink:title="Defines the mDOMFlasher class for simulating the 10 flashers in an mDOM optical module.">
<polygon fill="white" stroke="black" points="226,-179.5 226,-198.5 361,-198.5 361,-179.5 226,-179.5"/>
<text text-anchor="middle" x="293.5" y="-186.5" font-family="Helvetica,sans-Serif" font-size="10.00">OMSimMDOMFlasher.hh</text>
</a>
</g>
</g>
<!-- Node2&#45;&gt;Node3 -->
<g id="edge2" class="edge">
<title>Node2&#45;&gt;Node3</title>
<path fill="none" stroke="midnightblue" d="M486.1,-291.37C449.78,-272.25 362.34,-226.23 318.89,-203.36"/>
<polygon fill="midnightblue" stroke="midnightblue" points="320.3,-200.15 309.82,-198.59 317.04,-206.35 320.3,-200.15"/>
</g>
<!-- Node15 -->
<g id="node15" class="node">
<title>Node15</title>
<g id="a_node15"><a xlink:href="_o_m_sim_p_m_t_construction_8hh.html" target="_top" xlink:title="Construction of the PMTs.">
<polygon fill="white" stroke="black" points="379,-179.5 379,-198.5 528,-198.5 528,-179.5 379,-179.5"/>
<text text-anchor="middle" x="453.5" y="-186.5" font-family="Helvetica,sans-Serif" font-size="10.00">OMSimPMTConstruction.hh</text>
</a>
</g>
</g>
<!-- Node2&#45;&gt;Node15 -->
<g id="edge14" class="edge">
<title>Node2&#45;&gt;Node15</title>
<path fill="none" stroke="midnightblue" d="M495.43,-291.18C488.73,-282.44 478.77,-268.45 472.5,-255 465.51,-240.01 460.47,-221.88 457.34,-208.58"/>
<polygon fill="midnightblue" stroke="midnightblue" points="460.74,-207.72 455.17,-198.71 453.9,-209.23 460.74,-207.72"/>
</g>
<!-- Node22 -->
<g id="node22" class="node">
<title>Node22</title>
<g id="a_node22"><a xlink:href="_o_m_sim_optical_module_8hh.html" target="_top" xlink:title=" ">
<polygon fill="white" stroke="black" points="482,-235.5 482,-254.5 619,-254.5 619,-235.5 482,-235.5"/>
<text text-anchor="middle" x="550.5" y="-242.5" font-family="Helvetica,sans-Serif" font-size="10.00">OMSimOpticalModule.hh</text>
</a>
</g>
</g>
<!-- Node2&#45;&gt;Node22 -->
<g id="edge25" class="edge">
<title>Node2&#45;&gt;Node22</title>
<path fill="none" stroke="midnightblue" d="M510.43,-291.08C517.35,-283.3 527.57,-271.8 535.95,-262.37"/>
<polygon fill="midnightblue" stroke="midnightblue" points="538.69,-264.55 542.72,-254.75 533.46,-259.9 538.69,-264.55"/>
</g>
<!-- Node4 -->
<g id="node4" class="node">
<title>Node4</title>
<g id="a_node4"><a xlink:href="abc_detector_component_8hh.html" target="_top" xlink:title="Provides helper base class abcDetectorComponent for constructing and managing detector components in ...">
<polygon fill="white" stroke="black" points="446,-123.5 446,-142.5 593,-142.5 593,-123.5 446,-123.5"/>
<text text-anchor="middle" x="519.5" y="-130.5" font-family="Helvetica,sans-Serif" font-size="10.00">abcDetectorComponent.hh</text>
</a>
</g>
</g>
<!-- Node3&#45;&gt;Node4 -->
<g id="edge3" class="edge">
<title>Node3&#45;&gt;Node4</title>
<path fill="none" stroke="midnightblue" d="M329.31,-179.44C368.49,-170.08 431.38,-155.06 474.02,-144.87"/>
<polygon fill="midnightblue" stroke="midnightblue" points="474.94,-148.24 483.86,-142.52 473.32,-141.44 474.94,-148.24"/>
</g>
<!-- Node13 -->
<g id="node13" class="node">
<title>Node13</title>
<g id="a_node13"><a xlink:title=" ">
<polygon fill="white" stroke="#bfbfbf" points="244.5,-123.5 244.5,-142.5 342.5,-142.5 342.5,-123.5 244.5,-123.5"/>
<text text-anchor="middle" x="293.5" y="-130.5" font-family="Helvetica,sans-Serif" font-size="10.00">G4UnionSolid.hh</text>
</a>
</g>
</g>
<!-- Node3&#45;&gt;Node13 -->
<g id="edge12" class="edge">
<title>Node3&#45;&gt;Node13</title>
<path fill="none" stroke="midnightblue" d="M293.5,-179.08C293.5,-172.01 293.5,-161.86 293.5,-152.99"/>
<polygon fill="midnightblue" stroke="midnightblue" points="297,-152.75 293.5,-142.75 290,-152.75 297,-152.75"/>
</g>
<!-- Node14 -->
<g id="node14" class="node">
<title>Node14</title>
<g id="a_node14"><a xlink:title=" ">
<polygon fill="white" stroke="#bfbfbf" points="134.5,-123.5 134.5,-142.5 226.5,-142.5 226.5,-123.5 134.5,-123.5"/>
<text text-anchor="middle" x="180.5" y="-130.5" font-family="Helvetica,sans-Serif" font-size="10.00">G4Navigator.hh</text>
</a>
</g>
</g>
<!-- Node3&#45;&gt;Node14 -->
<g id="edge13" class="edge">
<title>Node3&#45;&gt;Node14</title>
<path fill="none" stroke="midnightblue" d="M275.59,-179.44C257.25,-170.68 228.49,-156.94 207.41,-146.86"/>
<polygon fill="midnightblue" stroke="midnightblue" points="208.85,-143.67 198.32,-142.52 205.83,-149.99 208.85,-143.67"/>
</g>
<!-- Node5 -->
<g id="node5" class="node">
<title>Node5</title>
<g id="a_node5"><a xlink:href="_o_m_sim_input_data_8hh.html" target="_top" xlink:title="Definition of ParameterTable and InputDataManager.">
<polygon fill="white" stroke="black" points="72,-67.5 72,-86.5 187,-86.5 187,-67.5 72,-67.5"/>
<text text-anchor="middle" x="129.5" y="-74.5" font-family="Helvetica,sans-Serif" font-size="10.00">OMSimInputData.hh</text>
</a>
</g>
</g>
<!-- Node4&#45;&gt;Node5 -->
<g id="edge4" class="edge">
<title>Node4&#45;&gt;Node5</title>
<path fill="none" stroke="midnightblue" d="M457.7,-123.44C386.73,-113.62 270.65,-97.54 197.26,-87.38"/>
<polygon fill="midnightblue" stroke="midnightblue" points="197.58,-83.89 187.19,-85.99 196.62,-90.83 197.58,-83.89"/>
</g>
<!-- Node9 -->
<g id="node9" class="node">
<title>Node9</title>
<g id="a_node9"><a xlink:title=" ">
<polygon fill="white" stroke="#bfbfbf" points="205,-67.5 205,-86.5 312,-86.5 312,-67.5 205,-67.5"/>
<text text-anchor="middle" x="258.5" y="-74.5" font-family="Helvetica,sans-Serif" font-size="10.00">G4Transform3D.hh</text>
</a>
</g>
</g>
<!-- Node4&#45;&gt;Node9 -->
<g id="edge8" class="edge">
<title>Node4&#45;&gt;Node9</title>
<path fill="none" stroke="midnightblue" d="M478.14,-123.44C432.42,-113.98 358.74,-98.74 309.48,-88.55"/>
<polygon fill="midnightblue" stroke="midnightblue" points="310.16,-85.12 299.66,-86.52 308.75,-91.97 310.16,-85.12"/>
</g>
<!-- Node10 -->
<g id="node10" class="node">
<title>Node10</title>
<g id="a_node10"><a xlink:title=" ">
<polygon fill="white" stroke="#bfbfbf" points="330.5,-67.5 330.5,-86.5 438.5,-86.5 438.5,-67.5 330.5,-67.5"/>
<text text-anchor="middle" x="384.5" y="-74.5" font-family="Helvetica,sans-Serif" font-size="10.00">G4VisAttributes.hh</text>
</a>
</g>
</g>
<!-- Node4&#45;&gt;Node10 -->
<g id="edge9" class="edge">
<title>Node4&#45;&gt;Node10</title>
<path fill="none" stroke="midnightblue" d="M498.11,-123.44C475.79,-114.52 440.6,-100.44 415.29,-90.32"/>
<polygon fill="midnightblue" stroke="midnightblue" points="416.38,-86.98 405.79,-86.52 413.78,-93.48 416.38,-86.98"/>
</g>
<!-- Node11 -->
<g id="node11" class="node">
<title>Node11</title>
<g id="a_node11"><a xlink:title=" ">
<polygon fill="white" stroke="#bfbfbf" points="457,-67.5 457,-86.5 582,-86.5 582,-67.5 457,-67.5"/>
<text text-anchor="middle" x="519.5" y="-74.5" font-family="Helvetica,sans-Serif" font-size="10.00">G4SubtractionSolid.hh</text>
</a>
</g>
</g>
<!-- Node4&#45;&gt;Node11 -->
<g id="edge10" class="edge">
<title>Node4&#45;&gt;Node11</title>
<path fill="none" stroke="midnightblue" d="M519.5,-123.08C519.5,-116.01 519.5,-105.86 519.5,-96.99"/>
<polygon fill="midnightblue" stroke="midnightblue" points="523,-96.75 519.5,-86.75 516,-96.75 523,-96.75"/>
</g>
<!-- Node12 -->
<g id="node12" class="node">
<title>Node12</title>
<g id="a_node12"><a xlink:title=" ">
<polygon fill="white" stroke="#bfbfbf" points="600.5,-67.5 600.5,-86.5 710.5,-86.5 710.5,-67.5 600.5,-67.5"/>
<text text-anchor="middle" x="655.5" y="-74.5" font-family="Helvetica,sans-Serif" font-size="10.00">G4PVPlacement.hh</text>
</a>
</g>
</g>
<!-- Node4&#45;&gt;Node12 -->
<g id="edge11" class="edge">
<title>Node4&#45;&gt;Node12</title>
<path fill="none" stroke="midnightblue" d="M541.05,-123.44C563.53,-114.52 598.99,-100.44 624.48,-90.32"/>
<polygon fill="midnightblue" stroke="midnightblue" points="626.05,-93.46 634.05,-86.52 623.47,-86.95 626.05,-93.46"/>
</g>
<!-- Node6 -->
<g id="node6" class="node">
<title>Node6</title>
<g id="a_node6"><a xlink:title=" ">
<polygon fill="white" stroke="#bfbfbf" points="131,-6 131,-25 274,-25 274,-6 131,-6"/>
<text text-anchor="middle" x="202.5" y="-13" font-family="Helvetica,sans-Serif" font-size="10.00">G4OpBoundaryProcess.hh</text>
</a>
</g>
</g>
<!-- Node5&#45;&gt;Node6 -->
<g id="edge5" class="edge">
<title>Node5&#45;&gt;Node6</title>
<path fill="none" stroke="midnightblue" d="M139.96,-67.48C151.45,-58.11 170.13,-42.88 184.09,-31.51"/>
<polygon fill="midnightblue" stroke="midnightblue" points="186.52,-34.04 192.06,-25.01 182.1,-28.61 186.52,-34.04"/>
</g>
<!-- Node7 -->
<g id="node7" class="node">
<title>Node7</title>
<g id="a_node7"><a xlink:title=" ">
<polygon fill="white" stroke="#bfbfbf" points="485,-6 485,-25 604,-25 604,-6 485,-6"/>
<text text-anchor="middle" x="544.5" y="-13" font-family="Helvetica,sans-Serif" font-size="10.00">G4SystemOfUnits.hh</text>
</a>
</g>
</g>
<!-- Node5&#45;&gt;Node7 -->
<g id="edge6" class="edge">
<title>Node5&#45;&gt;Node7</title>
<path fill="none" stroke="midnightblue" d="M187.2,-67.73C262.49,-56.93 394.11,-38.06 474.86,-26.48"/>
<polygon fill="midnightblue" stroke="midnightblue" points="475.54,-29.92 484.94,-25.04 474.54,-22.99 475.54,-29.92"/>
</g>
<!-- Node8 -->
<g id="node8" class="node">
<title>Node8</title>
<g id="a_node8"><a xlink:title=" ">
<polygon fill="white" stroke="#bfbfbf" points="0,-0.5 0,-30.5 113,-30.5 113,-0.5 0,-0.5"/>
<text text-anchor="start" x="8" y="-18.5" font-family="Helvetica,sans-Serif" font-size="10.00">boost/property_tree</text>
<text text-anchor="middle" x="56.5" y="-7.5" font-family="Helvetica,sans-Serif" font-size="10.00">/json_parser.hpp</text>
</a>
</g>
</g>
<!-- Node5&#45;&gt;Node8 -->
<g id="edge7" class="edge">
<title>Node5&#45;&gt;Node8</title>
<path fill="none" stroke="midnightblue" d="M119.04,-67.48C109.34,-59.57 94.51,-47.48 81.73,-37.07"/>
<polygon fill="midnightblue" stroke="midnightblue" points="83.67,-34.13 73.7,-30.52 79.24,-39.55 83.67,-34.13"/>
</g>
<!-- Node15&#45;&gt;Node4 -->
<g id="edge15" class="edge">
<title>Node15&#45;&gt;Node4</title>
<path fill="none" stroke="midnightblue" d="M464.1,-179.32C473.96,-171.26 488.85,-159.08 500.72,-149.37"/>
<polygon fill="midnightblue" stroke="midnightblue" points="503.18,-151.88 508.7,-142.83 498.75,-146.46 503.18,-151.88"/>
</g>
<!-- Node15&#45;&gt;Node13 -->
<g id="edge23" class="edge">
<title>Node15&#45;&gt;Node13</title>
<path fill="none" stroke="midnightblue" d="M428.15,-179.44C401.23,-170.36 358.5,-155.94 328.41,-145.78"/>
<polygon fill="midnightblue" stroke="midnightblue" points="329.33,-142.4 318.73,-142.52 327.09,-149.03 329.33,-142.4"/>
</g>
<!-- Node15&#45;&gt;Node15 -->
<g id="edge16" class="edge">
<title>Node15&#45;&gt;Node15</title>
<path fill="none" stroke="midnightblue" d="M492.95,-198.53C519.76,-201.31 546,-198.13 546,-189 546,-181.01 525.91,-177.58 502.93,-178.71"/>
<polygon fill="midnightblue" stroke="midnightblue" points="502.65,-175.22 492.95,-179.47 503.19,-182.2 502.65,-175.22"/>
</g>
<!-- Node16 -->
<g id="node16" class="node">
<title>Node16</title>
<g id="a_node16"><a xlink:href="_o_m_sim_p_m_t_response_8hh.html" target="_top" xlink:title="Provides simulation for PMT response. This class is responsible for transforming hits on photocathode...">
<polygon fill="white" stroke="black" points="735,-123.5 735,-142.5 870,-142.5 870,-123.5 735,-123.5"/>
<text text-anchor="middle" x="802.5" y="-130.5" font-family="Helvetica,sans-Serif" font-size="10.00">OMSimPMTResponse.hh</text>
</a>
</g>
</g>
<!-- Node15&#45;&gt;Node16 -->
<g id="edge17" class="edge">
<title>Node15&#45;&gt;Node16</title>
<path fill="none" stroke="midnightblue" d="M508.8,-179.44C570.83,-169.85 671.36,-154.29 737.2,-144.1"/>
<polygon fill="midnightblue" stroke="midnightblue" points="738.11,-147.5 747.46,-142.52 737.04,-140.59 738.11,-147.5"/>
</g>
<!-- Node21 -->
<g id="node21" class="node">
<title>Node21</title>
<g id="a_node21"><a xlink:title=" ">
<polygon fill="white" stroke="#bfbfbf" points="361,-123.5 361,-142.5 428,-142.5 428,-123.5 361,-123.5"/>
<text text-anchor="middle" x="394.5" y="-130.5" font-family="Helvetica,sans-Serif" font-size="10.00">G4Tubs.hh</text>
</a>
</g>
</g>
<!-- Node15&#45;&gt;Node21 -->
<g id="edge24" class="edge">
<title>Node15&#45;&gt;Node21</title>
<path fill="none" stroke="midnightblue" d="M444.02,-179.32C435.3,-171.34 422.16,-159.31 411.6,-149.65"/>
<polygon fill="midnightblue" stroke="midnightblue" points="413.89,-147 404.15,-142.83 409.17,-152.17 413.89,-147"/>
</g>
<!-- Node16&#45;&gt;Node7 -->
<g id="edge18" class="edge">
<title>Node16&#45;&gt;Node7</title>
<path fill="none" stroke="midnightblue" d="M793.61,-123.11C779.24,-109.2 749.48,-82.33 719.5,-67 682.47,-48.07 637.3,-35.26 602.13,-27.28"/>
<polygon fill="midnightblue" stroke="midnightblue" points="602.54,-23.79 592.02,-25.06 601.04,-30.62 602.54,-23.79"/>
</g>
<!-- Node17 -->
<g id="node17" class="node">
<title>Node17</title>
<g id="a_node17"><a xlink:title=" ">
<polygon fill="white" stroke="#bfbfbf" points="767,-67.5 767,-86.5 840,-86.5 840,-67.5 767,-67.5"/>
<text text-anchor="middle" x="803.5" y="-74.5" font-family="Helvetica,sans-Serif" font-size="10.00">G4Types.hh</text>
</a>
</g>
</g>
<!-- Node16&#45;&gt;Node17 -->
<g id="edge19" class="edge">
<title>Node16&#45;&gt;Node17</title>
<path fill="none" stroke="midnightblue" d="M802.67,-123.08C802.8,-116.01 802.98,-105.86 803.15,-96.99"/>
<polygon fill="midnightblue" stroke="midnightblue" points="806.65,-96.81 803.34,-86.75 799.65,-96.68 806.65,-96.81"/>
</g>
<!-- Node18 -->
<g id="node18" class="node">
<title>Node18</title>
<g id="a_node18"><a xlink:title=" ">
<polygon fill="white" stroke="#bfbfbf" points="858.5,-67.5 858.5,-86.5 896.5,-86.5 896.5,-67.5 858.5,-67.5"/>
<text text-anchor="middle" x="877.5" y="-74.5" font-family="Helvetica,sans-Serif" font-size="10.00">map</text>
</a>
</g>
</g>
<!-- Node16&#45;&gt;Node18 -->
<g id="edge20" class="edge">
<title>Node16&#45;&gt;Node18</title>
<path fill="none" stroke="midnightblue" d="M814.55,-123.32C825.96,-115.11 843.33,-102.6 856.93,-92.81"/>
<polygon fill="midnightblue" stroke="midnightblue" points="859.16,-95.52 865.23,-86.83 855.07,-89.84 859.16,-95.52"/>
</g>
<!-- Node19 -->
<g id="node19" class="node">
<title>Node19</title>
<g id="a_node19"><a xlink:title=" ">
<polygon fill="white" stroke="#bfbfbf" points="915,-67.5 915,-86.5 976,-86.5 976,-67.5 915,-67.5"/>
<text text-anchor="middle" x="945.5" y="-74.5" font-family="Helvetica,sans-Serif" font-size="10.00">TGraph.h</text>
</a>
</g>
</g>
<!-- Node16&#45;&gt;Node19 -->
<g id="edge21" class="edge">
<title>Node16&#45;&gt;Node19</title>
<path fill="none" stroke="midnightblue" d="M825.16,-123.44C848.9,-114.48 886.41,-100.31 913.24,-90.18"/>
<polygon fill="midnightblue" stroke="midnightblue" points="914.83,-93.32 922.95,-86.52 912.36,-86.77 914.83,-93.32"/>
</g>
<!-- Node20 -->
<g id="node20" class="node">
<title>Node20</title>
<g id="a_node20"><a xlink:title=" ">
<polygon fill="white" stroke="#bfbfbf" points="994,-67.5 994,-86.5 1047,-86.5 1047,-67.5 994,-67.5"/>
<text text-anchor="middle" x="1020.5" y="-74.5" font-family="Helvetica,sans-Serif" font-size="10.00">TH2D.h</text>
</a>
</g>
</g>
<!-- Node16&#45;&gt;Node20 -->
<g id="edge22" class="edge">
<title>Node16&#45;&gt;Node20</title>
<path fill="none" stroke="midnightblue" d="M837.61,-123.48C872.45,-115 927.65,-101.51 983.97,-87.37"/>
<polygon fill="midnightblue" stroke="midnightblue" points="984.91,-90.74 993.75,-84.91 983.2,-83.95 984.91,-90.74"/>
</g>
<!-- Node22&#45;&gt;Node4 -->
<g id="edge26" class="edge">
<title>Node22&#45;&gt;Node4</title>
<path fill="none" stroke="midnightblue" d="M553.09,-235.3C556.44,-222.56 561.1,-198.25 554.5,-179 550.78,-168.16 543.27,-157.92 536.15,-149.96"/>
<polygon fill="midnightblue" stroke="midnightblue" points="538.5,-147.35 529.06,-142.55 533.45,-152.19 538.5,-147.35"/>
</g>
<!-- Node22&#45;&gt;Node15 -->
<g id="edge31" class="edge">
<title>Node22&#45;&gt;Node15</title>
<path fill="none" stroke="midnightblue" d="M534.92,-235.32C519.5,-226.74 495.69,-213.49 477.79,-203.52"/>
<polygon fill="midnightblue" stroke="midnightblue" points="479.49,-200.46 469.05,-198.65 476.08,-206.58 479.49,-200.46"/>
</g>
<!-- Node23 -->
<g id="node23" class="node">
<title>Node23</title>
<g id="a_node23"><a xlink:href="_o_m_sim_hit_manager_8hh.html" target="_top" xlink:title="Defines structures and classes related to optical module photon hit management.">
<polygon fill="white" stroke="black" points="743,-179.5 743,-198.5 866,-198.5 866,-179.5 743,-179.5"/>
<text text-anchor="middle" x="804.5" y="-186.5" font-family="Helvetica,sans-Serif" font-size="10.00">OMSimHitManager.hh</text>
</a>
</g>
</g>
<!-- Node22&#45;&gt;Node23 -->
<g id="edge27" class="edge">
<title>Node22&#45;&gt;Node23</title>
<path fill="none" stroke="midnightblue" d="M590.75,-235.44C635.15,-226 706.65,-210.8 754.59,-200.61"/>
<polygon fill="midnightblue" stroke="midnightblue" points="755.39,-204.02 764.44,-198.52 753.93,-197.17 755.39,-204.02"/>
</g>
<!-- Node23&#45;&gt;Node16 -->
<g id="edge28" class="edge">
<title>Node23&#45;&gt;Node16</title>
<path fill="none" stroke="midnightblue" d="M804.17,-179.08C803.91,-172.01 803.53,-161.86 803.2,-152.99"/>
<polygon fill="midnightblue" stroke="midnightblue" points="806.69,-152.61 802.82,-142.75 799.7,-152.87 806.69,-152.61"/>
</g>
<!-- Node24 -->
<g id="node24" class="node">
<title>Node24</title>
<g id="a_node24"><a xlink:title=" ">
<polygon fill="white" stroke="#bfbfbf" points="888,-123.5 888,-142.5 991,-142.5 991,-123.5 888,-123.5"/>
<text text-anchor="middle" x="939.5" y="-130.5" font-family="Helvetica,sans-Serif" font-size="10.00">G4ThreeVector.hh</text>
</a>
</g>
</g>
<!-- Node23&#45;&gt;Node24 -->
<g id="edge29" class="edge">
<title>Node23&#45;&gt;Node24</title>
<path fill="none" stroke="midnightblue" d="M825.89,-179.44C848.21,-170.52 883.4,-156.44 908.71,-146.32"/>
<polygon fill="midnightblue" stroke="midnightblue" points="910.22,-149.48 918.21,-142.52 907.62,-142.98 910.22,-149.48"/>
</g>
<!-- Node25 -->
<g id="node25" class="node">
<title>Node25</title>
<g id="a_node25"><a xlink:title=" ">
<polygon fill="white" stroke="#bfbfbf" points="1009,-123.5 1009,-142.5 1064,-142.5 1064,-123.5 1009,-123.5"/>
<text text-anchor="middle" x="1036.5" y="-130.5" font-family="Helvetica,sans-Serif" font-size="10.00">fstream</text>
</a>
</g>
</g>
<!-- Node23&#45;&gt;Node25 -->
<g id="edge30" class="edge">
<title>Node23&#45;&gt;Node25</title>
<path fill="none" stroke="midnightblue" d="M842.86,-179.42C880.32,-170.99 939.22,-157.61 999.01,-143.33"/>
<polygon fill="midnightblue" stroke="midnightblue" points="1000.09,-146.67 1009,-140.93 998.46,-139.86 1000.09,-146.67"/>
</g>
<!-- Node26&#45;&gt;Node4 -->
<g id="edge33" class="edge">
<title>Node26&#45;&gt;Node4</title>
<path fill="none" stroke="midnightblue" d="M753.46,-291.39C729.08,-283.73 694.32,-271.23 666.5,-255 638.98,-238.95 569.55,-178.46 536.93,-149.56"/>
<polygon fill="midnightblue" stroke="midnightblue" points="538.93,-146.65 529.13,-142.62 534.28,-151.88 538.93,-146.65"/>
</g>
<!-- Node27 -->
<g id="node27" class="node">
<title>Node27</title>
<g id="a_node27"><a xlink:title=" ">
<polygon fill="white" stroke="#bfbfbf" points="676,-235.5 676,-254.5 803,-254.5 803,-235.5 676,-235.5"/>
<text text-anchor="middle" x="739.5" y="-242.5" font-family="Helvetica,sans-Serif" font-size="10.00">G4IntersectionSolid.hh</text>
</a>
</g>
</g>
<!-- Node26&#45;&gt;Node27 -->
<g id="edge34" class="edge">
<title>Node26&#45;&gt;Node27</title>
<path fill="none" stroke="midnightblue" d="M776.23,-291.08C769.96,-283.38 760.71,-272.03 753.07,-262.65"/>
<polygon fill="midnightblue" stroke="midnightblue" points="755.66,-260.29 746.63,-254.75 750.23,-264.71 755.66,-260.29"/>
</g>
<!-- Node28 -->
<g id="node28" class="node">
<title>Node28</title>
<g id="a_node28"><a xlink:title=" ">
<polygon fill="white" stroke="#bfbfbf" points="821,-235.5 821,-254.5 890,-254.5 890,-235.5 821,-235.5"/>
<text text-anchor="middle" x="855.5" y="-242.5" font-family="Helvetica,sans-Serif" font-size="10.00">G4Cons.hh</text>
</a>
</g>
</g>
<!-- Node26&#45;&gt;Node28 -->
<g id="edge35" class="edge">
<title>Node26&#45;&gt;Node28</title>
<path fill="none" stroke="midnightblue" d="M795.07,-291.32C805.92,-283.18 822.38,-270.84 835.38,-261.09"/>
<polygon fill="midnightblue" stroke="midnightblue" points="837.82,-263.63 843.72,-254.83 833.62,-258.03 837.82,-263.63"/>
</g>
<!-- Node29&#45;&gt;Node25 -->
<g id="edge40" class="edge">
<title>Node29&#45;&gt;Node25</title>
<path fill="none" stroke="midnightblue" d="M1035.55,-291.08C1035.71,-264.95 1036.17,-188.21 1036.39,-152.58"/>
<polygon fill="midnightblue" stroke="midnightblue" points="1039.89,-152.59 1036.45,-142.57 1032.89,-152.55 1039.89,-152.59"/>
</g>
<!-- Node29&#45;&gt;Node30 -->
<g id="edge37" class="edge">
<title>Node29&#45;&gt;Node30</title>
<path fill="none" stroke="midnightblue" d="M1022.97,-291.32C1010.91,-282.98 992.47,-270.21 978.23,-260.35"/>
<polygon fill="midnightblue" stroke="midnightblue" points="980.22,-257.47 970,-254.65 976.23,-263.22 980.22,-257.47"/>
</g>
<!-- Node33 -->
<g id="node33" class="node">
<title>Node33</title>
<g id="a_node33"><a xlink:title=" ">
<polygon fill="white" stroke="#bfbfbf" points="1063.5,-235.5 1063.5,-254.5 1147.5,-254.5 1147.5,-235.5 1063.5,-235.5"/>
<text text-anchor="middle" x="1105.5" y="-242.5" font-family="Helvetica,sans-Serif" font-size="10.00">boost/any.hpp</text>
</a>
</g>
</g>
<!-- Node29&#45;&gt;Node33 -->
<g id="edge41" class="edge">
<title>Node29&#45;&gt;Node33</title>
<path fill="none" stroke="midnightblue" d="M1046.75,-291.32C1057.3,-283.18 1073.3,-270.84 1085.94,-261.09"/>
<polygon fill="midnightblue" stroke="midnightblue" points="1088.27,-263.71 1094.05,-254.83 1083.99,-258.17 1088.27,-263.71"/>
</g>
<!-- Node34 -->
<g id="node34" class="node">
<title>Node34</title>
<g id="a_node34"><a xlink:title=" ">
<polygon fill="white" stroke="#bfbfbf" points="1165.5,-235.5 1165.5,-254.5 1233.5,-254.5 1233.5,-235.5 1165.5,-235.5"/>
<text text-anchor="middle" x="1199.5" y="-242.5" font-family="Helvetica,sans-Serif" font-size="10.00">sys/time.h</text>
</a>
</g>
</g>
<!-- Node29&#45;&gt;Node34 -->
<g id="edge42" class="edge">
<title>Node29&#45;&gt;Node34</title>
<path fill="none" stroke="midnightblue" d="M1061.49,-291.44C1089.2,-282.32 1133.25,-267.81 1164.12,-257.65"/>
<polygon fill="midnightblue" stroke="midnightblue" points="1165.23,-260.97 1173.64,-254.52 1163.04,-254.32 1165.23,-260.97"/>
</g>
<!-- Node31 -->
<g id="node31" class="node">
<title>Node31</title>
<g id="a_node31"><a xlink:title=" ">
<polygon fill="white" stroke="#bfbfbf" points="953.5,-179.5 953.5,-198.5 1003.5,-198.5 1003.5,-179.5 953.5,-179.5"/>
<text text-anchor="middle" x="978.5" y="-186.5" font-family="Helvetica,sans-Serif" font-size="10.00">stdio.h</text>
</a>
</g>
</g>
<!-- Node30&#45;&gt;Node31 -->
<g id="edge38" class="edge">
<title>Node30&#45;&gt;Node31</title>
<path fill="none" stroke="midnightblue" d="M960.97,-235.08C963.81,-227.77 967.93,-217.18 971.46,-208.1"/>
<polygon fill="midnightblue" stroke="midnightblue" points="974.73,-209.34 975.1,-198.75 968.21,-206.8 974.73,-209.34"/>
</g>
<!-- Node32 -->
<g id="node32" class="node">
<title>Node32</title>
<g id="a_node32"><a xlink:title=" ">
<polygon fill="white" stroke="#bfbfbf" points="887.5,-179.5 887.5,-198.5 935.5,-198.5 935.5,-179.5 887.5,-179.5"/>
<text text-anchor="middle" x="911.5" y="-186.5" font-family="Helvetica,sans-Serif" font-size="10.00">time.h</text>
</a>
</g>
</g>
<!-- Node30&#45;&gt;Node32 -->
<g id="edge39" class="edge">
<title>Node30&#45;&gt;Node32</title>
<path fill="none" stroke="midnightblue" d="M949.9,-235.08C943.27,-227.3 933.48,-215.8 925.44,-206.37"/>
<polygon fill="midnightblue" stroke="midnightblue" points="928.1,-204.09 918.95,-198.75 922.77,-208.63 928.1,-204.09"/>
</g>
</g>
</svg>
