<?xml version="1.0" encoding="UTF-8" standalone="no"?>
<!DOCTYPE svg PUBLIC "-//W3C//DTD SVG 1.1//EN"
 "http://www.w3.org/Graphics/SVG/1.1/DTD/svg11.dtd">
<!-- Generated by graphviz version 2.43.0 (0)
 -->
<!-- Title: OMSimDataFileTypes.hh Pages: 1 -->
<svg width="817pt" height="218pt"
 viewBox="0.00 0.00 816.50 218.00" xmlns="http://www.w3.org/2000/svg" xmlns:xlink="http://www.w3.org/1999/xlink">
<g id="graph0" class="graph" transform="scale(1 1) rotate(0) translate(4 214)">
<title>OMSimDataFileTypes.hh</title>
<polygon fill="white" stroke="transparent" points="-4,4 -4,-214 812.5,-214 812.5,4 -4,4"/>
<!-- Node1 -->
<g id="node1" class="node">
<title>Node1</title>
<g id="a_node1"><a xlink:title="Collection of classes and methods to handle material creation from user data in json files.">
<polygon fill="#bfbfbf" stroke="black" points="278,-190.5 278,-209.5 413,-209.5 413,-190.5 278,-190.5"/>
<text text-anchor="middle" x="345.5" y="-197.5" font-family="Helvetica,sans-Serif" font-size="10.00">OMSimDataFileTypes.hh</text>
</a>
</g>
</g>
<!-- Node2 -->
<g id="node2" class="node">
<title>Node2</title>
<g id="a_node2"><a xlink:title=" ">
<polygon fill="white" stroke="#bfbfbf" points="0,-129 0,-148 107,-148 107,-129 0,-129"/>
<text text-anchor="middle" x="53.5" y="-136" font-family="Helvetica,sans-Serif" font-size="10.00">G4NistManager.hh</text>
</a>
</g>
</g>
<!-- Node1&#45;&gt;Node2 -->
<g id="edge1" class="edge">
<title>Node1&#45;&gt;Node2</title>
<path fill="none" stroke="midnightblue" d="M299.14,-190.44C252.62,-181.74 178.95,-167.62 115.5,-154 110.1,-152.84 104.44,-151.58 98.83,-150.3"/>
<polygon fill="midnightblue" stroke="midnightblue" points="99.39,-146.84 88.86,-148 97.82,-153.66 99.39,-146.84"/>
</g>
<!-- Node3 -->
<g id="node3" class="node">
<title>Node3</title>
<g id="a_node3"><a xlink:title=" ">
<polygon fill="white" stroke="#bfbfbf" points="125,-129 125,-148 268,-148 268,-129 125,-129"/>
<text text-anchor="middle" x="196.5" y="-136" font-family="Helvetica,sans-Serif" font-size="10.00">G4OpBoundaryProcess.hh</text>
</a>
</g>
</g>
<!-- Node1&#45;&gt;Node3 -->
<g id="edge2" class="edge">
<title>Node1&#45;&gt;Node3</title>
<path fill="none" stroke="midnightblue" d="M324.15,-190.48C298.81,-180.36 256.36,-163.4 227.43,-151.85"/>
<polygon fill="midnightblue" stroke="midnightblue" points="228.39,-148.47 217.81,-148.01 225.8,-154.97 228.39,-148.47"/>
</g>
<!-- Node4 -->
<g id="node4" class="node">
<title>Node4</title>
<g id="a_node4"><a xlink:title=" ">
<polygon fill="white" stroke="#bfbfbf" points="286,-129 286,-148 405,-148 405,-129 286,-129"/>
<text text-anchor="middle" x="345.5" y="-136" font-family="Helvetica,sans-Serif" font-size="10.00">G4SystemOfUnits.hh</text>
</a>
</g>
</g>
<!-- Node1&#45;&gt;Node4 -->
<g id="edge3" class="edge">
<title>Node1&#45;&gt;Node4</title>
<path fill="none" stroke="midnightblue" d="M345.5,-190.48C345.5,-182.08 345.5,-168.98 345.5,-158.16"/>
<polygon fill="midnightblue" stroke="midnightblue" points="349,-158.01 345.5,-148.01 342,-158.01 349,-158.01"/>
</g>
<!-- Node5 -->
<g id="node5" class="node">
<title>Node5</title>
<g id="a_node5"><a xlink:title=" ">
<polygon fill="white" stroke="#bfbfbf" points="423,-123.5 423,-153.5 536,-153.5 536,-123.5 423,-123.5"/>
<text text-anchor="start" x="431" y="-141.5" font-family="Helvetica,sans-Serif" font-size="10.00">boost/property_tree</text>
<text text-anchor="middle" x="479.5" y="-130.5" font-family="Helvetica,sans-Serif" font-size="10.00">/json_parser.hpp</text>
</a>
</g>
</g>
<!-- Node1&#45;&gt;Node5 -->
<g id="edge4" class="edge">
<title>Node1&#45;&gt;Node5</title>
<path fill="none" stroke="midnightblue" d="M364.7,-190.48C383.87,-181.96 413.92,-168.62 438.47,-157.72"/>
<polygon fill="midnightblue" stroke="midnightblue" points="440.2,-160.78 447.92,-153.52 437.36,-154.38 440.2,-160.78"/>
</g>
<!-- Node6 -->
<g id="node6" class="node">
<title>Node6</title>
<g id="a_node6"><a xlink:href="_o_m_sim_command_args_table_8hh.html" target="_top" xlink:title="Definition of the OMSimCommandArgsTable singleton class, which controls user args.">
<polygon fill="white" stroke="black" points="554.5,-129 554.5,-148 718.5,-148 718.5,-129 554.5,-129"/>
<text text-anchor="middle" x="636.5" y="-136" font-family="Helvetica,sans-Serif" font-size="10.00">OMSimCommandArgsTable.hh</text>
</a>
</g>
</g>
<!-- Node1&#45;&gt;Node6 -->
<g id="edge5" class="edge">
<title>Node1&#45;&gt;Node6</title>
<path fill="none" stroke="midnightblue" d="M387.19,-190.48C439.27,-179.83 528.37,-161.61 584.75,-150.08"/>
<polygon fill="midnightblue" stroke="midnightblue" points="585.79,-153.44 594.88,-148.01 584.39,-146.58 585.79,-153.44"/>
</g>
<!-- Node7 -->
<g id="node7" class="node">
<title>Node7</title>
<g id="a_node7"><a xlink:href="_o_m_sim_logger_8hh.html" target="_top" xlink:title=" ">
<polygon fill="white" stroke="black" points="448,-67.5 448,-86.5 547,-86.5 547,-67.5 448,-67.5"/>
<text text-anchor="middle" x="497.5" y="-74.5" font-family="Helvetica,sans-Serif" font-size="10.00">OMSimLogger.hh</text>
</a>
</g>
</g>
<!-- Node6&#45;&gt;Node7 -->
<g id="edge6" class="edge">
<title>Node6&#45;&gt;Node7</title>
<path fill="none" stroke="midnightblue" d="M616.58,-128.98C593.05,-118.9 553.69,-102.05 526.71,-90.5"/>
<polygon fill="midnightblue" stroke="midnightblue" points="527.95,-87.23 517.38,-86.51 525.19,-93.66 527.95,-87.23"/>
</g>
<!-- Node12 -->
<g id="node12" class="node">
<title>Node12</title>
<g id="a_node12"><a xlink:title=" ">
<polygon fill="white" stroke="#bfbfbf" points="565,-67.5 565,-86.5 620,-86.5 620,-67.5 565,-67.5"/>
<text text-anchor="middle" x="592.5" y="-74.5" font-family="Helvetica,sans-Serif" font-size="10.00">fstream</text>
</a>
</g>
</g>
<!-- Node6&#45;&gt;Node12 -->
<g id="edge11" class="edge">
<title>Node6&#45;&gt;Node12</title>
<path fill="none" stroke="midnightblue" d="M630.2,-128.98C623.6,-120.05 613.06,-105.81 604.81,-94.64"/>
<polygon fill="midnightblue" stroke="midnightblue" points="607.55,-92.47 598.79,-86.51 601.92,-96.63 607.55,-92.47"/>
</g>
<!-- Node13 -->
<g id="node13" class="node">
<title>Node13</title>
<g id="a_node13"><a xlink:title=" ">
<polygon fill="white" stroke="#bfbfbf" points="638.5,-67.5 638.5,-86.5 722.5,-86.5 722.5,-67.5 638.5,-67.5"/>
<text text-anchor="middle" x="680.5" y="-74.5" font-family="Helvetica,sans-Serif" font-size="10.00">boost/any.hpp</text>
</a>
</g>
</g>
<!-- Node6&#45;&gt;Node13 -->
<g id="edge12" class="edge">
<title>Node6&#45;&gt;Node13</title>
<path fill="none" stroke="midnightblue" d="M642.8,-128.98C649.4,-120.05 659.94,-105.81 668.19,-94.64"/>
<polygon fill="midnightblue" stroke="midnightblue" points="671.08,-96.63 674.21,-86.51 665.45,-92.47 671.08,-96.63"/>
</g>
<!-- Node14 -->
<g id="node14" class="node">
<title>Node14</title>
<g id="a_node14"><a xlink:title=" ">
<polygon fill="white" stroke="#bfbfbf" points="740.5,-67.5 740.5,-86.5 808.5,-86.5 808.5,-67.5 740.5,-67.5"/>
<text text-anchor="middle" x="774.5" y="-74.5" font-family="Helvetica,sans-Serif" font-size="10.00">sys/time.h</text>
</a>
</g>
</g>
<!-- Node6&#45;&gt;Node14 -->
<g id="edge13" class="edge">
<title>Node6&#45;&gt;Node14</title>
<path fill="none" stroke="midnightblue" d="M656.27,-128.98C679.64,-118.9 718.71,-102.05 745.5,-90.5"/>
<polygon fill="midnightblue" stroke="midnightblue" points="746.97,-93.68 754.76,-86.51 744.2,-87.25 746.97,-93.68"/>
</g>
<!-- Node8 -->
<g id="node8" class="node">
<title>Node8</title>
<g id="a_node8"><a xlink:title=" ">
<polygon fill="white" stroke="#bfbfbf" points="280,-6 280,-25 373,-25 373,-6 280,-6"/>
<text text-anchor="middle" x="326.5" y="-13" font-family="Helvetica,sans-Serif" font-size="10.00">spdlog/spdlog.h</text>
</a>
</g>
</g>
<!-- Node7&#45;&gt;Node8 -->
<g id="edge7" class="edge">
<title>Node7&#45;&gt;Node8</title>
<path fill="none" stroke="midnightblue" d="M473,-67.48C443.54,-57.22 393.92,-39.96 360.7,-28.4"/>
<polygon fill="midnightblue" stroke="midnightblue" points="361.55,-24.99 350.95,-25.01 359.25,-31.6 361.55,-24.99"/>
</g>
<!-- Node9 -->
<g id="node9" class="node">
<title>Node9</title>
<g id="a_node9"><a xlink:title=" ">
<polygon fill="white" stroke="#bfbfbf" points="391,-0.5 391,-30.5 502,-30.5 502,-0.5 391,-0.5"/>
<text text-anchor="start" x="399" y="-18.5" font-family="Helvetica,sans-Serif" font-size="10.00">spdlog/sinks/stdout</text>
<text text-anchor="middle" x="446.5" y="-7.5" font-family="Helvetica,sans-Serif" font-size="10.00">_color_sinks.h</text>
</a>
</g>
</g>
<!-- Node7&#45;&gt;Node9 -->
<g id="edge8" class="edge">
<title>Node7&#45;&gt;Node9</title>
<path fill="none" stroke="midnightblue" d="M490.19,-67.48C483.67,-59.87 473.84,-48.4 465.16,-38.26"/>
<polygon fill="midnightblue" stroke="midnightblue" points="467.69,-35.84 458.52,-30.52 462.37,-40.39 467.69,-35.84"/>
</g>
<!-- Node10 -->
<g id="node10" class="node">
<title>Node10</title>
<g id="a_node10"><a xlink:title=" ">
<polygon fill="white" stroke="#bfbfbf" points="520.5,-6 520.5,-25 578.5,-25 578.5,-6 520.5,-6"/>
<text text-anchor="middle" x="549.5" y="-13" font-family="Helvetica,sans-Serif" font-size="10.00">memory</text>
</a>
</g>
</g>
<!-- Node7&#45;&gt;Node10 -->
<g id="edge9" class="edge">
<title>Node7&#45;&gt;Node10</title>
<path fill="none" stroke="midnightblue" d="M504.95,-67.48C512.83,-58.46 525.44,-44.02 535.24,-32.81"/>
<polygon fill="midnightblue" stroke="midnightblue" points="538.12,-34.84 542.06,-25.01 532.85,-30.24 538.12,-34.84"/>
</g>
<!-- Node11 -->
<g id="node11" class="node">
<title>Node11</title>
<g id="a_node11"><a xlink:title=" ">
<polygon fill="white" stroke="#bfbfbf" points="596.5,-6 596.5,-25 694.5,-25 694.5,-6 596.5,-6"/>
<text text-anchor="middle" x="645.5" y="-13" font-family="Helvetica,sans-Serif" font-size="10.00">spdlog/fmt/fmt.h</text>
</a>
</g>
</g>
<!-- Node7&#45;&gt;Node11 -->
<g id="edge10" class="edge">
<title>Node7&#45;&gt;Node11</title>
<path fill="none" stroke="midnightblue" d="M518.7,-67.48C543.87,-57.36 586.04,-40.4 614.78,-28.85"/>
<polygon fill="midnightblue" stroke="midnightblue" points="616.36,-31.99 624.33,-25.01 613.75,-25.49 616.36,-31.99"/>
</g>
</g>
</svg>
