<?xml version="1.0" encoding="UTF-8" standalone="no"?>
<!DOCTYPE svg PUBLIC "-//W3C//DTD SVG 1.1//EN"
 "http://www.w3.org/Graphics/SVG/1.1/DTD/svg11.dtd">
<!-- Generated by graphviz version 2.43.0 (0)
 -->
<!-- Title: OMSimMDOMFlasher.hh Pages: 1 -->
<svg width="1492pt" height="274pt"
 viewBox="0.00 0.00 1491.50 274.00" xmlns="http://www.w3.org/2000/svg" xmlns:xlink="http://www.w3.org/1999/xlink">
<g id="graph0" class="graph" transform="scale(1 1) rotate(0) translate(4 270)">
<title>OMSimMDOMFlasher.hh</title>
<!-- Node1 -->
<g id="node1" class="node">
<title>Node1</title>
<g id="a_node1"><a xlink:title="Defines the mDOMFlasher class for simulating the 10 flashers in an mDOM optical module.">
<polygon fill="#bfbfbf" stroke="black" points="1231,-246.5 1231,-265.5 1366,-265.5 1366,-246.5 1231,-246.5"/>
<text text-anchor="middle" x="1298.5" y="-253.5" font-family="Helvetica,sans-Serif" font-size="10.00">OMSimMDOMFlasher.hh</text>
</a>
</g>
</g>
<!-- Node2 -->
<g id="node2" class="node">
<title>Node2</title>
<g id="a_node2"><a xlink:href="abc_detector_component_8hh.html" target="_top" xlink:title="Provides helper base class abcDetectorComponent for constructing and managing detector components in ...">
<polygon fill="none" stroke="black" points="1084,-190.5 1084,-209.5 1231,-209.5 1231,-190.5 1084,-190.5"/>
<text text-anchor="middle" x="1157.5" y="-197.5" font-family="Helvetica,sans-Serif" font-size="10.00">abcDetectorComponent.hh</text>
</a>
</g>
</g>
<!-- Node1&#45;&gt;Node2 -->
<g id="edge1" class="edge">
<title>Node1&#45;&gt;Node2</title>
<path fill="none" stroke="midnightblue" d="M1276.16,-246.44C1252.75,-237.48 1215.76,-223.31 1189.31,-213.18"/>
<polygon fill="midnightblue" stroke="midnightblue" points="1190.33,-209.82 1179.74,-209.52 1187.82,-216.36 1190.33,-209.82"/>
</g>
<!-- Node23 -->
<g id="node23" class="node">
<title>Node23</title>
<g id="a_node23"><a xlink:title=" ">
<polygon fill="none" stroke="#bfbfbf" points="1249.5,-190.5 1249.5,-209.5 1347.5,-209.5 1347.5,-190.5 1249.5,-190.5"/>
<text text-anchor="middle" x="1298.5" y="-197.5" font-family="Helvetica,sans-Serif" font-size="10.00">G4UnionSolid.hh</text>
</a>
</g>
</g>
<!-- Node1&#45;&gt;Node23 -->
<g id="edge22" class="edge">
<title>Node1&#45;&gt;Node23</title>
<path fill="none" stroke="midnightblue" d="M1298.5,-246.08C1298.5,-239.01 1298.5,-228.86 1298.5,-219.99"/>
<polygon fill="midnightblue" stroke="midnightblue" points="1302,-219.75 1298.5,-209.75 1295,-219.75 1302,-219.75"/>
</g>
<!-- Node24 -->
<g id="node24" class="node">
<title>Node24</title>
<g id="a_node24"><a xlink:title=" ">
<polygon fill="none" stroke="#bfbfbf" points="1365.5,-190.5 1365.5,-209.5 1457.5,-209.5 1457.5,-190.5 1365.5,-190.5"/>
<text text-anchor="middle" x="1411.5" y="-197.5" font-family="Helvetica,sans-Serif" font-size="10.00">G4Navigator.hh</text>
</a>
</g>
</g>
<!-- Node1&#45;&gt;Node24 -->
<g id="edge23" class="edge">
<title>Node1&#45;&gt;Node24</title>
<path fill="none" stroke="midnightblue" d="M1316.41,-246.44C1334.75,-237.68 1363.51,-223.94 1384.59,-213.86"/>
<polygon fill="midnightblue" stroke="midnightblue" points="1386.17,-216.99 1393.68,-209.52 1383.15,-210.67 1386.17,-216.99"/>
</g>
<!-- Node3 -->
<g id="node3" class="node">
<title>Node3</title>
<g id="a_node3"><a xlink:href="_o_m_sim_input_data_8hh.html" target="_top" xlink:title="Definition of ParameterTable and OMSimInputData.">
<polygon fill="none" stroke="black" points="845,-134.5 845,-153.5 960,-153.5 960,-134.5 845,-134.5"/>
<text text-anchor="middle" x="902.5" y="-141.5" font-family="Helvetica,sans-Serif" font-size="10.00">OMSimInputData.hh</text>
</a>
</g>
</g>
<!-- Node2&#45;&gt;Node3 -->
<g id="edge2" class="edge">
<title>Node2&#45;&gt;Node3</title>
<path fill="none" stroke="midnightblue" d="M1117.09,-190.44C1072.52,-181 1000.73,-165.8 952.61,-155.61"/>
<polygon fill="midnightblue" stroke="midnightblue" points="953.22,-152.16 942.72,-153.52 951.77,-159.01 953.22,-152.16"/>
</g>
<!-- Node19 -->
<g id="node19" class="node">
<title>Node19</title>
<g id="a_node19"><a xlink:title=" ">
<polygon fill="none" stroke="#bfbfbf" points="978,-134.5 978,-153.5 1085,-153.5 1085,-134.5 978,-134.5"/>
<text text-anchor="middle" x="1031.5" y="-141.5" font-family="Helvetica,sans-Serif" font-size="10.00">G4Transform3D.hh</text>
</a>
</g>
</g>
<!-- Node2&#45;&gt;Node19 -->
<g id="edge18" class="edge">
<title>Node2&#45;&gt;Node19</title>
<path fill="none" stroke="midnightblue" d="M1137.53,-190.44C1116.89,-181.6 1084.44,-167.69 1060.87,-157.59"/>
<polygon fill="midnightblue" stroke="midnightblue" points="1061.94,-154.24 1051.37,-153.52 1059.18,-160.67 1061.94,-154.24"/>
</g>
<!-- Node20 -->
<g id="node20" class="node">
<title>Node20</title>
<g id="a_node20"><a xlink:title=" ">
<polygon fill="none" stroke="#bfbfbf" points="1103.5,-134.5 1103.5,-153.5 1211.5,-153.5 1211.5,-134.5 1103.5,-134.5"/>
<text text-anchor="middle" x="1157.5" y="-141.5" font-family="Helvetica,sans-Serif" font-size="10.00">G4VisAttributes.hh</text>
</a>
</g>
</g>
<!-- Node2&#45;&gt;Node20 -->
<g id="edge19" class="edge">
<title>Node2&#45;&gt;Node20</title>
<path fill="none" stroke="midnightblue" d="M1157.5,-190.08C1157.5,-183.01 1157.5,-172.86 1157.5,-163.99"/>
<polygon fill="midnightblue" stroke="midnightblue" points="1161,-163.75 1157.5,-153.75 1154,-163.75 1161,-163.75"/>
</g>
<!-- Node21 -->
<g id="node21" class="node">
<title>Node21</title>
<g id="a_node21"><a xlink:title=" ">
<polygon fill="none" stroke="#bfbfbf" points="1230,-134.5 1230,-153.5 1355,-153.5 1355,-134.5 1230,-134.5"/>
<text text-anchor="middle" x="1292.5" y="-141.5" font-family="Helvetica,sans-Serif" font-size="10.00">G4SubtractionSolid.hh</text>
</a>
</g>
</g>
<!-- Node2&#45;&gt;Node21 -->
<g id="edge20" class="edge">
<title>Node2&#45;&gt;Node21</title>
<path fill="none" stroke="midnightblue" d="M1178.89,-190.44C1201.21,-181.52 1236.4,-167.44 1261.71,-157.32"/>
<polygon fill="midnightblue" stroke="midnightblue" points="1263.22,-160.48 1271.21,-153.52 1260.62,-153.98 1263.22,-160.48"/>
</g>
<!-- Node22 -->
<g id="node22" class="node">
<title>Node22</title>
<g id="a_node22"><a xlink:title=" ">
<polygon fill="none" stroke="#bfbfbf" points="1373.5,-134.5 1373.5,-153.5 1483.5,-153.5 1483.5,-134.5 1373.5,-134.5"/>
<text text-anchor="middle" x="1428.5" y="-141.5" font-family="Helvetica,sans-Serif" font-size="10.00">G4PVPlacement.hh</text>
</a>
</g>
</g>
<!-- Node2&#45;&gt;Node22 -->
<g id="edge21" class="edge">
<title>Node2&#45;&gt;Node22</title>
<path fill="none" stroke="midnightblue" d="M1200.44,-190.44C1248.01,-180.96 1324.74,-165.67 1375.89,-155.48"/>
<polygon fill="midnightblue" stroke="midnightblue" points="1376.64,-158.9 1385.76,-153.52 1375.27,-152.04 1376.64,-158.9"/>
</g>
<!-- Node4 -->
<g id="node4" class="node">
<title>Node4</title>
<g id="a_node4"><a xlink:href="_o_m_sim_logger_8hh_source.html" target="_top" xlink:title=" ">
<polygon fill="none" stroke="black" points="220,-73 220,-92 319,-92 319,-73 220,-73"/>
<text text-anchor="middle" x="269.5" y="-80" font-family="Helvetica,sans-Serif" font-size="10.00">OMSimLogger.hh</text>
</a>
</g>
</g>
<!-- Node3&#45;&gt;Node4 -->
<g id="edge3" class="edge">
<title>Node3&#45;&gt;Node4</title>
<path fill="none" stroke="midnightblue" d="M844.93,-137.59C725.29,-126.34 450.84,-100.55 329.3,-89.12"/>
<polygon fill="midnightblue" stroke="midnightblue" points="329.36,-85.61 319.07,-88.16 328.7,-92.58 329.36,-85.61"/>
</g>
<!-- Node9 -->
<g id="node9" class="node">
<title>Node9</title>
<g id="a_node9"><a xlink:href="_o_m_sim_op_boundary_process_8hh_source.html" target="_top" xlink:title=" ">
<polygon fill="none" stroke="black" points="740.5,-73 740.5,-92 904.5,-92 904.5,-73 740.5,-73"/>
<text text-anchor="middle" x="822.5" y="-80" font-family="Helvetica,sans-Serif" font-size="10.00">OMSimOpBoundaryProcess.hh</text>
</a>
</g>
</g>
<!-- Node3&#45;&gt;Node9 -->
<g id="edge8" class="edge">
<title>Node3&#45;&gt;Node9</title>
<path fill="none" stroke="midnightblue" d="M891.04,-134.48C878.33,-125.02 857.59,-109.6 842.25,-98.19"/>
<polygon fill="midnightblue" stroke="midnightblue" points="844.05,-95.17 833.94,-92.01 839.88,-100.79 844.05,-95.17"/>
</g>
<!-- Node17 -->
<g id="node17" class="node">
<title>Node17</title>
<g id="a_node17"><a xlink:title=" ">
<polygon fill="none" stroke="#bfbfbf" points="923,-73 923,-92 1042,-92 1042,-73 923,-73"/>
<text text-anchor="middle" x="982.5" y="-80" font-family="Helvetica,sans-Serif" font-size="10.00">G4SystemOfUnits.hh</text>
</a>
</g>
</g>
<!-- Node3&#45;&gt;Node17 -->
<g id="edge16" class="edge">
<title>Node3&#45;&gt;Node17</title>
<path fill="none" stroke="midnightblue" d="M913.96,-134.48C926.67,-125.02 947.41,-109.6 962.75,-98.19"/>
<polygon fill="midnightblue" stroke="midnightblue" points="965.12,-100.79 971.06,-92.01 960.95,-95.17 965.12,-100.79"/>
</g>
<!-- Node18 -->
<g id="node18" class="node">
<title>Node18</title>
<g id="a_node18"><a xlink:title=" ">
<polygon fill="none" stroke="#bfbfbf" points="1060,-67.5 1060,-97.5 1173,-97.5 1173,-67.5 1060,-67.5"/>
<text text-anchor="start" x="1068" y="-85.5" font-family="Helvetica,sans-Serif" font-size="10.00">boost/property_tree</text>
<text text-anchor="middle" x="1116.5" y="-74.5" font-family="Helvetica,sans-Serif" font-size="10.00">/json_parser.hpp</text>
</a>
</g>
</g>
<!-- Node3&#45;&gt;Node18 -->
<g id="edge17" class="edge">
<title>Node3&#45;&gt;Node18</title>
<path fill="none" stroke="midnightblue" d="M933.16,-134.48C965.19,-125.57 1016.27,-111.37 1056.38,-100.22"/>
<polygon fill="midnightblue" stroke="midnightblue" points="1057.37,-103.57 1066.06,-97.52 1055.49,-96.83 1057.37,-103.57"/>
</g>
<!-- Node5 -->
<g id="node5" class="node">
<title>Node5</title>
<g id="a_node5"><a xlink:title=" ">
<polygon fill="none" stroke="#bfbfbf" points="0,-6 0,-25 93,-25 93,-6 0,-6"/>
<text text-anchor="middle" x="46.5" y="-13" font-family="Helvetica,sans-Serif" font-size="10.00">spdlog/spdlog.h</text>
</a>
</g>
</g>
<!-- Node4&#45;&gt;Node5 -->
<g id="edge4" class="edge">
<title>Node4&#45;&gt;Node5</title>
<path fill="none" stroke="midnightblue" d="M239.89,-72.87C200.21,-61.3 129.69,-40.75 85.66,-27.91"/>
<polygon fill="midnightblue" stroke="midnightblue" points="86.46,-24.5 75.88,-25.06 84.5,-31.22 86.46,-24.5"/>
</g>
<!-- Node6 -->
<g id="node6" class="node">
<title>Node6</title>
<g id="a_node6"><a xlink:title=" ">
<polygon fill="none" stroke="#bfbfbf" points="111,-0.5 111,-30.5 222,-30.5 222,-0.5 111,-0.5"/>
<text text-anchor="start" x="119" y="-18.5" font-family="Helvetica,sans-Serif" font-size="10.00">spdlog/sinks/stdout</text>
<text text-anchor="middle" x="166.5" y="-7.5" font-family="Helvetica,sans-Serif" font-size="10.00">_color_sinks.h</text>
</a>
</g>
</g>
<!-- Node4&#45;&gt;Node6 -->
<g id="edge5" class="edge">
<title>Node4&#45;&gt;Node6</title>
<path fill="none" stroke="midnightblue" d="M255.61,-72.73C240.75,-63.36 216.71,-48.19 197.35,-35.97"/>
<polygon fill="midnightblue" stroke="midnightblue" points="199.15,-32.97 188.83,-30.59 195.41,-38.89 199.15,-32.97"/>
</g>
<!-- Node7 -->
<g id="node7" class="node">
<title>Node7</title>
<g id="a_node7"><a xlink:title=" ">
<polygon fill="none" stroke="#bfbfbf" points="240.5,-6 240.5,-25 298.5,-25 298.5,-6 240.5,-6"/>
<text text-anchor="middle" x="269.5" y="-13" font-family="Helvetica,sans-Serif" font-size="10.00">memory</text>
</a>
</g>
</g>
<!-- Node4&#45;&gt;Node7 -->
<g id="edge6" class="edge">
<title>Node4&#45;&gt;Node7</title>
<path fill="none" stroke="midnightblue" d="M269.5,-72.73C269.5,-63.18 269.5,-47.62 269.5,-35.28"/>
<polygon fill="midnightblue" stroke="midnightblue" points="273,-35.13 269.5,-25.13 266,-35.13 273,-35.13"/>
</g>
<!-- Node8 -->
<g id="node8" class="node">
<title>Node8</title>
<g id="a_node8"><a xlink:title=" ">
<polygon fill="none" stroke="#bfbfbf" points="316.5,-6 316.5,-25 414.5,-25 414.5,-6 316.5,-6"/>
<text text-anchor="middle" x="365.5" y="-13" font-family="Helvetica,sans-Serif" font-size="10.00">spdlog/fmt/fmt.h</text>
</a>
</g>
</g>
<!-- Node4&#45;&gt;Node8 -->
<g id="edge7" class="edge">
<title>Node4&#45;&gt;Node8</title>
<path fill="none" stroke="midnightblue" d="M282.45,-72.73C298.35,-61.96 325.55,-43.55 344.47,-30.74"/>
<polygon fill="midnightblue" stroke="midnightblue" points="346.44,-33.63 352.76,-25.13 342.52,-27.84 346.44,-33.63"/>
</g>
<!-- Node10 -->
<g id="node10" class="node">
<title>Node10</title>
<g id="a_node10"><a xlink:title=" ">
<polygon fill="none" stroke="#bfbfbf" points="433,-6 433,-25 546,-25 546,-6 433,-6"/>
<text text-anchor="middle" x="489.5" y="-13" font-family="Helvetica,sans-Serif" font-size="10.00">G4OpticalPhoton.hh</text>
</a>
</g>
</g>
<!-- Node9&#45;&gt;Node10 -->
<g id="edge9" class="edge">
<title>Node9&#45;&gt;Node10</title>
<path fill="none" stroke="midnightblue" d="M775.15,-72.98C721.71,-63.26 632.23,-46.68 555.5,-31 549.68,-29.81 543.59,-28.53 537.55,-27.23"/>
<polygon fill="midnightblue" stroke="midnightblue" points="538.02,-23.75 527.5,-25.05 536.53,-30.59 538.02,-23.75"/>
</g>
<!-- Node11 -->
<g id="node11" class="node">
<title>Node11</title>
<g id="a_node11"><a xlink:title=" ">
<polygon fill="none" stroke="#bfbfbf" points="564.5,-6 564.5,-25 680.5,-25 680.5,-6 564.5,-6"/>
<text text-anchor="middle" x="622.5" y="-13" font-family="Helvetica,sans-Serif" font-size="10.00">G4OpticalSurface.hh</text>
</a>
</g>
</g>
<!-- Node9&#45;&gt;Node11 -->
<g id="edge10" class="edge">
<title>Node9&#45;&gt;Node11</title>
<path fill="none" stroke="midnightblue" d="M795.94,-72.87C760.58,-61.38 697.91,-41.01 658.37,-28.16"/>
<polygon fill="midnightblue" stroke="midnightblue" points="659.44,-24.83 648.85,-25.06 657.28,-31.48 659.44,-24.83"/>
</g>
<!-- Node12 -->
<g id="node12" class="node">
<title>Node12</title>
<g id="a_node12"><a xlink:title=" ">
<polygon fill="none" stroke="#bfbfbf" points="698.5,-6 698.5,-25 808.5,-25 808.5,-6 698.5,-6"/>
<text text-anchor="middle" x="753.5" y="-13" font-family="Helvetica,sans-Serif" font-size="10.00">G4RandomTools.hh</text>
</a>
</g>
</g>
<!-- Node9&#45;&gt;Node12 -->
<g id="edge11" class="edge">
<title>Node9&#45;&gt;Node12</title>
<path fill="none" stroke="midnightblue" d="M813.19,-72.73C802.23,-62.4 783.79,-45.04 770.31,-32.33"/>
<polygon fill="midnightblue" stroke="midnightblue" points="772.34,-29.44 762.66,-25.13 767.54,-34.53 772.34,-29.44"/>
</g>
<!-- Node13 -->
<g id="node13" class="node">
<title>Node13</title>
<g id="a_node13"><a xlink:title=" ">
<polygon fill="none" stroke="#bfbfbf" points="826.5,-6 826.5,-25 956.5,-25 956.5,-6 826.5,-6"/>
<text text-anchor="middle" x="891.5" y="-13" font-family="Helvetica,sans-Serif" font-size="10.00">G4VDiscreteProcess.hh</text>
</a>
</g>
</g>
<!-- Node9&#45;&gt;Node13 -->
<g id="edge12" class="edge">
<title>Node9&#45;&gt;Node13</title>
<path fill="none" stroke="midnightblue" d="M831.81,-72.73C842.77,-62.4 861.21,-45.04 874.69,-32.33"/>
<polygon fill="midnightblue" stroke="midnightblue" points="877.46,-34.53 882.34,-25.13 872.66,-29.44 877.46,-34.53"/>
</g>
<!-- Node14 -->
<g id="node14" class="node">
<title>Node14</title>
<g id="a_node14"><a xlink:title=" ">
<polygon fill="none" stroke="#bfbfbf" points="975,-6 975,-25 1132,-25 1132,-6 975,-6"/>
<text text-anchor="middle" x="1053.5" y="-13" font-family="Helvetica,sans-Serif" font-size="10.00">G4VUserTrackInformation.hh</text>
</a>
</g>
</g>
<!-- Node9&#45;&gt;Node14 -->
<g id="edge13" class="edge">
<title>Node9&#45;&gt;Node14</title>
<path fill="none" stroke="midnightblue" d="M853.18,-72.87C894.36,-61.28 967.63,-40.66 1013.22,-27.83"/>
<polygon fill="midnightblue" stroke="midnightblue" points="1014.39,-31.14 1023.07,-25.06 1012.49,-24.4 1014.39,-31.14"/>
</g>
<!-- Node15 -->
<g id="node15" class="node">
<title>Node15</title>
<g id="a_node15"><a xlink:title=" ">
<polygon fill="none" stroke="#bfbfbf" points="1150.5,-6 1150.5,-25 1240.5,-25 1240.5,-6 1150.5,-6"/>
<text text-anchor="middle" x="1195.5" y="-13" font-family="Helvetica,sans-Serif" font-size="10.00">G4AutoLock.hh</text>
</a>
</g>
</g>
<!-- Node9&#45;&gt;Node15 -->
<g id="edge14" class="edge">
<title>Node9&#45;&gt;Node15</title>
<path fill="none" stroke="midnightblue" d="M876.66,-72.96C966.84,-58.74 1138.27,-31.69 1141.5,-31 1146.24,-29.99 1151.18,-28.83 1156.06,-27.6"/>
<polygon fill="midnightblue" stroke="midnightblue" points="1157.13,-30.94 1165.93,-25.04 1155.37,-24.17 1157.13,-30.94"/>
</g>
<!-- Node16 -->
<g id="node16" class="node">
<title>Node16</title>
<g id="a_node16"><a xlink:title=" ">
<polygon fill="none" stroke="#bfbfbf" points="1258.5,-6 1258.5,-25 1352.5,-25 1352.5,-6 1258.5,-6"/>
<text text-anchor="middle" x="1305.5" y="-13" font-family="Helvetica,sans-Serif" font-size="10.00">G4Threading.hh</text>
</a>
</g>
</g>
<!-- Node9&#45;&gt;Node16 -->
<g id="edge15" class="edge">
<title>Node9&#45;&gt;Node16</title>
<path fill="none" stroke="midnightblue" d="M873.53,-73C886.85,-70.91 901.2,-68.76 914.5,-67 1062.95,-47.34 1102.18,-57.84 1249.5,-31 1254.87,-30.02 1260.49,-28.8 1266,-27.49"/>
<polygon fill="midnightblue" stroke="midnightblue" points="1266.89,-30.88 1275.75,-25.07 1265.2,-24.09 1266.89,-30.88"/>
</g>
</g>
</svg>
