<?xml version="1.0" encoding="UTF-8" standalone="no"?>
<!DOCTYPE svg PUBLIC "-//W3C//DTD SVG 1.1//EN"
 "http://www.w3.org/Graphics/SVG/1.1/DTD/svg11.dtd">
<!-- Generated by graphviz version 2.43.0 (0)
 -->
<!-- Title: OMSimSNAnalysis.cc Pages: 1 -->
<svg width="1136pt" height="263pt"
 viewBox="0.00 0.00 1136.48 263.00" xmlns="http://www.w3.org/2000/svg" xmlns:xlink="http://www.w3.org/1999/xlink">
<g id="graph0" class="graph" transform="scale(1 1) rotate(0) translate(4 259)">
<title>OMSimSNAnalysis.cc</title>
<!-- Node1 -->
<g id="node1" class="node">
<title>Node1</title>
<g id="a_node1"><a xlink:title="Analyze data and write output files.">
<polygon fill="#bfbfbf" stroke="black" points="497.48,-235.5 497.48,-254.5 617.48,-254.5 617.48,-235.5 497.48,-235.5"/>
<text text-anchor="middle" x="557.48" y="-242.5" font-family="Helvetica,sans-Serif" font-size="10.00">OMSimSNAnalysis.cc</text>
</a>
</g>
</g>
<!-- Node2 -->
<g id="node2" class="node">
<title>Node2</title>
<g id="a_node2"><a xlink:href="_o_m_sim_s_n_analysis_8hh_source.html" target="_top" xlink:title=" ">
<polygon fill="none" stroke="black" points="496.48,-179.5 496.48,-198.5 618.48,-198.5 618.48,-179.5 496.48,-179.5"/>
<text text-anchor="middle" x="557.48" y="-186.5" font-family="Helvetica,sans-Serif" font-size="10.00">OMSimSNAnalysis.hh</text>
</a>
</g>
</g>
<!-- Node1&#45;&gt;Node2 -->
<g id="edge1" class="edge">
<title>Node1&#45;&gt;Node2</title>
<path fill="none" stroke="midnightblue" d="M557.48,-235.08C557.48,-228.01 557.48,-217.86 557.48,-208.99"/>
<polygon fill="midnightblue" stroke="midnightblue" points="560.98,-208.75 557.48,-198.75 553.98,-208.75 560.98,-208.75"/>
</g>
<!-- Node6 -->
<g id="node6" class="node">
<title>Node6</title>
<g id="a_node6"><a xlink:href="_o_m_sim_hit_manager_8hh.html" target="_top" xlink:title="Defines structures and classes related to optical module photon hit management.">
<polygon fill="none" stroke="black" points="329.98,-123.5 329.98,-142.5 452.98,-142.5 452.98,-123.5 329.98,-123.5"/>
<text text-anchor="middle" x="391.48" y="-130.5" font-family="Helvetica,sans-Serif" font-size="10.00">OMSimHitManager.hh</text>
</a>
</g>
</g>
<!-- Node1&#45;&gt;Node6 -->
<g id="edge30" class="edge">
<title>Node1&#45;&gt;Node6</title>
<path fill="none" stroke="midnightblue" d="M544,-235.47C529.85,-226.49 507.01,-211.89 487.48,-199 461.37,-181.77 431.59,-161.51 412.21,-148.25"/>
<polygon fill="midnightblue" stroke="midnightblue" points="414.07,-145.28 403.84,-142.51 410.11,-151.05 414.07,-145.28"/>
</g>
<!-- Node8 -->
<g id="node8" class="node">
<title>Node8</title>
<g id="a_node8"><a xlink:title=" ">
<polygon fill="none" stroke="#bfbfbf" points="0.98,-0.5 0.98,-19.5 119.98,-19.5 119.98,-0.5 0.98,-0.5"/>
<text text-anchor="middle" x="60.48" y="-7.5" font-family="Helvetica,sans-Serif" font-size="10.00">G4SystemOfUnits.hh</text>
</a>
</g>
</g>
<!-- Node1&#45;&gt;Node8 -->
<g id="edge19" class="edge">
<title>Node1&#45;&gt;Node8</title>
<path fill="none" stroke="midnightblue" d="M497.43,-236.02C367.15,-217.35 65.37,-166.31 5.48,-87 -2.83,-76.01 -0.42,-68.45 5.48,-56 11.6,-43.07 23.47,-32.62 34.62,-25.05"/>
<polygon fill="midnightblue" stroke="midnightblue" points="36.67,-27.9 43.28,-19.61 32.95,-21.97 36.67,-27.9"/>
</g>
<!-- Node17 -->
<g id="node17" class="node">
<title>Node17</title>
<g id="a_node17"><a xlink:title=" ">
<polygon fill="none" stroke="#bfbfbf" points="951.98,-179.5 951.98,-198.5 1010.98,-198.5 1010.98,-179.5 951.98,-179.5"/>
<text text-anchor="middle" x="981.48" y="-186.5" font-family="Helvetica,sans-Serif" font-size="10.00">G4ios.hh</text>
</a>
</g>
</g>
<!-- Node1&#45;&gt;Node17 -->
<g id="edge20" class="edge">
<title>Node1&#45;&gt;Node17</title>
<path fill="none" stroke="midnightblue" d="M617.79,-239.03C691.76,-232.47 821.11,-219.5 941.6,-198.97"/>
<polygon fill="midnightblue" stroke="midnightblue" points="942.48,-202.37 951.73,-197.22 941.29,-195.47 942.48,-202.37"/>
</g>
<!-- Node18 -->
<g id="node18" class="node">
<title>Node18</title>
<g id="a_node18"><a xlink:href="_o_m_sim_command_args_table_8hh.html" target="_top" xlink:title="Definition of the OMSimCommandArgsTable singleton class, which controls user args.">
<polygon fill="none" stroke="black" points="769.48,-179.5 769.48,-198.5 933.48,-198.5 933.48,-179.5 769.48,-179.5"/>
<text text-anchor="middle" x="851.48" y="-186.5" font-family="Helvetica,sans-Serif" font-size="10.00">OMSimCommandArgsTable.hh</text>
</a>
</g>
</g>
<!-- Node1&#45;&gt;Node18 -->
<g id="edge21" class="edge">
<title>Node1&#45;&gt;Node18</title>
<path fill="none" stroke="midnightblue" d="M604.06,-235.44C655.89,-225.92 739.61,-210.55 795.09,-200.36"/>
<polygon fill="midnightblue" stroke="midnightblue" points="795.91,-203.77 805.11,-198.52 794.64,-196.88 795.91,-203.77"/>
</g>
<!-- Node3 -->
<g id="node3" class="node">
<title>Node3</title>
<g id="a_node3"><a xlink:title=" ">
<polygon fill="none" stroke="#bfbfbf" points="450.98,-0.5 450.98,-19.5 523.98,-19.5 523.98,-0.5 450.98,-0.5"/>
<text text-anchor="middle" x="487.48" y="-7.5" font-family="Helvetica,sans-Serif" font-size="10.00">G4Types.hh</text>
</a>
</g>
</g>
<!-- Node2&#45;&gt;Node3 -->
<g id="edge2" class="edge">
<title>Node2&#45;&gt;Node3</title>
<path fill="none" stroke="midnightblue" d="M554.1,-179.46C543.36,-152.31 509.83,-67.51 494.84,-29.62"/>
<polygon fill="midnightblue" stroke="midnightblue" points="497.92,-27.88 490.98,-19.87 491.41,-30.45 497.92,-27.88"/>
</g>
<!-- Node4 -->
<g id="node4" class="node">
<title>Node4</title>
<g id="a_node4"><a xlink:title=" ">
<polygon fill="none" stroke="#bfbfbf" points="585.48,-123.5 585.48,-142.5 659.48,-142.5 659.48,-123.5 585.48,-123.5"/>
<text text-anchor="middle" x="622.48" y="-130.5" font-family="Helvetica,sans-Serif" font-size="10.00">G4String.hh</text>
</a>
</g>
</g>
<!-- Node2&#45;&gt;Node4 -->
<g id="edge3" class="edge">
<title>Node2&#45;&gt;Node4</title>
<path fill="none" stroke="midnightblue" d="M567.92,-179.32C577.62,-171.26 592.29,-159.08 603.98,-149.37"/>
<polygon fill="midnightblue" stroke="midnightblue" points="606.39,-151.92 611.84,-142.83 601.91,-146.53 606.39,-151.92"/>
</g>
<!-- Node5 -->
<g id="node5" class="node">
<title>Node5</title>
<g id="a_node5"><a xlink:title=" ">
<polygon fill="none" stroke="#bfbfbf" points="387.98,-62 387.98,-81 490.98,-81 490.98,-62 387.98,-62"/>
<text text-anchor="middle" x="439.48" y="-69" font-family="Helvetica,sans-Serif" font-size="10.00">G4ThreeVector.hh</text>
</a>
</g>
</g>
<!-- Node2&#45;&gt;Node5 -->
<g id="edge4" class="edge">
<title>Node2&#45;&gt;Node5</title>
<path fill="none" stroke="midnightblue" d="M546.83,-179.35C536.12,-170.51 519.25,-156.24 505.48,-143 486.89,-125.12 466.81,-103.28 453.74,-88.69"/>
<polygon fill="midnightblue" stroke="midnightblue" points="456.19,-86.17 446.93,-81.02 450.95,-90.82 456.19,-86.17"/>
</g>
<!-- Node2&#45;&gt;Node6 -->
<g id="edge5" class="edge">
<title>Node2&#45;&gt;Node6</title>
<path fill="none" stroke="midnightblue" d="M531.17,-179.44C503.13,-170.32 458.53,-155.81 427.29,-145.65"/>
<polygon fill="midnightblue" stroke="midnightblue" points="428.25,-142.28 417.66,-142.52 426.08,-148.94 428.25,-142.28"/>
</g>
<!-- Node12 -->
<g id="node12" class="node">
<title>Node12</title>
<g id="a_node12"><a xlink:title=" ">
<polygon fill="none" stroke="#bfbfbf" points="547.98,-62 547.98,-81 602.98,-81 602.98,-62 547.98,-62"/>
<text text-anchor="middle" x="575.48" y="-69" font-family="Helvetica,sans-Serif" font-size="10.00">fstream</text>
</a>
</g>
</g>
<!-- Node2&#45;&gt;Node12 -->
<g id="edge17" class="edge">
<title>Node2&#45;&gt;Node12</title>
<path fill="none" stroke="midnightblue" d="M558.83,-179.32C561.72,-160.76 568.57,-116.84 572.52,-91.47"/>
<polygon fill="midnightblue" stroke="midnightblue" points="576.03,-91.7 574.11,-81.28 569.11,-90.62 576.03,-91.7"/>
</g>
<!-- Node15 -->
<g id="node15" class="node">
<title>Node15</title>
<g id="a_node15"><a xlink:title=" ">
<polygon fill="none" stroke="#bfbfbf" points="677.98,-123.5 677.98,-142.5 724.98,-142.5 724.98,-123.5 677.98,-123.5"/>
<text text-anchor="middle" x="701.48" y="-130.5" font-family="Helvetica,sans-Serif" font-size="10.00">vector</text>
</a>
</g>
</g>
<!-- Node2&#45;&gt;Node15 -->
<g id="edge16" class="edge">
<title>Node2&#45;&gt;Node15</title>
<path fill="none" stroke="midnightblue" d="M580.29,-179.44C604.31,-170.44 642.31,-156.19 669.35,-146.05"/>
<polygon fill="midnightblue" stroke="midnightblue" points="670.63,-149.3 678.77,-142.52 668.17,-142.75 670.63,-149.3"/>
</g>
<!-- Node16 -->
<g id="node16" class="node">
<title>Node16</title>
<g id="a_node16"><a xlink:title=" ">
<polygon fill="none" stroke="#bfbfbf" points="742.98,-123.5 742.98,-142.5 783.98,-142.5 783.98,-123.5 742.98,-123.5"/>
<text text-anchor="middle" x="763.48" y="-130.5" font-family="Helvetica,sans-Serif" font-size="10.00">tuple</text>
</a>
</g>
</g>
<!-- Node2&#45;&gt;Node16 -->
<g id="edge18" class="edge">
<title>Node2&#45;&gt;Node16</title>
<path fill="none" stroke="midnightblue" d="M592.65,-179.46C626.24,-171.2 678.51,-158.09 733.01,-143.04"/>
<polygon fill="midnightblue" stroke="midnightblue" points="734.15,-146.36 742.85,-140.31 732.28,-139.61 734.15,-146.36"/>
</g>
<!-- Node6&#45;&gt;Node5 -->
<g id="edge12" class="edge">
<title>Node6&#45;&gt;Node5</title>
<path fill="none" stroke="midnightblue" d="M398.35,-123.48C405.63,-114.46 417.27,-100.02 426.32,-88.81"/>
<polygon fill="midnightblue" stroke="midnightblue" points="429.06,-90.99 432.61,-81.01 423.61,-86.59 429.06,-90.99"/>
</g>
<!-- Node7 -->
<g id="node7" class="node">
<title>Node7</title>
<g id="a_node7"><a xlink:href="_o_m_sim_p_m_t_response_8hh.html" target="_top" xlink:title="Simulation of PMT response.">
<polygon fill="none" stroke="black" points="234.98,-62 234.98,-81 369.98,-81 369.98,-62 234.98,-62"/>
<text text-anchor="middle" x="302.48" y="-69" font-family="Helvetica,sans-Serif" font-size="10.00">OMSimPMTResponse.hh</text>
</a>
</g>
</g>
<!-- Node6&#45;&gt;Node7 -->
<g id="edge6" class="edge">
<title>Node6&#45;&gt;Node7</title>
<path fill="none" stroke="midnightblue" d="M378.73,-123.48C364.45,-113.93 341.08,-98.31 323.97,-86.87"/>
<polygon fill="midnightblue" stroke="midnightblue" points="325.46,-83.66 315.2,-81.01 321.57,-89.48 325.46,-83.66"/>
</g>
<!-- Node6&#45;&gt;Node12 -->
<g id="edge13" class="edge">
<title>Node6&#45;&gt;Node12</title>
<path fill="none" stroke="midnightblue" d="M417.84,-123.48C449.81,-113.14 503.85,-95.66 539.6,-84.1"/>
<polygon fill="midnightblue" stroke="midnightblue" points="540.72,-87.42 549.16,-81.01 538.57,-80.76 540.72,-87.42"/>
</g>
<!-- Node13 -->
<g id="node13" class="node">
<title>Node13</title>
<g id="a_node13"><a xlink:title=" ">
<polygon fill="none" stroke="#bfbfbf" points="14.48,-62 14.48,-81 104.48,-81 104.48,-62 14.48,-62"/>
<text text-anchor="middle" x="59.48" y="-69" font-family="Helvetica,sans-Serif" font-size="10.00">G4AutoLock.hh</text>
</a>
</g>
</g>
<!-- Node6&#45;&gt;Node13 -->
<g id="edge14" class="edge">
<title>Node6&#45;&gt;Node13</title>
<path fill="none" stroke="midnightblue" d="M329.86,-123.86C273.3,-115.96 187.33,-102.85 113.48,-87 108.74,-85.98 103.8,-84.81 98.92,-83.59"/>
<polygon fill="midnightblue" stroke="midnightblue" points="99.61,-80.15 89.05,-81.02 97.85,-86.93 99.61,-80.15"/>
</g>
<!-- Node14 -->
<g id="node14" class="node">
<title>Node14</title>
<g id="a_node14"><a xlink:title=" ">
<polygon fill="none" stroke="#bfbfbf" points="122.48,-62 122.48,-81 216.48,-81 216.48,-62 122.48,-62"/>
<text text-anchor="middle" x="169.48" y="-69" font-family="Helvetica,sans-Serif" font-size="10.00">G4Threading.hh</text>
</a>
</g>
</g>
<!-- Node6&#45;&gt;Node14 -->
<g id="edge15" class="edge">
<title>Node6&#45;&gt;Node14</title>
<path fill="none" stroke="midnightblue" d="M359.67,-123.48C320.6,-113 254.22,-95.21 211.12,-83.66"/>
<polygon fill="midnightblue" stroke="midnightblue" points="211.79,-80.22 201.22,-81.01 209.98,-86.98 211.79,-80.22"/>
</g>
<!-- Node7&#45;&gt;Node3 -->
<g id="edge8" class="edge">
<title>Node7&#45;&gt;Node3</title>
<path fill="none" stroke="midnightblue" d="M328.98,-61.98C361.13,-51.64 415.46,-34.16 451.4,-22.6"/>
<polygon fill="midnightblue" stroke="midnightblue" points="452.57,-25.9 461.02,-19.51 450.43,-19.24 452.57,-25.9"/>
</g>
<!-- Node7&#45;&gt;Node8 -->
<g id="edge7" class="edge">
<title>Node7&#45;&gt;Node8</title>
<path fill="none" stroke="midnightblue" d="M267.8,-61.98C224.94,-51.44 151.93,-33.49 104.98,-21.94"/>
<polygon fill="midnightblue" stroke="midnightblue" points="105.63,-18.5 95.08,-19.51 103.96,-25.3 105.63,-18.5"/>
</g>
<!-- Node9 -->
<g id="node9" class="node">
<title>Node9</title>
<g id="a_node9"><a xlink:title=" ">
<polygon fill="none" stroke="#bfbfbf" points="283.48,-0.5 283.48,-19.5 321.48,-19.5 321.48,-0.5 283.48,-0.5"/>
<text text-anchor="middle" x="302.48" y="-7.5" font-family="Helvetica,sans-Serif" font-size="10.00">map</text>
</a>
</g>
</g>
<!-- Node7&#45;&gt;Node9 -->
<g id="edge9" class="edge">
<title>Node7&#45;&gt;Node9</title>
<path fill="none" stroke="midnightblue" d="M302.48,-61.98C302.48,-53.58 302.48,-40.48 302.48,-29.66"/>
<polygon fill="midnightblue" stroke="midnightblue" points="305.98,-29.51 302.48,-19.51 298.98,-29.51 305.98,-29.51"/>
</g>
<!-- Node10 -->
<g id="node10" class="node">
<title>Node10</title>
<g id="a_node10"><a xlink:title=" ">
<polygon fill="none" stroke="#bfbfbf" points="339.98,-0.5 339.98,-19.5 400.98,-19.5 400.98,-0.5 339.98,-0.5"/>
<text text-anchor="middle" x="370.48" y="-7.5" font-family="Helvetica,sans-Serif" font-size="10.00">TGraph.h</text>
</a>
</g>
</g>
<!-- Node7&#45;&gt;Node10 -->
<g id="edge10" class="edge">
<title>Node7&#45;&gt;Node10</title>
<path fill="none" stroke="midnightblue" d="M312.22,-61.98C322.82,-52.7 340,-37.67 352.96,-26.33"/>
<polygon fill="midnightblue" stroke="midnightblue" points="355.53,-28.73 360.75,-19.51 350.92,-23.46 355.53,-28.73"/>
</g>
<!-- Node11 -->
<g id="node11" class="node">
<title>Node11</title>
<g id="a_node11"><a xlink:title=" ">
<polygon fill="none" stroke="#bfbfbf" points="211.98,-0.5 211.98,-19.5 264.98,-19.5 264.98,-0.5 211.98,-0.5"/>
<text text-anchor="middle" x="238.48" y="-7.5" font-family="Helvetica,sans-Serif" font-size="10.00">TH2D.h</text>
</a>
</g>
</g>
<!-- Node7&#45;&gt;Node11 -->
<g id="edge11" class="edge">
<title>Node7&#45;&gt;Node11</title>
<path fill="none" stroke="midnightblue" d="M293.31,-61.98C283.33,-52.7 267.16,-37.67 254.97,-26.33"/>
<polygon fill="midnightblue" stroke="midnightblue" points="257.34,-23.75 247.63,-19.51 252.57,-28.88 257.34,-23.75"/>
</g>
<!-- Node18&#45;&gt;Node12 -->
<g id="edge27" class="edge">
<title>Node18&#45;&gt;Node12</title>
<path fill="none" stroke="midnightblue" d="M846.14,-179.3C836.99,-165.17 816.92,-137.36 792.48,-123 762.38,-105.32 666.88,-87.47 613.14,-78.48"/>
<polygon fill="midnightblue" stroke="midnightblue" points="613.42,-74.98 602.98,-76.8 612.28,-81.88 613.42,-74.98"/>
</g>
<!-- Node19 -->
<g id="node19" class="node">
<title>Node19</title>
<g id="a_node19"><a xlink:href="_o_m_sim_logger_8hh_source.html" target="_top" xlink:title=" ">
<polygon fill="none" stroke="black" points="840.98,-123.5 840.98,-142.5 939.98,-142.5 939.98,-123.5 840.98,-123.5"/>
<text text-anchor="middle" x="890.48" y="-130.5" font-family="Helvetica,sans-Serif" font-size="10.00">OMSimLogger.hh</text>
</a>
</g>
</g>
<!-- Node18&#45;&gt;Node19 -->
<g id="edge22" class="edge">
<title>Node18&#45;&gt;Node19</title>
<path fill="none" stroke="midnightblue" d="M857.92,-179.08C863.43,-171.46 871.51,-160.26 878.24,-150.94"/>
<polygon fill="midnightblue" stroke="midnightblue" points="881.14,-152.91 884.16,-142.75 875.46,-148.81 881.14,-152.91"/>
</g>
<!-- Node24 -->
<g id="node24" class="node">
<title>Node24</title>
<g id="a_node24"><a xlink:title=" ">
<polygon fill="none" stroke="#bfbfbf" points="958.48,-123.5 958.48,-142.5 1042.48,-142.5 1042.48,-123.5 958.48,-123.5"/>
<text text-anchor="middle" x="1000.48" y="-130.5" font-family="Helvetica,sans-Serif" font-size="10.00">boost/any.hpp</text>
</a>
</g>
</g>
<!-- Node18&#45;&gt;Node24 -->
<g id="edge28" class="edge">
<title>Node18&#45;&gt;Node24</title>
<path fill="none" stroke="midnightblue" d="M875.09,-179.44C899.93,-170.44 939.25,-156.19 967.23,-146.05"/>
<polygon fill="midnightblue" stroke="midnightblue" points="968.77,-149.21 976.98,-142.52 966.38,-142.63 968.77,-149.21"/>
</g>
<!-- Node25 -->
<g id="node25" class="node">
<title>Node25</title>
<g id="a_node25"><a xlink:title=" ">
<polygon fill="none" stroke="#bfbfbf" points="1060.48,-123.5 1060.48,-142.5 1128.48,-142.5 1128.48,-123.5 1060.48,-123.5"/>
<text text-anchor="middle" x="1094.48" y="-130.5" font-family="Helvetica,sans-Serif" font-size="10.00">sys/time.h</text>
</a>
</g>
</g>
<!-- Node18&#45;&gt;Node25 -->
<g id="edge29" class="edge">
<title>Node18&#45;&gt;Node25</title>
<path fill="none" stroke="midnightblue" d="M889.98,-179.44C933.65,-169.74 1004.72,-153.95 1050.53,-143.77"/>
<polygon fill="midnightblue" stroke="midnightblue" points="1051.46,-147.14 1060.47,-141.56 1049.94,-140.31 1051.46,-147.14"/>
</g>
<!-- Node20 -->
<g id="node20" class="node">
<title>Node20</title>
<g id="a_node20"><a xlink:title=" ">
<polygon fill="none" stroke="#bfbfbf" points="1005.98,-62 1005.98,-81 1098.98,-81 1098.98,-62 1005.98,-62"/>
<text text-anchor="middle" x="1052.48" y="-69" font-family="Helvetica,sans-Serif" font-size="10.00">spdlog/spdlog.h</text>
</a>
</g>
</g>
<!-- Node19&#45;&gt;Node20 -->
<g id="edge23" class="edge">
<title>Node19&#45;&gt;Node20</title>
<path fill="none" stroke="midnightblue" d="M913.69,-123.48C941.48,-113.27 988.2,-96.11 1019.67,-84.55"/>
<polygon fill="midnightblue" stroke="midnightblue" points="1021.13,-87.74 1029.31,-81.01 1018.72,-81.17 1021.13,-87.74"/>
</g>
<!-- Node21 -->
<g id="node21" class="node">
<title>Node21</title>
<g id="a_node21"><a xlink:title=" ">
<polygon fill="none" stroke="#bfbfbf" points="683.98,-56.5 683.98,-86.5 794.98,-86.5 794.98,-56.5 683.98,-56.5"/>
<text text-anchor="start" x="691.98" y="-74.5" font-family="Helvetica,sans-Serif" font-size="10.00">spdlog/sinks/stdout</text>
<text text-anchor="middle" x="739.48" y="-63.5" font-family="Helvetica,sans-Serif" font-size="10.00">_color_sinks.h</text>
</a>
</g>
</g>
<!-- Node19&#45;&gt;Node21 -->
<g id="edge24" class="edge">
<title>Node19&#45;&gt;Node21</title>
<path fill="none" stroke="midnightblue" d="M868.84,-123.48C846.96,-114.85 812.47,-101.26 784.61,-90.29"/>
<polygon fill="midnightblue" stroke="midnightblue" points="785.65,-86.93 775.06,-86.52 783.08,-93.45 785.65,-86.93"/>
</g>
<!-- Node22 -->
<g id="node22" class="node">
<title>Node22</title>
<g id="a_node22"><a xlink:title=" ">
<polygon fill="none" stroke="#bfbfbf" points="813.48,-62 813.48,-81 871.48,-81 871.48,-62 813.48,-62"/>
<text text-anchor="middle" x="842.48" y="-69" font-family="Helvetica,sans-Serif" font-size="10.00">memory</text>
</a>
</g>
</g>
<!-- Node19&#45;&gt;Node22 -->
<g id="edge25" class="edge">
<title>Node19&#45;&gt;Node22</title>
<path fill="none" stroke="midnightblue" d="M883.6,-123.48C876.33,-114.46 864.68,-100.02 855.64,-88.81"/>
<polygon fill="midnightblue" stroke="midnightblue" points="858.34,-86.59 849.34,-81.01 852.9,-90.99 858.34,-86.59"/>
</g>
<!-- Node23 -->
<g id="node23" class="node">
<title>Node23</title>
<g id="a_node23"><a xlink:title=" ">
<polygon fill="none" stroke="#bfbfbf" points="889.48,-62 889.48,-81 987.48,-81 987.48,-62 889.48,-62"/>
<text text-anchor="middle" x="938.48" y="-69" font-family="Helvetica,sans-Serif" font-size="10.00">spdlog/fmt/fmt.h</text>
</a>
</g>
</g>
<!-- Node19&#45;&gt;Node23 -->
<g id="edge26" class="edge">
<title>Node19&#45;&gt;Node23</title>
<path fill="none" stroke="midnightblue" d="M897.35,-123.48C904.63,-114.46 916.27,-100.02 925.32,-88.81"/>
<polygon fill="midnightblue" stroke="midnightblue" points="928.06,-90.99 931.61,-81.01 922.61,-86.59 928.06,-90.99"/>
</g>
</g>
</svg>
