<?xml version="1.0" encoding="UTF-8" standalone="no"?>
<!DOCTYPE svg PUBLIC "-//W3C//DTD SVG 1.1//EN"
 "http://www.w3.org/Graphics/SVG/1.1/DTD/svg11.dtd">
<!-- Generated by graphviz version 2.43.0 (0)
 -->
<!-- Title: OMSimSNdetector.cc Pages: 1 -->
<svg width="1432pt" height="498pt"
 viewBox="0.00 0.00 1432.00 498.00" xmlns="http://www.w3.org/2000/svg" xmlns:xlink="http://www.w3.org/1999/xlink">
<g id="graph0" class="graph" transform="scale(1 1) rotate(0) translate(4 494)">
<title>OMSimSNdetector.cc</title>
<polygon fill="white" stroke="transparent" points="-4,4 -4,-494 1428,-494 1428,4 -4,4"/>
<!-- Node1 -->
<g id="node1" class="node">
<title>Node1</title>
<g id="a_node1"><a xlink:title=" ">
<polygon fill="#bfbfbf" stroke="black" points="572.5,-470.5 572.5,-489.5 691.5,-489.5 691.5,-470.5 572.5,-470.5"/>
<text text-anchor="middle" x="632" y="-477.5" font-family="Helvetica,sans-Serif" font-size="10.00">OMSimSNdetector.cc</text>
</a>
</g>
</g>
<!-- Node2 -->
<g id="node2" class="node">
<title>Node2</title>
<g id="a_node2"><a xlink:href="_o_m_sim_s_ndetector_8hh.html" target="_top" xlink:title=" ">
<polygon fill="white" stroke="black" points="722,-414.5 722,-433.5 842,-433.5 842,-414.5 722,-414.5"/>
<text text-anchor="middle" x="782" y="-421.5" font-family="Helvetica,sans-Serif" font-size="10.00">OMSimSNdetector.hh</text>
</a>
</g>
</g>
<!-- Node1&#45;&gt;Node2 -->
<g id="edge1" class="edge">
<title>Node1&#45;&gt;Node2</title>
<path fill="none" stroke="midnightblue" d="M655.77,-470.44C680.89,-461.4 720.71,-447.06 748.9,-436.92"/>
<polygon fill="midnightblue" stroke="midnightblue" points="750.12,-440.2 758.34,-433.52 747.75,-433.61 750.12,-440.2"/>
</g>
<!-- Node19 -->
<g id="node19" class="node">
<title>Node19</title>
<g id="a_node19"><a xlink:href="_o_m_sim_hit_manager_8hh.html" target="_top" xlink:title="Defines structures and classes related to optical module photon hit management.">
<polygon fill="white" stroke="black" points="1053.5,-246.5 1053.5,-265.5 1176.5,-265.5 1176.5,-246.5 1053.5,-246.5"/>
<text text-anchor="middle" x="1115" y="-253.5" font-family="Helvetica,sans-Serif" font-size="10.00">OMSimHitManager.hh</text>
</a>
</g>
</g>
<!-- Node1&#45;&gt;Node19 -->
<g id="edge62" class="edge">
<title>Node1&#45;&gt;Node19</title>
<path fill="none" stroke="midnightblue" d="M691.76,-477.24C809.77,-473.17 1063.8,-461.32 1092,-434 1135.18,-392.17 1126.12,-312.09 1119.2,-275.75"/>
<polygon fill="midnightblue" stroke="midnightblue" points="1122.56,-274.68 1117.1,-265.6 1115.7,-276.1 1122.56,-274.68"/>
</g>
<!-- Node32 -->
<g id="node32" class="node">
<title>Node32</title>
<g id="a_node32"><a xlink:title=" ">
<polygon fill="white" stroke="#bfbfbf" points="560.5,-190.5 560.5,-209.5 627.5,-209.5 627.5,-190.5 560.5,-190.5"/>
<text text-anchor="middle" x="594" y="-197.5" font-family="Helvetica,sans-Serif" font-size="10.00">G4Tubs.hh</text>
</a>
</g>
</g>
<!-- Node1&#45;&gt;Node32 -->
<g id="edge69" class="edge">
<title>Node1&#45;&gt;Node32</title>
<path fill="none" stroke="midnightblue" d="M691.7,-475.74C831.62,-465.95 1161.43,-429.06 1059,-302 1006.19,-236.49 742.97,-211.28 637.66,-203.72"/>
<polygon fill="midnightblue" stroke="midnightblue" points="637.89,-200.23 627.67,-203.02 637.41,-207.21 637.89,-200.23"/>
</g>
<!-- Node35 -->
<g id="node35" class="node">
<title>Node35</title>
<g id="a_node35"><a xlink:href="_o_m_sim_m_d_o_m_8hh.html" target="_top" xlink:title="Construction of mDOM.">
<polygon fill="white" stroke="black" points="158,-358.5 158,-377.5 258,-377.5 258,-358.5 158,-358.5"/>
<text text-anchor="middle" x="208" y="-365.5" font-family="Helvetica,sans-Serif" font-size="10.00">OMSimMDOM.hh</text>
</a>
</g>
</g>
<!-- Node1&#45;&gt;Node35 -->
<g id="edge41" class="edge">
<title>Node1&#45;&gt;Node35</title>
<path fill="none" stroke="midnightblue" d="M596.17,-470.44C559.24,-461.56 500.01,-447.15 449,-434 378.29,-415.77 296.24,-393.38 248.42,-380.2"/>
<polygon fill="midnightblue" stroke="midnightblue" points="249.33,-376.82 238.76,-377.53 247.47,-383.57 249.33,-376.82"/>
</g>
<!-- Node37 -->
<g id="node37" class="node">
<title>Node37</title>
<g id="a_node37"><a xlink:title=" ">
<polygon fill="white" stroke="#bfbfbf" points="0,-246.5 0,-265.5 92,-265.5 92,-246.5 0,-246.5"/>
<text text-anchor="middle" x="46" y="-253.5" font-family="Helvetica,sans-Serif" font-size="10.00">G4Navigator.hh</text>
</a>
</g>
</g>
<!-- Node1&#45;&gt;Node37 -->
<g id="edge63" class="edge">
<title>Node1&#45;&gt;Node37</title>
<path fill="none" stroke="midnightblue" d="M572.34,-472.58C479.44,-461.25 295.63,-433.47 149,-378 98.43,-358.87 69.09,-368.2 41,-322 32.56,-308.11 35.16,-289.35 39.07,-275.55"/>
<polygon fill="midnightblue" stroke="midnightblue" points="42.5,-276.33 42.31,-265.74 35.85,-274.14 42.5,-276.33"/>
</g>
<!-- Node38 -->
<g id="node38" class="node">
<title>Node38</title>
<g id="a_node38"><a xlink:href="_o_m_sim_p_d_o_m_8hh.html" target="_top" xlink:title="Implementation of the pDOM/Gen1 DOM class.">
<polygon fill="white" stroke="black" points="627.5,-358.5 627.5,-377.5 724.5,-377.5 724.5,-358.5 627.5,-358.5"/>
<text text-anchor="middle" x="676" y="-365.5" font-family="Helvetica,sans-Serif" font-size="10.00">OMSimPDOM.hh</text>
</a>
</g>
</g>
<!-- Node1&#45;&gt;Node38 -->
<g id="edge48" class="edge">
<title>Node1&#45;&gt;Node38</title>
<path fill="none" stroke="midnightblue" d="M635.45,-470.37C642.62,-452.46 659.23,-410.92 668.82,-386.95"/>
<polygon fill="midnightblue" stroke="midnightblue" points="672.1,-388.18 672.56,-377.59 665.6,-385.58 672.1,-388.18"/>
</g>
<!-- Node39 -->
<g id="node39" class="node">
<title>Node39</title>
<g id="a_node39"><a xlink:href="_o_m_sim_l_o_m16_8hh.html" target="_top" xlink:title="Construction of LOM16.">
<polygon fill="white" stroke="black" points="276.5,-358.5 276.5,-377.5 377.5,-377.5 377.5,-358.5 276.5,-358.5"/>
<text text-anchor="middle" x="327" y="-365.5" font-family="Helvetica,sans-Serif" font-size="10.00">OMSimLOM16.hh</text>
</a>
</g>
</g>
<!-- Node1&#45;&gt;Node39 -->
<g id="edge51" class="edge">
<title>Node1&#45;&gt;Node39</title>
<path fill="none" stroke="midnightblue" d="M608.32,-470.46C554.49,-451.05 422.8,-403.55 360.59,-381.12"/>
<polygon fill="midnightblue" stroke="midnightblue" points="361.47,-377.71 350.87,-377.61 359.09,-384.3 361.47,-377.71"/>
</g>
<!-- Node40 -->
<g id="node40" class="node">
<title>Node40</title>
<g id="a_node40"><a xlink:href="_o_m_sim_l_o_m18_8hh.html" target="_top" xlink:title="Construction of LOM18.">
<polygon fill="white" stroke="black" points="508.5,-358.5 508.5,-377.5 609.5,-377.5 609.5,-358.5 508.5,-358.5"/>
<text text-anchor="middle" x="559" y="-365.5" font-family="Helvetica,sans-Serif" font-size="10.00">OMSimLOM18.hh</text>
</a>
</g>
</g>
<!-- Node1&#45;&gt;Node40 -->
<g id="edge54" class="edge">
<title>Node1&#45;&gt;Node40</title>
<path fill="none" stroke="midnightblue" d="M626.27,-470.37C614.22,-452.22 586.08,-409.8 570.28,-385.99"/>
<polygon fill="midnightblue" stroke="midnightblue" points="573.15,-383.99 564.7,-377.59 567.31,-387.86 573.15,-383.99"/>
</g>
<!-- Node43 -->
<g id="node43" class="node">
<title>Node43</title>
<g id="a_node43"><a xlink:href="_o_m_sim_d_e_g_g_8hh.html" target="_top" xlink:title="Construction of the DEGG class.">
<polygon fill="white" stroke="black" points="395.5,-358.5 395.5,-377.5 490.5,-377.5 490.5,-358.5 395.5,-358.5"/>
<text text-anchor="middle" x="443" y="-365.5" font-family="Helvetica,sans-Serif" font-size="10.00">OMSimDEGG.hh</text>
</a>
</g>
</g>
<!-- Node1&#45;&gt;Node43 -->
<g id="edge59" class="edge">
<title>Node1&#45;&gt;Node43</title>
<path fill="none" stroke="midnightblue" d="M617.17,-470.37C584.46,-451.33 505.91,-405.62 466.45,-382.65"/>
<polygon fill="midnightblue" stroke="midnightblue" points="468.16,-379.6 457.76,-377.59 464.64,-385.65 468.16,-379.6"/>
</g>
<!-- Node44 -->
<g id="node44" class="node">
<title>Node44</title>
<g id="a_node44"><a xlink:href="_o_m_sim_command_args_table_8hh.html" target="_top" xlink:title="Definition of the OMSimCommandArgsTable singleton class, which controls user args.">
<polygon fill="white" stroke="black" points="1195,-246.5 1195,-265.5 1359,-265.5 1359,-246.5 1195,-246.5"/>
<text text-anchor="middle" x="1277" y="-253.5" font-family="Helvetica,sans-Serif" font-size="10.00">OMSimCommandArgsTable.hh</text>
</a>
</g>
</g>
<!-- Node1&#45;&gt;Node44 -->
<g id="edge64" class="edge">
<title>Node1&#45;&gt;Node44</title>
<path fill="none" stroke="midnightblue" d="M691.57,-478.71C803.66,-477.31 1041.23,-470.04 1114,-434 1188.23,-397.24 1245.26,-311.24 1267.2,-274.33"/>
<polygon fill="midnightblue" stroke="midnightblue" points="1270.23,-276.08 1272.23,-265.68 1264.18,-272.57 1270.23,-276.08"/>
</g>
<!-- Node3 -->
<g id="node3" class="node">
<title>Node3</title>
<g id="a_node3"><a xlink:href="_o_m_sim_detector_construction_8hh.html" target="_top" xlink:title=" ">
<polygon fill="white" stroke="black" points="743,-358.5 743,-377.5 913,-377.5 913,-358.5 743,-358.5"/>
<text text-anchor="middle" x="828" y="-365.5" font-family="Helvetica,sans-Serif" font-size="10.00">OMSimDetectorConstruction.hh</text>
</a>
</g>
</g>
<!-- Node2&#45;&gt;Node3 -->
<g id="edge2" class="edge">
<title>Node2&#45;&gt;Node3</title>
<path fill="none" stroke="midnightblue" d="M789.6,-414.08C796.23,-406.3 806.02,-394.8 814.06,-385.37"/>
<polygon fill="midnightblue" stroke="midnightblue" points="816.73,-387.63 820.55,-377.75 811.4,-383.09 816.73,-387.63"/>
</g>
<!-- Node4 -->
<g id="node4" class="node">
<title>Node4</title>
<g id="a_node4"><a xlink:href="_o_m_sim_optical_module_8hh.html" target="_top" xlink:title=" ">
<polygon fill="white" stroke="black" points="356.5,-302.5 356.5,-321.5 493.5,-321.5 493.5,-302.5 356.5,-302.5"/>
<text text-anchor="middle" x="425" y="-309.5" font-family="Helvetica,sans-Serif" font-size="10.00">OMSimOpticalModule.hh</text>
</a>
</g>
</g>
<!-- Node3&#45;&gt;Node4 -->
<g id="edge3" class="edge">
<title>Node3&#45;&gt;Node4</title>
<path fill="none" stroke="midnightblue" d="M764.14,-358.44C691.93,-348.77 574.52,-333.04 498.53,-322.85"/>
<polygon fill="midnightblue" stroke="midnightblue" points="498.93,-319.38 488.56,-321.52 498,-326.31 498.93,-319.38"/>
</g>
<!-- Node33 -->
<g id="node33" class="node">
<title>Node33</title>
<g id="a_node33"><a xlink:title=" ">
<polygon fill="white" stroke="#bfbfbf" points="792,-302.5 792,-321.5 854,-321.5 854,-302.5 792,-302.5"/>
<text text-anchor="middle" x="823" y="-309.5" font-family="Helvetica,sans-Serif" font-size="10.00">G4Orb.hh</text>
</a>
</g>
</g>
<!-- Node3&#45;&gt;Node33 -->
<g id="edge39" class="edge">
<title>Node3&#45;&gt;Node33</title>
<path fill="none" stroke="midnightblue" d="M827.17,-358.08C826.52,-351.01 825.58,-340.86 824.76,-331.99"/>
<polygon fill="midnightblue" stroke="midnightblue" points="828.22,-331.39 823.81,-321.75 821.25,-332.03 828.22,-331.39"/>
</g>
<!-- Node34 -->
<g id="node34" class="node">
<title>Node34</title>
<g id="a_node34"><a xlink:title=" ">
<polygon fill="white" stroke="#bfbfbf" points="872,-302.5 872,-321.5 1050,-321.5 1050,-302.5 872,-302.5"/>
<text text-anchor="middle" x="961" y="-309.5" font-family="Helvetica,sans-Serif" font-size="10.00">G4VUserDetectorConstruction.hh</text>
</a>
</g>
</g>
<!-- Node3&#45;&gt;Node34 -->
<g id="edge40" class="edge">
<title>Node3&#45;&gt;Node34</title>
<path fill="none" stroke="midnightblue" d="M849.07,-358.44C871.06,-349.52 905.73,-335.44 930.66,-325.32"/>
<polygon fill="midnightblue" stroke="midnightblue" points="932.08,-328.52 940.02,-321.52 929.44,-322.04 932.08,-328.52"/>
</g>
<!-- Node5 -->
<g id="node5" class="node">
<title>Node5</title>
<g id="a_node5"><a xlink:href="abc_detector_component_8hh.html" target="_top" xlink:title="Provides helper base class abcDetectorComponent for constructing and managing detector components in ...">
<polygon fill="white" stroke="black" points="288.5,-190.5 288.5,-209.5 435.5,-209.5 435.5,-190.5 288.5,-190.5"/>
<text text-anchor="middle" x="362" y="-197.5" font-family="Helvetica,sans-Serif" font-size="10.00">abcDetectorComponent.hh</text>
</a>
</g>
</g>
<!-- Node4&#45;&gt;Node5 -->
<g id="edge4" class="edge">
<title>Node4&#45;&gt;Node5</title>
<path fill="none" stroke="midnightblue" d="M424.42,-302.44C423.21,-289.44 419.59,-264.31 409,-246 402.26,-234.35 391.62,-223.8 382.17,-215.85"/>
<polygon fill="midnightblue" stroke="midnightblue" points="384.29,-213.07 374.29,-209.57 379.93,-218.54 384.29,-213.07"/>
</g>
<!-- Node4&#45;&gt;Node19 -->
<g id="edge18" class="edge">
<title>Node4&#45;&gt;Node19</title>
<path fill="none" stroke="midnightblue" d="M493.89,-302.89C496.97,-302.58 500.01,-302.28 503,-302 698.1,-283.58 928.81,-268.4 1043.22,-261.31"/>
<polygon fill="midnightblue" stroke="midnightblue" points="1043.49,-264.8 1053.25,-260.69 1043.06,-257.81 1043.49,-264.8"/>
</g>
<!-- Node30 -->
<g id="node30" class="node">
<title>Node30</title>
<g id="a_node30"><a xlink:href="_o_m_sim_p_m_t_construction_8hh.html" target="_top" xlink:title="Construction of the PMTs.">
<polygon fill="white" stroke="black" points="233.5,-246.5 233.5,-265.5 382.5,-265.5 382.5,-246.5 233.5,-246.5"/>
<text text-anchor="middle" x="308" y="-253.5" font-family="Helvetica,sans-Serif" font-size="10.00">OMSimPMTConstruction.hh</text>
</a>
</g>
</g>
<!-- Node4&#45;&gt;Node30 -->
<g id="edge33" class="edge">
<title>Node4&#45;&gt;Node30</title>
<path fill="none" stroke="midnightblue" d="M406.46,-302.44C387.38,-293.64 357.43,-279.81 335.56,-269.72"/>
<polygon fill="midnightblue" stroke="midnightblue" points="337,-266.53 326.45,-265.52 334.07,-272.88 337,-266.53"/>
</g>
<!-- Node6 -->
<g id="node6" class="node">
<title>Node6</title>
<g id="a_node6"><a xlink:href="_o_m_sim_input_data_8hh.html" target="_top" xlink:title="Definition of ParameterTable and InputDataManager.">
<polygon fill="white" stroke="black" points="569.5,-134.5 569.5,-153.5 684.5,-153.5 684.5,-134.5 569.5,-134.5"/>
<text text-anchor="middle" x="627" y="-141.5" font-family="Helvetica,sans-Serif" font-size="10.00">OMSimInputData.hh</text>
</a>
</g>
</g>
<!-- Node5&#45;&gt;Node6 -->
<g id="edge5" class="edge">
<title>Node5&#45;&gt;Node6</title>
<path fill="none" stroke="midnightblue" d="M403.99,-190.44C450.41,-180.98 525.23,-165.74 575.24,-155.55"/>
<polygon fill="midnightblue" stroke="midnightblue" points="576.11,-158.94 585.21,-153.52 574.71,-152.08 576.11,-158.94"/>
</g>
<!-- Node15 -->
<g id="node15" class="node">
<title>Node15</title>
<g id="a_node15"><a xlink:title=" ">
<polygon fill="white" stroke="#bfbfbf" points="437.5,-134.5 437.5,-153.5 544.5,-153.5 544.5,-134.5 437.5,-134.5"/>
<text text-anchor="middle" x="491" y="-141.5" font-family="Helvetica,sans-Serif" font-size="10.00">G4Transform3D.hh</text>
</a>
</g>
</g>
<!-- Node5&#45;&gt;Node15 -->
<g id="edge14" class="edge">
<title>Node5&#45;&gt;Node15</title>
<path fill="none" stroke="midnightblue" d="M382.44,-190.44C403.67,-181.56 437.1,-167.56 461.25,-157.45"/>
<polygon fill="midnightblue" stroke="midnightblue" points="462.78,-160.61 470.66,-153.52 460.08,-154.15 462.78,-160.61"/>
</g>
<!-- Node16 -->
<g id="node16" class="node">
<title>Node16</title>
<g id="a_node16"><a xlink:title=" ">
<polygon fill="white" stroke="#bfbfbf" points="39,-134.5 39,-153.5 147,-153.5 147,-134.5 39,-134.5"/>
<text text-anchor="middle" x="93" y="-141.5" font-family="Helvetica,sans-Serif" font-size="10.00">G4VisAttributes.hh</text>
</a>
</g>
</g>
<!-- Node5&#45;&gt;Node16 -->
<g id="edge15" class="edge">
<title>Node5&#45;&gt;Node16</title>
<path fill="none" stroke="midnightblue" d="M319.38,-190.44C272.25,-180.98 196.31,-165.74 145.54,-155.55"/>
<polygon fill="midnightblue" stroke="midnightblue" points="145.92,-152.05 135.42,-153.52 144.54,-158.92 145.92,-152.05"/>
</g>
<!-- Node17 -->
<g id="node17" class="node">
<title>Node17</title>
<g id="a_node17"><a xlink:title=" ">
<polygon fill="white" stroke="#bfbfbf" points="165.5,-134.5 165.5,-153.5 290.5,-153.5 290.5,-134.5 165.5,-134.5"/>
<text text-anchor="middle" x="228" y="-141.5" font-family="Helvetica,sans-Serif" font-size="10.00">G4SubtractionSolid.hh</text>
</a>
</g>
</g>
<!-- Node5&#45;&gt;Node17 -->
<g id="edge16" class="edge">
<title>Node5&#45;&gt;Node17</title>
<path fill="none" stroke="midnightblue" d="M340.77,-190.44C318.62,-181.52 283.68,-167.44 258.56,-157.32"/>
<polygon fill="midnightblue" stroke="midnightblue" points="259.72,-154.01 249.13,-153.52 257.1,-160.5 259.72,-154.01"/>
</g>
<!-- Node18 -->
<g id="node18" class="node">
<title>Node18</title>
<g id="a_node18"><a xlink:title=" ">
<polygon fill="white" stroke="#bfbfbf" points="309,-134.5 309,-153.5 419,-153.5 419,-134.5 309,-134.5"/>
<text text-anchor="middle" x="364" y="-141.5" font-family="Helvetica,sans-Serif" font-size="10.00">G4PVPlacement.hh</text>
</a>
</g>
</g>
<!-- Node5&#45;&gt;Node18 -->
<g id="edge17" class="edge">
<title>Node5&#45;&gt;Node18</title>
<path fill="none" stroke="midnightblue" d="M362.33,-190.08C362.59,-183.01 362.97,-172.86 363.3,-163.99"/>
<polygon fill="midnightblue" stroke="midnightblue" points="366.8,-163.87 363.68,-153.75 359.81,-163.61 366.8,-163.87"/>
</g>
<!-- Node7 -->
<g id="node7" class="node">
<title>Node7</title>
<g id="a_node7"><a xlink:href="_o_m_sim_logger_8hh.html" target="_top" xlink:title=" ">
<polygon fill="white" stroke="black" points="1014.5,-73 1014.5,-92 1113.5,-92 1113.5,-73 1014.5,-73"/>
<text text-anchor="middle" x="1064" y="-80" font-family="Helvetica,sans-Serif" font-size="10.00">OMSimLogger.hh</text>
</a>
</g>
</g>
<!-- Node6&#45;&gt;Node7 -->
<g id="edge6" class="edge">
<title>Node6&#45;&gt;Node7</title>
<path fill="none" stroke="midnightblue" d="M684.58,-135.08C687.43,-134.71 690.25,-134.35 693,-134 831.49,-116.57 867.62,-122.71 1005,-98 1010.58,-97 1016.42,-95.78 1022.16,-94.47"/>
<polygon fill="midnightblue" stroke="midnightblue" points="1023.39,-97.78 1032.31,-92.07 1021.78,-90.97 1023.39,-97.78"/>
</g>
<!-- Node12 -->
<g id="node12" class="node">
<title>Node12</title>
<g id="a_node12"><a xlink:title=" ">
<polygon fill="white" stroke="#bfbfbf" points="625.5,-73 625.5,-92 768.5,-92 768.5,-73 625.5,-73"/>
<text text-anchor="middle" x="697" y="-80" font-family="Helvetica,sans-Serif" font-size="10.00">G4OpBoundaryProcess.hh</text>
</a>
</g>
</g>
<!-- Node6&#45;&gt;Node12 -->
<g id="edge11" class="edge">
<title>Node6&#45;&gt;Node12</title>
<path fill="none" stroke="midnightblue" d="M637.03,-134.48C648.05,-125.11 665.96,-109.88 679.34,-98.51"/>
<polygon fill="midnightblue" stroke="midnightblue" points="681.64,-101.15 686.99,-92.01 677.1,-95.82 681.64,-101.15"/>
</g>
<!-- Node13 -->
<g id="node13" class="node">
<title>Node13</title>
<g id="a_node13"><a xlink:title=" ">
<polygon fill="white" stroke="#bfbfbf" points="786.5,-73 786.5,-92 905.5,-92 905.5,-73 786.5,-73"/>
<text text-anchor="middle" x="846" y="-80" font-family="Helvetica,sans-Serif" font-size="10.00">G4SystemOfUnits.hh</text>
</a>
</g>
</g>
<!-- Node6&#45;&gt;Node13 -->
<g id="edge12" class="edge">
<title>Node6&#45;&gt;Node13</title>
<path fill="none" stroke="midnightblue" d="M658.38,-134.48C696.92,-124 762.41,-106.21 804.92,-94.66"/>
<polygon fill="midnightblue" stroke="midnightblue" points="805.95,-98.01 814.68,-92.01 804.11,-91.25 805.95,-98.01"/>
</g>
<!-- Node14 -->
<g id="node14" class="node">
<title>Node14</title>
<g id="a_node14"><a xlink:title=" ">
<polygon fill="white" stroke="#bfbfbf" points="494.5,-67.5 494.5,-97.5 607.5,-97.5 607.5,-67.5 494.5,-67.5"/>
<text text-anchor="start" x="502.5" y="-85.5" font-family="Helvetica,sans-Serif" font-size="10.00">boost/property_tree</text>
<text text-anchor="middle" x="551" y="-74.5" font-family="Helvetica,sans-Serif" font-size="10.00">/json_parser.hpp</text>
</a>
</g>
</g>
<!-- Node6&#45;&gt;Node14 -->
<g id="edge13" class="edge">
<title>Node6&#45;&gt;Node14</title>
<path fill="none" stroke="midnightblue" d="M616.11,-134.48C605.91,-126.49 590.28,-114.25 576.89,-103.77"/>
<polygon fill="midnightblue" stroke="midnightblue" points="578.94,-100.93 568.91,-97.52 574.63,-106.44 578.94,-100.93"/>
</g>
<!-- Node8 -->
<g id="node8" class="node">
<title>Node8</title>
<g id="a_node8"><a xlink:title=" ">
<polygon fill="white" stroke="#bfbfbf" points="845.5,-6 845.5,-25 938.5,-25 938.5,-6 845.5,-6"/>
<text text-anchor="middle" x="892" y="-13" font-family="Helvetica,sans-Serif" font-size="10.00">spdlog/spdlog.h</text>
</a>
</g>
</g>
<!-- Node7&#45;&gt;Node8 -->
<g id="edge7" class="edge">
<title>Node7&#45;&gt;Node8</title>
<path fill="none" stroke="midnightblue" d="M1041.16,-72.87C1011.13,-61.52 958.22,-41.52 924.16,-28.65"/>
<polygon fill="midnightblue" stroke="midnightblue" points="925.25,-25.32 914.66,-25.06 922.78,-31.87 925.25,-25.32"/>
</g>
<!-- Node9 -->
<g id="node9" class="node">
<title>Node9</title>
<g id="a_node9"><a xlink:title=" ">
<polygon fill="white" stroke="#bfbfbf" points="956.5,-0.5 956.5,-30.5 1067.5,-30.5 1067.5,-0.5 956.5,-0.5"/>
<text text-anchor="start" x="964.5" y="-18.5" font-family="Helvetica,sans-Serif" font-size="10.00">spdlog/sinks/stdout</text>
<text text-anchor="middle" x="1012" y="-7.5" font-family="Helvetica,sans-Serif" font-size="10.00">_color_sinks.h</text>
</a>
</g>
</g>
<!-- Node7&#45;&gt;Node9 -->
<g id="edge8" class="edge">
<title>Node7&#45;&gt;Node9</title>
<path fill="none" stroke="midnightblue" d="M1056.99,-72.73C1050.03,-64.03 1039.08,-50.34 1029.72,-38.65"/>
<polygon fill="midnightblue" stroke="midnightblue" points="1032.25,-36.21 1023.27,-30.59 1026.79,-40.58 1032.25,-36.21"/>
</g>
<!-- Node10 -->
<g id="node10" class="node">
<title>Node10</title>
<g id="a_node10"><a xlink:title=" ">
<polygon fill="white" stroke="#bfbfbf" points="1086,-6 1086,-25 1144,-25 1144,-6 1086,-6"/>
<text text-anchor="middle" x="1115" y="-13" font-family="Helvetica,sans-Serif" font-size="10.00">memory</text>
</a>
</g>
</g>
<!-- Node7&#45;&gt;Node10 -->
<g id="edge9" class="edge">
<title>Node7&#45;&gt;Node10</title>
<path fill="none" stroke="midnightblue" d="M1070.88,-72.73C1078.83,-62.6 1092.1,-45.69 1102.01,-33.06"/>
<polygon fill="midnightblue" stroke="midnightblue" points="1104.81,-35.16 1108.23,-25.13 1099.3,-30.83 1104.81,-35.16"/>
</g>
<!-- Node11 -->
<g id="node11" class="node">
<title>Node11</title>
<g id="a_node11"><a xlink:title=" ">
<polygon fill="white" stroke="#bfbfbf" points="1162,-6 1162,-25 1260,-25 1260,-6 1162,-6"/>
<text text-anchor="middle" x="1211" y="-13" font-family="Helvetica,sans-Serif" font-size="10.00">spdlog/fmt/fmt.h</text>
</a>
</g>
</g>
<!-- Node7&#45;&gt;Node11 -->
<g id="edge10" class="edge">
<title>Node7&#45;&gt;Node11</title>
<path fill="none" stroke="midnightblue" d="M1083.52,-72.87C1108.78,-61.7 1153,-42.15 1182.14,-29.26"/>
<polygon fill="midnightblue" stroke="midnightblue" points="1183.67,-32.41 1191.4,-25.17 1180.84,-26.01 1183.67,-32.41"/>
</g>
<!-- Node20 -->
<g id="node20" class="node">
<title>Node20</title>
<g id="a_node20"><a xlink:href="_o_m_sim_p_m_t_response_8hh.html" target="_top" xlink:title="Provides simulation for PMT response. This class is responsible for transforming hits on photocathode...">
<polygon fill="white" stroke="black" points="1083.5,-134.5 1083.5,-153.5 1218.5,-153.5 1218.5,-134.5 1083.5,-134.5"/>
<text text-anchor="middle" x="1151" y="-141.5" font-family="Helvetica,sans-Serif" font-size="10.00">OMSimPMTResponse.hh</text>
</a>
</g>
</g>
<!-- Node19&#45;&gt;Node20 -->
<g id="edge19" class="edge">
<title>Node19&#45;&gt;Node20</title>
<path fill="none" stroke="midnightblue" d="M1117.04,-246.5C1120.1,-233.99 1126.26,-209.97 1133,-190 1136.06,-180.92 1139.96,-171.01 1143.35,-162.81"/>
<polygon fill="midnightblue" stroke="midnightblue" points="1146.61,-164.1 1147.26,-153.52 1140.16,-161.38 1146.61,-164.1"/>
</g>
<!-- Node25 -->
<g id="node25" class="node">
<title>Node25</title>
<g id="a_node25"><a xlink:href="_o_m_sim_sensitive_detector_8hh.html" target="_top" xlink:title=" ">
<polygon fill="white" stroke="black" points="854.5,-190.5 854.5,-209.5 1007.5,-209.5 1007.5,-190.5 854.5,-190.5"/>
<text text-anchor="middle" x="931" y="-197.5" font-family="Helvetica,sans-Serif" font-size="10.00">OMSimSensitiveDetector.hh</text>
</a>
</g>
</g>
<!-- Node19&#45;&gt;Node25 -->
<g id="edge25" class="edge">
<title>Node19&#45;&gt;Node25</title>
<path fill="none" stroke="midnightblue" d="M1085.84,-246.44C1054.49,-237.24 1004.47,-222.56 969.8,-212.39"/>
<polygon fill="midnightblue" stroke="midnightblue" points="970.6,-208.97 960.02,-209.52 968.63,-215.69 970.6,-208.97"/>
</g>
<!-- Node27 -->
<g id="node27" class="node">
<title>Node27</title>
<g id="a_node27"><a xlink:title=" ">
<polygon fill="white" stroke="#bfbfbf" points="702.5,-134.5 702.5,-153.5 805.5,-153.5 805.5,-134.5 702.5,-134.5"/>
<text text-anchor="middle" x="754" y="-141.5" font-family="Helvetica,sans-Serif" font-size="10.00">G4ThreeVector.hh</text>
</a>
</g>
</g>
<!-- Node19&#45;&gt;Node27 -->
<g id="edge31" class="edge">
<title>Node19&#45;&gt;Node27</title>
<path fill="none" stroke="midnightblue" d="M1055.2,-246.5C981.63,-235.81 864.07,-217.9 845,-210 816.33,-198.12 787.98,-175.74 770.74,-160.6"/>
<polygon fill="midnightblue" stroke="midnightblue" points="772.98,-157.91 763.21,-153.82 768.3,-163.11 772.98,-157.91"/>
</g>
<!-- Node29 -->
<g id="node29" class="node">
<title>Node29</title>
<g id="a_node29"><a xlink:title=" ">
<polygon fill="white" stroke="#bfbfbf" points="1142.5,-190.5 1142.5,-209.5 1197.5,-209.5 1197.5,-190.5 1142.5,-190.5"/>
<text text-anchor="middle" x="1170" y="-197.5" font-family="Helvetica,sans-Serif" font-size="10.00">fstream</text>
</a>
</g>
</g>
<!-- Node19&#45;&gt;Node29 -->
<g id="edge32" class="edge">
<title>Node19&#45;&gt;Node29</title>
<path fill="none" stroke="midnightblue" d="M1124.08,-246.08C1132.17,-238.14 1144.2,-226.34 1153.91,-216.8"/>
<polygon fill="midnightblue" stroke="midnightblue" points="1156.4,-219.25 1161.09,-209.75 1151.5,-214.26 1156.4,-219.25"/>
</g>
<!-- Node20&#45;&gt;Node13 -->
<g id="edge20" class="edge">
<title>Node20&#45;&gt;Node13</title>
<path fill="none" stroke="midnightblue" d="M1104.17,-134.43C1056.32,-125.6 979.89,-111.28 914,-98 907.87,-96.76 901.43,-95.43 895.06,-94.1"/>
<polygon fill="midnightblue" stroke="midnightblue" points="895.67,-90.65 885.16,-92.01 894.22,-97.5 895.67,-90.65"/>
</g>
<!-- Node21 -->
<g id="node21" class="node">
<title>Node21</title>
<g id="a_node21"><a xlink:title=" ">
<polygon fill="white" stroke="#bfbfbf" points="923.5,-73 923.5,-92 996.5,-92 996.5,-73 923.5,-73"/>
<text text-anchor="middle" x="960" y="-80" font-family="Helvetica,sans-Serif" font-size="10.00">G4Types.hh</text>
</a>
</g>
</g>
<!-- Node20&#45;&gt;Node21 -->
<g id="edge21" class="edge">
<title>Node20&#45;&gt;Node21</title>
<path fill="none" stroke="midnightblue" d="M1122.98,-134.48C1093.56,-125.51 1045.98,-110.92 1005,-98 1002.21,-97.12 999.33,-96.21 996.43,-95.28"/>
<polygon fill="midnightblue" stroke="midnightblue" points="997.22,-91.86 986.63,-92.14 995.09,-98.53 997.22,-91.86"/>
</g>
<!-- Node22 -->
<g id="node22" class="node">
<title>Node22</title>
<g id="a_node22"><a xlink:title=" ">
<polygon fill="white" stroke="#bfbfbf" points="1132,-73 1132,-92 1170,-92 1170,-73 1132,-73"/>
<text text-anchor="middle" x="1151" y="-80" font-family="Helvetica,sans-Serif" font-size="10.00">map</text>
</a>
</g>
</g>
<!-- Node20&#45;&gt;Node22 -->
<g id="edge22" class="edge">
<title>Node20&#45;&gt;Node22</title>
<path fill="none" stroke="midnightblue" d="M1151,-134.48C1151,-126.08 1151,-112.98 1151,-102.16"/>
<polygon fill="midnightblue" stroke="midnightblue" points="1154.5,-102.01 1151,-92.01 1147.5,-102.01 1154.5,-102.01"/>
</g>
<!-- Node23 -->
<g id="node23" class="node">
<title>Node23</title>
<g id="a_node23"><a xlink:title=" ">
<polygon fill="white" stroke="#bfbfbf" points="1188.5,-73 1188.5,-92 1249.5,-92 1249.5,-73 1188.5,-73"/>
<text text-anchor="middle" x="1219" y="-80" font-family="Helvetica,sans-Serif" font-size="10.00">TGraph.h</text>
</a>
</g>
</g>
<!-- Node20&#45;&gt;Node23 -->
<g id="edge23" class="edge">
<title>Node20&#45;&gt;Node23</title>
<path fill="none" stroke="midnightblue" d="M1160.74,-134.48C1171.35,-125.2 1188.52,-110.17 1201.48,-98.83"/>
<polygon fill="midnightblue" stroke="midnightblue" points="1204.05,-101.23 1209.28,-92.01 1199.44,-95.96 1204.05,-101.23"/>
</g>
<!-- Node24 -->
<g id="node24" class="node">
<title>Node24</title>
<g id="a_node24"><a xlink:title=" ">
<polygon fill="white" stroke="#bfbfbf" points="1267.5,-73 1267.5,-92 1320.5,-92 1320.5,-73 1267.5,-73"/>
<text text-anchor="middle" x="1294" y="-80" font-family="Helvetica,sans-Serif" font-size="10.00">TH2D.h</text>
</a>
</g>
</g>
<!-- Node20&#45;&gt;Node24 -->
<g id="edge24" class="edge">
<title>Node20&#45;&gt;Node24</title>
<path fill="none" stroke="midnightblue" d="M1171.49,-134.48C1195.81,-124.36 1236.55,-107.4 1264.32,-95.85"/>
<polygon fill="midnightblue" stroke="midnightblue" points="1265.66,-99.08 1273.55,-92.01 1262.97,-92.62 1265.66,-99.08"/>
</g>
<!-- Node25&#45;&gt;Node12 -->
<g id="edge29" class="edge">
<title>Node25&#45;&gt;Node12</title>
<path fill="none" stroke="midnightblue" d="M916.47,-190.31C894.6,-177.37 851.74,-152.57 814,-134 785.51,-119.98 752.2,-105.81 728.42,-96.07"/>
<polygon fill="midnightblue" stroke="midnightblue" points="729.44,-92.7 718.86,-92.17 726.8,-99.18 729.44,-92.7"/>
</g>
<!-- Node25&#45;&gt;Node20 -->
<g id="edge28" class="edge">
<title>Node25&#45;&gt;Node20</title>
<path fill="none" stroke="midnightblue" d="M965.86,-190.44C1003.92,-181.1 1064.96,-166.12 1106.46,-155.93"/>
<polygon fill="midnightblue" stroke="midnightblue" points="1107.43,-159.3 1116.3,-153.52 1105.76,-152.5 1107.43,-159.3"/>
</g>
<!-- Node26 -->
<g id="node26" class="node">
<title>Node26</title>
<g id="a_node26"><a xlink:title=" ">
<polygon fill="white" stroke="#bfbfbf" points="862,-134.5 862,-153.5 1000,-153.5 1000,-134.5 862,-134.5"/>
<text text-anchor="middle" x="931" y="-141.5" font-family="Helvetica,sans-Serif" font-size="10.00">G4VSensitiveDetector.hh</text>
</a>
</g>
</g>
<!-- Node25&#45;&gt;Node26 -->
<g id="edge26" class="edge">
<title>Node25&#45;&gt;Node26</title>
<path fill="none" stroke="midnightblue" d="M931,-190.08C931,-183.01 931,-172.86 931,-163.99"/>
<polygon fill="midnightblue" stroke="midnightblue" points="934.5,-163.75 931,-153.75 927.5,-163.75 934.5,-163.75"/>
</g>
<!-- Node25&#45;&gt;Node27 -->
<g id="edge27" class="edge">
<title>Node25&#45;&gt;Node27</title>
<path fill="none" stroke="midnightblue" d="M902.95,-190.44C872.92,-181.28 825.09,-166.69 791.76,-156.52"/>
<polygon fill="midnightblue" stroke="midnightblue" points="792.5,-153.09 781.91,-153.52 790.46,-159.78 792.5,-153.09"/>
</g>
<!-- Node28 -->
<g id="node28" class="node">
<title>Node28</title>
<g id="a_node28"><a xlink:title=" ">
<polygon fill="white" stroke="#bfbfbf" points="1018.5,-134.5 1018.5,-153.5 1065.5,-153.5 1065.5,-134.5 1018.5,-134.5"/>
<text text-anchor="middle" x="1042" y="-141.5" font-family="Helvetica,sans-Serif" font-size="10.00">vector</text>
</a>
</g>
</g>
<!-- Node25&#45;&gt;Node28 -->
<g id="edge30" class="edge">
<title>Node25&#45;&gt;Node28</title>
<path fill="none" stroke="midnightblue" d="M948.83,-190.32C966.72,-181.62 994.48,-168.12 1015.05,-158.11"/>
<polygon fill="midnightblue" stroke="midnightblue" points="1016.75,-161.18 1024.21,-153.65 1013.69,-154.88 1016.75,-161.18"/>
</g>
<!-- Node30&#45;&gt;Node5 -->
<g id="edge34" class="edge">
<title>Node30&#45;&gt;Node5</title>
<path fill="none" stroke="midnightblue" d="M316.92,-246.08C324.78,-238.22 336.43,-226.57 345.92,-217.08"/>
<polygon fill="midnightblue" stroke="midnightblue" points="348.65,-219.3 353.25,-209.75 343.7,-214.35 348.65,-219.3"/>
</g>
<!-- Node30&#45;&gt;Node20 -->
<g id="edge36" class="edge">
<title>Node30&#45;&gt;Node20</title>
<path fill="none" stroke="midnightblue" d="M382.69,-253.87C539.47,-250.9 898.12,-240.87 1016,-210 1058.13,-198.97 1102.9,-174.56 1128.84,-158.99"/>
<polygon fill="midnightblue" stroke="midnightblue" points="1130.79,-161.9 1137.5,-153.7 1127.14,-155.93 1130.79,-161.9"/>
</g>
<!-- Node30&#45;&gt;Node30 -->
<g id="edge35" class="edge">
<title>Node30&#45;&gt;Node30</title>
<path fill="none" stroke="midnightblue" d="M347.45,-265.53C374.26,-268.31 400.5,-265.13 400.5,-256 400.5,-248.01 380.41,-244.58 357.43,-245.71"/>
<polygon fill="midnightblue" stroke="midnightblue" points="357.15,-242.22 347.45,-246.47 357.69,-249.2 357.15,-242.22"/>
</g>
<!-- Node31 -->
<g id="node31" class="node">
<title>Node31</title>
<g id="a_node31"><a xlink:title=" ">
<polygon fill="white" stroke="#bfbfbf" points="122,-190.5 122,-209.5 220,-209.5 220,-190.5 122,-190.5"/>
<text text-anchor="middle" x="171" y="-197.5" font-family="Helvetica,sans-Serif" font-size="10.00">G4UnionSolid.hh</text>
</a>
</g>
</g>
<!-- Node30&#45;&gt;Node31 -->
<g id="edge37" class="edge">
<title>Node30&#45;&gt;Node31</title>
<path fill="none" stroke="midnightblue" d="M286.29,-246.44C263.65,-237.52 227.93,-223.44 202.25,-213.32"/>
<polygon fill="midnightblue" stroke="midnightblue" points="203.19,-209.93 192.61,-209.52 200.63,-216.44 203.19,-209.93"/>
</g>
<!-- Node30&#45;&gt;Node32 -->
<g id="edge38" class="edge">
<title>Node30&#45;&gt;Node32</title>
<path fill="none" stroke="midnightblue" d="M353.32,-246.44C407.33,-236.25 496.95,-219.32 550.25,-209.26"/>
<polygon fill="midnightblue" stroke="midnightblue" points="550.91,-212.7 560.09,-207.4 549.61,-205.82 550.91,-212.7"/>
</g>
<!-- Node35&#45;&gt;Node4 -->
<g id="edge47" class="edge">
<title>Node35&#45;&gt;Node4</title>
<path fill="none" stroke="midnightblue" d="M242.38,-358.44C279.92,-349.1 340.13,-334.12 381.07,-323.93"/>
<polygon fill="midnightblue" stroke="midnightblue" points="381.92,-327.33 390.78,-321.52 380.23,-320.53 381.92,-327.33"/>
</g>
<!-- Node35&#45;&gt;Node30 -->
<g id="edge46" class="edge">
<title>Node35&#45;&gt;Node30</title>
<path fill="none" stroke="midnightblue" d="M215.85,-358.37C232.57,-339.97 271.94,-296.67 293.41,-273.05"/>
<polygon fill="midnightblue" stroke="midnightblue" points="296.05,-275.35 300.19,-265.59 290.87,-270.64 296.05,-275.35"/>
</g>
<!-- Node36 -->
<g id="node36" class="node">
<title>Node36</title>
<g id="a_node36"><a xlink:href="_o_m_sim_m_d_o_m_flasher_8hh.html" target="_top" xlink:title="Defines the mDOMFlasher class for simulating the 10 flashers in an mDOM optical module.">
<polygon fill="white" stroke="black" points="50.5,-302.5 50.5,-321.5 185.5,-321.5 185.5,-302.5 50.5,-302.5"/>
<text text-anchor="middle" x="118" y="-309.5" font-family="Helvetica,sans-Serif" font-size="10.00">OMSimMDOMFlasher.hh</text>
</a>
</g>
</g>
<!-- Node35&#45;&gt;Node36 -->
<g id="edge42" class="edge">
<title>Node35&#45;&gt;Node36</title>
<path fill="none" stroke="midnightblue" d="M193.54,-358.32C179.5,-349.9 157.95,-336.97 141.46,-327.07"/>
<polygon fill="midnightblue" stroke="midnightblue" points="142.8,-323.8 132.42,-321.65 139.2,-329.8 142.8,-323.8"/>
</g>
<!-- Node36&#45;&gt;Node5 -->
<g id="edge43" class="edge">
<title>Node36&#45;&gt;Node5</title>
<path fill="none" stroke="midnightblue" d="M129.88,-302.42C148.96,-288.95 187.94,-262.65 224,-246 254.67,-231.84 291.05,-220.17 318.76,-212.27"/>
<polygon fill="midnightblue" stroke="midnightblue" points="319.86,-215.59 328.55,-209.53 317.98,-208.85 319.86,-215.59"/>
</g>
<!-- Node36&#45;&gt;Node31 -->
<g id="edge44" class="edge">
<title>Node36&#45;&gt;Node31</title>
<path fill="none" stroke="midnightblue" d="M122.16,-302.37C130.83,-284.38 150.98,-242.55 162.51,-218.63"/>
<polygon fill="midnightblue" stroke="midnightblue" points="165.67,-220.12 166.86,-209.59 159.37,-217.08 165.67,-220.12"/>
</g>
<!-- Node36&#45;&gt;Node37 -->
<g id="edge45" class="edge">
<title>Node36&#45;&gt;Node37</title>
<path fill="none" stroke="midnightblue" d="M106.43,-302.32C95.58,-294.18 79.12,-281.84 66.12,-272.09"/>
<polygon fill="midnightblue" stroke="midnightblue" points="67.88,-269.03 57.78,-265.83 63.68,-274.63 67.88,-269.03"/>
</g>
<!-- Node38&#45;&gt;Node4 -->
<g id="edge50" class="edge">
<title>Node38&#45;&gt;Node4</title>
<path fill="none" stroke="midnightblue" d="M636.23,-358.44C592.44,-349.02 521.99,-333.87 474.62,-323.68"/>
<polygon fill="midnightblue" stroke="midnightblue" points="475.1,-320.2 464.59,-321.52 473.63,-327.04 475.1,-320.2"/>
</g>
<!-- Node38&#45;&gt;Node30 -->
<g id="edge49" class="edge">
<title>Node38&#45;&gt;Node30</title>
<path fill="none" stroke="midnightblue" d="M696.96,-358.38C723.44,-346.32 763.36,-323.46 744,-302 720.97,-276.47 513.15,-264.56 392.93,-259.76"/>
<polygon fill="midnightblue" stroke="midnightblue" points="392.78,-256.25 382.65,-259.36 392.51,-263.25 392.78,-256.25"/>
</g>
<!-- Node39&#45;&gt;Node4 -->
<g id="edge53" class="edge">
<title>Node39&#45;&gt;Node4</title>
<path fill="none" stroke="midnightblue" d="M342.75,-358.32C358.32,-349.74 382.38,-336.49 400.46,-326.52"/>
<polygon fill="midnightblue" stroke="midnightblue" points="402.22,-329.55 409.29,-321.65 398.85,-323.42 402.22,-329.55"/>
</g>
<!-- Node39&#45;&gt;Node30 -->
<g id="edge52" class="edge">
<title>Node39&#45;&gt;Node30</title>
<path fill="none" stroke="midnightblue" d="M311.27,-358.24C299.11,-350.48 283.19,-337.93 276,-322 268.37,-305.1 280.14,-286.11 291.49,-273.04"/>
<polygon fill="midnightblue" stroke="midnightblue" points="294.05,-275.43 298.33,-265.74 288.94,-270.65 294.05,-275.43"/>
</g>
<!-- Node40&#45;&gt;Node4 -->
<g id="edge56" class="edge">
<title>Node40&#45;&gt;Node4</title>
<path fill="none" stroke="midnightblue" d="M537.77,-358.44C515.62,-349.52 480.68,-335.44 455.56,-325.32"/>
<polygon fill="midnightblue" stroke="midnightblue" points="456.72,-322.01 446.13,-321.52 454.1,-328.5 456.72,-322.01"/>
</g>
<!-- Node40&#45;&gt;Node30 -->
<g id="edge55" class="edge">
<title>Node40&#45;&gt;Node30</title>
<path fill="none" stroke="midnightblue" d="M508.48,-358.46C450.02,-348.23 360.07,-331.33 347,-322 330.97,-310.56 320.35,-290.28 314.3,-275.4"/>
<polygon fill="midnightblue" stroke="midnightblue" points="317.46,-273.88 310.68,-265.73 310.91,-276.33 317.46,-273.88"/>
</g>
<!-- Node41 -->
<g id="node41" class="node">
<title>Node41</title>
<g id="a_node41"><a xlink:title=" ">
<polygon fill="white" stroke="#bfbfbf" points="512,-302.5 512,-321.5 628,-321.5 628,-302.5 512,-302.5"/>
<text text-anchor="middle" x="570" y="-309.5" font-family="Helvetica,sans-Serif" font-size="10.00">G4LogicalVolume.hh</text>
</a>
</g>
</g>
<!-- Node40&#45;&gt;Node41 -->
<g id="edge57" class="edge">
<title>Node40&#45;&gt;Node41</title>
<path fill="none" stroke="midnightblue" d="M560.82,-358.08C562.27,-350.93 564.37,-340.64 566.19,-331.69"/>
<polygon fill="midnightblue" stroke="midnightblue" points="569.65,-332.25 568.22,-321.75 562.79,-330.85 569.65,-332.25"/>
</g>
<!-- Node42 -->
<g id="node42" class="node">
<title>Node42</title>
<g id="a_node42"><a xlink:title=" ">
<polygon fill="white" stroke="#bfbfbf" points="646.5,-302.5 646.5,-321.5 735.5,-321.5 735.5,-302.5 646.5,-302.5"/>
<text text-anchor="middle" x="691" y="-309.5" font-family="Helvetica,sans-Serif" font-size="10.00">G4Polycone.hh</text>
</a>
</g>
</g>
<!-- Node40&#45;&gt;Node42 -->
<g id="edge58" class="edge">
<title>Node40&#45;&gt;Node42</title>
<path fill="none" stroke="midnightblue" d="M579.92,-358.44C601.74,-349.52 636.15,-335.44 660.89,-325.32"/>
<polygon fill="midnightblue" stroke="midnightblue" points="662.25,-328.54 670.18,-321.52 659.6,-322.06 662.25,-328.54"/>
</g>
<!-- Node43&#45;&gt;Node4 -->
<g id="edge61" class="edge">
<title>Node43&#45;&gt;Node4</title>
<path fill="none" stroke="midnightblue" d="M440.03,-358.08C437.62,-350.85 434.14,-340.41 431.13,-331.4"/>
<polygon fill="midnightblue" stroke="midnightblue" points="434.4,-330.13 427.92,-321.75 427.76,-332.34 434.4,-330.13"/>
</g>
<!-- Node43&#45;&gt;Node30 -->
<g id="edge60" class="edge">
<title>Node43&#45;&gt;Node30</title>
<path fill="none" stroke="midnightblue" d="M404.54,-358.44C370.81,-350.1 325.4,-336.57 314,-322 303.87,-309.04 303.3,-289.87 304.7,-275.71"/>
<polygon fill="midnightblue" stroke="midnightblue" points="308.19,-276.02 306.11,-265.63 301.26,-275.05 308.19,-276.02"/>
</g>
<!-- Node44&#45;&gt;Node7 -->
<g id="edge65" class="edge">
<title>Node44&#45;&gt;Node7</title>
<path fill="none" stroke="midnightblue" d="M1287.01,-246.09C1299.9,-233.49 1319.45,-209.8 1309,-190 1288.39,-150.97 1266.74,-153.19 1227,-134 1205.43,-123.59 1146.1,-106.19 1105.3,-94.78"/>
<polygon fill="midnightblue" stroke="midnightblue" points="1106.19,-91.39 1095.62,-92.08 1104.31,-98.13 1106.19,-91.39"/>
</g>
<!-- Node44&#45;&gt;Node29 -->
<g id="edge66" class="edge">
<title>Node44&#45;&gt;Node29</title>
<path fill="none" stroke="midnightblue" d="M1259.81,-246.32C1242.65,-237.66 1216.05,-224.24 1196.25,-214.25"/>
<polygon fill="midnightblue" stroke="midnightblue" points="1197.65,-211.04 1187.15,-209.65 1194.5,-217.28 1197.65,-211.04"/>
</g>
<!-- Node45 -->
<g id="node45" class="node">
<title>Node45</title>
<g id="a_node45"><a xlink:title=" ">
<polygon fill="white" stroke="#bfbfbf" points="1216,-190.5 1216,-209.5 1300,-209.5 1300,-190.5 1216,-190.5"/>
<text text-anchor="middle" x="1258" y="-197.5" font-family="Helvetica,sans-Serif" font-size="10.00">boost/any.hpp</text>
</a>
</g>
</g>
<!-- Node44&#45;&gt;Node45 -->
<g id="edge67" class="edge">
<title>Node44&#45;&gt;Node45</title>
<path fill="none" stroke="midnightblue" d="M1273.86,-246.08C1271.32,-238.85 1267.64,-228.41 1264.47,-219.4"/>
<polygon fill="midnightblue" stroke="midnightblue" points="1267.7,-218.02 1261.08,-209.75 1261.1,-220.35 1267.7,-218.02"/>
</g>
<!-- Node46 -->
<g id="node46" class="node">
<title>Node46</title>
<g id="a_node46"><a xlink:title=" ">
<polygon fill="white" stroke="#bfbfbf" points="1356,-190.5 1356,-209.5 1424,-209.5 1424,-190.5 1356,-190.5"/>
<text text-anchor="middle" x="1390" y="-197.5" font-family="Helvetica,sans-Serif" font-size="10.00">sys/time.h</text>
</a>
</g>
</g>
<!-- Node44&#45;&gt;Node46 -->
<g id="edge68" class="edge">
<title>Node44&#45;&gt;Node46</title>
<path fill="none" stroke="midnightblue" d="M1294.91,-246.44C1313.25,-237.68 1342.01,-223.94 1363.09,-213.86"/>
<polygon fill="midnightblue" stroke="midnightblue" points="1364.67,-216.99 1372.18,-209.52 1361.65,-210.67 1364.67,-216.99"/>
</g>
</g>
</svg>
