<?xml version="1.0" encoding="UTF-8" standalone="no"?>
<!DOCTYPE svg PUBLIC "-//W3C//DTD SVG 1.1//EN"
 "http://www.w3.org/Graphics/SVG/1.1/DTD/svg11.dtd">
<!-- Generated by graphviz version 2.43.0 (0)
 -->
<!-- Title: OMSimInputData.hh Pages: 1 -->
<svg width="1883pt" height="357pt"
 viewBox="0.00 0.00 1882.50 357.00" xmlns="http://www.w3.org/2000/svg" xmlns:xlink="http://www.w3.org/1999/xlink">
<g id="graph0" class="graph" transform="scale(1 1) rotate(0) translate(4 353)">
<title>OMSimInputData.hh</title>
<!-- Node1 -->
<g id="Node000001" class="node">
<title>Node1</title>
<g id="a_Node000001"><a xlink:title="Definition of ParameterTable and OMSimInputData.">
<polygon fill="#999999" stroke="#666666" points="917,-349 802,-349 802,-330 917,-330 917,-349"/>
<text text-anchor="middle" x="859.5" y="-337" font-family="Helvetica,sans-Serif" font-size="10.00">OMSimInputData.hh</text>
</a>
</g>
</g>
<!-- Node2 -->
<g id="Node000002" class="node">
<title>Node2</title>
<g id="a_Node000002"><a xlink:href="_o_m_sim_detector_component_8hh.html" target="_top" xlink:title="Provides helper base class OMSimDetectorComponent for constructing and managing detector components i...">
<polygon fill="white" stroke="#666666" points="942,-294 777,-294 777,-275 942,-275 942,-294"/>
<text text-anchor="middle" x="859.5" y="-282" font-family="Helvetica,sans-Serif" font-size="10.00">OMSimDetectorComponent.hh</text>
</a>
</g>
</g>
<!-- Node1&#45;&gt;Node2 -->
<g id="edge1_Node000001_Node000002" class="edge">
<title>Node1&#45;&gt;Node2</title>
<g id="a_edge1_Node000001_Node000002"><a xlink:title=" ">
<path fill="none" stroke="#63b8ff" d="M859.5,-319.66C859.5,-310.93 859.5,-300.99 859.5,-294.09"/>
<polygon fill="#63b8ff" stroke="#63b8ff" points="856,-319.75 859.5,-329.75 863,-319.75 856,-319.75"/>
</a>
</g>
</g>
<!-- Node3 -->
<g id="Node000003" class="node">
<title>Node3</title>
<g id="a_Node000003"><a xlink:href="_o_m_sim_d_e_g_g_harness_8hh.html" target="_top" xlink:title="Construction of the DEGG harness.">
<polygon fill="white" stroke="#666666" points="135,-239 0,-239 0,-220 135,-220 135,-239"/>
<text text-anchor="middle" x="67.5" y="-227" font-family="Helvetica,sans-Serif" font-size="10.00">OMSimDEGGHarness.hh</text>
</a>
</g>
</g>
<!-- Node2&#45;&gt;Node3 -->
<g id="edge2_Node000002_Node000003" class="edge">
<title>Node2&#45;&gt;Node3</title>
<g id="a_edge2_Node000002_Node000003"><a xlink:title=" ">
<path fill="none" stroke="#63b8ff" d="M766.83,-279.15C630.4,-272.42 367.54,-258.24 144.5,-239 141.42,-238.73 138.27,-238.45 135.09,-238.15"/>
<polygon fill="#63b8ff" stroke="#63b8ff" points="766.67,-282.65 776.83,-279.64 767.02,-275.65 766.67,-282.65"/>
</a>
</g>
</g>
<!-- Node4 -->
<g id="Node000004" class="node">
<title>Node4</title>
<g id="a_Node000004"><a xlink:href="_o_m_sim_l_o_m16_harness_8hh.html" target="_top" xlink:title="Construction of the LOM16 harness.">
<polygon fill="white" stroke="#666666" points="293.5,-239 153.5,-239 153.5,-220 293.5,-220 293.5,-239"/>
<text text-anchor="middle" x="223.5" y="-227" font-family="Helvetica,sans-Serif" font-size="10.00">OMSimLOM16Harness.hh</text>
</a>
</g>
</g>
<!-- Node2&#45;&gt;Node4 -->
<g id="edge3_Node000002_Node000004" class="edge">
<title>Node2&#45;&gt;Node4</title>
<g id="a_edge3_Node000002_Node000004"><a xlink:title=" ">
<path fill="none" stroke="#63b8ff" d="M766.65,-276.6C656.91,-268.3 468.83,-253.66 307.5,-239 302.97,-238.59 298.31,-238.15 293.62,-237.7"/>
<polygon fill="#63b8ff" stroke="#63b8ff" points="766.46,-280.09 776.69,-277.35 766.98,-273.11 766.46,-280.09"/>
</a>
</g>
</g>
<!-- Node5 -->
<g id="Node000005" class="node">
<title>Node5</title>
<g id="a_Node000005"><a xlink:href="_o_m_sim_l_o_m18_harness_8hh.html" target="_top" xlink:title="Construction of the LOM18 harness.">
<polygon fill="white" stroke="#666666" points="1360.5,-184 1220.5,-184 1220.5,-165 1360.5,-165 1360.5,-184"/>
<text text-anchor="middle" x="1290.5" y="-172" font-family="Helvetica,sans-Serif" font-size="10.00">OMSimLOM18Harness.hh</text>
</a>
</g>
</g>
<!-- Node2&#45;&gt;Node5 -->
<g id="edge4_Node000002_Node000005" class="edge">
<title>Node2&#45;&gt;Node5</title>
<g id="a_edge4_Node000002_Node000005"><a xlink:title=" ">
<path fill="none" stroke="#63b8ff" d="M952.5,-280.26C1047.91,-275.58 1188.93,-264.49 1236.5,-239 1260.23,-226.29 1277.98,-198.53 1285.92,-184.3"/>
<polygon fill="#63b8ff" stroke="#63b8ff" points="952.08,-276.77 942.25,-280.74 952.41,-283.77 952.08,-276.77"/>
</a>
</g>
</g>
<!-- Node7 -->
<g id="Node000007" class="node">
<title>Node7</title>
<g id="a_Node000007"><a xlink:href="_o_m_sim_m_d_o_m_flasher_8hh.html" target="_top" xlink:title="Defines the mDOMFlasher class for simulating the 10 flashers in an mDOM optical module.">
<polygon fill="white" stroke="#666666" points="1181,-184 1046,-184 1046,-165 1181,-165 1181,-184"/>
<text text-anchor="middle" x="1113.5" y="-172" font-family="Helvetica,sans-Serif" font-size="10.00">OMSimMDOMFlasher.hh</text>
</a>
</g>
</g>
<!-- Node2&#45;&gt;Node7 -->
<g id="edge6_Node000002_Node000007" class="edge">
<title>Node2&#45;&gt;Node7</title>
<g id="a_edge6_Node000002_Node000007"><a xlink:title=" ">
<path fill="none" stroke="#63b8ff" d="M939.92,-273.03C973.33,-266.45 1011.65,-255.87 1043.5,-239 1070.18,-224.87 1094.67,-198.25 1106.33,-184.39"/>
<polygon fill="#63b8ff" stroke="#63b8ff" points="938.9,-269.66 929.72,-274.95 940.19,-276.54 938.9,-269.66"/>
</a>
</g>
</g>
<!-- Node10 -->
<g id="Node000010" class="node">
<title>Node10</title>
<g id="a_Node000010"><a xlink:href="_o_m_sim_m_d_o_m_harness_8hh.html" target="_top" xlink:title="Construction of mDOM harness.">
<polygon fill="white" stroke="#666666" points="848.5,-239 708.5,-239 708.5,-220 848.5,-220 848.5,-239"/>
<text text-anchor="middle" x="778.5" y="-227" font-family="Helvetica,sans-Serif" font-size="10.00">OMSimMDOMHarness.hh</text>
</a>
</g>
</g>
<!-- Node2&#45;&gt;Node10 -->
<g id="edge9_Node000002_Node000010" class="edge">
<title>Node2&#45;&gt;Node10</title>
<g id="a_edge9_Node000002_Node000010"><a xlink:title=" ">
<path fill="none" stroke="#63b8ff" d="M837.99,-269.42C823.29,-259.81 804.28,-247.37 791.75,-239.17"/>
<polygon fill="#63b8ff" stroke="#63b8ff" points="836.2,-272.44 846.49,-274.98 840.03,-266.58 836.2,-272.44"/>
</a>
</g>
</g>
<!-- Node11 -->
<g id="Node000011" class="node">
<title>Node11</title>
<g id="a_Node000011"><a xlink:href="_o_m_sim_optical_module_8hh_source.html" target="_top" xlink:title=" ">
<polygon fill="white" stroke="#666666" points="833,-184 696,-184 696,-165 833,-165 833,-184"/>
<text text-anchor="middle" x="764.5" y="-172" font-family="Helvetica,sans-Serif" font-size="10.00">OMSimOpticalModule.hh</text>
</a>
</g>
</g>
<!-- Node2&#45;&gt;Node11 -->
<g id="edge10_Node000002_Node000011" class="edge">
<title>Node2&#45;&gt;Node11</title>
<g id="a_edge10_Node000002_Node000011"><a xlink:title=" ">
<path fill="none" stroke="#63b8ff" d="M791.91,-273.07C753.61,-265.62 711.07,-254.23 699.5,-239 682.89,-217.14 718.89,-195.66 743.65,-184.14"/>
<polygon fill="#63b8ff" stroke="#63b8ff" points="791.58,-276.57 802.06,-274.97 792.87,-269.69 791.58,-276.57"/>
</a>
</g>
</g>
<!-- Node21 -->
<g id="Node000021" class="node">
<title>Node21</title>
<g id="a_Node000021"><a xlink:href="_o_m_sim_rad_decays_detector_8hh.html" target="_top" xlink:title="Defines the OMSimRadDecaysDetector class for the radioactive decays simulation.">
<polygon fill="white" stroke="#666666" points="182,-74 19,-74 19,-55 182,-55 182,-74"/>
<text text-anchor="middle" x="100.5" y="-62" font-family="Helvetica,sans-Serif" font-size="10.00">OMSimRadDecaysDetector.hh</text>
</a>
</g>
</g>
<!-- Node2&#45;&gt;Node21 -->
<g id="edge46_Node000002_Node000021" class="edge">
<title>Node2&#45;&gt;Node21</title>
<g id="a_edge46_Node000002_Node000021"><a xlink:title=" ">
<path fill="none" stroke="#63b8ff" d="M816.22,-272.37C782.24,-263.56 733.77,-250.8 691.5,-239 474.18,-178.33 213.61,-99.81 128.72,-74.07"/>
<polygon fill="#63b8ff" stroke="#63b8ff" points="815.72,-275.86 826.28,-274.98 817.47,-269.08 815.72,-275.86"/>
</a>
</g>
</g>
<!-- Node29 -->
<g id="Node000029" class="node">
<title>Node29</title>
<g id="a_Node000029"><a xlink:href="_o_m_sim_p_d_o_m_harness_8hh_source.html" target="_top" xlink:title=" ">
<polygon fill="white" stroke="#666666" points="1227,-239 1090,-239 1090,-220 1227,-220 1227,-239"/>
<text text-anchor="middle" x="1158.5" y="-227" font-family="Helvetica,sans-Serif" font-size="10.00">OMSimPDOMHarness.hh</text>
</a>
</g>
</g>
<!-- Node2&#45;&gt;Node29 -->
<g id="edge37_Node000002_Node000029" class="edge">
<title>Node2&#45;&gt;Node29</title>
<g id="a_edge37_Node000002_Node000029"><a xlink:title=" ">
<path fill="none" stroke="#63b8ff" d="M917.67,-273.19C973.73,-263.25 1057.56,-248.39 1110.08,-239.08"/>
<polygon fill="#63b8ff" stroke="#63b8ff" points="916.78,-269.79 907.54,-274.98 918,-276.69 916.78,-269.79"/>
</a>
</g>
</g>
<!-- Node30 -->
<g id="Node000030" class="node">
<title>Node30</title>
<g id="a_Node000030"><a xlink:href="_o_m_sim_p_m_t_construction_8hh.html" target="_top" xlink:title="Construction of the PMTs.">
<polygon fill="white" stroke="#666666" points="1016,-239 867,-239 867,-220 1016,-220 1016,-239"/>
<text text-anchor="middle" x="941.5" y="-227" font-family="Helvetica,sans-Serif" font-size="10.00">OMSimPMTConstruction.hh</text>
</a>
</g>
</g>
<!-- Node2&#45;&gt;Node30 -->
<g id="edge38_Node000002_Node000030" class="edge">
<title>Node2&#45;&gt;Node30</title>
<g id="a_edge38_Node000002_Node000030"><a xlink:title=" ">
<path fill="none" stroke="#63b8ff" d="M881.28,-269.42C896.16,-259.81 915.41,-247.37 928.09,-239.17"/>
<polygon fill="#63b8ff" stroke="#63b8ff" points="879.17,-266.62 872.67,-274.98 882.97,-272.5 879.17,-266.62"/>
</a>
</g>
</g>
<!-- Node31 -->
<g id="Node000031" class="node">
<title>Node31</title>
<g id="a_Node000031"><a xlink:href="_o_m_sim_tools_8hh.html" target="_top" xlink:title="Definition of Tools namespace, a collection of helper methods.">
<polygon fill="white" stroke="#666666" points="1539.5,-129 1447.5,-129 1447.5,-110 1539.5,-110 1539.5,-129"/>
<text text-anchor="middle" x="1493.5" y="-117" font-family="Helvetica,sans-Serif" font-size="10.00">OMSimTools.hh</text>
</a>
</g>
</g>
<!-- Node2&#45;&gt;Node31 -->
<g id="edge47_Node000002_Node000031" class="edge">
<title>Node2&#45;&gt;Node31</title>
<g id="a_edge47_Node000002_Node000031"><a xlink:title=" ">
<path fill="none" stroke="#63b8ff" d="M952.19,-282.64C1034.9,-279.68 1158.5,-269.81 1261.5,-239 1313.11,-223.56 1321.53,-208.5 1369.5,-184 1407.84,-164.42 1452.81,-141.37 1476.66,-129.14"/>
<polygon fill="#63b8ff" stroke="#63b8ff" points="951.94,-279.15 942.06,-282.98 952.17,-286.15 951.94,-279.15"/>
</a>
</g>
</g>
<!-- Node6 -->
<g id="Node000006" class="node">
<title>Node6</title>
<g id="a_Node000006"><a xlink:href="_o_m_sim_l_o_m18_8cc.html" target="_top" xlink:title=" ">
<polygon fill="white" stroke="#666666" points="1361,-74 1262,-74 1262,-55 1361,-55 1361,-74"/>
<text text-anchor="middle" x="1311.5" y="-62" font-family="Helvetica,sans-Serif" font-size="10.00">OMSimLOM18.cc</text>
</a>
</g>
</g>
<!-- Node5&#45;&gt;Node6 -->
<g id="edge5_Node000005_Node000006" class="edge">
<title>Node5&#45;&gt;Node6</title>
<g id="a_edge5_Node000005_Node000006"><a xlink:title=" ">
<path fill="none" stroke="#63b8ff" d="M1294.14,-154.8C1298.72,-131.2 1306.43,-91.58 1309.82,-74.16"/>
<polygon fill="#63b8ff" stroke="#63b8ff" points="1290.69,-154.18 1292.22,-164.66 1297.56,-155.51 1290.69,-154.18"/>
</a>
</g>
</g>
<!-- Node8 -->
<g id="Node000008" class="node">
<title>Node8</title>
<g id="a_Node000008"><a xlink:href="_o_m_sim_m_d_o_m_8hh.html" target="_top" xlink:title="Construction of mDOM.">
<polygon fill="white" stroke="#666666" points="1163.5,-129 1063.5,-129 1063.5,-110 1163.5,-110 1163.5,-129"/>
<text text-anchor="middle" x="1113.5" y="-117" font-family="Helvetica,sans-Serif" font-size="10.00">OMSimMDOM.hh</text>
</a>
</g>
</g>
<!-- Node7&#45;&gt;Node8 -->
<g id="edge7_Node000007_Node000008" class="edge">
<title>Node7&#45;&gt;Node8</title>
<g id="a_edge7_Node000007_Node000008"><a xlink:title=" ">
<path fill="none" stroke="#63b8ff" d="M1113.5,-154.66C1113.5,-145.93 1113.5,-135.99 1113.5,-129.09"/>
<polygon fill="#63b8ff" stroke="#63b8ff" points="1110,-154.75 1113.5,-164.75 1117,-154.75 1110,-154.75"/>
</a>
</g>
</g>
<!-- Node9 -->
<g id="Node000009" class="node">
<title>Node9</title>
<g id="a_Node000009"><a xlink:href="_o_m_sim_wave_p_i_d_detector_8cc.html" target="_top" xlink:title="Implementation of detector construction for WavePID study.">
<polygon fill="white" stroke="#666666" points="1016.5,-19 866.5,-19 866.5,0 1016.5,0 1016.5,-19"/>
<text text-anchor="middle" x="941.5" y="-7" font-family="Helvetica,sans-Serif" font-size="10.00">OMSimWavePIDDetector.cc</text>
</a>
</g>
</g>
<!-- Node8&#45;&gt;Node9 -->
<g id="edge8_Node000008_Node000009" class="edge">
<title>Node8&#45;&gt;Node9</title>
<g id="a_edge8_Node000008_Node000009"><a xlink:title=" ">
<path fill="none" stroke="#63b8ff" d="M1083.84,-105.65C1065.89,-97.44 1042.83,-86.09 1023.5,-74 996.02,-56.81 966.65,-32.4 951.63,-19.42"/>
<polygon fill="#63b8ff" stroke="#63b8ff" points="1082.67,-108.96 1093.22,-109.88 1085.54,-102.58 1082.67,-108.96"/>
</a>
</g>
</g>
<!-- Node11&#45;&gt;Node8 -->
<g id="edge33_Node000011_Node000008" class="edge">
<title>Node11&#45;&gt;Node8</title>
<g id="a_edge33_Node000011_Node000008"><a xlink:title=" ">
<path fill="none" stroke="#63b8ff" d="M830.7,-163.45C898.38,-153.17 1002,-137.43 1063.23,-128.13"/>
<polygon fill="#63b8ff" stroke="#63b8ff" points="829.93,-160.02 820.57,-164.98 830.99,-166.94 829.93,-160.02"/>
</a>
</g>
</g>
<!-- Node12 -->
<g id="Node000012" class="node">
<title>Node12</title>
<g id="a_Node000012"><a xlink:href="_o_m_sim_d_e_g_g_8hh.html" target="_top" xlink:title="Construction of the DEGG class.">
<polygon fill="white" stroke="#666666" points="926,-129 831,-129 831,-110 926,-110 926,-129"/>
<text text-anchor="middle" x="878.5" y="-117" font-family="Helvetica,sans-Serif" font-size="10.00">OMSimDEGG.hh</text>
</a>
</g>
</g>
<!-- Node11&#45;&gt;Node12 -->
<g id="edge11_Node000011_Node000012" class="edge">
<title>Node11&#45;&gt;Node12</title>
<g id="a_edge11_Node000011_Node000012"><a xlink:title=" ">
<path fill="none" stroke="#63b8ff" d="M791.89,-160.77C812.92,-150.99 841.39,-137.75 859.85,-129.17"/>
<polygon fill="#63b8ff" stroke="#63b8ff" points="790.41,-157.6 782.82,-164.98 793.36,-163.94 790.41,-157.6"/>
</a>
</g>
</g>
<!-- Node13 -->
<g id="Node000013" class="node">
<title>Node13</title>
<g id="a_Node000013"><a xlink:href="_o_m_sim_decays_g_p_s_8hh.html" target="_top" xlink:title="Defines the OMSimDecaysGPS class for the radioactive decays simulation.">
<polygon fill="white" stroke="#666666" points="509.5,-129 387.5,-129 387.5,-110 509.5,-110 509.5,-129"/>
<text text-anchor="middle" x="448.5" y="-117" font-family="Helvetica,sans-Serif" font-size="10.00">OMSimDecaysGPS.hh</text>
</a>
</g>
</g>
<!-- Node11&#45;&gt;Node13 -->
<g id="edge13_Node000011_Node000013" class="edge">
<title>Node11&#45;&gt;Node13</title>
<g id="a_edge13_Node000011_Node000013"><a xlink:title=" ">
<path fill="none" stroke="#63b8ff" d="M703.74,-163.31C644.4,-153.36 555.12,-138.38 499.41,-129.04"/>
<polygon fill="#63b8ff" stroke="#63b8ff" points="703.29,-166.78 713.73,-164.98 704.45,-159.88 703.29,-166.78"/>
</a>
</g>
</g>
<!-- Node15 -->
<g id="Node000015" class="node">
<title>Node15</title>
<g id="a_Node000015"><a xlink:href="_o_m_sim_detector_construction_8hh_source.html" target="_top" xlink:title=" ">
<polygon fill="white" stroke="#666666" points="697.5,-129 527.5,-129 527.5,-110 697.5,-110 697.5,-129"/>
<text text-anchor="middle" x="612.5" y="-117" font-family="Helvetica,sans-Serif" font-size="10.00">OMSimDetectorConstruction.hh</text>
</a>
</g>
</g>
<!-- Node11&#45;&gt;Node15 -->
<g id="edge15_Node000011_Node000015" class="edge">
<title>Node11&#45;&gt;Node15</title>
<g id="a_edge15_Node000011_Node000015"><a xlink:title=" ">
<path fill="none" stroke="#63b8ff" d="M730.57,-161.67C702.23,-151.79 662.48,-137.93 637.11,-129.08"/>
<polygon fill="#63b8ff" stroke="#63b8ff" points="729.48,-165 740.08,-164.98 731.79,-158.39 729.48,-165"/>
</a>
</g>
</g>
<!-- Node11&#45;&gt;Node21 -->
<g id="edge36_Node000011_Node000021" class="edge">
<title>Node11&#45;&gt;Node21</title>
<g id="a_edge36_Node000011_Node000021"><a xlink:title=" ">
<path fill="none" stroke="#63b8ff" d="M685.34,-171.32C606.38,-167.53 482.23,-157.2 378.5,-129 358.34,-123.52 355.45,-116.21 335.5,-110 280.09,-92.76 215.15,-81.08 167.59,-74.03"/>
<polygon fill="#63b8ff" stroke="#63b8ff" points="685.54,-174.83 695.69,-171.79 685.86,-167.84 685.54,-174.83"/>
</a>
</g>
</g>
<!-- Node26 -->
<g id="Node000026" class="node">
<title>Node26</title>
<g id="a_Node000026"><a xlink:href="_o_m_sim_l_o_m16_8hh.html" target="_top" xlink:title="Construction of LOM16.">
<polygon fill="white" stroke="#666666" points="1045,-129 944,-129 944,-110 1045,-110 1045,-129"/>
<text text-anchor="middle" x="994.5" y="-117" font-family="Helvetica,sans-Serif" font-size="10.00">OMSimLOM16.hh</text>
</a>
</g>
</g>
<!-- Node11&#45;&gt;Node26 -->
<g id="edge28_Node000011_Node000026" class="edge">
<title>Node11&#45;&gt;Node26</title>
<g id="a_edge28_Node000011_Node000026"><a xlink:title=" ">
<path fill="none" stroke="#63b8ff" d="M811.41,-162.69C854.5,-152.76 917.53,-138.24 957.26,-129.08"/>
<polygon fill="#63b8ff" stroke="#63b8ff" points="810.41,-159.33 801.45,-164.98 811.98,-166.15 810.41,-159.33"/>
</a>
</g>
</g>
<!-- Node27 -->
<g id="Node000027" class="node">
<title>Node27</title>
<g id="a_Node000027"><a xlink:href="_o_m_sim_l_o_m18_8hh.html" target="_top" xlink:title="Construction of LOM18.">
<polygon fill="white" stroke="#666666" points="1283,-129 1182,-129 1182,-110 1283,-110 1283,-129"/>
<text text-anchor="middle" x="1232.5" y="-117" font-family="Helvetica,sans-Serif" font-size="10.00">OMSimLOM18.hh</text>
</a>
</g>
</g>
<!-- Node11&#45;&gt;Node27 -->
<g id="edge30_Node000011_Node000027" class="edge">
<title>Node11&#45;&gt;Node27</title>
<g id="a_edge30_Node000011_Node000027"><a xlink:title=" ">
<path fill="none" stroke="#63b8ff" d="M843.18,-165.67C925.41,-157.32 1058.14,-143.33 1172.5,-129 1175.53,-128.62 1178.64,-128.22 1181.78,-127.8"/>
<polygon fill="#63b8ff" stroke="#63b8ff" points="842.75,-162.2 833.16,-166.69 843.46,-169.16 842.75,-162.2"/>
</a>
</g>
</g>
<!-- Node28 -->
<g id="Node000028" class="node">
<title>Node28</title>
<g id="a_Node000028"><a xlink:href="_o_m_sim_p_d_o_m_8hh.html" target="_top" xlink:title="Implementation of the pDOM (deepcore) or Gen1 DOM..">
<polygon fill="white" stroke="#666666" points="813,-129 716,-129 716,-110 813,-110 813,-129"/>
<text text-anchor="middle" x="764.5" y="-117" font-family="Helvetica,sans-Serif" font-size="10.00">OMSimPDOM.hh</text>
</a>
</g>
</g>
<!-- Node11&#45;&gt;Node28 -->
<g id="edge34_Node000011_Node000028" class="edge">
<title>Node11&#45;&gt;Node28</title>
<g id="a_edge34_Node000011_Node000028"><a xlink:title=" ">
<path fill="none" stroke="#63b8ff" d="M764.5,-154.66C764.5,-145.93 764.5,-135.99 764.5,-129.09"/>
<polygon fill="#63b8ff" stroke="#63b8ff" points="761,-154.75 764.5,-164.75 768,-154.75 761,-154.75"/>
</a>
</g>
</g>
<!-- Node12&#45;&gt;Node9 -->
<g id="edge12_Node000012_Node000009" class="edge">
<title>Node12&#45;&gt;Node9</title>
<g id="a_edge12_Node000012_Node000009"><a xlink:title=" ">
<path fill="none" stroke="#63b8ff" d="M888.85,-100.76C902.54,-77.28 926.15,-36.81 936.45,-19.16"/>
<polygon fill="#63b8ff" stroke="#63b8ff" points="885.67,-99.26 883.66,-109.66 891.72,-102.79 885.67,-99.26"/>
</a>
</g>
</g>
<!-- Node14 -->
<g id="Node000014" class="node">
<title>Node14</title>
<g id="a_Node000014"><a xlink:href="_o_m_sim__radioactive__decays_8cc.html" target="_top" xlink:title="Main of the radioactive decay study.">
<polygon fill="white" stroke="#666666" points="203,-19 38,-19 38,0 203,0 203,-19"/>
<text text-anchor="middle" x="120.5" y="-7" font-family="Helvetica,sans-Serif" font-size="10.00">OMSim_radioactive_decays.cc</text>
</a>
</g>
</g>
<!-- Node13&#45;&gt;Node14 -->
<g id="edge14_Node000013_Node000014" class="edge">
<title>Node13&#45;&gt;Node14</title>
<g id="a_edge14_Node000013_Node000014"><a xlink:title=" ">
<path fill="none" stroke="#63b8ff" d="M377.09,-110.02C333.46,-103.37 277.09,-92.13 229.5,-74 209.85,-66.52 158.36,-34.54 133.85,-19.02"/>
<polygon fill="#63b8ff" stroke="#63b8ff" points="376.64,-113.49 387.05,-111.49 377.67,-106.56 376.64,-113.49"/>
</a>
</g>
</g>
<!-- Node16 -->
<g id="Node000016" class="node">
<title>Node16</title>
<g id="a_Node000016"><a xlink:href="common_2framework_2include_2_o_m_sim_8hh.html" target="_top" xlink:title="Main simulation class for the Optical Module (OM) simulation. This file defines the OMSim class,...">
<polygon fill="white" stroke="#666666" points="776,-74 709,-74 709,-55 776,-55 776,-74"/>
<text text-anchor="middle" x="742.5" y="-62" font-family="Helvetica,sans-Serif" font-size="10.00">OMSim.hh</text>
</a>
</g>
</g>
<!-- Node15&#45;&gt;Node16 -->
<g id="edge16_Node000015_Node000016" class="edge">
<title>Node15&#45;&gt;Node16</title>
<g id="a_edge16_Node000015_Node000016"><a xlink:title=" ">
<path fill="none" stroke="#63b8ff" d="M642.77,-106.16C666.84,-96.35 699.9,-82.87 721.23,-74.17"/>
<polygon fill="#63b8ff" stroke="#63b8ff" points="641.33,-102.97 633.39,-109.98 643.97,-109.45 641.33,-102.97"/>
</a>
</g>
</g>
<!-- Node17 -->
<g id="Node000017" class="node">
<title>Node17</title>
<g id="a_Node000017"><a xlink:href="simulations_2wavepid_2include_2_o_m_sim_8hh.html" target="_top" xlink:title="Main simulation class for the Optical Module (OM) simulation.">
<polygon fill="white" stroke="#666666" points="861,-74 794,-74 794,-55 861,-55 861,-74"/>
<text text-anchor="middle" x="827.5" y="-62" font-family="Helvetica,sans-Serif" font-size="10.00">OMSim.hh</text>
</a>
</g>
</g>
<!-- Node15&#45;&gt;Node17 -->
<g id="edge17_Node000015_Node000017" class="edge">
<title>Node15&#45;&gt;Node17</title>
<g id="a_edge17_Node000015_Node000017"><a xlink:title=" ">
<path fill="none" stroke="#63b8ff" d="M656.95,-107.54C697.61,-97.52 756.86,-82.91 793.75,-73.82"/>
<polygon fill="#63b8ff" stroke="#63b8ff" points="655.92,-104.19 647.04,-109.98 657.59,-110.99 655.92,-104.19"/>
</a>
</g>
</g>
<!-- Node18 -->
<g id="Node000018" class="node">
<title>Node18</title>
<g id="a_Node000018"><a xlink:href="_o_m_sim_effective_area_detector_8hh.html" target="_top" xlink:title="Defines the OMSimEffectiveAreaDetector class for effective area simulation detector construction.">
<polygon fill="white" stroke="#666666" points="1205,-74 1032,-74 1032,-55 1205,-55 1205,-74"/>
<text text-anchor="middle" x="1118.5" y="-62" font-family="Helvetica,sans-Serif" font-size="10.00">OMSimEffectiveAreaDetector.hh</text>
</a>
</g>
</g>
<!-- Node15&#45;&gt;Node18 -->
<g id="edge18_Node000015_Node000018" class="edge">
<title>Node15&#45;&gt;Node18</title>
<g id="a_edge18_Node000015_Node000018"><a xlink:title=" ">
<path fill="none" stroke="#63b8ff" d="M703.96,-108.92C798.87,-98.98 945.93,-83.58 1036.99,-74.04"/>
<polygon fill="#63b8ff" stroke="#63b8ff" points="703.38,-105.46 693.8,-109.98 704.11,-112.42 703.38,-105.46"/>
</a>
</g>
</g>
<!-- Node20 -->
<g id="Node000020" class="node">
<title>Node20</title>
<g id="a_Node000020"><a xlink:href="_o_m_sim_effi_cali_detector_8hh_source.html" target="_top" xlink:title=" ">
<polygon fill="white" stroke="#666666" points="520,-74 377,-74 377,-55 520,-55 520,-74"/>
<text text-anchor="middle" x="448.5" y="-62" font-family="Helvetica,sans-Serif" font-size="10.00">OMSimEffiCaliDetector.hh</text>
</a>
</g>
</g>
<!-- Node15&#45;&gt;Node20 -->
<g id="edge20_Node000015_Node000020" class="edge">
<title>Node15&#45;&gt;Node20</title>
<g id="a_edge20_Node000015_Node000020"><a xlink:title=" ">
<path fill="none" stroke="#63b8ff" d="M576.29,-106.8C545.68,-96.91 502.55,-82.97 475.06,-74.08"/>
<polygon fill="#63b8ff" stroke="#63b8ff" points="575.56,-110.24 586.15,-109.98 577.71,-103.58 575.56,-110.24"/>
</a>
</g>
</g>
<!-- Node15&#45;&gt;Node21 -->
<g id="edge21_Node000015_Node000021" class="edge">
<title>Node15&#45;&gt;Node21</title>
<g id="a_edge21_Node000015_Node000021"><a xlink:title=" ">
<path fill="none" stroke="#63b8ff" d="M520.22,-108.95C423.89,-98.98 274.29,-83.49 182.13,-73.95"/>
<polygon fill="#63b8ff" stroke="#63b8ff" points="519.93,-112.44 530.24,-109.98 520.65,-105.47 519.93,-112.44"/>
</a>
</g>
</g>
<!-- Node22 -->
<g id="Node000022" class="node">
<title>Node22</title>
<g id="a_Node000022"><a xlink:href="_o_m_sim_s_ndetector_8hh_source.html" target="_top" xlink:title=" ">
<polygon fill="white" stroke="#666666" points="358.5,-74 238.5,-74 238.5,-55 358.5,-55 358.5,-74"/>
<text text-anchor="middle" x="298.5" y="-62" font-family="Helvetica,sans-Serif" font-size="10.00">OMSimSNdetector.hh</text>
</a>
</g>
</g>
<!-- Node15&#45;&gt;Node22 -->
<g id="edge23_Node000015_Node000022" class="edge">
<title>Node15&#45;&gt;Node22</title>
<g id="a_edge23_Node000015_Node000022"><a xlink:title=" ">
<path fill="none" stroke="#63b8ff" d="M552.13,-108.31C493.16,-98.36 404.45,-83.38 349.08,-74.04"/>
<polygon fill="#63b8ff" stroke="#63b8ff" points="551.61,-111.77 562.05,-109.98 552.77,-104.87 551.61,-111.77"/>
</a>
</g>
</g>
<!-- Node24 -->
<g id="Node000024" class="node">
<title>Node24</title>
<g id="a_Node000024"><a xlink:href="_o_m_sim_wave_p_i_d_detector_8hh.html" target="_top" xlink:title="Detector construction for WavePID simulation study.">
<polygon fill="white" stroke="#666666" points="690.5,-74 538.5,-74 538.5,-55 690.5,-55 690.5,-74"/>
<text text-anchor="middle" x="614.5" y="-62" font-family="Helvetica,sans-Serif" font-size="10.00">OMSimWavePIDDetector.hh</text>
</a>
</g>
</g>
<!-- Node15&#45;&gt;Node24 -->
<g id="edge25_Node000015_Node000024" class="edge">
<title>Node15&#45;&gt;Node24</title>
<g id="a_edge25_Node000015_Node000024"><a xlink:title=" ">
<path fill="none" stroke="#63b8ff" d="M613.21,-99.66C613.54,-90.93 613.92,-80.99 614.18,-74.09"/>
<polygon fill="#63b8ff" stroke="#63b8ff" points="609.71,-99.62 612.83,-109.75 616.7,-99.89 609.71,-99.62"/>
</a>
</g>
</g>
<!-- Node19 -->
<g id="Node000019" class="node">
<title>Node19</title>
<g id="a_Node000019"><a xlink:href="_o_m_sim__effective__area_8cc.html" target="_top" xlink:title="Main for the calculation of effective areas.">
<polygon fill="white" stroke="#666666" points="1323.5,-19 1183.5,-19 1183.5,0 1323.5,0 1323.5,-19"/>
<text text-anchor="middle" x="1253.5" y="-7" font-family="Helvetica,sans-Serif" font-size="10.00">OMSim_effective_area.cc</text>
</a>
</g>
</g>
<!-- Node18&#45;&gt;Node19 -->
<g id="edge19_Node000018_Node000019" class="edge">
<title>Node18&#45;&gt;Node19</title>
<g id="a_edge19_Node000018_Node000019"><a xlink:title=" ">
<path fill="none" stroke="#63b8ff" d="M1149.6,-51.29C1174.62,-41.47 1209.16,-27.91 1231.42,-19.17"/>
<polygon fill="#63b8ff" stroke="#63b8ff" points="1148.22,-48.07 1140.19,-54.98 1150.78,-54.59 1148.22,-48.07"/>
</a>
</g>
</g>
<!-- Node21&#45;&gt;Node14 -->
<g id="edge22_Node000021_Node000014" class="edge">
<title>Node21&#45;&gt;Node14</title>
<g id="a_edge22_Node000021_Node000014"><a xlink:title=" ">
<path fill="none" stroke="#63b8ff" d="M107.39,-45.24C110.74,-36.37 114.6,-26.14 117.26,-19.09"/>
<polygon fill="#63b8ff" stroke="#63b8ff" points="104.06,-44.16 103.8,-54.75 110.61,-46.63 104.06,-44.16"/>
</a>
</g>
</g>
<!-- Node23 -->
<g id="Node000023" class="node">
<title>Node23</title>
<g id="a_Node000023"><a xlink:href="_o_m_sim_supernova_8cc.html" target="_top" xlink:title="Main of the supernova study.">
<polygon fill="white" stroke="#666666" points="357,-19 240,-19 240,0 357,0 357,-19"/>
<text text-anchor="middle" x="298.5" y="-7" font-family="Helvetica,sans-Serif" font-size="10.00">OMSimSupernova.cc</text>
</a>
</g>
</g>
<!-- Node22&#45;&gt;Node23 -->
<g id="edge24_Node000022_Node000023" class="edge">
<title>Node22&#45;&gt;Node23</title>
<g id="a_edge24_Node000022_Node000023"><a xlink:title=" ">
<path fill="none" stroke="#63b8ff" d="M298.5,-44.66C298.5,-35.93 298.5,-25.99 298.5,-19.09"/>
<polygon fill="#63b8ff" stroke="#63b8ff" points="295,-44.75 298.5,-54.75 302,-44.75 295,-44.75"/>
</a>
</g>
</g>
<!-- Node24&#45;&gt;Node9 -->
<g id="edge26_Node000024_Node000009" class="edge">
<title>Node24&#45;&gt;Node9</title>
<g id="a_edge26_Node000024_Node000009"><a xlink:title=" ">
<path fill="none" stroke="#63b8ff" d="M676.99,-53.37C738.39,-43.42 831.05,-28.4 888.82,-19.04"/>
<polygon fill="#63b8ff" stroke="#63b8ff" points="676.35,-49.93 667.04,-54.98 677.47,-56.84 676.35,-49.93"/>
</a>
</g>
</g>
<!-- Node25 -->
<g id="Node000025" class="node">
<title>Node25</title>
<g id="a_Node000025"><a xlink:href="_o_m_sim___wave_p_i_d__study_8cc.html" target="_top" xlink:title="Main executable for WavePID photon origin tracking study.">
<polygon fill="white" stroke="#666666" points="687,-19 542,-19 542,0 687,0 687,-19"/>
<text text-anchor="middle" x="614.5" y="-7" font-family="Helvetica,sans-Serif" font-size="10.00">OMSim_WavePID_study.cc</text>
</a>
</g>
</g>
<!-- Node24&#45;&gt;Node25 -->
<g id="edge27_Node000024_Node000025" class="edge">
<title>Node24&#45;&gt;Node25</title>
<g id="a_edge27_Node000024_Node000025"><a xlink:title=" ">
<path fill="none" stroke="#63b8ff" d="M614.5,-44.66C614.5,-35.93 614.5,-25.99 614.5,-19.09"/>
<polygon fill="#63b8ff" stroke="#63b8ff" points="611,-44.75 614.5,-54.75 618,-44.75 611,-44.75"/>
</a>
</g>
</g>
<!-- Node26&#45;&gt;Node9 -->
<g id="edge29_Node000026_Node000009" class="edge">
<title>Node26&#45;&gt;Node9</title>
<g id="a_edge29_Node000026_Node000009"><a xlink:title=" ">
<path fill="none" stroke="#63b8ff" d="M985.64,-100.44C974.1,-76.92 954.37,-36.73 945.75,-19.16"/>
<polygon fill="#63b8ff" stroke="#63b8ff" points="982.62,-102.23 990.16,-109.66 988.9,-99.14 982.62,-102.23"/>
</a>
</g>
</g>
<!-- Node27&#45;&gt;Node6 -->
<g id="edge31_Node000027_Node000006" class="edge">
<title>Node27&#45;&gt;Node6</title>
<g id="a_edge31_Node000027_Node000006"><a xlink:title=" ">
<path fill="none" stroke="#63b8ff" d="M1253.89,-104.15C1268.17,-94.57 1286.47,-82.29 1298.58,-74.17"/>
<polygon fill="#63b8ff" stroke="#63b8ff" points="1251.55,-101.51 1245.19,-109.98 1255.45,-107.32 1251.55,-101.51"/>
</a>
</g>
</g>
<!-- Node27&#45;&gt;Node9 -->
<g id="edge32_Node000027_Node000009" class="edge">
<title>Node27&#45;&gt;Node9</title>
<g id="a_edge32_Node000027_Node000009"><a xlink:title=" ">
<path fill="none" stroke="#63b8ff" d="M1232.28,-99.33C1231.04,-85.01 1226.92,-66.07 1214.5,-55 1185.96,-29.56 1087.28,-18.55 1016.78,-13.86"/>
<polygon fill="#63b8ff" stroke="#63b8ff" points="1228.8,-99.76 1232.76,-109.59 1235.79,-99.43 1228.8,-99.76"/>
</a>
</g>
</g>
<!-- Node28&#45;&gt;Node9 -->
<g id="edge35_Node000028_Node000009" class="edge">
<title>Node28&#45;&gt;Node9</title>
<g id="a_edge35_Node000028_Node000009"><a xlink:title=" ">
<path fill="none" stroke="#63b8ff" d="M800.61,-106.49C821.54,-98.73 847.95,-87.57 869.5,-74 895.17,-57.84 920.73,-32.56 933.36,-19.3"/>
<polygon fill="#63b8ff" stroke="#63b8ff" points="799.33,-103.23 791.11,-109.91 801.71,-109.81 799.33,-103.23"/>
</a>
</g>
</g>
<!-- Node30&#45;&gt;Node8 -->
<g id="edge42_Node000030_Node000008" class="edge">
<title>Node30&#45;&gt;Node8</title>
<g id="a_edge42_Node000030_Node000008"><a xlink:title=" ">
<path fill="none" stroke="#63b8ff" d="M954.55,-211.68C966.15,-197.65 984.22,-177.94 1003.5,-165 1028.14,-148.47 1059.86,-136.46 1082.9,-129.11"/>
<polygon fill="#63b8ff" stroke="#63b8ff" points="951.75,-209.58 948.21,-219.57 957.2,-213.96 951.75,-209.58"/>
</a>
</g>
</g>
<!-- Node30&#45;&gt;Node11 -->
<g id="edge43_Node000030_Node000011" class="edge">
<title>Node30&#45;&gt;Node11</title>
<g id="a_edge43_Node000030_Node000011"><a xlink:title=" ">
<path fill="none" stroke="#63b8ff" d="M903.28,-217.06C870.2,-207.15 823.09,-193.04 793.16,-184.08"/>
<polygon fill="#63b8ff" stroke="#63b8ff" points="902.48,-220.47 913.06,-219.98 904.49,-213.76 902.48,-220.47"/>
</a>
</g>
</g>
<!-- Node30&#45;&gt;Node12 -->
<g id="edge39_Node000030_Node000012" class="edge">
<title>Node30&#45;&gt;Node12</title>
<g id="a_edge39_Node000030_Node000012"><a xlink:title=" ">
<path fill="none" stroke="#63b8ff" d="M931.15,-210.76C917.46,-187.28 893.85,-146.81 883.55,-129.16"/>
<polygon fill="#63b8ff" stroke="#63b8ff" points="928.28,-212.79 936.34,-219.66 934.33,-209.26 928.28,-212.79"/>
</a>
</g>
</g>
<!-- Node30&#45;&gt;Node26 -->
<g id="edge40_Node000030_Node000026" class="edge">
<title>Node30&#45;&gt;Node26</title>
<g id="a_edge40_Node000030_Node000026"><a xlink:title=" ">
<path fill="none" stroke="#63b8ff" d="M947.31,-210C951.64,-197.09 958.09,-179.62 965.5,-165 972.17,-151.84 981.83,-137.75 988.14,-129.03"/>
<polygon fill="#63b8ff" stroke="#63b8ff" points="943.95,-209.03 944.18,-219.62 950.6,-211.19 943.95,-209.03"/>
</a>
</g>
</g>
<!-- Node30&#45;&gt;Node27 -->
<g id="edge41_Node000030_Node000027" class="edge">
<title>Node30&#45;&gt;Node27</title>
<g id="a_edge41_Node000030_Node000027"><a xlink:title=" ">
<path fill="none" stroke="#63b8ff" d="M961.33,-214.15C984.56,-197.57 1021.86,-171.69 1037.5,-165 1063.92,-153.69 1137.68,-138.41 1186.53,-129.01"/>
<polygon fill="#63b8ff" stroke="#63b8ff" points="959.28,-211.32 953.19,-219.99 963.36,-217.01 959.28,-211.32"/>
</a>
</g>
</g>
<!-- Node30&#45;&gt;Node28 -->
<g id="edge44_Node000030_Node000028" class="edge">
<title>Node30&#45;&gt;Node28</title>
<g id="a_edge44_Node000030_Node000028"><a xlink:title=" ">
<path fill="none" stroke="#63b8ff" d="M919.9,-214.42C899.76,-201.37 868.8,-181.55 841.5,-165 820.24,-152.12 795.27,-137.84 779.66,-129.01"/>
<polygon fill="#63b8ff" stroke="#63b8ff" points="918.05,-217.39 928.35,-219.9 921.86,-211.52 918.05,-217.39"/>
</a>
</g>
</g>
<!-- Node30&#45;&gt;Node30 -->
<g id="edge45_Node000030_Node000030" class="edge">
<title>Node30&#45;&gt;Node30</title>
<g id="a_edge45_Node000030_Node000030"><a xlink:title=" ">
<path fill="none" stroke="#63b8ff" d="M994.79,-239.56C1016.11,-240.13 1034,-236.77 1034,-229.5 1034,-221.12 1010.21,-217.94 984.8,-219.97"/>
<polygon fill="#63b8ff" stroke="#63b8ff" points="994.97,-236.07 984.8,-239.03 994.6,-243.06 994.97,-236.07"/>
</a>
</g>
</g>
<!-- Node31&#45;&gt;Node6 -->
<g id="edge50_Node000031_Node000006" class="edge">
<title>Node31&#45;&gt;Node6</title>
<g id="a_edge50_Node000031_Node000006"><a xlink:title=" ">
<path fill="none" stroke="#63b8ff" d="M1454.64,-107.18C1420.6,-97.27 1371.88,-83.08 1340.97,-74.08"/>
<polygon fill="#63b8ff" stroke="#63b8ff" points="1453.68,-110.55 1464.26,-109.98 1455.64,-103.83 1453.68,-110.55"/>
</a>
</g>
</g>
<!-- Node31&#45;&gt;Node19 -->
<g id="edge53_Node000031_Node000019" class="edge">
<title>Node31&#45;&gt;Node19</title>
<g id="a_edge53_Node000031_Node000019"><a xlink:title=" ">
<path fill="none" stroke="#63b8ff" d="M1468.12,-105.2C1435.02,-87.89 1380.19,-59.33 1370.5,-55 1339.35,-41.09 1302.4,-27.5 1278.48,-19.08"/>
<polygon fill="#63b8ff" stroke="#63b8ff" points="1466.74,-108.43 1477.22,-109.97 1469.99,-102.23 1466.74,-108.43"/>
</a>
</g>
</g>
<!-- Node32 -->
<g id="Node000032" class="node">
<title>Node32</title>
<g id="a_Node000032"><a xlink:href="common_2framework_2src_2_o_m_sim_8cc.html" target="_top" xlink:title="Implementation of the OMSim class.">
<polygon fill="white" stroke="#666666" points="1653,-74 1588,-74 1588,-55 1653,-55 1653,-74"/>
<text text-anchor="middle" x="1620.5" y="-62" font-family="Helvetica,sans-Serif" font-size="10.00">OMSim.cc</text>
</a>
</g>
</g>
<!-- Node31&#45;&gt;Node32 -->
<g id="edge48_Node000031_Node000032" class="edge">
<title>Node31&#45;&gt;Node32</title>
<g id="a_edge48_Node000031_Node000032"><a xlink:title=" ">
<path fill="none" stroke="#63b8ff" d="M1523.38,-106.03C1546.87,-96.23 1578.97,-82.83 1599.72,-74.17"/>
<polygon fill="#63b8ff" stroke="#63b8ff" points="1521.79,-102.9 1513.9,-109.98 1524.48,-109.36 1521.79,-102.9"/>
</a>
</g>
</g>
<!-- Node33 -->
<g id="Node000033" class="node">
<title>Node33</title>
<g id="a_Node000033"><a xlink:href="simulations_2wavepid_2src_2_o_m_sim_8cc.html" target="_top" xlink:title="Implementation of the OMSim class for WavePID simulation.">
<polygon fill="white" stroke="#666666" points="1736,-74 1671,-74 1671,-55 1736,-55 1736,-74"/>
<text text-anchor="middle" x="1703.5" y="-62" font-family="Helvetica,sans-Serif" font-size="10.00">OMSim.cc</text>
</a>
</g>
</g>
<!-- Node31&#45;&gt;Node33 -->
<g id="edge49_Node000031_Node000033" class="edge">
<title>Node31&#45;&gt;Node33</title>
<g id="a_edge49_Node000031_Node000033"><a xlink:title=" ">
<path fill="none" stroke="#63b8ff" d="M1536.95,-107.53C1576.78,-97.48 1634.88,-82.82 1670.88,-73.73"/>
<polygon fill="#63b8ff" stroke="#63b8ff" points="1536.08,-104.14 1527.24,-109.98 1537.79,-110.93 1536.08,-104.14"/>
</a>
</g>
</g>
<!-- Node34 -->
<g id="Node000034" class="node">
<title>Node34</title>
<g id="a_Node000034"><a xlink:href="_o_m_sim_s_n_analysis_8cc.html" target="_top" xlink:title="Analyze data and write output files.">
<polygon fill="white" stroke="#666666" points="1874.5,-74 1754.5,-74 1754.5,-55 1874.5,-55 1874.5,-74"/>
<text text-anchor="middle" x="1814.5" y="-62" font-family="Helvetica,sans-Serif" font-size="10.00">OMSimSNAnalysis.cc</text>
</a>
</g>
</g>
<!-- Node31&#45;&gt;Node34 -->
<g id="edge51_Node000031_Node000034" class="edge">
<title>Node31&#45;&gt;Node34</title>
<g id="a_edge51_Node000031_Node000034"><a xlink:title=" ">
<path fill="none" stroke="#63b8ff" d="M1549.92,-109.18C1610.09,-99.25 1704.59,-83.65 1762.86,-74.03"/>
<polygon fill="#63b8ff" stroke="#63b8ff" points="1549.13,-105.77 1539.83,-110.85 1550.27,-112.67 1549.13,-105.77"/>
</a>
</g>
</g>
<!-- Node35 -->
<g id="Node000035" class="node">
<title>Node35</title>
<g id="a_Node000035"><a xlink:href="simulations_2wavepid_2src_2_o_m_sim_sensitive_detector_8cc.html" target="_top" xlink:title="Enhanced sensitive detector implementation with photon origin tracking.">
<polygon fill="white" stroke="#666666" points="1569.5,-74 1417.5,-74 1417.5,-55 1569.5,-55 1569.5,-74"/>
<text text-anchor="middle" x="1493.5" y="-62" font-family="Helvetica,sans-Serif" font-size="10.00">OMSimSensitiveDetector.cc</text>
</a>
</g>
</g>
<!-- Node31&#45;&gt;Node35 -->
<g id="edge52_Node000031_Node000035" class="edge">
<title>Node31&#45;&gt;Node35</title>
<g id="a_edge52_Node000031_Node000035"><a xlink:title=" ">
<path fill="none" stroke="#63b8ff" d="M1493.5,-99.66C1493.5,-90.93 1493.5,-80.99 1493.5,-74.09"/>
<polygon fill="#63b8ff" stroke="#63b8ff" points="1490,-99.75 1493.5,-109.75 1497,-99.75 1490,-99.75"/>
</a>
</g>
</g>
</g>
</svg>
