<?xml version="1.0" encoding="UTF-8" standalone="no"?>
<!DOCTYPE svg PUBLIC "-//W3C//DTD SVG 1.1//EN"
 "http://www.w3.org/Graphics/SVG/1.1/DTD/svg11.dtd">
<!-- Generated by graphviz version 2.43.0 (0)
 -->
<!-- Title: OMSimG4RadioactiveDecay.hh Pages: 1 -->
<svg width="1521pt" height="151pt"
 viewBox="0.00 0.00 1520.50 151.00" xmlns="http://www.w3.org/2000/svg" xmlns:xlink="http://www.w3.org/1999/xlink">
<g id="graph0" class="graph" transform="scale(1 1) rotate(0) translate(4 147)">
<title>OMSimG4RadioactiveDecay.hh</title>
<!-- Node1 -->
<g id="node1" class="node">
<title>Node1</title>
<g id="a_node1"><a xlink:title="Modified version of the original Geant4 RadioactiveDecay class to define custom decay time.">
<polygon fill="#bfbfbf" stroke="black" points="457,-123.5 457,-142.5 624,-142.5 624,-123.5 457,-123.5"/>
<text text-anchor="middle" x="540.5" y="-130.5" font-family="Helvetica,sans-Serif" font-size="10.00">OMSimG4RadioactiveDecay.hh</text>
</a>
</g>
</g>
<!-- Node2 -->
<g id="node2" class="node">
<title>Node2</title>
<g id="a_node2"><a xlink:title=" ">
<polygon fill="none" stroke="#bfbfbf" points="0,-67.5 0,-86.5 47,-86.5 47,-67.5 0,-67.5"/>
<text text-anchor="middle" x="23.5" y="-74.5" font-family="Helvetica,sans-Serif" font-size="10.00">vector</text>
</a>
</g>
</g>
<!-- Node1&#45;&gt;Node2 -->
<g id="edge1" class="edge">
<title>Node1&#45;&gt;Node2</title>
<path fill="none" stroke="midnightblue" d="M456.83,-128.63C362.04,-123.82 202.93,-112.75 57.2,-86.8"/>
<polygon fill="midnightblue" stroke="midnightblue" points="57.64,-83.32 47.18,-84.99 56.4,-90.21 57.64,-83.32"/>
</g>
<!-- Node3 -->
<g id="node3" class="node">
<title>Node3</title>
<g id="a_node3"><a xlink:title=" ">
<polygon fill="none" stroke="#bfbfbf" points="65.5,-67.5 65.5,-86.5 103.5,-86.5 103.5,-67.5 65.5,-67.5"/>
<text text-anchor="middle" x="84.5" y="-74.5" font-family="Helvetica,sans-Serif" font-size="10.00">map</text>
</a>
</g>
</g>
<!-- Node1&#45;&gt;Node3 -->
<g id="edge2" class="edge">
<title>Node1&#45;&gt;Node3</title>
<path fill="none" stroke="midnightblue" d="M456.86,-128.31C372.29,-123.43 237.88,-112.5 113.7,-86.84"/>
<polygon fill="midnightblue" stroke="midnightblue" points="114.15,-83.36 103.64,-84.73 112.7,-90.21 114.15,-83.36"/>
</g>
<!-- Node4 -->
<g id="node4" class="node">
<title>Node4</title>
<g id="a_node4"><a xlink:title=" ">
<polygon fill="none" stroke="#bfbfbf" points="121.5,-67.5 121.5,-86.5 283.5,-86.5 283.5,-67.5 121.5,-67.5"/>
<text text-anchor="middle" x="202.5" y="-74.5" font-family="Helvetica,sans-Serif" font-size="10.00">CLHEP/Units/SystemOfUnits.h</text>
</a>
</g>
</g>
<!-- Node1&#45;&gt;Node4 -->
<g id="edge3" class="edge">
<title>Node1&#45;&gt;Node4</title>
<path fill="none" stroke="midnightblue" d="M486.94,-123.44C426.87,-113.85 329.51,-98.29 265.74,-88.1"/>
<polygon fill="midnightblue" stroke="midnightblue" points="266.23,-84.64 255.81,-86.52 265.13,-91.55 266.23,-84.64"/>
</g>
<!-- Node5 -->
<g id="node5" class="node">
<title>Node5</title>
<g id="a_node5"><a xlink:title=" ">
<polygon fill="none" stroke="#bfbfbf" points="302,-67.5 302,-86.5 361,-86.5 361,-67.5 302,-67.5"/>
<text text-anchor="middle" x="331.5" y="-74.5" font-family="Helvetica,sans-Serif" font-size="10.00">G4ios.hh</text>
</a>
</g>
</g>
<!-- Node1&#45;&gt;Node5 -->
<g id="edge4" class="edge">
<title>Node1&#45;&gt;Node5</title>
<path fill="none" stroke="midnightblue" d="M507.38,-123.44C470.32,-113.87 410.32,-98.36 370.88,-88.18"/>
<polygon fill="midnightblue" stroke="midnightblue" points="371.64,-84.76 361.08,-85.64 369.89,-91.53 371.64,-84.76"/>
</g>
<!-- Node6 -->
<g id="node6" class="node">
<title>Node6</title>
<g id="a_node6"><a xlink:title=" ">
<polygon fill="none" stroke="#bfbfbf" points="379,-67.5 379,-86.5 446,-86.5 446,-67.5 379,-67.5"/>
<text text-anchor="middle" x="412.5" y="-74.5" font-family="Helvetica,sans-Serif" font-size="10.00">globals.hh</text>
</a>
</g>
</g>
<!-- Node1&#45;&gt;Node6 -->
<g id="edge5" class="edge">
<title>Node1&#45;&gt;Node6</title>
<path fill="none" stroke="midnightblue" d="M520.22,-123.44C499.15,-114.56 465.98,-100.56 442.01,-90.45"/>
<polygon fill="midnightblue" stroke="midnightblue" points="443.26,-87.18 432.69,-86.52 440.54,-93.63 443.26,-87.18"/>
</g>
<!-- Node7 -->
<g id="node7" class="node">
<title>Node7</title>
<g id="a_node7"><a xlink:title=" ">
<polygon fill="none" stroke="#bfbfbf" points="464.5,-67.5 464.5,-86.5 616.5,-86.5 616.5,-67.5 464.5,-67.5"/>
<text text-anchor="middle" x="540.5" y="-74.5" font-family="Helvetica,sans-Serif" font-size="10.00">G4VRestDiscreteProcess.hh</text>
</a>
</g>
</g>
<!-- Node1&#45;&gt;Node7 -->
<g id="edge6" class="edge">
<title>Node1&#45;&gt;Node7</title>
<path fill="none" stroke="midnightblue" d="M540.5,-123.08C540.5,-116.01 540.5,-105.86 540.5,-96.99"/>
<polygon fill="midnightblue" stroke="midnightblue" points="544,-96.75 540.5,-86.75 537,-96.75 544,-96.75"/>
</g>
<!-- Node8 -->
<g id="node8" class="node">
<title>Node8</title>
<g id="a_node8"><a xlink:title=" ">
<polygon fill="none" stroke="#bfbfbf" points="635,-67.5 635,-86.5 816,-86.5 816,-67.5 635,-67.5"/>
<text text-anchor="middle" x="725.5" y="-74.5" font-family="Helvetica,sans-Serif" font-size="10.00">G4ParticleChangeForRadDecay.hh</text>
</a>
</g>
</g>
<!-- Node1&#45;&gt;Node8 -->
<g id="edge7" class="edge">
<title>Node1&#45;&gt;Node8</title>
<path fill="none" stroke="midnightblue" d="M569.81,-123.44C601.34,-114.24 651.63,-99.56 686.49,-89.39"/>
<polygon fill="midnightblue" stroke="midnightblue" points="687.7,-92.68 696.32,-86.52 685.74,-85.96 687.7,-92.68"/>
</g>
<!-- Node9 -->
<g id="node9" class="node">
<title>Node9</title>
<g id="a_node9"><a xlink:title=" ">
<polygon fill="none" stroke="#bfbfbf" points="834.5,-67.5 834.5,-86.5 948.5,-86.5 948.5,-67.5 834.5,-67.5"/>
<text text-anchor="middle" x="891.5" y="-74.5" font-family="Helvetica,sans-Serif" font-size="10.00">G4NucleusLimits.hh</text>
</a>
</g>
</g>
<!-- Node1&#45;&gt;Node9 -->
<g id="edge8" class="edge">
<title>Node1&#45;&gt;Node9</title>
<path fill="none" stroke="midnightblue" d="M596.12,-123.44C658.63,-113.83 760.02,-98.23 826.23,-88.04"/>
<polygon fill="midnightblue" stroke="midnightblue" points="826.79,-91.5 836.14,-86.52 825.73,-84.58 826.79,-91.5"/>
</g>
<!-- Node10 -->
<g id="node10" class="node">
<title>Node10</title>
<g id="a_node10"><a xlink:title=" ">
<polygon fill="none" stroke="#bfbfbf" points="967,-67.5 967,-86.5 1070,-86.5 1070,-67.5 967,-67.5"/>
<text text-anchor="middle" x="1018.5" y="-74.5" font-family="Helvetica,sans-Serif" font-size="10.00">G4ThreeVector.hh</text>
</a>
</g>
</g>
<!-- Node1&#45;&gt;Node10 -->
<g id="edge9" class="edge">
<title>Node1&#45;&gt;Node10</title>
<path fill="none" stroke="midnightblue" d="M624.08,-123.95C706.05,-115.83 834.83,-102.49 956.68,-87.06"/>
<polygon fill="midnightblue" stroke="midnightblue" points="957.46,-90.49 966.93,-85.75 956.57,-83.54 957.46,-90.49"/>
</g>
<!-- Node11 -->
<g id="node11" class="node">
<title>Node11</title>
<g id="a_node11"><a xlink:title=" ">
<polygon fill="none" stroke="#bfbfbf" points="1088,-67.5 1088,-86.5 1249,-86.5 1249,-67.5 1088,-67.5"/>
<text text-anchor="middle" x="1168.5" y="-74.5" font-family="Helvetica,sans-Serif" font-size="10.00">G4RadioactiveDecayMode.hh</text>
</a>
</g>
</g>
<!-- Node1&#45;&gt;Node11 -->
<g id="edge10" class="edge">
<title>Node1&#45;&gt;Node11</title>
<path fill="none" stroke="midnightblue" d="M624.41,-125.41C728.11,-117.16 910.3,-102.36 1077.1,-87.12"/>
<polygon fill="midnightblue" stroke="midnightblue" points="1077.91,-90.56 1087.55,-86.16 1077.28,-83.58 1077.91,-90.56"/>
</g>
<!-- Node12 -->
<g id="node12" class="node">
<title>Node12</title>
<g id="a_node12"><a xlink:href="_o_m_sim_logger_8hh_source.html" target="_top" xlink:title=" ">
<polygon fill="none" stroke="black" points="1267,-67.5 1267,-86.5 1366,-86.5 1366,-67.5 1267,-67.5"/>
<text text-anchor="middle" x="1316.5" y="-74.5" font-family="Helvetica,sans-Serif" font-size="10.00">OMSimLogger.hh</text>
</a>
</g>
</g>
<!-- Node1&#45;&gt;Node12 -->
<g id="edge11" class="edge">
<title>Node1&#45;&gt;Node12</title>
<path fill="none" stroke="midnightblue" d="M624.17,-129.24C756.43,-124.32 1022.07,-112.22 1256.77,-87.1"/>
<polygon fill="midnightblue" stroke="midnightblue" points="1257.3,-90.56 1266.87,-86.01 1256.55,-83.6 1257.3,-90.56"/>
</g>
<!-- Node13 -->
<g id="node13" class="node">
<title>Node13</title>
<g id="a_node13"><a xlink:title=" ">
<polygon fill="none" stroke="#bfbfbf" points="1098,-6 1098,-25 1191,-25 1191,-6 1098,-6"/>
<text text-anchor="middle" x="1144.5" y="-13" font-family="Helvetica,sans-Serif" font-size="10.00">spdlog/spdlog.h</text>
</a>
</g>
</g>
<!-- Node12&#45;&gt;Node13 -->
<g id="edge12" class="edge">
<title>Node12&#45;&gt;Node13</title>
<path fill="none" stroke="midnightblue" d="M1291.86,-67.48C1262.22,-57.22 1212.32,-39.96 1178.9,-28.4"/>
<polygon fill="midnightblue" stroke="midnightblue" points="1179.69,-24.97 1169.1,-25.01 1177.4,-31.59 1179.69,-24.97"/>
</g>
<!-- Node14 -->
<g id="node14" class="node">
<title>Node14</title>
<g id="a_node14"><a xlink:title=" ">
<polygon fill="none" stroke="#bfbfbf" points="1209,-0.5 1209,-30.5 1320,-30.5 1320,-0.5 1209,-0.5"/>
<text text-anchor="start" x="1217" y="-18.5" font-family="Helvetica,sans-Serif" font-size="10.00">spdlog/sinks/stdout</text>
<text text-anchor="middle" x="1264.5" y="-7.5" font-family="Helvetica,sans-Serif" font-size="10.00">_color_sinks.h</text>
</a>
</g>
</g>
<!-- Node12&#45;&gt;Node14 -->
<g id="edge13" class="edge">
<title>Node12&#45;&gt;Node14</title>
<path fill="none" stroke="midnightblue" d="M1309.05,-67.48C1302.4,-59.87 1292.38,-48.4 1283.52,-38.26"/>
<polygon fill="midnightblue" stroke="midnightblue" points="1285.97,-35.75 1276.76,-30.52 1280.7,-40.36 1285.97,-35.75"/>
</g>
<!-- Node15 -->
<g id="node15" class="node">
<title>Node15</title>
<g id="a_node15"><a xlink:title=" ">
<polygon fill="none" stroke="#bfbfbf" points="1338.5,-6 1338.5,-25 1396.5,-25 1396.5,-6 1338.5,-6"/>
<text text-anchor="middle" x="1367.5" y="-13" font-family="Helvetica,sans-Serif" font-size="10.00">memory</text>
</a>
</g>
</g>
<!-- Node12&#45;&gt;Node15 -->
<g id="edge14" class="edge">
<title>Node12&#45;&gt;Node15</title>
<path fill="none" stroke="midnightblue" d="M1323.81,-67.48C1331.53,-58.46 1343.91,-44.02 1353.52,-32.81"/>
<polygon fill="midnightblue" stroke="midnightblue" points="1356.36,-34.88 1360.21,-25.01 1351.04,-30.32 1356.36,-34.88"/>
</g>
<!-- Node16 -->
<g id="node16" class="node">
<title>Node16</title>
<g id="a_node16"><a xlink:title=" ">
<polygon fill="none" stroke="#bfbfbf" points="1414.5,-6 1414.5,-25 1512.5,-25 1512.5,-6 1414.5,-6"/>
<text text-anchor="middle" x="1463.5" y="-13" font-family="Helvetica,sans-Serif" font-size="10.00">spdlog/fmt/fmt.h</text>
</a>
</g>
</g>
<!-- Node12&#45;&gt;Node16 -->
<g id="edge15" class="edge">
<title>Node12&#45;&gt;Node16</title>
<path fill="none" stroke="midnightblue" d="M1337.56,-67.48C1362.56,-57.36 1404.44,-40.4 1432.99,-28.85"/>
<polygon fill="midnightblue" stroke="midnightblue" points="1434.52,-32.01 1442.48,-25.01 1431.89,-25.52 1434.52,-32.01"/>
</g>
</g>
</svg>
