<?xml version="1.0" encoding="UTF-8" standalone="no"?>
<!DOCTYPE svg PUBLIC "-//W3C//DTD SVG 1.1//EN"
 "http://www.w3.org/Graphics/SVG/1.1/DTD/svg11.dtd">
<!-- Generated by graphviz version 2.43.0 (0)
 -->
<!-- Title: OMSimPDOM.cc Pages: 1 -->
<svg width="1708pt" height="442pt"
 viewBox="0.00 0.00 1708.00 442.00" xmlns="http://www.w3.org/2000/svg" xmlns:xlink="http://www.w3.org/1999/xlink">
<g id="graph0" class="graph" transform="scale(1 1) rotate(0) translate(4 438)">
<title>OMSimPDOM.cc</title>
<polygon fill="white" stroke="transparent" points="-4,4 -4,-438 1704,-438 1704,4 -4,4"/>
<!-- Node1 -->
<g id="node1" class="node">
<title>Node1</title>
<g id="a_node1"><a xlink:title=" ">
<polygon fill="#bfbfbf" stroke="black" points="1266,-414.5 1266,-433.5 1361,-433.5 1361,-414.5 1266,-414.5"/>
<text text-anchor="middle" x="1313.5" y="-421.5" font-family="Helvetica,sans-Serif" font-size="10.00">OMSimPDOM.cc</text>
</a>
</g>
</g>
<!-- Node2 -->
<g id="node2" class="node">
<title>Node2</title>
<g id="a_node2"><a xlink:href="_o_m_sim_p_d_o_m_8hh.html" target="_top" xlink:title="Implementation of the pDOM/Gen1 DOM class.">
<polygon fill="white" stroke="black" points="564,-358.5 564,-377.5 661,-377.5 661,-358.5 564,-358.5"/>
<text text-anchor="middle" x="612.5" y="-365.5" font-family="Helvetica,sans-Serif" font-size="10.00">OMSimPDOM.hh</text>
</a>
</g>
</g>
<!-- Node1&#45;&gt;Node2 -->
<g id="edge1" class="edge">
<title>Node1&#45;&gt;Node2</title>
<path fill="none" stroke="midnightblue" d="M1265.87,-419.33C1141.53,-409.75 807.39,-384.01 671.35,-373.53"/>
<polygon fill="midnightblue" stroke="midnightblue" points="671.37,-370.02 661.13,-372.75 670.83,-377 671.37,-370.02"/>
</g>
<!-- Node6 -->
<g id="node6" class="node">
<title>Node6</title>
<g id="a_node6"><a xlink:href="_o_m_sim_logger_8hh.html" target="_top" xlink:title=" ">
<polygon fill="white" stroke="black" points="1155,-73 1155,-92 1254,-92 1254,-73 1155,-73"/>
<text text-anchor="middle" x="1204.5" y="-80" font-family="Helvetica,sans-Serif" font-size="10.00">OMSimLogger.hh</text>
</a>
</g>
</g>
<!-- Node1&#45;&gt;Node6 -->
<g id="edge35" class="edge">
<title>Node1&#45;&gt;Node6</title>
<path fill="none" stroke="midnightblue" d="M1294.26,-414.42C1262.97,-398.99 1204.5,-363.41 1204.5,-313 1204.5,-313 1204.5,-313 1204.5,-199 1204.5,-164.86 1204.5,-125.05 1204.5,-102.21"/>
<polygon fill="midnightblue" stroke="midnightblue" points="1208,-102.19 1204.5,-92.19 1201,-102.19 1208,-102.19"/>
</g>
<!-- Node31 -->
<g id="node31" class="node">
<title>Node31</title>
<g id="a_node31"><a xlink:href="_o_m_sim_command_args_table_8hh.html" target="_top" xlink:title="Definition of the OMSimCommandArgsTable singleton class, which controls user args.">
<polygon fill="white" stroke="black" points="1232.5,-246.5 1232.5,-265.5 1396.5,-265.5 1396.5,-246.5 1232.5,-246.5"/>
<text text-anchor="middle" x="1314.5" y="-253.5" font-family="Helvetica,sans-Serif" font-size="10.00">OMSimCommandArgsTable.hh</text>
</a>
</g>
</g>
<!-- Node1&#45;&gt;Node31 -->
<g id="edge36" class="edge">
<title>Node1&#45;&gt;Node31</title>
<path fill="none" stroke="midnightblue" d="M1297.72,-414.47C1285.3,-406.77 1268.89,-394.18 1261.5,-378 1257.8,-369.92 1259.37,-366.63 1261.5,-358 1269.36,-326.11 1289.28,-293.15 1302.34,-273.89"/>
<polygon fill="midnightblue" stroke="midnightblue" points="1305.27,-275.8 1308.11,-265.6 1299.52,-271.8 1305.27,-275.8"/>
</g>
<!-- Node34 -->
<g id="node34" class="node">
<title>Node34</title>
<g id="a_node34"><a xlink:title=" ">
<polygon fill="white" stroke="#bfbfbf" points="1270.5,-358.5 1270.5,-377.5 1356.5,-377.5 1356.5,-358.5 1270.5,-358.5"/>
<text text-anchor="middle" x="1313.5" y="-365.5" font-family="Helvetica,sans-Serif" font-size="10.00">G4Ellipsoid.hh</text>
</a>
</g>
</g>
<!-- Node1&#45;&gt;Node34 -->
<g id="edge41" class="edge">
<title>Node1&#45;&gt;Node34</title>
<path fill="none" stroke="midnightblue" d="M1313.5,-414.08C1313.5,-407.01 1313.5,-396.86 1313.5,-387.99"/>
<polygon fill="midnightblue" stroke="midnightblue" points="1317,-387.75 1313.5,-377.75 1310,-387.75 1317,-387.75"/>
</g>
<!-- Node35 -->
<g id="node35" class="node">
<title>Node35</title>
<g id="a_node35"><a xlink:title=" ">
<polygon fill="white" stroke="#bfbfbf" points="1375,-358.5 1375,-377.5 1512,-377.5 1512,-358.5 1375,-358.5"/>
<text text-anchor="middle" x="1443.5" y="-365.5" font-family="Helvetica,sans-Serif" font-size="10.00">G4LogicalSkinSurface.hh</text>
</a>
</g>
</g>
<!-- Node1&#45;&gt;Node35 -->
<g id="edge42" class="edge">
<title>Node1&#45;&gt;Node35</title>
<path fill="none" stroke="midnightblue" d="M1334.1,-414.44C1355.49,-405.56 1389.18,-391.56 1413.52,-381.45"/>
<polygon fill="midnightblue" stroke="midnightblue" points="1415.11,-384.58 1423,-377.52 1412.42,-378.12 1415.11,-384.58"/>
</g>
<!-- Node36 -->
<g id="node36" class="node">
<title>Node36</title>
<g id="a_node36"><a xlink:title=" ">
<polygon fill="white" stroke="#bfbfbf" points="1530.5,-358.5 1530.5,-377.5 1592.5,-377.5 1592.5,-358.5 1530.5,-358.5"/>
<text text-anchor="middle" x="1561.5" y="-365.5" font-family="Helvetica,sans-Serif" font-size="10.00">G4Orb.hh</text>
</a>
</g>
</g>
<!-- Node1&#45;&gt;Node36 -->
<g id="edge43" class="edge">
<title>Node1&#45;&gt;Node36</title>
<path fill="none" stroke="midnightblue" d="M1353.4,-414.47C1393.24,-405.93 1456.5,-392.31 1520.62,-378.18"/>
<polygon fill="midnightblue" stroke="midnightblue" points="1521.49,-381.57 1530.5,-376 1519.98,-374.74 1521.49,-381.57"/>
</g>
<!-- Node37 -->
<g id="node37" class="node">
<title>Node37</title>
<g id="a_node37"><a xlink:title=" ">
<polygon fill="white" stroke="#bfbfbf" points="1611,-358.5 1611,-377.5 1700,-377.5 1700,-358.5 1611,-358.5"/>
<text text-anchor="middle" x="1655.5" y="-365.5" font-family="Helvetica,sans-Serif" font-size="10.00">G4Polycone.hh</text>
</a>
</g>
</g>
<!-- Node1&#45;&gt;Node37 -->
<g id="edge44" class="edge">
<title>Node1&#45;&gt;Node37</title>
<path fill="none" stroke="midnightblue" d="M1361.17,-415.7C1416.3,-407.23 1510.06,-392.72 1600.81,-378.1"/>
<polygon fill="midnightblue" stroke="midnightblue" points="1601.4,-381.55 1610.72,-376.5 1600.29,-374.64 1601.4,-381.55"/>
</g>
<!-- Node3 -->
<g id="node3" class="node">
<title>Node3</title>
<g id="a_node3"><a xlink:href="_o_m_sim_p_m_t_construction_8hh.html" target="_top" xlink:title="Construction of the PMTs.">
<polygon fill="white" stroke="black" points="418,-246.5 418,-265.5 567,-265.5 567,-246.5 418,-246.5"/>
<text text-anchor="middle" x="492.5" y="-253.5" font-family="Helvetica,sans-Serif" font-size="10.00">OMSimPMTConstruction.hh</text>
</a>
</g>
</g>
<!-- Node2&#45;&gt;Node3 -->
<g id="edge2" class="edge">
<title>Node2&#45;&gt;Node3</title>
<path fill="none" stroke="midnightblue" d="M591.86,-358.4C575.03,-350.66 551.38,-338.05 534.5,-322 520.24,-308.44 508.55,-289.12 501.16,-275.07"/>
<polygon fill="midnightblue" stroke="midnightblue" points="504.18,-273.29 496.56,-265.93 497.93,-276.44 504.18,-273.29"/>
</g>
<!-- Node25 -->
<g id="node25" class="node">
<title>Node25</title>
<g id="a_node25"><a xlink:href="_o_m_sim_optical_module_8hh.html" target="_top" xlink:title=" ">
<polygon fill="white" stroke="black" points="544,-302.5 544,-321.5 681,-321.5 681,-302.5 544,-302.5"/>
<text text-anchor="middle" x="612.5" y="-309.5" font-family="Helvetica,sans-Serif" font-size="10.00">OMSimOpticalModule.hh</text>
</a>
</g>
</g>
<!-- Node2&#45;&gt;Node25 -->
<g id="edge26" class="edge">
<title>Node2&#45;&gt;Node25</title>
<path fill="none" stroke="midnightblue" d="M612.5,-358.08C612.5,-351.01 612.5,-340.86 612.5,-331.99"/>
<polygon fill="midnightblue" stroke="midnightblue" points="616,-331.75 612.5,-321.75 609,-331.75 616,-331.75"/>
</g>
<!-- Node3&#45;&gt;Node3 -->
<g id="edge17" class="edge">
<title>Node3&#45;&gt;Node3</title>
<path fill="none" stroke="midnightblue" d="M531.95,-265.53C558.76,-268.31 585,-265.13 585,-256 585,-248.01 564.91,-244.58 541.93,-245.71"/>
<polygon fill="midnightblue" stroke="midnightblue" points="541.65,-242.22 531.95,-246.47 542.19,-249.2 541.65,-242.22"/>
</g>
<!-- Node4 -->
<g id="node4" class="node">
<title>Node4</title>
<g id="a_node4"><a xlink:href="abc_detector_component_8hh.html" target="_top" xlink:title="Provides helper base class abcDetectorComponent for constructing and managing detector components in ...">
<polygon fill="white" stroke="black" points="419,-190.5 419,-209.5 566,-209.5 566,-190.5 419,-190.5"/>
<text text-anchor="middle" x="492.5" y="-197.5" font-family="Helvetica,sans-Serif" font-size="10.00">abcDetectorComponent.hh</text>
</a>
</g>
</g>
<!-- Node3&#45;&gt;Node4 -->
<g id="edge3" class="edge">
<title>Node3&#45;&gt;Node4</title>
<path fill="none" stroke="midnightblue" d="M492.5,-246.08C492.5,-239.01 492.5,-228.86 492.5,-219.99"/>
<polygon fill="midnightblue" stroke="midnightblue" points="496,-219.75 492.5,-209.75 489,-219.75 496,-219.75"/>
</g>
<!-- Node18 -->
<g id="node18" class="node">
<title>Node18</title>
<g id="a_node18"><a xlink:href="_o_m_sim_p_m_t_response_8hh.html" target="_top" xlink:title="Simulation of PMT response.">
<polygon fill="white" stroke="black" points="626,-190.5 626,-209.5 761,-209.5 761,-190.5 626,-190.5"/>
<text text-anchor="middle" x="693.5" y="-197.5" font-family="Helvetica,sans-Serif" font-size="10.00">OMSimPMTResponse.hh</text>
</a>
</g>
</g>
<!-- Node3&#45;&gt;Node18 -->
<g id="edge18" class="edge">
<title>Node3&#45;&gt;Node18</title>
<path fill="none" stroke="midnightblue" d="M524.35,-246.44C558.9,-237.16 614.18,-222.31 652.08,-212.13"/>
<polygon fill="midnightblue" stroke="midnightblue" points="653.05,-215.49 661.8,-209.52 651.23,-208.73 653.05,-215.49"/>
</g>
<!-- Node23 -->
<g id="node23" class="node">
<title>Node23</title>
<g id="a_node23"><a xlink:title=" ">
<polygon fill="white" stroke="#bfbfbf" points="302.5,-190.5 302.5,-209.5 400.5,-209.5 400.5,-190.5 302.5,-190.5"/>
<text text-anchor="middle" x="351.5" y="-197.5" font-family="Helvetica,sans-Serif" font-size="10.00">G4UnionSolid.hh</text>
</a>
</g>
</g>
<!-- Node3&#45;&gt;Node23 -->
<g id="edge24" class="edge">
<title>Node3&#45;&gt;Node23</title>
<path fill="none" stroke="midnightblue" d="M470.16,-246.44C446.75,-237.48 409.76,-223.31 383.31,-213.18"/>
<polygon fill="midnightblue" stroke="midnightblue" points="384.33,-209.82 373.74,-209.52 381.82,-216.36 384.33,-209.82"/>
</g>
<!-- Node24 -->
<g id="node24" class="node">
<title>Node24</title>
<g id="a_node24"><a xlink:title=" ">
<polygon fill="white" stroke="#bfbfbf" points="217,-190.5 217,-209.5 284,-209.5 284,-190.5 217,-190.5"/>
<text text-anchor="middle" x="250.5" y="-197.5" font-family="Helvetica,sans-Serif" font-size="10.00">G4Tubs.hh</text>
</a>
</g>
</g>
<!-- Node3&#45;&gt;Node24 -->
<g id="edge25" class="edge">
<title>Node3&#45;&gt;Node24</title>
<path fill="none" stroke="midnightblue" d="M454.15,-246.44C410.66,-236.74 339.88,-220.95 294.27,-210.77"/>
<polygon fill="midnightblue" stroke="midnightblue" points="294.89,-207.32 284.37,-208.56 293.37,-214.15 294.89,-207.32"/>
</g>
<!-- Node5 -->
<g id="node5" class="node">
<title>Node5</title>
<g id="a_node5"><a xlink:href="_o_m_sim_input_data_8hh.html" target="_top" xlink:title="Definition of ParameterTable and InputDataManager.">
<polygon fill="white" stroke="black" points="524,-134.5 524,-153.5 639,-153.5 639,-134.5 524,-134.5"/>
<text text-anchor="middle" x="581.5" y="-141.5" font-family="Helvetica,sans-Serif" font-size="10.00">OMSimInputData.hh</text>
</a>
</g>
</g>
<!-- Node4&#45;&gt;Node5 -->
<g id="edge4" class="edge">
<title>Node4&#45;&gt;Node5</title>
<path fill="none" stroke="midnightblue" d="M506.8,-190.32C520.68,-181.9 541.99,-168.97 558.3,-159.07"/>
<polygon fill="midnightblue" stroke="midnightblue" points="560.5,-161.83 567.24,-153.65 556.87,-155.85 560.5,-161.83"/>
</g>
<!-- Node14 -->
<g id="node14" class="node">
<title>Node14</title>
<g id="a_node14"><a xlink:title=" ">
<polygon fill="white" stroke="#bfbfbf" points="0,-134.5 0,-153.5 107,-153.5 107,-134.5 0,-134.5"/>
<text text-anchor="middle" x="53.5" y="-141.5" font-family="Helvetica,sans-Serif" font-size="10.00">G4Transform3D.hh</text>
</a>
</g>
</g>
<!-- Node4&#45;&gt;Node14 -->
<g id="edge13" class="edge">
<title>Node4&#45;&gt;Node14</title>
<path fill="none" stroke="midnightblue" d="M418.95,-190.7C345.33,-182.28 228.54,-168.6 117.17,-154.06"/>
<polygon fill="midnightblue" stroke="midnightblue" points="117.47,-150.57 107.1,-152.74 116.57,-157.51 117.47,-150.57"/>
</g>
<!-- Node15 -->
<g id="node15" class="node">
<title>Node15</title>
<g id="a_node15"><a xlink:title=" ">
<polygon fill="white" stroke="#bfbfbf" points="125.5,-134.5 125.5,-153.5 233.5,-153.5 233.5,-134.5 125.5,-134.5"/>
<text text-anchor="middle" x="179.5" y="-141.5" font-family="Helvetica,sans-Serif" font-size="10.00">G4VisAttributes.hh</text>
</a>
</g>
</g>
<!-- Node4&#45;&gt;Node15 -->
<g id="edge14" class="edge">
<title>Node4&#45;&gt;Node15</title>
<path fill="none" stroke="midnightblue" d="M442.9,-190.44C387.5,-180.89 297.86,-165.42 238.79,-155.23"/>
<polygon fill="midnightblue" stroke="midnightblue" points="239.31,-151.77 228.86,-153.52 238.12,-158.67 239.31,-151.77"/>
</g>
<!-- Node16 -->
<g id="node16" class="node">
<title>Node16</title>
<g id="a_node16"><a xlink:title=" ">
<polygon fill="white" stroke="#bfbfbf" points="252,-134.5 252,-153.5 377,-153.5 377,-134.5 252,-134.5"/>
<text text-anchor="middle" x="314.5" y="-141.5" font-family="Helvetica,sans-Serif" font-size="10.00">G4SubtractionSolid.hh</text>
</a>
</g>
</g>
<!-- Node4&#45;&gt;Node16 -->
<g id="edge15" class="edge">
<title>Node4&#45;&gt;Node16</title>
<path fill="none" stroke="midnightblue" d="M464.3,-190.44C434.09,-181.28 385.99,-166.69 352.47,-156.52"/>
<polygon fill="midnightblue" stroke="midnightblue" points="353.16,-153.07 342.57,-153.52 351.13,-159.77 353.16,-153.07"/>
</g>
<!-- Node17 -->
<g id="node17" class="node">
<title>Node17</title>
<g id="a_node17"><a xlink:title=" ">
<polygon fill="white" stroke="#bfbfbf" points="395.5,-134.5 395.5,-153.5 505.5,-153.5 505.5,-134.5 395.5,-134.5"/>
<text text-anchor="middle" x="450.5" y="-141.5" font-family="Helvetica,sans-Serif" font-size="10.00">G4PVPlacement.hh</text>
</a>
</g>
</g>
<!-- Node4&#45;&gt;Node17 -->
<g id="edge16" class="edge">
<title>Node4&#45;&gt;Node17</title>
<path fill="none" stroke="midnightblue" d="M485.56,-190.08C479.57,-182.38 470.75,-171.03 463.45,-161.65"/>
<polygon fill="midnightblue" stroke="midnightblue" points="466.21,-159.5 457.31,-153.75 460.68,-163.79 466.21,-159.5"/>
</g>
<!-- Node5&#45;&gt;Node6 -->
<g id="edge5" class="edge">
<title>Node5&#45;&gt;Node6</title>
<path fill="none" stroke="midnightblue" d="M639.07,-134.99C641.92,-134.65 644.74,-134.31 647.5,-134 828.22,-113.5 1042.69,-95.96 1144.76,-88.03"/>
<polygon fill="midnightblue" stroke="midnightblue" points="1145.17,-91.51 1154.87,-87.24 1144.63,-84.53 1145.17,-91.51"/>
</g>
<!-- Node11 -->
<g id="node11" class="node">
<title>Node11</title>
<g id="a_node11"><a xlink:title=" ">
<polygon fill="white" stroke="#bfbfbf" points="426,-73 426,-92 569,-92 569,-73 426,-73"/>
<text text-anchor="middle" x="497.5" y="-80" font-family="Helvetica,sans-Serif" font-size="10.00">G4OpBoundaryProcess.hh</text>
</a>
</g>
</g>
<!-- Node5&#45;&gt;Node11 -->
<g id="edge10" class="edge">
<title>Node5&#45;&gt;Node11</title>
<path fill="none" stroke="midnightblue" d="M569.46,-134.48C555.99,-124.93 533.93,-109.31 517.78,-97.87"/>
<polygon fill="midnightblue" stroke="midnightblue" points="519.7,-94.93 509.51,-92.01 515.65,-100.65 519.7,-94.93"/>
</g>
<!-- Node12 -->
<g id="node12" class="node">
<title>Node12</title>
<g id="a_node12"><a xlink:title=" ">
<polygon fill="white" stroke="#bfbfbf" points="781,-73 781,-92 900,-92 900,-73 781,-73"/>
<text text-anchor="middle" x="840.5" y="-80" font-family="Helvetica,sans-Serif" font-size="10.00">G4SystemOfUnits.hh</text>
</a>
</g>
</g>
<!-- Node5&#45;&gt;Node12 -->
<g id="edge11" class="edge">
<title>Node5&#45;&gt;Node12</title>
<path fill="none" stroke="midnightblue" d="M618.61,-134.48C664.67,-123.89 743.27,-105.84 793.5,-94.3"/>
<polygon fill="midnightblue" stroke="midnightblue" points="794.5,-97.66 803.46,-92.01 792.93,-90.84 794.5,-97.66"/>
</g>
<!-- Node13 -->
<g id="node13" class="node">
<title>Node13</title>
<g id="a_node13"><a xlink:title=" ">
<polygon fill="white" stroke="#bfbfbf" points="587,-67.5 587,-97.5 700,-97.5 700,-67.5 587,-67.5"/>
<text text-anchor="start" x="595" y="-85.5" font-family="Helvetica,sans-Serif" font-size="10.00">boost/property_tree</text>
<text text-anchor="middle" x="643.5" y="-74.5" font-family="Helvetica,sans-Serif" font-size="10.00">/json_parser.hpp</text>
</a>
</g>
</g>
<!-- Node5&#45;&gt;Node13 -->
<g id="edge12" class="edge">
<title>Node5&#45;&gt;Node13</title>
<path fill="none" stroke="midnightblue" d="M590.38,-134.48C598.47,-126.72 610.74,-114.94 621.45,-104.66"/>
<polygon fill="midnightblue" stroke="midnightblue" points="624.1,-106.97 628.89,-97.52 619.25,-101.92 624.1,-106.97"/>
</g>
<!-- Node7 -->
<g id="node7" class="node">
<title>Node7</title>
<g id="a_node7"><a xlink:title=" ">
<polygon fill="white" stroke="#bfbfbf" points="986,-6 986,-25 1079,-25 1079,-6 986,-6"/>
<text text-anchor="middle" x="1032.5" y="-13" font-family="Helvetica,sans-Serif" font-size="10.00">spdlog/spdlog.h</text>
</a>
</g>
</g>
<!-- Node6&#45;&gt;Node7 -->
<g id="edge6" class="edge">
<title>Node6&#45;&gt;Node7</title>
<path fill="none" stroke="midnightblue" d="M1181.66,-72.87C1151.63,-61.52 1098.72,-41.52 1064.66,-28.65"/>
<polygon fill="midnightblue" stroke="midnightblue" points="1065.75,-25.32 1055.16,-25.06 1063.28,-31.87 1065.75,-25.32"/>
</g>
<!-- Node8 -->
<g id="node8" class="node">
<title>Node8</title>
<g id="a_node8"><a xlink:title=" ">
<polygon fill="white" stroke="#bfbfbf" points="1097,-0.5 1097,-30.5 1208,-30.5 1208,-0.5 1097,-0.5"/>
<text text-anchor="start" x="1105" y="-18.5" font-family="Helvetica,sans-Serif" font-size="10.00">spdlog/sinks/stdout</text>
<text text-anchor="middle" x="1152.5" y="-7.5" font-family="Helvetica,sans-Serif" font-size="10.00">_color_sinks.h</text>
</a>
</g>
</g>
<!-- Node6&#45;&gt;Node8 -->
<g id="edge7" class="edge">
<title>Node6&#45;&gt;Node8</title>
<path fill="none" stroke="midnightblue" d="M1197.49,-72.73C1190.53,-64.03 1179.58,-50.34 1170.22,-38.65"/>
<polygon fill="midnightblue" stroke="midnightblue" points="1172.75,-36.21 1163.77,-30.59 1167.29,-40.58 1172.75,-36.21"/>
</g>
<!-- Node9 -->
<g id="node9" class="node">
<title>Node9</title>
<g id="a_node9"><a xlink:title=" ">
<polygon fill="white" stroke="#bfbfbf" points="1226.5,-6 1226.5,-25 1284.5,-25 1284.5,-6 1226.5,-6"/>
<text text-anchor="middle" x="1255.5" y="-13" font-family="Helvetica,sans-Serif" font-size="10.00">memory</text>
</a>
</g>
</g>
<!-- Node6&#45;&gt;Node9 -->
<g id="edge8" class="edge">
<title>Node6&#45;&gt;Node9</title>
<path fill="none" stroke="midnightblue" d="M1211.38,-72.73C1219.33,-62.6 1232.6,-45.69 1242.51,-33.06"/>
<polygon fill="midnightblue" stroke="midnightblue" points="1245.31,-35.16 1248.73,-25.13 1239.8,-30.83 1245.31,-35.16"/>
</g>
<!-- Node10 -->
<g id="node10" class="node">
<title>Node10</title>
<g id="a_node10"><a xlink:title=" ">
<polygon fill="white" stroke="#bfbfbf" points="1302.5,-6 1302.5,-25 1400.5,-25 1400.5,-6 1302.5,-6"/>
<text text-anchor="middle" x="1351.5" y="-13" font-family="Helvetica,sans-Serif" font-size="10.00">spdlog/fmt/fmt.h</text>
</a>
</g>
</g>
<!-- Node6&#45;&gt;Node10 -->
<g id="edge9" class="edge">
<title>Node6&#45;&gt;Node10</title>
<path fill="none" stroke="midnightblue" d="M1224.02,-72.87C1249.28,-61.7 1293.5,-42.15 1322.64,-29.26"/>
<polygon fill="midnightblue" stroke="midnightblue" points="1324.17,-32.41 1331.9,-25.17 1321.34,-26.01 1324.17,-32.41"/>
</g>
<!-- Node18&#45;&gt;Node12 -->
<g id="edge19" class="edge">
<title>Node18&#45;&gt;Node12</title>
<path fill="none" stroke="midnightblue" d="M751.97,-190.48C824.45,-179.64 939.28,-161.43 945.5,-154 967.69,-127.5 922.88,-106.93 885.08,-95.02"/>
<polygon fill="midnightblue" stroke="midnightblue" points="885.75,-91.57 875.17,-92.04 883.74,-98.27 885.75,-91.57"/>
</g>
<!-- Node19 -->
<g id="node19" class="node">
<title>Node19</title>
<g id="a_node19"><a xlink:title=" ">
<polygon fill="white" stroke="#bfbfbf" points="657,-134.5 657,-153.5 730,-153.5 730,-134.5 657,-134.5"/>
<text text-anchor="middle" x="693.5" y="-141.5" font-family="Helvetica,sans-Serif" font-size="10.00">G4Types.hh</text>
</a>
</g>
</g>
<!-- Node18&#45;&gt;Node19 -->
<g id="edge20" class="edge">
<title>Node18&#45;&gt;Node19</title>
<path fill="none" stroke="midnightblue" d="M693.5,-190.08C693.5,-183.01 693.5,-172.86 693.5,-163.99"/>
<polygon fill="midnightblue" stroke="midnightblue" points="697,-163.75 693.5,-153.75 690,-163.75 697,-163.75"/>
</g>
<!-- Node20 -->
<g id="node20" class="node">
<title>Node20</title>
<g id="a_node20"><a xlink:title=" ">
<polygon fill="white" stroke="#bfbfbf" points="748.5,-134.5 748.5,-153.5 786.5,-153.5 786.5,-134.5 748.5,-134.5"/>
<text text-anchor="middle" x="767.5" y="-141.5" font-family="Helvetica,sans-Serif" font-size="10.00">map</text>
</a>
</g>
</g>
<!-- Node18&#45;&gt;Node20 -->
<g id="edge21" class="edge">
<title>Node18&#45;&gt;Node20</title>
<path fill="none" stroke="midnightblue" d="M705.39,-190.32C716.65,-182.11 733.79,-169.6 747.21,-159.81"/>
<polygon fill="midnightblue" stroke="midnightblue" points="749.38,-162.56 755.39,-153.83 745.25,-156.9 749.38,-162.56"/>
</g>
<!-- Node21 -->
<g id="node21" class="node">
<title>Node21</title>
<g id="a_node21"><a xlink:title=" ">
<polygon fill="white" stroke="#bfbfbf" points="805,-134.5 805,-153.5 866,-153.5 866,-134.5 805,-134.5"/>
<text text-anchor="middle" x="835.5" y="-141.5" font-family="Helvetica,sans-Serif" font-size="10.00">TGraph.h</text>
</a>
</g>
</g>
<!-- Node18&#45;&gt;Node21 -->
<g id="edge22" class="edge">
<title>Node18&#45;&gt;Node21</title>
<path fill="none" stroke="midnightblue" d="M716,-190.44C739.58,-181.48 776.82,-167.31 803.46,-157.18"/>
<polygon fill="midnightblue" stroke="midnightblue" points="805,-160.34 813.1,-153.52 802.51,-153.8 805,-160.34"/>
</g>
<!-- Node22 -->
<g id="node22" class="node">
<title>Node22</title>
<g id="a_node22"><a xlink:title=" ">
<polygon fill="white" stroke="#bfbfbf" points="884,-134.5 884,-153.5 937,-153.5 937,-134.5 884,-134.5"/>
<text text-anchor="middle" x="910.5" y="-141.5" font-family="Helvetica,sans-Serif" font-size="10.00">TH2D.h</text>
</a>
</g>
</g>
<!-- Node18&#45;&gt;Node22 -->
<g id="edge23" class="edge">
<title>Node18&#45;&gt;Node22</title>
<path fill="none" stroke="midnightblue" d="M727.87,-190.47C762.28,-181.92 817.04,-168.32 873.88,-154.15"/>
<polygon fill="midnightblue" stroke="midnightblue" points="874.91,-157.5 883.76,-151.69 873.21,-150.71 874.91,-157.5"/>
</g>
<!-- Node25&#45;&gt;Node3 -->
<g id="edge34" class="edge">
<title>Node25&#45;&gt;Node3</title>
<path fill="none" stroke="midnightblue" d="M593.49,-302.44C573.91,-293.64 543.19,-279.81 520.77,-269.72"/>
<polygon fill="midnightblue" stroke="midnightblue" points="521.98,-266.43 511.43,-265.52 519.11,-272.81 521.98,-266.43"/>
</g>
<!-- Node25&#45;&gt;Node4 -->
<g id="edge27" class="edge">
<title>Node25&#45;&gt;Node4</title>
<path fill="none" stroke="midnightblue" d="M612.21,-302.33C611.32,-288.74 607.73,-262.29 593.5,-246 579.73,-230.24 559.38,-219.74 540.54,-212.89"/>
<polygon fill="midnightblue" stroke="midnightblue" points="541.47,-209.5 530.88,-209.62 539.23,-216.14 541.47,-209.5"/>
</g>
<!-- Node26 -->
<g id="node26" class="node">
<title>Node26</title>
<g id="a_node26"><a xlink:href="_o_m_sim_hit_manager_8hh.html" target="_top" xlink:title="Defines structures and classes related to optical module photon hit management.">
<polygon fill="white" stroke="black" points="826,-246.5 826,-265.5 949,-265.5 949,-246.5 826,-246.5"/>
<text text-anchor="middle" x="887.5" y="-253.5" font-family="Helvetica,sans-Serif" font-size="10.00">OMSimHitManager.hh</text>
</a>
</g>
</g>
<!-- Node25&#45;&gt;Node26 -->
<g id="edge28" class="edge">
<title>Node25&#45;&gt;Node26</title>
<path fill="none" stroke="midnightblue" d="M656.07,-302.44C704.35,-292.96 782.21,-277.67 834.11,-267.48"/>
<polygon fill="midnightblue" stroke="midnightblue" points="834.99,-270.88 844.13,-265.52 833.64,-264.01 834.99,-270.88"/>
</g>
<!-- Node26&#45;&gt;Node18 -->
<g id="edge29" class="edge">
<title>Node26&#45;&gt;Node18</title>
<path fill="none" stroke="midnightblue" d="M856.76,-246.44C823.56,-237.2 770.51,-222.44 733.94,-212.26"/>
<polygon fill="midnightblue" stroke="midnightblue" points="734.67,-208.83 724.1,-209.52 732.79,-215.57 734.67,-208.83"/>
</g>
<!-- Node27 -->
<g id="node27" class="node">
<title>Node27</title>
<g id="a_node27"><a xlink:title=" ">
<polygon fill="white" stroke="#bfbfbf" points="779,-190.5 779,-209.5 882,-209.5 882,-190.5 779,-190.5"/>
<text text-anchor="middle" x="830.5" y="-197.5" font-family="Helvetica,sans-Serif" font-size="10.00">G4ThreeVector.hh</text>
</a>
</g>
</g>
<!-- Node26&#45;&gt;Node27 -->
<g id="edge30" class="edge">
<title>Node26&#45;&gt;Node27</title>
<path fill="none" stroke="midnightblue" d="M878.34,-246.32C870,-238.42 857.47,-226.55 847.32,-216.94"/>
<polygon fill="midnightblue" stroke="midnightblue" points="849.49,-214.17 839.82,-209.83 844.68,-219.25 849.49,-214.17"/>
</g>
<!-- Node28 -->
<g id="node28" class="node">
<title>Node28</title>
<g id="a_node28"><a xlink:title=" ">
<polygon fill="white" stroke="#bfbfbf" points="1121,-190.5 1121,-209.5 1176,-209.5 1176,-190.5 1121,-190.5"/>
<text text-anchor="middle" x="1148.5" y="-197.5" font-family="Helvetica,sans-Serif" font-size="10.00">fstream</text>
</a>
</g>
</g>
<!-- Node26&#45;&gt;Node28 -->
<g id="edge31" class="edge">
<title>Node26&#45;&gt;Node28</title>
<path fill="none" stroke="midnightblue" d="M932.66,-246.48C975.86,-238.21 1043.07,-225.02 1110.67,-210.11"/>
<polygon fill="midnightblue" stroke="midnightblue" points="1111.64,-213.48 1120.65,-207.9 1110.13,-206.65 1111.64,-213.48"/>
</g>
<!-- Node29 -->
<g id="node29" class="node">
<title>Node29</title>
<g id="a_node29"><a xlink:title=" ">
<polygon fill="white" stroke="#bfbfbf" points="900.5,-190.5 900.5,-209.5 990.5,-209.5 990.5,-190.5 900.5,-190.5"/>
<text text-anchor="middle" x="945.5" y="-197.5" font-family="Helvetica,sans-Serif" font-size="10.00">G4AutoLock.hh</text>
</a>
</g>
</g>
<!-- Node26&#45;&gt;Node29 -->
<g id="edge32" class="edge">
<title>Node26&#45;&gt;Node29</title>
<path fill="none" stroke="midnightblue" d="M896.82,-246.32C905.39,-238.34 918.31,-226.31 928.69,-216.65"/>
<polygon fill="midnightblue" stroke="midnightblue" points="931.08,-219.21 936.01,-209.83 926.31,-214.09 931.08,-219.21"/>
</g>
<!-- Node30 -->
<g id="node30" class="node">
<title>Node30</title>
<g id="a_node30"><a xlink:title=" ">
<polygon fill="white" stroke="#bfbfbf" points="1008.5,-190.5 1008.5,-209.5 1102.5,-209.5 1102.5,-190.5 1008.5,-190.5"/>
<text text-anchor="middle" x="1055.5" y="-197.5" font-family="Helvetica,sans-Serif" font-size="10.00">G4Threading.hh</text>
</a>
</g>
</g>
<!-- Node26&#45;&gt;Node30 -->
<g id="edge33" class="edge">
<title>Node26&#45;&gt;Node30</title>
<path fill="none" stroke="midnightblue" d="M914.12,-246.44C942.51,-237.32 987.64,-222.81 1019.25,-212.65"/>
<polygon fill="midnightblue" stroke="midnightblue" points="1020.56,-215.91 1029,-209.52 1018.41,-209.24 1020.56,-215.91"/>
</g>
<!-- Node31&#45;&gt;Node6 -->
<g id="edge37" class="edge">
<title>Node31&#45;&gt;Node6</title>
<path fill="none" stroke="midnightblue" d="M1301.85,-246.2C1290.63,-237.89 1274.39,-224.56 1263.5,-210 1237.59,-175.36 1219.13,-127.52 1210.33,-101.74"/>
<polygon fill="midnightblue" stroke="midnightblue" points="1213.61,-100.53 1207.15,-92.14 1206.97,-102.73 1213.61,-100.53"/>
</g>
<!-- Node31&#45;&gt;Node28 -->
<g id="edge38" class="edge">
<title>Node31&#45;&gt;Node28</title>
<path fill="none" stroke="midnightblue" d="M1288.2,-246.44C1260.15,-237.32 1215.56,-222.81 1184.32,-212.65"/>
<polygon fill="midnightblue" stroke="midnightblue" points="1185.27,-209.28 1174.68,-209.52 1183.11,-215.94 1185.27,-209.28"/>
</g>
<!-- Node32 -->
<g id="node32" class="node">
<title>Node32</title>
<g id="a_node32"><a xlink:title=" ">
<polygon fill="white" stroke="#bfbfbf" points="1272.5,-190.5 1272.5,-209.5 1356.5,-209.5 1356.5,-190.5 1272.5,-190.5"/>
<text text-anchor="middle" x="1314.5" y="-197.5" font-family="Helvetica,sans-Serif" font-size="10.00">boost/any.hpp</text>
</a>
</g>
</g>
<!-- Node31&#45;&gt;Node32 -->
<g id="edge39" class="edge">
<title>Node31&#45;&gt;Node32</title>
<path fill="none" stroke="midnightblue" d="M1314.5,-246.08C1314.5,-239.01 1314.5,-228.86 1314.5,-219.99"/>
<polygon fill="midnightblue" stroke="midnightblue" points="1318,-219.75 1314.5,-209.75 1311,-219.75 1318,-219.75"/>
</g>
<!-- Node33 -->
<g id="node33" class="node">
<title>Node33</title>
<g id="a_node33"><a xlink:title=" ">
<polygon fill="white" stroke="#bfbfbf" points="1374.5,-190.5 1374.5,-209.5 1442.5,-209.5 1442.5,-190.5 1374.5,-190.5"/>
<text text-anchor="middle" x="1408.5" y="-197.5" font-family="Helvetica,sans-Serif" font-size="10.00">sys/time.h</text>
</a>
</g>
</g>
<!-- Node31&#45;&gt;Node33 -->
<g id="edge40" class="edge">
<title>Node31&#45;&gt;Node33</title>
<path fill="none" stroke="midnightblue" d="M1329.6,-246.32C1344.4,-237.82 1367.19,-224.73 1384.48,-214.8"/>
<polygon fill="midnightblue" stroke="midnightblue" points="1386.51,-217.67 1393.43,-209.65 1383.02,-211.6 1386.51,-217.67"/>
</g>
</g>
</svg>
