<?xml version="1.0" encoding="UTF-8" standalone="no"?>
<!DOCTYPE svg PUBLIC "-//W3C//DTD SVG 1.1//EN"
 "http://www.w3.org/Graphics/SVG/1.1/DTD/svg11.dtd">
<!-- Generated by graphviz version 2.43.0 (0)
 -->
<!-- Title: OMSim.hh Pages: 1 -->
<svg width="2222pt" height="442pt"
 viewBox="0.00 0.00 2221.50 442.00" xmlns="http://www.w3.org/2000/svg" xmlns:xlink="http://www.w3.org/1999/xlink">
<g id="graph0" class="graph" transform="scale(1 1) rotate(0) translate(4 438)">
<title>OMSim.hh</title>
<polygon fill="white" stroke="transparent" points="-4,4 -4,-438 2217.5,-438 2217.5,4 -4,4"/>
<!-- Node1 -->
<g id="node1" class="node">
<title>Node1</title>
<g id="a_node1"><a xlink:title="Main simulation class for the Optical Module (OM) simulation. This file defines the OMSim class,...">
<polygon fill="#bfbfbf" stroke="black" points="1328,-414.5 1328,-433.5 1395,-433.5 1395,-414.5 1328,-414.5"/>
<text text-anchor="middle" x="1361.5" y="-421.5" font-family="Helvetica,sans-Serif" font-size="10.00">OMSim.hh</text>
</a>
</g>
</g>
<!-- Node2 -->
<g id="node2" class="node">
<title>Node2</title>
<g id="a_node2"><a xlink:href="_o_m_sim_detector_construction_8hh.html" target="_top" xlink:title=" ">
<polygon fill="white" stroke="black" points="484.5,-358.5 484.5,-377.5 654.5,-377.5 654.5,-358.5 484.5,-358.5"/>
<text text-anchor="middle" x="569.5" y="-365.5" font-family="Helvetica,sans-Serif" font-size="10.00">OMSimDetectorConstruction.hh</text>
</a>
</g>
</g>
<!-- Node1&#45;&gt;Node2 -->
<g id="edge1" class="edge">
<title>Node1&#45;&gt;Node2</title>
<path fill="none" stroke="midnightblue" d="M1327.7,-421.19C1228.02,-415.79 926.39,-398.87 664.62,-378.07"/>
<polygon fill="midnightblue" stroke="midnightblue" points="664.79,-374.57 654.54,-377.26 664.23,-381.55 664.79,-374.57"/>
</g>
<!-- Node34 -->
<g id="node32" class="node">
<title>Node34</title>
<g id="a_node32"><a xlink:title=" ">
<polygon fill="white" stroke="#bfbfbf" points="673,-358.5 673,-377.5 794,-377.5 794,-358.5 673,-358.5"/>
<text text-anchor="middle" x="733.5" y="-365.5" font-family="Helvetica,sans-Serif" font-size="10.00">OMSimPhysicsList.hh</text>
</a>
</g>
</g>
<!-- Node1&#45;&gt;Node34 -->
<g id="edge38" class="edge">
<title>Node1&#45;&gt;Node34</title>
<path fill="none" stroke="midnightblue" d="M1327.74,-420.87C1242.03,-415.32 1008.91,-399.47 804.1,-378.12"/>
<polygon fill="midnightblue" stroke="midnightblue" points="804.37,-374.63 794.06,-377.07 803.64,-381.6 804.37,-374.63"/>
</g>
<!-- Node35 -->
<g id="node33" class="node">
<title>Node35</title>
<g id="a_node33"><a xlink:title=" ">
<polygon fill="white" stroke="#bfbfbf" points="812,-358.5 812,-377.5 997,-377.5 997,-358.5 812,-358.5"/>
<text text-anchor="middle" x="904.5" y="-365.5" font-family="Helvetica,sans-Serif" font-size="10.00">OMSimPrimaryGeneratorAction.hh</text>
</a>
</g>
</g>
<!-- Node1&#45;&gt;Node35 -->
<g id="edge39" class="edge">
<title>Node1&#45;&gt;Node35</title>
<path fill="none" stroke="midnightblue" d="M1327.9,-419.03C1256.65,-410.61 1088.65,-390.76 986.99,-378.75"/>
<polygon fill="midnightblue" stroke="midnightblue" points="987.1,-375.24 976.76,-377.54 986.28,-382.19 987.1,-375.24"/>
</g>
<!-- Node36 -->
<g id="node34" class="node">
<title>Node36</title>
<g id="a_node34"><a xlink:href="_o_m_sim_run_action_8hh.html" target="_top" xlink:title=" ">
<polygon fill="white" stroke="black" points="1014.5,-358.5 1014.5,-377.5 1130.5,-377.5 1130.5,-358.5 1014.5,-358.5"/>
<text text-anchor="middle" x="1072.5" y="-365.5" font-family="Helvetica,sans-Serif" font-size="10.00">OMSimRunAction.hh</text>
</a>
</g>
</g>
<!-- Node1&#45;&gt;Node36 -->
<g id="edge40" class="edge">
<title>Node1&#45;&gt;Node36</title>
<path fill="none" stroke="midnightblue" d="M1327.78,-416.7C1278.8,-407.55 1187.37,-390.46 1128.27,-379.42"/>
<polygon fill="midnightblue" stroke="midnightblue" points="1128.82,-375.96 1118.35,-377.57 1127.53,-382.84 1128.82,-375.96"/>
</g>
<!-- Node38 -->
<g id="node36" class="node">
<title>Node38</title>
<g id="a_node36"><a xlink:title=" ">
<polygon fill="white" stroke="#bfbfbf" points="1149,-358.5 1149,-377.5 1274,-377.5 1274,-358.5 1149,-358.5"/>
<text text-anchor="middle" x="1211.5" y="-365.5" font-family="Helvetica,sans-Serif" font-size="10.00">OMSimEventAction.hh</text>
</a>
</g>
</g>
<!-- Node1&#45;&gt;Node38 -->
<g id="edge42" class="edge">
<title>Node1&#45;&gt;Node38</title>
<path fill="none" stroke="midnightblue" d="M1337.73,-414.44C1312.61,-405.4 1272.79,-391.06 1244.6,-380.92"/>
<polygon fill="midnightblue" stroke="midnightblue" points="1245.75,-377.61 1235.16,-377.52 1243.38,-384.2 1245.75,-377.61"/>
</g>
<!-- Node39 -->
<g id="node37" class="node">
<title>Node39</title>
<g id="a_node37"><a xlink:href="_o_m_sim_tracking_action_8hh.html" target="_top" xlink:title=" ">
<polygon fill="white" stroke="black" points="1292.5,-358.5 1292.5,-377.5 1430.5,-377.5 1430.5,-358.5 1292.5,-358.5"/>
<text text-anchor="middle" x="1361.5" y="-365.5" font-family="Helvetica,sans-Serif" font-size="10.00">OMSimTrackingAction.hh</text>
</a>
</g>
</g>
<!-- Node1&#45;&gt;Node39 -->
<g id="edge43" class="edge">
<title>Node1&#45;&gt;Node39</title>
<path fill="none" stroke="midnightblue" d="M1361.5,-414.08C1361.5,-407.01 1361.5,-396.86 1361.5,-387.99"/>
<polygon fill="midnightblue" stroke="midnightblue" points="1365,-387.75 1361.5,-377.75 1358,-387.75 1365,-387.75"/>
</g>
<!-- Node41 -->
<g id="node39" class="node">
<title>Node41</title>
<g id="a_node39"><a xlink:href="_o_m_sim_stepping_action_8hh.html" target="_top" xlink:title="Defines OMSimSteppingAction.Currently it only checks for trapped photons.">
<polygon fill="white" stroke="black" points="1448.5,-358.5 1448.5,-377.5 1588.5,-377.5 1588.5,-358.5 1448.5,-358.5"/>
<text text-anchor="middle" x="1518.5" y="-365.5" font-family="Helvetica,sans-Serif" font-size="10.00">OMSimSteppingAction.hh</text>
</a>
</g>
</g>
<!-- Node1&#45;&gt;Node41 -->
<g id="edge45" class="edge">
<title>Node1&#45;&gt;Node41</title>
<path fill="none" stroke="midnightblue" d="M1386.38,-414.44C1412.79,-405.36 1454.72,-390.94 1484.24,-380.78"/>
<polygon fill="midnightblue" stroke="midnightblue" points="1485.42,-384.08 1493.74,-377.52 1483.14,-377.46 1485.42,-384.08"/>
</g>
<!-- Node43 -->
<g id="node41" class="node">
<title>Node43</title>
<g id="a_node41"><a xlink:href="_o_m_sim_u_iinterface_8hh.html" target="_top" xlink:title="The OMSimUIinterface class provides a singleton interface to Geant4&#39;s UI manager.">
<polygon fill="white" stroke="black" points="224,-302.5 224,-321.5 345,-321.5 345,-302.5 224,-302.5"/>
<text text-anchor="middle" x="284.5" y="-309.5" font-family="Helvetica,sans-Serif" font-size="10.00">OMSimUIinterface.hh</text>
</a>
</g>
</g>
<!-- Node1&#45;&gt;Node43 -->
<g id="edge47" class="edge">
<title>Node1&#45;&gt;Node43</title>
<path fill="none" stroke="midnightblue" d="M1327.65,-422.53C1186.38,-420.39 643.4,-410.18 475.5,-378 416.23,-366.64 350.22,-341.13 313.39,-325.66"/>
<polygon fill="midnightblue" stroke="midnightblue" points="314.38,-322.27 303.81,-321.58 311.64,-328.72 314.38,-322.27"/>
</g>
<!-- Node48 -->
<g id="node46" class="node">
<title>Node48</title>
<g id="a_node46"><a xlink:title=" ">
<polygon fill="white" stroke="#bfbfbf" points="1606.5,-358.5 1606.5,-377.5 1712.5,-377.5 1712.5,-358.5 1606.5,-358.5"/>
<text text-anchor="middle" x="1659.5" y="-365.5" font-family="Helvetica,sans-Serif" font-size="10.00">G4RunManager.hh</text>
</a>
</g>
</g>
<!-- Node1&#45;&gt;Node48 -->
<g id="edge54" class="edge">
<title>Node1&#45;&gt;Node48</title>
<path fill="none" stroke="midnightblue" d="M1395.11,-416.91C1445.5,-407.78 1541.27,-390.42 1602.66,-379.3"/>
<polygon fill="midnightblue" stroke="midnightblue" points="1603.37,-382.73 1612.58,-377.5 1602.12,-375.84 1603.37,-382.73"/>
</g>
<!-- Node49 -->
<g id="node47" class="node">
<title>Node49</title>
<g id="a_node47"><a xlink:title=" ">
<polygon fill="white" stroke="#bfbfbf" points="1731,-358.5 1731,-377.5 1838,-377.5 1838,-358.5 1731,-358.5"/>
<text text-anchor="middle" x="1784.5" y="-365.5" font-family="Helvetica,sans-Serif" font-size="10.00">G4VisExecutive.hh</text>
</a>
</g>
</g>
<!-- Node1&#45;&gt;Node49 -->
<g id="edge55" class="edge">
<title>Node1&#45;&gt;Node49</title>
<path fill="none" stroke="midnightblue" d="M1395.28,-418.98C1457.39,-411.54 1594.17,-394.96 1720.64,-378.09"/>
<polygon fill="midnightblue" stroke="midnightblue" points="1721.44,-381.52 1730.89,-376.72 1720.52,-374.58 1721.44,-381.52"/>
</g>
<!-- Node50 -->
<g id="node48" class="node">
<title>Node50</title>
<g id="a_node48"><a xlink:title=" ">
<polygon fill="white" stroke="#bfbfbf" points="1856,-358.5 1856,-377.5 1959,-377.5 1959,-358.5 1856,-358.5"/>
<text text-anchor="middle" x="1907.5" y="-365.5" font-family="Helvetica,sans-Serif" font-size="10.00">G4UIExecutive.hh</text>
</a>
</g>
</g>
<!-- Node1&#45;&gt;Node50 -->
<g id="edge56" class="edge">
<title>Node1&#45;&gt;Node50</title>
<path fill="none" stroke="midnightblue" d="M1395.15,-420.54C1472.73,-414.74 1670.28,-399.15 1845.63,-378.17"/>
<polygon fill="midnightblue" stroke="midnightblue" points="1846.31,-381.61 1855.81,-376.94 1845.47,-374.66 1846.31,-381.61"/>
</g>
<!-- Node51 -->
<g id="node49" class="node">
<title>Node51</title>
<g id="a_node49"><a xlink:title=" ">
<polygon fill="white" stroke="#bfbfbf" points="1977.5,-358.5 1977.5,-377.5 2045.5,-377.5 2045.5,-358.5 1977.5,-358.5"/>
<text text-anchor="middle" x="2011.5" y="-365.5" font-family="Helvetica,sans-Serif" font-size="10.00">filesystem</text>
</a>
</g>
</g>
<!-- Node1&#45;&gt;Node51 -->
<g id="edge57" class="edge">
<title>Node1&#45;&gt;Node51</title>
<path fill="none" stroke="midnightblue" d="M1395.23,-422.06C1486.09,-419.21 1743.69,-408.94 1967.35,-377.98"/>
<polygon fill="midnightblue" stroke="midnightblue" points="1967.89,-381.44 1977.3,-376.58 1966.92,-374.5 1967.89,-381.44"/>
</g>
<!-- Node52 -->
<g id="node50" class="node">
<title>Node52</title>
<g id="a_node50"><a xlink:title=" ">
<polygon fill="white" stroke="#bfbfbf" points="2063.5,-358.5 2063.5,-377.5 2213.5,-377.5 2213.5,-358.5 2063.5,-358.5"/>
<text text-anchor="middle" x="2138.5" y="-365.5" font-family="Helvetica,sans-Serif" font-size="10.00">boost/program_options.hpp</text>
</a>
</g>
</g>
<!-- Node1&#45;&gt;Node52 -->
<g id="edge58" class="edge">
<title>Node1&#45;&gt;Node52</title>
<path fill="none" stroke="midnightblue" d="M1395.07,-421.32C1494.07,-416.26 1793.61,-400.19 2053.41,-378.06"/>
<polygon fill="midnightblue" stroke="midnightblue" points="2053.74,-381.54 2063.41,-377.2 2053.15,-374.57 2053.74,-381.54"/>
</g>
<!-- Node3 -->
<g id="node3" class="node">
<title>Node3</title>
<g id="a_node3"><a xlink:href="_o_m_sim_optical_module_8hh.html" target="_top" xlink:title=" ">
<polygon fill="white" stroke="black" points="442,-302.5 442,-321.5 579,-321.5 579,-302.5 442,-302.5"/>
<text text-anchor="middle" x="510.5" y="-309.5" font-family="Helvetica,sans-Serif" font-size="10.00">OMSimOpticalModule.hh</text>
</a>
</g>
</g>
<!-- Node2&#45;&gt;Node3 -->
<g id="edge2" class="edge">
<title>Node2&#45;&gt;Node3</title>
<path fill="none" stroke="midnightblue" d="M560.02,-358.32C551.3,-350.34 538.16,-338.31 527.6,-328.65"/>
<polygon fill="midnightblue" stroke="midnightblue" points="529.89,-326 520.15,-321.83 525.17,-331.17 529.89,-326"/>
</g>
<!-- Node32 -->
<g id="node30" class="node">
<title>Node32</title>
<g id="a_node30"><a xlink:title=" ">
<polygon fill="white" stroke="#bfbfbf" points="597.5,-302.5 597.5,-321.5 659.5,-321.5 659.5,-302.5 597.5,-302.5"/>
<text text-anchor="middle" x="628.5" y="-309.5" font-family="Helvetica,sans-Serif" font-size="10.00">G4Orb.hh</text>
</a>
</g>
</g>
<!-- Node2&#45;&gt;Node32 -->
<g id="edge36" class="edge">
<title>Node2&#45;&gt;Node32</title>
<path fill="none" stroke="midnightblue" d="M578.98,-358.32C587.7,-350.34 600.84,-338.31 611.4,-328.65"/>
<polygon fill="midnightblue" stroke="midnightblue" points="613.83,-331.17 618.85,-321.83 609.11,-326 613.83,-331.17"/>
</g>
<!-- Node33 -->
<g id="node31" class="node">
<title>Node33</title>
<g id="a_node31"><a xlink:title=" ">
<polygon fill="white" stroke="#bfbfbf" points="677.5,-302.5 677.5,-321.5 855.5,-321.5 855.5,-302.5 677.5,-302.5"/>
<text text-anchor="middle" x="766.5" y="-309.5" font-family="Helvetica,sans-Serif" font-size="10.00">G4VUserDetectorConstruction.hh</text>
</a>
</g>
</g>
<!-- Node2&#45;&gt;Node33 -->
<g id="edge37" class="edge">
<title>Node2&#45;&gt;Node33</title>
<path fill="none" stroke="midnightblue" d="M600.72,-358.44C634.43,-349.2 688.3,-334.44 725.43,-324.26"/>
<polygon fill="midnightblue" stroke="midnightblue" points="726.71,-327.54 735.43,-321.52 724.86,-320.78 726.71,-327.54"/>
</g>
<!-- Node4 -->
<g id="node4" class="node">
<title>Node4</title>
<g id="a_node4"><a xlink:href="abc_detector_component_8hh.html" target="_top" xlink:title="Provides helper base class abcDetectorComponent for constructing and managing detector components in ...">
<polygon fill="white" stroke="black" points="805,-190.5 805,-209.5 952,-209.5 952,-190.5 805,-190.5"/>
<text text-anchor="middle" x="878.5" y="-197.5" font-family="Helvetica,sans-Serif" font-size="10.00">abcDetectorComponent.hh</text>
</a>
</g>
</g>
<!-- Node3&#45;&gt;Node4 -->
<g id="edge3" class="edge">
<title>Node3&#45;&gt;Node4</title>
<path fill="none" stroke="midnightblue" d="M574.64,-302.43C620.68,-295.28 683.81,-283.43 737.5,-266 779.93,-252.23 826.42,-229.1 854,-214.47"/>
<polygon fill="midnightblue" stroke="midnightblue" points="855.77,-217.49 862.92,-209.67 852.46,-211.32 855.77,-217.49"/>
</g>
<!-- Node18 -->
<g id="node18" class="node">
<title>Node18</title>
<g id="a_node18"><a xlink:href="_o_m_sim_hit_manager_8hh.html" target="_top" xlink:title="Defines structures and classes related to optical module photon hit management.">
<polygon fill="white" stroke="black" points="352,-246.5 352,-265.5 475,-265.5 475,-246.5 352,-246.5"/>
<text text-anchor="middle" x="413.5" y="-253.5" font-family="Helvetica,sans-Serif" font-size="10.00">OMSimHitManager.hh</text>
</a>
</g>
</g>
<!-- Node3&#45;&gt;Node18 -->
<g id="edge17" class="edge">
<title>Node3&#45;&gt;Node18</title>
<path fill="none" stroke="midnightblue" d="M494.92,-302.32C479.5,-293.74 455.69,-280.49 437.79,-270.52"/>
<polygon fill="midnightblue" stroke="midnightblue" points="439.49,-267.46 429.05,-265.65 436.08,-273.58 439.49,-267.46"/>
</g>
<!-- Node29 -->
<g id="node27" class="node">
<title>Node29</title>
<g id="a_node27"><a xlink:href="_o_m_sim_p_m_t_construction_8hh.html" target="_top" xlink:title="Construction of the PMTs.">
<polygon fill="white" stroke="black" points="562,-246.5 562,-265.5 711,-265.5 711,-246.5 562,-246.5"/>
<text text-anchor="middle" x="636.5" y="-253.5" font-family="Helvetica,sans-Serif" font-size="10.00">OMSimPMTConstruction.hh</text>
</a>
</g>
</g>
<!-- Node3&#45;&gt;Node29 -->
<g id="edge30" class="edge">
<title>Node3&#45;&gt;Node29</title>
<path fill="none" stroke="midnightblue" d="M530.47,-302.44C551.11,-293.6 583.56,-279.69 607.13,-269.59"/>
<polygon fill="midnightblue" stroke="midnightblue" points="608.82,-272.67 616.63,-265.52 606.06,-266.24 608.82,-272.67"/>
</g>
<!-- Node5 -->
<g id="node5" class="node">
<title>Node5</title>
<g id="a_node5"><a xlink:href="_o_m_sim_input_data_8hh.html" target="_top" xlink:title="Definition of ParameterTable and InputDataManager.">
<polygon fill="white" stroke="black" points="533,-134.5 533,-153.5 648,-153.5 648,-134.5 533,-134.5"/>
<text text-anchor="middle" x="590.5" y="-141.5" font-family="Helvetica,sans-Serif" font-size="10.00">OMSimInputData.hh</text>
</a>
</g>
</g>
<!-- Node4&#45;&gt;Node5 -->
<g id="edge4" class="edge">
<title>Node4&#45;&gt;Node5</title>
<path fill="none" stroke="midnightblue" d="M832.87,-190.44C782.2,-180.94 700.43,-165.61 646.07,-155.42"/>
<polygon fill="midnightblue" stroke="midnightblue" points="646.39,-151.92 635.92,-153.52 645.1,-158.8 646.39,-151.92"/>
</g>
<!-- Node14 -->
<g id="node14" class="node">
<title>Node14</title>
<g id="a_node14"><a xlink:title=" ">
<polygon fill="white" stroke="#bfbfbf" points="1103,-134.5 1103,-153.5 1210,-153.5 1210,-134.5 1103,-134.5"/>
<text text-anchor="middle" x="1156.5" y="-141.5" font-family="Helvetica,sans-Serif" font-size="10.00">G4Transform3D.hh</text>
</a>
</g>
</g>
<!-- Node4&#45;&gt;Node14 -->
<g id="edge13" class="edge">
<title>Node4&#45;&gt;Node14</title>
<path fill="none" stroke="midnightblue" d="M922.55,-190.44C971.35,-180.96 1050.06,-165.67 1102.53,-155.48"/>
<polygon fill="midnightblue" stroke="midnightblue" points="1103.51,-158.86 1112.66,-153.52 1102.17,-151.99 1103.51,-158.86"/>
</g>
<!-- Node15 -->
<g id="node15" class="node">
<title>Node15</title>
<g id="a_node15"><a xlink:title=" ">
<polygon fill="white" stroke="#bfbfbf" points="704.5,-134.5 704.5,-153.5 812.5,-153.5 812.5,-134.5 704.5,-134.5"/>
<text text-anchor="middle" x="758.5" y="-141.5" font-family="Helvetica,sans-Serif" font-size="10.00">G4VisAttributes.hh</text>
</a>
</g>
</g>
<!-- Node4&#45;&gt;Node15 -->
<g id="edge14" class="edge">
<title>Node4&#45;&gt;Node15</title>
<path fill="none" stroke="midnightblue" d="M859.49,-190.44C839.91,-181.64 809.19,-167.81 786.77,-157.72"/>
<polygon fill="midnightblue" stroke="midnightblue" points="787.98,-154.43 777.43,-153.52 785.11,-160.81 787.98,-154.43"/>
</g>
<!-- Node16 -->
<g id="node16" class="node">
<title>Node16</title>
<g id="a_node16"><a xlink:title=" ">
<polygon fill="white" stroke="#bfbfbf" points="831,-134.5 831,-153.5 956,-153.5 956,-134.5 831,-134.5"/>
<text text-anchor="middle" x="893.5" y="-141.5" font-family="Helvetica,sans-Serif" font-size="10.00">G4SubtractionSolid.hh</text>
</a>
</g>
</g>
<!-- Node4&#45;&gt;Node16 -->
<g id="edge15" class="edge">
<title>Node4&#45;&gt;Node16</title>
<path fill="none" stroke="midnightblue" d="M880.98,-190.08C882.99,-182.85 885.89,-172.41 888.39,-163.4"/>
<polygon fill="midnightblue" stroke="midnightblue" points="891.76,-164.32 891.07,-153.75 885.02,-162.45 891.76,-164.32"/>
</g>
<!-- Node17 -->
<g id="node17" class="node">
<title>Node17</title>
<g id="a_node17"><a xlink:title=" ">
<polygon fill="white" stroke="#bfbfbf" points="974.5,-134.5 974.5,-153.5 1084.5,-153.5 1084.5,-134.5 974.5,-134.5"/>
<text text-anchor="middle" x="1029.5" y="-141.5" font-family="Helvetica,sans-Serif" font-size="10.00">G4PVPlacement.hh</text>
</a>
</g>
</g>
<!-- Node4&#45;&gt;Node17 -->
<g id="edge16" class="edge">
<title>Node4&#45;&gt;Node17</title>
<path fill="none" stroke="midnightblue" d="M902.43,-190.44C927.72,-181.4 967.8,-167.06 996.18,-156.92"/>
<polygon fill="midnightblue" stroke="midnightblue" points="997.45,-160.18 1005.69,-153.52 995.09,-153.59 997.45,-160.18"/>
</g>
<!-- Node6 -->
<g id="node6" class="node">
<title>Node6</title>
<g id="a_node6"><a xlink:href="_o_m_sim_logger_8hh.html" target="_top" xlink:title=" ">
<polygon fill="white" stroke="black" points="168,-73 168,-92 267,-92 267,-73 168,-73"/>
<text text-anchor="middle" x="217.5" y="-80" font-family="Helvetica,sans-Serif" font-size="10.00">OMSimLogger.hh</text>
</a>
</g>
</g>
<!-- Node5&#45;&gt;Node6 -->
<g id="edge5" class="edge">
<title>Node5&#45;&gt;Node6</title>
<path fill="none" stroke="midnightblue" d="M532.78,-135.04C449.02,-123.45 301.06,-102.77 276.5,-98 271.06,-96.95 265.38,-95.71 259.77,-94.42"/>
<polygon fill="midnightblue" stroke="midnightblue" points="260.37,-90.97 249.83,-92.06 258.75,-97.78 260.37,-90.97"/>
</g>
<!-- Node11 -->
<g id="node11" class="node">
<title>Node11</title>
<g id="a_node11"><a xlink:title=" ">
<polygon fill="white" stroke="#bfbfbf" points="760,-73 760,-92 903,-92 903,-73 760,-73"/>
<text text-anchor="middle" x="831.5" y="-80" font-family="Helvetica,sans-Serif" font-size="10.00">G4OpBoundaryProcess.hh</text>
</a>
</g>
</g>
<!-- Node5&#45;&gt;Node11 -->
<g id="edge10" class="edge">
<title>Node5&#45;&gt;Node11</title>
<path fill="none" stroke="midnightblue" d="M625.03,-134.48C667.71,-123.94 740.42,-105.99 787.18,-94.44"/>
<polygon fill="midnightblue" stroke="midnightblue" points="788.17,-97.8 797.03,-92.01 786.49,-91.01 788.17,-97.8"/>
</g>
<!-- Node12 -->
<g id="node12" class="node">
<title>Node12</title>
<g id="a_node12"><a xlink:title=" ">
<polygon fill="white" stroke="#bfbfbf" points="492,-73 492,-92 611,-92 611,-73 492,-73"/>
<text text-anchor="middle" x="551.5" y="-80" font-family="Helvetica,sans-Serif" font-size="10.00">G4SystemOfUnits.hh</text>
</a>
</g>
</g>
<!-- Node5&#45;&gt;Node12 -->
<g id="edge11" class="edge">
<title>Node5&#45;&gt;Node12</title>
<path fill="none" stroke="midnightblue" d="M584.91,-134.48C579.12,-125.64 569.91,-111.59 562.63,-100.48"/>
<polygon fill="midnightblue" stroke="midnightblue" points="565.49,-98.45 557.08,-92.01 559.63,-102.29 565.49,-98.45"/>
</g>
<!-- Node13 -->
<g id="node13" class="node">
<title>Node13</title>
<g id="a_node13"><a xlink:title=" ">
<polygon fill="white" stroke="#bfbfbf" points="629,-67.5 629,-97.5 742,-97.5 742,-67.5 629,-67.5"/>
<text text-anchor="start" x="637" y="-85.5" font-family="Helvetica,sans-Serif" font-size="10.00">boost/property_tree</text>
<text text-anchor="middle" x="685.5" y="-74.5" font-family="Helvetica,sans-Serif" font-size="10.00">/json_parser.hpp</text>
</a>
</g>
</g>
<!-- Node5&#45;&gt;Node13 -->
<g id="edge12" class="edge">
<title>Node5&#45;&gt;Node13</title>
<path fill="none" stroke="midnightblue" d="M604.11,-134.48C617.22,-126.27 637.51,-113.56 654.55,-102.88"/>
<polygon fill="midnightblue" stroke="midnightblue" points="656.49,-105.8 663.11,-97.52 652.78,-99.86 656.49,-105.8"/>
</g>
<!-- Node7 -->
<g id="node7" class="node">
<title>Node7</title>
<g id="a_node7"><a xlink:title=" ">
<polygon fill="white" stroke="#bfbfbf" points="0,-6 0,-25 93,-25 93,-6 0,-6"/>
<text text-anchor="middle" x="46.5" y="-13" font-family="Helvetica,sans-Serif" font-size="10.00">spdlog/spdlog.h</text>
</a>
</g>
</g>
<!-- Node6&#45;&gt;Node7 -->
<g id="edge6" class="edge">
<title>Node6&#45;&gt;Node7</title>
<path fill="none" stroke="midnightblue" d="M194.79,-72.87C164.94,-61.52 112.33,-41.52 78.47,-28.65"/>
<polygon fill="midnightblue" stroke="midnightblue" points="79.62,-25.35 69.03,-25.06 77.13,-31.89 79.62,-25.35"/>
</g>
<!-- Node8 -->
<g id="node8" class="node">
<title>Node8</title>
<g id="a_node8"><a xlink:title=" ">
<polygon fill="white" stroke="#bfbfbf" points="111,-0.5 111,-30.5 222,-30.5 222,-0.5 111,-0.5"/>
<text text-anchor="start" x="119" y="-18.5" font-family="Helvetica,sans-Serif" font-size="10.00">spdlog/sinks/stdout</text>
<text text-anchor="middle" x="166.5" y="-7.5" font-family="Helvetica,sans-Serif" font-size="10.00">_color_sinks.h</text>
</a>
</g>
</g>
<!-- Node6&#45;&gt;Node8 -->
<g id="edge7" class="edge">
<title>Node6&#45;&gt;Node8</title>
<path fill="none" stroke="midnightblue" d="M210.62,-72.73C203.8,-64.03 193.06,-50.34 183.88,-38.65"/>
<polygon fill="midnightblue" stroke="midnightblue" points="186.48,-36.3 177.55,-30.59 180.97,-40.62 186.48,-36.3"/>
</g>
<!-- Node9 -->
<g id="node9" class="node">
<title>Node9</title>
<g id="a_node9"><a xlink:title=" ">
<polygon fill="white" stroke="#bfbfbf" points="240.5,-6 240.5,-25 298.5,-25 298.5,-6 240.5,-6"/>
<text text-anchor="middle" x="269.5" y="-13" font-family="Helvetica,sans-Serif" font-size="10.00">memory</text>
</a>
</g>
</g>
<!-- Node6&#45;&gt;Node9 -->
<g id="edge8" class="edge">
<title>Node6&#45;&gt;Node9</title>
<path fill="none" stroke="midnightblue" d="M224.51,-72.73C232.62,-62.6 246.15,-45.69 256.26,-33.06"/>
<polygon fill="midnightblue" stroke="midnightblue" points="259.08,-35.12 262.6,-25.13 253.62,-30.75 259.08,-35.12"/>
</g>
<!-- Node10 -->
<g id="node10" class="node">
<title>Node10</title>
<g id="a_node10"><a xlink:title=" ">
<polygon fill="white" stroke="#bfbfbf" points="316.5,-6 316.5,-25 414.5,-25 414.5,-6 316.5,-6"/>
<text text-anchor="middle" x="365.5" y="-13" font-family="Helvetica,sans-Serif" font-size="10.00">spdlog/fmt/fmt.h</text>
</a>
</g>
</g>
<!-- Node6&#45;&gt;Node10 -->
<g id="edge9" class="edge">
<title>Node6&#45;&gt;Node10</title>
<path fill="none" stroke="midnightblue" d="M237.15,-72.87C262.59,-61.7 307.1,-42.15 336.45,-29.26"/>
<polygon fill="midnightblue" stroke="midnightblue" points="338.02,-32.39 345.77,-25.17 335.2,-25.98 338.02,-32.39"/>
</g>
<!-- Node19 -->
<g id="node19" class="node">
<title>Node19</title>
<g id="a_node19"><a xlink:href="_o_m_sim_p_m_t_response_8hh.html" target="_top" xlink:title="Provides simulation for PMT response. This class is responsible for transforming hits on photocathode...">
<polygon fill="white" stroke="black" points="380,-134.5 380,-153.5 515,-153.5 515,-134.5 380,-134.5"/>
<text text-anchor="middle" x="447.5" y="-141.5" font-family="Helvetica,sans-Serif" font-size="10.00">OMSimPMTResponse.hh</text>
</a>
</g>
</g>
<!-- Node18&#45;&gt;Node19 -->
<g id="edge18" class="edge">
<title>Node18&#45;&gt;Node19</title>
<path fill="none" stroke="midnightblue" d="M404.41,-246.46C392.21,-233.92 373.19,-209.85 383.5,-190 390.65,-176.23 404.17,-165.78 416.95,-158.44"/>
<polygon fill="midnightblue" stroke="midnightblue" points="418.82,-161.41 426.02,-153.64 415.54,-155.23 418.82,-161.41"/>
</g>
<!-- Node24 -->
<g id="node24" class="node">
<title>Node24</title>
<g id="a_node24"><a xlink:href="_o_m_sim_sensitive_detector_8hh.html" target="_top" xlink:title=" ">
<polygon fill="white" stroke="red" points="393,-190.5 393,-209.5 546,-209.5 546,-190.5 393,-190.5"/>
<text text-anchor="middle" x="469.5" y="-197.5" font-family="Helvetica,sans-Serif" font-size="10.00">OMSimSensitiveDetector.hh</text>
</a>
</g>
</g>
<!-- Node18&#45;&gt;Node24 -->
<g id="edge24" class="edge">
<title>Node18&#45;&gt;Node24</title>
<path fill="none" stroke="midnightblue" d="M422.5,-246.32C430.69,-238.42 443.01,-226.55 452.97,-216.94"/>
<polygon fill="midnightblue" stroke="midnightblue" points="455.57,-219.29 460.34,-209.83 450.71,-214.26 455.57,-219.29"/>
</g>
<!-- Node26 -->
<g id="node25" class="node">
<title>Node26</title>
<g id="a_node25"><a xlink:title=" ">
<polygon fill="white" stroke="#bfbfbf" points="259,-134.5 259,-153.5 362,-153.5 362,-134.5 259,-134.5"/>
<text text-anchor="middle" x="310.5" y="-141.5" font-family="Helvetica,sans-Serif" font-size="10.00">G4ThreeVector.hh</text>
</a>
</g>
</g>
<!-- Node18&#45;&gt;Node26 -->
<g id="edge28" class="edge">
<title>Node18&#45;&gt;Node26</title>
<path fill="none" stroke="midnightblue" d="M405.42,-246.37C388.19,-227.97 347.65,-184.67 325.53,-161.05"/>
<polygon fill="midnightblue" stroke="midnightblue" points="327.93,-158.5 318.54,-153.59 322.82,-163.28 327.93,-158.5"/>
</g>
<!-- Node28 -->
<g id="node26" class="node">
<title>Node28</title>
<g id="a_node26"><a xlink:title=" ">
<polygon fill="white" stroke="#bfbfbf" points="243,-190.5 243,-209.5 298,-209.5 298,-190.5 243,-190.5"/>
<text text-anchor="middle" x="270.5" y="-197.5" font-family="Helvetica,sans-Serif" font-size="10.00">fstream</text>
</a>
</g>
</g>
<!-- Node18&#45;&gt;Node28 -->
<g id="edge29" class="edge">
<title>Node18&#45;&gt;Node28</title>
<path fill="none" stroke="midnightblue" d="M390.84,-246.44C367.1,-237.48 329.59,-223.31 302.76,-213.18"/>
<polygon fill="midnightblue" stroke="midnightblue" points="303.64,-209.77 293.05,-209.52 301.17,-216.32 303.64,-209.77"/>
</g>
<!-- Node19&#45;&gt;Node12 -->
<g id="edge19" class="edge">
<title>Node19&#45;&gt;Node12</title>
<path fill="none" stroke="midnightblue" d="M462.4,-134.48C479.47,-124.71 507.66,-108.58 527.76,-97.08"/>
<polygon fill="midnightblue" stroke="midnightblue" points="529.69,-100.01 536.63,-92.01 526.21,-93.94 529.69,-100.01"/>
</g>
<!-- Node20 -->
<g id="node20" class="node">
<title>Node20</title>
<g id="a_node20"><a xlink:title=" ">
<polygon fill="white" stroke="#bfbfbf" points="77,-73 77,-92 150,-92 150,-73 77,-73"/>
<text text-anchor="middle" x="113.5" y="-80" font-family="Helvetica,sans-Serif" font-size="10.00">G4Types.hh</text>
</a>
</g>
</g>
<!-- Node19&#45;&gt;Node20 -->
<g id="edge20" class="edge">
<title>Node19&#45;&gt;Node20</title>
<path fill="none" stroke="midnightblue" d="M385.15,-134.46C313.49,-124.45 200.37,-107.94 158.5,-98 154.85,-97.13 151.07,-96.11 147.32,-95.03"/>
<polygon fill="midnightblue" stroke="midnightblue" points="148.18,-91.63 137.59,-92.03 146.12,-98.32 148.18,-91.63"/>
</g>
<!-- Node21 -->
<g id="node21" class="node">
<title>Node21</title>
<g id="a_node21"><a xlink:title=" ">
<polygon fill="white" stroke="#bfbfbf" points="285.5,-73 285.5,-92 323.5,-92 323.5,-73 285.5,-73"/>
<text text-anchor="middle" x="304.5" y="-80" font-family="Helvetica,sans-Serif" font-size="10.00">map</text>
</a>
</g>
</g>
<!-- Node19&#45;&gt;Node21 -->
<g id="edge21" class="edge">
<title>Node19&#45;&gt;Node21</title>
<path fill="none" stroke="midnightblue" d="M423.41,-134.41C399.93,-125.84 363.36,-111.98 332.5,-98 331.5,-97.55 330.49,-97.08 329.47,-96.6"/>
<polygon fill="midnightblue" stroke="midnightblue" points="330.86,-93.38 320.35,-92.07 327.75,-99.65 330.86,-93.38"/>
</g>
<!-- Node22 -->
<g id="node22" class="node">
<title>Node22</title>
<g id="a_node22"><a xlink:title=" ">
<polygon fill="white" stroke="#bfbfbf" points="342,-73 342,-92 403,-92 403,-73 342,-73"/>
<text text-anchor="middle" x="372.5" y="-80" font-family="Helvetica,sans-Serif" font-size="10.00">TGraph.h</text>
</a>
</g>
</g>
<!-- Node19&#45;&gt;Node22 -->
<g id="edge22" class="edge">
<title>Node19&#45;&gt;Node22</title>
<path fill="none" stroke="midnightblue" d="M436.75,-134.48C424.95,-125.11 405.76,-109.88 391.42,-98.51"/>
<polygon fill="midnightblue" stroke="midnightblue" points="393.24,-95.48 383.23,-92.01 388.88,-100.97 393.24,-95.48"/>
</g>
<!-- Node23 -->
<g id="node23" class="node">
<title>Node23</title>
<g id="a_node23"><a xlink:title=" ">
<polygon fill="white" stroke="#bfbfbf" points="421,-73 421,-92 474,-92 474,-73 421,-73"/>
<text text-anchor="middle" x="447.5" y="-80" font-family="Helvetica,sans-Serif" font-size="10.00">TH2D.h</text>
</a>
</g>
</g>
<!-- Node19&#45;&gt;Node23 -->
<g id="edge23" class="edge">
<title>Node19&#45;&gt;Node23</title>
<path fill="none" stroke="midnightblue" d="M447.5,-134.48C447.5,-126.08 447.5,-112.98 447.5,-102.16"/>
<polygon fill="midnightblue" stroke="midnightblue" points="451,-102.01 447.5,-92.01 444,-102.01 451,-102.01"/>
</g>
<!-- Node24&#45;&gt;Node11 -->
<g id="edge27" class="edge">
<title>Node24&#45;&gt;Node11</title>
<path fill="none" stroke="midnightblue" d="M518.88,-190.45C557.14,-183.03 611.1,-170.83 656.5,-154 674.77,-147.23 677.67,-141.85 695.5,-134 729.07,-119.22 768.45,-104.92 796.17,-95.33"/>
<polygon fill="midnightblue" stroke="midnightblue" points="797.5,-98.57 805.83,-92.02 795.23,-91.95 797.5,-98.57"/>
</g>
<!-- Node24&#45;&gt;Node19 -->
<g id="edge26" class="edge">
<title>Node24&#45;&gt;Node19</title>
<path fill="none" stroke="midnightblue" d="M465.87,-190.08C462.89,-182.77 458.57,-172.18 454.88,-163.1"/>
<polygon fill="midnightblue" stroke="midnightblue" points="458.08,-161.69 451.07,-153.75 451.6,-164.33 458.08,-161.69"/>
</g>
<!-- Node24&#45;&gt;Node26 -->
<g id="edge25" class="edge">
<title>Node24&#45;&gt;Node26</title>
<path fill="none" stroke="midnightblue" d="M444.31,-190.44C417.56,-181.36 375.1,-166.94 345.19,-156.78"/>
<polygon fill="midnightblue" stroke="midnightblue" points="346.17,-153.42 335.58,-153.52 343.92,-160.05 346.17,-153.42"/>
</g>
<!-- Node29&#45;&gt;Node4 -->
<g id="edge31" class="edge">
<title>Node29&#45;&gt;Node4</title>
<path fill="none" stroke="midnightblue" d="M674.85,-246.44C716.97,-237.04 784.71,-221.93 830.37,-211.74"/>
<polygon fill="midnightblue" stroke="midnightblue" points="831.34,-215.11 840.33,-209.52 829.81,-208.28 831.34,-215.11"/>
</g>
<!-- Node29&#45;&gt;Node19 -->
<g id="edge33" class="edge">
<title>Node29&#45;&gt;Node19</title>
<path fill="none" stroke="midnightblue" d="M627.04,-246.07C612.4,-232.58 582.96,-206.83 554.5,-190 531.74,-176.54 504.2,-165.05 482.76,-157.06"/>
<polygon fill="midnightblue" stroke="midnightblue" points="483.67,-153.66 473.08,-153.52 481.27,-160.24 483.67,-153.66"/>
</g>
<!-- Node29&#45;&gt;Node29 -->
<g id="edge32" class="edge">
<title>Node29&#45;&gt;Node29</title>
<path fill="none" stroke="midnightblue" d="M675.95,-265.53C702.76,-268.31 729,-265.13 729,-256 729,-248.01 708.91,-244.58 685.93,-245.71"/>
<polygon fill="midnightblue" stroke="midnightblue" points="685.65,-242.22 675.95,-246.47 686.19,-249.2 685.65,-242.22"/>
</g>
<!-- Node30 -->
<g id="node28" class="node">
<title>Node30</title>
<g id="a_node28"><a xlink:title=" ">
<polygon fill="white" stroke="#bfbfbf" points="688.5,-190.5 688.5,-209.5 786.5,-209.5 786.5,-190.5 688.5,-190.5"/>
<text text-anchor="middle" x="737.5" y="-197.5" font-family="Helvetica,sans-Serif" font-size="10.00">G4UnionSolid.hh</text>
</a>
</g>
</g>
<!-- Node29&#45;&gt;Node30 -->
<g id="edge34" class="edge">
<title>Node29&#45;&gt;Node30</title>
<path fill="none" stroke="midnightblue" d="M652.73,-246.32C668.85,-237.7 693.8,-224.36 712.46,-214.39"/>
<polygon fill="midnightblue" stroke="midnightblue" points="714.14,-217.46 721.31,-209.65 710.84,-211.28 714.14,-217.46"/>
</g>
<!-- Node31 -->
<g id="node29" class="node">
<title>Node31</title>
<g id="a_node29"><a xlink:title=" ">
<polygon fill="white" stroke="#bfbfbf" points="603,-190.5 603,-209.5 670,-209.5 670,-190.5 603,-190.5"/>
<text text-anchor="middle" x="636.5" y="-197.5" font-family="Helvetica,sans-Serif" font-size="10.00">G4Tubs.hh</text>
</a>
</g>
</g>
<!-- Node29&#45;&gt;Node31 -->
<g id="edge35" class="edge">
<title>Node29&#45;&gt;Node31</title>
<path fill="none" stroke="midnightblue" d="M636.5,-246.08C636.5,-239.01 636.5,-228.86 636.5,-219.99"/>
<polygon fill="midnightblue" stroke="midnightblue" points="640,-219.75 636.5,-209.75 633,-219.75 640,-219.75"/>
</g>
<!-- Node37 -->
<g id="node35" class="node">
<title>Node37</title>
<g id="a_node35"><a xlink:title=" ">
<polygon fill="white" stroke="#bfbfbf" points="1014,-302.5 1014,-321.5 1131,-321.5 1131,-302.5 1014,-302.5"/>
<text text-anchor="middle" x="1072.5" y="-309.5" font-family="Helvetica,sans-Serif" font-size="10.00">G4UserRunAction.hh</text>
</a>
</g>
</g>
<!-- Node36&#45;&gt;Node37 -->
<g id="edge41" class="edge">
<title>Node36&#45;&gt;Node37</title>
<path fill="none" stroke="midnightblue" d="M1072.5,-358.08C1072.5,-351.01 1072.5,-340.86 1072.5,-331.99"/>
<polygon fill="midnightblue" stroke="midnightblue" points="1076,-331.75 1072.5,-321.75 1069,-331.75 1076,-331.75"/>
</g>
<!-- Node40 -->
<g id="node38" class="node">
<title>Node40</title>
<g id="a_node38"><a xlink:title=" ">
<polygon fill="white" stroke="#bfbfbf" points="1291,-302.5 1291,-321.5 1430,-321.5 1430,-302.5 1291,-302.5"/>
<text text-anchor="middle" x="1360.5" y="-309.5" font-family="Helvetica,sans-Serif" font-size="10.00">G4UserTrackingAction.hh</text>
</a>
</g>
</g>
<!-- Node39&#45;&gt;Node40 -->
<g id="edge44" class="edge">
<title>Node39&#45;&gt;Node40</title>
<path fill="none" stroke="midnightblue" d="M1361.33,-358.08C1361.2,-351.01 1361.02,-340.86 1360.85,-331.99"/>
<polygon fill="midnightblue" stroke="midnightblue" points="1364.35,-331.68 1360.66,-321.75 1357.35,-331.81 1364.35,-331.68"/>
</g>
<!-- Node42 -->
<g id="node40" class="node">
<title>Node42</title>
<g id="a_node40"><a xlink:title=" ">
<polygon fill="white" stroke="#bfbfbf" points="1448,-302.5 1448,-321.5 1589,-321.5 1589,-302.5 1448,-302.5"/>
<text text-anchor="middle" x="1518.5" y="-309.5" font-family="Helvetica,sans-Serif" font-size="10.00">G4UserSteppingAction.hh</text>
</a>
</g>
</g>
<!-- Node41&#45;&gt;Node42 -->
<g id="edge46" class="edge">
<title>Node41&#45;&gt;Node42</title>
<path fill="none" stroke="midnightblue" d="M1518.5,-358.08C1518.5,-351.01 1518.5,-340.86 1518.5,-331.99"/>
<polygon fill="midnightblue" stroke="midnightblue" points="1522,-331.75 1518.5,-321.75 1515,-331.75 1522,-331.75"/>
</g>
<!-- Node44 -->
<g id="node42" class="node">
<title>Node44</title>
<g id="a_node42"><a xlink:href="_o_m_sim_command_args_table_8hh.html" target="_top" xlink:title="Definition of the OMSimCommandArgsTable singleton class, which controls user args.">
<polygon fill="white" stroke="black" points="53.5,-246.5 53.5,-265.5 217.5,-265.5 217.5,-246.5 53.5,-246.5"/>
<text text-anchor="middle" x="135.5" y="-253.5" font-family="Helvetica,sans-Serif" font-size="10.00">OMSimCommandArgsTable.hh</text>
</a>
</g>
</g>
<!-- Node43&#45;&gt;Node44 -->
<g id="edge48" class="edge">
<title>Node43&#45;&gt;Node44</title>
<path fill="none" stroke="midnightblue" d="M260.89,-302.44C236.04,-293.44 196.73,-279.19 168.75,-269.05"/>
<polygon fill="midnightblue" stroke="midnightblue" points="169.59,-265.63 159,-265.52 167.21,-272.21 169.59,-265.63"/>
</g>
<!-- Node47 -->
<g id="node45" class="node">
<title>Node47</title>
<g id="a_node45"><a xlink:title=" ">
<polygon fill="white" stroke="#bfbfbf" points="235.5,-246.5 235.5,-265.5 333.5,-265.5 333.5,-246.5 235.5,-246.5"/>
<text text-anchor="middle" x="284.5" y="-253.5" font-family="Helvetica,sans-Serif" font-size="10.00">G4UImanager.hh</text>
</a>
</g>
</g>
<!-- Node43&#45;&gt;Node47 -->
<g id="edge53" class="edge">
<title>Node43&#45;&gt;Node47</title>
<path fill="none" stroke="midnightblue" d="M284.5,-302.08C284.5,-295.01 284.5,-284.86 284.5,-275.99"/>
<polygon fill="midnightblue" stroke="midnightblue" points="288,-275.75 284.5,-265.75 281,-275.75 288,-275.75"/>
</g>
<!-- Node44&#45;&gt;Node6 -->
<g id="edge49" class="edge">
<title>Node44&#45;&gt;Node6</title>
<path fill="none" stroke="midnightblue" d="M102.73,-246.46C71.13,-236.41 30.17,-217.53 45.5,-190 73.58,-139.58 136.48,-110.01 177.93,-95.29"/>
<polygon fill="midnightblue" stroke="midnightblue" points="179.13,-98.58 187.46,-92.04 176.86,-91.96 179.13,-98.58"/>
</g>
<!-- Node44&#45;&gt;Node28 -->
<g id="edge50" class="edge">
<title>Node44&#45;&gt;Node28</title>
<path fill="none" stroke="midnightblue" d="M156.89,-246.44C179.21,-237.52 214.4,-223.44 239.71,-213.32"/>
<polygon fill="midnightblue" stroke="midnightblue" points="241.22,-216.48 249.21,-209.52 238.62,-209.98 241.22,-216.48"/>
</g>
<!-- Node45 -->
<g id="node43" class="node">
<title>Node45</title>
<g id="a_node43"><a xlink:title=" ">
<polygon fill="white" stroke="#bfbfbf" points="140.5,-190.5 140.5,-209.5 224.5,-209.5 224.5,-190.5 140.5,-190.5"/>
<text text-anchor="middle" x="182.5" y="-197.5" font-family="Helvetica,sans-Serif" font-size="10.00">boost/any.hpp</text>
</a>
</g>
</g>
<!-- Node44&#45;&gt;Node45 -->
<g id="edge51" class="edge">
<title>Node44&#45;&gt;Node45</title>
<path fill="none" stroke="midnightblue" d="M143.26,-246.08C150.04,-238.3 160.04,-226.8 168.26,-217.37"/>
<polygon fill="midnightblue" stroke="midnightblue" points="170.96,-219.59 174.88,-209.75 165.68,-215 170.96,-219.59"/>
</g>
<!-- Node46 -->
<g id="node44" class="node">
<title>Node46</title>
<g id="a_node44"><a xlink:title=" ">
<polygon fill="white" stroke="#bfbfbf" points="54.5,-190.5 54.5,-209.5 122.5,-209.5 122.5,-190.5 54.5,-190.5"/>
<text text-anchor="middle" x="88.5" y="-197.5" font-family="Helvetica,sans-Serif" font-size="10.00">sys/time.h</text>
</a>
</g>
</g>
<!-- Node44&#45;&gt;Node46 -->
<g id="edge52" class="edge">
<title>Node44&#45;&gt;Node46</title>
<path fill="none" stroke="midnightblue" d="M127.74,-246.08C120.96,-238.3 110.96,-226.8 102.74,-217.37"/>
<polygon fill="midnightblue" stroke="midnightblue" points="105.32,-215 96.12,-209.75 100.04,-219.59 105.32,-215"/>
</g>
</g>
</svg>
