<?xml version="1.0" encoding="UTF-8" standalone="no"?>
<!DOCTYPE svg PUBLIC "-//W3C//DTD SVG 1.1//EN"
 "http://www.w3.org/Graphics/SVG/1.1/DTD/svg11.dtd">
<!-- Generated by graphviz version 2.43.0 (0)
 -->
<!-- Title: OMSimDEGG.cc Pages: 1 -->
<svg width="3079pt" height="442pt"
 viewBox="0.00 0.00 3079.00 442.00" xmlns="http://www.w3.org/2000/svg" xmlns:xlink="http://www.w3.org/1999/xlink">
<g id="graph0" class="graph" transform="scale(1 1) rotate(0) translate(4 438)">
<title>OMSimDEGG.cc</title>
<polygon fill="white" stroke="transparent" points="-4,4 -4,-438 3075,-438 3075,4 -4,4"/>
<!-- Node1 -->
<g id="node1" class="node">
<title>Node1</title>
<g id="a_node1"><a xlink:title=" ">
<polygon fill="#bfbfbf" stroke="black" points="2580.5,-414.5 2580.5,-433.5 2674.5,-433.5 2674.5,-414.5 2580.5,-414.5"/>
<text text-anchor="middle" x="2627.5" y="-421.5" font-family="Helvetica,sans-Serif" font-size="10.00">OMSimDEGG.cc</text>
</a>
</g>
</g>
<!-- Node2 -->
<g id="node2" class="node">
<title>Node2</title>
<g id="a_node2"><a xlink:href="_o_m_sim_d_e_g_g_8hh.html" target="_top" xlink:title="Construction of the DEGG class.">
<polygon fill="white" stroke="black" points="542,-358.5 542,-377.5 637,-377.5 637,-358.5 542,-358.5"/>
<text text-anchor="middle" x="589.5" y="-365.5" font-family="Helvetica,sans-Serif" font-size="10.00">OMSimDEGG.hh</text>
</a>
</g>
</g>
<!-- Node1&#45;&gt;Node2 -->
<g id="edge1" class="edge">
<title>Node1&#45;&gt;Node2</title>
<path fill="none" stroke="midnightblue" d="M2580.12,-421.74C2307.98,-414.53 945.41,-378.43 647.22,-370.53"/>
<polygon fill="midnightblue" stroke="midnightblue" points="647.15,-367.03 637.07,-370.26 646.97,-374.02 647.15,-367.03"/>
</g>
<!-- Node6 -->
<g id="node6" class="node">
<title>Node6</title>
<g id="a_node6"><a xlink:href="_o_m_sim_logger_8hh.html" target="_top" xlink:title=" ">
<polygon fill="white" stroke="black" points="1461,-73 1461,-92 1560,-92 1560,-73 1461,-73"/>
<text text-anchor="middle" x="1510.5" y="-80" font-family="Helvetica,sans-Serif" font-size="10.00">OMSimLogger.hh</text>
</a>
</g>
</g>
<!-- Node1&#45;&gt;Node6 -->
<g id="edge54" class="edge">
<title>Node1&#45;&gt;Node6</title>
<path fill="none" stroke="midnightblue" d="M2674.67,-420.79C2741.71,-414.82 2856.5,-392.94 2856.5,-313 2856.5,-313 2856.5,-313 2856.5,-255 2856.5,-216.58 2833.81,-207.29 2799.5,-190 2688.78,-134.22 1809.83,-95.42 1570.49,-85.82"/>
<polygon fill="midnightblue" stroke="midnightblue" points="1570.38,-82.31 1560.25,-85.41 1570.1,-89.31 1570.38,-82.31"/>
</g>
<!-- Node29 -->
<g id="node29" class="node">
<title>Node29</title>
<g id="a_node29"><a xlink:href="_c_a_d_mesh_8hh.html" target="_top" xlink:title=" ">
<polygon fill="white" stroke="black" points="1903,-246.5 1903,-265.5 1982,-265.5 1982,-246.5 1903,-246.5"/>
<text text-anchor="middle" x="1942.5" y="-253.5" font-family="Helvetica,sans-Serif" font-size="10.00">CADMesh.hh</text>
</a>
</g>
</g>
<!-- Node1&#45;&gt;Node29 -->
<g id="edge33" class="edge">
<title>Node1&#45;&gt;Node29</title>
<path fill="none" stroke="midnightblue" d="M2592.11,-414.42C2477.28,-386.6 2115.1,-298.83 1987.51,-267.91"/>
<polygon fill="midnightblue" stroke="midnightblue" points="1988.22,-264.48 1977.67,-265.52 1986.57,-271.28 1988.22,-264.48"/>
</g>
<!-- Node46 -->
<g id="node46" class="node">
<title>Node46</title>
<g id="a_node46"><a xlink:href="_o_m_sim_command_args_table_8hh.html" target="_top" xlink:title="Definition of the OMSimCommandArgsTable singleton class, which controls user args.">
<polygon fill="white" stroke="black" points="873.5,-246.5 873.5,-265.5 1037.5,-265.5 1037.5,-246.5 873.5,-246.5"/>
<text text-anchor="middle" x="955.5" y="-253.5" font-family="Helvetica,sans-Serif" font-size="10.00">OMSimCommandArgsTable.hh</text>
</a>
</g>
</g>
<!-- Node1&#45;&gt;Node46 -->
<g id="edge55" class="edge">
<title>Node1&#45;&gt;Node46</title>
<path fill="none" stroke="midnightblue" d="M2580.15,-418.3C2351.25,-395.57 1357.65,-296.93 1048,-266.18"/>
<polygon fill="midnightblue" stroke="midnightblue" points="1048.01,-262.67 1037.71,-265.16 1047.32,-269.63 1048.01,-262.67"/>
</g>
<!-- Node49 -->
<g id="node49" class="node">
<title>Node49</title>
<g id="a_node49"><a xlink:title=" ">
<polygon fill="white" stroke="#bfbfbf" points="2885,-358.5 2885,-377.5 2964,-377.5 2964,-358.5 2885,-358.5"/>
<text text-anchor="middle" x="2924.5" y="-365.5" font-family="Helvetica,sans-Serif" font-size="10.00">G4Sphere.hh</text>
</a>
</g>
</g>
<!-- Node1&#45;&gt;Node49 -->
<g id="edge60" class="edge">
<title>Node1&#45;&gt;Node49</title>
<path fill="none" stroke="midnightblue" d="M2674.56,-414.44C2729.22,-404.5 2819.02,-388.18 2874.79,-378.04"/>
<polygon fill="midnightblue" stroke="midnightblue" points="2875.58,-381.45 2884.79,-376.22 2874.32,-374.57 2875.58,-381.45"/>
</g>
<!-- Node50 -->
<g id="node50" class="node">
<title>Node50</title>
<g id="a_node50"><a xlink:title=" ">
<polygon fill="white" stroke="#bfbfbf" points="2982,-358.5 2982,-377.5 3071,-377.5 3071,-358.5 2982,-358.5"/>
<text text-anchor="middle" x="3026.5" y="-365.5" font-family="Helvetica,sans-Serif" font-size="10.00">G4Polycone.hh</text>
</a>
</g>
</g>
<!-- Node1&#45;&gt;Node50 -->
<g id="edge61" class="edge">
<title>Node1&#45;&gt;Node50</title>
<path fill="none" stroke="midnightblue" d="M2674.73,-417.38C2739.3,-409.57 2859.02,-394.68 2971.56,-378.09"/>
<polygon fill="midnightblue" stroke="midnightblue" points="2972.35,-381.51 2981.73,-376.59 2971.33,-374.59 2972.35,-381.51"/>
</g>
<!-- Node3 -->
<g id="node3" class="node">
<title>Node3</title>
<g id="a_node3"><a xlink:href="_o_m_sim_p_m_t_construction_8hh.html" target="_top" xlink:title="Construction of the PMTs.">
<polygon fill="white" stroke="black" points="395,-246.5 395,-265.5 544,-265.5 544,-246.5 395,-246.5"/>
<text text-anchor="middle" x="469.5" y="-253.5" font-family="Helvetica,sans-Serif" font-size="10.00">OMSimPMTConstruction.hh</text>
</a>
</g>
</g>
<!-- Node2&#45;&gt;Node3 -->
<g id="edge2" class="edge">
<title>Node2&#45;&gt;Node3</title>
<path fill="none" stroke="midnightblue" d="M568.86,-358.4C552.03,-350.66 528.38,-338.05 511.5,-322 497.24,-308.44 485.55,-289.12 478.16,-275.07"/>
<polygon fill="midnightblue" stroke="midnightblue" points="481.18,-273.29 473.56,-265.93 474.93,-276.44 481.18,-273.29"/>
</g>
<!-- Node25 -->
<g id="node25" class="node">
<title>Node25</title>
<g id="a_node25"><a xlink:href="_o_m_sim_optical_module_8hh.html" target="_top" xlink:title=" ">
<polygon fill="white" stroke="black" points="521,-302.5 521,-321.5 658,-321.5 658,-302.5 521,-302.5"/>
<text text-anchor="middle" x="589.5" y="-309.5" font-family="Helvetica,sans-Serif" font-size="10.00">OMSimOpticalModule.hh</text>
</a>
</g>
</g>
<!-- Node2&#45;&gt;Node25 -->
<g id="edge26" class="edge">
<title>Node2&#45;&gt;Node25</title>
<path fill="none" stroke="midnightblue" d="M589.5,-358.08C589.5,-351.01 589.5,-340.86 589.5,-331.99"/>
<polygon fill="midnightblue" stroke="midnightblue" points="593,-331.75 589.5,-321.75 586,-331.75 593,-331.75"/>
</g>
<!-- Node3&#45;&gt;Node3 -->
<g id="edge17" class="edge">
<title>Node3&#45;&gt;Node3</title>
<path fill="none" stroke="midnightblue" d="M508.95,-265.53C535.76,-268.31 562,-265.13 562,-256 562,-248.01 541.91,-244.58 518.93,-245.71"/>
<polygon fill="midnightblue" stroke="midnightblue" points="518.65,-242.22 508.95,-246.47 519.19,-249.2 518.65,-242.22"/>
</g>
<!-- Node4 -->
<g id="node4" class="node">
<title>Node4</title>
<g id="a_node4"><a xlink:href="abc_detector_component_8hh.html" target="_top" xlink:title="Provides helper base class abcDetectorComponent for constructing and managing detector components in ...">
<polygon fill="white" stroke="black" points="396,-190.5 396,-209.5 543,-209.5 543,-190.5 396,-190.5"/>
<text text-anchor="middle" x="469.5" y="-197.5" font-family="Helvetica,sans-Serif" font-size="10.00">abcDetectorComponent.hh</text>
</a>
</g>
</g>
<!-- Node3&#45;&gt;Node4 -->
<g id="edge3" class="edge">
<title>Node3&#45;&gt;Node4</title>
<path fill="none" stroke="midnightblue" d="M469.5,-246.08C469.5,-239.01 469.5,-228.86 469.5,-219.99"/>
<polygon fill="midnightblue" stroke="midnightblue" points="473,-219.75 469.5,-209.75 466,-219.75 473,-219.75"/>
</g>
<!-- Node18 -->
<g id="node18" class="node">
<title>Node18</title>
<g id="a_node18"><a xlink:href="_o_m_sim_p_m_t_response_8hh.html" target="_top" xlink:title="Provides simulation for PMT response. This class is responsible for transforming hits on photocathode...">
<polygon fill="white" stroke="black" points="600,-190.5 600,-209.5 735,-209.5 735,-190.5 600,-190.5"/>
<text text-anchor="middle" x="667.5" y="-197.5" font-family="Helvetica,sans-Serif" font-size="10.00">OMSimPMTResponse.hh</text>
</a>
</g>
</g>
<!-- Node3&#45;&gt;Node18 -->
<g id="edge18" class="edge">
<title>Node3&#45;&gt;Node18</title>
<path fill="none" stroke="midnightblue" d="M500.87,-246.44C534.76,-237.2 588.9,-222.44 626.22,-212.26"/>
<polygon fill="midnightblue" stroke="midnightblue" points="627.55,-215.52 636.27,-209.52 625.7,-208.77 627.55,-215.52"/>
</g>
<!-- Node23 -->
<g id="node23" class="node">
<title>Node23</title>
<g id="a_node23"><a xlink:title=" ">
<polygon fill="white" stroke="#bfbfbf" points="194.5,-190.5 194.5,-209.5 292.5,-209.5 292.5,-190.5 194.5,-190.5"/>
<text text-anchor="middle" x="243.5" y="-197.5" font-family="Helvetica,sans-Serif" font-size="10.00">G4UnionSolid.hh</text>
</a>
</g>
</g>
<!-- Node3&#45;&gt;Node23 -->
<g id="edge24" class="edge">
<title>Node3&#45;&gt;Node23</title>
<path fill="none" stroke="midnightblue" d="M433.69,-246.44C394.51,-237.08 331.62,-222.06 288.98,-211.87"/>
<polygon fill="midnightblue" stroke="midnightblue" points="289.68,-208.44 279.14,-209.52 288.06,-215.24 289.68,-208.44"/>
</g>
<!-- Node24 -->
<g id="node24" class="node">
<title>Node24</title>
<g id="a_node24"><a xlink:title=" ">
<polygon fill="white" stroke="#bfbfbf" points="311,-190.5 311,-209.5 378,-209.5 378,-190.5 311,-190.5"/>
<text text-anchor="middle" x="344.5" y="-197.5" font-family="Helvetica,sans-Serif" font-size="10.00">G4Tubs.hh</text>
</a>
</g>
</g>
<!-- Node3&#45;&gt;Node24 -->
<g id="edge25" class="edge">
<title>Node3&#45;&gt;Node24</title>
<path fill="none" stroke="midnightblue" d="M449.69,-246.44C429.21,-237.6 397.02,-223.69 373.64,-213.59"/>
<polygon fill="midnightblue" stroke="midnightblue" points="374.78,-210.27 364.21,-209.52 372.01,-216.7 374.78,-210.27"/>
</g>
<!-- Node5 -->
<g id="node5" class="node">
<title>Node5</title>
<g id="a_node5"><a xlink:href="_o_m_sim_input_data_8hh.html" target="_top" xlink:title="Definition of ParameterTable and InputDataManager.">
<polygon fill="white" stroke="black" points="524,-134.5 524,-153.5 639,-153.5 639,-134.5 524,-134.5"/>
<text text-anchor="middle" x="581.5" y="-141.5" font-family="Helvetica,sans-Serif" font-size="10.00">OMSimInputData.hh</text>
</a>
</g>
</g>
<!-- Node4&#45;&gt;Node5 -->
<g id="edge4" class="edge">
<title>Node4&#45;&gt;Node5</title>
<path fill="none" stroke="midnightblue" d="M487.49,-190.32C505.54,-181.62 533.55,-168.12 554.3,-158.11"/>
<polygon fill="midnightblue" stroke="midnightblue" points="556.06,-161.15 563.55,-153.65 553.02,-154.84 556.06,-161.15"/>
</g>
<!-- Node14 -->
<g id="node14" class="node">
<title>Node14</title>
<g id="a_node14"><a xlink:title=" ">
<polygon fill="white" stroke="#bfbfbf" points="0,-134.5 0,-153.5 107,-153.5 107,-134.5 0,-134.5"/>
<text text-anchor="middle" x="53.5" y="-141.5" font-family="Helvetica,sans-Serif" font-size="10.00">G4Transform3D.hh</text>
</a>
</g>
</g>
<!-- Node4&#45;&gt;Node14 -->
<g id="edge13" class="edge">
<title>Node4&#45;&gt;Node14</title>
<path fill="none" stroke="midnightblue" d="M400.13,-190.47C331.15,-181.92 222,-168.19 117.23,-154.08"/>
<polygon fill="midnightblue" stroke="midnightblue" points="117.49,-150.58 107.11,-152.71 116.55,-157.52 117.49,-150.58"/>
</g>
<!-- Node15 -->
<g id="node15" class="node">
<title>Node15</title>
<g id="a_node15"><a xlink:title=" ">
<polygon fill="white" stroke="#bfbfbf" points="125.5,-134.5 125.5,-153.5 233.5,-153.5 233.5,-134.5 125.5,-134.5"/>
<text text-anchor="middle" x="179.5" y="-141.5" font-family="Helvetica,sans-Serif" font-size="10.00">G4VisAttributes.hh</text>
</a>
</g>
</g>
<!-- Node4&#45;&gt;Node15 -->
<g id="edge14" class="edge">
<title>Node4&#45;&gt;Node15</title>
<path fill="none" stroke="midnightblue" d="M423.55,-190.44C372.43,-180.92 289.85,-165.55 235.12,-155.36"/>
<polygon fill="midnightblue" stroke="midnightblue" points="235.71,-151.91 225.24,-153.52 234.43,-158.79 235.71,-151.91"/>
</g>
<!-- Node16 -->
<g id="node16" class="node">
<title>Node16</title>
<g id="a_node16"><a xlink:title=" ">
<polygon fill="white" stroke="#bfbfbf" points="252,-134.5 252,-153.5 377,-153.5 377,-134.5 252,-134.5"/>
<text text-anchor="middle" x="314.5" y="-141.5" font-family="Helvetica,sans-Serif" font-size="10.00">G4SubtractionSolid.hh</text>
</a>
</g>
</g>
<!-- Node4&#45;&gt;Node16 -->
<g id="edge15" class="edge">
<title>Node4&#45;&gt;Node16</title>
<path fill="none" stroke="midnightblue" d="M444.94,-190.44C418.98,-181.4 377.83,-167.06 348.7,-156.92"/>
<polygon fill="midnightblue" stroke="midnightblue" points="349.54,-153.5 338.95,-153.52 347.24,-160.11 349.54,-153.5"/>
</g>
<!-- Node17 -->
<g id="node17" class="node">
<title>Node17</title>
<g id="a_node17"><a xlink:title=" ">
<polygon fill="white" stroke="#bfbfbf" points="395.5,-134.5 395.5,-153.5 505.5,-153.5 505.5,-134.5 395.5,-134.5"/>
<text text-anchor="middle" x="450.5" y="-141.5" font-family="Helvetica,sans-Serif" font-size="10.00">G4PVPlacement.hh</text>
</a>
</g>
</g>
<!-- Node4&#45;&gt;Node17 -->
<g id="edge16" class="edge">
<title>Node4&#45;&gt;Node17</title>
<path fill="none" stroke="midnightblue" d="M466.36,-190.08C463.82,-182.85 460.14,-172.41 456.97,-163.4"/>
<polygon fill="midnightblue" stroke="midnightblue" points="460.2,-162.02 453.58,-153.75 453.6,-164.35 460.2,-162.02"/>
</g>
<!-- Node5&#45;&gt;Node6 -->
<g id="edge5" class="edge">
<title>Node5&#45;&gt;Node6</title>
<path fill="none" stroke="midnightblue" d="M639.06,-134.88C641.91,-134.57 644.74,-134.27 647.5,-134 948.43,-104.72 1310.17,-90.25 1450.65,-85.41"/>
<polygon fill="midnightblue" stroke="midnightblue" points="1450.9,-88.91 1460.78,-85.07 1450.67,-81.91 1450.9,-88.91"/>
</g>
<!-- Node11 -->
<g id="node11" class="node">
<title>Node11</title>
<g id="a_node11"><a xlink:title=" ">
<polygon fill="white" stroke="#bfbfbf" points="437,-73 437,-92 580,-92 580,-73 437,-73"/>
<text text-anchor="middle" x="508.5" y="-80" font-family="Helvetica,sans-Serif" font-size="10.00">G4OpBoundaryProcess.hh</text>
</a>
</g>
</g>
<!-- Node5&#45;&gt;Node11 -->
<g id="edge10" class="edge">
<title>Node5&#45;&gt;Node11</title>
<path fill="none" stroke="midnightblue" d="M571.04,-134.48C559.55,-125.11 540.87,-109.88 526.91,-98.51"/>
<polygon fill="midnightblue" stroke="midnightblue" points="528.9,-95.61 518.94,-92.01 524.48,-101.04 528.9,-95.61"/>
</g>
<!-- Node12 -->
<g id="node12" class="node">
<title>Node12</title>
<g id="a_node12"><a xlink:title=" ">
<polygon fill="white" stroke="#bfbfbf" points="789,-73 789,-92 908,-92 908,-73 789,-73"/>
<text text-anchor="middle" x="848.5" y="-80" font-family="Helvetica,sans-Serif" font-size="10.00">G4SystemOfUnits.hh</text>
</a>
</g>
</g>
<!-- Node5&#45;&gt;Node12 -->
<g id="edge11" class="edge">
<title>Node5&#45;&gt;Node12</title>
<path fill="none" stroke="midnightblue" d="M619.75,-134.48C667.34,-123.87 748.61,-105.76 800.38,-94.22"/>
<polygon fill="midnightblue" stroke="midnightblue" points="801.32,-97.6 810.32,-92.01 799.79,-90.77 801.32,-97.6"/>
</g>
<!-- Node13 -->
<g id="node13" class="node">
<title>Node13</title>
<g id="a_node13"><a xlink:title=" ">
<polygon fill="white" stroke="#bfbfbf" points="598,-67.5 598,-97.5 711,-97.5 711,-67.5 598,-67.5"/>
<text text-anchor="start" x="606" y="-85.5" font-family="Helvetica,sans-Serif" font-size="10.00">boost/property_tree</text>
<text text-anchor="middle" x="654.5" y="-74.5" font-family="Helvetica,sans-Serif" font-size="10.00">/json_parser.hpp</text>
</a>
</g>
</g>
<!-- Node5&#45;&gt;Node13 -->
<g id="edge12" class="edge">
<title>Node5&#45;&gt;Node13</title>
<path fill="none" stroke="midnightblue" d="M591.96,-134.48C601.66,-126.57 616.49,-114.48 629.27,-104.07"/>
<polygon fill="midnightblue" stroke="midnightblue" points="631.76,-106.55 637.3,-97.52 627.33,-101.13 631.76,-106.55"/>
</g>
<!-- Node7 -->
<g id="node7" class="node">
<title>Node7</title>
<g id="a_node7"><a xlink:title=" ">
<polygon fill="white" stroke="#bfbfbf" points="1344,-6 1344,-25 1437,-25 1437,-6 1344,-6"/>
<text text-anchor="middle" x="1390.5" y="-13" font-family="Helvetica,sans-Serif" font-size="10.00">spdlog/spdlog.h</text>
</a>
</g>
</g>
<!-- Node6&#45;&gt;Node7 -->
<g id="edge6" class="edge">
<title>Node6&#45;&gt;Node7</title>
<path fill="none" stroke="midnightblue" d="M1494.32,-72.73C1474.07,-61.77 1439.2,-42.88 1415.51,-30.05"/>
<polygon fill="midnightblue" stroke="midnightblue" points="1416.89,-26.81 1406.43,-25.13 1413.55,-32.97 1416.89,-26.81"/>
</g>
<!-- Node8 -->
<g id="node8" class="node">
<title>Node8</title>
<g id="a_node8"><a xlink:title=" ">
<polygon fill="white" stroke="#bfbfbf" points="1455,-0.5 1455,-30.5 1566,-30.5 1566,-0.5 1455,-0.5"/>
<text text-anchor="start" x="1463" y="-18.5" font-family="Helvetica,sans-Serif" font-size="10.00">spdlog/sinks/stdout</text>
<text text-anchor="middle" x="1510.5" y="-7.5" font-family="Helvetica,sans-Serif" font-size="10.00">_color_sinks.h</text>
</a>
</g>
</g>
<!-- Node6&#45;&gt;Node8 -->
<g id="edge7" class="edge">
<title>Node6&#45;&gt;Node8</title>
<path fill="none" stroke="midnightblue" d="M1510.5,-72.73C1510.5,-64.54 1510.5,-51.92 1510.5,-40.71"/>
<polygon fill="midnightblue" stroke="midnightblue" points="1514,-40.59 1510.5,-30.59 1507,-40.59 1514,-40.59"/>
</g>
<!-- Node9 -->
<g id="node9" class="node">
<title>Node9</title>
<g id="a_node9"><a xlink:title=" ">
<polygon fill="white" stroke="#bfbfbf" points="2426.5,-6 2426.5,-25 2484.5,-25 2484.5,-6 2426.5,-6"/>
<text text-anchor="middle" x="2455.5" y="-13" font-family="Helvetica,sans-Serif" font-size="10.00">memory</text>
</a>
</g>
</g>
<!-- Node6&#45;&gt;Node9 -->
<g id="edge8" class="edge">
<title>Node6&#45;&gt;Node9</title>
<path fill="none" stroke="midnightblue" d="M1560.31,-78.07C1727.41,-66.58 2266,-29.53 2416.25,-19.2"/>
<polygon fill="midnightblue" stroke="midnightblue" points="2416.65,-22.68 2426.39,-18.5 2416.17,-15.7 2416.65,-22.68"/>
</g>
<!-- Node10 -->
<g id="node10" class="node">
<title>Node10</title>
<g id="a_node10"><a xlink:title=" ">
<polygon fill="white" stroke="#bfbfbf" points="1584.5,-6 1584.5,-25 1682.5,-25 1682.5,-6 1584.5,-6"/>
<text text-anchor="middle" x="1633.5" y="-13" font-family="Helvetica,sans-Serif" font-size="10.00">spdlog/fmt/fmt.h</text>
</a>
</g>
</g>
<!-- Node6&#45;&gt;Node10 -->
<g id="edge9" class="edge">
<title>Node6&#45;&gt;Node10</title>
<path fill="none" stroke="midnightblue" d="M1526.83,-72.87C1547.6,-61.89 1583.69,-42.82 1608.07,-29.94"/>
<polygon fill="midnightblue" stroke="midnightblue" points="1609.89,-32.93 1617.1,-25.17 1606.62,-26.75 1609.89,-32.93"/>
</g>
<!-- Node18&#45;&gt;Node12 -->
<g id="edge19" class="edge">
<title>Node18&#45;&gt;Node12</title>
<path fill="none" stroke="midnightblue" d="M729.24,-190.48C791.04,-181.31 878.37,-166.39 888.5,-154 902.65,-136.67 883.8,-113.68 867.48,-98.74"/>
<polygon fill="midnightblue" stroke="midnightblue" points="869.68,-96.01 859.82,-92.11 865.09,-101.3 869.68,-96.01"/>
</g>
<!-- Node19 -->
<g id="node19" class="node">
<title>Node19</title>
<g id="a_node19"><a xlink:title=" ">
<polygon fill="white" stroke="#bfbfbf" points="807,-134.5 807,-153.5 880,-153.5 880,-134.5 807,-134.5"/>
<text text-anchor="middle" x="843.5" y="-141.5" font-family="Helvetica,sans-Serif" font-size="10.00">G4Types.hh</text>
</a>
</g>
</g>
<!-- Node18&#45;&gt;Node19 -->
<g id="edge20" class="edge">
<title>Node18&#45;&gt;Node19</title>
<path fill="none" stroke="midnightblue" d="M695.39,-190.44C725.25,-181.28 772.81,-166.69 805.96,-156.52"/>
<polygon fill="midnightblue" stroke="midnightblue" points="807.21,-159.8 815.74,-153.52 805.16,-153.1 807.21,-159.8"/>
</g>
<!-- Node20 -->
<g id="node20" class="node">
<title>Node20</title>
<g id="a_node20"><a xlink:title=" ">
<polygon fill="white" stroke="#bfbfbf" points="1175.5,-134.5 1175.5,-153.5 1213.5,-153.5 1213.5,-134.5 1175.5,-134.5"/>
<text text-anchor="middle" x="1194.5" y="-141.5" font-family="Helvetica,sans-Serif" font-size="10.00">map</text>
</a>
</g>
</g>
<!-- Node18&#45;&gt;Node20 -->
<g id="edge21" class="edge">
<title>Node18&#45;&gt;Node20</title>
<path fill="none" stroke="midnightblue" d="M735.1,-191.03C738.28,-190.68 741.42,-190.33 744.5,-190 903.01,-172.81 1093.21,-154.58 1165.08,-147.77"/>
<polygon fill="midnightblue" stroke="midnightblue" points="1165.56,-151.24 1175.19,-146.81 1164.9,-144.27 1165.56,-151.24"/>
</g>
<!-- Node21 -->
<g id="node21" class="node">
<title>Node21</title>
<g id="a_node21"><a xlink:title=" ">
<polygon fill="white" stroke="#bfbfbf" points="657,-134.5 657,-153.5 718,-153.5 718,-134.5 657,-134.5"/>
<text text-anchor="middle" x="687.5" y="-141.5" font-family="Helvetica,sans-Serif" font-size="10.00">TGraph.h</text>
</a>
</g>
</g>
<!-- Node18&#45;&gt;Node21 -->
<g id="edge22" class="edge">
<title>Node18&#45;&gt;Node21</title>
<path fill="none" stroke="midnightblue" d="M670.8,-190.08C673.48,-182.85 677.35,-172.41 680.69,-163.4"/>
<polygon fill="midnightblue" stroke="midnightblue" points="684.07,-164.34 684.26,-153.75 677.5,-161.91 684.07,-164.34"/>
</g>
<!-- Node22 -->
<g id="node22" class="node">
<title>Node22</title>
<g id="a_node22"><a xlink:title=" ">
<polygon fill="white" stroke="#bfbfbf" points="736,-134.5 736,-153.5 789,-153.5 789,-134.5 736,-134.5"/>
<text text-anchor="middle" x="762.5" y="-141.5" font-family="Helvetica,sans-Serif" font-size="10.00">TH2D.h</text>
</a>
</g>
</g>
<!-- Node18&#45;&gt;Node22 -->
<g id="edge23" class="edge">
<title>Node18&#45;&gt;Node22</title>
<path fill="none" stroke="midnightblue" d="M682.76,-190.32C697.72,-181.82 720.75,-168.73 738.23,-158.8"/>
<polygon fill="midnightblue" stroke="midnightblue" points="740.31,-161.64 747.27,-153.65 736.85,-155.55 740.31,-161.64"/>
</g>
<!-- Node25&#45;&gt;Node3 -->
<g id="edge32" class="edge">
<title>Node25&#45;&gt;Node3</title>
<path fill="none" stroke="midnightblue" d="M570.49,-302.44C550.91,-293.64 520.19,-279.81 497.77,-269.72"/>
<polygon fill="midnightblue" stroke="midnightblue" points="498.98,-266.43 488.43,-265.52 496.11,-272.81 498.98,-266.43"/>
</g>
<!-- Node25&#45;&gt;Node4 -->
<g id="edge27" class="edge">
<title>Node25&#45;&gt;Node4</title>
<path fill="none" stroke="midnightblue" d="M589.21,-302.33C588.32,-288.74 584.73,-262.29 570.5,-246 556.73,-230.24 536.38,-219.74 517.54,-212.89"/>
<polygon fill="midnightblue" stroke="midnightblue" points="518.47,-209.5 507.88,-209.62 516.23,-216.14 518.47,-209.5"/>
</g>
<!-- Node26 -->
<g id="node26" class="node">
<title>Node26</title>
<g id="a_node26"><a xlink:href="_o_m_sim_hit_manager_8hh.html" target="_top" xlink:title="Defines structures and classes related to optical module photon hit management.">
<polygon fill="white" stroke="black" points="675,-246.5 675,-265.5 798,-265.5 798,-246.5 675,-246.5"/>
<text text-anchor="middle" x="736.5" y="-253.5" font-family="Helvetica,sans-Serif" font-size="10.00">OMSimHitManager.hh</text>
</a>
</g>
</g>
<!-- Node25&#45;&gt;Node26 -->
<g id="edge28" class="edge">
<title>Node25&#45;&gt;Node26</title>
<path fill="none" stroke="midnightblue" d="M612.79,-302.44C637.31,-293.44 676.1,-279.19 703.7,-269.05"/>
<polygon fill="midnightblue" stroke="midnightblue" points="705.14,-272.25 713.32,-265.52 702.72,-265.68 705.14,-272.25"/>
</g>
<!-- Node26&#45;&gt;Node18 -->
<g id="edge29" class="edge">
<title>Node26&#45;&gt;Node18</title>
<path fill="none" stroke="midnightblue" d="M725.41,-246.32C715.01,-238.18 699.24,-225.84 686.78,-216.09"/>
<polygon fill="midnightblue" stroke="midnightblue" points="688.82,-213.24 678.79,-209.83 684.51,-218.75 688.82,-213.24"/>
</g>
<!-- Node27 -->
<g id="node27" class="node">
<title>Node27</title>
<g id="a_node27"><a xlink:title=" ">
<polygon fill="white" stroke="#bfbfbf" points="1016,-190.5 1016,-209.5 1119,-209.5 1119,-190.5 1016,-190.5"/>
<text text-anchor="middle" x="1067.5" y="-197.5" font-family="Helvetica,sans-Serif" font-size="10.00">G4ThreeVector.hh</text>
</a>
</g>
</g>
<!-- Node26&#45;&gt;Node27 -->
<g id="edge30" class="edge">
<title>Node26&#45;&gt;Node27</title>
<path fill="none" stroke="midnightblue" d="M788.95,-246.44C847.83,-236.84 943.29,-221.26 1005.73,-211.08"/>
<polygon fill="midnightblue" stroke="midnightblue" points="1006.54,-214.49 1015.84,-209.43 1005.41,-207.58 1006.54,-214.49"/>
</g>
<!-- Node28 -->
<g id="node28" class="node">
<title>Node28</title>
<g id="a_node28"><a xlink:title=" ">
<polygon fill="white" stroke="#bfbfbf" points="840,-190.5 840,-209.5 895,-209.5 895,-190.5 840,-190.5"/>
<text text-anchor="middle" x="867.5" y="-197.5" font-family="Helvetica,sans-Serif" font-size="10.00">fstream</text>
</a>
</g>
</g>
<!-- Node26&#45;&gt;Node28 -->
<g id="edge31" class="edge">
<title>Node26&#45;&gt;Node28</title>
<path fill="none" stroke="midnightblue" d="M757.26,-246.44C778.82,-237.56 812.76,-223.56 837.29,-213.45"/>
<polygon fill="midnightblue" stroke="midnightblue" points="838.93,-216.56 846.84,-209.52 836.26,-210.09 838.93,-216.56"/>
</g>
<!-- Node29&#45;&gt;Node9 -->
<g id="edge39" class="edge">
<title>Node29&#45;&gt;Node9</title>
<path fill="none" stroke="midnightblue" d="M1982.05,-254.42C2146.76,-251.82 2771.03,-240.01 2799.5,-210 2898.42,-105.75 2604.36,-42.44 2494.84,-22.96"/>
<polygon fill="midnightblue" stroke="midnightblue" points="2495.29,-19.49 2484.84,-21.21 2494.08,-26.38 2495.29,-19.49"/>
</g>
<!-- Node29&#45;&gt;Node20 -->
<g id="edge36" class="edge">
<title>Node29&#45;&gt;Node20</title>
<path fill="none" stroke="midnightblue" d="M1902.97,-255.43C1757.3,-256.63 1256.3,-257.26 1204.5,-210 1192,-198.6 1190.62,-178.61 1191.68,-163.8"/>
<polygon fill="midnightblue" stroke="midnightblue" points="1195.17,-164.04 1192.81,-153.71 1188.22,-163.26 1195.17,-164.04"/>
</g>
<!-- Node29&#45;&gt;Node27 -->
<g id="edge37" class="edge">
<title>Node29&#45;&gt;Node27</title>
<path fill="none" stroke="midnightblue" d="M1902.75,-253.07C1788.82,-247.47 1451.33,-230.27 1171.5,-210 1157.75,-209 1143,-207.81 1129.05,-206.61"/>
<polygon fill="midnightblue" stroke="midnightblue" points="1129.32,-203.12 1119.05,-205.75 1128.71,-210.1 1129.32,-203.12"/>
</g>
<!-- Node29&#45;&gt;Node28 -->
<g id="edge50" class="edge">
<title>Node29&#45;&gt;Node28</title>
<path fill="none" stroke="midnightblue" d="M1902.93,-254.32C1740.33,-251.36 1122.46,-238.54 905.3,-209.75"/>
<polygon fill="midnightblue" stroke="midnightblue" points="905.65,-206.27 895.27,-208.37 904.7,-213.2 905.65,-206.27"/>
</g>
<!-- Node30 -->
<g id="node30" class="node">
<title>Node30</title>
<g id="a_node30"><a xlink:title=" ">
<polygon fill="white" stroke="#bfbfbf" points="1905.5,-190.5 1905.5,-209.5 1979.5,-209.5 1979.5,-190.5 1905.5,-190.5"/>
<text text-anchor="middle" x="1942.5" y="-197.5" font-family="Helvetica,sans-Serif" font-size="10.00">G4String.hh</text>
</a>
</g>
</g>
<!-- Node29&#45;&gt;Node30 -->
<g id="edge34" class="edge">
<title>Node29&#45;&gt;Node30</title>
<path fill="none" stroke="midnightblue" d="M1942.5,-246.08C1942.5,-239.01 1942.5,-228.86 1942.5,-219.99"/>
<polygon fill="midnightblue" stroke="midnightblue" points="1946,-219.75 1942.5,-209.75 1939,-219.75 1946,-219.75"/>
</g>
<!-- Node31 -->
<g id="node31" class="node">
<title>Node31</title>
<g id="a_node31"><a xlink:title=" ">
<polygon fill="white" stroke="#bfbfbf" points="1997.5,-190.5 1997.5,-209.5 2061.5,-209.5 2061.5,-190.5 1997.5,-190.5"/>
<text text-anchor="middle" x="2029.5" y="-197.5" font-family="Helvetica,sans-Serif" font-size="10.00">algorithm</text>
</a>
</g>
</g>
<!-- Node29&#45;&gt;Node31 -->
<g id="edge35" class="edge">
<title>Node29&#45;&gt;Node31</title>
<path fill="none" stroke="midnightblue" d="M1956.48,-246.32C1970.05,-237.9 1990.88,-224.97 2006.82,-215.07"/>
<polygon fill="midnightblue" stroke="midnightblue" points="2008.91,-217.9 2015.56,-209.65 2005.21,-211.95 2008.91,-217.9"/>
</g>
<!-- Node32 -->
<g id="node32" class="node">
<title>Node32</title>
<g id="a_node32"><a xlink:title=" ">
<polygon fill="white" stroke="#bfbfbf" points="2080,-190.5 2080,-209.5 2199,-209.5 2199,-190.5 2080,-190.5"/>
<text text-anchor="middle" x="2139.5" y="-197.5" font-family="Helvetica,sans-Serif" font-size="10.00">G4TriangularFacet.hh</text>
</a>
</g>
</g>
<!-- Node29&#45;&gt;Node32 -->
<g id="edge38" class="edge">
<title>Node29&#45;&gt;Node32</title>
<path fill="none" stroke="midnightblue" d="M1973.72,-246.44C2007.43,-237.2 2061.3,-222.44 2098.43,-212.26"/>
<polygon fill="midnightblue" stroke="midnightblue" points="2099.71,-215.54 2108.43,-209.52 2097.86,-208.78 2099.71,-215.54"/>
</g>
<!-- Node33 -->
<g id="node33" class="node">
<title>Node33</title>
<g id="a_node33"><a xlink:title=" ">
<polygon fill="white" stroke="#bfbfbf" points="2217,-190.5 2217,-209.5 2264,-209.5 2264,-190.5 2217,-190.5"/>
<text text-anchor="middle" x="2240.5" y="-197.5" font-family="Helvetica,sans-Serif" font-size="10.00">vector</text>
</a>
</g>
</g>
<!-- Node29&#45;&gt;Node33 -->
<g id="edge40" class="edge">
<title>Node29&#45;&gt;Node33</title>
<path fill="none" stroke="midnightblue" d="M1982.24,-249.49C2032.35,-242.28 2121.3,-228.57 2206.9,-209.94"/>
<polygon fill="midnightblue" stroke="midnightblue" points="2207.76,-213.34 2216.78,-207.77 2206.26,-206.5 2207.76,-213.34"/>
</g>
<!-- Node34 -->
<g id="node34" class="node">
<title>Node34</title>
<g id="a_node34"><a xlink:title=" ">
<polygon fill="white" stroke="#bfbfbf" points="2282.5,-190.5 2282.5,-209.5 2342.5,-209.5 2342.5,-190.5 2282.5,-190.5"/>
<text text-anchor="middle" x="2312.5" y="-197.5" font-family="Helvetica,sans-Serif" font-size="10.00">iostream</text>
</a>
</g>
</g>
<!-- Node29&#45;&gt;Node34 -->
<g id="edge41" class="edge">
<title>Node29&#45;&gt;Node34</title>
<path fill="none" stroke="midnightblue" d="M1982.04,-250.72C2044.14,-243.75 2168.22,-228.81 2272.5,-210 2272.6,-209.98 2272.7,-209.96 2272.8,-209.95"/>
<polygon fill="midnightblue" stroke="midnightblue" points="2273.28,-213.42 2282.42,-208.06 2271.93,-206.55 2273.28,-213.42"/>
</g>
<!-- Node35 -->
<g id="node35" class="node">
<title>Node35</title>
<g id="a_node35"><a xlink:title=" ">
<polygon fill="white" stroke="#bfbfbf" points="2360.5,-190.5 2360.5,-209.5 2404.5,-209.5 2404.5,-190.5 2360.5,-190.5"/>
<text text-anchor="middle" x="2382.5" y="-197.5" font-family="Helvetica,sans-Serif" font-size="10.00">string</text>
</a>
</g>
</g>
<!-- Node29&#45;&gt;Node35 -->
<g id="edge42" class="edge">
<title>Node29&#45;&gt;Node35</title>
<path fill="none" stroke="midnightblue" d="M1982.04,-252.93C2053.72,-248.68 2209.95,-237.17 2350.19,-209.94"/>
<polygon fill="midnightblue" stroke="midnightblue" points="2351.13,-213.33 2360.26,-207.96 2349.77,-206.46 2351.13,-213.33"/>
</g>
<!-- Node36 -->
<g id="node36" class="node">
<title>Node36</title>
<g id="a_node36"><a xlink:title=" ">
<polygon fill="white" stroke="#bfbfbf" points="2422.5,-190.5 2422.5,-209.5 2552.5,-209.5 2552.5,-190.5 2422.5,-190.5"/>
<text text-anchor="middle" x="2487.5" y="-197.5" font-family="Helvetica,sans-Serif" font-size="10.00">G4AssemblyVolume.hh</text>
</a>
</g>
</g>
<!-- Node29&#45;&gt;Node36 -->
<g id="edge43" class="edge">
<title>Node29&#45;&gt;Node36</title>
<path fill="none" stroke="midnightblue" d="M1982.23,-251.55C2061.69,-244.58 2246.08,-228.03 2411.76,-210.17"/>
<polygon fill="midnightblue" stroke="midnightblue" points="2412.58,-213.6 2422.14,-209.04 2411.82,-206.64 2412.58,-213.6"/>
</g>
<!-- Node37 -->
<g id="node37" class="node">
<title>Node37</title>
<g id="a_node37"><a xlink:title=" ">
<polygon fill="white" stroke="#bfbfbf" points="2570.5,-190.5 2570.5,-209.5 2686.5,-209.5 2686.5,-190.5 2570.5,-190.5"/>
<text text-anchor="middle" x="2628.5" y="-197.5" font-family="Helvetica,sans-Serif" font-size="10.00">G4LogicalVolume.hh</text>
</a>
</g>
</g>
<!-- Node29&#45;&gt;Node37 -->
<g id="edge44" class="edge">
<title>Node29&#45;&gt;Node37</title>
<path fill="none" stroke="midnightblue" d="M1982.04,-252.96C2078.81,-247.8 2335.46,-233.02 2560.41,-210.05"/>
<polygon fill="midnightblue" stroke="midnightblue" points="2560.83,-213.53 2570.42,-209.02 2560.12,-206.56 2560.83,-213.53"/>
</g>
<!-- Node38 -->
<g id="node38" class="node">
<title>Node38</title>
<g id="a_node38"><a xlink:title=" ">
<polygon fill="white" stroke="#bfbfbf" points="2704.5,-190.5 2704.5,-209.5 2790.5,-209.5 2790.5,-190.5 2704.5,-190.5"/>
<text text-anchor="middle" x="2747.5" y="-197.5" font-family="Helvetica,sans-Serif" font-size="10.00">G4Material.hh</text>
</a>
</g>
</g>
<!-- Node29&#45;&gt;Node38 -->
<g id="edge45" class="edge">
<title>Node29&#45;&gt;Node38</title>
<path fill="none" stroke="midnightblue" d="M1982.23,-254.19C2093.2,-251.59 2415.93,-241.76 2694.13,-210.02"/>
<polygon fill="midnightblue" stroke="midnightblue" points="2694.89,-213.46 2704.42,-208.84 2694.09,-206.51 2694.89,-213.46"/>
</g>
<!-- Node39 -->
<g id="node39" class="node">
<title>Node39</title>
<g id="a_node39"><a xlink:title=" ">
<polygon fill="white" stroke="#bfbfbf" points="1213.5,-190.5 1213.5,-209.5 1337.5,-209.5 1337.5,-190.5 1213.5,-190.5"/>
<text text-anchor="middle" x="1275.5" y="-197.5" font-family="Helvetica,sans-Serif" font-size="10.00">G4TessellatedSolid.hh</text>
</a>
</g>
</g>
<!-- Node29&#45;&gt;Node39 -->
<g id="edge46" class="edge">
<title>Node29&#45;&gt;Node39</title>
<path fill="none" stroke="midnightblue" d="M1902.68,-252.69C1808.3,-247.08 1563.38,-231.62 1348.05,-210.11"/>
<polygon fill="midnightblue" stroke="midnightblue" points="1348.12,-206.6 1337.82,-209.08 1347.42,-213.56 1348.12,-206.6"/>
</g>
<!-- Node40 -->
<g id="node40" class="node">
<title>Node40</title>
<g id="a_node40"><a xlink:title=" ">
<polygon fill="white" stroke="#bfbfbf" points="1356,-190.5 1356,-209.5 1415,-209.5 1415,-190.5 1356,-190.5"/>
<text text-anchor="middle" x="1385.5" y="-197.5" font-family="Helvetica,sans-Serif" font-size="10.00">G4Tet.hh</text>
</a>
</g>
</g>
<!-- Node29&#45;&gt;Node40 -->
<g id="edge47" class="edge">
<title>Node29&#45;&gt;Node40</title>
<path fill="none" stroke="midnightblue" d="M1902.96,-253.46C1817.55,-249.72 1609.41,-238.42 1425.36,-209.9"/>
<polygon fill="midnightblue" stroke="midnightblue" points="1425.65,-206.41 1415.23,-208.31 1424.56,-213.32 1425.65,-206.41"/>
</g>
<!-- Node41 -->
<g id="node41" class="node">
<title>Node41</title>
<g id="a_node41"><a xlink:title=" ">
<polygon fill="white" stroke="#bfbfbf" points="1433.5,-190.5 1433.5,-209.5 1537.5,-209.5 1537.5,-190.5 1433.5,-190.5"/>
<text text-anchor="middle" x="1485.5" y="-197.5" font-family="Helvetica,sans-Serif" font-size="10.00">G4UIcommand.hh</text>
</a>
</g>
</g>
<!-- Node29&#45;&gt;Node41 -->
<g id="edge48" class="edge">
<title>Node29&#45;&gt;Node41</title>
<path fill="none" stroke="midnightblue" d="M1902.82,-250.93C1833.18,-243.7 1684.19,-227.8 1547.93,-210.15"/>
<polygon fill="midnightblue" stroke="midnightblue" points="1548.1,-206.64 1537.73,-208.82 1547.19,-213.58 1548.1,-206.64"/>
</g>
<!-- Node42 -->
<g id="node42" class="node">
<title>Node42</title>
<g id="a_node42"><a xlink:title=" ">
<polygon fill="white" stroke="#bfbfbf" points="1556,-190.5 1556,-209.5 1623,-209.5 1623,-190.5 1556,-190.5"/>
<text text-anchor="middle" x="1589.5" y="-197.5" font-family="Helvetica,sans-Serif" font-size="10.00">globals.hh</text>
</a>
</g>
</g>
<!-- Node29&#45;&gt;Node42 -->
<g id="edge49" class="edge">
<title>Node29&#45;&gt;Node42</title>
<path fill="none" stroke="midnightblue" d="M1902.74,-250.03C1845.47,-242.7 1736.26,-228.07 1633.21,-210.03"/>
<polygon fill="midnightblue" stroke="midnightblue" points="1633.72,-206.56 1623.26,-208.27 1632.5,-213.46 1633.72,-206.56"/>
</g>
<!-- Node43 -->
<g id="node43" class="node">
<title>Node43</title>
<g id="a_node43"><a xlink:title=" ">
<polygon fill="white" stroke="#bfbfbf" points="1641.5,-190.5 1641.5,-209.5 1697.5,-209.5 1697.5,-190.5 1641.5,-190.5"/>
<text text-anchor="middle" x="1669.5" y="-197.5" font-family="Helvetica,sans-Serif" font-size="10.00">sstream</text>
</a>
</g>
</g>
<!-- Node29&#45;&gt;Node43 -->
<g id="edge51" class="edge">
<title>Node29&#45;&gt;Node43</title>
<path fill="none" stroke="midnightblue" d="M1902.71,-248.04C1857.72,-240.04 1782.04,-226.15 1707.74,-210.19"/>
<polygon fill="midnightblue" stroke="midnightblue" points="1708.26,-206.72 1697.75,-208.03 1706.78,-213.56 1708.26,-206.72"/>
</g>
<!-- Node44 -->
<g id="node44" class="node">
<title>Node44</title>
<g id="a_node44"><a xlink:title=" ">
<polygon fill="white" stroke="#bfbfbf" points="1716,-190.5 1716,-209.5 1783,-209.5 1783,-190.5 1716,-190.5"/>
<text text-anchor="middle" x="1749.5" y="-197.5" font-family="Helvetica,sans-Serif" font-size="10.00">streambuf</text>
</a>
</g>
</g>
<!-- Node29&#45;&gt;Node44 -->
<g id="edge52" class="edge">
<title>Node29&#45;&gt;Node44</title>
<path fill="none" stroke="midnightblue" d="M1911.92,-246.44C1878.89,-237.2 1826.11,-222.44 1789.73,-212.26"/>
<polygon fill="midnightblue" stroke="midnightblue" points="1790.51,-208.84 1779.94,-209.52 1788.63,-215.58 1790.51,-208.84"/>
</g>
<!-- Node45 -->
<g id="node45" class="node">
<title>Node45</title>
<g id="a_node45"><a xlink:title=" ">
<polygon fill="white" stroke="#bfbfbf" points="1801.5,-190.5 1801.5,-209.5 1887.5,-209.5 1887.5,-190.5 1801.5,-190.5"/>
<text text-anchor="middle" x="1844.5" y="-197.5" font-family="Helvetica,sans-Serif" font-size="10.00">Randomize.hh</text>
</a>
</g>
</g>
<!-- Node29&#45;&gt;Node45 -->
<g id="edge53" class="edge">
<title>Node29&#45;&gt;Node45</title>
<path fill="none" stroke="midnightblue" d="M1926.75,-246.32C1911.18,-237.74 1887.12,-224.49 1869.04,-214.52"/>
<polygon fill="midnightblue" stroke="midnightblue" points="1870.65,-211.42 1860.21,-209.65 1867.28,-217.55 1870.65,-211.42"/>
</g>
<!-- Node46&#45;&gt;Node6 -->
<g id="edge56" class="edge">
<title>Node46&#45;&gt;Node6</title>
<path fill="none" stroke="midnightblue" d="M1037.61,-247.76C1068.43,-241.61 1102.1,-230.38 1127.5,-210 1157.11,-186.24 1135.63,-156.1 1166.5,-134 1210.9,-102.22 1364.32,-90.14 1450.51,-85.78"/>
<polygon fill="midnightblue" stroke="midnightblue" points="1450.86,-89.27 1460.68,-85.29 1450.52,-82.28 1450.86,-89.27"/>
</g>
<!-- Node46&#45;&gt;Node28 -->
<g id="edge57" class="edge">
<title>Node46&#45;&gt;Node28</title>
<path fill="none" stroke="midnightblue" d="M941.36,-246.32C927.63,-237.9 906.56,-224.97 890.44,-215.07"/>
<polygon fill="midnightblue" stroke="midnightblue" points="891.96,-211.9 881.6,-209.65 888.3,-217.87 891.96,-211.9"/>
</g>
<!-- Node47 -->
<g id="node47" class="node">
<title>Node47</title>
<g id="a_node47"><a xlink:title=" ">
<polygon fill="white" stroke="#bfbfbf" points="913.5,-190.5 913.5,-209.5 997.5,-209.5 997.5,-190.5 913.5,-190.5"/>
<text text-anchor="middle" x="955.5" y="-197.5" font-family="Helvetica,sans-Serif" font-size="10.00">boost/any.hpp</text>
</a>
</g>
</g>
<!-- Node46&#45;&gt;Node47 -->
<g id="edge58" class="edge">
<title>Node46&#45;&gt;Node47</title>
<path fill="none" stroke="midnightblue" d="M955.5,-246.08C955.5,-239.01 955.5,-228.86 955.5,-219.99"/>
<polygon fill="midnightblue" stroke="midnightblue" points="959,-219.75 955.5,-209.75 952,-219.75 959,-219.75"/>
</g>
<!-- Node48 -->
<g id="node48" class="node">
<title>Node48</title>
<g id="a_node48"><a xlink:title=" ">
<polygon fill="white" stroke="#bfbfbf" points="753.5,-190.5 753.5,-209.5 821.5,-209.5 821.5,-190.5 753.5,-190.5"/>
<text text-anchor="middle" x="787.5" y="-197.5" font-family="Helvetica,sans-Serif" font-size="10.00">sys/time.h</text>
</a>
</g>
</g>
<!-- Node46&#45;&gt;Node48 -->
<g id="edge59" class="edge">
<title>Node46&#45;&gt;Node48</title>
<path fill="none" stroke="midnightblue" d="M928.88,-246.44C900.49,-237.32 855.36,-222.81 823.75,-212.65"/>
<polygon fill="midnightblue" stroke="midnightblue" points="824.59,-209.24 814,-209.52 822.44,-215.91 824.59,-209.24"/>
</g>
</g>
</svg>
