<?xml version="1.0" encoding="UTF-8" standalone="no"?>
<!DOCTYPE svg PUBLIC "-//W3C//DTD SVG 1.1//EN"
 "http://www.w3.org/Graphics/SVG/1.1/DTD/svg11.dtd">
<!-- Generated by graphviz version 2.43.0 (0)
 -->
<!-- Title: OMSim_radioactive_decays.cc Pages: 1 -->
<svg width="2363pt" height="478pt"
 viewBox="0.00 0.00 2362.50 478.00" xmlns="http://www.w3.org/2000/svg" xmlns:xlink="http://www.w3.org/1999/xlink">
<g id="graph0" class="graph" transform="scale(1 1) rotate(0) translate(4 474)">
<title>OMSim_radioactive_decays.cc</title>
<!-- Node1 -->
<g id="Node000001" class="node">
<title>Node1</title>
<g id="a_Node000001"><a xlink:title="Main of the radioactive decay study.">
<polygon fill="#999999" stroke="#666666" points="958.5,-470 793.5,-470 793.5,-451 958.5,-451 958.5,-470"/>
<text text-anchor="middle" x="876" y="-458" font-family="Helvetica,sans-Serif" font-size="10.00">OMSim_radioactive_decays.cc</text>
</a>
</g>
</g>
<!-- Node2 -->
<g id="Node000002" class="node">
<title>Node2</title>
<g id="a_Node000002"><a xlink:href="_o_m_sim_8hh.html" target="_top" xlink:title="Main simulation class for the Optical Module (OM) simulation. This file defines the OMSim class,...">
<polygon fill="white" stroke="#666666" points="1539.5,-415 1472.5,-415 1472.5,-396 1539.5,-396 1539.5,-415"/>
<text text-anchor="middle" x="1506" y="-403" font-family="Helvetica,sans-Serif" font-size="10.00">OMSim.hh</text>
</a>
</g>
</g>
<!-- Node1&#45;&gt;Node2 -->
<g id="edge1_Node000001_Node000002" class="edge">
<title>Node1&#45;&gt;Node2</title>
<g id="a_edge1_Node000001_Node000002"><a xlink:title=" ">
<path fill="none" stroke="#63b8ff" d="M958.69,-452.54C1093.92,-441.17 1357.77,-418.97 1462.06,-410.2"/>
<polygon fill="#63b8ff" stroke="#63b8ff" points="1462.56,-413.67 1472.23,-409.34 1461.97,-406.69 1462.56,-413.67"/>
</a>
</g>
</g>
<!-- Node26 -->
<g id="Node000026" class="node">
<title>Node26</title>
<g id="a_Node000026"><a xlink:href="_o_m_sim_hit_manager_8hh.html" target="_top" xlink:title="Defines structures and classes related to optical module photon hit management.">
<polygon fill="white" stroke="#666666" points="937.5,-250 814.5,-250 814.5,-231 937.5,-231 937.5,-250"/>
<text text-anchor="middle" x="876" y="-238" font-family="Helvetica,sans-Serif" font-size="10.00">OMSimHitManager.hh</text>
</a>
</g>
</g>
<!-- Node1&#45;&gt;Node26 -->
<g id="edge58_Node000001_Node000026" class="edge">
<title>Node1&#45;&gt;Node26</title>
<g id="a_edge58_Node000001_Node000026"><a xlink:title=" ">
<path fill="none" stroke="#63b8ff" d="M876,-450.95C876,-418.95 876,-305.68 876,-260.4"/>
<polygon fill="#63b8ff" stroke="#63b8ff" points="879.5,-260.22 876,-250.22 872.5,-260.22 879.5,-260.22"/>
</a>
</g>
</g>
<!-- Node59 -->
<g id="Node000059" class="node">
<title>Node59</title>
<g id="a_Node000059"><a xlink:href="_o_m_sim_decays_g_p_s_8hh.html" target="_top" xlink:title="Defines the OMSimDecaysGPS class for the radioactive decays simulation.">
<polygon fill="white" stroke="#666666" points="429,-415 307,-415 307,-396 429,-396 429,-415"/>
<text text-anchor="middle" x="368" y="-403" font-family="Helvetica,sans-Serif" font-size="10.00">OMSimDecaysGPS.hh</text>
</a>
</g>
</g>
<!-- Node1&#45;&gt;Node59 -->
<g id="edge55_Node000001_Node000059" class="edge">
<title>Node1&#45;&gt;Node59</title>
<g id="a_edge55_Node000001_Node000059"><a xlink:title=" ">
<path fill="none" stroke="#63b8ff" d="M794.38,-450.98C696.11,-440.73 532.67,-423.68 439.27,-413.94"/>
<polygon fill="#63b8ff" stroke="#63b8ff" points="439.38,-410.43 429.07,-412.87 438.65,-417.39 439.38,-410.43"/>
</a>
</g>
</g>
<!-- Node61 -->
<g id="Node000061" class="node">
<title>Node61</title>
<g id="a_Node000061"><a xlink:href="_o_m_sim_decays_analysis_8hh.html" target="_top" xlink:title="Defines the OMSimDecaysAnalysis class and DecayStats struct for the radioactive decays simulation.">
<polygon fill="white" stroke="#666666" points="1100,-250 956,-250 956,-231 1100,-231 1100,-250"/>
<text text-anchor="middle" x="1028" y="-238" font-family="Helvetica,sans-Serif" font-size="10.00">OMSimDecaysAnalysis.hh</text>
</a>
</g>
</g>
<!-- Node1&#45;&gt;Node61 -->
<g id="edge59_Node000001_Node000061" class="edge">
<title>Node1&#45;&gt;Node61</title>
<g id="a_edge59_Node000001_Node000061"><a xlink:title=" ">
<path fill="none" stroke="#63b8ff" d="M879.04,-450.97C886.44,-430.78 906.76,-378.92 933,-341 955.81,-308.03 989.56,-275.51 1010.09,-257.03"/>
<polygon fill="#63b8ff" stroke="#63b8ff" points="1012.6,-259.49 1017.76,-250.23 1007.95,-254.25 1012.6,-259.49"/>
</a>
</g>
</g>
<!-- Node62 -->
<g id="Node000062" class="node">
<title>Node62</title>
<g id="a_Node000062"><a xlink:href="_o_m_sim_rad_decays_detector_8hh.html" target="_top" xlink:title="Defines the OMSimRadDecaysDetector class for the radioactive decays simulation.">
<polygon fill="white" stroke="#666666" points="682.5,-415 519.5,-415 519.5,-396 682.5,-396 682.5,-415"/>
<text text-anchor="middle" x="601" y="-403" font-family="Helvetica,sans-Serif" font-size="10.00">OMSimRadDecaysDetector.hh</text>
</a>
</g>
</g>
<!-- Node1&#45;&gt;Node62 -->
<g id="edge63_Node000001_Node000062" class="edge">
<title>Node1&#45;&gt;Node62</title>
<g id="a_edge63_Node000001_Node000062"><a xlink:title=" ">
<path fill="none" stroke="#63b8ff" d="M831.82,-450.98C783.85,-441.74 707.19,-426.97 655.52,-417.01"/>
<polygon fill="#63b8ff" stroke="#63b8ff" points="656.01,-413.54 645.53,-415.08 654.69,-420.41 656.01,-413.54"/>
</a>
</g>
</g>
<!-- Node3 -->
<g id="Node000003" class="node">
<title>Node3</title>
<g id="a_Node000003"><a xlink:href="_o_m_sim_detector_construction_8hh_source.html" target="_top" xlink:title=" ">
<polygon fill="white" stroke="#666666" points="799,-360 629,-360 629,-341 799,-341 799,-360"/>
<text text-anchor="middle" x="714" y="-348" font-family="Helvetica,sans-Serif" font-size="10.00">OMSimDetectorConstruction.hh</text>
</a>
</g>
</g>
<!-- Node2&#45;&gt;Node3 -->
<g id="edge2_Node000002_Node000003" class="edge">
<title>Node2&#45;&gt;Node3</title>
<g id="a_edge2_Node000002_Node000003"><a xlink:title=" ">
<path fill="none" stroke="#63b8ff" d="M1472.47,-402.26C1358.97,-394.66 986.38,-369.73 809.21,-357.87"/>
<polygon fill="#63b8ff" stroke="#63b8ff" points="809.33,-354.37 799.12,-357.2 808.86,-361.36 809.33,-354.37"/>
</a>
</g>
</g>
<!-- Node39 -->
<g id="Node000039" class="node">
<title>Node39</title>
<g id="a_Node000039"><a xlink:title=" ">
<polygon fill="#e0e0e0" stroke="#999999" points="1693.5,-360 1572.5,-360 1572.5,-341 1693.5,-341 1693.5,-360"/>
<text text-anchor="middle" x="1633" y="-348" font-family="Helvetica,sans-Serif" font-size="10.00">OMSimPhysicsList.hh</text>
</a>
</g>
</g>
<!-- Node2&#45;&gt;Node39 -->
<g id="edge32_Node000002_Node000039" class="edge">
<title>Node2&#45;&gt;Node39</title>
<g id="a_edge32_Node000002_Node000039"><a xlink:title=" ">
<path fill="none" stroke="#63b8ff" d="M1526.4,-395.98C1547.02,-387.38 1579.11,-373.99 1602.69,-364.15"/>
<polygon fill="#63b8ff" stroke="#63b8ff" points="1604.34,-367.25 1612.22,-360.17 1601.65,-360.79 1604.34,-367.25"/>
</a>
</g>
</g>
<!-- Node40 -->
<g id="Node000040" class="node">
<title>Node40</title>
<g id="a_Node000040"><a xlink:title=" ">
<polygon fill="#e0e0e0" stroke="#999999" points="1896.5,-360 1711.5,-360 1711.5,-341 1896.5,-341 1896.5,-360"/>
<text text-anchor="middle" x="1804" y="-348" font-family="Helvetica,sans-Serif" font-size="10.00">OMSimPrimaryGeneratorAction.hh</text>
</a>
</g>
</g>
<!-- Node2&#45;&gt;Node40 -->
<g id="edge33_Node000002_Node000040" class="edge">
<title>Node2&#45;&gt;Node40</title>
<g id="a_edge33_Node000002_Node000040"><a xlink:title=" ">
<path fill="none" stroke="#63b8ff" d="M1539.61,-398.52C1589.71,-389.61 1684.68,-372.72 1746.11,-361.8"/>
<polygon fill="#63b8ff" stroke="#63b8ff" points="1746.81,-365.23 1756.04,-360.03 1745.58,-358.33 1746.81,-365.23"/>
</a>
</g>
</g>
<!-- Node41 -->
<g id="Node000041" class="node">
<title>Node41</title>
<g id="a_Node000041"><a xlink:href="_o_m_sim_run_action_8hh_source.html" target="_top" xlink:title=" ">
<polygon fill="white" stroke="#666666" points="1584,-305 1468,-305 1468,-286 1584,-286 1584,-305"/>
<text text-anchor="middle" x="1526" y="-293" font-family="Helvetica,sans-Serif" font-size="10.00">OMSimRunAction.hh</text>
</a>
</g>
</g>
<!-- Node2&#45;&gt;Node41 -->
<g id="edge34_Node000002_Node000041" class="edge">
<title>Node2&#45;&gt;Node41</title>
<g id="a_edge34_Node000002_Node000041"><a xlink:title=" ">
<path fill="none" stroke="#63b8ff" d="M1509.35,-395.78C1512.61,-386.91 1517.43,-372.7 1520,-360 1522.99,-345.21 1524.5,-328.17 1525.25,-315.47"/>
<polygon fill="#63b8ff" stroke="#63b8ff" points="1528.76,-315.37 1525.76,-305.21 1521.77,-315.03 1528.76,-315.37"/>
</a>
</g>
</g>
<!-- Node45 -->
<g id="Node000045" class="node">
<title>Node45</title>
<g id="a_Node000045"><a xlink:title=" ">
<polygon fill="#e0e0e0" stroke="#999999" points="2039.5,-360 1914.5,-360 1914.5,-341 2039.5,-341 2039.5,-360"/>
<text text-anchor="middle" x="1977" y="-348" font-family="Helvetica,sans-Serif" font-size="10.00">OMSimEventAction.hh</text>
</a>
</g>
</g>
<!-- Node2&#45;&gt;Node45 -->
<g id="edge40_Node000002_Node000045" class="edge">
<title>Node2&#45;&gt;Node45</title>
<g id="a_edge40_Node000002_Node000045"><a xlink:title=" ">
<path fill="none" stroke="#63b8ff" d="M1539.64,-400.82C1606.71,-393.47 1762.11,-376.37 1903.98,-360.11"/>
<polygon fill="#63b8ff" stroke="#63b8ff" points="1904.64,-363.56 1914.17,-358.94 1903.84,-356.6 1904.64,-363.56"/>
</a>
</g>
</g>
<!-- Node46 -->
<g id="Node000046" class="node">
<title>Node46</title>
<g id="a_Node000046"><a xlink:href="_o_m_sim_tracking_action_8hh_source.html" target="_top" xlink:title=" ">
<polygon fill="white" stroke="#666666" points="2196,-360 2058,-360 2058,-341 2196,-341 2196,-360"/>
<text text-anchor="middle" x="2127" y="-348" font-family="Helvetica,sans-Serif" font-size="10.00">OMSimTrackingAction.hh</text>
</a>
</g>
</g>
<!-- Node2&#45;&gt;Node46 -->
<g id="edge41_Node000002_Node000046" class="edge">
<title>Node2&#45;&gt;Node46</title>
<g id="a_edge41_Node000002_Node000046"><a xlink:title=" ">
<path fill="none" stroke="#63b8ff" d="M1539.64,-402.03C1623.39,-395.84 1848.16,-378.81 2047.57,-360.02"/>
<polygon fill="#63b8ff" stroke="#63b8ff" points="2048.02,-363.49 2057.65,-359.06 2047.36,-356.52 2048.02,-363.49"/>
</a>
</g>
</g>
<!-- Node48 -->
<g id="Node000048" class="node">
<title>Node48</title>
<g id="a_Node000048"><a xlink:href="_o_m_sim_stepping_action_8hh.html" target="_top" xlink:title="Defines OMSimSteppingAction.Currently it only checks for trapped photons.">
<polygon fill="white" stroke="#666666" points="2354,-360 2214,-360 2214,-341 2354,-341 2354,-360"/>
<text text-anchor="middle" x="2284" y="-348" font-family="Helvetica,sans-Serif" font-size="10.00">OMSimSteppingAction.hh</text>
</a>
</g>
</g>
<!-- Node2&#45;&gt;Node48 -->
<g id="edge43_Node000002_Node000048" class="edge">
<title>Node2&#45;&gt;Node48</title>
<g id="a_edge43_Node000002_Node000048"><a xlink:title=" ">
<path fill="none" stroke="#63b8ff" d="M1539.5,-402.89C1638.99,-397.99 1941.54,-382.29 2203.71,-360.07"/>
<polygon fill="#63b8ff" stroke="#63b8ff" points="2204.14,-363.55 2213.8,-359.21 2203.54,-356.58 2204.14,-363.55"/>
</a>
</g>
</g>
<!-- Node50 -->
<g id="Node000050" class="node">
<title>Node50</title>
<g id="a_Node000050"><a xlink:href="_o_m_sim_u_iinterface_8hh.html" target="_top" xlink:title=" ">
<polygon fill="white" stroke="#666666" points="1409.5,-305 1288.5,-305 1288.5,-286 1409.5,-286 1409.5,-305"/>
<text text-anchor="middle" x="1349" y="-293" font-family="Helvetica,sans-Serif" font-size="10.00">OMSimUIinterface.hh</text>
</a>
</g>
</g>
<!-- Node2&#45;&gt;Node50 -->
<g id="edge45_Node000002_Node000050" class="edge">
<title>Node2&#45;&gt;Node50</title>
<g id="a_edge45_Node000002_Node000050"><a xlink:title=" ">
<path fill="none" stroke="#63b8ff" d="M1505.85,-395.85C1505.15,-382.31 1501.81,-356.13 1487,-341 1469.12,-322.74 1443.72,-311.96 1419.58,-305.61"/>
<polygon fill="#63b8ff" stroke="#63b8ff" points="1420.24,-302.17 1409.7,-303.23 1418.6,-308.97 1420.24,-302.17"/>
</a>
</g>
</g>
<!-- Node55 -->
<g id="Node000055" class="node">
<title>Node55</title>
<g id="a_Node000055"><a xlink:title=" ">
<polygon fill="#e0e0e0" stroke="#999999" points="1063.5,-360 942.5,-360 942.5,-341 1063.5,-341 1063.5,-360"/>
<text text-anchor="middle" x="1003" y="-348" font-family="Helvetica,sans-Serif" font-size="10.00">G4MTRunManager.hh</text>
</a>
</g>
</g>
<!-- Node2&#45;&gt;Node55 -->
<g id="edge51_Node000002_Node000055" class="edge">
<title>Node2&#45;&gt;Node55</title>
<g id="a_edge51_Node000002_Node000055"><a xlink:title=" ">
<path fill="none" stroke="#63b8ff" d="M1472.49,-401.3C1401.16,-394.44 1228.83,-377.58 1073.76,-360.18"/>
<polygon fill="#63b8ff" stroke="#63b8ff" points="1073.9,-356.67 1063.57,-359.03 1073.12,-363.63 1073.9,-356.67"/>
</a>
</g>
</g>
<!-- Node56 -->
<g id="Node000056" class="node">
<title>Node56</title>
<g id="a_Node000056"><a xlink:title=" ">
<polygon fill="#e0e0e0" stroke="#999999" points="1188.5,-360 1081.5,-360 1081.5,-341 1188.5,-341 1188.5,-360"/>
<text text-anchor="middle" x="1135" y="-348" font-family="Helvetica,sans-Serif" font-size="10.00">G4VisExecutive.hh</text>
</a>
</g>
</g>
<!-- Node2&#45;&gt;Node56 -->
<g id="edge52_Node000002_Node000056" class="edge">
<title>Node2&#45;&gt;Node56</title>
<g id="a_edge52_Node000002_Node000056"><a xlink:title=" ">
<path fill="none" stroke="#63b8ff" d="M1472.42,-399.7C1410.71,-390.89 1278.33,-371.98 1198.97,-360.64"/>
<polygon fill="#63b8ff" stroke="#63b8ff" points="1199,-357.11 1188.61,-359.16 1198.01,-364.04 1199,-357.11"/>
</a>
</g>
</g>
<!-- Node57 -->
<g id="Node000057" class="node">
<title>Node57</title>
<g id="a_Node000057"><a xlink:title=" ">
<polygon fill="#e0e0e0" stroke="#999999" points="1309.5,-360 1206.5,-360 1206.5,-341 1309.5,-341 1309.5,-360"/>
<text text-anchor="middle" x="1258" y="-348" font-family="Helvetica,sans-Serif" font-size="10.00">G4UIExecutive.hh</text>
</a>
</g>
</g>
<!-- Node2&#45;&gt;Node57 -->
<g id="edge53_Node000002_Node000057" class="edge">
<title>Node2&#45;&gt;Node57</title>
<g id="a_edge53_Node000002_Node000057"><a xlink:title=" ">
<path fill="none" stroke="#63b8ff" d="M1472.3,-397.3C1429.89,-388.23 1356.7,-372.59 1307.82,-362.15"/>
<polygon fill="#63b8ff" stroke="#63b8ff" points="1308.29,-358.67 1297.78,-360 1306.83,-365.51 1308.29,-358.67"/>
</a>
</g>
</g>
<!-- Node58 -->
<g id="Node000058" class="node">
<title>Node58</title>
<g id="a_Node000058"><a xlink:title=" ">
<polygon fill="#e0e0e0" stroke="#999999" points="1478,-360 1328,-360 1328,-341 1478,-341 1478,-360"/>
<text text-anchor="middle" x="1403" y="-348" font-family="Helvetica,sans-Serif" font-size="10.00">boost/program_options.hpp</text>
</a>
</g>
</g>
<!-- Node2&#45;&gt;Node58 -->
<g id="edge54_Node000002_Node000058" class="edge">
<title>Node2&#45;&gt;Node58</title>
<g id="a_edge54_Node000002_Node000058"><a xlink:title=" ">
<path fill="none" stroke="#63b8ff" d="M1489.45,-395.98C1473.11,-387.57 1447.87,-374.59 1428.87,-364.81"/>
<polygon fill="#63b8ff" stroke="#63b8ff" points="1430.34,-361.63 1419.85,-360.17 1427.14,-367.86 1430.34,-361.63"/>
</a>
</g>
</g>
<!-- Node4 -->
<g id="Node000004" class="node">
<title>Node4</title>
<g id="a_Node000004"><a xlink:href="_o_m_sim_optical_module_8hh_source.html" target="_top" xlink:title=" ">
<polygon fill="white" stroke="#666666" points="571.5,-305 434.5,-305 434.5,-286 571.5,-286 571.5,-305"/>
<text text-anchor="middle" x="503" y="-293" font-family="Helvetica,sans-Serif" font-size="10.00">OMSimOpticalModule.hh</text>
</a>
</g>
</g>
<!-- Node3&#45;&gt;Node4 -->
<g id="edge3_Node000003_Node000004" class="edge">
<title>Node3&#45;&gt;Node4</title>
<g id="a_edge3_Node000003_Node000004"><a xlink:title=" ">
<path fill="none" stroke="#63b8ff" d="M680.1,-340.98C643.98,-331.91 586.68,-317.52 547.08,-307.57"/>
<polygon fill="#63b8ff" stroke="#63b8ff" points="547.72,-304.12 537.17,-305.08 546.01,-310.91 547.72,-304.12"/>
</a>
</g>
</g>
<!-- Node37 -->
<g id="Node000037" class="node">
<title>Node37</title>
<g id="a_Node000037"><a xlink:title=" ">
<polygon fill="#e0e0e0" stroke="#999999" points="652,-305 590,-305 590,-286 652,-286 652,-305"/>
<text text-anchor="middle" x="621" y="-293" font-family="Helvetica,sans-Serif" font-size="10.00">G4Orb.hh</text>
</a>
</g>
</g>
<!-- Node3&#45;&gt;Node37 -->
<g id="edge30_Node000003_Node000037" class="edge">
<title>Node3&#45;&gt;Node37</title>
<g id="a_edge30_Node000003_Node000037"><a xlink:title=" ">
<path fill="none" stroke="#63b8ff" d="M699.06,-340.98C684.5,-332.69 662.13,-319.94 645.07,-310.22"/>
<polygon fill="#63b8ff" stroke="#63b8ff" points="646.64,-307.08 636.21,-305.17 643.17,-313.16 646.64,-307.08"/>
</a>
</g>
</g>
<!-- Node38 -->
<g id="Node000038" class="node">
<title>Node38</title>
<g id="a_Node000038"><a xlink:title=" ">
<polygon fill="#e0e0e0" stroke="#999999" points="848,-305 670,-305 670,-286 848,-286 848,-305"/>
<text text-anchor="middle" x="759" y="-293" font-family="Helvetica,sans-Serif" font-size="10.00">G4VUserDetectorConstruction.hh</text>
</a>
</g>
</g>
<!-- Node3&#45;&gt;Node38 -->
<g id="edge31_Node000003_Node000038" class="edge">
<title>Node3&#45;&gt;Node38</title>
<g id="a_edge31_Node000003_Node000038"><a xlink:title=" ">
<path fill="none" stroke="#63b8ff" d="M721.43,-340.75C727.85,-333.18 737.31,-322.05 745.12,-312.84"/>
<polygon fill="#63b8ff" stroke="#63b8ff" points="747.9,-314.98 751.71,-305.09 742.57,-310.45 747.9,-314.98"/>
</a>
</g>
</g>
<!-- Node5 -->
<g id="Node000005" class="node">
<title>Node5</title>
<g id="a_Node000005"><a xlink:href="_o_m_sim_detector_component_8hh.html" target="_top" xlink:title="Provides helper base class OMSimDetectorComponent for constructing and managing detector components i...">
<polygon fill="white" stroke="#666666" points="507.5,-195 342.5,-195 342.5,-176 507.5,-176 507.5,-195"/>
<text text-anchor="middle" x="425" y="-183" font-family="Helvetica,sans-Serif" font-size="10.00">OMSimDetectorComponent.hh</text>
</a>
</g>
</g>
<!-- Node4&#45;&gt;Node5 -->
<g id="edge4_Node000004_Node000005" class="edge">
<title>Node4&#45;&gt;Node5</title>
<g id="a_edge4_Node000004_Node000005"><a xlink:title=" ">
<path fill="none" stroke="#63b8ff" d="M493.91,-285.8C485.17,-277.17 471.86,-263.35 462,-250 451.13,-235.28 440.82,-217.12 433.86,-203.99"/>
<polygon fill="#63b8ff" stroke="#63b8ff" points="436.95,-202.35 429.24,-195.08 430.74,-205.57 436.95,-202.35"/>
</a>
</g>
</g>
<!-- Node4&#45;&gt;Node26 -->
<g id="edge15_Node000004_Node000026" class="edge">
<title>Node4&#45;&gt;Node26</title>
<g id="a_edge15_Node000004_Node000026"><a xlink:title=" ">
<path fill="none" stroke="#63b8ff" d="M562.93,-285.98C629.17,-276.57 735.76,-261.43 805.84,-251.47"/>
<polygon fill="#63b8ff" stroke="#63b8ff" points="806.5,-254.91 815.91,-250.04 805.52,-247.98 806.5,-254.91"/>
</a>
</g>
</g>
<!-- Node34 -->
<g id="Node000034" class="node">
<title>Node34</title>
<g id="a_Node000034"><a xlink:href="_o_m_sim_p_m_t_construction_8hh.html" target="_top" xlink:title="Construction of the PMTs.">
<polygon fill="#fff0f0" stroke="red" points="620.5,-250 471.5,-250 471.5,-231 620.5,-231 620.5,-250"/>
<text text-anchor="middle" x="546" y="-238" font-family="Helvetica,sans-Serif" font-size="10.00">OMSimPMTConstruction.hh</text>
</a>
</g>
</g>
<!-- Node4&#45;&gt;Node34 -->
<g id="edge26_Node000004_Node000034" class="edge">
<title>Node4&#45;&gt;Node34</title>
<g id="a_edge26_Node000004_Node000034"><a xlink:title=" ">
<path fill="none" stroke="#63b8ff" d="M510.1,-285.75C516.17,-278.26 525.09,-267.28 532.51,-258.13"/>
<polygon fill="#63b8ff" stroke="#63b8ff" points="535.45,-260.06 539.03,-250.09 530.01,-255.65 535.45,-260.06"/>
</a>
</g>
</g>
<!-- Node6 -->
<g id="Node000006" class="node">
<title>Node6</title>
<g id="a_Node000006"><a xlink:href="_o_m_sim_input_data_8hh.html" target="_top" xlink:title="Definition of ParameterTable and OMSimInputData.">
<polygon fill="#fff0f0" stroke="red" points="638.5,-140 523.5,-140 523.5,-121 638.5,-121 638.5,-140"/>
<text text-anchor="middle" x="581" y="-128" font-family="Helvetica,sans-Serif" font-size="10.00">OMSimInputData.hh</text>
</a>
</g>
</g>
<!-- Node5&#45;&gt;Node6 -->
<g id="edge5_Node000005_Node000006" class="edge">
<title>Node5&#45;&gt;Node6</title>
<g id="a_edge5_Node000005_Node000006"><a xlink:title=" ">
<path fill="none" stroke="#63b8ff" d="M450.06,-175.98C476.03,-167.16 516.81,-153.31 545.96,-143.41"/>
<polygon fill="#63b8ff" stroke="#63b8ff" points="547.4,-146.61 555.74,-140.08 545.15,-139.99 547.4,-146.61"/>
</a>
</g>
</g>
<!-- Node22 -->
<g id="Node000022" class="node">
<title>Node22</title>
<g id="a_Node000022"><a xlink:title=" ">
<polygon fill="#e0e0e0" stroke="#999999" points="505.5,-140 398.5,-140 398.5,-121 505.5,-121 505.5,-140"/>
<text text-anchor="middle" x="452" y="-128" font-family="Helvetica,sans-Serif" font-size="10.00">G4Transform3D.hh</text>
</a>
</g>
</g>
<!-- Node5&#45;&gt;Node22 -->
<g id="edge11_Node000005_Node000022" class="edge">
<title>Node5&#45;&gt;Node22</title>
<g id="a_edge11_Node000005_Node000022"><a xlink:title=" ">
<path fill="none" stroke="#63b8ff" d="M429.46,-175.75C433.12,-168.57 438.41,-158.18 442.95,-149.27"/>
<polygon fill="#63b8ff" stroke="#63b8ff" points="446.2,-150.59 447.62,-140.09 439.97,-147.41 446.2,-150.59"/>
</a>
</g>
</g>
<!-- Node23 -->
<g id="Node000023" class="node">
<title>Node23</title>
<g id="a_Node000023"><a xlink:title=" ">
<polygon fill="#e0e0e0" stroke="#999999" points="108,-140 0,-140 0,-121 108,-121 108,-140"/>
<text text-anchor="middle" x="54" y="-128" font-family="Helvetica,sans-Serif" font-size="10.00">G4VisAttributes.hh</text>
</a>
</g>
</g>
<!-- Node5&#45;&gt;Node23 -->
<g id="edge12_Node000005_Node000023" class="edge">
<title>Node5&#45;&gt;Node23</title>
<g id="a_edge12_Node000005_Node000023"><a xlink:title=" ">
<path fill="none" stroke="#63b8ff" d="M365.39,-175.98C297.65,-166.31 187.49,-150.57 117.98,-140.64"/>
<polygon fill="#63b8ff" stroke="#63b8ff" points="118.42,-137.17 108.03,-139.22 117.43,-144.1 118.42,-137.17"/>
</a>
</g>
</g>
<!-- Node24 -->
<g id="Node000024" class="node">
<title>Node24</title>
<g id="a_Node000024"><a xlink:title=" ">
<polygon fill="#e0e0e0" stroke="#999999" points="251.5,-140 126.5,-140 126.5,-121 251.5,-121 251.5,-140"/>
<text text-anchor="middle" x="189" y="-128" font-family="Helvetica,sans-Serif" font-size="10.00">G4SubtractionSolid.hh</text>
</a>
</g>
</g>
<!-- Node5&#45;&gt;Node24 -->
<g id="edge13_Node000005_Node000024" class="edge">
<title>Node5&#45;&gt;Node24</title>
<g id="a_edge13_Node000005_Node000024"><a xlink:title=" ">
<path fill="none" stroke="#63b8ff" d="M387.08,-175.98C346.35,-166.84 281.5,-152.27 237.18,-142.32"/>
<polygon fill="#63b8ff" stroke="#63b8ff" points="237.74,-138.86 227.21,-140.08 236.2,-145.69 237.74,-138.86"/>
</a>
</g>
</g>
<!-- Node25 -->
<g id="Node000025" class="node">
<title>Node25</title>
<g id="a_Node000025"><a xlink:title=" ">
<polygon fill="#e0e0e0" stroke="#999999" points="380,-140 270,-140 270,-121 380,-121 380,-140"/>
<text text-anchor="middle" x="325" y="-128" font-family="Helvetica,sans-Serif" font-size="10.00">G4PVPlacement.hh</text>
</a>
</g>
</g>
<!-- Node5&#45;&gt;Node25 -->
<g id="edge14_Node000005_Node000025" class="edge">
<title>Node5&#45;&gt;Node25</title>
<g id="a_edge14_Node000005_Node000025"><a xlink:title=" ">
<path fill="none" stroke="#63b8ff" d="M408.93,-175.98C393.14,-167.61 368.78,-154.7 350.37,-144.95"/>
<polygon fill="#63b8ff" stroke="#63b8ff" points="351.83,-141.76 341.36,-140.17 348.56,-147.95 351.83,-141.76"/>
</a>
</g>
</g>
<!-- Node7 -->
<g id="Node000007" class="node">
<title>Node7</title>
<g id="a_Node000007"><a xlink:href="_o_m_sim_logger_8hh_source.html" target="_top" xlink:title=" ">
<polygon fill="#fff0f0" stroke="red" points="1280.5,-85 1181.5,-85 1181.5,-66 1280.5,-66 1280.5,-85"/>
<text text-anchor="middle" x="1231" y="-73" font-family="Helvetica,sans-Serif" font-size="10.00">OMSimLogger.hh</text>
</a>
</g>
</g>
<!-- Node6&#45;&gt;Node7 -->
<g id="edge6_Node000006_Node000007" class="edge">
<title>Node6&#45;&gt;Node7</title>
<g id="a_edge6_Node000006_Node000007"><a xlink:title=" ">
<path fill="none" stroke="#63b8ff" d="M638.68,-124.8C761.23,-114.8 1046.46,-91.55 1171.02,-81.39"/>
<polygon fill="#63b8ff" stroke="#63b8ff" points="1171.45,-84.87 1181.13,-80.57 1170.88,-77.89 1171.45,-84.87"/>
</a>
</g>
</g>
<!-- Node20 -->
<g id="Node000020" class="node">
<title>Node20</title>
<g id="a_Node000020"><a xlink:title=" ">
<polygon fill="#e0e0e0" stroke="#999999" points="683.5,-85 564.5,-85 564.5,-66 683.5,-66 683.5,-85"/>
<text text-anchor="middle" x="624" y="-73" font-family="Helvetica,sans-Serif" font-size="10.00">G4SystemOfUnits.hh</text>
</a>
</g>
</g>
<!-- Node6&#45;&gt;Node20 -->
<g id="edge10_Node000006_Node000020" class="edge">
<title>Node6&#45;&gt;Node20</title>
<g id="a_edge10_Node000006_Node000020"><a xlink:title=" ">
<path fill="none" stroke="#63b8ff" d="M588.1,-120.75C594.17,-113.26 603.09,-102.28 610.51,-93.13"/>
<polygon fill="#63b8ff" stroke="#63b8ff" points="613.45,-95.06 617.03,-85.09 608.01,-90.65 613.45,-95.06"/>
</a>
</g>
</g>
<!-- Node8 -->
<g id="Node000008" class="node">
<title>Node8</title>
<g id="a_Node000008"><a xlink:title=" ">
<polygon fill="#e0e0e0" stroke="#999999" points="1157.5,-24.5 1064.5,-24.5 1064.5,-5.5 1157.5,-5.5 1157.5,-24.5"/>
<text text-anchor="middle" x="1111" y="-12.5" font-family="Helvetica,sans-Serif" font-size="10.00">spdlog/spdlog.h</text>
</a>
</g>
</g>
<!-- Node7&#45;&gt;Node8 -->
<g id="edge7_Node000007_Node000008" class="edge">
<title>Node7&#45;&gt;Node8</title>
<g id="a_edge7_Node000007_Node000008"><a xlink:title=" ">
<path fill="none" stroke="#63b8ff" d="M1213.55,-65.99C1193.64,-56.29 1160.86,-40.31 1137.73,-29.03"/>
<polygon fill="#63b8ff" stroke="#63b8ff" points="1138.99,-25.75 1128.47,-24.52 1135.93,-32.04 1138.99,-25.75"/>
</a>
</g>
</g>
<!-- Node9 -->
<g id="Node000009" class="node">
<title>Node9</title>
<g id="a_Node000009"><a xlink:title=" ">
<polygon fill="#e0e0e0" stroke="#999999" points="1286.5,-30 1175.5,-30 1175.5,0 1286.5,0 1286.5,-30"/>
<text text-anchor="start" x="1183.5" y="-18" font-family="Helvetica,sans-Serif" font-size="10.00">spdlog/sinks/stdout</text>
<text text-anchor="middle" x="1231" y="-7" font-family="Helvetica,sans-Serif" font-size="10.00">_color_sinks.h</text>
</a>
</g>
</g>
<!-- Node7&#45;&gt;Node9 -->
<g id="edge8_Node000007_Node000009" class="edge">
<title>Node7&#45;&gt;Node9</title>
<g id="a_edge8_Node000007_Node000009"><a xlink:title=" ">
<path fill="none" stroke="#63b8ff" d="M1231,-65.87C1231,-59.11 1231,-49.35 1231,-40.26"/>
<polygon fill="#63b8ff" stroke="#63b8ff" points="1234.5,-40.11 1231,-30.11 1227.5,-40.11 1234.5,-40.11"/>
</a>
</g>
</g>
<!-- Node10 -->
<g id="Node000010" class="node">
<title>Node10</title>
<g id="a_Node000010"><a xlink:title=" ">
<polygon fill="#e0e0e0" stroke="#999999" points="1363,-24.5 1305,-24.5 1305,-5.5 1363,-5.5 1363,-24.5"/>
<text text-anchor="middle" x="1334" y="-12.5" font-family="Helvetica,sans-Serif" font-size="10.00">memory</text>
</a>
</g>
</g>
<!-- Node7&#45;&gt;Node10 -->
<g id="edge9_Node000007_Node000010" class="edge">
<title>Node7&#45;&gt;Node10</title>
<g id="a_edge9_Node000007_Node000010"><a xlink:title=" ">
<path fill="none" stroke="#63b8ff" d="M1246.2,-65.87C1263.01,-56.32 1290.32,-40.81 1310.02,-29.62"/>
<polygon fill="#63b8ff" stroke="#63b8ff" points="1311.77,-32.65 1318.74,-24.67 1308.32,-26.56 1311.77,-32.65"/>
</a>
</g>
</g>
<!-- Node27 -->
<g id="Node000027" class="node">
<title>Node27</title>
<g id="a_Node000027"><a xlink:href="_o_m_sim_p_m_t_response_8hh.html" target="_top" xlink:title="Simulation of PMT response.">
<polygon fill="white" stroke="#666666" points="748.5,-195 613.5,-195 613.5,-176 748.5,-176 748.5,-195"/>
<text text-anchor="middle" x="681" y="-183" font-family="Helvetica,sans-Serif" font-size="10.00">OMSimPMTResponse.hh</text>
</a>
</g>
</g>
<!-- Node26&#45;&gt;Node27 -->
<g id="edge16_Node000026_Node000027" class="edge">
<title>Node26&#45;&gt;Node27</title>
<g id="a_edge16_Node000026_Node000027"><a xlink:title=" ">
<path fill="none" stroke="#63b8ff" d="M844.67,-230.98C811.51,-221.97 759,-207.7 722.44,-197.76"/>
<polygon fill="#63b8ff" stroke="#63b8ff" points="723.14,-194.33 712.58,-195.08 721.31,-201.08 723.14,-194.33"/>
</a>
</g>
</g>
<!-- Node32 -->
<g id="Node000032" class="node">
<title>Node32</title>
<g id="a_Node000032"><a xlink:title=" ">
<polygon fill="#e0e0e0" stroke="#999999" points="982.5,-195 879.5,-195 879.5,-176 982.5,-176 982.5,-195"/>
<text text-anchor="middle" x="931" y="-183" font-family="Helvetica,sans-Serif" font-size="10.00">G4ThreeVector.hh</text>
</a>
</g>
</g>
<!-- Node26&#45;&gt;Node32 -->
<g id="edge22_Node000026_Node000032" class="edge">
<title>Node26&#45;&gt;Node32</title>
<g id="a_edge22_Node000026_Node000032"><a xlink:title=" ">
<path fill="none" stroke="#63b8ff" d="M885.08,-230.75C893.09,-223.03 904.96,-211.6 914.62,-202.28"/>
<polygon fill="#63b8ff" stroke="#63b8ff" points="917.31,-204.55 922.09,-195.09 912.46,-199.51 917.31,-204.55"/>
</a>
</g>
</g>
<!-- Node33 -->
<g id="Node000033" class="node">
<title>Node33</title>
<g id="a_Node000033"><a xlink:title=" ">
<polygon fill="#e0e0e0" stroke="#999999" points="1164.5,-195 1109.5,-195 1109.5,-176 1164.5,-176 1164.5,-195"/>
<text text-anchor="middle" x="1137" y="-183" font-family="Helvetica,sans-Serif" font-size="10.00">fstream</text>
</a>
</g>
</g>
<!-- Node26&#45;&gt;Node33 -->
<g id="edge23_Node000026_Node000033" class="edge">
<title>Node26&#45;&gt;Node33</title>
<g id="a_edge23_Node000026_Node000033"><a xlink:title=" ">
<path fill="none" stroke="#63b8ff" d="M921.13,-230.94C964.3,-222.66 1031.49,-209.54 1099.16,-195.13"/>
<polygon fill="#63b8ff" stroke="#63b8ff" points="1100.09,-198.51 1109.14,-192.99 1098.63,-191.66 1100.09,-198.51"/>
</a>
</g>
</g>
<!-- Node18 -->
<g id="Node000018" class="node">
<title>Node18</title>
<g id="a_Node000018"><a xlink:title=" ">
<polygon fill="#e0e0e0" stroke="#999999" points="1091,-195 1001,-195 1001,-176 1091,-176 1091,-195"/>
<text text-anchor="middle" x="1046" y="-183" font-family="Helvetica,sans-Serif" font-size="10.00">G4AutoLock.hh</text>
</a>
</g>
</g>
<!-- Node26&#45;&gt;Node18 -->
<g id="edge24_Node000026_Node000018" class="edge">
<title>Node26&#45;&gt;Node18</title>
<g id="a_edge24_Node000026_Node000018"><a xlink:title=" ">
<path fill="none" stroke="#63b8ff" d="M903.31,-230.98C931.85,-222.09 976.83,-208.07 1008.64,-198.15"/>
<polygon fill="#63b8ff" stroke="#63b8ff" points="1009.97,-201.4 1018.47,-195.08 1007.88,-194.72 1009.97,-201.4"/>
</a>
</g>
</g>
<!-- Node19 -->
<g id="Node000019" class="node">
<title>Node19</title>
<g id="a_Node000019"><a xlink:title=" ">
<polygon fill="#e0e0e0" stroke="#999999" points="861,-195 767,-195 767,-176 861,-176 861,-195"/>
<text text-anchor="middle" x="814" y="-183" font-family="Helvetica,sans-Serif" font-size="10.00">G4Threading.hh</text>
</a>
</g>
</g>
<!-- Node26&#45;&gt;Node19 -->
<g id="edge25_Node000026_Node000019" class="edge">
<title>Node26&#45;&gt;Node19</title>
<g id="a_edge25_Node000026_Node000019"><a xlink:title=" ">
<path fill="none" stroke="#63b8ff" d="M866.04,-230.98C856.87,-223.15 843.06,-211.34 831.97,-201.86"/>
<polygon fill="#63b8ff" stroke="#63b8ff" points="834.02,-199.01 824.14,-195.17 829.47,-204.33 834.02,-199.01"/>
</a>
</g>
</g>
<!-- Node27&#45;&gt;Node20 -->
<g id="edge17_Node000027_Node000020" class="edge">
<title>Node27&#45;&gt;Node20</title>
<g id="a_edge17_Node000027_Node000020"><a xlink:title=" ">
<path fill="none" stroke="#63b8ff" d="M676.34,-175.66C666.94,-157.85 645.57,-117.37 633.24,-94.01"/>
<polygon fill="#63b8ff" stroke="#63b8ff" points="636.33,-92.37 628.57,-85.16 630.14,-95.64 636.33,-92.37"/>
</a>
</g>
</g>
<!-- Node28 -->
<g id="Node000028" class="node">
<title>Node28</title>
<g id="a_Node000028"><a xlink:title=" ">
<polygon fill="#e0e0e0" stroke="#999999" points="918.5,-140 845.5,-140 845.5,-121 918.5,-121 918.5,-140"/>
<text text-anchor="middle" x="882" y="-128" font-family="Helvetica,sans-Serif" font-size="10.00">G4Types.hh</text>
</a>
</g>
</g>
<!-- Node27&#45;&gt;Node28 -->
<g id="edge18_Node000027_Node000028" class="edge">
<title>Node27&#45;&gt;Node28</title>
<g id="a_edge18_Node000027_Node000028"><a xlink:title=" ">
<path fill="none" stroke="#63b8ff" d="M713.29,-175.98C747.62,-166.93 802.06,-152.58 839.77,-142.64"/>
<polygon fill="#63b8ff" stroke="#63b8ff" points="840.68,-146.02 849.45,-140.08 838.89,-139.25 840.68,-146.02"/>
</a>
</g>
</g>
<!-- Node29 -->
<g id="Node000029" class="node">
<title>Node29</title>
<g id="a_Node000029"><a xlink:title=" ">
<polygon fill="#e0e0e0" stroke="#999999" points="1096,-140 1058,-140 1058,-121 1096,-121 1096,-140"/>
<text text-anchor="middle" x="1077" y="-128" font-family="Helvetica,sans-Serif" font-size="10.00">map</text>
</a>
</g>
</g>
<!-- Node27&#45;&gt;Node29 -->
<g id="edge19_Node000027_Node000029" class="edge">
<title>Node27&#45;&gt;Node29</title>
<g id="a_edge19_Node000027_Node000029"><a xlink:title=" ">
<path fill="none" stroke="#63b8ff" d="M744.62,-175.98C831.64,-164.34 984.2,-143.92 1047.83,-135.4"/>
<polygon fill="#63b8ff" stroke="#63b8ff" points="1048.51,-138.84 1057.96,-134.05 1047.58,-131.91 1048.51,-138.84"/>
</a>
</g>
</g>
<!-- Node30 -->
<g id="Node000030" class="node">
<title>Node30</title>
<g id="a_Node000030"><a xlink:title=" ">
<polygon fill="#e0e0e0" stroke="#999999" points="756.5,-140 695.5,-140 695.5,-121 756.5,-121 756.5,-140"/>
<text text-anchor="middle" x="726" y="-128" font-family="Helvetica,sans-Serif" font-size="10.00">TGraph.h</text>
</a>
</g>
</g>
<!-- Node27&#45;&gt;Node30 -->
<g id="edge20_Node000027_Node000030" class="edge">
<title>Node27&#45;&gt;Node30</title>
<g id="a_edge20_Node000027_Node000030"><a xlink:title=" ">
<path fill="none" stroke="#63b8ff" d="M688.43,-175.75C694.85,-168.18 704.31,-157.05 712.12,-147.84"/>
<polygon fill="#63b8ff" stroke="#63b8ff" points="714.9,-149.98 718.71,-140.09 709.57,-145.45 714.9,-149.98"/>
</a>
</g>
</g>
<!-- Node31 -->
<g id="Node000031" class="node">
<title>Node31</title>
<g id="a_Node000031"><a xlink:title=" ">
<polygon fill="#e0e0e0" stroke="#999999" points="827.5,-140 774.5,-140 774.5,-121 827.5,-121 827.5,-140"/>
<text text-anchor="middle" x="801" y="-128" font-family="Helvetica,sans-Serif" font-size="10.00">TH2D.h</text>
</a>
</g>
</g>
<!-- Node27&#45;&gt;Node31 -->
<g id="edge21_Node000027_Node000031" class="edge">
<title>Node27&#45;&gt;Node31</title>
<g id="a_edge21_Node000027_Node000031"><a xlink:title=" ">
<path fill="none" stroke="#63b8ff" d="M700.28,-175.98C719.67,-167.42 749.81,-154.11 772.07,-144.28"/>
<polygon fill="#63b8ff" stroke="#63b8ff" points="773.64,-147.41 781.37,-140.17 770.81,-141.01 773.64,-147.41"/>
</a>
</g>
</g>
<!-- Node34&#45;&gt;Node5 -->
<g id="edge27_Node000034_Node000005" class="edge">
<title>Node34&#45;&gt;Node5</title>
<g id="a_edge27_Node000034_Node000005"><a xlink:title=" ">
<path fill="none" stroke="#63b8ff" d="M526.56,-230.98C507.01,-222.42 476.62,-209.11 454.18,-199.28"/>
<polygon fill="#63b8ff" stroke="#63b8ff" points="455.36,-195.98 444.79,-195.17 452.55,-202.39 455.36,-195.98"/>
</a>
</g>
</g>
<!-- Node34&#45;&gt;Node27 -->
<g id="edge29_Node000034_Node000027" class="edge">
<title>Node34&#45;&gt;Node27</title>
<g id="a_edge29_Node000034_Node000027"><a xlink:title=" ">
<path fill="none" stroke="#63b8ff" d="M567.69,-230.98C589.8,-222.3 624.32,-208.75 649.45,-198.88"/>
<polygon fill="#63b8ff" stroke="#63b8ff" points="650.89,-202.08 658.92,-195.17 648.33,-195.57 650.89,-202.08"/>
</a>
</g>
</g>
<!-- Node34&#45;&gt;Node34 -->
<g id="edge28_Node000034_Node000034" class="edge">
<title>Node34&#45;&gt;Node34</title>
<g id="a_edge28_Node000034_Node000034"><a xlink:title=" ">
<path fill="none" stroke="#63b8ff" d="M589.3,-250.03C614.71,-252.06 638.5,-248.88 638.5,-240.5 638.5,-233.23 620.61,-229.87 599.29,-230.44"/>
<polygon fill="#63b8ff" stroke="#63b8ff" points="599.1,-226.94 589.3,-230.97 599.47,-233.93 599.1,-226.94"/>
</a>
</g>
</g>
<!-- Node41&#45;&gt;Node7 -->
<g id="edge37_Node000041_Node000007" class="edge">
<title>Node41&#45;&gt;Node7</title>
<g id="a_edge37_Node000041_Node000007"><a xlink:title=" ">
<path fill="none" stroke="#63b8ff" d="M1522.6,-285.79C1517.14,-272.64 1505.32,-247.52 1489,-231 1420.4,-161.57 1314.4,-111.15 1262.21,-89"/>
<polygon fill="#63b8ff" stroke="#63b8ff" points="1263.39,-85.7 1252.82,-85.08 1260.69,-92.16 1263.39,-85.7"/>
</a>
</g>
</g>
<!-- Node41&#45;&gt;Node26 -->
<g id="edge36_Node000041_Node000026" class="edge">
<title>Node41&#45;&gt;Node26</title>
<g id="a_edge36_Node000041_Node000026"><a xlink:title=" ">
<path fill="none" stroke="#63b8ff" d="M1467.99,-289.91C1451.81,-288.64 1434.22,-287.26 1418,-286 1211.96,-270.02 1157.63,-270.46 947.67,-250.02"/>
<polygon fill="#63b8ff" stroke="#63b8ff" points="947.85,-246.52 937.56,-249.03 947.17,-253.49 947.85,-246.52"/>
</a>
</g>
</g>
<!-- Node42 -->
<g id="Node000042" class="node">
<title>Node42</title>
<g id="a_Node000042"><a xlink:title=" ">
<polygon fill="#e0e0e0" stroke="#999999" points="1653.5,-250 1536.5,-250 1536.5,-231 1653.5,-231 1653.5,-250"/>
<text text-anchor="middle" x="1595" y="-238" font-family="Helvetica,sans-Serif" font-size="10.00">G4UserRunAction.hh</text>
</a>
</g>
</g>
<!-- Node41&#45;&gt;Node42 -->
<g id="edge35_Node000041_Node000042" class="edge">
<title>Node41&#45;&gt;Node42</title>
<g id="a_edge35_Node000041_Node000042"><a xlink:title=" ">
<path fill="none" stroke="#63b8ff" d="M1537.09,-285.98C1547.49,-278 1563.26,-265.88 1575.72,-256.31"/>
<polygon fill="#63b8ff" stroke="#63b8ff" points="1577.91,-259.04 1583.71,-250.17 1573.65,-253.49 1577.91,-259.04"/>
</a>
</g>
</g>
<!-- Node43 -->
<g id="Node000043" class="node">
<title>Node43</title>
<g id="a_Node000043"><a xlink:title=" ">
<polygon fill="#e0e0e0" stroke="#999999" points="1758,-250 1672,-250 1672,-231 1758,-231 1758,-250"/>
<text text-anchor="middle" x="1715" y="-238" font-family="Helvetica,sans-Serif" font-size="10.00">Randomize.hh</text>
</a>
</g>
</g>
<!-- Node41&#45;&gt;Node43 -->
<g id="edge38_Node000041_Node000043" class="edge">
<title>Node41&#45;&gt;Node43</title>
<g id="a_edge38_Node000041_Node000043"><a xlink:title=" ">
<path fill="none" stroke="#63b8ff" d="M1556.37,-285.98C1588.37,-277.01 1638.96,-262.82 1674.38,-252.89"/>
<polygon fill="#63b8ff" stroke="#63b8ff" points="1675.71,-256.15 1684.4,-250.08 1673.82,-249.41 1675.71,-256.15"/>
</a>
</g>
</g>
<!-- Node44 -->
<g id="Node000044" class="node">
<title>Node44</title>
<g id="a_Node000044"><a xlink:title=" ">
<polygon fill="#e0e0e0" stroke="#999999" points="1480,-250 1416,-250 1416,-231 1480,-231 1480,-250"/>
<text text-anchor="middle" x="1448" y="-238" font-family="Helvetica,sans-Serif" font-size="10.00">G4Run.hh</text>
</a>
</g>
</g>
<!-- Node41&#45;&gt;Node44 -->
<g id="edge39_Node000041_Node000044" class="edge">
<title>Node41&#45;&gt;Node44</title>
<g id="a_edge39_Node000041_Node000044"><a xlink:title=" ">
<path fill="none" stroke="#63b8ff" d="M1513.47,-285.98C1501.6,-277.92 1483.54,-265.65 1469.39,-256.03"/>
<polygon fill="#63b8ff" stroke="#63b8ff" points="1471,-252.9 1460.76,-250.17 1467.06,-258.69 1471,-252.9"/>
</a>
</g>
</g>
<!-- Node47 -->
<g id="Node000047" class="node">
<title>Node47</title>
<g id="a_Node000047"><a xlink:title=" ">
<polygon fill="#e0e0e0" stroke="#999999" points="2195.5,-305 2056.5,-305 2056.5,-286 2195.5,-286 2195.5,-305"/>
<text text-anchor="middle" x="2126" y="-293" font-family="Helvetica,sans-Serif" font-size="10.00">G4UserTrackingAction.hh</text>
</a>
</g>
</g>
<!-- Node46&#45;&gt;Node47 -->
<g id="edge42_Node000046_Node000047" class="edge">
<title>Node46&#45;&gt;Node47</title>
<g id="a_edge42_Node000046_Node000047"><a xlink:title=" ">
<path fill="none" stroke="#63b8ff" d="M2126.83,-340.75C2126.7,-333.8 2126.52,-323.85 2126.35,-315.13"/>
<polygon fill="#63b8ff" stroke="#63b8ff" points="2129.85,-315.02 2126.16,-305.09 2122.85,-315.15 2129.85,-315.02"/>
</a>
</g>
</g>
<!-- Node49 -->
<g id="Node000049" class="node">
<title>Node49</title>
<g id="a_Node000049"><a xlink:title=" ">
<polygon fill="#e0e0e0" stroke="#999999" points="2354.5,-305 2213.5,-305 2213.5,-286 2354.5,-286 2354.5,-305"/>
<text text-anchor="middle" x="2284" y="-293" font-family="Helvetica,sans-Serif" font-size="10.00">G4UserSteppingAction.hh</text>
</a>
</g>
</g>
<!-- Node48&#45;&gt;Node49 -->
<g id="edge44_Node000048_Node000049" class="edge">
<title>Node48&#45;&gt;Node49</title>
<g id="a_edge44_Node000048_Node000049"><a xlink:title=" ">
<path fill="none" stroke="#63b8ff" d="M2284,-340.75C2284,-333.8 2284,-323.85 2284,-315.13"/>
<polygon fill="#63b8ff" stroke="#63b8ff" points="2287.5,-315.09 2284,-305.09 2280.5,-315.09 2287.5,-315.09"/>
</a>
</g>
</g>
<!-- Node51 -->
<g id="Node000051" class="node">
<title>Node51</title>
<g id="a_Node000051"><a xlink:href="_o_m_sim_command_args_table_8hh.html" target="_top" xlink:title="Definition of the OMSimCommandArgsTable singleton class, which controls user args.">
<polygon fill="#fff0f0" stroke="red" points="1282,-250 1118,-250 1118,-231 1282,-231 1282,-250"/>
<text text-anchor="middle" x="1200" y="-238" font-family="Helvetica,sans-Serif" font-size="10.00">OMSimCommandArgsTable.hh</text>
</a>
</g>
</g>
<!-- Node50&#45;&gt;Node51 -->
<g id="edge46_Node000050_Node000051" class="edge">
<title>Node50&#45;&gt;Node51</title>
<g id="a_edge46_Node000050_Node000051"><a xlink:title=" ">
<path fill="none" stroke="#63b8ff" d="M1325.06,-285.98C1300.44,-277.23 1261.88,-263.51 1234.08,-253.62"/>
<polygon fill="#63b8ff" stroke="#63b8ff" points="1234.97,-250.22 1224.38,-250.17 1232.62,-256.82 1234.97,-250.22"/>
</a>
</g>
</g>
<!-- Node54 -->
<g id="Node000054" class="node">
<title>Node54</title>
<g id="a_Node000054"><a xlink:title=" ">
<polygon fill="#e0e0e0" stroke="#999999" points="1398,-250 1300,-250 1300,-231 1398,-231 1398,-250"/>
<text text-anchor="middle" x="1349" y="-238" font-family="Helvetica,sans-Serif" font-size="10.00">G4UImanager.hh</text>
</a>
</g>
</g>
<!-- Node50&#45;&gt;Node54 -->
<g id="edge50_Node000050_Node000054" class="edge">
<title>Node50&#45;&gt;Node54</title>
<g id="a_edge50_Node000050_Node000054"><a xlink:title=" ">
<path fill="none" stroke="#63b8ff" d="M1349,-285.75C1349,-278.8 1349,-268.85 1349,-260.13"/>
<polygon fill="#63b8ff" stroke="#63b8ff" points="1352.5,-260.09 1349,-250.09 1345.5,-260.09 1352.5,-260.09"/>
</a>
</g>
</g>
<!-- Node51&#45;&gt;Node7 -->
<g id="edge47_Node000051_Node000007" class="edge">
<title>Node51&#45;&gt;Node7</title>
<g id="a_edge47_Node000051_Node000007"><a xlink:title=" ">
<path fill="none" stroke="#63b8ff" d="M1201.67,-230.74C1206.52,-205.2 1220.74,-130.43 1227.44,-95.23"/>
<polygon fill="#63b8ff" stroke="#63b8ff" points="1230.9,-95.78 1229.33,-85.31 1224.02,-94.48 1230.9,-95.78"/>
</a>
</g>
</g>
<!-- Node51&#45;&gt;Node29 -->
<g id="edge49_Node000051_Node000029" class="edge">
<title>Node51&#45;&gt;Node29</title>
<g id="a_edge49_Node000051_Node000029"><a xlink:title=" ">
<path fill="none" stroke="#63b8ff" d="M1198.34,-230.58C1195.42,-217.15 1188.17,-191.66 1173,-176 1154.66,-157.06 1126.71,-145.37 1105.69,-138.76"/>
<polygon fill="#63b8ff" stroke="#63b8ff" points="1106.58,-135.37 1096,-135.91 1104.61,-142.08 1106.58,-135.37"/>
</a>
</g>
</g>
<!-- Node51&#45;&gt;Node33 -->
<g id="edge48_Node000051_Node000033" class="edge">
<title>Node51&#45;&gt;Node33</title>
<g id="a_edge48_Node000051_Node000033"><a xlink:title=" ">
<path fill="none" stroke="#63b8ff" d="M1189.88,-230.98C1180.56,-223.15 1166.53,-211.34 1155.26,-201.86"/>
<polygon fill="#63b8ff" stroke="#63b8ff" points="1157.21,-198.93 1147.31,-195.17 1152.71,-204.29 1157.21,-198.93"/>
</a>
</g>
</g>
<!-- Node59&#45;&gt;Node4 -->
<g id="edge56_Node000059_Node000004" class="edge">
<title>Node59&#45;&gt;Node4</title>
<g id="a_edge56_Node000059_Node000004"><a xlink:title=" ">
<path fill="none" stroke="#63b8ff" d="M379.05,-395.66C402.1,-377.22 455.57,-334.45 484.16,-311.57"/>
<polygon fill="#63b8ff" stroke="#63b8ff" points="486.55,-314.14 492.18,-305.16 482.18,-308.67 486.55,-314.14"/>
</a>
</g>
</g>
<!-- Node60 -->
<g id="Node000060" class="node">
<title>Node60</title>
<g id="a_Node000060"><a xlink:title=" ">
<polygon fill="#e0e0e0" stroke="#999999" points="339.5,-360 272.5,-360 272.5,-341 339.5,-341 339.5,-360"/>
<text text-anchor="middle" x="306" y="-348" font-family="Helvetica,sans-Serif" font-size="10.00">globals.hh</text>
</a>
</g>
</g>
<!-- Node59&#45;&gt;Node60 -->
<g id="edge57_Node000059_Node000060" class="edge">
<title>Node59&#45;&gt;Node60</title>
<g id="a_edge57_Node000059_Node000060"><a xlink:title=" ">
<path fill="none" stroke="#63b8ff" d="M358.04,-395.98C348.87,-388.15 335.06,-376.34 323.97,-366.86"/>
<polygon fill="#63b8ff" stroke="#63b8ff" points="326.02,-364.01 316.14,-360.17 321.47,-369.33 326.02,-364.01"/>
</a>
</g>
</g>
<!-- Node61&#45;&gt;Node32 -->
<g id="edge60_Node000061_Node000032" class="edge">
<title>Node61&#45;&gt;Node32</title>
<g id="a_edge60_Node000061_Node000032"><a xlink:title=" ">
<path fill="none" stroke="#63b8ff" d="M1012.42,-230.98C997.23,-222.69 973.9,-209.94 956.1,-200.22"/>
<polygon fill="#63b8ff" stroke="#63b8ff" points="957.32,-196.89 946.87,-195.17 953.97,-203.04 957.32,-196.89"/>
</a>
</g>
</g>
<!-- Node61&#45;&gt;Node33 -->
<g id="edge61_Node000061_Node000033" class="edge">
<title>Node61&#45;&gt;Node33</title>
<g id="a_edge61_Node000061_Node000033"><a xlink:title=" ">
<path fill="none" stroke="#63b8ff" d="M1045.51,-230.98C1062.97,-222.5 1090.01,-209.35 1110.17,-199.54"/>
<polygon fill="#63b8ff" stroke="#63b8ff" points="1111.71,-202.69 1119.17,-195.17 1108.64,-196.4 1111.71,-202.69"/>
</a>
</g>
</g>
<!-- Node61&#45;&gt;Node18 -->
<g id="edge62_Node000061_Node000018" class="edge">
<title>Node61&#45;&gt;Node18</title>
<g id="a_edge62_Node000061_Node000018"><a xlink:title=" ">
<path fill="none" stroke="#63b8ff" d="M1030.97,-230.75C1033.36,-223.72 1036.79,-213.62 1039.77,-204.84"/>
<polygon fill="#63b8ff" stroke="#63b8ff" points="1043.18,-205.68 1043.08,-195.09 1036.55,-203.43 1043.18,-205.68"/>
</a>
</g>
</g>
<!-- Node62&#45;&gt;Node3 -->
<g id="edge66_Node000062_Node000003" class="edge">
<title>Node62&#45;&gt;Node3</title>
<g id="a_edge66_Node000062_Node000003"><a xlink:title=" ">
<path fill="none" stroke="#63b8ff" d="M619.16,-395.98C637.25,-387.5 665.28,-374.35 686.19,-364.54"/>
<polygon fill="#63b8ff" stroke="#63b8ff" points="687.95,-367.59 695.51,-360.17 684.97,-361.25 687.95,-367.59"/>
</a>
</g>
</g>
<!-- Node62&#45;&gt;Node4 -->
<g id="edge64_Node000062_Node000004" class="edge">
<title>Node62&#45;&gt;Node4</title>
<g id="a_edge64_Node000062_Node000004"><a xlink:title=" ">
<path fill="none" stroke="#63b8ff" d="M592.98,-395.66C576.53,-377.54 538.76,-335.91 517.76,-312.77"/>
<polygon fill="#63b8ff" stroke="#63b8ff" points="520.17,-310.21 510.86,-305.16 514.98,-314.92 520.17,-310.21"/>
</a>
</g>
</g>
<!-- Node62&#45;&gt;Node5 -->
<g id="edge65_Node000062_Node000005" class="edge">
<title>Node62&#45;&gt;Node5</title>
<g id="a_edge65_Node000062_Node000005"><a xlink:title=" ">
<path fill="none" stroke="#63b8ff" d="M565.31,-395.92C523.21,-383.66 455.16,-356.69 425,-305 406.84,-273.87 413.53,-229.86 419.57,-205.17"/>
<polygon fill="#63b8ff" stroke="#63b8ff" points="423.01,-205.87 422.2,-195.3 416.24,-204.06 423.01,-205.87"/>
</a>
</g>
</g>
<!-- Node62&#45;&gt;Node37 -->
<g id="edge67_Node000062_Node000037" class="edge">
<title>Node62&#45;&gt;Node37</title>
<g id="a_edge67_Node000062_Node000037"><a xlink:title=" ">
<path fill="none" stroke="#63b8ff" d="M602.64,-395.66C605.88,-378.17 613.17,-338.8 617.52,-315.27"/>
<polygon fill="#63b8ff" stroke="#63b8ff" points="621.02,-315.63 619.4,-305.16 614.13,-314.35 621.02,-315.63"/>
</a>
</g>
</g>
</g>
</svg>
