<?xml version="1.0" encoding="UTF-8" standalone="no"?>
<!DOCTYPE svg PUBLIC "-//W3C//DTD SVG 1.1//EN"
 "http://www.w3.org/Graphics/SVG/1.1/DTD/svg11.dtd">
<!-- Generated by graphviz version 2.43.0 (0)
 -->
<!-- Title: OMSimSNAnalysis.cc Pages: 1 -->
<svg width="1254pt" height="263pt"
 viewBox="0.00 0.00 1253.50 263.00" xmlns="http://www.w3.org/2000/svg" xmlns:xlink="http://www.w3.org/1999/xlink">
<g id="graph0" class="graph" transform="scale(1 1) rotate(0) translate(4 259)">
<title>OMSimSNAnalysis.cc</title>
<!-- Node1 -->
<g id="node1" class="node">
<title>Node1</title>
<g id="a_node1"><a xlink:title="Analyze data and write output files.">
<polygon fill="#bfbfbf" stroke="black" points="332.5,-235.5 332.5,-254.5 452.5,-254.5 452.5,-235.5 332.5,-235.5"/>
<text text-anchor="middle" x="392.5" y="-242.5" font-family="Helvetica,sans-Serif" font-size="10.00">OMSimSNAnalysis.cc</text>
</a>
</g>
</g>
<!-- Node2 -->
<g id="node2" class="node">
<title>Node2</title>
<g id="a_node2"><a xlink:href="_o_m_sim_s_n_analysis_8hh_source.html" target="_top" xlink:title=" ">
<polygon fill="none" stroke="black" points="179.5,-179.5 179.5,-198.5 301.5,-198.5 301.5,-179.5 179.5,-179.5"/>
<text text-anchor="middle" x="240.5" y="-186.5" font-family="Helvetica,sans-Serif" font-size="10.00">OMSimSNAnalysis.hh</text>
</a>
</g>
</g>
<!-- Node1&#45;&gt;Node2 -->
<g id="edge1" class="edge">
<title>Node1&#45;&gt;Node2</title>
<path fill="none" stroke="midnightblue" d="M368.42,-235.44C342.96,-226.4 302.61,-212.06 274.04,-201.92"/>
<polygon fill="midnightblue" stroke="midnightblue" points="275.07,-198.57 264.47,-198.52 272.72,-205.16 275.07,-198.57"/>
</g>
<!-- Node6 -->
<g id="node6" class="node">
<title>Node6</title>
<g id="a_node6"><a xlink:href="_o_m_sim_hit_manager_8hh.html" target="_top" xlink:title="Defines structures and classes related to optical module photon hit management.">
<polygon fill="none" stroke="black" points="302,-123.5 302,-142.5 425,-142.5 425,-123.5 302,-123.5"/>
<text text-anchor="middle" x="363.5" y="-130.5" font-family="Helvetica,sans-Serif" font-size="10.00">OMSimHitManager.hh</text>
</a>
</g>
</g>
<!-- Node1&#45;&gt;Node6 -->
<g id="edge31" class="edge">
<title>Node1&#45;&gt;Node6</title>
<path fill="none" stroke="midnightblue" d="M390.22,-235.37C385.52,-217.54 374.65,-176.3 368.32,-152.27"/>
<polygon fill="midnightblue" stroke="midnightblue" points="371.7,-151.37 365.77,-142.59 364.93,-153.15 371.7,-151.37"/>
</g>
<!-- Node8 -->
<g id="node8" class="node">
<title>Node8</title>
<g id="a_node8"><a xlink:title=" ">
<polygon fill="none" stroke="#bfbfbf" points="0,-6 0,-25 119,-25 119,-6 0,-6"/>
<text text-anchor="middle" x="59.5" y="-13" font-family="Helvetica,sans-Serif" font-size="10.00">G4SystemOfUnits.hh</text>
</a>
</g>
</g>
<!-- Node1&#45;&gt;Node8 -->
<g id="edge19" class="edge">
<title>Node1&#45;&gt;Node8</title>
<path fill="none" stroke="midnightblue" d="M332.38,-236.92C236.68,-224.23 56.84,-194.04 21.5,-143 2.27,-115.23 10.79,-99.04 21.5,-67 25.81,-54.09 34.87,-41.84 43.06,-32.63"/>
<polygon fill="midnightblue" stroke="midnightblue" points="45.84,-34.78 50.17,-25.11 40.76,-29.97 45.84,-34.78"/>
</g>
<!-- Node17 -->
<g id="node17" class="node">
<title>Node17</title>
<g id="a_node17"><a xlink:title=" ">
<polygon fill="none" stroke="#bfbfbf" points="392,-179.5 392,-198.5 451,-198.5 451,-179.5 392,-179.5"/>
<text text-anchor="middle" x="421.5" y="-186.5" font-family="Helvetica,sans-Serif" font-size="10.00">G4ios.hh</text>
</a>
</g>
</g>
<!-- Node1&#45;&gt;Node17 -->
<g id="edge20" class="edge">
<title>Node1&#45;&gt;Node17</title>
<path fill="none" stroke="midnightblue" d="M397.29,-235.08C401.26,-227.69 407.03,-216.95 411.93,-207.81"/>
<polygon fill="midnightblue" stroke="midnightblue" points="415.15,-209.22 416.8,-198.75 408.99,-205.91 415.15,-209.22"/>
</g>
<!-- Node18 -->
<g id="node18" class="node">
<title>Node18</title>
<g id="a_node18"><a xlink:href="_o_m_sim_command_args_table_8hh.html" target="_top" xlink:title="Definition of the OMSimCommandArgsTable singleton class, which controls user args.">
<polygon fill="none" stroke="black" points="598.5,-123.5 598.5,-142.5 762.5,-142.5 762.5,-123.5 598.5,-123.5"/>
<text text-anchor="middle" x="680.5" y="-130.5" font-family="Helvetica,sans-Serif" font-size="10.00">OMSimCommandArgsTable.hh</text>
</a>
</g>
</g>
<!-- Node1&#45;&gt;Node18 -->
<g id="edge21" class="edge">
<title>Node1&#45;&gt;Node18</title>
<path fill="none" stroke="midnightblue" d="M415.1,-235.37C465.99,-215.93 589.72,-168.67 648.49,-146.23"/>
<polygon fill="midnightblue" stroke="midnightblue" points="649.91,-149.43 658.01,-142.59 647.42,-142.89 649.91,-149.43"/>
</g>
<!-- Node26 -->
<g id="node26" class="node">
<title>Node26</title>
<g id="a_node26"><a xlink:href="_o_m_sim_tools_8hh.html" target="_top" xlink:title="Definition of Tools namespace, a collection of helper methods.">
<polygon fill="none" stroke="black" points="921.5,-123.5 921.5,-142.5 1013.5,-142.5 1013.5,-123.5 921.5,-123.5"/>
<text text-anchor="middle" x="967.5" y="-130.5" font-family="Helvetica,sans-Serif" font-size="10.00">OMSimTools.hh</text>
</a>
</g>
</g>
<!-- Node1&#45;&gt;Node26 -->
<g id="edge32" class="edge">
<title>Node1&#45;&gt;Node26</title>
<path fill="none" stroke="midnightblue" d="M437.14,-235.46C541.26,-215.54 799.9,-166.06 913.05,-144.42"/>
<polygon fill="midnightblue" stroke="midnightblue" points="913.72,-147.85 922.89,-142.53 912.41,-140.98 913.72,-147.85"/>
</g>
<!-- Node3 -->
<g id="node3" class="node">
<title>Node3</title>
<g id="a_node3"><a xlink:title=" ">
<polygon fill="none" stroke="#bfbfbf" points="281,-6 281,-25 354,-25 354,-6 281,-6"/>
<text text-anchor="middle" x="317.5" y="-13" font-family="Helvetica,sans-Serif" font-size="10.00">G4Types.hh</text>
</a>
</g>
</g>
<!-- Node2&#45;&gt;Node3 -->
<g id="edge2" class="edge">
<title>Node2&#45;&gt;Node3</title>
<path fill="none" stroke="midnightblue" d="M179.33,-182.76C126.19,-176.79 55.07,-164.89 37.5,-143 16.36,-116.66 15.84,-92.92 37.5,-67 66.67,-32.09 198.82,-21.28 270.65,-17.95"/>
<polygon fill="midnightblue" stroke="midnightblue" points="270.96,-21.44 280.79,-17.51 270.65,-14.45 270.96,-21.44"/>
</g>
<!-- Node4 -->
<g id="node4" class="node">
<title>Node4</title>
<g id="a_node4"><a xlink:title=" ">
<polygon fill="none" stroke="#bfbfbf" points="171.5,-123.5 171.5,-142.5 245.5,-142.5 245.5,-123.5 171.5,-123.5"/>
<text text-anchor="middle" x="208.5" y="-130.5" font-family="Helvetica,sans-Serif" font-size="10.00">G4String.hh</text>
</a>
</g>
</g>
<!-- Node2&#45;&gt;Node4 -->
<g id="edge3" class="edge">
<title>Node2&#45;&gt;Node4</title>
<path fill="none" stroke="midnightblue" d="M235.22,-179.08C230.79,-171.61 224.34,-160.72 218.88,-151.52"/>
<polygon fill="midnightblue" stroke="midnightblue" points="221.79,-149.57 213.69,-142.75 215.77,-153.14 221.79,-149.57"/>
</g>
<!-- Node5 -->
<g id="node5" class="node">
<title>Node5</title>
<g id="a_node5"><a xlink:title=" ">
<polygon fill="none" stroke="#bfbfbf" points="47,-67.5 47,-86.5 150,-86.5 150,-67.5 47,-67.5"/>
<text text-anchor="middle" x="98.5" y="-74.5" font-family="Helvetica,sans-Serif" font-size="10.00">G4ThreeVector.hh</text>
</a>
</g>
</g>
<!-- Node2&#45;&gt;Node5 -->
<g id="edge4" class="edge">
<title>Node2&#45;&gt;Node5</title>
<path fill="none" stroke="midnightblue" d="M246.23,-179.5C254.45,-166.13 267.27,-139.97 254.5,-123 242.83,-107.49 198.59,-95.65 160.18,-88.01"/>
<polygon fill="midnightblue" stroke="midnightblue" points="160.53,-84.52 150.05,-86.07 159.21,-91.39 160.53,-84.52"/>
</g>
<!-- Node2&#45;&gt;Node6 -->
<g id="edge5" class="edge">
<title>Node2&#45;&gt;Node6</title>
<path fill="none" stroke="midnightblue" d="M259.99,-179.44C280.14,-170.6 311.82,-156.69 334.83,-146.59"/>
<polygon fill="midnightblue" stroke="midnightblue" points="336.35,-149.74 344.1,-142.52 333.54,-143.33 336.35,-149.74"/>
</g>
<!-- Node12 -->
<g id="node12" class="node">
<title>Node12</title>
<g id="a_node12"><a xlink:title=" ">
<polygon fill="none" stroke="#bfbfbf" points="542,-67.5 542,-86.5 597,-86.5 597,-67.5 542,-67.5"/>
<text text-anchor="middle" x="569.5" y="-74.5" font-family="Helvetica,sans-Serif" font-size="10.00">fstream</text>
</a>
</g>
</g>
<!-- Node2&#45;&gt;Node12 -->
<g id="edge17" class="edge">
<title>Node2&#45;&gt;Node12</title>
<path fill="none" stroke="midnightblue" d="M290.52,-179.43C329.99,-171.93 386.1,-159.63 433.5,-143 474.19,-128.72 518.84,-105.9 545.49,-91.44"/>
<polygon fill="midnightblue" stroke="midnightblue" points="547.38,-94.4 554.46,-86.53 544.01,-88.27 547.38,-94.4"/>
</g>
<!-- Node15 -->
<g id="node15" class="node">
<title>Node15</title>
<g id="a_node15"><a xlink:title=" ">
<polygon fill="none" stroke="#bfbfbf" points="47,-123.5 47,-142.5 94,-142.5 94,-123.5 47,-123.5"/>
<text text-anchor="middle" x="70.5" y="-130.5" font-family="Helvetica,sans-Serif" font-size="10.00">vector</text>
</a>
</g>
</g>
<!-- Node2&#45;&gt;Node15 -->
<g id="edge16" class="edge">
<title>Node2&#45;&gt;Node15</title>
<path fill="none" stroke="midnightblue" d="M213.56,-179.44C183.83,-170 135.93,-154.78 103.84,-144.59"/>
<polygon fill="midnightblue" stroke="midnightblue" points="104.62,-141.16 94.03,-141.47 102.5,-147.84 104.62,-141.16"/>
</g>
<!-- Node16 -->
<g id="node16" class="node">
<title>Node16</title>
<g id="a_node16"><a xlink:title=" ">
<polygon fill="none" stroke="#bfbfbf" points="112,-123.5 112,-142.5 153,-142.5 153,-123.5 112,-123.5"/>
<text text-anchor="middle" x="132.5" y="-130.5" font-family="Helvetica,sans-Serif" font-size="10.00">tuple</text>
</a>
</g>
</g>
<!-- Node2&#45;&gt;Node16 -->
<g id="edge18" class="edge">
<title>Node2&#45;&gt;Node16</title>
<path fill="none" stroke="midnightblue" d="M223.15,-179.32C205.83,-170.66 178.98,-157.24 159,-147.25"/>
<polygon fill="midnightblue" stroke="midnightblue" points="160.32,-144 149.81,-142.65 157.19,-150.26 160.32,-144"/>
</g>
<!-- Node6&#45;&gt;Node5 -->
<g id="edge12" class="edge">
<title>Node6&#45;&gt;Node5</title>
<path fill="none" stroke="midnightblue" d="M321.51,-123.44C275.09,-113.98 200.27,-98.74 150.26,-88.55"/>
<polygon fill="midnightblue" stroke="midnightblue" points="150.79,-85.08 140.29,-86.52 149.39,-91.94 150.79,-85.08"/>
</g>
<!-- Node7 -->
<g id="node7" class="node">
<title>Node7</title>
<g id="a_node7"><a xlink:href="_o_m_sim_p_m_t_response_8hh.html" target="_top" xlink:title="Simulation of PMT response.">
<polygon fill="none" stroke="black" points="389,-67.5 389,-86.5 524,-86.5 524,-67.5 389,-67.5"/>
<text text-anchor="middle" x="456.5" y="-74.5" font-family="Helvetica,sans-Serif" font-size="10.00">OMSimPMTResponse.hh</text>
</a>
</g>
</g>
<!-- Node6&#45;&gt;Node7 -->
<g id="edge6" class="edge">
<title>Node6&#45;&gt;Node7</title>
<path fill="none" stroke="midnightblue" d="M378.44,-123.32C393.09,-114.82 415.63,-101.73 432.74,-91.8"/>
<polygon fill="midnightblue" stroke="midnightblue" points="434.7,-94.7 441.6,-86.65 431.19,-88.65 434.7,-94.7"/>
</g>
<!-- Node6&#45;&gt;Node12 -->
<g id="edge13" class="edge">
<title>Node6&#45;&gt;Node12</title>
<path fill="none" stroke="midnightblue" d="M396.14,-123.44C433.11,-113.75 493.25,-97.99 532.09,-87.81"/>
<polygon fill="midnightblue" stroke="midnightblue" points="533.17,-91.14 541.96,-85.22 531.4,-84.37 533.17,-91.14"/>
</g>
<!-- Node13 -->
<g id="node13" class="node">
<title>Node13</title>
<g id="a_node13"><a xlink:title=" ">
<polygon fill="none" stroke="#bfbfbf" points="168.5,-67.5 168.5,-86.5 258.5,-86.5 258.5,-67.5 168.5,-67.5"/>
<text text-anchor="middle" x="213.5" y="-74.5" font-family="Helvetica,sans-Serif" font-size="10.00">G4AutoLock.hh</text>
</a>
</g>
</g>
<!-- Node6&#45;&gt;Node13 -->
<g id="edge14" class="edge">
<title>Node6&#45;&gt;Node13</title>
<path fill="none" stroke="midnightblue" d="M339.73,-123.44C314.61,-114.4 274.79,-100.06 246.6,-89.92"/>
<polygon fill="midnightblue" stroke="midnightblue" points="247.75,-86.61 237.16,-86.52 245.38,-93.2 247.75,-86.61"/>
</g>
<!-- Node14 -->
<g id="node14" class="node">
<title>Node14</title>
<g id="a_node14"><a xlink:title=" ">
<polygon fill="none" stroke="#bfbfbf" points="276.5,-67.5 276.5,-86.5 370.5,-86.5 370.5,-67.5 276.5,-67.5"/>
<text text-anchor="middle" x="323.5" y="-74.5" font-family="Helvetica,sans-Serif" font-size="10.00">G4Threading.hh</text>
</a>
</g>
</g>
<!-- Node6&#45;&gt;Node14 -->
<g id="edge15" class="edge">
<title>Node6&#45;&gt;Node14</title>
<path fill="none" stroke="midnightblue" d="M356.89,-123.08C351.24,-115.46 342.96,-104.26 336.05,-94.94"/>
<polygon fill="midnightblue" stroke="midnightblue" points="338.75,-92.7 329.98,-86.75 333.12,-96.87 338.75,-92.7"/>
</g>
<!-- Node7&#45;&gt;Node3 -->
<g id="edge8" class="edge">
<title>Node7&#45;&gt;Node3</title>
<path fill="none" stroke="midnightblue" d="M436.58,-67.48C413.05,-57.4 373.69,-40.55 346.71,-29"/>
<polygon fill="midnightblue" stroke="midnightblue" points="347.95,-25.73 337.38,-25.01 345.19,-32.16 347.95,-25.73"/>
</g>
<!-- Node7&#45;&gt;Node8 -->
<g id="edge7" class="edge">
<title>Node7&#45;&gt;Node8</title>
<path fill="none" stroke="midnightblue" d="M399.62,-67.48C327.39,-56.65 202.97,-38 126.3,-26.51"/>
<polygon fill="midnightblue" stroke="midnightblue" points="126.68,-23.03 116.27,-25.01 125.65,-29.95 126.68,-23.03"/>
</g>
<!-- Node9 -->
<g id="node9" class="node">
<title>Node9</title>
<g id="a_node9"><a xlink:title=" ">
<polygon fill="none" stroke="#bfbfbf" points="444.5,-6 444.5,-25 482.5,-25 482.5,-6 444.5,-6"/>
<text text-anchor="middle" x="463.5" y="-13" font-family="Helvetica,sans-Serif" font-size="10.00">map</text>
</a>
</g>
</g>
<!-- Node7&#45;&gt;Node9 -->
<g id="edge9" class="edge">
<title>Node7&#45;&gt;Node9</title>
<path fill="none" stroke="midnightblue" d="M457.5,-67.48C458.49,-59.08 460.03,-45.98 461.3,-35.16"/>
<polygon fill="midnightblue" stroke="midnightblue" points="464.81,-35.35 462.5,-25.01 457.85,-34.53 464.81,-35.35"/>
</g>
<!-- Node10 -->
<g id="node10" class="node">
<title>Node10</title>
<g id="a_node10"><a xlink:title=" ">
<polygon fill="none" stroke="#bfbfbf" points="559,-6 559,-25 620,-25 620,-6 559,-6"/>
<text text-anchor="middle" x="589.5" y="-13" font-family="Helvetica,sans-Serif" font-size="10.00">TGraph.h</text>
</a>
</g>
</g>
<!-- Node7&#45;&gt;Node10 -->
<g id="edge10" class="edge">
<title>Node7&#45;&gt;Node10</title>
<path fill="none" stroke="midnightblue" d="M475.56,-67.48C497.97,-57.45 535.41,-40.7 561.21,-29.15"/>
<polygon fill="midnightblue" stroke="midnightblue" points="562.78,-32.29 570.48,-25.01 559.92,-25.9 562.78,-32.29"/>
</g>
<!-- Node11 -->
<g id="node11" class="node">
<title>Node11</title>
<g id="a_node11"><a xlink:title=" ">
<polygon fill="none" stroke="#bfbfbf" points="665,-6 665,-25 718,-25 718,-6 665,-6"/>
<text text-anchor="middle" x="691.5" y="-13" font-family="Helvetica,sans-Serif" font-size="10.00">TH2D.h</text>
</a>
</g>
</g>
<!-- Node7&#45;&gt;Node11 -->
<g id="edge11" class="edge">
<title>Node7&#45;&gt;Node11</title>
<path fill="none" stroke="midnightblue" d="M490.17,-67.48C533.85,-56.42 609.79,-37.19 654.87,-25.77"/>
<polygon fill="midnightblue" stroke="midnightblue" points="655.98,-29.1 664.82,-23.26 654.26,-22.32 655.98,-29.1"/>
</g>
<!-- Node18&#45;&gt;Node9 -->
<g id="edge30" class="edge">
<title>Node18&#45;&gt;Node9</title>
<path fill="none" stroke="midnightblue" d="M685.95,-123.37C693.74,-109.84 705.73,-83.46 692.5,-67 686.2,-59.16 553.14,-33.33 492.8,-21.96"/>
<polygon fill="midnightblue" stroke="midnightblue" points="493.23,-18.48 482.76,-20.07 491.94,-25.36 493.23,-18.48"/>
</g>
<!-- Node18&#45;&gt;Node12 -->
<g id="edge27" class="edge">
<title>Node18&#45;&gt;Node12</title>
<path fill="none" stroke="midnightblue" d="M662.67,-123.32C644.78,-114.62 617.02,-101.12 596.45,-91.11"/>
<polygon fill="midnightblue" stroke="midnightblue" points="597.81,-87.88 587.29,-86.65 594.75,-94.18 597.81,-87.88"/>
</g>
<!-- Node19 -->
<g id="node19" class="node">
<title>Node19</title>
<g id="a_node19"><a xlink:href="_o_m_sim_logger_8hh_source.html" target="_top" xlink:title=" ">
<polygon fill="none" stroke="black" points="918,-67.5 918,-86.5 1017,-86.5 1017,-67.5 918,-67.5"/>
<text text-anchor="middle" x="967.5" y="-74.5" font-family="Helvetica,sans-Serif" font-size="10.00">OMSimLogger.hh</text>
</a>
</g>
</g>
<!-- Node18&#45;&gt;Node19 -->
<g id="edge22" class="edge">
<title>Node18&#45;&gt;Node19</title>
<path fill="none" stroke="midnightblue" d="M725.98,-123.44C776.46,-113.94 857.96,-98.61 912.12,-88.42"/>
<polygon fill="midnightblue" stroke="midnightblue" points="913.06,-91.81 922.24,-86.52 911.76,-84.93 913.06,-91.81"/>
</g>
<!-- Node24 -->
<g id="node24" class="node">
<title>Node24</title>
<g id="a_node24"><a xlink:title=" ">
<polygon fill="none" stroke="#bfbfbf" points="739.5,-67.5 739.5,-86.5 823.5,-86.5 823.5,-67.5 739.5,-67.5"/>
<text text-anchor="middle" x="781.5" y="-74.5" font-family="Helvetica,sans-Serif" font-size="10.00">boost/any.hpp</text>
</a>
</g>
</g>
<!-- Node18&#45;&gt;Node24 -->
<g id="edge28" class="edge">
<title>Node18&#45;&gt;Node24</title>
<path fill="none" stroke="midnightblue" d="M696.73,-123.32C712.85,-114.7 737.8,-101.36 756.46,-91.39"/>
<polygon fill="midnightblue" stroke="midnightblue" points="758.14,-94.46 765.31,-86.65 754.84,-88.28 758.14,-94.46"/>
</g>
<!-- Node25 -->
<g id="node25" class="node">
<title>Node25</title>
<g id="a_node25"><a xlink:title=" ">
<polygon fill="none" stroke="#bfbfbf" points="615.5,-67.5 615.5,-86.5 683.5,-86.5 683.5,-67.5 615.5,-67.5"/>
<text text-anchor="middle" x="649.5" y="-74.5" font-family="Helvetica,sans-Serif" font-size="10.00">sys/time.h</text>
</a>
</g>
</g>
<!-- Node18&#45;&gt;Node25 -->
<g id="edge29" class="edge">
<title>Node18&#45;&gt;Node25</title>
<path fill="none" stroke="midnightblue" d="M675.38,-123.08C671.09,-115.61 664.84,-104.72 659.56,-95.52"/>
<polygon fill="midnightblue" stroke="midnightblue" points="662.54,-93.68 654.52,-86.75 656.47,-97.17 662.54,-93.68"/>
</g>
<!-- Node20 -->
<g id="node20" class="node">
<title>Node20</title>
<g id="a_node20"><a xlink:title=" ">
<polygon fill="none" stroke="#bfbfbf" points="749,-6 749,-25 842,-25 842,-6 749,-6"/>
<text text-anchor="middle" x="795.5" y="-13" font-family="Helvetica,sans-Serif" font-size="10.00">spdlog/spdlog.h</text>
</a>
</g>
</g>
<!-- Node19&#45;&gt;Node20 -->
<g id="edge23" class="edge">
<title>Node19&#45;&gt;Node20</title>
<path fill="none" stroke="midnightblue" d="M942.86,-67.48C913.22,-57.22 863.32,-39.96 829.9,-28.4"/>
<polygon fill="midnightblue" stroke="midnightblue" points="830.69,-24.97 820.1,-25.01 828.4,-31.59 830.69,-24.97"/>
</g>
<!-- Node21 -->
<g id="node21" class="node">
<title>Node21</title>
<g id="a_node21"><a xlink:title=" ">
<polygon fill="none" stroke="#bfbfbf" points="860,-0.5 860,-30.5 971,-30.5 971,-0.5 860,-0.5"/>
<text text-anchor="start" x="868" y="-18.5" font-family="Helvetica,sans-Serif" font-size="10.00">spdlog/sinks/stdout</text>
<text text-anchor="middle" x="915.5" y="-7.5" font-family="Helvetica,sans-Serif" font-size="10.00">_color_sinks.h</text>
</a>
</g>
</g>
<!-- Node19&#45;&gt;Node21 -->
<g id="edge24" class="edge">
<title>Node19&#45;&gt;Node21</title>
<path fill="none" stroke="midnightblue" d="M960.05,-67.48C953.4,-59.87 943.38,-48.4 934.52,-38.26"/>
<polygon fill="midnightblue" stroke="midnightblue" points="936.97,-35.75 927.76,-30.52 931.7,-40.36 936.97,-35.75"/>
</g>
<!-- Node22 -->
<g id="node22" class="node">
<title>Node22</title>
<g id="a_node22"><a xlink:title=" ">
<polygon fill="none" stroke="#bfbfbf" points="989.5,-6 989.5,-25 1047.5,-25 1047.5,-6 989.5,-6"/>
<text text-anchor="middle" x="1018.5" y="-13" font-family="Helvetica,sans-Serif" font-size="10.00">memory</text>
</a>
</g>
</g>
<!-- Node19&#45;&gt;Node22 -->
<g id="edge25" class="edge">
<title>Node19&#45;&gt;Node22</title>
<path fill="none" stroke="midnightblue" d="M974.81,-67.48C982.53,-58.46 994.91,-44.02 1004.52,-32.81"/>
<polygon fill="midnightblue" stroke="midnightblue" points="1007.36,-34.88 1011.21,-25.01 1002.04,-30.32 1007.36,-34.88"/>
</g>
<!-- Node23 -->
<g id="node23" class="node">
<title>Node23</title>
<g id="a_node23"><a xlink:title=" ">
<polygon fill="none" stroke="#bfbfbf" points="1065.5,-6 1065.5,-25 1163.5,-25 1163.5,-6 1065.5,-6"/>
<text text-anchor="middle" x="1114.5" y="-13" font-family="Helvetica,sans-Serif" font-size="10.00">spdlog/fmt/fmt.h</text>
</a>
</g>
</g>
<!-- Node19&#45;&gt;Node23 -->
<g id="edge26" class="edge">
<title>Node19&#45;&gt;Node23</title>
<path fill="none" stroke="midnightblue" d="M988.56,-67.48C1013.56,-57.36 1055.44,-40.4 1083.99,-28.85"/>
<polygon fill="midnightblue" stroke="midnightblue" points="1085.52,-32.01 1093.48,-25.01 1082.89,-25.52 1085.52,-32.01"/>
</g>
<!-- Node26&#45;&gt;Node10 -->
<g id="edge35" class="edge">
<title>Node26&#45;&gt;Node10</title>
<path fill="none" stroke="midnightblue" d="M946.03,-123.48C925.12,-114.96 892.62,-101.13 865.5,-87 850.29,-79.08 848.47,-73.25 832.5,-67 758.16,-37.88 734.63,-47.44 656.5,-31 647.96,-29.2 638.82,-27.25 630.12,-25.37"/>
<polygon fill="midnightblue" stroke="midnightblue" points="630.68,-21.91 620.17,-23.21 629.2,-28.75 630.68,-21.91"/>
</g>
<!-- Node26&#45;&gt;Node11 -->
<g id="edge36" class="edge">
<title>Node26&#45;&gt;Node11</title>
<path fill="none" stroke="midnightblue" d="M956.49,-123.46C938.41,-109.81 900.91,-82.98 865.5,-67 812.8,-43.22 796,-47.2 740.5,-31 736.43,-29.81 732.17,-28.56 727.93,-27.31"/>
<polygon fill="midnightblue" stroke="midnightblue" points="728.77,-23.91 718.19,-24.44 726.79,-30.63 728.77,-23.91"/>
</g>
<!-- Node26&#45;&gt;Node19 -->
<g id="edge33" class="edge">
<title>Node26&#45;&gt;Node19</title>
<path fill="none" stroke="midnightblue" d="M967.5,-123.08C967.5,-116.01 967.5,-105.86 967.5,-96.99"/>
<polygon fill="midnightblue" stroke="midnightblue" points="971,-96.75 967.5,-86.75 964,-96.75 971,-96.75"/>
</g>
<!-- Node27 -->
<g id="node27" class="node">
<title>Node27</title>
<g id="a_node27"><a xlink:title=" ">
<polygon fill="none" stroke="#bfbfbf" points="1035,-67.5 1035,-86.5 1102,-86.5 1102,-67.5 1035,-67.5"/>
<text text-anchor="middle" x="1068.5" y="-74.5" font-family="Helvetica,sans-Serif" font-size="10.00">globals.hh</text>
</a>
</g>
</g>
<!-- Node26&#45;&gt;Node27 -->
<g id="edge34" class="edge">
<title>Node26&#45;&gt;Node27</title>
<path fill="none" stroke="midnightblue" d="M983.73,-123.32C999.85,-114.7 1024.8,-101.36 1043.46,-91.39"/>
<polygon fill="midnightblue" stroke="midnightblue" points="1045.14,-94.46 1052.31,-86.65 1041.84,-88.28 1045.14,-94.46"/>
</g>
<!-- Node28 -->
<g id="node28" class="node">
<title>Node28</title>
<g id="a_node28"><a xlink:title=" ">
<polygon fill="none" stroke="#bfbfbf" points="1120,-67.5 1120,-86.5 1171,-86.5 1171,-67.5 1120,-67.5"/>
<text text-anchor="middle" x="1145.5" y="-74.5" font-family="Helvetica,sans-Serif" font-size="10.00">variant</text>
</a>
</g>
</g>
<!-- Node26&#45;&gt;Node28 -->
<g id="edge37" class="edge">
<title>Node26&#45;&gt;Node28</title>
<path fill="none" stroke="midnightblue" d="M995.7,-123.44C1026.62,-114.06 1076.28,-99 1109.87,-88.81"/>
<polygon fill="midnightblue" stroke="midnightblue" points="1111.19,-92.07 1119.74,-85.82 1109.15,-85.37 1111.19,-92.07"/>
</g>
<!-- Node29 -->
<g id="node29" class="node">
<title>Node29</title>
<g id="a_node29"><a xlink:title=" ">
<polygon fill="none" stroke="#bfbfbf" points="1189.5,-67.5 1189.5,-86.5 1245.5,-86.5 1245.5,-67.5 1189.5,-67.5"/>
<text text-anchor="middle" x="1217.5" y="-74.5" font-family="Helvetica,sans-Serif" font-size="10.00">optional</text>
</a>
</g>
</g>
<!-- Node26&#45;&gt;Node29 -->
<g id="edge38" class="edge">
<title>Node26&#45;&gt;Node29</title>
<path fill="none" stroke="midnightblue" d="M1009.61,-123.5C1050.54,-115.14 1114.7,-101.82 1179.29,-87.23"/>
<polygon fill="midnightblue" stroke="midnightblue" points="1180.26,-90.59 1189.24,-84.97 1178.71,-83.77 1180.26,-90.59"/>
</g>
</g>
</svg>
