<?xml version="1.0" encoding="UTF-8" standalone="no"?>
<!DOCTYPE svg PUBLIC "-//W3C//DTD SVG 1.1//EN"
 "http://www.w3.org/Graphics/SVG/1.1/DTD/svg11.dtd">
<!-- Generated by graphviz version 2.43.0 (0)
 -->
<!-- Title: OMSimSensitiveDetector.cc Pages: 1 -->
<svg width="2578pt" height="196pt"
 viewBox="0.00 0.00 2577.50 196.00" xmlns="http://www.w3.org/2000/svg" xmlns:xlink="http://www.w3.org/1999/xlink">
<g id="graph0" class="graph" transform="scale(1 1) rotate(0) translate(4 192)">
<title>OMSimSensitiveDetector.cc</title>
<polygon fill="white" stroke="transparent" points="-4,4 -4,-192 2573.5,-192 2573.5,4 -4,4"/>
<!-- Node1 -->
<g id="node1" class="node">
<title>Node1</title>
<g id="a_node1"><a xlink:title=" ">
<polygon fill="#bfbfbf" stroke="black" points="1213,-168.5 1213,-187.5 1365,-187.5 1365,-168.5 1213,-168.5"/>
<text text-anchor="middle" x="1289" y="-175.5" font-family="Helvetica,sans-Serif" font-size="10.00">OMSimSensitiveDetector.cc</text>
</a>
</g>
</g>
<!-- Node2 -->
<g id="node2" class="node">
<title>Node2</title>
<g id="a_node2"><a xlink:href="_o_m_sim_sensitive_detector_8hh.html" target="_top" xlink:title=" ">
<polygon fill="white" stroke="black" points="207.5,-112.5 207.5,-131.5 360.5,-131.5 360.5,-112.5 207.5,-112.5"/>
<text text-anchor="middle" x="284" y="-119.5" font-family="Helvetica,sans-Serif" font-size="10.00">OMSimSensitiveDetector.hh</text>
</a>
</g>
</g>
<!-- Node1&#45;&gt;Node2 -->
<g id="edge1" class="edge">
<title>Node1&#45;&gt;Node2</title>
<path fill="none" stroke="midnightblue" d="M1212.79,-174.52C1055.86,-169.14 685.34,-154.97 375,-132 373.71,-131.9 372.41,-131.81 371.1,-131.7"/>
<polygon fill="midnightblue" stroke="midnightblue" points="371.18,-128.2 360.93,-130.88 370.61,-135.18 371.18,-128.2"/>
</g>
<!-- Node5 -->
<g id="node5" class="node">
<title>Node5</title>
<g id="a_node5"><a xlink:href="_o_m_sim_p_m_t_response_8hh.html" target="_top" xlink:title="Provides simulation for PMT response. This class is responsible for transforming hits on photocathode...">
<polygon fill="white" stroke="black" points="382.5,-56.5 382.5,-75.5 517.5,-75.5 517.5,-56.5 382.5,-56.5"/>
<text text-anchor="middle" x="450" y="-63.5" font-family="Helvetica,sans-Serif" font-size="10.00">OMSimPMTResponse.hh</text>
</a>
</g>
</g>
<!-- Node1&#45;&gt;Node5 -->
<g id="edge24" class="edge">
<title>Node1&#45;&gt;Node5</title>
<path fill="none" stroke="midnightblue" d="M1212.86,-175.93C1003.96,-172.62 435.53,-160.97 408,-132 393.52,-116.77 412.41,-95.88 429.3,-81.94"/>
<polygon fill="midnightblue" stroke="midnightblue" points="431.55,-84.63 437.28,-75.71 427.24,-79.11 431.55,-84.63"/>
</g>
<!-- Node13 -->
<g id="node13" class="node">
<title>Node13</title>
<g id="a_node13"><a xlink:title=" ">
<polygon fill="white" stroke="#bfbfbf" points="417.5,-112.5 417.5,-131.5 476.5,-131.5 476.5,-112.5 417.5,-112.5"/>
<text text-anchor="middle" x="447" y="-119.5" font-family="Helvetica,sans-Serif" font-size="10.00">G4ios.hh</text>
</a>
</g>
</g>
<!-- Node1&#45;&gt;Node13 -->
<g id="edge12" class="edge">
<title>Node1&#45;&gt;Node13</title>
<path fill="none" stroke="midnightblue" d="M1212.74,-177.05C1071.31,-176.2 758.82,-169.89 486.78,-131.83"/>
<polygon fill="midnightblue" stroke="midnightblue" points="487.1,-128.34 476.71,-130.41 486.12,-135.27 487.1,-128.34"/>
</g>
<!-- Node14 -->
<g id="node14" class="node">
<title>Node14</title>
<g id="a_node14"><a xlink:title=" ">
<polygon fill="white" stroke="#bfbfbf" points="495,-112.5 495,-131.5 611,-131.5 611,-112.5 495,-112.5"/>
<text text-anchor="middle" x="553" y="-119.5" font-family="Helvetica,sans-Serif" font-size="10.00">G4LogicalVolume.hh</text>
</a>
</g>
</g>
<!-- Node1&#45;&gt;Node14 -->
<g id="edge13" class="edge">
<title>Node1&#45;&gt;Node14</title>
<path fill="none" stroke="midnightblue" d="M1212.86,-173.53C1090.45,-167.58 842.08,-154.01 621.24,-132.06"/>
<polygon fill="midnightblue" stroke="midnightblue" points="621.38,-128.56 611.08,-131.04 620.68,-135.52 621.38,-128.56"/>
</g>
<!-- Node15 -->
<g id="node15" class="node">
<title>Node15</title>
<g id="a_node15"><a xlink:title=" ">
<polygon fill="white" stroke="#bfbfbf" points="629,-112.5 629,-131.5 757,-131.5 757,-112.5 629,-112.5"/>
<text text-anchor="middle" x="693" y="-119.5" font-family="Helvetica,sans-Serif" font-size="10.00">G4ParticleDefinition.hh</text>
</a>
</g>
</g>
<!-- Node1&#45;&gt;Node15 -->
<g id="edge14" class="edge">
<title>Node1&#45;&gt;Node15</title>
<path fill="none" stroke="midnightblue" d="M1212.7,-171.32C1112.86,-163.69 932.22,-149.21 767.41,-132.11"/>
<polygon fill="midnightblue" stroke="midnightblue" points="767.39,-128.59 757.08,-131.04 766.66,-135.55 767.39,-128.59"/>
</g>
<!-- Node16 -->
<g id="node16" class="node">
<title>Node16</title>
<g id="a_node16"><a xlink:title=" ">
<polygon fill="white" stroke="#bfbfbf" points="775.5,-112.5 775.5,-131.5 884.5,-131.5 884.5,-112.5 775.5,-112.5"/>
<text text-anchor="middle" x="830" y="-119.5" font-family="Helvetica,sans-Serif" font-size="10.00">G4ParticleTypes.hh</text>
</a>
</g>
</g>
<!-- Node1&#45;&gt;Node16 -->
<g id="edge15" class="edge">
<title>Node1&#45;&gt;Node16</title>
<path fill="none" stroke="midnightblue" d="M1212.64,-168.98C1135.09,-160.69 1011.27,-147.03 894.79,-132.2"/>
<polygon fill="midnightblue" stroke="midnightblue" points="894.99,-128.7 884.62,-130.9 894.1,-135.64 894.99,-128.7"/>
</g>
<!-- Node17 -->
<g id="node17" class="node">
<title>Node17</title>
<g id="a_node17"><a xlink:title=" ">
<polygon fill="white" stroke="#bfbfbf" points="902.5,-112.5 902.5,-131.5 1003.5,-131.5 1003.5,-112.5 902.5,-112.5"/>
<text text-anchor="middle" x="953" y="-119.5" font-family="Helvetica,sans-Serif" font-size="10.00">G4SDManager.hh</text>
</a>
</g>
</g>
<!-- Node1&#45;&gt;Node17 -->
<g id="edge16" class="edge">
<title>Node1&#45;&gt;Node17</title>
<path fill="none" stroke="midnightblue" d="M1235.76,-168.44C1175.37,-158.74 1077.1,-142.94 1013.76,-132.76"/>
<polygon fill="midnightblue" stroke="midnightblue" points="1013.95,-129.25 1003.52,-131.12 1012.84,-136.16 1013.95,-129.25"/>
</g>
<!-- Node18 -->
<g id="node18" class="node">
<title>Node18</title>
<g id="a_node18"><a xlink:title=" ">
<polygon fill="white" stroke="#bfbfbf" points="1021.5,-112.5 1021.5,-131.5 1088.5,-131.5 1088.5,-112.5 1021.5,-112.5"/>
<text text-anchor="middle" x="1055" y="-119.5" font-family="Helvetica,sans-Serif" font-size="10.00">G4Step.hh</text>
</a>
</g>
</g>
<!-- Node1&#45;&gt;Node18 -->
<g id="edge17" class="edge">
<title>Node1&#45;&gt;Node18</title>
<path fill="none" stroke="midnightblue" d="M1251.92,-168.44C1210.32,-158.84 1142.88,-143.28 1098.73,-133.09"/>
<polygon fill="midnightblue" stroke="midnightblue" points="1099.4,-129.65 1088.87,-130.82 1097.82,-136.47 1099.4,-129.65"/>
</g>
<!-- Node19 -->
<g id="node19" class="node">
<title>Node19</title>
<g id="a_node19"><a xlink:title=" ">
<polygon fill="white" stroke="#bfbfbf" points="1107,-112.5 1107,-131.5 1235,-131.5 1235,-112.5 1107,-112.5"/>
<text text-anchor="middle" x="1171" y="-119.5" font-family="Helvetica,sans-Serif" font-size="10.00">G4TouchableHistory.hh</text>
</a>
</g>
</g>
<!-- Node1&#45;&gt;Node19 -->
<g id="edge18" class="edge">
<title>Node1&#45;&gt;Node19</title>
<path fill="none" stroke="midnightblue" d="M1270.3,-168.44C1251.06,-159.64 1220.85,-145.81 1198.8,-135.72"/>
<polygon fill="midnightblue" stroke="midnightblue" points="1200.16,-132.5 1189.61,-131.52 1197.25,-138.86 1200.16,-132.5"/>
</g>
<!-- Node20 -->
<g id="node20" class="node">
<title>Node20</title>
<g id="a_node20"><a xlink:title=" ">
<polygon fill="white" stroke="#bfbfbf" points="1253.5,-112.5 1253.5,-131.5 1324.5,-131.5 1324.5,-112.5 1253.5,-112.5"/>
<text text-anchor="middle" x="1289" y="-119.5" font-family="Helvetica,sans-Serif" font-size="10.00">G4Track.hh</text>
</a>
</g>
</g>
<!-- Node1&#45;&gt;Node20 -->
<g id="edge19" class="edge">
<title>Node1&#45;&gt;Node20</title>
<path fill="none" stroke="midnightblue" d="M1289,-168.08C1289,-161.01 1289,-150.86 1289,-141.99"/>
<polygon fill="midnightblue" stroke="midnightblue" points="1292.5,-141.75 1289,-131.75 1285.5,-141.75 1292.5,-141.75"/>
</g>
<!-- Node21 -->
<g id="node21" class="node">
<title>Node21</title>
<g id="a_node21"><a xlink:title=" ">
<polygon fill="white" stroke="#bfbfbf" points="1342.5,-112.5 1342.5,-131.5 1471.5,-131.5 1471.5,-112.5 1342.5,-112.5"/>
<text text-anchor="middle" x="1407" y="-119.5" font-family="Helvetica,sans-Serif" font-size="10.00">G4VPhysicalVolume.hh</text>
</a>
</g>
</g>
<!-- Node1&#45;&gt;Node21 -->
<g id="edge20" class="edge">
<title>Node1&#45;&gt;Node21</title>
<path fill="none" stroke="midnightblue" d="M1307.7,-168.44C1326.94,-159.64 1357.15,-145.81 1379.2,-135.72"/>
<polygon fill="midnightblue" stroke="midnightblue" points="1380.75,-138.86 1388.39,-131.52 1377.84,-132.5 1380.75,-138.86"/>
</g>
<!-- Node22 -->
<g id="node22" class="node">
<title>Node22</title>
<g id="a_node22"><a xlink:title=" ">
<polygon fill="white" stroke="#bfbfbf" points="1489.5,-112.5 1489.5,-131.5 1590.5,-131.5 1590.5,-112.5 1489.5,-112.5"/>
<text text-anchor="middle" x="1540" y="-119.5" font-family="Helvetica,sans-Serif" font-size="10.00">G4VTouchable.hh</text>
</a>
</g>
</g>
<!-- Node1&#45;&gt;Node22 -->
<g id="edge21" class="edge">
<title>Node1&#45;&gt;Node22</title>
<path fill="none" stroke="midnightblue" d="M1328.77,-168.44C1372.56,-159.02 1443.01,-143.87 1490.38,-133.68"/>
<polygon fill="midnightblue" stroke="midnightblue" points="1491.37,-137.04 1500.41,-131.52 1489.9,-130.2 1491.37,-137.04"/>
</g>
<!-- Node23 -->
<g id="node23" class="node">
<title>Node23</title>
<g id="a_node23"><a xlink:title=" ">
<polygon fill="white" stroke="#bfbfbf" points="1608.5,-112.5 1608.5,-131.5 1733.5,-131.5 1733.5,-112.5 1608.5,-112.5"/>
<text text-anchor="middle" x="1671" y="-119.5" font-family="Helvetica,sans-Serif" font-size="10.00">OMSimEventAction.hh</text>
</a>
</g>
</g>
<!-- Node1&#45;&gt;Node23 -->
<g id="edge22" class="edge">
<title>Node1&#45;&gt;Node23</title>
<path fill="none" stroke="midnightblue" d="M1349.53,-168.44C1417.7,-158.81 1528.36,-143.16 1600.41,-132.98"/>
<polygon fill="midnightblue" stroke="midnightblue" points="1601.34,-136.38 1610.75,-131.52 1600.36,-129.45 1601.34,-136.38"/>
</g>
<!-- Node24 -->
<g id="node24" class="node">
<title>Node24</title>
<g id="a_node24"><a xlink:title=" ">
<polygon fill="white" stroke="#bfbfbf" points="1751.5,-112.5 1751.5,-131.5 1864.5,-131.5 1864.5,-112.5 1751.5,-112.5"/>
<text text-anchor="middle" x="1808" y="-119.5" font-family="Helvetica,sans-Serif" font-size="10.00">G4OpticalPhoton.hh</text>
</a>
</g>
</g>
<!-- Node1&#45;&gt;Node24 -->
<g id="edge23" class="edge">
<title>Node1&#45;&gt;Node24</title>
<path fill="none" stroke="midnightblue" d="M1365.24,-170.28C1453.23,-162.34 1602.54,-148.26 1741.51,-132.02"/>
<polygon fill="midnightblue" stroke="midnightblue" points="1741.97,-135.49 1751.49,-130.84 1741.15,-128.53 1741.97,-135.49"/>
</g>
<!-- Node25 -->
<g id="node25" class="node">
<title>Node25</title>
<g id="a_node25"><a xlink:href="_o_m_sim_command_args_table_8hh.html" target="_top" xlink:title="Definition of the OMSimCommandArgsTable singleton class, which controls user args.">
<polygon fill="white" stroke="black" points="2024,-112.5 2024,-131.5 2188,-131.5 2188,-112.5 2024,-112.5"/>
<text text-anchor="middle" x="2106" y="-119.5" font-family="Helvetica,sans-Serif" font-size="10.00">OMSimCommandArgsTable.hh</text>
</a>
</g>
</g>
<!-- Node1&#45;&gt;Node25 -->
<g id="edge25" class="edge">
<title>Node1&#45;&gt;Node25</title>
<path fill="none" stroke="midnightblue" d="M1365.26,-173.16C1495.64,-166.4 1770.03,-151.31 2013.64,-132"/>
<polygon fill="midnightblue" stroke="midnightblue" points="2014.06,-135.47 2023.75,-131.19 2013.51,-128.5 2014.06,-135.47"/>
</g>
<!-- Node32 -->
<g id="node32" class="node">
<title>Node32</title>
<g id="a_node32"><a xlink:href="_o_m_sim_hit_manager_8hh.html" target="_top" xlink:title="Defines structures and classes related to optical module photon hit management.">
<polygon fill="white" stroke="black" points="1882.5,-112.5 1882.5,-131.5 2005.5,-131.5 2005.5,-112.5 1882.5,-112.5"/>
<text text-anchor="middle" x="1944" y="-119.5" font-family="Helvetica,sans-Serif" font-size="10.00">OMSimHitManager.hh</text>
</a>
</g>
</g>
<!-- Node1&#45;&gt;Node32 -->
<g id="edge32" class="edge">
<title>Node1&#45;&gt;Node32</title>
<path fill="none" stroke="midnightblue" d="M1365.17,-172.33C1474.79,-165.34 1683.65,-151.03 1872.34,-132.02"/>
<polygon fill="midnightblue" stroke="midnightblue" points="1872.85,-135.48 1882.45,-130.99 1872.15,-128.52 1872.85,-135.48"/>
</g>
<!-- Node33 -->
<g id="node33" class="node">
<title>Node33</title>
<g id="a_node33"><a xlink:title=" ">
<polygon fill="white" stroke="#bfbfbf" points="2206.5,-112.5 2206.5,-131.5 2295.5,-131.5 2295.5,-112.5 2206.5,-112.5"/>
<text text-anchor="middle" x="2251" y="-119.5" font-family="Helvetica,sans-Serif" font-size="10.00">G4VProcess.hh</text>
</a>
</g>
</g>
<!-- Node1&#45;&gt;Node33 -->
<g id="edge36" class="edge">
<title>Node1&#45;&gt;Node33</title>
<path fill="none" stroke="midnightblue" d="M1365.17,-176.2C1519.83,-173.91 1881.93,-165.29 2196.05,-131.96"/>
<polygon fill="midnightblue" stroke="midnightblue" points="2196.7,-135.41 2206.27,-130.86 2195.95,-128.45 2196.7,-135.41"/>
</g>
<!-- Node34 -->
<g id="node34" class="node">
<title>Node34</title>
<g id="a_node34"><a xlink:title=" ">
<polygon fill="white" stroke="#bfbfbf" points="2313.5,-112.5 2313.5,-131.5 2426.5,-131.5 2426.5,-112.5 2313.5,-112.5"/>
<text text-anchor="middle" x="2370" y="-119.5" font-family="Helvetica,sans-Serif" font-size="10.00">G4ProcessVector.hh</text>
</a>
</g>
</g>
<!-- Node1&#45;&gt;Node34 -->
<g id="edge37" class="edge">
<title>Node1&#45;&gt;Node34</title>
<path fill="none" stroke="midnightblue" d="M1365.32,-176.05C1533.15,-173.44 1947.1,-164.1 2303.32,-132.07"/>
<polygon fill="midnightblue" stroke="midnightblue" points="2303.67,-135.55 2313.32,-131.17 2303.04,-128.58 2303.67,-135.55"/>
</g>
<!-- Node35 -->
<g id="node35" class="node">
<title>Node35</title>
<g id="a_node35"><a xlink:title=" ">
<polygon fill="white" stroke="#bfbfbf" points="2444.5,-112.5 2444.5,-131.5 2569.5,-131.5 2569.5,-112.5 2444.5,-112.5"/>
<text text-anchor="middle" x="2507" y="-119.5" font-family="Helvetica,sans-Serif" font-size="10.00">G4ProcessManager.hh</text>
</a>
</g>
</g>
<!-- Node1&#45;&gt;Node35 -->
<g id="edge38" class="edge">
<title>Node1&#45;&gt;Node35</title>
<path fill="none" stroke="midnightblue" d="M1365.31,-176.29C1548.09,-174.11 2025.56,-165.48 2434.07,-132.09"/>
<polygon fill="midnightblue" stroke="midnightblue" points="2434.63,-135.56 2444.31,-131.25 2434.06,-128.58 2434.63,-135.56"/>
</g>
<!-- Node3 -->
<g id="node3" class="node">
<title>Node3</title>
<g id="a_node3"><a xlink:title=" ">
<polygon fill="white" stroke="#bfbfbf" points="0,-56.5 0,-75.5 138,-75.5 138,-56.5 0,-56.5"/>
<text text-anchor="middle" x="69" y="-63.5" font-family="Helvetica,sans-Serif" font-size="10.00">G4VSensitiveDetector.hh</text>
</a>
</g>
</g>
<!-- Node2&#45;&gt;Node3 -->
<g id="edge2" class="edge">
<title>Node2&#45;&gt;Node3</title>
<path fill="none" stroke="midnightblue" d="M249.93,-112.44C212.82,-103.12 153.34,-88.18 112.79,-78"/>
<polygon fill="midnightblue" stroke="midnightblue" points="113.46,-74.56 102.91,-75.52 111.75,-81.35 113.46,-74.56"/>
</g>
<!-- Node4 -->
<g id="node4" class="node">
<title>Node4</title>
<g id="a_node4"><a xlink:title=" ">
<polygon fill="white" stroke="#bfbfbf" points="1193.5,-56.5 1193.5,-75.5 1296.5,-75.5 1296.5,-56.5 1193.5,-56.5"/>
<text text-anchor="middle" x="1245" y="-63.5" font-family="Helvetica,sans-Serif" font-size="10.00">G4ThreeVector.hh</text>
</a>
</g>
</g>
<!-- Node2&#45;&gt;Node4 -->
<g id="edge3" class="edge">
<title>Node2&#45;&gt;Node4</title>
<path fill="none" stroke="midnightblue" d="M360.71,-115.21C376.36,-114.09 392.71,-112.97 408,-112 697.75,-93.7 1044.23,-76.59 1183.04,-69.93"/>
<polygon fill="midnightblue" stroke="midnightblue" points="1183.25,-73.43 1193.07,-69.45 1182.91,-66.44 1183.25,-73.43"/>
</g>
<!-- Node2&#45;&gt;Node5 -->
<g id="edge4" class="edge">
<title>Node2&#45;&gt;Node5</title>
<path fill="none" stroke="midnightblue" d="M310.3,-112.44C338.35,-103.32 382.94,-88.81 414.18,-78.65"/>
<polygon fill="midnightblue" stroke="midnightblue" points="415.39,-81.94 423.82,-75.52 413.23,-75.28 415.39,-81.94"/>
</g>
<!-- Node11 -->
<g id="node11" class="node">
<title>Node11</title>
<g id="a_node11"><a xlink:title=" ">
<polygon fill="white" stroke="#bfbfbf" points="156.5,-56.5 156.5,-75.5 299.5,-75.5 299.5,-56.5 156.5,-56.5"/>
<text text-anchor="middle" x="228" y="-63.5" font-family="Helvetica,sans-Serif" font-size="10.00">G4OpBoundaryProcess.hh</text>
</a>
</g>
</g>
<!-- Node2&#45;&gt;Node11 -->
<g id="edge10" class="edge">
<title>Node2&#45;&gt;Node11</title>
<path fill="none" stroke="midnightblue" d="M275,-112.32C266.81,-104.42 254.49,-92.55 244.53,-82.94"/>
<polygon fill="midnightblue" stroke="midnightblue" points="246.79,-80.26 237.16,-75.83 241.93,-85.29 246.79,-80.26"/>
</g>
<!-- Node12 -->
<g id="node12" class="node">
<title>Node12</title>
<g id="a_node12"><a xlink:title=" ">
<polygon fill="white" stroke="#bfbfbf" points="317.5,-56.5 317.5,-75.5 364.5,-75.5 364.5,-56.5 317.5,-56.5"/>
<text text-anchor="middle" x="341" y="-63.5" font-family="Helvetica,sans-Serif" font-size="10.00">vector</text>
</a>
</g>
</g>
<!-- Node2&#45;&gt;Node12 -->
<g id="edge11" class="edge">
<title>Node2&#45;&gt;Node12</title>
<path fill="none" stroke="midnightblue" d="M293.16,-112.32C301.5,-104.42 314.03,-92.55 324.18,-82.94"/>
<polygon fill="midnightblue" stroke="midnightblue" points="326.82,-85.25 331.68,-75.83 322.01,-80.17 326.82,-85.25"/>
</g>
<!-- Node6 -->
<g id="node6" class="node">
<title>Node6</title>
<g id="a_node6"><a xlink:title=" ">
<polygon fill="white" stroke="#bfbfbf" points="569.5,-0.5 569.5,-19.5 688.5,-19.5 688.5,-0.5 569.5,-0.5"/>
<text text-anchor="middle" x="629" y="-7.5" font-family="Helvetica,sans-Serif" font-size="10.00">G4SystemOfUnits.hh</text>
</a>
</g>
</g>
<!-- Node5&#45;&gt;Node6 -->
<g id="edge5" class="edge">
<title>Node5&#45;&gt;Node6</title>
<path fill="none" stroke="midnightblue" d="M478.36,-56.44C508.74,-47.28 557.11,-32.69 590.82,-22.52"/>
<polygon fill="midnightblue" stroke="midnightblue" points="592.21,-25.76 600.77,-19.52 590.18,-19.05 592.21,-25.76"/>
</g>
<!-- Node7 -->
<g id="node7" class="node">
<title>Node7</title>
<g id="a_node7"><a xlink:title=" ">
<polygon fill="white" stroke="#bfbfbf" points="271.5,-0.5 271.5,-19.5 344.5,-19.5 344.5,-0.5 271.5,-0.5"/>
<text text-anchor="middle" x="308" y="-7.5" font-family="Helvetica,sans-Serif" font-size="10.00">G4Types.hh</text>
</a>
</g>
</g>
<!-- Node5&#45;&gt;Node7 -->
<g id="edge6" class="edge">
<title>Node5&#45;&gt;Node7</title>
<path fill="none" stroke="midnightblue" d="M427.5,-56.44C403.92,-47.48 366.68,-33.31 340.04,-23.18"/>
<polygon fill="midnightblue" stroke="midnightblue" points="340.99,-19.8 330.4,-19.52 338.5,-26.34 340.99,-19.8"/>
</g>
<!-- Node8 -->
<g id="node8" class="node">
<title>Node8</title>
<g id="a_node8"><a xlink:title=" ">
<polygon fill="white" stroke="#bfbfbf" points="363,-0.5 363,-19.5 401,-19.5 401,-0.5 363,-0.5"/>
<text text-anchor="middle" x="382" y="-7.5" font-family="Helvetica,sans-Serif" font-size="10.00">map</text>
</a>
</g>
</g>
<!-- Node5&#45;&gt;Node8 -->
<g id="edge7" class="edge">
<title>Node5&#45;&gt;Node8</title>
<path fill="none" stroke="midnightblue" d="M439.07,-56.32C428.83,-48.18 413.28,-35.84 401,-26.09"/>
<polygon fill="midnightblue" stroke="midnightblue" points="403.13,-23.31 393.12,-19.83 398.78,-28.79 403.13,-23.31"/>
</g>
<!-- Node9 -->
<g id="node9" class="node">
<title>Node9</title>
<g id="a_node9"><a xlink:title=" ">
<polygon fill="white" stroke="#bfbfbf" points="419.5,-0.5 419.5,-19.5 480.5,-19.5 480.5,-0.5 419.5,-0.5"/>
<text text-anchor="middle" x="450" y="-7.5" font-family="Helvetica,sans-Serif" font-size="10.00">TGraph.h</text>
</a>
</g>
</g>
<!-- Node5&#45;&gt;Node9 -->
<g id="edge8" class="edge">
<title>Node5&#45;&gt;Node9</title>
<path fill="none" stroke="midnightblue" d="M450,-56.08C450,-49.01 450,-38.86 450,-29.99"/>
<polygon fill="midnightblue" stroke="midnightblue" points="453.5,-29.75 450,-19.75 446.5,-29.75 453.5,-29.75"/>
</g>
<!-- Node10 -->
<g id="node10" class="node">
<title>Node10</title>
<g id="a_node10"><a xlink:title=" ">
<polygon fill="white" stroke="#bfbfbf" points="498.5,-0.5 498.5,-19.5 551.5,-19.5 551.5,-0.5 498.5,-0.5"/>
<text text-anchor="middle" x="525" y="-7.5" font-family="Helvetica,sans-Serif" font-size="10.00">TH2D.h</text>
</a>
</g>
</g>
<!-- Node5&#45;&gt;Node10 -->
<g id="edge9" class="edge">
<title>Node5&#45;&gt;Node10</title>
<path fill="none" stroke="midnightblue" d="M462.05,-56.32C473.46,-48.11 490.83,-35.6 504.43,-25.81"/>
<polygon fill="midnightblue" stroke="midnightblue" points="506.66,-28.52 512.73,-19.83 502.57,-22.84 506.66,-28.52"/>
</g>
<!-- Node26 -->
<g id="node26" class="node">
<title>Node26</title>
<g id="a_node26"><a xlink:href="_o_m_sim_logger_8hh.html" target="_top" xlink:title=" ">
<polygon fill="white" stroke="black" points="1989.5,-56.5 1989.5,-75.5 2088.5,-75.5 2088.5,-56.5 1989.5,-56.5"/>
<text text-anchor="middle" x="2039" y="-63.5" font-family="Helvetica,sans-Serif" font-size="10.00">OMSimLogger.hh</text>
</a>
</g>
</g>
<!-- Node25&#45;&gt;Node26 -->
<g id="edge26" class="edge">
<title>Node25&#45;&gt;Node26</title>
<path fill="none" stroke="midnightblue" d="M2095.24,-112.32C2085.23,-104.26 2070.11,-92.08 2058.07,-82.37"/>
<polygon fill="midnightblue" stroke="midnightblue" points="2059.94,-79.38 2049.96,-75.83 2055.55,-84.83 2059.94,-79.38"/>
</g>
<!-- Node29 -->
<g id="node29" class="node">
<title>Node29</title>
<g id="a_node29"><a xlink:title=" ">
<polygon fill="white" stroke="#bfbfbf" points="1916.5,-56.5 1916.5,-75.5 1971.5,-75.5 1971.5,-56.5 1916.5,-56.5"/>
<text text-anchor="middle" x="1944" y="-63.5" font-family="Helvetica,sans-Serif" font-size="10.00">fstream</text>
</a>
</g>
</g>
<!-- Node25&#45;&gt;Node29 -->
<g id="edge29" class="edge">
<title>Node25&#45;&gt;Node29</title>
<path fill="none" stroke="midnightblue" d="M2080.33,-112.44C2053.08,-103.36 2009.82,-88.94 1979.35,-78.78"/>
<polygon fill="midnightblue" stroke="midnightblue" points="1980.14,-75.36 1969.55,-75.52 1977.93,-82 1980.14,-75.36"/>
</g>
<!-- Node30 -->
<g id="node30" class="node">
<title>Node30</title>
<g id="a_node30"><a xlink:title=" ">
<polygon fill="white" stroke="#bfbfbf" points="2107,-56.5 2107,-75.5 2191,-75.5 2191,-56.5 2107,-56.5"/>
<text text-anchor="middle" x="2149" y="-63.5" font-family="Helvetica,sans-Serif" font-size="10.00">boost/any.hpp</text>
</a>
</g>
</g>
<!-- Node25&#45;&gt;Node30 -->
<g id="edge30" class="edge">
<title>Node25&#45;&gt;Node30</title>
<path fill="none" stroke="midnightblue" d="M2113.1,-112.08C2119.24,-104.38 2128.27,-93.03 2135.74,-83.65"/>
<polygon fill="midnightblue" stroke="midnightblue" points="2138.54,-85.75 2142.03,-75.75 2133.06,-81.39 2138.54,-85.75"/>
</g>
<!-- Node31 -->
<g id="node31" class="node">
<title>Node31</title>
<g id="a_node31"><a xlink:title=" ">
<polygon fill="white" stroke="#bfbfbf" points="2209,-56.5 2209,-75.5 2277,-75.5 2277,-56.5 2209,-56.5"/>
<text text-anchor="middle" x="2243" y="-63.5" font-family="Helvetica,sans-Serif" font-size="10.00">sys/time.h</text>
</a>
</g>
</g>
<!-- Node25&#45;&gt;Node31 -->
<g id="edge31" class="edge">
<title>Node25&#45;&gt;Node31</title>
<path fill="none" stroke="midnightblue" d="M2127.71,-112.44C2150.35,-103.52 2186.07,-89.44 2211.75,-79.32"/>
<polygon fill="midnightblue" stroke="midnightblue" points="2213.37,-82.44 2221.39,-75.52 2210.81,-75.93 2213.37,-82.44"/>
</g>
<!-- Node27 -->
<g id="node27" class="node">
<title>Node27</title>
<g id="a_node27"><a xlink:title=" ">
<polygon fill="white" stroke="#bfbfbf" points="2047,-0.5 2047,-19.5 2097,-19.5 2097,-0.5 2047,-0.5"/>
<text text-anchor="middle" x="2072" y="-7.5" font-family="Helvetica,sans-Serif" font-size="10.00">stdio.h</text>
</a>
</g>
</g>
<!-- Node26&#45;&gt;Node27 -->
<g id="edge27" class="edge">
<title>Node26&#45;&gt;Node27</title>
<path fill="none" stroke="midnightblue" d="M2044.45,-56.08C2049.01,-48.61 2055.67,-37.72 2061.29,-28.52"/>
<polygon fill="midnightblue" stroke="midnightblue" points="2064.42,-30.11 2066.65,-19.75 2058.45,-26.46 2064.42,-30.11"/>
</g>
<!-- Node28 -->
<g id="node28" class="node">
<title>Node28</title>
<g id="a_node28"><a xlink:title=" ">
<polygon fill="white" stroke="#bfbfbf" points="1981,-0.5 1981,-19.5 2029,-19.5 2029,-0.5 1981,-0.5"/>
<text text-anchor="middle" x="2005" y="-7.5" font-family="Helvetica,sans-Serif" font-size="10.00">time.h</text>
</a>
</g>
</g>
<!-- Node26&#45;&gt;Node28 -->
<g id="edge28" class="edge">
<title>Node26&#45;&gt;Node28</title>
<path fill="none" stroke="midnightblue" d="M2033.39,-56.08C2028.63,-48.53 2021.68,-37.49 2015.85,-28.23"/>
<polygon fill="midnightblue" stroke="midnightblue" points="2018.8,-26.35 2010.51,-19.75 2012.88,-30.08 2018.8,-26.35"/>
</g>
<!-- Node32&#45;&gt;Node4 -->
<g id="edge34" class="edge">
<title>Node32&#45;&gt;Node4</title>
<path fill="none" stroke="midnightblue" d="M1882.45,-112.99C1879.26,-112.64 1876.09,-112.31 1873,-112 1665.99,-91.48 1419.71,-76.6 1306.94,-70.31"/>
<polygon fill="midnightblue" stroke="midnightblue" points="1306.95,-66.81 1296.78,-69.75 1306.57,-73.8 1306.95,-66.81"/>
</g>
<!-- Node32&#45;&gt;Node5 -->
<g id="edge33" class="edge">
<title>Node32&#45;&gt;Node5</title>
<path fill="none" stroke="midnightblue" d="M1882.46,-112.84C1879.27,-112.53 1876.1,-112.24 1873,-112 1360.86,-71.53 742.32,-67.11 527.74,-66.88"/>
<polygon fill="midnightblue" stroke="midnightblue" points="527.53,-63.38 517.53,-66.87 527.52,-70.38 527.53,-63.38"/>
</g>
<!-- Node32&#45;&gt;Node29 -->
<g id="edge35" class="edge">
<title>Node32&#45;&gt;Node29</title>
<path fill="none" stroke="midnightblue" d="M1944,-112.08C1944,-105.01 1944,-94.86 1944,-85.99"/>
<polygon fill="midnightblue" stroke="midnightblue" points="1947.5,-85.75 1944,-75.75 1940.5,-85.75 1947.5,-85.75"/>
</g>
</g>
</svg>
