<?xml version="1.0" encoding="UTF-8" standalone="no"?>
<!DOCTYPE svg PUBLIC "-//W3C//DTD SVG 1.1//EN"
 "http://www.w3.org/Graphics/SVG/1.1/DTD/svg11.dtd">
<!-- Generated by graphviz version 2.43.0 (0)
 -->
<!-- Title: OMSimUIinterface.hh Pages: 1 -->
<svg width="715pt" height="140pt"
 viewBox="0.00 0.00 714.50 140.00" xmlns="http://www.w3.org/2000/svg" xmlns:xlink="http://www.w3.org/1999/xlink">
<g id="graph0" class="graph" transform="scale(1 1) rotate(0) translate(4 136)">
<title>OMSimUIinterface.hh</title>
<!-- Node1 -->
<g id="node1" class="node">
<title>Node1</title>
<g id="a_node1"><a xlink:title=" ">
<polygon fill="#bfbfbf" stroke="black" points="252,-112.5 252,-131.5 373,-131.5 373,-112.5 252,-112.5"/>
<text text-anchor="middle" x="312.5" y="-119.5" font-family="Helvetica,sans-Serif" font-size="10.00">OMSimUIinterface.hh</text>
</a>
</g>
</g>
<!-- Node2 -->
<g id="node2" class="node">
<title>Node2</title>
<g id="a_node2"><a xlink:href="_o_m_sim_8hh.html" target="_top" xlink:title="Main simulation class for the Optical Module (OM) simulation. This file defines the OMSim class,...">
<polygon fill="none" stroke="black" points="279,-56.5 279,-75.5 346,-75.5 346,-56.5 279,-56.5"/>
<text text-anchor="middle" x="312.5" y="-63.5" font-family="Helvetica,sans-Serif" font-size="10.00">OMSim.hh</text>
</a>
</g>
</g>
<!-- Node1&#45;&gt;Node2 -->
<g id="edge1" class="edge">
<title>Node1&#45;&gt;Node2</title>
<path fill="none" stroke="midnightblue" d="M312.5,-101.8C312.5,-92.91 312.5,-82.78 312.5,-75.75"/>
<polygon fill="midnightblue" stroke="midnightblue" points="309,-102.08 312.5,-112.08 316,-102.08 309,-102.08"/>
</g>
<!-- Node3 -->
<g id="node3" class="node">
<title>Node3</title>
<g id="a_node3"><a xlink:href="_o_m_sim_8cc.html" target="_top" xlink:title="Implementation of the OMSim class.">
<polygon fill="none" stroke="black" points="0,-0.5 0,-19.5 65,-19.5 65,-0.5 0,-0.5"/>
<text text-anchor="middle" x="32.5" y="-7.5" font-family="Helvetica,sans-Serif" font-size="10.00">OMSim.cc</text>
</a>
</g>
</g>
<!-- Node2&#45;&gt;Node3 -->
<g id="edge2" class="edge">
<title>Node2&#45;&gt;Node3</title>
<path fill="none" stroke="midnightblue" d="M268.95,-57.09C221.18,-48.34 142.28,-33.67 74.5,-20 71.43,-19.38 68.24,-18.72 65.04,-18.05"/>
<polygon fill="midnightblue" stroke="midnightblue" points="268.48,-60.57 278.95,-58.92 269.74,-53.68 268.48,-60.57"/>
</g>
<!-- Node4 -->
<g id="node4" class="node">
<title>Node4</title>
<g id="a_node4"><a xlink:href="_o_m_sim__effective__area_8cc.html" target="_top" xlink:title="Main for the calculation of effective areas.">
<polygon fill="none" stroke="black" points="83.5,-0.5 83.5,-19.5 223.5,-19.5 223.5,-0.5 83.5,-0.5"/>
<text text-anchor="middle" x="153.5" y="-7.5" font-family="Helvetica,sans-Serif" font-size="10.00">OMSim_effective_area.cc</text>
</a>
</g>
</g>
<!-- Node2&#45;&gt;Node4 -->
<g id="edge3" class="edge">
<title>Node2&#45;&gt;Node4</title>
<path fill="none" stroke="midnightblue" d="M277.67,-53.17C247.73,-43 205.28,-28.59 178.58,-19.52"/>
<polygon fill="midnightblue" stroke="midnightblue" points="276.71,-56.54 287.31,-56.44 278.96,-49.91 276.71,-56.54"/>
</g>
<!-- Node5 -->
<g id="node5" class="node">
<title>Node5</title>
<g id="a_node5"><a xlink:href="_o_m_sim___q_e__calibration_8cc.html" target="_top" xlink:title="Main for the calculation of effective areas.">
<polygon fill="none" stroke="black" points="242,-0.5 242,-19.5 383,-19.5 383,-0.5 242,-0.5"/>
<text text-anchor="middle" x="312.5" y="-7.5" font-family="Helvetica,sans-Serif" font-size="10.00">OMSim_QE_calibration.cc</text>
</a>
</g>
</g>
<!-- Node2&#45;&gt;Node5 -->
<g id="edge4" class="edge">
<title>Node2&#45;&gt;Node5</title>
<path fill="none" stroke="midnightblue" d="M312.5,-45.8C312.5,-36.91 312.5,-26.78 312.5,-19.75"/>
<polygon fill="midnightblue" stroke="midnightblue" points="309,-46.08 312.5,-56.08 316,-46.08 309,-46.08"/>
</g>
<!-- Node6 -->
<g id="node6" class="node">
<title>Node6</title>
<g id="a_node6"><a xlink:href="_o_m_sim__radioactive__decays_8cc.html" target="_top" xlink:title="Main of the radioactive decay study.">
<polygon fill="none" stroke="black" points="401,-0.5 401,-19.5 566,-19.5 566,-0.5 401,-0.5"/>
<text text-anchor="middle" x="483.5" y="-7.5" font-family="Helvetica,sans-Serif" font-size="10.00">OMSim_radioactive_decays.cc</text>
</a>
</g>
</g>
<!-- Node2&#45;&gt;Node6 -->
<g id="edge5" class="edge">
<title>Node2&#45;&gt;Node6</title>
<path fill="none" stroke="midnightblue" d="M349.54,-53.3C381.76,-43.13 427.69,-28.62 456.53,-19.52"/>
<polygon fill="midnightblue" stroke="midnightblue" points="348.08,-50.09 339.6,-56.44 350.19,-56.77 348.08,-50.09"/>
</g>
<!-- Node7 -->
<g id="node7" class="node">
<title>Node7</title>
<g id="a_node7"><a xlink:href="_o_m_sim__supernova_8cc.html" target="_top" xlink:title="Main of the supernova study.">
<polygon fill="none" stroke="black" points="584.5,-0.5 584.5,-19.5 706.5,-19.5 706.5,-0.5 584.5,-0.5"/>
<text text-anchor="middle" x="645.5" y="-7.5" font-family="Helvetica,sans-Serif" font-size="10.00">OMSim_supernova.cc</text>
</a>
</g>
</g>
<!-- Node2&#45;&gt;Node7 -->
<g id="edge6" class="edge">
<title>Node2&#45;&gt;Node7</title>
<path fill="none" stroke="midnightblue" d="M356.33,-57.89C417.29,-48.01 527.52,-30.13 592.85,-19.54"/>
<polygon fill="midnightblue" stroke="midnightblue" points="355.57,-54.47 346.26,-59.53 356.69,-61.38 355.57,-54.47"/>
</g>
</g>
</svg>
