<?xml version="1.0" encoding="UTF-8" standalone="no"?>
<!DOCTYPE svg PUBLIC "-//W3C//DTD SVG 1.1//EN"
 "http://www.w3.org/Graphics/SVG/1.1/DTD/svg11.dtd">
<!-- Generated by graphviz version 2.43.0 (0)
 -->
<!-- Title: OMSimCommandArgsTable.hh Pages: 1 -->
<svg width="4358pt" height="196pt"
 viewBox="0.00 0.00 4358.00 196.00" xmlns="http://www.w3.org/2000/svg" xmlns:xlink="http://www.w3.org/1999/xlink">
<g id="graph0" class="graph" transform="scale(1 1) rotate(0) translate(4 192)">
<title>OMSimCommandArgsTable.hh</title>
<polygon fill="white" stroke="transparent" points="-4,4 -4,-192 4354,-192 4354,4 -4,4"/>
<!-- Node1 -->
<g id="node1" class="node">
<title>Node1</title>
<g id="a_node1"><a xlink:title="Definition of the OMSimCommandArgsTable singleton class, which controls user args.">
<polygon fill="#bfbfbf" stroke="black" points="1934,-168.5 1934,-187.5 2098,-187.5 2098,-168.5 1934,-168.5"/>
<text text-anchor="middle" x="2016" y="-175.5" font-family="Helvetica,sans-Serif" font-size="10.00">OMSimCommandArgsTable.hh</text>
</a>
</g>
</g>
<!-- Node2 -->
<g id="node2" class="node">
<title>Node2</title>
<g id="a_node2"><a xlink:href="_o_m_sim_data_file_types_8hh.html" target="_top" xlink:title="Collection of classes and methods to handle material creation from user data in json files.">
<polygon fill="white" stroke="black" points="141.5,-112.5 141.5,-131.5 276.5,-131.5 276.5,-112.5 141.5,-112.5"/>
<text text-anchor="middle" x="209" y="-119.5" font-family="Helvetica,sans-Serif" font-size="10.00">OMSimDataFileTypes.hh</text>
</a>
</g>
</g>
<!-- Node1&#45;&gt;Node2 -->
<g id="edge1" class="edge">
<title>Node1&#45;&gt;Node2</title>
<path fill="none" stroke="midnightblue" d="M1923.88,-177.12C1666.22,-176.91 916.38,-172.58 295,-132 289.01,-131.61 282.79,-131.12 276.56,-130.57"/>
<polygon fill="midnightblue" stroke="midnightblue" points="1923.94,-180.62 1933.94,-177.13 1923.94,-173.62 1923.94,-180.62"/>
</g>
<!-- Node4 -->
<g id="node4" class="node">
<title>Node4</title>
<g id="a_node4"><a xlink:href="_o_m_sim_input_data_8cc.html" target="_top" xlink:title=" ">
<polygon fill="white" stroke="black" points="152.5,-56.5 152.5,-75.5 265.5,-75.5 265.5,-56.5 152.5,-56.5"/>
<text text-anchor="middle" x="209" y="-63.5" font-family="Helvetica,sans-Serif" font-size="10.00">OMSimInputData.cc</text>
</a>
</g>
</g>
<!-- Node1&#45;&gt;Node4 -->
<g id="edge14" class="edge">
<title>Node1&#45;&gt;Node4</title>
<path fill="none" stroke="midnightblue" d="M1923.53,-176.63C1596.48,-175.02 505.86,-167.07 353,-132 302.47,-120.41 248.06,-90.5 223.04,-75.64"/>
<polygon fill="midnightblue" stroke="midnightblue" points="1923.89,-180.13 1933.91,-176.68 1923.93,-173.13 1923.89,-180.13"/>
</g>
<!-- Node5 -->
<g id="node5" class="node">
<title>Node5</title>
<g id="a_node5"><a xlink:href="_o_m_sim_u_iinterface_8hh.html" target="_top" xlink:title=" ">
<polygon fill="white" stroke="black" points="379.5,-112.5 379.5,-131.5 500.5,-131.5 500.5,-112.5 379.5,-112.5"/>
<text text-anchor="middle" x="440" y="-119.5" font-family="Helvetica,sans-Serif" font-size="10.00">OMSimUIinterface.hh</text>
</a>
</g>
</g>
<!-- Node1&#45;&gt;Node5 -->
<g id="edge4" class="edge">
<title>Node1&#45;&gt;Node5</title>
<path fill="none" stroke="midnightblue" d="M1923.56,-177.38C1687.64,-177.68 1044.12,-174.21 510,-132 506.95,-131.76 503.82,-131.48 500.67,-131.17"/>
<polygon fill="midnightblue" stroke="midnightblue" points="1923.82,-180.88 1933.81,-177.37 1923.81,-173.88 1923.82,-180.88"/>
</g>
<!-- Node11 -->
<g id="node11" class="node">
<title>Node11</title>
<g id="a_node11"><a xlink:href="_o_m_sim_m_d_o_m_flasher_8cc.html" target="_top" xlink:title=" ">
<polygon fill="white" stroke="black" points="284,-56.5 284,-75.5 418,-75.5 418,-56.5 284,-56.5"/>
<text text-anchor="middle" x="351" y="-63.5" font-family="Helvetica,sans-Serif" font-size="10.00">OMSimMDOMFlasher.cc</text>
</a>
</g>
</g>
<!-- Node1&#45;&gt;Node11 -->
<g id="edge24" class="edge">
<title>Node1&#45;&gt;Node11</title>
<path fill="none" stroke="midnightblue" d="M1923.73,-177.46C1585.76,-178.75 431.79,-179.65 370,-132 352.68,-118.65 350.5,-90.38 350.6,-75.93"/>
<polygon fill="midnightblue" stroke="midnightblue" points="1923.99,-180.96 1933.97,-177.42 1923.96,-173.96 1923.99,-180.96"/>
</g>
<!-- Node14 -->
<g id="node14" class="node">
<title>Node14</title>
<g id="a_node14"><a xlink:href="_o_m_sim_hit_manager_8cc.html" target="_top" xlink:title=" ">
<polygon fill="white" stroke="black" points="519,-112.5 519,-131.5 641,-131.5 641,-112.5 519,-112.5"/>
<text text-anchor="middle" x="580" y="-119.5" font-family="Helvetica,sans-Serif" font-size="10.00">OMSimHitManager.cc</text>
</a>
</g>
</g>
<!-- Node1&#45;&gt;Node14 -->
<g id="edge13" class="edge">
<title>Node1&#45;&gt;Node14</title>
<path fill="none" stroke="midnightblue" d="M1923.62,-176.98C1703,-176.27 1128.15,-170.53 650,-132 647.07,-131.76 644.07,-131.49 641.05,-131.2"/>
<polygon fill="midnightblue" stroke="midnightblue" points="1923.85,-180.48 1933.86,-177.01 1923.87,-173.48 1923.85,-180.48"/>
</g>
<!-- Node15 -->
<g id="node15" class="node">
<title>Node15</title>
<g id="a_node15"><a xlink:href="_o_m_sim_p_m_t_response_8cc.html" target="_top" xlink:title=" ">
<polygon fill="white" stroke="black" points="659,-112.5 659,-131.5 793,-131.5 793,-112.5 659,-112.5"/>
<text text-anchor="middle" x="726" y="-119.5" font-family="Helvetica,sans-Serif" font-size="10.00">OMSimPMTResponse.cc</text>
</a>
</g>
</g>
<!-- Node1&#45;&gt;Node15 -->
<g id="edge15" class="edge">
<title>Node1&#45;&gt;Node15</title>
<path fill="none" stroke="midnightblue" d="M1923.78,-176.12C1720.75,-173.63 1219.96,-164.44 802,-132 799.09,-131.77 796.11,-131.52 793.11,-131.25"/>
<polygon fill="midnightblue" stroke="midnightblue" points="1923.76,-179.62 1933.8,-176.24 1923.84,-172.62 1923.76,-179.62"/>
</g>
<!-- Node16 -->
<g id="node16" class="node">
<title>Node16</title>
<g id="a_node16"><a xlink:href="_o_m_sim_sensitive_detector_8cc.html" target="_top" xlink:title=" ">
<polygon fill="white" stroke="black" points="811,-112.5 811,-131.5 963,-131.5 963,-112.5 811,-112.5"/>
<text text-anchor="middle" x="887" y="-119.5" font-family="Helvetica,sans-Serif" font-size="10.00">OMSimSensitiveDetector.cc</text>
</a>
</g>
</g>
<!-- Node1&#45;&gt;Node16 -->
<g id="edge16" class="edge">
<title>Node1&#45;&gt;Node16</title>
<path fill="none" stroke="midnightblue" d="M1923.6,-174.95C1741.37,-170.49 1322.91,-158.11 972,-132 969.19,-131.79 966.33,-131.56 963.44,-131.32"/>
<polygon fill="midnightblue" stroke="midnightblue" points="1923.59,-178.45 1933.68,-175.2 1923.76,-171.46 1923.59,-178.45"/>
</g>
<!-- Node17 -->
<g id="node17" class="node">
<title>Node17</title>
<g id="a_node17"><a xlink:href="abc_detector_component_8cc.html" target="_top" xlink:title=" ">
<polygon fill="white" stroke="black" points="981,-112.5 981,-131.5 1127,-131.5 1127,-112.5 981,-112.5"/>
<text text-anchor="middle" x="1054" y="-119.5" font-family="Helvetica,sans-Serif" font-size="10.00">abcDetectorComponent.cc</text>
</a>
</g>
</g>
<!-- Node1&#45;&gt;Node17 -->
<g id="edge17" class="edge">
<title>Node1&#45;&gt;Node17</title>
<path fill="none" stroke="midnightblue" d="M1923.39,-174.04C1762.88,-168.51 1422.67,-155.04 1136,-132 1133.14,-131.77 1130.24,-131.52 1127.3,-131.26"/>
<polygon fill="midnightblue" stroke="midnightblue" points="1923.59,-177.55 1933.7,-174.39 1923.82,-170.55 1923.59,-177.55"/>
</g>
<!-- Node18 -->
<g id="node18" class="node">
<title>Node18</title>
<g id="a_node18"><a xlink:href="_o_m_sim_d_e_g_g_8cc.html" target="_top" xlink:title=" ">
<polygon fill="white" stroke="black" points="1145,-112.5 1145,-131.5 1239,-131.5 1239,-112.5 1145,-112.5"/>
<text text-anchor="middle" x="1192" y="-119.5" font-family="Helvetica,sans-Serif" font-size="10.00">OMSimDEGG.cc</text>
</a>
</g>
</g>
<!-- Node1&#45;&gt;Node18 -->
<g id="edge18" class="edge">
<title>Node1&#45;&gt;Node18</title>
<path fill="none" stroke="midnightblue" d="M1923.79,-174.6C1779.35,-170.16 1491.11,-158.59 1248,-132 1245.06,-131.68 1242.05,-131.31 1239.01,-130.91"/>
<polygon fill="midnightblue" stroke="midnightblue" points="1923.84,-178.1 1933.94,-174.91 1924.05,-171.11 1923.84,-178.1"/>
</g>
<!-- Node19 -->
<g id="node19" class="node">
<title>Node19</title>
<g id="a_node19"><a xlink:href="_o_m_sim_d_e_g_g_harness_8cc.html" target="_top" xlink:title=" ">
<polygon fill="white" stroke="black" points="1257,-112.5 1257,-131.5 1391,-131.5 1391,-112.5 1257,-112.5"/>
<text text-anchor="middle" x="1324" y="-119.5" font-family="Helvetica,sans-Serif" font-size="10.00">OMSimDEGGHarness.cc</text>
</a>
</g>
</g>
<!-- Node1&#45;&gt;Node19 -->
<g id="edge19" class="edge">
<title>Node1&#45;&gt;Node19</title>
<path fill="none" stroke="midnightblue" d="M1923.56,-171.49C1803.13,-164.02 1586.11,-149.58 1401,-132 1397.78,-131.69 1394.49,-131.37 1391.17,-131.02"/>
<polygon fill="midnightblue" stroke="midnightblue" points="1923.64,-175 1933.84,-172.12 1924.07,-168.01 1923.64,-175"/>
</g>
<!-- Node20 -->
<g id="node20" class="node">
<title>Node20</title>
<g id="a_node20"><a xlink:href="_o_m_sim_detector_construction_8cc.html" target="_top" xlink:title=" ">
<polygon fill="white" stroke="black" points="1409.5,-112.5 1409.5,-131.5 1578.5,-131.5 1578.5,-112.5 1409.5,-112.5"/>
<text text-anchor="middle" x="1494" y="-119.5" font-family="Helvetica,sans-Serif" font-size="10.00">OMSimDetectorConstruction.cc</text>
</a>
</g>
</g>
<!-- Node1&#45;&gt;Node20 -->
<g id="edge20" class="edge">
<title>Node1&#45;&gt;Node20</title>
<path fill="none" stroke="midnightblue" d="M1923.63,-167.44C1825.25,-157.27 1670.96,-141.31 1576.52,-131.54"/>
<polygon fill="midnightblue" stroke="midnightblue" points="1923.56,-170.96 1933.86,-168.5 1924.28,-163.99 1923.56,-170.96"/>
</g>
<!-- Node21 -->
<g id="node21" class="node">
<title>Node21</title>
<g id="a_node21"><a xlink:href="_o_m_sim_l_o_m16_8cc.html" target="_top" xlink:title=" ">
<polygon fill="white" stroke="black" points="1596.5,-112.5 1596.5,-131.5 1695.5,-131.5 1695.5,-112.5 1596.5,-112.5"/>
<text text-anchor="middle" x="1646" y="-119.5" font-family="Helvetica,sans-Serif" font-size="10.00">OMSimLOM16.cc</text>
</a>
</g>
</g>
<!-- Node1&#45;&gt;Node21 -->
<g id="edge21" class="edge">
<title>Node1&#45;&gt;Node21</title>
<path fill="none" stroke="midnightblue" d="M1945.85,-167.01C1882.8,-157.99 1787.68,-144.29 1705,-132 1701.93,-131.54 1698.76,-131.07 1695.57,-130.59"/>
<polygon fill="midnightblue" stroke="midnightblue" points="1945.67,-170.52 1956.07,-168.47 1946.67,-163.59 1945.67,-170.52"/>
</g>
<!-- Node22 -->
<g id="node22" class="node">
<title>Node22</title>
<g id="a_node22"><a xlink:href="_o_m_sim_l_o_m18_8cc.html" target="_top" xlink:title=" ">
<polygon fill="white" stroke="black" points="1713.5,-112.5 1713.5,-131.5 1812.5,-131.5 1812.5,-112.5 1713.5,-112.5"/>
<text text-anchor="middle" x="1763" y="-119.5" font-family="Helvetica,sans-Serif" font-size="10.00">OMSimLOM18.cc</text>
</a>
</g>
</g>
<!-- Node1&#45;&gt;Node22 -->
<g id="edge22" class="edge">
<title>Node1&#45;&gt;Node22</title>
<path fill="none" stroke="midnightblue" d="M1966.08,-166.35C1918.27,-156.14 1847.05,-140.94 1802.9,-131.52"/>
<polygon fill="midnightblue" stroke="midnightblue" points="1965.4,-169.78 1975.91,-168.44 1966.86,-162.93 1965.4,-169.78"/>
</g>
<!-- Node23 -->
<g id="node23" class="node">
<title>Node23</title>
<g id="a_node23"><a xlink:href="_o_m_sim_m_d_o_m_8cc.html" target="_top" xlink:title=" ">
<polygon fill="white" stroke="black" points="1831,-112.5 1831,-131.5 1929,-131.5 1929,-112.5 1831,-112.5"/>
<text text-anchor="middle" x="1880" y="-119.5" font-family="Helvetica,sans-Serif" font-size="10.00">OMSimMDOM.cc</text>
</a>
</g>
</g>
<!-- Node1&#45;&gt;Node23 -->
<g id="edge23" class="edge">
<title>Node1&#45;&gt;Node23</title>
<path fill="none" stroke="midnightblue" d="M1984.87,-164.64C1959.34,-154.5 1923.89,-140.43 1901.45,-131.52"/>
<polygon fill="midnightblue" stroke="midnightblue" points="1983.86,-168.01 1994.45,-168.44 1986.45,-161.5 1983.86,-168.01"/>
</g>
<!-- Node24 -->
<g id="node24" class="node">
<title>Node24</title>
<g id="a_node24"><a xlink:href="_o_m_sim_m_d_o_m_harness_8cc.html" target="_top" xlink:title=" ">
<polygon fill="white" stroke="black" points="1947,-112.5 1947,-131.5 2085,-131.5 2085,-112.5 1947,-112.5"/>
<text text-anchor="middle" x="2016" y="-119.5" font-family="Helvetica,sans-Serif" font-size="10.00">OMSimMDOMHarness.cc</text>
</a>
</g>
</g>
<!-- Node1&#45;&gt;Node24 -->
<g id="edge25" class="edge">
<title>Node1&#45;&gt;Node24</title>
<path fill="none" stroke="midnightblue" d="M2016,-157.8C2016,-148.91 2016,-138.78 2016,-131.75"/>
<polygon fill="midnightblue" stroke="midnightblue" points="2012.5,-158.08 2016,-168.08 2019.5,-158.08 2012.5,-158.08"/>
</g>
<!-- Node25 -->
<g id="node25" class="node">
<title>Node25</title>
<g id="a_node25"><a xlink:href="_o_m_sim_p_d_o_m_8cc.html" target="_top" xlink:title=" ">
<polygon fill="white" stroke="black" points="2103.5,-112.5 2103.5,-131.5 2198.5,-131.5 2198.5,-112.5 2103.5,-112.5"/>
<text text-anchor="middle" x="2151" y="-119.5" font-family="Helvetica,sans-Serif" font-size="10.00">OMSimPDOM.cc</text>
</a>
</g>
</g>
<!-- Node1&#45;&gt;Node25 -->
<g id="edge26" class="edge">
<title>Node1&#45;&gt;Node25</title>
<path fill="none" stroke="midnightblue" d="M2046.91,-164.64C2072.24,-154.5 2107.43,-140.43 2129.71,-131.52"/>
<polygon fill="midnightblue" stroke="midnightblue" points="2045.38,-161.48 2037.39,-168.44 2047.98,-167.98 2045.38,-161.48"/>
</g>
<!-- Node26 -->
<g id="node26" class="node">
<title>Node26</title>
<g id="a_node26"><a xlink:href="_o_m_sim_p_m_t_construction_8cc.html" target="_top" xlink:title=" ">
<polygon fill="white" stroke="black" points="2216.5,-112.5 2216.5,-131.5 2363.5,-131.5 2363.5,-112.5 2216.5,-112.5"/>
<text text-anchor="middle" x="2290" y="-119.5" font-family="Helvetica,sans-Serif" font-size="10.00">OMSimPMTConstruction.cc</text>
</a>
</g>
</g>
<!-- Node1&#45;&gt;Node26 -->
<g id="edge27" class="edge">
<title>Node1&#45;&gt;Node26</title>
<path fill="none" stroke="midnightblue" d="M2069.41,-166.47C2121.2,-156.27 2198.77,-140.98 2246.79,-131.52"/>
<polygon fill="midnightblue" stroke="midnightblue" points="2068.55,-163.08 2059.42,-168.44 2069.9,-169.94 2068.55,-163.08"/>
</g>
<!-- Node27 -->
<g id="node27" class="node">
<title>Node27</title>
<g id="a_node27"><a xlink:href="_o_m_sim_effective_area_analyisis_8cc.html" target="_top" xlink:title=" ">
<polygon fill="white" stroke="black" points="2381.5,-112.5 2381.5,-131.5 2556.5,-131.5 2556.5,-112.5 2381.5,-112.5"/>
<text text-anchor="middle" x="2469" y="-119.5" font-family="Helvetica,sans-Serif" font-size="10.00">OMSimEffectiveAreaAnalyisis.cc</text>
</a>
</g>
</g>
<!-- Node1&#45;&gt;Node27 -->
<g id="edge28" class="edge">
<title>Node1&#45;&gt;Node27</title>
<path fill="none" stroke="midnightblue" d="M2097.97,-167.23C2183.48,-157.04 2316.19,-141.22 2397.56,-131.52"/>
<polygon fill="midnightblue" stroke="midnightblue" points="2097.29,-163.78 2087.78,-168.44 2098.12,-170.74 2097.29,-163.78"/>
</g>
<!-- Node28 -->
<g id="node28" class="node">
<title>Node28</title>
<g id="a_node28"><a xlink:href="_o_m_sim_effective_area_detector_8cc.html" target="_top" xlink:title=" ">
<polygon fill="white" stroke="black" points="2575,-112.5 2575,-131.5 2747,-131.5 2747,-112.5 2575,-112.5"/>
<text text-anchor="middle" x="2661" y="-119.5" font-family="Helvetica,sans-Serif" font-size="10.00">OMSimEffectiveAreaDetector.cc</text>
</a>
</g>
</g>
<!-- Node1&#45;&gt;Node28 -->
<g id="edge29" class="edge">
<title>Node1&#45;&gt;Node28</title>
<path fill="none" stroke="midnightblue" d="M2108.03,-169.83C2217.28,-161.24 2404.97,-146.21 2566,-132 2568.89,-131.75 2571.83,-131.48 2574.79,-131.22"/>
<polygon fill="midnightblue" stroke="midnightblue" points="2107.72,-166.35 2098.03,-170.62 2108.27,-173.32 2107.72,-166.35"/>
</g>
<!-- Node29 -->
<g id="node29" class="node">
<title>Node29</title>
<g id="a_node29"><a xlink:href="_o_m_sim_decays_analysis_8cc.html" target="_top" xlink:title=" ">
<polygon fill="white" stroke="black" points="2765.5,-112.5 2765.5,-131.5 2908.5,-131.5 2908.5,-112.5 2765.5,-112.5"/>
<text text-anchor="middle" x="2837" y="-119.5" font-family="Helvetica,sans-Serif" font-size="10.00">OMSimDecaysAnalysis.cc</text>
</a>
</g>
</g>
<!-- Node1&#45;&gt;Node29 -->
<g id="edge30" class="edge">
<title>Node1&#45;&gt;Node29</title>
<path fill="none" stroke="midnightblue" d="M2108.5,-172.86C2248.69,-166.25 2523.3,-151.99 2756,-132 2759.1,-131.73 2762.27,-131.45 2765.47,-131.14"/>
<polygon fill="midnightblue" stroke="midnightblue" points="2108.05,-169.38 2098.23,-173.34 2108.38,-176.37 2108.05,-169.38"/>
</g>
<!-- Node30 -->
<g id="node30" class="node">
<title>Node30</title>
<g id="a_node30"><a xlink:href="radioactive__decays_2src_2_o_m_sim_event_action_8cc.html" target="_top" xlink:title=" ">
<polygon fill="white" stroke="black" points="2927,-112.5 2927,-131.5 3051,-131.5 3051,-112.5 2927,-112.5"/>
<text text-anchor="middle" x="2989" y="-119.5" font-family="Helvetica,sans-Serif" font-size="10.00">OMSimEventAction.cc</text>
</a>
</g>
</g>
<!-- Node1&#45;&gt;Node30 -->
<g id="edge31" class="edge">
<title>Node1&#45;&gt;Node30</title>
<path fill="none" stroke="midnightblue" d="M2108.24,-174.72C2271.69,-170.16 2622.74,-158.04 2918,-132 2920.85,-131.75 2923.75,-131.47 2926.69,-131.17"/>
<polygon fill="midnightblue" stroke="midnightblue" points="2108.13,-171.22 2098.23,-175 2108.32,-178.22 2108.13,-171.22"/>
</g>
<!-- Node31 -->
<g id="node31" class="node">
<title>Node31</title>
<g id="a_node31"><a xlink:href="_o_m_sim_g4_radioactive_decay_8cc.html" target="_top" xlink:title=" ">
<polygon fill="white" stroke="black" points="3069,-112.5 3069,-131.5 3235,-131.5 3235,-112.5 3069,-112.5"/>
<text text-anchor="middle" x="3152" y="-119.5" font-family="Helvetica,sans-Serif" font-size="10.00">OMSimG4RadioactiveDecay.cc</text>
</a>
</g>
</g>
<!-- Node1&#45;&gt;Node31 -->
<g id="edge32" class="edge">
<title>Node1&#45;&gt;Node31</title>
<path fill="none" stroke="midnightblue" d="M2108.39,-174.71C2290.58,-169.81 2708.99,-156.72 3060,-132 3062.88,-131.8 3065.81,-131.58 3068.77,-131.35"/>
<polygon fill="midnightblue" stroke="midnightblue" points="2108.21,-171.21 2098.31,-174.98 2108.4,-178.21 2108.21,-171.21"/>
</g>
<!-- Node32 -->
<g id="node32" class="node">
<title>Node32</title>
<g id="a_node32"><a xlink:href="_o_m_sim_rad_decays_detector_8cc.html" target="_top" xlink:title=" ">
<polygon fill="white" stroke="black" points="3253.5,-112.5 3253.5,-131.5 3414.5,-131.5 3414.5,-112.5 3253.5,-112.5"/>
<text text-anchor="middle" x="3334" y="-119.5" font-family="Helvetica,sans-Serif" font-size="10.00">OMSimRadDecaysDetector.cc</text>
</a>
</g>
</g>
<!-- Node1&#45;&gt;Node32 -->
<g id="edge33" class="edge">
<title>Node1&#45;&gt;Node32</title>
<path fill="none" stroke="midnightblue" d="M2108.11,-175.61C2312.65,-172.08 2820.15,-160.93 3244,-132 3246.98,-131.8 3250.01,-131.57 3253.07,-131.34"/>
<polygon fill="midnightblue" stroke="midnightblue" points="2107.95,-172.11 2098.01,-175.78 2108.07,-179.11 2107.95,-172.11"/>
</g>
<!-- Node33 -->
<g id="node33" class="node">
<title>Node33</title>
<g id="a_node33"><a xlink:href="_o_m_sim_yield_detector_8cc.html" target="_top" xlink:title=" ">
<polygon fill="white" stroke="black" points="3432.5,-112.5 3432.5,-131.5 3563.5,-131.5 3563.5,-112.5 3432.5,-112.5"/>
<text text-anchor="middle" x="3498" y="-119.5" font-family="Helvetica,sans-Serif" font-size="10.00">OMSimYieldDetector.cc</text>
</a>
</g>
</g>
<!-- Node1&#45;&gt;Node33 -->
<g id="edge34" class="edge">
<title>Node1&#45;&gt;Node33</title>
<path fill="none" stroke="midnightblue" d="M2108.39,-176.89C2333.65,-176 2928.96,-169.94 3424,-132 3426.71,-131.79 3429.47,-131.56 3432.26,-131.3"/>
<polygon fill="midnightblue" stroke="midnightblue" points="2108.26,-173.39 2098.27,-176.93 2108.28,-180.39 2108.26,-173.39"/>
</g>
<!-- Node34 -->
<g id="node34" class="node">
<title>Node34</title>
<g id="a_node34"><a xlink:href="supernova_2src_2_o_m_sim_primary_generator_action_8cc.html" target="_top" xlink:title=" ">
<polygon fill="white" stroke="black" points="3581.5,-112.5 3581.5,-131.5 3764.5,-131.5 3764.5,-112.5 3581.5,-112.5"/>
<text text-anchor="middle" x="3673" y="-119.5" font-family="Helvetica,sans-Serif" font-size="10.00">OMSimPrimaryGeneratorAction.cc</text>
</a>
</g>
</g>
<!-- Node1&#45;&gt;Node34 -->
<g id="edge35" class="edge">
<title>Node1&#45;&gt;Node34</title>
<path fill="none" stroke="midnightblue" d="M2108.5,-176.29C2349.72,-174.01 3017.79,-164.98 3573,-132 3575.78,-131.83 3578.61,-131.65 3581.46,-131.46"/>
<polygon fill="midnightblue" stroke="midnightblue" points="2108.34,-172.79 2098.37,-176.38 2108.4,-179.79 2108.34,-172.79"/>
</g>
<!-- Node35 -->
<g id="node35" class="node">
<title>Node35</title>
<g id="a_node35"><a xlink:href="_o_m_sim_s_n_analysis_8cc.html" target="_top" xlink:title="Analyze data and write output files.">
<polygon fill="white" stroke="black" points="3783,-112.5 3783,-131.5 3903,-131.5 3903,-112.5 3783,-112.5"/>
<text text-anchor="middle" x="3843" y="-119.5" font-family="Helvetica,sans-Serif" font-size="10.00">OMSimSNAnalysis.cc</text>
</a>
</g>
</g>
<!-- Node1&#45;&gt;Node35 -->
<g id="edge36" class="edge">
<title>Node1&#45;&gt;Node35</title>
<path fill="none" stroke="midnightblue" d="M2108.68,-175.9C2422.81,-171.99 3445.75,-157.54 3774,-132 3776.89,-131.78 3779.85,-131.51 3782.83,-131.22"/>
<polygon fill="midnightblue" stroke="midnightblue" points="2108.21,-172.41 2098.26,-176.03 2108.3,-179.41 2108.21,-172.41"/>
</g>
<!-- Node36 -->
<g id="node36" class="node">
<title>Node36</title>
<g id="a_node36"><a xlink:href="_o_m_sim_s_ndetector_8cc.html" target="_top" xlink:title=" ">
<polygon fill="white" stroke="black" points="3921.5,-112.5 3921.5,-131.5 4040.5,-131.5 4040.5,-112.5 3921.5,-112.5"/>
<text text-anchor="middle" x="3981" y="-119.5" font-family="Helvetica,sans-Serif" font-size="10.00">OMSimSNdetector.cc</text>
</a>
</g>
</g>
<!-- Node1&#45;&gt;Node36 -->
<g id="edge37" class="edge">
<title>Node1&#45;&gt;Node36</title>
<path fill="none" stroke="midnightblue" d="M2108.59,-176.1C2438.42,-172.71 3555.37,-159.41 3912,-132 3915.01,-131.77 3918.09,-131.5 3921.2,-131.19"/>
<polygon fill="midnightblue" stroke="midnightblue" points="2108.09,-172.61 2098.12,-176.21 2108.16,-179.61 2108.09,-172.61"/>
</g>
<!-- Node37 -->
<g id="node37" class="node">
<title>Node37</title>
<g id="a_node37"><a xlink:href="_o_m_sim_s_n_particle_generators_8cc.html" target="_top" xlink:title=" ">
<polygon fill="white" stroke="black" points="4058.5,-112.5 4058.5,-131.5 4227.5,-131.5 4227.5,-112.5 4058.5,-112.5"/>
<text text-anchor="middle" x="4143" y="-119.5" font-family="Helvetica,sans-Serif" font-size="10.00">OMSimSNParticleGenerators.cc</text>
</a>
</g>
</g>
<!-- Node1&#45;&gt;Node37 -->
<g id="edge38" class="edge">
<title>Node1&#45;&gt;Node37</title>
<path fill="none" stroke="midnightblue" d="M2108.83,-177.4C2397.05,-178.12 3302.05,-176.4 4050,-132 4052.75,-131.84 4055.55,-131.66 4058.37,-131.46"/>
<polygon fill="midnightblue" stroke="midnightblue" points="2108.44,-173.9 2098.43,-177.37 2108.42,-180.9 2108.44,-173.9"/>
</g>
<!-- Node38 -->
<g id="node38" class="node">
<title>Node38</title>
<g id="a_node38"><a xlink:href="_o_m_sim_s_n_tools_8cc.html" target="_top" xlink:title=" ">
<polygon fill="white" stroke="black" points="4246,-112.5 4246,-131.5 4350,-131.5 4350,-112.5 4246,-112.5"/>
<text text-anchor="middle" x="4298" y="-119.5" font-family="Helvetica,sans-Serif" font-size="10.00">OMSimSNTools.cc</text>
</a>
</g>
</g>
<!-- Node1&#45;&gt;Node38 -->
<g id="edge39" class="edge">
<title>Node1&#45;&gt;Node38</title>
<path fill="none" stroke="midnightblue" d="M2108.43,-176.68C2473.2,-175.2 3813.5,-167.39 4237,-132 4239.88,-131.76 4242.83,-131.47 4245.81,-131.14"/>
<polygon fill="midnightblue" stroke="midnightblue" points="2108.17,-173.19 2098.18,-176.73 2108.19,-180.19 2108.17,-173.19"/>
</g>
<!-- Node3 -->
<g id="node3" class="node">
<title>Node3</title>
<g id="a_node3"><a xlink:href="_o_m_sim_data_file_types_8cc.html" target="_top" xlink:title=" ">
<polygon fill="white" stroke="black" points="0,-56.5 0,-75.5 134,-75.5 134,-56.5 0,-56.5"/>
<text text-anchor="middle" x="67" y="-63.5" font-family="Helvetica,sans-Serif" font-size="10.00">OMSimDataFileTypes.cc</text>
</a>
</g>
</g>
<!-- Node2&#45;&gt;Node3 -->
<g id="edge2" class="edge">
<title>Node2&#45;&gt;Node3</title>
<path fill="none" stroke="midnightblue" d="M176.84,-108.77C150.17,-98.63 112.93,-84.47 89.4,-75.52"/>
<polygon fill="midnightblue" stroke="midnightblue" points="175.91,-112.16 186.5,-112.44 178.4,-105.62 175.91,-112.16"/>
</g>
<!-- Node2&#45;&gt;Node4 -->
<g id="edge3" class="edge">
<title>Node2&#45;&gt;Node4</title>
<path fill="none" stroke="midnightblue" d="M209,-101.8C209,-92.91 209,-82.78 209,-75.75"/>
<polygon fill="midnightblue" stroke="midnightblue" points="205.5,-102.08 209,-112.08 212.5,-102.08 205.5,-102.08"/>
</g>
<!-- Node6 -->
<g id="node6" class="node">
<title>Node6</title>
<g id="a_node6"><a xlink:href="_o_m_sim_8hh.html" target="_top" xlink:title="Main simulation class for the Optical Module (OM) simulation. This file defines the OMSim class,...">
<polygon fill="white" stroke="black" points="436.5,-56.5 436.5,-75.5 503.5,-75.5 503.5,-56.5 436.5,-56.5"/>
<text text-anchor="middle" x="470" y="-63.5" font-family="Helvetica,sans-Serif" font-size="10.00">OMSim.hh</text>
</a>
</g>
</g>
<!-- Node5&#45;&gt;Node6 -->
<g id="edge5" class="edge">
<title>Node5&#45;&gt;Node6</title>
<path fill="none" stroke="midnightblue" d="M449.85,-103.27C454.97,-94.05 461.02,-83.17 465.14,-75.75"/>
<polygon fill="midnightblue" stroke="midnightblue" points="446.75,-101.64 444.95,-112.08 452.87,-105.04 446.75,-101.64"/>
</g>
<!-- Node5&#45;&gt;Node11 -->
<g id="edge10" class="edge">
<title>Node5&#45;&gt;Node11</title>
<path fill="none" stroke="midnightblue" d="M416.76,-106.9C400.44,-97 379.13,-84.07 365.26,-75.65"/>
<polygon fill="midnightblue" stroke="midnightblue" points="415.34,-110.13 425.7,-112.32 418.97,-104.14 415.34,-110.13"/>
</g>
<!-- Node12 -->
<g id="node12" class="node">
<title>Node12</title>
<g id="a_node12"><a xlink:href="_o_m_sim_angular_scan_8cc.html" target="_top" xlink:title=" ">
<polygon fill="white" stroke="black" points="522,-56.5 522,-75.5 648,-75.5 648,-56.5 522,-56.5"/>
<text text-anchor="middle" x="585" y="-63.5" font-family="Helvetica,sans-Serif" font-size="10.00">OMSimAngularScan.cc</text>
</a>
</g>
</g>
<!-- Node5&#45;&gt;Node12 -->
<g id="edge11" class="edge">
<title>Node5&#45;&gt;Node12</title>
<path fill="none" stroke="midnightblue" d="M472.48,-108.91C499.74,-98.75 537.99,-84.51 562.13,-75.52"/>
<polygon fill="midnightblue" stroke="midnightblue" points="471.13,-105.67 462.98,-112.44 473.57,-112.23 471.13,-105.67"/>
</g>
<!-- Node13 -->
<g id="node13" class="node">
<title>Node13</title>
<g id="a_node13"><a xlink:href="_o_m_sim_decays_g_p_s_8cc.html" target="_top" xlink:title=" ">
<polygon fill="white" stroke="black" points="666.5,-56.5 666.5,-75.5 787.5,-75.5 787.5,-56.5 666.5,-56.5"/>
<text text-anchor="middle" x="727" y="-63.5" font-family="Helvetica,sans-Serif" font-size="10.00">OMSimDecaysGPS.cc</text>
</a>
</g>
</g>
<!-- Node5&#45;&gt;Node13 -->
<g id="edge12" class="edge">
<title>Node5&#45;&gt;Node13</title>
<path fill="none" stroke="midnightblue" d="M495.61,-110.54C549.85,-100.33 631.34,-85 681.74,-75.52"/>
<polygon fill="midnightblue" stroke="midnightblue" points="494.66,-107.15 485.48,-112.44 495.95,-114.03 494.66,-107.15"/>
</g>
<!-- Node7 -->
<g id="node7" class="node">
<title>Node7</title>
<g id="a_node7"><a xlink:href="_o_m_sim_8cc.html" target="_top" xlink:title="Implementation of the OMSim class.">
<polygon fill="white" stroke="black" points="231.5,-0.5 231.5,-19.5 296.5,-19.5 296.5,-0.5 231.5,-0.5"/>
<text text-anchor="middle" x="264" y="-7.5" font-family="Helvetica,sans-Serif" font-size="10.00">OMSim.cc</text>
</a>
</g>
</g>
<!-- Node6&#45;&gt;Node7 -->
<g id="edge6" class="edge">
<title>Node6&#45;&gt;Node7</title>
<path fill="none" stroke="midnightblue" d="M427.38,-53.83C388.49,-43.63 331.84,-28.78 296.49,-19.52"/>
<polygon fill="midnightblue" stroke="midnightblue" points="426.8,-57.29 437.36,-56.44 428.57,-50.52 426.8,-57.29"/>
</g>
<!-- Node8 -->
<g id="node8" class="node">
<title>Node8</title>
<g id="a_node8"><a xlink:href="_o_m_sim__effective__area_8cc.html" target="_top" xlink:title="Main for the calculation of effective areas.">
<polygon fill="white" stroke="black" points="315,-0.5 315,-19.5 455,-19.5 455,-0.5 315,-0.5"/>
<text text-anchor="middle" x="385" y="-7.5" font-family="Helvetica,sans-Serif" font-size="10.00">OMSim_effective_area.cc</text>
</a>
</g>
</g>
<!-- Node6&#45;&gt;Node8 -->
<g id="edge7" class="edge">
<title>Node6&#45;&gt;Node8</title>
<path fill="none" stroke="midnightblue" d="M447.81,-50.9C432.22,-41 411.87,-28.07 398.62,-19.65"/>
<polygon fill="midnightblue" stroke="midnightblue" points="446.03,-53.92 456.34,-56.32 449.78,-48.01 446.03,-53.92"/>
</g>
<!-- Node9 -->
<g id="node9" class="node">
<title>Node9</title>
<g id="a_node9"><a xlink:href="_o_m_sim__radioactive__decays_8cc.html" target="_top" xlink:title="Main of the radioactive decay study.">
<polygon fill="white" stroke="black" points="473.5,-0.5 473.5,-19.5 638.5,-19.5 638.5,-0.5 473.5,-0.5"/>
<text text-anchor="middle" x="556" y="-7.5" font-family="Helvetica,sans-Serif" font-size="10.00">OMSim_radioactive_decays.cc</text>
</a>
</g>
</g>
<!-- Node6&#45;&gt;Node9 -->
<g id="edge8" class="edge">
<title>Node6&#45;&gt;Node9</title>
<path fill="none" stroke="midnightblue" d="M492.45,-50.9C508.22,-41 528.81,-28.07 542.22,-19.65"/>
<polygon fill="midnightblue" stroke="midnightblue" points="490.43,-48.04 483.82,-56.32 494.15,-53.97 490.43,-48.04"/>
</g>
<!-- Node10 -->
<g id="node10" class="node">
<title>Node10</title>
<g id="a_node10"><a xlink:href="_o_m_sim__supernova_8cc.html" target="_top" xlink:title="Main of the supernova study.">
<polygon fill="white" stroke="black" points="657,-0.5 657,-19.5 779,-19.5 779,-0.5 657,-0.5"/>
<text text-anchor="middle" x="718" y="-7.5" font-family="Helvetica,sans-Serif" font-size="10.00">OMSim_supernova.cc</text>
</a>
</g>
</g>
<!-- Node6&#45;&gt;Node10 -->
<g id="edge9" class="edge">
<title>Node6&#45;&gt;Node10</title>
<path fill="none" stroke="midnightblue" d="M513.52,-55.52C560.19,-45.36 633.64,-29.37 678.64,-19.57"/>
<polygon fill="midnightblue" stroke="midnightblue" points="512.73,-52.11 503.7,-57.66 514.22,-58.95 512.73,-52.11"/>
</g>
</g>
</svg>
