<?xml version="1.0" encoding="UTF-8" standalone="no"?>
<!DOCTYPE svg PUBLIC "-//W3C//DTD SVG 1.1//EN"
 "http://www.w3.org/Graphics/SVG/1.1/DTD/svg11.dtd">
<!-- Generated by graphviz version 2.43.0 (0)
 -->
<!-- Title: OMSimSNdetector.hh Pages: 1 -->
<svg width="268pt" height="84pt"
 viewBox="0.00 0.00 267.50 84.00" xmlns="http://www.w3.org/2000/svg" xmlns:xlink="http://www.w3.org/1999/xlink">
<g id="graph0" class="graph" transform="scale(1 1) rotate(0) translate(4 80)">
<title>OMSimSNdetector.hh</title>
<polygon fill="white" stroke="transparent" points="-4,4 -4,-80 263.5,-80 263.5,4 -4,4"/>
<!-- Node1 -->
<g id="node1" class="node">
<title>Node1</title>
<g id="a_node1"><a xlink:title=" ">
<polygon fill="#bfbfbf" stroke="black" points="70,-56.5 70,-75.5 190,-75.5 190,-56.5 70,-56.5"/>
<text text-anchor="middle" x="130" y="-63.5" font-family="Helvetica,sans-Serif" font-size="10.00">OMSimSNdetector.hh</text>
</a>
</g>
</g>
<!-- Node2 -->
<g id="node2" class="node">
<title>Node2</title>
<g id="a_node2"><a xlink:href="_o_m_sim__supernova_8cc.html" target="_top" xlink:title="Main of the supernova study.">
<polygon fill="white" stroke="black" points="0,-0.5 0,-19.5 122,-19.5 122,-0.5 0,-0.5"/>
<text text-anchor="middle" x="61" y="-7.5" font-family="Helvetica,sans-Serif" font-size="10.00">OMSim_supernova.cc</text>
</a>
</g>
</g>
<!-- Node1&#45;&gt;Node2 -->
<g id="edge1" class="edge">
<title>Node1&#45;&gt;Node2</title>
<path fill="none" stroke="midnightblue" d="M110.96,-50.1C98.54,-40.38 82.76,-28.03 72.29,-19.83"/>
<polygon fill="midnightblue" stroke="midnightblue" points="108.88,-52.92 118.91,-56.32 113.2,-47.4 108.88,-52.92"/>
</g>
<!-- Node3 -->
<g id="node3" class="node">
<title>Node3</title>
<g id="a_node3"><a xlink:href="_o_m_sim_s_ndetector_8cc.html" target="_top" xlink:title=" ">
<polygon fill="white" stroke="black" points="140.5,-0.5 140.5,-19.5 259.5,-19.5 259.5,-0.5 140.5,-0.5"/>
<text text-anchor="middle" x="200" y="-7.5" font-family="Helvetica,sans-Serif" font-size="10.00">OMSimSNdetector.cc</text>
</a>
</g>
</g>
<!-- Node1&#45;&gt;Node3 -->
<g id="edge2" class="edge">
<title>Node1&#45;&gt;Node3</title>
<path fill="none" stroke="midnightblue" d="M149.31,-50.1C161.91,-40.38 177.93,-28.03 188.55,-19.83"/>
<polygon fill="midnightblue" stroke="midnightblue" points="147.03,-47.44 141.25,-56.32 151.3,-52.99 147.03,-47.44"/>
</g>
</g>
</svg>
