<?xml version="1.0" encoding="UTF-8" standalone="no"?>
<!DOCTYPE svg PUBLIC "-//W3C//DTD SVG 1.1//EN"
 "http://www.w3.org/Graphics/SVG/1.1/DTD/svg11.dtd">
<!-- Generated by graphviz version 2.43.0 (0)
 -->
<!-- Title: OMSimRadDecaysDetector.cc Pages: 1 -->
<svg width="1408pt" height="498pt"
 viewBox="0.00 0.00 1407.50 498.00" xmlns="http://www.w3.org/2000/svg" xmlns:xlink="http://www.w3.org/1999/xlink">
<g id="graph0" class="graph" transform="scale(1 1) rotate(0) translate(4 494)">
<title>OMSimRadDecaysDetector.cc</title>
<polygon fill="white" stroke="transparent" points="-4,4 -4,-494 1403.5,-494 1403.5,4 -4,4"/>
<!-- Node1 -->
<g id="node1" class="node">
<title>Node1</title>
<g id="a_node1"><a xlink:title=" ">
<polygon fill="#bfbfbf" stroke="black" points="796,-470.5 796,-489.5 957,-489.5 957,-470.5 796,-470.5"/>
<text text-anchor="middle" x="876.5" y="-477.5" font-family="Helvetica,sans-Serif" font-size="10.00">OMSimRadDecaysDetector.cc</text>
</a>
</g>
</g>
<!-- Node2 -->
<g id="node2" class="node">
<title>Node2</title>
<g id="a_node2"><a xlink:href="_o_m_sim_rad_decays_detector_8hh.html" target="_top" xlink:title="Defines the OMSimRadDecaysDetector class for the radioactive decays simulation.">
<polygon fill="white" stroke="black" points="256,-414.5 256,-433.5 419,-433.5 419,-414.5 256,-414.5"/>
<text text-anchor="middle" x="337.5" y="-421.5" font-family="Helvetica,sans-Serif" font-size="10.00">OMSimRadDecaysDetector.hh</text>
</a>
</g>
</g>
<!-- Node1&#45;&gt;Node2 -->
<g id="edge1" class="edge">
<title>Node1&#45;&gt;Node2</title>
<path fill="none" stroke="midnightblue" d="M795.81,-470.92C697.61,-461.08 532.21,-444.51 429.26,-434.19"/>
<polygon fill="midnightblue" stroke="midnightblue" points="429.49,-430.7 419.19,-433.18 428.79,-437.66 429.49,-430.7"/>
</g>
<!-- Node18 -->
<g id="node18" class="node">
<title>Node18</title>
<g id="a_node18"><a xlink:href="_o_m_sim_hit_manager_8hh.html" target="_top" xlink:title="Defines structures and classes related to optical module photon hit management.">
<polygon fill="white" stroke="black" points="875,-246.5 875,-265.5 998,-265.5 998,-246.5 875,-246.5"/>
<text text-anchor="middle" x="936.5" y="-253.5" font-family="Helvetica,sans-Serif" font-size="10.00">OMSimHitManager.hh</text>
</a>
</g>
</g>
<!-- Node1&#45;&gt;Node18 -->
<g id="edge70" class="edge">
<title>Node1&#45;&gt;Node18</title>
<path fill="none" stroke="midnightblue" d="M890.55,-470.2C922.33,-449.28 998.84,-392.98 1022.5,-322 1025.31,-313.57 1027.1,-309.6 1022.5,-302 1013.09,-286.46 996.35,-276.02 980.12,-269.15"/>
<polygon fill="midnightblue" stroke="midnightblue" points="981.27,-265.85 970.68,-265.51 978.75,-272.37 981.27,-265.85"/>
</g>
<!-- Node24 -->
<g id="node24" class="node">
<title>Node24</title>
<g id="a_node24"><a xlink:href="_o_m_sim_sensitive_detector_8hh.html" target="_top" xlink:title=" ">
<polygon fill="white" stroke="black" points="913,-190.5 913,-209.5 1066,-209.5 1066,-190.5 913,-190.5"/>
<text text-anchor="middle" x="989.5" y="-197.5" font-family="Helvetica,sans-Serif" font-size="10.00">OMSimSensitiveDetector.hh</text>
</a>
</g>
</g>
<!-- Node1&#45;&gt;Node24 -->
<g id="edge72" class="edge">
<title>Node1&#45;&gt;Node24</title>
<path fill="none" stroke="midnightblue" d="M944.66,-470.5C1003.63,-458.87 1079.5,-431.73 1079.5,-369 1079.5,-369 1079.5,-369 1079.5,-311 1079.5,-268.66 1039.06,-233.66 1012.4,-215.18"/>
<polygon fill="midnightblue" stroke="midnightblue" points="1014.22,-212.19 1003.96,-209.56 1010.34,-218.02 1014.22,-212.19"/>
</g>
<!-- Node35 -->
<g id="node35" class="node">
<title>Node35</title>
<g id="a_node35"><a xlink:href="_o_m_sim_m_d_o_m_8hh.html" target="_top" xlink:title="Construction of mDOM.">
<polygon fill="white" stroke="black" points="365.5,-358.5 365.5,-377.5 465.5,-377.5 465.5,-358.5 365.5,-358.5"/>
<text text-anchor="middle" x="415.5" y="-365.5" font-family="Helvetica,sans-Serif" font-size="10.00">OMSimMDOM.hh</text>
</a>
</g>
</g>
<!-- Node1&#45;&gt;Node35 -->
<g id="edge44" class="edge">
<title>Node1&#45;&gt;Node35</title>
<path fill="none" stroke="midnightblue" d="M835.16,-470.48C793.31,-461.74 726.76,-447.55 669.5,-434 594.49,-416.26 507.58,-393.55 457.33,-380.2"/>
<polygon fill="midnightblue" stroke="midnightblue" points="458.05,-376.77 447.48,-377.58 456.25,-383.54 458.05,-376.77"/>
</g>
<!-- Node38 -->
<g id="node38" class="node">
<title>Node38</title>
<g id="a_node38"><a xlink:href="_o_m_sim_p_d_o_m_8hh.html" target="_top" xlink:title="Implementation of the pDOM/Gen1 DOM class.">
<polygon fill="white" stroke="black" points="484,-358.5 484,-377.5 581,-377.5 581,-358.5 484,-358.5"/>
<text text-anchor="middle" x="532.5" y="-365.5" font-family="Helvetica,sans-Serif" font-size="10.00">OMSimPDOM.hh</text>
</a>
</g>
</g>
<!-- Node1&#45;&gt;Node38 -->
<g id="edge51" class="edge">
<title>Node1&#45;&gt;Node38</title>
<path fill="none" stroke="midnightblue" d="M849.79,-470.46C788.71,-450.93 638.71,-402.96 569.09,-380.7"/>
<polygon fill="midnightblue" stroke="midnightblue" points="570.02,-377.32 559.43,-377.61 567.89,-383.99 570.02,-377.32"/>
</g>
<!-- Node39 -->
<g id="node39" class="node">
<title>Node39</title>
<g id="a_node39"><a xlink:href="_o_m_sim_l_o_m16_8hh.html" target="_top" xlink:title="Construction of LOM16.">
<polygon fill="white" stroke="black" points="638,-358.5 638,-377.5 739,-377.5 739,-358.5 638,-358.5"/>
<text text-anchor="middle" x="688.5" y="-365.5" font-family="Helvetica,sans-Serif" font-size="10.00">OMSimLOM16.hh</text>
</a>
</g>
</g>
<!-- Node1&#45;&gt;Node39 -->
<g id="edge54" class="edge">
<title>Node1&#45;&gt;Node39</title>
<path fill="none" stroke="midnightblue" d="M861.75,-470.37C829.21,-451.33 751.08,-405.62 711.83,-382.65"/>
<polygon fill="midnightblue" stroke="midnightblue" points="713.58,-379.62 703.18,-377.59 710.05,-385.66 713.58,-379.62"/>
</g>
<!-- Node40 -->
<g id="node40" class="node">
<title>Node40</title>
<g id="a_node40"><a xlink:href="_o_m_sim_l_o_m18_8hh.html" target="_top" xlink:title="Construction of LOM18.">
<polygon fill="white" stroke="black" points="870,-358.5 870,-377.5 971,-377.5 971,-358.5 870,-358.5"/>
<text text-anchor="middle" x="920.5" y="-365.5" font-family="Helvetica,sans-Serif" font-size="10.00">OMSimLOM18.hh</text>
</a>
</g>
</g>
<!-- Node1&#45;&gt;Node40 -->
<g id="edge57" class="edge">
<title>Node1&#45;&gt;Node40</title>
<path fill="none" stroke="midnightblue" d="M879.95,-470.37C887.12,-452.46 903.73,-410.92 913.32,-386.95"/>
<polygon fill="midnightblue" stroke="midnightblue" points="916.6,-388.18 917.06,-377.59 910.1,-385.58 916.6,-388.18"/>
</g>
<!-- Node43 -->
<g id="node43" class="node">
<title>Node43</title>
<g id="a_node43"><a xlink:href="_o_m_sim_d_e_g_g_8hh.html" target="_top" xlink:title="Construction of the DEGG class.">
<polygon fill="white" stroke="black" points="757,-358.5 757,-377.5 852,-377.5 852,-358.5 757,-358.5"/>
<text text-anchor="middle" x="804.5" y="-365.5" font-family="Helvetica,sans-Serif" font-size="10.00">OMSimDEGG.hh</text>
</a>
</g>
</g>
<!-- Node1&#45;&gt;Node43 -->
<g id="edge62" class="edge">
<title>Node1&#45;&gt;Node43</title>
<path fill="none" stroke="midnightblue" d="M870.85,-470.37C858.97,-452.22 831.21,-409.8 815.62,-385.99"/>
<polygon fill="midnightblue" stroke="midnightblue" points="818.53,-384.04 810.12,-377.59 812.67,-387.88 818.53,-384.04"/>
</g>
<!-- Node44 -->
<g id="node44" class="node">
<title>Node44</title>
<g id="a_node44"><a xlink:href="_o_m_sim_command_args_table_8hh.html" target="_top" xlink:title="Definition of the OMSimCommandArgsTable singleton class, which controls user args.">
<polygon fill="white" stroke="black" points="1119.5,-246.5 1119.5,-265.5 1283.5,-265.5 1283.5,-246.5 1119.5,-246.5"/>
<text text-anchor="middle" x="1201.5" y="-253.5" font-family="Helvetica,sans-Serif" font-size="10.00">OMSimCommandArgsTable.hh</text>
</a>
</g>
</g>
<!-- Node1&#45;&gt;Node44 -->
<g id="edge65" class="edge">
<title>Node1&#45;&gt;Node44</title>
<path fill="none" stroke="midnightblue" d="M947.35,-470.49C1001.33,-462.88 1070.22,-450.4 1093.5,-434 1150.84,-393.61 1183.46,-312.17 1195.77,-275.56"/>
<polygon fill="midnightblue" stroke="midnightblue" points="1199.2,-276.33 1198.95,-265.74 1192.54,-274.18 1199.2,-276.33"/>
</g>
<!-- Node47 -->
<g id="node47" class="node">
<title>Node47</title>
<g id="a_node47"><a xlink:title=" ">
<polygon fill="white" stroke="#bfbfbf" points="1146,-414.5 1146,-433.5 1247,-433.5 1247,-414.5 1146,-414.5"/>
<text text-anchor="middle" x="1196.5" y="-421.5" font-family="Helvetica,sans-Serif" font-size="10.00">G4SDManager.hh</text>
</a>
</g>
</g>
<!-- Node1&#45;&gt;Node47 -->
<g id="edge71" class="edge">
<title>Node1&#45;&gt;Node47</title>
<path fill="none" stroke="midnightblue" d="M927.2,-470.44C983.85,-460.89 1075.5,-445.42 1135.88,-435.23"/>
<polygon fill="midnightblue" stroke="midnightblue" points="1136.75,-438.63 1146.03,-433.52 1135.59,-431.73 1136.75,-438.63"/>
</g>
<!-- Node3 -->
<g id="node3" class="node">
<title>Node3</title>
<g id="a_node3"><a xlink:href="_o_m_sim_optical_module_8hh.html" target="_top" xlink:title=" ">
<polygon fill="white" stroke="black" points="520,-302.5 520,-321.5 657,-321.5 657,-302.5 520,-302.5"/>
<text text-anchor="middle" x="588.5" y="-309.5" font-family="Helvetica,sans-Serif" font-size="10.00">OMSimOpticalModule.hh</text>
</a>
</g>
</g>
<!-- Node2&#45;&gt;Node3 -->
<g id="edge2" class="edge">
<title>Node2&#45;&gt;Node3</title>
<path fill="none" stroke="midnightblue" d="M419.03,-419.55C484.45,-414.87 568.83,-403.86 590.5,-378 601.13,-365.31 598.93,-345.83 595.11,-331.51"/>
<polygon fill="midnightblue" stroke="midnightblue" points="598.38,-330.25 592.05,-321.75 591.7,-332.34 598.38,-330.25"/>
</g>
<!-- Node4 -->
<g id="node4" class="node">
<title>Node4</title>
<g id="a_node4"><a xlink:href="abc_detector_component_8hh.html" target="_top" xlink:title="Provides helper base class abcDetectorComponent for constructing and managing detector components in ...">
<polygon fill="white" stroke="black" points="264,-190.5 264,-209.5 411,-209.5 411,-190.5 264,-190.5"/>
<text text-anchor="middle" x="337.5" y="-197.5" font-family="Helvetica,sans-Serif" font-size="10.00">abcDetectorComponent.hh</text>
</a>
</g>
</g>
<!-- Node2&#45;&gt;Node4 -->
<g id="edge38" class="edge">
<title>Node2&#45;&gt;Node4</title>
<path fill="none" stroke="midnightblue" d="M337.5,-414.3C337.5,-381.63 337.5,-265.87 337.5,-219.96"/>
<polygon fill="midnightblue" stroke="midnightblue" points="341,-219.88 337.5,-209.88 334,-219.88 341,-219.88"/>
</g>
<!-- Node32 -->
<g id="node32" class="node">
<title>Node32</title>
<g id="a_node32"><a xlink:href="_o_m_sim_detector_construction_8hh.html" target="_top" xlink:title=" ">
<polygon fill="white" stroke="black" points="137.5,-358.5 137.5,-377.5 307.5,-377.5 307.5,-358.5 137.5,-358.5"/>
<text text-anchor="middle" x="222.5" y="-365.5" font-family="Helvetica,sans-Serif" font-size="10.00">OMSimDetectorConstruction.hh</text>
</a>
</g>
</g>
<!-- Node2&#45;&gt;Node32 -->
<g id="edge39" class="edge">
<title>Node2&#45;&gt;Node32</title>
<path fill="none" stroke="midnightblue" d="M319.28,-414.44C300.6,-405.68 271.34,-391.94 249.88,-381.86"/>
<polygon fill="midnightblue" stroke="midnightblue" points="251.18,-378.6 240.64,-377.52 248.2,-384.93 251.18,-378.6"/>
</g>
<!-- Node33 -->
<g id="node33" class="node">
<title>Node33</title>
<g id="a_node33"><a xlink:title=" ">
<polygon fill="white" stroke="#bfbfbf" points="51.5,-302.5 51.5,-321.5 113.5,-321.5 113.5,-302.5 51.5,-302.5"/>
<text text-anchor="middle" x="82.5" y="-309.5" font-family="Helvetica,sans-Serif" font-size="10.00">G4Orb.hh</text>
</a>
</g>
</g>
<!-- Node2&#45;&gt;Node33 -->
<g id="edge43" class="edge">
<title>Node2&#45;&gt;Node33</title>
<path fill="none" stroke="midnightblue" d="M255.96,-419.33C214.92,-414.2 166.06,-402.79 128.5,-378 111.06,-366.49 98.18,-345.92 90.56,-330.99"/>
<polygon fill="midnightblue" stroke="midnightblue" points="93.6,-329.25 86.12,-321.74 87.29,-332.27 93.6,-329.25"/>
</g>
<!-- Node3&#45;&gt;Node4 -->
<g id="edge3" class="edge">
<title>Node3&#45;&gt;Node4</title>
<path fill="none" stroke="midnightblue" d="M519.87,-304.53C482.07,-298.64 435.46,-287.4 398.5,-266 377.87,-254.06 359.98,-232.95 349.01,-218.04"/>
<polygon fill="midnightblue" stroke="midnightblue" points="351.73,-215.83 343.1,-209.69 346.02,-219.87 351.73,-215.83"/>
</g>
<!-- Node3&#45;&gt;Node18 -->
<g id="edge17" class="edge">
<title>Node3&#45;&gt;Node18</title>
<path fill="none" stroke="midnightblue" d="M643.64,-302.44C705.49,-292.85 805.73,-277.29 871.39,-267.1"/>
<polygon fill="midnightblue" stroke="midnightblue" points="872.27,-270.51 881.62,-265.52 871.2,-263.59 872.27,-270.51"/>
</g>
<!-- Node29 -->
<g id="node29" class="node">
<title>Node29</title>
<g id="a_node29"><a xlink:href="_o_m_sim_p_m_t_construction_8hh.html" target="_top" xlink:title="Construction of the PMTs.">
<polygon fill="white" stroke="black" points="585,-246.5 585,-265.5 734,-265.5 734,-246.5 585,-246.5"/>
<text text-anchor="middle" x="659.5" y="-253.5" font-family="Helvetica,sans-Serif" font-size="10.00">OMSimPMTConstruction.hh</text>
</a>
</g>
</g>
<!-- Node3&#45;&gt;Node29 -->
<g id="edge32" class="edge">
<title>Node3&#45;&gt;Node29</title>
<path fill="none" stroke="midnightblue" d="M599.91,-302.32C610.61,-294.18 626.84,-281.84 639.66,-272.09"/>
<polygon fill="midnightblue" stroke="midnightblue" points="642.04,-274.67 647.89,-265.83 637.81,-269.1 642.04,-274.67"/>
</g>
<!-- Node5 -->
<g id="node5" class="node">
<title>Node5</title>
<g id="a_node5"><a xlink:href="_o_m_sim_input_data_8hh.html" target="_top" xlink:title="Definition of ParameterTable and InputDataManager.">
<polygon fill="white" stroke="black" points="524,-134.5 524,-153.5 639,-153.5 639,-134.5 524,-134.5"/>
<text text-anchor="middle" x="581.5" y="-141.5" font-family="Helvetica,sans-Serif" font-size="10.00">OMSimInputData.hh</text>
</a>
</g>
</g>
<!-- Node4&#45;&gt;Node5 -->
<g id="edge4" class="edge">
<title>Node4&#45;&gt;Node5</title>
<path fill="none" stroke="midnightblue" d="M376.16,-190.44C418.64,-181.04 486.93,-165.93 532.97,-155.74"/>
<polygon fill="midnightblue" stroke="midnightblue" points="534.01,-159.09 543.02,-153.52 532.5,-152.26 534.01,-159.09"/>
</g>
<!-- Node14 -->
<g id="node14" class="node">
<title>Node14</title>
<g id="a_node14"><a xlink:title=" ">
<polygon fill="white" stroke="#bfbfbf" points="272,-134.5 272,-153.5 379,-153.5 379,-134.5 272,-134.5"/>
<text text-anchor="middle" x="325.5" y="-141.5" font-family="Helvetica,sans-Serif" font-size="10.00">G4Transform3D.hh</text>
</a>
</g>
</g>
<!-- Node4&#45;&gt;Node14 -->
<g id="edge13" class="edge">
<title>Node4&#45;&gt;Node14</title>
<path fill="none" stroke="midnightblue" d="M335.52,-190.08C333.93,-182.93 331.64,-172.64 329.65,-163.69"/>
<polygon fill="midnightblue" stroke="midnightblue" points="333.03,-162.75 327.44,-153.75 326.2,-164.27 333.03,-162.75"/>
</g>
<!-- Node15 -->
<g id="node15" class="node">
<title>Node15</title>
<g id="a_node15"><a xlink:title=" ">
<polygon fill="white" stroke="#bfbfbf" points="397.5,-134.5 397.5,-153.5 505.5,-153.5 505.5,-134.5 397.5,-134.5"/>
<text text-anchor="middle" x="451.5" y="-141.5" font-family="Helvetica,sans-Serif" font-size="10.00">G4VisAttributes.hh</text>
</a>
</g>
</g>
<!-- Node4&#45;&gt;Node15 -->
<g id="edge14" class="edge">
<title>Node4&#45;&gt;Node15</title>
<path fill="none" stroke="midnightblue" d="M355.56,-190.44C374.07,-181.68 403.08,-167.94 424.36,-157.86"/>
<polygon fill="midnightblue" stroke="midnightblue" points="425.98,-160.96 433.52,-153.52 422.99,-154.63 425.98,-160.96"/>
</g>
<!-- Node16 -->
<g id="node16" class="node">
<title>Node16</title>
<g id="a_node16"><a xlink:title=" ">
<polygon fill="white" stroke="#bfbfbf" points="0,-134.5 0,-153.5 125,-153.5 125,-134.5 0,-134.5"/>
<text text-anchor="middle" x="62.5" y="-141.5" font-family="Helvetica,sans-Serif" font-size="10.00">G4SubtractionSolid.hh</text>
</a>
</g>
</g>
<!-- Node4&#45;&gt;Node16 -->
<g id="edge15" class="edge">
<title>Node4&#45;&gt;Node16</title>
<path fill="none" stroke="midnightblue" d="M293.93,-190.44C245.65,-180.96 167.79,-165.67 115.89,-155.48"/>
<polygon fill="midnightblue" stroke="midnightblue" points="116.36,-152.01 105.87,-153.52 115.01,-158.88 116.36,-152.01"/>
</g>
<!-- Node17 -->
<g id="node17" class="node">
<title>Node17</title>
<g id="a_node17"><a xlink:title=" ">
<polygon fill="white" stroke="#bfbfbf" points="143.5,-134.5 143.5,-153.5 253.5,-153.5 253.5,-134.5 143.5,-134.5"/>
<text text-anchor="middle" x="198.5" y="-141.5" font-family="Helvetica,sans-Serif" font-size="10.00">G4PVPlacement.hh</text>
</a>
</g>
</g>
<!-- Node4&#45;&gt;Node17 -->
<g id="edge16" class="edge">
<title>Node4&#45;&gt;Node17</title>
<path fill="none" stroke="midnightblue" d="M315.48,-190.44C292.4,-181.48 255.94,-167.31 229.86,-157.18"/>
<polygon fill="midnightblue" stroke="midnightblue" points="231.01,-153.88 220.42,-153.52 228.48,-160.4 231.01,-153.88"/>
</g>
<!-- Node6 -->
<g id="node6" class="node">
<title>Node6</title>
<g id="a_node6"><a xlink:href="_o_m_sim_logger_8hh.html" target="_top" xlink:title=" ">
<polygon fill="white" stroke="black" points="956,-73 956,-92 1055,-92 1055,-73 956,-73"/>
<text text-anchor="middle" x="1005.5" y="-80" font-family="Helvetica,sans-Serif" font-size="10.00">OMSimLogger.hh</text>
</a>
</g>
</g>
<!-- Node5&#45;&gt;Node6 -->
<g id="edge5" class="edge">
<title>Node5&#45;&gt;Node6</title>
<path fill="none" stroke="midnightblue" d="M639.24,-135.19C642.37,-134.79 645.47,-134.39 648.5,-134 780.84,-117.12 815.26,-121.96 946.5,-98 952.08,-96.98 957.91,-95.75 963.65,-94.44"/>
<polygon fill="midnightblue" stroke="midnightblue" points="964.89,-97.75 973.81,-92.03 963.27,-90.94 964.89,-97.75"/>
</g>
<!-- Node11 -->
<g id="node11" class="node">
<title>Node11</title>
<g id="a_node11"><a xlink:title=" ">
<polygon fill="white" stroke="#bfbfbf" points="510,-73 510,-92 653,-92 653,-73 510,-73"/>
<text text-anchor="middle" x="581.5" y="-80" font-family="Helvetica,sans-Serif" font-size="10.00">G4OpBoundaryProcess.hh</text>
</a>
</g>
</g>
<!-- Node5&#45;&gt;Node11 -->
<g id="edge10" class="edge">
<title>Node5&#45;&gt;Node11</title>
<path fill="none" stroke="midnightblue" d="M581.5,-134.48C581.5,-126.08 581.5,-112.98 581.5,-102.16"/>
<polygon fill="midnightblue" stroke="midnightblue" points="585,-102.01 581.5,-92.01 578,-102.01 585,-102.01"/>
</g>
<!-- Node12 -->
<g id="node12" class="node">
<title>Node12</title>
<g id="a_node12"><a xlink:title=" ">
<polygon fill="white" stroke="#bfbfbf" points="671,-73 671,-92 790,-92 790,-73 671,-73"/>
<text text-anchor="middle" x="730.5" y="-80" font-family="Helvetica,sans-Serif" font-size="10.00">G4SystemOfUnits.hh</text>
</a>
</g>
</g>
<!-- Node5&#45;&gt;Node12 -->
<g id="edge11" class="edge">
<title>Node5&#45;&gt;Node12</title>
<path fill="none" stroke="midnightblue" d="M602.85,-134.48C628.19,-124.36 670.64,-107.4 699.57,-95.85"/>
<polygon fill="midnightblue" stroke="midnightblue" points="701.2,-98.97 709.19,-92.01 698.61,-92.47 701.2,-98.97"/>
</g>
<!-- Node13 -->
<g id="node13" class="node">
<title>Node13</title>
<g id="a_node13"><a xlink:title=" ">
<polygon fill="white" stroke="#bfbfbf" points="379,-67.5 379,-97.5 492,-97.5 492,-67.5 379,-67.5"/>
<text text-anchor="start" x="387" y="-85.5" font-family="Helvetica,sans-Serif" font-size="10.00">boost/property_tree</text>
<text text-anchor="middle" x="435.5" y="-74.5" font-family="Helvetica,sans-Serif" font-size="10.00">/json_parser.hpp</text>
</a>
</g>
</g>
<!-- Node5&#45;&gt;Node13 -->
<g id="edge12" class="edge">
<title>Node5&#45;&gt;Node13</title>
<path fill="none" stroke="midnightblue" d="M560.58,-134.48C539.51,-125.89 506.37,-112.38 479.49,-101.43"/>
<polygon fill="midnightblue" stroke="midnightblue" points="480.49,-98.06 469.91,-97.52 477.85,-104.54 480.49,-98.06"/>
</g>
<!-- Node7 -->
<g id="node7" class="node">
<title>Node7</title>
<g id="a_node7"><a xlink:title=" ">
<polygon fill="white" stroke="#bfbfbf" points="787,-6 787,-25 880,-25 880,-6 787,-6"/>
<text text-anchor="middle" x="833.5" y="-13" font-family="Helvetica,sans-Serif" font-size="10.00">spdlog/spdlog.h</text>
</a>
</g>
</g>
<!-- Node6&#45;&gt;Node7 -->
<g id="edge6" class="edge">
<title>Node6&#45;&gt;Node7</title>
<path fill="none" stroke="midnightblue" d="M982.66,-72.87C952.63,-61.52 899.72,-41.52 865.66,-28.65"/>
<polygon fill="midnightblue" stroke="midnightblue" points="866.75,-25.32 856.16,-25.06 864.28,-31.87 866.75,-25.32"/>
</g>
<!-- Node8 -->
<g id="node8" class="node">
<title>Node8</title>
<g id="a_node8"><a xlink:title=" ">
<polygon fill="white" stroke="#bfbfbf" points="898,-0.5 898,-30.5 1009,-30.5 1009,-0.5 898,-0.5"/>
<text text-anchor="start" x="906" y="-18.5" font-family="Helvetica,sans-Serif" font-size="10.00">spdlog/sinks/stdout</text>
<text text-anchor="middle" x="953.5" y="-7.5" font-family="Helvetica,sans-Serif" font-size="10.00">_color_sinks.h</text>
</a>
</g>
</g>
<!-- Node6&#45;&gt;Node8 -->
<g id="edge7" class="edge">
<title>Node6&#45;&gt;Node8</title>
<path fill="none" stroke="midnightblue" d="M998.49,-72.73C991.53,-64.03 980.58,-50.34 971.22,-38.65"/>
<polygon fill="midnightblue" stroke="midnightblue" points="973.75,-36.21 964.77,-30.59 968.29,-40.58 973.75,-36.21"/>
</g>
<!-- Node9 -->
<g id="node9" class="node">
<title>Node9</title>
<g id="a_node9"><a xlink:title=" ">
<polygon fill="white" stroke="#bfbfbf" points="1027.5,-6 1027.5,-25 1085.5,-25 1085.5,-6 1027.5,-6"/>
<text text-anchor="middle" x="1056.5" y="-13" font-family="Helvetica,sans-Serif" font-size="10.00">memory</text>
</a>
</g>
</g>
<!-- Node6&#45;&gt;Node9 -->
<g id="edge8" class="edge">
<title>Node6&#45;&gt;Node9</title>
<path fill="none" stroke="midnightblue" d="M1012.38,-72.73C1020.33,-62.6 1033.6,-45.69 1043.51,-33.06"/>
<polygon fill="midnightblue" stroke="midnightblue" points="1046.31,-35.16 1049.73,-25.13 1040.8,-30.83 1046.31,-35.16"/>
</g>
<!-- Node10 -->
<g id="node10" class="node">
<title>Node10</title>
<g id="a_node10"><a xlink:title=" ">
<polygon fill="white" stroke="#bfbfbf" points="1103.5,-6 1103.5,-25 1201.5,-25 1201.5,-6 1103.5,-6"/>
<text text-anchor="middle" x="1152.5" y="-13" font-family="Helvetica,sans-Serif" font-size="10.00">spdlog/fmt/fmt.h</text>
</a>
</g>
</g>
<!-- Node6&#45;&gt;Node10 -->
<g id="edge9" class="edge">
<title>Node6&#45;&gt;Node10</title>
<path fill="none" stroke="midnightblue" d="M1025.02,-72.87C1050.28,-61.7 1094.5,-42.15 1123.64,-29.26"/>
<polygon fill="midnightblue" stroke="midnightblue" points="1125.17,-32.41 1132.9,-25.17 1122.34,-26.01 1125.17,-32.41"/>
</g>
<!-- Node19 -->
<g id="node19" class="node">
<title>Node19</title>
<g id="a_node19"><a xlink:href="_o_m_sim_p_m_t_response_8hh.html" target="_top" xlink:title="Provides simulation for PMT response. This class is responsible for transforming hits on photocathode...">
<polygon fill="white" stroke="black" points="817,-134.5 817,-153.5 952,-153.5 952,-134.5 817,-134.5"/>
<text text-anchor="middle" x="884.5" y="-141.5" font-family="Helvetica,sans-Serif" font-size="10.00">OMSimPMTResponse.hh</text>
</a>
</g>
</g>
<!-- Node18&#45;&gt;Node19 -->
<g id="edge18" class="edge">
<title>Node18&#45;&gt;Node19</title>
<path fill="none" stroke="midnightblue" d="M928.97,-246.24C921.82,-237.54 911.2,-223.58 904.5,-210 897.15,-195.11 891.84,-176.97 888.55,-163.63"/>
<polygon fill="midnightblue" stroke="midnightblue" points="891.92,-162.7 886.26,-153.75 885.11,-164.28 891.92,-162.7"/>
</g>
<!-- Node18&#45;&gt;Node24 -->
<g id="edge24" class="edge">
<title>Node18&#45;&gt;Node24</title>
<path fill="none" stroke="midnightblue" d="M945.25,-246.08C952.97,-238.22 964.4,-226.57 973.72,-217.08"/>
<polygon fill="midnightblue" stroke="midnightblue" points="976.4,-219.34 980.91,-209.75 971.41,-214.44 976.4,-219.34"/>
</g>
<!-- Node26 -->
<g id="node26" class="node">
<title>Node26</title>
<g id="a_node26"><a xlink:title=" ">
<polygon fill="white" stroke="#bfbfbf" points="657,-134.5 657,-153.5 760,-153.5 760,-134.5 657,-134.5"/>
<text text-anchor="middle" x="708.5" y="-141.5" font-family="Helvetica,sans-Serif" font-size="10.00">G4ThreeVector.hh</text>
</a>
</g>
</g>
<!-- Node18&#45;&gt;Node26 -->
<g id="edge30" class="edge">
<title>Node18&#45;&gt;Node26</title>
<path fill="none" stroke="midnightblue" d="M918.61,-246.37C878.82,-227.17 782.79,-180.84 735.6,-158.07"/>
<polygon fill="midnightblue" stroke="midnightblue" points="736.84,-154.78 726.31,-153.59 733.79,-161.09 736.84,-154.78"/>
</g>
<!-- Node28 -->
<g id="node28" class="node">
<title>Node28</title>
<g id="a_node28"><a xlink:title=" ">
<polygon fill="white" stroke="#bfbfbf" points="1101,-190.5 1101,-209.5 1156,-209.5 1156,-190.5 1101,-190.5"/>
<text text-anchor="middle" x="1128.5" y="-197.5" font-family="Helvetica,sans-Serif" font-size="10.00">fstream</text>
</a>
</g>
</g>
<!-- Node18&#45;&gt;Node28 -->
<g id="edge31" class="edge">
<title>Node18&#45;&gt;Node28</title>
<path fill="none" stroke="midnightblue" d="M966.92,-246.44C1000.56,-236.98 1054.77,-221.74 1091,-211.55"/>
<polygon fill="midnightblue" stroke="midnightblue" points="1092.03,-214.89 1100.71,-208.82 1090.14,-208.15 1092.03,-214.89"/>
</g>
<!-- Node19&#45;&gt;Node12 -->
<g id="edge19" class="edge">
<title>Node19&#45;&gt;Node12</title>
<path fill="none" stroke="midnightblue" d="M862.44,-134.48C836.13,-124.31 791.99,-107.26 762.08,-95.7"/>
<polygon fill="midnightblue" stroke="midnightblue" points="763.11,-92.35 752.52,-92.01 760.59,-98.88 763.11,-92.35"/>
</g>
<!-- Node20 -->
<g id="node20" class="node">
<title>Node20</title>
<g id="a_node20"><a xlink:title=" ">
<polygon fill="white" stroke="#bfbfbf" points="808,-73 808,-92 881,-92 881,-73 808,-73"/>
<text text-anchor="middle" x="844.5" y="-80" font-family="Helvetica,sans-Serif" font-size="10.00">G4Types.hh</text>
</a>
</g>
</g>
<!-- Node19&#45;&gt;Node20 -->
<g id="edge20" class="edge">
<title>Node19&#45;&gt;Node20</title>
<path fill="none" stroke="midnightblue" d="M878.77,-134.48C872.83,-125.64 863.38,-111.59 855.91,-100.48"/>
<polygon fill="midnightblue" stroke="midnightblue" points="858.7,-98.36 850.22,-92.01 852.89,-102.26 858.7,-98.36"/>
</g>
<!-- Node21 -->
<g id="node21" class="node">
<title>Node21</title>
<g id="a_node21"><a xlink:title=" ">
<polygon fill="white" stroke="#bfbfbf" points="899.5,-73 899.5,-92 937.5,-92 937.5,-73 899.5,-73"/>
<text text-anchor="middle" x="918.5" y="-80" font-family="Helvetica,sans-Serif" font-size="10.00">map</text>
</a>
</g>
</g>
<!-- Node19&#45;&gt;Node21 -->
<g id="edge21" class="edge">
<title>Node19&#45;&gt;Node21</title>
<path fill="none" stroke="midnightblue" d="M889.37,-134.48C894.37,-125.73 902.29,-111.87 908.61,-100.81"/>
<polygon fill="midnightblue" stroke="midnightblue" points="911.72,-102.43 913.64,-92.01 905.64,-98.96 911.72,-102.43"/>
</g>
<!-- Node22 -->
<g id="node22" class="node">
<title>Node22</title>
<g id="a_node22"><a xlink:title=" ">
<polygon fill="white" stroke="#bfbfbf" points="1144,-73 1144,-92 1205,-92 1205,-73 1144,-73"/>
<text text-anchor="middle" x="1174.5" y="-80" font-family="Helvetica,sans-Serif" font-size="10.00">TGraph.h</text>
</a>
</g>
</g>
<!-- Node19&#45;&gt;Node22 -->
<g id="edge22" class="edge">
<title>Node19&#45;&gt;Node22</title>
<path fill="none" stroke="midnightblue" d="M950.22,-134.5C1001.28,-127.11 1073.58,-114.92 1135.5,-98 1138.31,-97.23 1141.2,-96.35 1144.08,-95.4"/>
<polygon fill="midnightblue" stroke="midnightblue" points="1145.4,-98.64 1153.67,-92.02 1143.08,-92.04 1145.4,-98.64"/>
</g>
<!-- Node23 -->
<g id="node23" class="node">
<title>Node23</title>
<g id="a_node23"><a xlink:title=" ">
<polygon fill="white" stroke="#bfbfbf" points="1073,-73 1073,-92 1126,-92 1126,-73 1073,-73"/>
<text text-anchor="middle" x="1099.5" y="-80" font-family="Helvetica,sans-Serif" font-size="10.00">TH2D.h</text>
</a>
</g>
</g>
<!-- Node19&#45;&gt;Node23 -->
<g id="edge23" class="edge">
<title>Node19&#45;&gt;Node23</title>
<path fill="none" stroke="midnightblue" d="M926.1,-134.43C962.91,-126.42 1017.85,-113.4 1064.5,-98 1066.42,-97.37 1068.38,-96.68 1070.35,-95.95"/>
<polygon fill="midnightblue" stroke="midnightblue" points="1072.03,-99.05 1080.07,-92.15 1069.48,-92.53 1072.03,-99.05"/>
</g>
<!-- Node24&#45;&gt;Node11 -->
<g id="edge28" class="edge">
<title>Node24&#45;&gt;Node11</title>
<path fill="none" stroke="midnightblue" d="M942.86,-190.49C905.77,-182.99 852.92,-170.66 808.5,-154 790.26,-147.16 787.67,-141.01 769.5,-134 724.64,-116.69 671.57,-103.03 633.27,-94.3"/>
<polygon fill="midnightblue" stroke="midnightblue" points="633.9,-90.85 623.38,-92.08 632.37,-97.68 633.9,-90.85"/>
</g>
<!-- Node24&#45;&gt;Node19 -->
<g id="edge27" class="edge">
<title>Node24&#45;&gt;Node19</title>
<path fill="none" stroke="midnightblue" d="M972.63,-190.32C955.79,-181.66 929.69,-168.24 910.26,-158.25"/>
<polygon fill="midnightblue" stroke="midnightblue" points="911.82,-155.12 901.33,-153.65 908.62,-161.34 911.82,-155.12"/>
</g>
<!-- Node25 -->
<g id="node25" class="node">
<title>Node25</title>
<g id="a_node25"><a xlink:title=" ">
<polygon fill="white" stroke="#bfbfbf" points="1035.5,-134.5 1035.5,-153.5 1173.5,-153.5 1173.5,-134.5 1035.5,-134.5"/>
<text text-anchor="middle" x="1104.5" y="-141.5" font-family="Helvetica,sans-Serif" font-size="10.00">G4VSensitiveDetector.hh</text>
</a>
</g>
</g>
<!-- Node24&#45;&gt;Node25 -->
<g id="edge25" class="edge">
<title>Node24&#45;&gt;Node25</title>
<path fill="none" stroke="midnightblue" d="M1007.72,-190.44C1026.4,-181.68 1055.66,-167.94 1077.12,-157.86"/>
<polygon fill="midnightblue" stroke="midnightblue" points="1078.8,-160.93 1086.36,-153.52 1075.82,-154.6 1078.8,-160.93"/>
</g>
<!-- Node24&#45;&gt;Node26 -->
<g id="edge26" class="edge">
<title>Node24&#45;&gt;Node26</title>
<path fill="none" stroke="midnightblue" d="M944.97,-190.44C895.54,-180.94 815.75,-165.61 762.72,-155.42"/>
<polygon fill="midnightblue" stroke="midnightblue" points="763.3,-151.97 752.82,-153.52 761.98,-158.84 763.3,-151.97"/>
</g>
<!-- Node27 -->
<g id="node27" class="node">
<title>Node27</title>
<g id="a_node27"><a xlink:title=" ">
<polygon fill="white" stroke="#bfbfbf" points="970,-134.5 970,-153.5 1017,-153.5 1017,-134.5 970,-134.5"/>
<text text-anchor="middle" x="993.5" y="-141.5" font-family="Helvetica,sans-Serif" font-size="10.00">vector</text>
</a>
</g>
</g>
<!-- Node24&#45;&gt;Node27 -->
<g id="edge29" class="edge">
<title>Node24&#45;&gt;Node27</title>
<path fill="none" stroke="midnightblue" d="M990.16,-190.08C990.68,-183.01 991.44,-172.86 992.09,-163.99"/>
<polygon fill="midnightblue" stroke="midnightblue" points="995.6,-163.98 992.85,-153.75 988.62,-163.47 995.6,-163.98"/>
</g>
<!-- Node29&#45;&gt;Node4 -->
<g id="edge33" class="edge">
<title>Node29&#45;&gt;Node4</title>
<path fill="none" stroke="midnightblue" d="M608.48,-246.44C551.48,-236.89 459.26,-221.42 398.5,-211.23"/>
<polygon fill="midnightblue" stroke="midnightblue" points="398.72,-207.72 388.28,-209.52 397.57,-214.62 398.72,-207.72"/>
</g>
<!-- Node29&#45;&gt;Node19 -->
<g id="edge35" class="edge">
<title>Node29&#45;&gt;Node19</title>
<path fill="none" stroke="midnightblue" d="M677.16,-246.37C716.42,-227.17 811.19,-180.84 857.76,-158.07"/>
<polygon fill="midnightblue" stroke="midnightblue" points="859.48,-161.13 866.93,-153.59 856.41,-154.84 859.48,-161.13"/>
</g>
<!-- Node29&#45;&gt;Node29 -->
<g id="edge34" class="edge">
<title>Node29&#45;&gt;Node29</title>
<path fill="none" stroke="midnightblue" d="M698.95,-265.53C725.76,-268.31 752,-265.13 752,-256 752,-248.01 731.91,-244.58 708.93,-245.71"/>
<polygon fill="midnightblue" stroke="midnightblue" points="708.65,-242.22 698.95,-246.47 709.19,-249.2 708.65,-242.22"/>
</g>
<!-- Node30 -->
<g id="node30" class="node">
<title>Node30</title>
<g id="a_node30"><a xlink:title=" ">
<polygon fill="white" stroke="#bfbfbf" points="539.5,-190.5 539.5,-209.5 637.5,-209.5 637.5,-190.5 539.5,-190.5"/>
<text text-anchor="middle" x="588.5" y="-197.5" font-family="Helvetica,sans-Serif" font-size="10.00">G4UnionSolid.hh</text>
</a>
</g>
</g>
<!-- Node29&#45;&gt;Node30 -->
<g id="edge36" class="edge">
<title>Node29&#45;&gt;Node30</title>
<path fill="none" stroke="midnightblue" d="M648.09,-246.32C637.39,-238.18 621.16,-225.84 608.34,-216.09"/>
<polygon fill="midnightblue" stroke="midnightblue" points="610.19,-213.1 600.11,-209.83 605.96,-218.67 610.19,-213.1"/>
</g>
<!-- Node31 -->
<g id="node31" class="node">
<title>Node31</title>
<g id="a_node31"><a xlink:title=" ">
<polygon fill="white" stroke="#bfbfbf" points="656,-190.5 656,-209.5 723,-209.5 723,-190.5 656,-190.5"/>
<text text-anchor="middle" x="689.5" y="-197.5" font-family="Helvetica,sans-Serif" font-size="10.00">G4Tubs.hh</text>
</a>
</g>
</g>
<!-- Node29&#45;&gt;Node31 -->
<g id="edge37" class="edge">
<title>Node29&#45;&gt;Node31</title>
<path fill="none" stroke="midnightblue" d="M664.45,-246.08C668.6,-238.61 674.65,-227.72 679.77,-218.52"/>
<polygon fill="midnightblue" stroke="midnightblue" points="682.84,-220.19 684.64,-209.75 676.72,-216.79 682.84,-220.19"/>
</g>
<!-- Node32&#45;&gt;Node3 -->
<g id="edge40" class="edge">
<title>Node32&#45;&gt;Node3</title>
<path fill="none" stroke="midnightblue" d="M280.49,-358.44C345.81,-348.81 451.84,-333.16 520.87,-322.98"/>
<polygon fill="midnightblue" stroke="midnightblue" points="521.4,-326.44 530.78,-321.52 520.37,-319.51 521.4,-326.44"/>
</g>
<!-- Node32&#45;&gt;Node33 -->
<g id="edge41" class="edge">
<title>Node32&#45;&gt;Node33</title>
<path fill="none" stroke="midnightblue" d="M200.32,-358.44C177.07,-349.48 140.35,-335.31 114.08,-325.18"/>
<polygon fill="midnightblue" stroke="midnightblue" points="115.17,-321.85 104.58,-321.52 112.65,-328.38 115.17,-321.85"/>
</g>
<!-- Node34 -->
<g id="node34" class="node">
<title>Node34</title>
<g id="a_node34"><a xlink:title=" ">
<polygon fill="white" stroke="#bfbfbf" points="131.5,-302.5 131.5,-321.5 309.5,-321.5 309.5,-302.5 131.5,-302.5"/>
<text text-anchor="middle" x="220.5" y="-309.5" font-family="Helvetica,sans-Serif" font-size="10.00">G4VUserDetectorConstruction.hh</text>
</a>
</g>
</g>
<!-- Node32&#45;&gt;Node34 -->
<g id="edge42" class="edge">
<title>Node32&#45;&gt;Node34</title>
<path fill="none" stroke="midnightblue" d="M222.17,-358.08C221.91,-351.01 221.53,-340.86 221.2,-331.99"/>
<polygon fill="midnightblue" stroke="midnightblue" points="224.69,-331.61 220.82,-321.75 217.7,-331.87 224.69,-331.61"/>
</g>
<!-- Node35&#45;&gt;Node3 -->
<g id="edge50" class="edge">
<title>Node35&#45;&gt;Node3</title>
<path fill="none" stroke="midnightblue" d="M442.91,-358.44C472.27,-349.28 519.02,-334.69 551.6,-324.52"/>
<polygon fill="midnightblue" stroke="midnightblue" points="552.71,-327.84 561.22,-321.52 550.63,-321.16 552.71,-327.84"/>
</g>
<!-- Node35&#45;&gt;Node29 -->
<g id="edge49" class="edge">
<title>Node35&#45;&gt;Node29</title>
<path fill="none" stroke="midnightblue" d="M424.9,-358.13C440.07,-344.25 471.42,-317.41 502.5,-302 534.34,-286.21 572.63,-275.1 603.43,-267.86"/>
<polygon fill="midnightblue" stroke="midnightblue" points="604.59,-271.19 613.57,-265.56 603.04,-264.36 604.59,-271.19"/>
</g>
<!-- Node36 -->
<g id="node36" class="node">
<title>Node36</title>
<g id="a_node36"><a xlink:href="_o_m_sim_m_d_o_m_flasher_8hh.html" target="_top" xlink:title="Defines the mDOMFlasher class for simulating the 10 flashers in an mDOM optical module.">
<polygon fill="white" stroke="black" points="407,-246.5 407,-265.5 542,-265.5 542,-246.5 407,-246.5"/>
<text text-anchor="middle" x="474.5" y="-253.5" font-family="Helvetica,sans-Serif" font-size="10.00">OMSimMDOMFlasher.hh</text>
</a>
</g>
</g>
<!-- Node35&#45;&gt;Node36 -->
<g id="edge45" class="edge">
<title>Node35&#45;&gt;Node36</title>
<path fill="none" stroke="midnightblue" d="M417.81,-358.22C421.39,-345.37 428.98,-320.93 439.5,-302 445.14,-291.86 452.96,-281.56 459.77,-273.39"/>
<polygon fill="midnightblue" stroke="midnightblue" points="462.5,-275.58 466.38,-265.73 457.2,-271.01 462.5,-275.58"/>
</g>
<!-- Node36&#45;&gt;Node4 -->
<g id="edge46" class="edge">
<title>Node36&#45;&gt;Node4</title>
<path fill="none" stroke="midnightblue" d="M452.79,-246.44C430.15,-237.52 394.43,-223.44 368.75,-213.32"/>
<polygon fill="midnightblue" stroke="midnightblue" points="369.69,-209.93 359.11,-209.52 367.13,-216.44 369.69,-209.93"/>
</g>
<!-- Node36&#45;&gt;Node30 -->
<g id="edge47" class="edge">
<title>Node36&#45;&gt;Node30</title>
<path fill="none" stroke="midnightblue" d="M492.56,-246.44C511.07,-237.68 540.08,-223.94 561.36,-213.86"/>
<polygon fill="midnightblue" stroke="midnightblue" points="562.98,-216.96 570.52,-209.52 559.99,-210.63 562.98,-216.96"/>
</g>
<!-- Node37 -->
<g id="node37" class="node">
<title>Node37</title>
<g id="a_node37"><a xlink:title=" ">
<polygon fill="white" stroke="#bfbfbf" points="429.5,-190.5 429.5,-209.5 521.5,-209.5 521.5,-190.5 429.5,-190.5"/>
<text text-anchor="middle" x="475.5" y="-197.5" font-family="Helvetica,sans-Serif" font-size="10.00">G4Navigator.hh</text>
</a>
</g>
</g>
<!-- Node36&#45;&gt;Node37 -->
<g id="edge48" class="edge">
<title>Node36&#45;&gt;Node37</title>
<path fill="none" stroke="midnightblue" d="M474.67,-246.08C474.8,-239.01 474.98,-228.86 475.15,-219.99"/>
<polygon fill="midnightblue" stroke="midnightblue" points="478.65,-219.81 475.34,-209.75 471.65,-219.68 478.65,-219.81"/>
</g>
<!-- Node38&#45;&gt;Node3 -->
<g id="edge53" class="edge">
<title>Node38&#45;&gt;Node3</title>
<path fill="none" stroke="midnightblue" d="M541.5,-358.32C549.69,-350.42 562.01,-338.55 571.97,-328.94"/>
<polygon fill="midnightblue" stroke="midnightblue" points="574.57,-331.29 579.34,-321.83 569.71,-326.26 574.57,-331.29"/>
</g>
<!-- Node38&#45;&gt;Node29 -->
<g id="edge52" class="edge">
<title>Node38&#45;&gt;Node29</title>
<path fill="none" stroke="midnightblue" d="M525.03,-358.19C514.68,-344.88 498.65,-319.34 511.5,-302 526.54,-281.71 550.5,-270.25 574.8,-263.88"/>
<polygon fill="midnightblue" stroke="midnightblue" points="575.9,-267.22 584.84,-261.53 574.31,-260.4 575.9,-267.22"/>
</g>
<!-- Node39&#45;&gt;Node3 -->
<g id="edge56" class="edge">
<title>Node39&#45;&gt;Node3</title>
<path fill="none" stroke="midnightblue" d="M672.43,-358.32C656.54,-349.74 631.99,-336.49 613.54,-326.52"/>
<polygon fill="midnightblue" stroke="midnightblue" points="614.99,-323.33 604.53,-321.65 611.66,-329.49 614.99,-323.33"/>
</g>
<!-- Node39&#45;&gt;Node29 -->
<g id="edge55" class="edge">
<title>Node39&#45;&gt;Node29</title>
<path fill="none" stroke="midnightblue" d="M686.22,-358.37C681.52,-340.54 670.65,-299.3 664.32,-275.27"/>
<polygon fill="midnightblue" stroke="midnightblue" points="667.7,-274.37 661.77,-265.59 660.93,-276.15 667.7,-274.37"/>
</g>
<!-- Node40&#45;&gt;Node3 -->
<g id="edge59" class="edge">
<title>Node40&#45;&gt;Node3</title>
<path fill="none" stroke="midnightblue" d="M869.71,-358.74C811.04,-349.2 714.47,-333.49 651.17,-323.19"/>
<polygon fill="midnightblue" stroke="midnightblue" points="651.36,-319.68 640.92,-321.53 650.23,-326.59 651.36,-319.68"/>
</g>
<!-- Node40&#45;&gt;Node29 -->
<g id="edge58" class="edge">
<title>Node40&#45;&gt;Node29</title>
<path fill="none" stroke="midnightblue" d="M887.25,-358.42C858.43,-350.49 815.89,-337.6 780.5,-322 764.11,-314.78 761.22,-310.6 745.5,-302 725.6,-291.11 702.86,-279.24 685.76,-270.42"/>
<polygon fill="midnightblue" stroke="midnightblue" points="686.9,-267.07 676.41,-265.61 683.7,-273.3 686.9,-267.07"/>
</g>
<!-- Node41 -->
<g id="node41" class="node">
<title>Node41</title>
<g id="a_node41"><a xlink:title=" ">
<polygon fill="white" stroke="#bfbfbf" points="789.5,-302.5 789.5,-321.5 905.5,-321.5 905.5,-302.5 789.5,-302.5"/>
<text text-anchor="middle" x="847.5" y="-309.5" font-family="Helvetica,sans-Serif" font-size="10.00">G4LogicalVolume.hh</text>
</a>
</g>
</g>
<!-- Node40&#45;&gt;Node41 -->
<g id="edge60" class="edge">
<title>Node40&#45;&gt;Node41</title>
<path fill="none" stroke="midnightblue" d="M908.77,-358.32C897.66,-350.11 880.76,-337.6 867.52,-327.81"/>
<polygon fill="midnightblue" stroke="midnightblue" points="869.56,-324.97 859.44,-321.83 865.4,-330.59 869.56,-324.97"/>
</g>
<!-- Node42 -->
<g id="node42" class="node">
<title>Node42</title>
<g id="a_node42"><a xlink:title=" ">
<polygon fill="white" stroke="#bfbfbf" points="924,-302.5 924,-321.5 1013,-321.5 1013,-302.5 924,-302.5"/>
<text text-anchor="middle" x="968.5" y="-309.5" font-family="Helvetica,sans-Serif" font-size="10.00">G4Polycone.hh</text>
</a>
</g>
</g>
<!-- Node40&#45;&gt;Node42 -->
<g id="edge61" class="edge">
<title>Node40&#45;&gt;Node42</title>
<path fill="none" stroke="midnightblue" d="M928.43,-358.08C935.35,-350.3 945.57,-338.8 953.95,-329.37"/>
<polygon fill="midnightblue" stroke="midnightblue" points="956.69,-331.55 960.72,-321.75 951.46,-326.9 956.69,-331.55"/>
</g>
<!-- Node43&#45;&gt;Node3 -->
<g id="edge64" class="edge">
<title>Node43&#45;&gt;Node3</title>
<path fill="none" stroke="midnightblue" d="M770.27,-358.44C732.99,-349.12 673.23,-334.18 632.49,-324"/>
<polygon fill="midnightblue" stroke="midnightblue" points="633.12,-320.55 622.57,-321.52 631.42,-327.34 633.12,-320.55"/>
</g>
<!-- Node43&#45;&gt;Node29 -->
<g id="edge63" class="edge">
<title>Node43&#45;&gt;Node29</title>
<path fill="none" stroke="midnightblue" d="M793.12,-358.37C768.45,-339.65 709.79,-295.15 679.05,-271.83"/>
<polygon fill="midnightblue" stroke="midnightblue" points="680.91,-268.85 670.83,-265.59 676.68,-274.42 680.91,-268.85"/>
</g>
<!-- Node44&#45;&gt;Node6 -->
<g id="edge66" class="edge">
<title>Node44&#45;&gt;Node6</title>
<path fill="none" stroke="midnightblue" d="M1202.98,-246.39C1206.19,-224.6 1211.38,-166.65 1182.5,-134 1177.95,-128.85 1099.58,-107.82 1048.67,-94.57"/>
<polygon fill="midnightblue" stroke="midnightblue" points="1049.44,-91.16 1038.88,-92.04 1047.68,-97.93 1049.44,-91.16"/>
</g>
<!-- Node44&#45;&gt;Node28 -->
<g id="edge67" class="edge">
<title>Node44&#45;&gt;Node28</title>
<path fill="none" stroke="midnightblue" d="M1189.77,-246.32C1178.66,-238.11 1161.76,-225.6 1148.52,-215.81"/>
<polygon fill="midnightblue" stroke="midnightblue" points="1150.56,-212.97 1140.44,-209.83 1146.4,-218.59 1150.56,-212.97"/>
</g>
<!-- Node45 -->
<g id="node45" class="node">
<title>Node45</title>
<g id="a_node45"><a xlink:title=" ">
<polygon fill="white" stroke="#bfbfbf" points="1229.5,-190.5 1229.5,-209.5 1313.5,-209.5 1313.5,-190.5 1229.5,-190.5"/>
<text text-anchor="middle" x="1271.5" y="-197.5" font-family="Helvetica,sans-Serif" font-size="10.00">boost/any.hpp</text>
</a>
</g>
</g>
<!-- Node44&#45;&gt;Node45 -->
<g id="edge68" class="edge">
<title>Node44&#45;&gt;Node45</title>
<path fill="none" stroke="midnightblue" d="M1212.75,-246.32C1223.3,-238.18 1239.3,-225.84 1251.94,-216.09"/>
<polygon fill="midnightblue" stroke="midnightblue" points="1254.27,-218.71 1260.05,-209.83 1249.99,-213.17 1254.27,-218.71"/>
</g>
<!-- Node46 -->
<g id="node46" class="node">
<title>Node46</title>
<g id="a_node46"><a xlink:title=" ">
<polygon fill="white" stroke="#bfbfbf" points="1331.5,-190.5 1331.5,-209.5 1399.5,-209.5 1399.5,-190.5 1331.5,-190.5"/>
<text text-anchor="middle" x="1365.5" y="-197.5" font-family="Helvetica,sans-Serif" font-size="10.00">sys/time.h</text>
</a>
</g>
</g>
<!-- Node44&#45;&gt;Node46 -->
<g id="edge69" class="edge">
<title>Node44&#45;&gt;Node46</title>
<path fill="none" stroke="midnightblue" d="M1227.49,-246.44C1255.2,-237.32 1299.25,-222.81 1330.12,-212.65"/>
<polygon fill="midnightblue" stroke="midnightblue" points="1331.23,-215.97 1339.64,-209.52 1329.04,-209.32 1331.23,-215.97"/>
</g>
</g>
</svg>
