<?xml version="1.0" encoding="UTF-8" standalone="no"?>
<!DOCTYPE svg PUBLIC "-//W3C//DTD SVG 1.1//EN"
 "http://www.w3.org/Graphics/SVG/1.1/DTD/svg11.dtd">
<!-- Generated by graphviz version 2.43.0 (0)
 -->
<!-- Title: OMSimSNParticleGenerators.cc Pages: 1 -->
<svg width="1277pt" height="330pt"
 viewBox="0.00 0.00 1276.58 330.00" xmlns="http://www.w3.org/2000/svg" xmlns:xlink="http://www.w3.org/1999/xlink">
<g id="graph0" class="graph" transform="scale(1 1) rotate(0) translate(4 326)">
<title>OMSimSNParticleGenerators.cc</title>
<polygon fill="white" stroke="transparent" points="-4,4 -4,-326 1272.58,-326 1272.58,4 -4,4"/>
<!-- Node1 -->
<g id="node1" class="node">
<title>Node1</title>
<g id="a_node1"><a xlink:title=" ">
<polygon fill="#bfbfbf" stroke="black" points="501.58,-302.5 501.58,-321.5 670.58,-321.5 670.58,-302.5 501.58,-302.5"/>
<text text-anchor="middle" x="586.08" y="-309.5" font-family="Helvetica,sans-Serif" font-size="10.00">OMSimSNParticleGenerators.cc</text>
</a>
</g>
</g>
<!-- Node2 -->
<g id="node2" class="node">
<title>Node2</title>
<g id="a_node2"><a xlink:title=" ">
<polygon fill="white" stroke="#bfbfbf" points="173.58,-246.5 173.58,-265.5 358.58,-265.5 358.58,-246.5 173.58,-246.5"/>
<text text-anchor="middle" x="266.08" y="-253.5" font-family="Helvetica,sans-Serif" font-size="10.00">OMSimPrimaryGeneratorAction.hh</text>
</a>
</g>
</g>
<!-- Node1&#45;&gt;Node2 -->
<g id="edge1" class="edge">
<title>Node1&#45;&gt;Node2</title>
<path fill="none" stroke="midnightblue" d="M535.38,-302.44C478.73,-292.89 387.09,-277.42 326.7,-267.23"/>
<polygon fill="midnightblue" stroke="midnightblue" points="326.99,-263.73 316.55,-265.52 325.83,-270.63 326.99,-263.73"/>
</g>
<!-- Node3 -->
<g id="node3" class="node">
<title>Node3</title>
<g id="a_node3"><a xlink:href="_o_m_sim_s_n_analysis_8hh.html" target="_top" xlink:title=" ">
<polygon fill="white" stroke="black" points="377.08,-246.5 377.08,-265.5 499.08,-265.5 499.08,-246.5 377.08,-246.5"/>
<text text-anchor="middle" x="438.08" y="-253.5" font-family="Helvetica,sans-Serif" font-size="10.00">OMSimSNAnalysis.hh</text>
</a>
</g>
</g>
<!-- Node1&#45;&gt;Node3 -->
<g id="edge2" class="edge">
<title>Node1&#45;&gt;Node3</title>
<path fill="none" stroke="midnightblue" d="M562.63,-302.44C537.95,-293.44 498.9,-279.19 471.1,-269.05"/>
<polygon fill="midnightblue" stroke="midnightblue" points="472.02,-265.66 461.42,-265.52 469.62,-272.23 472.02,-265.66"/>
</g>
<!-- Node19 -->
<g id="node19" class="node">
<title>Node19</title>
<g id="a_node19"><a xlink:href="_o_m_sim_command_args_table_8hh.html" target="_top" xlink:title="Definition of the OMSimCommandArgsTable singleton class, which controls user args.">
<polygon fill="white" stroke="black" points="582.08,-190.5 582.08,-209.5 746.08,-209.5 746.08,-190.5 582.08,-190.5"/>
<text text-anchor="middle" x="664.08" y="-197.5" font-family="Helvetica,sans-Serif" font-size="10.00">OMSimCommandArgsTable.hh</text>
</a>
</g>
</g>
<!-- Node1&#45;&gt;Node19 -->
<g id="edge24" class="edge">
<title>Node1&#45;&gt;Node19</title>
<path fill="none" stroke="midnightblue" d="M579.35,-302.37C570.03,-289.28 555.57,-264.04 567.08,-246 577.28,-230.03 594.77,-219.64 612.12,-212.92"/>
<polygon fill="midnightblue" stroke="midnightblue" points="613.42,-216.17 621.69,-209.55 611.1,-209.56 613.42,-216.17"/>
</g>
<!-- Node27 -->
<g id="node27" class="node">
<title>Node27</title>
<g id="a_node27"><a xlink:title=" ">
<polygon fill="white" stroke="#bfbfbf" points="575.58,-246.5 575.58,-265.5 676.58,-265.5 676.58,-246.5 575.58,-246.5"/>
<text text-anchor="middle" x="626.08" y="-253.5" font-family="Helvetica,sans-Serif" font-size="10.00">G4ParticleGun.hh</text>
</a>
</g>
</g>
<!-- Node1&#45;&gt;Node27 -->
<g id="edge33" class="edge">
<title>Node1&#45;&gt;Node27</title>
<path fill="none" stroke="midnightblue" d="M592.69,-302.08C598.34,-294.46 606.63,-283.26 613.53,-273.94"/>
<polygon fill="midnightblue" stroke="midnightblue" points="616.46,-275.87 619.6,-265.75 610.83,-271.7 616.46,-275.87"/>
</g>
<!-- Node28 -->
<g id="node28" class="node">
<title>Node28</title>
<g id="a_node28"><a xlink:title=" ">
<polygon fill="white" stroke="#bfbfbf" points="694.58,-246.5 694.58,-265.5 801.58,-265.5 801.58,-246.5 694.58,-246.5"/>
<text text-anchor="middle" x="748.08" y="-253.5" font-family="Helvetica,sans-Serif" font-size="10.00">G4ParticleTable.hh</text>
</a>
</g>
</g>
<!-- Node1&#45;&gt;Node28 -->
<g id="edge34" class="edge">
<title>Node1&#45;&gt;Node28</title>
<path fill="none" stroke="midnightblue" d="M611.75,-302.44C639,-293.36 682.26,-278.94 712.73,-268.78"/>
<polygon fill="midnightblue" stroke="midnightblue" points="714.15,-272 722.53,-265.52 711.94,-265.36 714.15,-272"/>
</g>
<!-- Node29 -->
<g id="node29" class="node">
<title>Node29</title>
<g id="a_node29"><a xlink:href="_o_m_sim_input_data_8hh.html" target="_top" xlink:title="Definition of ParameterTable and InputDataManager.">
<polygon fill="white" stroke="black" points="793.58,-190.5 793.58,-209.5 908.58,-209.5 908.58,-190.5 793.58,-190.5"/>
<text text-anchor="middle" x="851.08" y="-197.5" font-family="Helvetica,sans-Serif" font-size="10.00">OMSimInputData.hh</text>
</a>
</g>
</g>
<!-- Node1&#45;&gt;Node29 -->
<g id="edge35" class="edge">
<title>Node1&#45;&gt;Node29</title>
<path fill="none" stroke="midnightblue" d="M661.22,-302.5C716.91,-295 787.13,-282.67 811.08,-266 827.36,-254.67 838.27,-234.37 844.53,-219.46"/>
<polygon fill="midnightblue" stroke="midnightblue" points="847.94,-220.35 848.28,-209.76 841.41,-217.83 847.94,-220.35"/>
</g>
<!-- Node4 -->
<g id="node4" class="node">
<title>Node4</title>
<g id="a_node4"><a xlink:title=" ">
<polygon fill="white" stroke="#bfbfbf" points="0.58,-0.5 0.58,-19.5 73.58,-19.5 73.58,-0.5 0.58,-0.5"/>
<text text-anchor="middle" x="37.08" y="-7.5" font-family="Helvetica,sans-Serif" font-size="10.00">G4Types.hh</text>
</a>
</g>
</g>
<!-- Node3&#45;&gt;Node4 -->
<g id="edge3" class="edge">
<title>Node3&#45;&gt;Node4</title>
<path fill="none" stroke="midnightblue" d="M376.9,-247.16C373.58,-246.76 370.29,-246.37 367.08,-246 290.95,-237.18 76.74,-265.68 24.08,-210 -23.1,-160.1 10.63,-68.06 28.22,-29.14"/>
<polygon fill="midnightblue" stroke="midnightblue" points="31.6,-30.19 32.67,-19.65 25.26,-27.21 31.6,-30.19"/>
</g>
<!-- Node5 -->
<g id="node5" class="node">
<title>Node5</title>
<g id="a_node5"><a xlink:title=" ">
<polygon fill="white" stroke="#bfbfbf" points="33.08,-190.5 33.08,-209.5 107.08,-209.5 107.08,-190.5 33.08,-190.5"/>
<text text-anchor="middle" x="70.08" y="-197.5" font-family="Helvetica,sans-Serif" font-size="10.00">G4String.hh</text>
</a>
</g>
</g>
<!-- Node3&#45;&gt;Node5 -->
<g id="edge4" class="edge">
<title>Node3&#45;&gt;Node5</title>
<path fill="none" stroke="midnightblue" d="M376.92,-246.94C313.01,-238.37 209.87,-224.13 121.08,-210 119.81,-209.8 118.52,-209.59 117.21,-209.38"/>
<polygon fill="midnightblue" stroke="midnightblue" points="117.54,-205.88 107.1,-207.68 116.39,-212.79 117.54,-205.88"/>
</g>
<!-- Node6 -->
<g id="node6" class="node">
<title>Node6</title>
<g id="a_node6"><a xlink:title=" ">
<polygon fill="white" stroke="#bfbfbf" points="27.58,-62 27.58,-81 130.58,-81 130.58,-62 27.58,-62"/>
<text text-anchor="middle" x="79.08" y="-69" font-family="Helvetica,sans-Serif" font-size="10.00">G4ThreeVector.hh</text>
</a>
</g>
</g>
<!-- Node3&#45;&gt;Node6 -->
<g id="edge5" class="edge">
<title>Node3&#45;&gt;Node6</title>
<path fill="none" stroke="midnightblue" d="M378.16,-246.48C339.19,-239.63 287.85,-228.11 245.08,-210 202.74,-192.07 193.65,-183.14 158.08,-154 133.42,-133.79 108.37,-106.57 93.28,-89.28"/>
<polygon fill="midnightblue" stroke="midnightblue" points="95.53,-86.52 86.35,-81.23 90.22,-91.09 95.53,-86.52"/>
</g>
<!-- Node7 -->
<g id="node7" class="node">
<title>Node7</title>
<g id="a_node7"><a xlink:href="_o_m_sim_hit_manager_8hh.html" target="_top" xlink:title="Defines structures and classes related to optical module photon hit management.">
<polygon fill="white" stroke="black" points="254.58,-190.5 254.58,-209.5 377.58,-209.5 377.58,-190.5 254.58,-190.5"/>
<text text-anchor="middle" x="316.08" y="-197.5" font-family="Helvetica,sans-Serif" font-size="10.00">OMSimHitManager.hh</text>
</a>
</g>
</g>
<!-- Node3&#45;&gt;Node7 -->
<g id="edge6" class="edge">
<title>Node3&#45;&gt;Node7</title>
<path fill="none" stroke="midnightblue" d="M418.75,-246.44C398.76,-237.6 367.34,-223.69 344.52,-213.59"/>
<polygon fill="midnightblue" stroke="midnightblue" points="345.88,-210.36 335.32,-209.52 343.05,-216.76 345.88,-210.36"/>
</g>
<!-- Node16 -->
<g id="node16" class="node">
<title>Node16</title>
<g id="a_node16"><a xlink:title=" ">
<polygon fill="white" stroke="#bfbfbf" points="458.58,-62 458.58,-81 505.58,-81 505.58,-62 458.58,-62"/>
<text text-anchor="middle" x="482.08" y="-69" font-family="Helvetica,sans-Serif" font-size="10.00">vector</text>
</a>
</g>
</g>
<!-- Node3&#45;&gt;Node16 -->
<g id="edge21" class="edge">
<title>Node3&#45;&gt;Node16</title>
<path fill="none" stroke="midnightblue" d="M442.01,-246.3C449.59,-229.07 466.2,-189.24 474.08,-154 478.82,-132.81 480.75,-107.89 481.54,-91.24"/>
<polygon fill="midnightblue" stroke="midnightblue" points="485.04,-91.3 481.92,-81.18 478.05,-91.04 485.04,-91.3"/>
</g>
<!-- Node17 -->
<g id="node17" class="node">
<title>Node17</title>
<g id="a_node17"><a xlink:title=" ">
<polygon fill="white" stroke="#bfbfbf" points="410.58,-129 410.58,-148 465.58,-148 465.58,-129 410.58,-129"/>
<text text-anchor="middle" x="438.08" y="-136" font-family="Helvetica,sans-Serif" font-size="10.00">fstream</text>
</a>
</g>
</g>
<!-- Node3&#45;&gt;Node17 -->
<g id="edge22" class="edge">
<title>Node3&#45;&gt;Node17</title>
<path fill="none" stroke="midnightblue" d="M438.08,-246.32C438.08,-227.76 438.08,-183.84 438.08,-158.47"/>
<polygon fill="midnightblue" stroke="midnightblue" points="441.58,-158.28 438.08,-148.28 434.58,-158.28 441.58,-158.28"/>
</g>
<!-- Node18 -->
<g id="node18" class="node">
<title>Node18</title>
<g id="a_node18"><a xlink:title=" ">
<polygon fill="white" stroke="#bfbfbf" points="522.58,-190.5 522.58,-209.5 563.58,-209.5 563.58,-190.5 522.58,-190.5"/>
<text text-anchor="middle" x="543.08" y="-197.5" font-family="Helvetica,sans-Serif" font-size="10.00">tuple</text>
</a>
</g>
</g>
<!-- Node3&#45;&gt;Node18 -->
<g id="edge23" class="edge">
<title>Node3&#45;&gt;Node18</title>
<path fill="none" stroke="midnightblue" d="M454.95,-246.32C471.79,-237.66 497.89,-224.24 517.32,-214.25"/>
<polygon fill="midnightblue" stroke="midnightblue" points="518.96,-217.34 526.25,-209.65 515.76,-211.12 518.96,-217.34"/>
</g>
<!-- Node7&#45;&gt;Node6 -->
<g id="edge19" class="edge">
<title>Node7&#45;&gt;Node6</title>
<path fill="none" stroke="midnightblue" d="M294.61,-190.47C273.71,-181.94 241.22,-168.1 214.08,-154 172.79,-132.54 126.82,-103.65 100.59,-86.66"/>
<polygon fill="midnightblue" stroke="midnightblue" points="102.46,-83.7 92.17,-81.17 98.64,-89.57 102.46,-83.7"/>
</g>
<!-- Node8 -->
<g id="node8" class="node">
<title>Node8</title>
<g id="a_node8"><a xlink:href="_o_m_sim_p_m_t_response_8hh.html" target="_top" xlink:title="Provides simulation for PMT response. This class is responsible for transforming hits on photocathode...">
<polygon fill="white" stroke="black" points="148.58,-62 148.58,-81 283.58,-81 283.58,-62 148.58,-62"/>
<text text-anchor="middle" x="216.08" y="-69" font-family="Helvetica,sans-Serif" font-size="10.00">OMSimPMTResponse.hh</text>
</a>
</g>
</g>
<!-- Node7&#45;&gt;Node8 -->
<g id="edge7" class="edge">
<title>Node7&#45;&gt;Node8</title>
<path fill="none" stroke="midnightblue" d="M284.74,-190.36C265.97,-183.56 243.27,-172.12 230.08,-154 216.77,-135.72 214.54,-109.09 214.79,-91.29"/>
<polygon fill="midnightblue" stroke="midnightblue" points="218.3,-91.2 215.23,-81.06 211.31,-90.9 218.3,-91.2"/>
</g>
<!-- Node13 -->
<g id="node13" class="node">
<title>Node13</title>
<g id="a_node13"><a xlink:href="_o_m_sim_sensitive_detector_8hh.html" target="_top" xlink:title=" ">
<polygon fill="white" stroke="black" points="239.58,-129 239.58,-148 392.58,-148 392.58,-129 239.58,-129"/>
<text text-anchor="middle" x="316.08" y="-136" font-family="Helvetica,sans-Serif" font-size="10.00">OMSimSensitiveDetector.hh</text>
</a>
</g>
</g>
<!-- Node7&#45;&gt;Node13 -->
<g id="edge13" class="edge">
<title>Node7&#45;&gt;Node13</title>
<path fill="none" stroke="midnightblue" d="M316.08,-190.48C316.08,-182.08 316.08,-168.98 316.08,-158.16"/>
<polygon fill="midnightblue" stroke="midnightblue" points="319.58,-158.01 316.08,-148.01 312.58,-158.01 319.58,-158.01"/>
</g>
<!-- Node7&#45;&gt;Node17 -->
<g id="edge20" class="edge">
<title>Node7&#45;&gt;Node17</title>
<path fill="none" stroke="midnightblue" d="M333.56,-190.48C353.94,-180.53 387.86,-163.99 411.51,-152.46"/>
<polygon fill="midnightblue" stroke="midnightblue" points="413.18,-155.54 420.63,-148.01 410.11,-149.25 413.18,-155.54"/>
</g>
<!-- Node8&#45;&gt;Node4 -->
<g id="edge9" class="edge">
<title>Node8&#45;&gt;Node4</title>
<path fill="none" stroke="midnightblue" d="M190.43,-61.98C159.46,-51.68 107.21,-34.31 72.43,-22.75"/>
<polygon fill="midnightblue" stroke="midnightblue" points="73.27,-19.34 62.68,-19.51 71.07,-25.98 73.27,-19.34"/>
</g>
<!-- Node9 -->
<g id="node9" class="node">
<title>Node9</title>
<g id="a_node9"><a xlink:title=" ">
<polygon fill="white" stroke="#bfbfbf" points="701.58,-0.5 701.58,-19.5 820.58,-19.5 820.58,-0.5 701.58,-0.5"/>
<text text-anchor="middle" x="761.08" y="-7.5" font-family="Helvetica,sans-Serif" font-size="10.00">G4SystemOfUnits.hh</text>
</a>
</g>
</g>
<!-- Node8&#45;&gt;Node9 -->
<g id="edge8" class="edge">
<title>Node8&#45;&gt;Node9</title>
<path fill="none" stroke="midnightblue" d="M257.53,-61.98C269.01,-59.82 281.5,-57.64 293.08,-56 433.88,-36.02 599.79,-22.39 691.42,-15.72"/>
<polygon fill="midnightblue" stroke="midnightblue" points="691.68,-19.21 701.41,-15 691.18,-12.23 691.68,-19.21"/>
</g>
<!-- Node10 -->
<g id="node10" class="node">
<title>Node10</title>
<g id="a_node10"><a xlink:title=" ">
<polygon fill="white" stroke="#bfbfbf" points="129.08,-0.5 129.08,-19.5 167.08,-19.5 167.08,-0.5 129.08,-0.5"/>
<text text-anchor="middle" x="148.08" y="-7.5" font-family="Helvetica,sans-Serif" font-size="10.00">map</text>
</a>
</g>
</g>
<!-- Node8&#45;&gt;Node10 -->
<g id="edge10" class="edge">
<title>Node8&#45;&gt;Node10</title>
<path fill="none" stroke="midnightblue" d="M206.34,-61.98C195.73,-52.7 178.56,-37.67 165.6,-26.33"/>
<polygon fill="midnightblue" stroke="midnightblue" points="167.64,-23.46 157.81,-19.51 163.03,-28.73 167.64,-23.46"/>
</g>
<!-- Node11 -->
<g id="node11" class="node">
<title>Node11</title>
<g id="a_node11"><a xlink:title=" ">
<polygon fill="white" stroke="#bfbfbf" points="185.58,-0.5 185.58,-19.5 246.58,-19.5 246.58,-0.5 185.58,-0.5"/>
<text text-anchor="middle" x="216.08" y="-7.5" font-family="Helvetica,sans-Serif" font-size="10.00">TGraph.h</text>
</a>
</g>
</g>
<!-- Node8&#45;&gt;Node11 -->
<g id="edge11" class="edge">
<title>Node8&#45;&gt;Node11</title>
<path fill="none" stroke="midnightblue" d="M216.08,-61.98C216.08,-53.58 216.08,-40.48 216.08,-29.66"/>
<polygon fill="midnightblue" stroke="midnightblue" points="219.58,-29.51 216.08,-19.51 212.58,-29.51 219.58,-29.51"/>
</g>
<!-- Node12 -->
<g id="node12" class="node">
<title>Node12</title>
<g id="a_node12"><a xlink:title=" ">
<polygon fill="white" stroke="#bfbfbf" points="264.58,-0.5 264.58,-19.5 317.58,-19.5 317.58,-0.5 264.58,-0.5"/>
<text text-anchor="middle" x="291.08" y="-7.5" font-family="Helvetica,sans-Serif" font-size="10.00">TH2D.h</text>
</a>
</g>
</g>
<!-- Node8&#45;&gt;Node12 -->
<g id="edge12" class="edge">
<title>Node8&#45;&gt;Node12</title>
<path fill="none" stroke="midnightblue" d="M226.83,-61.98C238.63,-52.61 257.82,-37.38 272.16,-26.01"/>
<polygon fill="midnightblue" stroke="midnightblue" points="274.7,-28.47 280.36,-19.51 270.35,-22.98 274.7,-28.47"/>
</g>
<!-- Node13&#45;&gt;Node6 -->
<g id="edge15" class="edge">
<title>Node13&#45;&gt;Node6</title>
<path fill="none" stroke="midnightblue" d="M284.61,-128.87C242.26,-117.25 166.86,-96.58 120.11,-83.75"/>
<polygon fill="midnightblue" stroke="midnightblue" points="120.88,-80.33 110.31,-81.06 119.02,-87.08 120.88,-80.33"/>
</g>
<!-- Node13&#45;&gt;Node8 -->
<g id="edge16" class="edge">
<title>Node13&#45;&gt;Node8</title>
<path fill="none" stroke="midnightblue" d="M302.59,-128.73C286.03,-117.96 257.7,-99.55 237.99,-86.74"/>
<polygon fill="midnightblue" stroke="midnightblue" points="239.65,-83.64 229.35,-81.13 235.83,-89.51 239.65,-83.64"/>
</g>
<!-- Node14 -->
<g id="node14" class="node">
<title>Node14</title>
<g id="a_node14"><a xlink:title=" ">
<polygon fill="white" stroke="#bfbfbf" points="302.08,-62 302.08,-81 440.08,-81 440.08,-62 302.08,-62"/>
<text text-anchor="middle" x="371.08" y="-69" font-family="Helvetica,sans-Serif" font-size="10.00">G4VSensitiveDetector.hh</text>
</a>
</g>
</g>
<!-- Node13&#45;&gt;Node14 -->
<g id="edge14" class="edge">
<title>Node13&#45;&gt;Node14</title>
<path fill="none" stroke="midnightblue" d="M323.5,-128.73C332.08,-118.6 346.38,-101.69 357.07,-89.06"/>
<polygon fill="midnightblue" stroke="midnightblue" points="359.99,-91.02 363.78,-81.13 354.65,-86.5 359.99,-91.02"/>
</g>
<!-- Node15 -->
<g id="node15" class="node">
<title>Node15</title>
<g id="a_node15"><a xlink:title=" ">
<polygon fill="white" stroke="#bfbfbf" points="523.58,-62 523.58,-81 666.58,-81 666.58,-62 523.58,-62"/>
<text text-anchor="middle" x="595.08" y="-69" font-family="Helvetica,sans-Serif" font-size="10.00">G4OpBoundaryProcess.hh</text>
</a>
</g>
</g>
<!-- Node13&#45;&gt;Node15 -->
<g id="edge17" class="edge">
<title>Node13&#45;&gt;Node15</title>
<path fill="none" stroke="midnightblue" d="M352.84,-128.94C403.13,-117.22 493.39,-96.19 548.39,-83.38"/>
<polygon fill="midnightblue" stroke="midnightblue" points="549.29,-86.76 558.24,-81.08 547.7,-79.94 549.29,-86.76"/>
</g>
<!-- Node13&#45;&gt;Node16 -->
<g id="edge18" class="edge">
<title>Node13&#45;&gt;Node16</title>
<path fill="none" stroke="midnightblue" d="M339.77,-128.92C366.48,-119.15 411.14,-102.53 449.08,-87 450.49,-86.42 451.93,-85.82 453.39,-85.21"/>
<polygon fill="midnightblue" stroke="midnightblue" points="455.15,-88.26 462.96,-81.1 452.39,-81.83 455.15,-88.26"/>
</g>
<!-- Node19&#45;&gt;Node17 -->
<g id="edge30" class="edge">
<title>Node19&#45;&gt;Node17</title>
<path fill="none" stroke="midnightblue" d="M631.7,-190.48C590.46,-179.62 519.32,-160.89 475.71,-149.41"/>
<polygon fill="midnightblue" stroke="midnightblue" points="476.34,-145.95 465.78,-146.79 474.56,-152.72 476.34,-145.95"/>
</g>
<!-- Node20 -->
<g id="node20" class="node">
<title>Node20</title>
<g id="a_node20"><a xlink:href="_o_m_sim_logger_8hh.html" target="_top" xlink:title=" ">
<polygon fill="white" stroke="black" points="801.58,-129 801.58,-148 900.58,-148 900.58,-129 801.58,-129"/>
<text text-anchor="middle" x="851.08" y="-136" font-family="Helvetica,sans-Serif" font-size="10.00">OMSimLogger.hh</text>
</a>
</g>
</g>
<!-- Node19&#45;&gt;Node20 -->
<g id="edge25" class="edge">
<title>Node19&#45;&gt;Node20</title>
<path fill="none" stroke="midnightblue" d="M690.87,-190.48C723.37,-180.14 778.29,-162.66 814.62,-151.1"/>
<polygon fill="midnightblue" stroke="midnightblue" points="815.87,-154.38 824.34,-148.01 813.75,-147.71 815.87,-154.38"/>
</g>
<!-- Node25 -->
<g id="node25" class="node">
<title>Node25</title>
<g id="a_node25"><a xlink:title=" ">
<polygon fill="white" stroke="#bfbfbf" points="540.08,-129 540.08,-148 624.08,-148 624.08,-129 540.08,-129"/>
<text text-anchor="middle" x="582.08" y="-136" font-family="Helvetica,sans-Serif" font-size="10.00">boost/any.hpp</text>
</a>
</g>
</g>
<!-- Node19&#45;&gt;Node25 -->
<g id="edge31" class="edge">
<title>Node19&#45;&gt;Node25</title>
<path fill="none" stroke="midnightblue" d="M652.33,-190.48C639.3,-181.02 618.05,-165.6 602.32,-154.19"/>
<polygon fill="midnightblue" stroke="midnightblue" points="603.96,-151.05 593.81,-148.01 599.85,-156.71 603.96,-151.05"/>
</g>
<!-- Node26 -->
<g id="node26" class="node">
<title>Node26</title>
<g id="a_node26"><a xlink:title=" ">
<polygon fill="white" stroke="#bfbfbf" points="642.08,-129 642.08,-148 710.08,-148 710.08,-129 642.08,-129"/>
<text text-anchor="middle" x="676.08" y="-136" font-family="Helvetica,sans-Serif" font-size="10.00">sys/time.h</text>
</a>
</g>
</g>
<!-- Node19&#45;&gt;Node26 -->
<g id="edge32" class="edge">
<title>Node19&#45;&gt;Node26</title>
<path fill="none" stroke="midnightblue" d="M665.8,-190.48C667.51,-181.99 670.19,-168.7 672.39,-157.82"/>
<polygon fill="midnightblue" stroke="midnightblue" points="675.82,-158.5 674.36,-148.01 668.96,-157.12 675.82,-158.5"/>
</g>
<!-- Node21 -->
<g id="node21" class="node">
<title>Node21</title>
<g id="a_node21"><a xlink:title=" ">
<polygon fill="white" stroke="#bfbfbf" points="684.58,-62 684.58,-81 777.58,-81 777.58,-62 684.58,-62"/>
<text text-anchor="middle" x="731.08" y="-69" font-family="Helvetica,sans-Serif" font-size="10.00">spdlog/spdlog.h</text>
</a>
</g>
</g>
<!-- Node20&#45;&gt;Node21 -->
<g id="edge26" class="edge">
<title>Node20&#45;&gt;Node21</title>
<path fill="none" stroke="midnightblue" d="M834.9,-128.73C814.66,-117.77 779.78,-98.88 756.1,-86.05"/>
<polygon fill="midnightblue" stroke="midnightblue" points="757.47,-82.81 747.01,-81.13 754.13,-88.97 757.47,-82.81"/>
</g>
<!-- Node22 -->
<g id="node22" class="node">
<title>Node22</title>
<g id="a_node22"><a xlink:title=" ">
<polygon fill="white" stroke="#bfbfbf" points="795.58,-56.5 795.58,-86.5 906.58,-86.5 906.58,-56.5 795.58,-56.5"/>
<text text-anchor="start" x="803.58" y="-74.5" font-family="Helvetica,sans-Serif" font-size="10.00">spdlog/sinks/stdout</text>
<text text-anchor="middle" x="851.08" y="-63.5" font-family="Helvetica,sans-Serif" font-size="10.00">_color_sinks.h</text>
</a>
</g>
</g>
<!-- Node20&#45;&gt;Node22 -->
<g id="edge27" class="edge">
<title>Node20&#45;&gt;Node22</title>
<path fill="none" stroke="midnightblue" d="M851.08,-128.73C851.08,-120.54 851.08,-107.92 851.08,-96.71"/>
<polygon fill="midnightblue" stroke="midnightblue" points="854.58,-96.59 851.08,-86.59 847.58,-96.59 854.58,-96.59"/>
</g>
<!-- Node23 -->
<g id="node23" class="node">
<title>Node23</title>
<g id="a_node23"><a xlink:title=" ">
<polygon fill="white" stroke="#bfbfbf" points="925.08,-62 925.08,-81 983.08,-81 983.08,-62 925.08,-62"/>
<text text-anchor="middle" x="954.08" y="-69" font-family="Helvetica,sans-Serif" font-size="10.00">memory</text>
</a>
</g>
</g>
<!-- Node20&#45;&gt;Node23 -->
<g id="edge28" class="edge">
<title>Node20&#45;&gt;Node23</title>
<path fill="none" stroke="midnightblue" d="M864.97,-128.73C882.11,-117.92 911.48,-99.38 931.79,-86.57"/>
<polygon fill="midnightblue" stroke="midnightblue" points="933.82,-89.42 940.41,-81.13 930.09,-83.5 933.82,-89.42"/>
</g>
<!-- Node24 -->
<g id="node24" class="node">
<title>Node24</title>
<g id="a_node24"><a xlink:title=" ">
<polygon fill="white" stroke="#bfbfbf" points="1001.08,-62 1001.08,-81 1099.08,-81 1099.08,-62 1001.08,-62"/>
<text text-anchor="middle" x="1050.08" y="-69" font-family="Helvetica,sans-Serif" font-size="10.00">spdlog/fmt/fmt.h</text>
</a>
</g>
</g>
<!-- Node20&#45;&gt;Node24 -->
<g id="edge29" class="edge">
<title>Node20&#45;&gt;Node24</title>
<path fill="none" stroke="midnightblue" d="M877.51,-128.87C912.62,-117.4 974.78,-97.09 1014.14,-84.24"/>
<polygon fill="midnightblue" stroke="midnightblue" points="1015.44,-87.5 1023.86,-81.06 1013.27,-80.84 1015.44,-87.5"/>
</g>
<!-- Node29&#45;&gt;Node9 -->
<g id="edge38" class="edge">
<title>Node29&#45;&gt;Node9</title>
<path fill="none" stroke="midnightblue" d="M903.37,-190.46C995.87,-173.26 1172.79,-129.64 1108.08,-56 1090.12,-35.55 927.24,-21.68 831.15,-15.2"/>
<polygon fill="midnightblue" stroke="midnightblue" points="831.13,-11.69 820.92,-14.52 830.67,-18.67 831.13,-11.69"/>
</g>
<!-- Node29&#45;&gt;Node15 -->
<g id="edge37" class="edge">
<title>Node29&#45;&gt;Node15</title>
<path fill="none" stroke="midnightblue" d="M837.54,-190.38C814,-175.58 763.75,-144.83 719.08,-123 689.03,-108.31 653.58,-94.18 628.3,-84.62"/>
<polygon fill="midnightblue" stroke="midnightblue" points="629.4,-81.3 618.81,-81.07 626.94,-87.85 629.4,-81.3"/>
</g>
<!-- Node29&#45;&gt;Node20 -->
<g id="edge36" class="edge">
<title>Node29&#45;&gt;Node20</title>
<path fill="none" stroke="midnightblue" d="M851.08,-190.48C851.08,-182.08 851.08,-168.98 851.08,-158.16"/>
<polygon fill="midnightblue" stroke="midnightblue" points="854.58,-158.01 851.08,-148.01 847.58,-158.01 854.58,-158.01"/>
</g>
<!-- Node30 -->
<g id="node30" class="node">
<title>Node30</title>
<g id="a_node30"><a xlink:title=" ">
<polygon fill="white" stroke="#bfbfbf" points="1155.58,-123.5 1155.58,-153.5 1268.58,-153.5 1268.58,-123.5 1155.58,-123.5"/>
<text text-anchor="start" x="1163.58" y="-141.5" font-family="Helvetica,sans-Serif" font-size="10.00">boost/property_tree</text>
<text text-anchor="middle" x="1212.08" y="-130.5" font-family="Helvetica,sans-Serif" font-size="10.00">/json_parser.hpp</text>
</a>
</g>
</g>
<!-- Node29&#45;&gt;Node30 -->
<g id="edge39" class="edge">
<title>Node29&#45;&gt;Node30</title>
<path fill="none" stroke="midnightblue" d="M908.71,-190.88C967.33,-182.43 1060.72,-168.43 1141.08,-154 1142.55,-153.74 1144.04,-153.47 1145.54,-153.19"/>
<polygon fill="midnightblue" stroke="midnightblue" points="1146.37,-156.59 1155.55,-151.3 1145.07,-149.72 1146.37,-156.59"/>
</g>
</g>
</svg>
