<?xml version="1.0" encoding="UTF-8" standalone="no"?>
<!DOCTYPE svg PUBLIC "-//W3C//DTD SVG 1.1//EN"
 "http://www.w3.org/Graphics/SVG/1.1/DTD/svg11.dtd">
<!-- Generated by graphviz version 2.43.0 (0)
 -->
<!-- Title: OMSimSupernova.cc Pages: 1 -->
<svg width="1991pt" height="375pt"
 viewBox="0.00 0.00 1990.96 375.00" xmlns="http://www.w3.org/2000/svg" xmlns:xlink="http://www.w3.org/1999/xlink">
<g id="graph0" class="graph" transform="scale(1 1) rotate(0) translate(4 371)">
<title>OMSimSupernova.cc</title>
<!-- Node1 -->
<g id="node1" class="node">
<title>Node1</title>
<g id="a_node1"><a xlink:title="Main of the supernova study.">
<polygon fill="#bfbfbf" stroke="black" points="429.96,-347.5 429.96,-366.5 546.96,-366.5 546.96,-347.5 429.96,-347.5"/>
<text text-anchor="middle" x="488.46" y="-354.5" font-family="Helvetica,sans-Serif" font-size="10.00">OMSimSupernova.cc</text>
</a>
</g>
</g>
<!-- Node2 -->
<g id="node2" class="node">
<title>Node2</title>
<g id="a_node2"><a xlink:href="_o_m_sim_8hh.html" target="_top" xlink:title="Main simulation class for the Optical Module (OM) simulation. This file defines the OMSim class,...">
<polygon fill="none" stroke="black" points="1068.96,-291.5 1068.96,-310.5 1135.96,-310.5 1135.96,-291.5 1068.96,-291.5"/>
<text text-anchor="middle" x="1102.46" y="-298.5" font-family="Helvetica,sans-Serif" font-size="10.00">OMSim.hh</text>
</a>
</g>
</g>
<!-- Node1&#45;&gt;Node2 -->
<g id="edge1" class="edge">
<title>Node1&#45;&gt;Node2</title>
<path fill="none" stroke="midnightblue" d="M547.06,-350.85C669.47,-340.08 949.98,-315.41 1058.48,-305.87"/>
<polygon fill="midnightblue" stroke="midnightblue" points="1059.08,-309.33 1068.74,-304.97 1058.47,-302.36 1059.08,-309.33"/>
</g>
<!-- Node26 -->
<g id="node6" class="node">
<title>Node26</title>
<g id="a_node6"><a xlink:href="_o_m_sim_hit_manager_8hh.html" target="_top" xlink:title="Defines structures and classes related to optical module photon hit management.">
<polygon fill="none" stroke="black" points="304.96,-123.5 304.96,-142.5 427.96,-142.5 427.96,-123.5 304.96,-123.5"/>
<text text-anchor="middle" x="366.46" y="-130.5" font-family="Helvetica,sans-Serif" font-size="10.00">OMSimHitManager.hh</text>
</a>
</g>
</g>
<!-- Node1&#45;&gt;Node26 -->
<g id="edge60" class="edge">
<title>Node1&#45;&gt;Node26</title>
<path fill="none" stroke="midnightblue" d="M429.95,-350.2C374.31,-340.96 295.76,-317 272.46,-255 263.73,-231.75 286.8,-181.13 288.46,-179 299.7,-164.61 316.91,-153.99 332.31,-146.69"/>
<polygon fill="midnightblue" stroke="midnightblue" points="333.87,-149.82 341.6,-142.57 331.04,-143.42 333.87,-149.82"/>
</g>
<!-- Node40 -->
<g id="node21" class="node">
<title>Node40</title>
<g id="a_node21"><a xlink:title=" ">
<polygon fill="none" stroke="#bfbfbf" points="469.96,-235.5 469.96,-254.5 654.96,-254.5 654.96,-235.5 469.96,-235.5"/>
<text text-anchor="middle" x="562.46" y="-242.5" font-family="Helvetica,sans-Serif" font-size="10.00">OMSimPrimaryGeneratorAction.hh</text>
</a>
</g>
</g>
<!-- Node1&#45;&gt;Node40 -->
<g id="edge59" class="edge">
<title>Node1&#45;&gt;Node40</title>
<path fill="none" stroke="midnightblue" d="M494.27,-347.37C506.48,-329.22 535.01,-286.8 551.03,-262.99"/>
<polygon fill="midnightblue" stroke="midnightblue" points="554,-264.84 556.68,-254.59 548.2,-260.94 554,-264.84"/>
</g>
<!-- Node59 -->
<g id="node45" class="node">
<title>Node59</title>
<g id="a_node45"><a xlink:href="_o_m_sim_s_n_analysis_8hh_source.html" target="_top" xlink:title=" ">
<polygon fill="none" stroke="black" points="103.46,-179.5 103.46,-198.5 225.46,-198.5 225.46,-179.5 103.46,-179.5"/>
<text text-anchor="middle" x="164.46" y="-186.5" font-family="Helvetica,sans-Serif" font-size="10.00">OMSimSNAnalysis.hh</text>
</a>
</g>
</g>
<!-- Node1&#45;&gt;Node59 -->
<g id="edge51" class="edge">
<title>Node1&#45;&gt;Node59</title>
<path fill="none" stroke="midnightblue" d="M429.81,-350.92C366.22,-344.46 269.74,-331.6 239.46,-311 202.46,-285.83 180.28,-235.74 170.47,-208.57"/>
<polygon fill="midnightblue" stroke="midnightblue" points="173.66,-207.09 167.11,-198.77 167.04,-209.36 173.66,-207.09"/>
</g>
<!-- Node63 -->
<g id="node49" class="node">
<title>Node63</title>
<g id="a_node49"><a xlink:title=" ">
<polygon fill="none" stroke="#bfbfbf" points="1154.46,-291.5 1154.46,-310.5 1246.46,-310.5 1246.46,-291.5 1154.46,-291.5"/>
<text text-anchor="middle" x="1200.46" y="-298.5" font-family="Helvetica,sans-Serif" font-size="10.00">G4Navigator.hh</text>
</a>
</g>
</g>
<!-- Node1&#45;&gt;Node63 -->
<g id="edge61" class="edge">
<title>Node1&#45;&gt;Node63</title>
<path fill="none" stroke="midnightblue" d="M547.08,-353.83C660.43,-349.24 917.74,-336.85 1144.21,-311.04"/>
<polygon fill="midnightblue" stroke="midnightblue" points="1144.76,-314.5 1154.29,-309.88 1143.96,-307.54 1144.76,-314.5"/>
</g>
<!-- Node64 -->
<g id="node50" class="node">
<title>Node64</title>
<g id="a_node50"><a xlink:href="_o_m_sim_s_ndetector_8hh_source.html" target="_top" xlink:title=" ">
<polygon fill="none" stroke="black" points="330.46,-291.5 330.46,-310.5 450.46,-310.5 450.46,-291.5 330.46,-291.5"/>
<text text-anchor="middle" x="390.46" y="-298.5" font-family="Helvetica,sans-Serif" font-size="10.00">OMSimSNdetector.hh</text>
</a>
</g>
</g>
<!-- Node1&#45;&gt;Node64 -->
<g id="edge62" class="edge">
<title>Node1&#45;&gt;Node64</title>
<path fill="none" stroke="midnightblue" d="M472.72,-347.32C457.14,-338.74 433.08,-325.49 415,-315.52"/>
<polygon fill="midnightblue" stroke="midnightblue" points="416.62,-312.42 406.17,-310.65 413.24,-318.55 416.62,-312.42"/>
</g>
<!-- Node3 -->
<g id="node3" class="node">
<title>Node3</title>
<g id="a_node3"><a xlink:href="_o_m_sim_detector_construction_8hh_source.html" target="_top" xlink:title=" ">
<polygon fill="none" stroke="black" points="281.46,-235.5 281.46,-254.5 451.46,-254.5 451.46,-235.5 281.46,-235.5"/>
<text text-anchor="middle" x="366.46" y="-242.5" font-family="Helvetica,sans-Serif" font-size="10.00">OMSimDetectorConstruction.hh</text>
</a>
</g>
</g>
<!-- Node2&#45;&gt;Node3 -->
<g id="edge2" class="edge">
<title>Node2&#45;&gt;Node3</title>
<path fill="none" stroke="midnightblue" d="M1068.68,-297.94C974.5,-292.12 700.8,-274.77 461.78,-255.09"/>
<polygon fill="midnightblue" stroke="midnightblue" points="461.76,-251.58 451.51,-254.24 461.18,-258.55 461.76,-251.58"/>
</g>
<!-- Node39 -->
<g id="node20" class="node">
<title>Node39</title>
<g id="a_node20"><a xlink:title=" ">
<polygon fill="none" stroke="#bfbfbf" points="672.96,-235.5 672.96,-254.5 793.96,-254.5 793.96,-235.5 672.96,-235.5"/>
<text text-anchor="middle" x="733.46" y="-242.5" font-family="Helvetica,sans-Serif" font-size="10.00">OMSimPhysicsList.hh</text>
</a>
</g>
</g>
<!-- Node2&#45;&gt;Node39 -->
<g id="edge22" class="edge">
<title>Node2&#45;&gt;Node39</title>
<path fill="none" stroke="midnightblue" d="M1068.74,-295.06C1008.46,-286.24 881.16,-267.61 801.92,-256.02"/>
<polygon fill="midnightblue" stroke="midnightblue" points="801.95,-252.49 791.55,-254.5 800.94,-259.41 801.95,-252.49"/>
</g>
<!-- Node2&#45;&gt;Node40 -->
<g id="edge23" class="edge">
<title>Node2&#45;&gt;Node40</title>
<path fill="none" stroke="midnightblue" d="M1068.68,-296.62C987.78,-288.53 780.51,-267.81 657.74,-255.53"/>
<polygon fill="midnightblue" stroke="midnightblue" points="657.89,-252.03 647.59,-254.51 657.19,-258.99 657.89,-252.03"/>
</g>
<!-- Node41 -->
<g id="node22" class="node">
<title>Node41</title>
<g id="a_node22"><a xlink:href="_o_m_sim_run_action_8hh_source.html" target="_top" xlink:title=" ">
<polygon fill="none" stroke="black" points="1270.46,-179.5 1270.46,-198.5 1386.46,-198.5 1386.46,-179.5 1270.46,-179.5"/>
<text text-anchor="middle" x="1328.46" y="-186.5" font-family="Helvetica,sans-Serif" font-size="10.00">OMSimRunAction.hh</text>
</a>
</g>
</g>
<!-- Node2&#45;&gt;Node41 -->
<g id="edge24" class="edge">
<title>Node2&#45;&gt;Node41</title>
<path fill="none" stroke="midnightblue" d="M1136.18,-292.44C1139.31,-291.89 1142.44,-291.4 1145.46,-291 1219.27,-281.35 1763.26,-309.03 1814.46,-255 1820.58,-248.55 1820.45,-241.57 1814.46,-235 1800.58,-219.78 1527.3,-201.71 1396.76,-193.91"/>
<polygon fill="midnightblue" stroke="midnightblue" points="1396.67,-190.4 1386.48,-193.3 1396.25,-197.39 1396.67,-190.4"/>
</g>
<!-- Node45 -->
<g id="node31" class="node">
<title>Node45</title>
<g id="a_node31"><a xlink:title=" ">
<polygon fill="none" stroke="#bfbfbf" points="811.96,-235.5 811.96,-254.5 936.96,-254.5 936.96,-235.5 811.96,-235.5"/>
<text text-anchor="middle" x="874.46" y="-242.5" font-family="Helvetica,sans-Serif" font-size="10.00">OMSimEventAction.hh</text>
</a>
</g>
</g>
<!-- Node2&#45;&gt;Node45 -->
<g id="edge34" class="edge">
<title>Node2&#45;&gt;Node45</title>
<path fill="none" stroke="midnightblue" d="M1068.82,-292.03C1029.52,-282.72 964.29,-267.27 920.36,-256.87"/>
<polygon fill="midnightblue" stroke="midnightblue" points="921.04,-253.43 910.5,-254.54 919.43,-260.25 921.04,-253.43"/>
</g>
<!-- Node46 -->
<g id="node32" class="node">
<title>Node46</title>
<g id="a_node32"><a xlink:href="_o_m_sim_tracking_action_8hh_source.html" target="_top" xlink:title=" ">
<polygon fill="none" stroke="black" points="955.46,-235.5 955.46,-254.5 1093.46,-254.5 1093.46,-235.5 955.46,-235.5"/>
<text text-anchor="middle" x="1024.46" y="-242.5" font-family="Helvetica,sans-Serif" font-size="10.00">OMSimTrackingAction.hh</text>
</a>
</g>
</g>
<!-- Node2&#45;&gt;Node46 -->
<g id="edge35" class="edge">
<title>Node2&#45;&gt;Node46</title>
<path fill="none" stroke="midnightblue" d="M1089.93,-291.32C1077.88,-282.98 1059.43,-270.21 1045.19,-260.35"/>
<polygon fill="midnightblue" stroke="midnightblue" points="1047.18,-257.47 1036.96,-254.65 1043.19,-263.22 1047.18,-257.47"/>
</g>
<!-- Node48 -->
<g id="node34" class="node">
<title>Node48</title>
<g id="a_node34"><a xlink:href="_o_m_sim_stepping_action_8hh.html" target="_top" xlink:title="Defines OMSimSteppingAction.Currently it only checks for trapped photons.">
<polygon fill="none" stroke="black" points="1111.46,-235.5 1111.46,-254.5 1251.46,-254.5 1251.46,-235.5 1111.46,-235.5"/>
<text text-anchor="middle" x="1181.46" y="-242.5" font-family="Helvetica,sans-Serif" font-size="10.00">OMSimSteppingAction.hh</text>
</a>
</g>
</g>
<!-- Node2&#45;&gt;Node48 -->
<g id="edge37" class="edge">
<title>Node2&#45;&gt;Node48</title>
<path fill="none" stroke="midnightblue" d="M1115.15,-291.32C1127.36,-282.98 1146.04,-270.21 1160.46,-260.35"/>
<polygon fill="midnightblue" stroke="midnightblue" points="1162.52,-263.19 1168.8,-254.65 1158.57,-257.41 1162.52,-263.19"/>
</g>
<!-- Node50 -->
<g id="node36" class="node">
<title>Node50</title>
<g id="a_node36"><a xlink:href="_o_m_sim_u_iinterface_8hh.html" target="_top" xlink:title=" ">
<polygon fill="none" stroke="black" points="1861.96,-235.5 1861.96,-254.5 1982.96,-254.5 1982.96,-235.5 1861.96,-235.5"/>
<text text-anchor="middle" x="1922.46" y="-242.5" font-family="Helvetica,sans-Serif" font-size="10.00">OMSimUIinterface.hh</text>
</a>
</g>
</g>
<!-- Node2&#45;&gt;Node50 -->
<g id="edge39" class="edge">
<title>Node2&#45;&gt;Node50</title>
<path fill="none" stroke="midnightblue" d="M1136.18,-292.43C1139.31,-291.88 1142.44,-291.39 1145.46,-291 1455.28,-250.88 1536.19,-281.63 1847.46,-255 1848.93,-254.87 1850.42,-254.74 1851.91,-254.6"/>
<polygon fill="midnightblue" stroke="midnightblue" points="1852.3,-258.08 1861.92,-253.62 1851.62,-251.12 1852.3,-258.08"/>
</g>
<!-- Node55 -->
<g id="node41" class="node">
<title>Node55</title>
<g id="a_node41"><a xlink:title=" ">
<polygon fill="none" stroke="#bfbfbf" points="1269.96,-235.5 1269.96,-254.5 1390.96,-254.5 1390.96,-235.5 1269.96,-235.5"/>
<text text-anchor="middle" x="1330.46" y="-242.5" font-family="Helvetica,sans-Serif" font-size="10.00">G4MTRunManager.hh</text>
</a>
</g>
</g>
<!-- Node2&#45;&gt;Node55 -->
<g id="edge47" class="edge">
<title>Node2&#45;&gt;Node55</title>
<path fill="none" stroke="midnightblue" d="M1136.1,-292.03C1175.41,-282.72 1240.64,-267.27 1284.57,-256.87"/>
<polygon fill="midnightblue" stroke="midnightblue" points="1285.5,-260.25 1294.42,-254.54 1283.88,-253.43 1285.5,-260.25"/>
</g>
<!-- Node56 -->
<g id="node42" class="node">
<title>Node56</title>
<g id="a_node42"><a xlink:title=" ">
<polygon fill="none" stroke="#bfbfbf" points="1408.96,-235.5 1408.96,-254.5 1515.96,-254.5 1515.96,-235.5 1408.96,-235.5"/>
<text text-anchor="middle" x="1462.46" y="-242.5" font-family="Helvetica,sans-Serif" font-size="10.00">G4VisExecutive.hh</text>
</a>
</g>
</g>
<!-- Node2&#45;&gt;Node56 -->
<g id="edge48" class="edge">
<title>Node2&#45;&gt;Node56</title>
<path fill="none" stroke="midnightblue" d="M1136.22,-292.71C1139.34,-292.11 1142.46,-291.53 1145.46,-291 1255.01,-271.82 1285.45,-271.24 1398.59,-255.26"/>
<polygon fill="midnightblue" stroke="midnightblue" points="1399.29,-258.69 1408.69,-253.82 1398.3,-251.76 1399.29,-258.69"/>
</g>
<!-- Node57 -->
<g id="node43" class="node">
<title>Node57</title>
<g id="a_node43"><a xlink:title=" ">
<polygon fill="none" stroke="#bfbfbf" points="1533.96,-235.5 1533.96,-254.5 1636.96,-254.5 1636.96,-235.5 1533.96,-235.5"/>
<text text-anchor="middle" x="1585.46" y="-242.5" font-family="Helvetica,sans-Serif" font-size="10.00">G4UIExecutive.hh</text>
</a>
</g>
</g>
<!-- Node2&#45;&gt;Node57 -->
<g id="edge49" class="edge">
<title>Node2&#45;&gt;Node57</title>
<path fill="none" stroke="midnightblue" d="M1136.2,-292.57C1139.32,-291.99 1142.45,-291.46 1145.46,-291 1310,-266.07 1355.35,-275.22 1523.82,-255.14"/>
<polygon fill="midnightblue" stroke="midnightblue" points="1524.27,-258.61 1533.78,-253.94 1523.43,-251.66 1524.27,-258.61"/>
</g>
<!-- Node58 -->
<g id="node44" class="node">
<title>Node58</title>
<g id="a_node44"><a xlink:title=" ">
<polygon fill="none" stroke="#bfbfbf" points="1655.46,-235.5 1655.46,-254.5 1805.46,-254.5 1805.46,-235.5 1655.46,-235.5"/>
<text text-anchor="middle" x="1730.46" y="-242.5" font-family="Helvetica,sans-Serif" font-size="10.00">boost/program_options.hpp</text>
</a>
</g>
</g>
<!-- Node2&#45;&gt;Node58 -->
<g id="edge50" class="edge">
<title>Node2&#45;&gt;Node58</title>
<path fill="none" stroke="midnightblue" d="M1136.19,-292.49C1139.31,-291.93 1142.44,-291.42 1145.46,-291 1363.31,-260.52 1422.39,-274.47 1645.32,-255.07"/>
<polygon fill="midnightblue" stroke="midnightblue" points="1645.72,-258.54 1655.37,-254.18 1645.1,-251.57 1645.72,-258.54"/>
</g>
<!-- Node4 -->
<g id="node4" class="node">
<title>Node4</title>
<g id="a_node4"><a xlink:href="_o_m_sim_optical_module_8hh_source.html" target="_top" xlink:title=" ">
<polygon fill="none" stroke="black" points="297.96,-179.5 297.96,-198.5 434.96,-198.5 434.96,-179.5 297.96,-179.5"/>
<text text-anchor="middle" x="366.46" y="-186.5" font-family="Helvetica,sans-Serif" font-size="10.00">OMSimOpticalModule.hh</text>
</a>
</g>
</g>
<!-- Node3&#45;&gt;Node4 -->
<g id="edge3" class="edge">
<title>Node3&#45;&gt;Node4</title>
<path fill="none" stroke="midnightblue" d="M366.46,-235.08C366.46,-228.01 366.46,-217.86 366.46,-208.99"/>
<polygon fill="midnightblue" stroke="midnightblue" points="369.96,-208.75 366.46,-198.75 362.96,-208.75 369.96,-208.75"/>
</g>
<!-- Node37 -->
<g id="node18" class="node">
<title>Node37</title>
<g id="a_node18"><a xlink:title=" ">
<polygon fill="none" stroke="#bfbfbf" points="453.46,-179.5 453.46,-198.5 515.46,-198.5 515.46,-179.5 453.46,-179.5"/>
<text text-anchor="middle" x="484.46" y="-186.5" font-family="Helvetica,sans-Serif" font-size="10.00">G4Orb.hh</text>
</a>
</g>
</g>
<!-- Node3&#45;&gt;Node37 -->
<g id="edge20" class="edge">
<title>Node3&#45;&gt;Node37</title>
<path fill="none" stroke="midnightblue" d="M385.16,-235.44C404.41,-226.64 434.61,-212.81 456.66,-202.72"/>
<polygon fill="midnightblue" stroke="midnightblue" points="458.21,-205.86 465.85,-198.52 455.3,-199.5 458.21,-205.86"/>
</g>
<!-- Node38 -->
<g id="node19" class="node">
<title>Node38</title>
<g id="a_node19"><a xlink:title=" ">
<polygon fill="none" stroke="#bfbfbf" points="533.46,-179.5 533.46,-198.5 711.46,-198.5 711.46,-179.5 533.46,-179.5"/>
<text text-anchor="middle" x="622.46" y="-186.5" font-family="Helvetica,sans-Serif" font-size="10.00">G4VUserDetectorConstruction.hh</text>
</a>
</g>
</g>
<!-- Node3&#45;&gt;Node38 -->
<g id="edge21" class="edge">
<title>Node3&#45;&gt;Node38</title>
<path fill="none" stroke="midnightblue" d="M407.03,-235.44C451.78,-226 523.84,-210.8 572.16,-200.61"/>
<polygon fill="midnightblue" stroke="midnightblue" points="573.03,-204.01 582.09,-198.52 571.58,-197.16 573.03,-204.01"/>
</g>
<!-- Node5 -->
<g id="node5" class="node">
<title>Node5</title>
<g id="a_node5"><a xlink:href="abc_detector_component_8hh.html" target="_top" xlink:title="Provides helper base class abcDetectorComponent for constructing and managing detector components in ...">
<polygon fill="none" stroke="red" points="583.96,-62 583.96,-81 730.96,-81 730.96,-62 583.96,-62"/>
<text text-anchor="middle" x="657.46" y="-69" font-family="Helvetica,sans-Serif" font-size="10.00">abcDetectorComponent.hh</text>
</a>
</g>
</g>
<!-- Node4&#45;&gt;Node5 -->
<g id="edge4" class="edge">
<title>Node4&#45;&gt;Node5</title>
<path fill="none" stroke="midnightblue" d="M432.34,-179.47C502.76,-169.86 606.39,-154.14 621.46,-143 638.52,-130.39 648.1,-107.35 653.01,-91.05"/>
<polygon fill="midnightblue" stroke="midnightblue" points="656.48,-91.61 655.7,-81.05 649.72,-89.79 656.48,-91.61"/>
</g>
<!-- Node4&#45;&gt;Node26 -->
<g id="edge5" class="edge">
<title>Node4&#45;&gt;Node26</title>
<path fill="none" stroke="midnightblue" d="M366.46,-179.08C366.46,-172.01 366.46,-161.86 366.46,-152.99"/>
<polygon fill="midnightblue" stroke="midnightblue" points="369.96,-152.75 366.46,-142.75 362.96,-152.75 369.96,-152.75"/>
</g>
<!-- Node34 -->
<g id="node17" class="node">
<title>Node34</title>
<g id="a_node17"><a xlink:href="_o_m_sim_p_m_t_construction_8hh.html" target="_top" xlink:title="Construction of the PMTs.">
<polygon fill="none" stroke="red" points="445.96,-123.5 445.96,-142.5 594.96,-142.5 594.96,-123.5 445.96,-123.5"/>
<text text-anchor="middle" x="520.46" y="-130.5" font-family="Helvetica,sans-Serif" font-size="10.00">OMSimPMTConstruction.hh</text>
</a>
</g>
</g>
<!-- Node4&#45;&gt;Node34 -->
<g id="edge16" class="edge">
<title>Node4&#45;&gt;Node34</title>
<path fill="none" stroke="midnightblue" d="M390.86,-179.44C416.66,-170.4 457.54,-156.06 486.48,-145.92"/>
<polygon fill="midnightblue" stroke="midnightblue" points="487.9,-149.13 496.17,-142.52 485.58,-142.52 487.9,-149.13"/>
</g>
<!-- Node27 -->
<g id="node7" class="node">
<title>Node27</title>
<g id="a_node7"><a xlink:href="_o_m_sim_p_m_t_response_8hh.html" target="_top" xlink:title="Simulation of PMT response.">
<polygon fill="none" stroke="black" points="430.96,-62 430.96,-81 565.96,-81 565.96,-62 430.96,-62"/>
<text text-anchor="middle" x="498.46" y="-69" font-family="Helvetica,sans-Serif" font-size="10.00">OMSimPMTResponse.hh</text>
</a>
</g>
</g>
<!-- Node26&#45;&gt;Node27 -->
<g id="edge6" class="edge">
<title>Node26&#45;&gt;Node27</title>
<path fill="none" stroke="midnightblue" d="M385.37,-123.48C407.62,-113.45 444.77,-96.7 470.39,-85.15"/>
<polygon fill="midnightblue" stroke="midnightblue" points="471.91,-88.31 479.58,-81.01 469.03,-81.93 471.91,-88.31"/>
</g>
<!-- Node32 -->
<g id="node13" class="node">
<title>Node32</title>
<g id="a_node13"><a xlink:title=" ">
<polygon fill="none" stroke="#bfbfbf" points="13.96,-62 13.96,-81 116.96,-81 116.96,-62 13.96,-62"/>
<text text-anchor="middle" x="65.46" y="-69" font-family="Helvetica,sans-Serif" font-size="10.00">G4ThreeVector.hh</text>
</a>
</g>
</g>
<!-- Node26&#45;&gt;Node32 -->
<g id="edge12" class="edge">
<title>Node26&#45;&gt;Node32</title>
<path fill="none" stroke="midnightblue" d="M317.82,-123.48C269.44,-114.86 193.15,-100.86 127.46,-87 122.05,-85.86 116.39,-84.61 110.78,-83.34"/>
<polygon fill="midnightblue" stroke="midnightblue" points="111.34,-79.88 100.81,-81.05 109.77,-86.7 111.34,-79.88"/>
</g>
<!-- Node33 -->
<g id="node14" class="node">
<title>Node33</title>
<g id="a_node14"><a xlink:title=" ">
<polygon fill="none" stroke="#bfbfbf" points="248.96,-62 248.96,-81 303.96,-81 303.96,-62 248.96,-62"/>
<text text-anchor="middle" x="276.46" y="-69" font-family="Helvetica,sans-Serif" font-size="10.00">fstream</text>
</a>
</g>
</g>
<!-- Node26&#45;&gt;Node33 -->
<g id="edge13" class="edge">
<title>Node26&#45;&gt;Node33</title>
<path fill="none" stroke="midnightblue" d="M353.57,-123.48C339,-113.84 315.06,-98.02 297.72,-86.55"/>
<polygon fill="midnightblue" stroke="midnightblue" points="299.6,-83.6 289.33,-81.01 295.74,-89.44 299.6,-83.6"/>
</g>
<!-- Node18 -->
<g id="node15" class="node">
<title>Node18</title>
<g id="a_node15"><a xlink:title=" ">
<polygon fill="none" stroke="#bfbfbf" points="322.46,-62 322.46,-81 412.46,-81 412.46,-62 322.46,-62"/>
<text text-anchor="middle" x="367.46" y="-69" font-family="Helvetica,sans-Serif" font-size="10.00">G4AutoLock.hh</text>
</a>
</g>
</g>
<!-- Node26&#45;&gt;Node18 -->
<g id="edge14" class="edge">
<title>Node26&#45;&gt;Node18</title>
<path fill="none" stroke="midnightblue" d="M366.6,-123.48C366.75,-115.08 366.97,-101.98 367.15,-91.16"/>
<polygon fill="midnightblue" stroke="midnightblue" points="370.65,-91.07 367.32,-81.01 363.65,-90.95 370.65,-91.07"/>
</g>
<!-- Node19 -->
<g id="node16" class="node">
<title>Node19</title>
<g id="a_node16"><a xlink:title=" ">
<polygon fill="none" stroke="#bfbfbf" points="136.46,-62 136.46,-81 230.46,-81 230.46,-62 136.46,-62"/>
<text text-anchor="middle" x="183.46" y="-69" font-family="Helvetica,sans-Serif" font-size="10.00">G4Threading.hh</text>
</a>
</g>
</g>
<!-- Node26&#45;&gt;Node19 -->
<g id="edge15" class="edge">
<title>Node26&#45;&gt;Node19</title>
<path fill="none" stroke="midnightblue" d="M340.24,-123.48C308.44,-113.14 254.7,-95.66 219.14,-84.1"/>
<polygon fill="midnightblue" stroke="midnightblue" points="220.22,-80.77 209.63,-81.01 218.06,-87.43 220.22,-80.77"/>
</g>
<!-- Node20 -->
<g id="node8" class="node">
<title>Node20</title>
<g id="a_node8"><a xlink:title=" ">
<polygon fill="none" stroke="#bfbfbf" points="330.96,-0.5 330.96,-19.5 449.96,-19.5 449.96,-0.5 330.96,-0.5"/>
<text text-anchor="middle" x="390.46" y="-7.5" font-family="Helvetica,sans-Serif" font-size="10.00">G4SystemOfUnits.hh</text>
</a>
</g>
</g>
<!-- Node27&#45;&gt;Node20 -->
<g id="edge7" class="edge">
<title>Node27&#45;&gt;Node20</title>
<path fill="none" stroke="midnightblue" d="M482.99,-61.98C465.18,-52.17 435.72,-35.93 414.83,-24.42"/>
<polygon fill="midnightblue" stroke="midnightblue" points="416.35,-21.27 405.91,-19.51 412.98,-27.4 416.35,-21.27"/>
</g>
<!-- Node28 -->
<g id="node9" class="node">
<title>Node28</title>
<g id="a_node9"><a xlink:title=" ">
<polygon fill="none" stroke="#bfbfbf" points="93.96,-0.5 93.96,-19.5 166.96,-19.5 166.96,-0.5 93.96,-0.5"/>
<text text-anchor="middle" x="130.46" y="-7.5" font-family="Helvetica,sans-Serif" font-size="10.00">G4Types.hh</text>
</a>
</g>
</g>
<!-- Node27&#45;&gt;Node28 -->
<g id="edge8" class="edge">
<title>Node27&#45;&gt;Node28</title>
<path fill="none" stroke="midnightblue" d="M454.53,-61.97C443.73,-59.94 432.19,-57.84 421.46,-56 335.61,-41.28 235.12,-26.22 177.52,-17.79"/>
<polygon fill="midnightblue" stroke="midnightblue" points="177.67,-14.28 167.27,-16.3 176.66,-21.21 177.67,-14.28"/>
</g>
<!-- Node29 -->
<g id="node10" class="node">
<title>Node29</title>
<g id="a_node10"><a xlink:title=" ">
<polygon fill="none" stroke="#bfbfbf" points="1171.46,-0.5 1171.46,-19.5 1209.46,-19.5 1209.46,-0.5 1171.46,-0.5"/>
<text text-anchor="middle" x="1190.46" y="-7.5" font-family="Helvetica,sans-Serif" font-size="10.00">map</text>
</a>
</g>
</g>
<!-- Node27&#45;&gt;Node29 -->
<g id="edge9" class="edge">
<title>Node27&#45;&gt;Node29</title>
<path fill="none" stroke="midnightblue" d="M538.55,-61.95C550.1,-59.74 562.74,-57.54 574.46,-56 798.99,-26.48 1072.29,-15.04 1161.09,-11.94"/>
<polygon fill="midnightblue" stroke="midnightblue" points="1161.34,-15.43 1171.22,-11.6 1161.11,-8.44 1161.34,-15.43"/>
</g>
<!-- Node30 -->
<g id="node11" class="node">
<title>Node30</title>
<g id="a_node11"><a xlink:title=" ">
<polygon fill="none" stroke="#bfbfbf" points="467.96,-0.5 467.96,-19.5 528.96,-19.5 528.96,-0.5 467.96,-0.5"/>
<text text-anchor="middle" x="498.46" y="-7.5" font-family="Helvetica,sans-Serif" font-size="10.00">TGraph.h</text>
</a>
</g>
</g>
<!-- Node27&#45;&gt;Node30 -->
<g id="edge10" class="edge">
<title>Node27&#45;&gt;Node30</title>
<path fill="none" stroke="midnightblue" d="M498.46,-61.98C498.46,-53.58 498.46,-40.48 498.46,-29.66"/>
<polygon fill="midnightblue" stroke="midnightblue" points="501.96,-29.51 498.46,-19.51 494.96,-29.51 501.96,-29.51"/>
</g>
<!-- Node31 -->
<g id="node12" class="node">
<title>Node31</title>
<g id="a_node12"><a xlink:title=" ">
<polygon fill="none" stroke="#bfbfbf" points="546.96,-0.5 546.96,-19.5 599.96,-19.5 599.96,-0.5 546.96,-0.5"/>
<text text-anchor="middle" x="573.46" y="-7.5" font-family="Helvetica,sans-Serif" font-size="10.00">TH2D.h</text>
</a>
</g>
</g>
<!-- Node27&#45;&gt;Node31 -->
<g id="edge11" class="edge">
<title>Node27&#45;&gt;Node31</title>
<path fill="none" stroke="midnightblue" d="M509.21,-61.98C521.01,-52.61 540.2,-37.38 554.54,-26.01"/>
<polygon fill="midnightblue" stroke="midnightblue" points="557.08,-28.47 562.74,-19.51 552.73,-22.98 557.08,-28.47"/>
</g>
<!-- Node34&#45;&gt;Node5 -->
<g id="edge17" class="edge">
<title>Node34&#45;&gt;Node5</title>
<path fill="none" stroke="midnightblue" d="M540.09,-123.48C563.29,-113.4 602.08,-96.55 628.67,-85"/>
<polygon fill="midnightblue" stroke="midnightblue" points="630.09,-88.2 637.87,-81.01 627.3,-81.78 630.09,-88.2"/>
</g>
<!-- Node34&#45;&gt;Node27 -->
<g id="edge19" class="edge">
<title>Node34&#45;&gt;Node27</title>
<path fill="none" stroke="midnightblue" d="M517.31,-123.48C514.14,-114.9 509.16,-101.43 505.11,-90.48"/>
<polygon fill="midnightblue" stroke="midnightblue" points="508.36,-89.17 501.61,-81.01 501.79,-91.6 508.36,-89.17"/>
</g>
<!-- Node34&#45;&gt;Node34 -->
<g id="edge18" class="edge">
<title>Node34&#45;&gt;Node34</title>
<path fill="none" stroke="midnightblue" d="M559.91,-142.53C586.72,-145.31 612.96,-142.13 612.96,-133 612.96,-125.01 592.87,-121.58 569.89,-122.71"/>
<polygon fill="midnightblue" stroke="midnightblue" points="569.62,-119.22 559.91,-123.47 570.15,-126.2 569.62,-119.22"/>
</g>
<!-- Node41&#45;&gt;Node26 -->
<g id="edge26" class="edge">
<title>Node41&#45;&gt;Node26</title>
<path fill="none" stroke="midnightblue" d="M1270.39,-179.87C1267.37,-179.55 1264.38,-179.26 1261.46,-179 899.19,-146.83 803.84,-173.93 438.33,-143.09"/>
<polygon fill="midnightblue" stroke="midnightblue" points="438.53,-139.6 428.27,-142.23 437.93,-146.57 438.53,-139.6"/>
</g>
<!-- Node42 -->
<g id="node23" class="node">
<title>Node42</title>
<g id="a_node23"><a xlink:title=" ">
<polygon fill="none" stroke="#bfbfbf" points="1149.96,-123.5 1149.96,-142.5 1266.96,-142.5 1266.96,-123.5 1149.96,-123.5"/>
<text text-anchor="middle" x="1208.46" y="-130.5" font-family="Helvetica,sans-Serif" font-size="10.00">G4UserRunAction.hh</text>
</a>
</g>
</g>
<!-- Node41&#45;&gt;Node42 -->
<g id="edge25" class="edge">
<title>Node41&#45;&gt;Node42</title>
<path fill="none" stroke="midnightblue" d="M1309.45,-179.44C1289.87,-170.64 1259.15,-156.81 1236.73,-146.72"/>
<polygon fill="midnightblue" stroke="midnightblue" points="1237.94,-143.43 1227.39,-142.52 1235.07,-149.81 1237.94,-143.43"/>
</g>
<!-- Node7 -->
<g id="node24" class="node">
<title>Node7</title>
<g id="a_node24"><a xlink:href="_o_m_sim_logger_8hh_source.html" target="_top" xlink:title=" ">
<polygon fill="none" stroke="black" points="1427.96,-123.5 1427.96,-142.5 1526.96,-142.5 1526.96,-123.5 1427.96,-123.5"/>
<text text-anchor="middle" x="1477.46" y="-130.5" font-family="Helvetica,sans-Serif" font-size="10.00">OMSimLogger.hh</text>
</a>
</g>
</g>
<!-- Node41&#45;&gt;Node7 -->
<g id="edge27" class="edge">
<title>Node41&#45;&gt;Node7</title>
<path fill="none" stroke="midnightblue" d="M1352.07,-179.44C1376.92,-170.44 1416.24,-156.19 1444.22,-146.05"/>
<polygon fill="midnightblue" stroke="midnightblue" points="1445.75,-149.21 1453.96,-142.52 1443.37,-142.63 1445.75,-149.21"/>
</g>
<!-- Node43 -->
<g id="node29" class="node">
<title>Node43</title>
<g id="a_node29"><a xlink:title=" ">
<polygon fill="none" stroke="#bfbfbf" points="1285.46,-123.5 1285.46,-142.5 1371.46,-142.5 1371.46,-123.5 1285.46,-123.5"/>
<text text-anchor="middle" x="1328.46" y="-130.5" font-family="Helvetica,sans-Serif" font-size="10.00">Randomize.hh</text>
</a>
</g>
</g>
<!-- Node41&#45;&gt;Node43 -->
<g id="edge32" class="edge">
<title>Node41&#45;&gt;Node43</title>
<path fill="none" stroke="midnightblue" d="M1328.46,-179.08C1328.46,-172.01 1328.46,-161.86 1328.46,-152.99"/>
<polygon fill="midnightblue" stroke="midnightblue" points="1331.96,-152.75 1328.46,-142.75 1324.96,-152.75 1331.96,-152.75"/>
</g>
<!-- Node44 -->
<g id="node30" class="node">
<title>Node44</title>
<g id="a_node30"><a xlink:title=" ">
<polygon fill="none" stroke="#bfbfbf" points="1067.46,-123.5 1067.46,-142.5 1131.46,-142.5 1131.46,-123.5 1067.46,-123.5"/>
<text text-anchor="middle" x="1099.46" y="-130.5" font-family="Helvetica,sans-Serif" font-size="10.00">G4Run.hh</text>
</a>
</g>
</g>
<!-- Node41&#45;&gt;Node44 -->
<g id="edge33" class="edge">
<title>Node41&#45;&gt;Node44</title>
<path fill="none" stroke="midnightblue" d="M1292.18,-179.44C1251.19,-169.78 1184.61,-154.08 1141.42,-143.89"/>
<polygon fill="midnightblue" stroke="midnightblue" points="1142.05,-140.45 1131.51,-141.56 1140.44,-147.26 1142.05,-140.45"/>
</g>
<!-- Node8 -->
<g id="node25" class="node">
<title>Node8</title>
<g id="a_node25"><a xlink:title=" ">
<polygon fill="none" stroke="#bfbfbf" points="1363.96,-62 1363.96,-81 1456.96,-81 1456.96,-62 1363.96,-62"/>
<text text-anchor="middle" x="1410.46" y="-69" font-family="Helvetica,sans-Serif" font-size="10.00">spdlog/spdlog.h</text>
</a>
</g>
</g>
<!-- Node7&#45;&gt;Node8 -->
<g id="edge28" class="edge">
<title>Node7&#45;&gt;Node8</title>
<path fill="none" stroke="midnightblue" d="M1467.86,-123.48C1457.41,-114.2 1440.49,-99.17 1427.73,-87.83"/>
<polygon fill="midnightblue" stroke="midnightblue" points="1429.84,-85.03 1420.04,-81.01 1425.2,-90.27 1429.84,-85.03"/>
</g>
<!-- Node9 -->
<g id="node26" class="node">
<title>Node9</title>
<g id="a_node26"><a xlink:title=" ">
<polygon fill="none" stroke="#bfbfbf" points="1474.96,-56.5 1474.96,-86.5 1585.96,-86.5 1585.96,-56.5 1474.96,-56.5"/>
<text text-anchor="start" x="1482.96" y="-74.5" font-family="Helvetica,sans-Serif" font-size="10.00">spdlog/sinks/stdout</text>
<text text-anchor="middle" x="1530.46" y="-63.5" font-family="Helvetica,sans-Serif" font-size="10.00">_color_sinks.h</text>
</a>
</g>
</g>
<!-- Node7&#45;&gt;Node9 -->
<g id="edge29" class="edge">
<title>Node7&#45;&gt;Node9</title>
<path fill="none" stroke="midnightblue" d="M1485.06,-123.48C1491.83,-115.87 1502.05,-104.4 1511.07,-94.26"/>
<polygon fill="midnightblue" stroke="midnightblue" points="1513.93,-96.32 1517.97,-86.52 1508.71,-91.66 1513.93,-96.32"/>
</g>
<!-- Node10 -->
<g id="node27" class="node">
<title>Node10</title>
<g id="a_node27"><a xlink:title=" ">
<polygon fill="none" stroke="#bfbfbf" points="1604.46,-62 1604.46,-81 1662.46,-81 1662.46,-62 1604.46,-62"/>
<text text-anchor="middle" x="1633.46" y="-69" font-family="Helvetica,sans-Serif" font-size="10.00">memory</text>
</a>
</g>
</g>
<!-- Node7&#45;&gt;Node10 -->
<g id="edge30" class="edge">
<title>Node7&#45;&gt;Node10</title>
<path fill="none" stroke="midnightblue" d="M1499.81,-123.48C1526.46,-113.31 1571.18,-96.26 1601.48,-84.7"/>
<polygon fill="midnightblue" stroke="midnightblue" points="1603.06,-87.84 1611.15,-81.01 1600.56,-81.3 1603.06,-87.84"/>
</g>
<!-- Node11 -->
<g id="node28" class="node">
<title>Node11</title>
<g id="a_node28"><a xlink:title=" ">
<polygon fill="none" stroke="#bfbfbf" points="1247.46,-62 1247.46,-81 1345.46,-81 1345.46,-62 1247.46,-62"/>
<text text-anchor="middle" x="1296.46" y="-69" font-family="Helvetica,sans-Serif" font-size="10.00">spdlog/fmt/fmt.h</text>
</a>
</g>
</g>
<!-- Node7&#45;&gt;Node11 -->
<g id="edge31" class="edge">
<title>Node7&#45;&gt;Node11</title>
<path fill="none" stroke="midnightblue" d="M1451.53,-123.48C1420.21,-113.18 1367.37,-95.81 1332.21,-84.25"/>
<polygon fill="midnightblue" stroke="midnightblue" points="1332.94,-80.81 1322.35,-81.01 1330.75,-87.46 1332.94,-80.81"/>
</g>
<!-- Node47 -->
<g id="node33" class="node">
<title>Node47</title>
<g id="a_node33"><a xlink:title=" ">
<polygon fill="none" stroke="#bfbfbf" points="953.96,-179.5 953.96,-198.5 1092.96,-198.5 1092.96,-179.5 953.96,-179.5"/>
<text text-anchor="middle" x="1023.46" y="-186.5" font-family="Helvetica,sans-Serif" font-size="10.00">G4UserTrackingAction.hh</text>
</a>
</g>
</g>
<!-- Node46&#45;&gt;Node47 -->
<g id="edge36" class="edge">
<title>Node46&#45;&gt;Node47</title>
<path fill="none" stroke="midnightblue" d="M1024.3,-235.08C1024.17,-228.01 1023.98,-217.86 1023.81,-208.99"/>
<polygon fill="midnightblue" stroke="midnightblue" points="1027.31,-208.68 1023.62,-198.75 1020.31,-208.81 1027.31,-208.68"/>
</g>
<!-- Node49 -->
<g id="node35" class="node">
<title>Node49</title>
<g id="a_node35"><a xlink:title=" ">
<polygon fill="none" stroke="#bfbfbf" points="1110.96,-179.5 1110.96,-198.5 1251.96,-198.5 1251.96,-179.5 1110.96,-179.5"/>
<text text-anchor="middle" x="1181.46" y="-186.5" font-family="Helvetica,sans-Serif" font-size="10.00">G4UserSteppingAction.hh</text>
</a>
</g>
</g>
<!-- Node48&#45;&gt;Node49 -->
<g id="edge38" class="edge">
<title>Node48&#45;&gt;Node49</title>
<path fill="none" stroke="midnightblue" d="M1181.46,-235.08C1181.46,-228.01 1181.46,-217.86 1181.46,-208.99"/>
<polygon fill="midnightblue" stroke="midnightblue" points="1184.96,-208.75 1181.46,-198.75 1177.96,-208.75 1184.96,-208.75"/>
</g>
<!-- Node51 -->
<g id="node37" class="node">
<title>Node51</title>
<g id="a_node37"><a xlink:href="_o_m_sim_command_args_table_8hh.html" target="_top" xlink:title="Definition of the OMSimCommandArgsTable singleton class, which controls user args.">
<polygon fill="none" stroke="black" points="1552.46,-179.5 1552.46,-198.5 1716.46,-198.5 1716.46,-179.5 1552.46,-179.5"/>
<text text-anchor="middle" x="1634.46" y="-186.5" font-family="Helvetica,sans-Serif" font-size="10.00">OMSimCommandArgsTable.hh</text>
</a>
</g>
</g>
<!-- Node50&#45;&gt;Node51 -->
<g id="edge40" class="edge">
<title>Node50&#45;&gt;Node51</title>
<path fill="none" stroke="midnightblue" d="M1876.83,-235.44C1826.16,-225.94 1744.39,-210.61 1690.03,-200.42"/>
<polygon fill="midnightblue" stroke="midnightblue" points="1690.36,-196.92 1679.88,-198.52 1689.07,-203.8 1690.36,-196.92"/>
</g>
<!-- Node54 -->
<g id="node40" class="node">
<title>Node54</title>
<g id="a_node40"><a xlink:title=" ">
<polygon fill="none" stroke="#bfbfbf" points="1873.46,-179.5 1873.46,-198.5 1971.46,-198.5 1971.46,-179.5 1873.46,-179.5"/>
<text text-anchor="middle" x="1922.46" y="-186.5" font-family="Helvetica,sans-Serif" font-size="10.00">G4UImanager.hh</text>
</a>
</g>
</g>
<!-- Node50&#45;&gt;Node54 -->
<g id="edge46" class="edge">
<title>Node50&#45;&gt;Node54</title>
<path fill="none" stroke="midnightblue" d="M1922.46,-235.08C1922.46,-228.01 1922.46,-217.86 1922.46,-208.99"/>
<polygon fill="midnightblue" stroke="midnightblue" points="1925.96,-208.75 1922.46,-198.75 1918.96,-208.75 1925.96,-208.75"/>
</g>
<!-- Node51&#45;&gt;Node29 -->
<g id="edge45" class="edge">
<title>Node51&#45;&gt;Node29</title>
<path fill="none" stroke="midnightblue" d="M1671.56,-179.46C1690.91,-172.92 1712.89,-161.72 1724.46,-143 1748.42,-104.24 1697.61,-70.2 1671.46,-56 1592.93,-13.36 1311.87,-10.53 1219.86,-10.78"/>
<polygon fill="midnightblue" stroke="midnightblue" points="1219.58,-7.28 1209.6,-10.82 1219.61,-14.28 1219.58,-7.28"/>
</g>
<!-- Node51&#45;&gt;Node33 -->
<g id="edge42" class="edge">
<title>Node51&#45;&gt;Node33</title>
<path fill="none" stroke="midnightblue" d="M1572.1,-179.47C1528.52,-172.43 1469.43,-160.68 1419.46,-143 1401.1,-136.5 1399.32,-127.89 1380.46,-123 1150.81,-63.43 545.81,-134.97 313.46,-87 310.45,-86.38 307.37,-85.53 304.33,-84.56"/>
<polygon fill="midnightblue" stroke="midnightblue" points="305.5,-81.27 294.91,-81.15 303.12,-87.85 305.5,-81.27"/>
</g>
<!-- Node51&#45;&gt;Node7 -->
<g id="edge41" class="edge">
<title>Node51&#45;&gt;Node7</title>
<path fill="none" stroke="midnightblue" d="M1609.58,-179.44C1583.17,-170.36 1541.25,-155.94 1511.72,-145.78"/>
<polygon fill="midnightblue" stroke="midnightblue" points="1512.82,-142.46 1502.22,-142.52 1510.54,-149.08 1512.82,-142.46"/>
</g>
<!-- Node52 -->
<g id="node38" class="node">
<title>Node52</title>
<g id="a_node38"><a xlink:title=" ">
<polygon fill="none" stroke="#bfbfbf" points="1545.46,-123.5 1545.46,-142.5 1629.46,-142.5 1629.46,-123.5 1545.46,-123.5"/>
<text text-anchor="middle" x="1587.46" y="-130.5" font-family="Helvetica,sans-Serif" font-size="10.00">boost/any.hpp</text>
</a>
</g>
</g>
<!-- Node51&#45;&gt;Node52 -->
<g id="edge43" class="edge">
<title>Node51&#45;&gt;Node52</title>
<path fill="none" stroke="midnightblue" d="M1626.7,-179.08C1619.92,-171.3 1609.92,-159.8 1601.71,-150.37"/>
<polygon fill="midnightblue" stroke="midnightblue" points="1604.28,-148 1595.08,-142.75 1599,-152.59 1604.28,-148"/>
</g>
<!-- Node53 -->
<g id="node39" class="node">
<title>Node53</title>
<g id="a_node39"><a xlink:title=" ">
<polygon fill="none" stroke="#bfbfbf" points="1647.46,-123.5 1647.46,-142.5 1715.46,-142.5 1715.46,-123.5 1647.46,-123.5"/>
<text text-anchor="middle" x="1681.46" y="-130.5" font-family="Helvetica,sans-Serif" font-size="10.00">sys/time.h</text>
</a>
</g>
</g>
<!-- Node51&#45;&gt;Node53 -->
<g id="edge44" class="edge">
<title>Node51&#45;&gt;Node53</title>
<path fill="none" stroke="midnightblue" d="M1642.22,-179.08C1649,-171.3 1659,-159.8 1667.22,-150.37"/>
<polygon fill="midnightblue" stroke="midnightblue" points="1669.92,-152.59 1673.84,-142.75 1664.64,-148 1669.92,-152.59"/>
</g>
<!-- Node59&#45;&gt;Node26 -->
<g id="edge55" class="edge">
<title>Node59&#45;&gt;Node26</title>
<path fill="none" stroke="midnightblue" d="M196.47,-179.44C231.19,-170.16 286.75,-155.31 324.84,-145.13"/>
<polygon fill="midnightblue" stroke="midnightblue" points="325.85,-148.48 334.6,-142.52 324.04,-141.72 325.85,-148.48"/>
</g>
<!-- Node59&#45;&gt;Node28 -->
<g id="edge52" class="edge">
<title>Node59&#45;&gt;Node28</title>
<path fill="none" stroke="midnightblue" d="M110.48,-179.49C84.46,-173.1 54.25,-162.03 32.46,-143 11.5,-124.7 10.85,-114.08 4.46,-87 1.3,-73.59 -3.48,-67.26 4.46,-56 22.34,-30.63 55.87,-19.49 83.85,-14.63"/>
<polygon fill="midnightblue" stroke="midnightblue" points="84.51,-18.07 93.87,-13.11 83.46,-11.15 84.51,-18.07"/>
</g>
<!-- Node59&#45;&gt;Node32 -->
<g id="edge54" class="edge">
<title>Node59&#45;&gt;Node32</title>
<path fill="none" stroke="midnightblue" d="M103.25,-180.83C79.62,-174.74 54.85,-163.54 40.46,-143 29,-126.64 40.33,-104.49 51.21,-89.41"/>
<polygon fill="midnightblue" stroke="midnightblue" points="54.02,-91.5 57.39,-81.45 48.49,-87.21 54.02,-91.5"/>
</g>
<!-- Node59&#45;&gt;Node33 -->
<g id="edge57" class="edge">
<title>Node59&#45;&gt;Node33</title>
<path fill="none" stroke="midnightblue" d="M197.27,-179.38C217.06,-172.58 241.3,-161.15 256.46,-143 268.67,-128.39 273.44,-106.76 275.3,-91.32"/>
<polygon fill="midnightblue" stroke="midnightblue" points="278.78,-91.63 276.2,-81.36 271.81,-91 278.78,-91.63"/>
</g>
<!-- Node60 -->
<g id="node46" class="node">
<title>Node60</title>
<g id="a_node46"><a xlink:title=" ">
<polygon fill="none" stroke="#bfbfbf" points="49.46,-123.5 49.46,-142.5 123.46,-142.5 123.46,-123.5 49.46,-123.5"/>
<text text-anchor="middle" x="86.46" y="-130.5" font-family="Helvetica,sans-Serif" font-size="10.00">G4String.hh</text>
</a>
</g>
</g>
<!-- Node59&#45;&gt;Node60 -->
<g id="edge53" class="edge">
<title>Node59&#45;&gt;Node60</title>
<path fill="none" stroke="midnightblue" d="M151.93,-179.32C139.88,-170.98 121.43,-158.21 107.19,-148.35"/>
<polygon fill="midnightblue" stroke="midnightblue" points="109.18,-145.47 98.96,-142.65 105.19,-151.22 109.18,-145.47"/>
</g>
<!-- Node61 -->
<g id="node47" class="node">
<title>Node61</title>
<g id="a_node47"><a xlink:title=" ">
<polygon fill="none" stroke="#bfbfbf" points="141.96,-123.5 141.96,-142.5 188.96,-142.5 188.96,-123.5 141.96,-123.5"/>
<text text-anchor="middle" x="165.46" y="-130.5" font-family="Helvetica,sans-Serif" font-size="10.00">vector</text>
</a>
</g>
</g>
<!-- Node59&#45;&gt;Node61 -->
<g id="edge56" class="edge">
<title>Node59&#45;&gt;Node61</title>
<path fill="none" stroke="midnightblue" d="M164.63,-179.08C164.76,-172.01 164.95,-161.86 165.11,-152.99"/>
<polygon fill="midnightblue" stroke="midnightblue" points="168.61,-152.81 165.3,-142.75 161.61,-152.68 168.61,-152.81"/>
</g>
<!-- Node62 -->
<g id="node48" class="node">
<title>Node62</title>
<g id="a_node48"><a xlink:title=" ">
<polygon fill="none" stroke="#bfbfbf" points="206.96,-123.5 206.96,-142.5 247.96,-142.5 247.96,-123.5 206.96,-123.5"/>
<text text-anchor="middle" x="227.46" y="-130.5" font-family="Helvetica,sans-Serif" font-size="10.00">tuple</text>
</a>
</g>
</g>
<!-- Node59&#45;&gt;Node62 -->
<g id="edge58" class="edge">
<title>Node59&#45;&gt;Node62</title>
<path fill="none" stroke="midnightblue" d="M174.58,-179.32C183.99,-171.26 198.21,-159.08 209.53,-149.37"/>
<polygon fill="midnightblue" stroke="midnightblue" points="211.84,-152 217.16,-142.83 207.28,-146.68 211.84,-152"/>
</g>
<!-- Node64&#45;&gt;Node3 -->
<g id="edge63" class="edge">
<title>Node64&#45;&gt;Node3</title>
<path fill="none" stroke="midnightblue" d="M386.5,-291.08C383.25,-283.77 378.54,-273.18 374.51,-264.1"/>
<polygon fill="midnightblue" stroke="midnightblue" points="377.61,-262.47 370.35,-254.75 371.21,-265.31 377.61,-262.47"/>
</g>
</g>
</svg>
