<?xml version="1.0" encoding="UTF-8" standalone="no"?>
<!DOCTYPE svg PUBLIC "-//W3C//DTD SVG 1.1//EN"
 "http://www.w3.org/Graphics/SVG/1.1/DTD/svg11.dtd">
<!-- Generated by graphviz version 2.43.0 (0)
 -->
<!-- Title: OMSimDataFileTypes.hh Pages: 1 -->
<svg width="1104pt" height="218pt"
 viewBox="0.00 0.00 1103.50 218.00" xmlns="http://www.w3.org/2000/svg" xmlns:xlink="http://www.w3.org/1999/xlink">
<g id="graph0" class="graph" transform="scale(1 1) rotate(0) translate(4 214)">
<title>OMSimDataFileTypes.hh</title>
<!-- Node1 -->
<g id="node1" class="node">
<title>Node1</title>
<g id="a_node1"><a xlink:title="Collection of classes and methods to handle material creation from user data in json files.">
<polygon fill="#bfbfbf" stroke="black" points="538,-190.5 538,-209.5 673,-209.5 673,-190.5 538,-190.5"/>
<text text-anchor="middle" x="605.5" y="-197.5" font-family="Helvetica,sans-Serif" font-size="10.00">OMSimDataFileTypes.hh</text>
</a>
</g>
</g>
<!-- Node2 -->
<g id="node2" class="node">
<title>Node2</title>
<g id="a_node2"><a xlink:href="_o_m_sim_op_boundary_process_8hh_source.html" target="_top" xlink:title=" ">
<polygon fill="none" stroke="black" points="238.5,-129 238.5,-148 402.5,-148 402.5,-129 238.5,-129"/>
<text text-anchor="middle" x="320.5" y="-136" font-family="Helvetica,sans-Serif" font-size="10.00">OMSimOpBoundaryProcess.hh</text>
</a>
</g>
</g>
<!-- Node1&#45;&gt;Node2 -->
<g id="edge1" class="edge">
<title>Node1&#45;&gt;Node2</title>
<path fill="none" stroke="midnightblue" d="M564.67,-190.48C513.66,-179.83 426.4,-161.61 371.18,-150.08"/>
<polygon fill="midnightblue" stroke="midnightblue" points="371.76,-146.63 361.26,-148.01 370.33,-153.48 371.76,-146.63"/>
</g>
<!-- Node8 -->
<g id="node8" class="node">
<title>Node8</title>
<g id="a_node8"><a xlink:title=" ">
<polygon fill="none" stroke="#bfbfbf" points="421,-129 421,-148 528,-148 528,-129 421,-129"/>
<text text-anchor="middle" x="474.5" y="-136" font-family="Helvetica,sans-Serif" font-size="10.00">G4NistManager.hh</text>
</a>
</g>
</g>
<!-- Node1&#45;&gt;Node8 -->
<g id="edge7" class="edge">
<title>Node1&#45;&gt;Node8</title>
<path fill="none" stroke="midnightblue" d="M586.73,-190.48C564.65,-180.45 527.78,-163.7 502.36,-152.15"/>
<polygon fill="midnightblue" stroke="midnightblue" points="503.79,-148.96 493.23,-148.01 500.89,-155.33 503.79,-148.96"/>
</g>
<!-- Node9 -->
<g id="node9" class="node">
<title>Node9</title>
<g id="a_node9"><a xlink:title=" ">
<polygon fill="none" stroke="#bfbfbf" points="546,-129 546,-148 665,-148 665,-129 546,-129"/>
<text text-anchor="middle" x="605.5" y="-136" font-family="Helvetica,sans-Serif" font-size="10.00">G4SystemOfUnits.hh</text>
</a>
</g>
</g>
<!-- Node1&#45;&gt;Node9 -->
<g id="edge8" class="edge">
<title>Node1&#45;&gt;Node9</title>
<path fill="none" stroke="midnightblue" d="M605.5,-190.48C605.5,-182.08 605.5,-168.98 605.5,-158.16"/>
<polygon fill="midnightblue" stroke="midnightblue" points="609,-158.01 605.5,-148.01 602,-158.01 609,-158.01"/>
</g>
<!-- Node10 -->
<g id="node10" class="node">
<title>Node10</title>
<g id="a_node10"><a xlink:title=" ">
<polygon fill="none" stroke="#bfbfbf" points="683,-123.5 683,-153.5 796,-153.5 796,-123.5 683,-123.5"/>
<text text-anchor="start" x="691" y="-141.5" font-family="Helvetica,sans-Serif" font-size="10.00">boost/property_tree</text>
<text text-anchor="middle" x="739.5" y="-130.5" font-family="Helvetica,sans-Serif" font-size="10.00">/json_parser.hpp</text>
</a>
</g>
</g>
<!-- Node1&#45;&gt;Node10 -->
<g id="edge9" class="edge">
<title>Node1&#45;&gt;Node10</title>
<path fill="none" stroke="midnightblue" d="M624.7,-190.48C643.87,-181.96 673.92,-168.62 698.47,-157.72"/>
<polygon fill="midnightblue" stroke="midnightblue" points="700.2,-160.78 707.92,-153.52 697.36,-154.38 700.2,-160.78"/>
</g>
<!-- Node11 -->
<g id="node11" class="node">
<title>Node11</title>
<g id="a_node11"><a xlink:href="_o_m_sim_command_args_table_8hh.html" target="_top" xlink:title="Definition of the OMSimCommandArgsTable singleton class, which controls user args.">
<polygon fill="none" stroke="black" points="814.5,-129 814.5,-148 978.5,-148 978.5,-129 814.5,-129"/>
<text text-anchor="middle" x="896.5" y="-136" font-family="Helvetica,sans-Serif" font-size="10.00">OMSimCommandArgsTable.hh</text>
</a>
</g>
</g>
<!-- Node1&#45;&gt;Node11 -->
<g id="edge10" class="edge">
<title>Node1&#45;&gt;Node11</title>
<path fill="none" stroke="midnightblue" d="M647.19,-190.48C699.27,-179.83 788.37,-161.61 844.75,-150.08"/>
<polygon fill="midnightblue" stroke="midnightblue" points="845.79,-153.44 854.88,-148.01 844.39,-146.58 845.79,-153.44"/>
</g>
<!-- Node3 -->
<g id="node3" class="node">
<title>Node3</title>
<g id="a_node3"><a xlink:title=" ">
<polygon fill="none" stroke="#bfbfbf" points="0,-67.5 0,-86.5 113,-86.5 113,-67.5 0,-67.5"/>
<text text-anchor="middle" x="56.5" y="-74.5" font-family="Helvetica,sans-Serif" font-size="10.00">G4OpticalPhoton.hh</text>
</a>
</g>
</g>
<!-- Node2&#45;&gt;Node3 -->
<g id="edge2" class="edge">
<title>Node2&#45;&gt;Node3</title>
<path fill="none" stroke="midnightblue" d="M282.68,-128.98C235.63,-118.37 155.27,-100.26 104.08,-88.72"/>
<polygon fill="midnightblue" stroke="midnightblue" points="104.78,-85.29 94.25,-86.51 103.24,-92.12 104.78,-85.29"/>
</g>
<!-- Node4 -->
<g id="node4" class="node">
<title>Node4</title>
<g id="a_node4"><a xlink:title=" ">
<polygon fill="none" stroke="#bfbfbf" points="131.5,-67.5 131.5,-86.5 247.5,-86.5 247.5,-67.5 131.5,-67.5"/>
<text text-anchor="middle" x="189.5" y="-74.5" font-family="Helvetica,sans-Serif" font-size="10.00">G4OpticalSurface.hh</text>
</a>
</g>
</g>
<!-- Node2&#45;&gt;Node4 -->
<g id="edge3" class="edge">
<title>Node2&#45;&gt;Node4</title>
<path fill="none" stroke="midnightblue" d="M301.73,-128.98C279.65,-118.95 242.78,-102.2 217.36,-90.65"/>
<polygon fill="midnightblue" stroke="midnightblue" points="218.79,-87.46 208.23,-86.51 215.89,-93.83 218.79,-87.46"/>
</g>
<!-- Node5 -->
<g id="node5" class="node">
<title>Node5</title>
<g id="a_node5"><a xlink:title=" ">
<polygon fill="none" stroke="#bfbfbf" points="265.5,-67.5 265.5,-86.5 375.5,-86.5 375.5,-67.5 265.5,-67.5"/>
<text text-anchor="middle" x="320.5" y="-74.5" font-family="Helvetica,sans-Serif" font-size="10.00">G4RandomTools.hh</text>
</a>
</g>
</g>
<!-- Node2&#45;&gt;Node5 -->
<g id="edge4" class="edge">
<title>Node2&#45;&gt;Node5</title>
<path fill="none" stroke="midnightblue" d="M320.5,-128.98C320.5,-120.58 320.5,-107.48 320.5,-96.66"/>
<polygon fill="midnightblue" stroke="midnightblue" points="324,-96.51 320.5,-86.51 317,-96.51 324,-96.51"/>
</g>
<!-- Node6 -->
<g id="node6" class="node">
<title>Node6</title>
<g id="a_node6"><a xlink:title=" ">
<polygon fill="none" stroke="#bfbfbf" points="393.5,-67.5 393.5,-86.5 523.5,-86.5 523.5,-67.5 393.5,-67.5"/>
<text text-anchor="middle" x="458.5" y="-74.5" font-family="Helvetica,sans-Serif" font-size="10.00">G4VDiscreteProcess.hh</text>
</a>
</g>
</g>
<!-- Node2&#45;&gt;Node6 -->
<g id="edge5" class="edge">
<title>Node2&#45;&gt;Node6</title>
<path fill="none" stroke="midnightblue" d="M340.27,-128.98C363.64,-118.9 402.71,-102.05 429.5,-90.5"/>
<polygon fill="midnightblue" stroke="midnightblue" points="430.97,-93.68 438.76,-86.51 428.2,-87.25 430.97,-93.68"/>
</g>
<!-- Node7 -->
<g id="node7" class="node">
<title>Node7</title>
<g id="a_node7"><a xlink:title=" ">
<polygon fill="none" stroke="#bfbfbf" points="542,-67.5 542,-86.5 699,-86.5 699,-67.5 542,-67.5"/>
<text text-anchor="middle" x="620.5" y="-74.5" font-family="Helvetica,sans-Serif" font-size="10.00">G4VUserTrackInformation.hh</text>
</a>
</g>
</g>
<!-- Node2&#45;&gt;Node7 -->
<g id="edge6" class="edge">
<title>Node2&#45;&gt;Node7</title>
<path fill="none" stroke="midnightblue" d="M363.48,-128.98C417.28,-118.3 509.41,-100.03 567.51,-88.51"/>
<polygon fill="midnightblue" stroke="midnightblue" points="568.47,-91.89 577.6,-86.51 567.11,-85.02 568.47,-91.89"/>
</g>
<!-- Node12 -->
<g id="node12" class="node">
<title>Node12</title>
<g id="a_node12"><a xlink:href="_o_m_sim_logger_8hh_source.html" target="_top" xlink:title=" ">
<polygon fill="none" stroke="black" points="735,-67.5 735,-86.5 834,-86.5 834,-67.5 735,-67.5"/>
<text text-anchor="middle" x="784.5" y="-74.5" font-family="Helvetica,sans-Serif" font-size="10.00">OMSimLogger.hh</text>
</a>
</g>
</g>
<!-- Node11&#45;&gt;Node12 -->
<g id="edge11" class="edge">
<title>Node11&#45;&gt;Node12</title>
<path fill="none" stroke="midnightblue" d="M880.45,-128.98C861.91,-119.12 831.16,-102.79 809.48,-91.27"/>
<polygon fill="midnightblue" stroke="midnightblue" points="810.99,-88.11 800.52,-86.51 807.71,-94.29 810.99,-88.11"/>
</g>
<!-- Node17 -->
<g id="node17" class="node">
<title>Node17</title>
<g id="a_node17"><a xlink:title=" ">
<polygon fill="none" stroke="#bfbfbf" points="852,-67.5 852,-86.5 907,-86.5 907,-67.5 852,-67.5"/>
<text text-anchor="middle" x="879.5" y="-74.5" font-family="Helvetica,sans-Serif" font-size="10.00">fstream</text>
</a>
</g>
</g>
<!-- Node11&#45;&gt;Node17 -->
<g id="edge16" class="edge">
<title>Node11&#45;&gt;Node17</title>
<path fill="none" stroke="midnightblue" d="M894.06,-128.98C891.64,-120.49 887.84,-107.2 884.73,-96.32"/>
<polygon fill="midnightblue" stroke="midnightblue" points="888.04,-95.16 881.93,-86.51 881.31,-97.09 888.04,-95.16"/>
</g>
<!-- Node18 -->
<g id="node18" class="node">
<title>Node18</title>
<g id="a_node18"><a xlink:title=" ">
<polygon fill="none" stroke="#bfbfbf" points="925.5,-67.5 925.5,-86.5 1009.5,-86.5 1009.5,-67.5 925.5,-67.5"/>
<text text-anchor="middle" x="967.5" y="-74.5" font-family="Helvetica,sans-Serif" font-size="10.00">boost/any.hpp</text>
</a>
</g>
</g>
<!-- Node11&#45;&gt;Node18 -->
<g id="edge17" class="edge">
<title>Node11&#45;&gt;Node18</title>
<path fill="none" stroke="midnightblue" d="M906.67,-128.98C917.85,-119.61 936.02,-104.38 949.59,-93.01"/>
<polygon fill="midnightblue" stroke="midnightblue" points="951.93,-95.61 957.35,-86.51 947.43,-90.25 951.93,-95.61"/>
</g>
<!-- Node19 -->
<g id="node19" class="node">
<title>Node19</title>
<g id="a_node19"><a xlink:title=" ">
<polygon fill="none" stroke="#bfbfbf" points="1027.5,-67.5 1027.5,-86.5 1095.5,-86.5 1095.5,-67.5 1027.5,-67.5"/>
<text text-anchor="middle" x="1061.5" y="-74.5" font-family="Helvetica,sans-Serif" font-size="10.00">sys/time.h</text>
</a>
</g>
</g>
<!-- Node11&#45;&gt;Node19 -->
<g id="edge18" class="edge">
<title>Node11&#45;&gt;Node19</title>
<path fill="none" stroke="midnightblue" d="M920.14,-128.98C948.44,-118.77 996.03,-101.61 1028.09,-90.05"/>
<polygon fill="midnightblue" stroke="midnightblue" points="1029.68,-93.19 1037.9,-86.51 1027.31,-86.61 1029.68,-93.19"/>
</g>
<!-- Node13 -->
<g id="node13" class="node">
<title>Node13</title>
<g id="a_node13"><a xlink:title=" ">
<polygon fill="none" stroke="#bfbfbf" points="566,-6 566,-25 659,-25 659,-6 566,-6"/>
<text text-anchor="middle" x="612.5" y="-13" font-family="Helvetica,sans-Serif" font-size="10.00">spdlog/spdlog.h</text>
</a>
</g>
</g>
<!-- Node12&#45;&gt;Node13 -->
<g id="edge12" class="edge">
<title>Node12&#45;&gt;Node13</title>
<path fill="none" stroke="midnightblue" d="M759.86,-67.48C730.22,-57.22 680.32,-39.96 646.9,-28.4"/>
<polygon fill="midnightblue" stroke="midnightblue" points="647.69,-24.97 637.1,-25.01 645.4,-31.59 647.69,-24.97"/>
</g>
<!-- Node14 -->
<g id="node14" class="node">
<title>Node14</title>
<g id="a_node14"><a xlink:title=" ">
<polygon fill="none" stroke="#bfbfbf" points="677,-0.5 677,-30.5 788,-30.5 788,-0.5 677,-0.5"/>
<text text-anchor="start" x="685" y="-18.5" font-family="Helvetica,sans-Serif" font-size="10.00">spdlog/sinks/stdout</text>
<text text-anchor="middle" x="732.5" y="-7.5" font-family="Helvetica,sans-Serif" font-size="10.00">_color_sinks.h</text>
</a>
</g>
</g>
<!-- Node12&#45;&gt;Node14 -->
<g id="edge13" class="edge">
<title>Node12&#45;&gt;Node14</title>
<path fill="none" stroke="midnightblue" d="M777.05,-67.48C770.4,-59.87 760.38,-48.4 751.52,-38.26"/>
<polygon fill="midnightblue" stroke="midnightblue" points="753.97,-35.75 744.76,-30.52 748.7,-40.36 753.97,-35.75"/>
</g>
<!-- Node15 -->
<g id="node15" class="node">
<title>Node15</title>
<g id="a_node15"><a xlink:title=" ">
<polygon fill="none" stroke="#bfbfbf" points="806.5,-6 806.5,-25 864.5,-25 864.5,-6 806.5,-6"/>
<text text-anchor="middle" x="835.5" y="-13" font-family="Helvetica,sans-Serif" font-size="10.00">memory</text>
</a>
</g>
</g>
<!-- Node12&#45;&gt;Node15 -->
<g id="edge14" class="edge">
<title>Node12&#45;&gt;Node15</title>
<path fill="none" stroke="midnightblue" d="M791.81,-67.48C799.53,-58.46 811.91,-44.02 821.52,-32.81"/>
<polygon fill="midnightblue" stroke="midnightblue" points="824.36,-34.88 828.21,-25.01 819.04,-30.32 824.36,-34.88"/>
</g>
<!-- Node16 -->
<g id="node16" class="node">
<title>Node16</title>
<g id="a_node16"><a xlink:title=" ">
<polygon fill="none" stroke="#bfbfbf" points="882.5,-6 882.5,-25 980.5,-25 980.5,-6 882.5,-6"/>
<text text-anchor="middle" x="931.5" y="-13" font-family="Helvetica,sans-Serif" font-size="10.00">spdlog/fmt/fmt.h</text>
</a>
</g>
</g>
<!-- Node12&#45;&gt;Node16 -->
<g id="edge15" class="edge">
<title>Node12&#45;&gt;Node16</title>
<path fill="none" stroke="midnightblue" d="M805.56,-67.48C830.56,-57.36 872.44,-40.4 900.99,-28.85"/>
<polygon fill="midnightblue" stroke="midnightblue" points="902.52,-32.01 910.48,-25.01 899.89,-25.52 902.52,-32.01"/>
</g>
</g>
</svg>
