<?xml version="1.0" encoding="UTF-8" standalone="no"?>
<!DOCTYPE svg PUBLIC "-//W3C//DTD SVG 1.1//EN"
 "http://www.w3.org/Graphics/SVG/1.1/DTD/svg11.dtd">
<!-- Generated by graphviz version 2.43.0 (0)
 -->
<!-- Title: OMSimEffectiveAreaDetector.cc Pages: 1 -->
<svg width="1523pt" height="431pt"
 viewBox="0.00 0.00 1523.00 431.00" xmlns="http://www.w3.org/2000/svg" xmlns:xlink="http://www.w3.org/1999/xlink">
<g id="graph0" class="graph" transform="scale(1 1) rotate(0) translate(4 427)">
<title>OMSimEffectiveAreaDetector.cc</title>
<polygon fill="white" stroke="transparent" points="-4,4 -4,-427 1519,-427 1519,4 -4,4"/>
<!-- Node1 -->
<g id="node1" class="node">
<title>Node1</title>
<g id="a_node1"><a xlink:title=" ">
<polygon fill="#bfbfbf" stroke="black" points="760,-403.5 760,-422.5 932,-422.5 932,-403.5 760,-403.5"/>
<text text-anchor="middle" x="846" y="-410.5" font-family="Helvetica,sans-Serif" font-size="10.00">OMSimEffectiveAreaDetector.cc</text>
</a>
</g>
</g>
<!-- Node2 -->
<g id="node2" class="node">
<title>Node2</title>
<g id="a_node2"><a xlink:href="_o_m_sim_effective_area_detector_8hh.html" target="_top" xlink:title="Defines the OMSimEffectiveAreaDetector class for effective area simulation detector construction.">
<polygon fill="white" stroke="black" points="103.5,-347.5 103.5,-366.5 276.5,-366.5 276.5,-347.5 103.5,-347.5"/>
<text text-anchor="middle" x="190" y="-354.5" font-family="Helvetica,sans-Serif" font-size="10.00">OMSimEffectiveAreaDetector.hh</text>
</a>
</g>
</g>
<!-- Node1&#45;&gt;Node2 -->
<g id="edge1" class="edge">
<title>Node1&#45;&gt;Node2</title>
<path fill="none" stroke="midnightblue" d="M759.9,-404.91C637.72,-394.86 414.72,-376.5 286.9,-365.98"/>
<polygon fill="midnightblue" stroke="midnightblue" points="286.98,-362.47 276.73,-365.14 286.41,-369.45 286.98,-362.47"/>
</g>
<!-- Node14 -->
<g id="node14" class="node">
<title>Node14</title>
<g id="a_node14"><a xlink:href="_o_m_sim_hit_manager_8hh.html" target="_top" xlink:title="Defines structures and classes related to optical module photon hit management.">
<polygon fill="white" stroke="black" points="927.5,-179.5 927.5,-198.5 1050.5,-198.5 1050.5,-179.5 927.5,-179.5"/>
<text text-anchor="middle" x="989" y="-186.5" font-family="Helvetica,sans-Serif" font-size="10.00">OMSimHitManager.hh</text>
</a>
</g>
</g>
<!-- Node1&#45;&gt;Node14 -->
<g id="edge58" class="edge">
<title>Node1&#45;&gt;Node14</title>
<path fill="none" stroke="midnightblue" d="M880.6,-403.45C922.62,-391 991.63,-363.44 1022,-311 1041.54,-277.25 1017.58,-231.49 1001.43,-207.05"/>
<polygon fill="midnightblue" stroke="midnightblue" points="1004.29,-205.04 995.73,-198.8 998.53,-209.02 1004.29,-205.04"/>
</g>
<!-- Node25 -->
<g id="node25" class="node">
<title>Node25</title>
<g id="a_node25"><a xlink:title=" ">
<polygon fill="white" stroke="#bfbfbf" points="0,-235.5 0,-254.5 62,-254.5 62,-235.5 0,-235.5"/>
<text text-anchor="middle" x="31" y="-242.5" font-family="Helvetica,sans-Serif" font-size="10.00">G4Orb.hh</text>
</a>
</g>
</g>
<!-- Node1&#45;&gt;Node25 -->
<g id="edge60" class="edge">
<title>Node1&#45;&gt;Node25</title>
<path fill="none" stroke="midnightblue" d="M759.68,-410.8C574.61,-407.64 151.68,-397.2 94,-367 55.47,-346.83 39.8,-293.34 34.02,-264.71"/>
<polygon fill="midnightblue" stroke="midnightblue" points="37.44,-263.97 32.21,-254.76 30.56,-265.22 37.44,-263.97"/>
</g>
<!-- Node27 -->
<g id="node27" class="node">
<title>Node27</title>
<g id="a_node27"><a xlink:href="_o_m_sim_p_d_o_m_8hh.html" target="_top" xlink:title="Implementation of the pDOM/Gen1 DOM class.">
<polygon fill="white" stroke="black" points="797.5,-291.5 797.5,-310.5 894.5,-310.5 894.5,-291.5 797.5,-291.5"/>
<text text-anchor="middle" x="846" y="-298.5" font-family="Helvetica,sans-Serif" font-size="10.00">OMSimPDOM.hh</text>
</a>
</g>
</g>
<!-- Node1&#45;&gt;Node27 -->
<g id="edge30" class="edge">
<title>Node1&#45;&gt;Node27</title>
<path fill="none" stroke="midnightblue" d="M846,-403.37C846,-385.62 846,-344.67 846,-320.6"/>
<polygon fill="midnightblue" stroke="midnightblue" points="849.5,-320.59 846,-310.59 842.5,-320.59 849.5,-320.59"/>
</g>
<!-- Node28 -->
<g id="node28" class="node">
<title>Node28</title>
<g id="a_node28"><a xlink:href="_o_m_sim_l_o_m16_8hh.html" target="_top" xlink:title="Construction of LOM16.">
<polygon fill="white" stroke="black" points="678.5,-291.5 678.5,-310.5 779.5,-310.5 779.5,-291.5 678.5,-291.5"/>
<text text-anchor="middle" x="729" y="-298.5" font-family="Helvetica,sans-Serif" font-size="10.00">OMSimLOM16.hh</text>
</a>
</g>
</g>
<!-- Node1&#45;&gt;Node28 -->
<g id="edge33" class="edge">
<title>Node1&#45;&gt;Node28</title>
<path fill="none" stroke="midnightblue" d="M836.82,-403.37C817.17,-384.89 770.79,-341.29 745.75,-317.74"/>
<polygon fill="midnightblue" stroke="midnightblue" points="747.82,-314.89 738.14,-310.59 743.03,-319.99 747.82,-314.89"/>
</g>
<!-- Node29 -->
<g id="node29" class="node">
<title>Node29</title>
<g id="a_node29"><a xlink:href="_o_m_sim_l_o_m18_8hh.html" target="_top" xlink:title="Construction of LOM18.">
<polygon fill="white" stroke="black" points="465.5,-347.5 465.5,-366.5 566.5,-366.5 566.5,-347.5 465.5,-347.5"/>
<text text-anchor="middle" x="516" y="-354.5" font-family="Helvetica,sans-Serif" font-size="10.00">OMSimLOM18.hh</text>
</a>
</g>
</g>
<!-- Node1&#45;&gt;Node29 -->
<g id="edge36" class="edge">
<title>Node1&#45;&gt;Node29</title>
<path fill="none" stroke="midnightblue" d="M793.71,-403.44C734.75,-393.79 639,-378.13 576.76,-367.94"/>
<polygon fill="midnightblue" stroke="midnightblue" points="577.12,-364.46 566.69,-366.29 575.99,-371.36 577.12,-364.46"/>
</g>
<!-- Node30 -->
<g id="node30" class="node">
<title>Node30</title>
<g id="a_node30"><a xlink:title=" ">
<polygon fill="white" stroke="#bfbfbf" points="544,-291.5 544,-310.5 660,-310.5 660,-291.5 544,-291.5"/>
<text text-anchor="middle" x="602" y="-298.5" font-family="Helvetica,sans-Serif" font-size="10.00">G4LogicalVolume.hh</text>
</a>
</g>
</g>
<!-- Node1&#45;&gt;Node30 -->
<g id="edge66" class="edge">
<title>Node1&#45;&gt;Node30</title>
<path fill="none" stroke="midnightblue" d="M826.85,-403.37C784.09,-384.09 680.64,-337.45 630.37,-314.79"/>
<polygon fill="midnightblue" stroke="midnightblue" points="631.61,-311.51 621.06,-310.59 628.74,-317.89 631.61,-311.51"/>
</g>
<!-- Node32 -->
<g id="node32" class="node">
<title>Node32</title>
<g id="a_node32"><a xlink:href="_o_m_sim_d_e_g_g_8hh.html" target="_top" xlink:title="Construction of the DEGG class.">
<polygon fill="white" stroke="black" points="247.5,-291.5 247.5,-310.5 342.5,-310.5 342.5,-291.5 247.5,-291.5"/>
<text text-anchor="middle" x="295" y="-298.5" font-family="Helvetica,sans-Serif" font-size="10.00">OMSimDEGG.hh</text>
</a>
</g>
</g>
<!-- Node1&#45;&gt;Node32 -->
<g id="edge41" class="edge">
<title>Node1&#45;&gt;Node32</title>
<path fill="none" stroke="midnightblue" d="M759.83,-408.61C680.2,-403.94 559.14,-392.9 457,-367 407.43,-354.43 352.83,-330.19 321.36,-315.13"/>
<polygon fill="midnightblue" stroke="midnightblue" points="322.52,-311.8 311.99,-310.58 319.46,-318.1 322.52,-311.8"/>
</g>
<!-- Node33 -->
<g id="node33" class="node">
<title>Node33</title>
<g id="a_node33"><a xlink:href="_o_m_sim_m_d_o_m_8hh.html" target="_top" xlink:title="Construction of mDOM.">
<polygon fill="white" stroke="black" points="913,-291.5 913,-310.5 1013,-310.5 1013,-291.5 913,-291.5"/>
<text text-anchor="middle" x="963" y="-298.5" font-family="Helvetica,sans-Serif" font-size="10.00">OMSimMDOM.hh</text>
</a>
</g>
</g>
<!-- Node1&#45;&gt;Node33 -->
<g id="edge44" class="edge">
<title>Node1&#45;&gt;Node33</title>
<path fill="none" stroke="midnightblue" d="M855.18,-403.37C874.83,-384.89 921.21,-341.29 946.25,-317.74"/>
<polygon fill="midnightblue" stroke="midnightblue" points="948.97,-319.99 953.86,-310.59 944.18,-314.89 948.97,-319.99"/>
</g>
<!-- Node36 -->
<g id="node36" class="node">
<title>Node36</title>
<g id="a_node36"><a xlink:href="_o_m_sim_command_args_table_8hh.html" target="_top" xlink:title="Definition of the OMSimCommandArgsTable singleton class, which controls user args.">
<polygon fill="white" stroke="black" points="1072,-347.5 1072,-366.5 1236,-366.5 1236,-347.5 1072,-347.5"/>
<text text-anchor="middle" x="1154" y="-354.5" font-family="Helvetica,sans-Serif" font-size="10.00">OMSimCommandArgsTable.hh</text>
</a>
</g>
</g>
<!-- Node1&#45;&gt;Node36 -->
<g id="edge51" class="edge">
<title>Node1&#45;&gt;Node36</title>
<path fill="none" stroke="midnightblue" d="M894.8,-403.44C949.21,-393.9 1037.17,-378.48 1095.29,-368.29"/>
<polygon fill="midnightblue" stroke="midnightblue" points="1096.18,-371.69 1105.42,-366.52 1094.97,-364.8 1096.18,-371.69"/>
</g>
<!-- Node42 -->
<g id="node42" class="node">
<title>Node42</title>
<g id="a_node42"><a xlink:title=" ">
<polygon fill="white" stroke="#bfbfbf" points="1254.5,-347.5 1254.5,-366.5 1355.5,-366.5 1355.5,-347.5 1254.5,-347.5"/>
<text text-anchor="middle" x="1305" y="-354.5" font-family="Helvetica,sans-Serif" font-size="10.00">G4SDManager.hh</text>
</a>
</g>
</g>
<!-- Node1&#45;&gt;Node42 -->
<g id="edge59" class="edge">
<title>Node1&#45;&gt;Node42</title>
<path fill="none" stroke="midnightblue" d="M929.41,-403.49C1007.92,-395.28 1129.04,-382.07 1244.22,-367.06"/>
<polygon fill="midnightblue" stroke="midnightblue" points="1244.82,-370.51 1254.28,-365.74 1243.91,-363.57 1244.82,-370.51"/>
</g>
<!-- Node43 -->
<g id="node43" class="node">
<title>Node43</title>
<g id="a_node43"><a xlink:href="_o_m_sim_sensitive_detector_8hh.html" target="_top" xlink:title=" ">
<polygon fill="white" stroke="black" points="1246.5,-179.5 1246.5,-198.5 1399.5,-198.5 1399.5,-179.5 1246.5,-179.5"/>
<text text-anchor="middle" x="1323" y="-186.5" font-family="Helvetica,sans-Serif" font-size="10.00">OMSimSensitiveDetector.hh</text>
</a>
</g>
</g>
<!-- Node1&#45;&gt;Node43 -->
<g id="edge61" class="edge">
<title>Node1&#45;&gt;Node43</title>
<path fill="none" stroke="midnightblue" d="M932.19,-408.51C1070.08,-402.33 1328.52,-388.1 1365,-367 1397.86,-347.99 1416.59,-326.82 1404,-291 1391.55,-255.59 1360.88,-223.4 1341.05,-205.3"/>
<polygon fill="midnightblue" stroke="midnightblue" points="1343.36,-202.66 1333.55,-198.64 1338.71,-207.9 1343.36,-202.66"/>
</g>
<!-- Node46 -->
<g id="node46" class="node">
<title>Node46</title>
<g id="a_node46"><a xlink:title=" ">
<polygon fill="white" stroke="#bfbfbf" points="1451,-347.5 1451,-366.5 1515,-366.5 1515,-347.5 1451,-347.5"/>
<text text-anchor="middle" x="1483" y="-354.5" font-family="Helvetica,sans-Serif" font-size="10.00">G4Box.hh</text>
</a>
</g>
</g>
<!-- Node1&#45;&gt;Node46 -->
<g id="edge67" class="edge">
<title>Node1&#45;&gt;Node46</title>
<path fill="none" stroke="midnightblue" d="M932.46,-408.59C1047.9,-403.32 1258.55,-391.17 1437,-367 1438.27,-366.83 1439.56,-366.64 1440.86,-366.45"/>
<polygon fill="midnightblue" stroke="midnightblue" points="1441.62,-369.87 1450.91,-364.78 1440.47,-362.96 1441.62,-369.87"/>
</g>
<!-- Node3 -->
<g id="node3" class="node">
<title>Node3</title>
<g id="a_node3"><a xlink:href="_o_m_sim_detector_construction_8hh.html" target="_top" xlink:title=" ">
<polygon fill="white" stroke="black" points="59,-291.5 59,-310.5 229,-310.5 229,-291.5 59,-291.5"/>
<text text-anchor="middle" x="144" y="-298.5" font-family="Helvetica,sans-Serif" font-size="10.00">OMSimDetectorConstruction.hh</text>
</a>
</g>
</g>
<!-- Node2&#45;&gt;Node3 -->
<g id="edge2" class="edge">
<title>Node2&#45;&gt;Node3</title>
<path fill="none" stroke="midnightblue" d="M182.4,-347.08C175.77,-339.3 165.98,-327.8 157.94,-318.37"/>
<polygon fill="midnightblue" stroke="midnightblue" points="160.6,-316.09 151.45,-310.75 155.27,-320.63 160.6,-316.09"/>
</g>
<!-- Node4 -->
<g id="node4" class="node">
<title>Node4</title>
<g id="a_node4"><a xlink:href="_o_m_sim_optical_module_8hh.html" target="_top" xlink:title=" ">
<polygon fill="white" stroke="black" points="563.5,-235.5 563.5,-254.5 700.5,-254.5 700.5,-235.5 563.5,-235.5"/>
<text text-anchor="middle" x="632" y="-242.5" font-family="Helvetica,sans-Serif" font-size="10.00">OMSimOpticalModule.hh</text>
</a>
</g>
</g>
<!-- Node3&#45;&gt;Node4 -->
<g id="edge3" class="edge">
<title>Node3&#45;&gt;Node4</title>
<path fill="none" stroke="midnightblue" d="M221.06,-291.47C311.79,-281.43 461.7,-264.84 553.19,-254.72"/>
<polygon fill="midnightblue" stroke="midnightblue" points="553.68,-258.19 563.23,-253.61 552.91,-251.23 553.68,-258.19"/>
</g>
<!-- Node3&#45;&gt;Node25 -->
<g id="edge28" class="edge">
<title>Node3&#45;&gt;Node25</title>
<path fill="none" stroke="midnightblue" d="M126.09,-291.44C107.75,-282.68 78.99,-268.94 57.91,-258.86"/>
<polygon fill="midnightblue" stroke="midnightblue" points="59.35,-255.67 48.82,-254.52 56.33,-261.99 59.35,-255.67"/>
</g>
<!-- Node26 -->
<g id="node26" class="node">
<title>Node26</title>
<g id="a_node26"><a xlink:title=" ">
<polygon fill="white" stroke="#bfbfbf" points="80,-235.5 80,-254.5 258,-254.5 258,-235.5 80,-235.5"/>
<text text-anchor="middle" x="169" y="-242.5" font-family="Helvetica,sans-Serif" font-size="10.00">G4VUserDetectorConstruction.hh</text>
</a>
</g>
</g>
<!-- Node3&#45;&gt;Node26 -->
<g id="edge29" class="edge">
<title>Node3&#45;&gt;Node26</title>
<path fill="none" stroke="midnightblue" d="M148.13,-291.08C151.51,-283.77 156.42,-273.18 160.62,-264.1"/>
<polygon fill="midnightblue" stroke="midnightblue" points="163.92,-265.3 164.95,-254.75 157.57,-262.36 163.92,-265.3"/>
</g>
<!-- Node5 -->
<g id="node5" class="node">
<title>Node5</title>
<g id="a_node5"><a xlink:href="abc_detector_component_8hh.html" target="_top" xlink:title="Provides helper base class abcDetectorComponent for constructing and managing detector components in ...">
<polygon fill="white" stroke="black" points="514.5,-123.5 514.5,-142.5 661.5,-142.5 661.5,-123.5 514.5,-123.5"/>
<text text-anchor="middle" x="588" y="-130.5" font-family="Helvetica,sans-Serif" font-size="10.00">abcDetectorComponent.hh</text>
</a>
</g>
</g>
<!-- Node4&#45;&gt;Node5 -->
<g id="edge4" class="edge">
<title>Node4&#45;&gt;Node5</title>
<path fill="none" stroke="midnightblue" d="M616.27,-235.24C604.11,-227.48 588.19,-214.93 581,-199 574.37,-184.31 577.25,-165.91 581.13,-152.44"/>
<polygon fill="midnightblue" stroke="midnightblue" points="584.48,-153.45 584.29,-142.86 577.83,-151.26 584.48,-153.45"/>
</g>
<!-- Node4&#45;&gt;Node14 -->
<g id="edge13" class="edge">
<title>Node4&#45;&gt;Node14</title>
<path fill="none" stroke="midnightblue" d="M688.57,-235.44C752.15,-225.83 855.27,-210.23 922.62,-200.04"/>
<polygon fill="midnightblue" stroke="midnightblue" points="923.33,-203.47 932.7,-198.52 922.29,-196.55 923.33,-203.47"/>
</g>
<!-- Node22 -->
<g id="node22" class="node">
<title>Node22</title>
<g id="a_node22"><a xlink:href="_o_m_sim_p_m_t_construction_8hh.html" target="_top" xlink:title="Construction of the PMTs.">
<polygon fill="white" stroke="black" points="589.5,-179.5 589.5,-198.5 738.5,-198.5 738.5,-179.5 589.5,-179.5"/>
<text text-anchor="middle" x="664" y="-186.5" font-family="Helvetica,sans-Serif" font-size="10.00">OMSimPMTConstruction.hh</text>
</a>
</g>
</g>
<!-- Node4&#45;&gt;Node22 -->
<g id="edge22" class="edge">
<title>Node4&#45;&gt;Node22</title>
<path fill="none" stroke="midnightblue" d="M637.28,-235.08C641.71,-227.61 648.16,-216.72 653.62,-207.52"/>
<polygon fill="midnightblue" stroke="midnightblue" points="656.73,-209.14 658.81,-198.75 650.71,-205.57 656.73,-209.14"/>
</g>
<!-- Node6 -->
<g id="node6" class="node">
<title>Node6</title>
<g id="a_node6"><a xlink:href="_o_m_sim_input_data_8hh.html" target="_top" xlink:title="Definition of ParameterTable and InputDataManager.">
<polygon fill="white" stroke="black" points="205.5,-67.5 205.5,-86.5 320.5,-86.5 320.5,-67.5 205.5,-67.5"/>
<text text-anchor="middle" x="263" y="-74.5" font-family="Helvetica,sans-Serif" font-size="10.00">OMSimInputData.hh</text>
</a>
</g>
</g>
<!-- Node5&#45;&gt;Node6 -->
<g id="edge5" class="edge">
<title>Node5&#45;&gt;Node6</title>
<path fill="none" stroke="midnightblue" d="M536.5,-123.44C478.86,-113.87 385.51,-98.36 324.19,-88.17"/>
<polygon fill="midnightblue" stroke="midnightblue" points="324.69,-84.7 314.26,-86.52 323.55,-91.61 324.69,-84.7"/>
</g>
<!-- Node10 -->
<g id="node10" class="node">
<title>Node10</title>
<g id="a_node10"><a xlink:title=" ">
<polygon fill="white" stroke="#bfbfbf" points="338.5,-67.5 338.5,-86.5 445.5,-86.5 445.5,-67.5 338.5,-67.5"/>
<text text-anchor="middle" x="392" y="-74.5" font-family="Helvetica,sans-Serif" font-size="10.00">G4Transform3D.hh</text>
</a>
</g>
</g>
<!-- Node5&#45;&gt;Node10 -->
<g id="edge9" class="edge">
<title>Node5&#45;&gt;Node10</title>
<path fill="none" stroke="midnightblue" d="M556.94,-123.44C523.4,-114.2 469.8,-99.44 432.86,-89.26"/>
<polygon fill="midnightblue" stroke="midnightblue" points="433.48,-85.8 422.91,-86.52 431.62,-92.55 433.48,-85.8"/>
</g>
<!-- Node11 -->
<g id="node11" class="node">
<title>Node11</title>
<g id="a_node11"><a xlink:title=" ">
<polygon fill="white" stroke="#bfbfbf" points="464,-67.5 464,-86.5 572,-86.5 572,-67.5 464,-67.5"/>
<text text-anchor="middle" x="518" y="-74.5" font-family="Helvetica,sans-Serif" font-size="10.00">G4VisAttributes.hh</text>
</a>
</g>
</g>
<!-- Node5&#45;&gt;Node11 -->
<g id="edge10" class="edge">
<title>Node5&#45;&gt;Node11</title>
<path fill="none" stroke="midnightblue" d="M576.75,-123.32C566.2,-115.18 550.2,-102.84 537.56,-93.09"/>
<polygon fill="midnightblue" stroke="midnightblue" points="539.51,-90.17 529.45,-86.83 535.23,-95.71 539.51,-90.17"/>
</g>
<!-- Node12 -->
<g id="node12" class="node">
<title>Node12</title>
<g id="a_node12"><a xlink:title=" ">
<polygon fill="white" stroke="#bfbfbf" points="590.5,-67.5 590.5,-86.5 715.5,-86.5 715.5,-67.5 590.5,-67.5"/>
<text text-anchor="middle" x="653" y="-74.5" font-family="Helvetica,sans-Serif" font-size="10.00">G4SubtractionSolid.hh</text>
</a>
</g>
</g>
<!-- Node5&#45;&gt;Node12 -->
<g id="edge11" class="edge">
<title>Node5&#45;&gt;Node12</title>
<path fill="none" stroke="midnightblue" d="M598.44,-123.32C608.15,-115.26 622.82,-103.08 634.5,-93.37"/>
<polygon fill="midnightblue" stroke="midnightblue" points="636.91,-95.92 642.37,-86.83 632.44,-90.53 636.91,-95.92"/>
</g>
<!-- Node13 -->
<g id="node13" class="node">
<title>Node13</title>
<g id="a_node13"><a xlink:title=" ">
<polygon fill="white" stroke="#bfbfbf" points="734,-67.5 734,-86.5 844,-86.5 844,-67.5 734,-67.5"/>
<text text-anchor="middle" x="789" y="-74.5" font-family="Helvetica,sans-Serif" font-size="10.00">G4PVPlacement.hh</text>
</a>
</g>
</g>
<!-- Node5&#45;&gt;Node13 -->
<g id="edge12" class="edge">
<title>Node5&#45;&gt;Node13</title>
<path fill="none" stroke="midnightblue" d="M619.85,-123.44C654.4,-114.16 709.68,-99.31 747.58,-89.13"/>
<polygon fill="midnightblue" stroke="midnightblue" points="748.55,-92.49 757.3,-86.52 746.73,-85.73 748.55,-92.49"/>
</g>
<!-- Node7 -->
<g id="node7" class="node">
<title>Node7</title>
<g id="a_node7"><a xlink:title=" ">
<polygon fill="white" stroke="#bfbfbf" points="118.5,-6 118.5,-25 261.5,-25 261.5,-6 118.5,-6"/>
<text text-anchor="middle" x="190" y="-13" font-family="Helvetica,sans-Serif" font-size="10.00">G4OpBoundaryProcess.hh</text>
</a>
</g>
</g>
<!-- Node6&#45;&gt;Node7 -->
<g id="edge6" class="edge">
<title>Node6&#45;&gt;Node7</title>
<path fill="none" stroke="midnightblue" d="M252.54,-67.48C241.05,-58.11 222.37,-42.88 208.41,-31.51"/>
<polygon fill="midnightblue" stroke="midnightblue" points="210.4,-28.61 200.44,-25.01 205.98,-34.04 210.4,-28.61"/>
</g>
<!-- Node8 -->
<g id="node8" class="node">
<title>Node8</title>
<g id="a_node8"><a xlink:title=" ">
<polygon fill="white" stroke="#bfbfbf" points="611.5,-6 611.5,-25 730.5,-25 730.5,-6 611.5,-6"/>
<text text-anchor="middle" x="671" y="-13" font-family="Helvetica,sans-Serif" font-size="10.00">G4SystemOfUnits.hh</text>
</a>
</g>
</g>
<!-- Node6&#45;&gt;Node8 -->
<g id="edge7" class="edge">
<title>Node6&#45;&gt;Node8</title>
<path fill="none" stroke="midnightblue" d="M320.59,-67.6C394.69,-56.79 523.27,-38.04 602.37,-26.51"/>
<polygon fill="midnightblue" stroke="midnightblue" points="603.32,-29.91 612.71,-25 602.31,-22.98 603.32,-29.91"/>
</g>
<!-- Node9 -->
<g id="node9" class="node">
<title>Node9</title>
<g id="a_node9"><a xlink:title=" ">
<polygon fill="white" stroke="#bfbfbf" points="279.5,-0.5 279.5,-30.5 392.5,-30.5 392.5,-0.5 279.5,-0.5"/>
<text text-anchor="start" x="287.5" y="-18.5" font-family="Helvetica,sans-Serif" font-size="10.00">boost/property_tree</text>
<text text-anchor="middle" x="336" y="-7.5" font-family="Helvetica,sans-Serif" font-size="10.00">/json_parser.hpp</text>
</a>
</g>
</g>
<!-- Node6&#45;&gt;Node9 -->
<g id="edge8" class="edge">
<title>Node6&#45;&gt;Node9</title>
<path fill="none" stroke="midnightblue" d="M273.46,-67.48C283.16,-59.57 297.99,-47.48 310.77,-37.07"/>
<polygon fill="midnightblue" stroke="midnightblue" points="313.26,-39.55 318.8,-30.52 308.83,-34.13 313.26,-39.55"/>
</g>
<!-- Node15 -->
<g id="node15" class="node">
<title>Node15</title>
<g id="a_node15"><a xlink:href="_o_m_sim_p_m_t_response_8hh.html" target="_top" xlink:title="Provides simulation for PMT response. This class is responsible for transforming hits on photocathode...">
<polygon fill="white" stroke="black" points="906.5,-123.5 906.5,-142.5 1041.5,-142.5 1041.5,-123.5 906.5,-123.5"/>
<text text-anchor="middle" x="974" y="-130.5" font-family="Helvetica,sans-Serif" font-size="10.00">OMSimPMTResponse.hh</text>
</a>
</g>
</g>
<!-- Node14&#45;&gt;Node15 -->
<g id="edge14" class="edge">
<title>Node14&#45;&gt;Node15</title>
<path fill="none" stroke="midnightblue" d="M986.52,-179.08C984.51,-171.85 981.61,-161.41 979.11,-152.4"/>
<polygon fill="midnightblue" stroke="midnightblue" points="982.48,-151.45 976.43,-142.75 975.74,-153.32 982.48,-151.45"/>
</g>
<!-- Node20 -->
<g id="node20" class="node">
<title>Node20</title>
<g id="a_node20"><a xlink:title=" ">
<polygon fill="white" stroke="#bfbfbf" points="1132.5,-123.5 1132.5,-142.5 1235.5,-142.5 1235.5,-123.5 1132.5,-123.5"/>
<text text-anchor="middle" x="1184" y="-130.5" font-family="Helvetica,sans-Serif" font-size="10.00">G4ThreeVector.hh</text>
</a>
</g>
</g>
<!-- Node14&#45;&gt;Node20 -->
<g id="edge20" class="edge">
<title>Node14&#45;&gt;Node20</title>
<path fill="none" stroke="midnightblue" d="M1019.9,-179.44C1053.27,-170.2 1106.59,-155.44 1143.35,-145.26"/>
<polygon fill="midnightblue" stroke="midnightblue" points="1144.54,-148.56 1153.25,-142.52 1142.67,-141.81 1144.54,-148.56"/>
</g>
<!-- Node21 -->
<g id="node21" class="node">
<title>Node21</title>
<g id="a_node21"><a xlink:title=" ">
<polygon fill="white" stroke="#bfbfbf" points="1059.5,-123.5 1059.5,-142.5 1114.5,-142.5 1114.5,-123.5 1059.5,-123.5"/>
<text text-anchor="middle" x="1087" y="-130.5" font-family="Helvetica,sans-Serif" font-size="10.00">fstream</text>
</a>
</g>
</g>
<!-- Node14&#45;&gt;Node21 -->
<g id="edge21" class="edge">
<title>Node14&#45;&gt;Node21</title>
<path fill="none" stroke="midnightblue" d="M1004.75,-179.32C1020.32,-170.74 1044.38,-157.49 1062.46,-147.52"/>
<polygon fill="midnightblue" stroke="midnightblue" points="1064.22,-150.55 1071.29,-142.65 1060.85,-144.42 1064.22,-150.55"/>
</g>
<!-- Node15&#45;&gt;Node8 -->
<g id="edge15" class="edge">
<title>Node15&#45;&gt;Node8</title>
<path fill="none" stroke="midnightblue" d="M958.5,-123.42C928.35,-106.78 863.79,-71.33 853,-67 809.89,-49.69 758.75,-36.07 721.67,-27.36"/>
<polygon fill="midnightblue" stroke="midnightblue" points="722.14,-23.88 711.61,-25.04 720.56,-30.7 722.14,-23.88"/>
</g>
<!-- Node16 -->
<g id="node16" class="node">
<title>Node16</title>
<g id="a_node16"><a xlink:title=" ">
<polygon fill="white" stroke="#bfbfbf" points="900.5,-67.5 900.5,-86.5 973.5,-86.5 973.5,-67.5 900.5,-67.5"/>
<text text-anchor="middle" x="937" y="-74.5" font-family="Helvetica,sans-Serif" font-size="10.00">G4Types.hh</text>
</a>
</g>
</g>
<!-- Node15&#45;&gt;Node16 -->
<g id="edge16" class="edge">
<title>Node15&#45;&gt;Node16</title>
<path fill="none" stroke="midnightblue" d="M967.89,-123.08C962.72,-115.53 955.15,-104.49 948.81,-95.23"/>
<polygon fill="midnightblue" stroke="midnightblue" points="951.54,-93.02 943,-86.75 945.76,-96.98 951.54,-93.02"/>
</g>
<!-- Node17 -->
<g id="node17" class="node">
<title>Node17</title>
<g id="a_node17"><a xlink:title=" ">
<polygon fill="white" stroke="#bfbfbf" points="992,-67.5 992,-86.5 1030,-86.5 1030,-67.5 992,-67.5"/>
<text text-anchor="middle" x="1011" y="-74.5" font-family="Helvetica,sans-Serif" font-size="10.00">map</text>
</a>
</g>
</g>
<!-- Node15&#45;&gt;Node17 -->
<g id="edge17" class="edge">
<title>Node15&#45;&gt;Node17</title>
<path fill="none" stroke="midnightblue" d="M980.11,-123.08C985.28,-115.53 992.85,-104.49 999.19,-95.23"/>
<polygon fill="midnightblue" stroke="midnightblue" points="1002.24,-96.98 1005,-86.75 996.46,-93.02 1002.24,-96.98"/>
</g>
<!-- Node18 -->
<g id="node18" class="node">
<title>Node18</title>
<g id="a_node18"><a xlink:title=" ">
<polygon fill="white" stroke="#bfbfbf" points="1048.5,-67.5 1048.5,-86.5 1109.5,-86.5 1109.5,-67.5 1048.5,-67.5"/>
<text text-anchor="middle" x="1079" y="-74.5" font-family="Helvetica,sans-Serif" font-size="10.00">TGraph.h</text>
</a>
</g>
</g>
<!-- Node15&#45;&gt;Node18 -->
<g id="edge18" class="edge">
<title>Node15&#45;&gt;Node18</title>
<path fill="none" stroke="midnightblue" d="M990.87,-123.32C1007.71,-114.66 1033.81,-101.24 1053.24,-91.25"/>
<polygon fill="midnightblue" stroke="midnightblue" points="1054.88,-94.34 1062.17,-86.65 1051.68,-88.12 1054.88,-94.34"/>
</g>
<!-- Node19 -->
<g id="node19" class="node">
<title>Node19</title>
<g id="a_node19"><a xlink:title=" ">
<polygon fill="white" stroke="#bfbfbf" points="1127.5,-67.5 1127.5,-86.5 1180.5,-86.5 1180.5,-67.5 1127.5,-67.5"/>
<text text-anchor="middle" x="1154" y="-74.5" font-family="Helvetica,sans-Serif" font-size="10.00">TH2D.h</text>
</a>
</g>
</g>
<!-- Node15&#45;&gt;Node19 -->
<g id="edge19" class="edge">
<title>Node15&#45;&gt;Node19</title>
<path fill="none" stroke="midnightblue" d="M1002.52,-123.44C1033.61,-114.12 1083.43,-99.17 1117.38,-88.99"/>
<polygon fill="midnightblue" stroke="midnightblue" points="1118.8,-92.21 1127.37,-85.99 1116.79,-85.51 1118.8,-92.21"/>
</g>
<!-- Node22&#45;&gt;Node5 -->
<g id="edge23" class="edge">
<title>Node22&#45;&gt;Node5</title>
<path fill="none" stroke="midnightblue" d="M651.79,-179.32C640.22,-171.11 622.62,-158.6 608.84,-148.81"/>
<polygon fill="midnightblue" stroke="midnightblue" points="610.61,-145.77 600.43,-142.83 606.56,-151.48 610.61,-145.77"/>
</g>
<!-- Node22&#45;&gt;Node15 -->
<g id="edge25" class="edge">
<title>Node22&#45;&gt;Node15</title>
<path fill="none" stroke="midnightblue" d="M713.12,-179.44C767.88,-169.9 856.41,-154.48 914.91,-144.29"/>
<polygon fill="midnightblue" stroke="midnightblue" points="915.86,-147.68 925.11,-142.52 914.66,-140.78 915.86,-147.68"/>
</g>
<!-- Node22&#45;&gt;Node22 -->
<g id="edge24" class="edge">
<title>Node22&#45;&gt;Node22</title>
<path fill="none" stroke="midnightblue" d="M703.45,-198.53C730.26,-201.31 756.5,-198.13 756.5,-189 756.5,-181.01 736.41,-177.58 713.43,-178.71"/>
<polygon fill="midnightblue" stroke="midnightblue" points="713.15,-175.22 703.45,-179.47 713.69,-182.2 713.15,-175.22"/>
</g>
<!-- Node23 -->
<g id="node23" class="node">
<title>Node23</title>
<g id="a_node23"><a xlink:title=" ">
<polygon fill="white" stroke="#bfbfbf" points="680,-123.5 680,-142.5 778,-142.5 778,-123.5 680,-123.5"/>
<text text-anchor="middle" x="729" y="-130.5" font-family="Helvetica,sans-Serif" font-size="10.00">G4UnionSolid.hh</text>
</a>
</g>
</g>
<!-- Node22&#45;&gt;Node23 -->
<g id="edge26" class="edge">
<title>Node22&#45;&gt;Node23</title>
<path fill="none" stroke="midnightblue" d="M674.44,-179.32C684.15,-171.26 698.82,-159.08 710.5,-149.37"/>
<polygon fill="midnightblue" stroke="midnightblue" points="712.91,-151.92 718.37,-142.83 708.44,-146.53 712.91,-151.92"/>
</g>
<!-- Node24 -->
<g id="node24" class="node">
<title>Node24</title>
<g id="a_node24"><a xlink:title=" ">
<polygon fill="white" stroke="#bfbfbf" points="429.5,-123.5 429.5,-142.5 496.5,-142.5 496.5,-123.5 429.5,-123.5"/>
<text text-anchor="middle" x="463" y="-130.5" font-family="Helvetica,sans-Serif" font-size="10.00">G4Tubs.hh</text>
</a>
</g>
</g>
<!-- Node22&#45;&gt;Node24 -->
<g id="edge27" class="edge">
<title>Node22&#45;&gt;Node24</title>
<path fill="none" stroke="midnightblue" d="M632.15,-179.44C597.6,-170.16 542.32,-155.31 504.42,-145.13"/>
<polygon fill="midnightblue" stroke="midnightblue" points="505.27,-141.73 494.7,-142.52 503.45,-148.49 505.27,-141.73"/>
</g>
<!-- Node27&#45;&gt;Node4 -->
<g id="edge32" class="edge">
<title>Node27&#45;&gt;Node4</title>
<path fill="none" stroke="midnightblue" d="M812.09,-291.44C775.15,-282.12 715.95,-267.18 675.58,-257"/>
<polygon fill="midnightblue" stroke="midnightblue" points="676.3,-253.57 665.75,-254.52 674.59,-260.36 676.3,-253.57"/>
</g>
<!-- Node27&#45;&gt;Node22 -->
<g id="edge31" class="edge">
<title>Node27&#45;&gt;Node22</title>
<path fill="none" stroke="midnightblue" d="M831.72,-291.37C800.35,-272.41 725.22,-227 687.07,-203.94"/>
<polygon fill="midnightblue" stroke="midnightblue" points="688.58,-200.77 678.21,-198.59 684.96,-206.76 688.58,-200.77"/>
</g>
<!-- Node28&#45;&gt;Node4 -->
<g id="edge35" class="edge">
<title>Node28&#45;&gt;Node4</title>
<path fill="none" stroke="midnightblue" d="M713.42,-291.32C698,-282.74 674.19,-269.49 656.29,-259.52"/>
<polygon fill="midnightblue" stroke="midnightblue" points="657.99,-256.46 647.55,-254.65 654.58,-262.58 657.99,-256.46"/>
</g>
<!-- Node28&#45;&gt;Node22 -->
<g id="edge34" class="edge">
<title>Node28&#45;&gt;Node22</title>
<path fill="none" stroke="midnightblue" d="M727.91,-291.45C725.97,-278.46 721.01,-253.35 710,-235 703.22,-223.7 692.93,-213.27 683.8,-205.3"/>
<polygon fill="midnightblue" stroke="midnightblue" points="685.8,-202.41 675.87,-198.71 681.33,-207.79 685.8,-202.41"/>
</g>
<!-- Node29&#45;&gt;Node4 -->
<g id="edge38" class="edge">
<title>Node29&#45;&gt;Node4</title>
<path fill="none" stroke="midnightblue" d="M516.32,-347.36C517.25,-333.8 520.89,-307.4 535,-291 548.51,-275.3 568.66,-264.74 587.1,-257.82"/>
<polygon fill="midnightblue" stroke="midnightblue" points="588.26,-261.12 596.55,-254.52 585.95,-254.51 588.26,-261.12"/>
</g>
<!-- Node29&#45;&gt;Node22 -->
<g id="edge37" class="edge">
<title>Node29&#45;&gt;Node22</title>
<path fill="none" stroke="midnightblue" d="M515.21,-347.34C514.34,-334.64 513.79,-310.38 520,-291 528.95,-263.05 532.59,-253.95 555,-235 573.36,-219.48 597.8,-208.73 618.89,-201.64"/>
<polygon fill="midnightblue" stroke="midnightblue" points="620.15,-204.91 628.62,-198.54 618.03,-198.24 620.15,-204.91"/>
</g>
<!-- Node29&#45;&gt;Node30 -->
<g id="edge39" class="edge">
<title>Node29&#45;&gt;Node30</title>
<path fill="none" stroke="midnightblue" d="M529.82,-347.32C543.23,-338.9 563.82,-325.97 579.59,-316.07"/>
<polygon fill="midnightblue" stroke="midnightblue" points="581.61,-318.94 588.22,-310.65 577.89,-313.01 581.61,-318.94"/>
</g>
<!-- Node31 -->
<g id="node31" class="node">
<title>Node31</title>
<g id="a_node31"><a xlink:title=" ">
<polygon fill="white" stroke="#bfbfbf" points="360.5,-291.5 360.5,-310.5 449.5,-310.5 449.5,-291.5 360.5,-291.5"/>
<text text-anchor="middle" x="405" y="-298.5" font-family="Helvetica,sans-Serif" font-size="10.00">G4Polycone.hh</text>
</a>
</g>
</g>
<!-- Node29&#45;&gt;Node31 -->
<g id="edge40" class="edge">
<title>Node29&#45;&gt;Node31</title>
<path fill="none" stroke="midnightblue" d="M498.17,-347.32C480.28,-338.62 452.52,-325.12 431.95,-315.11"/>
<polygon fill="midnightblue" stroke="midnightblue" points="433.31,-311.88 422.79,-310.65 430.25,-318.18 433.31,-311.88"/>
</g>
<!-- Node32&#45;&gt;Node4 -->
<g id="edge43" class="edge">
<title>Node32&#45;&gt;Node4</title>
<path fill="none" stroke="midnightblue" d="M342.57,-292.38C401.73,-282.9 502.92,-266.68 568.61,-256.16"/>
<polygon fill="midnightblue" stroke="midnightblue" points="569.52,-259.56 578.84,-254.52 568.41,-252.64 569.52,-259.56"/>
</g>
<!-- Node32&#45;&gt;Node22 -->
<g id="edge42" class="edge">
<title>Node32&#45;&gt;Node22</title>
<path fill="none" stroke="midnightblue" d="M314.45,-291.45C345.56,-278.02 408.64,-251.77 464,-235 511.57,-220.58 566.76,-208.5 607.1,-200.5"/>
<polygon fill="midnightblue" stroke="midnightblue" points="607.89,-203.92 617.02,-198.56 606.54,-197.05 607.89,-203.92"/>
</g>
<!-- Node33&#45;&gt;Node4 -->
<g id="edge50" class="edge">
<title>Node33&#45;&gt;Node4</title>
<path fill="none" stroke="midnightblue" d="M912.73,-291.8C854.22,-282.25 757.58,-266.49 694.35,-256.17"/>
<polygon fill="midnightblue" stroke="midnightblue" points="694.55,-252.66 684.11,-254.5 693.42,-259.57 694.55,-252.66"/>
</g>
<!-- Node33&#45;&gt;Node22 -->
<g id="edge49" class="edge">
<title>Node33&#45;&gt;Node22</title>
<path fill="none" stroke="midnightblue" d="M939.54,-291.37C886.59,-271.89 757.72,-224.48 696.86,-202.09"/>
<polygon fill="midnightblue" stroke="midnightblue" points="697.95,-198.76 687.35,-198.59 695.53,-205.33 697.95,-198.76"/>
</g>
<!-- Node34 -->
<g id="node34" class="node">
<title>Node34</title>
<g id="a_node34"><a xlink:href="_o_m_sim_m_d_o_m_flasher_8hh.html" target="_top" xlink:title="Defines the mDOMFlasher class for simulating the 10 flashers in an mDOM optical module.">
<polygon fill="white" stroke="black" points="774.5,-179.5 774.5,-198.5 909.5,-198.5 909.5,-179.5 774.5,-179.5"/>
<text text-anchor="middle" x="842" y="-186.5" font-family="Helvetica,sans-Serif" font-size="10.00">OMSimMDOMFlasher.hh</text>
</a>
</g>
</g>
<!-- Node33&#45;&gt;Node34 -->
<g id="edge45" class="edge">
<title>Node33&#45;&gt;Node34</title>
<path fill="none" stroke="midnightblue" d="M953.51,-291.37C933.1,-272.81 884.8,-228.91 858.98,-205.44"/>
<polygon fill="midnightblue" stroke="midnightblue" points="861.2,-202.73 851.45,-198.59 856.5,-207.91 861.2,-202.73"/>
</g>
<!-- Node34&#45;&gt;Node5 -->
<g id="edge46" class="edge">
<title>Node34&#45;&gt;Node5</title>
<path fill="none" stroke="midnightblue" d="M801.75,-179.44C757.35,-170 685.85,-154.8 637.91,-144.61"/>
<polygon fill="midnightblue" stroke="midnightblue" points="638.57,-141.17 628.06,-142.52 637.11,-148.02 638.57,-141.17"/>
</g>
<!-- Node34&#45;&gt;Node23 -->
<g id="edge47" class="edge">
<title>Node34&#45;&gt;Node23</title>
<path fill="none" stroke="midnightblue" d="M824.09,-179.44C805.75,-170.68 776.99,-156.94 755.91,-146.86"/>
<polygon fill="midnightblue" stroke="midnightblue" points="757.35,-143.67 746.82,-142.52 754.33,-149.99 757.35,-143.67"/>
</g>
<!-- Node35 -->
<g id="node35" class="node">
<title>Node35</title>
<g id="a_node35"><a xlink:title=" ">
<polygon fill="white" stroke="#bfbfbf" points="796,-123.5 796,-142.5 888,-142.5 888,-123.5 796,-123.5"/>
<text text-anchor="middle" x="842" y="-130.5" font-family="Helvetica,sans-Serif" font-size="10.00">G4Navigator.hh</text>
</a>
</g>
</g>
<!-- Node34&#45;&gt;Node35 -->
<g id="edge48" class="edge">
<title>Node34&#45;&gt;Node35</title>
<path fill="none" stroke="midnightblue" d="M842,-179.08C842,-172.01 842,-161.86 842,-152.99"/>
<polygon fill="midnightblue" stroke="midnightblue" points="845.5,-152.75 842,-142.75 838.5,-152.75 845.5,-152.75"/>
</g>
<!-- Node36&#45;&gt;Node21 -->
<g id="edge55" class="edge">
<title>Node36&#45;&gt;Node21</title>
<path fill="none" stroke="midnightblue" d="M1137.36,-347.39C1124.45,-339.73 1107.37,-327.23 1099,-311 1072.22,-259.09 1078.53,-186.96 1083.6,-153.05"/>
<polygon fill="midnightblue" stroke="midnightblue" points="1087.13,-153.18 1085.29,-142.75 1080.22,-152.05 1087.13,-153.18"/>
</g>
<!-- Node37 -->
<g id="node37" class="node">
<title>Node37</title>
<g id="a_node37"><a xlink:href="_o_m_sim_logger_8hh.html" target="_top" xlink:title=" ">
<polygon fill="white" stroke="black" points="1107.5,-291.5 1107.5,-310.5 1206.5,-310.5 1206.5,-291.5 1107.5,-291.5"/>
<text text-anchor="middle" x="1157" y="-298.5" font-family="Helvetica,sans-Serif" font-size="10.00">OMSimLogger.hh</text>
</a>
</g>
</g>
<!-- Node36&#45;&gt;Node37 -->
<g id="edge52" class="edge">
<title>Node36&#45;&gt;Node37</title>
<path fill="none" stroke="midnightblue" d="M1154.5,-347.08C1154.89,-340.01 1155.45,-329.86 1155.95,-320.99"/>
<polygon fill="midnightblue" stroke="midnightblue" points="1159.45,-320.93 1156.51,-310.75 1152.46,-320.54 1159.45,-320.93"/>
</g>
<!-- Node40 -->
<g id="node40" class="node">
<title>Node40</title>
<g id="a_node40"><a xlink:title=" ">
<polygon fill="white" stroke="#bfbfbf" points="1225,-291.5 1225,-310.5 1309,-310.5 1309,-291.5 1225,-291.5"/>
<text text-anchor="middle" x="1267" y="-298.5" font-family="Helvetica,sans-Serif" font-size="10.00">boost/any.hpp</text>
</a>
</g>
</g>
<!-- Node36&#45;&gt;Node40 -->
<g id="edge56" class="edge">
<title>Node36&#45;&gt;Node40</title>
<path fill="none" stroke="midnightblue" d="M1171.91,-347.44C1190.25,-338.68 1219.01,-324.94 1240.09,-314.86"/>
<polygon fill="midnightblue" stroke="midnightblue" points="1241.67,-317.99 1249.18,-310.52 1238.65,-311.67 1241.67,-317.99"/>
</g>
<!-- Node41 -->
<g id="node41" class="node">
<title>Node41</title>
<g id="a_node41"><a xlink:title=" ">
<polygon fill="white" stroke="#bfbfbf" points="1327,-291.5 1327,-310.5 1395,-310.5 1395,-291.5 1327,-291.5"/>
<text text-anchor="middle" x="1361" y="-298.5" font-family="Helvetica,sans-Serif" font-size="10.00">sys/time.h</text>
</a>
</g>
</g>
<!-- Node36&#45;&gt;Node41 -->
<g id="edge57" class="edge">
<title>Node36&#45;&gt;Node41</title>
<path fill="none" stroke="midnightblue" d="M1186.8,-347.44C1222.38,-338.16 1279.31,-323.31 1318.35,-313.13"/>
<polygon fill="midnightblue" stroke="midnightblue" points="1319.56,-316.43 1328.35,-310.52 1317.79,-309.65 1319.56,-316.43"/>
</g>
<!-- Node38 -->
<g id="node38" class="node">
<title>Node38</title>
<g id="a_node38"><a xlink:title=" ">
<polygon fill="white" stroke="#bfbfbf" points="1120,-235.5 1120,-254.5 1170,-254.5 1170,-235.5 1120,-235.5"/>
<text text-anchor="middle" x="1145" y="-242.5" font-family="Helvetica,sans-Serif" font-size="10.00">stdio.h</text>
</a>
</g>
</g>
<!-- Node37&#45;&gt;Node38 -->
<g id="edge53" class="edge">
<title>Node37&#45;&gt;Node38</title>
<path fill="none" stroke="midnightblue" d="M1155.02,-291.08C1153.43,-283.93 1151.14,-273.64 1149.15,-264.69"/>
<polygon fill="midnightblue" stroke="midnightblue" points="1152.53,-263.75 1146.94,-254.75 1145.7,-265.27 1152.53,-263.75"/>
</g>
<!-- Node39 -->
<g id="node39" class="node">
<title>Node39</title>
<g id="a_node39"><a xlink:title=" ">
<polygon fill="white" stroke="#bfbfbf" points="1188,-235.5 1188,-254.5 1236,-254.5 1236,-235.5 1188,-235.5"/>
<text text-anchor="middle" x="1212" y="-242.5" font-family="Helvetica,sans-Serif" font-size="10.00">time.h</text>
</a>
</g>
</g>
<!-- Node37&#45;&gt;Node39 -->
<g id="edge54" class="edge">
<title>Node37&#45;&gt;Node39</title>
<path fill="none" stroke="midnightblue" d="M1166.08,-291.08C1174.17,-283.14 1186.2,-271.34 1195.91,-261.8"/>
<polygon fill="midnightblue" stroke="midnightblue" points="1198.4,-264.25 1203.09,-254.75 1193.5,-259.26 1198.4,-264.25"/>
</g>
<!-- Node43&#45;&gt;Node15 -->
<g id="edge64" class="edge">
<title>Node43&#45;&gt;Node15</title>
<path fill="none" stroke="midnightblue" d="M1267.7,-179.44C1205.67,-169.85 1105.14,-154.29 1039.3,-144.1"/>
<polygon fill="midnightblue" stroke="midnightblue" points="1039.46,-140.59 1029.04,-142.52 1038.39,-147.5 1039.46,-140.59"/>
</g>
<!-- Node43&#45;&gt;Node20 -->
<g id="edge63" class="edge">
<title>Node43&#45;&gt;Node20</title>
<path fill="none" stroke="midnightblue" d="M1300.98,-179.44C1277.9,-170.48 1241.44,-156.31 1215.36,-146.18"/>
<polygon fill="midnightblue" stroke="midnightblue" points="1216.51,-142.88 1205.92,-142.52 1213.98,-149.4 1216.51,-142.88"/>
</g>
<!-- Node44 -->
<g id="node44" class="node">
<title>Node44</title>
<g id="a_node44"><a xlink:title=" ">
<polygon fill="white" stroke="#bfbfbf" points="1254,-123.5 1254,-142.5 1392,-142.5 1392,-123.5 1254,-123.5"/>
<text text-anchor="middle" x="1323" y="-130.5" font-family="Helvetica,sans-Serif" font-size="10.00">G4VSensitiveDetector.hh</text>
</a>
</g>
</g>
<!-- Node43&#45;&gt;Node44 -->
<g id="edge62" class="edge">
<title>Node43&#45;&gt;Node44</title>
<path fill="none" stroke="midnightblue" d="M1323,-179.08C1323,-172.01 1323,-161.86 1323,-152.99"/>
<polygon fill="midnightblue" stroke="midnightblue" points="1326.5,-152.75 1323,-142.75 1319.5,-152.75 1326.5,-152.75"/>
</g>
<!-- Node45 -->
<g id="node45" class="node">
<title>Node45</title>
<g id="a_node45"><a xlink:title=" ">
<polygon fill="white" stroke="#bfbfbf" points="1410.5,-123.5 1410.5,-142.5 1457.5,-142.5 1457.5,-123.5 1410.5,-123.5"/>
<text text-anchor="middle" x="1434" y="-130.5" font-family="Helvetica,sans-Serif" font-size="10.00">vector</text>
</a>
</g>
</g>
<!-- Node43&#45;&gt;Node45 -->
<g id="edge65" class="edge">
<title>Node43&#45;&gt;Node45</title>
<path fill="none" stroke="midnightblue" d="M1340.83,-179.32C1358.72,-170.62 1386.48,-157.12 1407.05,-147.11"/>
<polygon fill="midnightblue" stroke="midnightblue" points="1408.75,-150.18 1416.21,-142.65 1405.69,-143.88 1408.75,-150.18"/>
</g>
</g>
</svg>
