<?xml version="1.0" encoding="UTF-8" standalone="no"?>
<!DOCTYPE svg PUBLIC "-//W3C//DTD SVG 1.1//EN"
 "http://www.w3.org/Graphics/SVG/1.1/DTD/svg11.dtd">
<!-- Generated by graphviz version 2.43.0 (0)
 -->
<!-- Title: OMSimMDOMFlasher.cc Pages: 1 -->
<svg width="1516pt" height="442pt"
 viewBox="0.00 0.00 1516.00 442.00" xmlns="http://www.w3.org/2000/svg" xmlns:xlink="http://www.w3.org/1999/xlink">
<g id="graph0" class="graph" transform="scale(1 1) rotate(0) translate(4 438)">
<title>OMSimMDOMFlasher.cc</title>
<polygon fill="white" stroke="transparent" points="-4,4 -4,-438 1512,-438 1512,4 -4,4"/>
<!-- Node1 -->
<g id="node1" class="node">
<title>Node1</title>
<g id="a_node1"><a xlink:title=" ">
<polygon fill="#bfbfbf" stroke="black" points="1189,-414.5 1189,-433.5 1323,-433.5 1323,-414.5 1189,-414.5"/>
<text text-anchor="middle" x="1256" y="-421.5" font-family="Helvetica,sans-Serif" font-size="10.00">OMSimMDOMFlasher.cc</text>
</a>
</g>
</g>
<!-- Node2 -->
<g id="node2" class="node">
<title>Node2</title>
<g id="a_node2"><a xlink:href="_o_m_sim_m_d_o_m_8hh.html" target="_top" xlink:title="Construction of mDOM.">
<polygon fill="white" stroke="black" points="571,-358.5 571,-377.5 671,-377.5 671,-358.5 571,-358.5"/>
<text text-anchor="middle" x="621" y="-365.5" font-family="Helvetica,sans-Serif" font-size="10.00">OMSimMDOM.hh</text>
</a>
</g>
</g>
<!-- Node1&#45;&gt;Node2 -->
<g id="edge1" class="edge">
<title>Node1&#45;&gt;Node2</title>
<path fill="none" stroke="midnightblue" d="M1188.94,-417.3C1064.57,-406.72 799.99,-384.22 681.08,-374.11"/>
<polygon fill="midnightblue" stroke="midnightblue" points="681.32,-370.62 671.06,-373.26 680.72,-377.59 681.32,-370.62"/>
</g>
<!-- Node33 -->
<g id="node33" class="node">
<title>Node33</title>
<g id="a_node33"><a xlink:href="_o_m_sim_u_iinterface_8hh.html" target="_top" xlink:title=" ">
<polygon fill="white" stroke="black" points="1195.5,-358.5 1195.5,-377.5 1316.5,-377.5 1316.5,-358.5 1195.5,-358.5"/>
<text text-anchor="middle" x="1256" y="-365.5" font-family="Helvetica,sans-Serif" font-size="10.00">OMSimUIinterface.hh</text>
</a>
</g>
</g>
<!-- Node1&#45;&gt;Node33 -->
<g id="edge39" class="edge">
<title>Node1&#45;&gt;Node33</title>
<path fill="none" stroke="midnightblue" d="M1256,-414.08C1256,-407.01 1256,-396.86 1256,-387.99"/>
<polygon fill="midnightblue" stroke="midnightblue" points="1259.5,-387.75 1256,-377.75 1252.5,-387.75 1259.5,-387.75"/>
</g>
<!-- Node34 -->
<g id="node34" class="node">
<title>Node34</title>
<g id="a_node34"><a xlink:href="_o_m_sim_command_args_table_8hh.html" target="_top" xlink:title="Definition of the OMSimCommandArgsTable singleton class, which controls user args.">
<polygon fill="white" stroke="black" points="1130,-302.5 1130,-321.5 1294,-321.5 1294,-302.5 1130,-302.5"/>
<text text-anchor="middle" x="1212" y="-309.5" font-family="Helvetica,sans-Serif" font-size="10.00">OMSimCommandArgsTable.hh</text>
</a>
</g>
</g>
<!-- Node1&#45;&gt;Node34 -->
<g id="edge46" class="edge">
<title>Node1&#45;&gt;Node34</title>
<path fill="none" stroke="midnightblue" d="M1231.53,-414.44C1215.43,-407.38 1195.62,-395.63 1186,-378 1177.4,-362.25 1187.37,-343.04 1197.35,-329.61"/>
<polygon fill="midnightblue" stroke="midnightblue" points="1200.17,-331.69 1203.71,-321.71 1194.72,-327.3 1200.17,-331.69"/>
</g>
<!-- Node38 -->
<g id="node38" class="node">
<title>Node38</title>
<g id="a_node38"><a xlink:title=" ">
<polygon fill="white" stroke="#bfbfbf" points="1334.5,-358.5 1334.5,-377.5 1403.5,-377.5 1403.5,-358.5 1334.5,-358.5"/>
<text text-anchor="middle" x="1369" y="-365.5" font-family="Helvetica,sans-Serif" font-size="10.00">G4Cons.hh</text>
</a>
</g>
</g>
<!-- Node1&#45;&gt;Node38 -->
<g id="edge47" class="edge">
<title>Node1&#45;&gt;Node38</title>
<path fill="none" stroke="midnightblue" d="M1273.91,-414.44C1292.25,-405.68 1321.01,-391.94 1342.09,-381.86"/>
<polygon fill="midnightblue" stroke="midnightblue" points="1343.67,-384.99 1351.18,-377.52 1340.65,-378.67 1343.67,-384.99"/>
</g>
<!-- Node39 -->
<g id="node39" class="node">
<title>Node39</title>
<g id="a_node39"><a xlink:title=" ">
<polygon fill="white" stroke="#bfbfbf" points="1422,-358.5 1422,-377.5 1508,-377.5 1508,-358.5 1422,-358.5"/>
<text text-anchor="middle" x="1465" y="-365.5" font-family="Helvetica,sans-Serif" font-size="10.00">G4Ellipsoid.hh</text>
</a>
</g>
</g>
<!-- Node1&#45;&gt;Node39 -->
<g id="edge48" class="edge">
<title>Node1&#45;&gt;Node39</title>
<path fill="none" stroke="midnightblue" d="M1289.12,-414.44C1325.12,-405.14 1382.77,-390.25 1422.19,-380.06"/>
<polygon fill="midnightblue" stroke="midnightblue" points="1423.23,-383.41 1432.04,-377.52 1421.48,-376.63 1423.23,-383.41"/>
</g>
<!-- Node3 -->
<g id="node3" class="node">
<title>Node3</title>
<g id="a_node3"><a xlink:href="_o_m_sim_m_d_o_m_flasher_8hh.html" target="_top" xlink:title="Defines the mDOMFlasher class for simulating the 10 flashers in an mDOM optical module.">
<polygon fill="white" stroke="black" points="274.5,-246.5 274.5,-265.5 409.5,-265.5 409.5,-246.5 274.5,-246.5"/>
<text text-anchor="middle" x="342" y="-253.5" font-family="Helvetica,sans-Serif" font-size="10.00">OMSimMDOMFlasher.hh</text>
</a>
</g>
</g>
<!-- Node2&#45;&gt;Node3 -->
<g id="edge2" class="edge">
<title>Node2&#45;&gt;Node3</title>
<path fill="none" stroke="midnightblue" d="M599.11,-358.37C549.91,-338.97 430.44,-291.87 373.37,-269.37"/>
<polygon fill="midnightblue" stroke="midnightblue" points="374.38,-266 363.79,-265.59 371.81,-272.52 374.38,-266"/>
</g>
<!-- Node20 -->
<g id="node20" class="node">
<title>Node20</title>
<g id="a_node20"><a xlink:href="_o_m_sim_p_m_t_construction_8hh.html" target="_top" xlink:title="Construction of the PMTs.">
<polygon fill="white" stroke="black" points="480.5,-246.5 480.5,-265.5 629.5,-265.5 629.5,-246.5 480.5,-246.5"/>
<text text-anchor="middle" x="555" y="-253.5" font-family="Helvetica,sans-Serif" font-size="10.00">OMSimPMTConstruction.hh</text>
</a>
</g>
</g>
<!-- Node2&#45;&gt;Node20 -->
<g id="edge19" class="edge">
<title>Node2&#45;&gt;Node20</title>
<path fill="none" stroke="midnightblue" d="M614.8,-358.18C608.58,-349.2 598.81,-334.83 591,-322 581.38,-306.2 571.24,-287.7 564.18,-274.48"/>
<polygon fill="midnightblue" stroke="midnightblue" points="567.22,-272.74 559.44,-265.54 561.03,-276.02 567.22,-272.74"/>
</g>
<!-- Node27 -->
<g id="node27" class="node">
<title>Node27</title>
<g id="a_node27"><a xlink:href="_o_m_sim_optical_module_8hh.html" target="_top" xlink:title=" ">
<polygon fill="white" stroke="black" points="600.5,-302.5 600.5,-321.5 737.5,-321.5 737.5,-302.5 600.5,-302.5"/>
<text text-anchor="middle" x="669" y="-309.5" font-family="Helvetica,sans-Serif" font-size="10.00">OMSimOpticalModule.hh</text>
</a>
</g>
</g>
<!-- Node2&#45;&gt;Node27 -->
<g id="edge30" class="edge">
<title>Node2&#45;&gt;Node27</title>
<path fill="none" stroke="midnightblue" d="M628.93,-358.08C635.85,-350.3 646.07,-338.8 654.45,-329.37"/>
<polygon fill="midnightblue" stroke="midnightblue" points="657.19,-331.55 661.22,-321.75 651.96,-326.9 657.19,-331.55"/>
</g>
<!-- Node4 -->
<g id="node4" class="node">
<title>Node4</title>
<g id="a_node4"><a xlink:href="abc_detector_component_8hh.html" target="_top" xlink:title="Provides helper base class abcDetectorComponent for constructing and managing detector components in ...">
<polygon fill="white" stroke="black" points="382.5,-190.5 382.5,-209.5 529.5,-209.5 529.5,-190.5 382.5,-190.5"/>
<text text-anchor="middle" x="456" y="-197.5" font-family="Helvetica,sans-Serif" font-size="10.00">abcDetectorComponent.hh</text>
</a>
</g>
</g>
<!-- Node3&#45;&gt;Node4 -->
<g id="edge3" class="edge">
<title>Node3&#45;&gt;Node4</title>
<path fill="none" stroke="midnightblue" d="M360.06,-246.44C378.57,-237.68 407.58,-223.94 428.86,-213.86"/>
<polygon fill="midnightblue" stroke="midnightblue" points="430.48,-216.96 438.02,-209.52 427.49,-210.63 430.48,-216.96"/>
</g>
<!-- Node18 -->
<g id="node18" class="node">
<title>Node18</title>
<g id="a_node18"><a xlink:title=" ">
<polygon fill="white" stroke="#bfbfbf" points="266,-190.5 266,-209.5 364,-209.5 364,-190.5 266,-190.5"/>
<text text-anchor="middle" x="315" y="-197.5" font-family="Helvetica,sans-Serif" font-size="10.00">G4UnionSolid.hh</text>
</a>
</g>
</g>
<!-- Node3&#45;&gt;Node18 -->
<g id="edge17" class="edge">
<title>Node3&#45;&gt;Node18</title>
<path fill="none" stroke="midnightblue" d="M337.54,-246.08C333.85,-238.69 328.48,-227.95 323.91,-218.81"/>
<polygon fill="midnightblue" stroke="midnightblue" points="326.98,-217.13 319.38,-209.75 320.72,-220.26 326.98,-217.13"/>
</g>
<!-- Node19 -->
<g id="node19" class="node">
<title>Node19</title>
<g id="a_node19"><a xlink:title=" ">
<polygon fill="white" stroke="#bfbfbf" points="156,-190.5 156,-209.5 248,-209.5 248,-190.5 156,-190.5"/>
<text text-anchor="middle" x="202" y="-197.5" font-family="Helvetica,sans-Serif" font-size="10.00">G4Navigator.hh</text>
</a>
</g>
</g>
<!-- Node3&#45;&gt;Node19 -->
<g id="edge18" class="edge">
<title>Node3&#45;&gt;Node19</title>
<path fill="none" stroke="midnightblue" d="M319.82,-246.44C296.57,-237.48 259.85,-223.31 233.58,-213.18"/>
<polygon fill="midnightblue" stroke="midnightblue" points="234.67,-209.85 224.08,-209.52 232.15,-216.38 234.67,-209.85"/>
</g>
<!-- Node5 -->
<g id="node5" class="node">
<title>Node5</title>
<g id="a_node5"><a xlink:href="_o_m_sim_input_data_8hh.html" target="_top" xlink:title="Definition of ParameterTable and InputDataManager.">
<polygon fill="white" stroke="black" points="398.5,-134.5 398.5,-153.5 513.5,-153.5 513.5,-134.5 398.5,-134.5"/>
<text text-anchor="middle" x="456" y="-141.5" font-family="Helvetica,sans-Serif" font-size="10.00">OMSimInputData.hh</text>
</a>
</g>
</g>
<!-- Node4&#45;&gt;Node5 -->
<g id="edge4" class="edge">
<title>Node4&#45;&gt;Node5</title>
<path fill="none" stroke="midnightblue" d="M456,-190.08C456,-183.01 456,-172.86 456,-163.99"/>
<polygon fill="midnightblue" stroke="midnightblue" points="459.5,-163.75 456,-153.75 452.5,-163.75 459.5,-163.75"/>
</g>
<!-- Node14 -->
<g id="node14" class="node">
<title>Node14</title>
<g id="a_node14"><a xlink:title=" ">
<polygon fill="white" stroke="#bfbfbf" points="531.5,-134.5 531.5,-153.5 638.5,-153.5 638.5,-134.5 531.5,-134.5"/>
<text text-anchor="middle" x="585" y="-141.5" font-family="Helvetica,sans-Serif" font-size="10.00">G4Transform3D.hh</text>
</a>
</g>
</g>
<!-- Node4&#45;&gt;Node14 -->
<g id="edge13" class="edge">
<title>Node4&#45;&gt;Node14</title>
<path fill="none" stroke="midnightblue" d="M476.44,-190.44C497.67,-181.56 531.1,-167.56 555.25,-157.45"/>
<polygon fill="midnightblue" stroke="midnightblue" points="556.78,-160.61 564.66,-153.52 554.08,-154.15 556.78,-160.61"/>
</g>
<!-- Node15 -->
<g id="node15" class="node">
<title>Node15</title>
<g id="a_node15"><a xlink:title=" ">
<polygon fill="white" stroke="#bfbfbf" points="0,-134.5 0,-153.5 108,-153.5 108,-134.5 0,-134.5"/>
<text text-anchor="middle" x="54" y="-141.5" font-family="Helvetica,sans-Serif" font-size="10.00">G4VisAttributes.hh</text>
</a>
</g>
</g>
<!-- Node4&#45;&gt;Node15 -->
<g id="edge14" class="edge">
<title>Node4&#45;&gt;Node15</title>
<path fill="none" stroke="midnightblue" d="M390.35,-190.48C324.24,-181.86 219.04,-168.02 118.33,-154.17"/>
<polygon fill="midnightblue" stroke="midnightblue" points="118.68,-150.69 108.29,-152.79 117.72,-157.62 118.68,-150.69"/>
</g>
<!-- Node16 -->
<g id="node16" class="node">
<title>Node16</title>
<g id="a_node16"><a xlink:title=" ">
<polygon fill="white" stroke="#bfbfbf" points="126.5,-134.5 126.5,-153.5 251.5,-153.5 251.5,-134.5 126.5,-134.5"/>
<text text-anchor="middle" x="189" y="-141.5" font-family="Helvetica,sans-Serif" font-size="10.00">G4SubtractionSolid.hh</text>
</a>
</g>
</g>
<!-- Node4&#45;&gt;Node16 -->
<g id="edge15" class="edge">
<title>Node4&#45;&gt;Node16</title>
<path fill="none" stroke="midnightblue" d="M413.69,-190.44C366.92,-180.98 291.54,-165.74 241.15,-155.55"/>
<polygon fill="midnightblue" stroke="midnightblue" points="241.6,-152.07 231.11,-153.52 240.22,-158.93 241.6,-152.07"/>
</g>
<!-- Node17 -->
<g id="node17" class="node">
<title>Node17</title>
<g id="a_node17"><a xlink:title=" ">
<polygon fill="white" stroke="#bfbfbf" points="270,-134.5 270,-153.5 380,-153.5 380,-134.5 270,-134.5"/>
<text text-anchor="middle" x="325" y="-141.5" font-family="Helvetica,sans-Serif" font-size="10.00">G4PVPlacement.hh</text>
</a>
</g>
</g>
<!-- Node4&#45;&gt;Node17 -->
<g id="edge16" class="edge">
<title>Node4&#45;&gt;Node17</title>
<path fill="none" stroke="midnightblue" d="M435.24,-190.44C413.68,-181.56 379.74,-167.56 355.21,-157.45"/>
<polygon fill="midnightblue" stroke="midnightblue" points="356.24,-154.09 345.66,-153.52 353.57,-160.56 356.24,-154.09"/>
</g>
<!-- Node6 -->
<g id="node6" class="node">
<title>Node6</title>
<g id="a_node6"><a xlink:href="_o_m_sim_logger_8hh.html" target="_top" xlink:title=" ">
<polygon fill="white" stroke="black" points="1056.5,-73 1056.5,-92 1155.5,-92 1155.5,-73 1056.5,-73"/>
<text text-anchor="middle" x="1106" y="-80" font-family="Helvetica,sans-Serif" font-size="10.00">OMSimLogger.hh</text>
</a>
</g>
</g>
<!-- Node5&#45;&gt;Node6 -->
<g id="edge5" class="edge">
<title>Node5&#45;&gt;Node6</title>
<path fill="none" stroke="midnightblue" d="M513.57,-134.98C516.42,-134.64 519.24,-134.31 522,-134 713.12,-112.72 940.27,-95.34 1046.14,-87.7"/>
<polygon fill="midnightblue" stroke="midnightblue" points="1046.59,-91.18 1056.31,-86.97 1046.08,-84.19 1046.59,-91.18"/>
</g>
<!-- Node11 -->
<g id="node11" class="node">
<title>Node11</title>
<g id="a_node11"><a xlink:title=" ">
<polygon fill="white" stroke="#bfbfbf" points="309.5,-73 309.5,-92 452.5,-92 452.5,-73 309.5,-73"/>
<text text-anchor="middle" x="381" y="-80" font-family="Helvetica,sans-Serif" font-size="10.00">G4OpBoundaryProcess.hh</text>
</a>
</g>
</g>
<!-- Node5&#45;&gt;Node11 -->
<g id="edge10" class="edge">
<title>Node5&#45;&gt;Node11</title>
<path fill="none" stroke="midnightblue" d="M445.25,-134.48C433.45,-125.11 414.26,-109.88 399.92,-98.51"/>
<polygon fill="midnightblue" stroke="midnightblue" points="401.74,-95.48 391.73,-92.01 397.38,-100.97 401.74,-95.48"/>
</g>
<!-- Node12 -->
<g id="node12" class="node">
<title>Node12</title>
<g id="a_node12"><a xlink:title=" ">
<polygon fill="white" stroke="#bfbfbf" points="743.5,-73 743.5,-92 862.5,-92 862.5,-73 743.5,-73"/>
<text text-anchor="middle" x="803" y="-80" font-family="Helvetica,sans-Serif" font-size="10.00">G4SystemOfUnits.hh</text>
</a>
</g>
</g>
<!-- Node5&#45;&gt;Node12 -->
<g id="edge11" class="edge">
<title>Node5&#45;&gt;Node12</title>
<path fill="none" stroke="midnightblue" d="M505.72,-134.48C568.46,-123.72 676.27,-105.23 743.37,-93.72"/>
<polygon fill="midnightblue" stroke="midnightblue" points="744.11,-97.15 753.38,-92.01 742.93,-90.25 744.11,-97.15"/>
</g>
<!-- Node13 -->
<g id="node13" class="node">
<title>Node13</title>
<g id="a_node13"><a xlink:title=" ">
<polygon fill="white" stroke="#bfbfbf" points="470.5,-67.5 470.5,-97.5 583.5,-97.5 583.5,-67.5 470.5,-67.5"/>
<text text-anchor="start" x="478.5" y="-85.5" font-family="Helvetica,sans-Serif" font-size="10.00">boost/property_tree</text>
<text text-anchor="middle" x="527" y="-74.5" font-family="Helvetica,sans-Serif" font-size="10.00">/json_parser.hpp</text>
</a>
</g>
</g>
<!-- Node5&#45;&gt;Node13 -->
<g id="edge12" class="edge">
<title>Node5&#45;&gt;Node13</title>
<path fill="none" stroke="midnightblue" d="M466.17,-134.48C475.61,-126.57 490.03,-114.48 502.46,-104.07"/>
<polygon fill="midnightblue" stroke="midnightblue" points="504.85,-106.63 510.27,-97.52 500.35,-101.26 504.85,-106.63"/>
</g>
<!-- Node7 -->
<g id="node7" class="node">
<title>Node7</title>
<g id="a_node7"><a xlink:title=" ">
<polygon fill="white" stroke="#bfbfbf" points="887.5,-6 887.5,-25 980.5,-25 980.5,-6 887.5,-6"/>
<text text-anchor="middle" x="934" y="-13" font-family="Helvetica,sans-Serif" font-size="10.00">spdlog/spdlog.h</text>
</a>
</g>
</g>
<!-- Node6&#45;&gt;Node7 -->
<g id="edge6" class="edge">
<title>Node6&#45;&gt;Node7</title>
<path fill="none" stroke="midnightblue" d="M1083.16,-72.87C1053.13,-61.52 1000.22,-41.52 966.16,-28.65"/>
<polygon fill="midnightblue" stroke="midnightblue" points="967.25,-25.32 956.66,-25.06 964.78,-31.87 967.25,-25.32"/>
</g>
<!-- Node8 -->
<g id="node8" class="node">
<title>Node8</title>
<g id="a_node8"><a xlink:title=" ">
<polygon fill="white" stroke="#bfbfbf" points="998.5,-0.5 998.5,-30.5 1109.5,-30.5 1109.5,-0.5 998.5,-0.5"/>
<text text-anchor="start" x="1006.5" y="-18.5" font-family="Helvetica,sans-Serif" font-size="10.00">spdlog/sinks/stdout</text>
<text text-anchor="middle" x="1054" y="-7.5" font-family="Helvetica,sans-Serif" font-size="10.00">_color_sinks.h</text>
</a>
</g>
</g>
<!-- Node6&#45;&gt;Node8 -->
<g id="edge7" class="edge">
<title>Node6&#45;&gt;Node8</title>
<path fill="none" stroke="midnightblue" d="M1098.99,-72.73C1092.03,-64.03 1081.08,-50.34 1071.72,-38.65"/>
<polygon fill="midnightblue" stroke="midnightblue" points="1074.25,-36.21 1065.27,-30.59 1068.79,-40.58 1074.25,-36.21"/>
</g>
<!-- Node9 -->
<g id="node9" class="node">
<title>Node9</title>
<g id="a_node9"><a xlink:title=" ">
<polygon fill="white" stroke="#bfbfbf" points="1128,-6 1128,-25 1186,-25 1186,-6 1128,-6"/>
<text text-anchor="middle" x="1157" y="-13" font-family="Helvetica,sans-Serif" font-size="10.00">memory</text>
</a>
</g>
</g>
<!-- Node6&#45;&gt;Node9 -->
<g id="edge8" class="edge">
<title>Node6&#45;&gt;Node9</title>
<path fill="none" stroke="midnightblue" d="M1112.88,-72.73C1120.83,-62.6 1134.1,-45.69 1144.01,-33.06"/>
<polygon fill="midnightblue" stroke="midnightblue" points="1146.81,-35.16 1150.23,-25.13 1141.3,-30.83 1146.81,-35.16"/>
</g>
<!-- Node10 -->
<g id="node10" class="node">
<title>Node10</title>
<g id="a_node10"><a xlink:title=" ">
<polygon fill="white" stroke="#bfbfbf" points="1204,-6 1204,-25 1302,-25 1302,-6 1204,-6"/>
<text text-anchor="middle" x="1253" y="-13" font-family="Helvetica,sans-Serif" font-size="10.00">spdlog/fmt/fmt.h</text>
</a>
</g>
</g>
<!-- Node6&#45;&gt;Node10 -->
<g id="edge9" class="edge">
<title>Node6&#45;&gt;Node10</title>
<path fill="none" stroke="midnightblue" d="M1125.52,-72.87C1150.78,-61.7 1195,-42.15 1224.14,-29.26"/>
<polygon fill="midnightblue" stroke="midnightblue" points="1225.67,-32.41 1233.4,-25.17 1222.84,-26.01 1225.67,-32.41"/>
</g>
<!-- Node20&#45;&gt;Node4 -->
<g id="edge20" class="edge">
<title>Node20&#45;&gt;Node4</title>
<path fill="none" stroke="midnightblue" d="M539.09,-246.32C523.36,-237.74 499.06,-224.49 480.79,-214.52"/>
<polygon fill="midnightblue" stroke="midnightblue" points="482.32,-211.37 471.87,-209.65 478.97,-217.52 482.32,-211.37"/>
</g>
<!-- Node20&#45;&gt;Node18 -->
<g id="edge28" class="edge">
<title>Node20&#45;&gt;Node18</title>
<path fill="none" stroke="midnightblue" d="M516.97,-246.44C475.19,-237.04 408.02,-221.93 362.73,-211.74"/>
<polygon fill="midnightblue" stroke="midnightblue" points="363.38,-208.3 352.85,-209.52 361.84,-215.13 363.38,-208.3"/>
</g>
<!-- Node20&#45;&gt;Node20 -->
<g id="edge21" class="edge">
<title>Node20&#45;&gt;Node20</title>
<path fill="none" stroke="midnightblue" d="M594.45,-265.53C621.26,-268.31 647.5,-265.13 647.5,-256 647.5,-248.01 627.41,-244.58 604.43,-245.71"/>
<polygon fill="midnightblue" stroke="midnightblue" points="604.15,-242.22 594.45,-246.47 604.69,-249.2 604.15,-242.22"/>
</g>
<!-- Node21 -->
<g id="node21" class="node">
<title>Node21</title>
<g id="a_node21"><a xlink:href="_o_m_sim_p_m_t_response_8hh.html" target="_top" xlink:title="Simulation of PMT response.">
<polygon fill="white" stroke="black" points="632.5,-190.5 632.5,-209.5 767.5,-209.5 767.5,-190.5 632.5,-190.5"/>
<text text-anchor="middle" x="700" y="-197.5" font-family="Helvetica,sans-Serif" font-size="10.00">OMSimPMTResponse.hh</text>
</a>
</g>
</g>
<!-- Node20&#45;&gt;Node21 -->
<g id="edge22" class="edge">
<title>Node20&#45;&gt;Node21</title>
<path fill="none" stroke="midnightblue" d="M577.98,-246.44C602.16,-237.44 640.42,-223.19 667.65,-213.05"/>
<polygon fill="midnightblue" stroke="midnightblue" points="668.98,-216.29 677.13,-209.52 666.54,-209.73 668.98,-216.29"/>
</g>
<!-- Node26 -->
<g id="node26" class="node">
<title>Node26</title>
<g id="a_node26"><a xlink:title=" ">
<polygon fill="white" stroke="#bfbfbf" points="547.5,-190.5 547.5,-209.5 614.5,-209.5 614.5,-190.5 547.5,-190.5"/>
<text text-anchor="middle" x="581" y="-197.5" font-family="Helvetica,sans-Serif" font-size="10.00">G4Tubs.hh</text>
</a>
</g>
</g>
<!-- Node20&#45;&gt;Node26 -->
<g id="edge29" class="edge">
<title>Node20&#45;&gt;Node26</title>
<path fill="none" stroke="midnightblue" d="M559.29,-246.08C562.85,-238.69 568.02,-227.95 572.42,-218.81"/>
<polygon fill="midnightblue" stroke="midnightblue" points="575.6,-220.28 576.79,-209.75 569.29,-217.24 575.6,-220.28"/>
</g>
<!-- Node21&#45;&gt;Node12 -->
<g id="edge23" class="edge">
<title>Node21&#45;&gt;Node12</title>
<path fill="none" stroke="midnightblue" d="M752.9,-190.46C792.43,-182.87 841.68,-170.44 854,-154 868.44,-134.73 845.12,-112.12 825.47,-97.81"/>
<polygon fill="midnightblue" stroke="midnightblue" points="827.34,-94.84 817.12,-92.03 823.36,-100.6 827.34,-94.84"/>
</g>
<!-- Node22 -->
<g id="node22" class="node">
<title>Node22</title>
<g id="a_node22"><a xlink:title=" ">
<polygon fill="white" stroke="#bfbfbf" points="902.5,-134.5 902.5,-153.5 975.5,-153.5 975.5,-134.5 902.5,-134.5"/>
<text text-anchor="middle" x="939" y="-141.5" font-family="Helvetica,sans-Serif" font-size="10.00">G4Types.hh</text>
</a>
</g>
</g>
<!-- Node21&#45;&gt;Node22 -->
<g id="edge24" class="edge">
<title>Node21&#45;&gt;Node22</title>
<path fill="none" stroke="midnightblue" d="M737.87,-190.44C779.84,-180.96 847.55,-165.66 892.66,-155.47"/>
<polygon fill="midnightblue" stroke="midnightblue" points="893.5,-158.87 902.48,-153.25 891.96,-152.04 893.5,-158.87"/>
</g>
<!-- Node23 -->
<g id="node23" class="node">
<title>Node23</title>
<g id="a_node23"><a xlink:title=" ">
<polygon fill="white" stroke="#bfbfbf" points="657,-134.5 657,-153.5 695,-153.5 695,-134.5 657,-134.5"/>
<text text-anchor="middle" x="676" y="-141.5" font-family="Helvetica,sans-Serif" font-size="10.00">map</text>
</a>
</g>
</g>
<!-- Node21&#45;&gt;Node23 -->
<g id="edge25" class="edge">
<title>Node21&#45;&gt;Node23</title>
<path fill="none" stroke="midnightblue" d="M696.04,-190.08C692.79,-182.77 688.08,-172.18 684.05,-163.1"/>
<polygon fill="midnightblue" stroke="midnightblue" points="687.15,-161.47 679.89,-153.75 680.75,-164.31 687.15,-161.47"/>
</g>
<!-- Node24 -->
<g id="node24" class="node">
<title>Node24</title>
<g id="a_node24"><a xlink:title=" ">
<polygon fill="white" stroke="#bfbfbf" points="713.5,-134.5 713.5,-153.5 774.5,-153.5 774.5,-134.5 713.5,-134.5"/>
<text text-anchor="middle" x="744" y="-141.5" font-family="Helvetica,sans-Serif" font-size="10.00">TGraph.h</text>
</a>
</g>
</g>
<!-- Node21&#45;&gt;Node24 -->
<g id="edge26" class="edge">
<title>Node21&#45;&gt;Node24</title>
<path fill="none" stroke="midnightblue" d="M707.27,-190.08C713.54,-182.38 722.79,-171.03 730.43,-161.65"/>
<polygon fill="midnightblue" stroke="midnightblue" points="733.27,-163.71 736.87,-153.75 727.84,-159.29 733.27,-163.71"/>
</g>
<!-- Node25 -->
<g id="node25" class="node">
<title>Node25</title>
<g id="a_node25"><a xlink:title=" ">
<polygon fill="white" stroke="#bfbfbf" points="792.5,-134.5 792.5,-153.5 845.5,-153.5 845.5,-134.5 792.5,-134.5"/>
<text text-anchor="middle" x="819" y="-141.5" font-family="Helvetica,sans-Serif" font-size="10.00">TH2D.h</text>
</a>
</g>
</g>
<!-- Node21&#45;&gt;Node25 -->
<g id="edge27" class="edge">
<title>Node21&#45;&gt;Node25</title>
<path fill="none" stroke="midnightblue" d="M718.86,-190.44C738.27,-181.64 768.73,-167.81 790.96,-157.72"/>
<polygon fill="midnightblue" stroke="midnightblue" points="792.57,-160.84 800.23,-153.52 789.68,-154.46 792.57,-160.84"/>
</g>
<!-- Node27&#45;&gt;Node4 -->
<g id="edge31" class="edge">
<title>Node27&#45;&gt;Node4</title>
<path fill="none" stroke="midnightblue" d="M670,-302.06C671.04,-288.1 670.79,-261.15 656,-246 639.58,-229.18 586.85,-217.74 539.65,-210.6"/>
<polygon fill="midnightblue" stroke="midnightblue" points="540.08,-207.12 529.68,-209.14 539.07,-214.05 540.08,-207.12"/>
</g>
<!-- Node27&#45;&gt;Node20 -->
<g id="edge38" class="edge">
<title>Node27&#45;&gt;Node20</title>
<path fill="none" stroke="midnightblue" d="M650.94,-302.44C632.43,-293.68 603.42,-279.94 582.14,-269.86"/>
<polygon fill="midnightblue" stroke="midnightblue" points="583.51,-266.63 572.98,-265.52 580.52,-272.96 583.51,-266.63"/>
</g>
<!-- Node28 -->
<g id="node28" class="node">
<title>Node28</title>
<g id="a_node28"><a xlink:href="_o_m_sim_hit_manager_8hh.html" target="_top" xlink:title="Defines structures and classes related to optical module photon hit management.">
<polygon fill="white" stroke="black" points="829.5,-246.5 829.5,-265.5 952.5,-265.5 952.5,-246.5 829.5,-246.5"/>
<text text-anchor="middle" x="891" y="-253.5" font-family="Helvetica,sans-Serif" font-size="10.00">OMSimHitManager.hh</text>
</a>
</g>
</g>
<!-- Node27&#45;&gt;Node28 -->
<g id="edge32" class="edge">
<title>Node27&#45;&gt;Node28</title>
<path fill="none" stroke="midnightblue" d="M704.18,-302.44C742.58,-293.1 804.18,-278.12 846.06,-267.93"/>
<polygon fill="midnightblue" stroke="midnightblue" points="847.1,-271.28 855.99,-265.52 845.44,-264.48 847.1,-271.28"/>
</g>
<!-- Node28&#45;&gt;Node21 -->
<g id="edge33" class="edge">
<title>Node28&#45;&gt;Node21</title>
<path fill="none" stroke="midnightblue" d="M860.74,-246.44C828.04,-237.2 775.82,-222.44 739.82,-212.26"/>
<polygon fill="midnightblue" stroke="midnightblue" points="740.7,-208.87 730.12,-209.52 738.79,-215.61 740.7,-208.87"/>
</g>
<!-- Node29 -->
<g id="node29" class="node">
<title>Node29</title>
<g id="a_node29"><a xlink:title=" ">
<polygon fill="white" stroke="#bfbfbf" points="898.5,-190.5 898.5,-209.5 1001.5,-209.5 1001.5,-190.5 898.5,-190.5"/>
<text text-anchor="middle" x="950" y="-197.5" font-family="Helvetica,sans-Serif" font-size="10.00">G4ThreeVector.hh</text>
</a>
</g>
</g>
<!-- Node28&#45;&gt;Node29 -->
<g id="edge34" class="edge">
<title>Node28&#45;&gt;Node29</title>
<path fill="none" stroke="midnightblue" d="M900.48,-246.32C909.2,-238.34 922.34,-226.31 932.9,-216.65"/>
<polygon fill="midnightblue" stroke="midnightblue" points="935.33,-219.17 940.35,-209.83 930.61,-214 935.33,-219.17"/>
</g>
<!-- Node30 -->
<g id="node30" class="node">
<title>Node30</title>
<g id="a_node30"><a xlink:title=" ">
<polygon fill="white" stroke="#bfbfbf" points="1128.5,-190.5 1128.5,-209.5 1183.5,-209.5 1183.5,-190.5 1128.5,-190.5"/>
<text text-anchor="middle" x="1156" y="-197.5" font-family="Helvetica,sans-Serif" font-size="10.00">fstream</text>
</a>
</g>
</g>
<!-- Node28&#45;&gt;Node30 -->
<g id="edge35" class="edge">
<title>Node28&#45;&gt;Node30</title>
<path fill="none" stroke="midnightblue" d="M937.41,-246.46C981.41,-238.22 1049.58,-225.1 1118.05,-210.13"/>
<polygon fill="midnightblue" stroke="midnightblue" points="1119.13,-213.48 1128.15,-207.91 1117.63,-206.64 1119.13,-213.48"/>
</g>
<!-- Node31 -->
<g id="node31" class="node">
<title>Node31</title>
<g id="a_node31"><a xlink:title=" ">
<polygon fill="white" stroke="#bfbfbf" points="1020,-190.5 1020,-209.5 1110,-209.5 1110,-190.5 1020,-190.5"/>
<text text-anchor="middle" x="1065" y="-197.5" font-family="Helvetica,sans-Serif" font-size="10.00">G4AutoLock.hh</text>
</a>
</g>
</g>
<!-- Node28&#45;&gt;Node31 -->
<g id="edge36" class="edge">
<title>Node28&#45;&gt;Node31</title>
<path fill="none" stroke="midnightblue" d="M918.57,-246.44C948.1,-237.28 995.12,-222.69 1027.88,-212.52"/>
<polygon fill="midnightblue" stroke="midnightblue" points="1029.04,-215.82 1037.56,-209.52 1026.97,-209.14 1029.04,-215.82"/>
</g>
<!-- Node32 -->
<g id="node32" class="node">
<title>Node32</title>
<g id="a_node32"><a xlink:title=" ">
<polygon fill="white" stroke="#bfbfbf" points="786,-190.5 786,-209.5 880,-209.5 880,-190.5 786,-190.5"/>
<text text-anchor="middle" x="833" y="-197.5" font-family="Helvetica,sans-Serif" font-size="10.00">G4Threading.hh</text>
</a>
</g>
</g>
<!-- Node28&#45;&gt;Node32 -->
<g id="edge37" class="edge">
<title>Node28&#45;&gt;Node32</title>
<path fill="none" stroke="midnightblue" d="M881.68,-246.32C873.11,-238.34 860.19,-226.31 849.81,-216.65"/>
<polygon fill="midnightblue" stroke="midnightblue" points="852.19,-214.09 842.49,-209.83 847.42,-219.21 852.19,-214.09"/>
</g>
<!-- Node33&#45;&gt;Node34 -->
<g id="edge40" class="edge">
<title>Node33&#45;&gt;Node34</title>
<path fill="none" stroke="midnightblue" d="M1248.73,-358.08C1242.46,-350.38 1233.21,-339.03 1225.57,-329.65"/>
<polygon fill="midnightblue" stroke="midnightblue" points="1228.16,-327.29 1219.13,-321.75 1222.73,-331.71 1228.16,-327.29"/>
</g>
<!-- Node37 -->
<g id="node37" class="node">
<title>Node37</title>
<g id="a_node37"><a xlink:title=" ">
<polygon fill="white" stroke="#bfbfbf" points="1312,-302.5 1312,-321.5 1410,-321.5 1410,-302.5 1312,-302.5"/>
<text text-anchor="middle" x="1361" y="-309.5" font-family="Helvetica,sans-Serif" font-size="10.00">G4UImanager.hh</text>
</a>
</g>
</g>
<!-- Node33&#45;&gt;Node37 -->
<g id="edge45" class="edge">
<title>Node33&#45;&gt;Node37</title>
<path fill="none" stroke="midnightblue" d="M1272.87,-358.32C1289.71,-349.66 1315.81,-336.24 1335.24,-326.25"/>
<polygon fill="midnightblue" stroke="midnightblue" points="1336.88,-329.34 1344.17,-321.65 1333.68,-323.12 1336.88,-329.34"/>
</g>
<!-- Node34&#45;&gt;Node6 -->
<g id="edge41" class="edge">
<title>Node34&#45;&gt;Node6</title>
<path fill="none" stroke="midnightblue" d="M1212.05,-302.36C1211.88,-281.89 1209.6,-229.24 1192,-190 1175.5,-153.22 1143.11,-118.42 1123.13,-99.13"/>
<polygon fill="midnightblue" stroke="midnightblue" points="1125.33,-96.39 1115.65,-92.07 1120.52,-101.48 1125.33,-96.39"/>
</g>
<!-- Node34&#45;&gt;Node30 -->
<g id="edge42" class="edge">
<title>Node34&#45;&gt;Node30</title>
<path fill="none" stroke="midnightblue" d="M1207.61,-302.37C1198.45,-284.38 1177.15,-242.55 1164.97,-218.63"/>
<polygon fill="midnightblue" stroke="midnightblue" points="1168.03,-216.92 1160.37,-209.59 1161.79,-220.09 1168.03,-216.92"/>
</g>
<!-- Node35 -->
<g id="node35" class="node">
<title>Node35</title>
<g id="a_node35"><a xlink:title=" ">
<polygon fill="white" stroke="#bfbfbf" points="1240,-246.5 1240,-265.5 1324,-265.5 1324,-246.5 1240,-246.5"/>
<text text-anchor="middle" x="1282" y="-253.5" font-family="Helvetica,sans-Serif" font-size="10.00">boost/any.hpp</text>
</a>
</g>
</g>
<!-- Node34&#45;&gt;Node35 -->
<g id="edge43" class="edge">
<title>Node34&#45;&gt;Node35</title>
<path fill="none" stroke="midnightblue" d="M1223.25,-302.32C1233.8,-294.18 1249.8,-281.84 1262.44,-272.09"/>
<polygon fill="midnightblue" stroke="midnightblue" points="1264.77,-274.71 1270.55,-265.83 1260.49,-269.17 1264.77,-274.71"/>
</g>
<!-- Node36 -->
<g id="node36" class="node">
<title>Node36</title>
<g id="a_node36"><a xlink:title=" ">
<polygon fill="white" stroke="#bfbfbf" points="1342,-246.5 1342,-265.5 1410,-265.5 1410,-246.5 1342,-246.5"/>
<text text-anchor="middle" x="1376" y="-253.5" font-family="Helvetica,sans-Serif" font-size="10.00">sys/time.h</text>
</a>
</g>
</g>
<!-- Node34&#45;&gt;Node36 -->
<g id="edge44" class="edge">
<title>Node34&#45;&gt;Node36</title>
<path fill="none" stroke="midnightblue" d="M1237.99,-302.44C1265.7,-293.32 1309.75,-278.81 1340.62,-268.65"/>
<polygon fill="midnightblue" stroke="midnightblue" points="1341.73,-271.97 1350.14,-265.52 1339.54,-265.32 1341.73,-271.97"/>
</g>
</g>
</svg>
