<?xml version="1.0" encoding="UTF-8" standalone="no"?>
<!DOCTYPE svg PUBLIC "-//W3C//DTD SVG 1.1//EN"
 "http://www.w3.org/Graphics/SVG/1.1/DTD/svg11.dtd">
<!-- Generated by graphviz version 2.43.0 (0)
 -->
<!-- Title: OMSim_supernova.cc Pages: 1 -->
<svg width="2514pt" height="420pt"
 viewBox="0.00 0.00 2513.50 420.00" xmlns="http://www.w3.org/2000/svg" xmlns:xlink="http://www.w3.org/1999/xlink">
<g id="graph0" class="graph" transform="scale(1 1) rotate(0) translate(4 416)">
<title>OMSim_supernova.cc</title>
<polygon fill="white" stroke="transparent" points="-4,4 -4,-416 2509.5,-416 2509.5,4 -4,4"/>
<!-- Node1 -->
<g id="node1" class="node">
<title>Node1</title>
<g id="a_node1"><a xlink:title="Main of the supernova study.">
<polygon fill="#bfbfbf" stroke="black" points="1565.5,-392.5 1565.5,-411.5 1687.5,-411.5 1687.5,-392.5 1565.5,-392.5"/>
<text text-anchor="middle" x="1626.5" y="-399.5" font-family="Helvetica,sans-Serif" font-size="10.00">OMSim_supernova.cc</text>
</a>
</g>
</g>
<!-- Node2 -->
<g id="node2" class="node">
<title>Node2</title>
<g id="a_node2"><a xlink:href="_o_m_sim_8hh.html" target="_top" xlink:title="Main simulation class for the Optical Module (OM) simulation. This file defines the OMSim class,...">
<polygon fill="white" stroke="black" points="952,-336.5 952,-355.5 1019,-355.5 1019,-336.5 952,-336.5"/>
<text text-anchor="middle" x="985.5" y="-343.5" font-family="Helvetica,sans-Serif" font-size="10.00">OMSim.hh</text>
</a>
</g>
</g>
<!-- Node1&#45;&gt;Node2 -->
<g id="edge1" class="edge">
<title>Node1&#45;&gt;Node2</title>
<path fill="none" stroke="midnightblue" d="M1565.33,-395.85C1436.79,-385.02 1141.31,-360.13 1029.48,-350.7"/>
<polygon fill="midnightblue" stroke="midnightblue" points="1029.5,-347.19 1019.24,-349.84 1028.91,-354.17 1029.5,-347.19"/>
</g>
<!-- Node19 -->
<g id="node13" class="node">
<title>Node19</title>
<g id="a_node13"><a xlink:href="_o_m_sim_hit_manager_8hh.html" target="_top" xlink:title="Defines structures and classes related to optical module photon hit management.">
<polygon fill="white" stroke="black" points="1601,-168.5 1601,-187.5 1724,-187.5 1724,-168.5 1601,-168.5"/>
<text text-anchor="middle" x="1662.5" y="-175.5" font-family="Helvetica,sans-Serif" font-size="10.00">OMSimHitManager.hh</text>
</a>
</g>
</g>
<!-- Node1&#45;&gt;Node19 -->
<g id="edge59" class="edge">
<title>Node1&#45;&gt;Node19</title>
<path fill="none" stroke="midnightblue" d="M1627.91,-392.3C1633.21,-359.63 1651.98,-243.87 1659.43,-197.96"/>
<polygon fill="midnightblue" stroke="midnightblue" points="1662.91,-198.32 1661.06,-187.88 1656,-197.19 1662.91,-198.32"/>
</g>
<!-- Node35 -->
<g id="node27" class="node">
<title>Node35</title>
<g id="a_node27"><a xlink:title=" ">
<polygon fill="white" stroke="#bfbfbf" points="0,-280.5 0,-299.5 185,-299.5 185,-280.5 0,-280.5"/>
<text text-anchor="middle" x="92.5" y="-287.5" font-family="Helvetica,sans-Serif" font-size="10.00">OMSimPrimaryGeneratorAction.hh</text>
</a>
</g>
</g>
<!-- Node1&#45;&gt;Node35 -->
<g id="edge58" class="edge">
<title>Node1&#45;&gt;Node35</title>
<path fill="none" stroke="midnightblue" d="M1565.36,-397.19C1368.41,-384.8 732.65,-344 195.52,-300.16"/>
<polygon fill="midnightblue" stroke="midnightblue" points="195.49,-296.64 185.23,-299.32 194.91,-303.62 195.49,-296.64"/>
</g>
<!-- Node53 -->
<g id="node45" class="node">
<title>Node53</title>
<g id="a_node45"><a xlink:href="_o_m_sim_s_n_analysis_8hh.html" target="_top" xlink:title=" ">
<polygon fill="white" stroke="black" points="1387.5,-224.5 1387.5,-243.5 1509.5,-243.5 1509.5,-224.5 1387.5,-224.5"/>
<text text-anchor="middle" x="1448.5" y="-231.5" font-family="Helvetica,sans-Serif" font-size="10.00">OMSimSNAnalysis.hh</text>
</a>
</g>
</g>
<!-- Node1&#45;&gt;Node53 -->
<g id="edge50" class="edge">
<title>Node1&#45;&gt;Node53</title>
<path fill="none" stroke="midnightblue" d="M1626.36,-392.32C1625.54,-370.35 1620.31,-312.02 1588.5,-280 1570.08,-261.45 1543.99,-250.54 1519.32,-244.13"/>
<polygon fill="midnightblue" stroke="midnightblue" points="1520.13,-240.72 1509.59,-241.8 1518.5,-247.53 1520.13,-240.72"/>
</g>
<!-- Node57 -->
<g id="node49" class="node">
<title>Node57</title>
<g id="a_node49"><a xlink:title=" ">
<polygon fill="white" stroke="#bfbfbf" points="1673.5,-336.5 1673.5,-355.5 1765.5,-355.5 1765.5,-336.5 1673.5,-336.5"/>
<text text-anchor="middle" x="1719.5" y="-343.5" font-family="Helvetica,sans-Serif" font-size="10.00">G4Navigator.hh</text>
</a>
</g>
</g>
<!-- Node1&#45;&gt;Node57 -->
<g id="edge60" class="edge">
<title>Node1&#45;&gt;Node57</title>
<path fill="none" stroke="midnightblue" d="M1641.44,-392.32C1656.09,-383.82 1678.63,-370.73 1695.74,-360.8"/>
<polygon fill="midnightblue" stroke="midnightblue" points="1697.7,-363.7 1704.6,-355.65 1694.19,-357.65 1697.7,-363.7"/>
</g>
<!-- Node58 -->
<g id="node50" class="node">
<title>Node58</title>
<g id="a_node50"><a xlink:href="_o_m_sim_s_ndetector_8hh.html" target="_top" xlink:title=" ">
<polygon fill="white" stroke="black" points="1783.5,-336.5 1783.5,-355.5 1903.5,-355.5 1903.5,-336.5 1783.5,-336.5"/>
<text text-anchor="middle" x="1843.5" y="-343.5" font-family="Helvetica,sans-Serif" font-size="10.00">OMSimSNdetector.hh</text>
</a>
</g>
</g>
<!-- Node1&#45;&gt;Node58 -->
<g id="edge61" class="edge">
<title>Node1&#45;&gt;Node58</title>
<path fill="none" stroke="midnightblue" d="M1660.88,-392.44C1698.42,-383.1 1758.63,-368.12 1799.57,-357.93"/>
<polygon fill="midnightblue" stroke="midnightblue" points="1800.42,-361.33 1809.28,-355.52 1798.73,-354.53 1800.42,-361.33"/>
</g>
<!-- Node3 -->
<g id="node3" class="node">
<title>Node3</title>
<g id="a_node3"><a xlink:href="_o_m_sim_detector_construction_8hh.html" target="_top" xlink:title=" ">
<polygon fill="white" stroke="black" points="1758.5,-280.5 1758.5,-299.5 1928.5,-299.5 1928.5,-280.5 1758.5,-280.5"/>
<text text-anchor="middle" x="1843.5" y="-287.5" font-family="Helvetica,sans-Serif" font-size="10.00">OMSimDetectorConstruction.hh</text>
</a>
</g>
</g>
<!-- Node2&#45;&gt;Node3 -->
<g id="edge2" class="edge">
<title>Node2&#45;&gt;Node3</title>
<path fill="none" stroke="midnightblue" d="M1019.13,-342.88C1140.45,-335.25 1558.32,-308.95 1748.23,-297"/>
<polygon fill="midnightblue" stroke="midnightblue" points="1748.72,-300.47 1758.48,-296.35 1748.28,-293.49 1748.72,-300.47"/>
</g>
<!-- Node34 -->
<g id="node26" class="node">
<title>Node34</title>
<g id="a_node26"><a xlink:title=" ">
<polygon fill="white" stroke="#bfbfbf" points="203,-280.5 203,-299.5 324,-299.5 324,-280.5 203,-280.5"/>
<text text-anchor="middle" x="263.5" y="-287.5" font-family="Helvetica,sans-Serif" font-size="10.00">OMSimPhysicsList.hh</text>
</a>
</g>
</g>
<!-- Node2&#45;&gt;Node34 -->
<g id="edge29" class="edge">
<title>Node2&#45;&gt;Node34</title>
<path fill="none" stroke="midnightblue" d="M951.85,-343.38C856.72,-338.65 577.55,-323.74 334.28,-300.02"/>
<polygon fill="midnightblue" stroke="midnightblue" points="334.48,-296.52 324.18,-299.02 333.79,-303.49 334.48,-296.52"/>
</g>
<!-- Node2&#45;&gt;Node35 -->
<g id="edge30" class="edge">
<title>Node2&#45;&gt;Node35</title>
<path fill="none" stroke="midnightblue" d="M951.89,-343.48C843.79,-338.5 495.05,-321.8 195.42,-300.12"/>
<polygon fill="midnightblue" stroke="midnightblue" points="195.46,-296.61 185.23,-299.38 194.95,-303.6 195.46,-296.61"/>
</g>
<!-- Node36 -->
<g id="node28" class="node">
<title>Node36</title>
<g id="a_node28"><a xlink:href="_o_m_sim_run_action_8hh.html" target="_top" xlink:title=" ">
<polygon fill="white" stroke="black" points="342.5,-280.5 342.5,-299.5 458.5,-299.5 458.5,-280.5 342.5,-280.5"/>
<text text-anchor="middle" x="400.5" y="-287.5" font-family="Helvetica,sans-Serif" font-size="10.00">OMSimRunAction.hh</text>
</a>
</g>
</g>
<!-- Node2&#45;&gt;Node36 -->
<g id="edge31" class="edge">
<title>Node2&#45;&gt;Node36</title>
<path fill="none" stroke="midnightblue" d="M951.81,-342.62C870.63,-336.78 657.53,-320.74 468.7,-300.08"/>
<polygon fill="midnightblue" stroke="midnightblue" points="468.91,-296.59 458.58,-298.97 468.14,-303.54 468.91,-296.59"/>
</g>
<!-- Node38 -->
<g id="node30" class="node">
<title>Node38</title>
<g id="a_node30"><a xlink:title=" ">
<polygon fill="white" stroke="#bfbfbf" points="477,-280.5 477,-299.5 602,-299.5 602,-280.5 477,-280.5"/>
<text text-anchor="middle" x="539.5" y="-287.5" font-family="Helvetica,sans-Serif" font-size="10.00">OMSimEventAction.hh</text>
</a>
</g>
</g>
<!-- Node2&#45;&gt;Node38 -->
<g id="edge33" class="edge">
<title>Node2&#45;&gt;Node38</title>
<path fill="none" stroke="midnightblue" d="M951.97,-341.02C888.17,-333.43 744.64,-316.31 612.62,-300.13"/>
<polygon fill="midnightblue" stroke="midnightblue" points="612.68,-296.61 602.33,-298.87 611.83,-303.56 612.68,-296.61"/>
</g>
<!-- Node39 -->
<g id="node31" class="node">
<title>Node39</title>
<g id="a_node31"><a xlink:href="_o_m_sim_tracking_action_8hh.html" target="_top" xlink:title=" ">
<polygon fill="white" stroke="black" points="620.5,-280.5 620.5,-299.5 758.5,-299.5 758.5,-280.5 620.5,-280.5"/>
<text text-anchor="middle" x="689.5" y="-287.5" font-family="Helvetica,sans-Serif" font-size="10.00">OMSimTrackingAction.hh</text>
</a>
</g>
</g>
<!-- Node2&#45;&gt;Node39 -->
<g id="edge34" class="edge">
<title>Node2&#45;&gt;Node39</title>
<path fill="none" stroke="midnightblue" d="M951.83,-338.86C901.84,-329.74 807.35,-312.5 746.47,-301.39"/>
<polygon fill="midnightblue" stroke="midnightblue" points="746.72,-297.88 736.26,-299.53 745.47,-304.77 746.72,-297.88"/>
</g>
<!-- Node41 -->
<g id="node33" class="node">
<title>Node41</title>
<g id="a_node33"><a xlink:href="_o_m_sim_stepping_action_8hh.html" target="_top" xlink:title="Defines OMSimSteppingAction.Currently it only checks for trapped photons.">
<polygon fill="white" stroke="black" points="776.5,-280.5 776.5,-299.5 916.5,-299.5 916.5,-280.5 776.5,-280.5"/>
<text text-anchor="middle" x="846.5" y="-287.5" font-family="Helvetica,sans-Serif" font-size="10.00">OMSimSteppingAction.hh</text>
</a>
</g>
</g>
<!-- Node2&#45;&gt;Node41 -->
<g id="edge36" class="edge">
<title>Node2&#45;&gt;Node41</title>
<path fill="none" stroke="midnightblue" d="M963.48,-336.44C940.4,-327.48 903.94,-313.31 877.86,-303.18"/>
<polygon fill="midnightblue" stroke="midnightblue" points="879.01,-299.88 868.42,-299.52 876.48,-306.4 879.01,-299.88"/>
</g>
<!-- Node43 -->
<g id="node35" class="node">
<title>Node43</title>
<g id="a_node35"><a xlink:href="_o_m_sim_u_iinterface_8hh.html" target="_top" xlink:title=" ">
<polygon fill="white" stroke="black" points="993,-224.5 993,-243.5 1114,-243.5 1114,-224.5 993,-224.5"/>
<text text-anchor="middle" x="1053.5" y="-231.5" font-family="Helvetica,sans-Serif" font-size="10.00">OMSimUIinterface.hh</text>
</a>
</g>
</g>
<!-- Node2&#45;&gt;Node43 -->
<g id="edge38" class="edge">
<title>Node2&#45;&gt;Node43</title>
<path fill="none" stroke="midnightblue" d="M978.19,-336.47C968.03,-323.52 952.1,-298.44 963.5,-280 973.17,-264.35 990.12,-253.96 1006.72,-247.15"/>
<polygon fill="midnightblue" stroke="midnightblue" points="1008.25,-250.32 1016.4,-243.54 1005.81,-243.76 1008.25,-250.32"/>
</g>
<!-- Node48 -->
<g id="node40" class="node">
<title>Node48</title>
<g id="a_node40"><a xlink:title=" ">
<polygon fill="white" stroke="#bfbfbf" points="972.5,-280.5 972.5,-299.5 1078.5,-299.5 1078.5,-280.5 972.5,-280.5"/>
<text text-anchor="middle" x="1025.5" y="-287.5" font-family="Helvetica,sans-Serif" font-size="10.00">G4RunManager.hh</text>
</a>
</g>
</g>
<!-- Node2&#45;&gt;Node48 -->
<g id="edge45" class="edge">
<title>Node2&#45;&gt;Node48</title>
<path fill="none" stroke="midnightblue" d="M992.11,-336.08C997.76,-328.46 1006.04,-317.26 1012.95,-307.94"/>
<polygon fill="midnightblue" stroke="midnightblue" points="1015.88,-309.87 1019.02,-299.75 1010.25,-305.7 1015.88,-309.87"/>
</g>
<!-- Node49 -->
<g id="node41" class="node">
<title>Node49</title>
<g id="a_node41"><a xlink:title=" ">
<polygon fill="white" stroke="#bfbfbf" points="1097,-280.5 1097,-299.5 1204,-299.5 1204,-280.5 1097,-280.5"/>
<text text-anchor="middle" x="1150.5" y="-287.5" font-family="Helvetica,sans-Serif" font-size="10.00">G4VisExecutive.hh</text>
</a>
</g>
</g>
<!-- Node2&#45;&gt;Node49 -->
<g id="edge46" class="edge">
<title>Node2&#45;&gt;Node49</title>
<path fill="none" stroke="midnightblue" d="M1011.64,-336.44C1039.52,-327.32 1083.85,-312.81 1114.9,-302.65"/>
<polygon fill="midnightblue" stroke="midnightblue" points="1116.06,-305.95 1124.48,-299.52 1113.88,-299.3 1116.06,-305.95"/>
</g>
<!-- Node50 -->
<g id="node42" class="node">
<title>Node50</title>
<g id="a_node42"><a xlink:title=" ">
<polygon fill="white" stroke="#bfbfbf" points="1222,-280.5 1222,-299.5 1325,-299.5 1325,-280.5 1222,-280.5"/>
<text text-anchor="middle" x="1273.5" y="-287.5" font-family="Helvetica,sans-Serif" font-size="10.00">G4UIExecutive.hh</text>
</a>
</g>
</g>
<!-- Node2&#45;&gt;Node50 -->
<g id="edge47" class="edge">
<title>Node2&#45;&gt;Node50</title>
<path fill="none" stroke="midnightblue" d="M1019.1,-338.7C1067.91,-329.55 1159.02,-312.46 1217.93,-301.42"/>
<polygon fill="midnightblue" stroke="midnightblue" points="1218.63,-304.85 1227.81,-299.57 1217.34,-297.97 1218.63,-304.85"/>
</g>
<!-- Node51 -->
<g id="node43" class="node">
<title>Node51</title>
<g id="a_node43"><a xlink:title=" ">
<polygon fill="white" stroke="#bfbfbf" points="1343.5,-280.5 1343.5,-299.5 1411.5,-299.5 1411.5,-280.5 1343.5,-280.5"/>
<text text-anchor="middle" x="1377.5" y="-287.5" font-family="Helvetica,sans-Serif" font-size="10.00">filesystem</text>
</a>
</g>
</g>
<!-- Node2&#45;&gt;Node51 -->
<g id="edge48" class="edge">
<title>Node2&#45;&gt;Node51</title>
<path fill="none" stroke="midnightblue" d="M1019.32,-341.53C1080.09,-335.1 1211.97,-320.27 1333.09,-300.13"/>
<polygon fill="midnightblue" stroke="midnightblue" points="1334,-303.52 1343.28,-298.41 1332.84,-296.62 1334,-303.52"/>
</g>
<!-- Node52 -->
<g id="node44" class="node">
<title>Node52</title>
<g id="a_node44"><a xlink:title=" ">
<polygon fill="white" stroke="#bfbfbf" points="1429.5,-280.5 1429.5,-299.5 1579.5,-299.5 1579.5,-280.5 1429.5,-280.5"/>
<text text-anchor="middle" x="1504.5" y="-287.5" font-family="Helvetica,sans-Serif" font-size="10.00">boost/program_options.hpp</text>
</a>
</g>
</g>
<!-- Node2&#45;&gt;Node52 -->
<g id="edge49" class="edge">
<title>Node2&#45;&gt;Node52</title>
<path fill="none" stroke="midnightblue" d="M1019.07,-341.57C1090.52,-334.26 1263.18,-316.54 1419.15,-300.14"/>
<polygon fill="midnightblue" stroke="midnightblue" points="1419.82,-303.59 1429.4,-299.06 1419.08,-296.63 1419.82,-303.59"/>
</g>
<!-- Node4 -->
<g id="node4" class="node">
<title>Node4</title>
<g id="a_node4"><a xlink:href="_o_m_sim_optical_module_8hh.html" target="_top" xlink:title=" ">
<polygon fill="white" stroke="black" points="1950,-224.5 1950,-243.5 2087,-243.5 2087,-224.5 1950,-224.5"/>
<text text-anchor="middle" x="2018.5" y="-231.5" font-family="Helvetica,sans-Serif" font-size="10.00">OMSimOpticalModule.hh</text>
</a>
</g>
</g>
<!-- Node3&#45;&gt;Node4 -->
<g id="edge3" class="edge">
<title>Node3&#45;&gt;Node4</title>
<path fill="none" stroke="midnightblue" d="M1871.23,-280.44C1900.93,-271.28 1948.22,-256.69 1981.17,-246.52"/>
<polygon fill="midnightblue" stroke="midnightblue" points="1982.38,-249.81 1990.9,-243.52 1980.31,-243.12 1982.38,-249.81"/>
</g>
<!-- Node32 -->
<g id="node24" class="node">
<title>Node32</title>
<g id="a_node24"><a xlink:title=" ">
<polygon fill="white" stroke="#bfbfbf" points="1869.5,-224.5 1869.5,-243.5 1931.5,-243.5 1931.5,-224.5 1869.5,-224.5"/>
<text text-anchor="middle" x="1900.5" y="-231.5" font-family="Helvetica,sans-Serif" font-size="10.00">G4Orb.hh</text>
</a>
</g>
</g>
<!-- Node3&#45;&gt;Node32 -->
<g id="edge27" class="edge">
<title>Node3&#45;&gt;Node32</title>
<path fill="none" stroke="midnightblue" d="M1852.66,-280.32C1861,-272.42 1873.53,-260.55 1883.68,-250.94"/>
<polygon fill="midnightblue" stroke="midnightblue" points="1886.32,-253.25 1891.18,-243.83 1881.51,-248.17 1886.32,-253.25"/>
</g>
<!-- Node33 -->
<g id="node25" class="node">
<title>Node33</title>
<g id="a_node25"><a xlink:title=" ">
<polygon fill="white" stroke="#bfbfbf" points="1673.5,-224.5 1673.5,-243.5 1851.5,-243.5 1851.5,-224.5 1673.5,-224.5"/>
<text text-anchor="middle" x="1762.5" y="-231.5" font-family="Helvetica,sans-Serif" font-size="10.00">G4VUserDetectorConstruction.hh</text>
</a>
</g>
</g>
<!-- Node3&#45;&gt;Node33 -->
<g id="edge28" class="edge">
<title>Node3&#45;&gt;Node33</title>
<path fill="none" stroke="midnightblue" d="M1830.49,-280.32C1817.97,-271.98 1798.82,-259.21 1784.03,-249.35"/>
<polygon fill="midnightblue" stroke="midnightblue" points="1785.74,-246.29 1775.48,-243.65 1781.86,-252.11 1785.74,-246.29"/>
</g>
<!-- Node5 -->
<g id="node5" class="node">
<title>Node5</title>
<g id="a_node5"><a xlink:href="abc_detector_component_8hh.html" target="_top" xlink:title="Provides helper base class abcDetectorComponent for constructing and managing detector components in ...">
<polygon fill="white" stroke="black" points="2007,-112.5 2007,-131.5 2154,-131.5 2154,-112.5 2007,-112.5"/>
<text text-anchor="middle" x="2080.5" y="-119.5" font-family="Helvetica,sans-Serif" font-size="10.00">abcDetectorComponent.hh</text>
</a>
</g>
</g>
<!-- Node4&#45;&gt;Node5 -->
<g id="edge4" class="edge">
<title>Node4&#45;&gt;Node5</title>
<path fill="none" stroke="midnightblue" d="M2029.89,-224.21C2039.89,-215.91 2054.11,-202.58 2062.5,-188 2070.8,-173.57 2075.44,-155.12 2077.91,-141.56"/>
<polygon fill="midnightblue" stroke="midnightblue" points="2081.4,-141.95 2079.52,-131.52 2074.48,-140.84 2081.4,-141.95"/>
</g>
<!-- Node4&#45;&gt;Node19 -->
<g id="edge12" class="edge">
<title>Node4&#45;&gt;Node19</title>
<path fill="none" stroke="midnightblue" d="M1962.09,-224.44C1898.69,-214.83 1795.85,-199.23 1728.7,-189.04"/>
<polygon fill="midnightblue" stroke="midnightblue" points="1729.06,-185.56 1718.65,-187.52 1728.01,-192.48 1729.06,-185.56"/>
</g>
<!-- Node29 -->
<g id="node23" class="node">
<title>Node29</title>
<g id="a_node23"><a xlink:href="_o_m_sim_p_m_t_construction_8hh.html" target="_top" xlink:title="Construction of the PMTs.">
<polygon fill="white" stroke="red" points="1886,-168.5 1886,-187.5 2035,-187.5 2035,-168.5 1886,-168.5"/>
<text text-anchor="middle" x="1960.5" y="-175.5" font-family="Helvetica,sans-Serif" font-size="10.00">OMSimPMTConstruction.hh</text>
</a>
</g>
</g>
<!-- Node4&#45;&gt;Node29 -->
<g id="edge23" class="edge">
<title>Node4&#45;&gt;Node29</title>
<path fill="none" stroke="midnightblue" d="M2009.18,-224.32C2000.61,-216.34 1987.69,-204.31 1977.31,-194.65"/>
<polygon fill="midnightblue" stroke="midnightblue" points="1979.69,-192.09 1969.99,-187.83 1974.92,-197.21 1979.69,-192.09"/>
</g>
<!-- Node6 -->
<g id="node6" class="node">
<title>Node6</title>
<g id="a_node6"><a xlink:href="_o_m_sim_input_data_8hh.html" target="_top" xlink:title="Definition of ParameterTable and InputDataManager.">
<polygon fill="white" stroke="red" points="1867,-56.5 1867,-75.5 1982,-75.5 1982,-56.5 1867,-56.5"/>
<text text-anchor="middle" x="1924.5" y="-63.5" font-family="Helvetica,sans-Serif" font-size="10.00">OMSimInputData.hh</text>
</a>
</g>
</g>
<!-- Node5&#45;&gt;Node6 -->
<g id="edge5" class="edge">
<title>Node5&#45;&gt;Node6</title>
<path fill="none" stroke="midnightblue" d="M2055.78,-112.44C2029.65,-103.4 1988.24,-89.06 1958.92,-78.92"/>
<polygon fill="midnightblue" stroke="midnightblue" points="1959.7,-75.48 1949.1,-75.52 1957.41,-82.1 1959.7,-75.48"/>
</g>
<!-- Node15 -->
<g id="node9" class="node">
<title>Node15</title>
<g id="a_node9"><a xlink:title=" ">
<polygon fill="white" stroke="#bfbfbf" points="2272,-56.5 2272,-75.5 2379,-75.5 2379,-56.5 2272,-56.5"/>
<text text-anchor="middle" x="2325.5" y="-63.5" font-family="Helvetica,sans-Serif" font-size="10.00">G4Transform3D.hh</text>
</a>
</g>
</g>
<!-- Node5&#45;&gt;Node15 -->
<g id="edge8" class="edge">
<title>Node5&#45;&gt;Node15</title>
<path fill="none" stroke="midnightblue" d="M2119.32,-112.44C2162.06,-103.02 2230.83,-87.87 2277.07,-77.68"/>
<polygon fill="midnightblue" stroke="midnightblue" points="2277.85,-81.09 2286.86,-75.52 2276.34,-74.25 2277.85,-81.09"/>
</g>
<!-- Node16 -->
<g id="node10" class="node">
<title>Node16</title>
<g id="a_node10"><a xlink:title=" ">
<polygon fill="white" stroke="#bfbfbf" points="2397.5,-56.5 2397.5,-75.5 2505.5,-75.5 2505.5,-56.5 2397.5,-56.5"/>
<text text-anchor="middle" x="2451.5" y="-63.5" font-family="Helvetica,sans-Serif" font-size="10.00">G4VisAttributes.hh</text>
</a>
</g>
</g>
<!-- Node5&#45;&gt;Node16 -->
<g id="edge9" class="edge">
<title>Node5&#45;&gt;Node16</title>
<path fill="none" stroke="midnightblue" d="M2139.29,-112.44C2206.86,-102.61 2317.41,-86.52 2387.22,-76.36"/>
<polygon fill="midnightblue" stroke="midnightblue" points="2387.82,-79.81 2397.21,-74.9 2386.81,-72.88 2387.82,-79.81"/>
</g>
<!-- Node17 -->
<g id="node11" class="node">
<title>Node17</title>
<g id="a_node11"><a xlink:title=" ">
<polygon fill="white" stroke="#bfbfbf" points="2000,-56.5 2000,-75.5 2125,-75.5 2125,-56.5 2000,-56.5"/>
<text text-anchor="middle" x="2062.5" y="-63.5" font-family="Helvetica,sans-Serif" font-size="10.00">G4SubtractionSolid.hh</text>
</a>
</g>
</g>
<!-- Node5&#45;&gt;Node17 -->
<g id="edge10" class="edge">
<title>Node5&#45;&gt;Node17</title>
<path fill="none" stroke="midnightblue" d="M2077.53,-112.08C2075.12,-104.85 2071.64,-94.41 2068.63,-85.4"/>
<polygon fill="midnightblue" stroke="midnightblue" points="2071.9,-84.13 2065.42,-75.75 2065.26,-86.34 2071.9,-84.13"/>
</g>
<!-- Node18 -->
<g id="node12" class="node">
<title>Node18</title>
<g id="a_node12"><a xlink:title=" ">
<polygon fill="white" stroke="#bfbfbf" points="2143.5,-56.5 2143.5,-75.5 2253.5,-75.5 2253.5,-56.5 2143.5,-56.5"/>
<text text-anchor="middle" x="2198.5" y="-63.5" font-family="Helvetica,sans-Serif" font-size="10.00">G4PVPlacement.hh</text>
</a>
</g>
</g>
<!-- Node5&#45;&gt;Node18 -->
<g id="edge11" class="edge">
<title>Node5&#45;&gt;Node18</title>
<path fill="none" stroke="midnightblue" d="M2099.2,-112.44C2118.44,-103.64 2148.65,-89.81 2170.7,-79.72"/>
<polygon fill="midnightblue" stroke="midnightblue" points="2172.25,-82.86 2179.89,-75.52 2169.34,-76.5 2172.25,-82.86"/>
</g>
<!-- Node7 -->
<g id="node7" class="node">
<title>Node7</title>
<g id="a_node7"><a xlink:href="_o_m_sim_logger_8hh.html" target="_top" xlink:title=" ">
<polygon fill="white" stroke="red" points="1370,-0.5 1370,-19.5 1469,-19.5 1469,-0.5 1370,-0.5"/>
<text text-anchor="middle" x="1419.5" y="-7.5" font-family="Helvetica,sans-Serif" font-size="10.00">OMSimLogger.hh</text>
</a>
</g>
</g>
<!-- Node6&#45;&gt;Node7 -->
<g id="edge6" class="edge">
<title>Node6&#45;&gt;Node7</title>
<path fill="none" stroke="midnightblue" d="M1866.57,-58.81C1769.98,-48.48 1577.02,-27.84 1479.25,-17.39"/>
<polygon fill="midnightblue" stroke="midnightblue" points="1479.55,-13.9 1469.23,-16.32 1478.8,-20.86 1479.55,-13.9"/>
</g>
<!-- Node13 -->
<g id="node8" class="node">
<title>Node13</title>
<g id="a_node8"><a xlink:title=" ">
<polygon fill="white" stroke="#bfbfbf" points="1822,-0.5 1822,-19.5 1941,-19.5 1941,-0.5 1822,-0.5"/>
<text text-anchor="middle" x="1881.5" y="-7.5" font-family="Helvetica,sans-Serif" font-size="10.00">G4SystemOfUnits.hh</text>
</a>
</g>
</g>
<!-- Node6&#45;&gt;Node13 -->
<g id="edge7" class="edge">
<title>Node6&#45;&gt;Node13</title>
<path fill="none" stroke="midnightblue" d="M1917.4,-56.08C1911.26,-48.38 1902.23,-37.03 1894.76,-27.65"/>
<polygon fill="midnightblue" stroke="midnightblue" points="1897.44,-25.39 1888.47,-19.75 1891.96,-29.75 1897.44,-25.39"/>
</g>
<!-- Node20 -->
<g id="node14" class="node">
<title>Node20</title>
<g id="a_node14"><a xlink:href="_o_m_sim_p_m_t_response_8hh.html" target="_top" xlink:title="Simulation of PMT response.">
<polygon fill="white" stroke="black" points="1748,-112.5 1748,-131.5 1883,-131.5 1883,-112.5 1748,-112.5"/>
<text text-anchor="middle" x="1815.5" y="-119.5" font-family="Helvetica,sans-Serif" font-size="10.00">OMSimPMTResponse.hh</text>
</a>
</g>
</g>
<!-- Node19&#45;&gt;Node20 -->
<g id="edge13" class="edge">
<title>Node19&#45;&gt;Node20</title>
<path fill="none" stroke="midnightblue" d="M1686.74,-168.44C1712.37,-159.4 1752.99,-145.06 1781.74,-134.92"/>
<polygon fill="midnightblue" stroke="midnightblue" points="1783.11,-138.15 1791.37,-131.52 1780.78,-131.54 1783.11,-138.15"/>
</g>
<!-- Node25 -->
<g id="node19" class="node">
<title>Node25</title>
<g id="a_node19"><a xlink:title=" ">
<polygon fill="white" stroke="#bfbfbf" points="1406,-112.5 1406,-131.5 1509,-131.5 1509,-112.5 1406,-112.5"/>
<text text-anchor="middle" x="1457.5" y="-119.5" font-family="Helvetica,sans-Serif" font-size="10.00">G4ThreeVector.hh</text>
</a>
</g>
</g>
<!-- Node19&#45;&gt;Node25 -->
<g id="edge19" class="edge">
<title>Node19&#45;&gt;Node25</title>
<path fill="none" stroke="midnightblue" d="M1630.02,-168.44C1594.78,-159.16 1538.4,-144.31 1499.74,-134.13"/>
<polygon fill="midnightblue" stroke="midnightblue" points="1500.39,-130.68 1489.83,-131.52 1498.61,-137.45 1500.39,-130.68"/>
</g>
<!-- Node26 -->
<g id="node20" class="node">
<title>Node26</title>
<g id="a_node20"><a xlink:title=" ">
<polygon fill="white" stroke="#bfbfbf" points="1294,-112.5 1294,-131.5 1349,-131.5 1349,-112.5 1294,-112.5"/>
<text text-anchor="middle" x="1321.5" y="-119.5" font-family="Helvetica,sans-Serif" font-size="10.00">fstream</text>
</a>
</g>
</g>
<!-- Node19&#45;&gt;Node26 -->
<g id="edge20" class="edge">
<title>Node19&#45;&gt;Node26</title>
<path fill="none" stroke="midnightblue" d="M1608.47,-168.44C1538.88,-157.42 1419.7,-138.55 1359.17,-128.96"/>
<polygon fill="midnightblue" stroke="midnightblue" points="1359.69,-125.5 1349.27,-127.4 1358.6,-132.42 1359.69,-125.5"/>
</g>
<!-- Node27 -->
<g id="node21" class="node">
<title>Node27</title>
<g id="a_node21"><a xlink:title=" ">
<polygon fill="white" stroke="#bfbfbf" points="1527.5,-112.5 1527.5,-131.5 1617.5,-131.5 1617.5,-112.5 1527.5,-112.5"/>
<text text-anchor="middle" x="1572.5" y="-119.5" font-family="Helvetica,sans-Serif" font-size="10.00">G4AutoLock.hh</text>
</a>
</g>
</g>
<!-- Node19&#45;&gt;Node27 -->
<g id="edge21" class="edge">
<title>Node19&#45;&gt;Node27</title>
<path fill="none" stroke="midnightblue" d="M1648.04,-168.32C1634,-159.9 1612.45,-146.97 1595.96,-137.07"/>
<polygon fill="midnightblue" stroke="midnightblue" points="1597.3,-133.8 1586.92,-131.65 1593.7,-139.8 1597.3,-133.8"/>
</g>
<!-- Node28 -->
<g id="node22" class="node">
<title>Node28</title>
<g id="a_node22"><a xlink:title=" ">
<polygon fill="white" stroke="#bfbfbf" points="1635.5,-112.5 1635.5,-131.5 1729.5,-131.5 1729.5,-112.5 1635.5,-112.5"/>
<text text-anchor="middle" x="1682.5" y="-119.5" font-family="Helvetica,sans-Serif" font-size="10.00">G4Threading.hh</text>
</a>
</g>
</g>
<!-- Node19&#45;&gt;Node28 -->
<g id="edge22" class="edge">
<title>Node19&#45;&gt;Node28</title>
<path fill="none" stroke="midnightblue" d="M1665.8,-168.08C1668.48,-160.85 1672.35,-150.41 1675.69,-141.4"/>
<polygon fill="midnightblue" stroke="midnightblue" points="1679.07,-142.34 1679.26,-131.75 1672.5,-139.91 1679.07,-142.34"/>
</g>
<!-- Node20&#45;&gt;Node13 -->
<g id="edge14" class="edge">
<title>Node20&#45;&gt;Node13</title>
<path fill="none" stroke="midnightblue" d="M1820.68,-112.37C1831.52,-94.3 1856.79,-52.18 1871.12,-28.31"/>
<polygon fill="midnightblue" stroke="midnightblue" points="1874.2,-29.97 1876.35,-19.59 1868.2,-26.37 1874.2,-29.97"/>
</g>
<!-- Node21 -->
<g id="node15" class="node">
<title>Node21</title>
<g id="a_node15"><a xlink:title=" ">
<polygon fill="white" stroke="#bfbfbf" points="1436,-56.5 1436,-75.5 1509,-75.5 1509,-56.5 1436,-56.5"/>
<text text-anchor="middle" x="1472.5" y="-63.5" font-family="Helvetica,sans-Serif" font-size="10.00">G4Types.hh</text>
</a>
</g>
</g>
<!-- Node20&#45;&gt;Node21 -->
<g id="edge15" class="edge">
<title>Node20&#45;&gt;Node21</title>
<path fill="none" stroke="midnightblue" d="M1761.15,-112.44C1694.41,-101.94 1582.32,-84.29 1519.25,-74.36"/>
<polygon fill="midnightblue" stroke="midnightblue" points="1519.62,-70.87 1509.19,-72.78 1518.53,-77.79 1519.62,-70.87"/>
</g>
<!-- Node22 -->
<g id="node16" class="node">
<title>Node22</title>
<g id="a_node16"><a xlink:title=" ">
<polygon fill="white" stroke="#bfbfbf" points="1772.5,-56.5 1772.5,-75.5 1810.5,-75.5 1810.5,-56.5 1772.5,-56.5"/>
<text text-anchor="middle" x="1791.5" y="-63.5" font-family="Helvetica,sans-Serif" font-size="10.00">map</text>
</a>
</g>
</g>
<!-- Node20&#45;&gt;Node22 -->
<g id="edge16" class="edge">
<title>Node20&#45;&gt;Node22</title>
<path fill="none" stroke="midnightblue" d="M1811.54,-112.08C1808.29,-104.77 1803.58,-94.18 1799.55,-85.1"/>
<polygon fill="midnightblue" stroke="midnightblue" points="1802.65,-83.47 1795.39,-75.75 1796.25,-86.31 1802.65,-83.47"/>
</g>
<!-- Node23 -->
<g id="node17" class="node">
<title>Node23</title>
<g id="a_node17"><a xlink:title=" ">
<polygon fill="white" stroke="#bfbfbf" points="1622,-56.5 1622,-75.5 1683,-75.5 1683,-56.5 1622,-56.5"/>
<text text-anchor="middle" x="1652.5" y="-63.5" font-family="Helvetica,sans-Serif" font-size="10.00">TGraph.h</text>
</a>
</g>
</g>
<!-- Node20&#45;&gt;Node23 -->
<g id="edge17" class="edge">
<title>Node20&#45;&gt;Node23</title>
<path fill="none" stroke="midnightblue" d="M1789.67,-112.44C1762.25,-103.36 1718.72,-88.94 1688.07,-78.78"/>
<polygon fill="midnightblue" stroke="midnightblue" points="1688.8,-75.34 1678.21,-75.52 1686.6,-81.98 1688.8,-75.34"/>
</g>
<!-- Node24 -->
<g id="node18" class="node">
<title>Node24</title>
<g id="a_node18"><a xlink:title=" ">
<polygon fill="white" stroke="#bfbfbf" points="1701,-56.5 1701,-75.5 1754,-75.5 1754,-56.5 1701,-56.5"/>
<text text-anchor="middle" x="1727.5" y="-63.5" font-family="Helvetica,sans-Serif" font-size="10.00">TH2D.h</text>
</a>
</g>
</g>
<!-- Node20&#45;&gt;Node24 -->
<g id="edge18" class="edge">
<title>Node20&#45;&gt;Node24</title>
<path fill="none" stroke="midnightblue" d="M1801.36,-112.32C1787.63,-103.9 1766.56,-90.97 1750.44,-81.07"/>
<polygon fill="midnightblue" stroke="midnightblue" points="1751.96,-77.9 1741.6,-75.65 1748.3,-83.87 1751.96,-77.9"/>
</g>
<!-- Node29&#45;&gt;Node5 -->
<g id="edge24" class="edge">
<title>Node29&#45;&gt;Node5</title>
<path fill="none" stroke="midnightblue" d="M1979.51,-168.44C1999.09,-159.64 2029.81,-145.81 2052.23,-135.72"/>
<polygon fill="midnightblue" stroke="midnightblue" points="2053.89,-138.81 2061.57,-131.52 2051.02,-132.43 2053.89,-138.81"/>
</g>
<!-- Node29&#45;&gt;Node20 -->
<g id="edge26" class="edge">
<title>Node29&#45;&gt;Node20</title>
<path fill="none" stroke="midnightblue" d="M1937.52,-168.44C1913.34,-159.44 1875.08,-145.19 1847.85,-135.05"/>
<polygon fill="midnightblue" stroke="midnightblue" points="1848.96,-131.73 1838.37,-131.52 1846.52,-138.29 1848.96,-131.73"/>
</g>
<!-- Node29&#45;&gt;Node29 -->
<g id="edge25" class="edge">
<title>Node29&#45;&gt;Node29</title>
<path fill="none" stroke="midnightblue" d="M1999.95,-187.53C2026.76,-190.31 2053,-187.13 2053,-178 2053,-170.01 2032.91,-166.58 2009.93,-167.71"/>
<polygon fill="midnightblue" stroke="midnightblue" points="2009.65,-164.22 1999.95,-168.47 2010.19,-171.2 2009.65,-164.22"/>
</g>
<!-- Node37 -->
<g id="node29" class="node">
<title>Node37</title>
<g id="a_node29"><a xlink:title=" ">
<polygon fill="white" stroke="#bfbfbf" points="342,-224.5 342,-243.5 459,-243.5 459,-224.5 342,-224.5"/>
<text text-anchor="middle" x="400.5" y="-231.5" font-family="Helvetica,sans-Serif" font-size="10.00">G4UserRunAction.hh</text>
</a>
</g>
</g>
<!-- Node36&#45;&gt;Node37 -->
<g id="edge32" class="edge">
<title>Node36&#45;&gt;Node37</title>
<path fill="none" stroke="midnightblue" d="M400.5,-280.08C400.5,-273.01 400.5,-262.86 400.5,-253.99"/>
<polygon fill="midnightblue" stroke="midnightblue" points="404,-253.75 400.5,-243.75 397,-253.75 404,-253.75"/>
</g>
<!-- Node40 -->
<g id="node32" class="node">
<title>Node40</title>
<g id="a_node32"><a xlink:title=" ">
<polygon fill="white" stroke="#bfbfbf" points="619,-224.5 619,-243.5 758,-243.5 758,-224.5 619,-224.5"/>
<text text-anchor="middle" x="688.5" y="-231.5" font-family="Helvetica,sans-Serif" font-size="10.00">G4UserTrackingAction.hh</text>
</a>
</g>
</g>
<!-- Node39&#45;&gt;Node40 -->
<g id="edge35" class="edge">
<title>Node39&#45;&gt;Node40</title>
<path fill="none" stroke="midnightblue" d="M689.33,-280.08C689.2,-273.01 689.02,-262.86 688.85,-253.99"/>
<polygon fill="midnightblue" stroke="midnightblue" points="692.35,-253.68 688.66,-243.75 685.35,-253.81 692.35,-253.68"/>
</g>
<!-- Node42 -->
<g id="node34" class="node">
<title>Node42</title>
<g id="a_node34"><a xlink:title=" ">
<polygon fill="white" stroke="#bfbfbf" points="776,-224.5 776,-243.5 917,-243.5 917,-224.5 776,-224.5"/>
<text text-anchor="middle" x="846.5" y="-231.5" font-family="Helvetica,sans-Serif" font-size="10.00">G4UserSteppingAction.hh</text>
</a>
</g>
</g>
<!-- Node41&#45;&gt;Node42 -->
<g id="edge37" class="edge">
<title>Node41&#45;&gt;Node42</title>
<path fill="none" stroke="midnightblue" d="M846.5,-280.08C846.5,-273.01 846.5,-262.86 846.5,-253.99"/>
<polygon fill="midnightblue" stroke="midnightblue" points="850,-253.75 846.5,-243.75 843,-253.75 850,-253.75"/>
</g>
<!-- Node44 -->
<g id="node36" class="node">
<title>Node44</title>
<g id="a_node36"><a xlink:href="_o_m_sim_command_args_table_8hh.html" target="_top" xlink:title="Definition of the OMSimCommandArgsTable singleton class, which controls user args.">
<polygon fill="white" stroke="black" points="971.5,-168.5 971.5,-187.5 1135.5,-187.5 1135.5,-168.5 971.5,-168.5"/>
<text text-anchor="middle" x="1053.5" y="-175.5" font-family="Helvetica,sans-Serif" font-size="10.00">OMSimCommandArgsTable.hh</text>
</a>
</g>
</g>
<!-- Node43&#45;&gt;Node44 -->
<g id="edge39" class="edge">
<title>Node43&#45;&gt;Node44</title>
<path fill="none" stroke="midnightblue" d="M1053.5,-224.08C1053.5,-217.01 1053.5,-206.86 1053.5,-197.99"/>
<polygon fill="midnightblue" stroke="midnightblue" points="1057,-197.75 1053.5,-187.75 1050,-197.75 1057,-197.75"/>
</g>
<!-- Node47 -->
<g id="node39" class="node">
<title>Node47</title>
<g id="a_node39"><a xlink:title=" ">
<polygon fill="white" stroke="#bfbfbf" points="1153.5,-168.5 1153.5,-187.5 1251.5,-187.5 1251.5,-168.5 1153.5,-168.5"/>
<text text-anchor="middle" x="1202.5" y="-175.5" font-family="Helvetica,sans-Serif" font-size="10.00">G4UImanager.hh</text>
</a>
</g>
</g>
<!-- Node43&#45;&gt;Node47 -->
<g id="edge44" class="edge">
<title>Node43&#45;&gt;Node47</title>
<path fill="none" stroke="midnightblue" d="M1077.11,-224.44C1101.96,-215.44 1141.27,-201.19 1169.25,-191.05"/>
<polygon fill="midnightblue" stroke="midnightblue" points="1170.79,-194.21 1179,-187.52 1168.41,-187.63 1170.79,-194.21"/>
</g>
<!-- Node44&#45;&gt;Node7 -->
<g id="edge40" class="edge">
<title>Node44&#45;&gt;Node7</title>
<path fill="none" stroke="midnightblue" d="M1047.32,-168.49C1038.43,-155.11 1024.45,-128.94 1037.5,-112 1076.66,-61.14 1262.68,-30.67 1359.93,-17.95"/>
<polygon fill="midnightblue" stroke="midnightblue" points="1360.44,-21.42 1369.91,-16.67 1359.55,-14.48 1360.44,-21.42"/>
</g>
<!-- Node44&#45;&gt;Node26 -->
<g id="edge41" class="edge">
<title>Node44&#45;&gt;Node26</title>
<path fill="none" stroke="midnightblue" d="M1095.97,-168.44C1147.78,-158 1234.56,-140.52 1284,-130.56"/>
<polygon fill="midnightblue" stroke="midnightblue" points="1284.85,-133.96 1293.96,-128.55 1283.47,-127.09 1284.85,-133.96"/>
</g>
<!-- Node45 -->
<g id="node37" class="node">
<title>Node45</title>
<g id="a_node37"><a xlink:title=" ">
<polygon fill="white" stroke="#bfbfbf" points="1046.5,-112.5 1046.5,-131.5 1130.5,-131.5 1130.5,-112.5 1046.5,-112.5"/>
<text text-anchor="middle" x="1088.5" y="-119.5" font-family="Helvetica,sans-Serif" font-size="10.00">boost/any.hpp</text>
</a>
</g>
</g>
<!-- Node44&#45;&gt;Node45 -->
<g id="edge42" class="edge">
<title>Node44&#45;&gt;Node45</title>
<path fill="none" stroke="midnightblue" d="M1059.28,-168.08C1064.17,-160.53 1071.33,-149.49 1077.33,-140.23"/>
<polygon fill="midnightblue" stroke="midnightblue" points="1080.33,-142.05 1082.83,-131.75 1074.45,-138.24 1080.33,-142.05"/>
</g>
<!-- Node46 -->
<g id="node38" class="node">
<title>Node46</title>
<g id="a_node38"><a xlink:title=" ">
<polygon fill="white" stroke="#bfbfbf" points="1148.5,-112.5 1148.5,-131.5 1216.5,-131.5 1216.5,-112.5 1148.5,-112.5"/>
<text text-anchor="middle" x="1182.5" y="-119.5" font-family="Helvetica,sans-Serif" font-size="10.00">sys/time.h</text>
</a>
</g>
</g>
<!-- Node44&#45;&gt;Node46 -->
<g id="edge43" class="edge">
<title>Node44&#45;&gt;Node46</title>
<path fill="none" stroke="midnightblue" d="M1073.94,-168.44C1095.17,-159.56 1128.6,-145.56 1152.75,-135.45"/>
<polygon fill="midnightblue" stroke="midnightblue" points="1154.28,-138.61 1162.16,-131.52 1151.58,-132.15 1154.28,-138.61"/>
</g>
<!-- Node53&#45;&gt;Node19 -->
<g id="edge54" class="edge">
<title>Node53&#45;&gt;Node19</title>
<path fill="none" stroke="midnightblue" d="M1482.41,-224.44C1519.35,-215.12 1578.55,-200.18 1618.92,-190"/>
<polygon fill="midnightblue" stroke="midnightblue" points="1619.91,-193.36 1628.75,-187.52 1618.2,-186.57 1619.91,-193.36"/>
</g>
<!-- Node53&#45;&gt;Node21 -->
<g id="edge51" class="edge">
<title>Node53&#45;&gt;Node21</title>
<path fill="none" stroke="midnightblue" d="M1439.62,-224.47C1419.68,-204.24 1374.81,-152.07 1397.5,-112 1405.85,-97.26 1421.16,-86.82 1435.79,-79.73"/>
<polygon fill="midnightblue" stroke="midnightblue" points="1437.5,-82.8 1445.22,-75.55 1434.66,-76.4 1437.5,-82.8"/>
</g>
<!-- Node53&#45;&gt;Node25 -->
<g id="edge53" class="edge">
<title>Node53&#45;&gt;Node25</title>
<path fill="none" stroke="midnightblue" d="M1444.05,-224.14C1438.34,-211.6 1429.69,-187.98 1434.5,-168 1436.81,-158.42 1441.52,-148.58 1446.08,-140.56"/>
<polygon fill="midnightblue" stroke="midnightblue" points="1449.19,-142.17 1451.4,-131.81 1443.21,-138.54 1449.19,-142.17"/>
</g>
<!-- Node53&#45;&gt;Node26 -->
<g id="edge56" class="edge">
<title>Node53&#45;&gt;Node26</title>
<path fill="none" stroke="midnightblue" d="M1425.23,-224.49C1406.93,-216.96 1381.59,-204.59 1363.5,-188 1348.84,-174.56 1337.09,-154.92 1329.78,-140.75"/>
<polygon fill="midnightblue" stroke="midnightblue" points="1332.82,-139 1325.27,-131.57 1326.54,-142.09 1332.82,-139"/>
</g>
<!-- Node54 -->
<g id="node46" class="node">
<title>Node54</title>
<g id="a_node46"><a xlink:title=" ">
<polygon fill="white" stroke="#bfbfbf" points="1443.5,-168.5 1443.5,-187.5 1517.5,-187.5 1517.5,-168.5 1443.5,-168.5"/>
<text text-anchor="middle" x="1480.5" y="-175.5" font-family="Helvetica,sans-Serif" font-size="10.00">G4String.hh</text>
</a>
</g>
</g>
<!-- Node53&#45;&gt;Node54 -->
<g id="edge52" class="edge">
<title>Node53&#45;&gt;Node54</title>
<path fill="none" stroke="midnightblue" d="M1453.78,-224.08C1458.21,-216.61 1464.66,-205.72 1470.12,-196.52"/>
<polygon fill="midnightblue" stroke="midnightblue" points="1473.23,-198.14 1475.31,-187.75 1467.21,-194.57 1473.23,-198.14"/>
</g>
<!-- Node55 -->
<g id="node47" class="node">
<title>Node55</title>
<g id="a_node47"><a xlink:title=" ">
<polygon fill="white" stroke="#bfbfbf" points="1536,-168.5 1536,-187.5 1583,-187.5 1583,-168.5 1536,-168.5"/>
<text text-anchor="middle" x="1559.5" y="-175.5" font-family="Helvetica,sans-Serif" font-size="10.00">vector</text>
</a>
</g>
</g>
<!-- Node53&#45;&gt;Node55 -->
<g id="edge55" class="edge">
<title>Node53&#45;&gt;Node55</title>
<path fill="none" stroke="midnightblue" d="M1466.33,-224.32C1484.22,-215.62 1511.98,-202.12 1532.55,-192.11"/>
<polygon fill="midnightblue" stroke="midnightblue" points="1534.25,-195.18 1541.71,-187.65 1531.19,-188.88 1534.25,-195.18"/>
</g>
<!-- Node56 -->
<g id="node48" class="node">
<title>Node56</title>
<g id="a_node48"><a xlink:title=" ">
<polygon fill="white" stroke="#bfbfbf" points="1270,-168.5 1270,-187.5 1311,-187.5 1311,-168.5 1270,-168.5"/>
<text text-anchor="middle" x="1290.5" y="-175.5" font-family="Helvetica,sans-Serif" font-size="10.00">tuple</text>
</a>
</g>
</g>
<!-- Node53&#45;&gt;Node56 -->
<g id="edge57" class="edge">
<title>Node53&#45;&gt;Node56</title>
<path fill="none" stroke="midnightblue" d="M1423.46,-224.44C1395.63,-214.93 1350.69,-199.57 1320.87,-189.38"/>
<polygon fill="midnightblue" stroke="midnightblue" points="1321.98,-186.06 1311.38,-186.14 1319.71,-192.68 1321.98,-186.06"/>
</g>
<!-- Node58&#45;&gt;Node3 -->
<g id="edge62" class="edge">
<title>Node58&#45;&gt;Node3</title>
<path fill="none" stroke="midnightblue" d="M1843.5,-336.08C1843.5,-329.01 1843.5,-318.86 1843.5,-309.99"/>
<polygon fill="midnightblue" stroke="midnightblue" points="1847,-309.75 1843.5,-299.75 1840,-309.75 1847,-309.75"/>
</g>
</g>
</svg>
