<?xml version="1.0" encoding="UTF-8" standalone="no"?>
<!DOCTYPE svg PUBLIC "-//W3C//DTD SVG 1.1//EN"
 "http://www.w3.org/Graphics/SVG/1.1/DTD/svg11.dtd">
<!-- Generated by graphviz version 2.43.0 (0)
 -->
<!-- Title: OMSim_supernova.cc Pages: 1 -->
<svg width="2124pt" height="420pt"
 viewBox="0.00 0.00 2123.60 420.00" xmlns="http://www.w3.org/2000/svg" xmlns:xlink="http://www.w3.org/1999/xlink">
<g id="graph0" class="graph" transform="scale(1 1) rotate(0) translate(4 416)">
<title>OMSim_supernova.cc</title>
<polygon fill="white" stroke="transparent" points="-4,4 -4,-416 2119.6,-416 2119.6,4 -4,4"/>
<!-- Node1 -->
<g id="node1" class="node">
<title>Node1</title>
<g id="a_node1"><a xlink:title="Main of the supernova study.">
<polygon fill="#bfbfbf" stroke="black" points="492.1,-392.5 492.1,-411.5 614.1,-411.5 614.1,-392.5 492.1,-392.5"/>
<text text-anchor="middle" x="553.1" y="-399.5" font-family="Helvetica,sans-Serif" font-size="10.00">OMSim_supernova.cc</text>
</a>
</g>
</g>
<!-- Node2 -->
<g id="node2" class="node">
<title>Node2</title>
<g id="a_node2"><a xlink:href="_o_m_sim_8hh.html" target="_top" xlink:title="Main simulation class for the Optical Module (OM) simulation. This file defines the OMSim class,...">
<polygon fill="white" stroke="black" points="1163.6,-336.5 1163.6,-355.5 1230.6,-355.5 1230.6,-336.5 1163.6,-336.5"/>
<text text-anchor="middle" x="1197.1" y="-343.5" font-family="Helvetica,sans-Serif" font-size="10.00">OMSim.hh</text>
</a>
</g>
</g>
<!-- Node1&#45;&gt;Node2 -->
<g id="edge1" class="edge">
<title>Node1&#45;&gt;Node2</title>
<path fill="none" stroke="midnightblue" d="M614.26,-395.87C743.38,-385.04 1041.08,-360.08 1153.26,-350.68"/>
<polygon fill="midnightblue" stroke="midnightblue" points="1153.85,-354.14 1163.53,-349.81 1153.27,-347.16 1153.85,-354.14"/>
</g>
<!-- Node19 -->
<g id="node13" class="node">
<title>Node19</title>
<g id="a_node13"><a xlink:href="_o_m_sim_hit_manager_8hh.html" target="_top" xlink:title="Defines structures and classes related to optical module photon hit management.">
<polygon fill="white" stroke="black" points="281.6,-168.5 281.6,-187.5 404.6,-187.5 404.6,-168.5 281.6,-168.5"/>
<text text-anchor="middle" x="343.1" y="-175.5" font-family="Helvetica,sans-Serif" font-size="10.00">OMSimHitManager.hh</text>
</a>
</g>
</g>
<!-- Node1&#45;&gt;Node19 -->
<g id="edge63" class="edge">
<title>Node1&#45;&gt;Node19</title>
<path fill="none" stroke="midnightblue" d="M492.08,-393.39C458.83,-387.14 418.07,-375.94 386.1,-356 358.03,-338.5 348.73,-330.96 337.1,-300 324.14,-265.51 331.72,-221.57 337.8,-197.26"/>
<polygon fill="midnightblue" stroke="midnightblue" points="341.19,-198.14 340.41,-187.57 334.43,-196.32 341.19,-198.14"/>
</g>
<!-- Node36 -->
<g id="node28" class="node">
<title>Node36</title>
<g id="a_node28"><a xlink:title=" ">
<polygon fill="white" stroke="#bfbfbf" points="534.6,-280.5 534.6,-299.5 719.6,-299.5 719.6,-280.5 534.6,-280.5"/>
<text text-anchor="middle" x="627.1" y="-287.5" font-family="Helvetica,sans-Serif" font-size="10.00">OMSimPrimaryGeneratorAction.hh</text>
</a>
</g>
</g>
<!-- Node1&#45;&gt;Node36 -->
<g id="edge62" class="edge">
<title>Node1&#45;&gt;Node36</title>
<path fill="none" stroke="midnightblue" d="M558.9,-392.37C571.12,-374.22 599.65,-331.8 615.67,-307.99"/>
<polygon fill="midnightblue" stroke="midnightblue" points="618.64,-309.84 621.32,-299.59 612.83,-305.94 618.64,-309.84"/>
</g>
<!-- Node54 -->
<g id="node46" class="node">
<title>Node54</title>
<g id="a_node46"><a xlink:href="_o_m_sim_s_n_analysis_8hh.html" target="_top" xlink:title=" ">
<polygon fill="white" stroke="black" points="144.1,-224.5 144.1,-243.5 266.1,-243.5 266.1,-224.5 144.1,-224.5"/>
<text text-anchor="middle" x="205.1" y="-231.5" font-family="Helvetica,sans-Serif" font-size="10.00">OMSimSNAnalysis.hh</text>
</a>
</g>
</g>
<!-- Node1&#45;&gt;Node54 -->
<g id="edge54" class="edge">
<title>Node1&#45;&gt;Node54</title>
<path fill="none" stroke="midnightblue" d="M492.05,-394.85C428.88,-387.64 335.19,-374.3 304.1,-356 261.37,-330.85 229.21,-279.99 214.3,-252.91"/>
<polygon fill="midnightblue" stroke="midnightblue" points="217.23,-250.98 209.44,-243.8 211.05,-254.27 217.23,-250.98"/>
</g>
<!-- Node57 -->
<g id="node49" class="node">
<title>Node57</title>
<g id="a_node49"><a xlink:title=" ">
<polygon fill="white" stroke="#bfbfbf" points="1249.1,-336.5 1249.1,-355.5 1341.1,-355.5 1341.1,-336.5 1249.1,-336.5"/>
<text text-anchor="middle" x="1295.1" y="-343.5" font-family="Helvetica,sans-Serif" font-size="10.00">G4Navigator.hh</text>
</a>
</g>
</g>
<!-- Node1&#45;&gt;Node57 -->
<g id="edge64" class="edge">
<title>Node1&#45;&gt;Node57</title>
<path fill="none" stroke="midnightblue" d="M614.3,-398.91C732.7,-394.46 1001.56,-382.29 1238.8,-355.91"/>
<polygon fill="midnightblue" stroke="midnightblue" points="1239.45,-359.35 1249,-354.76 1238.67,-352.4 1239.45,-359.35"/>
</g>
<!-- Node58 -->
<g id="node50" class="node">
<title>Node58</title>
<g id="a_node50"><a xlink:href="_o_m_sim_s_ndetector_8hh.html" target="_top" xlink:title=" ">
<polygon fill="white" stroke="black" points="395.1,-336.5 395.1,-355.5 515.1,-355.5 515.1,-336.5 395.1,-336.5"/>
<text text-anchor="middle" x="455.1" y="-343.5" font-family="Helvetica,sans-Serif" font-size="10.00">OMSimSNdetector.hh</text>
</a>
</g>
</g>
<!-- Node1&#45;&gt;Node58 -->
<g id="edge65" class="edge">
<title>Node1&#45;&gt;Node58</title>
<path fill="none" stroke="midnightblue" d="M537.35,-392.32C521.78,-383.74 497.72,-370.49 479.64,-360.52"/>
<polygon fill="midnightblue" stroke="midnightblue" points="481.25,-357.42 470.8,-355.65 477.87,-363.55 481.25,-357.42"/>
</g>
<!-- Node3 -->
<g id="node3" class="node">
<title>Node3</title>
<g id="a_node3"><a xlink:href="_o_m_sim_detector_construction_8hh.html" target="_top" xlink:title=" ">
<polygon fill="white" stroke="black" points="346.1,-280.5 346.1,-299.5 516.1,-299.5 516.1,-280.5 346.1,-280.5"/>
<text text-anchor="middle" x="431.1" y="-287.5" font-family="Helvetica,sans-Serif" font-size="10.00">OMSimDetectorConstruction.hh</text>
</a>
</g>
</g>
<!-- Node2&#45;&gt;Node3 -->
<g id="edge2" class="edge">
<title>Node2&#45;&gt;Node3</title>
<path fill="none" stroke="midnightblue" d="M1163.51,-343.09C1066.54,-337.51 777.59,-320.37 526.2,-300.07"/>
<polygon fill="midnightblue" stroke="midnightblue" points="526.39,-296.57 516.14,-299.25 525.83,-303.55 526.39,-296.57"/>
</g>
<!-- Node35 -->
<g id="node27" class="node">
<title>Node35</title>
<g id="a_node27"><a xlink:title=" ">
<polygon fill="white" stroke="#bfbfbf" points="1559.6,-280.5 1559.6,-299.5 1680.6,-299.5 1680.6,-280.5 1559.6,-280.5"/>
<text text-anchor="middle" x="1620.1" y="-287.5" font-family="Helvetica,sans-Serif" font-size="10.00">OMSimPhysicsList.hh</text>
</a>
</g>
</g>
<!-- Node2&#45;&gt;Node35 -->
<g id="edge33" class="edge">
<title>Node2&#45;&gt;Node35</title>
<path fill="none" stroke="midnightblue" d="M1230.84,-337.64C1233.97,-337.05 1237.09,-336.49 1240.1,-336 1374.81,-314 1409.56,-316.13 1545.1,-300 1546.56,-299.83 1548.04,-299.65 1549.54,-299.47"/>
<polygon fill="midnightblue" stroke="midnightblue" points="1550,-302.94 1559.52,-298.28 1549.17,-295.99 1550,-302.94"/>
</g>
<!-- Node2&#45;&gt;Node36 -->
<g id="edge34" class="edge">
<title>Node2&#45;&gt;Node36</title>
<path fill="none" stroke="midnightblue" d="M1163.57,-341.82C1079.61,-333.87 857.71,-312.85 727.1,-300.47"/>
<polygon fill="midnightblue" stroke="midnightblue" points="727.36,-296.98 717.08,-299.52 726.7,-303.95 727.36,-296.98"/>
</g>
<!-- Node37 -->
<g id="node29" class="node">
<title>Node37</title>
<g id="a_node29"><a xlink:href="_o_m_sim_run_action_8hh.html" target="_top" xlink:title=" ">
<polygon fill="white" stroke="black" points="1699.1,-280.5 1699.1,-299.5 1815.1,-299.5 1815.1,-280.5 1699.1,-280.5"/>
<text text-anchor="middle" x="1757.1" y="-287.5" font-family="Helvetica,sans-Serif" font-size="10.00">OMSimRunAction.hh</text>
</a>
</g>
</g>
<!-- Node2&#45;&gt;Node37 -->
<g id="edge35" class="edge">
<title>Node2&#45;&gt;Node37</title>
<path fill="none" stroke="midnightblue" d="M1230.83,-337.52C1233.95,-336.95 1237.08,-336.44 1240.1,-336 1435.49,-307.85 1488.89,-320.92 1689.06,-300.05"/>
<polygon fill="midnightblue" stroke="midnightblue" points="1689.44,-303.53 1699.01,-299 1688.7,-296.57 1689.44,-303.53"/>
</g>
<!-- Node39 -->
<g id="node31" class="node">
<title>Node39</title>
<g id="a_node31"><a xlink:title=" ">
<polygon fill="white" stroke="#bfbfbf" points="1833.6,-280.5 1833.6,-299.5 1958.6,-299.5 1958.6,-280.5 1833.6,-280.5"/>
<text text-anchor="middle" x="1896.1" y="-287.5" font-family="Helvetica,sans-Serif" font-size="10.00">OMSimEventAction.hh</text>
</a>
</g>
</g>
<!-- Node2&#45;&gt;Node39 -->
<g id="edge37" class="edge">
<title>Node2&#45;&gt;Node39</title>
<path fill="none" stroke="midnightblue" d="M1230.82,-337.46C1233.94,-336.91 1237.07,-336.41 1240.1,-336 1494.54,-301.71 1563.43,-323.57 1823.18,-300.02"/>
<polygon fill="midnightblue" stroke="midnightblue" points="1823.66,-303.49 1833.29,-299.09 1823.01,-296.52 1823.66,-303.49"/>
</g>
<!-- Node40 -->
<g id="node32" class="node">
<title>Node40</title>
<g id="a_node32"><a xlink:href="_o_m_sim_tracking_action_8hh.html" target="_top" xlink:title=" ">
<polygon fill="white" stroke="black" points="1977.1,-280.5 1977.1,-299.5 2115.1,-299.5 2115.1,-280.5 1977.1,-280.5"/>
<text text-anchor="middle" x="2046.1" y="-287.5" font-family="Helvetica,sans-Serif" font-size="10.00">OMSimTrackingAction.hh</text>
</a>
</g>
</g>
<!-- Node2&#45;&gt;Node40 -->
<g id="edge38" class="edge">
<title>Node2&#45;&gt;Node40</title>
<path fill="none" stroke="midnightblue" d="M1230.81,-337.42C1233.94,-336.88 1237.07,-336.39 1240.1,-336 1558.11,-295.11 1643.49,-325.93 1966.68,-300.06"/>
<polygon fill="midnightblue" stroke="midnightblue" points="1967.11,-303.53 1976.8,-299.23 1966.55,-296.56 1967.11,-303.53"/>
</g>
<!-- Node42 -->
<g id="node34" class="node">
<title>Node42</title>
<g id="a_node34"><a xlink:href="_o_m_sim_stepping_action_8hh.html" target="_top" xlink:title="Defines OMSimSteppingAction.Currently it only checks for trapped photons.">
<polygon fill="white" stroke="black" points="738.1,-280.5 738.1,-299.5 878.1,-299.5 878.1,-280.5 738.1,-280.5"/>
<text text-anchor="middle" x="808.1" y="-287.5" font-family="Helvetica,sans-Serif" font-size="10.00">OMSimSteppingAction.hh</text>
</a>
</g>
</g>
<!-- Node2&#45;&gt;Node42 -->
<g id="edge40" class="edge">
<title>Node2&#45;&gt;Node42</title>
<path fill="none" stroke="midnightblue" d="M1163.59,-340.35C1100.73,-331.62 963.82,-312.62 879.44,-300.9"/>
<polygon fill="midnightblue" stroke="midnightblue" points="879.81,-297.42 869.42,-299.51 878.85,-304.35 879.81,-297.42"/>
</g>
<!-- Node44 -->
<g id="node36" class="node">
<title>Node44</title>
<g id="a_node36"><a xlink:href="_o_m_sim_u_iinterface_8hh.html" target="_top" xlink:title="The OMSimUIinterface class provides a singleton interface to Geant4&#39;s UI manager.">
<polygon fill="white" stroke="black" points="1388.6,-224.5 1388.6,-243.5 1509.6,-243.5 1509.6,-224.5 1388.6,-224.5"/>
<text text-anchor="middle" x="1449.1" y="-231.5" font-family="Helvetica,sans-Serif" font-size="10.00">OMSimUIinterface.hh</text>
</a>
</g>
</g>
<!-- Node2&#45;&gt;Node44 -->
<g id="edge42" class="edge">
<title>Node2&#45;&gt;Node44</title>
<path fill="none" stroke="midnightblue" d="M1230.85,-337.69C1233.97,-337.09 1237.09,-336.51 1240.1,-336 1300.2,-325.75 1471.91,-345.85 1512.1,-300 1528.37,-281.43 1500.93,-261.16 1477.31,-248.28"/>
<polygon fill="midnightblue" stroke="midnightblue" points="1478.7,-245.06 1468.21,-243.57 1475.48,-251.28 1478.7,-245.06"/>
</g>
<!-- Node49 -->
<g id="node41" class="node">
<title>Node49</title>
<g id="a_node41"><a xlink:title=" ">
<polygon fill="white" stroke="#bfbfbf" points="896.1,-280.5 896.1,-299.5 1002.1,-299.5 1002.1,-280.5 896.1,-280.5"/>
<text text-anchor="middle" x="949.1" y="-287.5" font-family="Helvetica,sans-Serif" font-size="10.00">G4RunManager.hh</text>
</a>
</g>
</g>
<!-- Node2&#45;&gt;Node49 -->
<g id="edge49" class="edge">
<title>Node2&#45;&gt;Node49</title>
<path fill="none" stroke="midnightblue" d="M1163.39,-337.66C1120.86,-328.4 1047.37,-312.4 998.49,-301.76"/>
<polygon fill="midnightblue" stroke="midnightblue" points="998.97,-298.28 988.46,-299.57 997.48,-305.12 998.97,-298.28"/>
</g>
<!-- Node50 -->
<g id="node42" class="node">
<title>Node50</title>
<g id="a_node42"><a xlink:title=" ">
<polygon fill="white" stroke="#bfbfbf" points="1020.6,-280.5 1020.6,-299.5 1127.6,-299.5 1127.6,-280.5 1020.6,-280.5"/>
<text text-anchor="middle" x="1074.1" y="-287.5" font-family="Helvetica,sans-Serif" font-size="10.00">G4VisExecutive.hh</text>
</a>
</g>
</g>
<!-- Node2&#45;&gt;Node50 -->
<g id="edge50" class="edge">
<title>Node2&#45;&gt;Node50</title>
<path fill="none" stroke="midnightblue" d="M1177.61,-336.44C1157.45,-327.6 1125.77,-313.69 1102.77,-303.59"/>
<polygon fill="midnightblue" stroke="midnightblue" points="1104.06,-300.33 1093.5,-299.52 1101.24,-306.74 1104.06,-300.33"/>
</g>
<!-- Node51 -->
<g id="node43" class="node">
<title>Node51</title>
<g id="a_node43"><a xlink:title=" ">
<polygon fill="white" stroke="#bfbfbf" points="1145.6,-280.5 1145.6,-299.5 1248.6,-299.5 1248.6,-280.5 1145.6,-280.5"/>
<text text-anchor="middle" x="1197.1" y="-287.5" font-family="Helvetica,sans-Serif" font-size="10.00">G4UIExecutive.hh</text>
</a>
</g>
</g>
<!-- Node2&#45;&gt;Node51 -->
<g id="edge51" class="edge">
<title>Node2&#45;&gt;Node51</title>
<path fill="none" stroke="midnightblue" d="M1197.1,-336.08C1197.1,-329.01 1197.1,-318.86 1197.1,-309.99"/>
<polygon fill="midnightblue" stroke="midnightblue" points="1200.6,-309.75 1197.1,-299.75 1193.6,-309.75 1200.6,-309.75"/>
</g>
<!-- Node52 -->
<g id="node44" class="node">
<title>Node52</title>
<g id="a_node44"><a xlink:title=" ">
<polygon fill="white" stroke="#bfbfbf" points="1267.1,-280.5 1267.1,-299.5 1335.1,-299.5 1335.1,-280.5 1267.1,-280.5"/>
<text text-anchor="middle" x="1301.1" y="-287.5" font-family="Helvetica,sans-Serif" font-size="10.00">filesystem</text>
</a>
</g>
</g>
<!-- Node2&#45;&gt;Node52 -->
<g id="edge52" class="edge">
<title>Node2&#45;&gt;Node52</title>
<path fill="none" stroke="midnightblue" d="M1213.81,-336.32C1230.41,-327.7 1256.1,-314.36 1275.32,-304.39"/>
<polygon fill="midnightblue" stroke="midnightblue" points="1277.17,-307.37 1284.43,-299.65 1273.94,-301.16 1277.17,-307.37"/>
</g>
<!-- Node53 -->
<g id="node45" class="node">
<title>Node53</title>
<g id="a_node45"><a xlink:title=" ">
<polygon fill="white" stroke="#bfbfbf" points="1353.1,-280.5 1353.1,-299.5 1503.1,-299.5 1503.1,-280.5 1353.1,-280.5"/>
<text text-anchor="middle" x="1428.1" y="-287.5" font-family="Helvetica,sans-Serif" font-size="10.00">boost/program_options.hpp</text>
</a>
</g>
</g>
<!-- Node2&#45;&gt;Node53 -->
<g id="edge53" class="edge">
<title>Node2&#45;&gt;Node53</title>
<path fill="none" stroke="midnightblue" d="M1230.69,-337.15C1270.47,-327.85 1336.97,-312.3 1381.67,-301.85"/>
<polygon fill="midnightblue" stroke="midnightblue" points="1382.47,-305.26 1391.41,-299.58 1380.88,-298.44 1382.47,-305.26"/>
</g>
<!-- Node4 -->
<g id="node4" class="node">
<title>Node4</title>
<g id="a_node4"><a xlink:href="_o_m_sim_optical_module_8hh.html" target="_top" xlink:title=" ">
<polygon fill="white" stroke="black" points="346.6,-224.5 346.6,-243.5 483.6,-243.5 483.6,-224.5 346.6,-224.5"/>
<text text-anchor="middle" x="415.1" y="-231.5" font-family="Helvetica,sans-Serif" font-size="10.00">OMSimOpticalModule.hh</text>
</a>
</g>
</g>
<!-- Node3&#45;&gt;Node4 -->
<g id="edge3" class="edge">
<title>Node3&#45;&gt;Node4</title>
<path fill="none" stroke="midnightblue" d="M428.45,-280.08C426.31,-272.85 423.22,-262.41 420.55,-253.4"/>
<polygon fill="midnightblue" stroke="midnightblue" points="423.89,-252.34 417.69,-243.75 417.17,-254.33 423.89,-252.34"/>
</g>
<!-- Node33 -->
<g id="node25" class="node">
<title>Node33</title>
<g id="a_node25"><a xlink:title=" ">
<polygon fill="white" stroke="#bfbfbf" points="502.1,-224.5 502.1,-243.5 564.1,-243.5 564.1,-224.5 502.1,-224.5"/>
<text text-anchor="middle" x="533.1" y="-231.5" font-family="Helvetica,sans-Serif" font-size="10.00">G4Orb.hh</text>
</a>
</g>
</g>
<!-- Node3&#45;&gt;Node33 -->
<g id="edge31" class="edge">
<title>Node3&#45;&gt;Node33</title>
<path fill="none" stroke="midnightblue" d="M447.48,-280.32C463.77,-271.7 488.96,-258.36 507.81,-248.39"/>
<polygon fill="midnightblue" stroke="midnightblue" points="509.55,-251.43 516.75,-243.65 506.27,-245.24 509.55,-251.43"/>
</g>
<!-- Node34 -->
<g id="node26" class="node">
<title>Node34</title>
<g id="a_node26"><a xlink:title=" ">
<polygon fill="white" stroke="#bfbfbf" points="582.1,-224.5 582.1,-243.5 760.1,-243.5 760.1,-224.5 582.1,-224.5"/>
<text text-anchor="middle" x="671.1" y="-231.5" font-family="Helvetica,sans-Serif" font-size="10.00">G4VUserDetectorConstruction.hh</text>
</a>
</g>
</g>
<!-- Node3&#45;&gt;Node34 -->
<g id="edge32" class="edge">
<title>Node3&#45;&gt;Node34</title>
<path fill="none" stroke="midnightblue" d="M469.13,-280.44C510.9,-271.04 578.08,-255.93 623.37,-245.74"/>
<polygon fill="midnightblue" stroke="midnightblue" points="624.26,-249.13 633.25,-243.52 622.72,-242.3 624.26,-249.13"/>
</g>
<!-- Node5 -->
<g id="node5" class="node">
<title>Node5</title>
<g id="a_node5"><a xlink:href="abc_detector_component_8hh.html" target="_top" xlink:title="Provides helper base class abcDetectorComponent for constructing and managing detector components in ...">
<polygon fill="white" stroke="red" points="641.6,-112.5 641.6,-131.5 788.6,-131.5 788.6,-112.5 641.6,-112.5"/>
<text text-anchor="middle" x="715.1" y="-119.5" font-family="Helvetica,sans-Serif" font-size="10.00">abcDetectorComponent.hh</text>
</a>
</g>
</g>
<!-- Node4&#45;&gt;Node5 -->
<g id="edge4" class="edge">
<title>Node4&#45;&gt;Node5</title>
<path fill="none" stroke="midnightblue" d="M472.83,-224.49C528.31,-215.73 607.77,-201.5 636.1,-188 661.26,-176.01 685.26,-154.29 700.07,-139.28"/>
<polygon fill="midnightblue" stroke="midnightblue" points="702.91,-141.38 707.3,-131.73 697.85,-136.53 702.91,-141.38"/>
</g>
<!-- Node4&#45;&gt;Node19 -->
<g id="edge12" class="edge">
<title>Node4&#45;&gt;Node19</title>
<path fill="none" stroke="midnightblue" d="M403.53,-224.32C392.68,-216.18 376.22,-203.84 363.21,-194.09"/>
<polygon fill="midnightblue" stroke="midnightblue" points="364.98,-191.03 354.88,-187.83 360.78,-196.63 364.98,-191.03"/>
</g>
<!-- Node30 -->
<g id="node24" class="node">
<title>Node30</title>
<g id="a_node24"><a xlink:href="_o_m_sim_p_m_t_construction_8hh.html" target="_top" xlink:title="Construction of the PMTs.">
<polygon fill="white" stroke="red" points="460.6,-168.5 460.6,-187.5 609.6,-187.5 609.6,-168.5 460.6,-168.5"/>
<text text-anchor="middle" x="535.1" y="-175.5" font-family="Helvetica,sans-Serif" font-size="10.00">OMSimPMTConstruction.hh</text>
</a>
</g>
</g>
<!-- Node4&#45;&gt;Node30 -->
<g id="edge27" class="edge">
<title>Node4&#45;&gt;Node30</title>
<path fill="none" stroke="midnightblue" d="M434.11,-224.44C453.68,-215.64 484.4,-201.81 506.83,-191.72"/>
<polygon fill="midnightblue" stroke="midnightblue" points="508.49,-194.81 516.17,-187.52 505.62,-188.43 508.49,-194.81"/>
</g>
<!-- Node6 -->
<g id="node6" class="node">
<title>Node6</title>
<g id="a_node6"><a xlink:href="_o_m_sim_input_data_8hh.html" target="_top" xlink:title="Definition of ParameterTable and InputDataManager.">
<polygon fill="white" stroke="red" points="547.6,-56.5 547.6,-75.5 662.6,-75.5 662.6,-56.5 547.6,-56.5"/>
<text text-anchor="middle" x="605.1" y="-63.5" font-family="Helvetica,sans-Serif" font-size="10.00">OMSimInputData.hh</text>
</a>
</g>
</g>
<!-- Node5&#45;&gt;Node6 -->
<g id="edge5" class="edge">
<title>Node5&#45;&gt;Node6</title>
<path fill="none" stroke="midnightblue" d="M697.42,-112.32C679.7,-103.62 652.19,-90.12 631.81,-80.11"/>
<polygon fill="midnightblue" stroke="midnightblue" points="633.25,-76.92 622.73,-75.65 630.16,-83.2 633.25,-76.92"/>
</g>
<!-- Node15 -->
<g id="node10" class="node">
<title>Node15</title>
<g id="a_node10"><a xlink:title=" ">
<polygon fill="white" stroke="#bfbfbf" points="950.6,-56.5 950.6,-75.5 1057.6,-75.5 1057.6,-56.5 950.6,-56.5"/>
<text text-anchor="middle" x="1004.1" y="-63.5" font-family="Helvetica,sans-Serif" font-size="10.00">G4Transform3D.hh</text>
</a>
</g>
</g>
<!-- Node5&#45;&gt;Node15 -->
<g id="edge9" class="edge">
<title>Node5&#45;&gt;Node15</title>
<path fill="none" stroke="midnightblue" d="M760.89,-112.44C811.83,-102.92 894.13,-87.55 948.67,-77.36"/>
<polygon fill="midnightblue" stroke="midnightblue" points="949.33,-80.79 958.52,-75.52 948.05,-73.91 949.33,-80.79"/>
</g>
<!-- Node16 -->
<g id="node11" class="node">
<title>Node16</title>
<g id="a_node11"><a xlink:title=" ">
<polygon fill="white" stroke="#bfbfbf" points="681.1,-56.5 681.1,-75.5 789.1,-75.5 789.1,-56.5 681.1,-56.5"/>
<text text-anchor="middle" x="735.1" y="-63.5" font-family="Helvetica,sans-Serif" font-size="10.00">G4VisAttributes.hh</text>
</a>
</g>
</g>
<!-- Node5&#45;&gt;Node16 -->
<g id="edge10" class="edge">
<title>Node5&#45;&gt;Node16</title>
<path fill="none" stroke="midnightblue" d="M718.4,-112.08C721.08,-104.85 724.95,-94.41 728.28,-85.4"/>
<polygon fill="midnightblue" stroke="midnightblue" points="731.66,-86.34 731.86,-75.75 725.1,-83.91 731.66,-86.34"/>
</g>
<!-- Node17 -->
<g id="node12" class="node">
<title>Node17</title>
<g id="a_node12"><a xlink:title=" ">
<polygon fill="white" stroke="#bfbfbf" points="807.6,-56.5 807.6,-75.5 932.6,-75.5 932.6,-56.5 807.6,-56.5"/>
<text text-anchor="middle" x="870.1" y="-63.5" font-family="Helvetica,sans-Serif" font-size="10.00">G4SubtractionSolid.hh</text>
</a>
</g>
</g>
<!-- Node5&#45;&gt;Node17 -->
<g id="edge11" class="edge">
<title>Node5&#45;&gt;Node17</title>
<path fill="none" stroke="midnightblue" d="M739.66,-112.44C765.62,-103.4 806.76,-89.06 835.89,-78.92"/>
<polygon fill="midnightblue" stroke="midnightblue" points="837.36,-82.11 845.65,-75.52 835.06,-75.5 837.36,-82.11"/>
</g>
<!-- Node7 -->
<g id="node7" class="node">
<title>Node7</title>
<g id="a_node7"><a xlink:href="_o_m_sim_logger_8hh.html" target="_top" xlink:title=" ">
<polygon fill="white" stroke="red" points="900.6,-0.5 900.6,-19.5 999.6,-19.5 999.6,-0.5 900.6,-0.5"/>
<text text-anchor="middle" x="950.1" y="-7.5" font-family="Helvetica,sans-Serif" font-size="10.00">OMSimLogger.hh</text>
</a>
</g>
</g>
<!-- Node6&#45;&gt;Node7 -->
<g id="edge6" class="edge">
<title>Node6&#45;&gt;Node7</title>
<path fill="none" stroke="midnightblue" d="M659.76,-56.44C722.62,-46.61 825.45,-30.51 890.36,-20.35"/>
<polygon fill="midnightblue" stroke="midnightblue" points="891.1,-23.78 900.44,-18.77 890.02,-16.86 891.1,-23.78"/>
</g>
<!-- Node12 -->
<g id="node8" class="node">
<title>Node12</title>
<g id="a_node8"><a xlink:title=" ">
<polygon fill="white" stroke="#bfbfbf" points="604.6,-0.5 604.6,-19.5 747.6,-19.5 747.6,-0.5 604.6,-0.5"/>
<text text-anchor="middle" x="676.1" y="-7.5" font-family="Helvetica,sans-Serif" font-size="10.00">G4OpBoundaryProcess.hh</text>
</a>
</g>
</g>
<!-- Node6&#45;&gt;Node12 -->
<g id="edge7" class="edge">
<title>Node6&#45;&gt;Node12</title>
<path fill="none" stroke="midnightblue" d="M616.5,-56.32C627.21,-48.18 643.44,-35.84 656.26,-26.09"/>
<polygon fill="midnightblue" stroke="midnightblue" points="658.64,-28.67 664.48,-19.83 654.4,-23.1 658.64,-28.67"/>
</g>
<!-- Node13 -->
<g id="node9" class="node">
<title>Node13</title>
<g id="a_node9"><a xlink:title=" ">
<polygon fill="white" stroke="#bfbfbf" points="467.6,-0.5 467.6,-19.5 586.6,-19.5 586.6,-0.5 467.6,-0.5"/>
<text text-anchor="middle" x="527.1" y="-7.5" font-family="Helvetica,sans-Serif" font-size="10.00">G4SystemOfUnits.hh</text>
</a>
</g>
</g>
<!-- Node6&#45;&gt;Node13 -->
<g id="edge8" class="edge">
<title>Node6&#45;&gt;Node13</title>
<path fill="none" stroke="midnightblue" d="M592.56,-56.32C580.51,-47.98 562.07,-35.21 547.83,-25.35"/>
<polygon fill="midnightblue" stroke="midnightblue" points="549.81,-22.47 539.6,-19.65 545.83,-28.22 549.81,-22.47"/>
</g>
<!-- Node20 -->
<g id="node14" class="node">
<title>Node20</title>
<g id="a_node14"><a xlink:href="_o_m_sim_p_m_t_response_8hh.html" target="_top" xlink:title="Provides simulation for PMT response. This class is responsible for transforming hits on photocathode...">
<polygon fill="white" stroke="black" points="355.6,-56.5 355.6,-75.5 490.6,-75.5 490.6,-56.5 355.6,-56.5"/>
<text text-anchor="middle" x="423.1" y="-63.5" font-family="Helvetica,sans-Serif" font-size="10.00">OMSimPMTResponse.hh</text>
</a>
</g>
</g>
<!-- Node19&#45;&gt;Node20 -->
<g id="edge13" class="edge">
<title>Node19&#45;&gt;Node20</title>
<path fill="none" stroke="midnightblue" d="M349.37,-168.37C362.58,-150.22 393.42,-107.8 410.74,-83.99"/>
<polygon fill="midnightblue" stroke="midnightblue" points="413.8,-85.74 416.85,-75.59 408.14,-81.62 413.8,-85.74"/>
</g>
<!-- Node25 -->
<g id="node19" class="node">
<title>Node25</title>
<g id="a_node19"><a xlink:href="_o_m_sim_sensitive_detector_8hh.html" target="_top" xlink:title=" ">
<polygon fill="white" stroke="black" points="192.6,-112.5 192.6,-131.5 345.6,-131.5 345.6,-112.5 192.6,-112.5"/>
<text text-anchor="middle" x="269.1" y="-119.5" font-family="Helvetica,sans-Serif" font-size="10.00">OMSimSensitiveDetector.hh</text>
</a>
</g>
</g>
<!-- Node19&#45;&gt;Node25 -->
<g id="edge19" class="edge">
<title>Node19&#45;&gt;Node25</title>
<path fill="none" stroke="midnightblue" d="M331.21,-168.32C319.95,-160.11 302.81,-147.6 289.39,-137.81"/>
<polygon fill="midnightblue" stroke="midnightblue" points="291.34,-134.9 281.2,-131.83 287.22,-140.56 291.34,-134.9"/>
</g>
<!-- Node27 -->
<g id="node21" class="node">
<title>Node27</title>
<g id="a_node21"><a xlink:title=" ">
<polygon fill="white" stroke="#bfbfbf" points="12.6,-56.5 12.6,-75.5 115.6,-75.5 115.6,-56.5 12.6,-56.5"/>
<text text-anchor="middle" x="64.1" y="-63.5" font-family="Helvetica,sans-Serif" font-size="10.00">G4ThreeVector.hh</text>
</a>
</g>
</g>
<!-- Node19&#45;&gt;Node27 -->
<g id="edge25" class="edge">
<title>Node19&#45;&gt;Node27</title>
<path fill="none" stroke="midnightblue" d="M303.47,-168.49C270.58,-160.81 222.91,-148.23 183.1,-132 147.84,-117.63 109.64,-95.48 86.28,-81.11"/>
<polygon fill="midnightblue" stroke="midnightblue" points="87.86,-77.97 77.52,-75.65 84.16,-83.91 87.86,-77.97"/>
</g>
<!-- Node29 -->
<g id="node23" class="node">
<title>Node29</title>
<g id="a_node23"><a xlink:title=" ">
<polygon fill="white" stroke="#bfbfbf" points="405.6,-112.5 405.6,-131.5 460.6,-131.5 460.6,-112.5 405.6,-112.5"/>
<text text-anchor="middle" x="433.1" y="-119.5" font-family="Helvetica,sans-Serif" font-size="10.00">fstream</text>
</a>
</g>
</g>
<!-- Node19&#45;&gt;Node29 -->
<g id="edge26" class="edge">
<title>Node19&#45;&gt;Node29</title>
<path fill="none" stroke="midnightblue" d="M357.56,-168.32C371.6,-159.9 393.15,-146.97 409.64,-137.07"/>
<polygon fill="midnightblue" stroke="midnightblue" points="411.9,-139.8 418.67,-131.65 408.3,-133.8 411.9,-139.8"/>
</g>
<!-- Node20&#45;&gt;Node13 -->
<g id="edge14" class="edge">
<title>Node20&#45;&gt;Node13</title>
<path fill="none" stroke="midnightblue" d="M439.81,-56.32C456.41,-47.7 482.1,-34.36 501.32,-24.39"/>
<polygon fill="midnightblue" stroke="midnightblue" points="503.17,-27.37 510.43,-19.65 499.94,-21.16 503.17,-27.37"/>
</g>
<!-- Node21 -->
<g id="node15" class="node">
<title>Node21</title>
<g id="a_node15"><a xlink:title=" ">
<polygon fill="white" stroke="#bfbfbf" points="58.6,-0.5 58.6,-19.5 131.6,-19.5 131.6,-0.5 58.6,-0.5"/>
<text text-anchor="middle" x="95.1" y="-7.5" font-family="Helvetica,sans-Serif" font-size="10.00">G4Types.hh</text>
</a>
</g>
</g>
<!-- Node20&#45;&gt;Node21 -->
<g id="edge15" class="edge">
<title>Node20&#45;&gt;Node21</title>
<path fill="none" stroke="midnightblue" d="M371.12,-56.44C308.11,-46.07 202.84,-28.74 142.14,-18.74"/>
<polygon fill="midnightblue" stroke="midnightblue" points="142.5,-15.26 132.07,-17.09 141.36,-22.16 142.5,-15.26"/>
</g>
<!-- Node22 -->
<g id="node16" class="node">
<title>Node22</title>
<g id="a_node16"><a xlink:title=" ">
<polygon fill="white" stroke="#bfbfbf" points="261.1,-0.5 261.1,-19.5 299.1,-19.5 299.1,-0.5 261.1,-0.5"/>
<text text-anchor="middle" x="280.1" y="-7.5" font-family="Helvetica,sans-Serif" font-size="10.00">map</text>
</a>
</g>
</g>
<!-- Node20&#45;&gt;Node22 -->
<g id="edge16" class="edge">
<title>Node20&#45;&gt;Node22</title>
<path fill="none" stroke="midnightblue" d="M400.44,-56.44C375.72,-47.11 336.08,-32.14 309.1,-21.95"/>
<polygon fill="midnightblue" stroke="midnightblue" points="310.03,-18.56 299.44,-18.3 307.56,-25.11 310.03,-18.56"/>
</g>
<!-- Node23 -->
<g id="node17" class="node">
<title>Node23</title>
<g id="a_node17"><a xlink:title=" ">
<polygon fill="white" stroke="#bfbfbf" points="317.6,-0.5 317.6,-19.5 378.6,-19.5 378.6,-0.5 317.6,-0.5"/>
<text text-anchor="middle" x="348.1" y="-7.5" font-family="Helvetica,sans-Serif" font-size="10.00">TGraph.h</text>
</a>
</g>
</g>
<!-- Node20&#45;&gt;Node23 -->
<g id="edge17" class="edge">
<title>Node20&#45;&gt;Node23</title>
<path fill="none" stroke="midnightblue" d="M411.05,-56.32C399.63,-48.11 382.27,-35.6 368.66,-25.81"/>
<polygon fill="midnightblue" stroke="midnightblue" points="370.53,-22.84 360.37,-19.83 366.44,-28.52 370.53,-22.84"/>
</g>
<!-- Node24 -->
<g id="node18" class="node">
<title>Node24</title>
<g id="a_node18"><a xlink:title=" ">
<polygon fill="white" stroke="#bfbfbf" points="396.6,-0.5 396.6,-19.5 449.6,-19.5 449.6,-0.5 396.6,-0.5"/>
<text text-anchor="middle" x="423.1" y="-7.5" font-family="Helvetica,sans-Serif" font-size="10.00">TH2D.h</text>
</a>
</g>
</g>
<!-- Node20&#45;&gt;Node24 -->
<g id="edge18" class="edge">
<title>Node20&#45;&gt;Node24</title>
<path fill="none" stroke="midnightblue" d="M423.1,-56.08C423.1,-49.01 423.1,-38.86 423.1,-29.99"/>
<polygon fill="midnightblue" stroke="midnightblue" points="426.6,-29.75 423.1,-19.75 419.6,-29.75 426.6,-29.75"/>
</g>
<!-- Node25&#45;&gt;Node12 -->
<g id="edge23" class="edge">
<title>Node25&#45;&gt;Node12</title>
<path fill="none" stroke="midnightblue" d="M339.37,-112.47C385.62,-105.6 447,-94.05 499.1,-76 517.5,-69.62 520.11,-63.49 538.1,-56 570.11,-42.67 607.58,-30.67 635.39,-22.42"/>
<polygon fill="midnightblue" stroke="midnightblue" points="636.56,-25.73 645.17,-19.55 634.59,-19.01 636.56,-25.73"/>
</g>
<!-- Node25&#45;&gt;Node20 -->
<g id="edge22" class="edge">
<title>Node25&#45;&gt;Node20</title>
<path fill="none" stroke="midnightblue" d="M293.5,-112.44C319.29,-103.4 360.17,-89.06 389.11,-78.92"/>
<polygon fill="midnightblue" stroke="midnightblue" points="390.53,-82.13 398.81,-75.52 388.21,-75.52 390.53,-82.13"/>
</g>
<!-- Node26 -->
<g id="node20" class="node">
<title>Node26</title>
<g id="a_node20"><a xlink:title=" ">
<polygon fill="white" stroke="#bfbfbf" points="199.1,-56.5 199.1,-75.5 337.1,-75.5 337.1,-56.5 199.1,-56.5"/>
<text text-anchor="middle" x="268.1" y="-63.5" font-family="Helvetica,sans-Serif" font-size="10.00">G4VSensitiveDetector.hh</text>
</a>
</g>
</g>
<!-- Node25&#45;&gt;Node26 -->
<g id="edge20" class="edge">
<title>Node25&#45;&gt;Node26</title>
<path fill="none" stroke="midnightblue" d="M268.93,-112.08C268.8,-105.01 268.61,-94.86 268.45,-85.99"/>
<polygon fill="midnightblue" stroke="midnightblue" points="271.94,-85.68 268.26,-75.75 264.94,-85.81 271.94,-85.68"/>
</g>
<!-- Node25&#45;&gt;Node27 -->
<g id="edge21" class="edge">
<title>Node25&#45;&gt;Node27</title>
<path fill="none" stroke="midnightblue" d="M236.61,-112.44C201.38,-103.16 144.99,-88.31 106.34,-78.13"/>
<polygon fill="midnightblue" stroke="midnightblue" points="106.99,-74.68 96.43,-75.52 105.21,-81.45 106.99,-74.68"/>
</g>
<!-- Node28 -->
<g id="node22" class="node">
<title>Node28</title>
<g id="a_node22"><a xlink:title=" ">
<polygon fill="white" stroke="#bfbfbf" points="133.6,-56.5 133.6,-75.5 180.6,-75.5 180.6,-56.5 133.6,-56.5"/>
<text text-anchor="middle" x="157.1" y="-63.5" font-family="Helvetica,sans-Serif" font-size="10.00">vector</text>
</a>
</g>
</g>
<!-- Node25&#45;&gt;Node28 -->
<g id="edge24" class="edge">
<title>Node25&#45;&gt;Node28</title>
<path fill="none" stroke="midnightblue" d="M251.1,-112.32C233.06,-103.62 205.05,-90.12 184.29,-80.11"/>
<polygon fill="midnightblue" stroke="midnightblue" points="185.57,-76.84 175.05,-75.65 182.53,-83.15 185.57,-76.84"/>
</g>
<!-- Node30&#45;&gt;Node5 -->
<g id="edge28" class="edge">
<title>Node30&#45;&gt;Node5</title>
<path fill="none" stroke="midnightblue" d="M563.62,-168.44C594.16,-159.28 642.8,-144.69 676.7,-134.52"/>
<polygon fill="midnightblue" stroke="midnightblue" points="678.14,-137.74 686.71,-131.52 676.12,-131.04 678.14,-137.74"/>
</g>
<!-- Node30&#45;&gt;Node20 -->
<g id="edge30" class="edge">
<title>Node30&#45;&gt;Node20</title>
<path fill="none" stroke="midnightblue" d="M526.14,-168.16C513.45,-155.64 489.53,-132.05 469.1,-112 459.21,-102.29 448.1,-91.43 439.28,-82.81"/>
<polygon fill="midnightblue" stroke="midnightblue" points="441.52,-80.1 431.92,-75.62 436.63,-85.11 441.52,-80.1"/>
</g>
<!-- Node30&#45;&gt;Node30 -->
<g id="edge29" class="edge">
<title>Node30&#45;&gt;Node30</title>
<path fill="none" stroke="midnightblue" d="M574.55,-187.53C601.35,-190.31 627.6,-187.13 627.6,-178 627.6,-170.01 607.5,-166.58 584.52,-167.71"/>
<polygon fill="midnightblue" stroke="midnightblue" points="584.25,-164.22 574.55,-168.47 584.79,-171.2 584.25,-164.22"/>
</g>
<!-- Node38 -->
<g id="node30" class="node">
<title>Node38</title>
<g id="a_node30"><a xlink:title=" ">
<polygon fill="white" stroke="#bfbfbf" points="1698.6,-224.5 1698.6,-243.5 1815.6,-243.5 1815.6,-224.5 1698.6,-224.5"/>
<text text-anchor="middle" x="1757.1" y="-231.5" font-family="Helvetica,sans-Serif" font-size="10.00">G4UserRunAction.hh</text>
</a>
</g>
</g>
<!-- Node37&#45;&gt;Node38 -->
<g id="edge36" class="edge">
<title>Node37&#45;&gt;Node38</title>
<path fill="none" stroke="midnightblue" d="M1757.1,-280.08C1757.1,-273.01 1757.1,-262.86 1757.1,-253.99"/>
<polygon fill="midnightblue" stroke="midnightblue" points="1760.6,-253.75 1757.1,-243.75 1753.6,-253.75 1760.6,-253.75"/>
</g>
<!-- Node41 -->
<g id="node33" class="node">
<title>Node41</title>
<g id="a_node33"><a xlink:title=" ">
<polygon fill="white" stroke="#bfbfbf" points="1976.6,-224.5 1976.6,-243.5 2115.6,-243.5 2115.6,-224.5 1976.6,-224.5"/>
<text text-anchor="middle" x="2046.1" y="-231.5" font-family="Helvetica,sans-Serif" font-size="10.00">G4UserTrackingAction.hh</text>
</a>
</g>
</g>
<!-- Node40&#45;&gt;Node41 -->
<g id="edge39" class="edge">
<title>Node40&#45;&gt;Node41</title>
<path fill="none" stroke="midnightblue" d="M2046.1,-280.08C2046.1,-273.01 2046.1,-262.86 2046.1,-253.99"/>
<polygon fill="midnightblue" stroke="midnightblue" points="2049.6,-253.75 2046.1,-243.75 2042.6,-253.75 2049.6,-253.75"/>
</g>
<!-- Node43 -->
<g id="node35" class="node">
<title>Node43</title>
<g id="a_node35"><a xlink:title=" ">
<polygon fill="white" stroke="#bfbfbf" points="778.6,-224.5 778.6,-243.5 919.6,-243.5 919.6,-224.5 778.6,-224.5"/>
<text text-anchor="middle" x="849.1" y="-231.5" font-family="Helvetica,sans-Serif" font-size="10.00">G4UserSteppingAction.hh</text>
</a>
</g>
</g>
<!-- Node42&#45;&gt;Node43 -->
<g id="edge41" class="edge">
<title>Node42&#45;&gt;Node43</title>
<path fill="none" stroke="midnightblue" d="M814.87,-280.08C820.66,-272.46 829.16,-261.26 836.23,-251.94"/>
<polygon fill="midnightblue" stroke="midnightblue" points="839.19,-253.83 842.45,-243.75 833.62,-249.6 839.19,-253.83"/>
</g>
<!-- Node45 -->
<g id="node37" class="node">
<title>Node45</title>
<g id="a_node37"><a xlink:href="_o_m_sim_command_args_table_8hh.html" target="_top" xlink:title="Definition of the OMSimCommandArgsTable singleton class, which controls user args.">
<polygon fill="white" stroke="black" points="1074.1,-168.5 1074.1,-187.5 1238.1,-187.5 1238.1,-168.5 1074.1,-168.5"/>
<text text-anchor="middle" x="1156.1" y="-175.5" font-family="Helvetica,sans-Serif" font-size="10.00">OMSimCommandArgsTable.hh</text>
</a>
</g>
</g>
<!-- Node44&#45;&gt;Node45 -->
<g id="edge43" class="edge">
<title>Node44&#45;&gt;Node45</title>
<path fill="none" stroke="midnightblue" d="M1402.67,-224.44C1351.02,-214.92 1267.58,-199.55 1212.29,-189.36"/>
<polygon fill="midnightblue" stroke="midnightblue" points="1212.77,-185.89 1202.31,-187.52 1211.51,-192.77 1212.77,-185.89"/>
</g>
<!-- Node48 -->
<g id="node40" class="node">
<title>Node48</title>
<g id="a_node40"><a xlink:title=" ">
<polygon fill="white" stroke="#bfbfbf" points="1400.1,-168.5 1400.1,-187.5 1498.1,-187.5 1498.1,-168.5 1400.1,-168.5"/>
<text text-anchor="middle" x="1449.1" y="-175.5" font-family="Helvetica,sans-Serif" font-size="10.00">G4UImanager.hh</text>
</a>
</g>
</g>
<!-- Node44&#45;&gt;Node48 -->
<g id="edge48" class="edge">
<title>Node44&#45;&gt;Node48</title>
<path fill="none" stroke="midnightblue" d="M1449.1,-224.08C1449.1,-217.01 1449.1,-206.86 1449.1,-197.99"/>
<polygon fill="midnightblue" stroke="midnightblue" points="1452.6,-197.75 1449.1,-187.75 1445.6,-197.75 1452.6,-197.75"/>
</g>
<!-- Node45&#45;&gt;Node7 -->
<g id="edge44" class="edge">
<title>Node45&#45;&gt;Node7</title>
<path fill="none" stroke="midnightblue" d="M1144.01,-168.42C1132.87,-160.07 1116.4,-146.54 1105.1,-132 1081.79,-102.03 1094.3,-81.41 1066.1,-56 1048.21,-39.89 1023.92,-29.28 1002.19,-22.43"/>
<polygon fill="midnightblue" stroke="midnightblue" points="1002.99,-19.02 992.41,-19.54 1001.01,-25.73 1002.99,-19.02"/>
</g>
<!-- Node45&#45;&gt;Node29 -->
<g id="edge45" class="edge">
<title>Node45&#45;&gt;Node29</title>
<path fill="none" stroke="midnightblue" d="M1073.86,-170.86C917.72,-159.2 583.83,-134.26 471.14,-125.84"/>
<polygon fill="midnightblue" stroke="midnightblue" points="471.17,-122.33 460.94,-125.08 470.65,-129.31 471.17,-122.33"/>
</g>
<!-- Node46 -->
<g id="node38" class="node">
<title>Node46</title>
<g id="a_node38"><a xlink:title=" ">
<polygon fill="white" stroke="#bfbfbf" points="1114.1,-112.5 1114.1,-131.5 1198.1,-131.5 1198.1,-112.5 1114.1,-112.5"/>
<text text-anchor="middle" x="1156.1" y="-119.5" font-family="Helvetica,sans-Serif" font-size="10.00">boost/any.hpp</text>
</a>
</g>
</g>
<!-- Node45&#45;&gt;Node46 -->
<g id="edge46" class="edge">
<title>Node45&#45;&gt;Node46</title>
<path fill="none" stroke="midnightblue" d="M1156.1,-168.08C1156.1,-161.01 1156.1,-150.86 1156.1,-141.99"/>
<polygon fill="midnightblue" stroke="midnightblue" points="1159.6,-141.75 1156.1,-131.75 1152.6,-141.75 1159.6,-141.75"/>
</g>
<!-- Node47 -->
<g id="node39" class="node">
<title>Node47</title>
<g id="a_node39"><a xlink:title=" ">
<polygon fill="white" stroke="#bfbfbf" points="1216.1,-112.5 1216.1,-131.5 1284.1,-131.5 1284.1,-112.5 1216.1,-112.5"/>
<text text-anchor="middle" x="1250.1" y="-119.5" font-family="Helvetica,sans-Serif" font-size="10.00">sys/time.h</text>
</a>
</g>
</g>
<!-- Node45&#45;&gt;Node47 -->
<g id="edge47" class="edge">
<title>Node45&#45;&gt;Node47</title>
<path fill="none" stroke="midnightblue" d="M1171.2,-168.32C1186,-159.82 1208.79,-146.73 1226.08,-136.8"/>
<polygon fill="midnightblue" stroke="midnightblue" points="1228.1,-139.67 1235.03,-131.65 1224.62,-133.6 1228.1,-139.67"/>
</g>
<!-- Node54&#45;&gt;Node19 -->
<g id="edge58" class="edge">
<title>Node54&#45;&gt;Node19</title>
<path fill="none" stroke="midnightblue" d="M226.96,-224.44C249.88,-215.48 286.07,-201.31 311.96,-191.18"/>
<polygon fill="midnightblue" stroke="midnightblue" points="313.3,-194.42 321.33,-187.52 310.74,-187.9 313.3,-194.42"/>
</g>
<!-- Node54&#45;&gt;Node21 -->
<g id="edge55" class="edge">
<title>Node54&#45;&gt;Node21</title>
<path fill="none" stroke="midnightblue" d="M172.29,-224.47C148.95,-217.32 117.67,-205.43 94.1,-188 42.53,-149.86 24.56,-136.44 3.1,-76 0.12,-67.62 -1.61,-63.54 3.1,-56 13.26,-39.71 31.23,-29.15 48.6,-22.4"/>
<polygon fill="midnightblue" stroke="midnightblue" points="49.88,-25.66 58.13,-19.02 47.54,-19.06 49.88,-25.66"/>
</g>
<!-- Node54&#45;&gt;Node27 -->
<g id="edge57" class="edge">
<title>Node54&#45;&gt;Node27</title>
<path fill="none" stroke="midnightblue" d="M173.08,-224.35C152.93,-217.45 127.7,-205.92 111.1,-188 83.88,-158.63 71.8,-111.73 66.96,-85.79"/>
<polygon fill="midnightblue" stroke="midnightblue" points="70.38,-85.05 65.26,-75.78 63.48,-86.22 70.38,-85.05"/>
</g>
<!-- Node54&#45;&gt;Node28 -->
<g id="edge59" class="edge">
<title>Node54&#45;&gt;Node28</title>
<path fill="none" stroke="midnightblue" d="M172.11,-224.44C153.63,-217.77 132.14,-206.45 121.1,-188 100.83,-154.15 126.86,-108.08 144.1,-83.71"/>
<polygon fill="midnightblue" stroke="midnightblue" points="147.04,-85.63 150.17,-75.5 141.41,-81.47 147.04,-85.63"/>
</g>
<!-- Node54&#45;&gt;Node29 -->
<g id="edge60" class="edge">
<title>Node54&#45;&gt;Node29</title>
<path fill="none" stroke="midnightblue" d="M266.31,-226.62C319.74,-219.86 391.94,-207.43 413.1,-188 425.99,-176.17 430.66,-156.25 432.3,-141.57"/>
<polygon fill="midnightblue" stroke="midnightblue" points="435.79,-141.83 433.06,-131.59 428.81,-141.3 435.79,-141.83"/>
</g>
<!-- Node55 -->
<g id="node47" class="node">
<title>Node55</title>
<g id="a_node47"><a xlink:title=" ">
<polygon fill="white" stroke="#bfbfbf" points="130.1,-168.5 130.1,-187.5 204.1,-187.5 204.1,-168.5 130.1,-168.5"/>
<text text-anchor="middle" x="167.1" y="-175.5" font-family="Helvetica,sans-Serif" font-size="10.00">G4String.hh</text>
</a>
</g>
</g>
<!-- Node54&#45;&gt;Node55 -->
<g id="edge56" class="edge">
<title>Node54&#45;&gt;Node55</title>
<path fill="none" stroke="midnightblue" d="M198.82,-224.08C193.45,-216.46 185.58,-205.26 179.02,-195.94"/>
<polygon fill="midnightblue" stroke="midnightblue" points="181.87,-193.91 173.25,-187.75 176.15,-197.94 181.87,-193.91"/>
</g>
<!-- Node56 -->
<g id="node48" class="node">
<title>Node56</title>
<g id="a_node48"><a xlink:title=" ">
<polygon fill="white" stroke="#bfbfbf" points="222.6,-168.5 222.6,-187.5 263.6,-187.5 263.6,-168.5 222.6,-168.5"/>
<text text-anchor="middle" x="243.1" y="-175.5" font-family="Helvetica,sans-Serif" font-size="10.00">tuple</text>
</a>
</g>
</g>
<!-- Node54&#45;&gt;Node56 -->
<g id="edge61" class="edge">
<title>Node54&#45;&gt;Node56</title>
<path fill="none" stroke="midnightblue" d="M211.37,-224.08C216.74,-216.46 224.61,-205.26 231.18,-195.94"/>
<polygon fill="midnightblue" stroke="midnightblue" points="234.05,-197.94 236.94,-187.75 228.32,-193.91 234.05,-197.94"/>
</g>
<!-- Node58&#45;&gt;Node3 -->
<g id="edge66" class="edge">
<title>Node58&#45;&gt;Node3</title>
<path fill="none" stroke="midnightblue" d="M451.13,-336.08C447.88,-328.77 443.18,-318.18 439.14,-309.1"/>
<polygon fill="midnightblue" stroke="midnightblue" points="442.25,-307.47 434.99,-299.75 435.85,-310.31 442.25,-307.47"/>
</g>
</g>
</svg>
