<?xml version="1.0" encoding="UTF-8" standalone="no"?>
<!DOCTYPE svg PUBLIC "-//W3C//DTD SVG 1.1//EN"
 "http://www.w3.org/Graphics/SVG/1.1/DTD/svg11.dtd">
<!-- Generated by graphviz version 2.43.0 (0)
 -->
<!-- Title: OMSimRadDecaysDetector.cc Pages: 1 -->
<svg width="1686pt" height="498pt"
 viewBox="0.00 0.00 1686.00 498.00" xmlns="http://www.w3.org/2000/svg" xmlns:xlink="http://www.w3.org/1999/xlink">
<g id="graph0" class="graph" transform="scale(1 1) rotate(0) translate(4 494)">
<title>OMSimRadDecaysDetector.cc</title>
<polygon fill="white" stroke="transparent" points="-4,4 -4,-494 1682,-494 1682,4 -4,4"/>
<!-- Node1 -->
<g id="node1" class="node">
<title>Node1</title>
<g id="a_node1"><a xlink:title=" ">
<polygon fill="#bfbfbf" stroke="black" points="754,-470.5 754,-489.5 915,-489.5 915,-470.5 754,-470.5"/>
<text text-anchor="middle" x="834.5" y="-477.5" font-family="Helvetica,sans-Serif" font-size="10.00">OMSimRadDecaysDetector.cc</text>
</a>
</g>
</g>
<!-- Node2 -->
<g id="node2" class="node">
<title>Node2</title>
<g id="a_node2"><a xlink:href="_o_m_sim_rad_decays_detector_8hh.html" target="_top" xlink:title="Defines the OMSimRadDecaysDetector class for the radioactive decays simulation.">
<polygon fill="white" stroke="black" points="214,-414.5 214,-433.5 377,-433.5 377,-414.5 214,-414.5"/>
<text text-anchor="middle" x="295.5" y="-421.5" font-family="Helvetica,sans-Serif" font-size="10.00">OMSimRadDecaysDetector.hh</text>
</a>
</g>
</g>
<!-- Node1&#45;&gt;Node2 -->
<g id="edge1" class="edge">
<title>Node1&#45;&gt;Node2</title>
<path fill="none" stroke="midnightblue" d="M753.81,-470.92C655.61,-461.08 490.21,-444.51 387.26,-434.19"/>
<polygon fill="midnightblue" stroke="midnightblue" points="387.49,-430.7 377.19,-433.18 386.79,-437.66 387.49,-430.7"/>
</g>
<!-- Node18 -->
<g id="node18" class="node">
<title>Node18</title>
<g id="a_node18"><a xlink:href="_o_m_sim_hit_manager_8hh.html" target="_top" xlink:title="Defines structures and classes related to optical module photon hit management.">
<polygon fill="white" stroke="black" points="888,-246.5 888,-265.5 1011,-265.5 1011,-246.5 888,-246.5"/>
<text text-anchor="middle" x="949.5" y="-253.5" font-family="Helvetica,sans-Serif" font-size="10.00">OMSimHitManager.hh</text>
</a>
</g>
</g>
<!-- Node1&#45;&gt;Node18 -->
<g id="edge66" class="edge">
<title>Node1&#45;&gt;Node18</title>
<path fill="none" stroke="midnightblue" d="M848.7,-470.24C880.87,-449.4 958.42,-393.25 983.5,-322 989.6,-304.66 978.01,-286.2 966.74,-273.41"/>
<polygon fill="midnightblue" stroke="midnightblue" points="969,-270.7 959.57,-265.88 963.93,-275.53 969,-270.7"/>
</g>
<!-- Node34 -->
<g id="node34" class="node">
<title>Node34</title>
<g id="a_node34"><a xlink:href="_o_m_sim_m_d_o_m_8hh.html" target="_top" xlink:title="Construction of mDOM.">
<polygon fill="white" stroke="black" points="323.5,-358.5 323.5,-377.5 423.5,-377.5 423.5,-358.5 323.5,-358.5"/>
<text text-anchor="middle" x="373.5" y="-365.5" font-family="Helvetica,sans-Serif" font-size="10.00">OMSimMDOM.hh</text>
</a>
</g>
</g>
<!-- Node1&#45;&gt;Node34 -->
<g id="edge40" class="edge">
<title>Node1&#45;&gt;Node34</title>
<path fill="none" stroke="midnightblue" d="M793.16,-470.48C751.31,-461.74 684.76,-447.55 627.5,-434 552.49,-416.26 465.58,-393.55 415.33,-380.2"/>
<polygon fill="midnightblue" stroke="midnightblue" points="416.05,-376.77 405.48,-377.58 414.25,-383.54 416.05,-376.77"/>
</g>
<!-- Node37 -->
<g id="node37" class="node">
<title>Node37</title>
<g id="a_node37"><a xlink:href="_o_m_sim_p_d_o_m_8hh.html" target="_top" xlink:title="Implementation of the pDOM/Gen1 DOM class.">
<polygon fill="white" stroke="black" points="442,-358.5 442,-377.5 539,-377.5 539,-358.5 442,-358.5"/>
<text text-anchor="middle" x="490.5" y="-365.5" font-family="Helvetica,sans-Serif" font-size="10.00">OMSimPDOM.hh</text>
</a>
</g>
</g>
<!-- Node1&#45;&gt;Node37 -->
<g id="edge47" class="edge">
<title>Node1&#45;&gt;Node37</title>
<path fill="none" stroke="midnightblue" d="M807.79,-470.46C746.71,-450.93 596.71,-402.96 527.09,-380.7"/>
<polygon fill="midnightblue" stroke="midnightblue" points="528.02,-377.32 517.43,-377.61 525.89,-383.99 528.02,-377.32"/>
</g>
<!-- Node38 -->
<g id="node38" class="node">
<title>Node38</title>
<g id="a_node38"><a xlink:href="_o_m_sim_l_o_m16_8hh.html" target="_top" xlink:title="Construction of LOM16.">
<polygon fill="white" stroke="black" points="596,-358.5 596,-377.5 697,-377.5 697,-358.5 596,-358.5"/>
<text text-anchor="middle" x="646.5" y="-365.5" font-family="Helvetica,sans-Serif" font-size="10.00">OMSimLOM16.hh</text>
</a>
</g>
</g>
<!-- Node1&#45;&gt;Node38 -->
<g id="edge50" class="edge">
<title>Node1&#45;&gt;Node38</title>
<path fill="none" stroke="midnightblue" d="M819.75,-470.37C787.21,-451.33 709.08,-405.62 669.83,-382.65"/>
<polygon fill="midnightblue" stroke="midnightblue" points="671.58,-379.62 661.18,-377.59 668.05,-385.66 671.58,-379.62"/>
</g>
<!-- Node39 -->
<g id="node39" class="node">
<title>Node39</title>
<g id="a_node39"><a xlink:href="_o_m_sim_l_o_m18_8hh.html" target="_top" xlink:title="Construction of LOM18.">
<polygon fill="white" stroke="black" points="828,-358.5 828,-377.5 929,-377.5 929,-358.5 828,-358.5"/>
<text text-anchor="middle" x="878.5" y="-365.5" font-family="Helvetica,sans-Serif" font-size="10.00">OMSimLOM18.hh</text>
</a>
</g>
</g>
<!-- Node1&#45;&gt;Node39 -->
<g id="edge53" class="edge">
<title>Node1&#45;&gt;Node39</title>
<path fill="none" stroke="midnightblue" d="M837.95,-470.37C845.12,-452.46 861.73,-410.92 871.32,-386.95"/>
<polygon fill="midnightblue" stroke="midnightblue" points="874.6,-388.18 875.06,-377.59 868.1,-385.58 874.6,-388.18"/>
</g>
<!-- Node42 -->
<g id="node42" class="node">
<title>Node42</title>
<g id="a_node42"><a xlink:href="_o_m_sim_d_e_g_g_8hh.html" target="_top" xlink:title="Construction of the DEGG class. From DOUMEKI.">
<polygon fill="white" stroke="black" points="715,-358.5 715,-377.5 810,-377.5 810,-358.5 715,-358.5"/>
<text text-anchor="middle" x="762.5" y="-365.5" font-family="Helvetica,sans-Serif" font-size="10.00">OMSimDEGG.hh</text>
</a>
</g>
</g>
<!-- Node1&#45;&gt;Node42 -->
<g id="edge58" class="edge">
<title>Node1&#45;&gt;Node42</title>
<path fill="none" stroke="midnightblue" d="M828.85,-470.37C816.97,-452.22 789.21,-409.8 773.62,-385.99"/>
<polygon fill="midnightblue" stroke="midnightblue" points="776.53,-384.04 768.12,-377.59 770.67,-387.88 776.53,-384.04"/>
</g>
<!-- Node43 -->
<g id="node43" class="node">
<title>Node43</title>
<g id="a_node43"><a xlink:href="_o_m_sim_command_args_table_8hh.html" target="_top" xlink:title="Definition of the OMSimCommandArgsTable singleton class, which controls user args.">
<polygon fill="white" stroke="black" points="1040.5,-246.5 1040.5,-265.5 1204.5,-265.5 1204.5,-246.5 1040.5,-246.5"/>
<text text-anchor="middle" x="1122.5" y="-253.5" font-family="Helvetica,sans-Serif" font-size="10.00">OMSimCommandArgsTable.hh</text>
</a>
</g>
</g>
<!-- Node1&#45;&gt;Node43 -->
<g id="edge61" class="edge">
<title>Node1&#45;&gt;Node43</title>
<path fill="none" stroke="midnightblue" d="M854.97,-470.48C873.4,-462.36 900.85,-449.16 922.5,-434 993.09,-384.58 998.84,-357.8 1064.5,-302 1076.88,-291.48 1091.32,-280.27 1102.69,-271.68"/>
<polygon fill="midnightblue" stroke="midnightblue" points="1104.8,-274.47 1110.7,-265.67 1100.6,-268.87 1104.8,-274.47"/>
</g>
<!-- Node46 -->
<g id="node46" class="node">
<title>Node46</title>
<g id="a_node46"><a xlink:title=" ">
<polygon fill="white" stroke="#bfbfbf" points="1107,-414.5 1107,-433.5 1208,-433.5 1208,-414.5 1107,-414.5"/>
<text text-anchor="middle" x="1157.5" y="-421.5" font-family="Helvetica,sans-Serif" font-size="10.00">G4SDManager.hh</text>
</a>
</g>
</g>
<!-- Node1&#45;&gt;Node46 -->
<g id="edge67" class="edge">
<title>Node1&#45;&gt;Node46</title>
<path fill="none" stroke="midnightblue" d="M885.68,-470.44C943.06,-460.85 1036.02,-445.31 1096.96,-435.12"/>
<polygon fill="midnightblue" stroke="midnightblue" points="1097.54,-438.57 1106.83,-433.47 1096.38,-431.67 1097.54,-438.57"/>
</g>
<!-- Node47 -->
<g id="node47" class="node">
<title>Node47</title>
<g id="a_node47"><a xlink:href="_o_m_sim_sensitive_detector_8hh.html" target="_top" xlink:title=" ">
<polygon fill="white" stroke="black" points="1330,-246.5 1330,-265.5 1483,-265.5 1483,-246.5 1330,-246.5"/>
<text text-anchor="middle" x="1406.5" y="-253.5" font-family="Helvetica,sans-Serif" font-size="10.00">OMSimSensitiveDetector.hh</text>
</a>
</g>
</g>
<!-- Node1&#45;&gt;Node47 -->
<g id="edge68" class="edge">
<title>Node1&#45;&gt;Node47</title>
<path fill="none" stroke="midnightblue" d="M856.57,-470.43C944.69,-436.23 1271.53,-309.38 1374.92,-269.25"/>
<polygon fill="midnightblue" stroke="midnightblue" points="1376.44,-272.42 1384.49,-265.54 1373.9,-265.9 1376.44,-272.42"/>
</g>
<!-- Node3 -->
<g id="node3" class="node">
<title>Node3</title>
<g id="a_node3"><a xlink:href="_o_m_sim_optical_module_8hh.html" target="_top" xlink:title=" ">
<polygon fill="white" stroke="black" points="481,-302.5 481,-321.5 618,-321.5 618,-302.5 481,-302.5"/>
<text text-anchor="middle" x="549.5" y="-309.5" font-family="Helvetica,sans-Serif" font-size="10.00">OMSimOpticalModule.hh</text>
</a>
</g>
</g>
<!-- Node2&#45;&gt;Node3 -->
<g id="edge2" class="edge">
<title>Node2&#45;&gt;Node3</title>
<path fill="none" stroke="midnightblue" d="M377.25,-419.45C442.57,-414.7 526.67,-403.65 548.5,-378 559.22,-365.4 557.99,-345.91 554.98,-331.56"/>
<polygon fill="midnightblue" stroke="midnightblue" points="558.35,-330.61 552.5,-321.78 551.57,-332.33 558.35,-330.61"/>
</g>
<!-- Node4 -->
<g id="node4" class="node">
<title>Node4</title>
<g id="a_node4"><a xlink:href="abc_detector_component_8hh.html" target="_top" xlink:title="Provides helper base class abcDetectorComponent for constructing and managing detector components in ...">
<polygon fill="white" stroke="black" points="274,-190.5 274,-209.5 421,-209.5 421,-190.5 274,-190.5"/>
<text text-anchor="middle" x="347.5" y="-197.5" font-family="Helvetica,sans-Serif" font-size="10.00">abcDetectorComponent.hh</text>
</a>
</g>
</g>
<!-- Node2&#45;&gt;Node4 -->
<g id="edge34" class="edge">
<title>Node2&#45;&gt;Node4</title>
<path fill="none" stroke="midnightblue" d="M294.98,-414.16C293.72,-387.67 292.19,-306.94 315.5,-246 319.47,-235.61 326.42,-225.39 332.83,-217.33"/>
<polygon fill="midnightblue" stroke="midnightblue" points="335.64,-219.42 339.4,-209.52 330.28,-214.91 335.64,-219.42"/>
</g>
<!-- Node31 -->
<g id="node31" class="node">
<title>Node31</title>
<g id="a_node31"><a xlink:href="_o_m_sim_detector_construction_8hh.html" target="_top" xlink:title=" ">
<polygon fill="white" stroke="black" points="95.5,-358.5 95.5,-377.5 265.5,-377.5 265.5,-358.5 95.5,-358.5"/>
<text text-anchor="middle" x="180.5" y="-365.5" font-family="Helvetica,sans-Serif" font-size="10.00">OMSimDetectorConstruction.hh</text>
</a>
</g>
</g>
<!-- Node2&#45;&gt;Node31 -->
<g id="edge35" class="edge">
<title>Node2&#45;&gt;Node31</title>
<path fill="none" stroke="midnightblue" d="M277.28,-414.44C258.6,-405.68 229.34,-391.94 207.88,-381.86"/>
<polygon fill="midnightblue" stroke="midnightblue" points="209.18,-378.6 198.64,-377.52 206.2,-384.93 209.18,-378.6"/>
</g>
<!-- Node32 -->
<g id="node32" class="node">
<title>Node32</title>
<g id="a_node32"><a xlink:title=" ">
<polygon fill="white" stroke="#bfbfbf" points="9.5,-302.5 9.5,-321.5 71.5,-321.5 71.5,-302.5 9.5,-302.5"/>
<text text-anchor="middle" x="40.5" y="-309.5" font-family="Helvetica,sans-Serif" font-size="10.00">G4Orb.hh</text>
</a>
</g>
</g>
<!-- Node2&#45;&gt;Node32 -->
<g id="edge39" class="edge">
<title>Node2&#45;&gt;Node32</title>
<path fill="none" stroke="midnightblue" d="M213.96,-419.33C172.92,-414.2 124.06,-402.79 86.5,-378 69.06,-366.49 56.18,-345.92 48.56,-330.99"/>
<polygon fill="midnightblue" stroke="midnightblue" points="51.6,-329.25 44.12,-321.74 45.29,-332.27 51.6,-329.25"/>
</g>
<!-- Node3&#45;&gt;Node4 -->
<g id="edge3" class="edge">
<title>Node3&#45;&gt;Node4</title>
<path fill="none" stroke="midnightblue" d="M540.73,-302.35C526.58,-288.79 497.35,-262.37 468.5,-246 443.14,-231.61 412.32,-220.23 388.12,-212.51"/>
<polygon fill="midnightblue" stroke="midnightblue" points="389.12,-209.15 378.53,-209.53 387.04,-215.84 389.12,-209.15"/>
</g>
<!-- Node3&#45;&gt;Node18 -->
<g id="edge17" class="edge">
<title>Node3&#45;&gt;Node18</title>
<path fill="none" stroke="midnightblue" d="M612.88,-302.44C684.84,-292.73 801.98,-276.91 877.38,-266.74"/>
<polygon fill="midnightblue" stroke="midnightblue" points="878.29,-270.15 887.73,-265.34 877.35,-263.21 878.29,-270.15"/>
</g>
<!-- Node28 -->
<g id="node28" class="node">
<title>Node28</title>
<g id="a_node28"><a xlink:href="_o_m_sim_p_m_t_construction_8hh.html" target="_top" xlink:title="Construction of the PMTs.">
<polygon fill="white" stroke="black" points="515,-246.5 515,-265.5 664,-265.5 664,-246.5 515,-246.5"/>
<text text-anchor="middle" x="589.5" y="-253.5" font-family="Helvetica,sans-Serif" font-size="10.00">OMSimPMTConstruction.hh</text>
</a>
</g>
</g>
<!-- Node3&#45;&gt;Node28 -->
<g id="edge28" class="edge">
<title>Node3&#45;&gt;Node28</title>
<path fill="none" stroke="midnightblue" d="M556.11,-302.08C561.76,-294.46 570.04,-283.26 576.95,-273.94"/>
<polygon fill="midnightblue" stroke="midnightblue" points="579.88,-275.87 583.02,-265.75 574.25,-271.7 579.88,-275.87"/>
</g>
<!-- Node5 -->
<g id="node5" class="node">
<title>Node5</title>
<g id="a_node5"><a xlink:href="_o_m_sim_input_data_8hh.html" target="_top" xlink:title="Definition of ParameterTable and InputDataManager.">
<polygon fill="white" stroke="black" points="562,-134.5 562,-153.5 677,-153.5 677,-134.5 562,-134.5"/>
<text text-anchor="middle" x="619.5" y="-141.5" font-family="Helvetica,sans-Serif" font-size="10.00">OMSimInputData.hh</text>
</a>
</g>
</g>
<!-- Node4&#45;&gt;Node5 -->
<g id="edge4" class="edge">
<title>Node4&#45;&gt;Node5</title>
<path fill="none" stroke="midnightblue" d="M390.6,-190.44C438.35,-180.96 515.36,-165.67 566.69,-155.48"/>
<polygon fill="midnightblue" stroke="midnightblue" points="567.48,-158.9 576.6,-153.52 566.11,-152.03 567.48,-158.9"/>
</g>
<!-- Node14 -->
<g id="node14" class="node">
<title>Node14</title>
<g id="a_node14"><a xlink:title=" ">
<polygon fill="white" stroke="#bfbfbf" points="272,-134.5 272,-153.5 379,-153.5 379,-134.5 272,-134.5"/>
<text text-anchor="middle" x="325.5" y="-141.5" font-family="Helvetica,sans-Serif" font-size="10.00">G4Transform3D.hh</text>
</a>
</g>
</g>
<!-- Node4&#45;&gt;Node14 -->
<g id="edge13" class="edge">
<title>Node4&#45;&gt;Node14</title>
<path fill="none" stroke="midnightblue" d="M343.87,-190.08C340.89,-182.77 336.57,-172.18 332.88,-163.1"/>
<polygon fill="midnightblue" stroke="midnightblue" points="336.08,-161.69 329.07,-153.75 329.6,-164.33 336.08,-161.69"/>
</g>
<!-- Node15 -->
<g id="node15" class="node">
<title>Node15</title>
<g id="a_node15"><a xlink:title=" ">
<polygon fill="white" stroke="#bfbfbf" points="397.5,-134.5 397.5,-153.5 505.5,-153.5 505.5,-134.5 397.5,-134.5"/>
<text text-anchor="middle" x="451.5" y="-141.5" font-family="Helvetica,sans-Serif" font-size="10.00">G4VisAttributes.hh</text>
</a>
</g>
</g>
<!-- Node4&#45;&gt;Node15 -->
<g id="edge14" class="edge">
<title>Node4&#45;&gt;Node15</title>
<path fill="none" stroke="midnightblue" d="M364.21,-190.32C380.81,-181.7 406.5,-168.36 425.72,-158.39"/>
<polygon fill="midnightblue" stroke="midnightblue" points="427.57,-161.37 434.83,-153.65 424.34,-155.16 427.57,-161.37"/>
</g>
<!-- Node16 -->
<g id="node16" class="node">
<title>Node16</title>
<g id="a_node16"><a xlink:title=" ">
<polygon fill="white" stroke="#bfbfbf" points="0,-134.5 0,-153.5 125,-153.5 125,-134.5 0,-134.5"/>
<text text-anchor="middle" x="62.5" y="-141.5" font-family="Helvetica,sans-Serif" font-size="10.00">G4SubtractionSolid.hh</text>
</a>
</g>
</g>
<!-- Node4&#45;&gt;Node16 -->
<g id="edge15" class="edge">
<title>Node4&#45;&gt;Node16</title>
<path fill="none" stroke="midnightblue" d="M302.34,-190.44C252.21,-180.94 171.28,-165.61 117.49,-155.42"/>
<polygon fill="midnightblue" stroke="midnightblue" points="117.92,-151.94 107.45,-153.52 116.62,-158.82 117.92,-151.94"/>
</g>
<!-- Node17 -->
<g id="node17" class="node">
<title>Node17</title>
<g id="a_node17"><a xlink:title=" ">
<polygon fill="white" stroke="#bfbfbf" points="143.5,-134.5 143.5,-153.5 253.5,-153.5 253.5,-134.5 143.5,-134.5"/>
<text text-anchor="middle" x="198.5" y="-141.5" font-family="Helvetica,sans-Serif" font-size="10.00">G4PVPlacement.hh</text>
</a>
</g>
</g>
<!-- Node4&#45;&gt;Node17 -->
<g id="edge16" class="edge">
<title>Node4&#45;&gt;Node17</title>
<path fill="none" stroke="midnightblue" d="M323.89,-190.44C299.04,-181.44 259.73,-167.19 231.75,-157.05"/>
<polygon fill="midnightblue" stroke="midnightblue" points="232.59,-153.63 222,-153.52 230.21,-160.21 232.59,-153.63"/>
</g>
<!-- Node6 -->
<g id="node6" class="node">
<title>Node6</title>
<g id="a_node6"><a xlink:href="_o_m_sim_logger_8hh.html" target="_top" xlink:title=" ">
<polygon fill="white" stroke="black" points="927,-73 927,-92 1026,-92 1026,-73 927,-73"/>
<text text-anchor="middle" x="976.5" y="-80" font-family="Helvetica,sans-Serif" font-size="10.00">OMSimLogger.hh</text>
</a>
</g>
</g>
<!-- Node5&#45;&gt;Node6 -->
<g id="edge5" class="edge">
<title>Node5&#45;&gt;Node6</title>
<path fill="none" stroke="midnightblue" d="M670.65,-134.48C735.66,-123.64 847.7,-104.97 916.62,-93.48"/>
<polygon fill="midnightblue" stroke="midnightblue" points="917.59,-96.87 926.88,-91.77 916.44,-89.96 917.59,-96.87"/>
</g>
<!-- Node11 -->
<g id="node11" class="node">
<title>Node11</title>
<g id="a_node11"><a xlink:title=" ">
<polygon fill="white" stroke="#bfbfbf" points="1198,-73 1198,-92 1341,-92 1341,-73 1198,-73"/>
<text text-anchor="middle" x="1269.5" y="-80" font-family="Helvetica,sans-Serif" font-size="10.00">G4OpBoundaryProcess.hh</text>
</a>
</g>
</g>
<!-- Node5&#45;&gt;Node11 -->
<g id="edge10" class="edge">
<title>Node5&#45;&gt;Node11</title>
<path fill="none" stroke="midnightblue" d="M677.22,-135.07C680.36,-134.69 683.47,-134.33 686.5,-134 864.72,-114.32 1074.3,-97.77 1187.29,-89.39"/>
<polygon fill="midnightblue" stroke="midnightblue" points="1187.88,-92.86 1197.59,-88.63 1187.36,-85.88 1187.88,-92.86"/>
</g>
<!-- Node12 -->
<g id="node12" class="node">
<title>Node12</title>
<g id="a_node12"><a xlink:title=" ">
<polygon fill="white" stroke="#bfbfbf" points="474,-73 474,-92 593,-92 593,-73 474,-73"/>
<text text-anchor="middle" x="533.5" y="-80" font-family="Helvetica,sans-Serif" font-size="10.00">G4SystemOfUnits.hh</text>
</a>
</g>
</g>
<!-- Node5&#45;&gt;Node12 -->
<g id="edge11" class="edge">
<title>Node5&#45;&gt;Node12</title>
<path fill="none" stroke="midnightblue" d="M607.18,-134.48C593.38,-124.93 570.8,-109.31 554.27,-97.87"/>
<polygon fill="midnightblue" stroke="midnightblue" points="556.01,-94.82 545.8,-92.01 552.03,-100.58 556.01,-94.82"/>
</g>
<!-- Node13 -->
<g id="node13" class="node">
<title>Node13</title>
<g id="a_node13"><a xlink:title=" ">
<polygon fill="white" stroke="#bfbfbf" points="611,-67.5 611,-97.5 724,-97.5 724,-67.5 611,-67.5"/>
<text text-anchor="start" x="619" y="-85.5" font-family="Helvetica,sans-Serif" font-size="10.00">boost/property_tree</text>
<text text-anchor="middle" x="667.5" y="-74.5" font-family="Helvetica,sans-Serif" font-size="10.00">/json_parser.hpp</text>
</a>
</g>
</g>
<!-- Node5&#45;&gt;Node13 -->
<g id="edge12" class="edge">
<title>Node5&#45;&gt;Node13</title>
<path fill="none" stroke="midnightblue" d="M626.38,-134.48C632.45,-126.94 641.58,-115.63 649.7,-105.57"/>
<polygon fill="midnightblue" stroke="midnightblue" points="652.63,-107.5 656.19,-97.52 647.18,-103.11 652.63,-107.5"/>
</g>
<!-- Node7 -->
<g id="node7" class="node">
<title>Node7</title>
<g id="a_node7"><a xlink:title=" ">
<polygon fill="white" stroke="#bfbfbf" points="758,-6 758,-25 851,-25 851,-6 758,-6"/>
<text text-anchor="middle" x="804.5" y="-13" font-family="Helvetica,sans-Serif" font-size="10.00">spdlog/spdlog.h</text>
</a>
</g>
</g>
<!-- Node6&#45;&gt;Node7 -->
<g id="edge6" class="edge">
<title>Node6&#45;&gt;Node7</title>
<path fill="none" stroke="midnightblue" d="M953.66,-72.87C923.63,-61.52 870.72,-41.52 836.66,-28.65"/>
<polygon fill="midnightblue" stroke="midnightblue" points="837.75,-25.32 827.16,-25.06 835.28,-31.87 837.75,-25.32"/>
</g>
<!-- Node8 -->
<g id="node8" class="node">
<title>Node8</title>
<g id="a_node8"><a xlink:title=" ">
<polygon fill="white" stroke="#bfbfbf" points="869,-0.5 869,-30.5 980,-30.5 980,-0.5 869,-0.5"/>
<text text-anchor="start" x="877" y="-18.5" font-family="Helvetica,sans-Serif" font-size="10.00">spdlog/sinks/stdout</text>
<text text-anchor="middle" x="924.5" y="-7.5" font-family="Helvetica,sans-Serif" font-size="10.00">_color_sinks.h</text>
</a>
</g>
</g>
<!-- Node6&#45;&gt;Node8 -->
<g id="edge7" class="edge">
<title>Node6&#45;&gt;Node8</title>
<path fill="none" stroke="midnightblue" d="M969.49,-72.73C962.53,-64.03 951.58,-50.34 942.22,-38.65"/>
<polygon fill="midnightblue" stroke="midnightblue" points="944.75,-36.21 935.77,-30.59 939.29,-40.58 944.75,-36.21"/>
</g>
<!-- Node9 -->
<g id="node9" class="node">
<title>Node9</title>
<g id="a_node9"><a xlink:title=" ">
<polygon fill="white" stroke="#bfbfbf" points="998.5,-6 998.5,-25 1056.5,-25 1056.5,-6 998.5,-6"/>
<text text-anchor="middle" x="1027.5" y="-13" font-family="Helvetica,sans-Serif" font-size="10.00">memory</text>
</a>
</g>
</g>
<!-- Node6&#45;&gt;Node9 -->
<g id="edge8" class="edge">
<title>Node6&#45;&gt;Node9</title>
<path fill="none" stroke="midnightblue" d="M983.38,-72.73C991.33,-62.6 1004.6,-45.69 1014.51,-33.06"/>
<polygon fill="midnightblue" stroke="midnightblue" points="1017.31,-35.16 1020.73,-25.13 1011.8,-30.83 1017.31,-35.16"/>
</g>
<!-- Node10 -->
<g id="node10" class="node">
<title>Node10</title>
<g id="a_node10"><a xlink:title=" ">
<polygon fill="white" stroke="#bfbfbf" points="1074.5,-6 1074.5,-25 1172.5,-25 1172.5,-6 1074.5,-6"/>
<text text-anchor="middle" x="1123.5" y="-13" font-family="Helvetica,sans-Serif" font-size="10.00">spdlog/fmt/fmt.h</text>
</a>
</g>
</g>
<!-- Node6&#45;&gt;Node10 -->
<g id="edge9" class="edge">
<title>Node6&#45;&gt;Node10</title>
<path fill="none" stroke="midnightblue" d="M996.02,-72.87C1021.28,-61.7 1065.5,-42.15 1094.64,-29.26"/>
<polygon fill="midnightblue" stroke="midnightblue" points="1096.17,-32.41 1103.9,-25.17 1093.34,-26.01 1096.17,-32.41"/>
</g>
<!-- Node19 -->
<g id="node19" class="node">
<title>Node19</title>
<g id="a_node19"><a xlink:href="_o_m_sim_p_m_t_response_8hh.html" target="_top" xlink:title="Simulation of PMT response.">
<polygon fill="white" stroke="black" points="641,-190.5 641,-209.5 776,-209.5 776,-190.5 641,-190.5"/>
<text text-anchor="middle" x="708.5" y="-197.5" font-family="Helvetica,sans-Serif" font-size="10.00">OMSimPMTResponse.hh</text>
</a>
</g>
</g>
<!-- Node18&#45;&gt;Node19 -->
<g id="edge18" class="edge">
<title>Node18&#45;&gt;Node19</title>
<path fill="none" stroke="midnightblue" d="M911.31,-246.44C869.36,-237.04 801.91,-221.93 756.43,-211.74"/>
<polygon fill="midnightblue" stroke="midnightblue" points="757.03,-208.29 746.51,-209.52 755.5,-215.12 757.03,-208.29"/>
</g>
<!-- Node24 -->
<g id="node24" class="node">
<title>Node24</title>
<g id="a_node24"><a xlink:title=" ">
<polygon fill="white" stroke="#bfbfbf" points="1315,-190.5 1315,-209.5 1418,-209.5 1418,-190.5 1315,-190.5"/>
<text text-anchor="middle" x="1366.5" y="-197.5" font-family="Helvetica,sans-Serif" font-size="10.00">G4ThreeVector.hh</text>
</a>
</g>
</g>
<!-- Node18&#45;&gt;Node24 -->
<g id="edge24" class="edge">
<title>Node18&#45;&gt;Node24</title>
<path fill="none" stroke="midnightblue" d="M1011.29,-247.58C1080.18,-239.23 1195.2,-225.01 1304.69,-210.09"/>
<polygon fill="midnightblue" stroke="midnightblue" points="1305.49,-213.51 1314.93,-208.69 1304.54,-206.57 1305.49,-213.51"/>
</g>
<!-- Node25 -->
<g id="node25" class="node">
<title>Node25</title>
<g id="a_node25"><a xlink:title=" ">
<polygon fill="white" stroke="#bfbfbf" points="1015,-190.5 1015,-209.5 1070,-209.5 1070,-190.5 1015,-190.5"/>
<text text-anchor="middle" x="1042.5" y="-197.5" font-family="Helvetica,sans-Serif" font-size="10.00">fstream</text>
</a>
</g>
</g>
<!-- Node18&#45;&gt;Node25 -->
<g id="edge25" class="edge">
<title>Node18&#45;&gt;Node25</title>
<path fill="none" stroke="midnightblue" d="M964.44,-246.32C979.09,-237.82 1001.63,-224.73 1018.74,-214.8"/>
<polygon fill="midnightblue" stroke="midnightblue" points="1020.7,-217.7 1027.6,-209.65 1017.19,-211.65 1020.7,-217.7"/>
</g>
<!-- Node26 -->
<g id="node26" class="node">
<title>Node26</title>
<g id="a_node26"><a xlink:title=" ">
<polygon fill="white" stroke="#bfbfbf" points="794.5,-190.5 794.5,-209.5 884.5,-209.5 884.5,-190.5 794.5,-190.5"/>
<text text-anchor="middle" x="839.5" y="-197.5" font-family="Helvetica,sans-Serif" font-size="10.00">G4AutoLock.hh</text>
</a>
</g>
</g>
<!-- Node18&#45;&gt;Node26 -->
<g id="edge26" class="edge">
<title>Node18&#45;&gt;Node26</title>
<path fill="none" stroke="midnightblue" d="M931.83,-246.32C914.11,-237.62 886.6,-224.12 866.21,-214.11"/>
<polygon fill="midnightblue" stroke="midnightblue" points="867.65,-210.92 857.13,-209.65 864.56,-217.2 867.65,-210.92"/>
</g>
<!-- Node27 -->
<g id="node27" class="node">
<title>Node27</title>
<g id="a_node27"><a xlink:title=" ">
<polygon fill="white" stroke="#bfbfbf" points="902.5,-190.5 902.5,-209.5 996.5,-209.5 996.5,-190.5 902.5,-190.5"/>
<text text-anchor="middle" x="949.5" y="-197.5" font-family="Helvetica,sans-Serif" font-size="10.00">G4Threading.hh</text>
</a>
</g>
</g>
<!-- Node18&#45;&gt;Node27 -->
<g id="edge27" class="edge">
<title>Node18&#45;&gt;Node27</title>
<path fill="none" stroke="midnightblue" d="M949.5,-246.08C949.5,-239.01 949.5,-228.86 949.5,-219.99"/>
<polygon fill="midnightblue" stroke="midnightblue" points="953,-219.75 949.5,-209.75 946,-219.75 953,-219.75"/>
</g>
<!-- Node19&#45;&gt;Node12 -->
<g id="edge19" class="edge">
<title>Node19&#45;&gt;Node12</title>
<path fill="none" stroke="midnightblue" d="M661.14,-190.47C621.37,-182.39 568.66,-169.25 553.5,-154 539.93,-140.35 535.42,-118.21 533.99,-102.39"/>
<polygon fill="midnightblue" stroke="midnightblue" points="537.47,-101.98 533.41,-92.19 530.48,-102.37 537.47,-101.98"/>
</g>
<!-- Node20 -->
<g id="node20" class="node">
<title>Node20</title>
<g id="a_node20"><a xlink:title=" ">
<polygon fill="white" stroke="#bfbfbf" points="695,-134.5 695,-153.5 768,-153.5 768,-134.5 695,-134.5"/>
<text text-anchor="middle" x="731.5" y="-141.5" font-family="Helvetica,sans-Serif" font-size="10.00">G4Types.hh</text>
</a>
</g>
</g>
<!-- Node19&#45;&gt;Node20 -->
<g id="edge20" class="edge">
<title>Node19&#45;&gt;Node20</title>
<path fill="none" stroke="midnightblue" d="M712.3,-190.08C715.41,-182.77 719.92,-172.18 723.79,-163.1"/>
<polygon fill="midnightblue" stroke="midnightblue" points="727.07,-164.32 727.77,-153.75 720.63,-161.58 727.07,-164.32"/>
</g>
<!-- Node21 -->
<g id="node21" class="node">
<title>Node21</title>
<g id="a_node21"><a xlink:title=" ">
<polygon fill="white" stroke="#bfbfbf" points="786.5,-134.5 786.5,-153.5 824.5,-153.5 824.5,-134.5 786.5,-134.5"/>
<text text-anchor="middle" x="805.5" y="-141.5" font-family="Helvetica,sans-Serif" font-size="10.00">map</text>
</a>
</g>
</g>
<!-- Node19&#45;&gt;Node21 -->
<g id="edge21" class="edge">
<title>Node19&#45;&gt;Node21</title>
<path fill="none" stroke="midnightblue" d="M724.08,-190.32C739.5,-181.74 763.31,-168.49 781.21,-158.52"/>
<polygon fill="midnightblue" stroke="midnightblue" points="782.92,-161.58 789.95,-153.65 779.51,-155.46 782.92,-161.58"/>
</g>
<!-- Node22 -->
<g id="node22" class="node">
<title>Node22</title>
<g id="a_node22"><a xlink:title=" ">
<polygon fill="white" stroke="#bfbfbf" points="843,-134.5 843,-153.5 904,-153.5 904,-134.5 843,-134.5"/>
<text text-anchor="middle" x="873.5" y="-141.5" font-family="Helvetica,sans-Serif" font-size="10.00">TGraph.h</text>
</a>
</g>
</g>
<!-- Node19&#45;&gt;Node22 -->
<g id="edge22" class="edge">
<title>Node19&#45;&gt;Node22</title>
<path fill="none" stroke="midnightblue" d="M734.64,-190.44C762.52,-181.32 806.85,-166.81 837.9,-156.65"/>
<polygon fill="midnightblue" stroke="midnightblue" points="839.06,-159.95 847.48,-153.52 836.88,-153.3 839.06,-159.95"/>
</g>
<!-- Node23 -->
<g id="node23" class="node">
<title>Node23</title>
<g id="a_node23"><a xlink:title=" ">
<polygon fill="white" stroke="#bfbfbf" points="922,-134.5 922,-153.5 975,-153.5 975,-134.5 922,-134.5"/>
<text text-anchor="middle" x="948.5" y="-141.5" font-family="Helvetica,sans-Serif" font-size="10.00">TH2D.h</text>
</a>
</g>
</g>
<!-- Node19&#45;&gt;Node23 -->
<g id="edge23" class="edge">
<title>Node19&#45;&gt;Node23</title>
<path fill="none" stroke="midnightblue" d="M749.44,-190.46C788.78,-182.16 850.16,-168.94 911.87,-154.33"/>
<polygon fill="midnightblue" stroke="midnightblue" points="912.85,-157.7 921.77,-151.98 911.23,-150.89 912.85,-157.7"/>
</g>
<!-- Node28&#45;&gt;Node4 -->
<g id="edge29" class="edge">
<title>Node28&#45;&gt;Node4</title>
<path fill="none" stroke="midnightblue" d="M551.15,-246.44C509.03,-237.04 441.29,-221.93 395.63,-211.74"/>
<polygon fill="midnightblue" stroke="midnightblue" points="396.19,-208.28 385.67,-209.52 394.66,-215.11 396.19,-208.28"/>
</g>
<!-- Node28&#45;&gt;Node19 -->
<g id="edge31" class="edge">
<title>Node28&#45;&gt;Node19</title>
<path fill="none" stroke="midnightblue" d="M608.36,-246.44C627.77,-237.64 658.23,-223.81 680.46,-213.72"/>
<polygon fill="midnightblue" stroke="midnightblue" points="682.07,-216.84 689.73,-209.52 679.18,-210.46 682.07,-216.84"/>
</g>
<!-- Node28&#45;&gt;Node28 -->
<g id="edge30" class="edge">
<title>Node28&#45;&gt;Node28</title>
<path fill="none" stroke="midnightblue" d="M628.95,-265.53C655.76,-268.31 682,-265.13 682,-256 682,-248.01 661.91,-244.58 638.93,-245.71"/>
<polygon fill="midnightblue" stroke="midnightblue" points="638.65,-242.22 628.95,-246.47 639.19,-249.2 638.65,-242.22"/>
</g>
<!-- Node29 -->
<g id="node29" class="node">
<title>Node29</title>
<g id="a_node29"><a xlink:title=" ">
<polygon fill="white" stroke="#bfbfbf" points="439.5,-190.5 439.5,-209.5 537.5,-209.5 537.5,-190.5 439.5,-190.5"/>
<text text-anchor="middle" x="488.5" y="-197.5" font-family="Helvetica,sans-Serif" font-size="10.00">G4UnionSolid.hh</text>
</a>
</g>
</g>
<!-- Node28&#45;&gt;Node29 -->
<g id="edge32" class="edge">
<title>Node28&#45;&gt;Node29</title>
<path fill="none" stroke="midnightblue" d="M573.27,-246.32C557.15,-237.7 532.2,-224.36 513.54,-214.39"/>
<polygon fill="midnightblue" stroke="midnightblue" points="515.16,-211.28 504.69,-209.65 511.86,-217.46 515.16,-211.28"/>
</g>
<!-- Node30 -->
<g id="node30" class="node">
<title>Node30</title>
<g id="a_node30"><a xlink:title=" ">
<polygon fill="white" stroke="#bfbfbf" points="556,-190.5 556,-209.5 623,-209.5 623,-190.5 556,-190.5"/>
<text text-anchor="middle" x="589.5" y="-197.5" font-family="Helvetica,sans-Serif" font-size="10.00">G4Tubs.hh</text>
</a>
</g>
</g>
<!-- Node28&#45;&gt;Node30 -->
<g id="edge33" class="edge">
<title>Node28&#45;&gt;Node30</title>
<path fill="none" stroke="midnightblue" d="M589.5,-246.08C589.5,-239.01 589.5,-228.86 589.5,-219.99"/>
<polygon fill="midnightblue" stroke="midnightblue" points="593,-219.75 589.5,-209.75 586,-219.75 593,-219.75"/>
</g>
<!-- Node31&#45;&gt;Node3 -->
<g id="edge36" class="edge">
<title>Node31&#45;&gt;Node3</title>
<path fill="none" stroke="midnightblue" d="M238.97,-358.44C304.82,-348.81 411.72,-333.16 481.32,-322.98"/>
<polygon fill="midnightblue" stroke="midnightblue" points="481.92,-326.43 491.3,-321.52 480.9,-319.5 481.92,-326.43"/>
</g>
<!-- Node31&#45;&gt;Node32 -->
<g id="edge37" class="edge">
<title>Node31&#45;&gt;Node32</title>
<path fill="none" stroke="midnightblue" d="M158.32,-358.44C135.07,-349.48 98.35,-335.31 72.08,-325.18"/>
<polygon fill="midnightblue" stroke="midnightblue" points="73.17,-321.85 62.58,-321.52 70.65,-328.38 73.17,-321.85"/>
</g>
<!-- Node33 -->
<g id="node33" class="node">
<title>Node33</title>
<g id="a_node33"><a xlink:title=" ">
<polygon fill="white" stroke="#bfbfbf" points="89.5,-302.5 89.5,-321.5 267.5,-321.5 267.5,-302.5 89.5,-302.5"/>
<text text-anchor="middle" x="178.5" y="-309.5" font-family="Helvetica,sans-Serif" font-size="10.00">G4VUserDetectorConstruction.hh</text>
</a>
</g>
</g>
<!-- Node31&#45;&gt;Node33 -->
<g id="edge38" class="edge">
<title>Node31&#45;&gt;Node33</title>
<path fill="none" stroke="midnightblue" d="M180.17,-358.08C179.91,-351.01 179.53,-340.86 179.2,-331.99"/>
<polygon fill="midnightblue" stroke="midnightblue" points="182.69,-331.61 178.82,-321.75 175.7,-331.87 182.69,-331.61"/>
</g>
<!-- Node34&#45;&gt;Node3 -->
<g id="edge46" class="edge">
<title>Node34&#45;&gt;Node3</title>
<path fill="none" stroke="midnightblue" d="M401.39,-358.44C431.25,-349.28 478.81,-334.69 511.96,-324.52"/>
<polygon fill="midnightblue" stroke="midnightblue" points="513.21,-327.8 521.74,-321.52 511.16,-321.1 513.21,-327.8"/>
</g>
<!-- Node34&#45;&gt;Node28 -->
<g id="edge45" class="edge">
<title>Node34&#45;&gt;Node28</title>
<path fill="none" stroke="midnightblue" d="M383.4,-358.39C399.35,-344.87 432.11,-318.51 463.5,-302 490.54,-287.78 523.06,-276.29 548.29,-268.48"/>
<polygon fill="midnightblue" stroke="midnightblue" points="549.36,-271.81 557.92,-265.57 547.33,-265.11 549.36,-271.81"/>
</g>
<!-- Node35 -->
<g id="node35" class="node">
<title>Node35</title>
<g id="a_node35"><a xlink:href="_o_m_sim_m_d_o_m_flasher_8hh.html" target="_top" xlink:title="Defines the mDOMFlasher class for simulating the 10 flashers in an mDOM optical module.">
<polygon fill="white" stroke="black" points="324,-246.5 324,-265.5 459,-265.5 459,-246.5 324,-246.5"/>
<text text-anchor="middle" x="391.5" y="-253.5" font-family="Helvetica,sans-Serif" font-size="10.00">OMSimMDOMFlasher.hh</text>
</a>
</g>
</g>
<!-- Node34&#45;&gt;Node35 -->
<g id="edge41" class="edge">
<title>Node34&#45;&gt;Node35</title>
<path fill="none" stroke="midnightblue" d="M374.91,-358.37C377.82,-340.62 384.52,-299.67 388.46,-275.6"/>
<polygon fill="midnightblue" stroke="midnightblue" points="391.93,-276.03 390.09,-265.59 385.03,-274.89 391.93,-276.03"/>
</g>
<!-- Node35&#45;&gt;Node4 -->
<g id="edge42" class="edge">
<title>Node35&#45;&gt;Node4</title>
<path fill="none" stroke="midnightblue" d="M384.23,-246.08C377.96,-238.38 368.71,-227.03 361.07,-217.65"/>
<polygon fill="midnightblue" stroke="midnightblue" points="363.66,-215.29 354.63,-209.75 358.23,-219.71 363.66,-215.29"/>
</g>
<!-- Node35&#45;&gt;Node29 -->
<g id="edge43" class="edge">
<title>Node35&#45;&gt;Node29</title>
<path fill="none" stroke="midnightblue" d="M407.08,-246.32C422.5,-237.74 446.31,-224.49 464.21,-214.52"/>
<polygon fill="midnightblue" stroke="midnightblue" points="465.92,-217.58 472.95,-209.65 462.51,-211.46 465.92,-217.58"/>
</g>
<!-- Node36 -->
<g id="node36" class="node">
<title>Node36</title>
<g id="a_node36"><a xlink:title=" ">
<polygon fill="white" stroke="#bfbfbf" points="163.5,-190.5 163.5,-209.5 255.5,-209.5 255.5,-190.5 163.5,-190.5"/>
<text text-anchor="middle" x="209.5" y="-197.5" font-family="Helvetica,sans-Serif" font-size="10.00">G4Navigator.hh</text>
</a>
</g>
</g>
<!-- Node35&#45;&gt;Node36 -->
<g id="edge44" class="edge">
<title>Node35&#45;&gt;Node36</title>
<path fill="none" stroke="midnightblue" d="M362.66,-246.44C331.64,-237.24 282.17,-222.56 247.88,-212.39"/>
<polygon fill="midnightblue" stroke="midnightblue" points="248.79,-209.01 238.2,-209.52 246.79,-215.72 248.79,-209.01"/>
</g>
<!-- Node37&#45;&gt;Node3 -->
<g id="edge49" class="edge">
<title>Node37&#45;&gt;Node3</title>
<path fill="none" stroke="midnightblue" d="M499.98,-358.32C508.7,-350.34 521.84,-338.31 532.4,-328.65"/>
<polygon fill="midnightblue" stroke="midnightblue" points="534.83,-331.17 539.85,-321.83 530.11,-326 534.83,-331.17"/>
</g>
<!-- Node37&#45;&gt;Node28 -->
<g id="edge48" class="edge">
<title>Node37&#45;&gt;Node28</title>
<path fill="none" stroke="midnightblue" d="M483.83,-358.25C474.62,-345.01 460.43,-319.57 472.5,-302 483.67,-285.73 501.61,-275.34 520.13,-268.71"/>
<polygon fill="midnightblue" stroke="midnightblue" points="521.39,-271.98 529.82,-265.57 519.23,-265.32 521.39,-271.98"/>
</g>
<!-- Node38&#45;&gt;Node3 -->
<g id="edge52" class="edge">
<title>Node38&#45;&gt;Node3</title>
<path fill="none" stroke="midnightblue" d="M630.92,-358.32C615.5,-349.74 591.69,-336.49 573.79,-326.52"/>
<polygon fill="midnightblue" stroke="midnightblue" points="575.49,-323.46 565.05,-321.65 572.08,-329.58 575.49,-323.46"/>
</g>
<!-- Node38&#45;&gt;Node28 -->
<g id="edge51" class="edge">
<title>Node38&#45;&gt;Node28</title>
<path fill="none" stroke="midnightblue" d="M645.12,-358.14C642.84,-345.2 637.51,-320.64 627.5,-302 621.84,-291.46 613.42,-281.15 605.94,-273.07"/>
<polygon fill="midnightblue" stroke="midnightblue" points="608.38,-270.56 598.91,-265.8 603.34,-275.42 608.38,-270.56"/>
</g>
<!-- Node39&#45;&gt;Node3 -->
<g id="edge55" class="edge">
<title>Node39&#45;&gt;Node3</title>
<path fill="none" stroke="midnightblue" d="M827.81,-358.68C769.59,-349.12 674.06,-333.44 611.46,-323.17"/>
<polygon fill="midnightblue" stroke="midnightblue" points="611.76,-319.67 601.33,-321.51 610.63,-326.58 611.76,-319.67"/>
</g>
<!-- Node39&#45;&gt;Node28 -->
<g id="edge54" class="edge">
<title>Node39&#45;&gt;Node28</title>
<path fill="none" stroke="midnightblue" d="M850.18,-358.48C822.3,-349.92 778.63,-336.01 741.5,-322 697.59,-305.44 647.76,-283.51 617.49,-269.84"/>
<polygon fill="midnightblue" stroke="midnightblue" points="618.56,-266.48 608.01,-265.53 615.67,-272.85 618.56,-266.48"/>
</g>
<!-- Node40 -->
<g id="node40" class="node">
<title>Node40</title>
<g id="a_node40"><a xlink:title=" ">
<polygon fill="white" stroke="#bfbfbf" points="750.5,-302.5 750.5,-321.5 866.5,-321.5 866.5,-302.5 750.5,-302.5"/>
<text text-anchor="middle" x="808.5" y="-309.5" font-family="Helvetica,sans-Serif" font-size="10.00">G4LogicalVolume.hh</text>
</a>
</g>
</g>
<!-- Node39&#45;&gt;Node40 -->
<g id="edge56" class="edge">
<title>Node39&#45;&gt;Node40</title>
<path fill="none" stroke="midnightblue" d="M867.25,-358.32C856.7,-350.18 840.7,-337.84 828.06,-328.09"/>
<polygon fill="midnightblue" stroke="midnightblue" points="830.01,-325.17 819.95,-321.83 825.73,-330.71 830.01,-325.17"/>
</g>
<!-- Node41 -->
<g id="node41" class="node">
<title>Node41</title>
<g id="a_node41"><a xlink:title=" ">
<polygon fill="white" stroke="#bfbfbf" points="885,-302.5 885,-321.5 974,-321.5 974,-302.5 885,-302.5"/>
<text text-anchor="middle" x="929.5" y="-309.5" font-family="Helvetica,sans-Serif" font-size="10.00">G4Polycone.hh</text>
</a>
</g>
</g>
<!-- Node39&#45;&gt;Node41 -->
<g id="edge57" class="edge">
<title>Node39&#45;&gt;Node41</title>
<path fill="none" stroke="midnightblue" d="M886.92,-358.08C894.35,-350.22 905.35,-338.57 914.31,-329.08"/>
<polygon fill="midnightblue" stroke="midnightblue" points="916.91,-331.42 921.24,-321.75 911.82,-326.62 916.91,-331.42"/>
</g>
<!-- Node42&#45;&gt;Node3 -->
<g id="edge60" class="edge">
<title>Node42&#45;&gt;Node3</title>
<path fill="none" stroke="midnightblue" d="M728.75,-358.44C691.98,-349.12 633.05,-334.18 592.88,-324"/>
<polygon fill="midnightblue" stroke="midnightblue" points="593.65,-320.58 583.09,-321.52 591.93,-327.37 593.65,-320.58"/>
</g>
<!-- Node42&#45;&gt;Node28 -->
<g id="edge59" class="edge">
<title>Node42&#45;&gt;Node28</title>
<path fill="none" stroke="midnightblue" d="M748.92,-358.37C719.24,-339.49 648.3,-294.38 611.89,-271.24"/>
<polygon fill="midnightblue" stroke="midnightblue" points="613.33,-268 603.01,-265.59 609.57,-273.91 613.33,-268"/>
</g>
<!-- Node43&#45;&gt;Node6 -->
<g id="edge62" class="edge">
<title>Node43&#45;&gt;Node6</title>
<path fill="none" stroke="midnightblue" d="M1135.43,-246.37C1152.12,-234.1 1177.65,-210.79 1165.5,-190 1134.87,-137.59 1067.9,-108.96 1022.48,-94.94"/>
<polygon fill="midnightblue" stroke="midnightblue" points="1023.43,-91.57 1012.85,-92.09 1021.45,-98.28 1023.43,-91.57"/>
</g>
<!-- Node43&#45;&gt;Node25 -->
<g id="edge63" class="edge">
<title>Node43&#45;&gt;Node25</title>
<path fill="none" stroke="midnightblue" d="M1109.65,-246.32C1097.28,-237.98 1078.37,-225.21 1063.76,-215.35"/>
<polygon fill="midnightblue" stroke="midnightblue" points="1065.57,-212.35 1055.32,-209.65 1061.65,-218.15 1065.57,-212.35"/>
</g>
<!-- Node44 -->
<g id="node44" class="node">
<title>Node44</title>
<g id="a_node44"><a xlink:title=" ">
<polygon fill="white" stroke="#bfbfbf" points="1212.5,-190.5 1212.5,-209.5 1296.5,-209.5 1296.5,-190.5 1212.5,-190.5"/>
<text text-anchor="middle" x="1254.5" y="-197.5" font-family="Helvetica,sans-Serif" font-size="10.00">boost/any.hpp</text>
</a>
</g>
</g>
<!-- Node43&#45;&gt;Node44 -->
<g id="edge64" class="edge">
<title>Node43&#45;&gt;Node44</title>
<path fill="none" stroke="midnightblue" d="M1143.42,-246.44C1165.24,-237.52 1199.65,-223.44 1224.39,-213.32"/>
<polygon fill="midnightblue" stroke="midnightblue" points="1225.75,-216.54 1233.68,-209.52 1223.1,-210.06 1225.75,-216.54"/>
</g>
<!-- Node45 -->
<g id="node45" class="node">
<title>Node45</title>
<g id="a_node45"><a xlink:title=" ">
<polygon fill="white" stroke="#bfbfbf" points="1088.5,-190.5 1088.5,-209.5 1156.5,-209.5 1156.5,-190.5 1088.5,-190.5"/>
<text text-anchor="middle" x="1122.5" y="-197.5" font-family="Helvetica,sans-Serif" font-size="10.00">sys/time.h</text>
</a>
</g>
</g>
<!-- Node43&#45;&gt;Node45 -->
<g id="edge65" class="edge">
<title>Node43&#45;&gt;Node45</title>
<path fill="none" stroke="midnightblue" d="M1122.5,-246.08C1122.5,-239.01 1122.5,-228.86 1122.5,-219.99"/>
<polygon fill="midnightblue" stroke="midnightblue" points="1126,-219.75 1122.5,-209.75 1119,-219.75 1126,-219.75"/>
</g>
<!-- Node47&#45;&gt;Node11 -->
<g id="edge72" class="edge">
<title>Node47&#45;&gt;Node11</title>
<path fill="none" stroke="midnightblue" d="M1413.6,-246.2C1423.07,-233.32 1437.52,-208.85 1427.5,-190 1401.76,-141.61 1343.15,-111.24 1305,-95.84"/>
<polygon fill="midnightblue" stroke="midnightblue" points="1305.89,-92.43 1295.31,-92.07 1303.36,-98.96 1305.89,-92.43"/>
</g>
<!-- Node47&#45;&gt;Node19 -->
<g id="edge71" class="edge">
<title>Node47&#45;&gt;Node19</title>
<path fill="none" stroke="midnightblue" d="M1329.93,-250.54C1214.55,-243.58 989,-229.03 786.33,-210.04"/>
<polygon fill="midnightblue" stroke="midnightblue" points="786.37,-206.52 776.09,-209.07 785.72,-213.49 786.37,-206.52"/>
</g>
<!-- Node47&#45;&gt;Node24 -->
<g id="edge70" class="edge">
<title>Node47&#45;&gt;Node24</title>
<path fill="none" stroke="midnightblue" d="M1399.89,-246.08C1394.24,-238.46 1385.96,-227.26 1379.05,-217.94"/>
<polygon fill="midnightblue" stroke="midnightblue" points="1381.75,-215.7 1372.98,-209.75 1376.12,-219.87 1381.75,-215.7"/>
</g>
<!-- Node48 -->
<g id="node48" class="node">
<title>Node48</title>
<g id="a_node48"><a xlink:title=" ">
<polygon fill="white" stroke="#bfbfbf" points="1474.5,-190.5 1474.5,-209.5 1612.5,-209.5 1612.5,-190.5 1474.5,-190.5"/>
<text text-anchor="middle" x="1543.5" y="-197.5" font-family="Helvetica,sans-Serif" font-size="10.00">G4VSensitiveDetector.hh</text>
</a>
</g>
</g>
<!-- Node47&#45;&gt;Node48 -->
<g id="edge69" class="edge">
<title>Node47&#45;&gt;Node48</title>
<path fill="none" stroke="midnightblue" d="M1428.21,-246.44C1450.85,-237.52 1486.57,-223.44 1512.25,-213.32"/>
<polygon fill="midnightblue" stroke="midnightblue" points="1513.87,-216.44 1521.89,-209.52 1511.31,-209.93 1513.87,-216.44"/>
</g>
<!-- Node49 -->
<g id="node49" class="node">
<title>Node49</title>
<g id="a_node49"><a xlink:title=" ">
<polygon fill="white" stroke="#bfbfbf" points="1631,-190.5 1631,-209.5 1678,-209.5 1678,-190.5 1631,-190.5"/>
<text text-anchor="middle" x="1654.5" y="-197.5" font-family="Helvetica,sans-Serif" font-size="10.00">vector</text>
</a>
</g>
</g>
<!-- Node47&#45;&gt;Node49 -->
<g id="edge73" class="edge">
<title>Node47&#45;&gt;Node49</title>
<path fill="none" stroke="midnightblue" d="M1451.15,-246.47C1492.62,-238.36 1556.32,-225.44 1620.82,-210.05"/>
<polygon fill="midnightblue" stroke="midnightblue" points="1621.85,-213.4 1630.75,-207.66 1620.21,-206.6 1621.85,-213.4"/>
</g>
</g>
</svg>
