<?xml version="1.0" encoding="UTF-8" standalone="no"?>
<!DOCTYPE svg PUBLIC "-//W3C//DTD SVG 1.1//EN"
 "http://www.w3.org/Graphics/SVG/1.1/DTD/svg11.dtd">
<!-- Generated by graphviz version 2.43.0 (0)
 -->
<!-- Title: OMSimPMTConstruction.hh Pages: 1 -->
<svg width="1811pt" height="275pt"
 viewBox="0.00 0.00 1811.00 274.92" xmlns="http://www.w3.org/2000/svg" xmlns:xlink="http://www.w3.org/1999/xlink">
<g id="graph0" class="graph" transform="scale(1 1) rotate(0) translate(4 270.92)">
<title>OMSimPMTConstruction.hh</title>
<!-- Node1 -->
<g id="node1" class="node">
<title>Node1</title>
<g id="a_node1"><a xlink:title="Construction of the PMTs.">
<polygon fill="#bfbfbf" stroke="black" points="1526,-246.5 1526,-265.5 1675,-265.5 1675,-246.5 1526,-246.5"/>
<text text-anchor="middle" x="1600.5" y="-253.5" font-family="Helvetica,sans-Serif" font-size="10.00">OMSimPMTConstruction.hh</text>
</a>
</g>
</g>
<!-- Node1&#45;&gt;Node1 -->
<g id="edge22" class="edge">
<title>Node1&#45;&gt;Node1</title>
<path fill="none" stroke="midnightblue" d="M1639.95,-265.53C1666.76,-268.31 1693,-265.13 1693,-256 1693,-248.01 1672.91,-244.58 1649.93,-245.71"/>
<polygon fill="midnightblue" stroke="midnightblue" points="1649.65,-242.22 1639.95,-246.47 1650.19,-249.2 1649.65,-242.22"/>
</g>
<!-- Node2 -->
<g id="node2" class="node">
<title>Node2</title>
<g id="a_node2"><a xlink:href="abc_detector_component_8hh.html" target="_top" xlink:title="Provides helper base class abcDetectorComponent for constructing and managing detector components in ...">
<polygon fill="none" stroke="black" points="1072,-190.5 1072,-209.5 1219,-209.5 1219,-190.5 1072,-190.5"/>
<text text-anchor="middle" x="1145.5" y="-197.5" font-family="Helvetica,sans-Serif" font-size="10.00">abcDetectorComponent.hh</text>
</a>
</g>
</g>
<!-- Node1&#45;&gt;Node2 -->
<g id="edge1" class="edge">
<title>Node1&#45;&gt;Node2</title>
<path fill="none" stroke="midnightblue" d="M1528.65,-246.47C1446.75,-236.75 1313.15,-220.9 1227.31,-210.71"/>
<polygon fill="midnightblue" stroke="midnightblue" points="1227.69,-207.23 1217.34,-209.53 1226.86,-214.18 1227.69,-207.23"/>
</g>
<!-- Node23 -->
<g id="node23" class="node">
<title>Node23</title>
<g id="a_node23"><a xlink:href="_o_m_sim_p_m_t_response_8hh.html" target="_top" xlink:title="Simulation of PMT response.">
<polygon fill="none" stroke="black" points="1466,-190.5 1466,-209.5 1601,-209.5 1601,-190.5 1466,-190.5"/>
<text text-anchor="middle" x="1533.5" y="-197.5" font-family="Helvetica,sans-Serif" font-size="10.00">OMSimPMTResponse.hh</text>
</a>
</g>
</g>
<!-- Node1&#45;&gt;Node23 -->
<g id="edge23" class="edge">
<title>Node1&#45;&gt;Node23</title>
<path fill="none" stroke="midnightblue" d="M1589.74,-246.32C1579.73,-238.26 1564.61,-226.08 1552.57,-216.37"/>
<polygon fill="midnightblue" stroke="midnightblue" points="1554.44,-213.38 1544.46,-209.83 1550.05,-218.83 1554.44,-213.38"/>
</g>
<!-- Node28 -->
<g id="node28" class="node">
<title>Node28</title>
<g id="a_node28"><a xlink:title=" ">
<polygon fill="none" stroke="#bfbfbf" points="1619.5,-190.5 1619.5,-209.5 1717.5,-209.5 1717.5,-190.5 1619.5,-190.5"/>
<text text-anchor="middle" x="1668.5" y="-197.5" font-family="Helvetica,sans-Serif" font-size="10.00">G4UnionSolid.hh</text>
</a>
</g>
</g>
<!-- Node1&#45;&gt;Node28 -->
<g id="edge29" class="edge">
<title>Node1&#45;&gt;Node28</title>
<path fill="none" stroke="midnightblue" d="M1611.43,-246.32C1621.67,-238.18 1637.22,-225.84 1649.5,-216.09"/>
<polygon fill="midnightblue" stroke="midnightblue" points="1651.72,-218.79 1657.38,-209.83 1647.37,-213.31 1651.72,-218.79"/>
</g>
<!-- Node29 -->
<g id="node29" class="node">
<title>Node29</title>
<g id="a_node29"><a xlink:title=" ">
<polygon fill="none" stroke="#bfbfbf" points="1736,-190.5 1736,-209.5 1803,-209.5 1803,-190.5 1736,-190.5"/>
<text text-anchor="middle" x="1769.5" y="-197.5" font-family="Helvetica,sans-Serif" font-size="10.00">G4Tubs.hh</text>
</a>
</g>
</g>
<!-- Node1&#45;&gt;Node29 -->
<g id="edge30" class="edge">
<title>Node1&#45;&gt;Node29</title>
<path fill="none" stroke="midnightblue" d="M1627.28,-246.44C1655.83,-237.32 1701.23,-222.81 1733.04,-212.65"/>
<polygon fill="midnightblue" stroke="midnightblue" points="1734.39,-215.89 1742.85,-209.52 1732.26,-209.23 1734.39,-215.89"/>
</g>
<!-- Node3 -->
<g id="node3" class="node">
<title>Node3</title>
<g id="a_node3"><a xlink:href="_o_m_sim_input_data_8hh.html" target="_top" xlink:title="Definition of ParameterTable and OMSimInputData.">
<polygon fill="none" stroke="black" points="765,-134.5 765,-153.5 880,-153.5 880,-134.5 765,-134.5"/>
<text text-anchor="middle" x="822.5" y="-141.5" font-family="Helvetica,sans-Serif" font-size="10.00">OMSimInputData.hh</text>
</a>
</g>
</g>
<!-- Node2&#45;&gt;Node3 -->
<g id="edge2" class="edge">
<title>Node2&#45;&gt;Node3</title>
<path fill="none" stroke="midnightblue" d="M1094.32,-190.44C1037.03,-180.87 944.26,-165.36 883.31,-155.17"/>
<polygon fill="midnightblue" stroke="midnightblue" points="883.88,-151.71 873.44,-153.52 882.73,-158.62 883.88,-151.71"/>
</g>
<!-- Node19 -->
<g id="node19" class="node">
<title>Node19</title>
<g id="a_node19"><a xlink:title=" ">
<polygon fill="none" stroke="#bfbfbf" points="898,-134.5 898,-153.5 1005,-153.5 1005,-134.5 898,-134.5"/>
<text text-anchor="middle" x="951.5" y="-141.5" font-family="Helvetica,sans-Serif" font-size="10.00">G4Transform3D.hh</text>
</a>
</g>
</g>
<!-- Node2&#45;&gt;Node19 -->
<g id="edge18" class="edge">
<title>Node2&#45;&gt;Node19</title>
<path fill="none" stroke="midnightblue" d="M1114.76,-190.44C1081.56,-181.2 1028.51,-166.44 991.94,-156.26"/>
<polygon fill="midnightblue" stroke="midnightblue" points="992.67,-152.83 982.1,-153.52 990.79,-159.57 992.67,-152.83"/>
</g>
<!-- Node20 -->
<g id="node20" class="node">
<title>Node20</title>
<g id="a_node20"><a xlink:title=" ">
<polygon fill="none" stroke="#bfbfbf" points="1023.5,-134.5 1023.5,-153.5 1131.5,-153.5 1131.5,-134.5 1023.5,-134.5"/>
<text text-anchor="middle" x="1077.5" y="-141.5" font-family="Helvetica,sans-Serif" font-size="10.00">G4VisAttributes.hh</text>
</a>
</g>
</g>
<!-- Node2&#45;&gt;Node20 -->
<g id="edge19" class="edge">
<title>Node2&#45;&gt;Node20</title>
<path fill="none" stroke="midnightblue" d="M1134.57,-190.32C1124.33,-182.18 1108.78,-169.84 1096.5,-160.09"/>
<polygon fill="midnightblue" stroke="midnightblue" points="1098.63,-157.31 1088.62,-153.83 1094.28,-162.79 1098.63,-157.31"/>
</g>
<!-- Node21 -->
<g id="node21" class="node">
<title>Node21</title>
<g id="a_node21"><a xlink:title=" ">
<polygon fill="none" stroke="#bfbfbf" points="1150,-134.5 1150,-153.5 1275,-153.5 1275,-134.5 1150,-134.5"/>
<text text-anchor="middle" x="1212.5" y="-141.5" font-family="Helvetica,sans-Serif" font-size="10.00">G4SubtractionSolid.hh</text>
</a>
</g>
</g>
<!-- Node2&#45;&gt;Node21 -->
<g id="edge20" class="edge">
<title>Node2&#45;&gt;Node21</title>
<path fill="none" stroke="midnightblue" d="M1156.26,-190.32C1166.27,-182.26 1181.39,-170.08 1193.43,-160.37"/>
<polygon fill="midnightblue" stroke="midnightblue" points="1195.95,-162.83 1201.54,-153.83 1191.56,-157.38 1195.95,-162.83"/>
</g>
<!-- Node22 -->
<g id="node22" class="node">
<title>Node22</title>
<g id="a_node22"><a xlink:title=" ">
<polygon fill="none" stroke="#bfbfbf" points="1293.5,-134.5 1293.5,-153.5 1403.5,-153.5 1403.5,-134.5 1293.5,-134.5"/>
<text text-anchor="middle" x="1348.5" y="-141.5" font-family="Helvetica,sans-Serif" font-size="10.00">G4PVPlacement.hh</text>
</a>
</g>
</g>
<!-- Node2&#45;&gt;Node22 -->
<g id="edge21" class="edge">
<title>Node2&#45;&gt;Node22</title>
<path fill="none" stroke="midnightblue" d="M1177.67,-190.44C1212.56,-181.16 1268.39,-166.31 1306.67,-156.13"/>
<polygon fill="midnightblue" stroke="midnightblue" points="1307.72,-159.47 1316.48,-153.52 1305.92,-152.7 1307.72,-159.47"/>
</g>
<!-- Node4 -->
<g id="node4" class="node">
<title>Node4</title>
<g id="a_node4"><a xlink:href="_o_m_sim_logger_8hh_source.html" target="_top" xlink:title=" ">
<polygon fill="none" stroke="black" points="220,-73 220,-92 319,-92 319,-73 220,-73"/>
<text text-anchor="middle" x="269.5" y="-80" font-family="Helvetica,sans-Serif" font-size="10.00">OMSimLogger.hh</text>
</a>
</g>
</g>
<!-- Node3&#45;&gt;Node4 -->
<g id="edge3" class="edge">
<title>Node3&#45;&gt;Node4</title>
<path fill="none" stroke="midnightblue" d="M764.88,-136.8C659.43,-125.45 436.4,-101.46 329.32,-89.94"/>
<polygon fill="midnightblue" stroke="midnightblue" points="329.65,-86.45 319.33,-88.86 328.9,-93.41 329.65,-86.45"/>
</g>
<!-- Node9 -->
<g id="node9" class="node">
<title>Node9</title>
<g id="a_node9"><a xlink:href="_o_m_sim_op_boundary_process_8hh_source.html" target="_top" xlink:title=" ">
<polygon fill="none" stroke="black" points="740.5,-73 740.5,-92 904.5,-92 904.5,-73 740.5,-73"/>
<text text-anchor="middle" x="822.5" y="-80" font-family="Helvetica,sans-Serif" font-size="10.00">OMSimOpBoundaryProcess.hh</text>
</a>
</g>
</g>
<!-- Node3&#45;&gt;Node9 -->
<g id="edge8" class="edge">
<title>Node3&#45;&gt;Node9</title>
<path fill="none" stroke="midnightblue" d="M822.5,-134.48C822.5,-126.08 822.5,-112.98 822.5,-102.16"/>
<polygon fill="midnightblue" stroke="midnightblue" points="826,-102.01 822.5,-92.01 819,-102.01 826,-102.01"/>
</g>
<!-- Node17 -->
<g id="node17" class="node">
<title>Node17</title>
<g id="a_node17"><a xlink:title=" ">
<polygon fill="none" stroke="#bfbfbf" points="1213,-73 1213,-92 1332,-92 1332,-73 1213,-73"/>
<text text-anchor="middle" x="1272.5" y="-80" font-family="Helvetica,sans-Serif" font-size="10.00">G4SystemOfUnits.hh</text>
</a>
</g>
</g>
<!-- Node3&#45;&gt;Node17 -->
<g id="edge16" class="edge">
<title>Node3&#45;&gt;Node17</title>
<path fill="none" stroke="midnightblue" d="M880.09,-135.13C882.93,-134.75 885.75,-134.37 888.5,-134 998.36,-119.29 1125.97,-102.58 1202.9,-92.55"/>
<polygon fill="midnightblue" stroke="midnightblue" points="1203.49,-96 1212.96,-91.24 1202.59,-89.06 1203.49,-96"/>
</g>
<!-- Node18 -->
<g id="node18" class="node">
<title>Node18</title>
<g id="a_node18"><a xlink:title=" ">
<polygon fill="none" stroke="#bfbfbf" points="923,-67.5 923,-97.5 1036,-97.5 1036,-67.5 923,-67.5"/>
<text text-anchor="start" x="931" y="-85.5" font-family="Helvetica,sans-Serif" font-size="10.00">boost/property_tree</text>
<text text-anchor="middle" x="979.5" y="-74.5" font-family="Helvetica,sans-Serif" font-size="10.00">/json_parser.hpp</text>
</a>
</g>
</g>
<!-- Node3&#45;&gt;Node18 -->
<g id="edge17" class="edge">
<title>Node3&#45;&gt;Node18</title>
<path fill="none" stroke="midnightblue" d="M844.99,-134.48C867.85,-125.81 903.91,-112.15 932.95,-101.14"/>
<polygon fill="midnightblue" stroke="midnightblue" points="934.39,-104.34 942.5,-97.52 931.91,-97.79 934.39,-104.34"/>
</g>
<!-- Node5 -->
<g id="node5" class="node">
<title>Node5</title>
<g id="a_node5"><a xlink:title=" ">
<polygon fill="none" stroke="#bfbfbf" points="0,-6 0,-25 93,-25 93,-6 0,-6"/>
<text text-anchor="middle" x="46.5" y="-13" font-family="Helvetica,sans-Serif" font-size="10.00">spdlog/spdlog.h</text>
</a>
</g>
</g>
<!-- Node4&#45;&gt;Node5 -->
<g id="edge4" class="edge">
<title>Node4&#45;&gt;Node5</title>
<path fill="none" stroke="midnightblue" d="M239.89,-72.87C200.21,-61.3 129.69,-40.75 85.66,-27.91"/>
<polygon fill="midnightblue" stroke="midnightblue" points="86.46,-24.5 75.88,-25.06 84.5,-31.22 86.46,-24.5"/>
</g>
<!-- Node6 -->
<g id="node6" class="node">
<title>Node6</title>
<g id="a_node6"><a xlink:title=" ">
<polygon fill="none" stroke="#bfbfbf" points="111,-0.5 111,-30.5 222,-30.5 222,-0.5 111,-0.5"/>
<text text-anchor="start" x="119" y="-18.5" font-family="Helvetica,sans-Serif" font-size="10.00">spdlog/sinks/stdout</text>
<text text-anchor="middle" x="166.5" y="-7.5" font-family="Helvetica,sans-Serif" font-size="10.00">_color_sinks.h</text>
</a>
</g>
</g>
<!-- Node4&#45;&gt;Node6 -->
<g id="edge5" class="edge">
<title>Node4&#45;&gt;Node6</title>
<path fill="none" stroke="midnightblue" d="M255.61,-72.73C240.75,-63.36 216.71,-48.19 197.35,-35.97"/>
<polygon fill="midnightblue" stroke="midnightblue" points="199.15,-32.97 188.83,-30.59 195.41,-38.89 199.15,-32.97"/>
</g>
<!-- Node7 -->
<g id="node7" class="node">
<title>Node7</title>
<g id="a_node7"><a xlink:title=" ">
<polygon fill="none" stroke="#bfbfbf" points="240.5,-6 240.5,-25 298.5,-25 298.5,-6 240.5,-6"/>
<text text-anchor="middle" x="269.5" y="-13" font-family="Helvetica,sans-Serif" font-size="10.00">memory</text>
</a>
</g>
</g>
<!-- Node4&#45;&gt;Node7 -->
<g id="edge6" class="edge">
<title>Node4&#45;&gt;Node7</title>
<path fill="none" stroke="midnightblue" d="M269.5,-72.73C269.5,-63.18 269.5,-47.62 269.5,-35.28"/>
<polygon fill="midnightblue" stroke="midnightblue" points="273,-35.13 269.5,-25.13 266,-35.13 273,-35.13"/>
</g>
<!-- Node8 -->
<g id="node8" class="node">
<title>Node8</title>
<g id="a_node8"><a xlink:title=" ">
<polygon fill="none" stroke="#bfbfbf" points="316.5,-6 316.5,-25 414.5,-25 414.5,-6 316.5,-6"/>
<text text-anchor="middle" x="365.5" y="-13" font-family="Helvetica,sans-Serif" font-size="10.00">spdlog/fmt/fmt.h</text>
</a>
</g>
</g>
<!-- Node4&#45;&gt;Node8 -->
<g id="edge7" class="edge">
<title>Node4&#45;&gt;Node8</title>
<path fill="none" stroke="midnightblue" d="M282.45,-72.73C298.35,-61.96 325.55,-43.55 344.47,-30.74"/>
<polygon fill="midnightblue" stroke="midnightblue" points="346.44,-33.63 352.76,-25.13 342.52,-27.84 346.44,-33.63"/>
</g>
<!-- Node10 -->
<g id="node10" class="node">
<title>Node10</title>
<g id="a_node10"><a xlink:title=" ">
<polygon fill="none" stroke="#bfbfbf" points="433,-6 433,-25 546,-25 546,-6 433,-6"/>
<text text-anchor="middle" x="489.5" y="-13" font-family="Helvetica,sans-Serif" font-size="10.00">G4OpticalPhoton.hh</text>
</a>
</g>
</g>
<!-- Node9&#45;&gt;Node10 -->
<g id="edge9" class="edge">
<title>Node9&#45;&gt;Node10</title>
<path fill="none" stroke="midnightblue" d="M775.15,-72.98C721.71,-63.26 632.23,-46.68 555.5,-31 549.68,-29.81 543.59,-28.53 537.55,-27.23"/>
<polygon fill="midnightblue" stroke="midnightblue" points="538.02,-23.75 527.5,-25.05 536.53,-30.59 538.02,-23.75"/>
</g>
<!-- Node11 -->
<g id="node11" class="node">
<title>Node11</title>
<g id="a_node11"><a xlink:title=" ">
<polygon fill="none" stroke="#bfbfbf" points="564.5,-6 564.5,-25 680.5,-25 680.5,-6 564.5,-6"/>
<text text-anchor="middle" x="622.5" y="-13" font-family="Helvetica,sans-Serif" font-size="10.00">G4OpticalSurface.hh</text>
</a>
</g>
</g>
<!-- Node9&#45;&gt;Node11 -->
<g id="edge10" class="edge">
<title>Node9&#45;&gt;Node11</title>
<path fill="none" stroke="midnightblue" d="M795.94,-72.87C760.58,-61.38 697.91,-41.01 658.37,-28.16"/>
<polygon fill="midnightblue" stroke="midnightblue" points="659.44,-24.83 648.85,-25.06 657.28,-31.48 659.44,-24.83"/>
</g>
<!-- Node12 -->
<g id="node12" class="node">
<title>Node12</title>
<g id="a_node12"><a xlink:title=" ">
<polygon fill="none" stroke="#bfbfbf" points="698.5,-6 698.5,-25 808.5,-25 808.5,-6 698.5,-6"/>
<text text-anchor="middle" x="753.5" y="-13" font-family="Helvetica,sans-Serif" font-size="10.00">G4RandomTools.hh</text>
</a>
</g>
</g>
<!-- Node9&#45;&gt;Node12 -->
<g id="edge11" class="edge">
<title>Node9&#45;&gt;Node12</title>
<path fill="none" stroke="midnightblue" d="M813.19,-72.73C802.23,-62.4 783.79,-45.04 770.31,-32.33"/>
<polygon fill="midnightblue" stroke="midnightblue" points="772.34,-29.44 762.66,-25.13 767.54,-34.53 772.34,-29.44"/>
</g>
<!-- Node13 -->
<g id="node13" class="node">
<title>Node13</title>
<g id="a_node13"><a xlink:title=" ">
<polygon fill="none" stroke="#bfbfbf" points="826.5,-6 826.5,-25 956.5,-25 956.5,-6 826.5,-6"/>
<text text-anchor="middle" x="891.5" y="-13" font-family="Helvetica,sans-Serif" font-size="10.00">G4VDiscreteProcess.hh</text>
</a>
</g>
</g>
<!-- Node9&#45;&gt;Node13 -->
<g id="edge12" class="edge">
<title>Node9&#45;&gt;Node13</title>
<path fill="none" stroke="midnightblue" d="M831.81,-72.73C842.77,-62.4 861.21,-45.04 874.69,-32.33"/>
<polygon fill="midnightblue" stroke="midnightblue" points="877.46,-34.53 882.34,-25.13 872.66,-29.44 877.46,-34.53"/>
</g>
<!-- Node14 -->
<g id="node14" class="node">
<title>Node14</title>
<g id="a_node14"><a xlink:title=" ">
<polygon fill="none" stroke="#bfbfbf" points="975,-6 975,-25 1132,-25 1132,-6 975,-6"/>
<text text-anchor="middle" x="1053.5" y="-13" font-family="Helvetica,sans-Serif" font-size="10.00">G4VUserTrackInformation.hh</text>
</a>
</g>
</g>
<!-- Node9&#45;&gt;Node14 -->
<g id="edge13" class="edge">
<title>Node9&#45;&gt;Node14</title>
<path fill="none" stroke="midnightblue" d="M853.18,-72.87C894.36,-61.28 967.63,-40.66 1013.22,-27.83"/>
<polygon fill="midnightblue" stroke="midnightblue" points="1014.39,-31.14 1023.07,-25.06 1012.49,-24.4 1014.39,-31.14"/>
</g>
<!-- Node15 -->
<g id="node15" class="node">
<title>Node15</title>
<g id="a_node15"><a xlink:title=" ">
<polygon fill="none" stroke="#bfbfbf" points="1150.5,-6 1150.5,-25 1240.5,-25 1240.5,-6 1150.5,-6"/>
<text text-anchor="middle" x="1195.5" y="-13" font-family="Helvetica,sans-Serif" font-size="10.00">G4AutoLock.hh</text>
</a>
</g>
</g>
<!-- Node9&#45;&gt;Node15 -->
<g id="edge14" class="edge">
<title>Node9&#45;&gt;Node15</title>
<path fill="none" stroke="midnightblue" d="M875.91,-72.98C888.25,-71.02 901.33,-68.93 913.5,-67 1014.38,-50.96 1040.54,-52.05 1140.5,-31 1145.32,-29.99 1150.35,-28.82 1155.32,-27.59"/>
<polygon fill="midnightblue" stroke="midnightblue" points="1156.55,-30.89 1165.37,-25.03 1154.82,-24.11 1156.55,-30.89"/>
</g>
<!-- Node16 -->
<g id="node16" class="node">
<title>Node16</title>
<g id="a_node16"><a xlink:title=" ">
<polygon fill="none" stroke="#bfbfbf" points="1258.5,-6 1258.5,-25 1352.5,-25 1352.5,-6 1258.5,-6"/>
<text text-anchor="middle" x="1305.5" y="-13" font-family="Helvetica,sans-Serif" font-size="10.00">G4Threading.hh</text>
</a>
</g>
</g>
<!-- Node9&#45;&gt;Node16 -->
<g id="edge15" class="edge">
<title>Node9&#45;&gt;Node16</title>
<path fill="none" stroke="midnightblue" d="M872.97,-72.99C886.14,-70.89 900.34,-68.75 913.5,-67 1062.37,-47.18 1101.74,-57.9 1249.5,-31 1254.87,-30.02 1260.49,-28.81 1266,-27.5"/>
<polygon fill="midnightblue" stroke="midnightblue" points="1266.89,-30.88 1275.75,-25.07 1265.2,-24.09 1266.89,-30.88"/>
</g>
<!-- Node23&#45;&gt;Node17 -->
<g id="edge24" class="edge">
<title>Node23&#45;&gt;Node17</title>
<path fill="none" stroke="midnightblue" d="M1517.55,-190.35C1485.93,-173.22 1417.84,-136.38 1412.5,-134 1378.3,-118.75 1337.96,-104.58 1309.39,-95.16"/>
<polygon fill="midnightblue" stroke="midnightblue" points="1310.4,-91.8 1299.8,-92.03 1308.22,-98.46 1310.4,-91.8"/>
</g>
<!-- Node24 -->
<g id="node24" class="node">
<title>Node24</title>
<g id="a_node24"><a xlink:title=" ">
<polygon fill="none" stroke="#bfbfbf" points="1460,-134.5 1460,-153.5 1533,-153.5 1533,-134.5 1460,-134.5"/>
<text text-anchor="middle" x="1496.5" y="-141.5" font-family="Helvetica,sans-Serif" font-size="10.00">G4Types.hh</text>
</a>
</g>
</g>
<!-- Node23&#45;&gt;Node24 -->
<g id="edge25" class="edge">
<title>Node23&#45;&gt;Node24</title>
<path fill="none" stroke="midnightblue" d="M1527.39,-190.08C1522.22,-182.53 1514.65,-171.49 1508.31,-162.23"/>
<polygon fill="midnightblue" stroke="midnightblue" points="1511.04,-160.02 1502.5,-153.75 1505.26,-163.98 1511.04,-160.02"/>
</g>
<!-- Node25 -->
<g id="node25" class="node">
<title>Node25</title>
<g id="a_node25"><a xlink:title=" ">
<polygon fill="none" stroke="#bfbfbf" points="1551.5,-134.5 1551.5,-153.5 1589.5,-153.5 1589.5,-134.5 1551.5,-134.5"/>
<text text-anchor="middle" x="1570.5" y="-141.5" font-family="Helvetica,sans-Serif" font-size="10.00">map</text>
</a>
</g>
</g>
<!-- Node23&#45;&gt;Node25 -->
<g id="edge26" class="edge">
<title>Node23&#45;&gt;Node25</title>
<path fill="none" stroke="midnightblue" d="M1539.61,-190.08C1544.78,-182.53 1552.35,-171.49 1558.69,-162.23"/>
<polygon fill="midnightblue" stroke="midnightblue" points="1561.74,-163.98 1564.5,-153.75 1555.96,-160.02 1561.74,-163.98"/>
</g>
<!-- Node26 -->
<g id="node26" class="node">
<title>Node26</title>
<g id="a_node26"><a xlink:title=" ">
<polygon fill="none" stroke="#bfbfbf" points="1608,-134.5 1608,-153.5 1669,-153.5 1669,-134.5 1608,-134.5"/>
<text text-anchor="middle" x="1638.5" y="-141.5" font-family="Helvetica,sans-Serif" font-size="10.00">TGraph.h</text>
</a>
</g>
</g>
<!-- Node23&#45;&gt;Node26 -->
<g id="edge27" class="edge">
<title>Node23&#45;&gt;Node26</title>
<path fill="none" stroke="midnightblue" d="M1550.37,-190.32C1567.21,-181.66 1593.31,-168.24 1612.74,-158.25"/>
<polygon fill="midnightblue" stroke="midnightblue" points="1614.38,-161.34 1621.67,-153.65 1611.18,-155.12 1614.38,-161.34"/>
</g>
<!-- Node27 -->
<g id="node27" class="node">
<title>Node27</title>
<g id="a_node27"><a xlink:title=" ">
<polygon fill="none" stroke="#bfbfbf" points="1687,-134.5 1687,-153.5 1740,-153.5 1740,-134.5 1687,-134.5"/>
<text text-anchor="middle" x="1713.5" y="-141.5" font-family="Helvetica,sans-Serif" font-size="10.00">TH2D.h</text>
</a>
</g>
</g>
<!-- Node23&#45;&gt;Node27 -->
<g id="edge28" class="edge">
<title>Node23&#45;&gt;Node27</title>
<path fill="none" stroke="midnightblue" d="M1562.02,-190.44C1593.11,-181.12 1642.93,-166.17 1676.88,-155.99"/>
<polygon fill="midnightblue" stroke="midnightblue" points="1678.3,-159.21 1686.87,-152.99 1676.29,-152.51 1678.3,-159.21"/>
</g>
</g>
</svg>
