<?xml version="1.0" encoding="UTF-8" standalone="no"?>
<!DOCTYPE svg PUBLIC "-//W3C//DTD SVG 1.1//EN"
 "http://www.w3.org/Graphics/SVG/1.1/DTD/svg11.dtd">
<!-- Generated by graphviz version 2.43.0 (0)
 -->
<!-- Title: OMSim_radioactive_decays.cc Pages: 1 -->
<svg width="2719pt" height="431pt"
 viewBox="0.00 0.00 2718.50 431.00" xmlns="http://www.w3.org/2000/svg" xmlns:xlink="http://www.w3.org/1999/xlink">
<g id="graph0" class="graph" transform="scale(1 1) rotate(0) translate(4 427)">
<title>OMSim_radioactive_decays.cc</title>
<polygon fill="white" stroke="transparent" points="-4,4 -4,-427 2714.5,-427 2714.5,4 -4,4"/>
<!-- Node1 -->
<g id="node1" class="node">
<title>Node1</title>
<g id="a_node1"><a xlink:title="Main of the radioactive decay study.">
<polygon fill="#bfbfbf" stroke="black" points="882,-403.5 882,-422.5 1047,-422.5 1047,-403.5 882,-403.5"/>
<text text-anchor="middle" x="964.5" y="-410.5" font-family="Helvetica,sans-Serif" font-size="10.00">OMSim_radioactive_decays.cc</text>
</a>
</g>
</g>
<!-- Node2 -->
<g id="node2" class="node">
<title>Node2</title>
<g id="a_node2"><a xlink:href="_o_m_sim_8hh.html" target="_top" xlink:title="Main simulation class for the Optical Module (OM) simulation. This file defines the OMSim class,...">
<polygon fill="white" stroke="black" points="1750,-347.5 1750,-366.5 1817,-366.5 1817,-347.5 1750,-347.5"/>
<text text-anchor="middle" x="1783.5" y="-354.5" font-family="Helvetica,sans-Serif" font-size="10.00">OMSim.hh</text>
</a>
</g>
</g>
<!-- Node1&#45;&gt;Node2 -->
<g id="edge1" class="edge">
<title>Node1&#45;&gt;Node2</title>
<path fill="none" stroke="midnightblue" d="M1047.16,-406.55C1218.78,-395.23 1608.67,-369.53 1739.65,-360.89"/>
<polygon fill="midnightblue" stroke="midnightblue" points="1739.96,-364.38 1749.71,-360.23 1739.5,-357.39 1739.96,-364.38"/>
</g>
<!-- Node14 -->
<g id="node14" class="node">
<title>Node14</title>
<g id="a_node14"><a xlink:href="_o_m_sim_hit_manager_8hh.html" target="_top" xlink:title="Defines structures and classes related to optical module photon hit management.">
<polygon fill="white" stroke="black" points="794,-179.5 794,-198.5 917,-198.5 917,-179.5 794,-179.5"/>
<text text-anchor="middle" x="855.5" y="-186.5" font-family="Helvetica,sans-Serif" font-size="10.00">OMSimHitManager.hh</text>
</a>
</g>
</g>
<!-- Node1&#45;&gt;Node14 -->
<g id="edge54" class="edge">
<title>Node1&#45;&gt;Node14</title>
<path fill="none" stroke="midnightblue" d="M966.25,-403.27C971.27,-375.7 983.05,-289.07 945.5,-235 934.75,-219.53 917.09,-209.11 900.25,-202.22"/>
<polygon fill="midnightblue" stroke="midnightblue" points="901.07,-198.8 890.48,-198.57 898.62,-205.35 901.07,-198.8"/>
</g>
<!-- Node49 -->
<g id="node47" class="node">
<title>Node49</title>
<g id="a_node47"><a xlink:href="_o_m_sim_decays_g_p_s_8hh.html" target="_top" xlink:title="Defines the OMSimDecaysGPS class for the radioactive decays simulation.">
<polygon fill="white" stroke="black" points="395.5,-347.5 395.5,-366.5 517.5,-366.5 517.5,-347.5 395.5,-347.5"/>
<text text-anchor="middle" x="456.5" y="-354.5" font-family="Helvetica,sans-Serif" font-size="10.00">OMSimDecaysGPS.hh</text>
</a>
</g>
</g>
<!-- Node1&#45;&gt;Node49 -->
<g id="edge51" class="edge">
<title>Node1&#45;&gt;Node49</title>
<path fill="none" stroke="midnightblue" d="M884.29,-403.47C786.09,-393.04 621.33,-375.52 527.52,-365.55"/>
<polygon fill="midnightblue" stroke="midnightblue" points="527.87,-362.07 517.56,-364.49 527.13,-369.03 527.87,-362.07"/>
</g>
<!-- Node51 -->
<g id="node49" class="node">
<title>Node51</title>
<g id="a_node49"><a xlink:href="_o_m_sim_decays_analysis_8hh.html" target="_top" xlink:title="Defines the OMSimDecaysAnalysis class and DecayStats struct for the radioactive decays simulation.">
<polygon fill="white" stroke="black" points="935.5,-179.5 935.5,-198.5 1079.5,-198.5 1079.5,-179.5 935.5,-179.5"/>
<text text-anchor="middle" x="1007.5" y="-186.5" font-family="Helvetica,sans-Serif" font-size="10.00">OMSimDecaysAnalysis.hh</text>
</a>
</g>
</g>
<!-- Node1&#45;&gt;Node51 -->
<g id="edge55" class="edge">
<title>Node1&#45;&gt;Node51</title>
<path fill="none" stroke="midnightblue" d="M967.54,-403.47C970.66,-394.49 975.45,-379.9 978.5,-367 991.95,-310.05 1001.28,-241.33 1005.29,-208.81"/>
<polygon fill="midnightblue" stroke="midnightblue" points="1008.81,-208.9 1006.53,-198.56 1001.86,-208.07 1008.81,-208.9"/>
</g>
<!-- Node52 -->
<g id="node50" class="node">
<title>Node52</title>
<g id="a_node50"><a xlink:href="_o_m_sim_rad_decays_detector_8hh.html" target="_top" xlink:title="Defines the OMSimRadDecaysDetector class for the radioactive decays simulation.">
<polygon fill="white" stroke="black" points="608,-347.5 608,-366.5 771,-366.5 771,-347.5 608,-347.5"/>
<text text-anchor="middle" x="689.5" y="-354.5" font-family="Helvetica,sans-Serif" font-size="10.00">OMSimRadDecaysDetector.hh</text>
</a>
</g>
</g>
<!-- Node1&#45;&gt;Node52 -->
<g id="edge58" class="edge">
<title>Node1&#45;&gt;Node52</title>
<path fill="none" stroke="midnightblue" d="M920.93,-403.44C872.65,-393.96 794.79,-378.67 742.89,-368.48"/>
<polygon fill="midnightblue" stroke="midnightblue" points="743.36,-365.01 732.87,-366.52 742.01,-371.88 743.36,-365.01"/>
</g>
<!-- Node3 -->
<g id="node3" class="node">
<title>Node3</title>
<g id="a_node3"><a xlink:href="_o_m_sim_detector_construction_8hh.html" target="_top" xlink:title=" ">
<polygon fill="white" stroke="black" points="717.5,-291.5 717.5,-310.5 887.5,-310.5 887.5,-291.5 717.5,-291.5"/>
<text text-anchor="middle" x="802.5" y="-298.5" font-family="Helvetica,sans-Serif" font-size="10.00">OMSimDetectorConstruction.hh</text>
</a>
</g>
</g>
<!-- Node2&#45;&gt;Node3 -->
<g id="edge2" class="edge">
<title>Node2&#45;&gt;Node3</title>
<path fill="none" stroke="midnightblue" d="M1749.73,-354.14C1614.65,-346.71 1110.28,-318.94 897.81,-307.25"/>
<polygon fill="midnightblue" stroke="midnightblue" points="897.79,-303.74 887.61,-306.69 897.41,-310.73 897.79,-303.74"/>
</g>
<!-- Node27 -->
<g id="node27" class="node">
<title>Node27</title>
<g id="a_node27"><a xlink:title=" ">
<polygon fill="white" stroke="#bfbfbf" points="1170,-291.5 1170,-310.5 1291,-310.5 1291,-291.5 1170,-291.5"/>
<text text-anchor="middle" x="1230.5" y="-298.5" font-family="Helvetica,sans-Serif" font-size="10.00">OMSimPhysicsList.hh</text>
</a>
</g>
</g>
<!-- Node2&#45;&gt;Node27 -->
<g id="edge30" class="edge">
<title>Node2&#45;&gt;Node27</title>
<path fill="none" stroke="midnightblue" d="M1749.72,-353.29C1672.31,-346.99 1475.95,-330.49 1301.22,-311.16"/>
<polygon fill="midnightblue" stroke="midnightblue" points="1301.39,-307.66 1291.07,-310.03 1300.62,-314.61 1301.39,-307.66"/>
</g>
<!-- Node28 -->
<g id="node28" class="node">
<title>Node28</title>
<g id="a_node28"><a xlink:title=" ">
<polygon fill="white" stroke="#bfbfbf" points="1309,-291.5 1309,-310.5 1494,-310.5 1494,-291.5 1309,-291.5"/>
<text text-anchor="middle" x="1401.5" y="-298.5" font-family="Helvetica,sans-Serif" font-size="10.00">OMSimPrimaryGeneratorAction.hh</text>
</a>
</g>
</g>
<!-- Node2&#45;&gt;Node28 -->
<g id="edge31" class="edge">
<title>Node2&#45;&gt;Node28</title>
<path fill="none" stroke="midnightblue" d="M1749.93,-351.26C1687.98,-342.5 1554.45,-323.62 1471.87,-311.95"/>
<polygon fill="midnightblue" stroke="midnightblue" points="1472.2,-308.46 1461.81,-310.53 1471.22,-315.39 1472.2,-308.46"/>
</g>
<!-- Node29 -->
<g id="node29" class="node">
<title>Node29</title>
<g id="a_node29"><a xlink:href="_o_m_sim_run_action_8hh.html" target="_top" xlink:title=" ">
<polygon fill="white" stroke="black" points="1511.5,-291.5 1511.5,-310.5 1627.5,-310.5 1627.5,-291.5 1511.5,-291.5"/>
<text text-anchor="middle" x="1569.5" y="-298.5" font-family="Helvetica,sans-Serif" font-size="10.00">OMSimRunAction.hh</text>
</a>
</g>
</g>
<!-- Node2&#45;&gt;Node29 -->
<g id="edge32" class="edge">
<title>Node2&#45;&gt;Node29</title>
<path fill="none" stroke="midnightblue" d="M1749.59,-347.44C1712.65,-338.12 1653.45,-323.18 1613.08,-313"/>
<polygon fill="midnightblue" stroke="midnightblue" points="1613.8,-309.57 1603.25,-310.52 1612.09,-316.36 1613.8,-309.57"/>
</g>
<!-- Node31 -->
<g id="node31" class="node">
<title>Node31</title>
<g id="a_node31"><a xlink:title=" ">
<polygon fill="white" stroke="#bfbfbf" points="1646,-291.5 1646,-310.5 1771,-310.5 1771,-291.5 1646,-291.5"/>
<text text-anchor="middle" x="1708.5" y="-298.5" font-family="Helvetica,sans-Serif" font-size="10.00">OMSimEventAction.hh</text>
</a>
</g>
</g>
<!-- Node2&#45;&gt;Node31 -->
<g id="edge34" class="edge">
<title>Node2&#45;&gt;Node31</title>
<path fill="none" stroke="midnightblue" d="M1771.45,-347.32C1760.04,-339.11 1742.67,-326.6 1729.07,-316.81"/>
<polygon fill="midnightblue" stroke="midnightblue" points="1730.93,-313.84 1720.77,-310.83 1726.84,-319.52 1730.93,-313.84"/>
</g>
<!-- Node32 -->
<g id="node32" class="node">
<title>Node32</title>
<g id="a_node32"><a xlink:href="_o_m_sim_tracking_action_8hh.html" target="_top" xlink:title=" ">
<polygon fill="white" stroke="black" points="1789.5,-291.5 1789.5,-310.5 1927.5,-310.5 1927.5,-291.5 1789.5,-291.5"/>
<text text-anchor="middle" x="1858.5" y="-298.5" font-family="Helvetica,sans-Serif" font-size="10.00">OMSimTrackingAction.hh</text>
</a>
</g>
</g>
<!-- Node2&#45;&gt;Node32 -->
<g id="edge35" class="edge">
<title>Node2&#45;&gt;Node32</title>
<path fill="none" stroke="midnightblue" d="M1795.55,-347.32C1806.96,-339.11 1824.33,-326.6 1837.93,-316.81"/>
<polygon fill="midnightblue" stroke="midnightblue" points="1840.16,-319.52 1846.23,-310.83 1836.07,-313.84 1840.16,-319.52"/>
</g>
<!-- Node34 -->
<g id="node34" class="node">
<title>Node34</title>
<g id="a_node34"><a xlink:href="_o_m_sim_stepping_action_8hh.html" target="_top" xlink:title="Defines OMSimSteppingAction.Currently it only checks for trapped photons.">
<polygon fill="white" stroke="black" points="1945.5,-291.5 1945.5,-310.5 2085.5,-310.5 2085.5,-291.5 1945.5,-291.5"/>
<text text-anchor="middle" x="2015.5" y="-298.5" font-family="Helvetica,sans-Serif" font-size="10.00">OMSimSteppingAction.hh</text>
</a>
</g>
</g>
<!-- Node2&#45;&gt;Node34 -->
<g id="edge37" class="edge">
<title>Node2&#45;&gt;Node34</title>
<path fill="none" stroke="midnightblue" d="M1817.23,-348.15C1857.19,-338.85 1923.98,-323.3 1968.87,-312.85"/>
<polygon fill="midnightblue" stroke="midnightblue" points="1969.71,-316.25 1978.66,-310.58 1968.12,-309.43 1969.71,-316.25"/>
</g>
<!-- Node36 -->
<g id="node36" class="node">
<title>Node36</title>
<g id="a_node36"><a xlink:href="_o_m_sim_u_iinterface_8hh.html" target="_top" xlink:title="The OMSimUIinterface class provides a singleton interface to Geant4&#39;s UI manager.">
<polygon fill="white" stroke="black" points="1031,-291.5 1031,-310.5 1152,-310.5 1152,-291.5 1031,-291.5"/>
<text text-anchor="middle" x="1091.5" y="-298.5" font-family="Helvetica,sans-Serif" font-size="10.00">OMSimUIinterface.hh</text>
</a>
</g>
</g>
<!-- Node2&#45;&gt;Node36 -->
<g id="edge39" class="edge">
<title>Node2&#45;&gt;Node36</title>
<path fill="none" stroke="midnightblue" d="M1749.67,-354.24C1657.3,-349.3 1392.81,-334.17 1162.32,-311.13"/>
<polygon fill="midnightblue" stroke="midnightblue" points="1162.36,-307.62 1152.06,-310.1 1161.66,-314.58 1162.36,-307.62"/>
</g>
<!-- Node44 -->
<g id="node42" class="node">
<title>Node44</title>
<g id="a_node42"><a xlink:title=" ">
<polygon fill="white" stroke="#bfbfbf" points="2103.5,-291.5 2103.5,-310.5 2209.5,-310.5 2209.5,-291.5 2103.5,-291.5"/>
<text text-anchor="middle" x="2156.5" y="-298.5" font-family="Helvetica,sans-Serif" font-size="10.00">G4RunManager.hh</text>
</a>
</g>
</g>
<!-- Node2&#45;&gt;Node44 -->
<g id="edge46" class="edge">
<title>Node2&#45;&gt;Node44</title>
<path fill="none" stroke="midnightblue" d="M1817.1,-351.14C1872.4,-343.15 1986.36,-326.67 2093.4,-311.16"/>
<polygon fill="midnightblue" stroke="midnightblue" points="2094.01,-314.61 2103.4,-309.71 2093,-307.68 2094.01,-314.61"/>
</g>
<!-- Node45 -->
<g id="node43" class="node">
<title>Node45</title>
<g id="a_node43"><a xlink:title=" ">
<polygon fill="white" stroke="#bfbfbf" points="2228,-291.5 2228,-310.5 2335,-310.5 2335,-291.5 2228,-291.5"/>
<text text-anchor="middle" x="2281.5" y="-298.5" font-family="Helvetica,sans-Serif" font-size="10.00">G4VisExecutive.hh</text>
</a>
</g>
</g>
<!-- Node2&#45;&gt;Node45 -->
<g id="edge47" class="edge">
<title>Node2&#45;&gt;Node45</title>
<path fill="none" stroke="midnightblue" d="M1817.12,-352.97C1888.65,-346.43 2061.47,-330.11 2217.64,-311.06"/>
<polygon fill="midnightblue" stroke="midnightblue" points="2218.4,-314.49 2227.9,-309.8 2217.55,-307.54 2218.4,-314.49"/>
</g>
<!-- Node46 -->
<g id="node44" class="node">
<title>Node46</title>
<g id="a_node44"><a xlink:title=" ">
<polygon fill="white" stroke="#bfbfbf" points="2353,-291.5 2353,-310.5 2456,-310.5 2456,-291.5 2353,-291.5"/>
<text text-anchor="middle" x="2404.5" y="-298.5" font-family="Helvetica,sans-Serif" font-size="10.00">G4UIExecutive.hh</text>
</a>
</g>
</g>
<!-- Node2&#45;&gt;Node46 -->
<g id="edge48" class="edge">
<title>Node2&#45;&gt;Node46</title>
<path fill="none" stroke="midnightblue" d="M1817.09,-354.11C1902.9,-349.13 2137.3,-334.42 2342.75,-311.13"/>
<polygon fill="midnightblue" stroke="midnightblue" points="2343.28,-314.6 2352.82,-309.98 2342.49,-307.64 2343.28,-314.6"/>
</g>
<!-- Node47 -->
<g id="node45" class="node">
<title>Node47</title>
<g id="a_node45"><a xlink:title=" ">
<polygon fill="white" stroke="#bfbfbf" points="2474.5,-291.5 2474.5,-310.5 2542.5,-310.5 2542.5,-291.5 2474.5,-291.5"/>
<text text-anchor="middle" x="2508.5" y="-298.5" font-family="Helvetica,sans-Serif" font-size="10.00">filesystem</text>
</a>
</g>
</g>
<!-- Node2&#45;&gt;Node47 -->
<g id="edge49" class="edge">
<title>Node2&#45;&gt;Node47</title>
<path fill="none" stroke="midnightblue" d="M1817.02,-355.45C1915.11,-353.5 2210.11,-345.12 2464.15,-310.99"/>
<polygon fill="midnightblue" stroke="midnightblue" points="2464.87,-314.42 2474.31,-309.61 2463.93,-307.49 2464.87,-314.42"/>
</g>
<!-- Node48 -->
<g id="node46" class="node">
<title>Node48</title>
<g id="a_node46"><a xlink:title=" ">
<polygon fill="white" stroke="#bfbfbf" points="2560.5,-291.5 2560.5,-310.5 2710.5,-310.5 2710.5,-291.5 2560.5,-291.5"/>
<text text-anchor="middle" x="2635.5" y="-298.5" font-family="Helvetica,sans-Serif" font-size="10.00">boost/program_options.hpp</text>
</a>
</g>
</g>
<!-- Node2&#45;&gt;Node48 -->
<g id="edge50" class="edge">
<title>Node2&#45;&gt;Node48</title>
<path fill="none" stroke="midnightblue" d="M1817.23,-354.61C1923.33,-350.09 2259.97,-334.84 2550.11,-311.08"/>
<polygon fill="midnightblue" stroke="midnightblue" points="2550.73,-314.54 2560.41,-310.23 2550.16,-307.56 2550.73,-314.54"/>
</g>
<!-- Node4 -->
<g id="node4" class="node">
<title>Node4</title>
<g id="a_node4"><a xlink:href="_o_m_sim_optical_module_8hh.html" target="_top" xlink:title=" ">
<polygon fill="white" stroke="black" points="523,-235.5 523,-254.5 660,-254.5 660,-235.5 523,-235.5"/>
<text text-anchor="middle" x="591.5" y="-242.5" font-family="Helvetica,sans-Serif" font-size="10.00">OMSimOpticalModule.hh</text>
</a>
</g>
</g>
<!-- Node3&#45;&gt;Node4 -->
<g id="edge3" class="edge">
<title>Node3&#45;&gt;Node4</title>
<path fill="none" stroke="midnightblue" d="M769.07,-291.44C732.64,-282.12 674.27,-267.18 634.47,-257"/>
<polygon fill="midnightblue" stroke="midnightblue" points="635.33,-253.61 624.78,-254.52 633.6,-260.39 635.33,-253.61"/>
</g>
<!-- Node25 -->
<g id="node25" class="node">
<title>Node25</title>
<g id="a_node25"><a xlink:title=" ">
<polygon fill="white" stroke="#bfbfbf" points="678.5,-235.5 678.5,-254.5 740.5,-254.5 740.5,-235.5 678.5,-235.5"/>
<text text-anchor="middle" x="709.5" y="-242.5" font-family="Helvetica,sans-Serif" font-size="10.00">G4Orb.hh</text>
</a>
</g>
</g>
<!-- Node3&#45;&gt;Node25 -->
<g id="edge28" class="edge">
<title>Node3&#45;&gt;Node25</title>
<path fill="none" stroke="midnightblue" d="M787.56,-291.32C772.91,-282.82 750.37,-269.73 733.26,-259.8"/>
<polygon fill="midnightblue" stroke="midnightblue" points="734.81,-256.65 724.4,-254.65 731.3,-262.7 734.81,-256.65"/>
</g>
<!-- Node26 -->
<g id="node26" class="node">
<title>Node26</title>
<g id="a_node26"><a xlink:title=" ">
<polygon fill="white" stroke="#bfbfbf" points="758.5,-235.5 758.5,-254.5 936.5,-254.5 936.5,-235.5 758.5,-235.5"/>
<text text-anchor="middle" x="847.5" y="-242.5" font-family="Helvetica,sans-Serif" font-size="10.00">G4VUserDetectorConstruction.hh</text>
</a>
</g>
</g>
<!-- Node3&#45;&gt;Node26 -->
<g id="edge29" class="edge">
<title>Node3&#45;&gt;Node26</title>
<path fill="none" stroke="midnightblue" d="M809.93,-291.08C816.35,-283.38 825.81,-272.03 833.62,-262.65"/>
<polygon fill="midnightblue" stroke="midnightblue" points="836.49,-264.67 840.21,-254.75 831.12,-260.19 836.49,-264.67"/>
</g>
<!-- Node5 -->
<g id="node5" class="node">
<title>Node5</title>
<g id="a_node5"><a xlink:href="abc_detector_component_8hh.html" target="_top" xlink:title="Provides helper base class abcDetectorComponent for constructing and managing detector components in ...">
<polygon fill="white" stroke="black" points="421,-123.5 421,-142.5 568,-142.5 568,-123.5 421,-123.5"/>
<text text-anchor="middle" x="494.5" y="-130.5" font-family="Helvetica,sans-Serif" font-size="10.00">abcDetectorComponent.hh</text>
</a>
</g>
</g>
<!-- Node4&#45;&gt;Node5 -->
<g id="edge4" class="edge">
<title>Node4&#45;&gt;Node5</title>
<path fill="none" stroke="midnightblue" d="M583.57,-235.44C575.26,-226.43 561.85,-211.82 550.5,-199 536.08,-182.72 519.89,-163.87 508.64,-150.67"/>
<polygon fill="midnightblue" stroke="midnightblue" points="511.18,-148.25 502.03,-142.9 505.84,-152.78 511.18,-148.25"/>
</g>
<!-- Node4&#45;&gt;Node14 -->
<g id="edge13" class="edge">
<title>Node4&#45;&gt;Node14</title>
<path fill="none" stroke="midnightblue" d="M633.33,-235.44C679.58,-225.98 754.11,-210.74 803.94,-200.55"/>
<polygon fill="midnightblue" stroke="midnightblue" points="804.77,-203.95 813.86,-198.52 803.37,-197.09 804.77,-203.95"/>
</g>
<!-- Node22 -->
<g id="node22" class="node">
<title>Node22</title>
<g id="a_node22"><a xlink:href="_o_m_sim_p_m_t_construction_8hh.html" target="_top" xlink:title="Construction of the PMTs.">
<polygon fill="white" stroke="black" points="560,-179.5 560,-198.5 709,-198.5 709,-179.5 560,-179.5"/>
<text text-anchor="middle" x="634.5" y="-186.5" font-family="Helvetica,sans-Serif" font-size="10.00">OMSimPMTConstruction.hh</text>
</a>
</g>
</g>
<!-- Node4&#45;&gt;Node22 -->
<g id="edge22" class="edge">
<title>Node4&#45;&gt;Node22</title>
<path fill="none" stroke="midnightblue" d="M598.6,-235.08C604.74,-227.38 613.77,-216.03 621.24,-206.65"/>
<polygon fill="midnightblue" stroke="midnightblue" points="624.04,-208.75 627.53,-198.75 618.56,-204.39 624.04,-208.75"/>
</g>
<!-- Node6 -->
<g id="node6" class="node">
<title>Node6</title>
<g id="a_node6"><a xlink:href="_o_m_sim_input_data_8hh.html" target="_top" xlink:title="Definition of ParameterTable and InputDataManager.">
<polygon fill="white" stroke="black" points="87,-67.5 87,-86.5 202,-86.5 202,-67.5 87,-67.5"/>
<text text-anchor="middle" x="144.5" y="-74.5" font-family="Helvetica,sans-Serif" font-size="10.00">OMSimInputData.hh</text>
</a>
</g>
</g>
<!-- Node5&#45;&gt;Node6 -->
<g id="edge5" class="edge">
<title>Node5&#45;&gt;Node6</title>
<path fill="none" stroke="midnightblue" d="M439.04,-123.44C376.83,-113.85 276.02,-98.29 209.99,-88.1"/>
<polygon fill="midnightblue" stroke="midnightblue" points="210.12,-84.58 199.7,-86.52 209.05,-91.5 210.12,-84.58"/>
</g>
<!-- Node10 -->
<g id="node10" class="node">
<title>Node10</title>
<g id="a_node10"><a xlink:title=" ">
<polygon fill="white" stroke="#bfbfbf" points="220,-67.5 220,-86.5 327,-86.5 327,-67.5 220,-67.5"/>
<text text-anchor="middle" x="273.5" y="-74.5" font-family="Helvetica,sans-Serif" font-size="10.00">G4Transform3D.hh</text>
</a>
</g>
</g>
<!-- Node5&#45;&gt;Node10 -->
<g id="edge9" class="edge">
<title>Node5&#45;&gt;Node10</title>
<path fill="none" stroke="midnightblue" d="M459.48,-123.44C421.25,-114.1 359.93,-99.12 318.24,-88.93"/>
<polygon fill="midnightblue" stroke="midnightblue" points="318.9,-85.49 308.35,-86.52 317.24,-92.29 318.9,-85.49"/>
</g>
<!-- Node11 -->
<g id="node11" class="node">
<title>Node11</title>
<g id="a_node11"><a xlink:title=" ">
<polygon fill="white" stroke="#bfbfbf" points="345.5,-67.5 345.5,-86.5 453.5,-86.5 453.5,-67.5 345.5,-67.5"/>
<text text-anchor="middle" x="399.5" y="-74.5" font-family="Helvetica,sans-Serif" font-size="10.00">G4VisAttributes.hh</text>
</a>
</g>
</g>
<!-- Node5&#45;&gt;Node11 -->
<g id="edge10" class="edge">
<title>Node5&#45;&gt;Node11</title>
<path fill="none" stroke="midnightblue" d="M479.24,-123.32C464.28,-114.82 441.25,-101.73 423.77,-91.8"/>
<polygon fill="midnightblue" stroke="midnightblue" points="425.15,-88.55 414.73,-86.65 421.69,-94.64 425.15,-88.55"/>
</g>
<!-- Node12 -->
<g id="node12" class="node">
<title>Node12</title>
<g id="a_node12"><a xlink:title=" ">
<polygon fill="white" stroke="#bfbfbf" points="472,-67.5 472,-86.5 597,-86.5 597,-67.5 472,-67.5"/>
<text text-anchor="middle" x="534.5" y="-74.5" font-family="Helvetica,sans-Serif" font-size="10.00">G4SubtractionSolid.hh</text>
</a>
</g>
</g>
<!-- Node5&#45;&gt;Node12 -->
<g id="edge11" class="edge">
<title>Node5&#45;&gt;Node12</title>
<path fill="none" stroke="midnightblue" d="M501.11,-123.08C506.76,-115.46 515.04,-104.26 521.95,-94.94"/>
<polygon fill="midnightblue" stroke="midnightblue" points="524.88,-96.87 528.02,-86.75 519.25,-92.7 524.88,-96.87"/>
</g>
<!-- Node13 -->
<g id="node13" class="node">
<title>Node13</title>
<g id="a_node13"><a xlink:title=" ">
<polygon fill="white" stroke="#bfbfbf" points="615.5,-67.5 615.5,-86.5 725.5,-86.5 725.5,-67.5 615.5,-67.5"/>
<text text-anchor="middle" x="670.5" y="-74.5" font-family="Helvetica,sans-Serif" font-size="10.00">G4PVPlacement.hh</text>
</a>
</g>
</g>
<!-- Node5&#45;&gt;Node13 -->
<g id="edge12" class="edge">
<title>Node5&#45;&gt;Node13</title>
<path fill="none" stroke="midnightblue" d="M522.39,-123.44C552.25,-114.28 599.81,-99.69 632.96,-89.52"/>
<polygon fill="midnightblue" stroke="midnightblue" points="634.21,-92.8 642.74,-86.52 632.16,-86.1 634.21,-92.8"/>
</g>
<!-- Node7 -->
<g id="node7" class="node">
<title>Node7</title>
<g id="a_node7"><a xlink:title=" ">
<polygon fill="white" stroke="#bfbfbf" points="0,-6 0,-25 143,-25 143,-6 0,-6"/>
<text text-anchor="middle" x="71.5" y="-13" font-family="Helvetica,sans-Serif" font-size="10.00">G4OpBoundaryProcess.hh</text>
</a>
</g>
</g>
<!-- Node6&#45;&gt;Node7 -->
<g id="edge6" class="edge">
<title>Node6&#45;&gt;Node7</title>
<path fill="none" stroke="midnightblue" d="M134.04,-67.48C122.55,-58.11 103.87,-42.88 89.91,-31.51"/>
<polygon fill="midnightblue" stroke="midnightblue" points="91.9,-28.61 81.94,-25.01 87.48,-34.04 91.9,-28.61"/>
</g>
<!-- Node8 -->
<g id="node8" class="node">
<title>Node8</title>
<g id="a_node8"><a xlink:title=" ">
<polygon fill="white" stroke="#bfbfbf" points="493,-6 493,-25 612,-25 612,-6 493,-6"/>
<text text-anchor="middle" x="552.5" y="-13" font-family="Helvetica,sans-Serif" font-size="10.00">G4SystemOfUnits.hh</text>
</a>
</g>
</g>
<!-- Node6&#45;&gt;Node8 -->
<g id="edge7" class="edge">
<title>Node6&#45;&gt;Node8</title>
<path fill="none" stroke="midnightblue" d="M202.09,-67.6C276.19,-56.79 404.77,-38.04 483.87,-26.51"/>
<polygon fill="midnightblue" stroke="midnightblue" points="484.82,-29.91 494.21,-25 483.81,-22.98 484.82,-29.91"/>
</g>
<!-- Node9 -->
<g id="node9" class="node">
<title>Node9</title>
<g id="a_node9"><a xlink:title=" ">
<polygon fill="white" stroke="#bfbfbf" points="161,-0.5 161,-30.5 274,-30.5 274,-0.5 161,-0.5"/>
<text text-anchor="start" x="169" y="-18.5" font-family="Helvetica,sans-Serif" font-size="10.00">boost/property_tree</text>
<text text-anchor="middle" x="217.5" y="-7.5" font-family="Helvetica,sans-Serif" font-size="10.00">/json_parser.hpp</text>
</a>
</g>
</g>
<!-- Node6&#45;&gt;Node9 -->
<g id="edge8" class="edge">
<title>Node6&#45;&gt;Node9</title>
<path fill="none" stroke="midnightblue" d="M154.96,-67.48C164.66,-59.57 179.49,-47.48 192.27,-37.07"/>
<polygon fill="midnightblue" stroke="midnightblue" points="194.76,-39.55 200.3,-30.52 190.33,-34.13 194.76,-39.55"/>
</g>
<!-- Node15 -->
<g id="node15" class="node">
<title>Node15</title>
<g id="a_node15"><a xlink:href="_o_m_sim_p_m_t_response_8hh.html" target="_top" xlink:title="Provides simulation for PMT response. This class is responsible for transforming hits on photocathode...">
<polygon fill="white" stroke="black" points="788,-123.5 788,-142.5 923,-142.5 923,-123.5 788,-123.5"/>
<text text-anchor="middle" x="855.5" y="-130.5" font-family="Helvetica,sans-Serif" font-size="10.00">OMSimPMTResponse.hh</text>
</a>
</g>
</g>
<!-- Node14&#45;&gt;Node15 -->
<g id="edge14" class="edge">
<title>Node14&#45;&gt;Node15</title>
<path fill="none" stroke="midnightblue" d="M855.5,-179.08C855.5,-172.01 855.5,-161.86 855.5,-152.99"/>
<polygon fill="midnightblue" stroke="midnightblue" points="859,-152.75 855.5,-142.75 852,-152.75 859,-152.75"/>
</g>
<!-- Node20 -->
<g id="node20" class="node">
<title>Node20</title>
<g id="a_node20"><a xlink:title=" ">
<polygon fill="white" stroke="#bfbfbf" points="941,-123.5 941,-142.5 1044,-142.5 1044,-123.5 941,-123.5"/>
<text text-anchor="middle" x="992.5" y="-130.5" font-family="Helvetica,sans-Serif" font-size="10.00">G4ThreeVector.hh</text>
</a>
</g>
</g>
<!-- Node14&#45;&gt;Node20 -->
<g id="edge20" class="edge">
<title>Node14&#45;&gt;Node20</title>
<path fill="none" stroke="midnightblue" d="M877.21,-179.44C899.85,-170.52 935.57,-156.44 961.25,-146.32"/>
<polygon fill="midnightblue" stroke="midnightblue" points="962.87,-149.44 970.89,-142.52 960.31,-142.93 962.87,-149.44"/>
</g>
<!-- Node21 -->
<g id="node21" class="node">
<title>Node21</title>
<g id="a_node21"><a xlink:title=" ">
<polygon fill="white" stroke="#bfbfbf" points="1062,-123.5 1062,-142.5 1117,-142.5 1117,-123.5 1062,-123.5"/>
<text text-anchor="middle" x="1089.5" y="-130.5" font-family="Helvetica,sans-Serif" font-size="10.00">fstream</text>
</a>
</g>
</g>
<!-- Node14&#45;&gt;Node21 -->
<g id="edge21" class="edge">
<title>Node14&#45;&gt;Node21</title>
<path fill="none" stroke="midnightblue" d="M893.67,-179.45C931.37,-170.96 990.92,-157.46 1051.84,-143.13"/>
<polygon fill="midnightblue" stroke="midnightblue" points="1052.7,-146.52 1061.63,-140.82 1051.09,-139.71 1052.7,-146.52"/>
</g>
<!-- Node15&#45;&gt;Node8 -->
<g id="edge15" class="edge">
<title>Node15&#45;&gt;Node8</title>
<path fill="none" stroke="midnightblue" d="M839.57,-123.32C807.97,-106.12 739.92,-69.18 734.5,-67 691.39,-49.69 640.25,-36.07 603.17,-27.36"/>
<polygon fill="midnightblue" stroke="midnightblue" points="603.64,-23.88 593.11,-25.04 602.06,-30.7 603.64,-23.88"/>
</g>
<!-- Node16 -->
<g id="node16" class="node">
<title>Node16</title>
<g id="a_node16"><a xlink:title=" ">
<polygon fill="white" stroke="#bfbfbf" points="782,-67.5 782,-86.5 855,-86.5 855,-67.5 782,-67.5"/>
<text text-anchor="middle" x="818.5" y="-74.5" font-family="Helvetica,sans-Serif" font-size="10.00">G4Types.hh</text>
</a>
</g>
</g>
<!-- Node15&#45;&gt;Node16 -->
<g id="edge16" class="edge">
<title>Node15&#45;&gt;Node16</title>
<path fill="none" stroke="midnightblue" d="M849.39,-123.08C844.22,-115.53 836.65,-104.49 830.31,-95.23"/>
<polygon fill="midnightblue" stroke="midnightblue" points="833.04,-93.02 824.5,-86.75 827.26,-96.98 833.04,-93.02"/>
</g>
<!-- Node17 -->
<g id="node17" class="node">
<title>Node17</title>
<g id="a_node17"><a xlink:title=" ">
<polygon fill="white" stroke="#bfbfbf" points="873.5,-67.5 873.5,-86.5 911.5,-86.5 911.5,-67.5 873.5,-67.5"/>
<text text-anchor="middle" x="892.5" y="-74.5" font-family="Helvetica,sans-Serif" font-size="10.00">map</text>
</a>
</g>
</g>
<!-- Node15&#45;&gt;Node17 -->
<g id="edge17" class="edge">
<title>Node15&#45;&gt;Node17</title>
<path fill="none" stroke="midnightblue" d="M861.61,-123.08C866.78,-115.53 874.35,-104.49 880.69,-95.23"/>
<polygon fill="midnightblue" stroke="midnightblue" points="883.74,-96.98 886.5,-86.75 877.96,-93.02 883.74,-96.98"/>
</g>
<!-- Node18 -->
<g id="node18" class="node">
<title>Node18</title>
<g id="a_node18"><a xlink:title=" ">
<polygon fill="white" stroke="#bfbfbf" points="930,-67.5 930,-86.5 991,-86.5 991,-67.5 930,-67.5"/>
<text text-anchor="middle" x="960.5" y="-74.5" font-family="Helvetica,sans-Serif" font-size="10.00">TGraph.h</text>
</a>
</g>
</g>
<!-- Node15&#45;&gt;Node18 -->
<g id="edge18" class="edge">
<title>Node15&#45;&gt;Node18</title>
<path fill="none" stroke="midnightblue" d="M872.37,-123.32C889.21,-114.66 915.31,-101.24 934.74,-91.25"/>
<polygon fill="midnightblue" stroke="midnightblue" points="936.38,-94.34 943.67,-86.65 933.18,-88.12 936.38,-94.34"/>
</g>
<!-- Node19 -->
<g id="node19" class="node">
<title>Node19</title>
<g id="a_node19"><a xlink:title=" ">
<polygon fill="white" stroke="#bfbfbf" points="1009,-67.5 1009,-86.5 1062,-86.5 1062,-67.5 1009,-67.5"/>
<text text-anchor="middle" x="1035.5" y="-74.5" font-family="Helvetica,sans-Serif" font-size="10.00">TH2D.h</text>
</a>
</g>
</g>
<!-- Node15&#45;&gt;Node19 -->
<g id="edge19" class="edge">
<title>Node15&#45;&gt;Node19</title>
<path fill="none" stroke="midnightblue" d="M884.02,-123.44C915.11,-114.12 964.93,-99.17 998.88,-88.99"/>
<polygon fill="midnightblue" stroke="midnightblue" points="1000.3,-92.21 1008.87,-85.99 998.29,-85.51 1000.3,-92.21"/>
</g>
<!-- Node22&#45;&gt;Node5 -->
<g id="edge23" class="edge">
<title>Node22&#45;&gt;Node5</title>
<path fill="none" stroke="midnightblue" d="M612.32,-179.44C589.07,-170.48 552.35,-156.31 526.08,-146.18"/>
<polygon fill="midnightblue" stroke="midnightblue" points="527.17,-142.85 516.58,-142.52 524.65,-149.38 527.17,-142.85"/>
</g>
<!-- Node22&#45;&gt;Node15 -->
<g id="edge25" class="edge">
<title>Node22&#45;&gt;Node15</title>
<path fill="none" stroke="midnightblue" d="M669.52,-179.44C707.75,-170.1 769.07,-155.12 810.76,-144.93"/>
<polygon fill="midnightblue" stroke="midnightblue" points="811.76,-148.29 820.65,-142.52 810.1,-141.49 811.76,-148.29"/>
</g>
<!-- Node22&#45;&gt;Node22 -->
<g id="edge24" class="edge">
<title>Node22&#45;&gt;Node22</title>
<path fill="none" stroke="midnightblue" d="M673.95,-198.53C700.76,-201.31 727,-198.13 727,-189 727,-181.01 706.91,-177.58 683.93,-178.71"/>
<polygon fill="midnightblue" stroke="midnightblue" points="683.65,-175.22 673.95,-179.47 684.19,-182.2 683.65,-175.22"/>
</g>
<!-- Node23 -->
<g id="node23" class="node">
<title>Node23</title>
<g id="a_node23"><a xlink:title=" ">
<polygon fill="white" stroke="#bfbfbf" points="671.5,-123.5 671.5,-142.5 769.5,-142.5 769.5,-123.5 671.5,-123.5"/>
<text text-anchor="middle" x="720.5" y="-130.5" font-family="Helvetica,sans-Serif" font-size="10.00">G4UnionSolid.hh</text>
</a>
</g>
</g>
<!-- Node22&#45;&gt;Node23 -->
<g id="edge26" class="edge">
<title>Node22&#45;&gt;Node23</title>
<path fill="none" stroke="midnightblue" d="M648.32,-179.32C661.73,-170.9 682.32,-157.97 698.09,-148.07"/>
<polygon fill="midnightblue" stroke="midnightblue" points="700.11,-150.94 706.72,-142.65 696.39,-145.01 700.11,-150.94"/>
</g>
<!-- Node24 -->
<g id="node24" class="node">
<title>Node24</title>
<g id="a_node24"><a xlink:title=" ">
<polygon fill="white" stroke="#bfbfbf" points="586,-123.5 586,-142.5 653,-142.5 653,-123.5 586,-123.5"/>
<text text-anchor="middle" x="619.5" y="-130.5" font-family="Helvetica,sans-Serif" font-size="10.00">G4Tubs.hh</text>
</a>
</g>
</g>
<!-- Node22&#45;&gt;Node24 -->
<g id="edge27" class="edge">
<title>Node22&#45;&gt;Node24</title>
<path fill="none" stroke="midnightblue" d="M632.02,-179.08C630.01,-171.85 627.11,-161.41 624.61,-152.4"/>
<polygon fill="midnightblue" stroke="midnightblue" points="627.98,-151.45 621.93,-142.75 621.24,-153.32 627.98,-151.45"/>
</g>
<!-- Node30 -->
<g id="node30" class="node">
<title>Node30</title>
<g id="a_node30"><a xlink:title=" ">
<polygon fill="white" stroke="#bfbfbf" points="1511,-235.5 1511,-254.5 1628,-254.5 1628,-235.5 1511,-235.5"/>
<text text-anchor="middle" x="1569.5" y="-242.5" font-family="Helvetica,sans-Serif" font-size="10.00">G4UserRunAction.hh</text>
</a>
</g>
</g>
<!-- Node29&#45;&gt;Node30 -->
<g id="edge33" class="edge">
<title>Node29&#45;&gt;Node30</title>
<path fill="none" stroke="midnightblue" d="M1569.5,-291.08C1569.5,-284.01 1569.5,-273.86 1569.5,-264.99"/>
<polygon fill="midnightblue" stroke="midnightblue" points="1573,-264.75 1569.5,-254.75 1566,-264.75 1573,-264.75"/>
</g>
<!-- Node33 -->
<g id="node33" class="node">
<title>Node33</title>
<g id="a_node33"><a xlink:title=" ">
<polygon fill="white" stroke="#bfbfbf" points="1788,-235.5 1788,-254.5 1927,-254.5 1927,-235.5 1788,-235.5"/>
<text text-anchor="middle" x="1857.5" y="-242.5" font-family="Helvetica,sans-Serif" font-size="10.00">G4UserTrackingAction.hh</text>
</a>
</g>
</g>
<!-- Node32&#45;&gt;Node33 -->
<g id="edge36" class="edge">
<title>Node32&#45;&gt;Node33</title>
<path fill="none" stroke="midnightblue" d="M1858.33,-291.08C1858.2,-284.01 1858.02,-273.86 1857.85,-264.99"/>
<polygon fill="midnightblue" stroke="midnightblue" points="1861.35,-264.68 1857.66,-254.75 1854.35,-264.81 1861.35,-264.68"/>
</g>
<!-- Node35 -->
<g id="node35" class="node">
<title>Node35</title>
<g id="a_node35"><a xlink:title=" ">
<polygon fill="white" stroke="#bfbfbf" points="1945,-235.5 1945,-254.5 2086,-254.5 2086,-235.5 1945,-235.5"/>
<text text-anchor="middle" x="2015.5" y="-242.5" font-family="Helvetica,sans-Serif" font-size="10.00">G4UserSteppingAction.hh</text>
</a>
</g>
</g>
<!-- Node34&#45;&gt;Node35 -->
<g id="edge38" class="edge">
<title>Node34&#45;&gt;Node35</title>
<path fill="none" stroke="midnightblue" d="M2015.5,-291.08C2015.5,-284.01 2015.5,-273.86 2015.5,-264.99"/>
<polygon fill="midnightblue" stroke="midnightblue" points="2019,-264.75 2015.5,-254.75 2012,-264.75 2019,-264.75"/>
</g>
<!-- Node37 -->
<g id="node37" class="node">
<title>Node37</title>
<g id="a_node37"><a xlink:href="_o_m_sim_command_args_table_8hh.html" target="_top" xlink:title="Definition of the OMSimCommandArgsTable singleton class, which controls user args.">
<polygon fill="white" stroke="black" points="1152.5,-235.5 1152.5,-254.5 1316.5,-254.5 1316.5,-235.5 1152.5,-235.5"/>
<text text-anchor="middle" x="1234.5" y="-242.5" font-family="Helvetica,sans-Serif" font-size="10.00">OMSimCommandArgsTable.hh</text>
</a>
</g>
</g>
<!-- Node36&#45;&gt;Node37 -->
<g id="edge40" class="edge">
<title>Node36&#45;&gt;Node37</title>
<path fill="none" stroke="midnightblue" d="M1114.16,-291.44C1137.9,-282.48 1175.41,-268.31 1202.24,-258.18"/>
<polygon fill="midnightblue" stroke="midnightblue" points="1203.83,-261.32 1211.95,-254.52 1201.36,-254.77 1203.83,-261.32"/>
</g>
<!-- Node43 -->
<g id="node41" class="node">
<title>Node43</title>
<g id="a_node41"><a xlink:title=" ">
<polygon fill="white" stroke="#bfbfbf" points="1036.5,-235.5 1036.5,-254.5 1134.5,-254.5 1134.5,-235.5 1036.5,-235.5"/>
<text text-anchor="middle" x="1085.5" y="-242.5" font-family="Helvetica,sans-Serif" font-size="10.00">G4UImanager.hh</text>
</a>
</g>
</g>
<!-- Node36&#45;&gt;Node43 -->
<g id="edge45" class="edge">
<title>Node36&#45;&gt;Node43</title>
<path fill="none" stroke="midnightblue" d="M1090.51,-291.08C1089.71,-283.93 1088.57,-273.64 1087.58,-264.69"/>
<polygon fill="midnightblue" stroke="midnightblue" points="1091.06,-264.3 1086.47,-254.75 1084.1,-265.08 1091.06,-264.3"/>
</g>
<!-- Node37&#45;&gt;Node21 -->
<g id="edge42" class="edge">
<title>Node37&#45;&gt;Node21</title>
<path fill="none" stroke="midnightblue" d="M1227.91,-235.12C1217.63,-221.71 1196.65,-196.05 1174.5,-179 1157.69,-166.06 1136.63,-154.88 1119.67,-146.9"/>
<polygon fill="midnightblue" stroke="midnightblue" points="1120.78,-143.55 1110.23,-142.58 1117.87,-149.92 1120.78,-143.55"/>
</g>
<!-- Node38 -->
<g id="node38" class="node">
<title>Node38</title>
<g id="a_node38"><a xlink:href="_o_m_sim_logger_8hh.html" target="_top" xlink:title=" ">
<polygon fill="white" stroke="red" points="1222,-179.5 1222,-198.5 1321,-198.5 1321,-179.5 1222,-179.5"/>
<text text-anchor="middle" x="1271.5" y="-186.5" font-family="Helvetica,sans-Serif" font-size="10.00">OMSimLogger.hh</text>
</a>
</g>
</g>
<!-- Node37&#45;&gt;Node38 -->
<g id="edge41" class="edge">
<title>Node37&#45;&gt;Node38</title>
<path fill="none" stroke="midnightblue" d="M1240.61,-235.08C1245.78,-227.53 1253.35,-216.49 1259.69,-207.23"/>
<polygon fill="midnightblue" stroke="midnightblue" points="1262.74,-208.98 1265.5,-198.75 1256.96,-205.02 1262.74,-208.98"/>
</g>
<!-- Node41 -->
<g id="node39" class="node">
<title>Node41</title>
<g id="a_node39"><a xlink:title=" ">
<polygon fill="white" stroke="#bfbfbf" points="1339.5,-179.5 1339.5,-198.5 1423.5,-198.5 1423.5,-179.5 1339.5,-179.5"/>
<text text-anchor="middle" x="1381.5" y="-186.5" font-family="Helvetica,sans-Serif" font-size="10.00">boost/any.hpp</text>
</a>
</g>
</g>
<!-- Node37&#45;&gt;Node41 -->
<g id="edge43" class="edge">
<title>Node37&#45;&gt;Node41</title>
<path fill="none" stroke="midnightblue" d="M1257.79,-235.44C1282.31,-226.44 1321.1,-212.19 1348.7,-202.05"/>
<polygon fill="midnightblue" stroke="midnightblue" points="1350.14,-205.25 1358.32,-198.52 1347.72,-198.68 1350.14,-205.25"/>
</g>
<!-- Node42 -->
<g id="node40" class="node">
<title>Node42</title>
<g id="a_node40"><a xlink:title=" ">
<polygon fill="white" stroke="#bfbfbf" points="1097.5,-179.5 1097.5,-198.5 1165.5,-198.5 1165.5,-179.5 1097.5,-179.5"/>
<text text-anchor="middle" x="1131.5" y="-186.5" font-family="Helvetica,sans-Serif" font-size="10.00">sys/time.h</text>
</a>
</g>
</g>
<!-- Node37&#45;&gt;Node42 -->
<g id="edge44" class="edge">
<title>Node37&#45;&gt;Node42</title>
<path fill="none" stroke="midnightblue" d="M1217.95,-235.32C1201.51,-226.7 1176.07,-213.36 1157.03,-203.39"/>
<polygon fill="midnightblue" stroke="midnightblue" points="1158.49,-200.2 1148.01,-198.65 1155.24,-206.4 1158.49,-200.2"/>
</g>
<!-- Node49&#45;&gt;Node4 -->
<g id="edge52" class="edge">
<title>Node49&#45;&gt;Node4</title>
<path fill="none" stroke="midnightblue" d="M467.09,-347.37C489.96,-328.73 544.21,-284.53 572.93,-261.13"/>
<polygon fill="midnightblue" stroke="midnightblue" points="575.41,-263.62 580.96,-254.59 570.99,-258.19 575.41,-263.62"/>
</g>
<!-- Node50 -->
<g id="node48" class="node">
<title>Node50</title>
<g id="a_node48"><a xlink:title=" ">
<polygon fill="white" stroke="#bfbfbf" points="361,-291.5 361,-310.5 428,-310.5 428,-291.5 361,-291.5"/>
<text text-anchor="middle" x="394.5" y="-298.5" font-family="Helvetica,sans-Serif" font-size="10.00">globals.hh</text>
</a>
</g>
</g>
<!-- Node49&#45;&gt;Node50 -->
<g id="edge53" class="edge">
<title>Node49&#45;&gt;Node50</title>
<path fill="none" stroke="midnightblue" d="M446.54,-347.32C437.37,-339.34 423.56,-327.31 412.47,-317.65"/>
<polygon fill="midnightblue" stroke="midnightblue" points="414.48,-314.76 404.64,-310.83 409.88,-320.04 414.48,-314.76"/>
</g>
<!-- Node51&#45;&gt;Node20 -->
<g id="edge56" class="edge">
<title>Node51&#45;&gt;Node20</title>
<path fill="none" stroke="midnightblue" d="M1005.02,-179.08C1003.01,-171.85 1000.11,-161.41 997.61,-152.4"/>
<polygon fill="midnightblue" stroke="midnightblue" points="1000.98,-151.45 994.93,-142.75 994.24,-153.32 1000.98,-151.45"/>
</g>
<!-- Node51&#45;&gt;Node21 -->
<g id="edge57" class="edge">
<title>Node51&#45;&gt;Node21</title>
<path fill="none" stroke="midnightblue" d="M1020.67,-179.32C1033.35,-170.98 1052.73,-158.21 1067.71,-148.35"/>
<polygon fill="midnightblue" stroke="midnightblue" points="1069.93,-151.08 1076.36,-142.65 1066.08,-145.23 1069.93,-151.08"/>
</g>
<!-- Node52&#45;&gt;Node3 -->
<g id="edge61" class="edge">
<title>Node52&#45;&gt;Node3</title>
<path fill="none" stroke="midnightblue" d="M707.41,-347.44C725.75,-338.68 754.51,-324.94 775.59,-314.86"/>
<polygon fill="midnightblue" stroke="midnightblue" points="777.17,-317.99 784.68,-310.52 774.15,-311.67 777.17,-317.99"/>
</g>
<!-- Node52&#45;&gt;Node4 -->
<g id="edge59" class="edge">
<title>Node52&#45;&gt;Node4</title>
<path fill="none" stroke="midnightblue" d="M681.81,-347.37C665.49,-329.05 627.18,-286.05 606.08,-262.36"/>
<polygon fill="midnightblue" stroke="midnightblue" points="608.42,-259.73 599.15,-254.59 603.19,-264.39 608.42,-259.73"/>
</g>
<!-- Node52&#45;&gt;Node5 -->
<g id="edge60" class="edge">
<title>Node52&#45;&gt;Node5</title>
<path fill="none" stroke="midnightblue" d="M658.63,-347.43C618.26,-334.5 548.55,-305.93 513.5,-255 492.17,-224.01 491.25,-178.07 492.71,-152.64"/>
<polygon fill="midnightblue" stroke="midnightblue" points="496.21,-152.76 493.49,-142.53 489.23,-152.23 496.21,-152.76"/>
</g>
<!-- Node52&#45;&gt;Node25 -->
<g id="edge62" class="edge">
<title>Node52&#45;&gt;Node25</title>
<path fill="none" stroke="midnightblue" d="M691.07,-347.37C694.3,-329.62 701.74,-288.67 706.12,-264.6"/>
<polygon fill="midnightblue" stroke="midnightblue" points="709.59,-265.06 707.94,-254.59 702.71,-263.8 709.59,-265.06"/>
</g>
</g>
</svg>
