<?xml version="1.0" encoding="UTF-8" standalone="no"?>
<!DOCTYPE svg PUBLIC "-//W3C//DTD SVG 1.1//EN"
 "http://www.w3.org/Graphics/SVG/1.1/DTD/svg11.dtd">
<!-- Generated by graphviz version 2.43.0 (0)
 -->
<!-- Title: ROOTHitManager.hh Pages: 1 -->
<svg width="264pt" height="192pt"
 viewBox="0.00 0.00 263.50 192.00" xmlns="http://www.w3.org/2000/svg" xmlns:xlink="http://www.w3.org/1999/xlink">
<g id="graph0" class="graph" transform="scale(1 1) rotate(0) translate(4 188)">
<title>ROOTHitManager.hh</title>
<!-- Node1 -->
<g id="Node000001" class="node">
<title>Node1</title>
<g id="a_Node000001"><a xlink:title="ROOT&#45;based output manager for WavePID photon hit data.">
<polygon fill="#999999" stroke="#666666" points="187.5,-184 71.5,-184 71.5,-165 187.5,-165 187.5,-184"/>
<text text-anchor="middle" x="129.5" y="-172" font-family="Helvetica,sans-Serif" font-size="10.00">ROOTHitManager.hh</text>
</a>
</g>
</g>
<!-- Node2 -->
<g id="Node000002" class="node">
<title>Node2</title>
<g id="a_Node000002"><a xlink:href="simulations_2wavepid_2include_2_o_m_sim_hit_manager_8hh.html" target="_top" xlink:title="Enhanced hit manager for WavePID with photon origin tracking.">
<polygon fill="white" stroke="#666666" points="123,-129 0,-129 0,-110 123,-110 123,-129"/>
<text text-anchor="middle" x="61.5" y="-117" font-family="Helvetica,sans-Serif" font-size="10.00">OMSimHitManager.hh</text>
</a>
</g>
</g>
<!-- Node1&#45;&gt;Node2 -->
<g id="edge1_Node000001_Node000002" class="edge">
<title>Node1&#45;&gt;Node2</title>
<g id="a_edge1_Node000001_Node000002"><a xlink:title=" ">
<path fill="none" stroke="#63b8ff" d="M110.38,-158.6C98.2,-149.11 82.84,-137.13 72.62,-129.17"/>
<polygon fill="#63b8ff" stroke="#63b8ff" points="108.54,-161.6 118.57,-164.98 112.84,-156.08 108.54,-161.6"/>
</a>
</g>
</g>
<!-- Node5 -->
<g id="Node000005" class="node">
<title>Node5</title>
<g id="a_Node000005"><a xlink:href="_r_o_o_t_hit_manager_8cc.html" target="_top" xlink:title="Implementation of ROOT&#45;based output manager for WavePID.">
<polygon fill="white" stroke="#666666" points="255.5,-129 141.5,-129 141.5,-110 255.5,-110 255.5,-129"/>
<text text-anchor="middle" x="198.5" y="-117" font-family="Helvetica,sans-Serif" font-size="10.00">ROOTHitManager.cc</text>
</a>
</g>
</g>
<!-- Node1&#45;&gt;Node5 -->
<g id="edge4_Node000001_Node000005" class="edge">
<title>Node1&#45;&gt;Node5</title>
<g id="a_edge4_Node000001_Node000005"><a xlink:title=" ">
<path fill="none" stroke="#63b8ff" d="M148.54,-158.88C160.96,-149.34 176.74,-137.21 187.21,-129.17"/>
<polygon fill="#63b8ff" stroke="#63b8ff" points="146.38,-156.12 140.59,-164.98 150.65,-161.67 146.38,-156.12"/>
</a>
</g>
</g>
<!-- Node3 -->
<g id="Node000003" class="node">
<title>Node3</title>
<g id="a_Node000003"><a xlink:href="simulations_2wavepid_2include_2_o_m_sim_run_action_8hh.html" target="_top" xlink:title="Run action for WavePID simulation.">
<polygon fill="white" stroke="#666666" points="119.5,-74 3.5,-74 3.5,-55 119.5,-55 119.5,-74"/>
<text text-anchor="middle" x="61.5" y="-62" font-family="Helvetica,sans-Serif" font-size="10.00">OMSimRunAction.hh</text>
</a>
</g>
</g>
<!-- Node2&#45;&gt;Node3 -->
<g id="edge2_Node000002_Node000003" class="edge">
<title>Node2&#45;&gt;Node3</title>
<g id="a_edge2_Node000002_Node000003"><a xlink:title=" ">
<path fill="none" stroke="#63b8ff" d="M61.5,-99.66C61.5,-90.93 61.5,-80.99 61.5,-74.09"/>
<polygon fill="#63b8ff" stroke="#63b8ff" points="58,-99.75 61.5,-109.75 65,-99.75 58,-99.75"/>
</a>
</g>
</g>
<!-- Node4 -->
<g id="Node000004" class="node">
<title>Node4</title>
<g id="a_Node000004"><a xlink:href="simulations_2wavepid_2include_2_o_m_sim_8hh.html" target="_top" xlink:title="Main simulation class for the Optical Module (OM) simulation.">
<polygon fill="white" stroke="#666666" points="95,-19 28,-19 28,0 95,0 95,-19"/>
<text text-anchor="middle" x="61.5" y="-7" font-family="Helvetica,sans-Serif" font-size="10.00">OMSim.hh</text>
</a>
</g>
</g>
<!-- Node3&#45;&gt;Node4 -->
<g id="edge3_Node000003_Node000004" class="edge">
<title>Node3&#45;&gt;Node4</title>
<g id="a_edge3_Node000003_Node000004"><a xlink:title=" ">
<path fill="none" stroke="#63b8ff" d="M61.5,-44.66C61.5,-35.93 61.5,-25.99 61.5,-19.09"/>
<polygon fill="#63b8ff" stroke="#63b8ff" points="58,-44.75 61.5,-54.75 65,-44.75 58,-44.75"/>
</a>
</g>
</g>
</g>
</svg>
