<?xml version="1.0" encoding="UTF-8" standalone="no"?>
<!DOCTYPE svg PUBLIC "-//W3C//DTD SVG 1.1//EN"
 "http://www.w3.org/Graphics/SVG/1.1/DTD/svg11.dtd">
<!-- Generated by graphviz version 2.43.0 (0)
 -->
<!-- Title: ROOTHitManager.cc Pages: 1 -->
<svg width="852pt" height="148pt"
 viewBox="0.00 0.00 851.50 148.00" xmlns="http://www.w3.org/2000/svg" xmlns:xlink="http://www.w3.org/1999/xlink">
<g id="graph0" class="graph" transform="scale(1 1) rotate(0) translate(4 144)">
<title>ROOTHitManager.cc</title>
<!-- Node1 -->
<g id="Node000001" class="node">
<title>Node1</title>
<g id="a_Node000001"><a xlink:title="Implementation of ROOT&#45;based output manager for WavePID.">
<polygon fill="#999999" stroke="#666666" points="652.5,-140 538.5,-140 538.5,-121 652.5,-121 652.5,-140"/>
<text text-anchor="middle" x="595.5" y="-128" font-family="Helvetica,sans-Serif" font-size="10.00">ROOTHitManager.cc</text>
</a>
</g>
</g>
<!-- Node2 -->
<g id="Node000002" class="node">
<title>Node2</title>
<g id="a_Node000002"><a xlink:href="_r_o_o_t_hit_manager_8hh.html" target="_top" xlink:title="ROOT&#45;based output manager for WavePID photon hit data.">
<polygon fill="white" stroke="#666666" points="285.5,-85 169.5,-85 169.5,-66 285.5,-66 285.5,-85"/>
<text text-anchor="middle" x="227.5" y="-73" font-family="Helvetica,sans-Serif" font-size="10.00">ROOTHitManager.hh</text>
</a>
</g>
</g>
<!-- Node1&#45;&gt;Node2 -->
<g id="edge1_Node000001_Node000002" class="edge">
<title>Node1&#45;&gt;Node2</title>
<g id="a_edge1_Node000001_Node000002"><a xlink:title=" ">
<path fill="none" stroke="#63b8ff" d="M538.4,-121.28C472.88,-111.84 365.51,-96.38 295.67,-86.32"/>
<polygon fill="#63b8ff" stroke="#63b8ff" points="296.04,-82.84 285.64,-84.87 295.04,-89.76 296.04,-82.84"/>
</a>
</g>
</g>
<!-- Node8 -->
<g id="Node000008" class="node">
<title>Node8</title>
<g id="a_Node000008"><a xlink:href="_o_m_sim_logger_8hh_source.html" target="_top" xlink:title=" ">
<polygon fill="white" stroke="#666666" points="645,-85 546,-85 546,-66 645,-66 645,-85"/>
<text text-anchor="middle" x="595.5" y="-73" font-family="Helvetica,sans-Serif" font-size="10.00">OMSimLogger.hh</text>
</a>
</g>
</g>
<!-- Node1&#45;&gt;Node8 -->
<g id="edge7_Node000001_Node000008" class="edge">
<title>Node1&#45;&gt;Node8</title>
<g id="a_edge7_Node000001_Node000008"><a xlink:title=" ">
<path fill="none" stroke="#63b8ff" d="M595.5,-120.75C595.5,-113.8 595.5,-103.85 595.5,-95.13"/>
<polygon fill="#63b8ff" stroke="#63b8ff" points="599,-95.09 595.5,-85.09 592,-95.09 599,-95.09"/>
</a>
</g>
</g>
<!-- Node13 -->
<g id="Node000013" class="node">
<title>Node13</title>
<g id="a_Node000013"><a xlink:title=" ">
<polygon fill="#e0e0e0" stroke="#999999" points="728,-85 663,-85 663,-66 728,-66 728,-85"/>
<text text-anchor="middle" x="695.5" y="-73" font-family="Helvetica,sans-Serif" font-size="10.00">stdexcept</text>
</a>
</g>
</g>
<!-- Node1&#45;&gt;Node13 -->
<g id="edge12_Node000001_Node000013" class="edge">
<title>Node1&#45;&gt;Node13</title>
<g id="a_edge12_Node000001_Node000013"><a xlink:title=" ">
<path fill="none" stroke="#63b8ff" d="M611.57,-120.98C627.36,-112.61 651.72,-99.7 670.13,-89.95"/>
<polygon fill="#63b8ff" stroke="#63b8ff" points="671.94,-92.95 679.14,-85.17 668.67,-86.76 671.94,-92.95"/>
</a>
</g>
</g>
<!-- Node3 -->
<g id="Node000003" class="node">
<title>Node3</title>
<g id="a_Node000003"><a xlink:title=" ">
<polygon fill="#e0e0e0" stroke="#999999" points="49,-24.5 0,-24.5 0,-5.5 49,-5.5 49,-24.5"/>
<text text-anchor="middle" x="24.5" y="-12.5" font-family="Helvetica,sans-Serif" font-size="10.00">TFile.h</text>
</a>
</g>
</g>
<!-- Node2&#45;&gt;Node3 -->
<g id="edge2_Node000002_Node000003" class="edge">
<title>Node2&#45;&gt;Node3</title>
<g id="a_edge2_Node000002_Node000003"><a xlink:title=" ">
<path fill="none" stroke="#63b8ff" d="M189.15,-65.94C154.61,-57.87 102.65,-44.83 58.5,-30 56.88,-29.46 55.22,-28.87 53.56,-28.26"/>
<polygon fill="#63b8ff" stroke="#63b8ff" points="54.7,-24.95 44.11,-24.59 52.16,-31.47 54.7,-24.95"/>
</a>
</g>
</g>
<!-- Node4 -->
<g id="Node000004" class="node">
<title>Node4</title>
<g id="a_Node000004"><a xlink:title=" ">
<polygon fill="#e0e0e0" stroke="#999999" points="119.5,-24.5 67.5,-24.5 67.5,-5.5 119.5,-5.5 119.5,-24.5"/>
<text text-anchor="middle" x="93.5" y="-12.5" font-family="Helvetica,sans-Serif" font-size="10.00">TTree.h</text>
</a>
</g>
</g>
<!-- Node2&#45;&gt;Node4 -->
<g id="edge3_Node000002_Node000004" class="edge">
<title>Node2&#45;&gt;Node4</title>
<g id="a_edge3_Node000002_Node000004"><a xlink:title=" ">
<path fill="none" stroke="#63b8ff" d="M208.02,-65.99C185.49,-56.16 148.19,-39.88 122.31,-28.58"/>
<polygon fill="#63b8ff" stroke="#63b8ff" points="123.57,-25.31 113.01,-24.52 120.77,-31.73 123.57,-25.31"/>
</a>
</g>
</g>
<!-- Node5 -->
<g id="Node000005" class="node">
<title>Node5</title>
<g id="a_Node000005"><a xlink:title=" ">
<polygon fill="#e0e0e0" stroke="#999999" points="211,-24.5 138,-24.5 138,-5.5 211,-5.5 211,-24.5"/>
<text text-anchor="middle" x="174.5" y="-12.5" font-family="Helvetica,sans-Serif" font-size="10.00">G4Types.hh</text>
</a>
</g>
</g>
<!-- Node2&#45;&gt;Node5 -->
<g id="edge4_Node000002_Node000005" class="edge">
<title>Node2&#45;&gt;Node5</title>
<g id="a_edge4_Node000002_Node000005"><a xlink:title=" ">
<path fill="none" stroke="#63b8ff" d="M219.68,-65.87C211.69,-57.05 199.11,-43.16 189.24,-32.27"/>
<polygon fill="#63b8ff" stroke="#63b8ff" points="191.66,-29.73 182.35,-24.67 186.47,-34.43 191.66,-29.73"/>
</a>
</g>
</g>
<!-- Node6 -->
<g id="Node000006" class="node">
<title>Node6</title>
<g id="a_Node000006"><a xlink:title=" ">
<polygon fill="#e0e0e0" stroke="#999999" points="332,-24.5 229,-24.5 229,-5.5 332,-5.5 332,-24.5"/>
<text text-anchor="middle" x="280.5" y="-12.5" font-family="Helvetica,sans-Serif" font-size="10.00">G4ThreeVector.hh</text>
</a>
</g>
</g>
<!-- Node2&#45;&gt;Node6 -->
<g id="edge5_Node000002_Node000006" class="edge">
<title>Node2&#45;&gt;Node6</title>
<g id="a_edge5_Node000002_Node000006"><a xlink:title=" ">
<path fill="none" stroke="#63b8ff" d="M235.32,-65.87C243.31,-57.05 255.89,-43.16 265.76,-32.27"/>
<polygon fill="#63b8ff" stroke="#63b8ff" points="268.53,-34.43 272.65,-24.67 263.34,-29.73 268.53,-34.43"/>
</a>
</g>
</g>
<!-- Node7 -->
<g id="Node000007" class="node">
<title>Node7</title>
<g id="a_Node000007"><a xlink:title=" ">
<polygon fill="#e0e0e0" stroke="#999999" points="410.5,-24.5 350.5,-24.5 350.5,-5.5 410.5,-5.5 410.5,-24.5"/>
<text text-anchor="middle" x="380.5" y="-12.5" font-family="Helvetica,sans-Serif" font-size="10.00">TString.h</text>
</a>
</g>
</g>
<!-- Node2&#45;&gt;Node7 -->
<g id="edge6_Node000002_Node000007" class="edge">
<title>Node2&#45;&gt;Node7</title>
<g id="a_edge6_Node000002_Node000007"><a xlink:title=" ">
<path fill="none" stroke="#63b8ff" d="M249.75,-65.99C275.81,-56.03 319.18,-39.45 348.77,-28.13"/>
<polygon fill="#63b8ff" stroke="#63b8ff" points="350.14,-31.36 358.23,-24.52 347.64,-24.82 350.14,-31.36"/>
</a>
</g>
</g>
<!-- Node9 -->
<g id="Node000009" class="node">
<title>Node9</title>
<g id="a_Node000009"><a xlink:title=" ">
<polygon fill="#e0e0e0" stroke="#999999" points="522,-24.5 429,-24.5 429,-5.5 522,-5.5 522,-24.5"/>
<text text-anchor="middle" x="475.5" y="-12.5" font-family="Helvetica,sans-Serif" font-size="10.00">spdlog/spdlog.h</text>
</a>
</g>
</g>
<!-- Node8&#45;&gt;Node9 -->
<g id="edge8_Node000008_Node000009" class="edge">
<title>Node8&#45;&gt;Node9</title>
<g id="a_edge8_Node000008_Node000009"><a xlink:title=" ">
<path fill="none" stroke="#63b8ff" d="M578.05,-65.99C558.14,-56.29 525.36,-40.31 502.23,-29.03"/>
<polygon fill="#63b8ff" stroke="#63b8ff" points="503.49,-25.75 492.97,-24.52 500.43,-32.04 503.49,-25.75"/>
</a>
</g>
</g>
<!-- Node10 -->
<g id="Node000010" class="node">
<title>Node10</title>
<g id="a_Node000010"><a xlink:title=" ">
<polygon fill="#e0e0e0" stroke="#999999" points="651,-30 540,-30 540,0 651,0 651,-30"/>
<text text-anchor="start" x="548" y="-18" font-family="Helvetica,sans-Serif" font-size="10.00">spdlog/sinks/stdout</text>
<text text-anchor="middle" x="595.5" y="-7" font-family="Helvetica,sans-Serif" font-size="10.00">_color_sinks.h</text>
</a>
</g>
</g>
<!-- Node8&#45;&gt;Node10 -->
<g id="edge9_Node000008_Node000010" class="edge">
<title>Node8&#45;&gt;Node10</title>
<g id="a_edge9_Node000008_Node000010"><a xlink:title=" ">
<path fill="none" stroke="#63b8ff" d="M595.5,-65.87C595.5,-59.11 595.5,-49.35 595.5,-40.26"/>
<polygon fill="#63b8ff" stroke="#63b8ff" points="599,-40.11 595.5,-30.11 592,-40.11 599,-40.11"/>
</a>
</g>
</g>
<!-- Node11 -->
<g id="Node000011" class="node">
<title>Node11</title>
<g id="a_Node000011"><a xlink:title=" ">
<polygon fill="#e0e0e0" stroke="#999999" points="727.5,-24.5 669.5,-24.5 669.5,-5.5 727.5,-5.5 727.5,-24.5"/>
<text text-anchor="middle" x="698.5" y="-12.5" font-family="Helvetica,sans-Serif" font-size="10.00">memory</text>
</a>
</g>
</g>
<!-- Node8&#45;&gt;Node11 -->
<g id="edge10_Node000008_Node000011" class="edge">
<title>Node8&#45;&gt;Node11</title>
<g id="a_edge10_Node000008_Node000011"><a xlink:title=" ">
<path fill="none" stroke="#63b8ff" d="M610.7,-65.87C627.51,-56.32 654.82,-40.81 674.52,-29.62"/>
<polygon fill="#63b8ff" stroke="#63b8ff" points="676.27,-32.65 683.24,-24.67 672.82,-26.56 676.27,-32.65"/>
</a>
</g>
</g>
<!-- Node12 -->
<g id="Node000012" class="node">
<title>Node12</title>
<g id="a_Node000012"><a xlink:title=" ">
<polygon fill="#e0e0e0" stroke="#999999" points="843.5,-24.5 745.5,-24.5 745.5,-5.5 843.5,-5.5 843.5,-24.5"/>
<text text-anchor="middle" x="794.5" y="-12.5" font-family="Helvetica,sans-Serif" font-size="10.00">spdlog/fmt/fmt.h</text>
</a>
</g>
</g>
<!-- Node8&#45;&gt;Node12 -->
<g id="edge11_Node000008_Node000012" class="edge">
<title>Node8&#45;&gt;Node12</title>
<g id="a_edge11_Node000008_Node000012"><a xlink:title=" ">
<path fill="none" stroke="#63b8ff" d="M624.44,-65.99C659.07,-55.81 717.2,-38.72 755.71,-27.4"/>
<polygon fill="#63b8ff" stroke="#63b8ff" points="756.92,-30.7 765.53,-24.52 754.95,-23.98 756.92,-30.7"/>
</a>
</g>
</g>
</g>
</svg>
