<?xml version="1.0" encoding="UTF-8" standalone="no"?>
<!DOCTYPE svg PUBLIC "-//W3C//DTD SVG 1.1//EN"
 "http://www.w3.org/Graphics/SVG/1.1/DTD/svg11.dtd">
<!-- Generated by graphviz version 2.43.0 (0)
 -->
<!-- Title: abcDetectorComponent.cc Pages: 1 -->
<svg width="1374pt" height="330pt"
 viewBox="0.00 0.00 1373.50 330.00" xmlns="http://www.w3.org/2000/svg" xmlns:xlink="http://www.w3.org/1999/xlink">
<g id="graph0" class="graph" transform="scale(1 1) rotate(0) translate(4 326)">
<title>abcDetectorComponent.cc</title>
<polygon fill="white" stroke="transparent" points="-4,4 -4,-326 1369.5,-326 1369.5,4 -4,4"/>
<!-- Node1 -->
<g id="node1" class="node">
<title>Node1</title>
<g id="a_node1"><a xlink:title=" ">
<polygon fill="#bfbfbf" stroke="black" points="800.5,-302.5 800.5,-321.5 946.5,-321.5 946.5,-302.5 800.5,-302.5"/>
<text text-anchor="middle" x="873.5" y="-309.5" font-family="Helvetica,sans-Serif" font-size="10.00">abcDetectorComponent.cc</text>
</a>
</g>
</g>
<!-- Node2 -->
<g id="node2" class="node">
<title>Node2</title>
<g id="a_node2"><a xlink:href="abc_detector_component_8hh.html" target="_top" xlink:title="Provides helper base class abcDetectorComponent for constructing and managing detector components in ...">
<polygon fill="white" stroke="black" points="382,-190.5 382,-209.5 529,-209.5 529,-190.5 382,-190.5"/>
<text text-anchor="middle" x="455.5" y="-197.5" font-family="Helvetica,sans-Serif" font-size="10.00">abcDetectorComponent.hh</text>
</a>
</g>
</g>
<!-- Node1&#45;&gt;Node2 -->
<g id="edge1" class="edge">
<title>Node1&#45;&gt;Node2</title>
<path fill="none" stroke="midnightblue" d="M800.19,-307.88C737.24,-303.41 644.85,-292.51 568.5,-266 533.52,-253.85 497.09,-230.68 475.36,-215.54"/>
<polygon fill="midnightblue" stroke="midnightblue" points="477.17,-212.53 466.99,-209.59 473.12,-218.24 477.17,-212.53"/>
</g>
<!-- Node4 -->
<g id="node4" class="node">
<title>Node4</title>
<g id="a_node4"><a xlink:href="_o_m_sim_logger_8hh.html" target="_top" xlink:title=" ">
<polygon fill="white" stroke="black" points="1009,-73 1009,-92 1108,-92 1108,-73 1009,-73"/>
<text text-anchor="middle" x="1058.5" y="-80" font-family="Helvetica,sans-Serif" font-size="10.00">OMSimLogger.hh</text>
</a>
</g>
</g>
<!-- Node1&#45;&gt;Node4 -->
<g id="edge26" class="edge">
<title>Node1&#45;&gt;Node4</title>
<path fill="none" stroke="midnightblue" d="M891.12,-302.48C906.26,-294.54 928.04,-281.6 943.5,-266 994.62,-214.41 1034.29,-136.25 1050.51,-101.38"/>
<polygon fill="midnightblue" stroke="midnightblue" points="1053.82,-102.58 1054.78,-92.03 1047.45,-99.67 1053.82,-102.58"/>
</g>
<!-- Node10 -->
<g id="node10" class="node">
<title>Node10</title>
<g id="a_node10"><a xlink:title=" ">
<polygon fill="white" stroke="#bfbfbf" points="872,-73 872,-92 991,-92 991,-73 872,-73"/>
<text text-anchor="middle" x="931.5" y="-80" font-family="Helvetica,sans-Serif" font-size="10.00">G4SystemOfUnits.hh</text>
</a>
</g>
</g>
<!-- Node1&#45;&gt;Node10 -->
<g id="edge34" class="edge">
<title>Node1&#45;&gt;Node10</title>
<path fill="none" stroke="midnightblue" d="M884.22,-302.37C903.07,-286.44 941.68,-250.34 957.5,-210 969.84,-178.53 969.21,-166.66 960.5,-134 957.3,-121.98 950.48,-109.86 944.25,-100.5"/>
<polygon fill="midnightblue" stroke="midnightblue" points="947.01,-98.33 938.39,-92.17 941.29,-102.36 947.01,-98.33"/>
</g>
<!-- Node12 -->
<g id="node12" class="node">
<title>Node12</title>
<g id="a_node12"><a xlink:title=" ">
<polygon fill="white" stroke="#bfbfbf" points="0,-134.5 0,-153.5 107,-153.5 107,-134.5 0,-134.5"/>
<text text-anchor="middle" x="53.5" y="-141.5" font-family="Helvetica,sans-Serif" font-size="10.00">G4Transform3D.hh</text>
</a>
</g>
</g>
<!-- Node1&#45;&gt;Node12 -->
<g id="edge35" class="edge">
<title>Node1&#45;&gt;Node12</title>
<path fill="none" stroke="midnightblue" d="M800.48,-304.32C729.18,-297.18 617.82,-284.33 522.5,-266 360.29,-234.8 170.88,-180.24 91.52,-156.54"/>
<polygon fill="midnightblue" stroke="midnightblue" points="92.09,-153.06 81.5,-153.54 90.08,-159.76 92.09,-153.06"/>
</g>
<!-- Node15 -->
<g id="node15" class="node">
<title>Node15</title>
<g id="a_node15"><a xlink:title=" ">
<polygon fill="white" stroke="#bfbfbf" points="527.5,-134.5 527.5,-153.5 637.5,-153.5 637.5,-134.5 527.5,-134.5"/>
<text text-anchor="middle" x="582.5" y="-141.5" font-family="Helvetica,sans-Serif" font-size="10.00">G4PVPlacement.hh</text>
</a>
</g>
</g>
<!-- Node1&#45;&gt;Node15 -->
<g id="edge33" class="edge">
<title>Node1&#45;&gt;Node15</title>
<path fill="none" stroke="midnightblue" d="M800.45,-305.06C758.27,-299.32 705.27,-288.07 662.5,-266 629.79,-249.12 620.93,-241.25 601.5,-210 592.67,-195.8 587.79,-177.32 585.19,-163.7"/>
<polygon fill="midnightblue" stroke="midnightblue" points="588.61,-162.89 583.51,-153.6 581.7,-164.04 588.61,-162.89"/>
</g>
<!-- Node16 -->
<g id="node16" class="node">
<title>Node16</title>
<g id="a_node16"><a xlink:href="_o_m_sim_p_m_t_construction_8hh.html" target="_top" xlink:title="Construction of the PMTs.">
<polygon fill="white" stroke="black" points="671,-246.5 671,-265.5 820,-265.5 820,-246.5 671,-246.5"/>
<text text-anchor="middle" x="745.5" y="-253.5" font-family="Helvetica,sans-Serif" font-size="10.00">OMSimPMTConstruction.hh</text>
</a>
</g>
</g>
<!-- Node1&#45;&gt;Node16 -->
<g id="edge15" class="edge">
<title>Node1&#45;&gt;Node16</title>
<path fill="none" stroke="midnightblue" d="M853.22,-302.44C832.15,-293.56 798.98,-279.56 775.01,-269.45"/>
<polygon fill="midnightblue" stroke="midnightblue" points="776.26,-266.18 765.69,-265.52 773.54,-272.63 776.26,-266.18"/>
</g>
<!-- Node24 -->
<g id="node24" class="node">
<title>Node24</title>
<g id="a_node24"><a xlink:href="_o_m_sim_command_args_table_8hh.html" target="_top" xlink:title="Definition of the OMSimCommandArgsTable singleton class, which controls user args.">
<polygon fill="white" stroke="black" points="1067.5,-246.5 1067.5,-265.5 1231.5,-265.5 1231.5,-246.5 1067.5,-246.5"/>
<text text-anchor="middle" x="1149.5" y="-253.5" font-family="Helvetica,sans-Serif" font-size="10.00">OMSimCommandArgsTable.hh</text>
</a>
</g>
</g>
<!-- Node1&#45;&gt;Node24 -->
<g id="edge27" class="edge">
<title>Node1&#45;&gt;Node24</title>
<path fill="none" stroke="midnightblue" d="M917.23,-302.44C965.68,-292.96 1043.83,-277.67 1095.92,-267.48"/>
<polygon fill="midnightblue" stroke="midnightblue" points="1096.83,-270.87 1105.97,-265.52 1095.49,-264 1096.83,-270.87"/>
</g>
<!-- Node28 -->
<g id="node28" class="node">
<title>Node28</title>
<g id="a_node28"><a xlink:title=" ">
<polygon fill="white" stroke="#bfbfbf" points="1249.5,-246.5 1249.5,-265.5 1365.5,-265.5 1365.5,-246.5 1249.5,-246.5"/>
<text text-anchor="middle" x="1307.5" y="-253.5" font-family="Helvetica,sans-Serif" font-size="10.00">G4LogicalVolume.hh</text>
</a>
</g>
</g>
<!-- Node1&#45;&gt;Node28 -->
<g id="edge32" class="edge">
<title>Node1&#45;&gt;Node28</title>
<path fill="none" stroke="midnightblue" d="M944.92,-302.49C1016.65,-293.89 1130.67,-280.06 1239.25,-266.15"/>
<polygon fill="midnightblue" stroke="midnightblue" points="1239.93,-269.59 1249.4,-264.85 1239.04,-262.65 1239.93,-269.59"/>
</g>
<!-- Node3 -->
<g id="node3" class="node">
<title>Node3</title>
<g id="a_node3"><a xlink:href="_o_m_sim_input_data_8hh.html" target="_top" xlink:title="Definition of ParameterTable and InputDataManager.">
<polygon fill="white" stroke="black" points="268,-134.5 268,-153.5 383,-153.5 383,-134.5 268,-134.5"/>
<text text-anchor="middle" x="325.5" y="-141.5" font-family="Helvetica,sans-Serif" font-size="10.00">OMSimInputData.hh</text>
</a>
</g>
</g>
<!-- Node2&#45;&gt;Node3 -->
<g id="edge2" class="edge">
<title>Node2&#45;&gt;Node3</title>
<path fill="none" stroke="midnightblue" d="M434.9,-190.44C413.51,-181.56 379.82,-167.56 355.48,-157.45"/>
<polygon fill="midnightblue" stroke="midnightblue" points="356.58,-154.12 346,-153.52 353.89,-160.58 356.58,-154.12"/>
</g>
<!-- Node2&#45;&gt;Node12 -->
<g id="edge11" class="edge">
<title>Node2&#45;&gt;Node12</title>
<path fill="none" stroke="midnightblue" d="M389.33,-190.49C323,-181.91 217.66,-168.12 117.27,-154.23"/>
<polygon fill="midnightblue" stroke="midnightblue" points="117.65,-150.75 107.26,-152.85 116.69,-157.69 117.65,-150.75"/>
</g>
<!-- Node13 -->
<g id="node13" class="node">
<title>Node13</title>
<g id="a_node13"><a xlink:title=" ">
<polygon fill="white" stroke="#bfbfbf" points="401.5,-134.5 401.5,-153.5 509.5,-153.5 509.5,-134.5 401.5,-134.5"/>
<text text-anchor="middle" x="455.5" y="-141.5" font-family="Helvetica,sans-Serif" font-size="10.00">G4VisAttributes.hh</text>
</a>
</g>
</g>
<!-- Node2&#45;&gt;Node13 -->
<g id="edge12" class="edge">
<title>Node2&#45;&gt;Node13</title>
<path fill="none" stroke="midnightblue" d="M455.5,-190.08C455.5,-183.01 455.5,-172.86 455.5,-163.99"/>
<polygon fill="midnightblue" stroke="midnightblue" points="459,-163.75 455.5,-153.75 452,-163.75 459,-163.75"/>
</g>
<!-- Node14 -->
<g id="node14" class="node">
<title>Node14</title>
<g id="a_node14"><a xlink:title=" ">
<polygon fill="white" stroke="#bfbfbf" points="125,-134.5 125,-153.5 250,-153.5 250,-134.5 125,-134.5"/>
<text text-anchor="middle" x="187.5" y="-141.5" font-family="Helvetica,sans-Serif" font-size="10.00">G4SubtractionSolid.hh</text>
</a>
</g>
</g>
<!-- Node2&#45;&gt;Node14 -->
<g id="edge13" class="edge">
<title>Node2&#45;&gt;Node14</title>
<path fill="none" stroke="midnightblue" d="M413.03,-190.44C366.09,-180.98 290.42,-165.74 239.85,-155.55"/>
<polygon fill="midnightblue" stroke="midnightblue" points="240.26,-152.06 229.77,-153.52 238.88,-158.92 240.26,-152.06"/>
</g>
<!-- Node2&#45;&gt;Node15 -->
<g id="edge14" class="edge">
<title>Node2&#45;&gt;Node15</title>
<path fill="none" stroke="midnightblue" d="M475.62,-190.44C496.52,-181.56 529.43,-167.56 553.22,-157.45"/>
<polygon fill="midnightblue" stroke="midnightblue" points="554.64,-160.65 562.47,-153.52 551.9,-154.21 554.64,-160.65"/>
</g>
<!-- Node3&#45;&gt;Node4 -->
<g id="edge3" class="edge">
<title>Node3&#45;&gt;Node4</title>
<path fill="none" stroke="midnightblue" d="M383.21,-134.97C386.35,-134.62 389.46,-134.29 392.5,-134 661.94,-107.96 732.93,-139 1000.5,-98 1006.48,-97.08 1012.75,-95.83 1018.85,-94.45"/>
<polygon fill="midnightblue" stroke="midnightblue" points="1020.01,-97.77 1028.91,-92.02 1018.37,-90.96 1020.01,-97.77"/>
</g>
<!-- Node9 -->
<g id="node9" class="node">
<title>Node9</title>
<g id="a_node9"><a xlink:title=" ">
<polygon fill="white" stroke="#bfbfbf" points="181,-73 181,-92 324,-92 324,-73 181,-73"/>
<text text-anchor="middle" x="252.5" y="-80" font-family="Helvetica,sans-Serif" font-size="10.00">G4OpBoundaryProcess.hh</text>
</a>
</g>
</g>
<!-- Node3&#45;&gt;Node9 -->
<g id="edge8" class="edge">
<title>Node3&#45;&gt;Node9</title>
<path fill="none" stroke="midnightblue" d="M315.04,-134.48C303.55,-125.11 284.87,-109.88 270.91,-98.51"/>
<polygon fill="midnightblue" stroke="midnightblue" points="272.9,-95.61 262.94,-92.01 268.48,-101.04 272.9,-95.61"/>
</g>
<!-- Node3&#45;&gt;Node10 -->
<g id="edge9" class="edge">
<title>Node3&#45;&gt;Node10</title>
<path fill="none" stroke="midnightblue" d="M383.23,-135.1C386.36,-134.71 389.47,-134.35 392.5,-134 560.65,-114.84 758.92,-97.65 861.75,-89.14"/>
<polygon fill="midnightblue" stroke="midnightblue" points="862.32,-92.6 872,-88.29 861.75,-85.62 862.32,-92.6"/>
</g>
<!-- Node11 -->
<g id="node11" class="node">
<title>Node11</title>
<g id="a_node11"><a xlink:title=" ">
<polygon fill="white" stroke="#bfbfbf" points="342,-67.5 342,-97.5 455,-97.5 455,-67.5 342,-67.5"/>
<text text-anchor="start" x="350" y="-85.5" font-family="Helvetica,sans-Serif" font-size="10.00">boost/property_tree</text>
<text text-anchor="middle" x="398.5" y="-74.5" font-family="Helvetica,sans-Serif" font-size="10.00">/json_parser.hpp</text>
</a>
</g>
</g>
<!-- Node3&#45;&gt;Node11 -->
<g id="edge10" class="edge">
<title>Node3&#45;&gt;Node11</title>
<path fill="none" stroke="midnightblue" d="M335.96,-134.48C345.66,-126.57 360.49,-114.48 373.27,-104.07"/>
<polygon fill="midnightblue" stroke="midnightblue" points="375.76,-106.55 381.3,-97.52 371.33,-101.13 375.76,-106.55"/>
</g>
<!-- Node5 -->
<g id="node5" class="node">
<title>Node5</title>
<g id="a_node5"><a xlink:title=" ">
<polygon fill="white" stroke="#bfbfbf" points="840,-6 840,-25 933,-25 933,-6 840,-6"/>
<text text-anchor="middle" x="886.5" y="-13" font-family="Helvetica,sans-Serif" font-size="10.00">spdlog/spdlog.h</text>
</a>
</g>
</g>
<!-- Node4&#45;&gt;Node5 -->
<g id="edge4" class="edge">
<title>Node4&#45;&gt;Node5</title>
<path fill="none" stroke="midnightblue" d="M1035.66,-72.87C1005.63,-61.52 952.72,-41.52 918.66,-28.65"/>
<polygon fill="midnightblue" stroke="midnightblue" points="919.75,-25.32 909.16,-25.06 917.28,-31.87 919.75,-25.32"/>
</g>
<!-- Node6 -->
<g id="node6" class="node">
<title>Node6</title>
<g id="a_node6"><a xlink:title=" ">
<polygon fill="white" stroke="#bfbfbf" points="951,-0.5 951,-30.5 1062,-30.5 1062,-0.5 951,-0.5"/>
<text text-anchor="start" x="959" y="-18.5" font-family="Helvetica,sans-Serif" font-size="10.00">spdlog/sinks/stdout</text>
<text text-anchor="middle" x="1006.5" y="-7.5" font-family="Helvetica,sans-Serif" font-size="10.00">_color_sinks.h</text>
</a>
</g>
</g>
<!-- Node4&#45;&gt;Node6 -->
<g id="edge5" class="edge">
<title>Node4&#45;&gt;Node6</title>
<path fill="none" stroke="midnightblue" d="M1051.49,-72.73C1044.53,-64.03 1033.58,-50.34 1024.22,-38.65"/>
<polygon fill="midnightblue" stroke="midnightblue" points="1026.75,-36.21 1017.77,-30.59 1021.29,-40.58 1026.75,-36.21"/>
</g>
<!-- Node7 -->
<g id="node7" class="node">
<title>Node7</title>
<g id="a_node7"><a xlink:title=" ">
<polygon fill="white" stroke="#bfbfbf" points="1080.5,-6 1080.5,-25 1138.5,-25 1138.5,-6 1080.5,-6"/>
<text text-anchor="middle" x="1109.5" y="-13" font-family="Helvetica,sans-Serif" font-size="10.00">memory</text>
</a>
</g>
</g>
<!-- Node4&#45;&gt;Node7 -->
<g id="edge6" class="edge">
<title>Node4&#45;&gt;Node7</title>
<path fill="none" stroke="midnightblue" d="M1065.38,-72.73C1073.33,-62.6 1086.6,-45.69 1096.51,-33.06"/>
<polygon fill="midnightblue" stroke="midnightblue" points="1099.31,-35.16 1102.73,-25.13 1093.8,-30.83 1099.31,-35.16"/>
</g>
<!-- Node8 -->
<g id="node8" class="node">
<title>Node8</title>
<g id="a_node8"><a xlink:title=" ">
<polygon fill="white" stroke="#bfbfbf" points="1156.5,-6 1156.5,-25 1254.5,-25 1254.5,-6 1156.5,-6"/>
<text text-anchor="middle" x="1205.5" y="-13" font-family="Helvetica,sans-Serif" font-size="10.00">spdlog/fmt/fmt.h</text>
</a>
</g>
</g>
<!-- Node4&#45;&gt;Node8 -->
<g id="edge7" class="edge">
<title>Node4&#45;&gt;Node8</title>
<path fill="none" stroke="midnightblue" d="M1078.02,-72.87C1103.28,-61.7 1147.5,-42.15 1176.64,-29.26"/>
<polygon fill="midnightblue" stroke="midnightblue" points="1178.17,-32.41 1185.9,-25.17 1175.34,-26.01 1178.17,-32.41"/>
</g>
<!-- Node16&#45;&gt;Node2 -->
<g id="edge16" class="edge">
<title>Node16&#45;&gt;Node2</title>
<path fill="none" stroke="midnightblue" d="M699.55,-246.44C648.43,-236.92 565.85,-221.55 511.12,-211.36"/>
<polygon fill="midnightblue" stroke="midnightblue" points="511.71,-207.91 501.24,-209.52 510.43,-214.79 511.71,-207.91"/>
</g>
<!-- Node16&#45;&gt;Node16 -->
<g id="edge17" class="edge">
<title>Node16&#45;&gt;Node16</title>
<path fill="none" stroke="midnightblue" d="M784.95,-265.53C811.76,-268.31 838,-265.13 838,-256 838,-248.01 817.91,-244.58 794.93,-245.71"/>
<polygon fill="midnightblue" stroke="midnightblue" points="794.65,-242.22 784.95,-246.47 795.19,-249.2 794.65,-242.22"/>
</g>
<!-- Node17 -->
<g id="node17" class="node">
<title>Node17</title>
<g id="a_node17"><a xlink:href="_o_m_sim_p_m_t_response_8hh.html" target="_top" xlink:title="Provides simulation for PMT response. This class is responsible for transforming hits on photocathode...">
<polygon fill="white" stroke="black" points="813,-190.5 813,-209.5 948,-209.5 948,-190.5 813,-190.5"/>
<text text-anchor="middle" x="880.5" y="-197.5" font-family="Helvetica,sans-Serif" font-size="10.00">OMSimPMTResponse.hh</text>
</a>
</g>
</g>
<!-- Node16&#45;&gt;Node17 -->
<g id="edge18" class="edge">
<title>Node16&#45;&gt;Node17</title>
<path fill="none" stroke="midnightblue" d="M766.89,-246.44C789.21,-237.52 824.4,-223.44 849.71,-213.32"/>
<polygon fill="midnightblue" stroke="midnightblue" points="851.22,-216.48 859.21,-209.52 848.62,-209.98 851.22,-216.48"/>
</g>
<!-- Node22 -->
<g id="node22" class="node">
<title>Node22</title>
<g id="a_node22"><a xlink:title=" ">
<polygon fill="white" stroke="#bfbfbf" points="696.5,-190.5 696.5,-209.5 794.5,-209.5 794.5,-190.5 696.5,-190.5"/>
<text text-anchor="middle" x="745.5" y="-197.5" font-family="Helvetica,sans-Serif" font-size="10.00">G4UnionSolid.hh</text>
</a>
</g>
</g>
<!-- Node16&#45;&gt;Node22 -->
<g id="edge24" class="edge">
<title>Node16&#45;&gt;Node22</title>
<path fill="none" stroke="midnightblue" d="M745.5,-246.08C745.5,-239.01 745.5,-228.86 745.5,-219.99"/>
<polygon fill="midnightblue" stroke="midnightblue" points="749,-219.75 745.5,-209.75 742,-219.75 749,-219.75"/>
</g>
<!-- Node23 -->
<g id="node23" class="node">
<title>Node23</title>
<g id="a_node23"><a xlink:title=" ">
<polygon fill="white" stroke="#bfbfbf" points="611,-190.5 611,-209.5 678,-209.5 678,-190.5 611,-190.5"/>
<text text-anchor="middle" x="644.5" y="-197.5" font-family="Helvetica,sans-Serif" font-size="10.00">G4Tubs.hh</text>
</a>
</g>
</g>
<!-- Node16&#45;&gt;Node23 -->
<g id="edge25" class="edge">
<title>Node16&#45;&gt;Node23</title>
<path fill="none" stroke="midnightblue" d="M729.27,-246.32C713.15,-237.7 688.2,-224.36 669.54,-214.39"/>
<polygon fill="midnightblue" stroke="midnightblue" points="671.16,-211.28 660.69,-209.65 667.86,-217.46 671.16,-211.28"/>
</g>
<!-- Node17&#45;&gt;Node10 -->
<g id="edge19" class="edge">
<title>Node17&#45;&gt;Node10</title>
<path fill="none" stroke="midnightblue" d="M901.98,-190.36C916.89,-183.09 935.61,-171.12 944.5,-154 953.08,-137.49 947.2,-116.22 940.83,-101.38"/>
<polygon fill="midnightblue" stroke="midnightblue" points="943.96,-99.81 936.51,-92.27 937.63,-102.81 943.96,-99.81"/>
</g>
<!-- Node18 -->
<g id="node18" class="node">
<title>Node18</title>
<g id="a_node18"><a xlink:title=" ">
<polygon fill="white" stroke="#bfbfbf" points="862,-134.5 862,-153.5 935,-153.5 935,-134.5 862,-134.5"/>
<text text-anchor="middle" x="898.5" y="-141.5" font-family="Helvetica,sans-Serif" font-size="10.00">G4Types.hh</text>
</a>
</g>
</g>
<!-- Node17&#45;&gt;Node18 -->
<g id="edge20" class="edge">
<title>Node17&#45;&gt;Node18</title>
<path fill="none" stroke="midnightblue" d="M883.47,-190.08C885.88,-182.85 889.36,-172.41 892.37,-163.4"/>
<polygon fill="midnightblue" stroke="midnightblue" points="895.74,-164.34 895.58,-153.75 889.1,-162.13 895.74,-164.34"/>
</g>
<!-- Node19 -->
<g id="node19" class="node">
<title>Node19</title>
<g id="a_node19"><a xlink:title=" ">
<polygon fill="white" stroke="#bfbfbf" points="655.5,-134.5 655.5,-153.5 693.5,-153.5 693.5,-134.5 655.5,-134.5"/>
<text text-anchor="middle" x="674.5" y="-141.5" font-family="Helvetica,sans-Serif" font-size="10.00">map</text>
</a>
</g>
</g>
<!-- Node17&#45;&gt;Node19 -->
<g id="edge21" class="edge">
<title>Node17&#45;&gt;Node19</title>
<path fill="none" stroke="midnightblue" d="M843.84,-190.45C809.77,-182.35 757.42,-169.49 703.46,-154.15"/>
<polygon fill="midnightblue" stroke="midnightblue" points="704.31,-150.75 693.73,-151.36 702.38,-157.48 704.31,-150.75"/>
</g>
<!-- Node20 -->
<g id="node20" class="node">
<title>Node20</title>
<g id="a_node20"><a xlink:title=" ">
<polygon fill="white" stroke="#bfbfbf" points="712,-134.5 712,-153.5 773,-153.5 773,-134.5 712,-134.5"/>
<text text-anchor="middle" x="742.5" y="-141.5" font-family="Helvetica,sans-Serif" font-size="10.00">TGraph.h</text>
</a>
</g>
</g>
<!-- Node17&#45;&gt;Node20 -->
<g id="edge22" class="edge">
<title>Node17&#45;&gt;Node20</title>
<path fill="none" stroke="midnightblue" d="M858.63,-190.44C835.72,-181.48 799.52,-167.31 773.63,-157.18"/>
<polygon fill="midnightblue" stroke="midnightblue" points="774.85,-153.9 764.26,-153.52 772.3,-160.42 774.85,-153.9"/>
</g>
<!-- Node21 -->
<g id="node21" class="node">
<title>Node21</title>
<g id="a_node21"><a xlink:title=" ">
<polygon fill="white" stroke="#bfbfbf" points="791,-134.5 791,-153.5 844,-153.5 844,-134.5 791,-134.5"/>
<text text-anchor="middle" x="817.5" y="-141.5" font-family="Helvetica,sans-Serif" font-size="10.00">TH2D.h</text>
</a>
</g>
</g>
<!-- Node17&#45;&gt;Node21 -->
<g id="edge23" class="edge">
<title>Node17&#45;&gt;Node21</title>
<path fill="none" stroke="midnightblue" d="M870.38,-190.32C860.97,-182.26 846.76,-170.08 835.43,-160.37"/>
<polygon fill="midnightblue" stroke="midnightblue" points="837.68,-157.68 827.81,-153.83 833.12,-163 837.68,-157.68"/>
</g>
<!-- Node24&#45;&gt;Node4 -->
<g id="edge28" class="edge">
<title>Node24&#45;&gt;Node4</title>
<path fill="none" stroke="midnightblue" d="M1135.64,-246.28C1123.89,-238.21 1107.42,-225.2 1097.5,-210 1075.18,-175.8 1065.05,-128.13 1060.95,-102.16"/>
<polygon fill="midnightblue" stroke="midnightblue" points="1064.4,-101.57 1059.5,-92.18 1057.47,-102.58 1064.4,-101.57"/>
</g>
<!-- Node25 -->
<g id="node25" class="node">
<title>Node25</title>
<g id="a_node25"><a xlink:title=" ">
<polygon fill="white" stroke="#bfbfbf" points="1106,-190.5 1106,-209.5 1161,-209.5 1161,-190.5 1106,-190.5"/>
<text text-anchor="middle" x="1133.5" y="-197.5" font-family="Helvetica,sans-Serif" font-size="10.00">fstream</text>
</a>
</g>
</g>
<!-- Node24&#45;&gt;Node25 -->
<g id="edge29" class="edge">
<title>Node24&#45;&gt;Node25</title>
<path fill="none" stroke="midnightblue" d="M1146.86,-246.08C1144.71,-238.85 1141.62,-228.41 1138.95,-219.4"/>
<polygon fill="midnightblue" stroke="midnightblue" points="1142.29,-218.34 1136.09,-209.75 1135.58,-220.33 1142.29,-218.34"/>
</g>
<!-- Node26 -->
<g id="node26" class="node">
<title>Node26</title>
<g id="a_node26"><a xlink:title=" ">
<polygon fill="white" stroke="#bfbfbf" points="1179.5,-190.5 1179.5,-209.5 1263.5,-209.5 1263.5,-190.5 1179.5,-190.5"/>
<text text-anchor="middle" x="1221.5" y="-197.5" font-family="Helvetica,sans-Serif" font-size="10.00">boost/any.hpp</text>
</a>
</g>
</g>
<!-- Node24&#45;&gt;Node26 -->
<g id="edge30" class="edge">
<title>Node24&#45;&gt;Node26</title>
<path fill="none" stroke="midnightblue" d="M1161.07,-246.32C1171.92,-238.18 1188.38,-225.84 1201.38,-216.09"/>
<polygon fill="midnightblue" stroke="midnightblue" points="1203.82,-218.63 1209.72,-209.83 1199.62,-213.03 1203.82,-218.63"/>
</g>
<!-- Node27 -->
<g id="node27" class="node">
<title>Node27</title>
<g id="a_node27"><a xlink:title=" ">
<polygon fill="white" stroke="#bfbfbf" points="1281.5,-190.5 1281.5,-209.5 1349.5,-209.5 1349.5,-190.5 1281.5,-190.5"/>
<text text-anchor="middle" x="1315.5" y="-197.5" font-family="Helvetica,sans-Serif" font-size="10.00">sys/time.h</text>
</a>
</g>
</g>
<!-- Node24&#45;&gt;Node27 -->
<g id="edge31" class="edge">
<title>Node24&#45;&gt;Node27</title>
<path fill="none" stroke="midnightblue" d="M1175.8,-246.44C1203.85,-237.32 1248.44,-222.81 1279.68,-212.65"/>
<polygon fill="midnightblue" stroke="midnightblue" points="1280.89,-215.94 1289.32,-209.52 1278.73,-209.28 1280.89,-215.94"/>
</g>
</g>
</svg>
