<?xml version="1.0" encoding="UTF-8" standalone="no"?>
<!DOCTYPE svg PUBLIC "-//W3C//DTD SVG 1.1//EN"
 "http://www.w3.org/Graphics/SVG/1.1/DTD/svg11.dtd">
<!-- Generated by graphviz version 2.43.0 (0)
 -->
<!-- Title: abcDetectorComponent.cc Pages: 1 -->
<svg width="1188pt" height="263pt"
 viewBox="0.00 0.00 1187.50 263.00" xmlns="http://www.w3.org/2000/svg" xmlns:xlink="http://www.w3.org/1999/xlink">
<g id="graph0" class="graph" transform="scale(1 1) rotate(0) translate(4 259)">
<title>abcDetectorComponent.cc</title>
<polygon fill="white" stroke="transparent" points="-4,4 -4,-259 1183.5,-259 1183.5,4 -4,4"/>
<!-- Node1 -->
<g id="node1" class="node">
<title>Node1</title>
<g id="a_node1"><a xlink:title=" ">
<polygon fill="#bfbfbf" stroke="black" points="806.5,-235.5 806.5,-254.5 952.5,-254.5 952.5,-235.5 806.5,-235.5"/>
<text text-anchor="middle" x="879.5" y="-242.5" font-family="Helvetica,sans-Serif" font-size="10.00">abcDetectorComponent.cc</text>
</a>
</g>
</g>
<!-- Node2 -->
<g id="node2" class="node">
<title>Node2</title>
<g id="a_node2"><a xlink:href="abc_detector_component_8hh.html" target="_top" xlink:title="Provides helper base class abcDetectorComponent for constructing and managing detector components in ...">
<polygon fill="white" stroke="black" points="502,-123.5 502,-142.5 649,-142.5 649,-123.5 502,-123.5"/>
<text text-anchor="middle" x="575.5" y="-130.5" font-family="Helvetica,sans-Serif" font-size="10.00">abcDetectorComponent.hh</text>
</a>
</g>
</g>
<!-- Node1&#45;&gt;Node2 -->
<g id="edge1" class="edge">
<title>Node1&#45;&gt;Node2</title>
<path fill="none" stroke="midnightblue" d="M806.29,-243.2C754.73,-239.76 685.69,-229.14 632.5,-199 612.39,-187.6 595.84,-166.39 585.85,-151.3"/>
<polygon fill="midnightblue" stroke="midnightblue" points="588.81,-149.42 580.51,-142.83 582.89,-153.16 588.81,-149.42"/>
</g>
<!-- Node5 -->
<g id="node5" class="node">
<title>Node5</title>
<g id="a_node5"><a xlink:title=" ">
<polygon fill="white" stroke="#bfbfbf" points="0,-6 0,-25 119,-25 119,-6 0,-6"/>
<text text-anchor="middle" x="59.5" y="-13" font-family="Helvetica,sans-Serif" font-size="10.00">G4SystemOfUnits.hh</text>
</a>
</g>
</g>
<!-- Node1&#45;&gt;Node5 -->
<g id="edge26" class="edge">
<title>Node1&#45;&gt;Node5</title>
<path fill="none" stroke="midnightblue" d="M806.32,-243.4C673.03,-240.22 383.4,-223.7 155.5,-143 110.02,-126.9 87.13,-128.49 62.5,-87 53.23,-71.39 53.69,-50.22 55.72,-35.16"/>
<polygon fill="midnightblue" stroke="midnightblue" points="59.22,-35.48 57.44,-25.04 52.31,-34.31 59.22,-35.48"/>
</g>
<!-- Node7 -->
<g id="node7" class="node">
<title>Node7</title>
<g id="a_node7"><a xlink:title=" ">
<polygon fill="white" stroke="#bfbfbf" points="789,-67.5 789,-86.5 896,-86.5 896,-67.5 789,-67.5"/>
<text text-anchor="middle" x="842.5" y="-74.5" font-family="Helvetica,sans-Serif" font-size="10.00">G4Transform3D.hh</text>
</a>
</g>
</g>
<!-- Node1&#45;&gt;Node7 -->
<g id="edge27" class="edge">
<title>Node1&#45;&gt;Node7</title>
<path fill="none" stroke="midnightblue" d="M878.67,-235.37C876.6,-215.35 870.61,-164.33 859.5,-123 857.09,-114.03 853.56,-104.35 850.35,-96.29"/>
<polygon fill="midnightblue" stroke="midnightblue" points="853.48,-94.69 846.42,-86.79 847.01,-97.37 853.48,-94.69"/>
</g>
<!-- Node10 -->
<g id="node10" class="node">
<title>Node10</title>
<g id="a_node10"><a xlink:title=" ">
<polygon fill="white" stroke="#bfbfbf" points="914.5,-67.5 914.5,-86.5 1024.5,-86.5 1024.5,-67.5 914.5,-67.5"/>
<text text-anchor="middle" x="969.5" y="-74.5" font-family="Helvetica,sans-Serif" font-size="10.00">G4PVPlacement.hh</text>
</a>
</g>
</g>
<!-- Node1&#45;&gt;Node10 -->
<g id="edge25" class="edge">
<title>Node1&#45;&gt;Node10</title>
<path fill="none" stroke="midnightblue" d="M884.34,-235.08C898.63,-208.72 940.83,-130.88 959.92,-95.66"/>
<polygon fill="midnightblue" stroke="midnightblue" points="963.17,-97.03 964.85,-86.57 957.01,-93.69 963.17,-97.03"/>
</g>
<!-- Node11 -->
<g id="node11" class="node">
<title>Node11</title>
<g id="a_node11"><a xlink:href="_o_m_sim_p_m_t_construction_8hh.html" target="_top" xlink:title="Construction of the PMTs.">
<polygon fill="white" stroke="black" points="642,-179.5 642,-198.5 791,-198.5 791,-179.5 642,-179.5"/>
<text text-anchor="middle" x="716.5" y="-186.5" font-family="Helvetica,sans-Serif" font-size="10.00">OMSimPMTConstruction.hh</text>
</a>
</g>
</g>
<!-- Node1&#45;&gt;Node11 -->
<g id="edge10" class="edge">
<title>Node1&#45;&gt;Node11</title>
<path fill="none" stroke="midnightblue" d="M853.67,-235.44C826.25,-226.36 782.72,-211.94 752.07,-201.78"/>
<polygon fill="midnightblue" stroke="midnightblue" points="752.8,-198.34 742.21,-198.52 750.6,-204.98 752.8,-198.34"/>
</g>
<!-- Node19 -->
<g id="node19" class="node">
<title>Node19</title>
<g id="a_node19"><a xlink:href="_o_m_sim_logger_8hh.html" target="_top" xlink:title=" ">
<polygon fill="white" stroke="black" points="946,-179.5 946,-198.5 1045,-198.5 1045,-179.5 946,-179.5"/>
<text text-anchor="middle" x="995.5" y="-186.5" font-family="Helvetica,sans-Serif" font-size="10.00">OMSimLogger.hh</text>
</a>
</g>
</g>
<!-- Node1&#45;&gt;Node19 -->
<g id="edge21" class="edge">
<title>Node1&#45;&gt;Node19</title>
<path fill="none" stroke="midnightblue" d="M897.88,-235.44C916.72,-226.68 946.23,-212.94 967.88,-202.86"/>
<polygon fill="midnightblue" stroke="midnightblue" points="969.62,-205.91 977.21,-198.52 966.66,-199.56 969.62,-205.91"/>
</g>
<!-- Node22 -->
<g id="node22" class="node">
<title>Node22</title>
<g id="a_node22"><a xlink:title=" ">
<polygon fill="white" stroke="#bfbfbf" points="1063.5,-179.5 1063.5,-198.5 1179.5,-198.5 1179.5,-179.5 1063.5,-179.5"/>
<text text-anchor="middle" x="1121.5" y="-186.5" font-family="Helvetica,sans-Serif" font-size="10.00">G4LogicalVolume.hh</text>
</a>
</g>
</g>
<!-- Node1&#45;&gt;Node22 -->
<g id="edge24" class="edge">
<title>Node1&#45;&gt;Node22</title>
<path fill="none" stroke="midnightblue" d="M917.85,-235.44C959.97,-226.04 1027.71,-210.93 1073.37,-200.74"/>
<polygon fill="midnightblue" stroke="midnightblue" points="1074.34,-204.11 1083.33,-198.52 1072.81,-197.28 1074.34,-204.11"/>
</g>
<!-- Node3 -->
<g id="node3" class="node">
<title>Node3</title>
<g id="a_node3"><a xlink:href="_o_m_sim_input_data_8hh.html" target="_top" xlink:title="Definition of ParameterTable and InputDataManager.">
<polygon fill="white" stroke="black" points="656,-67.5 656,-86.5 771,-86.5 771,-67.5 656,-67.5"/>
<text text-anchor="middle" x="713.5" y="-74.5" font-family="Helvetica,sans-Serif" font-size="10.00">OMSimInputData.hh</text>
</a>
</g>
</g>
<!-- Node2&#45;&gt;Node3 -->
<g id="edge2" class="edge">
<title>Node2&#45;&gt;Node3</title>
<path fill="none" stroke="midnightblue" d="M597.37,-123.44C620.28,-114.48 656.48,-100.31 682.37,-90.18"/>
<polygon fill="midnightblue" stroke="midnightblue" points="683.7,-93.42 691.74,-86.52 681.15,-86.9 683.7,-93.42"/>
</g>
<!-- Node2&#45;&gt;Node7 -->
<g id="edge6" class="edge">
<title>Node2&#45;&gt;Node7</title>
<path fill="none" stroke="midnightblue" d="M617.81,-123.44C664.58,-113.98 739.96,-98.74 790.35,-88.55"/>
<polygon fill="midnightblue" stroke="midnightblue" points="791.28,-91.93 800.39,-86.52 789.9,-85.07 791.28,-91.93"/>
</g>
<!-- Node8 -->
<g id="node8" class="node">
<title>Node8</title>
<g id="a_node8"><a xlink:title=" ">
<polygon fill="white" stroke="#bfbfbf" points="386.5,-67.5 386.5,-86.5 494.5,-86.5 494.5,-67.5 386.5,-67.5"/>
<text text-anchor="middle" x="440.5" y="-74.5" font-family="Helvetica,sans-Serif" font-size="10.00">G4VisAttributes.hh</text>
</a>
</g>
</g>
<!-- Node2&#45;&gt;Node8 -->
<g id="edge7" class="edge">
<title>Node2&#45;&gt;Node8</title>
<path fill="none" stroke="midnightblue" d="M554.11,-123.44C531.79,-114.52 496.6,-100.44 471.29,-90.32"/>
<polygon fill="midnightblue" stroke="midnightblue" points="472.38,-86.98 461.79,-86.52 469.78,-93.48 472.38,-86.98"/>
</g>
<!-- Node9 -->
<g id="node9" class="node">
<title>Node9</title>
<g id="a_node9"><a xlink:title=" ">
<polygon fill="white" stroke="#bfbfbf" points="513,-67.5 513,-86.5 638,-86.5 638,-67.5 513,-67.5"/>
<text text-anchor="middle" x="575.5" y="-74.5" font-family="Helvetica,sans-Serif" font-size="10.00">G4SubtractionSolid.hh</text>
</a>
</g>
</g>
<!-- Node2&#45;&gt;Node9 -->
<g id="edge8" class="edge">
<title>Node2&#45;&gt;Node9</title>
<path fill="none" stroke="midnightblue" d="M575.5,-123.08C575.5,-116.01 575.5,-105.86 575.5,-96.99"/>
<polygon fill="midnightblue" stroke="midnightblue" points="579,-96.75 575.5,-86.75 572,-96.75 579,-96.75"/>
</g>
<!-- Node2&#45;&gt;Node10 -->
<g id="edge9" class="edge">
<title>Node2&#45;&gt;Node10</title>
<path fill="none" stroke="midnightblue" d="M637.96,-123.49C702.01,-114.75 804.8,-100.71 904.26,-87.03"/>
<polygon fill="midnightblue" stroke="midnightblue" points="904.75,-90.5 914.18,-85.67 903.8,-83.56 904.75,-90.5"/>
</g>
<!-- Node4 -->
<g id="node4" class="node">
<title>Node4</title>
<g id="a_node4"><a xlink:title=" ">
<polygon fill="white" stroke="#bfbfbf" points="569,-6 569,-25 712,-25 712,-6 569,-6"/>
<text text-anchor="middle" x="640.5" y="-13" font-family="Helvetica,sans-Serif" font-size="10.00">G4OpBoundaryProcess.hh</text>
</a>
</g>
</g>
<!-- Node3&#45;&gt;Node4 -->
<g id="edge3" class="edge">
<title>Node3&#45;&gt;Node4</title>
<path fill="none" stroke="midnightblue" d="M703.04,-67.48C691.55,-58.11 672.87,-42.88 658.91,-31.51"/>
<polygon fill="midnightblue" stroke="midnightblue" points="660.9,-28.61 650.94,-25.01 656.48,-34.04 660.9,-28.61"/>
</g>
<!-- Node3&#45;&gt;Node5 -->
<g id="edge4" class="edge">
<title>Node3&#45;&gt;Node5</title>
<path fill="none" stroke="midnightblue" d="M655.78,-68.07C652.64,-67.69 649.53,-67.33 646.5,-67 459.91,-46.45 239.18,-29.41 129.15,-21.41"/>
<polygon fill="midnightblue" stroke="midnightblue" points="129.4,-17.92 119.17,-20.69 128.89,-24.9 129.4,-17.92"/>
</g>
<!-- Node6 -->
<g id="node6" class="node">
<title>Node6</title>
<g id="a_node6"><a xlink:title=" ">
<polygon fill="white" stroke="#bfbfbf" points="730,-0.5 730,-30.5 843,-30.5 843,-0.5 730,-0.5"/>
<text text-anchor="start" x="738" y="-18.5" font-family="Helvetica,sans-Serif" font-size="10.00">boost/property_tree</text>
<text text-anchor="middle" x="786.5" y="-7.5" font-family="Helvetica,sans-Serif" font-size="10.00">/json_parser.hpp</text>
</a>
</g>
</g>
<!-- Node3&#45;&gt;Node6 -->
<g id="edge5" class="edge">
<title>Node3&#45;&gt;Node6</title>
<path fill="none" stroke="midnightblue" d="M723.96,-67.48C733.66,-59.57 748.49,-47.48 761.27,-37.07"/>
<polygon fill="midnightblue" stroke="midnightblue" points="763.76,-39.55 769.3,-30.52 759.33,-34.13 763.76,-39.55"/>
</g>
<!-- Node11&#45;&gt;Node2 -->
<g id="edge11" class="edge">
<title>Node11&#45;&gt;Node2</title>
<path fill="none" stroke="midnightblue" d="M694.16,-179.44C670.75,-170.48 633.76,-156.31 607.31,-146.18"/>
<polygon fill="midnightblue" stroke="midnightblue" points="608.33,-142.82 597.74,-142.52 605.82,-149.36 608.33,-142.82"/>
</g>
<!-- Node11&#45;&gt;Node11 -->
<g id="edge12" class="edge">
<title>Node11&#45;&gt;Node11</title>
<path fill="none" stroke="midnightblue" d="M755.95,-198.53C782.76,-201.31 809,-198.13 809,-189 809,-181.01 788.91,-177.58 765.93,-178.71"/>
<polygon fill="midnightblue" stroke="midnightblue" points="765.65,-175.22 755.95,-179.47 766.19,-182.2 765.65,-175.22"/>
</g>
<!-- Node12 -->
<g id="node12" class="node">
<title>Node12</title>
<g id="a_node12"><a xlink:href="_o_m_sim_p_m_t_response_8hh.html" target="_top" xlink:title="Provides simulation for PMT response. This class is responsible for transforming hits on photocathode...">
<polygon fill="white" stroke="black" points="165,-123.5 165,-142.5 300,-142.5 300,-123.5 165,-123.5"/>
<text text-anchor="middle" x="232.5" y="-130.5" font-family="Helvetica,sans-Serif" font-size="10.00">OMSimPMTResponse.hh</text>
</a>
</g>
</g>
<!-- Node11&#45;&gt;Node12 -->
<g id="edge13" class="edge">
<title>Node11&#45;&gt;Node12</title>
<path fill="none" stroke="midnightblue" d="M641.94,-179.68C551.97,-169.64 401.45,-152.85 310.13,-142.66"/>
<polygon fill="midnightblue" stroke="midnightblue" points="310.44,-139.17 300.12,-141.54 309.67,-146.13 310.44,-139.17"/>
</g>
<!-- Node17 -->
<g id="node17" class="node">
<title>Node17</title>
<g id="a_node17"><a xlink:title=" ">
<polygon fill="white" stroke="#bfbfbf" points="667.5,-123.5 667.5,-142.5 765.5,-142.5 765.5,-123.5 667.5,-123.5"/>
<text text-anchor="middle" x="716.5" y="-130.5" font-family="Helvetica,sans-Serif" font-size="10.00">G4UnionSolid.hh</text>
</a>
</g>
</g>
<!-- Node11&#45;&gt;Node17 -->
<g id="edge19" class="edge">
<title>Node11&#45;&gt;Node17</title>
<path fill="none" stroke="midnightblue" d="M716.5,-179.08C716.5,-172.01 716.5,-161.86 716.5,-152.99"/>
<polygon fill="midnightblue" stroke="midnightblue" points="720,-152.75 716.5,-142.75 713,-152.75 720,-152.75"/>
</g>
<!-- Node18 -->
<g id="node18" class="node">
<title>Node18</title>
<g id="a_node18"><a xlink:title=" ">
<polygon fill="white" stroke="#bfbfbf" points="784,-123.5 784,-142.5 851,-142.5 851,-123.5 784,-123.5"/>
<text text-anchor="middle" x="817.5" y="-130.5" font-family="Helvetica,sans-Serif" font-size="10.00">G4Tubs.hh</text>
</a>
</g>
</g>
<!-- Node11&#45;&gt;Node18 -->
<g id="edge20" class="edge">
<title>Node11&#45;&gt;Node18</title>
<path fill="none" stroke="midnightblue" d="M732.73,-179.32C748.85,-170.7 773.8,-157.36 792.46,-147.39"/>
<polygon fill="midnightblue" stroke="midnightblue" points="794.14,-150.46 801.31,-142.65 790.84,-144.28 794.14,-150.46"/>
</g>
<!-- Node12&#45;&gt;Node5 -->
<g id="edge14" class="edge">
<title>Node12&#45;&gt;Node5</title>
<path fill="none" stroke="midnightblue" d="M164.99,-127.06C134.84,-121.49 101.11,-110.09 78.5,-87 65.08,-73.3 60.89,-51.17 59.7,-35.36"/>
<polygon fill="midnightblue" stroke="midnightblue" points="63.19,-35.02 59.28,-25.18 56.2,-35.31 63.19,-35.02"/>
</g>
<!-- Node13 -->
<g id="node13" class="node">
<title>Node13</title>
<g id="a_node13"><a xlink:title=" ">
<polygon fill="white" stroke="#bfbfbf" points="88,-67.5 88,-86.5 161,-86.5 161,-67.5 88,-67.5"/>
<text text-anchor="middle" x="124.5" y="-74.5" font-family="Helvetica,sans-Serif" font-size="10.00">G4Types.hh</text>
</a>
</g>
</g>
<!-- Node12&#45;&gt;Node13 -->
<g id="edge15" class="edge">
<title>Node12&#45;&gt;Node13</title>
<path fill="none" stroke="midnightblue" d="M215.15,-123.32C197.83,-114.66 170.98,-101.24 151,-91.25"/>
<polygon fill="midnightblue" stroke="midnightblue" points="152.32,-88 141.81,-86.65 149.19,-94.26 152.32,-88"/>
</g>
<!-- Node14 -->
<g id="node14" class="node">
<title>Node14</title>
<g id="a_node14"><a xlink:title=" ">
<polygon fill="white" stroke="#bfbfbf" points="179.5,-67.5 179.5,-86.5 217.5,-86.5 217.5,-67.5 179.5,-67.5"/>
<text text-anchor="middle" x="198.5" y="-74.5" font-family="Helvetica,sans-Serif" font-size="10.00">map</text>
</a>
</g>
</g>
<!-- Node12&#45;&gt;Node14 -->
<g id="edge16" class="edge">
<title>Node12&#45;&gt;Node14</title>
<path fill="none" stroke="midnightblue" d="M226.89,-123.08C222.13,-115.53 215.18,-104.49 209.35,-95.23"/>
<polygon fill="midnightblue" stroke="midnightblue" points="212.3,-93.35 204.01,-86.75 206.38,-97.08 212.3,-93.35"/>
</g>
<!-- Node15 -->
<g id="node15" class="node">
<title>Node15</title>
<g id="a_node15"><a xlink:title=" ">
<polygon fill="white" stroke="#bfbfbf" points="236,-67.5 236,-86.5 297,-86.5 297,-67.5 236,-67.5"/>
<text text-anchor="middle" x="266.5" y="-74.5" font-family="Helvetica,sans-Serif" font-size="10.00">TGraph.h</text>
</a>
</g>
</g>
<!-- Node12&#45;&gt;Node15 -->
<g id="edge17" class="edge">
<title>Node12&#45;&gt;Node15</title>
<path fill="none" stroke="midnightblue" d="M238.11,-123.08C242.87,-115.53 249.82,-104.49 255.65,-95.23"/>
<polygon fill="midnightblue" stroke="midnightblue" points="258.62,-97.08 260.99,-86.75 252.7,-93.35 258.62,-97.08"/>
</g>
<!-- Node16 -->
<g id="node16" class="node">
<title>Node16</title>
<g id="a_node16"><a xlink:title=" ">
<polygon fill="white" stroke="#bfbfbf" points="315,-67.5 315,-86.5 368,-86.5 368,-67.5 315,-67.5"/>
<text text-anchor="middle" x="341.5" y="-74.5" font-family="Helvetica,sans-Serif" font-size="10.00">TH2D.h</text>
</a>
</g>
</g>
<!-- Node12&#45;&gt;Node16 -->
<g id="edge18" class="edge">
<title>Node12&#45;&gt;Node16</title>
<path fill="none" stroke="midnightblue" d="M250.01,-123.32C267.57,-114.62 294.83,-101.12 315.03,-91.11"/>
<polygon fill="midnightblue" stroke="midnightblue" points="316.62,-94.23 324.03,-86.65 313.52,-87.96 316.62,-94.23"/>
</g>
<!-- Node20 -->
<g id="node20" class="node">
<title>Node20</title>
<g id="a_node20"><a xlink:title=" ">
<polygon fill="white" stroke="#bfbfbf" points="958.5,-123.5 958.5,-142.5 1008.5,-142.5 1008.5,-123.5 958.5,-123.5"/>
<text text-anchor="middle" x="983.5" y="-130.5" font-family="Helvetica,sans-Serif" font-size="10.00">stdio.h</text>
</a>
</g>
</g>
<!-- Node19&#45;&gt;Node20 -->
<g id="edge22" class="edge">
<title>Node19&#45;&gt;Node20</title>
<path fill="none" stroke="midnightblue" d="M993.52,-179.08C991.93,-171.93 989.64,-161.64 987.65,-152.69"/>
<polygon fill="midnightblue" stroke="midnightblue" points="991.03,-151.75 985.44,-142.75 984.2,-153.27 991.03,-151.75"/>
</g>
<!-- Node21 -->
<g id="node21" class="node">
<title>Node21</title>
<g id="a_node21"><a xlink:title=" ">
<polygon fill="white" stroke="#bfbfbf" points="1026.5,-123.5 1026.5,-142.5 1074.5,-142.5 1074.5,-123.5 1026.5,-123.5"/>
<text text-anchor="middle" x="1050.5" y="-130.5" font-family="Helvetica,sans-Serif" font-size="10.00">time.h</text>
</a>
</g>
</g>
<!-- Node19&#45;&gt;Node21 -->
<g id="edge23" class="edge">
<title>Node19&#45;&gt;Node21</title>
<path fill="none" stroke="midnightblue" d="M1004.58,-179.08C1012.67,-171.14 1024.7,-159.34 1034.41,-149.8"/>
<polygon fill="midnightblue" stroke="midnightblue" points="1036.9,-152.25 1041.59,-142.75 1032,-147.26 1036.9,-152.25"/>
</g>
</g>
</svg>
