<?xml version="1.0" encoding="UTF-8" standalone="no"?>
<!DOCTYPE svg PUBLIC "-//W3C//DTD SVG 1.1//EN"
 "http://www.w3.org/Graphics/SVG/1.1/DTD/svg11.dtd">
<!-- Generated by graphviz version 2.43.0 (0)
 -->
<!-- Title: abcDetectorComponent.hh Pages: 1 -->
<svg width="1122pt" height="308pt"
 viewBox="0.00 0.00 1121.50 308.00" xmlns="http://www.w3.org/2000/svg" xmlns:xlink="http://www.w3.org/1999/xlink">
<g id="graph0" class="graph" transform="scale(1 1) rotate(0) translate(4 304)">
<title>abcDetectorComponent.hh</title>
<!-- Node1 -->
<g id="node1" class="node">
<title>Node1</title>
<g id="a_node1"><a xlink:title="Provides helper base class abcDetectorComponent for constructing and managing detector components in ...">
<polygon fill="#bfbfbf" stroke="black" points="422,-280.5 422,-299.5 569,-299.5 569,-280.5 422,-280.5"/>
<text text-anchor="middle" x="495.5" y="-287.5" font-family="Helvetica,sans-Serif" font-size="10.00">abcDetectorComponent.hh</text>
</a>
</g>
</g>
<!-- Node2 -->
<g id="node2" class="node">
<title>Node2</title>
<g id="a_node2"><a xlink:href="_o_m_sim_d_e_g_g_harness_8hh.html" target="_top" xlink:title="Construction of the DEGG harness.">
<polygon fill="none" stroke="black" points="170,-224.5 170,-243.5 305,-243.5 305,-224.5 170,-224.5"/>
<text text-anchor="middle" x="237.5" y="-231.5" font-family="Helvetica,sans-Serif" font-size="10.00">OMSimDEGGHarness.hh</text>
</a>
</g>
</g>
<!-- Node1&#45;&gt;Node2 -->
<g id="edge1" class="edge">
<title>Node1&#45;&gt;Node2</title>
<path fill="none" stroke="midnightblue" d="M444.6,-278.35C395.84,-268.14 323.21,-252.94 278.19,-243.52"/>
<polygon fill="midnightblue" stroke="midnightblue" points="444.11,-281.82 454.62,-280.44 445.55,-274.97 444.11,-281.82"/>
</g>
<!-- Node3 -->
<g id="node3" class="node">
<title>Node3</title>
<g id="a_node3"><a xlink:href="_o_m_sim_m_d_o_m_flasher_8hh.html" target="_top" xlink:title="Defines the mDOMFlasher class for simulating the 10 flashers in an mDOM optical module.">
<polygon fill="none" stroke="black" points="96,-168.5 96,-187.5 231,-187.5 231,-168.5 96,-168.5"/>
<text text-anchor="middle" x="163.5" y="-175.5" font-family="Helvetica,sans-Serif" font-size="10.00">OMSimMDOMFlasher.hh</text>
</a>
</g>
</g>
<!-- Node1&#45;&gt;Node3 -->
<g id="edge2" class="edge">
<title>Node1&#45;&gt;Node3</title>
<path fill="none" stroke="midnightblue" d="M452.78,-277.73C423.98,-269.61 385.38,-257.7 352.5,-244 334.88,-236.66 332.17,-231.2 314.5,-224 276.12,-208.36 230.29,-195.47 199.26,-187.55"/>
<polygon fill="midnightblue" stroke="midnightblue" points="451.96,-281.14 462.53,-280.44 453.84,-274.39 451.96,-281.14"/>
</g>
<!-- Node5 -->
<g id="node5" class="node">
<title>Node5</title>
<g id="a_node5"><a xlink:href="_o_m_sim_m_d_o_m_harness_8hh.html" target="_top" xlink:title="Construction of mDOM harness.">
<polygon fill="none" stroke="black" points="973.5,-224.5 973.5,-243.5 1113.5,-243.5 1113.5,-224.5 973.5,-224.5"/>
<text text-anchor="middle" x="1043.5" y="-231.5" font-family="Helvetica,sans-Serif" font-size="10.00">OMSimMDOMHarness.hh</text>
</a>
</g>
</g>
<!-- Node1&#45;&gt;Node5 -->
<g id="edge4" class="edge">
<title>Node1&#45;&gt;Node5</title>
<path fill="none" stroke="midnightblue" d="M579.24,-281.13C672.18,-272.34 826.6,-257.56 959.5,-244 964.02,-243.54 968.68,-243.06 973.38,-242.57"/>
<polygon fill="midnightblue" stroke="midnightblue" points="578.68,-277.67 569.05,-282.1 579.34,-284.64 578.68,-277.67"/>
</g>
<!-- Node6 -->
<g id="node6" class="node">
<title>Node6</title>
<g id="a_node6"><a xlink:href="_o_m_sim_optical_module_8hh_source.html" target="_top" xlink:title=" ">
<polygon fill="none" stroke="black" points="481,-168.5 481,-187.5 618,-187.5 618,-168.5 481,-168.5"/>
<text text-anchor="middle" x="549.5" y="-175.5" font-family="Helvetica,sans-Serif" font-size="10.00">OMSimOpticalModule.hh</text>
</a>
</g>
</g>
<!-- Node1&#45;&gt;Node6 -->
<g id="edge5" class="edge">
<title>Node1&#45;&gt;Node6</title>
<path fill="none" stroke="midnightblue" d="M514.29,-273.42C522.66,-265.47 531.89,-255.14 537.5,-244 546.79,-225.55 548.95,-200.91 549.41,-187.91"/>
<polygon fill="midnightblue" stroke="midnightblue" points="511.77,-270.98 506.66,-280.26 516.44,-276.19 511.77,-270.98"/>
</g>
<!-- Node16 -->
<g id="node16" class="node">
<title>Node16</title>
<g id="a_node16"><a xlink:href="_o_m_sim_rad_decays_detector_8hh.html" target="_top" xlink:title="Defines the OMSimRadDecaysDetector class for the radioactive decays simulation.">
<polygon fill="none" stroke="black" points="864,-56.5 864,-75.5 1027,-75.5 1027,-56.5 864,-56.5"/>
<text text-anchor="middle" x="945.5" y="-63.5" font-family="Helvetica,sans-Serif" font-size="10.00">OMSimRadDecaysDetector.hh</text>
</a>
</g>
</g>
<!-- Node1&#45;&gt;Node16 -->
<g id="edge35" class="edge">
<title>Node1&#45;&gt;Node16</title>
<path fill="none" stroke="midnightblue" d="M579.08,-280.96C676.08,-267.18 834.46,-230.22 926.5,-132 941.29,-116.21 944.64,-89.54 945.35,-75.79"/>
<polygon fill="midnightblue" stroke="midnightblue" points="578.45,-277.51 569.02,-282.34 579.4,-284.45 578.45,-277.51"/>
</g>
<!-- Node23 -->
<g id="node23" class="node">
<title>Node23</title>
<g id="a_node23"><a xlink:href="_o_m_sim_p_m_t_construction_8hh.html" target="_top" xlink:title="Construction of the PMTs.">
<polygon fill="none" stroke="black" points="361,-224.5 361,-243.5 510,-243.5 510,-224.5 361,-224.5"/>
<text text-anchor="middle" x="435.5" y="-231.5" font-family="Helvetica,sans-Serif" font-size="10.00">OMSimPMTConstruction.hh</text>
</a>
</g>
</g>
<!-- Node1&#45;&gt;Node23 -->
<g id="edge27" class="edge">
<title>Node1&#45;&gt;Node23</title>
<path fill="none" stroke="midnightblue" d="M478.32,-273.54C467.62,-263.91 454.24,-251.87 445.32,-243.83"/>
<polygon fill="midnightblue" stroke="midnightblue" points="476.09,-276.24 485.86,-280.32 480.77,-271.03 476.09,-276.24"/>
</g>
<!-- Node4 -->
<g id="node4" class="node">
<title>Node4</title>
<g id="a_node4"><a xlink:href="_o_m_sim_m_d_o_m_8hh.html" target="_top" xlink:title="Construction of mDOM.">
<polygon fill="none" stroke="black" points="85.5,-112.5 85.5,-131.5 185.5,-131.5 185.5,-112.5 85.5,-112.5"/>
<text text-anchor="middle" x="135.5" y="-119.5" font-family="Helvetica,sans-Serif" font-size="10.00">OMSimMDOM.hh</text>
</a>
</g>
</g>
<!-- Node3&#45;&gt;Node4 -->
<g id="edge3" class="edge">
<title>Node3&#45;&gt;Node4</title>
<path fill="none" stroke="midnightblue" d="M154.16,-158.98C149.41,-149.82 143.84,-139.09 140.04,-131.75"/>
<polygon fill="midnightblue" stroke="midnightblue" points="151.17,-160.82 158.88,-168.08 157.38,-157.59 151.17,-160.82"/>
</g>
<!-- Node6&#45;&gt;Node4 -->
<g id="edge22" class="edge">
<title>Node6&#45;&gt;Node4</title>
<path fill="none" stroke="midnightblue" d="M470.37,-167.55C398.37,-158.81 289.21,-145.22 194.5,-132 191.63,-131.6 188.68,-131.18 185.7,-130.75"/>
<polygon fill="midnightblue" stroke="midnightblue" points="470.36,-171.08 480.71,-168.8 471.21,-164.13 470.36,-171.08"/>
</g>
<!-- Node7 -->
<g id="node7" class="node">
<title>Node7</title>
<g id="a_node7"><a xlink:href="_o_m_sim_d_e_g_g_8hh.html" target="_top" xlink:title="Construction of the DEGG class. From DOUMEKI.">
<polygon fill="none" stroke="black" points="204,-112.5 204,-131.5 299,-131.5 299,-112.5 204,-112.5"/>
<text text-anchor="middle" x="251.5" y="-119.5" font-family="Helvetica,sans-Serif" font-size="10.00">OMSimDEGG.hh</text>
</a>
</g>
</g>
<!-- Node6&#45;&gt;Node7 -->
<g id="edge6" class="edge">
<title>Node6&#45;&gt;Node7</title>
<path fill="none" stroke="midnightblue" d="M492.11,-166.6C435.79,-156.4 350.94,-141.02 298.5,-131.52"/>
<polygon fill="midnightblue" stroke="midnightblue" points="491.82,-170.1 502.28,-168.44 493.07,-163.22 491.82,-170.1"/>
</g>
<!-- Node8 -->
<g id="node8" class="node">
<title>Node8</title>
<g id="a_node8"><a xlink:href="_o_m_sim_detector_construction_8hh_source.html" target="_top" xlink:title=" ">
<polygon fill="none" stroke="black" points="555.5,-112.5 555.5,-131.5 725.5,-131.5 725.5,-112.5 555.5,-112.5"/>
<text text-anchor="middle" x="640.5" y="-119.5" font-family="Helvetica,sans-Serif" font-size="10.00">OMSimDetectorConstruction.hh</text>
</a>
</g>
</g>
<!-- Node6&#45;&gt;Node8 -->
<g id="edge7" class="edge">
<title>Node6&#45;&gt;Node8</title>
<path fill="none" stroke="midnightblue" d="M572.79,-163.18C589.54,-153.24 611.6,-140.15 625.92,-131.65"/>
<polygon fill="midnightblue" stroke="midnightblue" points="570.93,-160.21 564.12,-168.32 574.51,-166.23 570.93,-160.21"/>
</g>
<!-- Node6&#45;&gt;Node16 -->
<g id="edge26" class="edge">
<title>Node6&#45;&gt;Node16</title>
<path fill="none" stroke="midnightblue" d="M609.1,-166.61C651.24,-158.68 708.83,-146.63 758.5,-132 782.65,-124.89 787.78,-120.45 811.5,-112 848.72,-98.73 892.12,-84.36 919.21,-75.51"/>
<polygon fill="midnightblue" stroke="midnightblue" points="608.2,-163.22 599,-168.49 609.48,-170.1 608.2,-163.22"/>
</g>
<!-- Node18 -->
<g id="node18" class="node">
<title>Node18</title>
<g id="a_node18"><a xlink:href="_o_m_sim_l_o_m16_8hh.html" target="_top" xlink:title="Construction of LOM16.">
<polygon fill="none" stroke="black" points="317,-112.5 317,-131.5 418,-131.5 418,-112.5 317,-112.5"/>
<text text-anchor="middle" x="367.5" y="-119.5" font-family="Helvetica,sans-Serif" font-size="10.00">OMSimLOM16.hh</text>
</a>
</g>
</g>
<!-- Node6&#45;&gt;Node18 -->
<g id="edge19" class="edge">
<title>Node6&#45;&gt;Node18</title>
<path fill="none" stroke="midnightblue" d="M510.97,-165.57C476.64,-155.38 427.17,-140.7 396.2,-131.52"/>
<polygon fill="midnightblue" stroke="midnightblue" points="510.08,-168.95 520.66,-168.44 512.07,-162.24 510.08,-168.95"/>
</g>
<!-- Node19 -->
<g id="node19" class="node">
<title>Node19</title>
<g id="a_node19"><a xlink:href="_o_m_sim_l_o_m18_8hh.html" target="_top" xlink:title="Construction of LOM18.">
<polygon fill="none" stroke="black" points="436,-112.5 436,-131.5 537,-131.5 537,-112.5 436,-112.5"/>
<text text-anchor="middle" x="486.5" y="-119.5" font-family="Helvetica,sans-Serif" font-size="10.00">OMSimLOM18.hh</text>
</a>
</g>
</g>
<!-- Node6&#45;&gt;Node19 -->
<g id="edge20" class="edge">
<title>Node6&#45;&gt;Node19</title>
<path fill="none" stroke="midnightblue" d="M531.46,-161.54C520.23,-151.91 506.18,-139.87 496.81,-131.83"/>
<polygon fill="midnightblue" stroke="midnightblue" points="529.51,-164.47 539.38,-168.32 534.06,-159.16 529.51,-164.47"/>
</g>
<!-- Node21 -->
<g id="node21" class="node">
<title>Node21</title>
<g id="a_node21"><a xlink:href="_o_m_sim_p_d_o_m_8hh.html" target="_top" xlink:title="Implementation of the pDOM/Gen1 DOM class.">
<polygon fill="none" stroke="black" points="820,-112.5 820,-131.5 917,-131.5 917,-112.5 820,-112.5"/>
<text text-anchor="middle" x="868.5" y="-119.5" font-family="Helvetica,sans-Serif" font-size="10.00">OMSimPDOM.hh</text>
</a>
</g>
</g>
<!-- Node6&#45;&gt;Node21 -->
<g id="edge23" class="edge">
<title>Node6&#45;&gt;Node21</title>
<path fill="none" stroke="midnightblue" d="M610.28,-166.71C671.12,-156.41 763.56,-140.76 819.76,-131.25"/>
<polygon fill="midnightblue" stroke="midnightblue" points="609.32,-163.32 600.05,-168.44 610.49,-170.23 609.32,-163.32"/>
</g>
<!-- Node22 -->
<g id="node22" class="node">
<title>Node22</title>
<g id="a_node22"><a xlink:href="_o_m_sim_decays_g_p_s_8hh.html" target="_top" xlink:title="Defines the OMSimDecaysGPS class for the radioactive decays simulation.">
<polygon fill="none" stroke="black" points="723.5,-56.5 723.5,-75.5 845.5,-75.5 845.5,-56.5 723.5,-56.5"/>
<text text-anchor="middle" x="784.5" y="-63.5" font-family="Helvetica,sans-Serif" font-size="10.00">OMSimDecaysGPS.hh</text>
</a>
</g>
</g>
<!-- Node6&#45;&gt;Node22 -->
<g id="edge24" class="edge">
<title>Node6&#45;&gt;Node22</title>
<path fill="none" stroke="midnightblue" d="M628.17,-169.76C662.94,-163.68 702.98,-152.51 734.5,-132 756.7,-117.56 773.03,-89.79 780.31,-75.68"/>
<polygon fill="midnightblue" stroke="midnightblue" points="627.35,-166.34 618.05,-171.41 628.48,-173.25 627.35,-166.34"/>
</g>
<!-- Node9 -->
<g id="node9" class="node">
<title>Node9</title>
<g id="a_node9"><a xlink:href="_o_m_sim_8hh.html" target="_top" xlink:title="Main simulation class for the Optical Module (OM) simulation. This file defines the OMSim class,...">
<polygon fill="none" stroke="black" points="638,-56.5 638,-75.5 705,-75.5 705,-56.5 638,-56.5"/>
<text text-anchor="middle" x="671.5" y="-63.5" font-family="Helvetica,sans-Serif" font-size="10.00">OMSim.hh</text>
</a>
</g>
</g>
<!-- Node8&#45;&gt;Node9 -->
<g id="edge8" class="edge">
<title>Node8&#45;&gt;Node9</title>
<path fill="none" stroke="midnightblue" d="M650.68,-103.27C655.97,-94.05 662.22,-83.17 666.48,-75.75"/>
<polygon fill="midnightblue" stroke="midnightblue" points="647.56,-101.67 645.62,-112.08 653.63,-105.15 647.56,-101.67"/>
</g>
<!-- Node14 -->
<g id="node14" class="node">
<title>Node14</title>
<g id="a_node14"><a xlink:href="effective__area_2include_2_o_m_sim_effective_area_detector_8hh.html" target="_top" xlink:title="Defines the OMSimEffectiveAreaDetector class for effective area simulation detector construction.">
<polygon fill="none" stroke="black" points="256,-56.5 256,-75.5 429,-75.5 429,-56.5 256,-56.5"/>
<text text-anchor="middle" x="342.5" y="-63.5" font-family="Helvetica,sans-Serif" font-size="10.00">OMSimEffectiveAreaDetector.hh</text>
</a>
</g>
</g>
<!-- Node8&#45;&gt;Node14 -->
<g id="edge13" class="edge">
<title>Node8&#45;&gt;Node14</title>
<path fill="none" stroke="midnightblue" d="M583.11,-110.6C526.79,-100.4 441.94,-85.02 389.5,-75.52"/>
<polygon fill="midnightblue" stroke="midnightblue" points="582.82,-114.1 593.28,-112.44 584.07,-107.22 582.82,-114.1"/>
</g>
<!-- Node15 -->
<g id="node15" class="node">
<title>Node15</title>
<g id="a_node15"><a xlink:href="efficiency__calibration_2include_2_o_m_sim_effective_area_detector_8hh.html" target="_top" xlink:title="Defines the OMSimEffectiveAreaDetector class for effective area simulation detector construction.">
<polygon fill="none" stroke="black" points="447,-56.5 447,-75.5 620,-75.5 620,-56.5 447,-56.5"/>
<text text-anchor="middle" x="533.5" y="-63.5" font-family="Helvetica,sans-Serif" font-size="10.00">OMSimEffectiveAreaDetector.hh</text>
</a>
</g>
</g>
<!-- Node8&#45;&gt;Node15 -->
<g id="edge14" class="edge">
<title>Node8&#45;&gt;Node15</title>
<path fill="none" stroke="midnightblue" d="M614.2,-107.73C594.39,-97.73 567.79,-84.31 550.65,-75.65"/>
<polygon fill="midnightblue" stroke="midnightblue" points="612.8,-110.94 623.31,-112.32 615.96,-104.69 612.8,-110.94"/>
</g>
<!-- Node8&#45;&gt;Node16 -->
<g id="edge15" class="edge">
<title>Node8&#45;&gt;Node16</title>
<path fill="none" stroke="midnightblue" d="M698.88,-110.66C756.52,-100.46 843.62,-85.04 897.4,-75.52"/>
<polygon fill="midnightblue" stroke="midnightblue" points="698.06,-107.25 688.83,-112.44 699.29,-114.15 698.06,-107.25"/>
</g>
<!-- Node17 -->
<g id="node17" class="node">
<title>Node17</title>
<g id="a_node17"><a xlink:href="_o_m_sim_s_ndetector_8hh_source.html" target="_top" xlink:title=" ">
<polygon fill="none" stroke="black" points="117.5,-56.5 117.5,-75.5 237.5,-75.5 237.5,-56.5 117.5,-56.5"/>
<text text-anchor="middle" x="177.5" y="-63.5" font-family="Helvetica,sans-Serif" font-size="10.00">OMSimSNdetector.hh</text>
</a>
</g>
</g>
<!-- Node8&#45;&gt;Node17 -->
<g id="edge17" class="edge">
<title>Node8&#45;&gt;Node17</title>
<path fill="none" stroke="midnightblue" d="M552.69,-111.38C472.81,-102.53 351.68,-88.87 246.5,-76 243.62,-75.65 240.68,-75.28 237.7,-74.91"/>
<polygon fill="midnightblue" stroke="midnightblue" points="552.38,-114.86 562.71,-112.49 553.15,-107.91 552.38,-114.86"/>
</g>
<!-- Node10 -->
<g id="node10" class="node">
<title>Node10</title>
<g id="a_node10"><a xlink:href="_o_m_sim_8cc.html" target="_top" xlink:title="Implementation of the OMSim class.">
<polygon fill="none" stroke="black" points="639,-0.5 639,-19.5 704,-19.5 704,-0.5 639,-0.5"/>
<text text-anchor="middle" x="671.5" y="-7.5" font-family="Helvetica,sans-Serif" font-size="10.00">OMSim.cc</text>
</a>
</g>
</g>
<!-- Node9&#45;&gt;Node10 -->
<g id="edge9" class="edge">
<title>Node9&#45;&gt;Node10</title>
<path fill="none" stroke="midnightblue" d="M671.5,-45.8C671.5,-36.91 671.5,-26.78 671.5,-19.75"/>
<polygon fill="midnightblue" stroke="midnightblue" points="668,-46.08 671.5,-56.08 675,-46.08 668,-46.08"/>
</g>
<!-- Node11 -->
<g id="node11" class="node">
<title>Node11</title>
<g id="a_node11"><a xlink:href="_o_m_sim__effective__area_8cc.html" target="_top" xlink:title="Main for the calculation of effective areas.">
<polygon fill="none" stroke="black" points="480.5,-0.5 480.5,-19.5 620.5,-19.5 620.5,-0.5 480.5,-0.5"/>
<text text-anchor="middle" x="550.5" y="-7.5" font-family="Helvetica,sans-Serif" font-size="10.00">OMSim_effective_area.cc</text>
</a>
</g>
</g>
<!-- Node9&#45;&gt;Node11 -->
<g id="edge10" class="edge">
<title>Node9&#45;&gt;Node11</title>
<path fill="none" stroke="midnightblue" d="M643.19,-52.37C620.53,-42.26 589.37,-28.35 569.58,-19.52"/>
<polygon fill="midnightblue" stroke="midnightblue" points="641.77,-55.56 652.33,-56.44 644.62,-49.17 641.77,-55.56"/>
</g>
<!-- Node12 -->
<g id="node12" class="node">
<title>Node12</title>
<g id="a_node12"><a xlink:href="_o_m_sim__radioactive__decays_8cc.html" target="_top" xlink:title="Main of the radioactive decay study.">
<polygon fill="none" stroke="black" points="722,-0.5 722,-19.5 887,-19.5 887,-0.5 722,-0.5"/>
<text text-anchor="middle" x="804.5" y="-7.5" font-family="Helvetica,sans-Serif" font-size="10.00">OMSim_radioactive_decays.cc</text>
</a>
</g>
</g>
<!-- Node9&#45;&gt;Node12 -->
<g id="edge11" class="edge">
<title>Node9&#45;&gt;Node12</title>
<path fill="none" stroke="midnightblue" d="M701.95,-52.64C726.91,-42.5 761.58,-28.43 783.52,-19.52"/>
<polygon fill="midnightblue" stroke="midnightblue" points="700.52,-49.44 692.57,-56.44 703.16,-55.92 700.52,-49.44"/>
</g>
<!-- Node13 -->
<g id="node13" class="node">
<title>Node13</title>
<g id="a_node13"><a xlink:href="_o_m_sim__supernova_8cc.html" target="_top" xlink:title="Main of the supernova study.">
<polygon fill="none" stroke="black" points="228.5,-0.5 228.5,-19.5 350.5,-19.5 350.5,-0.5 228.5,-0.5"/>
<text text-anchor="middle" x="289.5" y="-7.5" font-family="Helvetica,sans-Serif" font-size="10.00">OMSim_supernova.cc</text>
</a>
</g>
</g>
<!-- Node9&#45;&gt;Node13 -->
<g id="edge12" class="edge">
<title>Node9&#45;&gt;Node13</title>
<path fill="none" stroke="midnightblue" d="M627.73,-55.8C525.34,-38.34 416.62,-25.07 350.53,-17.6"/>
<polygon fill="midnightblue" stroke="midnightblue" points="627.17,-59.25 637.62,-57.5 628.36,-52.35 627.17,-59.25"/>
</g>
<!-- Node16&#45;&gt;Node12 -->
<g id="edge16" class="edge">
<title>Node16&#45;&gt;Node12</title>
<path fill="none" stroke="midnightblue" d="M913.57,-52.77C887.09,-42.63 850.11,-28.47 826.74,-19.52"/>
<polygon fill="midnightblue" stroke="midnightblue" points="912.57,-56.14 923.16,-56.44 915.07,-49.6 912.57,-56.14"/>
</g>
<!-- Node17&#45;&gt;Node13 -->
<g id="edge18" class="edge">
<title>Node17&#45;&gt;Node13</title>
<path fill="none" stroke="midnightblue" d="M204.75,-51.86C225.52,-41.85 253.52,-28.35 271.55,-19.65"/>
<polygon fill="midnightblue" stroke="midnightblue" points="202.98,-48.83 195.49,-56.32 206.02,-55.13 202.98,-48.83"/>
</g>
<!-- Node20 -->
<g id="node20" class="node">
<title>Node20</title>
<g id="a_node20"><a xlink:href="_o_m_sim_l_o_m18_8cc.html" target="_top" xlink:title=" ">
<polygon fill="none" stroke="black" points="0,-56.5 0,-75.5 99,-75.5 99,-56.5 0,-56.5"/>
<text text-anchor="middle" x="49.5" y="-63.5" font-family="Helvetica,sans-Serif" font-size="10.00">OMSimLOM18.cc</text>
</a>
</g>
</g>
<!-- Node19&#45;&gt;Node20 -->
<g id="edge21" class="edge">
<title>Node19&#45;&gt;Node20</title>
<path fill="none" stroke="midnightblue" d="M426.06,-111.85C284.39,-93.3 246.76,-94.34 108.5,-76 105.42,-75.59 102.25,-75.15 99.05,-74.7"/>
<polygon fill="midnightblue" stroke="midnightblue" points="425.62,-115.32 435.99,-113.16 426.53,-108.38 425.62,-115.32"/>
</g>
<!-- Node22&#45;&gt;Node12 -->
<g id="edge25" class="edge">
<title>Node22&#45;&gt;Node12</title>
<path fill="none" stroke="midnightblue" d="M791.28,-46.69C794.65,-37.59 798.57,-27.01 801.26,-19.75"/>
<polygon fill="midnightblue" stroke="midnightblue" points="787.99,-45.49 787.8,-56.08 794.56,-47.92 787.99,-45.49"/>
</g>
<!-- Node23&#45;&gt;Node4 -->
<g id="edge31" class="edge">
<title>Node23&#45;&gt;Node4</title>
<path fill="none" stroke="midnightblue" d="M402.4,-220.86C341.25,-198.44 211.95,-151.03 158.93,-131.59"/>
<polygon fill="midnightblue" stroke="midnightblue" points="401.37,-224.21 411.96,-224.37 403.78,-217.64 401.37,-224.21"/>
</g>
<!-- Node23&#45;&gt;Node6 -->
<g id="edge32" class="edge">
<title>Node23&#45;&gt;Node6</title>
<path fill="none" stroke="midnightblue" d="M462.74,-220.1C484.04,-210.01 513.04,-196.27 531.52,-187.52"/>
<polygon fill="midnightblue" stroke="midnightblue" points="461.1,-217 453.56,-224.44 464.1,-223.33 461.1,-217"/>
</g>
<!-- Node23&#45;&gt;Node7 -->
<g id="edge28" class="edge">
<title>Node23&#45;&gt;Node7</title>
<path fill="none" stroke="midnightblue" d="M412.1,-219.01C373.47,-195.92 297.52,-150.51 265.87,-131.59"/>
<polygon fill="midnightblue" stroke="midnightblue" points="410.68,-222.24 421.06,-224.37 414.27,-216.23 410.68,-222.24"/>
</g>
<!-- Node23&#45;&gt;Node18 -->
<g id="edge29" class="edge">
<title>Node23&#45;&gt;Node18</title>
<path fill="none" stroke="midnightblue" d="M424.77,-215.64C410,-191.74 383.96,-149.63 372.81,-131.59"/>
<polygon fill="midnightblue" stroke="midnightblue" points="421.93,-217.7 430.16,-224.37 427.88,-214.02 421.93,-217.7"/>
</g>
<!-- Node23&#45;&gt;Node19 -->
<g id="edge30" class="edge">
<title>Node23&#45;&gt;Node19</title>
<path fill="none" stroke="midnightblue" d="M443.85,-215C454.97,-191 474.23,-149.47 482.52,-131.59"/>
<polygon fill="midnightblue" stroke="midnightblue" points="440.53,-213.82 439.5,-224.37 446.88,-216.77 440.53,-213.82"/>
</g>
<!-- Node23&#45;&gt;Node21 -->
<g id="edge33" class="edge">
<title>Node23&#45;&gt;Node21</title>
<path fill="none" stroke="midnightblue" d="M483.47,-222.22C522.38,-213.37 578.59,-200.32 627.5,-188 703.56,-168.84 792.54,-144.28 838.15,-131.53"/>
<polygon fill="midnightblue" stroke="midnightblue" points="482.45,-218.86 473.48,-224.49 484,-225.69 482.45,-218.86"/>
</g>
<!-- Node23&#45;&gt;Node23 -->
<g id="edge34" class="edge">
<title>Node23&#45;&gt;Node23</title>
<path fill="none" stroke="midnightblue" d="M484.93,-244.29C507.91,-245.42 528,-241.99 528,-234 528,-224.87 501.76,-221.69 474.95,-224.47"/>
<polygon fill="midnightblue" stroke="midnightblue" points="485.19,-240.8 474.95,-243.53 484.65,-247.78 485.19,-240.8"/>
</g>
</g>
</svg>
