<?xml version="1.0" encoding="UTF-8" standalone="no"?>
<!DOCTYPE svg PUBLIC "-//W3C//DTD SVG 1.1//EN"
 "http://www.w3.org/Graphics/SVG/1.1/DTD/svg11.dtd">
<!-- Generated by graphviz version 2.43.0 (0)
 -->
<!-- Title: abcDetectorComponent.hh Pages: 1 -->
<svg width="2197pt" height="308pt"
 viewBox="0.00 0.00 2196.50 308.00" xmlns="http://www.w3.org/2000/svg" xmlns:xlink="http://www.w3.org/1999/xlink">
<g id="graph0" class="graph" transform="scale(1 1) rotate(0) translate(4 304)">
<title>abcDetectorComponent.hh</title>
<polygon fill="white" stroke="transparent" points="-4,4 -4,-304 2192.5,-304 2192.5,4 -4,4"/>
<!-- Node1 -->
<g id="node1" class="node">
<title>Node1</title>
<g id="a_node1"><a xlink:title="Provides helper base class abcDetectorComponent for constructing and managing detector components in ...">
<polygon fill="#bfbfbf" stroke="black" points="1331,-280.5 1331,-299.5 1478,-299.5 1478,-280.5 1331,-280.5"/>
<text text-anchor="middle" x="1404.5" y="-287.5" font-family="Helvetica,sans-Serif" font-size="10.00">abcDetectorComponent.hh</text>
</a>
</g>
</g>
<!-- Node2 -->
<g id="node2" class="node">
<title>Node2</title>
<g id="a_node2"><a xlink:href="_o_m_sim_d_e_g_g_harness_8hh.html" target="_top" xlink:title="Construction of the DEGG harness.">
<polygon fill="white" stroke="black" points="152,-224.5 152,-243.5 287,-243.5 287,-224.5 152,-224.5"/>
<text text-anchor="middle" x="219.5" y="-231.5" font-family="Helvetica,sans-Serif" font-size="10.00">OMSimDEGGHarness.hh</text>
</a>
</g>
</g>
<!-- Node1&#45;&gt;Node2 -->
<g id="edge1" class="edge">
<title>Node1&#45;&gt;Node2</title>
<path fill="none" stroke="midnightblue" d="M1320.65,-287.54C1136.18,-283.9 681.32,-272.56 301.5,-244 296.79,-243.65 291.93,-243.23 287.04,-242.78"/>
<polygon fill="midnightblue" stroke="midnightblue" points="1320.76,-291.04 1330.82,-287.74 1320.89,-284.04 1320.76,-291.04"/>
</g>
<!-- Node4 -->
<g id="node4" class="node">
<title>Node4</title>
<g id="a_node4"><a xlink:href="_o_m_sim_m_d_o_m_flasher_8hh.html" target="_top" xlink:title="Defines the mDOMFlasher class for simulating the 10 flashers in an mDOM optical module.">
<polygon fill="white" stroke="black" points="1656,-224.5 1656,-243.5 1791,-243.5 1791,-224.5 1656,-224.5"/>
<text text-anchor="middle" x="1723.5" y="-231.5" font-family="Helvetica,sans-Serif" font-size="10.00">OMSimMDOMFlasher.hh</text>
</a>
</g>
</g>
<!-- Node1&#45;&gt;Node4 -->
<g id="edge3" class="edge">
<title>Node1&#45;&gt;Node4</title>
<path fill="none" stroke="midnightblue" d="M1465.18,-278.73C1525.47,-268.52 1616.82,-253.06 1673.19,-243.52"/>
<polygon fill="midnightblue" stroke="midnightblue" points="1464.32,-275.32 1455.05,-280.44 1465.49,-282.23 1464.32,-275.32"/>
</g>
<!-- Node13 -->
<g id="node13" class="node">
<title>Node13</title>
<g id="a_node13"><a xlink:href="_o_m_sim_m_d_o_m_harness_8hh.html" target="_top" xlink:title="Construction of mDOM harness.">
<polygon fill="white" stroke="black" points="1913.5,-112.5 1913.5,-131.5 2053.5,-131.5 2053.5,-112.5 1913.5,-112.5"/>
<text text-anchor="middle" x="1983.5" y="-119.5" font-family="Helvetica,sans-Serif" font-size="10.00">OMSimMDOMHarness.hh</text>
</a>
</g>
</g>
<!-- Node1&#45;&gt;Node13 -->
<g id="edge12" class="edge">
<title>Node1&#45;&gt;Node13</title>
<path fill="none" stroke="midnightblue" d="M1488.38,-284.03C1586.95,-277.38 1744.11,-264.07 1799.5,-244 1873.91,-217.04 1948.29,-154.57 1974.04,-131.64"/>
<polygon fill="midnightblue" stroke="midnightblue" points="1487.88,-280.55 1478.14,-284.71 1488.35,-287.53 1487.88,-280.55"/>
</g>
<!-- Node14 -->
<g id="node14" class="node">
<title>Node14</title>
<g id="a_node14"><a xlink:href="_o_m_sim_optical_module_8hh.html" target="_top" xlink:title=" ">
<polygon fill="white" stroke="black" points="1068,-168.5 1068,-187.5 1205,-187.5 1205,-168.5 1068,-168.5"/>
<text text-anchor="middle" x="1136.5" y="-175.5" font-family="Helvetica,sans-Serif" font-size="10.00">OMSimOpticalModule.hh</text>
</a>
</g>
</g>
<!-- Node1&#45;&gt;Node14 -->
<g id="edge15" class="edge">
<title>Node1&#45;&gt;Node14</title>
<path fill="none" stroke="midnightblue" d="M1373.91,-276.45C1318.87,-253.86 1204.5,-206.91 1157.43,-187.59"/>
<polygon fill="midnightblue" stroke="midnightblue" points="1372.89,-279.81 1383.47,-280.37 1375.55,-273.33 1372.89,-279.81"/>
</g>
<!-- Node25 -->
<g id="node25" class="node">
<title>Node25</title>
<g id="a_node25"><a xlink:href="_o_m_sim_rad_decays_detector_8hh.html" target="_top" xlink:title="Defines the OMSimRadDecaysDetector class for the radioactive decays simulation.">
<polygon fill="white" stroke="black" points="0,-56.5 0,-75.5 163,-75.5 163,-56.5 0,-56.5"/>
<text text-anchor="middle" x="81.5" y="-63.5" font-family="Helvetica,sans-Serif" font-size="10.00">OMSimRadDecaysDetector.hh</text>
</a>
</g>
</g>
<!-- Node1&#45;&gt;Node25 -->
<g id="edge76" class="edge">
<title>Node1&#45;&gt;Node25</title>
<path fill="none" stroke="midnightblue" d="M1320.67,-279.98C1138.97,-259.72 695.7,-206.49 329.5,-132 249.03,-115.63 155.73,-89.09 109.9,-75.55"/>
<polygon fill="midnightblue" stroke="midnightblue" points="1320.37,-283.47 1330.7,-281.09 1321.14,-276.51 1320.37,-283.47"/>
</g>
<!-- Node37 -->
<g id="node37" class="node">
<title>Node37</title>
<g id="a_node37"><a xlink:href="_o_m_sim_p_m_t_construction_8hh.html" target="_top" xlink:title="Construction of the PMTs.">
<polygon fill="white" stroke="black" points="1330,-224.5 1330,-243.5 1479,-243.5 1479,-224.5 1330,-224.5"/>
<text text-anchor="middle" x="1404.5" y="-231.5" font-family="Helvetica,sans-Serif" font-size="10.00">OMSimPMTConstruction.hh</text>
</a>
</g>
</g>
<!-- Node1&#45;&gt;Node37 -->
<g id="edge64" class="edge">
<title>Node1&#45;&gt;Node37</title>
<path fill="none" stroke="midnightblue" d="M1404.5,-269.8C1404.5,-260.91 1404.5,-250.78 1404.5,-243.75"/>
<polygon fill="midnightblue" stroke="midnightblue" points="1401,-270.08 1404.5,-280.08 1408,-270.08 1401,-270.08"/>
</g>
<!-- Node38 -->
<g id="node38" class="node">
<title>Node38</title>
<g id="a_node38"><a xlink:href="abc_detector_component_8cc.html" target="_top" xlink:title=" ">
<polygon fill="white" stroke="black" points="1546.5,-168.5 1546.5,-187.5 1692.5,-187.5 1692.5,-168.5 1546.5,-168.5"/>
<text text-anchor="middle" x="1619.5" y="-175.5" font-family="Helvetica,sans-Serif" font-size="10.00">abcDetectorComponent.cc</text>
</a>
</g>
</g>
<!-- Node1&#45;&gt;Node38 -->
<g id="edge75" class="edge">
<title>Node1&#45;&gt;Node38</title>
<path fill="none" stroke="midnightblue" d="M1434.63,-276.5C1454.9,-267.87 1482.1,-255.85 1505.5,-244 1542.29,-225.37 1584.04,-200.59 1605.35,-187.67"/>
<polygon fill="midnightblue" stroke="midnightblue" points="1433.13,-273.34 1425.28,-280.45 1435.86,-279.78 1433.13,-273.34"/>
</g>
<!-- Node3 -->
<g id="node3" class="node">
<title>Node3</title>
<g id="a_node3"><a xlink:href="_o_m_sim_d_e_g_g_harness_8cc.html" target="_top" xlink:title=" ">
<polygon fill="white" stroke="black" points="152.5,-168.5 152.5,-187.5 286.5,-187.5 286.5,-168.5 152.5,-168.5"/>
<text text-anchor="middle" x="219.5" y="-175.5" font-family="Helvetica,sans-Serif" font-size="10.00">OMSimDEGGHarness.cc</text>
</a>
</g>
</g>
<!-- Node2&#45;&gt;Node3 -->
<g id="edge2" class="edge">
<title>Node2&#45;&gt;Node3</title>
<path fill="none" stroke="midnightblue" d="M219.5,-213.8C219.5,-204.91 219.5,-194.78 219.5,-187.75"/>
<polygon fill="midnightblue" stroke="midnightblue" points="216,-214.08 219.5,-224.08 223,-214.08 216,-214.08"/>
</g>
<!-- Node5 -->
<g id="node5" class="node">
<title>Node5</title>
<g id="a_node5"><a xlink:href="_o_m_sim_m_d_o_m_8hh.html" target="_top" xlink:title="Construction of mDOM.">
<polygon fill="white" stroke="black" points="1751.5,-112.5 1751.5,-131.5 1851.5,-131.5 1851.5,-112.5 1751.5,-112.5"/>
<text text-anchor="middle" x="1801.5" y="-119.5" font-family="Helvetica,sans-Serif" font-size="10.00">OMSimMDOM.hh</text>
</a>
</g>
</g>
<!-- Node4&#45;&gt;Node5 -->
<g id="edge4" class="edge">
<title>Node4&#45;&gt;Node5</title>
<path fill="none" stroke="midnightblue" d="M1735.58,-215.96C1752.49,-192.12 1782.56,-149.71 1795.41,-131.59"/>
<polygon fill="midnightblue" stroke="midnightblue" points="1732.55,-214.19 1729.62,-224.37 1738.26,-218.24 1732.55,-214.19"/>
</g>
<!-- Node6 -->
<g id="node6" class="node">
<title>Node6</title>
<g id="a_node6"><a xlink:href="_o_m_sim_detector_construction_8cc.html" target="_top" xlink:title=" ">
<polygon fill="white" stroke="black" points="1662,-0.5 1662,-19.5 1831,-19.5 1831,-0.5 1662,-0.5"/>
<text text-anchor="middle" x="1746.5" y="-7.5" font-family="Helvetica,sans-Serif" font-size="10.00">OMSimDetectorConstruction.cc</text>
</a>
</g>
</g>
<!-- Node5&#45;&gt;Node6 -->
<g id="edge5" class="edge">
<title>Node5&#45;&gt;Node6</title>
<path fill="none" stroke="midnightblue" d="M1838.03,-108.8C1866.49,-97.26 1898.67,-78.39 1882.5,-56 1868.88,-37.15 1847.07,-26.07 1824.87,-19.59"/>
<polygon fill="midnightblue" stroke="midnightblue" points="1836.67,-105.57 1828.59,-112.43 1839.18,-112.11 1836.67,-105.57"/>
</g>
<!-- Node7 -->
<g id="node7" class="node">
<title>Node7</title>
<g id="a_node7"><a xlink:href="_o_m_sim_m_d_o_m_8cc.html" target="_top" xlink:title=" ">
<polygon fill="white" stroke="black" points="1934.5,-56.5 1934.5,-75.5 2032.5,-75.5 2032.5,-56.5 1934.5,-56.5"/>
<text text-anchor="middle" x="1983.5" y="-63.5" font-family="Helvetica,sans-Serif" font-size="10.00">OMSimMDOM.cc</text>
</a>
</g>
</g>
<!-- Node5&#45;&gt;Node7 -->
<g id="edge6" class="edge">
<title>Node5&#45;&gt;Node7</title>
<path fill="none" stroke="midnightblue" d="M1840.03,-109.57C1874.36,-99.38 1923.83,-84.7 1954.8,-75.52"/>
<polygon fill="midnightblue" stroke="midnightblue" points="1838.93,-106.24 1830.34,-112.44 1840.92,-112.95 1838.93,-106.24"/>
</g>
<!-- Node8 -->
<g id="node8" class="node">
<title>Node8</title>
<g id="a_node8"><a xlink:href="_o_m_sim_m_d_o_m_flasher_8cc.html" target="_top" xlink:title=" ">
<polygon fill="white" stroke="black" points="1668.5,-56.5 1668.5,-75.5 1802.5,-75.5 1802.5,-56.5 1668.5,-56.5"/>
<text text-anchor="middle" x="1735.5" y="-63.5" font-family="Helvetica,sans-Serif" font-size="10.00">OMSimMDOMFlasher.cc</text>
</a>
</g>
</g>
<!-- Node5&#45;&gt;Node8 -->
<g id="edge7" class="edge">
<title>Node5&#45;&gt;Node8</title>
<path fill="none" stroke="midnightblue" d="M1782.95,-105.82C1771.12,-96.15 1756.21,-83.95 1746.3,-75.83"/>
<polygon fill="midnightblue" stroke="midnightblue" points="1780.94,-108.7 1790.9,-112.32 1785.37,-103.28 1780.94,-108.7"/>
</g>
<!-- Node9 -->
<g id="node9" class="node">
<title>Node9</title>
<g id="a_node9"><a xlink:href="_o_m_sim_m_d_o_m_harness_8cc.html" target="_top" xlink:title=" ">
<polygon fill="white" stroke="black" points="2050.5,-56.5 2050.5,-75.5 2188.5,-75.5 2188.5,-56.5 2050.5,-56.5"/>
<text text-anchor="middle" x="2119.5" y="-63.5" font-family="Helvetica,sans-Serif" font-size="10.00">OMSimMDOMHarness.cc</text>
</a>
</g>
</g>
<!-- Node5&#45;&gt;Node9 -->
<g id="edge8" class="edge">
<title>Node5&#45;&gt;Node9</title>
<path fill="none" stroke="midnightblue" d="M1861.63,-110.79C1921.68,-100.59 2012.92,-85.1 2069.23,-75.54"/>
<polygon fill="midnightblue" stroke="midnightblue" points="1860.81,-107.38 1851.54,-112.5 1861.98,-114.28 1860.81,-107.38"/>
</g>
<!-- Node10 -->
<g id="node10" class="node">
<title>Node10</title>
<g id="a_node10"><a xlink:href="_o_m_sim_effective_area_detector_8cc.html" target="_top" xlink:title=" ">
<polygon fill="white" stroke="black" points="1221.5,-0.5 1221.5,-19.5 1393.5,-19.5 1393.5,-0.5 1221.5,-0.5"/>
<text text-anchor="middle" x="1307.5" y="-7.5" font-family="Helvetica,sans-Serif" font-size="10.00">OMSimEffectiveAreaDetector.cc</text>
</a>
</g>
</g>
<!-- Node5&#45;&gt;Node10 -->
<g id="edge9" class="edge">
<title>Node5&#45;&gt;Node10</title>
<path fill="none" stroke="midnightblue" d="M1811.24,-103.15C1817.68,-88.64 1823.03,-68.59 1811.5,-56 1780.69,-22.36 1447.93,-24.15 1402.5,-20 1399.61,-19.74 1396.68,-19.47 1393.71,-19.19"/>
<polygon fill="midnightblue" stroke="midnightblue" points="1808.08,-101.63 1806.8,-112.14 1814.36,-104.73 1808.08,-101.63"/>
</g>
<!-- Node11 -->
<g id="node11" class="node">
<title>Node11</title>
<g id="a_node11"><a xlink:href="_o_m_sim_rad_decays_detector_8cc.html" target="_top" xlink:title=" ">
<polygon fill="white" stroke="black" points="929,-0.5 929,-19.5 1090,-19.5 1090,-0.5 929,-0.5"/>
<text text-anchor="middle" x="1009.5" y="-7.5" font-family="Helvetica,sans-Serif" font-size="10.00">OMSimRadDecaysDetector.cc</text>
</a>
</g>
</g>
<!-- Node5&#45;&gt;Node11 -->
<g id="edge10" class="edge">
<title>Node5&#45;&gt;Node11</title>
<path fill="none" stroke="midnightblue" d="M1741.43,-118.81C1622.08,-113.99 1359.13,-100.85 1272.5,-76 1253.78,-70.63 1251.89,-62.42 1233.5,-56 1182.2,-38.08 1121.65,-26.45 1076.45,-19.51"/>
<polygon fill="midnightblue" stroke="midnightblue" points="1741.36,-122.31 1751.49,-119.21 1741.64,-115.32 1741.36,-122.31"/>
</g>
<!-- Node12 -->
<g id="node12" class="node">
<title>Node12</title>
<g id="a_node12"><a xlink:href="_o_m_sim_s_ndetector_8cc.html" target="_top" xlink:title=" ">
<polygon fill="white" stroke="black" points="1412,-0.5 1412,-19.5 1531,-19.5 1531,-0.5 1412,-0.5"/>
<text text-anchor="middle" x="1471.5" y="-7.5" font-family="Helvetica,sans-Serif" font-size="10.00">OMSimSNdetector.cc</text>
</a>
</g>
</g>
<!-- Node5&#45;&gt;Node12 -->
<g id="edge11" class="edge">
<title>Node5&#45;&gt;Node12</title>
<path fill="none" stroke="midnightblue" d="M1822.34,-106.32C1839.39,-92.57 1858.56,-71.82 1844.5,-56 1799.31,-5.15 1608.01,-28.4 1540.5,-20 1537.5,-19.63 1534.43,-19.24 1531.33,-18.85"/>
<polygon fill="midnightblue" stroke="midnightblue" points="1820.13,-103.61 1814.3,-112.46 1824.37,-109.18 1820.13,-103.61"/>
</g>
<!-- Node13&#45;&gt;Node7 -->
<g id="edge13" class="edge">
<title>Node13&#45;&gt;Node7</title>
<path fill="none" stroke="midnightblue" d="M1983.5,-101.8C1983.5,-92.91 1983.5,-82.78 1983.5,-75.75"/>
<polygon fill="midnightblue" stroke="midnightblue" points="1980,-102.08 1983.5,-112.08 1987,-102.08 1980,-102.08"/>
</g>
<!-- Node13&#45;&gt;Node9 -->
<g id="edge14" class="edge">
<title>Node13&#45;&gt;Node9</title>
<path fill="none" stroke="midnightblue" d="M2014.63,-108.64C2040.16,-98.5 2075.61,-84.43 2098.05,-75.52"/>
<polygon fill="midnightblue" stroke="midnightblue" points="2013.05,-105.5 2005.05,-112.44 2015.64,-112.01 2013.05,-105.5"/>
</g>
<!-- Node14&#45;&gt;Node5 -->
<g id="edge51" class="edge">
<title>Node14&#45;&gt;Node5</title>
<path fill="none" stroke="midnightblue" d="M1215.27,-170.6C1353.66,-159.37 1636.61,-136.39 1751.43,-127.07"/>
<polygon fill="midnightblue" stroke="midnightblue" points="1214.85,-167.13 1205.16,-171.42 1215.41,-174.1 1214.85,-167.13"/>
</g>
<!-- Node15 -->
<g id="node15" class="node">
<title>Node15</title>
<g id="a_node15"><a xlink:href="_o_m_sim_d_e_g_g_8hh.html" target="_top" xlink:title="Construction of the DEGG class.">
<polygon fill="white" stroke="black" points="1397,-56.5 1397,-75.5 1492,-75.5 1492,-56.5 1397,-56.5"/>
<text text-anchor="middle" x="1444.5" y="-63.5" font-family="Helvetica,sans-Serif" font-size="10.00">OMSimDEGG.hh</text>
</a>
</g>
</g>
<!-- Node14&#45;&gt;Node15 -->
<g id="edge16" class="edge">
<title>Node14&#45;&gt;Node15</title>
<path fill="none" stroke="midnightblue" d="M1138.35,-158.15C1140.85,-143.31 1146.72,-123.31 1160.5,-112 1160.64,-111.88 1316.19,-87.28 1396.99,-74.51"/>
<polygon fill="midnightblue" stroke="midnightblue" points="1134.85,-157.89 1137.02,-168.26 1141.8,-158.8 1134.85,-157.89"/>
</g>
<!-- Node17 -->
<g id="node17" class="node">
<title>Node17</title>
<g id="a_node17"><a xlink:href="_o_m_sim_detector_construction_8hh.html" target="_top" xlink:title=" ">
<polygon fill="white" stroke="black" points="795.5,-112.5 795.5,-131.5 965.5,-131.5 965.5,-112.5 795.5,-112.5"/>
<text text-anchor="middle" x="880.5" y="-119.5" font-family="Helvetica,sans-Serif" font-size="10.00">OMSimDetectorConstruction.hh</text>
</a>
</g>
</g>
<!-- Node14&#45;&gt;Node17 -->
<g id="edge22" class="edge">
<title>Node14&#45;&gt;Node17</title>
<path fill="none" stroke="midnightblue" d="M1085.99,-166.35C1037.61,-156.14 965.55,-140.94 920.87,-131.52"/>
<polygon fill="midnightblue" stroke="midnightblue" points="1085.43,-169.8 1095.94,-168.44 1086.87,-162.95 1085.43,-169.8"/>
</g>
<!-- Node14&#45;&gt;Node25 -->
<g id="edge63" class="edge">
<title>Node14&#45;&gt;Node25</title>
<path fill="none" stroke="midnightblue" d="M1057.71,-176.09C889.55,-173.55 500.41,-164.27 372.5,-132 352.06,-126.84 349.59,-118.38 329.5,-112 272.78,-93.99 206.33,-82.42 156.5,-75.52"/>
<polygon fill="midnightblue" stroke="midnightblue" points="1057.69,-179.59 1067.74,-176.24 1057.79,-172.59 1057.69,-179.59"/>
</g>
<!-- Node27 -->
<g id="node27" class="node">
<title>Node27</title>
<g id="a_node27"><a xlink:href="_o_m_sim_l_o_m16_8hh.html" target="_top" xlink:title="Construction of LOM16.">
<polygon fill="white" stroke="black" points="1549,-56.5 1549,-75.5 1650,-75.5 1650,-56.5 1549,-56.5"/>
<text text-anchor="middle" x="1599.5" y="-63.5" font-family="Helvetica,sans-Serif" font-size="10.00">OMSimLOM16.hh</text>
</a>
</g>
</g>
<!-- Node14&#45;&gt;Node27 -->
<g id="edge39" class="edge">
<title>Node14&#45;&gt;Node27</title>
<path fill="none" stroke="midnightblue" d="M1146.34,-159.83C1156.16,-144.46 1172.75,-122.75 1193.5,-112 1261.16,-76.95 1458.86,-85.23 1534.5,-76 1539.14,-75.43 1543.96,-74.82 1548.78,-74.18"/>
<polygon fill="midnightblue" stroke="midnightblue" points="1143.32,-158.06 1141.13,-168.43 1149.31,-161.69 1143.32,-158.06"/>
</g>
<!-- Node29 -->
<g id="node29" class="node">
<title>Node29</title>
<g id="a_node29"><a xlink:href="_o_m_sim_l_o_m18_8hh.html" target="_top" xlink:title="Construction of LOM18.">
<polygon fill="white" stroke="black" points="959,-56.5 959,-75.5 1060,-75.5 1060,-56.5 959,-56.5"/>
<text text-anchor="middle" x="1009.5" y="-63.5" font-family="Helvetica,sans-Serif" font-size="10.00">OMSimLOM18.hh</text>
</a>
</g>
</g>
<!-- Node14&#45;&gt;Node29 -->
<g id="edge45" class="edge">
<title>Node14&#45;&gt;Node29</title>
<path fill="none" stroke="midnightblue" d="M1118.82,-161.71C1108.76,-153 1095.92,-141.89 1084.5,-132 1061.32,-111.92 1034.11,-88.34 1019.69,-75.83"/>
<polygon fill="midnightblue" stroke="midnightblue" points="1116.68,-164.48 1126.53,-168.38 1121.26,-159.19 1116.68,-164.48"/>
</g>
<!-- Node31 -->
<g id="node31" class="node">
<title>Node31</title>
<g id="a_node31"><a xlink:href="_o_m_sim_p_d_o_m_8hh.html" target="_top" xlink:title="Implementation of the pDOM/Gen1 DOM class.">
<polygon fill="white" stroke="black" points="1282,-56.5 1282,-75.5 1379,-75.5 1379,-56.5 1282,-56.5"/>
<text text-anchor="middle" x="1330.5" y="-63.5" font-family="Helvetica,sans-Serif" font-size="10.00">OMSimPDOM.hh</text>
</a>
</g>
</g>
<!-- Node14&#45;&gt;Node31 -->
<g id="edge52" class="edge">
<title>Node14&#45;&gt;Node31</title>
<path fill="none" stroke="midnightblue" d="M1125.62,-159.59C1118.26,-145.34 1111.66,-125.43 1122.5,-112 1142.1,-87.7 1226.47,-75.87 1281.55,-70.64"/>
<polygon fill="midnightblue" stroke="midnightblue" points="1122.65,-161.43 1130.64,-168.39 1128.73,-157.97 1122.65,-161.43"/>
</g>
<!-- Node33 -->
<g id="node33" class="node">
<title>Node33</title>
<g id="a_node33"><a xlink:href="_o_m_sim_optical_module_8cc.html" target="_top" xlink:title=" ">
<polygon fill="white" stroke="black" points="1202.5,-112.5 1202.5,-131.5 1338.5,-131.5 1338.5,-112.5 1202.5,-112.5"/>
<text text-anchor="middle" x="1270.5" y="-119.5" font-family="Helvetica,sans-Serif" font-size="10.00">OMSimOpticalModule.cc</text>
</a>
</g>
</g>
<!-- Node14&#45;&gt;Node33 -->
<g id="edge58" class="edge">
<title>Node14&#45;&gt;Node33</title>
<path fill="none" stroke="midnightblue" d="M1167.18,-164.64C1192.32,-154.5 1227.25,-140.43 1249.37,-131.52"/>
<polygon fill="midnightblue" stroke="midnightblue" points="1165.7,-161.46 1157.73,-168.44 1168.32,-167.95 1165.7,-161.46"/>
</g>
<!-- Node34 -->
<g id="node34" class="node">
<title>Node34</title>
<g id="a_node34"><a xlink:href="_o_m_sim_decays_g_p_s_8hh.html" target="_top" xlink:title="Defines the OMSimDecaysGPS class for the radioactive decays simulation.">
<polygon fill="white" stroke="black" points="381.5,-112.5 381.5,-131.5 503.5,-131.5 503.5,-112.5 381.5,-112.5"/>
<text text-anchor="middle" x="442.5" y="-119.5" font-family="Helvetica,sans-Serif" font-size="10.00">OMSimDecaysGPS.hh</text>
</a>
</g>
</g>
<!-- Node14&#45;&gt;Node34 -->
<g id="edge59" class="edge">
<title>Node14&#45;&gt;Node34</title>
<path fill="none" stroke="midnightblue" d="M1057.53,-170.86C917.8,-159.98 629.88,-137.58 503.85,-127.77"/>
<polygon fill="midnightblue" stroke="midnightblue" points="1057.5,-174.36 1067.74,-171.65 1058.04,-167.38 1057.5,-174.36"/>
</g>
<!-- Node15&#45;&gt;Node6 -->
<g id="edge18" class="edge">
<title>Node15&#45;&gt;Node6</title>
<path fill="none" stroke="midnightblue" d="M1501.96,-54.73C1558.99,-44.53 1645.39,-29.08 1698.76,-19.54"/>
<polygon fill="midnightblue" stroke="midnightblue" points="1501.25,-51.3 1492.02,-56.5 1502.48,-58.19 1501.25,-51.3"/>
</g>
<!-- Node15&#45;&gt;Node10 -->
<g id="edge19" class="edge">
<title>Node15&#45;&gt;Node10</title>
<path fill="none" stroke="midnightblue" d="M1413.48,-52.77C1387.74,-42.63 1351.81,-28.47 1329.11,-19.52"/>
<polygon fill="midnightblue" stroke="midnightblue" points="1412.21,-56.03 1422.79,-56.44 1414.77,-49.52 1412.21,-56.03"/>
</g>
<!-- Node15&#45;&gt;Node11 -->
<g id="edge20" class="edge">
<title>Node15&#45;&gt;Node11</title>
<path fill="none" stroke="midnightblue" d="M1387.03,-55.98C1277.44,-40.93 1162.84,-27.74 1088.53,-19.52"/>
<polygon fill="midnightblue" stroke="midnightblue" points="1386.55,-59.45 1396.93,-57.35 1387.51,-52.52 1386.55,-59.45"/>
</g>
<!-- Node15&#45;&gt;Node12 -->
<g id="edge21" class="edge">
<title>Node15&#45;&gt;Node12</title>
<path fill="none" stroke="midnightblue" d="M1453.51,-46.98C1458.09,-37.82 1463.45,-27.09 1467.12,-19.75"/>
<polygon fill="midnightblue" stroke="midnightblue" points="1450.3,-45.57 1448.96,-56.08 1456.56,-48.7 1450.3,-45.57"/>
</g>
<!-- Node16 -->
<g id="node16" class="node">
<title>Node16</title>
<g id="a_node16"><a xlink:href="_o_m_sim_d_e_g_g_8cc.html" target="_top" xlink:title=" ">
<polygon fill="white" stroke="black" points="1549.5,-0.5 1549.5,-19.5 1643.5,-19.5 1643.5,-0.5 1549.5,-0.5"/>
<text text-anchor="middle" x="1596.5" y="-7.5" font-family="Helvetica,sans-Serif" font-size="10.00">OMSimDEGG.cc</text>
</a>
</g>
</g>
<!-- Node15&#45;&gt;Node16 -->
<g id="edge17" class="edge">
<title>Node15&#45;&gt;Node16</title>
<path fill="none" stroke="midnightblue" d="M1478.17,-53.04C1506.77,-42.88 1547.11,-28.55 1572.53,-19.52"/>
<polygon fill="midnightblue" stroke="midnightblue" points="1476.84,-49.8 1468.58,-56.44 1479.18,-56.39 1476.84,-49.8"/>
</g>
<!-- Node17&#45;&gt;Node6 -->
<g id="edge28" class="edge">
<title>Node17&#45;&gt;Node6</title>
<path fill="none" stroke="midnightblue" d="M975.82,-118.72C1124.51,-114.39 1404.56,-102.88 1500.5,-76 1519.26,-70.75 1521.16,-62.57 1539.5,-56 1588.15,-38.58 1645.75,-26.72 1687.82,-19.57"/>
<polygon fill="midnightblue" stroke="midnightblue" points="975.68,-115.23 965.78,-119.01 975.88,-122.22 975.68,-115.23"/>
</g>
<!-- Node18 -->
<g id="node18" class="node">
<title>Node18</title>
<g id="a_node18"><a xlink:href="_o_m_sim_8hh.html" target="_top" xlink:title="Main simulation class for the Optical Module (OM) simulation. This file defines the OMSim class,...">
<polygon fill="white" stroke="black" points="544,-56.5 544,-75.5 611,-75.5 611,-56.5 544,-56.5"/>
<text text-anchor="middle" x="577.5" y="-63.5" font-family="Helvetica,sans-Serif" font-size="10.00">OMSim.hh</text>
</a>
</g>
</g>
<!-- Node17&#45;&gt;Node18 -->
<g id="edge23" class="edge">
<title>Node17&#45;&gt;Node18</title>
<path fill="none" stroke="midnightblue" d="M817.48,-110.87C764.53,-102.18 686.94,-89.03 619.5,-76 616.86,-75.49 614.14,-74.95 611.4,-74.39"/>
<polygon fill="midnightblue" stroke="midnightblue" points="816.96,-114.33 827.4,-112.49 818.09,-107.42 816.96,-114.33"/>
</g>
<!-- Node23 -->
<g id="node23" class="node">
<title>Node23</title>
<g id="a_node23"><a xlink:href="_o_m_sim_p_m_t_construction_8cc.html" target="_top" xlink:title=" ">
<polygon fill="white" stroke="black" points="1078,-56.5 1078,-75.5 1225,-75.5 1225,-56.5 1078,-56.5"/>
<text text-anchor="middle" x="1151.5" y="-63.5" font-family="Helvetica,sans-Serif" font-size="10.00">OMSimPMTConstruction.cc</text>
</a>
</g>
</g>
<!-- Node17&#45;&gt;Node23 -->
<g id="edge29" class="edge">
<title>Node17&#45;&gt;Node23</title>
<path fill="none" stroke="midnightblue" d="M933.33,-110.47C984.54,-100.27 1061.27,-84.98 1108.76,-75.52"/>
<polygon fill="midnightblue" stroke="midnightblue" points="932.56,-107.06 923.44,-112.44 933.93,-113.92 932.56,-107.06"/>
</g>
<!-- Node24 -->
<g id="node24" class="node">
<title>Node24</title>
<g id="a_node24"><a xlink:href="_o_m_sim_effective_area_detector_8hh.html" target="_top" xlink:title="Defines the OMSimEffectiveAreaDetector class for effective area simulation detector construction.">
<polygon fill="white" stroke="black" points="629,-56.5 629,-75.5 802,-75.5 802,-56.5 629,-56.5"/>
<text text-anchor="middle" x="715.5" y="-63.5" font-family="Helvetica,sans-Serif" font-size="10.00">OMSimEffectiveAreaDetector.hh</text>
</a>
</g>
</g>
<!-- Node17&#45;&gt;Node24 -->
<g id="edge30" class="edge">
<title>Node17&#45;&gt;Node24</title>
<path fill="none" stroke="midnightblue" d="M844.76,-109.3C813.67,-99.13 769.35,-84.62 741.52,-75.52"/>
<polygon fill="midnightblue" stroke="midnightblue" points="843.76,-112.66 854.36,-112.44 845.94,-106.01 843.76,-112.66"/>
</g>
<!-- Node17&#45;&gt;Node25 -->
<g id="edge33" class="edge">
<title>Node17&#45;&gt;Node25</title>
<path fill="none" stroke="midnightblue" d="M785.04,-114.67C655.08,-106.03 415.19,-90.01 210.5,-76 195.16,-74.95 178.79,-73.82 163.04,-72.72"/>
<polygon fill="midnightblue" stroke="midnightblue" points="785.15,-118.18 795.36,-115.35 785.61,-111.2 785.15,-118.18"/>
</g>
<!-- Node26 -->
<g id="node26" class="node">
<title>Node26</title>
<g id="a_node26"><a xlink:href="_o_m_sim_s_ndetector_8hh.html" target="_top" xlink:title=" ">
<polygon fill="white" stroke="black" points="820.5,-56.5 820.5,-75.5 940.5,-75.5 940.5,-56.5 820.5,-56.5"/>
<text text-anchor="middle" x="880.5" y="-63.5" font-family="Helvetica,sans-Serif" font-size="10.00">OMSimSNdetector.hh</text>
</a>
</g>
</g>
<!-- Node17&#45;&gt;Node26 -->
<g id="edge36" class="edge">
<title>Node17&#45;&gt;Node26</title>
<path fill="none" stroke="midnightblue" d="M880.5,-101.8C880.5,-92.91 880.5,-82.78 880.5,-75.75"/>
<polygon fill="midnightblue" stroke="midnightblue" points="877,-102.08 880.5,-112.08 884,-102.08 877,-102.08"/>
</g>
<!-- Node19 -->
<g id="node19" class="node">
<title>Node19</title>
<g id="a_node19"><a xlink:href="_o_m_sim_8cc.html" target="_top" xlink:title="Implementation of the OMSim class.">
<polygon fill="white" stroke="black" points="430,-0.5 430,-19.5 495,-19.5 495,-0.5 430,-0.5"/>
<text text-anchor="middle" x="462.5" y="-7.5" font-family="Helvetica,sans-Serif" font-size="10.00">OMSim.cc</text>
</a>
</g>
</g>
<!-- Node18&#45;&gt;Node19 -->
<g id="edge24" class="edge">
<title>Node18&#45;&gt;Node19</title>
<path fill="none" stroke="midnightblue" d="M550.02,-52.1C528.53,-42.01 499.28,-28.27 480.64,-19.52"/>
<polygon fill="midnightblue" stroke="midnightblue" points="548.74,-55.36 559.28,-56.44 551.71,-49.02 548.74,-55.36"/>
</g>
<!-- Node20 -->
<g id="node20" class="node">
<title>Node20</title>
<g id="a_node20"><a xlink:href="_o_m_sim__effective__area_8cc.html" target="_top" xlink:title="Main for the calculation of effective areas.">
<polygon fill="white" stroke="black" points="513.5,-0.5 513.5,-19.5 653.5,-19.5 653.5,-0.5 513.5,-0.5"/>
<text text-anchor="middle" x="583.5" y="-7.5" font-family="Helvetica,sans-Serif" font-size="10.00">OMSim_effective_area.cc</text>
</a>
</g>
</g>
<!-- Node18&#45;&gt;Node20 -->
<g id="edge25" class="edge">
<title>Node18&#45;&gt;Node20</title>
<path fill="none" stroke="midnightblue" d="M579.6,-46.1C580.6,-37.14 581.74,-26.86 582.53,-19.75"/>
<polygon fill="midnightblue" stroke="midnightblue" points="576.12,-45.76 578.49,-56.08 583.07,-46.53 576.12,-45.76"/>
</g>
<!-- Node21 -->
<g id="node21" class="node">
<title>Node21</title>
<g id="a_node21"><a xlink:href="_o_m_sim__radioactive__decays_8cc.html" target="_top" xlink:title="Main of the radioactive decay study.">
<polygon fill="white" stroke="black" points="109,-0.5 109,-19.5 274,-19.5 274,-0.5 109,-0.5"/>
<text text-anchor="middle" x="191.5" y="-7.5" font-family="Helvetica,sans-Serif" font-size="10.00">OMSim_radioactive_decays.cc</text>
</a>
</g>
</g>
<!-- Node18&#45;&gt;Node21 -->
<g id="edge26" class="edge">
<title>Node18&#45;&gt;Node21</title>
<path fill="none" stroke="midnightblue" d="M533.79,-55.99C436.99,-39.74 336.77,-27.27 269.4,-19.51"/>
<polygon fill="midnightblue" stroke="midnightblue" points="533.3,-59.46 543.74,-57.68 534.47,-52.56 533.3,-59.46"/>
</g>
<!-- Node22 -->
<g id="node22" class="node">
<title>Node22</title>
<g id="a_node22"><a xlink:href="_o_m_sim__supernova_8cc.html" target="_top" xlink:title="Main of the supernova study.">
<polygon fill="white" stroke="black" points="671.5,-0.5 671.5,-19.5 793.5,-19.5 793.5,-0.5 671.5,-0.5"/>
<text text-anchor="middle" x="732.5" y="-7.5" font-family="Helvetica,sans-Serif" font-size="10.00">OMSim_supernova.cc</text>
</a>
</g>
</g>
<!-- Node18&#45;&gt;Node22 -->
<g id="edge27" class="edge">
<title>Node18&#45;&gt;Node22</title>
<path fill="none" stroke="midnightblue" d="M611.83,-53.04C641,-42.88 682.14,-28.55 708.05,-19.52"/>
<polygon fill="midnightblue" stroke="midnightblue" points="610.35,-49.85 602.06,-56.44 612.66,-56.46 610.35,-49.85"/>
</g>
<!-- Node24&#45;&gt;Node10 -->
<g id="edge32" class="edge">
<title>Node24&#45;&gt;Node10</title>
<path fill="none" stroke="midnightblue" d="M812.11,-55.95C990.9,-39.54 1036.96,-36.04 1211.5,-20 1214.75,-19.7 1218.06,-19.4 1221.41,-19.09"/>
<polygon fill="midnightblue" stroke="midnightblue" points="811.74,-52.47 802.11,-56.87 812.38,-59.44 811.74,-52.47"/>
</g>
<!-- Node24&#45;&gt;Node20 -->
<g id="edge31" class="edge">
<title>Node24&#45;&gt;Node20</title>
<path fill="none" stroke="midnightblue" d="M685.28,-52.64C660.51,-42.5 626.1,-28.43 604.32,-19.52"/>
<polygon fill="midnightblue" stroke="midnightblue" points="684,-55.9 694.58,-56.44 686.65,-49.42 684,-55.9"/>
</g>
<!-- Node25&#45;&gt;Node11 -->
<g id="edge35" class="edge">
<title>Node25&#45;&gt;Node11</title>
<path fill="none" stroke="midnightblue" d="M173.06,-58.4C185.64,-57.55 198.39,-56.73 210.5,-56 525.45,-37.02 604.87,-43.7 919.5,-20 922.48,-19.78 925.5,-19.54 928.56,-19.28"/>
<polygon fill="midnightblue" stroke="midnightblue" points="172.77,-54.91 163.03,-59.08 173.24,-61.89 172.77,-54.91"/>
</g>
<!-- Node25&#45;&gt;Node21 -->
<g id="edge34" class="edge">
<title>Node25&#45;&gt;Node21</title>
<path fill="none" stroke="midnightblue" d="M108.26,-51.86C128.66,-41.85 156.17,-28.35 173.87,-19.65"/>
<polygon fill="midnightblue" stroke="midnightblue" points="106.61,-48.78 99.17,-56.32 109.69,-55.06 106.61,-48.78"/>
</g>
<!-- Node26&#45;&gt;Node12 -->
<g id="edge38" class="edge">
<title>Node26&#45;&gt;Node12</title>
<path fill="none" stroke="midnightblue" d="M950.7,-55.92C1152.06,-35.12 1204.87,-40.73 1402.5,-20 1405.5,-19.68 1408.58,-19.35 1411.68,-18.99"/>
<polygon fill="midnightblue" stroke="midnightblue" points="950.27,-52.45 940.69,-56.97 951,-59.41 950.27,-52.45"/>
</g>
<!-- Node26&#45;&gt;Node22 -->
<g id="edge37" class="edge">
<title>Node26&#45;&gt;Node22</title>
<path fill="none" stroke="midnightblue" d="M847.35,-52.91C819.53,-42.75 780.48,-28.51 755.84,-19.52"/>
<polygon fill="midnightblue" stroke="midnightblue" points="846.46,-56.3 857.05,-56.44 848.85,-49.73 846.46,-56.3"/>
</g>
<!-- Node27&#45;&gt;Node6 -->
<g id="edge40" class="edge">
<title>Node27&#45;&gt;Node6</title>
<path fill="none" stroke="midnightblue" d="M1632.42,-52.91C1660.06,-42.75 1698.84,-28.51 1723.32,-19.52"/>
<polygon fill="midnightblue" stroke="midnightblue" points="1630.97,-49.71 1622.79,-56.44 1633.39,-56.28 1630.97,-49.71"/>
</g>
<!-- Node27&#45;&gt;Node10 -->
<g id="edge42" class="edge">
<title>Node27&#45;&gt;Node10</title>
<path fill="none" stroke="midnightblue" d="M1543.27,-54.6C1488.08,-44.4 1404.94,-29.02 1353.55,-19.52"/>
<polygon fill="midnightblue" stroke="midnightblue" points="1542.76,-58.07 1553.23,-56.44 1544.03,-51.18 1542.76,-58.07"/>
</g>
<!-- Node27&#45;&gt;Node11 -->
<g id="edge43" class="edge">
<title>Node27&#45;&gt;Node11</title>
<path fill="none" stroke="midnightblue" d="M1538.87,-59.48C1526.19,-58.32 1512.91,-57.12 1500.5,-56 1321.84,-39.88 1277.07,-37.02 1098.5,-20 1095.72,-19.73 1092.89,-19.46 1090.03,-19.18"/>
<polygon fill="midnightblue" stroke="midnightblue" points="1538.61,-62.97 1548.88,-60.39 1539.24,-55.99 1538.61,-62.97"/>
</g>
<!-- Node27&#45;&gt;Node12 -->
<g id="edge44" class="edge">
<title>Node27&#45;&gt;Node12</title>
<path fill="none" stroke="midnightblue" d="M1569.88,-52.5C1545.88,-42.38 1512.72,-28.39 1491.69,-19.52"/>
<polygon fill="midnightblue" stroke="midnightblue" points="1568.64,-55.78 1579.22,-56.44 1571.36,-49.33 1568.64,-55.78"/>
</g>
<!-- Node28 -->
<g id="node28" class="node">
<title>Node28</title>
<g id="a_node28"><a xlink:href="_o_m_sim_l_o_m16_8cc.html" target="_top" xlink:title=" ">
<polygon fill="white" stroke="black" points="1849,-0.5 1849,-19.5 1948,-19.5 1948,-0.5 1849,-0.5"/>
<text text-anchor="middle" x="1898.5" y="-7.5" font-family="Helvetica,sans-Serif" font-size="10.00">OMSimLOM16.cc</text>
</a>
</g>
</g>
<!-- Node27&#45;&gt;Node28 -->
<g id="edge41" class="edge">
<title>Node27&#45;&gt;Node28</title>
<path fill="none" stroke="midnightblue" d="M1656.73,-54.66C1713.24,-44.46 1798.62,-29.04 1851.34,-19.52"/>
<polygon fill="midnightblue" stroke="midnightblue" points="1656.1,-51.22 1646.88,-56.44 1657.34,-58.11 1656.1,-51.22"/>
</g>
<!-- Node29&#45;&gt;Node6 -->
<g id="edge46" class="edge">
<title>Node29&#45;&gt;Node6</title>
<path fill="none" stroke="midnightblue" d="M1070.37,-55.88C1328.79,-28.67 1396.54,-40.14 1652.5,-20 1655.61,-19.76 1658.77,-19.5 1661.96,-19.23"/>
<polygon fill="midnightblue" stroke="midnightblue" points="1069.89,-52.42 1060.31,-56.95 1070.62,-59.38 1069.89,-52.42"/>
</g>
<!-- Node29&#45;&gt;Node10 -->
<g id="edge48" class="edge">
<title>Node29&#45;&gt;Node10</title>
<path fill="none" stroke="midnightblue" d="M1066.89,-54.6C1123.21,-44.4 1208.06,-29.02 1260.5,-19.52"/>
<polygon fill="midnightblue" stroke="midnightblue" points="1065.93,-51.22 1056.72,-56.44 1067.18,-58.1 1065.93,-51.22"/>
</g>
<!-- Node29&#45;&gt;Node11 -->
<g id="edge49" class="edge">
<title>Node29&#45;&gt;Node11</title>
<path fill="none" stroke="midnightblue" d="M1009.5,-45.8C1009.5,-36.91 1009.5,-26.78 1009.5,-19.75"/>
<polygon fill="midnightblue" stroke="midnightblue" points="1006,-46.08 1009.5,-56.08 1013,-46.08 1006,-46.08"/>
</g>
<!-- Node29&#45;&gt;Node12 -->
<g id="edge50" class="edge">
<title>Node29&#45;&gt;Node12</title>
<path fill="none" stroke="midnightblue" d="M1069.94,-55.86C1218.23,-36.77 1257.43,-37.28 1402.5,-20 1405.5,-19.64 1408.57,-19.27 1411.67,-18.89"/>
<polygon fill="midnightblue" stroke="midnightblue" points="1069.48,-52.39 1060.01,-57.15 1070.38,-59.33 1069.48,-52.39"/>
</g>
<!-- Node30 -->
<g id="node30" class="node">
<title>Node30</title>
<g id="a_node30"><a xlink:href="_o_m_sim_l_o_m18_8cc.html" target="_top" xlink:title=" ">
<polygon fill="white" stroke="black" points="812,-0.5 812,-19.5 911,-19.5 911,-0.5 812,-0.5"/>
<text text-anchor="middle" x="861.5" y="-7.5" font-family="Helvetica,sans-Serif" font-size="10.00">OMSimLOM18.cc</text>
</a>
</g>
</g>
<!-- Node29&#45;&gt;Node30 -->
<g id="edge47" class="edge">
<title>Node29&#45;&gt;Node30</title>
<path fill="none" stroke="midnightblue" d="M976.35,-52.91C948.53,-42.75 909.48,-28.51 884.84,-19.52"/>
<polygon fill="midnightblue" stroke="midnightblue" points="975.46,-56.3 986.05,-56.44 977.85,-49.73 975.46,-56.3"/>
</g>
<!-- Node31&#45;&gt;Node6 -->
<g id="edge53" class="edge">
<title>Node31&#45;&gt;Node6</title>
<path fill="none" stroke="midnightblue" d="M1389.33,-55.77C1493.17,-41.18 1602.48,-27.85 1672.84,-19.54"/>
<polygon fill="midnightblue" stroke="midnightblue" points="1388.71,-52.33 1379.3,-57.19 1389.69,-59.26 1388.71,-52.33"/>
</g>
<!-- Node31&#45;&gt;Node10 -->
<g id="edge55" class="edge">
<title>Node31&#45;&gt;Node10</title>
<path fill="none" stroke="midnightblue" d="M1322.7,-46.69C1318.82,-37.59 1314.32,-27.01 1311.23,-19.75"/>
<polygon fill="midnightblue" stroke="midnightblue" points="1319.56,-48.25 1326.7,-56.08 1326,-45.51 1319.56,-48.25"/>
</g>
<!-- Node31&#45;&gt;Node11 -->
<g id="edge56" class="edge">
<title>Node31&#45;&gt;Node11</title>
<path fill="none" stroke="midnightblue" d="M1271.56,-55.09C1210.91,-44.88 1117.42,-29.15 1060.04,-19.5"/>
<polygon fill="midnightblue" stroke="midnightblue" points="1271.3,-58.59 1281.75,-56.8 1272.47,-51.69 1271.3,-58.59"/>
</g>
<!-- Node31&#45;&gt;Node12 -->
<g id="edge57" class="edge">
<title>Node31&#45;&gt;Node12</title>
<path fill="none" stroke="midnightblue" d="M1362.43,-52.77C1388.91,-42.63 1425.89,-28.47 1449.26,-19.52"/>
<polygon fill="midnightblue" stroke="midnightblue" points="1360.93,-49.6 1352.84,-56.44 1363.43,-56.14 1360.93,-49.6"/>
</g>
<!-- Node32 -->
<g id="node32" class="node">
<title>Node32</title>
<g id="a_node32"><a xlink:href="_o_m_sim_p_d_o_m_8cc.html" target="_top" xlink:title=" ">
<polygon fill="white" stroke="black" points="1108,-0.5 1108,-19.5 1203,-19.5 1203,-0.5 1108,-0.5"/>
<text text-anchor="middle" x="1155.5" y="-7.5" font-family="Helvetica,sans-Serif" font-size="10.00">OMSimPDOM.cc</text>
</a>
</g>
</g>
<!-- Node31&#45;&gt;Node32 -->
<g id="edge54" class="edge">
<title>Node31&#45;&gt;Node32</title>
<path fill="none" stroke="midnightblue" d="M1293.03,-53.44C1260.03,-43.26 1212.74,-28.66 1183.1,-19.52"/>
<polygon fill="midnightblue" stroke="midnightblue" points="1292.18,-56.84 1302.77,-56.44 1294.25,-50.15 1292.18,-56.84"/>
</g>
<!-- Node34&#45;&gt;Node21 -->
<g id="edge60" class="edge">
<title>Node34&#45;&gt;Node21</title>
<path fill="none" stroke="midnightblue" d="M371.28,-110.99C307.58,-101.42 222.45,-86.89 210.5,-76 194.34,-61.27 191.63,-33.63 191.36,-19.62"/>
<polygon fill="midnightblue" stroke="midnightblue" points="370.9,-114.47 381.31,-112.48 371.93,-107.54 370.9,-114.47"/>
</g>
<!-- Node35 -->
<g id="node35" class="node">
<title>Node35</title>
<g id="a_node35"><a xlink:href="_o_m_sim_decays_g_p_s_8cc.html" target="_top" xlink:title=" ">
<polygon fill="white" stroke="black" points="220,-56.5 220,-75.5 341,-75.5 341,-56.5 220,-56.5"/>
<text text-anchor="middle" x="280.5" y="-63.5" font-family="Helvetica,sans-Serif" font-size="10.00">OMSimDecaysGPS.cc</text>
</a>
</g>
</g>
<!-- Node34&#45;&gt;Node35 -->
<g id="edge61" class="edge">
<title>Node34&#45;&gt;Node35</title>
<path fill="none" stroke="midnightblue" d="M407.02,-109.17C376.51,-99 333.26,-84.59 306.05,-75.52"/>
<polygon fill="midnightblue" stroke="midnightblue" points="406.24,-112.6 416.83,-112.44 408.45,-105.96 406.24,-112.6"/>
</g>
<!-- Node36 -->
<g id="node36" class="node">
<title>Node36</title>
<g id="a_node36"><a xlink:href="_o_m_sim_g4_radioactive_decay_8cc.html" target="_top" xlink:title=" ">
<polygon fill="white" stroke="black" points="359.5,-56.5 359.5,-75.5 525.5,-75.5 525.5,-56.5 359.5,-56.5"/>
<text text-anchor="middle" x="442.5" y="-63.5" font-family="Helvetica,sans-Serif" font-size="10.00">OMSimG4RadioactiveDecay.cc</text>
</a>
</g>
</g>
<!-- Node34&#45;&gt;Node36 -->
<g id="edge62" class="edge">
<title>Node34&#45;&gt;Node36</title>
<path fill="none" stroke="midnightblue" d="M442.5,-101.8C442.5,-92.91 442.5,-82.78 442.5,-75.75"/>
<polygon fill="midnightblue" stroke="midnightblue" points="439,-102.08 442.5,-112.08 446,-102.08 439,-102.08"/>
</g>
<!-- Node37&#45;&gt;Node5 -->
<g id="edge68" class="edge">
<title>Node37&#45;&gt;Node5</title>
<path fill="none" stroke="midnightblue" d="M1431.01,-219.8C1468.21,-201.32 1531.98,-169.78 1537.5,-168 1609.86,-144.69 1697.47,-132.8 1751.35,-127.25"/>
<polygon fill="midnightblue" stroke="midnightblue" points="1429.14,-216.83 1421.74,-224.41 1432.25,-223.09 1429.14,-216.83"/>
</g>
<!-- Node37&#45;&gt;Node14 -->
<g id="edge69" class="edge">
<title>Node37&#45;&gt;Node14</title>
<path fill="none" stroke="midnightblue" d="M1351.94,-222.41C1301.29,-212.2 1225.63,-196.96 1178.77,-187.52"/>
<polygon fill="midnightblue" stroke="midnightblue" points="1351.54,-225.9 1362.03,-224.44 1352.92,-219.04 1351.54,-225.9"/>
</g>
<!-- Node37&#45;&gt;Node15 -->
<g id="edge65" class="edge">
<title>Node37&#45;&gt;Node15</title>
<path fill="none" stroke="midnightblue" d="M1410.55,-214.86C1413.17,-206.7 1416.16,-196.91 1418.5,-188 1429.46,-146.23 1439.24,-95.46 1442.93,-75.57"/>
<polygon fill="midnightblue" stroke="midnightblue" points="1407.2,-213.85 1407.42,-224.44 1413.85,-216.02 1407.2,-213.85"/>
</g>
<!-- Node37&#45;&gt;Node23 -->
<g id="edge74" class="edge">
<title>Node37&#45;&gt;Node23</title>
<path fill="none" stroke="midnightblue" d="M1401.04,-214.38C1395.05,-187.53 1380.1,-138.26 1347.5,-112 1327.31,-95.74 1264.59,-83.2 1215.48,-75.54"/>
<polygon fill="midnightblue" stroke="midnightblue" points="1397.66,-215.29 1403.09,-224.39 1404.51,-213.89 1397.66,-215.29"/>
</g>
<!-- Node37&#45;&gt;Node27 -->
<g id="edge66" class="edge">
<title>Node37&#45;&gt;Node27</title>
<path fill="none" stroke="midnightblue" d="M1422.35,-217.8C1462.35,-183.75 1558.07,-102.27 1589.39,-75.61"/>
<polygon fill="midnightblue" stroke="midnightblue" points="1420.06,-215.16 1414.71,-224.31 1424.59,-220.49 1420.06,-215.16"/>
</g>
<!-- Node37&#45;&gt;Node29 -->
<g id="edge67" class="edge">
<title>Node37&#45;&gt;Node29</title>
<path fill="none" stroke="midnightblue" d="M1319.63,-231.57C1230.57,-228.43 1098.08,-218.57 1058.5,-188 1021.55,-159.46 1012.34,-98.5 1010.15,-75.78"/>
<polygon fill="midnightblue" stroke="midnightblue" points="1319.62,-235.07 1329.73,-231.91 1319.85,-228.08 1319.62,-235.07"/>
</g>
<!-- Node37&#45;&gt;Node31 -->
<g id="edge70" class="edge">
<title>Node37&#45;&gt;Node31</title>
<path fill="none" stroke="midnightblue" d="M1404.38,-214.22C1403.45,-189.29 1399.05,-144.63 1380.5,-112 1371.73,-96.57 1355.75,-83.6 1344.21,-75.61"/>
<polygon fill="midnightblue" stroke="midnightblue" points="1400.88,-214.53 1404.6,-224.45 1407.88,-214.37 1400.88,-214.53"/>
</g>
<!-- Node37&#45;&gt;Node33 -->
<g id="edge73" class="edge">
<title>Node37&#45;&gt;Node33</title>
<path fill="none" stroke="midnightblue" d="M1386,-217.82C1357.46,-194.39 1303.62,-150.19 1280.97,-131.59"/>
<polygon fill="midnightblue" stroke="midnightblue" points="1384.04,-220.73 1393.99,-224.37 1388.48,-215.32 1384.04,-220.73"/>
</g>
<!-- Node37&#45;&gt;Node37 -->
<g id="edge71" class="edge">
<title>Node37&#45;&gt;Node37</title>
<path fill="none" stroke="midnightblue" d="M1453.93,-244.29C1476.91,-245.42 1497,-241.99 1497,-234 1497,-224.87 1470.76,-221.69 1443.95,-224.47"/>
<polygon fill="midnightblue" stroke="midnightblue" points="1454.19,-240.8 1443.95,-243.53 1453.65,-247.78 1454.19,-240.8"/>
</g>
<!-- Node37&#45;&gt;Node38 -->
<g id="edge72" class="edge">
<title>Node37&#45;&gt;Node38</title>
<path fill="none" stroke="midnightblue" d="M1448.46,-221.96C1489.07,-211.76 1548.54,-196.82 1585.59,-187.52"/>
<polygon fill="midnightblue" stroke="midnightblue" points="1447.41,-218.61 1438.57,-224.44 1449.12,-225.4 1447.41,-218.61"/>
</g>
</g>
</svg>
