<?xml version="1.0" encoding="UTF-8" standalone="no"?>
<!DOCTYPE svg PUBLIC "-//W3C//DTD SVG 1.1//EN"
 "http://www.w3.org/Graphics/SVG/1.1/DTD/svg11.dtd">
<!-- Generated by graphviz version 2.43.0 (0)
 -->
<!-- Title: abcDetectorComponent.cc Pages: 1 -->
<svg width="1268pt" height="330pt"
 viewBox="0.00 0.00 1267.50 330.00" xmlns="http://www.w3.org/2000/svg" xmlns:xlink="http://www.w3.org/1999/xlink">
<g id="graph0" class="graph" transform="scale(1 1) rotate(0) translate(4 326)">
<title>abcDetectorComponent.cc</title>
<polygon fill="white" stroke="transparent" points="-4,4 -4,-326 1263.5,-326 1263.5,4 -4,4"/>
<!-- Node1 -->
<g id="node1" class="node">
<title>Node1</title>
<g id="a_node1"><a xlink:title=" ">
<polygon fill="#bfbfbf" stroke="black" points="543.5,-302.5 543.5,-321.5 689.5,-321.5 689.5,-302.5 543.5,-302.5"/>
<text text-anchor="middle" x="616.5" y="-309.5" font-family="Helvetica,sans-Serif" font-size="10.00">abcDetectorComponent.cc</text>
</a>
</g>
</g>
<!-- Node2 -->
<g id="node2" class="node">
<title>Node2</title>
<g id="a_node2"><a xlink:href="abc_detector_component_8hh.html" target="_top" xlink:title="Provides helper base class abcDetectorComponent for constructing and managing detector components in ...">
<polygon fill="white" stroke="black" points="543,-190.5 543,-209.5 690,-209.5 690,-190.5 543,-190.5"/>
<text text-anchor="middle" x="616.5" y="-197.5" font-family="Helvetica,sans-Serif" font-size="10.00">abcDetectorComponent.hh</text>
</a>
</g>
</g>
<!-- Node1&#45;&gt;Node2 -->
<g id="edge1" class="edge">
<title>Node1&#45;&gt;Node2</title>
<path fill="none" stroke="midnightblue" d="M616.5,-302.37C616.5,-284.62 616.5,-243.67 616.5,-219.6"/>
<polygon fill="midnightblue" stroke="midnightblue" points="620,-219.59 616.5,-209.59 613,-219.59 620,-219.59"/>
</g>
<!-- Node4 -->
<g id="node4" class="node">
<title>Node4</title>
<g id="a_node4"><a xlink:href="_o_m_sim_logger_8hh.html" target="_top" xlink:title=" ">
<polygon fill="white" stroke="black" points="168,-73 168,-92 267,-92 267,-73 168,-73"/>
<text text-anchor="middle" x="217.5" y="-80" font-family="Helvetica,sans-Serif" font-size="10.00">OMSimLogger.hh</text>
</a>
</g>
</g>
<!-- Node1&#45;&gt;Node4 -->
<g id="edge26" class="edge">
<title>Node1&#45;&gt;Node4</title>
<path fill="none" stroke="midnightblue" d="M547.96,-302.47C461.56,-287.92 314.87,-249.89 236.5,-154 224.61,-139.45 220.12,-118.12 218.45,-102.73"/>
<polygon fill="midnightblue" stroke="midnightblue" points="221.9,-102.03 217.64,-92.34 214.92,-102.58 221.9,-102.03"/>
</g>
<!-- Node10 -->
<g id="node10" class="node">
<title>Node10</title>
<g id="a_node10"><a xlink:title=" ">
<polygon fill="white" stroke="#bfbfbf" points="577,-73 577,-92 696,-92 696,-73 577,-73"/>
<text text-anchor="middle" x="636.5" y="-80" font-family="Helvetica,sans-Serif" font-size="10.00">G4SystemOfUnits.hh</text>
</a>
</g>
</g>
<!-- Node1&#45;&gt;Node10 -->
<g id="edge29" class="edge">
<title>Node1&#45;&gt;Node10</title>
<path fill="none" stroke="midnightblue" d="M606.2,-302.15C576.57,-275.61 495.61,-194.77 533.5,-134 545.42,-114.89 566.9,-102.81 587.18,-95.27"/>
<polygon fill="midnightblue" stroke="midnightblue" points="588.35,-98.57 596.68,-92.03 586.09,-91.95 588.35,-98.57"/>
</g>
<!-- Node12 -->
<g id="node12" class="node">
<title>Node12</title>
<g id="a_node12"><a xlink:title=" ">
<polygon fill="white" stroke="#bfbfbf" points="246,-134.5 246,-153.5 353,-153.5 353,-134.5 246,-134.5"/>
<text text-anchor="middle" x="299.5" y="-141.5" font-family="Helvetica,sans-Serif" font-size="10.00">G4Transform3D.hh</text>
</a>
</g>
</g>
<!-- Node1&#45;&gt;Node12 -->
<g id="edge30" class="edge">
<title>Node1&#45;&gt;Node12</title>
<path fill="none" stroke="midnightblue" d="M590.62,-302.4C566.74,-294.13 530.56,-280.74 500.5,-266 432.35,-232.58 356.91,-183.7 320.91,-159.58"/>
<polygon fill="midnightblue" stroke="midnightblue" points="322.48,-156.42 312.23,-153.73 318.57,-162.22 322.48,-156.42"/>
</g>
<!-- Node15 -->
<g id="node15" class="node">
<title>Node15</title>
<g id="a_node15"><a xlink:title=" ">
<polygon fill="white" stroke="#bfbfbf" points="812.5,-134.5 812.5,-153.5 922.5,-153.5 922.5,-134.5 812.5,-134.5"/>
<text text-anchor="middle" x="867.5" y="-141.5" font-family="Helvetica,sans-Serif" font-size="10.00">G4PVPlacement.hh</text>
</a>
</g>
</g>
<!-- Node1&#45;&gt;Node15 -->
<g id="edge28" class="edge">
<title>Node1&#45;&gt;Node15</title>
<path fill="none" stroke="midnightblue" d="M626.58,-302.39C651.27,-281.55 717.14,-227.35 777.5,-190 797.18,-177.82 820.59,-166.2 838.6,-157.82"/>
<polygon fill="midnightblue" stroke="midnightblue" points="840.36,-160.86 848,-153.51 837.45,-154.5 840.36,-160.86"/>
</g>
<!-- Node16 -->
<g id="node16" class="node">
<title>Node16</title>
<g id="a_node16"><a xlink:href="_o_m_sim_p_m_t_construction_8hh.html" target="_top" xlink:title="Construction of the PMTs.">
<polygon fill="white" stroke="black" points="746,-246.5 746,-265.5 895,-265.5 895,-246.5 746,-246.5"/>
<text text-anchor="middle" x="820.5" y="-253.5" font-family="Helvetica,sans-Serif" font-size="10.00">OMSimPMTConstruction.hh</text>
</a>
</g>
</g>
<!-- Node1&#45;&gt;Node16 -->
<g id="edge15" class="edge">
<title>Node1&#45;&gt;Node16</title>
<path fill="none" stroke="midnightblue" d="M648.82,-302.44C683.89,-293.16 740,-278.31 778.46,-268.13"/>
<polygon fill="midnightblue" stroke="midnightblue" points="779.56,-271.46 788.33,-265.52 777.76,-264.69 779.56,-271.46"/>
</g>
<!-- Node24 -->
<g id="node24" class="node">
<title>Node24</title>
<g id="a_node24"><a xlink:title=" ">
<polygon fill="white" stroke="#bfbfbf" points="930.5,-246.5 930.5,-265.5 1046.5,-265.5 1046.5,-246.5 930.5,-246.5"/>
<text text-anchor="middle" x="988.5" y="-253.5" font-family="Helvetica,sans-Serif" font-size="10.00">G4LogicalVolume.hh</text>
</a>
</g>
</g>
<!-- Node1&#45;&gt;Node24 -->
<g id="edge27" class="edge">
<title>Node1&#45;&gt;Node24</title>
<path fill="none" stroke="midnightblue" d="M675.44,-302.44C742.03,-292.78 850.23,-277.07 920.38,-266.89"/>
<polygon fill="midnightblue" stroke="midnightblue" points="921.05,-270.33 930.44,-265.43 920.04,-263.4 921.05,-270.33"/>
</g>
<!-- Node3 -->
<g id="node3" class="node">
<title>Node3</title>
<g id="a_node3"><a xlink:href="_o_m_sim_input_data_8hh.html" target="_top" xlink:title="Definition of ParameterTable and InputDataManager.">
<polygon fill="white" stroke="black" points="371,-134.5 371,-153.5 486,-153.5 486,-134.5 371,-134.5"/>
<text text-anchor="middle" x="428.5" y="-141.5" font-family="Helvetica,sans-Serif" font-size="10.00">OMSimInputData.hh</text>
</a>
</g>
</g>
<!-- Node2&#45;&gt;Node3 -->
<g id="edge2" class="edge">
<title>Node2&#45;&gt;Node3</title>
<path fill="none" stroke="midnightblue" d="M586.71,-190.44C554.67,-181.24 503.57,-166.56 468.15,-156.39"/>
<polygon fill="midnightblue" stroke="midnightblue" points="468.73,-152.91 458.15,-153.52 466.79,-159.64 468.73,-152.91"/>
</g>
<!-- Node2&#45;&gt;Node12 -->
<g id="edge11" class="edge">
<title>Node2&#45;&gt;Node12</title>
<path fill="none" stroke="midnightblue" d="M566.27,-190.44C510.16,-180.89 419.37,-165.42 359.55,-155.23"/>
<polygon fill="midnightblue" stroke="midnightblue" points="359.94,-151.75 349.49,-153.52 358.76,-158.65 359.94,-151.75"/>
</g>
<!-- Node13 -->
<g id="node13" class="node">
<title>Node13</title>
<g id="a_node13"><a xlink:title=" ">
<polygon fill="white" stroke="#bfbfbf" points="542.5,-134.5 542.5,-153.5 650.5,-153.5 650.5,-134.5 542.5,-134.5"/>
<text text-anchor="middle" x="596.5" y="-141.5" font-family="Helvetica,sans-Serif" font-size="10.00">G4VisAttributes.hh</text>
</a>
</g>
</g>
<!-- Node2&#45;&gt;Node13 -->
<g id="edge12" class="edge">
<title>Node2&#45;&gt;Node13</title>
<path fill="none" stroke="midnightblue" d="M613.2,-190.08C610.52,-182.85 606.65,-172.41 603.31,-163.4"/>
<polygon fill="midnightblue" stroke="midnightblue" points="606.5,-161.91 599.74,-153.75 599.93,-164.34 606.5,-161.91"/>
</g>
<!-- Node14 -->
<g id="node14" class="node">
<title>Node14</title>
<g id="a_node14"><a xlink:title=" ">
<polygon fill="white" stroke="#bfbfbf" points="669,-134.5 669,-153.5 794,-153.5 794,-134.5 669,-134.5"/>
<text text-anchor="middle" x="731.5" y="-141.5" font-family="Helvetica,sans-Serif" font-size="10.00">G4SubtractionSolid.hh</text>
</a>
</g>
</g>
<!-- Node2&#45;&gt;Node14 -->
<g id="edge13" class="edge">
<title>Node2&#45;&gt;Node14</title>
<path fill="none" stroke="midnightblue" d="M634.72,-190.44C653.4,-181.68 682.66,-167.94 704.12,-157.86"/>
<polygon fill="midnightblue" stroke="midnightblue" points="705.8,-160.93 713.36,-153.52 702.82,-154.6 705.8,-160.93"/>
</g>
<!-- Node2&#45;&gt;Node15 -->
<g id="edge14" class="edge">
<title>Node2&#45;&gt;Node15</title>
<path fill="none" stroke="midnightblue" d="M656.27,-190.44C700.06,-181.02 770.51,-165.87 817.88,-155.68"/>
<polygon fill="midnightblue" stroke="midnightblue" points="818.87,-159.04 827.91,-153.52 817.4,-152.2 818.87,-159.04"/>
</g>
<!-- Node3&#45;&gt;Node4 -->
<g id="edge3" class="edge">
<title>Node3&#45;&gt;Node4</title>
<path fill="none" stroke="midnightblue" d="M398.27,-134.48C361.21,-124.03 298.31,-106.29 257.34,-94.73"/>
<polygon fill="midnightblue" stroke="midnightblue" points="258.25,-91.35 247.68,-92.01 256.35,-98.09 258.25,-91.35"/>
</g>
<!-- Node9 -->
<g id="node9" class="node">
<title>Node9</title>
<g id="a_node9"><a xlink:title=" ">
<polygon fill="white" stroke="#bfbfbf" points="416,-73 416,-92 559,-92 559,-73 416,-73"/>
<text text-anchor="middle" x="487.5" y="-80" font-family="Helvetica,sans-Serif" font-size="10.00">G4OpBoundaryProcess.hh</text>
</a>
</g>
</g>
<!-- Node3&#45;&gt;Node9 -->
<g id="edge8" class="edge">
<title>Node3&#45;&gt;Node9</title>
<path fill="none" stroke="midnightblue" d="M436.95,-134.48C446.07,-125.28 460.77,-110.46 471.98,-99.16"/>
<polygon fill="midnightblue" stroke="midnightblue" points="474.51,-101.57 479.06,-92.01 469.54,-96.65 474.51,-101.57"/>
</g>
<!-- Node3&#45;&gt;Node10 -->
<g id="edge9" class="edge">
<title>Node3&#45;&gt;Node10</title>
<path fill="none" stroke="midnightblue" d="M458.3,-134.48C494.75,-124.05 556.58,-106.36 596.97,-94.81"/>
<polygon fill="midnightblue" stroke="midnightblue" points="598.1,-98.12 606.75,-92.01 596.18,-91.39 598.1,-98.12"/>
</g>
<!-- Node11 -->
<g id="node11" class="node">
<title>Node11</title>
<g id="a_node11"><a xlink:title=" ">
<polygon fill="white" stroke="#bfbfbf" points="285,-67.5 285,-97.5 398,-97.5 398,-67.5 285,-67.5"/>
<text text-anchor="start" x="293" y="-85.5" font-family="Helvetica,sans-Serif" font-size="10.00">boost/property_tree</text>
<text text-anchor="middle" x="341.5" y="-74.5" font-family="Helvetica,sans-Serif" font-size="10.00">/json_parser.hpp</text>
</a>
</g>
</g>
<!-- Node3&#45;&gt;Node11 -->
<g id="edge10" class="edge">
<title>Node3&#45;&gt;Node11</title>
<path fill="none" stroke="midnightblue" d="M416.04,-134.48C404.14,-126.34 385.79,-113.79 370.27,-103.18"/>
<polygon fill="midnightblue" stroke="midnightblue" points="372.23,-100.28 362,-97.52 368.28,-106.06 372.23,-100.28"/>
</g>
<!-- Node5 -->
<g id="node5" class="node">
<title>Node5</title>
<g id="a_node5"><a xlink:title=" ">
<polygon fill="white" stroke="#bfbfbf" points="0,-6 0,-25 93,-25 93,-6 0,-6"/>
<text text-anchor="middle" x="46.5" y="-13" font-family="Helvetica,sans-Serif" font-size="10.00">spdlog/spdlog.h</text>
</a>
</g>
</g>
<!-- Node4&#45;&gt;Node5 -->
<g id="edge4" class="edge">
<title>Node4&#45;&gt;Node5</title>
<path fill="none" stroke="midnightblue" d="M194.79,-72.87C164.94,-61.52 112.33,-41.52 78.47,-28.65"/>
<polygon fill="midnightblue" stroke="midnightblue" points="79.62,-25.35 69.03,-25.06 77.13,-31.89 79.62,-25.35"/>
</g>
<!-- Node6 -->
<g id="node6" class="node">
<title>Node6</title>
<g id="a_node6"><a xlink:title=" ">
<polygon fill="white" stroke="#bfbfbf" points="111,-0.5 111,-30.5 222,-30.5 222,-0.5 111,-0.5"/>
<text text-anchor="start" x="119" y="-18.5" font-family="Helvetica,sans-Serif" font-size="10.00">spdlog/sinks/stdout</text>
<text text-anchor="middle" x="166.5" y="-7.5" font-family="Helvetica,sans-Serif" font-size="10.00">_color_sinks.h</text>
</a>
</g>
</g>
<!-- Node4&#45;&gt;Node6 -->
<g id="edge5" class="edge">
<title>Node4&#45;&gt;Node6</title>
<path fill="none" stroke="midnightblue" d="M210.62,-72.73C203.8,-64.03 193.06,-50.34 183.88,-38.65"/>
<polygon fill="midnightblue" stroke="midnightblue" points="186.48,-36.3 177.55,-30.59 180.97,-40.62 186.48,-36.3"/>
</g>
<!-- Node7 -->
<g id="node7" class="node">
<title>Node7</title>
<g id="a_node7"><a xlink:title=" ">
<polygon fill="white" stroke="#bfbfbf" points="240.5,-6 240.5,-25 298.5,-25 298.5,-6 240.5,-6"/>
<text text-anchor="middle" x="269.5" y="-13" font-family="Helvetica,sans-Serif" font-size="10.00">memory</text>
</a>
</g>
</g>
<!-- Node4&#45;&gt;Node7 -->
<g id="edge6" class="edge">
<title>Node4&#45;&gt;Node7</title>
<path fill="none" stroke="midnightblue" d="M224.51,-72.73C232.62,-62.6 246.15,-45.69 256.26,-33.06"/>
<polygon fill="midnightblue" stroke="midnightblue" points="259.08,-35.12 262.6,-25.13 253.62,-30.75 259.08,-35.12"/>
</g>
<!-- Node8 -->
<g id="node8" class="node">
<title>Node8</title>
<g id="a_node8"><a xlink:title=" ">
<polygon fill="white" stroke="#bfbfbf" points="316.5,-6 316.5,-25 414.5,-25 414.5,-6 316.5,-6"/>
<text text-anchor="middle" x="365.5" y="-13" font-family="Helvetica,sans-Serif" font-size="10.00">spdlog/fmt/fmt.h</text>
</a>
</g>
</g>
<!-- Node4&#45;&gt;Node8 -->
<g id="edge7" class="edge">
<title>Node4&#45;&gt;Node8</title>
<path fill="none" stroke="midnightblue" d="M237.15,-72.87C262.59,-61.7 307.1,-42.15 336.45,-29.26"/>
<polygon fill="midnightblue" stroke="midnightblue" points="338.02,-32.39 345.77,-25.17 335.2,-25.98 338.02,-32.39"/>
</g>
<!-- Node16&#45;&gt;Node2 -->
<g id="edge16" class="edge">
<title>Node16&#45;&gt;Node2</title>
<path fill="none" stroke="midnightblue" d="M788.18,-246.44C753.11,-237.16 697,-222.31 658.54,-212.13"/>
<polygon fill="midnightblue" stroke="midnightblue" points="659.24,-208.69 648.67,-209.52 657.44,-215.46 659.24,-208.69"/>
</g>
<!-- Node16&#45;&gt;Node16 -->
<g id="edge17" class="edge">
<title>Node16&#45;&gt;Node16</title>
<path fill="none" stroke="midnightblue" d="M859.95,-265.53C886.76,-268.31 913,-265.13 913,-256 913,-248.01 892.91,-244.58 869.93,-245.71"/>
<polygon fill="midnightblue" stroke="midnightblue" points="869.65,-242.22 859.95,-246.47 870.19,-249.2 869.65,-242.22"/>
</g>
<!-- Node17 -->
<g id="node17" class="node">
<title>Node17</title>
<g id="a_node17"><a xlink:href="_o_m_sim_p_m_t_response_8hh.html" target="_top" xlink:title="Provides simulation for PMT response. This class is responsible for transforming hits on photocathode...">
<polygon fill="white" stroke="black" points="979,-190.5 979,-209.5 1114,-209.5 1114,-190.5 979,-190.5"/>
<text text-anchor="middle" x="1046.5" y="-197.5" font-family="Helvetica,sans-Serif" font-size="10.00">OMSimPMTResponse.hh</text>
</a>
</g>
</g>
<!-- Node16&#45;&gt;Node17 -->
<g id="edge18" class="edge">
<title>Node16&#45;&gt;Node17</title>
<path fill="none" stroke="midnightblue" d="M856.31,-246.44C895.49,-237.08 958.38,-222.06 1001.02,-211.87"/>
<polygon fill="midnightblue" stroke="midnightblue" points="1001.94,-215.24 1010.86,-209.52 1000.32,-208.44 1001.94,-215.24"/>
</g>
<!-- Node22 -->
<g id="node22" class="node">
<title>Node22</title>
<g id="a_node22"><a xlink:title=" ">
<polygon fill="white" stroke="#bfbfbf" points="1132.5,-190.5 1132.5,-209.5 1230.5,-209.5 1230.5,-190.5 1132.5,-190.5"/>
<text text-anchor="middle" x="1181.5" y="-197.5" font-family="Helvetica,sans-Serif" font-size="10.00">G4UnionSolid.hh</text>
</a>
</g>
</g>
<!-- Node16&#45;&gt;Node22 -->
<g id="edge24" class="edge">
<title>Node16&#45;&gt;Node22</title>
<path fill="none" stroke="midnightblue" d="M878.6,-246.49C937.47,-237.83 1031.43,-223.95 1122.51,-210.14"/>
<polygon fill="midnightblue" stroke="midnightblue" points="1123.09,-213.59 1132.46,-208.63 1122.04,-206.67 1123.09,-213.59"/>
</g>
<!-- Node23 -->
<g id="node23" class="node">
<title>Node23</title>
<g id="a_node23"><a xlink:title=" ">
<polygon fill="white" stroke="#bfbfbf" points="787,-190.5 787,-209.5 854,-209.5 854,-190.5 787,-190.5"/>
<text text-anchor="middle" x="820.5" y="-197.5" font-family="Helvetica,sans-Serif" font-size="10.00">G4Tubs.hh</text>
</a>
</g>
</g>
<!-- Node16&#45;&gt;Node23 -->
<g id="edge25" class="edge">
<title>Node16&#45;&gt;Node23</title>
<path fill="none" stroke="midnightblue" d="M820.5,-246.08C820.5,-239.01 820.5,-228.86 820.5,-219.99"/>
<polygon fill="midnightblue" stroke="midnightblue" points="824,-219.75 820.5,-209.75 817,-219.75 824,-219.75"/>
</g>
<!-- Node17&#45;&gt;Node10 -->
<g id="edge19" class="edge">
<title>Node17&#45;&gt;Node10</title>
<path fill="none" stroke="midnightblue" d="M1057.45,-190.45C1073.07,-177.26 1098.23,-151.61 1082.5,-134 1057.91,-106.47 825.39,-92.03 706.21,-86.38"/>
<polygon fill="midnightblue" stroke="midnightblue" points="706.24,-82.88 696.09,-85.91 705.92,-89.87 706.24,-82.88"/>
</g>
<!-- Node18 -->
<g id="node18" class="node">
<title>Node18</title>
<g id="a_node18"><a xlink:title=" ">
<polygon fill="white" stroke="#bfbfbf" points="1130,-134.5 1130,-153.5 1203,-153.5 1203,-134.5 1130,-134.5"/>
<text text-anchor="middle" x="1166.5" y="-141.5" font-family="Helvetica,sans-Serif" font-size="10.00">G4Types.hh</text>
</a>
</g>
</g>
<!-- Node17&#45;&gt;Node18 -->
<g id="edge20" class="edge">
<title>Node17&#45;&gt;Node18</title>
<path fill="none" stroke="midnightblue" d="M1065.51,-190.44C1085.09,-181.64 1115.81,-167.81 1138.23,-157.72"/>
<polygon fill="midnightblue" stroke="midnightblue" points="1139.89,-160.81 1147.57,-153.52 1137.02,-154.43 1139.89,-160.81"/>
</g>
<!-- Node19 -->
<g id="node19" class="node">
<title>Node19</title>
<g id="a_node19"><a xlink:title=" ">
<polygon fill="white" stroke="#bfbfbf" points="1221.5,-134.5 1221.5,-153.5 1259.5,-153.5 1259.5,-134.5 1221.5,-134.5"/>
<text text-anchor="middle" x="1240.5" y="-141.5" font-family="Helvetica,sans-Serif" font-size="10.00">map</text>
</a>
</g>
</g>
<!-- Node17&#45;&gt;Node19 -->
<g id="edge21" class="edge">
<title>Node17&#45;&gt;Node19</title>
<path fill="none" stroke="midnightblue" d="M1079.7,-190.48C1111.26,-182.28 1160.3,-169.26 1211.36,-154.24"/>
<polygon fill="midnightblue" stroke="midnightblue" points="1212.66,-157.51 1221.26,-151.31 1210.67,-150.8 1212.66,-157.51"/>
</g>
<!-- Node20 -->
<g id="node20" class="node">
<title>Node20</title>
<g id="a_node20"><a xlink:title=" ">
<polygon fill="white" stroke="#bfbfbf" points="941,-134.5 941,-153.5 1002,-153.5 1002,-134.5 941,-134.5"/>
<text text-anchor="middle" x="971.5" y="-141.5" font-family="Helvetica,sans-Serif" font-size="10.00">TGraph.h</text>
</a>
</g>
</g>
<!-- Node17&#45;&gt;Node20 -->
<g id="edge22" class="edge">
<title>Node17&#45;&gt;Node20</title>
<path fill="none" stroke="midnightblue" d="M1034.45,-190.32C1023.04,-182.11 1005.67,-169.6 992.07,-159.81"/>
<polygon fill="midnightblue" stroke="midnightblue" points="993.93,-156.84 983.77,-153.83 989.84,-162.52 993.93,-156.84"/>
</g>
<!-- Node21 -->
<g id="node21" class="node">
<title>Node21</title>
<g id="a_node21"><a xlink:title=" ">
<polygon fill="white" stroke="#bfbfbf" points="1020,-134.5 1020,-153.5 1073,-153.5 1073,-134.5 1020,-134.5"/>
<text text-anchor="middle" x="1046.5" y="-141.5" font-family="Helvetica,sans-Serif" font-size="10.00">TH2D.h</text>
</a>
</g>
</g>
<!-- Node17&#45;&gt;Node21 -->
<g id="edge23" class="edge">
<title>Node17&#45;&gt;Node21</title>
<path fill="none" stroke="midnightblue" d="M1046.5,-190.08C1046.5,-183.01 1046.5,-172.86 1046.5,-163.99"/>
<polygon fill="midnightblue" stroke="midnightblue" points="1050,-163.75 1046.5,-153.75 1043,-163.75 1050,-163.75"/>
</g>
</g>
</svg>
