<?xml version="1.0" encoding="UTF-8" standalone="no"?>
<!DOCTYPE svg PUBLIC "-//W3C//DTD SVG 1.1//EN"
 "http://www.w3.org/Graphics/SVG/1.1/DTD/svg11.dtd">
<!-- Generated by graphviz version 2.43.0 (0)
 -->
<!-- Title: abcDetectorComponent.hh Pages: 1 -->
<svg width="2360pt" height="308pt"
 viewBox="0.00 0.00 2359.77 308.00" xmlns="http://www.w3.org/2000/svg" xmlns:xlink="http://www.w3.org/1999/xlink">
<g id="graph0" class="graph" transform="scale(1 1) rotate(0) translate(4 304)">
<title>abcDetectorComponent.hh</title>
<polygon fill="white" stroke="transparent" points="-4,4 -4,-304 2355.77,-304 2355.77,4 -4,4"/>
<!-- Node1 -->
<g id="node1" class="node">
<title>Node1</title>
<g id="a_node1"><a xlink:title="Provides helper base class abcDetectorComponent for constructing and managing detector components in ...">
<polygon fill="#bfbfbf" stroke="black" points="1292.27,-280.5 1292.27,-299.5 1439.27,-299.5 1439.27,-280.5 1292.27,-280.5"/>
<text text-anchor="middle" x="1365.77" y="-287.5" font-family="Helvetica,sans-Serif" font-size="10.00">abcDetectorComponent.hh</text>
</a>
</g>
</g>
<!-- Node2 -->
<g id="node2" class="node">
<title>Node2</title>
<g id="a_node2"><a xlink:href="_o_m_sim_d_e_g_g_harness_8hh.html" target="_top" xlink:title="Construction of the DEGG harness.">
<polygon fill="white" stroke="black" points="517.27,-224.5 517.27,-243.5 652.27,-243.5 652.27,-224.5 517.27,-224.5"/>
<text text-anchor="middle" x="584.77" y="-231.5" font-family="Helvetica,sans-Serif" font-size="10.00">OMSimDEGGHarness.hh</text>
</a>
</g>
</g>
<!-- Node1&#45;&gt;Node2 -->
<g id="edge1" class="edge">
<title>Node1&#45;&gt;Node2</title>
<path fill="none" stroke="midnightblue" d="M1281.84,-284.82C1150.52,-278 888.52,-263.3 666.77,-244 662.06,-243.59 657.2,-243.14 652.31,-242.66"/>
<polygon fill="midnightblue" stroke="midnightblue" points="1282.05,-288.34 1292.22,-285.36 1282.41,-281.35 1282.05,-288.34"/>
</g>
<!-- Node4 -->
<g id="node4" class="node">
<title>Node4</title>
<g id="a_node4"><a xlink:href="_o_m_sim_m_d_o_m_flasher_8hh.html" target="_top" xlink:title="Defines the mDOMFlasher class for simulating the 10 flashers in an mDOM optical module.">
<polygon fill="white" stroke="black" points="1565.27,-224.5 1565.27,-243.5 1700.27,-243.5 1700.27,-224.5 1565.27,-224.5"/>
<text text-anchor="middle" x="1632.77" y="-231.5" font-family="Helvetica,sans-Serif" font-size="10.00">OMSimMDOMFlasher.hh</text>
</a>
</g>
</g>
<!-- Node1&#45;&gt;Node4 -->
<g id="edge3" class="edge">
<title>Node1&#45;&gt;Node4</title>
<path fill="none" stroke="midnightblue" d="M1418.13,-278.41C1468.59,-268.2 1543.97,-252.96 1590.66,-243.52"/>
<polygon fill="midnightblue" stroke="midnightblue" points="1417.18,-275.03 1408.07,-280.44 1418.57,-281.89 1417.18,-275.03"/>
</g>
<!-- Node14 -->
<g id="node14" class="node">
<title>Node14</title>
<g id="a_node14"><a xlink:href="_o_m_sim_m_d_o_m_harness_8hh.html" target="_top" xlink:title="Construction of mDOM harness.">
<polygon fill="white" stroke="black" points="2096.77,-56.5 2096.77,-75.5 2236.77,-75.5 2236.77,-56.5 2096.77,-56.5"/>
<text text-anchor="middle" x="2166.77" y="-63.5" font-family="Helvetica,sans-Serif" font-size="10.00">OMSimMDOMHarness.hh</text>
</a>
</g>
</g>
<!-- Node1&#45;&gt;Node14 -->
<g id="edge13" class="edge">
<title>Node1&#45;&gt;Node14</title>
<path fill="none" stroke="midnightblue" d="M1449.43,-283.62C1519.53,-277.79 1621.82,-266.17 1708.77,-244 1886.36,-198.72 2088.7,-104.65 2148.95,-75.68"/>
<polygon fill="midnightblue" stroke="midnightblue" points="1449.01,-280.14 1439.32,-284.44 1449.57,-287.12 1449.01,-280.14"/>
</g>
<!-- Node15 -->
<g id="node15" class="node">
<title>Node15</title>
<g id="a_node15"><a xlink:href="_o_m_sim_optical_module_8hh.html" target="_top" xlink:title=" ">
<polygon fill="white" stroke="black" points="991.27,-168.5 991.27,-187.5 1128.27,-187.5 1128.27,-168.5 991.27,-168.5"/>
<text text-anchor="middle" x="1059.77" y="-175.5" font-family="Helvetica,sans-Serif" font-size="10.00">OMSimOpticalModule.hh</text>
</a>
</g>
</g>
<!-- Node1&#45;&gt;Node15 -->
<g id="edge16" class="edge">
<title>Node1&#45;&gt;Node15</title>
<path fill="none" stroke="midnightblue" d="M1332.29,-276.97C1270.05,-254.59 1137.91,-207.09 1083.72,-187.61"/>
<polygon fill="midnightblue" stroke="midnightblue" points="1331.42,-280.37 1342.01,-280.46 1333.78,-273.78 1331.42,-280.37"/>
</g>
<!-- Node26 -->
<g id="node26" class="node">
<title>Node26</title>
<g id="a_node26"><a xlink:href="_o_m_sim_rad_decays_detector_8hh.html" target="_top" xlink:title="Defines the OMSimRadDecaysDetector class for the radioactive decays simulation.">
<polygon fill="white" stroke="black" points="340.27,-56.5 340.27,-75.5 503.27,-75.5 503.27,-56.5 340.27,-56.5"/>
<text text-anchor="middle" x="421.77" y="-63.5" font-family="Helvetica,sans-Serif" font-size="10.00">OMSimRadDecaysDetector.hh</text>
</a>
</g>
</g>
<!-- Node1&#45;&gt;Node26 -->
<g id="edge81" class="edge">
<title>Node1&#45;&gt;Node26</title>
<path fill="none" stroke="midnightblue" d="M1318.99,-278.12C1209.7,-252.69 929.11,-187.31 694.77,-132 609.65,-111.91 509.68,-88.04 457.53,-75.56"/>
<polygon fill="midnightblue" stroke="midnightblue" points="1318.49,-281.6 1329.02,-280.46 1320.08,-274.78 1318.49,-281.6"/>
</g>
<!-- Node38 -->
<g id="node38" class="node">
<title>Node38</title>
<g id="a_node38"><a xlink:href="_o_m_sim_p_m_t_construction_8hh.html" target="_top" xlink:title="Construction of the PMTs.">
<polygon fill="white" stroke="black" points="1291.27,-224.5 1291.27,-243.5 1440.27,-243.5 1440.27,-224.5 1291.27,-224.5"/>
<text text-anchor="middle" x="1365.77" y="-231.5" font-family="Helvetica,sans-Serif" font-size="10.00">OMSimPMTConstruction.hh</text>
</a>
</g>
</g>
<!-- Node1&#45;&gt;Node38 -->
<g id="edge69" class="edge">
<title>Node1&#45;&gt;Node38</title>
<path fill="none" stroke="midnightblue" d="M1365.77,-269.8C1365.77,-260.91 1365.77,-250.78 1365.77,-243.75"/>
<polygon fill="midnightblue" stroke="midnightblue" points="1362.27,-270.08 1365.77,-280.08 1369.27,-270.08 1362.27,-270.08"/>
</g>
<!-- Node39 -->
<g id="node39" class="node">
<title>Node39</title>
<g id="a_node39"><a xlink:href="abc_detector_component_8cc.html" target="_top" xlink:title=" ">
<polygon fill="white" stroke="black" points="1507.77,-168.5 1507.77,-187.5 1653.77,-187.5 1653.77,-168.5 1507.77,-168.5"/>
<text text-anchor="middle" x="1580.77" y="-175.5" font-family="Helvetica,sans-Serif" font-size="10.00">abcDetectorComponent.cc</text>
</a>
</g>
</g>
<!-- Node1&#45;&gt;Node39 -->
<g id="edge80" class="edge">
<title>Node1&#45;&gt;Node39</title>
<path fill="none" stroke="midnightblue" d="M1395.9,-276.5C1416.17,-267.87 1443.36,-255.85 1466.77,-244 1503.56,-225.37 1545.31,-200.59 1566.62,-187.67"/>
<polygon fill="midnightblue" stroke="midnightblue" points="1394.4,-273.34 1386.55,-280.45 1397.12,-279.78 1394.4,-273.34"/>
</g>
<!-- Node3 -->
<g id="node3" class="node">
<title>Node3</title>
<g id="a_node3"><a xlink:href="_o_m_sim_d_e_g_g_harness_8cc.html" target="_top" xlink:title=" ">
<polygon fill="white" stroke="black" points="517.77,-168.5 517.77,-187.5 651.77,-187.5 651.77,-168.5 517.77,-168.5"/>
<text text-anchor="middle" x="584.77" y="-175.5" font-family="Helvetica,sans-Serif" font-size="10.00">OMSimDEGGHarness.cc</text>
</a>
</g>
</g>
<!-- Node2&#45;&gt;Node3 -->
<g id="edge2" class="edge">
<title>Node2&#45;&gt;Node3</title>
<path fill="none" stroke="midnightblue" d="M584.77,-213.8C584.77,-204.91 584.77,-194.78 584.77,-187.75"/>
<polygon fill="midnightblue" stroke="midnightblue" points="581.27,-214.08 584.77,-224.08 588.27,-214.08 581.27,-214.08"/>
</g>
<!-- Node5 -->
<g id="node5" class="node">
<title>Node5</title>
<g id="a_node5"><a xlink:href="_o_m_sim_m_d_o_m_8hh.html" target="_top" xlink:title="Construction of mDOM.">
<polygon fill="white" stroke="black" points="1605.77,-56.5 1605.77,-75.5 1705.77,-75.5 1705.77,-56.5 1605.77,-56.5"/>
<text text-anchor="middle" x="1655.77" y="-63.5" font-family="Helvetica,sans-Serif" font-size="10.00">OMSimMDOM.hh</text>
</a>
</g>
</g>
<!-- Node4&#45;&gt;Node5 -->
<g id="edge4" class="edge">
<title>Node4&#45;&gt;Node5</title>
<path fill="none" stroke="midnightblue" d="M1647.27,-216.4C1653.31,-208.39 1659.65,-198.3 1662.77,-188 1675.02,-147.52 1663.72,-96.01 1658.29,-75.75"/>
<polygon fill="midnightblue" stroke="midnightblue" points="1644.54,-214.2 1640.98,-224.18 1649.99,-218.6 1644.54,-214.2"/>
</g>
<!-- Node6 -->
<g id="node6" class="node">
<title>Node6</title>
<g id="a_node6"><a xlink:href="_o_m_sim_detector_construction_8cc.html" target="_top" xlink:title=" ">
<polygon fill="white" stroke="black" points="1646.27,-0.5 1646.27,-19.5 1815.27,-19.5 1815.27,-0.5 1646.27,-0.5"/>
<text text-anchor="middle" x="1730.77" y="-7.5" font-family="Helvetica,sans-Serif" font-size="10.00">OMSimDetectorConstruction.cc</text>
</a>
</g>
</g>
<!-- Node5&#45;&gt;Node6 -->
<g id="edge5" class="edge">
<title>Node5&#45;&gt;Node6</title>
<path fill="none" stroke="midnightblue" d="M1676.07,-50.38C1689.63,-40.62 1707.01,-28.11 1718.5,-19.83"/>
<polygon fill="midnightblue" stroke="midnightblue" points="1673.89,-47.64 1667.82,-56.32 1677.98,-53.32 1673.89,-47.64"/>
</g>
<!-- Node7 -->
<g id="node7" class="node">
<title>Node7</title>
<g id="a_node7"><a xlink:href="_o_m_sim_m_d_o_m_8cc.html" target="_top" xlink:title=" ">
<polygon fill="white" stroke="black" points="2253.77,-0.5 2253.77,-19.5 2351.77,-19.5 2351.77,-0.5 2253.77,-0.5"/>
<text text-anchor="middle" x="2302.77" y="-7.5" font-family="Helvetica,sans-Serif" font-size="10.00">OMSimMDOM.cc</text>
</a>
</g>
</g>
<!-- Node5&#45;&gt;Node7 -->
<g id="edge6" class="edge">
<title>Node5&#45;&gt;Node7</title>
<path fill="none" stroke="midnightblue" d="M1716.19,-61.94C1823.04,-56.17 2052.26,-42.26 2244.77,-20 2247.7,-19.66 2250.72,-19.28 2253.76,-18.88"/>
<polygon fill="midnightblue" stroke="midnightblue" points="1715.72,-58.46 1705.93,-62.49 1716.1,-65.45 1715.72,-58.46"/>
</g>
<!-- Node8 -->
<g id="node8" class="node">
<title>Node8</title>
<g id="a_node8"><a xlink:href="_o_m_sim_m_d_o_m_flasher_8cc.html" target="_top" xlink:title=" ">
<polygon fill="white" stroke="black" points="1945.77,-0.5 1945.77,-19.5 2079.77,-19.5 2079.77,-0.5 1945.77,-0.5"/>
<text text-anchor="middle" x="2012.77" y="-7.5" font-family="Helvetica,sans-Serif" font-size="10.00">OMSimMDOMFlasher.cc</text>
</a>
</g>
</g>
<!-- Node5&#45;&gt;Node8 -->
<g id="edge7" class="edge">
<title>Node5&#45;&gt;Node8</title>
<path fill="none" stroke="midnightblue" d="M1715.78,-55.92C1782.88,-45.77 1890.71,-29.46 1956.32,-19.54"/>
<polygon fill="midnightblue" stroke="midnightblue" points="1715.15,-52.48 1705.78,-57.43 1716.19,-59.4 1715.15,-52.48"/>
</g>
<!-- Node9 -->
<g id="node9" class="node">
<title>Node9</title>
<g id="a_node9"><a xlink:href="_o_m_sim_m_d_o_m_harness_8cc.html" target="_top" xlink:title=" ">
<polygon fill="white" stroke="black" points="2097.77,-0.5 2097.77,-19.5 2235.77,-19.5 2235.77,-0.5 2097.77,-0.5"/>
<text text-anchor="middle" x="2166.77" y="-7.5" font-family="Helvetica,sans-Serif" font-size="10.00">OMSimMDOMHarness.cc</text>
</a>
</g>
</g>
<!-- Node5&#45;&gt;Node9 -->
<g id="edge8" class="edge">
<title>Node5&#45;&gt;Node9</title>
<path fill="none" stroke="midnightblue" d="M1715.87,-58.97C1799.5,-50.53 1955.7,-34.59 2088.77,-20 2091.61,-19.69 2094.52,-19.37 2097.45,-19.04"/>
<polygon fill="midnightblue" stroke="midnightblue" points="1715.39,-55.5 1705.79,-59.99 1716.09,-62.47 1715.39,-55.5"/>
</g>
<!-- Node10 -->
<g id="node10" class="node">
<title>Node10</title>
<g id="a_node10"><a xlink:href="_o_m_sim_effective_area_detector_8cc.html" target="_top" xlink:title=" ">
<polygon fill="white" stroke="black" points="1189.77,-0.5 1189.77,-19.5 1361.77,-19.5 1361.77,-0.5 1189.77,-0.5"/>
<text text-anchor="middle" x="1275.77" y="-7.5" font-family="Helvetica,sans-Serif" font-size="10.00">OMSimEffectiveAreaDetector.cc</text>
</a>
</g>
</g>
<!-- Node5&#45;&gt;Node10 -->
<g id="edge9" class="edge">
<title>Node5&#45;&gt;Node10</title>
<path fill="none" stroke="midnightblue" d="M1595.55,-56.44C1524.38,-46.33 1406.68,-29.6 1335.66,-19.51"/>
<polygon fill="midnightblue" stroke="midnightblue" points="1595.3,-59.94 1605.7,-57.88 1596.29,-53.01 1595.3,-59.94"/>
</g>
<!-- Node11 -->
<g id="node11" class="node">
<title>Node11</title>
<g id="a_node11"><a xlink:href="_o_m_sim_rad_decays_detector_8cc.html" target="_top" xlink:title=" ">
<polygon fill="white" stroke="black" points="873.27,-0.5 873.27,-19.5 1034.27,-19.5 1034.27,-0.5 873.27,-0.5"/>
<text text-anchor="middle" x="953.77" y="-7.5" font-family="Helvetica,sans-Serif" font-size="10.00">OMSimRadDecaysDetector.cc</text>
</a>
</g>
</g>
<!-- Node5&#45;&gt;Node11 -->
<g id="edge10" class="edge">
<title>Node5&#45;&gt;Node11</title>
<path fill="none" stroke="midnightblue" d="M1595.4,-59.25C1582.96,-58.12 1569.94,-56.98 1557.77,-56 1329.07,-37.51 1271.38,-39.54 1042.77,-20 1039.98,-19.76 1037.15,-19.51 1034.29,-19.26"/>
<polygon fill="midnightblue" stroke="midnightblue" points="1595.4,-62.76 1605.68,-60.19 1596.04,-55.79 1595.4,-62.76"/>
</g>
<!-- Node12 -->
<g id="node12" class="node">
<title>Node12</title>
<g id="a_node12"><a xlink:href="_o_m_sim_yield_detector_8cc.html" target="_top" xlink:title=" ">
<polygon fill="white" stroke="black" points="1380.27,-0.5 1380.27,-19.5 1511.27,-19.5 1511.27,-0.5 1380.27,-0.5"/>
<text text-anchor="middle" x="1445.77" y="-7.5" font-family="Helvetica,sans-Serif" font-size="10.00">OMSimYieldDetector.cc</text>
</a>
</g>
</g>
<!-- Node5&#45;&gt;Node12 -->
<g id="edge11" class="edge">
<title>Node5&#45;&gt;Node12</title>
<path fill="none" stroke="midnightblue" d="M1612.58,-53.89C1572.92,-43.7 1515,-28.8 1478.89,-19.52"/>
<polygon fill="midnightblue" stroke="midnightblue" points="1611.93,-57.34 1622.49,-56.44 1613.68,-50.56 1611.93,-57.34"/>
</g>
<!-- Node13 -->
<g id="node13" class="node">
<title>Node13</title>
<g id="a_node13"><a xlink:href="_o_m_sim_s_ndetector_8cc.html" target="_top" xlink:title=" ">
<polygon fill="white" stroke="black" points="1052.27,-0.5 1052.27,-19.5 1171.27,-19.5 1171.27,-0.5 1052.27,-0.5"/>
<text text-anchor="middle" x="1111.77" y="-7.5" font-family="Helvetica,sans-Serif" font-size="10.00">OMSimSNdetector.cc</text>
</a>
</g>
</g>
<!-- Node5&#45;&gt;Node13 -->
<g id="edge12" class="edge">
<title>Node5&#45;&gt;Node13</title>
<path fill="none" stroke="midnightblue" d="M1595.55,-59.42C1476.93,-48.4 1221.01,-24.53 1180.77,-20 1177.77,-19.66 1174.69,-19.3 1171.59,-18.93"/>
<polygon fill="midnightblue" stroke="midnightblue" points="1595.28,-62.91 1605.56,-60.35 1595.93,-55.94 1595.28,-62.91"/>
</g>
<!-- Node14&#45;&gt;Node7 -->
<g id="edge14" class="edge">
<title>Node14&#45;&gt;Node7</title>
<path fill="none" stroke="midnightblue" d="M2197.9,-52.64C2223.42,-42.5 2258.88,-28.43 2281.32,-19.52"/>
<polygon fill="midnightblue" stroke="midnightblue" points="2196.32,-49.5 2188.32,-56.44 2198.9,-56.01 2196.32,-49.5"/>
</g>
<!-- Node14&#45;&gt;Node9 -->
<g id="edge15" class="edge">
<title>Node14&#45;&gt;Node9</title>
<path fill="none" stroke="midnightblue" d="M2166.77,-45.8C2166.77,-36.91 2166.77,-26.78 2166.77,-19.75"/>
<polygon fill="midnightblue" stroke="midnightblue" points="2163.27,-46.08 2166.77,-56.08 2170.27,-46.08 2163.27,-46.08"/>
</g>
<!-- Node15&#45;&gt;Node5 -->
<g id="edge55" class="edge">
<title>Node15&#45;&gt;Node5</title>
<path fill="none" stroke="midnightblue" d="M1080.05,-162.3C1105.43,-144.04 1146.55,-114.92 1154.77,-112 1338.42,-46.8 1398.08,-97.58 1591.77,-76 1596.23,-75.5 1600.86,-74.94 1605.49,-74.35"/>
<polygon fill="midnightblue" stroke="midnightblue" points="1077.87,-159.55 1071.81,-168.24 1081.97,-165.23 1077.87,-159.55"/>
</g>
<!-- Node16 -->
<g id="node16" class="node">
<title>Node16</title>
<g id="a_node16"><a xlink:href="_o_m_sim_d_e_g_g_8hh.html" target="_top" xlink:title="Construction of the DEGG class. From DOUMEKI.">
<polygon fill="white" stroke="black" points="1454.27,-56.5 1454.27,-75.5 1549.27,-75.5 1549.27,-56.5 1454.27,-56.5"/>
<text text-anchor="middle" x="1501.77" y="-63.5" font-family="Helvetica,sans-Serif" font-size="10.00">OMSimDEGG.hh</text>
</a>
</g>
</g>
<!-- Node15&#45;&gt;Node16 -->
<g id="edge17" class="edge">
<title>Node15&#45;&gt;Node16</title>
<path fill="none" stroke="midnightblue" d="M1070.84,-159.85C1081.79,-144.49 1100.01,-122.78 1121.77,-112 1251.2,-47.87 1301.61,-95.27 1444.77,-76 1447.84,-75.59 1451.01,-75.14 1454.2,-74.68"/>
<polygon fill="midnightblue" stroke="midnightblue" points="1067.73,-158.2 1065.01,-168.43 1073.52,-162.13 1067.73,-158.2"/>
</g>
<!-- Node18 -->
<g id="node18" class="node">
<title>Node18</title>
<g id="a_node18"><a xlink:href="_o_m_sim_detector_construction_8hh.html" target="_top" xlink:title=" ">
<polygon fill="white" stroke="black" points="746.77,-112.5 746.77,-131.5 916.77,-131.5 916.77,-112.5 746.77,-112.5"/>
<text text-anchor="middle" x="831.77" y="-119.5" font-family="Helvetica,sans-Serif" font-size="10.00">OMSimDetectorConstruction.hh</text>
</a>
</g>
</g>
<!-- Node15&#45;&gt;Node18 -->
<g id="edge24" class="edge">
<title>Node15&#45;&gt;Node18</title>
<path fill="none" stroke="midnightblue" d="M1013.7,-166.09C970.62,-155.89 907.18,-140.86 867.72,-131.52"/>
<polygon fill="midnightblue" stroke="midnightblue" points="1013.1,-169.54 1023.64,-168.44 1014.72,-162.73 1013.1,-169.54"/>
</g>
<!-- Node15&#45;&gt;Node26 -->
<g id="edge68" class="edge">
<title>Node15&#45;&gt;Node26</title>
<path fill="none" stroke="midnightblue" d="M980.66,-172.5C914.62,-167.19 818.57,-155.86 737.77,-132 717.55,-126.03 714.91,-118.22 694.77,-112 656.79,-100.28 553.81,-84.9 485.76,-75.5"/>
<polygon fill="midnightblue" stroke="midnightblue" points="980.75,-176.02 990.99,-173.3 981.29,-169.04 980.75,-176.02"/>
</g>
<!-- Node28 -->
<g id="node28" class="node">
<title>Node28</title>
<g id="a_node28"><a xlink:href="_o_m_sim_l_o_m16_8hh.html" target="_top" xlink:title="Construction of LOM16.">
<polygon fill="white" stroke="black" points="1335.27,-56.5 1335.27,-75.5 1436.27,-75.5 1436.27,-56.5 1335.27,-56.5"/>
<text text-anchor="middle" x="1385.77" y="-63.5" font-family="Helvetica,sans-Serif" font-size="10.00">OMSimLOM16.hh</text>
</a>
</g>
</g>
<!-- Node15&#45;&gt;Node28 -->
<g id="edge41" class="edge">
<title>Node15&#45;&gt;Node28</title>
<path fill="none" stroke="midnightblue" d="M1061.59,-158.12C1064.07,-143.26 1069.93,-123.24 1083.77,-112 1125.96,-77.71 1271.99,-84.03 1325.77,-76 1328.79,-75.55 1331.89,-75.08 1335.03,-74.62"/>
<polygon fill="midnightblue" stroke="midnightblue" points="1058.09,-157.88 1060.27,-168.24 1065.03,-158.78 1058.09,-157.88"/>
</g>
<!-- Node30 -->
<g id="node30" class="node">
<title>Node30</title>
<g id="a_node30"><a xlink:href="_o_m_sim_l_o_m18_8hh.html" target="_top" xlink:title="Construction of LOM18.">
<polygon fill="white" stroke="black" points="1216.27,-56.5 1216.27,-75.5 1317.27,-75.5 1317.27,-56.5 1216.27,-56.5"/>
<text text-anchor="middle" x="1266.77" y="-63.5" font-family="Helvetica,sans-Serif" font-size="10.00">OMSimLOM18.hh</text>
</a>
</g>
</g>
<!-- Node15&#45;&gt;Node30 -->
<g id="edge48" class="edge">
<title>Node15&#45;&gt;Node30</title>
<path fill="none" stroke="midnightblue" d="M1048.84,-159.55C1041.46,-145.29 1034.85,-125.36 1045.77,-112 1051.21,-105.34 1153.34,-86.61 1216.84,-75.53"/>
<polygon fill="midnightblue" stroke="midnightblue" points="1045.88,-161.42 1053.88,-168.37 1051.96,-157.95 1045.88,-161.42"/>
</g>
<!-- Node32 -->
<g id="node32" class="node">
<title>Node32</title>
<g id="a_node32"><a xlink:href="_o_m_sim_p_d_o_m_8hh.html" target="_top" xlink:title="Implementation of the pDOM/Gen1 DOM class.">
<polygon fill="white" stroke="black" points="936.27,-56.5 936.27,-75.5 1033.27,-75.5 1033.27,-56.5 936.27,-56.5"/>
<text text-anchor="middle" x="984.77" y="-63.5" font-family="Helvetica,sans-Serif" font-size="10.00">OMSimPDOM.hh</text>
</a>
</g>
</g>
<!-- Node15&#45;&gt;Node32 -->
<g id="edge56" class="edge">
<title>Node15&#45;&gt;Node32</title>
<path fill="none" stroke="midnightblue" d="M1038.25,-162.48C1027.83,-154.52 1015.86,-143.87 1007.77,-132 995.49,-114 989.04,-88.74 986.34,-75.64"/>
<polygon fill="midnightblue" stroke="midnightblue" points="1036.37,-165.44 1046.51,-168.49 1040.49,-159.78 1036.37,-165.44"/>
</g>
<!-- Node34 -->
<g id="node34" class="node">
<title>Node34</title>
<g id="a_node34"><a xlink:href="_o_m_sim_optical_module_8cc.html" target="_top" xlink:title=" ">
<polygon fill="white" stroke="black" points="1163.77,-112.5 1163.77,-131.5 1299.77,-131.5 1299.77,-112.5 1163.77,-112.5"/>
<text text-anchor="middle" x="1231.77" y="-119.5" font-family="Helvetica,sans-Serif" font-size="10.00">OMSimOpticalModule.cc</text>
</a>
</g>
</g>
<!-- Node15&#45;&gt;Node34 -->
<g id="edge63" class="edge">
<title>Node15&#45;&gt;Node34</title>
<path fill="none" stroke="midnightblue" d="M1096.6,-165.44C1129.03,-155.26 1175.5,-140.66 1204.64,-131.52"/>
<polygon fill="midnightblue" stroke="midnightblue" points="1095.51,-162.11 1087.02,-168.44 1097.61,-168.79 1095.51,-162.11"/>
</g>
<!-- Node35 -->
<g id="node35" class="node">
<title>Node35</title>
<g id="a_node35"><a xlink:href="_o_m_sim_decays_g_p_s_8hh.html" target="_top" xlink:title="Defines the OMSimDecaysGPS class for the radioactive decays simulation.">
<polygon fill="white" stroke="black" points="96.77,-112.5 96.77,-131.5 218.77,-131.5 218.77,-112.5 96.77,-112.5"/>
<text text-anchor="middle" x="157.77" y="-119.5" font-family="Helvetica,sans-Serif" font-size="10.00">OMSimDecaysGPS.hh</text>
</a>
</g>
</g>
<!-- Node15&#45;&gt;Node35 -->
<g id="edge64" class="edge">
<title>Node15&#45;&gt;Node35</title>
<path fill="none" stroke="midnightblue" d="M981.22,-172.3C804.37,-161.71 378.05,-136.19 218.98,-126.66"/>
<polygon fill="midnightblue" stroke="midnightblue" points="981.04,-175.79 991.23,-172.9 981.46,-168.81 981.04,-175.79"/>
</g>
<!-- Node16&#45;&gt;Node6 -->
<g id="edge19" class="edge">
<title>Node16&#45;&gt;Node6</title>
<path fill="none" stroke="midnightblue" d="M1548.04,-54.09C1591.3,-43.89 1655.02,-28.86 1694.65,-19.52"/>
<polygon fill="midnightblue" stroke="midnightblue" points="1546.98,-50.74 1538.05,-56.44 1548.59,-57.55 1546.98,-50.74"/>
</g>
<!-- Node16&#45;&gt;Node10 -->
<g id="edge20" class="edge">
<title>Node16&#45;&gt;Node10</title>
<path fill="none" stroke="midnightblue" d="M1456.1,-54.09C1413.4,-43.89 1350.52,-28.86 1311.41,-19.52"/>
<polygon fill="midnightblue" stroke="midnightblue" points="1455.42,-57.52 1465.96,-56.44 1457.04,-50.72 1455.42,-57.52"/>
</g>
<!-- Node16&#45;&gt;Node11 -->
<g id="edge21" class="edge">
<title>Node16&#45;&gt;Node11</title>
<path fill="none" stroke="midnightblue" d="M1444.19,-56.01C1265.06,-34.1 1218.11,-36.72 1042.77,-20 1039.98,-19.73 1037.15,-19.46 1034.29,-19.18"/>
<polygon fill="midnightblue" stroke="midnightblue" points="1443.86,-59.5 1454.21,-57.25 1444.72,-52.55 1443.86,-59.5"/>
</g>
<!-- Node16&#45;&gt;Node12 -->
<g id="edge22" class="edge">
<title>Node16&#45;&gt;Node12</title>
<path fill="none" stroke="midnightblue" d="M1485.44,-49.25C1475.5,-39.67 1463.18,-27.79 1454.93,-19.83"/>
<polygon fill="midnightblue" stroke="midnightblue" points="1483.14,-51.9 1492.77,-56.32 1488,-46.86 1483.14,-51.9"/>
</g>
<!-- Node16&#45;&gt;Node13 -->
<g id="edge23" class="edge">
<title>Node16&#45;&gt;Node13</title>
<path fill="none" stroke="midnightblue" d="M1443.93,-55.91C1378.7,-46.51 1248.19,-29.09 1171.36,-18.89"/>
<polygon fill="midnightblue" stroke="midnightblue" points="1443.79,-59.43 1454.19,-57.41 1444.8,-52.5 1443.79,-59.43"/>
</g>
<!-- Node17 -->
<g id="node17" class="node">
<title>Node17</title>
<g id="a_node17"><a xlink:href="_o_m_sim_d_e_g_g_8cc.html" target="_top" xlink:title=" ">
<polygon fill="white" stroke="black" points="1833.77,-0.5 1833.77,-19.5 1927.77,-19.5 1927.77,-0.5 1833.77,-0.5"/>
<text text-anchor="middle" x="1880.77" y="-7.5" font-family="Helvetica,sans-Serif" font-size="10.00">OMSimDEGG.cc</text>
</a>
</g>
</g>
<!-- Node16&#45;&gt;Node17 -->
<g id="edge18" class="edge">
<title>Node16&#45;&gt;Node17</title>
<path fill="none" stroke="midnightblue" d="M1559.23,-57.28C1623.68,-48.55 1731.29,-33.76 1823.77,-20 1826.94,-19.53 1830.21,-19.03 1833.5,-18.53"/>
<polygon fill="midnightblue" stroke="midnightblue" points="1558.71,-53.82 1549.27,-58.63 1559.65,-60.76 1558.71,-53.82"/>
</g>
<!-- Node18&#45;&gt;Node6 -->
<g id="edge30" class="edge">
<title>Node18&#45;&gt;Node6</title>
<path fill="none" stroke="midnightblue" d="M927.23,-117.26C1110.44,-109.78 1498.57,-92.25 1557.77,-76 1576.55,-70.84 1578.82,-63.57 1596.77,-56 1631.93,-41.18 1673.82,-27.76 1701.28,-19.51"/>
<polygon fill="midnightblue" stroke="midnightblue" points="926.91,-113.77 917.06,-117.68 927.19,-120.77 926.91,-113.77"/>
</g>
<!-- Node19 -->
<g id="node19" class="node">
<title>Node19</title>
<g id="a_node19"><a xlink:href="_o_m_sim_8hh.html" target="_top" xlink:title="Main simulation class for the Optical Module (OM) simulation. This file defines the OMSim class,...">
<polygon fill="white" stroke="black" points="521.27,-56.5 521.27,-75.5 588.27,-75.5 588.27,-56.5 521.27,-56.5"/>
<text text-anchor="middle" x="554.77" y="-63.5" font-family="Helvetica,sans-Serif" font-size="10.00">OMSim.hh</text>
</a>
</g>
</g>
<!-- Node18&#45;&gt;Node19 -->
<g id="edge25" class="edge">
<title>Node18&#45;&gt;Node19</title>
<path fill="none" stroke="midnightblue" d="M775.92,-110.53C728.48,-101.56 658.6,-88.22 597.77,-76 594.78,-75.4 591.67,-74.77 588.56,-74.13"/>
<polygon fill="midnightblue" stroke="midnightblue" points="775.51,-114.01 785.99,-112.43 776.81,-107.13 775.51,-114.01"/>
</g>
<!-- Node24 -->
<g id="node24" class="node">
<title>Node24</title>
<g id="a_node24"><a xlink:href="_o_m_sim_p_m_t_construction_8cc.html" target="_top" xlink:title=" ">
<polygon fill="white" stroke="black" points="1051.27,-56.5 1051.27,-75.5 1198.27,-75.5 1198.27,-56.5 1051.27,-56.5"/>
<text text-anchor="middle" x="1124.77" y="-63.5" font-family="Helvetica,sans-Serif" font-size="10.00">OMSimPMTConstruction.cc</text>
</a>
</g>
</g>
<!-- Node18&#45;&gt;Node24 -->
<g id="edge31" class="edge">
<title>Node18&#45;&gt;Node24</title>
<path fill="none" stroke="midnightblue" d="M888.19,-110.6C943.57,-100.4 1027,-85.02 1078.56,-75.52"/>
<polygon fill="midnightblue" stroke="midnightblue" points="887.39,-107.19 878.19,-112.44 888.66,-114.07 887.39,-107.19"/>
</g>
<!-- Node25 -->
<g id="node25" class="node">
<title>Node25</title>
<g id="a_node25"><a xlink:href="_o_m_sim_effective_area_detector_8hh.html" target="_top" xlink:title="Defines the OMSimEffectiveAreaDetector class for effective area simulation detector construction.">
<polygon fill="white" stroke="black" points="745.27,-56.5 745.27,-75.5 918.27,-75.5 918.27,-56.5 745.27,-56.5"/>
<text text-anchor="middle" x="831.77" y="-63.5" font-family="Helvetica,sans-Serif" font-size="10.00">OMSimEffectiveAreaDetector.hh</text>
</a>
</g>
</g>
<!-- Node18&#45;&gt;Node25 -->
<g id="edge32" class="edge">
<title>Node18&#45;&gt;Node25</title>
<path fill="none" stroke="midnightblue" d="M831.77,-101.8C831.77,-92.91 831.77,-82.78 831.77,-75.75"/>
<polygon fill="midnightblue" stroke="midnightblue" points="828.27,-102.08 831.77,-112.08 835.27,-102.08 828.27,-102.08"/>
</g>
<!-- Node18&#45;&gt;Node26 -->
<g id="edge35" class="edge">
<title>Node18&#45;&gt;Node26</title>
<path fill="none" stroke="midnightblue" d="M756.63,-111.1C679.21,-100.91 559.77,-85.18 486.43,-75.52"/>
<polygon fill="midnightblue" stroke="midnightblue" points="756.43,-114.61 766.8,-112.44 757.34,-107.67 756.43,-114.61"/>
</g>
<!-- Node27 -->
<g id="node27" class="node">
<title>Node27</title>
<g id="a_node27"><a xlink:href="_o_m_sim_s_ndetector_8hh.html" target="_top" xlink:title=" ">
<polygon fill="white" stroke="black" points="606.77,-56.5 606.77,-75.5 726.77,-75.5 726.77,-56.5 606.77,-56.5"/>
<text text-anchor="middle" x="666.77" y="-63.5" font-family="Helvetica,sans-Serif" font-size="10.00">OMSimSNdetector.hh</text>
</a>
</g>
</g>
<!-- Node18&#45;&gt;Node27 -->
<g id="edge38" class="edge">
<title>Node18&#45;&gt;Node27</title>
<path fill="none" stroke="midnightblue" d="M796.03,-109.3C764.94,-99.13 720.62,-84.62 692.79,-75.52"/>
<polygon fill="midnightblue" stroke="midnightblue" points="795.03,-112.66 805.62,-112.44 797.21,-106.01 795.03,-112.66"/>
</g>
<!-- Node20 -->
<g id="node20" class="node">
<title>Node20</title>
<g id="a_node20"><a xlink:href="_o_m_sim_8cc.html" target="_top" xlink:title="Implementation of the OMSim class.">
<polygon fill="white" stroke="black" points="261.27,-0.5 261.27,-19.5 326.27,-19.5 326.27,-0.5 261.27,-0.5"/>
<text text-anchor="middle" x="293.77" y="-7.5" font-family="Helvetica,sans-Serif" font-size="10.00">OMSim.cc</text>
</a>
</g>
</g>
<!-- Node19&#45;&gt;Node20 -->
<g id="edge26" class="edge">
<title>Node19&#45;&gt;Node20</title>
<path fill="none" stroke="midnightblue" d="M511.03,-55.86C431.96,-39.53 410.86,-35.73 335.77,-20 332.7,-19.36 329.51,-18.68 326.32,-18.01"/>
<polygon fill="midnightblue" stroke="midnightblue" points="510.47,-59.31 520.97,-57.91 511.88,-52.46 510.47,-59.31"/>
</g>
<!-- Node21 -->
<g id="node21" class="node">
<title>Node21</title>
<g id="a_node21"><a xlink:href="_o_m_sim__effective__area_8cc.html" target="_top" xlink:title="Main for the calculation of effective areas.">
<polygon fill="white" stroke="black" points="484.77,-0.5 484.77,-19.5 624.77,-19.5 624.77,-0.5 484.77,-0.5"/>
<text text-anchor="middle" x="554.77" y="-7.5" font-family="Helvetica,sans-Serif" font-size="10.00">OMSim_effective_area.cc</text>
</a>
</g>
</g>
<!-- Node19&#45;&gt;Node21 -->
<g id="edge27" class="edge">
<title>Node19&#45;&gt;Node21</title>
<path fill="none" stroke="midnightblue" d="M554.77,-45.8C554.77,-36.91 554.77,-26.78 554.77,-19.75"/>
<polygon fill="midnightblue" stroke="midnightblue" points="551.27,-46.08 554.77,-56.08 558.27,-46.08 551.27,-46.08"/>
</g>
<!-- Node22 -->
<g id="node22" class="node">
<title>Node22</title>
<g id="a_node22"><a xlink:href="_o_m_sim__radioactive__decays_8cc.html" target="_top" xlink:title="Main of the radioactive decay study.">
<polygon fill="white" stroke="black" points="78.27,-0.5 78.27,-19.5 243.27,-19.5 243.27,-0.5 78.27,-0.5"/>
<text text-anchor="middle" x="160.77" y="-7.5" font-family="Helvetica,sans-Serif" font-size="10.00">OMSim_radioactive_decays.cc</text>
</a>
</g>
</g>
<!-- Node19&#45;&gt;Node22 -->
<g id="edge28" class="edge">
<title>Node19&#45;&gt;Node22</title>
<path fill="none" stroke="midnightblue" d="M510.89,-55.97C412.48,-39.6 310.49,-27.22 241.54,-19.53"/>
<polygon fill="midnightblue" stroke="midnightblue" points="510.57,-59.47 521.01,-57.67 511.73,-52.56 510.57,-59.47"/>
</g>
<!-- Node23 -->
<g id="node23" class="node">
<title>Node23</title>
<g id="a_node23"><a xlink:href="_o_m_sim__supernova_8cc.html" target="_top" xlink:title="Main of the supernova study.">
<polygon fill="white" stroke="black" points="344.77,-0.5 344.77,-19.5 466.77,-19.5 466.77,-0.5 344.77,-0.5"/>
<text text-anchor="middle" x="405.77" y="-7.5" font-family="Helvetica,sans-Serif" font-size="10.00">OMSim_supernova.cc</text>
</a>
</g>
</g>
<!-- Node19&#45;&gt;Node23 -->
<g id="edge29" class="edge">
<title>Node19&#45;&gt;Node23</title>
<path fill="none" stroke="midnightblue" d="M521.4,-52.91C493.38,-42.75 454.07,-28.51 429.27,-19.52"/>
<polygon fill="midnightblue" stroke="midnightblue" points="520.56,-56.33 531.16,-56.44 522.95,-49.75 520.56,-56.33"/>
</g>
<!-- Node25&#45;&gt;Node10 -->
<g id="edge34" class="edge">
<title>Node25&#45;&gt;Node10</title>
<path fill="none" stroke="midnightblue" d="M912.1,-55.23C995.92,-45.04 1125.99,-29.22 1205.74,-19.52"/>
<polygon fill="midnightblue" stroke="midnightblue" points="911.62,-51.76 902.12,-56.44 912.47,-58.71 911.62,-51.76"/>
</g>
<!-- Node25&#45;&gt;Node21 -->
<g id="edge33" class="edge">
<title>Node25&#45;&gt;Node21</title>
<path fill="none" stroke="midnightblue" d="M777.77,-54.47C725.42,-44.27 646.99,-28.98 598.45,-19.52"/>
<polygon fill="midnightblue" stroke="midnightblue" points="777.39,-57.97 787.88,-56.44 778.73,-51.09 777.39,-57.97"/>
</g>
<!-- Node26&#45;&gt;Node11 -->
<g id="edge37" class="edge">
<title>Node26&#45;&gt;Node11</title>
<path fill="none" stroke="midnightblue" d="M513.65,-55.67C614.94,-45.39 776.29,-29.01 872.93,-19.21"/>
<polygon fill="midnightblue" stroke="midnightblue" points="513.03,-52.22 503.44,-56.71 513.74,-59.18 513.03,-52.22"/>
</g>
<!-- Node26&#45;&gt;Node22 -->
<g id="edge36" class="edge">
<title>Node26&#45;&gt;Node22</title>
<path fill="none" stroke="midnightblue" d="M370.58,-54.41C321.25,-44.2 247.57,-28.96 201.93,-19.52"/>
<polygon fill="midnightblue" stroke="midnightblue" points="369.91,-57.84 380.41,-56.44 371.33,-50.99 369.91,-57.84"/>
</g>
<!-- Node27&#45;&gt;Node13 -->
<g id="edge40" class="edge">
<title>Node27&#45;&gt;Node13</title>
<path fill="none" stroke="midnightblue" d="M737,-55.86C873.77,-39 909.62,-36.49 1042.77,-20 1045.76,-19.63 1048.83,-19.24 1051.93,-18.85"/>
<polygon fill="midnightblue" stroke="midnightblue" points="736.47,-52.4 726.97,-57.1 737.33,-59.35 736.47,-52.4"/>
</g>
<!-- Node27&#45;&gt;Node23 -->
<g id="edge39" class="edge">
<title>Node27&#45;&gt;Node23</title>
<path fill="none" stroke="midnightblue" d="M615.58,-54.41C566.25,-44.2 492.57,-28.96 446.93,-19.52"/>
<polygon fill="midnightblue" stroke="midnightblue" points="614.91,-57.84 625.41,-56.44 616.33,-50.99 614.91,-57.84"/>
</g>
<!-- Node28&#45;&gt;Node6 -->
<g id="edge42" class="edge">
<title>Node28&#45;&gt;Node6</title>
<path fill="none" stroke="midnightblue" d="M1446.41,-55.51C1511.47,-45.32 1613.86,-29.3 1676.39,-19.51"/>
<polygon fill="midnightblue" stroke="midnightblue" points="1445.64,-52.09 1436.3,-57.09 1446.72,-59 1445.64,-52.09"/>
</g>
<!-- Node28&#45;&gt;Node10 -->
<g id="edge44" class="edge">
<title>Node28&#45;&gt;Node10</title>
<path fill="none" stroke="midnightblue" d="M1359,-51.86C1338.61,-41.85 1311.1,-28.35 1293.4,-19.65"/>
<polygon fill="midnightblue" stroke="midnightblue" points="1357.57,-55.06 1368.09,-56.32 1360.66,-48.78 1357.57,-55.06"/>
</g>
<!-- Node28&#45;&gt;Node11 -->
<g id="edge45" class="edge">
<title>Node28&#45;&gt;Node11</title>
<path fill="none" stroke="midnightblue" d="M1324.87,-55.91C1216.12,-41.27 1102.31,-27.86 1029.37,-19.51"/>
<polygon fill="midnightblue" stroke="midnightblue" points="1324.66,-59.42 1335.04,-57.29 1325.6,-52.48 1324.66,-59.42"/>
</g>
<!-- Node28&#45;&gt;Node12 -->
<g id="edge46" class="edge">
<title>Node28&#45;&gt;Node12</title>
<path fill="none" stroke="midnightblue" d="M1402.95,-49.54C1413.65,-39.91 1427.02,-27.87 1435.95,-19.83"/>
<polygon fill="midnightblue" stroke="midnightblue" points="1400.5,-47.03 1395.41,-56.32 1405.18,-52.24 1400.5,-47.03"/>
</g>
<!-- Node28&#45;&gt;Node13 -->
<g id="edge47" class="edge">
<title>Node28&#45;&gt;Node13</title>
<path fill="none" stroke="midnightblue" d="M1332.35,-54.47C1280.57,-44.27 1203,-28.98 1154.98,-19.52"/>
<polygon fill="midnightblue" stroke="midnightblue" points="1331.86,-57.94 1342.35,-56.44 1333.22,-51.08 1331.86,-57.94"/>
</g>
<!-- Node29 -->
<g id="node29" class="node">
<title>Node29</title>
<g id="a_node29"><a xlink:href="_o_m_sim_l_o_m16_8cc.html" target="_top" xlink:title=" ">
<polygon fill="white" stroke="black" points="1529.27,-0.5 1529.27,-19.5 1628.27,-19.5 1628.27,-0.5 1529.27,-0.5"/>
<text text-anchor="middle" x="1578.77" y="-7.5" font-family="Helvetica,sans-Serif" font-size="10.00">OMSimLOM16.cc</text>
</a>
</g>
</g>
<!-- Node28&#45;&gt;Node29 -->
<g id="edge43" class="edge">
<title>Node28&#45;&gt;Node29</title>
<path fill="none" stroke="midnightblue" d="M1426.16,-53.7C1462.58,-43.51 1515.35,-28.74 1548.33,-19.52"/>
<polygon fill="midnightblue" stroke="midnightblue" points="1425.04,-50.38 1416.35,-56.44 1426.92,-57.12 1425.04,-50.38"/>
</g>
<!-- Node30&#45;&gt;Node6 -->
<g id="edge49" class="edge">
<title>Node30&#45;&gt;Node6</title>
<path fill="none" stroke="midnightblue" d="M1327.4,-55.83C1443.44,-40.67 1566.4,-27.53 1646.09,-19.39"/>
<polygon fill="midnightblue" stroke="midnightblue" points="1326.74,-52.38 1317.28,-57.16 1327.65,-59.32 1326.74,-52.38"/>
</g>
<!-- Node30&#45;&gt;Node10 -->
<g id="edge51" class="edge">
<title>Node30&#45;&gt;Node10</title>
<path fill="none" stroke="midnightblue" d="M1269.92,-46.1C1271.41,-37.14 1273.12,-26.86 1274.31,-19.75"/>
<polygon fill="midnightblue" stroke="midnightblue" points="1266.44,-45.64 1268.25,-56.08 1273.35,-46.79 1266.44,-45.64"/>
</g>
<!-- Node30&#45;&gt;Node11 -->
<g id="edge52" class="edge">
<title>Node30&#45;&gt;Node11</title>
<path fill="none" stroke="midnightblue" d="M1207.22,-54.73C1148.08,-44.52 1058.44,-29.06 1003.13,-19.52"/>
<polygon fill="midnightblue" stroke="midnightblue" points="1206.72,-58.19 1217.17,-56.44 1207.91,-51.29 1206.72,-58.19"/>
</g>
<!-- Node30&#45;&gt;Node12 -->
<g id="edge53" class="edge">
<title>Node30&#45;&gt;Node12</title>
<path fill="none" stroke="midnightblue" d="M1305.1,-53.44C1338.85,-43.26 1387.21,-28.66 1417.54,-19.52"/>
<polygon fill="midnightblue" stroke="midnightblue" points="1303.69,-50.2 1295.13,-56.44 1305.71,-56.91 1303.69,-50.2"/>
</g>
<!-- Node30&#45;&gt;Node13 -->
<g id="edge54" class="edge">
<title>Node30&#45;&gt;Node13</title>
<path fill="none" stroke="midnightblue" d="M1232.43,-53.04C1203.27,-42.88 1162.13,-28.55 1136.21,-19.52"/>
<polygon fill="midnightblue" stroke="midnightblue" points="1231.61,-56.46 1242.21,-56.44 1233.91,-49.85 1231.61,-56.46"/>
</g>
<!-- Node31 -->
<g id="node31" class="node">
<title>Node31</title>
<g id="a_node31"><a xlink:href="_o_m_sim_l_o_m18_8cc.html" target="_top" xlink:title=" ">
<polygon fill="white" stroke="black" points="756.27,-0.5 756.27,-19.5 855.27,-19.5 855.27,-0.5 756.27,-0.5"/>
<text text-anchor="middle" x="805.77" y="-7.5" font-family="Helvetica,sans-Serif" font-size="10.00">OMSimLOM18.cc</text>
</a>
</g>
</g>
<!-- Node30&#45;&gt;Node31 -->
<g id="edge50" class="edge">
<title>Node30&#45;&gt;Node31</title>
<path fill="none" stroke="midnightblue" d="M1205.82,-55.94C1052.99,-36.75 1012.5,-39.33 863.77,-20 861.04,-19.65 858.24,-19.27 855.42,-18.87"/>
<polygon fill="midnightblue" stroke="midnightblue" points="1205.69,-59.45 1216.05,-57.23 1206.57,-52.5 1205.69,-59.45"/>
</g>
<!-- Node32&#45;&gt;Node6 -->
<g id="edge57" class="edge">
<title>Node32&#45;&gt;Node6</title>
<path fill="none" stroke="midnightblue" d="M1043.79,-55.87C1306.88,-27.64 1376,-40.37 1636.77,-20 1639.87,-19.76 1643.03,-19.5 1646.23,-19.24"/>
<polygon fill="midnightblue" stroke="midnightblue" points="1043.11,-52.43 1033.54,-56.98 1043.86,-59.39 1043.11,-52.43"/>
</g>
<!-- Node32&#45;&gt;Node10 -->
<g id="edge59" class="edge">
<title>Node32&#45;&gt;Node10</title>
<path fill="none" stroke="midnightblue" d="M1040.81,-54.6C1095.8,-44.4 1178.66,-29.02 1229.87,-19.52"/>
<polygon fill="midnightblue" stroke="midnightblue" points="1040.07,-51.18 1030.88,-56.44 1041.35,-58.06 1040.07,-51.18"/>
</g>
<!-- Node32&#45;&gt;Node11 -->
<g id="edge60" class="edge">
<title>Node32&#45;&gt;Node11</title>
<path fill="none" stroke="midnightblue" d="M974.59,-47.27C969.29,-38.05 963.05,-27.17 958.79,-19.75"/>
<polygon fill="midnightblue" stroke="midnightblue" points="971.63,-49.15 979.65,-56.08 977.7,-45.67 971.63,-49.15"/>
</g>
<!-- Node32&#45;&gt;Node12 -->
<g id="edge61" class="edge">
<title>Node32&#45;&gt;Node12</title>
<path fill="none" stroke="midnightblue" d="M1043.76,-55.78C1189.29,-36.53 1227.91,-36.39 1370.77,-20 1373.76,-19.66 1376.83,-19.3 1379.92,-18.94"/>
<polygon fill="midnightblue" stroke="midnightblue" points="1043.01,-52.35 1033.56,-57.14 1043.94,-59.29 1043.01,-52.35"/>
</g>
<!-- Node32&#45;&gt;Node13 -->
<g id="edge62" class="edge">
<title>Node32&#45;&gt;Node13</title>
<path fill="none" stroke="midnightblue" d="M1014.16,-52.5C1037.97,-42.38 1070.87,-28.39 1091.74,-19.52"/>
<polygon fill="midnightblue" stroke="midnightblue" points="1012.72,-49.31 1004.89,-56.44 1015.46,-55.75 1012.72,-49.31"/>
</g>
<!-- Node33 -->
<g id="node33" class="node">
<title>Node33</title>
<g id="a_node33"><a xlink:href="_o_m_sim_p_d_o_m_8cc.html" target="_top" xlink:title=" ">
<polygon fill="white" stroke="black" points="643.27,-0.5 643.27,-19.5 738.27,-19.5 738.27,-0.5 643.27,-0.5"/>
<text text-anchor="middle" x="690.77" y="-7.5" font-family="Helvetica,sans-Serif" font-size="10.00">OMSimPDOM.cc</text>
</a>
</g>
</g>
<!-- Node32&#45;&gt;Node33 -->
<g id="edge58" class="edge">
<title>Node32&#45;&gt;Node33</title>
<path fill="none" stroke="midnightblue" d="M928.15,-54.6C872.59,-44.4 788.87,-29.02 737.13,-19.52"/>
<polygon fill="midnightblue" stroke="midnightblue" points="927.71,-58.08 938.18,-56.44 928.98,-51.19 927.71,-58.08"/>
</g>
<!-- Node35&#45;&gt;Node22 -->
<g id="edge65" class="edge">
<title>Node35&#45;&gt;Node22</title>
<path fill="none" stroke="midnightblue" d="M86.66,-114.16C36.12,-106.32 -18.63,-89.88 6.77,-56 19.09,-39.56 68.33,-27.13 107.87,-19.54"/>
<polygon fill="midnightblue" stroke="midnightblue" points="86.28,-117.64 96.68,-115.61 87.29,-110.71 86.28,-117.64"/>
</g>
<!-- Node36 -->
<g id="node36" class="node">
<title>Node36</title>
<g id="a_node36"><a xlink:href="_o_m_sim_decays_g_p_s_8cc.html" target="_top" xlink:title=" ">
<polygon fill="white" stroke="black" points="16.27,-56.5 16.27,-75.5 137.27,-75.5 137.27,-56.5 16.27,-56.5"/>
<text text-anchor="middle" x="76.77" y="-63.5" font-family="Helvetica,sans-Serif" font-size="10.00">OMSimDecaysGPS.cc</text>
</a>
</g>
</g>
<!-- Node35&#45;&gt;Node36 -->
<g id="edge66" class="edge">
<title>Node35&#45;&gt;Node36</title>
<path fill="none" stroke="midnightblue" d="M136.2,-106.62C121.4,-96.76 102.25,-83.99 89.75,-75.65"/>
<polygon fill="midnightblue" stroke="midnightblue" points="134.49,-109.69 144.75,-112.32 138.37,-103.86 134.49,-109.69"/>
</g>
<!-- Node37 -->
<g id="node37" class="node">
<title>Node37</title>
<g id="a_node37"><a xlink:href="_o_m_sim_g4_radioactive_decay_8cc.html" target="_top" xlink:title=" ">
<polygon fill="white" stroke="black" points="155.77,-56.5 155.77,-75.5 321.77,-75.5 321.77,-56.5 155.77,-56.5"/>
<text text-anchor="middle" x="238.77" y="-63.5" font-family="Helvetica,sans-Serif" font-size="10.00">OMSimG4RadioactiveDecay.cc</text>
</a>
</g>
</g>
<!-- Node35&#45;&gt;Node37 -->
<g id="edge67" class="edge">
<title>Node35&#45;&gt;Node37</title>
<path fill="none" stroke="midnightblue" d="M179.33,-106.62C194.13,-96.76 213.28,-83.99 225.78,-75.65"/>
<polygon fill="midnightblue" stroke="midnightblue" points="177.16,-103.86 170.78,-112.32 181.04,-109.69 177.16,-103.86"/>
</g>
<!-- Node38&#45;&gt;Node5 -->
<g id="edge73" class="edge">
<title>Node38&#45;&gt;Node5</title>
<path fill="none" stroke="midnightblue" d="M1389.76,-219.27C1447.61,-186.15 1593.47,-102.66 1640.73,-75.61"/>
<polygon fill="midnightblue" stroke="midnightblue" points="1387.89,-216.3 1380.95,-224.31 1391.37,-222.38 1387.89,-216.3"/>
</g>
<!-- Node38&#45;&gt;Node15 -->
<g id="edge74" class="edge">
<title>Node38&#45;&gt;Node15</title>
<path fill="none" stroke="midnightblue" d="M1307.2,-222.66C1249.37,-212.46 1161.99,-197.04 1108.03,-187.52"/>
<polygon fill="midnightblue" stroke="midnightblue" points="1306.82,-226.15 1317.28,-224.44 1308.04,-219.26 1306.82,-226.15"/>
</g>
<!-- Node38&#45;&gt;Node16 -->
<g id="edge70" class="edge">
<title>Node38&#45;&gt;Node16</title>
<path fill="none" stroke="midnightblue" d="M1379.52,-216.21C1408.15,-181.26 1473.27,-101.79 1494.75,-75.57"/>
<polygon fill="midnightblue" stroke="midnightblue" points="1376.71,-214.12 1373.08,-224.08 1382.12,-218.56 1376.71,-214.12"/>
</g>
<!-- Node38&#45;&gt;Node24 -->
<g id="edge79" class="edge">
<title>Node38&#45;&gt;Node24</title>
<path fill="none" stroke="midnightblue" d="M1362.26,-214.44C1356.2,-187.66 1341.18,-138.49 1308.77,-112 1289.54,-96.29 1228.98,-83.45 1182.53,-75.57"/>
<polygon fill="midnightblue" stroke="midnightblue" points="1358.87,-215.34 1364.33,-224.42 1365.73,-213.92 1358.87,-215.34"/>
</g>
<!-- Node38&#45;&gt;Node28 -->
<g id="edge71" class="edge">
<title>Node38&#45;&gt;Node28</title>
<path fill="none" stroke="midnightblue" d="M1372.61,-214.7C1375.32,-206.63 1378.18,-196.96 1379.77,-188 1387.15,-146.37 1386.64,-95.52 1386.08,-75.59"/>
<polygon fill="midnightblue" stroke="midnightblue" points="1369.28,-213.6 1369.23,-224.2 1375.88,-215.95 1369.28,-213.6"/>
</g>
<!-- Node38&#45;&gt;Node30 -->
<g id="edge72" class="edge">
<title>Node38&#45;&gt;Node30</title>
<path fill="none" stroke="midnightblue" d="M1366.55,-214.36C1366.7,-188.93 1363.57,-142.99 1341.77,-112 1329.53,-94.61 1308.25,-82.78 1291.47,-75.64"/>
<polygon fill="midnightblue" stroke="midnightblue" points="1363.05,-214.39 1366.31,-224.47 1370.05,-214.56 1363.05,-214.39"/>
</g>
<!-- Node38&#45;&gt;Node32 -->
<g id="edge75" class="edge">
<title>Node38&#45;&gt;Node32</title>
<path fill="none" stroke="midnightblue" d="M1280.81,-228.94C1173.76,-222.93 1001.3,-209.95 981.77,-188 953.13,-155.82 972.28,-97.59 981.05,-75.66"/>
<polygon fill="midnightblue" stroke="midnightblue" points="1280.78,-232.44 1290.96,-229.5 1281.17,-225.45 1280.78,-232.44"/>
</g>
<!-- Node38&#45;&gt;Node34 -->
<g id="edge78" class="edge">
<title>Node38&#45;&gt;Node34</title>
<path fill="none" stroke="midnightblue" d="M1347.27,-217.82C1318.73,-194.39 1264.89,-150.19 1242.23,-131.59"/>
<polygon fill="midnightblue" stroke="midnightblue" points="1345.3,-220.73 1355.25,-224.37 1349.74,-215.32 1345.3,-220.73"/>
</g>
<!-- Node38&#45;&gt;Node38 -->
<g id="edge76" class="edge">
<title>Node38&#45;&gt;Node38</title>
<path fill="none" stroke="midnightblue" d="M1415.19,-244.29C1438.17,-245.42 1458.27,-241.99 1458.27,-234 1458.27,-224.87 1432.02,-221.69 1405.22,-224.47"/>
<polygon fill="midnightblue" stroke="midnightblue" points="1415.46,-240.8 1405.22,-243.53 1414.92,-247.78 1415.46,-240.8"/>
</g>
<!-- Node38&#45;&gt;Node39 -->
<g id="edge77" class="edge">
<title>Node38&#45;&gt;Node39</title>
<path fill="none" stroke="midnightblue" d="M1409.73,-221.96C1450.33,-211.76 1509.81,-196.82 1546.86,-187.52"/>
<polygon fill="midnightblue" stroke="midnightblue" points="1408.68,-218.61 1399.83,-224.44 1410.39,-225.4 1408.68,-218.61"/>
</g>
</g>
</svg>
