<?xml version="1.0" encoding="UTF-8" standalone="no"?>
<!DOCTYPE svg PUBLIC "-//W3C//DTD SVG 1.1//EN"
 "http://www.w3.org/Graphics/SVG/1.1/DTD/svg11.dtd">
<!-- Generated by graphviz version 2.43.0 (0)
 -->
<!-- Title: abcDetectorComponent.hh Pages: 1 -->
<svg width="1987pt" height="308pt"
 viewBox="0.00 0.00 1986.76 308.00" xmlns="http://www.w3.org/2000/svg" xmlns:xlink="http://www.w3.org/1999/xlink">
<g id="graph0" class="graph" transform="scale(1 1) rotate(0) translate(4 304)">
<title>abcDetectorComponent.hh</title>
<polygon fill="white" stroke="transparent" points="-4,4 -4,-304 1982.76,-304 1982.76,4 -4,4"/>
<!-- Node1 -->
<g id="node1" class="node">
<title>Node1</title>
<g id="a_node1"><a xlink:title="Provides helper base class abcDetectorComponent for constructing and managing detector components in ...">
<polygon fill="#bfbfbf" stroke="black" points="1202.26,-280.5 1202.26,-299.5 1349.26,-299.5 1349.26,-280.5 1202.26,-280.5"/>
<text text-anchor="middle" x="1275.76" y="-287.5" font-family="Helvetica,sans-Serif" font-size="10.00">abcDetectorComponent.hh</text>
</a>
</g>
</g>
<!-- Node2 -->
<g id="node2" class="node">
<title>Node2</title>
<g id="a_node2"><a xlink:href="_o_m_sim_d_e_g_g_harness_8hh.html" target="_top" xlink:title="Construction of the DEGG harness.">
<polygon fill="white" stroke="black" points="398.26,-224.5 398.26,-243.5 533.26,-243.5 533.26,-224.5 398.26,-224.5"/>
<text text-anchor="middle" x="465.76" y="-231.5" font-family="Helvetica,sans-Serif" font-size="10.00">OMSimDEGGHarness.hh</text>
</a>
</g>
</g>
<!-- Node1&#45;&gt;Node2 -->
<g id="edge1" class="edge">
<title>Node1&#45;&gt;Node2</title>
<path fill="none" stroke="midnightblue" d="M1191.73,-285.11C1056.12,-278.53 780.62,-263.96 547.76,-244 543.05,-243.6 538.19,-243.15 533.3,-242.67"/>
<polygon fill="midnightblue" stroke="midnightblue" points="1191.89,-288.62 1202.05,-285.61 1192.23,-281.63 1191.89,-288.62"/>
</g>
<!-- Node4 -->
<g id="node4" class="node">
<title>Node4</title>
<g id="a_node4"><a xlink:href="_o_m_sim_m_d_o_m_flasher_8hh.html" target="_top" xlink:title="Defines the mDOMFlasher class for simulating the 10 flashers in an mDOM optical module.">
<polygon fill="white" stroke="black" points="1490.26,-224.5 1490.26,-243.5 1625.26,-243.5 1625.26,-224.5 1490.26,-224.5"/>
<text text-anchor="middle" x="1557.76" y="-231.5" font-family="Helvetica,sans-Serif" font-size="10.00">OMSimMDOMFlasher.hh</text>
</a>
</g>
</g>
<!-- Node1&#45;&gt;Node4 -->
<g id="edge3" class="edge">
<title>Node1&#45;&gt;Node4</title>
<path fill="none" stroke="midnightblue" d="M1330.4,-278.54C1383.69,-268.33 1463.76,-253 1513.28,-243.52"/>
<polygon fill="midnightblue" stroke="midnightblue" points="1329.6,-275.13 1320.44,-280.44 1330.92,-282 1329.6,-275.13"/>
</g>
<!-- Node13 -->
<g id="node13" class="node">
<title>Node13</title>
<g id="a_node13"><a xlink:href="_o_m_sim_m_d_o_m_harness_8hh.html" target="_top" xlink:title="Construction of mDOM harness.">
<polygon fill="white" stroke="black" points="1703.76,-112.5 1703.76,-131.5 1843.76,-131.5 1843.76,-112.5 1703.76,-112.5"/>
<text text-anchor="middle" x="1773.76" y="-119.5" font-family="Helvetica,sans-Serif" font-size="10.00">OMSimMDOMHarness.hh</text>
</a>
</g>
</g>
<!-- Node1&#45;&gt;Node13 -->
<g id="edge12" class="edge">
<title>Node1&#45;&gt;Node13</title>
<path fill="none" stroke="midnightblue" d="M1359.62,-284.08C1449.67,-277.81 1586.23,-265.16 1633.76,-244 1694.51,-216.95 1748.55,-154.53 1767.01,-131.63"/>
<polygon fill="midnightblue" stroke="midnightblue" points="1359.16,-280.6 1349.42,-284.77 1359.63,-287.58 1359.16,-280.6"/>
</g>
<!-- Node14 -->
<g id="node14" class="node">
<title>Node14</title>
<g id="a_node14"><a xlink:href="_o_m_sim_optical_module_8hh.html" target="_top" xlink:title=" ">
<polygon fill="white" stroke="black" points="977.26,-168.5 977.26,-187.5 1114.26,-187.5 1114.26,-168.5 977.26,-168.5"/>
<text text-anchor="middle" x="1045.76" y="-175.5" font-family="Helvetica,sans-Serif" font-size="10.00">OMSimOpticalModule.hh</text>
</a>
</g>
</g>
<!-- Node1&#45;&gt;Node14 -->
<g id="edge15" class="edge">
<title>Node1&#45;&gt;Node14</title>
<path fill="none" stroke="midnightblue" d="M1248.62,-276.02C1201.05,-253.27 1103.87,-206.79 1063.72,-187.59"/>
<polygon fill="midnightblue" stroke="midnightblue" points="1247.18,-279.21 1257.71,-280.37 1250.2,-272.9 1247.18,-279.21"/>
</g>
<!-- Node25 -->
<g id="node25" class="node">
<title>Node25</title>
<g id="a_node25"><a xlink:href="_o_m_sim_rad_decays_detector_8hh.html" target="_top" xlink:title="Defines the OMSimRadDecaysDetector class for the radioactive decays simulation.">
<polygon fill="white" stroke="black" points="153.26,-56.5 153.26,-75.5 316.26,-75.5 316.26,-56.5 153.26,-56.5"/>
<text text-anchor="middle" x="234.76" y="-63.5" font-family="Helvetica,sans-Serif" font-size="10.00">OMSimRadDecaysDetector.hh</text>
</a>
</g>
</g>
<!-- Node1&#45;&gt;Node25 -->
<g id="edge75" class="edge">
<title>Node1&#45;&gt;Node25</title>
<path fill="none" stroke="midnightblue" d="M1225.62,-278.31C1046.06,-240.02 437.15,-110.16 274.81,-75.54"/>
<polygon fill="midnightblue" stroke="midnightblue" points="1225.08,-281.77 1235.59,-280.43 1226.54,-274.92 1225.08,-281.77"/>
</g>
<!-- Node36 -->
<g id="node36" class="node">
<title>Node36</title>
<g id="a_node36"><a xlink:href="_o_m_sim_p_m_t_construction_8hh.html" target="_top" xlink:title="Construction of the PMTs.">
<polygon fill="white" stroke="black" points="1201.26,-224.5 1201.26,-243.5 1350.26,-243.5 1350.26,-224.5 1201.26,-224.5"/>
<text text-anchor="middle" x="1275.76" y="-231.5" font-family="Helvetica,sans-Serif" font-size="10.00">OMSimPMTConstruction.hh</text>
</a>
</g>
</g>
<!-- Node1&#45;&gt;Node36 -->
<g id="edge63" class="edge">
<title>Node1&#45;&gt;Node36</title>
<path fill="none" stroke="midnightblue" d="M1275.76,-269.8C1275.76,-260.91 1275.76,-250.78 1275.76,-243.75"/>
<polygon fill="midnightblue" stroke="midnightblue" points="1272.26,-270.08 1275.76,-280.08 1279.26,-270.08 1272.26,-270.08"/>
</g>
<!-- Node37 -->
<g id="node37" class="node">
<title>Node37</title>
<g id="a_node37"><a xlink:href="abc_detector_component_8cc.html" target="_top" xlink:title=" ">
<polygon fill="white" stroke="black" points="1417.76,-168.5 1417.76,-187.5 1563.76,-187.5 1563.76,-168.5 1417.76,-168.5"/>
<text text-anchor="middle" x="1490.76" y="-175.5" font-family="Helvetica,sans-Serif" font-size="10.00">abcDetectorComponent.cc</text>
</a>
</g>
</g>
<!-- Node1&#45;&gt;Node37 -->
<g id="edge74" class="edge">
<title>Node1&#45;&gt;Node37</title>
<path fill="none" stroke="midnightblue" d="M1305.89,-276.5C1326.16,-267.87 1353.36,-255.85 1376.76,-244 1413.55,-225.37 1455.3,-200.59 1476.61,-187.67"/>
<polygon fill="midnightblue" stroke="midnightblue" points="1304.39,-273.34 1296.54,-280.45 1307.11,-279.78 1304.39,-273.34"/>
</g>
<!-- Node3 -->
<g id="node3" class="node">
<title>Node3</title>
<g id="a_node3"><a xlink:href="_o_m_sim_d_e_g_g_harness_8cc.html" target="_top" xlink:title=" ">
<polygon fill="white" stroke="black" points="398.76,-168.5 398.76,-187.5 532.76,-187.5 532.76,-168.5 398.76,-168.5"/>
<text text-anchor="middle" x="465.76" y="-175.5" font-family="Helvetica,sans-Serif" font-size="10.00">OMSimDEGGHarness.cc</text>
</a>
</g>
</g>
<!-- Node2&#45;&gt;Node3 -->
<g id="edge2" class="edge">
<title>Node2&#45;&gt;Node3</title>
<path fill="none" stroke="midnightblue" d="M465.76,-213.8C465.76,-204.91 465.76,-194.78 465.76,-187.75"/>
<polygon fill="midnightblue" stroke="midnightblue" points="462.26,-214.08 465.76,-224.08 469.26,-214.08 462.26,-214.08"/>
</g>
<!-- Node5 -->
<g id="node5" class="node">
<title>Node5</title>
<g id="a_node5"><a xlink:href="_o_m_sim_m_d_o_m_8hh.html" target="_top" xlink:title="Construction of mDOM.">
<polygon fill="white" stroke="black" points="1511.76,-112.5 1511.76,-131.5 1611.76,-131.5 1611.76,-112.5 1511.76,-112.5"/>
<text text-anchor="middle" x="1561.76" y="-119.5" font-family="Helvetica,sans-Serif" font-size="10.00">OMSimMDOM.hh</text>
</a>
</g>
</g>
<!-- Node4&#45;&gt;Node5 -->
<g id="edge4" class="edge">
<title>Node4&#45;&gt;Node5</title>
<path fill="none" stroke="midnightblue" d="M1565.31,-214.78C1568.26,-206.72 1571.29,-197.04 1572.76,-188 1576.02,-167.89 1569.43,-144.32 1565.11,-131.83"/>
<polygon fill="midnightblue" stroke="midnightblue" points="1561.99,-213.66 1561.61,-224.25 1568.51,-216.21 1561.99,-213.66"/>
</g>
<!-- Node6 -->
<g id="node6" class="node">
<title>Node6</title>
<g id="a_node6"><a xlink:href="_o_m_sim_detector_construction_8cc.html" target="_top" xlink:title=" ">
<polygon fill="white" stroke="black" points="1536.26,-0.5 1536.26,-19.5 1705.26,-19.5 1705.26,-0.5 1536.26,-0.5"/>
<text text-anchor="middle" x="1620.76" y="-7.5" font-family="Helvetica,sans-Serif" font-size="10.00">OMSimDetectorConstruction.cc</text>
</a>
</g>
</g>
<!-- Node5&#45;&gt;Node6 -->
<g id="edge5" class="edge">
<title>Node5&#45;&gt;Node6</title>
<path fill="none" stroke="midnightblue" d="M1621.63,-112.1C1642.98,-105.72 1664.9,-94.78 1677.76,-76 1692.68,-54.2 1660.14,-31.65 1638.35,-19.69"/>
<polygon fill="midnightblue" stroke="midnightblue" points="1620.64,-108.74 1611.89,-114.72 1622.46,-115.5 1620.64,-108.74"/>
</g>
<!-- Node7 -->
<g id="node7" class="node">
<title>Node7</title>
<g id="a_node7"><a xlink:href="_o_m_sim_m_d_o_m_8cc.html" target="_top" xlink:title=" ">
<polygon fill="white" stroke="black" points="1724.76,-56.5 1724.76,-75.5 1822.76,-75.5 1822.76,-56.5 1724.76,-56.5"/>
<text text-anchor="middle" x="1773.76" y="-63.5" font-family="Helvetica,sans-Serif" font-size="10.00">OMSimMDOM.cc</text>
</a>
</g>
</g>
<!-- Node5&#45;&gt;Node7 -->
<g id="edge6" class="edge">
<title>Node5&#45;&gt;Node7</title>
<path fill="none" stroke="midnightblue" d="M1605.1,-109.96C1645.14,-99.76 1703.79,-84.82 1740.32,-75.52"/>
<polygon fill="midnightblue" stroke="midnightblue" points="1604.18,-106.58 1595.35,-112.44 1605.9,-113.37 1604.18,-106.58"/>
</g>
<!-- Node8 -->
<g id="node8" class="node">
<title>Node8</title>
<g id="a_node8"><a xlink:href="_o_m_sim_m_d_o_m_flasher_8cc.html" target="_top" xlink:title=" ">
<polygon fill="white" stroke="black" points="1534.76,-56.5 1534.76,-75.5 1668.76,-75.5 1668.76,-56.5 1534.76,-56.5"/>
<text text-anchor="middle" x="1601.76" y="-63.5" font-family="Helvetica,sans-Serif" font-size="10.00">OMSimMDOMFlasher.cc</text>
</a>
</g>
</g>
<!-- Node5&#45;&gt;Node8 -->
<g id="edge7" class="edge">
<title>Node5&#45;&gt;Node8</title>
<path fill="none" stroke="midnightblue" d="M1574.46,-103.86C1581.38,-94.5 1589.66,-83.33 1595.27,-75.75"/>
<polygon fill="midnightblue" stroke="midnightblue" points="1571.5,-101.96 1568.36,-112.08 1577.13,-106.13 1571.5,-101.96"/>
</g>
<!-- Node9 -->
<g id="node9" class="node">
<title>Node9</title>
<g id="a_node9"><a xlink:href="_o_m_sim_m_d_o_m_harness_8cc.html" target="_top" xlink:title=" ">
<polygon fill="white" stroke="black" points="1840.76,-56.5 1840.76,-75.5 1978.76,-75.5 1978.76,-56.5 1840.76,-56.5"/>
<text text-anchor="middle" x="1909.76" y="-63.5" font-family="Helvetica,sans-Serif" font-size="10.00">OMSimMDOMHarness.cc</text>
</a>
</g>
</g>
<!-- Node5&#45;&gt;Node9 -->
<g id="edge8" class="edge">
<title>Node5&#45;&gt;Node9</title>
<path fill="none" stroke="midnightblue" d="M1622.18,-111.62C1687.78,-101.45 1791.63,-85.33 1854.95,-75.5"/>
<polygon fill="midnightblue" stroke="midnightblue" points="1621.33,-108.21 1611.99,-113.21 1622.41,-115.13 1621.33,-108.21"/>
</g>
<!-- Node10 -->
<g id="node10" class="node">
<title>Node10</title>
<g id="a_node10"><a xlink:href="_o_m_sim_effective_area_detector_8cc.html" target="_top" xlink:title=" ">
<polygon fill="white" stroke="black" points="1228.76,-0.5 1228.76,-19.5 1400.76,-19.5 1400.76,-0.5 1228.76,-0.5"/>
<text text-anchor="middle" x="1314.76" y="-7.5" font-family="Helvetica,sans-Serif" font-size="10.00">OMSimEffectiveAreaDetector.cc</text>
</a>
</g>
</g>
<!-- Node5&#45;&gt;Node10 -->
<g id="edge9" class="edge">
<title>Node5&#45;&gt;Node10</title>
<path fill="none" stroke="midnightblue" d="M1546.56,-105.06C1531.63,-90.3 1507.54,-68.75 1482.76,-56 1447.18,-37.7 1403.43,-26.29 1369.49,-19.54"/>
<polygon fill="midnightblue" stroke="midnightblue" points="1544.34,-107.8 1553.86,-112.47 1549.33,-102.89 1544.34,-107.8"/>
</g>
<!-- Node11 -->
<g id="node11" class="node">
<title>Node11</title>
<g id="a_node11"><a xlink:href="_o_m_sim_rad_decays_detector_8cc.html" target="_top" xlink:title=" ">
<polygon fill="white" stroke="black" points="795.26,-0.5 795.26,-19.5 956.26,-19.5 956.26,-0.5 795.26,-0.5"/>
<text text-anchor="middle" x="875.76" y="-7.5" font-family="Helvetica,sans-Serif" font-size="10.00">OMSimRadDecaysDetector.cc</text>
</a>
</g>
</g>
<!-- Node5&#45;&gt;Node11 -->
<g id="edge10" class="edge">
<title>Node5&#45;&gt;Node11</title>
<path fill="none" stroke="midnightblue" d="M1501.52,-118.93C1356.06,-113.6 993.87,-98.24 943.76,-76 915.69,-63.54 892.18,-34.33 881.66,-19.69"/>
<polygon fill="midnightblue" stroke="midnightblue" points="1501.49,-122.43 1511.61,-119.29 1501.75,-115.43 1501.49,-122.43"/>
</g>
<!-- Node12 -->
<g id="node12" class="node">
<title>Node12</title>
<g id="a_node12"><a xlink:href="_o_m_sim_s_ndetector_8cc.html" target="_top" xlink:title=" ">
<polygon fill="white" stroke="black" points="1091.26,-0.5 1091.26,-19.5 1210.26,-19.5 1210.26,-0.5 1091.26,-0.5"/>
<text text-anchor="middle" x="1150.76" y="-7.5" font-family="Helvetica,sans-Serif" font-size="10.00">OMSimSNdetector.cc</text>
</a>
</g>
</g>
<!-- Node5&#45;&gt;Node12 -->
<g id="edge11" class="edge">
<title>Node5&#45;&gt;Node12</title>
<path fill="none" stroke="midnightblue" d="M1537.56,-107.33C1521.9,-98.46 1501.08,-86.61 1482.76,-76 1467.58,-67.22 1465.28,-61.86 1448.76,-56 1426.78,-48.21 1290.93,-29.45 1210.44,-18.77"/>
<polygon fill="midnightblue" stroke="midnightblue" points="1536.15,-110.56 1546.58,-112.44 1539.6,-104.46 1536.15,-110.56"/>
</g>
<!-- Node13&#45;&gt;Node7 -->
<g id="edge13" class="edge">
<title>Node13&#45;&gt;Node7</title>
<path fill="none" stroke="midnightblue" d="M1773.76,-101.8C1773.76,-92.91 1773.76,-82.78 1773.76,-75.75"/>
<polygon fill="midnightblue" stroke="midnightblue" points="1770.26,-102.08 1773.76,-112.08 1777.26,-102.08 1770.26,-102.08"/>
</g>
<!-- Node13&#45;&gt;Node9 -->
<g id="edge14" class="edge">
<title>Node13&#45;&gt;Node9</title>
<path fill="none" stroke="midnightblue" d="M1804.89,-108.64C1830.41,-98.5 1865.87,-84.43 1888.31,-75.52"/>
<polygon fill="midnightblue" stroke="midnightblue" points="1803.31,-105.5 1795.31,-112.44 1805.89,-112.01 1803.31,-105.5"/>
</g>
<!-- Node14&#45;&gt;Node5 -->
<g id="edge51" class="edge">
<title>Node14&#45;&gt;Node5</title>
<path fill="none" stroke="midnightblue" d="M1124.42,-168.77C1231.89,-157.52 1421.53,-137.68 1511.58,-128.25"/>
<polygon fill="midnightblue" stroke="midnightblue" points="1123.86,-165.31 1114.28,-169.83 1124.59,-172.27 1123.86,-165.31"/>
</g>
<!-- Node15 -->
<g id="node15" class="node">
<title>Node15</title>
<g id="a_node15"><a xlink:href="_o_m_sim_d_e_g_g_8hh.html" target="_top" xlink:title="Construction of the DEGG class.">
<polygon fill="white" stroke="black" points="953.26,-56.5 953.26,-75.5 1048.26,-75.5 1048.26,-56.5 953.26,-56.5"/>
<text text-anchor="middle" x="1000.76" y="-63.5" font-family="Helvetica,sans-Serif" font-size="10.00">OMSimDEGG.hh</text>
</a>
</g>
</g>
<!-- Node14&#45;&gt;Node15 -->
<g id="edge16" class="edge">
<title>Node14&#45;&gt;Node15</title>
<path fill="none" stroke="midnightblue" d="M1021.39,-162.73C1010.81,-155.09 999.53,-144.64 993.76,-132 985.26,-113.42 992.17,-88.83 997.03,-75.87"/>
<polygon fill="midnightblue" stroke="midnightblue" points="1019.71,-165.82 1029.97,-168.47 1023.61,-160 1019.71,-165.82"/>
</g>
<!-- Node17 -->
<g id="node17" class="node">
<title>Node17</title>
<g id="a_node17"><a xlink:href="_o_m_sim_detector_construction_8hh.html" target="_top" xlink:title=" ">
<polygon fill="white" stroke="black" points="627.76,-112.5 627.76,-131.5 797.76,-131.5 797.76,-112.5 627.76,-112.5"/>
<text text-anchor="middle" x="712.76" y="-119.5" font-family="Helvetica,sans-Serif" font-size="10.00">OMSimDetectorConstruction.hh</text>
</a>
</g>
</g>
<!-- Node14&#45;&gt;Node17 -->
<g id="edge22" class="edge">
<title>Node14&#45;&gt;Node17</title>
<path fill="none" stroke="midnightblue" d="M982.8,-166.79C919.88,-156.59 824.24,-141.08 765.27,-131.52"/>
<polygon fill="midnightblue" stroke="midnightblue" points="982.56,-170.3 992.99,-168.44 983.68,-163.39 982.56,-170.3"/>
</g>
<!-- Node14&#45;&gt;Node25 -->
<g id="edge62" class="edge">
<title>Node14&#45;&gt;Node25</title>
<path fill="none" stroke="midnightblue" d="M967.13,-176.43C880.36,-174.03 737.27,-164.82 618.76,-132 598.44,-126.37 595.99,-117.89 575.76,-112 550.71,-104.71 400.96,-86.4 308.43,-75.52"/>
<polygon fill="midnightblue" stroke="midnightblue" points="967.09,-179.93 977.17,-176.68 967.26,-172.93 967.09,-179.93"/>
</g>
<!-- Node27 -->
<g id="node27" class="node">
<title>Node27</title>
<g id="a_node27"><a xlink:href="_o_m_sim_l_o_m16_8hh.html" target="_top" xlink:title="Construction of LOM16.">
<polygon fill="white" stroke="black" points="1185.26,-56.5 1185.26,-75.5 1286.26,-75.5 1286.26,-56.5 1185.26,-56.5"/>
<text text-anchor="middle" x="1235.76" y="-63.5" font-family="Helvetica,sans-Serif" font-size="10.00">OMSimLOM16.hh</text>
</a>
</g>
</g>
<!-- Node14&#45;&gt;Node27 -->
<g id="edge39" class="edge">
<title>Node14&#45;&gt;Node27</title>
<path fill="none" stroke="midnightblue" d="M1047.94,-158.54C1050.63,-143.92 1056.6,-124.03 1069.76,-112 1086.61,-96.58 1142.61,-83.52 1184.95,-75.5"/>
<polygon fill="midnightblue" stroke="midnightblue" points="1044.47,-158.06 1046.46,-168.47 1051.4,-159.09 1044.47,-158.06"/>
</g>
<!-- Node29 -->
<g id="node29" class="node">
<title>Node29</title>
<g id="a_node29"><a xlink:href="_o_m_sim_l_o_m18_8hh.html" target="_top" xlink:title="Construction of LOM18.">
<polygon fill="white" stroke="black" points="1066.26,-56.5 1066.26,-75.5 1167.26,-75.5 1167.26,-56.5 1066.26,-56.5"/>
<text text-anchor="middle" x="1116.76" y="-63.5" font-family="Helvetica,sans-Serif" font-size="10.00">OMSimLOM18.hh</text>
</a>
</g>
</g>
<!-- Node14&#45;&gt;Node29 -->
<g id="edge45" class="edge">
<title>Node14&#45;&gt;Node29</title>
<path fill="none" stroke="midnightblue" d="M1035.47,-159.44C1028.88,-145.67 1023.04,-126.48 1031.76,-112 1042.87,-93.55 1064.36,-82.26 1082.96,-75.61"/>
<polygon fill="midnightblue" stroke="midnightblue" points="1032.43,-161.17 1040.21,-168.36 1038.61,-157.88 1032.43,-161.17"/>
</g>
<!-- Node31 -->
<g id="node31" class="node">
<title>Node31</title>
<g id="a_node31"><a xlink:href="_o_m_sim_p_d_o_m_8hh.html" target="_top" xlink:title="Implementation of the pDOM/Gen1 DOM class.">
<polygon fill="white" stroke="black" points="1343.26,-56.5 1343.26,-75.5 1440.26,-75.5 1440.26,-56.5 1343.26,-56.5"/>
<text text-anchor="middle" x="1391.76" y="-63.5" font-family="Helvetica,sans-Serif" font-size="10.00">OMSimPDOM.hh</text>
</a>
</g>
</g>
<!-- Node14&#45;&gt;Node31 -->
<g id="edge52" class="edge">
<title>Node14&#45;&gt;Node31</title>
<path fill="none" stroke="midnightblue" d="M1056.04,-159.58C1065.98,-144.4 1082.5,-123.14 1102.76,-112 1108,-109.12 1262.21,-86.08 1343.17,-74.13"/>
<polygon fill="midnightblue" stroke="midnightblue" points="1053.05,-157.76 1050.72,-168.09 1058.99,-161.47 1053.05,-157.76"/>
</g>
<!-- Node33 -->
<g id="node33" class="node">
<title>Node33</title>
<g id="a_node33"><a xlink:href="_o_m_sim_optical_module_8cc.html" target="_top" xlink:title=" ">
<polygon fill="white" stroke="black" points="1111.76,-112.5 1111.76,-131.5 1247.76,-131.5 1247.76,-112.5 1111.76,-112.5"/>
<text text-anchor="middle" x="1179.76" y="-119.5" font-family="Helvetica,sans-Serif" font-size="10.00">OMSimOpticalModule.cc</text>
</a>
</g>
</g>
<!-- Node14&#45;&gt;Node33 -->
<g id="edge58" class="edge">
<title>Node14&#45;&gt;Node33</title>
<path fill="none" stroke="midnightblue" d="M1076.43,-164.64C1101.58,-154.5 1136.51,-140.43 1158.62,-131.52"/>
<polygon fill="midnightblue" stroke="midnightblue" points="1074.96,-161.46 1066.99,-168.44 1077.57,-167.95 1074.96,-161.46"/>
</g>
<!-- Node34 -->
<g id="node34" class="node">
<title>Node34</title>
<g id="a_node34"><a xlink:href="_o_m_sim_decays_g_p_s_8hh.html" target="_top" xlink:title="Defines the IsotopeDecays class for the radioactive decays simulation.">
<polygon fill="white" stroke="black" points="13.76,-112.5 13.76,-131.5 135.76,-131.5 135.76,-112.5 13.76,-112.5"/>
<text text-anchor="middle" x="74.76" y="-119.5" font-family="Helvetica,sans-Serif" font-size="10.00">OMSimDecaysGPS.hh</text>
</a>
</g>
</g>
<!-- Node14&#45;&gt;Node34 -->
<g id="edge59" class="edge">
<title>Node14&#45;&gt;Node34</title>
<path fill="none" stroke="midnightblue" d="M966.98,-172.62C778.57,-162.14 305.01,-135.81 135.93,-126.4"/>
<polygon fill="midnightblue" stroke="midnightblue" points="966.91,-176.12 977.09,-173.18 967.3,-169.13 966.91,-176.12"/>
</g>
<!-- Node15&#45;&gt;Node6 -->
<g id="edge18" class="edge">
<title>Node15&#45;&gt;Node6</title>
<path fill="none" stroke="midnightblue" d="M1058.4,-55.89C1266.5,-31.56 1321.29,-37.7 1526.76,-20 1529.86,-19.73 1533.02,-19.46 1536.21,-19.17"/>
<polygon fill="midnightblue" stroke="midnightblue" points="1057.9,-52.42 1048.38,-57.07 1058.72,-59.38 1057.9,-52.42"/>
</g>
<!-- Node15&#45;&gt;Node10 -->
<g id="edge19" class="edge">
<title>Node15&#45;&gt;Node10</title>
<path fill="none" stroke="midnightblue" d="M1058.41,-55.09C1117.74,-44.88 1209.19,-29.15 1265.32,-19.5"/>
<polygon fill="midnightblue" stroke="midnightblue" points="1057.71,-51.65 1048.45,-56.8 1058.9,-58.55 1057.71,-51.65"/>
</g>
<!-- Node15&#45;&gt;Node11 -->
<g id="edge20" class="edge">
<title>Node15&#45;&gt;Node11</title>
<path fill="none" stroke="midnightblue" d="M971.52,-52.37C948.11,-42.26 915.92,-28.35 895.47,-19.52"/>
<polygon fill="midnightblue" stroke="midnightblue" points="970.38,-55.69 980.95,-56.44 973.16,-49.26 970.38,-55.69"/>
</g>
<!-- Node15&#45;&gt;Node12 -->
<g id="edge21" class="edge">
<title>Node15&#45;&gt;Node12</title>
<path fill="none" stroke="midnightblue" d="M1033.98,-53.04C1062.21,-42.88 1102.02,-28.55 1127.1,-19.52"/>
<polygon fill="midnightblue" stroke="midnightblue" points="1032.75,-49.76 1024.52,-56.44 1035.12,-56.35 1032.75,-49.76"/>
</g>
<!-- Node16 -->
<g id="node16" class="node">
<title>Node16</title>
<g id="a_node16"><a xlink:href="_o_m_sim_d_e_g_g_8cc.html" target="_top" xlink:title=" ">
<polygon fill="white" stroke="black" points="682.76,-0.5 682.76,-19.5 776.76,-19.5 776.76,-0.5 682.76,-0.5"/>
<text text-anchor="middle" x="729.76" y="-7.5" font-family="Helvetica,sans-Serif" font-size="10.00">OMSimDEGG.cc</text>
</a>
</g>
</g>
<!-- Node15&#45;&gt;Node16 -->
<g id="edge17" class="edge">
<title>Node15&#45;&gt;Node16</title>
<path fill="none" stroke="midnightblue" d="M947.93,-54.47C896.71,-44.27 819.99,-28.98 772.5,-19.52"/>
<polygon fill="midnightblue" stroke="midnightblue" points="947.32,-57.92 957.82,-56.44 948.69,-51.06 947.32,-57.92"/>
</g>
<!-- Node17&#45;&gt;Node6 -->
<g id="edge28" class="edge">
<title>Node17&#45;&gt;Node6</title>
<path fill="none" stroke="midnightblue" d="M808.13,-118.19C949.1,-113.26 1205.98,-101.1 1294.76,-76 1313.5,-70.7 1315.23,-62.03 1333.76,-56 1372.78,-43.3 1478.18,-28.56 1549.79,-19.51"/>
<polygon fill="midnightblue" stroke="midnightblue" points="807.64,-114.7 797.77,-118.54 807.88,-121.7 807.64,-114.7"/>
</g>
<!-- Node18 -->
<g id="node18" class="node">
<title>Node18</title>
<g id="a_node18"><a xlink:href="_o_m_sim_8hh.html" target="_top" xlink:title="Main simulation class for the Optical Module (OM) simulation. This file defines the OMSim class,...">
<polygon fill="white" stroke="black" points="334.26,-56.5 334.26,-75.5 401.26,-75.5 401.26,-56.5 334.26,-56.5"/>
<text text-anchor="middle" x="367.76" y="-63.5" font-family="Helvetica,sans-Serif" font-size="10.00">OMSim.hh</text>
</a>
</g>
</g>
<!-- Node17&#45;&gt;Node18 -->
<g id="edge23" class="edge">
<title>Node17&#45;&gt;Node18</title>
<path fill="none" stroke="midnightblue" d="M638.11,-111.11C576.87,-102.71 487.99,-89.82 410.76,-76 407.75,-75.46 404.64,-74.87 401.52,-74.26"/>
<polygon fill="midnightblue" stroke="midnightblue" points="637.69,-114.59 648.07,-112.47 638.64,-107.65 637.69,-114.59"/>
</g>
<!-- Node23 -->
<g id="node23" class="node">
<title>Node23</title>
<g id="a_node23"><a xlink:href="_o_m_sim_p_m_t_construction_8cc.html" target="_top" xlink:title=" ">
<polygon fill="white" stroke="black" points="749.26,-56.5 749.26,-75.5 896.26,-75.5 896.26,-56.5 749.26,-56.5"/>
<text text-anchor="middle" x="822.76" y="-63.5" font-family="Helvetica,sans-Serif" font-size="10.00">OMSimPMTConstruction.cc</text>
</a>
</g>
</g>
<!-- Node17&#45;&gt;Node23 -->
<g id="edge29" class="edge">
<title>Node17&#45;&gt;Node23</title>
<path fill="none" stroke="midnightblue" d="M739.52,-107.86C759.92,-97.85 787.42,-84.35 805.13,-75.65"/>
<polygon fill="midnightblue" stroke="midnightblue" points="737.86,-104.78 730.43,-112.32 740.95,-111.06 737.86,-104.78"/>
</g>
<!-- Node24 -->
<g id="node24" class="node">
<title>Node24</title>
<g id="a_node24"><a xlink:href="_o_m_sim_effective_area_detector_8hh.html" target="_top" xlink:title="Defines the OMSimEffectiveAreaDetector class for effective area simulation detector construction.">
<polygon fill="white" stroke="black" points="558.26,-56.5 558.26,-75.5 731.26,-75.5 731.26,-56.5 558.26,-56.5"/>
<text text-anchor="middle" x="644.76" y="-63.5" font-family="Helvetica,sans-Serif" font-size="10.00">OMSimEffectiveAreaDetector.hh</text>
</a>
</g>
</g>
<!-- Node17&#45;&gt;Node24 -->
<g id="edge30" class="edge">
<title>Node17&#45;&gt;Node24</title>
<path fill="none" stroke="midnightblue" d="M693.99,-106.1C681.76,-96.38 666.2,-84.03 655.88,-75.83"/>
<polygon fill="midnightblue" stroke="midnightblue" points="691.82,-108.85 701.83,-112.32 696.18,-103.36 691.82,-108.85"/>
</g>
<!-- Node17&#45;&gt;Node25 -->
<g id="edge33" class="edge">
<title>Node17&#45;&gt;Node25</title>
<path fill="none" stroke="midnightblue" d="M627.09,-111.32C536.92,-101.14 396.36,-85.26 310.23,-75.53"/>
<polygon fill="midnightblue" stroke="midnightblue" points="626.95,-114.83 637.28,-112.47 627.74,-107.87 626.95,-114.83"/>
</g>
<!-- Node26 -->
<g id="node26" class="node">
<title>Node26</title>
<g id="a_node26"><a xlink:href="_o_m_sim_s_ndetector_8hh.html" target="_top" xlink:title=" ">
<polygon fill="white" stroke="black" points="419.76,-56.5 419.76,-75.5 539.76,-75.5 539.76,-56.5 419.76,-56.5"/>
<text text-anchor="middle" x="479.76" y="-63.5" font-family="Helvetica,sans-Serif" font-size="10.00">OMSimSNdetector.hh</text>
</a>
</g>
</g>
<!-- Node17&#45;&gt;Node26 -->
<g id="edge36" class="edge">
<title>Node17&#45;&gt;Node26</title>
<path fill="none" stroke="midnightblue" d="M665.95,-110.15C621.93,-99.95 556.91,-84.88 516.5,-75.52"/>
<polygon fill="midnightblue" stroke="midnightblue" points="665.31,-113.6 675.84,-112.44 666.89,-106.78 665.31,-113.6"/>
</g>
<!-- Node19 -->
<g id="node19" class="node">
<title>Node19</title>
<g id="a_node19"><a xlink:href="_o_m_sim_8cc.html" target="_top" xlink:title="Implementation of the OMSim class.">
<polygon fill="white" stroke="black" points="301.26,-0.5 301.26,-19.5 366.26,-19.5 366.26,-0.5 301.26,-0.5"/>
<text text-anchor="middle" x="333.76" y="-7.5" font-family="Helvetica,sans-Serif" font-size="10.00">OMSim.cc</text>
</a>
</g>
</g>
<!-- Node18&#45;&gt;Node19 -->
<g id="edge24" class="edge">
<title>Node18&#45;&gt;Node19</title>
<path fill="none" stroke="midnightblue" d="M356.78,-47.57C350.93,-38.27 343.99,-27.25 339.27,-19.75"/>
<polygon fill="midnightblue" stroke="midnightblue" points="353.85,-49.49 362.14,-56.08 359.78,-45.76 353.85,-49.49"/>
</g>
<!-- Node20 -->
<g id="node20" class="node">
<title>Node20</title>
<g id="a_node20"><a xlink:href="_o_m_sim__effective__area_8cc.html" target="_top" xlink:title="Main for the calculation of effective areas.">
<polygon fill="white" stroke="black" points="524.76,-0.5 524.76,-19.5 664.76,-19.5 664.76,-0.5 524.76,-0.5"/>
<text text-anchor="middle" x="594.76" y="-7.5" font-family="Helvetica,sans-Serif" font-size="10.00">OMSim_effective_area.cc</text>
</a>
</g>
</g>
<!-- Node18&#45;&gt;Node20 -->
<g id="edge25" class="edge">
<title>Node18&#45;&gt;Node20</title>
<path fill="none" stroke="midnightblue" d="M411.59,-54.57C454.39,-44.39 518.73,-29.09 558.66,-19.59"/>
<polygon fill="midnightblue" stroke="midnightblue" points="410.66,-51.2 401.74,-56.92 412.28,-58.01 410.66,-51.2"/>
</g>
<!-- Node21 -->
<g id="node21" class="node">
<title>Node21</title>
<g id="a_node21"><a xlink:href="_o_m_sim__radioactive__decays_8cc.html" target="_top" xlink:title="Main of the radioactive decay study.">
<polygon fill="white" stroke="black" points="118.26,-0.5 118.26,-19.5 283.26,-19.5 283.26,-0.5 118.26,-0.5"/>
<text text-anchor="middle" x="200.76" y="-7.5" font-family="Helvetica,sans-Serif" font-size="10.00">OMSim_radioactive_decays.cc</text>
</a>
</g>
</g>
<!-- Node18&#45;&gt;Node21 -->
<g id="edge26" class="edge">
<title>Node18&#45;&gt;Node21</title>
<path fill="none" stroke="midnightblue" d="M331.59,-53.3C300.12,-43.13 255.26,-28.62 227.09,-19.52"/>
<polygon fill="midnightblue" stroke="midnightblue" points="330.7,-56.7 341.3,-56.44 332.86,-50.04 330.7,-56.7"/>
</g>
<!-- Node22 -->
<g id="node22" class="node">
<title>Node22</title>
<g id="a_node22"><a xlink:href="_o_m_sim__supernova_8cc.html" target="_top" xlink:title="Main of the supernova study.">
<polygon fill="white" stroke="black" points="384.76,-0.5 384.76,-19.5 506.76,-19.5 506.76,-0.5 384.76,-0.5"/>
<text text-anchor="middle" x="445.76" y="-7.5" font-family="Helvetica,sans-Serif" font-size="10.00">OMSim_supernova.cc</text>
</a>
</g>
</g>
<!-- Node18&#45;&gt;Node22 -->
<g id="edge27" class="edge">
<title>Node18&#45;&gt;Node22</title>
<path fill="none" stroke="midnightblue" d="M388.52,-50.62C402.77,-40.76 421.21,-27.99 433.26,-19.65"/>
<polygon fill="midnightblue" stroke="midnightblue" points="386.52,-47.75 380.29,-56.32 390.5,-53.51 386.52,-47.75"/>
</g>
<!-- Node24&#45;&gt;Node10 -->
<g id="edge32" class="edge">
<title>Node24&#45;&gt;Node10</title>
<path fill="none" stroke="midnightblue" d="M741.71,-55.85C954.19,-37.93 1009.35,-37.68 1218.76,-20 1222.01,-19.73 1225.32,-19.44 1228.67,-19.15"/>
<polygon fill="midnightblue" stroke="midnightblue" points="741.14,-52.38 731.47,-56.71 741.73,-59.36 741.14,-52.38"/>
</g>
<!-- Node24&#45;&gt;Node20 -->
<g id="edge31" class="edge">
<title>Node24&#45;&gt;Node20</title>
<path fill="none" stroke="midnightblue" d="M629.68,-48.72C620.87,-39.2 610.09,-27.56 602.86,-19.75"/>
<polygon fill="midnightblue" stroke="midnightblue" points="627.14,-51.12 636.5,-56.08 632.27,-46.37 627.14,-51.12"/>
</g>
<!-- Node25&#45;&gt;Node11 -->
<g id="edge35" class="edge">
<title>Node25&#45;&gt;Node11</title>
<path fill="none" stroke="midnightblue" d="M326.83,-55.83C531.16,-37.78 584.35,-37.93 785.76,-20 788.73,-19.74 791.76,-19.46 794.81,-19.18"/>
<polygon fill="midnightblue" stroke="midnightblue" points="326.32,-52.36 316.67,-56.73 326.94,-59.34 326.32,-52.36"/>
</g>
<!-- Node25&#45;&gt;Node21 -->
<g id="edge34" class="edge">
<title>Node25&#45;&gt;Node21</title>
<path fill="none" stroke="midnightblue" d="M223.78,-47.57C217.93,-38.27 210.99,-27.25 206.27,-19.75"/>
<polygon fill="midnightblue" stroke="midnightblue" points="220.85,-49.49 229.14,-56.08 226.78,-45.76 220.85,-49.49"/>
</g>
<!-- Node26&#45;&gt;Node12 -->
<g id="edge38" class="edge">
<title>Node26&#45;&gt;Node12</title>
<path fill="none" stroke="midnightblue" d="M550.24,-55.91C786.78,-32.93 848.83,-43.03 1081.76,-20 1084.76,-19.7 1087.84,-19.38 1090.94,-19.03"/>
<polygon fill="midnightblue" stroke="midnightblue" points="549.55,-52.47 539.94,-56.93 550.24,-59.43 549.55,-52.47"/>
</g>
<!-- Node26&#45;&gt;Node22 -->
<g id="edge37" class="edge">
<title>Node26&#45;&gt;Node22</title>
<path fill="none" stroke="midnightblue" d="M468.78,-47.57C462.93,-38.27 455.99,-27.25 451.27,-19.75"/>
<polygon fill="midnightblue" stroke="midnightblue" points="465.85,-49.49 474.14,-56.08 471.78,-45.76 465.85,-49.49"/>
</g>
<!-- Node27&#45;&gt;Node6 -->
<g id="edge40" class="edge">
<title>Node27&#45;&gt;Node6</title>
<path fill="none" stroke="midnightblue" d="M1296.77,-56.44C1368.88,-46.33 1488.12,-29.6 1560.08,-19.51"/>
<polygon fill="midnightblue" stroke="midnightblue" points="1295.9,-53.03 1286.48,-57.88 1296.87,-59.96 1295.9,-53.03"/>
</g>
<!-- Node27&#45;&gt;Node10 -->
<g id="edge42" class="edge">
<title>Node27&#45;&gt;Node10</title>
<path fill="none" stroke="midnightblue" d="M1256.79,-50.62C1271.22,-40.76 1289.9,-27.99 1302.1,-19.65"/>
<polygon fill="midnightblue" stroke="midnightblue" points="1254.73,-47.79 1248.45,-56.32 1258.68,-53.57 1254.73,-47.79"/>
</g>
<!-- Node27&#45;&gt;Node11 -->
<g id="edge43" class="edge">
<title>Node27&#45;&gt;Node11</title>
<path fill="none" stroke="midnightblue" d="M1174.84,-55.86C1107.11,-45.7 998.57,-29.42 932.54,-19.52"/>
<polygon fill="midnightblue" stroke="midnightblue" points="1174.53,-59.36 1184.94,-57.38 1175.57,-52.43 1174.53,-59.36"/>
</g>
<!-- Node27&#45;&gt;Node12 -->
<g id="edge44" class="edge">
<title>Node27&#45;&gt;Node12</title>
<path fill="none" stroke="midnightblue" d="M1213.56,-50.9C1197.98,-41 1177.63,-28.07 1164.38,-19.65"/>
<polygon fill="midnightblue" stroke="midnightblue" points="1211.78,-53.92 1222.1,-56.32 1215.54,-48.01 1211.78,-53.92"/>
</g>
<!-- Node28 -->
<g id="node28" class="node">
<title>Node28</title>
<g id="a_node28"><a xlink:href="_o_m_sim_l_o_m16_8cc.html" target="_top" xlink:title=" ">
<polygon fill="white" stroke="black" points="1419.26,-0.5 1419.26,-19.5 1518.26,-19.5 1518.26,-0.5 1419.26,-0.5"/>
<text text-anchor="middle" x="1468.76" y="-7.5" font-family="Helvetica,sans-Serif" font-size="10.00">OMSimLOM16.cc</text>
</a>
</g>
</g>
<!-- Node27&#45;&gt;Node28 -->
<g id="edge41" class="edge">
<title>Node27&#45;&gt;Node28</title>
<path fill="none" stroke="midnightblue" d="M1282.56,-54.15C1326.58,-43.95 1391.6,-28.88 1432.01,-19.52"/>
<polygon fill="midnightblue" stroke="midnightblue" points="1281.63,-50.78 1272.68,-56.44 1283.21,-57.6 1281.63,-50.78"/>
</g>
<!-- Node29&#45;&gt;Node6 -->
<g id="edge46" class="edge">
<title>Node29&#45;&gt;Node6</title>
<path fill="none" stroke="midnightblue" d="M1177.22,-55.92C1235.93,-49.07 1424.36,-30.35 1536.05,-19.33"/>
<polygon fill="midnightblue" stroke="midnightblue" points="1176.77,-52.45 1167.26,-57.12 1177.61,-59.4 1176.77,-52.45"/>
</g>
<!-- Node29&#45;&gt;Node10 -->
<g id="edge48" class="edge">
<title>Node29&#45;&gt;Node10</title>
<path fill="none" stroke="midnightblue" d="M1158.2,-53.7C1195.56,-43.51 1249.7,-28.74 1283.53,-19.52"/>
<polygon fill="midnightblue" stroke="midnightblue" points="1156.86,-50.44 1148.13,-56.44 1158.7,-57.19 1156.86,-50.44"/>
</g>
<!-- Node29&#45;&gt;Node11 -->
<g id="edge49" class="edge">
<title>Node29&#45;&gt;Node11</title>
<path fill="none" stroke="midnightblue" d="M1068.63,-54.22C1023.09,-44.01 955.65,-28.9 913.77,-19.52"/>
<polygon fill="midnightblue" stroke="midnightblue" points="1068.05,-57.67 1078.57,-56.44 1069.58,-50.84 1068.05,-57.67"/>
</g>
<!-- Node29&#45;&gt;Node12 -->
<g id="edge50" class="edge">
<title>Node29&#45;&gt;Node12</title>
<path fill="none" stroke="midnightblue" d="M1127.73,-47.57C1133.58,-38.27 1140.53,-27.25 1145.25,-19.75"/>
<polygon fill="midnightblue" stroke="midnightblue" points="1124.74,-45.76 1122.37,-56.08 1130.66,-49.49 1124.74,-45.76"/>
</g>
<!-- Node30 -->
<g id="node30" class="node">
<title>Node30</title>
<g id="a_node30"><a xlink:href="_o_m_sim_l_o_m18_8cc.html" target="_top" xlink:title=" ">
<polygon fill="white" stroke="black" points="974.26,-0.5 974.26,-19.5 1073.26,-19.5 1073.26,-0.5 974.26,-0.5"/>
<text text-anchor="middle" x="1023.76" y="-7.5" font-family="Helvetica,sans-Serif" font-size="10.00">OMSimLOM18.cc</text>
</a>
</g>
</g>
<!-- Node29&#45;&gt;Node30 -->
<g id="edge47" class="edge">
<title>Node29&#45;&gt;Node30</title>
<path fill="none" stroke="midnightblue" d="M1092.95,-51.18C1075.84,-41.24 1053.29,-28.15 1038.66,-19.65"/>
<polygon fill="midnightblue" stroke="midnightblue" points="1091.41,-54.33 1101.81,-56.32 1094.92,-48.28 1091.41,-54.33"/>
</g>
<!-- Node31&#45;&gt;Node6 -->
<g id="edge53" class="edge">
<title>Node31&#45;&gt;Node6</title>
<path fill="none" stroke="midnightblue" d="M1438.03,-54.09C1481.29,-43.89 1545.01,-28.86 1584.64,-19.52"/>
<polygon fill="midnightblue" stroke="midnightblue" points="1436.97,-50.74 1428.04,-56.44 1438.58,-57.55 1436.97,-50.74"/>
</g>
<!-- Node31&#45;&gt;Node10 -->
<g id="edge55" class="edge">
<title>Node31&#45;&gt;Node10</title>
<path fill="none" stroke="midnightblue" d="M1370.86,-50.34C1356.85,-40.52 1338.87,-27.91 1327.1,-19.65"/>
<polygon fill="midnightblue" stroke="midnightblue" points="1369.19,-53.45 1379.39,-56.32 1373.21,-47.72 1369.19,-53.45"/>
</g>
<!-- Node31&#45;&gt;Node11 -->
<g id="edge56" class="edge">
<title>Node31&#45;&gt;Node11</title>
<path fill="none" stroke="midnightblue" d="M1333.2,-58.87C1240.81,-49.2 1061.02,-30.39 956.46,-19.45"/>
<polygon fill="midnightblue" stroke="midnightblue" points="1332.9,-62.36 1343.21,-59.92 1333.63,-55.4 1332.9,-62.36"/>
</g>
<!-- Node31&#45;&gt;Node12 -->
<g id="edge57" class="edge">
<title>Node31&#45;&gt;Node12</title>
<path fill="none" stroke="midnightblue" d="M1343.63,-54.22C1298.09,-44.01 1230.65,-28.9 1188.77,-19.52"/>
<polygon fill="midnightblue" stroke="midnightblue" points="1343.05,-57.67 1353.57,-56.44 1344.58,-50.84 1343.05,-57.67"/>
</g>
<!-- Node32 -->
<g id="node32" class="node">
<title>Node32</title>
<g id="a_node32"><a xlink:href="_o_m_sim_p_d_o_m_8cc.html" target="_top" xlink:title=" ">
<polygon fill="white" stroke="black" points="1723.26,-0.5 1723.26,-19.5 1818.26,-19.5 1818.26,-0.5 1723.26,-0.5"/>
<text text-anchor="middle" x="1770.76" y="-7.5" font-family="Helvetica,sans-Serif" font-size="10.00">OMSimPDOM.cc</text>
</a>
</g>
</g>
<!-- Node31&#45;&gt;Node32 -->
<g id="edge54" class="edge">
<title>Node31&#45;&gt;Node32</title>
<path fill="none" stroke="midnightblue" d="M1450.34,-57.13C1514.9,-48.38 1621.81,-33.68 1713.76,-20 1716.83,-19.54 1719.99,-19.06 1723.18,-18.58"/>
<polygon fill="midnightblue" stroke="midnightblue" points="1449.79,-53.67 1440.35,-58.48 1450.73,-60.61 1449.79,-53.67"/>
</g>
<!-- Node34&#45;&gt;Node21 -->
<g id="edge60" class="edge">
<title>Node34&#45;&gt;Node21</title>
<path fill="none" stroke="midnightblue" d="M43.61,-108.22C18.11,-95.91 -11.35,-76.22 4.76,-56 19.28,-37.77 71.95,-26.32 119.04,-19.53"/>
<polygon fill="midnightblue" stroke="midnightblue" points="42.19,-111.42 52.74,-112.41 45.11,-105.06 42.19,-111.42"/>
</g>
<!-- Node35 -->
<g id="node35" class="node">
<title>Node35</title>
<g id="a_node35"><a xlink:href="_o_m_sim_decays_g_p_s_8cc.html" target="_top" xlink:title=" ">
<polygon fill="white" stroke="black" points="14.26,-56.5 14.26,-75.5 135.26,-75.5 135.26,-56.5 14.26,-56.5"/>
<text text-anchor="middle" x="74.76" y="-63.5" font-family="Helvetica,sans-Serif" font-size="10.00">OMSimDecaysGPS.cc</text>
</a>
</g>
</g>
<!-- Node34&#45;&gt;Node35 -->
<g id="edge61" class="edge">
<title>Node34&#45;&gt;Node35</title>
<path fill="none" stroke="midnightblue" d="M74.76,-101.8C74.76,-92.91 74.76,-82.78 74.76,-75.75"/>
<polygon fill="midnightblue" stroke="midnightblue" points="71.26,-102.08 74.76,-112.08 78.26,-102.08 71.26,-102.08"/>
</g>
<!-- Node36&#45;&gt;Node5 -->
<g id="edge67" class="edge">
<title>Node36&#45;&gt;Node5</title>
<path fill="none" stroke="midnightblue" d="M1302.16,-219.8C1337.8,-202.03 1398.08,-172.14 1408.76,-168 1448.25,-152.67 1495.18,-139.59 1526.56,-131.55"/>
<polygon fill="midnightblue" stroke="midnightblue" points="1300.21,-216.86 1292.82,-224.46 1303.33,-223.13 1300.21,-216.86"/>
</g>
<!-- Node36&#45;&gt;Node14 -->
<g id="edge68" class="edge">
<title>Node36&#45;&gt;Node14</title>
<path fill="none" stroke="midnightblue" d="M1229.56,-222.15C1186.1,-211.95 1121.92,-196.88 1082.03,-187.52"/>
<polygon fill="midnightblue" stroke="midnightblue" points="1228.78,-225.57 1239.31,-224.44 1230.38,-218.75 1228.78,-225.57"/>
</g>
<!-- Node36&#45;&gt;Node15 -->
<g id="edge64" class="edge">
<title>Node36&#45;&gt;Node15</title>
<path fill="none" stroke="midnightblue" d="M1190.82,-232.58C1109.83,-230.15 996.1,-220.78 967.76,-188 938.71,-154.4 976.91,-97.51 993.63,-75.79"/>
<polygon fill="midnightblue" stroke="midnightblue" points="1190.94,-236.08 1201.03,-232.85 1191.12,-229.08 1190.94,-236.08"/>
</g>
<!-- Node36&#45;&gt;Node23 -->
<g id="edge73" class="edge">
<title>Node36&#45;&gt;Node23</title>
<path fill="none" stroke="midnightblue" d="M1190.87,-226.82C1110.21,-219.93 995.39,-207.16 954.76,-188 896.55,-160.55 846.17,-98.38 829.02,-75.59"/>
<polygon fill="midnightblue" stroke="midnightblue" points="1190.77,-230.32 1201.02,-227.67 1191.35,-223.35 1190.77,-230.32"/>
</g>
<!-- Node36&#45;&gt;Node27 -->
<g id="edge65" class="edge">
<title>Node36&#45;&gt;Node27</title>
<path fill="none" stroke="midnightblue" d="M1283.64,-214.79C1293.01,-190.24 1305.54,-145.7 1289.76,-112 1282.1,-95.64 1265.24,-83.16 1252.39,-75.54"/>
<polygon fill="midnightblue" stroke="midnightblue" points="1280.3,-213.7 1279.78,-224.28 1286.79,-216.34 1280.3,-213.7"/>
</g>
<!-- Node36&#45;&gt;Node29 -->
<g id="edge66" class="edge">
<title>Node36&#45;&gt;Node29</title>
<path fill="none" stroke="midnightblue" d="M1278.37,-214.41C1280.94,-188.33 1281.44,-140.85 1256.76,-112 1243.93,-97.01 1195.6,-83.73 1159.28,-75.55"/>
<polygon fill="midnightblue" stroke="midnightblue" points="1274.88,-214.11 1277.17,-224.45 1281.83,-214.94 1274.88,-214.11"/>
</g>
<!-- Node36&#45;&gt;Node31 -->
<g id="edge69" class="edge">
<title>Node36&#45;&gt;Node31</title>
<path fill="none" stroke="midnightblue" d="M1288.27,-216.2C1294.49,-207.78 1302.09,-197.4 1308.76,-188 1338.38,-146.24 1372.65,-95.46 1386.01,-75.57"/>
<polygon fill="midnightblue" stroke="midnightblue" points="1285.31,-214.31 1282.16,-224.43 1290.93,-218.49 1285.31,-214.31"/>
</g>
<!-- Node36&#45;&gt;Node33 -->
<g id="edge72" class="edge">
<title>Node36&#45;&gt;Node33</title>
<path fill="none" stroke="midnightblue" d="M1261.43,-216.59C1240.74,-192.87 1203.21,-149.87 1187.25,-131.59"/>
<polygon fill="midnightblue" stroke="midnightblue" points="1259.01,-219.14 1268.22,-224.37 1264.29,-214.53 1259.01,-219.14"/>
</g>
<!-- Node36&#45;&gt;Node36 -->
<g id="edge70" class="edge">
<title>Node36&#45;&gt;Node36</title>
<path fill="none" stroke="midnightblue" d="M1325.18,-244.29C1348.16,-245.42 1368.26,-241.99 1368.26,-234 1368.26,-224.87 1342.01,-221.69 1315.21,-224.47"/>
<polygon fill="midnightblue" stroke="midnightblue" points="1325.45,-240.8 1315.21,-243.53 1324.91,-247.78 1325.45,-240.8"/>
</g>
<!-- Node36&#45;&gt;Node37 -->
<g id="edge71" class="edge">
<title>Node36&#45;&gt;Node37</title>
<path fill="none" stroke="midnightblue" d="M1319.72,-221.96C1360.32,-211.76 1419.8,-196.82 1456.85,-187.52"/>
<polygon fill="midnightblue" stroke="midnightblue" points="1318.67,-218.61 1309.82,-224.44 1320.38,-225.4 1318.67,-218.61"/>
</g>
</g>
</svg>
