<?xml version="1.0" encoding="UTF-8" standalone="no"?>
<!DOCTYPE svg PUBLIC "-//W3C//DTD SVG 1.1//EN"
 "http://www.w3.org/Graphics/SVG/1.1/DTD/svg11.dtd">
<!-- Generated by graphviz version 2.43.0 (0)
 -->
<!-- Title: abcDetectorComponent.hh Pages: 1 -->
<svg width="1036pt" height="308pt"
 viewBox="0.00 0.00 1036.00 308.00" xmlns="http://www.w3.org/2000/svg" xmlns:xlink="http://www.w3.org/1999/xlink">
<g id="graph0" class="graph" transform="scale(1 1) rotate(0) translate(4 304)">
<title>abcDetectorComponent.hh</title>
<!-- Node1 -->
<g id="node1" class="node">
<title>Node1</title>
<g id="a_node1"><a xlink:title="Provides helper base class abcDetectorComponent for constructing and managing detector components in ...">
<polygon fill="#bfbfbf" stroke="black" points="336.5,-280.5 336.5,-299.5 483.5,-299.5 483.5,-280.5 336.5,-280.5"/>
<text text-anchor="middle" x="410" y="-287.5" font-family="Helvetica,sans-Serif" font-size="10.00">abcDetectorComponent.hh</text>
</a>
</g>
</g>
<!-- Node2 -->
<g id="node2" class="node">
<title>Node2</title>
<g id="a_node2"><a xlink:href="_o_m_sim_d_e_g_g_harness_8hh.html" target="_top" xlink:title="Construction of the DEGG harness.">
<polygon fill="none" stroke="black" points="84.5,-224.5 84.5,-243.5 219.5,-243.5 219.5,-224.5 84.5,-224.5"/>
<text text-anchor="middle" x="152" y="-231.5" font-family="Helvetica,sans-Serif" font-size="10.00">OMSimDEGGHarness.hh</text>
</a>
</g>
</g>
<!-- Node1&#45;&gt;Node2 -->
<g id="edge1" class="edge">
<title>Node1&#45;&gt;Node2</title>
<path fill="none" stroke="midnightblue" d="M359.1,-278.35C310.34,-268.14 237.71,-252.94 192.69,-243.52"/>
<polygon fill="midnightblue" stroke="midnightblue" points="358.61,-281.82 369.12,-280.44 360.05,-274.97 358.61,-281.82"/>
</g>
<!-- Node3 -->
<g id="node3" class="node">
<title>Node3</title>
<g id="a_node3"><a xlink:href="_o_m_sim_m_d_o_m_flasher_8hh.html" target="_top" xlink:title="Defines the mDOMFlasher class for simulating the 10 flashers in an mDOM optical module.">
<polygon fill="none" stroke="black" points="10.5,-168.5 10.5,-187.5 145.5,-187.5 145.5,-168.5 10.5,-168.5"/>
<text text-anchor="middle" x="78" y="-175.5" font-family="Helvetica,sans-Serif" font-size="10.00">OMSimMDOMFlasher.hh</text>
</a>
</g>
</g>
<!-- Node1&#45;&gt;Node3 -->
<g id="edge2" class="edge">
<title>Node1&#45;&gt;Node3</title>
<path fill="none" stroke="midnightblue" d="M366.98,-277.77C337.97,-269.66 299.11,-257.75 266,-244 248.37,-236.68 245.67,-231.22 228,-224 189.75,-208.37 144.04,-195.43 113.21,-187.51"/>
<polygon fill="midnightblue" stroke="midnightblue" points="366.23,-281.19 376.8,-280.47 368.09,-274.44 366.23,-281.19"/>
</g>
<!-- Node5 -->
<g id="node5" class="node">
<title>Node5</title>
<g id="a_node5"><a xlink:href="_o_m_sim_m_d_o_m_harness_8hh.html" target="_top" xlink:title="Construction of mDOM harness.">
<polygon fill="none" stroke="black" points="888,-224.5 888,-243.5 1028,-243.5 1028,-224.5 888,-224.5"/>
<text text-anchor="middle" x="958" y="-231.5" font-family="Helvetica,sans-Serif" font-size="10.00">OMSimMDOMHarness.hh</text>
</a>
</g>
</g>
<!-- Node1&#45;&gt;Node5 -->
<g id="edge4" class="edge">
<title>Node1&#45;&gt;Node5</title>
<path fill="none" stroke="midnightblue" d="M493.74,-281.13C586.68,-272.34 741.1,-257.56 874,-244 878.52,-243.54 883.18,-243.06 887.88,-242.57"/>
<polygon fill="midnightblue" stroke="midnightblue" points="493.18,-277.67 483.55,-282.1 493.84,-284.64 493.18,-277.67"/>
</g>
<!-- Node6 -->
<g id="node6" class="node">
<title>Node6</title>
<g id="a_node6"><a xlink:href="_o_m_sim_optical_module_8hh_source.html" target="_top" xlink:title=" ">
<polygon fill="none" stroke="black" points="395.5,-168.5 395.5,-187.5 532.5,-187.5 532.5,-168.5 395.5,-168.5"/>
<text text-anchor="middle" x="464" y="-175.5" font-family="Helvetica,sans-Serif" font-size="10.00">OMSimOpticalModule.hh</text>
</a>
</g>
</g>
<!-- Node1&#45;&gt;Node6 -->
<g id="edge5" class="edge">
<title>Node1&#45;&gt;Node6</title>
<path fill="none" stroke="midnightblue" d="M428.26,-273.31C436.42,-265.33 445.43,-255.01 451,-244 460.35,-225.51 462.98,-200.89 463.71,-187.9"/>
<polygon fill="midnightblue" stroke="midnightblue" points="425.8,-270.82 420.84,-280.18 430.56,-275.95 425.8,-270.82"/>
</g>
<!-- Node15 -->
<g id="node15" class="node">
<title>Node15</title>
<g id="a_node15"><a xlink:href="_o_m_sim_rad_decays_detector_8hh.html" target="_top" xlink:title="Defines the OMSimRadDecaysDetector class for the radioactive decays simulation.">
<polygon fill="none" stroke="black" points="689.5,-56.5 689.5,-75.5 852.5,-75.5 852.5,-56.5 689.5,-56.5"/>
<text text-anchor="middle" x="771" y="-63.5" font-family="Helvetica,sans-Serif" font-size="10.00">OMSimRadDecaysDetector.hh</text>
</a>
</g>
</g>
<!-- Node1&#45;&gt;Node15 -->
<g id="edge35" class="edge">
<title>Node1&#45;&gt;Node15</title>
<path fill="none" stroke="midnightblue" d="M493.9,-285.5C595.24,-276.23 761.83,-243.76 840,-132 856.41,-108.53 818.64,-86.94 792.75,-75.51"/>
<polygon fill="midnightblue" stroke="midnightblue" points="493.36,-282.03 483.69,-286.37 493.96,-289.01 493.36,-282.03"/>
</g>
<!-- Node22 -->
<g id="node22" class="node">
<title>Node22</title>
<g id="a_node22"><a xlink:href="_o_m_sim_p_m_t_construction_8hh.html" target="_top" xlink:title="Construction of the PMTs.">
<polygon fill="none" stroke="black" points="275.5,-224.5 275.5,-243.5 424.5,-243.5 424.5,-224.5 275.5,-224.5"/>
<text text-anchor="middle" x="350" y="-231.5" font-family="Helvetica,sans-Serif" font-size="10.00">OMSimPMTConstruction.hh</text>
</a>
</g>
</g>
<!-- Node1&#45;&gt;Node22 -->
<g id="edge27" class="edge">
<title>Node1&#45;&gt;Node22</title>
<path fill="none" stroke="midnightblue" d="M392.82,-273.54C382.12,-263.91 368.74,-251.87 359.82,-243.83"/>
<polygon fill="midnightblue" stroke="midnightblue" points="390.59,-276.24 400.36,-280.32 395.27,-271.03 390.59,-276.24"/>
</g>
<!-- Node4 -->
<g id="node4" class="node">
<title>Node4</title>
<g id="a_node4"><a xlink:href="_o_m_sim_m_d_o_m_8hh.html" target="_top" xlink:title="Construction of mDOM.">
<polygon fill="none" stroke="black" points="0,-112.5 0,-131.5 100,-131.5 100,-112.5 0,-112.5"/>
<text text-anchor="middle" x="50" y="-119.5" font-family="Helvetica,sans-Serif" font-size="10.00">OMSimMDOM.hh</text>
</a>
</g>
</g>
<!-- Node3&#45;&gt;Node4 -->
<g id="edge3" class="edge">
<title>Node3&#45;&gt;Node4</title>
<path fill="none" stroke="midnightblue" d="M68.66,-158.98C63.91,-149.82 58.34,-139.09 54.54,-131.75"/>
<polygon fill="midnightblue" stroke="midnightblue" points="65.67,-160.82 73.38,-168.08 71.88,-157.59 65.67,-160.82"/>
</g>
<!-- Node6&#45;&gt;Node4 -->
<g id="edge22" class="edge">
<title>Node6&#45;&gt;Node4</title>
<path fill="none" stroke="midnightblue" d="M384.87,-167.55C312.87,-158.81 203.71,-145.22 109,-132 106.13,-131.6 103.18,-131.18 100.2,-130.75"/>
<polygon fill="midnightblue" stroke="midnightblue" points="384.86,-171.08 395.21,-168.8 385.71,-164.13 384.86,-171.08"/>
</g>
<!-- Node7 -->
<g id="node7" class="node">
<title>Node7</title>
<g id="a_node7"><a xlink:href="_o_m_sim_d_e_g_g_8hh.html" target="_top" xlink:title="Construction of the DEGG class. From DOUMEKI.">
<polygon fill="none" stroke="black" points="118.5,-112.5 118.5,-131.5 213.5,-131.5 213.5,-112.5 118.5,-112.5"/>
<text text-anchor="middle" x="166" y="-119.5" font-family="Helvetica,sans-Serif" font-size="10.00">OMSimDEGG.hh</text>
</a>
</g>
</g>
<!-- Node6&#45;&gt;Node7 -->
<g id="edge6" class="edge">
<title>Node6&#45;&gt;Node7</title>
<path fill="none" stroke="midnightblue" d="M406.61,-166.6C350.29,-156.4 265.44,-141.02 213,-131.52"/>
<polygon fill="midnightblue" stroke="midnightblue" points="406.32,-170.1 416.78,-168.44 407.57,-163.22 406.32,-170.1"/>
</g>
<!-- Node8 -->
<g id="node8" class="node">
<title>Node8</title>
<g id="a_node8"><a xlink:href="_o_m_sim_detector_construction_8hh_source.html" target="_top" xlink:title=" ">
<polygon fill="none" stroke="black" points="470,-112.5 470,-131.5 640,-131.5 640,-112.5 470,-112.5"/>
<text text-anchor="middle" x="555" y="-119.5" font-family="Helvetica,sans-Serif" font-size="10.00">OMSimDetectorConstruction.hh</text>
</a>
</g>
</g>
<!-- Node6&#45;&gt;Node8 -->
<g id="edge7" class="edge">
<title>Node6&#45;&gt;Node8</title>
<path fill="none" stroke="midnightblue" d="M487.29,-163.18C504.04,-153.24 526.1,-140.15 540.42,-131.65"/>
<polygon fill="midnightblue" stroke="midnightblue" points="485.43,-160.21 478.62,-168.32 489.01,-166.23 485.43,-160.21"/>
</g>
<!-- Node6&#45;&gt;Node15 -->
<g id="edge26" class="edge">
<title>Node6&#45;&gt;Node15</title>
<path fill="none" stroke="midnightblue" d="M523.78,-166.43C560.59,-158.95 608.34,-147.49 649,-132 670.53,-123.8 728.39,-91.34 755.97,-75.62"/>
<polygon fill="midnightblue" stroke="midnightblue" points="522.83,-163.05 513.71,-168.43 524.2,-169.91 522.83,-163.05"/>
</g>
<!-- Node17 -->
<g id="node17" class="node">
<title>Node17</title>
<g id="a_node17"><a xlink:href="_o_m_sim_l_o_m16_8hh.html" target="_top" xlink:title="Construction of LOM16.">
<polygon fill="none" stroke="black" points="231.5,-112.5 231.5,-131.5 332.5,-131.5 332.5,-112.5 231.5,-112.5"/>
<text text-anchor="middle" x="282" y="-119.5" font-family="Helvetica,sans-Serif" font-size="10.00">OMSimLOM16.hh</text>
</a>
</g>
</g>
<!-- Node6&#45;&gt;Node17 -->
<g id="edge19" class="edge">
<title>Node6&#45;&gt;Node17</title>
<path fill="none" stroke="midnightblue" d="M425.47,-165.57C391.14,-155.38 341.67,-140.7 310.7,-131.52"/>
<polygon fill="midnightblue" stroke="midnightblue" points="424.58,-168.95 435.16,-168.44 426.57,-162.24 424.58,-168.95"/>
</g>
<!-- Node18 -->
<g id="node18" class="node">
<title>Node18</title>
<g id="a_node18"><a xlink:href="_o_m_sim_l_o_m18_8hh.html" target="_top" xlink:title="Construction of LOM18.">
<polygon fill="none" stroke="black" points="350.5,-112.5 350.5,-131.5 451.5,-131.5 451.5,-112.5 350.5,-112.5"/>
<text text-anchor="middle" x="401" y="-119.5" font-family="Helvetica,sans-Serif" font-size="10.00">OMSimLOM18.hh</text>
</a>
</g>
</g>
<!-- Node6&#45;&gt;Node18 -->
<g id="edge20" class="edge">
<title>Node6&#45;&gt;Node18</title>
<path fill="none" stroke="midnightblue" d="M445.96,-161.54C434.73,-151.91 420.68,-139.87 411.31,-131.83"/>
<polygon fill="midnightblue" stroke="midnightblue" points="444.01,-164.47 453.88,-168.32 448.56,-159.16 444.01,-164.47"/>
</g>
<!-- Node20 -->
<g id="node20" class="node">
<title>Node20</title>
<g id="a_node20"><a xlink:href="_o_m_sim_p_d_o_m_8hh.html" target="_top" xlink:title="Implementation of the pDOM/Gen1 DOM class.">
<polygon fill="none" stroke="black" points="734.5,-112.5 734.5,-131.5 831.5,-131.5 831.5,-112.5 734.5,-112.5"/>
<text text-anchor="middle" x="783" y="-119.5" font-family="Helvetica,sans-Serif" font-size="10.00">OMSimPDOM.hh</text>
</a>
</g>
</g>
<!-- Node6&#45;&gt;Node20 -->
<g id="edge23" class="edge">
<title>Node6&#45;&gt;Node20</title>
<path fill="none" stroke="midnightblue" d="M524.78,-166.71C585.62,-156.41 678.06,-140.76 734.26,-131.25"/>
<polygon fill="midnightblue" stroke="midnightblue" points="523.82,-163.32 514.55,-168.44 524.99,-170.23 523.82,-163.32"/>
</g>
<!-- Node21 -->
<g id="node21" class="node">
<title>Node21</title>
<g id="a_node21"><a xlink:href="_o_m_sim_decays_g_p_s_8hh.html" target="_top" xlink:title="Defines the OMSimDecaysGPS class for the radioactive decays simulation.">
<polygon fill="none" stroke="black" points="871,-56.5 871,-75.5 993,-75.5 993,-56.5 871,-56.5"/>
<text text-anchor="middle" x="932" y="-63.5" font-family="Helvetica,sans-Serif" font-size="10.00">OMSimDecaysGPS.hh</text>
</a>
</g>
</g>
<!-- Node6&#45;&gt;Node21 -->
<g id="edge24" class="edge">
<title>Node6&#45;&gt;Node21</title>
<path fill="none" stroke="midnightblue" d="M535.36,-166.82C578.74,-159.54 634.86,-148.14 683,-132 702.6,-125.43 705.44,-118.68 725,-112 774.94,-94.94 833.93,-82.86 876.14,-75.55"/>
<polygon fill="midnightblue" stroke="midnightblue" points="534.76,-163.37 525.46,-168.45 535.9,-170.28 534.76,-163.37"/>
</g>
<!-- Node9 -->
<g id="node9" class="node">
<title>Node9</title>
<g id="a_node9"><a xlink:href="_o_m_sim_8hh.html" target="_top" xlink:title="Main simulation class for the Optical Module (OM) simulation. This file defines the OMSim class,...">
<polygon fill="none" stroke="black" points="465.5,-56.5 465.5,-75.5 532.5,-75.5 532.5,-56.5 465.5,-56.5"/>
<text text-anchor="middle" x="499" y="-63.5" font-family="Helvetica,sans-Serif" font-size="10.00">OMSim.hh</text>
</a>
</g>
</g>
<!-- Node8&#45;&gt;Node9 -->
<g id="edge8" class="edge">
<title>Node8&#45;&gt;Node9</title>
<path fill="none" stroke="midnightblue" d="M538.67,-105.25C528.74,-95.67 516.41,-83.79 508.16,-75.83"/>
<polygon fill="midnightblue" stroke="midnightblue" points="536.37,-107.9 546,-112.32 541.23,-102.86 536.37,-107.9"/>
</g>
<!-- Node14 -->
<g id="node14" class="node">
<title>Node14</title>
<g id="a_node14"><a xlink:href="_o_m_sim_effective_area_detector_8hh.html" target="_top" xlink:title="Defines the OMSimEffectiveAreaDetector class for effective area simulation detector construction.">
<polygon fill="none" stroke="black" points="274.5,-56.5 274.5,-75.5 447.5,-75.5 447.5,-56.5 274.5,-56.5"/>
<text text-anchor="middle" x="361" y="-63.5" font-family="Helvetica,sans-Serif" font-size="10.00">OMSimEffectiveAreaDetector.hh</text>
</a>
</g>
</g>
<!-- Node8&#45;&gt;Node14 -->
<g id="edge13" class="edge">
<title>Node8&#45;&gt;Node14</title>
<path fill="none" stroke="midnightblue" d="M514.4,-109.7C477.78,-99.51 424.74,-84.74 391.6,-75.52"/>
<polygon fill="midnightblue" stroke="midnightblue" points="513.69,-113.13 524.26,-112.44 515.56,-106.39 513.69,-113.13"/>
</g>
<!-- Node8&#45;&gt;Node15 -->
<g id="edge15" class="edge">
<title>Node8&#45;&gt;Node15</title>
<path fill="none" stroke="midnightblue" d="M599.16,-109.96C639.96,-99.76 699.71,-84.82 736.93,-75.52"/>
<polygon fill="midnightblue" stroke="midnightblue" points="598.08,-106.62 589.23,-112.44 599.78,-113.41 598.08,-106.62"/>
</g>
<!-- Node16 -->
<g id="node16" class="node">
<title>Node16</title>
<g id="a_node16"><a xlink:href="_o_m_sim_s_ndetector_8hh_source.html" target="_top" xlink:title=" ">
<polygon fill="none" stroke="black" points="551,-56.5 551,-75.5 671,-75.5 671,-56.5 551,-56.5"/>
<text text-anchor="middle" x="611" y="-63.5" font-family="Helvetica,sans-Serif" font-size="10.00">OMSimSNdetector.hh</text>
</a>
</g>
</g>
<!-- Node8&#45;&gt;Node16 -->
<g id="edge17" class="edge">
<title>Node8&#45;&gt;Node16</title>
<path fill="none" stroke="midnightblue" d="M571.33,-105.25C581.26,-95.67 593.59,-83.79 601.84,-75.83"/>
<polygon fill="midnightblue" stroke="midnightblue" points="568.77,-102.86 564,-112.32 573.63,-107.9 568.77,-102.86"/>
</g>
<!-- Node10 -->
<g id="node10" class="node">
<title>Node10</title>
<g id="a_node10"><a xlink:href="_o_m_sim_8cc.html" target="_top" xlink:title="Implementation of the OMSim class.">
<polygon fill="none" stroke="black" points="465.5,-0.5 465.5,-19.5 530.5,-19.5 530.5,-0.5 465.5,-0.5"/>
<text text-anchor="middle" x="498" y="-7.5" font-family="Helvetica,sans-Serif" font-size="10.00">OMSim.cc</text>
</a>
</g>
</g>
<!-- Node9&#45;&gt;Node10 -->
<g id="edge9" class="edge">
<title>Node9&#45;&gt;Node10</title>
<path fill="none" stroke="midnightblue" d="M498.64,-45.8C498.48,-36.91 498.29,-26.78 498.16,-19.75"/>
<polygon fill="midnightblue" stroke="midnightblue" points="495.15,-46.15 498.83,-56.08 502.15,-46.02 495.15,-46.15"/>
</g>
<!-- Node11 -->
<g id="node11" class="node">
<title>Node11</title>
<g id="a_node11"><a xlink:href="_o_m_sim__effective__area_8cc.html" target="_top" xlink:title="Main for the calculation of effective areas.">
<polygon fill="none" stroke="black" points="300,-0.5 300,-19.5 440,-19.5 440,-0.5 300,-0.5"/>
<text text-anchor="middle" x="370" y="-7.5" font-family="Helvetica,sans-Serif" font-size="10.00">OMSim_effective_area.cc</text>
</a>
</g>
</g>
<!-- Node9&#45;&gt;Node11 -->
<g id="edge10" class="edge">
<title>Node9&#45;&gt;Node11</title>
<path fill="none" stroke="midnightblue" d="M469.15,-52.5C444.96,-42.38 411.54,-28.39 390.34,-19.52"/>
<polygon fill="midnightblue" stroke="midnightblue" points="467.98,-55.81 478.56,-56.44 470.69,-49.35 467.98,-55.81"/>
</g>
<!-- Node12 -->
<g id="node12" class="node">
<title>Node12</title>
<g id="a_node12"><a xlink:href="_o_m_sim__radioactive__decays_8cc.html" target="_top" xlink:title="Main of the radioactive decay study.">
<polygon fill="none" stroke="black" points="689.5,-0.5 689.5,-19.5 854.5,-19.5 854.5,-0.5 689.5,-0.5"/>
<text text-anchor="middle" x="772" y="-7.5" font-family="Helvetica,sans-Serif" font-size="10.00">OMSim_radioactive_decays.cc</text>
</a>
</g>
</g>
<!-- Node9&#45;&gt;Node12 -->
<g id="edge11" class="edge">
<title>Node9&#45;&gt;Node12</title>
<path fill="none" stroke="midnightblue" d="M542.72,-55.88C613.06,-41.67 683.17,-28.06 727.44,-19.54"/>
<polygon fill="midnightblue" stroke="midnightblue" points="541.9,-52.47 532.79,-57.88 543.29,-59.33 541.9,-52.47"/>
</g>
<!-- Node13 -->
<g id="node13" class="node">
<title>Node13</title>
<g id="a_node13"><a xlink:href="_o_m_sim__supernova_8cc.html" target="_top" xlink:title="Main of the supernova study.">
<polygon fill="none" stroke="black" points="549,-0.5 549,-19.5 671,-19.5 671,-0.5 549,-0.5"/>
<text text-anchor="middle" x="610" y="-7.5" font-family="Helvetica,sans-Serif" font-size="10.00">OMSim_supernova.cc</text>
</a>
</g>
</g>
<!-- Node9&#45;&gt;Node13 -->
<g id="edge12" class="edge">
<title>Node9&#45;&gt;Node13</title>
<path fill="none" stroke="midnightblue" d="M526.01,-51.86C546.59,-41.85 574.34,-28.35 592.21,-19.65"/>
<polygon fill="midnightblue" stroke="midnightblue" points="524.3,-48.8 516.83,-56.32 527.36,-55.1 524.3,-48.8"/>
</g>
<!-- Node14&#45;&gt;Node11 -->
<g id="edge14" class="edge">
<title>Node14&#45;&gt;Node11</title>
<path fill="none" stroke="midnightblue" d="M364.15,-46.1C365.64,-37.14 367.36,-26.86 368.54,-19.75"/>
<polygon fill="midnightblue" stroke="midnightblue" points="360.68,-45.64 362.49,-56.08 367.58,-46.79 360.68,-45.64"/>
</g>
<!-- Node15&#45;&gt;Node12 -->
<g id="edge16" class="edge">
<title>Node15&#45;&gt;Node12</title>
<path fill="none" stroke="midnightblue" d="M771.36,-45.8C771.52,-36.91 771.71,-26.78 771.84,-19.75"/>
<polygon fill="midnightblue" stroke="midnightblue" points="767.85,-46.02 771.17,-56.08 774.85,-46.15 767.85,-46.02"/>
</g>
<!-- Node16&#45;&gt;Node13 -->
<g id="edge18" class="edge">
<title>Node16&#45;&gt;Node13</title>
<path fill="none" stroke="midnightblue" d="M610.64,-45.8C610.48,-36.91 610.29,-26.78 610.16,-19.75"/>
<polygon fill="midnightblue" stroke="midnightblue" points="607.15,-46.15 610.83,-56.08 614.15,-46.02 607.15,-46.15"/>
</g>
<!-- Node19 -->
<g id="node19" class="node">
<title>Node19</title>
<g id="a_node19"><a xlink:href="_o_m_sim_l_o_m18_8cc.html" target="_top" xlink:title=" ">
<polygon fill="none" stroke="black" points="157.5,-56.5 157.5,-75.5 256.5,-75.5 256.5,-56.5 157.5,-56.5"/>
<text text-anchor="middle" x="207" y="-63.5" font-family="Helvetica,sans-Serif" font-size="10.00">OMSimLOM18.cc</text>
</a>
</g>
</g>
<!-- Node18&#45;&gt;Node19 -->
<g id="edge21" class="edge">
<title>Node18&#45;&gt;Node19</title>
<path fill="none" stroke="midnightblue" d="M360.4,-109.7C323.78,-99.51 270.74,-84.74 237.6,-75.52"/>
<polygon fill="midnightblue" stroke="midnightblue" points="359.69,-113.13 370.26,-112.44 361.56,-106.39 359.69,-113.13"/>
</g>
<!-- Node21&#45;&gt;Node12 -->
<g id="edge25" class="edge">
<title>Node21&#45;&gt;Node12</title>
<path fill="none" stroke="midnightblue" d="M896.95,-53.17C866.83,-43 824.1,-28.59 797.23,-19.52"/>
<polygon fill="midnightblue" stroke="midnightblue" points="896.05,-56.56 906.65,-56.44 898.29,-49.93 896.05,-56.56"/>
</g>
<!-- Node22&#45;&gt;Node4 -->
<g id="edge31" class="edge">
<title>Node22&#45;&gt;Node4</title>
<path fill="none" stroke="midnightblue" d="M316.9,-220.86C255.75,-198.44 126.45,-151.03 73.43,-131.59"/>
<polygon fill="midnightblue" stroke="midnightblue" points="315.87,-224.21 326.46,-224.37 318.28,-217.64 315.87,-224.21"/>
</g>
<!-- Node22&#45;&gt;Node6 -->
<g id="edge32" class="edge">
<title>Node22&#45;&gt;Node6</title>
<path fill="none" stroke="midnightblue" d="M377.24,-220.1C398.54,-210.01 427.54,-196.27 446.02,-187.52"/>
<polygon fill="midnightblue" stroke="midnightblue" points="375.6,-217 368.06,-224.44 378.6,-223.33 375.6,-217"/>
</g>
<!-- Node22&#45;&gt;Node7 -->
<g id="edge28" class="edge">
<title>Node22&#45;&gt;Node7</title>
<path fill="none" stroke="midnightblue" d="M326.6,-219.01C287.97,-195.92 212.02,-150.51 180.37,-131.59"/>
<polygon fill="midnightblue" stroke="midnightblue" points="325.18,-222.24 335.56,-224.37 328.77,-216.23 325.18,-222.24"/>
</g>
<!-- Node22&#45;&gt;Node17 -->
<g id="edge29" class="edge">
<title>Node22&#45;&gt;Node17</title>
<path fill="none" stroke="midnightblue" d="M339.27,-215.64C324.5,-191.74 298.46,-149.63 287.31,-131.59"/>
<polygon fill="midnightblue" stroke="midnightblue" points="336.43,-217.7 344.66,-224.37 342.38,-214.02 336.43,-217.7"/>
</g>
<!-- Node22&#45;&gt;Node18 -->
<g id="edge30" class="edge">
<title>Node22&#45;&gt;Node18</title>
<path fill="none" stroke="midnightblue" d="M358.35,-215C369.47,-191 388.73,-149.47 397.02,-131.59"/>
<polygon fill="midnightblue" stroke="midnightblue" points="355.03,-213.82 354,-224.37 361.38,-216.77 355.03,-213.82"/>
</g>
<!-- Node22&#45;&gt;Node20 -->
<g id="edge33" class="edge">
<title>Node22&#45;&gt;Node20</title>
<path fill="none" stroke="midnightblue" d="M397.72,-222.19C436.42,-213.32 492.33,-200.27 541,-188 617.35,-168.76 706.71,-144.23 752.52,-131.51"/>
<polygon fill="midnightblue" stroke="midnightblue" points="396.74,-218.82 387.77,-224.46 398.3,-225.65 396.74,-218.82"/>
</g>
<!-- Node22&#45;&gt;Node22 -->
<g id="edge34" class="edge">
<title>Node22&#45;&gt;Node22</title>
<path fill="none" stroke="midnightblue" d="M399.43,-244.29C422.41,-245.42 442.5,-241.99 442.5,-234 442.5,-224.87 416.26,-221.69 389.45,-224.47"/>
<polygon fill="midnightblue" stroke="midnightblue" points="399.69,-240.8 389.45,-243.53 399.15,-247.78 399.69,-240.8"/>
</g>
</g>
</svg>
