<?xml version="1.0" encoding="UTF-8" standalone="no"?>
<!DOCTYPE svg PUBLIC "-//W3C//DTD SVG 1.1//EN"
 "http://www.w3.org/Graphics/SVG/1.1/DTD/svg11.dtd">
<!-- Generated by graphviz version 2.43.0 (0)
 -->
<!-- Title: OMSimENES Pages: 1 -->
<svg width="524pt" height="174pt"
 viewBox="0.00 0.00 523.50 174.00" xmlns="http://www.w3.org/2000/svg" xmlns:xlink="http://www.w3.org/1999/xlink">
<g id="graph0" class="graph" transform="scale(1 1) rotate(0) translate(4 170)">
<title>OMSimENES</title>
<!-- Node1 -->
<g id="node1" class="node">
<title>Node1</title>
<g id="a_node1"><a xlink:title="Class in charge of generating electrons from Electron&#45;electron_Neutrino Elastic Scattering (ENES) nu_...">
<polygon fill="#bfbfbf" stroke="black" points="214,-0.5 214,-19.5 291,-19.5 291,-0.5 214,-0.5"/>
<text text-anchor="middle" x="252.5" y="-7.5" font-family="Helvetica,sans-Serif" font-size="10.00">OMSimENES</text>
</a>
</g>
</g>
<!-- Node2 -->
<g id="node2" class="node">
<title>Node2</title>
<g id="a_node2"><a xlink:href="class_s_n_base_particle_generator.html" target="_top" xlink:title=" ">
<polygon fill="none" stroke="black" points="183,-57.5 183,-76.5 322,-76.5 322,-57.5 183,-57.5"/>
<text text-anchor="middle" x="252.5" y="-64.5" font-family="Helvetica,sans-Serif" font-size="10.00">SNBaseParticleGenerator</text>
</a>
</g>
</g>
<!-- Node2&#45;&gt;Node1 -->
<g id="edge1" class="edge">
<title>Node2&#45;&gt;Node1</title>
<path fill="none" stroke="midnightblue" d="M252.5,-47.12C252.5,-37.82 252.5,-27.06 252.5,-19.71"/>
<polygon fill="midnightblue" stroke="midnightblue" points="249,-47.41 252.5,-57.41 256,-47.41 249,-47.41"/>
</g>
<!-- Node3 -->
<g id="node3" class="node">
<title>Node3</title>
<g id="a_node3"><a xlink:title=" ">
<polygon fill="none" stroke="#bfbfbf" points="0,-146.5 0,-165.5 177,-165.5 177,-146.5 0,-146.5"/>
<text text-anchor="middle" x="88.5" y="-153.5" font-family="Helvetica,sans-Serif" font-size="10.00">G4VUserPrimaryGeneratorAction</text>
</a>
</g>
</g>
<!-- Node3&#45;&gt;Node2 -->
<g id="edge2" class="edge">
<title>Node3&#45;&gt;Node2</title>
<path fill="none" stroke="midnightblue" d="M113.37,-141.81C147.35,-123.78 207.36,-91.95 236.17,-76.66"/>
<polygon fill="midnightblue" stroke="midnightblue" points="111.72,-138.72 104.52,-146.5 115,-144.91 111.72,-138.72"/>
</g>
<!-- Node4 -->
<g id="node4" class="node">
<title>Node4</title>
<g id="a_node4"><a xlink:href="class_distribution_sampler.html" target="_top" xlink:title="Utility class for sampling from a given distribution using the inverse cumulative function and interp...">
<polygon fill="none" stroke="black" points="195.5,-146.5 195.5,-165.5 309.5,-165.5 309.5,-146.5 195.5,-146.5"/>
<text text-anchor="middle" x="252.5" y="-153.5" font-family="Helvetica,sans-Serif" font-size="10.00">DistributionSampler</text>
</a>
</g>
</g>
<!-- Node4&#45;&gt;Node2 -->
<g id="edge3" class="edge">
<title>Node4&#45;&gt;Node2</title>
<path fill="none" stroke="#9a32cd" stroke-dasharray="5,2" d="M252.5,-136.19C252.5,-117.74 252.5,-90.41 252.5,-76.62"/>
<polygon fill="#9a32cd" stroke="#9a32cd" points="249,-136.34 252.5,-146.34 256,-136.34 249,-136.34"/>
<text text-anchor="middle" x="339.5" y="-120" font-family="Helvetica,sans-Serif" font-size="10.00"> m_meanEnergyDistribution</text>
<text text-anchor="middle" x="339.5" y="-109" font-family="Helvetica,sans-Serif" font-size="10.00">m_meanEnergySquaredDistribution</text>
<text text-anchor="middle" x="339.5" y="-98" font-family="Helvetica,sans-Serif" font-size="10.00">m_timeDistribution</text>
</g>
<!-- Node5 -->
<g id="node5" class="node">
<title>Node5</title>
<g id="a_node5"><a xlink:href="class_o_m_sim_s_n_tools.html" target="_top" xlink:title="Provides utility methods for generating ENES and IBD interactions.">
<polygon fill="none" stroke="black" points="404.5,-146.5 404.5,-165.5 494.5,-165.5 494.5,-146.5 404.5,-146.5"/>
<text text-anchor="middle" x="449.5" y="-153.5" font-family="Helvetica,sans-Serif" font-size="10.00">OMSimSNTools</text>
</a>
</g>
</g>
<!-- Node5&#45;&gt;Node2 -->
<g id="edge4" class="edge">
<title>Node5&#45;&gt;Node2</title>
<path fill="none" stroke="#9a32cd" stroke-dasharray="5,2" d="M447.56,-135.89C445.14,-122.4 439.7,-105 427.5,-95 411.45,-81.85 363.66,-75.06 322.07,-71.58"/>
<polygon fill="#9a32cd" stroke="#9a32cd" points="444.13,-136.64 448.96,-146.07 451.06,-135.68 444.13,-136.64"/>
<text text-anchor="middle" x="480.5" y="-109" font-family="Helvetica,sans-Serif" font-size="10.00"> m_SNToolBox</text>
</g>
</g>
</svg>
