<?xml version="1.0" encoding="UTF-8" standalone="no"?>
<!DOCTYPE svg PUBLIC "-//W3C//DTD SVG 1.1//EN"
 "http://www.w3.org/Graphics/SVG/1.1/DTD/svg11.dtd">
<!-- Generated by graphviz version 2.43.0 (0)
 -->
<!-- Title: mDOMHarness Pages: 1 -->
<svg width="404pt" height="335pt"
 viewBox="0.00 0.00 404.30 335.00" xmlns="http://www.w3.org/2000/svg" xmlns:xlink="http://www.w3.org/1999/xlink">
<g id="graph0" class="graph" transform="scale(1 1) rotate(0) translate(4 331)">
<title>mDOMHarness</title>
<!-- Node1 -->
<g id="Node000001" class="node">
<title>Node1</title>
<g id="a_Node000001"><a xlink:title=" ">
<polygon fill="#999999" stroke="#666666" points="109.3,-149 19.3,-149 19.3,-130 109.3,-130 109.3,-149"/>
<text text-anchor="middle" x="64.3" y="-137" font-family="Helvetica,sans-Serif" font-size="10.00">mDOMHarness</text>
</a>
</g>
</g>
<!-- Node5 -->
<g id="Node000005" class="node">
<title>Node5</title>
<g id="a_Node000005"><a xlink:href="classm_d_o_m.html" target="_top" xlink:title=" ">
<polygon fill="white" stroke="#bfbfbf" points="172.3,-19 122.3,-19 122.3,0 172.3,0 172.3,-19"/>
<text text-anchor="middle" x="147.3" y="-7" font-family="Helvetica,sans-Serif" font-size="10.00">mDOM</text>
</a>
</g>
</g>
<!-- Node1&#45;&gt;Node5 -->
<g id="edge11_Node000005_Node000001" class="edge">
<title>Node1&#45;&gt;Node5</title>
<g id="a_edge11_Node000005_Node000001"><a xlink:title=" ">
<path fill="none" stroke="#9a32cd" stroke-dasharray="5,2" d="M41.45,-124.04C18.24,-107.53 -12.01,-79.71 5.3,-56 32.15,-19.19 89.2,-11.49 122.23,-10.27"/>
<polygon fill="#9a32cd" stroke="#9a32cd" points="39.65,-127.05 49.89,-129.79 43.59,-121.27 39.65,-127.05"/>
</a>
</g>
<text text-anchor="middle" x="33.8" y="-63" font-family="Helvetica,sans-Serif" font-size="10.00" fill="grey"> m_harness</text>
</g>
<!-- Node2 -->
<g id="Node000002" class="node">
<title>Node2</title>
<g id="a_Node000002"><a xlink:href="class_o_m_sim_detector_component.html" target="_top" xlink:title="Abstract base class used for constructing detector components.">
<polygon fill="white" stroke="#666666" points="255.3,-205 105.3,-205 105.3,-186 255.3,-186 255.3,-205"/>
<text text-anchor="middle" x="180.3" y="-193" font-family="Helvetica,sans-Serif" font-size="10.00">OMSimDetectorComponent</text>
</a>
</g>
</g>
<!-- Node2&#45;&gt;Node1 -->
<g id="edge1_Node000001_Node000002" class="edge">
<title>Node2&#45;&gt;Node1</title>
<g id="a_edge1_Node000001_Node000002"><a xlink:title=" ">
<path fill="none" stroke="#63b8ff" d="M152.58,-181.6C130.9,-171.51 101.39,-157.77 82.59,-149.02"/>
<polygon fill="#63b8ff" stroke="#63b8ff" points="151.37,-184.9 161.92,-185.94 154.33,-178.55 151.37,-184.9"/>
</a>
</g>
</g>
<!-- Node6 -->
<g id="Node000006" class="node">
<title>Node6</title>
<g id="a_Node000006"><a xlink:href="class_o_m_sim_optical_module.html" target="_top" xlink:title="Base class for OMs works as interface.">
<polygon fill="white" stroke="#666666" points="292.3,-75 170.3,-75 170.3,-56 292.3,-56 292.3,-75"/>
<text text-anchor="middle" x="231.3" y="-63" font-family="Helvetica,sans-Serif" font-size="10.00">OMSimOpticalModule</text>
</a>
</g>
</g>
<!-- Node2&#45;&gt;Node6 -->
<g id="edge6_Node000006_Node000002" class="edge">
<title>Node2&#45;&gt;Node6</title>
<g id="a_edge6_Node000006_Node000002"><a xlink:title=" ">
<path fill="none" stroke="#63b8ff" d="M172.08,-176.42C167.26,-163.16 163.21,-144.94 169.3,-130 179.12,-105.88 202.99,-85.93 218.08,-75.16"/>
<polygon fill="#63b8ff" stroke="#63b8ff" points="168.9,-177.89 175.92,-185.83 175.38,-175.25 168.9,-177.89"/>
</a>
</g>
</g>
<!-- Node7 -->
<g id="Node000007" class="node">
<title>Node7</title>
<g id="a_Node000007"><a xlink:href="class_o_m_sim_p_m_t_construction.html" target="_top" xlink:title=" ">
<polygon fill="white" stroke="#bfbfbf" points="312.3,-149 178.3,-149 178.3,-130 312.3,-130 312.3,-149"/>
<text text-anchor="middle" x="245.3" y="-137" font-family="Helvetica,sans-Serif" font-size="10.00">OMSimPMTConstruction</text>
</a>
</g>
</g>
<!-- Node2&#45;&gt;Node7 -->
<g id="edge8_Node000007_Node000002" class="edge">
<title>Node2&#45;&gt;Node7</title>
<g id="a_edge8_Node000007_Node000002"><a xlink:title=" ">
<path fill="none" stroke="#63b8ff" d="M198.57,-179.32C210.21,-169.65 224.9,-157.45 234.66,-149.33"/>
<polygon fill="#63b8ff" stroke="#63b8ff" points="196.2,-176.74 190.74,-185.82 200.67,-182.13 196.2,-176.74"/>
</a>
</g>
</g>
<!-- Node8 -->
<g id="Node000008" class="node">
<title>Node8</title>
<g id="a_Node000008"><a xlink:href="classm_d_o_m_flasher.html" target="_top" xlink:title="The mDOMFlasher class represents the 10 flashers in an mDOM optical module.">
<polygon fill="white" stroke="#666666" points="396.3,-112 310.3,-112 310.3,-93 396.3,-93 396.3,-112"/>
<text text-anchor="middle" x="353.3" y="-100" font-family="Helvetica,sans-Serif" font-size="10.00">mDOMFlasher</text>
</a>
</g>
</g>
<!-- Node2&#45;&gt;Node8 -->
<g id="edge10_Node000008_Node000002" class="edge">
<title>Node2&#45;&gt;Node8</title>
<g id="a_edge10_Node000008_Node000002"><a xlink:title=" ">
<path fill="none" stroke="#63b8ff" d="M242.75,-183.52C268.83,-176.71 298.34,-165.91 321.3,-149 334.51,-139.26 344.29,-122.39 349.36,-112.16"/>
<polygon fill="#63b8ff" stroke="#63b8ff" points="241.81,-180.14 232.94,-185.93 243.49,-186.94 241.81,-180.14"/>
</a>
</g>
</g>
<!-- Node3 -->
<g id="Node000003" class="node">
<title>Node3</title>
<g id="a_Node000003"><a xlink:href="class_o_m_sim_input_data.html" target="_top" xlink:title="Manages the input data, including parsing and storing material properties.">
<polygon fill="white" stroke="#666666" points="230.3,-271 130.3,-271 130.3,-252 230.3,-252 230.3,-271"/>
<text text-anchor="middle" x="180.3" y="-259" font-family="Helvetica,sans-Serif" font-size="10.00">OMSimInputData</text>
</a>
</g>
</g>
<!-- Node3&#45;&gt;Node2 -->
<g id="edge2_Node000002_Node000003" class="edge">
<title>Node3&#45;&gt;Node2</title>
<g id="a_edge2_Node000002_Node000003"><a xlink:title=" ">
<path fill="none" stroke="#9a32cd" stroke-dasharray="5,2" d="M180.3,-241.58C180.3,-229.63 180.3,-214.72 180.3,-205.41"/>
<polygon fill="#9a32cd" stroke="#9a32cd" points="176.8,-241.87 180.3,-251.87 183.8,-241.87 176.8,-241.87"/>
</a>
</g>
<text text-anchor="middle" x="200.3" y="-226" font-family="Helvetica,sans-Serif" font-size="10.00" fill="grey"> m_data</text>
</g>
<!-- Node4 -->
<g id="Node000004" class="node">
<title>Node4</title>
<g id="a_Node000004"><a xlink:href="class_parameter_table.html" target="_top" xlink:title="A utility class for managing JSON&#45;based data tables.">
<polygon fill="white" stroke="#666666" points="226.3,-327 134.3,-327 134.3,-308 226.3,-308 226.3,-327"/>
<text text-anchor="middle" x="180.3" y="-315" font-family="Helvetica,sans-Serif" font-size="10.00">ParameterTable</text>
</a>
</g>
</g>
<!-- Node4&#45;&gt;Node3 -->
<g id="edge3_Node000003_Node000004" class="edge">
<title>Node4&#45;&gt;Node3</title>
<g id="a_edge3_Node000003_Node000004"><a xlink:title=" ">
<path fill="none" stroke="#63b8ff" d="M180.3,-297.3C180.3,-288.41 180.3,-278.28 180.3,-271.25"/>
<polygon fill="#63b8ff" stroke="#63b8ff" points="176.8,-297.58 180.3,-307.58 183.8,-297.58 176.8,-297.58"/>
</a>
</g>
</g>
<!-- Node5&#45;&gt;Node1 -->
<g id="edge4_Node000001_Node000005" class="edge">
<title>Node5&#45;&gt;Node1</title>
<g id="a_edge4_Node000001_Node000005"><a xlink:title=" ">
<path fill="none" stroke="#9a32cd" stroke-dasharray="5,2" d="M113.06,-23.39C98.4,-30.7 82.56,-41.36 73.3,-56 58.51,-79.38 60.84,-114.09 62.93,-129.99"/>
<polygon fill="#9a32cd" stroke="#9a32cd" points="114.82,-26.44 122.44,-19.07 111.89,-20.08 114.82,-26.44"/>
</a>
</g>
<text text-anchor="middle" x="117.3" y="-63" font-family="Helvetica,sans-Serif" font-size="10.00" fill="grey"> m_opticalModule</text>
</g>
<!-- Node6&#45;&gt;Node5 -->
<g id="edge5_Node000005_Node000006" class="edge">
<title>Node6&#45;&gt;Node5</title>
<g id="a_edge5_Node000005_Node000006"><a xlink:title=" ">
<path fill="none" stroke="#63b8ff" d="M209.36,-50.4C193.96,-40.5 173.85,-27.57 160.76,-19.15"/>
<polygon fill="#63b8ff" stroke="#63b8ff" points="207.5,-53.36 217.8,-55.82 211.28,-47.47 207.5,-53.36"/>
</a>
</g>
</g>
<!-- Node7&#45;&gt;Node6 -->
<g id="edge7_Node000006_Node000007" class="edge">
<title>Node7&#45;&gt;Node6</title>
<g id="a_edge7_Node000006_Node000007"><a xlink:title=" ">
<path fill="none" stroke="#9a32cd" stroke-dasharray="5,2" d="M225.58,-123.04C222.61,-119.74 219.98,-116.02 218.3,-112 213.08,-99.58 219.88,-84.4 225.45,-75.09"/>
<polygon fill="#9a32cd" stroke="#9a32cd" points="223.17,-125.58 232.83,-129.93 227.99,-120.51 223.17,-125.58"/>
</a>
</g>
<text text-anchor="middle" x="259.8" y="-100" font-family="Helvetica,sans-Serif" font-size="10.00" fill="grey"> m_managerPMT</text>
</g>
<!-- Node8&#45;&gt;Node5 -->
<g id="edge9_Node000005_Node000008" class="edge">
<title>Node8&#45;&gt;Node5</title>
<g id="a_edge9_Node000005_Node000008"><a xlink:title=" ">
<path fill="none" stroke="#9a32cd" stroke-dasharray="5,2" d="M338.75,-85.66C329,-75.88 315.39,-63.76 301.3,-56 259.16,-32.82 203.89,-20.22 172.31,-14.46"/>
<polygon fill="#9a32cd" stroke="#9a32cd" points="336.23,-88.09 345.68,-92.87 341.28,-83.24 336.23,-88.09"/>
</a>
</g>
<text text-anchor="middle" x="355.8" y="-63" font-family="Helvetica,sans-Serif" font-size="10.00" fill="grey"> m_flashers</text>
</g>
</g>
</svg>
