<?xml version="1.0" encoding="UTF-8" standalone="no"?>
<!DOCTYPE svg PUBLIC "-//W3C//DTD SVG 1.1//EN"
 "http://www.w3.org/Graphics/SVG/1.1/DTD/svg11.dtd">
<!-- Generated by graphviz version 2.43.0 (0)
 -->
<!-- Title: SNBaseParticleGenerator Pages: 1 -->
<svg width="527pt" height="115pt"
 viewBox="0.00 0.00 526.50 115.00" xmlns="http://www.w3.org/2000/svg" xmlns:xlink="http://www.w3.org/1999/xlink">
<g id="graph0" class="graph" transform="scale(1 1) rotate(0) translate(4 111)">
<title>SNBaseParticleGenerator</title>
<!-- Node1 -->
<g id="Node000001" class="node">
<title>Node1</title>
<g id="a_Node000001"><a xlink:title=" ">
<polygon fill="#999999" stroke="#666666" points="310,-19 171,-19 171,0 310,0 310,-19"/>
<text text-anchor="middle" x="240.5" y="-7" font-family="Helvetica,sans-Serif" font-size="10.00">SNBaseParticleGenerator</text>
</a>
</g>
</g>
<!-- Node2 -->
<g id="Node000002" class="node">
<title>Node2</title>
<g id="a_Node000002"><a xlink:title=" ">
<polygon fill="white" stroke="#bfbfbf" points="177,-107 0,-107 0,-88 177,-88 177,-107"/>
<text text-anchor="middle" x="88.5" y="-95" font-family="Helvetica,sans-Serif" font-size="10.00">G4VUserPrimaryGeneratorAction</text>
</a>
</g>
</g>
<!-- Node2&#45;&gt;Node1 -->
<g id="edge1_Node000001_Node000002" class="edge">
<title>Node2&#45;&gt;Node1</title>
<g id="a_edge1_Node000001_Node000002"><a xlink:title=" ">
<path fill="none" stroke="#63b8ff" d="M112.68,-82.82C144.38,-64.88 199.07,-33.94 225.43,-19.03"/>
<polygon fill="#63b8ff" stroke="#63b8ff" points="110.61,-79.97 103.63,-87.94 114.06,-86.06 110.61,-79.97"/>
</a>
</g>
</g>
<!-- Node3 -->
<g id="Node000003" class="node">
<title>Node3</title>
<g id="a_Node000003"><a xlink:href="class_o_m_sim_s_n_tools.html" target="_top" xlink:title="Provides utility methods for generating ENES and IBD interactions.">
<polygon fill="white" stroke="#666666" points="285.5,-107 195.5,-107 195.5,-88 285.5,-88 285.5,-107"/>
<text text-anchor="middle" x="240.5" y="-95" font-family="Helvetica,sans-Serif" font-size="10.00">OMSimSNTools</text>
</a>
</g>
</g>
<!-- Node3&#45;&gt;Node1 -->
<g id="edge2_Node000001_Node000003" class="edge">
<title>Node3&#45;&gt;Node1</title>
<g id="a_edge2_Node000001_Node000003"><a xlink:title=" ">
<path fill="none" stroke="#9a32cd" stroke-dasharray="5,2" d="M240.5,-77.91C240.5,-59.67 240.5,-32.65 240.5,-19.03"/>
<polygon fill="#9a32cd" stroke="#9a32cd" points="237,-77.94 240.5,-87.94 244,-77.94 237,-77.94"/>
</a>
</g>
<text text-anchor="middle" x="275.5" y="-51" font-family="Helvetica,sans-Serif" font-size="10.00" fill="grey"> m_SNToolBox</text>
</g>
<!-- Node4 -->
<g id="Node000004" class="node">
<title>Node4</title>
<g id="a_Node000004"><a xlink:href="class_distribution_sampler.html" target="_top" xlink:title="Utility class for sampling from a given distribution using the inverse cumulative function and interp...">
<polygon fill="white" stroke="#666666" points="417.5,-107 303.5,-107 303.5,-88 417.5,-88 417.5,-107"/>
<text text-anchor="middle" x="360.5" y="-95" font-family="Helvetica,sans-Serif" font-size="10.00">DistributionSampler</text>
</a>
</g>
</g>
<!-- Node4&#45;&gt;Node1 -->
<g id="edge3_Node000001_Node000004" class="edge">
<title>Node4&#45;&gt;Node1</title>
<g id="a_edge3_Node000001_Node000004"><a xlink:title=" ">
<path fill="none" stroke="#9a32cd" stroke-dasharray="5,2" d="M350.94,-79.31C342.8,-66.09 329.97,-48.24 314.5,-37 303.46,-28.98 289.75,-23.18 277.15,-19.09"/>
<polygon fill="#9a32cd" stroke="#9a32cd" points="347.93,-81.11 356.01,-87.96 353.97,-77.56 347.93,-81.11"/>
</a>
</g>
<text text-anchor="middle" x="431.5" y="-62" font-family="Helvetica,sans-Serif" font-size="10.00" fill="grey"> m_meanEnergyDistribution</text>
<text text-anchor="middle" x="431.5" y="-51" font-family="Helvetica,sans-Serif" font-size="10.00" fill="grey">m_meanEnergySquaredDistribution</text>
<text text-anchor="middle" x="431.5" y="-40" font-family="Helvetica,sans-Serif" font-size="10.00" fill="grey">m_timeDistribution</text>
</g>
</g>
</svg>
