<?xml version="1.0" encoding="UTF-8" standalone="no"?>
<!DOCTYPE svg PUBLIC "-//W3C//DTD SVG 1.1//EN"
 "http://www.w3.org/Graphics/SVG/1.1/DTD/svg11.dtd">
<!-- Generated by graphviz version 2.43.0 (0)
 -->
<!-- Title: ReflectiveSurface Pages: 1 -->
<svg width="113pt" height="152pt"
 viewBox="0.00 0.00 113.00 152.00" xmlns="http://www.w3.org/2000/svg" xmlns:xlink="http://www.w3.org/1999/xlink">
<g id="graph0" class="graph" transform="scale(1 1) rotate(0) translate(4 148)">
<title>ReflectiveSurface</title>
<polygon fill="white" stroke="transparent" points="-4,4 -4,-148 109,-148 109,4 -4,4"/>
<!-- Node1 -->
<g id="node1" class="node">
<title>Node1</title>
<g id="a_node1"><a xlink:title="Reflective surfaces parsed from a JSON file.">
<polygon fill="#bfbfbf" stroke="black" points="0,-0.5 0,-19.5 102,-19.5 102,-0.5 0,-0.5"/>
<text text-anchor="middle" x="51" y="-7.5" font-family="Helvetica,sans-Serif" font-size="10.00">ReflectiveSurface</text>
</a>
</g>
</g>
<!-- Node2 -->
<g id="node2" class="node">
<title>Node2</title>
<g id="a_node2"><a xlink:href="classabc_data_file.html" target="_top" xlink:title="This is an abstract base class that provides an interface for handling data files in the simulation.">
<polygon fill="white" stroke="black" points="14,-57.5 14,-76.5 88,-76.5 88,-57.5 14,-57.5"/>
<text text-anchor="middle" x="51" y="-64.5" font-family="Helvetica,sans-Serif" font-size="10.00">abcDataFile</text>
</a>
</g>
</g>
<!-- Node2&#45;&gt;Node1 -->
<g id="edge1" class="edge">
<title>Node2&#45;&gt;Node1</title>
<path fill="none" stroke="midnightblue" d="M44.58,-47.42C43.87,-38.05 44.31,-27.14 45.91,-19.71"/>
<polygon fill="midnightblue" stroke="midnightblue" points="41.12,-47.97 45.94,-57.41 48.05,-47.03 41.12,-47.97"/>
</g>
<!-- Node2&#45;&gt;Node1 -->
<g id="edge3" class="edge">
<title>Node2&#45;&gt;Node1</title>
<path fill="none" stroke="midnightblue" d="M57.42,-47.42C58.13,-38.05 57.69,-27.14 56.09,-19.71"/>
<polygon fill="midnightblue" stroke="midnightblue" points="53.95,-47.03 56.06,-57.41 60.88,-47.97 53.95,-47.03"/>
</g>
<!-- Node3 -->
<g id="node3" class="node">
<title>Node3</title>
<g id="a_node3"><a xlink:href="class_parameter_table.html" target="_top" xlink:title="A utility class for managing JSON&#45;based data tables.">
<polygon fill="white" stroke="black" points="5,-124.5 5,-143.5 97,-143.5 97,-124.5 5,-124.5"/>
<text text-anchor="middle" x="51" y="-131.5" font-family="Helvetica,sans-Serif" font-size="10.00">ParameterTable</text>
</a>
</g>
</g>
<!-- Node3&#45;&gt;Node2 -->
<g id="edge2" class="edge">
<title>Node3&#45;&gt;Node2</title>
<path fill="none" stroke="#9a32cd" stroke-dasharray="5,2" d="M51,-114.04C51,-101.67 51,-86.12 51,-76.63"/>
<polygon fill="#9a32cd" stroke="#9a32cd" points="47.5,-114.23 51,-124.23 54.5,-114.23 47.5,-114.23"/>
<text text-anchor="middle" x="78" y="-98" font-family="Helvetica,sans-Serif" font-size="10.00"> mFileData</text>
</g>
</g>
</svg>
