<?xml version="1.0" encoding="UTF-8" standalone="no"?>
<!DOCTYPE svg PUBLIC "-//W3C//DTD SVG 1.1//EN"
 "http://www.w3.org/Graphics/SVG/1.1/DTD/svg11.dtd">
<!-- Generated by graphviz version 2.43.0 (0)
 -->
<!-- Title: OMSimPrimaryGeneratorMessenger Pages: 1 -->
<svg width="536pt" height="237pt"
 viewBox="0.00 0.00 535.50 237.00" xmlns="http://www.w3.org/2000/svg" xmlns:xlink="http://www.w3.org/1999/xlink">
<g id="graph0" class="graph" transform="scale(1 1) rotate(0) translate(4 233)">
<title>OMSimPrimaryGeneratorMessenger</title>
<!-- Node1 -->
<g id="Node000001" class="node">
<title>Node1</title>
<g id="a_Node000001"><a xlink:title=" ">
<polygon fill="#999999" stroke="#666666" points="527.5,-85 335.5,-85 335.5,-66 527.5,-66 527.5,-85"/>
<text text-anchor="middle" x="431.5" y="-73" font-family="Helvetica,sans-Serif" font-size="10.00">OMSimPrimaryGeneratorMessenger</text>
</a>
</g>
</g>
<!-- Node3 -->
<g id="Node000003" class="node">
<title>Node3</title>
<g id="a_Node000003"><a xlink:href="class_o_m_sim_primary_generator_action.html" target="_top" xlink:title="Generates primary particles for WavePID simulation.">
<polygon fill="white" stroke="#666666" points="173.5,-19 3.5,-19 3.5,0 173.5,0 173.5,-19"/>
<text text-anchor="middle" x="88.5" y="-7" font-family="Helvetica,sans-Serif" font-size="10.00">OMSimPrimaryGeneratorAction</text>
</a>
</g>
</g>
<!-- Node1&#45;&gt;Node3 -->
<g id="edge15_Node000003_Node000001" class="edge">
<title>Node1&#45;&gt;Node3</title>
<g id="a_edge15_Node000003_Node000001"><a xlink:title=" ">
<path fill="none" stroke="#9a32cd" stroke-dasharray="5,2" d="M369.73,-63.9C351.63,-59.89 332,-54.64 314.5,-48 305.02,-44.4 304.14,-40.15 294.5,-37 255.85,-24.39 211.28,-17.75 173.51,-14.26"/>
<polygon fill="#9a32cd" stroke="#9a32cd" points="369.11,-67.34 379.62,-66 370.56,-60.49 369.11,-67.34"/>
</a>
</g>
<text text-anchor="middle" x="359.5" y="-40" font-family="Helvetica,sans-Serif" font-size="10.00" fill="grey"> m_gunMessenger</text>
</g>
<!-- Node2 -->
<g id="Node000002" class="node">
<title>Node2</title>
<g id="a_Node000002"><a xlink:title=" ">
<polygon fill="white" stroke="#bfbfbf" points="479,-141 384,-141 384,-122 479,-122 479,-141"/>
<text text-anchor="middle" x="431.5" y="-129" font-family="Helvetica,sans-Serif" font-size="10.00">G4UImessenger</text>
</a>
</g>
</g>
<!-- Node2&#45;&gt;Node1 -->
<g id="edge1_Node000001_Node000002" class="edge">
<title>Node2&#45;&gt;Node1</title>
<g id="a_edge1_Node000001_Node000002"><a xlink:title=" ">
<path fill="none" stroke="#63b8ff" d="M431.5,-111.3C431.5,-102.41 431.5,-92.28 431.5,-85.25"/>
<polygon fill="#63b8ff" stroke="#63b8ff" points="428,-111.58 431.5,-121.58 435,-111.58 428,-111.58"/>
</a>
</g>
</g>
<!-- Node3&#45;&gt;Node1 -->
<g id="edge2_Node000001_Node000003" class="edge">
<title>Node3&#45;&gt;Node1</title>
<g id="a_edge2_Node000001_Node000003"><a xlink:title=" ">
<path fill="none" stroke="#9a32cd" stroke-dasharray="5,2" d="M183.85,-14.05C271.18,-18 389.66,-25.41 408.5,-37 419.17,-43.56 425.61,-57.11 428.86,-65.99"/>
<polygon fill="#9a32cd" stroke="#9a32cd" points="183.78,-10.54 173.63,-13.6 183.47,-17.54 183.78,-10.54"/>
</a>
</g>
<text text-anchor="middle" x="444" y="-40" font-family="Helvetica,sans-Serif" font-size="10.00" fill="grey"> m_action</text>
</g>
<!-- Node4 -->
<g id="Node000004" class="node">
<title>Node4</title>
<g id="a_Node000004"><a xlink:title=" ">
<polygon fill="white" stroke="#bfbfbf" points="177,-229 0,-229 0,-210 177,-210 177,-229"/>
<text text-anchor="middle" x="88.5" y="-217" font-family="Helvetica,sans-Serif" font-size="10.00">G4VUserPrimaryGeneratorAction</text>
</a>
</g>
</g>
<!-- Node4&#45;&gt;Node3 -->
<g id="edge3_Node000003_Node000004" class="edge">
<title>Node4&#45;&gt;Node3</title>
<g id="a_edge3_Node000003_Node000004"><a xlink:title=" ">
<path fill="none" stroke="#63b8ff" d="M72.53,-200.63C56.51,-157.79 57.94,-50.52 76.82,-19.21"/>
<polygon fill="#63b8ff" stroke="#63b8ff" points="69.43,-202.26 76.85,-209.83 75.77,-199.29 69.43,-202.26"/>
</a>
</g>
</g>
<!-- Node4&#45;&gt;Node3 -->
<g id="edge4_Node000003_Node000004" class="edge">
<title>Node4&#45;&gt;Node3</title>
<g id="a_edge4_Node000003_Node000004"><a xlink:title=" ">
<path fill="none" stroke="#63b8ff" d="M80.41,-200.08C72.51,-156.89 73.26,-50.39 82.66,-19.21"/>
<polygon fill="#63b8ff" stroke="#63b8ff" points="77,-200.88 82.67,-209.83 83.82,-199.3 77,-200.88"/>
</a>
</g>
</g>
<!-- Node4&#45;&gt;Node3 -->
<g id="edge5_Node000003_Node000004" class="edge">
<title>Node4&#45;&gt;Node3</title>
<g id="a_edge5_Node000003_Node000004"><a xlink:title=" ">
<path fill="none" stroke="#63b8ff" d="M88.5,-199.8C88.5,-156.43 88.5,-50.32 88.5,-19.21"/>
<polygon fill="#63b8ff" stroke="#63b8ff" points="85,-199.83 88.5,-209.83 92,-199.83 85,-199.83"/>
</a>
</g>
</g>
<!-- Node4&#45;&gt;Node3 -->
<g id="edge6_Node000003_Node000004" class="edge">
<title>Node4&#45;&gt;Node3</title>
<g id="a_edge6_Node000003_Node000004"><a xlink:title=" ">
<path fill="none" stroke="#63b8ff" d="M96.59,-200.08C104.49,-156.89 103.74,-50.39 94.34,-19.21"/>
<polygon fill="#63b8ff" stroke="#63b8ff" points="93.18,-199.3 94.33,-209.83 100,-200.88 93.18,-199.3"/>
</a>
</g>
</g>
<!-- Node4&#45;&gt;Node3 -->
<g id="edge7_Node000003_Node000004" class="edge">
<title>Node4&#45;&gt;Node3</title>
<g id="a_edge7_Node000003_Node000004"><a xlink:title=" ">
<path fill="none" stroke="#63b8ff" d="M104.47,-200.63C120.49,-157.79 119.06,-50.52 100.18,-19.21"/>
<polygon fill="#63b8ff" stroke="#63b8ff" points="101.23,-199.29 100.15,-209.83 107.57,-202.26 101.23,-199.29"/>
</a>
</g>
</g>
<!-- Node6 -->
<g id="Node000006" class="node">
<title>Node6</title>
<g id="a_Node000006"><a xlink:href="class_s_n_base_particle_generator.html" target="_top" xlink:title=" ">
<polygon fill="white" stroke="#bfbfbf" points="310,-141 171,-141 171,-122 310,-122 310,-141"/>
<text text-anchor="middle" x="240.5" y="-129" font-family="Helvetica,sans-Serif" font-size="10.00">SNBaseParticleGenerator</text>
</a>
</g>
</g>
<!-- Node4&#45;&gt;Node6 -->
<g id="edge10_Node000006_Node000004" class="edge">
<title>Node4&#45;&gt;Node6</title>
<g id="a_edge10_Node000006_Node000004"><a xlink:title=" ">
<path fill="none" stroke="#63b8ff" d="M114.3,-205.08C122.11,-200.95 130.69,-196.35 138.5,-192 170.03,-174.46 206.42,-152.91 226.08,-141.16"/>
<polygon fill="#63b8ff" stroke="#63b8ff" points="112.48,-202.08 105.26,-209.84 115.74,-208.28 112.48,-202.08"/>
</a>
</g>
</g>
<!-- Node5 -->
<g id="Node000005" class="node">
<title>Node5</title>
<g id="a_Node000005"><a xlink:href="class_o_m_sim_i_b_d.html" target="_top" xlink:title="Class in charge of generating positrons from IBD of supernova antineutrino interactions.">
<polygon fill="white" stroke="#666666" points="222,-85 153,-85 153,-66 222,-66 222,-85"/>
<text text-anchor="middle" x="187.5" y="-73" font-family="Helvetica,sans-Serif" font-size="10.00">OMSimIBD</text>
</a>
</g>
</g>
<!-- Node5&#45;&gt;Node3 -->
<g id="edge8_Node000003_Node000005" class="edge">
<title>Node5&#45;&gt;Node3</title>
<g id="a_edge8_Node000003_Node000005"><a xlink:title=" ">
<path fill="none" stroke="#9a32cd" stroke-dasharray="5,2" d="M169.03,-59.62C159.79,-52.44 148.3,-43.92 137.5,-37 127.4,-30.53 115.59,-24.11 106.09,-19.21"/>
<polygon fill="#9a32cd" stroke="#9a32cd" points="167.08,-62.54 177.1,-65.98 171.41,-57.04 167.08,-62.54"/>
</a>
</g>
<text text-anchor="middle" x="181" y="-40" font-family="Helvetica,sans-Serif" font-size="10.00" fill="grey"> m_action0</text>
</g>
<!-- Node6&#45;&gt;Node5 -->
<g id="edge9_Node000005_Node000006" class="edge">
<title>Node6&#45;&gt;Node5</title>
<g id="a_edge9_Node000005_Node000006"><a xlink:title=" ">
<path fill="none" stroke="#63b8ff" d="M224.52,-114.22C215.18,-104.7 203.75,-93.06 196.09,-85.25"/>
<polygon fill="#63b8ff" stroke="#63b8ff" points="222.25,-116.9 231.75,-121.58 227.24,-111.99 222.25,-116.9"/>
</a>
</g>
</g>
<!-- Node9 -->
<g id="Node000009" class="node">
<title>Node9</title>
<g id="a_Node000009"><a xlink:href="class_o_m_sim_e_n_e_s.html" target="_top" xlink:title="Class in charge of generating electrons from Electron&#45;electron_Neutrino Elastic Scattering (ENES) nu_...">
<polygon fill="white" stroke="#666666" points="317,-85 240,-85 240,-66 317,-66 317,-85"/>
<text text-anchor="middle" x="278.5" y="-73" font-family="Helvetica,sans-Serif" font-size="10.00">OMSimENES</text>
</a>
</g>
</g>
<!-- Node6&#45;&gt;Node9 -->
<g id="edge14_Node000009_Node000006" class="edge">
<title>Node6&#45;&gt;Node9</title>
<g id="a_edge14_Node000009_Node000006"><a xlink:title=" ">
<path fill="none" stroke="#63b8ff" d="M252.56,-113.36C259.14,-104 267.01,-92.83 272.34,-85.25"/>
<polygon fill="#63b8ff" stroke="#63b8ff" points="249.67,-111.39 246.77,-121.58 255.39,-115.42 249.67,-111.39"/>
</a>
</g>
</g>
<!-- Node7 -->
<g id="Node000007" class="node">
<title>Node7</title>
<g id="a_Node000007"><a xlink:href="class_o_m_sim_s_n_tools.html" target="_top" xlink:title="Provides utility methods for generating ENES and IBD interactions.">
<polygon fill="white" stroke="#666666" points="285.5,-229 195.5,-229 195.5,-210 285.5,-210 285.5,-229"/>
<text text-anchor="middle" x="240.5" y="-217" font-family="Helvetica,sans-Serif" font-size="10.00">OMSimSNTools</text>
</a>
</g>
</g>
<!-- Node7&#45;&gt;Node6 -->
<g id="edge11_Node000006_Node000007" class="edge">
<title>Node7&#45;&gt;Node6</title>
<g id="a_edge11_Node000006_Node000007"><a xlink:title=" ">
<path fill="none" stroke="#9a32cd" stroke-dasharray="5,2" d="M240.5,-199.91C240.5,-181.67 240.5,-154.65 240.5,-141.03"/>
<polygon fill="#9a32cd" stroke="#9a32cd" points="237,-199.94 240.5,-209.94 244,-199.94 237,-199.94"/>
</a>
</g>
<text text-anchor="middle" x="275.5" y="-173" font-family="Helvetica,sans-Serif" font-size="10.00" fill="grey"> m_SNToolBox</text>
</g>
<!-- Node8 -->
<g id="Node000008" class="node">
<title>Node8</title>
<g id="a_Node000008"><a xlink:href="class_distribution_sampler.html" target="_top" xlink:title="Utility class for sampling from a given distribution using the inverse cumulative function and interp...">
<polygon fill="white" stroke="#666666" points="417.5,-229 303.5,-229 303.5,-210 417.5,-210 417.5,-229"/>
<text text-anchor="middle" x="360.5" y="-217" font-family="Helvetica,sans-Serif" font-size="10.00">DistributionSampler</text>
</a>
</g>
</g>
<!-- Node8&#45;&gt;Node6 -->
<g id="edge12_Node000006_Node000008" class="edge">
<title>Node8&#45;&gt;Node6</title>
<g id="a_edge12_Node000006_Node000008"><a xlink:title=" ">
<path fill="none" stroke="#9a32cd" stroke-dasharray="5,2" d="M350.94,-201.31C342.8,-188.09 329.97,-170.24 314.5,-159 303.46,-150.98 289.75,-145.18 277.15,-141.09"/>
<polygon fill="#9a32cd" stroke="#9a32cd" points="347.93,-203.11 356.01,-209.96 353.97,-199.56 347.93,-203.11"/>
</a>
</g>
<text text-anchor="middle" x="432.5" y="-184" font-family="Helvetica,sans-Serif" font-size="10.00" fill="grey"> m_meanEnergyDistribution</text>
<text text-anchor="middle" x="432.5" y="-173" font-family="Helvetica,sans-Serif" font-size="10.00" fill="grey">m_meanEnergySquaredDistribution</text>
<text text-anchor="middle" x="432.5" y="-162" font-family="Helvetica,sans-Serif" font-size="10.00" fill="grey">m_timeDistribution</text>
</g>
<!-- Node9&#45;&gt;Node3 -->
<g id="edge13_Node000003_Node000009" class="edge">
<title>Node9&#45;&gt;Node3</title>
<g id="a_edge13_Node000003_Node000009"><a xlink:title=" ">
<path fill="none" stroke="#9a32cd" stroke-dasharray="5,2" d="M257.18,-60.16C244.64,-52.3 228.2,-42.98 212.5,-37 191.41,-28.97 167.33,-23.13 146.04,-19"/>
<polygon fill="#9a32cd" stroke="#9a32cd" points="255.63,-63.32 265.93,-65.8 259.42,-57.44 255.63,-63.32"/>
</a>
</g>
<text text-anchor="middle" x="263" y="-40" font-family="Helvetica,sans-Serif" font-size="10.00" fill="grey"> m_action1</text>
</g>
</g>
</svg>
