<?xml version="1.0" encoding="UTF-8" standalone="no"?>
<!DOCTYPE svg PUBLIC "-//W3C//DTD SVG 1.1//EN"
 "http://www.w3.org/Graphics/SVG/1.1/DTD/svg11.dtd">
<!-- Generated by graphviz version 2.43.0 (0)
 -->
<!-- Title: OMSimSensitiveDetector Pages: 1 -->
<svg width="270pt" height="95pt"
 viewBox="0.00 0.00 270.00 95.00" xmlns="http://www.w3.org/2000/svg" xmlns:xlink="http://www.w3.org/1999/xlink">
<g id="graph0" class="graph" transform="scale(1 1) rotate(0) translate(4 91)">
<title>OMSimSensitiveDetector</title>
<polygon fill="white" stroke="transparent" points="-4,4 -4,-91 266,-91 266,4 -4,4"/>
<!-- Node1 -->
<g id="node1" class="node">
<title>Node1</title>
<g id="a_node1"><a xlink:title="Represents a sensitive detector.">
<polygon fill="#bfbfbf" stroke="black" points="62.5,-0.5 62.5,-19.5 201.5,-19.5 201.5,-0.5 62.5,-0.5"/>
<text text-anchor="middle" x="132" y="-7.5" font-family="Helvetica,sans-Serif" font-size="10.00">OMSimSensitiveDetector</text>
</a>
</g>
</g>
<!-- Node2 -->
<g id="node2" class="node">
<title>Node2</title>
<g id="a_node2"><a xlink:title=" ">
<polygon fill="white" stroke="#bfbfbf" points="0,-67.5 0,-86.5 124,-86.5 124,-67.5 0,-67.5"/>
<text text-anchor="middle" x="62" y="-74.5" font-family="Helvetica,sans-Serif" font-size="10.00">G4VSensitiveDetector</text>
</a>
</g>
</g>
<!-- Node2&#45;&gt;Node1 -->
<g id="edge1" class="edge">
<title>Node2&#45;&gt;Node1</title>
<path fill="none" stroke="midnightblue" d="M78.85,-60.36C92.61,-47.58 111.55,-29.99 122.71,-19.63"/>
<polygon fill="midnightblue" stroke="midnightblue" points="76.39,-57.86 71.44,-67.23 81.15,-62.99 76.39,-57.86"/>
</g>
<!-- Node3 -->
<g id="node3" class="node">
<title>Node3</title>
<g id="a_node3"><a xlink:href="class_o_m_sim_p_m_t_response.html" target="_top" xlink:title="Singleton class to simulate PMT response.">
<polygon fill="white" stroke="black" points="142,-67.5 142,-86.5 262,-86.5 262,-67.5 142,-67.5"/>
<text text-anchor="middle" x="202" y="-74.5" font-family="Helvetica,sans-Serif" font-size="10.00">OMSimPMTResponse</text>
</a>
</g>
</g>
<!-- Node3&#45;&gt;Node1 -->
<g id="edge2" class="edge">
<title>Node3&#45;&gt;Node1</title>
<path fill="none" stroke="#9a32cd" stroke-dasharray="5,2" d="M185.15,-60.36C171.39,-47.58 152.45,-29.99 141.29,-19.63"/>
<polygon fill="#9a32cd" stroke="#9a32cd" points="182.85,-62.99 192.56,-67.23 187.61,-57.86 182.85,-62.99"/>
<text text-anchor="middle" x="212" y="-41" font-family="Helvetica,sans-Serif" font-size="10.00"> mPMTResponse</text>
</g>
</g>
</svg>
