<?xml version="1.0" encoding="UTF-8" standalone="no"?>
<!DOCTYPE svg PUBLIC "-//W3C//DTD SVG 1.1//EN"
 "http://www.w3.org/Graphics/SVG/1.1/DTD/svg11.dtd">
<!-- Generated by graphviz version 2.43.0 (0)
 -->
<!-- Title: OMSimPrimaryGeneratorAction Pages: 1 -->
<svg width="637pt" height="303pt"
 viewBox="0.00 0.00 636.50 303.00" xmlns="http://www.w3.org/2000/svg" xmlns:xlink="http://www.w3.org/1999/xlink">
<g id="graph0" class="graph" transform="scale(1 1) rotate(0) translate(4 299)">
<title>OMSimPrimaryGeneratorAction</title>
<!-- Node1 -->
<g id="Node000001" class="node">
<title>Node1</title>
<g id="a_Node000001"><a xlink:title=" ">
<polygon fill="#999999" stroke="#666666" points="283.5,-85 113.5,-85 113.5,-66 283.5,-66 283.5,-85"/>
<text text-anchor="middle" x="198.5" y="-73" font-family="Helvetica,sans-Serif" font-size="10.00">OMSimPrimaryGeneratorAction</text>
</a>
</g>
</g>
<!-- Node8 -->
<g id="Node000008" class="node">
<title>Node8</title>
<g id="a_Node000008"><a xlink:href="class_o_m_sim_primary_generator_messenger.html" target="_top" xlink:title=" ">
<polygon fill="white" stroke="#bfbfbf" points="222.5,-19 30.5,-19 30.5,0 222.5,0 222.5,-19"/>
<text text-anchor="middle" x="126.5" y="-7" font-family="Helvetica,sans-Serif" font-size="10.00">OMSimPrimaryGeneratorMessenger</text>
</a>
</g>
</g>
<!-- Node1&#45;&gt;Node8 -->
<g id="edge14_Node000008_Node000001" class="edge">
<title>Node1&#45;&gt;Node8</title>
<g id="a_edge14_Node000008_Node000001"><a xlink:title=" ">
<path fill="none" stroke="#9a32cd" stroke-dasharray="5,2" d="M137.97,-61.14C132.34,-57.71 127.32,-53.4 123.5,-48 117.54,-39.57 120.08,-27.27 122.9,-19.07"/>
<polygon fill="#9a32cd" stroke="#9a32cd" points="136.74,-64.45 147.24,-65.85 139.91,-58.2 136.74,-64.45"/>
</a>
</g>
<text text-anchor="middle" x="148" y="-40" font-family="Helvetica,sans-Serif" font-size="10.00" fill="grey"> m_action</text>
</g>
<!-- Node2 -->
<g id="Node000002" class="node">
<title>Node2</title>
<g id="a_Node000002"><a xlink:title=" ">
<polygon fill="white" stroke="#bfbfbf" points="287,-295 110,-295 110,-276 287,-276 287,-295"/>
<text text-anchor="middle" x="198.5" y="-283" font-family="Helvetica,sans-Serif" font-size="10.00">G4VUserPrimaryGeneratorAction</text>
</a>
</g>
</g>
<!-- Node2&#45;&gt;Node1 -->
<g id="edge1_Node000001_Node000002" class="edge">
<title>Node2&#45;&gt;Node1</title>
<g id="a_edge1_Node000001_Node000002"><a xlink:title=" ">
<path fill="none" stroke="#63b8ff" d="M186.44,-266.35C174.51,-223.34 175.61,-116.46 189.74,-85.21"/>
<polygon fill="#63b8ff" stroke="#63b8ff" points="183.15,-267.54 189.76,-275.83 189.76,-265.23 183.15,-267.54"/>
</a>
</g>
</g>
<!-- Node2&#45;&gt;Node1 -->
<g id="edge2_Node000001_Node000002" class="edge">
<title>Node2&#45;&gt;Node1</title>
<g id="a_edge2_Node000001_Node000002"><a xlink:title=" ">
<path fill="none" stroke="#63b8ff" d="M194.43,-265.8C190.51,-222.43 190.89,-116.32 195.58,-85.21"/>
<polygon fill="#63b8ff" stroke="#63b8ff" points="190.96,-266.29 195.59,-275.83 197.92,-265.49 190.96,-266.29"/>
</a>
</g>
</g>
<!-- Node2&#45;&gt;Node1 -->
<g id="edge3_Node000001_Node000002" class="edge">
<title>Node2&#45;&gt;Node1</title>
<g id="a_edge3_Node000001_Node000002"><a xlink:title=" ">
<path fill="none" stroke="#63b8ff" d="M202.57,-265.8C206.49,-222.43 206.11,-116.32 201.42,-85.21"/>
<polygon fill="#63b8ff" stroke="#63b8ff" points="199.08,-265.49 201.41,-275.83 206.04,-266.29 199.08,-265.49"/>
</a>
</g>
</g>
<!-- Node2&#45;&gt;Node1 -->
<g id="edge4_Node000001_Node000002" class="edge">
<title>Node2&#45;&gt;Node1</title>
<g id="a_edge4_Node000001_Node000002"><a xlink:title=" ">
<path fill="none" stroke="#63b8ff" d="M210.56,-266.35C222.49,-223.34 221.39,-116.46 207.26,-85.21"/>
<polygon fill="#63b8ff" stroke="#63b8ff" points="207.24,-265.23 207.24,-275.83 213.85,-267.54 207.24,-265.23"/>
</a>
</g>
</g>
<!-- Node4 -->
<g id="Node000004" class="node">
<title>Node4</title>
<g id="a_Node000004"><a xlink:href="class_s_n_base_particle_generator.html" target="_top" xlink:title=" ">
<polygon fill="white" stroke="#bfbfbf" points="420,-207 281,-207 281,-188 420,-188 420,-207"/>
<text text-anchor="middle" x="350.5" y="-195" font-family="Helvetica,sans-Serif" font-size="10.00">SNBaseParticleGenerator</text>
</a>
</g>
</g>
<!-- Node2&#45;&gt;Node4 -->
<g id="edge7_Node000004_Node000002" class="edge">
<title>Node2&#45;&gt;Node4</title>
<g id="a_edge7_Node000004_Node000002"><a xlink:title=" ">
<path fill="none" stroke="#63b8ff" d="M222.68,-270.82C254.38,-252.88 309.07,-221.94 335.43,-207.03"/>
<polygon fill="#63b8ff" stroke="#63b8ff" points="220.61,-267.97 213.63,-275.94 224.06,-274.06 220.61,-267.97"/>
</a>
</g>
</g>
<!-- Node3 -->
<g id="Node000003" class="node">
<title>Node3</title>
<g id="a_Node000003"><a xlink:href="class_o_m_sim_i_b_d.html" target="_top" xlink:title="Class in charge of generating positrons from IBD of supernova antineutrino interactions.">
<polygon fill="white" stroke="#666666" points="323,-151 254,-151 254,-132 323,-132 323,-151"/>
<text text-anchor="middle" x="288.5" y="-139" font-family="Helvetica,sans-Serif" font-size="10.00">OMSimIBD</text>
</a>
</g>
</g>
<!-- Node3&#45;&gt;Node1 -->
<g id="edge5_Node000001_Node000003" class="edge">
<title>Node3&#45;&gt;Node1</title>
<g id="a_edge5_Node000001_Node000003"><a xlink:title=" ">
<path fill="none" stroke="#9a32cd" stroke-dasharray="5,2" d="M269.84,-125.67C260.81,-118.63 249.72,-110.2 239.5,-103 230.63,-96.75 220.38,-90.13 212.35,-85.07"/>
<polygon fill="#9a32cd" stroke="#9a32cd" points="267.76,-128.48 277.79,-131.91 272.09,-122.98 267.76,-128.48"/>
</a>
</g>
<text text-anchor="middle" x="283" y="-106" font-family="Helvetica,sans-Serif" font-size="10.00" fill="grey"> m_action0</text>
</g>
<!-- Node4&#45;&gt;Node3 -->
<g id="edge6_Node000003_Node000004" class="edge">
<title>Node4&#45;&gt;Node3</title>
<g id="a_edge6_Node000003_Node000004"><a xlink:title=" ">
<path fill="none" stroke="#63b8ff" d="M332.75,-181.04C321.69,-171.41 307.87,-159.37 298.64,-151.33"/>
<polygon fill="#63b8ff" stroke="#63b8ff" points="330.7,-183.9 340.54,-187.82 335.3,-178.62 330.7,-183.9"/>
</a>
</g>
</g>
<!-- Node7 -->
<g id="Node000007" class="node">
<title>Node7</title>
<g id="a_Node000007"><a xlink:href="class_o_m_sim_e_n_e_s.html" target="_top" xlink:title="Class in charge of generating electrons from Electron&#45;electron_Neutrino Elastic Scattering (ENES) nu_...">
<polygon fill="white" stroke="#666666" points="418,-151 341,-151 341,-132 418,-132 418,-151"/>
<text text-anchor="middle" x="379.5" y="-139" font-family="Helvetica,sans-Serif" font-size="10.00">OMSimENES</text>
</a>
</g>
</g>
<!-- Node4&#45;&gt;Node7 -->
<g id="edge11_Node000007_Node000004" class="edge">
<title>Node4&#45;&gt;Node7</title>
<g id="a_edge11_Node000007_Node000004"><a xlink:title=" ">
<path fill="none" stroke="#63b8ff" d="M360.18,-178.48C365.1,-169.32 370.86,-158.59 374.8,-151.25"/>
<polygon fill="#63b8ff" stroke="#63b8ff" points="356.94,-177.12 355.29,-187.58 363.1,-180.43 356.94,-177.12"/>
</a>
</g>
</g>
<!-- Node5 -->
<g id="Node000005" class="node">
<title>Node5</title>
<g id="a_Node000005"><a xlink:href="class_o_m_sim_s_n_tools.html" target="_top" xlink:title="Provides utility methods for generating ENES and IBD interactions.">
<polygon fill="white" stroke="#666666" points="395.5,-295 305.5,-295 305.5,-276 395.5,-276 395.5,-295"/>
<text text-anchor="middle" x="350.5" y="-283" font-family="Helvetica,sans-Serif" font-size="10.00">OMSimSNTools</text>
</a>
</g>
</g>
<!-- Node5&#45;&gt;Node4 -->
<g id="edge8_Node000004_Node000005" class="edge">
<title>Node5&#45;&gt;Node4</title>
<g id="a_edge8_Node000004_Node000005"><a xlink:title=" ">
<path fill="none" stroke="#9a32cd" stroke-dasharray="5,2" d="M350.5,-265.91C350.5,-247.67 350.5,-220.65 350.5,-207.03"/>
<polygon fill="#9a32cd" stroke="#9a32cd" points="347,-265.94 350.5,-275.94 354,-265.94 347,-265.94"/>
</a>
</g>
<text text-anchor="middle" x="385.5" y="-239" font-family="Helvetica,sans-Serif" font-size="10.00" fill="grey"> m_SNToolBox</text>
</g>
<!-- Node6 -->
<g id="Node000006" class="node">
<title>Node6</title>
<g id="a_Node000006"><a xlink:href="class_distribution_sampler.html" target="_top" xlink:title="Utility class for sampling from a given distribution using the inverse cumulative function and interp...">
<polygon fill="white" stroke="#666666" points="527.5,-295 413.5,-295 413.5,-276 527.5,-276 527.5,-295"/>
<text text-anchor="middle" x="470.5" y="-283" font-family="Helvetica,sans-Serif" font-size="10.00">DistributionSampler</text>
</a>
</g>
</g>
<!-- Node6&#45;&gt;Node4 -->
<g id="edge9_Node000004_Node000006" class="edge">
<title>Node6&#45;&gt;Node4</title>
<g id="a_edge9_Node000004_Node000006"><a xlink:title=" ">
<path fill="none" stroke="#9a32cd" stroke-dasharray="5,2" d="M460.94,-267.31C452.8,-254.09 439.97,-236.24 424.5,-225 413.46,-216.98 399.75,-211.18 387.15,-207.09"/>
<polygon fill="#9a32cd" stroke="#9a32cd" points="457.93,-269.11 466.01,-275.96 463.97,-265.56 457.93,-269.11"/>
</a>
</g>
<text text-anchor="middle" x="541.5" y="-250" font-family="Helvetica,sans-Serif" font-size="10.00" fill="grey"> m_meanEnergyDistribution</text>
<text text-anchor="middle" x="541.5" y="-239" font-family="Helvetica,sans-Serif" font-size="10.00" fill="grey">m_meanEnergySquaredDistribution</text>
<text text-anchor="middle" x="541.5" y="-228" font-family="Helvetica,sans-Serif" font-size="10.00" fill="grey">m_timeDistribution</text>
</g>
<!-- Node7&#45;&gt;Node1 -->
<g id="edge10_Node000001_Node000007" class="edge">
<title>Node7&#45;&gt;Node1</title>
<g id="a_edge10_Node000001_Node000007"><a xlink:title=" ">
<path fill="none" stroke="#9a32cd" stroke-dasharray="5,2" d="M358.5,-126.23C346.15,-118.39 329.96,-109.07 314.5,-103 294.31,-95.08 271.17,-89.2 250.89,-85.01"/>
<polygon fill="#9a32cd" stroke="#9a32cd" points="356.83,-129.32 367.12,-131.85 360.65,-123.45 356.83,-129.32"/>
</a>
</g>
<text text-anchor="middle" x="365" y="-106" font-family="Helvetica,sans-Serif" font-size="10.00" fill="grey"> m_action1</text>
</g>
<!-- Node8&#45;&gt;Node1 -->
<g id="edge12_Node000001_Node000008" class="edge">
<title>Node8&#45;&gt;Node1</title>
<g id="a_edge12_Node000001_Node000008"><a xlink:title=" ">
<path fill="none" stroke="#9a32cd" stroke-dasharray="5,2" d="M157.82,-23.68C164.46,-27.37 171.09,-31.81 176.5,-37 185.11,-45.25 191.47,-57.6 195.08,-65.85"/>
<polygon fill="#9a32cd" stroke="#9a32cd" points="159.37,-20.54 148.87,-19.11 156.19,-26.77 159.37,-20.54"/>
</a>
</g>
<text text-anchor="middle" x="230.5" y="-40" font-family="Helvetica,sans-Serif" font-size="10.00" fill="grey"> m_gunMessenger</text>
</g>
<!-- Node9 -->
<g id="Node000009" class="node">
<title>Node9</title>
<g id="a_Node000009"><a xlink:title=" ">
<polygon fill="white" stroke="#bfbfbf" points="95,-85 0,-85 0,-66 95,-66 95,-85"/>
<text text-anchor="middle" x="47.5" y="-73" font-family="Helvetica,sans-Serif" font-size="10.00">G4UImessenger</text>
</a>
</g>
</g>
<!-- Node9&#45;&gt;Node8 -->
<g id="edge13_Node000008_Node000009" class="edge">
<title>Node9&#45;&gt;Node8</title>
<g id="a_edge13_Node000008_Node000009"><a xlink:title=" ">
<path fill="none" stroke="#63b8ff" d="M66.03,-59.49C81.5,-46.96 103,-29.54 115.76,-19.2"/>
<polygon fill="#63b8ff" stroke="#63b8ff" points="63.72,-56.85 58.15,-65.87 68.13,-62.29 63.72,-56.85"/>
</a>
</g>
</g>
</g>
</svg>
