<?xml version="1.0" encoding="UTF-8" standalone="no"?>
<!DOCTYPE svg PUBLIC "-//W3C//DTD SVG 1.1//EN"
 "http://www.w3.org/Graphics/SVG/1.1/DTD/svg11.dtd">
<!-- Generated by graphviz version 2.43.0 (0)
 -->
<!-- Title: OMSimPrimaryGeneratorMessenger Pages: 1 -->
<svg width="527pt" height="241pt"
 viewBox="0.00 0.00 526.50 241.00" xmlns="http://www.w3.org/2000/svg" xmlns:xlink="http://www.w3.org/1999/xlink">
<g id="graph0" class="graph" transform="scale(1 1) rotate(0) translate(4 237)">
<title>OMSimPrimaryGeneratorMessenger</title>
<!-- Node1 -->
<g id="node1" class="node">
<title>Node1</title>
<g id="a_node1"><a xlink:title=" ">
<polygon fill="#bfbfbf" stroke="black" points="326.5,-67.5 326.5,-86.5 518.5,-86.5 518.5,-67.5 326.5,-67.5"/>
<text text-anchor="middle" x="422.5" y="-74.5" font-family="Helvetica,sans-Serif" font-size="10.00">OMSimPrimaryGeneratorMessenger</text>
</a>
</g>
</g>
<!-- Node3 -->
<g id="node3" class="node">
<title>Node3</title>
<g id="a_node3"><a xlink:href="class_o_m_sim_primary_generator_action.html" target="_top" xlink:title=" ">
<polygon fill="none" stroke="black" points="33.5,-0.5 33.5,-19.5 203.5,-19.5 203.5,-0.5 33.5,-0.5"/>
<text text-anchor="middle" x="118.5" y="-7.5" font-family="Helvetica,sans-Serif" font-size="10.00">OMSimPrimaryGeneratorAction</text>
</a>
</g>
</g>
<!-- Node1&#45;&gt;Node3 -->
<g id="edge12" class="edge">
<title>Node1&#45;&gt;Node3</title>
<path fill="none" stroke="#9a32cd" stroke-dasharray="5,2" d="M360.64,-65.33C342.53,-61.25 322.93,-55.88 305.5,-49 296.42,-45.42 295.69,-41.27 286.5,-38 260.34,-28.69 230.74,-22.57 203.75,-18.56"/>
<polygon fill="#9a32cd" stroke="#9a32cd" points="360.02,-68.78 370.53,-67.47 361.49,-61.93 360.02,-68.78"/>
<text text-anchor="middle" x="350.5" y="-41" font-family="Helvetica,sans-Serif" font-size="10.00"> m_gunMessenger</text>
</g>
<!-- Node2 -->
<g id="node2" class="node">
<title>Node2</title>
<g id="a_node2"><a xlink:title=" ">
<polygon fill="none" stroke="#bfbfbf" points="375,-124.5 375,-143.5 470,-143.5 470,-124.5 375,-124.5"/>
<text text-anchor="middle" x="422.5" y="-131.5" font-family="Helvetica,sans-Serif" font-size="10.00">G4UImessenger</text>
</a>
</g>
</g>
<!-- Node2&#45;&gt;Node1 -->
<g id="edge1" class="edge">
<title>Node2&#45;&gt;Node1</title>
<path fill="none" stroke="midnightblue" d="M422.5,-114.12C422.5,-104.82 422.5,-94.06 422.5,-86.71"/>
<polygon fill="midnightblue" stroke="midnightblue" points="419,-114.41 422.5,-124.41 426,-114.41 419,-114.41"/>
</g>
<!-- Node3&#45;&gt;Node1 -->
<g id="edge2" class="edge">
<title>Node3&#45;&gt;Node1</title>
<path fill="none" stroke="#9a32cd" stroke-dasharray="5,2" d="M213.71,-11.15C282.85,-12.91 369.34,-19.05 399.5,-38 410.21,-44.73 416.64,-58.43 419.87,-67.41"/>
<polygon fill="#9a32cd" stroke="#9a32cd" points="213.72,-7.65 203.64,-10.92 213.56,-14.65 213.72,-7.65"/>
<text text-anchor="middle" x="435" y="-41" font-family="Helvetica,sans-Serif" font-size="10.00"> m_action</text>
</g>
<!-- Node4 -->
<g id="node4" class="node">
<title>Node4</title>
<g id="a_node4"><a xlink:title=" ">
<polygon fill="none" stroke="#bfbfbf" points="0,-213.5 0,-232.5 177,-232.5 177,-213.5 0,-213.5"/>
<text text-anchor="middle" x="88.5" y="-220.5" font-family="Helvetica,sans-Serif" font-size="10.00">G4VUserPrimaryGeneratorAction</text>
</a>
</g>
</g>
<!-- Node4&#45;&gt;Node3 -->
<g id="edge3" class="edge">
<title>Node4&#45;&gt;Node3</title>
<path fill="none" stroke="midnightblue" d="M79.07,-203.66C73.32,-160.08 89.83,-51.63 108.46,-19.87"/>
<polygon fill="midnightblue" stroke="midnightblue" points="75.65,-204.38 81.09,-213.47 82.5,-202.97 75.65,-204.38"/>
</g>
<!-- Node4&#45;&gt;Node3 -->
<g id="edge4" class="edge">
<title>Node4&#45;&gt;Node3</title>
<path fill="none" stroke="midnightblue" d="M87.11,-203.38C89.38,-159.62 105.11,-51.57 114.31,-19.87"/>
<polygon fill="midnightblue" stroke="midnightblue" points="83.61,-203.38 86.84,-213.47 90.61,-203.56 83.61,-203.38"/>
</g>
<!-- Node4&#45;&gt;Node3 -->
<g id="edge5" class="edge">
<title>Node4&#45;&gt;Node3</title>
<path fill="none" stroke="midnightblue" d="M95.12,-203.66C105.3,-160.08 120.35,-51.63 120.16,-19.87"/>
<polygon fill="midnightblue" stroke="midnightblue" points="91.7,-202.91 92.59,-213.47 98.48,-204.66 91.7,-202.91"/>
</g>
<!-- Node4&#45;&gt;Node3 -->
<g id="edge6" class="edge">
<title>Node4&#45;&gt;Node3</title>
<path fill="none" stroke="midnightblue" d="M102.8,-204.48C121.1,-161.47 135.68,-51.84 126.01,-19.87"/>
<polygon fill="midnightblue" stroke="midnightblue" points="99.65,-202.95 98.33,-213.47 105.92,-206.07 99.65,-202.95"/>
</g>
<!-- Node6 -->
<g id="node6" class="node">
<title>Node6</title>
<g id="a_node6"><a xlink:href="class_s_n_base_particle_generator.html" target="_top" xlink:title=" ">
<polygon fill="none" stroke="black" points="183,-124.5 183,-143.5 322,-143.5 322,-124.5 183,-124.5"/>
<text text-anchor="middle" x="252.5" y="-131.5" font-family="Helvetica,sans-Serif" font-size="10.00">SNBaseParticleGenerator</text>
</a>
</g>
</g>
<!-- Node4&#45;&gt;Node6 -->
<g id="edge9" class="edge">
<title>Node4&#45;&gt;Node6</title>
<path fill="none" stroke="midnightblue" d="M113.37,-208.81C147.35,-190.78 207.36,-158.95 236.17,-143.66"/>
<polygon fill="midnightblue" stroke="midnightblue" points="111.72,-205.72 104.52,-213.5 115,-211.91 111.72,-205.72"/>
</g>
<!-- Node5 -->
<g id="node5" class="node">
<title>Node5</title>
<g id="a_node5"><a xlink:href="class_o_m_sim_i_b_d.html" target="_top" xlink:title="Class in charge of generating positrons from IBD of supernova antineutrino interactions.">
<polygon fill="none" stroke="black" points="144,-67.5 144,-86.5 213,-86.5 213,-67.5 144,-67.5"/>
<text text-anchor="middle" x="178.5" y="-74.5" font-family="Helvetica,sans-Serif" font-size="10.00">OMSimIBD</text>
</a>
</g>
</g>
<!-- Node5&#45;&gt;Node3 -->
<g id="edge7" class="edge">
<title>Node5&#45;&gt;Node3</title>
<path fill="none" stroke="#9a32cd" stroke-dasharray="5,2" d="M162.73,-59.82C159.33,-56.27 155.78,-52.53 152.5,-49 143.23,-39.01 132.81,-27.29 125.97,-19.53"/>
<polygon fill="#9a32cd" stroke="#9a32cd" points="160.28,-62.32 169.75,-67.08 165.32,-57.46 160.28,-62.32"/>
<text text-anchor="middle" x="180" y="-41" font-family="Helvetica,sans-Serif" font-size="10.00"> m_action0</text>
</g>
<!-- Node6&#45;&gt;Node5 -->
<g id="edge8" class="edge">
<title>Node6&#45;&gt;Node5</title>
<path fill="none" stroke="midnightblue" d="M232.7,-118.29C219.15,-108.21 201.62,-95.19 190.23,-86.71"/>
<polygon fill="midnightblue" stroke="midnightblue" points="230.82,-121.25 240.94,-124.41 235,-115.63 230.82,-121.25"/>
</g>
<!-- Node9 -->
<g id="node9" class="node">
<title>Node9</title>
<g id="a_node9"><a xlink:href="class_o_m_sim_e_n_e_s.html" target="_top" xlink:title="Class in charge of generating electrons from Electron&#45;electron_Neutrino Elastic Scattering (ENES) nu_...">
<polygon fill="none" stroke="black" points="231,-67.5 231,-86.5 308,-86.5 308,-67.5 231,-67.5"/>
<text text-anchor="middle" x="269.5" y="-74.5" font-family="Helvetica,sans-Serif" font-size="10.00">OMSimENES</text>
</a>
</g>
</g>
<!-- Node6&#45;&gt;Node9 -->
<g id="edge14" class="edge">
<title>Node6&#45;&gt;Node9</title>
<path fill="none" stroke="midnightblue" d="M258.15,-114.73C261.06,-105.29 264.49,-94.22 266.81,-86.71"/>
<polygon fill="midnightblue" stroke="midnightblue" points="254.77,-113.82 255.16,-124.41 261.45,-115.89 254.77,-113.82"/>
</g>
<!-- Node7 -->
<g id="node7" class="node">
<title>Node7</title>
<g id="a_node7"><a xlink:href="class_distribution_sampler.html" target="_top" xlink:title="Utility class for sampling from a given distribution using the inverse cumulative function and interp...">
<polygon fill="none" stroke="black" points="195.5,-213.5 195.5,-232.5 309.5,-232.5 309.5,-213.5 195.5,-213.5"/>
<text text-anchor="middle" x="252.5" y="-220.5" font-family="Helvetica,sans-Serif" font-size="10.00">DistributionSampler</text>
</a>
</g>
</g>
<!-- Node7&#45;&gt;Node6 -->
<g id="edge10" class="edge">
<title>Node7&#45;&gt;Node6</title>
<path fill="none" stroke="#9a32cd" stroke-dasharray="5,2" d="M252.5,-203.19C252.5,-184.74 252.5,-157.41 252.5,-143.62"/>
<polygon fill="#9a32cd" stroke="#9a32cd" points="249,-203.34 252.5,-213.34 256,-203.34 249,-203.34"/>
<text text-anchor="middle" x="339.5" y="-187" font-family="Helvetica,sans-Serif" font-size="10.00"> m_meanEnergyDistribution</text>
<text text-anchor="middle" x="339.5" y="-176" font-family="Helvetica,sans-Serif" font-size="10.00">m_meanEnergySquaredDistribution</text>
<text text-anchor="middle" x="339.5" y="-165" font-family="Helvetica,sans-Serif" font-size="10.00">m_timeDistribution</text>
</g>
<!-- Node8 -->
<g id="node8" class="node">
<title>Node8</title>
<g id="a_node8"><a xlink:href="class_o_m_sim_s_n_tools.html" target="_top" xlink:title="Provides utility methods for generating ENES and IBD interactions.">
<polygon fill="none" stroke="black" points="404.5,-213.5 404.5,-232.5 494.5,-232.5 494.5,-213.5 404.5,-213.5"/>
<text text-anchor="middle" x="449.5" y="-220.5" font-family="Helvetica,sans-Serif" font-size="10.00">OMSimSNTools</text>
</a>
</g>
</g>
<!-- Node8&#45;&gt;Node6 -->
<g id="edge11" class="edge">
<title>Node8&#45;&gt;Node6</title>
<path fill="none" stroke="#9a32cd" stroke-dasharray="5,2" d="M447.56,-202.89C445.14,-189.4 439.7,-172 427.5,-162 419.15,-155.16 367.25,-147.69 322.12,-142.35"/>
<polygon fill="#9a32cd" stroke="#9a32cd" points="444.13,-203.64 448.96,-213.07 451.06,-202.68 444.13,-203.64"/>
<text text-anchor="middle" x="480.5" y="-176" font-family="Helvetica,sans-Serif" font-size="10.00"> m_SNToolBox</text>
</g>
<!-- Node9&#45;&gt;Node3 -->
<g id="edge13" class="edge">
<title>Node9&#45;&gt;Node3</title>
<path fill="none" stroke="#9a32cd" stroke-dasharray="5,2" d="M249.07,-61.64C237.32,-53.86 222.04,-44.53 207.5,-38 190.41,-30.32 170.54,-24.06 153.91,-19.51"/>
<polygon fill="#9a32cd" stroke="#9a32cd" points="247.42,-64.75 257.66,-67.47 251.35,-58.96 247.42,-64.75"/>
<text text-anchor="middle" x="255" y="-41" font-family="Helvetica,sans-Serif" font-size="10.00"> m_action1</text>
</g>
</g>
</svg>
