<?xml version="1.0" encoding="UTF-8" standalone="no"?>
<!DOCTYPE svg PUBLIC "-//W3C//DTD SVG 1.1//EN"
 "http://www.w3.org/Graphics/SVG/1.1/DTD/svg11.dtd">
<!-- Generated by graphviz version 2.43.0 (0)
 -->
<!-- Title: pDOM Pages: 1 -->
<svg width="158pt" height="137pt"
 viewBox="0.00 0.00 158.00 137.00" xmlns="http://www.w3.org/2000/svg" xmlns:xlink="http://www.w3.org/1999/xlink">
<g id="graph0" class="graph" transform="scale(1 1) rotate(0) translate(4 133)">
<title>pDOM</title>
<!-- Node1 -->
<g id="Node000001" class="node">
<title>Node1</title>
<g id="a_Node000001"><a xlink:title="pDOM class represents the construction of pDOM/Gen1 DOM.">
<polygon fill="#999999" stroke="#666666" points="98.5,-19 51.5,-19 51.5,0 98.5,0 98.5,-19"/>
<text text-anchor="middle" x="75" y="-7" font-family="Helvetica,sans-Serif" font-size="10.00">pDOM</text>
</a>
</g>
</g>
<!-- Node2 -->
<g id="Node000002" class="node">
<title>Node2</title>
<g id="a_Node000002"><a xlink:href="class_o_m_sim_optical_module.html" target="_top" xlink:title="Base class for OMs works as interface.">
<polygon fill="white" stroke="#666666" points="136,-74 14,-74 14,-55 136,-55 136,-74"/>
<text text-anchor="middle" x="75" y="-62" font-family="Helvetica,sans-Serif" font-size="10.00">OMSimOpticalModule</text>
</a>
</g>
</g>
<!-- Node2&#45;&gt;Node1 -->
<g id="edge1_Node000001_Node000002" class="edge">
<title>Node2&#45;&gt;Node1</title>
<g id="a_edge1_Node000001_Node000002"><a xlink:title=" ">
<path fill="none" stroke="#63b8ff" d="M75,-44.66C75,-35.93 75,-25.99 75,-19.09"/>
<polygon fill="#63b8ff" stroke="#63b8ff" points="71.5,-44.75 75,-54.75 78.5,-44.75 71.5,-44.75"/>
</a>
</g>
</g>
<!-- Node3 -->
<g id="Node000003" class="node">
<title>Node3</title>
<g id="a_Node000003"><a xlink:href="class_o_m_sim_detector_component.html" target="_top" xlink:title="Abstract base class used for constructing detector components.">
<polygon fill="white" stroke="#666666" points="150,-129 0,-129 0,-110 150,-110 150,-129"/>
<text text-anchor="middle" x="75" y="-117" font-family="Helvetica,sans-Serif" font-size="10.00">OMSimDetectorComponent</text>
</a>
</g>
</g>
<!-- Node3&#45;&gt;Node2 -->
<g id="edge2_Node000002_Node000003" class="edge">
<title>Node3&#45;&gt;Node2</title>
<g id="a_edge2_Node000002_Node000003"><a xlink:title=" ">
<path fill="none" stroke="#63b8ff" d="M75,-99.66C75,-90.93 75,-80.99 75,-74.09"/>
<polygon fill="#63b8ff" stroke="#63b8ff" points="71.5,-99.75 75,-109.75 78.5,-99.75 71.5,-99.75"/>
</a>
</g>
</g>
</g>
</svg>
