<?xml version="1.0" encoding="UTF-8" standalone="no"?>
<!DOCTYPE svg PUBLIC "-//W3C//DTD SVG 1.1//EN"
 "http://www.w3.org/Graphics/SVG/1.1/DTD/svg11.dtd">
<!-- Generated by graphviz version 2.43.0 (0)
 -->
<!-- Title: OMSimEffectiveAreaDetector Pages: 1 -->
<svg width="296pt" height="209pt"
 viewBox="0.00 0.00 296.00 209.00" xmlns="http://www.w3.org/2000/svg" xmlns:xlink="http://www.w3.org/1999/xlink">
<g id="graph0" class="graph" transform="scale(1 1) rotate(0) translate(4 205)">
<title>OMSimEffectiveAreaDetector</title>
<!-- Node1 -->
<g id="node1" class="node">
<title>Node1</title>
<g id="a_node1"><a xlink:title="Class for detector construction in the effective area simulation.">
<polygon fill="#bfbfbf" stroke="black" points="48,-0.5 48,-19.5 207,-19.5 207,-0.5 48,-0.5"/>
<text text-anchor="middle" x="127.5" y="-7.5" font-family="Helvetica,sans-Serif" font-size="10.00">OMSimEffectiveAreaDetector</text>
</a>
</g>
</g>
<!-- Node2 -->
<g id="node2" class="node">
<title>Node2</title>
<g id="a_node2"><a xlink:href="class_o_m_sim_detector_construction.html" target="_top" xlink:title="Class for detector construction in the effective area simulation.">
<polygon fill="none" stroke="black" points="50,-57.5 50,-76.5 205,-76.5 205,-57.5 50,-57.5"/>
<text text-anchor="middle" x="127.5" y="-64.5" font-family="Helvetica,sans-Serif" font-size="10.00">OMSimDetectorConstruction</text>
</a>
</g>
</g>
<!-- Node2&#45;&gt;Node1 -->
<g id="edge1" class="edge">
<title>Node2&#45;&gt;Node1</title>
<path fill="none" stroke="midnightblue" d="M121.08,-47.42C120.37,-38.05 120.81,-27.14 122.41,-19.71"/>
<polygon fill="midnightblue" stroke="midnightblue" points="117.62,-47.97 122.44,-57.41 124.55,-47.03 117.62,-47.97"/>
</g>
<!-- Node2&#45;&gt;Node1 -->
<g id="edge5" class="edge">
<title>Node2&#45;&gt;Node1</title>
<path fill="none" stroke="midnightblue" d="M133.92,-47.42C134.63,-38.05 134.19,-27.14 132.59,-19.71"/>
<polygon fill="midnightblue" stroke="midnightblue" points="130.45,-47.03 132.56,-57.41 137.38,-47.97 130.45,-47.03"/>
</g>
<!-- Node3 -->
<g id="node3" class="node">
<title>Node3</title>
<g id="a_node3"><a xlink:title=" ">
<polygon fill="none" stroke="#bfbfbf" points="0,-124.5 0,-143.5 163,-143.5 163,-124.5 0,-124.5"/>
<text text-anchor="middle" x="81.5" y="-131.5" font-family="Helvetica,sans-Serif" font-size="10.00">G4VUserDetectorConstruction</text>
</a>
</g>
</g>
<!-- Node3&#45;&gt;Node2 -->
<g id="edge2" class="edge">
<title>Node3&#45;&gt;Node2</title>
<path fill="none" stroke="midnightblue" d="M93.6,-115.9C102.54,-103.27 114.33,-86.6 121.39,-76.63"/>
<polygon fill="midnightblue" stroke="midnightblue" points="90.62,-114.05 87.7,-124.23 96.34,-118.09 90.62,-114.05"/>
</g>
<!-- Node4 -->
<g id="node4" class="node">
<title>Node4</title>
<g id="a_node4"><a xlink:href="class_input_data_manager.html" target="_top" xlink:title="Manages the input data, including parsing and storing material properties.">
<polygon fill="none" stroke="black" points="181,-124.5 181,-143.5 288,-143.5 288,-124.5 181,-124.5"/>
<text text-anchor="middle" x="234.5" y="-131.5" font-family="Helvetica,sans-Serif" font-size="10.00">InputDataManager</text>
</a>
</g>
</g>
<!-- Node4&#45;&gt;Node2 -->
<g id="edge3" class="edge">
<title>Node4&#45;&gt;Node2</title>
<path fill="none" stroke="#9a32cd" stroke-dasharray="5,2" d="M211.36,-118.94C190.17,-106.07 159.48,-87.43 141.7,-76.63"/>
<polygon fill="#9a32cd" stroke="#9a32cd" points="209.71,-122.03 220.07,-124.23 213.34,-116.05 209.71,-122.03"/>
<text text-anchor="middle" x="205" y="-98" font-family="Helvetica,sans-Serif" font-size="10.00"> mData</text>
</g>
<!-- Node5 -->
<g id="node5" class="node">
<title>Node5</title>
<g id="a_node5"><a xlink:href="class_parameter_table.html" target="_top" xlink:title="A utility class for managing JSON&#45;based data tables.">
<polygon fill="none" stroke="black" points="188.5,-181.5 188.5,-200.5 280.5,-200.5 280.5,-181.5 188.5,-181.5"/>
<text text-anchor="middle" x="234.5" y="-188.5" font-family="Helvetica,sans-Serif" font-size="10.00">ParameterTable</text>
</a>
</g>
</g>
<!-- Node5&#45;&gt;Node4 -->
<g id="edge4" class="edge">
<title>Node5&#45;&gt;Node4</title>
<path fill="none" stroke="midnightblue" d="M234.5,-171.12C234.5,-161.82 234.5,-151.06 234.5,-143.71"/>
<polygon fill="midnightblue" stroke="midnightblue" points="231,-171.41 234.5,-181.41 238,-171.41 231,-171.41"/>
</g>
</g>
</svg>
