<?xml version="1.0" encoding="UTF-8" standalone="no"?>
<!DOCTYPE svg PUBLIC "-//W3C//DTD SVG 1.1//EN"
 "http://www.w3.org/Graphics/SVG/1.1/DTD/svg11.dtd">
<!-- Generated by graphviz version 2.43.0 (0)
 -->
<!-- Title: OMSimRadDecaysDetector Pages: 1 -->
<svg width="1216pt" height="114pt"
 viewBox="0.00 0.00 1216.00 114.00" xmlns="http://www.w3.org/2000/svg" xmlns:xlink="http://www.w3.org/1999/xlink">
<g id="graph0" class="graph" transform="scale(1 1) rotate(0) translate(4 110)">
<title>OMSimRadDecaysDetector</title>
<!-- Node1 -->
<g id="Node000001" class="node">
<title>Node1</title>
<g id="a_Node000001"><a xlink:title="Detector construction of radioactive decays simulation.">
<polygon fill="#999999" stroke="#666666" points="1208,-76 1059,-76 1059,-57 1208,-57 1208,-76"/>
<text text-anchor="middle" x="1133.5" y="-64" font-family="Helvetica,sans-Serif" font-size="10.00">OMSimRadDecaysDetector</text>
</a>
</g>
</g>
<!-- Node2 -->
<g id="Node000002" class="node">
<title>Node2</title>
<g id="a_Node000002"><a xlink:href="class_o_m_sim_detector_construction.html" target="_top" xlink:title="Class for detector construction in the effective area simulation.">
<polygon fill="white" stroke="#666666" points="523,-95 368,-95 368,-76 523,-76 523,-95"/>
<text text-anchor="middle" x="445.5" y="-83" font-family="Helvetica,sans-Serif" font-size="10.00">OMSimDetectorConstruction</text>
</a>
</g>
</g>
<!-- Node2&#45;&gt;Node1 -->
<g id="edge1_Node000001_Node000002" class="edge">
<title>Node2&#45;&gt;Node1</title>
<g id="a_edge1_Node000001_Node000002"><a xlink:title=" ">
<path fill="none" stroke="#63b8ff" d="M533.23,-84.3C649.02,-82.51 860.5,-78.56 1041,-71.5 1046.72,-71.28 1052.65,-71.02 1058.6,-70.74"/>
<polygon fill="#63b8ff" stroke="#63b8ff" points="532.95,-80.8 523.01,-84.46 533.06,-87.8 532.95,-80.8"/>
</a>
</g>
</g>
<!-- Node3 -->
<g id="Node000003" class="node">
<title>Node3</title>
<g id="a_Node000003"><a xlink:title=" ">
<polygon fill="white" stroke="#bfbfbf" points="292,-106 129,-106 129,-87 292,-87 292,-106"/>
<text text-anchor="middle" x="210.5" y="-94" font-family="Helvetica,sans-Serif" font-size="10.00">G4VUserDetectorConstruction</text>
</a>
</g>
</g>
<!-- Node3&#45;&gt;Node2 -->
<g id="edge2_Node000002_Node000003" class="edge">
<title>Node3&#45;&gt;Node2</title>
<g id="a_edge2_Node000002_Node000003"><a xlink:title=" ">
<path fill="none" stroke="#63b8ff" d="M302.22,-92.22C323.93,-91.19 346.91,-90.11 367.91,-89.12"/>
<polygon fill="#63b8ff" stroke="#63b8ff" points="301.84,-88.73 292.01,-92.7 302.17,-95.72 301.84,-88.73"/>
</a>
</g>
</g>
<!-- Node4 -->
<g id="Node000004" class="node">
<title>Node4</title>
<g id="a_Node000004"><a xlink:href="class_o_m_sim_input_data.html" target="_top" xlink:title="Manages the input data, including parsing and storing material properties.">
<polygon fill="white" stroke="#666666" points="260.5,-58 160.5,-58 160.5,-39 260.5,-39 260.5,-58"/>
<text text-anchor="middle" x="210.5" y="-46" font-family="Helvetica,sans-Serif" font-size="10.00">OMSimInputData</text>
</a>
</g>
</g>
<!-- Node4&#45;&gt;Node2 -->
<g id="edge3_Node000002_Node000004" class="edge">
<title>Node4&#45;&gt;Node2</title>
<g id="a_edge3_Node000002_Node000004"><a xlink:title=" ">
<path fill="none" stroke="#9a32cd" stroke-dasharray="5,2" d="M270.65,-57.89C305.42,-63.42 349.29,-70.38 384.26,-75.93"/>
<polygon fill="#9a32cd" stroke="#9a32cd" points="271.05,-54.41 260.63,-56.3 269.96,-61.33 271.05,-54.41"/>
</a>
</g>
<text text-anchor="middle" x="330" y="-73.5" font-family="Helvetica,sans-Serif" font-size="10.00" fill="grey"> m_data</text>
</g>
<!-- Node7 -->
<g id="Node000007" class="node">
<title>Node7</title>
<g id="a_Node000007"><a xlink:href="class_o_m_sim_detector_component.html" target="_top" xlink:title="Abstract base class used for constructing detector components.">
<polygon fill="white" stroke="#666666" points="520.5,-46 370.5,-46 370.5,-27 520.5,-27 520.5,-46"/>
<text text-anchor="middle" x="445.5" y="-34" font-family="Helvetica,sans-Serif" font-size="10.00">OMSimDetectorComponent</text>
</a>
</g>
</g>
<!-- Node4&#45;&gt;Node7 -->
<g id="edge7_Node000007_Node000004" class="edge">
<title>Node4&#45;&gt;Node7</title>
<g id="a_edge7_Node000007_Node000004"><a xlink:title=" ">
<path fill="none" stroke="#9a32cd" stroke-dasharray="5,2" d="M270.7,-40.88C283.63,-39.5 297.26,-38.26 310,-37.5 329.58,-36.34 350.79,-35.83 370.46,-35.67"/>
<polygon fill="#9a32cd" stroke="#9a32cd" points="270.07,-37.43 260.51,-42.01 270.84,-44.39 270.07,-37.43"/>
</a>
</g>
<text text-anchor="middle" x="330" y="-40.5" font-family="Helvetica,sans-Serif" font-size="10.00" fill="grey"> m_data</text>
</g>
<!-- Node5 -->
<g id="Node000005" class="node">
<title>Node5</title>
<g id="a_Node000005"><a xlink:href="class_parameter_table.html" target="_top" xlink:title="A utility class for managing JSON&#45;based data tables.">
<polygon fill="white" stroke="#666666" points="92,-58 0,-58 0,-39 92,-39 92,-58"/>
<text text-anchor="middle" x="46" y="-46" font-family="Helvetica,sans-Serif" font-size="10.00">ParameterTable</text>
</a>
</g>
</g>
<!-- Node5&#45;&gt;Node4 -->
<g id="edge4_Node000004_Node000005" class="edge">
<title>Node5&#45;&gt;Node4</title>
<g id="a_edge4_Node000004_Node000005"><a xlink:title=" ">
<path fill="none" stroke="#63b8ff" d="M102.49,-48.5C121.32,-48.5 142.21,-48.5 160.49,-48.5"/>
<polygon fill="#63b8ff" stroke="#63b8ff" points="102.27,-45 92.27,-48.5 102.27,-52 102.27,-45"/>
</a>
</g>
</g>
<!-- Node6 -->
<g id="Node000006" class="node">
<title>Node6</title>
<g id="a_Node000006"><a xlink:href="class_o_m_sim_optical_module.html" target="_top" xlink:title="Base class for OMs works as interface.">
<polygon fill="white" stroke="#666666" points="935,-57 813,-57 813,-38 935,-38 935,-57"/>
<text text-anchor="middle" x="874" y="-45" font-family="Helvetica,sans-Serif" font-size="10.00">OMSimOpticalModule</text>
</a>
</g>
</g>
<!-- Node6&#45;&gt;Node1 -->
<g id="edge5_Node000001_Node000006" class="edge">
<title>Node6&#45;&gt;Node1</title>
<g id="a_edge5_Node000001_Node000006"><a xlink:title=" ">
<path fill="none" stroke="#9a32cd" stroke-dasharray="5,2" d="M945.22,-52.68C980.37,-55.27 1022.9,-58.41 1058.54,-61.04"/>
<polygon fill="#9a32cd" stroke="#9a32cd" points="945.28,-49.18 935.05,-51.93 944.76,-56.16 945.28,-49.18"/>
</a>
</g>
<text text-anchor="middle" x="997" y="-62.5" font-family="Helvetica,sans-Serif" font-size="10.00" fill="grey"> m_opticalModule</text>
</g>
<!-- Node7&#45;&gt;Node6 -->
<g id="edge6_Node000006_Node000007" class="edge">
<title>Node7&#45;&gt;Node6</title>
<g id="a_edge6_Node000006_Node000007"><a xlink:title=" ">
<path fill="none" stroke="#63b8ff" d="M530.98,-38.68C614.25,-40.83 739.4,-44.05 812.97,-45.95"/>
<polygon fill="#63b8ff" stroke="#63b8ff" points="530.88,-35.18 520.79,-38.42 530.7,-42.17 530.88,-35.18"/>
</a>
</g>
</g>
<!-- Node8 -->
<g id="Node000008" class="node">
<title>Node8</title>
<g id="a_Node000008"><a xlink:href="class_o_m_sim_p_m_t_construction.html" target="_top" xlink:title=" ">
<polygon fill="white" stroke="#bfbfbf" points="694,-19 560,-19 560,0 694,0 694,-19"/>
<text text-anchor="middle" x="627" y="-7" font-family="Helvetica,sans-Serif" font-size="10.00">OMSimPMTConstruction</text>
</a>
</g>
</g>
<!-- Node7&#45;&gt;Node8 -->
<g id="edge9_Node000008_Node000007" class="edge">
<title>Node7&#45;&gt;Node8</title>
<g id="a_edge9_Node000008_Node000007"><a xlink:title=" ">
<path fill="none" stroke="#63b8ff" d="M519.98,-25.45C534.15,-23.32 548.87,-21.1 562.68,-19.02"/>
<polygon fill="#63b8ff" stroke="#63b8ff" points="519.15,-22.03 509.78,-26.98 520.19,-28.95 519.15,-22.03"/>
</a>
</g>
</g>
<!-- Node8&#45;&gt;Node6 -->
<g id="edge8_Node000006_Node000008" class="edge">
<title>Node8&#45;&gt;Node6</title>
<g id="a_edge8_Node000006_Node000008"><a xlink:title=" ">
<path fill="none" stroke="#9a32cd" stroke-dasharray="5,2" d="M704.64,-11.72C733.2,-13.53 765.77,-16.76 795,-22.5 813.14,-26.06 832.97,-32.45 848.1,-37.88"/>
<polygon fill="#9a32cd" stroke="#9a32cd" points="704.5,-8.21 694.31,-11.12 704.09,-15.2 704.5,-8.21"/>
</a>
</g>
<text text-anchor="middle" x="753.5" y="-25.5" font-family="Helvetica,sans-Serif" font-size="10.00" fill="grey"> m_managerPMT</text>
</g>
</g>
</svg>
