<?xml version="1.0" encoding="UTF-8" standalone="no"?>
<!DOCTYPE svg PUBLIC "-//W3C//DTD SVG 1.1//EN"
 "http://www.w3.org/Graphics/SVG/1.1/DTD/svg11.dtd">
<!-- Generated by graphviz version 2.43.0 (0)
 -->
<!-- Title: OMSimPrimaryGeneratorMessenger Pages: 1 -->
<svg width="518pt" height="241pt"
 viewBox="0.00 0.00 517.50 241.00" xmlns="http://www.w3.org/2000/svg" xmlns:xlink="http://www.w3.org/1999/xlink">
<g id="graph0" class="graph" transform="scale(1 1) rotate(0) translate(4 237)">
<title>OMSimPrimaryGeneratorMessenger</title>
<!-- Node1 -->
<g id="node1" class="node">
<title>Node1</title>
<g id="a_node1"><a xlink:title=" ">
<polygon fill="#bfbfbf" stroke="black" points="317.5,-67.5 317.5,-86.5 509.5,-86.5 509.5,-67.5 317.5,-67.5"/>
<text text-anchor="middle" x="413.5" y="-74.5" font-family="Helvetica,sans-Serif" font-size="10.00">OMSimPrimaryGeneratorMessenger</text>
</a>
</g>
</g>
<!-- Node3 -->
<g id="node3" class="node">
<title>Node3</title>
<g id="a_node3"><a xlink:href="class_o_m_sim_primary_generator_action.html" target="_top" xlink:title=" ">
<polygon fill="none" stroke="black" points="84.5,-0.5 84.5,-19.5 254.5,-19.5 254.5,-0.5 84.5,-0.5"/>
<text text-anchor="middle" x="169.5" y="-7.5" font-family="Helvetica,sans-Serif" font-size="10.00">OMSimPrimaryGeneratorAction</text>
</a>
</g>
</g>
<!-- Node1&#45;&gt;Node3 -->
<g id="edge11" class="edge">
<title>Node1&#45;&gt;Node3</title>
<path fill="none" stroke="#9a32cd" stroke-dasharray="5,2" d="M364.36,-65.12C346.04,-60.67 325.16,-55.12 306.5,-49 294.19,-44.96 291.82,-42 279.5,-38 256.96,-30.69 231.27,-24.28 210.39,-19.54"/>
<polygon fill="#9a32cd" stroke="#9a32cd" points="363.71,-68.57 374.24,-67.48 365.33,-61.76 363.71,-68.57"/>
<text text-anchor="middle" x="346.5" y="-41" font-family="Helvetica,sans-Serif" font-size="10.00"> fGunMessenger</text>
</g>
<!-- Node2 -->
<g id="node2" class="node">
<title>Node2</title>
<g id="a_node2"><a xlink:title=" ">
<polygon fill="none" stroke="#bfbfbf" points="366,-124.5 366,-143.5 461,-143.5 461,-124.5 366,-124.5"/>
<text text-anchor="middle" x="413.5" y="-131.5" font-family="Helvetica,sans-Serif" font-size="10.00">G4UImessenger</text>
</a>
</g>
</g>
<!-- Node2&#45;&gt;Node1 -->
<g id="edge1" class="edge">
<title>Node2&#45;&gt;Node1</title>
<path fill="none" stroke="midnightblue" d="M413.5,-114.12C413.5,-104.82 413.5,-94.06 413.5,-86.71"/>
<polygon fill="midnightblue" stroke="midnightblue" points="410,-114.41 413.5,-124.41 417,-114.41 410,-114.41"/>
</g>
<!-- Node3&#45;&gt;Node1 -->
<g id="edge2" class="edge">
<title>Node3&#45;&gt;Node1</title>
<path fill="none" stroke="#9a32cd" stroke-dasharray="5,2" d="M264.77,-14.45C314.73,-17.85 369.78,-24.6 390.5,-38 401.12,-44.87 407.57,-58.53 410.84,-67.47"/>
<polygon fill="#9a32cd" stroke="#9a32cd" points="264.73,-10.94 254.53,-13.79 264.28,-17.92 264.73,-10.94"/>
<text text-anchor="middle" x="418.5" y="-41" font-family="Helvetica,sans-Serif" font-size="10.00"> Action</text>
</g>
<!-- Node4 -->
<g id="node4" class="node">
<title>Node4</title>
<g id="a_node4"><a xlink:title=" ">
<polygon fill="none" stroke="#bfbfbf" points="0,-213.5 0,-232.5 177,-232.5 177,-213.5 0,-213.5"/>
<text text-anchor="middle" x="88.5" y="-220.5" font-family="Helvetica,sans-Serif" font-size="10.00">G4VUserPrimaryGeneratorAction</text>
</a>
</g>
</g>
<!-- Node4&#45;&gt;Node3 -->
<g id="edge3" class="edge">
<title>Node4&#45;&gt;Node3</title>
<path fill="none" stroke="midnightblue" d="M79.08,-203.21C75.88,-173.14 85.3,-112.94 107.5,-67 116.54,-48.3 132.66,-30.02 147.77,-19.67"/>
<polygon fill="midnightblue" stroke="midnightblue" points="75.67,-203.97 80.93,-213.16 82.55,-202.69 75.67,-203.97"/>
</g>
<!-- Node4&#45;&gt;Node3 -->
<g id="edge4" class="edge">
<title>Node4&#45;&gt;Node3</title>
<path fill="none" stroke="midnightblue" d="M90.35,-203.21C93.88,-173.14 103.3,-112.94 125.5,-67 134.54,-48.3 150.66,-30.02 160.68,-19.67"/>
<polygon fill="midnightblue" stroke="midnightblue" points="86.87,-202.84 89.27,-213.16 93.83,-203.6 86.87,-202.84"/>
</g>
<!-- Node4&#45;&gt;Node3 -->
<g id="edge5" class="edge">
<title>Node4&#45;&gt;Node3</title>
<path fill="none" stroke="midnightblue" d="M101.49,-203.6C111.8,-173.67 121.2,-113.15 143.5,-67 152.54,-48.3 168.66,-30.02 173.59,-19.67"/>
<polygon fill="midnightblue" stroke="midnightblue" points="98.12,-202.58 97.62,-213.16 104.61,-205.2 98.12,-202.58"/>
</g>
<!-- Node6 -->
<g id="node6" class="node">
<title>Node6</title>
<g id="a_node6"><a xlink:href="class_s_n_base_particle_generator.html" target="_top" xlink:title=" ">
<polygon fill="none" stroke="black" points="183,-124.5 183,-143.5 322,-143.5 322,-124.5 183,-124.5"/>
<text text-anchor="middle" x="252.5" y="-131.5" font-family="Helvetica,sans-Serif" font-size="10.00">SNBaseParticleGenerator</text>
</a>
</g>
</g>
<!-- Node4&#45;&gt;Node6 -->
<g id="edge8" class="edge">
<title>Node4&#45;&gt;Node6</title>
<path fill="none" stroke="midnightblue" d="M113.37,-208.81C147.35,-190.78 207.36,-158.95 236.17,-143.66"/>
<polygon fill="midnightblue" stroke="midnightblue" points="111.72,-205.72 104.52,-213.5 115,-211.91 111.72,-205.72"/>
</g>
<!-- Node5 -->
<g id="node5" class="node">
<title>Node5</title>
<g id="a_node5"><a xlink:href="class_o_m_sim_i_b_d.html" target="_top" xlink:title="Class in charge of generating positrons from IBD of supernova antineutrino interactions.">
<polygon fill="none" stroke="black" points="135,-67.5 135,-86.5 204,-86.5 204,-67.5 135,-67.5"/>
<text text-anchor="middle" x="169.5" y="-74.5" font-family="Helvetica,sans-Serif" font-size="10.00">OMSimIBD</text>
</a>
</g>
</g>
<!-- Node5&#45;&gt;Node3 -->
<g id="edge6" class="edge">
<title>Node5&#45;&gt;Node3</title>
<path fill="none" stroke="#9a32cd" stroke-dasharray="5,2" d="M169.5,-57.04C169.5,-44.67 169.5,-29.12 169.5,-19.63"/>
<polygon fill="#9a32cd" stroke="#9a32cd" points="166,-57.23 169.5,-67.23 173,-57.23 166,-57.23"/>
<text text-anchor="middle" x="191.5" y="-41" font-family="Helvetica,sans-Serif" font-size="10.00"> fAction0</text>
</g>
<!-- Node6&#45;&gt;Node5 -->
<g id="edge7" class="edge">
<title>Node6&#45;&gt;Node5</title>
<path fill="none" stroke="midnightblue" d="M231.11,-118.82C215.69,-108.61 195.38,-95.15 182.38,-86.53"/>
<polygon fill="midnightblue" stroke="midnightblue" points="229.26,-121.8 239.53,-124.41 233.13,-115.96 229.26,-121.8"/>
</g>
<!-- Node9 -->
<g id="node9" class="node">
<title>Node9</title>
<g id="a_node9"><a xlink:href="class_o_m_sim_e_n_e_s.html" target="_top" xlink:title="Class in charge of generating electrons from Electron&#45;electron_Neutrino Elastic Scattering (ENES) nu_...">
<polygon fill="none" stroke="black" points="222,-67.5 222,-86.5 299,-86.5 299,-67.5 222,-67.5"/>
<text text-anchor="middle" x="260.5" y="-74.5" font-family="Helvetica,sans-Serif" font-size="10.00">OMSimENES</text>
</a>
</g>
</g>
<!-- Node6&#45;&gt;Node9 -->
<g id="edge13" class="edge">
<title>Node6&#45;&gt;Node9</title>
<path fill="none" stroke="midnightblue" d="M255.2,-114.42C256.56,-105.05 258.15,-94.14 259.23,-86.71"/>
<polygon fill="midnightblue" stroke="midnightblue" points="251.73,-114.01 253.75,-124.41 258.65,-115.01 251.73,-114.01"/>
</g>
<!-- Node7 -->
<g id="node7" class="node">
<title>Node7</title>
<g id="a_node7"><a xlink:href="class_distribution_sampler.html" target="_top" xlink:title="Utility class for sampling from a given distribution using the inverse cumulative function and interp...">
<polygon fill="none" stroke="black" points="195.5,-213.5 195.5,-232.5 309.5,-232.5 309.5,-213.5 195.5,-213.5"/>
<text text-anchor="middle" x="252.5" y="-220.5" font-family="Helvetica,sans-Serif" font-size="10.00">DistributionSampler</text>
</a>
</g>
</g>
<!-- Node7&#45;&gt;Node6 -->
<g id="edge9" class="edge">
<title>Node7&#45;&gt;Node6</title>
<path fill="none" stroke="#9a32cd" stroke-dasharray="5,2" d="M252.5,-203.19C252.5,-184.74 252.5,-157.41 252.5,-143.62"/>
<polygon fill="#9a32cd" stroke="#9a32cd" points="249,-203.34 252.5,-213.34 256,-203.34 249,-203.34"/>
<text text-anchor="middle" x="336.5" y="-187" font-family="Helvetica,sans-Serif" font-size="10.00"> mMeanEnergyDistribution</text>
<text text-anchor="middle" x="336.5" y="-176" font-family="Helvetica,sans-Serif" font-size="10.00">mMeanEnergySquaredDistribution</text>
<text text-anchor="middle" x="336.5" y="-165" font-family="Helvetica,sans-Serif" font-size="10.00">mTimeDistribution</text>
</g>
<!-- Node8 -->
<g id="node8" class="node">
<title>Node8</title>
<g id="a_node8"><a xlink:href="class_o_m_sim_s_n_tools.html" target="_top" xlink:title="Provides utility methods for generating ENES and IBD interactions.">
<polygon fill="none" stroke="black" points="398.5,-213.5 398.5,-232.5 488.5,-232.5 488.5,-213.5 398.5,-213.5"/>
<text text-anchor="middle" x="443.5" y="-220.5" font-family="Helvetica,sans-Serif" font-size="10.00">OMSimSNTools</text>
</a>
</g>
</g>
<!-- Node8&#45;&gt;Node6 -->
<g id="edge10" class="edge">
<title>Node8&#45;&gt;Node6</title>
<path fill="none" stroke="#9a32cd" stroke-dasharray="5,2" d="M441.54,-202.91C439.11,-189.43 433.68,-172.03 421.5,-162 413.59,-155.48 365.1,-148.15 322.07,-142.77"/>
<polygon fill="#9a32cd" stroke="#9a32cd" points="438.11,-203.65 442.96,-213.08 445.04,-202.69 438.11,-203.65"/>
<text text-anchor="middle" x="472" y="-176" font-family="Helvetica,sans-Serif" font-size="10.00"> mSNToolBox</text>
</g>
<!-- Node9&#45;&gt;Node3 -->
<g id="edge12" class="edge">
<title>Node9&#45;&gt;Node3</title>
<path fill="none" stroke="#9a32cd" stroke-dasharray="5,2" d="M244.14,-60.08C236.39,-52.92 226.8,-44.61 217.5,-38 207.84,-31.13 196.27,-24.58 186.92,-19.65"/>
<polygon fill="#9a32cd" stroke="#9a32cd" points="242.07,-62.93 251.74,-67.26 246.88,-57.84 242.07,-62.93"/>
<text text-anchor="middle" x="253.5" y="-41" font-family="Helvetica,sans-Serif" font-size="10.00"> fAction1</text>
</g>
</g>
</svg>
