<?xml version="1.0" encoding="UTF-8" standalone="no"?>
<!DOCTYPE svg PUBLIC "-//W3C//DTD SVG 1.1//EN"
 "http://www.w3.org/Graphics/SVG/1.1/DTD/svg11.dtd">
<!-- Generated by graphviz version 2.43.0 (0)
 -->
<!-- Title: abcDetectorComponent Pages: 1 -->
<svg width="396pt" height="256pt"
 viewBox="0.00 0.00 396.00 256.00" xmlns="http://www.w3.org/2000/svg" xmlns:xlink="http://www.w3.org/1999/xlink">
<g id="graph0" class="graph" transform="scale(1 1) rotate(0) translate(4 252)">
<title>abcDetectorComponent</title>
<polygon fill="white" stroke="transparent" points="-4,4 -4,-252 392,-252 392,4 -4,4"/>
<!-- Node1 -->
<g id="node1" class="node">
<title>Node1</title>
<g id="a_node1"><a xlink:title="Abstract base class used for constructing detector components.">
<polygon fill="#bfbfbf" stroke="black" points="0,-114.5 0,-133.5 132,-133.5 132,-114.5 0,-114.5"/>
<text text-anchor="middle" x="66" y="-121.5" font-family="Helvetica,sans-Serif" font-size="10.00">abcDetectorComponent</text>
</a>
</g>
</g>
<!-- Node2 -->
<g id="node2" class="node">
<title>Node2</title>
<g id="a_node2"><a xlink:href="class_cs137_source.html" target="_top" xlink:title=" ">
<polygon fill="white" stroke="black" points="195,-228.5 195,-247.5 275,-247.5 275,-228.5 195,-228.5"/>
<text text-anchor="middle" x="235" y="-235.5" font-family="Helvetica,sans-Serif" font-size="10.00">Cs137Source</text>
</a>
</g>
</g>
<!-- Node1&#45;&gt;Node2 -->
<g id="edge1" class="edge">
<title>Node1&#45;&gt;Node2</title>
<path fill="none" stroke="#8b1a1a" d="M81.06,-141.58C99.03,-162.93 132.15,-198.59 168,-219 176.19,-223.66 185.6,-227.25 194.72,-230"/>
<polygon fill="#8b1a1a" stroke="#8b1a1a" points="83.58,-139.15 74.52,-133.66 78.18,-143.6 83.58,-139.15"/>
</g>
<!-- Node3 -->
<g id="node3" class="node">
<title>Node3</title>
<g id="a_node3"><a xlink:href="class_d_egg_harness.html" target="_top" xlink:title=" ">
<polygon fill="white" stroke="black" points="194,-190.5 194,-209.5 276,-209.5 276,-190.5 194,-190.5"/>
<text text-anchor="middle" x="235" y="-197.5" font-family="Helvetica,sans-Serif" font-size="10.00">DEggHarness</text>
</a>
</g>
</g>
<!-- Node1&#45;&gt;Node3 -->
<g id="edge2" class="edge">
<title>Node1&#45;&gt;Node3</title>
<path fill="none" stroke="midnightblue" d="M90.2,-139.16C110.18,-151.71 140.11,-169.3 168,-181 176.58,-184.6 186.05,-187.77 195.09,-190.43"/>
<polygon fill="midnightblue" stroke="midnightblue" points="91.82,-136.05 81.5,-133.63 88.06,-141.95 91.82,-136.05"/>
</g>
<!-- Node4 -->
<g id="node4" class="node">
<title>Node4</title>
<g id="a_node4"><a xlink:href="class_o_m_sim_optical_module.html" target="_top" xlink:title="Base class for OMs works as interface.">
<polygon fill="white" stroke="black" points="174,-152.5 174,-171.5 296,-171.5 296,-152.5 174,-152.5"/>
<text text-anchor="middle" x="235" y="-159.5" font-family="Helvetica,sans-Serif" font-size="10.00">OMSimOpticalModule</text>
</a>
</g>
</g>
<!-- Node1&#45;&gt;Node4 -->
<g id="edge3" class="edge">
<title>Node1&#45;&gt;Node4</title>
<path fill="none" stroke="midnightblue" d="M118.96,-135.82C142.51,-141.18 169.97,-147.43 192.16,-152.48"/>
<polygon fill="midnightblue" stroke="midnightblue" points="119.67,-132.4 109.14,-133.59 118.12,-139.22 119.67,-132.4"/>
</g>
<!-- Node10 -->
<g id="node10" class="node">
<title>Node10</title>
<g id="a_node10"><a xlink:href="class_o_m_sim_p_m_t_construction.html" target="_top" xlink:title=" ">
<polygon fill="white" stroke="black" points="168,-114.5 168,-133.5 302,-133.5 302,-114.5 168,-114.5"/>
<text text-anchor="middle" x="235" y="-121.5" font-family="Helvetica,sans-Serif" font-size="10.00">OMSimPMTConstruction</text>
</a>
</g>
</g>
<!-- Node1&#45;&gt;Node10 -->
<g id="edge9" class="edge">
<title>Node1&#45;&gt;Node10</title>
<path fill="none" stroke="midnightblue" d="M142.31,-124C150.8,-124 159.4,-124 167.76,-124"/>
<polygon fill="midnightblue" stroke="midnightblue" points="142.04,-120.5 132.04,-124 142.04,-127.5 142.04,-120.5"/>
</g>
<!-- Node11 -->
<g id="node11" class="node">
<title>Node11</title>
<g id="a_node11"><a xlink:href="class_okamoto_large_sample.html" target="_top" xlink:title=" ">
<polygon fill="white" stroke="black" points="172.5,-76.5 172.5,-95.5 297.5,-95.5 297.5,-76.5 172.5,-76.5"/>
<text text-anchor="middle" x="235" y="-83.5" font-family="Helvetica,sans-Serif" font-size="10.00">OkamotoLargeSample</text>
</a>
</g>
</g>
<!-- Node1&#45;&gt;Node11 -->
<g id="edge10" class="edge">
<title>Node1&#45;&gt;Node11</title>
<path fill="none" stroke="#8b1a1a" d="M118.96,-112.18C142.51,-106.82 169.97,-100.57 192.16,-95.52"/>
<polygon fill="#8b1a1a" stroke="#8b1a1a" points="118.12,-108.78 109.14,-114.41 119.67,-115.6 118.12,-108.78"/>
</g>
<!-- Node12 -->
<g id="node12" class="node">
<title>Node12</title>
<g id="a_node12"><a xlink:href="classm_d_o_m_flasher.html" target="_top" xlink:title="The mDOMFlasher class represents the 10 flashers in an mDOM optical module.">
<polygon fill="white" stroke="black" points="192,-38.5 192,-57.5 278,-57.5 278,-38.5 192,-38.5"/>
<text text-anchor="middle" x="235" y="-45.5" font-family="Helvetica,sans-Serif" font-size="10.00">mDOMFlasher</text>
</a>
</g>
</g>
<!-- Node1&#45;&gt;Node12 -->
<g id="edge11" class="edge">
<title>Node1&#45;&gt;Node12</title>
<path fill="none" stroke="midnightblue" d="M90.2,-108.84C110.18,-96.29 140.11,-78.7 168,-67 176.58,-63.4 186.05,-60.23 195.09,-57.57"/>
<polygon fill="midnightblue" stroke="midnightblue" points="88.06,-106.05 81.5,-114.37 91.82,-111.95 88.06,-106.05"/>
</g>
<!-- Node13 -->
<g id="node13" class="node">
<title>Node13</title>
<g id="a_node13"><a xlink:href="classm_d_o_m_harness.html" target="_top" xlink:title=" ">
<polygon fill="white" stroke="black" points="190,-0.5 190,-19.5 280,-19.5 280,-0.5 190,-0.5"/>
<text text-anchor="middle" x="235" y="-7.5" font-family="Helvetica,sans-Serif" font-size="10.00">mDOMHarness</text>
</a>
</g>
</g>
<!-- Node1&#45;&gt;Node13 -->
<g id="edge12" class="edge">
<title>Node1&#45;&gt;Node13</title>
<path fill="none" stroke="midnightblue" d="M81.06,-106.42C99.03,-85.07 132.15,-49.41 168,-29 174.74,-25.17 182.31,-22.05 189.85,-19.54"/>
<polygon fill="midnightblue" stroke="midnightblue" points="78.18,-104.4 74.52,-114.34 83.58,-108.85 78.18,-104.4"/>
</g>
<!-- Node5 -->
<g id="node5" class="node">
<title>Node5</title>
<g id="a_node5"><a xlink:href="class_d_e_g_g.html" target="_top" xlink:title="Construction of the DEGG detector geometry.">
<polygon fill="white" stroke="black" points="340.5,-228.5 340.5,-247.5 385.5,-247.5 385.5,-228.5 340.5,-228.5"/>
<text text-anchor="middle" x="363" y="-235.5" font-family="Helvetica,sans-Serif" font-size="10.00">DEGG</text>
</a>
</g>
</g>
<!-- Node4&#45;&gt;Node5 -->
<g id="edge4" class="edge">
<title>Node4&#45;&gt;Node5</title>
<path fill="none" stroke="midnightblue" d="M290.71,-175.2C294.64,-176.91 298.45,-178.84 302,-181 321.88,-193.09 320.84,-203.3 338,-219 341.45,-222.16 345.36,-225.39 349.02,-228.27"/>
<polygon fill="midnightblue" stroke="midnightblue" points="291.97,-171.94 281.38,-171.58 289.43,-178.46 291.97,-171.94"/>
</g>
<!-- Node6 -->
<g id="node6" class="node">
<title>Node6</title>
<g id="a_node6"><a xlink:href="class_l_o_m16.html" target="_top" xlink:title=" ">
<polygon fill="white" stroke="black" points="338,-190.5 338,-209.5 388,-209.5 388,-190.5 338,-190.5"/>
<text text-anchor="middle" x="363" y="-197.5" font-family="Helvetica,sans-Serif" font-size="10.00">LOM16</text>
</a>
</g>
</g>
<!-- Node4&#45;&gt;Node6 -->
<g id="edge5" class="edge">
<title>Node4&#45;&gt;Node6</title>
<path fill="none" stroke="midnightblue" d="M279.62,-174.38C287.09,-176.55 294.78,-178.82 302,-181 313.82,-184.57 326.89,-188.69 337.81,-192.18"/>
<polygon fill="midnightblue" stroke="midnightblue" points="280.54,-171.01 269.97,-171.59 278.6,-177.73 280.54,-171.01"/>
</g>
<!-- Node7 -->
<g id="node7" class="node">
<title>Node7</title>
<g id="a_node7"><a xlink:href="class_l_o_m18.html" target="_top" xlink:title=" ">
<polygon fill="white" stroke="black" points="338,-152.5 338,-171.5 388,-171.5 388,-152.5 338,-152.5"/>
<text text-anchor="middle" x="363" y="-159.5" font-family="Helvetica,sans-Serif" font-size="10.00">LOM18</text>
</a>
</g>
</g>
<!-- Node4&#45;&gt;Node7 -->
<g id="edge6" class="edge">
<title>Node4&#45;&gt;Node7</title>
<path fill="none" stroke="midnightblue" d="M306.12,-162C317.54,-162 328.64,-162 337.9,-162"/>
<polygon fill="midnightblue" stroke="midnightblue" points="306.05,-158.5 296.05,-162 306.05,-165.5 306.05,-158.5"/>
</g>
<!-- Node8 -->
<g id="node8" class="node">
<title>Node8</title>
<g id="a_node8"><a xlink:href="classm_d_o_m.html" target="_top" xlink:title=" ">
<polygon fill="white" stroke="black" points="338,-114.5 338,-133.5 388,-133.5 388,-114.5 338,-114.5"/>
<text text-anchor="middle" x="363" y="-121.5" font-family="Helvetica,sans-Serif" font-size="10.00">mDOM</text>
</a>
</g>
</g>
<!-- Node4&#45;&gt;Node8 -->
<g id="edge7" class="edge">
<title>Node4&#45;&gt;Node8</title>
<path fill="none" stroke="midnightblue" d="M279.62,-149.62C287.09,-147.45 294.78,-145.18 302,-143 313.82,-139.43 326.89,-135.31 337.81,-131.82"/>
<polygon fill="midnightblue" stroke="midnightblue" points="278.6,-146.27 269.97,-152.41 280.54,-152.99 278.6,-146.27"/>
</g>
<!-- Node9 -->
<g id="node9" class="node">
<title>Node9</title>
<g id="a_node9"><a xlink:href="classp_d_o_m.html" target="_top" xlink:title="pDOM class represents the construction of pDOM/Gen1 DOM.">
<polygon fill="white" stroke="black" points="339.5,-76.5 339.5,-95.5 386.5,-95.5 386.5,-76.5 339.5,-76.5"/>
<text text-anchor="middle" x="363" y="-83.5" font-family="Helvetica,sans-Serif" font-size="10.00">pDOM</text>
</a>
</g>
</g>
<!-- Node4&#45;&gt;Node9 -->
<g id="edge8" class="edge">
<title>Node4&#45;&gt;Node9</title>
<path fill="none" stroke="midnightblue" d="M290.71,-148.8C294.64,-147.09 298.45,-145.16 302,-143 321.88,-130.91 320.84,-120.7 338,-105 341.45,-101.84 345.36,-98.61 349.02,-95.73"/>
<polygon fill="midnightblue" stroke="midnightblue" points="289.43,-145.54 281.38,-152.42 291.97,-152.06 289.43,-145.54"/>
</g>
</g>
</svg>
