<?xml version="1.0" encoding="UTF-8" standalone="no"?>
<!DOCTYPE svg PUBLIC "-//W3C//DTD SVG 1.1//EN"
 "http://www.w3.org/Graphics/SVG/1.1/DTD/svg11.dtd">
<!-- Generated by graphviz version 2.43.0 (0)
 -->
<!-- Title: DEggHarness Pages: 1 -->
<svg width="289pt" height="333pt"
 viewBox="0.00 0.00 288.74 333.00" xmlns="http://www.w3.org/2000/svg" xmlns:xlink="http://www.w3.org/1999/xlink">
<g id="graph0" class="graph" transform="scale(1 1) rotate(0) translate(4 329)">
<title>DEggHarness</title>
<!-- Node1 -->
<g id="node1" class="node">
<title>Node1</title>
<g id="a_node1"><a xlink:title=" ">
<polygon fill="#bfbfbf" stroke="black" points="8.74,-124.5 8.74,-143.5 90.74,-143.5 90.74,-124.5 8.74,-124.5"/>
<text text-anchor="middle" x="49.74" y="-131.5" font-family="Helvetica,sans-Serif" font-size="10.00">DEggHarness</text>
</a>
</g>
</g>
<!-- Node5 -->
<g id="node5" class="node">
<title>Node5</title>
<g id="a_node5"><a xlink:href="class_d_e_g_g.html" target="_top" xlink:title="Construction of the DEGG detector geometry.">
<polygon fill="none" stroke="black" points="49.24,-0.5 49.24,-19.5 94.24,-19.5 94.24,-0.5 49.24,-0.5"/>
<text text-anchor="middle" x="71.74" y="-7.5" font-family="Helvetica,sans-Serif" font-size="10.00">DEGG</text>
</a>
</g>
</g>
<!-- Node1&#45;&gt;Node5 -->
<g id="edge9" class="edge">
<title>Node1&#45;&gt;Node5</title>
<path fill="none" stroke="#9a32cd" stroke-dasharray="5,2" d="M29.69,-117.61C12.54,-102.47 -7.7,-78.54 3.74,-57 13.23,-39.12 33.11,-26.93 48.94,-19.61"/>
<polygon fill="#9a32cd" stroke="#9a32cd" points="27.79,-120.58 37.71,-124.29 32.27,-115.2 27.79,-120.58"/>
<text text-anchor="middle" x="30.24" y="-64.5" font-family="Helvetica,sans-Serif" font-size="10.00"> mHarness</text>
</g>
<!-- Node2 -->
<g id="node2" class="node">
<title>Node2</title>
<g id="a_node2"><a xlink:href="classabc_detector_component.html" target="_top" xlink:title="Abstract base class used for constructing detector components.">
<polygon fill="none" stroke="black" points="52.74,-181.5 52.74,-200.5 184.74,-200.5 184.74,-181.5 52.74,-181.5"/>
<text text-anchor="middle" x="118.74" y="-188.5" font-family="Helvetica,sans-Serif" font-size="10.00">abcDetectorComponent</text>
</a>
</g>
</g>
<!-- Node2&#45;&gt;Node1 -->
<g id="edge1" class="edge">
<title>Node2&#45;&gt;Node1</title>
<path fill="none" stroke="midnightblue" d="M99.92,-175C87.33,-164.96 71.2,-152.1 60.67,-143.71"/>
<polygon fill="midnightblue" stroke="midnightblue" points="97.96,-177.91 107.96,-181.41 102.32,-172.44 97.96,-177.91"/>
</g>
<!-- Node6 -->
<g id="node6" class="node">
<title>Node6</title>
<g id="a_node6"><a xlink:href="class_o_m_sim_optical_module.html" target="_top" xlink:title="Base class for OMs works as interface.">
<polygon fill="none" stroke="black" points="119.74,-57.5 119.74,-76.5 241.74,-76.5 241.74,-57.5 119.74,-57.5"/>
<text text-anchor="middle" x="180.74" y="-64.5" font-family="Helvetica,sans-Serif" font-size="10.00">OMSimOpticalModule</text>
</a>
</g>
</g>
<!-- Node2&#45;&gt;Node6 -->
<g id="edge6" class="edge">
<title>Node2&#45;&gt;Node6</title>
<path fill="none" stroke="midnightblue" d="M122.13,-171.44C125.08,-157.82 130.1,-139.13 137.74,-124 147.02,-105.62 162.64,-87.24 172.28,-76.79"/>
<polygon fill="midnightblue" stroke="midnightblue" points="118.65,-171.01 120.13,-181.5 125.52,-172.38 118.65,-171.01"/>
</g>
<!-- Node7 -->
<g id="node7" class="node">
<title>Node7</title>
<g id="a_node7"><a xlink:href="class_o_m_sim_p_m_t_construction.html" target="_top" xlink:title=" ">
<polygon fill="none" stroke="black" points="146.74,-124.5 146.74,-143.5 280.74,-143.5 280.74,-124.5 146.74,-124.5"/>
<text text-anchor="middle" x="213.74" y="-131.5" font-family="Helvetica,sans-Serif" font-size="10.00">OMSimPMTConstruction</text>
</a>
</g>
</g>
<!-- Node2&#45;&gt;Node7 -->
<g id="edge8" class="edge">
<title>Node2&#45;&gt;Node7</title>
<path fill="none" stroke="midnightblue" d="M142.24,-176.39C160,-166.11 183.84,-152.31 199,-143.53"/>
<polygon fill="midnightblue" stroke="midnightblue" points="140.48,-173.37 133.58,-181.41 143.99,-179.42 140.48,-173.37"/>
</g>
<!-- Node3 -->
<g id="node3" class="node">
<title>Node3</title>
<g id="a_node3"><a xlink:href="class_o_m_sim_input_data.html" target="_top" xlink:title="Manages the input data, including parsing and storing material properties.">
<polygon fill="none" stroke="black" points="68.74,-248.5 68.74,-267.5 168.74,-267.5 168.74,-248.5 68.74,-248.5"/>
<text text-anchor="middle" x="118.74" y="-255.5" font-family="Helvetica,sans-Serif" font-size="10.00">OMSimInputData</text>
</a>
</g>
</g>
<!-- Node3&#45;&gt;Node2 -->
<g id="edge2" class="edge">
<title>Node3&#45;&gt;Node2</title>
<path fill="none" stroke="#9a32cd" stroke-dasharray="5,2" d="M118.74,-238.04C118.74,-225.67 118.74,-210.12 118.74,-200.63"/>
<polygon fill="#9a32cd" stroke="#9a32cd" points="115.24,-238.23 118.74,-248.23 122.24,-238.23 115.24,-238.23"/>
<text text-anchor="middle" x="137.24" y="-222" font-family="Helvetica,sans-Serif" font-size="10.00"> mData</text>
</g>
<!-- Node4 -->
<g id="node4" class="node">
<title>Node4</title>
<g id="a_node4"><a xlink:href="class_parameter_table.html" target="_top" xlink:title="A utility class for managing JSON&#45;based data tables.">
<polygon fill="none" stroke="black" points="72.74,-305.5 72.74,-324.5 164.74,-324.5 164.74,-305.5 72.74,-305.5"/>
<text text-anchor="middle" x="118.74" y="-312.5" font-family="Helvetica,sans-Serif" font-size="10.00">ParameterTable</text>
</a>
</g>
</g>
<!-- Node4&#45;&gt;Node3 -->
<g id="edge3" class="edge">
<title>Node4&#45;&gt;Node3</title>
<path fill="none" stroke="midnightblue" d="M118.74,-295.12C118.74,-285.82 118.74,-275.06 118.74,-267.71"/>
<polygon fill="midnightblue" stroke="midnightblue" points="115.24,-295.41 118.74,-305.41 122.24,-295.41 115.24,-295.41"/>
</g>
<!-- Node5&#45;&gt;Node1 -->
<g id="edge4" class="edge">
<title>Node5&#45;&gt;Node1</title>
<path fill="none" stroke="#9a32cd" stroke-dasharray="5,2" d="M68.37,-29.7C63.54,-56.44 54.87,-104.53 51.32,-124.23"/>
<polygon fill="#9a32cd" stroke="#9a32cd" points="71.84,-30.16 70.17,-19.69 64.95,-28.91 71.84,-30.16"/>
<text text-anchor="middle" x="78.74" y="-64.5" font-family="Helvetica,sans-Serif" font-size="10.00"> mOM</text>
</g>
<!-- Node6&#45;&gt;Node5 -->
<g id="edge5" class="edge">
<title>Node6&#45;&gt;Node5</title>
<path fill="none" stroke="midnightblue" d="M154.61,-52.82C134.15,-42.49 106.28,-28.43 88.65,-19.53"/>
<polygon fill="midnightblue" stroke="midnightblue" points="153.2,-56.03 163.71,-57.41 156.36,-49.78 153.2,-56.03"/>
</g>
<!-- Node7&#45;&gt;Node6 -->
<g id="edge7" class="edge">
<title>Node7&#45;&gt;Node6</title>
<path fill="none" stroke="#9a32cd" stroke-dasharray="5,2" d="M204.68,-115.16C198.32,-102.63 190.08,-86.41 185.12,-76.63"/>
<polygon fill="#9a32cd" stroke="#9a32cd" points="201.64,-116.9 209.29,-124.23 207.88,-113.73 201.64,-116.9"/>
<text text-anchor="middle" x="237.24" y="-98" font-family="Helvetica,sans-Serif" font-size="10.00"> mPMTManager</text>
</g>
</g>
</svg>
