<?xml version="1.0" encoding="UTF-8" standalone="no"?>
<!DOCTYPE svg PUBLIC "-//W3C//DTD SVG 1.1//EN"
 "http://www.w3.org/Graphics/SVG/1.1/DTD/svg11.dtd">
<!-- Generated by graphviz version 2.43.0 (0)
 -->
<!-- Title: LOM18 Pages: 1 -->
<svg width="224pt" height="333pt"
 viewBox="0.00 0.00 224.00 333.00" xmlns="http://www.w3.org/2000/svg" xmlns:xlink="http://www.w3.org/1999/xlink">
<g id="graph0" class="graph" transform="scale(1 1) rotate(0) translate(4 329)">
<title>LOM18</title>
<!-- Node1 -->
<g id="node1" class="node">
<title>Node1</title>
<g id="a_node1"><a xlink:title=" ">
<polygon fill="#bfbfbf" stroke="black" points="45,-0.5 45,-19.5 95,-19.5 95,-0.5 45,-0.5"/>
<text text-anchor="middle" x="70" y="-7.5" font-family="Helvetica,sans-Serif" font-size="10.00">LOM18</text>
</a>
</g>
</g>
<!-- Node2 -->
<g id="node2" class="node">
<title>Node2</title>
<g id="a_node2"><a xlink:href="class_o_m_sim_optical_module.html" target="_top" xlink:title="Base class for OMs works as interface.">
<polygon fill="none" stroke="black" points="9,-57.5 9,-76.5 131,-76.5 131,-57.5 9,-57.5"/>
<text text-anchor="middle" x="70" y="-64.5" font-family="Helvetica,sans-Serif" font-size="10.00">OMSimOpticalModule</text>
</a>
</g>
</g>
<!-- Node2&#45;&gt;Node1 -->
<g id="edge1" class="edge">
<title>Node2&#45;&gt;Node1</title>
<path fill="none" stroke="midnightblue" d="M70,-47.12C70,-37.82 70,-27.06 70,-19.71"/>
<polygon fill="midnightblue" stroke="midnightblue" points="66.5,-47.41 70,-57.41 73.5,-47.41 66.5,-47.41"/>
</g>
<!-- Node3 -->
<g id="node3" class="node">
<title>Node3</title>
<g id="a_node3"><a xlink:href="classabc_detector_component.html" target="_top" xlink:title="Abstract base class used for constructing detector components.">
<polygon fill="none" stroke="black" points="0,-181.5 0,-200.5 132,-200.5 132,-181.5 0,-181.5"/>
<text text-anchor="middle" x="66" y="-188.5" font-family="Helvetica,sans-Serif" font-size="10.00">abcDetectorComponent</text>
</a>
</g>
</g>
<!-- Node3&#45;&gt;Node2 -->
<g id="edge2" class="edge">
<title>Node3&#45;&gt;Node2</title>
<path fill="none" stroke="midnightblue" d="M66.62,-171.19C67.5,-144.4 69.07,-96.31 69.71,-76.69"/>
<polygon fill="midnightblue" stroke="midnightblue" points="63.12,-171.12 66.29,-181.23 70.11,-171.35 63.12,-171.12"/>
</g>
<!-- Node6 -->
<g id="node6" class="node">
<title>Node6</title>
<g id="a_node6"><a xlink:href="class_o_m_sim_p_m_t_construction.html" target="_top" xlink:title=" ">
<polygon fill="none" stroke="black" points="82,-124.5 82,-143.5 216,-143.5 216,-124.5 82,-124.5"/>
<text text-anchor="middle" x="149" y="-131.5" font-family="Helvetica,sans-Serif" font-size="10.00">OMSimPMTConstruction</text>
</a>
</g>
</g>
<!-- Node3&#45;&gt;Node6 -->
<g id="edge6" class="edge">
<title>Node3&#45;&gt;Node6</title>
<path fill="none" stroke="midnightblue" d="M87.39,-175.82C102.81,-165.61 123.12,-152.15 136.12,-143.53"/>
<polygon fill="midnightblue" stroke="midnightblue" points="85.37,-172.96 78.97,-181.41 89.24,-178.8 85.37,-172.96"/>
</g>
<!-- Node4 -->
<g id="node4" class="node">
<title>Node4</title>
<g id="a_node4"><a xlink:href="class_o_m_sim_input_data.html" target="_top" xlink:title="Manages the input data, including parsing and storing material properties.">
<polygon fill="none" stroke="black" points="16,-248.5 16,-267.5 116,-267.5 116,-248.5 16,-248.5"/>
<text text-anchor="middle" x="66" y="-255.5" font-family="Helvetica,sans-Serif" font-size="10.00">OMSimInputData</text>
</a>
</g>
</g>
<!-- Node4&#45;&gt;Node3 -->
<g id="edge3" class="edge">
<title>Node4&#45;&gt;Node3</title>
<path fill="none" stroke="#9a32cd" stroke-dasharray="5,2" d="M66,-238.04C66,-225.67 66,-210.12 66,-200.63"/>
<polygon fill="#9a32cd" stroke="#9a32cd" points="62.5,-238.23 66,-248.23 69.5,-238.23 62.5,-238.23"/>
<text text-anchor="middle" x="86" y="-222" font-family="Helvetica,sans-Serif" font-size="10.00"> m_data</text>
</g>
<!-- Node5 -->
<g id="node5" class="node">
<title>Node5</title>
<g id="a_node5"><a xlink:href="class_parameter_table.html" target="_top" xlink:title="A utility class for managing JSON&#45;based data tables.">
<polygon fill="none" stroke="black" points="20,-305.5 20,-324.5 112,-324.5 112,-305.5 20,-305.5"/>
<text text-anchor="middle" x="66" y="-312.5" font-family="Helvetica,sans-Serif" font-size="10.00">ParameterTable</text>
</a>
</g>
</g>
<!-- Node5&#45;&gt;Node4 -->
<g id="edge4" class="edge">
<title>Node5&#45;&gt;Node4</title>
<path fill="none" stroke="midnightblue" d="M66,-295.12C66,-285.82 66,-275.06 66,-267.71"/>
<polygon fill="midnightblue" stroke="midnightblue" points="62.5,-295.41 66,-305.41 69.5,-295.41 62.5,-295.41"/>
</g>
<!-- Node6&#45;&gt;Node2 -->
<g id="edge5" class="edge">
<title>Node6&#45;&gt;Node2</title>
<path fill="none" stroke="#9a32cd" stroke-dasharray="5,2" d="M130.42,-117.71C114.86,-104.91 93.2,-87.09 80.49,-76.63"/>
<polygon fill="#9a32cd" stroke="#9a32cd" points="128.4,-120.58 138.35,-124.23 132.85,-115.18 128.4,-120.58"/>
<text text-anchor="middle" x="155.5" y="-98" font-family="Helvetica,sans-Serif" font-size="10.00"> m_managerPMT</text>
</g>
</g>
</svg>
