<?xml version="1.0" encoding="UTF-8" standalone="no"?>
<!DOCTYPE svg PUBLIC "-//W3C//DTD SVG 1.1//EN"
 "http://www.w3.org/Graphics/SVG/1.1/DTD/svg11.dtd">
<!-- Generated by graphviz version 2.43.0 (0)
 -->
<!-- Title: OMSimDecaysGPS Pages: 1 -->
<svg width="224pt" height="343pt"
 viewBox="0.00 0.00 224.00 343.00" xmlns="http://www.w3.org/2000/svg" xmlns:xlink="http://www.w3.org/1999/xlink">
<g id="graph0" class="graph" transform="scale(1 1) rotate(0) translate(4 339)">
<title>OMSimDecaysGPS</title>
<!-- Node1 -->
<g id="node1" class="node">
<title>Node1</title>
<g id="a_node1"><a xlink:title="A class for simulating isotope decays inside the pressure vessel and PMT glass.">
<polygon fill="#bfbfbf" stroke="black" points="16.5,-0.5 16.5,-19.5 123.5,-19.5 123.5,-0.5 16.5,-0.5"/>
<text text-anchor="middle" x="70" y="-7.5" font-family="Helvetica,sans-Serif" font-size="10.00">OMSimDecaysGPS</text>
</a>
</g>
</g>
<!-- Node2 -->
<g id="node2" class="node">
<title>Node2</title>
<g id="a_node2"><a xlink:href="class_o_m_sim_optical_module.html" target="_top" xlink:title="Base class for OMs works as interface.">
<polygon fill="none" stroke="black" points="9,-67.5 9,-86.5 131,-86.5 131,-67.5 9,-67.5"/>
<text text-anchor="middle" x="70" y="-74.5" font-family="Helvetica,sans-Serif" font-size="10.00">OMSimOpticalModule</text>
</a>
</g>
</g>
<!-- Node2&#45;&gt;Node1 -->
<g id="edge1" class="edge">
<title>Node2&#45;&gt;Node1</title>
<path fill="none" stroke="#9a32cd" stroke-dasharray="5,2" d="M70,-57.04C70,-44.67 70,-29.12 70,-19.63"/>
<polygon fill="#9a32cd" stroke="#9a32cd" points="66.5,-57.23 70,-67.23 73.5,-57.23 66.5,-57.23"/>
<text text-anchor="middle" x="114" y="-41" font-family="Helvetica,sans-Serif" font-size="10.00"> m_opticalModule</text>
</g>
<!-- Node3 -->
<g id="node3" class="node">
<title>Node3</title>
<g id="a_node3"><a xlink:href="classabc_detector_component.html" target="_top" xlink:title="Abstract base class used for constructing detector components.">
<polygon fill="none" stroke="black" points="0,-191.5 0,-210.5 132,-210.5 132,-191.5 0,-191.5"/>
<text text-anchor="middle" x="66" y="-198.5" font-family="Helvetica,sans-Serif" font-size="10.00">abcDetectorComponent</text>
</a>
</g>
</g>
<!-- Node3&#45;&gt;Node2 -->
<g id="edge2" class="edge">
<title>Node3&#45;&gt;Node2</title>
<path fill="none" stroke="midnightblue" d="M66.62,-181.19C67.5,-154.4 69.07,-106.31 69.71,-86.69"/>
<polygon fill="midnightblue" stroke="midnightblue" points="63.12,-181.12 66.29,-191.23 70.11,-181.35 63.12,-181.12"/>
</g>
<!-- Node6 -->
<g id="node6" class="node">
<title>Node6</title>
<g id="a_node6"><a xlink:href="class_o_m_sim_p_m_t_construction.html" target="_top" xlink:title=" ">
<polygon fill="none" stroke="black" points="82,-134.5 82,-153.5 216,-153.5 216,-134.5 82,-134.5"/>
<text text-anchor="middle" x="149" y="-141.5" font-family="Helvetica,sans-Serif" font-size="10.00">OMSimPMTConstruction</text>
</a>
</g>
</g>
<!-- Node3&#45;&gt;Node6 -->
<g id="edge6" class="edge">
<title>Node3&#45;&gt;Node6</title>
<path fill="none" stroke="midnightblue" d="M87.39,-185.82C102.81,-175.61 123.12,-162.15 136.12,-153.53"/>
<polygon fill="midnightblue" stroke="midnightblue" points="85.37,-182.96 78.97,-191.41 89.24,-188.8 85.37,-182.96"/>
</g>
<!-- Node4 -->
<g id="node4" class="node">
<title>Node4</title>
<g id="a_node4"><a xlink:href="class_o_m_sim_input_data.html" target="_top" xlink:title="Manages the input data, including parsing and storing material properties.">
<polygon fill="none" stroke="black" points="16,-258.5 16,-277.5 116,-277.5 116,-258.5 16,-258.5"/>
<text text-anchor="middle" x="66" y="-265.5" font-family="Helvetica,sans-Serif" font-size="10.00">OMSimInputData</text>
</a>
</g>
</g>
<!-- Node4&#45;&gt;Node3 -->
<g id="edge3" class="edge">
<title>Node4&#45;&gt;Node3</title>
<path fill="none" stroke="#9a32cd" stroke-dasharray="5,2" d="M66,-248.04C66,-235.67 66,-220.12 66,-210.63"/>
<polygon fill="#9a32cd" stroke="#9a32cd" points="62.5,-248.23 66,-258.23 69.5,-248.23 62.5,-248.23"/>
<text text-anchor="middle" x="86" y="-232" font-family="Helvetica,sans-Serif" font-size="10.00"> m_data</text>
</g>
<!-- Node5 -->
<g id="node5" class="node">
<title>Node5</title>
<g id="a_node5"><a xlink:href="class_parameter_table.html" target="_top" xlink:title="A utility class for managing JSON&#45;based data tables.">
<polygon fill="none" stroke="black" points="20,-315.5 20,-334.5 112,-334.5 112,-315.5 20,-315.5"/>
<text text-anchor="middle" x="66" y="-322.5" font-family="Helvetica,sans-Serif" font-size="10.00">ParameterTable</text>
</a>
</g>
</g>
<!-- Node5&#45;&gt;Node4 -->
<g id="edge4" class="edge">
<title>Node5&#45;&gt;Node4</title>
<path fill="none" stroke="midnightblue" d="M66,-305.12C66,-295.82 66,-285.06 66,-277.71"/>
<polygon fill="midnightblue" stroke="midnightblue" points="62.5,-305.41 66,-315.41 69.5,-305.41 62.5,-305.41"/>
</g>
<!-- Node6&#45;&gt;Node2 -->
<g id="edge5" class="edge">
<title>Node6&#45;&gt;Node2</title>
<path fill="none" stroke="#9a32cd" stroke-dasharray="5,2" d="M130.42,-127.71C114.86,-114.91 93.2,-97.09 80.49,-86.63"/>
<polygon fill="#9a32cd" stroke="#9a32cd" points="128.4,-130.58 138.35,-134.23 132.85,-125.18 128.4,-130.58"/>
<text text-anchor="middle" x="155.5" y="-108" font-family="Helvetica,sans-Serif" font-size="10.00"> m_managerPMT</text>
</g>
</g>
</svg>
