<?xml version="1.0" encoding="UTF-8" standalone="no"?>
<!DOCTYPE svg PUBLIC "-//W3C//DTD SVG 1.1//EN"
 "http://www.w3.org/Graphics/SVG/1.1/DTD/svg11.dtd">
<!-- Generated by graphviz version 2.43.0 (0)
 -->
<!-- Title: OMSimOpticalModule Pages: 1 -->
<svg width="323pt" height="137pt"
 viewBox="0.00 0.00 323.00 137.00" xmlns="http://www.w3.org/2000/svg" xmlns:xlink="http://www.w3.org/1999/xlink">
<g id="graph0" class="graph" transform="scale(1 1) rotate(0) translate(4 133)">
<title>OMSimOpticalModule</title>
<!-- Node1 -->
<g id="Node000001" class="node">
<title>Node1</title>
<g id="a_Node000001"><a xlink:title="Base class for OMs works as interface.">
<polygon fill="#999999" stroke="#666666" points="217.5,-74 95.5,-74 95.5,-55 217.5,-55 217.5,-74"/>
<text text-anchor="middle" x="156.5" y="-62" font-family="Helvetica,sans-Serif" font-size="10.00">OMSimOpticalModule</text>
</a>
</g>
</g>
<!-- Node3 -->
<g id="Node000003" class="node">
<title>Node3</title>
<g id="a_Node000003"><a xlink:href="class_d_e_g_g.html" target="_top" xlink:title="Construction of the DEGG detector geometry.">
<polygon fill="white" stroke="#666666" points="45,-19 0,-19 0,0 45,0 45,-19"/>
<text text-anchor="middle" x="22.5" y="-7" font-family="Helvetica,sans-Serif" font-size="10.00">DEGG</text>
</a>
</g>
</g>
<!-- Node1&#45;&gt;Node3 -->
<g id="edge2_Node000001_Node000003" class="edge">
<title>Node1&#45;&gt;Node3</title>
<g id="a_edge2_Node000001_Node000003"><a xlink:title=" ">
<path fill="none" stroke="#63b8ff" d="M125.63,-51.29C100.8,-41.47 66.51,-27.91 44.42,-19.17"/>
<polygon fill="#63b8ff" stroke="#63b8ff" points="124.38,-54.56 134.97,-54.98 126.96,-48.05 124.38,-54.56"/>
</a>
</g>
</g>
<!-- Node4 -->
<g id="Node000004" class="node">
<title>Node4</title>
<g id="a_Node000004"><a xlink:href="class_l_o_m16.html" target="_top" xlink:title=" ">
<polygon fill="white" stroke="#bfbfbf" points="113.5,-19 63.5,-19 63.5,0 113.5,0 113.5,-19"/>
<text text-anchor="middle" x="88.5" y="-7" font-family="Helvetica,sans-Serif" font-size="10.00">LOM16</text>
</a>
</g>
</g>
<!-- Node1&#45;&gt;Node4 -->
<g id="edge3_Node000001_Node000004" class="edge">
<title>Node1&#45;&gt;Node4</title>
<g id="a_edge3_Node000001_Node000004"><a xlink:title=" ">
<path fill="none" stroke="#63b8ff" d="M137.38,-48.6C125.2,-39.11 109.84,-27.13 99.62,-19.17"/>
<polygon fill="#63b8ff" stroke="#63b8ff" points="135.54,-51.6 145.57,-54.98 139.84,-46.08 135.54,-51.6"/>
</a>
</g>
</g>
<!-- Node5 -->
<g id="Node000005" class="node">
<title>Node5</title>
<g id="a_Node000005"><a xlink:href="class_l_o_m18.html" target="_top" xlink:title=" ">
<polygon fill="white" stroke="#bfbfbf" points="181.5,-19 131.5,-19 131.5,0 181.5,0 181.5,-19"/>
<text text-anchor="middle" x="156.5" y="-7" font-family="Helvetica,sans-Serif" font-size="10.00">LOM18</text>
</a>
</g>
</g>
<!-- Node1&#45;&gt;Node5 -->
<g id="edge4_Node000001_Node000005" class="edge">
<title>Node1&#45;&gt;Node5</title>
<g id="a_edge4_Node000001_Node000005"><a xlink:title=" ">
<path fill="none" stroke="#63b8ff" d="M156.5,-44.66C156.5,-35.93 156.5,-25.99 156.5,-19.09"/>
<polygon fill="#63b8ff" stroke="#63b8ff" points="153,-44.75 156.5,-54.75 160,-44.75 153,-44.75"/>
</a>
</g>
</g>
<!-- Node6 -->
<g id="Node000006" class="node">
<title>Node6</title>
<g id="a_Node000006"><a xlink:href="classm_d_o_m.html" target="_top" xlink:title=" ">
<polygon fill="white" stroke="#bfbfbf" points="249.5,-19 199.5,-19 199.5,0 249.5,0 249.5,-19"/>
<text text-anchor="middle" x="224.5" y="-7" font-family="Helvetica,sans-Serif" font-size="10.00">mDOM</text>
</a>
</g>
</g>
<!-- Node1&#45;&gt;Node6 -->
<g id="edge5_Node000001_Node000006" class="edge">
<title>Node1&#45;&gt;Node6</title>
<g id="a_edge5_Node000001_Node000006"><a xlink:title=" ">
<path fill="none" stroke="#63b8ff" d="M175.62,-48.6C187.8,-39.11 203.16,-27.13 213.38,-19.17"/>
<polygon fill="#63b8ff" stroke="#63b8ff" points="173.16,-46.08 167.43,-54.98 177.46,-51.6 173.16,-46.08"/>
</a>
</g>
</g>
<!-- Node7 -->
<g id="Node000007" class="node">
<title>Node7</title>
<g id="a_Node000007"><a xlink:href="classp_d_o_m.html" target="_top" xlink:title="pDOM class represents the construction of pDOM/Gen1 DOM.">
<polygon fill="white" stroke="#666666" points="315,-19 268,-19 268,0 315,0 315,-19"/>
<text text-anchor="middle" x="291.5" y="-7" font-family="Helvetica,sans-Serif" font-size="10.00">pDOM</text>
</a>
</g>
</g>
<!-- Node1&#45;&gt;Node7 -->
<g id="edge6_Node000001_Node000007" class="edge">
<title>Node1&#45;&gt;Node7</title>
<g id="a_edge6_Node000001_Node000007"><a xlink:title=" ">
<path fill="none" stroke="#63b8ff" d="M187.6,-51.29C212.62,-41.47 247.16,-27.91 269.42,-19.17"/>
<polygon fill="#63b8ff" stroke="#63b8ff" points="186.22,-48.07 178.19,-54.98 188.78,-54.59 186.22,-48.07"/>
</a>
</g>
</g>
<!-- Node2 -->
<g id="Node000002" class="node">
<title>Node2</title>
<g id="a_Node000002"><a xlink:href="class_o_m_sim_detector_component.html" target="_top" xlink:title="Abstract base class used for constructing detector components.">
<polygon fill="white" stroke="#666666" points="231.5,-129 81.5,-129 81.5,-110 231.5,-110 231.5,-129"/>
<text text-anchor="middle" x="156.5" y="-117" font-family="Helvetica,sans-Serif" font-size="10.00">OMSimDetectorComponent</text>
</a>
</g>
</g>
<!-- Node2&#45;&gt;Node1 -->
<g id="edge1_Node000001_Node000002" class="edge">
<title>Node2&#45;&gt;Node1</title>
<g id="a_edge1_Node000001_Node000002"><a xlink:title=" ">
<path fill="none" stroke="#63b8ff" d="M156.5,-99.66C156.5,-90.93 156.5,-80.99 156.5,-74.09"/>
<polygon fill="#63b8ff" stroke="#63b8ff" points="153,-99.75 156.5,-109.75 160,-99.75 153,-99.75"/>
</a>
</g>
</g>
</g>
</svg>
