<?xml version="1.0" encoding="UTF-8" standalone="no"?>
<!DOCTYPE svg PUBLIC "-//W3C//DTD SVG 1.1//EN"
 "http://www.w3.org/Graphics/SVG/1.1/DTD/svg11.dtd">
<!-- Generated by graphviz version 2.43.0 (0)
 -->
<!-- Title: OMSimEffiCaliDetector Pages: 1 -->
<svg width="290pt" height="205pt"
 viewBox="0.00 0.00 289.50 205.00" xmlns="http://www.w3.org/2000/svg" xmlns:xlink="http://www.w3.org/1999/xlink">
<g id="graph0" class="graph" transform="scale(1 1) rotate(0) translate(4 201)">
<title>OMSimEffiCaliDetector</title>
<!-- Node1 -->
<g id="Node000001" class="node">
<title>Node1</title>
<g id="a_Node000001"><a xlink:title=" ">
<polygon fill="#999999" stroke="#666666" points="161.5,-19 33.5,-19 33.5,0 161.5,0 161.5,-19"/>
<text text-anchor="middle" x="97.5" y="-7" font-family="Helvetica,sans-Serif" font-size="10.00">OMSimEffiCaliDetector</text>
</a>
</g>
</g>
<!-- Node2 -->
<g id="Node000002" class="node">
<title>Node2</title>
<g id="a_Node000002"><a xlink:href="class_o_m_sim_detector_construction.html" target="_top" xlink:title="Class for detector construction in the effective area simulation.">
<polygon fill="white" stroke="#666666" points="175,-75 20,-75 20,-56 175,-56 175,-75"/>
<text text-anchor="middle" x="97.5" y="-63" font-family="Helvetica,sans-Serif" font-size="10.00">OMSimDetectorConstruction</text>
</a>
</g>
</g>
<!-- Node2&#45;&gt;Node1 -->
<g id="edge1_Node000001_Node000002" class="edge">
<title>Node2&#45;&gt;Node1</title>
<g id="a_edge1_Node000001_Node000002"><a xlink:title=" ">
<path fill="none" stroke="#63b8ff" d="M97.5,-45.3C97.5,-36.41 97.5,-26.28 97.5,-19.25"/>
<polygon fill="#63b8ff" stroke="#63b8ff" points="94,-45.58 97.5,-55.58 101,-45.58 94,-45.58"/>
</a>
</g>
</g>
<!-- Node3 -->
<g id="Node000003" class="node">
<title>Node3</title>
<g id="a_Node000003"><a xlink:title=" ">
<polygon fill="white" stroke="#bfbfbf" points="163,-141 0,-141 0,-122 163,-122 163,-141"/>
<text text-anchor="middle" x="81.5" y="-129" font-family="Helvetica,sans-Serif" font-size="10.00">G4VUserDetectorConstruction</text>
</a>
</g>
</g>
<!-- Node3&#45;&gt;Node2 -->
<g id="edge2_Node000002_Node000003" class="edge">
<title>Node3&#45;&gt;Node2</title>
<g id="a_edge2_Node000002_Node000003"><a xlink:title=" ">
<path fill="none" stroke="#63b8ff" d="M86.14,-111.95C89.14,-99.93 92.92,-84.82 95.27,-75.41"/>
<polygon fill="#63b8ff" stroke="#63b8ff" points="82.69,-111.32 83.66,-121.87 89.48,-113.02 82.69,-111.32"/>
</a>
</g>
</g>
<!-- Node4 -->
<g id="Node000004" class="node">
<title>Node4</title>
<g id="a_Node000004"><a xlink:href="class_o_m_sim_input_data.html" target="_top" xlink:title="Manages the input data, including parsing and storing material properties.">
<polygon fill="white" stroke="#666666" points="281.5,-141 181.5,-141 181.5,-122 281.5,-122 281.5,-141"/>
<text text-anchor="middle" x="231.5" y="-129" font-family="Helvetica,sans-Serif" font-size="10.00">OMSimInputData</text>
</a>
</g>
</g>
<!-- Node4&#45;&gt;Node2 -->
<g id="edge3_Node000002_Node000004" class="edge">
<title>Node4&#45;&gt;Node2</title>
<g id="a_edge3_Node000002_Node000004"><a xlink:title=" ">
<path fill="none" stroke="#9a32cd" stroke-dasharray="5,2" d="M204.34,-117.53C177.93,-104.92 138.56,-86.11 115.71,-75.2"/>
<polygon fill="#9a32cd" stroke="#9a32cd" points="202.9,-120.72 213.43,-121.87 205.91,-114.4 202.9,-120.72"/>
</a>
</g>
<text text-anchor="middle" x="192.5" y="-96" font-family="Helvetica,sans-Serif" font-size="10.00" fill="grey"> m_data</text>
</g>
<!-- Node5 -->
<g id="Node000005" class="node">
<title>Node5</title>
<g id="a_Node000005"><a xlink:href="class_parameter_table.html" target="_top" xlink:title="A utility class for managing JSON&#45;based data tables.">
<polygon fill="white" stroke="#666666" points="277.5,-197 185.5,-197 185.5,-178 277.5,-178 277.5,-197"/>
<text text-anchor="middle" x="231.5" y="-185" font-family="Helvetica,sans-Serif" font-size="10.00">ParameterTable</text>
</a>
</g>
</g>
<!-- Node5&#45;&gt;Node4 -->
<g id="edge4_Node000004_Node000005" class="edge">
<title>Node5&#45;&gt;Node4</title>
<g id="a_edge4_Node000004_Node000005"><a xlink:title=" ">
<path fill="none" stroke="#63b8ff" d="M231.5,-167.3C231.5,-158.41 231.5,-148.28 231.5,-141.25"/>
<polygon fill="#63b8ff" stroke="#63b8ff" points="228,-167.58 231.5,-177.58 235,-167.58 228,-167.58"/>
</a>
</g>
</g>
</g>
</svg>
