<?xml version="1.0" encoding="UTF-8" standalone="no"?>
<!DOCTYPE svg PUBLIC "-//W3C//DTD SVG 1.1//EN"
 "http://www.w3.org/Graphics/SVG/1.1/DTD/svg11.dtd">
<!-- Generated by graphviz version 2.43.0 (0)
 -->
<!-- Title: abcMaterialData Pages: 1 -->
<svg width="111pt" height="152pt"
 viewBox="0.00 0.00 111.00 152.00" xmlns="http://www.w3.org/2000/svg" xmlns:xlink="http://www.w3.org/1999/xlink">
<g id="graph0" class="graph" transform="scale(1 1) rotate(0) translate(4 148)">
<title>abcMaterialData</title>
<!-- Node1 -->
<g id="node1" class="node">
<title>Node1</title>
<g id="a_node1"><a xlink:title="Abstract base class for material data extraction from a json file. abcMaterialData class is derived f...">
<polygon fill="#bfbfbf" stroke="black" points="0,-0.5 0,-19.5 98,-19.5 98,-0.5 0,-0.5"/>
<text text-anchor="middle" x="49" y="-7.5" font-family="Helvetica,sans-Serif" font-size="10.00">abcMaterialData</text>
</a>
</g>
</g>
<!-- Node2 -->
<g id="node2" class="node">
<title>Node2</title>
<g id="a_node2"><a xlink:href="classabc_data_file.html" target="_top" xlink:title="This is an abstract base class that provides an interface for handling data files in the simulation.">
<polygon fill="none" stroke="black" points="12,-57.5 12,-76.5 86,-76.5 86,-57.5 12,-57.5"/>
<text text-anchor="middle" x="49" y="-64.5" font-family="Helvetica,sans-Serif" font-size="10.00">abcDataFile</text>
</a>
</g>
</g>
<!-- Node2&#45;&gt;Node1 -->
<g id="edge1" class="edge">
<title>Node2&#45;&gt;Node1</title>
<path fill="none" stroke="midnightblue" d="M49,-47.12C49,-37.82 49,-27.06 49,-19.71"/>
<polygon fill="midnightblue" stroke="midnightblue" points="45.5,-47.41 49,-57.41 52.5,-47.41 45.5,-47.41"/>
</g>
<!-- Node3 -->
<g id="node3" class="node">
<title>Node3</title>
<g id="a_node3"><a xlink:href="class_parameter_table.html" target="_top" xlink:title="A utility class for managing JSON&#45;based data tables.">
<polygon fill="none" stroke="black" points="3,-124.5 3,-143.5 95,-143.5 95,-124.5 3,-124.5"/>
<text text-anchor="middle" x="49" y="-131.5" font-family="Helvetica,sans-Serif" font-size="10.00">ParameterTable</text>
</a>
</g>
</g>
<!-- Node3&#45;&gt;Node2 -->
<g id="edge2" class="edge">
<title>Node3&#45;&gt;Node2</title>
<path fill="none" stroke="#9a32cd" stroke-dasharray="5,2" d="M49,-114.04C49,-101.67 49,-86.12 49,-76.63"/>
<polygon fill="#9a32cd" stroke="#9a32cd" points="45.5,-114.23 49,-124.23 52.5,-114.23 45.5,-114.23"/>
<text text-anchor="middle" x="76" y="-98" font-family="Helvetica,sans-Serif" font-size="10.00"> mFileData</text>
</g>
</g>
</svg>
