<?xml version="1.0" encoding="UTF-8" standalone="no"?>
<!DOCTYPE svg PUBLIC "-//W3C//DTD SVG 1.1//EN"
 "http://www.w3.org/Graphics/SVG/1.1/DTD/svg11.dtd">
<!-- Generated by graphviz version 2.43.0 (0)
 -->
<!-- Title: OMSimPrimaryGeneratorAction Pages: 1 -->
<svg width="185pt" height="84pt"
 viewBox="0.00 0.00 185.00 84.00" xmlns="http://www.w3.org/2000/svg" xmlns:xlink="http://www.w3.org/1999/xlink">
<g id="graph0" class="graph" transform="scale(1 1) rotate(0) translate(4 80)">
<title>OMSimPrimaryGeneratorAction</title>
<!-- Node1 -->
<g id="node1" class="node">
<title>Node1</title>
<g id="a_node1"><a xlink:title=" ">
<polygon fill="#bfbfbf" stroke="black" points="3.5,-0.5 3.5,-19.5 173.5,-19.5 173.5,-0.5 3.5,-0.5"/>
<text text-anchor="middle" x="88.5" y="-7.5" font-family="Helvetica,sans-Serif" font-size="10.00">OMSimPrimaryGeneratorAction</text>
</a>
</g>
</g>
<!-- Node2 -->
<g id="node2" class="node">
<title>Node2</title>
<g id="a_node2"><a xlink:title=" ">
<polygon fill="none" stroke="#bfbfbf" points="0,-56.5 0,-75.5 177,-75.5 177,-56.5 0,-56.5"/>
<text text-anchor="middle" x="88.5" y="-63.5" font-family="Helvetica,sans-Serif" font-size="10.00">G4VUserPrimaryGeneratorAction</text>
</a>
</g>
</g>
<!-- Node2&#45;&gt;Node1 -->
<g id="edge1" class="edge">
<title>Node2&#45;&gt;Node1</title>
<path fill="none" stroke="midnightblue" d="M69.21,-46.69C67.13,-37.59 68.43,-27.01 73.11,-19.75"/>
<polygon fill="midnightblue" stroke="midnightblue" points="66.01,-48.12 73,-56.08 72.51,-45.5 66.01,-48.12"/>
</g>
<!-- Node2&#45;&gt;Node1 -->
<g id="edge2" class="edge">
<title>Node2&#45;&gt;Node1</title>
<path fill="none" stroke="midnightblue" d="M82.03,-46.1C81.4,-37.14 81.84,-26.86 83.37,-19.75"/>
<polygon fill="midnightblue" stroke="midnightblue" points="78.57,-46.62 83.33,-56.08 85.51,-45.71 78.57,-46.62"/>
</g>
<!-- Node2&#45;&gt;Node1 -->
<g id="edge3" class="edge">
<title>Node2&#45;&gt;Node1</title>
<path fill="none" stroke="midnightblue" d="M94.97,-46.1C95.6,-37.14 95.16,-26.86 93.63,-19.75"/>
<polygon fill="midnightblue" stroke="midnightblue" points="91.49,-45.71 93.67,-56.08 98.43,-46.62 91.49,-45.71"/>
</g>
<!-- Node2&#45;&gt;Node1 -->
<g id="edge4" class="edge">
<title>Node2&#45;&gt;Node1</title>
<path fill="none" stroke="midnightblue" d="M107.79,-46.69C109.87,-37.59 108.57,-27.01 103.89,-19.75"/>
<polygon fill="midnightblue" stroke="midnightblue" points="104.49,-45.5 104,-56.08 110.99,-48.12 104.49,-45.5"/>
</g>
</g>
</svg>
