<?xml version="1.0" encoding="UTF-8" standalone="no"?>
<!DOCTYPE svg PUBLIC "-//W3C//DTD SVG 1.1//EN"
 "http://www.w3.org/Graphics/SVG/1.1/DTD/svg11.dtd">
<!-- Generated by graphviz version 2.43.0 (0)
 -->
<!-- Title: OMSimDecaysGPS Pages: 1 -->
<svg width="233pt" height="343pt"
 viewBox="0.00 0.00 233.00 343.00" xmlns="http://www.w3.org/2000/svg" xmlns:xlink="http://www.w3.org/1999/xlink">
<g id="graph0" class="graph" transform="scale(1 1) rotate(0) translate(4 339)">
<title>OMSimDecaysGPS</title>
<!-- Node1 -->
<g id="node1" class="node">
<title>Node1</title>
<g id="a_node1"><a xlink:title="A class for simulating isotope decays inside the pressure vessel and PMT glass.">
<polygon fill="#bfbfbf" stroke="black" points="25.5,-0.5 25.5,-19.5 132.5,-19.5 132.5,-0.5 25.5,-0.5"/>
<text text-anchor="middle" x="79" y="-7.5" font-family="Helvetica,sans-Serif" font-size="10.00">OMSimDecaysGPS</text>
</a>
</g>
</g>
<!-- Node2 -->
<g id="node2" class="node">
<title>Node2</title>
<g id="a_node2"><a xlink:href="class_o_m_sim_optical_module.html" target="_top" xlink:title="Base class for OMs works as interface.">
<polygon fill="none" stroke="black" points="18,-67.5 18,-86.5 140,-86.5 140,-67.5 18,-67.5"/>
<text text-anchor="middle" x="79" y="-74.5" font-family="Helvetica,sans-Serif" font-size="10.00">OMSimOpticalModule</text>
</a>
</g>
</g>
<!-- Node2&#45;&gt;Node1 -->
<g id="edge1" class="edge">
<title>Node2&#45;&gt;Node1</title>
<path fill="none" stroke="#9a32cd" stroke-dasharray="5,2" d="M79,-57.04C79,-44.67 79,-29.12 79,-19.63"/>
<polygon fill="#9a32cd" stroke="#9a32cd" points="75.5,-57.23 79,-67.23 82.5,-57.23 75.5,-57.23"/>
<text text-anchor="middle" x="123" y="-41" font-family="Helvetica,sans-Serif" font-size="10.00"> m_opticalModule</text>
</g>
<!-- Node3 -->
<g id="node3" class="node">
<title>Node3</title>
<g id="a_node3"><a xlink:href="class_o_m_sim_detector_component.html" target="_top" xlink:title="Abstract base class used for constructing detector components.">
<polygon fill="none" stroke="black" points="0,-191.5 0,-210.5 150,-210.5 150,-191.5 0,-191.5"/>
<text text-anchor="middle" x="75" y="-198.5" font-family="Helvetica,sans-Serif" font-size="10.00">OMSimDetectorComponent</text>
</a>
</g>
</g>
<!-- Node3&#45;&gt;Node2 -->
<g id="edge2" class="edge">
<title>Node3&#45;&gt;Node2</title>
<path fill="none" stroke="midnightblue" d="M75.62,-181.19C76.5,-154.4 78.07,-106.31 78.71,-86.69"/>
<polygon fill="midnightblue" stroke="midnightblue" points="72.12,-181.12 75.29,-191.23 79.11,-181.35 72.12,-181.12"/>
</g>
<!-- Node6 -->
<g id="node6" class="node">
<title>Node6</title>
<g id="a_node6"><a xlink:href="class_o_m_sim_p_m_t_construction.html" target="_top" xlink:title=" ">
<polygon fill="none" stroke="black" points="91,-134.5 91,-153.5 225,-153.5 225,-134.5 91,-134.5"/>
<text text-anchor="middle" x="158" y="-141.5" font-family="Helvetica,sans-Serif" font-size="10.00">OMSimPMTConstruction</text>
</a>
</g>
</g>
<!-- Node3&#45;&gt;Node6 -->
<g id="edge6" class="edge">
<title>Node3&#45;&gt;Node6</title>
<path fill="none" stroke="midnightblue" d="M96.39,-185.82C111.81,-175.61 132.12,-162.15 145.12,-153.53"/>
<polygon fill="midnightblue" stroke="midnightblue" points="94.37,-182.96 87.97,-191.41 98.24,-188.8 94.37,-182.96"/>
</g>
<!-- Node4 -->
<g id="node4" class="node">
<title>Node4</title>
<g id="a_node4"><a xlink:href="class_o_m_sim_input_data.html" target="_top" xlink:title="Manages the input data, including parsing and storing material properties.">
<polygon fill="none" stroke="black" points="25,-258.5 25,-277.5 125,-277.5 125,-258.5 25,-258.5"/>
<text text-anchor="middle" x="75" y="-265.5" font-family="Helvetica,sans-Serif" font-size="10.00">OMSimInputData</text>
</a>
</g>
</g>
<!-- Node4&#45;&gt;Node3 -->
<g id="edge3" class="edge">
<title>Node4&#45;&gt;Node3</title>
<path fill="none" stroke="#9a32cd" stroke-dasharray="5,2" d="M75,-248.04C75,-235.67 75,-220.12 75,-210.63"/>
<polygon fill="#9a32cd" stroke="#9a32cd" points="71.5,-248.23 75,-258.23 78.5,-248.23 71.5,-248.23"/>
<text text-anchor="middle" x="95" y="-232" font-family="Helvetica,sans-Serif" font-size="10.00"> m_data</text>
</g>
<!-- Node5 -->
<g id="node5" class="node">
<title>Node5</title>
<g id="a_node5"><a xlink:href="class_parameter_table.html" target="_top" xlink:title="A utility class for managing JSON&#45;based data tables.">
<polygon fill="none" stroke="black" points="29,-315.5 29,-334.5 121,-334.5 121,-315.5 29,-315.5"/>
<text text-anchor="middle" x="75" y="-322.5" font-family="Helvetica,sans-Serif" font-size="10.00">ParameterTable</text>
</a>
</g>
</g>
<!-- Node5&#45;&gt;Node4 -->
<g id="edge4" class="edge">
<title>Node5&#45;&gt;Node4</title>
<path fill="none" stroke="midnightblue" d="M75,-305.12C75,-295.82 75,-285.06 75,-277.71"/>
<polygon fill="midnightblue" stroke="midnightblue" points="71.5,-305.41 75,-315.41 78.5,-305.41 71.5,-305.41"/>
</g>
<!-- Node6&#45;&gt;Node2 -->
<g id="edge5" class="edge">
<title>Node6&#45;&gt;Node2</title>
<path fill="none" stroke="#9a32cd" stroke-dasharray="5,2" d="M139.42,-127.71C123.86,-114.91 102.2,-97.09 89.49,-86.63"/>
<polygon fill="#9a32cd" stroke="#9a32cd" points="137.4,-130.58 147.35,-134.23 141.85,-125.18 137.4,-130.58"/>
<text text-anchor="middle" x="164.5" y="-108" font-family="Helvetica,sans-Serif" font-size="10.00"> m_managerPMT</text>
</g>
</g>
</svg>
