<?xml version="1.0" encoding="UTF-8" standalone="no"?>
<!DOCTYPE svg PUBLIC "-//W3C//DTD SVG 1.1//EN"
 "http://www.w3.org/Graphics/SVG/1.1/DTD/svg11.dtd">
<!-- Generated by graphviz version 2.43.0 (0)
 -->
<!-- Title: OMSimEventAction Pages: 1 -->
<svg width="119pt" height="82pt"
 viewBox="0.00 0.00 119.00 82.00" xmlns="http://www.w3.org/2000/svg" xmlns:xlink="http://www.w3.org/1999/xlink">
<g id="graph0" class="graph" transform="scale(1 1) rotate(0) translate(4 78)">
<title>OMSimEventAction</title>
<!-- Node1 -->
<g id="Node000001" class="node">
<title>Node1</title>
<g id="a_Node000001"><a xlink:title="Handles custom actions at the beginning and end of each event.">
<polygon fill="#999999" stroke="#666666" points="110.5,-19 0.5,-19 0.5,0 110.5,0 110.5,-19"/>
<text text-anchor="middle" x="55.5" y="-7" font-family="Helvetica,sans-Serif" font-size="10.00">OMSimEventAction</text>
</a>
</g>
</g>
<!-- Node2 -->
<g id="Node000002" class="node">
<title>Node2</title>
<g id="a_Node000002"><a xlink:title=" ">
<polygon fill="white" stroke="#bfbfbf" points="111,-74 0,-74 0,-55 111,-55 111,-74"/>
<text text-anchor="middle" x="55.5" y="-62" font-family="Helvetica,sans-Serif" font-size="10.00">G4UserEventAction</text>
</a>
</g>
</g>
<!-- Node2&#45;&gt;Node1 -->
<g id="edge1_Node000001_Node000002" class="edge">
<title>Node2&#45;&gt;Node1</title>
<g id="a_edge1_Node000001_Node000002"><a xlink:title=" ">
<path fill="none" stroke="#63b8ff" d="M29.87,-45.82C26.97,-36.82 28.67,-26.29 34.98,-19.09"/>
<polygon fill="#63b8ff" stroke="#63b8ff" points="26.92,-47.71 34.83,-54.75 33.04,-44.31 26.92,-47.71"/>
</a>
</g>
</g>
<!-- Node2&#45;&gt;Node1 -->
<g id="edge2_Node000001_Node000002" class="edge">
<title>Node2&#45;&gt;Node1</title>
<g id="a_edge2_Node000001_Node000002"><a xlink:title=" ">
<path fill="none" stroke="#63b8ff" d="M42.56,-44.95C41.29,-36.15 42.19,-26.06 45.24,-19.09"/>
<polygon fill="#63b8ff" stroke="#63b8ff" points="39.21,-45.99 45.17,-54.75 45.97,-44.18 39.21,-45.99"/>
</a>
</g>
</g>
<!-- Node2&#45;&gt;Node1 -->
<g id="edge3_Node000001_Node000002" class="edge">
<title>Node2&#45;&gt;Node1</title>
<g id="a_edge3_Node000001_Node000002"><a xlink:title=" ">
<path fill="none" stroke="#63b8ff" d="M55.5,-44.66C55.5,-35.93 55.5,-25.99 55.5,-19.09"/>
<polygon fill="#63b8ff" stroke="#63b8ff" points="52,-44.75 55.5,-54.75 59,-44.75 52,-44.75"/>
</a>
</g>
</g>
<!-- Node2&#45;&gt;Node1 -->
<g id="edge4_Node000001_Node000002" class="edge">
<title>Node2&#45;&gt;Node1</title>
<g id="a_edge4_Node000001_Node000002"><a xlink:title=" ">
<path fill="none" stroke="#63b8ff" d="M68.44,-44.95C69.71,-36.15 68.81,-26.06 65.76,-19.09"/>
<polygon fill="#63b8ff" stroke="#63b8ff" points="65.03,-44.18 65.83,-54.75 71.79,-45.99 65.03,-44.18"/>
</a>
</g>
</g>
<!-- Node2&#45;&gt;Node1 -->
<g id="edge5_Node000001_Node000002" class="edge">
<title>Node2&#45;&gt;Node1</title>
<g id="a_edge5_Node000001_Node000002"><a xlink:title=" ">
<path fill="none" stroke="#63b8ff" d="M81.13,-45.82C84.03,-36.82 82.33,-26.29 76.02,-19.09"/>
<polygon fill="#63b8ff" stroke="#63b8ff" points="77.96,-44.31 76.17,-54.75 84.08,-47.71 77.96,-44.31"/>
</a>
</g>
</g>
</g>
</svg>
