<?xml version="1.0" encoding="UTF-8" standalone="no"?>
<!DOCTYPE svg PUBLIC "-//W3C//DTD SVG 1.1//EN"
 "http://www.w3.org/Graphics/SVG/1.1/DTD/svg11.dtd">
<!-- Generated by graphviz version 2.43.0 (0)
 -->
<!-- Title: LOM16 Pages: 1 -->
<svg width="236pt" height="333pt"
 viewBox="0.00 0.00 236.00 333.00" xmlns="http://www.w3.org/2000/svg" xmlns:xlink="http://www.w3.org/1999/xlink">
<g id="graph0" class="graph" transform="scale(1 1) rotate(0) translate(4 329)">
<title>LOM16</title>
<polygon fill="white" stroke="transparent" points="-4,4 -4,-329 232,-329 232,4 -4,4"/>
<!-- Node1 -->
<g id="node1" class="node">
<title>Node1</title>
<g id="a_node1"><a xlink:title=" ">
<polygon fill="#bfbfbf" stroke="black" points="57,-0.5 57,-19.5 107,-19.5 107,-0.5 57,-0.5"/>
<text text-anchor="middle" x="82" y="-7.5" font-family="Helvetica,sans-Serif" font-size="10.00">LOM16</text>
</a>
</g>
</g>
<!-- Node2 -->
<g id="node2" class="node">
<title>Node2</title>
<g id="a_node2"><a xlink:href="class_o_m_sim_optical_module.html" target="_top" xlink:title="Base class for OMs works as interface.">
<polygon fill="white" stroke="black" points="21,-57.5 21,-76.5 143,-76.5 143,-57.5 21,-57.5"/>
<text text-anchor="middle" x="82" y="-64.5" font-family="Helvetica,sans-Serif" font-size="10.00">OMSimOpticalModule</text>
</a>
</g>
</g>
<!-- Node2&#45;&gt;Node1 -->
<g id="edge1" class="edge">
<title>Node2&#45;&gt;Node1</title>
<path fill="none" stroke="midnightblue" d="M82,-47.12C82,-37.82 82,-27.06 82,-19.71"/>
<polygon fill="midnightblue" stroke="midnightblue" points="78.5,-47.41 82,-57.41 85.5,-47.41 78.5,-47.41"/>
</g>
<!-- Node3 -->
<g id="node3" class="node">
<title>Node3</title>
<g id="a_node3"><a xlink:href="classabc_detector_component.html" target="_top" xlink:title="Abstract base class used for constructing detector components.">
<polygon fill="white" stroke="black" points="0,-181.5 0,-200.5 132,-200.5 132,-181.5 0,-181.5"/>
<text text-anchor="middle" x="66" y="-188.5" font-family="Helvetica,sans-Serif" font-size="10.00">abcDetectorComponent</text>
</a>
</g>
</g>
<!-- Node3&#45;&gt;Node2 -->
<g id="edge2" class="edge">
<title>Node3&#45;&gt;Node2</title>
<path fill="none" stroke="midnightblue" d="M68.47,-171.19C71.98,-144.4 78.29,-96.31 80.86,-76.69"/>
<polygon fill="midnightblue" stroke="midnightblue" points="64.98,-170.86 67.15,-181.23 71.92,-171.77 64.98,-170.86"/>
</g>
<!-- Node6 -->
<g id="node6" class="node">
<title>Node6</title>
<g id="a_node6"><a xlink:href="class_o_m_sim_p_m_t_construction.html" target="_top" xlink:title=" ">
<polygon fill="white" stroke="black" points="94,-124.5 94,-143.5 228,-143.5 228,-124.5 94,-124.5"/>
<text text-anchor="middle" x="161" y="-131.5" font-family="Helvetica,sans-Serif" font-size="10.00">OMSimPMTConstruction</text>
</a>
</g>
</g>
<!-- Node3&#45;&gt;Node6 -->
<g id="edge6" class="edge">
<title>Node3&#45;&gt;Node6</title>
<path fill="none" stroke="midnightblue" d="M89.5,-176.39C107.26,-166.11 131.1,-152.31 146.26,-143.53"/>
<polygon fill="midnightblue" stroke="midnightblue" points="87.74,-173.37 80.84,-181.41 91.25,-179.42 87.74,-173.37"/>
</g>
<!-- Node4 -->
<g id="node4" class="node">
<title>Node4</title>
<g id="a_node4"><a xlink:href="class_input_data_manager.html" target="_top" xlink:title="Manages the input data, including parsing and storing material properties.">
<polygon fill="white" stroke="black" points="63.5,-248.5 63.5,-267.5 170.5,-267.5 170.5,-248.5 63.5,-248.5"/>
<text text-anchor="middle" x="117" y="-255.5" font-family="Helvetica,sans-Serif" font-size="10.00">InputDataManager</text>
</a>
</g>
</g>
<!-- Node4&#45;&gt;Node3 -->
<g id="edge3" class="edge">
<title>Node4&#45;&gt;Node3</title>
<path fill="none" stroke="#9a32cd" stroke-dasharray="5,2" d="M103.87,-240.27C93.93,-227.6 80.67,-210.7 72.77,-200.63"/>
<polygon fill="#9a32cd" stroke="#9a32cd" points="101.2,-242.53 110.12,-248.23 106.7,-238.21 101.2,-242.53"/>
<text text-anchor="middle" x="113.5" y="-222" font-family="Helvetica,sans-Serif" font-size="10.00"> mData</text>
</g>
<!-- Node4&#45;&gt;Node6 -->
<g id="edge7" class="edge">
<title>Node4&#45;&gt;Node6</title>
<path fill="none" stroke="#9a32cd" stroke-dasharray="5,2" d="M130.23,-240.13C132.37,-236.89 134.4,-233.43 136,-230 149.95,-200 157.11,-160.91 159.77,-143.74"/>
<polygon fill="#9a32cd" stroke="#9a32cd" points="127.2,-238.34 124.18,-248.49 132.88,-242.44 127.2,-238.34"/>
<text text-anchor="middle" x="170.5" y="-188.5" font-family="Helvetica,sans-Serif" font-size="10.00"> mData</text>
</g>
<!-- Node5 -->
<g id="node5" class="node">
<title>Node5</title>
<g id="a_node5"><a xlink:href="class_parameter_table.html" target="_top" xlink:title="A utility class for managing JSON&#45;based data tables.">
<polygon fill="white" stroke="black" points="71,-305.5 71,-324.5 163,-324.5 163,-305.5 71,-305.5"/>
<text text-anchor="middle" x="117" y="-312.5" font-family="Helvetica,sans-Serif" font-size="10.00">ParameterTable</text>
</a>
</g>
</g>
<!-- Node5&#45;&gt;Node4 -->
<g id="edge4" class="edge">
<title>Node5&#45;&gt;Node4</title>
<path fill="none" stroke="midnightblue" d="M117,-295.12C117,-285.82 117,-275.06 117,-267.71"/>
<polygon fill="midnightblue" stroke="midnightblue" points="113.5,-295.41 117,-305.41 120.5,-295.41 113.5,-295.41"/>
</g>
<!-- Node6&#45;&gt;Node2 -->
<g id="edge5" class="edge">
<title>Node6&#45;&gt;Node2</title>
<path fill="none" stroke="#9a32cd" stroke-dasharray="5,2" d="M142.42,-117.71C126.86,-104.91 105.2,-87.09 92.49,-76.63"/>
<polygon fill="#9a32cd" stroke="#9a32cd" points="140.4,-120.58 150.35,-124.23 144.85,-115.18 140.4,-120.58"/>
<text text-anchor="middle" x="164.5" y="-98" font-family="Helvetica,sans-Serif" font-size="10.00"> mPMTManager</text>
</g>
</g>
</svg>
