<?xml version="1.0" encoding="UTF-8" standalone="no"?>
<!DOCTYPE svg PUBLIC "-//W3C//DTD SVG 1.1//EN"
 "http://www.w3.org/Graphics/SVG/1.1/DTD/svg11.dtd">
<!-- Generated by graphviz version 2.43.0 (0)
 -->
<!-- Title: OMSimOpticalModule Pages: 1 -->
<svg width="233pt" height="271pt"
 viewBox="0.00 0.00 233.00 271.00" xmlns="http://www.w3.org/2000/svg" xmlns:xlink="http://www.w3.org/1999/xlink">
<g id="graph0" class="graph" transform="scale(1 1) rotate(0) translate(4 267)">
<title>OMSimOpticalModule</title>
<!-- Node1 -->
<g id="Node000001" class="node">
<title>Node1</title>
<g id="a_Node000001"><a xlink:title="Base class for OMs works as interface.">
<polygon fill="#999999" stroke="#666666" points="140,-19 18,-19 18,0 140,0 140,-19"/>
<text text-anchor="middle" x="79" y="-7" font-family="Helvetica,sans-Serif" font-size="10.00">OMSimOpticalModule</text>
</a>
</g>
</g>
<!-- Node2 -->
<g id="Node000002" class="node">
<title>Node2</title>
<g id="a_Node000002"><a xlink:href="class_o_m_sim_detector_component.html" target="_top" xlink:title="Abstract base class used for constructing detector components.">
<polygon fill="white" stroke="#666666" points="150,-141 0,-141 0,-122 150,-122 150,-141"/>
<text text-anchor="middle" x="75" y="-129" font-family="Helvetica,sans-Serif" font-size="10.00">OMSimDetectorComponent</text>
</a>
</g>
</g>
<!-- Node2&#45;&gt;Node1 -->
<g id="edge1_Node000001_Node000002" class="edge">
<title>Node2&#45;&gt;Node1</title>
<g id="a_edge1_Node000001_Node000002"><a xlink:title=" ">
<path fill="none" stroke="#63b8ff" d="M75.63,-111.65C76.51,-85.22 78.07,-38.26 78.71,-19.05"/>
<polygon fill="#63b8ff" stroke="#63b8ff" points="72.12,-111.76 75.29,-121.87 79.12,-111.99 72.12,-111.76"/>
</a>
</g>
</g>
<!-- Node5 -->
<g id="Node000005" class="node">
<title>Node5</title>
<g id="a_Node000005"><a xlink:href="class_o_m_sim_p_m_t_construction.html" target="_top" xlink:title=" ">
<polygon fill="white" stroke="#bfbfbf" points="225,-85 91,-85 91,-66 225,-66 225,-85"/>
<text text-anchor="middle" x="158" y="-73" font-family="Helvetica,sans-Serif" font-size="10.00">OMSimPMTConstruction</text>
</a>
</g>
</g>
<!-- Node2&#45;&gt;Node5 -->
<g id="edge5_Node000005_Node000002" class="edge">
<title>Node2&#45;&gt;Node5</title>
<g id="a_edge5_Node000005_Node000002"><a xlink:title=" ">
<path fill="none" stroke="#63b8ff" d="M97.1,-116.12C112.26,-106.26 131.88,-93.49 144.7,-85.15"/>
<polygon fill="#63b8ff" stroke="#63b8ff" points="94.81,-113.44 88.34,-121.82 98.63,-119.3 94.81,-113.44"/>
</a>
</g>
</g>
<!-- Node3 -->
<g id="Node000003" class="node">
<title>Node3</title>
<g id="a_Node000003"><a xlink:href="class_o_m_sim_input_data.html" target="_top" xlink:title="Manages the input data, including parsing and storing material properties.">
<polygon fill="white" stroke="#666666" points="125,-207 25,-207 25,-188 125,-188 125,-207"/>
<text text-anchor="middle" x="75" y="-195" font-family="Helvetica,sans-Serif" font-size="10.00">OMSimInputData</text>
</a>
</g>
</g>
<!-- Node3&#45;&gt;Node2 -->
<g id="edge2_Node000002_Node000003" class="edge">
<title>Node3&#45;&gt;Node2</title>
<g id="a_edge2_Node000002_Node000003"><a xlink:title=" ">
<path fill="none" stroke="#9a32cd" stroke-dasharray="5,2" d="M75,-177.58C75,-165.63 75,-150.72 75,-141.41"/>
<polygon fill="#9a32cd" stroke="#9a32cd" points="71.5,-177.87 75,-187.87 78.5,-177.87 71.5,-177.87"/>
</a>
</g>
<text text-anchor="middle" x="95" y="-162" font-family="Helvetica,sans-Serif" font-size="10.00" fill="grey"> m_data</text>
</g>
<!-- Node4 -->
<g id="Node000004" class="node">
<title>Node4</title>
<g id="a_Node000004"><a xlink:href="class_parameter_table.html" target="_top" xlink:title="A utility class for managing JSON&#45;based data tables.">
<polygon fill="white" stroke="#666666" points="121,-263 29,-263 29,-244 121,-244 121,-263"/>
<text text-anchor="middle" x="75" y="-251" font-family="Helvetica,sans-Serif" font-size="10.00">ParameterTable</text>
</a>
</g>
</g>
<!-- Node4&#45;&gt;Node3 -->
<g id="edge3_Node000003_Node000004" class="edge">
<title>Node4&#45;&gt;Node3</title>
<g id="a_edge3_Node000003_Node000004"><a xlink:title=" ">
<path fill="none" stroke="#63b8ff" d="M75,-233.3C75,-224.41 75,-214.28 75,-207.25"/>
<polygon fill="#63b8ff" stroke="#63b8ff" points="71.5,-233.58 75,-243.58 78.5,-233.58 71.5,-233.58"/>
</a>
</g>
</g>
<!-- Node5&#45;&gt;Node1 -->
<g id="edge4_Node000001_Node000005" class="edge">
<title>Node5&#45;&gt;Node1</title>
<g id="a_edge4_Node000001_Node000005"><a xlink:title=" ">
<path fill="none" stroke="#9a32cd" stroke-dasharray="5,2" d="M139.47,-59.49C124,-46.96 102.5,-29.54 89.74,-19.2"/>
<polygon fill="#9a32cd" stroke="#9a32cd" points="137.37,-62.29 147.35,-65.87 141.78,-56.85 137.37,-62.29"/>
</a>
</g>
<text text-anchor="middle" x="164.5" y="-40" font-family="Helvetica,sans-Serif" font-size="10.00" fill="grey"> m_managerPMT</text>
</g>
</g>
</svg>
