<?xml version="1.0" encoding="UTF-8" standalone="no"?>
<!DOCTYPE svg PUBLIC "-//W3C//DTD SVG 1.1//EN"
 "http://www.w3.org/Graphics/SVG/1.1/DTD/svg11.dtd">
<!-- Generated by graphviz version 2.43.0 (0)
 -->
<!-- Title: OMSimPhysicsList Pages: 1 -->
<svg width="121pt" height="82pt"
 viewBox="0.00 0.00 121.00 82.00" xmlns="http://www.w3.org/2000/svg" xmlns:xlink="http://www.w3.org/1999/xlink">
<g id="graph0" class="graph" transform="scale(1 1) rotate(0) translate(4 78)">
<title>OMSimPhysicsList</title>
<!-- Node1 -->
<g id="Node000001" class="node">
<title>Node1</title>
<g id="a_Node000001"><a xlink:title="Custom physics list for optical photon processes.">
<polygon fill="#999999" stroke="#666666" points="109.5,-19 3.5,-19 3.5,0 109.5,0 109.5,-19"/>
<text text-anchor="middle" x="56.5" y="-7" font-family="Helvetica,sans-Serif" font-size="10.00">OMSimPhysicsList</text>
</a>
</g>
</g>
<!-- Node2 -->
<g id="Node000002" class="node">
<title>Node2</title>
<g id="a_Node000002"><a xlink:title=" ">
<polygon fill="white" stroke="#bfbfbf" points="113,-74 0,-74 0,-55 113,-55 113,-74"/>
<text text-anchor="middle" x="56.5" y="-62" font-family="Helvetica,sans-Serif" font-size="10.00">G4VUserPhysicsList</text>
</a>
</g>
</g>
<!-- Node2&#45;&gt;Node1 -->
<g id="edge1_Node000001_Node000002" class="edge">
<title>Node2&#45;&gt;Node1</title>
<g id="a_edge1_Node000001_Node000002"><a xlink:title=" ">
<path fill="none" stroke="#63b8ff" d="M37.15,-45.24C35.16,-36.37 36.48,-26.14 41.11,-19.09"/>
<polygon fill="#63b8ff" stroke="#63b8ff" points="34,-46.8 41,-54.75 40.49,-44.17 34,-46.8"/>
</a>
</g>
</g>
<!-- Node2&#45;&gt;Node1 -->
<g id="edge2_Node000001_Node000002" class="edge">
<title>Node2&#45;&gt;Node1</title>
<g id="a_edge2_Node000001_Node000002"><a xlink:title=" ">
<path fill="none" stroke="#63b8ff" d="M50.01,-44.66C49.41,-35.93 49.86,-25.99 51.37,-19.09"/>
<polygon fill="#63b8ff" stroke="#63b8ff" points="46.56,-45.29 51.33,-54.75 53.5,-44.38 46.56,-45.29"/>
</a>
</g>
</g>
<!-- Node2&#45;&gt;Node1 -->
<g id="edge3_Node000001_Node000002" class="edge">
<title>Node2&#45;&gt;Node1</title>
<g id="a_edge3_Node000001_Node000002"><a xlink:title=" ">
<path fill="none" stroke="#63b8ff" d="M62.99,-44.66C63.59,-35.93 63.14,-25.99 61.63,-19.09"/>
<polygon fill="#63b8ff" stroke="#63b8ff" points="59.5,-44.38 61.67,-54.75 66.44,-45.29 59.5,-44.38"/>
</a>
</g>
</g>
<!-- Node2&#45;&gt;Node1 -->
<g id="edge4_Node000001_Node000002" class="edge">
<title>Node2&#45;&gt;Node1</title>
<g id="a_edge4_Node000001_Node000002"><a xlink:title=" ">
<path fill="none" stroke="#63b8ff" d="M75.85,-45.24C77.84,-36.37 76.52,-26.14 71.89,-19.09"/>
<polygon fill="#63b8ff" stroke="#63b8ff" points="72.51,-44.17 72,-54.75 79,-46.8 72.51,-44.17"/>
</a>
</g>
</g>
</g>
</svg>
