<?xml version="1.0" encoding="UTF-8" standalone="no"?>
<!DOCTYPE svg PUBLIC "-//W3C//DTD SVG 1.1//EN"
 "http://www.w3.org/Graphics/SVG/1.1/DTD/svg11.dtd">
<!-- Generated by graphviz version 2.43.0 (0)
 -->
<!-- Title: OMSimPhysicsList Pages: 1 -->
<svg width="121pt" height="84pt"
 viewBox="0.00 0.00 121.00 84.00" xmlns="http://www.w3.org/2000/svg" xmlns:xlink="http://www.w3.org/1999/xlink">
<g id="graph0" class="graph" transform="scale(1 1) rotate(0) translate(4 80)">
<title>OMSimPhysicsList</title>
<!-- Node1 -->
<g id="node1" class="node">
<title>Node1</title>
<g id="a_node1"><a xlink:title="Custom physics list for optical photon processes.">
<polygon fill="#bfbfbf" stroke="black" points="3.5,-0.5 3.5,-19.5 109.5,-19.5 109.5,-0.5 3.5,-0.5"/>
<text text-anchor="middle" x="56.5" y="-7.5" font-family="Helvetica,sans-Serif" font-size="10.00">OMSimPhysicsList</text>
</a>
</g>
</g>
<!-- Node2 -->
<g id="node2" class="node">
<title>Node2</title>
<g id="a_node2"><a xlink:title=" ">
<polygon fill="none" stroke="#bfbfbf" points="0,-56.5 0,-75.5 113,-75.5 113,-56.5 0,-56.5"/>
<text text-anchor="middle" x="56.5" y="-63.5" font-family="Helvetica,sans-Serif" font-size="10.00">G4VUserPhysicsList</text>
</a>
</g>
</g>
<!-- Node2&#45;&gt;Node1 -->
<g id="edge1" class="edge">
<title>Node2&#45;&gt;Node1</title>
<path fill="none" stroke="midnightblue" d="M37.21,-46.69C35.13,-37.59 36.43,-27.01 41.11,-19.75"/>
<polygon fill="midnightblue" stroke="midnightblue" points="34.01,-48.12 41,-56.08 40.51,-45.5 34.01,-48.12"/>
</g>
<!-- Node2&#45;&gt;Node1 -->
<g id="edge2" class="edge">
<title>Node2&#45;&gt;Node1</title>
<path fill="none" stroke="midnightblue" d="M50.03,-46.1C49.4,-37.14 49.84,-26.86 51.37,-19.75"/>
<polygon fill="midnightblue" stroke="midnightblue" points="46.57,-46.62 51.33,-56.08 53.51,-45.71 46.57,-46.62"/>
</g>
<!-- Node2&#45;&gt;Node1 -->
<g id="edge3" class="edge">
<title>Node2&#45;&gt;Node1</title>
<path fill="none" stroke="midnightblue" d="M62.97,-46.1C63.6,-37.14 63.16,-26.86 61.63,-19.75"/>
<polygon fill="midnightblue" stroke="midnightblue" points="59.49,-45.71 61.67,-56.08 66.43,-46.62 59.49,-45.71"/>
</g>
<!-- Node2&#45;&gt;Node1 -->
<g id="edge4" class="edge">
<title>Node2&#45;&gt;Node1</title>
<path fill="none" stroke="midnightblue" d="M75.79,-46.69C77.87,-37.59 76.57,-27.01 71.89,-19.75"/>
<polygon fill="midnightblue" stroke="midnightblue" points="72.49,-45.5 72,-56.08 78.99,-48.12 72.49,-45.5"/>
</g>
</g>
</svg>
