<?xml version="1.0" encoding="UTF-8" standalone="no"?>
<!DOCTYPE svg PUBLIC "-//W3C//DTD SVG 1.1//EN"
 "http://www.w3.org/Graphics/SVG/1.1/DTD/svg11.dtd">
<!-- Generated by graphviz version 2.43.0 (0)
 -->
<!-- Title: Surface Pages: 1 -->
<svg width="108pt" height="152pt"
 viewBox="0.00 0.00 108.00 152.00" xmlns="http://www.w3.org/2000/svg" xmlns:xlink="http://www.w3.org/1999/xlink">
<g id="graph0" class="graph" transform="scale(1 1) rotate(0) translate(4 148)">
<title>Surface</title>
<!-- Node1 -->
<g id="node1" class="node">
<title>Node1</title>
<g id="a_node1"><a xlink:title="Reflective surfaces parsed from a JSON file.">
<polygon fill="#bfbfbf" stroke="black" points="19.5,-0.5 19.5,-19.5 72.5,-19.5 72.5,-0.5 19.5,-0.5"/>
<text text-anchor="middle" x="46" y="-7.5" font-family="Helvetica,sans-Serif" font-size="10.00">Surface</text>
</a>
</g>
</g>
<!-- Node2 -->
<g id="node2" class="node">
<title>Node2</title>
<g id="a_node2"><a xlink:href="classabc_data_file.html" target="_top" xlink:title="This is an abstract base class that provides an interface for handling data files in the simulation.">
<polygon fill="none" stroke="black" points="9,-57.5 9,-76.5 83,-76.5 83,-57.5 9,-57.5"/>
<text text-anchor="middle" x="46" y="-64.5" font-family="Helvetica,sans-Serif" font-size="10.00">abcDataFile</text>
</a>
</g>
</g>
<!-- Node2&#45;&gt;Node1 -->
<g id="edge1" class="edge">
<title>Node2&#45;&gt;Node1</title>
<path fill="none" stroke="midnightblue" d="M39.58,-47.42C38.87,-38.05 39.31,-27.14 40.91,-19.71"/>
<polygon fill="midnightblue" stroke="midnightblue" points="36.12,-47.97 40.94,-57.41 43.05,-47.03 36.12,-47.97"/>
</g>
<!-- Node2&#45;&gt;Node1 -->
<g id="edge3" class="edge">
<title>Node2&#45;&gt;Node1</title>
<path fill="none" stroke="midnightblue" d="M52.42,-47.42C53.13,-38.05 52.69,-27.14 51.09,-19.71"/>
<polygon fill="midnightblue" stroke="midnightblue" points="48.95,-47.03 51.06,-57.41 55.88,-47.97 48.95,-47.03"/>
</g>
<!-- Node3 -->
<g id="node3" class="node">
<title>Node3</title>
<g id="a_node3"><a xlink:href="class_parameter_table.html" target="_top" xlink:title="A utility class for managing JSON&#45;based data tables.">
<polygon fill="none" stroke="black" points="0,-124.5 0,-143.5 92,-143.5 92,-124.5 0,-124.5"/>
<text text-anchor="middle" x="46" y="-131.5" font-family="Helvetica,sans-Serif" font-size="10.00">ParameterTable</text>
</a>
</g>
</g>
<!-- Node3&#45;&gt;Node2 -->
<g id="edge2" class="edge">
<title>Node3&#45;&gt;Node2</title>
<path fill="none" stroke="#9a32cd" stroke-dasharray="5,2" d="M46,-114.04C46,-101.67 46,-86.12 46,-76.63"/>
<polygon fill="#9a32cd" stroke="#9a32cd" points="42.5,-114.23 46,-124.23 49.5,-114.23 42.5,-114.23"/>
<text text-anchor="middle" x="73" y="-98" font-family="Helvetica,sans-Serif" font-size="10.00"> mFileData</text>
</g>
</g>
</svg>
