<?xml version="1.0" encoding="UTF-8" standalone="no"?>
<!DOCTYPE svg PUBLIC "-//W3C//DTD SVG 1.1//EN"
 "http://www.w3.org/Graphics/SVG/1.1/DTD/svg11.dtd">
<!-- Generated by graphviz version 2.43.0 (0)
 -->
<!-- Title: OMSimEventAction Pages: 1 -->
<svg width="119pt" height="82pt"
 viewBox="0.00 0.00 119.00 82.00" xmlns="http://www.w3.org/2000/svg" xmlns:xlink="http://www.w3.org/1999/xlink">
<g id="graph0" class="graph" transform="scale(1 1) rotate(0) translate(4 78)">
<title>OMSimEventAction</title>
<!-- Node1 -->
<g id="Node000001" class="node">
<title>Node1</title>
<g id="a_Node000001"><a xlink:title="Handles custom actions at the beginning and end of each event.">
<polygon fill="#999999" stroke="#666666" points="110.5,-19 0.5,-19 0.5,0 110.5,0 110.5,-19"/>
<text text-anchor="middle" x="55.5" y="-7" font-family="Helvetica,sans-Serif" font-size="10.00">OMSimEventAction</text>
</a>
</g>
</g>
<!-- Node2 -->
<g id="Node000002" class="node">
<title>Node2</title>
<g id="a_Node000002"><a xlink:title=" ">
<polygon fill="white" stroke="#bfbfbf" points="111,-74 0,-74 0,-55 111,-55 111,-74"/>
<text text-anchor="middle" x="55.5" y="-62" font-family="Helvetica,sans-Serif" font-size="10.00">G4UserEventAction</text>
</a>
</g>
</g>
<!-- Node2&#45;&gt;Node1 -->
<g id="edge1_Node000001_Node000002" class="edge">
<title>Node2&#45;&gt;Node1</title>
<g id="a_edge1_Node000001_Node000002"><a xlink:title=" ">
<path fill="none" stroke="#63b8ff" d="M36.15,-45.24C34.16,-36.37 35.48,-26.14 40.11,-19.09"/>
<polygon fill="#63b8ff" stroke="#63b8ff" points="33,-46.8 40,-54.75 39.49,-44.17 33,-46.8"/>
</a>
</g>
</g>
<!-- Node2&#45;&gt;Node1 -->
<g id="edge2_Node000001_Node000002" class="edge">
<title>Node2&#45;&gt;Node1</title>
<g id="a_edge2_Node000001_Node000002"><a xlink:title=" ">
<path fill="none" stroke="#63b8ff" d="M49.01,-44.66C48.41,-35.93 48.86,-25.99 50.37,-19.09"/>
<polygon fill="#63b8ff" stroke="#63b8ff" points="45.56,-45.29 50.33,-54.75 52.5,-44.38 45.56,-45.29"/>
</a>
</g>
</g>
<!-- Node2&#45;&gt;Node1 -->
<g id="edge3_Node000001_Node000002" class="edge">
<title>Node2&#45;&gt;Node1</title>
<g id="a_edge3_Node000001_Node000002"><a xlink:title=" ">
<path fill="none" stroke="#63b8ff" d="M61.99,-44.66C62.59,-35.93 62.14,-25.99 60.63,-19.09"/>
<polygon fill="#63b8ff" stroke="#63b8ff" points="58.5,-44.38 60.67,-54.75 65.44,-45.29 58.5,-44.38"/>
</a>
</g>
</g>
<!-- Node2&#45;&gt;Node1 -->
<g id="edge4_Node000001_Node000002" class="edge">
<title>Node2&#45;&gt;Node1</title>
<g id="a_edge4_Node000001_Node000002"><a xlink:title=" ">
<path fill="none" stroke="#63b8ff" d="M74.85,-45.24C76.84,-36.37 75.52,-26.14 70.89,-19.09"/>
<polygon fill="#63b8ff" stroke="#63b8ff" points="71.51,-44.17 71,-54.75 78,-46.8 71.51,-44.17"/>
</a>
</g>
</g>
</g>
</svg>
