<?xml version="1.0" encoding="UTF-8" standalone="no"?>
<!DOCTYPE svg PUBLIC "-//W3C//DTD SVG 1.1//EN"
 "http://www.w3.org/Graphics/SVG/1.1/DTD/svg11.dtd">
<!-- Generated by graphviz version 2.43.0 (0)
 -->
<!-- Title: OMSimPrimaryGeneratorAction Pages: 1 -->
<svg width="637pt" height="303pt"
 viewBox="0.00 0.00 636.50 303.00" xmlns="http://www.w3.org/2000/svg" xmlns:xlink="http://www.w3.org/1999/xlink">
<g id="graph0" class="graph" transform="scale(1 1) rotate(0) translate(4 299)">
<title>OMSimPrimaryGeneratorAction</title>
<!-- Node1 -->
<g id="Node000001" class="node">
<title>Node1</title>
<g id="a_Node000001"><a xlink:title="Generates primary particles for WavePID simulation.">
<polygon fill="#999999" stroke="#666666" points="283.5,-85 113.5,-85 113.5,-66 283.5,-66 283.5,-85"/>
<text text-anchor="middle" x="198.5" y="-73" font-family="Helvetica,sans-Serif" font-size="10.00">OMSimPrimaryGeneratorAction</text>
</a>
</g>
</g>
<!-- Node8 -->
<g id="Node000008" class="node">
<title>Node8</title>
<g id="a_Node000008"><a xlink:href="class_o_m_sim_primary_generator_messenger.html" target="_top" xlink:title=" ">
<polygon fill="white" stroke="#bfbfbf" points="222.5,-19 30.5,-19 30.5,0 222.5,0 222.5,-19"/>
<text text-anchor="middle" x="126.5" y="-7" font-family="Helvetica,sans-Serif" font-size="10.00">OMSimPrimaryGeneratorMessenger</text>
</a>
</g>
</g>
<!-- Node1&#45;&gt;Node8 -->
<g id="edge15_Node000008_Node000001" class="edge">
<title>Node1&#45;&gt;Node8</title>
<g id="a_edge15_Node000008_Node000001"><a xlink:title=" ">
<path fill="none" stroke="#9a32cd" stroke-dasharray="5,2" d="M137.97,-61.14C132.34,-57.71 127.32,-53.4 123.5,-48 117.54,-39.57 120.08,-27.27 122.9,-19.07"/>
<polygon fill="#9a32cd" stroke="#9a32cd" points="136.74,-64.45 147.24,-65.85 139.91,-58.2 136.74,-64.45"/>
</a>
</g>
<text text-anchor="middle" x="148" y="-40" font-family="Helvetica,sans-Serif" font-size="10.00" fill="grey"> m_action</text>
</g>
<!-- Node2 -->
<g id="Node000002" class="node">
<title>Node2</title>
<g id="a_Node000002"><a xlink:title=" ">
<polygon fill="white" stroke="#bfbfbf" points="287,-295 110,-295 110,-276 287,-276 287,-295"/>
<text text-anchor="middle" x="198.5" y="-283" font-family="Helvetica,sans-Serif" font-size="10.00">G4VUserPrimaryGeneratorAction</text>
</a>
</g>
</g>
<!-- Node2&#45;&gt;Node1 -->
<g id="edge1_Node000001_Node000002" class="edge">
<title>Node2&#45;&gt;Node1</title>
<g id="a_edge1_Node000001_Node000002"><a xlink:title=" ">
<path fill="none" stroke="#63b8ff" d="M182.53,-266.63C166.51,-223.79 167.94,-116.52 186.82,-85.21"/>
<polygon fill="#63b8ff" stroke="#63b8ff" points="179.43,-268.26 186.85,-275.83 185.77,-265.29 179.43,-268.26"/>
</a>
</g>
</g>
<!-- Node2&#45;&gt;Node1 -->
<g id="edge2_Node000001_Node000002" class="edge">
<title>Node2&#45;&gt;Node1</title>
<g id="a_edge2_Node000001_Node000002"><a xlink:title=" ">
<path fill="none" stroke="#63b8ff" d="M190.41,-266.08C182.51,-222.89 183.26,-116.39 192.66,-85.21"/>
<polygon fill="#63b8ff" stroke="#63b8ff" points="187,-266.88 192.67,-275.83 193.82,-265.3 187,-266.88"/>
</a>
</g>
</g>
<!-- Node2&#45;&gt;Node1 -->
<g id="edge3_Node000001_Node000002" class="edge">
<title>Node2&#45;&gt;Node1</title>
<g id="a_edge3_Node000001_Node000002"><a xlink:title=" ">
<path fill="none" stroke="#63b8ff" d="M198.5,-265.8C198.5,-222.43 198.5,-116.32 198.5,-85.21"/>
<polygon fill="#63b8ff" stroke="#63b8ff" points="195,-265.83 198.5,-275.83 202,-265.83 195,-265.83"/>
</a>
</g>
</g>
<!-- Node2&#45;&gt;Node1 -->
<g id="edge4_Node000001_Node000002" class="edge">
<title>Node2&#45;&gt;Node1</title>
<g id="a_edge4_Node000001_Node000002"><a xlink:title=" ">
<path fill="none" stroke="#63b8ff" d="M206.59,-266.08C214.49,-222.89 213.74,-116.39 204.34,-85.21"/>
<polygon fill="#63b8ff" stroke="#63b8ff" points="203.18,-265.3 204.33,-275.83 210,-266.88 203.18,-265.3"/>
</a>
</g>
</g>
<!-- Node2&#45;&gt;Node1 -->
<g id="edge5_Node000001_Node000002" class="edge">
<title>Node2&#45;&gt;Node1</title>
<g id="a_edge5_Node000001_Node000002"><a xlink:title=" ">
<path fill="none" stroke="#63b8ff" d="M214.47,-266.63C230.49,-223.79 229.06,-116.52 210.18,-85.21"/>
<polygon fill="#63b8ff" stroke="#63b8ff" points="211.23,-265.29 210.15,-275.83 217.57,-268.26 211.23,-265.29"/>
</a>
</g>
</g>
<!-- Node4 -->
<g id="Node000004" class="node">
<title>Node4</title>
<g id="a_Node000004"><a xlink:href="class_s_n_base_particle_generator.html" target="_top" xlink:title=" ">
<polygon fill="white" stroke="#bfbfbf" points="420,-207 281,-207 281,-188 420,-188 420,-207"/>
<text text-anchor="middle" x="350.5" y="-195" font-family="Helvetica,sans-Serif" font-size="10.00">SNBaseParticleGenerator</text>
</a>
</g>
</g>
<!-- Node2&#45;&gt;Node4 -->
<g id="edge8_Node000004_Node000002" class="edge">
<title>Node2&#45;&gt;Node4</title>
<g id="a_edge8_Node000004_Node000002"><a xlink:title=" ">
<path fill="none" stroke="#63b8ff" d="M224.3,-271.08C232.11,-266.95 240.69,-262.35 248.5,-258 280.03,-240.46 316.42,-218.91 336.08,-207.16"/>
<polygon fill="#63b8ff" stroke="#63b8ff" points="222.48,-268.08 215.26,-275.84 225.74,-274.28 222.48,-268.08"/>
</a>
</g>
</g>
<!-- Node3 -->
<g id="Node000003" class="node">
<title>Node3</title>
<g id="a_Node000003"><a xlink:href="class_o_m_sim_i_b_d.html" target="_top" xlink:title="Class in charge of generating positrons from IBD of supernova antineutrino interactions.">
<polygon fill="white" stroke="#666666" points="332,-151 263,-151 263,-132 332,-132 332,-151"/>
<text text-anchor="middle" x="297.5" y="-139" font-family="Helvetica,sans-Serif" font-size="10.00">OMSimIBD</text>
</a>
</g>
</g>
<!-- Node3&#45;&gt;Node1 -->
<g id="edge6_Node000001_Node000003" class="edge">
<title>Node3&#45;&gt;Node1</title>
<g id="a_edge6_Node000001_Node000003"><a xlink:title=" ">
<path fill="none" stroke="#9a32cd" stroke-dasharray="5,2" d="M279.46,-125.55C270.42,-118.36 259.16,-109.84 248.5,-103 238.25,-96.42 226.19,-90 216.49,-85.13"/>
<polygon fill="#9a32cd" stroke="#9a32cd" points="277.38,-128.36 287.35,-131.93 281.78,-122.92 277.38,-128.36"/>
</a>
</g>
<text text-anchor="middle" x="292" y="-106" font-family="Helvetica,sans-Serif" font-size="10.00" fill="grey"> m_action0</text>
</g>
<!-- Node4&#45;&gt;Node3 -->
<g id="edge7_Node000003_Node000004" class="edge">
<title>Node4&#45;&gt;Node3</title>
<g id="a_edge7_Node000003_Node000004"><a xlink:title=" ">
<path fill="none" stroke="#63b8ff" d="M334.52,-180.22C325.18,-170.7 313.75,-159.06 306.09,-151.25"/>
<polygon fill="#63b8ff" stroke="#63b8ff" points="332.25,-182.9 341.75,-187.58 337.24,-177.99 332.25,-182.9"/>
</a>
</g>
</g>
<!-- Node7 -->
<g id="Node000007" class="node">
<title>Node7</title>
<g id="a_Node000007"><a xlink:href="class_o_m_sim_e_n_e_s.html" target="_top" xlink:title="Class in charge of generating electrons from Electron&#45;electron_Neutrino Elastic Scattering (ENES) nu_...">
<polygon fill="white" stroke="#666666" points="427,-151 350,-151 350,-132 427,-132 427,-151"/>
<text text-anchor="middle" x="388.5" y="-139" font-family="Helvetica,sans-Serif" font-size="10.00">OMSimENES</text>
</a>
</g>
</g>
<!-- Node4&#45;&gt;Node7 -->
<g id="edge12_Node000007_Node000004" class="edge">
<title>Node4&#45;&gt;Node7</title>
<g id="a_edge12_Node000007_Node000004"><a xlink:title=" ">
<path fill="none" stroke="#63b8ff" d="M362.56,-179.36C369.14,-170 377.01,-158.83 382.34,-151.25"/>
<polygon fill="#63b8ff" stroke="#63b8ff" points="359.67,-177.39 356.77,-187.58 365.39,-181.42 359.67,-177.39"/>
</a>
</g>
</g>
<!-- Node5 -->
<g id="Node000005" class="node">
<title>Node5</title>
<g id="a_Node000005"><a xlink:href="class_o_m_sim_s_n_tools.html" target="_top" xlink:title="Provides utility methods for generating ENES and IBD interactions.">
<polygon fill="white" stroke="#666666" points="395.5,-295 305.5,-295 305.5,-276 395.5,-276 395.5,-295"/>
<text text-anchor="middle" x="350.5" y="-283" font-family="Helvetica,sans-Serif" font-size="10.00">OMSimSNTools</text>
</a>
</g>
</g>
<!-- Node5&#45;&gt;Node4 -->
<g id="edge9_Node000004_Node000005" class="edge">
<title>Node5&#45;&gt;Node4</title>
<g id="a_edge9_Node000004_Node000005"><a xlink:title=" ">
<path fill="none" stroke="#9a32cd" stroke-dasharray="5,2" d="M350.5,-265.91C350.5,-247.67 350.5,-220.65 350.5,-207.03"/>
<polygon fill="#9a32cd" stroke="#9a32cd" points="347,-265.94 350.5,-275.94 354,-265.94 347,-265.94"/>
</a>
</g>
<text text-anchor="middle" x="385.5" y="-239" font-family="Helvetica,sans-Serif" font-size="10.00" fill="grey"> m_SNToolBox</text>
</g>
<!-- Node6 -->
<g id="Node000006" class="node">
<title>Node6</title>
<g id="a_Node000006"><a xlink:href="class_distribution_sampler.html" target="_top" xlink:title="Utility class for sampling from a given distribution using the inverse cumulative function and interp...">
<polygon fill="white" stroke="#666666" points="527.5,-295 413.5,-295 413.5,-276 527.5,-276 527.5,-295"/>
<text text-anchor="middle" x="470.5" y="-283" font-family="Helvetica,sans-Serif" font-size="10.00">DistributionSampler</text>
</a>
</g>
</g>
<!-- Node6&#45;&gt;Node4 -->
<g id="edge10_Node000004_Node000006" class="edge">
<title>Node6&#45;&gt;Node4</title>
<g id="a_edge10_Node000004_Node000006"><a xlink:title=" ">
<path fill="none" stroke="#9a32cd" stroke-dasharray="5,2" d="M460.94,-267.31C452.8,-254.09 439.97,-236.24 424.5,-225 413.46,-216.98 399.75,-211.18 387.15,-207.09"/>
<polygon fill="#9a32cd" stroke="#9a32cd" points="457.93,-269.11 466.01,-275.96 463.97,-265.56 457.93,-269.11"/>
</a>
</g>
<text text-anchor="middle" x="541.5" y="-250" font-family="Helvetica,sans-Serif" font-size="10.00" fill="grey"> m_meanEnergyDistribution</text>
<text text-anchor="middle" x="541.5" y="-239" font-family="Helvetica,sans-Serif" font-size="10.00" fill="grey">m_meanEnergySquaredDistribution</text>
<text text-anchor="middle" x="541.5" y="-228" font-family="Helvetica,sans-Serif" font-size="10.00" fill="grey">m_timeDistribution</text>
</g>
<!-- Node7&#45;&gt;Node1 -->
<g id="edge11_Node000001_Node000007" class="edge">
<title>Node7&#45;&gt;Node1</title>
<g id="a_edge11_Node000001_Node000007"><a xlink:title=" ">
<path fill="none" stroke="#9a32cd" stroke-dasharray="5,2" d="M367.53,-126.13C355.19,-118.27 339.01,-108.95 323.5,-103 302.58,-94.98 278.71,-89.16 257.47,-85.06"/>
<polygon fill="#9a32cd" stroke="#9a32cd" points="365.86,-129.23 376.14,-131.78 369.7,-123.37 365.86,-129.23"/>
</a>
</g>
<text text-anchor="middle" x="374" y="-106" font-family="Helvetica,sans-Serif" font-size="10.00" fill="grey"> m_action1</text>
</g>
<!-- Node8&#45;&gt;Node1 -->
<g id="edge13_Node000001_Node000008" class="edge">
<title>Node8&#45;&gt;Node1</title>
<g id="a_edge13_Node000001_Node000008"><a xlink:title=" ">
<path fill="none" stroke="#9a32cd" stroke-dasharray="5,2" d="M157.82,-23.68C164.46,-27.37 171.09,-31.81 176.5,-37 185.11,-45.25 191.47,-57.6 195.08,-65.85"/>
<polygon fill="#9a32cd" stroke="#9a32cd" points="159.37,-20.54 148.87,-19.11 156.19,-26.77 159.37,-20.54"/>
</a>
</g>
<text text-anchor="middle" x="230.5" y="-40" font-family="Helvetica,sans-Serif" font-size="10.00" fill="grey"> m_gunMessenger</text>
</g>
<!-- Node9 -->
<g id="Node000009" class="node">
<title>Node9</title>
<g id="a_Node000009"><a xlink:title=" ">
<polygon fill="white" stroke="#bfbfbf" points="95,-85 0,-85 0,-66 95,-66 95,-85"/>
<text text-anchor="middle" x="47.5" y="-73" font-family="Helvetica,sans-Serif" font-size="10.00">G4UImessenger</text>
</a>
</g>
</g>
<!-- Node9&#45;&gt;Node8 -->
<g id="edge14_Node000008_Node000009" class="edge">
<title>Node9&#45;&gt;Node8</title>
<g id="a_edge14_Node000008_Node000009"><a xlink:title=" ">
<path fill="none" stroke="#63b8ff" d="M66.03,-59.49C81.5,-46.96 103,-29.54 115.76,-19.2"/>
<polygon fill="#63b8ff" stroke="#63b8ff" points="63.72,-56.85 58.15,-65.87 68.13,-62.29 63.72,-56.85"/>
</a>
</g>
</g>
</g>
</svg>
