<?xml version="1.0" encoding="UTF-8" standalone="no"?>
<!DOCTYPE svg PUBLIC "-//W3C//DTD SVG 1.1//EN"
 "http://www.w3.org/Graphics/SVG/1.1/DTD/svg11.dtd">
<!-- Generated by graphviz version 2.43.0 (0)
 -->
<!-- Title: IsotopeDecays Pages: 1 -->
<svg width="236pt" height="343pt"
 viewBox="0.00 0.00 236.00 343.00" xmlns="http://www.w3.org/2000/svg" xmlns:xlink="http://www.w3.org/1999/xlink">
<g id="graph0" class="graph" transform="scale(1 1) rotate(0) translate(4 339)">
<title>IsotopeDecays</title>
<polygon fill="white" stroke="transparent" points="-4,4 -4,-339 232,-339 232,4 -4,4"/>
<!-- Node1 -->
<g id="node1" class="node">
<title>Node1</title>
<g id="a_node1"><a xlink:title="A class for simulating isotope decays inside the pressure vessel and PMT glass.">
<polygon fill="#bfbfbf" stroke="black" points="37.5,-0.5 37.5,-19.5 126.5,-19.5 126.5,-0.5 37.5,-0.5"/>
<text text-anchor="middle" x="82" y="-7.5" font-family="Helvetica,sans-Serif" font-size="10.00">IsotopeDecays</text>
</a>
</g>
</g>
<!-- Node2 -->
<g id="node2" class="node">
<title>Node2</title>
<g id="a_node2"><a xlink:href="class_o_m_sim_optical_module.html" target="_top" xlink:title="Base class for OMs works as interface.">
<polygon fill="white" stroke="black" points="21,-67.5 21,-86.5 143,-86.5 143,-67.5 21,-67.5"/>
<text text-anchor="middle" x="82" y="-74.5" font-family="Helvetica,sans-Serif" font-size="10.00">OMSimOpticalModule</text>
</a>
</g>
</g>
<!-- Node2&#45;&gt;Node1 -->
<g id="edge1" class="edge">
<title>Node2&#45;&gt;Node1</title>
<path fill="none" stroke="#9a32cd" stroke-dasharray="5,2" d="M82,-57.04C82,-44.67 82,-29.12 82,-19.63"/>
<polygon fill="#9a32cd" stroke="#9a32cd" points="78.5,-57.23 82,-67.23 85.5,-57.23 78.5,-57.23"/>
<text text-anchor="middle" x="97" y="-41" font-family="Helvetica,sans-Serif" font-size="10.00"> mOM</text>
</g>
<!-- Node3 -->
<g id="node3" class="node">
<title>Node3</title>
<g id="a_node3"><a xlink:href="classabc_detector_component.html" target="_top" xlink:title="Abstract base class used for constructing detector components.">
<polygon fill="white" stroke="black" points="0,-191.5 0,-210.5 132,-210.5 132,-191.5 0,-191.5"/>
<text text-anchor="middle" x="66" y="-198.5" font-family="Helvetica,sans-Serif" font-size="10.00">abcDetectorComponent</text>
</a>
</g>
</g>
<!-- Node3&#45;&gt;Node2 -->
<g id="edge2" class="edge">
<title>Node3&#45;&gt;Node2</title>
<path fill="none" stroke="midnightblue" d="M68.47,-181.19C71.98,-154.4 78.29,-106.31 80.86,-86.69"/>
<polygon fill="midnightblue" stroke="midnightblue" points="64.98,-180.86 67.15,-191.23 71.92,-181.77 64.98,-180.86"/>
</g>
<!-- Node6 -->
<g id="node6" class="node">
<title>Node6</title>
<g id="a_node6"><a xlink:href="class_o_m_sim_p_m_t_construction.html" target="_top" xlink:title=" ">
<polygon fill="white" stroke="black" points="94,-134.5 94,-153.5 228,-153.5 228,-134.5 94,-134.5"/>
<text text-anchor="middle" x="161" y="-141.5" font-family="Helvetica,sans-Serif" font-size="10.00">OMSimPMTConstruction</text>
</a>
</g>
</g>
<!-- Node3&#45;&gt;Node6 -->
<g id="edge6" class="edge">
<title>Node3&#45;&gt;Node6</title>
<path fill="none" stroke="midnightblue" d="M89.5,-186.39C107.26,-176.11 131.1,-162.31 146.26,-153.53"/>
<polygon fill="midnightblue" stroke="midnightblue" points="87.74,-183.37 80.84,-191.41 91.25,-189.42 87.74,-183.37"/>
</g>
<!-- Node4 -->
<g id="node4" class="node">
<title>Node4</title>
<g id="a_node4"><a xlink:href="class_input_data_manager.html" target="_top" xlink:title="Manages the input data, including parsing and storing material properties.">
<polygon fill="white" stroke="black" points="63.5,-258.5 63.5,-277.5 170.5,-277.5 170.5,-258.5 63.5,-258.5"/>
<text text-anchor="middle" x="117" y="-265.5" font-family="Helvetica,sans-Serif" font-size="10.00">InputDataManager</text>
</a>
</g>
</g>
<!-- Node4&#45;&gt;Node3 -->
<g id="edge3" class="edge">
<title>Node4&#45;&gt;Node3</title>
<path fill="none" stroke="#9a32cd" stroke-dasharray="5,2" d="M103.87,-250.27C93.93,-237.6 80.67,-220.7 72.77,-210.63"/>
<polygon fill="#9a32cd" stroke="#9a32cd" points="101.2,-252.53 110.12,-258.23 106.7,-248.21 101.2,-252.53"/>
<text text-anchor="middle" x="113.5" y="-232" font-family="Helvetica,sans-Serif" font-size="10.00"> mData</text>
</g>
<!-- Node4&#45;&gt;Node6 -->
<g id="edge7" class="edge">
<title>Node4&#45;&gt;Node6</title>
<path fill="none" stroke="#9a32cd" stroke-dasharray="5,2" d="M130.23,-250.13C132.37,-246.89 134.4,-243.43 136,-240 149.95,-210 157.11,-170.91 159.77,-153.74"/>
<polygon fill="#9a32cd" stroke="#9a32cd" points="127.2,-248.34 124.18,-258.49 132.88,-252.44 127.2,-248.34"/>
<text text-anchor="middle" x="170.5" y="-198.5" font-family="Helvetica,sans-Serif" font-size="10.00"> mData</text>
</g>
<!-- Node5 -->
<g id="node5" class="node">
<title>Node5</title>
<g id="a_node5"><a xlink:href="class_parameter_table.html" target="_top" xlink:title="A utility class for managing JSON&#45;based data tables.">
<polygon fill="white" stroke="black" points="71,-315.5 71,-334.5 163,-334.5 163,-315.5 71,-315.5"/>
<text text-anchor="middle" x="117" y="-322.5" font-family="Helvetica,sans-Serif" font-size="10.00">ParameterTable</text>
</a>
</g>
</g>
<!-- Node5&#45;&gt;Node4 -->
<g id="edge4" class="edge">
<title>Node5&#45;&gt;Node4</title>
<path fill="none" stroke="midnightblue" d="M117,-305.12C117,-295.82 117,-285.06 117,-277.71"/>
<polygon fill="midnightblue" stroke="midnightblue" points="113.5,-305.41 117,-315.41 120.5,-305.41 113.5,-305.41"/>
</g>
<!-- Node6&#45;&gt;Node2 -->
<g id="edge5" class="edge">
<title>Node6&#45;&gt;Node2</title>
<path fill="none" stroke="#9a32cd" stroke-dasharray="5,2" d="M142.42,-127.71C126.86,-114.91 105.2,-97.09 92.49,-86.63"/>
<polygon fill="#9a32cd" stroke="#9a32cd" points="140.4,-130.58 150.35,-134.23 144.85,-125.18 140.4,-130.58"/>
<text text-anchor="middle" x="164.5" y="-108" font-family="Helvetica,sans-Serif" font-size="10.00"> mPMTManager</text>
</g>
</g>
</svg>
