<?xml version="1.0" encoding="UTF-8" standalone="no"?>
<!DOCTYPE svg PUBLIC "-//W3C//DTD SVG 1.1//EN"
 "http://www.w3.org/Graphics/SVG/1.1/DTD/svg11.dtd">
<!-- Generated by graphviz version 2.43.0 (0)
 -->
<!-- Title: mDOMHarness Pages: 1 -->
<svg width="373pt" height="342pt"
 viewBox="0.00 0.00 372.67 342.00" xmlns="http://www.w3.org/2000/svg" xmlns:xlink="http://www.w3.org/1999/xlink">
<g id="graph0" class="graph" transform="scale(1 1) rotate(0) translate(4 338)">
<title>mDOMHarness</title>
<polygon fill="white" stroke="transparent" points="-4,4 -4,-338 368.67,-338 368.67,4 -4,4"/>
<!-- Node1 -->
<g id="node1" class="node">
<title>Node1</title>
<g id="a_node1"><a xlink:title=" ">
<polygon fill="#bfbfbf" stroke="black" points="11.67,-133.5 11.67,-152.5 101.67,-152.5 101.67,-133.5 11.67,-133.5"/>
<text text-anchor="middle" x="56.67" y="-140.5" font-family="Helvetica,sans-Serif" font-size="10.00">mDOMHarness</text>
</a>
</g>
</g>
<!-- Node5 -->
<g id="node5" class="node">
<title>Node5</title>
<g id="a_node5"><a xlink:href="classm_d_o_m.html" target="_top" xlink:title=" ">
<polygon fill="white" stroke="black" points="75.67,-0.5 75.67,-19.5 125.67,-19.5 125.67,-0.5 75.67,-0.5"/>
<text text-anchor="middle" x="100.67" y="-7.5" font-family="Helvetica,sans-Serif" font-size="10.00">mDOM</text>
</a>
</g>
</g>
<!-- Node1&#45;&gt;Node5 -->
<g id="edge10" class="edge">
<title>Node1&#45;&gt;Node5</title>
<path fill="none" stroke="#9a32cd" stroke-dasharray="5,2" d="M55.13,-123.27C54.38,-105.56 55.07,-78.55 63.67,-57 69.6,-42.15 82.04,-28.32 90.86,-19.78"/>
<polygon fill="#9a32cd" stroke="#9a32cd" points="51.65,-123.66 55.77,-133.42 58.63,-123.22 51.65,-123.66"/>
<text text-anchor="middle" x="90.17" y="-64.5" font-family="Helvetica,sans-Serif" font-size="10.00"> mHarness</text>
</g>
<!-- Node2 -->
<g id="node2" class="node">
<title>Node2</title>
<g id="a_node2"><a xlink:href="classabc_detector_component.html" target="_top" xlink:title="Abstract base class used for constructing detector components.">
<polygon fill="white" stroke="black" points="125.67,-190.5 125.67,-209.5 257.67,-209.5 257.67,-190.5 125.67,-190.5"/>
<text text-anchor="middle" x="191.67" y="-197.5" font-family="Helvetica,sans-Serif" font-size="10.00">abcDetectorComponent</text>
</a>
</g>
</g>
<!-- Node2&#45;&gt;Node1 -->
<g id="edge1" class="edge">
<title>Node2&#45;&gt;Node1</title>
<path fill="none" stroke="midnightblue" d="M161.02,-186.51C135.53,-176.13 99.95,-161.63 77.62,-152.53"/>
<polygon fill="midnightblue" stroke="midnightblue" points="160,-189.87 170.58,-190.41 162.64,-183.39 160,-189.87"/>
</g>
<!-- Node6 -->
<g id="node6" class="node">
<title>Node6</title>
<g id="a_node6"><a xlink:href="class_o_m_sim_optical_module.html" target="_top" xlink:title="Base class for OMs works as interface.">
<polygon fill="white" stroke="black" points="218.67,-57.5 218.67,-76.5 340.67,-76.5 340.67,-57.5 218.67,-57.5"/>
<text text-anchor="middle" x="279.67" y="-64.5" font-family="Helvetica,sans-Serif" font-size="10.00">OMSimOpticalModule</text>
</a>
</g>
</g>
<!-- Node2&#45;&gt;Node6 -->
<g id="edge6" class="edge">
<title>Node2&#45;&gt;Node6</title>
<path fill="none" stroke="midnightblue" d="M196.8,-180.62C201.13,-166.86 208.15,-147.9 217.67,-133 232.28,-110.13 255.67,-88.32 269.16,-76.7"/>
<polygon fill="midnightblue" stroke="midnightblue" points="193.39,-179.8 193.91,-190.38 200.1,-181.79 193.39,-179.8"/>
</g>
<!-- Node7 -->
<g id="node7" class="node">
<title>Node7</title>
<g id="a_node7"><a xlink:href="class_o_m_sim_p_m_t_construction.html" target="_top" xlink:title=" ">
<polygon fill="white" stroke="black" points="226.67,-133.5 226.67,-152.5 360.67,-152.5 360.67,-133.5 226.67,-133.5"/>
<text text-anchor="middle" x="293.67" y="-140.5" font-family="Helvetica,sans-Serif" font-size="10.00">OMSimPMTConstruction</text>
</a>
</g>
</g>
<!-- Node2&#45;&gt;Node7 -->
<g id="edge8" class="edge">
<title>Node2&#45;&gt;Node7</title>
<path fill="none" stroke="midnightblue" d="M216.64,-185.54C235.74,-175.24 261.5,-161.35 277.85,-152.53"/>
<polygon fill="midnightblue" stroke="midnightblue" points="214.75,-182.58 207.61,-190.41 218.07,-188.74 214.75,-182.58"/>
</g>
<!-- Node8 -->
<g id="node8" class="node">
<title>Node8</title>
<g id="a_node8"><a xlink:href="classm_d_o_m_flasher.html" target="_top" xlink:title="The mDOMFlasher class represents the 10 flashers in an mDOM optical module.">
<polygon fill="white" stroke="black" points="97.67,-95.5 97.67,-114.5 183.67,-114.5 183.67,-95.5 97.67,-95.5"/>
<text text-anchor="middle" x="140.67" y="-102.5" font-family="Helvetica,sans-Serif" font-size="10.00">mDOMFlasher</text>
</a>
</g>
</g>
<!-- Node2&#45;&gt;Node8 -->
<g id="edge12" class="edge">
<title>Node2&#45;&gt;Node8</title>
<path fill="none" stroke="midnightblue" d="M182.05,-181.45C171.1,-161.49 153.67,-129.7 145.37,-114.56"/>
<polygon fill="midnightblue" stroke="midnightblue" points="179.09,-183.33 186.96,-190.42 185.22,-179.97 179.09,-183.33"/>
</g>
<!-- Node3 -->
<g id="node3" class="node">
<title>Node3</title>
<g id="a_node3"><a xlink:href="class_input_data_manager.html" target="_top" xlink:title="Manages the input data, including parsing and storing material properties.">
<polygon fill="white" stroke="black" points="189.17,-257.5 189.17,-276.5 296.17,-276.5 296.17,-257.5 189.17,-257.5"/>
<text text-anchor="middle" x="242.67" y="-264.5" font-family="Helvetica,sans-Serif" font-size="10.00">InputDataManager</text>
</a>
</g>
</g>
<!-- Node3&#45;&gt;Node2 -->
<g id="edge2" class="edge">
<title>Node3&#45;&gt;Node2</title>
<path fill="none" stroke="#9a32cd" stroke-dasharray="5,2" d="M229.54,-249.27C219.6,-236.6 206.34,-219.7 198.44,-209.63"/>
<polygon fill="#9a32cd" stroke="#9a32cd" points="226.87,-251.53 235.79,-257.23 232.37,-247.21 226.87,-251.53"/>
<text text-anchor="middle" x="238.17" y="-231" font-family="Helvetica,sans-Serif" font-size="10.00"> mData</text>
</g>
<!-- Node3&#45;&gt;Node7 -->
<g id="edge9" class="edge">
<title>Node3&#45;&gt;Node7</title>
<path fill="none" stroke="#9a32cd" stroke-dasharray="5,2" d="M254.96,-248.96C257.02,-245.74 259.02,-242.33 260.67,-239 275.74,-208.67 286.92,-169.75 291.45,-152.68"/>
<polygon fill="#9a32cd" stroke="#9a32cd" points="251.99,-247.11 249.26,-257.34 257.78,-251.04 251.99,-247.11"/>
<text text-anchor="middle" x="298.17" y="-197.5" font-family="Helvetica,sans-Serif" font-size="10.00"> mData</text>
</g>
<!-- Node4 -->
<g id="node4" class="node">
<title>Node4</title>
<g id="a_node4"><a xlink:href="class_parameter_table.html" target="_top" xlink:title="A utility class for managing JSON&#45;based data tables.">
<polygon fill="white" stroke="black" points="196.67,-314.5 196.67,-333.5 288.67,-333.5 288.67,-314.5 196.67,-314.5"/>
<text text-anchor="middle" x="242.67" y="-321.5" font-family="Helvetica,sans-Serif" font-size="10.00">ParameterTable</text>
</a>
</g>
</g>
<!-- Node4&#45;&gt;Node3 -->
<g id="edge3" class="edge">
<title>Node4&#45;&gt;Node3</title>
<path fill="none" stroke="midnightblue" d="M242.67,-304.12C242.67,-294.82 242.67,-284.06 242.67,-276.71"/>
<polygon fill="midnightblue" stroke="midnightblue" points="239.17,-304.41 242.67,-314.41 246.17,-304.41 239.17,-304.41"/>
</g>
<!-- Node5&#45;&gt;Node1 -->
<g id="edge4" class="edge">
<title>Node5&#45;&gt;Node1</title>
<path fill="none" stroke="#9a32cd" stroke-dasharray="5,2" d="M65.65,-17.82C43.97,-24.05 17.84,-35.69 4.67,-57 -12.52,-84.81 24.02,-117.89 44.32,-133.3"/>
<polygon fill="#9a32cd" stroke="#9a32cd" points="66.75,-21.15 75.55,-15.24 64.99,-14.37 66.75,-21.15"/>
<text text-anchor="middle" x="19.67" y="-64.5" font-family="Helvetica,sans-Serif" font-size="10.00"> mOM</text>
</g>
<!-- Node6&#45;&gt;Node5 -->
<g id="edge5" class="edge">
<title>Node6&#45;&gt;Node5</title>
<path fill="none" stroke="midnightblue" d="M241.86,-54.38C206.94,-43.65 156.04,-28.01 125.84,-18.73"/>
<polygon fill="midnightblue" stroke="midnightblue" points="241.11,-57.81 251.7,-57.41 243.17,-51.12 241.11,-57.81"/>
</g>
<!-- Node7&#45;&gt;Node6 -->
<g id="edge7" class="edge">
<title>Node7&#45;&gt;Node6</title>
<path fill="none" stroke="#9a32cd" stroke-dasharray="5,2" d="M290.09,-123.07C287.27,-108.18 283.48,-88.11 281.33,-76.77"/>
<polygon fill="#9a32cd" stroke="#9a32cd" points="286.71,-124.05 292.01,-133.22 293.59,-122.74 286.71,-124.05"/>
<text text-anchor="middle" x="326.17" y="-102.5" font-family="Helvetica,sans-Serif" font-size="10.00"> mPMTManager</text>
</g>
<!-- Node8&#45;&gt;Node5 -->
<g id="edge11" class="edge">
<title>Node8&#45;&gt;Node5</title>
<path fill="none" stroke="#9a32cd" stroke-dasharray="5,2" d="M133,-86.17C124.41,-66.2 110.84,-34.63 104.35,-19.56"/>
<polygon fill="#9a32cd" stroke="#9a32cd" points="129.81,-87.61 136.98,-95.42 136.24,-84.85 129.81,-87.61"/>
<text text-anchor="middle" x="156.17" y="-64.5" font-family="Helvetica,sans-Serif" font-size="10.00"> mFlashers</text>
</g>
</g>
</svg>
