<?xml version="1.0" encoding="UTF-8" standalone="no"?>
<!DOCTYPE svg PUBLIC "-//W3C//DTD SVG 1.1//EN"
 "http://www.w3.org/Graphics/SVG/1.1/DTD/svg11.dtd">
<!-- Generated by graphviz version 2.43.0 (0)
 -->
<!-- Title: abcMaterialData Pages: 1 -->
<svg width="422pt" height="140pt"
 viewBox="0.00 0.00 421.50 140.00" xmlns="http://www.w3.org/2000/svg" xmlns:xlink="http://www.w3.org/1999/xlink">
<g id="graph0" class="graph" transform="scale(1 1) rotate(0) translate(4 136)">
<title>abcMaterialData</title>
<!-- Node1 -->
<g id="node1" class="node">
<title>Node1</title>
<g id="a_node1"><a xlink:title="Abstract base class for material data extraction from a json file. abcMaterialData class is derived f...">
<polygon fill="#bfbfbf" stroke="black" points="129,-56.5 129,-75.5 227,-75.5 227,-56.5 129,-56.5"/>
<text text-anchor="middle" x="178" y="-63.5" font-family="Helvetica,sans-Serif" font-size="10.00">abcMaterialData</text>
</a>
</g>
</g>
<!-- Node3 -->
<g id="node3" class="node">
<title>Node3</title>
<g id="a_node3"><a xlink:href="class_ice_cube_ice.html" target="_top" xlink:title="Creation and extraction of IceCube&#39;s ice optical properties.">
<polygon fill="none" stroke="black" points="0,-0.5 0,-19.5 70,-19.5 70,-0.5 0,-0.5"/>
<text text-anchor="middle" x="35" y="-7.5" font-family="Helvetica,sans-Serif" font-size="10.00">IceCubeIce</text>
</a>
</g>
</g>
<!-- Node1&#45;&gt;Node3 -->
<g id="edge2" class="edge">
<title>Node1&#45;&gt;Node3</title>
<path fill="none" stroke="midnightblue" d="M140.61,-53.04C112.14,-42.88 74.39,-28.55 52.47,-19.52"/>
<polygon fill="midnightblue" stroke="midnightblue" points="139.66,-56.41 150.25,-56.44 141.99,-49.81 139.66,-56.41"/>
</g>
<!-- Node1&#45;&gt;Node3 -->
<g id="edge3" class="edge">
<title>Node1&#45;&gt;Node3</title>
<path fill="none" stroke="midnightblue" d="M151.04,-52.64C125.7,-42.5 88.19,-28.43 62.63,-19.52"/>
<polygon fill="midnightblue" stroke="midnightblue" points="149.85,-55.93 160.43,-56.44 152.48,-49.44 149.85,-55.93"/>
</g>
<!-- Node4 -->
<g id="node4" class="node">
<title>Node4</title>
<g id="a_node4"><a xlink:href="class_no_optics.html" target="_top" xlink:title="Materials without optical properties defined.">
<polygon fill="none" stroke="black" points="88.5,-0.5 88.5,-19.5 149.5,-19.5 149.5,-0.5 88.5,-0.5"/>
<text text-anchor="middle" x="119" y="-7.5" font-family="Helvetica,sans-Serif" font-size="10.00">NoOptics</text>
</a>
</g>
</g>
<!-- Node1&#45;&gt;Node4 -->
<g id="edge4" class="edge">
<title>Node1&#45;&gt;Node4</title>
<path fill="none" stroke="midnightblue" d="M155.28,-49.82C143.64,-40.15 130.64,-27.95 123.5,-19.83"/>
<polygon fill="midnightblue" stroke="midnightblue" points="153.41,-52.81 163.41,-56.32 157.78,-47.34 153.41,-52.81"/>
</g>
<!-- Node1&#45;&gt;Node4 -->
<g id="edge5" class="edge">
<title>Node1&#45;&gt;Node4</title>
<path fill="none" stroke="midnightblue" d="M166.46,-48.72C156.99,-39.2 143.9,-27.56 133.69,-19.75"/>
<polygon fill="midnightblue" stroke="midnightblue" points="164.01,-51.22 173.42,-56.08 169.1,-46.41 164.01,-51.22"/>
</g>
<!-- Node5 -->
<g id="node5" class="node">
<title>Node5</title>
<g id="a_node5"><a xlink:href="class_refraction_and_absorption.html" target="_top" xlink:title="Materials with defined refractive index and absorption length.">
<polygon fill="none" stroke="black" points="168,-0.5 168,-19.5 306,-19.5 306,-0.5 168,-0.5"/>
<text text-anchor="middle" x="237" y="-7.5" font-family="Helvetica,sans-Serif" font-size="10.00">RefractionAndAbsorption</text>
</a>
</g>
</g>
<!-- Node1&#45;&gt;Node5 -->
<g id="edge6" class="edge">
<title>Node1&#45;&gt;Node5</title>
<path fill="none" stroke="midnightblue" d="M189.54,-48.72C199.01,-39.2 212.1,-27.56 222.31,-19.75"/>
<polygon fill="midnightblue" stroke="midnightblue" points="186.9,-46.41 182.58,-56.08 191.99,-51.22 186.9,-46.41"/>
</g>
<!-- Node1&#45;&gt;Node5 -->
<g id="edge7" class="edge">
<title>Node1&#45;&gt;Node5</title>
<path fill="none" stroke="midnightblue" d="M200.72,-49.82C212.36,-40.15 225.36,-27.95 232.5,-19.83"/>
<polygon fill="midnightblue" stroke="midnightblue" points="198.22,-47.34 192.59,-56.32 202.59,-52.81 198.22,-47.34"/>
</g>
<!-- Node6 -->
<g id="node6" class="node">
<title>Node6</title>
<g id="a_node6"><a xlink:href="class_refraction_only.html" target="_top" xlink:title="Materials only with refractive index defined.">
<polygon fill="none" stroke="black" points="324.5,-0.5 324.5,-19.5 413.5,-19.5 413.5,-0.5 324.5,-0.5"/>
<text text-anchor="middle" x="369" y="-7.5" font-family="Helvetica,sans-Serif" font-size="10.00">RefractionOnly</text>
</a>
</g>
</g>
<!-- Node1&#45;&gt;Node6 -->
<g id="edge8" class="edge">
<title>Node1&#45;&gt;Node6</title>
<path fill="none" stroke="midnightblue" d="M212.8,-53.57C247.18,-43.38 299.28,-28.7 333.8,-19.52"/>
<polygon fill="midnightblue" stroke="midnightblue" points="211.76,-50.23 203.18,-56.44 213.76,-56.94 211.76,-50.23"/>
</g>
<!-- Node1&#45;&gt;Node6 -->
<g id="edge9" class="edge">
<title>Node1&#45;&gt;Node6</title>
<path fill="none" stroke="midnightblue" d="M223.1,-53.83C260.87,-43.63 313.22,-28.78 343.96,-19.52"/>
<polygon fill="midnightblue" stroke="midnightblue" points="222.11,-50.47 213.35,-56.44 223.92,-57.23 222.11,-50.47"/>
</g>
<!-- Node2 -->
<g id="node2" class="node">
<title>Node2</title>
<g id="a_node2"><a xlink:href="classabc_data_file.html" target="_top" xlink:title="This is an abstract base class that provides an interface for handling data files in the simulation.">
<polygon fill="none" stroke="black" points="141,-112.5 141,-131.5 215,-131.5 215,-112.5 141,-112.5"/>
<text text-anchor="middle" x="178" y="-119.5" font-family="Helvetica,sans-Serif" font-size="10.00">abcDataFile</text>
</a>
</g>
</g>
<!-- Node2&#45;&gt;Node1 -->
<g id="edge1" class="edge">
<title>Node2&#45;&gt;Node1</title>
<path fill="none" stroke="midnightblue" d="M178,-101.8C178,-92.91 178,-82.78 178,-75.75"/>
<polygon fill="midnightblue" stroke="midnightblue" points="174.5,-102.08 178,-112.08 181.5,-102.08 174.5,-102.08"/>
</g>
</g>
</svg>
