<?xml version="1.0" encoding="UTF-8" standalone="no"?>
<!DOCTYPE svg PUBLIC "-//W3C//DTD SVG 1.1//EN"
 "http://www.w3.org/Graphics/SVG/1.1/DTD/svg11.dtd">
<!-- Generated by graphviz version 2.43.0 (0)
 -->
<!-- Title: OMSimPrimaryGeneratorAction Pages: 1 -->
<svg width="185pt" height="82pt"
 viewBox="0.00 0.00 185.00 82.00" xmlns="http://www.w3.org/2000/svg" xmlns:xlink="http://www.w3.org/1999/xlink">
<g id="graph0" class="graph" transform="scale(1 1) rotate(0) translate(4 78)">
<title>OMSimPrimaryGeneratorAction</title>
<!-- Node1 -->
<g id="Node000001" class="node">
<title>Node1</title>
<g id="a_Node000001"><a xlink:title=" ">
<polygon fill="#999999" stroke="#666666" points="173.5,-19 3.5,-19 3.5,0 173.5,0 173.5,-19"/>
<text text-anchor="middle" x="88.5" y="-7" font-family="Helvetica,sans-Serif" font-size="10.00">OMSimPrimaryGeneratorAction</text>
</a>
</g>
</g>
<!-- Node2 -->
<g id="Node000002" class="node">
<title>Node2</title>
<g id="a_Node000002"><a xlink:title=" ">
<polygon fill="white" stroke="#bfbfbf" points="177,-74 0,-74 0,-55 177,-55 177,-74"/>
<text text-anchor="middle" x="88.5" y="-62" font-family="Helvetica,sans-Serif" font-size="10.00">G4VUserPrimaryGeneratorAction</text>
</a>
</g>
</g>
<!-- Node2&#45;&gt;Node1 -->
<g id="edge1_Node000001_Node000002" class="edge">
<title>Node2&#45;&gt;Node1</title>
<g id="a_edge1_Node000001_Node000002"><a xlink:title=" ">
<path fill="none" stroke="#63b8ff" d="M69.15,-45.24C67.16,-36.37 68.48,-26.14 73.11,-19.09"/>
<polygon fill="#63b8ff" stroke="#63b8ff" points="66,-46.8 73,-54.75 72.49,-44.17 66,-46.8"/>
</a>
</g>
</g>
<!-- Node2&#45;&gt;Node1 -->
<g id="edge2_Node000001_Node000002" class="edge">
<title>Node2&#45;&gt;Node1</title>
<g id="a_edge2_Node000001_Node000002"><a xlink:title=" ">
<path fill="none" stroke="#63b8ff" d="M82.01,-44.66C81.41,-35.93 81.86,-25.99 83.37,-19.09"/>
<polygon fill="#63b8ff" stroke="#63b8ff" points="78.56,-45.29 83.33,-54.75 85.5,-44.38 78.56,-45.29"/>
</a>
</g>
</g>
<!-- Node2&#45;&gt;Node1 -->
<g id="edge3_Node000001_Node000002" class="edge">
<title>Node2&#45;&gt;Node1</title>
<g id="a_edge3_Node000001_Node000002"><a xlink:title=" ">
<path fill="none" stroke="#63b8ff" d="M94.99,-44.66C95.59,-35.93 95.14,-25.99 93.63,-19.09"/>
<polygon fill="#63b8ff" stroke="#63b8ff" points="91.5,-44.38 93.67,-54.75 98.44,-45.29 91.5,-44.38"/>
</a>
</g>
</g>
<!-- Node2&#45;&gt;Node1 -->
<g id="edge4_Node000001_Node000002" class="edge">
<title>Node2&#45;&gt;Node1</title>
<g id="a_edge4_Node000001_Node000002"><a xlink:title=" ">
<path fill="none" stroke="#63b8ff" d="M107.85,-45.24C109.84,-36.37 108.52,-26.14 103.89,-19.09"/>
<polygon fill="#63b8ff" stroke="#63b8ff" points="104.51,-44.17 104,-54.75 111,-46.8 104.51,-44.17"/>
</a>
</g>
</g>
</g>
</svg>
