<?xml version="1.0" encoding="UTF-8" standalone="no"?>
<!DOCTYPE svg PUBLIC "-//W3C//DTD SVG 1.1//EN"
 "http://www.w3.org/Graphics/SVG/1.1/DTD/svg11.dtd">
<!-- Generated by graphviz version 2.43.0 (0)
 -->
<!-- Title: Surface Pages: 1 -->
<svg width="82pt" height="84pt"
 viewBox="0.00 0.00 82.00 84.00" xmlns="http://www.w3.org/2000/svg" xmlns:xlink="http://www.w3.org/1999/xlink">
<g id="graph0" class="graph" transform="scale(1 1) rotate(0) translate(4 80)">
<title>Surface</title>
<!-- Node1 -->
<g id="node1" class="node">
<title>Node1</title>
<g id="a_node1"><a xlink:title="Reflective surfaces parsed from a JSON file.">
<polygon fill="#bfbfbf" stroke="black" points="10.5,-0.5 10.5,-19.5 63.5,-19.5 63.5,-0.5 10.5,-0.5"/>
<text text-anchor="middle" x="37" y="-7.5" font-family="Helvetica,sans-Serif" font-size="10.00">Surface</text>
</a>
</g>
</g>
<!-- Node2 -->
<g id="node2" class="node">
<title>Node2</title>
<g id="a_node2"><a xlink:href="classabc_data_file.html" target="_top" xlink:title="This is an abstract base class that provides an interface for handling data files in the simulation.">
<polygon fill="none" stroke="black" points="0,-56.5 0,-75.5 74,-75.5 74,-56.5 0,-56.5"/>
<text text-anchor="middle" x="37" y="-63.5" font-family="Helvetica,sans-Serif" font-size="10.00">abcDataFile</text>
</a>
</g>
</g>
<!-- Node2&#45;&gt;Node1 -->
<g id="edge1" class="edge">
<title>Node2&#45;&gt;Node1</title>
<path fill="none" stroke="midnightblue" d="M30.53,-46.1C29.9,-37.14 30.34,-26.86 31.87,-19.75"/>
<polygon fill="midnightblue" stroke="midnightblue" points="27.07,-46.62 31.83,-56.08 34.01,-45.71 27.07,-46.62"/>
</g>
<!-- Node2&#45;&gt;Node1 -->
<g id="edge2" class="edge">
<title>Node2&#45;&gt;Node1</title>
<path fill="none" stroke="midnightblue" d="M43.47,-46.1C44.1,-37.14 43.66,-26.86 42.13,-19.75"/>
<polygon fill="midnightblue" stroke="midnightblue" points="39.99,-45.71 42.17,-56.08 46.93,-46.62 39.99,-45.71"/>
</g>
</g>
</svg>
