<?xml version="1.0" encoding="UTF-8" standalone="no"?>
<!DOCTYPE svg PUBLIC "-//W3C//DTD SVG 1.1//EN"
 "http://www.w3.org/Graphics/SVG/1.1/DTD/svg11.dtd">
<!-- Generated by graphviz version 2.43.0 (0)
 -->
<!-- Title: OMSimHitManager Pages: 1 -->
<svg width="239pt" height="93pt"
 viewBox="0.00 0.00 239.00 93.00" xmlns="http://www.w3.org/2000/svg" xmlns:xlink="http://www.w3.org/1999/xlink">
<g id="graph0" class="graph" transform="scale(1 1) rotate(0) translate(4 89)">
<title>OMSimHitManager</title>
<!-- Node1 -->
<g id="Node000001" class="node">
<title>Node1</title>
<g id="a_Node000001"><a xlink:title="Manages detected photon information.">
<polygon fill="#999999" stroke="#666666" points="153,-19 44,-19 44,0 153,0 153,-19"/>
<text text-anchor="middle" x="98.5" y="-7" font-family="Helvetica,sans-Serif" font-size="10.00">OMSimHitManager</text>
</a>
</g>
</g>
<!-- Node1&#45;&gt;Node1 -->
<g id="edge1_Node000001_Node000001" class="edge">
<title>Node1&#45;&gt;Node1</title>
<g id="a_edge1_Node000001_Node000001"><a xlink:title=" ">
<path fill="none" stroke="#9a32cd" stroke-dasharray="5,2" d="M163.41,-13.93C168.12,-12.93 171,-11.45 171,-9.5 171,-6.38 163.62,-4.47 153.2,-3.79"/>
<polygon fill="#9a32cd" stroke="#9a32cd" points="162.68,-10.49 153.2,-15.21 163.55,-17.44 162.68,-10.49"/>
</a>
</g>
<text text-anchor="middle" x="201" y="-7" font-family="Helvetica,sans-Serif" font-size="10.00" fill="grey"> m_instance</text>
</g>
<!-- Node2 -->
<g id="Node000002" class="node">
<title>Node2</title>
<g id="a_Node000002"><a xlink:href="struct_o_m_sim_hit_manager_1_1_thread_local_data.html" target="_top" xlink:title=" ">
<polygon fill="white" stroke="#bfbfbf" points="197,-85 0,-85 0,-66 197,-66 197,-85"/>
<text text-anchor="middle" x="98.5" y="-73" font-family="Helvetica,sans-Serif" font-size="10.00">OMSimHitManager::ThreadLocalData</text>
</a>
</g>
</g>
<!-- Node2&#45;&gt;Node1 -->
<g id="edge2_Node000001_Node000002" class="edge">
<title>Node2&#45;&gt;Node1</title>
<g id="a_edge2_Node000001_Node000002"><a xlink:title=" ">
<path fill="none" stroke="#9a32cd" stroke-dasharray="5,2" d="M98.5,-55.58C98.5,-43.63 98.5,-28.72 98.5,-19.41"/>
<polygon fill="#9a32cd" stroke="#9a32cd" points="95,-55.87 98.5,-65.87 102,-55.87 95,-55.87"/>
</a>
</g>
<text text-anchor="middle" x="135" y="-40" font-family="Helvetica,sans-Serif" font-size="10.00" fill="grey"> m_threadData</text>
</g>
</g>
</svg>
