<?xml version="1.0" encoding="UTF-8" standalone="no"?>
<!DOCTYPE svg PUBLIC "-//W3C//DTD SVG 1.1//EN"
 "http://www.w3.org/Graphics/SVG/1.1/DTD/svg11.dtd">
<!-- Generated by graphviz version 2.43.0 (0)
 -->
<!-- Title: LOM18 Pages: 1 -->
<svg width="233pt" height="333pt"
 viewBox="0.00 0.00 233.00 333.00" xmlns="http://www.w3.org/2000/svg" xmlns:xlink="http://www.w3.org/1999/xlink">
<g id="graph0" class="graph" transform="scale(1 1) rotate(0) translate(4 329)">
<title>LOM18</title>
<!-- Node1 -->
<g id="node1" class="node">
<title>Node1</title>
<g id="a_node1"><a xlink:title=" ">
<polygon fill="#bfbfbf" stroke="black" points="54,-0.5 54,-19.5 104,-19.5 104,-0.5 54,-0.5"/>
<text text-anchor="middle" x="79" y="-7.5" font-family="Helvetica,sans-Serif" font-size="10.00">LOM18</text>
</a>
</g>
</g>
<!-- Node2 -->
<g id="node2" class="node">
<title>Node2</title>
<g id="a_node2"><a xlink:href="class_o_m_sim_optical_module.html" target="_top" xlink:title="Base class for OMs works as interface.">
<polygon fill="none" stroke="black" points="18,-57.5 18,-76.5 140,-76.5 140,-57.5 18,-57.5"/>
<text text-anchor="middle" x="79" y="-64.5" font-family="Helvetica,sans-Serif" font-size="10.00">OMSimOpticalModule</text>
</a>
</g>
</g>
<!-- Node2&#45;&gt;Node1 -->
<g id="edge1" class="edge">
<title>Node2&#45;&gt;Node1</title>
<path fill="none" stroke="midnightblue" d="M79,-47.12C79,-37.82 79,-27.06 79,-19.71"/>
<polygon fill="midnightblue" stroke="midnightblue" points="75.5,-47.41 79,-57.41 82.5,-47.41 75.5,-47.41"/>
</g>
<!-- Node3 -->
<g id="node3" class="node">
<title>Node3</title>
<g id="a_node3"><a xlink:href="class_o_m_sim_detector_component.html" target="_top" xlink:title="Abstract base class used for constructing detector components.">
<polygon fill="none" stroke="black" points="0,-181.5 0,-200.5 150,-200.5 150,-181.5 0,-181.5"/>
<text text-anchor="middle" x="75" y="-188.5" font-family="Helvetica,sans-Serif" font-size="10.00">OMSimDetectorComponent</text>
</a>
</g>
</g>
<!-- Node3&#45;&gt;Node2 -->
<g id="edge2" class="edge">
<title>Node3&#45;&gt;Node2</title>
<path fill="none" stroke="midnightblue" d="M75.62,-171.19C76.5,-144.4 78.07,-96.31 78.71,-76.69"/>
<polygon fill="midnightblue" stroke="midnightblue" points="72.12,-171.12 75.29,-181.23 79.11,-171.35 72.12,-171.12"/>
</g>
<!-- Node6 -->
<g id="node6" class="node">
<title>Node6</title>
<g id="a_node6"><a xlink:href="class_o_m_sim_p_m_t_construction.html" target="_top" xlink:title=" ">
<polygon fill="none" stroke="black" points="91,-124.5 91,-143.5 225,-143.5 225,-124.5 91,-124.5"/>
<text text-anchor="middle" x="158" y="-131.5" font-family="Helvetica,sans-Serif" font-size="10.00">OMSimPMTConstruction</text>
</a>
</g>
</g>
<!-- Node3&#45;&gt;Node6 -->
<g id="edge6" class="edge">
<title>Node3&#45;&gt;Node6</title>
<path fill="none" stroke="midnightblue" d="M96.39,-175.82C111.81,-165.61 132.12,-152.15 145.12,-143.53"/>
<polygon fill="midnightblue" stroke="midnightblue" points="94.37,-172.96 87.97,-181.41 98.24,-178.8 94.37,-172.96"/>
</g>
<!-- Node4 -->
<g id="node4" class="node">
<title>Node4</title>
<g id="a_node4"><a xlink:href="class_o_m_sim_input_data.html" target="_top" xlink:title="Manages the input data, including parsing and storing material properties.">
<polygon fill="none" stroke="black" points="25,-248.5 25,-267.5 125,-267.5 125,-248.5 25,-248.5"/>
<text text-anchor="middle" x="75" y="-255.5" font-family="Helvetica,sans-Serif" font-size="10.00">OMSimInputData</text>
</a>
</g>
</g>
<!-- Node4&#45;&gt;Node3 -->
<g id="edge3" class="edge">
<title>Node4&#45;&gt;Node3</title>
<path fill="none" stroke="#9a32cd" stroke-dasharray="5,2" d="M75,-238.04C75,-225.67 75,-210.12 75,-200.63"/>
<polygon fill="#9a32cd" stroke="#9a32cd" points="71.5,-238.23 75,-248.23 78.5,-238.23 71.5,-238.23"/>
<text text-anchor="middle" x="95" y="-222" font-family="Helvetica,sans-Serif" font-size="10.00"> m_data</text>
</g>
<!-- Node5 -->
<g id="node5" class="node">
<title>Node5</title>
<g id="a_node5"><a xlink:href="class_parameter_table.html" target="_top" xlink:title="A utility class for managing JSON&#45;based data tables.">
<polygon fill="none" stroke="black" points="29,-305.5 29,-324.5 121,-324.5 121,-305.5 29,-305.5"/>
<text text-anchor="middle" x="75" y="-312.5" font-family="Helvetica,sans-Serif" font-size="10.00">ParameterTable</text>
</a>
</g>
</g>
<!-- Node5&#45;&gt;Node4 -->
<g id="edge4" class="edge">
<title>Node5&#45;&gt;Node4</title>
<path fill="none" stroke="midnightblue" d="M75,-295.12C75,-285.82 75,-275.06 75,-267.71"/>
<polygon fill="midnightblue" stroke="midnightblue" points="71.5,-295.41 75,-305.41 78.5,-295.41 71.5,-295.41"/>
</g>
<!-- Node6&#45;&gt;Node2 -->
<g id="edge5" class="edge">
<title>Node6&#45;&gt;Node2</title>
<path fill="none" stroke="#9a32cd" stroke-dasharray="5,2" d="M139.42,-117.71C123.86,-104.91 102.2,-87.09 89.49,-76.63"/>
<polygon fill="#9a32cd" stroke="#9a32cd" points="137.4,-120.58 147.35,-124.23 141.85,-115.18 137.4,-120.58"/>
<text text-anchor="middle" x="164.5" y="-98" font-family="Helvetica,sans-Serif" font-size="10.00"> m_managerPMT</text>
</g>
</g>
</svg>
