<?xml version="1.0" encoding="UTF-8" standalone="no"?>
<!DOCTYPE svg PUBLIC "-//W3C//DTD SVG 1.1//EN"
 "http://www.w3.org/Graphics/SVG/1.1/DTD/svg11.dtd">
<!-- Generated by graphviz version 2.43.0 (0)
 -->
<!-- Title: CADMesh::File::Lexer Pages: 1 -->
<svg width="317pt" height="162pt"
 viewBox="0.00 0.00 317.00 162.00" xmlns="http://www.w3.org/2000/svg" xmlns:xlink="http://www.w3.org/1999/xlink">
<g id="graph0" class="graph" transform="scale(1 1) rotate(0) translate(4 158)">
<title>CADMesh::File::Lexer</title>
<!-- Node1 -->
<g id="node1" class="node">
<title>Node1</title>
<g id="a_node1"><a xlink:title=" ">
<polygon fill="#bfbfbf" stroke="black" points="95,-0.5 95,-19.5 214,-19.5 214,-0.5 95,-0.5"/>
<text text-anchor="middle" x="154.5" y="-7.5" font-family="Helvetica,sans-Serif" font-size="10.00">CADMesh::File::Lexer</text>
</a>
</g>
</g>
<!-- Node2 -->
<g id="node2" class="node">
<title>Node2</title>
<g id="a_node2"><a xlink:href="struct_c_a_d_mesh_1_1_file_1_1_item.html" target="_top" xlink:title=" ">
<polygon fill="none" stroke="black" points="2.5,-67.5 2.5,-86.5 118.5,-86.5 118.5,-67.5 2.5,-67.5"/>
<text text-anchor="middle" x="60.5" y="-74.5" font-family="Helvetica,sans-Serif" font-size="10.00">CADMesh::File::Item</text>
</a>
</g>
</g>
<!-- Node2&#45;&gt;Node1 -->
<g id="edge1" class="edge">
<title>Node2&#45;&gt;Node1</title>
<path fill="none" stroke="#9a32cd" stroke-dasharray="5,2" d="M81.59,-61.42C100.17,-48.57 126.62,-30.28 142.02,-19.63"/>
<polygon fill="#9a32cd" stroke="#9a32cd" points="79.41,-58.67 73.18,-67.23 83.39,-64.43 79.41,-58.67"/>
<text text-anchor="middle" x="147.5" y="-41" font-family="Helvetica,sans-Serif" font-size="10.00"> parent_item_</text>
</g>
<!-- Node2&#45;&gt;Node2 -->
<g id="edge2" class="edge">
<title>Node2&#45;&gt;Node2</title>
<path fill="none" stroke="#9a32cd" stroke-dasharray="5,2" d="M128.98,-81.34C133.66,-80.34 136.5,-78.89 136.5,-77 136.5,-73.97 129.23,-72.09 118.81,-71.35"/>
<polygon fill="#9a32cd" stroke="#9a32cd" points="128.28,-77.9 118.81,-82.65 129.18,-84.84 128.28,-77.9"/>
<text text-anchor="middle" x="154" y="-74.5" font-family="Helvetica,sans-Serif" font-size="10.00"> parent</text>
</g>
<!-- Node3 -->
<g id="node3" class="node">
<title>Node3</title>
<g id="a_node3"><a xlink:href="struct_c_a_d_mesh_1_1_file_1_1_token.html" target="_top" xlink:title=" ">
<polygon fill="none" stroke="black" points="0,-134.5 0,-153.5 121,-153.5 121,-134.5 0,-134.5"/>
<text text-anchor="middle" x="60.5" y="-141.5" font-family="Helvetica,sans-Serif" font-size="10.00">CADMesh::File::Token</text>
</a>
</g>
</g>
<!-- Node3&#45;&gt;Node2 -->
<g id="edge3" class="edge">
<title>Node3&#45;&gt;Node2</title>
<path fill="none" stroke="#9a32cd" stroke-dasharray="5,2" d="M60.5,-124.04C60.5,-111.67 60.5,-96.12 60.5,-86.63"/>
<polygon fill="#9a32cd" stroke="#9a32cd" points="57,-124.23 60.5,-134.23 64,-124.23 57,-124.23"/>
<text text-anchor="middle" x="76" y="-108" font-family="Helvetica,sans-Serif" font-size="10.00"> token</text>
</g>
<!-- Node4 -->
<g id="node4" class="node">
<title>Node4</title>
<g id="a_node4"><a xlink:href="struct_c_a_d_mesh_1_1_file_1_1_state.html" target="_top" xlink:title=" ">
<polygon fill="none" stroke="black" points="190,-67.5 190,-86.5 309,-86.5 309,-67.5 190,-67.5"/>
<text text-anchor="middle" x="249.5" y="-74.5" font-family="Helvetica,sans-Serif" font-size="10.00">CADMesh::File::State</text>
</a>
</g>
</g>
<!-- Node4&#45;&gt;Node1 -->
<g id="edge4" class="edge">
<title>Node4&#45;&gt;Node1</title>
<path fill="none" stroke="#9a32cd" stroke-dasharray="5,2" d="M228.19,-61.42C209.41,-48.57 182.68,-30.28 167.11,-19.63"/>
<polygon fill="#9a32cd" stroke="#9a32cd" points="226.46,-64.48 236.69,-67.23 230.41,-58.7 226.46,-64.48"/>
<text text-anchor="middle" x="224.5" y="-41" font-family="Helvetica,sans-Serif" font-size="10.00"> state_</text>
</g>
</g>
</svg>
