<?xml version="1.0" encoding="UTF-8" standalone="no"?>
<!DOCTYPE svg PUBLIC "-//W3C//DTD SVG 1.1//EN"
 "http://www.w3.org/Graphics/SVG/1.1/DTD/svg11.dtd">
<!-- Generated by graphviz version 2.43.0 (0)
 -->
<!-- Title: DEGG Pages: 1 -->
<svg width="210pt" height="393pt"
 viewBox="0.00 0.00 210.00 393.00" xmlns="http://www.w3.org/2000/svg" xmlns:xlink="http://www.w3.org/1999/xlink">
<g id="graph0" class="graph" transform="scale(1 1) rotate(0) translate(4 389)">
<title>DEGG</title>
<!-- Node1 -->
<g id="Node000001" class="node">
<title>Node1</title>
<g id="a_Node000001"><a xlink:title=" ">
<polygon fill="#999999" stroke="#666666" points="83.5,-85 38.5,-85 38.5,-66 83.5,-66 83.5,-85"/>
<text text-anchor="middle" x="61" y="-73" font-family="Helvetica,sans-Serif" font-size="10.00">DEGG</text>
</a>
</g>
</g>
<!-- Node7 -->
<g id="Node000007" class="node">
<title>Node7</title>
<g id="a_Node000007"><a xlink:href="class_d_egg_harness.html" target="_top" xlink:title=" ">
<polygon fill="white" stroke="#bfbfbf" points="171,-19 89,-19 89,0 171,0 171,-19"/>
<text text-anchor="middle" x="130" y="-7" font-family="Helvetica,sans-Serif" font-size="10.00">DEggHarness</text>
</a>
</g>
</g>
<!-- Node1&#45;&gt;Node7 -->
<g id="edge9_Node000007_Node000001" class="edge">
<title>Node1&#45;&gt;Node7</title>
<g id="a_edge9_Node000007_Node000001"><a xlink:title=" ">
<path fill="none" stroke="#9a32cd" stroke-dasharray="5,2" d="M29.45,-61.8C17.56,-55.14 8.52,-46.42 16,-37 25.1,-25.54 60.03,-18.59 88.86,-14.7"/>
<polygon fill="#9a32cd" stroke="#9a32cd" points="27.9,-64.94 38.42,-66.26 31.02,-58.67 27.9,-64.94"/>
</a>
</g>
<text text-anchor="middle" x="60" y="-40" font-family="Helvetica,sans-Serif" font-size="10.00" fill="grey"> m_opticalModule</text>
</g>
<!-- Node2 -->
<g id="Node000002" class="node">
<title>Node2</title>
<g id="a_Node000002"><a xlink:href="class_o_m_sim_optical_module.html" target="_top" xlink:title="Base class for OMs works as interface.">
<polygon fill="white" stroke="#666666" points="122,-141 0,-141 0,-122 122,-122 122,-141"/>
<text text-anchor="middle" x="61" y="-129" font-family="Helvetica,sans-Serif" font-size="10.00">OMSimOpticalModule</text>
</a>
</g>
</g>
<!-- Node2&#45;&gt;Node1 -->
<g id="edge1_Node000001_Node000002" class="edge">
<title>Node2&#45;&gt;Node1</title>
<g id="a_edge1_Node000001_Node000002"><a xlink:title=" ">
<path fill="none" stroke="#63b8ff" d="M61,-111.3C61,-102.41 61,-92.28 61,-85.25"/>
<polygon fill="#63b8ff" stroke="#63b8ff" points="57.5,-111.58 61,-121.58 64.5,-111.58 57.5,-111.58"/>
</a>
</g>
</g>
<!-- Node3 -->
<g id="Node000003" class="node">
<title>Node3</title>
<g id="a_Node000003"><a xlink:href="class_o_m_sim_detector_component.html" target="_top" xlink:title="Abstract base class used for constructing detector components.">
<polygon fill="white" stroke="#666666" points="182,-263 32,-263 32,-244 182,-244 182,-263"/>
<text text-anchor="middle" x="107" y="-251" font-family="Helvetica,sans-Serif" font-size="10.00">OMSimDetectorComponent</text>
</a>
</g>
</g>
<!-- Node3&#45;&gt;Node2 -->
<g id="edge2_Node000002_Node000003" class="edge">
<title>Node3&#45;&gt;Node2</title>
<g id="a_edge2_Node000002_Node000003"><a xlink:title=" ">
<path fill="none" stroke="#63b8ff" d="M69.8,-239.65C54.98,-232.48 39.46,-221.93 31,-207 18.21,-184.44 39.84,-155.33 52.63,-141.1"/>
<polygon fill="#63b8ff" stroke="#63b8ff" points="68.8,-243.03 79.36,-243.87 71.63,-236.63 68.8,-243.03"/>
</a>
</g>
</g>
<!-- Node6 -->
<g id="Node000006" class="node">
<title>Node6</title>
<g id="a_Node000006"><a xlink:href="class_o_m_sim_p_m_t_construction.html" target="_top" xlink:title=" ">
<polygon fill="white" stroke="#bfbfbf" points="174,-207 40,-207 40,-188 174,-188 174,-207"/>
<text text-anchor="middle" x="107" y="-195" font-family="Helvetica,sans-Serif" font-size="10.00">OMSimPMTConstruction</text>
</a>
</g>
</g>
<!-- Node3&#45;&gt;Node6 -->
<g id="edge6_Node000006_Node000003" class="edge">
<title>Node3&#45;&gt;Node6</title>
<g id="a_edge6_Node000006_Node000003"><a xlink:title=" ">
<path fill="none" stroke="#63b8ff" d="M107,-233.3C107,-224.41 107,-214.28 107,-207.25"/>
<polygon fill="#63b8ff" stroke="#63b8ff" points="103.5,-233.58 107,-243.58 110.5,-233.58 103.5,-233.58"/>
</a>
</g>
</g>
<!-- Node3&#45;&gt;Node7 -->
<g id="edge8_Node000007_Node000003" class="edge">
<title>Node3&#45;&gt;Node7</title>
<g id="a_edge8_Node000007_Node000003"><a xlink:title=" ">
<path fill="none" stroke="#63b8ff" d="M163.2,-240.7C183.72,-232.81 202,-219.8 202,-198.5 202,-198.5 202,-198.5 202,-74.5 202,-47.41 173.17,-28.97 151.99,-19.09"/>
<polygon fill="#63b8ff" stroke="#63b8ff" points="161.98,-237.41 153.67,-243.97 164.26,-244.03 161.98,-237.41"/>
</a>
</g>
</g>
<!-- Node4 -->
<g id="Node000004" class="node">
<title>Node4</title>
<g id="a_Node000004"><a xlink:href="class_o_m_sim_input_data.html" target="_top" xlink:title="Manages the input data, including parsing and storing material properties.">
<polygon fill="white" stroke="#666666" points="157,-329 57,-329 57,-310 157,-310 157,-329"/>
<text text-anchor="middle" x="107" y="-317" font-family="Helvetica,sans-Serif" font-size="10.00">OMSimInputData</text>
</a>
</g>
</g>
<!-- Node4&#45;&gt;Node3 -->
<g id="edge3_Node000003_Node000004" class="edge">
<title>Node4&#45;&gt;Node3</title>
<g id="a_edge3_Node000003_Node000004"><a xlink:title=" ">
<path fill="none" stroke="#9a32cd" stroke-dasharray="5,2" d="M107,-299.58C107,-287.63 107,-272.72 107,-263.41"/>
<polygon fill="#9a32cd" stroke="#9a32cd" points="103.5,-299.87 107,-309.87 110.5,-299.87 103.5,-299.87"/>
</a>
</g>
<text text-anchor="middle" x="127" y="-284" font-family="Helvetica,sans-Serif" font-size="10.00" fill="grey"> m_data</text>
</g>
<!-- Node5 -->
<g id="Node000005" class="node">
<title>Node5</title>
<g id="a_Node000005"><a xlink:href="class_parameter_table.html" target="_top" xlink:title="A utility class for managing JSON&#45;based data tables.">
<polygon fill="white" stroke="#666666" points="153,-385 61,-385 61,-366 153,-366 153,-385"/>
<text text-anchor="middle" x="107" y="-373" font-family="Helvetica,sans-Serif" font-size="10.00">ParameterTable</text>
</a>
</g>
</g>
<!-- Node5&#45;&gt;Node4 -->
<g id="edge4_Node000004_Node000005" class="edge">
<title>Node5&#45;&gt;Node4</title>
<g id="a_edge4_Node000004_Node000005"><a xlink:title=" ">
<path fill="none" stroke="#63b8ff" d="M107,-355.3C107,-346.41 107,-336.28 107,-329.25"/>
<polygon fill="#63b8ff" stroke="#63b8ff" points="103.5,-355.58 107,-365.58 110.5,-355.58 103.5,-355.58"/>
</a>
</g>
</g>
<!-- Node6&#45;&gt;Node2 -->
<g id="edge5_Node000002_Node000006" class="edge">
<title>Node6&#45;&gt;Node2</title>
<g id="a_edge5_Node000002_Node000006"><a xlink:title=" ">
<path fill="none" stroke="#9a32cd" stroke-dasharray="5,2" d="M94.72,-179.41C85.92,-167.18 74.44,-151.2 67.4,-141.41"/>
<polygon fill="#9a32cd" stroke="#9a32cd" points="92.12,-181.79 100.8,-187.87 97.8,-177.71 92.12,-181.79"/>
</a>
</g>
<text text-anchor="middle" x="128.5" y="-162" font-family="Helvetica,sans-Serif" font-size="10.00" fill="grey"> m_managerPMT</text>
</g>
<!-- Node7&#45;&gt;Node1 -->
<g id="edge7_Node000001_Node000007" class="edge">
<title>Node7&#45;&gt;Node1</title>
<g id="a_edge7_Node000001_Node000007"><a xlink:title=" ">
<path fill="none" stroke="#9a32cd" stroke-dasharray="5,2" d="M122.08,-28.23C118.47,-34.98 113.71,-42.38 108,-48 100.38,-55.49 90.23,-61.56 81.31,-65.99"/>
<polygon fill="#9a32cd" stroke="#9a32cd" points="125.3,-29.63 126.54,-19.1 119.01,-26.56 125.3,-29.63"/>
</a>
</g>
<text text-anchor="middle" x="145.5" y="-40" font-family="Helvetica,sans-Serif" font-size="10.00" fill="grey"> m_harness</text>
</g>
</g>
</svg>
