<?xml version="1.0" encoding="UTF-8" standalone="no"?>
<!DOCTYPE svg PUBLIC "-//W3C//DTD SVG 1.1//EN"
 "http://www.w3.org/Graphics/SVG/1.1/DTD/svg11.dtd">
<!-- Generated by graphviz version 2.43.0 (0)
 -->
<!-- Title: OMSimRadDecaysDetector Pages: 1 -->
<svg width="1216pt" height="115pt"
 viewBox="0.00 0.00 1216.00 115.00" xmlns="http://www.w3.org/2000/svg" xmlns:xlink="http://www.w3.org/1999/xlink">
<g id="graph0" class="graph" transform="scale(1 1) rotate(0) translate(4 111)">
<title>OMSimRadDecaysDetector</title>
<!-- Node1 -->
<g id="node1" class="node">
<title>Node1</title>
<g id="a_node1"><a xlink:title="Detector construction of radioactive decays simulation.">
<polygon fill="#bfbfbf" stroke="black" points="1059,-57.5 1059,-76.5 1208,-76.5 1208,-57.5 1059,-57.5"/>
<text text-anchor="middle" x="1133.5" y="-64.5" font-family="Helvetica,sans-Serif" font-size="10.00">OMSimRadDecaysDetector</text>
</a>
</g>
</g>
<!-- Node2 -->
<g id="node2" class="node">
<title>Node2</title>
<g id="a_node2"><a xlink:href="class_o_m_sim_detector_construction.html" target="_top" xlink:title="Class for detector construction in the effective area simulation.">
<polygon fill="none" stroke="black" points="368,-76.5 368,-95.5 523,-95.5 523,-76.5 368,-76.5"/>
<text text-anchor="middle" x="445.5" y="-83.5" font-family="Helvetica,sans-Serif" font-size="10.00">OMSimDetectorConstruction</text>
</a>
</g>
</g>
<!-- Node2&#45;&gt;Node1 -->
<g id="edge1" class="edge">
<title>Node2&#45;&gt;Node1</title>
<path fill="none" stroke="midnightblue" d="M533.23,-84.8C649.02,-83.01 860.5,-79.06 1041,-72 1046.72,-71.78 1052.65,-71.52 1058.6,-71.24"/>
<polygon fill="midnightblue" stroke="midnightblue" points="532.95,-81.3 523.01,-84.96 533.06,-88.3 532.95,-81.3"/>
</g>
<!-- Node3 -->
<g id="node3" class="node">
<title>Node3</title>
<g id="a_node3"><a xlink:title=" ">
<polygon fill="none" stroke="#bfbfbf" points="129,-87.5 129,-106.5 292,-106.5 292,-87.5 129,-87.5"/>
<text text-anchor="middle" x="210.5" y="-94.5" font-family="Helvetica,sans-Serif" font-size="10.00">G4VUserDetectorConstruction</text>
</a>
</g>
</g>
<!-- Node3&#45;&gt;Node2 -->
<g id="edge2" class="edge">
<title>Node3&#45;&gt;Node2</title>
<path fill="none" stroke="midnightblue" d="M302.22,-92.72C323.93,-91.69 346.91,-90.61 367.91,-89.62"/>
<polygon fill="midnightblue" stroke="midnightblue" points="301.84,-89.23 292.01,-93.2 302.17,-96.22 301.84,-89.23"/>
</g>
<!-- Node4 -->
<g id="node4" class="node">
<title>Node4</title>
<g id="a_node4"><a xlink:href="class_o_m_sim_input_data.html" target="_top" xlink:title="Manages the input data, including parsing and storing material properties.">
<polygon fill="none" stroke="black" points="160.5,-38.5 160.5,-57.5 260.5,-57.5 260.5,-38.5 160.5,-38.5"/>
<text text-anchor="middle" x="210.5" y="-45.5" font-family="Helvetica,sans-Serif" font-size="10.00">OMSimInputData</text>
</a>
</g>
</g>
<!-- Node4&#45;&gt;Node2 -->
<g id="edge3" class="edge">
<title>Node4&#45;&gt;Node2</title>
<path fill="none" stroke="#9a32cd" stroke-dasharray="5,2" d="M270.8,-57.67C306.12,-63.43 350.77,-70.71 385.96,-76.45"/>
<polygon fill="#9a32cd" stroke="#9a32cd" points="271.06,-54.17 260.63,-56.01 269.93,-61.08 271.06,-54.17"/>
<text text-anchor="middle" x="330" y="-73" font-family="Helvetica,sans-Serif" font-size="10.00"> m_data</text>
</g>
<!-- Node7 -->
<g id="node7" class="node">
<title>Node7</title>
<g id="a_node7"><a xlink:href="class_o_m_sim_detector_component.html" target="_top" xlink:title="Abstract base class used for constructing detector components.">
<polygon fill="none" stroke="black" points="370.5,-27.5 370.5,-46.5 520.5,-46.5 520.5,-27.5 370.5,-27.5"/>
<text text-anchor="middle" x="445.5" y="-34.5" font-family="Helvetica,sans-Serif" font-size="10.00">OMSimDetectorComponent</text>
</a>
</g>
</g>
<!-- Node4&#45;&gt;Node7 -->
<g id="edge7" class="edge">
<title>Node4&#45;&gt;Node7</title>
<path fill="none" stroke="#9a32cd" stroke-dasharray="5,2" d="M270.72,-41.08C283.65,-39.82 297.27,-38.69 310,-38 329.59,-36.94 350.8,-36.46 370.46,-36.31"/>
<polygon fill="#9a32cd" stroke="#9a32cd" points="270.13,-37.62 260.53,-42.11 270.83,-44.59 270.13,-37.62"/>
<text text-anchor="middle" x="330" y="-41" font-family="Helvetica,sans-Serif" font-size="10.00"> m_data</text>
</g>
<!-- Node5 -->
<g id="node5" class="node">
<title>Node5</title>
<g id="a_node5"><a xlink:href="class_parameter_table.html" target="_top" xlink:title="A utility class for managing JSON&#45;based data tables.">
<polygon fill="none" stroke="black" points="0,-38.5 0,-57.5 92,-57.5 92,-38.5 0,-38.5"/>
<text text-anchor="middle" x="46" y="-45.5" font-family="Helvetica,sans-Serif" font-size="10.00">ParameterTable</text>
</a>
</g>
</g>
<!-- Node5&#45;&gt;Node4 -->
<g id="edge4" class="edge">
<title>Node5&#45;&gt;Node4</title>
<path fill="none" stroke="midnightblue" d="M102.49,-48C121.32,-48 142.21,-48 160.49,-48"/>
<polygon fill="midnightblue" stroke="midnightblue" points="102.27,-44.5 92.27,-48 102.27,-51.5 102.27,-44.5"/>
</g>
<!-- Node6 -->
<g id="node6" class="node">
<title>Node6</title>
<g id="a_node6"><a xlink:href="class_o_m_sim_optical_module.html" target="_top" xlink:title="Base class for OMs works as interface.">
<polygon fill="none" stroke="black" points="813,-38.5 813,-57.5 935,-57.5 935,-38.5 813,-38.5"/>
<text text-anchor="middle" x="874" y="-45.5" font-family="Helvetica,sans-Serif" font-size="10.00">OMSimOpticalModule</text>
</a>
</g>
</g>
<!-- Node6&#45;&gt;Node1 -->
<g id="edge5" class="edge">
<title>Node6&#45;&gt;Node1</title>
<path fill="none" stroke="#9a32cd" stroke-dasharray="5,2" d="M945.22,-53.18C980.37,-55.77 1022.9,-58.91 1058.54,-61.54"/>
<polygon fill="#9a32cd" stroke="#9a32cd" points="945.28,-49.68 935.05,-52.43 944.76,-56.66 945.28,-49.68"/>
<text text-anchor="middle" x="997" y="-62" font-family="Helvetica,sans-Serif" font-size="10.00"> m_opticalModule</text>
</g>
<!-- Node7&#45;&gt;Node6 -->
<g id="edge6" class="edge">
<title>Node7&#45;&gt;Node6</title>
<path fill="none" stroke="midnightblue" d="M530.98,-39.18C614.25,-41.33 739.4,-44.55 812.97,-46.45"/>
<polygon fill="midnightblue" stroke="midnightblue" points="530.88,-35.68 520.79,-38.92 530.7,-42.67 530.88,-35.68"/>
</g>
<!-- Node8 -->
<g id="node8" class="node">
<title>Node8</title>
<g id="a_node8"><a xlink:href="class_o_m_sim_p_m_t_construction.html" target="_top" xlink:title=" ">
<polygon fill="none" stroke="black" points="560,-0.5 560,-19.5 694,-19.5 694,-0.5 560,-0.5"/>
<text text-anchor="middle" x="627" y="-7.5" font-family="Helvetica,sans-Serif" font-size="10.00">OMSimPMTConstruction</text>
</a>
</g>
</g>
<!-- Node7&#45;&gt;Node8 -->
<g id="edge9" class="edge">
<title>Node7&#45;&gt;Node8</title>
<path fill="none" stroke="midnightblue" d="M519.98,-25.95C534.15,-23.82 548.87,-21.6 562.68,-19.52"/>
<polygon fill="midnightblue" stroke="midnightblue" points="519.15,-22.53 509.78,-27.48 520.19,-29.45 519.15,-22.53"/>
</g>
<!-- Node8&#45;&gt;Node6 -->
<g id="edge8" class="edge">
<title>Node8&#45;&gt;Node6</title>
<path fill="none" stroke="#9a32cd" stroke-dasharray="5,2" d="M704.64,-12.22C733.2,-14.03 765.77,-17.26 795,-23 813.14,-26.56 832.97,-32.95 848.1,-38.38"/>
<polygon fill="#9a32cd" stroke="#9a32cd" points="704.5,-8.71 694.31,-11.62 704.09,-15.7 704.5,-8.71"/>
<text text-anchor="middle" x="753.5" y="-26" font-family="Helvetica,sans-Serif" font-size="10.00"> m_managerPMT</text>
</g>
</g>
</svg>
