<?xml version="1.0" encoding="UTF-8" standalone="no"?>
<!DOCTYPE svg PUBLIC "-//W3C//DTD SVG 1.1//EN"
 "http://www.w3.org/Graphics/SVG/1.1/DTD/svg11.dtd">
<!-- Generated by graphviz version 2.43.0 (0)
 -->
<!-- Title: OMSimPrimaryGeneratorAction Pages: 1 -->
<svg width="623pt" height="308pt"
 viewBox="0.00 0.00 622.50 308.00" xmlns="http://www.w3.org/2000/svg" xmlns:xlink="http://www.w3.org/1999/xlink">
<g id="graph0" class="graph" transform="scale(1 1) rotate(0) translate(4 304)">
<title>OMSimPrimaryGeneratorAction</title>
<!-- Node1 -->
<g id="node1" class="node">
<title>Node1</title>
<g id="a_node1"><a xlink:title=" ">
<polygon fill="#bfbfbf" stroke="black" points="113.5,-67.5 113.5,-86.5 283.5,-86.5 283.5,-67.5 113.5,-67.5"/>
<text text-anchor="middle" x="198.5" y="-74.5" font-family="Helvetica,sans-Serif" font-size="10.00">OMSimPrimaryGeneratorAction</text>
</a>
</g>
</g>
<!-- Node7 -->
<g id="node7" class="node">
<title>Node7</title>
<g id="a_node7"><a xlink:href="class_o_m_sim_primary_generator_messenger.html" target="_top" xlink:title=" ">
<polygon fill="none" stroke="black" points="45.5,-0.5 45.5,-19.5 237.5,-19.5 237.5,-0.5 45.5,-0.5"/>
<text text-anchor="middle" x="141.5" y="-7.5" font-family="Helvetica,sans-Serif" font-size="10.00">OMSimPrimaryGeneratorMessenger</text>
</a>
</g>
</g>
<!-- Node1&#45;&gt;Node7 -->
<g id="edge11" class="edge">
<title>Node1&#45;&gt;Node7</title>
<path fill="none" stroke="#9a32cd" stroke-dasharray="5,2" d="M153.33,-62.84C147.46,-59.27 142.21,-54.74 138.5,-49 132.82,-40.22 135.3,-27.8 138.02,-19.58"/>
<polygon fill="#9a32cd" stroke="#9a32cd" points="151.77,-65.97 162.26,-67.42 154.96,-59.74 151.77,-65.97"/>
<text text-anchor="middle" x="155.5" y="-41" font-family="Helvetica,sans-Serif" font-size="10.00"> Action</text>
</g>
<!-- Node2 -->
<g id="node2" class="node">
<title>Node2</title>
<g id="a_node2"><a xlink:title=" ">
<polygon fill="none" stroke="#bfbfbf" points="110,-280.5 110,-299.5 287,-299.5 287,-280.5 110,-280.5"/>
<text text-anchor="middle" x="198.5" y="-287.5" font-family="Helvetica,sans-Serif" font-size="10.00">G4VUserPrimaryGeneratorAction</text>
</a>
</g>
</g>
<!-- Node2&#45;&gt;Node1 -->
<g id="edge1" class="edge">
<title>Node2&#45;&gt;Node1</title>
<path fill="none" stroke="midnightblue" d="M190.48,-270.66C182.51,-227.08 183.24,-118.63 192.65,-86.87"/>
<polygon fill="midnightblue" stroke="midnightblue" points="187.08,-271.52 192.75,-280.47 193.9,-269.93 187.08,-271.52"/>
</g>
<!-- Node2&#45;&gt;Node1 -->
<g id="edge2" class="edge">
<title>Node2&#45;&gt;Node1</title>
<path fill="none" stroke="midnightblue" d="M198.5,-270.38C198.5,-226.62 198.5,-118.57 198.5,-86.87"/>
<polygon fill="midnightblue" stroke="midnightblue" points="195,-270.47 198.5,-280.47 202,-270.47 195,-270.47"/>
</g>
<!-- Node2&#45;&gt;Node1 -->
<g id="edge3" class="edge">
<title>Node2&#45;&gt;Node1</title>
<path fill="none" stroke="midnightblue" d="M206.52,-270.66C214.49,-227.08 213.76,-118.63 204.35,-86.87"/>
<polygon fill="midnightblue" stroke="midnightblue" points="203.1,-269.93 204.25,-280.47 209.92,-271.52 203.1,-269.93"/>
</g>
<!-- Node4 -->
<g id="node4" class="node">
<title>Node4</title>
<g id="a_node4"><a xlink:href="class_s_n_base_particle_generator.html" target="_top" xlink:title=" ">
<polygon fill="none" stroke="black" points="293,-191.5 293,-210.5 432,-210.5 432,-191.5 293,-191.5"/>
<text text-anchor="middle" x="362.5" y="-198.5" font-family="Helvetica,sans-Serif" font-size="10.00">SNBaseParticleGenerator</text>
</a>
</g>
</g>
<!-- Node2&#45;&gt;Node4 -->
<g id="edge6" class="edge">
<title>Node2&#45;&gt;Node4</title>
<path fill="none" stroke="midnightblue" d="M223.37,-275.81C257.35,-257.78 317.36,-225.95 346.17,-210.66"/>
<polygon fill="midnightblue" stroke="midnightblue" points="221.72,-272.72 214.52,-280.5 225,-278.91 221.72,-272.72"/>
</g>
<!-- Node3 -->
<g id="node3" class="node">
<title>Node3</title>
<g id="a_node3"><a xlink:href="class_o_m_sim_i_b_d.html" target="_top" xlink:title="Class in charge of generating positrons from IBD of supernova antineutrino interactions.">
<polygon fill="none" stroke="black" points="245,-134.5 245,-153.5 314,-153.5 314,-134.5 245,-134.5"/>
<text text-anchor="middle" x="279.5" y="-141.5" font-family="Helvetica,sans-Serif" font-size="10.00">OMSimIBD</text>
</a>
</g>
</g>
<!-- Node3&#45;&gt;Node1 -->
<g id="edge4" class="edge">
<title>Node3&#45;&gt;Node1</title>
<path fill="none" stroke="#9a32cd" stroke-dasharray="5,2" d="M260.45,-127.71C244.49,-114.91 222.29,-97.09 209.25,-86.63"/>
<polygon fill="#9a32cd" stroke="#9a32cd" points="258.59,-130.7 268.58,-134.23 262.97,-125.25 258.59,-130.7"/>
<text text-anchor="middle" x="266.5" y="-108" font-family="Helvetica,sans-Serif" font-size="10.00"> fAction0</text>
</g>
<!-- Node4&#45;&gt;Node3 -->
<g id="edge5" class="edge">
<title>Node4&#45;&gt;Node3</title>
<path fill="none" stroke="midnightblue" d="M341.11,-185.82C325.69,-175.61 305.38,-162.15 292.38,-153.53"/>
<polygon fill="midnightblue" stroke="midnightblue" points="339.26,-188.8 349.53,-191.41 343.13,-182.96 339.26,-188.8"/>
</g>
<!-- Node9 -->
<g id="node9" class="node">
<title>Node9</title>
<g id="a_node9"><a xlink:href="class_o_m_sim_e_n_e_s.html" target="_top" xlink:title="Class in charge of generating electrons from Electron&#45;electron_Neutrino Elastic Scattering (ENES) nu_...">
<polygon fill="none" stroke="black" points="332,-134.5 332,-153.5 409,-153.5 409,-134.5 332,-134.5"/>
<text text-anchor="middle" x="370.5" y="-141.5" font-family="Helvetica,sans-Serif" font-size="10.00">OMSimENES</text>
</a>
</g>
</g>
<!-- Node4&#45;&gt;Node9 -->
<g id="edge13" class="edge">
<title>Node4&#45;&gt;Node9</title>
<path fill="none" stroke="midnightblue" d="M365.2,-181.42C366.56,-172.05 368.15,-161.14 369.23,-153.71"/>
<polygon fill="midnightblue" stroke="midnightblue" points="361.73,-181.01 363.75,-191.41 368.65,-182.01 361.73,-181.01"/>
</g>
<!-- Node5 -->
<g id="node5" class="node">
<title>Node5</title>
<g id="a_node5"><a xlink:href="class_distribution_sampler.html" target="_top" xlink:title="Utility class for sampling from a given distribution using the inverse cumulative function and interp...">
<polygon fill="none" stroke="black" points="305.5,-280.5 305.5,-299.5 419.5,-299.5 419.5,-280.5 305.5,-280.5"/>
<text text-anchor="middle" x="362.5" y="-287.5" font-family="Helvetica,sans-Serif" font-size="10.00">DistributionSampler</text>
</a>
</g>
</g>
<!-- Node5&#45;&gt;Node4 -->
<g id="edge7" class="edge">
<title>Node5&#45;&gt;Node4</title>
<path fill="none" stroke="#9a32cd" stroke-dasharray="5,2" d="M362.5,-270.19C362.5,-251.74 362.5,-224.41 362.5,-210.62"/>
<polygon fill="#9a32cd" stroke="#9a32cd" points="359,-270.34 362.5,-280.34 366,-270.34 359,-270.34"/>
<text text-anchor="middle" x="446.5" y="-254" font-family="Helvetica,sans-Serif" font-size="10.00"> mMeanEnergyDistribution</text>
<text text-anchor="middle" x="446.5" y="-243" font-family="Helvetica,sans-Serif" font-size="10.00">mMeanEnergySquaredDistribution</text>
<text text-anchor="middle" x="446.5" y="-232" font-family="Helvetica,sans-Serif" font-size="10.00">mTimeDistribution</text>
</g>
<!-- Node6 -->
<g id="node6" class="node">
<title>Node6</title>
<g id="a_node6"><a xlink:href="class_o_m_sim_s_n_tools.html" target="_top" xlink:title="Provides utility methods for generating ENES and IBD interactions.">
<polygon fill="none" stroke="black" points="508.5,-280.5 508.5,-299.5 598.5,-299.5 598.5,-280.5 508.5,-280.5"/>
<text text-anchor="middle" x="553.5" y="-287.5" font-family="Helvetica,sans-Serif" font-size="10.00">OMSimSNTools</text>
</a>
</g>
</g>
<!-- Node6&#45;&gt;Node4 -->
<g id="edge8" class="edge">
<title>Node6&#45;&gt;Node4</title>
<path fill="none" stroke="#9a32cd" stroke-dasharray="5,2" d="M551.54,-269.91C549.11,-256.43 543.68,-239.03 531.5,-229 516.36,-216.53 471.9,-209.75 432.39,-206.09"/>
<polygon fill="#9a32cd" stroke="#9a32cd" points="548.11,-270.65 552.96,-280.08 555.04,-269.69 548.11,-270.65"/>
<text text-anchor="middle" x="582" y="-243" font-family="Helvetica,sans-Serif" font-size="10.00"> mSNToolBox</text>
</g>
<!-- Node7&#45;&gt;Node1 -->
<g id="edge9" class="edge">
<title>Node7&#45;&gt;Node1</title>
<path fill="none" stroke="#9a32cd" stroke-dasharray="5,2" d="M163.33,-25.73C167.98,-29.42 172.64,-33.6 176.5,-38 184.33,-46.95 190.79,-59.1 194.64,-67.23"/>
<polygon fill="#9a32cd" stroke="#9a32cd" points="165.27,-22.81 155.16,-19.66 161.1,-28.43 165.27,-22.81"/>
<text text-anchor="middle" x="224.5" y="-41" font-family="Helvetica,sans-Serif" font-size="10.00"> fGunMessenger</text>
</g>
<!-- Node8 -->
<g id="node8" class="node">
<title>Node8</title>
<g id="a_node8"><a xlink:title=" ">
<polygon fill="none" stroke="#bfbfbf" points="0,-67.5 0,-86.5 95,-86.5 95,-67.5 0,-67.5"/>
<text text-anchor="middle" x="47.5" y="-74.5" font-family="Helvetica,sans-Serif" font-size="10.00">G4UImessenger</text>
</a>
</g>
</g>
<!-- Node8&#45;&gt;Node7 -->
<g id="edge10" class="edge">
<title>Node8&#45;&gt;Node7</title>
<path fill="none" stroke="midnightblue" d="M68.59,-61.42C87.17,-48.57 113.62,-30.28 129.02,-19.63"/>
<polygon fill="midnightblue" stroke="midnightblue" points="66.41,-58.67 60.18,-67.23 70.39,-64.43 66.41,-58.67"/>
</g>
<!-- Node9&#45;&gt;Node1 -->
<g id="edge12" class="edge">
<title>Node9&#45;&gt;Node1</title>
<path fill="none" stroke="#9a32cd" stroke-dasharray="5,2" d="M345.85,-129.62C330.74,-121.77 310.84,-112.04 292.5,-105 273.48,-97.7 251.63,-91.31 233.8,-86.58"/>
<polygon fill="#9a32cd" stroke="#9a32cd" points="344.54,-132.89 355.02,-134.46 347.81,-126.7 344.54,-132.89"/>
<text text-anchor="middle" x="339.5" y="-108" font-family="Helvetica,sans-Serif" font-size="10.00"> fAction1</text>
</g>
</g>
</svg>
