<?xml version="1.0" encoding="UTF-8" standalone="no"?>
<!DOCTYPE svg PUBLIC "-//W3C//DTD SVG 1.1//EN"
 "http://www.w3.org/Graphics/SVG/1.1/DTD/svg11.dtd">
<!-- Generated by graphviz version 2.43.0 (0)
 -->
<!-- Title: mDOMHarness Pages: 1 -->
<svg width="405pt" height="342pt"
 viewBox="0.00 0.00 405.45 342.00" xmlns="http://www.w3.org/2000/svg" xmlns:xlink="http://www.w3.org/1999/xlink">
<g id="graph0" class="graph" transform="scale(1 1) rotate(0) translate(4 338)">
<title>mDOMHarness</title>
<!-- Node1 -->
<g id="node1" class="node">
<title>Node1</title>
<g id="a_node1"><a xlink:title=" ">
<polygon fill="#bfbfbf" stroke="black" points="20.45,-133.5 20.45,-152.5 110.45,-152.5 110.45,-133.5 20.45,-133.5"/>
<text text-anchor="middle" x="65.45" y="-140.5" font-family="Helvetica,sans-Serif" font-size="10.00">mDOMHarness</text>
</a>
</g>
</g>
<!-- Node5 -->
<g id="node5" class="node">
<title>Node5</title>
<g id="a_node5"><a xlink:href="classm_d_o_m.html" target="_top" xlink:title=" ">
<polygon fill="none" stroke="black" points="123.45,-0.5 123.45,-19.5 173.45,-19.5 173.45,-0.5 123.45,-0.5"/>
<text text-anchor="middle" x="148.45" y="-7.5" font-family="Helvetica,sans-Serif" font-size="10.00">mDOM</text>
</a>
</g>
</g>
<!-- Node1&#45;&gt;Node5 -->
<g id="edge9" class="edge">
<title>Node1&#45;&gt;Node5</title>
<path fill="none" stroke="#9a32cd" stroke-dasharray="5,2" d="M43.24,-127.84C19.47,-110.89 -12.55,-81.7 5.45,-57 32.49,-19.91 89.94,-12.07 123.21,-10.8"/>
<polygon fill="#9a32cd" stroke="#9a32cd" points="41.29,-130.74 51.52,-133.49 45.24,-124.96 41.29,-130.74"/>
<text text-anchor="middle" x="33.95" y="-64.5" font-family="Helvetica,sans-Serif" font-size="10.00"> m_harness</text>
</g>
<!-- Node2 -->
<g id="node2" class="node">
<title>Node2</title>
<g id="a_node2"><a xlink:href="class_o_m_sim_detector_component.html" target="_top" xlink:title="Abstract base class used for constructing detector components.">
<polygon fill="none" stroke="black" points="106.45,-190.5 106.45,-209.5 256.45,-209.5 256.45,-190.5 106.45,-190.5"/>
<text text-anchor="middle" x="181.45" y="-197.5" font-family="Helvetica,sans-Serif" font-size="10.00">OMSimDetectorComponent</text>
</a>
</g>
</g>
<!-- Node2&#45;&gt;Node1 -->
<g id="edge1" class="edge">
<title>Node2&#45;&gt;Node1</title>
<path fill="none" stroke="midnightblue" d="M154.24,-186.1C132.41,-175.75 102.39,-161.51 83.45,-152.53"/>
<polygon fill="midnightblue" stroke="midnightblue" points="152.79,-189.28 163.33,-190.41 155.79,-182.96 152.79,-189.28"/>
</g>
<!-- Node6 -->
<g id="node6" class="node">
<title>Node6</title>
<g id="a_node6"><a xlink:href="class_o_m_sim_optical_module.html" target="_top" xlink:title="Base class for OMs works as interface.">
<polygon fill="none" stroke="black" points="171.45,-57.5 171.45,-76.5 293.45,-76.5 293.45,-57.5 171.45,-57.5"/>
<text text-anchor="middle" x="232.45" y="-64.5" font-family="Helvetica,sans-Serif" font-size="10.00">OMSimOpticalModule</text>
</a>
</g>
</g>
<!-- Node2&#45;&gt;Node6 -->
<g id="edge6" class="edge">
<title>Node2&#45;&gt;Node6</title>
<path fill="none" stroke="midnightblue" d="M173.21,-180.51C168.38,-166.95 164.32,-148.32 170.45,-133 180.37,-108.24 204.7,-87.56 219.77,-76.55"/>
<polygon fill="midnightblue" stroke="midnightblue" points="170.1,-182.16 177.07,-190.14 176.59,-179.55 170.1,-182.16"/>
</g>
<!-- Node7 -->
<g id="node7" class="node">
<title>Node7</title>
<g id="a_node7"><a xlink:href="class_o_m_sim_p_m_t_construction.html" target="_top" xlink:title=" ">
<polygon fill="none" stroke="black" points="179.45,-133.5 179.45,-152.5 313.45,-152.5 313.45,-133.5 179.45,-133.5"/>
<text text-anchor="middle" x="246.45" y="-140.5" font-family="Helvetica,sans-Serif" font-size="10.00">OMSimPMTConstruction</text>
</a>
</g>
</g>
<!-- Node2&#45;&gt;Node7 -->
<g id="edge8" class="edge">
<title>Node2&#45;&gt;Node7</title>
<path fill="none" stroke="midnightblue" d="M199.53,-183.71C211.34,-173.72 226.34,-161.02 236.16,-152.71"/>
<polygon fill="midnightblue" stroke="midnightblue" points="196.98,-181.27 191.61,-190.41 201.51,-186.62 196.98,-181.27"/>
</g>
<!-- Node8 -->
<g id="node8" class="node">
<title>Node8</title>
<g id="a_node8"><a xlink:href="classm_d_o_m_flasher.html" target="_top" xlink:title="The mDOMFlasher class represents the 10 flashers in an mDOM optical module.">
<polygon fill="none" stroke="black" points="311.45,-95.5 311.45,-114.5 397.45,-114.5 397.45,-95.5 311.45,-95.5"/>
<text text-anchor="middle" x="354.45" y="-102.5" font-family="Helvetica,sans-Serif" font-size="10.00">mDOMFlasher</text>
</a>
</g>
</g>
<!-- Node2&#45;&gt;Node8 -->
<g id="edge11" class="edge">
<title>Node2&#45;&gt;Node8</title>
<path fill="none" stroke="midnightblue" d="M243.72,-188.02C269.91,-181.15 299.54,-170.21 322.45,-153 336.03,-142.8 345.81,-125.09 350.76,-114.57"/>
<polygon fill="midnightblue" stroke="midnightblue" points="242.74,-184.65 233.88,-190.46 244.42,-191.45 242.74,-184.65"/>
</g>
<!-- Node3 -->
<g id="node3" class="node">
<title>Node3</title>
<g id="a_node3"><a xlink:href="class_o_m_sim_input_data.html" target="_top" xlink:title="Manages the input data, including parsing and storing material properties.">
<polygon fill="none" stroke="black" points="131.45,-257.5 131.45,-276.5 231.45,-276.5 231.45,-257.5 131.45,-257.5"/>
<text text-anchor="middle" x="181.45" y="-264.5" font-family="Helvetica,sans-Serif" font-size="10.00">OMSimInputData</text>
</a>
</g>
</g>
<!-- Node3&#45;&gt;Node2 -->
<g id="edge2" class="edge">
<title>Node3&#45;&gt;Node2</title>
<path fill="none" stroke="#9a32cd" stroke-dasharray="5,2" d="M181.45,-247.04C181.45,-234.67 181.45,-219.12 181.45,-209.63"/>
<polygon fill="#9a32cd" stroke="#9a32cd" points="177.95,-247.23 181.45,-257.23 184.95,-247.23 177.95,-247.23"/>
<text text-anchor="middle" x="201.45" y="-231" font-family="Helvetica,sans-Serif" font-size="10.00"> m_data</text>
</g>
<!-- Node4 -->
<g id="node4" class="node">
<title>Node4</title>
<g id="a_node4"><a xlink:href="class_parameter_table.html" target="_top" xlink:title="A utility class for managing JSON&#45;based data tables.">
<polygon fill="none" stroke="black" points="135.45,-314.5 135.45,-333.5 227.45,-333.5 227.45,-314.5 135.45,-314.5"/>
<text text-anchor="middle" x="181.45" y="-321.5" font-family="Helvetica,sans-Serif" font-size="10.00">ParameterTable</text>
</a>
</g>
</g>
<!-- Node4&#45;&gt;Node3 -->
<g id="edge3" class="edge">
<title>Node4&#45;&gt;Node3</title>
<path fill="none" stroke="midnightblue" d="M181.45,-304.12C181.45,-294.82 181.45,-284.06 181.45,-276.71"/>
<polygon fill="midnightblue" stroke="midnightblue" points="177.95,-304.41 181.45,-314.41 184.95,-304.41 177.95,-304.41"/>
</g>
<!-- Node5&#45;&gt;Node1 -->
<g id="edge4" class="edge">
<title>Node5&#45;&gt;Node1</title>
<path fill="none" stroke="#9a32cd" stroke-dasharray="5,2" d="M114.5,-23.95C99.75,-31.36 83.75,-42.18 74.45,-57 59.32,-81.14 61.82,-116.88 64.02,-133.24"/>
<polygon fill="#9a32cd" stroke="#9a32cd" points="116.34,-26.96 123.93,-19.57 113.39,-20.61 116.34,-26.96"/>
<text text-anchor="middle" x="118.45" y="-64.5" font-family="Helvetica,sans-Serif" font-size="10.00"> m_opticalModule</text>
</g>
<!-- Node6&#45;&gt;Node5 -->
<g id="edge5" class="edge">
<title>Node6&#45;&gt;Node5</title>
<path fill="none" stroke="midnightblue" d="M210.8,-51.82C195.2,-41.61 174.64,-28.15 161.49,-19.53"/>
<polygon fill="midnightblue" stroke="midnightblue" points="209.05,-54.86 219.33,-57.41 212.88,-49 209.05,-54.86"/>
</g>
<!-- Node7&#45;&gt;Node6 -->
<g id="edge7" class="edge">
<title>Node7&#45;&gt;Node6</title>
<path fill="none" stroke="#9a32cd" stroke-dasharray="5,2" d="M226.88,-126.37C223.85,-122.97 221.17,-119.13 219.45,-115 214.08,-102.02 221.14,-86.11 226.77,-76.53"/>
<polygon fill="#9a32cd" stroke="#9a32cd" points="224.63,-129.06 234.27,-133.46 229.48,-124.01 224.63,-129.06"/>
<text text-anchor="middle" x="260.95" y="-102.5" font-family="Helvetica,sans-Serif" font-size="10.00"> m_managerPMT</text>
</g>
<!-- Node8&#45;&gt;Node5 -->
<g id="edge10" class="edge">
<title>Node8&#45;&gt;Node5</title>
<path fill="none" stroke="#9a32cd" stroke-dasharray="5,2" d="M340.34,-87.99C330.59,-77.82 316.85,-65.1 302.45,-57 260.51,-33.39 205.17,-20.71 173.53,-14.95"/>
<polygon fill="#9a32cd" stroke="#9a32cd" points="337.87,-90.48 347.22,-95.46 343.02,-85.73 337.87,-90.48"/>
<text text-anchor="middle" x="356.95" y="-64.5" font-family="Helvetica,sans-Serif" font-size="10.00"> m_flashers</text>
</g>
</g>
</svg>
