<?xml version="1.0" encoding="UTF-8" standalone="no"?>
<!DOCTYPE svg PUBLIC "-//W3C//DTD SVG 1.1//EN"
 "http://www.w3.org/Graphics/SVG/1.1/DTD/svg11.dtd">
<!-- Generated by graphviz version 2.43.0 (0)
 -->
<!-- Title: DEGG Pages: 1 -->
<svg width="210pt" height="400pt"
 viewBox="0.00 0.00 210.00 400.00" xmlns="http://www.w3.org/2000/svg" xmlns:xlink="http://www.w3.org/1999/xlink">
<g id="graph0" class="graph" transform="scale(1 1) rotate(0) translate(4 396)">
<title>DEGG</title>
<!-- Node1 -->
<g id="node1" class="node">
<title>Node1</title>
<g id="a_node1"><a xlink:title="Construction of the DEGG detector geometry.">
<polygon fill="#bfbfbf" stroke="black" points="38.5,-67.5 38.5,-86.5 83.5,-86.5 83.5,-67.5 38.5,-67.5"/>
<text text-anchor="middle" x="61" y="-74.5" font-family="Helvetica,sans-Serif" font-size="10.00">DEGG</text>
</a>
</g>
</g>
<!-- Node7 -->
<g id="node7" class="node">
<title>Node7</title>
<g id="a_node7"><a xlink:href="class_d_egg_harness.html" target="_top" xlink:title=" ">
<polygon fill="none" stroke="black" points="89,-0.5 89,-19.5 171,-19.5 171,-0.5 89,-0.5"/>
<text text-anchor="middle" x="130" y="-7.5" font-family="Helvetica,sans-Serif" font-size="10.00">DEggHarness</text>
</a>
</g>
</g>
<!-- Node1&#45;&gt;Node7 -->
<g id="edge9" class="edge">
<title>Node1&#45;&gt;Node7</title>
<path fill="none" stroke="#9a32cd" stroke-dasharray="5,2" d="M29.43,-63.08C17.54,-56.32 8.5,-47.49 16,-38 25.08,-26.51 60.02,-19.41 88.85,-15.39"/>
<polygon fill="#9a32cd" stroke="#9a32cd" points="27.9,-66.22 38.4,-67.61 31.06,-59.98 27.9,-66.22"/>
<text text-anchor="middle" x="60" y="-41" font-family="Helvetica,sans-Serif" font-size="10.00"> m_opticalModule</text>
</g>
<!-- Node2 -->
<g id="node2" class="node">
<title>Node2</title>
<g id="a_node2"><a xlink:href="class_o_m_sim_optical_module.html" target="_top" xlink:title="Base class for OMs works as interface.">
<polygon fill="none" stroke="black" points="0,-124.5 0,-143.5 122,-143.5 122,-124.5 0,-124.5"/>
<text text-anchor="middle" x="61" y="-131.5" font-family="Helvetica,sans-Serif" font-size="10.00">OMSimOpticalModule</text>
</a>
</g>
</g>
<!-- Node2&#45;&gt;Node1 -->
<g id="edge1" class="edge">
<title>Node2&#45;&gt;Node1</title>
<path fill="none" stroke="midnightblue" d="M61,-114.12C61,-104.82 61,-94.06 61,-86.71"/>
<polygon fill="midnightblue" stroke="midnightblue" points="57.5,-114.41 61,-124.41 64.5,-114.41 57.5,-114.41"/>
</g>
<!-- Node3 -->
<g id="node3" class="node">
<title>Node3</title>
<g id="a_node3"><a xlink:href="classabc_detector_component.html" target="_top" xlink:title="Abstract base class used for constructing detector components.">
<polygon fill="none" stroke="black" points="41,-248.5 41,-267.5 173,-267.5 173,-248.5 41,-248.5"/>
<text text-anchor="middle" x="107" y="-255.5" font-family="Helvetica,sans-Serif" font-size="10.00">abcDetectorComponent</text>
</a>
</g>
</g>
<!-- Node3&#45;&gt;Node2 -->
<g id="edge2" class="edge">
<title>Node3&#45;&gt;Node2</title>
<path fill="none" stroke="midnightblue" d="M70.54,-244.27C55.5,-237.01 39.59,-226.24 31,-211 18.04,-188.02 39.75,-158.31 52.59,-143.78"/>
<polygon fill="midnightblue" stroke="midnightblue" points="69.17,-247.49 79.73,-248.35 72.01,-241.1 69.17,-247.49"/>
</g>
<!-- Node6 -->
<g id="node6" class="node">
<title>Node6</title>
<g id="a_node6"><a xlink:href="class_o_m_sim_p_m_t_construction.html" target="_top" xlink:title=" ">
<polygon fill="none" stroke="black" points="40,-191.5 40,-210.5 174,-210.5 174,-191.5 40,-191.5"/>
<text text-anchor="middle" x="107" y="-198.5" font-family="Helvetica,sans-Serif" font-size="10.00">OMSimPMTConstruction</text>
</a>
</g>
</g>
<!-- Node3&#45;&gt;Node6 -->
<g id="edge6" class="edge">
<title>Node3&#45;&gt;Node6</title>
<path fill="none" stroke="midnightblue" d="M107,-238.12C107,-228.82 107,-218.06 107,-210.71"/>
<polygon fill="midnightblue" stroke="midnightblue" points="103.5,-238.41 107,-248.41 110.5,-238.41 103.5,-238.41"/>
</g>
<!-- Node3&#45;&gt;Node7 -->
<g id="edge8" class="edge">
<title>Node3&#45;&gt;Node7</title>
<path fill="none" stroke="midnightblue" d="M162,-245.16C183.01,-237.12 202,-223.82 202,-202 202,-202 202,-202 202,-76 202,-48.55 172.81,-29.7 151.6,-19.63"/>
<polygon fill="midnightblue" stroke="midnightblue" points="160.6,-241.94 152.27,-248.5 162.87,-248.56 160.6,-241.94"/>
</g>
<!-- Node4 -->
<g id="node4" class="node">
<title>Node4</title>
<g id="a_node4"><a xlink:href="class_o_m_sim_input_data.html" target="_top" xlink:title="Manages the input data, including parsing and storing material properties.">
<polygon fill="none" stroke="black" points="57,-315.5 57,-334.5 157,-334.5 157,-315.5 57,-315.5"/>
<text text-anchor="middle" x="107" y="-322.5" font-family="Helvetica,sans-Serif" font-size="10.00">OMSimInputData</text>
</a>
</g>
</g>
<!-- Node4&#45;&gt;Node3 -->
<g id="edge3" class="edge">
<title>Node4&#45;&gt;Node3</title>
<path fill="none" stroke="#9a32cd" stroke-dasharray="5,2" d="M107,-305.04C107,-292.67 107,-277.12 107,-267.63"/>
<polygon fill="#9a32cd" stroke="#9a32cd" points="103.5,-305.23 107,-315.23 110.5,-305.23 103.5,-305.23"/>
<text text-anchor="middle" x="127" y="-289" font-family="Helvetica,sans-Serif" font-size="10.00"> m_data</text>
</g>
<!-- Node5 -->
<g id="node5" class="node">
<title>Node5</title>
<g id="a_node5"><a xlink:href="class_parameter_table.html" target="_top" xlink:title="A utility class for managing JSON&#45;based data tables.">
<polygon fill="none" stroke="black" points="61,-372.5 61,-391.5 153,-391.5 153,-372.5 61,-372.5"/>
<text text-anchor="middle" x="107" y="-379.5" font-family="Helvetica,sans-Serif" font-size="10.00">ParameterTable</text>
</a>
</g>
</g>
<!-- Node5&#45;&gt;Node4 -->
<g id="edge4" class="edge">
<title>Node5&#45;&gt;Node4</title>
<path fill="none" stroke="midnightblue" d="M107,-362.12C107,-352.82 107,-342.06 107,-334.71"/>
<polygon fill="midnightblue" stroke="midnightblue" points="103.5,-362.41 107,-372.41 110.5,-362.41 103.5,-362.41"/>
</g>
<!-- Node6&#45;&gt;Node2 -->
<g id="edge5" class="edge">
<title>Node6&#45;&gt;Node2</title>
<path fill="none" stroke="#9a32cd" stroke-dasharray="5,2" d="M94.9,-182.9C85.96,-170.27 74.17,-153.6 67.11,-143.63"/>
<polygon fill="#9a32cd" stroke="#9a32cd" points="92.16,-185.09 100.8,-191.23 97.88,-181.05 92.16,-185.09"/>
<text text-anchor="middle" x="128.5" y="-165" font-family="Helvetica,sans-Serif" font-size="10.00"> m_managerPMT</text>
</g>
<!-- Node7&#45;&gt;Node1 -->
<g id="edge7" class="edge">
<title>Node7&#45;&gt;Node1</title>
<path fill="none" stroke="#9a32cd" stroke-dasharray="5,2" d="M122.1,-28.94C118.49,-35.78 113.73,-43.29 108,-49 100.4,-56.57 90.25,-62.76 81.33,-67.28"/>
<polygon fill="#9a32cd" stroke="#9a32cd" points="125.37,-30.23 126.55,-19.7 119.06,-27.2 125.37,-30.23"/>
<text text-anchor="middle" x="145.5" y="-41" font-family="Helvetica,sans-Serif" font-size="10.00"> m_harness</text>
</g>
</g>
</svg>
