<?xml version="1.0" encoding="UTF-8" standalone="no"?>
<!DOCTYPE svg PUBLIC "-//W3C//DTD SVG 1.1//EN"
 "http://www.w3.org/Graphics/SVG/1.1/DTD/svg11.dtd">
<!-- Generated by graphviz version 2.43.0 (0)
 -->
<!-- Title: mDOM Pages: 1 -->
<svg width="261pt" height="401pt"
 viewBox="0.00 0.00 261.00 401.00" xmlns="http://www.w3.org/2000/svg" xmlns:xlink="http://www.w3.org/1999/xlink">
<g id="graph0" class="graph" transform="scale(1 1) rotate(0) translate(4 397)">
<title>mDOM</title>
<!-- Node1 -->
<g id="Node000001" class="node">
<title>Node1</title>
<g id="a_Node000001"><a xlink:title=" ">
<polygon fill="#999999" stroke="#666666" points="141,-85 91,-85 91,-66 141,-66 141,-85"/>
<text text-anchor="middle" x="116" y="-73" font-family="Helvetica,sans-Serif" font-size="10.00">mDOM</text>
</a>
</g>
</g>
<!-- Node8 -->
<g id="Node000008" class="node">
<title>Node8</title>
<g id="a_Node000008"><a xlink:href="classm_d_o_m_harness.html" target="_top" xlink:title=" ">
<polygon fill="white" stroke="#bfbfbf" points="223,-19 133,-19 133,0 223,0 223,-19"/>
<text text-anchor="middle" x="178" y="-7" font-family="Helvetica,sans-Serif" font-size="10.00">mDOMHarness</text>
</a>
</g>
</g>
<!-- Node1&#45;&gt;Node8 -->
<g id="edge11_Node000008_Node000001" class="edge">
<title>Node1&#45;&gt;Node8</title>
<g id="a_edge11_Node000008_Node000001"><a xlink:title=" ">
<path fill="none" stroke="#9a32cd" stroke-dasharray="5,2" d="M81.31,-63.21C67.01,-56.68 55.54,-47.65 64,-37 72.69,-26.06 104.93,-19.23 132.92,-15.25"/>
<polygon fill="#9a32cd" stroke="#9a32cd" points="80.35,-66.6 90.94,-67.13 82.99,-60.12 80.35,-66.6"/>
</a>
</g>
<text text-anchor="middle" x="108" y="-40" font-family="Helvetica,sans-Serif" font-size="10.00" fill="grey"> m_opticalModule</text>
</g>
<!-- Node2 -->
<g id="Node000002" class="node">
<title>Node2</title>
<g id="a_Node000002"><a xlink:href="class_o_m_sim_optical_module.html" target="_top" xlink:title="Base class for OMs works as interface.">
<polygon fill="white" stroke="#666666" points="122,-141 0,-141 0,-122 122,-122 122,-141"/>
<text text-anchor="middle" x="61" y="-129" font-family="Helvetica,sans-Serif" font-size="10.00">OMSimOpticalModule</text>
</a>
</g>
</g>
<!-- Node2&#45;&gt;Node1 -->
<g id="edge1_Node000001_Node000002" class="edge">
<title>Node2&#45;&gt;Node1</title>
<g id="a_edge1_Node000001_Node000002"><a xlink:title=" ">
<path fill="none" stroke="#63b8ff" d="M77.29,-114.5C87.04,-104.93 99.05,-93.14 107.09,-85.25"/>
<polygon fill="#63b8ff" stroke="#63b8ff" points="74.77,-112.08 70.08,-121.58 79.67,-117.07 74.77,-112.08"/>
</a>
</g>
</g>
<!-- Node3 -->
<g id="Node000003" class="node">
<title>Node3</title>
<g id="a_Node000003"><a xlink:href="class_o_m_sim_detector_component.html" target="_top" xlink:title="Abstract base class used for constructing detector components.">
<polygon fill="white" stroke="#666666" points="253,-271 103,-271 103,-252 253,-252 253,-271"/>
<text text-anchor="middle" x="178" y="-259" font-family="Helvetica,sans-Serif" font-size="10.00">OMSimDetectorComponent</text>
</a>
</g>
</g>
<!-- Node3&#45;&gt;Node2 -->
<g id="edge2_Node000002_Node000003" class="edge">
<title>Node3&#45;&gt;Node2</title>
<g id="a_edge2_Node000002_Node000003"><a xlink:title=" ">
<path fill="none" stroke="#63b8ff" d="M92.82,-252.92C69.04,-246.4 45.7,-234.94 31,-215 13.73,-191.57 38.93,-157.18 52.84,-141.22"/>
<polygon fill="#63b8ff" stroke="#63b8ff" points="92.12,-256.35 102.66,-255.33 93.79,-249.55 92.12,-256.35"/>
</a>
</g>
</g>
<!-- Node6 -->
<g id="Node000006" class="node">
<title>Node6</title>
<g id="a_Node000006"><a xlink:href="class_o_m_sim_p_m_t_construction.html" target="_top" xlink:title=" ">
<polygon fill="white" stroke="#bfbfbf" points="174,-215 40,-215 40,-196 174,-196 174,-215"/>
<text text-anchor="middle" x="107" y="-203" font-family="Helvetica,sans-Serif" font-size="10.00">OMSimPMTConstruction</text>
</a>
</g>
</g>
<!-- Node3&#45;&gt;Node6 -->
<g id="edge6_Node000006_Node000003" class="edge">
<title>Node3&#45;&gt;Node6</title>
<g id="a_edge6_Node000006_Node000003"><a xlink:title=" ">
<path fill="none" stroke="#63b8ff" d="M158.41,-245.6C145.63,-235.88 129.39,-223.53 118.61,-215.33"/>
<polygon fill="#63b8ff" stroke="#63b8ff" points="156.51,-248.56 166.59,-251.82 160.75,-242.98 156.51,-248.56"/>
</a>
</g>
</g>
<!-- Node7 -->
<g id="Node000007" class="node">
<title>Node7</title>
<g id="a_Node000007"><a xlink:href="classm_d_o_m_flasher.html" target="_top" xlink:title="The mDOMFlasher class represents the 10 flashers in an mDOM optical module.">
<polygon fill="white" stroke="#666666" points="235,-178 149,-178 149,-159 235,-159 235,-178"/>
<text text-anchor="middle" x="192" y="-166" font-family="Helvetica,sans-Serif" font-size="10.00">mDOMFlasher</text>
</a>
</g>
</g>
<!-- Node3&#45;&gt;Node7 -->
<g id="edge8_Node000007_Node000003" class="edge">
<title>Node3&#45;&gt;Node7</title>
<g id="a_edge8_Node000007_Node000003"><a xlink:title=" ">
<path fill="none" stroke="#63b8ff" d="M180.9,-241.64C183.9,-222.13 188.46,-192.53 190.68,-178.07"/>
<polygon fill="#63b8ff" stroke="#63b8ff" points="177.4,-241.36 179.34,-251.77 184.32,-242.42 177.4,-241.36"/>
</a>
</g>
</g>
<!-- Node3&#45;&gt;Node8 -->
<g id="edge10_Node000008_Node000003" class="edge">
<title>Node3&#45;&gt;Node8</title>
<g id="a_edge10_Node000008_Node000003"><a xlink:title=" ">
<path fill="none" stroke="#63b8ff" d="M215.67,-247.69C233.1,-239.16 250,-225.88 250,-206.5 250,-206.5 250,-206.5 250,-74.5 250,-47.41 221.17,-28.97 199.99,-19.09"/>
<polygon fill="#63b8ff" stroke="#63b8ff" points="213.77,-244.71 206.04,-251.96 216.6,-251.11 213.77,-244.71"/>
</a>
</g>
</g>
<!-- Node4 -->
<g id="Node000004" class="node">
<title>Node4</title>
<g id="a_Node000004"><a xlink:href="class_o_m_sim_input_data.html" target="_top" xlink:title="Manages the input data, including parsing and storing material properties.">
<polygon fill="white" stroke="#666666" points="228,-337 128,-337 128,-318 228,-318 228,-337"/>
<text text-anchor="middle" x="178" y="-325" font-family="Helvetica,sans-Serif" font-size="10.00">OMSimInputData</text>
</a>
</g>
</g>
<!-- Node4&#45;&gt;Node3 -->
<g id="edge3_Node000003_Node000004" class="edge">
<title>Node4&#45;&gt;Node3</title>
<g id="a_edge3_Node000003_Node000004"><a xlink:title=" ">
<path fill="none" stroke="#9a32cd" stroke-dasharray="5,2" d="M178,-307.58C178,-295.63 178,-280.72 178,-271.41"/>
<polygon fill="#9a32cd" stroke="#9a32cd" points="174.5,-307.87 178,-317.87 181.5,-307.87 174.5,-307.87"/>
</a>
</g>
<text text-anchor="middle" x="198" y="-292" font-family="Helvetica,sans-Serif" font-size="10.00" fill="grey"> m_data</text>
</g>
<!-- Node5 -->
<g id="Node000005" class="node">
<title>Node5</title>
<g id="a_Node000005"><a xlink:href="class_parameter_table.html" target="_top" xlink:title="A utility class for managing JSON&#45;based data tables.">
<polygon fill="white" stroke="#666666" points="224,-393 132,-393 132,-374 224,-374 224,-393"/>
<text text-anchor="middle" x="178" y="-381" font-family="Helvetica,sans-Serif" font-size="10.00">ParameterTable</text>
</a>
</g>
</g>
<!-- Node5&#45;&gt;Node4 -->
<g id="edge4_Node000004_Node000005" class="edge">
<title>Node5&#45;&gt;Node4</title>
<g id="a_edge4_Node000004_Node000005"><a xlink:title=" ">
<path fill="none" stroke="#63b8ff" d="M178,-363.3C178,-354.41 178,-344.28 178,-337.25"/>
<polygon fill="#63b8ff" stroke="#63b8ff" points="174.5,-363.58 178,-373.58 181.5,-363.58 174.5,-363.58"/>
</a>
</g>
</g>
<!-- Node6&#45;&gt;Node2 -->
<g id="edge5_Node000002_Node000006" class="edge">
<title>Node6&#45;&gt;Node2</title>
<g id="a_edge5_Node000002_Node000006"><a xlink:title=" ">
<path fill="none" stroke="#9a32cd" stroke-dasharray="5,2" d="M69.82,-190.93C64.71,-187.48 60.15,-183.23 57,-178 50.21,-166.72 53.91,-150.94 57.35,-141.23"/>
<polygon fill="#9a32cd" stroke="#9a32cd" points="68.35,-194.11 78.78,-195.98 71.79,-188.02 68.35,-194.11"/>
</a>
</g>
<text text-anchor="middle" x="98.5" y="-166" font-family="Helvetica,sans-Serif" font-size="10.00" fill="grey"> m_managerPMT</text>
</g>
<!-- Node7&#45;&gt;Node1 -->
<g id="edge7_Node000001_Node000007" class="edge">
<title>Node7&#45;&gt;Node1</title>
<g id="a_edge7_Node000001_Node000007"><a xlink:title=" ">
<path fill="none" stroke="#9a32cd" stroke-dasharray="5,2" d="M178.26,-151.05C162.06,-131.65 135.74,-100.14 123.15,-85.07"/>
<polygon fill="#9a32cd" stroke="#9a32cd" points="175.62,-153.34 184.71,-158.77 180.99,-148.86 175.62,-153.34"/>
</a>
</g>
<text text-anchor="middle" x="198.5" y="-129" font-family="Helvetica,sans-Serif" font-size="10.00" fill="grey"> m_flashers</text>
</g>
<!-- Node8&#45;&gt;Node1 -->
<g id="edge9_Node000001_Node000008" class="edge">
<title>Node8&#45;&gt;Node1</title>
<g id="a_edge9_Node000001_Node000008"><a xlink:title=" ">
<path fill="none" stroke="#9a32cd" stroke-dasharray="5,2" d="M169.74,-28.28C166.11,-34.93 161.44,-42.26 156,-48 149.24,-55.14 140.22,-61.33 132.45,-65.92"/>
<polygon fill="#9a32cd" stroke="#9a32cd" points="172.89,-29.79 174.26,-19.28 166.64,-26.64 172.89,-29.79"/>
</a>
</g>
<text text-anchor="middle" x="193.5" y="-40" font-family="Helvetica,sans-Serif" font-size="10.00" fill="grey"> m_harness</text>
</g>
</g>
</svg>
