<?xml version="1.0" encoding="UTF-8" standalone="no"?>
<!DOCTYPE svg PUBLIC "-//W3C//DTD SVG 1.1//EN"
 "http://www.w3.org/Graphics/SVG/1.1/DTD/svg11.dtd">
<!-- Generated by graphviz version 2.43.0 (0)
 -->
<!-- Title: CADMesh::File::Reader Pages: 1 -->
<svg width="331pt" height="138pt"
 viewBox="0.00 0.00 331.00 138.00" xmlns="http://www.w3.org/2000/svg" xmlns:xlink="http://www.w3.org/1999/xlink">
<g id="graph0" class="graph" transform="scale(1 1) rotate(0) translate(4 134)">
<title>CADMesh::File::Reader</title>
<!-- Node1 -->
<g id="Node000001" class="node">
<title>Node1</title>
<g id="a_Node000001"><a xlink:title=" ">
<polygon fill="#999999" stroke="#666666" points="128,-74 0,-74 0,-55 128,-55 128,-74"/>
<text text-anchor="middle" x="64" y="-62" font-family="Helvetica,sans-Serif" font-size="10.00">CADMesh::File::Reader</text>
</a>
</g>
</g>
<!-- Node2 -->
<g id="Node000002" class="node">
<title>Node2</title>
<g id="a_Node000002"><a xlink:href="class_c_a_d_mesh_1_1_file_1_1_built_in_reader.html" target="_top" xlink:title=" ">
<polygon fill="white" stroke="#bfbfbf" points="323,-130 164,-130 164,-111 323,-111 323,-130"/>
<text text-anchor="middle" x="243.5" y="-118" font-family="Helvetica,sans-Serif" font-size="10.00">CADMesh::File::BuiltInReader</text>
</a>
</g>
</g>
<!-- Node1&#45;&gt;Node2 -->
<g id="edge1_Node000001_Node000002" class="edge">
<title>Node1&#45;&gt;Node2</title>
<g id="a_edge1_Node000001_Node000002"><a xlink:title=" ">
<path fill="none" stroke="#63b8ff" d="M96.57,-77.93C115.82,-85.79 141.06,-95.5 164,-102.5 174.16,-105.6 185.21,-108.44 195.72,-110.91"/>
<polygon fill="#63b8ff" stroke="#63b8ff" points="97.68,-74.6 87.1,-74.01 95,-81.07 97.68,-74.6"/>
</a>
</g>
</g>
<!-- Node3 -->
<g id="Node000003" class="node">
<title>Node3</title>
<g id="a_Node000003"><a xlink:href="class_c_a_d_mesh_1_1_file_1_1_o_b_j_reader.html" target="_top" xlink:title=" ">
<polygon fill="white" stroke="#bfbfbf" points="316,-93 171,-93 171,-74 316,-74 316,-93"/>
<text text-anchor="middle" x="243.5" y="-81" font-family="Helvetica,sans-Serif" font-size="10.00">CADMesh::File::OBJReader</text>
</a>
</g>
</g>
<!-- Node1&#45;&gt;Node3 -->
<g id="edge2_Node000001_Node000003" class="edge">
<title>Node1&#45;&gt;Node3</title>
<g id="a_edge2_Node000001_Node000003"><a xlink:title=" ">
<path fill="none" stroke="#63b8ff" d="M138.28,-72.34C149.05,-73.5 160.12,-74.68 170.85,-75.83"/>
<polygon fill="#63b8ff" stroke="#63b8ff" points="138.4,-68.84 128.08,-71.25 137.65,-75.8 138.4,-68.84"/>
</a>
</g>
</g>
<!-- Node4 -->
<g id="Node000004" class="node">
<title>Node4</title>
<g id="a_Node000004"><a xlink:href="class_c_a_d_mesh_1_1_file_1_1_p_l_y_reader.html" target="_top" xlink:title=" ">
<polygon fill="white" stroke="#bfbfbf" points="315.5,-56 171.5,-56 171.5,-37 315.5,-37 315.5,-56"/>
<text text-anchor="middle" x="243.5" y="-44" font-family="Helvetica,sans-Serif" font-size="10.00">CADMesh::File::PLYReader</text>
</a>
</g>
</g>
<!-- Node1&#45;&gt;Node4 -->
<g id="edge3_Node000001_Node000004" class="edge">
<title>Node1&#45;&gt;Node4</title>
<g id="a_edge3_Node000001_Node000004"><a xlink:title=" ">
<path fill="none" stroke="#63b8ff" d="M138.09,-57.09C149.12,-55.97 160.48,-54.82 171.46,-53.7"/>
<polygon fill="#63b8ff" stroke="#63b8ff" points="137.68,-53.61 128.08,-58.1 138.38,-60.58 137.68,-53.61"/>
</a>
</g>
</g>
<!-- Node5 -->
<g id="Node000005" class="node">
<title>Node5</title>
<g id="a_Node000005"><a xlink:href="class_c_a_d_mesh_1_1_file_1_1_s_t_l_reader.html" target="_top" xlink:title=" ">
<polygon fill="white" stroke="#bfbfbf" points="316,-19 171,-19 171,0 316,0 316,-19"/>
<text text-anchor="middle" x="243.5" y="-7" font-family="Helvetica,sans-Serif" font-size="10.00">CADMesh::File::STLReader</text>
</a>
</g>
</g>
<!-- Node1&#45;&gt;Node5 -->
<g id="edge4_Node000001_Node000005" class="edge">
<title>Node1&#45;&gt;Node5</title>
<g id="a_edge4_Node000001_Node000005"><a xlink:title=" ">
<path fill="none" stroke="#63b8ff" d="M98.58,-51.23C117.6,-43.99 141.93,-35.16 164,-28.5 175.28,-25.1 187.6,-21.88 199.08,-19.1"/>
<polygon fill="#63b8ff" stroke="#63b8ff" points="97.23,-48 89.16,-54.86 99.75,-54.54 97.23,-48"/>
</a>
</g>
</g>
</g>
</svg>
