<?xml version="1.0" encoding="UTF-8" standalone="no"?>
<!DOCTYPE svg PUBLIC "-//W3C//DTD SVG 1.1//EN"
 "http://www.w3.org/Graphics/SVG/1.1/DTD/svg11.dtd">
<!-- Generated by graphviz version 2.43.0 (0)
 -->
<!-- Title: OMSimPrimaryGeneratorMessenger Pages: 1 -->
<svg width="528pt" height="237pt"
 viewBox="0.00 0.00 527.50 237.00" xmlns="http://www.w3.org/2000/svg" xmlns:xlink="http://www.w3.org/1999/xlink">
<g id="graph0" class="graph" transform="scale(1 1) rotate(0) translate(4 233)">
<title>OMSimPrimaryGeneratorMessenger</title>
<!-- Node1 -->
<g id="Node000001" class="node">
<title>Node1</title>
<g id="a_Node000001"><a xlink:title=" ">
<polygon fill="#999999" stroke="#666666" points="518.5,-85 326.5,-85 326.5,-66 518.5,-66 518.5,-85"/>
<text text-anchor="middle" x="422.5" y="-73" font-family="Helvetica,sans-Serif" font-size="10.00">OMSimPrimaryGeneratorMessenger</text>
</a>
</g>
</g>
<!-- Node3 -->
<g id="Node000003" class="node">
<title>Node3</title>
<g id="a_Node000003"><a xlink:href="class_o_m_sim_primary_generator_action.html" target="_top" xlink:title=" ">
<polygon fill="white" stroke="#bfbfbf" points="203.5,-19 33.5,-19 33.5,0 203.5,0 203.5,-19"/>
<text text-anchor="middle" x="118.5" y="-7" font-family="Helvetica,sans-Serif" font-size="10.00">OMSimPrimaryGeneratorAction</text>
</a>
</g>
</g>
<!-- Node1&#45;&gt;Node3 -->
<g id="edge14_Node000003_Node000001" class="edge">
<title>Node1&#45;&gt;Node3</title>
<g id="a_edge14_Node000003_Node000001"><a xlink:title=" ">
<path fill="none" stroke="#9a32cd" stroke-dasharray="5,2" d="M359.12,-63.8C341.44,-59.84 322.44,-54.64 305.5,-48 296.42,-44.44 295.7,-40.26 286.5,-37 260.34,-27.73 230.74,-21.69 203.75,-17.77"/>
<polygon fill="#9a32cd" stroke="#9a32cd" points="358.85,-67.32 369.36,-65.99 360.31,-60.47 358.85,-67.32"/>
</a>
</g>
<text text-anchor="middle" x="350.5" y="-40" font-family="Helvetica,sans-Serif" font-size="10.00" fill="grey"> m_gunMessenger</text>
</g>
<!-- Node2 -->
<g id="Node000002" class="node">
<title>Node2</title>
<g id="a_Node000002"><a xlink:title=" ">
<polygon fill="white" stroke="#bfbfbf" points="470,-141 375,-141 375,-122 470,-122 470,-141"/>
<text text-anchor="middle" x="422.5" y="-129" font-family="Helvetica,sans-Serif" font-size="10.00">G4UImessenger</text>
</a>
</g>
</g>
<!-- Node2&#45;&gt;Node1 -->
<g id="edge1_Node000001_Node000002" class="edge">
<title>Node2&#45;&gt;Node1</title>
<g id="a_edge1_Node000001_Node000002"><a xlink:title=" ">
<path fill="none" stroke="#63b8ff" d="M422.5,-111.3C422.5,-102.41 422.5,-92.28 422.5,-85.25"/>
<polygon fill="#63b8ff" stroke="#63b8ff" points="419,-111.58 422.5,-121.58 426,-111.58 419,-111.58"/>
</a>
</g>
</g>
<!-- Node3&#45;&gt;Node1 -->
<g id="edge2_Node000001_Node000003" class="edge">
<title>Node3&#45;&gt;Node1</title>
<g id="a_edge2_Node000001_Node000003"><a xlink:title=" ">
<path fill="none" stroke="#9a32cd" stroke-dasharray="5,2" d="M213.67,-10.52C282.79,-12.17 369.28,-18.16 399.5,-37 410,-43.54 416.42,-56.82 419.72,-65.69"/>
<polygon fill="#9a32cd" stroke="#9a32cd" points="213.68,-7.02 203.6,-10.3 213.53,-14.01 213.68,-7.02"/>
</a>
</g>
<text text-anchor="middle" x="435" y="-40" font-family="Helvetica,sans-Serif" font-size="10.00" fill="grey"> m_action</text>
</g>
<!-- Node4 -->
<g id="Node000004" class="node">
<title>Node4</title>
<g id="a_Node000004"><a xlink:title=" ">
<polygon fill="white" stroke="#bfbfbf" points="177,-229 0,-229 0,-210 177,-210 177,-229"/>
<text text-anchor="middle" x="88.5" y="-217" font-family="Helvetica,sans-Serif" font-size="10.00">G4VUserPrimaryGeneratorAction</text>
</a>
</g>
</g>
<!-- Node4&#45;&gt;Node3 -->
<g id="edge3_Node000003_Node000004" class="edge">
<title>Node4&#45;&gt;Node3</title>
<g id="a_edge3_Node000003_Node000004"><a xlink:title=" ">
<path fill="none" stroke="#63b8ff" d="M78.99,-199.8C73.47,-156.43 89.93,-50.32 108.49,-19.21"/>
<polygon fill="#63b8ff" stroke="#63b8ff" points="75.6,-200.72 81.01,-209.83 82.47,-199.33 75.6,-200.72"/>
</a>
</g>
</g>
<!-- Node4&#45;&gt;Node3 -->
<g id="edge4_Node000003_Node000004" class="edge">
<title>Node4&#45;&gt;Node3</title>
<g id="a_edge4_Node000003_Node000004"><a xlink:title=" ">
<path fill="none" stroke="#63b8ff" d="M87.13,-199.8C89.46,-156.43 105.15,-50.32 114.32,-19.21"/>
<polygon fill="#63b8ff" stroke="#63b8ff" points="83.63,-199.73 86.84,-209.83 90.63,-199.93 83.63,-199.73"/>
</a>
</g>
</g>
<!-- Node4&#45;&gt;Node3 -->
<g id="edge5_Node000003_Node000004" class="edge">
<title>Node4&#45;&gt;Node3</title>
<g id="a_edge5_Node000003_Node000004"><a xlink:title=" ">
<path fill="none" stroke="#63b8ff" d="M95.2,-200.08C105.38,-156.89 120.37,-50.39 120.16,-19.21"/>
<polygon fill="#63b8ff" stroke="#63b8ff" points="91.79,-199.27 92.66,-209.83 98.57,-201.03 91.79,-199.27"/>
</a>
</g>
</g>
<!-- Node4&#45;&gt;Node3 -->
<g id="edge6_Node000003_Node000004" class="edge">
<title>Node4&#45;&gt;Node3</title>
<g id="a_edge6_Node000003_Node000004"><a xlink:title=" ">
<path fill="none" stroke="#63b8ff" d="M103.06,-200.63C121.25,-157.79 135.65,-50.52 126,-19.21"/>
<polygon fill="#63b8ff" stroke="#63b8ff" points="99.8,-199.31 98.49,-209.83 106.07,-202.43 99.8,-199.31"/>
</a>
</g>
</g>
<!-- Node6 -->
<g id="Node000006" class="node">
<title>Node6</title>
<g id="a_Node000006"><a xlink:href="class_s_n_base_particle_generator.html" target="_top" xlink:title=" ">
<polygon fill="white" stroke="#bfbfbf" points="310,-141 171,-141 171,-122 310,-122 310,-141"/>
<text text-anchor="middle" x="240.5" y="-129" font-family="Helvetica,sans-Serif" font-size="10.00">SNBaseParticleGenerator</text>
</a>
</g>
</g>
<!-- Node4&#45;&gt;Node6 -->
<g id="edge9_Node000006_Node000004" class="edge">
<title>Node4&#45;&gt;Node6</title>
<g id="a_edge9_Node000006_Node000004"><a xlink:title=" ">
<path fill="none" stroke="#63b8ff" d="M112.68,-204.82C144.38,-186.88 199.07,-155.94 225.43,-141.03"/>
<polygon fill="#63b8ff" stroke="#63b8ff" points="110.61,-201.97 103.63,-209.94 114.06,-208.06 110.61,-201.97"/>
</a>
</g>
</g>
<!-- Node5 -->
<g id="Node000005" class="node">
<title>Node5</title>
<g id="a_Node000005"><a xlink:href="class_o_m_sim_i_b_d.html" target="_top" xlink:title="Class in charge of generating positrons from IBD of supernova antineutrino interactions.">
<polygon fill="white" stroke="#666666" points="213,-85 144,-85 144,-66 213,-66 213,-85"/>
<text text-anchor="middle" x="178.5" y="-73" font-family="Helvetica,sans-Serif" font-size="10.00">OMSimIBD</text>
</a>
</g>
</g>
<!-- Node5&#45;&gt;Node3 -->
<g id="edge7_Node000003_Node000005" class="edge">
<title>Node5&#45;&gt;Node3</title>
<g id="a_edge7_Node000003_Node000005"><a xlink:title=" ">
<path fill="none" stroke="#9a32cd" stroke-dasharray="5,2" d="M162.72,-58.62C159.33,-55.15 155.77,-51.47 152.5,-48 143.33,-38.28 133.07,-26.88 126.24,-19.23"/>
<polygon fill="#9a32cd" stroke="#9a32cd" points="160.23,-61.08 169.75,-65.75 165.22,-56.17 160.23,-61.08"/>
</a>
</g>
<text text-anchor="middle" x="180" y="-40" font-family="Helvetica,sans-Serif" font-size="10.00" fill="grey"> m_action0</text>
</g>
<!-- Node6&#45;&gt;Node5 -->
<g id="edge8_Node000005_Node000006" class="edge">
<title>Node6&#45;&gt;Node5</title>
<g id="a_edge8_Node000005_Node000006"><a xlink:title=" ">
<path fill="none" stroke="#63b8ff" d="M222.75,-115.04C211.69,-105.41 197.87,-93.37 188.64,-85.33"/>
<polygon fill="#63b8ff" stroke="#63b8ff" points="220.7,-117.9 230.54,-121.82 225.3,-112.62 220.7,-117.9"/>
</a>
</g>
</g>
<!-- Node9 -->
<g id="Node000009" class="node">
<title>Node9</title>
<g id="a_Node000009"><a xlink:href="class_o_m_sim_e_n_e_s.html" target="_top" xlink:title="Class in charge of generating electrons from Electron&#45;electron_Neutrino Elastic Scattering (ENES) nu_...">
<polygon fill="white" stroke="#666666" points="308,-85 231,-85 231,-66 308,-66 308,-85"/>
<text text-anchor="middle" x="269.5" y="-73" font-family="Helvetica,sans-Serif" font-size="10.00">OMSimENES</text>
</a>
</g>
</g>
<!-- Node6&#45;&gt;Node9 -->
<g id="edge13_Node000009_Node000006" class="edge">
<title>Node6&#45;&gt;Node9</title>
<g id="a_edge13_Node000009_Node000006"><a xlink:title=" ">
<path fill="none" stroke="#63b8ff" d="M250.18,-112.48C255.1,-103.32 260.86,-92.59 264.8,-85.25"/>
<polygon fill="#63b8ff" stroke="#63b8ff" points="246.94,-111.12 245.29,-121.58 253.1,-114.43 246.94,-111.12"/>
</a>
</g>
</g>
<!-- Node7 -->
<g id="Node000007" class="node">
<title>Node7</title>
<g id="a_Node000007"><a xlink:href="class_o_m_sim_s_n_tools.html" target="_top" xlink:title="Provides utility methods for generating ENES and IBD interactions.">
<polygon fill="white" stroke="#666666" points="285.5,-229 195.5,-229 195.5,-210 285.5,-210 285.5,-229"/>
<text text-anchor="middle" x="240.5" y="-217" font-family="Helvetica,sans-Serif" font-size="10.00">OMSimSNTools</text>
</a>
</g>
</g>
<!-- Node7&#45;&gt;Node6 -->
<g id="edge10_Node000006_Node000007" class="edge">
<title>Node7&#45;&gt;Node6</title>
<g id="a_edge10_Node000006_Node000007"><a xlink:title=" ">
<path fill="none" stroke="#9a32cd" stroke-dasharray="5,2" d="M240.5,-199.91C240.5,-181.67 240.5,-154.65 240.5,-141.03"/>
<polygon fill="#9a32cd" stroke="#9a32cd" points="237,-199.94 240.5,-209.94 244,-199.94 237,-199.94"/>
</a>
</g>
<text text-anchor="middle" x="275.5" y="-173" font-family="Helvetica,sans-Serif" font-size="10.00" fill="grey"> m_SNToolBox</text>
</g>
<!-- Node8 -->
<g id="Node000008" class="node">
<title>Node8</title>
<g id="a_Node000008"><a xlink:href="class_distribution_sampler.html" target="_top" xlink:title="Utility class for sampling from a given distribution using the inverse cumulative function and interp...">
<polygon fill="white" stroke="#666666" points="417.5,-229 303.5,-229 303.5,-210 417.5,-210 417.5,-229"/>
<text text-anchor="middle" x="360.5" y="-217" font-family="Helvetica,sans-Serif" font-size="10.00">DistributionSampler</text>
</a>
</g>
</g>
<!-- Node8&#45;&gt;Node6 -->
<g id="edge11_Node000006_Node000008" class="edge">
<title>Node8&#45;&gt;Node6</title>
<g id="a_edge11_Node000006_Node000008"><a xlink:title=" ">
<path fill="none" stroke="#9a32cd" stroke-dasharray="5,2" d="M350.94,-201.31C342.8,-188.09 329.97,-170.24 314.5,-159 303.46,-150.98 289.75,-145.18 277.15,-141.09"/>
<polygon fill="#9a32cd" stroke="#9a32cd" points="347.93,-203.11 356.01,-209.96 353.97,-199.56 347.93,-203.11"/>
</a>
</g>
<text text-anchor="middle" x="432.5" y="-184" font-family="Helvetica,sans-Serif" font-size="10.00" fill="grey"> m_meanEnergyDistribution</text>
<text text-anchor="middle" x="432.5" y="-173" font-family="Helvetica,sans-Serif" font-size="10.00" fill="grey">m_meanEnergySquaredDistribution</text>
<text text-anchor="middle" x="432.5" y="-162" font-family="Helvetica,sans-Serif" font-size="10.00" fill="grey">m_timeDistribution</text>
</g>
<!-- Node9&#45;&gt;Node3 -->
<g id="edge12_Node000003_Node000009" class="edge">
<title>Node9&#45;&gt;Node3</title>
<g id="a_edge12_Node000003_Node000009"><a xlink:title=" ">
<path fill="none" stroke="#9a32cd" stroke-dasharray="5,2" d="M248.61,-60.03C236.92,-52.41 221.84,-43.35 207.5,-37 190.69,-29.56 171.21,-23.49 154.76,-19.05"/>
<polygon fill="#9a32cd" stroke="#9a32cd" points="246.93,-63.11 257.19,-65.76 250.82,-57.29 246.93,-63.11"/>
</a>
</g>
<text text-anchor="middle" x="257" y="-40" font-family="Helvetica,sans-Serif" font-size="10.00" fill="grey"> m_action1</text>
</g>
</g>
</svg>
