<?xml version="1.0" encoding="UTF-8" standalone="no"?>
<!DOCTYPE svg PUBLIC "-//W3C//DTD SVG 1.1//EN"
 "http://www.w3.org/Graphics/SVG/1.1/DTD/svg11.dtd">
<!-- Generated by graphviz version 2.43.0 (0)
 -->
<!-- Title: G4VRadioactiveDecay Pages: 1 -->
<svg width="339pt" height="149pt"
 viewBox="0.00 0.00 338.50 149.00" xmlns="http://www.w3.org/2000/svg" xmlns:xlink="http://www.w3.org/1999/xlink">
<g id="graph0" class="graph" transform="scale(1 1) rotate(0) translate(4 145)">
<title>G4VRadioactiveDecay</title>
<!-- Node1 -->
<g id="Node000001" class="node">
<title>Node1</title>
<g id="a_Node000001"><a xlink:title=" ">
<polygon fill="#999999" stroke="#666666" points="181,-19 56,-19 56,0 181,0 181,-19"/>
<text text-anchor="middle" x="118.5" y="-7" font-family="Helvetica,sans-Serif" font-size="10.00">G4VRadioactiveDecay</text>
</a>
</g>
</g>
<!-- Node2 -->
<g id="Node000002" class="node">
<title>Node2</title>
<g id="a_Node000002"><a xlink:title=" ">
<polygon fill="white" stroke="#bfbfbf" points="137,-85 0,-85 0,-66 137,-66 137,-85"/>
<text text-anchor="middle" x="68.5" y="-73" font-family="Helvetica,sans-Serif" font-size="10.00">G4VRestDiscreteProcess</text>
</a>
</g>
</g>
<!-- Node2&#45;&gt;Node1 -->
<g id="edge1_Node000001_Node000002" class="edge">
<title>Node2&#45;&gt;Node1</title>
<g id="a_edge1_Node000001_Node000002"><a xlink:title=" ">
<path fill="none" stroke="#63b8ff" d="M81.57,-57.77C91.16,-45.49 103.81,-29.3 111.54,-19.41"/>
<polygon fill="#63b8ff" stroke="#63b8ff" points="78.64,-55.83 75.24,-65.87 84.16,-60.14 78.64,-55.83"/>
</a>
</g>
</g>
<!-- Node3 -->
<g id="Node000003" class="node">
<title>Node3</title>
<g id="a_Node000003"><a xlink:href="class_g4_particle_change_for_rad_decay.html" target="_top" xlink:title=" ">
<polygon fill="white" stroke="#bfbfbf" points="322,-85 155,-85 155,-66 322,-66 322,-85"/>
<text text-anchor="middle" x="238.5" y="-73" font-family="Helvetica,sans-Serif" font-size="10.00">G4ParticleChangeForRadDecay</text>
</a>
</g>
</g>
<!-- Node3&#45;&gt;Node1 -->
<g id="edge2_Node000001_Node000003" class="edge">
<title>Node3&#45;&gt;Node1</title>
<g id="a_edge2_Node000001_Node000003"><a xlink:title=" ">
<path fill="none" stroke="#9a32cd" stroke-dasharray="5,2" d="M213.24,-61.03C189.6,-48.42 155,-29.97 134.81,-19.2"/>
<polygon fill="#9a32cd" stroke="#9a32cd" points="211.85,-64.25 222.32,-65.87 215.14,-58.07 211.85,-64.25"/>
</a>
</g>
<text text-anchor="middle" x="258" y="-40" font-family="Helvetica,sans-Serif" font-size="10.00" fill="grey"> fParticleChangeForRadDecay</text>
</g>
<!-- Node4 -->
<g id="Node000004" class="node">
<title>Node4</title>
<g id="a_Node000004"><a xlink:title=" ">
<polygon fill="white" stroke="#bfbfbf" points="293.5,-141 183.5,-141 183.5,-122 293.5,-122 293.5,-141"/>
<text text-anchor="middle" x="238.5" y="-129" font-family="Helvetica,sans-Serif" font-size="10.00">G4VParticleChange</text>
</a>
</g>
</g>
<!-- Node4&#45;&gt;Node3 -->
<g id="edge3_Node000003_Node000004" class="edge">
<title>Node4&#45;&gt;Node3</title>
<g id="a_edge3_Node000003_Node000004"><a xlink:title=" ">
<path fill="none" stroke="#63b8ff" d="M238.5,-111.3C238.5,-102.41 238.5,-92.28 238.5,-85.25"/>
<polygon fill="#63b8ff" stroke="#63b8ff" points="235,-111.58 238.5,-121.58 242,-111.58 235,-111.58"/>
</a>
</g>
</g>
</g>
</svg>
