<?xml version="1.0" encoding="UTF-8" standalone="no"?>
<!DOCTYPE svg PUBLIC "-//W3C//DTD SVG 1.1//EN"
 "http://www.w3.org/Graphics/SVG/1.1/DTD/svg11.dtd">
<!-- Generated by graphviz version 2.43.0 (0)
 -->
<!-- Title: OMSimRadDecaysDetector Pages: 1 -->
<svg width="1203pt" height="112pt"
 viewBox="0.00 0.00 1203.00 112.00" xmlns="http://www.w3.org/2000/svg" xmlns:xlink="http://www.w3.org/1999/xlink">
<g id="graph0" class="graph" transform="scale(1 1) rotate(0) translate(4 108)">
<title>OMSimRadDecaysDetector</title>
<polygon fill="white" stroke="transparent" points="-4,4 -4,-108 1199,-108 1199,4 -4,4"/>
<!-- Node1 -->
<g id="node1" class="node">
<title>Node1</title>
<g id="a_node1"><a xlink:title="Detector construction of radioactive decays simulation.">
<polygon fill="#bfbfbf" stroke="black" points="1046,-57.5 1046,-76.5 1195,-76.5 1195,-57.5 1046,-57.5"/>
<text text-anchor="middle" x="1120.5" y="-64.5" font-family="Helvetica,sans-Serif" font-size="10.00">OMSimRadDecaysDetector</text>
</a>
</g>
</g>
<!-- Node2 -->
<g id="node2" class="node">
<title>Node2</title>
<g id="a_node2"><a xlink:href="class_o_m_sim_detector_construction.html" target="_top" xlink:title="Class for detector construction in the effective area simulation.">
<polygon fill="white" stroke="black" points="365,-76.5 365,-95.5 520,-95.5 520,-76.5 365,-76.5"/>
<text text-anchor="middle" x="442.5" y="-83.5" font-family="Helvetica,sans-Serif" font-size="10.00">OMSimDetectorConstruction</text>
</a>
</g>
</g>
<!-- Node2&#45;&gt;Node1 -->
<g id="edge1" class="edge">
<title>Node2&#45;&gt;Node1</title>
<path fill="none" stroke="midnightblue" d="M530.2,-84.75C644.34,-82.92 851.27,-78.94 1028,-72 1033.72,-71.78 1039.65,-71.51 1045.6,-71.23"/>
<polygon fill="midnightblue" stroke="midnightblue" points="530.06,-81.25 520.12,-84.91 530.17,-88.25 530.06,-81.25"/>
</g>
<!-- Node3 -->
<g id="node3" class="node">
<title>Node3</title>
<g id="a_node3"><a xlink:title=" ">
<polygon fill="white" stroke="#bfbfbf" points="129,-84.5 129,-103.5 292,-103.5 292,-84.5 129,-84.5"/>
<text text-anchor="middle" x="210.5" y="-91.5" font-family="Helvetica,sans-Serif" font-size="10.00">G4VUserDetectorConstruction</text>
</a>
</g>
</g>
<!-- Node3&#45;&gt;Node2 -->
<g id="edge2" class="edge">
<title>Node3&#45;&gt;Node2</title>
<path fill="none" stroke="midnightblue" d="M302.32,-90.84C323,-90.12 344.77,-89.36 364.79,-88.67"/>
<polygon fill="midnightblue" stroke="midnightblue" points="302.14,-87.35 292.27,-91.19 302.38,-94.34 302.14,-87.35"/>
</g>
<!-- Node4 -->
<g id="node4" class="node">
<title>Node4</title>
<g id="a_node4"><a xlink:href="class_input_data_manager.html" target="_top" xlink:title="Manages the input data, including parsing and storing material properties.">
<polygon fill="white" stroke="black" points="157,-24.5 157,-43.5 264,-43.5 264,-24.5 157,-24.5"/>
<text text-anchor="middle" x="210.5" y="-31.5" font-family="Helvetica,sans-Serif" font-size="10.00">InputDataManager</text>
</a>
</g>
</g>
<!-- Node4&#45;&gt;Node2 -->
<g id="edge3" class="edge">
<title>Node4&#45;&gt;Node2</title>
<path fill="none" stroke="#9a32cd" stroke-dasharray="5,2" d="M263.49,-45.75C304.49,-55.02 360.94,-67.79 399.19,-76.43"/>
<polygon fill="#9a32cd" stroke="#9a32cd" points="264.21,-42.33 253.69,-43.54 262.67,-49.16 264.21,-42.33"/>
<text text-anchor="middle" x="328.5" y="-66" font-family="Helvetica,sans-Serif" font-size="10.00"> mData</text>
</g>
<!-- Node7 -->
<g id="node7" class="node">
<title>Node7</title>
<g id="a_node7"><a xlink:href="classabc_detector_component.html" target="_top" xlink:title="Abstract base class used for constructing detector components.">
<polygon fill="white" stroke="black" points="376.5,-27.5 376.5,-46.5 508.5,-46.5 508.5,-27.5 376.5,-27.5"/>
<text text-anchor="middle" x="442.5" y="-34.5" font-family="Helvetica,sans-Serif" font-size="10.00">abcDetectorComponent</text>
</a>
</g>
</g>
<!-- Node4&#45;&gt;Node7 -->
<g id="edge7" class="edge">
<title>Node4&#45;&gt;Node7</title>
<path fill="none" stroke="#9a32cd" stroke-dasharray="5,2" d="M274.52,-34.28C297.35,-34.44 323.34,-34.66 347,-35 356.52,-35.14 366.57,-35.31 376.43,-35.51"/>
<polygon fill="#9a32cd" stroke="#9a32cd" points="274.29,-30.78 264.27,-34.22 274.25,-37.78 274.29,-30.78"/>
<text text-anchor="middle" x="328.5" y="-38" font-family="Helvetica,sans-Serif" font-size="10.00"> mData</text>
</g>
<!-- Node8 -->
<g id="node8" class="node">
<title>Node8</title>
<g id="a_node8"><a xlink:href="class_o_m_sim_p_m_t_construction.html" target="_top" xlink:title=" ">
<polygon fill="white" stroke="black" points="557,-0.5 557,-19.5 691,-19.5 691,-0.5 557,-0.5"/>
<text text-anchor="middle" x="624" y="-7.5" font-family="Helvetica,sans-Serif" font-size="10.00">OMSimPMTConstruction</text>
</a>
</g>
</g>
<!-- Node4&#45;&gt;Node8 -->
<g id="edge10" class="edge">
<title>Node4&#45;&gt;Node8</title>
<path fill="none" stroke="#9a32cd" stroke-dasharray="5,2" d="M264,-22.43C293.51,-16.52 331.12,-9.96 365,-7 433.63,-1.01 451.12,-6 520,-7 531.9,-7.17 544.56,-7.46 556.79,-7.79"/>
<polygon fill="#9a32cd" stroke="#9a32cd" points="263.01,-19.06 253.92,-24.49 264.41,-25.92 263.01,-19.06"/>
<text text-anchor="middle" x="442.5" y="-10" font-family="Helvetica,sans-Serif" font-size="10.00"> mData</text>
</g>
<!-- Node5 -->
<g id="node5" class="node">
<title>Node5</title>
<g id="a_node5"><a xlink:href="class_parameter_table.html" target="_top" xlink:title="A utility class for managing JSON&#45;based data tables.">
<polygon fill="white" stroke="black" points="0,-24.5 0,-43.5 92,-43.5 92,-24.5 0,-24.5"/>
<text text-anchor="middle" x="46" y="-31.5" font-family="Helvetica,sans-Serif" font-size="10.00">ParameterTable</text>
</a>
</g>
</g>
<!-- Node5&#45;&gt;Node4 -->
<g id="edge4" class="edge">
<title>Node5&#45;&gt;Node4</title>
<path fill="none" stroke="midnightblue" d="M102.38,-34C119.95,-34 139.33,-34 156.72,-34"/>
<polygon fill="midnightblue" stroke="midnightblue" points="102.27,-30.5 92.27,-34 102.27,-37.5 102.27,-30.5"/>
</g>
<!-- Node6 -->
<g id="node6" class="node">
<title>Node6</title>
<g id="a_node6"><a xlink:href="class_o_m_sim_optical_module.html" target="_top" xlink:title="Base class for OMs works as interface.">
<polygon fill="white" stroke="black" points="804,-38.5 804,-57.5 926,-57.5 926,-38.5 804,-38.5"/>
<text text-anchor="middle" x="865" y="-45.5" font-family="Helvetica,sans-Serif" font-size="10.00">OMSimOpticalModule</text>
</a>
</g>
</g>
<!-- Node6&#45;&gt;Node1 -->
<g id="edge5" class="edge">
<title>Node6&#45;&gt;Node1</title>
<path fill="none" stroke="#9a32cd" stroke-dasharray="5,2" d="M936.41,-53.28C970.47,-55.83 1011.34,-58.89 1045.82,-61.48"/>
<polygon fill="#9a32cd" stroke="#9a32cd" points="936.31,-49.76 926.08,-52.5 935.79,-56.74 936.31,-49.76"/>
<text text-anchor="middle" x="986" y="-62" font-family="Helvetica,sans-Serif" font-size="10.00"> mOpticalModule</text>
</g>
<!-- Node7&#45;&gt;Node6 -->
<g id="edge6" class="edge">
<title>Node7&#45;&gt;Node6</title>
<path fill="none" stroke="midnightblue" d="M518.93,-38.97C600.43,-41.11 728.67,-44.46 803.72,-46.42"/>
<polygon fill="midnightblue" stroke="midnightblue" points="518.83,-35.47 508.74,-38.71 518.65,-42.47 518.83,-35.47"/>
</g>
<!-- Node7&#45;&gt;Node8 -->
<g id="edge9" class="edge">
<title>Node7&#45;&gt;Node8</title>
<path fill="none" stroke="midnightblue" d="M516.98,-25.95C531.15,-23.82 545.87,-21.6 559.68,-19.52"/>
<polygon fill="midnightblue" stroke="midnightblue" points="516.15,-22.53 506.78,-27.48 517.19,-29.45 516.15,-22.53"/>
</g>
<!-- Node8&#45;&gt;Node6 -->
<g id="edge8" class="edge">
<title>Node8&#45;&gt;Node6</title>
<path fill="none" stroke="#9a32cd" stroke-dasharray="5,2" d="M701.41,-12.57C728.33,-14.43 758.68,-17.59 786,-23 804.13,-26.59 823.97,-32.98 839.09,-38.4"/>
<polygon fill="#9a32cd" stroke="#9a32cd" points="701.47,-9.07 691.27,-11.92 701.03,-16.06 701.47,-9.07"/>
<text text-anchor="middle" x="747.5" y="-26" font-family="Helvetica,sans-Serif" font-size="10.00"> mPMTManager</text>
</g>
</g>
</svg>
