<?xml version="1.0" encoding="UTF-8" standalone="no"?>
<!DOCTYPE svg PUBLIC "-//W3C//DTD SVG 1.1//EN"
 "http://www.w3.org/Graphics/SVG/1.1/DTD/svg11.dtd">
<!-- Generated by graphviz version 2.43.0 (0)
 -->
<!-- Title: OMSimPhysicsList Pages: 1 -->
<svg width="121pt" height="82pt"
 viewBox="0.00 0.00 121.00 82.00" xmlns="http://www.w3.org/2000/svg" xmlns:xlink="http://www.w3.org/1999/xlink">
<g id="graph0" class="graph" transform="scale(1 1) rotate(0) translate(4 78)">
<title>OMSimPhysicsList</title>
<!-- Node1 -->
<g id="Node000001" class="node">
<title>Node1</title>
<g id="a_Node000001"><a xlink:title="Custom physics list for optical photon processes.">
<polygon fill="#999999" stroke="#666666" points="109.5,-19 3.5,-19 3.5,0 109.5,0 109.5,-19"/>
<text text-anchor="middle" x="56.5" y="-7" font-family="Helvetica,sans-Serif" font-size="10.00">OMSimPhysicsList</text>
</a>
</g>
</g>
<!-- Node2 -->
<g id="Node000002" class="node">
<title>Node2</title>
<g id="a_Node000002"><a xlink:title=" ">
<polygon fill="white" stroke="#bfbfbf" points="113,-74 0,-74 0,-55 113,-55 113,-74"/>
<text text-anchor="middle" x="56.5" y="-62" font-family="Helvetica,sans-Serif" font-size="10.00">G4VUserPhysicsList</text>
</a>
</g>
</g>
<!-- Node2&#45;&gt;Node1 -->
<g id="edge1_Node000001_Node000002" class="edge">
<title>Node2&#45;&gt;Node1</title>
<g id="a_edge1_Node000001_Node000002"><a xlink:title=" ">
<path fill="none" stroke="#63b8ff" d="M30.87,-45.82C27.97,-36.82 29.67,-26.29 35.98,-19.09"/>
<polygon fill="#63b8ff" stroke="#63b8ff" points="27.92,-47.71 35.83,-54.75 34.04,-44.31 27.92,-47.71"/>
</a>
</g>
</g>
<!-- Node2&#45;&gt;Node1 -->
<g id="edge2_Node000001_Node000002" class="edge">
<title>Node2&#45;&gt;Node1</title>
<g id="a_edge2_Node000001_Node000002"><a xlink:title=" ">
<path fill="none" stroke="#63b8ff" d="M43.56,-44.95C42.29,-36.15 43.19,-26.06 46.24,-19.09"/>
<polygon fill="#63b8ff" stroke="#63b8ff" points="40.21,-45.99 46.17,-54.75 46.97,-44.18 40.21,-45.99"/>
</a>
</g>
</g>
<!-- Node2&#45;&gt;Node1 -->
<g id="edge3_Node000001_Node000002" class="edge">
<title>Node2&#45;&gt;Node1</title>
<g id="a_edge3_Node000001_Node000002"><a xlink:title=" ">
<path fill="none" stroke="#63b8ff" d="M56.5,-44.66C56.5,-35.93 56.5,-25.99 56.5,-19.09"/>
<polygon fill="#63b8ff" stroke="#63b8ff" points="53,-44.75 56.5,-54.75 60,-44.75 53,-44.75"/>
</a>
</g>
</g>
<!-- Node2&#45;&gt;Node1 -->
<g id="edge4_Node000001_Node000002" class="edge">
<title>Node2&#45;&gt;Node1</title>
<g id="a_edge4_Node000001_Node000002"><a xlink:title=" ">
<path fill="none" stroke="#63b8ff" d="M69.44,-44.95C70.71,-36.15 69.81,-26.06 66.76,-19.09"/>
<polygon fill="#63b8ff" stroke="#63b8ff" points="66.03,-44.18 66.83,-54.75 72.79,-45.99 66.03,-44.18"/>
</a>
</g>
</g>
<!-- Node2&#45;&gt;Node1 -->
<g id="edge5_Node000001_Node000002" class="edge">
<title>Node2&#45;&gt;Node1</title>
<g id="a_edge5_Node000001_Node000002"><a xlink:title=" ">
<path fill="none" stroke="#63b8ff" d="M82.13,-45.82C85.03,-36.82 83.33,-26.29 77.02,-19.09"/>
<polygon fill="#63b8ff" stroke="#63b8ff" points="78.96,-44.31 77.17,-54.75 85.08,-47.71 78.96,-44.31"/>
</a>
</g>
</g>
</g>
</svg>
