<?xml version="1.0" encoding="UTF-8" standalone="no"?>
<!DOCTYPE svg PUBLIC "-//W3C//DTD SVG 1.1//EN"
 "http://www.w3.org/Graphics/SVG/1.1/DTD/svg11.dtd">
<!-- Generated by graphviz version 2.43.0 (0)
 -->
<!-- Title: mDOM Pages: 1 -->
<svg width="258pt" height="409pt"
 viewBox="0.00 0.00 258.00 409.00" xmlns="http://www.w3.org/2000/svg" xmlns:xlink="http://www.w3.org/1999/xlink">
<g id="graph0" class="graph" transform="scale(1 1) rotate(0) translate(4 405)">
<title>mDOM</title>
<!-- Node1 -->
<g id="node1" class="node">
<title>Node1</title>
<g id="a_node1"><a xlink:title=" ">
<polygon fill="#bfbfbf" stroke="black" points="82,-67.5 82,-86.5 132,-86.5 132,-67.5 82,-67.5"/>
<text text-anchor="middle" x="107" y="-74.5" font-family="Helvetica,sans-Serif" font-size="10.00">mDOM</text>
</a>
</g>
</g>
<!-- Node7 -->
<g id="node7" class="node">
<title>Node7</title>
<g id="a_node7"><a xlink:href="classm_d_o_m_harness.html" target="_top" xlink:title=" ">
<polygon fill="none" stroke="black" points="102,-0.5 102,-19.5 192,-19.5 192,-0.5 102,-0.5"/>
<text text-anchor="middle" x="147" y="-7.5" font-family="Helvetica,sans-Serif" font-size="10.00">mDOMHarness</text>
</a>
</g>
</g>
<!-- Node1&#45;&gt;Node7 -->
<g id="edge9" class="edge">
<title>Node1&#45;&gt;Node7</title>
<path fill="none" stroke="#9a32cd" stroke-dasharray="5,2" d="M118.78,-58.68C120.89,-55.48 123.04,-52.16 125,-49 131.2,-39.03 137.9,-27.3 142.26,-19.54"/>
<polygon fill="#9a32cd" stroke="#9a32cd" points="115.8,-56.84 113.14,-67.09 121.62,-60.73 115.8,-56.84"/>
<text text-anchor="middle" x="175" y="-41" font-family="Helvetica,sans-Serif" font-size="10.00"> m_opticalModule</text>
</g>
<!-- Node2 -->
<g id="node2" class="node">
<title>Node2</title>
<g id="a_node2"><a xlink:href="class_o_m_sim_optical_module.html" target="_top" xlink:title="Base class for OMs works as interface.">
<polygon fill="none" stroke="black" points="0,-124.5 0,-143.5 122,-143.5 122,-124.5 0,-124.5"/>
<text text-anchor="middle" x="61" y="-131.5" font-family="Helvetica,sans-Serif" font-size="10.00">OMSimOpticalModule</text>
</a>
</g>
</g>
<!-- Node2&#45;&gt;Node1 -->
<g id="edge1" class="edge">
<title>Node2&#45;&gt;Node1</title>
<path fill="none" stroke="midnightblue" d="M74.77,-116.53C82.97,-106.74 93.03,-94.7 99.71,-86.71"/>
<polygon fill="midnightblue" stroke="midnightblue" points="71.92,-114.49 68.19,-124.41 77.29,-118.98 71.92,-114.49"/>
</g>
<!-- Node3 -->
<g id="node3" class="node">
<title>Node3</title>
<g id="a_node3"><a xlink:href="classabc_detector_component.html" target="_top" xlink:title="Abstract base class used for constructing detector components.">
<polygon fill="none" stroke="black" points="112,-257.5 112,-276.5 244,-276.5 244,-257.5 112,-257.5"/>
<text text-anchor="middle" x="178" y="-264.5" font-family="Helvetica,sans-Serif" font-size="10.00">abcDetectorComponent</text>
</a>
</g>
</g>
<!-- Node3&#45;&gt;Node2 -->
<g id="edge2" class="edge">
<title>Node3&#45;&gt;Node2</title>
<path fill="none" stroke="midnightblue" d="M101.99,-260.42C75.16,-254.35 47.57,-242.55 31,-220 13.21,-195.79 38.98,-160.08 52.98,-143.74"/>
<polygon fill="midnightblue" stroke="midnightblue" points="101.32,-263.86 111.81,-262.41 102.71,-257 101.32,-263.86"/>
</g>
<!-- Node6 -->
<g id="node6" class="node">
<title>Node6</title>
<g id="a_node6"><a xlink:href="class_o_m_sim_p_m_t_construction.html" target="_top" xlink:title=" ">
<polygon fill="none" stroke="black" points="40,-200.5 40,-219.5 174,-219.5 174,-200.5 40,-200.5"/>
<text text-anchor="middle" x="107" y="-207.5" font-family="Helvetica,sans-Serif" font-size="10.00">OMSimPMTConstruction</text>
</a>
</g>
</g>
<!-- Node3&#45;&gt;Node6 -->
<g id="edge6" class="edge">
<title>Node3&#45;&gt;Node6</title>
<path fill="none" stroke="midnightblue" d="M158.63,-251C145.68,-240.96 129.08,-228.1 118.25,-219.71"/>
<polygon fill="midnightblue" stroke="midnightblue" points="156.86,-254.05 166.91,-257.41 161.14,-248.52 156.86,-254.05"/>
</g>
<!-- Node3&#45;&gt;Node7 -->
<g id="edge8" class="edge">
<title>Node3&#45;&gt;Node7</title>
<path fill="none" stroke="midnightblue" d="M214.47,-253.37C232.31,-244.64 250,-230.96 250,-211 250,-211 250,-211 250,-76 250,-45.02 216.27,-28.21 187.41,-19.5"/>
<polygon fill="midnightblue" stroke="midnightblue" points="212.93,-250.23 205.22,-257.49 215.78,-256.62 212.93,-250.23"/>
</g>
<!-- Node8 -->
<g id="node8" class="node">
<title>Node8</title>
<g id="a_node8"><a xlink:href="classm_d_o_m_flasher.html" target="_top" xlink:title="The mDOMFlasher class represents the 10 flashers in an mDOM optical module.">
<polygon fill="none" stroke="black" points="149,-162.5 149,-181.5 235,-181.5 235,-162.5 149,-162.5"/>
<text text-anchor="middle" x="192" y="-169.5" font-family="Helvetica,sans-Serif" font-size="10.00">mDOMFlasher</text>
</a>
</g>
</g>
<!-- Node3&#45;&gt;Node8 -->
<g id="edge11" class="edge">
<title>Node3&#45;&gt;Node8</title>
<path fill="none" stroke="midnightblue" d="M180.81,-247.34C183.82,-227.33 188.47,-196.43 190.71,-181.56"/>
<polygon fill="midnightblue" stroke="midnightblue" points="177.32,-247.01 179.29,-257.42 184.24,-248.05 177.32,-247.01"/>
</g>
<!-- Node4 -->
<g id="node4" class="node">
<title>Node4</title>
<g id="a_node4"><a xlink:href="class_o_m_sim_input_data.html" target="_top" xlink:title="Manages the input data, including parsing and storing material properties.">
<polygon fill="none" stroke="black" points="128,-324.5 128,-343.5 228,-343.5 228,-324.5 128,-324.5"/>
<text text-anchor="middle" x="178" y="-331.5" font-family="Helvetica,sans-Serif" font-size="10.00">OMSimInputData</text>
</a>
</g>
</g>
<!-- Node4&#45;&gt;Node3 -->
<g id="edge3" class="edge">
<title>Node4&#45;&gt;Node3</title>
<path fill="none" stroke="#9a32cd" stroke-dasharray="5,2" d="M178,-314.04C178,-301.67 178,-286.12 178,-276.63"/>
<polygon fill="#9a32cd" stroke="#9a32cd" points="174.5,-314.23 178,-324.23 181.5,-314.23 174.5,-314.23"/>
<text text-anchor="middle" x="198" y="-298" font-family="Helvetica,sans-Serif" font-size="10.00"> m_data</text>
</g>
<!-- Node5 -->
<g id="node5" class="node">
<title>Node5</title>
<g id="a_node5"><a xlink:href="class_parameter_table.html" target="_top" xlink:title="A utility class for managing JSON&#45;based data tables.">
<polygon fill="none" stroke="black" points="132,-381.5 132,-400.5 224,-400.5 224,-381.5 132,-381.5"/>
<text text-anchor="middle" x="178" y="-388.5" font-family="Helvetica,sans-Serif" font-size="10.00">ParameterTable</text>
</a>
</g>
</g>
<!-- Node5&#45;&gt;Node4 -->
<g id="edge4" class="edge">
<title>Node5&#45;&gt;Node4</title>
<path fill="none" stroke="midnightblue" d="M178,-371.12C178,-361.82 178,-351.06 178,-343.71"/>
<polygon fill="midnightblue" stroke="midnightblue" points="174.5,-371.41 178,-381.41 181.5,-371.41 174.5,-371.41"/>
</g>
<!-- Node6&#45;&gt;Node2 -->
<g id="edge5" class="edge">
<title>Node6&#45;&gt;Node2</title>
<path fill="none" stroke="#9a32cd" stroke-dasharray="5,2" d="M70.51,-195.53C65.12,-191.95 60.28,-187.5 57,-182 49.95,-170.18 53.88,-153.64 57.41,-143.65"/>
<polygon fill="#9a32cd" stroke="#9a32cd" points="68.86,-198.62 79.29,-200.45 72.28,-192.51 68.86,-198.62"/>
<text text-anchor="middle" x="98.5" y="-169.5" font-family="Helvetica,sans-Serif" font-size="10.00"> m_managerPMT</text>
</g>
<!-- Node7&#45;&gt;Node1 -->
<g id="edge7" class="edge">
<title>Node7&#45;&gt;Node1</title>
<path fill="none" stroke="#9a32cd" stroke-dasharray="5,2" d="M92.04,-19.89C82.6,-23.91 73.94,-29.69 68,-38 59.86,-49.38 74.17,-60.3 87.69,-67.49"/>
<polygon fill="#9a32cd" stroke="#9a32cd" points="93.42,-23.11 101.65,-16.44 91.06,-16.52 93.42,-23.11"/>
<text text-anchor="middle" x="96.5" y="-41" font-family="Helvetica,sans-Serif" font-size="10.00"> m_harness</text>
</g>
<!-- Node8&#45;&gt;Node1 -->
<g id="edge10" class="edge">
<title>Node8&#45;&gt;Node1</title>
<path fill="none" stroke="#9a32cd" stroke-dasharray="5,2" d="M177.19,-154.8C159.05,-134.95 128.98,-102.05 114.83,-86.56"/>
<polygon fill="#9a32cd" stroke="#9a32cd" points="174.83,-157.4 184.16,-162.42 179.99,-152.67 174.83,-157.4"/>
<text text-anchor="middle" x="195.5" y="-131.5" font-family="Helvetica,sans-Serif" font-size="10.00"> m_flashers</text>
</g>
</g>
</svg>
