<?xml version="1.0" encoding="UTF-8" standalone="no"?>
<!DOCTYPE svg PUBLIC "-//W3C//DTD SVG 1.1//EN"
 "http://www.w3.org/Graphics/SVG/1.1/DTD/svg11.dtd">
<!-- Generated by graphviz version 2.43.0 (0)
 -->
<!-- Title: SNBaseParticleGenerator Pages: 1 -->
<svg width="524pt" height="117pt"
 viewBox="0.00 0.00 523.50 117.00" xmlns="http://www.w3.org/2000/svg" xmlns:xlink="http://www.w3.org/1999/xlink">
<g id="graph0" class="graph" transform="scale(1 1) rotate(0) translate(4 113)">
<title>SNBaseParticleGenerator</title>
<!-- Node1 -->
<g id="node1" class="node">
<title>Node1</title>
<g id="a_node1"><a xlink:title=" ">
<polygon fill="#bfbfbf" stroke="black" points="183,-0.5 183,-19.5 322,-19.5 322,-0.5 183,-0.5"/>
<text text-anchor="middle" x="252.5" y="-7.5" font-family="Helvetica,sans-Serif" font-size="10.00">SNBaseParticleGenerator</text>
</a>
</g>
</g>
<!-- Node2 -->
<g id="node2" class="node">
<title>Node2</title>
<g id="a_node2"><a xlink:title=" ">
<polygon fill="none" stroke="#bfbfbf" points="0,-89.5 0,-108.5 177,-108.5 177,-89.5 0,-89.5"/>
<text text-anchor="middle" x="88.5" y="-96.5" font-family="Helvetica,sans-Serif" font-size="10.00">G4VUserPrimaryGeneratorAction</text>
</a>
</g>
</g>
<!-- Node2&#45;&gt;Node1 -->
<g id="edge1" class="edge">
<title>Node2&#45;&gt;Node1</title>
<path fill="none" stroke="midnightblue" d="M113.37,-84.81C147.35,-66.78 207.36,-34.95 236.17,-19.66"/>
<polygon fill="midnightblue" stroke="midnightblue" points="111.72,-81.72 104.52,-89.5 115,-87.91 111.72,-81.72"/>
</g>
<!-- Node3 -->
<g id="node3" class="node">
<title>Node3</title>
<g id="a_node3"><a xlink:href="class_distribution_sampler.html" target="_top" xlink:title="Utility class for sampling from a given distribution using the inverse cumulative function and interp...">
<polygon fill="none" stroke="black" points="195.5,-89.5 195.5,-108.5 309.5,-108.5 309.5,-89.5 195.5,-89.5"/>
<text text-anchor="middle" x="252.5" y="-96.5" font-family="Helvetica,sans-Serif" font-size="10.00">DistributionSampler</text>
</a>
</g>
</g>
<!-- Node3&#45;&gt;Node1 -->
<g id="edge2" class="edge">
<title>Node3&#45;&gt;Node1</title>
<path fill="none" stroke="#9a32cd" stroke-dasharray="5,2" d="M252.5,-79.19C252.5,-60.74 252.5,-33.41 252.5,-19.62"/>
<polygon fill="#9a32cd" stroke="#9a32cd" points="249,-79.34 252.5,-89.34 256,-79.34 249,-79.34"/>
<text text-anchor="middle" x="339.5" y="-63" font-family="Helvetica,sans-Serif" font-size="10.00"> m_meanEnergyDistribution</text>
<text text-anchor="middle" x="339.5" y="-52" font-family="Helvetica,sans-Serif" font-size="10.00">m_meanEnergySquaredDistribution</text>
<text text-anchor="middle" x="339.5" y="-41" font-family="Helvetica,sans-Serif" font-size="10.00">m_timeDistribution</text>
</g>
<!-- Node4 -->
<g id="node4" class="node">
<title>Node4</title>
<g id="a_node4"><a xlink:href="class_o_m_sim_s_n_tools.html" target="_top" xlink:title="Provides utility methods for generating ENES and IBD interactions.">
<polygon fill="none" stroke="black" points="404.5,-89.5 404.5,-108.5 494.5,-108.5 494.5,-89.5 404.5,-89.5"/>
<text text-anchor="middle" x="449.5" y="-96.5" font-family="Helvetica,sans-Serif" font-size="10.00">OMSimSNTools</text>
</a>
</g>
</g>
<!-- Node4&#45;&gt;Node1 -->
<g id="edge3" class="edge">
<title>Node4&#45;&gt;Node1</title>
<path fill="none" stroke="#9a32cd" stroke-dasharray="5,2" d="M447.56,-78.89C445.14,-65.4 439.7,-48 427.5,-38 411.45,-24.85 363.66,-18.06 322.07,-14.58"/>
<polygon fill="#9a32cd" stroke="#9a32cd" points="444.13,-79.64 448.96,-89.07 451.06,-78.68 444.13,-79.64"/>
<text text-anchor="middle" x="480.5" y="-52" font-family="Helvetica,sans-Serif" font-size="10.00"> m_SNToolBox</text>
</g>
</g>
</svg>
