<?xml version="1.0" encoding="UTF-8" standalone="no"?>
<!DOCTYPE svg PUBLIC "-//W3C//DTD SVG 1.1//EN"
 "http://www.w3.org/Graphics/SVG/1.1/DTD/svg11.dtd">
<!-- Generated by graphviz version 2.43.0 (0)
 -->
<!-- Title: OMSimOpticalModule Pages: 1 -->
<svg width="233pt" height="276pt"
 viewBox="0.00 0.00 233.00 276.00" xmlns="http://www.w3.org/2000/svg" xmlns:xlink="http://www.w3.org/1999/xlink">
<g id="graph0" class="graph" transform="scale(1 1) rotate(0) translate(4 272)">
<title>OMSimOpticalModule</title>
<!-- Node1 -->
<g id="node1" class="node">
<title>Node1</title>
<g id="a_node1"><a xlink:title="Base class for OMs works as interface.">
<polygon fill="#bfbfbf" stroke="black" points="18,-0.5 18,-19.5 140,-19.5 140,-0.5 18,-0.5"/>
<text text-anchor="middle" x="79" y="-7.5" font-family="Helvetica,sans-Serif" font-size="10.00">OMSimOpticalModule</text>
</a>
</g>
</g>
<!-- Node2 -->
<g id="node2" class="node">
<title>Node2</title>
<g id="a_node2"><a xlink:href="class_o_m_sim_detector_component.html" target="_top" xlink:title="Abstract base class used for constructing detector components.">
<polygon fill="none" stroke="black" points="0,-124.5 0,-143.5 150,-143.5 150,-124.5 0,-124.5"/>
<text text-anchor="middle" x="75" y="-131.5" font-family="Helvetica,sans-Serif" font-size="10.00">OMSimDetectorComponent</text>
</a>
</g>
</g>
<!-- Node2&#45;&gt;Node1 -->
<g id="edge1" class="edge">
<title>Node2&#45;&gt;Node1</title>
<path fill="none" stroke="midnightblue" d="M75.62,-114.19C76.5,-87.4 78.07,-39.31 78.71,-19.69"/>
<polygon fill="midnightblue" stroke="midnightblue" points="72.12,-114.12 75.29,-124.23 79.11,-114.35 72.12,-114.12"/>
</g>
<!-- Node5 -->
<g id="node5" class="node">
<title>Node5</title>
<g id="a_node5"><a xlink:href="class_o_m_sim_p_m_t_construction.html" target="_top" xlink:title=" ">
<polygon fill="none" stroke="black" points="91,-67.5 91,-86.5 225,-86.5 225,-67.5 91,-67.5"/>
<text text-anchor="middle" x="158" y="-74.5" font-family="Helvetica,sans-Serif" font-size="10.00">OMSimPMTConstruction</text>
</a>
</g>
</g>
<!-- Node2&#45;&gt;Node5 -->
<g id="edge5" class="edge">
<title>Node2&#45;&gt;Node5</title>
<path fill="none" stroke="midnightblue" d="M96.39,-118.82C111.81,-108.61 132.12,-95.15 145.12,-86.53"/>
<polygon fill="midnightblue" stroke="midnightblue" points="94.37,-115.96 87.97,-124.41 98.24,-121.8 94.37,-115.96"/>
</g>
<!-- Node3 -->
<g id="node3" class="node">
<title>Node3</title>
<g id="a_node3"><a xlink:href="class_o_m_sim_input_data.html" target="_top" xlink:title="Manages the input data, including parsing and storing material properties.">
<polygon fill="none" stroke="black" points="25,-191.5 25,-210.5 125,-210.5 125,-191.5 25,-191.5"/>
<text text-anchor="middle" x="75" y="-198.5" font-family="Helvetica,sans-Serif" font-size="10.00">OMSimInputData</text>
</a>
</g>
</g>
<!-- Node3&#45;&gt;Node2 -->
<g id="edge2" class="edge">
<title>Node3&#45;&gt;Node2</title>
<path fill="none" stroke="#9a32cd" stroke-dasharray="5,2" d="M75,-181.04C75,-168.67 75,-153.12 75,-143.63"/>
<polygon fill="#9a32cd" stroke="#9a32cd" points="71.5,-181.23 75,-191.23 78.5,-181.23 71.5,-181.23"/>
<text text-anchor="middle" x="95" y="-165" font-family="Helvetica,sans-Serif" font-size="10.00"> m_data</text>
</g>
<!-- Node4 -->
<g id="node4" class="node">
<title>Node4</title>
<g id="a_node4"><a xlink:href="class_parameter_table.html" target="_top" xlink:title="A utility class for managing JSON&#45;based data tables.">
<polygon fill="none" stroke="black" points="29,-248.5 29,-267.5 121,-267.5 121,-248.5 29,-248.5"/>
<text text-anchor="middle" x="75" y="-255.5" font-family="Helvetica,sans-Serif" font-size="10.00">ParameterTable</text>
</a>
</g>
</g>
<!-- Node4&#45;&gt;Node3 -->
<g id="edge3" class="edge">
<title>Node4&#45;&gt;Node3</title>
<path fill="none" stroke="midnightblue" d="M75,-238.12C75,-228.82 75,-218.06 75,-210.71"/>
<polygon fill="midnightblue" stroke="midnightblue" points="71.5,-238.41 75,-248.41 78.5,-238.41 71.5,-238.41"/>
</g>
<!-- Node5&#45;&gt;Node1 -->
<g id="edge4" class="edge">
<title>Node5&#45;&gt;Node1</title>
<path fill="none" stroke="#9a32cd" stroke-dasharray="5,2" d="M139.42,-60.71C123.86,-47.91 102.2,-30.09 89.49,-19.63"/>
<polygon fill="#9a32cd" stroke="#9a32cd" points="137.4,-63.58 147.35,-67.23 141.85,-58.18 137.4,-63.58"/>
<text text-anchor="middle" x="164.5" y="-41" font-family="Helvetica,sans-Serif" font-size="10.00"> m_managerPMT</text>
</g>
</g>
</svg>
