<?xml version="1.0" encoding="UTF-8" standalone="no"?>
<!DOCTYPE svg PUBLIC "-//W3C//DTD SVG 1.1//EN"
 "http://www.w3.org/Graphics/SVG/1.1/DTD/svg11.dtd">
<!-- Generated by graphviz version 2.43.0 (0)
 -->
<!-- Title: OMSimEffectiveAreaDetector Pages: 1 -->
<svg width="290pt" height="209pt"
 viewBox="0.00 0.00 289.50 209.00" xmlns="http://www.w3.org/2000/svg" xmlns:xlink="http://www.w3.org/1999/xlink">
<g id="graph0" class="graph" transform="scale(1 1) rotate(0) translate(4 205)">
<title>OMSimEffectiveAreaDetector</title>
<!-- Node1 -->
<g id="node1" class="node">
<title>Node1</title>
<g id="a_node1"><a xlink:title="Class for detector construction in the effective area simulation.">
<polygon fill="#bfbfbf" stroke="black" points="18,-0.5 18,-19.5 177,-19.5 177,-0.5 18,-0.5"/>
<text text-anchor="middle" x="97.5" y="-7.5" font-family="Helvetica,sans-Serif" font-size="10.00">OMSimEffectiveAreaDetector</text>
</a>
</g>
</g>
<!-- Node2 -->
<g id="node2" class="node">
<title>Node2</title>
<g id="a_node2"><a xlink:href="class_o_m_sim_detector_construction.html" target="_top" xlink:title="Class for detector construction in the effective area simulation.">
<polygon fill="none" stroke="black" points="20,-57.5 20,-76.5 175,-76.5 175,-57.5 20,-57.5"/>
<text text-anchor="middle" x="97.5" y="-64.5" font-family="Helvetica,sans-Serif" font-size="10.00">OMSimDetectorConstruction</text>
</a>
</g>
</g>
<!-- Node2&#45;&gt;Node1 -->
<g id="edge1" class="edge">
<title>Node2&#45;&gt;Node1</title>
<path fill="none" stroke="midnightblue" d="M91.08,-47.42C90.37,-38.05 90.81,-27.14 92.41,-19.71"/>
<polygon fill="midnightblue" stroke="midnightblue" points="87.62,-47.97 92.44,-57.41 94.55,-47.03 87.62,-47.97"/>
</g>
<!-- Node2&#45;&gt;Node1 -->
<g id="edge5" class="edge">
<title>Node2&#45;&gt;Node1</title>
<path fill="none" stroke="midnightblue" d="M103.92,-47.42C104.63,-38.05 104.19,-27.14 102.59,-19.71"/>
<polygon fill="midnightblue" stroke="midnightblue" points="100.45,-47.03 102.56,-57.41 107.38,-47.97 100.45,-47.03"/>
</g>
<!-- Node3 -->
<g id="node3" class="node">
<title>Node3</title>
<g id="a_node3"><a xlink:title=" ">
<polygon fill="none" stroke="#bfbfbf" points="0,-124.5 0,-143.5 163,-143.5 163,-124.5 0,-124.5"/>
<text text-anchor="middle" x="81.5" y="-131.5" font-family="Helvetica,sans-Serif" font-size="10.00">G4VUserDetectorConstruction</text>
</a>
</g>
</g>
<!-- Node3&#45;&gt;Node2 -->
<g id="edge2" class="edge">
<title>Node3&#45;&gt;Node2</title>
<path fill="none" stroke="midnightblue" d="M86.07,-114.41C89.13,-101.99 93.02,-86.22 95.38,-76.63"/>
<polygon fill="midnightblue" stroke="midnightblue" points="82.65,-113.69 83.66,-124.23 89.45,-115.36 82.65,-113.69"/>
</g>
<!-- Node4 -->
<g id="node4" class="node">
<title>Node4</title>
<g id="a_node4"><a xlink:href="class_o_m_sim_input_data.html" target="_top" xlink:title="Manages the input data, including parsing and storing material properties.">
<polygon fill="none" stroke="black" points="181.5,-124.5 181.5,-143.5 281.5,-143.5 281.5,-124.5 181.5,-124.5"/>
<text text-anchor="middle" x="231.5" y="-131.5" font-family="Helvetica,sans-Serif" font-size="10.00">OMSimInputData</text>
</a>
</g>
</g>
<!-- Node4&#45;&gt;Node2 -->
<g id="edge3" class="edge">
<title>Node4&#45;&gt;Node2</title>
<path fill="none" stroke="#9a32cd" stroke-dasharray="5,2" d="M204.58,-119.94C178.04,-107.07 138.23,-87.76 115.37,-76.67"/>
<polygon fill="#9a32cd" stroke="#9a32cd" points="203.18,-123.15 213.71,-124.37 206.24,-116.85 203.18,-123.15"/>
<text text-anchor="middle" x="191" y="-98" font-family="Helvetica,sans-Serif" font-size="10.00"> mData</text>
</g>
<!-- Node5 -->
<g id="node5" class="node">
<title>Node5</title>
<g id="a_node5"><a xlink:href="class_parameter_table.html" target="_top" xlink:title="A utility class for managing JSON&#45;based data tables.">
<polygon fill="none" stroke="black" points="185.5,-181.5 185.5,-200.5 277.5,-200.5 277.5,-181.5 185.5,-181.5"/>
<text text-anchor="middle" x="231.5" y="-188.5" font-family="Helvetica,sans-Serif" font-size="10.00">ParameterTable</text>
</a>
</g>
</g>
<!-- Node5&#45;&gt;Node4 -->
<g id="edge4" class="edge">
<title>Node5&#45;&gt;Node4</title>
<path fill="none" stroke="midnightblue" d="M231.5,-171.12C231.5,-161.82 231.5,-151.06 231.5,-143.71"/>
<polygon fill="midnightblue" stroke="midnightblue" points="228,-171.41 231.5,-181.41 235,-171.41 228,-171.41"/>
</g>
</g>
</svg>
