<?xml version="1.0" encoding="UTF-8" standalone="no"?>
<!DOCTYPE svg PUBLIC "-//W3C//DTD SVG 1.1//EN"
 "http://www.w3.org/Graphics/SVG/1.1/DTD/svg11.dtd">
<!-- Generated by graphviz version 2.43.0 (0)
 -->
<!-- Title: OMSimSensitiveDetector Pages: 1 -->
<svg width="421pt" height="152pt"
 viewBox="0.00 0.00 421.00 152.00" xmlns="http://www.w3.org/2000/svg" xmlns:xlink="http://www.w3.org/1999/xlink">
<g id="graph0" class="graph" transform="scale(1 1) rotate(0) translate(4 148)">
<title>OMSimSensitiveDetector</title>
<!-- Node1 -->
<g id="node1" class="node">
<title>Node1</title>
<g id="a_node1"><a xlink:title="Represents a sensitive detector.">
<polygon fill="#bfbfbf" stroke="black" points="136.5,-0.5 136.5,-19.5 275.5,-19.5 275.5,-0.5 136.5,-0.5"/>
<text text-anchor="middle" x="206" y="-7.5" font-family="Helvetica,sans-Serif" font-size="10.00">OMSimSensitiveDetector</text>
</a>
</g>
</g>
<!-- Node2 -->
<g id="node2" class="node">
<title>Node2</title>
<g id="a_node2"><a xlink:title=" ">
<polygon fill="none" stroke="#bfbfbf" points="0,-67.5 0,-86.5 124,-86.5 124,-67.5 0,-67.5"/>
<text text-anchor="middle" x="62" y="-74.5" font-family="Helvetica,sans-Serif" font-size="10.00">G4VSensitiveDetector</text>
</a>
</g>
</g>
<!-- Node2&#45;&gt;Node1 -->
<g id="edge1" class="edge">
<title>Node2&#45;&gt;Node1</title>
<path fill="none" stroke="midnightblue" d="M90.55,-63.11C119.07,-50.24 162.12,-30.81 186.8,-19.67"/>
<polygon fill="midnightblue" stroke="midnightblue" points="88.8,-60.06 81.12,-67.37 91.68,-66.44 88.8,-60.06"/>
</g>
<!-- Node3 -->
<g id="node3" class="node">
<title>Node3</title>
<g id="a_node3"><a xlink:href="class_g4_op_boundary_process.html" target="_top" xlink:title=" ">
<polygon fill="none" stroke="black" points="142,-67.5 142,-86.5 270,-86.5 270,-67.5 142,-67.5"/>
<text text-anchor="middle" x="206" y="-74.5" font-family="Helvetica,sans-Serif" font-size="10.00">G4OpBoundaryProcess</text>
</a>
</g>
</g>
<!-- Node3&#45;&gt;Node1 -->
<g id="edge2" class="edge">
<title>Node3&#45;&gt;Node1</title>
<path fill="none" stroke="#9a32cd" stroke-dasharray="5,2" d="M206,-57.04C206,-44.67 206,-29.12 206,-19.63"/>
<polygon fill="#9a32cd" stroke="#9a32cd" points="202.5,-57.23 206,-67.23 209.5,-57.23 202.5,-57.23"/>
<text text-anchor="middle" x="257" y="-41" font-family="Helvetica,sans-Serif" font-size="10.00"> m_boundaryProcess</text>
</g>
<!-- Node4 -->
<g id="node4" class="node">
<title>Node4</title>
<g id="a_node4"><a xlink:title=" ">
<polygon fill="none" stroke="#bfbfbf" points="148.5,-124.5 148.5,-143.5 263.5,-143.5 263.5,-124.5 148.5,-124.5"/>
<text text-anchor="middle" x="206" y="-131.5" font-family="Helvetica,sans-Serif" font-size="10.00">G4VDiscreteProcess</text>
</a>
</g>
</g>
<!-- Node4&#45;&gt;Node3 -->
<g id="edge3" class="edge">
<title>Node4&#45;&gt;Node3</title>
<path fill="none" stroke="midnightblue" d="M206,-114.12C206,-104.82 206,-94.06 206,-86.71"/>
<polygon fill="midnightblue" stroke="midnightblue" points="202.5,-114.41 206,-124.41 209.5,-114.41 202.5,-114.41"/>
</g>
<!-- Node5 -->
<g id="node5" class="node">
<title>Node5</title>
<g id="a_node5"><a xlink:href="class_o_m_sim_p_m_t_response.html" target="_top" xlink:title="Singleton class to simulate PMT response.">
<polygon fill="none" stroke="black" points="288,-67.5 288,-86.5 408,-86.5 408,-67.5 288,-67.5"/>
<text text-anchor="middle" x="348" y="-74.5" font-family="Helvetica,sans-Serif" font-size="10.00">OMSimPMTResponse</text>
</a>
</g>
</g>
<!-- Node5&#45;&gt;Node1 -->
<g id="edge4" class="edge">
<title>Node5&#45;&gt;Node1</title>
<path fill="none" stroke="#9a32cd" stroke-dasharray="5,2" d="M335.7,-59.21C329.4,-51.7 321.12,-43.36 312,-38 297.43,-29.44 280.17,-23.57 263.87,-19.55"/>
<polygon fill="#9a32cd" stroke="#9a32cd" points="333.21,-61.7 342.14,-67.41 338.72,-57.38 333.21,-61.7"/>
<text text-anchor="middle" x="369.5" y="-41" font-family="Helvetica,sans-Serif" font-size="10.00"> m_PMTResponse</text>
</g>
</g>
</svg>
