<?xml version="1.0" encoding="UTF-8" standalone="no"?>
<!DOCTYPE svg PUBLIC "-//W3C//DTD SVG 1.1//EN"
 "http://www.w3.org/Graphics/SVG/1.1/DTD/svg11.dtd">
<!-- Generated by graphviz version 2.43.0 (0)
 -->
<!-- Title: G4RadioactiveDecay Pages: 1 -->
<svg width="339pt" height="205pt"
 viewBox="0.00 0.00 338.50 205.00" xmlns="http://www.w3.org/2000/svg" xmlns:xlink="http://www.w3.org/1999/xlink">
<g id="graph0" class="graph" transform="scale(1 1) rotate(0) translate(4 201)">
<title>G4RadioactiveDecay</title>
<!-- Node1 -->
<g id="Node000001" class="node">
<title>Node1</title>
<g id="a_Node000001"><a xlink:title=" ">
<polygon fill="#999999" stroke="#666666" points="178,-19 59,-19 59,0 178,0 178,-19"/>
<text text-anchor="middle" x="118.5" y="-7" font-family="Helvetica,sans-Serif" font-size="10.00">G4RadioactiveDecay</text>
</a>
</g>
</g>
<!-- Node2 -->
<g id="Node000002" class="node">
<title>Node2</title>
<g id="a_Node000002"><a xlink:href="class_g4_v_radioactive_decay.html" target="_top" xlink:title=" ">
<polygon fill="white" stroke="#bfbfbf" points="181,-75 56,-75 56,-56 181,-56 181,-75"/>
<text text-anchor="middle" x="118.5" y="-63" font-family="Helvetica,sans-Serif" font-size="10.00">G4VRadioactiveDecay</text>
</a>
</g>
</g>
<!-- Node2&#45;&gt;Node1 -->
<g id="edge1_Node000001_Node000002" class="edge">
<title>Node2&#45;&gt;Node1</title>
<g id="a_edge1_Node000001_Node000002"><a xlink:title=" ">
<path fill="none" stroke="#63b8ff" d="M118.5,-45.3C118.5,-36.41 118.5,-26.28 118.5,-19.25"/>
<polygon fill="#63b8ff" stroke="#63b8ff" points="115,-45.58 118.5,-55.58 122,-45.58 115,-45.58"/>
</a>
</g>
</g>
<!-- Node3 -->
<g id="Node000003" class="node">
<title>Node3</title>
<g id="a_Node000003"><a xlink:title=" ">
<polygon fill="white" stroke="#bfbfbf" points="137,-141 0,-141 0,-122 137,-122 137,-141"/>
<text text-anchor="middle" x="68.5" y="-129" font-family="Helvetica,sans-Serif" font-size="10.00">G4VRestDiscreteProcess</text>
</a>
</g>
</g>
<!-- Node3&#45;&gt;Node2 -->
<g id="edge2_Node000002_Node000003" class="edge">
<title>Node3&#45;&gt;Node2</title>
<g id="a_edge2_Node000002_Node000003"><a xlink:title=" ">
<path fill="none" stroke="#63b8ff" d="M81.57,-113.77C91.16,-101.49 103.81,-85.3 111.54,-75.41"/>
<polygon fill="#63b8ff" stroke="#63b8ff" points="78.64,-111.83 75.24,-121.87 84.16,-116.14 78.64,-111.83"/>
</a>
</g>
</g>
<!-- Node4 -->
<g id="Node000004" class="node">
<title>Node4</title>
<g id="a_Node000004"><a xlink:href="class_g4_particle_change_for_rad_decay.html" target="_top" xlink:title=" ">
<polygon fill="white" stroke="#bfbfbf" points="322,-141 155,-141 155,-122 322,-122 322,-141"/>
<text text-anchor="middle" x="238.5" y="-129" font-family="Helvetica,sans-Serif" font-size="10.00">G4ParticleChangeForRadDecay</text>
</a>
</g>
</g>
<!-- Node4&#45;&gt;Node2 -->
<g id="edge3_Node000002_Node000004" class="edge">
<title>Node4&#45;&gt;Node2</title>
<g id="a_edge3_Node000002_Node000004"><a xlink:title=" ">
<path fill="none" stroke="#9a32cd" stroke-dasharray="5,2" d="M213.24,-117.03C189.6,-104.42 155,-85.97 134.81,-75.2"/>
<polygon fill="#9a32cd" stroke="#9a32cd" points="211.85,-120.25 222.32,-121.87 215.14,-114.07 211.85,-120.25"/>
</a>
</g>
<text text-anchor="middle" x="258" y="-96" font-family="Helvetica,sans-Serif" font-size="10.00" fill="grey"> fParticleChangeForRadDecay</text>
</g>
<!-- Node5 -->
<g id="Node000005" class="node">
<title>Node5</title>
<g id="a_Node000005"><a xlink:title=" ">
<polygon fill="white" stroke="#bfbfbf" points="293.5,-197 183.5,-197 183.5,-178 293.5,-178 293.5,-197"/>
<text text-anchor="middle" x="238.5" y="-185" font-family="Helvetica,sans-Serif" font-size="10.00">G4VParticleChange</text>
</a>
</g>
</g>
<!-- Node5&#45;&gt;Node4 -->
<g id="edge4_Node000004_Node000005" class="edge">
<title>Node5&#45;&gt;Node4</title>
<g id="a_edge4_Node000004_Node000005"><a xlink:title=" ">
<path fill="none" stroke="#63b8ff" d="M238.5,-167.3C238.5,-158.41 238.5,-148.28 238.5,-141.25"/>
<polygon fill="#63b8ff" stroke="#63b8ff" points="235,-167.58 238.5,-177.58 242,-167.58 235,-167.58"/>
</a>
</g>
</g>
</g>
</svg>
