<?xml version="1.0" encoding="UTF-8" standalone="no"?>
<!DOCTYPE svg PUBLIC "-//W3C//DTD SVG 1.1//EN"
 "http://www.w3.org/Graphics/SVG/1.1/DTD/svg11.dtd">
<!-- Generated by graphviz version 2.43.0 (0)
 -->
<!-- Title: OMSimEventAction Pages: 1 -->
<svg width="119pt" height="84pt"
 viewBox="0.00 0.00 119.00 84.00" xmlns="http://www.w3.org/2000/svg" xmlns:xlink="http://www.w3.org/1999/xlink">
<g id="graph0" class="graph" transform="scale(1 1) rotate(0) translate(4 80)">
<title>OMSimEventAction</title>
<!-- Node1 -->
<g id="node1" class="node">
<title>Node1</title>
<g id="a_node1"><a xlink:title="Handles custom actions at the beginning and end of each event.">
<polygon fill="#bfbfbf" stroke="black" points="0.5,-0.5 0.5,-19.5 110.5,-19.5 110.5,-0.5 0.5,-0.5"/>
<text text-anchor="middle" x="55.5" y="-7.5" font-family="Helvetica,sans-Serif" font-size="10.00">OMSimEventAction</text>
</a>
</g>
</g>
<!-- Node2 -->
<g id="node2" class="node">
<title>Node2</title>
<g id="a_node2"><a xlink:title=" ">
<polygon fill="none" stroke="#bfbfbf" points="0,-56.5 0,-75.5 111,-75.5 111,-56.5 0,-56.5"/>
<text text-anchor="middle" x="55.5" y="-63.5" font-family="Helvetica,sans-Serif" font-size="10.00">G4UserEventAction</text>
</a>
</g>
</g>
<!-- Node2&#45;&gt;Node1 -->
<g id="edge1" class="edge">
<title>Node2&#45;&gt;Node1</title>
<path fill="none" stroke="midnightblue" d="M36.21,-46.69C34.13,-37.59 35.43,-27.01 40.11,-19.75"/>
<polygon fill="midnightblue" stroke="midnightblue" points="33.01,-48.12 40,-56.08 39.51,-45.5 33.01,-48.12"/>
</g>
<!-- Node2&#45;&gt;Node1 -->
<g id="edge2" class="edge">
<title>Node2&#45;&gt;Node1</title>
<path fill="none" stroke="midnightblue" d="M49.03,-46.1C48.4,-37.14 48.84,-26.86 50.37,-19.75"/>
<polygon fill="midnightblue" stroke="midnightblue" points="45.57,-46.62 50.33,-56.08 52.51,-45.71 45.57,-46.62"/>
</g>
<!-- Node2&#45;&gt;Node1 -->
<g id="edge3" class="edge">
<title>Node2&#45;&gt;Node1</title>
<path fill="none" stroke="midnightblue" d="M61.97,-46.1C62.6,-37.14 62.16,-26.86 60.63,-19.75"/>
<polygon fill="midnightblue" stroke="midnightblue" points="58.49,-45.71 60.67,-56.08 65.43,-46.62 58.49,-45.71"/>
</g>
<!-- Node2&#45;&gt;Node1 -->
<g id="edge4" class="edge">
<title>Node2&#45;&gt;Node1</title>
<path fill="none" stroke="midnightblue" d="M74.79,-46.69C76.87,-37.59 75.57,-27.01 70.89,-19.75"/>
<polygon fill="midnightblue" stroke="midnightblue" points="71.49,-45.5 71,-56.08 77.99,-48.12 71.49,-45.5"/>
</g>
</g>
</svg>
