<?xml version="1.0" encoding="UTF-8" standalone="no"?>
<!DOCTYPE svg PUBLIC "-//W3C//DTD SVG 1.1//EN"
 "http://www.w3.org/Graphics/SVG/1.1/DTD/svg11.dtd">
<!-- Generated by graphviz version 2.43.0 (0)
 -->
<!-- Title: OMSimDecaysGPS Pages: 1 -->
<svg width="233pt" height="337pt"
 viewBox="0.00 0.00 233.00 337.00" xmlns="http://www.w3.org/2000/svg" xmlns:xlink="http://www.w3.org/1999/xlink">
<g id="graph0" class="graph" transform="scale(1 1) rotate(0) translate(4 333)">
<title>OMSimDecaysGPS</title>
<!-- Node1 -->
<g id="Node000001" class="node">
<title>Node1</title>
<g id="a_Node000001"><a xlink:title="A class for simulating isotope decays inside the pressure vessel and PMT glass.">
<polygon fill="#999999" stroke="#666666" points="132.5,-19 25.5,-19 25.5,0 132.5,0 132.5,-19"/>
<text text-anchor="middle" x="79" y="-7" font-family="Helvetica,sans-Serif" font-size="10.00">OMSimDecaysGPS</text>
</a>
</g>
</g>
<!-- Node2 -->
<g id="Node000002" class="node">
<title>Node2</title>
<g id="a_Node000002"><a xlink:href="class_o_m_sim_optical_module.html" target="_top" xlink:title="Base class for OMs works as interface.">
<polygon fill="white" stroke="#666666" points="140,-85 18,-85 18,-66 140,-66 140,-85"/>
<text text-anchor="middle" x="79" y="-73" font-family="Helvetica,sans-Serif" font-size="10.00">OMSimOpticalModule</text>
</a>
</g>
</g>
<!-- Node2&#45;&gt;Node1 -->
<g id="edge1_Node000001_Node000002" class="edge">
<title>Node2&#45;&gt;Node1</title>
<g id="a_edge1_Node000001_Node000002"><a xlink:title=" ">
<path fill="none" stroke="#9a32cd" stroke-dasharray="5,2" d="M79,-55.58C79,-43.63 79,-28.72 79,-19.41"/>
<polygon fill="#9a32cd" stroke="#9a32cd" points="75.5,-55.87 79,-65.87 82.5,-55.87 75.5,-55.87"/>
</a>
</g>
<text text-anchor="middle" x="123" y="-40" font-family="Helvetica,sans-Serif" font-size="10.00" fill="grey"> m_opticalModule</text>
</g>
<!-- Node3 -->
<g id="Node000003" class="node">
<title>Node3</title>
<g id="a_Node000003"><a xlink:href="class_o_m_sim_detector_component.html" target="_top" xlink:title="Abstract base class used for constructing detector components.">
<polygon fill="white" stroke="#666666" points="150,-207 0,-207 0,-188 150,-188 150,-207"/>
<text text-anchor="middle" x="75" y="-195" font-family="Helvetica,sans-Serif" font-size="10.00">OMSimDetectorComponent</text>
</a>
</g>
</g>
<!-- Node3&#45;&gt;Node2 -->
<g id="edge2_Node000002_Node000003" class="edge">
<title>Node3&#45;&gt;Node2</title>
<g id="a_edge2_Node000002_Node000003"><a xlink:title=" ">
<path fill="none" stroke="#63b8ff" d="M75.63,-177.65C76.51,-151.22 78.07,-104.26 78.71,-85.05"/>
<polygon fill="#63b8ff" stroke="#63b8ff" points="72.12,-177.76 75.29,-187.87 79.12,-177.99 72.12,-177.76"/>
</a>
</g>
</g>
<!-- Node6 -->
<g id="Node000006" class="node">
<title>Node6</title>
<g id="a_Node000006"><a xlink:href="class_o_m_sim_p_m_t_construction.html" target="_top" xlink:title=" ">
<polygon fill="white" stroke="#bfbfbf" points="225,-151 91,-151 91,-132 225,-132 225,-151"/>
<text text-anchor="middle" x="158" y="-139" font-family="Helvetica,sans-Serif" font-size="10.00">OMSimPMTConstruction</text>
</a>
</g>
</g>
<!-- Node3&#45;&gt;Node6 -->
<g id="edge6_Node000006_Node000003" class="edge">
<title>Node3&#45;&gt;Node6</title>
<g id="a_edge6_Node000006_Node000003"><a xlink:title=" ">
<path fill="none" stroke="#63b8ff" d="M97.1,-182.12C112.26,-172.26 131.88,-159.49 144.7,-151.15"/>
<polygon fill="#63b8ff" stroke="#63b8ff" points="94.81,-179.44 88.34,-187.82 98.63,-185.3 94.81,-179.44"/>
</a>
</g>
</g>
<!-- Node4 -->
<g id="Node000004" class="node">
<title>Node4</title>
<g id="a_Node000004"><a xlink:href="class_o_m_sim_input_data.html" target="_top" xlink:title="Manages the input data, including parsing and storing material properties.">
<polygon fill="white" stroke="#666666" points="125,-273 25,-273 25,-254 125,-254 125,-273"/>
<text text-anchor="middle" x="75" y="-261" font-family="Helvetica,sans-Serif" font-size="10.00">OMSimInputData</text>
</a>
</g>
</g>
<!-- Node4&#45;&gt;Node3 -->
<g id="edge3_Node000003_Node000004" class="edge">
<title>Node4&#45;&gt;Node3</title>
<g id="a_edge3_Node000003_Node000004"><a xlink:title=" ">
<path fill="none" stroke="#9a32cd" stroke-dasharray="5,2" d="M75,-243.58C75,-231.63 75,-216.72 75,-207.41"/>
<polygon fill="#9a32cd" stroke="#9a32cd" points="71.5,-243.87 75,-253.87 78.5,-243.87 71.5,-243.87"/>
</a>
</g>
<text text-anchor="middle" x="95" y="-228" font-family="Helvetica,sans-Serif" font-size="10.00" fill="grey"> m_data</text>
</g>
<!-- Node5 -->
<g id="Node000005" class="node">
<title>Node5</title>
<g id="a_Node000005"><a xlink:href="class_parameter_table.html" target="_top" xlink:title="A utility class for managing JSON&#45;based data tables.">
<polygon fill="white" stroke="#666666" points="121,-329 29,-329 29,-310 121,-310 121,-329"/>
<text text-anchor="middle" x="75" y="-317" font-family="Helvetica,sans-Serif" font-size="10.00">ParameterTable</text>
</a>
</g>
</g>
<!-- Node5&#45;&gt;Node4 -->
<g id="edge4_Node000004_Node000005" class="edge">
<title>Node5&#45;&gt;Node4</title>
<g id="a_edge4_Node000004_Node000005"><a xlink:title=" ">
<path fill="none" stroke="#63b8ff" d="M75,-299.3C75,-290.41 75,-280.28 75,-273.25"/>
<polygon fill="#63b8ff" stroke="#63b8ff" points="71.5,-299.58 75,-309.58 78.5,-299.58 71.5,-299.58"/>
</a>
</g>
</g>
<!-- Node6&#45;&gt;Node2 -->
<g id="edge5_Node000002_Node000006" class="edge">
<title>Node6&#45;&gt;Node2</title>
<g id="a_edge5_Node000002_Node000006"><a xlink:title=" ">
<path fill="none" stroke="#9a32cd" stroke-dasharray="5,2" d="M139.47,-125.49C124,-112.96 102.5,-95.54 89.74,-85.2"/>
<polygon fill="#9a32cd" stroke="#9a32cd" points="137.37,-128.29 147.35,-131.87 141.78,-122.85 137.37,-128.29"/>
</a>
</g>
<text text-anchor="middle" x="164.5" y="-106" font-family="Helvetica,sans-Serif" font-size="10.00" fill="grey"> m_managerPMT</text>
</g>
</g>
</svg>
