<?xml version="1.0" encoding="UTF-8" standalone="no"?>
<!DOCTYPE svg PUBLIC "-//W3C//DTD SVG 1.1//EN"
 "http://www.w3.org/Graphics/SVG/1.1/DTD/svg11.dtd">
<!-- Generated by graphviz version 2.43.0 (0)
 -->
<!-- Title: OMSimOpticalModule Pages: 1 -->
<svg width="224pt" height="276pt"
 viewBox="0.00 0.00 224.00 276.00" xmlns="http://www.w3.org/2000/svg" xmlns:xlink="http://www.w3.org/1999/xlink">
<g id="graph0" class="graph" transform="scale(1 1) rotate(0) translate(4 272)">
<title>OMSimOpticalModule</title>
<!-- Node1 -->
<g id="node1" class="node">
<title>Node1</title>
<g id="a_node1"><a xlink:title="Base class for OMs works as interface.">
<polygon fill="#bfbfbf" stroke="black" points="9,-0.5 9,-19.5 131,-19.5 131,-0.5 9,-0.5"/>
<text text-anchor="middle" x="70" y="-7.5" font-family="Helvetica,sans-Serif" font-size="10.00">OMSimOpticalModule</text>
</a>
</g>
</g>
<!-- Node2 -->
<g id="node2" class="node">
<title>Node2</title>
<g id="a_node2"><a xlink:href="classabc_detector_component.html" target="_top" xlink:title="Abstract base class used for constructing detector components.">
<polygon fill="none" stroke="black" points="0,-124.5 0,-143.5 132,-143.5 132,-124.5 0,-124.5"/>
<text text-anchor="middle" x="66" y="-131.5" font-family="Helvetica,sans-Serif" font-size="10.00">abcDetectorComponent</text>
</a>
</g>
</g>
<!-- Node2&#45;&gt;Node1 -->
<g id="edge1" class="edge">
<title>Node2&#45;&gt;Node1</title>
<path fill="none" stroke="midnightblue" d="M66.62,-114.19C67.5,-87.4 69.07,-39.31 69.71,-19.69"/>
<polygon fill="midnightblue" stroke="midnightblue" points="63.12,-114.12 66.29,-124.23 70.11,-114.35 63.12,-114.12"/>
</g>
<!-- Node5 -->
<g id="node5" class="node">
<title>Node5</title>
<g id="a_node5"><a xlink:href="class_o_m_sim_p_m_t_construction.html" target="_top" xlink:title=" ">
<polygon fill="none" stroke="black" points="82,-67.5 82,-86.5 216,-86.5 216,-67.5 82,-67.5"/>
<text text-anchor="middle" x="149" y="-74.5" font-family="Helvetica,sans-Serif" font-size="10.00">OMSimPMTConstruction</text>
</a>
</g>
</g>
<!-- Node2&#45;&gt;Node5 -->
<g id="edge5" class="edge">
<title>Node2&#45;&gt;Node5</title>
<path fill="none" stroke="midnightblue" d="M87.39,-118.82C102.81,-108.61 123.12,-95.15 136.12,-86.53"/>
<polygon fill="midnightblue" stroke="midnightblue" points="85.37,-115.96 78.97,-124.41 89.24,-121.8 85.37,-115.96"/>
</g>
<!-- Node3 -->
<g id="node3" class="node">
<title>Node3</title>
<g id="a_node3"><a xlink:href="class_o_m_sim_input_data.html" target="_top" xlink:title="Manages the input data, including parsing and storing material properties.">
<polygon fill="none" stroke="black" points="16,-191.5 16,-210.5 116,-210.5 116,-191.5 16,-191.5"/>
<text text-anchor="middle" x="66" y="-198.5" font-family="Helvetica,sans-Serif" font-size="10.00">OMSimInputData</text>
</a>
</g>
</g>
<!-- Node3&#45;&gt;Node2 -->
<g id="edge2" class="edge">
<title>Node3&#45;&gt;Node2</title>
<path fill="none" stroke="#9a32cd" stroke-dasharray="5,2" d="M66,-181.04C66,-168.67 66,-153.12 66,-143.63"/>
<polygon fill="#9a32cd" stroke="#9a32cd" points="62.5,-181.23 66,-191.23 69.5,-181.23 62.5,-181.23"/>
<text text-anchor="middle" x="86" y="-165" font-family="Helvetica,sans-Serif" font-size="10.00"> m_data</text>
</g>
<!-- Node4 -->
<g id="node4" class="node">
<title>Node4</title>
<g id="a_node4"><a xlink:href="class_parameter_table.html" target="_top" xlink:title="A utility class for managing JSON&#45;based data tables.">
<polygon fill="none" stroke="black" points="20,-248.5 20,-267.5 112,-267.5 112,-248.5 20,-248.5"/>
<text text-anchor="middle" x="66" y="-255.5" font-family="Helvetica,sans-Serif" font-size="10.00">ParameterTable</text>
</a>
</g>
</g>
<!-- Node4&#45;&gt;Node3 -->
<g id="edge3" class="edge">
<title>Node4&#45;&gt;Node3</title>
<path fill="none" stroke="midnightblue" d="M66,-238.12C66,-228.82 66,-218.06 66,-210.71"/>
<polygon fill="midnightblue" stroke="midnightblue" points="62.5,-238.41 66,-248.41 69.5,-238.41 62.5,-238.41"/>
</g>
<!-- Node5&#45;&gt;Node1 -->
<g id="edge4" class="edge">
<title>Node5&#45;&gt;Node1</title>
<path fill="none" stroke="#9a32cd" stroke-dasharray="5,2" d="M130.42,-60.71C114.86,-47.91 93.2,-30.09 80.49,-19.63"/>
<polygon fill="#9a32cd" stroke="#9a32cd" points="128.4,-63.58 138.35,-67.23 132.85,-58.18 128.4,-63.58"/>
<text text-anchor="middle" x="155.5" y="-41" font-family="Helvetica,sans-Serif" font-size="10.00"> m_managerPMT</text>
</g>
</g>
</svg>
