<?xml version="1.0" encoding="UTF-8" standalone="no"?>
<!DOCTYPE svg PUBLIC "-//W3C//DTD SVG 1.1//EN"
 "http://www.w3.org/Graphics/SVG/1.1/DTD/svg11.dtd">
<!-- Generated by graphviz version 2.43.0 (0)
 -->
<!-- Title: OMSimDecaysAnalysis Pages: 1 -->
<svg width="215pt" height="95pt"
 viewBox="0.00 0.00 215.00 95.00" xmlns="http://www.w3.org/2000/svg" xmlns:xlink="http://www.w3.org/1999/xlink">
<g id="graph0" class="graph" transform="scale(1 1) rotate(0) translate(4 91)">
<title>OMSimDecaysAnalysis</title>
<!-- Node1 -->
<g id="node1" class="node">
<title>Node1</title>
<g id="a_node1"><a xlink:title="Singleton class responsible for managing, analysing, and saving decay&#45;related data.">
<polygon fill="#bfbfbf" stroke="black" points="0,-0.5 0,-19.5 129,-19.5 129,-0.5 0,-0.5"/>
<text text-anchor="middle" x="64.5" y="-7.5" font-family="Helvetica,sans-Serif" font-size="10.00">OMSimDecaysAnalysis</text>
</a>
</g>
</g>
<!-- Node1&#45;&gt;Node1 -->
<g id="edge1" class="edge">
<title>Node1&#45;&gt;Node1</title>
<path fill="none" stroke="#9a32cd" stroke-dasharray="5,2" d="M139.1,-14.29C144.02,-13.29 147,-11.86 147,-10 147,-7.09 139.74,-5.24 129.18,-4.45"/>
<polygon fill="#9a32cd" stroke="#9a32cd" points="138.66,-10.81 129.18,-15.55 139.54,-17.76 138.66,-10.81"/>
<text text-anchor="middle" x="177" y="-7.5" font-family="Helvetica,sans-Serif" font-size="10.00"> m_instance</text>
</g>
<!-- Node2 -->
<g id="node2" class="node">
<title>Node2</title>
<g id="a_node2"><a xlink:href="struct_decay_stats.html" target="_top" xlink:title="A structure to store information about decays.">
<polygon fill="none" stroke="black" points="28.5,-67.5 28.5,-86.5 100.5,-86.5 100.5,-67.5 28.5,-67.5"/>
<text text-anchor="middle" x="64.5" y="-74.5" font-family="Helvetica,sans-Serif" font-size="10.00">DecayStats</text>
</a>
</g>
</g>
<!-- Node2&#45;&gt;Node1 -->
<g id="edge2" class="edge">
<title>Node2&#45;&gt;Node1</title>
<path fill="none" stroke="#9a32cd" stroke-dasharray="5,2" d="M64.5,-57.04C64.5,-44.67 64.5,-29.12 64.5,-19.63"/>
<polygon fill="#9a32cd" stroke="#9a32cd" points="61,-57.23 64.5,-67.23 68,-57.23 61,-57.23"/>
<text text-anchor="middle" x="116" y="-41" font-family="Helvetica,sans-Serif" font-size="10.00"> mThreadDecayStats</text>
</g>
</g>
</svg>
