<?xml version="1.0" encoding="UTF-8" standalone="no"?>
<!DOCTYPE svg PUBLIC "-//W3C//DTD SVG 1.1//EN"
 "http://www.w3.org/Graphics/SVG/1.1/DTD/svg11.dtd">
<!-- Generated by graphviz version 2.43.0 (0)
 -->
<!-- Title: RefractionAndAbsorption Pages: 1 -->
<svg width="146pt" height="209pt"
 viewBox="0.00 0.00 146.00 209.00" xmlns="http://www.w3.org/2000/svg" xmlns:xlink="http://www.w3.org/1999/xlink">
<g id="graph0" class="graph" transform="scale(1 1) rotate(0) translate(4 205)">
<title>RefractionAndAbsorption</title>
<!-- Node1 -->
<g id="node1" class="node">
<title>Node1</title>
<g id="a_node1"><a xlink:title="Materials with defined refractive index and absorption length.">
<polygon fill="#bfbfbf" stroke="black" points="0,-0.5 0,-19.5 138,-19.5 138,-0.5 0,-0.5"/>
<text text-anchor="middle" x="69" y="-7.5" font-family="Helvetica,sans-Serif" font-size="10.00">RefractionAndAbsorption</text>
</a>
</g>
</g>
<!-- Node2 -->
<g id="node2" class="node">
<title>Node2</title>
<g id="a_node2"><a xlink:href="classabc_material_data.html" target="_top" xlink:title="Abstract base class for material data extraction from a json file. abcMaterialData class is derived f...">
<polygon fill="none" stroke="black" points="20,-57.5 20,-76.5 118,-76.5 118,-57.5 20,-57.5"/>
<text text-anchor="middle" x="69" y="-64.5" font-family="Helvetica,sans-Serif" font-size="10.00">abcMaterialData</text>
</a>
</g>
</g>
<!-- Node2&#45;&gt;Node1 -->
<g id="edge1" class="edge">
<title>Node2&#45;&gt;Node1</title>
<path fill="none" stroke="midnightblue" d="M62.58,-47.42C61.87,-38.05 62.31,-27.14 63.91,-19.71"/>
<polygon fill="midnightblue" stroke="midnightblue" points="59.12,-47.97 63.94,-57.41 66.05,-47.03 59.12,-47.97"/>
</g>
<!-- Node2&#45;&gt;Node1 -->
<g id="edge4" class="edge">
<title>Node2&#45;&gt;Node1</title>
<path fill="none" stroke="midnightblue" d="M75.42,-47.42C76.13,-38.05 75.69,-27.14 74.09,-19.71"/>
<polygon fill="midnightblue" stroke="midnightblue" points="71.95,-47.03 74.06,-57.41 78.88,-47.97 71.95,-47.03"/>
</g>
<!-- Node3 -->
<g id="node3" class="node">
<title>Node3</title>
<g id="a_node3"><a xlink:href="classabc_data_file.html" target="_top" xlink:title="This is an abstract base class that provides an interface for handling data files in the simulation.">
<polygon fill="none" stroke="black" points="32,-114.5 32,-133.5 106,-133.5 106,-114.5 32,-114.5"/>
<text text-anchor="middle" x="69" y="-121.5" font-family="Helvetica,sans-Serif" font-size="10.00">abcDataFile</text>
</a>
</g>
</g>
<!-- Node3&#45;&gt;Node2 -->
<g id="edge2" class="edge">
<title>Node3&#45;&gt;Node2</title>
<path fill="none" stroke="midnightblue" d="M69,-104.12C69,-94.82 69,-84.06 69,-76.71"/>
<polygon fill="midnightblue" stroke="midnightblue" points="65.5,-104.41 69,-114.41 72.5,-104.41 65.5,-104.41"/>
</g>
<!-- Node4 -->
<g id="node4" class="node">
<title>Node4</title>
<g id="a_node4"><a xlink:href="class_parameter_table.html" target="_top" xlink:title="A utility class for managing JSON&#45;based data tables.">
<polygon fill="none" stroke="black" points="23,-181.5 23,-200.5 115,-200.5 115,-181.5 23,-181.5"/>
<text text-anchor="middle" x="69" y="-188.5" font-family="Helvetica,sans-Serif" font-size="10.00">ParameterTable</text>
</a>
</g>
</g>
<!-- Node4&#45;&gt;Node3 -->
<g id="edge3" class="edge">
<title>Node4&#45;&gt;Node3</title>
<path fill="none" stroke="#9a32cd" stroke-dasharray="5,2" d="M69,-171.04C69,-158.67 69,-143.12 69,-133.63"/>
<polygon fill="#9a32cd" stroke="#9a32cd" points="65.5,-171.23 69,-181.23 72.5,-171.23 65.5,-171.23"/>
<text text-anchor="middle" x="96" y="-155" font-family="Helvetica,sans-Serif" font-size="10.00"> mFileData</text>
</g>
</g>
</svg>
