<?xml version="1.0" encoding="UTF-8" standalone="no"?>
<!DOCTYPE svg PUBLIC "-//W3C//DTD SVG 1.1//EN"
 "http://www.w3.org/Graphics/SVG/1.1/DTD/svg11.dtd">
<!-- Generated by graphviz version 2.43.0 (0)
 -->
<!-- Title: mDOM Pages: 1 -->
<svg width="252pt" height="409pt"
 viewBox="0.00 0.00 252.00 409.00" xmlns="http://www.w3.org/2000/svg" xmlns:xlink="http://www.w3.org/1999/xlink">
<g id="graph0" class="graph" transform="scale(1 1) rotate(0) translate(4 405)">
<title>mDOM</title>
<!-- Node1 -->
<g id="node1" class="node">
<title>Node1</title>
<g id="a_node1"><a xlink:title=" ">
<polygon fill="#bfbfbf" stroke="black" points="117,-67.5 117,-86.5 167,-86.5 167,-67.5 117,-67.5"/>
<text text-anchor="middle" x="142" y="-74.5" font-family="Helvetica,sans-Serif" font-size="10.00">mDOM</text>
</a>
</g>
</g>
<!-- Node7 -->
<g id="node7" class="node">
<title>Node7</title>
<g id="a_node7"><a xlink:href="classm_d_o_m_harness.html" target="_top" xlink:title=" ">
<polygon fill="none" stroke="black" points="154,-0.5 154,-19.5 244,-19.5 244,-0.5 154,-0.5"/>
<text text-anchor="middle" x="199" y="-7.5" font-family="Helvetica,sans-Serif" font-size="10.00">mDOMHarness</text>
</a>
</g>
</g>
<!-- Node1&#45;&gt;Node7 -->
<g id="edge9" class="edge">
<title>Node1&#45;&gt;Node7</title>
<path fill="none" stroke="#9a32cd" stroke-dasharray="5,2" d="M163.83,-61.27C168.48,-57.58 173.14,-53.4 177,-49 184.83,-40.05 191.29,-27.9 195.14,-19.77"/>
<polygon fill="#9a32cd" stroke="#9a32cd" points="161.6,-58.57 155.66,-67.34 165.77,-64.19 161.6,-58.57"/>
<text text-anchor="middle" x="199" y="-41" font-family="Helvetica,sans-Serif" font-size="10.00"> mOM</text>
</g>
<!-- Node2 -->
<g id="node2" class="node">
<title>Node2</title>
<g id="a_node2"><a xlink:href="class_o_m_sim_optical_module.html" target="_top" xlink:title="Base class for OMs works as interface.">
<polygon fill="none" stroke="black" points="0,-124.5 0,-143.5 122,-143.5 122,-124.5 0,-124.5"/>
<text text-anchor="middle" x="61" y="-131.5" font-family="Helvetica,sans-Serif" font-size="10.00">OMSimOpticalModule</text>
</a>
</g>
</g>
<!-- Node2&#45;&gt;Node1 -->
<g id="edge1" class="edge">
<title>Node2&#45;&gt;Node1</title>
<path fill="none" stroke="midnightblue" d="M82.3,-118.54C97.3,-108.35 116.86,-95.07 129.43,-86.53"/>
<polygon fill="midnightblue" stroke="midnightblue" points="79.96,-115.89 73.66,-124.41 83.9,-121.68 79.96,-115.89"/>
</g>
<!-- Node3 -->
<g id="node3" class="node">
<title>Node3</title>
<g id="a_node3"><a xlink:href="classabc_detector_component.html" target="_top" xlink:title="Abstract base class used for constructing detector components.">
<polygon fill="none" stroke="black" points="106,-257.5 106,-276.5 238,-276.5 238,-257.5 106,-257.5"/>
<text text-anchor="middle" x="172" y="-264.5" font-family="Helvetica,sans-Serif" font-size="10.00">abcDetectorComponent</text>
</a>
</g>
</g>
<!-- Node3&#45;&gt;Node2 -->
<g id="edge2" class="edge">
<title>Node3&#45;&gt;Node2</title>
<path fill="none" stroke="midnightblue" d="M95.99,-260.42C69.16,-254.35 41.57,-242.55 25,-220 6.78,-195.21 36.14,-159.79 51.96,-143.63"/>
<polygon fill="midnightblue" stroke="midnightblue" points="95.32,-263.86 105.81,-262.41 96.71,-257 95.32,-263.86"/>
</g>
<!-- Node6 -->
<g id="node6" class="node">
<title>Node6</title>
<g id="a_node6"><a xlink:href="class_o_m_sim_p_m_t_construction.html" target="_top" xlink:title=" ">
<polygon fill="none" stroke="black" points="34,-200.5 34,-219.5 168,-219.5 168,-200.5 34,-200.5"/>
<text text-anchor="middle" x="101" y="-207.5" font-family="Helvetica,sans-Serif" font-size="10.00">OMSimPMTConstruction</text>
</a>
</g>
</g>
<!-- Node3&#45;&gt;Node6 -->
<g id="edge6" class="edge">
<title>Node3&#45;&gt;Node6</title>
<path fill="none" stroke="midnightblue" d="M152.63,-251C139.68,-240.96 123.08,-228.1 112.25,-219.71"/>
<polygon fill="midnightblue" stroke="midnightblue" points="150.86,-254.05 160.91,-257.41 155.14,-248.52 150.86,-254.05"/>
</g>
<!-- Node3&#45;&gt;Node7 -->
<g id="edge8" class="edge">
<title>Node3&#45;&gt;Node7</title>
<path fill="none" stroke="midnightblue" d="M208.47,-253.37C226.31,-244.64 244,-230.96 244,-211 244,-211 244,-211 244,-76 244,-52.39 223.69,-31.17 210.36,-19.78"/>
<polygon fill="midnightblue" stroke="midnightblue" points="206.93,-250.23 199.22,-257.49 209.78,-256.62 206.93,-250.23"/>
</g>
<!-- Node8 -->
<g id="node8" class="node">
<title>Node8</title>
<g id="a_node8"><a xlink:href="classm_d_o_m_flasher.html" target="_top" xlink:title="The mDOMFlasher class represents the 10 flashers in an mDOM optical module.">
<polygon fill="none" stroke="black" points="143,-162.5 143,-181.5 229,-181.5 229,-162.5 143,-162.5"/>
<text text-anchor="middle" x="186" y="-169.5" font-family="Helvetica,sans-Serif" font-size="10.00">mDOMFlasher</text>
</a>
</g>
</g>
<!-- Node3&#45;&gt;Node8 -->
<g id="edge11" class="edge">
<title>Node3&#45;&gt;Node8</title>
<path fill="none" stroke="midnightblue" d="M174.81,-247.34C177.82,-227.33 182.47,-196.43 184.71,-181.56"/>
<polygon fill="midnightblue" stroke="midnightblue" points="171.32,-247.01 173.29,-257.42 178.24,-248.05 171.32,-247.01"/>
</g>
<!-- Node4 -->
<g id="node4" class="node">
<title>Node4</title>
<g id="a_node4"><a xlink:href="class_o_m_sim_input_data.html" target="_top" xlink:title="Manages the input data, including parsing and storing material properties.">
<polygon fill="none" stroke="black" points="122,-324.5 122,-343.5 222,-343.5 222,-324.5 122,-324.5"/>
<text text-anchor="middle" x="172" y="-331.5" font-family="Helvetica,sans-Serif" font-size="10.00">OMSimInputData</text>
</a>
</g>
</g>
<!-- Node4&#45;&gt;Node3 -->
<g id="edge3" class="edge">
<title>Node4&#45;&gt;Node3</title>
<path fill="none" stroke="#9a32cd" stroke-dasharray="5,2" d="M172,-314.04C172,-301.67 172,-286.12 172,-276.63"/>
<polygon fill="#9a32cd" stroke="#9a32cd" points="168.5,-314.23 172,-324.23 175.5,-314.23 168.5,-314.23"/>
<text text-anchor="middle" x="190.5" y="-298" font-family="Helvetica,sans-Serif" font-size="10.00"> mData</text>
</g>
<!-- Node5 -->
<g id="node5" class="node">
<title>Node5</title>
<g id="a_node5"><a xlink:href="class_parameter_table.html" target="_top" xlink:title="A utility class for managing JSON&#45;based data tables.">
<polygon fill="none" stroke="black" points="126,-381.5 126,-400.5 218,-400.5 218,-381.5 126,-381.5"/>
<text text-anchor="middle" x="172" y="-388.5" font-family="Helvetica,sans-Serif" font-size="10.00">ParameterTable</text>
</a>
</g>
</g>
<!-- Node5&#45;&gt;Node4 -->
<g id="edge4" class="edge">
<title>Node5&#45;&gt;Node4</title>
<path fill="none" stroke="midnightblue" d="M172,-371.12C172,-361.82 172,-351.06 172,-343.71"/>
<polygon fill="midnightblue" stroke="midnightblue" points="168.5,-371.41 172,-381.41 175.5,-371.41 168.5,-371.41"/>
</g>
<!-- Node6&#45;&gt;Node2 -->
<g id="edge5" class="edge">
<title>Node6&#45;&gt;Node2</title>
<path fill="none" stroke="#9a32cd" stroke-dasharray="5,2" d="M69.18,-195.09C64.29,-191.54 59.92,-187.21 57,-182 50.28,-169.99 54.1,-153.5 57.53,-143.59"/>
<polygon fill="#9a32cd" stroke="#9a32cd" points="67.35,-198.08 77.7,-200.35 71.03,-192.12 67.35,-198.08"/>
<text text-anchor="middle" x="95.5" y="-169.5" font-family="Helvetica,sans-Serif" font-size="10.00"> mPMTManager</text>
</g>
<!-- Node7&#45;&gt;Node1 -->
<g id="edge7" class="edge">
<title>Node7&#45;&gt;Node1</title>
<path fill="none" stroke="#9a32cd" stroke-dasharray="5,2" d="M144.56,-21.43C136.48,-25.33 129.15,-30.68 124,-38 117.45,-47.32 125.57,-59.39 132.91,-67.4"/>
<polygon fill="#9a32cd" stroke="#9a32cd" points="145.99,-24.63 153.93,-17.61 143.35,-18.15 145.99,-24.63"/>
<text text-anchor="middle" x="150.5" y="-41" font-family="Helvetica,sans-Serif" font-size="10.00"> mHarness</text>
</g>
<!-- Node8&#45;&gt;Node1 -->
<g id="edge10" class="edge">
<title>Node8&#45;&gt;Node1</title>
<path fill="none" stroke="#9a32cd" stroke-dasharray="5,2" d="M177.57,-153.17C168.11,-133.2 153.18,-101.63 146.05,-86.56"/>
<polygon fill="#9a32cd" stroke="#9a32cd" points="174.5,-154.87 181.94,-162.42 180.83,-151.88 174.5,-154.87"/>
<text text-anchor="middle" x="200.5" y="-131.5" font-family="Helvetica,sans-Serif" font-size="10.00"> mFlashers</text>
</g>
</g>
</svg>
