<?xml version="1.0" encoding="UTF-8" standalone="no"?>
<!DOCTYPE svg PUBLIC "-//W3C//DTD SVG 1.1//EN"
 "http://www.w3.org/Graphics/SVG/1.1/DTD/svg11.dtd">
<!-- Generated by graphviz version 2.43.0 (0)
 -->
<!-- Title: DEGG Pages: 1 -->
<svg width="240pt" height="400pt"
 viewBox="0.00 0.00 240.00 400.00" xmlns="http://www.w3.org/2000/svg" xmlns:xlink="http://www.w3.org/1999/xlink">
<g id="graph0" class="graph" transform="scale(1 1) rotate(0) translate(4 396)">
<title>DEGG</title>
<polygon fill="white" stroke="transparent" points="-4,4 -4,-396 236,-396 236,4 -4,4"/>
<!-- Node1 -->
<g id="node1" class="node">
<title>Node1</title>
<g id="a_node1"><a xlink:title="Construction of the DEGG detector geometry.">
<polygon fill="#bfbfbf" stroke="black" points="108.5,-67.5 108.5,-86.5 153.5,-86.5 153.5,-67.5 108.5,-67.5"/>
<text text-anchor="middle" x="131" y="-74.5" font-family="Helvetica,sans-Serif" font-size="10.00">DEGG</text>
</a>
</g>
</g>
<!-- Node7 -->
<g id="node7" class="node">
<title>Node7</title>
<g id="a_node7"><a xlink:href="class_d_egg_harness.html" target="_top" xlink:title=" ">
<polygon fill="white" stroke="black" points="24,-0.5 24,-19.5 106,-19.5 106,-0.5 24,-0.5"/>
<text text-anchor="middle" x="65" y="-7.5" font-family="Helvetica,sans-Serif" font-size="10.00">DEggHarness</text>
</a>
</g>
</g>
<!-- Node1&#45;&gt;Node7 -->
<g id="edge10" class="edge">
<title>Node1&#45;&gt;Node7</title>
<path fill="none" stroke="#9a32cd" stroke-dasharray="5,2" d="M128.13,-56.97C126.37,-50.38 123.55,-43.33 119,-38 111.99,-29.79 101.88,-23.81 92.3,-19.61"/>
<polygon fill="#9a32cd" stroke="#9a32cd" points="124.79,-58.1 130.19,-67.21 131.65,-56.72 124.79,-58.1"/>
<text text-anchor="middle" x="140" y="-41" font-family="Helvetica,sans-Serif" font-size="10.00"> mOM</text>
</g>
<!-- Node2 -->
<g id="node2" class="node">
<title>Node2</title>
<g id="a_node2"><a xlink:href="class_o_m_sim_optical_module.html" target="_top" xlink:title="Base class for OMs works as interface.">
<polygon fill="white" stroke="black" points="70,-124.5 70,-143.5 192,-143.5 192,-124.5 70,-124.5"/>
<text text-anchor="middle" x="131" y="-131.5" font-family="Helvetica,sans-Serif" font-size="10.00">OMSimOpticalModule</text>
</a>
</g>
</g>
<!-- Node2&#45;&gt;Node1 -->
<g id="edge1" class="edge">
<title>Node2&#45;&gt;Node1</title>
<path fill="none" stroke="midnightblue" d="M131,-114.12C131,-104.82 131,-94.06 131,-86.71"/>
<polygon fill="midnightblue" stroke="midnightblue" points="127.5,-114.41 131,-124.41 134.5,-114.41 127.5,-114.41"/>
</g>
<!-- Node3 -->
<g id="node3" class="node">
<title>Node3</title>
<g id="a_node3"><a xlink:href="classabc_detector_component.html" target="_top" xlink:title="Abstract base class used for constructing detector components.">
<polygon fill="white" stroke="black" points="0,-248.5 0,-267.5 132,-267.5 132,-248.5 0,-248.5"/>
<text text-anchor="middle" x="66" y="-255.5" font-family="Helvetica,sans-Serif" font-size="10.00">abcDetectorComponent</text>
</a>
</g>
</g>
<!-- Node3&#45;&gt;Node2 -->
<g id="edge2" class="edge">
<title>Node3&#45;&gt;Node2</title>
<path fill="none" stroke="midnightblue" d="M70.8,-238.45C74.71,-224.86 80.9,-206.21 89,-191 98.71,-172.77 114.05,-154.05 123.25,-143.54"/>
<polygon fill="midnightblue" stroke="midnightblue" points="67.42,-237.53 68.16,-248.1 74.17,-239.38 67.42,-237.53"/>
</g>
<!-- Node6 -->
<g id="node6" class="node">
<title>Node6</title>
<g id="a_node6"><a xlink:href="class_o_m_sim_p_m_t_construction.html" target="_top" xlink:title=" ">
<polygon fill="white" stroke="black" points="98,-191.5 98,-210.5 232,-210.5 232,-191.5 98,-191.5"/>
<text text-anchor="middle" x="165" y="-198.5" font-family="Helvetica,sans-Serif" font-size="10.00">OMSimPMTConstruction</text>
</a>
</g>
</g>
<!-- Node3&#45;&gt;Node6 -->
<g id="edge6" class="edge">
<title>Node3&#45;&gt;Node6</title>
<path fill="none" stroke="midnightblue" d="M90.24,-243.54C108.77,-233.24 133.77,-219.35 149.64,-210.53"/>
<polygon fill="midnightblue" stroke="midnightblue" points="88.51,-240.49 81.47,-248.41 91.91,-246.61 88.51,-240.49"/>
</g>
<!-- Node3&#45;&gt;Node7 -->
<g id="edge9" class="edge">
<title>Node3&#45;&gt;Node7</title>
<path fill="none" stroke="midnightblue" d="M49.34,-240.68C40.73,-230.48 32,-216.56 32,-202 32,-202 32,-202 32,-76 32,-53.73 47.6,-31.36 57.35,-19.55"/>
<polygon fill="midnightblue" stroke="midnightblue" points="47,-243.31 56.35,-248.3 52.15,-238.57 47,-243.31"/>
</g>
<!-- Node4 -->
<g id="node4" class="node">
<title>Node4</title>
<g id="a_node4"><a xlink:href="class_input_data_manager.html" target="_top" xlink:title="Manages the input data, including parsing and storing material properties.">
<polygon fill="white" stroke="black" points="63.5,-315.5 63.5,-334.5 170.5,-334.5 170.5,-315.5 63.5,-315.5"/>
<text text-anchor="middle" x="117" y="-322.5" font-family="Helvetica,sans-Serif" font-size="10.00">InputDataManager</text>
</a>
</g>
</g>
<!-- Node4&#45;&gt;Node3 -->
<g id="edge3" class="edge">
<title>Node4&#45;&gt;Node3</title>
<path fill="none" stroke="#9a32cd" stroke-dasharray="5,2" d="M103.87,-307.27C93.93,-294.6 80.67,-277.7 72.77,-267.63"/>
<polygon fill="#9a32cd" stroke="#9a32cd" points="101.2,-309.53 110.12,-315.23 106.7,-305.21 101.2,-309.53"/>
<text text-anchor="middle" x="113.5" y="-289" font-family="Helvetica,sans-Serif" font-size="10.00"> mData</text>
</g>
<!-- Node4&#45;&gt;Node6 -->
<g id="edge7" class="edge">
<title>Node4&#45;&gt;Node6</title>
<path fill="none" stroke="#9a32cd" stroke-dasharray="5,2" d="M130.12,-307.07C132.27,-303.84 134.34,-300.4 136,-297 150.69,-266.95 159.77,-227.89 163.31,-210.73"/>
<polygon fill="#9a32cd" stroke="#9a32cd" points="127.09,-305.28 124.08,-315.44 132.77,-309.38 127.09,-305.28"/>
<text text-anchor="middle" x="171.5" y="-255.5" font-family="Helvetica,sans-Serif" font-size="10.00"> mData</text>
</g>
<!-- Node5 -->
<g id="node5" class="node">
<title>Node5</title>
<g id="a_node5"><a xlink:href="class_parameter_table.html" target="_top" xlink:title="A utility class for managing JSON&#45;based data tables.">
<polygon fill="white" stroke="black" points="71,-372.5 71,-391.5 163,-391.5 163,-372.5 71,-372.5"/>
<text text-anchor="middle" x="117" y="-379.5" font-family="Helvetica,sans-Serif" font-size="10.00">ParameterTable</text>
</a>
</g>
</g>
<!-- Node5&#45;&gt;Node4 -->
<g id="edge4" class="edge">
<title>Node5&#45;&gt;Node4</title>
<path fill="none" stroke="midnightblue" d="M117,-362.12C117,-352.82 117,-342.06 117,-334.71"/>
<polygon fill="midnightblue" stroke="midnightblue" points="113.5,-362.41 117,-372.41 120.5,-362.41 113.5,-362.41"/>
</g>
<!-- Node6&#45;&gt;Node2 -->
<g id="edge5" class="edge">
<title>Node6&#45;&gt;Node2</title>
<path fill="none" stroke="#9a32cd" stroke-dasharray="5,2" d="M155.67,-182.16C149.11,-169.63 140.63,-153.41 135.51,-143.63"/>
<polygon fill="#9a32cd" stroke="#9a32cd" points="152.68,-184 160.41,-191.23 158.88,-180.75 152.68,-184"/>
<text text-anchor="middle" x="188.5" y="-165" font-family="Helvetica,sans-Serif" font-size="10.00"> mPMTManager</text>
</g>
<!-- Node7&#45;&gt;Node1 -->
<g id="edge8" class="edge">
<title>Node7&#45;&gt;Node1</title>
<path fill="none" stroke="#9a32cd" stroke-dasharray="5,2" d="M61.51,-29.84C61.27,-36.4 62.22,-43.49 66,-49 75.55,-62.9 93.69,-69.66 108.38,-72.94"/>
<polygon fill="#9a32cd" stroke="#9a32cd" points="65.01,-30.01 62.73,-19.66 58.06,-29.17 65.01,-30.01"/>
<text text-anchor="middle" x="92.5" y="-41" font-family="Helvetica,sans-Serif" font-size="10.00"> mHarness</text>
</g>
</g>
</svg>
