<?xml version="1.0" encoding="UTF-8" standalone="no"?>
<!DOCTYPE svg PUBLIC "-//W3C//DTD SVG 1.1//EN"
 "http://www.w3.org/Graphics/SVG/1.1/DTD/svg11.dtd">
<!-- Generated by graphviz version 2.43.0 (0)
 -->
<!-- Title: OMSimPrimaryGeneratorAction Pages: 1 -->
<svg width="185pt" height="82pt"
 viewBox="0.00 0.00 185.00 82.00" xmlns="http://www.w3.org/2000/svg" xmlns:xlink="http://www.w3.org/1999/xlink">
<g id="graph0" class="graph" transform="scale(1 1) rotate(0) translate(4 78)">
<title>OMSimPrimaryGeneratorAction</title>
<!-- Node1 -->
<g id="Node000001" class="node">
<title>Node1</title>
<g id="a_Node000001"><a xlink:title="Generates primary particles for WavePID simulation.">
<polygon fill="#999999" stroke="#666666" points="173.5,-19 3.5,-19 3.5,0 173.5,0 173.5,-19"/>
<text text-anchor="middle" x="88.5" y="-7" font-family="Helvetica,sans-Serif" font-size="10.00">OMSimPrimaryGeneratorAction</text>
</a>
</g>
</g>
<!-- Node2 -->
<g id="Node000002" class="node">
<title>Node2</title>
<g id="a_Node000002"><a xlink:title=" ">
<polygon fill="white" stroke="#bfbfbf" points="177,-74 0,-74 0,-55 177,-55 177,-74"/>
<text text-anchor="middle" x="88.5" y="-62" font-family="Helvetica,sans-Serif" font-size="10.00">G4VUserPrimaryGeneratorAction</text>
</a>
</g>
</g>
<!-- Node2&#45;&gt;Node1 -->
<g id="edge1_Node000001_Node000002" class="edge">
<title>Node2&#45;&gt;Node1</title>
<g id="a_edge1_Node000001_Node000002"><a xlink:title=" ">
<path fill="none" stroke="#63b8ff" d="M62.87,-45.82C59.97,-36.82 61.67,-26.29 67.98,-19.09"/>
<polygon fill="#63b8ff" stroke="#63b8ff" points="59.92,-47.71 67.83,-54.75 66.04,-44.31 59.92,-47.71"/>
</a>
</g>
</g>
<!-- Node2&#45;&gt;Node1 -->
<g id="edge2_Node000001_Node000002" class="edge">
<title>Node2&#45;&gt;Node1</title>
<g id="a_edge2_Node000001_Node000002"><a xlink:title=" ">
<path fill="none" stroke="#63b8ff" d="M75.56,-44.95C74.29,-36.15 75.19,-26.06 78.24,-19.09"/>
<polygon fill="#63b8ff" stroke="#63b8ff" points="72.21,-45.99 78.17,-54.75 78.97,-44.18 72.21,-45.99"/>
</a>
</g>
</g>
<!-- Node2&#45;&gt;Node1 -->
<g id="edge3_Node000001_Node000002" class="edge">
<title>Node2&#45;&gt;Node1</title>
<g id="a_edge3_Node000001_Node000002"><a xlink:title=" ">
<path fill="none" stroke="#63b8ff" d="M88.5,-44.66C88.5,-35.93 88.5,-25.99 88.5,-19.09"/>
<polygon fill="#63b8ff" stroke="#63b8ff" points="85,-44.75 88.5,-54.75 92,-44.75 85,-44.75"/>
</a>
</g>
</g>
<!-- Node2&#45;&gt;Node1 -->
<g id="edge4_Node000001_Node000002" class="edge">
<title>Node2&#45;&gt;Node1</title>
<g id="a_edge4_Node000001_Node000002"><a xlink:title=" ">
<path fill="none" stroke="#63b8ff" d="M101.44,-44.95C102.71,-36.15 101.81,-26.06 98.76,-19.09"/>
<polygon fill="#63b8ff" stroke="#63b8ff" points="98.03,-44.18 98.83,-54.75 104.79,-45.99 98.03,-44.18"/>
</a>
</g>
</g>
<!-- Node2&#45;&gt;Node1 -->
<g id="edge5_Node000001_Node000002" class="edge">
<title>Node2&#45;&gt;Node1</title>
<g id="a_edge5_Node000001_Node000002"><a xlink:title=" ">
<path fill="none" stroke="#63b8ff" d="M114.13,-45.82C117.03,-36.82 115.33,-26.29 109.02,-19.09"/>
<polygon fill="#63b8ff" stroke="#63b8ff" points="110.96,-44.31 109.17,-54.75 117.08,-47.71 110.96,-44.31"/>
</a>
</g>
</g>
</g>
</svg>
