<?xml version="1.0" encoding="UTF-8" standalone="no"?>
<!DOCTYPE svg PUBLIC "-//W3C//DTD SVG 1.1//EN"
 "http://www.w3.org/Graphics/SVG/1.1/DTD/svg11.dtd">
<!-- Generated by graphviz version 2.43.0 (0)
 -->
<!-- Title: OMSimHitManager Pages: 1 -->
<svg width="345pt" height="159pt"
 viewBox="0.00 0.00 344.50 159.00" xmlns="http://www.w3.org/2000/svg" xmlns:xlink="http://www.w3.org/1999/xlink">
<g id="graph0" class="graph" transform="scale(1 1) rotate(0) translate(4 155)">
<title>OMSimHitManager</title>
<!-- Node1 -->
<g id="Node000001" class="node">
<title>Node1</title>
<g id="a_Node000001"><a xlink:title="Manages detected photon information.">
<polygon fill="#999999" stroke="#666666" points="218,-19 109,-19 109,0 218,0 218,-19"/>
<text text-anchor="middle" x="163.5" y="-7" font-family="Helvetica,sans-Serif" font-size="10.00">OMSimHitManager</text>
</a>
</g>
</g>
<!-- Node1&#45;&gt;Node1 -->
<g id="edge1_Node000001_Node000001" class="edge">
<title>Node1&#45;&gt;Node1</title>
<g id="a_edge1_Node000001_Node000001"><a xlink:title=" ">
<path fill="none" stroke="#9a32cd" stroke-dasharray="5,2" d="M228.41,-13.93C233.12,-12.93 236,-11.45 236,-9.5 236,-6.38 228.62,-4.47 218.2,-3.79"/>
<polygon fill="#9a32cd" stroke="#9a32cd" points="227.68,-10.49 218.2,-15.21 228.55,-17.44 227.68,-10.49"/>
</a>
</g>
<text text-anchor="middle" x="266" y="-7" font-family="Helvetica,sans-Serif" font-size="10.00" fill="grey"> m_instance</text>
</g>
<!-- Node2 -->
<g id="Node000002" class="node">
<title>Node2</title>
<g id="a_Node000002"><a xlink:href="struct_o_m_sim_hit_manager_1_1_thread_local_data.html" target="_top" xlink:title=" ">
<polygon fill="white" stroke="#bfbfbf" points="197,-85 0,-85 0,-66 197,-66 197,-85"/>
<text text-anchor="middle" x="98.5" y="-73" font-family="Helvetica,sans-Serif" font-size="10.00">OMSimHitManager::ThreadLocalData</text>
</a>
</g>
</g>
<!-- Node2&#45;&gt;Node1 -->
<g id="edge2_Node000001_Node000002" class="edge">
<title>Node2&#45;&gt;Node1</title>
<g id="a_edge2_Node000001_Node000002"><a xlink:title=" ">
<path fill="none" stroke="#9a32cd" stroke-dasharray="5,2" d="M113.89,-58.01C120.18,-51.38 127.6,-43.74 134.5,-37 140.75,-30.9 148,-24.28 153.69,-19.18"/>
<polygon fill="#9a32cd" stroke="#9a32cd" points="110.95,-56.03 106.64,-65.7 116.04,-60.83 110.95,-56.03"/>
</a>
</g>
<text text-anchor="middle" x="171" y="-40" font-family="Helvetica,sans-Serif" font-size="10.00" fill="grey"> m_threadData</text>
</g>
<!-- Node3 -->
<g id="Node000003" class="node">
<title>Node3</title>
<g id="a_Node000003"><a xlink:href="class_r_o_o_t_hit_manager.html" target="_top" xlink:title="Manages ROOT file output for photon hit data.">
<polygon fill="white" stroke="#666666" points="316,-85 215,-85 215,-66 316,-66 316,-85"/>
<text text-anchor="middle" x="265.5" y="-73" font-family="Helvetica,sans-Serif" font-size="10.00">ROOTHitManager</text>
</a>
</g>
</g>
<!-- Node3&#45;&gt;Node1 -->
<g id="edge3_Node000001_Node000003" class="edge">
<title>Node3&#45;&gt;Node1</title>
<g id="a_edge3_Node000001_Node000003"><a xlink:title=" ">
<path fill="none" stroke="#9a32cd" stroke-dasharray="5,2" d="M243.78,-60.22C232.93,-53.15 219.58,-44.54 207.5,-37 197.82,-30.96 186.82,-24.33 178.24,-19.22"/>
<polygon fill="#9a32cd" stroke="#9a32cd" points="241.93,-63.2 252.22,-65.74 245.76,-57.34 241.93,-63.2"/>
</a>
</g>
<text text-anchor="middle" x="264" y="-40" font-family="Helvetica,sans-Serif" font-size="10.00" fill="grey"> m_rootManager</text>
</g>
<!-- Node4 -->
<g id="Node000004" class="node">
<title>Node4</title>
<g id="a_Node000004"><a xlink:href="struct_photon_info_r_o_o_t.html" target="_top" xlink:title="Structure for storing photon hit data in ROOT format.">
<polygon fill="white" stroke="#666666" points="314,-151 217,-151 217,-132 314,-132 314,-151"/>
<text text-anchor="middle" x="265.5" y="-139" font-family="Helvetica,sans-Serif" font-size="10.00">PhotonInfoROOT</text>
</a>
</g>
</g>
<!-- Node4&#45;&gt;Node3 -->
<g id="edge4_Node000003_Node000004" class="edge">
<title>Node4&#45;&gt;Node3</title>
<g id="a_edge4_Node000003_Node000004"><a xlink:title=" ">
<path fill="none" stroke="#9a32cd" stroke-dasharray="5,2" d="M265.5,-121.58C265.5,-109.63 265.5,-94.72 265.5,-85.41"/>
<polygon fill="#9a32cd" stroke="#9a32cd" points="262,-121.87 265.5,-131.87 269,-121.87 262,-121.87"/>
</a>
</g>
<text text-anchor="middle" x="301" y="-106" font-family="Helvetica,sans-Serif" font-size="10.00" fill="grey"> m_photonInfo</text>
</g>
</g>
</svg>
