<?xml version="1.0" encoding="UTF-8" standalone="no"?>
<!DOCTYPE svg PUBLIC "-//W3C//DTD SVG 1.1//EN"
 "http://www.w3.org/Graphics/SVG/1.1/DTD/svg11.dtd">
<!-- Generated by graphviz version 2.43.0 (0)
 -->
<!-- Title: OMSimEventAction Pages: 1 -->
<svg width="119pt" height="84pt"
 viewBox="0.00 0.00 119.00 84.00" xmlns="http://www.w3.org/2000/svg" xmlns:xlink="http://www.w3.org/1999/xlink">
<g id="graph0" class="graph" transform="scale(1 1) rotate(0) translate(4 80)">
<title>OMSimEventAction</title>
<!-- Node1 -->
<g id="node1" class="node">
<title>Node1</title>
<g id="a_node1"><a xlink:title="Handles custom actions at the beginning and end of each event.">
<polygon fill="#bfbfbf" stroke="black" points="0.5,-0.5 0.5,-19.5 110.5,-19.5 110.5,-0.5 0.5,-0.5"/>
<text text-anchor="middle" x="55.5" y="-7.5" font-family="Helvetica,sans-Serif" font-size="10.00">OMSimEventAction</text>
</a>
</g>
</g>
<!-- Node2 -->
<g id="node2" class="node">
<title>Node2</title>
<g id="a_node2"><a xlink:title=" ">
<polygon fill="none" stroke="#bfbfbf" points="0,-56.5 0,-75.5 111,-75.5 111,-56.5 0,-56.5"/>
<text text-anchor="middle" x="55.5" y="-63.5" font-family="Helvetica,sans-Serif" font-size="10.00">G4UserEventAction</text>
</a>
</g>
</g>
<!-- Node2&#45;&gt;Node1 -->
<g id="edge1" class="edge">
<title>Node2&#45;&gt;Node1</title>
<path fill="none" stroke="midnightblue" d="M42.6,-46.4C41.27,-37.36 42.15,-26.94 45.24,-19.75"/>
<polygon fill="midnightblue" stroke="midnightblue" points="39.22,-47.31 45.17,-56.08 45.99,-45.52 39.22,-47.31"/>
</g>
<!-- Node2&#45;&gt;Node1 -->
<g id="edge2" class="edge">
<title>Node2&#45;&gt;Node1</title>
<path fill="none" stroke="midnightblue" d="M55.5,-45.8C55.5,-36.91 55.5,-26.78 55.5,-19.75"/>
<polygon fill="midnightblue" stroke="midnightblue" points="52,-46.08 55.5,-56.08 59,-46.08 52,-46.08"/>
</g>
<!-- Node2&#45;&gt;Node1 -->
<g id="edge3" class="edge">
<title>Node2&#45;&gt;Node1</title>
<path fill="none" stroke="midnightblue" d="M68.4,-46.4C69.73,-37.36 68.85,-26.94 65.76,-19.75"/>
<polygon fill="midnightblue" stroke="midnightblue" points="65.01,-45.52 65.83,-56.08 71.78,-47.31 65.01,-45.52"/>
</g>
</g>
</svg>
