<?xml version="1.0" encoding="UTF-8" standalone="no"?>
<!DOCTYPE svg PUBLIC "-//W3C//DTD SVG 1.1//EN"
 "http://www.w3.org/Graphics/SVG/1.1/DTD/svg11.dtd">
<!-- Generated by graphviz version 2.43.0 (0)
 -->
<!-- Title: RefractionOnly Pages: 1 -->
<svg width="111pt" height="209pt"
 viewBox="0.00 0.00 111.00 209.00" xmlns="http://www.w3.org/2000/svg" xmlns:xlink="http://www.w3.org/1999/xlink">
<g id="graph0" class="graph" transform="scale(1 1) rotate(0) translate(4 205)">
<title>RefractionOnly</title>
<!-- Node1 -->
<g id="node1" class="node">
<title>Node1</title>
<g id="a_node1"><a xlink:title="Materials only with refractive index defined.">
<polygon fill="#bfbfbf" stroke="black" points="4.5,-0.5 4.5,-19.5 93.5,-19.5 93.5,-0.5 4.5,-0.5"/>
<text text-anchor="middle" x="49" y="-7.5" font-family="Helvetica,sans-Serif" font-size="10.00">RefractionOnly</text>
</a>
</g>
</g>
<!-- Node2 -->
<g id="node2" class="node">
<title>Node2</title>
<g id="a_node2"><a xlink:href="classabc_material_data.html" target="_top" xlink:title="Abstract base class for material data extraction from a json file. abcMaterialData class is derived f...">
<polygon fill="none" stroke="black" points="0,-57.5 0,-76.5 98,-76.5 98,-57.5 0,-57.5"/>
<text text-anchor="middle" x="49" y="-64.5" font-family="Helvetica,sans-Serif" font-size="10.00">abcMaterialData</text>
</a>
</g>
</g>
<!-- Node2&#45;&gt;Node1 -->
<g id="edge1" class="edge">
<title>Node2&#45;&gt;Node1</title>
<path fill="none" stroke="midnightblue" d="M42.58,-47.42C41.87,-38.05 42.31,-27.14 43.91,-19.71"/>
<polygon fill="midnightblue" stroke="midnightblue" points="39.12,-47.97 43.94,-57.41 46.05,-47.03 39.12,-47.97"/>
</g>
<!-- Node2&#45;&gt;Node1 -->
<g id="edge4" class="edge">
<title>Node2&#45;&gt;Node1</title>
<path fill="none" stroke="midnightblue" d="M55.42,-47.42C56.13,-38.05 55.69,-27.14 54.09,-19.71"/>
<polygon fill="midnightblue" stroke="midnightblue" points="51.95,-47.03 54.06,-57.41 58.88,-47.97 51.95,-47.03"/>
</g>
<!-- Node3 -->
<g id="node3" class="node">
<title>Node3</title>
<g id="a_node3"><a xlink:href="classabc_data_file.html" target="_top" xlink:title="This is an abstract base class that provides an interface for handling data files in the simulation.">
<polygon fill="none" stroke="black" points="12,-114.5 12,-133.5 86,-133.5 86,-114.5 12,-114.5"/>
<text text-anchor="middle" x="49" y="-121.5" font-family="Helvetica,sans-Serif" font-size="10.00">abcDataFile</text>
</a>
</g>
</g>
<!-- Node3&#45;&gt;Node2 -->
<g id="edge2" class="edge">
<title>Node3&#45;&gt;Node2</title>
<path fill="none" stroke="midnightblue" d="M49,-104.12C49,-94.82 49,-84.06 49,-76.71"/>
<polygon fill="midnightblue" stroke="midnightblue" points="45.5,-104.41 49,-114.41 52.5,-104.41 45.5,-104.41"/>
</g>
<!-- Node4 -->
<g id="node4" class="node">
<title>Node4</title>
<g id="a_node4"><a xlink:href="class_parameter_table.html" target="_top" xlink:title="A utility class for managing JSON&#45;based data tables.">
<polygon fill="none" stroke="black" points="3,-181.5 3,-200.5 95,-200.5 95,-181.5 3,-181.5"/>
<text text-anchor="middle" x="49" y="-188.5" font-family="Helvetica,sans-Serif" font-size="10.00">ParameterTable</text>
</a>
</g>
</g>
<!-- Node4&#45;&gt;Node3 -->
<g id="edge3" class="edge">
<title>Node4&#45;&gt;Node3</title>
<path fill="none" stroke="#9a32cd" stroke-dasharray="5,2" d="M49,-171.04C49,-158.67 49,-143.12 49,-133.63"/>
<polygon fill="#9a32cd" stroke="#9a32cd" points="45.5,-171.23 49,-181.23 52.5,-171.23 45.5,-171.23"/>
<text text-anchor="middle" x="76" y="-155" font-family="Helvetica,sans-Serif" font-size="10.00"> mFileData</text>
</g>
</g>
</svg>
