<?xml version="1.0" encoding="UTF-8" standalone="no"?>
<!DOCTYPE svg PUBLIC "-//W3C//DTD SVG 1.1//EN"
 "http://www.w3.org/Graphics/SVG/1.1/DTD/svg11.dtd">
<!-- Generated by graphviz version 2.43.0 (0)
 -->
<!-- Title: DEggHarness Pages: 1 -->
<svg width="321pt" height="333pt"
 viewBox="0.00 0.00 321.31 333.00" xmlns="http://www.w3.org/2000/svg" xmlns:xlink="http://www.w3.org/1999/xlink">
<g id="graph0" class="graph" transform="scale(1 1) rotate(0) translate(4 329)">
<title>DEggHarness</title>
<!-- Node1 -->
<g id="node1" class="node">
<title>Node1</title>
<g id="a_node1"><a xlink:title=" ">
<polygon fill="#bfbfbf" stroke="black" points="22.31,-124.5 22.31,-143.5 104.31,-143.5 104.31,-124.5 22.31,-124.5"/>
<text text-anchor="middle" x="63.31" y="-131.5" font-family="Helvetica,sans-Serif" font-size="10.00">DEggHarness</text>
</a>
</g>
</g>
<!-- Node5 -->
<g id="node5" class="node">
<title>Node5</title>
<g id="a_node5"><a xlink:href="class_d_e_g_g.html" target="_top" xlink:title="Construction of the DEGG detector geometry.">
<polygon fill="none" stroke="black" points="40.81,-0.5 40.81,-19.5 85.81,-19.5 85.81,-0.5 40.81,-0.5"/>
<text text-anchor="middle" x="63.31" y="-7.5" font-family="Helvetica,sans-Serif" font-size="10.00">DEGG</text>
</a>
</g>
</g>
<!-- Node1&#45;&gt;Node5 -->
<g id="edge9" class="edge">
<title>Node1&#45;&gt;Node5</title>
<path fill="none" stroke="#9a32cd" stroke-dasharray="5,2" d="M39.64,-118.56C25.94,-108.73 9.95,-94.38 2.31,-77 -8.55,-52.29 23.13,-30.83 44.81,-19.52"/>
<polygon fill="#9a32cd" stroke="#9a32cd" points="37.95,-121.64 48.19,-124.34 41.87,-115.84 37.95,-121.64"/>
<text text-anchor="middle" x="30.81" y="-64.5" font-family="Helvetica,sans-Serif" font-size="10.00"> m_harness</text>
</g>
<!-- Node2 -->
<g id="node2" class="node">
<title>Node2</title>
<g id="a_node2"><a xlink:href="classabc_detector_component.html" target="_top" xlink:title="Abstract base class used for constructing detector components.">
<polygon fill="none" stroke="black" points="69.31,-181.5 69.31,-200.5 201.31,-200.5 201.31,-181.5 69.31,-181.5"/>
<text text-anchor="middle" x="135.31" y="-188.5" font-family="Helvetica,sans-Serif" font-size="10.00">abcDetectorComponent</text>
</a>
</g>
</g>
<!-- Node2&#45;&gt;Node1 -->
<g id="edge1" class="edge">
<title>Node2&#45;&gt;Node1</title>
<path fill="none" stroke="midnightblue" d="M116.05,-175.29C102.86,-165.21 85.81,-152.19 74.72,-143.71"/>
<polygon fill="midnightblue" stroke="midnightblue" points="113.99,-178.12 124.06,-181.41 118.24,-172.55 113.99,-178.12"/>
</g>
<!-- Node6 -->
<g id="node6" class="node">
<title>Node6</title>
<g id="a_node6"><a xlink:href="class_o_m_sim_optical_module.html" target="_top" xlink:title="Base class for OMs works as interface.">
<polygon fill="none" stroke="black" points="169.31,-57.5 169.31,-76.5 291.31,-76.5 291.31,-57.5 169.31,-57.5"/>
<text text-anchor="middle" x="230.31" y="-64.5" font-family="Helvetica,sans-Serif" font-size="10.00">OMSimOpticalModule</text>
</a>
</g>
</g>
<!-- Node2&#45;&gt;Node6 -->
<g id="edge6" class="edge">
<title>Node2&#45;&gt;Node6</title>
<path fill="none" stroke="midnightblue" d="M137.43,-171.13C139.74,-157.11 144.53,-138.05 154.31,-124 169.29,-102.48 195.23,-85.98 212.58,-76.64"/>
<polygon fill="midnightblue" stroke="midnightblue" points="133.95,-170.72 136.05,-181.11 140.88,-171.68 133.95,-170.72"/>
</g>
<!-- Node7 -->
<g id="node7" class="node">
<title>Node7</title>
<g id="a_node7"><a xlink:href="class_o_m_sim_p_m_t_construction.html" target="_top" xlink:title=" ">
<polygon fill="none" stroke="black" points="163.31,-124.5 163.31,-143.5 297.31,-143.5 297.31,-124.5 163.31,-124.5"/>
<text text-anchor="middle" x="230.31" y="-131.5" font-family="Helvetica,sans-Serif" font-size="10.00">OMSimPMTConstruction</text>
</a>
</g>
</g>
<!-- Node2&#45;&gt;Node7 -->
<g id="edge8" class="edge">
<title>Node2&#45;&gt;Node7</title>
<path fill="none" stroke="midnightblue" d="M158.81,-176.39C176.58,-166.11 200.41,-152.31 215.57,-143.53"/>
<polygon fill="midnightblue" stroke="midnightblue" points="157.06,-173.37 150.16,-181.41 160.56,-179.42 157.06,-173.37"/>
</g>
<!-- Node3 -->
<g id="node3" class="node">
<title>Node3</title>
<g id="a_node3"><a xlink:href="class_o_m_sim_input_data.html" target="_top" xlink:title="Manages the input data, including parsing and storing material properties.">
<polygon fill="none" stroke="black" points="85.31,-248.5 85.31,-267.5 185.31,-267.5 185.31,-248.5 85.31,-248.5"/>
<text text-anchor="middle" x="135.31" y="-255.5" font-family="Helvetica,sans-Serif" font-size="10.00">OMSimInputData</text>
</a>
</g>
</g>
<!-- Node3&#45;&gt;Node2 -->
<g id="edge2" class="edge">
<title>Node3&#45;&gt;Node2</title>
<path fill="none" stroke="#9a32cd" stroke-dasharray="5,2" d="M135.31,-238.04C135.31,-225.67 135.31,-210.12 135.31,-200.63"/>
<polygon fill="#9a32cd" stroke="#9a32cd" points="131.81,-238.23 135.31,-248.23 138.81,-238.23 131.81,-238.23"/>
<text text-anchor="middle" x="155.31" y="-222" font-family="Helvetica,sans-Serif" font-size="10.00"> m_data</text>
</g>
<!-- Node4 -->
<g id="node4" class="node">
<title>Node4</title>
<g id="a_node4"><a xlink:href="class_parameter_table.html" target="_top" xlink:title="A utility class for managing JSON&#45;based data tables.">
<polygon fill="none" stroke="black" points="89.31,-305.5 89.31,-324.5 181.31,-324.5 181.31,-305.5 89.31,-305.5"/>
<text text-anchor="middle" x="135.31" y="-312.5" font-family="Helvetica,sans-Serif" font-size="10.00">ParameterTable</text>
</a>
</g>
</g>
<!-- Node4&#45;&gt;Node3 -->
<g id="edge3" class="edge">
<title>Node4&#45;&gt;Node3</title>
<path fill="none" stroke="midnightblue" d="M135.31,-295.12C135.31,-285.82 135.31,-275.06 135.31,-267.71"/>
<polygon fill="midnightblue" stroke="midnightblue" points="131.81,-295.41 135.31,-305.41 138.81,-295.41 131.81,-295.41"/>
</g>
<!-- Node5&#45;&gt;Node1 -->
<g id="edge4" class="edge">
<title>Node5&#45;&gt;Node1</title>
<path fill="none" stroke="#9a32cd" stroke-dasharray="5,2" d="M63.31,-29.7C63.31,-56.44 63.31,-104.53 63.31,-124.23"/>
<polygon fill="#9a32cd" stroke="#9a32cd" points="66.81,-29.69 63.31,-19.69 59.81,-29.69 66.81,-29.69"/>
<text text-anchor="middle" x="107.31" y="-64.5" font-family="Helvetica,sans-Serif" font-size="10.00"> m_opticalModule</text>
</g>
<!-- Node6&#45;&gt;Node5 -->
<g id="edge5" class="edge">
<title>Node6&#45;&gt;Node5</title>
<path fill="none" stroke="midnightblue" d="M194.53,-54.22C161.66,-43.39 113.93,-27.67 86.01,-18.47"/>
<polygon fill="midnightblue" stroke="midnightblue" points="193.63,-57.6 204.22,-57.41 195.82,-50.95 193.63,-57.6"/>
</g>
<!-- Node7&#45;&gt;Node6 -->
<g id="edge7" class="edge">
<title>Node7&#45;&gt;Node6</title>
<path fill="none" stroke="#9a32cd" stroke-dasharray="5,2" d="M230.31,-114.04C230.31,-101.67 230.31,-86.12 230.31,-76.63"/>
<polygon fill="#9a32cd" stroke="#9a32cd" points="226.81,-114.23 230.31,-124.23 233.81,-114.23 226.81,-114.23"/>
<text text-anchor="middle" x="271.81" y="-98" font-family="Helvetica,sans-Serif" font-size="10.00"> m_managerPMT</text>
</g>
</g>
</svg>
