<?xml version="1.0" encoding="UTF-8" standalone="no"?>
<!DOCTYPE svg PUBLIC "-//W3C//DTD SVG 1.1//EN"
 "http://www.w3.org/Graphics/SVG/1.1/DTD/svg11.dtd">
<!-- Generated by graphviz version 2.43.0 (0)
 -->
<!-- Title: abcDataFile Pages: 1 -->
<svg width="677pt" height="140pt"
 viewBox="0.00 0.00 676.50 140.00" xmlns="http://www.w3.org/2000/svg" xmlns:xlink="http://www.w3.org/1999/xlink">
<g id="graph0" class="graph" transform="scale(1 1) rotate(0) translate(4 136)">
<title>abcDataFile</title>
<polygon fill="white" stroke="transparent" points="-4,4 -4,-136 672.5,-136 672.5,4 -4,4"/>
<!-- Node1 -->
<g id="node1" class="node">
<title>Node1</title>
<g id="a_node1"><a xlink:title="This is an abstract base class that provides an interface for handling data files in the simulation.">
<polygon fill="#bfbfbf" stroke="black" points="136,-112.5 136,-131.5 210,-131.5 210,-112.5 136,-112.5"/>
<text text-anchor="middle" x="173" y="-119.5" font-family="Helvetica,sans-Serif" font-size="10.00">abcDataFile</text>
</a>
</g>
</g>
<!-- Node2 -->
<g id="node2" class="node">
<title>Node2</title>
<g id="a_node2"><a xlink:href="class_custom_properties.html" target="_top" xlink:title="Adds user defined properties to already defined materials.">
<polygon fill="white" stroke="black" points="0,-56.5 0,-75.5 104,-75.5 104,-56.5 0,-56.5"/>
<text text-anchor="middle" x="52" y="-63.5" font-family="Helvetica,sans-Serif" font-size="10.00">CustomProperties</text>
</a>
</g>
</g>
<!-- Node1&#45;&gt;Node2 -->
<g id="edge1" class="edge">
<title>Node1&#45;&gt;Node2</title>
<path fill="none" stroke="midnightblue" d="M144.69,-108.37C122.03,-98.26 90.87,-84.35 71.08,-75.52"/>
<polygon fill="midnightblue" stroke="midnightblue" points="143.27,-111.56 153.83,-112.44 146.12,-105.17 143.27,-111.56"/>
</g>
<!-- Node3 -->
<g id="node3" class="node">
<title>Node3</title>
<g id="a_node3"><a xlink:href="class_reflective_surface.html" target="_top" xlink:title="Reflective surfaces parsed from a JSON file.">
<polygon fill="white" stroke="black" points="122,-56.5 122,-75.5 224,-75.5 224,-56.5 122,-56.5"/>
<text text-anchor="middle" x="173" y="-63.5" font-family="Helvetica,sans-Serif" font-size="10.00">ReflectiveSurface</text>
</a>
</g>
</g>
<!-- Node1&#45;&gt;Node3 -->
<g id="edge2" class="edge">
<title>Node1&#45;&gt;Node3</title>
<path fill="none" stroke="midnightblue" d="M166.53,-102.1C165.9,-93.14 166.34,-82.86 167.87,-75.75"/>
<polygon fill="midnightblue" stroke="midnightblue" points="163.07,-102.62 167.83,-112.08 170.01,-101.71 163.07,-102.62"/>
</g>
<!-- Node1&#45;&gt;Node3 -->
<g id="edge3" class="edge">
<title>Node1&#45;&gt;Node3</title>
<path fill="none" stroke="midnightblue" d="M179.47,-102.1C180.1,-93.14 179.66,-82.86 178.13,-75.75"/>
<polygon fill="midnightblue" stroke="midnightblue" points="175.99,-101.71 178.17,-112.08 182.93,-102.62 175.99,-101.71"/>
</g>
<!-- Node4 -->
<g id="node4" class="node">
<title>Node4</title>
<g id="a_node4"><a xlink:href="class_scintillation_properties.html" target="_top" xlink:title="Scintillation properties extraction for existing materials.">
<polygon fill="white" stroke="black" points="242,-56.5 242,-75.5 366,-75.5 366,-56.5 242,-56.5"/>
<text text-anchor="middle" x="304" y="-63.5" font-family="Helvetica,sans-Serif" font-size="10.00">ScintillationProperties</text>
</a>
</g>
</g>
<!-- Node1&#45;&gt;Node4 -->
<g id="edge4" class="edge">
<title>Node1&#45;&gt;Node4</title>
<path fill="none" stroke="midnightblue" d="M203.32,-108.5C227.88,-98.38 261.82,-84.39 283.34,-75.52"/>
<polygon fill="midnightblue" stroke="midnightblue" points="201.67,-105.4 193.76,-112.44 204.34,-111.87 201.67,-105.4"/>
</g>
<!-- Node5 -->
<g id="node5" class="node">
<title>Node5</title>
<g id="a_node5"><a xlink:href="classabc_material_data.html" target="_top" xlink:title="Abstract base class for material data extraction from a json file. abcMaterialData class is derived f...">
<polygon fill="white" stroke="black" points="384,-56.5 384,-75.5 482,-75.5 482,-56.5 384,-56.5"/>
<text text-anchor="middle" x="433" y="-63.5" font-family="Helvetica,sans-Serif" font-size="10.00">abcMaterialData</text>
</a>
</g>
</g>
<!-- Node1&#45;&gt;Node5 -->
<g id="edge5" class="edge">
<title>Node1&#45;&gt;Node5</title>
<path fill="none" stroke="midnightblue" d="M220.3,-111.18C269.37,-100.98 345.33,-85.21 391.96,-75.52"/>
<polygon fill="midnightblue" stroke="midnightblue" points="219.33,-107.8 210.25,-113.26 220.75,-114.66 219.33,-107.8"/>
</g>
<!-- Node6 -->
<g id="node6" class="node">
<title>Node6</title>
<g id="a_node6"><a xlink:href="class_ice_cube_ice.html" target="_top" xlink:title="Creation and extraction of IceCube&#39;s ice optical properties.">
<polygon fill="white" stroke="black" points="255,-0.5 255,-19.5 325,-19.5 325,-0.5 255,-0.5"/>
<text text-anchor="middle" x="290" y="-7.5" font-family="Helvetica,sans-Serif" font-size="10.00">IceCubeIce</text>
</a>
</g>
</g>
<!-- Node5&#45;&gt;Node6 -->
<g id="edge6" class="edge">
<title>Node5&#45;&gt;Node6</title>
<path fill="none" stroke="midnightblue" d="M395.61,-53.04C367.14,-42.88 329.39,-28.55 307.47,-19.52"/>
<polygon fill="midnightblue" stroke="midnightblue" points="394.66,-56.41 405.25,-56.44 396.99,-49.81 394.66,-56.41"/>
</g>
<!-- Node5&#45;&gt;Node6 -->
<g id="edge7" class="edge">
<title>Node5&#45;&gt;Node6</title>
<path fill="none" stroke="midnightblue" d="M406.04,-52.64C380.7,-42.5 343.19,-28.43 317.63,-19.52"/>
<polygon fill="midnightblue" stroke="midnightblue" points="404.85,-55.93 415.43,-56.44 407.48,-49.44 404.85,-55.93"/>
</g>
<!-- Node7 -->
<g id="node7" class="node">
<title>Node7</title>
<g id="a_node7"><a xlink:href="class_no_optics.html" target="_top" xlink:title="Materials without optical properties defined.">
<polygon fill="white" stroke="black" points="343.5,-0.5 343.5,-19.5 404.5,-19.5 404.5,-0.5 343.5,-0.5"/>
<text text-anchor="middle" x="374" y="-7.5" font-family="Helvetica,sans-Serif" font-size="10.00">NoOptics</text>
</a>
</g>
</g>
<!-- Node5&#45;&gt;Node7 -->
<g id="edge8" class="edge">
<title>Node5&#45;&gt;Node7</title>
<path fill="none" stroke="midnightblue" d="M410.28,-49.82C398.64,-40.15 385.64,-27.95 378.5,-19.83"/>
<polygon fill="midnightblue" stroke="midnightblue" points="408.41,-52.81 418.41,-56.32 412.78,-47.34 408.41,-52.81"/>
</g>
<!-- Node5&#45;&gt;Node7 -->
<g id="edge9" class="edge">
<title>Node5&#45;&gt;Node7</title>
<path fill="none" stroke="midnightblue" d="M421.46,-48.72C411.99,-39.2 398.9,-27.56 388.69,-19.75"/>
<polygon fill="midnightblue" stroke="midnightblue" points="419.01,-51.22 428.42,-56.08 424.1,-46.41 419.01,-51.22"/>
</g>
<!-- Node8 -->
<g id="node8" class="node">
<title>Node8</title>
<g id="a_node8"><a xlink:href="class_refraction_and_absorption.html" target="_top" xlink:title="Materials with defined refractive index and absorption length.">
<polygon fill="white" stroke="black" points="423,-0.5 423,-19.5 561,-19.5 561,-0.5 423,-0.5"/>
<text text-anchor="middle" x="492" y="-7.5" font-family="Helvetica,sans-Serif" font-size="10.00">RefractionAndAbsorption</text>
</a>
</g>
</g>
<!-- Node5&#45;&gt;Node8 -->
<g id="edge10" class="edge">
<title>Node5&#45;&gt;Node8</title>
<path fill="none" stroke="midnightblue" d="M444.54,-48.72C454.01,-39.2 467.1,-27.56 477.31,-19.75"/>
<polygon fill="midnightblue" stroke="midnightblue" points="441.9,-46.41 437.58,-56.08 446.99,-51.22 441.9,-46.41"/>
</g>
<!-- Node5&#45;&gt;Node8 -->
<g id="edge11" class="edge">
<title>Node5&#45;&gt;Node8</title>
<path fill="none" stroke="midnightblue" d="M455.72,-49.82C467.36,-40.15 480.36,-27.95 487.5,-19.83"/>
<polygon fill="midnightblue" stroke="midnightblue" points="453.22,-47.34 447.59,-56.32 457.59,-52.81 453.22,-47.34"/>
</g>
<!-- Node9 -->
<g id="node9" class="node">
<title>Node9</title>
<g id="a_node9"><a xlink:href="class_refraction_only.html" target="_top" xlink:title="Materials only with refractive index defined.">
<polygon fill="white" stroke="black" points="579.5,-0.5 579.5,-19.5 668.5,-19.5 668.5,-0.5 579.5,-0.5"/>
<text text-anchor="middle" x="624" y="-7.5" font-family="Helvetica,sans-Serif" font-size="10.00">RefractionOnly</text>
</a>
</g>
</g>
<!-- Node5&#45;&gt;Node9 -->
<g id="edge12" class="edge">
<title>Node5&#45;&gt;Node9</title>
<path fill="none" stroke="midnightblue" d="M467.8,-53.57C502.18,-43.38 554.28,-28.7 588.8,-19.52"/>
<polygon fill="midnightblue" stroke="midnightblue" points="466.76,-50.23 458.18,-56.44 468.76,-56.94 466.76,-50.23"/>
</g>
<!-- Node5&#45;&gt;Node9 -->
<g id="edge13" class="edge">
<title>Node5&#45;&gt;Node9</title>
<path fill="none" stroke="midnightblue" d="M478.1,-53.83C515.87,-43.63 568.22,-28.78 598.96,-19.52"/>
<polygon fill="midnightblue" stroke="midnightblue" points="477.11,-50.47 468.35,-56.44 478.92,-57.23 477.11,-50.47"/>
</g>
</g>
</svg>
