<?xml version="1.0" encoding="UTF-8" standalone="no"?>
<!DOCTYPE svg PUBLIC "-//W3C//DTD SVG 1.1//EN"
 "http://www.w3.org/Graphics/SVG/1.1/DTD/svg11.dtd">
<!-- Generated by graphviz version 2.43.0 (0)
 -->
<!-- Title: OMSimDetectorConstruction Pages: 1 -->
<svg width="296pt" height="152pt"
 viewBox="0.00 0.00 296.00 152.00" xmlns="http://www.w3.org/2000/svg" xmlns:xlink="http://www.w3.org/1999/xlink">
<g id="graph0" class="graph" transform="scale(1 1) rotate(0) translate(4 148)">
<title>OMSimDetectorConstruction</title>
<!-- Node1 -->
<g id="node1" class="node">
<title>Node1</title>
<g id="a_node1"><a xlink:title="Class for detector construction in the effective area simulation.">
<polygon fill="#bfbfbf" stroke="black" points="50,-0.5 50,-19.5 205,-19.5 205,-0.5 50,-0.5"/>
<text text-anchor="middle" x="127.5" y="-7.5" font-family="Helvetica,sans-Serif" font-size="10.00">OMSimDetectorConstruction</text>
</a>
</g>
</g>
<!-- Node2 -->
<g id="node2" class="node">
<title>Node2</title>
<g id="a_node2"><a xlink:title=" ">
<polygon fill="none" stroke="#bfbfbf" points="0,-67.5 0,-86.5 163,-86.5 163,-67.5 0,-67.5"/>
<text text-anchor="middle" x="81.5" y="-74.5" font-family="Helvetica,sans-Serif" font-size="10.00">G4VUserDetectorConstruction</text>
</a>
</g>
</g>
<!-- Node2&#45;&gt;Node1 -->
<g id="edge1" class="edge">
<title>Node2&#45;&gt;Node1</title>
<path fill="none" stroke="midnightblue" d="M93.6,-58.9C102.54,-46.27 114.33,-29.6 121.39,-19.63"/>
<polygon fill="midnightblue" stroke="midnightblue" points="90.62,-57.05 87.7,-67.23 96.34,-61.09 90.62,-57.05"/>
</g>
<!-- Node3 -->
<g id="node3" class="node">
<title>Node3</title>
<g id="a_node3"><a xlink:href="class_input_data_manager.html" target="_top" xlink:title="Manages the input data, including parsing and storing material properties.">
<polygon fill="none" stroke="black" points="181,-67.5 181,-86.5 288,-86.5 288,-67.5 181,-67.5"/>
<text text-anchor="middle" x="234.5" y="-74.5" font-family="Helvetica,sans-Serif" font-size="10.00">InputDataManager</text>
</a>
</g>
</g>
<!-- Node3&#45;&gt;Node1 -->
<g id="edge2" class="edge">
<title>Node3&#45;&gt;Node1</title>
<path fill="none" stroke="#9a32cd" stroke-dasharray="5,2" d="M211.36,-61.94C190.17,-49.07 159.48,-30.43 141.7,-19.63"/>
<polygon fill="#9a32cd" stroke="#9a32cd" points="209.71,-65.03 220.07,-67.23 213.34,-59.05 209.71,-65.03"/>
<text text-anchor="middle" x="205" y="-41" font-family="Helvetica,sans-Serif" font-size="10.00"> mData</text>
</g>
<!-- Node4 -->
<g id="node4" class="node">
<title>Node4</title>
<g id="a_node4"><a xlink:href="class_parameter_table.html" target="_top" xlink:title="A utility class for managing JSON&#45;based data tables.">
<polygon fill="none" stroke="black" points="188.5,-124.5 188.5,-143.5 280.5,-143.5 280.5,-124.5 188.5,-124.5"/>
<text text-anchor="middle" x="234.5" y="-131.5" font-family="Helvetica,sans-Serif" font-size="10.00">ParameterTable</text>
</a>
</g>
</g>
<!-- Node4&#45;&gt;Node3 -->
<g id="edge3" class="edge">
<title>Node4&#45;&gt;Node3</title>
<path fill="none" stroke="midnightblue" d="M234.5,-114.12C234.5,-104.82 234.5,-94.06 234.5,-86.71"/>
<polygon fill="midnightblue" stroke="midnightblue" points="231,-114.41 234.5,-124.41 238,-114.41 231,-114.41"/>
</g>
</g>
</svg>
