<?xml version="1.0" encoding="UTF-8" standalone="no"?>
<!DOCTYPE svg PUBLIC "-//W3C//DTD SVG 1.1//EN"
 "http://www.w3.org/Graphics/SVG/1.1/DTD/svg11.dtd">
<!-- Generated by graphviz version 2.43.0 (0)
 -->
<!-- Title: mDOM Pages: 1 -->
<svg width="298pt" height="409pt"
 viewBox="0.00 0.00 298.00 409.00" xmlns="http://www.w3.org/2000/svg" xmlns:xlink="http://www.w3.org/1999/xlink">
<g id="graph0" class="graph" transform="scale(1 1) rotate(0) translate(4 405)">
<title>mDOM</title>
<polygon fill="white" stroke="transparent" points="-4,4 -4,-405 294,-405 294,4 -4,4"/>
<!-- Node1 -->
<g id="node1" class="node">
<title>Node1</title>
<g id="a_node1"><a xlink:title=" ">
<polygon fill="#bfbfbf" stroke="black" points="163,-67.5 163,-86.5 213,-86.5 213,-67.5 163,-67.5"/>
<text text-anchor="middle" x="188" y="-74.5" font-family="Helvetica,sans-Serif" font-size="10.00">mDOM</text>
</a>
</g>
</g>
<!-- Node7 -->
<g id="node7" class="node">
<title>Node7</title>
<g id="a_node7"><a xlink:href="classm_d_o_m_harness.html" target="_top" xlink:title=" ">
<polygon fill="white" stroke="black" points="177,-0.5 177,-19.5 267,-19.5 267,-0.5 177,-0.5"/>
<text text-anchor="middle" x="222" y="-7.5" font-family="Helvetica,sans-Serif" font-size="10.00">mDOMHarness</text>
</a>
</g>
</g>
<!-- Node1&#45;&gt;Node7 -->
<g id="edge10" class="edge">
<title>Node1&#45;&gt;Node7</title>
<path fill="none" stroke="#9a32cd" stroke-dasharray="5,2" d="M172.15,-59.45C167.58,-52.66 164.83,-44.81 169,-38 174.18,-29.55 182.93,-23.64 191.84,-19.55"/>
<polygon fill="#9a32cd" stroke="#9a32cd" points="169.52,-61.75 178.53,-67.32 174.96,-57.35 169.52,-61.75"/>
<text text-anchor="middle" x="184" y="-41" font-family="Helvetica,sans-Serif" font-size="10.00"> mOM</text>
</g>
<!-- Node2 -->
<g id="node2" class="node">
<title>Node2</title>
<g id="a_node2"><a xlink:href="class_o_m_sim_optical_module.html" target="_top" xlink:title="Base class for OMs works as interface.">
<polygon fill="white" stroke="black" points="49,-124.5 49,-143.5 171,-143.5 171,-124.5 49,-124.5"/>
<text text-anchor="middle" x="110" y="-131.5" font-family="Helvetica,sans-Serif" font-size="10.00">OMSimOpticalModule</text>
</a>
</g>
</g>
<!-- Node2&#45;&gt;Node1 -->
<g id="edge1" class="edge">
<title>Node2&#45;&gt;Node1</title>
<path fill="none" stroke="midnightblue" d="M130.51,-118.54C144.95,-108.35 163.79,-95.07 175.9,-86.53"/>
<polygon fill="midnightblue" stroke="midnightblue" points="128.34,-115.78 122.19,-124.41 132.38,-121.5 128.34,-115.78"/>
</g>
<!-- Node3 -->
<g id="node3" class="node">
<title>Node3</title>
<g id="a_node3"><a xlink:href="classabc_detector_component.html" target="_top" xlink:title="Abstract base class used for constructing detector components.">
<polygon fill="white" stroke="black" points="122,-257.5 122,-276.5 254,-276.5 254,-257.5 122,-257.5"/>
<text text-anchor="middle" x="188" y="-264.5" font-family="Helvetica,sans-Serif" font-size="10.00">abcDetectorComponent</text>
</a>
</g>
</g>
<!-- Node3&#45;&gt;Node2 -->
<g id="edge2" class="edge">
<title>Node3&#45;&gt;Node2</title>
<path fill="none" stroke="midnightblue" d="M184.34,-247.56C179.22,-225.42 168.19,-188.01 148,-162 142.14,-154.46 133.61,-148.13 126.12,-143.5"/>
<polygon fill="midnightblue" stroke="midnightblue" points="180.92,-248.31 186.44,-257.35 187.76,-246.84 180.92,-248.31"/>
</g>
<!-- Node6 -->
<g id="node6" class="node">
<title>Node6</title>
<g id="a_node6"><a xlink:href="class_o_m_sim_p_m_t_construction.html" target="_top" xlink:title=" ">
<polygon fill="white" stroke="black" points="0,-200.5 0,-219.5 134,-219.5 134,-200.5 0,-200.5"/>
<text text-anchor="middle" x="67" y="-207.5" font-family="Helvetica,sans-Serif" font-size="10.00">OMSimPMTConstruction</text>
</a>
</g>
</g>
<!-- Node3&#45;&gt;Node6 -->
<g id="edge6" class="edge">
<title>Node3&#45;&gt;Node6</title>
<path fill="none" stroke="midnightblue" d="M159.92,-253.23C137.12,-242.87 105.61,-228.55 85.77,-219.53"/>
<polygon fill="midnightblue" stroke="midnightblue" points="158.54,-256.45 169.09,-257.41 161.44,-250.08 158.54,-256.45"/>
</g>
<!-- Node3&#45;&gt;Node7 -->
<g id="edge9" class="edge">
<title>Node3&#45;&gt;Node7</title>
<path fill="none" stroke="midnightblue" d="M249.83,-254.28C271.25,-246.34 290,-233.08 290,-211 290,-211 290,-211 290,-76 290,-49.05 261.75,-29.84 241.67,-19.59"/>
<polygon fill="midnightblue" stroke="midnightblue" points="248.59,-251 240.2,-257.47 250.79,-257.65 248.59,-251"/>
</g>
<!-- Node8 -->
<g id="node8" class="node">
<title>Node8</title>
<g id="a_node8"><a xlink:href="classm_d_o_m_flasher.html" target="_top" xlink:title="The mDOMFlasher class represents the 10 flashers in an mDOM optical module.">
<polygon fill="white" stroke="black" points="177,-162.5 177,-181.5 263,-181.5 263,-162.5 177,-162.5"/>
<text text-anchor="middle" x="220" y="-169.5" font-family="Helvetica,sans-Serif" font-size="10.00">mDOMFlasher</text>
</a>
</g>
</g>
<!-- Node3&#45;&gt;Node8 -->
<g id="edge12" class="edge">
<title>Node3&#45;&gt;Node8</title>
<path fill="none" stroke="midnightblue" d="M194.23,-247.9C201.11,-227.91 211.89,-196.56 217.05,-181.56"/>
<polygon fill="midnightblue" stroke="midnightblue" points="190.9,-246.82 190.95,-257.42 197.52,-249.1 190.9,-246.82"/>
</g>
<!-- Node4 -->
<g id="node4" class="node">
<title>Node4</title>
<g id="a_node4"><a xlink:href="class_input_data_manager.html" target="_top" xlink:title="Manages the input data, including parsing and storing material properties.">
<polygon fill="white" stroke="black" points="29.5,-324.5 29.5,-343.5 136.5,-343.5 136.5,-324.5 29.5,-324.5"/>
<text text-anchor="middle" x="83" y="-331.5" font-family="Helvetica,sans-Serif" font-size="10.00">InputDataManager</text>
</a>
</g>
</g>
<!-- Node4&#45;&gt;Node3 -->
<g id="edge3" class="edge">
<title>Node4&#45;&gt;Node3</title>
<path fill="none" stroke="#9a32cd" stroke-dasharray="5,2" d="M105.71,-318.94C126.5,-306.07 156.62,-287.43 174.06,-276.63"/>
<polygon fill="#9a32cd" stroke="#9a32cd" points="103.82,-315.99 97.16,-324.23 107.51,-321.95 103.82,-315.99"/>
<text text-anchor="middle" x="160.5" y="-298" font-family="Helvetica,sans-Serif" font-size="10.00"> mData</text>
</g>
<!-- Node4&#45;&gt;Node6 -->
<g id="edge7" class="edge">
<title>Node4&#45;&gt;Node6</title>
<path fill="none" stroke="#9a32cd" stroke-dasharray="5,2" d="M80.53,-314.19C77.02,-287.4 70.71,-239.31 68.14,-219.69"/>
<polygon fill="#9a32cd" stroke="#9a32cd" points="77.08,-314.77 81.85,-324.23 84.02,-313.86 77.08,-314.77"/>
<text text-anchor="middle" x="94.5" y="-264.5" font-family="Helvetica,sans-Serif" font-size="10.00"> mData</text>
</g>
<!-- Node5 -->
<g id="node5" class="node">
<title>Node5</title>
<g id="a_node5"><a xlink:href="class_parameter_table.html" target="_top" xlink:title="A utility class for managing JSON&#45;based data tables.">
<polygon fill="white" stroke="black" points="37,-381.5 37,-400.5 129,-400.5 129,-381.5 37,-381.5"/>
<text text-anchor="middle" x="83" y="-388.5" font-family="Helvetica,sans-Serif" font-size="10.00">ParameterTable</text>
</a>
</g>
</g>
<!-- Node5&#45;&gt;Node4 -->
<g id="edge4" class="edge">
<title>Node5&#45;&gt;Node4</title>
<path fill="none" stroke="midnightblue" d="M83,-371.12C83,-361.82 83,-351.06 83,-343.71"/>
<polygon fill="midnightblue" stroke="midnightblue" points="79.5,-371.41 83,-381.41 86.5,-371.41 79.5,-371.41"/>
</g>
<!-- Node6&#45;&gt;Node2 -->
<g id="edge5" class="edge">
<title>Node6&#45;&gt;Node2</title>
<path fill="none" stroke="#9a32cd" stroke-dasharray="5,2" d="M65.01,-190.37C64.9,-181.26 66.1,-170.46 71,-162 75.54,-154.16 83.38,-148.07 90.84,-143.68"/>
<polygon fill="#9a32cd" stroke="#9a32cd" points="61.52,-190.62 65.65,-200.38 68.51,-190.18 61.52,-190.62"/>
<text text-anchor="middle" x="109.5" y="-169.5" font-family="Helvetica,sans-Serif" font-size="10.00"> mPMTManager</text>
</g>
<!-- Node7&#45;&gt;Node1 -->
<g id="edge8" class="edge">
<title>Node7&#45;&gt;Node1</title>
<path fill="none" stroke="#9a32cd" stroke-dasharray="5,2" d="M212.76,-28.66C206.22,-41.16 197.73,-57.39 192.59,-67.23"/>
<polygon fill="#9a32cd" stroke="#9a32cd" points="215.95,-30.11 217.49,-19.63 209.75,-26.87 215.95,-30.11"/>
<text text-anchor="middle" x="234.5" y="-41" font-family="Helvetica,sans-Serif" font-size="10.00"> mHarness</text>
</g>
<!-- Node8&#45;&gt;Node1 -->
<g id="edge11" class="edge">
<title>Node8&#45;&gt;Node1</title>
<path fill="none" stroke="#9a32cd" stroke-dasharray="5,2" d="M213.77,-152.9C206.89,-132.91 196.11,-101.56 190.95,-86.56"/>
<polygon fill="#9a32cd" stroke="#9a32cd" points="210.48,-154.1 217.05,-162.42 217.1,-151.82 210.48,-154.1"/>
<text text-anchor="middle" x="238.5" y="-131.5" font-family="Helvetica,sans-Serif" font-size="10.00"> mFlashers</text>
</g>
</g>
</svg>
