<?xml version="1.0" encoding="UTF-8" standalone="no"?>
<!DOCTYPE svg PUBLIC "-//W3C//DTD SVG 1.1//EN"
 "http://www.w3.org/Graphics/SVG/1.1/DTD/svg11.dtd">
<!-- Generated by graphviz version 2.43.0 (0)
 -->
<!-- Title: CADMesh::File::Lexer Pages: 1 -->
<svg width="315pt" height="159pt"
 viewBox="0.00 0.00 314.50 159.00" xmlns="http://www.w3.org/2000/svg" xmlns:xlink="http://www.w3.org/1999/xlink">
<g id="graph0" class="graph" transform="scale(1 1) rotate(0) translate(4 155)">
<title>CADMesh::File::Lexer</title>
<!-- Node1 -->
<g id="Node000001" class="node">
<title>Node1</title>
<g id="a_Node000001"><a xlink:title=" ">
<polygon fill="#999999" stroke="#666666" points="147,-19 28,-19 28,0 147,0 147,-19"/>
<text text-anchor="middle" x="87.5" y="-7" font-family="Helvetica,sans-Serif" font-size="10.00">CADMesh::File::Lexer</text>
</a>
</g>
</g>
<!-- Node2 -->
<g id="Node000002" class="node">
<title>Node2</title>
<g id="a_Node000002"><a xlink:href="struct_c_a_d_mesh_1_1_file_1_1_state.html" target="_top" xlink:title=" ">
<polygon fill="white" stroke="#bfbfbf" points="119,-85 0,-85 0,-66 119,-66 119,-85"/>
<text text-anchor="middle" x="59.5" y="-73" font-family="Helvetica,sans-Serif" font-size="10.00">CADMesh::File::State</text>
</a>
</g>
</g>
<!-- Node2&#45;&gt;Node1 -->
<g id="edge1_Node000001_Node000002" class="edge">
<title>Node2&#45;&gt;Node1</title>
<g id="a_edge1_Node000001_Node000002"><a xlink:title=" ">
<path fill="none" stroke="#9a32cd" stroke-dasharray="5,2" d="M67.29,-56.68C72.6,-44.55 79.4,-29.01 83.6,-19.41"/>
<polygon fill="#9a32cd" stroke="#9a32cd" points="64.08,-55.3 63.28,-65.87 70.49,-58.11 64.08,-55.3"/>
</a>
</g>
<text text-anchor="middle" x="92.5" y="-40" font-family="Helvetica,sans-Serif" font-size="10.00" fill="grey"> state_</text>
</g>
<!-- Node3 -->
<g id="Node000003" class="node">
<title>Node3</title>
<g id="a_Node000003"><a xlink:href="struct_c_a_d_mesh_1_1_file_1_1_item.html" target="_top" xlink:title=" ">
<polygon fill="white" stroke="#bfbfbf" points="253.5,-85 137.5,-85 137.5,-66 253.5,-66 253.5,-85"/>
<text text-anchor="middle" x="195.5" y="-73" font-family="Helvetica,sans-Serif" font-size="10.00">CADMesh::File::Item</text>
</a>
</g>
</g>
<!-- Node3&#45;&gt;Node1 -->
<g id="edge2_Node000001_Node000003" class="edge">
<title>Node3&#45;&gt;Node1</title>
<g id="a_edge2_Node000001_Node000003"><a xlink:title=" ">
<path fill="none" stroke="#9a32cd" stroke-dasharray="5,2" d="M172.2,-60.69C150.94,-48.09 120.19,-29.87 102.18,-19.2"/>
<polygon fill="#9a32cd" stroke="#9a32cd" points="170.55,-63.78 180.93,-65.87 174.12,-57.76 170.55,-63.78"/>
</a>
</g>
<text text-anchor="middle" x="181.5" y="-40" font-family="Helvetica,sans-Serif" font-size="10.00" fill="grey"> parent_item_</text>
</g>
<!-- Node3&#45;&gt;Node3 -->
<g id="edge4_Node000003_Node000003" class="edge">
<title>Node3&#45;&gt;Node3</title>
<g id="a_edge4_Node000003_Node000003"><a xlink:title=" ">
<path fill="none" stroke="#9a32cd" stroke-dasharray="5,2" d="M263.98,-79.84C268.66,-78.84 271.5,-77.39 271.5,-75.5 271.5,-72.47 264.23,-70.59 253.81,-69.85"/>
<polygon fill="#9a32cd" stroke="#9a32cd" points="263.28,-76.4 253.81,-81.15 264.18,-83.34 263.28,-76.4"/>
</a>
</g>
<text text-anchor="middle" x="289" y="-73" font-family="Helvetica,sans-Serif" font-size="10.00" fill="grey"> parent</text>
</g>
<!-- Node4 -->
<g id="Node000004" class="node">
<title>Node4</title>
<g id="a_Node000004"><a xlink:href="struct_c_a_d_mesh_1_1_file_1_1_token.html" target="_top" xlink:title=" ">
<polygon fill="white" stroke="#bfbfbf" points="256,-151 135,-151 135,-132 256,-132 256,-151"/>
<text text-anchor="middle" x="195.5" y="-139" font-family="Helvetica,sans-Serif" font-size="10.00">CADMesh::File::Token</text>
</a>
</g>
</g>
<!-- Node4&#45;&gt;Node3 -->
<g id="edge3_Node000003_Node000004" class="edge">
<title>Node4&#45;&gt;Node3</title>
<g id="a_edge3_Node000003_Node000004"><a xlink:title=" ">
<path fill="none" stroke="#9a32cd" stroke-dasharray="5,2" d="M195.5,-121.58C195.5,-109.63 195.5,-94.72 195.5,-85.41"/>
<polygon fill="#9a32cd" stroke="#9a32cd" points="192,-121.87 195.5,-131.87 199,-121.87 192,-121.87"/>
</a>
</g>
<text text-anchor="middle" x="211" y="-106" font-family="Helvetica,sans-Serif" font-size="10.00" fill="grey"> token</text>
</g>
</g>
</svg>
