<?xml version="1.0" encoding="UTF-8" standalone="no"?>
<!DOCTYPE svg PUBLIC "-//W3C//DTD SVG 1.1//EN"
 "http://www.w3.org/Graphics/SVG/1.1/DTD/svg11.dtd">
<!-- Generated by graphviz version 2.43.0 (0)
 -->
<!-- Title: OMSimIBD Pages: 1 -->
<svg width="527pt" height="171pt"
 viewBox="0.00 0.00 526.50 171.00" xmlns="http://www.w3.org/2000/svg" xmlns:xlink="http://www.w3.org/1999/xlink">
<g id="graph0" class="graph" transform="scale(1 1) rotate(0) translate(4 167)">
<title>OMSimIBD</title>
<!-- Node1 -->
<g id="Node000001" class="node">
<title>Node1</title>
<g id="a_Node000001"><a xlink:title="Class in charge of generating positrons from IBD of supernova antineutrino interactions.">
<polygon fill="#999999" stroke="#666666" points="275,-19 206,-19 206,0 275,0 275,-19"/>
<text text-anchor="middle" x="240.5" y="-7" font-family="Helvetica,sans-Serif" font-size="10.00">OMSimIBD</text>
</a>
</g>
</g>
<!-- Node2 -->
<g id="Node000002" class="node">
<title>Node2</title>
<g id="a_Node000002"><a xlink:href="class_s_n_base_particle_generator.html" target="_top" xlink:title=" ">
<polygon fill="white" stroke="#bfbfbf" points="310,-75 171,-75 171,-56 310,-56 310,-75"/>
<text text-anchor="middle" x="240.5" y="-63" font-family="Helvetica,sans-Serif" font-size="10.00">SNBaseParticleGenerator</text>
</a>
</g>
</g>
<!-- Node2&#45;&gt;Node1 -->
<g id="edge1_Node000001_Node000002" class="edge">
<title>Node2&#45;&gt;Node1</title>
<g id="a_edge1_Node000001_Node000002"><a xlink:title=" ">
<path fill="none" stroke="#63b8ff" d="M240.5,-45.3C240.5,-36.41 240.5,-26.28 240.5,-19.25"/>
<polygon fill="#63b8ff" stroke="#63b8ff" points="237,-45.58 240.5,-55.58 244,-45.58 237,-45.58"/>
</a>
</g>
</g>
<!-- Node3 -->
<g id="Node000003" class="node">
<title>Node3</title>
<g id="a_Node000003"><a xlink:title=" ">
<polygon fill="white" stroke="#bfbfbf" points="177,-163 0,-163 0,-144 177,-144 177,-163"/>
<text text-anchor="middle" x="88.5" y="-151" font-family="Helvetica,sans-Serif" font-size="10.00">G4VUserPrimaryGeneratorAction</text>
</a>
</g>
</g>
<!-- Node3&#45;&gt;Node2 -->
<g id="edge2_Node000002_Node000003" class="edge">
<title>Node3&#45;&gt;Node2</title>
<g id="a_edge2_Node000002_Node000003"><a xlink:title=" ">
<path fill="none" stroke="#63b8ff" d="M112.68,-138.82C144.38,-120.88 199.07,-89.94 225.43,-75.03"/>
<polygon fill="#63b8ff" stroke="#63b8ff" points="110.61,-135.97 103.63,-143.94 114.06,-142.06 110.61,-135.97"/>
</a>
</g>
</g>
<!-- Node4 -->
<g id="Node000004" class="node">
<title>Node4</title>
<g id="a_Node000004"><a xlink:href="class_o_m_sim_s_n_tools.html" target="_top" xlink:title="Provides utility methods for generating ENES and IBD interactions.">
<polygon fill="white" stroke="#666666" points="285.5,-163 195.5,-163 195.5,-144 285.5,-144 285.5,-163"/>
<text text-anchor="middle" x="240.5" y="-151" font-family="Helvetica,sans-Serif" font-size="10.00">OMSimSNTools</text>
</a>
</g>
</g>
<!-- Node4&#45;&gt;Node2 -->
<g id="edge3_Node000002_Node000004" class="edge">
<title>Node4&#45;&gt;Node2</title>
<g id="a_edge3_Node000002_Node000004"><a xlink:title=" ">
<path fill="none" stroke="#9a32cd" stroke-dasharray="5,2" d="M240.5,-133.91C240.5,-115.67 240.5,-88.65 240.5,-75.03"/>
<polygon fill="#9a32cd" stroke="#9a32cd" points="237,-133.94 240.5,-143.94 244,-133.94 237,-133.94"/>
</a>
</g>
<text text-anchor="middle" x="275.5" y="-107" font-family="Helvetica,sans-Serif" font-size="10.00" fill="grey"> m_SNToolBox</text>
</g>
<!-- Node5 -->
<g id="Node000005" class="node">
<title>Node5</title>
<g id="a_Node000005"><a xlink:href="class_distribution_sampler.html" target="_top" xlink:title="Utility class for sampling from a given distribution using the inverse cumulative function and interp...">
<polygon fill="white" stroke="#666666" points="417.5,-163 303.5,-163 303.5,-144 417.5,-144 417.5,-163"/>
<text text-anchor="middle" x="360.5" y="-151" font-family="Helvetica,sans-Serif" font-size="10.00">DistributionSampler</text>
</a>
</g>
</g>
<!-- Node5&#45;&gt;Node2 -->
<g id="edge4_Node000002_Node000005" class="edge">
<title>Node5&#45;&gt;Node2</title>
<g id="a_edge4_Node000002_Node000005"><a xlink:title=" ">
<path fill="none" stroke="#9a32cd" stroke-dasharray="5,2" d="M350.94,-135.31C342.8,-122.09 329.97,-104.24 314.5,-93 303.46,-84.98 289.75,-79.18 277.15,-75.09"/>
<polygon fill="#9a32cd" stroke="#9a32cd" points="347.93,-137.11 356.01,-143.96 353.97,-133.56 347.93,-137.11"/>
</a>
</g>
<text text-anchor="middle" x="431.5" y="-118" font-family="Helvetica,sans-Serif" font-size="10.00" fill="grey"> m_meanEnergyDistribution</text>
<text text-anchor="middle" x="431.5" y="-107" font-family="Helvetica,sans-Serif" font-size="10.00" fill="grey">m_meanEnergySquaredDistribution</text>
<text text-anchor="middle" x="431.5" y="-96" font-family="Helvetica,sans-Serif" font-size="10.00" fill="grey">m_timeDistribution</text>
</g>
</g>
</svg>
