<?xml version="1.0" encoding="UTF-8" standalone="no"?>
<!DOCTYPE svg PUBLIC "-//W3C//DTD SVG 1.1//EN"
 "http://www.w3.org/Graphics/SVG/1.1/DTD/svg11.dtd">
<!-- Generated by graphviz version 2.43.0 (0)
 -->
<!-- Title: DEGG Pages: 1 -->
<svg width="183pt" height="400pt"
 viewBox="0.00 0.00 182.74 400.00" xmlns="http://www.w3.org/2000/svg" xmlns:xlink="http://www.w3.org/1999/xlink">
<g id="graph0" class="graph" transform="scale(1 1) rotate(0) translate(4 396)">
<title>DEGG</title>
<!-- Node1 -->
<g id="node1" class="node">
<title>Node1</title>
<g id="a_node1"><a xlink:title="Construction of the DEGG detector geometry.">
<polygon fill="#bfbfbf" stroke="black" points="44.24,-67.5 44.24,-86.5 89.24,-86.5 89.24,-67.5 44.24,-67.5"/>
<text text-anchor="middle" x="66.74" y="-74.5" font-family="Helvetica,sans-Serif" font-size="10.00">DEGG</text>
</a>
</g>
</g>
<!-- Node7 -->
<g id="node7" class="node">
<title>Node7</title>
<g id="a_node7"><a xlink:href="class_d_egg_harness.html" target="_top" xlink:title=" ">
<polygon fill="none" stroke="black" points="65.74,-0.5 65.74,-19.5 147.74,-19.5 147.74,-0.5 65.74,-0.5"/>
<text text-anchor="middle" x="106.74" y="-7.5" font-family="Helvetica,sans-Serif" font-size="10.00">DEggHarness</text>
</a>
</g>
</g>
<!-- Node1&#45;&gt;Node7 -->
<g id="edge9" class="edge">
<title>Node1&#45;&gt;Node7</title>
<path fill="none" stroke="#9a32cd" stroke-dasharray="5,2" d="M52.67,-59.01C48.8,-52.22 46.65,-44.5 50.74,-38 56.07,-29.5 64.93,-23.61 74.03,-19.56"/>
<polygon fill="#9a32cd" stroke="#9a32cd" points="50,-61.28 58.6,-67.46 55.73,-57.27 50,-61.28"/>
<text text-anchor="middle" x="65.74" y="-41" font-family="Helvetica,sans-Serif" font-size="10.00"> mOM</text>
</g>
<!-- Node2 -->
<g id="node2" class="node">
<title>Node2</title>
<g id="a_node2"><a xlink:href="class_o_m_sim_optical_module.html" target="_top" xlink:title="Base class for OMs works as interface.">
<polygon fill="none" stroke="black" points="5.74,-124.5 5.74,-143.5 127.74,-143.5 127.74,-124.5 5.74,-124.5"/>
<text text-anchor="middle" x="66.74" y="-131.5" font-family="Helvetica,sans-Serif" font-size="10.00">OMSimOpticalModule</text>
</a>
</g>
</g>
<!-- Node2&#45;&gt;Node1 -->
<g id="edge1" class="edge">
<title>Node2&#45;&gt;Node1</title>
<path fill="none" stroke="midnightblue" d="M66.74,-114.12C66.74,-104.82 66.74,-94.06 66.74,-86.71"/>
<polygon fill="midnightblue" stroke="midnightblue" points="63.24,-114.41 66.74,-124.41 70.24,-114.41 63.24,-114.41"/>
</g>
<!-- Node3 -->
<g id="node3" class="node">
<title>Node3</title>
<g id="a_node3"><a xlink:href="classabc_detector_component.html" target="_top" xlink:title="Abstract base class used for constructing detector components.">
<polygon fill="none" stroke="black" points="13.74,-248.5 13.74,-267.5 145.74,-267.5 145.74,-248.5 13.74,-248.5"/>
<text text-anchor="middle" x="79.74" y="-255.5" font-family="Helvetica,sans-Serif" font-size="10.00">abcDetectorComponent</text>
</a>
</g>
</g>
<!-- Node3&#45;&gt;Node2 -->
<g id="edge2" class="edge">
<title>Node3&#45;&gt;Node2</title>
<path fill="none" stroke="midnightblue" d="M43.28,-244.27C28.23,-237.01 12.33,-226.24 3.74,-211 -11.58,-183.83 26.72,-156.88 50.15,-143.57"/>
<polygon fill="midnightblue" stroke="midnightblue" points="41.9,-247.49 52.46,-248.35 44.74,-241.1 41.9,-247.49"/>
</g>
<!-- Node6 -->
<g id="node6" class="node">
<title>Node6</title>
<g id="a_node6"><a xlink:href="class_o_m_sim_p_m_t_construction.html" target="_top" xlink:title=" ">
<polygon fill="none" stroke="black" points="12.74,-191.5 12.74,-210.5 146.74,-210.5 146.74,-191.5 12.74,-191.5"/>
<text text-anchor="middle" x="79.74" y="-198.5" font-family="Helvetica,sans-Serif" font-size="10.00">OMSimPMTConstruction</text>
</a>
</g>
</g>
<!-- Node3&#45;&gt;Node6 -->
<g id="edge6" class="edge">
<title>Node3&#45;&gt;Node6</title>
<path fill="none" stroke="midnightblue" d="M79.74,-238.12C79.74,-228.82 79.74,-218.06 79.74,-210.71"/>
<polygon fill="midnightblue" stroke="midnightblue" points="76.24,-238.41 79.74,-248.41 83.24,-238.41 76.24,-238.41"/>
</g>
<!-- Node3&#45;&gt;Node7 -->
<g id="edge8" class="edge">
<title>Node3&#45;&gt;Node7</title>
<path fill="none" stroke="midnightblue" d="M134.74,-245.16C155.74,-237.12 174.74,-223.82 174.74,-202 174.74,-202 174.74,-202 174.74,-76 174.74,-49.05 146.49,-29.84 126.4,-19.59"/>
<polygon fill="midnightblue" stroke="midnightblue" points="133.33,-241.94 125.01,-248.5 135.61,-248.56 133.33,-241.94"/>
</g>
<!-- Node4 -->
<g id="node4" class="node">
<title>Node4</title>
<g id="a_node4"><a xlink:href="class_o_m_sim_input_data.html" target="_top" xlink:title="Manages the input data, including parsing and storing material properties.">
<polygon fill="none" stroke="black" points="29.74,-315.5 29.74,-334.5 129.74,-334.5 129.74,-315.5 29.74,-315.5"/>
<text text-anchor="middle" x="79.74" y="-322.5" font-family="Helvetica,sans-Serif" font-size="10.00">OMSimInputData</text>
</a>
</g>
</g>
<!-- Node4&#45;&gt;Node3 -->
<g id="edge3" class="edge">
<title>Node4&#45;&gt;Node3</title>
<path fill="none" stroke="#9a32cd" stroke-dasharray="5,2" d="M79.74,-305.04C79.74,-292.67 79.74,-277.12 79.74,-267.63"/>
<polygon fill="#9a32cd" stroke="#9a32cd" points="76.24,-305.23 79.74,-315.23 83.24,-305.23 76.24,-305.23"/>
<text text-anchor="middle" x="98.24" y="-289" font-family="Helvetica,sans-Serif" font-size="10.00"> mData</text>
</g>
<!-- Node5 -->
<g id="node5" class="node">
<title>Node5</title>
<g id="a_node5"><a xlink:href="class_parameter_table.html" target="_top" xlink:title="A utility class for managing JSON&#45;based data tables.">
<polygon fill="none" stroke="black" points="33.74,-372.5 33.74,-391.5 125.74,-391.5 125.74,-372.5 33.74,-372.5"/>
<text text-anchor="middle" x="79.74" y="-379.5" font-family="Helvetica,sans-Serif" font-size="10.00">ParameterTable</text>
</a>
</g>
</g>
<!-- Node5&#45;&gt;Node4 -->
<g id="edge4" class="edge">
<title>Node5&#45;&gt;Node4</title>
<path fill="none" stroke="midnightblue" d="M79.74,-362.12C79.74,-352.82 79.74,-342.06 79.74,-334.71"/>
<polygon fill="midnightblue" stroke="midnightblue" points="76.24,-362.41 79.74,-372.41 83.24,-362.41 76.24,-362.41"/>
</g>
<!-- Node6&#45;&gt;Node2 -->
<g id="edge5" class="edge">
<title>Node6&#45;&gt;Node2</title>
<path fill="none" stroke="#9a32cd" stroke-dasharray="5,2" d="M76.02,-181.41C73.53,-168.99 70.38,-153.22 68.46,-143.63"/>
<polygon fill="#9a32cd" stroke="#9a32cd" points="72.59,-182.11 77.98,-191.23 79.45,-180.74 72.59,-182.11"/>
<text text-anchor="middle" x="113.24" y="-165" font-family="Helvetica,sans-Serif" font-size="10.00"> mPMTManager</text>
</g>
<!-- Node7&#45;&gt;Node1 -->
<g id="edge7" class="edge">
<title>Node7&#45;&gt;Node1</title>
<path fill="none" stroke="#9a32cd" stroke-dasharray="5,2" d="M97.05,-28.26C93.29,-34.81 88.9,-42.3 84.74,-49 80.93,-55.12 76.43,-61.87 72.88,-67.09"/>
<polygon fill="#9a32cd" stroke="#9a32cd" points="100.11,-29.97 101.99,-19.54 94.02,-26.51 100.11,-29.97"/>
<text text-anchor="middle" x="118.24" y="-41" font-family="Helvetica,sans-Serif" font-size="10.00"> mHarness</text>
</g>
</g>
</svg>
