<?xml version="1.0" encoding="UTF-8" standalone="no"?>
<!DOCTYPE svg PUBLIC "-//W3C//DTD SVG 1.1//EN"
 "http://www.w3.org/Graphics/SVG/1.1/DTD/svg11.dtd">
<!-- Generated by graphviz version 2.43.0 (0)
 -->
<!-- Title: OMSimTrackingAction Pages: 1 -->
<svg width="132pt" height="82pt"
 viewBox="0.00 0.00 132.00 82.00" xmlns="http://www.w3.org/2000/svg" xmlns:xlink="http://www.w3.org/1999/xlink">
<g id="graph0" class="graph" transform="scale(1 1) rotate(0) translate(4 78)">
<title>OMSimTrackingAction</title>
<!-- Node1 -->
<g id="Node000001" class="node">
<title>Node1</title>
<g id="a_Node000001"><a xlink:title="Tracks particle information for photon origin classification.">
<polygon fill="#999999" stroke="#666666" points="123.5,-19 0.5,-19 0.5,0 123.5,0 123.5,-19"/>
<text text-anchor="middle" x="62" y="-7" font-family="Helvetica,sans-Serif" font-size="10.00">OMSimTrackingAction</text>
</a>
</g>
</g>
<!-- Node2 -->
<g id="Node000002" class="node">
<title>Node2</title>
<g id="a_Node000002"><a xlink:title=" ">
<polygon fill="white" stroke="#bfbfbf" points="124,-74 0,-74 0,-55 124,-55 124,-74"/>
<text text-anchor="middle" x="62" y="-62" font-family="Helvetica,sans-Serif" font-size="10.00">G4UserTrackingAction</text>
</a>
</g>
</g>
<!-- Node2&#45;&gt;Node1 -->
<g id="edge1_Node000001_Node000002" class="edge">
<title>Node2&#45;&gt;Node1</title>
<g id="a_edge1_Node000001_Node000002"><a xlink:title=" ">
<path fill="none" stroke="#63b8ff" d="M55.51,-44.66C54.91,-35.93 55.36,-25.99 56.87,-19.09"/>
<polygon fill="#63b8ff" stroke="#63b8ff" points="52.06,-45.29 56.83,-54.75 59,-44.38 52.06,-45.29"/>
</a>
</g>
</g>
<!-- Node2&#45;&gt;Node1 -->
<g id="edge2_Node000001_Node000002" class="edge">
<title>Node2&#45;&gt;Node1</title>
<g id="a_edge2_Node000001_Node000002"><a xlink:title=" ">
<path fill="none" stroke="#63b8ff" d="M68.49,-44.66C69.09,-35.93 68.64,-25.99 67.13,-19.09"/>
<polygon fill="#63b8ff" stroke="#63b8ff" points="65,-44.38 67.17,-54.75 71.94,-45.29 65,-44.38"/>
</a>
</g>
</g>
</g>
</svg>
