<?xml version="1.0" encoding="UTF-8" standalone="no"?>
<!DOCTYPE svg PUBLIC "-//W3C//DTD SVG 1.1//EN"
 "http://www.w3.org/Graphics/SVG/1.1/DTD/svg11.dtd">
<!-- Generated by graphviz version 2.43.0 (0)
 -->
<!-- Title: LOM16Harness Pages: 1 -->
<svg width="321pt" height="327pt"
 viewBox="0.00 0.00 321.29 327.00" xmlns="http://www.w3.org/2000/svg" xmlns:xlink="http://www.w3.org/1999/xlink">
<g id="graph0" class="graph" transform="scale(1 1) rotate(0) translate(4 323)">
<title>LOM16Harness</title>
<!-- Node1 -->
<g id="Node000001" class="node">
<title>Node1</title>
<g id="a_Node000001"><a xlink:title=" ">
<polygon fill="#999999" stroke="#666666" points="108.29,-141 18.29,-141 18.29,-122 108.29,-122 108.29,-141"/>
<text text-anchor="middle" x="63.29" y="-129" font-family="Helvetica,sans-Serif" font-size="10.00">LOM16Harness</text>
</a>
</g>
</g>
<!-- Node5 -->
<g id="Node000005" class="node">
<title>Node5</title>
<g id="a_Node000005"><a xlink:href="class_l_o_m16.html" target="_top" xlink:title=" ">
<polygon fill="white" stroke="#bfbfbf" points="88.29,-19 38.29,-19 38.29,0 88.29,0 88.29,-19"/>
<text text-anchor="middle" x="63.29" y="-7" font-family="Helvetica,sans-Serif" font-size="10.00">LOM16</text>
</a>
</g>
</g>
<!-- Node1&#45;&gt;Node5 -->
<g id="edge9_Node000005_Node000001" class="edge">
<title>Node1&#45;&gt;Node5</title>
<g id="a_edge9_Node000005_Node000001"><a xlink:title=" ">
<path fill="none" stroke="#9a32cd" stroke-dasharray="5,2" d="M39.62,-116.23C25.93,-106.52 9.93,-92.29 2.29,-75 -8.37,-50.9 22.43,-30.21 44.05,-19.14"/>
<polygon fill="#9a32cd" stroke="#9a32cd" points="37.91,-119.3 48.17,-121.95 41.81,-113.48 37.91,-119.3"/>
</a>
</g>
<text text-anchor="middle" x="30.79" y="-63" font-family="Helvetica,sans-Serif" font-size="10.00" fill="grey"> m_harness</text>
</g>
<!-- Node2 -->
<g id="Node000002" class="node">
<title>Node2</title>
<g id="a_Node000002"><a xlink:href="class_o_m_sim_detector_component.html" target="_top" xlink:title="Abstract base class used for constructing detector components.">
<polygon fill="white" stroke="#666666" points="211.29,-197 61.29,-197 61.29,-178 211.29,-178 211.29,-197"/>
<text text-anchor="middle" x="136.29" y="-185" font-family="Helvetica,sans-Serif" font-size="10.00">OMSimDetectorComponent</text>
</a>
</g>
</g>
<!-- Node2&#45;&gt;Node1 -->
<g id="edge1_Node000001_Node000002" class="edge">
<title>Node2&#45;&gt;Node1</title>
<g id="a_edge1_Node000001_Node000002"><a xlink:title=" ">
<path fill="none" stroke="#63b8ff" d="M116.15,-171.6C103.01,-161.88 86.31,-149.53 75.23,-141.33"/>
<polygon fill="#63b8ff" stroke="#63b8ff" points="114.44,-174.69 124.56,-177.82 118.6,-169.06 114.44,-174.69"/>
</a>
</g>
</g>
<!-- Node6 -->
<g id="Node000006" class="node">
<title>Node6</title>
<g id="a_Node000006"><a xlink:href="class_o_m_sim_optical_module.html" target="_top" xlink:title="Base class for OMs works as interface.">
<polygon fill="white" stroke="#666666" points="291.29,-75 169.29,-75 169.29,-56 291.29,-56 291.29,-75"/>
<text text-anchor="middle" x="230.29" y="-63" font-family="Helvetica,sans-Serif" font-size="10.00">OMSimOpticalModule</text>
</a>
</g>
</g>
<!-- Node2&#45;&gt;Node6 -->
<g id="edge6_Node000006_Node000002" class="edge">
<title>Node2&#45;&gt;Node6</title>
<g id="a_edge6_Node000006_Node000002"><a xlink:title=" ">
<path fill="none" stroke="#63b8ff" d="M138.58,-167.66C140.97,-153.99 145.78,-135.6 155.29,-122 170.14,-100.76 195.72,-84.39 212.82,-75.1"/>
<polygon fill="#63b8ff" stroke="#63b8ff" points="135.07,-167.41 137.08,-177.81 142,-168.43 135.07,-167.41"/>
</a>
</g>
</g>
<!-- Node7 -->
<g id="Node000007" class="node">
<title>Node7</title>
<g id="a_Node000007"><a xlink:href="class_o_m_sim_p_m_t_construction.html" target="_top" xlink:title=" ">
<polygon fill="white" stroke="#bfbfbf" points="298.29,-141 164.29,-141 164.29,-122 298.29,-122 298.29,-141"/>
<text text-anchor="middle" x="231.29" y="-129" font-family="Helvetica,sans-Serif" font-size="10.00">OMSimPMTConstruction</text>
</a>
</g>
</g>
<!-- Node2&#45;&gt;Node7 -->
<g id="edge8_Node000007_Node000002" class="edge">
<title>Node2&#45;&gt;Node7</title>
<g id="a_edge8_Node000007_Node000002"><a xlink:title=" ">
<path fill="none" stroke="#63b8ff" d="M160.61,-172.68C178.09,-162.74 201.12,-149.65 216.06,-141.15"/>
<polygon fill="#63b8ff" stroke="#63b8ff" points="158.52,-169.84 151.55,-177.82 161.97,-175.93 158.52,-169.84"/>
</a>
</g>
</g>
<!-- Node3 -->
<g id="Node000003" class="node">
<title>Node3</title>
<g id="a_Node000003"><a xlink:href="class_o_m_sim_input_data.html" target="_top" xlink:title="Manages the input data, including parsing and storing material properties.">
<polygon fill="white" stroke="#666666" points="186.29,-263 86.29,-263 86.29,-244 186.29,-244 186.29,-263"/>
<text text-anchor="middle" x="136.29" y="-251" font-family="Helvetica,sans-Serif" font-size="10.00">OMSimInputData</text>
</a>
</g>
</g>
<!-- Node3&#45;&gt;Node2 -->
<g id="edge2_Node000002_Node000003" class="edge">
<title>Node3&#45;&gt;Node2</title>
<g id="a_edge2_Node000002_Node000003"><a xlink:title=" ">
<path fill="none" stroke="#9a32cd" stroke-dasharray="5,2" d="M136.29,-233.58C136.29,-221.63 136.29,-206.72 136.29,-197.41"/>
<polygon fill="#9a32cd" stroke="#9a32cd" points="132.79,-233.87 136.29,-243.87 139.79,-233.87 132.79,-233.87"/>
</a>
</g>
<text text-anchor="middle" x="156.29" y="-218" font-family="Helvetica,sans-Serif" font-size="10.00" fill="grey"> m_data</text>
</g>
<!-- Node4 -->
<g id="Node000004" class="node">
<title>Node4</title>
<g id="a_Node000004"><a xlink:href="class_parameter_table.html" target="_top" xlink:title="A utility class for managing JSON&#45;based data tables.">
<polygon fill="white" stroke="#666666" points="182.29,-319 90.29,-319 90.29,-300 182.29,-300 182.29,-319"/>
<text text-anchor="middle" x="136.29" y="-307" font-family="Helvetica,sans-Serif" font-size="10.00">ParameterTable</text>
</a>
</g>
</g>
<!-- Node4&#45;&gt;Node3 -->
<g id="edge3_Node000003_Node000004" class="edge">
<title>Node4&#45;&gt;Node3</title>
<g id="a_edge3_Node000003_Node000004"><a xlink:title=" ">
<path fill="none" stroke="#63b8ff" d="M136.29,-289.3C136.29,-280.41 136.29,-270.28 136.29,-263.25"/>
<polygon fill="#63b8ff" stroke="#63b8ff" points="132.79,-289.58 136.29,-299.58 139.79,-289.58 132.79,-289.58"/>
</a>
</g>
</g>
<!-- Node5&#45;&gt;Node1 -->
<g id="edge4_Node000001_Node000005" class="edge">
<title>Node5&#45;&gt;Node1</title>
<g id="a_edge4_Node000001_Node000005"><a xlink:title=" ">
<path fill="none" stroke="#9a32cd" stroke-dasharray="5,2" d="M63.29,-29.25C63.29,-55.61 63.29,-102.58 63.29,-121.87"/>
<polygon fill="#9a32cd" stroke="#9a32cd" points="66.79,-29.05 63.29,-19.05 59.79,-29.05 66.79,-29.05"/>
</a>
</g>
<text text-anchor="middle" x="107.29" y="-63" font-family="Helvetica,sans-Serif" font-size="10.00" fill="grey"> m_opticalModule</text>
</g>
<!-- Node6&#45;&gt;Node5 -->
<g id="edge5_Node000005_Node000006" class="edge">
<title>Node6&#45;&gt;Node5</title>
<g id="a_edge5_Node000005_Node000006"><a xlink:title=" ">
<path fill="none" stroke="#63b8ff" d="M194,-52.77C162.13,-42.46 116.59,-27.73 88.53,-18.66"/>
<polygon fill="#63b8ff" stroke="#63b8ff" points="193.23,-56.2 203.83,-55.94 195.39,-49.54 193.23,-56.2"/>
</a>
</g>
</g>
<!-- Node7&#45;&gt;Node6 -->
<g id="edge7_Node000006_Node000007" class="edge">
<title>Node7&#45;&gt;Node6</title>
<g id="a_edge7_Node000006_Node000007"><a xlink:title=" ">
<path fill="none" stroke="#9a32cd" stroke-dasharray="5,2" d="M230.99,-111.58C230.81,-99.63 230.57,-84.72 230.43,-75.41"/>
<polygon fill="#9a32cd" stroke="#9a32cd" points="227.5,-111.92 231.15,-121.87 234.5,-111.82 227.5,-111.92"/>
</a>
</g>
<text text-anchor="middle" x="271.79" y="-96" font-family="Helvetica,sans-Serif" font-size="10.00" fill="grey"> m_managerPMT</text>
</g>
</g>
</svg>
