<?xml version="1.0" encoding="UTF-8" standalone="no"?>
<!DOCTYPE svg PUBLIC "-//W3C//DTD SVG 1.1//EN"
 "http://www.w3.org/Graphics/SVG/1.1/DTD/svg11.dtd">
<!-- Generated by graphviz version 2.43.0 (0)
 -->
<!-- Title: OMSimOpticalModule Pages: 1 -->
<svg width="323pt" height="140pt"
 viewBox="0.00 0.00 323.00 140.00" xmlns="http://www.w3.org/2000/svg" xmlns:xlink="http://www.w3.org/1999/xlink">
<g id="graph0" class="graph" transform="scale(1 1) rotate(0) translate(4 136)">
<title>OMSimOpticalModule</title>
<!-- Node1 -->
<g id="node1" class="node">
<title>Node1</title>
<g id="a_node1"><a xlink:title="Base class for OMs works as interface.">
<polygon fill="#bfbfbf" stroke="black" points="95.5,-56.5 95.5,-75.5 217.5,-75.5 217.5,-56.5 95.5,-56.5"/>
<text text-anchor="middle" x="156.5" y="-63.5" font-family="Helvetica,sans-Serif" font-size="10.00">OMSimOpticalModule</text>
</a>
</g>
</g>
<!-- Node3 -->
<g id="node3" class="node">
<title>Node3</title>
<g id="a_node3"><a xlink:href="class_d_e_g_g.html" target="_top" xlink:title="Construction of the DEGG detector geometry.">
<polygon fill="none" stroke="black" points="0,-0.5 0,-19.5 45,-19.5 45,-0.5 0,-0.5"/>
<text text-anchor="middle" x="22.5" y="-7.5" font-family="Helvetica,sans-Serif" font-size="10.00">DEGG</text>
</a>
</g>
</g>
<!-- Node1&#45;&gt;Node3 -->
<g id="edge2" class="edge">
<title>Node1&#45;&gt;Node3</title>
<path fill="none" stroke="midnightblue" d="M125.82,-52.64C100.68,-42.5 65.75,-28.43 43.63,-19.52"/>
<polygon fill="midnightblue" stroke="midnightblue" points="124.68,-55.95 135.27,-56.44 127.3,-49.46 124.68,-55.95"/>
</g>
<!-- Node4 -->
<g id="node4" class="node">
<title>Node4</title>
<g id="a_node4"><a xlink:href="class_l_o_m16.html" target="_top" xlink:title=" ">
<polygon fill="none" stroke="black" points="63.5,-0.5 63.5,-19.5 113.5,-19.5 113.5,-0.5 63.5,-0.5"/>
<text text-anchor="middle" x="88.5" y="-7.5" font-family="Helvetica,sans-Serif" font-size="10.00">LOM16</text>
</a>
</g>
</g>
<!-- Node1&#45;&gt;Node4 -->
<g id="edge3" class="edge">
<title>Node1&#45;&gt;Node4</title>
<path fill="none" stroke="midnightblue" d="M137.74,-50.1C125.5,-40.38 109.94,-28.03 99.62,-19.83"/>
<polygon fill="midnightblue" stroke="midnightblue" points="135.57,-52.85 145.57,-56.32 139.92,-47.36 135.57,-52.85"/>
</g>
<!-- Node5 -->
<g id="node5" class="node">
<title>Node5</title>
<g id="a_node5"><a xlink:href="class_l_o_m18.html" target="_top" xlink:title=" ">
<polygon fill="none" stroke="black" points="131.5,-0.5 131.5,-19.5 181.5,-19.5 181.5,-0.5 131.5,-0.5"/>
<text text-anchor="middle" x="156.5" y="-7.5" font-family="Helvetica,sans-Serif" font-size="10.00">LOM18</text>
</a>
</g>
</g>
<!-- Node1&#45;&gt;Node5 -->
<g id="edge4" class="edge">
<title>Node1&#45;&gt;Node5</title>
<path fill="none" stroke="midnightblue" d="M156.5,-45.8C156.5,-36.91 156.5,-26.78 156.5,-19.75"/>
<polygon fill="midnightblue" stroke="midnightblue" points="153,-46.08 156.5,-56.08 160,-46.08 153,-46.08"/>
</g>
<!-- Node6 -->
<g id="node6" class="node">
<title>Node6</title>
<g id="a_node6"><a xlink:href="classm_d_o_m.html" target="_top" xlink:title=" ">
<polygon fill="none" stroke="black" points="199.5,-0.5 199.5,-19.5 249.5,-19.5 249.5,-0.5 199.5,-0.5"/>
<text text-anchor="middle" x="224.5" y="-7.5" font-family="Helvetica,sans-Serif" font-size="10.00">mDOM</text>
</a>
</g>
</g>
<!-- Node1&#45;&gt;Node6 -->
<g id="edge5" class="edge">
<title>Node1&#45;&gt;Node6</title>
<path fill="none" stroke="midnightblue" d="M175.26,-50.1C187.5,-40.38 203.06,-28.03 213.38,-19.83"/>
<polygon fill="midnightblue" stroke="midnightblue" points="173.08,-47.36 167.43,-56.32 177.43,-52.85 173.08,-47.36"/>
</g>
<!-- Node7 -->
<g id="node7" class="node">
<title>Node7</title>
<g id="a_node7"><a xlink:href="classp_d_o_m.html" target="_top" xlink:title="pDOM class represents the construction of pDOM/Gen1 DOM.">
<polygon fill="none" stroke="black" points="268,-0.5 268,-19.5 315,-19.5 315,-0.5 268,-0.5"/>
<text text-anchor="middle" x="291.5" y="-7.5" font-family="Helvetica,sans-Serif" font-size="10.00">pDOM</text>
</a>
</g>
</g>
<!-- Node1&#45;&gt;Node7 -->
<g id="edge6" class="edge">
<title>Node1&#45;&gt;Node7</title>
<path fill="none" stroke="midnightblue" d="M187.41,-52.64C212.74,-42.5 247.93,-28.43 270.21,-19.52"/>
<polygon fill="midnightblue" stroke="midnightblue" points="185.88,-49.48 177.89,-56.44 188.48,-55.98 185.88,-49.48"/>
</g>
<!-- Node2 -->
<g id="node2" class="node">
<title>Node2</title>
<g id="a_node2"><a xlink:href="class_o_m_sim_detector_component.html" target="_top" xlink:title="Abstract base class used for constructing detector components.">
<polygon fill="none" stroke="black" points="81.5,-112.5 81.5,-131.5 231.5,-131.5 231.5,-112.5 81.5,-112.5"/>
<text text-anchor="middle" x="156.5" y="-119.5" font-family="Helvetica,sans-Serif" font-size="10.00">OMSimDetectorComponent</text>
</a>
</g>
</g>
<!-- Node2&#45;&gt;Node1 -->
<g id="edge1" class="edge">
<title>Node2&#45;&gt;Node1</title>
<path fill="none" stroke="midnightblue" d="M156.5,-101.8C156.5,-92.91 156.5,-82.78 156.5,-75.75"/>
<polygon fill="midnightblue" stroke="midnightblue" points="153,-102.08 156.5,-112.08 160,-102.08 153,-102.08"/>
</g>
</g>
</svg>
