<?xml version="1.0" encoding="UTF-8" standalone="no"?>
<!DOCTYPE svg PUBLIC "-//W3C//DTD SVG 1.1//EN"
 "http://www.w3.org/Graphics/SVG/1.1/DTD/svg11.dtd">
<!-- Generated by graphviz version 2.43.0 (0)
 -->
<!-- Title: OMSimDetectorConstruction Pages: 1 -->
<svg width="458pt" height="140pt"
 viewBox="0.00 0.00 457.50 140.00" xmlns="http://www.w3.org/2000/svg" xmlns:xlink="http://www.w3.org/1999/xlink">
<g id="graph0" class="graph" transform="scale(1 1) rotate(0) translate(4 136)">
<title>OMSimDetectorConstruction</title>
<!-- Node1 -->
<g id="node1" class="node">
<title>Node1</title>
<g id="a_node1"><a xlink:title="Class for detector construction in the effective area simulation.">
<polygon fill="#bfbfbf" stroke="black" points="174,-56.5 174,-75.5 329,-75.5 329,-56.5 174,-56.5"/>
<text text-anchor="middle" x="251.5" y="-63.5" font-family="Helvetica,sans-Serif" font-size="10.00">OMSimDetectorConstruction</text>
</a>
</g>
</g>
<!-- Node3 -->
<g id="node3" class="node">
<title>Node3</title>
<g id="a_node3"><a xlink:href="class_o_m_sim_effective_area_detector.html" target="_top" xlink:title="Class for detector construction in the effective area simulation.">
<polygon fill="none" stroke="black" points="0,-0.5 0,-19.5 159,-19.5 159,-0.5 0,-0.5"/>
<text text-anchor="middle" x="79.5" y="-7.5" font-family="Helvetica,sans-Serif" font-size="10.00">OMSimEffectiveAreaDetector</text>
</a>
</g>
</g>
<!-- Node1&#45;&gt;Node3 -->
<g id="edge2" class="edge">
<title>Node1&#45;&gt;Node3</title>
<path fill="none" stroke="midnightblue" d="M214.67,-53.44C182.24,-43.26 135.76,-28.66 106.63,-19.52"/>
<polygon fill="midnightblue" stroke="midnightblue" points="213.66,-56.79 224.25,-56.44 215.75,-50.11 213.66,-56.79"/>
</g>
<!-- Node4 -->
<g id="node4" class="node">
<title>Node4</title>
<g id="a_node4"><a xlink:href="class_o_m_sim_rad_decays_detector.html" target="_top" xlink:title="Detector construction of radioactive decays simulation.">
<polygon fill="none" stroke="black" points="177,-0.5 177,-19.5 326,-19.5 326,-0.5 177,-0.5"/>
<text text-anchor="middle" x="251.5" y="-7.5" font-family="Helvetica,sans-Serif" font-size="10.00">OMSimRadDecaysDetector</text>
</a>
</g>
</g>
<!-- Node1&#45;&gt;Node4 -->
<g id="edge3" class="edge">
<title>Node1&#45;&gt;Node4</title>
<path fill="none" stroke="midnightblue" d="M251.5,-45.8C251.5,-36.91 251.5,-26.78 251.5,-19.75"/>
<polygon fill="midnightblue" stroke="midnightblue" points="248,-46.08 251.5,-56.08 255,-46.08 248,-46.08"/>
</g>
<!-- Node5 -->
<g id="node5" class="node">
<title>Node5</title>
<g id="a_node5"><a xlink:href="class_o_m_sim_s_ndetector.html" target="_top" xlink:title="Class for detector construction in the SN neutrino simulation.">
<polygon fill="none" stroke="black" points="343.5,-0.5 343.5,-19.5 449.5,-19.5 449.5,-0.5 343.5,-0.5"/>
<text text-anchor="middle" x="396.5" y="-7.5" font-family="Helvetica,sans-Serif" font-size="10.00">OMSimSNdetector</text>
</a>
</g>
</g>
<!-- Node1&#45;&gt;Node5 -->
<g id="edge4" class="edge">
<title>Node1&#45;&gt;Node5</title>
<path fill="none" stroke="midnightblue" d="M283.98,-52.91C311.24,-42.75 349.49,-28.51 373.63,-19.52"/>
<polygon fill="midnightblue" stroke="midnightblue" points="282.63,-49.67 274.48,-56.44 285.07,-56.23 282.63,-49.67"/>
</g>
<!-- Node2 -->
<g id="node2" class="node">
<title>Node2</title>
<g id="a_node2"><a xlink:title=" ">
<polygon fill="none" stroke="#bfbfbf" points="170,-112.5 170,-131.5 333,-131.5 333,-112.5 170,-112.5"/>
<text text-anchor="middle" x="251.5" y="-119.5" font-family="Helvetica,sans-Serif" font-size="10.00">G4VUserDetectorConstruction</text>
</a>
</g>
</g>
<!-- Node2&#45;&gt;Node1 -->
<g id="edge1" class="edge">
<title>Node2&#45;&gt;Node1</title>
<path fill="none" stroke="midnightblue" d="M251.5,-101.8C251.5,-92.91 251.5,-82.78 251.5,-75.75"/>
<polygon fill="midnightblue" stroke="midnightblue" points="248,-102.08 251.5,-112.08 255,-102.08 248,-102.08"/>
</g>
</g>
</svg>
