<?xml version="1.0" encoding="UTF-8" standalone="no"?>
<!DOCTYPE svg PUBLIC "-//W3C//DTD SVG 1.1//EN"
 "http://www.w3.org/Graphics/SVG/1.1/DTD/svg11.dtd">
<!-- Generated by graphviz version 2.43.0 (0)
 -->
<!-- Title: mDOMFlasher Pages: 1 -->
<svg width="158pt" height="209pt"
 viewBox="0.00 0.00 158.00 209.00" xmlns="http://www.w3.org/2000/svg" xmlns:xlink="http://www.w3.org/1999/xlink">
<g id="graph0" class="graph" transform="scale(1 1) rotate(0) translate(4 205)">
<title>mDOMFlasher</title>
<!-- Node1 -->
<g id="node1" class="node">
<title>Node1</title>
<g id="a_node1"><a xlink:title="The mDOMFlasher class represents the 10 flashers in an mDOM optical module.">
<polygon fill="#bfbfbf" stroke="black" points="32,-0.5 32,-19.5 118,-19.5 118,-0.5 32,-0.5"/>
<text text-anchor="middle" x="75" y="-7.5" font-family="Helvetica,sans-Serif" font-size="10.00">mDOMFlasher</text>
</a>
</g>
</g>
<!-- Node2 -->
<g id="node2" class="node">
<title>Node2</title>
<g id="a_node2"><a xlink:href="class_o_m_sim_detector_component.html" target="_top" xlink:title="Abstract base class used for constructing detector components.">
<polygon fill="none" stroke="black" points="0,-57.5 0,-76.5 150,-76.5 150,-57.5 0,-57.5"/>
<text text-anchor="middle" x="75" y="-64.5" font-family="Helvetica,sans-Serif" font-size="10.00">OMSimDetectorComponent</text>
</a>
</g>
</g>
<!-- Node2&#45;&gt;Node1 -->
<g id="edge1" class="edge">
<title>Node2&#45;&gt;Node1</title>
<path fill="none" stroke="midnightblue" d="M75,-47.12C75,-37.82 75,-27.06 75,-19.71"/>
<polygon fill="midnightblue" stroke="midnightblue" points="71.5,-47.41 75,-57.41 78.5,-47.41 71.5,-47.41"/>
</g>
<!-- Node3 -->
<g id="node3" class="node">
<title>Node3</title>
<g id="a_node3"><a xlink:href="class_o_m_sim_input_data.html" target="_top" xlink:title="Manages the input data, including parsing and storing material properties.">
<polygon fill="none" stroke="black" points="25,-124.5 25,-143.5 125,-143.5 125,-124.5 25,-124.5"/>
<text text-anchor="middle" x="75" y="-131.5" font-family="Helvetica,sans-Serif" font-size="10.00">OMSimInputData</text>
</a>
</g>
</g>
<!-- Node3&#45;&gt;Node2 -->
<g id="edge2" class="edge">
<title>Node3&#45;&gt;Node2</title>
<path fill="none" stroke="#9a32cd" stroke-dasharray="5,2" d="M75,-114.04C75,-101.67 75,-86.12 75,-76.63"/>
<polygon fill="#9a32cd" stroke="#9a32cd" points="71.5,-114.23 75,-124.23 78.5,-114.23 71.5,-114.23"/>
<text text-anchor="middle" x="95" y="-98" font-family="Helvetica,sans-Serif" font-size="10.00"> m_data</text>
</g>
<!-- Node4 -->
<g id="node4" class="node">
<title>Node4</title>
<g id="a_node4"><a xlink:href="class_parameter_table.html" target="_top" xlink:title="A utility class for managing JSON&#45;based data tables.">
<polygon fill="none" stroke="black" points="29,-181.5 29,-200.5 121,-200.5 121,-181.5 29,-181.5"/>
<text text-anchor="middle" x="75" y="-188.5" font-family="Helvetica,sans-Serif" font-size="10.00">ParameterTable</text>
</a>
</g>
</g>
<!-- Node4&#45;&gt;Node3 -->
<g id="edge3" class="edge">
<title>Node4&#45;&gt;Node3</title>
<path fill="none" stroke="midnightblue" d="M75,-171.12C75,-161.82 75,-151.06 75,-143.71"/>
<polygon fill="midnightblue" stroke="midnightblue" points="71.5,-171.41 75,-181.41 78.5,-171.41 71.5,-171.41"/>
</g>
</g>
</svg>
