<?xml version="1.0" encoding="UTF-8" standalone="no"?>
<!DOCTYPE svg PUBLIC "-//W3C//DTD SVG 1.1//EN"
 "http://www.w3.org/Graphics/SVG/1.1/DTD/svg11.dtd">
<!-- Generated by graphviz version 2.43.0 (0)
 -->
<!-- Title: OMSimDecaysAnalysis Pages: 1 -->
<svg width="215pt" height="93pt"
 viewBox="0.00 0.00 215.00 93.00" xmlns="http://www.w3.org/2000/svg" xmlns:xlink="http://www.w3.org/1999/xlink">
<g id="graph0" class="graph" transform="scale(1 1) rotate(0) translate(4 89)">
<title>OMSimDecaysAnalysis</title>
<!-- Node1 -->
<g id="Node000001" class="node">
<title>Node1</title>
<g id="a_Node000001"><a xlink:title="Singleton class responsible for managing, analysing, and saving decay&#45;related data.">
<polygon fill="#999999" stroke="#666666" points="129,-19 0,-19 0,0 129,0 129,-19"/>
<text text-anchor="middle" x="64.5" y="-7" font-family="Helvetica,sans-Serif" font-size="10.00">OMSimDecaysAnalysis</text>
</a>
</g>
</g>
<!-- Node1&#45;&gt;Node1 -->
<g id="edge2_Node000001_Node000001" class="edge">
<title>Node1&#45;&gt;Node1</title>
<g id="a_edge2_Node000001_Node000001"><a xlink:title=" ">
<path fill="none" stroke="#9a32cd" stroke-dasharray="5,2" d="M139.1,-13.79C144.02,-12.79 147,-11.36 147,-9.5 147,-6.59 139.74,-4.74 129.18,-3.95"/>
<polygon fill="#9a32cd" stroke="#9a32cd" points="138.66,-10.31 129.18,-15.05 139.54,-17.26 138.66,-10.31"/>
</a>
</g>
<text text-anchor="middle" x="177" y="-7" font-family="Helvetica,sans-Serif" font-size="10.00" fill="grey"> m_instance</text>
</g>
<!-- Node2 -->
<g id="Node000002" class="node">
<title>Node2</title>
<g id="a_Node000002"><a xlink:href="struct_decay_stats.html" target="_top" xlink:title="A structure to store information about decays.">
<polygon fill="white" stroke="#666666" points="100.5,-85 28.5,-85 28.5,-66 100.5,-66 100.5,-85"/>
<text text-anchor="middle" x="64.5" y="-73" font-family="Helvetica,sans-Serif" font-size="10.00">DecayStats</text>
</a>
</g>
</g>
<!-- Node2&#45;&gt;Node1 -->
<g id="edge1_Node000001_Node000002" class="edge">
<title>Node2&#45;&gt;Node1</title>
<g id="a_edge1_Node000001_Node000002"><a xlink:title=" ">
<path fill="none" stroke="#9a32cd" stroke-dasharray="5,2" d="M64.5,-55.58C64.5,-43.63 64.5,-28.72 64.5,-19.41"/>
<polygon fill="#9a32cd" stroke="#9a32cd" points="61,-55.87 64.5,-65.87 68,-55.87 61,-55.87"/>
</a>
</g>
<text text-anchor="middle" x="117.5" y="-40" font-family="Helvetica,sans-Serif" font-size="10.00" fill="grey"> m_threadDecayStats</text>
</g>
</g>
</svg>
