<?xml version="1.0" encoding="UTF-8" standalone="no"?>
<!DOCTYPE svg PUBLIC "-//W3C//DTD SVG 1.1//EN"
 "http://www.w3.org/Graphics/SVG/1.1/DTD/svg11.dtd">
<!-- Generated by graphviz version 2.43.0 (0)
 -->
<!-- Title: OMSimOpticalModule Pages: 1 -->
<svg width="236pt" height="276pt"
 viewBox="0.00 0.00 236.00 276.00" xmlns="http://www.w3.org/2000/svg" xmlns:xlink="http://www.w3.org/1999/xlink">
<g id="graph0" class="graph" transform="scale(1 1) rotate(0) translate(4 272)">
<title>OMSimOpticalModule</title>
<polygon fill="white" stroke="transparent" points="-4,4 -4,-272 232,-272 232,4 -4,4"/>
<!-- Node1 -->
<g id="node1" class="node">
<title>Node1</title>
<g id="a_node1"><a xlink:title="Base class for OMs works as interface.">
<polygon fill="#bfbfbf" stroke="black" points="21,-0.5 21,-19.5 143,-19.5 143,-0.5 21,-0.5"/>
<text text-anchor="middle" x="82" y="-7.5" font-family="Helvetica,sans-Serif" font-size="10.00">OMSimOpticalModule</text>
</a>
</g>
</g>
<!-- Node2 -->
<g id="node2" class="node">
<title>Node2</title>
<g id="a_node2"><a xlink:href="classabc_detector_component.html" target="_top" xlink:title="Abstract base class used for constructing detector components.">
<polygon fill="white" stroke="black" points="0,-124.5 0,-143.5 132,-143.5 132,-124.5 0,-124.5"/>
<text text-anchor="middle" x="66" y="-131.5" font-family="Helvetica,sans-Serif" font-size="10.00">abcDetectorComponent</text>
</a>
</g>
</g>
<!-- Node2&#45;&gt;Node1 -->
<g id="edge1" class="edge">
<title>Node2&#45;&gt;Node1</title>
<path fill="none" stroke="midnightblue" d="M68.47,-114.19C71.98,-87.4 78.29,-39.31 80.86,-19.69"/>
<polygon fill="midnightblue" stroke="midnightblue" points="64.98,-113.86 67.15,-124.23 71.92,-114.77 64.98,-113.86"/>
</g>
<!-- Node5 -->
<g id="node5" class="node">
<title>Node5</title>
<g id="a_node5"><a xlink:href="class_o_m_sim_p_m_t_construction.html" target="_top" xlink:title=" ">
<polygon fill="white" stroke="black" points="94,-67.5 94,-86.5 228,-86.5 228,-67.5 94,-67.5"/>
<text text-anchor="middle" x="161" y="-74.5" font-family="Helvetica,sans-Serif" font-size="10.00">OMSimPMTConstruction</text>
</a>
</g>
</g>
<!-- Node2&#45;&gt;Node5 -->
<g id="edge5" class="edge">
<title>Node2&#45;&gt;Node5</title>
<path fill="none" stroke="midnightblue" d="M89.5,-119.39C107.26,-109.11 131.1,-95.31 146.26,-86.53"/>
<polygon fill="midnightblue" stroke="midnightblue" points="87.74,-116.37 80.84,-124.41 91.25,-122.42 87.74,-116.37"/>
</g>
<!-- Node3 -->
<g id="node3" class="node">
<title>Node3</title>
<g id="a_node3"><a xlink:href="class_input_data_manager.html" target="_top" xlink:title="Manages the input data, including parsing and storing material properties.">
<polygon fill="white" stroke="black" points="63.5,-191.5 63.5,-210.5 170.5,-210.5 170.5,-191.5 63.5,-191.5"/>
<text text-anchor="middle" x="117" y="-198.5" font-family="Helvetica,sans-Serif" font-size="10.00">InputDataManager</text>
</a>
</g>
</g>
<!-- Node3&#45;&gt;Node2 -->
<g id="edge2" class="edge">
<title>Node3&#45;&gt;Node2</title>
<path fill="none" stroke="#9a32cd" stroke-dasharray="5,2" d="M103.87,-183.27C93.93,-170.6 80.67,-153.7 72.77,-143.63"/>
<polygon fill="#9a32cd" stroke="#9a32cd" points="101.2,-185.53 110.12,-191.23 106.7,-181.21 101.2,-185.53"/>
<text text-anchor="middle" x="113.5" y="-165" font-family="Helvetica,sans-Serif" font-size="10.00"> mData</text>
</g>
<!-- Node3&#45;&gt;Node5 -->
<g id="edge6" class="edge">
<title>Node3&#45;&gt;Node5</title>
<path fill="none" stroke="#9a32cd" stroke-dasharray="5,2" d="M130.23,-183.13C132.37,-179.89 134.4,-176.43 136,-173 149.95,-143 157.11,-103.91 159.77,-86.74"/>
<polygon fill="#9a32cd" stroke="#9a32cd" points="127.2,-181.34 124.18,-191.49 132.88,-185.44 127.2,-181.34"/>
<text text-anchor="middle" x="170.5" y="-131.5" font-family="Helvetica,sans-Serif" font-size="10.00"> mData</text>
</g>
<!-- Node4 -->
<g id="node4" class="node">
<title>Node4</title>
<g id="a_node4"><a xlink:href="class_parameter_table.html" target="_top" xlink:title="A utility class for managing JSON&#45;based data tables.">
<polygon fill="white" stroke="black" points="71,-248.5 71,-267.5 163,-267.5 163,-248.5 71,-248.5"/>
<text text-anchor="middle" x="117" y="-255.5" font-family="Helvetica,sans-Serif" font-size="10.00">ParameterTable</text>
</a>
</g>
</g>
<!-- Node4&#45;&gt;Node3 -->
<g id="edge3" class="edge">
<title>Node4&#45;&gt;Node3</title>
<path fill="none" stroke="midnightblue" d="M117,-238.12C117,-228.82 117,-218.06 117,-210.71"/>
<polygon fill="midnightblue" stroke="midnightblue" points="113.5,-238.41 117,-248.41 120.5,-238.41 113.5,-238.41"/>
</g>
<!-- Node5&#45;&gt;Node1 -->
<g id="edge4" class="edge">
<title>Node5&#45;&gt;Node1</title>
<path fill="none" stroke="#9a32cd" stroke-dasharray="5,2" d="M142.42,-60.71C126.86,-47.91 105.2,-30.09 92.49,-19.63"/>
<polygon fill="#9a32cd" stroke="#9a32cd" points="140.4,-63.58 150.35,-67.23 144.85,-58.18 140.4,-63.58"/>
<text text-anchor="middle" x="164.5" y="-41" font-family="Helvetica,sans-Serif" font-size="10.00"> mPMTManager</text>
</g>
</g>
</svg>
