<?xml version="1.0" encoding="UTF-8" standalone="no"?>
<!DOCTYPE svg PUBLIC "-//W3C//DTD SVG 1.1//EN"
 "http://www.w3.org/Graphics/SVG/1.1/DTD/svg11.dtd">
<!-- Generated by graphviz version 2.43.0 (0)
 -->
<!-- Title: OMSimSensitiveDetector Pages: 1 -->
<svg width="147pt" height="82pt"
 viewBox="0.00 0.00 147.00 82.00" xmlns="http://www.w3.org/2000/svg" xmlns:xlink="http://www.w3.org/1999/xlink">
<g id="graph0" class="graph" transform="scale(1 1) rotate(0) translate(4 78)">
<title>OMSimSensitiveDetector</title>
<!-- Node1 -->
<g id="Node000001" class="node">
<title>Node1</title>
<g id="a_Node000001"><a xlink:title="Represents a sensitive detector.">
<polygon fill="#999999" stroke="#666666" points="139,-19 0,-19 0,0 139,0 139,-19"/>
<text text-anchor="middle" x="69.5" y="-7" font-family="Helvetica,sans-Serif" font-size="10.00">OMSimSensitiveDetector</text>
</a>
</g>
</g>
<!-- Node2 -->
<g id="Node000002" class="node">
<title>Node2</title>
<g id="a_Node000002"><a xlink:title=" ">
<polygon fill="white" stroke="#bfbfbf" points="131.5,-74 7.5,-74 7.5,-55 131.5,-55 131.5,-74"/>
<text text-anchor="middle" x="69.5" y="-62" font-family="Helvetica,sans-Serif" font-size="10.00">G4VSensitiveDetector</text>
</a>
</g>
</g>
<!-- Node2&#45;&gt;Node1 -->
<g id="edge1_Node000001_Node000002" class="edge">
<title>Node2&#45;&gt;Node1</title>
<g id="a_edge1_Node000001_Node000002"><a xlink:title=" ">
<path fill="none" stroke="#63b8ff" d="M63.01,-44.66C62.41,-35.93 62.86,-25.99 64.37,-19.09"/>
<polygon fill="#63b8ff" stroke="#63b8ff" points="59.56,-45.29 64.33,-54.75 66.5,-44.38 59.56,-45.29"/>
</a>
</g>
</g>
<!-- Node2&#45;&gt;Node1 -->
<g id="edge2_Node000001_Node000002" class="edge">
<title>Node2&#45;&gt;Node1</title>
<g id="a_edge2_Node000001_Node000002"><a xlink:title=" ">
<path fill="none" stroke="#63b8ff" d="M75.99,-44.66C76.59,-35.93 76.14,-25.99 74.63,-19.09"/>
<polygon fill="#63b8ff" stroke="#63b8ff" points="72.5,-44.38 74.67,-54.75 79.44,-45.29 72.5,-44.38"/>
</a>
</g>
</g>
</g>
</svg>
