<?xml version="1.0" encoding="UTF-8" standalone="no"?>
<!DOCTYPE svg PUBLIC "-//W3C//DTD SVG 1.1//EN"
 "http://www.w3.org/Graphics/SVG/1.1/DTD/svg11.dtd">
<!-- Generated by graphviz version 2.43.0 (0)
 -->
<!-- Title: OMSimSensitiveDetector Pages: 1 -->
<svg width="416pt" height="149pt"
 viewBox="0.00 0.00 416.00 149.00" xmlns="http://www.w3.org/2000/svg" xmlns:xlink="http://www.w3.org/1999/xlink">
<g id="graph0" class="graph" transform="scale(1 1) rotate(0) translate(4 145)">
<title>OMSimSensitiveDetector</title>
<!-- Node1 -->
<g id="Node000001" class="node">
<title>Node1</title>
<g id="a_Node000001"><a xlink:title="Represents a sensitive detector.">
<polygon fill="#999999" stroke="#666666" points="236.5,-19 97.5,-19 97.5,0 236.5,0 236.5,-19"/>
<text text-anchor="middle" x="167" y="-7" font-family="Helvetica,sans-Serif" font-size="10.00">OMSimSensitiveDetector</text>
</a>
</g>
</g>
<!-- Node2 -->
<g id="Node000002" class="node">
<title>Node2</title>
<g id="a_Node000002"><a xlink:title=" ">
<polygon fill="white" stroke="#bfbfbf" points="124,-85 0,-85 0,-66 124,-66 124,-85"/>
<text text-anchor="middle" x="62" y="-73" font-family="Helvetica,sans-Serif" font-size="10.00">G4VSensitiveDetector</text>
</a>
</g>
</g>
<!-- Node2&#45;&gt;Node1 -->
<g id="edge1_Node000001_Node000002" class="edge">
<title>Node2&#45;&gt;Node1</title>
<g id="a_edge1_Node000001_Node000002"><a xlink:title=" ">
<path fill="none" stroke="#63b8ff" d="M79.76,-60.18C98.77,-47.61 128.42,-29.73 147.93,-19.2"/>
<polygon fill="#63b8ff" stroke="#63b8ff" points="77.68,-57.36 71.37,-65.87 81.61,-63.15 77.68,-57.36"/>
</a>
</g>
</g>
<!-- Node2&#45;&gt;Node1 -->
<g id="edge2_Node000001_Node000002" class="edge">
<title>Node2&#45;&gt;Node1</title>
<g id="a_edge2_Node000001_Node000002"><a xlink:title=" ">
<path fill="none" stroke="#63b8ff" d="M89.73,-61.03C112.15,-48.42 142.15,-29.97 157.53,-19.2"/>
<polygon fill="#63b8ff" stroke="#63b8ff" points="88.01,-57.97 80.95,-65.87 91.4,-64.1 88.01,-57.97"/>
</a>
</g>
</g>
<!-- Node3 -->
<g id="Node000003" class="node">
<title>Node3</title>
<g id="a_Node000003"><a xlink:href="class_o_m_sim_p_m_t_response.html" target="_top" xlink:title="Class to simulate PMT response.">
<polygon fill="white" stroke="#666666" points="262,-85 142,-85 142,-66 262,-66 262,-85"/>
<text text-anchor="middle" x="202" y="-73" font-family="Helvetica,sans-Serif" font-size="10.00">OMSimPMTResponse</text>
</a>
</g>
</g>
<!-- Node3&#45;&gt;Node1 -->
<g id="edge3_Node000001_Node000003" class="edge">
<title>Node3&#45;&gt;Node1</title>
<g id="a_edge3_Node000001_Node000003"><a xlink:title=" ">
<path fill="none" stroke="#9a32cd" stroke-dasharray="5,2" d="M192.46,-57.05C185.79,-44.86 177.17,-29.11 171.87,-19.41"/>
<polygon fill="#9a32cd" stroke="#9a32cd" points="189.41,-58.77 197.28,-65.87 195.55,-55.42 189.41,-58.77"/>
</a>
</g>
<text text-anchor="middle" x="229.5" y="-40" font-family="Helvetica,sans-Serif" font-size="10.00" fill="grey"> m_PMTResponse</text>
</g>
<!-- Node4 -->
<g id="Node000004" class="node">
<title>Node4</title>
<g id="a_Node000004"><a xlink:href="class_g4_op_boundary_process.html" target="_top" xlink:title=" ">
<polygon fill="white" stroke="#bfbfbf" points="408,-85 280,-85 280,-66 408,-66 408,-85"/>
<text text-anchor="middle" x="344" y="-73" font-family="Helvetica,sans-Serif" font-size="10.00">G4OpBoundaryProcess</text>
</a>
</g>
</g>
<!-- Node4&#45;&gt;Node1 -->
<g id="edge4_Node000001_Node000004" class="edge">
<title>Node4&#45;&gt;Node1</title>
<g id="a_edge4_Node000001_Node000004"><a xlink:title=" ">
<path fill="none" stroke="#9a32cd" stroke-dasharray="5,2" d="M322.64,-60.55C309.83,-52.71 292.98,-43.26 277,-37 257.15,-29.23 234.37,-23.28 214.71,-19.01"/>
<polygon fill="#9a32cd" stroke="#9a32cd" points="320.85,-63.56 331.18,-65.92 324.57,-57.63 320.85,-63.56"/>
</a>
</g>
<text text-anchor="middle" x="350" y="-40" font-family="Helvetica,sans-Serif" font-size="10.00" fill="grey"> m_boundaryProcess</text>
</g>
<!-- Node5 -->
<g id="Node000005" class="node">
<title>Node5</title>
<g id="a_Node000005"><a xlink:title=" ">
<polygon fill="white" stroke="#bfbfbf" points="401.5,-141 286.5,-141 286.5,-122 401.5,-122 401.5,-141"/>
<text text-anchor="middle" x="344" y="-129" font-family="Helvetica,sans-Serif" font-size="10.00">G4VDiscreteProcess</text>
</a>
</g>
</g>
<!-- Node5&#45;&gt;Node4 -->
<g id="edge5_Node000004_Node000005" class="edge">
<title>Node5&#45;&gt;Node4</title>
<g id="a_edge5_Node000004_Node000005"><a xlink:title=" ">
<path fill="none" stroke="#63b8ff" d="M344,-111.3C344,-102.41 344,-92.28 344,-85.25"/>
<polygon fill="#63b8ff" stroke="#63b8ff" points="340.5,-111.58 344,-121.58 347.5,-111.58 340.5,-111.58"/>
</a>
</g>
</g>
</g>
</svg>
