<?xml version="1.0" encoding="UTF-8" standalone="no"?>
<!DOCTYPE svg PUBLIC "-//W3C//DTD SVG 1.1//EN"
 "http://www.w3.org/Graphics/SVG/1.1/DTD/svg11.dtd">
<!-- Generated by graphviz version 2.43.0 (0)
 -->
<!-- Title: OMSim.hh Pages: 1 -->
<svg width="2414pt" height="423pt"
 viewBox="0.00 0.00 2414.00 423.00" xmlns="http://www.w3.org/2000/svg" xmlns:xlink="http://www.w3.org/1999/xlink">
<g id="graph0" class="graph" transform="scale(1 1) rotate(0) translate(4 419)">
<title>OMSim.hh</title>
<!-- Node1 -->
<g id="Node000001" class="node">
<title>Node1</title>
<g id="a_Node000001"><a xlink:title="Main simulation class for the Optical Module (OM) simulation. This file defines the OMSim class,...">
<polygon fill="#999999" stroke="#666666" points="1583.5,-415 1516.5,-415 1516.5,-396 1583.5,-396 1583.5,-415"/>
<text text-anchor="middle" x="1550" y="-403" font-family="Helvetica,sans-Serif" font-size="10.00">OMSim.hh</text>
</a>
</g>
</g>
<!-- Node2 -->
<g id="Node000002" class="node">
<title>Node2</title>
<g id="a_Node000002"><a xlink:href="_o_m_sim_detector_construction_8hh_source.html" target="_top" xlink:title=" ">
<polygon fill="white" stroke="#666666" points="1052,-360 882,-360 882,-341 1052,-341 1052,-360"/>
<text text-anchor="middle" x="967" y="-348" font-family="Helvetica,sans-Serif" font-size="10.00">OMSimDetectorConstruction.hh</text>
</a>
</g>
</g>
<!-- Node1&#45;&gt;Node2 -->
<g id="edge1_Node000001_Node000002" class="edge">
<title>Node1&#45;&gt;Node2</title>
<g id="a_edge1_Node000001_Node000002"><a xlink:title=" ">
<path fill="none" stroke="#63b8ff" d="M1516.14,-401.42C1429.09,-393.51 1195.1,-372.24 1062.35,-360.17"/>
<polygon fill="#63b8ff" stroke="#63b8ff" points="1062.46,-356.66 1052.19,-359.24 1061.83,-363.64 1062.46,-356.66"/>
</a>
</g>
</g>
<!-- Node36 -->
<g id="Node000036" class="node">
<title>Node36</title>
<g id="a_Node000036"><a xlink:title=" ">
<polygon fill="#e0e0e0" stroke="#999999" points="1191.5,-360 1070.5,-360 1070.5,-341 1191.5,-341 1191.5,-360"/>
<text text-anchor="middle" x="1131" y="-348" font-family="Helvetica,sans-Serif" font-size="10.00">OMSimPhysicsList.hh</text>
</a>
</g>
</g>
<!-- Node1&#45;&gt;Node36 -->
<g id="edge28_Node000001_Node000036" class="edge">
<title>Node1&#45;&gt;Node36</title>
<g id="a_edge28_Node000001_Node000036"><a xlink:title=" ">
<path fill="none" stroke="#63b8ff" d="M1516.42,-400.25C1448.38,-391.65 1292.98,-371.99 1201.64,-360.44"/>
<polygon fill="#63b8ff" stroke="#63b8ff" points="1202.01,-356.95 1191.65,-359.17 1201.13,-363.9 1202.01,-356.95"/>
</a>
</g>
</g>
<!-- Node37 -->
<g id="Node000037" class="node">
<title>Node37</title>
<g id="a_Node000037"><a xlink:title=" ">
<polygon fill="#e0e0e0" stroke="#999999" points="1394.5,-360 1209.5,-360 1209.5,-341 1394.5,-341 1394.5,-360"/>
<text text-anchor="middle" x="1302" y="-348" font-family="Helvetica,sans-Serif" font-size="10.00">OMSimPrimaryGeneratorAction.hh</text>
</a>
</g>
</g>
<!-- Node1&#45;&gt;Node37 -->
<g id="edge29_Node000001_Node000037" class="edge">
<title>Node1&#45;&gt;Node37</title>
<g id="a_edge29_Node000001_Node000037"><a xlink:title=" ">
<path fill="none" stroke="#63b8ff" d="M1516.3,-397.3C1473.89,-388.23 1400.7,-372.59 1351.82,-362.15"/>
<polygon fill="#63b8ff" stroke="#63b8ff" points="1352.29,-358.67 1341.78,-360 1350.83,-365.51 1352.29,-358.67"/>
</a>
</g>
</g>
<!-- Node38 -->
<g id="Node000038" class="node">
<title>Node38</title>
<g id="a_Node000038"><a xlink:href="common_2framework_2include_2_o_m_sim_run_action_8hh_source.html" target="_top" xlink:title=" ">
<polygon fill="white" stroke="#666666" points="663,-305 547,-305 547,-286 663,-286 663,-305"/>
<text text-anchor="middle" x="605" y="-293" font-family="Helvetica,sans-Serif" font-size="10.00">OMSimRunAction.hh</text>
</a>
</g>
</g>
<!-- Node1&#45;&gt;Node38 -->
<g id="edge30_Node000001_Node000038" class="edge">
<title>Node1&#45;&gt;Node38</title>
<g id="a_edge30_Node000001_Node000038"><a xlink:title=" ">
<path fill="none" stroke="#63b8ff" d="M1516.33,-404.27C1417.18,-403.17 1117.9,-396.8 873,-360 790.32,-347.58 695.57,-322.5 643.8,-307.85"/>
<polygon fill="#63b8ff" stroke="#63b8ff" points="644.61,-304.45 634.03,-305.07 642.69,-311.18 644.61,-304.45"/>
</a>
</g>
</g>
<!-- Node45 -->
<g id="Node000045" class="node">
<title>Node45</title>
<g id="a_Node000045"><a xlink:title=" ">
<polygon fill="#e0e0e0" stroke="#999999" points="1537.5,-360 1412.5,-360 1412.5,-341 1537.5,-341 1537.5,-360"/>
<text text-anchor="middle" x="1475" y="-348" font-family="Helvetica,sans-Serif" font-size="10.00">OMSimEventAction.hh</text>
</a>
</g>
</g>
<!-- Node1&#45;&gt;Node45 -->
<g id="edge41_Node000001_Node000045" class="edge">
<title>Node1&#45;&gt;Node45</title>
<g id="a_edge41_Node000001_Node000045"><a xlink:title=" ">
<path fill="none" stroke="#63b8ff" d="M1537.95,-395.98C1526.54,-387.92 1509.17,-375.65 1495.57,-366.03"/>
<polygon fill="#63b8ff" stroke="#63b8ff" points="1497.46,-363.08 1487.27,-360.17 1493.42,-368.8 1497.46,-363.08"/>
</a>
</g>
</g>
<!-- Node46 -->
<g id="Node000046" class="node">
<title>Node46</title>
<g id="a_Node000046"><a xlink:href="common_2framework_2include_2_o_m_sim_tracking_action_8hh_source.html" target="_top" xlink:title=" ">
<polygon fill="white" stroke="#666666" points="1694,-360 1556,-360 1556,-341 1694,-341 1694,-360"/>
<text text-anchor="middle" x="1625" y="-348" font-family="Helvetica,sans-Serif" font-size="10.00">OMSimTrackingAction.hh</text>
</a>
</g>
</g>
<!-- Node1&#45;&gt;Node46 -->
<g id="edge42_Node000001_Node000046" class="edge">
<title>Node1&#45;&gt;Node46</title>
<g id="a_edge42_Node000001_Node000046"><a xlink:title=" ">
<path fill="none" stroke="#63b8ff" d="M1562.05,-395.98C1573.46,-387.92 1590.83,-375.65 1604.43,-366.03"/>
<polygon fill="#63b8ff" stroke="#63b8ff" points="1606.58,-368.8 1612.73,-360.17 1602.54,-363.08 1606.58,-368.8"/>
</a>
</g>
</g>
<!-- Node48 -->
<g id="Node000048" class="node">
<title>Node48</title>
<g id="a_Node000048"><a xlink:href="_o_m_sim_stepping_action_8hh.html" target="_top" xlink:title="Defines OMSimSteppingAction.Currently it only checks for trapped photons.">
<polygon fill="white" stroke="#666666" points="1852,-360 1712,-360 1712,-341 1852,-341 1852,-360"/>
<text text-anchor="middle" x="1782" y="-348" font-family="Helvetica,sans-Serif" font-size="10.00">OMSimSteppingAction.hh</text>
</a>
</g>
</g>
<!-- Node1&#45;&gt;Node48 -->
<g id="edge44_Node000001_Node000048" class="edge">
<title>Node1&#45;&gt;Node48</title>
<g id="a_edge44_Node000001_Node000048"><a xlink:title=" ">
<path fill="none" stroke="#63b8ff" d="M1583.73,-396.79C1623.58,-387.69 1690.09,-372.5 1734.98,-362.24"/>
<polygon fill="#63b8ff" stroke="#63b8ff" points="1735.8,-365.65 1744.77,-360.01 1734.24,-358.82 1735.8,-365.65"/>
</a>
</g>
</g>
<!-- Node50 -->
<g id="Node000050" class="node">
<title>Node50</title>
<g id="a_Node000050"><a xlink:href="_o_m_sim_u_iinterface_8hh.html" target="_top" xlink:title=" ">
<polygon fill="white" stroke="#666666" points="373.5,-305 252.5,-305 252.5,-286 373.5,-286 373.5,-305"/>
<text text-anchor="middle" x="313" y="-293" font-family="Helvetica,sans-Serif" font-size="10.00">OMSimUIinterface.hh</text>
</a>
</g>
</g>
<!-- Node1&#45;&gt;Node50 -->
<g id="edge46_Node000001_Node000050" class="edge">
<title>Node1&#45;&gt;Node50</title>
<g id="a_edge46_Node000001_Node000050"><a xlink:title=" ">
<path fill="none" stroke="#63b8ff" d="M1516.23,-403.53C1407.94,-400.22 1059.78,-387.96 773,-360 630.02,-346.06 463.21,-320.76 375.02,-306.67"/>
<polygon fill="#63b8ff" stroke="#63b8ff" points="375.35,-303.18 364.92,-305.05 374.24,-310.09 375.35,-303.18"/>
</a>
</g>
</g>
<!-- Node55 -->
<g id="Node000055" class="node">
<title>Node55</title>
<g id="a_Node000055"><a xlink:title=" ">
<polygon fill="#e0e0e0" stroke="#999999" points="1991.5,-360 1870.5,-360 1870.5,-341 1991.5,-341 1991.5,-360"/>
<text text-anchor="middle" x="1931" y="-348" font-family="Helvetica,sans-Serif" font-size="10.00">G4MTRunManager.hh</text>
</a>
</g>
</g>
<!-- Node1&#45;&gt;Node55 -->
<g id="edge54_Node000001_Node000055" class="edge">
<title>Node1&#45;&gt;Node55</title>
<g id="a_edge54_Node000001_Node000055"><a xlink:title=" ">
<path fill="none" stroke="#63b8ff" d="M1583.81,-399.8C1645.61,-391.2 1778.01,-372.78 1860.27,-361.34"/>
<polygon fill="#63b8ff" stroke="#63b8ff" points="1860.87,-364.79 1870.29,-359.94 1859.91,-357.86 1860.87,-364.79"/>
</a>
</g>
</g>
<!-- Node56 -->
<g id="Node000056" class="node">
<title>Node56</title>
<g id="a_Node000056"><a xlink:title=" ">
<polygon fill="#e0e0e0" stroke="#999999" points="2116.5,-360 2009.5,-360 2009.5,-341 2116.5,-341 2116.5,-360"/>
<text text-anchor="middle" x="2063" y="-348" font-family="Helvetica,sans-Serif" font-size="10.00">G4VisExecutive.hh</text>
</a>
</g>
</g>
<!-- Node1&#45;&gt;Node56 -->
<g id="edge55_Node000001_Node000056" class="edge">
<title>Node1&#45;&gt;Node56</title>
<g id="a_edge55_Node000001_Node000056"><a xlink:title=" ">
<path fill="none" stroke="#63b8ff" d="M1583.71,-401.61C1657.23,-395.23 1837.71,-379.03 1999.13,-360.18"/>
<polygon fill="#63b8ff" stroke="#63b8ff" points="1999.72,-363.64 2009.25,-359 1998.91,-356.69 1999.72,-363.64"/>
</a>
</g>
</g>
<!-- Node57 -->
<g id="Node000057" class="node">
<title>Node57</title>
<g id="a_Node000057"><a xlink:title=" ">
<polygon fill="#e0e0e0" stroke="#999999" points="2237.5,-360 2134.5,-360 2134.5,-341 2237.5,-341 2237.5,-360"/>
<text text-anchor="middle" x="2186" y="-348" font-family="Helvetica,sans-Serif" font-size="10.00">G4UIExecutive.hh</text>
</a>
</g>
</g>
<!-- Node1&#45;&gt;Node57 -->
<g id="edge56_Node000001_Node000057" class="edge">
<title>Node1&#45;&gt;Node57</title>
<g id="a_edge56_Node000001_Node000057"><a xlink:title=" ">
<path fill="none" stroke="#63b8ff" d="M1583.51,-402.66C1670.81,-397.7 1912.64,-382.96 2124.26,-360.13"/>
<polygon fill="#63b8ff" stroke="#63b8ff" points="2124.75,-363.6 2134.32,-359.03 2124,-356.64 2124.75,-363.6"/>
</a>
</g>
</g>
<!-- Node58 -->
<g id="Node000058" class="node">
<title>Node58</title>
<g id="a_Node000058"><a xlink:title=" ">
<polygon fill="#e0e0e0" stroke="#999999" points="2406,-360 2256,-360 2256,-341 2406,-341 2406,-360"/>
<text text-anchor="middle" x="2331" y="-348" font-family="Helvetica,sans-Serif" font-size="10.00">boost/program_options.hpp</text>
</a>
</g>
</g>
<!-- Node1&#45;&gt;Node58 -->
<g id="edge57_Node000001_Node000058" class="edge">
<title>Node1&#45;&gt;Node58</title>
<g id="a_edge57_Node000001_Node000058"><a xlink:title=" ">
<path fill="none" stroke="#63b8ff" d="M1583.76,-402.79C1683.31,-397.65 1984.54,-381.43 2245.85,-360.06"/>
<polygon fill="#63b8ff" stroke="#63b8ff" points="2246.23,-363.55 2255.91,-359.24 2245.65,-356.57 2246.23,-363.55"/>
</a>
</g>
</g>
<!-- Node3 -->
<g id="Node000003" class="node">
<title>Node3</title>
<g id="a_Node000003"><a xlink:href="_o_m_sim_optical_module_8hh_source.html" target="_top" xlink:title=" ">
<polygon fill="white" stroke="#666666" points="1035.5,-305 898.5,-305 898.5,-286 1035.5,-286 1035.5,-305"/>
<text text-anchor="middle" x="967" y="-293" font-family="Helvetica,sans-Serif" font-size="10.00">OMSimOpticalModule.hh</text>
</a>
</g>
</g>
<!-- Node2&#45;&gt;Node3 -->
<g id="edge2_Node000002_Node000003" class="edge">
<title>Node2&#45;&gt;Node3</title>
<g id="a_edge2_Node000002_Node000003"><a xlink:title=" ">
<path fill="none" stroke="#63b8ff" d="M967,-340.75C967,-333.8 967,-323.85 967,-315.13"/>
<polygon fill="#63b8ff" stroke="#63b8ff" points="970.5,-315.09 967,-305.09 963.5,-315.09 970.5,-315.09"/>
</a>
</g>
</g>
<!-- Node34 -->
<g id="Node000034" class="node">
<title>Node34</title>
<g id="a_Node000034"><a xlink:title=" ">
<polygon fill="#e0e0e0" stroke="#999999" points="1116,-305 1054,-305 1054,-286 1116,-286 1116,-305"/>
<text text-anchor="middle" x="1085" y="-293" font-family="Helvetica,sans-Serif" font-size="10.00">G4Orb.hh</text>
</a>
</g>
</g>
<!-- Node2&#45;&gt;Node34 -->
<g id="edge26_Node000002_Node000034" class="edge">
<title>Node2&#45;&gt;Node34</title>
<g id="a_edge26_Node000002_Node000034"><a xlink:title=" ">
<path fill="none" stroke="#63b8ff" d="M985.96,-340.98C1005.03,-332.42 1034.66,-319.11 1056.55,-309.28"/>
<polygon fill="#63b8ff" stroke="#63b8ff" points="1058.01,-312.46 1065.7,-305.17 1055.14,-306.07 1058.01,-312.46"/>
</a>
</g>
</g>
<!-- Node35 -->
<g id="Node000035" class="node">
<title>Node35</title>
<g id="a_Node000035"><a xlink:title=" ">
<polygon fill="#e0e0e0" stroke="#999999" points="1312,-305 1134,-305 1134,-286 1312,-286 1312,-305"/>
<text text-anchor="middle" x="1223" y="-293" font-family="Helvetica,sans-Serif" font-size="10.00">G4VUserDetectorConstruction.hh</text>
</a>
</g>
</g>
<!-- Node2&#45;&gt;Node35 -->
<g id="edge27_Node000002_Node000035" class="edge">
<title>Node2&#45;&gt;Node35</title>
<g id="a_edge27_Node000002_Node000035"><a xlink:title=" ">
<path fill="none" stroke="#63b8ff" d="M1008.13,-340.98C1052.6,-331.78 1123.55,-317.09 1171.65,-307.13"/>
<polygon fill="#63b8ff" stroke="#63b8ff" points="1172.46,-310.54 1181.55,-305.08 1171.04,-303.68 1172.46,-310.54"/>
</a>
</g>
</g>
<!-- Node4 -->
<g id="Node000004" class="node">
<title>Node4</title>
<g id="a_Node000004"><a xlink:href="_o_m_sim_detector_component_8hh.html" target="_top" xlink:title="Provides helper base class OMSimDetectorComponent for constructing and managing detector components i...">
<polygon fill="white" stroke="#666666" points="1151.5,-195 986.5,-195 986.5,-176 1151.5,-176 1151.5,-195"/>
<text text-anchor="middle" x="1069" y="-183" font-family="Helvetica,sans-Serif" font-size="10.00">OMSimDetectorComponent.hh</text>
</a>
</g>
</g>
<!-- Node3&#45;&gt;Node4 -->
<g id="edge3_Node000003_Node000004" class="edge">
<title>Node3&#45;&gt;Node4</title>
<g id="a_edge3_Node000003_Node000004"><a xlink:title=" ">
<path fill="none" stroke="#63b8ff" d="M967.36,-285.71C968.32,-272.47 971.89,-247.22 985,-231 996.88,-216.3 1014.95,-205.85 1031.28,-198.78"/>
<polygon fill="#63b8ff" stroke="#63b8ff" points="1032.67,-202 1040.64,-195.01 1030.05,-195.51 1032.67,-202"/>
</a>
</g>
</g>
<!-- Node25 -->
<g id="Node000025" class="node">
<title>Node25</title>
<g id="a_Node000025"><a xlink:title=" ">
<polygon fill="#e0e0e0" stroke="#999999" points="1302.5,-250 1179.5,-250 1179.5,-231 1302.5,-231 1302.5,-250"/>
<text text-anchor="middle" x="1241" y="-238" font-family="Helvetica,sans-Serif" font-size="10.00">OMSimHitManager.hh</text>
</a>
</g>
</g>
<!-- Node3&#45;&gt;Node25 -->
<g id="edge15_Node000003_Node000025" class="edge">
<title>Node3&#45;&gt;Node25</title>
<g id="a_edge15_Node000003_Node000025"><a xlink:title=" ">
<path fill="none" stroke="#63b8ff" d="M1011.02,-285.98C1058.82,-276.74 1135.2,-261.97 1186.68,-252.01"/>
<polygon fill="#63b8ff" stroke="#63b8ff" points="1187.48,-255.42 1196.63,-250.08 1186.15,-248.54 1187.48,-255.42"/>
</a>
</g>
</g>
<!-- Node26 -->
<g id="Node000026" class="node">
<title>Node26</title>
<g id="a_Node000026"><a xlink:href="_o_m_sim_p_m_t_construction_8hh.html" target="_top" xlink:title="Construction of the PMTs.">
<polygon fill="white" stroke="#666666" points="1143.5,-250 994.5,-250 994.5,-231 1143.5,-231 1143.5,-250"/>
<text text-anchor="middle" x="1069" y="-238" font-family="Helvetica,sans-Serif" font-size="10.00">OMSimPMTConstruction.hh</text>
</a>
</g>
</g>
<!-- Node3&#45;&gt;Node26 -->
<g id="edge16_Node000003_Node000026" class="edge">
<title>Node3&#45;&gt;Node26</title>
<g id="a_edge16_Node000003_Node000026"><a xlink:title=" ">
<path fill="none" stroke="#63b8ff" d="M983.39,-285.98C999.57,-277.57 1024.57,-264.59 1043.38,-254.81"/>
<polygon fill="#63b8ff" stroke="#63b8ff" points="1045.05,-257.89 1052.31,-250.17 1041.83,-251.68 1045.05,-257.89"/>
</a>
</g>
</g>
<!-- Node5 -->
<g id="Node000005" class="node">
<title>Node5</title>
<g id="a_Node000005"><a xlink:href="_o_m_sim_input_data_8hh.html" target="_top" xlink:title="Definition of ParameterTable and OMSimInputData.">
<polygon fill="#fff0f0" stroke="red" points="872.5,-140 757.5,-140 757.5,-121 872.5,-121 872.5,-140"/>
<text text-anchor="middle" x="815" y="-128" font-family="Helvetica,sans-Serif" font-size="10.00">OMSimInputData.hh</text>
</a>
</g>
</g>
<!-- Node4&#45;&gt;Node5 -->
<g id="edge4_Node000004_Node000005" class="edge">
<title>Node4&#45;&gt;Node5</title>
<g id="a_edge4_Node000004_Node000005"><a xlink:title=" ">
<path fill="none" stroke="#63b8ff" d="M1028.19,-175.98C984.07,-166.78 913.67,-152.09 865.95,-142.13"/>
<polygon fill="#63b8ff" stroke="#63b8ff" points="866.63,-138.7 856.13,-140.08 865.2,-145.55 866.63,-138.7"/>
</a>
</g>
</g>
<!-- Node21 -->
<g id="Node000021" class="node">
<title>Node21</title>
<g id="a_Node000021"><a xlink:title=" ">
<polygon fill="#e0e0e0" stroke="#999999" points="1036.5,-140 929.5,-140 929.5,-121 1036.5,-121 1036.5,-140"/>
<text text-anchor="middle" x="983" y="-128" font-family="Helvetica,sans-Serif" font-size="10.00">G4Transform3D.hh</text>
</a>
</g>
</g>
<!-- Node4&#45;&gt;Node21 -->
<g id="edge11_Node000004_Node000021" class="edge">
<title>Node4&#45;&gt;Node21</title>
<g id="a_edge11_Node000004_Node000021"><a xlink:title=" ">
<path fill="none" stroke="#63b8ff" d="M1055.18,-175.98C1041.85,-167.77 1021.42,-155.18 1005.69,-145.49"/>
<polygon fill="#63b8ff" stroke="#63b8ff" points="1007.42,-142.44 997.07,-140.17 1003.75,-148.4 1007.42,-142.44"/>
</a>
</g>
</g>
<!-- Node22 -->
<g id="Node000022" class="node">
<title>Node22</title>
<g id="a_Node000022"><a xlink:title=" ">
<polygon fill="#e0e0e0" stroke="#999999" points="1163,-140 1055,-140 1055,-121 1163,-121 1163,-140"/>
<text text-anchor="middle" x="1109" y="-128" font-family="Helvetica,sans-Serif" font-size="10.00">G4VisAttributes.hh</text>
</a>
</g>
</g>
<!-- Node4&#45;&gt;Node22 -->
<g id="edge12_Node000004_Node000022" class="edge">
<title>Node4&#45;&gt;Node22</title>
<g id="a_edge12_Node000004_Node000022"><a xlink:title=" ">
<path fill="none" stroke="#63b8ff" d="M1075.61,-175.75C1081.26,-168.26 1089.54,-157.28 1096.45,-148.13"/>
<polygon fill="#63b8ff" stroke="#63b8ff" points="1099.29,-150.18 1102.52,-140.09 1093.7,-145.96 1099.29,-150.18"/>
</a>
</g>
</g>
<!-- Node23 -->
<g id="Node000023" class="node">
<title>Node23</title>
<g id="a_Node000023"><a xlink:title=" ">
<polygon fill="#e0e0e0" stroke="#999999" points="1306.5,-140 1181.5,-140 1181.5,-121 1306.5,-121 1306.5,-140"/>
<text text-anchor="middle" x="1244" y="-128" font-family="Helvetica,sans-Serif" font-size="10.00">G4SubtractionSolid.hh</text>
</a>
</g>
</g>
<!-- Node4&#45;&gt;Node23 -->
<g id="edge13_Node000004_Node000023" class="edge">
<title>Node4&#45;&gt;Node23</title>
<g id="a_edge13_Node000004_Node000023"><a xlink:title=" ">
<path fill="none" stroke="#63b8ff" d="M1097.12,-175.98C1126.62,-167.05 1173.19,-152.94 1205.97,-143.02"/>
<polygon fill="#63b8ff" stroke="#63b8ff" points="1207.11,-146.33 1215.66,-140.08 1205.08,-139.63 1207.11,-146.33"/>
</a>
</g>
</g>
<!-- Node24 -->
<g id="Node000024" class="node">
<title>Node24</title>
<g id="a_Node000024"><a xlink:title=" ">
<polygon fill="#e0e0e0" stroke="#999999" points="1435,-140 1325,-140 1325,-121 1435,-121 1435,-140"/>
<text text-anchor="middle" x="1380" y="-128" font-family="Helvetica,sans-Serif" font-size="10.00">G4PVPlacement.hh</text>
</a>
</g>
</g>
<!-- Node4&#45;&gt;Node24 -->
<g id="edge14_Node000004_Node000024" class="edge">
<title>Node4&#45;&gt;Node24</title>
<g id="a_edge14_Node000004_Node000024"><a xlink:title=" ">
<path fill="none" stroke="#63b8ff" d="M1118.97,-175.98C1173.64,-166.67 1261.25,-151.74 1319.7,-141.78"/>
<polygon fill="#63b8ff" stroke="#63b8ff" points="1320.63,-145.17 1329.9,-140.04 1319.45,-138.27 1320.63,-145.17"/>
</a>
</g>
</g>
<!-- Node6 -->
<g id="Node000006" class="node">
<title>Node6</title>
<g id="a_Node000006"><a xlink:href="_o_m_sim_logger_8hh_source.html" target="_top" xlink:title=" ">
<polygon fill="white" stroke="#666666" points="315.5,-85 216.5,-85 216.5,-66 315.5,-66 315.5,-85"/>
<text text-anchor="middle" x="266" y="-73" font-family="Helvetica,sans-Serif" font-size="10.00">OMSimLogger.hh</text>
</a>
</g>
</g>
<!-- Node5&#45;&gt;Node6 -->
<g id="edge5_Node000005_Node000006" class="edge">
<title>Node5&#45;&gt;Node6</title>
<g id="a_edge5_Node000005_Node000006"><a xlink:title=" ">
<path fill="none" stroke="#63b8ff" d="M757.27,-122.05C754.14,-121.68 751.03,-121.33 748,-121 596.18,-104.37 416.99,-88.92 325.81,-81.36"/>
<polygon fill="#63b8ff" stroke="#63b8ff" points="325.92,-77.86 315.67,-80.52 325.35,-84.83 325.92,-77.86"/>
</a>
</g>
</g>
<!-- Node19 -->
<g id="Node000019" class="node">
<title>Node19</title>
<g id="a_Node000019"><a xlink:title=" ">
<polygon fill="#e0e0e0" stroke="#999999" points="917.5,-85 798.5,-85 798.5,-66 917.5,-66 917.5,-85"/>
<text text-anchor="middle" x="858" y="-73" font-family="Helvetica,sans-Serif" font-size="10.00">G4SystemOfUnits.hh</text>
</a>
</g>
</g>
<!-- Node5&#45;&gt;Node19 -->
<g id="edge10_Node000005_Node000019" class="edge">
<title>Node5&#45;&gt;Node19</title>
<g id="a_edge10_Node000005_Node000019"><a xlink:title=" ">
<path fill="none" stroke="#63b8ff" d="M822.1,-120.75C828.17,-113.26 837.09,-102.28 844.51,-93.13"/>
<polygon fill="#63b8ff" stroke="#63b8ff" points="847.45,-95.06 851.03,-85.09 842.01,-90.65 847.45,-95.06"/>
</a>
</g>
</g>
<!-- Node7 -->
<g id="Node000007" class="node">
<title>Node7</title>
<g id="a_Node000007"><a xlink:title=" ">
<polygon fill="#e0e0e0" stroke="#999999" points="141.5,-24.5 48.5,-24.5 48.5,-5.5 141.5,-5.5 141.5,-24.5"/>
<text text-anchor="middle" x="95" y="-12.5" font-family="Helvetica,sans-Serif" font-size="10.00">spdlog/spdlog.h</text>
</a>
</g>
</g>
<!-- Node6&#45;&gt;Node7 -->
<g id="edge6_Node000006_Node000007" class="edge">
<title>Node6&#45;&gt;Node7</title>
<g id="a_edge6_Node000006_Node000007"><a xlink:title=" ">
<path fill="none" stroke="#63b8ff" d="M241.14,-65.99C211.75,-55.94 162.69,-39.16 129.61,-27.84"/>
<polygon fill="#63b8ff" stroke="#63b8ff" points="130.49,-24.44 119.89,-24.52 128.22,-31.07 130.49,-24.44"/>
</a>
</g>
</g>
<!-- Node8 -->
<g id="Node000008" class="node">
<title>Node8</title>
<g id="a_Node000008"><a xlink:title=" ">
<polygon fill="#e0e0e0" stroke="#999999" points="270.5,-30 159.5,-30 159.5,0 270.5,0 270.5,-30"/>
<text text-anchor="start" x="167.5" y="-18" font-family="Helvetica,sans-Serif" font-size="10.00">spdlog/sinks/stdout</text>
<text text-anchor="middle" x="215" y="-7" font-family="Helvetica,sans-Serif" font-size="10.00">_color_sinks.h</text>
</a>
</g>
</g>
<!-- Node6&#45;&gt;Node8 -->
<g id="edge7_Node000006_Node000008" class="edge">
<title>Node6&#45;&gt;Node8</title>
<g id="a_edge7_Node000006_Node000008"><a xlink:title=" ">
<path fill="none" stroke="#63b8ff" d="M258.47,-65.87C252.07,-58.52 242.58,-47.63 234.1,-37.91"/>
<polygon fill="#63b8ff" stroke="#63b8ff" points="236.51,-35.35 227.31,-30.11 231.24,-39.95 236.51,-35.35"/>
</a>
</g>
</g>
<!-- Node9 -->
<g id="Node000009" class="node">
<title>Node9</title>
<g id="a_Node000009"><a xlink:title=" ">
<polygon fill="#e0e0e0" stroke="#999999" points="347,-24.5 289,-24.5 289,-5.5 347,-5.5 347,-24.5"/>
<text text-anchor="middle" x="318" y="-12.5" font-family="Helvetica,sans-Serif" font-size="10.00">memory</text>
</a>
</g>
</g>
<!-- Node6&#45;&gt;Node9 -->
<g id="edge8_Node000006_Node000009" class="edge">
<title>Node6&#45;&gt;Node9</title>
<g id="a_edge8_Node000006_Node000009"><a xlink:title=" ">
<path fill="none" stroke="#63b8ff" d="M273.67,-65.87C281.51,-57.05 293.86,-43.16 303.54,-32.27"/>
<polygon fill="#63b8ff" stroke="#63b8ff" points="306.27,-34.47 310.3,-24.67 301.04,-29.82 306.27,-34.47"/>
</a>
</g>
</g>
<!-- Node10 -->
<g id="Node000010" class="node">
<title>Node10</title>
<g id="a_Node000010"><a xlink:title=" ">
<polygon fill="#e0e0e0" stroke="#999999" points="463,-24.5 365,-24.5 365,-5.5 463,-5.5 463,-24.5"/>
<text text-anchor="middle" x="414" y="-12.5" font-family="Helvetica,sans-Serif" font-size="10.00">spdlog/fmt/fmt.h</text>
</a>
</g>
</g>
<!-- Node6&#45;&gt;Node10 -->
<g id="edge9_Node000006_Node000010" class="edge">
<title>Node6&#45;&gt;Node10</title>
<g id="a_edge9_Node000006_Node000010"><a xlink:title=" ">
<path fill="none" stroke="#63b8ff" d="M287.52,-65.99C312.62,-56.07 354.32,-39.59 382.93,-28.28"/>
<polygon fill="#63b8ff" stroke="#63b8ff" points="384.44,-31.45 392.45,-24.52 381.87,-24.94 384.44,-31.45"/>
</a>
</g>
</g>
<!-- Node26&#45;&gt;Node4 -->
<g id="edge17_Node000026_Node000004" class="edge">
<title>Node26&#45;&gt;Node4</title>
<g id="a_edge17_Node000026_Node000004"><a xlink:title=" ">
<path fill="none" stroke="#63b8ff" d="M1069,-230.75C1069,-223.8 1069,-213.85 1069,-205.13"/>
<polygon fill="#63b8ff" stroke="#63b8ff" points="1072.5,-205.09 1069,-195.09 1065.5,-205.09 1072.5,-205.09"/>
</a>
</g>
</g>
<!-- Node26&#45;&gt;Node26 -->
<g id="edge18_Node000026_Node000026" class="edge">
<title>Node26&#45;&gt;Node26</title>
<g id="a_edge18_Node000026_Node000026"><a xlink:title=" ">
<path fill="none" stroke="#63b8ff" d="M1112.3,-250.03C1137.71,-252.06 1161.5,-248.88 1161.5,-240.5 1161.5,-233.23 1143.61,-229.87 1122.29,-230.44"/>
<polygon fill="#63b8ff" stroke="#63b8ff" points="1122.1,-226.94 1112.3,-230.97 1122.47,-233.93 1122.1,-226.94"/>
</a>
</g>
</g>
<!-- Node27 -->
<g id="Node000027" class="node">
<title>Node27</title>
<g id="a_Node000027"><a xlink:href="_o_m_sim_p_m_t_response_8hh.html" target="_top" xlink:title="Simulation of PMT response.">
<polygon fill="#fff0f0" stroke="red" points="968.5,-195 833.5,-195 833.5,-176 968.5,-176 968.5,-195"/>
<text text-anchor="middle" x="901" y="-183" font-family="Helvetica,sans-Serif" font-size="10.00">OMSimPMTResponse.hh</text>
</a>
</g>
</g>
<!-- Node26&#45;&gt;Node27 -->
<g id="edge19_Node000026_Node000027" class="edge">
<title>Node26&#45;&gt;Node27</title>
<g id="a_edge19_Node000026_Node000027"><a xlink:title=" ">
<path fill="none" stroke="#63b8ff" d="M1042.01,-230.98C1013.8,-222.09 969.36,-208.07 937.92,-198.15"/>
<polygon fill="#63b8ff" stroke="#63b8ff" points="938.79,-194.75 928.2,-195.08 936.69,-201.43 938.79,-194.75"/>
</a>
</g>
</g>
<!-- Node32 -->
<g id="Node000032" class="node">
<title>Node32</title>
<g id="a_Node000032"><a xlink:title=" ">
<polygon fill="#e0e0e0" stroke="#999999" points="1268,-195 1170,-195 1170,-176 1268,-176 1268,-195"/>
<text text-anchor="middle" x="1219" y="-183" font-family="Helvetica,sans-Serif" font-size="10.00">G4UnionSolid.hh</text>
</a>
</g>
</g>
<!-- Node26&#45;&gt;Node32 -->
<g id="edge24_Node000026_Node000032" class="edge">
<title>Node26&#45;&gt;Node32</title>
<g id="a_edge24_Node000026_Node000032"><a xlink:title=" ">
<path fill="none" stroke="#63b8ff" d="M1093.1,-230.98C1117.88,-222.23 1156.7,-208.51 1184.69,-198.62"/>
<polygon fill="#63b8ff" stroke="#63b8ff" points="1186.2,-201.8 1194.46,-195.17 1183.87,-195.2 1186.2,-201.8"/>
</a>
</g>
</g>
<!-- Node33 -->
<g id="Node000033" class="node">
<title>Node33</title>
<g id="a_Node000033"><a xlink:title=" ">
<polygon fill="#e0e0e0" stroke="#999999" points="1353.5,-195 1286.5,-195 1286.5,-176 1353.5,-176 1353.5,-195"/>
<text text-anchor="middle" x="1320" y="-183" font-family="Helvetica,sans-Serif" font-size="10.00">G4Tubs.hh</text>
</a>
</g>
</g>
<!-- Node26&#45;&gt;Node33 -->
<g id="edge25_Node000026_Node000033" class="edge">
<title>Node26&#45;&gt;Node33</title>
<g id="a_edge25_Node000026_Node000033"><a xlink:title=" ">
<path fill="none" stroke="#63b8ff" d="M1109.33,-230.98C1155.03,-221.33 1229.27,-205.66 1276.31,-195.72"/>
<polygon fill="#63b8ff" stroke="#63b8ff" points="1277.15,-199.13 1286.21,-193.63 1275.7,-192.28 1277.15,-199.13"/>
</a>
</g>
</g>
<!-- Node27&#45;&gt;Node19 -->
<g id="edge20_Node000027_Node000019" class="edge">
<title>Node27&#45;&gt;Node19</title>
<g id="a_edge20_Node000027_Node000019"><a xlink:title=" ">
<path fill="none" stroke="#63b8ff" d="M898.75,-175.7C895.45,-163.29 888.84,-140.02 881,-121 877.23,-111.85 872.27,-102.05 867.92,-93.98"/>
<polygon fill="#63b8ff" stroke="#63b8ff" points="870.94,-92.21 863.04,-85.15 864.82,-95.6 870.94,-92.21"/>
</a>
</g>
</g>
<!-- Node28 -->
<g id="Node000028" class="node">
<title>Node28</title>
<g id="a_Node000028"><a xlink:title=" ">
<polygon fill="#e0e0e0" stroke="#999999" points="660.5,-140 587.5,-140 587.5,-121 660.5,-121 660.5,-140"/>
<text text-anchor="middle" x="624" y="-128" font-family="Helvetica,sans-Serif" font-size="10.00">G4Types.hh</text>
</a>
</g>
</g>
<!-- Node27&#45;&gt;Node28 -->
<g id="edge21_Node000027_Node000028" class="edge">
<title>Node27&#45;&gt;Node28</title>
<g id="a_edge21_Node000027_Node000028"><a xlink:title=" ">
<path fill="none" stroke="#63b8ff" d="M856.5,-175.98C805.6,-166.25 722.63,-150.37 670.8,-140.45"/>
<polygon fill="#63b8ff" stroke="#63b8ff" points="671.34,-136.99 660.86,-138.55 670.03,-143.87 671.34,-136.99"/>
</a>
</g>
</g>
<!-- Node29 -->
<g id="Node000029" class="node">
<title>Node29</title>
<g id="a_Node000029"><a xlink:title=" ">
<polygon fill="#e0e0e0" stroke="#999999" points="489,-140 451,-140 451,-121 489,-121 489,-140"/>
<text text-anchor="middle" x="470" y="-128" font-family="Helvetica,sans-Serif" font-size="10.00">map</text>
</a>
</g>
</g>
<!-- Node27&#45;&gt;Node29 -->
<g id="edge22_Node000027_Node000029" class="edge">
<title>Node27&#45;&gt;Node29</title>
<g id="a_edge22_Node000027_Node000029"><a xlink:title=" ">
<path fill="none" stroke="#63b8ff" d="M833.18,-176.16C737.55,-164.4 567.15,-143.45 499.17,-135.09"/>
<polygon fill="#63b8ff" stroke="#63b8ff" points="499.52,-131.6 489.17,-133.86 498.67,-138.55 499.52,-131.6"/>
</a>
</g>
</g>
<!-- Node30 -->
<g id="Node000030" class="node">
<title>Node30</title>
<g id="a_Node000030"><a xlink:title=" ">
<polygon fill="#e0e0e0" stroke="#999999" points="739.5,-140 678.5,-140 678.5,-121 739.5,-121 739.5,-140"/>
<text text-anchor="middle" x="709" y="-128" font-family="Helvetica,sans-Serif" font-size="10.00">TGraph.h</text>
</a>
</g>
</g>
<!-- Node27&#45;&gt;Node30 -->
<g id="edge23_Node000027_Node000030" class="edge">
<title>Node27&#45;&gt;Node30</title>
<g id="a_edge23_Node000027_Node000030"><a xlink:title=" ">
<path fill="none" stroke="#63b8ff" d="M870.15,-175.98C837.4,-166.94 785.5,-152.62 749.48,-142.67"/>
<polygon fill="#63b8ff" stroke="#63b8ff" points="750.34,-139.28 739.77,-139.99 748.48,-146.03 750.34,-139.28"/>
</a>
</g>
</g>
<!-- Node38&#45;&gt;Node6 -->
<g id="edge38_Node000038_Node000006" class="edge">
<title>Node38&#45;&gt;Node6</title>
<g id="a_edge38_Node000038_Node000006"><a xlink:title=" ">
<path fill="none" stroke="#63b8ff" d="M546.67,-291.29C454.53,-285.63 279.85,-272.3 222,-250 182.76,-234.87 164.24,-232.39 145,-195 120.73,-147.85 190.72,-108.32 234.2,-89.07"/>
<polygon fill="#63b8ff" stroke="#63b8ff" points="235.74,-92.22 243.55,-85.06 232.98,-85.78 235.74,-92.22"/>
</a>
</g>
</g>
<!-- Node39 -->
<g id="Node000039" class="node">
<title>Node39</title>
<g id="a_Node000039"><a xlink:title=" ">
<polygon fill="#e0e0e0" stroke="#999999" points="857.5,-250 740.5,-250 740.5,-231 857.5,-231 857.5,-250"/>
<text text-anchor="middle" x="799" y="-238" font-family="Helvetica,sans-Serif" font-size="10.00">G4UserRunAction.hh</text>
</a>
</g>
</g>
<!-- Node38&#45;&gt;Node39 -->
<g id="edge31_Node000038_Node000039" class="edge">
<title>Node38&#45;&gt;Node39</title>
<g id="a_edge31_Node000038_Node000039"><a xlink:title=" ">
<path fill="none" stroke="#63b8ff" d="M636.17,-285.98C669.16,-276.97 721.4,-262.7 757.77,-252.76"/>
<polygon fill="#63b8ff" stroke="#63b8ff" points="758.86,-256.09 767.59,-250.08 757.02,-249.34 758.86,-256.09"/>
</a>
</g>
</g>
<!-- Node40 -->
<g id="Node000040" class="node">
<title>Node40</title>
<g id="a_Node000040"><a xlink:href="common_2framework_2include_2_o_m_sim_hit_manager_8hh.html" target="_top" xlink:title="Defines structures and classes related to optical module photon hit management.">
<polygon fill="white" stroke="#666666" points="722.5,-250 599.5,-250 599.5,-231 722.5,-231 722.5,-250"/>
<text text-anchor="middle" x="661" y="-238" font-family="Helvetica,sans-Serif" font-size="10.00">OMSimHitManager.hh</text>
</a>
</g>
</g>
<!-- Node38&#45;&gt;Node40 -->
<g id="edge32_Node000038_Node000040" class="edge">
<title>Node38&#45;&gt;Node40</title>
<g id="a_edge32_Node000038_Node000040"><a xlink:title=" ">
<path fill="none" stroke="#63b8ff" d="M614,-285.98C622.19,-278.23 634.51,-266.58 644.47,-257.14"/>
<polygon fill="#63b8ff" stroke="#63b8ff" points="646.98,-259.59 651.84,-250.17 642.17,-254.5 646.98,-259.59"/>
</a>
</g>
</g>
<!-- Node43 -->
<g id="Node000043" class="node">
<title>Node43</title>
<g id="a_Node000043"><a xlink:title=" ">
<polygon fill="#e0e0e0" stroke="#999999" points="499,-250 413,-250 413,-231 499,-231 499,-250"/>
<text text-anchor="middle" x="456" y="-238" font-family="Helvetica,sans-Serif" font-size="10.00">Randomize.hh</text>
</a>
</g>
</g>
<!-- Node38&#45;&gt;Node43 -->
<g id="edge39_Node000038_Node000043" class="edge">
<title>Node38&#45;&gt;Node43</title>
<g id="a_edge39_Node000038_Node000043"><a xlink:title=" ">
<path fill="none" stroke="#63b8ff" d="M581.06,-285.98C556.44,-277.23 517.88,-263.51 490.08,-253.62"/>
<polygon fill="#63b8ff" stroke="#63b8ff" points="490.97,-250.22 480.38,-250.17 488.62,-256.82 490.97,-250.22"/>
</a>
</g>
</g>
<!-- Node44 -->
<g id="Node000044" class="node">
<title>Node44</title>
<g id="a_Node000044"><a xlink:title=" ">
<polygon fill="#e0e0e0" stroke="#999999" points="581,-250 517,-250 517,-231 581,-231 581,-250"/>
<text text-anchor="middle" x="549" y="-238" font-family="Helvetica,sans-Serif" font-size="10.00">G4Run.hh</text>
</a>
</g>
</g>
<!-- Node38&#45;&gt;Node44 -->
<g id="edge40_Node000038_Node000044" class="edge">
<title>Node38&#45;&gt;Node44</title>
<g id="a_edge40_Node000038_Node000044"><a xlink:title=" ">
<path fill="none" stroke="#63b8ff" d="M596,-285.98C587.81,-278.23 575.49,-266.58 565.53,-257.14"/>
<polygon fill="#63b8ff" stroke="#63b8ff" points="567.83,-254.5 558.16,-250.17 563.02,-259.59 567.83,-254.5"/>
</a>
</g>
</g>
<!-- Node40&#45;&gt;Node27 -->
<g id="edge33_Node000040_Node000027" class="edge">
<title>Node40&#45;&gt;Node27</title>
<g id="a_edge33_Node000040_Node000027"><a xlink:title=" ">
<path fill="none" stroke="#63b8ff" d="M699.56,-230.98C741.07,-221.82 807.21,-207.21 852.29,-197.26"/>
<polygon fill="#63b8ff" stroke="#63b8ff" points="853.13,-200.66 862.14,-195.08 851.62,-193.82 853.13,-200.66"/>
</a>
</g>
</g>
<!-- Node41 -->
<g id="Node000041" class="node">
<title>Node41</title>
<g id="a_Node000041"><a xlink:title=" ">
<polygon fill="#e0e0e0" stroke="#999999" points="815.5,-195 712.5,-195 712.5,-176 815.5,-176 815.5,-195"/>
<text text-anchor="middle" x="764" y="-183" font-family="Helvetica,sans-Serif" font-size="10.00">G4ThreeVector.hh</text>
</a>
</g>
</g>
<!-- Node40&#45;&gt;Node41 -->
<g id="edge34_Node000040_Node000041" class="edge">
<title>Node40&#45;&gt;Node41</title>
<g id="a_edge34_Node000040_Node000041"><a xlink:title=" ">
<path fill="none" stroke="#63b8ff" d="M677.55,-230.98C693.89,-222.57 719.13,-209.59 738.13,-199.81"/>
<polygon fill="#63b8ff" stroke="#63b8ff" points="739.86,-202.86 747.15,-195.17 736.66,-196.63 739.86,-202.86"/>
</a>
</g>
</g>
<!-- Node42 -->
<g id="Node000042" class="node">
<title>Node42</title>
<g id="a_Node000042"><a xlink:title=" ">
<polygon fill="#e0e0e0" stroke="#999999" points="473.5,-195 418.5,-195 418.5,-176 473.5,-176 473.5,-195"/>
<text text-anchor="middle" x="446" y="-183" font-family="Helvetica,sans-Serif" font-size="10.00">fstream</text>
</a>
</g>
</g>
<!-- Node40&#45;&gt;Node42 -->
<g id="edge35_Node000040_Node000042" class="edge">
<title>Node40&#45;&gt;Node42</title>
<g id="a_edge35_Node000040_Node000042"><a xlink:title=" ">
<path fill="none" stroke="#63b8ff" d="M626.46,-230.98C587.28,-221.33 523.63,-205.64 483.34,-195.7"/>
<polygon fill="#63b8ff" stroke="#63b8ff" points="484.17,-192.3 473.62,-193.31 482.49,-199.1 484.17,-192.3"/>
</a>
</g>
</g>
<!-- Node17 -->
<g id="Node000017" class="node">
<title>Node17</title>
<g id="a_Node000017"><a xlink:title=" ">
<polygon fill="#e0e0e0" stroke="#999999" points="582,-195 492,-195 492,-176 582,-176 582,-195"/>
<text text-anchor="middle" x="537" y="-183" font-family="Helvetica,sans-Serif" font-size="10.00">G4AutoLock.hh</text>
</a>
</g>
</g>
<!-- Node40&#45;&gt;Node17 -->
<g id="edge36_Node000040_Node000017" class="edge">
<title>Node40&#45;&gt;Node17</title>
<g id="a_edge36_Node000040_Node000017"><a xlink:title=" ">
<path fill="none" stroke="#63b8ff" d="M641.08,-230.98C620.95,-222.38 589.62,-208.99 566.59,-199.15"/>
<polygon fill="#63b8ff" stroke="#63b8ff" points="567.86,-195.88 557.29,-195.17 565.1,-202.32 567.86,-195.88"/>
</a>
</g>
</g>
<!-- Node18 -->
<g id="Node000018" class="node">
<title>Node18</title>
<g id="a_Node000018"><a xlink:title=" ">
<polygon fill="#e0e0e0" stroke="#999999" points="694,-195 600,-195 600,-176 694,-176 694,-195"/>
<text text-anchor="middle" x="647" y="-183" font-family="Helvetica,sans-Serif" font-size="10.00">G4Threading.hh</text>
</a>
</g>
</g>
<!-- Node40&#45;&gt;Node18 -->
<g id="edge37_Node000040_Node000018" class="edge">
<title>Node40&#45;&gt;Node18</title>
<g id="a_edge37_Node000040_Node000018"><a xlink:title=" ">
<path fill="none" stroke="#63b8ff" d="M658.69,-230.75C656.83,-223.72 654.16,-213.62 651.85,-204.84"/>
<polygon fill="#63b8ff" stroke="#63b8ff" points="655.21,-203.86 649.27,-195.09 648.44,-205.65 655.21,-203.86"/>
</a>
</g>
</g>
<!-- Node47 -->
<g id="Node000047" class="node">
<title>Node47</title>
<g id="a_Node000047"><a xlink:title=" ">
<polygon fill="#e0e0e0" stroke="#999999" points="1693.5,-305 1554.5,-305 1554.5,-286 1693.5,-286 1693.5,-305"/>
<text text-anchor="middle" x="1624" y="-293" font-family="Helvetica,sans-Serif" font-size="10.00">G4UserTrackingAction.hh</text>
</a>
</g>
</g>
<!-- Node46&#45;&gt;Node47 -->
<g id="edge43_Node000046_Node000047" class="edge">
<title>Node46&#45;&gt;Node47</title>
<g id="a_edge43_Node000046_Node000047"><a xlink:title=" ">
<path fill="none" stroke="#63b8ff" d="M1624.83,-340.75C1624.7,-333.8 1624.52,-323.85 1624.35,-315.13"/>
<polygon fill="#63b8ff" stroke="#63b8ff" points="1627.85,-315.02 1624.16,-305.09 1620.85,-315.15 1627.85,-315.02"/>
</a>
</g>
</g>
<!-- Node49 -->
<g id="Node000049" class="node">
<title>Node49</title>
<g id="a_Node000049"><a xlink:title=" ">
<polygon fill="#e0e0e0" stroke="#999999" points="1852.5,-305 1711.5,-305 1711.5,-286 1852.5,-286 1852.5,-305"/>
<text text-anchor="middle" x="1782" y="-293" font-family="Helvetica,sans-Serif" font-size="10.00">G4UserSteppingAction.hh</text>
</a>
</g>
</g>
<!-- Node48&#45;&gt;Node49 -->
<g id="edge45_Node000048_Node000049" class="edge">
<title>Node48&#45;&gt;Node49</title>
<g id="a_edge45_Node000048_Node000049"><a xlink:title=" ">
<path fill="none" stroke="#63b8ff" d="M1782,-340.75C1782,-333.8 1782,-323.85 1782,-315.13"/>
<polygon fill="#63b8ff" stroke="#63b8ff" points="1785.5,-315.09 1782,-305.09 1778.5,-315.09 1785.5,-315.09"/>
</a>
</g>
</g>
<!-- Node51 -->
<g id="Node000051" class="node">
<title>Node51</title>
<g id="a_Node000051"><a xlink:href="_o_m_sim_command_args_table_8hh.html" target="_top" xlink:title="Definition of the OMSimCommandArgsTable singleton class, which controls user args.">
<polygon fill="white" stroke="#666666" points="395,-250 231,-250 231,-231 395,-231 395,-250"/>
<text text-anchor="middle" x="313" y="-238" font-family="Helvetica,sans-Serif" font-size="10.00">OMSimCommandArgsTable.hh</text>
</a>
</g>
</g>
<!-- Node50&#45;&gt;Node51 -->
<g id="edge47_Node000050_Node000051" class="edge">
<title>Node50&#45;&gt;Node51</title>
<g id="a_edge47_Node000050_Node000051"><a xlink:title=" ">
<path fill="none" stroke="#63b8ff" d="M313,-285.75C313,-278.8 313,-268.85 313,-260.13"/>
<polygon fill="#63b8ff" stroke="#63b8ff" points="316.5,-260.09 313,-250.09 309.5,-260.09 316.5,-260.09"/>
</a>
</g>
</g>
<!-- Node54 -->
<g id="Node000054" class="node">
<title>Node54</title>
<g id="a_Node000054"><a xlink:title=" ">
<polygon fill="#e0e0e0" stroke="#999999" points="98,-250 0,-250 0,-231 98,-231 98,-250"/>
<text text-anchor="middle" x="49" y="-238" font-family="Helvetica,sans-Serif" font-size="10.00">G4UImanager.hh</text>
</a>
</g>
</g>
<!-- Node50&#45;&gt;Node54 -->
<g id="edge53_Node000050_Node000054" class="edge">
<title>Node50&#45;&gt;Node54</title>
<g id="a_edge53_Node000050_Node000054"><a xlink:title=" ">
<path fill="none" stroke="#63b8ff" d="M270.58,-285.98C224.63,-276.76 151.25,-262.03 101.65,-252.07"/>
<polygon fill="#63b8ff" stroke="#63b8ff" points="102.24,-248.62 91.75,-250.08 100.86,-255.48 102.24,-248.62"/>
</a>
</g>
</g>
<!-- Node51&#45;&gt;Node6 -->
<g id="edge48_Node000051_Node000006" class="edge">
<title>Node51&#45;&gt;Node6</title>
<g id="a_edge48_Node000051_Node000006"><a xlink:title=" ">
<path fill="none" stroke="#63b8ff" d="M306.07,-230.86C299.56,-222.28 290.08,-208.5 285,-195 272.31,-161.32 268.1,-119.14 266.7,-95.26"/>
<polygon fill="#63b8ff" stroke="#63b8ff" points="270.18,-94.95 266.21,-85.13 263.19,-95.29 270.18,-94.95"/>
</a>
</g>
</g>
<!-- Node51&#45;&gt;Node29 -->
<g id="edge52_Node000051_Node000029" class="edge">
<title>Node51&#45;&gt;Node29</title>
<g id="a_edge52_Node000051_Node000029"><a xlink:title=" ">
<path fill="none" stroke="#63b8ff" d="M325.58,-230.84C352.45,-212.36 415.69,-168.86 448.86,-146.05"/>
<polygon fill="#63b8ff" stroke="#63b8ff" points="451.1,-148.75 457.36,-140.2 447.13,-142.98 451.1,-148.75"/>
</a>
</g>
</g>
<!-- Node51&#45;&gt;Node42 -->
<g id="edge49_Node000051_Node000042" class="edge">
<title>Node51&#45;&gt;Node42</title>
<g id="a_edge49_Node000051_Node000042"><a xlink:title=" ">
<path fill="none" stroke="#63b8ff" d="M334.37,-230.98C356.15,-222.3 390.16,-208.75 414.92,-198.88"/>
<polygon fill="#63b8ff" stroke="#63b8ff" points="416.25,-202.12 424.24,-195.17 413.66,-195.62 416.25,-202.12"/>
</a>
</g>
</g>
<!-- Node52 -->
<g id="Node000052" class="node">
<title>Node52</title>
<g id="a_Node000052"><a xlink:title=" ">
<polygon fill="#e0e0e0" stroke="#999999" points="238,-195 154,-195 154,-176 238,-176 238,-195"/>
<text text-anchor="middle" x="196" y="-183" font-family="Helvetica,sans-Serif" font-size="10.00">boost/any.hpp</text>
</a>
</g>
</g>
<!-- Node51&#45;&gt;Node52 -->
<g id="edge50_Node000051_Node000052" class="edge">
<title>Node51&#45;&gt;Node52</title>
<g id="a_edge50_Node000051_Node000052"><a xlink:title=" ">
<path fill="none" stroke="#63b8ff" d="M294.2,-230.98C275.38,-222.46 246.18,-209.23 224.5,-199.41"/>
<polygon fill="#63b8ff" stroke="#63b8ff" points="225.69,-196.11 215.14,-195.17 222.8,-202.48 225.69,-196.11"/>
</a>
</g>
</g>
<!-- Node53 -->
<g id="Node000053" class="node">
<title>Node53</title>
<g id="a_Node000053"><a xlink:title=" ">
<polygon fill="#e0e0e0" stroke="#999999" points="362,-195 294,-195 294,-176 362,-176 362,-195"/>
<text text-anchor="middle" x="328" y="-183" font-family="Helvetica,sans-Serif" font-size="10.00">sys/time.h</text>
</a>
</g>
</g>
<!-- Node51&#45;&gt;Node53 -->
<g id="edge51_Node000051_Node000053" class="edge">
<title>Node51&#45;&gt;Node53</title>
<g id="a_edge51_Node000051_Node000053"><a xlink:title=" ">
<path fill="none" stroke="#63b8ff" d="M315.48,-230.75C317.46,-223.72 320.32,-213.62 322.81,-204.84"/>
<polygon fill="#63b8ff" stroke="#63b8ff" points="326.21,-205.66 325.57,-195.09 319.48,-203.76 326.21,-205.66"/>
</a>
</g>
</g>
</g>
</svg>
