<?xml version="1.0" encoding="UTF-8" standalone="no"?>
<!DOCTYPE svg PUBLIC "-//W3C//DTD SVG 1.1//EN"
 "http://www.w3.org/Graphics/SVG/1.1/DTD/svg11.dtd">
<!-- Generated by graphviz version 2.43.0 (0)
 -->
<!-- Title: OMSim.cc Pages: 1 -->
<svg width="2919pt" height="324pt"
 viewBox="0.00 0.00 2918.50 324.00" xmlns="http://www.w3.org/2000/svg" xmlns:xlink="http://www.w3.org/1999/xlink">
<g id="graph0" class="graph" transform="scale(1 1) rotate(0) translate(4 320)">
<title>OMSim.cc</title>
<!-- Node1 -->
<g id="Node000001" class="node">
<title>Node1</title>
<g id="a_Node000001"><a xlink:title="Implementation of the OMSim class.">
<polygon fill="#999999" stroke="#666666" points="1353,-316 1288,-316 1288,-297 1353,-297 1353,-316"/>
<text text-anchor="middle" x="1320.5" y="-304" font-family="Helvetica,sans-Serif" font-size="10.00">OMSim.cc</text>
</a>
</g>
</g>
<!-- Node2 -->
<g id="Node000002" class="node">
<title>Node2</title>
<g id="a_Node000002"><a xlink:title=" ">
<polygon fill="#e0e0e0" stroke="#999999" points="67,-261 0,-261 0,-242 67,-242 67,-261"/>
<text text-anchor="middle" x="33.5" y="-249" font-family="Helvetica,sans-Serif" font-size="10.00">OMSim.hh</text>
</a>
</g>
</g>
<!-- Node1&#45;&gt;Node2 -->
<g id="edge1_Node000001_Node000002" class="edge">
<title>Node1&#45;&gt;Node2</title>
<g id="a_edge1_Node000001_Node000002"><a xlink:title=" ">
<path fill="none" stroke="#63b8ff" d="M1287.75,-304.94C1116.8,-301.94 325.38,-286.85 81.5,-261 80.2,-260.86 78.88,-260.71 77.55,-260.55"/>
<polygon fill="#63b8ff" stroke="#63b8ff" points="77.64,-257.02 67.24,-259.08 76.65,-263.95 77.64,-257.02"/>
</a>
</g>
</g>
<!-- Node3 -->
<g id="Node000003" class="node">
<title>Node3</title>
<g id="a_Node000003"><a xlink:href="_o_m_sim_tools_8hh.html" target="_top" xlink:title="Definition of Tools namespace, a collection of helper methods.">
<polygon fill="white" stroke="#666666" points="1366.5,-261 1274.5,-261 1274.5,-242 1366.5,-242 1366.5,-261"/>
<text text-anchor="middle" x="1320.5" y="-249" font-family="Helvetica,sans-Serif" font-size="10.00">OMSimTools.hh</text>
</a>
</g>
</g>
<!-- Node1&#45;&gt;Node3 -->
<g id="edge2_Node000001_Node000003" class="edge">
<title>Node1&#45;&gt;Node3</title>
<g id="a_edge2_Node000001_Node000003"><a xlink:title=" ">
<path fill="none" stroke="#63b8ff" d="M1320.5,-296.75C1320.5,-289.8 1320.5,-279.85 1320.5,-271.13"/>
<polygon fill="#63b8ff" stroke="#63b8ff" points="1324,-271.09 1320.5,-261.09 1317,-271.09 1324,-271.09"/>
</a>
</g>
</g>
<!-- Node4 -->
<g id="Node000004" class="node">
<title>Node4</title>
<g id="a_Node000004"><a xlink:href="_o_m_sim_logger_8hh_source.html" target="_top" xlink:title=" ">
<polygon fill="white" stroke="#666666" points="221,-90.5 122,-90.5 122,-71.5 221,-71.5 221,-90.5"/>
<text text-anchor="middle" x="171.5" y="-78.5" font-family="Helvetica,sans-Serif" font-size="10.00">OMSimLogger.hh</text>
</a>
</g>
</g>
<!-- Node1&#45;&gt;Node4 -->
<g id="edge55_Node000001_Node000004" class="edge">
<title>Node1&#45;&gt;Node4</title>
<g id="a_edge55_Node000001_Node000004"><a xlink:title=" ">
<path fill="none" stroke="#63b8ff" d="M1287.95,-305.88C1125.76,-307.29 404.88,-307.65 210.5,-206 182.26,-191.23 175.38,-180.95 164.5,-151 158.54,-134.59 161.58,-114.62 165.34,-100.4"/>
<polygon fill="#63b8ff" stroke="#63b8ff" points="168.69,-101.38 168.21,-90.8 161.99,-99.38 168.69,-101.38"/>
</a>
</g>
</g>
<!-- Node55 -->
<g id="Node000055" class="node">
<title>Node55</title>
<g id="a_Node000055"><a xlink:href="_o_m_sim_action_initialization_8hh_source.html" target="_top" xlink:title=" ">
<polygon fill="white" stroke="#666666" points="1542.5,-261 1384.5,-261 1384.5,-242 1542.5,-242 1542.5,-261"/>
<text text-anchor="middle" x="1463.5" y="-249" font-family="Helvetica,sans-Serif" font-size="10.00">OMSimActionInitialization.hh</text>
</a>
</g>
</g>
<!-- Node1&#45;&gt;Node55 -->
<g id="edge56_Node000001_Node000055" class="edge">
<title>Node1&#45;&gt;Node55</title>
<g id="a_edge56_Node000001_Node000055"><a xlink:title=" ">
<path fill="none" stroke="#63b8ff" d="M1343.48,-296.98C1367,-288.27 1403.79,-274.63 1430.44,-264.75"/>
<polygon fill="#63b8ff" stroke="#63b8ff" points="1431.95,-267.93 1440.11,-261.17 1429.51,-261.36 1431.95,-267.93"/>
</a>
</g>
</g>
<!-- Node57 -->
<g id="Node000057" class="node">
<title>Node57</title>
<g id="a_Node000057"><a xlink:title=" ">
<polygon fill="#e0e0e0" stroke="#999999" points="1710.5,-261 1560.5,-261 1560.5,-242 1710.5,-242 1710.5,-261"/>
<text text-anchor="middle" x="1635.5" y="-249" font-family="Helvetica,sans-Serif" font-size="10.00">boost/program_options.hpp</text>
</a>
</g>
</g>
<!-- Node1&#45;&gt;Node57 -->
<g id="edge58_Node000001_Node000057" class="edge">
<title>Node1&#45;&gt;Node57</title>
<g id="a_edge58_Node000001_Node000057"><a xlink:title=" ">
<path fill="none" stroke="#63b8ff" d="M1353.02,-300.03C1405.28,-291.24 1508.76,-273.82 1574.92,-262.69"/>
<polygon fill="#63b8ff" stroke="#63b8ff" points="1575.52,-266.14 1584.8,-261.03 1574.36,-259.24 1575.52,-266.14"/>
</a>
</g>
</g>
<!-- Node3&#45;&gt;Node4 -->
<g id="edge3_Node000003_Node000004" class="edge">
<title>Node3&#45;&gt;Node4</title>
<g id="a_edge3_Node000003_Node000004"><a xlink:title=" ">
<path fill="none" stroke="#63b8ff" d="M1274.38,-249.66C1086.08,-246.09 380.96,-231.16 284.5,-206 231.99,-192.31 205.27,-196.37 175.5,-151 165.85,-136.29 165.94,-115.8 167.78,-100.97"/>
<polygon fill="#63b8ff" stroke="#63b8ff" points="171.26,-101.35 169.4,-90.92 164.35,-100.24 171.26,-101.35"/>
</a>
</g>
</g>
<!-- Node9 -->
<g id="Node000009" class="node">
<title>Node9</title>
<g id="a_Node000009"><a xlink:href="_o_m_sim_detector_component_8hh.html" target="_top" xlink:title="Provides helper base class OMSimDetectorComponent for constructing and managing detector components i...">
<polygon fill="white" stroke="#666666" points="1403,-206 1238,-206 1238,-187 1403,-187 1403,-206"/>
<text text-anchor="middle" x="1320.5" y="-194" font-family="Helvetica,sans-Serif" font-size="10.00">OMSimDetectorComponent.hh</text>
</a>
</g>
</g>
<!-- Node3&#45;&gt;Node9 -->
<g id="edge8_Node000003_Node000009" class="edge">
<title>Node3&#45;&gt;Node9</title>
<g id="a_edge8_Node000003_Node000009"><a xlink:title=" ">
<path fill="none" stroke="#63b8ff" d="M1320.5,-241.75C1320.5,-234.8 1320.5,-224.85 1320.5,-216.13"/>
<polygon fill="#63b8ff" stroke="#63b8ff" points="1324,-216.09 1320.5,-206.09 1317,-216.09 1324,-216.09"/>
</a>
</g>
</g>
<!-- Node25 -->
<g id="Node000025" class="node">
<title>Node25</title>
<g id="a_Node000025"><a xlink:href="_o_m_sim_command_args_table_8hh.html" target="_top" xlink:title="Definition of the OMSimCommandArgsTable singleton class, which controls user args.">
<polygon fill="white" stroke="#666666" points="457.5,-206 293.5,-206 293.5,-187 457.5,-187 457.5,-206"/>
<text text-anchor="middle" x="375.5" y="-194" font-family="Helvetica,sans-Serif" font-size="10.00">OMSimCommandArgsTable.hh</text>
</a>
</g>
</g>
<!-- Node3&#45;&gt;Node25 -->
<g id="edge18_Node000003_Node000025" class="edge">
<title>Node3&#45;&gt;Node25</title>
<g id="a_edge18_Node000003_Node000025"><a xlink:title=" ">
<path fill="none" stroke="#63b8ff" d="M1274.28,-247.91C1126.86,-239.64 665.89,-213.79 467.65,-202.67"/>
<polygon fill="#63b8ff" stroke="#63b8ff" points="467.73,-199.17 457.55,-202.1 467.34,-206.16 467.73,-199.17"/>
</a>
</g>
</g>
<!-- Node30 -->
<g id="Node000030" class="node">
<title>Node30</title>
<g id="a_Node000030"><a xlink:title=" ">
<polygon fill="#e0e0e0" stroke="#999999" points="1558,-206 1421,-206 1421,-187 1558,-187 1558,-206"/>
<text text-anchor="middle" x="1489.5" y="-194" font-family="Helvetica,sans-Serif" font-size="10.00">G4LogicalSkinSurface.hh</text>
</a>
</g>
</g>
<!-- Node3&#45;&gt;Node30 -->
<g id="edge24_Node000003_Node000030" class="edge">
<title>Node3&#45;&gt;Node30</title>
<g id="a_edge24_Node000003_Node000030"><a xlink:title=" ">
<path fill="none" stroke="#63b8ff" d="M1347.65,-241.98C1376.03,-233.09 1420.73,-219.07 1452.36,-209.15"/>
<polygon fill="#63b8ff" stroke="#63b8ff" points="1453.64,-212.41 1462.13,-206.08 1451.55,-205.73 1453.64,-212.41"/>
</a>
</g>
</g>
<!-- Node31 -->
<g id="Node000031" class="node">
<title>Node31</title>
<g id="a_Node000031"><a xlink:title=" ">
<polygon fill="#e0e0e0" stroke="#999999" points="585,-151 518,-151 518,-132 585,-132 585,-151"/>
<text text-anchor="middle" x="551.5" y="-139" font-family="Helvetica,sans-Serif" font-size="10.00">globals.hh</text>
</a>
</g>
</g>
<!-- Node3&#45;&gt;Node31 -->
<g id="edge25_Node000003_Node000031" class="edge">
<title>Node3&#45;&gt;Node31</title>
<g id="a_edge25_Node000003_Node000031"><a xlink:title=" ">
<path fill="none" stroke="#63b8ff" d="M1274.29,-246.65C1197.08,-239.97 1037.07,-225.12 902.5,-206 767.63,-186.84 732.18,-177.5 595.44,-151.35"/>
<polygon fill="#63b8ff" stroke="#63b8ff" points="595.89,-147.87 585.41,-149.43 594.58,-154.75 595.89,-147.87"/>
</a>
</g>
</g>
<!-- Node32 -->
<g id="Node000032" class="node">
<title>Node32</title>
<g id="a_Node000032"><a xlink:title=" ">
<polygon fill="#e0e0e0" stroke="#999999" points="1637,-206 1576,-206 1576,-187 1637,-187 1637,-206"/>
<text text-anchor="middle" x="1606.5" y="-194" font-family="Helvetica,sans-Serif" font-size="10.00">TGraph.h</text>
</a>
</g>
</g>
<!-- Node3&#45;&gt;Node32 -->
<g id="edge26_Node000003_Node000032" class="edge">
<title>Node3&#45;&gt;Node32</title>
<g id="a_edge26_Node000003_Node000032"><a xlink:title=" ">
<path fill="none" stroke="#63b8ff" d="M1366.83,-242.55C1414.21,-234.33 1490.2,-220.87 1565.77,-206.09"/>
<polygon fill="#63b8ff" stroke="#63b8ff" points="1566.81,-209.45 1575.94,-204.09 1565.46,-202.59 1566.81,-209.45"/>
</a>
</g>
</g>
<!-- Node33 -->
<g id="Node000033" class="node">
<title>Node33</title>
<g id="a_Node000033"><a xlink:title=" ">
<polygon fill="#e0e0e0" stroke="#999999" points="1708,-206 1655,-206 1655,-187 1708,-187 1708,-206"/>
<text text-anchor="middle" x="1681.5" y="-194" font-family="Helvetica,sans-Serif" font-size="10.00">TH2D.h</text>
</a>
</g>
</g>
<!-- Node3&#45;&gt;Node33 -->
<g id="edge27_Node000003_Node000033" class="edge">
<title>Node3&#45;&gt;Node33</title>
<g id="a_edge27_Node000003_Node000033"><a xlink:title=" ">
<path fill="none" stroke="#63b8ff" d="M1366.7,-243.29C1369.68,-242.85 1372.63,-242.41 1375.5,-242 1492.17,-225.21 1524.74,-227.78 1644.87,-205.94"/>
<polygon fill="#63b8ff" stroke="#63b8ff" points="1645.62,-209.36 1654.83,-204.11 1644.36,-202.47 1645.62,-209.36"/>
</a>
</g>
</g>
<!-- Node34 -->
<g id="Node000034" class="node">
<title>Node34</title>
<g id="a_Node000034"><a xlink:title=" ">
<polygon fill="#e0e0e0" stroke="#999999" points="1777,-206 1726,-206 1726,-187 1777,-187 1777,-206"/>
<text text-anchor="middle" x="1751.5" y="-194" font-family="Helvetica,sans-Serif" font-size="10.00">variant</text>
</a>
</g>
</g>
<!-- Node3&#45;&gt;Node34 -->
<g id="edge28_Node000003_Node000034" class="edge">
<title>Node3&#45;&gt;Node34</title>
<g id="a_edge28_Node000003_Node000034"><a xlink:title=" ">
<path fill="none" stroke="#63b8ff" d="M1366.69,-243.2C1369.67,-242.78 1372.63,-242.37 1375.5,-242 1523.38,-222.78 1564.59,-231.64 1715.84,-205.86"/>
<polygon fill="#63b8ff" stroke="#63b8ff" points="1716.71,-209.27 1725.97,-204.12 1715.52,-202.37 1716.71,-209.27"/>
</a>
</g>
</g>
<!-- Node35 -->
<g id="Node000035" class="node">
<title>Node35</title>
<g id="a_Node000035"><a xlink:title=" ">
<polygon fill="#e0e0e0" stroke="#999999" points="1851.5,-206 1795.5,-206 1795.5,-187 1851.5,-187 1851.5,-206"/>
<text text-anchor="middle" x="1823.5" y="-194" font-family="Helvetica,sans-Serif" font-size="10.00">optional</text>
</a>
</g>
</g>
<!-- Node3&#45;&gt;Node35 -->
<g id="edge29_Node000003_Node000035" class="edge">
<title>Node3&#45;&gt;Node35</title>
<g id="a_edge29_Node000003_Node000035"><a xlink:title=" ">
<path fill="none" stroke="#63b8ff" d="M1366.68,-243.14C1369.66,-242.73 1372.62,-242.35 1375.5,-242 1557.1,-220.02 1604.74,-234.03 1785.5,-206 1785.6,-205.98 1785.7,-205.97 1785.8,-205.95"/>
<polygon fill="#63b8ff" stroke="#63b8ff" points="1786.14,-209.45 1795.36,-204.23 1784.9,-202.56 1786.14,-209.45"/>
</a>
</g>
</g>
<!-- Node36 -->
<g id="Node000036" class="node">
<title>Node36</title>
<g id="a_Node000036"><a xlink:title=" ">
<polygon fill="#e0e0e0" stroke="#999999" points="706,-151 603,-151 603,-132 706,-132 706,-151"/>
<text text-anchor="middle" x="654.5" y="-139" font-family="Helvetica,sans-Serif" font-size="10.00">G4ThreeVector.hh</text>
</a>
</g>
</g>
<!-- Node3&#45;&gt;Node36 -->
<g id="edge30_Node000003_Node000036" class="edge">
<title>Node3&#45;&gt;Node36</title>
<g id="a_edge30_Node000003_Node000036"><a xlink:title=" ">
<path fill="none" stroke="#63b8ff" d="M1274.45,-244.21C1214.67,-235.94 1107.16,-220.75 1015.5,-206 907.41,-188.61 781.56,-165.92 710.64,-152.9"/>
<polygon fill="#63b8ff" stroke="#63b8ff" points="711.05,-149.42 700.59,-151.05 709.79,-156.3 711.05,-149.42"/>
</a>
</g>
</g>
<!-- Node37 -->
<g id="Node000037" class="node">
<title>Node37</title>
<g id="a_Node000037"><a xlink:title=" ">
<polygon fill="#e0e0e0" stroke="#999999" points="1987.5,-206 1869.5,-206 1869.5,-187 1987.5,-187 1987.5,-206"/>
<text text-anchor="middle" x="1928.5" y="-194" font-family="Helvetica,sans-Serif" font-size="10.00">G4RotationMatrix.hh</text>
</a>
</g>
</g>
<!-- Node3&#45;&gt;Node37 -->
<g id="edge31_Node000003_Node000037" class="edge">
<title>Node3&#45;&gt;Node37</title>
<g id="a_edge31_Node000003_Node000037"><a xlink:title=" ">
<path fill="none" stroke="#63b8ff" d="M1366.68,-243.09C1369.66,-242.7 1372.62,-242.33 1375.5,-242 1587,-217.85 1643.71,-227.12 1859.14,-206.08"/>
<polygon fill="#63b8ff" stroke="#63b8ff" points="1859.57,-209.56 1869.18,-205.09 1858.89,-202.59 1859.57,-209.56"/>
</a>
</g>
</g>
<!-- Node38 -->
<g id="Node000038" class="node">
<title>Node38</title>
<g id="a_Node000038"><a xlink:title=" ">
<polygon fill="#e0e0e0" stroke="#999999" points="840.5,-151 724.5,-151 724.5,-132 840.5,-132 840.5,-151"/>
<text text-anchor="middle" x="782.5" y="-139" font-family="Helvetica,sans-Serif" font-size="10.00">G4LogicalVolume.hh</text>
</a>
</g>
</g>
<!-- Node3&#45;&gt;Node38 -->
<g id="edge32_Node000003_Node000038" class="edge">
<title>Node3&#45;&gt;Node38</title>
<g id="a_edge32_Node000003_Node000038"><a xlink:title=" ">
<path fill="none" stroke="#63b8ff" d="M1277.83,-241.94C1180.32,-222.36 941.39,-174.4 835.04,-153.05"/>
<polygon fill="#63b8ff" stroke="#63b8ff" points="835.66,-149.6 825.17,-151.07 834.29,-156.47 835.66,-149.6"/>
</a>
</g>
</g>
<!-- Node39 -->
<g id="Node000039" class="node">
<title>Node39</title>
<g id="a_Node000039"><a xlink:href="_c_a_d_mesh_8hh_source.html" target="_top" xlink:title=" ">
<polygon fill="white" stroke="#666666" points="1220,-206 1141,-206 1141,-187 1220,-187 1220,-206"/>
<text text-anchor="middle" x="1180.5" y="-194" font-family="Helvetica,sans-Serif" font-size="10.00">CADMesh.hh</text>
</a>
</g>
</g>
<!-- Node3&#45;&gt;Node39 -->
<g id="edge33_Node000003_Node000039" class="edge">
<title>Node3&#45;&gt;Node39</title>
<g id="a_edge33_Node000003_Node000039"><a xlink:title=" ">
<path fill="none" stroke="#63b8ff" d="M1298.01,-241.98C1274.98,-233.27 1238.96,-219.63 1212.87,-209.75"/>
<polygon fill="#63b8ff" stroke="#63b8ff" points="1213.99,-206.44 1203.4,-206.17 1211.52,-212.98 1213.99,-206.44"/>
</a>
</g>
</g>
<!-- Node54 -->
<g id="Node000054" class="node">
<title>Node54</title>
<g id="a_Node000054"><a xlink:title=" ">
<polygon fill="#e0e0e0" stroke="#999999" points="2103.5,-206 2005.5,-206 2005.5,-187 2103.5,-187 2103.5,-206"/>
<text text-anchor="middle" x="2054.5" y="-194" font-family="Helvetica,sans-Serif" font-size="10.00">G4MultiUnion.hh</text>
</a>
</g>
</g>
<!-- Node3&#45;&gt;Node54 -->
<g id="edge54_Node000003_Node000054" class="edge">
<title>Node3&#45;&gt;Node54</title>
<g id="a_edge54_Node000003_Node000054"><a xlink:title=" ">
<path fill="none" stroke="#63b8ff" d="M1366.67,-243.04C1369.66,-242.66 1372.62,-242.31 1375.5,-242 1647.07,-213.21 1719.7,-233.56 1995.18,-206.03"/>
<polygon fill="#63b8ff" stroke="#63b8ff" points="1995.89,-209.48 2005.49,-204.99 1995.19,-202.51 1995.89,-209.48"/>
</a>
</g>
</g>
<!-- Node5 -->
<g id="Node000005" class="node">
<title>Node5</title>
<g id="a_Node000005"><a xlink:title=" ">
<polygon fill="#e0e0e0" stroke="#999999" points="98,-24.5 5,-24.5 5,-5.5 98,-5.5 98,-24.5"/>
<text text-anchor="middle" x="51.5" y="-12.5" font-family="Helvetica,sans-Serif" font-size="10.00">spdlog/spdlog.h</text>
</a>
</g>
</g>
<!-- Node4&#45;&gt;Node5 -->
<g id="edge4_Node000004_Node000005" class="edge">
<title>Node4&#45;&gt;Node5</title>
<g id="a_edge4_Node000004_Node000005"><a xlink:title=" ">
<path fill="none" stroke="#63b8ff" d="M155.32,-71.37C135.19,-60.63 100.59,-42.18 76.91,-29.55"/>
<polygon fill="#63b8ff" stroke="#63b8ff" points="78.28,-26.32 67.81,-24.7 74.99,-32.49 78.28,-26.32"/>
</a>
</g>
</g>
<!-- Node6 -->
<g id="Node000006" class="node">
<title>Node6</title>
<g id="a_Node000006"><a xlink:title=" ">
<polygon fill="#e0e0e0" stroke="#999999" points="227,-30 116,-30 116,0 227,0 227,-30"/>
<text text-anchor="start" x="124" y="-18" font-family="Helvetica,sans-Serif" font-size="10.00">spdlog/sinks/stdout</text>
<text text-anchor="middle" x="171.5" y="-7" font-family="Helvetica,sans-Serif" font-size="10.00">_color_sinks.h</text>
</a>
</g>
</g>
<!-- Node4&#45;&gt;Node6 -->
<g id="edge5_Node000004_Node000006" class="edge">
<title>Node4&#45;&gt;Node6</title>
<g id="a_edge5_Node000004_Node000006"><a xlink:title=" ">
<path fill="none" stroke="#63b8ff" d="M171.5,-71.37C171.5,-63.49 171.5,-51.45 171.5,-40.6"/>
<polygon fill="#63b8ff" stroke="#63b8ff" points="175,-40.36 171.5,-30.36 168,-40.36 175,-40.36"/>
</a>
</g>
</g>
<!-- Node7 -->
<g id="Node000007" class="node">
<title>Node7</title>
<g id="a_Node000007"><a xlink:title=" ">
<polygon fill="#e0e0e0" stroke="#999999" points="658.5,-24.5 600.5,-24.5 600.5,-5.5 658.5,-5.5 658.5,-24.5"/>
<text text-anchor="middle" x="629.5" y="-12.5" font-family="Helvetica,sans-Serif" font-size="10.00">memory</text>
</a>
</g>
</g>
<!-- Node4&#45;&gt;Node7 -->
<g id="edge6_Node000004_Node000007" class="edge">
<title>Node4&#45;&gt;Node7</title>
<g id="a_edge6_Node000004_Node000007"><a xlink:title=" ">
<path fill="none" stroke="#63b8ff" d="M221.39,-73.03C313.21,-60.2 507.18,-33.09 590.32,-21.47"/>
<polygon fill="#63b8ff" stroke="#63b8ff" points="590.95,-24.92 600.37,-20.07 589.98,-17.99 590.95,-24.92"/>
</a>
</g>
</g>
<!-- Node8 -->
<g id="Node000008" class="node">
<title>Node8</title>
<g id="a_Node000008"><a xlink:title=" ">
<polygon fill="#e0e0e0" stroke="#999999" points="343.5,-24.5 245.5,-24.5 245.5,-5.5 343.5,-5.5 343.5,-24.5"/>
<text text-anchor="middle" x="294.5" y="-12.5" font-family="Helvetica,sans-Serif" font-size="10.00">spdlog/fmt/fmt.h</text>
</a>
</g>
</g>
<!-- Node4&#45;&gt;Node8 -->
<g id="edge7_Node000004_Node000008" class="edge">
<title>Node4&#45;&gt;Node8</title>
<g id="a_edge7_Node000004_Node000008"><a xlink:title=" ">
<path fill="none" stroke="#63b8ff" d="M188.09,-71.37C208.81,-60.59 244.5,-42.02 268.78,-29.38"/>
<polygon fill="#63b8ff" stroke="#63b8ff" points="270.53,-32.42 277.78,-24.7 267.3,-26.21 270.53,-32.42"/>
</a>
</g>
</g>
<!-- Node10 -->
<g id="Node000010" class="node">
<title>Node10</title>
<g id="a_Node000010"><a xlink:href="_o_m_sim_input_data_8hh.html" target="_top" xlink:title="Definition of ParameterTable and OMSimInputData.">
<polygon fill="white" stroke="#666666" points="2387,-151 2272,-151 2272,-132 2387,-132 2387,-151"/>
<text text-anchor="middle" x="2329.5" y="-139" font-family="Helvetica,sans-Serif" font-size="10.00">OMSimInputData.hh</text>
</a>
</g>
</g>
<!-- Node9&#45;&gt;Node10 -->
<g id="edge9_Node000009_Node000010" class="edge">
<title>Node9&#45;&gt;Node10</title>
<g id="a_edge9_Node000009_Node000010"><a xlink:title=" ">
<path fill="none" stroke="#63b8ff" d="M1403.31,-187.58C1406.07,-187.38 1408.81,-187.18 1411.5,-187 1785.87,-161.61 1883.57,-182.48 2261.66,-150.98"/>
<polygon fill="#63b8ff" stroke="#63b8ff" points="2262.12,-154.46 2271.79,-150.13 2261.53,-147.48 2262.12,-154.46"/>
</a>
</g>
</g>
<!-- Node21 -->
<g id="Node000021" class="node">
<title>Node21</title>
<g id="a_Node000021"><a xlink:title=" ">
<polygon fill="#e0e0e0" stroke="#999999" points="2512,-151 2405,-151 2405,-132 2512,-132 2512,-151"/>
<text text-anchor="middle" x="2458.5" y="-139" font-family="Helvetica,sans-Serif" font-size="10.00">G4Transform3D.hh</text>
</a>
</g>
</g>
<!-- Node9&#45;&gt;Node21 -->
<g id="edge14_Node000009_Node000021" class="edge">
<title>Node9&#45;&gt;Node21</title>
<g id="a_edge14_Node000009_Node000021"><a xlink:title=" ">
<path fill="none" stroke="#63b8ff" d="M1403.31,-187.56C1406.07,-187.36 1408.81,-187.17 1411.5,-187 1845.34,-158.83 1958.36,-188.34 2394.73,-151.06"/>
<polygon fill="#63b8ff" stroke="#63b8ff" points="2395.11,-154.55 2404.77,-150.2 2394.5,-147.57 2395.11,-154.55"/>
</a>
</g>
</g>
<!-- Node22 -->
<g id="Node000022" class="node">
<title>Node22</title>
<g id="a_Node000022"><a xlink:title=" ">
<polygon fill="#e0e0e0" stroke="#999999" points="2638.5,-151 2530.5,-151 2530.5,-132 2638.5,-132 2638.5,-151"/>
<text text-anchor="middle" x="2584.5" y="-139" font-family="Helvetica,sans-Serif" font-size="10.00">G4VisAttributes.hh</text>
</a>
</g>
</g>
<!-- Node9&#45;&gt;Node22 -->
<g id="edge15_Node000009_Node000022" class="edge">
<title>Node9&#45;&gt;Node22</title>
<g id="a_edge15_Node000009_Node000022"><a xlink:title=" ">
<path fill="none" stroke="#63b8ff" d="M1403.31,-187.55C1406.07,-187.35 1408.81,-187.17 1411.5,-187 1900.75,-156.24 2027.88,-191.56 2520.03,-151.02"/>
<polygon fill="#63b8ff" stroke="#63b8ff" points="2520.57,-154.49 2530.24,-150.18 2519.99,-147.52 2520.57,-154.49"/>
</a>
</g>
</g>
<!-- Node23 -->
<g id="Node000023" class="node">
<title>Node23</title>
<g id="a_Node000023"><a xlink:title=" ">
<polygon fill="#e0e0e0" stroke="#999999" points="2782,-151 2657,-151 2657,-132 2782,-132 2782,-151"/>
<text text-anchor="middle" x="2719.5" y="-139" font-family="Helvetica,sans-Serif" font-size="10.00">G4SubtractionSolid.hh</text>
</a>
</g>
</g>
<!-- Node9&#45;&gt;Node23 -->
<g id="edge16_Node000009_Node000023" class="edge">
<title>Node9&#45;&gt;Node23</title>
<g id="a_edge16_Node000009_Node000023"><a xlink:title=" ">
<path fill="none" stroke="#63b8ff" d="M1403.31,-187.54C1406.07,-187.35 1408.81,-187.16 1411.5,-187 1956.69,-153.63 2097.69,-190.8 2646.54,-150.99"/>
<polygon fill="#63b8ff" stroke="#63b8ff" points="2646.98,-154.46 2656.7,-150.24 2646.47,-147.48 2646.98,-154.46"/>
</a>
</g>
</g>
<!-- Node24 -->
<g id="Node000024" class="node">
<title>Node24</title>
<g id="a_Node000024"><a xlink:title=" ">
<polygon fill="#e0e0e0" stroke="#999999" points="2910.5,-151 2800.5,-151 2800.5,-132 2910.5,-132 2910.5,-151"/>
<text text-anchor="middle" x="2855.5" y="-139" font-family="Helvetica,sans-Serif" font-size="10.00">G4PVPlacement.hh</text>
</a>
</g>
</g>
<!-- Node9&#45;&gt;Node24 -->
<g id="edge17_Node000009_Node000024" class="edge">
<title>Node9&#45;&gt;Node24</title>
<g id="a_edge17_Node000009_Node000024"><a xlink:title=" ">
<path fill="none" stroke="#63b8ff" d="M1403.31,-187.53C1406.07,-187.34 1408.81,-187.16 1411.5,-187 2020.51,-150.65 2178.11,-198.91 2789.97,-151.02"/>
<polygon fill="#63b8ff" stroke="#63b8ff" points="2790.69,-154.47 2800.38,-150.2 2790.14,-147.49 2790.69,-154.47"/>
</a>
</g>
</g>
<!-- Node10&#45;&gt;Node4 -->
<g id="edge10_Node000010_Node000004" class="edge">
<title>Node10&#45;&gt;Node4</title>
<g id="a_edge10_Node000010_Node000004"><a xlink:title=" ">
<path fill="none" stroke="#63b8ff" d="M2271.79,-132.8C2268.65,-132.5 2265.54,-132.23 2262.5,-132 1852.08,-101.14 528.95,-85.73 231.32,-82.6"/>
<polygon fill="#63b8ff" stroke="#63b8ff" points="231.21,-79.1 221.17,-82.5 231.14,-86.1 231.21,-79.1"/>
</a>
</g>
</g>
<!-- Node11 -->
<g id="Node000011" class="node">
<title>Node11</title>
<g id="a_Node000011"><a xlink:href="_o_m_sim_op_boundary_process_8hh_source.html" target="_top" xlink:title=" ">
<polygon fill="#fff0f0" stroke="red" points="2251.5,-90.5 2087.5,-90.5 2087.5,-71.5 2251.5,-71.5 2251.5,-90.5"/>
<text text-anchor="middle" x="2169.5" y="-78.5" font-family="Helvetica,sans-Serif" font-size="10.00">OMSimOpBoundaryProcess.hh</text>
</a>
</g>
</g>
<!-- Node10&#45;&gt;Node11 -->
<g id="edge11_Node000010_Node000011" class="edge">
<title>Node10&#45;&gt;Node11</title>
<g id="a_edge11_Node000010_Node000011"><a xlink:title=" ">
<path fill="none" stroke="#63b8ff" d="M2306.23,-131.99C2278.86,-121.99 2233.23,-105.3 2202.28,-93.99"/>
<polygon fill="#63b8ff" stroke="#63b8ff" points="2203.39,-90.66 2192.79,-90.52 2200.98,-97.24 2203.39,-90.66"/>
</a>
</g>
</g>
<!-- Node19 -->
<g id="Node000019" class="node">
<title>Node19</title>
<g id="a_Node000019"><a xlink:title=" ">
<polygon fill="#e0e0e0" stroke="#999999" points="2389,-90.5 2270,-90.5 2270,-71.5 2389,-71.5 2389,-90.5"/>
<text text-anchor="middle" x="2329.5" y="-78.5" font-family="Helvetica,sans-Serif" font-size="10.00">G4SystemOfUnits.hh</text>
</a>
</g>
</g>
<!-- Node10&#45;&gt;Node19 -->
<g id="edge12_Node000010_Node000019" class="edge">
<title>Node10&#45;&gt;Node19</title>
<g id="a_edge12_Node000010_Node000019"><a xlink:title=" ">
<path fill="none" stroke="#63b8ff" d="M2329.5,-131.87C2329.5,-123.75 2329.5,-111.31 2329.5,-100.89"/>
<polygon fill="#63b8ff" stroke="#63b8ff" points="2333,-100.67 2329.5,-90.67 2326,-100.67 2333,-100.67"/>
</a>
</g>
</g>
<!-- Node20 -->
<g id="Node000020" class="node">
<title>Node20</title>
<g id="a_Node000020"><a xlink:title=" ">
<polygon fill="#e0e0e0" stroke="#999999" points="2520,-96 2407,-96 2407,-66 2520,-66 2520,-96"/>
<text text-anchor="start" x="2415" y="-84" font-family="Helvetica,sans-Serif" font-size="10.00">boost/property_tree</text>
<text text-anchor="middle" x="2463.5" y="-73" font-family="Helvetica,sans-Serif" font-size="10.00">/json_parser.hpp</text>
</a>
</g>
</g>
<!-- Node10&#45;&gt;Node20 -->
<g id="edge13_Node000010_Node000020" class="edge">
<title>Node10&#45;&gt;Node20</title>
<g id="a_edge13_Node000010_Node000020"><a xlink:title=" ">
<path fill="none" stroke="#63b8ff" d="M2348.98,-131.99C2368.02,-123.68 2397.59,-110.78 2421.91,-100.16"/>
<polygon fill="#63b8ff" stroke="#63b8ff" points="2423.52,-103.27 2431.28,-96.06 2420.72,-96.86 2423.52,-103.27"/>
</a>
</g>
</g>
<!-- Node25&#45;&gt;Node4 -->
<g id="edge19_Node000025_Node000004" class="edge">
<title>Node25&#45;&gt;Node4</title>
<g id="a_edge19_Node000025_Node000004"><a xlink:title=" ">
<path fill="none" stroke="#63b8ff" d="M310.55,-186.97C264.38,-179.64 207.65,-167.6 190.5,-151 176.99,-137.93 172.82,-116.21 171.66,-100.63"/>
<polygon fill="#63b8ff" stroke="#63b8ff" points="175.15,-100.43 171.26,-90.58 168.16,-100.71 175.15,-100.43"/>
</a>
</g>
</g>
<!-- Node26 -->
<g id="Node000026" class="node">
<title>Node26</title>
<g id="a_Node000026"><a xlink:title=" ">
<polygon fill="#e0e0e0" stroke="#999999" points="443,-151 388,-151 388,-132 443,-132 443,-151"/>
<text text-anchor="middle" x="415.5" y="-139" font-family="Helvetica,sans-Serif" font-size="10.00">fstream</text>
</a>
</g>
</g>
<!-- Node25&#45;&gt;Node26 -->
<g id="edge20_Node000025_Node000026" class="edge">
<title>Node25&#45;&gt;Node26</title>
<g id="a_edge20_Node000025_Node000026"><a xlink:title=" ">
<path fill="none" stroke="#63b8ff" d="M382.11,-186.75C387.76,-179.26 396.04,-168.28 402.95,-159.13"/>
<polygon fill="#63b8ff" stroke="#63b8ff" points="405.79,-161.18 409.02,-151.09 400.2,-156.96 405.79,-161.18"/>
</a>
</g>
</g>
<!-- Node27 -->
<g id="Node000027" class="node">
<title>Node27</title>
<g id="a_Node000027"><a xlink:title=" ">
<polygon fill="#e0e0e0" stroke="#999999" points="283.5,-151 199.5,-151 199.5,-132 283.5,-132 283.5,-151"/>
<text text-anchor="middle" x="241.5" y="-139" font-family="Helvetica,sans-Serif" font-size="10.00">boost/any.hpp</text>
</a>
</g>
</g>
<!-- Node25&#45;&gt;Node27 -->
<g id="edge21_Node000025_Node000027" class="edge">
<title>Node25&#45;&gt;Node27</title>
<g id="a_edge21_Node000025_Node000027"><a xlink:title=" ">
<path fill="none" stroke="#63b8ff" d="M353.97,-186.98C332.03,-178.3 297.76,-164.75 272.81,-154.88"/>
<polygon fill="#63b8ff" stroke="#63b8ff" points="274.01,-151.59 263.42,-151.17 271.43,-158.1 274.01,-151.59"/>
</a>
</g>
</g>
<!-- Node28 -->
<g id="Node000028" class="node">
<title>Node28</title>
<g id="a_Node000028"><a xlink:title=" ">
<polygon fill="#e0e0e0" stroke="#999999" points="369.5,-151 301.5,-151 301.5,-132 369.5,-132 369.5,-151"/>
<text text-anchor="middle" x="335.5" y="-139" font-family="Helvetica,sans-Serif" font-size="10.00">sys/time.h</text>
</a>
</g>
</g>
<!-- Node25&#45;&gt;Node28 -->
<g id="edge22_Node000025_Node000028" class="edge">
<title>Node25&#45;&gt;Node28</title>
<g id="a_edge22_Node000025_Node000028"><a xlink:title=" ">
<path fill="none" stroke="#63b8ff" d="M368.89,-186.75C363.24,-179.26 354.96,-168.28 348.05,-159.13"/>
<polygon fill="#63b8ff" stroke="#63b8ff" points="350.8,-156.96 341.98,-151.09 345.21,-161.18 350.8,-156.96"/>
</a>
</g>
</g>
<!-- Node29 -->
<g id="Node000029" class="node">
<title>Node29</title>
<g id="a_Node000029"><a xlink:title=" ">
<polygon fill="#e0e0e0" stroke="#999999" points="499.5,-151 461.5,-151 461.5,-132 499.5,-132 499.5,-151"/>
<text text-anchor="middle" x="480.5" y="-139" font-family="Helvetica,sans-Serif" font-size="10.00">map</text>
</a>
</g>
</g>
<!-- Node25&#45;&gt;Node29 -->
<g id="edge23_Node000025_Node000029" class="edge">
<title>Node25&#45;&gt;Node29</title>
<g id="a_edge23_Node000025_Node000029"><a xlink:title=" ">
<path fill="none" stroke="#63b8ff" d="M392.37,-186.98C409.11,-178.54 435,-165.47 454.39,-155.68"/>
<polygon fill="#63b8ff" stroke="#63b8ff" points="455.97,-158.8 463.32,-151.17 452.82,-152.55 455.97,-158.8"/>
</a>
</g>
</g>
<!-- Node39&#45;&gt;Node7 -->
<g id="edge39_Node000039_Node000007" class="edge">
<title>Node39&#45;&gt;Node7</title>
<g id="a_edge39_Node000039_Node000007"><a xlink:title=" ">
<path fill="none" stroke="#63b8ff" d="M1140.68,-193.62C1083.4,-189.99 975.03,-179.66 887.5,-151 881.33,-148.98 718.89,-63.25 654.98,-29.47"/>
<polygon fill="#63b8ff" stroke="#63b8ff" points="656.43,-26.28 645.95,-24.7 653.16,-32.47 656.43,-26.28"/>
</a>
</g>
</g>
<!-- Node39&#45;&gt;Node26 -->
<g id="edge50_Node000039_Node000026" class="edge">
<title>Node39&#45;&gt;Node26</title>
<g id="a_edge50_Node000039_Node000026"><a xlink:title=" ">
<path fill="none" stroke="#63b8ff" d="M1140.81,-195.36C1032.19,-194.51 720.9,-188.79 453.19,-150.82"/>
<polygon fill="#63b8ff" stroke="#63b8ff" points="453.68,-147.36 443.29,-149.4 452.69,-154.29 453.68,-147.36"/>
</a>
</g>
</g>
<!-- Node39&#45;&gt;Node29 -->
<g id="edge36_Node000039_Node000029" class="edge">
<title>Node39&#45;&gt;Node29</title>
<g id="a_edge36_Node000039_Node000029"><a xlink:title=" ">
<path fill="none" stroke="#63b8ff" d="M1140.73,-196.02C1037.62,-196.69 753.37,-194.29 509.74,-150.77"/>
<polygon fill="#63b8ff" stroke="#63b8ff" points="510.1,-147.28 499.64,-148.94 508.85,-154.17 510.1,-147.28"/>
</a>
</g>
</g>
<!-- Node39&#45;&gt;Node31 -->
<g id="edge49_Node000039_Node000031" class="edge">
<title>Node39&#45;&gt;Node31</title>
<g id="a_edge49_Node000039_Node000031"><a xlink:title=" ">
<path fill="none" stroke="#63b8ff" d="M1140.81,-194.19C1047.34,-190.74 805.95,-179.72 595.37,-151.1"/>
<polygon fill="#63b8ff" stroke="#63b8ff" points="595.75,-147.62 585.36,-149.73 594.79,-154.56 595.75,-147.62"/>
</a>
</g>
</g>
<!-- Node39&#45;&gt;Node36 -->
<g id="edge37_Node000039_Node000036" class="edge">
<title>Node39&#45;&gt;Node36</title>
<g id="a_edge37_Node000039_Node000036"><a xlink:title=" ">
<path fill="none" stroke="#63b8ff" d="M1140.94,-192.29C1062.28,-185.79 880.42,-170.13 716.35,-151.05"/>
<polygon fill="#63b8ff" stroke="#63b8ff" points="716.4,-147.53 706.06,-149.84 715.59,-154.48 716.4,-147.53"/>
</a>
</g>
</g>
<!-- Node39&#45;&gt;Node38 -->
<g id="edge44_Node000039_Node000038" class="edge">
<title>Node39&#45;&gt;Node38</title>
<g id="a_edge44_Node000039_Node000038"><a xlink:title=" ">
<path fill="none" stroke="#63b8ff" d="M1140.88,-190.22C1073.22,-181.21 934.6,-162.75 850.98,-151.62"/>
<polygon fill="#63b8ff" stroke="#63b8ff" points="851.19,-148.12 840.82,-150.27 850.27,-155.06 851.19,-148.12"/>
</a>
</g>
</g>
<!-- Node40 -->
<g id="Node000040" class="node">
<title>Node40</title>
<g id="a_Node000040"><a xlink:title=" ">
<polygon fill="#e0e0e0" stroke="#999999" points="970.5,-151 896.5,-151 896.5,-132 970.5,-132 970.5,-151"/>
<text text-anchor="middle" x="933.5" y="-139" font-family="Helvetica,sans-Serif" font-size="10.00">G4String.hh</text>
</a>
</g>
</g>
<!-- Node39&#45;&gt;Node40 -->
<g id="edge34_Node000039_Node000040" class="edge">
<title>Node39&#45;&gt;Node40</title>
<g id="a_edge34_Node000039_Node000040"><a xlink:title=" ">
<path fill="none" stroke="#63b8ff" d="M1140.82,-186.98C1097.11,-177.61 1026.89,-162.54 980.48,-152.58"/>
<polygon fill="#63b8ff" stroke="#63b8ff" points="981.17,-149.15 970.66,-150.47 979.71,-155.99 981.17,-149.15"/>
</a>
</g>
</g>
<!-- Node41 -->
<g id="Node000041" class="node">
<title>Node41</title>
<g id="a_Node000041"><a xlink:title=" ">
<polygon fill="#e0e0e0" stroke="#999999" points="1052.5,-151 988.5,-151 988.5,-132 1052.5,-132 1052.5,-151"/>
<text text-anchor="middle" x="1020.5" y="-139" font-family="Helvetica,sans-Serif" font-size="10.00">algorithm</text>
</a>
</g>
</g>
<!-- Node39&#45;&gt;Node41 -->
<g id="edge35_Node000039_Node000041" class="edge">
<title>Node39&#45;&gt;Node41</title>
<g id="a_edge35_Node000039_Node000041"><a xlink:title=" ">
<path fill="none" stroke="#63b8ff" d="M1154.79,-186.98C1128.05,-178.13 1085.97,-164.19 1056.05,-154.28"/>
<polygon fill="#63b8ff" stroke="#63b8ff" points="1057,-150.9 1046.41,-151.08 1054.8,-157.55 1057,-150.9"/>
</a>
</g>
</g>
<!-- Node42 -->
<g id="Node000042" class="node">
<title>Node42</title>
<g id="a_Node000042"><a xlink:title=" ">
<polygon fill="#e0e0e0" stroke="#999999" points="1190,-151 1071,-151 1071,-132 1190,-132 1190,-151"/>
<text text-anchor="middle" x="1130.5" y="-139" font-family="Helvetica,sans-Serif" font-size="10.00">G4TriangularFacet.hh</text>
</a>
</g>
</g>
<!-- Node39&#45;&gt;Node42 -->
<g id="edge38_Node000039_Node000042" class="edge">
<title>Node39&#45;&gt;Node42</title>
<g id="a_edge38_Node000039_Node000042"><a xlink:title=" ">
<path fill="none" stroke="#63b8ff" d="M1172.24,-186.75C1165.04,-179.11 1154.39,-167.82 1145.65,-158.56"/>
<polygon fill="#63b8ff" stroke="#63b8ff" points="1148.01,-155.96 1138.6,-151.09 1142.92,-160.76 1148.01,-155.96"/>
</a>
</g>
</g>
<!-- Node43 -->
<g id="Node000043" class="node">
<title>Node43</title>
<g id="a_Node000043"><a xlink:title=" ">
<polygon fill="#e0e0e0" stroke="#999999" points="1255,-151 1208,-151 1208,-132 1255,-132 1255,-151"/>
<text text-anchor="middle" x="1231.5" y="-139" font-family="Helvetica,sans-Serif" font-size="10.00">vector</text>
</a>
</g>
</g>
<!-- Node39&#45;&gt;Node43 -->
<g id="edge40_Node000039_Node000043" class="edge">
<title>Node39&#45;&gt;Node43</title>
<g id="a_edge40_Node000039_Node000043"><a xlink:title=" ">
<path fill="none" stroke="#63b8ff" d="M1188.92,-186.75C1196.27,-179.11 1207.13,-167.82 1216.04,-158.56"/>
<polygon fill="#63b8ff" stroke="#63b8ff" points="1218.82,-160.72 1223.24,-151.09 1213.78,-155.87 1218.82,-160.72"/>
</a>
</g>
</g>
<!-- Node44 -->
<g id="Node000044" class="node">
<title>Node44</title>
<g id="a_Node000044"><a xlink:title=" ">
<polygon fill="#e0e0e0" stroke="#999999" points="1333.5,-151 1273.5,-151 1273.5,-132 1333.5,-132 1333.5,-151"/>
<text text-anchor="middle" x="1303.5" y="-139" font-family="Helvetica,sans-Serif" font-size="10.00">iostream</text>
</a>
</g>
</g>
<!-- Node39&#45;&gt;Node44 -->
<g id="edge41_Node000039_Node000044" class="edge">
<title>Node39&#45;&gt;Node44</title>
<g id="a_edge41_Node000039_Node000044"><a xlink:title=" ">
<path fill="none" stroke="#63b8ff" d="M1200.26,-186.98C1220.23,-178.38 1251.3,-164.99 1274.15,-155.15"/>
<polygon fill="#63b8ff" stroke="#63b8ff" points="1275.58,-158.34 1283.38,-151.17 1272.81,-151.91 1275.58,-158.34"/>
</a>
</g>
</g>
<!-- Node45 -->
<g id="Node000045" class="node">
<title>Node45</title>
<g id="a_Node000045"><a xlink:title=" ">
<polygon fill="#e0e0e0" stroke="#999999" points="1395.5,-151 1351.5,-151 1351.5,-132 1395.5,-132 1395.5,-151"/>
<text text-anchor="middle" x="1373.5" y="-139" font-family="Helvetica,sans-Serif" font-size="10.00">string</text>
</a>
</g>
</g>
<!-- Node39&#45;&gt;Node45 -->
<g id="edge42_Node000039_Node000045" class="edge">
<title>Node39&#45;&gt;Node45</title>
<g id="a_edge42_Node000039_Node000045"><a xlink:title=" ">
<path fill="none" stroke="#63b8ff" d="M1211.51,-186.98C1247.1,-177.21 1305.2,-161.26 1341.29,-151.35"/>
<polygon fill="#63b8ff" stroke="#63b8ff" points="1342.58,-154.62 1351.29,-148.6 1340.72,-147.87 1342.58,-154.62"/>
</a>
</g>
</g>
<!-- Node46 -->
<g id="Node000046" class="node">
<title>Node46</title>
<g id="a_Node000046"><a xlink:title=" ">
<polygon fill="#e0e0e0" stroke="#999999" points="1543.5,-151 1413.5,-151 1413.5,-132 1543.5,-132 1543.5,-151"/>
<text text-anchor="middle" x="1478.5" y="-139" font-family="Helvetica,sans-Serif" font-size="10.00">G4AssemblyVolume.hh</text>
</a>
</g>
</g>
<!-- Node39&#45;&gt;Node46 -->
<g id="edge43_Node000039_Node000046" class="edge">
<title>Node39&#45;&gt;Node46</title>
<g id="a_edge43_Node000039_Node000046"><a xlink:title=" ">
<path fill="none" stroke="#63b8ff" d="M1220.07,-188.46C1271.48,-179.32 1361.63,-163.29 1420.7,-152.78"/>
<polygon fill="#63b8ff" stroke="#63b8ff" points="1421.39,-156.21 1430.62,-151.01 1420.17,-149.32 1421.39,-156.21"/>
</a>
</g>
</g>
<!-- Node47 -->
<g id="Node000047" class="node">
<title>Node47</title>
<g id="a_Node000047"><a xlink:title=" ">
<polygon fill="#e0e0e0" stroke="#999999" points="1647.5,-151 1561.5,-151 1561.5,-132 1647.5,-132 1647.5,-151"/>
<text text-anchor="middle" x="1604.5" y="-139" font-family="Helvetica,sans-Serif" font-size="10.00">G4Material.hh</text>
</a>
</g>
</g>
<!-- Node39&#45;&gt;Node47 -->
<g id="edge45_Node000039_Node000047" class="edge">
<title>Node39&#45;&gt;Node47</title>
<g id="a_edge45_Node000039_Node000047"><a xlink:title=" ">
<path fill="none" stroke="#63b8ff" d="M1220.02,-188.29C1222.89,-187.83 1225.74,-187.4 1228.5,-187 1368.69,-166.82 1407.24,-170.51 1551.3,-151.1"/>
<polygon fill="#63b8ff" stroke="#63b8ff" points="1551.96,-154.54 1561.4,-149.72 1551.01,-147.6 1551.96,-154.54"/>
</a>
</g>
</g>
<!-- Node48 -->
<g id="Node000048" class="node">
<title>Node48</title>
<g id="a_Node000048"><a xlink:title=" ">
<polygon fill="#e0e0e0" stroke="#999999" points="1789.5,-151 1665.5,-151 1665.5,-132 1789.5,-132 1789.5,-151"/>
<text text-anchor="middle" x="1727.5" y="-139" font-family="Helvetica,sans-Serif" font-size="10.00">G4TessellatedSolid.hh</text>
</a>
</g>
</g>
<!-- Node39&#45;&gt;Node48 -->
<g id="edge46_Node000039_Node000048" class="edge">
<title>Node39&#45;&gt;Node48</title>
<g id="a_edge46_Node000039_Node000048"><a xlink:title=" ">
<path fill="none" stroke="#63b8ff" d="M1220.01,-188.21C1222.88,-187.77 1225.73,-187.36 1228.5,-187 1414.56,-162.75 1464.88,-170.08 1655.12,-151.1"/>
<polygon fill="#63b8ff" stroke="#63b8ff" points="1655.58,-154.57 1665.18,-150.09 1654.87,-147.61 1655.58,-154.57"/>
</a>
</g>
</g>
<!-- Node49 -->
<g id="Node000049" class="node">
<title>Node49</title>
<g id="a_Node000049"><a xlink:title=" ">
<polygon fill="#e0e0e0" stroke="#999999" points="1867,-151 1808,-151 1808,-132 1867,-132 1867,-151"/>
<text text-anchor="middle" x="1837.5" y="-139" font-family="Helvetica,sans-Serif" font-size="10.00">G4Tet.hh</text>
</a>
</g>
</g>
<!-- Node39&#45;&gt;Node49 -->
<g id="edge47_Node000039_Node000049" class="edge">
<title>Node39&#45;&gt;Node49</title>
<g id="a_edge47_Node000039_Node000049"><a xlink:title=" ">
<path fill="none" stroke="#63b8ff" d="M1220,-188.14C1222.87,-187.72 1225.73,-187.33 1228.5,-187 1477.22,-157.22 1545.32,-185.37 1797.56,-150.88"/>
<polygon fill="#63b8ff" stroke="#63b8ff" points="1798.35,-154.31 1807.77,-149.46 1797.39,-147.37 1798.35,-154.31"/>
</a>
</g>
</g>
<!-- Node50 -->
<g id="Node000050" class="node">
<title>Node50</title>
<g id="a_Node000050"><a xlink:title=" ">
<polygon fill="#e0e0e0" stroke="#999999" points="1989.5,-151 1885.5,-151 1885.5,-132 1989.5,-132 1989.5,-151"/>
<text text-anchor="middle" x="1937.5" y="-139" font-family="Helvetica,sans-Serif" font-size="10.00">G4UIcommand.hh</text>
</a>
</g>
</g>
<!-- Node39&#45;&gt;Node50 -->
<g id="edge48_Node000039_Node000050" class="edge">
<title>Node39&#45;&gt;Node50</title>
<g id="a_edge48_Node000039_Node000050"><a xlink:title=" ">
<path fill="none" stroke="#63b8ff" d="M1220.26,-188.08C1223.04,-187.68 1225.81,-187.31 1228.5,-187 1511.67,-154.18 1587.64,-178.35 1874.98,-151.06"/>
<polygon fill="#63b8ff" stroke="#63b8ff" points="1875.67,-154.51 1885.29,-150.07 1875,-147.54 1875.67,-154.51"/>
</a>
</g>
</g>
<!-- Node51 -->
<g id="Node000051" class="node">
<title>Node51</title>
<g id="a_Node000051"><a xlink:title=" ">
<polygon fill="#e0e0e0" stroke="#999999" points="2063.5,-151 2007.5,-151 2007.5,-132 2063.5,-132 2063.5,-151"/>
<text text-anchor="middle" x="2035.5" y="-139" font-family="Helvetica,sans-Serif" font-size="10.00">sstream</text>
</a>
</g>
</g>
<!-- Node39&#45;&gt;Node51 -->
<g id="edge51_Node000039_Node000051" class="edge">
<title>Node39&#45;&gt;Node51</title>
<g id="a_edge51_Node000039_Node000051"><a xlink:title=" ">
<path fill="none" stroke="#63b8ff" d="M1220.26,-188.05C1223.04,-187.66 1225.81,-187.3 1228.5,-187 1565.66,-149.42 1657.3,-196.6 1997.19,-150.9"/>
<polygon fill="#63b8ff" stroke="#63b8ff" points="1997.88,-154.34 2007.31,-149.52 1996.93,-147.4 1997.88,-154.34"/>
</a>
</g>
</g>
<!-- Node52 -->
<g id="Node000052" class="node">
<title>Node52</title>
<g id="a_Node000052"><a xlink:title=" ">
<polygon fill="#e0e0e0" stroke="#999999" points="2149,-151 2082,-151 2082,-132 2149,-132 2149,-151"/>
<text text-anchor="middle" x="2115.5" y="-139" font-family="Helvetica,sans-Serif" font-size="10.00">streambuf</text>
</a>
</g>
</g>
<!-- Node39&#45;&gt;Node52 -->
<g id="edge52_Node000039_Node000052" class="edge">
<title>Node39&#45;&gt;Node52</title>
<g id="a_edge52_Node000039_Node000052"><a xlink:title=" ">
<path fill="none" stroke="#63b8ff" d="M1220.25,-188.04C1223.04,-187.65 1225.81,-187.29 1228.5,-187 1598.45,-146.54 1697.95,-194.67 2071.77,-150.86"/>
<polygon fill="#63b8ff" stroke="#63b8ff" points="2072.26,-154.32 2081.78,-149.67 2071.43,-147.37 2072.26,-154.32"/>
</a>
</g>
</g>
<!-- Node53 -->
<g id="Node000053" class="node">
<title>Node53</title>
<g id="a_Node000053"><a xlink:title=" ">
<polygon fill="#e0e0e0" stroke="#999999" points="2253.5,-151 2167.5,-151 2167.5,-132 2253.5,-132 2253.5,-151"/>
<text text-anchor="middle" x="2210.5" y="-139" font-family="Helvetica,sans-Serif" font-size="10.00">Randomize.hh</text>
</a>
</g>
</g>
<!-- Node39&#45;&gt;Node53 -->
<g id="edge53_Node000039_Node000053" class="edge">
<title>Node39&#45;&gt;Node53</title>
<g id="a_edge53_Node000039_Node000053"><a xlink:title=" ">
<path fill="none" stroke="#63b8ff" d="M1220.25,-188.03C1223.04,-187.64 1225.81,-187.29 1228.5,-187 1636.46,-143.19 1745.19,-191.65 2157.32,-150.97"/>
<polygon fill="#63b8ff" stroke="#63b8ff" points="2157.82,-154.44 2167.42,-149.96 2157.13,-147.47 2157.82,-154.44"/>
</a>
</g>
</g>
<!-- Node56 -->
<g id="Node000056" class="node">
<title>Node56</title>
<g id="a_Node000056"><a xlink:title=" ">
<polygon fill="#e0e0e0" stroke="#999999" points="2287.5,-206 2121.5,-206 2121.5,-187 2287.5,-187 2287.5,-206"/>
<text text-anchor="middle" x="2204.5" y="-194" font-family="Helvetica,sans-Serif" font-size="10.00">G4VUserActionInitialization.hh</text>
</a>
</g>
</g>
<!-- Node55&#45;&gt;Node56 -->
<g id="edge57_Node000055_Node000056" class="edge">
<title>Node55&#45;&gt;Node56</title>
<g id="a_edge57_Node000055_Node000056"><a xlink:title=" ">
<path fill="none" stroke="#63b8ff" d="M1542.64,-242.73C1545.63,-242.48 1548.59,-242.23 1551.5,-242 1797.26,-222.25 1861.73,-225.41 2111.17,-206.08"/>
<polygon fill="#63b8ff" stroke="#63b8ff" points="2111.57,-209.56 2121.26,-205.3 2111.02,-202.58 2111.57,-209.56"/>
</a>
</g>
</g>
</g>
</svg>
