<?xml version="1.0" encoding="UTF-8" standalone="no"?>
<!DOCTYPE svg PUBLIC "-//W3C//DTD SVG 1.1//EN"
 "http://www.w3.org/Graphics/SVG/1.1/DTD/svg11.dtd">
<!-- Generated by graphviz version 2.43.0 (0)
 -->
<!-- Title: src Pages: 1 -->
<svg width="153pt" height="223pt"
 viewBox="0.00 0.00 153.00 223.00" xmlns="http://www.w3.org/2000/svg" xmlns:xlink="http://www.w3.org/1999/xlink">
<g id="graph0" class="graph" transform="scale(1 1) rotate(0) translate(4 219)">
<title>src</title>
<g id="clust1" class="cluster">
<title>clusterdir_9c3954a29433d21caebe71551a91150a</title>
<g id="a_clust1"><a xlink:href="dir_9c3954a29433d21caebe71551a91150a.html" target="_top" xlink:title="geometry_construction">
<polygon fill="#ddddee" stroke="black" points="8,-64 8,-207 137,-207 137,-64 8,-64"/>
<text text-anchor="middle" x="72.5" y="-195" font-family="Helvetica,sans-Serif" font-size="10.00">geometry_construction</text>
</a>
</g>
</g>
<!-- dir_218371b85f6c667e47e4a2c498ee505b -->
<g id="node1" class="node">
<title>dir_218371b85f6c667e47e4a2c498ee505b</title>
<g id="a_node1"><a xlink:href="dir_218371b85f6c667e47e4a2c498ee505b.html" target="_top" xlink:title="include">
<polygon fill="none" stroke="black" points="99,-108 45,-108 45,-72 99,-72 99,-108"/>
<text text-anchor="middle" x="72" y="-87.5" font-family="Helvetica,sans-Serif" font-size="10.00">include</text>
</a>
</g>
</g>
<!-- dir_864f292c5cbb4a74180810cb2e80dd5b -->
<g id="node3" class="node">
<title>dir_864f292c5cbb4a74180810cb2e80dd5b</title>
<g id="a_node3"><a xlink:href="dir_864f292c5cbb4a74180810cb2e80dd5b.html" target="_top" xlink:title="framework">
<polygon fill="none" stroke="red" points="134,-36 64,-36 64,0 134,0 134,-36"/>
<text text-anchor="middle" x="99" y="-15.5" font-family="Helvetica,sans-Serif" font-size="10.00">framework</text>
</a>
</g>
</g>
<!-- dir_218371b85f6c667e47e4a2c498ee505b&#45;&gt;dir_864f292c5cbb4a74180810cb2e80dd5b -->
<g id="edge1" class="edge">
<title>dir_218371b85f6c667e47e4a2c498ee505b&#45;&gt;dir_864f292c5cbb4a74180810cb2e80dd5b</title>
<path fill="none" stroke="black" d="M78.67,-71.7C81.71,-63.81 85.38,-54.3 88.76,-45.55"/>
<polygon fill="black" stroke="black" points="92.07,-46.69 92.4,-36.1 85.54,-44.17 92.07,-46.69"/>
<g id="a_edge1&#45;headlabel"><a xlink:href="dir_000004_000005.html" target="_top" xlink:title="3">
<text text-anchor="middle" x="93.42" y="-48.57" font-family="Helvetica,sans-Serif" font-size="10.00">3</text>
</a>
</g>
</g>
<!-- dir_e9dca0ccd90dffea88fe042b493f5403 -->
<g id="node2" class="node">
<title>dir_e9dca0ccd90dffea88fe042b493f5403</title>
<g id="a_node2"><a xlink:href="dir_e9dca0ccd90dffea88fe042b493f5403.html" target="_top" xlink:title="src">
<polygon fill="#eeeeff" stroke="black" points="114,-180 60,-180 60,-144 114,-144 114,-180"/>
<text text-anchor="middle" x="87" y="-159.5" font-family="Helvetica,sans-Serif" font-size="10.00">src</text>
</a>
</g>
</g>
<!-- dir_e9dca0ccd90dffea88fe042b493f5403&#45;&gt;dir_218371b85f6c667e47e4a2c498ee505b -->
<g id="edge2" class="edge">
<title>dir_e9dca0ccd90dffea88fe042b493f5403&#45;&gt;dir_218371b85f6c667e47e4a2c498ee505b</title>
<path fill="none" stroke="black" d="M83.29,-143.7C81.64,-135.98 79.65,-126.71 77.81,-118.11"/>
<polygon fill="black" stroke="black" points="81.18,-117.15 75.67,-108.1 74.34,-118.62 81.18,-117.15"/>
<g id="a_edge2&#45;headlabel"><a xlink:href="dir_000003_000004.html" target="_top" xlink:title="19">
<text text-anchor="middle" x="84.71" y="-117.57" font-family="Helvetica,sans-Serif" font-size="10.00">19</text>
</a>
</g>
</g>
<!-- dir_e9dca0ccd90dffea88fe042b493f5403&#45;&gt;dir_864f292c5cbb4a74180810cb2e80dd5b -->
<g id="edge3" class="edge">
<title>dir_e9dca0ccd90dffea88fe042b493f5403&#45;&gt;dir_864f292c5cbb4a74180810cb2e80dd5b</title>
<path fill="none" stroke="black" d="M95.72,-143.83C100.37,-133.69 105.62,-120.44 108,-108 111.91,-87.53 109.25,-64.08 105.83,-46.38"/>
<polygon fill="black" stroke="black" points="109.17,-45.24 103.66,-36.19 102.32,-46.7 109.17,-45.24"/>
<g id="a_edge3&#45;headlabel"><a xlink:href="dir_000003_000005.html" target="_top" xlink:title="16">
<text text-anchor="middle" x="112.69" y="-45.66" font-family="Helvetica,sans-Serif" font-size="10.00">16</text>
</a>
</g>
</g>
</g>
</svg>
