<?xml version="1.0" encoding="UTF-8" standalone="no"?>
<!DOCTYPE svg PUBLIC "-//W3C//DTD SVG 1.1//EN"
 "http://www.w3.org/Graphics/SVG/1.1/DTD/svg11.dtd">
<!-- Generated by graphviz version 2.43.0 (0)
 -->
<!-- Title: simulations Pages: 1 -->
<svg width="573pt" height="98pt"
 viewBox="0.00 0.00 573.00 98.00" xmlns="http://www.w3.org/2000/svg" xmlns:xlink="http://www.w3.org/1999/xlink">
<g id="graph0" class="graph" transform="scale(1 1) rotate(0) translate(4 94)">
<title>simulations</title>
<g id="clust1" class="cluster">
<title>clusterdir_83271c016684bff04ce022d17a2ba8ac</title>
<g id="a_clust1"><a xlink:href="dir_83271c016684bff04ce022d17a2ba8ac.html" target="_top">
<polygon fill="#daedff" stroke="#404040" stroke-width="2" points="8,-47 8,-82 557,-82 557,-47 8,-47"/>
</a>
</g>
</g>
<!-- dir_83271c016684bff04ce022d17a2ba8ac -->
<g id="node1" class="node">
<title>dir_83271c016684bff04ce022d17a2ba8ac</title>
<text text-anchor="middle" x="512" y="-62" font-family="Helvetica,sans-Serif" font-size="10.00">simulations</text>
</g>
<!-- dir_8dfe1e0a882227ede81fe824e3144913 -->
<g id="node2" class="node">
<title>dir_8dfe1e0a882227ede81fe824e3144913</title>
<g id="a_node2"><a xlink:href="dir_8dfe1e0a882227ede81fe824e3144913.html" target="_top" xlink:title="effective_area">
<polygon fill="#4ea9ff" stroke="#404040" points="457,-74 371,-74 371,-55 457,-55 457,-74"/>
<text text-anchor="middle" x="414" y="-62" font-family="Helvetica,sans-Serif" font-size="10.00">effective_area</text>
</a>
</g>
</g>
<!-- dir_bdd9a5d540de89e9fe90efdfc6973a4f -->
<g id="node6" class="node">
<title>dir_bdd9a5d540de89e9fe90efdfc6973a4f</title>
<g id="a_node6"><a xlink:href="dir_bdd9a5d540de89e9fe90efdfc6973a4f.html" target="_top" xlink:title="common">
<polygon fill="#daedff" stroke="red" points="254.5,-19 195.5,-19 195.5,0 254.5,0 254.5,-19"/>
<text text-anchor="middle" x="225" y="-7" font-family="Helvetica,sans-Serif" font-size="10.00">common</text>
</a>
</g>
</g>
<!-- dir_8dfe1e0a882227ede81fe824e3144913&#45;&gt;dir_bdd9a5d540de89e9fe90efdfc6973a4f -->
<g id="edge1" class="edge">
<title>dir_8dfe1e0a882227ede81fe824e3144913&#45;&gt;dir_bdd9a5d540de89e9fe90efdfc6973a4f</title>
<g id="a_edge1"><a xlink:href="dir_000001_000000.html" target="_top">
<path fill="none" stroke="#63b8ff" d="M387.89,-54.95C379.63,-52.32 370.46,-49.47 362,-47 329.31,-37.47 291.95,-27.58 264.51,-20.5"/>
<polygon fill="#63b8ff" stroke="#63b8ff" points="265.06,-17.03 254.51,-17.94 263.32,-23.81 265.06,-17.03"/>
</a>
</g>
<g id="a_edge1&#45;headlabel"><a xlink:href="dir_000001_000000.html" target="_top" xlink:title="14">
<text text-anchor="middle" x="269.25" y="-12.68" font-family="Helvetica,sans-Serif" font-size="10.00" fill="#63b8ff">14</text>
</a>
</g>
</g>
<!-- dir_1982ac4ee14fc237007cc9ebcbaeb674 -->
<g id="node3" class="node">
<title>dir_1982ac4ee14fc237007cc9ebcbaeb674</title>
<g id="a_node3"><a xlink:href="dir_1982ac4ee14fc237007cc9ebcbaeb674.html" target="_top" xlink:title="efficiency_calibration">
<polygon fill="#4ea9ff" stroke="#404040" points="352.5,-74 231.5,-74 231.5,-55 352.5,-55 352.5,-74"/>
<text text-anchor="middle" x="292" y="-62" font-family="Helvetica,sans-Serif" font-size="10.00">efficiency_calibration</text>
</a>
</g>
</g>
<!-- dir_1982ac4ee14fc237007cc9ebcbaeb674&#45;&gt;dir_bdd9a5d540de89e9fe90efdfc6973a4f -->
<g id="edge2" class="edge">
<title>dir_1982ac4ee14fc237007cc9ebcbaeb674&#45;&gt;dir_bdd9a5d540de89e9fe90efdfc6973a4f</title>
<g id="a_edge2"><a xlink:href="dir_000002_000000.html" target="_top">
<path fill="none" stroke="#63b8ff" d="M281.24,-54.98C271.23,-47.07 256.11,-35.11 244.07,-25.58"/>
<polygon fill="#63b8ff" stroke="#63b8ff" points="245.97,-22.63 235.96,-19.17 241.63,-28.12 245.97,-22.63"/>
</a>
</g>
<g id="a_edge2&#45;headlabel"><a xlink:href="dir_000002_000000.html" target="_top" xlink:title="15">
<text text-anchor="middle" x="250.56" y="-20.13" font-family="Helvetica,sans-Serif" font-size="10.00" fill="#63b8ff">15</text>
</a>
</g>
</g>
<!-- dir_bb55901d3b0c41c0755ece8de7fe1d65 -->
<g id="node4" class="node">
<title>dir_bb55901d3b0c41c0755ece8de7fe1d65</title>
<g id="a_node4"><a xlink:href="dir_bb55901d3b0c41c0755ece8de7fe1d65.html" target="_top" xlink:title="radioactive_decays">
<polygon fill="#4ea9ff" stroke="#404040" points="213.5,-74 102.5,-74 102.5,-55 213.5,-55 213.5,-74"/>
<text text-anchor="middle" x="158" y="-62" font-family="Helvetica,sans-Serif" font-size="10.00">radioactive_decays</text>
</a>
</g>
</g>
<!-- dir_bb55901d3b0c41c0755ece8de7fe1d65&#45;&gt;dir_bdd9a5d540de89e9fe90efdfc6973a4f -->
<g id="edge3" class="edge">
<title>dir_bb55901d3b0c41c0755ece8de7fe1d65&#45;&gt;dir_bdd9a5d540de89e9fe90efdfc6973a4f</title>
<g id="a_edge3"><a xlink:href="dir_000012_000000.html" target="_top">
<path fill="none" stroke="#63b8ff" d="M168.76,-54.98C178.77,-47.07 193.89,-35.11 205.93,-25.58"/>
<polygon fill="#63b8ff" stroke="#63b8ff" points="208.37,-28.12 214.04,-19.17 204.03,-22.63 208.37,-28.12"/>
</a>
</g>
<g id="a_edge3&#45;headlabel"><a xlink:href="dir_000012_000000.html" target="_top" xlink:title="18">
<text text-anchor="middle" x="207.31" y="-30.08" font-family="Helvetica,sans-Serif" font-size="10.00" fill="#63b8ff">18</text>
</a>
</g>
</g>
<!-- dir_553094e69e8206429061833255d80122 -->
<g id="node5" class="node">
<title>dir_553094e69e8206429061833255d80122</title>
<g id="a_node5"><a xlink:href="dir_553094e69e8206429061833255d80122.html" target="_top" xlink:title="supernova">
<polygon fill="#4ea9ff" stroke="#404040" points="84,-74 16,-74 16,-55 84,-55 84,-74"/>
<text text-anchor="middle" x="50" y="-62" font-family="Helvetica,sans-Serif" font-size="10.00">supernova</text>
</a>
</g>
</g>
<!-- dir_553094e69e8206429061833255d80122&#45;&gt;dir_bdd9a5d540de89e9fe90efdfc6973a4f -->
<g id="edge4" class="edge">
<title>dir_553094e69e8206429061833255d80122&#45;&gt;dir_bdd9a5d540de89e9fe90efdfc6973a4f</title>
<g id="a_edge4"><a xlink:href="dir_000020_000000.html" target="_top">
<path fill="none" stroke="#63b8ff" d="M71.8,-54.9C78.84,-52.23 86.71,-49.38 94,-47 124.42,-37.08 159.34,-27.43 185.47,-20.55"/>
<polygon fill="#63b8ff" stroke="#63b8ff" points="186.59,-23.88 195.38,-17.96 184.82,-17.11 186.59,-23.88"/>
</a>
</g>
<g id="a_edge4&#45;headlabel"><a xlink:href="dir_000020_000000.html" target="_top" xlink:title="18">
<text text-anchor="middle" x="183.83" y="-25.03" font-family="Helvetica,sans-Serif" font-size="10.00" fill="#63b8ff">18</text>
</a>
</g>
</g>
</g>
</svg>
