<?xml version="1.0" encoding="UTF-8" standalone="no"?>
<!DOCTYPE svg PUBLIC "-//W3C//DTD SVG 1.1//EN"
 "http://www.w3.org/Graphics/SVG/1.1/DTD/svg11.dtd">
<!-- Generated by graphviz version 2.43.0 (0)
 -->
<!-- Title: src Pages: 1 -->
<svg width="224pt" height="167pt"
 viewBox="0.00 0.00 224.00 167.00" xmlns="http://www.w3.org/2000/svg" xmlns:xlink="http://www.w3.org/1999/xlink">
<g id="graph0" class="graph" transform="scale(1 1) rotate(0) translate(4 163)">
<title>src</title>
<polygon fill="white" stroke="transparent" points="-4,4 -4,-163 220,-163 220,4 -4,4"/>
<g id="clust1" class="cluster">
<title>clusterdir_9c3954a29433d21caebe71551a91150a</title>
<g id="a_clust1"><a xlink:href="dir_9c3954a29433d21caebe71551a91150a.html" target="_top" xlink:title="geometry_construction">
<polygon fill="#ddddee" stroke="black" points="8,-8 8,-151 137,-151 137,-8 8,-8"/>
<text text-anchor="middle" x="72.5" y="-139" font-family="Helvetica,sans-Serif" font-size="10.00">geometry_construction</text>
</a>
</g>
</g>
<!-- dir_218371b85f6c667e47e4a2c498ee505b -->
<g id="node1" class="node">
<title>dir_218371b85f6c667e47e4a2c498ee505b</title>
<g id="a_node1"><a xlink:href="dir_218371b85f6c667e47e4a2c498ee505b.html" target="_top" xlink:title="include">
<polygon fill="none" stroke="black" points="128,-52 74,-52 74,-16 128,-16 128,-52"/>
<text text-anchor="middle" x="101" y="-31.5" font-family="Helvetica,sans-Serif" font-size="10.00">include</text>
</a>
</g>
</g>
<!-- dir_864f292c5cbb4a74180810cb2e80dd5b -->
<g id="node3" class="node">
<title>dir_864f292c5cbb4a74180810cb2e80dd5b</title>
<g id="a_node3"><a xlink:href="dir_864f292c5cbb4a74180810cb2e80dd5b.html" target="_top" xlink:title="framework">
<polygon fill="white" stroke="red" points="216,-52 146,-52 146,-16 216,-16 216,-52"/>
<text text-anchor="middle" x="181" y="-31.5" font-family="Helvetica,sans-Serif" font-size="10.00">framework</text>
</a>
</g>
</g>
<!-- dir_218371b85f6c667e47e4a2c498ee505b&#45;&gt;dir_864f292c5cbb4a74180810cb2e80dd5b -->
<g id="edge2" class="edge">
<title>dir_218371b85f6c667e47e4a2c498ee505b&#45;&gt;dir_864f292c5cbb4a74180810cb2e80dd5b</title>
<path fill="none" stroke="black" d="M128.19,-34C130.68,-34 133.18,-34 135.67,-34"/>
<polygon fill="black" stroke="black" points="135.93,-37.5 145.93,-34 135.93,-30.5 135.93,-37.5"/>
<g id="a_edge2&#45;headlabel"><a xlink:href="dir_000003_000004.html" target="_top" xlink:title="3">
<text text-anchor="middle" x="132.33" y="-37.84" font-family="Helvetica,sans-Serif" font-size="10.00">3</text>
</a>
</g>
</g>
<!-- dir_e9dca0ccd90dffea88fe042b493f5403 -->
<g id="node2" class="node">
<title>dir_e9dca0ccd90dffea88fe042b493f5403</title>
<g id="a_node2"><a xlink:href="dir_e9dca0ccd90dffea88fe042b493f5403.html" target="_top" xlink:title="src">
<polygon fill="#eeeeff" stroke="black" points="128,-124 74,-124 74,-88 128,-88 128,-124"/>
<text text-anchor="middle" x="101" y="-103.5" font-family="Helvetica,sans-Serif" font-size="10.00">src</text>
</a>
</g>
</g>
<!-- dir_e9dca0ccd90dffea88fe042b493f5403&#45;&gt;dir_218371b85f6c667e47e4a2c498ee505b -->
<g id="edge3" class="edge">
<title>dir_e9dca0ccd90dffea88fe042b493f5403&#45;&gt;dir_218371b85f6c667e47e4a2c498ee505b</title>
<path fill="none" stroke="black" d="M101,-87.7C101,-79.98 101,-70.71 101,-62.11"/>
<polygon fill="black" stroke="black" points="104.5,-62.1 101,-52.1 97.5,-62.1 104.5,-62.1"/>
<g id="a_edge3&#45;headlabel"><a xlink:href="dir_000002_000003.html" target="_top" xlink:title="27">
<text text-anchor="middle" x="107.34" y="-63.2" font-family="Helvetica,sans-Serif" font-size="10.00">27</text>
</a>
</g>
</g>
<!-- dir_e9dca0ccd90dffea88fe042b493f5403&#45;&gt;dir_864f292c5cbb4a74180810cb2e80dd5b -->
<g id="edge4" class="edge">
<title>dir_e9dca0ccd90dffea88fe042b493f5403&#45;&gt;dir_864f292c5cbb4a74180810cb2e80dd5b</title>
<path fill="none" stroke="black" d="M120.78,-87.7C130.75,-78.97 143.01,-68.24 153.86,-58.75"/>
<polygon fill="black" stroke="black" points="156.23,-61.32 161.45,-52.1 151.62,-56.06 156.23,-61.32"/>
<g id="a_edge4&#45;headlabel"><a xlink:href="dir_000002_000004.html" target="_top" xlink:title="23">
<text text-anchor="middle" x="155.4" y="-63.33" font-family="Helvetica,sans-Serif" font-size="10.00">23</text>
</a>
</g>
</g>
<!-- dir_864f292c5cbb4a74180810cb2e80dd5b&#45;&gt;dir_218371b85f6c667e47e4a2c498ee505b -->
<g id="edge1" class="edge">
<title>dir_864f292c5cbb4a74180810cb2e80dd5b&#45;&gt;dir_218371b85f6c667e47e4a2c498ee505b</title>
<path fill="none" stroke="black" d="M145.93,-34C143.43,-34 140.94,-34 138.44,-34"/>
<polygon fill="black" stroke="black" points="138.19,-30.5 128.19,-34 138.19,-37.5 138.19,-30.5"/>
<g id="a_edge1&#45;headlabel"><a xlink:href="dir_000004_000003.html" target="_top" xlink:title="1">
<text text-anchor="middle" x="141.78" y="-25.16" font-family="Helvetica,sans-Serif" font-size="10.00">1</text>
</a>
</g>
</g>
</g>
</svg>
