<?xml version="1.0" encoding="UTF-8" standalone="no"?>
<!DOCTYPE svg PUBLIC "-//W3C//DTD SVG 1.1//EN"
 "http://www.w3.org/Graphics/SVG/1.1/DTD/svg11.dtd">
<!-- Generated by graphviz version 2.43.0 (0)
 -->
<!-- Title: effective_area Pages: 1 -->
<svg width="214pt" height="231pt"
 viewBox="0.00 0.00 214.00 231.00" xmlns="http://www.w3.org/2000/svg" xmlns:xlink="http://www.w3.org/1999/xlink">
<g id="graph0" class="graph" transform="scale(1 1) rotate(0) translate(4 227)">
<title>effective_area</title>
<g id="clust1" class="cluster">
<title>clusterdir_83271c016684bff04ce022d17a2ba8ac</title>
<g id="a_clust1"><a xlink:href="dir_83271c016684bff04ce022d17a2ba8ac.html" target="_top" xlink:title="simulations">
<polygon fill="#ddddee" stroke="black" points="8,-56 8,-215 198,-215 198,-56 8,-56"/>
<text text-anchor="middle" x="103" y="-203" font-family="Helvetica,sans-Serif" font-size="10.00">simulations</text>
</a>
</g>
</g>
<g id="clust2" class="cluster">
<title>clusterdir_8dfe1e0a882227ede81fe824e3144913</title>
<g id="a_clust2"><a xlink:href="dir_8dfe1e0a882227ede81fe824e3144913.html" target="_top">
<polygon fill="#eeeeff" stroke="black" points="16,-64 16,-188 190,-188 190,-64 16,-64"/>
</a>
</g>
</g>
<!-- dir_8dfe1e0a882227ede81fe824e3144913 -->
<g id="node1" class="node">
<title>dir_8dfe1e0a882227ede81fe824e3144913</title>
<text text-anchor="middle" x="67" y="-159.5" font-family="Helvetica,sans-Serif" font-size="10.00">effective_area</text>
</g>
<!-- dir_f9b02cdf76a5a3d3c8b8a33fd60e2526 -->
<g id="node2" class="node">
<title>dir_f9b02cdf76a5a3d3c8b8a33fd60e2526</title>
<g id="a_node2"><a xlink:href="dir_f9b02cdf76a5a3d3c8b8a33fd60e2526.html" target="_top" xlink:title="include">
<polygon fill="white" stroke="black" points="91,-108 37,-108 37,-72 91,-72 91,-108"/>
<text text-anchor="middle" x="64" y="-87.5" font-family="Helvetica,sans-Serif" font-size="10.00">include</text>
</a>
</g>
</g>
<!-- dir_8dfe1e0a882227ede81fe824e3144913&#45;&gt;dir_f9b02cdf76a5a3d3c8b8a33fd60e2526 -->
<g id="edge2" class="edge">
<title>dir_8dfe1e0a882227ede81fe824e3144913&#45;&gt;dir_f9b02cdf76a5a3d3c8b8a33fd60e2526</title>
<path fill="none" stroke="black" d="M66.26,-143.7C65.93,-135.98 65.53,-126.71 65.16,-118.11"/>
<polygon fill="black" stroke="black" points="68.66,-117.95 64.73,-108.1 61.66,-118.25 68.66,-117.95"/>
<g id="a_edge2&#45;headlabel"><a xlink:href="dir_000008_000012.html" target="_top" xlink:title="4">
<text text-anchor="middle" x="71.65" y="-118.92" font-family="Helvetica,sans-Serif" font-size="10.00">4</text>
</a>
</g>
</g>
<!-- dir_bdd9a5d540de89e9fe90efdfc6973a4f -->
<g id="node4" class="node">
<title>dir_bdd9a5d540de89e9fe90efdfc6973a4f</title>
<g id="a_node4"><a xlink:href="dir_bdd9a5d540de89e9fe90efdfc6973a4f.html" target="_top" xlink:title="common">
<polygon fill="none" stroke="red" points="148.5,-36 89.5,-36 89.5,0 148.5,0 148.5,-36"/>
<text text-anchor="middle" x="119" y="-15.5" font-family="Helvetica,sans-Serif" font-size="10.00">common</text>
</a>
</g>
</g>
<!-- dir_8dfe1e0a882227ede81fe824e3144913&#45;&gt;dir_bdd9a5d540de89e9fe90efdfc6973a4f -->
<g id="edge1" class="edge">
<title>dir_8dfe1e0a882227ede81fe824e3144913&#45;&gt;dir_bdd9a5d540de89e9fe90efdfc6973a4f</title>
<path fill="none" stroke="black" d="M79.93,-143.68C86.81,-133.7 94.89,-120.66 100,-108 108.02,-88.13 112.87,-64.33 115.67,-46.35"/>
<polygon fill="black" stroke="black" points="119.16,-46.64 117.12,-36.25 112.23,-45.65 119.16,-46.64"/>
<g id="a_edge1&#45;headlabel"><a xlink:href="dir_000008_000001.html" target="_top" xlink:title="14">
<text text-anchor="middle" x="121.46" y="-48.1" font-family="Helvetica,sans-Serif" font-size="10.00">14</text>
</a>
</g>
</g>
<!-- dir_f9b02cdf76a5a3d3c8b8a33fd60e2526&#45;&gt;dir_bdd9a5d540de89e9fe90efdfc6973a4f -->
<g id="edge3" class="edge">
<title>dir_f9b02cdf76a5a3d3c8b8a33fd60e2526&#45;&gt;dir_bdd9a5d540de89e9fe90efdfc6973a4f</title>
<path fill="none" stroke="black" d="M77.6,-71.7C84.12,-63.39 92.07,-53.28 99.25,-44.14"/>
<polygon fill="black" stroke="black" points="102.13,-46.13 105.56,-36.1 96.63,-41.81 102.13,-46.13"/>
<g id="a_edge3&#45;headlabel"><a xlink:href="dir_000012_000001.html" target="_top" xlink:title="2">
<text text-anchor="middle" x="102.15" y="-48.21" font-family="Helvetica,sans-Serif" font-size="10.00">2</text>
</a>
</g>
</g>
<!-- dir_530002b765117689634e7db27e09d1d1 -->
<g id="node3" class="node">
<title>dir_530002b765117689634e7db27e09d1d1</title>
<g id="a_node3"><a xlink:href="dir_530002b765117689634e7db27e09d1d1.html" target="_top" xlink:title="src">
<polygon fill="white" stroke="black" points="182,-180 128,-180 128,-144 182,-144 182,-180"/>
<text text-anchor="middle" x="155" y="-159.5" font-family="Helvetica,sans-Serif" font-size="10.00">src</text>
</a>
</g>
</g>
<!-- dir_530002b765117689634e7db27e09d1d1&#45;&gt;dir_f9b02cdf76a5a3d3c8b8a33fd60e2526 -->
<g id="edge5" class="edge">
<title>dir_530002b765117689634e7db27e09d1d1&#45;&gt;dir_f9b02cdf76a5a3d3c8b8a33fd60e2526</title>
<path fill="none" stroke="black" d="M132.51,-143.7C121.04,-134.88 106.94,-124.03 94.52,-114.47"/>
<polygon fill="black" stroke="black" points="96.3,-111.43 86.24,-108.1 92.03,-116.98 96.3,-111.43"/>
<g id="a_edge5&#45;headlabel"><a xlink:href="dir_000011_000012.html" target="_top" xlink:title="2">
<text text-anchor="middle" x="100.88" y="-108.87" font-family="Helvetica,sans-Serif" font-size="10.00">2</text>
</a>
</g>
</g>
<!-- dir_530002b765117689634e7db27e09d1d1&#45;&gt;dir_bdd9a5d540de89e9fe90efdfc6973a4f -->
<g id="edge4" class="edge">
<title>dir_530002b765117689634e7db27e09d1d1&#45;&gt;dir_bdd9a5d540de89e9fe90efdfc6973a4f</title>
<path fill="none" stroke="black" d="M152.22,-143.7C148.66,-122.72 141.88,-86.39 133,-56 132.01,-52.6 130.85,-49.07 129.63,-45.6"/>
<polygon fill="black" stroke="black" points="132.87,-44.29 126.12,-36.13 126.31,-46.72 132.87,-44.29"/>
<g id="a_edge4&#45;headlabel"><a xlink:href="dir_000011_000001.html" target="_top" xlink:title="10">
<text text-anchor="middle" x="136.78" y="-44.17" font-family="Helvetica,sans-Serif" font-size="10.00">10</text>
</a>
</g>
</g>
</g>
</svg>
