<?xml version="1.0" encoding="UTF-8" standalone="no"?>
<!DOCTYPE svg PUBLIC "-//W3C//DTD SVG 1.1//EN"
 "http://www.w3.org/Graphics/SVG/1.1/DTD/svg11.dtd">
<!-- Generated by graphviz version 2.43.0 (0)
 -->
<!-- Title: include Pages: 1 -->
<svg width="137pt" height="151pt"
 viewBox="0.00 0.00 137.00 151.00" xmlns="http://www.w3.org/2000/svg" xmlns:xlink="http://www.w3.org/1999/xlink">
<g id="graph0" class="graph" transform="scale(1 1) rotate(0) translate(4 147)">
<title>include</title>
<polygon fill="white" stroke="transparent" points="-4,4 -4,-147 133,-147 133,4 -4,4"/>
<g id="clust1" class="cluster">
<title>clusterdir_864f292c5cbb4a74180810cb2e80dd5b</title>
<g id="a_clust1"><a xlink:href="dir_864f292c5cbb4a74180810cb2e80dd5b.html" target="_top" xlink:title="framework">
<polygon fill="#ddddee" stroke="black" points="29.5,-64 29.5,-135 99.5,-135 99.5,-64 29.5,-64"/>
<text text-anchor="middle" x="64.5" y="-123" font-family="Helvetica,sans-Serif" font-size="10.00">framework</text>
</a>
</g>
</g>
<!-- dir_1bc21981797ed08ef994409d474646cd -->
<g id="node1" class="node">
<title>dir_1bc21981797ed08ef994409d474646cd</title>
<g id="a_node1"><a xlink:href="dir_1bc21981797ed08ef994409d474646cd.html" target="_top" xlink:title="include">
<polygon fill="#eeeeff" stroke="black" points="91.5,-108 37.5,-108 37.5,-72 91.5,-72 91.5,-108"/>
<text text-anchor="middle" x="64.5" y="-87.5" font-family="Helvetica,sans-Serif" font-size="10.00">include</text>
</a>
</g>
</g>
<!-- dir_9c3954a29433d21caebe71551a91150a -->
<g id="node2" class="node">
<title>dir_9c3954a29433d21caebe71551a91150a</title>
<g id="a_node2"><a xlink:href="dir_9c3954a29433d21caebe71551a91150a.html" target="_top" xlink:title="geometry_construction">
<polygon fill="white" stroke="red" points="129,-36 0,-36 0,0 129,0 129,-36"/>
<text text-anchor="middle" x="64.5" y="-15.5" font-family="Helvetica,sans-Serif" font-size="10.00">geometry_construction</text>
</a>
</g>
</g>
<!-- dir_1bc21981797ed08ef994409d474646cd&#45;&gt;dir_9c3954a29433d21caebe71551a91150a -->
<g id="edge1" class="edge">
<title>dir_1bc21981797ed08ef994409d474646cd&#45;&gt;dir_9c3954a29433d21caebe71551a91150a</title>
<path fill="none" stroke="black" d="M64.5,-71.7C64.5,-63.98 64.5,-54.71 64.5,-46.11"/>
<polygon fill="black" stroke="black" points="68,-46.1 64.5,-36.1 61,-46.1 68,-46.1"/>
<g id="a_edge1&#45;headlabel"><a xlink:href="dir_000006_000001.html" target="_top" xlink:title="1">
<text text-anchor="middle" x="70.84" y="-47.2" font-family="Helvetica,sans-Serif" font-size="10.00">1</text>
</a>
</g>
</g>
</g>
</svg>
