<?xml version="1.0" encoding="UTF-8" standalone="no"?>
<!DOCTYPE svg PUBLIC "-//W3C//DTD SVG 1.1//EN"
 "http://www.w3.org/Graphics/SVG/1.1/DTD/svg11.dtd">
<!-- Generated by graphviz version 2.43.0 (0)
 -->
<!-- Title: radioactive_decays Pages: 1 -->
<svg width="216pt" height="180pt"
 viewBox="0.00 0.00 216.00 180.00" xmlns="http://www.w3.org/2000/svg" xmlns:xlink="http://www.w3.org/1999/xlink">
<g id="graph0" class="graph" transform="scale(1 1) rotate(0) translate(4 176)">
<title>radioactive_decays</title>
<g id="clust1" class="cluster">
<title>clusterdir_83271c016684bff04ce022d17a2ba8ac</title>
<g id="a_clust1"><a xlink:href="dir_83271c016684bff04ce022d17a2ba8ac.html" target="_top" xlink:title="simulations">
<polygon fill="#daedff" stroke="#404040" stroke-dasharray="5,2" points="8,-39 8,-164 200,-164 200,-39 8,-39"/>
<text text-anchor="middle" x="104" y="-152" font-family="Helvetica,sans-Serif" font-size="10.00">simulations</text>
</a>
</g>
</g>
<g id="clust2" class="cluster">
<title>clusterdir_bb55901d3b0c41c0755ece8de7fe1d65</title>
<g id="a_clust2"><a xlink:href="dir_bb55901d3b0c41c0755ece8de7fe1d65.html" target="_top">
<polygon fill="#daedff" stroke="#404040" stroke-width="2" points="16,-47 16,-137 192,-137 192,-47 16,-47"/>
</a>
</g>
</g>
<!-- dir_bb55901d3b0c41c0755ece8de7fe1d65 -->
<g id="node1" class="node">
<title>dir_bb55901d3b0c41c0755ece8de7fe1d65</title>
<text text-anchor="middle" x="79" y="-117" font-family="Helvetica,sans-Serif" font-size="10.00">radioactive_decays</text>
</g>
<!-- dir_aadee9bb2666fe6a6260a5bffac9e7bb -->
<g id="node2" class="node">
<title>dir_aadee9bb2666fe6a6260a5bffac9e7bb</title>
<g id="a_node2"><a xlink:href="dir_aadee9bb2666fe6a6260a5bffac9e7bb.html" target="_top" xlink:title="include">
<polygon fill="#4ea9ff" stroke="#404040" points="103,-74 51,-74 51,-55 103,-55 103,-74"/>
<text text-anchor="middle" x="77" y="-62" font-family="Helvetica,sans-Serif" font-size="10.00">include</text>
</a>
</g>
</g>
<!-- dir_bb55901d3b0c41c0755ece8de7fe1d65&#45;&gt;dir_aadee9bb2666fe6a6260a5bffac9e7bb -->
<g id="edge1" class="edge">
<title>dir_bb55901d3b0c41c0755ece8de7fe1d65&#45;&gt;dir_aadee9bb2666fe6a6260a5bffac9e7bb</title>
<g id="a_edge1"><a xlink:href="dir_000012_000010.html" target="_top">
<path fill="none" stroke="#63b8ff" d="M78.67,-109.75C78.41,-102.8 78.03,-92.85 77.7,-84.13"/>
<polygon fill="#63b8ff" stroke="#63b8ff" points="81.2,-83.95 77.32,-74.09 74.2,-84.21 81.2,-83.95"/>
</a>
</g>
<g id="a_edge1&#45;headlabel"><a xlink:href="dir_000012_000010.html" target="_top" xlink:title="13">
<text text-anchor="middle" x="84.17" y="-84.93" font-family="Helvetica,sans-Serif" font-size="10.00" fill="#63b8ff">13</text>
</a>
</g>
</g>
<!-- dir_bdd9a5d540de89e9fe90efdfc6973a4f -->
<g id="node4" class="node">
<title>dir_bdd9a5d540de89e9fe90efdfc6973a4f</title>
<g id="a_node4"><a xlink:href="dir_bdd9a5d540de89e9fe90efdfc6973a4f.html" target="_top" xlink:title="common">
<polygon fill="#daedff" stroke="red" points="160.5,-19 101.5,-19 101.5,0 160.5,0 160.5,-19"/>
<text text-anchor="middle" x="131" y="-7" font-family="Helvetica,sans-Serif" font-size="10.00">common</text>
</a>
</g>
</g>
<!-- dir_bb55901d3b0c41c0755ece8de7fe1d65&#45;&gt;dir_bdd9a5d540de89e9fe90efdfc6973a4f -->
<g id="edge2" class="edge">
<title>dir_bb55901d3b0c41c0755ece8de7fe1d65&#45;&gt;dir_bdd9a5d540de89e9fe90efdfc6973a4f</title>
<g id="a_edge2"><a xlink:href="dir_000012_000000.html" target="_top">
<path fill="none" stroke="#63b8ff" d="M86.81,-109.9C94.22,-101.35 105.19,-87.59 112,-74 119.18,-59.68 124.17,-42.15 127.23,-29.14"/>
<polygon fill="#63b8ff" stroke="#63b8ff" points="130.71,-29.59 129.42,-19.07 123.87,-28.09 130.71,-29.59"/>
</a>
</g>
<g id="a_edge2&#45;headlabel"><a xlink:href="dir_000012_000000.html" target="_top" xlink:title="17">
<text text-anchor="middle" x="132.72" y="-31.2" font-family="Helvetica,sans-Serif" font-size="10.00" fill="#63b8ff">17</text>
</a>
</g>
</g>
<!-- dir_aadee9bb2666fe6a6260a5bffac9e7bb&#45;&gt;dir_bdd9a5d540de89e9fe90efdfc6973a4f -->
<g id="edge3" class="edge">
<title>dir_aadee9bb2666fe6a6260a5bffac9e7bb&#45;&gt;dir_bdd9a5d540de89e9fe90efdfc6973a4f</title>
<g id="a_edge3"><a xlink:href="dir_000010_000000.html" target="_top">
<path fill="none" stroke="#63b8ff" d="M85.92,-54.75C93.78,-47.03 105.43,-35.6 114.92,-26.28"/>
<polygon fill="#63b8ff" stroke="#63b8ff" points="117.56,-28.59 122.25,-19.09 112.66,-23.6 117.56,-28.59"/>
</a>
</g>
<g id="a_edge3&#45;headlabel"><a xlink:href="dir_000010_000000.html" target="_top" xlink:title="1">
<text text-anchor="middle" x="116.99" y="-30.64" font-family="Helvetica,sans-Serif" font-size="10.00" fill="#63b8ff">1</text>
</a>
</g>
</g>
<!-- dir_8fdc56914180e7797b4b25774dd75a24 -->
<g id="node3" class="node">
<title>dir_8fdc56914180e7797b4b25774dd75a24</title>
<g id="a_node3"><a xlink:href="dir_8fdc56914180e7797b4b25774dd75a24.html" target="_top" xlink:title="src">
<polygon fill="#4ea9ff" stroke="#404040" points="183.5,-129 152.5,-129 152.5,-110 183.5,-110 183.5,-129"/>
<text text-anchor="middle" x="168" y="-117" font-family="Helvetica,sans-Serif" font-size="10.00">src</text>
</a>
</g>
</g>
<!-- dir_8fdc56914180e7797b4b25774dd75a24&#45;&gt;dir_aadee9bb2666fe6a6260a5bffac9e7bb -->
<g id="edge4" class="edge">
<title>dir_8fdc56914180e7797b4b25774dd75a24&#45;&gt;dir_aadee9bb2666fe6a6260a5bffac9e7bb</title>
<g id="a_edge4"><a xlink:href="dir_000018_000010.html" target="_top">
<path fill="none" stroke="#63b8ff" d="M153.38,-109.98C139.14,-101.69 117.25,-88.94 100.55,-79.22"/>
<polygon fill="#63b8ff" stroke="#63b8ff" points="102.29,-76.18 91.89,-74.17 98.77,-82.23 102.29,-76.18"/>
</a>
</g>
<g id="a_edge4&#45;headlabel"><a xlink:href="dir_000018_000010.html" target="_top" xlink:title="10">
<text text-anchor="middle" x="106.82" y="-73.03" font-family="Helvetica,sans-Serif" font-size="10.00" fill="#63b8ff">10</text>
</a>
</g>
</g>
<!-- dir_8fdc56914180e7797b4b25774dd75a24&#45;&gt;dir_bdd9a5d540de89e9fe90efdfc6973a4f -->
<g id="edge5" class="edge">
<title>dir_8fdc56914180e7797b4b25774dd75a24&#45;&gt;dir_bdd9a5d540de89e9fe90efdfc6973a4f</title>
<g id="a_edge5"><a xlink:href="dir_000018_000000.html" target="_top">
<path fill="none" stroke="#63b8ff" d="M166.06,-109.98C162.58,-95.26 154.75,-64.19 145,-39 143.65,-35.5 142.02,-31.85 140.37,-28.37"/>
<polygon fill="#63b8ff" stroke="#63b8ff" points="143.43,-26.68 135.82,-19.31 137.18,-29.81 143.43,-26.68"/>
</a>
</g>
<g id="a_edge5&#45;headlabel"><a xlink:href="dir_000018_000000.html" target="_top" xlink:title="14">
<text text-anchor="middle" x="147.58" y="-26.12" font-family="Helvetica,sans-Serif" font-size="10.00" fill="#63b8ff">14</text>
</a>
</g>
</g>
</g>
</svg>
