<?xml version="1.0" encoding="UTF-8" standalone="no"?>
<!DOCTYPE svg PUBLIC "-//W3C//DTD SVG 1.1//EN"
 "http://www.w3.org/Graphics/SVG/1.1/DTD/svg11.dtd">
<!-- Generated by graphviz version 2.43.0 (0)
 -->
<!-- Title: geometry_construction Pages: 1 -->
<svg width="336pt" height="183pt"
 viewBox="0.00 0.00 336.00 183.00" xmlns="http://www.w3.org/2000/svg" xmlns:xlink="http://www.w3.org/1999/xlink">
<g id="graph0" class="graph" transform="scale(1 1) rotate(0) translate(4 179)">
<title>geometry_construction</title>
<polygon fill="white" stroke="transparent" points="-4,4 -4,-179 332,-179 332,4 -4,4"/>
<g id="clust1" class="cluster">
<title>clusterdir_bdd9a5d540de89e9fe90efdfc6973a4f</title>
<g id="a_clust1"><a xlink:href="dir_bdd9a5d540de89e9fe90efdfc6973a4f.html" target="_top" xlink:title="common">
<polygon fill="#ddddee" stroke="black" points="8,-8 8,-167 320,-167 320,-8 8,-8"/>
<text text-anchor="middle" x="164" y="-155" font-family="Helvetica,sans-Serif" font-size="10.00">common</text>
</a>
</g>
</g>
<g id="clust2" class="cluster">
<title>clusterdir_9c3954a29433d21caebe71551a91150a</title>
<g id="a_clust2"><a xlink:href="dir_9c3954a29433d21caebe71551a91150a.html" target="_top">
<polygon fill="#eeeeff" stroke="black" points="16,-16 16,-140 234,-140 234,-16 16,-16"/>
</a>
</g>
</g>
<!-- dir_864f292c5cbb4a74180810cb2e80dd5b -->
<g id="node1" class="node">
<title>dir_864f292c5cbb4a74180810cb2e80dd5b</title>
<g id="a_node1"><a xlink:href="dir_864f292c5cbb4a74180810cb2e80dd5b.html" target="_top" xlink:title="framework">
<polygon fill="white" stroke="red" points="312,-60 242,-60 242,-24 312,-24 312,-60"/>
<text text-anchor="middle" x="277" y="-39.5" font-family="Helvetica,sans-Serif" font-size="10.00">framework</text>
</a>
</g>
</g>
<!-- dir_218371b85f6c667e47e4a2c498ee505b -->
<g id="node3" class="node">
<title>dir_218371b85f6c667e47e4a2c498ee505b</title>
<g id="a_node3"><a xlink:href="dir_218371b85f6c667e47e4a2c498ee505b.html" target="_top" xlink:title="include">
<polygon fill="white" stroke="black" points="151,-60 97,-60 97,-24 151,-24 151,-60"/>
<text text-anchor="middle" x="124" y="-39.5" font-family="Helvetica,sans-Serif" font-size="10.00">include</text>
</a>
</g>
</g>
<!-- dir_864f292c5cbb4a74180810cb2e80dd5b&#45;&gt;dir_218371b85f6c667e47e4a2c498ee505b -->
<g id="edge1" class="edge">
<title>dir_864f292c5cbb4a74180810cb2e80dd5b&#45;&gt;dir_218371b85f6c667e47e4a2c498ee505b</title>
<path fill="none" stroke="black" d="M241.62,-42C214.89,-42 188.16,-42 161.44,-42"/>
<polygon fill="black" stroke="black" points="161.19,-38.5 151.19,-42 161.19,-45.5 161.19,-38.5"/>
<g id="a_edge1&#45;headlabel"><a xlink:href="dir_000004_000003.html" target="_top" xlink:title="1">
<text text-anchor="middle" x="164.79" y="-33.16" font-family="Helvetica,sans-Serif" font-size="10.00">1</text>
</a>
</g>
</g>
<!-- dir_9c3954a29433d21caebe71551a91150a -->
<g id="node2" class="node">
<title>dir_9c3954a29433d21caebe71551a91150a</title>
<text text-anchor="middle" x="161" y="-111.5" font-family="Helvetica,sans-Serif" font-size="10.00">geometry_construction</text>
</g>
<!-- dir_218371b85f6c667e47e4a2c498ee505b&#45;&gt;dir_864f292c5cbb4a74180810cb2e80dd5b -->
<g id="edge2" class="edge">
<title>dir_218371b85f6c667e47e4a2c498ee505b&#45;&gt;dir_864f292c5cbb4a74180810cb2e80dd5b</title>
<path fill="none" stroke="black" d="M151.19,-42C177.92,-42 204.65,-42 231.37,-42"/>
<polygon fill="black" stroke="black" points="231.62,-45.5 241.62,-42 231.62,-38.5 231.62,-45.5"/>
<g id="a_edge2&#45;headlabel"><a xlink:href="dir_000003_000004.html" target="_top" xlink:title="3">
<text text-anchor="middle" x="228.02" y="-45.84" font-family="Helvetica,sans-Serif" font-size="10.00">3</text>
</a>
</g>
</g>
<!-- dir_e9dca0ccd90dffea88fe042b493f5403 -->
<g id="node4" class="node">
<title>dir_e9dca0ccd90dffea88fe042b493f5403</title>
<g id="a_node4"><a xlink:href="dir_e9dca0ccd90dffea88fe042b493f5403.html" target="_top" xlink:title="src">
<polygon fill="white" stroke="black" points="78,-132 24,-132 24,-96 78,-96 78,-132"/>
<text text-anchor="middle" x="51" y="-111.5" font-family="Helvetica,sans-Serif" font-size="10.00">src</text>
</a>
</g>
</g>
<!-- dir_e9dca0ccd90dffea88fe042b493f5403&#45;&gt;dir_864f292c5cbb4a74180810cb2e80dd5b -->
<g id="edge4" class="edge">
<title>dir_e9dca0ccd90dffea88fe042b493f5403&#45;&gt;dir_864f292c5cbb4a74180810cb2e80dd5b</title>
<path fill="none" stroke="black" d="M78.23,-99.77C81.49,-98.4 84.79,-97.11 88,-96 149.63,-74.68 170.91,-81.05 232.07,-61.83"/>
<polygon fill="black" stroke="black" points="233.39,-65.09 241.82,-58.66 231.23,-58.43 233.39,-65.09"/>
<g id="a_edge4&#45;headlabel"><a xlink:href="dir_000002_000004.html" target="_top" xlink:title="23">
<text text-anchor="middle" x="230.85" y="-66.4" font-family="Helvetica,sans-Serif" font-size="10.00">23</text>
</a>
</g>
</g>
<!-- dir_e9dca0ccd90dffea88fe042b493f5403&#45;&gt;dir_218371b85f6c667e47e4a2c498ee505b -->
<g id="edge3" class="edge">
<title>dir_e9dca0ccd90dffea88fe042b493f5403&#45;&gt;dir_218371b85f6c667e47e4a2c498ee505b</title>
<path fill="none" stroke="black" d="M69.04,-95.7C78.06,-87.05 89.12,-76.45 98.94,-67.03"/>
<polygon fill="black" stroke="black" points="101.37,-69.55 106.16,-60.1 96.52,-64.5 101.37,-69.55"/>
<g id="a_edge3&#45;headlabel"><a xlink:href="dir_000002_000003.html" target="_top" xlink:title="27">
<text text-anchor="middle" x="100.74" y="-71.59" font-family="Helvetica,sans-Serif" font-size="10.00">27</text>
</a>
</g>
</g>
</g>
</svg>
