<?xml version="1.0" encoding="UTF-8" standalone="no"?>
<!DOCTYPE svg PUBLIC "-//W3C//DTD SVG 1.1//EN"
 "http://www.w3.org/Graphics/SVG/1.1/DTD/svg11.dtd">
<!-- Generated by graphviz version 2.43.0 (0)
 -->
<!-- Title: effective_area Pages: 1 -->
<svg width="198pt" height="204pt"
 viewBox="0.00 0.00 198.00 204.00" xmlns="http://www.w3.org/2000/svg" xmlns:xlink="http://www.w3.org/1999/xlink">
<g id="graph0" class="graph" transform="scale(1 1) rotate(0) translate(4 200)">
<title>effective_area</title>
<polygon fill="white" stroke="transparent" points="-4,4 -4,-200 194,-200 194,4 -4,4"/>
<g id="clust1" class="cluster">
<title>clusterdir_0508a806709bbb036eb481438c5edd07</title>
<g id="a_clust1"><a xlink:href="dir_0508a806709bbb036eb481438c5edd07.html" target="_top">
<polygon fill="#eeeeff" stroke="black" points="8,-64 8,-188 182,-188 182,-64 8,-64"/>
</a>
</g>
</g>
<!-- dir_0508a806709bbb036eb481438c5edd07 -->
<g id="node1" class="node">
<title>dir_0508a806709bbb036eb481438c5edd07</title>
<text text-anchor="middle" x="59" y="-159.5" font-family="Helvetica,sans-Serif" font-size="10.00">effective_area</text>
</g>
<!-- dir_067620130b80b08c0f6387663e9785ff -->
<g id="node2" class="node">
<title>dir_067620130b80b08c0f6387663e9785ff</title>
<g id="a_node2"><a xlink:href="dir_067620130b80b08c0f6387663e9785ff.html" target="_top" xlink:title="include">
<polygon fill="white" stroke="black" points="83,-108 29,-108 29,-72 83,-72 83,-108"/>
<text text-anchor="middle" x="56" y="-87.5" font-family="Helvetica,sans-Serif" font-size="10.00">include</text>
</a>
</g>
</g>
<!-- dir_0508a806709bbb036eb481438c5edd07&#45;&gt;dir_067620130b80b08c0f6387663e9785ff -->
<g id="edge4" class="edge">
<title>dir_0508a806709bbb036eb481438c5edd07&#45;&gt;dir_067620130b80b08c0f6387663e9785ff</title>
<path fill="none" stroke="black" d="M58.26,-143.7C57.93,-135.98 57.53,-126.71 57.16,-118.11"/>
<polygon fill="black" stroke="black" points="60.66,-117.95 56.73,-108.1 53.66,-118.25 60.66,-117.95"/>
<g id="a_edge4&#45;headlabel"><a xlink:href="dir_000007_000011.html" target="_top" xlink:title="6">
<text text-anchor="middle" x="63.65" y="-118.92" font-family="Helvetica,sans-Serif" font-size="10.00">6</text>
</a>
</g>
</g>
<!-- dir_bdd9a5d540de89e9fe90efdfc6973a4f -->
<g id="node4" class="node">
<title>dir_bdd9a5d540de89e9fe90efdfc6973a4f</title>
<g id="a_node4"><a xlink:href="dir_bdd9a5d540de89e9fe90efdfc6973a4f.html" target="_top" xlink:title="common">
<polygon fill="white" stroke="red" points="140.5,-36 81.5,-36 81.5,0 140.5,0 140.5,-36"/>
<text text-anchor="middle" x="111" y="-15.5" font-family="Helvetica,sans-Serif" font-size="10.00">common</text>
</a>
</g>
</g>
<!-- dir_0508a806709bbb036eb481438c5edd07&#45;&gt;dir_bdd9a5d540de89e9fe90efdfc6973a4f -->
<g id="edge5" class="edge">
<title>dir_0508a806709bbb036eb481438c5edd07&#45;&gt;dir_bdd9a5d540de89e9fe90efdfc6973a4f</title>
<path fill="none" stroke="black" d="M71.93,-143.68C78.81,-133.7 86.89,-120.66 92,-108 100.02,-88.13 104.87,-64.33 107.67,-46.35"/>
<polygon fill="black" stroke="black" points="111.16,-46.64 109.12,-36.25 104.23,-45.65 111.16,-46.64"/>
<g id="a_edge5&#45;headlabel"><a xlink:href="dir_000007_000000.html" target="_top" xlink:title="15">
<text text-anchor="middle" x="113.46" y="-48.1" font-family="Helvetica,sans-Serif" font-size="10.00">15</text>
</a>
</g>
</g>
<!-- dir_067620130b80b08c0f6387663e9785ff&#45;&gt;dir_bdd9a5d540de89e9fe90efdfc6973a4f -->
<g id="edge3" class="edge">
<title>dir_067620130b80b08c0f6387663e9785ff&#45;&gt;dir_bdd9a5d540de89e9fe90efdfc6973a4f</title>
<path fill="none" stroke="black" d="M69.6,-71.7C76.12,-63.39 84.07,-53.28 91.25,-44.14"/>
<polygon fill="black" stroke="black" points="94.13,-46.13 97.56,-36.1 88.63,-41.81 94.13,-46.13"/>
<g id="a_edge3&#45;headlabel"><a xlink:href="dir_000011_000000.html" target="_top" xlink:title="3">
<text text-anchor="middle" x="94.15" y="-48.21" font-family="Helvetica,sans-Serif" font-size="10.00">3</text>
</a>
</g>
</g>
<!-- dir_d37c0932b77460c292883242d0a02c13 -->
<g id="node3" class="node">
<title>dir_d37c0932b77460c292883242d0a02c13</title>
<g id="a_node3"><a xlink:href="dir_d37c0932b77460c292883242d0a02c13.html" target="_top" xlink:title="src">
<polygon fill="white" stroke="black" points="174,-180 120,-180 120,-144 174,-144 174,-180"/>
<text text-anchor="middle" x="147" y="-159.5" font-family="Helvetica,sans-Serif" font-size="10.00">src</text>
</a>
</g>
</g>
<!-- dir_d37c0932b77460c292883242d0a02c13&#45;&gt;dir_067620130b80b08c0f6387663e9785ff -->
<g id="edge1" class="edge">
<title>dir_d37c0932b77460c292883242d0a02c13&#45;&gt;dir_067620130b80b08c0f6387663e9785ff</title>
<path fill="none" stroke="black" d="M124.51,-143.7C113.04,-134.88 98.94,-124.03 86.52,-114.47"/>
<polygon fill="black" stroke="black" points="88.3,-111.43 78.24,-108.1 84.03,-116.98 88.3,-111.43"/>
<g id="a_edge1&#45;headlabel"><a xlink:href="dir_000010_000011.html" target="_top" xlink:title="3">
<text text-anchor="middle" x="92.88" y="-108.87" font-family="Helvetica,sans-Serif" font-size="10.00">3</text>
</a>
</g>
</g>
<!-- dir_d37c0932b77460c292883242d0a02c13&#45;&gt;dir_bdd9a5d540de89e9fe90efdfc6973a4f -->
<g id="edge2" class="edge">
<title>dir_d37c0932b77460c292883242d0a02c13&#45;&gt;dir_bdd9a5d540de89e9fe90efdfc6973a4f</title>
<path fill="none" stroke="black" d="M143.51,-143.73C139.48,-124.25 132.43,-91.68 125,-64 123.4,-58.03 121.52,-51.66 119.67,-45.65"/>
<polygon fill="black" stroke="black" points="122.98,-44.49 116.64,-36 116.3,-46.59 122.98,-44.49"/>
<g id="a_edge2&#45;headlabel"><a xlink:href="dir_000010_000000.html" target="_top" xlink:title="11">
<text text-anchor="middle" x="126.76" y="-44.57" font-family="Helvetica,sans-Serif" font-size="10.00">11</text>
</a>
</g>
</g>
</g>
</svg>
