<?xml version="1.0" encoding="UTF-8" standalone="no"?>
<!DOCTYPE svg PUBLIC "-//W3C//DTD SVG 1.1//EN"
 "http://www.w3.org/Graphics/SVG/1.1/DTD/svg11.dtd">
<!-- Generated by graphviz version 2.43.0 (0)
 -->
<!-- Title: effective_area Pages: 1 -->
<svg width="270pt" height="132pt"
 viewBox="0.00 0.00 270.00 132.00" xmlns="http://www.w3.org/2000/svg" xmlns:xlink="http://www.w3.org/1999/xlink">
<g id="graph0" class="graph" transform="scale(1 1) rotate(0) translate(4 128)">
<title>effective_area</title>
<g id="clust1" class="cluster">
<title>clusterdir_0508a806709bbb036eb481438c5edd07</title>
<g id="a_clust1"><a xlink:href="dir_0508a806709bbb036eb481438c5edd07.html" target="_top">
<polygon fill="#eeeeff" stroke="black" points="8,-64 8,-116 254,-116 254,-64 8,-64"/>
</a>
</g>
</g>
<!-- dir_0508a806709bbb036eb481438c5edd07 -->
<g id="node1" class="node">
<title>dir_0508a806709bbb036eb481438c5edd07</title>
<text text-anchor="middle" x="203" y="-87.5" font-family="Helvetica,sans-Serif" font-size="10.00">effective_area</text>
</g>
<!-- dir_bdd9a5d540de89e9fe90efdfc6973a4f -->
<g id="node4" class="node">
<title>dir_bdd9a5d540de89e9fe90efdfc6973a4f</title>
<g id="a_node4"><a xlink:href="dir_bdd9a5d540de89e9fe90efdfc6973a4f.html" target="_top" xlink:title="common">
<polygon fill="none" stroke="red" points="144.5,-36 85.5,-36 85.5,0 144.5,0 144.5,-36"/>
<text text-anchor="middle" x="115" y="-15.5" font-family="Helvetica,sans-Serif" font-size="10.00">common</text>
</a>
</g>
</g>
<!-- dir_0508a806709bbb036eb481438c5edd07&#45;&gt;dir_bdd9a5d540de89e9fe90efdfc6973a4f -->
<g id="edge3" class="edge">
<title>dir_0508a806709bbb036eb481438c5edd07&#45;&gt;dir_bdd9a5d540de89e9fe90efdfc6973a4f</title>
<path fill="none" stroke="black" d="M181.25,-71.7C170.16,-62.88 156.53,-52.03 144.51,-42.47"/>
<polygon fill="black" stroke="black" points="146.51,-39.59 136.5,-36.1 142.15,-45.07 146.51,-39.59"/>
<g id="a_edge3&#45;headlabel"><a xlink:href="dir_000008_000001.html" target="_top" xlink:title="13">
<text text-anchor="middle" x="151.09" y="-37.11" font-family="Helvetica,sans-Serif" font-size="10.00">13</text>
</a>
</g>
</g>
<!-- dir_067620130b80b08c0f6387663e9785ff -->
<g id="node2" class="node">
<title>dir_067620130b80b08c0f6387663e9785ff</title>
<g id="a_node2"><a xlink:href="dir_067620130b80b08c0f6387663e9785ff.html" target="_top" xlink:title="include">
<polygon fill="white" stroke="black" points="142,-108 88,-108 88,-72 142,-72 142,-108"/>
<text text-anchor="middle" x="115" y="-87.5" font-family="Helvetica,sans-Serif" font-size="10.00">include</text>
</a>
</g>
</g>
<!-- dir_067620130b80b08c0f6387663e9785ff&#45;&gt;dir_bdd9a5d540de89e9fe90efdfc6973a4f -->
<g id="edge2" class="edge">
<title>dir_067620130b80b08c0f6387663e9785ff&#45;&gt;dir_bdd9a5d540de89e9fe90efdfc6973a4f</title>
<path fill="none" stroke="black" d="M115,-71.7C115,-63.98 115,-54.71 115,-46.11"/>
<polygon fill="black" stroke="black" points="118.5,-46.1 115,-36.1 111.5,-46.1 118.5,-46.1"/>
<g id="a_edge2&#45;headlabel"><a xlink:href="dir_000014_000001.html" target="_top" xlink:title="2">
<text text-anchor="middle" x="121.34" y="-47.2" font-family="Helvetica,sans-Serif" font-size="10.00">2</text>
</a>
</g>
</g>
<!-- dir_d37c0932b77460c292883242d0a02c13 -->
<g id="node3" class="node">
<title>dir_d37c0932b77460c292883242d0a02c13</title>
<g id="a_node3"><a xlink:href="dir_d37c0932b77460c292883242d0a02c13.html" target="_top" xlink:title="src">
<polygon fill="white" stroke="black" points="70,-108 16,-108 16,-72 70,-72 70,-108"/>
<text text-anchor="middle" x="43" y="-87.5" font-family="Helvetica,sans-Serif" font-size="10.00">src</text>
</a>
</g>
</g>
<!-- dir_d37c0932b77460c292883242d0a02c13&#45;&gt;dir_bdd9a5d540de89e9fe90efdfc6973a4f -->
<g id="edge1" class="edge">
<title>dir_d37c0932b77460c292883242d0a02c13&#45;&gt;dir_bdd9a5d540de89e9fe90efdfc6973a4f</title>
<path fill="none" stroke="black" d="M60.8,-71.7C69.6,-63.14 80.38,-52.66 90,-43.3"/>
<polygon fill="black" stroke="black" points="92.68,-45.58 97.41,-36.1 87.8,-40.57 92.68,-45.58"/>
<g id="a_edge1&#45;headlabel"><a xlink:href="dir_000012_000001.html" target="_top" xlink:title="10">
<text text-anchor="middle" x="92.08" y="-47.63" font-family="Helvetica,sans-Serif" font-size="10.00">10</text>
</a>
</g>
</g>
</g>
</svg>
