<?xml version="1.0" encoding="UTF-8" standalone="no"?>
<!DOCTYPE svg PUBLIC "-//W3C//DTD SVG 1.1//EN"
 "http://www.w3.org/Graphics/SVG/1.1/DTD/svg11.dtd">
<!-- Generated by graphviz version 2.43.0 (0)
 -->
<!-- Title: src Pages: 1 -->
<svg width="116pt" height="223pt"
 viewBox="0.00 0.00 115.50 223.00" xmlns="http://www.w3.org/2000/svg" xmlns:xlink="http://www.w3.org/1999/xlink">
<g id="graph0" class="graph" transform="scale(1 1) rotate(0) translate(4 219)">
<title>src</title>
<polygon fill="white" stroke="transparent" points="-4,4 -4,-219 111.5,-219 111.5,4 -4,4"/>
<g id="clust1" class="cluster">
<title>clusterdir_0508a806709bbb036eb481438c5edd07</title>
<g id="a_clust1"><a xlink:href="dir_0508a806709bbb036eb481438c5edd07.html" target="_top" xlink:title="effective_area">
<polygon fill="#ddddee" stroke="black" points="8,-64 8,-207 94,-207 94,-64 8,-64"/>
<text text-anchor="middle" x="51" y="-195" font-family="Helvetica,sans-Serif" font-size="10.00">effective_area</text>
</a>
</g>
</g>
<!-- dir_067620130b80b08c0f6387663e9785ff -->
<g id="node1" class="node">
<title>dir_067620130b80b08c0f6387663e9785ff</title>
<g id="a_node1"><a xlink:href="dir_067620130b80b08c0f6387663e9785ff.html" target="_top" xlink:title="include">
<polygon fill="none" stroke="black" points="78,-108 24,-108 24,-72 78,-72 78,-108"/>
<text text-anchor="middle" x="51" y="-87.5" font-family="Helvetica,sans-Serif" font-size="10.00">include</text>
</a>
</g>
</g>
<!-- dir_bdd9a5d540de89e9fe90efdfc6973a4f -->
<g id="node3" class="node">
<title>dir_bdd9a5d540de89e9fe90efdfc6973a4f</title>
<g id="a_node3"><a xlink:href="dir_bdd9a5d540de89e9fe90efdfc6973a4f.html" target="_top" xlink:title="common">
<polygon fill="white" stroke="red" points="107.5,-36 48.5,-36 48.5,0 107.5,0 107.5,-36"/>
<text text-anchor="middle" x="78" y="-15.5" font-family="Helvetica,sans-Serif" font-size="10.00">common</text>
</a>
</g>
</g>
<!-- dir_067620130b80b08c0f6387663e9785ff&#45;&gt;dir_bdd9a5d540de89e9fe90efdfc6973a4f -->
<g id="edge3" class="edge">
<title>dir_067620130b80b08c0f6387663e9785ff&#45;&gt;dir_bdd9a5d540de89e9fe90efdfc6973a4f</title>
<path fill="none" stroke="black" d="M57.67,-71.7C60.71,-63.81 64.38,-54.3 67.76,-45.55"/>
<polygon fill="black" stroke="black" points="71.07,-46.69 71.4,-36.1 64.54,-44.17 71.07,-46.69"/>
<g id="a_edge3&#45;headlabel"><a xlink:href="dir_000011_000000.html" target="_top" xlink:title="2">
<text text-anchor="middle" x="72.42" y="-48.57" font-family="Helvetica,sans-Serif" font-size="10.00">2</text>
</a>
</g>
</g>
<!-- dir_d37c0932b77460c292883242d0a02c13 -->
<g id="node2" class="node">
<title>dir_d37c0932b77460c292883242d0a02c13</title>
<g id="a_node2"><a xlink:href="dir_d37c0932b77460c292883242d0a02c13.html" target="_top" xlink:title="src">
<polygon fill="#eeeeff" stroke="black" points="82,-180 28,-180 28,-144 82,-144 82,-180"/>
<text text-anchor="middle" x="55" y="-159.5" font-family="Helvetica,sans-Serif" font-size="10.00">src</text>
</a>
</g>
</g>
<!-- dir_d37c0932b77460c292883242d0a02c13&#45;&gt;dir_067620130b80b08c0f6387663e9785ff -->
<g id="edge1" class="edge">
<title>dir_d37c0932b77460c292883242d0a02c13&#45;&gt;dir_067620130b80b08c0f6387663e9785ff</title>
<path fill="none" stroke="black" d="M54.01,-143.7C53.57,-135.98 53.04,-126.71 52.55,-118.11"/>
<polygon fill="black" stroke="black" points="56.04,-117.89 51.98,-108.1 49.05,-118.29 56.04,-117.89"/>
<g id="a_edge1&#45;headlabel"><a xlink:href="dir_000010_000011.html" target="_top" xlink:title="2">
<text text-anchor="middle" x="59.08" y="-118.82" font-family="Helvetica,sans-Serif" font-size="10.00">2</text>
</a>
</g>
</g>
<!-- dir_d37c0932b77460c292883242d0a02c13&#45;&gt;dir_bdd9a5d540de89e9fe90efdfc6973a4f -->
<g id="edge2" class="edge">
<title>dir_d37c0932b77460c292883242d0a02c13&#45;&gt;dir_bdd9a5d540de89e9fe90efdfc6973a4f</title>
<path fill="none" stroke="black" d="M68.56,-143.97C75.56,-134.09 83.37,-121.05 87,-108 92.68,-87.61 89.76,-63.72 85.79,-45.82"/>
<polygon fill="black" stroke="black" points="89.18,-44.92 83.39,-36.05 82.38,-46.59 89.18,-44.92"/>
<g id="a_edge2&#45;headlabel"><a xlink:href="dir_000010_000000.html" target="_top" xlink:title="10">
<text text-anchor="middle" x="92.79" y="-45.24" font-family="Helvetica,sans-Serif" font-size="10.00">10</text>
</a>
</g>
</g>
</g>
</svg>
