<?xml version="1.0" encoding="UTF-8" standalone="no"?>
<!DOCTYPE svg PUBLIC "-//W3C//DTD SVG 1.1//EN"
 "http://www.w3.org/Graphics/SVG/1.1/DTD/svg11.dtd">
<!-- Generated by graphviz version 2.43.0 (0)
 -->
<!-- Title: simulations Pages: 1 -->
<svg width="573pt" height="132pt"
 viewBox="0.00 0.00 573.00 132.00" xmlns="http://www.w3.org/2000/svg" xmlns:xlink="http://www.w3.org/1999/xlink">
<g id="graph0" class="graph" transform="scale(1 1) rotate(0) translate(4 128)">
<title>simulations</title>
<g id="clust1" class="cluster">
<title>clusterdir_83271c016684bff04ce022d17a2ba8ac</title>
<g id="a_clust1"><a xlink:href="dir_83271c016684bff04ce022d17a2ba8ac.html" target="_top">
<polygon fill="#eeeeff" stroke="black" points="8,-64 8,-116 557,-116 557,-64 8,-64"/>
</a>
</g>
</g>
<!-- dir_83271c016684bff04ce022d17a2ba8ac -->
<g id="node1" class="node">
<title>dir_83271c016684bff04ce022d17a2ba8ac</title>
<text text-anchor="middle" x="512" y="-87.5" font-family="Helvetica,sans-Serif" font-size="10.00">simulations</text>
</g>
<!-- dir_8dfe1e0a882227ede81fe824e3144913 -->
<g id="node2" class="node">
<title>dir_8dfe1e0a882227ede81fe824e3144913</title>
<g id="a_node2"><a xlink:href="dir_8dfe1e0a882227ede81fe824e3144913.html" target="_top" xlink:title="effective_area">
<polygon fill="white" stroke="red" points="457,-108 371,-108 371,-72 457,-72 457,-108"/>
<text text-anchor="middle" x="414" y="-87.5" font-family="Helvetica,sans-Serif" font-size="10.00">effective_area</text>
</a>
</g>
</g>
<!-- dir_bdd9a5d540de89e9fe90efdfc6973a4f -->
<g id="node6" class="node">
<title>dir_bdd9a5d540de89e9fe90efdfc6973a4f</title>
<g id="a_node6"><a xlink:href="dir_bdd9a5d540de89e9fe90efdfc6973a4f.html" target="_top" xlink:title="common">
<polygon fill="none" stroke="red" points="254.5,-36 195.5,-36 195.5,0 254.5,0 254.5,-36"/>
<text text-anchor="middle" x="225" y="-15.5" font-family="Helvetica,sans-Serif" font-size="10.00">common</text>
</a>
</g>
</g>
<!-- dir_8dfe1e0a882227ede81fe824e3144913&#45;&gt;dir_bdd9a5d540de89e9fe90efdfc6973a4f -->
<g id="edge1" class="edge">
<title>dir_8dfe1e0a882227ede81fe824e3144913&#45;&gt;dir_bdd9a5d540de89e9fe90efdfc6973a4f</title>
<path fill="none" stroke="black" d="M380.16,-71.95C374.17,-69.15 367.95,-66.39 362,-64 329.63,-50.97 291.9,-38.79 264.24,-30.39"/>
<polygon fill="black" stroke="black" points="265.11,-27 254.53,-27.48 263.1,-33.71 265.11,-27"/>
<g id="a_edge1&#45;headlabel"><a xlink:href="dir_000009_000001.html" target="_top" xlink:title="14">
<text text-anchor="middle" x="269.37" y="-22.82" font-family="Helvetica,sans-Serif" font-size="10.00">14</text>
</a>
</g>
</g>
<!-- dir_1982ac4ee14fc237007cc9ebcbaeb674 -->
<g id="node3" class="node">
<title>dir_1982ac4ee14fc237007cc9ebcbaeb674</title>
<g id="a_node3"><a xlink:href="dir_1982ac4ee14fc237007cc9ebcbaeb674.html" target="_top" xlink:title="efficiency_calibration">
<polygon fill="white" stroke="red" points="352.5,-108 231.5,-108 231.5,-72 352.5,-72 352.5,-108"/>
<text text-anchor="middle" x="292" y="-87.5" font-family="Helvetica,sans-Serif" font-size="10.00">efficiency_calibration</text>
</a>
</g>
</g>
<!-- dir_1982ac4ee14fc237007cc9ebcbaeb674&#45;&gt;dir_bdd9a5d540de89e9fe90efdfc6973a4f -->
<g id="edge4" class="edge">
<title>dir_1982ac4ee14fc237007cc9ebcbaeb674&#45;&gt;dir_bdd9a5d540de89e9fe90efdfc6973a4f</title>
<path fill="none" stroke="black" d="M275.44,-71.7C267.32,-63.22 257.41,-52.86 248.53,-43.58"/>
<polygon fill="black" stroke="black" points="250.81,-40.91 241.37,-36.1 245.76,-45.75 250.81,-40.91"/>
<g id="a_edge4&#45;headlabel"><a xlink:href="dir_000010_000001.html" target="_top" xlink:title="15">
<text text-anchor="middle" x="255.35" y="-39.04" font-family="Helvetica,sans-Serif" font-size="10.00">15</text>
</a>
</g>
</g>
<!-- dir_bb55901d3b0c41c0755ece8de7fe1d65 -->
<g id="node4" class="node">
<title>dir_bb55901d3b0c41c0755ece8de7fe1d65</title>
<g id="a_node4"><a xlink:href="dir_bb55901d3b0c41c0755ece8de7fe1d65.html" target="_top" xlink:title="radioactive_decays">
<polygon fill="white" stroke="red" points="213.5,-108 102.5,-108 102.5,-72 213.5,-72 213.5,-108"/>
<text text-anchor="middle" x="158" y="-87.5" font-family="Helvetica,sans-Serif" font-size="10.00">radioactive_decays</text>
</a>
</g>
</g>
<!-- dir_bb55901d3b0c41c0755ece8de7fe1d65&#45;&gt;dir_bdd9a5d540de89e9fe90efdfc6973a4f -->
<g id="edge3" class="edge">
<title>dir_bb55901d3b0c41c0755ece8de7fe1d65&#45;&gt;dir_bdd9a5d540de89e9fe90efdfc6973a4f</title>
<path fill="none" stroke="black" d="M174.56,-71.7C182.68,-63.22 192.59,-52.86 201.47,-43.58"/>
<polygon fill="black" stroke="black" points="204.24,-45.75 208.63,-36.1 199.19,-40.91 204.24,-45.75"/>
<g id="a_edge3&#45;headlabel"><a xlink:href="dir_000011_000001.html" target="_top" xlink:title="17">
<text text-anchor="middle" x="203.81" y="-47.81" font-family="Helvetica,sans-Serif" font-size="10.00">17</text>
</a>
</g>
</g>
<!-- dir_553094e69e8206429061833255d80122 -->
<g id="node5" class="node">
<title>dir_553094e69e8206429061833255d80122</title>
<g id="a_node5"><a xlink:href="dir_553094e69e8206429061833255d80122.html" target="_top" xlink:title="supernova">
<polygon fill="white" stroke="red" points="84,-108 16,-108 16,-72 84,-72 84,-108"/>
<text text-anchor="middle" x="50" y="-87.5" font-family="Helvetica,sans-Serif" font-size="10.00">supernova</text>
</a>
</g>
</g>
<!-- dir_553094e69e8206429061833255d80122&#45;&gt;dir_bdd9a5d540de89e9fe90efdfc6973a4f -->
<g id="edge2" class="edge">
<title>dir_553094e69e8206429061833255d80122&#45;&gt;dir_bdd9a5d540de89e9fe90efdfc6973a4f</title>
<path fill="none" stroke="black" d="M78.48,-71.81C83.56,-69.03 88.87,-66.31 94,-64 123.93,-50.5 159.21,-38.59 185.61,-30.43"/>
<polygon fill="black" stroke="black" points="186.71,-33.75 195.26,-27.49 184.67,-27.05 186.71,-33.75"/>
<g id="a_edge2&#45;headlabel"><a xlink:href="dir_000012_000001.html" target="_top" xlink:title="17">
<text text-anchor="middle" x="184.1" y="-35.01" font-family="Helvetica,sans-Serif" font-size="10.00">17</text>
</a>
</g>
</g>
</g>
</svg>
