<?xml version="1.0" encoding="UTF-8" standalone="no"?>
<!DOCTYPE svg PUBLIC "-//W3C//DTD SVG 1.1//EN"
 "http://www.w3.org/Graphics/SVG/1.1/DTD/svg11.dtd">
<!-- Generated by graphviz version 2.43.0 (0)
 -->
<!-- Title: supernova Pages: 1 -->
<svg width="174pt" height="180pt"
 viewBox="0.00 0.00 174.00 180.00" xmlns="http://www.w3.org/2000/svg" xmlns:xlink="http://www.w3.org/1999/xlink">
<g id="graph0" class="graph" transform="scale(1 1) rotate(0) translate(4 176)">
<title>supernova</title>
<g id="clust1" class="cluster">
<title>clusterdir_83271c016684bff04ce022d17a2ba8ac</title>
<g id="a_clust1"><a xlink:href="dir_83271c016684bff04ce022d17a2ba8ac.html" target="_top" xlink:title="simulations">
<polygon fill="#daedff" stroke="#404040" stroke-dasharray="5,2" points="8,-39 8,-164 158,-164 158,-39 8,-39"/>
<text text-anchor="middle" x="83" y="-152" font-family="Helvetica,sans-Serif" font-size="10.00">simulations</text>
</a>
</g>
</g>
<g id="clust2" class="cluster">
<title>clusterdir_553094e69e8206429061833255d80122</title>
<g id="a_clust2"><a xlink:href="dir_553094e69e8206429061833255d80122.html" target="_top">
<polygon fill="#daedff" stroke="#404040" stroke-width="2" points="16,-47 16,-137 150,-137 150,-47 16,-47"/>
</a>
</g>
</g>
<!-- dir_553094e69e8206429061833255d80122 -->
<g id="node1" class="node">
<title>dir_553094e69e8206429061833255d80122</title>
<text text-anchor="middle" x="108" y="-117" font-family="Helvetica,sans-Serif" font-size="10.00">supernova</text>
</g>
<!-- dir_bdd9a5d540de89e9fe90efdfc6973a4f -->
<g id="node4" class="node">
<title>dir_bdd9a5d540de89e9fe90efdfc6973a4f</title>
<g id="a_node4"><a xlink:href="dir_bdd9a5d540de89e9fe90efdfc6973a4f.html" target="_top" xlink:title="common">
<polygon fill="#daedff" stroke="red" points="133.5,-19 74.5,-19 74.5,0 133.5,0 133.5,-19"/>
<text text-anchor="middle" x="104" y="-7" font-family="Helvetica,sans-Serif" font-size="10.00">common</text>
</a>
</g>
</g>
<!-- dir_553094e69e8206429061833255d80122&#45;&gt;dir_bdd9a5d540de89e9fe90efdfc6973a4f -->
<g id="edge1" class="edge">
<title>dir_553094e69e8206429061833255d80122&#45;&gt;dir_bdd9a5d540de89e9fe90efdfc6973a4f</title>
<g id="a_edge1"><a xlink:href="dir_000020_000000.html" target="_top">
<path fill="none" stroke="#63b8ff" d="M111.15,-109.57C115.92,-94.75 123.86,-64.2 118,-39 117.15,-35.35 115.76,-31.62 114.18,-28.12"/>
<polygon fill="#63b8ff" stroke="#63b8ff" points="117.22,-26.37 109.51,-19.09 111,-29.58 117.22,-26.37"/>
</a>
</g>
<g id="a_edge1&#45;headlabel"><a xlink:href="dir_000020_000000.html" target="_top" xlink:title="18">
<text text-anchor="middle" x="121.39" y="-25.75" font-family="Helvetica,sans-Serif" font-size="10.00" fill="#63b8ff">18</text>
</a>
</g>
</g>
<!-- dir_a50532433148dd6238491228bd0c578b -->
<g id="node2" class="node">
<title>dir_a50532433148dd6238491228bd0c578b</title>
<g id="a_node2"><a xlink:href="dir_a50532433148dd6238491228bd0c578b.html" target="_top" xlink:title="include">
<polygon fill="#4ea9ff" stroke="#404040" points="76,-74 24,-74 24,-55 76,-55 76,-74"/>
<text text-anchor="middle" x="50" y="-62" font-family="Helvetica,sans-Serif" font-size="10.00">include</text>
</a>
</g>
</g>
<!-- dir_a50532433148dd6238491228bd0c578b&#45;&gt;dir_bdd9a5d540de89e9fe90efdfc6973a4f -->
<g id="edge2" class="edge">
<title>dir_a50532433148dd6238491228bd0c578b&#45;&gt;dir_bdd9a5d540de89e9fe90efdfc6973a4f</title>
<g id="a_edge2"><a xlink:href="dir_000011_000000.html" target="_top">
<path fill="none" stroke="#63b8ff" d="M58.92,-54.75C66.78,-47.03 78.43,-35.6 87.92,-26.28"/>
<polygon fill="#63b8ff" stroke="#63b8ff" points="90.56,-28.59 95.25,-19.09 85.66,-23.6 90.56,-28.59"/>
</a>
</g>
<g id="a_edge2&#45;headlabel"><a xlink:href="dir_000011_000000.html" target="_top" xlink:title="1">
<text text-anchor="middle" x="89.99" y="-30.64" font-family="Helvetica,sans-Serif" font-size="10.00" fill="#63b8ff">1</text>
</a>
</g>
</g>
<!-- dir_063f98bf472a5628db2efd803811c54a -->
<g id="node3" class="node">
<title>dir_063f98bf472a5628db2efd803811c54a</title>
<g id="a_node3"><a xlink:href="dir_063f98bf472a5628db2efd803811c54a.html" target="_top" xlink:title="src">
<polygon fill="#4ea9ff" stroke="#404040" points="55.5,-129 24.5,-129 24.5,-110 55.5,-110 55.5,-129"/>
<text text-anchor="middle" x="40" y="-117" font-family="Helvetica,sans-Serif" font-size="10.00">src</text>
</a>
</g>
</g>
<!-- dir_063f98bf472a5628db2efd803811c54a&#45;&gt;dir_a50532433148dd6238491228bd0c578b -->
<g id="edge3" class="edge">
<title>dir_063f98bf472a5628db2efd803811c54a&#45;&gt;dir_a50532433148dd6238491228bd0c578b</title>
<g id="a_edge3"><a xlink:href="dir_000019_000011.html" target="_top">
<path fill="none" stroke="#63b8ff" d="M41.65,-109.75C42.96,-102.8 44.84,-92.85 46.48,-84.13"/>
<polygon fill="#63b8ff" stroke="#63b8ff" points="49.96,-84.56 48.38,-74.09 43.09,-83.27 49.96,-84.56"/>
</a>
</g>
<g id="a_edge3&#45;headlabel"><a xlink:href="dir_000019_000011.html" target="_top" xlink:title="1">
<text text-anchor="middle" x="52.09" y="-86.12" font-family="Helvetica,sans-Serif" font-size="10.00" fill="#63b8ff">1</text>
</a>
</g>
</g>
<!-- dir_063f98bf472a5628db2efd803811c54a&#45;&gt;dir_bdd9a5d540de89e9fe90efdfc6973a4f -->
<g id="edge4" class="edge">
<title>dir_063f98bf472a5628db2efd803811c54a&#45;&gt;dir_bdd9a5d540de89e9fe90efdfc6973a4f</title>
<g id="a_edge4"><a xlink:href="dir_000019_000000.html" target="_top">
<path fill="none" stroke="#63b8ff" d="M51.59,-109.84C61.77,-101.66 76.29,-88.51 85,-74 93.33,-60.13 98.24,-42.33 100.98,-29.11"/>
<polygon fill="#63b8ff" stroke="#63b8ff" points="104.42,-29.74 102.79,-19.27 97.54,-28.47 104.42,-29.74"/>
</a>
</g>
<g id="a_edge4&#45;headlabel"><a xlink:href="dir_000019_000000.html" target="_top" xlink:title="15">
<text text-anchor="middle" x="106.56" y="-31.29" font-family="Helvetica,sans-Serif" font-size="10.00" fill="#63b8ff">15</text>
</a>
</g>
</g>
</g>
</svg>
