<?xml version="1.0" encoding="UTF-8" standalone="no"?>
<!DOCTYPE svg PUBLIC "-//W3C//DTD SVG 1.1//EN"
 "http://www.w3.org/Graphics/SVG/1.1/DTD/svg11.dtd">
<!-- Generated by graphviz version 2.43.0 (0)
 -->
<!-- Title: common Pages: 1 -->
<svg width="188pt" height="148pt"
 viewBox="0.00 0.00 188.00 148.00" xmlns="http://www.w3.org/2000/svg" xmlns:xlink="http://www.w3.org/1999/xlink">
<g id="graph0" class="graph" transform="scale(1 1) rotate(0) translate(4 144)">
<title>common</title>
<polygon fill="white" stroke="transparent" points="-4,4 -4,-144 184,-144 184,4 -4,4"/>
<g id="clust1" class="cluster">
<title>clusterdir_bdd9a5d540de89e9fe90efdfc6973a4f</title>
<g id="a_clust1"><a xlink:href="dir_bdd9a5d540de89e9fe90efdfc6973a4f.html" target="_top">
<polygon fill="#eeeeff" stroke="black" points="8,-8 8,-132 172,-132 172,-8 8,-8"/>
</a>
</g>
</g>
<!-- dir_bdd9a5d540de89e9fe90efdfc6973a4f -->
<g id="node1" class="node">
<title>dir_bdd9a5d540de89e9fe90efdfc6973a4f</title>
<text text-anchor="middle" x="134" y="-103.5" font-family="Helvetica,sans-Serif" font-size="10.00">common</text>
</g>
<!-- dir_864f292c5cbb4a74180810cb2e80dd5b -->
<g id="node2" class="node">
<title>dir_864f292c5cbb4a74180810cb2e80dd5b</title>
<g id="a_node2"><a xlink:href="dir_864f292c5cbb4a74180810cb2e80dd5b.html" target="_top" xlink:title="framework">
<polygon fill="white" stroke="red" points="86,-124 16,-124 16,-88 86,-88 86,-124"/>
<text text-anchor="middle" x="51" y="-103.5" font-family="Helvetica,sans-Serif" font-size="10.00">framework</text>
</a>
</g>
</g>
<!-- dir_9c3954a29433d21caebe71551a91150a -->
<g id="node3" class="node">
<title>dir_9c3954a29433d21caebe71551a91150a</title>
<g id="a_node3"><a xlink:href="dir_9c3954a29433d21caebe71551a91150a.html" target="_top" xlink:title="geometry_construction">
<polygon fill="white" stroke="red" points="145.5,-52 16.5,-52 16.5,-16 145.5,-16 145.5,-52"/>
<text text-anchor="middle" x="81" y="-31.5" font-family="Helvetica,sans-Serif" font-size="10.00">geometry_construction</text>
</a>
</g>
</g>
<!-- dir_864f292c5cbb4a74180810cb2e80dd5b&#45;&gt;dir_9c3954a29433d21caebe71551a91150a -->
<g id="edge1" class="edge">
<title>dir_864f292c5cbb4a74180810cb2e80dd5b&#45;&gt;dir_9c3954a29433d21caebe71551a91150a</title>
<path fill="none" stroke="black" d="M52.5,-87.7C55.09,-79.73 59.01,-70.1 63.18,-61.26"/>
<polygon fill="black" stroke="black" points="66.42,-62.61 67.77,-52.1 60.17,-59.48 66.42,-62.61"/>
<g id="a_edge1&#45;headlabel"><a xlink:href="dir_000004_000001.html" target="_top" xlink:title="1">
<text text-anchor="middle" x="67.35" y="-64.6" font-family="Helvetica,sans-Serif" font-size="10.00">1</text>
</a>
</g>
</g>
<!-- dir_9c3954a29433d21caebe71551a91150a&#45;&gt;dir_864f292c5cbb4a74180810cb2e80dd5b -->
<g id="edge2" class="edge">
<title>dir_9c3954a29433d21caebe71551a91150a&#45;&gt;dir_864f292c5cbb4a74180810cb2e80dd5b</title>
<path fill="none" stroke="black" d="M79.56,-52.1C76.99,-60.04 73.09,-69.67 68.92,-78.51"/>
<polygon fill="black" stroke="black" points="65.67,-77.19 64.33,-87.7 71.93,-80.32 65.67,-77.19"/>
<g id="a_edge2&#45;headlabel"><a xlink:href="dir_000001_000004.html" target="_top" xlink:title="25">
<text text-anchor="middle" x="64.74" y="-70.2" font-family="Helvetica,sans-Serif" font-size="10.00">25</text>
</a>
</g>
</g>
</g>
</svg>
