<?xml version="1.0" encoding="UTF-8" standalone="no"?>
<!DOCTYPE svg PUBLIC "-//W3C//DTD SVG 1.1//EN"
 "http://www.w3.org/Graphics/SVG/1.1/DTD/svg11.dtd">
<!-- Generated by graphviz version 2.43.0 (0)
 -->
<!-- Title: effective_area Pages: 1 -->
<svg width="286pt" height="159pt"
 viewBox="0.00 0.00 286.00 159.00" xmlns="http://www.w3.org/2000/svg" xmlns:xlink="http://www.w3.org/1999/xlink">
<g id="graph0" class="graph" transform="scale(1 1) rotate(0) translate(4 155)">
<title>effective_area</title>
<g id="clust1" class="cluster">
<title>clusterdir_83271c016684bff04ce022d17a2ba8ac</title>
<g id="a_clust1"><a xlink:href="dir_83271c016684bff04ce022d17a2ba8ac.html" target="_top" xlink:title="simulations">
<polygon fill="#ddddee" stroke="black" points="8,-56 8,-143 270,-143 270,-56 8,-56"/>
<text text-anchor="middle" x="139" y="-131" font-family="Helvetica,sans-Serif" font-size="10.00">simulations</text>
</a>
</g>
</g>
<g id="clust2" class="cluster">
<title>clusterdir_8dfe1e0a882227ede81fe824e3144913</title>
<g id="a_clust2"><a xlink:href="dir_8dfe1e0a882227ede81fe824e3144913.html" target="_top">
<polygon fill="#eeeeff" stroke="black" points="16,-64 16,-116 262,-116 262,-64 16,-64"/>
</a>
</g>
</g>
<!-- dir_8dfe1e0a882227ede81fe824e3144913 -->
<g id="node1" class="node">
<title>dir_8dfe1e0a882227ede81fe824e3144913</title>
<text text-anchor="middle" x="211" y="-87.5" font-family="Helvetica,sans-Serif" font-size="10.00">effective_area</text>
</g>
<!-- dir_bdd9a5d540de89e9fe90efdfc6973a4f -->
<g id="node4" class="node">
<title>dir_bdd9a5d540de89e9fe90efdfc6973a4f</title>
<g id="a_node4"><a xlink:href="dir_bdd9a5d540de89e9fe90efdfc6973a4f.html" target="_top" xlink:title="common">
<polygon fill="none" stroke="red" points="152.5,-36 93.5,-36 93.5,0 152.5,0 152.5,-36"/>
<text text-anchor="middle" x="123" y="-15.5" font-family="Helvetica,sans-Serif" font-size="10.00">common</text>
</a>
</g>
</g>
<!-- dir_8dfe1e0a882227ede81fe824e3144913&#45;&gt;dir_bdd9a5d540de89e9fe90efdfc6973a4f -->
<g id="edge1" class="edge">
<title>dir_8dfe1e0a882227ede81fe824e3144913&#45;&gt;dir_bdd9a5d540de89e9fe90efdfc6973a4f</title>
<path fill="none" stroke="black" d="M189.25,-71.7C178.16,-62.88 164.53,-52.03 152.51,-42.47"/>
<polygon fill="black" stroke="black" points="154.51,-39.59 144.5,-36.1 150.15,-45.07 154.51,-39.59"/>
<g id="a_edge1&#45;headlabel"><a xlink:href="dir_000009_000001.html" target="_top" xlink:title="13">
<text text-anchor="middle" x="159.09" y="-37.11" font-family="Helvetica,sans-Serif" font-size="10.00">13</text>
</a>
</g>
</g>
<!-- dir_f9b02cdf76a5a3d3c8b8a33fd60e2526 -->
<g id="node2" class="node">
<title>dir_f9b02cdf76a5a3d3c8b8a33fd60e2526</title>
<g id="a_node2"><a xlink:href="dir_f9b02cdf76a5a3d3c8b8a33fd60e2526.html" target="_top" xlink:title="include">
<polygon fill="white" stroke="black" points="150,-108 96,-108 96,-72 150,-72 150,-108"/>
<text text-anchor="middle" x="123" y="-87.5" font-family="Helvetica,sans-Serif" font-size="10.00">include</text>
</a>
</g>
</g>
<!-- dir_f9b02cdf76a5a3d3c8b8a33fd60e2526&#45;&gt;dir_bdd9a5d540de89e9fe90efdfc6973a4f -->
<g id="edge2" class="edge">
<title>dir_f9b02cdf76a5a3d3c8b8a33fd60e2526&#45;&gt;dir_bdd9a5d540de89e9fe90efdfc6973a4f</title>
<path fill="none" stroke="black" d="M123,-71.7C123,-63.98 123,-54.71 123,-46.11"/>
<polygon fill="black" stroke="black" points="126.5,-46.1 123,-36.1 119.5,-46.1 126.5,-46.1"/>
<g id="a_edge2&#45;headlabel"><a xlink:href="dir_000015_000001.html" target="_top" xlink:title="2">
<text text-anchor="middle" x="129.34" y="-47.2" font-family="Helvetica,sans-Serif" font-size="10.00">2</text>
</a>
</g>
</g>
<!-- dir_530002b765117689634e7db27e09d1d1 -->
<g id="node3" class="node">
<title>dir_530002b765117689634e7db27e09d1d1</title>
<g id="a_node3"><a xlink:href="dir_530002b765117689634e7db27e09d1d1.html" target="_top" xlink:title="src">
<polygon fill="white" stroke="black" points="78,-108 24,-108 24,-72 78,-72 78,-108"/>
<text text-anchor="middle" x="51" y="-87.5" font-family="Helvetica,sans-Serif" font-size="10.00">src</text>
</a>
</g>
</g>
<!-- dir_530002b765117689634e7db27e09d1d1&#45;&gt;dir_bdd9a5d540de89e9fe90efdfc6973a4f -->
<g id="edge3" class="edge">
<title>dir_530002b765117689634e7db27e09d1d1&#45;&gt;dir_bdd9a5d540de89e9fe90efdfc6973a4f</title>
<path fill="none" stroke="black" d="M68.8,-71.7C77.6,-63.14 88.38,-52.66 98,-43.3"/>
<polygon fill="black" stroke="black" points="100.68,-45.58 105.41,-36.1 95.8,-40.57 100.68,-45.58"/>
<g id="a_edge3&#45;headlabel"><a xlink:href="dir_000013_000001.html" target="_top" xlink:title="10">
<text text-anchor="middle" x="100.08" y="-47.63" font-family="Helvetica,sans-Serif" font-size="10.00">10</text>
</a>
</g>
</g>
</g>
</svg>
