<?xml version="1.0" encoding="UTF-8" standalone="no"?>
<!DOCTYPE svg PUBLIC "-//W3C//DTD SVG 1.1//EN"
 "http://www.w3.org/Graphics/SVG/1.1/DTD/svg11.dtd">
<!-- Generated by graphviz version 2.43.0 (0)
 -->
<!-- Title: common Pages: 1 -->
<svg width="247pt" height="148pt"
 viewBox="0.00 0.00 247.00 148.00" xmlns="http://www.w3.org/2000/svg" xmlns:xlink="http://www.w3.org/1999/xlink">
<g id="graph0" class="graph" transform="scale(1 1) rotate(0) translate(4 144)">
<title>common</title>
<polygon fill="white" stroke="transparent" points="-4,4 -4,-144 243,-144 243,4 -4,4"/>
<g id="clust1" class="cluster">
<title>clusterdir_bdd9a5d540de89e9fe90efdfc6973a4f</title>
<g id="a_clust1"><a xlink:href="dir_bdd9a5d540de89e9fe90efdfc6973a4f.html" target="_top">
<polygon fill="#eeeeff" stroke="black" points="8,-8 8,-132 231,-132 231,-8 8,-8"/>
</a>
</g>
</g>
<!-- dir_bdd9a5d540de89e9fe90efdfc6973a4f -->
<g id="node1" class="node">
<title>dir_bdd9a5d540de89e9fe90efdfc6973a4f</title>
<text text-anchor="middle" x="193" y="-103.5" font-family="Helvetica,sans-Serif" font-size="10.00">common</text>
</g>
<!-- dir_864f292c5cbb4a74180810cb2e80dd5b -->
<g id="node2" class="node">
<title>dir_864f292c5cbb4a74180810cb2e80dd5b</title>
<g id="a_node2"><a xlink:href="dir_864f292c5cbb4a74180810cb2e80dd5b.html" target="_top" xlink:title="framework">
<polygon fill="white" stroke="red" points="116,-52 46,-52 46,-16 116,-16 116,-52"/>
<text text-anchor="middle" x="81" y="-31.5" font-family="Helvetica,sans-Serif" font-size="10.00">framework</text>
</a>
</g>
</g>
<!-- dir_9c3954a29433d21caebe71551a91150a -->
<g id="node3" class="node">
<title>dir_9c3954a29433d21caebe71551a91150a</title>
<g id="a_node3"><a xlink:href="dir_9c3954a29433d21caebe71551a91150a.html" target="_top" xlink:title="geometry_construction">
<polygon fill="white" stroke="red" points="145.5,-124 16.5,-124 16.5,-88 145.5,-88 145.5,-124"/>
<text text-anchor="middle" x="81" y="-103.5" font-family="Helvetica,sans-Serif" font-size="10.00">geometry_construction</text>
</a>
</g>
</g>
<!-- dir_9c3954a29433d21caebe71551a91150a&#45;&gt;dir_864f292c5cbb4a74180810cb2e80dd5b -->
<g id="edge1" class="edge">
<title>dir_9c3954a29433d21caebe71551a91150a&#45;&gt;dir_864f292c5cbb4a74180810cb2e80dd5b</title>
<path fill="none" stroke="black" d="M81,-87.7C81,-79.98 81,-70.71 81,-62.11"/>
<polygon fill="black" stroke="black" points="84.5,-62.1 81,-52.1 77.5,-62.1 84.5,-62.1"/>
<g id="a_edge1&#45;headlabel"><a xlink:href="dir_000001_000004.html" target="_top" xlink:title="17">
<text text-anchor="middle" x="87.34" y="-63.2" font-family="Helvetica,sans-Serif" font-size="10.00">17</text>
</a>
</g>
</g>
</g>
</svg>
