<?xml version="1.0" encoding="UTF-8" standalone="no"?>
<!DOCTYPE svg PUBLIC "-//W3C//DTD SVG 1.1//EN"
 "http://www.w3.org/Graphics/SVG/1.1/DTD/svg11.dtd">
<!-- Generated by graphviz version 2.43.0 (0)
 -->
<!-- Title: radioactive_decays Pages: 1 -->
<svg width="223pt" height="204pt"
 viewBox="0.00 0.00 223.00 204.00" xmlns="http://www.w3.org/2000/svg" xmlns:xlink="http://www.w3.org/1999/xlink">
<g id="graph0" class="graph" transform="scale(1 1) rotate(0) translate(4 200)">
<title>radioactive_decays</title>
<polygon fill="white" stroke="transparent" points="-4,4 -4,-200 219,-200 219,4 -4,4"/>
<g id="clust1" class="cluster">
<title>clusterdir_c36bb099819ad84805be167dee96fbce</title>
<g id="a_clust1"><a xlink:href="dir_c36bb099819ad84805be167dee96fbce.html" target="_top">
<polygon fill="#eeeeff" stroke="black" points="8,-64 8,-188 207,-188 207,-64 8,-64"/>
</a>
</g>
</g>
<!-- dir_c36bb099819ad84805be167dee96fbce -->
<g id="node1" class="node">
<title>dir_c36bb099819ad84805be167dee96fbce</title>
<text text-anchor="middle" x="71" y="-159.5" font-family="Helvetica,sans-Serif" font-size="10.00">radioactive_decays</text>
</g>
<!-- dir_cc4f7c071413eda74783f4f9188a2332 -->
<g id="node2" class="node">
<title>dir_cc4f7c071413eda74783f4f9188a2332</title>
<g id="a_node2"><a xlink:href="dir_cc4f7c071413eda74783f4f9188a2332.html" target="_top" xlink:title="include">
<polygon fill="white" stroke="black" points="144,-108 90,-108 90,-72 144,-72 144,-108"/>
<text text-anchor="middle" x="117" y="-87.5" font-family="Helvetica,sans-Serif" font-size="10.00">include</text>
</a>
</g>
</g>
<!-- dir_c36bb099819ad84805be167dee96fbce&#45;&gt;dir_cc4f7c071413eda74783f4f9188a2332 -->
<g id="edge4" class="edge">
<title>dir_c36bb099819ad84805be167dee96fbce&#45;&gt;dir_cc4f7c071413eda74783f4f9188a2332</title>
<path fill="none" stroke="black" d="M82.37,-143.7C87.72,-135.56 94.2,-125.69 100.11,-116.7"/>
<polygon fill="black" stroke="black" points="103.19,-118.38 105.76,-108.1 97.34,-114.54 103.19,-118.38"/>
<g id="a_edge4&#45;headlabel"><a xlink:href="dir_000008_000013.html" target="_top" xlink:title="13">
<text text-anchor="middle" x="103.59" y="-120.45" font-family="Helvetica,sans-Serif" font-size="10.00">13</text>
</a>
</g>
</g>
<!-- dir_bdd9a5d540de89e9fe90efdfc6973a4f -->
<g id="node4" class="node">
<title>dir_bdd9a5d540de89e9fe90efdfc6973a4f</title>
<g id="a_node4"><a xlink:href="dir_bdd9a5d540de89e9fe90efdfc6973a4f.html" target="_top" xlink:title="common">
<polygon fill="white" stroke="red" points="173.5,-36 114.5,-36 114.5,0 173.5,0 173.5,-36"/>
<text text-anchor="middle" x="144" y="-15.5" font-family="Helvetica,sans-Serif" font-size="10.00">common</text>
</a>
</g>
</g>
<!-- dir_cc4f7c071413eda74783f4f9188a2332&#45;&gt;dir_bdd9a5d540de89e9fe90efdfc6973a4f -->
<g id="edge3" class="edge">
<title>dir_cc4f7c071413eda74783f4f9188a2332&#45;&gt;dir_bdd9a5d540de89e9fe90efdfc6973a4f</title>
<path fill="none" stroke="black" d="M123.67,-71.7C126.71,-63.81 130.38,-54.3 133.76,-45.55"/>
<polygon fill="black" stroke="black" points="137.07,-46.69 137.4,-36.1 130.54,-44.17 137.07,-46.69"/>
<g id="a_edge3&#45;headlabel"><a xlink:href="dir_000013_000000.html" target="_top" xlink:title="1">
<text text-anchor="middle" x="138.42" y="-48.57" font-family="Helvetica,sans-Serif" font-size="10.00">1</text>
</a>
</g>
</g>
<!-- dir_fa719980a1b7d4d52b7831b795f5e2fd -->
<g id="node3" class="node">
<title>dir_fa719980a1b7d4d52b7831b795f5e2fd</title>
<g id="a_node3"><a xlink:href="dir_fa719980a1b7d4d52b7831b795f5e2fd.html" target="_top" xlink:title="src">
<polygon fill="white" stroke="black" points="199,-180 145,-180 145,-144 199,-144 199,-180"/>
<text text-anchor="middle" x="172" y="-159.5" font-family="Helvetica,sans-Serif" font-size="10.00">src</text>
</a>
</g>
</g>
<!-- dir_fa719980a1b7d4d52b7831b795f5e2fd&#45;&gt;dir_cc4f7c071413eda74783f4f9188a2332 -->
<g id="edge2" class="edge">
<title>dir_fa719980a1b7d4d52b7831b795f5e2fd&#45;&gt;dir_cc4f7c071413eda74783f4f9188a2332</title>
<path fill="none" stroke="black" d="M158.4,-143.7C151.88,-135.39 143.93,-125.28 136.75,-116.14"/>
<polygon fill="black" stroke="black" points="139.37,-113.81 130.44,-108.1 133.87,-118.13 139.37,-113.81"/>
<g id="a_edge2&#45;headlabel"><a xlink:href="dir_000012_000013.html" target="_top" xlink:title="10">
<text text-anchor="middle" x="143.82" y="-112.38" font-family="Helvetica,sans-Serif" font-size="10.00">10</text>
</a>
</g>
</g>
<!-- dir_fa719980a1b7d4d52b7831b795f5e2fd&#45;&gt;dir_bdd9a5d540de89e9fe90efdfc6973a4f -->
<g id="edge1" class="edge">
<title>dir_fa719980a1b7d4d52b7831b795f5e2fd&#45;&gt;dir_bdd9a5d540de89e9fe90efdfc6973a4f</title>
<path fill="none" stroke="black" d="M168.66,-143.82C164.88,-124.43 158.53,-91.94 153,-64 151.86,-58.24 150.63,-52.06 149.45,-46.18"/>
<polygon fill="black" stroke="black" points="152.83,-45.21 147.43,-36.09 145.97,-46.58 152.83,-45.21"/>
<g id="a_edge1&#45;headlabel"><a xlink:href="dir_000012_000000.html" target="_top" xlink:title="13">
<text text-anchor="middle" x="156.32" y="-45.68" font-family="Helvetica,sans-Serif" font-size="10.00">13</text>
</a>
</g>
</g>
</g>
</svg>
