<?xml version="1.0" encoding="UTF-8" standalone="no"?>
<!DOCTYPE svg PUBLIC "-//W3C//DTD SVG 1.1//EN"
 "http://www.w3.org/Graphics/SVG/1.1/DTD/svg11.dtd">
<!-- Generated by graphviz version 2.43.0 (0)
 -->
<!-- Title: src Pages: 1 -->
<svg width="201pt" height="151pt"
 viewBox="0.00 0.00 201.00 151.00" xmlns="http://www.w3.org/2000/svg" xmlns:xlink="http://www.w3.org/1999/xlink">
<g id="graph0" class="graph" transform="scale(1 1) rotate(0) translate(4 147)">
<title>src</title>
<polygon fill="white" stroke="transparent" points="-4,4 -4,-147 197,-147 197,4 -4,4"/>
<g id="clust1" class="cluster">
<title>clusterdir_69b58bbd523221ee3f5b05a07bb4b514</title>
<g id="a_clust1"><a xlink:href="dir_69b58bbd523221ee3f5b05a07bb4b514.html" target="_top" xlink:title="scintillation_yield_determination">
<polygon fill="#ddddee" stroke="black" points="8,-64 8,-135 185,-135 185,-64 8,-64"/>
<text text-anchor="middle" x="96.5" y="-123" font-family="Helvetica,sans-Serif" font-size="10.00">scintillation_yield_determination</text>
</a>
</g>
</g>
<!-- dir_7dde7e64c8b33ccb8bec8ad6e92089a6 -->
<g id="node1" class="node">
<title>dir_7dde7e64c8b33ccb8bec8ad6e92089a6</title>
<g id="a_node1"><a xlink:href="dir_7dde7e64c8b33ccb8bec8ad6e92089a6.html" target="_top" xlink:title="src">
<polygon fill="#eeeeff" stroke="black" points="123,-108 69,-108 69,-72 123,-72 123,-108"/>
<text text-anchor="middle" x="96" y="-87.5" font-family="Helvetica,sans-Serif" font-size="10.00">src</text>
</a>
</g>
</g>
<!-- dir_bdd9a5d540de89e9fe90efdfc6973a4f -->
<g id="node2" class="node">
<title>dir_bdd9a5d540de89e9fe90efdfc6973a4f</title>
<g id="a_node2"><a xlink:href="dir_bdd9a5d540de89e9fe90efdfc6973a4f.html" target="_top" xlink:title="common">
<polygon fill="white" stroke="red" points="125.5,-36 66.5,-36 66.5,0 125.5,0 125.5,-36"/>
<text text-anchor="middle" x="96" y="-15.5" font-family="Helvetica,sans-Serif" font-size="10.00">common</text>
</a>
</g>
</g>
<!-- dir_7dde7e64c8b33ccb8bec8ad6e92089a6&#45;&gt;dir_bdd9a5d540de89e9fe90efdfc6973a4f -->
<g id="edge1" class="edge">
<title>dir_7dde7e64c8b33ccb8bec8ad6e92089a6&#45;&gt;dir_bdd9a5d540de89e9fe90efdfc6973a4f</title>
<path fill="none" stroke="black" d="M96,-71.7C96,-63.98 96,-54.71 96,-46.11"/>
<polygon fill="black" stroke="black" points="99.5,-46.1 96,-36.1 92.5,-46.1 99.5,-46.1"/>
<g id="a_edge1&#45;headlabel"><a xlink:href="dir_000017_000000.html" target="_top" xlink:title="8">
<text text-anchor="middle" x="102.34" y="-47.2" font-family="Helvetica,sans-Serif" font-size="10.00">8</text>
</a>
</g>
</g>
</g>
</svg>
