<?xml version="1.0" encoding="UTF-8" standalone="no"?>
<!DOCTYPE svg PUBLIC "-//W3C//DTD SVG 1.1//EN"
 "http://www.w3.org/Graphics/SVG/1.1/DTD/svg11.dtd">
<!-- Generated by graphviz version 2.43.0 (0)
 -->
<!-- Title: geometry_construction Pages: 1 -->
<svg width="258pt" height="247pt"
 viewBox="0.00 0.00 258.00 247.00" xmlns="http://www.w3.org/2000/svg" xmlns:xlink="http://www.w3.org/1999/xlink">
<g id="graph0" class="graph" transform="scale(1 1) rotate(0) translate(4 243)">
<title>geometry_construction</title>
<g id="clust1" class="cluster">
<title>clusterdir_bdd9a5d540de89e9fe90efdfc6973a4f</title>
<g id="a_clust1"><a xlink:href="dir_bdd9a5d540de89e9fe90efdfc6973a4f.html" target="_top" xlink:title="common">
<polygon fill="#ddddee" stroke="black" points="8,-8 8,-231 242,-231 242,-8 8,-8"/>
<text text-anchor="middle" x="125" y="-219" font-family="Helvetica,sans-Serif" font-size="10.00">common</text>
</a>
</g>
</g>
<g id="clust2" class="cluster">
<title>clusterdir_9c3954a29433d21caebe71551a91150a</title>
<g id="a_clust2"><a xlink:href="dir_9c3954a29433d21caebe71551a91150a.html" target="_top">
<polygon fill="#eeeeff" stroke="black" points="16,-80 16,-204 234,-204 234,-80 16,-80"/>
</a>
</g>
</g>
<!-- dir_864f292c5cbb4a74180810cb2e80dd5b -->
<g id="node1" class="node">
<title>dir_864f292c5cbb4a74180810cb2e80dd5b</title>
<g id="a_node1"><a xlink:href="dir_864f292c5cbb4a74180810cb2e80dd5b.html" target="_top" xlink:title="framework">
<polygon fill="none" stroke="red" points="109,-52 39,-52 39,-16 109,-16 109,-52"/>
<text text-anchor="middle" x="74" y="-31.5" font-family="Helvetica,sans-Serif" font-size="10.00">framework</text>
</a>
</g>
</g>
<!-- dir_9c3954a29433d21caebe71551a91150a -->
<g id="node2" class="node">
<title>dir_9c3954a29433d21caebe71551a91150a</title>
<text text-anchor="middle" x="161" y="-175.5" font-family="Helvetica,sans-Serif" font-size="10.00">geometry_construction</text>
</g>
<!-- dir_218371b85f6c667e47e4a2c498ee505b -->
<g id="node3" class="node">
<title>dir_218371b85f6c667e47e4a2c498ee505b</title>
<g id="a_node3"><a xlink:href="dir_218371b85f6c667e47e4a2c498ee505b.html" target="_top" xlink:title="include">
<polygon fill="white" stroke="black" points="78,-124 24,-124 24,-88 78,-88 78,-124"/>
<text text-anchor="middle" x="51" y="-103.5" font-family="Helvetica,sans-Serif" font-size="10.00">include</text>
</a>
</g>
</g>
<!-- dir_218371b85f6c667e47e4a2c498ee505b&#45;&gt;dir_864f292c5cbb4a74180810cb2e80dd5b -->
<g id="edge1" class="edge">
<title>dir_218371b85f6c667e47e4a2c498ee505b&#45;&gt;dir_864f292c5cbb4a74180810cb2e80dd5b</title>
<path fill="none" stroke="black" d="M56.69,-87.7C59.25,-79.9 62.33,-70.51 65.18,-61.83"/>
<polygon fill="black" stroke="black" points="68.58,-62.7 68.38,-52.1 61.93,-60.51 68.58,-62.7"/>
<g id="a_edge1&#45;headlabel"><a xlink:href="dir_000004_000005.html" target="_top" xlink:title="3">
<text text-anchor="middle" x="70.16" y="-64.5" font-family="Helvetica,sans-Serif" font-size="10.00">3</text>
</a>
</g>
</g>
<!-- dir_e9dca0ccd90dffea88fe042b493f5403 -->
<g id="node4" class="node">
<title>dir_e9dca0ccd90dffea88fe042b493f5403</title>
<g id="a_node4"><a xlink:href="dir_e9dca0ccd90dffea88fe042b493f5403.html" target="_top" xlink:title="src">
<polygon fill="white" stroke="black" points="78,-196 24,-196 24,-160 78,-160 78,-196"/>
<text text-anchor="middle" x="51" y="-175.5" font-family="Helvetica,sans-Serif" font-size="10.00">src</text>
</a>
</g>
</g>
<!-- dir_e9dca0ccd90dffea88fe042b493f5403&#45;&gt;dir_864f292c5cbb4a74180810cb2e80dd5b -->
<g id="edge3" class="edge">
<title>dir_e9dca0ccd90dffea88fe042b493f5403&#45;&gt;dir_864f292c5cbb4a74180810cb2e80dd5b</title>
<path fill="none" stroke="black" d="M66.61,-159.77C74.37,-150.03 82.95,-137.18 87,-124 93.28,-103.57 89.13,-79.54 83.9,-61.6"/>
<polygon fill="black" stroke="black" points="87.24,-60.53 80.86,-52.07 80.57,-62.66 87.24,-60.53"/>
<g id="a_edge3&#45;headlabel"><a xlink:href="dir_000003_000005.html" target="_top" xlink:title="16">
<text text-anchor="middle" x="91.03" y="-60.59" font-family="Helvetica,sans-Serif" font-size="10.00">16</text>
</a>
</g>
</g>
<!-- dir_e9dca0ccd90dffea88fe042b493f5403&#45;&gt;dir_218371b85f6c667e47e4a2c498ee505b -->
<g id="edge2" class="edge">
<title>dir_e9dca0ccd90dffea88fe042b493f5403&#45;&gt;dir_218371b85f6c667e47e4a2c498ee505b</title>
<path fill="none" stroke="black" d="M51,-159.7C51,-151.98 51,-142.71 51,-134.11"/>
<polygon fill="black" stroke="black" points="54.5,-134.1 51,-124.1 47.5,-134.1 54.5,-134.1"/>
<g id="a_edge2&#45;headlabel"><a xlink:href="dir_000003_000004.html" target="_top" xlink:title="19">
<text text-anchor="middle" x="57.34" y="-135.2" font-family="Helvetica,sans-Serif" font-size="10.00">19</text>
</a>
</g>
</g>
</g>
</svg>
