<?xml version="1.0" encoding="UTF-8" standalone="no"?>
<!DOCTYPE svg PUBLIC "-//W3C//DTD SVG 1.1//EN"
 "http://www.w3.org/Graphics/SVG/1.1/DTD/svg11.dtd">
<!-- Generated by graphviz version 2.43.0 (0)
 -->
<!-- Title: framework Pages: 1 -->
<svg width="198pt" height="247pt"
 viewBox="0.00 0.00 198.00 247.00" xmlns="http://www.w3.org/2000/svg" xmlns:xlink="http://www.w3.org/1999/xlink">
<g id="graph0" class="graph" transform="scale(1 1) rotate(0) translate(4 243)">
<title>framework</title>
<polygon fill="white" stroke="transparent" points="-4,4 -4,-243 194,-243 194,4 -4,4"/>
<g id="clust1" class="cluster">
<title>clusterdir_bdd9a5d540de89e9fe90efdfc6973a4f</title>
<g id="a_clust1"><a xlink:href="dir_bdd9a5d540de89e9fe90efdfc6973a4f.html" target="_top" xlink:title="common">
<polygon fill="#ddddee" stroke="black" points="8,-8 8,-231 182,-231 182,-8 8,-8"/>
<text text-anchor="middle" x="95" y="-219" font-family="Helvetica,sans-Serif" font-size="10.00">common</text>
</a>
</g>
</g>
<g id="clust2" class="cluster">
<title>clusterdir_864f292c5cbb4a74180810cb2e80dd5b</title>
<g id="a_clust2"><a xlink:href="dir_864f292c5cbb4a74180810cb2e80dd5b.html" target="_top">
<polygon fill="#eeeeff" stroke="black" points="16,-80 16,-204 174,-204 174,-80 16,-80"/>
</a>
</g>
</g>
<!-- dir_9c3954a29433d21caebe71551a91150a -->
<g id="node1" class="node">
<title>dir_9c3954a29433d21caebe71551a91150a</title>
<g id="a_node1"><a xlink:href="dir_9c3954a29433d21caebe71551a91150a.html" target="_top" xlink:title="geometry_construction">
<polygon fill="white" stroke="red" points="145.5,-52 16.5,-52 16.5,-16 145.5,-16 145.5,-52"/>
<text text-anchor="middle" x="81" y="-31.5" font-family="Helvetica,sans-Serif" font-size="10.00">geometry_construction</text>
</a>
</g>
</g>
<!-- dir_1bc21981797ed08ef994409d474646cd -->
<g id="node3" class="node">
<title>dir_1bc21981797ed08ef994409d474646cd</title>
<g id="a_node3"><a xlink:href="dir_1bc21981797ed08ef994409d474646cd.html" target="_top" xlink:title="include">
<polygon fill="white" stroke="black" points="93,-124 39,-124 39,-88 93,-88 93,-124"/>
<text text-anchor="middle" x="66" y="-103.5" font-family="Helvetica,sans-Serif" font-size="10.00">include</text>
</a>
</g>
</g>
<!-- dir_9c3954a29433d21caebe71551a91150a&#45;&gt;dir_1bc21981797ed08ef994409d474646cd -->
<g id="edge2" class="edge">
<title>dir_9c3954a29433d21caebe71551a91150a&#45;&gt;dir_1bc21981797ed08ef994409d474646cd</title>
<path fill="none" stroke="black" d="M83.23,-52.1C82.38,-59.88 80.6,-69.26 78.39,-77.95"/>
<polygon fill="black" stroke="black" points="74.99,-77.12 75.62,-87.7 81.72,-79.03 74.99,-77.12"/>
<g id="a_edge2&#45;headlabel"><a xlink:href="dir_000001_000006.html" target="_top" xlink:title="23">
<text text-anchor="middle" x="73.24" y="-70.39" font-family="Helvetica,sans-Serif" font-size="10.00">23</text>
</a>
</g>
</g>
<!-- dir_864f292c5cbb4a74180810cb2e80dd5b -->
<g id="node2" class="node">
<title>dir_864f292c5cbb4a74180810cb2e80dd5b</title>
<text text-anchor="middle" x="131" y="-175.5" font-family="Helvetica,sans-Serif" font-size="10.00">framework</text>
</g>
<!-- dir_1bc21981797ed08ef994409d474646cd&#45;&gt;dir_9c3954a29433d21caebe71551a91150a -->
<g id="edge1" class="edge">
<title>dir_1bc21981797ed08ef994409d474646cd&#45;&gt;dir_9c3954a29433d21caebe71551a91150a</title>
<path fill="none" stroke="black" d="M63.79,-87.7C64.66,-79.9 66.45,-70.51 68.67,-61.83"/>
<polygon fill="black" stroke="black" points="72.06,-62.68 71.44,-52.1 65.33,-60.76 72.06,-62.68"/>
<g id="a_edge1&#45;headlabel"><a xlink:href="dir_000006_000001.html" target="_top" xlink:title="1">
<text text-anchor="middle" x="73.81" y="-64.42" font-family="Helvetica,sans-Serif" font-size="10.00">1</text>
</a>
</g>
</g>
<!-- dir_5c9994549f1b04962ce70143cf697342 -->
<g id="node4" class="node">
<title>dir_5c9994549f1b04962ce70143cf697342</title>
<g id="a_node4"><a xlink:href="dir_5c9994549f1b04962ce70143cf697342.html" target="_top" xlink:title="src">
<polygon fill="white" stroke="black" points="78,-196 24,-196 24,-160 78,-160 78,-196"/>
<text text-anchor="middle" x="51" y="-175.5" font-family="Helvetica,sans-Serif" font-size="10.00">src</text>
</a>
</g>
</g>
<!-- dir_5c9994549f1b04962ce70143cf697342&#45;&gt;dir_1bc21981797ed08ef994409d474646cd -->
<g id="edge3" class="edge">
<title>dir_5c9994549f1b04962ce70143cf697342&#45;&gt;dir_1bc21981797ed08ef994409d474646cd</title>
<path fill="none" stroke="black" d="M54.71,-159.7C56.36,-151.98 58.35,-142.71 60.19,-134.11"/>
<polygon fill="black" stroke="black" points="63.66,-134.62 62.33,-124.1 56.82,-133.15 63.66,-134.62"/>
<g id="a_edge3&#45;headlabel"><a xlink:href="dir_000005_000006.html" target="_top" xlink:title="18">
<text text-anchor="middle" x="65.68" y="-136.23" font-family="Helvetica,sans-Serif" font-size="10.00">18</text>
</a>
</g>
</g>
</g>
</svg>
