<?xml version="1.0" encoding="UTF-8" standalone="no"?>
<!DOCTYPE svg PUBLIC "-//W3C//DTD SVG 1.1//EN"
 "http://www.w3.org/Graphics/SVG/1.1/DTD/svg11.dtd">
<!-- Generated by graphviz version 2.43.0 (0)
 -->
<!-- Title: src Pages: 1 -->
<svg width="135pt" height="223pt"
 viewBox="0.00 0.00 135.00 223.00" xmlns="http://www.w3.org/2000/svg" xmlns:xlink="http://www.w3.org/1999/xlink">
<g id="graph0" class="graph" transform="scale(1 1) rotate(0) translate(4 219)">
<title>src</title>
<polygon fill="white" stroke="transparent" points="-4,4 -4,-219 131,-219 131,4 -4,4"/>
<g id="clust1" class="cluster">
<title>clusterdir_c36bb099819ad84805be167dee96fbce</title>
<g id="a_clust1"><a xlink:href="dir_c36bb099819ad84805be167dee96fbce.html" target="_top" xlink:title="radioactive_decays">
<polygon fill="#ddddee" stroke="black" points="8,-64 8,-207 119,-207 119,-64 8,-64"/>
<text text-anchor="middle" x="63.5" y="-195" font-family="Helvetica,sans-Serif" font-size="10.00">radioactive_decays</text>
</a>
</g>
</g>
<!-- dir_cc4f7c071413eda74783f4f9188a2332 -->
<g id="node1" class="node">
<title>dir_cc4f7c071413eda74783f4f9188a2332</title>
<g id="a_node1"><a xlink:href="dir_cc4f7c071413eda74783f4f9188a2332.html" target="_top" xlink:title="include">
<polygon fill="none" stroke="black" points="90,-108 36,-108 36,-72 90,-72 90,-108"/>
<text text-anchor="middle" x="63" y="-87.5" font-family="Helvetica,sans-Serif" font-size="10.00">include</text>
</a>
</g>
</g>
<!-- dir_bdd9a5d540de89e9fe90efdfc6973a4f -->
<g id="node3" class="node">
<title>dir_bdd9a5d540de89e9fe90efdfc6973a4f</title>
<g id="a_node3"><a xlink:href="dir_bdd9a5d540de89e9fe90efdfc6973a4f.html" target="_top" xlink:title="common">
<polygon fill="white" stroke="red" points="119.5,-36 60.5,-36 60.5,0 119.5,0 119.5,-36"/>
<text text-anchor="middle" x="90" y="-15.5" font-family="Helvetica,sans-Serif" font-size="10.00">common</text>
</a>
</g>
</g>
<!-- dir_cc4f7c071413eda74783f4f9188a2332&#45;&gt;dir_bdd9a5d540de89e9fe90efdfc6973a4f -->
<g id="edge3" class="edge">
<title>dir_cc4f7c071413eda74783f4f9188a2332&#45;&gt;dir_bdd9a5d540de89e9fe90efdfc6973a4f</title>
<path fill="none" stroke="black" d="M69.67,-71.7C72.71,-63.81 76.38,-54.3 79.76,-45.55"/>
<polygon fill="black" stroke="black" points="83.07,-46.69 83.4,-36.1 76.54,-44.17 83.07,-46.69"/>
<g id="a_edge3&#45;headlabel"><a xlink:href="dir_000013_000000.html" target="_top" xlink:title="4">
<text text-anchor="middle" x="84.42" y="-48.57" font-family="Helvetica,sans-Serif" font-size="10.00">4</text>
</a>
</g>
</g>
<!-- dir_fa719980a1b7d4d52b7831b795f5e2fd -->
<g id="node2" class="node">
<title>dir_fa719980a1b7d4d52b7831b795f5e2fd</title>
<g id="a_node2"><a xlink:href="dir_fa719980a1b7d4d52b7831b795f5e2fd.html" target="_top" xlink:title="src">
<polygon fill="#eeeeff" stroke="black" points="100,-180 46,-180 46,-144 100,-144 100,-180"/>
<text text-anchor="middle" x="73" y="-159.5" font-family="Helvetica,sans-Serif" font-size="10.00">src</text>
</a>
</g>
</g>
<!-- dir_fa719980a1b7d4d52b7831b795f5e2fd&#45;&gt;dir_cc4f7c071413eda74783f4f9188a2332 -->
<g id="edge2" class="edge">
<title>dir_fa719980a1b7d4d52b7831b795f5e2fd&#45;&gt;dir_cc4f7c071413eda74783f4f9188a2332</title>
<path fill="none" stroke="black" d="M70.53,-143.7C69.43,-135.98 68.1,-126.71 66.87,-118.11"/>
<polygon fill="black" stroke="black" points="70.32,-117.51 65.44,-108.1 63.39,-118.5 70.32,-117.51"/>
<g id="a_edge2&#45;headlabel"><a xlink:href="dir_000012_000013.html" target="_top" xlink:title="10">
<text text-anchor="middle" x="73.64" y="-118.17" font-family="Helvetica,sans-Serif" font-size="10.00">10</text>
</a>
</g>
</g>
<!-- dir_fa719980a1b7d4d52b7831b795f5e2fd&#45;&gt;dir_bdd9a5d540de89e9fe90efdfc6973a4f -->
<g id="edge1" class="edge">
<title>dir_fa719980a1b7d4d52b7831b795f5e2fd&#45;&gt;dir_bdd9a5d540de89e9fe90efdfc6973a4f</title>
<path fill="none" stroke="black" d="M84.05,-143.61C89.74,-133.62 96.08,-120.58 99,-108 103.73,-87.61 100.99,-64.02 97.32,-46.25"/>
<polygon fill="black" stroke="black" points="100.69,-45.24 95.05,-36.27 93.86,-46.8 100.69,-45.24"/>
<g id="a_edge1&#45;headlabel"><a xlink:href="dir_000012_000000.html" target="_top" xlink:title="16">
<text text-anchor="middle" x="104.25" y="-45.62" font-family="Helvetica,sans-Serif" font-size="10.00">16</text>
</a>
</g>
</g>
</g>
</svg>
