<?xml version="1.0" encoding="UTF-8" standalone="no"?>
<!DOCTYPE svg PUBLIC "-//W3C//DTD SVG 1.1//EN"
 "http://www.w3.org/Graphics/SVG/1.1/DTD/svg11.dtd">
<!-- Generated by graphviz version 2.43.0 (0)
 -->
<!-- Title: src Pages: 1 -->
<svg width="111pt" height="151pt"
 viewBox="0.00 0.00 111.00 151.00" xmlns="http://www.w3.org/2000/svg" xmlns:xlink="http://www.w3.org/1999/xlink">
<g id="graph0" class="graph" transform="scale(1 1) rotate(0) translate(4 147)">
<title>src</title>
<g id="clust1" class="cluster">
<title>clusterdir_e4bf11e9380ee962852a2de2b2bc2100</title>
<g id="a_clust1"><a xlink:href="dir_e4bf11e9380ee962852a2de2b2bc2100.html" target="_top" xlink:title="QE_calibration">
<polygon fill="#ddddee" stroke="black" points="8,-64 8,-135 95,-135 95,-64 8,-64"/>
<text text-anchor="middle" x="51.5" y="-123" font-family="Helvetica,sans-Serif" font-size="10.00">QE_calibration</text>
</a>
</g>
</g>
<!-- dir_b46d58cf4f6d298ff65725c92cf3d8c3 -->
<g id="node1" class="node">
<title>dir_b46d58cf4f6d298ff65725c92cf3d8c3</title>
<g id="a_node1"><a xlink:href="dir_b46d58cf4f6d298ff65725c92cf3d8c3.html" target="_top" xlink:title="src">
<polygon fill="#eeeeff" stroke="black" points="78,-108 24,-108 24,-72 78,-72 78,-108"/>
<text text-anchor="middle" x="51" y="-87.5" font-family="Helvetica,sans-Serif" font-size="10.00">src</text>
</a>
</g>
</g>
<!-- dir_bdd9a5d540de89e9fe90efdfc6973a4f -->
<g id="node2" class="node">
<title>dir_bdd9a5d540de89e9fe90efdfc6973a4f</title>
<g id="a_node2"><a xlink:href="dir_bdd9a5d540de89e9fe90efdfc6973a4f.html" target="_top" xlink:title="common">
<polygon fill="none" stroke="red" points="80.5,-36 21.5,-36 21.5,0 80.5,0 80.5,-36"/>
<text text-anchor="middle" x="51" y="-15.5" font-family="Helvetica,sans-Serif" font-size="10.00">common</text>
</a>
</g>
</g>
<!-- dir_b46d58cf4f6d298ff65725c92cf3d8c3&#45;&gt;dir_bdd9a5d540de89e9fe90efdfc6973a4f -->
<g id="edge1" class="edge">
<title>dir_b46d58cf4f6d298ff65725c92cf3d8c3&#45;&gt;dir_bdd9a5d540de89e9fe90efdfc6973a4f</title>
<path fill="none" stroke="black" d="M51,-71.7C51,-63.98 51,-54.71 51,-46.11"/>
<polygon fill="black" stroke="black" points="54.5,-46.1 51,-36.1 47.5,-46.1 54.5,-46.1"/>
<g id="a_edge1&#45;headlabel"><a xlink:href="dir_000014_000001.html" target="_top" xlink:title="10">
<text text-anchor="middle" x="57.34" y="-47.2" font-family="Helvetica,sans-Serif" font-size="10.00">10</text>
</a>
</g>
</g>
</g>
</svg>
