<?xml version="1.0" encoding="UTF-8" standalone="no"?>
<!DOCTYPE svg PUBLIC "-//W3C//DTD SVG 1.1//EN"
 "http://www.w3.org/Graphics/SVG/1.1/DTD/svg11.dtd">
<!-- Generated by graphviz version 2.43.0 (0)
 -->
<!-- Title: simulations Pages: 1 -->
<svg width="649pt" height="98pt"
 viewBox="0.00 0.00 649.00 98.00" xmlns="http://www.w3.org/2000/svg" xmlns:xlink="http://www.w3.org/1999/xlink">
<g id="graph0" class="graph" transform="scale(1 1) rotate(0) translate(4 94)">
<title>simulations</title>
<g id="clust1" class="cluster">
<title>clusterdir_83271c016684bff04ce022d17a2ba8ac</title>
<g id="a_clust1"><a xlink:href="dir_83271c016684bff04ce022d17a2ba8ac.html" target="_top">
<polygon fill="#daedff" stroke="#404040" stroke-width="2" points="8,-47 8,-82 633,-82 633,-47 8,-47"/>
</a>
</g>
</g>
<!-- dir_83271c016684bff04ce022d17a2ba8ac -->
<g id="node1" class="node">
<title>dir_83271c016684bff04ce022d17a2ba8ac</title>
<text text-anchor="middle" x="588" y="-62" font-family="Helvetica,sans-Serif" font-size="10.00">simulations</text>
</g>
<!-- dir_8dfe1e0a882227ede81fe824e3144913 -->
<g id="node2" class="node">
<title>dir_8dfe1e0a882227ede81fe824e3144913</title>
<g id="a_node2"><a xlink:href="dir_8dfe1e0a882227ede81fe824e3144913.html" target="_top" xlink:title="effective_area">
<polygon fill="#4ea9ff" stroke="#404040" points="533,-74 447,-74 447,-55 533,-55 533,-74"/>
<text text-anchor="middle" x="490" y="-62" font-family="Helvetica,sans-Serif" font-size="10.00">effective_area</text>
</a>
</g>
</g>
<!-- dir_bdd9a5d540de89e9fe90efdfc6973a4f -->
<g id="node7" class="node">
<title>dir_bdd9a5d540de89e9fe90efdfc6973a4f</title>
<g id="a_node7"><a xlink:href="dir_bdd9a5d540de89e9fe90efdfc6973a4f.html" target="_top" xlink:title="common">
<polygon fill="#daedff" stroke="red" points="263.5,-19 204.5,-19 204.5,0 263.5,0 263.5,-19"/>
<text text-anchor="middle" x="234" y="-7" font-family="Helvetica,sans-Serif" font-size="10.00">common</text>
</a>
</g>
</g>
<!-- dir_8dfe1e0a882227ede81fe824e3144913&#45;&gt;dir_bdd9a5d540de89e9fe90efdfc6973a4f -->
<g id="edge1" class="edge">
<title>dir_8dfe1e0a882227ede81fe824e3144913&#45;&gt;dir_bdd9a5d540de89e9fe90efdfc6973a4f</title>
<g id="a_edge1"><a xlink:href="dir_000001_000000.html" target="_top">
<path fill="none" stroke="#63b8ff" d="M465.32,-54.95C456.74,-52.17 447.01,-49.23 438,-47 381.49,-33.04 314.93,-22.15 273.59,-16.02"/>
<polygon fill="#63b8ff" stroke="#63b8ff" points="274.05,-12.55 263.64,-14.57 273.03,-19.48 274.05,-12.55"/>
</a>
</g>
<g id="a_edge1&#45;headlabel"><a xlink:href="dir_000001_000000.html" target="_top" xlink:title="10">
<text text-anchor="middle" x="278.01" y="-7.76" font-family="Helvetica,sans-Serif" font-size="10.00" fill="#63b8ff">10</text>
</a>
</g>
</g>
<!-- dir_1982ac4ee14fc237007cc9ebcbaeb674 -->
<g id="node3" class="node">
<title>dir_1982ac4ee14fc237007cc9ebcbaeb674</title>
<g id="a_node3"><a xlink:href="dir_1982ac4ee14fc237007cc9ebcbaeb674.html" target="_top" xlink:title="efficiency_calibration">
<polygon fill="#4ea9ff" stroke="#404040" points="428.5,-74 307.5,-74 307.5,-55 428.5,-55 428.5,-74"/>
<text text-anchor="middle" x="368" y="-62" font-family="Helvetica,sans-Serif" font-size="10.00">efficiency_calibration</text>
</a>
</g>
</g>
<!-- dir_1982ac4ee14fc237007cc9ebcbaeb674&#45;&gt;dir_bdd9a5d540de89e9fe90efdfc6973a4f -->
<g id="edge2" class="edge">
<title>dir_1982ac4ee14fc237007cc9ebcbaeb674&#45;&gt;dir_bdd9a5d540de89e9fe90efdfc6973a4f</title>
<g id="a_edge2"><a xlink:href="dir_000002_000000.html" target="_top">
<path fill="none" stroke="#63b8ff" d="M346.47,-54.98C324.53,-46.3 290.26,-32.75 265.31,-22.88"/>
<polygon fill="#63b8ff" stroke="#63b8ff" points="266.51,-19.59 255.92,-19.17 263.93,-26.1 266.51,-19.59"/>
</a>
</g>
<g id="a_edge2&#45;headlabel"><a xlink:href="dir_000002_000000.html" target="_top" xlink:title="11">
<text text-anchor="middle" x="270.89" y="-15.78" font-family="Helvetica,sans-Serif" font-size="10.00" fill="#63b8ff">11</text>
</a>
</g>
</g>
<!-- dir_bb55901d3b0c41c0755ece8de7fe1d65 -->
<g id="node4" class="node">
<title>dir_bb55901d3b0c41c0755ece8de7fe1d65</title>
<g id="a_node4"><a xlink:href="dir_bb55901d3b0c41c0755ece8de7fe1d65.html" target="_top" xlink:title="radioactive_decays">
<polygon fill="#4ea9ff" stroke="#404040" points="289.5,-74 178.5,-74 178.5,-55 289.5,-55 289.5,-74"/>
<text text-anchor="middle" x="234" y="-62" font-family="Helvetica,sans-Serif" font-size="10.00">radioactive_decays</text>
</a>
</g>
</g>
<!-- dir_bb55901d3b0c41c0755ece8de7fe1d65&#45;&gt;dir_bdd9a5d540de89e9fe90efdfc6973a4f -->
<g id="edge3" class="edge">
<title>dir_bb55901d3b0c41c0755ece8de7fe1d65&#45;&gt;dir_bdd9a5d540de89e9fe90efdfc6973a4f</title>
<g id="a_edge3"><a xlink:href="dir_000013_000000.html" target="_top">
<path fill="none" stroke="#63b8ff" d="M234,-54.75C234,-47.8 234,-37.85 234,-29.13"/>
<polygon fill="#63b8ff" stroke="#63b8ff" points="237.5,-29.09 234,-19.09 230.5,-29.09 237.5,-29.09"/>
</a>
</g>
<g id="a_edge3&#45;headlabel"><a xlink:href="dir_000013_000000.html" target="_top" xlink:title="13">
<text text-anchor="middle" x="240.34" y="-30.18" font-family="Helvetica,sans-Serif" font-size="10.00" fill="#63b8ff">13</text>
</a>
</g>
</g>
<!-- dir_553094e69e8206429061833255d80122 -->
<g id="node5" class="node">
<title>dir_553094e69e8206429061833255d80122</title>
<g id="a_node5"><a xlink:href="dir_553094e69e8206429061833255d80122.html" target="_top" xlink:title="supernova">
<polygon fill="#4ea9ff" stroke="#404040" points="160,-74 92,-74 92,-55 160,-55 160,-74"/>
<text text-anchor="middle" x="126" y="-62" font-family="Helvetica,sans-Serif" font-size="10.00">supernova</text>
</a>
</g>
</g>
<!-- dir_553094e69e8206429061833255d80122&#45;&gt;dir_bdd9a5d540de89e9fe90efdfc6973a4f -->
<g id="edge4" class="edge">
<title>dir_553094e69e8206429061833255d80122&#45;&gt;dir_bdd9a5d540de89e9fe90efdfc6973a4f</title>
<g id="a_edge4"><a xlink:href="dir_000022_000000.html" target="_top">
<path fill="none" stroke="#63b8ff" d="M143.35,-54.98C160.57,-46.54 187.2,-33.47 207.15,-23.68"/>
<polygon fill="#63b8ff" stroke="#63b8ff" points="208.9,-26.72 216.33,-19.17 205.81,-20.43 208.9,-26.72"/>
</a>
</g>
<g id="a_edge4&#45;headlabel"><a xlink:href="dir_000022_000000.html" target="_top" xlink:title="13">
<text text-anchor="middle" x="206.92" y="-28.35" font-family="Helvetica,sans-Serif" font-size="10.00" fill="#63b8ff">13</text>
</a>
</g>
</g>
<!-- dir_b376eb7d3cddbb728ec719befd2c5963 -->
<g id="node6" class="node">
<title>dir_b376eb7d3cddbb728ec719befd2c5963</title>
<g id="a_node6"><a xlink:href="dir_b376eb7d3cddbb728ec719befd2c5963.html" target="_top" xlink:title="wavepid">
<polygon fill="#4ea9ff" stroke="#404040" points="74,-74 16,-74 16,-55 74,-55 74,-74"/>
<text text-anchor="middle" x="45" y="-62" font-family="Helvetica,sans-Serif" font-size="10.00">wavepid</text>
</a>
</g>
</g>
<!-- dir_b376eb7d3cddbb728ec719befd2c5963&#45;&gt;dir_bdd9a5d540de89e9fe90efdfc6973a4f -->
<g id="edge5" class="edge">
<title>dir_b376eb7d3cddbb728ec719befd2c5963&#45;&gt;dir_bdd9a5d540de89e9fe90efdfc6973a4f</title>
<g id="a_edge5"><a xlink:href="dir_000023_000000.html" target="_top">
<path fill="none" stroke="#63b8ff" d="M62.92,-54.96C69.18,-52.18 76.32,-49.24 83,-47 120.1,-34.56 163.66,-24.5 194.43,-18.11"/>
<polygon fill="#63b8ff" stroke="#63b8ff" points="195.25,-21.52 204.35,-16.09 193.85,-14.66 195.25,-21.52"/>
</a>
</g>
<g id="a_edge5&#45;headlabel"><a xlink:href="dir_000023_000000.html" target="_top" xlink:title="19">
<text text-anchor="middle" x="192.29" y="-22.52" font-family="Helvetica,sans-Serif" font-size="10.00" fill="#63b8ff">19</text>
</a>
</g>
</g>
</g>
</svg>
