<?xml version="1.0" encoding="UTF-8" standalone="no"?>
<!DOCTYPE svg PUBLIC "-//W3C//DTD SVG 1.1//EN"
 "http://www.w3.org/Graphics/SVG/1.1/DTD/svg11.dtd">
<!-- Generated by graphviz version 2.43.0 (0)
 -->
<!-- Title: QE_calibration Pages: 1 -->
<svg width="288pt" height="159pt"
 viewBox="0.00 0.00 288.00 159.00" xmlns="http://www.w3.org/2000/svg" xmlns:xlink="http://www.w3.org/1999/xlink">
<g id="graph0" class="graph" transform="scale(1 1) rotate(0) translate(4 155)">
<title>QE_calibration</title>
<g id="clust1" class="cluster">
<title>clusterdir_83271c016684bff04ce022d17a2ba8ac</title>
<g id="a_clust1"><a xlink:href="dir_83271c016684bff04ce022d17a2ba8ac.html" target="_top" xlink:title="simulations">
<polygon fill="#ddddee" stroke="black" points="8,-56 8,-143 272,-143 272,-56 8,-56"/>
<text text-anchor="middle" x="140" y="-131" font-family="Helvetica,sans-Serif" font-size="10.00">simulations</text>
</a>
</g>
</g>
<g id="clust2" class="cluster">
<title>clusterdir_e4bf11e9380ee962852a2de2b2bc2100</title>
<g id="a_clust2"><a xlink:href="dir_e4bf11e9380ee962852a2de2b2bc2100.html" target="_top">
<polygon fill="#eeeeff" stroke="black" points="16,-64 16,-116 264,-116 264,-64 16,-64"/>
</a>
</g>
</g>
<!-- dir_e4bf11e9380ee962852a2de2b2bc2100 -->
<g id="node1" class="node">
<title>dir_e4bf11e9380ee962852a2de2b2bc2100</title>
<text text-anchor="middle" x="212" y="-87.5" font-family="Helvetica,sans-Serif" font-size="10.00">QE_calibration</text>
</g>
<!-- dir_957630c6201d7d06f45f3c3aa19bc518 -->
<g id="node2" class="node">
<title>dir_957630c6201d7d06f45f3c3aa19bc518</title>
<g id="a_node2"><a xlink:href="dir_957630c6201d7d06f45f3c3aa19bc518.html" target="_top" xlink:title="include">
<polygon fill="white" stroke="black" points="150,-108 96,-108 96,-72 150,-72 150,-108"/>
<text text-anchor="middle" x="123" y="-87.5" font-family="Helvetica,sans-Serif" font-size="10.00">include</text>
</a>
</g>
</g>
<!-- dir_bdd9a5d540de89e9fe90efdfc6973a4f -->
<g id="node4" class="node">
<title>dir_bdd9a5d540de89e9fe90efdfc6973a4f</title>
<g id="a_node4"><a xlink:href="dir_bdd9a5d540de89e9fe90efdfc6973a4f.html" target="_top" xlink:title="common">
<polygon fill="none" stroke="red" points="116.5,-36 57.5,-36 57.5,0 116.5,0 116.5,-36"/>
<text text-anchor="middle" x="87" y="-15.5" font-family="Helvetica,sans-Serif" font-size="10.00">common</text>
</a>
</g>
</g>
<!-- dir_957630c6201d7d06f45f3c3aa19bc518&#45;&gt;dir_bdd9a5d540de89e9fe90efdfc6973a4f -->
<g id="edge2" class="edge">
<title>dir_957630c6201d7d06f45f3c3aa19bc518&#45;&gt;dir_bdd9a5d540de89e9fe90efdfc6973a4f</title>
<path fill="none" stroke="black" d="M114.1,-71.7C110,-63.73 105.05,-54.1 100.51,-45.26"/>
<polygon fill="black" stroke="black" points="103.48,-43.4 95.8,-36.1 97.26,-46.6 103.48,-43.4"/>
<g id="a_edge2&#45;headlabel"><a xlink:href="dir_000016_000001.html" target="_top" xlink:title="2">
<text text-anchor="middle" x="107.65" y="-42.79" font-family="Helvetica,sans-Serif" font-size="10.00">2</text>
</a>
</g>
</g>
<!-- dir_b46d58cf4f6d298ff65725c92cf3d8c3 -->
<g id="node3" class="node">
<title>dir_b46d58cf4f6d298ff65725c92cf3d8c3</title>
<g id="a_node3"><a xlink:href="dir_b46d58cf4f6d298ff65725c92cf3d8c3.html" target="_top" xlink:title="src">
<polygon fill="white" stroke="black" points="78,-108 24,-108 24,-72 78,-72 78,-108"/>
<text text-anchor="middle" x="51" y="-87.5" font-family="Helvetica,sans-Serif" font-size="10.00">src</text>
</a>
</g>
</g>
<!-- dir_b46d58cf4f6d298ff65725c92cf3d8c3&#45;&gt;dir_bdd9a5d540de89e9fe90efdfc6973a4f -->
<g id="edge1" class="edge">
<title>dir_b46d58cf4f6d298ff65725c92cf3d8c3&#45;&gt;dir_bdd9a5d540de89e9fe90efdfc6973a4f</title>
<path fill="none" stroke="black" d="M59.9,-71.7C64,-63.73 68.95,-54.1 73.49,-45.26"/>
<polygon fill="black" stroke="black" points="76.74,-46.6 78.2,-36.1 70.52,-43.4 76.74,-46.6"/>
<g id="a_edge1&#45;headlabel"><a xlink:href="dir_000015_000001.html" target="_top" xlink:title="11">
<text text-anchor="middle" x="77.62" y="-48.59" font-family="Helvetica,sans-Serif" font-size="10.00">11</text>
</a>
</g>
</g>
</g>
</svg>
