<?xml version="1.0" encoding="UTF-8" standalone="no"?>
<!DOCTYPE svg PUBLIC "-//W3C//DTD SVG 1.1//EN"
 "http://www.w3.org/Graphics/SVG/1.1/DTD/svg11.dtd">
<!-- Generated by graphviz version 2.43.0 (0)
 -->
<!-- Title: effective_area Pages: 1 -->
<svg width="192pt" height="180pt"
 viewBox="0.00 0.00 192.00 180.00" xmlns="http://www.w3.org/2000/svg" xmlns:xlink="http://www.w3.org/1999/xlink">
<g id="graph0" class="graph" transform="scale(1 1) rotate(0) translate(4 176)">
<title>effective_area</title>
<g id="clust1" class="cluster">
<title>clusterdir_83271c016684bff04ce022d17a2ba8ac</title>
<g id="a_clust1"><a xlink:href="dir_83271c016684bff04ce022d17a2ba8ac.html" target="_top" xlink:title="simulations">
<polygon fill="#daedff" stroke="#404040" stroke-dasharray="5,2" points="8,-39 8,-164 176,-164 176,-39 8,-39"/>
<text text-anchor="middle" x="92" y="-152" font-family="Helvetica,sans-Serif" font-size="10.00">simulations</text>
</a>
</g>
</g>
<g id="clust2" class="cluster">
<title>clusterdir_8dfe1e0a882227ede81fe824e3144913</title>
<g id="a_clust2"><a xlink:href="dir_8dfe1e0a882227ede81fe824e3144913.html" target="_top">
<polygon fill="#daedff" stroke="#404040" stroke-width="2" points="16,-47 16,-137 168,-137 168,-47 16,-47"/>
</a>
</g>
</g>
<!-- dir_8dfe1e0a882227ede81fe824e3144913 -->
<g id="node1" class="node">
<title>dir_8dfe1e0a882227ede81fe824e3144913</title>
<text text-anchor="middle" x="67" y="-117" font-family="Helvetica,sans-Serif" font-size="10.00">effective_area</text>
</g>
<!-- dir_f9b02cdf76a5a3d3c8b8a33fd60e2526 -->
<g id="node2" class="node">
<title>dir_f9b02cdf76a5a3d3c8b8a33fd60e2526</title>
<g id="a_node2"><a xlink:href="dir_f9b02cdf76a5a3d3c8b8a33fd60e2526.html" target="_top" xlink:title="include">
<polygon fill="#4ea9ff" stroke="#404040" points="85,-74 33,-74 33,-55 85,-55 85,-74"/>
<text text-anchor="middle" x="59" y="-62" font-family="Helvetica,sans-Serif" font-size="10.00">include</text>
</a>
</g>
</g>
<!-- dir_8dfe1e0a882227ede81fe824e3144913&#45;&gt;dir_f9b02cdf76a5a3d3c8b8a33fd60e2526 -->
<g id="edge2" class="edge">
<title>dir_8dfe1e0a882227ede81fe824e3144913&#45;&gt;dir_f9b02cdf76a5a3d3c8b8a33fd60e2526</title>
<g id="a_edge2"><a xlink:href="dir_000001_000008.html" target="_top">
<path fill="none" stroke="#63b8ff" d="M65.68,-109.75C64.63,-102.8 63.13,-92.85 61.81,-84.13"/>
<polygon fill="#63b8ff" stroke="#63b8ff" points="65.25,-83.45 60.3,-74.09 58.33,-84.5 65.25,-83.45"/>
</a>
</g>
<g id="a_edge2&#45;headlabel"><a xlink:href="dir_000001_000008.html" target="_top" xlink:title="4">
<text text-anchor="middle" x="68.59" y="-84.09" font-family="Helvetica,sans-Serif" font-size="10.00" fill="#63b8ff">4</text>
</a>
</g>
</g>
<!-- dir_bdd9a5d540de89e9fe90efdfc6973a4f -->
<g id="node4" class="node">
<title>dir_bdd9a5d540de89e9fe90efdfc6973a4f</title>
<g id="a_node4"><a xlink:href="dir_bdd9a5d540de89e9fe90efdfc6973a4f.html" target="_top" xlink:title="common">
<polygon fill="#daedff" stroke="red" points="142.5,-19 83.5,-19 83.5,0 142.5,0 142.5,-19"/>
<text text-anchor="middle" x="113" y="-7" font-family="Helvetica,sans-Serif" font-size="10.00">common</text>
</a>
</g>
</g>
<!-- dir_8dfe1e0a882227ede81fe824e3144913&#45;&gt;dir_bdd9a5d540de89e9fe90efdfc6973a4f -->
<g id="edge1" class="edge">
<title>dir_8dfe1e0a882227ede81fe824e3144913&#45;&gt;dir_bdd9a5d540de89e9fe90efdfc6973a4f</title>
<g id="a_edge1"><a xlink:href="dir_000001_000000.html" target="_top">
<path fill="none" stroke="#63b8ff" d="M73.07,-109.99C79.05,-101.29 88.13,-87.21 94,-74 100.43,-59.52 105.44,-42.25 108.7,-29.38"/>
<polygon fill="#63b8ff" stroke="#63b8ff" points="112.17,-29.92 111.1,-19.38 105.36,-28.29 112.17,-29.92"/>
</a>
</g>
<g id="a_edge1&#45;headlabel"><a xlink:href="dir_000001_000000.html" target="_top" xlink:title="14">
<text text-anchor="middle" x="114.09" y="-31.58" font-family="Helvetica,sans-Serif" font-size="10.00" fill="#63b8ff">14</text>
</a>
</g>
</g>
<!-- dir_f9b02cdf76a5a3d3c8b8a33fd60e2526&#45;&gt;dir_bdd9a5d540de89e9fe90efdfc6973a4f -->
<g id="edge3" class="edge">
<title>dir_f9b02cdf76a5a3d3c8b8a33fd60e2526&#45;&gt;dir_bdd9a5d540de89e9fe90efdfc6973a4f</title>
<g id="a_edge3"><a xlink:href="dir_000008_000000.html" target="_top">
<path fill="none" stroke="#63b8ff" d="M67.92,-54.75C75.78,-47.03 87.43,-35.6 96.92,-26.28"/>
<polygon fill="#63b8ff" stroke="#63b8ff" points="99.56,-28.59 104.25,-19.09 94.66,-23.6 99.56,-28.59"/>
</a>
</g>
<g id="a_edge3&#45;headlabel"><a xlink:href="dir_000008_000000.html" target="_top" xlink:title="2">
<text text-anchor="middle" x="98.99" y="-30.64" font-family="Helvetica,sans-Serif" font-size="10.00" fill="#63b8ff">2</text>
</a>
</g>
</g>
<!-- dir_530002b765117689634e7db27e09d1d1 -->
<g id="node3" class="node">
<title>dir_530002b765117689634e7db27e09d1d1</title>
<g id="a_node3"><a xlink:href="dir_530002b765117689634e7db27e09d1d1.html" target="_top" xlink:title="src">
<polygon fill="#4ea9ff" stroke="#404040" points="159.5,-129 128.5,-129 128.5,-110 159.5,-110 159.5,-129"/>
<text text-anchor="middle" x="144" y="-117" font-family="Helvetica,sans-Serif" font-size="10.00">src</text>
</a>
</g>
</g>
<!-- dir_530002b765117689634e7db27e09d1d1&#45;&gt;dir_f9b02cdf76a5a3d3c8b8a33fd60e2526 -->
<g id="edge5" class="edge">
<title>dir_530002b765117689634e7db27e09d1d1&#45;&gt;dir_f9b02cdf76a5a3d3c8b8a33fd60e2526</title>
<g id="a_edge5"><a xlink:href="dir_000016_000008.html" target="_top">
<path fill="none" stroke="#63b8ff" d="M130.34,-109.98C117.16,-101.77 96.97,-89.18 81.43,-79.49"/>
<polygon fill="#63b8ff" stroke="#63b8ff" points="83.24,-76.49 72.91,-74.17 79.54,-82.43 83.24,-76.49"/>
</a>
</g>
<g id="a_edge5&#45;headlabel"><a xlink:href="dir_000016_000008.html" target="_top" xlink:title="2">
<text text-anchor="middle" x="87.8" y="-73.48" font-family="Helvetica,sans-Serif" font-size="10.00" fill="#63b8ff">2</text>
</a>
</g>
</g>
<!-- dir_530002b765117689634e7db27e09d1d1&#45;&gt;dir_bdd9a5d540de89e9fe90efdfc6973a4f -->
<g id="edge4" class="edge">
<title>dir_530002b765117689634e7db27e09d1d1&#45;&gt;dir_bdd9a5d540de89e9fe90efdfc6973a4f</title>
<g id="a_edge4"><a xlink:href="dir_000016_000000.html" target="_top">
<path fill="none" stroke="#63b8ff" d="M142.88,-109.96C140.78,-95.19 135.69,-64.07 127,-39 125.77,-35.45 124.21,-31.78 122.57,-28.3"/>
<polygon fill="#63b8ff" stroke="#63b8ff" points="125.63,-26.59 117.99,-19.24 119.38,-29.75 125.63,-26.59"/>
</a>
</g>
<g id="a_edge4&#45;headlabel"><a xlink:href="dir_000016_000000.html" target="_top" xlink:title="10">
<text text-anchor="middle" x="129.79" y="-26.02" font-family="Helvetica,sans-Serif" font-size="10.00" fill="#63b8ff">10</text>
</a>
</g>
</g>
</g>
</svg>
