<?xml version="1.0" encoding="UTF-8" standalone="no"?>
<!DOCTYPE svg PUBLIC "-//W3C//DTD SVG 1.1//EN"
 "http://www.w3.org/Graphics/SVG/1.1/DTD/svg11.dtd">
<!-- Generated by graphviz version 2.43.0 (0)
 -->
<!-- Title: Graphical Class Hierarchy Pages: 1 -->
<svg width="557pt" height="175pt"
 viewBox="0.00 0.00 557.00 175.00" xmlns="http://www.w3.org/2000/svg" xmlns:xlink="http://www.w3.org/1999/xlink">
<g id="graph0" class="graph" transform="scale(1 1) rotate(0) translate(4 171)">
<title>Graphical Class Hierarchy</title>
<!-- Node0 -->
<g id="Node000000" class="node">
<title>Node0</title>
<g id="a_Node000000"><a xlink:title=" ">
<polygon fill="#e0e0e0" stroke="#999999" points="163,-93 0,-93 0,-74 163,-74 163,-93"/>
<text text-anchor="middle" x="81.5" y="-81" font-family="Helvetica,sans-Serif" font-size="10.00">G4VUserDetectorConstruction</text>
</a>
</g>
</g>
<!-- Node1 -->
<g id="Node000001" class="node">
<title>Node1</title>
<g id="a_Node000001"><a xlink:href="class_o_m_sim_detector_construction.html" target="_top" xlink:title="Class for detector construction in the effective area simulation.">
<polygon fill="white" stroke="#666666" points="354,-93 199,-93 199,-74 354,-74 354,-93"/>
<text text-anchor="middle" x="276.5" y="-81" font-family="Helvetica,sans-Serif" font-size="10.00">OMSimDetectorConstruction</text>
</a>
</g>
</g>
<!-- Node0&#45;&gt;Node1 -->
<g id="edge19_Node000000_Node000001" class="edge">
<title>Node0&#45;&gt;Node1</title>
<g id="a_edge19_Node000000_Node000001"><a xlink:title=" ">
<path fill="none" stroke="#63b8ff" d="M173.51,-83.5C181.97,-83.5 190.48,-83.5 198.8,-83.5"/>
<polygon fill="#63b8ff" stroke="#63b8ff" points="173.23,-80 163.23,-83.5 173.23,-87 173.23,-80"/>
</a>
</g>
</g>
<!-- Node2 -->
<g id="Node000002" class="node">
<title>Node2</title>
<g id="a_Node000002"><a xlink:href="class_o_m_sim_effective_area_detector.html" target="_top" xlink:title="Class for detector construction in the effective area simulation.">
<polygon fill="white" stroke="#666666" points="549,-167 390,-167 390,-148 549,-148 549,-167"/>
<text text-anchor="middle" x="469.5" y="-155" font-family="Helvetica,sans-Serif" font-size="10.00">OMSimEffectiveAreaDetector</text>
</a>
</g>
</g>
<!-- Node1&#45;&gt;Node2 -->
<g id="edge20_Node000001_Node000002" class="edge">
<title>Node1&#45;&gt;Node2</title>
<g id="a_edge20_Node000001_Node000002"><a xlink:title=" ">
<path fill="none" stroke="#63b8ff" d="M302.55,-98.12C324.86,-110.62 358.73,-128.31 390,-139.5 399.08,-142.75 408.97,-145.56 418.57,-147.92"/>
<polygon fill="#63b8ff" stroke="#63b8ff" points="304.16,-95.01 293.73,-93.12 300.7,-101.1 304.16,-95.01"/>
</a>
</g>
</g>
<!-- Node3 -->
<g id="Node000003" class="node">
<title>Node3</title>
<g id="a_Node000003"><a xlink:href="class_o_m_sim_effi_cali_detector.html" target="_top" xlink:title=" ">
<polygon fill="white" stroke="#666666" points="533.5,-130 405.5,-130 405.5,-111 533.5,-111 533.5,-130"/>
<text text-anchor="middle" x="469.5" y="-118" font-family="Helvetica,sans-Serif" font-size="10.00">OMSimEffiCaliDetector</text>
</a>
</g>
</g>
<!-- Node1&#45;&gt;Node3 -->
<g id="edge21_Node000001_Node000003" class="edge">
<title>Node1&#45;&gt;Node3</title>
<g id="a_edge21_Node000001_Node000003"><a xlink:title=" ">
<path fill="none" stroke="#63b8ff" d="M336.6,-94.95C363.07,-100.08 393.93,-106.06 419.15,-110.94"/>
<polygon fill="#63b8ff" stroke="#63b8ff" points="337.17,-91.49 326.69,-93.03 335.84,-98.37 337.17,-91.49"/>
</a>
</g>
</g>
<!-- Node4 -->
<g id="Node000004" class="node">
<title>Node4</title>
<g id="a_Node000004"><a xlink:href="class_o_m_sim_rad_decays_detector.html" target="_top" xlink:title="Detector construction of radioactive decays simulation.">
<polygon fill="white" stroke="#666666" points="544,-93 395,-93 395,-74 544,-74 544,-93"/>
<text text-anchor="middle" x="469.5" y="-81" font-family="Helvetica,sans-Serif" font-size="10.00">OMSimRadDecaysDetector</text>
</a>
</g>
</g>
<!-- Node1&#45;&gt;Node4 -->
<g id="edge22_Node000001_Node000004" class="edge">
<title>Node1&#45;&gt;Node4</title>
<g id="a_edge22_Node000001_Node000004"><a xlink:title=" ">
<path fill="none" stroke="#63b8ff" d="M364.21,-83.5C374.39,-83.5 384.71,-83.5 394.69,-83.5"/>
<polygon fill="#63b8ff" stroke="#63b8ff" points="364.09,-80 354.09,-83.5 364.09,-87 364.09,-80"/>
</a>
</g>
</g>
<!-- Node5 -->
<g id="Node000005" class="node">
<title>Node5</title>
<g id="a_Node000005"><a xlink:href="class_o_m_sim_s_ndetector.html" target="_top" xlink:title="Class for detector construction in the SN neutrino simulation.">
<polygon fill="white" stroke="#666666" points="522.5,-56 416.5,-56 416.5,-37 522.5,-37 522.5,-56"/>
<text text-anchor="middle" x="469.5" y="-44" font-family="Helvetica,sans-Serif" font-size="10.00">OMSimSNdetector</text>
</a>
</g>
</g>
<!-- Node1&#45;&gt;Node5 -->
<g id="edge23_Node000001_Node000005" class="edge">
<title>Node1&#45;&gt;Node5</title>
<g id="a_edge23_Node000001_Node000005"><a xlink:title=" ">
<path fill="none" stroke="#63b8ff" d="M336.6,-72.05C363.07,-66.92 393.93,-60.94 419.15,-56.06"/>
<polygon fill="#63b8ff" stroke="#63b8ff" points="335.84,-68.63 326.69,-73.97 337.17,-75.51 335.84,-68.63"/>
</a>
</g>
</g>
<!-- Node6 -->
<g id="Node000006" class="node">
<title>Node6</title>
<g id="a_Node000006"><a xlink:href="class_o_m_sim_wave_p_i_d_detector.html" target="_top" xlink:title="Detector construction for WavePID photon origin tracking study.">
<polygon fill="white" stroke="#666666" points="538,-19 401,-19 401,0 538,0 538,-19"/>
<text text-anchor="middle" x="469.5" y="-7" font-family="Helvetica,sans-Serif" font-size="10.00">OMSimWavePIDDetector</text>
</a>
</g>
</g>
<!-- Node1&#45;&gt;Node6 -->
<g id="edge24_Node000001_Node000006" class="edge">
<title>Node1&#45;&gt;Node6</title>
<g id="a_edge24_Node000001_Node000006"><a xlink:title=" ">
<path fill="none" stroke="#63b8ff" d="M303,-69.04C325.36,-56.86 359.04,-39.66 390,-28.5 400.16,-24.84 411.31,-21.66 421.93,-19.01"/>
<polygon fill="#63b8ff" stroke="#63b8ff" points="301.21,-66.03 294.15,-73.93 304.6,-72.16 301.21,-66.03"/>
</a>
</g>
</g>
</g>
</svg>
