<?xml version="1.0" encoding="UTF-8" standalone="no"?>
<!DOCTYPE svg PUBLIC "-//W3C//DTD SVG 1.1//EN"
 "http://www.w3.org/Graphics/SVG/1.1/DTD/svg11.dtd">
<!-- Generated by graphviz version 2.43.0 (0)
 -->
<!-- Title: Graphical Class Hierarchy Pages: 1 -->
<svg width="414pt" height="218pt"
 viewBox="0.00 0.00 414.00 218.00" xmlns="http://www.w3.org/2000/svg" xmlns:xlink="http://www.w3.org/1999/xlink">
<g id="graph0" class="graph" transform="scale(1 1) rotate(0) translate(4 214)">
<title>Graphical Class Hierarchy</title>
<!-- Node0 -->
<g id="node1" class="node">
<title>Node0</title>
<g id="a_node1"><a xlink:href="class_o_m_sim_detector_component.html" target="_top" xlink:title="Abstract base class used for constructing detector components.">
<polygon fill="none" stroke="black" points="0,-76.5 0,-95.5 150,-95.5 150,-76.5 0,-76.5"/>
<text text-anchor="middle" x="75" y="-83.5" font-family="Helvetica,sans-Serif" font-size="10.00">OMSimDetectorComponent</text>
</a>
</g>
</g>
<!-- Node1 -->
<g id="node2" class="node">
<title>Node1</title>
<g id="a_node2"><a xlink:href="class_d_egg_harness.html" target="_top" xlink:title=" ">
<polygon fill="none" stroke="black" points="212,-152.5 212,-171.5 294,-171.5 294,-152.5 212,-152.5"/>
<text text-anchor="middle" x="253" y="-159.5" font-family="Helvetica,sans-Serif" font-size="10.00">DEggHarness</text>
</a>
</g>
</g>
<!-- Node0&#45;&gt;Node1 -->
<g id="edge1" class="edge">
<title>Node0&#45;&gt;Node1</title>
<path fill="none" stroke="midnightblue" d="M100.86,-100.69C122.73,-113.17 155.71,-130.93 186,-143 194.86,-146.53 204.63,-149.71 213.87,-152.41"/>
<polygon fill="midnightblue" stroke="midnightblue" points="102.34,-97.5 91.93,-95.53 98.84,-103.57 102.34,-97.5"/>
</g>
<!-- Node2 -->
<g id="node3" class="node">
<title>Node2</title>
<g id="a_node3"><a xlink:href="class_o_m_sim_optical_module.html" target="_top" xlink:title="Base class for OMs works as interface.">
<polygon fill="none" stroke="black" points="192,-114.5 192,-133.5 314,-133.5 314,-114.5 192,-114.5"/>
<text text-anchor="middle" x="253" y="-121.5" font-family="Helvetica,sans-Serif" font-size="10.00">OMSimOpticalModule</text>
</a>
</g>
</g>
<!-- Node0&#45;&gt;Node2 -->
<g id="edge2" class="edge">
<title>Node0&#45;&gt;Node2</title>
<path fill="none" stroke="midnightblue" d="M130.43,-97.75C155.32,-103.13 184.42,-109.41 207.91,-114.48"/>
<polygon fill="midnightblue" stroke="midnightblue" points="130.93,-94.28 120.41,-95.59 129.45,-101.12 130.93,-94.28"/>
</g>
<!-- Node8 -->
<g id="node9" class="node">
<title>Node8</title>
<g id="a_node9"><a xlink:href="class_o_m_sim_p_m_t_construction.html" target="_top" xlink:title=" ">
<polygon fill="none" stroke="black" points="186,-76.5 186,-95.5 320,-95.5 320,-76.5 186,-76.5"/>
<text text-anchor="middle" x="253" y="-83.5" font-family="Helvetica,sans-Serif" font-size="10.00">OMSimPMTConstruction</text>
</a>
</g>
</g>
<!-- Node0&#45;&gt;Node8 -->
<g id="edge8" class="edge">
<title>Node0&#45;&gt;Node8</title>
<path fill="none" stroke="midnightblue" d="M160.18,-86C168.78,-86 177.42,-86 185.79,-86"/>
<polygon fill="midnightblue" stroke="midnightblue" points="160.13,-82.5 150.13,-86 160.13,-89.5 160.13,-82.5"/>
</g>
<!-- Node9 -->
<g id="node10" class="node">
<title>Node9</title>
<g id="a_node10"><a xlink:href="classm_d_o_m_flasher.html" target="_top" xlink:title="The mDOMFlasher class represents the 10 flashers in an mDOM optical module.">
<polygon fill="none" stroke="black" points="210,-38.5 210,-57.5 296,-57.5 296,-38.5 210,-38.5"/>
<text text-anchor="middle" x="253" y="-45.5" font-family="Helvetica,sans-Serif" font-size="10.00">mDOMFlasher</text>
</a>
</g>
</g>
<!-- Node0&#45;&gt;Node9 -->
<g id="edge9" class="edge">
<title>Node0&#45;&gt;Node9</title>
<path fill="none" stroke="midnightblue" d="M130.33,-74.27C155.88,-68.75 185.9,-62.27 209.72,-57.13"/>
<polygon fill="midnightblue" stroke="midnightblue" points="129.45,-70.88 120.41,-76.41 130.93,-77.72 129.45,-70.88"/>
</g>
<!-- Node10 -->
<g id="node11" class="node">
<title>Node10</title>
<g id="a_node11"><a xlink:href="classm_d_o_m_harness.html" target="_top" xlink:title=" ">
<polygon fill="none" stroke="black" points="208,-0.5 208,-19.5 298,-19.5 298,-0.5 208,-0.5"/>
<text text-anchor="middle" x="253" y="-7.5" font-family="Helvetica,sans-Serif" font-size="10.00">mDOMHarness</text>
</a>
</g>
</g>
<!-- Node0&#45;&gt;Node10 -->
<g id="edge10" class="edge">
<title>Node0&#45;&gt;Node10</title>
<path fill="none" stroke="midnightblue" d="M100.86,-71.31C122.73,-58.83 155.71,-41.07 186,-29 194.86,-25.47 204.63,-22.29 213.87,-19.59"/>
<polygon fill="midnightblue" stroke="midnightblue" points="98.84,-68.43 91.93,-76.47 102.34,-74.5 98.84,-68.43"/>
</g>
<!-- Node3 -->
<g id="node4" class="node">
<title>Node3</title>
<g id="a_node4"><a xlink:href="class_d_e_g_g.html" target="_top" xlink:title="Construction of the DEGG detector geometry.">
<polygon fill="none" stroke="black" points="358.5,-190.5 358.5,-209.5 403.5,-209.5 403.5,-190.5 358.5,-190.5"/>
<text text-anchor="middle" x="381" y="-197.5" font-family="Helvetica,sans-Serif" font-size="10.00">DEGG</text>
</a>
</g>
</g>
<!-- Node2&#45;&gt;Node3 -->
<g id="edge3" class="edge">
<title>Node2&#45;&gt;Node3</title>
<path fill="none" stroke="midnightblue" d="M308.71,-137.2C312.64,-138.91 316.45,-140.84 320,-143 339.88,-155.09 338.84,-165.3 356,-181 359.45,-184.16 363.36,-187.39 367.02,-190.27"/>
<polygon fill="midnightblue" stroke="midnightblue" points="309.97,-133.94 299.38,-133.58 307.43,-140.46 309.97,-133.94"/>
</g>
<!-- Node4 -->
<g id="node5" class="node">
<title>Node4</title>
<g id="a_node5"><a xlink:href="class_l_o_m16.html" target="_top" xlink:title=" ">
<polygon fill="none" stroke="black" points="356,-152.5 356,-171.5 406,-171.5 406,-152.5 356,-152.5"/>
<text text-anchor="middle" x="381" y="-159.5" font-family="Helvetica,sans-Serif" font-size="10.00">LOM16</text>
</a>
</g>
</g>
<!-- Node2&#45;&gt;Node4 -->
<g id="edge4" class="edge">
<title>Node2&#45;&gt;Node4</title>
<path fill="none" stroke="midnightblue" d="M297.62,-136.38C305.09,-138.55 312.78,-140.82 320,-143 331.82,-146.57 344.89,-150.69 355.81,-154.18"/>
<polygon fill="midnightblue" stroke="midnightblue" points="298.54,-133.01 287.97,-133.59 296.6,-139.73 298.54,-133.01"/>
</g>
<!-- Node5 -->
<g id="node6" class="node">
<title>Node5</title>
<g id="a_node6"><a xlink:href="class_l_o_m18.html" target="_top" xlink:title=" ">
<polygon fill="none" stroke="black" points="356,-114.5 356,-133.5 406,-133.5 406,-114.5 356,-114.5"/>
<text text-anchor="middle" x="381" y="-121.5" font-family="Helvetica,sans-Serif" font-size="10.00">LOM18</text>
</a>
</g>
</g>
<!-- Node2&#45;&gt;Node5 -->
<g id="edge5" class="edge">
<title>Node2&#45;&gt;Node5</title>
<path fill="none" stroke="midnightblue" d="M324.12,-124C335.54,-124 346.64,-124 355.9,-124"/>
<polygon fill="midnightblue" stroke="midnightblue" points="324.05,-120.5 314.05,-124 324.05,-127.5 324.05,-120.5"/>
</g>
<!-- Node6 -->
<g id="node7" class="node">
<title>Node6</title>
<g id="a_node7"><a xlink:href="classm_d_o_m.html" target="_top" xlink:title=" ">
<polygon fill="none" stroke="black" points="356,-76.5 356,-95.5 406,-95.5 406,-76.5 356,-76.5"/>
<text text-anchor="middle" x="381" y="-83.5" font-family="Helvetica,sans-Serif" font-size="10.00">mDOM</text>
</a>
</g>
</g>
<!-- Node2&#45;&gt;Node6 -->
<g id="edge6" class="edge">
<title>Node2&#45;&gt;Node6</title>
<path fill="none" stroke="midnightblue" d="M297.62,-111.62C305.09,-109.45 312.78,-107.18 320,-105 331.82,-101.43 344.89,-97.31 355.81,-93.82"/>
<polygon fill="midnightblue" stroke="midnightblue" points="296.6,-108.27 287.97,-114.41 298.54,-114.99 296.6,-108.27"/>
</g>
<!-- Node7 -->
<g id="node8" class="node">
<title>Node7</title>
<g id="a_node8"><a xlink:href="classp_d_o_m.html" target="_top" xlink:title="pDOM class represents the construction of pDOM/Gen1 DOM.">
<polygon fill="none" stroke="black" points="357.5,-38.5 357.5,-57.5 404.5,-57.5 404.5,-38.5 357.5,-38.5"/>
<text text-anchor="middle" x="381" y="-45.5" font-family="Helvetica,sans-Serif" font-size="10.00">pDOM</text>
</a>
</g>
</g>
<!-- Node2&#45;&gt;Node7 -->
<g id="edge7" class="edge">
<title>Node2&#45;&gt;Node7</title>
<path fill="none" stroke="midnightblue" d="M308.71,-110.8C312.64,-109.09 316.45,-107.16 320,-105 339.88,-92.91 338.84,-82.7 356,-67 359.45,-63.84 363.36,-60.61 367.02,-57.73"/>
<polygon fill="midnightblue" stroke="midnightblue" points="307.43,-107.54 299.38,-114.42 309.97,-114.06 307.43,-107.54"/>
</g>
</g>
</svg>
