<?xml version="1.0" encoding="UTF-8" standalone="no"?>
<!DOCTYPE svg PUBLIC "-//W3C//DTD SVG 1.1//EN"
 "http://www.w3.org/Graphics/SVG/1.1/DTD/svg11.dtd">
<!-- Generated by graphviz version 2.43.0 (0)
 -->
<!-- Title: Graphical Class Hierarchy Pages: 1 -->
<svg width="331pt" height="142pt"
 viewBox="0.00 0.00 331.00 142.00" xmlns="http://www.w3.org/2000/svg" xmlns:xlink="http://www.w3.org/1999/xlink">
<g id="graph0" class="graph" transform="scale(1 1) rotate(0) translate(4 138)">
<title>Graphical Class Hierarchy</title>
<!-- Node0 -->
<g id="node1" class="node">
<title>Node0</title>
<g id="a_node1"><a xlink:href="class_c_a_d_mesh_1_1_file_1_1_reader.html" target="_top" xlink:title=" ">
<polygon fill="none" stroke="black" points="0,-57.5 0,-76.5 128,-76.5 128,-57.5 0,-57.5"/>
<text text-anchor="middle" x="64" y="-64.5" font-family="Helvetica,sans-Serif" font-size="10.00">CADMesh::File::Reader</text>
</a>
</g>
</g>
<!-- Node1 -->
<g id="node2" class="node">
<title>Node1</title>
<g id="a_node2"><a xlink:href="class_c_a_d_mesh_1_1_file_1_1_built_in_reader.html" target="_top" xlink:title=" ">
<polygon fill="none" stroke="black" points="164,-114.5 164,-133.5 323,-133.5 323,-114.5 164,-114.5"/>
<text text-anchor="middle" x="243.5" y="-121.5" font-family="Helvetica,sans-Serif" font-size="10.00">CADMesh::File::BuiltInReader</text>
</a>
</g>
</g>
<!-- Node0&#45;&gt;Node1 -->
<g id="edge1" class="edge">
<title>Node0&#45;&gt;Node1</title>
<path fill="none" stroke="midnightblue" d="M96.98,-80.48C116.2,-88.28 141.25,-97.91 164,-105 175.11,-108.46 187.27,-111.68 198.63,-114.44"/>
<polygon fill="midnightblue" stroke="midnightblue" points="98.09,-77.16 87.51,-76.6 95.44,-83.63 98.09,-77.16"/>
</g>
<!-- Node2 -->
<g id="node3" class="node">
<title>Node2</title>
<g id="a_node3"><a xlink:href="class_c_a_d_mesh_1_1_file_1_1_o_b_j_reader.html" target="_top" xlink:title=" ">
<polygon fill="none" stroke="black" points="171,-76.5 171,-95.5 316,-95.5 316,-76.5 171,-76.5"/>
<text text-anchor="middle" x="243.5" y="-83.5" font-family="Helvetica,sans-Serif" font-size="10.00">CADMesh::File::OBJReader</text>
</a>
</g>
</g>
<!-- Node0&#45;&gt;Node2 -->
<g id="edge2" class="edge">
<title>Node0&#45;&gt;Node2</title>
<path fill="none" stroke="midnightblue" d="M138.28,-74.84C149.05,-76 160.12,-77.18 170.85,-78.33"/>
<polygon fill="midnightblue" stroke="midnightblue" points="138.4,-71.34 128.08,-73.75 137.65,-78.3 138.4,-71.34"/>
</g>
<!-- Node3 -->
<g id="node4" class="node">
<title>Node3</title>
<g id="a_node4"><a xlink:href="class_c_a_d_mesh_1_1_file_1_1_p_l_y_reader.html" target="_top" xlink:title=" ">
<polygon fill="none" stroke="black" points="171.5,-38.5 171.5,-57.5 315.5,-57.5 315.5,-38.5 171.5,-38.5"/>
<text text-anchor="middle" x="243.5" y="-45.5" font-family="Helvetica,sans-Serif" font-size="10.00">CADMesh::File::PLYReader</text>
</a>
</g>
</g>
<!-- Node0&#45;&gt;Node3 -->
<g id="edge3" class="edge">
<title>Node0&#45;&gt;Node3</title>
<path fill="none" stroke="midnightblue" d="M138.09,-59.18C149.12,-58 160.48,-56.78 171.46,-55.6"/>
<polygon fill="midnightblue" stroke="midnightblue" points="137.65,-55.7 128.08,-60.25 138.4,-62.66 137.65,-55.7"/>
</g>
<!-- Node4 -->
<g id="node5" class="node">
<title>Node4</title>
<g id="a_node5"><a xlink:href="class_c_a_d_mesh_1_1_file_1_1_s_t_l_reader.html" target="_top" xlink:title=" ">
<polygon fill="none" stroke="black" points="171,-0.5 171,-19.5 316,-19.5 316,-0.5 171,-0.5"/>
<text text-anchor="middle" x="243.5" y="-7.5" font-family="Helvetica,sans-Serif" font-size="10.00">CADMesh::File::STLReader</text>
</a>
</g>
</g>
<!-- Node0&#45;&gt;Node4 -->
<g id="edge4" class="edge">
<title>Node0&#45;&gt;Node4</title>
<path fill="none" stroke="midnightblue" d="M96.98,-53.52C116.2,-45.72 141.25,-36.09 164,-29 175.11,-25.54 187.27,-22.32 198.63,-19.56"/>
<polygon fill="midnightblue" stroke="midnightblue" points="95.44,-50.37 87.51,-57.4 98.09,-56.84 95.44,-50.37"/>
</g>
</g>
</svg>
