<?xml version="1.0" encoding="UTF-8" standalone="no"?>
<!DOCTYPE svg PUBLIC "-//W3C//DTD SVG 1.1//EN"
 "http://www.w3.org/Graphics/SVG/1.1/DTD/svg11.dtd">
<!-- Generated by graphviz version 2.43.0 (0)
 -->
<!-- Title: Graphical Class Hierarchy Pages: 1 -->
<svg width="557pt" height="104pt"
 viewBox="0.00 0.00 557.00 104.00" xmlns="http://www.w3.org/2000/svg" xmlns:xlink="http://www.w3.org/1999/xlink">
<g id="graph0" class="graph" transform="scale(1 1) rotate(0) translate(4 100)">
<title>Graphical Class Hierarchy</title>
<!-- Node51 -->
<g id="node1" class="node">
<title>Node51</title>
<g id="a_node1"><a xlink:title=" ">
<polygon fill="none" stroke="#bfbfbf" points="0,-38.5 0,-57.5 163,-57.5 163,-38.5 0,-38.5"/>
<text text-anchor="middle" x="81.5" y="-45.5" font-family="Helvetica,sans-Serif" font-size="10.00">G4VUserDetectorConstruction</text>
</a>
</g>
</g>
<!-- Node0 -->
<g id="node2" class="node">
<title>Node0</title>
<g id="a_node2"><a xlink:href="class_o_m_sim_detector_construction.html" target="_top" xlink:title="Class for detector construction in the effective area simulation.">
<polygon fill="none" stroke="black" points="199,-38.5 199,-57.5 354,-57.5 354,-38.5 199,-38.5"/>
<text text-anchor="middle" x="276.5" y="-45.5" font-family="Helvetica,sans-Serif" font-size="10.00">OMSimDetectorConstruction</text>
</a>
</g>
</g>
<!-- Node51&#45;&gt;Node0 -->
<g id="edge1" class="edge">
<title>Node51&#45;&gt;Node0</title>
<path fill="none" stroke="midnightblue" d="M173.51,-48C181.97,-48 190.48,-48 198.8,-48"/>
<polygon fill="midnightblue" stroke="midnightblue" points="173.23,-44.5 163.23,-48 173.23,-51.5 173.23,-44.5"/>
</g>
<!-- Node1 -->
<g id="node3" class="node">
<title>Node1</title>
<g id="a_node3"><a xlink:href="class_o_m_sim_effective_area_detector.html" target="_top" xlink:title="Class for detector construction in the effective area simulation.">
<polygon fill="none" stroke="black" points="390,-76.5 390,-95.5 549,-95.5 549,-76.5 390,-76.5"/>
<text text-anchor="middle" x="469.5" y="-83.5" font-family="Helvetica,sans-Serif" font-size="10.00">OMSimEffectiveAreaDetector</text>
</a>
</g>
</g>
<!-- Node0&#45;&gt;Node1 -->
<g id="edge2" class="edge">
<title>Node0&#45;&gt;Node1</title>
<path fill="none" stroke="midnightblue" d="M335.85,-59.61C363.02,-65.01 394.93,-71.36 420.65,-76.48"/>
<polygon fill="midnightblue" stroke="midnightblue" points="336.19,-56.11 325.7,-57.59 334.82,-62.97 336.19,-56.11"/>
</g>
<!-- Node2 -->
<g id="node4" class="node">
<title>Node2</title>
<g id="a_node4"><a xlink:href="class_o_m_sim_rad_decays_detector.html" target="_top" xlink:title="Detector construction of radioactive decays simulation.">
<polygon fill="none" stroke="black" points="395,-38.5 395,-57.5 544,-57.5 544,-38.5 395,-38.5"/>
<text text-anchor="middle" x="469.5" y="-45.5" font-family="Helvetica,sans-Serif" font-size="10.00">OMSimRadDecaysDetector</text>
</a>
</g>
</g>
<!-- Node0&#45;&gt;Node2 -->
<g id="edge3" class="edge">
<title>Node0&#45;&gt;Node2</title>
<path fill="none" stroke="midnightblue" d="M364.21,-48C374.39,-48 384.71,-48 394.69,-48"/>
<polygon fill="midnightblue" stroke="midnightblue" points="364.09,-44.5 354.09,-48 364.09,-51.5 364.09,-44.5"/>
</g>
<!-- Node3 -->
<g id="node5" class="node">
<title>Node3</title>
<g id="a_node5"><a xlink:href="class_o_m_sim_s_ndetector.html" target="_top" xlink:title="Class for detector construction in the SN neutrino simulation.">
<polygon fill="none" stroke="black" points="416.5,-0.5 416.5,-19.5 522.5,-19.5 522.5,-0.5 416.5,-0.5"/>
<text text-anchor="middle" x="469.5" y="-7.5" font-family="Helvetica,sans-Serif" font-size="10.00">OMSimSNdetector</text>
</a>
</g>
</g>
<!-- Node0&#45;&gt;Node3 -->
<g id="edge4" class="edge">
<title>Node0&#45;&gt;Node3</title>
<path fill="none" stroke="midnightblue" d="M335.85,-36.39C363.02,-30.99 394.93,-24.64 420.65,-19.52"/>
<polygon fill="midnightblue" stroke="midnightblue" points="334.82,-33.03 325.7,-38.41 336.19,-39.89 334.82,-33.03"/>
</g>
</g>
</svg>
