<?xml version="1.0" encoding="UTF-8" standalone="no"?>
<!DOCTYPE svg PUBLIC "-//W3C//DTD SVG 1.1//EN"
 "http://www.w3.org/Graphics/SVG/1.1/DTD/svg11.dtd">
<!-- Generated by graphviz version 2.43.0 (0)
 -->
<!-- Title: Graphical Class Hierarchy Pages: 1 -->
<svg width="310pt" height="218pt"
 viewBox="0.00 0.00 310.00 218.00" xmlns="http://www.w3.org/2000/svg" xmlns:xlink="http://www.w3.org/1999/xlink">
<g id="graph0" class="graph" transform="scale(1 1) rotate(0) translate(4 214)">
<title>Graphical Class Hierarchy</title>
<!-- Node0 -->
<g id="node1" class="node">
<title>Node0</title>
<g id="a_node1"><a xlink:href="class_o_m_sim_p_m_t_response.html" target="_top" xlink:title="Singleton class to simulate PMT response.">
<polygon fill="none" stroke="black" points="0,-95.5 0,-114.5 120,-114.5 120,-95.5 0,-95.5"/>
<text text-anchor="middle" x="60" y="-102.5" font-family="Helvetica,sans-Serif" font-size="10.00">OMSimPMTResponse</text>
</a>
</g>
</g>
<!-- Node1 -->
<g id="node2" class="node">
<title>Node1</title>
<g id="a_node2"><a xlink:href="class_d_e_g_g_p_m_t_response.html" target="_top" xlink:title=" ">
<polygon fill="none" stroke="black" points="172.5,-190.5 172.5,-209.5 285.5,-209.5 285.5,-190.5 172.5,-190.5"/>
<text text-anchor="middle" x="229" y="-197.5" font-family="Helvetica,sans-Serif" font-size="10.00">DEGGPMTResponse</text>
</a>
</g>
</g>
<!-- Node0&#45;&gt;Node1 -->
<g id="edge1" class="edge">
<title>Node0&#45;&gt;Node1</title>
<path fill="none" stroke="midnightblue" d="M77.6,-121.94C95.45,-139.21 125.41,-165.6 156,-181 163.62,-184.84 172.1,-187.96 180.48,-190.48"/>
<polygon fill="midnightblue" stroke="midnightblue" points="79.87,-119.26 70.3,-114.72 74.95,-124.24 79.87,-119.26"/>
</g>
<!-- Node2 -->
<g id="node3" class="node">
<title>Node2</title>
<g id="a_node3"><a xlink:href="class_gen1_p_m_t_response.html" target="_top" xlink:title=" ">
<polygon fill="none" stroke="black" points="174,-152.5 174,-171.5 284,-171.5 284,-152.5 174,-152.5"/>
<text text-anchor="middle" x="229" y="-159.5" font-family="Helvetica,sans-Serif" font-size="10.00">Gen1PMTResponse</text>
</a>
</g>
</g>
<!-- Node0&#45;&gt;Node2 -->
<g id="edge2" class="edge">
<title>Node0&#45;&gt;Node2</title>
<path fill="none" stroke="midnightblue" d="M91.95,-118.5C110.35,-126.24 134.27,-135.82 156,-143 166.31,-146.41 177.61,-149.63 188.13,-152.41"/>
<polygon fill="midnightblue" stroke="midnightblue" points="93.18,-115.22 82.6,-114.52 90.44,-121.66 93.18,-115.22"/>
</g>
<!-- Node3 -->
<g id="node4" class="node">
<title>Node3</title>
<g id="a_node4"><a xlink:href="class_l_o_m_hamamatsu_response.html" target="_top" xlink:title=" ">
<polygon fill="none" stroke="black" points="156,-114.5 156,-133.5 302,-133.5 302,-114.5 156,-114.5"/>
<text text-anchor="middle" x="229" y="-121.5" font-family="Helvetica,sans-Serif" font-size="10.00">LOMHamamatsuResponse</text>
</a>
</g>
</g>
<!-- Node0&#45;&gt;Node3 -->
<g id="edge3" class="edge">
<title>Node0&#45;&gt;Node3</title>
<path fill="none" stroke="midnightblue" d="M130.49,-112.91C138.91,-113.86 147.52,-114.84 155.97,-115.81"/>
<polygon fill="midnightblue" stroke="midnightblue" points="130.68,-109.41 120.35,-111.75 129.89,-116.36 130.68,-109.41"/>
</g>
<!-- Node4 -->
<g id="node5" class="node">
<title>Node4</title>
<g id="a_node5"><a xlink:href="class_l_o_m_n_n_v_t_response.html" target="_top" xlink:title=" ">
<polygon fill="none" stroke="black" points="172.5,-76.5 172.5,-95.5 285.5,-95.5 285.5,-76.5 172.5,-76.5"/>
<text text-anchor="middle" x="229" y="-83.5" font-family="Helvetica,sans-Serif" font-size="10.00">LOMNNVTResponse</text>
</a>
</g>
</g>
<!-- Node0&#45;&gt;Node4 -->
<g id="edge4" class="edge">
<title>Node0&#45;&gt;Node4</title>
<path fill="none" stroke="midnightblue" d="M130.43,-97.1C144.45,-95.51 159.01,-93.85 172.47,-92.32"/>
<polygon fill="midnightblue" stroke="midnightblue" points="129.89,-93.64 120.35,-98.25 130.68,-100.59 129.89,-93.64"/>
</g>
<!-- Node5 -->
<g id="node6" class="node">
<title>Node5</title>
<g id="a_node6"><a xlink:href="class_no_response.html" target="_top" xlink:title=" ">
<polygon fill="none" stroke="black" points="190.5,-38.5 190.5,-57.5 267.5,-57.5 267.5,-38.5 190.5,-38.5"/>
<text text-anchor="middle" x="229" y="-45.5" font-family="Helvetica,sans-Serif" font-size="10.00">NoResponse</text>
</a>
</g>
</g>
<!-- Node0&#45;&gt;Node5 -->
<g id="edge5" class="edge">
<title>Node0&#45;&gt;Node5</title>
<path fill="none" stroke="midnightblue" d="M91.95,-91.5C110.35,-83.76 134.27,-74.18 156,-67 167.05,-63.35 179.23,-59.92 190.37,-57"/>
<polygon fill="midnightblue" stroke="midnightblue" points="90.44,-88.34 82.6,-95.48 93.18,-94.78 90.44,-88.34"/>
</g>
<!-- Node6 -->
<g id="node7" class="node">
<title>Node6</title>
<g id="a_node7"><a xlink:href="classm_d_o_m_p_m_t_response.html" target="_top" xlink:title=" ">
<polygon fill="none" stroke="black" points="169.5,-0.5 169.5,-19.5 288.5,-19.5 288.5,-0.5 169.5,-0.5"/>
<text text-anchor="middle" x="229" y="-7.5" font-family="Helvetica,sans-Serif" font-size="10.00">mDOMPMTResponse</text>
</a>
</g>
</g>
<!-- Node0&#45;&gt;Node6 -->
<g id="edge6" class="edge">
<title>Node0&#45;&gt;Node6</title>
<path fill="none" stroke="midnightblue" d="M77.6,-88.06C95.45,-70.79 125.41,-44.4 156,-29 163.62,-25.16 172.1,-22.04 180.48,-19.52"/>
<polygon fill="midnightblue" stroke="midnightblue" points="74.95,-85.76 70.3,-95.28 79.87,-90.74 74.95,-85.76"/>
</g>
</g>
</svg>
