<?xml version="1.0" encoding="UTF-8" standalone="no"?>
<!DOCTYPE svg PUBLIC "-//W3C//DTD SVG 1.1//EN"
 "http://www.w3.org/Graphics/SVG/1.1/DTD/svg11.dtd">
<!-- Generated by graphviz version 2.43.0 (0)
 -->
<!-- Title: Graphical Class Hierarchy Pages: 1 -->
<svg width="504pt" height="85pt"
 viewBox="0.00 0.00 504.00 85.00" xmlns="http://www.w3.org/2000/svg" xmlns:xlink="http://www.w3.org/1999/xlink">
<g id="graph0" class="graph" transform="scale(1 1) rotate(0) translate(4 81)">
<title>Graphical Class Hierarchy</title>
<!-- Node49 -->
<g id="node1" class="node">
<title>Node49</title>
<g id="a_node1"><a xlink:title=" ">
<polygon fill="none" stroke="#bfbfbf" points="0,-38.5 0,-57.5 177,-57.5 177,-38.5 0,-38.5"/>
<text text-anchor="middle" x="88.5" y="-45.5" font-family="Helvetica,sans-Serif" font-size="10.00">G4VUserPrimaryGeneratorAction</text>
</a>
</g>
</g>
<!-- Node0 -->
<g id="node2" class="node">
<title>Node0</title>
<g id="a_node2"><a xlink:href="class_o_m_sim_primary_generator_action.html" target="_top" xlink:title=" ">
<polygon fill="none" stroke="black" points="213,-57.5 213,-76.5 383,-76.5 383,-57.5 213,-57.5"/>
<text text-anchor="middle" x="298" y="-64.5" font-family="Helvetica,sans-Serif" font-size="10.00">OMSimPrimaryGeneratorAction</text>
</a>
</g>
</g>
<!-- Node49&#45;&gt;Node0 -->
<g id="edge1" class="edge">
<title>Node49&#45;&gt;Node0</title>
<path fill="none" stroke="midnightblue" d="M187.24,-56.95C195.82,-57.74 204.46,-58.53 212.92,-59.3"/>
<polygon fill="midnightblue" stroke="midnightblue" points="187.48,-53.46 177.2,-56.03 186.84,-60.43 187.48,-53.46"/>
</g>
<!-- Node51 -->
<g id="node3" class="node">
<title>Node51</title>
<g id="a_node3"><a xlink:href="class_s_n_base_particle_generator.html" target="_top" xlink:title=" ">
<polygon fill="none" stroke="black" points="228.5,-19.5 228.5,-38.5 367.5,-38.5 367.5,-19.5 228.5,-19.5"/>
<text text-anchor="middle" x="298" y="-26.5" font-family="Helvetica,sans-Serif" font-size="10.00">SNBaseParticleGenerator</text>
</a>
</g>
</g>
<!-- Node49&#45;&gt;Node51 -->
<g id="edge2" class="edge">
<title>Node49&#45;&gt;Node51</title>
<path fill="none" stroke="midnightblue" d="M187.3,-39.05C201.22,-37.77 215.29,-36.48 228.49,-35.27"/>
<polygon fill="midnightblue" stroke="midnightblue" points="186.84,-35.57 177.2,-39.97 187.48,-42.54 186.84,-35.57"/>
</g>
<!-- Node52 -->
<g id="node4" class="node">
<title>Node52</title>
<g id="a_node4"><a xlink:href="class_o_m_sim_e_n_e_s.html" target="_top" xlink:title="Class in charge of generating electrons from Electron&#45;electron_Neutrino Elastic Scattering (ENES) nu_...">
<polygon fill="none" stroke="black" points="419,-38.5 419,-57.5 496,-57.5 496,-38.5 419,-38.5"/>
<text text-anchor="middle" x="457.5" y="-45.5" font-family="Helvetica,sans-Serif" font-size="10.00">OMSimENES</text>
</a>
</g>
</g>
<!-- Node51&#45;&gt;Node52 -->
<g id="edge3" class="edge">
<title>Node51&#45;&gt;Node52</title>
<path fill="none" stroke="midnightblue" d="M377.56,-38.48C391.94,-40.21 406.34,-41.95 418.82,-43.45"/>
<polygon fill="midnightblue" stroke="midnightblue" points="377.97,-35 367.62,-37.28 377.13,-41.95 377.97,-35"/>
</g>
<!-- Node53 -->
<g id="node5" class="node">
<title>Node53</title>
<g id="a_node5"><a xlink:href="class_o_m_sim_i_b_d.html" target="_top" xlink:title="Class in charge of generating positrons from IBD of supernova antineutrino interactions.">
<polygon fill="none" stroke="black" points="423,-0.5 423,-19.5 492,-19.5 492,-0.5 423,-0.5"/>
<text text-anchor="middle" x="457.5" y="-7.5" font-family="Helvetica,sans-Serif" font-size="10.00">OMSimIBD</text>
</a>
</g>
</g>
<!-- Node51&#45;&gt;Node53 -->
<g id="edge4" class="edge">
<title>Node51&#45;&gt;Node53</title>
<path fill="none" stroke="midnightblue" d="M377.95,-19.48C393.71,-17.57 409.46,-15.68 422.67,-14.08"/>
<polygon fill="midnightblue" stroke="midnightblue" points="377.13,-16.05 367.62,-20.72 377.97,-23 377.13,-16.05"/>
</g>
</g>
</svg>
