<?xml version="1.0" encoding="UTF-8" standalone="no"?>
<!DOCTYPE svg PUBLIC "-//W3C//DTD SVG 1.1//EN"
 "http://www.w3.org/Graphics/SVG/1.1/DTD/svg11.dtd">
<!-- Generated by graphviz version 2.43.0 (0)
 -->
<!-- Title: Graphical Class Hierarchy Pages: 1 -->
<svg width="396pt" height="218pt"
 viewBox="0.00 0.00 396.00 218.00" xmlns="http://www.w3.org/2000/svg" xmlns:xlink="http://www.w3.org/1999/xlink">
<g id="graph0" class="graph" transform="scale(1 1) rotate(0) translate(4 214)">
<title>Graphical Class Hierarchy</title>
<!-- Node0 -->
<g id="node1" class="node">
<title>Node0</title>
<g id="a_node1"><a xlink:href="classabc_detector_component.html" target="_top" xlink:title="Abstract base class used for constructing detector components.">
<polygon fill="none" stroke="black" points="0,-76.5 0,-95.5 132,-95.5 132,-76.5 0,-76.5"/>
<text text-anchor="middle" x="66" y="-83.5" font-family="Helvetica,sans-Serif" font-size="10.00">abcDetectorComponent</text>
</a>
</g>
</g>
<!-- Node1 -->
<g id="node2" class="node">
<title>Node1</title>
<g id="a_node2"><a xlink:href="class_d_egg_harness.html" target="_top" xlink:title=" ">
<polygon fill="none" stroke="black" points="194,-152.5 194,-171.5 276,-171.5 276,-152.5 194,-152.5"/>
<text text-anchor="middle" x="235" y="-159.5" font-family="Helvetica,sans-Serif" font-size="10.00">DEggHarness</text>
</a>
</g>
</g>
<!-- Node0&#45;&gt;Node1 -->
<g id="edge1" class="edge">
<title>Node0&#45;&gt;Node1</title>
<path fill="none" stroke="midnightblue" d="M90.2,-101.16C110.18,-113.71 140.11,-131.3 168,-143 176.58,-146.6 186.05,-149.77 195.09,-152.43"/>
<polygon fill="midnightblue" stroke="midnightblue" points="91.82,-98.05 81.5,-95.63 88.06,-103.95 91.82,-98.05"/>
</g>
<!-- Node2 -->
<g id="node3" class="node">
<title>Node2</title>
<g id="a_node3"><a xlink:href="class_o_m_sim_optical_module.html" target="_top" xlink:title="Base class for OMs works as interface.">
<polygon fill="none" stroke="black" points="174,-114.5 174,-133.5 296,-133.5 296,-114.5 174,-114.5"/>
<text text-anchor="middle" x="235" y="-121.5" font-family="Helvetica,sans-Serif" font-size="10.00">OMSimOpticalModule</text>
</a>
</g>
</g>
<!-- Node0&#45;&gt;Node2 -->
<g id="edge2" class="edge">
<title>Node0&#45;&gt;Node2</title>
<path fill="none" stroke="midnightblue" d="M118.96,-97.82C142.51,-103.18 169.97,-109.43 192.16,-114.48"/>
<polygon fill="midnightblue" stroke="midnightblue" points="119.67,-94.4 109.14,-95.59 118.12,-101.22 119.67,-94.4"/>
</g>
<!-- Node8 -->
<g id="node9" class="node">
<title>Node8</title>
<g id="a_node9"><a xlink:href="class_o_m_sim_p_m_t_construction.html" target="_top" xlink:title=" ">
<polygon fill="none" stroke="black" points="168,-76.5 168,-95.5 302,-95.5 302,-76.5 168,-76.5"/>
<text text-anchor="middle" x="235" y="-83.5" font-family="Helvetica,sans-Serif" font-size="10.00">OMSimPMTConstruction</text>
</a>
</g>
</g>
<!-- Node0&#45;&gt;Node8 -->
<g id="edge8" class="edge">
<title>Node0&#45;&gt;Node8</title>
<path fill="none" stroke="midnightblue" d="M142.31,-86C150.8,-86 159.4,-86 167.76,-86"/>
<polygon fill="midnightblue" stroke="midnightblue" points="142.04,-82.5 132.04,-86 142.04,-89.5 142.04,-82.5"/>
</g>
<!-- Node9 -->
<g id="node10" class="node">
<title>Node9</title>
<g id="a_node10"><a xlink:href="classm_d_o_m_flasher.html" target="_top" xlink:title="The mDOMFlasher class represents the 10 flashers in an mDOM optical module.">
<polygon fill="none" stroke="black" points="192,-38.5 192,-57.5 278,-57.5 278,-38.5 192,-38.5"/>
<text text-anchor="middle" x="235" y="-45.5" font-family="Helvetica,sans-Serif" font-size="10.00">mDOMFlasher</text>
</a>
</g>
</g>
<!-- Node0&#45;&gt;Node9 -->
<g id="edge9" class="edge">
<title>Node0&#45;&gt;Node9</title>
<path fill="none" stroke="midnightblue" d="M118.96,-74.18C142.51,-68.82 169.97,-62.57 192.16,-57.52"/>
<polygon fill="midnightblue" stroke="midnightblue" points="118.12,-70.78 109.14,-76.41 119.67,-77.6 118.12,-70.78"/>
</g>
<!-- Node10 -->
<g id="node11" class="node">
<title>Node10</title>
<g id="a_node11"><a xlink:href="classm_d_o_m_harness.html" target="_top" xlink:title=" ">
<polygon fill="none" stroke="black" points="190,-0.5 190,-19.5 280,-19.5 280,-0.5 190,-0.5"/>
<text text-anchor="middle" x="235" y="-7.5" font-family="Helvetica,sans-Serif" font-size="10.00">mDOMHarness</text>
</a>
</g>
</g>
<!-- Node0&#45;&gt;Node10 -->
<g id="edge10" class="edge">
<title>Node0&#45;&gt;Node10</title>
<path fill="none" stroke="midnightblue" d="M90.2,-70.84C110.18,-58.29 140.11,-40.7 168,-29 176.58,-25.4 186.05,-22.23 195.09,-19.57"/>
<polygon fill="midnightblue" stroke="midnightblue" points="88.06,-68.05 81.5,-76.37 91.82,-73.95 88.06,-68.05"/>
</g>
<!-- Node3 -->
<g id="node4" class="node">
<title>Node3</title>
<g id="a_node4"><a xlink:href="class_d_e_g_g.html" target="_top" xlink:title="Construction of the DEGG detector geometry.">
<polygon fill="none" stroke="black" points="340.5,-190.5 340.5,-209.5 385.5,-209.5 385.5,-190.5 340.5,-190.5"/>
<text text-anchor="middle" x="363" y="-197.5" font-family="Helvetica,sans-Serif" font-size="10.00">DEGG</text>
</a>
</g>
</g>
<!-- Node2&#45;&gt;Node3 -->
<g id="edge3" class="edge">
<title>Node2&#45;&gt;Node3</title>
<path fill="none" stroke="midnightblue" d="M290.71,-137.2C294.64,-138.91 298.45,-140.84 302,-143 321.88,-155.09 320.84,-165.3 338,-181 341.45,-184.16 345.36,-187.39 349.02,-190.27"/>
<polygon fill="midnightblue" stroke="midnightblue" points="291.97,-133.94 281.38,-133.58 289.43,-140.46 291.97,-133.94"/>
</g>
<!-- Node4 -->
<g id="node5" class="node">
<title>Node4</title>
<g id="a_node5"><a xlink:href="class_l_o_m16.html" target="_top" xlink:title=" ">
<polygon fill="none" stroke="black" points="338,-152.5 338,-171.5 388,-171.5 388,-152.5 338,-152.5"/>
<text text-anchor="middle" x="363" y="-159.5" font-family="Helvetica,sans-Serif" font-size="10.00">LOM16</text>
</a>
</g>
</g>
<!-- Node2&#45;&gt;Node4 -->
<g id="edge4" class="edge">
<title>Node2&#45;&gt;Node4</title>
<path fill="none" stroke="midnightblue" d="M279.62,-136.38C287.09,-138.55 294.78,-140.82 302,-143 313.82,-146.57 326.89,-150.69 337.81,-154.18"/>
<polygon fill="midnightblue" stroke="midnightblue" points="280.54,-133.01 269.97,-133.59 278.6,-139.73 280.54,-133.01"/>
</g>
<!-- Node5 -->
<g id="node6" class="node">
<title>Node5</title>
<g id="a_node6"><a xlink:href="class_l_o_m18.html" target="_top" xlink:title=" ">
<polygon fill="none" stroke="black" points="338,-114.5 338,-133.5 388,-133.5 388,-114.5 338,-114.5"/>
<text text-anchor="middle" x="363" y="-121.5" font-family="Helvetica,sans-Serif" font-size="10.00">LOM18</text>
</a>
</g>
</g>
<!-- Node2&#45;&gt;Node5 -->
<g id="edge5" class="edge">
<title>Node2&#45;&gt;Node5</title>
<path fill="none" stroke="midnightblue" d="M306.12,-124C317.54,-124 328.64,-124 337.9,-124"/>
<polygon fill="midnightblue" stroke="midnightblue" points="306.05,-120.5 296.05,-124 306.05,-127.5 306.05,-120.5"/>
</g>
<!-- Node6 -->
<g id="node7" class="node">
<title>Node6</title>
<g id="a_node7"><a xlink:href="classm_d_o_m.html" target="_top" xlink:title=" ">
<polygon fill="none" stroke="black" points="338,-76.5 338,-95.5 388,-95.5 388,-76.5 338,-76.5"/>
<text text-anchor="middle" x="363" y="-83.5" font-family="Helvetica,sans-Serif" font-size="10.00">mDOM</text>
</a>
</g>
</g>
<!-- Node2&#45;&gt;Node6 -->
<g id="edge6" class="edge">
<title>Node2&#45;&gt;Node6</title>
<path fill="none" stroke="midnightblue" d="M279.62,-111.62C287.09,-109.45 294.78,-107.18 302,-105 313.82,-101.43 326.89,-97.31 337.81,-93.82"/>
<polygon fill="midnightblue" stroke="midnightblue" points="278.6,-108.27 269.97,-114.41 280.54,-114.99 278.6,-108.27"/>
</g>
<!-- Node7 -->
<g id="node8" class="node">
<title>Node7</title>
<g id="a_node8"><a xlink:href="classp_d_o_m.html" target="_top" xlink:title="pDOM class represents the construction of pDOM/Gen1 DOM.">
<polygon fill="none" stroke="black" points="339.5,-38.5 339.5,-57.5 386.5,-57.5 386.5,-38.5 339.5,-38.5"/>
<text text-anchor="middle" x="363" y="-45.5" font-family="Helvetica,sans-Serif" font-size="10.00">pDOM</text>
</a>
</g>
</g>
<!-- Node2&#45;&gt;Node7 -->
<g id="edge7" class="edge">
<title>Node2&#45;&gt;Node7</title>
<path fill="none" stroke="midnightblue" d="M290.71,-110.8C294.64,-109.09 298.45,-107.16 302,-105 321.88,-92.91 320.84,-82.7 338,-67 341.45,-63.84 345.36,-60.61 349.02,-57.73"/>
<polygon fill="midnightblue" stroke="midnightblue" points="289.43,-107.54 281.38,-114.42 291.97,-114.06 289.43,-107.54"/>
</g>
</g>
</svg>
