<?xml version="1.0" encoding="UTF-8" standalone="no"?>
<!DOCTYPE svg PUBLIC "-//W3C//DTD SVG 1.1//EN"
 "http://www.w3.org/Graphics/SVG/1.1/DTD/svg11.dtd">
<!-- Generated by graphviz version 2.43.0 (0)
 -->
<!-- Title: Graphical Class Hierarchy Pages: 1 -->
<svg width="414pt" height="286pt"
 viewBox="0.00 0.00 414.00 286.00" xmlns="http://www.w3.org/2000/svg" xmlns:xlink="http://www.w3.org/1999/xlink">
<g id="graph0" class="graph" transform="scale(1 1) rotate(0) translate(4 282)">
<title>Graphical Class Hierarchy</title>
<!-- Node0 -->
<g id="Node000000" class="node">
<title>Node0</title>
<g id="a_Node000000"><a xlink:href="class_o_m_sim_detector_component.html" target="_top" xlink:title="Abstract base class used for constructing detector components.">
<polygon fill="white" stroke="#666666" points="150,-148 0,-148 0,-129 150,-129 150,-148"/>
<text text-anchor="middle" x="75" y="-136" font-family="Helvetica,sans-Serif" font-size="10.00">OMSimDetectorComponent</text>
</a>
</g>
</g>
<!-- Node1 -->
<g id="Node000001" class="node">
<title>Node1</title>
<g id="a_Node000001"><a xlink:href="class_d_egg_harness.html" target="_top" xlink:title=" ">
<polygon fill="white" stroke="#666666" points="294,-278 212,-278 212,-259 294,-259 294,-278"/>
<text text-anchor="middle" x="253" y="-266" font-family="Helvetica,sans-Serif" font-size="10.00">DEggHarness</text>
</a>
</g>
</g>
<!-- Node0&#45;&gt;Node1 -->
<g id="edge30_Node000000_Node000001" class="edge">
<title>Node0&#45;&gt;Node1</title>
<g id="a_edge30_Node000000_Node000001"><a xlink:title=" ">
<path fill="none" stroke="#63b8ff" d="M88.72,-156.47C107.27,-181.34 144.12,-225.94 186,-250.5 193.89,-255.13 203,-258.6 211.89,-261.19"/>
<polygon fill="#63b8ff" stroke="#63b8ff" points="91.46,-154.29 82.74,-148.28 85.81,-158.42 91.46,-154.29"/>
</a>
</g>
</g>
<!-- Node2 -->
<g id="Node000002" class="node">
<title>Node2</title>
<g id="a_Node000002"><a xlink:href="class_d_o_m_harness.html" target="_top" xlink:title=" ">
<polygon fill="white" stroke="#666666" points="293,-241 213,-241 213,-222 293,-222 293,-241"/>
<text text-anchor="middle" x="253" y="-229" font-family="Helvetica,sans-Serif" font-size="10.00">DOMHarness</text>
</a>
</g>
</g>
<!-- Node0&#45;&gt;Node2 -->
<g id="edge31_Node000000_Node000002" class="edge">
<title>Node0&#45;&gt;Node2</title>
<g id="a_edge31_Node000000_Node000002"><a xlink:title=" ">
<path fill="none" stroke="#63b8ff" d="M95.28,-154.6C116.34,-171.47 151.69,-197.67 186,-213.5 194.41,-217.38 203.82,-220.57 212.85,-223.12"/>
<polygon fill="#63b8ff" stroke="#63b8ff" points="97.39,-151.81 87.42,-148.22 92.97,-157.24 97.39,-151.81"/>
</a>
</g>
</g>
<!-- Node3 -->
<g id="Node000003" class="node">
<title>Node3</title>
<g id="a_Node000003"><a xlink:href="class_l_o_m16_harness.html" target="_top" xlink:title=" ">
<polygon fill="white" stroke="#666666" points="298,-204 208,-204 208,-185 298,-185 298,-204"/>
<text text-anchor="middle" x="253" y="-192" font-family="Helvetica,sans-Serif" font-size="10.00">LOM16Harness</text>
</a>
</g>
</g>
<!-- Node0&#45;&gt;Node3 -->
<g id="edge32_Node000000_Node000003" class="edge">
<title>Node0&#45;&gt;Node3</title>
<g id="a_edge32_Node000000_Node000003"><a xlink:title=" ">
<path fill="none" stroke="#63b8ff" d="M111.72,-151.51C133.15,-159.15 161,-168.78 186,-176.5 195.42,-179.41 205.67,-182.32 215.22,-184.93"/>
<polygon fill="#63b8ff" stroke="#63b8ff" points="112.66,-148.13 102.07,-148.05 110.3,-154.72 112.66,-148.13"/>
</a>
</g>
</g>
<!-- Node4 -->
<g id="Node000004" class="node">
<title>Node4</title>
<g id="a_Node000004"><a xlink:href="class_l_o_m18_harness.html" target="_top" xlink:title=" ">
<polygon fill="white" stroke="#666666" points="298,-167 208,-167 208,-148 298,-148 298,-167"/>
<text text-anchor="middle" x="253" y="-155" font-family="Helvetica,sans-Serif" font-size="10.00">LOM18Harness</text>
</a>
</g>
</g>
<!-- Node0&#45;&gt;Node4 -->
<g id="edge33_Node000000_Node000004" class="edge">
<title>Node0&#45;&gt;Node4</title>
<g id="a_edge33_Node000000_Node000004"><a xlink:title=" ">
<path fill="none" stroke="#63b8ff" d="M160.32,-147.6C176.75,-149.38 193.35,-151.17 207.82,-152.73"/>
<polygon fill="#63b8ff" stroke="#63b8ff" points="160.45,-144.1 150.13,-146.5 159.7,-151.06 160.45,-144.1"/>
</a>
</g>
</g>
<!-- Node5 -->
<g id="Node000005" class="node">
<title>Node5</title>
<g id="a_Node000005"><a xlink:href="class_o_m_sim_optical_module.html" target="_top" xlink:title="Base class for OMs works as interface.">
<polygon fill="white" stroke="#666666" points="314,-130 192,-130 192,-111 314,-111 314,-130"/>
<text text-anchor="middle" x="253" y="-118" font-family="Helvetica,sans-Serif" font-size="10.00">OMSimOpticalModule</text>
</a>
</g>
</g>
<!-- Node0&#45;&gt;Node5 -->
<g id="edge34_Node000000_Node000005" class="edge">
<title>Node0&#45;&gt;Node5</title>
<g id="a_edge34_Node000000_Node000005"><a xlink:title=" ">
<path fill="none" stroke="#63b8ff" d="M160.29,-129.88C170.94,-128.79 181.66,-127.69 191.83,-126.65"/>
<polygon fill="#63b8ff" stroke="#63b8ff" points="159.72,-126.42 150.13,-130.92 160.43,-133.38 159.72,-126.42"/>
</a>
</g>
</g>
<!-- Node11 -->
<g id="Node000011" class="node">
<title>Node11</title>
<g id="a_Node000011"><a xlink:href="class_o_m_sim_p_m_t_construction.html" target="_top" xlink:title=" ">
<polygon fill="white" stroke="#666666" points="320,-93 186,-93 186,-74 320,-74 320,-93"/>
<text text-anchor="middle" x="253" y="-81" font-family="Helvetica,sans-Serif" font-size="10.00">OMSimPMTConstruction</text>
</a>
</g>
</g>
<!-- Node0&#45;&gt;Node11 -->
<g id="edge40_Node000000_Node000011" class="edge">
<title>Node0&#45;&gt;Node11</title>
<g id="a_edge40_Node000000_Node000011"><a xlink:title=" ">
<path fill="none" stroke="#63b8ff" d="M113.98,-125.7C135.13,-118.66 161.96,-109.89 186,-102.5 196.37,-99.31 207.71,-95.99 218.02,-93.03"/>
<polygon fill="#63b8ff" stroke="#63b8ff" points="112.78,-122.41 104.4,-128.89 114.99,-129.05 112.78,-122.41"/>
</a>
</g>
</g>
<!-- Node12 -->
<g id="Node000012" class="node">
<title>Node12</title>
<g id="a_Node000012"><a xlink:href="classm_d_o_m_flasher.html" target="_top" xlink:title="The mDOMFlasher class represents the 10 flashers in an mDOM optical module.">
<polygon fill="white" stroke="#666666" points="296,-56 210,-56 210,-37 296,-37 296,-56"/>
<text text-anchor="middle" x="253" y="-44" font-family="Helvetica,sans-Serif" font-size="10.00">mDOMFlasher</text>
</a>
</g>
</g>
<!-- Node0&#45;&gt;Node12 -->
<g id="edge41_Node000000_Node000012" class="edge">
<title>Node0&#45;&gt;Node12</title>
<g id="a_edge41_Node000000_Node000012"><a xlink:title=" ">
<path fill="none" stroke="#63b8ff" d="M95.74,-122.68C116.94,-106.36 152.17,-81.14 186,-65.5 194.01,-61.8 202.9,-58.65 211.5,-56.04"/>
<polygon fill="#63b8ff" stroke="#63b8ff" points="93.54,-119.96 87.81,-128.88 97.84,-125.48 93.54,-119.96"/>
</a>
</g>
</g>
<!-- Node13 -->
<g id="Node000013" class="node">
<title>Node13</title>
<g id="a_Node000013"><a xlink:href="classm_d_o_m_harness.html" target="_top" xlink:title=" ">
<polygon fill="white" stroke="#666666" points="298,-19 208,-19 208,0 298,0 298,-19"/>
<text text-anchor="middle" x="253" y="-7" font-family="Helvetica,sans-Serif" font-size="10.00">mDOMHarness</text>
</a>
</g>
</g>
<!-- Node0&#45;&gt;Node13 -->
<g id="edge42_Node000000_Node000013" class="edge">
<title>Node0&#45;&gt;Node13</title>
<g id="a_edge42_Node000000_Node000013"><a xlink:title=" ">
<path fill="none" stroke="#63b8ff" d="M88.76,-120.69C107.35,-96.05 144.26,-51.85 186,-27.5 192.67,-23.61 200.21,-20.54 207.74,-18.11"/>
<polygon fill="#63b8ff" stroke="#63b8ff" points="85.88,-118.69 82.76,-128.81 91.52,-122.85 85.88,-118.69"/>
</a>
</g>
</g>
<!-- Node6 -->
<g id="Node000006" class="node">
<title>Node6</title>
<g id="a_Node000006"><a xlink:href="class_d_e_g_g.html" target="_top" xlink:title=" ">
<polygon fill="white" stroke="#666666" points="403.5,-204 358.5,-204 358.5,-185 403.5,-185 403.5,-204"/>
<text text-anchor="middle" x="381" y="-192" font-family="Helvetica,sans-Serif" font-size="10.00">DEGG</text>
</a>
</g>
</g>
<!-- Node5&#45;&gt;Node6 -->
<g id="edge35_Node000005_Node000006" class="edge">
<title>Node5&#45;&gt;Node6</title>
<g id="a_edge35_Node000005_Node000006"><a xlink:title=" ">
<path fill="none" stroke="#63b8ff" d="M308.48,-133.67C312.49,-135.39 316.38,-137.33 320,-139.5 339.68,-151.29 338.77,-161.35 356,-176.5 359.29,-179.39 363,-182.32 366.51,-184.95"/>
<polygon fill="#63b8ff" stroke="#63b8ff" points="309.58,-130.34 298.99,-130.03 307.07,-136.88 309.58,-130.34"/>
</a>
</g>
</g>
<!-- Node7 -->
<g id="Node000007" class="node">
<title>Node7</title>
<g id="a_Node000007"><a xlink:href="class_d_o_m.html" target="_top" xlink:title="DOM class represents the construction of pDOM (deepcore) or Gen1 DOM.">
<polygon fill="white" stroke="#666666" points="401.5,-167 360.5,-167 360.5,-148 401.5,-148 401.5,-167"/>
<text text-anchor="middle" x="381" y="-155" font-family="Helvetica,sans-Serif" font-size="10.00">DOM</text>
</a>
</g>
</g>
<!-- Node5&#45;&gt;Node7 -->
<g id="edge36_Node000005_Node000007" class="edge">
<title>Node5&#45;&gt;Node7</title>
<g id="a_edge36_Node000005_Node000007"><a xlink:title=" ">
<path fill="none" stroke="#63b8ff" d="M297.34,-132.9C304.9,-135.09 312.68,-137.35 320,-139.5 333.46,-143.46 348.59,-148 360.29,-151.53"/>
<polygon fill="#63b8ff" stroke="#63b8ff" points="298.18,-129.5 287.6,-130.09 296.24,-136.23 298.18,-129.5"/>
</a>
</g>
</g>
<!-- Node8 -->
<g id="Node000008" class="node">
<title>Node8</title>
<g id="a_Node000008"><a xlink:href="class_l_o_m16.html" target="_top" xlink:title=" ">
<polygon fill="white" stroke="#666666" points="406,-130 356,-130 356,-111 406,-111 406,-130"/>
<text text-anchor="middle" x="381" y="-118" font-family="Helvetica,sans-Serif" font-size="10.00">LOM16</text>
</a>
</g>
</g>
<!-- Node5&#45;&gt;Node8 -->
<g id="edge37_Node000005_Node000008" class="edge">
<title>Node5&#45;&gt;Node8</title>
<g id="a_edge37_Node000005_Node000008"><a xlink:title=" ">
<path fill="none" stroke="#63b8ff" d="M324.12,-120.5C335.54,-120.5 346.64,-120.5 355.9,-120.5"/>
<polygon fill="#63b8ff" stroke="#63b8ff" points="324.05,-117 314.05,-120.5 324.05,-124 324.05,-117"/>
</a>
</g>
</g>
<!-- Node9 -->
<g id="Node000009" class="node">
<title>Node9</title>
<g id="a_Node000009"><a xlink:href="class_l_o_m18.html" target="_top" xlink:title=" ">
<polygon fill="white" stroke="#666666" points="406,-93 356,-93 356,-74 406,-74 406,-93"/>
<text text-anchor="middle" x="381" y="-81" font-family="Helvetica,sans-Serif" font-size="10.00">LOM18</text>
</a>
</g>
</g>
<!-- Node5&#45;&gt;Node9 -->
<g id="edge38_Node000005_Node000009" class="edge">
<title>Node5&#45;&gt;Node9</title>
<g id="a_edge38_Node000005_Node000009"><a xlink:title=" ">
<path fill="none" stroke="#63b8ff" d="M299.83,-108.26C306.61,-106.37 313.49,-104.42 320,-102.5 331.84,-99.01 344.92,-94.9 355.84,-91.4"/>
<polygon fill="#63b8ff" stroke="#63b8ff" points="298.75,-104.92 290.04,-110.95 300.61,-111.67 298.75,-104.92"/>
</a>
</g>
</g>
<!-- Node10 -->
<g id="Node000010" class="node">
<title>Node10</title>
<g id="a_Node000010"><a xlink:href="classm_d_o_m.html" target="_top" xlink:title=" ">
<polygon fill="white" stroke="#666666" points="406,-56 356,-56 356,-37 406,-37 406,-56"/>
<text text-anchor="middle" x="381" y="-44" font-family="Helvetica,sans-Serif" font-size="10.00">mDOM</text>
</a>
</g>
</g>
<!-- Node5&#45;&gt;Node10 -->
<g id="edge39_Node000005_Node000010" class="edge">
<title>Node5&#45;&gt;Node10</title>
<g id="a_edge39_Node000005_Node000010"><a xlink:title=" ">
<path fill="none" stroke="#63b8ff" d="M310.99,-107.12C314.11,-105.72 317.14,-104.19 320,-102.5 339.77,-90.85 338.97,-80.88 356,-65.5 359.47,-62.37 363.39,-59.14 367.04,-56.26"/>
<polygon fill="#63b8ff" stroke="#63b8ff" points="309.43,-103.97 301.42,-110.89 312,-110.48 309.43,-103.97"/>
</a>
</g>
</g>
</g>
</svg>
