<?xml version="1.0" encoding="UTF-8" standalone="no"?>
<!DOCTYPE svg PUBLIC "-//W3C//DTD SVG 1.1//EN"
 "http://www.w3.org/Graphics/SVG/1.1/DTD/svg11.dtd">
<!-- Generated by graphviz version 2.43.0 (0)
 -->
<!-- Title: Graphical Class Hierarchy Pages: 1 -->
<svg width="557pt" height="138pt"
 viewBox="0.00 0.00 557.00 138.00" xmlns="http://www.w3.org/2000/svg" xmlns:xlink="http://www.w3.org/1999/xlink">
<g id="graph0" class="graph" transform="scale(1 1) rotate(0) translate(4 134)">
<title>Graphical Class Hierarchy</title>
<!-- Node0 -->
<g id="Node000000" class="node">
<title>Node0</title>
<g id="a_Node000000"><a xlink:title=" ">
<polygon fill="#e0e0e0" stroke="#999999" points="163,-74 0,-74 0,-55 163,-55 163,-74"/>
<text text-anchor="middle" x="81.5" y="-62" font-family="Helvetica,sans-Serif" font-size="10.00">G4VUserDetectorConstruction</text>
</a>
</g>
</g>
<!-- Node1 -->
<g id="Node000001" class="node">
<title>Node1</title>
<g id="a_Node000001"><a xlink:href="class_o_m_sim_detector_construction.html" target="_top" xlink:title="Class for detector construction in the effective area simulation.">
<polygon fill="white" stroke="#666666" points="354,-74 199,-74 199,-55 354,-55 354,-74"/>
<text text-anchor="middle" x="276.5" y="-62" font-family="Helvetica,sans-Serif" font-size="10.00">OMSimDetectorConstruction</text>
</a>
</g>
</g>
<!-- Node0&#45;&gt;Node1 -->
<g id="edge19_Node000000_Node000001" class="edge">
<title>Node0&#45;&gt;Node1</title>
<g id="a_edge19_Node000000_Node000001"><a xlink:title=" ">
<path fill="none" stroke="#63b8ff" d="M173.51,-64.5C181.97,-64.5 190.48,-64.5 198.8,-64.5"/>
<polygon fill="#63b8ff" stroke="#63b8ff" points="173.23,-61 163.23,-64.5 173.23,-68 173.23,-61"/>
</a>
</g>
</g>
<!-- Node2 -->
<g id="Node000002" class="node">
<title>Node2</title>
<g id="a_Node000002"><a xlink:href="class_o_m_sim_effective_area_detector.html" target="_top" xlink:title="Class for detector construction in the effective area simulation.">
<polygon fill="white" stroke="#666666" points="549,-130 390,-130 390,-111 549,-111 549,-130"/>
<text text-anchor="middle" x="469.5" y="-118" font-family="Helvetica,sans-Serif" font-size="10.00">OMSimEffectiveAreaDetector</text>
</a>
</g>
</g>
<!-- Node1&#45;&gt;Node2 -->
<g id="edge20_Node000001_Node000002" class="edge">
<title>Node1&#45;&gt;Node2</title>
<g id="a_edge20_Node000001_Node000002"><a xlink:title=" ">
<path fill="none" stroke="#63b8ff" d="M313.21,-77.59C335.19,-85.38 364.02,-95.15 390,-102.5 400.76,-105.54 412.47,-108.44 423.47,-110.99"/>
<polygon fill="#63b8ff" stroke="#63b8ff" points="314.23,-74.23 303.63,-74.16 311.87,-80.82 314.23,-74.23"/>
</a>
</g>
</g>
<!-- Node3 -->
<g id="Node000003" class="node">
<title>Node3</title>
<g id="a_Node000003"><a xlink:href="class_o_m_sim_effi_cali_detector.html" target="_top" xlink:title=" ">
<polygon fill="white" stroke="#666666" points="533.5,-93 405.5,-93 405.5,-74 533.5,-74 533.5,-93"/>
<text text-anchor="middle" x="469.5" y="-81" font-family="Helvetica,sans-Serif" font-size="10.00">OMSimEffiCaliDetector</text>
</a>
</g>
</g>
<!-- Node1&#45;&gt;Node3 -->
<g id="edge21_Node000001_Node000003" class="edge">
<title>Node1&#45;&gt;Node3</title>
<g id="a_edge21_Node000001_Node000003"><a xlink:title=" ">
<path fill="none" stroke="#63b8ff" d="M364.14,-73.12C378.03,-74.5 392.17,-75.91 405.37,-77.22"/>
<polygon fill="#63b8ff" stroke="#63b8ff" points="364.38,-69.63 354.09,-72.12 363.69,-76.59 364.38,-69.63"/>
</a>
</g>
</g>
<!-- Node4 -->
<g id="Node000004" class="node">
<title>Node4</title>
<g id="a_Node000004"><a xlink:href="class_o_m_sim_rad_decays_detector.html" target="_top" xlink:title="Detector construction of radioactive decays simulation.">
<polygon fill="white" stroke="#666666" points="544,-56 395,-56 395,-37 544,-37 544,-56"/>
<text text-anchor="middle" x="469.5" y="-44" font-family="Helvetica,sans-Serif" font-size="10.00">OMSimRadDecaysDetector</text>
</a>
</g>
</g>
<!-- Node1&#45;&gt;Node4 -->
<g id="edge22_Node000001_Node000004" class="edge">
<title>Node1&#45;&gt;Node4</title>
<g id="a_edge22_Node000001_Node000004"><a xlink:title=" ">
<path fill="none" stroke="#63b8ff" d="M364.21,-56.33C374.39,-55.37 384.71,-54.4 394.69,-53.46"/>
<polygon fill="#63b8ff" stroke="#63b8ff" points="363.71,-52.86 354.09,-57.28 364.37,-59.83 363.71,-52.86"/>
</a>
</g>
</g>
<!-- Node5 -->
<g id="Node000005" class="node">
<title>Node5</title>
<g id="a_Node000005"><a xlink:href="class_o_m_sim_s_ndetector.html" target="_top" xlink:title="Class for detector construction in the SN neutrino simulation.">
<polygon fill="white" stroke="#666666" points="522.5,-19 416.5,-19 416.5,0 522.5,0 522.5,-19"/>
<text text-anchor="middle" x="469.5" y="-7" font-family="Helvetica,sans-Serif" font-size="10.00">OMSimSNdetector</text>
</a>
</g>
</g>
<!-- Node1&#45;&gt;Node5 -->
<g id="edge23_Node000001_Node000005" class="edge">
<title>Node1&#45;&gt;Node5</title>
<g id="a_edge23_Node000001_Node000005"><a xlink:title=" ">
<path fill="none" stroke="#63b8ff" d="M315.06,-51.73C336.83,-44.52 364.83,-35.56 390,-28.5 401.88,-25.17 414.87,-21.88 426.8,-19"/>
<polygon fill="#63b8ff" stroke="#63b8ff" points="313.91,-48.42 305.53,-54.91 316.13,-55.07 313.91,-48.42"/>
</a>
</g>
</g>
</g>
</svg>
