<?xml version="1.0" encoding="UTF-8" standalone="no"?>
<!DOCTYPE svg PUBLIC "-//W3C//DTD SVG 1.1//EN"
 "http://www.w3.org/Graphics/SVG/1.1/DTD/svg11.dtd">
<!-- Generated by graphviz version 2.43.0 (0)
 -->
<!-- Title: Graphical Class Hierarchy Pages: 1 -->
<svg width="414pt" height="212pt"
 viewBox="0.00 0.00 414.00 212.00" xmlns="http://www.w3.org/2000/svg" xmlns:xlink="http://www.w3.org/1999/xlink">
<g id="graph0" class="graph" transform="scale(1 1) rotate(0) translate(4 208)">
<title>Graphical Class Hierarchy</title>
<!-- Node0 -->
<g id="Node000000" class="node">
<title>Node0</title>
<g id="a_Node000000"><a xlink:href="class_o_m_sim_detector_component.html" target="_top" xlink:title="Abstract base class used for constructing detector components.">
<polygon fill="white" stroke="#666666" points="150,-93 0,-93 0,-74 150,-74 150,-93"/>
<text text-anchor="middle" x="75" y="-81" font-family="Helvetica,sans-Serif" font-size="10.00">OMSimDetectorComponent</text>
</a>
</g>
</g>
<!-- Node1 -->
<g id="Node000001" class="node">
<title>Node1</title>
<g id="a_Node000001"><a xlink:href="class_d_egg_harness.html" target="_top" xlink:title=" ">
<polygon fill="white" stroke="#666666" points="294,-167 212,-167 212,-148 294,-148 294,-167"/>
<text text-anchor="middle" x="253" y="-155" font-family="Helvetica,sans-Serif" font-size="10.00">DEggHarness</text>
</a>
</g>
</g>
<!-- Node0&#45;&gt;Node1 -->
<g id="edge28_Node000000_Node000001" class="edge">
<title>Node0&#45;&gt;Node1</title>
<g id="a_edge28_Node000000_Node000001"><a xlink:title=" ">
<path fill="none" stroke="#63b8ff" d="M101.23,-98.22C123.1,-110.52 155.87,-127.86 186,-139.5 194.2,-142.67 203.17,-145.51 211.79,-147.94"/>
<polygon fill="#63b8ff" stroke="#63b8ff" points="102.71,-95.04 92.29,-93.13 99.24,-101.12 102.71,-95.04"/>
</a>
</g>
</g>
<!-- Node2 -->
<g id="Node000002" class="node">
<title>Node2</title>
<g id="a_Node000002"><a xlink:href="class_o_m_sim_optical_module.html" target="_top" xlink:title="Base class for OMs works as interface.">
<polygon fill="white" stroke="#666666" points="314,-130 192,-130 192,-111 314,-111 314,-130"/>
<text text-anchor="middle" x="253" y="-118" font-family="Helvetica,sans-Serif" font-size="10.00">OMSimOpticalModule</text>
</a>
</g>
</g>
<!-- Node0&#45;&gt;Node2 -->
<g id="edge29_Node000000_Node000002" class="edge">
<title>Node0&#45;&gt;Node2</title>
<g id="a_edge29_Node000000_Node000002"><a xlink:title=" ">
<path fill="none" stroke="#63b8ff" d="M131.43,-95.15C155.6,-100.23 183.6,-106.12 206.52,-110.94"/>
<polygon fill="#63b8ff" stroke="#63b8ff" points="131.83,-91.66 121.32,-93.03 130.39,-98.51 131.83,-91.66"/>
</a>
</g>
</g>
<!-- Node8 -->
<g id="Node000008" class="node">
<title>Node8</title>
<g id="a_Node000008"><a xlink:href="class_o_m_sim_p_m_t_construction.html" target="_top" xlink:title=" ">
<polygon fill="white" stroke="#666666" points="320,-93 186,-93 186,-74 320,-74 320,-93"/>
<text text-anchor="middle" x="253" y="-81" font-family="Helvetica,sans-Serif" font-size="10.00">OMSimPMTConstruction</text>
</a>
</g>
</g>
<!-- Node0&#45;&gt;Node8 -->
<g id="edge35_Node000000_Node000008" class="edge">
<title>Node0&#45;&gt;Node8</title>
<g id="a_edge35_Node000000_Node000008"><a xlink:title=" ">
<path fill="none" stroke="#63b8ff" d="M160.18,-83.5C168.78,-83.5 177.42,-83.5 185.79,-83.5"/>
<polygon fill="#63b8ff" stroke="#63b8ff" points="160.13,-80 150.13,-83.5 160.13,-87 160.13,-80"/>
</a>
</g>
</g>
<!-- Node9 -->
<g id="Node000009" class="node">
<title>Node9</title>
<g id="a_Node000009"><a xlink:href="classm_d_o_m_flasher.html" target="_top" xlink:title="The mDOMFlasher class represents the 10 flashers in an mDOM optical module.">
<polygon fill="white" stroke="#666666" points="296,-56 210,-56 210,-37 296,-37 296,-56"/>
<text text-anchor="middle" x="253" y="-44" font-family="Helvetica,sans-Serif" font-size="10.00">mDOMFlasher</text>
</a>
</g>
</g>
<!-- Node0&#45;&gt;Node9 -->
<g id="edge36_Node000000_Node000009" class="edge">
<title>Node0&#45;&gt;Node9</title>
<g id="a_edge36_Node000000_Node000009"><a xlink:title=" ">
<path fill="none" stroke="#63b8ff" d="M131.19,-71.9C156.6,-66.55 186.27,-60.32 209.85,-55.36"/>
<polygon fill="#63b8ff" stroke="#63b8ff" points="130.39,-68.49 121.32,-73.97 131.83,-75.34 130.39,-68.49"/>
</a>
</g>
</g>
<!-- Node10 -->
<g id="Node000010" class="node">
<title>Node10</title>
<g id="a_Node000010"><a xlink:href="classm_d_o_m_harness.html" target="_top" xlink:title=" ">
<polygon fill="white" stroke="#666666" points="298,-19 208,-19 208,0 298,0 298,-19"/>
<text text-anchor="middle" x="253" y="-7" font-family="Helvetica,sans-Serif" font-size="10.00">mDOMHarness</text>
</a>
</g>
</g>
<!-- Node0&#45;&gt;Node10 -->
<g id="edge37_Node000000_Node000010" class="edge">
<title>Node0&#45;&gt;Node10</title>
<g id="a_edge37_Node000000_Node000010"><a xlink:title=" ">
<path fill="none" stroke="#63b8ff" d="M101.23,-68.78C123.1,-56.48 155.87,-39.14 186,-27.5 194.2,-24.33 203.17,-21.49 211.79,-19.06"/>
<polygon fill="#63b8ff" stroke="#63b8ff" points="99.24,-65.88 92.29,-73.87 102.71,-71.96 99.24,-65.88"/>
</a>
</g>
</g>
<!-- Node3 -->
<g id="Node000003" class="node">
<title>Node3</title>
<g id="a_Node000003"><a xlink:href="class_d_e_g_g.html" target="_top" xlink:title="Construction of the DEGG detector geometry.">
<polygon fill="white" stroke="#666666" points="403.5,-204 358.5,-204 358.5,-185 403.5,-185 403.5,-204"/>
<text text-anchor="middle" x="381" y="-192" font-family="Helvetica,sans-Serif" font-size="10.00">DEGG</text>
</a>
</g>
</g>
<!-- Node2&#45;&gt;Node3 -->
<g id="edge30_Node000002_Node000003" class="edge">
<title>Node2&#45;&gt;Node3</title>
<g id="a_edge30_Node000002_Node000003"><a xlink:title=" ">
<path fill="none" stroke="#63b8ff" d="M308.48,-133.67C312.49,-135.39 316.38,-137.33 320,-139.5 339.68,-151.29 338.77,-161.35 356,-176.5 359.29,-179.39 363,-182.32 366.51,-184.95"/>
<polygon fill="#63b8ff" stroke="#63b8ff" points="309.58,-130.34 298.99,-130.03 307.07,-136.88 309.58,-130.34"/>
</a>
</g>
</g>
<!-- Node4 -->
<g id="Node000004" class="node">
<title>Node4</title>
<g id="a_Node000004"><a xlink:href="class_d_o_m.html" target="_top" xlink:title="DOM class represents the construction of pDOM (deepcore) or Gen1 DOM.">
<polygon fill="white" stroke="#666666" points="401.5,-167 360.5,-167 360.5,-148 401.5,-148 401.5,-167"/>
<text text-anchor="middle" x="381" y="-155" font-family="Helvetica,sans-Serif" font-size="10.00">DOM</text>
</a>
</g>
</g>
<!-- Node2&#45;&gt;Node4 -->
<g id="edge31_Node000002_Node000004" class="edge">
<title>Node2&#45;&gt;Node4</title>
<g id="a_edge31_Node000002_Node000004"><a xlink:title=" ">
<path fill="none" stroke="#63b8ff" d="M297.34,-132.9C304.9,-135.09 312.68,-137.35 320,-139.5 333.46,-143.46 348.59,-148 360.29,-151.53"/>
<polygon fill="#63b8ff" stroke="#63b8ff" points="298.18,-129.5 287.6,-130.09 296.24,-136.23 298.18,-129.5"/>
</a>
</g>
</g>
<!-- Node5 -->
<g id="Node000005" class="node">
<title>Node5</title>
<g id="a_Node000005"><a xlink:href="class_l_o_m16.html" target="_top" xlink:title=" ">
<polygon fill="white" stroke="#666666" points="406,-130 356,-130 356,-111 406,-111 406,-130"/>
<text text-anchor="middle" x="381" y="-118" font-family="Helvetica,sans-Serif" font-size="10.00">LOM16</text>
</a>
</g>
</g>
<!-- Node2&#45;&gt;Node5 -->
<g id="edge32_Node000002_Node000005" class="edge">
<title>Node2&#45;&gt;Node5</title>
<g id="a_edge32_Node000002_Node000005"><a xlink:title=" ">
<path fill="none" stroke="#63b8ff" d="M324.12,-120.5C335.54,-120.5 346.64,-120.5 355.9,-120.5"/>
<polygon fill="#63b8ff" stroke="#63b8ff" points="324.05,-117 314.05,-120.5 324.05,-124 324.05,-117"/>
</a>
</g>
</g>
<!-- Node6 -->
<g id="Node000006" class="node">
<title>Node6</title>
<g id="a_Node000006"><a xlink:href="class_l_o_m18.html" target="_top" xlink:title=" ">
<polygon fill="white" stroke="#666666" points="406,-93 356,-93 356,-74 406,-74 406,-93"/>
<text text-anchor="middle" x="381" y="-81" font-family="Helvetica,sans-Serif" font-size="10.00">LOM18</text>
</a>
</g>
</g>
<!-- Node2&#45;&gt;Node6 -->
<g id="edge33_Node000002_Node000006" class="edge">
<title>Node2&#45;&gt;Node6</title>
<g id="a_edge33_Node000002_Node000006"><a xlink:title=" ">
<path fill="none" stroke="#63b8ff" d="M299.83,-108.26C306.61,-106.37 313.49,-104.42 320,-102.5 331.84,-99.01 344.92,-94.9 355.84,-91.4"/>
<polygon fill="#63b8ff" stroke="#63b8ff" points="298.75,-104.92 290.04,-110.95 300.61,-111.67 298.75,-104.92"/>
</a>
</g>
</g>
<!-- Node7 -->
<g id="Node000007" class="node">
<title>Node7</title>
<g id="a_Node000007"><a xlink:href="classm_d_o_m.html" target="_top" xlink:title=" ">
<polygon fill="white" stroke="#666666" points="406,-56 356,-56 356,-37 406,-37 406,-56"/>
<text text-anchor="middle" x="381" y="-44" font-family="Helvetica,sans-Serif" font-size="10.00">mDOM</text>
</a>
</g>
</g>
<!-- Node2&#45;&gt;Node7 -->
<g id="edge34_Node000002_Node000007" class="edge">
<title>Node2&#45;&gt;Node7</title>
<g id="a_edge34_Node000002_Node000007"><a xlink:title=" ">
<path fill="none" stroke="#63b8ff" d="M310.99,-107.12C314.11,-105.72 317.14,-104.19 320,-102.5 339.77,-90.85 338.97,-80.88 356,-65.5 359.47,-62.37 363.39,-59.14 367.04,-56.26"/>
<polygon fill="#63b8ff" stroke="#63b8ff" points="309.43,-103.97 301.42,-110.89 312,-110.48 309.43,-103.97"/>
</a>
</g>
</g>
</g>
</svg>
