<?xml version="1.0" encoding="UTF-8" standalone="no"?>
<!DOCTYPE svg PUBLIC "-//W3C//DTD SVG 1.1//EN"
 "http://www.w3.org/Graphics/SVG/1.1/DTD/svg11.dtd">
<!-- Generated by graphviz version 2.43.0 (0)
 -->
<!-- Title: Graphical Class Hierarchy Pages: 1 -->
<svg width="504pt" height="82pt"
 viewBox="0.00 0.00 504.00 82.00" xmlns="http://www.w3.org/2000/svg" xmlns:xlink="http://www.w3.org/1999/xlink">
<g id="graph0" class="graph" transform="scale(1 1) rotate(0) translate(4 78)">
<title>Graphical Class Hierarchy</title>
<!-- Node0 -->
<g id="Node000000" class="node">
<title>Node0</title>
<g id="a_Node000000"><a xlink:title=" ">
<polygon fill="#e0e0e0" stroke="#999999" points="177,-55 0,-55 0,-36 177,-36 177,-55"/>
<text text-anchor="middle" x="88.5" y="-43" font-family="Helvetica,sans-Serif" font-size="10.00">G4VUserPrimaryGeneratorAction</text>
</a>
</g>
</g>
<!-- Node1 -->
<g id="Node000001" class="node">
<title>Node1</title>
<g id="a_Node000001"><a xlink:href="class_o_m_sim_primary_generator_action.html" target="_top" xlink:title=" ">
<polygon fill="white" stroke="#666666" points="383,-74 213,-74 213,-55 383,-55 383,-74"/>
<text text-anchor="middle" x="298" y="-62" font-family="Helvetica,sans-Serif" font-size="10.00">OMSimPrimaryGeneratorAction</text>
</a>
</g>
</g>
<!-- Node0&#45;&gt;Node1 -->
<g id="edge25_Node000000_Node000001" class="edge">
<title>Node0&#45;&gt;Node1</title>
<g id="a_edge25_Node000000_Node000001"><a xlink:title=" ">
<path fill="none" stroke="#63b8ff" d="M187.24,-54.45C195.82,-55.24 204.46,-56.03 212.92,-56.8"/>
<polygon fill="#63b8ff" stroke="#63b8ff" points="187.48,-50.96 177.2,-53.53 186.84,-57.93 187.48,-50.96"/>
</a>
</g>
</g>
<!-- Node2 -->
<g id="Node000002" class="node">
<title>Node2</title>
<g id="a_Node000002"><a xlink:href="class_s_n_base_particle_generator.html" target="_top" xlink:title=" ">
<polygon fill="white" stroke="#666666" points="367.5,-37 228.5,-37 228.5,-18 367.5,-18 367.5,-37"/>
<text text-anchor="middle" x="298" y="-25" font-family="Helvetica,sans-Serif" font-size="10.00">SNBaseParticleGenerator</text>
</a>
</g>
</g>
<!-- Node0&#45;&gt;Node2 -->
<g id="edge26_Node000000_Node000002" class="edge">
<title>Node0&#45;&gt;Node2</title>
<g id="a_edge26_Node000000_Node000002"><a xlink:title=" ">
<path fill="none" stroke="#63b8ff" d="M187.3,-37.02C201.22,-35.81 215.29,-34.59 228.49,-33.44"/>
<polygon fill="#63b8ff" stroke="#63b8ff" points="186.86,-33.54 177.2,-37.89 187.46,-40.52 186.86,-33.54"/>
</a>
</g>
</g>
<!-- Node3 -->
<g id="Node000003" class="node">
<title>Node3</title>
<g id="a_Node000003"><a xlink:href="class_o_m_sim_e_n_e_s.html" target="_top" xlink:title="Class in charge of generating electrons from Electron&#45;electron_Neutrino Elastic Scattering (ENES) nu_...">
<polygon fill="white" stroke="#666666" points="496,-56 419,-56 419,-37 496,-37 496,-56"/>
<text text-anchor="middle" x="457.5" y="-44" font-family="Helvetica,sans-Serif" font-size="10.00">OMSimENES</text>
</a>
</g>
</g>
<!-- Node2&#45;&gt;Node3 -->
<g id="edge27_Node000002_Node000003" class="edge">
<title>Node2&#45;&gt;Node3</title>
<g id="a_edge27_Node000002_Node000003"><a xlink:title=" ">
<path fill="none" stroke="#63b8ff" d="M377.56,-36.98C391.94,-38.71 406.34,-40.45 418.82,-41.95"/>
<polygon fill="#63b8ff" stroke="#63b8ff" points="377.97,-33.5 367.62,-35.78 377.13,-40.45 377.97,-33.5"/>
</a>
</g>
</g>
<!-- Node4 -->
<g id="Node000004" class="node">
<title>Node4</title>
<g id="a_Node000004"><a xlink:href="class_o_m_sim_i_b_d.html" target="_top" xlink:title="Class in charge of generating positrons from IBD of supernova antineutrino interactions.">
<polygon fill="white" stroke="#666666" points="492,-19 423,-19 423,0 492,0 492,-19"/>
<text text-anchor="middle" x="457.5" y="-7" font-family="Helvetica,sans-Serif" font-size="10.00">OMSimIBD</text>
</a>
</g>
</g>
<!-- Node2&#45;&gt;Node4 -->
<g id="edge28_Node000002_Node000004" class="edge">
<title>Node2&#45;&gt;Node4</title>
<g id="a_edge28_Node000002_Node000004"><a xlink:title=" ">
<path fill="none" stroke="#63b8ff" d="M377.95,-18.48C393.71,-16.68 409.46,-14.88 422.67,-13.37"/>
<polygon fill="#63b8ff" stroke="#63b8ff" points="377.16,-15.04 367.62,-19.66 377.96,-22 377.16,-15.04"/>
</a>
</g>
</g>
</g>
</svg>
