<?xml version="1.0" encoding="UTF-8" standalone="no"?>
<!DOCTYPE svg PUBLIC "-//W3C//DTD SVG 1.1//EN"
 "http://www.w3.org/Graphics/SVG/1.1/DTD/svg11.dtd">
<!-- Generated by graphviz version 2.43.0 (0)
 -->
<!-- Title: OMSimEventAction.cc Pages: 1 -->
<svg width="888pt" height="207pt"
 viewBox="0.00 0.00 887.50 207.00" xmlns="http://www.w3.org/2000/svg" xmlns:xlink="http://www.w3.org/1999/xlink">
<g id="graph0" class="graph" transform="scale(1 1) rotate(0) translate(4 203)">
<title>OMSimEventAction.cc</title>
<polygon fill="white" stroke="transparent" points="-4,4 -4,-203 883.5,-203 883.5,4 -4,4"/>
<!-- Node1 -->
<g id="node1" class="node">
<title>Node1</title>
<g id="a_node1"><a xlink:title=" ">
<polygon fill="#bfbfbf" stroke="black" points="439.5,-179.5 439.5,-198.5 563.5,-198.5 563.5,-179.5 439.5,-179.5"/>
<text text-anchor="middle" x="501.5" y="-186.5" font-family="Helvetica,sans-Serif" font-size="10.00">OMSimEventAction.cc</text>
</a>
</g>
</g>
<!-- Node2 -->
<g id="node2" class="node">
<title>Node2</title>
<g id="a_node2"><a xlink:title=" ">
<polygon fill="white" stroke="#bfbfbf" points="145,-123.5 145,-142.5 270,-142.5 270,-123.5 145,-123.5"/>
<text text-anchor="middle" x="207.5" y="-130.5" font-family="Helvetica,sans-Serif" font-size="10.00">OMSimEventAction.hh</text>
</a>
</g>
</g>
<!-- Node1&#45;&gt;Node2 -->
<g id="edge1" class="edge">
<title>Node1&#45;&gt;Node2</title>
<path fill="none" stroke="midnightblue" d="M454.91,-179.44C403.09,-169.92 319.37,-154.55 263.88,-144.36"/>
<polygon fill="midnightblue" stroke="midnightblue" points="264.34,-140.88 253.87,-142.52 263.07,-147.77 264.34,-140.88"/>
</g>
<!-- Node3 -->
<g id="node3" class="node">
<title>Node3</title>
<g id="a_node3"><a xlink:href="_o_m_sim_decays_analysis_8hh.html" target="_top" xlink:title="Defines the OMSimDecaysAnalysis class and DecayStats struct for the radioactive decays simulation.">
<polygon fill="white" stroke="black" points="429.5,-123.5 429.5,-142.5 573.5,-142.5 573.5,-123.5 429.5,-123.5"/>
<text text-anchor="middle" x="501.5" y="-130.5" font-family="Helvetica,sans-Serif" font-size="10.00">OMSimDecaysAnalysis.hh</text>
</a>
</g>
</g>
<!-- Node1&#45;&gt;Node3 -->
<g id="edge2" class="edge">
<title>Node1&#45;&gt;Node3</title>
<path fill="none" stroke="midnightblue" d="M501.5,-179.08C501.5,-172.01 501.5,-161.86 501.5,-152.99"/>
<polygon fill="midnightblue" stroke="midnightblue" points="505,-152.75 501.5,-142.75 498,-152.75 505,-152.75"/>
</g>
<!-- Node6 -->
<g id="node6" class="node">
<title>Node6</title>
<g id="a_node6"><a xlink:href="_o_m_sim_command_args_table_8hh.html" target="_top" xlink:title="Definition of the OMSimCommandArgsTable singleton class, which controls user args.">
<polygon fill="white" stroke="black" points="591.5,-123.5 591.5,-142.5 755.5,-142.5 755.5,-123.5 591.5,-123.5"/>
<text text-anchor="middle" x="673.5" y="-130.5" font-family="Helvetica,sans-Serif" font-size="10.00">OMSimCommandArgsTable.hh</text>
</a>
</g>
</g>
<!-- Node1&#45;&gt;Node6 -->
<g id="edge5" class="edge">
<title>Node1&#45;&gt;Node6</title>
<path fill="none" stroke="midnightblue" d="M528.75,-179.44C557.94,-170.28 604.42,-155.69 636.81,-145.52"/>
<polygon fill="midnightblue" stroke="midnightblue" points="637.88,-148.85 646.37,-142.52 635.78,-142.17 637.88,-148.85"/>
</g>
<!-- Node14 -->
<g id="node14" class="node">
<title>Node14</title>
<g id="a_node14"><a xlink:href="_o_m_sim_hit_manager_8hh.html" target="_top" xlink:title="Defines structures and classes related to optical module photon hit management.">
<polygon fill="white" stroke="black" points="288,-123.5 288,-142.5 411,-142.5 411,-123.5 288,-123.5"/>
<text text-anchor="middle" x="349.5" y="-130.5" font-family="Helvetica,sans-Serif" font-size="10.00">OMSimHitManager.hh</text>
</a>
</g>
</g>
<!-- Node1&#45;&gt;Node14 -->
<g id="edge14" class="edge">
<title>Node1&#45;&gt;Node14</title>
<path fill="none" stroke="midnightblue" d="M477.42,-179.44C451.96,-170.4 411.61,-156.06 383.04,-145.92"/>
<polygon fill="midnightblue" stroke="midnightblue" points="384.07,-142.57 373.47,-142.52 381.72,-149.16 384.07,-142.57"/>
</g>
<!-- Node21 -->
<g id="node21" class="node">
<title>Node21</title>
<g id="a_node21"><a xlink:title=" ">
<polygon fill="white" stroke="#bfbfbf" points="773.5,-123.5 773.5,-142.5 879.5,-142.5 879.5,-123.5 773.5,-123.5"/>
<text text-anchor="middle" x="826.5" y="-130.5" font-family="Helvetica,sans-Serif" font-size="10.00">G4RunManager.hh</text>
</a>
</g>
</g>
<!-- Node1&#45;&gt;Node21 -->
<g id="edge23" class="edge">
<title>Node1&#45;&gt;Node21</title>
<path fill="none" stroke="midnightblue" d="M553,-179.44C610.64,-169.87 703.99,-154.36 765.31,-144.17"/>
<polygon fill="midnightblue" stroke="midnightblue" points="765.95,-147.61 775.24,-142.52 764.81,-140.7 765.95,-147.61"/>
</g>
<!-- Node4 -->
<g id="node4" class="node">
<title>Node4</title>
<g id="a_node4"><a xlink:title=" ">
<polygon fill="white" stroke="#bfbfbf" points="325,-67.5 325,-86.5 428,-86.5 428,-67.5 325,-67.5"/>
<text text-anchor="middle" x="376.5" y="-74.5" font-family="Helvetica,sans-Serif" font-size="10.00">G4ThreeVector.hh</text>
</a>
</g>
</g>
<!-- Node3&#45;&gt;Node4 -->
<g id="edge3" class="edge">
<title>Node3&#45;&gt;Node4</title>
<path fill="none" stroke="midnightblue" d="M481.69,-123.44C461.21,-114.6 429.02,-100.69 405.64,-90.59"/>
<polygon fill="midnightblue" stroke="midnightblue" points="406.78,-87.27 396.21,-86.52 404.01,-93.7 406.78,-87.27"/>
</g>
<!-- Node5 -->
<g id="node5" class="node">
<title>Node5</title>
<g id="a_node5"><a xlink:title=" ">
<polygon fill="white" stroke="#bfbfbf" points="474,-67.5 474,-86.5 529,-86.5 529,-67.5 474,-67.5"/>
<text text-anchor="middle" x="501.5" y="-74.5" font-family="Helvetica,sans-Serif" font-size="10.00">fstream</text>
</a>
</g>
</g>
<!-- Node3&#45;&gt;Node5 -->
<g id="edge4" class="edge">
<title>Node3&#45;&gt;Node5</title>
<path fill="none" stroke="midnightblue" d="M501.5,-123.08C501.5,-116.01 501.5,-105.86 501.5,-96.99"/>
<polygon fill="midnightblue" stroke="midnightblue" points="505,-96.75 501.5,-86.75 498,-96.75 505,-96.75"/>
</g>
<!-- Node6&#45;&gt;Node5 -->
<g id="edge11" class="edge">
<title>Node6&#45;&gt;Node5</title>
<path fill="none" stroke="midnightblue" d="M646.25,-123.44C617.06,-114.28 570.58,-99.69 538.19,-89.52"/>
<polygon fill="midnightblue" stroke="midnightblue" points="539.22,-86.17 528.63,-86.52 537.12,-92.85 539.22,-86.17"/>
</g>
<!-- Node7 -->
<g id="node7" class="node">
<title>Node7</title>
<g id="a_node7"><a xlink:href="_o_m_sim_logger_8hh.html" target="_top" xlink:title=" ">
<polygon fill="white" stroke="black" points="548,-67.5 548,-86.5 647,-86.5 647,-67.5 548,-67.5"/>
<text text-anchor="middle" x="597.5" y="-74.5" font-family="Helvetica,sans-Serif" font-size="10.00">OMSimLogger.hh</text>
</a>
</g>
</g>
<!-- Node6&#45;&gt;Node7 -->
<g id="edge6" class="edge">
<title>Node6&#45;&gt;Node7</title>
<path fill="none" stroke="midnightblue" d="M661.29,-123.32C649.72,-115.11 632.12,-102.6 618.34,-92.81"/>
<polygon fill="midnightblue" stroke="midnightblue" points="620.11,-89.77 609.93,-86.83 616.06,-95.48 620.11,-89.77"/>
</g>
<!-- Node12 -->
<g id="node12" class="node">
<title>Node12</title>
<g id="a_node12"><a xlink:title=" ">
<polygon fill="white" stroke="#bfbfbf" points="665.5,-67.5 665.5,-86.5 749.5,-86.5 749.5,-67.5 665.5,-67.5"/>
<text text-anchor="middle" x="707.5" y="-74.5" font-family="Helvetica,sans-Serif" font-size="10.00">boost/any.hpp</text>
</a>
</g>
</g>
<!-- Node6&#45;&gt;Node12 -->
<g id="edge12" class="edge">
<title>Node6&#45;&gt;Node12</title>
<path fill="none" stroke="midnightblue" d="M679.11,-123.08C683.87,-115.53 690.82,-104.49 696.65,-95.23"/>
<polygon fill="midnightblue" stroke="midnightblue" points="699.62,-97.08 701.99,-86.75 693.7,-93.35 699.62,-97.08"/>
</g>
<!-- Node13 -->
<g id="node13" class="node">
<title>Node13</title>
<g id="a_node13"><a xlink:title=" ">
<polygon fill="white" stroke="#bfbfbf" points="767.5,-67.5 767.5,-86.5 835.5,-86.5 835.5,-67.5 767.5,-67.5"/>
<text text-anchor="middle" x="801.5" y="-74.5" font-family="Helvetica,sans-Serif" font-size="10.00">sys/time.h</text>
</a>
</g>
</g>
<!-- Node6&#45;&gt;Node13 -->
<g id="edge13" class="edge">
<title>Node6&#45;&gt;Node13</title>
<path fill="none" stroke="midnightblue" d="M693.78,-123.44C714.85,-114.56 748.02,-100.56 771.99,-90.45"/>
<polygon fill="midnightblue" stroke="midnightblue" points="773.46,-93.63 781.31,-86.52 770.74,-87.18 773.46,-93.63"/>
</g>
<!-- Node8 -->
<g id="node8" class="node">
<title>Node8</title>
<g id="a_node8"><a xlink:title=" ">
<polygon fill="white" stroke="#bfbfbf" points="551,-6 551,-25 644,-25 644,-6 551,-6"/>
<text text-anchor="middle" x="597.5" y="-13" font-family="Helvetica,sans-Serif" font-size="10.00">spdlog/spdlog.h</text>
</a>
</g>
</g>
<!-- Node7&#45;&gt;Node8 -->
<g id="edge7" class="edge">
<title>Node7&#45;&gt;Node8</title>
<path fill="none" stroke="midnightblue" d="M597.5,-67.48C597.5,-59.08 597.5,-45.98 597.5,-35.16"/>
<polygon fill="midnightblue" stroke="midnightblue" points="601,-35.01 597.5,-25.01 594,-35.01 601,-35.01"/>
</g>
<!-- Node9 -->
<g id="node9" class="node">
<title>Node9</title>
<g id="a_node9"><a xlink:title=" ">
<polygon fill="white" stroke="#bfbfbf" points="662,-0.5 662,-30.5 773,-30.5 773,-0.5 662,-0.5"/>
<text text-anchor="start" x="670" y="-18.5" font-family="Helvetica,sans-Serif" font-size="10.00">spdlog/sinks/stdout</text>
<text text-anchor="middle" x="717.5" y="-7.5" font-family="Helvetica,sans-Serif" font-size="10.00">_color_sinks.h</text>
</a>
</g>
</g>
<!-- Node7&#45;&gt;Node9 -->
<g id="edge8" class="edge">
<title>Node7&#45;&gt;Node9</title>
<path fill="none" stroke="midnightblue" d="M614.69,-67.48C631.7,-59.04 658.3,-45.86 680.17,-35.01"/>
<polygon fill="midnightblue" stroke="midnightblue" points="681.81,-38.1 689.22,-30.52 678.7,-31.83 681.81,-38.1"/>
</g>
<!-- Node10 -->
<g id="node10" class="node">
<title>Node10</title>
<g id="a_node10"><a xlink:title=" ">
<polygon fill="white" stroke="#bfbfbf" points="791.5,-6 791.5,-25 849.5,-25 849.5,-6 791.5,-6"/>
<text text-anchor="middle" x="820.5" y="-13" font-family="Helvetica,sans-Serif" font-size="10.00">memory</text>
</a>
</g>
</g>
<!-- Node7&#45;&gt;Node10 -->
<g id="edge9" class="edge">
<title>Node7&#45;&gt;Node10</title>
<path fill="none" stroke="midnightblue" d="M639.05,-67.46C676.82,-59.33 733.89,-46.12 782.5,-31 784.92,-30.25 787.41,-29.42 789.89,-28.56"/>
<polygon fill="midnightblue" stroke="midnightblue" points="791.16,-31.82 799.36,-25.11 788.77,-25.24 791.16,-31.82"/>
</g>
<!-- Node11 -->
<g id="node11" class="node">
<title>Node11</title>
<g id="a_node11"><a xlink:title=" ">
<polygon fill="white" stroke="#bfbfbf" points="434.5,-6 434.5,-25 532.5,-25 532.5,-6 434.5,-6"/>
<text text-anchor="middle" x="483.5" y="-13" font-family="Helvetica,sans-Serif" font-size="10.00">spdlog/fmt/fmt.h</text>
</a>
</g>
</g>
<!-- Node7&#45;&gt;Node11 -->
<g id="edge10" class="edge">
<title>Node7&#45;&gt;Node11</title>
<path fill="none" stroke="midnightblue" d="M581.17,-67.48C562.29,-57.62 530.99,-41.29 508.92,-29.77"/>
<polygon fill="midnightblue" stroke="midnightblue" points="510.29,-26.53 499.8,-25.01 507.05,-32.74 510.29,-26.53"/>
</g>
<!-- Node14&#45;&gt;Node4 -->
<g id="edge21" class="edge">
<title>Node14&#45;&gt;Node4</title>
<path fill="none" stroke="midnightblue" d="M353.96,-123.08C357.65,-115.69 363.02,-104.95 367.59,-95.81"/>
<polygon fill="midnightblue" stroke="midnightblue" points="370.78,-97.26 372.12,-86.75 364.52,-94.13 370.78,-97.26"/>
</g>
<!-- Node14&#45;&gt;Node5 -->
<g id="edge22" class="edge">
<title>Node14&#45;&gt;Node5</title>
<path fill="none" stroke="midnightblue" d="M373.58,-123.44C399.04,-114.4 439.39,-100.06 467.96,-89.92"/>
<polygon fill="midnightblue" stroke="midnightblue" points="469.28,-93.16 477.53,-86.52 466.93,-86.57 469.28,-93.16"/>
</g>
<!-- Node15 -->
<g id="node15" class="node">
<title>Node15</title>
<g id="a_node15"><a xlink:href="_o_m_sim_p_m_t_response_8hh.html" target="_top" xlink:title="Provides simulation for PMT response. This class is responsible for transforming hits on photocathode...">
<polygon fill="white" stroke="black" points="170,-67.5 170,-86.5 305,-86.5 305,-67.5 170,-67.5"/>
<text text-anchor="middle" x="237.5" y="-74.5" font-family="Helvetica,sans-Serif" font-size="10.00">OMSimPMTResponse.hh</text>
</a>
</g>
</g>
<!-- Node14&#45;&gt;Node15 -->
<g id="edge15" class="edge">
<title>Node14&#45;&gt;Node15</title>
<path fill="none" stroke="midnightblue" d="M331.51,-123.32C313.46,-114.62 285.45,-101.12 264.7,-91.11"/>
<polygon fill="midnightblue" stroke="midnightblue" points="265.98,-87.84 255.45,-86.65 262.94,-94.15 265.98,-87.84"/>
</g>
<!-- Node16 -->
<g id="node16" class="node">
<title>Node16</title>
<g id="a_node16"><a xlink:title=" ">
<polygon fill="white" stroke="#bfbfbf" points="150,-6 150,-25 269,-25 269,-6 150,-6"/>
<text text-anchor="middle" x="209.5" y="-13" font-family="Helvetica,sans-Serif" font-size="10.00">G4SystemOfUnits.hh</text>
</a>
</g>
</g>
<!-- Node15&#45;&gt;Node16 -->
<g id="edge16" class="edge">
<title>Node15&#45;&gt;Node16</title>
<path fill="none" stroke="midnightblue" d="M233.49,-67.48C229.41,-58.82 222.98,-45.15 217.8,-34.15"/>
<polygon fill="midnightblue" stroke="midnightblue" points="220.93,-32.57 213.5,-25.01 214.6,-35.55 220.93,-32.57"/>
</g>
<!-- Node17 -->
<g id="node17" class="node">
<title>Node17</title>
<g id="a_node17"><a xlink:title=" ">
<polygon fill="white" stroke="#bfbfbf" points="287,-6 287,-25 360,-25 360,-6 287,-6"/>
<text text-anchor="middle" x="323.5" y="-13" font-family="Helvetica,sans-Serif" font-size="10.00">G4Types.hh</text>
</a>
</g>
</g>
<!-- Node15&#45;&gt;Node17 -->
<g id="edge17" class="edge">
<title>Node15&#45;&gt;Node17</title>
<path fill="none" stroke="midnightblue" d="M249.82,-67.48C263.62,-57.93 286.2,-42.31 302.73,-30.87"/>
<polygon fill="midnightblue" stroke="midnightblue" points="304.97,-33.58 311.2,-25.01 300.99,-27.82 304.97,-33.58"/>
</g>
<!-- Node18 -->
<g id="node18" class="node">
<title>Node18</title>
<g id="a_node18"><a xlink:title=" ">
<polygon fill="white" stroke="#bfbfbf" points="378.5,-6 378.5,-25 416.5,-25 416.5,-6 378.5,-6"/>
<text text-anchor="middle" x="397.5" y="-13" font-family="Helvetica,sans-Serif" font-size="10.00">map</text>
</a>
</g>
</g>
<!-- Node15&#45;&gt;Node18 -->
<g id="edge18" class="edge">
<title>Node15&#45;&gt;Node18</title>
<path fill="none" stroke="midnightblue" d="M265.76,-67.49C292.57,-59.14 333.8,-45.56 368.5,-31 369.7,-30.5 370.91,-29.97 372.14,-29.42"/>
<polygon fill="midnightblue" stroke="midnightblue" points="373.89,-32.46 381.42,-25.01 370.88,-26.14 373.89,-32.46"/>
</g>
<!-- Node19 -->
<g id="node19" class="node">
<title>Node19</title>
<g id="a_node19"><a xlink:title=" ">
<polygon fill="white" stroke="#bfbfbf" points="0,-6 0,-25 61,-25 61,-6 0,-6"/>
<text text-anchor="middle" x="30.5" y="-13" font-family="Helvetica,sans-Serif" font-size="10.00">TGraph.h</text>
</a>
</g>
</g>
<!-- Node15&#45;&gt;Node19 -->
<g id="edge19" class="edge">
<title>Node15&#45;&gt;Node19</title>
<path fill="none" stroke="midnightblue" d="M201.82,-67.48C167.62,-59.07 114.66,-45.41 69.5,-31 67.09,-30.23 64.61,-29.4 62.13,-28.54"/>
<polygon fill="midnightblue" stroke="midnightblue" points="63.24,-25.22 52.65,-25.15 60.88,-31.81 63.24,-25.22"/>
</g>
<!-- Node20 -->
<g id="node20" class="node">
<title>Node20</title>
<g id="a_node20"><a xlink:title=" ">
<polygon fill="white" stroke="#bfbfbf" points="79,-6 79,-25 132,-25 132,-6 79,-6"/>
<text text-anchor="middle" x="105.5" y="-13" font-family="Helvetica,sans-Serif" font-size="10.00">TH2D.h</text>
</a>
</g>
</g>
<!-- Node15&#45;&gt;Node20 -->
<g id="edge20" class="edge">
<title>Node15&#45;&gt;Node20</title>
<path fill="none" stroke="midnightblue" d="M218.59,-67.48C196.34,-57.45 159.19,-40.7 133.57,-29.15"/>
<polygon fill="midnightblue" stroke="midnightblue" points="134.93,-25.93 124.38,-25.01 132.06,-32.31 134.93,-25.93"/>
</g>
</g>
</svg>
