<?xml version="1.0" encoding="UTF-8" standalone="no"?>
<!DOCTYPE svg PUBLIC "-//W3C//DTD SVG 1.1//EN"
 "http://www.w3.org/Graphics/SVG/1.1/DTD/svg11.dtd">
<!-- Generated by graphviz version 2.43.0 (0)
 -->
<!-- Title: OMSimEventAction.cc Pages: 1 -->
<svg width="1261pt" height="263pt"
 viewBox="0.00 0.00 1260.50 263.00" xmlns="http://www.w3.org/2000/svg" xmlns:xlink="http://www.w3.org/1999/xlink">
<g id="graph0" class="graph" transform="scale(1 1) rotate(0) translate(4 259)">
<title>OMSimEventAction.cc</title>
<polygon fill="white" stroke="transparent" points="-4,4 -4,-259 1256.5,-259 1256.5,4 -4,4"/>
<!-- Node1 -->
<g id="node1" class="node">
<title>Node1</title>
<g id="a_node1"><a xlink:title=" ">
<polygon fill="#bfbfbf" stroke="black" points="764.5,-235.5 764.5,-254.5 888.5,-254.5 888.5,-235.5 764.5,-235.5"/>
<text text-anchor="middle" x="826.5" y="-242.5" font-family="Helvetica,sans-Serif" font-size="10.00">OMSimEventAction.cc</text>
</a>
</g>
</g>
<!-- Node2 -->
<g id="node2" class="node">
<title>Node2</title>
<g id="a_node2"><a xlink:title=" ">
<polygon fill="white" stroke="#bfbfbf" points="470,-179.5 470,-198.5 595,-198.5 595,-179.5 470,-179.5"/>
<text text-anchor="middle" x="532.5" y="-186.5" font-family="Helvetica,sans-Serif" font-size="10.00">OMSimEventAction.hh</text>
</a>
</g>
</g>
<!-- Node1&#45;&gt;Node2 -->
<g id="edge1" class="edge">
<title>Node1&#45;&gt;Node2</title>
<path fill="none" stroke="midnightblue" d="M779.91,-235.44C728.09,-225.92 644.37,-210.55 588.88,-200.36"/>
<polygon fill="midnightblue" stroke="midnightblue" points="589.34,-196.88 578.87,-198.52 588.07,-203.77 589.34,-196.88"/>
</g>
<!-- Node3 -->
<g id="node3" class="node">
<title>Node3</title>
<g id="a_node3"><a xlink:href="_o_m_sim_decays_analysis_8hh.html" target="_top" xlink:title="Defines the OMSimDecaysAnalysis class and DecayStats struct for the radioactive decays simulation.">
<polygon fill="white" stroke="black" points="754.5,-179.5 754.5,-198.5 898.5,-198.5 898.5,-179.5 754.5,-179.5"/>
<text text-anchor="middle" x="826.5" y="-186.5" font-family="Helvetica,sans-Serif" font-size="10.00">OMSimDecaysAnalysis.hh</text>
</a>
</g>
</g>
<!-- Node1&#45;&gt;Node3 -->
<g id="edge2" class="edge">
<title>Node1&#45;&gt;Node3</title>
<path fill="none" stroke="midnightblue" d="M826.5,-235.08C826.5,-228.01 826.5,-217.86 826.5,-208.99"/>
<polygon fill="midnightblue" stroke="midnightblue" points="830,-208.75 826.5,-198.75 823,-208.75 830,-208.75"/>
</g>
<!-- Node6 -->
<g id="node6" class="node">
<title>Node6</title>
<g id="a_node6"><a xlink:href="_o_m_sim_command_args_table_8hh.html" target="_top" xlink:title="Definition of the OMSimCommandArgsTable singleton class, which controls user args.">
<polygon fill="white" stroke="black" points="916.5,-179.5 916.5,-198.5 1080.5,-198.5 1080.5,-179.5 916.5,-179.5"/>
<text text-anchor="middle" x="998.5" y="-186.5" font-family="Helvetica,sans-Serif" font-size="10.00">OMSimCommandArgsTable.hh</text>
</a>
</g>
</g>
<!-- Node1&#45;&gt;Node6 -->
<g id="edge5" class="edge">
<title>Node1&#45;&gt;Node6</title>
<path fill="none" stroke="midnightblue" d="M853.75,-235.44C882.94,-226.28 929.42,-211.69 961.81,-201.52"/>
<polygon fill="midnightblue" stroke="midnightblue" points="962.88,-204.85 971.37,-198.52 960.78,-198.17 962.88,-204.85"/>
</g>
<!-- Node14 -->
<g id="node14" class="node">
<title>Node14</title>
<g id="a_node14"><a xlink:href="_o_m_sim_hit_manager_8hh.html" target="_top" xlink:title="Defines structures and classes related to optical module photon hit management.">
<polygon fill="white" stroke="black" points="613,-179.5 613,-198.5 736,-198.5 736,-179.5 613,-179.5"/>
<text text-anchor="middle" x="674.5" y="-186.5" font-family="Helvetica,sans-Serif" font-size="10.00">OMSimHitManager.hh</text>
</a>
</g>
</g>
<!-- Node1&#45;&gt;Node14 -->
<g id="edge14" class="edge">
<title>Node1&#45;&gt;Node14</title>
<path fill="none" stroke="midnightblue" d="M802.42,-235.44C776.96,-226.4 736.61,-212.06 708.04,-201.92"/>
<polygon fill="midnightblue" stroke="midnightblue" points="709.07,-198.57 698.47,-198.52 706.72,-205.16 709.07,-198.57"/>
</g>
<!-- Node25 -->
<g id="node25" class="node">
<title>Node25</title>
<g id="a_node25"><a xlink:title=" ">
<polygon fill="white" stroke="#bfbfbf" points="1098.5,-179.5 1098.5,-198.5 1204.5,-198.5 1204.5,-179.5 1098.5,-179.5"/>
<text text-anchor="middle" x="1151.5" y="-186.5" font-family="Helvetica,sans-Serif" font-size="10.00">G4RunManager.hh</text>
</a>
</g>
</g>
<!-- Node1&#45;&gt;Node25 -->
<g id="edge29" class="edge">
<title>Node1&#45;&gt;Node25</title>
<path fill="none" stroke="midnightblue" d="M878,-235.44C935.64,-225.87 1028.99,-210.36 1090.31,-200.17"/>
<polygon fill="midnightblue" stroke="midnightblue" points="1090.95,-203.61 1100.24,-198.52 1089.81,-196.7 1090.95,-203.61"/>
</g>
<!-- Node4 -->
<g id="node4" class="node">
<title>Node4</title>
<g id="a_node4"><a xlink:title=" ">
<polygon fill="white" stroke="#bfbfbf" points="716,-62 716,-81 819,-81 819,-62 716,-62"/>
<text text-anchor="middle" x="767.5" y="-69" font-family="Helvetica,sans-Serif" font-size="10.00">G4ThreeVector.hh</text>
</a>
</g>
</g>
<!-- Node3&#45;&gt;Node4 -->
<g id="edge3" class="edge">
<title>Node3&#45;&gt;Node4</title>
<path fill="none" stroke="midnightblue" d="M818.01,-179.38C809.96,-170.79 798.01,-156.91 790.5,-143 781.53,-126.39 775.29,-105.68 771.6,-91.01"/>
<polygon fill="midnightblue" stroke="midnightblue" points="774.97,-90.07 769.26,-81.15 768.16,-91.68 774.97,-90.07"/>
</g>
<!-- Node5 -->
<g id="node5" class="node">
<title>Node5</title>
<g id="a_node5"><a xlink:title=" ">
<polygon fill="white" stroke="#bfbfbf" points="799,-123.5 799,-142.5 854,-142.5 854,-123.5 799,-123.5"/>
<text text-anchor="middle" x="826.5" y="-130.5" font-family="Helvetica,sans-Serif" font-size="10.00">fstream</text>
</a>
</g>
</g>
<!-- Node3&#45;&gt;Node5 -->
<g id="edge4" class="edge">
<title>Node3&#45;&gt;Node5</title>
<path fill="none" stroke="midnightblue" d="M826.5,-179.08C826.5,-172.01 826.5,-161.86 826.5,-152.99"/>
<polygon fill="midnightblue" stroke="midnightblue" points="830,-152.75 826.5,-142.75 823,-152.75 830,-152.75"/>
</g>
<!-- Node6&#45;&gt;Node5 -->
<g id="edge11" class="edge">
<title>Node6&#45;&gt;Node5</title>
<path fill="none" stroke="midnightblue" d="M971.25,-179.44C942.06,-170.28 895.58,-155.69 863.19,-145.52"/>
<polygon fill="midnightblue" stroke="midnightblue" points="864.22,-142.17 853.63,-142.52 862.12,-148.85 864.22,-142.17"/>
</g>
<!-- Node7 -->
<g id="node7" class="node">
<title>Node7</title>
<g id="a_node7"><a xlink:href="_o_m_sim_logger_8hh.html" target="_top" xlink:title=" ">
<polygon fill="white" stroke="black" points="949,-123.5 949,-142.5 1048,-142.5 1048,-123.5 949,-123.5"/>
<text text-anchor="middle" x="998.5" y="-130.5" font-family="Helvetica,sans-Serif" font-size="10.00">OMSimLogger.hh</text>
</a>
</g>
</g>
<!-- Node6&#45;&gt;Node7 -->
<g id="edge6" class="edge">
<title>Node6&#45;&gt;Node7</title>
<path fill="none" stroke="midnightblue" d="M998.5,-179.08C998.5,-172.01 998.5,-161.86 998.5,-152.99"/>
<polygon fill="midnightblue" stroke="midnightblue" points="1002,-152.75 998.5,-142.75 995,-152.75 1002,-152.75"/>
</g>
<!-- Node12 -->
<g id="node12" class="node">
<title>Node12</title>
<g id="a_node12"><a xlink:title=" ">
<polygon fill="white" stroke="#bfbfbf" points="1066.5,-123.5 1066.5,-142.5 1150.5,-142.5 1150.5,-123.5 1066.5,-123.5"/>
<text text-anchor="middle" x="1108.5" y="-130.5" font-family="Helvetica,sans-Serif" font-size="10.00">boost/any.hpp</text>
</a>
</g>
</g>
<!-- Node6&#45;&gt;Node12 -->
<g id="edge12" class="edge">
<title>Node6&#45;&gt;Node12</title>
<path fill="none" stroke="midnightblue" d="M1016.17,-179.32C1033.89,-170.62 1061.4,-157.12 1081.79,-147.11"/>
<polygon fill="midnightblue" stroke="midnightblue" points="1083.44,-150.2 1090.87,-142.65 1080.35,-143.92 1083.44,-150.2"/>
</g>
<!-- Node13 -->
<g id="node13" class="node">
<title>Node13</title>
<g id="a_node13"><a xlink:title=" ">
<polygon fill="white" stroke="#bfbfbf" points="1168.5,-123.5 1168.5,-142.5 1236.5,-142.5 1236.5,-123.5 1168.5,-123.5"/>
<text text-anchor="middle" x="1202.5" y="-130.5" font-family="Helvetica,sans-Serif" font-size="10.00">sys/time.h</text>
</a>
</g>
</g>
<!-- Node6&#45;&gt;Node13 -->
<g id="edge13" class="edge">
<title>Node6&#45;&gt;Node13</title>
<path fill="none" stroke="midnightblue" d="M1030.82,-179.44C1065.89,-170.16 1122,-155.31 1160.46,-145.13"/>
<polygon fill="midnightblue" stroke="midnightblue" points="1161.56,-148.46 1170.33,-142.52 1159.76,-141.69 1161.56,-148.46"/>
</g>
<!-- Node8 -->
<g id="node8" class="node">
<title>Node8</title>
<g id="a_node8"><a xlink:title=" ">
<polygon fill="white" stroke="#bfbfbf" points="954,-62 954,-81 1047,-81 1047,-62 954,-62"/>
<text text-anchor="middle" x="1000.5" y="-69" font-family="Helvetica,sans-Serif" font-size="10.00">spdlog/spdlog.h</text>
</a>
</g>
</g>
<!-- Node7&#45;&gt;Node8 -->
<g id="edge7" class="edge">
<title>Node7&#45;&gt;Node8</title>
<path fill="none" stroke="midnightblue" d="M998.79,-123.48C999.07,-115.08 999.51,-101.98 999.87,-91.16"/>
<polygon fill="midnightblue" stroke="midnightblue" points="1003.38,-91.12 1000.21,-81.01 996.38,-90.89 1003.38,-91.12"/>
</g>
<!-- Node9 -->
<g id="node9" class="node">
<title>Node9</title>
<g id="a_node9"><a xlink:title=" ">
<polygon fill="white" stroke="#bfbfbf" points="1065,-56.5 1065,-86.5 1176,-86.5 1176,-56.5 1065,-56.5"/>
<text text-anchor="start" x="1073" y="-74.5" font-family="Helvetica,sans-Serif" font-size="10.00">spdlog/sinks/stdout</text>
<text text-anchor="middle" x="1120.5" y="-63.5" font-family="Helvetica,sans-Serif" font-size="10.00">_color_sinks.h</text>
</a>
</g>
</g>
<!-- Node7&#45;&gt;Node9 -->
<g id="edge8" class="edge">
<title>Node7&#45;&gt;Node9</title>
<path fill="none" stroke="midnightblue" d="M1015.98,-123.48C1033.27,-115.04 1060.31,-101.86 1082.55,-91.01"/>
<polygon fill="midnightblue" stroke="midnightblue" points="1084.29,-94.05 1091.75,-86.52 1081.22,-87.76 1084.29,-94.05"/>
</g>
<!-- Node10 -->
<g id="node10" class="node">
<title>Node10</title>
<g id="a_node10"><a xlink:title=" ">
<polygon fill="white" stroke="#bfbfbf" points="1194.5,-62 1194.5,-81 1252.5,-81 1252.5,-62 1194.5,-62"/>
<text text-anchor="middle" x="1223.5" y="-69" font-family="Helvetica,sans-Serif" font-size="10.00">memory</text>
</a>
</g>
</g>
<!-- Node7&#45;&gt;Node10 -->
<g id="edge9" class="edge">
<title>Node7&#45;&gt;Node10</title>
<path fill="none" stroke="midnightblue" d="M1040.88,-123.43C1079.06,-115.32 1136.54,-102.16 1185.5,-87 1187.92,-86.25 1190.41,-85.43 1192.9,-84.56"/>
<polygon fill="midnightblue" stroke="midnightblue" points="1194.17,-87.83 1202.36,-81.12 1191.77,-81.25 1194.17,-87.83"/>
</g>
<!-- Node11 -->
<g id="node11" class="node">
<title>Node11</title>
<g id="a_node11"><a xlink:title=" ">
<polygon fill="white" stroke="#bfbfbf" points="837.5,-62 837.5,-81 935.5,-81 935.5,-62 837.5,-62"/>
<text text-anchor="middle" x="886.5" y="-69" font-family="Helvetica,sans-Serif" font-size="10.00">spdlog/fmt/fmt.h</text>
</a>
</g>
</g>
<!-- Node7&#45;&gt;Node11 -->
<g id="edge10" class="edge">
<title>Node7&#45;&gt;Node11</title>
<path fill="none" stroke="midnightblue" d="M982.45,-123.48C963.91,-113.62 933.16,-97.29 911.48,-85.77"/>
<polygon fill="midnightblue" stroke="midnightblue" points="912.99,-82.61 902.52,-81.01 909.71,-88.79 912.99,-82.61"/>
</g>
<!-- Node14&#45;&gt;Node4 -->
<g id="edge27" class="edge">
<title>Node14&#45;&gt;Node4</title>
<path fill="none" stroke="midnightblue" d="M681.49,-179.32C696.91,-160.17 734.05,-114.04 754.11,-89.13"/>
<polygon fill="midnightblue" stroke="midnightblue" points="756.88,-91.27 760.43,-81.28 751.43,-86.88 756.88,-91.27"/>
</g>
<!-- Node14&#45;&gt;Node5 -->
<g id="edge28" class="edge">
<title>Node14&#45;&gt;Node5</title>
<path fill="none" stroke="midnightblue" d="M698.58,-179.44C724.04,-170.4 764.39,-156.06 792.96,-145.92"/>
<polygon fill="midnightblue" stroke="midnightblue" points="794.28,-149.16 802.53,-142.52 791.93,-142.57 794.28,-149.16"/>
</g>
<!-- Node15 -->
<g id="node15" class="node">
<title>Node15</title>
<g id="a_node15"><a xlink:href="_o_m_sim_p_m_t_response_8hh.html" target="_top" xlink:title="Provides simulation for PMT response. This class is responsible for transforming hits on photocathode...">
<polygon fill="white" stroke="black" points="180,-62 180,-81 315,-81 315,-62 180,-62"/>
<text text-anchor="middle" x="247.5" y="-69" font-family="Helvetica,sans-Serif" font-size="10.00">OMSimPMTResponse.hh</text>
</a>
</g>
</g>
<!-- Node14&#45;&gt;Node15 -->
<g id="edge15" class="edge">
<title>Node14&#45;&gt;Node15</title>
<path fill="none" stroke="midnightblue" d="M619.62,-179.48C573.11,-171.71 504.87,-159.01 446.5,-143 385.66,-126.31 316.67,-100.2 278,-84.87"/>
<polygon fill="midnightblue" stroke="midnightblue" points="278.97,-81.49 268.38,-81.04 276.37,-87.99 278.97,-81.49"/>
</g>
<!-- Node21 -->
<g id="node21" class="node">
<title>Node21</title>
<g id="a_node21"><a xlink:href="_o_m_sim_sensitive_detector_8hh.html" target="_top" xlink:title=" ">
<polygon fill="white" stroke="black" points="455,-123.5 455,-142.5 608,-142.5 608,-123.5 455,-123.5"/>
<text text-anchor="middle" x="531.5" y="-130.5" font-family="Helvetica,sans-Serif" font-size="10.00">OMSimSensitiveDetector.hh</text>
</a>
</g>
</g>
<!-- Node14&#45;&gt;Node21 -->
<g id="edge21" class="edge">
<title>Node14&#45;&gt;Node21</title>
<path fill="none" stroke="midnightblue" d="M651.84,-179.44C628.1,-170.48 590.59,-156.31 563.76,-146.18"/>
<polygon fill="midnightblue" stroke="midnightblue" points="564.64,-142.77 554.05,-142.52 562.17,-149.32 564.64,-142.77"/>
</g>
<!-- Node16 -->
<g id="node16" class="node">
<title>Node16</title>
<g id="a_node16"><a xlink:title=" ">
<polygon fill="white" stroke="#bfbfbf" points="0,-0.5 0,-19.5 119,-19.5 119,-0.5 0,-0.5"/>
<text text-anchor="middle" x="59.5" y="-7.5" font-family="Helvetica,sans-Serif" font-size="10.00">G4SystemOfUnits.hh</text>
</a>
</g>
</g>
<!-- Node15&#45;&gt;Node16 -->
<g id="edge16" class="edge">
<title>Node15&#45;&gt;Node16</title>
<path fill="none" stroke="midnightblue" d="M220.56,-61.98C187.9,-51.64 132.68,-34.16 96.16,-22.6"/>
<polygon fill="midnightblue" stroke="midnightblue" points="96.98,-19.19 86.39,-19.51 94.86,-25.86 96.98,-19.19"/>
</g>
<!-- Node17 -->
<g id="node17" class="node">
<title>Node17</title>
<g id="a_node17"><a xlink:title=" ">
<polygon fill="white" stroke="#bfbfbf" points="137,-0.5 137,-19.5 210,-19.5 210,-0.5 137,-0.5"/>
<text text-anchor="middle" x="173.5" y="-7.5" font-family="Helvetica,sans-Serif" font-size="10.00">G4Types.hh</text>
</a>
</g>
</g>
<!-- Node15&#45;&gt;Node17 -->
<g id="edge17" class="edge">
<title>Node15&#45;&gt;Node17</title>
<path fill="none" stroke="midnightblue" d="M236.9,-61.98C225.25,-52.61 206.31,-37.38 192.17,-26.01"/>
<polygon fill="midnightblue" stroke="midnightblue" points="194.07,-23.05 184.08,-19.51 189.68,-28.5 194.07,-23.05"/>
</g>
<!-- Node18 -->
<g id="node18" class="node">
<title>Node18</title>
<g id="a_node18"><a xlink:title=" ">
<polygon fill="white" stroke="#bfbfbf" points="228.5,-0.5 228.5,-19.5 266.5,-19.5 266.5,-0.5 228.5,-0.5"/>
<text text-anchor="middle" x="247.5" y="-7.5" font-family="Helvetica,sans-Serif" font-size="10.00">map</text>
</a>
</g>
</g>
<!-- Node15&#45;&gt;Node18 -->
<g id="edge18" class="edge">
<title>Node15&#45;&gt;Node18</title>
<path fill="none" stroke="midnightblue" d="M247.5,-61.98C247.5,-53.58 247.5,-40.48 247.5,-29.66"/>
<polygon fill="midnightblue" stroke="midnightblue" points="251,-29.51 247.5,-19.51 244,-29.51 251,-29.51"/>
</g>
<!-- Node19 -->
<g id="node19" class="node">
<title>Node19</title>
<g id="a_node19"><a xlink:title=" ">
<polygon fill="white" stroke="#bfbfbf" points="285,-0.5 285,-19.5 346,-19.5 346,-0.5 285,-0.5"/>
<text text-anchor="middle" x="315.5" y="-7.5" font-family="Helvetica,sans-Serif" font-size="10.00">TGraph.h</text>
</a>
</g>
</g>
<!-- Node15&#45;&gt;Node19 -->
<g id="edge19" class="edge">
<title>Node15&#45;&gt;Node19</title>
<path fill="none" stroke="midnightblue" d="M257.24,-61.98C267.85,-52.7 285.02,-37.67 297.98,-26.33"/>
<polygon fill="midnightblue" stroke="midnightblue" points="300.55,-28.73 305.78,-19.51 295.94,-23.46 300.55,-28.73"/>
</g>
<!-- Node20 -->
<g id="node20" class="node">
<title>Node20</title>
<g id="a_node20"><a xlink:title=" ">
<polygon fill="white" stroke="#bfbfbf" points="364,-0.5 364,-19.5 417,-19.5 417,-0.5 364,-0.5"/>
<text text-anchor="middle" x="390.5" y="-7.5" font-family="Helvetica,sans-Serif" font-size="10.00">TH2D.h</text>
</a>
</g>
</g>
<!-- Node15&#45;&gt;Node20 -->
<g id="edge20" class="edge">
<title>Node15&#45;&gt;Node20</title>
<path fill="none" stroke="midnightblue" d="M267.99,-61.98C292.31,-51.86 333.05,-34.9 360.82,-23.35"/>
<polygon fill="midnightblue" stroke="midnightblue" points="362.16,-26.58 370.05,-19.51 359.47,-20.12 362.16,-26.58"/>
</g>
<!-- Node21&#45;&gt;Node4 -->
<g id="edge23" class="edge">
<title>Node21&#45;&gt;Node4</title>
<path fill="none" stroke="midnightblue" d="M565.31,-123.48C607.02,-112.96 678.01,-95.06 723.81,-83.51"/>
<polygon fill="midnightblue" stroke="midnightblue" points="724.91,-86.85 733.75,-81.01 723.2,-80.06 724.91,-86.85"/>
</g>
<!-- Node21&#45;&gt;Node15 -->
<g id="edge24" class="edge">
<title>Node21&#45;&gt;Node15</title>
<path fill="none" stroke="midnightblue" d="M490.81,-123.48C439.98,-112.83 353.03,-94.61 298,-83.08"/>
<polygon fill="midnightblue" stroke="midnightblue" points="298.62,-79.63 288.11,-81.01 297.18,-86.49 298.62,-79.63"/>
</g>
<!-- Node22 -->
<g id="node22" class="node">
<title>Node22</title>
<g id="a_node22"><a xlink:title=" ">
<polygon fill="white" stroke="#bfbfbf" points="398.5,-62 398.5,-81 536.5,-81 536.5,-62 398.5,-62"/>
<text text-anchor="middle" x="467.5" y="-69" font-family="Helvetica,sans-Serif" font-size="10.00">G4VSensitiveDetector.hh</text>
</a>
</g>
</g>
<!-- Node21&#45;&gt;Node22 -->
<g id="edge22" class="edge">
<title>Node21&#45;&gt;Node22</title>
<path fill="none" stroke="midnightblue" d="M522.33,-123.48C512.35,-114.2 496.19,-99.17 483.99,-87.83"/>
<polygon fill="midnightblue" stroke="midnightblue" points="486.36,-85.25 476.65,-81.01 481.59,-90.38 486.36,-85.25"/>
</g>
<!-- Node23 -->
<g id="node23" class="node">
<title>Node23</title>
<g id="a_node23"><a xlink:title=" ">
<polygon fill="white" stroke="#bfbfbf" points="555,-62 555,-81 698,-81 698,-62 555,-62"/>
<text text-anchor="middle" x="626.5" y="-69" font-family="Helvetica,sans-Serif" font-size="10.00">G4OpBoundaryProcess.hh</text>
</a>
</g>
</g>
<!-- Node21&#45;&gt;Node23 -->
<g id="edge25" class="edge">
<title>Node21&#45;&gt;Node23</title>
<path fill="none" stroke="midnightblue" d="M545.11,-123.48C560.56,-113.8 585.99,-97.87 604.32,-86.39"/>
<polygon fill="midnightblue" stroke="midnightblue" points="606.3,-89.28 612.91,-81.01 602.58,-83.35 606.3,-89.28"/>
</g>
<!-- Node24 -->
<g id="node24" class="node">
<title>Node24</title>
<g id="a_node24"><a xlink:title=" ">
<polygon fill="white" stroke="#bfbfbf" points="333,-62 333,-81 380,-81 380,-62 333,-62"/>
<text text-anchor="middle" x="356.5" y="-69" font-family="Helvetica,sans-Serif" font-size="10.00">vector</text>
</a>
</g>
</g>
<!-- Node21&#45;&gt;Node24 -->
<g id="edge26" class="edge">
<title>Node21&#45;&gt;Node24</title>
<path fill="none" stroke="midnightblue" d="M501.26,-123.44C472.29,-115 427.49,-101.32 389.5,-87 387.89,-86.39 386.24,-85.75 384.59,-85.08"/>
<polygon fill="midnightblue" stroke="midnightblue" points="385.78,-81.79 375.2,-81.13 383.06,-88.24 385.78,-81.79"/>
</g>
</g>
</svg>
