<?xml version="1.0" encoding="UTF-8" standalone="no"?>
<!DOCTYPE svg PUBLIC "-//W3C//DTD SVG 1.1//EN"
 "http://www.w3.org/Graphics/SVG/1.1/DTD/svg11.dtd">
<!-- Generated by graphviz version 2.43.0 (0)
 -->
<!-- Title: OMSimEventAction.cc Pages: 1 -->
<svg width="939pt" height="207pt"
 viewBox="0.00 0.00 938.50 207.00" xmlns="http://www.w3.org/2000/svg" xmlns:xlink="http://www.w3.org/1999/xlink">
<g id="graph0" class="graph" transform="scale(1 1) rotate(0) translate(4 203)">
<title>OMSimEventAction.cc</title>
<polygon fill="white" stroke="transparent" points="-4,4 -4,-203 934.5,-203 934.5,4 -4,4"/>
<!-- Node1 -->
<g id="node1" class="node">
<title>Node1</title>
<g id="a_node1"><a xlink:title=" ">
<polygon fill="#bfbfbf" stroke="black" points="336,-179.5 336,-198.5 460,-198.5 460,-179.5 336,-179.5"/>
<text text-anchor="middle" x="398" y="-186.5" font-family="Helvetica,sans-Serif" font-size="10.00">OMSimEventAction.cc</text>
</a>
</g>
</g>
<!-- Node2 -->
<g id="node2" class="node">
<title>Node2</title>
<g id="a_node2"><a xlink:title=" ">
<polygon fill="white" stroke="#bfbfbf" points="0.5,-123.5 0.5,-142.5 125.5,-142.5 125.5,-123.5 0.5,-123.5"/>
<text text-anchor="middle" x="63" y="-130.5" font-family="Helvetica,sans-Serif" font-size="10.00">OMSimEventAction.hh</text>
</a>
</g>
</g>
<!-- Node1&#45;&gt;Node2 -->
<g id="edge1" class="edge">
<title>Node1&#45;&gt;Node2</title>
<path fill="none" stroke="midnightblue" d="M344.92,-179.44C285.5,-169.87 189.28,-154.36 126.07,-144.17"/>
<polygon fill="midnightblue" stroke="midnightblue" points="126.26,-140.65 115.83,-142.52 125.15,-147.56 126.26,-140.65"/>
</g>
<!-- Node3 -->
<g id="node3" class="node">
<title>Node3</title>
<g id="a_node3"><a xlink:href="_o_m_sim_decays_analysis_8hh.html" target="_top" xlink:title="Defines the OMSimDecaysAnalysis class and DecayStats struct for the radioactive decays simulation.">
<polygon fill="white" stroke="black" points="326,-123.5 326,-142.5 470,-142.5 470,-123.5 326,-123.5"/>
<text text-anchor="middle" x="398" y="-130.5" font-family="Helvetica,sans-Serif" font-size="10.00">OMSimDecaysAnalysis.hh</text>
</a>
</g>
</g>
<!-- Node1&#45;&gt;Node3 -->
<g id="edge2" class="edge">
<title>Node1&#45;&gt;Node3</title>
<path fill="none" stroke="midnightblue" d="M398,-179.08C398,-172.01 398,-161.86 398,-152.99"/>
<polygon fill="midnightblue" stroke="midnightblue" points="401.5,-152.75 398,-142.75 394.5,-152.75 401.5,-152.75"/>
</g>
<!-- Node7 -->
<g id="node7" class="node">
<title>Node7</title>
<g id="a_node7"><a xlink:href="_o_m_sim_command_args_table_8hh.html" target="_top" xlink:title="Definition of the OMSimCommandArgsTable singleton class, which controls user args.">
<polygon fill="white" stroke="black" points="144,-123.5 144,-142.5 308,-142.5 308,-123.5 144,-123.5"/>
<text text-anchor="middle" x="226" y="-130.5" font-family="Helvetica,sans-Serif" font-size="10.00">OMSimCommandArgsTable.hh</text>
</a>
</g>
</g>
<!-- Node1&#45;&gt;Node7 -->
<g id="edge6" class="edge">
<title>Node1&#45;&gt;Node7</title>
<path fill="none" stroke="midnightblue" d="M370.75,-179.44C341.56,-170.28 295.08,-155.69 262.69,-145.52"/>
<polygon fill="midnightblue" stroke="midnightblue" points="263.72,-142.17 253.13,-142.52 261.62,-148.85 263.72,-142.17"/>
</g>
<!-- Node15 -->
<g id="node15" class="node">
<title>Node15</title>
<g id="a_node15"><a xlink:href="_o_m_sim_hit_manager_8hh.html" target="_top" xlink:title="Defines structures and classes related to optical module photon hit management.">
<polygon fill="white" stroke="black" points="488.5,-123.5 488.5,-142.5 611.5,-142.5 611.5,-123.5 488.5,-123.5"/>
<text text-anchor="middle" x="550" y="-130.5" font-family="Helvetica,sans-Serif" font-size="10.00">OMSimHitManager.hh</text>
</a>
</g>
</g>
<!-- Node1&#45;&gt;Node15 -->
<g id="edge15" class="edge">
<title>Node1&#45;&gt;Node15</title>
<path fill="none" stroke="midnightblue" d="M422.08,-179.44C447.54,-170.4 487.89,-156.06 516.46,-145.92"/>
<polygon fill="midnightblue" stroke="midnightblue" points="517.78,-149.16 526.03,-142.52 515.43,-142.57 517.78,-149.16"/>
</g>
<!-- Node23 -->
<g id="node23" class="node">
<title>Node23</title>
<g id="a_node23"><a xlink:title=" ">
<polygon fill="white" stroke="#bfbfbf" points="630,-123.5 630,-142.5 736,-142.5 736,-123.5 630,-123.5"/>
<text text-anchor="middle" x="683" y="-130.5" font-family="Helvetica,sans-Serif" font-size="10.00">G4RunManager.hh</text>
</a>
</g>
</g>
<!-- Node1&#45;&gt;Node23 -->
<g id="edge26" class="edge">
<title>Node1&#45;&gt;Node23</title>
<path fill="none" stroke="midnightblue" d="M443.16,-179.44C493.29,-169.94 574.22,-154.61 628.01,-144.42"/>
<polygon fill="midnightblue" stroke="midnightblue" points="628.88,-147.82 638.05,-142.52 627.58,-140.94 628.88,-147.82"/>
</g>
<!-- Node4 -->
<g id="node4" class="node">
<title>Node4</title>
<g id="a_node4"><a xlink:title=" ">
<polygon fill="white" stroke="#bfbfbf" points="487.5,-67.5 487.5,-86.5 590.5,-86.5 590.5,-67.5 487.5,-67.5"/>
<text text-anchor="middle" x="539" y="-74.5" font-family="Helvetica,sans-Serif" font-size="10.00">G4ThreeVector.hh</text>
</a>
</g>
</g>
<!-- Node3&#45;&gt;Node4 -->
<g id="edge3" class="edge">
<title>Node3&#45;&gt;Node4</title>
<path fill="none" stroke="midnightblue" d="M420.34,-123.44C443.75,-114.48 480.74,-100.31 507.19,-90.18"/>
<polygon fill="midnightblue" stroke="midnightblue" points="508.68,-93.36 516.76,-86.52 506.17,-86.82 508.68,-93.36"/>
</g>
<!-- Node5 -->
<g id="node5" class="node">
<title>Node5</title>
<g id="a_node5"><a xlink:title=" ">
<polygon fill="white" stroke="#bfbfbf" points="305.5,-67.5 305.5,-86.5 360.5,-86.5 360.5,-67.5 305.5,-67.5"/>
<text text-anchor="middle" x="333" y="-74.5" font-family="Helvetica,sans-Serif" font-size="10.00">fstream</text>
</a>
</g>
</g>
<!-- Node3&#45;&gt;Node5 -->
<g id="edge4" class="edge">
<title>Node3&#45;&gt;Node5</title>
<path fill="none" stroke="midnightblue" d="M387.56,-123.32C377.85,-115.26 363.18,-103.08 351.5,-93.37"/>
<polygon fill="midnightblue" stroke="midnightblue" points="353.56,-90.53 343.63,-86.83 349.09,-95.92 353.56,-90.53"/>
</g>
<!-- Node6 -->
<g id="node6" class="node">
<title>Node6</title>
<g id="a_node6"><a xlink:title=" ">
<polygon fill="white" stroke="#bfbfbf" points="379,-67.5 379,-86.5 469,-86.5 469,-67.5 379,-67.5"/>
<text text-anchor="middle" x="424" y="-74.5" font-family="Helvetica,sans-Serif" font-size="10.00">G4AutoLock.hh</text>
</a>
</g>
</g>
<!-- Node3&#45;&gt;Node6 -->
<g id="edge5" class="edge">
<title>Node3&#45;&gt;Node6</title>
<path fill="none" stroke="midnightblue" d="M402.29,-123.08C405.85,-115.69 411.02,-104.95 415.42,-95.81"/>
<polygon fill="midnightblue" stroke="midnightblue" points="418.6,-97.28 419.79,-86.75 412.29,-94.24 418.6,-97.28"/>
</g>
<!-- Node7&#45;&gt;Node5 -->
<g id="edge12" class="edge">
<title>Node7&#45;&gt;Node5</title>
<path fill="none" stroke="midnightblue" d="M243.19,-123.32C260.35,-114.66 286.95,-101.24 306.75,-91.25"/>
<polygon fill="midnightblue" stroke="midnightblue" points="308.5,-94.28 315.85,-86.65 305.35,-88.04 308.5,-94.28"/>
</g>
<!-- Node8 -->
<g id="node8" class="node">
<title>Node8</title>
<g id="a_node8"><a xlink:href="_o_m_sim_logger_8hh.html" target="_top" xlink:title=" ">
<polygon fill="white" stroke="black" points="188.5,-67.5 188.5,-86.5 287.5,-86.5 287.5,-67.5 188.5,-67.5"/>
<text text-anchor="middle" x="238" y="-74.5" font-family="Helvetica,sans-Serif" font-size="10.00">OMSimLogger.hh</text>
</a>
</g>
</g>
<!-- Node7&#45;&gt;Node8 -->
<g id="edge7" class="edge">
<title>Node7&#45;&gt;Node8</title>
<path fill="none" stroke="midnightblue" d="M227.98,-123.08C229.57,-115.93 231.86,-105.64 233.85,-96.69"/>
<polygon fill="midnightblue" stroke="midnightblue" points="237.3,-97.27 236.06,-86.75 230.47,-95.75 237.3,-97.27"/>
</g>
<!-- Node13 -->
<g id="node13" class="node">
<title>Node13</title>
<g id="a_node13"><a xlink:title=" ">
<polygon fill="white" stroke="#bfbfbf" points="0,-67.5 0,-86.5 84,-86.5 84,-67.5 0,-67.5"/>
<text text-anchor="middle" x="42" y="-74.5" font-family="Helvetica,sans-Serif" font-size="10.00">boost/any.hpp</text>
</a>
</g>
</g>
<!-- Node7&#45;&gt;Node13 -->
<g id="edge13" class="edge">
<title>Node7&#45;&gt;Node13</title>
<path fill="none" stroke="midnightblue" d="M196.84,-123.44C165.49,-114.24 115.47,-99.56 80.8,-89.39"/>
<polygon fill="midnightblue" stroke="midnightblue" points="81.6,-85.97 71.02,-86.52 79.63,-92.69 81.6,-85.97"/>
</g>
<!-- Node14 -->
<g id="node14" class="node">
<title>Node14</title>
<g id="a_node14"><a xlink:title=" ">
<polygon fill="white" stroke="#bfbfbf" points="102,-67.5 102,-86.5 170,-86.5 170,-67.5 102,-67.5"/>
<text text-anchor="middle" x="136" y="-74.5" font-family="Helvetica,sans-Serif" font-size="10.00">sys/time.h</text>
</a>
</g>
</g>
<!-- Node7&#45;&gt;Node14 -->
<g id="edge14" class="edge">
<title>Node7&#45;&gt;Node14</title>
<path fill="none" stroke="midnightblue" d="M211.54,-123.32C197.5,-114.9 175.95,-101.97 159.46,-92.07"/>
<polygon fill="midnightblue" stroke="midnightblue" points="160.8,-88.8 150.42,-86.65 157.2,-94.8 160.8,-88.8"/>
</g>
<!-- Node9 -->
<g id="node9" class="node">
<title>Node9</title>
<g id="a_node9"><a xlink:title=" ">
<polygon fill="white" stroke="#bfbfbf" points="131.5,-6 131.5,-25 224.5,-25 224.5,-6 131.5,-6"/>
<text text-anchor="middle" x="178" y="-13" font-family="Helvetica,sans-Serif" font-size="10.00">spdlog/spdlog.h</text>
</a>
</g>
</g>
<!-- Node8&#45;&gt;Node9 -->
<g id="edge8" class="edge">
<title>Node8&#45;&gt;Node9</title>
<path fill="none" stroke="midnightblue" d="M229.4,-67.48C220.14,-58.28 205.18,-43.46 193.79,-32.16"/>
<polygon fill="midnightblue" stroke="midnightblue" points="196.15,-29.57 186.58,-25.01 191.22,-34.54 196.15,-29.57"/>
</g>
<!-- Node10 -->
<g id="node10" class="node">
<title>Node10</title>
<g id="a_node10"><a xlink:title=" ">
<polygon fill="white" stroke="#bfbfbf" points="242.5,-0.5 242.5,-30.5 353.5,-30.5 353.5,-0.5 242.5,-0.5"/>
<text text-anchor="start" x="250.5" y="-18.5" font-family="Helvetica,sans-Serif" font-size="10.00">spdlog/sinks/stdout</text>
<text text-anchor="middle" x="298" y="-7.5" font-family="Helvetica,sans-Serif" font-size="10.00">_color_sinks.h</text>
</a>
</g>
</g>
<!-- Node8&#45;&gt;Node10 -->
<g id="edge9" class="edge">
<title>Node8&#45;&gt;Node10</title>
<path fill="none" stroke="midnightblue" d="M246.6,-67.48C254.42,-59.72 266.29,-47.94 276.66,-37.66"/>
<polygon fill="midnightblue" stroke="midnightblue" points="279.22,-40.05 283.86,-30.52 274.29,-35.08 279.22,-40.05"/>
</g>
<!-- Node11 -->
<g id="node11" class="node">
<title>Node11</title>
<g id="a_node11"><a xlink:title=" ">
<polygon fill="white" stroke="#bfbfbf" points="372,-6 372,-25 430,-25 430,-6 372,-6"/>
<text text-anchor="middle" x="401" y="-13" font-family="Helvetica,sans-Serif" font-size="10.00">memory</text>
</a>
</g>
</g>
<!-- Node8&#45;&gt;Node11 -->
<g id="edge10" class="edge">
<title>Node8&#45;&gt;Node11</title>
<path fill="none" stroke="midnightblue" d="M261.79,-67.43C286.77,-58.42 327.17,-43.79 362,-31 364.09,-30.23 366.25,-29.44 368.42,-28.63"/>
<polygon fill="midnightblue" stroke="midnightblue" points="369.75,-31.87 377.91,-25.12 367.32,-25.31 369.75,-31.87"/>
</g>
<!-- Node12 -->
<g id="node12" class="node">
<title>Node12</title>
<g id="a_node12"><a xlink:title=" ">
<polygon fill="white" stroke="#bfbfbf" points="15,-6 15,-25 113,-25 113,-6 15,-6"/>
<text text-anchor="middle" x="64" y="-13" font-family="Helvetica,sans-Serif" font-size="10.00">spdlog/fmt/fmt.h</text>
</a>
</g>
</g>
<!-- Node8&#45;&gt;Node12 -->
<g id="edge11" class="edge">
<title>Node8&#45;&gt;Node12</title>
<path fill="none" stroke="midnightblue" d="M213.07,-67.48C182.96,-57.18 132.17,-39.81 98.36,-28.25"/>
<polygon fill="midnightblue" stroke="midnightblue" points="99.48,-24.93 88.88,-25.01 97.21,-31.56 99.48,-24.93"/>
</g>
<!-- Node15&#45;&gt;Node4 -->
<g id="edge22" class="edge">
<title>Node15&#45;&gt;Node4</title>
<path fill="none" stroke="midnightblue" d="M548.18,-123.08C546.73,-115.93 544.63,-105.64 542.81,-96.69"/>
<polygon fill="midnightblue" stroke="midnightblue" points="546.21,-95.85 540.78,-86.75 539.35,-97.25 546.21,-95.85"/>
</g>
<!-- Node15&#45;&gt;Node5 -->
<g id="edge23" class="edge">
<title>Node15&#45;&gt;Node5</title>
<path fill="none" stroke="midnightblue" d="M515.62,-123.44C476.06,-113.6 411.34,-97.5 370.52,-87.34"/>
<polygon fill="midnightblue" stroke="midnightblue" points="371.23,-83.91 360.68,-84.89 369.54,-90.7 371.23,-83.91"/>
</g>
<!-- Node15&#45;&gt;Node6 -->
<g id="edge24" class="edge">
<title>Node15&#45;&gt;Node6</title>
<path fill="none" stroke="midnightblue" d="M530.03,-123.44C509.39,-114.6 476.94,-100.69 453.37,-90.59"/>
<polygon fill="midnightblue" stroke="midnightblue" points="454.44,-87.24 443.87,-86.52 451.68,-93.67 454.44,-87.24"/>
</g>
<!-- Node16 -->
<g id="node16" class="node">
<title>Node16</title>
<g id="a_node16"><a xlink:href="_o_m_sim_p_m_t_response_8hh.html" target="_top" xlink:title="Simulation of PMT response.">
<polygon fill="white" stroke="black" points="608.5,-67.5 608.5,-86.5 743.5,-86.5 743.5,-67.5 608.5,-67.5"/>
<text text-anchor="middle" x="676" y="-74.5" font-family="Helvetica,sans-Serif" font-size="10.00">OMSimPMTResponse.hh</text>
</a>
</g>
</g>
<!-- Node15&#45;&gt;Node16 -->
<g id="edge16" class="edge">
<title>Node15&#45;&gt;Node16</title>
<path fill="none" stroke="midnightblue" d="M569.97,-123.44C590.61,-114.6 623.06,-100.69 646.63,-90.59"/>
<polygon fill="midnightblue" stroke="midnightblue" points="648.32,-93.67 656.13,-86.52 645.56,-87.24 648.32,-93.67"/>
</g>
<!-- Node22 -->
<g id="node22" class="node">
<title>Node22</title>
<g id="a_node22"><a xlink:title=" ">
<polygon fill="white" stroke="#bfbfbf" points="762,-67.5 762,-86.5 856,-86.5 856,-67.5 762,-67.5"/>
<text text-anchor="middle" x="809" y="-74.5" font-family="Helvetica,sans-Serif" font-size="10.00">G4Threading.hh</text>
</a>
</g>
</g>
<!-- Node15&#45;&gt;Node22 -->
<g id="edge25" class="edge">
<title>Node15&#45;&gt;Node22</title>
<path fill="none" stroke="midnightblue" d="M591.04,-123.44C636.32,-114 709.23,-98.8 758.11,-88.61"/>
<polygon fill="midnightblue" stroke="midnightblue" points="759.08,-91.98 768.15,-86.52 757.65,-85.13 759.08,-91.98"/>
</g>
<!-- Node17 -->
<g id="node17" class="node">
<title>Node17</title>
<g id="a_node17"><a xlink:title=" ">
<polygon fill="white" stroke="#bfbfbf" points="720.5,-6 720.5,-25 839.5,-25 839.5,-6 720.5,-6"/>
<text text-anchor="middle" x="780" y="-13" font-family="Helvetica,sans-Serif" font-size="10.00">G4SystemOfUnits.hh</text>
</a>
</g>
</g>
<!-- Node16&#45;&gt;Node17 -->
<g id="edge17" class="edge">
<title>Node16&#45;&gt;Node17</title>
<path fill="none" stroke="midnightblue" d="M690.9,-67.48C707.97,-57.71 736.16,-41.58 756.26,-30.08"/>
<polygon fill="midnightblue" stroke="midnightblue" points="758.19,-33.01 765.13,-25.01 754.71,-26.94 758.19,-33.01"/>
</g>
<!-- Node18 -->
<g id="node18" class="node">
<title>Node18</title>
<g id="a_node18"><a xlink:title=" ">
<polygon fill="white" stroke="#bfbfbf" points="857.5,-6 857.5,-25 930.5,-25 930.5,-6 857.5,-6"/>
<text text-anchor="middle" x="894" y="-13" font-family="Helvetica,sans-Serif" font-size="10.00">G4Types.hh</text>
</a>
</g>
</g>
<!-- Node16&#45;&gt;Node18 -->
<g id="edge18" class="edge">
<title>Node16&#45;&gt;Node18</title>
<path fill="none" stroke="midnightblue" d="M711.28,-67.45C746.36,-58.8 801.62,-44.78 849,-31 852.15,-30.08 855.42,-29.1 858.69,-28.09"/>
<polygon fill="midnightblue" stroke="midnightblue" points="859.89,-31.38 868.38,-25.04 857.79,-24.7 859.89,-31.38"/>
</g>
<!-- Node19 -->
<g id="node19" class="node">
<title>Node19</title>
<g id="a_node19"><a xlink:title=" ">
<polygon fill="white" stroke="#bfbfbf" points="514,-6 514,-25 552,-25 552,-6 514,-6"/>
<text text-anchor="middle" x="533" y="-13" font-family="Helvetica,sans-Serif" font-size="10.00">map</text>
</a>
</g>
</g>
<!-- Node16&#45;&gt;Node19 -->
<g id="edge19" class="edge">
<title>Node16&#45;&gt;Node19</title>
<path fill="none" stroke="midnightblue" d="M651.91,-67.41C628.43,-58.84 591.86,-44.98 561,-31 560,-30.55 558.99,-30.08 557.97,-29.6"/>
<polygon fill="midnightblue" stroke="midnightblue" points="559.36,-26.38 548.85,-25.07 556.25,-32.65 559.36,-26.38"/>
</g>
<!-- Node20 -->
<g id="node20" class="node">
<title>Node20</title>
<g id="a_node20"><a xlink:title=" ">
<polygon fill="white" stroke="#bfbfbf" points="570.5,-6 570.5,-25 631.5,-25 631.5,-6 570.5,-6"/>
<text text-anchor="middle" x="601" y="-13" font-family="Helvetica,sans-Serif" font-size="10.00">TGraph.h</text>
</a>
</g>
</g>
<!-- Node16&#45;&gt;Node20 -->
<g id="edge20" class="edge">
<title>Node16&#45;&gt;Node20</title>
<path fill="none" stroke="midnightblue" d="M665.25,-67.48C653.45,-58.11 634.26,-42.88 619.92,-31.51"/>
<polygon fill="midnightblue" stroke="midnightblue" points="621.74,-28.48 611.73,-25.01 617.38,-33.97 621.74,-28.48"/>
</g>
<!-- Node21 -->
<g id="node21" class="node">
<title>Node21</title>
<g id="a_node21"><a xlink:title=" ">
<polygon fill="white" stroke="#bfbfbf" points="649.5,-6 649.5,-25 702.5,-25 702.5,-6 649.5,-6"/>
<text text-anchor="middle" x="676" y="-13" font-family="Helvetica,sans-Serif" font-size="10.00">TH2D.h</text>
</a>
</g>
</g>
<!-- Node16&#45;&gt;Node21 -->
<g id="edge21" class="edge">
<title>Node16&#45;&gt;Node21</title>
<path fill="none" stroke="midnightblue" d="M676,-67.48C676,-59.08 676,-45.98 676,-35.16"/>
<polygon fill="midnightblue" stroke="midnightblue" points="679.5,-35.01 676,-25.01 672.5,-35.01 679.5,-35.01"/>
</g>
</g>
</svg>
