<?xml version="1.0" encoding="UTF-8" standalone="no"?>
<!DOCTYPE svg PUBLIC "-//W3C//DTD SVG 1.1//EN"
 "http://www.w3.org/Graphics/SVG/1.1/DTD/svg11.dtd">
<!-- Generated by graphviz version 2.43.0 (0)
 -->
<!-- Title: OMSimEventAction.cc Pages: 1 -->
<svg width="951pt" height="207pt"
 viewBox="0.00 0.00 951.00 207.00" xmlns="http://www.w3.org/2000/svg" xmlns:xlink="http://www.w3.org/1999/xlink">
<g id="graph0" class="graph" transform="scale(1 1) rotate(0) translate(4 203)">
<title>OMSimEventAction.cc</title>
<polygon fill="white" stroke="transparent" points="-4,4 -4,-203 947,-203 947,4 -4,4"/>
<!-- Node1 -->
<g id="node1" class="node">
<title>Node1</title>
<g id="a_node1"><a xlink:title=" ">
<polygon fill="#bfbfbf" stroke="black" points="441,-179.5 441,-198.5 565,-198.5 565,-179.5 441,-179.5"/>
<text text-anchor="middle" x="503" y="-186.5" font-family="Helvetica,sans-Serif" font-size="10.00">OMSimEventAction.cc</text>
</a>
</g>
</g>
<!-- Node2 -->
<g id="node2" class="node">
<title>Node2</title>
<g id="a_node2"><a xlink:title=" ">
<polygon fill="white" stroke="#bfbfbf" points="105.5,-123.5 105.5,-142.5 230.5,-142.5 230.5,-123.5 105.5,-123.5"/>
<text text-anchor="middle" x="168" y="-130.5" font-family="Helvetica,sans-Serif" font-size="10.00">OMSimEventAction.hh</text>
</a>
</g>
</g>
<!-- Node1&#45;&gt;Node2 -->
<g id="edge1" class="edge">
<title>Node1&#45;&gt;Node2</title>
<path fill="none" stroke="midnightblue" d="M449.92,-179.44C390.5,-169.87 294.28,-154.36 231.07,-144.17"/>
<polygon fill="midnightblue" stroke="midnightblue" points="231.26,-140.65 220.83,-142.52 230.15,-147.56 231.26,-140.65"/>
</g>
<!-- Node3 -->
<g id="node3" class="node">
<title>Node3</title>
<g id="a_node3"><a xlink:href="_o_m_sim_decays_analysis_8hh.html" target="_top" xlink:title="Defines the OMSimDecaysAnalysis class and DecayStats struct for the radioactive decays simulation.">
<polygon fill="white" stroke="black" points="431,-123.5 431,-142.5 575,-142.5 575,-123.5 431,-123.5"/>
<text text-anchor="middle" x="503" y="-130.5" font-family="Helvetica,sans-Serif" font-size="10.00">OMSimDecaysAnalysis.hh</text>
</a>
</g>
</g>
<!-- Node1&#45;&gt;Node3 -->
<g id="edge2" class="edge">
<title>Node1&#45;&gt;Node3</title>
<path fill="none" stroke="midnightblue" d="M503,-179.08C503,-172.01 503,-161.86 503,-152.99"/>
<polygon fill="midnightblue" stroke="midnightblue" points="506.5,-152.75 503,-142.75 499.5,-152.75 506.5,-152.75"/>
</g>
<!-- Node6 -->
<g id="node6" class="node">
<title>Node6</title>
<g id="a_node6"><a xlink:href="_o_m_sim_command_args_table_8hh.html" target="_top" xlink:title="Definition of the OMSimCommandArgsTable singleton class, which controls user args.">
<polygon fill="white" stroke="black" points="249,-123.5 249,-142.5 413,-142.5 413,-123.5 249,-123.5"/>
<text text-anchor="middle" x="331" y="-130.5" font-family="Helvetica,sans-Serif" font-size="10.00">OMSimCommandArgsTable.hh</text>
</a>
</g>
</g>
<!-- Node1&#45;&gt;Node6 -->
<g id="edge5" class="edge">
<title>Node1&#45;&gt;Node6</title>
<path fill="none" stroke="midnightblue" d="M475.75,-179.44C446.56,-170.28 400.08,-155.69 367.69,-145.52"/>
<polygon fill="midnightblue" stroke="midnightblue" points="368.72,-142.17 358.13,-142.52 366.62,-148.85 368.72,-142.17"/>
</g>
<!-- Node14 -->
<g id="node14" class="node">
<title>Node14</title>
<g id="a_node14"><a xlink:href="_o_m_sim_hit_manager_8hh.html" target="_top" xlink:title="Defines structures and classes related to optical module photon hit management.">
<polygon fill="white" stroke="black" points="593.5,-123.5 593.5,-142.5 716.5,-142.5 716.5,-123.5 593.5,-123.5"/>
<text text-anchor="middle" x="655" y="-130.5" font-family="Helvetica,sans-Serif" font-size="10.00">OMSimHitManager.hh</text>
</a>
</g>
</g>
<!-- Node1&#45;&gt;Node14 -->
<g id="edge14" class="edge">
<title>Node1&#45;&gt;Node14</title>
<path fill="none" stroke="midnightblue" d="M527.08,-179.44C552.54,-170.4 592.89,-156.06 621.46,-145.92"/>
<polygon fill="midnightblue" stroke="midnightblue" points="622.78,-149.16 631.03,-142.52 620.43,-142.57 622.78,-149.16"/>
</g>
<!-- Node23 -->
<g id="node23" class="node">
<title>Node23</title>
<g id="a_node23"><a xlink:title=" ">
<polygon fill="white" stroke="#bfbfbf" points="735,-123.5 735,-142.5 841,-142.5 841,-123.5 735,-123.5"/>
<text text-anchor="middle" x="788" y="-130.5" font-family="Helvetica,sans-Serif" font-size="10.00">G4RunManager.hh</text>
</a>
</g>
</g>
<!-- Node1&#45;&gt;Node23 -->
<g id="edge25" class="edge">
<title>Node1&#45;&gt;Node23</title>
<path fill="none" stroke="midnightblue" d="M548.16,-179.44C598.29,-169.94 679.22,-154.61 733.01,-144.42"/>
<polygon fill="midnightblue" stroke="midnightblue" points="733.88,-147.82 743.05,-142.52 732.58,-140.94 733.88,-147.82"/>
</g>
<!-- Node4 -->
<g id="node4" class="node">
<title>Node4</title>
<g id="a_node4"><a xlink:title=" ">
<polygon fill="white" stroke="#bfbfbf" points="466.5,-67.5 466.5,-86.5 569.5,-86.5 569.5,-67.5 466.5,-67.5"/>
<text text-anchor="middle" x="518" y="-74.5" font-family="Helvetica,sans-Serif" font-size="10.00">G4ThreeVector.hh</text>
</a>
</g>
</g>
<!-- Node3&#45;&gt;Node4 -->
<g id="edge3" class="edge">
<title>Node3&#45;&gt;Node4</title>
<path fill="none" stroke="midnightblue" d="M505.48,-123.08C507.49,-115.85 510.39,-105.41 512.89,-96.4"/>
<polygon fill="midnightblue" stroke="midnightblue" points="516.26,-97.32 515.57,-86.75 509.52,-95.45 516.26,-97.32"/>
</g>
<!-- Node5 -->
<g id="node5" class="node">
<title>Node5</title>
<g id="a_node5"><a xlink:title=" ">
<polygon fill="white" stroke="#bfbfbf" points="393.5,-67.5 393.5,-86.5 448.5,-86.5 448.5,-67.5 393.5,-67.5"/>
<text text-anchor="middle" x="421" y="-74.5" font-family="Helvetica,sans-Serif" font-size="10.00">fstream</text>
</a>
</g>
</g>
<!-- Node3&#45;&gt;Node5 -->
<g id="edge4" class="edge">
<title>Node3&#45;&gt;Node5</title>
<path fill="none" stroke="midnightblue" d="M489.83,-123.32C477.15,-114.98 457.77,-102.21 442.79,-92.35"/>
<polygon fill="midnightblue" stroke="midnightblue" points="444.42,-89.23 434.14,-86.65 440.57,-95.08 444.42,-89.23"/>
</g>
<!-- Node6&#45;&gt;Node5 -->
<g id="edge11" class="edge">
<title>Node6&#45;&gt;Node5</title>
<path fill="none" stroke="midnightblue" d="M345.46,-123.32C359.5,-114.9 381.05,-101.97 397.54,-92.07"/>
<polygon fill="midnightblue" stroke="midnightblue" points="399.8,-94.8 406.58,-86.65 396.2,-88.8 399.8,-94.8"/>
</g>
<!-- Node7 -->
<g id="node7" class="node">
<title>Node7</title>
<g id="a_node7"><a xlink:href="_o_m_sim_logger_8hh.html" target="_top" xlink:title=" ">
<polygon fill="white" stroke="black" points="173.5,-67.5 173.5,-86.5 272.5,-86.5 272.5,-67.5 173.5,-67.5"/>
<text text-anchor="middle" x="223" y="-74.5" font-family="Helvetica,sans-Serif" font-size="10.00">OMSimLogger.hh</text>
</a>
</g>
</g>
<!-- Node6&#45;&gt;Node7 -->
<g id="edge6" class="edge">
<title>Node6&#45;&gt;Node7</title>
<path fill="none" stroke="midnightblue" d="M313.65,-123.32C296.33,-114.66 269.48,-101.24 249.5,-91.25"/>
<polygon fill="midnightblue" stroke="midnightblue" points="250.82,-88 240.31,-86.65 247.69,-94.26 250.82,-88"/>
</g>
<!-- Node12 -->
<g id="node12" class="node">
<title>Node12</title>
<g id="a_node12"><a xlink:title=" ">
<polygon fill="white" stroke="#bfbfbf" points="291,-67.5 291,-86.5 375,-86.5 375,-67.5 291,-67.5"/>
<text text-anchor="middle" x="333" y="-74.5" font-family="Helvetica,sans-Serif" font-size="10.00">boost/any.hpp</text>
</a>
</g>
</g>
<!-- Node6&#45;&gt;Node12 -->
<g id="edge12" class="edge">
<title>Node6&#45;&gt;Node12</title>
<path fill="none" stroke="midnightblue" d="M331.33,-123.08C331.59,-116.01 331.97,-105.86 332.3,-96.99"/>
<polygon fill="midnightblue" stroke="midnightblue" points="335.8,-96.87 332.68,-86.75 328.81,-96.61 335.8,-96.87"/>
</g>
<!-- Node13 -->
<g id="node13" class="node">
<title>Node13</title>
<g id="a_node13"><a xlink:title=" ">
<polygon fill="white" stroke="#bfbfbf" points="87,-67.5 87,-86.5 155,-86.5 155,-67.5 87,-67.5"/>
<text text-anchor="middle" x="121" y="-74.5" font-family="Helvetica,sans-Serif" font-size="10.00">sys/time.h</text>
</a>
</g>
</g>
<!-- Node6&#45;&gt;Node13 -->
<g id="edge13" class="edge">
<title>Node6&#45;&gt;Node13</title>
<path fill="none" stroke="midnightblue" d="M297.72,-123.44C261.55,-114.14 203.62,-99.25 164.02,-89.06"/>
<polygon fill="midnightblue" stroke="midnightblue" points="164.68,-85.62 154.12,-86.52 162.93,-92.4 164.68,-85.62"/>
</g>
<!-- Node8 -->
<g id="node8" class="node">
<title>Node8</title>
<g id="a_node8"><a xlink:title=" ">
<polygon fill="white" stroke="#bfbfbf" points="116.5,-6 116.5,-25 209.5,-25 209.5,-6 116.5,-6"/>
<text text-anchor="middle" x="163" y="-13" font-family="Helvetica,sans-Serif" font-size="10.00">spdlog/spdlog.h</text>
</a>
</g>
</g>
<!-- Node7&#45;&gt;Node8 -->
<g id="edge7" class="edge">
<title>Node7&#45;&gt;Node8</title>
<path fill="none" stroke="midnightblue" d="M214.4,-67.48C205.14,-58.28 190.18,-43.46 178.79,-32.16"/>
<polygon fill="midnightblue" stroke="midnightblue" points="181.15,-29.57 171.58,-25.01 176.22,-34.54 181.15,-29.57"/>
</g>
<!-- Node9 -->
<g id="node9" class="node">
<title>Node9</title>
<g id="a_node9"><a xlink:title=" ">
<polygon fill="white" stroke="#bfbfbf" points="227.5,-0.5 227.5,-30.5 338.5,-30.5 338.5,-0.5 227.5,-0.5"/>
<text text-anchor="start" x="235.5" y="-18.5" font-family="Helvetica,sans-Serif" font-size="10.00">spdlog/sinks/stdout</text>
<text text-anchor="middle" x="283" y="-7.5" font-family="Helvetica,sans-Serif" font-size="10.00">_color_sinks.h</text>
</a>
</g>
</g>
<!-- Node7&#45;&gt;Node9 -->
<g id="edge8" class="edge">
<title>Node7&#45;&gt;Node9</title>
<path fill="none" stroke="midnightblue" d="M231.6,-67.48C239.42,-59.72 251.29,-47.94 261.66,-37.66"/>
<polygon fill="midnightblue" stroke="midnightblue" points="264.22,-40.05 268.86,-30.52 259.29,-35.08 264.22,-40.05"/>
</g>
<!-- Node10 -->
<g id="node10" class="node">
<title>Node10</title>
<g id="a_node10"><a xlink:title=" ">
<polygon fill="white" stroke="#bfbfbf" points="357,-6 357,-25 415,-25 415,-6 357,-6"/>
<text text-anchor="middle" x="386" y="-13" font-family="Helvetica,sans-Serif" font-size="10.00">memory</text>
</a>
</g>
</g>
<!-- Node7&#45;&gt;Node10 -->
<g id="edge9" class="edge">
<title>Node7&#45;&gt;Node10</title>
<path fill="none" stroke="midnightblue" d="M246.79,-67.43C271.77,-58.42 312.17,-43.79 347,-31 349.09,-30.23 351.25,-29.44 353.42,-28.63"/>
<polygon fill="midnightblue" stroke="midnightblue" points="354.75,-31.87 362.91,-25.12 352.32,-25.31 354.75,-31.87"/>
</g>
<!-- Node11 -->
<g id="node11" class="node">
<title>Node11</title>
<g id="a_node11"><a xlink:title=" ">
<polygon fill="white" stroke="#bfbfbf" points="0,-6 0,-25 98,-25 98,-6 0,-6"/>
<text text-anchor="middle" x="49" y="-13" font-family="Helvetica,sans-Serif" font-size="10.00">spdlog/fmt/fmt.h</text>
</a>
</g>
</g>
<!-- Node7&#45;&gt;Node11 -->
<g id="edge10" class="edge">
<title>Node7&#45;&gt;Node11</title>
<path fill="none" stroke="midnightblue" d="M198.07,-67.48C167.96,-57.18 117.17,-39.81 83.36,-28.25"/>
<polygon fill="midnightblue" stroke="midnightblue" points="84.48,-24.93 73.88,-25.01 82.21,-31.56 84.48,-24.93"/>
</g>
<!-- Node14&#45;&gt;Node4 -->
<g id="edge21" class="edge">
<title>Node14&#45;&gt;Node4</title>
<path fill="none" stroke="midnightblue" d="M633.29,-123.44C610.65,-114.52 574.93,-100.44 549.25,-90.32"/>
<polygon fill="midnightblue" stroke="midnightblue" points="550.19,-86.93 539.61,-86.52 547.63,-93.44 550.19,-86.93"/>
</g>
<!-- Node14&#45;&gt;Node5 -->
<g id="edge22" class="edge">
<title>Node14&#45;&gt;Node5</title>
<path fill="none" stroke="midnightblue" d="M616.24,-123.45C578.39,-115.04 518.9,-101.68 458.58,-87.34"/>
<polygon fill="midnightblue" stroke="midnightblue" points="459.04,-83.85 448.5,-84.94 457.42,-90.66 459.04,-83.85"/>
</g>
<!-- Node15 -->
<g id="node15" class="node">
<title>Node15</title>
<g id="a_node15"><a xlink:href="_o_m_sim_p_m_t_response_8hh.html" target="_top" xlink:title="Simulation of PMT response.">
<polygon fill="white" stroke="black" points="587.5,-67.5 587.5,-86.5 722.5,-86.5 722.5,-67.5 587.5,-67.5"/>
<text text-anchor="middle" x="655" y="-74.5" font-family="Helvetica,sans-Serif" font-size="10.00">OMSimPMTResponse.hh</text>
</a>
</g>
</g>
<!-- Node14&#45;&gt;Node15 -->
<g id="edge15" class="edge">
<title>Node14&#45;&gt;Node15</title>
<path fill="none" stroke="midnightblue" d="M655,-123.08C655,-116.01 655,-105.86 655,-96.99"/>
<polygon fill="midnightblue" stroke="midnightblue" points="658.5,-96.75 655,-86.75 651.5,-96.75 658.5,-96.75"/>
</g>
<!-- Node21 -->
<g id="node21" class="node">
<title>Node21</title>
<g id="a_node21"><a xlink:title=" ">
<polygon fill="white" stroke="#bfbfbf" points="741,-67.5 741,-86.5 831,-86.5 831,-67.5 741,-67.5"/>
<text text-anchor="middle" x="786" y="-74.5" font-family="Helvetica,sans-Serif" font-size="10.00">G4AutoLock.hh</text>
</a>
</g>
</g>
<!-- Node14&#45;&gt;Node21 -->
<g id="edge23" class="edge">
<title>Node14&#45;&gt;Node21</title>
<path fill="none" stroke="midnightblue" d="M675.76,-123.44C697.32,-114.56 731.26,-100.56 755.79,-90.45"/>
<polygon fill="midnightblue" stroke="midnightblue" points="757.43,-93.56 765.34,-86.52 754.76,-87.09 757.43,-93.56"/>
</g>
<!-- Node22 -->
<g id="node22" class="node">
<title>Node22</title>
<g id="a_node22"><a xlink:title=" ">
<polygon fill="white" stroke="#bfbfbf" points="849,-67.5 849,-86.5 943,-86.5 943,-67.5 849,-67.5"/>
<text text-anchor="middle" x="896" y="-74.5" font-family="Helvetica,sans-Serif" font-size="10.00">G4Threading.hh</text>
</a>
</g>
</g>
<!-- Node14&#45;&gt;Node22 -->
<g id="edge24" class="edge">
<title>Node14&#45;&gt;Node22</title>
<path fill="none" stroke="midnightblue" d="M693.19,-123.44C735.14,-114.04 802.59,-98.93 848.07,-88.74"/>
<polygon fill="midnightblue" stroke="midnightblue" points="849,-92.12 857.99,-86.52 847.47,-85.29 849,-92.12"/>
</g>
<!-- Node16 -->
<g id="node16" class="node">
<title>Node16</title>
<g id="a_node16"><a xlink:title=" ">
<polygon fill="white" stroke="#bfbfbf" points="699.5,-6 699.5,-25 818.5,-25 818.5,-6 699.5,-6"/>
<text text-anchor="middle" x="759" y="-13" font-family="Helvetica,sans-Serif" font-size="10.00">G4SystemOfUnits.hh</text>
</a>
</g>
</g>
<!-- Node15&#45;&gt;Node16 -->
<g id="edge16" class="edge">
<title>Node15&#45;&gt;Node16</title>
<path fill="none" stroke="midnightblue" d="M669.9,-67.48C686.97,-57.71 715.16,-41.58 735.26,-30.08"/>
<polygon fill="midnightblue" stroke="midnightblue" points="737.19,-33.01 744.13,-25.01 733.71,-26.94 737.19,-33.01"/>
</g>
<!-- Node17 -->
<g id="node17" class="node">
<title>Node17</title>
<g id="a_node17"><a xlink:title=" ">
<polygon fill="white" stroke="#bfbfbf" points="836.5,-6 836.5,-25 909.5,-25 909.5,-6 836.5,-6"/>
<text text-anchor="middle" x="873" y="-13" font-family="Helvetica,sans-Serif" font-size="10.00">G4Types.hh</text>
</a>
</g>
</g>
<!-- Node15&#45;&gt;Node17 -->
<g id="edge17" class="edge">
<title>Node15&#45;&gt;Node17</title>
<path fill="none" stroke="midnightblue" d="M690.28,-67.45C725.36,-58.8 780.62,-44.78 828,-31 831.15,-30.08 834.42,-29.1 837.69,-28.09"/>
<polygon fill="midnightblue" stroke="midnightblue" points="838.89,-31.38 847.38,-25.04 836.79,-24.7 838.89,-31.38"/>
</g>
<!-- Node18 -->
<g id="node18" class="node">
<title>Node18</title>
<g id="a_node18"><a xlink:title=" ">
<polygon fill="white" stroke="#bfbfbf" points="493,-6 493,-25 531,-25 531,-6 493,-6"/>
<text text-anchor="middle" x="512" y="-13" font-family="Helvetica,sans-Serif" font-size="10.00">map</text>
</a>
</g>
</g>
<!-- Node15&#45;&gt;Node18 -->
<g id="edge18" class="edge">
<title>Node15&#45;&gt;Node18</title>
<path fill="none" stroke="midnightblue" d="M630.91,-67.41C607.43,-58.84 570.86,-44.98 540,-31 539,-30.55 537.99,-30.08 536.97,-29.6"/>
<polygon fill="midnightblue" stroke="midnightblue" points="538.36,-26.38 527.85,-25.07 535.25,-32.65 538.36,-26.38"/>
</g>
<!-- Node19 -->
<g id="node19" class="node">
<title>Node19</title>
<g id="a_node19"><a xlink:title=" ">
<polygon fill="white" stroke="#bfbfbf" points="549.5,-6 549.5,-25 610.5,-25 610.5,-6 549.5,-6"/>
<text text-anchor="middle" x="580" y="-13" font-family="Helvetica,sans-Serif" font-size="10.00">TGraph.h</text>
</a>
</g>
</g>
<!-- Node15&#45;&gt;Node19 -->
<g id="edge19" class="edge">
<title>Node15&#45;&gt;Node19</title>
<path fill="none" stroke="midnightblue" d="M644.25,-67.48C632.45,-58.11 613.26,-42.88 598.92,-31.51"/>
<polygon fill="midnightblue" stroke="midnightblue" points="600.74,-28.48 590.73,-25.01 596.38,-33.97 600.74,-28.48"/>
</g>
<!-- Node20 -->
<g id="node20" class="node">
<title>Node20</title>
<g id="a_node20"><a xlink:title=" ">
<polygon fill="white" stroke="#bfbfbf" points="628.5,-6 628.5,-25 681.5,-25 681.5,-6 628.5,-6"/>
<text text-anchor="middle" x="655" y="-13" font-family="Helvetica,sans-Serif" font-size="10.00">TH2D.h</text>
</a>
</g>
</g>
<!-- Node15&#45;&gt;Node20 -->
<g id="edge20" class="edge">
<title>Node15&#45;&gt;Node20</title>
<path fill="none" stroke="midnightblue" d="M655,-67.48C655,-59.08 655,-45.98 655,-35.16"/>
<polygon fill="midnightblue" stroke="midnightblue" points="658.5,-35.01 655,-25.01 651.5,-35.01 658.5,-35.01"/>
</g>
</g>
</svg>
