<?xml version="1.0" encoding="UTF-8" standalone="no"?>
<!DOCTYPE svg PUBLIC "-//W3C//DTD SVG 1.1//EN"
 "http://www.w3.org/Graphics/SVG/1.1/DTD/svg11.dtd">
<!-- Generated by graphviz version 2.43.0 (0)
 -->
<!-- Title: OMSimSensitiveDetector.cc Pages: 1 -->
<svg width="3401pt" height="313pt"
 viewBox="0.00 0.00 3401.00 313.00" xmlns="http://www.w3.org/2000/svg" xmlns:xlink="http://www.w3.org/1999/xlink">
<g id="graph0" class="graph" transform="scale(1 1) rotate(0) translate(4 309)">
<title>OMSimSensitiveDetector.cc</title>
<!-- Node1 -->
<g id="Node000001" class="node">
<title>Node1</title>
<g id="a_Node000001"><a xlink:title="Enhanced sensitive detector implementation with photon origin tracking.">
<polygon fill="#999999" stroke="#666666" points="2211.5,-305 2059.5,-305 2059.5,-286 2211.5,-286 2211.5,-305"/>
<text text-anchor="middle" x="2135.5" y="-293" font-family="Helvetica,sans-Serif" font-size="10.00">OMSimSensitiveDetector.cc</text>
</a>
</g>
</g>
<!-- Node2 -->
<g id="Node000002" class="node">
<title>Node2</title>
<g id="a_Node000002"><a xlink:title=" ">
<polygon fill="#e0e0e0" stroke="#999999" points="153,-250 0,-250 0,-231 153,-231 153,-250"/>
<text text-anchor="middle" x="76.5" y="-238" font-family="Helvetica,sans-Serif" font-size="10.00">OMSimSensitiveDetector.hh</text>
</a>
</g>
</g>
<!-- Node1&#45;&gt;Node2 -->
<g id="edge1_Node000001_Node000002" class="edge">
<title>Node1&#45;&gt;Node2</title>
<g id="a_edge1_Node000001_Node000002"><a xlink:title=" ">
<path fill="none" stroke="#63b8ff" d="M2059.24,-294.86C1797.07,-295.67 908.43,-294.73 163.5,-250"/>
<polygon fill="#63b8ff" stroke="#63b8ff" points="163.56,-246.5 153.37,-249.39 163.14,-253.49 163.56,-246.5"/>
</a>
</g>
</g>
<!-- Node3 -->
<g id="Node000003" class="node">
<title>Node3</title>
<g id="a_Node000003"><a xlink:title=" ">
<polygon fill="#e0e0e0" stroke="#999999" points="309.5,-250 171.5,-250 171.5,-231 309.5,-231 309.5,-250"/>
<text text-anchor="middle" x="240.5" y="-238" font-family="Helvetica,sans-Serif" font-size="10.00">OMSimTrackingAction.hh</text>
</a>
</g>
</g>
<!-- Node1&#45;&gt;Node3 -->
<g id="edge2_Node000001_Node000003" class="edge">
<title>Node1&#45;&gt;Node3</title>
<g id="a_edge2_Node000001_Node000003"><a xlink:title=" ">
<path fill="none" stroke="#63b8ff" d="M2059.45,-294.74C1810.23,-295.07 995.56,-292.6 323.5,-250 322.38,-249.93 321.25,-249.85 320.12,-249.78"/>
<polygon fill="#63b8ff" stroke="#63b8ff" points="319.99,-246.26 309.76,-249 319.47,-253.24 319.99,-246.26"/>
</a>
</g>
</g>
<!-- Node4 -->
<g id="Node000004" class="node">
<title>Node4</title>
<g id="a_Node000004"><a xlink:href="_o_m_sim_p_m_t_response_8hh.html" target="_top" xlink:title="Simulation of PMT response.">
<polygon fill="white" stroke="#666666" points="783,-250 648,-250 648,-231 783,-231 783,-250"/>
<text text-anchor="middle" x="715.5" y="-238" font-family="Helvetica,sans-Serif" font-size="10.00">OMSimPMTResponse.hh</text>
</a>
</g>
</g>
<!-- Node1&#45;&gt;Node4 -->
<g id="edge3_Node000001_Node000004" class="edge">
<title>Node1&#45;&gt;Node4</title>
<g id="a_edge3_Node000001_Node000004"><a xlink:title=" ">
<path fill="none" stroke="#63b8ff" d="M2059.41,-291.66C1813.52,-282.48 1041.92,-253.68 793.43,-244.41"/>
<polygon fill="#63b8ff" stroke="#63b8ff" points="793.53,-240.91 783.41,-244.03 793.27,-247.91 793.53,-240.91"/>
</a>
</g>
</g>
<!-- Node5 -->
<g id="Node000005" class="node">
<title>Node5</title>
<g id="a_Node000005"><a xlink:title=" ">
<polygon fill="#e0e0e0" stroke="#999999" points="435,-85 316,-85 316,-66 435,-66 435,-85"/>
<text text-anchor="middle" x="375.5" y="-73" font-family="Helvetica,sans-Serif" font-size="10.00">G4SystemOfUnits.hh</text>
</a>
</g>
</g>
<!-- Node1&#45;&gt;Node5 -->
<g id="edge66_Node000001_Node000005" class="edge">
<title>Node1&#45;&gt;Node5</title>
<g id="a_edge66_Node000001_Node000005"><a xlink:title=" ">
<path fill="none" stroke="#63b8ff" d="M2059.04,-294.78C1786.85,-295.4 865.68,-294.12 574.5,-250 484.62,-236.38 438.74,-262.18 377.5,-195 352.64,-167.72 361.63,-120.49 369.25,-94.66"/>
<polygon fill="#63b8ff" stroke="#63b8ff" points="372.62,-95.61 372.32,-85.02 365.95,-93.49 372.62,-95.61"/>
</a>
</g>
</g>
<!-- Node10 -->
<g id="Node000010" class="node">
<title>Node10</title>
<g id="a_Node000010"><a xlink:href="_o_m_sim_command_args_table_8hh.html" target="_top" xlink:title="Definition of the OMSimCommandArgsTable singleton class, which controls user args.">
<polygon fill="white" stroke="#666666" points="567.5,-195 403.5,-195 403.5,-176 567.5,-176 567.5,-195"/>
<text text-anchor="middle" x="485.5" y="-183" font-family="Helvetica,sans-Serif" font-size="10.00">OMSimCommandArgsTable.hh</text>
</a>
</g>
</g>
<!-- Node1&#45;&gt;Node10 -->
<g id="edge9_Node000001_Node000010" class="edge">
<title>Node1&#45;&gt;Node10</title>
<g id="a_edge9_Node000001_Node000010"><a xlink:title=" ">
<path fill="none" stroke="#63b8ff" d="M2059.45,-293.85C1774.28,-291.21 777.68,-279.89 638.5,-250 591.01,-239.8 539.58,-215.42 510.09,-200.01"/>
<polygon fill="#63b8ff" stroke="#63b8ff" points="511.43,-196.76 500.96,-195.16 508.15,-202.94 511.43,-196.76"/>
</a>
</g>
</g>
<!-- Node11 -->
<g id="Node000011" class="node">
<title>Node11</title>
<g id="a_Node000011"><a xlink:href="_o_m_sim_logger_8hh_source.html" target="_top" xlink:title=" ">
<polygon fill="white" stroke="#666666" points="954,-85 855,-85 855,-66 954,-66 954,-85"/>
<text text-anchor="middle" x="904.5" y="-73" font-family="Helvetica,sans-Serif" font-size="10.00">OMSimLogger.hh</text>
</a>
</g>
</g>
<!-- Node1&#45;&gt;Node11 -->
<g id="edge52_Node000001_Node000011" class="edge">
<title>Node1&#45;&gt;Node11</title>
<g id="a_edge52_Node000001_Node000011"><a xlink:title=" ">
<path fill="none" stroke="#63b8ff" d="M2059.44,-286.21C2002.24,-278.81 1929.59,-266.58 1904.5,-250 1846.8,-211.88 1877.75,-154.94 1817.5,-121 1743.55,-79.34 1155.57,-76.23 964.35,-76.34"/>
<polygon fill="#63b8ff" stroke="#63b8ff" points="964.2,-72.84 954.21,-76.34 964.21,-79.84 964.2,-72.84"/>
</a>
</g>
</g>
<!-- Node19 -->
<g id="Node000019" class="node">
<title>Node19</title>
<g id="a_Node000019"><a xlink:title=" ">
<polygon fill="#e0e0e0" stroke="#999999" points="2088,-250 1965,-250 1965,-231 2088,-231 2088,-250"/>
<text text-anchor="middle" x="2026.5" y="-238" font-family="Helvetica,sans-Serif" font-size="10.00">OMSimHitManager.hh</text>
</a>
</g>
</g>
<!-- Node1&#45;&gt;Node19 -->
<g id="edge19_Node000001_Node000019" class="edge">
<title>Node1&#45;&gt;Node19</title>
<g id="a_edge19_Node000001_Node000019"><a xlink:title=" ">
<path fill="none" stroke="#63b8ff" d="M2117.99,-285.98C2100.53,-277.5 2073.49,-264.35 2053.33,-254.54"/>
<polygon fill="#63b8ff" stroke="#63b8ff" points="2054.86,-251.4 2044.33,-250.17 2051.79,-257.69 2054.86,-251.4"/>
</a>
</g>
</g>
<!-- Node20 -->
<g id="Node000020" class="node">
<title>Node20</title>
<g id="a_Node000020"><a xlink:href="_o_m_sim_tools_8hh.html" target="_top" xlink:title="Definition of Tools namespace, a collection of helper methods.">
<polygon fill="white" stroke="#666666" points="1396.5,-250 1304.5,-250 1304.5,-231 1396.5,-231 1396.5,-250"/>
<text text-anchor="middle" x="1350.5" y="-238" font-family="Helvetica,sans-Serif" font-size="10.00">OMSimTools.hh</text>
</a>
</g>
</g>
<!-- Node1&#45;&gt;Node20 -->
<g id="edge20_Node000001_Node000020" class="edge">
<title>Node1&#45;&gt;Node20</title>
<g id="a_edge20_Node000001_Node000020"><a xlink:title=" ">
<path fill="none" stroke="#63b8ff" d="M2059.16,-289.35C1902.01,-278.74 1545.51,-254.67 1407.01,-245.32"/>
<polygon fill="#63b8ff" stroke="#63b8ff" points="1406.85,-241.8 1396.64,-244.61 1406.38,-248.78 1406.85,-241.8"/>
</a>
</g>
</g>
<!-- Node23 -->
<g id="Node000023" class="node">
<title>Node23</title>
<g id="a_Node000023"><a xlink:href="_o_m_sim_op_boundary_process_8hh_source.html" target="_top" xlink:title=" ">
<polygon fill="white" stroke="#666666" points="1730.5,-85 1566.5,-85 1566.5,-66 1730.5,-66 1730.5,-85"/>
<text text-anchor="middle" x="1648.5" y="-73" font-family="Helvetica,sans-Serif" font-size="10.00">OMSimOpBoundaryProcess.hh</text>
</a>
</g>
</g>
<!-- Node1&#45;&gt;Node23 -->
<g id="edge65_Node000001_Node000023" class="edge">
<title>Node1&#45;&gt;Node23</title>
<g id="a_edge65_Node000001_Node000023"><a xlink:title=" ">
<path fill="none" stroke="#63b8ff" d="M2059.33,-286.4C2006.82,-279.39 1942.94,-267.58 1922.5,-250 1876.12,-210.11 1921.11,-160.62 1874.5,-121 1854.25,-103.79 1794.09,-92.45 1740.93,-85.53"/>
<polygon fill="#63b8ff" stroke="#63b8ff" points="1741.11,-82.02 1730.75,-84.25 1740.24,-88.97 1741.11,-82.02"/>
</a>
</g>
</g>
<!-- Node24 -->
<g id="Node000024" class="node">
<title>Node24</title>
<g id="a_Node000024"><a xlink:title=" ">
<polygon fill="#e0e0e0" stroke="#999999" points="2079,-24.5 1966,-24.5 1966,-5.5 2079,-5.5 2079,-24.5"/>
<text text-anchor="middle" x="2022.5" y="-12.5" font-family="Helvetica,sans-Serif" font-size="10.00">G4OpticalPhoton.hh</text>
</a>
</g>
</g>
<!-- Node1&#45;&gt;Node24 -->
<g id="edge60_Node000001_Node000024" class="edge">
<title>Node1&#45;&gt;Node24</title>
<g id="a_edge60_Node000001_Node000024"><a xlink:title=" ">
<path fill="none" stroke="#63b8ff" d="M2074.25,-285.97C2029.05,-278.49 1972.57,-266.27 1955.5,-250 1934.17,-229.68 1936.5,-215.96 1936.5,-186.5 1936.5,-186.5 1936.5,-186.5 1936.5,-129.5 1936.5,-86.82 1975.61,-50.08 2001.08,-30.69"/>
<polygon fill="#63b8ff" stroke="#63b8ff" points="2003.44,-33.3 2009.44,-24.57 1999.3,-27.65 2003.44,-33.3"/>
</a>
</g>
</g>
<!-- Node59 -->
<g id="Node000059" class="node">
<title>Node59</title>
<g id="a_Node000059"><a xlink:title=" ">
<polygon fill="#e0e0e0" stroke="#999999" points="2165,-250 2106,-250 2106,-231 2165,-231 2165,-250"/>
<text text-anchor="middle" x="2135.5" y="-238" font-family="Helvetica,sans-Serif" font-size="10.00">G4ios.hh</text>
</a>
</g>
</g>
<!-- Node1&#45;&gt;Node59 -->
<g id="edge53_Node000001_Node000059" class="edge">
<title>Node1&#45;&gt;Node59</title>
<g id="a_edge53_Node000001_Node000059"><a xlink:title=" ">
<path fill="none" stroke="#63b8ff" d="M2135.5,-285.75C2135.5,-278.8 2135.5,-268.85 2135.5,-260.13"/>
<polygon fill="#63b8ff" stroke="#63b8ff" points="2139,-260.09 2135.5,-250.09 2132,-260.09 2139,-260.09"/>
</a>
</g>
</g>
<!-- Node60 -->
<g id="Node000060" class="node">
<title>Node60</title>
<g id="a_Node000060"><a xlink:title=" ">
<polygon fill="#e0e0e0" stroke="#999999" points="2311.5,-250 2183.5,-250 2183.5,-231 2311.5,-231 2311.5,-250"/>
<text text-anchor="middle" x="2247.5" y="-238" font-family="Helvetica,sans-Serif" font-size="10.00">G4ParticleDefinition.hh</text>
</a>
</g>
</g>
<!-- Node1&#45;&gt;Node60 -->
<g id="edge54_Node000001_Node000060" class="edge">
<title>Node1&#45;&gt;Node60</title>
<g id="a_edge54_Node000001_Node000060"><a xlink:title=" ">
<path fill="none" stroke="#63b8ff" d="M2153.49,-285.98C2171.43,-277.5 2199.22,-264.35 2219.93,-254.54"/>
<polygon fill="#63b8ff" stroke="#63b8ff" points="2221.64,-257.61 2229.18,-250.17 2218.64,-251.28 2221.64,-257.61"/>
</a>
</g>
</g>
<!-- Node61 -->
<g id="Node000061" class="node">
<title>Node61</title>
<g id="a_Node000061"><a xlink:title=" ">
<polygon fill="#e0e0e0" stroke="#999999" points="2439,-250 2330,-250 2330,-231 2439,-231 2439,-250"/>
<text text-anchor="middle" x="2384.5" y="-238" font-family="Helvetica,sans-Serif" font-size="10.00">G4ParticleTypes.hh</text>
</a>
</g>
</g>
<!-- Node1&#45;&gt;Node61 -->
<g id="edge55_Node000001_Node000061" class="edge">
<title>Node1&#45;&gt;Node61</title>
<g id="a_edge55_Node000001_Node000061"><a xlink:title=" ">
<path fill="none" stroke="#63b8ff" d="M2175.51,-285.98C2218.67,-276.8 2287.48,-262.15 2334.26,-252.19"/>
<polygon fill="#63b8ff" stroke="#63b8ff" points="2335.13,-255.59 2344.18,-250.08 2333.67,-248.74 2335.13,-255.59"/>
</a>
</g>
</g>
<!-- Node62 -->
<g id="Node000062" class="node">
<title>Node62</title>
<g id="a_Node000062"><a xlink:title=" ">
<polygon fill="#e0e0e0" stroke="#999999" points="2524,-250 2457,-250 2457,-231 2524,-231 2524,-250"/>
<text text-anchor="middle" x="2490.5" y="-238" font-family="Helvetica,sans-Serif" font-size="10.00">G4Step.hh</text>
</a>
</g>
</g>
<!-- Node1&#45;&gt;Node62 -->
<g id="edge56_Node000001_Node000062" class="edge">
<title>Node1&#45;&gt;Node62</title>
<g id="a_edge56_Node000001_Node000062"><a xlink:title=" ">
<path fill="none" stroke="#63b8ff" d="M2202.61,-285.98C2263.68,-277.99 2356.54,-265.24 2446.87,-250.03"/>
<polygon fill="#63b8ff" stroke="#63b8ff" points="2447.46,-253.48 2456.73,-248.35 2446.29,-246.57 2447.46,-253.48"/>
</a>
</g>
</g>
<!-- Node63 -->
<g id="Node000063" class="node">
<title>Node63</title>
<g id="a_Node000063"><a xlink:title=" ">
<polygon fill="#e0e0e0" stroke="#999999" points="2670.5,-250 2542.5,-250 2542.5,-231 2670.5,-231 2670.5,-250"/>
<text text-anchor="middle" x="2606.5" y="-238" font-family="Helvetica,sans-Serif" font-size="10.00">G4TouchableHistory.hh</text>
</a>
</g>
</g>
<!-- Node1&#45;&gt;Node63 -->
<g id="edge57_Node000001_Node000063" class="edge">
<title>Node1&#45;&gt;Node63</title>
<g id="a_edge57_Node000001_Node000063"><a xlink:title=" ">
<path fill="none" stroke="#63b8ff" d="M2211.61,-286.03C2289.35,-277.37 2413.83,-263.45 2532.35,-250.01"/>
<polygon fill="#63b8ff" stroke="#63b8ff" points="2532.78,-253.49 2542.33,-248.88 2532,-246.53 2532.78,-253.49"/>
</a>
</g>
</g>
<!-- Node64 -->
<g id="Node000064" class="node">
<title>Node64</title>
<g id="a_Node000064"><a xlink:title=" ">
<polygon fill="#e0e0e0" stroke="#999999" points="2760,-250 2689,-250 2689,-231 2760,-231 2760,-250"/>
<text text-anchor="middle" x="2724.5" y="-238" font-family="Helvetica,sans-Serif" font-size="10.00">G4Track.hh</text>
</a>
</g>
</g>
<!-- Node1&#45;&gt;Node64 -->
<g id="edge58_Node000001_Node000064" class="edge">
<title>Node1&#45;&gt;Node64</title>
<g id="a_edge58_Node000001_Node000064"><a xlink:title=" ">
<path fill="none" stroke="#63b8ff" d="M2211.9,-290.79C2315.4,-285.19 2506.08,-272.88 2678.66,-249.96"/>
<polygon fill="#63b8ff" stroke="#63b8ff" points="2679.25,-253.41 2688.69,-248.61 2678.32,-246.48 2679.25,-253.41"/>
</a>
</g>
</g>
<!-- Node65 -->
<g id="Node000065" class="node">
<title>Node65</title>
<g id="a_Node000065"><a xlink:title=" ">
<polygon fill="#e0e0e0" stroke="#999999" points="2879,-250 2778,-250 2778,-231 2879,-231 2879,-250"/>
<text text-anchor="middle" x="2828.5" y="-238" font-family="Helvetica,sans-Serif" font-size="10.00">G4VTouchable.hh</text>
</a>
</g>
</g>
<!-- Node1&#45;&gt;Node65 -->
<g id="edge59_Node000001_Node000065" class="edge">
<title>Node1&#45;&gt;Node65</title>
<g id="a_edge59_Node000001_Node000065"><a xlink:title=" ">
<path fill="none" stroke="#63b8ff" d="M2211.78,-290.95C2329.1,-285.09 2561.09,-271.91 2767.86,-250.1"/>
<polygon fill="#63b8ff" stroke="#63b8ff" points="2768.43,-253.56 2778,-249.02 2767.69,-246.6 2768.43,-253.56"/>
</a>
</g>
</g>
<!-- Node66 -->
<g id="Node000066" class="node">
<title>Node66</title>
<g id="a_Node000066"><a xlink:title=" ">
<polygon fill="#e0e0e0" stroke="#999999" points="2986,-250 2897,-250 2897,-231 2986,-231 2986,-250"/>
<text text-anchor="middle" x="2941.5" y="-238" font-family="Helvetica,sans-Serif" font-size="10.00">G4VProcess.hh</text>
</a>
</g>
</g>
<!-- Node1&#45;&gt;Node66 -->
<g id="edge61_Node000001_Node000066" class="edge">
<title>Node1&#45;&gt;Node66</title>
<g id="a_edge61_Node000001_Node000066"><a xlink:title=" ">
<path fill="none" stroke="#63b8ff" d="M2211.6,-292.52C2345.94,-288.47 2634.08,-277.3 2886.62,-250.1"/>
<polygon fill="#63b8ff" stroke="#63b8ff" points="2887.16,-253.56 2896.72,-249 2886.4,-246.61 2887.16,-253.56"/>
</a>
</g>
</g>
<!-- Node67 -->
<g id="Node000067" class="node">
<title>Node67</title>
<g id="a_Node000067"><a xlink:title=" ">
<polygon fill="#e0e0e0" stroke="#999999" points="3117,-250 3004,-250 3004,-231 3117,-231 3117,-250"/>
<text text-anchor="middle" x="3060.5" y="-238" font-family="Helvetica,sans-Serif" font-size="10.00">G4ProcessVector.hh</text>
</a>
</g>
</g>
<!-- Node1&#45;&gt;Node67 -->
<g id="edge62_Node000001_Node000067" class="edge">
<title>Node1&#45;&gt;Node67</title>
<g id="a_edge62_Node000001_Node000067"><a xlink:title=" ">
<path fill="none" stroke="#63b8ff" d="M2211.57,-292.56C2360.02,-288.35 2698.93,-276.59 2993.78,-250.09"/>
<polygon fill="#63b8ff" stroke="#63b8ff" points="2994.17,-253.57 3003.81,-249.18 2993.53,-246.6 2994.17,-253.57"/>
</a>
</g>
</g>
<!-- Node68 -->
<g id="Node000068" class="node">
<title>Node68</title>
<g id="a_Node000068"><a xlink:title=" ">
<polygon fill="#e0e0e0" stroke="#999999" points="3260,-250 3135,-250 3135,-231 3260,-231 3260,-250"/>
<text text-anchor="middle" x="3197.5" y="-238" font-family="Helvetica,sans-Serif" font-size="10.00">G4ProcessManager.hh</text>
</a>
</g>
</g>
<!-- Node1&#45;&gt;Node68 -->
<g id="edge63_Node000001_Node000068" class="edge">
<title>Node1&#45;&gt;Node68</title>
<g id="a_edge63_Node000001_Node000068"><a xlink:title=" ">
<path fill="none" stroke="#63b8ff" d="M2211.78,-293.01C2376.56,-289.36 2778.26,-278.2 3124.83,-250.08"/>
<polygon fill="#63b8ff" stroke="#63b8ff" points="3125.12,-253.56 3134.81,-249.26 3124.55,-246.59 3125.12,-253.56"/>
</a>
</g>
</g>
<!-- Node69 -->
<g id="Node000069" class="node">
<title>Node69</title>
<g id="a_Node000069"><a xlink:title=" ">
<polygon fill="#e0e0e0" stroke="#999999" points="3393,-250 3278,-250 3278,-231 3393,-231 3393,-250"/>
<text text-anchor="middle" x="3335.5" y="-238" font-family="Helvetica,sans-Serif" font-size="10.00">G4EventManager.hh</text>
</a>
</g>
</g>
<!-- Node1&#45;&gt;Node69 -->
<g id="edge64_Node000001_Node000069" class="edge">
<title>Node1&#45;&gt;Node69</title>
<g id="a_edge64_Node000001_Node000069"><a xlink:title=" ">
<path fill="none" stroke="#63b8ff" d="M2211.63,-293.85C2392.85,-291.78 2864.25,-283.46 3267.82,-250.06"/>
<polygon fill="#63b8ff" stroke="#63b8ff" points="3268.26,-253.54 3277.94,-249.22 3267.68,-246.56 3268.26,-253.54"/>
</a>
</g>
</g>
<!-- Node4&#45;&gt;Node5 -->
<g id="edge4_Node000004_Node000005" class="edge">
<title>Node4&#45;&gt;Node5</title>
<g id="a_edge4_Node000004_Node000005"><a xlink:title=" ">
<path fill="none" stroke="#63b8ff" d="M647.84,-239.25C564.42,-237.45 429.38,-229.14 394.5,-195 367.91,-168.97 369.17,-121.6 372.37,-95.32"/>
<polygon fill="#63b8ff" stroke="#63b8ff" points="375.87,-95.57 373.83,-85.18 368.94,-94.58 375.87,-95.57"/>
</a>
</g>
</g>
<!-- Node6 -->
<g id="Node000006" class="node">
<title>Node6</title>
<g id="a_Node000006"><a xlink:title=" ">
<polygon fill="#e0e0e0" stroke="#999999" points="659,-195 586,-195 586,-176 659,-176 659,-195"/>
<text text-anchor="middle" x="622.5" y="-183" font-family="Helvetica,sans-Serif" font-size="10.00">G4Types.hh</text>
</a>
</g>
</g>
<!-- Node4&#45;&gt;Node6 -->
<g id="edge5_Node000004_Node000006" class="edge">
<title>Node4&#45;&gt;Node6</title>
<g id="a_edge5_Node000004_Node000006"><a xlink:title=" ">
<path fill="none" stroke="#63b8ff" d="M700.56,-230.98C686,-222.69 663.63,-209.94 646.57,-200.22"/>
<polygon fill="#63b8ff" stroke="#63b8ff" points="648.14,-197.08 637.71,-195.17 644.67,-203.16 648.14,-197.08"/>
</a>
</g>
</g>
<!-- Node7 -->
<g id="Node000007" class="node">
<title>Node7</title>
<g id="a_Node000007"><a xlink:title=" ">
<polygon fill="#e0e0e0" stroke="#999999" points="706.5,-140 668.5,-140 668.5,-121 706.5,-121 706.5,-140"/>
<text text-anchor="middle" x="687.5" y="-128" font-family="Helvetica,sans-Serif" font-size="10.00">map</text>
</a>
</g>
</g>
<!-- Node4&#45;&gt;Node7 -->
<g id="edge6_Node000004_Node000007" class="edge">
<title>Node4&#45;&gt;Node7</title>
<g id="a_edge6_Node000004_Node000007"><a xlink:title=" ">
<path fill="none" stroke="#63b8ff" d="M713.21,-230.66C708.65,-213.09 698.38,-173.45 692.28,-149.95"/>
<polygon fill="#63b8ff" stroke="#63b8ff" points="695.64,-148.96 689.74,-140.16 688.87,-150.72 695.64,-148.96"/>
</a>
</g>
</g>
<!-- Node8 -->
<g id="Node000008" class="node">
<title>Node8</title>
<g id="a_Node000008"><a xlink:title=" ">
<polygon fill="#e0e0e0" stroke="#999999" points="848,-195 787,-195 787,-176 848,-176 848,-195"/>
<text text-anchor="middle" x="817.5" y="-183" font-family="Helvetica,sans-Serif" font-size="10.00">TGraph.h</text>
</a>
</g>
</g>
<!-- Node4&#45;&gt;Node8 -->
<g id="edge7_Node000004_Node000008" class="edge">
<title>Node4&#45;&gt;Node8</title>
<g id="a_edge7_Node000004_Node000008"><a xlink:title=" ">
<path fill="none" stroke="#63b8ff" d="M731.89,-230.98C748.07,-222.57 773.07,-209.59 791.88,-199.81"/>
<polygon fill="#63b8ff" stroke="#63b8ff" points="793.55,-202.89 800.81,-195.17 790.33,-196.68 793.55,-202.89"/>
</a>
</g>
</g>
<!-- Node9 -->
<g id="Node000009" class="node">
<title>Node9</title>
<g id="a_Node000009"><a xlink:title=" ">
<polygon fill="#e0e0e0" stroke="#999999" points="769,-195 716,-195 716,-176 769,-176 769,-195"/>
<text text-anchor="middle" x="742.5" y="-183" font-family="Helvetica,sans-Serif" font-size="10.00">TH2D.h</text>
</a>
</g>
</g>
<!-- Node4&#45;&gt;Node9 -->
<g id="edge8_Node000004_Node000009" class="edge">
<title>Node4&#45;&gt;Node9</title>
<g id="a_edge8_Node000004_Node000009"><a xlink:title=" ">
<path fill="none" stroke="#63b8ff" d="M719.96,-230.75C723.62,-223.57 728.91,-213.18 733.45,-204.27"/>
<polygon fill="#63b8ff" stroke="#63b8ff" points="736.7,-205.59 738.12,-195.09 730.47,-202.41 736.7,-205.59"/>
</a>
</g>
</g>
<!-- Node10&#45;&gt;Node7 -->
<g id="edge18_Node000010_Node000007" class="edge">
<title>Node10&#45;&gt;Node7</title>
<g id="a_edge18_Node000010_Node000007"><a xlink:title=" ">
<path fill="none" stroke="#63b8ff" d="M517.95,-175.98C556.9,-165.77 621.58,-148.8 658.78,-139.04"/>
<polygon fill="#63b8ff" stroke="#63b8ff" points="659.71,-142.41 668.5,-136.49 657.94,-135.64 659.71,-142.41"/>
</a>
</g>
</g>
<!-- Node10&#45;&gt;Node11 -->
<g id="edge10_Node000010_Node000011" class="edge">
<title>Node10&#45;&gt;Node11</title>
<g id="a_edge10_Node000010_Node000011"><a xlink:title=" ">
<path fill="none" stroke="#63b8ff" d="M505.5,-175.93C537.49,-162.51 602.39,-136.49 659.5,-121 721.76,-104.12 794.68,-91.8 844.68,-84.46"/>
<polygon fill="#63b8ff" stroke="#63b8ff" points="845.28,-87.91 854.68,-83.01 844.28,-80.98 845.28,-87.91"/>
</a>
</g>
</g>
<!-- Node16 -->
<g id="Node000016" class="node">
<title>Node16</title>
<g id="a_Node000016"><a xlink:title=" ">
<polygon fill="#e0e0e0" stroke="#999999" points="814,-140 759,-140 759,-121 814,-121 814,-140"/>
<text text-anchor="middle" x="786.5" y="-128" font-family="Helvetica,sans-Serif" font-size="10.00">fstream</text>
</a>
</g>
</g>
<!-- Node10&#45;&gt;Node16 -->
<g id="edge15_Node000010_Node000016" class="edge">
<title>Node10&#45;&gt;Node16</title>
<g id="a_edge15_Node000010_Node000016"><a xlink:title=" ">
<path fill="none" stroke="#63b8ff" d="M533.86,-175.98C593.81,-165.43 694.7,-147.66 749.08,-138.09"/>
<polygon fill="#63b8ff" stroke="#63b8ff" points="749.75,-141.53 758.99,-136.34 748.53,-134.63 749.75,-141.53"/>
</a>
</g>
</g>
<!-- Node17 -->
<g id="Node000017" class="node">
<title>Node17</title>
<g id="a_Node000017"><a xlink:title=" ">
<polygon fill="#e0e0e0" stroke="#999999" points="497.5,-140 413.5,-140 413.5,-121 497.5,-121 497.5,-140"/>
<text text-anchor="middle" x="455.5" y="-128" font-family="Helvetica,sans-Serif" font-size="10.00">boost/any.hpp</text>
</a>
</g>
</g>
<!-- Node10&#45;&gt;Node17 -->
<g id="edge16_Node000010_Node000017" class="edge">
<title>Node10&#45;&gt;Node17</title>
<g id="a_edge16_Node000010_Node000017"><a xlink:title=" ">
<path fill="none" stroke="#63b8ff" d="M480.55,-175.75C476.44,-168.49 470.47,-157.95 465.4,-148.98"/>
<polygon fill="#63b8ff" stroke="#63b8ff" points="468.33,-147.07 460.36,-140.09 462.24,-150.52 468.33,-147.07"/>
</a>
</g>
</g>
<!-- Node18 -->
<g id="Node000018" class="node">
<title>Node18</title>
<g id="a_Node000018"><a xlink:title=" ">
<polygon fill="#e0e0e0" stroke="#999999" points="583.5,-140 515.5,-140 515.5,-121 583.5,-121 583.5,-140"/>
<text text-anchor="middle" x="549.5" y="-128" font-family="Helvetica,sans-Serif" font-size="10.00">sys/time.h</text>
</a>
</g>
</g>
<!-- Node10&#45;&gt;Node18 -->
<g id="edge17_Node000010_Node000018" class="edge">
<title>Node10&#45;&gt;Node18</title>
<g id="a_edge17_Node000010_Node000018"><a xlink:title=" ">
<path fill="none" stroke="#63b8ff" d="M495.78,-175.98C505.34,-168.07 519.78,-156.11 531.28,-146.58"/>
<polygon fill="#63b8ff" stroke="#63b8ff" points="533.56,-149.24 539.03,-140.17 529.1,-143.85 533.56,-149.24"/>
</a>
</g>
</g>
<!-- Node12 -->
<g id="Node000012" class="node">
<title>Node12</title>
<g id="a_Node000012"><a xlink:title=" ">
<polygon fill="#e0e0e0" stroke="#999999" points="820,-24.5 727,-24.5 727,-5.5 820,-5.5 820,-24.5"/>
<text text-anchor="middle" x="773.5" y="-12.5" font-family="Helvetica,sans-Serif" font-size="10.00">spdlog/spdlog.h</text>
</a>
</g>
</g>
<!-- Node11&#45;&gt;Node12 -->
<g id="edge11_Node000011_Node000012" class="edge">
<title>Node11&#45;&gt;Node12</title>
<g id="a_edge11_Node000011_Node000012"><a xlink:title=" ">
<path fill="none" stroke="#63b8ff" d="M885.45,-65.99C863.53,-56.2 827.29,-40.02 802,-28.73"/>
<polygon fill="#63b8ff" stroke="#63b8ff" points="803.13,-25.4 792.57,-24.52 800.28,-31.79 803.13,-25.4"/>
</a>
</g>
</g>
<!-- Node13 -->
<g id="Node000013" class="node">
<title>Node13</title>
<g id="a_Node000013"><a xlink:title=" ">
<polygon fill="#e0e0e0" stroke="#999999" points="949,-30 838,-30 838,0 949,0 949,-30"/>
<text text-anchor="start" x="846" y="-18" font-family="Helvetica,sans-Serif" font-size="10.00">spdlog/sinks/stdout</text>
<text text-anchor="middle" x="893.5" y="-7" font-family="Helvetica,sans-Serif" font-size="10.00">_color_sinks.h</text>
</a>
</g>
</g>
<!-- Node11&#45;&gt;Node13 -->
<g id="edge12_Node000011_Node000013" class="edge">
<title>Node11&#45;&gt;Node13</title>
<g id="a_edge12_Node000011_Node000013"><a xlink:title=" ">
<path fill="none" stroke="#63b8ff" d="M902.88,-65.87C901.59,-59.03 899.73,-49.14 898.01,-39.97"/>
<polygon fill="#63b8ff" stroke="#63b8ff" points="901.44,-39.3 896.15,-30.11 894.56,-40.59 901.44,-39.3"/>
</a>
</g>
</g>
<!-- Node14 -->
<g id="Node000014" class="node">
<title>Node14</title>
<g id="a_Node000014"><a xlink:title=" ">
<polygon fill="#e0e0e0" stroke="#999999" points="1141.5,-24.5 1083.5,-24.5 1083.5,-5.5 1141.5,-5.5 1141.5,-24.5"/>
<text text-anchor="middle" x="1112.5" y="-12.5" font-family="Helvetica,sans-Serif" font-size="10.00">memory</text>
</a>
</g>
</g>
<!-- Node11&#45;&gt;Node14 -->
<g id="edge13_Node000011_Node000014" class="edge">
<title>Node11&#45;&gt;Node14</title>
<g id="a_edge13_Node000011_Node000014"><a xlink:title=" ">
<path fill="none" stroke="#63b8ff" d="M941.27,-65.97C975.9,-57.67 1029.1,-44.27 1074.5,-30 1076.63,-29.33 1078.81,-28.61 1081,-27.87"/>
<polygon fill="#63b8ff" stroke="#63b8ff" points="1082.26,-31.14 1090.52,-24.51 1079.93,-24.54 1082.26,-31.14"/>
</a>
</g>
</g>
<!-- Node15 -->
<g id="Node000015" class="node">
<title>Node15</title>
<g id="a_Node000015"><a xlink:title=" ">
<polygon fill="#e0e0e0" stroke="#999999" points="1065.5,-24.5 967.5,-24.5 967.5,-5.5 1065.5,-5.5 1065.5,-24.5"/>
<text text-anchor="middle" x="1016.5" y="-12.5" font-family="Helvetica,sans-Serif" font-size="10.00">spdlog/fmt/fmt.h</text>
</a>
</g>
</g>
<!-- Node11&#45;&gt;Node15 -->
<g id="edge14_Node000011_Node000015" class="edge">
<title>Node11&#45;&gt;Node15</title>
<g id="a_edge14_Node000011_Node000015"><a xlink:title=" ">
<path fill="none" stroke="#63b8ff" d="M921.03,-65.87C939.47,-56.23 969.54,-40.53 991.01,-29.31"/>
<polygon fill="#63b8ff" stroke="#63b8ff" points="992.66,-32.4 999.91,-24.67 989.42,-26.19 992.66,-32.4"/>
</a>
</g>
</g>
<!-- Node20&#45;&gt;Node8 -->
<g id="edge37_Node000020_Node000008" class="edge">
<title>Node20&#45;&gt;Node8</title>
<g id="a_edge37_Node000020_Node000008"><a xlink:title=" ">
<path fill="none" stroke="#63b8ff" d="M1304.24,-236.76C1217.38,-231.3 1024.06,-217.57 862.5,-195 861.22,-194.82 859.91,-194.63 858.6,-194.43"/>
<polygon fill="#63b8ff" stroke="#63b8ff" points="858.86,-190.92 848.42,-192.74 857.71,-197.83 858.86,-190.92"/>
</a>
</g>
</g>
<!-- Node20&#45;&gt;Node9 -->
<g id="edge38_Node000020_Node000009" class="edge">
<title>Node20&#45;&gt;Node9</title>
<g id="a_edge38_Node000020_Node000009"><a xlink:title=" ">
<path fill="none" stroke="#63b8ff" d="M1304.16,-238.42C1207.92,-235.64 979.37,-226.22 779.27,-195.04"/>
<polygon fill="#63b8ff" stroke="#63b8ff" points="779.59,-191.55 769.16,-193.44 778.49,-198.46 779.59,-191.55"/>
</a>
</g>
</g>
<!-- Node20&#45;&gt;Node10 -->
<g id="edge34_Node000020_Node000010" class="edge">
<title>Node20&#45;&gt;Node10</title>
<g id="a_edge34_Node000020_Node000010"><a xlink:title=" ">
<path fill="none" stroke="#63b8ff" d="M1304.22,-237.42C1185.48,-231.95 860.06,-216.18 577.85,-195.08"/>
<polygon fill="#63b8ff" stroke="#63b8ff" points="578.06,-191.58 567.83,-194.32 577.54,-198.56 578.06,-191.58"/>
</a>
</g>
</g>
<!-- Node20&#45;&gt;Node11 -->
<g id="edge21_Node000020_Node000011" class="edge">
<title>Node20&#45;&gt;Node11</title>
<g id="a_edge21_Node000020_Node000011"><a xlink:title=" ">
<path fill="none" stroke="#63b8ff" d="M1304.36,-238.43C1194.14,-235.39 922.63,-224.91 895.5,-195 870.53,-167.46 885.16,-119.99 896.03,-94.28"/>
<polygon fill="#63b8ff" stroke="#63b8ff" points="899.29,-95.56 900.19,-85.01 892.9,-92.7 899.29,-95.56"/>
</a>
</g>
</g>
<!-- Node21 -->
<g id="Node000021" class="node">
<title>Node21</title>
<g id="a_Node000021"><a xlink:href="_o_m_sim_detector_component_8hh.html" target="_top" xlink:title="Provides helper base class OMSimDetectorComponent for constructing and managing detector components i...">
<polygon fill="#fff0f0" stroke="red" points="1206,-195 1041,-195 1041,-176 1206,-176 1206,-195"/>
<text text-anchor="middle" x="1123.5" y="-183" font-family="Helvetica,sans-Serif" font-size="10.00">OMSimDetectorComponent.hh</text>
</a>
</g>
</g>
<!-- Node20&#45;&gt;Node21 -->
<g id="edge22_Node000020_Node000021" class="edge">
<title>Node20&#45;&gt;Node21</title>
<g id="a_edge22_Node000020_Node000021"><a xlink:title=" ">
<path fill="none" stroke="#63b8ff" d="M1314.03,-230.98C1274.93,-221.86 1212.73,-207.33 1170.11,-197.38"/>
<polygon fill="#63b8ff" stroke="#63b8ff" points="1170.79,-193.95 1160.26,-195.08 1169.2,-200.76 1170.79,-193.95"/>
</a>
</g>
</g>
<!-- Node36 -->
<g id="Node000036" class="node">
<title>Node36</title>
<g id="a_Node000036"><a xlink:title=" ">
<polygon fill="#e0e0e0" stroke="#999999" points="1516,-195 1379,-195 1379,-176 1516,-176 1516,-195"/>
<text text-anchor="middle" x="1447.5" y="-183" font-family="Helvetica,sans-Serif" font-size="10.00">G4LogicalSkinSurface.hh</text>
</a>
</g>
</g>
<!-- Node20&#45;&gt;Node36 -->
<g id="edge35_Node000020_Node000036" class="edge">
<title>Node20&#45;&gt;Node36</title>
<g id="a_edge35_Node000020_Node000036"><a xlink:title=" ">
<path fill="none" stroke="#63b8ff" d="M1366.08,-230.98C1381.27,-222.69 1404.6,-209.94 1422.4,-200.22"/>
<polygon fill="#63b8ff" stroke="#63b8ff" points="1424.53,-203.04 1431.63,-195.17 1421.18,-196.89 1424.53,-203.04"/>
</a>
</g>
</g>
<!-- Node37 -->
<g id="Node000037" class="node">
<title>Node37</title>
<g id="a_Node000037"><a xlink:title=" ">
<polygon fill="#e0e0e0" stroke="#999999" points="1641,-140 1574,-140 1574,-121 1641,-121 1641,-140"/>
<text text-anchor="middle" x="1607.5" y="-128" font-family="Helvetica,sans-Serif" font-size="10.00">globals.hh</text>
</a>
</g>
</g>
<!-- Node20&#45;&gt;Node37 -->
<g id="edge36_Node000020_Node000037" class="edge">
<title>Node20&#45;&gt;Node37</title>
<g id="a_edge36_Node000020_Node000037"><a xlink:title=" ">
<path fill="none" stroke="#63b8ff" d="M1396.75,-237.96C1499.81,-234.04 1741.19,-222.05 1765.5,-195 1800.91,-155.58 1709.29,-140.23 1651.15,-134.57"/>
<polygon fill="#63b8ff" stroke="#63b8ff" points="1651.35,-131.08 1641.08,-133.65 1650.72,-138.05 1651.35,-131.08"/>
</a>
</g>
</g>
<!-- Node38 -->
<g id="Node000038" class="node">
<title>Node38</title>
<g id="a_Node000038"><a xlink:title=" ">
<polygon fill="#e0e0e0" stroke="#999999" points="1682,-195 1631,-195 1631,-176 1682,-176 1682,-195"/>
<text text-anchor="middle" x="1656.5" y="-183" font-family="Helvetica,sans-Serif" font-size="10.00">variant</text>
</a>
</g>
</g>
<!-- Node20&#45;&gt;Node38 -->
<g id="edge39_Node000020_Node000038" class="edge">
<title>Node20&#45;&gt;Node38</title>
<g id="a_edge39_Node000020_Node000038"><a xlink:title=" ">
<path fill="none" stroke="#63b8ff" d="M1396.73,-233C1448.82,-225.42 1536.22,-212 1621.13,-194.93"/>
<polygon fill="#63b8ff" stroke="#63b8ff" points="1621.83,-198.36 1630.94,-192.94 1620.44,-191.5 1621.83,-198.36"/>
</a>
</g>
</g>
<!-- Node39 -->
<g id="Node000039" class="node">
<title>Node39</title>
<g id="a_Node000039"><a xlink:title=" ">
<polygon fill="#e0e0e0" stroke="#999999" points="1756.5,-195 1700.5,-195 1700.5,-176 1756.5,-176 1756.5,-195"/>
<text text-anchor="middle" x="1728.5" y="-183" font-family="Helvetica,sans-Serif" font-size="10.00">optional</text>
</a>
</g>
</g>
<!-- Node20&#45;&gt;Node39 -->
<g id="edge40_Node000020_Node000039" class="edge">
<title>Node20&#45;&gt;Node39</title>
<g id="a_edge40_Node000020_Node000039"><a xlink:title=" ">
<path fill="none" stroke="#63b8ff" d="M1396.62,-234.79C1462.19,-227.8 1586.01,-213.49 1690.5,-195 1690.6,-194.98 1690.7,-194.96 1690.8,-194.95"/>
<polygon fill="#63b8ff" stroke="#63b8ff" points="1691.19,-198.44 1700.34,-193.1 1689.85,-191.57 1691.19,-198.44"/>
</a>
</g>
</g>
<!-- Node40 -->
<g id="Node000040" class="node">
<title>Node40</title>
<g id="a_Node000040"><a xlink:title=" ">
<polygon fill="#e0e0e0" stroke="#999999" points="1809,-140 1706,-140 1706,-121 1809,-121 1809,-140"/>
<text text-anchor="middle" x="1757.5" y="-128" font-family="Helvetica,sans-Serif" font-size="10.00">G4ThreeVector.hh</text>
</a>
</g>
</g>
<!-- Node20&#45;&gt;Node40 -->
<g id="edge41_Node000020_Node000040" class="edge">
<title>Node20&#45;&gt;Node40</title>
<g id="a_edge41_Node000020_Node000040"><a xlink:title=" ">
<path fill="none" stroke="#63b8ff" d="M1396.76,-238.18C1503.12,-234.66 1757.93,-223.33 1783.5,-195 1795.53,-181.67 1784.38,-162.03 1773.18,-148.12"/>
<polygon fill="#63b8ff" stroke="#63b8ff" points="1775.6,-145.57 1766.4,-140.32 1770.31,-150.16 1775.6,-145.57"/>
</a>
</g>
</g>
<!-- Node41 -->
<g id="Node000041" class="node">
<title>Node41</title>
<g id="a_Node000041"><a xlink:title=" ">
<polygon fill="#e0e0e0" stroke="#999999" points="1022.5,-195 904.5,-195 904.5,-176 1022.5,-176 1022.5,-195"/>
<text text-anchor="middle" x="963.5" y="-183" font-family="Helvetica,sans-Serif" font-size="10.00">G4RotationMatrix.hh</text>
</a>
</g>
</g>
<!-- Node20&#45;&gt;Node41 -->
<g id="edge42_Node000020_Node000041" class="edge">
<title>Node20&#45;&gt;Node41</title>
<g id="a_edge42_Node000020_Node000041"><a xlink:title=" ">
<path fill="none" stroke="#63b8ff" d="M1304.2,-233.16C1236.9,-223.94 1111.55,-206.78 1033.09,-196.03"/>
<polygon fill="#63b8ff" stroke="#63b8ff" points="1033.2,-192.51 1022.82,-194.62 1032.25,-199.45 1033.2,-192.51"/>
</a>
</g>
</g>
<!-- Node42 -->
<g id="Node000042" class="node">
<title>Node42</title>
<g id="a_Node000042"><a xlink:title=" ">
<polygon fill="#e0e0e0" stroke="#999999" points="1447.5,-140 1331.5,-140 1331.5,-121 1447.5,-121 1447.5,-140"/>
<text text-anchor="middle" x="1389.5" y="-128" font-family="Helvetica,sans-Serif" font-size="10.00">G4LogicalVolume.hh</text>
</a>
</g>
</g>
<!-- Node20&#45;&gt;Node42 -->
<g id="edge43_Node000020_Node000042" class="edge">
<title>Node20&#45;&gt;Node42</title>
<g id="a_edge43_Node000020_Node000042"><a xlink:title=" ">
<path fill="none" stroke="#63b8ff" d="M1352.73,-230.75C1355.96,-218.4 1362.35,-195.19 1369.5,-176 1372.83,-167.07 1377.09,-157.4 1380.83,-149.35"/>
<polygon fill="#63b8ff" stroke="#63b8ff" points="1384.04,-150.76 1385.17,-140.22 1377.71,-147.75 1384.04,-150.76"/>
</a>
</g>
</g>
<!-- Node43 -->
<g id="Node000043" class="node">
<title>Node43</title>
<g id="a_Node000043"><a xlink:href="_c_a_d_mesh_8hh_source.html" target="_top" xlink:title=" ">
<polygon fill="#fff0f0" stroke="red" points="1613,-195 1534,-195 1534,-176 1613,-176 1613,-195"/>
<text text-anchor="middle" x="1573.5" y="-183" font-family="Helvetica,sans-Serif" font-size="10.00">CADMesh.hh</text>
</a>
</g>
</g>
<!-- Node20&#45;&gt;Node43 -->
<g id="edge44_Node000020_Node000043" class="edge">
<title>Node20&#45;&gt;Node43</title>
<g id="a_edge44_Node000020_Node000043"><a xlink:title=" ">
<path fill="none" stroke="#63b8ff" d="M1386.33,-230.98C1424.66,-221.87 1485.58,-207.4 1527.45,-197.45"/>
<polygon fill="#63b8ff" stroke="#63b8ff" points="1528.47,-200.8 1537.39,-195.08 1526.85,-193.99 1528.47,-200.8"/>
</a>
</g>
</g>
<!-- Node58 -->
<g id="Node000058" class="node">
<title>Node58</title>
<g id="a_Node000058"><a xlink:title=" ">
<polygon fill="#e0e0e0" stroke="#999999" points="1322.5,-195 1224.5,-195 1224.5,-176 1322.5,-176 1322.5,-195"/>
<text text-anchor="middle" x="1273.5" y="-183" font-family="Helvetica,sans-Serif" font-size="10.00">G4MultiUnion.hh</text>
</a>
</g>
</g>
<!-- Node20&#45;&gt;Node58 -->
<g id="edge51_Node000020_Node000058" class="edge">
<title>Node20&#45;&gt;Node58</title>
<g id="a_edge51_Node000020_Node000058"><a xlink:title=" ">
<path fill="none" stroke="#63b8ff" d="M1338.13,-230.98C1326.41,-222.92 1308.58,-210.65 1294.61,-201.03"/>
<polygon fill="#63b8ff" stroke="#63b8ff" points="1296.32,-197.96 1286.1,-195.17 1292.35,-203.72 1296.32,-197.96"/>
</a>
</g>
</g>
<!-- Node22 -->
<g id="Node000022" class="node">
<title>Node22</title>
<g id="a_Node000022"><a xlink:href="_o_m_sim_input_data_8hh.html" target="_top" xlink:title="Definition of ParameterTable and OMSimInputData.">
<polygon fill="#fff0f0" stroke="red" points="1101,-140 986,-140 986,-121 1101,-121 1101,-140"/>
<text text-anchor="middle" x="1043.5" y="-128" font-family="Helvetica,sans-Serif" font-size="10.00">OMSimInputData.hh</text>
</a>
</g>
</g>
<!-- Node21&#45;&gt;Node22 -->
<g id="edge23_Node000021_Node000022" class="edge">
<title>Node21&#45;&gt;Node22</title>
<g id="a_edge23_Node000021_Node000022"><a xlink:title=" ">
<path fill="none" stroke="#63b8ff" d="M1110.65,-175.98C1098.36,-167.84 1079.59,-155.41 1065.02,-145.76"/>
<polygon fill="#63b8ff" stroke="#63b8ff" points="1066.86,-142.78 1056.59,-140.17 1062.99,-148.61 1066.86,-142.78"/>
</a>
</g>
</g>
<!-- Node22&#45;&gt;Node5 -->
<g id="edge33_Node000022_Node000005" class="edge">
<title>Node22&#45;&gt;Node5</title>
<g id="a_edge33_Node000022_Node000005"><a xlink:title=" ">
<path fill="none" stroke="#63b8ff" d="M985.97,-124.94C863.52,-115.22 577.51,-92.53 445.08,-82.02"/>
<polygon fill="#63b8ff" stroke="#63b8ff" points="445.29,-78.53 435.04,-81.22 444.73,-85.5 445.29,-78.53"/>
</a>
</g>
</g>
<!-- Node22&#45;&gt;Node11 -->
<g id="edge24_Node000022_Node000011" class="edge">
<title>Node22&#45;&gt;Node11</title>
<g id="a_edge24_Node000022_Node000011"><a xlink:title=" ">
<path fill="none" stroke="#63b8ff" d="M1021.17,-120.98C998.3,-112.27 962.54,-98.63 936.64,-88.75"/>
<polygon fill="#63b8ff" stroke="#63b8ff" points="937.83,-85.46 927.24,-85.17 935.34,-92 937.83,-85.46"/>
</a>
</g>
</g>
<!-- Node22&#45;&gt;Node23 -->
<g id="edge25_Node000022_Node000023" class="edge">
<title>Node22&#45;&gt;Node23</title>
<g id="a_edge25_Node000022_Node000023"><a xlink:title=" ">
<path fill="none" stroke="#63b8ff" d="M1101.24,-124.44C1206.41,-115.23 1430.02,-95.64 1556.44,-84.56"/>
<polygon fill="#63b8ff" stroke="#63b8ff" points="1556.84,-88.04 1566.49,-83.68 1556.23,-81.07 1556.84,-88.04"/>
</a>
</g>
</g>
<!-- Node23&#45;&gt;Node24 -->
<g id="edge26_Node000023_Node000024" class="edge">
<title>Node23&#45;&gt;Node24</title>
<g id="a_edge26_Node000023_Node000024"><a xlink:title=" ">
<path fill="none" stroke="#63b8ff" d="M1716.6,-65.96C1779.15,-57.81 1874.32,-44.64 1956.5,-30 1962.26,-28.97 1968.29,-27.81 1974.26,-26.61"/>
<polygon fill="#63b8ff" stroke="#63b8ff" points="1975.1,-30.01 1984.19,-24.57 1973.69,-23.16 1975.1,-30.01"/>
</a>
</g>
</g>
<!-- Node25 -->
<g id="Node000025" class="node">
<title>Node25</title>
<g id="a_Node000025"><a xlink:title=" ">
<polygon fill="#e0e0e0" stroke="#999999" points="1275.5,-24.5 1159.5,-24.5 1159.5,-5.5 1275.5,-5.5 1275.5,-24.5"/>
<text text-anchor="middle" x="1217.5" y="-12.5" font-family="Helvetica,sans-Serif" font-size="10.00">G4OpticalSurface.hh</text>
</a>
</g>
</g>
<!-- Node23&#45;&gt;Node25 -->
<g id="edge27_Node000023_Node000025" class="edge">
<title>Node23&#45;&gt;Node25</title>
<g id="a_edge27_Node000023_Node000025"><a xlink:title=" ">
<path fill="none" stroke="#63b8ff" d="M1566.18,-66.44C1492.21,-58.72 1380.76,-45.91 1284.5,-30 1278.34,-28.98 1271.9,-27.79 1265.53,-26.55"/>
<polygon fill="#63b8ff" stroke="#63b8ff" points="1266.16,-23.1 1255.66,-24.55 1264.77,-29.96 1266.16,-23.1"/>
</a>
</g>
</g>
<!-- Node26 -->
<g id="Node000026" class="node">
<title>Node26</title>
<g id="a_Node000026"><a xlink:title=" ">
<polygon fill="#e0e0e0" stroke="#999999" points="1403.5,-24.5 1293.5,-24.5 1293.5,-5.5 1403.5,-5.5 1403.5,-24.5"/>
<text text-anchor="middle" x="1348.5" y="-12.5" font-family="Helvetica,sans-Serif" font-size="10.00">G4RandomTools.hh</text>
</a>
</g>
</g>
<!-- Node23&#45;&gt;Node26 -->
<g id="edge28_Node000023_Node000026" class="edge">
<title>Node23&#45;&gt;Node26</title>
<g id="a_edge28_Node000023_Node000026"><a xlink:title=" ">
<path fill="none" stroke="#63b8ff" d="M1600.96,-65.95C1553.24,-57.28 1477.67,-43.27 1412.5,-30 1407.41,-28.96 1402.09,-27.85 1396.8,-26.72"/>
<polygon fill="#63b8ff" stroke="#63b8ff" points="1397.22,-23.23 1386.7,-24.55 1395.74,-30.07 1397.22,-23.23"/>
</a>
</g>
</g>
<!-- Node27 -->
<g id="Node000027" class="node">
<title>Node27</title>
<g id="a_Node000027"><a xlink:title=" ">
<polygon fill="#e0e0e0" stroke="#999999" points="1551.5,-24.5 1421.5,-24.5 1421.5,-5.5 1551.5,-5.5 1551.5,-24.5"/>
<text text-anchor="middle" x="1486.5" y="-12.5" font-family="Helvetica,sans-Serif" font-size="10.00">G4VDiscreteProcess.hh</text>
</a>
</g>
</g>
<!-- Node23&#45;&gt;Node27 -->
<g id="edge29_Node000023_Node000027" class="edge">
<title>Node23&#45;&gt;Node27</title>
<g id="a_edge29_Node000023_Node000027"><a xlink:title=" ">
<path fill="none" stroke="#63b8ff" d="M1624.94,-65.99C1597.23,-55.99 1551.03,-39.3 1519.69,-27.99"/>
<polygon fill="#63b8ff" stroke="#63b8ff" points="1520.68,-24.62 1510.08,-24.52 1518.3,-31.21 1520.68,-24.62"/>
</a>
</g>
</g>
<!-- Node28 -->
<g id="Node000028" class="node">
<title>Node28</title>
<g id="a_Node000028"><a xlink:title=" ">
<polygon fill="#e0e0e0" stroke="#999999" points="1727,-24.5 1570,-24.5 1570,-5.5 1727,-5.5 1727,-24.5"/>
<text text-anchor="middle" x="1648.5" y="-12.5" font-family="Helvetica,sans-Serif" font-size="10.00">G4VUserTrackInformation.hh</text>
</a>
</g>
</g>
<!-- Node23&#45;&gt;Node28 -->
<g id="edge30_Node000023_Node000028" class="edge">
<title>Node23&#45;&gt;Node28</title>
<g id="a_edge30_Node000023_Node000028"><a xlink:title=" ">
<path fill="none" stroke="#63b8ff" d="M1648.5,-65.87C1648.5,-57.75 1648.5,-45.31 1648.5,-34.89"/>
<polygon fill="#63b8ff" stroke="#63b8ff" points="1652,-34.67 1648.5,-24.67 1645,-34.67 1652,-34.67"/>
</a>
</g>
</g>
<!-- Node29 -->
<g id="Node000029" class="node">
<title>Node29</title>
<g id="a_Node000029"><a xlink:title=" ">
<polygon fill="#e0e0e0" stroke="#999999" points="1835.5,-24.5 1745.5,-24.5 1745.5,-5.5 1835.5,-5.5 1835.5,-24.5"/>
<text text-anchor="middle" x="1790.5" y="-12.5" font-family="Helvetica,sans-Serif" font-size="10.00">G4AutoLock.hh</text>
</a>
</g>
</g>
<!-- Node23&#45;&gt;Node29 -->
<g id="edge31_Node000023_Node000029" class="edge">
<title>Node23&#45;&gt;Node29</title>
<g id="a_edge31_Node000023_Node000029"><a xlink:title=" ">
<path fill="none" stroke="#63b8ff" d="M1669.15,-65.99C1693.13,-56.12 1732.89,-39.73 1760.33,-28.43"/>
<polygon fill="#63b8ff" stroke="#63b8ff" points="1761.91,-31.56 1769.83,-24.52 1759.25,-25.09 1761.91,-31.56"/>
</a>
</g>
</g>
<!-- Node30 -->
<g id="Node000030" class="node">
<title>Node30</title>
<g id="a_Node000030"><a xlink:title=" ">
<polygon fill="#e0e0e0" stroke="#999999" points="1947.5,-24.5 1853.5,-24.5 1853.5,-5.5 1947.5,-5.5 1947.5,-24.5"/>
<text text-anchor="middle" x="1900.5" y="-12.5" font-family="Helvetica,sans-Serif" font-size="10.00">G4Threading.hh</text>
</a>
</g>
</g>
<!-- Node23&#45;&gt;Node30 -->
<g id="edge32_Node000023_Node000030" class="edge">
<title>Node23&#45;&gt;Node30</title>
<g id="a_edge32_Node000023_Node000030"><a xlink:title=" ">
<path fill="none" stroke="#63b8ff" d="M1687.23,-65.97C1726.81,-57.19 1790.02,-42.99 1844.5,-30 1848.56,-29.03 1852.78,-28.01 1857,-26.97"/>
<polygon fill="#63b8ff" stroke="#63b8ff" points="1857.9,-30.36 1866.77,-24.56 1856.22,-23.56 1857.9,-30.36"/>
</a>
</g>
</g>
<!-- Node43&#45;&gt;Node7 -->
<g id="edge45_Node000043_Node000007" class="edge">
<title>Node43&#45;&gt;Node7</title>
<g id="a_edge45_Node000043_Node000007"><a xlink:title=" ">
<path fill="none" stroke="#63b8ff" d="M1533.98,-177.21C1530.78,-176.75 1527.59,-176.34 1524.5,-176 1181.73,-138.46 1092.88,-171.45 749.5,-140 738.82,-139.02 727.16,-137.53 716.86,-136.08"/>
<polygon fill="#63b8ff" stroke="#63b8ff" points="717.12,-132.58 706.72,-134.59 716.11,-139.5 717.12,-132.58"/>
</a>
</g>
</g>
<!-- Node43&#45;&gt;Node14 -->
<g id="edge47_Node000043_Node000014" class="edge">
<title>Node43&#45;&gt;Node14</title>
<g id="a_edge47_Node000043_Node000014"><a xlink:title=" ">
<path fill="none" stroke="#63b8ff" d="M1559.91,-175.91C1538.57,-162.69 1495.57,-137.2 1456.5,-121 1325.44,-66.64 1285.14,-74.77 1150.5,-30 1148.6,-29.37 1146.65,-28.7 1144.69,-28.02"/>
<polygon fill="#63b8ff" stroke="#63b8ff" points="1145.52,-24.6 1134.92,-24.53 1143.16,-31.19 1145.52,-24.6"/>
</a>
</g>
</g>
<!-- Node43&#45;&gt;Node16 -->
<g id="edge50_Node000043_Node000016" class="edge">
<title>Node43&#45;&gt;Node16</title>
<g id="a_edge50_Node000043_Node000016"><a xlink:title=" ">
<path fill="none" stroke="#63b8ff" d="M1533.97,-177.25C1530.78,-176.79 1527.59,-176.36 1524.5,-176 1386.69,-159.94 955.39,-139.27 824.52,-133.23"/>
<polygon fill="#63b8ff" stroke="#63b8ff" points="824.36,-129.72 814.21,-132.76 824.04,-136.71 824.36,-129.72"/>
</a>
</g>
</g>
<!-- Node43&#45;&gt;Node37 -->
<g id="edge49_Node000043_Node000037" class="edge">
<title>Node43&#45;&gt;Node37</title>
<g id="a_edge49_Node000043_Node000037"><a xlink:title=" ">
<path fill="none" stroke="#63b8ff" d="M1579.11,-175.75C1583.82,-168.42 1590.67,-157.73 1596.47,-148.7"/>
<polygon fill="#63b8ff" stroke="#63b8ff" points="1599.54,-150.4 1601.99,-140.09 1593.64,-146.62 1599.54,-150.4"/>
</a>
</g>
</g>
<!-- Node43&#45;&gt;Node40 -->
<g id="edge46_Node000043_Node000040" class="edge">
<title>Node43&#45;&gt;Node40</title>
<g id="a_edge46_Node000043_Node000040"><a xlink:title=" ">
<path fill="none" stroke="#63b8ff" d="M1603.06,-175.98C1634.22,-167.01 1683.47,-152.82 1717.96,-142.89"/>
<polygon fill="#63b8ff" stroke="#63b8ff" points="1719.07,-146.21 1727.71,-140.08 1717.13,-139.49 1719.07,-146.21"/>
</a>
</g>
</g>
<!-- Node43&#45;&gt;Node42 -->
<g id="edge48_Node000043_Node000042" class="edge">
<title>Node43&#45;&gt;Node42</title>
<g id="a_edge48_Node000043_Node000042"><a xlink:title=" ">
<path fill="none" stroke="#63b8ff" d="M1543.94,-175.98C1512.78,-167.01 1463.53,-152.82 1429.04,-142.89"/>
<polygon fill="#63b8ff" stroke="#63b8ff" points="1429.87,-139.49 1419.29,-140.08 1427.93,-146.21 1429.87,-139.49"/>
</a>
</g>
</g>
</g>
</svg>
