<?xml version="1.0" encoding="UTF-8" standalone="no"?>
<!DOCTYPE svg PUBLIC "-//W3C//DTD SVG 1.1//EN"
 "http://www.w3.org/Graphics/SVG/1.1/DTD/svg11.dtd">
<!-- Generated by graphviz version 2.43.0 (0)
 -->
<!-- Title: OMSimHitManager.hh Pages: 1 -->
<svg width="957pt" height="137pt"
 viewBox="0.00 0.00 956.50 137.00" xmlns="http://www.w3.org/2000/svg" xmlns:xlink="http://www.w3.org/1999/xlink">
<g id="graph0" class="graph" transform="scale(1 1) rotate(0) translate(4 133)">
<title>OMSimHitManager.hh</title>
<!-- Node1 -->
<g id="Node000001" class="node">
<title>Node1</title>
<g id="a_Node000001"><a xlink:title="Enhanced hit manager for WavePID with photon origin tracking.">
<polygon fill="#999999" stroke="#666666" points="668.5,-129 545.5,-129 545.5,-110 668.5,-110 668.5,-129"/>
<text text-anchor="middle" x="607" y="-117" font-family="Helvetica,sans-Serif" font-size="10.00">OMSimHitManager.hh</text>
</a>
</g>
</g>
<!-- Node2 -->
<g id="Node000002" class="node">
<title>Node2</title>
<g id="a_Node000002"><a xlink:href="_o_m_sim_p_m_t_response_8hh.html" target="_top" xlink:title="Simulation of PMT response.">
<polygon fill="white" stroke="#666666" points="328.5,-74 193.5,-74 193.5,-55 328.5,-55 328.5,-74"/>
<text text-anchor="middle" x="261" y="-62" font-family="Helvetica,sans-Serif" font-size="10.00">OMSimPMTResponse.hh</text>
</a>
</g>
</g>
<!-- Node1&#45;&gt;Node2 -->
<g id="edge1_Node000001_Node000002" class="edge">
<title>Node1&#45;&gt;Node2</title>
<g id="a_edge1_Node000001_Node000002"><a xlink:title=" ">
<path fill="none" stroke="#63b8ff" d="M551.41,-109.98C490.21,-100.61 391.9,-85.55 326.88,-75.59"/>
<polygon fill="#63b8ff" stroke="#63b8ff" points="327.15,-72.09 316.74,-74.04 326.09,-79.01 327.15,-72.09"/>
</a>
</g>
</g>
<!-- Node5 -->
<g id="Node000005" class="node">
<title>Node5</title>
<g id="a_Node000005"><a xlink:title=" ">
<polygon fill="#e0e0e0" stroke="#999999" points="38,-19 0,-19 0,0 38,0 38,-19"/>
<text text-anchor="middle" x="19" y="-7" font-family="Helvetica,sans-Serif" font-size="10.00">map</text>
</a>
</g>
</g>
<!-- Node1&#45;&gt;Node5 -->
<g id="edge17_Node000001_Node000005" class="edge">
<title>Node1&#45;&gt;Node5</title>
<g id="a_edge17_Node000001_Node000005"><a xlink:title=" ">
<path fill="none" stroke="#63b8ff" d="M545.2,-117.06C462.04,-113.98 310,-104.31 184,-74 133.7,-61.9 78.1,-38.2 45.99,-23.43"/>
<polygon fill="#63b8ff" stroke="#63b8ff" points="47.36,-20.2 36.81,-19.15 44.4,-26.55 47.36,-20.2"/>
</a>
</g>
</g>
<!-- Node8 -->
<g id="Node000008" class="node">
<title>Node8</title>
<g id="a_Node000008"><a xlink:href="_r_o_o_t_hit_manager_8hh.html" target="_top" xlink:title="ROOT&#45;based output manager for WavePID photon hit data.">
<polygon fill="white" stroke="#666666" points="551,-74 435,-74 435,-55 551,-55 551,-74"/>
<text text-anchor="middle" x="493" y="-62" font-family="Helvetica,sans-Serif" font-size="10.00">ROOTHitManager.hh</text>
</a>
</g>
</g>
<!-- Node1&#45;&gt;Node8 -->
<g id="edge7_Node000001_Node000008" class="edge">
<title>Node1&#45;&gt;Node8</title>
<g id="a_edge7_Node000001_Node000008"><a xlink:title=" ">
<path fill="none" stroke="#63b8ff" d="M588.68,-109.98C570.34,-101.46 541.89,-88.23 520.77,-78.41"/>
<polygon fill="#63b8ff" stroke="#63b8ff" points="522.19,-75.21 511.65,-74.17 519.24,-81.56 522.19,-75.21"/>
</a>
</g>
</g>
<!-- Node11 -->
<g id="Node000011" class="node">
<title>Node11</title>
<g id="a_Node000011"><a xlink:title=" ">
<polygon fill="#e0e0e0" stroke="#999999" points="753.5,-19 650.5,-19 650.5,0 753.5,0 753.5,-19"/>
<text text-anchor="middle" x="702" y="-7" font-family="Helvetica,sans-Serif" font-size="10.00">G4ThreeVector.hh</text>
</a>
</g>
</g>
<!-- Node1&#45;&gt;Node11 -->
<g id="edge13_Node000001_Node000011" class="edge">
<title>Node1&#45;&gt;Node11</title>
<g id="a_edge13_Node000001_Node000011"><a xlink:title=" ">
<path fill="none" stroke="#63b8ff" d="M602.6,-109.89C596.62,-96.86 587.89,-71.9 599,-55 609.43,-39.14 626.84,-28.9 644.41,-22.31"/>
<polygon fill="#63b8ff" stroke="#63b8ff" points="645.8,-25.54 654.15,-19.01 643.55,-18.91 645.8,-25.54"/>
</a>
</g>
</g>
<!-- Node13 -->
<g id="Node000013" class="node">
<title>Node13</title>
<g id="a_Node000013"><a xlink:title=" ">
<polygon fill="#e0e0e0" stroke="#999999" points="662.5,-74 607.5,-74 607.5,-55 662.5,-55 662.5,-74"/>
<text text-anchor="middle" x="635" y="-62" font-family="Helvetica,sans-Serif" font-size="10.00">fstream</text>
</a>
</g>
</g>
<!-- Node1&#45;&gt;Node13 -->
<g id="edge14_Node000001_Node000013" class="edge">
<title>Node1&#45;&gt;Node13</title>
<g id="a_edge14_Node000001_Node000013"><a xlink:title=" ">
<path fill="none" stroke="#63b8ff" d="M611.62,-109.75C615.46,-102.49 621.02,-91.95 625.76,-82.98"/>
<polygon fill="#63b8ff" stroke="#63b8ff" points="628.89,-84.57 630.46,-74.09 622.7,-81.3 628.89,-84.57"/>
</a>
</g>
</g>
<!-- Node14 -->
<g id="Node000014" class="node">
<title>Node14</title>
<g id="a_Node000014"><a xlink:title=" ">
<polygon fill="#e0e0e0" stroke="#999999" points="771,-74 681,-74 681,-55 771,-55 771,-74"/>
<text text-anchor="middle" x="726" y="-62" font-family="Helvetica,sans-Serif" font-size="10.00">G4AutoLock.hh</text>
</a>
</g>
</g>
<!-- Node1&#45;&gt;Node14 -->
<g id="edge15_Node000001_Node000014" class="edge">
<title>Node1&#45;&gt;Node14</title>
<g id="a_edge15_Node000001_Node000014"><a xlink:title=" ">
<path fill="none" stroke="#63b8ff" d="M626.12,-109.98C645.35,-101.42 675.23,-88.11 697.31,-78.28"/>
<polygon fill="#63b8ff" stroke="#63b8ff" points="698.82,-81.44 706.53,-74.17 695.97,-75.04 698.82,-81.44"/>
</a>
</g>
</g>
<!-- Node15 -->
<g id="Node000015" class="node">
<title>Node15</title>
<g id="a_Node000015"><a xlink:title=" ">
<polygon fill="#e0e0e0" stroke="#999999" points="883,-74 789,-74 789,-55 883,-55 883,-74"/>
<text text-anchor="middle" x="836" y="-62" font-family="Helvetica,sans-Serif" font-size="10.00">G4Threading.hh</text>
</a>
</g>
</g>
<!-- Node1&#45;&gt;Node15 -->
<g id="edge16_Node000001_Node000015" class="edge">
<title>Node1&#45;&gt;Node15</title>
<g id="a_edge16_Node000001_Node000015"><a xlink:title=" ">
<path fill="none" stroke="#63b8ff" d="M643.79,-109.98C683.24,-100.86 745.98,-86.33 788.98,-76.38"/>
<polygon fill="#63b8ff" stroke="#63b8ff" points="789.97,-79.75 798.92,-74.08 788.39,-72.93 789.97,-79.75"/>
</a>
</g>
</g>
<!-- Node16 -->
<g id="Node000016" class="node">
<title>Node16</title>
<g id="a_Node000016"><a xlink:title=" ">
<polygon fill="#e0e0e0" stroke="#999999" points="948.5,-74 901.5,-74 901.5,-55 948.5,-55 948.5,-74"/>
<text text-anchor="middle" x="925" y="-62" font-family="Helvetica,sans-Serif" font-size="10.00">vector</text>
</a>
</g>
</g>
<!-- Node1&#45;&gt;Node16 -->
<g id="edge18_Node000001_Node000016" class="edge">
<title>Node1&#45;&gt;Node16</title>
<g id="a_edge18_Node000001_Node000016"><a xlink:title=" ">
<path fill="none" stroke="#63b8ff" d="M668.74,-110.62C724.47,-103.11 808.88,-90.75 891.47,-73.93"/>
<polygon fill="#63b8ff" stroke="#63b8ff" points="892.18,-77.35 901.27,-71.91 890.77,-70.5 892.18,-77.35"/>
</a>
</g>
</g>
<!-- Node3 -->
<g id="Node000003" class="node">
<title>Node3</title>
<g id="a_Node000003"><a xlink:title=" ">
<polygon fill="#e0e0e0" stroke="#999999" points="175.5,-19 56.5,-19 56.5,0 175.5,0 175.5,-19"/>
<text text-anchor="middle" x="116" y="-7" font-family="Helvetica,sans-Serif" font-size="10.00">G4SystemOfUnits.hh</text>
</a>
</g>
</g>
<!-- Node2&#45;&gt;Node3 -->
<g id="edge2_Node000002_Node000003" class="edge">
<title>Node2&#45;&gt;Node3</title>
<g id="a_edge2_Node000002_Node000003"><a xlink:title=" ">
<path fill="none" stroke="#63b8ff" d="M237.7,-54.98C213.75,-46.23 176.22,-32.51 149.17,-22.62"/>
<polygon fill="#63b8ff" stroke="#63b8ff" points="150.31,-19.32 139.72,-19.17 147.91,-25.89 150.31,-19.32"/>
</a>
</g>
</g>
<!-- Node4 -->
<g id="Node000004" class="node">
<title>Node4</title>
<g id="a_Node000004"><a xlink:title=" ">
<polygon fill="#e0e0e0" stroke="#999999" points="416.5,-19 343.5,-19 343.5,0 416.5,0 416.5,-19"/>
<text text-anchor="middle" x="380" y="-7" font-family="Helvetica,sans-Serif" font-size="10.00">G4Types.hh</text>
</a>
</g>
</g>
<!-- Node2&#45;&gt;Node4 -->
<g id="edge3_Node000002_Node000004" class="edge">
<title>Node2&#45;&gt;Node4</title>
<g id="a_edge3_Node000002_Node000004"><a xlink:title=" ">
<path fill="none" stroke="#63b8ff" d="M280.12,-54.98C299.35,-46.42 329.23,-33.11 351.31,-23.28"/>
<polygon fill="#63b8ff" stroke="#63b8ff" points="352.82,-26.44 360.53,-19.17 349.97,-20.04 352.82,-26.44"/>
</a>
</g>
</g>
<!-- Node2&#45;&gt;Node5 -->
<g id="edge4_Node000002_Node000005" class="edge">
<title>Node2&#45;&gt;Node5</title>
<g id="a_edge4_Node000002_Node000005"><a xlink:title=" ">
<path fill="none" stroke="#63b8ff" d="M213.97,-54.98C172.63,-47.21 110.68,-34.88 48.24,-19.14"/>
<polygon fill="#63b8ff" stroke="#63b8ff" points="48.77,-15.66 38.22,-16.58 47.04,-22.44 48.77,-15.66"/>
</a>
</g>
</g>
<!-- Node6 -->
<g id="Node000006" class="node">
<title>Node6</title>
<g id="a_Node000006"><a xlink:title=" ">
<polygon fill="#e0e0e0" stroke="#999999" points="254.5,-19 193.5,-19 193.5,0 254.5,0 254.5,-19"/>
<text text-anchor="middle" x="224" y="-7" font-family="Helvetica,sans-Serif" font-size="10.00">TGraph.h</text>
</a>
</g>
</g>
<!-- Node2&#45;&gt;Node6 -->
<g id="edge5_Node000002_Node000006" class="edge">
<title>Node2&#45;&gt;Node6</title>
<g id="a_edge5_Node000002_Node000006"><a xlink:title=" ">
<path fill="none" stroke="#63b8ff" d="M254.89,-54.75C249.72,-47.34 242.15,-36.5 235.81,-27.41"/>
<polygon fill="#63b8ff" stroke="#63b8ff" points="238.59,-25.29 230,-19.09 232.85,-29.29 238.59,-25.29"/>
</a>
</g>
</g>
<!-- Node7 -->
<g id="Node000007" class="node">
<title>Node7</title>
<g id="a_Node000007"><a xlink:title=" ">
<polygon fill="#e0e0e0" stroke="#999999" points="325.5,-19 272.5,-19 272.5,0 325.5,0 325.5,-19"/>
<text text-anchor="middle" x="299" y="-7" font-family="Helvetica,sans-Serif" font-size="10.00">TH2D.h</text>
</a>
</g>
</g>
<!-- Node2&#45;&gt;Node7 -->
<g id="edge6_Node000002_Node000007" class="edge">
<title>Node2&#45;&gt;Node7</title>
<g id="a_edge6_Node000002_Node000007"><a xlink:title=" ">
<path fill="none" stroke="#63b8ff" d="M267.27,-54.75C272.59,-47.34 280.36,-36.5 286.88,-27.41"/>
<polygon fill="#63b8ff" stroke="#63b8ff" points="289.86,-29.26 292.84,-19.09 284.17,-25.18 289.86,-29.26"/>
</a>
</g>
</g>
<!-- Node8&#45;&gt;Node4 -->
<g id="edge10_Node000008_Node000004" class="edge">
<title>Node8&#45;&gt;Node4</title>
<g id="a_edge10_Node000008_Node000004"><a xlink:title=" ">
<path fill="none" stroke="#63b8ff" d="M474.84,-54.98C456.75,-46.5 428.72,-33.35 407.81,-23.54"/>
<polygon fill="#63b8ff" stroke="#63b8ff" points="409.03,-20.25 398.49,-19.17 406.05,-26.59 409.03,-20.25"/>
</a>
</g>
</g>
<!-- Node9 -->
<g id="Node000009" class="node">
<title>Node9</title>
<g id="a_Node000009"><a xlink:title=" ">
<polygon fill="#e0e0e0" stroke="#999999" points="483.5,-19 434.5,-19 434.5,0 483.5,0 483.5,-19"/>
<text text-anchor="middle" x="459" y="-7" font-family="Helvetica,sans-Serif" font-size="10.00">TFile.h</text>
</a>
</g>
</g>
<!-- Node8&#45;&gt;Node9 -->
<g id="edge8_Node000008_Node000009" class="edge">
<title>Node8&#45;&gt;Node9</title>
<g id="a_edge8_Node000008_Node000009"><a xlink:title=" ">
<path fill="none" stroke="#63b8ff" d="M487.39,-54.75C482.68,-47.42 475.83,-36.73 470.03,-27.7"/>
<polygon fill="#63b8ff" stroke="#63b8ff" points="472.86,-25.62 464.51,-19.09 466.96,-29.4 472.86,-25.62"/>
</a>
</g>
</g>
<!-- Node10 -->
<g id="Node000010" class="node">
<title>Node10</title>
<g id="a_Node000010"><a xlink:title=" ">
<polygon fill="#e0e0e0" stroke="#999999" points="554,-19 502,-19 502,0 554,0 554,-19"/>
<text text-anchor="middle" x="528" y="-7" font-family="Helvetica,sans-Serif" font-size="10.00">TTree.h</text>
</a>
</g>
</g>
<!-- Node8&#45;&gt;Node10 -->
<g id="edge9_Node000008_Node000010" class="edge">
<title>Node8&#45;&gt;Node10</title>
<g id="a_edge9_Node000008_Node000010"><a xlink:title=" ">
<path fill="none" stroke="#63b8ff" d="M498.78,-54.75C503.62,-47.42 510.68,-36.73 516.64,-27.7"/>
<polygon fill="#63b8ff" stroke="#63b8ff" points="519.74,-29.36 522.33,-19.09 513.9,-25.5 519.74,-29.36"/>
</a>
</g>
</g>
<!-- Node8&#45;&gt;Node11 -->
<g id="edge11_Node000008_Node000011" class="edge">
<title>Node8&#45;&gt;Node11</title>
<g id="a_edge11_Node000008_Node000011"><a xlink:title=" ">
<path fill="none" stroke="#63b8ff" d="M526.58,-54.98C562.35,-45.91 619.12,-31.52 658.34,-21.57"/>
<polygon fill="#63b8ff" stroke="#63b8ff" points="659.32,-24.93 668.16,-19.08 657.6,-18.15 659.32,-24.93"/>
</a>
</g>
</g>
<!-- Node12 -->
<g id="Node000012" class="node">
<title>Node12</title>
<g id="a_Node000012"><a xlink:title=" ">
<polygon fill="#e0e0e0" stroke="#999999" points="632,-19 572,-19 572,0 632,0 632,-19"/>
<text text-anchor="middle" x="602" y="-7" font-family="Helvetica,sans-Serif" font-size="10.00">TString.h</text>
</a>
</g>
</g>
<!-- Node8&#45;&gt;Node12 -->
<g id="edge12_Node000008_Node000012" class="edge">
<title>Node8&#45;&gt;Node12</title>
<g id="a_edge12_Node000008_Node000012"><a xlink:title=" ">
<path fill="none" stroke="#63b8ff" d="M510.51,-54.98C527.97,-46.5 555.01,-33.35 575.17,-23.54"/>
<polygon fill="#63b8ff" stroke="#63b8ff" points="576.71,-26.69 584.17,-19.17 573.64,-20.4 576.71,-26.69"/>
</a>
</g>
</g>
</g>
</svg>
