<?xml version="1.0" encoding="UTF-8" standalone="no"?>
<!DOCTYPE svg PUBLIC "-//W3C//DTD SVG 1.1//EN"
 "http://www.w3.org/Graphics/SVG/1.1/DTD/svg11.dtd">
<!-- Generated by graphviz version 2.43.0 (0)
 -->
<!-- Title: OMSimRunAction.hh Pages: 1 -->
<svg width="1389pt" height="203pt"
 viewBox="0.00 0.00 1389.00 203.00" xmlns="http://www.w3.org/2000/svg" xmlns:xlink="http://www.w3.org/1999/xlink">
<g id="graph0" class="graph" transform="scale(1 1) rotate(0) translate(4 199)">
<title>OMSimRunAction.hh</title>
<!-- Node1 -->
<g id="Node000001" class="node">
<title>Node1</title>
<g id="a_Node000001"><a xlink:title="Run action for WavePID simulation.">
<polygon fill="#999999" stroke="#666666" points="1131,-195 1015,-195 1015,-176 1131,-176 1131,-195"/>
<text text-anchor="middle" x="1073" y="-183" font-family="Helvetica,sans-Serif" font-size="10.00">OMSimRunAction.hh</text>
</a>
</g>
</g>
<!-- Node2 -->
<g id="Node000002" class="node">
<title>Node2</title>
<g id="a_Node000002"><a xlink:title=" ">
<polygon fill="#e0e0e0" stroke="#999999" points="601.5,-140 484.5,-140 484.5,-121 601.5,-121 601.5,-140"/>
<text text-anchor="middle" x="543" y="-128" font-family="Helvetica,sans-Serif" font-size="10.00">G4UserRunAction.hh</text>
</a>
</g>
</g>
<!-- Node1&#45;&gt;Node2 -->
<g id="edge1_Node000001_Node000002" class="edge">
<title>Node1&#45;&gt;Node2</title>
<g id="a_edge1_Node000001_Node000002"><a xlink:title=" ">
<path fill="none" stroke="#63b8ff" d="M1014.83,-179.48C929.01,-171.95 763.13,-156.91 612.19,-140.22"/>
<polygon fill="#63b8ff" stroke="#63b8ff" points="612.14,-136.69 601.81,-139.06 611.37,-143.65 612.14,-136.69"/>
</a>
</g>
</g>
<!-- Node3 -->
<g id="Node000003" class="node">
<title>Node3</title>
<g id="a_Node000003"><a xlink:href="simulations_2wavepid_2include_2_o_m_sim_hit_manager_8hh.html" target="_top" xlink:title="Enhanced hit manager for WavePID with photon origin tracking.">
<polygon fill="white" stroke="#666666" points="742.5,-140 619.5,-140 619.5,-121 742.5,-121 742.5,-140"/>
<text text-anchor="middle" x="681" y="-128" font-family="Helvetica,sans-Serif" font-size="10.00">OMSimHitManager.hh</text>
</a>
</g>
</g>
<!-- Node1&#45;&gt;Node3 -->
<g id="edge2_Node000001_Node000003" class="edge">
<title>Node1&#45;&gt;Node3</title>
<g id="a_edge2_Node000001_Node000003"><a xlink:title=" ">
<path fill="none" stroke="#63b8ff" d="M1014.74,-176.62C945.07,-167.2 828.46,-151.44 753.16,-141.26"/>
<polygon fill="#63b8ff" stroke="#63b8ff" points="753.2,-137.73 742.82,-139.86 752.26,-144.67 753.2,-137.73"/>
</a>
</g>
</g>
<!-- Node19 -->
<g id="Node000019" class="node">
<title>Node19</title>
<g id="a_Node000019"><a xlink:href="_o_m_sim_logger_8hh_source.html" target="_top" xlink:title=" ">
<polygon fill="white" stroke="#666666" points="1122.5,-140 1023.5,-140 1023.5,-121 1122.5,-121 1122.5,-140"/>
<text text-anchor="middle" x="1073" y="-128" font-family="Helvetica,sans-Serif" font-size="10.00">OMSimLogger.hh</text>
</a>
</g>
</g>
<!-- Node1&#45;&gt;Node19 -->
<g id="edge21_Node000001_Node000019" class="edge">
<title>Node1&#45;&gt;Node19</title>
<g id="a_edge21_Node000001_Node000019"><a xlink:title=" ">
<path fill="none" stroke="#63b8ff" d="M1073,-175.75C1073,-168.8 1073,-158.85 1073,-150.13"/>
<polygon fill="#63b8ff" stroke="#63b8ff" points="1076.5,-150.09 1073,-140.09 1069.5,-150.09 1076.5,-150.09"/>
</a>
</g>
</g>
<!-- Node24 -->
<g id="Node000024" class="node">
<title>Node24</title>
<g id="a_Node000024"><a xlink:title=" ">
<polygon fill="#e0e0e0" stroke="#999999" points="1227,-140 1141,-140 1141,-121 1227,-121 1227,-140"/>
<text text-anchor="middle" x="1184" y="-128" font-family="Helvetica,sans-Serif" font-size="10.00">Randomize.hh</text>
</a>
</g>
</g>
<!-- Node1&#45;&gt;Node24 -->
<g id="edge26_Node000001_Node000024" class="edge">
<title>Node1&#45;&gt;Node24</title>
<g id="a_edge26_Node000001_Node000024"><a xlink:title=" ">
<path fill="none" stroke="#63b8ff" d="M1090.83,-175.98C1108.61,-167.5 1136.15,-154.35 1156.68,-144.54"/>
<polygon fill="#63b8ff" stroke="#63b8ff" points="1158.33,-147.64 1165.84,-140.17 1155.31,-141.32 1158.33,-147.64"/>
</a>
</g>
</g>
<!-- Node25 -->
<g id="Node000025" class="node">
<title>Node25</title>
<g id="a_Node000025"><a xlink:title=" ">
<polygon fill="#e0e0e0" stroke="#999999" points="1309,-140 1245,-140 1245,-121 1309,-121 1309,-140"/>
<text text-anchor="middle" x="1277" y="-128" font-family="Helvetica,sans-Serif" font-size="10.00">G4Run.hh</text>
</a>
</g>
</g>
<!-- Node1&#45;&gt;Node25 -->
<g id="edge27_Node000001_Node000025" class="edge">
<title>Node1&#45;&gt;Node25</title>
<g id="a_edge27_Node000001_Node000025"><a xlink:title=" ">
<path fill="none" stroke="#63b8ff" d="M1105.78,-175.98C1140.93,-166.85 1196.85,-152.32 1235.16,-142.37"/>
<polygon fill="#63b8ff" stroke="#63b8ff" points="1236.18,-145.72 1244.98,-139.82 1234.42,-138.95 1236.18,-145.72"/>
</a>
</g>
</g>
<!-- Node4 -->
<g id="Node000004" class="node">
<title>Node4</title>
<g id="a_Node000004"><a xlink:href="_o_m_sim_p_m_t_response_8hh.html" target="_top" xlink:title="Simulation of PMT response.">
<polygon fill="white" stroke="#666666" points="328.5,-79.5 193.5,-79.5 193.5,-60.5 328.5,-60.5 328.5,-79.5"/>
<text text-anchor="middle" x="261" y="-67.5" font-family="Helvetica,sans-Serif" font-size="10.00">OMSimPMTResponse.hh</text>
</a>
</g>
</g>
<!-- Node3&#45;&gt;Node4 -->
<g id="edge3_Node000003_Node000004" class="edge">
<title>Node3&#45;&gt;Node4</title>
<g id="a_edge3_Node000003_Node000004"><a xlink:title=" ">
<path fill="none" stroke="#63b8ff" d="M619.93,-120.99C543.57,-110.36 413.07,-92.18 332.24,-80.92"/>
<polygon fill="#63b8ff" stroke="#63b8ff" points="332.53,-77.43 322.15,-79.52 331.57,-84.36 332.53,-77.43"/>
</a>
</g>
</g>
<!-- Node7 -->
<g id="Node000007" class="node">
<title>Node7</title>
<g id="a_Node000007"><a xlink:title=" ">
<polygon fill="#e0e0e0" stroke="#999999" points="38,-19 0,-19 0,0 38,0 38,-19"/>
<text text-anchor="middle" x="19" y="-7" font-family="Helvetica,sans-Serif" font-size="10.00">map</text>
</a>
</g>
</g>
<!-- Node3&#45;&gt;Node7 -->
<g id="edge19_Node000003_Node000007" class="edge">
<title>Node3&#45;&gt;Node7</title>
<g id="a_edge19_Node000003_Node000007"><a xlink:title=" ">
<path fill="none" stroke="#63b8ff" d="M619.44,-122C616.25,-121.65 613.09,-121.32 610,-121 420.97,-101.7 367.9,-132.78 184,-85 130.79,-71.18 73.27,-41.46 42.16,-24.03"/>
<polygon fill="#63b8ff" stroke="#63b8ff" points="43.82,-20.94 33.39,-19.04 40.36,-27.03 43.82,-20.94"/>
</a>
</g>
</g>
<!-- Node10 -->
<g id="Node000010" class="node">
<title>Node10</title>
<g id="a_Node000010"><a xlink:href="_r_o_o_t_hit_manager_8hh.html" target="_top" xlink:title="ROOT&#45;based output manager for WavePID photon hit data.">
<polygon fill="white" stroke="#666666" points="551,-79.5 435,-79.5 435,-60.5 551,-60.5 551,-79.5"/>
<text text-anchor="middle" x="493" y="-67.5" font-family="Helvetica,sans-Serif" font-size="10.00">ROOTHitManager.hh</text>
</a>
</g>
</g>
<!-- Node3&#45;&gt;Node10 -->
<g id="edge9_Node000003_Node000010" class="edge">
<title>Node3&#45;&gt;Node10</title>
<g id="a_edge9_Node000003_Node000010"><a xlink:title=" ">
<path fill="none" stroke="#63b8ff" d="M653.66,-120.99C621.08,-110.86 566.49,-93.87 530.11,-82.55"/>
<polygon fill="#63b8ff" stroke="#63b8ff" points="530.96,-79.15 520.37,-79.52 528.88,-85.83 530.96,-79.15"/>
</a>
</g>
</g>
<!-- Node13 -->
<g id="Node000013" class="node">
<title>Node13</title>
<g id="a_Node000013"><a xlink:title=" ">
<polygon fill="#e0e0e0" stroke="#999999" points="753.5,-19 650.5,-19 650.5,0 753.5,0 753.5,-19"/>
<text text-anchor="middle" x="702" y="-7" font-family="Helvetica,sans-Serif" font-size="10.00">G4ThreeVector.hh</text>
</a>
</g>
</g>
<!-- Node3&#45;&gt;Node13 -->
<g id="edge15_Node000003_Node000013" class="edge">
<title>Node3&#45;&gt;Node13</title>
<g id="a_edge15_Node000003_Node000013"><a xlink:title=" ">
<path fill="none" stroke="#63b8ff" d="M647.98,-120.87C629.82,-114.26 608.83,-103.1 598,-85 591.15,-73.56 590.66,-66.13 598,-55 608.45,-39.16 625.82,-28.94 643.41,-22.35"/>
<polygon fill="#63b8ff" stroke="#63b8ff" points="644.8,-25.58 653.15,-19.05 642.56,-18.95 644.8,-25.58"/>
</a>
</g>
</g>
<!-- Node15 -->
<g id="Node000015" class="node">
<title>Node15</title>
<g id="a_Node000015"><a xlink:title=" ">
<polygon fill="#e0e0e0" stroke="#999999" points="662.5,-79.5 607.5,-79.5 607.5,-60.5 662.5,-60.5 662.5,-79.5"/>
<text text-anchor="middle" x="635" y="-67.5" font-family="Helvetica,sans-Serif" font-size="10.00">fstream</text>
</a>
</g>
</g>
<!-- Node3&#45;&gt;Node15 -->
<g id="edge16_Node000003_Node000015" class="edge">
<title>Node3&#45;&gt;Node15</title>
<g id="a_edge16_Node000003_Node000015"><a xlink:title=" ">
<path fill="none" stroke="#63b8ff" d="M674.21,-120.87C667.35,-112.14 656.57,-98.43 648.05,-87.59"/>
<polygon fill="#63b8ff" stroke="#63b8ff" points="650.75,-85.36 641.82,-79.67 645.25,-89.69 650.75,-85.36"/>
</a>
</g>
</g>
<!-- Node16 -->
<g id="Node000016" class="node">
<title>Node16</title>
<g id="a_Node000016"><a xlink:title=" ">
<polygon fill="#e0e0e0" stroke="#999999" points="771,-79.5 681,-79.5 681,-60.5 771,-60.5 771,-79.5"/>
<text text-anchor="middle" x="726" y="-67.5" font-family="Helvetica,sans-Serif" font-size="10.00">G4AutoLock.hh</text>
</a>
</g>
</g>
<!-- Node3&#45;&gt;Node16 -->
<g id="edge17_Node000003_Node000016" class="edge">
<title>Node3&#45;&gt;Node16</title>
<g id="a_edge17_Node000003_Node000016"><a xlink:title=" ">
<path fill="none" stroke="#63b8ff" d="M687.64,-120.87C694.29,-112.23 704.69,-98.7 712.99,-87.92"/>
<polygon fill="#63b8ff" stroke="#63b8ff" points="716.01,-89.73 719.33,-79.67 710.46,-85.46 716.01,-89.73"/>
</a>
</g>
</g>
<!-- Node17 -->
<g id="Node000017" class="node">
<title>Node17</title>
<g id="a_Node000017"><a xlink:title=" ">
<polygon fill="#e0e0e0" stroke="#999999" points="883,-79.5 789,-79.5 789,-60.5 883,-60.5 883,-79.5"/>
<text text-anchor="middle" x="836" y="-67.5" font-family="Helvetica,sans-Serif" font-size="10.00">G4Threading.hh</text>
</a>
</g>
</g>
<!-- Node3&#45;&gt;Node17 -->
<g id="edge18_Node000003_Node000017" class="edge">
<title>Node3&#45;&gt;Node17</title>
<g id="a_edge18_Node000003_Node000017"><a xlink:title=" ">
<path fill="none" stroke="#63b8ff" d="M703.54,-120.99C729.94,-111.03 773.88,-94.45 803.85,-83.13"/>
<polygon fill="#63b8ff" stroke="#63b8ff" points="805.31,-86.32 813.43,-79.52 802.84,-79.77 805.31,-86.32"/>
</a>
</g>
</g>
<!-- Node18 -->
<g id="Node000018" class="node">
<title>Node18</title>
<g id="a_Node000018"><a xlink:title=" ">
<polygon fill="#e0e0e0" stroke="#999999" points="948.5,-79.5 901.5,-79.5 901.5,-60.5 948.5,-60.5 948.5,-79.5"/>
<text text-anchor="middle" x="925" y="-67.5" font-family="Helvetica,sans-Serif" font-size="10.00">vector</text>
</a>
</g>
</g>
<!-- Node3&#45;&gt;Node18 -->
<g id="edge20_Node000003_Node000018" class="edge">
<title>Node3&#45;&gt;Node18</title>
<g id="a_edge20_Node000003_Node000018"><a xlink:title=" ">
<path fill="none" stroke="#63b8ff" d="M735.51,-120.99C778.56,-113.56 839.86,-101.39 892,-85 893.63,-84.49 895.3,-83.92 896.96,-83.32"/>
<polygon fill="#63b8ff" stroke="#63b8ff" points="898.35,-86.54 906.39,-79.64 895.8,-80.02 898.35,-86.54"/>
</a>
</g>
</g>
<!-- Node5 -->
<g id="Node000005" class="node">
<title>Node5</title>
<g id="a_Node000005"><a xlink:title=" ">
<polygon fill="#e0e0e0" stroke="#999999" points="175.5,-19 56.5,-19 56.5,0 175.5,0 175.5,-19"/>
<text text-anchor="middle" x="116" y="-7" font-family="Helvetica,sans-Serif" font-size="10.00">G4SystemOfUnits.hh</text>
</a>
</g>
</g>
<!-- Node4&#45;&gt;Node5 -->
<g id="edge4_Node000004_Node000005" class="edge">
<title>Node4&#45;&gt;Node5</title>
<g id="a_edge4_Node000004_Node000005"><a xlink:title=" ">
<path fill="none" stroke="#63b8ff" d="M239.92,-60.49C215.32,-50.57 174.47,-34.09 146.44,-22.78"/>
<polygon fill="#63b8ff" stroke="#63b8ff" points="147.69,-19.51 137.11,-19.02 145.07,-26 147.69,-19.51"/>
</a>
</g>
</g>
<!-- Node6 -->
<g id="Node000006" class="node">
<title>Node6</title>
<g id="a_Node000006"><a xlink:title=" ">
<polygon fill="#e0e0e0" stroke="#999999" points="416.5,-19 343.5,-19 343.5,0 416.5,0 416.5,-19"/>
<text text-anchor="middle" x="380" y="-7" font-family="Helvetica,sans-Serif" font-size="10.00">G4Types.hh</text>
</a>
</g>
</g>
<!-- Node4&#45;&gt;Node6 -->
<g id="edge5_Node000004_Node000006" class="edge">
<title>Node4&#45;&gt;Node6</title>
<g id="a_edge5_Node000004_Node000006"><a xlink:title=" ">
<path fill="none" stroke="#63b8ff" d="M278.3,-60.49C298.05,-50.79 330.55,-34.81 353.49,-23.53"/>
<polygon fill="#63b8ff" stroke="#63b8ff" points="355.25,-26.57 362.68,-19.02 352.16,-20.29 355.25,-26.57"/>
</a>
</g>
</g>
<!-- Node4&#45;&gt;Node7 -->
<g id="edge6_Node000004_Node000007" class="edge">
<title>Node4&#45;&gt;Node7</title>
<g id="a_edge6_Node000004_Node000007"><a xlink:title=" ">
<path fill="none" stroke="#63b8ff" d="M220.97,-60.47C179.85,-51.52 113.81,-36.64 47.95,-19.12"/>
<polygon fill="#63b8ff" stroke="#63b8ff" points="48.8,-15.73 38.23,-16.52 46.98,-22.49 48.8,-15.73"/>
</a>
</g>
</g>
<!-- Node8 -->
<g id="Node000008" class="node">
<title>Node8</title>
<g id="a_Node000008"><a xlink:title=" ">
<polygon fill="#e0e0e0" stroke="#999999" points="254.5,-19 193.5,-19 193.5,0 254.5,0 254.5,-19"/>
<text text-anchor="middle" x="224" y="-7" font-family="Helvetica,sans-Serif" font-size="10.00">TGraph.h</text>
</a>
</g>
</g>
<!-- Node4&#45;&gt;Node8 -->
<g id="edge7_Node000004_Node000008" class="edge">
<title>Node4&#45;&gt;Node8</title>
<g id="a_edge7_Node000004_Node000008"><a xlink:title=" ">
<path fill="none" stroke="#63b8ff" d="M255.54,-60.37C250.13,-51.81 241.69,-38.47 234.9,-27.74"/>
<polygon fill="#63b8ff" stroke="#63b8ff" points="237.79,-25.75 229.48,-19.17 231.87,-29.49 237.79,-25.75"/>
</a>
</g>
</g>
<!-- Node9 -->
<g id="Node000009" class="node">
<title>Node9</title>
<g id="a_Node000009"><a xlink:title=" ">
<polygon fill="#e0e0e0" stroke="#999999" points="325.5,-19 272.5,-19 272.5,0 325.5,0 325.5,-19"/>
<text text-anchor="middle" x="299" y="-7" font-family="Helvetica,sans-Serif" font-size="10.00">TH2D.h</text>
</a>
</g>
</g>
<!-- Node4&#45;&gt;Node9 -->
<g id="edge8_Node000004_Node000009" class="edge">
<title>Node4&#45;&gt;Node9</title>
<g id="a_edge8_Node000004_Node000009"><a xlink:title=" ">
<path fill="none" stroke="#63b8ff" d="M266.61,-60.37C272.16,-51.81 280.83,-38.47 287.8,-27.74"/>
<polygon fill="#63b8ff" stroke="#63b8ff" points="290.86,-29.46 293.37,-19.17 284.99,-25.65 290.86,-29.46"/>
</a>
</g>
</g>
<!-- Node10&#45;&gt;Node6 -->
<g id="edge12_Node000010_Node000006" class="edge">
<title>Node10&#45;&gt;Node6</title>
<g id="a_edge12_Node000010_Node000006"><a xlink:title=" ">
<path fill="none" stroke="#63b8ff" d="M476.33,-60.37C457.72,-50.73 427.38,-35.03 405.72,-23.81"/>
<polygon fill="#63b8ff" stroke="#63b8ff" points="407.23,-20.66 396.74,-19.17 404.01,-26.87 407.23,-20.66"/>
</a>
</g>
</g>
<!-- Node11 -->
<g id="Node000011" class="node">
<title>Node11</title>
<g id="a_Node000011"><a xlink:title=" ">
<polygon fill="#e0e0e0" stroke="#999999" points="483.5,-19 434.5,-19 434.5,0 483.5,0 483.5,-19"/>
<text text-anchor="middle" x="459" y="-7" font-family="Helvetica,sans-Serif" font-size="10.00">TFile.h</text>
</a>
</g>
</g>
<!-- Node10&#45;&gt;Node11 -->
<g id="edge10_Node000010_Node000011" class="edge">
<title>Node10&#45;&gt;Node11</title>
<g id="a_edge10_Node000010_Node000011"><a xlink:title=" ">
<path fill="none" stroke="#63b8ff" d="M487.98,-60.37C483.06,-51.9 475.41,-38.74 469.21,-28.07"/>
<polygon fill="#63b8ff" stroke="#63b8ff" points="472.09,-26.05 464.04,-19.17 466.04,-29.57 472.09,-26.05"/>
</a>
</g>
</g>
<!-- Node12 -->
<g id="Node000012" class="node">
<title>Node12</title>
<g id="a_Node000012"><a xlink:title=" ">
<polygon fill="#e0e0e0" stroke="#999999" points="554,-19 502,-19 502,0 554,0 554,-19"/>
<text text-anchor="middle" x="528" y="-7" font-family="Helvetica,sans-Serif" font-size="10.00">TTree.h</text>
</a>
</g>
</g>
<!-- Node10&#45;&gt;Node12 -->
<g id="edge11_Node000010_Node000012" class="edge">
<title>Node10&#45;&gt;Node12</title>
<g id="a_edge11_Node000010_Node000012"><a xlink:title=" ">
<path fill="none" stroke="#63b8ff" d="M498.16,-60.37C503.23,-51.9 511.1,-38.74 517.49,-28.07"/>
<polygon fill="#63b8ff" stroke="#63b8ff" points="520.68,-29.55 522.81,-19.17 514.68,-25.95 520.68,-29.55"/>
</a>
</g>
</g>
<!-- Node10&#45;&gt;Node13 -->
<g id="edge13_Node000010_Node000013" class="edge">
<title>Node10&#45;&gt;Node13</title>
<g id="a_edge13_Node000010_Node000013"><a xlink:title=" ">
<path fill="none" stroke="#63b8ff" d="M523.39,-60.49C559.92,-50.27 621.34,-33.08 661.77,-21.76"/>
<polygon fill="#63b8ff" stroke="#63b8ff" points="662.89,-25.08 671.57,-19.02 661,-18.34 662.89,-25.08"/>
</a>
</g>
</g>
<!-- Node14 -->
<g id="Node000014" class="node">
<title>Node14</title>
<g id="a_Node000014"><a xlink:title=" ">
<polygon fill="#e0e0e0" stroke="#999999" points="632,-19 572,-19 572,0 632,0 632,-19"/>
<text text-anchor="middle" x="602" y="-7" font-family="Helvetica,sans-Serif" font-size="10.00">TString.h</text>
</a>
</g>
</g>
<!-- Node10&#45;&gt;Node14 -->
<g id="edge14_Node000010_Node000014" class="edge">
<title>Node10&#45;&gt;Node14</title>
<g id="a_edge14_Node000010_Node000014"><a xlink:title=" ">
<path fill="none" stroke="#63b8ff" d="M509.08,-60.37C526.95,-50.78 556.04,-35.17 576.91,-23.97"/>
<polygon fill="#63b8ff" stroke="#63b8ff" points="578.69,-26.98 585.85,-19.17 575.38,-20.81 578.69,-26.98"/>
</a>
</g>
</g>
<!-- Node20 -->
<g id="Node000020" class="node">
<title>Node20</title>
<g id="a_Node000020"><a xlink:title=" ">
<polygon fill="#e0e0e0" stroke="#999999" points="1059.5,-79.5 966.5,-79.5 966.5,-60.5 1059.5,-60.5 1059.5,-79.5"/>
<text text-anchor="middle" x="1013" y="-67.5" font-family="Helvetica,sans-Serif" font-size="10.00">spdlog/spdlog.h</text>
</a>
</g>
</g>
<!-- Node19&#45;&gt;Node20 -->
<g id="edge22_Node000019_Node000020" class="edge">
<title>Node19&#45;&gt;Node20</title>
<g id="a_edge22_Node000019_Node000020"><a xlink:title=" ">
<path fill="none" stroke="#63b8ff" d="M1064.15,-120.87C1055.02,-111.97 1040.58,-97.89 1029.36,-86.95"/>
<polygon fill="#63b8ff" stroke="#63b8ff" points="1031.49,-84.14 1021.89,-79.67 1026.61,-89.15 1031.49,-84.14"/>
</a>
</g>
</g>
<!-- Node21 -->
<g id="Node000021" class="node">
<title>Node21</title>
<g id="a_Node000021"><a xlink:title=" ">
<polygon fill="#e0e0e0" stroke="#999999" points="1188.5,-85 1077.5,-85 1077.5,-55 1188.5,-55 1188.5,-85"/>
<text text-anchor="start" x="1085.5" y="-73" font-family="Helvetica,sans-Serif" font-size="10.00">spdlog/sinks/stdout</text>
<text text-anchor="middle" x="1133" y="-62" font-family="Helvetica,sans-Serif" font-size="10.00">_color_sinks.h</text>
</a>
</g>
</g>
<!-- Node19&#45;&gt;Node21 -->
<g id="edge23_Node000019_Node000021" class="edge">
<title>Node19&#45;&gt;Node21</title>
<g id="a_edge23_Node000019_Node000021"><a xlink:title=" ">
<path fill="none" stroke="#63b8ff" d="M1081.85,-120.87C1089.54,-113.37 1101,-102.2 1111.13,-92.33"/>
<polygon fill="#63b8ff" stroke="#63b8ff" points="1113.81,-94.6 1118.52,-85.11 1108.92,-89.59 1113.81,-94.6"/>
</a>
</g>
</g>
<!-- Node22 -->
<g id="Node000022" class="node">
<title>Node22</title>
<g id="a_Node000022"><a xlink:title=" ">
<polygon fill="#e0e0e0" stroke="#999999" points="1265,-79.5 1207,-79.5 1207,-60.5 1265,-60.5 1265,-79.5"/>
<text text-anchor="middle" x="1236" y="-67.5" font-family="Helvetica,sans-Serif" font-size="10.00">memory</text>
</a>
</g>
</g>
<!-- Node19&#45;&gt;Node22 -->
<g id="edge24_Node000019_Node000022" class="edge">
<title>Node19&#45;&gt;Node22</title>
<g id="a_edge24_Node000019_Node000022"><a xlink:title=" ">
<path fill="none" stroke="#63b8ff" d="M1097.46,-120.88C1122.68,-111.97 1163.13,-97.63 1198,-85 1199.64,-84.41 1201.31,-83.8 1203,-83.18"/>
<polygon fill="#63b8ff" stroke="#63b8ff" points="1204.52,-86.35 1212.7,-79.63 1202.11,-79.78 1204.52,-86.35"/>
</a>
</g>
</g>
<!-- Node23 -->
<g id="Node000023" class="node">
<title>Node23</title>
<g id="a_Node000023"><a xlink:title=" ">
<polygon fill="#e0e0e0" stroke="#999999" points="1381,-79.5 1283,-79.5 1283,-60.5 1381,-60.5 1381,-79.5"/>
<text text-anchor="middle" x="1332" y="-67.5" font-family="Helvetica,sans-Serif" font-size="10.00">spdlog/fmt/fmt.h</text>
</a>
</g>
</g>
<!-- Node19&#45;&gt;Node23 -->
<g id="edge25_Node000019_Node000023" class="edge">
<title>Node19&#45;&gt;Node23</title>
<g id="a_edge25_Node000019_Node000023"><a xlink:title=" ">
<path fill="none" stroke="#63b8ff" d="M1112.71,-120.94C1153.3,-112.14 1218.11,-97.93 1274,-85 1278.32,-84 1282.81,-82.95 1287.3,-81.88"/>
<polygon fill="#63b8ff" stroke="#63b8ff" points="1288.15,-85.28 1297.06,-79.55 1286.52,-78.47 1288.15,-85.28"/>
</a>
</g>
</g>
</g>
</svg>
