<?xml version="1.0" encoding="UTF-8" standalone="no"?>
<!DOCTYPE svg PUBLIC "-//W3C//DTD SVG 1.1//EN"
 "http://www.w3.org/Graphics/SVG/1.1/DTD/svg11.dtd">
<!-- Generated by graphviz version 2.43.0 (0)
 -->
<!-- Title: CADMesh::File::Item Pages: 1 -->
<svg width="180pt" height="93pt"
 viewBox="0.00 0.00 179.50 93.00" xmlns="http://www.w3.org/2000/svg" xmlns:xlink="http://www.w3.org/1999/xlink">
<g id="graph0" class="graph" transform="scale(1 1) rotate(0) translate(4 89)">
<title>CADMesh::File::Item</title>
<!-- Node1 -->
<g id="Node000001" class="node">
<title>Node1</title>
<g id="a_Node000001"><a xlink:title=" ">
<polygon fill="#999999" stroke="#666666" points="118.5,-19 2.5,-19 2.5,0 118.5,0 118.5,-19"/>
<text text-anchor="middle" x="60.5" y="-7" font-family="Helvetica,sans-Serif" font-size="10.00">CADMesh::File::Item</text>
</a>
</g>
</g>
<!-- Node1&#45;&gt;Node1 -->
<g id="edge2_Node000001_Node000001" class="edge">
<title>Node1&#45;&gt;Node1</title>
<g id="a_edge2_Node000001_Node000001"><a xlink:title=" ">
<path fill="none" stroke="#9a32cd" stroke-dasharray="5,2" d="M128.98,-13.84C133.66,-12.84 136.5,-11.39 136.5,-9.5 136.5,-6.47 129.23,-4.59 118.81,-3.85"/>
<polygon fill="#9a32cd" stroke="#9a32cd" points="128.28,-10.4 118.81,-15.15 129.18,-17.34 128.28,-10.4"/>
</a>
</g>
<text text-anchor="middle" x="154" y="-7" font-family="Helvetica,sans-Serif" font-size="10.00" fill="grey"> parent</text>
</g>
<!-- Node2 -->
<g id="Node000002" class="node">
<title>Node2</title>
<g id="a_Node000002"><a xlink:href="struct_c_a_d_mesh_1_1_file_1_1_token.html" target="_top" xlink:title=" ">
<polygon fill="white" stroke="#bfbfbf" points="121,-85 0,-85 0,-66 121,-66 121,-85"/>
<text text-anchor="middle" x="60.5" y="-73" font-family="Helvetica,sans-Serif" font-size="10.00">CADMesh::File::Token</text>
</a>
</g>
</g>
<!-- Node2&#45;&gt;Node1 -->
<g id="edge1_Node000001_Node000002" class="edge">
<title>Node2&#45;&gt;Node1</title>
<g id="a_edge1_Node000001_Node000002"><a xlink:title=" ">
<path fill="none" stroke="#9a32cd" stroke-dasharray="5,2" d="M60.5,-55.58C60.5,-43.63 60.5,-28.72 60.5,-19.41"/>
<polygon fill="#9a32cd" stroke="#9a32cd" points="57,-55.87 60.5,-65.87 64,-55.87 57,-55.87"/>
</a>
</g>
<text text-anchor="middle" x="76" y="-40" font-family="Helvetica,sans-Serif" font-size="10.00" fill="grey"> token</text>
</g>
</g>
</svg>
