<?xml version="1.0" encoding="UTF-8" standalone="no"?>
<!DOCTYPE svg PUBLIC "-//W3C//DTD SVG 1.1//EN"
 "http://www.w3.org/Graphics/SVG/1.1/DTD/svg11.dtd">
<!-- Generated by graphviz version 2.43.0 (0)
 -->
<!-- Title: OMSimPrimaryGeneratorAction.cc Pages: 1 -->
<svg width="1184pt" height="274pt"
 viewBox="0.00 0.00 1183.80 274.00" xmlns="http://www.w3.org/2000/svg" xmlns:xlink="http://www.w3.org/1999/xlink">
<g id="graph0" class="graph" transform="scale(1 1) rotate(0) translate(4 270)">
<title>OMSimPrimaryGeneratorAction.cc</title>
<polygon fill="white" stroke="transparent" points="-4,4 -4,-270 1179.8,-270 1179.8,4 -4,4"/>
<!-- Node1 -->
<g id="node1" class="node">
<title>Node1</title>
<g id="a_node1"><a xlink:title=" ">
<polygon fill="#bfbfbf" stroke="black" points="481.8,-246.5 481.8,-265.5 664.8,-265.5 664.8,-246.5 481.8,-246.5"/>
<text text-anchor="middle" x="573.3" y="-253.5" font-family="Helvetica,sans-Serif" font-size="10.00">OMSimPrimaryGeneratorAction.cc</text>
</a>
</g>
</g>
<!-- Node2 -->
<g id="node2" class="node">
<title>Node2</title>
<g id="a_node2"><a xlink:title=" ">
<polygon fill="white" stroke="#bfbfbf" points="38.8,-190.5 38.8,-209.5 223.8,-209.5 223.8,-190.5 38.8,-190.5"/>
<text text-anchor="middle" x="131.3" y="-197.5" font-family="Helvetica,sans-Serif" font-size="10.00">OMSimPrimaryGeneratorAction.hh</text>
</a>
</g>
</g>
<!-- Node1&#45;&gt;Node2 -->
<g id="edge1" class="edge">
<title>Node1&#45;&gt;Node2</title>
<path fill="none" stroke="midnightblue" d="M503.27,-246.44C423.82,-236.74 294.51,-220.94 211.19,-210.76"/>
<polygon fill="midnightblue" stroke="midnightblue" points="211.36,-207.26 201.01,-209.52 210.51,-214.2 211.36,-207.26"/>
</g>
<!-- Node3 -->
<g id="node3" class="node">
<title>Node3</title>
<g id="a_node3"><a xlink:href="_o_m_sim_s_n_analysis_8hh.html" target="_top" xlink:title=" ">
<polygon fill="white" stroke="black" points="242.3,-190.5 242.3,-209.5 364.3,-209.5 364.3,-190.5 242.3,-190.5"/>
<text text-anchor="middle" x="303.3" y="-197.5" font-family="Helvetica,sans-Serif" font-size="10.00">OMSimSNAnalysis.hh</text>
</a>
</g>
</g>
<!-- Node1&#45;&gt;Node3 -->
<g id="edge2" class="edge">
<title>Node1&#45;&gt;Node3</title>
<path fill="none" stroke="midnightblue" d="M530.52,-246.44C483.12,-236.96 406.68,-221.67 355.72,-211.48"/>
<polygon fill="midnightblue" stroke="midnightblue" points="356.38,-208.05 345.88,-209.52 355,-214.91 356.38,-208.05"/>
</g>
<!-- Node16 -->
<g id="node16" class="node">
<title>Node16</title>
<g id="a_node16"><a xlink:href="_o_m_sim_command_args_table_8hh.html" target="_top" xlink:title="Definition of the OMSimCommandArgsTable singleton class, which controls user args.">
<polygon fill="white" stroke="black" points="416.3,-190.5 416.3,-209.5 580.3,-209.5 580.3,-190.5 416.3,-190.5"/>
<text text-anchor="middle" x="498.3" y="-197.5" font-family="Helvetica,sans-Serif" font-size="10.00">OMSimCommandArgsTable.hh</text>
</a>
</g>
</g>
<!-- Node1&#45;&gt;Node16 -->
<g id="edge18" class="edge">
<title>Node1&#45;&gt;Node16</title>
<path fill="none" stroke="midnightblue" d="M561.25,-246.32C549.84,-238.11 532.47,-225.6 518.87,-215.81"/>
<polygon fill="midnightblue" stroke="midnightblue" points="520.73,-212.84 510.57,-209.83 516.64,-218.52 520.73,-212.84"/>
</g>
<!-- Node24 -->
<g id="node24" class="node">
<title>Node24</title>
<g id="a_node24"><a xlink:title=" ">
<polygon fill="white" stroke="#bfbfbf" points="598.8,-190.5 598.8,-209.5 699.8,-209.5 699.8,-190.5 598.8,-190.5"/>
<text text-anchor="middle" x="649.3" y="-197.5" font-family="Helvetica,sans-Serif" font-size="10.00">G4ParticleGun.hh</text>
</a>
</g>
</g>
<!-- Node1&#45;&gt;Node24 -->
<g id="edge27" class="edge">
<title>Node1&#45;&gt;Node24</title>
<path fill="none" stroke="midnightblue" d="M585.51,-246.32C597.08,-238.11 614.68,-225.6 628.46,-215.81"/>
<polygon fill="midnightblue" stroke="midnightblue" points="630.75,-218.48 636.87,-209.83 626.69,-212.77 630.75,-218.48"/>
</g>
<!-- Node25 -->
<g id="node25" class="node">
<title>Node25</title>
<g id="a_node25"><a xlink:title=" ">
<polygon fill="white" stroke="#bfbfbf" points="717.8,-190.5 717.8,-209.5 824.8,-209.5 824.8,-190.5 717.8,-190.5"/>
<text text-anchor="middle" x="771.3" y="-197.5" font-family="Helvetica,sans-Serif" font-size="10.00">G4ParticleTable.hh</text>
</a>
</g>
</g>
<!-- Node1&#45;&gt;Node25 -->
<g id="edge28" class="edge">
<title>Node1&#45;&gt;Node25</title>
<path fill="none" stroke="midnightblue" d="M604.68,-246.44C638.57,-237.2 692.71,-222.44 730.03,-212.26"/>
<polygon fill="midnightblue" stroke="midnightblue" points="731.35,-215.52 740.08,-209.52 729.51,-208.77 731.35,-215.52"/>
</g>
<!-- Node26 -->
<g id="node26" class="node">
<title>Node26</title>
<g id="a_node26"><a xlink:href="_o_m_sim_input_data_8hh.html" target="_top" xlink:title="Definition of ParameterTable and InputDataManager.">
<polygon fill="white" stroke="black" points="842.8,-190.5 842.8,-209.5 957.8,-209.5 957.8,-190.5 842.8,-190.5"/>
<text text-anchor="middle" x="900.3" y="-197.5" font-family="Helvetica,sans-Serif" font-size="10.00">OMSimInputData.hh</text>
</a>
</g>
</g>
<!-- Node1&#45;&gt;Node26 -->
<g id="edge29" class="edge">
<title>Node1&#45;&gt;Node26</title>
<path fill="none" stroke="midnightblue" d="M625.12,-246.44C683.12,-236.87 777.04,-221.36 838.74,-211.17"/>
<polygon fill="midnightblue" stroke="midnightblue" points="839.43,-214.6 848.73,-209.52 838.29,-207.69 839.43,-214.6"/>
</g>
<!-- Node4 -->
<g id="node4" class="node">
<title>Node4</title>
<g id="a_node4"><a xlink:title=" ">
<polygon fill="white" stroke="#bfbfbf" points="18.8,-0.5 18.8,-19.5 91.8,-19.5 91.8,-0.5 18.8,-0.5"/>
<text text-anchor="middle" x="55.3" y="-7.5" font-family="Helvetica,sans-Serif" font-size="10.00">G4Types.hh</text>
</a>
</g>
</g>
<!-- Node3&#45;&gt;Node4 -->
<g id="edge3" class="edge">
<title>Node3&#45;&gt;Node4</title>
<path fill="none" stroke="midnightblue" d="M242.23,-190.56C158,-178.78 16.04,-158.36 12.3,-154 -19.66,-116.72 19.21,-56.33 41.6,-27.43"/>
<polygon fill="midnightblue" stroke="midnightblue" points="44.4,-29.52 47.92,-19.53 38.94,-25.15 44.4,-29.52"/>
</g>
<!-- Node5 -->
<g id="node5" class="node">
<title>Node5</title>
<g id="a_node5"><a xlink:title=" ">
<polygon fill="white" stroke="#bfbfbf" points="21.3,-129 21.3,-148 95.3,-148 95.3,-129 21.3,-129"/>
<text text-anchor="middle" x="58.3" y="-136" font-family="Helvetica,sans-Serif" font-size="10.00">G4String.hh</text>
</a>
</g>
</g>
<!-- Node3&#45;&gt;Node5 -->
<g id="edge4" class="edge">
<title>Node3&#45;&gt;Node5</title>
<path fill="none" stroke="midnightblue" d="M263.78,-190.43C224.48,-181.77 162.53,-167.73 109.3,-154 105.4,-152.99 101.35,-151.91 97.3,-150.8"/>
<polygon fill="midnightblue" stroke="midnightblue" points="97.94,-147.34 87.36,-148.03 96.06,-154.09 97.94,-147.34"/>
</g>
<!-- Node6 -->
<g id="node6" class="node">
<title>Node6</title>
<g id="a_node6"><a xlink:title=" ">
<polygon fill="white" stroke="#bfbfbf" points="47.8,-62 47.8,-81 150.8,-81 150.8,-62 47.8,-62"/>
<text text-anchor="middle" x="99.3" y="-69" font-family="Helvetica,sans-Serif" font-size="10.00">G4ThreeVector.hh</text>
</a>
</g>
</g>
<!-- Node3&#45;&gt;Node6 -->
<g id="edge5" class="edge">
<title>Node3&#45;&gt;Node6</title>
<path fill="none" stroke="midnightblue" d="M257.65,-190.43C216.57,-181.99 160.03,-168.31 142.3,-154 122.11,-137.71 110.25,-109.35 104.26,-90.75"/>
<polygon fill="midnightblue" stroke="midnightblue" points="107.6,-89.69 101.4,-81.1 100.88,-91.68 107.6,-89.69"/>
</g>
<!-- Node7 -->
<g id="node7" class="node">
<title>Node7</title>
<g id="a_node7"><a xlink:href="_o_m_sim_hit_manager_8hh.html" target="_top" xlink:title="Defines structures and classes related to optical module photon hit management.">
<polygon fill="white" stroke="black" points="151.8,-129 151.8,-148 274.8,-148 274.8,-129 151.8,-129"/>
<text text-anchor="middle" x="213.3" y="-136" font-family="Helvetica,sans-Serif" font-size="10.00">OMSimHitManager.hh</text>
</a>
</g>
</g>
<!-- Node3&#45;&gt;Node7 -->
<g id="edge6" class="edge">
<title>Node3&#45;&gt;Node7</title>
<path fill="none" stroke="midnightblue" d="M290.41,-190.48C275.84,-180.84 251.9,-165.02 234.56,-153.55"/>
<polygon fill="midnightblue" stroke="midnightblue" points="236.45,-150.6 226.17,-148.01 232.59,-156.44 236.45,-150.6"/>
</g>
<!-- Node13 -->
<g id="node13" class="node">
<title>Node13</title>
<g id="a_node13"><a xlink:title=" ">
<polygon fill="white" stroke="#bfbfbf" points="321.8,-62 321.8,-81 376.8,-81 376.8,-62 321.8,-62"/>
<text text-anchor="middle" x="349.3" y="-69" font-family="Helvetica,sans-Serif" font-size="10.00">fstream</text>
</a>
</g>
</g>
<!-- Node3&#45;&gt;Node13 -->
<g id="edge16" class="edge">
<title>Node3&#45;&gt;Node13</title>
<path fill="none" stroke="midnightblue" d="M304.93,-190.37C307.77,-176.08 314.21,-146.69 323.3,-123 327.66,-111.66 333.84,-99.54 339.09,-90.01"/>
<polygon fill="midnightblue" stroke="midnightblue" points="342.21,-91.6 344.1,-81.17 336.12,-88.14 342.21,-91.6"/>
</g>
<!-- Node14 -->
<g id="node14" class="node">
<title>Node14</title>
<g id="a_node14"><a xlink:title=" ">
<polygon fill="white" stroke="#bfbfbf" points="331.8,-129 331.8,-148 378.8,-148 378.8,-129 331.8,-129"/>
<text text-anchor="middle" x="355.3" y="-136" font-family="Helvetica,sans-Serif" font-size="10.00">vector</text>
</a>
</g>
</g>
<!-- Node3&#45;&gt;Node14 -->
<g id="edge15" class="edge">
<title>Node3&#45;&gt;Node14</title>
<path fill="none" stroke="midnightblue" d="M310.75,-190.48C318.63,-181.46 331.25,-167.02 341.05,-155.81"/>
<polygon fill="midnightblue" stroke="midnightblue" points="343.92,-157.84 347.87,-148.01 338.65,-153.24 343.92,-157.84"/>
</g>
<!-- Node15 -->
<g id="node15" class="node">
<title>Node15</title>
<g id="a_node15"><a xlink:title=" ">
<polygon fill="white" stroke="#bfbfbf" points="396.8,-129 396.8,-148 437.8,-148 437.8,-129 396.8,-129"/>
<text text-anchor="middle" x="417.3" y="-136" font-family="Helvetica,sans-Serif" font-size="10.00">tuple</text>
</a>
</g>
</g>
<!-- Node3&#45;&gt;Node15 -->
<g id="edge17" class="edge">
<title>Node3&#45;&gt;Node15</title>
<path fill="none" stroke="midnightblue" d="M319.64,-190.48C338.51,-180.62 369.81,-164.29 391.88,-152.77"/>
<polygon fill="midnightblue" stroke="midnightblue" points="393.75,-155.74 401,-148.01 390.51,-149.53 393.75,-155.74"/>
</g>
<!-- Node7&#45;&gt;Node6 -->
<g id="edge13" class="edge">
<title>Node7&#45;&gt;Node6</title>
<path fill="none" stroke="midnightblue" d="M197.93,-128.73C178.78,-117.82 145.86,-99.05 123.37,-86.22"/>
<polygon fill="midnightblue" stroke="midnightblue" points="124.85,-83.04 114.43,-81.13 121.39,-89.12 124.85,-83.04"/>
</g>
<!-- Node8 -->
<g id="node8" class="node">
<title>Node8</title>
<g id="a_node8"><a xlink:href="_o_m_sim_p_m_t_response_8hh.html" target="_top" xlink:title="Provides simulation for PMT response. This class is responsible for transforming hits on photocathode...">
<polygon fill="white" stroke="black" points="168.8,-62 168.8,-81 303.8,-81 303.8,-62 168.8,-62"/>
<text text-anchor="middle" x="236.3" y="-69" font-family="Helvetica,sans-Serif" font-size="10.00">OMSimPMTResponse.hh</text>
</a>
</g>
</g>
<!-- Node7&#45;&gt;Node8 -->
<g id="edge7" class="edge">
<title>Node7&#45;&gt;Node8</title>
<path fill="none" stroke="midnightblue" d="M216.4,-128.73C219.82,-119.09 225.4,-103.3 229.79,-90.91"/>
<polygon fill="midnightblue" stroke="midnightblue" points="233.21,-91.72 233.25,-81.13 226.61,-89.39 233.21,-91.72"/>
</g>
<!-- Node7&#45;&gt;Node13 -->
<g id="edge14" class="edge">
<title>Node7&#45;&gt;Node13</title>
<path fill="none" stroke="midnightblue" d="M231.36,-128.87C254.53,-117.8 294.93,-98.49 321.9,-85.6"/>
<polygon fill="midnightblue" stroke="midnightblue" points="323.65,-88.64 331.17,-81.17 320.64,-82.32 323.65,-88.64"/>
</g>
<!-- Node8&#45;&gt;Node4 -->
<g id="edge9" class="edge">
<title>Node8&#45;&gt;Node4</title>
<path fill="none" stroke="midnightblue" d="M210.37,-61.98C179.05,-51.68 126.21,-34.31 91.05,-22.75"/>
<polygon fill="midnightblue" stroke="midnightblue" points="91.78,-19.31 81.19,-19.51 89.59,-25.96 91.78,-19.31"/>
</g>
<!-- Node9 -->
<g id="node9" class="node">
<title>Node9</title>
<g id="a_node9"><a xlink:title=" ">
<polygon fill="white" stroke="#bfbfbf" points="593.8,-0.5 593.8,-19.5 712.8,-19.5 712.8,-0.5 593.8,-0.5"/>
<text text-anchor="middle" x="653.3" y="-7.5" font-family="Helvetica,sans-Serif" font-size="10.00">G4SystemOfUnits.hh</text>
</a>
</g>
</g>
<!-- Node8&#45;&gt;Node9 -->
<g id="edge8" class="edge">
<title>Node8&#45;&gt;Node9</title>
<path fill="none" stroke="midnightblue" d="M279.4,-61.96C290.43,-59.89 302.29,-57.76 313.3,-56 406.41,-41.08 514.44,-27.4 583.3,-19.13"/>
<polygon fill="midnightblue" stroke="midnightblue" points="584.07,-22.57 593.58,-17.9 583.24,-15.62 584.07,-22.57"/>
</g>
<!-- Node10 -->
<g id="node10" class="node">
<title>Node10</title>
<g id="a_node10"><a xlink:title=" ">
<polygon fill="white" stroke="#bfbfbf" points="149.3,-0.5 149.3,-19.5 187.3,-19.5 187.3,-0.5 149.3,-0.5"/>
<text text-anchor="middle" x="168.3" y="-7.5" font-family="Helvetica,sans-Serif" font-size="10.00">map</text>
</a>
</g>
</g>
<!-- Node8&#45;&gt;Node10 -->
<g id="edge10" class="edge">
<title>Node8&#45;&gt;Node10</title>
<path fill="none" stroke="midnightblue" d="M226.56,-61.98C215.96,-52.7 198.78,-37.67 185.82,-26.33"/>
<polygon fill="midnightblue" stroke="midnightblue" points="187.86,-23.46 178.03,-19.51 183.25,-28.73 187.86,-23.46"/>
</g>
<!-- Node11 -->
<g id="node11" class="node">
<title>Node11</title>
<g id="a_node11"><a xlink:title=" ">
<polygon fill="white" stroke="#bfbfbf" points="205.8,-0.5 205.8,-19.5 266.8,-19.5 266.8,-0.5 205.8,-0.5"/>
<text text-anchor="middle" x="236.3" y="-7.5" font-family="Helvetica,sans-Serif" font-size="10.00">TGraph.h</text>
</a>
</g>
</g>
<!-- Node8&#45;&gt;Node11 -->
<g id="edge11" class="edge">
<title>Node8&#45;&gt;Node11</title>
<path fill="none" stroke="midnightblue" d="M236.3,-61.98C236.3,-53.58 236.3,-40.48 236.3,-29.66"/>
<polygon fill="midnightblue" stroke="midnightblue" points="239.8,-29.51 236.3,-19.51 232.8,-29.51 239.8,-29.51"/>
</g>
<!-- Node12 -->
<g id="node12" class="node">
<title>Node12</title>
<g id="a_node12"><a xlink:title=" ">
<polygon fill="white" stroke="#bfbfbf" points="284.8,-0.5 284.8,-19.5 337.8,-19.5 337.8,-0.5 284.8,-0.5"/>
<text text-anchor="middle" x="311.3" y="-7.5" font-family="Helvetica,sans-Serif" font-size="10.00">TH2D.h</text>
</a>
</g>
</g>
<!-- Node8&#45;&gt;Node12 -->
<g id="edge12" class="edge">
<title>Node8&#45;&gt;Node12</title>
<path fill="none" stroke="midnightblue" d="M247.05,-61.98C258.86,-52.61 278.05,-37.38 292.38,-26.01"/>
<polygon fill="midnightblue" stroke="midnightblue" points="294.92,-28.47 300.58,-19.51 290.57,-22.98 294.92,-28.47"/>
</g>
<!-- Node16&#45;&gt;Node13 -->
<g id="edge24" class="edge">
<title>Node16&#45;&gt;Node13</title>
<path fill="none" stroke="midnightblue" d="M494.38,-190.45C487.02,-175.22 469.84,-143.08 447.3,-123 428.64,-106.37 403.5,-93.56 383.36,-85.01"/>
<polygon fill="midnightblue" stroke="midnightblue" points="384.51,-81.69 373.93,-81.15 381.86,-88.17 384.51,-81.69"/>
</g>
<!-- Node17 -->
<g id="node17" class="node">
<title>Node17</title>
<g id="a_node17"><a xlink:href="_o_m_sim_logger_8hh.html" target="_top" xlink:title=" ">
<polygon fill="white" stroke="black" points="682.8,-129 682.8,-148 781.8,-148 781.8,-129 682.8,-129"/>
<text text-anchor="middle" x="732.3" y="-136" font-family="Helvetica,sans-Serif" font-size="10.00">OMSimLogger.hh</text>
</a>
</g>
</g>
<!-- Node16&#45;&gt;Node17 -->
<g id="edge19" class="edge">
<title>Node16&#45;&gt;Node17</title>
<path fill="none" stroke="midnightblue" d="M531.83,-190.48C573.18,-179.96 643.57,-162.06 688.99,-150.51"/>
<polygon fill="midnightblue" stroke="midnightblue" points="690.01,-153.87 698.84,-148.01 688.28,-147.08 690.01,-153.87"/>
</g>
<!-- Node22 -->
<g id="node22" class="node">
<title>Node22</title>
<g id="a_node22"><a xlink:title=" ">
<polygon fill="white" stroke="#bfbfbf" points="494.3,-129 494.3,-148 578.3,-148 578.3,-129 494.3,-129"/>
<text text-anchor="middle" x="536.3" y="-136" font-family="Helvetica,sans-Serif" font-size="10.00">boost/any.hpp</text>
</a>
</g>
</g>
<!-- Node16&#45;&gt;Node22 -->
<g id="edge25" class="edge">
<title>Node16&#45;&gt;Node22</title>
<path fill="none" stroke="midnightblue" d="M503.75,-190.48C509.39,-181.64 518.36,-167.59 525.46,-156.48"/>
<polygon fill="midnightblue" stroke="midnightblue" points="528.44,-158.32 530.87,-148.01 522.54,-154.55 528.44,-158.32"/>
</g>
<!-- Node23 -->
<g id="node23" class="node">
<title>Node23</title>
<g id="a_node23"><a xlink:title=" ">
<polygon fill="white" stroke="#bfbfbf" points="596.3,-129 596.3,-148 664.3,-148 664.3,-129 596.3,-129"/>
<text text-anchor="middle" x="630.3" y="-136" font-family="Helvetica,sans-Serif" font-size="10.00">sys/time.h</text>
</a>
</g>
</g>
<!-- Node16&#45;&gt;Node23 -->
<g id="edge26" class="edge">
<title>Node16&#45;&gt;Node23</title>
<path fill="none" stroke="midnightblue" d="M517.21,-190.48C539.47,-180.45 576.61,-163.7 602.23,-152.15"/>
<polygon fill="midnightblue" stroke="midnightblue" points="603.75,-155.31 611.43,-148.01 600.87,-148.93 603.75,-155.31"/>
</g>
<!-- Node18 -->
<g id="node18" class="node">
<title>Node18</title>
<g id="a_node18"><a xlink:title=" ">
<polygon fill="white" stroke="#bfbfbf" points="430.8,-62 430.8,-81 523.8,-81 523.8,-62 430.8,-62"/>
<text text-anchor="middle" x="477.3" y="-69" font-family="Helvetica,sans-Serif" font-size="10.00">spdlog/spdlog.h</text>
</a>
</g>
</g>
<!-- Node17&#45;&gt;Node18 -->
<g id="edge20" class="edge">
<title>Node17&#45;&gt;Node18</title>
<path fill="none" stroke="midnightblue" d="M698.49,-128.97C658.88,-118.97 591.31,-101.87 533.3,-87 528.97,-85.89 524.45,-84.73 519.95,-83.56"/>
<polygon fill="midnightblue" stroke="midnightblue" points="520.72,-80.15 510.16,-81.04 518.97,-86.93 520.72,-80.15"/>
</g>
<!-- Node19 -->
<g id="node19" class="node">
<title>Node19</title>
<g id="a_node19"><a xlink:title=" ">
<polygon fill="white" stroke="#bfbfbf" points="541.8,-56.5 541.8,-86.5 652.8,-86.5 652.8,-56.5 541.8,-56.5"/>
<text text-anchor="start" x="549.8" y="-74.5" font-family="Helvetica,sans-Serif" font-size="10.00">spdlog/sinks/stdout</text>
<text text-anchor="middle" x="597.3" y="-63.5" font-family="Helvetica,sans-Serif" font-size="10.00">_color_sinks.h</text>
</a>
</g>
</g>
<!-- Node17&#45;&gt;Node19 -->
<g id="edge21" class="edge">
<title>Node17&#45;&gt;Node19</title>
<path fill="none" stroke="midnightblue" d="M714.38,-128.87C694.38,-119.24 661.45,-103.39 635.6,-90.94"/>
<polygon fill="midnightblue" stroke="midnightblue" points="636.97,-87.71 626.44,-86.53 633.93,-94.02 636.97,-87.71"/>
</g>
<!-- Node20 -->
<g id="node20" class="node">
<title>Node20</title>
<g id="a_node20"><a xlink:title=" ">
<polygon fill="white" stroke="#bfbfbf" points="671.3,-62 671.3,-81 729.3,-81 729.3,-62 671.3,-62"/>
<text text-anchor="middle" x="700.3" y="-69" font-family="Helvetica,sans-Serif" font-size="10.00">memory</text>
</a>
</g>
</g>
<!-- Node17&#45;&gt;Node20 -->
<g id="edge22" class="edge">
<title>Node17&#45;&gt;Node20</title>
<path fill="none" stroke="midnightblue" d="M727.99,-128.73C723.14,-118.89 715.15,-102.66 709,-90.16"/>
<polygon fill="midnightblue" stroke="midnightblue" points="712.11,-88.55 704.55,-81.13 705.83,-91.64 712.11,-88.55"/>
</g>
<!-- Node21 -->
<g id="node21" class="node">
<title>Node21</title>
<g id="a_node21"><a xlink:title=" ">
<polygon fill="white" stroke="#bfbfbf" points="747.3,-62 747.3,-81 845.3,-81 845.3,-62 747.3,-62"/>
<text text-anchor="middle" x="796.3" y="-69" font-family="Helvetica,sans-Serif" font-size="10.00">spdlog/fmt/fmt.h</text>
</a>
</g>
</g>
<!-- Node17&#45;&gt;Node21 -->
<g id="edge23" class="edge">
<title>Node17&#45;&gt;Node21</title>
<path fill="none" stroke="midnightblue" d="M740.93,-128.73C751.11,-118.4 768.2,-101.04 780.71,-88.33"/>
<polygon fill="midnightblue" stroke="midnightblue" points="783.29,-90.71 787.81,-81.13 778.3,-85.8 783.29,-90.71"/>
</g>
<!-- Node26&#45;&gt;Node9 -->
<g id="edge32" class="edge">
<title>Node26&#45;&gt;Node9</title>
<path fill="none" stroke="midnightblue" d="M898.66,-190.24C893.21,-162.1 874.91,-74.81 854.3,-56 835.15,-38.52 773.21,-26.4 723.09,-19.18"/>
<polygon fill="midnightblue" stroke="midnightblue" points="723.31,-15.68 712.92,-17.76 722.34,-22.61 723.31,-15.68"/>
</g>
<!-- Node26&#45;&gt;Node17 -->
<g id="edge30" class="edge">
<title>Node26&#45;&gt;Node17</title>
<path fill="none" stroke="midnightblue" d="M876.23,-190.48C847.29,-180.22 798.54,-162.96 765.9,-151.4"/>
<polygon fill="midnightblue" stroke="midnightblue" points="766.92,-148.05 756.33,-148.01 764.59,-154.65 766.92,-148.05"/>
</g>
<!-- Node27 -->
<g id="node27" class="node">
<title>Node27</title>
<g id="a_node27"><a xlink:title=" ">
<polygon fill="white" stroke="#bfbfbf" points="901.8,-129 901.8,-148 1044.8,-148 1044.8,-129 901.8,-129"/>
<text text-anchor="middle" x="973.3" y="-136" font-family="Helvetica,sans-Serif" font-size="10.00">G4OpBoundaryProcess.hh</text>
</a>
</g>
</g>
<!-- Node26&#45;&gt;Node27 -->
<g id="edge31" class="edge">
<title>Node26&#45;&gt;Node27</title>
<path fill="none" stroke="midnightblue" d="M910.76,-190.48C922.25,-181.11 940.93,-165.88 954.89,-154.51"/>
<polygon fill="midnightblue" stroke="midnightblue" points="957.32,-157.04 962.86,-148.01 952.9,-151.61 957.32,-157.04"/>
</g>
<!-- Node28 -->
<g id="node28" class="node">
<title>Node28</title>
<g id="a_node28"><a xlink:title=" ">
<polygon fill="white" stroke="#bfbfbf" points="1062.8,-123.5 1062.8,-153.5 1175.8,-153.5 1175.8,-123.5 1062.8,-123.5"/>
<text text-anchor="start" x="1070.8" y="-141.5" font-family="Helvetica,sans-Serif" font-size="10.00">boost/property_tree</text>
<text text-anchor="middle" x="1119.3" y="-130.5" font-family="Helvetica,sans-Serif" font-size="10.00">/json_parser.hpp</text>
</a>
</g>
</g>
<!-- Node26&#45;&gt;Node28 -->
<g id="edge33" class="edge">
<title>Node26&#45;&gt;Node28</title>
<path fill="none" stroke="midnightblue" d="M931.68,-190.48C964.46,-181.57 1016.73,-167.37 1057.78,-156.22"/>
<polygon fill="midnightblue" stroke="midnightblue" points="1058.96,-159.52 1067.69,-153.52 1057.12,-152.77 1058.96,-159.52"/>
</g>
</g>
</svg>
