<?xml version="1.0" encoding="UTF-8" standalone="no"?>
<!DOCTYPE svg PUBLIC "-//W3C//DTD SVG 1.1//EN"
 "http://www.w3.org/Graphics/SVG/1.1/DTD/svg11.dtd">
<!-- Generated by graphviz version 2.43.0 (0)
 -->
<!-- Title: OMSimEventAction.cc Pages: 1 -->
<svg width="620pt" height="252pt"
 viewBox="0.00 0.00 620.00 252.00" xmlns="http://www.w3.org/2000/svg" xmlns:xlink="http://www.w3.org/1999/xlink">
<g id="graph0" class="graph" transform="scale(1 1) rotate(0) translate(4 248)">
<title>OMSimEventAction.cc</title>
<polygon fill="white" stroke="transparent" points="-4,4 -4,-248 616,-248 616,4 -4,4"/>
<!-- Node1 -->
<g id="node1" class="node">
<title>Node1</title>
<g id="a_node1"><a xlink:title=" ">
<polygon fill="#bfbfbf" stroke="black" points="255.5,-224.5 255.5,-243.5 379.5,-243.5 379.5,-224.5 255.5,-224.5"/>
<text text-anchor="middle" x="317.5" y="-231.5" font-family="Helvetica,sans-Serif" font-size="10.00">OMSimEventAction.cc</text>
</a>
</g>
</g>
<!-- Node2 -->
<g id="node2" class="node">
<title>Node2</title>
<g id="a_node2"><a xlink:title=" ">
<polygon fill="white" stroke="#bfbfbf" points="113,-168.5 113,-187.5 238,-187.5 238,-168.5 113,-168.5"/>
<text text-anchor="middle" x="175.5" y="-175.5" font-family="Helvetica,sans-Serif" font-size="10.00">OMSimEventAction.hh</text>
</a>
</g>
</g>
<!-- Node1&#45;&gt;Node2 -->
<g id="edge1" class="edge">
<title>Node1&#45;&gt;Node2</title>
<path fill="none" stroke="midnightblue" d="M295,-224.44C271.42,-215.48 234.18,-201.31 207.54,-191.18"/>
<polygon fill="midnightblue" stroke="midnightblue" points="208.49,-187.8 197.9,-187.52 206,-194.34 208.49,-187.8"/>
</g>
<!-- Node3 -->
<g id="node3" class="node">
<title>Node3</title>
<g id="a_node3"><a xlink:href="_o_m_sim_s_n_analysis_8hh.html" target="_top" xlink:title=" ">
<polygon fill="white" stroke="black" points="256.5,-168.5 256.5,-187.5 378.5,-187.5 378.5,-168.5 256.5,-168.5"/>
<text text-anchor="middle" x="317.5" y="-175.5" font-family="Helvetica,sans-Serif" font-size="10.00">OMSimSNAnalysis.hh</text>
</a>
</g>
</g>
<!-- Node1&#45;&gt;Node3 -->
<g id="edge2" class="edge">
<title>Node1&#45;&gt;Node3</title>
<path fill="none" stroke="midnightblue" d="M317.5,-224.08C317.5,-217.01 317.5,-206.86 317.5,-197.99"/>
<polygon fill="midnightblue" stroke="midnightblue" points="321,-197.75 317.5,-187.75 314,-197.75 321,-197.75"/>
</g>
<!-- Node18 -->
<g id="node18" class="node">
<title>Node18</title>
<g id="a_node18"><a xlink:title=" ">
<polygon fill="white" stroke="#bfbfbf" points="396.5,-168.5 396.5,-187.5 502.5,-187.5 502.5,-168.5 396.5,-168.5"/>
<text text-anchor="middle" x="449.5" y="-175.5" font-family="Helvetica,sans-Serif" font-size="10.00">G4RunManager.hh</text>
</a>
</g>
</g>
<!-- Node1&#45;&gt;Node18 -->
<g id="edge20" class="edge">
<title>Node1&#45;&gt;Node18</title>
<path fill="none" stroke="midnightblue" d="M338.42,-224.44C360.24,-215.52 394.65,-201.44 419.39,-191.32"/>
<polygon fill="midnightblue" stroke="midnightblue" points="420.75,-194.54 428.68,-187.52 418.1,-188.06 420.75,-194.54"/>
</g>
<!-- Node4 -->
<g id="node4" class="node">
<title>Node4</title>
<g id="a_node4"><a xlink:title=" ">
<polygon fill="white" stroke="#bfbfbf" points="0,-0.5 0,-19.5 73,-19.5 73,-0.5 0,-0.5"/>
<text text-anchor="middle" x="36.5" y="-7.5" font-family="Helvetica,sans-Serif" font-size="10.00">G4Types.hh</text>
</a>
</g>
</g>
<!-- Node3&#45;&gt;Node4 -->
<g id="edge3" class="edge">
<title>Node3&#45;&gt;Node4</title>
<path fill="none" stroke="midnightblue" d="M266.08,-168.47C215.51,-159.56 142.25,-145.07 116.5,-132 82.79,-114.9 72.15,-108.29 52.5,-76 43.91,-61.88 39.93,-43.4 38.08,-29.75"/>
<polygon fill="midnightblue" stroke="midnightblue" points="41.54,-29.19 36.98,-19.62 34.58,-29.94 41.54,-29.19"/>
</g>
<!-- Node5 -->
<g id="node5" class="node">
<title>Node5</title>
<g id="a_node5"><a xlink:title=" ">
<polygon fill="white" stroke="#bfbfbf" points="125.5,-112.5 125.5,-131.5 199.5,-131.5 199.5,-112.5 125.5,-112.5"/>
<text text-anchor="middle" x="162.5" y="-119.5" font-family="Helvetica,sans-Serif" font-size="10.00">G4String.hh</text>
</a>
</g>
</g>
<!-- Node3&#45;&gt;Node5 -->
<g id="edge4" class="edge">
<title>Node3&#45;&gt;Node5</title>
<path fill="none" stroke="midnightblue" d="M292.94,-168.44C266.98,-159.4 225.83,-145.06 196.7,-134.92"/>
<polygon fill="midnightblue" stroke="midnightblue" points="197.54,-131.5 186.95,-131.52 195.24,-138.11 197.54,-131.5"/>
</g>
<!-- Node6 -->
<g id="node6" class="node">
<title>Node6</title>
<g id="a_node6"><a xlink:title=" ">
<polygon fill="white" stroke="#bfbfbf" points="62,-56.5 62,-75.5 165,-75.5 165,-56.5 62,-56.5"/>
<text text-anchor="middle" x="113.5" y="-63.5" font-family="Helvetica,sans-Serif" font-size="10.00">G4ThreeVector.hh</text>
</a>
</g>
</g>
<!-- Node3&#45;&gt;Node6 -->
<g id="edge5" class="edge">
<title>Node3&#45;&gt;Node6</title>
<path fill="none" stroke="midnightblue" d="M303.98,-168.37C283.61,-155.49 243.69,-130.77 208.5,-112 186.7,-100.37 161.38,-88.45 142.37,-79.81"/>
<polygon fill="midnightblue" stroke="midnightblue" points="143.61,-76.53 133.05,-75.6 140.73,-82.91 143.61,-76.53"/>
</g>
<!-- Node7 -->
<g id="node7" class="node">
<title>Node7</title>
<g id="a_node7"><a xlink:href="_o_m_sim_hit_manager_8hh.html" target="_top" xlink:title="Defines structures and classes related to optical module photon hit management.">
<polygon fill="white" stroke="black" points="256,-112.5 256,-131.5 379,-131.5 379,-112.5 256,-112.5"/>
<text text-anchor="middle" x="317.5" y="-119.5" font-family="Helvetica,sans-Serif" font-size="10.00">OMSimHitManager.hh</text>
</a>
</g>
</g>
<!-- Node3&#45;&gt;Node7 -->
<g id="edge6" class="edge">
<title>Node3&#45;&gt;Node7</title>
<path fill="none" stroke="midnightblue" d="M317.5,-168.08C317.5,-161.01 317.5,-150.86 317.5,-141.99"/>
<polygon fill="midnightblue" stroke="midnightblue" points="321,-141.75 317.5,-131.75 314,-141.75 321,-141.75"/>
</g>
<!-- Node13 -->
<g id="node13" class="node">
<title>Node13</title>
<g id="a_node13"><a xlink:title=" ">
<polygon fill="white" stroke="#bfbfbf" points="557,-56.5 557,-75.5 612,-75.5 612,-56.5 557,-56.5"/>
<text text-anchor="middle" x="584.5" y="-63.5" font-family="Helvetica,sans-Serif" font-size="10.00">fstream</text>
</a>
</g>
</g>
<!-- Node3&#45;&gt;Node13 -->
<g id="edge18" class="edge">
<title>Node3&#45;&gt;Node13</title>
<path fill="none" stroke="midnightblue" d="M331.02,-168.42C355.84,-152.77 407.94,-120.42 427.5,-112 448.94,-102.77 507.76,-86.8 547,-76.57"/>
<polygon fill="midnightblue" stroke="midnightblue" points="547.96,-79.94 556.76,-74.04 546.2,-73.16 547.96,-79.94"/>
</g>
<!-- Node16 -->
<g id="node16" class="node">
<title>Node16</title>
<g id="a_node16"><a xlink:title=" ">
<polygon fill="white" stroke="#bfbfbf" points="436,-112.5 436,-131.5 483,-131.5 483,-112.5 436,-112.5"/>
<text text-anchor="middle" x="459.5" y="-119.5" font-family="Helvetica,sans-Serif" font-size="10.00">vector</text>
</a>
</g>
</g>
<!-- Node3&#45;&gt;Node16 -->
<g id="edge17" class="edge">
<title>Node3&#45;&gt;Node16</title>
<path fill="none" stroke="midnightblue" d="M340,-168.44C363.58,-159.48 400.82,-145.31 427.46,-135.18"/>
<polygon fill="midnightblue" stroke="midnightblue" points="429,-138.34 437.1,-131.52 426.51,-131.8 429,-138.34"/>
</g>
<!-- Node17 -->
<g id="node17" class="node">
<title>Node17</title>
<g id="a_node17"><a xlink:title=" ">
<polygon fill="white" stroke="#bfbfbf" points="501,-112.5 501,-131.5 542,-131.5 542,-112.5 501,-112.5"/>
<text text-anchor="middle" x="521.5" y="-119.5" font-family="Helvetica,sans-Serif" font-size="10.00">tuple</text>
</a>
</g>
</g>
<!-- Node3&#45;&gt;Node17 -->
<g id="edge19" class="edge">
<title>Node3&#45;&gt;Node17</title>
<path fill="none" stroke="midnightblue" d="M352.83,-168.46C386.2,-160.27 437.86,-147.28 491.01,-132.33"/>
<polygon fill="midnightblue" stroke="midnightblue" points="492.27,-135.61 500.94,-129.52 490.37,-128.87 492.27,-135.61"/>
</g>
<!-- Node7&#45;&gt;Node6 -->
<g id="edge13" class="edge">
<title>Node7&#45;&gt;Node6</title>
<path fill="none" stroke="midnightblue" d="M285.18,-112.44C250.11,-103.16 194,-88.31 155.54,-78.13"/>
<polygon fill="midnightblue" stroke="midnightblue" points="156.24,-74.69 145.67,-75.52 154.44,-81.46 156.24,-74.69"/>
</g>
<!-- Node8 -->
<g id="node8" class="node">
<title>Node8</title>
<g id="a_node8"><a xlink:href="_o_m_sim_p_m_t_response_8hh.html" target="_top" xlink:title="Simulation of PMT response.">
<polygon fill="white" stroke="black" points="183,-56.5 183,-75.5 318,-75.5 318,-56.5 183,-56.5"/>
<text text-anchor="middle" x="250.5" y="-63.5" font-family="Helvetica,sans-Serif" font-size="10.00">OMSimPMTResponse.hh</text>
</a>
</g>
</g>
<!-- Node7&#45;&gt;Node8 -->
<g id="edge7" class="edge">
<title>Node7&#45;&gt;Node8</title>
<path fill="none" stroke="midnightblue" d="M306.74,-112.32C296.73,-104.26 281.61,-92.08 269.57,-82.37"/>
<polygon fill="midnightblue" stroke="midnightblue" points="271.44,-79.38 261.46,-75.83 267.05,-84.83 271.44,-79.38"/>
</g>
<!-- Node7&#45;&gt;Node13 -->
<g id="edge14" class="edge">
<title>Node7&#45;&gt;Node13</title>
<path fill="none" stroke="midnightblue" d="M364.32,-112.48C408.71,-104.27 477.48,-91.16 546.47,-76.15"/>
<polygon fill="midnightblue" stroke="midnightblue" points="547.63,-79.48 556.65,-73.92 546.13,-72.64 547.63,-79.48"/>
</g>
<!-- Node14 -->
<g id="node14" class="node">
<title>Node14</title>
<g id="a_node14"><a xlink:title=" ">
<polygon fill="white" stroke="#bfbfbf" points="336.5,-56.5 336.5,-75.5 426.5,-75.5 426.5,-56.5 336.5,-56.5"/>
<text text-anchor="middle" x="381.5" y="-63.5" font-family="Helvetica,sans-Serif" font-size="10.00">G4AutoLock.hh</text>
</a>
</g>
</g>
<!-- Node7&#45;&gt;Node14 -->
<g id="edge15" class="edge">
<title>Node7&#45;&gt;Node14</title>
<path fill="none" stroke="midnightblue" d="M327.78,-112.32C337.34,-104.26 351.78,-92.08 363.28,-82.37"/>
<polygon fill="midnightblue" stroke="midnightblue" points="365.64,-84.96 371.03,-75.83 361.13,-79.61 365.64,-84.96"/>
</g>
<!-- Node15 -->
<g id="node15" class="node">
<title>Node15</title>
<g id="a_node15"><a xlink:title=" ">
<polygon fill="white" stroke="#bfbfbf" points="444.5,-56.5 444.5,-75.5 538.5,-75.5 538.5,-56.5 444.5,-56.5"/>
<text text-anchor="middle" x="491.5" y="-63.5" font-family="Helvetica,sans-Serif" font-size="10.00">G4Threading.hh</text>
</a>
</g>
</g>
<!-- Node7&#45;&gt;Node15 -->
<g id="edge16" class="edge">
<title>Node7&#45;&gt;Node15</title>
<path fill="none" stroke="midnightblue" d="M345.07,-112.44C374.6,-103.28 421.62,-88.69 454.38,-78.52"/>
<polygon fill="midnightblue" stroke="midnightblue" points="455.54,-81.82 464.06,-75.52 453.47,-75.14 455.54,-81.82"/>
</g>
<!-- Node8&#45;&gt;Node4 -->
<g id="edge9" class="edge">
<title>Node8&#45;&gt;Node4</title>
<path fill="none" stroke="midnightblue" d="M216.59,-56.44C179.65,-47.12 120.45,-32.18 80.08,-22"/>
<polygon fill="midnightblue" stroke="midnightblue" points="80.8,-18.57 70.25,-19.52 79.09,-25.36 80.8,-18.57"/>
</g>
<!-- Node9 -->
<g id="node9" class="node">
<title>Node9</title>
<g id="a_node9"><a xlink:title=" ">
<polygon fill="white" stroke="#bfbfbf" points="92,-0.5 92,-19.5 211,-19.5 211,-0.5 92,-0.5"/>
<text text-anchor="middle" x="151.5" y="-7.5" font-family="Helvetica,sans-Serif" font-size="10.00">G4SystemOfUnits.hh</text>
</a>
</g>
</g>
<!-- Node8&#45;&gt;Node9 -->
<g id="edge8" class="edge">
<title>Node8&#45;&gt;Node9</title>
<path fill="none" stroke="midnightblue" d="M234.59,-56.32C218.86,-47.74 194.56,-34.49 176.29,-24.52"/>
<polygon fill="midnightblue" stroke="midnightblue" points="177.82,-21.37 167.37,-19.65 174.47,-27.52 177.82,-21.37"/>
</g>
<!-- Node10 -->
<g id="node10" class="node">
<title>Node10</title>
<g id="a_node10"><a xlink:title=" ">
<polygon fill="white" stroke="#bfbfbf" points="229.5,-0.5 229.5,-19.5 267.5,-19.5 267.5,-0.5 229.5,-0.5"/>
<text text-anchor="middle" x="248.5" y="-7.5" font-family="Helvetica,sans-Serif" font-size="10.00">map</text>
</a>
</g>
</g>
<!-- Node8&#45;&gt;Node10 -->
<g id="edge10" class="edge">
<title>Node8&#45;&gt;Node10</title>
<path fill="none" stroke="midnightblue" d="M250.17,-56.08C249.91,-49.01 249.53,-38.86 249.2,-29.99"/>
<polygon fill="midnightblue" stroke="midnightblue" points="252.69,-29.61 248.82,-19.75 245.7,-29.87 252.69,-29.61"/>
</g>
<!-- Node11 -->
<g id="node11" class="node">
<title>Node11</title>
<g id="a_node11"><a xlink:title=" ">
<polygon fill="white" stroke="#bfbfbf" points="286,-0.5 286,-19.5 347,-19.5 347,-0.5 286,-0.5"/>
<text text-anchor="middle" x="316.5" y="-7.5" font-family="Helvetica,sans-Serif" font-size="10.00">TGraph.h</text>
</a>
</g>
</g>
<!-- Node8&#45;&gt;Node11 -->
<g id="edge11" class="edge">
<title>Node8&#45;&gt;Node11</title>
<path fill="none" stroke="midnightblue" d="M261.1,-56.32C270.96,-48.26 285.85,-36.08 297.72,-26.37"/>
<polygon fill="midnightblue" stroke="midnightblue" points="300.18,-28.88 305.7,-19.83 295.75,-23.46 300.18,-28.88"/>
</g>
<!-- Node12 -->
<g id="node12" class="node">
<title>Node12</title>
<g id="a_node12"><a xlink:title=" ">
<polygon fill="white" stroke="#bfbfbf" points="365,-0.5 365,-19.5 418,-19.5 418,-0.5 365,-0.5"/>
<text text-anchor="middle" x="391.5" y="-7.5" font-family="Helvetica,sans-Serif" font-size="10.00">TH2D.h</text>
</a>
</g>
</g>
<!-- Node8&#45;&gt;Node12 -->
<g id="edge12" class="edge">
<title>Node8&#45;&gt;Node12</title>
<path fill="none" stroke="midnightblue" d="M272.84,-56.44C296.25,-47.48 333.24,-33.31 359.69,-23.18"/>
<polygon fill="midnightblue" stroke="midnightblue" points="361.18,-26.36 369.26,-19.52 358.67,-19.82 361.18,-26.36"/>
</g>
</g>
</svg>
