<?xml version="1.0" encoding="UTF-8" standalone="no"?>
<!DOCTYPE svg PUBLIC "-//W3C//DTD SVG 1.1//EN"
 "http://www.w3.org/Graphics/SVG/1.1/DTD/svg11.dtd">
<!-- Generated by graphviz version 2.43.0 (0)
 -->
<!-- Title: OMSimEventAction.cc Pages: 1 -->
<svg width="734pt" height="308pt"
 viewBox="0.00 0.00 733.75 308.00" xmlns="http://www.w3.org/2000/svg" xmlns:xlink="http://www.w3.org/1999/xlink">
<g id="graph0" class="graph" transform="scale(1 1) rotate(0) translate(4 304)">
<title>OMSimEventAction.cc</title>
<polygon fill="white" stroke="transparent" points="-4,4 -4,-304 729.75,-304 729.75,4 -4,4"/>
<!-- Node1 -->
<g id="node1" class="node">
<title>Node1</title>
<g id="a_node1"><a xlink:title=" ">
<polygon fill="#bfbfbf" stroke="black" points="455.25,-280.5 455.25,-299.5 579.25,-299.5 579.25,-280.5 455.25,-280.5"/>
<text text-anchor="middle" x="517.25" y="-287.5" font-family="Helvetica,sans-Serif" font-size="10.00">OMSimEventAction.cc</text>
</a>
</g>
</g>
<!-- Node2 -->
<g id="node2" class="node">
<title>Node2</title>
<g id="a_node2"><a xlink:title=" ">
<polygon fill="white" stroke="#bfbfbf" points="312.75,-224.5 312.75,-243.5 437.75,-243.5 437.75,-224.5 312.75,-224.5"/>
<text text-anchor="middle" x="375.25" y="-231.5" font-family="Helvetica,sans-Serif" font-size="10.00">OMSimEventAction.hh</text>
</a>
</g>
</g>
<!-- Node1&#45;&gt;Node2 -->
<g id="edge1" class="edge">
<title>Node1&#45;&gt;Node2</title>
<path fill="none" stroke="midnightblue" d="M494.75,-280.44C471.17,-271.48 433.93,-257.31 407.29,-247.18"/>
<polygon fill="midnightblue" stroke="midnightblue" points="408.24,-243.8 397.65,-243.52 405.75,-250.34 408.24,-243.8"/>
</g>
<!-- Node3 -->
<g id="node3" class="node">
<title>Node3</title>
<g id="a_node3"><a xlink:href="_o_m_sim_s_n_analysis_8hh.html" target="_top" xlink:title=" ">
<polygon fill="white" stroke="black" points="456.25,-224.5 456.25,-243.5 578.25,-243.5 578.25,-224.5 456.25,-224.5"/>
<text text-anchor="middle" x="517.25" y="-231.5" font-family="Helvetica,sans-Serif" font-size="10.00">OMSimSNAnalysis.hh</text>
</a>
</g>
</g>
<!-- Node1&#45;&gt;Node3 -->
<g id="edge2" class="edge">
<title>Node1&#45;&gt;Node3</title>
<path fill="none" stroke="midnightblue" d="M517.25,-280.08C517.25,-273.01 517.25,-262.86 517.25,-253.99"/>
<polygon fill="midnightblue" stroke="midnightblue" points="520.75,-253.75 517.25,-243.75 513.75,-253.75 520.75,-253.75"/>
</g>
<!-- Node19 -->
<g id="node19" class="node">
<title>Node19</title>
<g id="a_node19"><a xlink:title=" ">
<polygon fill="white" stroke="#bfbfbf" points="596.25,-224.5 596.25,-243.5 702.25,-243.5 702.25,-224.5 596.25,-224.5"/>
<text text-anchor="middle" x="649.25" y="-231.5" font-family="Helvetica,sans-Serif" font-size="10.00">G4RunManager.hh</text>
</a>
</g>
</g>
<!-- Node1&#45;&gt;Node19 -->
<g id="edge24" class="edge">
<title>Node1&#45;&gt;Node19</title>
<path fill="none" stroke="midnightblue" d="M538.17,-280.44C559.99,-271.52 594.4,-257.44 619.14,-247.32"/>
<polygon fill="midnightblue" stroke="midnightblue" points="620.5,-250.54 628.43,-243.52 617.85,-244.06 620.5,-250.54"/>
</g>
<!-- Node4 -->
<g id="node4" class="node">
<title>Node4</title>
<g id="a_node4"><a xlink:title=" ">
<polygon fill="white" stroke="#bfbfbf" points="125.75,-0.5 125.75,-19.5 198.75,-19.5 198.75,-0.5 125.75,-0.5"/>
<text text-anchor="middle" x="162.25" y="-7.5" font-family="Helvetica,sans-Serif" font-size="10.00">G4Types.hh</text>
</a>
</g>
</g>
<!-- Node3&#45;&gt;Node4 -->
<g id="edge3" class="edge">
<title>Node3&#45;&gt;Node4</title>
<path fill="none" stroke="midnightblue" d="M460.28,-224.46C338.23,-204.82 58.34,-152.25 6.25,-76 -22.5,-33.92 59.58,-19.02 115.33,-13.79"/>
<polygon fill="midnightblue" stroke="midnightblue" points="115.73,-17.27 125.4,-12.92 115.13,-10.29 115.73,-17.27"/>
</g>
<!-- Node5 -->
<g id="node5" class="node">
<title>Node5</title>
<g id="a_node5"><a xlink:title=" ">
<polygon fill="white" stroke="#bfbfbf" points="592.25,-168.5 592.25,-187.5 666.25,-187.5 666.25,-168.5 592.25,-168.5"/>
<text text-anchor="middle" x="629.25" y="-175.5" font-family="Helvetica,sans-Serif" font-size="10.00">G4String.hh</text>
</a>
</g>
</g>
<!-- Node3&#45;&gt;Node5 -->
<g id="edge4" class="edge">
<title>Node3&#45;&gt;Node5</title>
<path fill="none" stroke="midnightblue" d="M535.25,-224.32C553.29,-215.62 581.3,-202.12 602.05,-192.11"/>
<polygon fill="midnightblue" stroke="midnightblue" points="603.81,-195.15 611.3,-187.65 600.77,-188.84 603.81,-195.15"/>
</g>
<!-- Node6 -->
<g id="node6" class="node">
<title>Node6</title>
<g id="a_node6"><a xlink:title=" ">
<polygon fill="white" stroke="#bfbfbf" points="15.75,-56.5 15.75,-75.5 118.75,-75.5 118.75,-56.5 15.75,-56.5"/>
<text text-anchor="middle" x="67.25" y="-63.5" font-family="Helvetica,sans-Serif" font-size="10.00">G4ThreeVector.hh</text>
</a>
</g>
</g>
<!-- Node3&#45;&gt;Node6 -->
<g id="edge5" class="edge">
<title>Node3&#45;&gt;Node6</title>
<path fill="none" stroke="midnightblue" d="M483.09,-224.39C424.04,-209 299.55,-174.42 199.25,-132 161.12,-115.87 118.35,-94.11 92.11,-80.31"/>
<polygon fill="midnightblue" stroke="midnightblue" points="93.71,-77.2 83.23,-75.61 90.43,-83.38 93.71,-77.2"/>
</g>
<!-- Node7 -->
<g id="node7" class="node">
<title>Node7</title>
<g id="a_node7"><a xlink:href="_o_m_sim_hit_manager_8hh.html" target="_top" xlink:title="Defines structures and classes related to optical module photon hit management.">
<polygon fill="white" stroke="black" points="365.75,-168.5 365.75,-187.5 488.75,-187.5 488.75,-168.5 365.75,-168.5"/>
<text text-anchor="middle" x="427.25" y="-175.5" font-family="Helvetica,sans-Serif" font-size="10.00">OMSimHitManager.hh</text>
</a>
</g>
</g>
<!-- Node3&#45;&gt;Node7 -->
<g id="edge6" class="edge">
<title>Node3&#45;&gt;Node7</title>
<path fill="none" stroke="midnightblue" d="M502.79,-224.32C488.75,-215.9 467.2,-202.97 450.71,-193.07"/>
<polygon fill="midnightblue" stroke="midnightblue" points="452.05,-189.8 441.68,-187.65 448.45,-195.8 452.05,-189.8"/>
</g>
<!-- Node16 -->
<g id="node16" class="node">
<title>Node16</title>
<g id="a_node16"><a xlink:title=" ">
<polygon fill="white" stroke="#bfbfbf" points="607.75,-56.5 607.75,-75.5 654.75,-75.5 654.75,-56.5 607.75,-56.5"/>
<text text-anchor="middle" x="631.25" y="-63.5" font-family="Helvetica,sans-Serif" font-size="10.00">vector</text>
</a>
</g>
</g>
<!-- Node3&#45;&gt;Node16 -->
<g id="edge21" class="edge">
<title>Node3&#45;&gt;Node16</title>
<path fill="none" stroke="midnightblue" d="M523.38,-224.08C541.56,-197.61 595.4,-119.21 619.43,-84.21"/>
<polygon fill="midnightblue" stroke="midnightblue" points="622.59,-85.79 625.37,-75.57 616.82,-81.83 622.59,-85.79"/>
</g>
<!-- Node17 -->
<g id="node17" class="node">
<title>Node17</title>
<g id="a_node17"><a xlink:title=" ">
<polygon fill="white" stroke="#bfbfbf" points="480.75,-112.5 480.75,-131.5 535.75,-131.5 535.75,-112.5 480.75,-112.5"/>
<text text-anchor="middle" x="508.25" y="-119.5" font-family="Helvetica,sans-Serif" font-size="10.00">fstream</text>
</a>
</g>
</g>
<!-- Node3&#45;&gt;Node17 -->
<g id="edge22" class="edge">
<title>Node3&#45;&gt;Node17</title>
<path fill="none" stroke="midnightblue" d="M516.55,-224.37C515.09,-206.62 511.74,-165.67 509.77,-141.6"/>
<polygon fill="midnightblue" stroke="midnightblue" points="513.26,-141.27 508.95,-131.59 506.28,-141.84 513.26,-141.27"/>
</g>
<!-- Node18 -->
<g id="node18" class="node">
<title>Node18</title>
<g id="a_node18"><a xlink:title=" ">
<polygon fill="white" stroke="#bfbfbf" points="684.75,-168.5 684.75,-187.5 725.75,-187.5 725.75,-168.5 684.75,-168.5"/>
<text text-anchor="middle" x="705.25" y="-175.5" font-family="Helvetica,sans-Serif" font-size="10.00">tuple</text>
</a>
</g>
</g>
<!-- Node3&#45;&gt;Node18 -->
<g id="edge23" class="edge">
<title>Node3&#45;&gt;Node18</title>
<path fill="none" stroke="midnightblue" d="M547.58,-224.5C577.49,-216.09 624.74,-202.71 674.88,-188.08"/>
<polygon fill="midnightblue" stroke="midnightblue" points="675.99,-191.4 684.61,-185.24 674.03,-184.68 675.99,-191.4"/>
</g>
<!-- Node7&#45;&gt;Node6 -->
<g id="edge19" class="edge">
<title>Node7&#45;&gt;Node6</title>
<path fill="none" stroke="midnightblue" d="M393.39,-168.44C359.72,-159.79 306.69,-145.76 261.25,-132 204.61,-114.85 139.52,-92.49 100.97,-78.97"/>
<polygon fill="midnightblue" stroke="midnightblue" points="101.9,-75.58 91.3,-75.56 99.57,-82.18 101.9,-75.58"/>
</g>
<!-- Node8 -->
<g id="node8" class="node">
<title>Node8</title>
<g id="a_node8"><a xlink:href="_o_m_sim_p_m_t_response_8hh.html" target="_top" xlink:title="Provides simulation for PMT response. This class is responsible for transforming hits on photocathode...">
<polygon fill="white" stroke="black" points="454.75,-56.5 454.75,-75.5 589.75,-75.5 589.75,-56.5 454.75,-56.5"/>
<text text-anchor="middle" x="522.25" y="-63.5" font-family="Helvetica,sans-Serif" font-size="10.00">OMSimPMTResponse.hh</text>
</a>
</g>
</g>
<!-- Node7&#45;&gt;Node8 -->
<g id="edge7" class="edge">
<title>Node7&#45;&gt;Node8</title>
<path fill="none" stroke="midnightblue" d="M432.3,-168.08C439.88,-155.07 455.05,-130.42 471.25,-112 480.88,-101.06 493.08,-90.2 503.13,-81.9"/>
<polygon fill="midnightblue" stroke="midnightblue" points="505.38,-84.58 510.97,-75.58 500.99,-79.13 505.38,-84.58"/>
</g>
<!-- Node13 -->
<g id="node13" class="node">
<title>Node13</title>
<g id="a_node13"><a xlink:href="_o_m_sim_sensitive_detector_8hh.html" target="_top" xlink:title=" ">
<polygon fill="white" stroke="black" points="270.75,-112.5 270.75,-131.5 423.75,-131.5 423.75,-112.5 270.75,-112.5"/>
<text text-anchor="middle" x="347.25" y="-119.5" font-family="Helvetica,sans-Serif" font-size="10.00">OMSimSensitiveDetector.hh</text>
</a>
</g>
</g>
<!-- Node7&#45;&gt;Node13 -->
<g id="edge13" class="edge">
<title>Node7&#45;&gt;Node13</title>
<path fill="none" stroke="midnightblue" d="M414.4,-168.32C402.04,-159.98 383.12,-147.21 368.51,-137.35"/>
<polygon fill="midnightblue" stroke="midnightblue" points="370.32,-134.35 360.07,-131.65 366.4,-140.15 370.32,-134.35"/>
</g>
<!-- Node7&#45;&gt;Node17 -->
<g id="edge20" class="edge">
<title>Node7&#45;&gt;Node17</title>
<path fill="none" stroke="midnightblue" d="M440.27,-168.32C452.78,-159.98 471.93,-147.21 486.72,-137.35"/>
<polygon fill="midnightblue" stroke="midnightblue" points="488.89,-140.11 495.27,-131.65 485.01,-134.29 488.89,-140.11"/>
</g>
<!-- Node8&#45;&gt;Node4 -->
<g id="edge9" class="edge">
<title>Node8&#45;&gt;Node4</title>
<path fill="none" stroke="midnightblue" d="M465.21,-56.44C394.45,-45.83 275.13,-27.93 209.33,-18.06"/>
<polygon fill="midnightblue" stroke="midnightblue" points="209.65,-14.57 199.24,-16.55 208.61,-21.49 209.65,-14.57"/>
</g>
<!-- Node9 -->
<g id="node9" class="node">
<title>Node9</title>
<g id="a_node9"><a xlink:title=" ">
<polygon fill="white" stroke="#bfbfbf" points="413.75,-0.5 413.75,-19.5 532.75,-19.5 532.75,-0.5 413.75,-0.5"/>
<text text-anchor="middle" x="473.25" y="-7.5" font-family="Helvetica,sans-Serif" font-size="10.00">G4SystemOfUnits.hh</text>
</a>
</g>
</g>
<!-- Node8&#45;&gt;Node9 -->
<g id="edge8" class="edge">
<title>Node8&#45;&gt;Node9</title>
<path fill="none" stroke="midnightblue" d="M514.16,-56.08C507.1,-48.3 496.66,-36.8 488.1,-27.37"/>
<polygon fill="midnightblue" stroke="midnightblue" points="490.5,-24.8 481.19,-19.75 485.32,-29.51 490.5,-24.8"/>
</g>
<!-- Node10 -->
<g id="node10" class="node">
<title>Node10</title>
<g id="a_node10"><a xlink:title=" ">
<polygon fill="white" stroke="#bfbfbf" points="551.25,-0.5 551.25,-19.5 589.25,-19.5 589.25,-0.5 551.25,-0.5"/>
<text text-anchor="middle" x="570.25" y="-7.5" font-family="Helvetica,sans-Serif" font-size="10.00">map</text>
</a>
</g>
</g>
<!-- Node8&#45;&gt;Node10 -->
<g id="edge10" class="edge">
<title>Node8&#45;&gt;Node10</title>
<path fill="none" stroke="midnightblue" d="M530.18,-56.08C537.1,-48.3 547.32,-36.8 555.7,-27.37"/>
<polygon fill="midnightblue" stroke="midnightblue" points="558.45,-29.55 562.47,-19.75 553.21,-24.9 558.45,-29.55"/>
</g>
<!-- Node11 -->
<g id="node11" class="node">
<title>Node11</title>
<g id="a_node11"><a xlink:title=" ">
<polygon fill="white" stroke="#bfbfbf" points="607.75,-0.5 607.75,-19.5 668.75,-19.5 668.75,-0.5 607.75,-0.5"/>
<text text-anchor="middle" x="638.25" y="-7.5" font-family="Helvetica,sans-Serif" font-size="10.00">TGraph.h</text>
</a>
</g>
</g>
<!-- Node8&#45;&gt;Node11 -->
<g id="edge11" class="edge">
<title>Node8&#45;&gt;Node11</title>
<path fill="none" stroke="midnightblue" d="M540.63,-56.44C559.47,-47.68 588.98,-33.94 610.63,-23.86"/>
<polygon fill="midnightblue" stroke="midnightblue" points="612.37,-26.91 619.96,-19.52 609.41,-20.56 612.37,-26.91"/>
</g>
<!-- Node12 -->
<g id="node12" class="node">
<title>Node12</title>
<g id="a_node12"><a xlink:title=" ">
<polygon fill="white" stroke="#bfbfbf" points="342.75,-0.5 342.75,-19.5 395.75,-19.5 395.75,-0.5 342.75,-0.5"/>
<text text-anchor="middle" x="369.25" y="-7.5" font-family="Helvetica,sans-Serif" font-size="10.00">TH2D.h</text>
</a>
</g>
</g>
<!-- Node8&#45;&gt;Node12 -->
<g id="edge12" class="edge">
<title>Node8&#45;&gt;Node12</title>
<path fill="none" stroke="midnightblue" d="M498.01,-56.44C472.38,-47.4 431.77,-33.06 403.01,-22.92"/>
<polygon fill="midnightblue" stroke="midnightblue" points="403.98,-19.54 393.38,-19.52 401.65,-26.15 403.98,-19.54"/>
</g>
<!-- Node13&#45;&gt;Node6 -->
<g id="edge15" class="edge">
<title>Node13&#45;&gt;Node6</title>
<path fill="none" stroke="midnightblue" d="M302.89,-112.44C253.63,-102.94 174.12,-87.61 121.28,-77.42"/>
<polygon fill="midnightblue" stroke="midnightblue" points="121.89,-73.97 111.41,-75.52 120.57,-80.85 121.89,-73.97"/>
</g>
<!-- Node13&#45;&gt;Node8 -->
<g id="edge16" class="edge">
<title>Node13&#45;&gt;Node8</title>
<path fill="none" stroke="midnightblue" d="M374.98,-112.44C404.68,-103.28 451.97,-88.69 484.92,-78.52"/>
<polygon fill="midnightblue" stroke="midnightblue" points="486.13,-81.81 494.65,-75.52 484.06,-75.12 486.13,-81.81"/>
</g>
<!-- Node14 -->
<g id="node14" class="node">
<title>Node14</title>
<g id="a_node14"><a xlink:title=" ">
<polygon fill="white" stroke="#bfbfbf" points="298.25,-56.5 298.25,-75.5 436.25,-75.5 436.25,-56.5 298.25,-56.5"/>
<text text-anchor="middle" x="367.25" y="-63.5" font-family="Helvetica,sans-Serif" font-size="10.00">G4VSensitiveDetector.hh</text>
</a>
</g>
</g>
<!-- Node13&#45;&gt;Node14 -->
<g id="edge14" class="edge">
<title>Node13&#45;&gt;Node14</title>
<path fill="none" stroke="midnightblue" d="M350.55,-112.08C353.23,-104.85 357.1,-94.41 360.44,-85.4"/>
<polygon fill="midnightblue" stroke="midnightblue" points="363.82,-86.34 364.01,-75.75 357.26,-83.91 363.82,-86.34"/>
</g>
<!-- Node15 -->
<g id="node15" class="node">
<title>Node15</title>
<g id="a_node15"><a xlink:title=" ">
<polygon fill="white" stroke="#bfbfbf" points="136.75,-56.5 136.75,-75.5 279.75,-75.5 279.75,-56.5 136.75,-56.5"/>
<text text-anchor="middle" x="208.25" y="-63.5" font-family="Helvetica,sans-Serif" font-size="10.00">G4OpBoundaryProcess.hh</text>
</a>
</g>
</g>
<!-- Node13&#45;&gt;Node15 -->
<g id="edge17" class="edge">
<title>Node13&#45;&gt;Node15</title>
<path fill="none" stroke="midnightblue" d="M325.23,-112.44C302.15,-103.48 265.69,-89.31 239.61,-79.18"/>
<polygon fill="midnightblue" stroke="midnightblue" points="240.76,-75.88 230.17,-75.52 238.23,-82.4 240.76,-75.88"/>
</g>
<!-- Node13&#45;&gt;Node16 -->
<g id="edge18" class="edge">
<title>Node13&#45;&gt;Node16</title>
<path fill="none" stroke="midnightblue" d="M404.12,-112.47C453.1,-104.75 525.86,-92.42 597.46,-76.25"/>
<polygon fill="midnightblue" stroke="midnightblue" points="598.58,-79.58 607.55,-73.94 597.02,-72.76 598.58,-79.58"/>
</g>
</g>
</svg>
