<?xml version="1.0" encoding="UTF-8" standalone="no"?>
<!DOCTYPE svg PUBLIC "-//W3C//DTD SVG 1.1//EN"
 "http://www.w3.org/Graphics/SVG/1.1/DTD/svg11.dtd">
<!-- Generated by graphviz version 2.43.0 (0)
 -->
<!-- Title: OMSimPhysicsList.cc Pages: 1 -->
<svg width="4073pt" height="148pt"
 viewBox="0.00 0.00 4073.00 148.00" xmlns="http://www.w3.org/2000/svg" xmlns:xlink="http://www.w3.org/1999/xlink">
<g id="graph0" class="graph" transform="scale(1 1) rotate(0) translate(4 144)">
<title>OMSimPhysicsList.cc</title>
<!-- Node1 -->
<g id="Node000001" class="node">
<title>Node1</title>
<g id="a_Node000001"><a xlink:title="Implementation of physics list for WavePID simulation.">
<polygon fill="#999999" stroke="#666666" points="2059,-140 1940,-140 1940,-121 2059,-121 2059,-140"/>
<text text-anchor="middle" x="1999.5" y="-128" font-family="Helvetica,sans-Serif" font-size="10.00">OMSimPhysicsList.cc</text>
</a>
</g>
</g>
<!-- Node2 -->
<g id="Node000002" class="node">
<title>Node2</title>
<g id="a_Node000002"><a xlink:title=" ">
<polygon fill="#e0e0e0" stroke="#999999" points="358,-79.5 237,-79.5 237,-60.5 358,-60.5 358,-79.5"/>
<text text-anchor="middle" x="297.5" y="-67.5" font-family="Helvetica,sans-Serif" font-size="10.00">OMSimPhysicsList.hh</text>
</a>
</g>
</g>
<!-- Node1&#45;&gt;Node2 -->
<g id="edge1_Node000001_Node000002" class="edge">
<title>Node1&#45;&gt;Node2</title>
<g id="a_edge1_Node000001_Node000002"><a xlink:title=" ">
<path fill="none" stroke="#63b8ff" d="M1939.93,-129.23C1684.58,-127.88 681.19,-120.39 367.5,-85 359.88,-84.14 351.85,-82.88 344.06,-81.46"/>
<polygon fill="#63b8ff" stroke="#63b8ff" points="344.49,-77.98 334.01,-79.52 343.17,-84.85 344.49,-77.98"/>
</a>
</g>
</g>
<!-- Node3 -->
<g id="Node000003" class="node">
<title>Node3</title>
<g id="a_Node000003"><a xlink:href="_o_m_sim_op_boundary_process_8hh_source.html" target="_top" xlink:title=" ">
<polygon fill="white" stroke="#666666" points="540.5,-79.5 376.5,-79.5 376.5,-60.5 540.5,-60.5 540.5,-79.5"/>
<text text-anchor="middle" x="458.5" y="-67.5" font-family="Helvetica,sans-Serif" font-size="10.00">OMSimOpBoundaryProcess.hh</text>
</a>
</g>
</g>
<!-- Node1&#45;&gt;Node3 -->
<g id="edge2_Node000001_Node000003" class="edge">
<title>Node1&#45;&gt;Node3</title>
<g id="a_edge2_Node000001_Node000003"><a xlink:title=" ">
<path fill="none" stroke="#63b8ff" d="M1939.98,-128.63C1703.13,-125.01 826.99,-110.19 550.5,-85 539.66,-84.01 528.15,-82.57 517.08,-80.99"/>
<polygon fill="#63b8ff" stroke="#63b8ff" points="517.47,-77.51 507.07,-79.51 516.45,-84.44 517.47,-77.51"/>
</a>
</g>
</g>
<!-- Node11 -->
<g id="Node000011" class="node">
<title>Node11</title>
<g id="a_Node000011"><a xlink:title=" ">
<polygon fill="#e0e0e0" stroke="#999999" points="684,-79.5 559,-79.5 559,-60.5 684,-60.5 684,-79.5"/>
<text text-anchor="middle" x="621.5" y="-67.5" font-family="Helvetica,sans-Serif" font-size="10.00">G4ProcessManager.hh</text>
</a>
</g>
</g>
<!-- Node1&#45;&gt;Node11 -->
<g id="edge10_Node000001_Node000011" class="edge">
<title>Node1&#45;&gt;Node11</title>
<g id="a_edge10_Node000001_Node000011"><a xlink:title=" ">
<path fill="none" stroke="#63b8ff" d="M1939.87,-128.72C1717.95,-125.62 939.91,-112.98 693.5,-85 685.67,-84.11 677.42,-82.83 669.41,-81.41"/>
<polygon fill="#63b8ff" stroke="#63b8ff" points="669.91,-77.94 659.44,-79.54 668.62,-84.82 669.91,-77.94"/>
</a>
</g>
</g>
<!-- Node12 -->
<g id="Node000012" class="node">
<title>Node12</title>
<g id="a_Node000012"><a xlink:title=" ">
<polygon fill="#e0e0e0" stroke="#999999" points="811,-79.5 702,-79.5 702,-60.5 811,-60.5 811,-79.5"/>
<text text-anchor="middle" x="756.5" y="-67.5" font-family="Helvetica,sans-Serif" font-size="10.00">G4ParticleTypes.hh</text>
</a>
</g>
</g>
<!-- Node1&#45;&gt;Node12 -->
<g id="edge11_Node000001_Node000012" class="edge">
<title>Node1&#45;&gt;Node12</title>
<g id="a_edge11_Node000001_Node000012"><a xlink:title=" ">
<path fill="none" stroke="#63b8ff" d="M1939.66,-128.65C1731.62,-125.46 1040.46,-112.98 820.5,-85 813.83,-84.15 806.83,-82.95 800,-81.6"/>
<polygon fill="#63b8ff" stroke="#63b8ff" points="800.69,-78.17 790.18,-79.54 799.25,-85.02 800.69,-78.17"/>
</a>
</g>
</g>
<!-- Node13 -->
<g id="Node000013" class="node">
<title>Node13</title>
<g id="a_Node000013"><a xlink:title=" ">
<polygon fill="#e0e0e0" stroke="#999999" points="948,-79.5 829,-79.5 829,-60.5 948,-60.5 948,-79.5"/>
<text text-anchor="middle" x="888.5" y="-67.5" font-family="Helvetica,sans-Serif" font-size="10.00">G4SystemOfUnits.hh</text>
</a>
</g>
</g>
<!-- Node1&#45;&gt;Node13 -->
<g id="edge12_Node000001_Node000013" class="edge">
<title>Node1&#45;&gt;Node13</title>
<g id="a_edge12_Node000001_Node000013"><a xlink:title=" ">
<path fill="none" stroke="#63b8ff" d="M1939.76,-128.19C1748.04,-123.78 1149.7,-108.45 957.5,-85 950.24,-84.11 942.61,-82.88 935.17,-81.5"/>
<polygon fill="#63b8ff" stroke="#63b8ff" points="935.69,-78.04 925.21,-79.56 934.36,-84.91 935.69,-78.04"/>
</a>
</g>
</g>
<!-- Node14 -->
<g id="Node000014" class="node">
<title>Node14</title>
<g id="a_Node000014"><a xlink:title=" ">
<polygon fill="#e0e0e0" stroke="#999999" points="1056.5,-79.5 966.5,-79.5 966.5,-60.5 1056.5,-60.5 1056.5,-79.5"/>
<text text-anchor="middle" x="1011.5" y="-67.5" font-family="Helvetica,sans-Serif" font-size="10.00">G4Cerenkov.hh</text>
</a>
</g>
</g>
<!-- Node1&#45;&gt;Node14 -->
<g id="edge13_Node000001_Node000014" class="edge">
<title>Node1&#45;&gt;Node14</title>
<g id="a_edge13_Node000001_Node000014"><a xlink:title=" ">
<path fill="none" stroke="#63b8ff" d="M1939.78,-128.23C1761.67,-124.18 1236,-110.35 1066.5,-85 1061.27,-84.22 1055.82,-83.15 1050.47,-81.95"/>
<polygon fill="#63b8ff" stroke="#63b8ff" points="1050.93,-78.46 1040.39,-79.52 1049.29,-85.26 1050.93,-78.46"/>
</a>
</g>
</g>
<!-- Node15 -->
<g id="Node000015" class="node">
<title>Node15</title>
<g id="a_Node000015"><a xlink:title=" ">
<polygon fill="#e0e0e0" stroke="#999999" points="1186,-79.5 1075,-79.5 1075,-60.5 1186,-60.5 1186,-79.5"/>
<text text-anchor="middle" x="1130.5" y="-67.5" font-family="Helvetica,sans-Serif" font-size="10.00">G4OpAbsorption.hh</text>
</a>
</g>
</g>
<!-- Node1&#45;&gt;Node15 -->
<g id="edge14_Node000001_Node000015" class="edge">
<title>Node1&#45;&gt;Node15</title>
<g id="a_edge14_Node000001_Node000015"><a xlink:title=" ">
<path fill="none" stroke="#63b8ff" d="M1939.94,-129.39C1806.2,-128.45 1472.08,-122.21 1195.5,-85 1189.04,-84.13 1182.27,-82.97 1175.64,-81.68"/>
<polygon fill="#63b8ff" stroke="#63b8ff" points="1175.91,-78.16 1165.41,-79.57 1174.5,-85.01 1175.91,-78.16"/>
</a>
</g>
</g>
<!-- Node16 -->
<g id="Node000016" class="node">
<title>Node16</title>
<g id="a_Node000016"><a xlink:title=" ">
<polygon fill="#e0e0e0" stroke="#999999" points="1305,-79.5 1204,-79.5 1204,-60.5 1305,-60.5 1305,-79.5"/>
<text text-anchor="middle" x="1254.5" y="-67.5" font-family="Helvetica,sans-Serif" font-size="10.00">G4OpRayleigh.hh</text>
</a>
</g>
</g>
<!-- Node1&#45;&gt;Node16 -->
<g id="edge15_Node000001_Node000016" class="edge">
<title>Node1&#45;&gt;Node16</title>
<g id="a_edge15_Node000001_Node000016"><a xlink:title=" ">
<path fill="none" stroke="#63b8ff" d="M1939.59,-128.91C1820.08,-127.01 1543.79,-118.96 1314.5,-85 1308.67,-84.14 1302.57,-83 1296.59,-81.74"/>
<polygon fill="#63b8ff" stroke="#63b8ff" points="1297.22,-78.29 1286.7,-79.54 1295.7,-85.13 1297.22,-78.29"/>
</a>
</g>
</g>
<!-- Node17 -->
<g id="Node000017" class="node">
<title>Node17</title>
<g id="a_Node000017"><a xlink:title=" ">
<polygon fill="#e0e0e0" stroke="#999999" points="1415.5,-79.5 1323.5,-79.5 1323.5,-60.5 1415.5,-60.5 1415.5,-79.5"/>
<text text-anchor="middle" x="1369.5" y="-67.5" font-family="Helvetica,sans-Serif" font-size="10.00">G4OpMieHG.hh</text>
</a>
</g>
</g>
<!-- Node1&#45;&gt;Node17 -->
<g id="edge16_Node000001_Node000017" class="edge">
<title>Node1&#45;&gt;Node17</title>
<g id="a_edge16_Node000001_Node000017"><a xlink:title=" ">
<path fill="none" stroke="#63b8ff" d="M1939.91,-128.26C1835.05,-125.33 1610.97,-115.71 1424.5,-85 1419.46,-84.17 1414.21,-83.1 1409.04,-81.93"/>
<polygon fill="#63b8ff" stroke="#63b8ff" points="1409.82,-78.52 1399.27,-79.57 1408.18,-85.32 1409.82,-78.52"/>
</a>
</g>
</g>
<!-- Node18 -->
<g id="Node000018" class="node">
<title>Node18</title>
<g id="a_Node000018"><a xlink:title=" ">
<polygon fill="#e0e0e0" stroke="#999999" points="1573.5,-79.5 1433.5,-79.5 1433.5,-60.5 1573.5,-60.5 1573.5,-79.5"/>
<text text-anchor="middle" x="1503.5" y="-67.5" font-family="Helvetica,sans-Serif" font-size="10.00">G4eMultipleScattering.hh</text>
</a>
</g>
</g>
<!-- Node1&#45;&gt;Node18 -->
<g id="edge17_Node000001_Node000018" class="edge">
<title>Node1&#45;&gt;Node18</title>
<g id="a_edge17_Node000001_Node000018"><a xlink:title=" ">
<path fill="none" stroke="#63b8ff" d="M1939.76,-124.37C1858.82,-117.13 1709.91,-102.8 1583.5,-85 1575.56,-83.88 1567.2,-82.57 1559,-81.2"/>
<polygon fill="#63b8ff" stroke="#63b8ff" points="1559.55,-77.75 1549.11,-79.52 1558.38,-84.65 1559.55,-77.75"/>
</a>
</g>
</g>
<!-- Node19 -->
<g id="Node000019" class="node">
<title>Node19</title>
<g id="a_Node000019"><a xlink:title=" ">
<polygon fill="#e0e0e0" stroke="#999999" points="1691,-79.5 1592,-79.5 1592,-60.5 1691,-60.5 1691,-79.5"/>
<text text-anchor="middle" x="1641.5" y="-67.5" font-family="Helvetica,sans-Serif" font-size="10.00">G4eIonisation.hh</text>
</a>
</g>
</g>
<!-- Node1&#45;&gt;Node19 -->
<g id="edge18_Node000001_Node000019" class="edge">
<title>Node1&#45;&gt;Node19</title>
<g id="a_edge18_Node000001_Node000019"><a xlink:title=" ">
<path fill="none" stroke="#63b8ff" d="M1939.96,-122.16C1879.44,-114.34 1783.08,-100.91 1700.5,-85 1695.52,-84.04 1690.33,-82.95 1685.18,-81.8"/>
<polygon fill="#63b8ff" stroke="#63b8ff" points="1685.93,-78.38 1675.4,-79.57 1684.37,-85.21 1685.93,-78.38"/>
</a>
</g>
</g>
<!-- Node20 -->
<g id="Node000020" class="node">
<title>Node20</title>
<g id="a_Node000020"><a xlink:title=" ">
<polygon fill="#e0e0e0" stroke="#999999" points="1837.5,-79.5 1709.5,-79.5 1709.5,-60.5 1837.5,-60.5 1837.5,-79.5"/>
<text text-anchor="middle" x="1773.5" y="-67.5" font-family="Helvetica,sans-Serif" font-size="10.00">G4eBremsstrahlung.hh</text>
</a>
</g>
</g>
<!-- Node1&#45;&gt;Node20 -->
<g id="edge19_Node000001_Node000020" class="edge">
<title>Node1&#45;&gt;Node20</title>
<g id="a_edge19_Node000001_Node000020"><a xlink:title=" ">
<path fill="none" stroke="#63b8ff" d="M1966.64,-120.99C1926.89,-110.7 1859.87,-93.36 1816.17,-82.04"/>
<polygon fill="#63b8ff" stroke="#63b8ff" points="1816.96,-78.63 1806.4,-79.52 1815.21,-85.41 1816.96,-78.63"/>
</a>
</g>
</g>
<!-- Node21 -->
<g id="Node000021" class="node">
<title>Node21</title>
<g id="a_Node000021"><a xlink:title=" ">
<polygon fill="#e0e0e0" stroke="#999999" points="1985.5,-79.5 1855.5,-79.5 1855.5,-60.5 1985.5,-60.5 1985.5,-79.5"/>
<text text-anchor="middle" x="1920.5" y="-67.5" font-family="Helvetica,sans-Serif" font-size="10.00">G4eplusAnnihilation.hh</text>
</a>
</g>
</g>
<!-- Node1&#45;&gt;Node21 -->
<g id="edge20_Node000001_Node000021" class="edge">
<title>Node1&#45;&gt;Node21</title>
<g id="a_edge20_Node000001_Node000021"><a xlink:title=" ">
<path fill="none" stroke="#63b8ff" d="M1987.84,-120.87C1975.36,-111.62 1955.32,-96.78 1940.34,-85.69"/>
<polygon fill="#63b8ff" stroke="#63b8ff" points="1942.32,-82.81 1932.2,-79.67 1938.16,-88.43 1942.32,-82.81"/>
</a>
</g>
</g>
<!-- Node22 -->
<g id="Node000022" class="node">
<title>Node22</title>
<g id="a_Node000022"><a xlink:title=" ">
<polygon fill="#e0e0e0" stroke="#999999" points="2153,-79.5 2004,-79.5 2004,-60.5 2153,-60.5 2153,-79.5"/>
<text text-anchor="middle" x="2078.5" y="-67.5" font-family="Helvetica,sans-Serif" font-size="10.00">G4MuMultipleScattering.hh</text>
</a>
</g>
</g>
<!-- Node1&#45;&gt;Node22 -->
<g id="edge21_Node000001_Node000022" class="edge">
<title>Node1&#45;&gt;Node22</title>
<g id="a_edge21_Node000001_Node000022"><a xlink:title=" ">
<path fill="none" stroke="#63b8ff" d="M2011.16,-120.87C2023.64,-111.62 2043.68,-96.78 2058.66,-85.69"/>
<polygon fill="#63b8ff" stroke="#63b8ff" points="2060.84,-88.43 2066.8,-79.67 2056.68,-82.81 2060.84,-88.43"/>
</a>
</g>
</g>
<!-- Node23 -->
<g id="Node000023" class="node">
<title>Node23</title>
<g id="a_Node000023"><a xlink:title=" ">
<polygon fill="#e0e0e0" stroke="#999999" points="2279.5,-79.5 2171.5,-79.5 2171.5,-60.5 2279.5,-60.5 2279.5,-79.5"/>
<text text-anchor="middle" x="2225.5" y="-67.5" font-family="Helvetica,sans-Serif" font-size="10.00">G4MuIonisation.hh</text>
</a>
</g>
</g>
<!-- Node1&#45;&gt;Node23 -->
<g id="edge22_Node000001_Node000023" class="edge">
<title>Node1&#45;&gt;Node23</title>
<g id="a_edge22_Node000001_Node000023"><a xlink:title=" ">
<path fill="none" stroke="#63b8ff" d="M2032.36,-120.99C2072.11,-110.7 2139.13,-93.36 2182.83,-82.04"/>
<polygon fill="#63b8ff" stroke="#63b8ff" points="2183.79,-85.41 2192.6,-79.52 2182.04,-78.63 2183.79,-85.41"/>
</a>
</g>
</g>
<!-- Node24 -->
<g id="Node000024" class="node">
<title>Node24</title>
<g id="a_Node000024"><a xlink:title=" ">
<polygon fill="#e0e0e0" stroke="#999999" points="2435,-79.5 2298,-79.5 2298,-60.5 2435,-60.5 2435,-79.5"/>
<text text-anchor="middle" x="2366.5" y="-67.5" font-family="Helvetica,sans-Serif" font-size="10.00">G4MuBremsstrahlung.hh</text>
</a>
</g>
</g>
<!-- Node1&#45;&gt;Node24 -->
<g id="edge23_Node000001_Node000024" class="edge">
<title>Node1&#45;&gt;Node24</title>
<g id="a_edge23_Node000001_Node000024"><a xlink:title=" ">
<path fill="none" stroke="#63b8ff" d="M2057.69,-120.97C2116.1,-112.31 2208.63,-98.31 2288.5,-85 2295.34,-83.86 2302.51,-82.63 2309.61,-81.38"/>
<polygon fill="#63b8ff" stroke="#63b8ff" points="2310.69,-84.74 2319.93,-79.55 2309.47,-77.85 2310.69,-84.74"/>
</a>
</g>
</g>
<!-- Node25 -->
<g id="Node000025" class="node">
<title>Node25</title>
<g id="a_Node000025"><a xlink:title=" ">
<polygon fill="#e0e0e0" stroke="#999999" points="2583.5,-79.5 2453.5,-79.5 2453.5,-60.5 2583.5,-60.5 2583.5,-79.5"/>
<text text-anchor="middle" x="2518.5" y="-67.5" font-family="Helvetica,sans-Serif" font-size="10.00">G4MuPairProduction.hh</text>
</a>
</g>
</g>
<!-- Node1&#45;&gt;Node25 -->
<g id="edge24_Node000001_Node000025" class="edge">
<title>Node1&#45;&gt;Node25</title>
<g id="a_edge24_Node000001_Node000025"><a xlink:title=" ">
<path fill="none" stroke="#63b8ff" d="M2059.08,-125.2C2144.64,-118.66 2307.14,-104.82 2444.5,-85 2451.71,-83.96 2459.28,-82.71 2466.72,-81.39"/>
<polygon fill="#63b8ff" stroke="#63b8ff" points="2467.52,-84.8 2476.73,-79.56 2466.27,-77.92 2467.52,-84.8"/>
</a>
</g>
</g>
<!-- Node26 -->
<g id="Node000026" class="node">
<title>Node26</title>
<g id="a_Node000026"><a xlink:title=" ">
<polygon fill="#e0e0e0" stroke="#999999" points="2741,-79.5 2602,-79.5 2602,-60.5 2741,-60.5 2741,-79.5"/>
<text text-anchor="middle" x="2671.5" y="-67.5" font-family="Helvetica,sans-Serif" font-size="10.00">G4ComptonScattering.hh</text>
</a>
</g>
</g>
<!-- Node1&#45;&gt;Node26 -->
<g id="edge25_Node000001_Node000026" class="edge">
<title>Node1&#45;&gt;Node26</title>
<g id="a_edge25_Node000001_Node000026"><a xlink:title=" ">
<path fill="none" stroke="#63b8ff" d="M2059.04,-127.01C2166.11,-122.1 2398.13,-109.45 2592.5,-85 2600.65,-83.97 2609.25,-82.68 2617.64,-81.29"/>
<polygon fill="#63b8ff" stroke="#63b8ff" points="2618.48,-84.7 2627.74,-79.56 2617.3,-77.8 2618.48,-84.7"/>
</a>
</g>
</g>
<!-- Node27 -->
<g id="Node000027" class="node">
<title>Node27</title>
<g id="a_Node000027"><a xlink:title=" ">
<polygon fill="#e0e0e0" stroke="#999999" points="2898,-79.5 2759,-79.5 2759,-60.5 2898,-60.5 2898,-79.5"/>
<text text-anchor="middle" x="2828.5" y="-67.5" font-family="Helvetica,sans-Serif" font-size="10.00">G4GammaConversion.hh</text>
</a>
</g>
</g>
<!-- Node1&#45;&gt;Node27 -->
<g id="edge26_Node000001_Node000027" class="edge">
<title>Node1&#45;&gt;Node27</title>
<g id="a_edge26_Node000001_Node000027"><a xlink:title=" ">
<path fill="none" stroke="#63b8ff" d="M2059.1,-128.36C2186.45,-125.41 2494.35,-115.47 2750.5,-85 2758.85,-84.01 2767.65,-82.69 2776.22,-81.26"/>
<polygon fill="#63b8ff" stroke="#63b8ff" points="2776.87,-84.7 2786.13,-79.55 2775.68,-77.8 2776.87,-84.7"/>
</a>
</g>
</g>
<!-- Node28 -->
<g id="Node000028" class="node">
<title>Node28</title>
<g id="a_Node000028"><a xlink:title=" ">
<polygon fill="#e0e0e0" stroke="#999999" points="3053,-79.5 2916,-79.5 2916,-60.5 3053,-60.5 3053,-79.5"/>
<text text-anchor="middle" x="2984.5" y="-67.5" font-family="Helvetica,sans-Serif" font-size="10.00">G4PhotoElectricEffect.hh</text>
</a>
</g>
</g>
<!-- Node1&#45;&gt;Node28 -->
<g id="edge27_Node000001_Node000028" class="edge">
<title>Node1&#45;&gt;Node28</title>
<g id="a_edge27_Node000001_Node000028"><a xlink:title=" ">
<path fill="none" stroke="#63b8ff" d="M2059.21,-129.27C2204.76,-128.13 2589.2,-121.58 2907.5,-85 2915.84,-84.04 2924.65,-82.73 2933.2,-81.29"/>
<polygon fill="#63b8ff" stroke="#63b8ff" points="2933.84,-84.73 2943.09,-79.56 2932.63,-77.84 2933.84,-84.73"/>
</a>
</g>
</g>
<!-- Node29 -->
<g id="Node000029" class="node">
<title>Node29</title>
<g id="a_Node000029"><a xlink:title=" ">
<polygon fill="#e0e0e0" stroke="#999999" points="3214,-85 3071,-85 3071,-55 3214,-55 3214,-85"/>
<text text-anchor="start" x="3079" y="-73" font-family="Helvetica,sans-Serif" font-size="10.00">G4LivermorePhotoElectric</text>
<text text-anchor="middle" x="3142.5" y="-62" font-family="Helvetica,sans-Serif" font-size="10.00">Model.hh</text>
</a>
</g>
</g>
<!-- Node1&#45;&gt;Node29 -->
<g id="edge28_Node000001_Node000029" class="edge">
<title>Node1&#45;&gt;Node29</title>
<g id="a_edge28_Node000001_Node000029"><a xlink:title=" ">
<path fill="none" stroke="#63b8ff" d="M2059.06,-129.74C2219.47,-129.81 2674.04,-126.15 3060.63,-85.11"/>
<polygon fill="#63b8ff" stroke="#63b8ff" points="3061.03,-88.59 3070.61,-84.04 3060.29,-81.63 3061.03,-88.59"/>
</a>
</g>
</g>
<!-- Node30 -->
<g id="Node000030" class="node">
<title>Node30</title>
<g id="a_Node000030"><a xlink:title=" ">
<polygon fill="#e0e0e0" stroke="#999999" points="3405,-79.5 3232,-79.5 3232,-60.5 3405,-60.5 3405,-79.5"/>
<text text-anchor="middle" x="3318.5" y="-67.5" font-family="Helvetica,sans-Serif" font-size="10.00">G4LivermoreIonisationModel.hh</text>
</a>
</g>
</g>
<!-- Node1&#45;&gt;Node30 -->
<g id="edge29_Node000001_Node000030" class="edge">
<title>Node1&#45;&gt;Node30</title>
<g id="a_edge29_Node000001_Node000030"><a xlink:title=" ">
<path fill="none" stroke="#63b8ff" d="M2059.19,-129.65C2236.84,-129.6 2777.49,-125.85 3223.5,-85 3234.56,-83.99 3246.29,-82.55 3257.6,-80.99"/>
<polygon fill="#63b8ff" stroke="#63b8ff" points="3258.44,-84.4 3267.84,-79.52 3257.45,-77.47 3258.44,-84.4"/>
</a>
</g>
</g>
<!-- Node31 -->
<g id="Node000031" class="node">
<title>Node31</title>
<g id="a_Node000031"><a xlink:title=" ">
<polygon fill="#e0e0e0" stroke="#999999" points="3596,-85 3423,-85 3423,-55 3596,-55 3596,-85"/>
<text text-anchor="start" x="3431" y="-73" font-family="Helvetica,sans-Serif" font-size="10.00">G4LivermoreGammaConversion</text>
<text text-anchor="middle" x="3509.5" y="-62" font-family="Helvetica,sans-Serif" font-size="10.00">Model.hh</text>
</a>
</g>
</g>
<!-- Node1&#45;&gt;Node31 -->
<g id="edge30_Node000001_Node000031" class="edge">
<title>Node1&#45;&gt;Node31</title>
<g id="a_edge30_Node000001_Node000031"><a xlink:title=" ">
<path fill="none" stroke="#63b8ff" d="M2059.3,-130.07C2253.31,-131.41 2882.85,-131.65 3412.69,-85.09"/>
<polygon fill="#63b8ff" stroke="#63b8ff" points="3413.18,-88.56 3422.83,-84.19 3412.56,-81.59 3413.18,-88.56"/>
</a>
</g>
</g>
<!-- Node32 -->
<g id="Node000032" class="node">
<title>Node32</title>
<g id="a_Node000032"><a xlink:title=" ">
<polygon fill="#e0e0e0" stroke="#999999" points="3745,-79.5 3614,-79.5 3614,-60.5 3745,-60.5 3745,-79.5"/>
<text text-anchor="middle" x="3679.5" y="-67.5" font-family="Helvetica,sans-Serif" font-size="10.00">G4PhysicsListHelper.hh</text>
</a>
</g>
</g>
<!-- Node1&#45;&gt;Node32 -->
<g id="edge31_Node000001_Node000032" class="edge">
<title>Node1&#45;&gt;Node32</title>
<g id="a_edge31_Node000001_Node000032"><a xlink:title=" ">
<path fill="none" stroke="#63b8ff" d="M2059.38,-129.12C2312.68,-127.31 3297.15,-118.23 3605.5,-85 3613.73,-84.11 3622.41,-82.81 3630.81,-81.35"/>
<polygon fill="#63b8ff" stroke="#63b8ff" points="3631.68,-84.75 3640.88,-79.51 3630.42,-77.86 3631.68,-84.75"/>
</a>
</g>
</g>
<!-- Node33 -->
<g id="Node000033" class="node">
<title>Node33</title>
<g id="a_Node000033"><a xlink:title=" ">
<polygon fill="#e0e0e0" stroke="#999999" points="3897.5,-79.5 3763.5,-79.5 3763.5,-60.5 3897.5,-60.5 3897.5,-79.5"/>
<text text-anchor="middle" x="3830.5" y="-67.5" font-family="Helvetica,sans-Serif" font-size="10.00">G4LossTableManager.hh</text>
</a>
</g>
</g>
<!-- Node1&#45;&gt;Node33 -->
<g id="edge32_Node000001_Node000033" class="edge">
<title>Node1&#45;&gt;Node33</title>
<g id="a_edge32_Node000001_Node000033"><a xlink:title=" ">
<path fill="none" stroke="#63b8ff" d="M2059.44,-129.24C2327.16,-127.9 3415.17,-120.34 3754.5,-85 3763.04,-84.11 3772.05,-82.79 3780.77,-81.31"/>
<polygon fill="#63b8ff" stroke="#63b8ff" points="3781.6,-84.72 3790.83,-79.52 3780.37,-77.83 3781.6,-84.72"/>
</a>
</g>
</g>
<!-- Node34 -->
<g id="Node000034" class="node">
<title>Node34</title>
<g id="a_Node000034"><a xlink:title=" ">
<polygon fill="#e0e0e0" stroke="#999999" points="4065,-79.5 3916,-79.5 3916,-60.5 4065,-60.5 4065,-79.5"/>
<text text-anchor="middle" x="3990.5" y="-67.5" font-family="Helvetica,sans-Serif" font-size="10.00">G4UAtomicDeexcitation.hh</text>
</a>
</g>
</g>
<!-- Node1&#45;&gt;Node34 -->
<g id="edge33_Node000001_Node000034" class="edge">
<title>Node1&#45;&gt;Node34</title>
<g id="a_edge33_Node000001_Node000034"><a xlink:title=" ">
<path fill="none" stroke="#63b8ff" d="M2059.36,-129.25C2340.91,-127.88 3535.18,-120.1 3906.5,-85 3916.22,-84.08 3926.52,-82.7 3936.45,-81.17"/>
<polygon fill="#63b8ff" stroke="#63b8ff" points="3937.31,-84.57 3946.62,-79.52 3936.19,-77.66 3937.31,-84.57"/>
</a>
</g>
</g>
<!-- Node4 -->
<g id="Node000004" class="node">
<title>Node4</title>
<g id="a_Node000004"><a xlink:title=" ">
<polygon fill="#e0e0e0" stroke="#999999" points="113,-19 0,-19 0,0 113,0 113,-19"/>
<text text-anchor="middle" x="56.5" y="-7" font-family="Helvetica,sans-Serif" font-size="10.00">G4OpticalPhoton.hh</text>
</a>
</g>
</g>
<!-- Node3&#45;&gt;Node4 -->
<g id="edge3_Node000003_Node000004" class="edge">
<title>Node3&#45;&gt;Node4</title>
<g id="a_edge3_Node000003_Node000004"><a xlink:title=" ">
<path fill="none" stroke="#63b8ff" d="M403.05,-60.48C391,-58.66 378.33,-56.75 366.5,-55 282.69,-42.61 186.05,-28.81 123.25,-19.92"/>
<polygon fill="#63b8ff" stroke="#63b8ff" points="123.48,-16.41 113.09,-18.48 122.5,-23.34 123.48,-16.41"/>
</a>
</g>
</g>
<!-- Node5 -->
<g id="Node000005" class="node">
<title>Node5</title>
<g id="a_Node000005"><a xlink:title=" ">
<polygon fill="#e0e0e0" stroke="#999999" points="247.5,-19 131.5,-19 131.5,0 247.5,0 247.5,-19"/>
<text text-anchor="middle" x="189.5" y="-7" font-family="Helvetica,sans-Serif" font-size="10.00">G4OpticalSurface.hh</text>
</a>
</g>
</g>
<!-- Node3&#45;&gt;Node5 -->
<g id="edge4_Node000003_Node000005" class="edge">
<title>Node3&#45;&gt;Node5</title>
<g id="a_edge4_Node000003_Node000005"><a xlink:title=" ">
<path fill="none" stroke="#63b8ff" d="M419.39,-60.49C371.57,-50.1 290.63,-32.49 238.65,-21.19"/>
<polygon fill="#63b8ff" stroke="#63b8ff" points="239.18,-17.72 228.66,-19.02 237.69,-24.56 239.18,-17.72"/>
</a>
</g>
</g>
<!-- Node6 -->
<g id="Node000006" class="node">
<title>Node6</title>
<g id="a_Node000006"><a xlink:title=" ">
<polygon fill="#e0e0e0" stroke="#999999" points="375.5,-19 265.5,-19 265.5,0 375.5,0 375.5,-19"/>
<text text-anchor="middle" x="320.5" y="-7" font-family="Helvetica,sans-Serif" font-size="10.00">G4RandomTools.hh</text>
</a>
</g>
</g>
<!-- Node3&#45;&gt;Node6 -->
<g id="edge5_Node000003_Node000006" class="edge">
<title>Node3&#45;&gt;Node6</title>
<g id="a_edge5_Node000003_Node000006"><a xlink:title=" ">
<path fill="none" stroke="#63b8ff" d="M438.43,-60.49C415.13,-50.62 376.49,-34.23 349.82,-22.93"/>
<polygon fill="#63b8ff" stroke="#63b8ff" points="351.16,-19.7 340.59,-19.02 348.43,-26.14 351.16,-19.7"/>
</a>
</g>
</g>
<!-- Node7 -->
<g id="Node000007" class="node">
<title>Node7</title>
<g id="a_Node000007"><a xlink:title=" ">
<polygon fill="#e0e0e0" stroke="#999999" points="523.5,-19 393.5,-19 393.5,0 523.5,0 523.5,-19"/>
<text text-anchor="middle" x="458.5" y="-7" font-family="Helvetica,sans-Serif" font-size="10.00">G4VDiscreteProcess.hh</text>
</a>
</g>
</g>
<!-- Node3&#45;&gt;Node7 -->
<g id="edge6_Node000003_Node000007" class="edge">
<title>Node3&#45;&gt;Node7</title>
<g id="a_edge6_Node000003_Node000007"><a xlink:title=" ">
<path fill="none" stroke="#63b8ff" d="M458.5,-60.37C458.5,-52.25 458.5,-39.81 458.5,-29.39"/>
<polygon fill="#63b8ff" stroke="#63b8ff" points="462,-29.17 458.5,-19.17 455,-29.17 462,-29.17"/>
</a>
</g>
</g>
<!-- Node8 -->
<g id="Node000008" class="node">
<title>Node8</title>
<g id="a_Node000008"><a xlink:title=" ">
<polygon fill="#e0e0e0" stroke="#999999" points="699,-19 542,-19 542,0 699,0 699,-19"/>
<text text-anchor="middle" x="620.5" y="-7" font-family="Helvetica,sans-Serif" font-size="10.00">G4VUserTrackInformation.hh</text>
</a>
</g>
</g>
<!-- Node3&#45;&gt;Node8 -->
<g id="edge7_Node000003_Node000008" class="edge">
<title>Node3&#45;&gt;Node8</title>
<g id="a_edge7_Node000003_Node000008"><a xlink:title=" ">
<path fill="none" stroke="#63b8ff" d="M482.06,-60.49C509.77,-50.49 555.97,-33.8 587.31,-22.49"/>
<polygon fill="#63b8ff" stroke="#63b8ff" points="588.7,-25.71 596.92,-19.02 586.32,-19.12 588.7,-25.71"/>
</a>
</g>
</g>
<!-- Node9 -->
<g id="Node000009" class="node">
<title>Node9</title>
<g id="a_Node000009"><a xlink:title=" ">
<polygon fill="#e0e0e0" stroke="#999999" points="807.5,-19 717.5,-19 717.5,0 807.5,0 807.5,-19"/>
<text text-anchor="middle" x="762.5" y="-7" font-family="Helvetica,sans-Serif" font-size="10.00">G4AutoLock.hh</text>
</a>
</g>
</g>
<!-- Node3&#45;&gt;Node9 -->
<g id="edge8_Node000003_Node000009" class="edge">
<title>Node3&#45;&gt;Node9</title>
<g id="a_edge8_Node000003_Node000009"><a xlink:title=" ">
<path fill="none" stroke="#63b8ff" d="M502.7,-60.49C557.19,-50.01 649.74,-32.2 708.41,-20.91"/>
<polygon fill="#63b8ff" stroke="#63b8ff" points="709.08,-24.34 718.24,-19.02 707.76,-17.47 709.08,-24.34"/>
</a>
</g>
</g>
<!-- Node10 -->
<g id="Node000010" class="node">
<title>Node10</title>
<g id="a_Node000010"><a xlink:title=" ">
<polygon fill="#e0e0e0" stroke="#999999" points="919.5,-19 825.5,-19 825.5,0 919.5,0 919.5,-19"/>
<text text-anchor="middle" x="872.5" y="-7" font-family="Helvetica,sans-Serif" font-size="10.00">G4Threading.hh</text>
</a>
</g>
</g>
<!-- Node3&#45;&gt;Node10 -->
<g id="edge9_Node000003_Node000010" class="edge">
<title>Node3&#45;&gt;Node10</title>
<g id="a_edge9_Node000003_Node000010"><a xlink:title=" ">
<path fill="none" stroke="#63b8ff" d="M513.45,-60.49C525.64,-58.64 538.51,-56.72 550.5,-55 665.36,-38.49 696.71,-36.08 815.25,-19.16"/>
<polygon fill="#63b8ff" stroke="#63b8ff" points="816.05,-22.58 825.45,-17.7 815.06,-15.65 816.05,-22.58"/>
</a>
</g>
</g>
</g>
</svg>
