<?xml version="1.0" encoding="UTF-8" standalone="no"?>
<!DOCTYPE svg PUBLIC "-//W3C//DTD SVG 1.1//EN"
 "http://www.w3.org/Graphics/SVG/1.1/DTD/svg11.dtd">
<!-- Generated by graphviz version 2.43.0 (0)
 -->
<!-- Title: OMSimPrimaryGeneratorAction.cc Pages: 1 -->
<svg width="1282pt" height="203pt"
 viewBox="0.00 0.00 1281.50 203.00" xmlns="http://www.w3.org/2000/svg" xmlns:xlink="http://www.w3.org/1999/xlink">
<g id="graph0" class="graph" transform="scale(1 1) rotate(0) translate(4 199)">
<title>OMSimPrimaryGeneratorAction.cc</title>
<!-- Node1 -->
<g id="Node000001" class="node">
<title>Node1</title>
<g id="a_Node000001"><a xlink:title="Implementation of primary generator action for WavePID.">
<polygon fill="#999999" stroke="#666666" points="751,-195 568,-195 568,-176 751,-176 751,-195"/>
<text text-anchor="middle" x="659.5" y="-183" font-family="Helvetica,sans-Serif" font-size="10.00">OMSimPrimaryGeneratorAction.cc</text>
</a>
</g>
</g>
<!-- Node2 -->
<g id="Node000002" class="node">
<title>Node2</title>
<g id="a_Node000002"><a xlink:title=" ">
<polygon fill="#e0e0e0" stroke="#999999" points="226,-140 41,-140 41,-121 226,-121 226,-140"/>
<text text-anchor="middle" x="133.5" y="-128" font-family="Helvetica,sans-Serif" font-size="10.00">OMSimPrimaryGeneratorAction.hh</text>
</a>
</g>
</g>
<!-- Node1&#45;&gt;Node2 -->
<g id="edge1_Node000001_Node000002" class="edge">
<title>Node1&#45;&gt;Node2</title>
<g id="a_edge1_Node000001_Node000002"><a xlink:title=" ">
<path fill="none" stroke="#63b8ff" d="M574.99,-175.98C480.23,-166.44 326.94,-150.99 228.21,-141.04"/>
<polygon fill="#63b8ff" stroke="#63b8ff" points="228.54,-137.56 218.24,-140.04 227.84,-144.52 228.54,-137.56"/>
</a>
</g>
</g>
<!-- Node3 -->
<g id="Node000003" class="node">
<title>Node3</title>
<g id="a_Node000003"><a xlink:href="_o_m_sim_command_args_table_8hh.html" target="_top" xlink:title="Definition of the OMSimCommandArgsTable singleton class, which controls user args.">
<polygon fill="white" stroke="#666666" points="445.5,-140 281.5,-140 281.5,-121 445.5,-121 445.5,-140"/>
<text text-anchor="middle" x="363.5" y="-128" font-family="Helvetica,sans-Serif" font-size="10.00">OMSimCommandArgsTable.hh</text>
</a>
</g>
</g>
<!-- Node1&#45;&gt;Node3 -->
<g id="edge2_Node000001_Node000003" class="edge">
<title>Node1&#45;&gt;Node3</title>
<g id="a_edge2_Node000001_Node000003"><a xlink:title=" ">
<path fill="none" stroke="#63b8ff" d="M611.94,-175.98C560.1,-166.7 477.11,-151.84 421.49,-141.88"/>
<polygon fill="#63b8ff" stroke="#63b8ff" points="421.89,-138.4 411.43,-140.08 420.66,-145.29 421.89,-138.4"/>
</a>
</g>
</g>
<!-- Node4 -->
<g id="Node000004" class="node">
<title>Node4</title>
<g id="a_Node000004"><a xlink:href="_o_m_sim_logger_8hh_source.html" target="_top" xlink:title=" ">
<polygon fill="white" stroke="#666666" points="267,-85 168,-85 168,-66 267,-66 267,-85"/>
<text text-anchor="middle" x="217.5" y="-73" font-family="Helvetica,sans-Serif" font-size="10.00">OMSimLogger.hh</text>
</a>
</g>
</g>
<!-- Node1&#45;&gt;Node4 -->
<g id="edge12_Node000001_Node000004" class="edge">
<title>Node1&#45;&gt;Node4</title>
<g id="a_edge12_Node000001_Node000004"><a xlink:title=" ">
<path fill="none" stroke="#63b8ff" d="M567.6,-181.56C469.68,-177.1 322.07,-166.17 272.5,-140 252.82,-129.61 237.06,-109.05 227.54,-94.13"/>
<polygon fill="#63b8ff" stroke="#63b8ff" points="230.38,-92.05 222.21,-85.31 224.38,-95.67 230.38,-92.05"/>
</a>
</g>
</g>
<!-- Node13 -->
<g id="Node000013" class="node">
<title>Node13</title>
<g id="a_Node000013"><a xlink:title=" ">
<polygon fill="#e0e0e0" stroke="#999999" points="565,-140 464,-140 464,-121 565,-121 565,-140"/>
<text text-anchor="middle" x="514.5" y="-128" font-family="Helvetica,sans-Serif" font-size="10.00">G4ParticleGun.hh</text>
</a>
</g>
</g>
<!-- Node1&#45;&gt;Node13 -->
<g id="edge13_Node000001_Node000013" class="edge">
<title>Node1&#45;&gt;Node13</title>
<g id="a_edge13_Node000001_Node000013"><a xlink:title=" ">
<path fill="none" stroke="#63b8ff" d="M636.2,-175.98C612.25,-167.23 574.72,-153.51 547.67,-143.62"/>
<polygon fill="#63b8ff" stroke="#63b8ff" points="548.81,-140.32 538.22,-140.17 546.41,-146.89 548.81,-140.32"/>
</a>
</g>
</g>
<!-- Node14 -->
<g id="Node000014" class="node">
<title>Node14</title>
<g id="a_Node000014"><a xlink:title=" ">
<polygon fill="#e0e0e0" stroke="#999999" points="735.5,-140 583.5,-140 583.5,-121 735.5,-121 735.5,-140"/>
<text text-anchor="middle" x="659.5" y="-128" font-family="Helvetica,sans-Serif" font-size="10.00">G4GeneralParticleSource.hh</text>
</a>
</g>
</g>
<!-- Node1&#45;&gt;Node14 -->
<g id="edge14_Node000001_Node000014" class="edge">
<title>Node1&#45;&gt;Node14</title>
<g id="a_edge14_Node000001_Node000014"><a xlink:title=" ">
<path fill="none" stroke="#63b8ff" d="M659.5,-175.75C659.5,-168.8 659.5,-158.85 659.5,-150.13"/>
<polygon fill="#63b8ff" stroke="#63b8ff" points="663,-150.09 659.5,-140.09 656,-150.09 663,-150.09"/>
</a>
</g>
</g>
<!-- Node15 -->
<g id="Node000015" class="node">
<title>Node15</title>
<g id="a_Node000015"><a xlink:title=" ">
<polygon fill="#e0e0e0" stroke="#999999" points="861,-140 754,-140 754,-121 861,-121 861,-140"/>
<text text-anchor="middle" x="807.5" y="-128" font-family="Helvetica,sans-Serif" font-size="10.00">G4ParticleTable.hh</text>
</a>
</g>
</g>
<!-- Node1&#45;&gt;Node15 -->
<g id="edge15_Node000001_Node000015" class="edge">
<title>Node1&#45;&gt;Node15</title>
<g id="a_edge15_Node000001_Node000015"><a xlink:title=" ">
<path fill="none" stroke="#63b8ff" d="M683.28,-175.98C707.73,-167.23 746.03,-153.51 773.65,-143.62"/>
<polygon fill="#63b8ff" stroke="#63b8ff" points="775.05,-146.84 783.29,-140.17 772.69,-140.25 775.05,-146.84"/>
</a>
</g>
</g>
<!-- Node16 -->
<g id="Node000016" class="node">
<title>Node16</title>
<g id="a_Node000016"><a xlink:title=" ">
<polygon fill="#e0e0e0" stroke="#999999" points="1007.5,-140 879.5,-140 879.5,-121 1007.5,-121 1007.5,-140"/>
<text text-anchor="middle" x="943.5" y="-128" font-family="Helvetica,sans-Serif" font-size="10.00">G4ParticleDefinition.hh</text>
</a>
</g>
</g>
<!-- Node1&#45;&gt;Node16 -->
<g id="edge16_Node000001_Node000016" class="edge">
<title>Node1&#45;&gt;Node16</title>
<g id="a_edge16_Node000001_Node000016"><a xlink:title=" ">
<path fill="none" stroke="#63b8ff" d="M705.13,-175.98C754.77,-166.72 834.16,-151.9 887.53,-141.94"/>
<polygon fill="#63b8ff" stroke="#63b8ff" points="888.32,-145.36 897.51,-140.08 887.04,-138.48 888.32,-145.36"/>
</a>
</g>
</g>
<!-- Node17 -->
<g id="Node000017" class="node">
<title>Node17</title>
<g id="a_Node000017"><a xlink:title=" ">
<polygon fill="#e0e0e0" stroke="#999999" points="1145,-140 1026,-140 1026,-121 1145,-121 1145,-140"/>
<text text-anchor="middle" x="1085.5" y="-128" font-family="Helvetica,sans-Serif" font-size="10.00">G4SystemOfUnits.hh</text>
</a>
</g>
</g>
<!-- Node1&#45;&gt;Node17 -->
<g id="edge17_Node000001_Node000017" class="edge">
<title>Node1&#45;&gt;Node17</title>
<g id="a_edge17_Node000001_Node000017"><a xlink:title=" ">
<path fill="none" stroke="#63b8ff" d="M727.94,-175.98C807,-166.15 936.36,-150.06 1015.9,-140.16"/>
<polygon fill="#63b8ff" stroke="#63b8ff" points="1016.33,-143.63 1025.82,-138.92 1015.47,-136.69 1016.33,-143.63"/>
</a>
</g>
</g>
<!-- Node18 -->
<g id="Node000018" class="node">
<title>Node18</title>
<g id="a_Node000018"><a xlink:title=" ">
<polygon fill="#e0e0e0" stroke="#999999" points="1273.5,-140 1163.5,-140 1163.5,-121 1273.5,-121 1273.5,-140"/>
<text text-anchor="middle" x="1218.5" y="-128" font-family="Helvetica,sans-Serif" font-size="10.00">G4RandomTools.hh</text>
</a>
</g>
</g>
<!-- Node1&#45;&gt;Node18 -->
<g id="edge18_Node000001_Node000018" class="edge">
<title>Node1&#45;&gt;Node18</title>
<g id="a_edge18_Node000001_Node000018"><a xlink:title=" ">
<path fill="none" stroke="#63b8ff" d="M751.3,-177.42C848.53,-169.65 1006.77,-156.25 1153.28,-140.09"/>
<polygon fill="#63b8ff" stroke="#63b8ff" points="1153.81,-143.56 1163.36,-138.97 1153.04,-136.6 1153.81,-143.56"/>
</a>
</g>
</g>
<!-- Node3&#45;&gt;Node4 -->
<g id="edge3_Node000003_Node000004" class="edge">
<title>Node3&#45;&gt;Node4</title>
<g id="a_edge3_Node000003_Node000004"><a xlink:title=" ">
<path fill="none" stroke="#63b8ff" d="M340.04,-120.98C315.92,-112.23 278.13,-98.51 250.9,-88.62"/>
<polygon fill="#63b8ff" stroke="#63b8ff" points="251.98,-85.29 241.38,-85.17 249.59,-91.87 251.98,-85.29"/>
</a>
</g>
</g>
<!-- Node9 -->
<g id="Node000009" class="node">
<title>Node9</title>
<g id="a_Node000009"><a xlink:title=" ">
<polygon fill="#e0e0e0" stroke="#999999" points="340,-85 285,-85 285,-66 340,-66 340,-85"/>
<text text-anchor="middle" x="312.5" y="-73" font-family="Helvetica,sans-Serif" font-size="10.00">fstream</text>
</a>
</g>
</g>
<!-- Node3&#45;&gt;Node9 -->
<g id="edge8_Node000003_Node000009" class="edge">
<title>Node3&#45;&gt;Node9</title>
<g id="a_edge8_Node000003_Node000009"><a xlink:title=" ">
<path fill="none" stroke="#63b8ff" d="M355.08,-120.75C347.73,-113.11 336.87,-101.82 327.96,-92.56"/>
<polygon fill="#63b8ff" stroke="#63b8ff" points="330.22,-89.87 320.76,-85.09 325.18,-94.72 330.22,-89.87"/>
</a>
</g>
</g>
<!-- Node10 -->
<g id="Node000010" class="node">
<title>Node10</title>
<g id="a_Node000010"><a xlink:title=" ">
<polygon fill="#e0e0e0" stroke="#999999" points="442.5,-85 358.5,-85 358.5,-66 442.5,-66 442.5,-85"/>
<text text-anchor="middle" x="400.5" y="-73" font-family="Helvetica,sans-Serif" font-size="10.00">boost/any.hpp</text>
</a>
</g>
</g>
<!-- Node3&#45;&gt;Node10 -->
<g id="edge9_Node000003_Node000010" class="edge">
<title>Node3&#45;&gt;Node10</title>
<g id="a_edge9_Node000003_Node000010"><a xlink:title=" ">
<path fill="none" stroke="#63b8ff" d="M369.61,-120.75C374.78,-113.34 382.35,-102.5 388.69,-93.41"/>
<polygon fill="#63b8ff" stroke="#63b8ff" points="391.65,-95.29 394.5,-85.09 385.91,-91.29 391.65,-95.29"/>
</a>
</g>
</g>
<!-- Node11 -->
<g id="Node000011" class="node">
<title>Node11</title>
<g id="a_Node000011"><a xlink:title=" ">
<polygon fill="#e0e0e0" stroke="#999999" points="528.5,-85 460.5,-85 460.5,-66 528.5,-66 528.5,-85"/>
<text text-anchor="middle" x="494.5" y="-73" font-family="Helvetica,sans-Serif" font-size="10.00">sys/time.h</text>
</a>
</g>
</g>
<!-- Node3&#45;&gt;Node11 -->
<g id="edge10_Node000003_Node000011" class="edge">
<title>Node3&#45;&gt;Node11</title>
<g id="a_edge10_Node000003_Node000011"><a xlink:title=" ">
<path fill="none" stroke="#63b8ff" d="M384.55,-120.98C405.91,-112.34 439.2,-98.87 463.56,-89.02"/>
<polygon fill="#63b8ff" stroke="#63b8ff" points="465.11,-92.17 473.07,-85.17 462.49,-85.68 465.11,-92.17"/>
</a>
</g>
</g>
<!-- Node12 -->
<g id="Node000012" class="node">
<title>Node12</title>
<g id="a_Node000012"><a xlink:title=" ">
<polygon fill="#e0e0e0" stroke="#999999" points="584.5,-85 546.5,-85 546.5,-66 584.5,-66 584.5,-85"/>
<text text-anchor="middle" x="565.5" y="-73" font-family="Helvetica,sans-Serif" font-size="10.00">map</text>
</a>
</g>
</g>
<!-- Node3&#45;&gt;Node12 -->
<g id="edge11_Node000003_Node000012" class="edge">
<title>Node3&#45;&gt;Node12</title>
<g id="a_edge11_Node000003_Node000012"><a xlink:title=" ">
<path fill="none" stroke="#63b8ff" d="M398.95,-120.92C432.13,-112.79 483.31,-99.96 536.34,-85.24"/>
<polygon fill="#63b8ff" stroke="#63b8ff" points="537.56,-88.53 546.25,-82.47 535.68,-81.79 537.56,-88.53"/>
</a>
</g>
</g>
<!-- Node5 -->
<g id="Node000005" class="node">
<title>Node5</title>
<g id="a_Node000005"><a xlink:title=" ">
<polygon fill="#e0e0e0" stroke="#999999" points="93,-24.5 0,-24.5 0,-5.5 93,-5.5 93,-24.5"/>
<text text-anchor="middle" x="46.5" y="-12.5" font-family="Helvetica,sans-Serif" font-size="10.00">spdlog/spdlog.h</text>
</a>
</g>
</g>
<!-- Node4&#45;&gt;Node5 -->
<g id="edge4_Node000004_Node000005" class="edge">
<title>Node4&#45;&gt;Node5</title>
<g id="a_edge4_Node000004_Node000005"><a xlink:title=" ">
<path fill="none" stroke="#63b8ff" d="M192.64,-65.99C163.25,-55.94 114.19,-39.16 81.11,-27.84"/>
<polygon fill="#63b8ff" stroke="#63b8ff" points="81.99,-24.44 71.39,-24.52 79.72,-31.07 81.99,-24.44"/>
</a>
</g>
</g>
<!-- Node6 -->
<g id="Node000006" class="node">
<title>Node6</title>
<g id="a_Node000006"><a xlink:title=" ">
<polygon fill="#e0e0e0" stroke="#999999" points="222,-30 111,-30 111,0 222,0 222,-30"/>
<text text-anchor="start" x="119" y="-18" font-family="Helvetica,sans-Serif" font-size="10.00">spdlog/sinks/stdout</text>
<text text-anchor="middle" x="166.5" y="-7" font-family="Helvetica,sans-Serif" font-size="10.00">_color_sinks.h</text>
</a>
</g>
</g>
<!-- Node4&#45;&gt;Node6 -->
<g id="edge5_Node000004_Node000006" class="edge">
<title>Node4&#45;&gt;Node6</title>
<g id="a_edge5_Node000004_Node000006"><a xlink:title=" ">
<path fill="none" stroke="#63b8ff" d="M209.97,-65.87C203.57,-58.52 194.08,-47.63 185.6,-37.91"/>
<polygon fill="#63b8ff" stroke="#63b8ff" points="188.01,-35.35 178.81,-30.11 182.74,-39.95 188.01,-35.35"/>
</a>
</g>
</g>
<!-- Node7 -->
<g id="Node000007" class="node">
<title>Node7</title>
<g id="a_Node000007"><a xlink:title=" ">
<polygon fill="#e0e0e0" stroke="#999999" points="298.5,-24.5 240.5,-24.5 240.5,-5.5 298.5,-5.5 298.5,-24.5"/>
<text text-anchor="middle" x="269.5" y="-12.5" font-family="Helvetica,sans-Serif" font-size="10.00">memory</text>
</a>
</g>
</g>
<!-- Node4&#45;&gt;Node7 -->
<g id="edge6_Node000004_Node000007" class="edge">
<title>Node4&#45;&gt;Node7</title>
<g id="a_edge6_Node000004_Node000007"><a xlink:title=" ">
<path fill="none" stroke="#63b8ff" d="M225.17,-65.87C233.01,-57.05 245.36,-43.16 255.04,-32.27"/>
<polygon fill="#63b8ff" stroke="#63b8ff" points="257.77,-34.47 261.8,-24.67 252.54,-29.82 257.77,-34.47"/>
</a>
</g>
</g>
<!-- Node8 -->
<g id="Node000008" class="node">
<title>Node8</title>
<g id="a_Node000008"><a xlink:title=" ">
<polygon fill="#e0e0e0" stroke="#999999" points="414.5,-24.5 316.5,-24.5 316.5,-5.5 414.5,-5.5 414.5,-24.5"/>
<text text-anchor="middle" x="365.5" y="-12.5" font-family="Helvetica,sans-Serif" font-size="10.00">spdlog/fmt/fmt.h</text>
</a>
</g>
</g>
<!-- Node4&#45;&gt;Node8 -->
<g id="edge7_Node000004_Node000008" class="edge">
<title>Node4&#45;&gt;Node8</title>
<g id="a_edge7_Node000004_Node000008"><a xlink:title=" ">
<path fill="none" stroke="#63b8ff" d="M239.02,-65.99C264.12,-56.07 305.82,-39.59 334.43,-28.28"/>
<polygon fill="#63b8ff" stroke="#63b8ff" points="335.94,-31.45 343.95,-24.52 333.37,-24.94 335.94,-31.45"/>
</a>
</g>
</g>
</g>
</svg>
